<svg width="126" height="175" viewBox="0 0 126 175" fill="none" xmlns="http://www.w3.org/2000/svg">
<path d="M62.457 7.81099V26.72H0V40.472H62.457V138.455H0V153.353H62.457V167.105C62.457 173.064 68.9511 173.79 72.1981 173.408H116.319C120.445 173.408 123.386 169.206 124.341 167.105V7.81099C124.341 3.22699 118.993 1.69899 116.319 1.50799H72.1981C64.4052 1.50799 62.457 5.70999 62.457 7.81099Z" fill="url(#paint0_linear_4853_341684)"/>
<path d="M0 153.353H62.457C62.457 155.454 62.457 161.146 62.457 167.105C62.457 173.064 68.951 173.79 72.1981 173.408C85.1861 173.408 112.193 173.408 116.319 173.408C120.445 173.408 123.386 169.206 124.341 167.105C124.341 115.917 124.341 12.395 124.341 7.81099C124.341 3.22699 118.993 1.69899 116.319 1.50799C104.859 1.50799 79.9909 1.50799 72.1981 1.50799C64.4052 1.50799 62.457 5.70999 62.457 7.81099V26.72H0M0 138.455H62.457V40.472H0" stroke="#CCB5FF" stroke-width="3"/>
<defs>
<linearGradient id="paint0_linear_4853_341684" x1="120.903" y1="80.582" x2="4.02877e-07" y2="80.582" gradientUnits="userSpaceOnUse">
<stop stop-color="#BDBCFF"/>
<stop offset="0.237057" stop-color="#E0DFFF" stop-opacity="0.46"/>
<stop offset="0.449313" stop-color="#C1BFFF"/>
<stop offset="0.881833" stop-color="#CCCBFF"/>
<stop offset="0.939903" stop-color="#D9C7FF" stop-opacity="0.51"/>
<stop offset="1" stop-color="#CCCBFF" stop-opacity="0"/>
</linearGradient>
</defs>
</svg>
