<svg width="241" height="117" viewBox="0 0 241 117" fill="none" xmlns="http://www.w3.org/2000/svg">
<g filter="url(#filter0_f_4853_341708)">
<path d="M50.4306 57.7994L60.9512 56.7975H64.9591L67.965 58.3004L70.9709 56.7975H77.4836L84.4974 54.7935C86.0003 55.9625 89.1064 58.3004 89.5072 58.3004C89.908 58.3004 94.35 59.6364 96.5209 60.3043L100.529 61.3063L103.535 63.3102H107.042L109.045 61.3063L108.544 58.8014L112.051 58.3004L114.055 58.8014L116.059 56.7975L120.568 58.8014L124.576 56.7975L128.083 54.7935L132.592 53.7916L134.595 54.7935L137.601 56.7975H142.11L144.615 59.8034L149.124 56.7975L152.631 54.7935L154.134 56.7975H158.643L162.65 55.7955L166.658 59.8034L170.165 61.3063L174.674 58.8014L180.185 58.3004L184.193 59.8034L189.703 57.7994" stroke="#FF5C00" stroke-width="7"/>
</g>
<g filter="url(#filter1_f_4853_341708)">
<path d="M50.4306 57.7994L60.9512 56.7975H64.9591L67.965 58.3004L70.9709 56.7975H77.4836L84.4974 54.7935C86.0003 55.9625 89.1064 58.3004 89.5072 58.3004C89.908 58.3004 94.35 59.6364 96.5209 60.3043L100.529 61.3063L103.535 63.3102H107.042L109.045 61.3063L108.544 58.8014L112.051 58.3004L114.055 58.8014L116.059 56.7975L120.568 58.8014L124.576 56.7975L128.083 54.7935L132.592 53.7916L134.595 54.7935L137.601 56.7975H142.11L144.615 59.8034L149.124 56.7975L152.631 54.7935L154.134 56.7975H158.643L162.65 55.7955L166.658 59.8034L170.165 61.3063L174.674 58.8014L180.185 58.3004L184.193 59.8034L189.703 57.7994" stroke="#FF5C00" stroke-width="7"/>
</g>
<g filter="url(#filter2_f_4853_341708)">
<path d="M50.4306 57.7994L60.9512 56.7975H64.9591L67.965 58.3004L70.9709 56.7975H77.4836L84.4974 54.7935C86.0003 55.9625 89.1064 58.3004 89.5072 58.3004C89.908 58.3004 94.35 59.6364 96.5209 60.3043L100.529 61.3063L103.535 63.3102H107.042L109.045 61.3063L108.544 58.8014L112.051 58.3004L114.055 58.8014L116.059 56.7975L120.568 58.8014L124.576 56.7975L128.083 54.7935L132.592 53.7916L134.595 54.7935L137.601 56.7975H142.11L144.615 59.8034L149.124 56.7975L152.631 54.7935L154.134 56.7975H158.643L162.65 55.7955L166.658 59.8034L170.165 61.3063L174.674 58.8014L180.185 58.3004L184.193 59.8034L189.703 57.7994" stroke="#FF965A" stroke-width="2"/>
</g>
<g filter="url(#filter3_f_4853_341708)">
<path d="M50.4306 57.7994L60.9512 56.7975H64.9591L67.965 58.3004L70.9709 56.7975H77.4836L84.4974 54.7935C86.0003 55.9625 89.1064 58.3004 89.5072 58.3004C89.908 58.3004 94.35 59.6364 96.5209 60.3043L100.529 61.3063L103.535 63.3102H107.042L109.045 61.3063L108.544 58.8014L112.051 58.3004L114.055 58.8014L116.059 56.7975L120.568 58.8014L124.576 56.7975L128.083 54.7935L132.592 53.7916L134.595 54.7935L137.601 56.7975H142.11L144.615 59.8034L149.124 56.7975L152.631 54.7935L154.134 56.7975H158.643L162.65 55.7955L166.658 59.8034L170.165 61.3063L174.674 58.8014L180.185 58.3004L184.193 59.8034L189.703 57.7994" stroke="#FF5C00" stroke-width="7"/>
</g>
<path d="M50.4306 57.7994L60.9512 56.7975H64.9591L67.965 58.3004L70.9709 56.7975H77.4836L84.4974 54.7935C86.0003 55.9625 89.1064 58.3004 89.5072 58.3004C89.908 58.3004 94.35 59.6364 96.5209 60.3043L100.529 61.3063L103.535 63.3102H107.042L109.045 61.3063L108.544 58.8014L112.051 58.3004L114.055 58.8014L116.059 56.7975L120.568 58.8014L124.576 56.7975L128.083 54.7935L132.592 53.7916L134.595 54.7935L137.601 56.7975H142.11L144.615 59.8034L149.124 56.7975L152.631 54.7935L154.134 56.7975H158.643L162.65 55.7955L166.658 59.8034L170.165 61.3063L174.674 58.8014L180.185 58.3004L184.193 59.8034L189.703 57.7994" stroke="#FF9E45" stroke-width="7"/>
<g filter="url(#filter4_f_4853_341708)">
<path d="M49.9296 57.7994L60.9512 56.7975H64.9591L67.965 58.3004L70.9709 56.7975H77.4836L84.4974 54.7935C86.0003 55.9625 89.1064 58.3004 89.5072 58.3004C89.908 58.3004 94.35 59.6364 96.5209 60.3043L100.529 61.3063L103.535 63.3102H107.042L109.045 61.3063L108.544 58.8014L112.051 58.3004L114.055 58.8014L116.059 56.7975L120.568 58.8014L124.576 56.7975L128.083 54.7935L132.592 53.7916L134.595 54.7935L137.601 56.7975H142.11L144.615 59.8034L149.124 56.7975L152.631 54.7935L154.134 56.7975H158.643L162.65 55.7955L166.658 59.8034L170.165 61.3063L174.674 58.8014L180.185 58.3004L184.193 59.8034L189.202 58.3004" stroke="white" stroke-width="4"/>
</g>
<defs>
<filter id="filter0_f_4853_341708" x="40.0785" y="40.0785" width="160.843" height="36.7582" filterUnits="userSpaceOnUse" color-interpolation-filters="sRGB">
<feFlood flood-opacity="0" result="BackgroundImageFix"/>
<feBlend mode="normal" in="SourceGraphic" in2="BackgroundImageFix" result="shape"/>
<feGaussianBlur stdDeviation="5" result="effect1_foregroundBlur_4853_341708"/>
</filter>
<filter id="filter1_f_4853_341708" x="0" y="0" width="241" height="116.915" filterUnits="userSpaceOnUse" color-interpolation-filters="sRGB">
<feFlood flood-opacity="0" result="BackgroundImageFix"/>
<feBlend mode="normal" in="SourceGraphic" in2="BackgroundImageFix" result="shape"/>
<feGaussianBlur stdDeviation="25" result="effect1_foregroundBlur_4853_341708"/>
</filter>
<filter id="filter2_f_4853_341708" x="40.316" y="42.7167" width="159.749" height="31.6151" filterUnits="userSpaceOnUse" color-interpolation-filters="sRGB">
<feFlood flood-opacity="0" result="BackgroundImageFix"/>
<feBlend mode="normal" in="SourceGraphic" in2="BackgroundImageFix" result="shape"/>
<feGaussianBlur stdDeviation="5" result="effect1_foregroundBlur_4853_341708"/>
</filter>
<filter id="filter3_f_4853_341708" x="46.0903" y="46.0903" width="148.819" height="24.7347" filterUnits="userSpaceOnUse" color-interpolation-filters="sRGB">
<feFlood flood-opacity="0" result="BackgroundImageFix"/>
<feBlend mode="normal" in="SourceGraphic" in2="BackgroundImageFix" result="shape"/>
<feGaussianBlur stdDeviation="2" result="effect1_foregroundBlur_4853_341708"/>
</filter>
<filter id="filter4_f_4853_341708" x="47.7443" y="49.6771" width="144.038" height="17.641" filterUnits="userSpaceOnUse" color-interpolation-filters="sRGB">
<feFlood flood-opacity="0" result="BackgroundImageFix"/>
<feBlend mode="normal" in="SourceGraphic" in2="BackgroundImageFix" result="shape"/>
<feGaussianBlur stdDeviation="1" result="effect1_foregroundBlur_4853_341708"/>
</filter>
</defs>
</svg>
