<svg width="1144" height="4465" viewBox="0 0 1144 4465" fill="none" xmlns="http://www.w3.org/2000/svg">
<path d="M1093.94 4134.07C1145.18 4202.39 1141.98 4383.16 1133.97 4465C1069.92 4262.17 947.156 4174.1 875.097 4115.38C794.513 4049.72 522.811 3880.53 341.331 3768.43C159.85 3656.34 32.185 3486.46 9.41051 3418.31C-3.45551 3379.8 6.83741 3232 18.4023 3173.29C21.0711 3229.33 26.4089 3251.75 37.0841 3277.37C47.7594 3302.99 90.4608 3442.84 618.889 3755.09C822.658 3875.5 1029.89 4048.66 1093.94 4134.07Z" fill="url(#paint0_linear_4286_274904)"/>
<path d="M1093.53 2038.41C1142.26 2103.38 1139.59 2258.14 1131.58 2339.99C1067.53 2137.15 946.746 2078.44 874.688 2019.73C794.104 1954.07 522.402 1784.87 340.921 1672.78C159.441 1560.69 36.6744 1387.21 9.98613 1320.49C-11.3645 1267.12 6.4277 1136.34 17.9927 1077.63C20.6615 1133.67 25.9992 1156.09 36.6744 1181.71C47.3498 1207.33 90.0512 1347.18 618.48 1659.43C822.248 1779.84 1029.48 1953.01 1093.53 2038.41Z" fill="#A7ADE9"/>
<path d="M98.0091 1361.33C119.511 1361.33 622.418 1361.12 622.418 1361.12L539.41 1440.63L622.418 1520.14C622.418 1520.14 298.527 1519.99 251.023 1519.99C203.518 1519.99 76.5072 1361.33 98.0091 1361.33Z" fill="url(#paint1_radial_4286_274904)"/>
<path d="M98.0091 1361.33C119.511 1361.33 622.418 1361.12 622.418 1361.12L539.41 1440.63L622.418 1520.14C622.418 1520.14 298.527 1519.99 251.023 1519.99C203.518 1519.99 76.5072 1361.33 98.0091 1361.33Z" stroke="#C63737"/>
<path d="M383.437 1452.17L406.994 1392.75H422.675L386.461 1478.05C384.023 1483.49 381.749 1487.35 379.64 1489.65C377.53 1491.9 375.046 1493.63 372.186 1494.85C369.373 1496.03 365.834 1496.61 361.568 1496.61C357.864 1496.61 355.497 1496.4 354.466 1495.98L354.888 1485.29L361.287 1485.57C366.209 1485.57 369.866 1483.2 372.256 1478.47L374.014 1474.81L376.686 1468.55L341.808 1392.75H356.927L383.437 1452.17Z" fill="#E97432"/>
<path d="M340.531 1572.5C362.033 1572.5 1026.56 1572.14 1026.56 1572.14L943.549 1651.65L1026.56 1731.16H553.55C506.046 1731.16 319.029 1572.5 340.531 1572.5Z" fill="url(#paint2_radial_4286_274904)"/>
<path d="M340.531 1572.5C362.033 1572.5 1026.56 1572.14 1026.56 1572.14L943.549 1651.65L1026.56 1731.16H553.55C506.046 1731.16 319.029 1572.5 340.531 1572.5Z" stroke="#C63737"/>
<path d="M711.464 1663.19L735.021 1603.77H750.702L714.488 1689.07C712.05 1694.5 709.777 1698.37 707.667 1700.67C705.558 1702.92 703.073 1704.65 700.213 1705.87C697.401 1707.04 693.861 1707.63 689.595 1707.63C685.892 1707.63 683.524 1707.42 682.493 1707L682.915 1696.31L689.314 1696.59C694.236 1696.59 697.893 1694.22 700.284 1689.49L702.042 1685.83L704.714 1679.57L669.836 1603.77H684.954L711.464 1663.19Z" fill="#E97432"/>
<path d="M607.055 1783.36C628.557 1783.36 898.442 1783.16 898.442 1783.16C898.442 1783.16 981.45 1783.31 981.45 1862.67C981.45 1942.02 898.442 1942.17 898.442 1942.17C898.442 1942.17 906.721 1942.02 859.217 1942.02C811.712 1942.02 585.553 1783.36 607.055 1783.36Z" fill="url(#paint3_radial_4286_274904)"/>
<path d="M607.055 1783.36C628.557 1783.36 898.442 1783.16 898.442 1783.16C898.442 1783.16 981.45 1783.31 981.45 1862.67C981.45 1942.02 898.442 1942.17 898.442 1942.17C898.442 1942.17 906.721 1942.02 859.217 1942.02C811.712 1942.02 585.553 1783.36 607.055 1783.36Z" stroke="#5D69A7"/>
<path d="M870.817 1825.9H821.453V1917.17H807.882V1814.79H870.817V1825.9Z" fill="#5D69A7"/>
<path d="M139.423 3076.48C160.924 3076.48 491.833 3076.28 491.833 3076.28C491.833 3076.28 408.826 3076.3 408.826 3155.78C408.826 3235.27 491.833 3235.29 491.833 3235.29C491.833 3235.29 100.419 3235.14 52.9147 3235.14C5.41044 3235.14 117.921 3076.48 139.423 3076.48Z" fill="url(#paint4_radial_4286_274904)"/>
<path d="M139.423 3076.48C160.924 3076.48 491.833 3076.28 491.833 3076.28C491.833 3076.28 408.826 3076.3 408.826 3155.78C408.826 3235.27 491.833 3235.29 491.833 3235.29C491.833 3235.29 100.419 3235.14 52.9147 3235.14C5.41044 3235.14 117.921 3076.48 139.423 3076.48Z" stroke="#5D69A7"/>
<path d="M278.74 3098.9H292.311V3190.25H342.8V3098.9H356.301V3189.97H367.06L365.794 3225.97H353.629V3201.29H278.74V3098.9Z" fill="#833A80"/>
<path d="M921.491 2474.66C890.988 2474.66 447.448 2474.22 447.448 2474.22L364.441 2553.73L447.448 2633.24C447.448 2633.24 792.979 2633.32 855.985 2633.32C918.991 2633.32 951.993 2474.66 921.491 2474.66Z" fill="url(#paint5_radial_4286_274904)"/>
<path d="M921.491 2474.66C890.988 2474.66 447.448 2474.22 447.448 2474.22L364.441 2553.73L447.448 2633.24C447.448 2633.24 792.979 2633.32 855.985 2633.32C918.991 2633.32 951.993 2474.66 921.491 2474.66Z" stroke="#E97432"/>
<path d="M612.877 2578.51H569.982L560.349 2605.23H546.426L585.523 2502.85H597.336L636.504 2605.23H622.651L612.877 2578.51ZM574.061 2567.4H608.869L591.43 2519.52L574.061 2567.4Z" fill="#C63737"/>
<path d="M678.969 2685.67C648.466 2685.67 239.931 2685.24 239.931 2685.24C239.931 2685.24 156.924 2685.16 156.924 2764.75C156.924 2844.33 239.931 2844.33 239.931 2844.33L539.956 2844.33C602.962 2844.33 709.471 2685.67 678.969 2685.67Z" fill="url(#paint6_radial_4286_274904)"/>
<path d="M678.969 2685.67C648.466 2685.67 239.931 2685.24 239.931 2685.24C239.931 2685.24 156.924 2685.16 156.924 2764.75C156.924 2844.33 239.931 2844.33 239.931 2844.33L539.956 2844.33C602.962 2844.33 709.471 2685.67 678.969 2685.67Z" stroke="#E97432"/>
<path d="M320.814 2727.98H271.45V2819.25H257.878V2716.87H320.814V2727.98Z" fill="#5D69A7"/>
<path d="M1095.51 2263.64C1065 2263.64 677.437 2263.2 677.437 2263.2L594.429 2342.71L677.437 2422.22C677.437 2422.22 910.957 2422.3 973.963 2422.3C1036.97 2422.3 1126.01 2263.64 1095.51 2263.64Z" fill="url(#paint7_radial_4286_274904)"/>
<path d="M1095.51 2263.64C1065 2263.64 677.437 2263.2 677.437 2263.2L594.429 2342.71L677.437 2422.22C677.437 2422.22 910.957 2422.3 973.963 2422.3C1036.97 2422.3 1126.01 2263.64 1095.51 2263.64Z" stroke="#833A80"/>
<path d="M887.904 2361.49H845.01L835.376 2388.21H821.453L860.55 2285.83H872.364L911.531 2388.21H897.678L887.904 2361.49ZM849.088 2350.38H883.896L866.457 2302.5L849.088 2350.38Z" fill="#C63737"/>
<path d="M1042 2043.62L771.051 2043.62C773.789 2043.62 853.987 2044.52 853.987 2122.69C853.987 2202.22 770.979 2202.2 770.979 2202.2C770.979 2202.2 1024.5 2202.28 1087.51 2202.28C1150.51 2202.28 1072.5 2043.62 1042 2043.62Z" fill="url(#paint8_radial_4286_274904)"/>
<path d="M1042 2043.62L771.051 2043.62C773.789 2043.62 853.987 2044.52 853.987 2122.69C853.987 2202.22 770.979 2202.2 770.979 2202.2C770.979 2202.2 1024.5 2202.28 1087.51 2202.28C1150.51 2202.28 1072.5 2043.62 1042 2043.62Z" stroke="#833A80"/>
<path d="M909.881 2065.81H923.453V2157.16H973.942V2065.81H987.443V2156.87H998.202L996.936 2192.88H984.771V2168.2H909.881V2065.81Z" fill="#833A80"/>
<path d="M23.4123 3290.5C44.9141 3290.5 543.438 3290.3 543.438 3290.3L626.446 3369.8L543.438 3449.31C543.438 3449.31 154.424 3449.16 106.92 3449.16C59.4153 3449.16 1.91041 3290.5 23.4123 3290.5Z" fill="url(#paint9_radial_4286_274904)"/>
<path d="M23.4123 3290.5C44.9141 3290.5 543.438 3290.3 543.438 3290.3L626.446 3369.8L543.438 3449.31C543.438 3449.31 154.424 3449.16 106.92 3449.16C59.4153 3449.16 1.91041 3290.5 23.4123 3290.5Z" stroke="#C63737"/>
<path d="M327.853 3397.59H284.959L275.325 3424.31H261.402L300.499 3321.92H312.313L351.481 3424.31H337.628L327.853 3397.59ZM289.037 3386.48H323.845L306.406 3338.59L289.037 3386.48Z" fill="#C63737"/>
<path d="M50.0273 3091.98C-1.21424 3160.3 1.98836 3341.07 9.99485 3422.91C74.0471 3220.08 196.813 3132.01 268.871 3073.3C349.455 3007.63 621.157 2838.44 802.638 2726.35C984.118 2614.26 1106.88 2440.78 1133.57 2374.06C1154.92 2320.68 1137.13 2181.91 1125.57 2123.19C1122.9 2179.24 1117.56 2209.66 1106.88 2235.28C1096.21 2260.9 1053.51 2400.75 525.079 2713C321.311 2833.41 114.079 3006.57 50.0273 3091.98Z" fill="#7B86E3"/>
<path d="M45.3682 968.786C-5.87335 1037.11 -2.67075 1217.88 5.33574 1299.72C69.3879 1096.89 192.154 1008.82 264.212 950.104C344.796 884.443 616.498 715.247 797.978 603.156C979.459 491.065 1102.23 317.591 1128.91 250.87C1150.26 197.494 1132.47 58.7143 1120.91 0C1118.24 56.0455 1112.9 86.4701 1102.23 112.091C1091.55 137.712 1048.85 277.558 520.42 589.812C316.652 710.22 109.42 883.383 45.3682 968.786Z" fill="url(#paint10_linear_4286_274904)"/>
<defs>
<linearGradient id="paint0_linear_4286_274904" x1="111.92" y1="3422.81" x2="310.938" y2="3698.83" gradientUnits="userSpaceOnUse">
<stop stop-color="#A7ADE9"/>
<stop offset="1" stop-color="#A7ADE9" stop-opacity="0"/>
</linearGradient>
<radialGradient id="paint1_radial_4286_274904" cx="0" cy="0" r="1" gradientUnits="userSpaceOnUse" gradientTransform="translate(89.9363 1440.63) rotate(90) scale(79.5072 1085.23)">
<stop stop-color="#FFED8D"/>
<stop offset="1" stop-color="#FFB661"/>
</radialGradient>
<radialGradient id="paint2_radial_4286_274904" cx="0" cy="0" r="1" gradientUnits="userSpaceOnUse" gradientTransform="translate(331.45 1651.65) rotate(90) scale(79.5072 1416.67)">
<stop stop-color="#FFED8D"/>
<stop offset="1" stop-color="#FFB661"/>
</radialGradient>
<radialGradient id="paint3_radial_4286_274904" cx="0" cy="0" r="1" gradientUnits="userSpaceOnUse" gradientTransform="translate(779.972 1862.67) rotate(90) scale(79.5071 1001.27)">
<stop stop-color="#8DFFF1"/>
<stop offset="1" stop-color="#6CDCFF"/>
</radialGradient>
<radialGradient id="paint4_radial_4286_274904" cx="0" cy="0" r="1" gradientUnits="userSpaceOnUse" gradientTransform="translate(158.044 3155.78) rotate(90) scale(79.5072 550.607)">
<stop stop-color="#D48DFF"/>
<stop offset="1" stop-color="#C76CFF"/>
</radialGradient>
<radialGradient id="paint5_radial_4286_274904" cx="0" cy="0" r="1" gradientUnits="userSpaceOnUse" gradientTransform="translate(699.481 2553.77) rotate(90) scale(79.5465 1010.31)">
<stop stop-color="#FF8D8D"/>
<stop offset="1" stop-color="#FF6C6C"/>
</radialGradient>
<radialGradient id="paint6_radial_4286_274904" cx="0" cy="0" r="1" gradientUnits="userSpaceOnUse" gradientTransform="translate(467.724 2764.79) rotate(90) scale(79.5465 758.432)">
<stop stop-color="#8DFFF1"/>
<stop offset="1" stop-color="#6CDCFF"/>
</radialGradient>
<radialGradient id="paint7_radial_4286_274904" cx="0" cy="0" r="1" gradientUnits="userSpaceOnUse" gradientTransform="translate(893.349 2342.75) rotate(90) scale(79.5465 691.846)">
<stop stop-color="#FF8D8D"/>
<stop offset="1" stop-color="#FF6C6C"/>
</radialGradient>
<radialGradient id="paint8_radial_4286_274904" cx="0" cy="0" r="1" gradientUnits="userSpaceOnUse" gradientTransform="translate(939.094 2122.95) rotate(90) scale(79.3301 910.598)">
<stop stop-color="#D48DFF"/>
<stop offset="1" stop-color="#C76CFF"/>
</radialGradient>
<radialGradient id="paint9_radial_4286_274904" cx="0" cy="0" r="1" gradientUnits="userSpaceOnUse" gradientTransform="translate(72.4103 3369.83) rotate(90) scale(79.33 1207.33)">
<stop stop-color="#FF8D8D"/>
<stop offset="1" stop-color="#FF6C6C"/>
</radialGradient>
<linearGradient id="paint10_linear_4286_274904" x1="49.414" y1="1166.1" x2="133.922" y2="929.084" gradientUnits="userSpaceOnUse">
<stop stop-color="#7B86E3"/>
<stop offset="1" stop-color="#7B86E3" stop-opacity="0"/>
</linearGradient>
</defs>
</svg>
