<svg width="579" height="341" viewBox="0 0 579 341" fill="none" xmlns="http://www.w3.org/2000/svg">
<path d="M459.246 53.0932C465.979 49.6099 477.951 57.9088 485.455 72.3921C492.958 86.8755 488.845 115.671 476.188 104.378C469.272 98.2054 472.601 86.0566 466.946 78.0632C454.901 61.0377 452.526 56.5766 459.246 53.0932Z" fill="#E69264"/>
<path opacity="0.3608" d="M464.314 54.3638C464.571 55.3049 464.486 56.8694 464.571 58.116C464.62 58.8127 464.877 59.7171 465.587 59.7049C466.126 59.6927 466.456 59.0693 466.395 58.5316C466.334 58.006 466.016 57.5416 465.771 57.0649C465.526 56.5882 465.367 56.0016 465.636 55.5371C465.857 55.1338 466.346 54.9382 466.799 54.9505C467.252 54.9627 467.693 55.1582 468.085 55.4027C469.015 55.9527 469.884 57.016 469.517 58.0305C469.333 58.556 468.856 58.9227 468.427 59.2771C467.999 59.6438 467.57 60.0716 467.509 60.6338C467.448 61.1838 467.999 61.8071 468.525 61.5994C468.905 60.8782 469.162 60.096 469.566 59.3993C469.97 58.6905 470.582 58.0549 471.377 57.8716C472.173 57.6882 473.128 58.1771 473.25 58.9838C473.324 59.5094 473.042 60.0349 472.663 60.4138C472.283 60.7805 471.794 61.0371 471.353 61.3427C469.407 62.6505 467.338 66.6471 468.158 66.8182C468.758 66.9405 470.08 64.6916 471.084 63.3716C472.087 62.0638 473.52 60.8538 475.172 60.9394C475.735 60.9638 476.31 61.1593 476.702 61.5749C477.094 61.9782 477.265 62.626 477.033 63.1394C476.69 63.8849 475.76 64.0805 474.988 64.3371C474.217 64.5938 473.36 65.2905 473.63 66.0605C474.658 65.9871 475.515 65.3027 476.421 64.826C477.327 64.3494 478.575 64.1293 479.297 64.8627C479.909 65.486 479.824 66.5738 479.334 67.2949C478.844 68.0282 478.049 68.4927 477.29 68.9327C476.041 69.6538 474.805 70.3627 473.556 71.0838C472.969 71.426 472.271 72.0249 472.553 72.6482C472.736 73.0516 473.275 73.1982 473.703 73.076C474.132 72.9538 474.487 72.6482 474.817 72.3549C476.078 71.2549 477.412 70.2282 478.808 69.2993C479.567 68.7982 480.497 68.2971 481.342 68.6271C482.284 69.006 482.578 70.216 482.431 71.2182C482.162 72.9905 480.925 74.4938 479.456 75.5082C477.975 76.5227 476.262 77.1093 474.56 77.6838C474.707 78.0505 475.123 78.2582 475.515 78.2582C475.907 78.2582 476.286 78.1116 476.653 77.9527C478.22 77.256 479.714 76.4005 481.109 75.4105C481.648 75.0193 482.198 74.6038 482.835 74.4449C483.484 74.286 484.267 74.4449 484.61 75.0071C484.977 75.606 484.72 76.4249 484.218 76.9138C483.716 77.4027 483.031 77.6349 482.37 77.8671C481.709 78.0993 481.023 78.356 480.546 78.8694C480.326 79.1138 480.166 79.5416 480.436 79.7371C480.57 79.8349 480.754 79.8227 480.913 79.7982C482.419 79.5049 483.569 77.7571 485.075 78.0505C485.797 78.1849 486.385 78.8449 486.434 79.5782C486.483 80.3116 486.005 81.0449 485.32 81.2893C484.634 81.5338 483.875 81.3016 483.153 81.3749C482.431 81.4482 481.635 82.1205 481.929 82.7805C482.137 83.2449 482.762 83.3671 483.251 83.2449C483.741 83.1105 484.169 82.8049 484.634 82.6216C485.32 82.3527 486.165 82.3771 486.728 82.8416C487.303 83.306 487.45 84.2716 487.34 84.7971C487.229 85.3227 487.046 85.8849 486.679 86.0927C486.311 86.3005 485.871 86.2882 485.442 86.276C483.582 86.2638 481.709 86.8138 480.154 87.8282C479.836 88.036 479.518 88.2805 479.383 88.6227C479.236 88.9771 479.346 89.4416 479.701 89.5882C479.946 89.686 480.252 89.6616 480.46 89.5027C481.586 88.6471 482.762 88.2316 483.998 87.7916C484.708 87.5349 486.262 87.1193 486.899 87.4982C488.233 88.2927 487.744 90.566 487.45 90.896C487.156 91.2138 486.691 91.336 486.262 91.4216C485.65 91.556 485.038 91.6905 484.426 91.8249C484.157 91.886 483.875 91.9471 483.655 92.1182C483.435 92.2893 483.288 92.5949 483.386 92.8516C483.533 93.2305 484.059 93.2793 484.463 93.206C485.222 93.0838 485.944 92.7905 486.593 92.3749C486.764 92.2649 486.96 92.1427 487.156 92.1916C487.352 92.2527 487.45 92.4605 487.499 92.656C487.756 93.646 487.352 94.7705 486.532 95.3694C485.907 95.8216 485.124 95.9805 484.377 96.1638C483.631 96.3593 482.847 96.6405 482.394 97.2516C482.223 97.4716 482.1 97.7527 482.125 98.0338C482.149 98.3149 482.345 98.596 482.615 98.6449C482.97 98.7183 483.276 98.4371 483.557 98.2171C483.998 97.8627 484.524 97.606 485.075 97.4716C485.406 97.386 485.785 97.3616 486.042 97.5938C486.348 97.8627 486.299 98.3394 486.214 98.7305C485.956 99.9282 485.614 101.126 484.989 102.177C484.365 103.24 483.459 104.157 482.333 104.622C481.195 105.086 479.824 105.049 478.808 104.365C478.44 104.12 478.11 103.717 478.183 103.289C478.257 102.886 478.661 102.629 479.028 102.446C481.831 101.077 481.525 101.016 481.55 100.796C481.586 100.539 480.105 100.637 479.469 100.894C478.795 101.163 478.22 101.627 477.535 101.859C476.849 102.092 475.968 102.006 475.601 101.358C475.037 101.04 474.805 100.307 474.952 99.6716C475.099 99.0482 475.564 98.5227 476.09 98.156C476.617 97.7893 477.216 97.5327 477.792 97.2393C478.942 96.6649 480.007 95.9316 480.95 95.0638C481.097 94.9294 481.244 94.7827 481.317 94.5993C481.391 94.416 481.342 94.1716 481.182 94.0738C481.023 93.976 480.815 94.0249 480.632 94.0982C479.603 94.4894 478.734 95.1982 477.804 95.7849C476.874 96.3716 475.796 96.8605 474.707 96.7016C473.617 96.5427 472.601 95.5282 472.81 94.4405C472.956 93.6582 473.679 93.096 474.438 92.8516C475.197 92.6071 476.004 92.6071 476.8 92.4971C477.204 92.4482 477.62 92.3627 477.926 92.0938C478.232 91.8249 478.379 91.336 478.134 91.006C477.853 90.6149 477.253 90.6883 476.8 90.8349C476.115 91.0549 475.441 91.3483 474.731 91.446C474.021 91.5438 473.214 91.3727 472.748 90.8227C472.357 90.3582 472.283 89.686 472.406 89.0871C472.675 87.7794 473.752 86.7649 474.952 86.2027C476.164 85.6405 477.498 85.4571 478.82 85.2494C479.248 85.176 479.701 85.1027 480.032 84.8094C480.362 84.516 480.448 83.9416 480.117 83.6605C479.799 83.3916 479.31 83.5505 478.93 83.7094C477.779 84.1982 476.629 84.6871 475.478 85.1882C474.903 85.4327 474.315 85.6771 473.703 85.7505C473.079 85.8238 472.406 85.6894 471.965 85.2494C471.402 84.7116 471.316 83.7827 471.647 83.0738C471.977 82.3649 472.65 81.8638 473.385 81.5827C474.119 81.3016 474.915 81.2282 475.698 81.1793C476.151 81.1549 476.629 81.1182 476.984 80.8616C477.339 80.6049 477.51 80.006 477.18 79.7005C476.886 79.4316 476.421 79.5294 476.029 79.6516C475.417 79.8471 474.805 80.0427 474.193 80.2382C473.52 80.4582 471.157 81.2649 470.239 79.7982C469.859 79.1871 469.933 78.2827 470.496 77.8794C471.891 77.1827 473.287 76.4738 474.695 75.7771C476.041 75.1049 477.522 74.2738 477.963 72.8316C478.061 72.526 478.049 72.0982 477.755 71.9638C477.498 71.8416 477.204 72.0371 476.984 72.2205C475.503 73.4305 473.936 74.5305 472.283 75.496C471.488 75.9605 470.631 76.4127 469.7 76.3638C468.892 76.3271 468.134 75.8871 467.546 75.3249C466.958 74.7627 466.53 74.066 466.089 73.3694C465.857 73.0027 465.624 72.5749 465.759 72.1594C465.893 71.7316 466.371 71.5238 466.799 71.3649C468.819 70.6071 470.778 69.7027 472.663 68.676C472.883 68.5538 473.103 68.4316 473.238 68.236C473.373 68.0405 473.409 67.7349 473.238 67.5638C473.005 67.3071 472.577 67.4538 472.283 67.6127C471.022 68.2849 469.798 69.0549 468.464 69.5438C467.118 70.0327 465.6 70.216 464.278 69.666C462.686 69.006 461.707 67.4293 460.813 65.9505C460.63 65.6327 460.434 65.2782 460.52 64.9238C460.666 64.3738 461.364 64.2149 461.927 64.166C462.882 64.0805 463.837 63.9949 464.792 63.9216C465.147 63.8971 465.514 63.8605 465.808 63.6649C466.101 63.4693 466.297 63.0782 466.138 62.7605C465.906 62.296 465.232 62.3938 464.73 62.5405C463.739 62.8216 462.723 63.0171 461.695 63.1149C460.654 63.2127 459.516 63.1882 458.72 62.5038C457.79 61.7093 457.692 60.3405 457.655 59.1182C457.643 58.5194 457.753 57.7371 458.341 57.6271C458.83 57.5416 459.222 58.006 459.553 58.3727C460.311 59.2282 461.352 59.8271 462.466 60.0349C462.698 60.0838 462.956 60.096 463.115 59.9249C463.274 59.7538 463.237 59.4849 463.102 59.3016C462.968 59.1182 462.76 59.0082 462.564 58.8982C461.695 58.4216 460.862 57.8593 460.103 57.2238C459.785 56.9549 459.467 56.6738 459.283 56.3071C459.1 55.9405 459.051 55.476 459.259 55.1216C459.455 54.8038 459.81 54.6449 460.152 54.5105C461.499 54.0705 464.192 53.8871 464.314 54.3638Z" fill="#FDDFD3"/>
<path d="M461.817 57.1145C462.088 57.1145 462.307 56.8956 462.307 56.6256C462.307 56.3556 462.088 56.1367 461.817 56.1367C461.547 56.1367 461.328 56.3556 461.328 56.6256C461.328 56.8956 461.547 57.1145 461.817 57.1145Z" fill="#AA2829"/>
<path d="M465.343 67.76C465.613 67.76 465.832 67.5411 465.832 67.2711C465.832 67.0011 465.613 66.7822 465.343 66.7822C465.072 66.7822 464.853 67.0011 464.853 67.2711C464.853 67.5411 465.072 67.76 465.343 67.76Z" fill="#AA2829"/>
<path d="M471.549 65.9265C471.819 65.9265 472.038 65.7076 472.038 65.4376C472.038 65.1676 471.819 64.9487 471.549 64.9487C471.278 64.9487 471.059 65.1676 471.059 65.4376C471.059 65.7076 471.278 65.9265 471.549 65.9265Z" fill="#AA2829"/>
<path d="M476.8 67.5891C477.07 67.5891 477.289 67.3702 477.289 67.1002C477.289 66.8302 477.07 66.6113 476.8 66.6113C476.529 66.6113 476.31 66.8302 476.31 67.1002C476.31 67.3702 476.529 67.5891 476.8 67.5891Z" fill="#AA2829"/>
<path d="M480.154 71.366C480.425 71.366 480.644 71.1471 480.644 70.8771C480.644 70.6071 480.425 70.3882 480.154 70.3882C479.884 70.3882 479.665 70.6071 479.665 70.8771C479.665 71.1471 479.884 71.366 480.154 71.366Z" fill="#AA2829"/>
<path d="M472.417 79.4319C472.688 79.4319 472.907 79.213 472.907 78.943C472.907 78.673 472.688 78.4541 472.417 78.4541C472.147 78.4541 471.928 78.673 471.928 78.943C471.928 79.213 472.147 79.4319 472.417 79.4319Z" fill="#AA2829"/>
<path d="M479.04 81.3752C479.31 81.3752 479.53 81.1563 479.53 80.8863C479.53 80.6163 479.31 80.3975 479.04 80.3975C478.77 80.3975 478.55 80.6163 478.55 80.8863C478.55 81.1563 478.77 81.3752 479.04 81.3752Z" fill="#AA2829"/>
<path d="M485.259 85.5188C485.529 85.5188 485.748 85.2999 485.748 85.0299C485.748 84.7599 485.529 84.541 485.259 84.541C484.988 84.541 484.769 84.7599 484.769 85.0299C484.769 85.2999 484.988 85.5188 485.259 85.5188Z" fill="#AA2829"/>
<path d="M484.83 89.8459C485.1 89.8459 485.32 89.627 485.32 89.357C485.32 89.087 485.1 88.8682 484.83 88.8682C484.56 88.8682 484.34 89.087 484.34 89.357C484.34 89.627 484.56 89.8459 484.83 89.8459Z" fill="#AA2829"/>
<path d="M474.841 96.0423C475.112 96.0423 475.331 95.8234 475.331 95.5533C475.331 95.2833 475.112 95.0645 474.841 95.0645C474.571 95.0645 474.352 95.2833 474.352 95.5533C474.352 95.8234 474.571 96.0423 474.841 96.0423Z" fill="#AA2829"/>
<path d="M476.8 84.5288C476.837 84.4922 476.849 84.4433 476.862 84.3944C476.972 84.1011 477.094 83.7222 476.837 83.4655C476.727 83.331 476.507 83.2333 476.36 83.3677C476.323 83.3922 476.311 83.441 476.286 83.4899C476.249 83.5633 476.201 83.6244 476.152 83.6733C476.09 83.7466 476.005 83.7466 475.931 83.8077C475.907 83.8322 475.882 83.8688 475.858 83.8811C475.846 83.8688 475.846 83.8688 475.833 83.8566C475.723 83.7588 475.601 83.6733 475.454 83.6488C475.344 83.6244 475.233 83.6611 475.123 83.6488C475.099 83.6488 475.05 83.6366 475.013 83.6488C474.952 83.7099 474.927 83.7955 474.854 83.8444C474.854 83.8444 474.842 83.8566 474.83 83.8566C474.707 83.7711 474.572 83.8199 474.536 83.6733C474.523 83.5877 474.56 83.4899 474.499 83.4288C474.364 83.3188 474.132 83.331 473.997 83.3188C473.997 83.3066 474.009 83.2944 473.997 83.2699C473.985 83.2088 473.936 83.1844 473.887 83.1599C473.789 83.111 473.679 83.0744 473.569 83.0622C473.397 83.0866 473.226 83.1233 473.042 83.1233C472.969 83.0622 472.908 82.9644 472.908 82.8788C472.981 82.6222 473.324 82.6833 473.52 82.6955C473.63 82.7199 473.862 82.8055 473.997 82.8422C474.058 82.8666 474.12 82.9033 474.193 82.9399C474.377 83.0377 474.56 83.1233 474.781 83.221C474.927 83.2944 475.148 83.3311 475.282 83.3677C475.405 83.4044 475.527 83.441 475.662 83.4166C475.772 83.3677 475.882 83.3188 475.968 83.2455C476.103 83.0866 475.943 82.8788 475.833 82.7566C475.466 82.4022 474.891 82.3166 474.364 82.1577C474.866 82.3166 475.331 82.341 475.723 82.7199C475.833 82.8422 475.992 83.0622 475.833 83.2088C475.748 83.2822 475.637 83.3433 475.527 83.3677C475.429 83.3922 475.319 83.3555 475.221 83.331C474.891 83.2577 474.83 83.221 474.462 83.0499C474.279 82.9277 473.973 82.7933 473.838 82.7688C473.642 82.6955 473.471 82.6344 473.25 82.6344C473.104 82.6099 472.761 82.6466 472.785 82.8788C472.822 82.9644 472.871 83.0744 472.957 83.111C473.177 83.2088 473.434 83.1233 473.667 83.0988C473.716 83.0988 473.716 83.111 473.765 83.1233C473.814 83.1355 473.887 83.1966 473.862 83.2822C473.997 83.3922 474.193 83.3433 474.352 83.3677C474.377 83.3922 474.389 83.4166 474.401 83.4533C474.413 83.5266 474.389 83.5877 474.413 83.661C474.45 83.7222 474.524 83.7588 474.585 83.7833C474.621 83.7955 474.67 83.8077 474.707 83.8199C474.719 83.8322 474.744 83.8444 474.744 83.8688C474.756 83.881 474.756 83.8933 474.768 83.9055C474.695 83.9422 474.609 83.9544 474.536 83.9788C474.511 83.9788 474.523 83.9911 474.499 83.9788C474.462 83.9666 474.426 83.9544 474.364 83.9666C474.242 84.0644 474.132 84.0399 473.997 84.101C473.96 84.1133 473.911 84.1377 473.875 84.1499C473.838 84.1011 473.765 84.0766 473.703 84.0644C473.581 84.0522 473.471 84.101 473.361 84.0644C473.263 84.0033 473.152 83.9544 473.03 83.9422C472.834 83.9177 472.675 83.8933 472.516 83.8688H472.504C472.455 83.8322 472.418 83.7955 472.394 83.7588C472.283 83.5633 472.234 83.2944 472.296 83.0744C472.357 83.001 472.528 82.9766 472.626 82.9522C472.736 83.0622 472.736 83.2455 472.846 83.3433C472.908 83.4655 472.957 83.5999 473.079 83.6733L473.091 83.6855C473.079 83.6733 473.067 83.6611 473.055 83.6488C472.944 83.5388 472.957 83.4044 472.846 83.2699C472.797 83.1722 472.797 83.0622 472.724 82.9766C472.663 82.9277 472.589 82.9033 472.516 82.9155C472.406 82.9399 472.296 82.9644 472.185 83.0133C472.112 83.0988 472.136 83.2333 472.149 83.331C472.173 83.4777 472.198 83.6366 472.296 83.7588C472.369 83.8566 472.491 83.9055 472.614 83.9177C472.773 83.9422 472.957 83.9666 473.128 83.9911C473.14 83.9911 473.226 84.0399 473.275 84.0644C473.361 84.101 473.422 84.1133 473.507 84.1377C473.593 84.1622 473.667 84.1377 473.752 84.1377C473.765 84.1499 473.765 84.1744 473.777 84.1866C473.801 84.2111 473.838 84.2233 473.862 84.2233C473.96 84.2599 474.071 84.1866 474.156 84.1499C474.266 84.1133 474.389 84.1255 474.475 84.0399C474.487 84.0277 474.511 84.0277 474.523 84.0277C474.536 84.0277 474.585 84.0399 474.597 84.0399C474.658 84.0399 474.707 84.0033 474.768 84.0033C474.793 84.0033 474.817 83.9911 474.842 83.9788C474.903 84.0155 474.964 84.0399 475.05 84.0644C475.209 84.1133 475.442 84.1622 475.699 84.101C475.748 84.101 475.797 84.0522 475.833 84.0399C475.833 84.0399 475.846 84.0399 475.846 84.0277C475.87 84.1866 475.992 84.2844 476.103 84.3822C476.164 84.431 476.2 84.5166 476.274 84.5533C476.372 84.6144 476.507 84.6877 476.617 84.6388C476.678 84.6022 476.739 84.5777 476.8 84.5288ZM475.601 84.0399C475.38 84.101 475.185 84.0888 475.025 84.0399C474.989 84.0277 474.94 84.0277 474.878 83.9544C474.94 83.9177 474.989 83.881 475.025 83.8322C475.05 83.7955 475.074 83.7344 475.123 83.7099C475.172 83.7099 475.221 83.7099 475.258 83.7099C475.331 83.7099 475.466 83.6977 475.491 83.6977C475.601 83.7588 475.711 83.8322 475.784 83.9422C475.735 83.9788 475.662 84.0033 475.601 84.0399ZM476.274 84.4677C476.164 84.3577 476.005 84.2722 475.968 84.1133C475.968 84.0644 475.943 84.0277 475.919 83.9911C475.956 83.9666 475.992 83.9422 476.017 83.9177C476.078 83.8322 476.164 83.8322 476.237 83.771C476.298 83.7222 476.347 83.6488 476.396 83.5755C476.421 83.5266 476.433 83.4655 476.482 83.4288C476.519 83.3922 476.58 83.3799 476.604 83.3799C476.617 83.3922 476.629 83.4044 476.641 83.4166C476.898 83.6366 476.862 84.0033 476.727 84.2844C476.69 84.3577 476.69 84.4555 476.641 84.5166C476.58 84.5533 476.482 84.6266 476.421 84.6388C476.384 84.5899 476.323 84.5288 476.274 84.4677Z" fill="#AA2829"/>
</svg>
