<svg width="579" height="341" viewBox="0 0 579 341" fill="none" xmlns="http://www.w3.org/2000/svg">
<path d="M474.559 256.373C466.982 256.679 459.662 244.09 459.013 227.81C458.365 211.517 474.315 187.171 480.986 202.766C484.634 211.285 476.457 220.88 478.183 230.511C481.867 251.02 482.137 256.068 474.559 256.373Z" fill="#E69264"/>
<path opacity="0.3608" d="M470.508 253.073C470.679 252.12 471.413 250.739 471.866 249.565C472.123 248.917 472.27 247.976 471.634 247.695C471.144 247.475 470.569 247.903 470.41 248.416C470.238 248.917 470.336 249.48 470.348 250.005C470.361 250.543 470.263 251.142 469.822 251.448C469.455 251.716 468.928 251.692 468.512 251.484C468.108 251.276 467.79 250.91 467.533 250.531C466.921 249.639 466.578 248.306 467.349 247.536C467.741 247.145 468.329 247.011 468.867 246.864C469.406 246.718 469.981 246.51 470.275 246.021C470.569 245.544 470.324 244.75 469.773 244.725C469.124 245.214 468.561 245.813 467.888 246.277C467.215 246.742 466.395 247.072 465.599 246.889C464.803 246.705 464.142 245.874 464.375 245.092C464.522 244.579 465.011 244.224 465.513 244.053C466.015 243.882 466.566 243.845 467.092 243.772C469.406 243.405 472.98 240.667 472.319 240.166C471.83 239.8 469.675 241.279 468.219 242.049C466.762 242.819 464.95 243.295 463.493 242.525C462.992 242.256 462.563 241.841 462.38 241.303C462.196 240.765 462.318 240.117 462.747 239.751C463.371 239.225 464.301 239.433 465.109 239.531C465.917 239.629 466.982 239.36 467.068 238.541C466.113 238.174 465.036 238.431 464.02 238.48C462.992 238.529 461.78 238.199 461.437 237.233C461.143 236.402 461.682 235.473 462.441 235.009C463.2 234.556 464.106 234.471 464.987 234.397C466.419 234.275 467.851 234.153 469.271 234.031C469.957 233.97 470.826 233.725 470.85 233.041C470.863 232.589 470.434 232.234 469.993 232.161C469.553 232.087 469.112 232.222 468.671 232.344C467.056 232.809 465.415 233.175 463.751 233.432C462.845 233.566 461.792 233.627 461.168 232.967C460.47 232.234 460.727 231 461.29 230.156C462.282 228.665 464.044 227.822 465.807 227.529C467.57 227.235 469.381 227.431 471.169 227.626C471.193 227.235 470.899 226.869 470.544 226.697C470.189 226.526 469.773 226.502 469.381 226.502C467.668 226.465 465.954 226.612 464.265 226.917C463.616 227.04 462.943 227.186 462.294 227.064C461.645 226.942 460.996 226.465 460.923 225.805C460.837 225.109 461.425 224.473 462.086 224.253C462.747 224.021 463.469 224.106 464.167 224.167C464.864 224.241 465.599 224.302 466.248 224.033C466.554 223.911 466.872 223.581 466.713 223.287C466.639 223.141 466.468 223.067 466.297 223.031C464.803 222.664 463.028 223.752 461.78 222.847C461.192 222.42 460.935 221.576 461.192 220.892C461.449 220.207 462.208 219.743 462.93 219.816C463.653 219.89 464.24 220.415 464.926 220.647C465.611 220.892 466.615 220.623 466.627 219.89C466.639 219.376 466.125 218.997 465.623 218.912C465.122 218.826 464.607 218.924 464.106 218.887C463.371 218.839 462.612 218.472 462.294 217.8C461.976 217.14 462.245 216.199 462.563 215.771C462.881 215.343 463.285 214.915 463.714 214.866C464.13 214.83 464.534 215.037 464.913 215.221C466.603 216.015 468.512 216.309 470.361 216.052C470.728 216.003 471.12 215.917 471.401 215.661C471.683 215.404 471.781 214.927 471.524 214.659C471.34 214.463 471.058 214.353 470.801 214.414C469.418 214.707 468.182 214.597 466.872 214.475C466.125 214.402 464.546 214.133 464.118 213.51C463.249 212.214 464.656 210.369 465.06 210.197C465.464 210.026 465.929 210.124 466.358 210.222C466.97 210.356 467.582 210.491 468.194 210.625C468.463 210.686 468.745 210.747 469.026 210.686C469.296 210.625 469.565 210.417 469.577 210.136C469.602 209.733 469.149 209.476 468.757 209.366C468.023 209.159 467.239 209.11 466.48 209.22C466.284 209.244 466.052 209.281 465.893 209.146C465.746 209.012 465.746 208.78 465.783 208.584C465.966 207.582 466.811 206.739 467.815 206.543C468.574 206.396 469.345 206.592 470.104 206.726C470.863 206.861 471.683 206.946 472.368 206.58C472.613 206.445 472.846 206.25 472.944 205.981C473.041 205.712 472.98 205.382 472.76 205.211C472.478 205.003 472.074 205.113 471.732 205.199C471.181 205.333 470.593 205.333 470.042 205.223C469.712 205.162 469.345 205.015 469.222 204.71C469.063 204.343 469.308 203.927 469.553 203.61C470.287 202.632 471.12 201.703 472.123 201.006C473.127 200.31 474.351 199.857 475.575 199.919C476.8 199.98 478.024 200.591 478.66 201.642C478.88 202.021 479.027 202.522 478.77 202.876C478.525 203.219 478.06 203.267 477.644 203.28C474.535 203.329 474.78 203.512 474.657 203.707C474.51 203.927 475.894 204.465 476.579 204.502C477.301 204.539 478.024 204.367 478.746 204.441C479.468 204.514 480.227 204.966 480.288 205.712C480.668 206.237 480.558 207.007 480.154 207.509C479.75 208.01 479.113 208.291 478.477 208.401C477.84 208.511 477.191 208.486 476.542 208.511C475.257 208.547 473.984 208.767 472.76 209.146C472.576 209.207 472.38 209.269 472.234 209.415C472.099 209.55 472.025 209.794 472.136 209.953C472.234 210.112 472.454 210.149 472.638 210.161C473.739 210.246 474.816 209.965 475.906 209.831C476.995 209.696 478.183 209.709 479.101 210.32C480.019 210.919 480.509 212.275 479.86 213.167C479.395 213.815 478.501 214.011 477.705 213.913C476.91 213.815 476.175 213.473 475.416 213.229C475.025 213.106 474.608 213.009 474.217 213.119C473.825 213.229 473.482 213.62 473.568 214.011C473.666 214.487 474.229 214.671 474.706 214.732C475.416 214.83 476.151 214.842 476.848 215.062C477.534 215.282 478.195 215.771 478.379 216.467C478.525 217.054 478.317 217.69 477.95 218.179C477.155 219.242 475.747 219.719 474.412 219.706C473.078 219.706 471.781 219.291 470.508 218.924C470.091 218.802 469.638 218.692 469.222 218.814C468.806 218.949 468.476 219.425 468.659 219.816C468.843 220.195 469.345 220.256 469.761 220.269C471.009 220.305 472.258 220.354 473.507 220.391C474.131 220.415 474.767 220.44 475.355 220.635C475.943 220.831 476.493 221.246 476.726 221.821C477.008 222.554 476.689 223.422 476.09 223.923C475.49 224.424 474.657 224.595 473.874 224.546C473.09 224.485 472.344 224.229 471.609 223.935C471.193 223.776 470.752 223.593 470.312 223.679C469.871 223.764 469.467 224.229 469.638 224.644C469.785 225.023 470.263 225.121 470.654 225.17C471.291 225.255 471.928 225.329 472.564 225.414C473.274 225.5 475.759 225.769 475.955 227.492C476.041 228.201 475.6 228.995 474.914 229.117C473.348 229.166 471.781 229.203 470.226 229.252C468.72 229.301 467.031 229.411 466.015 230.535C465.795 230.78 465.623 231.159 465.831 231.403C466.015 231.623 466.37 231.562 466.652 231.501C468.5 231.036 470.397 230.706 472.295 230.523C473.213 230.437 474.18 230.401 475 230.829C475.722 231.207 476.212 231.916 476.506 232.686C476.787 233.444 476.897 234.263 476.995 235.07C477.044 235.497 477.081 235.986 476.787 236.304C476.481 236.634 475.967 236.622 475.514 236.585C473.372 236.414 471.205 236.402 469.051 236.536C468.806 236.549 468.549 236.573 468.341 236.695C468.133 236.817 467.974 237.074 468.047 237.306C468.157 237.636 468.598 237.685 468.941 237.673C470.373 237.6 471.805 237.416 473.225 237.539C474.645 237.661 476.114 238.15 477.069 239.201C478.219 240.472 478.452 242.317 478.623 244.029C478.66 244.395 478.685 244.799 478.452 245.08C478.085 245.52 477.387 245.361 476.861 245.165C475.955 244.835 475.061 244.505 474.155 244.175C473.825 244.053 473.47 243.931 473.127 243.98C472.784 244.029 472.429 244.31 472.442 244.664C472.454 245.177 473.115 245.373 473.617 245.459C474.633 245.617 475.637 245.874 476.616 246.216C477.595 246.571 478.623 247.084 479.052 248.025C479.554 249.137 479.064 250.421 478.587 251.545C478.354 252.095 477.913 252.743 477.326 252.596C476.848 252.474 476.689 251.888 476.555 251.411C476.236 250.323 475.539 249.333 474.621 248.661C474.437 248.526 474.192 248.392 473.984 248.49C473.776 248.575 473.69 248.844 473.739 249.064C473.788 249.284 473.923 249.468 474.057 249.651C474.645 250.445 475.159 251.313 475.575 252.205C475.747 252.584 475.918 252.975 475.93 253.379C475.943 253.794 475.796 254.234 475.441 254.466C475.135 254.674 474.743 254.674 474.376 254.637C472.931 254.54 470.422 253.562 470.508 253.073Z" fill="#FDDFD3"/>
<path d="M473.739 252.583C474.01 252.583 474.229 252.364 474.229 252.094C474.229 251.824 474.01 251.605 473.739 251.605C473.469 251.605 473.25 251.824 473.25 252.094C473.25 252.364 473.469 252.583 473.739 252.583Z" fill="#AA2829"/>
<path d="M475.061 241.438C475.332 241.438 475.551 241.219 475.551 240.949C475.551 240.679 475.332 240.46 475.061 240.46C474.791 240.46 474.572 240.679 474.572 240.949C474.572 241.219 474.791 241.438 475.061 241.438Z" fill="#AA2829"/>
<path d="M468.659 240.472C468.929 240.472 469.149 240.253 469.149 239.983C469.149 239.713 468.929 239.494 468.659 239.494C468.389 239.494 468.169 239.713 468.169 239.983C468.169 240.253 468.389 240.472 468.659 240.472Z" fill="#AA2829"/>
<path d="M464.607 236.744C464.878 236.744 465.097 236.525 465.097 236.255C465.097 235.985 464.878 235.767 464.607 235.767C464.337 235.767 464.118 235.985 464.118 236.255C464.118 236.525 464.337 236.744 464.607 236.744Z" fill="#AA2829"/>
<path d="M463.175 231.916C463.446 231.916 463.665 231.697 463.665 231.427C463.665 231.157 463.446 230.938 463.175 230.938C462.905 230.938 462.686 231.157 462.686 231.427C462.686 231.697 462.905 231.916 463.175 231.916Z" fill="#AA2829"/>
<path d="M473.604 227.871C473.875 227.871 474.094 227.652 474.094 227.382C474.094 227.112 473.875 226.894 473.604 226.894C473.334 226.894 473.115 227.112 473.115 227.382C473.115 227.652 473.334 227.871 473.604 227.871Z" fill="#AA2829"/>
<path d="M468.439 223.313C468.71 223.313 468.929 223.094 468.929 222.824C468.929 222.554 468.71 222.335 468.439 222.335C468.169 222.335 467.95 222.554 467.95 222.824C467.95 223.094 468.169 223.313 468.439 223.313Z" fill="#AA2829"/>
<path d="M464.571 216.932C464.841 216.932 465.06 216.713 465.06 216.443C465.06 216.173 464.841 215.954 464.571 215.954C464.3 215.954 464.081 216.173 464.081 216.443C464.081 216.713 464.3 216.932 464.571 216.932Z" fill="#AA2829"/>
<path d="M466.787 213.192C467.057 213.192 467.276 212.973 467.276 212.703C467.276 212.433 467.057 212.214 466.787 212.214C466.516 212.214 466.297 212.433 466.297 212.703C466.297 212.973 466.516 213.192 466.787 213.192Z" fill="#AA2829"/>
<path d="M478.464 211.799C478.735 211.799 478.954 211.58 478.954 211.31C478.954 211.04 478.735 210.821 478.464 210.821C478.194 210.821 477.975 211.04 477.975 211.31C477.975 211.58 478.194 211.799 478.464 211.799Z" fill="#AA2829"/>
<path d="M472.013 220.476C471.965 220.501 471.94 220.537 471.903 220.574C471.671 220.782 471.414 221.087 471.524 221.417C471.561 221.589 471.732 221.772 471.916 221.711C471.965 221.699 472.001 221.662 472.038 221.625C472.099 221.576 472.173 221.54 472.246 221.515C472.332 221.479 472.405 221.503 472.503 221.491C472.54 221.479 472.564 221.466 472.601 221.454C472.601 221.466 472.613 221.479 472.613 221.491C472.674 221.625 472.748 221.747 472.858 221.833C472.944 221.906 473.066 221.919 473.164 221.967C473.189 221.98 473.225 222.016 473.274 222.016C473.36 221.992 473.409 221.919 473.495 221.906C473.507 221.906 473.507 221.906 473.519 221.906C473.593 222.029 473.739 222.053 473.715 222.2C473.69 222.273 473.617 222.359 473.642 222.444C473.715 222.603 473.935 222.689 474.058 222.75C474.045 222.762 474.033 222.774 474.033 222.799C474.021 222.86 474.058 222.909 474.094 222.945C474.168 223.031 474.241 223.116 474.339 223.165C474.511 223.214 474.682 223.251 474.841 223.336C474.878 223.422 474.902 223.532 474.853 223.617C474.682 223.825 474.388 223.617 474.229 223.532C474.143 223.471 473.972 223.287 473.862 223.19C473.813 223.141 473.776 223.08 473.727 223.019C473.605 222.847 473.47 222.689 473.311 222.517C473.213 222.395 473.017 222.261 472.919 222.175C472.821 222.09 472.723 222.004 472.601 221.98C472.491 221.98 472.368 221.967 472.258 222.016C472.075 222.102 472.124 222.359 472.173 222.517C472.356 222.994 472.834 223.324 473.25 223.679C472.87 223.324 472.454 223.104 472.258 222.591C472.209 222.432 472.16 222.175 472.368 222.102C472.479 222.077 472.601 222.065 472.711 222.077C472.809 222.102 472.895 222.175 472.968 222.249C473.238 222.444 473.274 222.517 473.531 222.823C473.654 223.006 473.874 223.263 473.972 223.349C474.119 223.495 474.254 223.63 474.449 223.715C474.572 223.801 474.902 223.923 474.976 223.691C474.988 223.593 474.976 223.483 474.915 223.397C474.755 223.214 474.486 223.177 474.266 223.116C474.217 223.104 474.229 223.092 474.192 223.055C474.156 223.019 474.119 222.933 474.18 222.872C474.107 222.713 473.911 222.676 473.776 222.579C473.764 222.542 473.764 222.517 473.764 222.481C473.776 222.42 473.837 222.359 473.837 222.285C473.837 222.212 473.776 222.151 473.727 222.102C473.703 222.077 473.666 222.041 473.629 222.016C473.617 222.004 473.617 221.98 473.605 221.955C473.605 221.943 473.605 221.919 473.605 221.906C473.69 221.906 473.764 221.931 473.85 221.943C473.862 221.955 473.874 221.943 473.874 221.955C473.899 221.98 473.935 222.016 473.984 222.016C474.143 221.98 474.229 222.053 474.376 222.053C474.425 222.053 474.462 222.053 474.511 222.065C474.523 222.126 474.584 222.175 474.633 222.212C474.743 222.273 474.866 222.273 474.939 222.359C475 222.456 475.086 222.542 475.184 222.615C475.343 222.725 475.49 222.811 475.625 222.896C475.625 222.896 475.637 222.896 475.637 222.909C475.661 222.957 475.674 223.006 475.686 223.055C475.71 223.275 475.625 223.544 475.478 223.715C475.392 223.752 475.233 223.703 475.123 223.691C475.062 223.544 475.147 223.385 475.086 223.239C475.074 223.104 475.098 222.957 475.013 222.835C475.013 222.835 475 222.823 475.013 222.823C475.013 222.835 475.025 222.86 475.037 222.872C475.086 223.019 475.025 223.129 475.061 223.3C475.061 223.41 475.013 223.507 475.049 223.617C475.086 223.679 475.147 223.74 475.208 223.764C475.319 223.789 475.429 223.813 475.551 223.813C475.649 223.764 475.686 223.63 475.723 223.544C475.771 223.397 475.808 223.251 475.771 223.092C475.747 222.97 475.661 222.872 475.551 222.823C475.429 222.737 475.257 222.627 475.123 222.542C475.11 222.542 475.049 222.456 475.013 222.407C474.951 222.346 474.902 222.297 474.829 222.249C474.768 222.2 474.682 222.175 474.609 222.151C474.609 222.139 474.609 222.114 474.609 222.102C474.596 222.077 474.572 222.053 474.547 222.029C474.474 221.955 474.352 221.98 474.254 221.967C474.143 221.955 474.033 221.894 473.911 221.931C473.899 221.931 473.874 221.931 473.862 221.919C473.85 221.906 473.813 221.882 473.801 221.87C473.752 221.845 473.691 221.845 473.629 221.833C473.605 221.833 473.58 221.821 473.556 221.821C473.507 221.76 473.47 221.711 473.397 221.662C473.274 221.552 473.091 221.417 472.821 221.356C472.772 221.344 472.711 221.356 472.675 221.356H472.662C472.711 221.21 472.638 221.063 472.577 220.916C472.54 220.843 472.54 220.757 472.491 220.684C472.417 220.586 472.332 220.464 472.209 220.464C472.148 220.452 472.087 220.452 472.013 220.476ZM472.883 221.417C473.103 221.454 473.287 221.54 473.409 221.662C473.433 221.686 473.482 221.711 473.507 221.796C473.446 221.796 473.384 221.821 473.323 221.845C473.274 221.87 473.238 221.919 473.189 221.919C473.14 221.906 473.103 221.882 473.066 221.857C473.005 221.833 472.87 221.784 472.846 221.772C472.772 221.674 472.699 221.552 472.675 221.43C472.748 221.43 472.821 221.43 472.883 221.417ZM472.454 220.745C472.503 220.892 472.613 221.039 472.589 221.197C472.577 221.246 472.564 221.283 472.577 221.332C472.54 221.332 472.491 221.344 472.454 221.356C472.368 221.405 472.283 221.381 472.185 221.393C472.099 221.417 472.026 221.454 471.952 221.503C471.903 221.54 471.867 221.589 471.805 221.601C471.756 221.625 471.695 221.601 471.671 221.589C471.659 221.576 471.658 221.564 471.646 221.54C471.512 221.234 471.695 220.916 471.94 220.709C472.001 220.66 472.038 220.574 472.124 220.537C472.197 220.525 472.32 220.501 472.381 220.525C472.417 220.599 472.454 220.672 472.454 220.745Z" fill="#AA2829"/>
</svg>
