<svg width="1112" height="482" viewBox="0 0 1112 482" fill="none" xmlns="http://www.w3.org/2000/svg">
<path d="M429.877 378.874C434.238 380.702 439.619 379.664 443.016 376.395C445.152 374.324 444.736 370.453 442.525 368.451C440.313 366.448 436.91 366.195 434.133 367.285C431.356 368.375 429.183 370.589 427.466 373.031C425.99 375.162 427.54 377.892 429.877 378.874Z" fill="#E2C2C6" stroke="#7F2135" stroke-width="0.194168" stroke-miterlimit="10"/>
<path d="M415.95 347.171C417.572 348.702 419.095 350.582 421.3 350.306C423.505 350.029 425.395 348.145 425.705 345.952C426.005 343.738 424.687 341.412 422.633 340.556C420.855 339.805 418.836 339.364 416.944 339.83C415.051 340.296 413.343 341.795 413.065 343.72C412.778 345.623 415.124 346.399 415.95 347.171Z" fill="#E2C2C6" stroke="#7F2135" stroke-width="0.194168" stroke-miterlimit="10"/>
<path d="M405.247 318.488C405.308 320.946 406.773 323.257 408.423 325.08C410.073 326.903 412.81 327.986 415.036 326.965C417.262 325.944 418.004 322.341 415.972 320.968C410.379 317.232 405.594 312.248 402.103 306.481C401.155 304.927 398.503 305.277 397.557 306.841C396.612 308.405 397.123 310.509 398.23 311.966C399.337 313.423 400.94 314.405 402.459 315.424C403.978 316.444 405.223 317.586 405.247 318.488Z" fill="#E2C2C6" stroke="#7F2135" stroke-width="0.194168" stroke-miterlimit="10"/>
<path d="M387.207 297.449C387.974 298.146 389.236 297.911 390.282 297.874C391.319 297.816 392.378 297.469 393.063 296.681C393.575 296.071 393.847 295.265 393.892 294.459C393.993 293.045 393.486 291.572 392.517 290.536C391.558 289.468 390.158 288.827 388.752 288.796C387.75 288.763 386.651 289.077 386.067 289.921C385.56 290.655 385.54 291.628 385.563 292.53C385.544 293.73 386.708 297.013 387.207 297.449Z" fill="#E2C2C6" stroke="#7F2135" stroke-width="0.194168" stroke-miterlimit="10"/>
<path d="M458.609 370.689C458.873 371.28 458.925 372.018 459.391 372.494C460.848 373.998 463.818 372.491 464.737 370.585C465.655 368.678 464.749 366.142 462.874 365.231C460.989 364.299 458.439 365.161 457.511 367.047C457.229 367.604 457.085 368.302 457.319 368.882C457.596 369.671 458.419 370.266 458.609 370.689Z" fill="#E2C2C6" stroke="#7F2135" stroke-width="0.194168" stroke-miterlimit="10"/>
<path d="M462.823 359.346C461.283 359.807 459.74 360.319 458.16 360.012C456.58 359.704 455.121 358.988 453.704 358.252C444.555 353.47 436.33 347.133 428.157 340.798C427.226 340.074 426.217 339.232 426.07 338.055C425.909 336.733 427.057 335.509 428.382 335.246C429.686 334.993 431.039 335.529 432.102 336.321C433.153 337.144 433.978 338.195 434.844 339.227C440.995 346.416 450.015 351.079 459.433 351.937C461.247 352.089 463.148 352.152 464.713 353.049C466.3 353.937 467.369 356.045 466.475 357.611C465.638 359.076 463.608 359.122 462.823 359.346Z" fill="#E2C2C6" stroke="#7F2135" stroke-width="0.194168" stroke-miterlimit="10"/>
<path d="M489.092 345.543C487.247 349.056 485.435 352.757 481.493 353.278C477.55 353.799 473.651 352.323 469.993 350.764C458.267 345.765 447 339.698 436.405 332.647C432.472 330.019 428.566 327.228 425.608 323.556C423.947 321.484 422.607 319.167 421.012 317.016C418.496 313.653 415.411 310.773 412.649 307.596C406.15 300.082 401.67 290.802 399.829 281.027C399.152 277.476 398.903 273.581 400.73 270.482C402.588 267.394 407.297 265.871 409.902 268.357C411.573 269.942 411.825 272.543 411.398 274.813C410.971 277.083 409.992 279.195 409.544 281.474C408.378 287.523 411.203 293.613 414.394 298.88C425.558 317.163 442.553 331.849 462.278 340.193C467.421 342.355 473.201 344.131 478.517 342.438C480.216 341.881 481.795 340.997 483.511 340.534C485.227 340.07 487.233 340.086 488.623 341.214C490.035 342.332 489.766 344.278 489.092 345.543Z" fill="#E2C2C6" stroke="#7F2135" stroke-width="0.194168" stroke-miterlimit="10"/>
<path d="M490.952 326.277C490.629 329.515 489.085 332.741 486.324 334.433C484.233 335.698 481.728 335.981 479.307 336.227C474.954 336.678 470.488 337.104 466.284 335.967C461.968 334.804 458.288 332.063 454.708 329.379C450.798 326.463 446.887 323.547 442.987 320.6C438.615 317.332 434.234 314.043 430.653 309.94C426.737 305.429 423.942 300.086 421.176 294.807C418.027 288.786 414.161 282.63 414.086 275.842C414.025 269.936 415.706 264.189 418.163 262.837C423.818 259.75 421.971 275.028 423.204 281.349C425.078 291.084 429.9 300.109 436.314 307.661C442.729 315.213 450.704 321.332 459.244 326.336C461.808 327.826 464.478 329.269 467.38 329.873C470.282 330.477 473.503 330.152 475.895 328.372C479.931 325.4 480.328 319.67 481.987 314.947C482.598 313.203 483.777 311.255 485.642 311.182C487.104 311.111 488.471 312.3 488.898 313.707C489.583 316.088 491.275 323.039 490.952 326.277Z" fill="#E2C2C6" stroke="#7F2135" stroke-width="0.194168" stroke-miterlimit="10"/>
<path d="M460.701 314.147C460.925 315.442 462.214 316.285 463.491 316.652C464.769 317.019 466.111 317.078 467.297 317.637C468.484 318.197 469.504 319.515 469.079 320.771C468.781 321.69 467.795 322.258 466.819 322.339C465.843 322.421 464.895 322.11 463.967 321.789C457.963 319.682 452.257 316.656 447.142 312.859C446.109 312.078 444.968 310.941 445.351 309.704C445.735 308.468 447.433 308.19 448.621 308.698C449.81 309.206 450.656 310.248 451.709 311.019C452.913 311.9 454.874 312.266 455.691 311.038C456.221 310.243 455.969 309.113 455.359 308.372C454.749 307.631 453.847 307.198 452.975 306.776C450.066 305.364 447.166 303.973 444.257 302.561C442.96 301.925 441.611 301.285 440.665 300.187C439.718 299.09 439.26 297.443 439.955 296.169C440.975 294.318 443.643 294.342 445.63 295.051C452.388 297.429 457.03 304.582 464.123 305.618C468.452 306.243 472.946 304.41 477.15 305.548C478.674 305.956 480.216 306.915 480.545 308.441C480.828 309.81 480.023 311.235 478.862 312.034C477.7 312.832 476.272 313.091 474.87 313.236C471.804 313.568 468.706 313.432 465.701 312.824C464.614 312.6 463.508 312.334 462.406 312.472C461.304 312.61 460.208 313.328 460.701 314.147Z" fill="#E2C2C6" stroke="#7F2135" stroke-width="0.194168" stroke-miterlimit="10"/>
<path d="M445.908 287.243C446.557 288.297 447.065 289.489 448.057 290.237C449.05 290.985 450.367 291.385 451.561 291.054C452.878 290.718 453.888 289.582 454.356 288.307C454.824 287.033 454.831 285.635 454.63 284.28C454.347 282.176 453.58 280.008 451.984 278.592C450.368 277.185 447.779 276.771 446.11 278.075C445.082 278.89 444.53 280.202 444.351 281.499C444.065 283.63 444.92 285.656 445.908 287.243Z" fill="#E2C2C6" stroke="#7F2135" stroke-width="0.194168" stroke-miterlimit="10"/>
<path d="M431.745 282.396C431.713 284.134 430.681 285.788 431.296 287.389C431.92 289.011 433.491 290.261 435.216 290.326C436.941 290.392 438.671 289.111 438.919 287.402C439.137 285.91 438.328 284.497 437.651 283.152C435.998 279.91 434.964 276.24 435.396 272.623C435.526 271.5 435.823 270.353 435.581 269.245C435.102 266.873 431.993 265.524 429.923 266.78C428.415 267.708 427.724 269.615 427.783 271.388C427.843 273.162 428.526 274.859 429.181 276.494C430.084 278.625 431.789 280.627 431.745 282.396Z" fill="#E2C2C6" stroke="#7F2135" stroke-width="0.194168" stroke-miterlimit="10"/>
<path d="M429.177 255.324C426.514 256.16 423.471 255.467 421.202 253.845C418.923 252.202 417.32 249.749 416.387 247.098C415.443 244.478 415.182 241.349 416.839 239.112C418.101 237.407 420.299 236.55 422.408 236.57C424.518 236.59 426.583 237.416 428.397 238.531C430.212 239.647 431.916 241.192 432.565 243.209C433.195 245.184 432.742 247.339 432.284 249.37C431.686 251.995 430.771 254.813 429.177 255.324Z" fill="#E2C2C6" stroke="#7F2135" stroke-width="0.194168" stroke-miterlimit="10"/>
</svg>
