<svg width="1112" height="482" viewBox="0 0 1112 482" fill="none" xmlns="http://www.w3.org/2000/svg">
<path d="M253.488 345.724C258.494 345.724 262.924 344.517 266.346 341.855C269.776 339.186 272.114 335.115 273.038 329.543C273.967 323.944 272.732 318.172 269.752 313.901C266.758 309.611 261.996 306.838 255.965 307.332C250.135 307.81 245.694 309.379 242.708 312.178C239.704 314.994 238.276 318.957 238.276 323.992C238.276 328.985 239.472 334.372 241.952 338.537C244.44 342.715 248.268 345.724 253.488 345.724Z" fill="#99D3FF" stroke="#297CD6" stroke-width="1.44885"/>
<path d="M271.609 329.306C270.732 334.59 268.547 338.307 265.456 340.711C262.357 343.123 258.27 344.276 253.488 344.276C248.922 344.276 245.506 341.674 243.196 337.795C240.878 333.902 239.724 328.785 239.724 323.992C239.724 319.239 241.063 315.705 243.699 313.235C246.352 310.747 250.423 309.24 256.083 308.776C261.543 308.329 265.83 310.813 268.564 314.73C271.311 318.666 272.481 324.05 271.609 329.306Z" stroke="#8DCEFF" stroke-width="1.44885"/>
</svg>
