<svg width="1112" height="482" viewBox="0 0 1112 482" fill="none" xmlns="http://www.w3.org/2000/svg">
<path fill-rule="evenodd" clip-rule="evenodd" d="M203.211 348.388C203.514 348.12 203.953 347.695 203.974 347.613C203.974 347.381 204.009 347.076 204.099 346.753C204.672 344.066 207.071 341.88 209.739 341.718C212.103 341.557 214.521 342.74 215.613 344.585C215.878 345.034 216.094 345.497 216.262 345.966C216.589 345.882 216.922 345.827 217.26 345.804C219.624 345.643 222.041 346.825 223.134 348.689C223.818 349.848 224.18 351.107 224.215 352.332C224.85 352.037 225.531 351.853 226.231 351.806C228.595 351.645 231.012 352.846 232.105 354.691C233.501 357.056 233.555 359.834 232.23 361.912C231.156 363.597 229.848 364.707 228.344 365.191C227.539 365.442 226.679 365.514 225.784 365.406C225.312 365.353 224.853 365.242 224.416 365.08C223.097 365.864 222.235 366.688 221.459 367.43C220.947 367.92 220.472 368.374 219.928 368.757C219.266 369.241 218.514 369.617 217.69 369.868C216.475 370.252 215.222 370.363 214.078 370.209C212.667 372.585 208.704 374.79 206.337 375.548C205.813 375.714 205.277 375.827 204.736 375.885C204.204 376.665 202.698 377.74 199.622 379.311C198.566 381.013 197.241 382.106 195.736 382.59C195.523 382.656 195.307 382.711 195.087 382.754C194.639 383.471 193.303 384.694 191.21 386.609L191.21 386.609L191.21 386.609L191.209 386.609C190.239 387.497 189.105 388.535 187.822 389.739C187.213 390.205 186.532 390.564 185.816 390.779C185.603 390.845 185.387 390.901 185.168 390.946C184.518 391.708 183.464 392.737 182.046 394.237C180.959 395.93 179.659 397.017 178.163 397.499C177.361 397.748 176.506 397.837 175.616 397.73C172.766 397.392 170.397 394.95 170.219 392.152C170.148 391.118 170.166 390.655 170.291 390.441L170.291 390.441C170.308 390.316 170.326 390.191 170.362 390.067C170.362 389.835 170.397 389.532 170.469 389.229C170.768 387.816 171.568 386.551 172.644 385.641C170.348 384.61 168.647 382.359 168.487 379.857C168.406 378.724 168.447 378.197 168.568 377.934C168.581 377.817 168.603 377.716 168.622 377.627C168.632 377.578 168.642 377.532 168.649 377.489C168.649 377.246 168.69 376.882 168.771 376.538C169.279 374.138 171.073 372.112 173.269 371.255C172.775 370.459 172.465 369.555 172.404 368.614C172.35 367.664 172.35 367.18 172.458 366.929C172.467 366.858 172.48 366.791 172.494 366.723C172.507 366.656 172.521 366.589 172.53 366.517C172.53 366.302 172.565 365.98 172.637 365.675C173.21 362.987 175.627 360.801 178.278 360.622C178.651 360.597 179.026 360.605 179.397 360.644C179.945 360.041 180.933 359.488 181.555 359.141C181.864 358.968 182.082 358.847 182.11 358.794C182.683 356.089 185.1 353.921 187.75 353.741C189.187 353.643 190.643 354.042 191.809 354.787C192.122 354.461 192.61 354.213 192.976 354.027C193.23 353.898 193.425 353.798 193.462 353.723L193.468 353.682L193.468 353.682C193.484 353.567 193.502 353.441 193.534 353.329C193.534 353.096 193.588 352.792 193.659 352.487C194.232 349.781 196.65 347.613 199.3 347.434C200.676 347.34 202.07 347.702 203.211 348.388Z" fill="#A83A29"/>
</svg>
