<svg width="1112" height="482" viewBox="0 0 1112 482" fill="none" xmlns="http://www.w3.org/2000/svg">
<path d="M609.533 252.52C623.772 260.571 660.269 264.802 690.16 235.347C701.751 223.927 708.555 197.729 686.94 174.282C673.388 159.574 642.826 141.464 616.238 153.487C605.996 158.122 581.166 168.796 581.328 204.321C581.416 222.091 593.717 243.585 609.533 252.52Z" fill="#C58BD2" fill-opacity="0.4"/>
<path d="M611.291 248.601C624.517 256.033 658.383 259.927 686.122 232.762C696.883 222.227 703.195 198.066 683.142 176.431C670.561 162.874 642.194 146.17 617.505 157.251C607.995 161.521 584.951 171.381 585.099 204.139C585.186 220.518 596.601 240.354 611.291 248.601Z" fill="#905999"/>
<path d="M612.106 247.337C624.953 254.558 657.876 258.34 684.841 231.947C695.293 221.707 701.436 198.234 681.946 177.204C669.732 164.026 642.152 147.785 618.167 158.572C608.924 162.729 586.527 172.294 586.675 204.139C586.748 220.055 597.839 239.315 612.106 247.337Z" fill="#CC94D9" stroke="#925C9B" stroke-width="1.14842" stroke-miterlimit="10" stroke-linecap="round" stroke-linejoin="round"/>
<path opacity="0.5" d="M618.167 158.572C608.924 162.729 586.527 172.294 586.675 204.139C586.748 220.055 597.839 239.329 612.121 247.337C624.967 254.558 657.89 258.34 684.856 231.947C695.307 221.707 701.45 198.234 681.96 177.204C669.717 164.026 642.152 147.785 618.167 158.572ZM671.775 180.982C687.621 199.02 682.63 219.177 674.134 227.97C652.219 250.627 625.444 247.38 615.003 241.184C603.395 234.3 594.373 217.766 594.314 204.098C594.196 176.761 612.4 168.545 619.912 164.992C639.425 155.722 661.84 169.659 671.775 180.982Z" fill="#BE83CB"/>
<path opacity="0.5" d="M631.685 224.751C655.153 225.609 666.603 208.247 659.171 191.068C651.754 173.875 640.356 165.572 620.224 177.09C600.092 188.607 609.792 223.949 631.685 224.751Z" fill="#BE83CB"/>
<path d="M629.388 221.435C650.17 222.18 660.311 207.221 653.738 192.416C647.165 177.61 637.076 170.46 619.251 180.376C601.413 190.292 610 220.746 629.388 221.435Z" fill="#6C4096" stroke="#5E2D68" stroke-width="1.14842" stroke-miterlimit="10" stroke-linecap="round" stroke-linejoin="round"/>
<path opacity="0.5" d="M626.912 218.963C642.474 219.525 650.069 208.316 645.143 197.219C640.217 186.136 632.675 180.77 619.31 188.2C605.959 195.644 612.378 218.442 626.912 218.963Z" fill="#9862C2"/>
</svg>
