<svg width="1112" height="482" viewBox="0 0 1112 482" fill="none" xmlns="http://www.w3.org/2000/svg">
<path d="M300.83 392.427C299.845 391.298 298.216 391.692 297.195 392.535C296.945 392.75 296.694 393 296.461 393.269C295.512 394.129 294.903 395.473 294.563 396.692C289.245 395.867 275.278 394.649 250.746 398.376L243.368 399.505C232.552 401.171 222.435 402.712 214.556 403.751C213.231 403.931 208.432 405.633 211.799 406.905C212.873 407.299 214.037 407.389 215.165 407.227C222.006 406.314 231.281 404.916 243.887 402.999L251.247 401.87C275.528 398.161 289.334 399.469 294.169 400.221C294.187 400.436 294.187 400.652 294.205 400.867C294.241 401.368 294.438 401.87 294.653 402.318C295.011 403.07 295.709 403.787 296.551 403.931C299.219 404.396 301.027 402.228 302.048 400.006C302.943 398.053 302.925 394.828 301.314 393.162C301.206 392.911 301.027 392.66 300.83 392.427Z" fill="#6E97BC"/>
<path d="M470.549 2.56136C470.262 1.62961 469.277 1.1279 468.346 1.41459L468.096 1.50418C423.275 15.7671 382.054 49.8655 345.561 102.868C343.269 106.182 341.03 109.461 338.828 112.723C322.193 137.127 306.453 160.17 283.138 180.095C236.456 219.981 183.076 236.251 126.581 253.47C120.475 255.334 114.333 257.197 108.173 259.114C65.7164 272.231 15.4347 294.234 3.40144 347.577C-1.63032 369.903 3.52678 393.734 17.5656 412.96C31.8908 432.563 53.3788 444.962 76.532 446.969C88.2787 447.99 107.654 443.69 128.121 437.186C153.817 429.015 181.232 417.332 197.509 408.266C197.867 407.692 204.976 403.804 206.23 402.926C227.341 388.143 235.561 384.399 245.946 379.668C249.492 378.056 253.163 376.389 257.657 374.131C259.663 373.54 275.618 368.505 282.386 352.665C284.195 352.164 285.18 350.838 285.986 349.153C286.182 348.723 286.308 348.258 286.415 347.756C286.72 346.591 286.756 345.409 286.29 344.405C286.218 344.262 286.147 344.172 286.075 344.065C285.95 343.796 285.806 343.545 285.645 343.294C285.198 342.147 284.356 341.234 283.013 341.001C279.002 340.284 276.62 345.301 277.283 348.705C277.516 349.888 278.089 350.856 279.002 351.59C272.466 366.283 256.726 370.709 256.565 370.781C256.44 370.799 256.332 370.852 256.225 370.906C251.712 373.164 248.024 374.848 244.478 376.461C234.325 381.084 225.569 385.062 204.206 400.023C183.023 414.86 105.183 445.894 76.8185 443.457C54.668 441.54 34.0933 429.66 20.3948 410.9C6.94694 392.498 1.98681 369.706 6.82159 348.365C12.8561 321.577 29.7062 287.784 106.651 263.307C107.493 263.038 108.352 262.77 109.212 262.501C115.371 260.584 121.495 258.72 127.602 256.857C184.473 239.53 238.175 223.153 285.43 182.783C309.103 162.553 324.95 139.313 341.747 114.711C343.967 111.468 346.188 108.189 348.48 104.874C384.49 52.4994 425.102 18.849 469.152 4.83697C469.242 4.81906 469.367 4.78322 469.403 4.7653C470.334 4.46069 470.853 3.47519 470.549 2.56136Z" fill="#6E97BC"/>
</svg>
