<svg width="244" height="567" viewBox="0 0 244 567" fill="none" xmlns="http://www.w3.org/2000/svg">
<g clip-path="url(#clip0_3173_587168)">
<path d="M17.1649 150.632C19.0154 151.133 16.8048 154.904 15.9245 156.184C15.0343 157.464 12.0934 158.015 10.8931 156.944C9.70275 155.874 6.92197 150.933 9.8528 150.492C12.8036 150.052 15.1943 150.112 17.1649 150.632Z" fill="url(#paint0_linear_3173_587168)"/>
<path d="M20.7959 147.672C16.4347 156.144 7.6922 153.593 4.88141 146.091C3.50102 142.42 3.24095 139.219 3.66107 136.719C4.21122 133.348 5.97172 131.237 7.87225 130.967C7.97228 130.947 8.07231 130.937 8.17234 130.937C11.5933 130.807 16.8248 130.467 19.1454 130.967C19.2955 130.997 19.4655 131.077 19.6356 131.197C20.5258 131.787 21.6061 133.418 22.2363 135.718C23.0965 138.819 23.1466 143.13 20.7959 147.672Z" fill="url(#paint1_linear_3173_587168)"/>
<path d="M22.2362 135.718C21.716 135.558 20.2056 138.549 19.4354 138.999C18.6652 139.439 17.0747 138.299 16.6246 139.059C16.1845 139.829 15.0942 140.02 13.4937 140.02C11.9033 140.02 10.0527 139.189 8.96244 140.59C7.88214 142 5.90158 139.189 5.13136 138.039C4.72124 137.429 4.12107 136.989 3.66095 136.719C4.2111 133.348 5.9716 131.237 7.87213 130.967C11.1631 130.987 15.7644 131.577 18.6052 131.237C18.9753 131.197 19.3154 131.177 19.6355 131.197C20.5257 131.787 21.606 133.418 22.2362 135.718Z" fill="#63554C"/>
<path d="M25.8472 133.538C25.1971 136.088 20.9659 132.867 20.9659 132.867C20.9659 132.867 21.2759 135.778 19.6455 136.969C18.015 138.159 16.4746 133.918 16.4746 133.918C16.4746 133.918 16.1545 136.939 14.334 137.729C12.5135 138.519 10.843 134.248 10.843 134.248C10.843 134.248 10.1128 137.979 7.98219 138.039C5.85159 138.109 6.81186 134.088 6.81186 134.088C6.81186 134.088 3.30087 135.798 1.38033 135.208C1.20028 135.158 1.03023 135.078 0.88019 134.978C-0.850299 133.818 -0.0800814 131.007 3.63097 129.657C4.44119 129.366 5.24142 129.116 6.02164 128.906C14.374 126.686 21.0759 128.966 21.0759 128.966C21.0759 128.966 26.4874 130.987 25.8472 133.538Z" fill="#998370"/>
<path d="M12.7319 132.831C16.1256 132.669 18.8393 131.75 18.793 130.779C18.7467 129.808 15.958 129.152 12.5643 129.313C9.17049 129.475 6.45681 130.394 6.50309 131.365C6.54937 132.336 9.33809 132.992 12.7319 132.831Z" fill="#4C3C31"/>
<path d="M18.6753 131.157C18.7653 131.027 18.8053 130.907 18.7953 130.777C18.7553 129.807 15.9645 129.146 12.5635 129.316C9.17259 129.477 6.45182 130.387 6.50183 131.357C6.51184 131.577 6.67188 131.787 6.95196 131.977C6.95196 131.977 5.71161 130.947 6.66188 130.207C7.82221 129.306 9.46267 128.916 12.2034 128.806C14.9342 128.686 17.9251 129.246 18.6753 129.777C19.2154 130.167 19.3355 130.767 18.6753 131.157Z" fill="#7E6D5D"/>
<path d="M17.885 145.211C17.885 145.211 16.4946 146.401 16.8748 146.781C17.2549 147.162 18.8953 146.061 17.885 145.211Z" fill="#63554C"/>
<path d="M5.42154 143.821C5.42154 143.821 4.62131 144.391 5.42154 144.551C6.22176 144.711 6.03171 144.301 5.42154 143.821Z" fill="#63554C"/>
<path d="M18.9852 145.861C18.9852 145.861 18.4751 145.831 18.7651 146.211C19.0552 146.591 19.9155 146.691 18.9852 145.861Z" fill="#63554C"/>
<path d="M1.75044 131.657C3.66097 132.847 2.63068 133.548 2.18056 134.078C1.77044 134.548 2.22057 134.878 1.38033 135.208C1.20028 135.158 1.03023 135.078 0.88019 134.978C-0.850299 133.818 -0.0800814 131.007 3.63097 129.657C4.44119 129.366 5.24142 129.116 6.02164 128.906C4.15111 129.637 0.890192 131.127 1.75044 131.657Z" fill="#B29C8D"/>
<path d="M20.6158 143.631C19.9156 143.51 20.4557 144.241 20.7158 144.331C20.9659 144.431 21.356 143.751 20.6158 143.631Z" fill="#63554C"/>
<path d="M6.06176 131.387C6.06176 131.387 3.23096 130.697 0.800275 132.087L6.06176 131.387Z" fill="#776A64"/>
<path d="M6.2118 132.027C6.2118 132.027 3.19095 132.167 0.800275 134.238L6.2118 132.027Z" fill="#776A64"/>
<path d="M7.43216 132.707C7.43216 132.707 5.8117 132.667 3.56106 134.628L7.43216 132.707Z" fill="#776A64"/>
<path d="M8.84232 132.988C8.84232 132.988 7.25187 134.168 6.82175 135.718L8.84232 132.988Z" fill="#776A64"/>
<path d="M9.39255 133.248C9.39255 133.248 8.11219 135.288 7.90213 137.419L9.39255 133.248Z" fill="#776A64"/>
<path d="M10.5728 132.988C10.5728 132.988 9.58254 134.088 9.58254 136.248L10.5728 132.988Z" fill="#776A64"/>
<path d="M12.2034 132.988C12.2034 132.988 11.4932 133.168 11.7333 135.338L12.2034 132.988Z" fill="#776A64"/>
<path d="M13.5238 132.817C13.5238 132.817 14.4441 134.078 13.9039 137.079L13.5238 132.817Z" fill="#776A64"/>
<path d="M15.0042 132.928C15.0042 132.928 15.9545 133.068 15.8745 135.228L15.0042 132.928Z" fill="#776A64"/>
<path d="M16.8646 132.757C16.8646 132.757 17.8949 133.248 18.115 135.718L16.8646 132.757Z" fill="#776A64"/>
<path d="M17.8849 132.247C17.8849 132.247 19.6254 133.508 19.8155 135.978L17.8849 132.247Z" fill="#776A64"/>
<path d="M18.7052 131.987C18.7052 131.987 20.0656 132.327 20.7558 133.998L18.7052 131.987Z" fill="#776A64"/>
<path d="M19.4855 131.187C19.4855 131.187 22.7764 131.907 23.8367 133.298L19.4855 131.187Z" fill="#776A64"/>
<path d="M19.2154 130.527C19.2154 130.527 23.3666 130.637 25.1371 132.247L19.2154 130.527Z" fill="#776A64"/>
<path d="M18.6351 129.997C18.6351 129.997 20.7557 129.407 22.8763 130.167L18.6351 129.997Z" fill="#776A64"/>
<path d="M17.4349 129.577C17.4349 129.577 18.6952 128.786 19.8355 128.766L17.4349 129.577Z" fill="#776A64"/>
<path d="M16.6646 129.577C16.6646 129.577 16.7946 128.446 17.2148 128.296L16.6646 129.577Z" fill="#776A64"/>
<path d="M15.7844 129.206C15.7844 129.206 15.4943 128.786 15.5543 128.176L15.7844 129.206Z" fill="#776A64"/>
<path d="M14.3941 129.086C14.3941 129.086 14.174 128.766 14.5541 128.136L14.3941 129.086Z" fill="#776A64"/>
<path d="M13.6038 129.166C13.6038 129.166 13.1336 128.756 13.4337 128.036L13.6038 129.166Z" fill="#776A64"/>
<path d="M12.6635 129.166C12.3634 128.746 12.3834 128.186 12.4634 128.296L12.6635 129.166Z" fill="#776A64"/>
<path d="M11.4831 129.316C11.4831 129.116 11.103 128.756 11.3931 128.296L11.4831 129.316Z" fill="#776A64"/>
<path d="M10.573 129.316C10.693 128.936 10.573 128.606 10.2729 128.156L10.573 129.316Z" fill="#776A64"/>
<path d="M10.0429 129.427C10.0429 129.427 9.66275 128.606 9.27264 128.446L10.0429 129.427Z" fill="#776A64"/>
<path d="M9.06244 129.577C9.02243 129.196 8.84238 128.806 8.38225 128.606L9.06244 129.577Z" fill="#776A64"/>
<path d="M8.02232 129.777C7.97231 129.587 7.31212 128.946 6.81198 129.036L8.02232 129.777Z" fill="#776A64"/>
<path d="M6.81181 130.317C6.81181 130.317 6.0516 129.627 4.14106 129.977L6.81181 130.317Z" fill="#776A64"/>
<path d="M17.7448 137.429C17.7448 137.429 17.2647 137.779 17.4848 138.049C17.7148 138.319 17.7848 138.559 17.8849 138.179C17.9849 137.789 18.245 137.449 17.7448 137.429Z" fill="#4F433B"/>
<path d="M10.9731 136.889C10.9731 136.889 10.393 137.119 10.573 137.419C10.7531 137.719 11.0832 138.039 11.2832 137.719C11.4833 137.399 11.4233 136.989 10.9731 136.889Z" fill="#4F433B"/>
<path d="M18.6752 131.167C18.1051 131.977 15.6744 132.677 12.7335 132.827C10.1228 132.948 7.88218 132.587 6.95191 131.977C6.95191 131.977 14.264 132.067 16.9447 131.657C17.815 131.517 18.3651 131.347 18.6752 131.167Z" fill="#4C3C31"/>
<path d="M17.1347 148.182C17.1347 148.182 17.2948 149.472 17.8849 149.282C18.4751 149.082 19.2453 148.222 17.1347 148.182Z" fill="#63554C"/>
<path d="M18.2151 146.861C18.2151 146.861 17.4249 147.071 17.8951 147.322C18.3552 147.582 18.9654 147.772 18.2151 146.861Z" fill="#63554C"/>
<path d="M16.4345 150.012C16.4345 150.012 15.1241 150.272 15.6642 150.743C16.2144 151.223 17.4247 149.792 16.4345 150.012Z" fill="#63554C"/>
</g>
<defs>
<linearGradient id="paint0_linear_3173_587168" x1="13.2781" y1="153.683" x2="13.3909" y2="157.489" gradientUnits="userSpaceOnUse">
<stop stop-color="#52473A"/>
<stop offset="0.9111" stop-color="#63674D"/>
</linearGradient>
<linearGradient id="paint1_linear_3173_587168" x1="13.1103" y1="141.311" x2="12.9986" y2="152.932" gradientUnits="userSpaceOnUse">
<stop stop-color="#7B6A58"/>
<stop offset="1" stop-color="#634E42"/>
</linearGradient>
<clipPath id="clip0_3173_587168">
<rect width="243.26" height="566.84" fill="white" transform="scale(1.00028)"/>
</clipPath>
</defs>
</svg>
