<svg width="244" height="567" viewBox="0 0 244 567" fill="none" xmlns="http://www.w3.org/2000/svg">
<path d="M130.137 22.3863C130.147 22.5264 128.576 21.8862 127.316 21.116C127.196 21.0159 127.086 20.9359 126.966 20.8359C126.966 20.8359 119.574 15.0642 123.135 10.2329C123.755 9.37264 124.425 8.47239 125.115 7.56213C124.825 9.41265 124.505 12.2635 125.055 13.4438C125.896 15.2243 125.896 17.4649 127.056 19.2054C127.946 20.5358 130.107 21.9662 130.137 22.3863Z" fill="#645F47"/>
<path d="M122.425 16.9348C122.425 16.9348 123.015 19.8356 123.465 20.4658C123.915 21.0959 125.165 22.7264 125.526 23.0865C125.886 23.4466 129.217 23.9668 130.147 23.9968C131.997 24.0468 136.029 22.1262 135.878 21.236C135.718 20.3457 127.546 22.1562 122.425 16.9348Z" fill="#505423"/>
<path d="M127.626 6.95197C127.626 6.95197 127.656 11.8734 131.427 13.0237C135.198 14.174 137.919 11.6833 137.899 9.9228C137.839 4.66132 137.359 0.420124 136.239 0.0900306C135.208 -0.210054 132.708 0.0100083 127.986 6.55185L127.626 6.95197Z" fill="url(#paint0_linear_3173_587170)"/>
<path d="M135.588 21.5261C136.288 20.9559 142.85 12.5035 137.769 3.91111C137.769 3.91111 133.768 10.483 132.797 11.1231L135.588 21.5261Z" fill="url(#paint1_linear_3173_587170)"/>
<path d="M131.777 1.38039C131.777 1.38039 131.337 9.06256 131.777 10.1429C132.217 11.2232 123.825 17.9951 123.565 17.1248C123.315 16.2546 122.715 5.57158 131.777 1.38039Z" fill="url(#paint2_linear_3173_587170)"/>
<path d="M128.146 21.096C127.676 20.9959 122.125 18.1951 124.155 15.3043C126.176 12.4135 132.437 8.25233 132.437 8.25233C132.437 8.25233 136.519 17.3249 135.778 18.9653C135.038 20.6058 133.298 22.1563 128.146 21.096Z" fill="url(#paint3_linear_3173_587170)"/>
<path d="M126.156 5.87165C126.156 5.87165 130.167 20.4058 129.417 21.5661C128.666 22.7264 123.545 18.6152 123.275 18.0751C123.005 17.5349 119.504 14.094 121.654 11.0631C123.805 8.03226 126.156 5.87165 126.156 5.87165Z" fill="url(#paint4_linear_3173_587170)"/>
<path d="M140.079 11.7433C140.079 11.7433 127.026 19.2954 126.746 20.6458C126.466 21.9962 132.997 22.6564 133.578 22.4663C134.148 22.2663 139.059 22.2763 139.649 18.6052C140.239 14.9342 140.079 11.7433 140.079 11.7433Z" fill="url(#paint5_linear_3173_587170)"/>
<path d="M107.13 142.65C107.2 142.71 106.16 143.19 105.2 143.45C105.1 143.46 105 143.48 104.9 143.49C104.9 143.49 98.6478 144.441 97.9276 140.46C97.7976 139.749 97.6576 139.009 97.5375 138.259C98.3077 139.259 99.5581 140.74 100.398 141.01C101.659 141.42 102.759 142.46 104.149 142.7C105.2 142.86 106.91 142.46 107.13 142.65Z" fill="#645F47"/>
<path d="M100.878 143.911C100.878 143.911 102.569 144.971 103.089 145.041C103.609 145.111 104.989 145.251 105.33 145.241C105.67 145.231 107.47 143.841 107.91 143.39C108.791 142.51 109.711 139.639 109.211 139.299C108.711 138.959 105.81 143.811 100.878 143.911Z" fill="#595226"/>
<path d="M98.3977 136.729C98.3977 136.729 100.828 138.989 103.139 137.669C105.45 136.348 105.49 133.868 104.609 133.058C101.999 130.647 99.6981 128.926 99.0179 129.316C98.3977 129.677 97.3474 131.017 98.3677 136.358L98.3977 136.729Z" fill="url(#paint6_linear_3173_587170)"/>
<path d="M109.231 139.569C109.281 138.959 108.171 131.827 101.599 130.347C101.599 130.347 102.969 135.348 102.839 136.128L109.231 139.569Z" fill="url(#paint7_linear_3173_587170)"/>
<path d="M97.5875 132.117C97.5875 132.117 101.148 135.888 101.889 136.168C102.619 136.459 102.059 143.701 101.509 143.43C100.958 143.15 95.4369 138.499 97.5875 132.117Z" fill="url(#paint8_linear_3173_587170)"/>
<path d="M105.57 143.02C105.3 143.21 101.359 144.631 100.878 142.3C100.398 139.969 101.259 134.968 101.259 134.968C101.259 134.968 107.6 137.169 108.06 138.289C108.521 139.419 108.481 140.99 105.57 143.02Z" fill="url(#paint9_linear_3173_587170)"/>
<path d="M97.1774 136.959C97.1774 136.959 106.16 141.72 106.39 142.63C106.61 143.53 102.219 144.141 101.839 144.031C101.449 143.911 98.1377 144.041 97.6476 141.58C97.1574 139.109 97.1774 136.959 97.1774 136.959Z" fill="url(#paint10_linear_3173_587170)"/>
<path d="M106.51 132.847C106.51 132.847 104.169 142.74 104.71 143.51C105.24 144.271 108.591 141.37 108.761 141C108.931 140.63 111.201 138.229 109.681 136.228C108.141 134.238 106.51 132.847 106.51 132.847Z" fill="url(#paint11_linear_3173_587170)"/>
<path d="M135.608 297.394C135.658 297.484 134.518 297.554 133.518 297.464C133.418 297.434 133.328 297.424 133.227 297.394C133.227 297.394 127.036 296.094 127.756 292.112C127.876 291.402 128.016 290.662 128.166 289.912C128.536 291.112 129.186 292.943 129.877 293.493C130.917 294.323 131.577 295.683 132.797 296.384C133.728 296.924 135.458 297.144 135.608 297.394Z" fill="#645F47"/>
<path d="M129.307 296.384C129.307 296.384 130.527 297.964 130.987 298.214C131.447 298.464 132.687 299.074 133.018 299.184C133.348 299.294 135.518 298.624 136.088 298.364C137.229 297.844 139.089 295.483 138.739 294.993C138.389 294.503 133.968 298.024 129.307 296.384Z" fill="#595226"/>
<path d="M129.496 288.801C129.496 288.801 130.977 291.772 133.598 291.342C136.228 290.912 137.129 288.601 136.598 287.541C134.998 284.37 133.448 281.95 132.677 282.08C131.967 282.2 130.517 283.08 129.597 288.441L129.496 288.801Z" fill="url(#paint12_linear_3173_587170)"/>
<path d="M138.649 295.253C138.909 294.703 140.369 287.631 134.738 283.94C134.738 283.94 134.268 289.112 133.868 289.782L138.649 295.253Z" fill="url(#paint13_linear_3173_587170)"/>
<path d="M130.357 284.19C130.357 284.19 132.377 288.972 132.958 289.492C133.538 290.012 130.477 296.604 130.057 296.154C129.657 295.713 126.116 289.422 130.357 284.19Z" fill="url(#paint14_linear_3173_587170)"/>
<path d="M134.018 297.204C133.708 297.284 129.517 297.234 129.877 294.883C130.247 292.533 132.797 288.151 132.797 288.151C132.797 288.151 137.959 292.433 137.999 293.643C138.039 294.853 137.449 296.324 134.018 297.204Z" fill="url(#paint15_linear_3173_587170)"/>
<path d="M128.286 288.581C128.286 288.581 135.028 296.194 134.918 297.114C134.808 298.034 130.487 297.074 130.167 296.824C129.847 296.574 126.696 295.533 127.106 293.063C127.506 290.582 128.286 288.581 128.286 288.581Z" fill="url(#paint16_linear_3173_587170)"/>
<path d="M138.469 288.001C138.469 288.001 132.807 296.454 133.038 297.354C133.268 298.254 137.419 296.714 137.709 296.424C137.999 296.134 140.97 294.683 140.24 292.282C139.499 289.882 138.469 288.001 138.469 288.001Z" fill="url(#paint17_linear_3173_587170)"/>
<path d="M120.174 214.881C120.244 214.941 119.203 215.421 118.243 215.681C118.143 215.691 118.043 215.711 117.943 215.721C117.943 215.721 111.691 216.671 110.971 212.69C110.841 211.98 110.701 211.24 110.581 210.489C111.351 211.49 112.602 212.97 113.442 213.24C114.702 213.65 115.802 214.691 117.193 214.931C118.253 215.101 119.954 214.701 120.174 214.881Z" fill="#645F47"/>
<path d="M113.932 216.141C113.932 216.141 115.623 217.201 116.143 217.271C116.663 217.341 118.043 217.481 118.383 217.471C118.723 217.461 120.524 216.071 120.964 215.621C121.844 214.741 122.765 211.87 122.264 211.53C121.754 211.2 118.863 216.041 113.932 216.141Z" fill="#595226"/>
<path d="M111.441 208.969C111.441 208.969 113.872 211.23 116.183 209.909C118.493 208.589 118.533 206.108 117.653 205.298C115.042 202.887 112.742 201.167 112.061 201.557C111.441 201.917 110.391 203.257 111.411 208.599L111.441 208.969Z" fill="url(#paint18_linear_3173_587170)"/>
<path d="M122.274 211.81C122.324 211.2 121.214 204.068 114.642 202.587C114.642 202.587 116.013 207.589 115.883 208.369L122.274 211.81Z" fill="url(#paint19_linear_3173_587170)"/>
<path d="M110.631 204.358C110.631 204.358 114.192 208.129 114.932 208.409C115.662 208.699 115.102 215.941 114.552 215.671C114.012 215.391 108.49 210.739 110.631 204.358Z" fill="url(#paint20_linear_3173_587170)"/>
<path d="M118.623 215.261C118.353 215.451 114.412 216.871 113.932 214.541C113.452 212.21 114.312 207.208 114.312 207.208C114.312 207.208 120.654 209.409 121.114 210.529C121.574 211.65 121.524 213.23 118.623 215.261Z" fill="url(#paint21_linear_3173_587170)"/>
<path d="M110.231 209.199C110.231 209.199 119.213 213.96 119.444 214.871C119.664 215.771 115.272 216.381 114.892 216.271C114.502 216.151 111.191 216.281 110.701 213.82C110.211 211.36 110.231 209.199 110.231 209.199Z" fill="url(#paint22_linear_3173_587170)"/>
<path d="M119.564 205.078C119.564 205.078 117.223 214.971 117.763 215.741C118.293 216.501 121.644 213.6 121.814 213.23C121.984 212.86 124.255 210.459 122.734 208.459C121.194 206.478 119.564 205.078 119.564 205.078Z" fill="url(#paint23_linear_3173_587170)"/>
<path d="M122.235 346.998C122.295 347.028 121.634 347.498 120.994 347.818C120.924 347.838 120.864 347.858 120.794 347.888C120.794 347.888 116.563 349.399 115.523 346.718C115.333 346.248 115.143 345.748 114.953 345.237C115.623 345.828 116.693 346.688 117.313 346.768C118.244 346.888 119.154 347.458 120.154 347.438C120.924 347.408 122.055 346.898 122.235 346.998Z" fill="#645F47"/>
<path d="M118.053 348.718C118.053 348.718 119.374 349.229 119.744 349.208C120.114 349.188 121.094 349.098 121.334 349.048C121.574 348.998 122.635 347.778 122.885 347.408C123.385 346.668 123.635 344.547 123.235 344.387C122.845 344.217 121.474 347.988 118.053 348.718Z" fill="#595226"/>
<path d="M115.343 344.057C115.343 344.057 117.343 345.307 118.774 344.077C120.204 342.847 119.894 341.106 119.174 340.666C117.033 339.336 115.193 338.445 114.772 338.816C114.392 339.156 113.832 340.226 115.273 343.807L115.343 344.057Z" fill="url(#paint24_linear_3173_587170)"/>
<path d="M123.285 344.567C123.235 344.137 121.494 339.316 116.713 339.176C116.713 339.176 118.344 342.477 118.354 343.037L123.285 344.567Z" fill="url(#paint25_linear_3173_587170)"/>
<path d="M114.162 340.956C114.162 340.956 117.153 343.097 117.703 343.197C118.253 343.297 118.844 348.428 118.423 348.308C118.003 348.188 113.532 345.698 114.162 340.956Z" fill="url(#paint26_linear_3173_587170)"/>
<path d="M121.204 347.468C121.044 347.638 118.494 349.159 117.843 347.598C117.193 346.038 117.113 342.437 117.113 342.437C117.113 342.437 121.824 343.117 122.305 343.827C122.775 344.557 122.955 345.658 121.204 347.468Z" fill="url(#paint27_linear_3173_587170)"/>
<path d="M114.532 344.377C114.532 344.377 121.434 346.478 121.714 347.078C121.994 347.678 119.014 348.698 118.723 348.668C118.433 348.638 116.143 349.179 115.473 347.528C114.802 345.878 114.532 344.377 114.532 344.377Z" fill="url(#paint28_linear_3173_587170)"/>
<path d="M120.484 340.246C120.484 340.246 120.194 347.458 120.664 347.918C121.134 348.378 123.085 345.908 123.145 345.628C123.215 345.347 124.475 343.367 123.135 342.187C121.794 341.006 120.484 340.246 120.484 340.246Z" fill="url(#paint29_linear_3173_587170)"/>
<path d="M129.546 374.956C129.556 375.026 128.776 374.796 128.136 374.496C128.076 374.456 128.016 374.416 127.956 374.376C127.956 374.376 124.135 372.015 125.585 369.524C125.835 369.084 126.106 368.624 126.386 368.154C126.346 369.044 126.336 370.425 126.666 370.955C127.156 371.755 127.276 372.825 127.916 373.595C128.406 374.186 129.516 374.756 129.546 374.956Z" fill="#645F47"/>
<path d="M125.595 372.765C125.595 372.765 126.026 374.116 126.276 374.396C126.526 374.676 127.206 375.386 127.396 375.536C127.586 375.686 129.197 375.766 129.647 375.726C130.527 375.656 132.347 374.536 132.227 374.116C132.107 373.695 128.306 374.976 125.595 372.765Z" fill="#595226"/>
<path d="M127.556 367.744C127.556 367.744 127.826 370.084 129.677 370.434C131.537 370.785 132.697 369.464 132.597 368.624C132.297 366.123 131.847 364.123 131.297 364.033C130.797 363.943 129.607 364.183 127.706 367.534L127.556 367.744Z" fill="url(#paint30_linear_3173_587170)"/>
<path d="M132.097 374.266C132.407 373.956 135.088 369.594 132.217 365.763C132.217 365.763 130.657 369.094 130.227 369.454L132.097 374.266Z" fill="url(#paint31_linear_3173_587170)"/>
<path d="M129.237 364.873C129.237 364.873 129.427 368.554 129.687 369.044C129.947 369.534 126.306 373.195 126.146 372.795C125.986 372.395 125.145 367.334 129.237 364.873Z" fill="url(#paint32_linear_3173_587170)"/>
<path d="M128.536 374.446C128.306 374.426 125.525 373.375 126.336 371.895C127.146 370.415 129.917 368.114 129.917 368.114C129.917 368.114 132.327 372.225 132.057 373.035C131.787 373.855 131.047 374.686 128.536 374.446Z" fill="url(#paint33_linear_3173_587170)"/>
<path d="M126.796 367.304C126.796 367.304 129.457 374.016 129.166 374.606C128.866 375.196 126.216 373.505 126.066 373.265C125.906 373.025 124.065 371.565 124.935 370.014C125.795 368.454 126.796 367.304 126.796 367.304Z" fill="url(#paint34_linear_3173_587170)"/>
<path d="M133.728 369.374C133.728 369.374 127.906 373.645 127.846 374.306C127.786 374.966 130.927 374.936 131.187 374.816C131.447 374.696 133.788 374.446 133.878 372.665C133.968 370.885 133.728 369.374 133.728 369.374Z" fill="url(#paint35_linear_3173_587170)"/>
<defs>
<linearGradient id="paint0_linear_3173_587170" x1="127.282" y1="14.0639" x2="139.082" y2="2.26384" gradientUnits="userSpaceOnUse">
<stop offset="0.00349061" stop-color="#4D4336"/>
<stop offset="0.8194" stop-color="#63674D"/>
<stop offset="0.9834" stop-color="#92B08C"/>
</linearGradient>
<linearGradient id="paint1_linear_3173_587170" x1="145.23" y1="19.7529" x2="132.014" y2="8.8743" gradientUnits="userSpaceOnUse">
<stop stop-color="#7B6A58"/>
<stop offset="0.8194" stop-color="#63674D"/>
<stop offset="0.9869" stop-color="#92A788"/>
</linearGradient>
<linearGradient id="paint2_linear_3173_587170" x1="114.473" y1="8.73557" x2="133.802" y2="9.5447" gradientUnits="userSpaceOnUse">
<stop stop-color="#7B6A58"/>
<stop offset="0.8194" stop-color="#63674D"/>
<stop offset="0.9869" stop-color="#92A788"/>
</linearGradient>
<linearGradient id="paint3_linear_3173_587170" x1="125.337" y1="16.3204" x2="135.586" y2="14.1398" gradientUnits="userSpaceOnUse">
<stop stop-color="#7B6A58"/>
<stop offset="0.8194" stop-color="#63674D"/>
<stop offset="0.9869" stop-color="#92A788"/>
</linearGradient>
<linearGradient id="paint4_linear_3173_587170" x1="122.286" y1="14.9529" x2="128.504" y2="13.6297" gradientUnits="userSpaceOnUse">
<stop stop-color="#7B6A58"/>
<stop offset="0.8194" stop-color="#63674D"/>
<stop offset="0.9869" stop-color="#92A788"/>
</linearGradient>
<linearGradient id="paint5_linear_3173_587170" x1="136.47" y1="20.9235" x2="132.965" y2="15.6187" gradientUnits="userSpaceOnUse">
<stop stop-color="#7B6A58"/>
<stop offset="0.8194" stop-color="#63674D"/>
<stop offset="0.9869" stop-color="#92A788"/>
</linearGradient>
<linearGradient id="paint6_linear_3173_587170" x1="101.723" y1="140.187" x2="101.397" y2="128.938" gradientUnits="userSpaceOnUse">
<stop offset="0.5556" stop-color="#92A788"/>
<stop offset="1" stop-color="#AFAF6A"/>
</linearGradient>
<linearGradient id="paint7_linear_3173_587170" x1="112.821" y1="134.016" x2="101.368" y2="135.464" gradientUnits="userSpaceOnUse">
<stop offset="0.5556" stop-color="#92A788"/>
<stop offset="1" stop-color="#AFAF6A"/>
</linearGradient>
<linearGradient id="paint8_linear_3173_587170" x1="93.1813" y1="144.003" x2="102.525" y2="134.897" gradientUnits="userSpaceOnUse">
<stop offset="0.5556" stop-color="#92A788"/>
<stop offset="1" stop-color="#AFAF6A"/>
</linearGradient>
<linearGradient id="paint9_linear_3173_587170" x1="101.93" y1="142.185" x2="105.604" y2="136.149" gradientUnits="userSpaceOnUse">
<stop offset="0.5556" stop-color="#92A788"/>
<stop offset="1" stop-color="#AFAF6A"/>
</linearGradient>
<linearGradient id="paint10_linear_3173_587170" x1="99.8469" y1="143.049" x2="102.076" y2="139.386" gradientUnits="userSpaceOnUse">
<stop offset="0.5556" stop-color="#92A788"/>
<stop offset="1" stop-color="#AFAF6A"/>
</linearGradient>
<linearGradient id="paint11_linear_3173_587170" x1="109.34" y1="138.861" x2="105.116" y2="138.124" gradientUnits="userSpaceOnUse">
<stop offset="0.5556" stop-color="#92A788"/>
<stop offset="1" stop-color="#AFAF6A"/>
</linearGradient>
<linearGradient id="paint12_linear_3173_587170" x1="131.406" y1="293.216" x2="135.045" y2="282.566" gradientUnits="userSpaceOnUse">
<stop offset="0.5556" stop-color="#92A788"/>
<stop offset="1" stop-color="#AFAF6A"/>
</linearGradient>
<linearGradient id="paint13_linear_3173_587170" x1="143.963" y1="291.328" x2="132.729" y2="288.668" gradientUnits="userSpaceOnUse">
<stop offset="0.5556" stop-color="#92A788"/>
<stop offset="1" stop-color="#AFAF6A"/>
</linearGradient>
<linearGradient id="paint14_linear_3173_587170" x1="122.067" y1="293.795" x2="134.011" y2="288.542" gradientUnits="userSpaceOnUse">
<stop offset="0.5556" stop-color="#92A788"/>
<stop offset="1" stop-color="#AFAF6A"/>
</linearGradient>
<linearGradient id="paint15_linear_3173_587170" x1="130.899" y1="295.16" x2="136.456" y2="290.795" gradientUnits="userSpaceOnUse">
<stop offset="0.5556" stop-color="#92A788"/>
<stop offset="1" stop-color="#AFAF6A"/>
</linearGradient>
<linearGradient id="paint16_linear_3173_587170" x1="128.645" y1="295.238" x2="132.017" y2="292.59" gradientUnits="userSpaceOnUse">
<stop offset="0.5556" stop-color="#92A788"/>
<stop offset="1" stop-color="#AFAF6A"/>
</linearGradient>
<linearGradient id="paint17_linear_3173_587170" x1="138.991" y1="294.639" x2="135.293" y2="292.468" gradientUnits="userSpaceOnUse">
<stop offset="0.5556" stop-color="#92A788"/>
<stop offset="1" stop-color="#AFAF6A"/>
</linearGradient>
<linearGradient id="paint18_linear_3173_587170" x1="114.774" y1="212.423" x2="114.448" y2="201.174" gradientUnits="userSpaceOnUse">
<stop offset="0.5556" stop-color="#92A788"/>
<stop offset="1" stop-color="#AFAF6A"/>
</linearGradient>
<linearGradient id="paint19_linear_3173_587170" x1="125.872" y1="206.252" x2="114.419" y2="207.7" gradientUnits="userSpaceOnUse">
<stop offset="0.5556" stop-color="#92A788"/>
<stop offset="1" stop-color="#AFAF6A"/>
</linearGradient>
<linearGradient id="paint20_linear_3173_587170" x1="106.232" y1="216.239" x2="115.575" y2="207.133" gradientUnits="userSpaceOnUse">
<stop offset="0.5556" stop-color="#92A788"/>
<stop offset="1" stop-color="#AFAF6A"/>
</linearGradient>
<linearGradient id="paint21_linear_3173_587170" x1="114.981" y1="214.421" x2="118.655" y2="208.385" gradientUnits="userSpaceOnUse">
<stop offset="0.5556" stop-color="#92A788"/>
<stop offset="1" stop-color="#AFAF6A"/>
</linearGradient>
<linearGradient id="paint22_linear_3173_587170" x1="112.898" y1="215.285" x2="115.127" y2="211.622" gradientUnits="userSpaceOnUse">
<stop offset="0.5556" stop-color="#92A788"/>
<stop offset="1" stop-color="#AFAF6A"/>
</linearGradient>
<linearGradient id="paint23_linear_3173_587170" x1="122.384" y1="211.098" x2="118.16" y2="210.361" gradientUnits="userSpaceOnUse">
<stop offset="0.5556" stop-color="#92A788"/>
<stop offset="1" stop-color="#AFAF6A"/>
</linearGradient>
<linearGradient id="paint24_linear_3173_587170" x1="118.131" y1="346.018" x2="116.383" y2="338.222" gradientUnits="userSpaceOnUse">
<stop offset="0.5556" stop-color="#92A788"/>
<stop offset="1" stop-color="#AFAF6A"/>
</linearGradient>
<linearGradient id="paint25_linear_3173_587170" x1="125.032" y1="340.216" x2="117.245" y2="342.774" gradientUnits="userSpaceOnUse">
<stop offset="0.5556" stop-color="#92A788"/>
<stop offset="1" stop-color="#AFAF6A"/>
</linearGradient>
<linearGradient id="paint26_linear_3173_587170" x1="112.694" y1="349.833" x2="117.974" y2="342.222" gradientUnits="userSpaceOnUse">
<stop offset="0.5556" stop-color="#92A788"/>
<stop offset="1" stop-color="#AFAF6A"/>
</linearGradient>
<linearGradient id="paint27_linear_3173_587170" x1="118.546" y1="347.382" x2="120.29" y2="342.679" gradientUnits="userSpaceOnUse">
<stop offset="0.5556" stop-color="#92A788"/>
<stop offset="1" stop-color="#AFAF6A"/>
</linearGradient>
<linearGradient id="paint28_linear_3173_587170" x1="117.21" y1="348.266" x2="118.269" y2="345.412" gradientUnits="userSpaceOnUse">
<stop offset="0.5556" stop-color="#92A788"/>
<stop offset="1" stop-color="#AFAF6A"/>
</linearGradient>
<linearGradient id="paint29_linear_3173_587170" x1="123.278" y1="344.086" x2="120.234" y2="344.144" gradientUnits="userSpaceOnUse">
<stop offset="0.5556" stop-color="#92A788"/>
<stop offset="1" stop-color="#AFAF6A"/>
</linearGradient>
<linearGradient id="paint30_linear_3173_587170" x1="127.775" y1="371.143" x2="132.779" y2="364.914" gradientUnits="userSpaceOnUse">
<stop offset="0.5556" stop-color="#92A788"/>
<stop offset="1" stop-color="#AFAF6A"/>
</linearGradient>
<linearGradient id="paint31_linear_3173_587170" x1="136.613" y1="372.919" x2="129.758" y2="368.427" gradientUnits="userSpaceOnUse">
<stop offset="0.5556" stop-color="#92A788"/>
<stop offset="1" stop-color="#AFAF6A"/>
</linearGradient>
<linearGradient id="paint32_linear_3173_587170" x1="121.402" y1="369.271" x2="130.644" y2="368.653" gradientUnits="userSpaceOnUse">
<stop offset="0.5556" stop-color="#92A788"/>
<stop offset="1" stop-color="#AFAF6A"/>
</linearGradient>
<linearGradient id="paint33_linear_3173_587170" x1="126.966" y1="372.318" x2="131.731" y2="370.748" gradientUnits="userSpaceOnUse">
<stop offset="0.5556" stop-color="#92A788"/>
<stop offset="1" stop-color="#AFAF6A"/>
</linearGradient>
<linearGradient id="paint34_linear_3173_587170" x1="125.443" y1="371.825" x2="128.334" y2="370.873" gradientUnits="userSpaceOnUse">
<stop offset="0.5556" stop-color="#92A788"/>
<stop offset="1" stop-color="#AFAF6A"/>
</linearGradient>
<linearGradient id="paint35_linear_3173_587170" x1="132.484" y1="373.93" x2="130.541" y2="371.587" gradientUnits="userSpaceOnUse">
<stop offset="0.5556" stop-color="#92A788"/>
<stop offset="1" stop-color="#AFAF6A"/>
</linearGradient>
</defs>
</svg>
