<svg width="1251" height="1504" viewBox="0 0 1251 1504" fill="none" xmlns="http://www.w3.org/2000/svg">
<path d="M22.8309 980.148C22.0934 986.213 25.1491 1002.63 31.2604 1035.46C35.5691 1061.86 41.264 1088.02 48.3214 1113.82C77.8031 1192.4 324.819 1120.32 491.278 1227.98C520.128 1246.64 561.022 1280.38 597.146 1344.1L674.512 1325.77C690.406 1302.79 700.214 1276.16 703.015 1248.35C704.938 1226.23 704.829 1169.26 613.434 1069.09C538.941 987.44 471.659 913.696 354.87 887.783C200.036 853.427 30.0295 920.964 22.8309 980.148Z" fill="#DBE2F1" stroke="#282724" stroke-miterlimit="10"/>
<path d="M824.787 850.971C792.129 857.511 805.542 930.115 751.877 1022.93C718.989 1079.81 701.927 1073.34 668.657 1131.29C648.137 1167.03 610.041 1233.39 619.815 1306.41C633.388 1407.77 737.5 1509.14 839.6 1501.89C919.407 1496.22 965.862 1426.46 1034.96 1322.7C1082.93 1250.67 1128.06 1182.9 1116.37 1094.64C1114.27 1078.83 1102.72 991.669 1039.04 952.102C995.816 925.251 967.513 944.503 908.792 911.377C854.415 880.702 847.263 846.469 824.787 850.971Z" fill="#FFEECC" stroke="#282724" stroke-miterlimit="10"/>
<path opacity="0.1" d="M1116.41 1094.66C1113.6 1072.48 1108.06 1050.74 1099.92 1029.92C1099.78 1029.78 1099.78 1029.64 1099.64 1029.5C1099.51 1029.05 1099.33 1028.63 1099.08 1028.24C1087.65 997.13 1066.6 970.482 1038.99 952.169C1032.74 948.209 1026.09 944.927 1019.14 942.38H1018.86C985.743 930.075 957.933 939.025 908.741 911.338C854.377 880.715 847.251 846.455 824.751 850.931C822.599 851.357 820.525 852.111 818.602 853.167C793.726 867.71 801.831 936.508 751.94 1022.92C718.959 1079.84 701.909 1073.4 668.649 1131.3C662.639 1141.78 655.093 1154.93 647.826 1170.03H647.686C629.938 1206.53 613.028 1254.77 619.876 1306.37C633.432 1407.75 737.546 1509.12 839.564 1501.85C919.361 1496.26 965.899 1426.48 1034.94 1322.73C1082.87 1250.71 1128.01 1182.9 1116.41 1094.66ZM792.607 1255.61C748.447 1320.77 757.67 1383.41 736.289 1383.83C710.434 1384.25 668.23 1293.36 692.686 1219.67C713.089 1158.14 760.465 1166.81 798.198 1092.42C833.555 1022.79 817.064 965.454 850.747 952.869C862.766 948.254 868.356 954.407 914.753 972.586C1004.19 1007.4 1039.27 1006.28 1059.26 1041.52C1065.36 1050.23 1068.81 1060.53 1069.18 1071.17C1066.66 1140.52 878.834 1128.5 792.607 1255.61Z" fill="#282724"/>
<path d="M803.661 814.879C785.435 795.603 769.459 811.674 725.836 788.44C687.061 767.786 686.138 746.202 629.491 705.068C595.757 680.569 578.652 668.378 566.998 671.197C539.632 677.813 535.598 727.29 512.316 850.973C485.074 995.698 476.098 1004.99 486.277 1038.57C507.137 1107.37 578.547 1179.54 647.77 1169.99C705.58 1162.02 733.628 1099.09 775.479 1005.62C797.02 957.511 842.495 855.948 803.661 814.879Z" fill="#FFEECC" stroke="#282724" stroke-miterlimit="10"/>
<path opacity="0.1" d="M811.475 826.04C809.369 821.984 806.738 818.223 803.648 814.856C785.481 795.559 769.409 811.641 725.807 788.428C687.096 767.73 686.118 746.199 629.518 705.088C595.699 680.614 578.649 668.312 567.05 671.245C563.11 672.354 559.463 674.321 556.37 677.004C553.278 679.687 550.816 683.022 549.161 686.768C549.022 686.906 548.882 687.047 548.882 687.187C536.025 710.678 529.177 761.298 512.267 850.931C492.703 955.106 482.64 989.086 482.218 1012.44C482.068 1021.32 483.438 1030.17 486.27 1038.59C507.093 1107.38 578.367 1179.4 647.683 1170.03H647.823C705.54 1162.06 733.63 1099.13 775.416 1005.59C791.906 968.95 822.092 901.551 818.601 853.168C818.06 843.74 815.636 834.516 811.475 826.04ZM639.161 1109.48C618.897 1120.67 579.348 1088.93 560.901 1066.42C548.048 1052.2 539.854 1034.39 537.423 1015.38C536.269 997.627 540.351 979.928 549.161 964.479C588.99 883.794 545.947 786.052 579.21 771.089C585.918 768.013 591.508 770.39 651.041 806.327C731.259 854.709 747.47 866.036 746.351 880.858C745.373 892.884 733.914 895.261 710.995 917.354C690.485 938.114 673.324 961.935 660.125 987.967C630.777 1049.77 661.521 1097.18 639.161 1109.48Z" fill="#282724"/>
<path d="M544.435 681.863C525.625 667.774 508.207 688.973 463.832 686.894C369.107 682.454 329.022 580.263 289.089 594.506C260.526 604.695 286.084 655.183 248.603 760.974C229.038 816.196 199.713 876.829 210.654 940.385C211.393 944.441 212.571 948.405 214.167 952.207C236.809 1008.39 300.732 1029.4 317.476 1034.9C324.29 1037.14 422.904 1068.02 482.265 1012.41C495.973 999.574 504.562 985.406 527.536 883.294C566.293 711.048 555.942 690.48 544.435 681.863Z" fill="#FFEECC" stroke="#282724" stroke-miterlimit="10"/>
<path opacity="0.1" d="M552.377 693.622C552.377 693.482 552.238 693.482 552.238 693.342C551.551 691.008 550.514 688.793 549.162 686.77C548.917 686.373 548.637 685.998 548.324 685.651C548.306 685.652 548.287 685.648 548.27 685.641C548.253 685.634 548.237 685.624 548.224 685.611C548.211 685.598 548.201 685.582 548.194 685.565C548.187 685.548 548.184 685.53 548.184 685.511C547.106 684.125 545.835 682.901 544.41 681.876C525.684 667.752 508.214 689.007 463.772 686.909C369.16 682.435 329.052 580.218 289.084 594.48C286.224 595.438 283.635 597.069 281.535 599.235C265.465 616.156 281.816 665.935 249.253 759.064V759.204C248.974 759.902 248.835 760.322 248.554 761.019C228.99 816.253 199.78 876.8 210.683 940.424C210.802 941.231 210.989 942.026 211.241 942.802C211.854 946.028 212.839 949.171 214.176 952.17C236.816 1008.38 300.682 1029.36 317.452 1034.95C324.3 1037.19 422.964 1067.95 482.219 1012.44C495.914 999.573 504.579 985.45 527.498 883.232C556.151 756.267 558.107 711.8 552.377 693.622ZM430.235 815.416C425.204 825.624 406.617 862.68 414.582 904.35C419.753 931.338 432.051 939.447 426.322 950.075C414.723 971.749 352.673 958.465 337.58 955.249C301.385 947.558 266.45 940.147 255.267 914.838C244.646 890.786 265.608 874.566 280.142 823.246C302.642 743.543 276.368 695.719 298.31 684.812C318.854 674.605 338.558 717.533 408.015 734.453C444.489 743.402 468.946 738.788 473.418 751.374C478.31 765.357 450.498 775.144 430.235 815.416Z" fill="#282724"/>
<path d="M116.025 493.939C203.426 504.132 224.51 477.656 250.326 497.385C274.863 516.135 272.754 558.954 267.544 643.825C263.02 717.49 255.04 709.259 236.552 835.057C226.001 906.847 224.388 938.183 198.486 954.596C179.092 966.882 167.523 957.211 121.191 967.718C63.6697 980.761 52.1518 1002.32 35.1003 995.283C6.11793 983.322 27.9503 916.314 17.8819 797.159C11.4222 720.744 -6.15845 646.484 5.83341 552.518C7.90415 536.282 12.2931 508.194 33.3823 493.942C53.6499 480.236 74.832 489.134 116.025 493.939Z" fill="#FFEECC" stroke="#282724" stroke-miterlimit="10"/>
<path opacity="0.1" d="M250.374 497.435C245.751 493.599 240.124 491.172 234.163 490.443H234.023C214.318 487.367 189.303 499.812 131.306 495.338C130.747 495.338 130.189 495.198 129.629 495.198C128.93 495.198 128.372 495.058 127.814 495.058L119.429 494.219C116.774 493.938 114.119 493.659 111.463 493.38C109.964 493.271 108.472 493.084 106.992 492.821C95.3925 491.142 85.4699 489.464 76.8059 488.206C76.3052 488.057 75.7897 487.963 75.2686 487.926C58.2186 485.689 45.5017 485.689 33.3436 493.938C12.2384 508.202 7.90607 536.309 5.80992 552.528C-6.20879 646.497 11.3987 720.748 17.8279 797.096C27.8906 916.374 6.08936 983.354 35.1581 995.238C52.2074 1002.37 63.6665 980.695 121.244 967.691C167.502 957.203 179.101 966.852 198.527 954.546C203.491 951.499 207.812 947.508 211.244 942.8C225.358 924.063 228.155 892.6 236.539 834.988C241.429 801.708 245.623 777.796 249.256 759.2V759.066C259.038 707.887 264.208 697.959 267.563 643.844C272.734 558.961 274.831 516.172 250.374 497.435ZM140.25 651.811C120.266 692.083 128.511 735.99 136.616 778.778C151.151 855.966 183.293 895.539 165.965 913.018C157.02 922.107 146.679 913.437 103.495 922.247C71.3529 928.82 63.9467 936.37 55.7008 931.476C39.0702 921.688 55.5614 883.234 57.6604 827.72C60.5949 753.05 33.9025 732.634 33.623 627.899C33.4829 589.444 36.977 567.491 52.0702 557.982C66.3252 549.033 80.44 558.262 118.173 564.554C180.362 574.763 213.482 561.758 217.536 572.805C222.563 586.788 166.105 599.932 140.25 651.811Z" fill="#282724"/>
<path d="M622.232 1421.6C608.399 1429.22 584.73 1379.61 508.656 1337.28C478.82 1320.68 411.057 1282.98 343.789 1291.46C211.71 1308.11 161.993 1492.66 101.983 1474.75C71.3112 1465.6 60.6614 1410.33 54.3548 1377.6C43.0097 1318.73 62.7604 1306.1 61.6855 1229.14C60.4691 1142.28 34.6853 1113.79 58.0224 1082.5C79.9622 1053.08 123.341 1050.67 144.12 1049.51C201.857 1046.29 241.111 1070.65 285.173 1091.67C420.551 1156.22 447.724 1115.91 515.988 1164.98C624.292 1242.85 645.522 1408.76 622.232 1421.6Z" fill="#FFEECC" stroke="#282724" stroke-miterlimit="10"/>
<path opacity="0.1" d="M516.04 1165C447.702 1115.92 420.59 1156.19 285.172 1091.72C241.151 1070.61 201.881 1046.28 144.164 1049.49C123.341 1050.61 80.0179 1053.13 58.0766 1082.49C34.7388 1113.82 60.4529 1142.34 61.7107 1229.18C62.8285 1306.09 42.9848 1318.67 54.3074 1377.54C60.5959 1410.4 71.3567 1465.63 101.962 1474.73C162.055 1492.62 211.666 1308.05 343.73 1291.4C411.09 1283.01 478.869 1320.63 508.634 1337.27C584.799 1379.64 608.417 1429.28 622.252 1421.59C645.59 1408.72 624.348 1242.88 516.04 1165ZM530.713 1271.69C511.008 1305.39 328.912 1171.29 193.914 1240.65C141.647 1267.49 111.041 1317.41 93.2929 1306.51C75.4046 1295.6 108.526 1246.66 85.8853 1174.64C78.8979 1152.27 69.535 1137.45 76.8025 1121.51C87.1439 1098.72 122.361 1093.82 135.358 1092.28C221.444 1081.52 244.644 1145.98 362.314 1171.01C418.772 1183.03 451.893 1176.32 490.465 1207.64C512.407 1225.4 538.96 1257.71 530.713 1271.69Z" fill="#282724"/>
<path d="M38.6627 10.1417C41.3106 69.9046 39.6716 129.781 33.7584 189.309C18.8008 340.259 -16.6238 418.158 26.6294 463.303C49.2305 486.894 82.6265 490.386 127.837 495.112C166.318 499.136 229.848 505.779 263.169 472.405C296.295 439.227 280.791 385.298 265.32 274.935C253.68 191.501 246.382 107.517 243.457 23.3251L38.6627 10.1417Z" fill="#FFEECC" stroke="#282724" stroke-miterlimit="10"/>
<path opacity="0.1" d="M263.228 472.404C254.933 480.488 244.961 486.646 234.021 490.443C200.902 502.468 158.695 498.274 129.627 495.197C128.928 495.197 128.37 495.057 127.812 495.057L119.427 494.218C116.772 493.938 114.117 493.658 111.461 493.379C98.7443 491.98 87.2845 490.443 76.8037 488.206C76.303 488.057 75.7876 487.963 75.2665 487.925C56.9222 484.89 39.9488 476.301 26.6342 463.315C-16.5516 418.149 18.8078 340.262 33.7617 189.243C39.7352 129.732 41.3699 69.865 38.6529 10.1166C49.2737 10.8159 60.0346 11.5146 70.6561 12.2139C81.417 178.615 64.9222 267.689 46.0598 319.007C41.7275 330.614 29.4293 361.796 43.6842 384.31C62.1264 413.812 121.8 421.925 145.558 398.712C168.617 376.059 150.729 330.333 137.872 271.884C120.122 187.726 116.485 101.201 127.111 15.8495C165.962 18.3666 204.673 20.7443 243.524 23.2615C246.399 107.484 253.676 191.498 265.325 274.96C280.837 385.288 296.35 439.264 263.228 472.404Z" fill="#282724"/>
<path d="M545.388 679.076C545.109 680.055 544.69 681.037 544.411 681.873C541.129 691.082 535.013 699.012 526.942 704.524C504.582 719.484 475.513 711.237 430.932 698.791C386.349 686.208 324.722 669.011 294.955 627.199C288.881 618.735 284.341 609.268 281.542 599.232C265.051 543.158 298.172 470.166 324.307 379.694C359.467 256.863 378.17 129.903 379.923 2.14514C388.588 3.96073 397.113 5.78068 405.777 7.73717C427.299 12.351 448.963 16.9662 470.482 21.5807C494.38 26.7544 518.277 31.788 542.174 36.9617C513.245 169.104 518.416 270.483 528.479 338.858C539.382 402.116 546.753 465.932 550.559 530.01C550.839 534.485 551.118 539.099 551.258 543.713C554.472 614.054 553.913 654.885 545.388 679.076Z" fill="#FFEECC" stroke="#282724" stroke-miterlimit="10"/>
<path opacity="0.1" d="M545.388 679.076C545.109 680.055 544.69 681.037 544.411 681.873C541.129 691.082 535.013 699.012 526.942 704.524C504.582 719.484 475.513 711.237 430.932 698.791C386.349 686.208 324.722 669.011 294.955 627.199C288.881 618.735 284.341 609.268 281.542 599.232C265.051 543.158 298.172 470.166 324.307 379.694C359.467 256.863 378.17 129.903 379.923 2.14514C388.588 3.96073 397.113 5.78068 405.777 7.73717C406.337 53.4625 404.24 92.895 401.445 125.197C386.493 299.008 378.945 385.843 354.209 434.507C344.706 452.965 321.088 495.195 337.16 530.293C348.483 555.323 377.128 570.704 400.886 583.429C424.085 596.014 438.758 603.844 447.701 598.389C470.621 584.266 437.919 492.535 432.749 477.154C408.713 405.982 403.262 276.353 470.482 21.5785C494.38 26.7522 518.277 31.7858 542.174 36.9595C513.245 169.102 518.416 270.481 528.479 338.856C539.382 402.114 546.753 465.93 550.559 530.008C550.839 534.483 551.118 539.097 551.258 543.711C554.472 614.054 553.913 654.885 545.388 679.076Z" fill="#282724"/>
<path d="M614.436 89.9625C617.01 150.831 614.208 211.808 606.063 272.183C602.88 297.122 600.087 313.824 597.425 327.258C592.389 352.695 587.931 371.43 586.567 376.947C543.018 552.987 521.244 641.007 552.289 693.39C558.822 704.419 603.781 731.762 693.691 786.449C771.37 833.697 790.445 841.505 803.961 833.146C829.491 817.356 820.814 757.446 811.202 691.084C807.266 655.26 799.616 619.943 788.376 585.703C768.754 525.759 748.703 398.773 748.404 102.53L612.342 56.4496C612.993 64.6125 613.809 76.1451 614.436 89.9625Z" fill="#FFEECC" stroke="#282724" stroke-miterlimit="10"/>
<path opacity="0.1" d="M820.42 793.599C820.457 805.027 817.364 816.247 811.476 826.04C809.462 828.899 806.895 831.324 803.927 833.172C790.512 841.561 771.366 833.731 693.665 786.468C604.503 732.213 559.504 704.806 552.376 693.619C552.376 693.479 552.237 693.479 552.237 693.339C551.119 691.378 550.001 689.284 548.882 687.186C548.743 686.767 548.464 686.207 548.323 685.648C548.305 685.649 548.286 685.645 548.269 685.638C548.252 685.631 548.237 685.621 548.223 685.608C548.21 685.595 548.2 685.579 548.193 685.562C548.186 685.545 548.183 685.527 548.183 685.508C547.206 683.411 546.224 681.313 545.388 679.076C532.811 645.657 536.445 599.092 550.559 530.014C559.084 488.065 571.522 437.725 586.615 376.897C587.874 371.443 592.349 352.706 597.376 327.257C600.032 313.832 602.827 297.053 606.041 272.162C614.211 211.795 617.017 150.822 614.425 89.9596C613.867 76.1168 613.028 64.6502 612.33 56.4001C620.574 59.1976 628.68 61.9922 636.926 64.7904C643.778 121.379 644.2 178.562 638.183 235.246C619.177 413.533 589.409 577.977 589.409 577.977C586.894 592.38 580.605 626.499 597.793 658.801C620.853 702.148 678.71 728.717 699.393 713.196C716.304 700.471 705.402 662.298 696.597 623.982C676.333 534.35 678.43 440.941 668.787 349.491C659.686 259.069 662.223 167.852 676.335 78.0754C700.374 86.1853 724.41 94.4354 748.448 102.546C748.727 398.712 768.712 525.82 788.416 585.668C799.643 619.927 807.277 655.263 811.196 691.103C815.248 719.489 819.301 746.756 820.42 769.827C820.909 777.744 820.909 785.683 820.42 793.599Z" fill="#282724"/>
<path d="M833.286 132.751C844.1 210.195 847.256 288.516 842.709 366.58C836.799 465.15 821.733 503.273 818.958 623.304C817.844 671.493 820.409 659.515 820.409 773.993C820.409 830.875 819.776 837.934 824.788 850.968C854.547 928.344 990.015 973.799 1035.67 932.127C1043.28 925.182 1057.5 907.234 1046.44 813.645C1034.62 713.574 1011.27 682.622 987.827 590.98C959.82 481.494 958.079 388.557 956.755 317.975C955.841 269.386 957.405 220.781 961.442 172.352L833.286 132.751Z" fill="#FFEECC" stroke="#282724" stroke-miterlimit="10"/>
<path opacity="0.1" d="M1035.63 932.174C1030.82 936.615 1025.17 940.04 1019 942.242C1019 942.381 1019 942.381 1018.86 942.381C963.243 964.195 851.443 920.428 824.751 850.931C820.419 839.602 820.279 832.892 820.419 793.599V769.548C820.419 659.779 817.902 670.826 819.021 623.284C821.676 503.31 836.769 465.133 842.778 366.551C847.271 288.494 844.088 210.185 833.275 132.751C841.66 135.407 850.187 137.925 858.57 140.582C870.904 199.667 876.855 259.908 876.319 320.267C875.201 407.522 860.666 444.298 847.111 621.187C839.005 725.502 838.306 788.847 880.512 831.496C897.981 849.394 927.886 868.551 943.119 859.462C966.178 845.619 939.766 775.842 920.899 686.629C908.461 628.598 904.828 512.396 897.56 279.855C896.443 245.875 895.185 202.528 894.207 151.628C916.566 158.48 938.927 165.471 961.427 172.326C957.454 220.787 955.915 269.417 956.815 318.032C958.073 388.508 959.75 481.496 987.84 590.985C1000.42 640.067 1012.99 671.809 1023.76 706.069C1034.82 741.079 1042.41 777.098 1046.4 813.6C1057.43 907.283 1043.32 925.182 1035.63 932.174Z" fill="#282724"/>
<path d="M1229.19 1043.34C1205.71 1085.15 1158.2 1122.63 1133.18 1112.14C1114.04 1104.17 1122.01 1073.82 1099.64 1029.5C1099.52 1029.05 1099.33 1028.63 1099.08 1028.24C1073.37 977.898 1043.74 978.318 1019.15 942.381C1019.13 942.381 1019.11 942.378 1019.09 942.371C1019.07 942.364 1019.06 942.354 1019.05 942.341C1019.03 942.328 1019.02 942.312 1019.02 942.295C1019.01 942.278 1019.01 942.26 1019.01 942.241C987.422 896.096 1004.75 848.833 1021.52 724.941C1021.52 724.941 1022.36 718.788 1023.76 706.064C1026.97 677.258 1033.26 614.753 1039.41 515.332C1045.15 419.533 1042.35 323.412 1031.02 228.112C1046.12 236.083 1061.35 244.054 1076.44 252.024C1086.51 257.338 1096.71 262.651 1106.77 267.965C1122.84 276.495 1139.05 284.886 1155.12 293.415C1131.65 520.643 1166.45 680.472 1204.74 786.885C1229.19 854.985 1276.15 959.86 1229.19 1043.34Z" fill="#FFEECC" stroke="#282724" stroke-miterlimit="10"/>
<path opacity="0.1" d="M1229.19 1043.34C1205.71 1085.15 1158.2 1122.63 1133.18 1112.14C1114.04 1104.17 1122.01 1073.96 1099.92 1029.92C1099.78 1029.78 1099.78 1029.64 1099.64 1029.5C1099.52 1029.05 1099.33 1028.63 1099.08 1028.24C1073.37 977.898 1043.74 978.318 1019.15 942.381C1019.13 942.381 1019.11 942.378 1019.09 942.371C1019.07 942.364 1019.06 942.354 1019.05 942.341C1019.03 942.328 1019.02 942.312 1019.02 942.295C1019.01 942.278 1019.01 942.26 1019.01 942.241C987.422 896.096 1004.75 848.833 1021.52 724.941C1021.52 724.941 1022.36 718.788 1023.76 706.064C1026.97 677.258 1033.26 614.753 1039.41 515.332C1045.15 419.533 1042.35 323.412 1031.02 228.112C1046.12 236.083 1061.35 244.054 1076.44 252.024C1078.4 299.567 1077.7 338.161 1076.72 364.869C1070.99 523.719 1037.87 706.901 1055.9 835.689C1060.91 871.786 1075.32 905.93 1097.69 934.691C1100.9 938.745 1135 980.975 1150.65 973.703C1168.26 965.454 1151.07 899.173 1139.47 839.883C1131.23 797.934 1124.66 658.241 1111.66 378.715C1110.27 350.049 1108.59 312.434 1106.77 267.967C1122.84 276.497 1139.06 284.889 1155.13 293.417C1131.65 520.645 1166.45 680.474 1204.74 786.887C1229.19 854.985 1276.15 959.86 1229.19 1043.34Z" fill="#282724"/>
</svg>
