<svg width="1444" height="1695" viewBox="0 0 1444 1695" fill="none" xmlns="http://www.w3.org/2000/svg">
<g clip-path="url(#clip0_2681_480213)">
<path d="M615.579 14.6082C557.824 41.4834 535.675 105.95 491.378 234.882C414.844 457.642 463.144 518.92 384.113 658.485C367.014 688.68 374.941 667.82 226.037 856.166C134.931 971.402 89.063 1029.64 73.6079 1059.5C46.4209 1112.03 -44.0441 1286.82 28.4436 1432.27C59.8076 1495.2 110.023 1529.25 175.228 1573.47C229.585 1610.33 326.266 1679.23 429.277 1692.08C597.299 1713.04 648.169 1570.5 1101.1 1268.47C1163.07 1227.15 1212 1183.94 1281.75 1121.62C1390.88 1024.13 1478.91 846.545 1428.54 737.558C1390.66 655.621 1309.43 687.915 1208.36 590.708C1092.38 479.167 1144.23 383.649 1044.64 234.882C941.104 80.2132 734.875 -40.9023 615.579 14.6082Z" fill="#FFEECC" stroke="#282724" stroke-miterlimit="10"/>
</g>
<defs>
<clipPath id="clip0_2681_480213">
<rect width="1444" height="1695" fill="white"/>
</clipPath>
</defs>
</svg>
