<svg width="114" height="113" viewBox="0 0 114 113" fill="none" xmlns="http://www.w3.org/2000/svg">
<path d="M113.916 14.7412C112.943 14.4989 111.914 14.6171 111.022 15.0741C108.829 16.3183 109.268 19.5603 107.601 20.0159C106.408 20.349 105.83 18.7903 103.935 18.8245C103.219 18.8693 102.521 19.0754 101.896 19.4274C101.27 19.7794 100.732 20.2682 100.322 20.8572C98.7431 23.1705 100.462 25.6765 99.0589 26.8331C97.9365 27.7618 96.6208 26.2897 94.9895 27.1309C94.4567 27.4134 94.0314 27.8629 93.7791 28.4104C93.0073 29.9524 93.0951 32.1078 91.3761 32.9493C90.0081 33.5976 88.8504 32.7557 88.2363 33.5625C87.483 34.5439 88.8855 36.016 88.0786 37.4879C87.886 37.8667 87.5925 38.185 87.2304 38.4077C86.8682 38.6303 86.4516 38.7487 86.0264 38.7497C84.6756 38.5745 84.167 36.2788 83.6758 36.4014C83.0086 36.5592 84.0267 40.7826 82.5709 41.5712C81.7814 42.0094 80.8168 41.063 80.2204 41.5712C79.4309 42.2548 80.6063 44.3752 79.9046 44.8659C79.4311 45.1988 78.7639 44.3051 77.7121 44.3928C76.2916 44.5156 75.1862 46.338 74.7301 47.6875C73.8005 50.4389 75.3091 52.2088 74.2566 53.1728C73.1865 54.1542 71.1343 52.8046 70.3274 53.8037C69.6434 54.6797 70.9414 55.9755 70.1696 57.4136C69.5907 58.5352 68.5033 58.2899 68.1348 59.2887C67.6263 60.6731 69.2926 61.9876 68.7663 62.7413C68.2401 63.5122 66.3988 62.3731 65.4688 63.2143C64.242 64.3183 65.8194 67.7883 65.1531 68.0861C64.7144 68.2796 63.8023 66.912 63.4164 67.14C63.1183 67.3152 63.6796 68.2439 63.2586 68.8574C62.7324 69.681 61.2064 69.015 60.7504 69.6461C59.9971 70.7325 63.3813 74.1674 62.8026 74.8334C62.5042 75.1488 61.5222 74.4128 61.0661 74.8334C60.5399 75.289 61.0835 76.8837 61.6974 77.9703C62.7498 79.8279 64.118 80.4061 63.8901 81.1071C63.6796 81.7737 62.3114 81.4753 62.0131 82.1937C61.6799 83.0347 63.3288 83.8234 63.8901 86.1191C64.0291 86.44 64.1009 86.7859 64.1009 87.1355C64.1009 87.4852 64.0291 87.8311 63.8901 88.152C63.2937 89.2035 61.8024 88.9231 61.5396 89.7293C61.4518 89.9746 61.4869 90.3599 62.8026 91.9198C64.4689 93.9176 65.4863 94.5309 65.3108 95.0567C65.0827 95.7052 63.241 95.4246 63.1183 96.0028C62.9954 96.5109 64.4338 96.9842 64.3636 97.5624C64.2584 98.4737 60.5756 98.4213 60.4346 99.2973C60.3468 99.9639 62.4692 100.226 63.1183 101.961C63.274 102.356 63.336 102.781 63.2995 103.204C63.263 103.626 63.1289 104.035 62.9078 104.397V104.415C62.2236 105.343 61.0661 104.94 60.5924 105.729C60.3819 106.097 60.3468 106.675 61.3818 108.708C62.0038 109.902 62.7011 111.055 63.4696 112.16C63.4762 112.167 63.4812 112.176 63.4842 112.185C63.4872 112.194 63.4882 112.203 63.487 112.213C63.7502 112.599 63.8905 112.826 63.8378 112.88C63.6273 113.09 61.2766 110.899 61.2766 110.899C56.2775 106.203 55.9617 104.398 52.7342 102.365C51.1546 101.209 49.2837 100.518 47.3319 100.367C44.9978 100.385 42.719 101.079 40.7718 102.365C38.3511 103.854 38.0705 105.064 36.2287 105.484C34.6568 105.767 33.0355 105.468 31.6683 104.643C29.3178 93.6377 24.6695 87.7669 20.8457 84.4373C20.0823 83.771 19.2798 83.1506 18.4427 82.5795C16.3797 81.245 14.2223 80.0619 11.9878 79.0396C8.89163 77.7286 6.23721 75.5573 4.33986 72.7835C3.69094 71.8373 -2.04468 63.25 0.884364 55.9422C2.5158 51.8942 5.63789 51.2115 8.23397 44.9192C8.28649 44.7966 8.33923 44.6564 8.39174 44.5337C9.41868 42.4714 9.94163 40.1953 9.91771 37.892C9.6547 32.8624 6.14669 30.4439 7.37457 28.3585C8.40939 26.571 11.4613 27.5173 13.3383 24.7836C13.9171 23.9424 13.5486 23.9424 14.3557 22.5755C15.8817 19.9643 17.2499 19.7715 17.6005 17.9665C17.8461 16.6171 17.2322 15.8807 17.7585 15.4076C18.4952 14.7767 19.7756 16.126 21.1789 15.5826C22.4419 15.0922 22.091 13.7252 23.7401 12.5159C24.6498 11.9006 25.7122 11.5488 26.8097 11.4994C28.024 11.2149 29.301 11.3963 30.3879 12.0077C31.7384 13.0066 31.2826 14.5666 32.2649 14.8993C33.6854 15.39 35.5273 12.3232 36.685 12.8664C37.2991 13.1459 36.9306 14.0581 37.5444 14.7417C39.2635 16.6339 45.736 13.4448 46.578 13.0242C49.8581 11.4115 49.2791 10.9384 51.8576 9.95741C54.6986 8.88827 56.3481 9.09857 58.3301 7.41638C59.7158 6.24209 59.3299 5.80363 60.3823 5.19058C62.9082 3.7361 64.9079 6.38229 68.3985 5.54108C70.8891 4.92781 70.766 3.35055 74.0289 2.4743C75.4357 2.22767 76.8622 2.11034 78.2904 2.12379C83.8158 1.70319 83.9384 0.949721 86.4643 1.28281C86.7441 1.31764 87.008 1.37032 87.2536 1.40537C89.4287 1.84361 90.0602 2.64954 91.5861 2.12379C93.4281 1.51052 94.1121 -0.206933 95.1645 0.0911011C96.0764 0.336237 95.7609 1.72083 96.8648 2.4743C98.5662 3.63095 100.653 1.23013 102.653 2.29905C104.144 3.08779 103.986 4.92782 105.723 5.36584C106.301 5.41352 106.871 5.52524 107.424 5.69892C107.828 5.87417 108.88 6.32981 109.143 7.2409C109.406 8.18704 108.494 8.73066 108.792 9.62433C108.968 10.1501 109.441 10.4128 110.161 10.816C111.722 11.6923 112.528 11.3594 113.23 12.0077C113.635 12.3752 114.056 13.0939 113.916 14.7412Z" fill="#F4D58C" stroke="#282724" stroke-width="0.1124" stroke-miterlimit="10"/>
<path d="M61.68 105.115C62.1174 104.935 62.53 104.699 62.9078 104.414C62.5964 104.788 62.1604 105.037 61.68 105.115Z" fill="#F4D58C" stroke="#282724" stroke-width="0.1124" stroke-miterlimit="10"/>
<path opacity="0.1" d="M74.2569 53.1725C73.1868 54.1539 71.1346 52.8044 70.3277 53.8034C69.6437 54.6795 70.9417 55.9752 70.1699 57.4134C69.591 58.535 68.5036 58.2896 68.1352 59.2885C67.6266 60.6728 69.2929 61.9873 68.7666 62.741C68.2404 63.5119 66.3991 62.3729 65.4691 63.2141C64.2423 64.3181 65.8197 67.788 65.1534 68.0858C64.7147 68.2794 63.8026 66.9118 63.4167 67.1397C63.1186 67.315 63.6799 68.2437 63.2589 68.8572C63.1495 69.0208 62.9893 69.144 62.8029 69.2077C62.7585 69.2274 62.711 69.2393 62.6625 69.2427C62.6556 69.2493 62.6473 69.2544 62.6381 69.2574C62.629 69.2604 62.6194 69.2613 62.6098 69.2601C62.43 69.2934 62.2485 69.3168 62.0661 69.3302H61.8724C61.7669 69.3273 61.6613 69.3332 61.5567 69.3479C61.4514 69.3594 61.3462 69.3711 61.241 69.3829C61.1452 69.3898 61.052 69.4168 60.9674 69.4621C60.8828 69.5074 60.8087 69.57 60.75 69.6459C60.7162 69.6932 60.6923 69.7468 60.6796 69.8035C60.6583 69.8836 60.6466 69.966 60.6448 70.0489C60.6659 70.3948 60.768 70.7309 60.9429 71.0303C60.9954 71.1354 61.0481 71.2406 61.1008 71.3631C61.4166 71.9764 61.8724 72.625 62.2233 73.2032C62.3111 73.3436 62.3989 73.4827 62.4688 73.6064C62.539 73.7466 62.6268 73.8859 62.6793 74.0093C62.7381 74.1211 62.7852 74.2386 62.8197 74.36C62.8541 74.4434 62.872 74.5326 62.8724 74.6228C62.8757 74.6608 62.8711 74.699 62.8591 74.7352C62.847 74.7714 62.8277 74.8047 62.8022 74.8331C62.5039 75.1486 61.5218 74.4125 61.0658 74.8331C60.5395 75.2888 61.0832 76.8834 61.697 77.97C62.7495 79.8276 64.1177 80.4059 63.8898 81.1069C63.6793 81.7735 62.3111 81.475 62.0128 82.1934C61.6796 83.0344 63.3285 83.8232 63.8898 86.1188C64.0288 86.4397 64.1005 86.7856 64.1005 87.1353C64.1005 87.4849 64.0288 87.8309 63.8898 88.1518C63.2934 89.2033 61.8021 88.9229 61.5393 89.729C61.4515 89.9744 61.4865 90.3597 62.8022 91.9195C64.4685 93.9174 65.4859 94.5307 65.3105 95.0564C65.0824 95.705 63.2407 95.4243 63.118 96.0026C62.9951 96.5107 64.4334 96.984 64.3633 97.5622C64.2931 98.158 62.697 98.3333 61.5744 98.6311C50.3659 82.4734 49.6468 60.0245 45.9107 60.4451C42.3499 60.8657 42.7005 81.4045 39.4558 81.6498C37.1227 81.8251 37.5262 70.9073 29.7208 59.937C23.406 51.0869 18.7052 51.9632 10.5138 40.397C10.2856 40.0816 10.0751 39.7661 9.8823 39.4683C9.93839 38.9445 9.95007 38.4168 9.91718 37.8911C9.65417 32.8615 6.14615 30.443 7.37403 28.3576C8.40885 26.5701 11.4608 27.5164 13.3378 24.7827C13.9165 23.9415 13.5481 23.9415 14.3552 22.5746C15.8811 19.9634 17.2494 19.7705 17.6 17.9656C17.8455 16.6162 17.2317 15.8797 17.7579 15.4067C18.4947 14.7758 19.7751 16.1251 21.1784 15.5817C22.4413 15.0912 22.0905 13.7243 23.7396 12.5149C24.6493 11.8996 25.7117 11.5478 26.8092 11.4985C28.0235 11.214 29.3005 11.3954 30.3873 12.0068C31.7379 13.0056 31.282 14.5657 32.2643 14.8983C33.6848 15.3891 35.5268 12.3223 36.6845 12.8654C37.2985 13.145 36.9301 14.0571 37.5439 14.7407C39.2629 16.633 45.7355 13.4439 46.5774 13.0233C49.8575 11.4105 49.2786 10.9375 51.857 9.95648C53.5059 9.343 54.7337 9.15033 55.8738 8.76478C59.4345 11.446 61.7149 14.5304 61.6096 17.5269C61.4517 21.803 56.558 22.0834 53.7865 29.7242C52.1829 33.7135 51.9606 38.1241 53.155 42.2543C55.6633 48.9491 64.1707 53.3127 74.2569 53.1725Z" fill="#282724"/>
<path opacity="0.3" d="M63.8373 112.879C63.7497 112.966 63.2409 112.599 62.6966 112.16C62.188 111.722 61.7143 111.319 61.2761 110.899C56.2769 106.202 55.9612 104.397 52.7336 102.364C51.1541 101.209 49.2832 100.517 47.3314 100.366C44.9973 100.384 42.7185 101.078 40.7712 102.364C38.3506 103.854 38.0699 105.063 36.2282 105.483C34.6562 105.766 33.0349 105.467 31.6677 104.642C29.3172 93.6369 24.6689 87.7661 20.8452 84.4365C20.0817 83.7702 19.2793 83.1498 18.4421 82.5786C16.3791 81.2442 14.2218 80.0611 11.9872 79.0388C8.89107 77.7278 6.23663 75.5564 4.33928 72.7827C4.23403 72.6248 4.11135 72.4496 4.00611 72.2743C0.691588 66.719 0.883789 55.9414 0.883789 55.9414C2.51522 51.8934 5.63733 51.2107 8.23342 44.9184C8.28593 44.7958 8.33867 44.6556 8.39119 44.5328C9.12877 42.9249 9.63094 41.2193 9.88228 39.4684C10.076 39.7662 10.2856 40.0817 10.5138 40.3971C18.7051 51.9633 23.4059 51.087 29.7208 59.9371C37.5262 70.9074 37.1227 81.8252 39.4558 81.6499C42.7005 81.4046 42.3499 60.8658 45.9107 60.4452C49.6468 60.0246 50.3659 82.4735 61.5744 98.6312C60.9605 98.8064 60.4868 98.9993 60.4337 99.2978C60.3458 99.9644 62.4682 100.227 63.1173 101.962C63.273 102.356 63.335 102.782 63.2985 103.204C63.262 103.627 63.1279 104.035 62.9068 104.397V104.415C62.529 104.7 62.1164 104.936 61.679 105.116C61.6517 105.132 61.6221 105.144 61.5911 105.151C61.2912 105.19 61.01 105.318 60.7843 105.519C60.7025 105.571 60.6358 105.644 60.5906 105.729C60.5627 105.786 60.5392 105.845 60.5204 105.905C60.3977 106.255 60.4679 106.816 61.1168 108.165C61.1935 108.352 61.2814 108.533 61.38 108.709C62.0019 109.902 62.6993 111.055 63.4677 112.161C63.4744 112.168 63.4794 112.176 63.4824 112.185C63.4854 112.194 63.4864 112.204 63.4852 112.213C63.6093 112.441 63.7322 112.668 63.8373 112.879Z" fill="#282724"/>
</svg>
