<svg width="215" height="209" viewBox="0 0 215 209" fill="none" xmlns="http://www.w3.org/2000/svg">
<path d="M214.626 35.459C214.225 36.8522 204.968 35.2848 204.811 36.1557C204.689 36.7825 209.553 38.0541 209.432 38.6988C209.292 39.3432 204.097 38.6813 203.993 39.2737C203.923 39.7266 207.096 40.2489 207.113 41.1197C207.148 42.6351 197.56 43.7672 197.647 44.6902C197.699 45.2475 201.238 45.0734 206.416 46.4319C207.026 46.5888 211.959 47.8775 211.855 48.731C211.716 49.7758 204.202 49.4102 204.115 50.3507C204.028 51.2389 210.774 52.3015 210.687 53.5728C210.635 54.4437 207.532 54.4958 207.34 55.6458C207.113 57.1264 211.942 58.7112 211.733 59.4601C211.455 60.4878 202.337 58.3454 201.796 59.8084C201.395 60.9231 206.276 63.2222 205.841 64.4246C205.353 65.8004 198.432 63.9892 197.874 65.4696C197.368 66.8106 202.668 69.4754 202.145 70.8861C201.622 72.2968 195.747 71.3043 195.677 71.8093C195.608 72.2621 200.628 72.9762 200.646 74.0039C200.646 75.3798 191.755 76.1634 191.755 77.5743C191.773 78.7412 197.752 79.2464 197.752 80.4654C197.752 81.6844 191.598 82.0682 191.528 83.583C191.476 84.4539 193.917 85.6034 198.798 87.8501C200.977 88.843 202.197 89.3305 202.145 89.9231C202.04 91.09 197.002 91.177 196.95 92.1175C196.898 93.18 203.435 93.9289 203.418 95.1133C203.4 96.2626 197.212 96.6633 197.177 97.7607C197.177 99.0842 205.84 100.234 205.84 100.878C205.77 101.61 195.188 100.425 194.648 102.498C194.212 104.083 200.035 106.277 199.599 107.914C199.058 110.074 188.442 108.716 188.18 110.231C187.936 111.59 196.287 113.645 196.025 115.648C195.955 116.205 195.258 116.588 193.95 117.041C190.199 118.118 186.283 118.507 182.392 118.19C182.392 118.417 189.505 119.236 189.558 120.49C189.628 121.865 181.366 123.033 181.469 124.077C181.574 125 188.286 124.825 188.408 125.924C188.512 126.951 182.533 127.683 182.29 129.964C182.116 131.584 185.027 132.194 185.166 134.336C185.341 136.879 181.383 137.75 181.366 140.467C181.349 142.94 184.696 143.584 184.591 146.11C184.521 147.938 182.743 148.287 181.244 151.3C180.754 152.421 180.397 153.596 180.18 154.801C179.936 154.766 179.675 154.714 179.396 154.679C176.886 154.348 176.764 155.097 171.272 155.515C169.853 155.501 168.435 155.618 167.037 155.863C163.795 156.734 163.917 158.301 161.441 158.911C157.972 159.747 155.985 157.117 153.474 158.563C152.428 159.172 152.811 159.608 151.435 160.775C149.465 162.447 147.826 162.238 145.002 163.3C142.439 164.276 143.015 164.746 139.755 166.348C138.918 166.766 132.485 169.936 130.777 168.055C130.167 167.376 130.533 166.47 129.923 166.191C128.772 165.651 126.942 168.699 125.53 168.212C124.554 167.881 125.007 166.331 123.664 165.338C122.584 164.73 121.315 164.55 120.108 164.833C119.017 164.882 117.962 165.231 117.057 165.843C115.419 167.045 115.767 168.403 114.512 168.891C113.117 169.431 111.845 168.09 111.113 168.717C110.59 169.187 111.2 169.919 110.956 171.26C110.607 173.054 109.247 173.246 107.731 175.841C106.929 177.199 107.295 177.199 106.72 178.035C104.854 180.752 101.821 179.812 100.793 181.588C99.5732 183.661 103.059 186.064 103.32 191.063C103.344 193.352 102.824 195.614 101.803 197.664C101.751 197.786 101.699 197.925 101.647 198.047C100.967 196.601 100.252 195.017 99.5198 193.275C99.0492 192.108 98.6481 191.115 98.3518 190.366C98.2994 190.209 98.2297 190.035 98.1593 189.861C98.1593 191.446 97.8813 191.951 97.5666 192.056C96.7125 192.333 95.3527 189.652 94.4986 189.983C93.8883 190.209 94.2205 191.69 93.4002 192.056C92.8772 192.282 92.5636 191.742 91.8138 191.812C90.5946 191.916 90.4889 193.397 89.2339 193.885C87.7347 194.477 86.6365 192.822 85.5729 193.397C84.5618 193.937 85.05 195.662 84.3353 197.804C83.747 199.492 82.6738 200.97 81.2497 202.053V202.123C80.3548 198.728 79.0982 195.438 77.5015 192.311C67.9142 173.555 49.371 167.521 44.2747 165.861C37.9147 163.791 33.7675 162.44 31.0246 164.592C27.4579 167.389 29.6177 173.779 27.8524 189.627C27.5101 192.705 27.1212 195.226 26.8432 196.895C25.7219 191.953 24.3916 190.678 23.3206 190.523C22.1809 190.358 21.2104 191.297 20.235 190.819C19.3809 190.401 19.5719 189.583 18.6835 188.346C17.6027 186.866 16.8183 187.336 15.1271 185.733C13.3492 184.045 13.8546 183.19 12.338 182.337C10.9434 181.536 9.94957 181.937 9.28711 180.944C8.72946 180.125 9.04325 179.254 8.36325 178.871C7.90998 178.627 7.52667 178.871 7.10806 178.819C6.96085 178.845 6.80981 178.841 6.66414 178.808C6.51848 178.774 6.38123 178.711 6.26078 178.622C6.02133 178.297 5.87062 177.916 5.82344 177.515C5.77626 177.115 5.83423 176.709 5.99168 176.337C6.07506 176.161 6.11139 175.966 6.09714 175.771C6.07305 175.594 6.01071 175.424 5.91447 175.274C5.46655 174.042 4.49584 171.279 3.49969 167.655C1.83099 161.773 0.70472 155.75 0.134964 149.663C-0.422687 141.355 2.00043 136.235 6.88153 122.824C13.8548 103.683 13.8198 100.583 16.7659 93.1978C25.0273 72.5566 44.0116 49.9498 65.2271 34.2746C107.92 2.69794 156.836 1.16521 187.971 0.189843C195.241 -0.0366889 200.401 0.0678151 205.822 0.189843C209.553 1.18252 212.168 2.12306 212.081 2.80244C211.906 4.19562 200.767 4.05628 200.767 4.31764C200.767 4.52665 209.257 4.30012 209.43 5.46698C209.535 6.32053 205.002 7.34762 205.142 8.34094C205.281 9.29879 209.535 9.29879 209.535 9.73412C209.535 10.3265 201.864 10.5528 201.795 11.4585C201.795 12.4861 211.156 13.4439 211.156 14.6982C211.121 15.8475 203.067 16.3865 203.067 16.997C203.102 17.5892 210.546 17.5022 210.581 18.1466C210.581 18.6864 205.612 19.2089 205.612 19.8883C205.63 20.672 212.289 20.8985 212.306 21.6125C212.306 22.2917 206.467 22.2917 206.189 23.8071C205.84 25.6707 214.208 28.4232 213.929 29.3456C213.651 30.2165 206.049 28.2833 205.736 29.2236C205.352 30.321 215.044 33.9968 214.626 35.459Z" fill="#FFEECC" stroke="#282724" stroke-width="0.1124" stroke-miterlimit="10"/>
<path d="M26.8758 195.746L26.87 195.729C26.87 196.115 26.8602 196.503 26.842 196.893C26.9552 196.861 27.072 196.844 27.1896 196.843C28.4621 196.843 29.3686 198.654 30.8852 198.236C32.9248 197.679 32.8202 193.969 34.4765 193.708C35.8012 193.499 36.185 195.798 39.0089 196.808C39.6907 197.094 40.4226 197.241 41.1619 197.241C41.9011 197.241 42.633 197.094 43.3148 196.808C44.9012 195.99 45.2847 194.283 45.7031 194.422C47.2816 193.689 49.0235 193.377 50.7587 193.516C53.1643 193.743 54.0186 194.823 55.4131 194.264C57.174 193.55 57.0867 191.356 58.9695 190.903C59.876 190.694 59.9455 191.181 61.0266 191.095C61.3697 191.074 61.7063 190.992 62.0202 190.852C63.6938 190.155 64.3387 188.204 66.448 187.925C67.7381 187.733 67.7903 188.431 69.2374 188.291C70.5939 188.057 71.8332 187.376 72.7587 186.358C62.857 173.957 49.0152 167.931 44.2736 165.858C40.7799 164.112 36.9654 163.098 33.0649 162.88H33.0476C31.7004 162.808 30.3647 163.161 29.2298 163.89C24.2963 167.321 27.2598 175.925 27.2251 188.745C27.2065 191.217 27.0846 193.552 26.8758 195.746Z" fill="#F4D58C"/>
<path d="M26.8414 196.893C26.9546 196.861 27.0715 196.844 27.189 196.843C28.4616 196.843 29.3681 198.655 30.8847 198.237C32.9243 197.679 32.8197 193.969 34.4759 193.708C35.8006 193.499 36.1844 195.798 39.0084 196.808C39.6902 197.094 40.422 197.241 41.1613 197.241C41.9006 197.241 42.6324 197.094 43.3143 196.808C44.9006 195.99 45.2841 194.283 45.7025 194.422C47.2811 193.689 49.0229 193.377 50.7582 193.517C53.1637 193.743 54.0181 194.823 55.4125 194.265C57.1734 193.55 57.0861 191.356 58.9689 190.903C59.8754 190.694 59.945 191.181 61.026 191.095C61.3692 191.074 61.7057 190.992 62.0196 190.852C63.6932 190.155 64.3381 188.204 66.4475 187.925C67.7375 187.733 67.7897 188.431 69.2368 188.291C70.5933 188.057 71.8326 187.376 72.7581 186.358C62.8564 173.957 49.0146 167.931 44.273 165.858C42.0903 164.877 39.8284 164.082 37.5115 163.481" stroke="#282724" stroke-width="0.1124" stroke-miterlimit="10"/>
<path opacity="0.3" d="M44.273 165.859C40.7793 164.112 36.9648 163.099 33.0644 162.88H33.047C31.9039 162.843 30.7689 163.084 29.7403 163.584L29.7366 163.586C29.5618 163.678 29.3924 163.779 29.2293 163.891C28.8774 164.135 33.6956 181.24 32.0868 193.14C31.855 194.853 31.4814 196.543 30.9698 198.193C32.9121 197.549 32.8464 193.965 34.4766 193.708C35.8013 193.499 36.185 195.798 39.009 196.808C39.6908 197.094 40.4227 197.241 41.162 197.241C41.9012 197.241 42.6331 197.094 43.3149 196.808C44.9012 195.99 45.2848 194.283 45.7032 194.422C47.2817 193.689 49.0236 193.377 50.7588 193.517C53.1644 193.743 54.0187 194.823 55.4132 194.265C57.174 193.551 57.0868 191.356 58.9696 190.903C59.8761 190.694 59.9456 191.181 61.0267 191.095C61.3698 191.074 61.7064 190.992 62.0203 190.852C63.6939 190.155 64.3388 188.204 66.4481 187.925C67.7382 187.733 67.7904 188.431 69.2374 188.291C70.5939 188.057 71.8332 187.376 72.7587 186.358C62.8564 173.957 49.0148 167.931 44.273 165.859Z" fill="#282724"/>
<path opacity="0.3" d="M33.0638 162.88C36.9642 163.099 40.7787 164.112 44.2724 165.859C49.0142 167.932 62.8558 173.958 72.7575 186.358C71.832 187.376 70.5927 188.057 69.2362 188.291C67.7891 188.431 67.7369 187.734 66.4469 187.926C64.3376 188.203 63.6926 190.155 62.019 190.852C61.3361 189.123 60.5622 187.431 59.7005 185.783C53.8306 175.227 44.3865 167.107 33.0638 162.88Z" fill="#282724"/>
<path opacity="0.1" d="M118.537 154.728C115.727 155.205 112.991 156.042 110.395 157.218C106.318 158.999 102.739 161.749 99.9707 165.23C96.6411 169.876 94.4334 175.229 93.5207 180.87C93.4509 181.184 93.3985 181.48 93.3463 181.776C93.2741 182.05 93.2217 182.33 93.1893 182.612C93.1023 183.169 93.0152 183.674 92.9628 184.162C92.9106 184.562 92.8755 184.98 92.8409 185.416C92.8233 185.608 92.806 185.817 92.806 186.008C92.7885 186.269 92.7885 186.548 92.7885 186.827C92.7956 187.665 92.8481 188.502 92.9455 189.335V189.352C92.9977 189.77 93.0501 190.171 93.1023 190.606C93.1371 190.884 93.1893 191.181 93.2244 191.477C94.1633 197.268 94.5369 203.136 94.3399 208.998C95.9613 204.975 99.0642 204.297 101.644 198.043C101.697 197.921 101.749 197.782 101.801 197.66C102.534 196.062 103.033 194.367 103.283 192.627C103.339 192.106 103.35 191.582 103.318 191.059C103.056 186.06 99.5699 183.657 100.79 181.584C101.819 179.808 104.852 180.748 106.717 178.031C107.292 177.195 106.926 177.195 107.728 175.837C109.245 173.242 110.605 173.05 110.953 171.256C111.197 169.915 110.587 169.183 111.11 168.713C111.842 168.086 113.115 169.427 114.51 168.887C115.765 168.399 115.416 167.041 117.055 165.839C117.959 165.227 119.015 164.878 120.106 164.829C121.313 164.546 122.582 164.726 123.662 165.334C125.004 166.327 124.551 167.877 125.527 168.208C126.939 168.695 128.77 165.647 129.92 166.187C130.531 166.465 130.165 167.372 130.775 168.051C132.483 169.932 138.916 166.762 139.753 166.344C143.013 164.741 142.437 164.271 145 163.296C146.638 162.687 147.859 162.495 148.992 162.112C143.552 158.262 137.303 155.706 130.722 154.64C126.682 154.013 122.567 154.043 118.537 154.729V154.728Z" fill="#282724"/>
<path opacity="0.3" d="M99.9707 165.232C96.899 170.016 94.7141 175.314 93.5206 180.872C93.4509 181.185 93.3985 181.481 93.3463 181.778C93.2741 182.052 93.2217 182.331 93.1893 182.613C93.0795 183.125 93.0038 183.643 92.9628 184.164C92.9106 184.564 92.8755 184.982 92.8408 185.418C92.8233 185.61 92.806 185.818 92.806 186.01C92.7884 186.271 92.7884 186.55 92.7884 186.828C92.7875 187.667 92.84 188.505 92.9455 189.336V189.354C92.9976 189.772 93.05 190.173 93.1022 190.608C93.1371 190.886 93.1893 191.183 93.2244 191.479C94.1633 197.269 94.5369 203.137 94.3399 209C95.9613 204.977 99.0642 204.298 101.644 198.045C101.697 197.923 101.749 197.784 101.801 197.662C102.534 196.064 103.033 194.368 103.283 192.628C98.6109 185.801 97.7395 181.638 97.4603 179.008C97.0261 174.273 97.8941 169.51 99.9707 165.232Z" fill="#282724"/>
<path d="M139.613 152.622C117.212 151.054 99.6397 160.877 96.2054 173.922C94.9714 179.299 95.6622 184.938 98.1577 189.859C98.1577 191.444 97.8796 191.949 97.565 192.053C96.7109 192.331 95.3511 189.65 94.4969 189.98C93.8867 190.207 94.2189 191.687 93.3985 192.053C92.8756 192.28 92.562 191.74 91.8122 191.81C90.593 191.914 90.4873 193.394 89.2323 193.883C87.7331 194.475 86.6349 192.82 85.5713 193.395C84.5602 193.935 85.0483 195.66 84.3337 197.801C83.7454 199.49 82.6722 200.968 81.2481 202.051C79.6236 196.891 77.1749 192.027 73.9967 187.647C70.6118 183.096 66.5148 179.121 61.8634 175.873C54.4458 170.348 46.1308 166.142 37.2833 163.438" fill="#FFEECC"/>
<path d="M139.613 152.622C117.212 151.054 99.6396 160.877 96.2054 173.922C94.9714 179.299 95.6622 184.938 98.1577 189.859C98.1577 191.444 97.8796 191.949 97.565 192.053C96.7109 192.331 95.3511 189.65 94.4969 189.98C93.8867 190.207 94.2189 191.687 93.3986 192.053C92.8756 192.28 92.562 191.74 91.8122 191.81C90.593 191.914 90.4873 193.394 89.2323 193.883C87.7331 194.475 86.6349 192.82 85.5713 193.395C84.5602 193.935 85.0483 195.66 84.3337 197.801C83.7454 199.49 82.6722 200.968 81.2481 202.051C79.6236 196.891 77.1749 192.027 73.9967 187.647C70.6118 183.096 66.5148 179.121 61.8634 175.873C54.4458 170.348 46.1308 166.142 37.2833 163.438" stroke="#282724" stroke-width="0.1124" stroke-miterlimit="10"/>
<path opacity="0.1" d="M85.5714 193.395C84.5602 193.935 85.0484 195.66 84.3337 197.801C83.9378 199.005 83.2697 200.102 82.3812 201.006C76.5232 177.336 43.6806 164.012 44.3777 162.967C45.0402 161.975 75.967 169.969 85.5714 193.395Z" fill="#282724"/>
<path opacity="0.1" d="M211.837 21.3166C181.577 18.2952 151.023 20.4748 121.5 27.7608C107.972 31.1047 66.8835 41.7639 49.8166 68.2722C38.0846 86.4901 36.0798 95.2509 36.0798 95.2509C34.5806 101.8 31.9301 117.84 26.6312 125.695C21.628 133.132 18.2286 133.846 15.1779 137.417C14.2692 138.579 13.4587 139.814 12.7548 141.109C8.2048 149.522 13.2602 176.1 11.2728 176.762C9.93059 177.197 3.67237 166.625 2.39963 153.58C2.01807 149.835 2.07658 146.059 2.57396 142.329C3.77675 133.759 7.03666 128.744 10.4711 121.463C13.7141 114.246 16.5087 106.835 18.8389 99.2742C24.0522 85.6368 47.2192 43.2964 93.5904 20.8462C113.01 11.4586 128.63 9.33364 155.616 5.69416C174.304 3.32896 193.147 2.42052 211.976 2.97706C210.93 4.17896 200.767 4.07446 200.767 4.3183C200.767 4.52731 209.257 4.30078 209.431 5.46763C209.535 6.32119 205.003 7.34828 205.142 8.3416C205.282 9.29945 209.535 9.29945 209.535 9.73477C209.535 10.3272 201.865 10.5535 201.795 11.4592C201.795 12.4867 211.157 13.4446 211.157 14.6988C211.122 15.8482 203.068 16.3871 203.068 16.9977C203.103 17.5899 210.546 17.5029 210.581 18.1472C210.581 18.6871 205.613 19.2096 205.613 19.889C205.631 20.5502 210.337 20.8109 211.837 21.3166Z" fill="#282724"/>
<path opacity="0.1" d="M101.797 154.23C102.473 155.184 111.195 147.664 125.935 142.554C148.053 134.886 165.374 139.003 165.462 137.739C165.561 136.325 144.024 128.954 123.412 137.346C110.078 142.775 101.067 153.199 101.797 154.23Z" fill="#282724"/>
</svg>
