<svg width="245" height="186" viewBox="0 0 245 186" fill="none" xmlns="http://www.w3.org/2000/svg">
<path d="M241.965 23.6604C239.927 28.5172 237.975 32.6081 236.129 36.1941C236.115 36.2253 236.098 36.2547 236.076 36.2812C229.577 48.7801 223.984 55.2385 218.566 66.397C211.33 82.0953 205.944 98.5811 202.519 115.522C201.882 120.578 199.956 125.385 196.926 129.483C196.421 130.146 194.713 131.781 191.333 135.071C189.102 137.556 186.476 139.655 183.562 141.286C181.785 142.104 181.297 141.93 172.079 143.149C170.494 143.358 168.159 143.671 163.524 144.332C163.524 144.332 158.227 145.064 153.61 145.76C140.037 147.779 107.803 158.92 97.3657 164.978C96.8432 165.274 95.3099 166.196 92.9577 167.45C90.6228 168.704 87.5039 170.322 83.845 172.011C68.2004 178.962 51.5066 183.263 34.4482 184.736C30.2491 185.259 19.15 186.442 13.5221 181.22C11.7494 179.133 9.80898 177.194 7.72007 175.423C5.03671 173.317 2.77154 172.22 2.21396 169.783C2.01375 168.707 2.12249 167.597 2.52759 166.58C4.63605 160.487 7.73738 139.789 4.82762 126.733C3.18972 119.439 2.37088 115.784 1.60421 114.686C1.03769 114.013 0.611714 113.233 0.351385 112.393C0.0910563 111.553 0.00163674 110.669 0.0883929 109.794C0.106909 109.699 0.136095 109.606 0.175406 109.517C0.242224 109.256 0.341791 109.005 0.47173 108.769C0.760721 108.234 1.13762 107.752 1.58668 107.342C1.75657 106.819 2.0347 106.337 2.403 105.929C2.7713 105.52 3.22152 105.194 3.72439 104.97C4.22727 104.747 4.77155 104.632 5.32185 104.633C5.87216 104.633 6.41618 104.75 6.91855 104.974C6.93586 104.992 6.9534 104.992 6.98824 104.992C7.14496 105.044 7.30167 105.078 7.45859 105.131H7.49344C8.45403 105.45 9.46067 105.609 10.4729 105.601C12.5757 105.334 14.5615 104.483 16.2054 103.146C16.2537 103.111 16.3064 103.081 16.3621 103.059H16.3797C16.5366 102.972 16.6576 102.903 16.8152 102.833C17.0243 102.728 17.216 102.641 17.4251 102.555C18.2842 102.207 19.187 101.979 20.1083 101.876H20.1258C23.4362 101.511 26.7469 102.747 30.7893 103.548H30.8067C31.0506 103.617 31.3119 103.652 31.5733 103.704C31.7997 103.739 32.0264 103.774 32.2703 103.826C32.3398 103.826 32.3922 103.843 32.4627 103.843C32.9331 103.913 33.4212 103.983 33.9088 104.036C33.9612 104.036 33.9961 104.053 34.0484 104.053C35.1063 104.18 36.1722 104.226 37.237 104.192C39.0016 104.173 40.7594 103.968 42.4814 103.583C44.5548 102.96 46.6601 102.449 48.7884 102.051C49.2938 101.964 49.8514 101.912 50.4787 101.859C50.7226 101.841 50.9664 101.824 51.193 101.824C51.5763 101.789 51.9413 101.789 52.2733 101.789C52.674 101.789 53.0573 101.807 53.4064 101.824C56.0725 101.963 57.7625 102.607 60.7071 102.799C66.5615 103.216 67.3455 101.232 75.1514 99.8046C75.8142 99.6827 76.5281 99.5609 77.2947 99.4565C77.3818 99.439 77.4688 99.439 77.556 99.4217C78.0439 99.352 78.4794 99.2824 78.9151 99.2294C79.0021 99.2121 79.1075 99.2121 79.193 99.1946C79.7504 99.1425 80.2558 99.0902 80.7089 99.0729C85.0474 98.7768 85.7444 99.5255 90.8148 98.4462C95.5016 97.419 96.0768 96.4964 102.541 94.5641C102.68 94.5293 102.819 94.477 102.959 94.4424C103.412 94.3029 103.9 94.1464 104.423 94.0071C104.44 94.0071 104.458 93.9898 104.475 93.9898C104.632 93.9375 104.789 93.9027 104.928 93.8678C105.486 93.7113 105.991 93.572 106.461 93.4327C109.176 92.8928 111.854 92.1775 114.476 91.2914C116.556 90.523 118.587 89.6277 120.557 88.6107C121.237 88.2625 121.864 87.9143 122.456 87.5662C123.303 87.0815 124.123 86.5528 124.913 85.9821C133.59 79.454 133.277 64.6051 133.242 57.5375C133.245 54.4371 132.924 51.3448 132.284 48.3112C131.255 43.2627 129.444 37.1006 126.987 23.5397C125.853 17.2205 125.053 12.033 124.565 8.63846C133.573 5.78346 142.575 2.92831 151.572 0.0730331C153.105 8.65929 156.269 16.8729 160.893 24.2702C163.442 28.5895 166.363 32.6784 169.623 36.4905C169.832 36.7342 170.058 36.9605 170.285 37.2042C173.993 41.556 179.099 44.4852 184.73 45.4904C192.64 46.6394 199.61 41.8521 213.514 32.3127C222.47 26.1676 225.85 21.9026 227.052 18.978C227.516 17.9087 227.731 16.748 227.68 15.5837C227.505 11.8583 224.944 10.1349 226.007 7.92395C227.105 5.67837 231.217 4.42495 235.311 4.65136C236.847 4.62803 238.37 4.92574 239.783 5.52534C241.196 6.12494 242.469 7.01319 243.518 8.13307C246.46 11.9264 244.3 18.1067 241.965 23.6604Z" fill="#FFEECC" stroke="#282724" stroke-width="0.1124" stroke-miterlimit="10"/>
<path opacity="0.1" d="M241.965 23.6608C232.818 45.4383 225.552 52.001 218.565 66.3975C211.328 82.0958 205.943 98.5816 202.518 115.523C201.881 120.578 199.955 125.385 196.925 129.484C196.419 130.146 194.712 131.782 191.331 135.072C189.101 137.556 186.475 139.656 183.56 141.286C181.783 142.105 181.295 141.931 172.078 143.149C170.492 143.358 168.158 143.671 163.523 144.333C163.523 144.333 158.226 145.064 153.609 145.76C140.035 147.78 107.801 158.921 97.3643 164.979C96.8418 165.275 95.3084 166.196 92.9562 167.451C90.6213 168.704 87.5025 170.323 83.8436 172.012C68.1989 178.963 51.5051 183.263 34.4468 184.737C30.2476 185.259 19.1486 186.443 13.5206 181.22C11.748 179.133 9.80751 177.195 7.7186 175.424C5.03524 173.317 2.77007 172.221 2.21249 169.783C3.78069 170.323 5.83676 165.205 8.34588 165.518C11.3078 165.884 11.0466 173.404 13.6427 177.13C19.8456 186.042 46.2949 179.184 80.0102 167.224C94.865 161.96 105.6 157.669 113.694 154.229C122.099 150.658 131.257 149.618 141.766 142.964C145.911 140.27 149.823 137.233 153.46 133.886C171.523 117.018 168.747 100.801 183.3 81.3592C196.47 63.7638 210.324 61.5763 226.668 41.8178C226.668 41.8178 232.286 34.9443 238.351 18.9797C239.023 17.2092 241.391 10.8168 239.526 9.50869C239.066 9.27147 238.554 9.15424 238.036 9.16787C237.519 9.1815 237.013 9.32555 236.567 9.58666C235.527 10.2131 235.512 11.2814 234.896 11.3132C234.001 11.3596 233.886 9.11309 232.389 8.55773C230.875 7.99724 229.349 9.6849 228.628 9.05862C228.178 8.6673 228.364 7.65037 228.628 7.05507C229.804 4.40855 234.964 4.63283 235.31 4.65163C236.845 4.63227 238.367 4.93176 239.779 5.53112C241.192 6.13047 242.465 7.01659 243.517 8.13331C246.461 11.9269 244.3 18.1072 241.965 23.6608Z" fill="#282724"/>
<path opacity="0.1" d="M230.161 12.6581C230.363 12.6412 230.445 13.6494 231.11 14.9052C231.998 16.583 232.987 16.9286 233.58 17.8275C234.9 19.8287 233.296 23.1175 232.713 24.3135C225.724 38.6495 208.105 47.9884 208.105 47.9884C196.095 54.5404 183.11 57.9507 182.586 56.7298C182.305 56.0753 185.707 54.3244 193.705 49.446C225.079 30.3073 230.065 22.2669 229.797 16.8475C229.777 16.4412 229.773 12.6906 230.161 12.6581Z" fill="#282724"/>
<path opacity="0.3" d="M241.965 23.6609C240.278 27.6746 238.869 30.9835 237.813 32.8337C236.607 34.9497 235.877 35.8914 230.285 44.0141C228.81 46.1571 227.439 48.1327 227.121 48.624C219.228 60.7922 216.127 69.9661 215.604 69.7397C215.254 69.5885 217.528 61.2925 222.173 51.0785C225.308 44.1836 231.024 33.1146 235.095 25.9765C236.77 23.1388 238.161 20.143 239.248 17.0326C240.08 14.7447 242.085 9.12465 240.503 8.0701C239.666 7.51196 237.563 8.05835 236.363 8.63187C235.916 8.92532 235.41 9.11709 234.881 9.19365C234.004 9.25132 233.738 8.7985 232.389 8.55756C231.795 8.44857 231.189 8.42203 230.587 8.47872C229.891 8.46754 229.207 8.66987 228.629 9.05845C228.112 9.52944 228.145 10.23 228.314 12.6273C228.534 15.7446 228.633 16.7588 228.044 17.8118C227.791 18.2602 227.454 18.656 227.051 18.9781C227.515 17.9088 227.73 16.7481 227.679 15.5838C227.504 11.8583 224.943 10.135 226.006 7.92402C227.104 5.67843 231.216 4.42501 235.31 4.65143C236.846 4.6281 238.369 4.92581 239.782 5.52541C241.195 6.12501 242.467 7.01326 243.517 8.13314C246.461 11.9269 244.3 18.1072 241.965 23.6609Z" fill="#282724"/>
<path opacity="0.17" d="M144.426 27.6979C141.151 26.3377 138.78 23.4686 136.655 24.4208C133.248 25.9461 134.355 34.3735 134.786 43.0549C135.213 51.6695 136.016 67.85 132.302 80.053C126.211 100.06 106.116 110.915 104.23 109.343C103.227 108.507 107.043 103.916 105.033 99.2611C104.002 97.1746 102.259 95.5242 100.119 94.6069C107.248 93.9098 114.182 91.8745 120.556 88.6079C122.075 87.8475 123.532 86.9686 124.912 85.9794C133.589 79.4513 133.276 64.6024 133.241 57.5347C133.189 47.9776 130.924 45.2446 126.986 23.5369C125.853 17.2178 125.052 12.0302 124.564 8.63568C133.572 5.78068 142.574 2.92556 151.571 0.0702829C153.104 8.65655 156.268 16.8702 160.892 24.2674C163.441 28.5867 166.362 32.6757 169.622 36.4878C164.69 35.6714 159.097 33.7913 144.426 27.6979Z" fill="#282724"/>
<path opacity="0.1" d="M8.90341 143.044C7.97981 143.044 9.96619 129.918 3.39729 114.738C2.45659 112.562 1.42844 110.543 0.470208 108.767C0.759198 108.233 1.13609 107.75 1.58516 107.34C1.97657 106.331 2.71892 105.497 3.67609 104.99C5.87156 107.393 8.48522 111.501 9.53047 123.513C10.3844 133.365 9.70471 143.026 8.90341 143.044Z" fill="#282724"/>
<path opacity="0.05" d="M119.483 123.413C121.383 126.714 56.1305 181.339 30.1592 164.287C23.6072 159.986 18.7677 150.605 21.2949 145.894C24.5727 139.782 38.9049 144.018 56.0704 143.85C94.4313 143.473 118.314 121.38 119.483 123.413Z" fill="#282724"/>
<path opacity="0.1" d="M12.7348 115.13C12.7119 115.141 12.686 115.146 12.6627 115.156C12.6815 115.066 12.6986 114.996 12.7192 114.895L12.7016 114.913C11.4644 115.295 8.76371 112.319 6.56845 107.723C6.51714 108.214 6.4592 108.692 6.40447 109.176L6.39378 109.161L6.40383 109.183C6.36577 109.52 6.33242 109.867 6.28966 110.195C6.96008 111.516 7.74274 112.776 8.62902 113.963C10.3504 117.813 11.6922 121.822 12.6353 125.932C14.6042 134.793 13.5936 140.606 14.0464 140.624C14.6562 140.642 15.9278 129.379 13.5761 118.29C13.3514 117.223 13.0706 116.168 12.7348 115.13Z" fill="#282724"/>
<path opacity="0.1" d="M23.1562 114.808C22.6859 114.791 21.222 114.599 17.9811 107.514C17.5107 106.487 17.0925 105.495 16.7092 104.555C16.125 105.591 15.6014 106.661 15.141 107.758C15.4373 107.166 15.7161 106.644 15.9949 106.156C16.3782 107.096 16.7964 108.071 17.2668 109.098C18.0164 110.814 18.8931 112.472 19.8896 114.059C22.0616 125.138 21.1696 133.173 21.7283 133.19C22.2683 133.19 22.9129 125.252 22.9653 118.202C22.9717 117.526 22.9758 116.905 22.9781 116.309C24.5816 115.9 26.1019 113.655 27.9311 110.891C28.9632 109.437 29.8282 107.872 30.5097 106.225C29.9548 107.291 29.3321 108.32 28.6454 109.307C26.606 112.371 24.9681 114.843 23.1562 114.808Z" fill="#282724"/>
<path opacity="0.1" d="M40.5627 113.119C38.315 112.98 36.6596 110.961 35.2832 109.307C34.0335 107.715 33.0454 105.935 32.3559 104.033C32.321 103.963 32.3037 103.893 32.2689 103.824C32.0249 103.771 31.7985 103.737 31.5719 103.702C31.4325 104.05 31.3279 104.346 31.2409 104.59V104.607C31.3177 104.804 31.4071 105.027 31.4932 105.243C31.4569 105.27 31.4111 105.293 31.3801 105.321C32.7597 109.519 33.9056 113.79 34.8126 118.115C36.4435 126.009 36.5536 129.736 37.0081 129.744C37.4184 129.75 38.0102 126.695 38.848 114.499C39.1715 114.609 39.5075 114.678 39.8482 114.703C43.611 114.947 46.4692 109.725 46.8179 109.098C47.0341 108.707 47.2037 108.292 47.3233 107.862C46.5738 109.185 43.9255 113.346 40.5627 113.119Z" fill="#282724"/>
<path opacity="0.1" d="M63.4749 111.657C61.7976 111.653 60.1381 111.313 58.5941 110.658C57.0501 110.004 55.6527 109.047 54.4841 107.845C53.9265 107.218 53.4038 106.452 52.2713 101.787C51.9402 101.787 51.5744 101.787 51.191 101.822C52.585 107.897 53.1599 108.75 53.7698 109.429C54.9404 110.63 56.3378 111.586 57.881 112.244C59.4243 112.901 61.0828 113.246 62.7604 113.259C63.0567 113.259 69.7302 113.206 72.9882 108.315C73.3201 107.804 73.5727 107.247 73.7376 106.661C73.72 106.678 73.7027 106.696 73.7027 106.713C70.4444 111.622 63.771 111.657 63.4749 111.657Z" fill="#282724"/>
<path opacity="0.1" d="M100.065 103.144C99.2131 103.762 98.2573 104.221 97.2431 104.502C94.978 105.199 94.1067 104.45 92.2076 105.146C89.9775 105.965 89.7684 107.079 88.3569 107.392C84.9941 108.175 81.5965 103.667 81.1783 103.127C80.4937 102.205 79.8986 101.22 79.401 100.185C79.2791 99.9588 79.123 99.6455 78.9133 99.2277C78.4776 99.28 78.0421 99.3496 77.5542 99.4199C78.0594 100.586 78.4603 101.352 78.6873 101.77C79.1848 102.804 79.7799 103.79 80.4646 104.711C80.8828 105.251 84.2804 109.76 87.6268 108.994C89.0554 108.663 89.2645 107.566 91.4948 106.748C93.394 106.052 94.2652 106.783 96.5303 106.104C97.54 105.803 98.4934 105.338 99.3525 104.729C100.296 103.963 100.978 102.923 101.304 101.752C100.978 102.287 100.558 102.758 100.065 103.144Z" fill="#282724"/>
<path opacity="0.1" d="M115.05 98.3225C112.819 99.2225 110.332 99.2536 108.08 98.4096C107.278 98.0091 107.087 97.696 104.473 93.9881C104.456 93.9881 104.438 94.0054 104.421 94.0054C103.898 94.1447 103.41 94.3013 102.957 94.4407C103.097 94.633 103.235 94.8235 103.375 95.0324C106.355 99.2617 106.529 99.5932 107.365 100.011C109.62 100.85 112.107 100.812 114.335 99.9068C116.862 99.2104 120.12 98.3225 121.636 95.4852C121.819 95.1457 121.953 94.7825 122.037 94.4059C120.257 96.5107 117.775 97.9016 115.05 98.3225Z" fill="#282724"/>
<path opacity="0.34" d="M13.0675 112.08L13.085 112.063C12.8759 113.09 12.7714 113.542 12.3532 113.665C11.2032 114.03 8.76376 111.454 6.65551 107.363C6.76006 106.563 6.84793 105.727 6.93345 104.891C9.12978 109.486 11.8305 112.463 13.0675 112.08Z" fill="#282724"/>
<path opacity="0.34" d="M29.0103 106.474C29.6969 105.488 30.3197 104.458 30.8748 103.393C30.1931 105.04 29.3281 106.605 28.296 108.058C26.2575 111.139 24.6023 113.594 22.7901 113.559C22.3371 113.542 20.8561 113.35 17.6327 106.265C17.1624 105.238 16.744 104.263 16.3608 103.323C16.0829 103.811 15.8033 104.333 15.5069 104.925C15.9673 103.828 16.4909 102.759 17.0751 101.722C17.4583 102.662 17.8767 103.654 18.347 104.681C21.5879 111.767 23.0505 111.958 23.522 111.975C25.3339 112.01 26.9718 109.538 29.0103 106.474Z" fill="#282724"/>
<path opacity="0.34" d="M47.6889 105.025C47.5692 105.455 47.3996 105.87 47.1836 106.261C46.8349 106.887 43.9767 112.11 40.2139 111.866C37.9662 111.727 36.311 109.725 34.9346 108.054C33.9068 106.779 33.073 105.359 32.4603 103.841C32.9307 103.911 33.4188 103.98 33.9065 104.033C33.9588 104.033 33.9937 104.051 34.0461 104.051C34.499 104.908 35.0362 105.719 35.6495 106.47C37.026 108.124 38.6814 110.144 40.929 110.283C44.2912 110.508 46.9395 106.348 47.6889 105.025Z" fill="#282724"/>
<path opacity="0.34" d="M74.1035 103.824C73.939 104.409 73.6867 104.967 73.3552 105.477C70.0969 110.369 63.4235 110.421 63.1274 110.421C61.4497 110.409 59.7912 110.064 58.2479 109.406C56.7046 108.749 55.3072 107.792 54.1366 106.591C53.6314 106.034 53.1608 105.355 52.2375 101.787H52.2723C52.673 101.787 53.0563 101.804 53.4054 101.822C53.6129 102.988 54.1102 104.083 54.8518 105.007C56.0203 106.209 57.4177 107.166 58.9617 107.821C60.5056 108.475 62.1651 108.815 63.8423 108.82C64.1384 108.82 70.8121 108.785 74.0701 103.876C74.0686 103.858 74.0862 103.841 74.1035 103.824Z" fill="#282724"/>
<path opacity="0.34" d="M101.668 98.9145C101.343 100.085 100.661 101.125 99.7167 101.891C98.8576 102.501 97.9042 102.965 96.8946 103.267C94.6294 103.945 93.7582 103.214 91.859 103.911C89.6287 104.729 89.4198 105.826 87.991 106.156C84.6455 106.922 81.2479 102.414 80.8288 101.874C80.2007 101.033 79.6525 100.136 79.1912 99.193C79.7485 99.1409 80.2539 99.0885 80.707 99.0712C80.9596 99.4948 81.239 99.9018 81.5434 100.29C81.9615 100.829 85.3592 105.338 88.722 104.555C90.1331 104.241 90.3424 103.127 92.5727 102.309C94.4718 101.613 95.3431 102.361 97.6082 101.665C98.6224 101.384 99.5782 100.924 100.43 100.307C100.923 99.9206 101.342 99.4489 101.668 98.9145Z" fill="#282724"/>
<path opacity="0.34" d="M122.402 91.5683C122.319 91.9448 122.184 92.308 122.002 92.6477C120.486 95.4851 117.228 96.3731 114.701 97.0692C112.473 97.9747 109.986 98.012 107.731 97.1736C107.017 96.8255 106.791 96.5294 104.926 93.866C105.484 93.7095 105.989 93.5702 106.459 93.4309C107.592 95.0329 107.853 95.276 108.446 95.5721C110.698 96.416 113.185 96.3849 115.415 95.4849C118.141 95.0641 120.622 93.6731 122.402 91.5683Z" fill="#282724"/>
<path opacity="0.1" d="M46.5043 147.093C45.9696 147.544 45.6121 148.17 45.4952 148.86C45.3468 149.284 45.3061 149.739 45.3768 150.183C45.4474 150.627 45.6273 151.046 45.9001 151.404C46.9691 152.431 49.5229 151.247 51.5065 150.326L51.6036 150.283C51.9585 150.068 52.2364 149.747 52.3976 149.365C52.5589 148.983 52.5952 148.56 52.5015 148.156C52.4108 147.868 52.256 147.603 52.0487 147.383C51.8413 147.163 51.5869 146.992 51.3043 146.884C51.3931 147.06 51.4411 147.254 51.4448 147.451C51.4485 147.648 51.4078 147.844 51.3256 148.023C50.6868 148.974 47.5842 148.178 47.5415 147.498C47.5295 147.306 47.7552 147.02 48.855 146.624C48.4523 146.531 48.0344 146.525 47.6291 146.606C47.2238 146.687 46.8404 146.853 46.5043 147.093Z" fill="#282724"/>
<path opacity="0.49" d="M51.603 150.284C50.8049 149.523 49.8175 148.99 48.7432 148.739C47.669 148.489 46.5473 148.53 45.4946 148.86C45.3462 149.284 45.3055 149.739 45.3762 150.183C45.4469 150.627 45.6267 151.046 45.8996 151.404C46.9685 152.431 49.5223 151.247 51.5059 150.326L51.603 150.284Z" fill="#282724"/>
<path opacity="0.1" d="M54.7201 149.932C54.4013 150.669 53.7653 150.895 48.3468 152.21C46.6561 152.62 45.799 152.818 45.222 152.45C44.0416 151.699 44.0527 149.61 44.3608 148.373C44.5617 147.64 44.9127 146.956 45.3917 146.366C45.8708 145.775 46.4673 145.29 47.1436 144.942C48.1252 144.489 49.22 144.342 50.2864 144.519V144.521L50.2853 144.531L50.2838 144.549C48.6899 145.006 47.2117 145.797 45.9476 146.87C45.4383 147.496 45.1218 148.256 45.0366 149.058C44.937 149.628 44.7219 150.92 45.4416 151.602C45.7195 151.865 46.3 152.184 49.4396 151.359C52.4735 150.561 53.8666 149.75 54.005 149.405C54.4952 148.181 53.4876 146.341 51.6656 144.899C52.6982 145.301 53.5767 146.02 54.1747 146.953C54.4813 147.378 54.6892 147.866 54.7836 148.381C54.8779 148.896 54.8562 149.426 54.7201 149.932Z" fill="#282724"/>
</svg>
