<svg width="29" height="59" viewBox="0 0 29 59" fill="none" xmlns="http://www.w3.org/2000/svg">
<path d="M14.7907 35.2159C14.6317 35.7235 14.4091 36.209 14.128 36.6607C13.3797 37.8269 12.3162 38.7325 11.5148 39.8461C9.77251 42.2482 9.77251 44.7894 9.3022 47.5744C9.12406 48.7466 8.56726 49.8285 7.71664 50.6553C6.78507 51.8228 6.16208 53.2054 5.9049 54.6762C5.55644 56.0512 5.06861 55.9988 3.93625 56.6257C2.97839 57.2467 2.10567 57.9898 1.34017 58.8363C1.37523 58.4706 1.42739 58.0531 1.47976 57.5655C1.51439 57.1479 1.56677 56.6778 1.60162 56.1558C1.96738 51.3518 1.828 44.3022 2.42037 42.5442C2.51165 42.2834 2.58157 42.0156 2.62944 41.7435C2.84699 41.1204 2.82843 40.4392 2.57728 39.8288C2.19398 39.2196 1.32285 39.6549 1.00925 39.1152C0.76533 38.6801 1.18347 38.21 0.852336 37.7227C0.659939 37.445 0.469252 37.5138 0.277496 37.2876C-0.297344 36.6089 0.347184 34.9899 1.07893 33.9985C1.27532 33.7337 1.49729 33.4888 1.74164 33.2674L6.81152 29.2987C7.86673 28.8817 9.00438 28.715 10.135 28.8116C11.2656 28.9083 12.3584 29.2657 13.3274 29.8557C13.7441 30.2214 14.0769 30.6726 14.303 31.1786C14.7885 32.4655 14.9557 33.8505 14.7907 35.2159Z" fill="#F4D58C" stroke="#282724" stroke-width="0.1124" stroke-miterlimit="10"/>
<path opacity="0.3" d="M14.7907 35.2159C14.6317 35.7235 14.4091 36.209 14.128 36.6607C13.3797 37.8269 12.3162 38.7325 11.5148 39.8461C9.77251 42.2482 9.77251 44.7894 9.3022 47.5744C9.12406 48.7466 8.56726 49.8285 7.71664 50.6553C6.78507 51.8228 6.16208 53.2054 5.9049 54.6762C5.55644 56.0512 5.06861 55.9988 3.93625 56.6257C2.97839 57.2467 2.10567 57.9898 1.34017 58.8363C1.37523 58.4706 1.42739 58.0531 1.47976 57.5655C1.51439 57.1479 1.56677 56.6778 1.60162 56.1558C1.96738 51.3518 1.828 44.3022 2.42037 42.5442C2.51165 42.2834 2.58157 42.0156 2.62944 41.7435C2.84699 41.1204 2.82843 40.4392 2.57728 39.8288C2.19398 39.2196 1.32285 39.6549 1.00925 39.1152C0.76533 38.6801 1.18347 38.21 0.852336 37.7227C0.659939 37.445 0.469252 37.5138 0.277496 37.2876C-0.297344 36.6089 0.347184 34.9899 1.07893 33.9985C1.27532 33.7337 1.49729 33.4888 1.74164 33.2674L6.81152 29.2987C7.86673 28.8817 9.00438 28.715 10.135 28.8116C11.2656 28.9083 12.3584 29.2657 13.3274 29.8557C13.7441 30.2214 14.0769 30.6726 14.303 31.1786C14.7885 32.4655 14.9557 33.8505 14.7907 35.2159Z" fill="#282724"/>
<path d="M28.4151 7.88841C28.4005 8.87261 28.1685 9.84144 27.7355 10.7256C27.4838 11.2817 27.2626 11.8511 27.0728 12.4312C26.4101 14.503 26.9158 14.3285 26.0971 17.5144C25.8238 18.9989 25.2803 20.4208 24.4938 21.7095C23.5532 23.0149 23.1 22.8061 22.4379 23.9374C21.4449 25.6259 22.1767 26.6528 21.5493 28.5676C20.9047 30.5517 19.9117 30.1694 18.5179 32.5013C17.2982 34.6834 16.6511 37.1385 16.6367 39.6378C16.867 41.0914 16.8078 42.5761 16.4625 44.0068C16.1222 44.9073 15.6399 45.7476 15.0338 46.4959C12.7167 49.8029 13.6575 52.0137 12.0025 55.1458C11.4206 56.2425 10.6478 57.2269 9.72025 58.0528C9.56334 57.165 9.38911 56.1733 9.18004 55.0589C6.985 43.0312 6.23572 41.012 5.64335 39.7762C5.31703 39.154 5.11585 38.474 5.0512 37.7746C4.77222 34.6762 7.55984 32.1523 7.19386 31.839C7.07201 31.7172 6.74109 32.2219 5.85242 32.5177C4.71942 32.8834 4.07553 32.4308 2.8211 32.7789C2.44295 32.898 2.08033 33.0616 1.7409 33.2663C5.84727 30.4598 9.50643 27.0504 12.5949 23.1533C14.4547 20.7499 16.1264 18.2068 17.5951 15.5467C20.4118 10.6926 22.813 5.6093 24.773 0.351195C24.6858 2.4573 25.1039 3.13605 25.5396 3.34493C25.6169 3.37716 25.6995 3.39491 25.7833 3.39727C26.2016 3.44938 26.5847 3.20504 27.0377 3.44938C27.7173 3.83232 27.4037 4.70266 27.9612 5.5211C28.258 6.2753 28.4118 7.07803 28.4151 7.88841Z" fill="#FFEECC" stroke="#282724" stroke-width="0.1124" stroke-miterlimit="10"/>
</svg>
