<svg width="430" height="352" viewBox="0 0 430 352" fill="none" xmlns="http://www.w3.org/2000/svg">
<path d="M400.065 82.3137C374.354 44.4884 339.876 27.7354 327.273 21.7977C284.882 1.83937 239.857 0.864961 205.745 0.133513C200.324 0.0114978 195.165 -0.0929948 187.896 0.133513C156.765 1.10707 107.854 2.63963 65.1655 34.2129C43.9522 49.8863 24.97 72.4907 16.7078 93.1275C13.7622 100.511 13.797 103.611 6.82472 122.75C1.94393 136.16 -0.47892 141.28 0.0786696 149.587C0.64847 155.673 1.77462 161.695 3.44303 167.576C4.43908 171.2 5.40967 173.963 5.85754 175.195C5.95397 175.345 6.01631 175.515 6.04019 175.692C6.05441 175.886 6.0181 176.081 5.93475 176.258C5.77733 176.629 5.71937 177.035 5.76658 177.436C5.8138 177.836 5.96455 178.218 6.20402 178.542C6.32446 178.631 6.46169 178.694 6.60735 178.728C6.753 178.762 6.90403 178.766 7.05122 178.739C7.46957 178.791 7.85284 178.547 8.30627 178.791C8.98599 179.175 8.67223 180.045 9.22982 180.864C9.89285 181.857 10.8859 181.456 12.2804 182.258C13.797 183.111 13.2914 183.964 15.0694 185.653C16.7602 187.256 17.5445 186.786 18.6252 188.266C19.5143 189.502 19.3225 190.321 20.1767 190.739C21.1518 191.216 22.123 190.277 23.262 190.442C24.3327 190.598 25.663 191.872 26.7839 196.814C26.8971 196.782 27.014 196.765 27.1315 196.764C28.4039 196.764 29.3103 198.575 30.8267 198.157C32.5791 197.678 32.7542 194.885 33.8175 193.939C33.8376 193.921 33.8525 193.892 33.8735 193.874C34.03 193.746 34.2177 193.661 34.4176 193.628C35.7424 193.42 36.1259 195.718 38.9495 196.728C39.6313 197.014 40.3631 197.161 41.1023 197.161C41.8414 197.161 42.5732 197.014 43.255 196.728C44.8413 195.91 45.2246 194.203 45.6432 194.343C46.1659 194.517 45.0505 196.937 45.887 199.602C46.6367 201.936 48.0136 201.692 48.7633 204.13C49.3906 206.237 48.4493 206.707 49.2338 209.145C49.7916 210.904 50.4714 211.218 50.4365 212.489C50.3843 214.108 49.2862 214.335 48.9896 215.833C48.5539 218.131 50.9246 218.741 51.6218 222.276C51.7723 223.594 51.7453 224.926 51.5416 226.237C49.769 227.32 47.9679 228.393 46.1032 229.445C32.701 237.006 23.5128 239.962 23.4876 244.993C23.4568 251.055 36.7312 259.473 95.0616 269.824C101.875 272.281 101.632 273.297 109.475 275.444C135.691 282.671 145.487 273.284 162.098 280.337C164.007 281.147 165.828 282.146 167.536 283.321L170.498 285.58C172.07 286.942 173.572 288.383 174.997 289.898C175.52 290.455 176.061 291.047 176.601 291.657C179.844 295.279 183.382 299.772 187.792 305.397C203.427 325.284 203.079 335.263 215.316 340.244C223.987 343.522 233.558 343.522 242.229 340.244C250.596 336.935 252.147 332.233 257.01 331.275C257.581 331.14 258.166 331.07 258.753 331.066C267.643 330.91 269.683 341.463 282.616 348.795C284.918 350.105 287.348 351.179 289.867 352L289.919 351.948C290.93 351.025 291.994 350.015 293.091 348.9C293.794 348.413 294.528 347.971 295.288 347.577C299.408 345.597 303.833 344.325 308.377 343.816C312.909 343.119 315.419 342.51 320.457 341.29C322.064 341.002 323.54 340.216 324.675 339.044C325.595 337.763 326.236 336.304 326.557 334.76C327.531 332.349 328.865 330.1 330.514 328.09C333.164 324.938 334.227 325.861 335.987 323.109C336.979 321.112 337.841 319.053 338.567 316.945C340.084 313.061 339.996 313.184 340.118 313.009C342.245 309.961 345.435 311.232 350.577 308.045C351.728 307.331 355.51 304.98 355.197 302.56C355.023 301.149 353.593 300.644 353.837 299.825C354.308 298.206 360.06 299.495 361.036 297.422C361.211 297.057 361.176 296.691 360.862 295.942C361.158 295.998 361.464 295.988 361.756 295.913C362.048 295.838 362.32 295.699 362.553 295.507C363.216 294.828 362.64 293.765 362.797 292.598C363.128 289.863 367.346 287.374 369.142 288.314C370.135 288.854 369.682 290.073 370.606 290.613C372.628 291.832 377.543 287.531 380.088 284.796C382.546 282.184 382.11 281.749 384.568 279.433C387.113 277.03 388.438 276.682 388.786 275.044C389.292 272.676 386.886 271.666 387.444 269.315C387.897 267.347 389.693 267.608 391.105 264.839C392.238 262.627 391.872 260.903 392.813 260.642C393.894 260.329 394.852 262.523 395.863 262.245C397.432 261.827 396.961 255.958 397.641 255.888C398.216 255.854 398.913 259.894 399.523 259.842C400.081 259.789 399.61 256.48 400.97 255.801C402.591 254.983 405.241 258.814 406.6 258.135C408.361 257.247 406.199 249.793 406.793 249.637C407.281 249.497 408.972 254.896 409.739 254.739C410.402 254.6 409.546 250.542 411.168 245.422C411.551 244.256 412.266 242.009 413.155 242.027C414.55 242.061 415.491 247.756 415.752 247.756C416.066 247.686 413.765 238.352 415.752 237.464C416.676 237.028 417.896 238.822 418.785 238.352C420.459 237.481 418.018 230.341 419.238 229.853C419.883 229.592 421.034 231.438 421.469 231.195C422.254 230.759 419.204 224.681 420.319 223.951C420.912 223.55 422.306 224.96 422.725 224.578C423.178 224.177 421.661 222.783 421.748 220.902C421.87 218.481 424.537 217.907 424.433 215.886C424.345 214.023 422.01 213.553 422.202 212.038C422.376 210.488 424.868 210.54 425.601 208.468C426.158 206.883 424.938 206.256 425.426 204.532C426 202.505 427.859 202.39 428.651 200.579C429.102 199.548 429.267 197.814 427.57 194.849C428.25 194.276 428.773 193.539 429.087 192.707C429.261 192.273 429.421 191.839 429.568 191.404C429.707 190.693 429.807 189.976 429.868 189.254C429.926 188.565 429.944 187.921 429.936 187.333C429.007 161.163 426.672 121.421 400.065 82.3137ZM64.2244 188.962L64.2083 188.974L64.2511 188.936L64.2244 188.962ZM67.5537 187.952L67.549 187.949L67.5703 187.957L67.5537 187.952ZM72.6958 186.28C69.4135 182.225 65.6233 178.608 61.4182 175.519C61.5399 175.609 61.6833 175.708 61.8015 175.797C66.4524 179.044 70.5488 183.019 73.9333 187.569C77.0205 191.822 79.4184 196.534 81.0389 201.531C81.0834 201.693 81.1444 201.889 81.1846 202.041C79.3554 196.308 76.4771 190.963 72.6958 186.28ZM82.5044 202.507C82.4949 201.92 82.485 201.333 82.4749 200.746C82.6197 200.587 82.7647 200.429 82.904 200.253C82.9283 200.222 82.9497 200.187 82.9741 200.155C83.2033 199.853 83.4121 199.537 83.5991 199.208C83.6459 199.127 83.6908 199.046 83.7353 198.961C83.9508 198.565 84.1298 198.151 84.27 197.722C84.9846 195.58 84.4967 193.856 85.5075 193.316C86.571 192.741 87.669 194.396 89.1681 193.804C90.4232 193.316 90.5276 191.836 91.7478 191.731C92.1169 191.723 92.4824 191.805 92.812 191.971C89.8085 195.285 86.3742 198.839 82.5044 202.507ZM101.735 197.582C101.683 197.704 101.631 197.843 101.579 197.965C101.631 197.843 101.683 197.704 101.735 197.582L101.744 197.561L101.735 197.582ZM108.756 174.203C108.347 174.69 107.98 175.211 107.662 175.761C107.561 175.932 107.479 176.08 107.412 176.211C107.479 176.08 107.561 175.931 107.662 175.761C107.981 175.211 108.347 174.69 108.756 174.203C109.102 173.792 109.425 173.469 109.712 173.171C109.426 173.469 109.103 173.793 108.756 174.203ZM110.86 169.583C110.804 169.174 110.782 168.874 111.043 168.639C110.782 168.874 110.804 169.174 110.861 169.583H110.86ZM183.517 128.292C183.193 128.443 182.907 128.664 182.681 128.941C182.455 129.218 182.295 129.543 182.212 129.891C182.191 130.081 182.215 130.275 182.28 130.455C182.215 130.275 182.191 130.081 182.212 129.89C182.295 129.543 182.455 129.218 182.681 128.941C182.907 128.664 183.193 128.442 183.518 128.292H183.517ZM189.482 120.417C189.495 120.675 189.215 120.925 188.753 121.169C189.216 120.925 189.495 120.675 189.482 120.417H189.482ZM203.183 94.7209C203.229 94.7613 203.267 94.8107 203.294 94.8661C203.321 94.9214 203.336 94.9817 203.34 95.0432C203.329 95.1263 203.298 95.2056 203.251 95.2749C203.204 95.3441 203.141 95.4013 203.068 95.4419C203.141 95.4013 203.204 95.3441 203.251 95.2748C203.298 95.2056 203.329 95.1262 203.34 95.0432C203.336 94.9817 203.321 94.9215 203.294 94.8661C203.267 94.8107 203.229 94.7614 203.183 94.7209H203.183ZM201.816 90.2442C201.883 90.2001 201.939 90.1426 201.983 90.0753C202.026 90.0081 202.055 89.9326 202.067 89.8536C202.119 89.2615 200.899 88.7738 198.72 87.7808C200.899 88.7734 202.12 89.261 202.067 89.8536C202.055 89.9325 202.026 90.008 201.983 90.0752C201.94 90.1425 201.883 90.2 201.816 90.2442H201.816ZM206.355 24.4816C206.265 24.3832 206.196 24.2668 206.154 24.1401C206.112 24.0134 206.097 23.8793 206.111 23.7465C206.13 23.6503 206.169 23.5593 206.226 23.4796C206.169 23.5593 206.13 23.6504 206.111 23.7465C206.098 23.8793 206.112 24.0135 206.154 24.1402C206.196 24.2668 206.265 24.3832 206.355 24.4816H206.355ZM205.421 36.6649C204.984 36.4474 204.703 36.2504 204.734 36.0937C204.704 36.2504 204.985 36.4474 205.422 36.6649H205.421ZM205.762 100.807C205.749 100.944 205.367 101.014 204.75 101.051C205.367 101.014 205.75 100.945 205.763 100.807H205.762ZM204.037 50.2868C204.058 50.0517 204.544 49.8981 205.263 49.784C204.545 49.8974 204.059 50.0517 204.037 50.2868H204.037ZM203.611 45.7511C204.454 45.9128 205.367 46.1143 206.338 46.3684C206.414 46.3879 206.558 46.4252 206.751 46.4772C206.558 46.4252 206.414 46.3879 206.337 46.3684C205.367 46.1137 204.454 45.9128 203.611 45.7511C202.768 45.5893 201.994 45.4664 201.302 45.3664C201.994 45.4664 202.768 45.5893 203.611 45.7519L203.611 45.7511ZM201.549 69.566C201.965 70.0361 202.198 70.4663 202.067 70.8188C202.033 70.9087 201.979 70.9898 201.909 71.0562C201.979 70.9899 202.033 70.9087 202.067 70.8188C202.198 70.4663 201.965 70.0353 201.549 69.566C201.185 69.1736 200.796 68.8053 200.384 68.4634C200.796 68.8052 201.186 69.1735 201.55 69.566H201.549ZM200.568 73.9363C200.568 74.1942 200.255 74.4314 199.748 74.6558C199.1 74.9178 198.434 75.1326 197.755 75.2983C198.434 75.1326 199.1 74.9179 199.748 74.6558C200.255 74.4314 200.568 74.1942 200.568 73.9363C200.559 73.8624 200.535 73.7911 200.497 73.7272C200.459 73.6633 200.408 73.6082 200.347 73.5656C200.408 73.6082 200.459 73.6635 200.498 73.7275C200.536 73.7916 200.56 73.863 200.568 73.9372L200.568 73.9363ZM197.954 44.2706C197.7 44.3929 197.559 44.5115 197.57 44.6269C197.577 44.6965 197.638 44.7551 197.75 44.8059C197.638 44.7547 197.577 44.6965 197.57 44.6269C197.56 44.5125 197.7 44.3929 197.954 44.2706ZM195.376 116.311C194.902 116.585 194.398 116.806 193.875 116.968C194.398 116.805 194.902 116.585 195.376 116.311ZM180.455 153.244C180.335 153.676 180.214 154.171 180.105 154.724C180.214 154.171 180.335 153.676 180.455 153.244ZM161.366 158.835C160.962 158.933 160.548 158.989 160.131 159.001C160.548 158.989 160.962 158.933 161.366 158.835C161.646 158.767 161.92 158.677 162.185 158.565C161.92 158.677 161.646 158.767 161.366 158.835ZM166.962 155.787C166.598 155.883 166.241 156.002 165.892 156.143C166.241 156.002 166.598 155.883 166.962 155.787C167.112 155.746 167.244 155.713 167.366 155.687C167.244 155.712 167.112 155.745 166.962 155.786V155.787Z" fill="#282724"/>
</svg>
