<svg width="1592" height="2326" viewBox="0 0 1592 2326" fill="none" xmlns="http://www.w3.org/2000/svg">
<g clip-path="url(#clip0_2681_480215)">
<path d="M1380.5 753.209C1376.16 760.082 1370.66 766.154 1364.25 771.154C1362.9 772.206 1361.62 773.141 1360.39 774.018C1356.88 776.414 1353.72 778.168 1351.44 779.571C1318.99 799.152 1294.84 832.82 1274.14 877.712C1243.21 944.815 1219.94 1036.94 1188.07 1144.25C1114.21 1392.97 1091.12 1396.42 1086.5 1501.81C1082.35 1596.32 1100.3 1607.72 1091.06 1699.26C1090.94 1700.48 1090.83 1701.77 1090.65 1703.17C1087.64 1729.8 1082.59 1756.16 1075.56 1782.03C1062.35 1832.41 1037.85 1903.78 991.419 1997.54C888.096 2206.45 836.405 2310.9 746.531 2323.82C677.005 2333.87 613.737 2284.19 487.141 2184.88C407.734 2122.57 377.503 2078.26 360.604 2034.54C357.739 2027.06 355.4 2019.99 353.47 2013.09C345.401 1984.45 344.465 1959.25 341.425 1923.54C340.489 1912.78 339.436 1902.03 338.15 1891.27C338.15 1891.04 338.091 1890.86 338.091 1890.63C337.565 1886.13 336.981 1881.63 336.396 1877.13C335.284 1868.59 334.057 1860.12 332.77 1851.58C332.069 1846.67 331.25 1841.71 330.49 1836.8C330.422 1836.25 330.325 1835.7 330.199 1835.16C328.971 1827.15 327.627 1819.09 326.223 1811.08C326.165 1810.9 326.165 1810.73 326.107 1810.55C324.645 1801.9 323.124 1793.31 321.546 1784.72C321.546 1784.6 321.487 1784.42 321.487 1784.31C319.381 1772.32 317.16 1760.28 314.997 1748.3V1748.24C313.008 1737.19 310.962 1726.2 309.032 1715.16C308.038 1709.84 307.161 1704.52 306.226 1699.2C305.524 1695.28 304.881 1691.37 304.237 1687.45C303.068 1680.67 301.957 1673.89 300.905 1667.11C300.614 1665.12 300.261 1663.13 299.91 1661.03C299.735 1659.69 299.501 1658.28 299.209 1656.82C297.922 1648.99 296.285 1640.45 294.063 1630.46C293.653 1628.64 293.245 1626.78 292.776 1624.85C292.707 1624.39 292.61 1623.94 292.486 1623.5C292.135 1622.04 291.784 1620.52 291.375 1618.94C291.024 1617.42 290.614 1615.79 290.205 1614.15C287.749 1604.21 284.709 1592.93 280.966 1579.9C280.206 1577.38 279.446 1574.75 278.627 1572.07L278.452 1571.36C277.692 1568.73 276.873 1566.04 275.996 1563.24C275.891 1562.95 275.812 1562.66 275.762 1562.36C274.476 1558.1 273.13 1553.65 271.669 1549.09C269.622 1542.55 267.401 1535.59 265.06 1528.28C264.3 1525.83 263.481 1523.32 262.664 1520.8C260.149 1513.09 257.459 1504.96 254.536 1496.37C253.425 1493.04 252.255 1489.59 251.085 1486.08C250.735 1485.15 250.442 1484.15 250.091 1483.16C248.922 1479.77 247.753 1476.32 246.525 1472.81C244.536 1466.91 242.431 1460.89 240.207 1454.58C239.33 1452.12 238.453 1449.55 237.52 1446.98C233.719 1436.16 229.684 1424.77 225.415 1412.79C224.422 1410.1 223.428 1407.29 222.433 1404.48C217.346 1390.46 211.966 1375.61 206.178 1359.89V1359.83C193.664 1325.69 179.338 1287.52 163.083 1244.62C20.9861 870.348 7.42183 880.05 2.27659 799.152C0.893936 777.885 0.581754 756.562 1.34123 735.264C6.01878 595.213 56.3644 487.251 112.38 367.308C151.733 283.078 188.513 232.867 227.398 234.271C249.852 235.089 264.587 252.917 277.919 266.419C372.475 362.456 574.326 424.123 694.957 389.811C713.844 384.434 762.143 367.775 787.872 390.455C802.841 403.606 799.45 420.732 815.647 429.734C831.551 438.619 857.339 434.586 875.875 421.96L875.933 421.902C881.191 418.355 885.833 413.971 889.675 408.926C914.468 375.783 873.771 342.991 882.716 274.837C889.851 220.125 924.058 179.909 961.365 136.07C990.602 101.701 1005.16 84.5155 1026.15 73.6437C1057.15 57.511 1083.81 58.621 1112.23 63.8819C1133.63 67.802 1156.02 74.1113 1182.05 77.1508C1182.31 77.2145 1182.59 77.2536 1182.86 77.2677C1212.47 80.6989 1242.46 78.6781 1271.33 71.3055C1283.13 67.7602 1295.17 65.0647 1307.36 63.2395C1312.5 62.6271 1317.72 62.9838 1322.73 64.2914C1323.49 64.5817 1324.31 64.8177 1325.07 65.1683C1325.84 65.4591 1326.58 65.8109 1327.29 66.2202C1328.79 67.0042 1330.21 67.9447 1331.51 69.026C1340.45 76.4495 1345.19 90.9453 1345.13 106.669C1345.34 122.937 1340 138.791 1329.99 151.619C1315.37 168.979 1292.91 172.954 1270.17 174.064C1237.31 175.76 1203.86 171.493 1192.16 192.945C1185.15 205.804 1189.24 221.937 1194.03 233.569C1196.13 238.568 1198.57 243.412 1201.34 248.065C1202.1 249.293 1202.81 250.52 1203.57 251.63C1223.51 281.499 1254.67 281.792 1279.47 298.568C1306.95 317.214 1310.46 345.33 1311.57 385.486C1312.27 409.101 1312.09 436.865 1315.49 469.306C1318.19 495.419 1323.04 521.264 1329.99 546.581C1358.46 650.626 1410.62 704.927 1380.5 753.209Z" fill="#F4D58C" stroke="#282724" stroke-miterlimit="10"/>
<path opacity="0.1" d="M1380.5 753.207C1376.16 760.081 1370.66 766.152 1364.25 771.152C1362.9 772.204 1361.62 773.139 1360.39 774.016C1356.88 776.412 1353.72 778.166 1351.44 779.569C1318.99 799.151 1294.84 832.819 1274.14 877.711C1243.21 944.814 1219.94 1036.93 1188.07 1144.25C1114.21 1392.97 1091.12 1396.42 1086.5 1501.8C1082.35 1596.32 1100.3 1607.72 1091.06 1699.26C1090.94 1700.48 1090.83 1701.77 1090.65 1703.17C1087.64 1729.8 1082.59 1756.16 1075.56 1782.02C1062.35 1832.41 1037.85 1903.78 991.42 1997.54C888.096 2206.45 836.406 2310.9 746.532 2323.82C677.006 2333.87 613.737 2284.19 487.142 2184.88C407.734 2122.57 377.503 2078.26 360.604 2034.54C357.739 2027.06 355.4 2019.98 353.471 2013.09C345.401 1984.44 344.466 1959.25 341.425 1923.54C340.49 1912.78 339.437 1901.97 338.15 1891.27C338.15 1891.04 338.092 1890.86 338.092 1890.63C337.566 1886.13 336.981 1881.63 336.396 1877.13C335.285 1868.59 334.057 1860.12 332.771 1851.58C332.069 1846.67 331.251 1841.7 330.49 1836.79C330.422 1836.24 330.325 1835.7 330.2 1835.16C328.914 1827.09 327.569 1819.08 326.224 1811.08C326.166 1810.9 326.166 1810.72 326.107 1810.55C324.645 1801.9 323.124 1793.31 321.546 1784.71C321.546 1784.6 321.487 1784.42 321.487 1784.3C319.381 1772.32 317.161 1760.28 314.997 1748.3V1748.24C313.009 1737.19 310.962 1726.2 309.033 1715.16C308.039 1709.84 307.161 1704.52 306.226 1699.2C305.524 1695.28 304.881 1691.37 304.238 1687.45C303.068 1680.67 301.958 1673.89 300.905 1667.11C300.615 1665.12 300.262 1663.13 299.911 1661.03C299.735 1659.68 299.501 1658.28 299.209 1656.82C297.922 1648.99 296.286 1640.45 294.063 1630.46C293.654 1628.64 293.245 1626.77 292.776 1624.84C292.708 1624.39 292.611 1623.94 292.486 1623.5C292.135 1622.04 291.784 1620.52 291.375 1618.94C291.024 1617.42 290.615 1615.78 290.206 1614.15C287.75 1604.21 284.709 1592.93 280.967 1579.9C280.206 1577.38 279.446 1574.75 278.628 1572.06L278.453 1571.36C277.633 1568.73 276.815 1565.98 275.997 1563.24C275.891 1562.95 275.813 1562.66 275.763 1562.36C274.418 1558.09 273.076 1553.65 271.669 1549.09C269.623 1542.55 267.401 1535.59 265.06 1528.28C264.3 1525.83 263.482 1523.31 262.664 1520.8C260.149 1513.08 257.459 1504.96 254.536 1496.37C253.425 1493.04 252.255 1489.59 251.086 1486.08C250.735 1485.15 250.442 1484.15 250.092 1483.16C248.922 1479.77 247.753 1476.32 246.525 1472.81C244.537 1466.91 242.432 1460.89 240.207 1454.57C239.331 1452.06 238.453 1449.55 237.52 1446.98C233.719 1436.16 229.684 1424.76 225.416 1412.78C224.422 1410.1 223.428 1407.29 222.434 1404.48C217.347 1390.45 211.967 1375.61 206.178 1359.88V1359.83C186.94 1311.72 172.554 1271.8 163.083 1244.62C154.368 1219.66 123.496 1130.05 86.5398 982.226C86.5485 982.144 86.528 982.061 86.4817 981.992C83.0315 967.963 79.4643 953.409 75.8978 938.27C68.4125 907.054 60.8114 873.639 53.0947 838.024C51.1658 829.082 49.2363 820.021 47.306 810.844C41.985 785.71 39.3539 773.142 38.4767 766.888C32.9799 727.374 27.1913 641.917 135.251 412.785C183.667 310.143 203.899 286.878 226.236 286.995C250.269 287.112 259.917 314.175 286.23 343.111C378.268 444.175 592.224 477.784 692.155 417.696C705.545 409.63 739.928 386.014 766.302 398.29C786.066 407.467 784.136 428.802 803.959 438.212C824.016 447.682 853.896 438.914 875.882 421.963L875.94 421.905C880.947 418.053 885.551 413.706 889.682 408.928C927.982 364.388 887.401 315.755 916.407 276.183C960.32 216.211 1092.01 274.839 1121.47 224.92C1147.61 180.731 1061.89 105.152 1088.03 72.185C1091.02 68.8502 1094.81 66.3363 1099.04 64.8831C1103.28 63.4299 1107.82 63.0858 1112.23 63.8838C1129.48 64.9357 1153.1 73.0024 1182.04 77.1527C1182.31 77.2163 1182.59 77.2554 1182.86 77.2695C1212.43 81.9262 1242.66 79.8887 1271.33 71.3073C1282.47 67.2846 1293.99 64.4247 1305.72 62.7731C1311.43 62.1149 1317.22 62.6322 1322.73 64.2932C1323.49 64.5836 1324.31 64.8195 1325.07 65.1702C1325.84 65.461 1326.58 65.8127 1327.29 66.2221C1328.79 67.006 1330.2 67.9465 1331.51 69.0279C1340.45 76.4514 1345.19 90.9471 1345.13 106.671C1345.34 122.939 1340 138.792 1329.99 151.62C1315.37 168.981 1292.91 172.956 1270.17 174.066C1237.3 175.762 1203.86 171.495 1192.16 192.946C1185.15 205.806 1189.24 221.939 1194.03 233.571C1196.12 238.569 1198.57 243.413 1201.34 248.067C1202.1 249.294 1202.8 250.522 1203.56 251.632C1223.5 281.501 1254.67 281.794 1279.46 298.57C1306.95 317.216 1310.45 345.332 1311.57 385.488C1312.27 409.103 1312.09 436.867 1315.48 469.308C1318.19 495.421 1323.04 521.266 1329.99 546.583C1358.46 650.624 1410.62 704.926 1380.5 753.207Z" fill="#282724"/>
<path opacity="0.1" d="M1264.32 474.132C1249.85 475.964 1131.18 492.907 1078.14 593.812C1062.25 624.568 1054.08 658.726 1054.34 693.34C1090.57 647.448 1109.71 640.663 1120.61 644.518C1165.25 660.313 1134.93 877.281 1064.04 1051.74C1024.64 1148.7 998.111 1211.54 945.117 1222.92C873.54 1238.29 832.51 1142.84 702.521 1056.49C570.253 968.628 342.33 887.827 237.67 978.319C224.163 989.999 157.842 1051.97 183.705 1229.48C145.663 1132.64 107.62 1035.8 69.5762 938.957L319.445 911.709L643.518 776.984L1006.96 453.029L1264.32 474.132Z" fill="#282724"/>
<path opacity="0.1" d="M1256.12 464.536C1235.73 470.224 1047.75 525.436 1015.4 669.427C1010.72 690.533 1009.51 712.26 1011.82 733.754C973.894 793.977 932.956 822.488 902.19 837.391C876.246 849.956 861.568 850.893 792.556 870.745C729.832 888.79 692.45 902.261 674.37 907.986C497.413 964.054 232.792 892.139 157.397 988.673C131.57 1021.74 118.294 1086.94 183.705 1229.48L69.5762 938.951L319.445 911.702L643.518 776.984L1006.96 453.029L1256.12 464.536Z" fill="#282724"/>
<path opacity="0.1" d="M1375.77 721.704C1375.48 734.916 1375.24 742.688 1370.56 745.201C1368.46 746.162 1366.09 746.389 1363.84 745.844C1334.6 740.935 1251.57 660.563 1235.61 562.013C1226.99 501.56 1240.08 440.01 1272.56 388.293C1281.8 374.44 1290.34 366.842 1295.07 367.835C1309.16 370.816 1283.03 449.084 1319.63 552.778C1348.05 633.208 1351.73 640.514 1351.73 640.514C1361.56 660.154 1376.7 686.169 1375.77 721.704Z" fill="#282724"/>
<path opacity="0.3" d="M1364.19 736.141C1364.07 739.765 1364.01 743.038 1363.84 745.844C1334.6 740.935 1251.57 660.563 1235.61 562.012C1226.99 501.56 1240.08 440.01 1272.56 388.293C1277.06 383.85 1280.86 381.747 1283.5 382.331C1297.53 385.312 1271.39 463.579 1308 567.215C1336.41 647.645 1340.1 654.952 1340.1 654.952C1349.98 674.591 1365.13 700.602 1364.19 736.141Z" fill="#282724"/>
<path opacity="0.1" d="M1345.1 106.665C1345.31 122.933 1339.97 138.786 1329.96 151.615C1315.34 168.975 1292.89 172.95 1270.14 174.06C1237.28 175.755 1203.83 171.489 1192.14 192.941C1185.12 205.8 1189.21 221.933 1194.01 233.565C1196.1 238.563 1198.54 243.408 1201.32 248.061C1202.08 249.289 1202.78 250.516 1203.54 251.626C1196.62 248.535 1190.01 244.817 1183.77 240.519C1172.45 232.832 1162.63 223.122 1154.83 211.878C1151.2 206.617 1121.15 162.193 1137.52 137.585C1155.76 110.112 1214.76 133.435 1300.49 100.117C1320.25 92.4593 1331.95 85.4452 1331.48 78.4892C1331.07 71.7095 1319.26 66.6824 1307.33 63.2334C1306.74 63.0584 1306.22 62.8827 1305.69 62.7659C1311.41 62.1077 1317.2 62.625 1322.71 64.286C1323.47 64.5764 1324.29 64.8116 1325.05 65.163C1325.81 65.4538 1326.56 65.8055 1327.27 66.2149C1328.77 66.999 1330.18 67.9395 1331.48 69.0206C1340.43 76.4435 1345.16 90.9414 1345.1 106.665Z" fill="#282724"/>
<path opacity="0.1" d="M957.856 2002.39C993.35 1948.67 1048.96 1864.39 1075.56 1782.02C1062.35 1832.41 1037.85 1903.78 991.42 1997.54C888.097 2206.45 836.406 2310.9 746.532 2323.82C677.006 2333.87 613.737 2284.19 487.142 2184.88C407.734 2122.57 377.503 2078.26 360.604 2034.54C357.739 2027.06 355.4 2019.98 353.471 2013.09C471.354 2168.63 630.522 2253.85 756.647 2215.97C831.786 2193.41 873.829 2129.7 957.856 2002.39Z" fill="#282724"/>
<path opacity="0.1" d="M1075.56 1782.02C1082.59 1756.16 1087.64 1729.8 1090.65 1703.17C1089.34 1730.03 1084.26 1756.57 1075.56 1782.02Z" fill="#282724"/>
<path opacity="0.1" d="M1364.25 771.154C1362.9 772.205 1361.62 773.14 1360.39 774.017C1356.88 776.413 1353.72 778.168 1351.44 779.57C1318.99 799.152 1294.84 832.82 1274.14 877.712C1243.21 944.815 1219.94 1036.94 1188.07 1144.25C1114.22 1392.97 1091.12 1396.42 1086.5 1501.81C1082.35 1596.32 1100.3 1607.72 1091.06 1699.26C1090.94 1700.48 1090.83 1701.77 1090.65 1703.17C1092.14 1676.93 1086.57 1650.77 1074.51 1627.42C1060.01 1600.65 1036.5 1580.95 1031.47 1538.1C1024.93 1482.98 1060.19 1440.9 1067.38 1418.04C1119.71 1251.1 1179.82 1092.35 1231.69 932.072C1263.27 834.577 1267.42 811.836 1267.59 783.019C1267.94 717.845 1272.8 713.691 1275.9 712.584C1283.67 709.778 1299.52 726.495 1328.11 756.54C1334.89 764.727 1344.44 770.136 1354.95 771.738C1358.06 772.013 1361.2 771.816 1364.25 771.154Z" fill="#282724"/>
<path d="M1535.79 249.113C1522.98 307.215 1534.97 313.996 1519 347.196C1510.17 365.55 1484.68 408.804 1398.43 445.279C1371.91 456.784 1344.02 464.857 1315.46 469.303C1310.66 470.063 1305.87 470.706 1301.19 471.173C1288.85 472.634 1276.69 473.453 1264.23 474.154C1255.64 474.622 1246.98 475.031 1237.98 475.499C1217.04 476.609 1194.53 478.071 1168.57 481.695C1155.06 483.623 970.344 508.875 840.59 633.027C727.619 741.106 756.446 828.199 648.621 884.898C610.613 904.888 597.69 898.985 430.514 916.053C159.663 943.701 131.888 965.444 120.018 988.358C96.2775 1034.18 140.016 1077.2 176.211 1201.88C178.898 1211.12 181.357 1220.18 183.638 1229.18C183.638 1229.24 183.696 1229.24 183.696 1229.3C187.497 1244.32 190.771 1259.05 193.578 1273.37C199.231 1301.95 203.427 1330.81 206.15 1359.82C193.636 1325.68 179.311 1287.52 163.055 1244.61C20.9631 870.34 7.39739 880.046 2.2507 799.149C0.868776 777.882 0.556594 756.559 1.31533 735.26C3.45777 755.636 9.36774 775.436 18.7445 793.654C28.0373 809.985 39.5929 824.921 53.0684 838.019C68.6419 853.609 86.5314 866.701 106.104 876.832C242.933 946.915 455.017 816.45 523.783 773.137C680.022 674.762 657.392 639.516 874.213 453.696C1050.51 302.656 1096.94 298.915 1183.77 240.521C1187.11 238.3 1190.5 235.961 1194.01 233.565C1215.82 218.367 1240.38 199.487 1270.14 174.06C1283.36 162.838 1297.56 150.27 1313 136.183C1323.53 126.539 1334.28 116.602 1345.1 106.665C1364.81 88.4864 1384.81 70.308 1404.63 54.2921C1445.79 20.9747 1486.14 -3.0476 1520.99 1.45328C1526.06 2.1383 1531.03 3.43385 1535.79 5.31169C1564.44 16.7091 1583.27 49.2671 1589.06 75.3954C1600.98 128.819 1557.54 150.914 1535.79 249.113Z" fill="#F4D58C" stroke="#282724" stroke-miterlimit="10"/>
<path opacity="0.1" d="M1535.79 249.112C1522.98 307.213 1534.97 313.994 1519.01 347.195C1510.18 365.549 1484.68 408.803 1398.43 445.278C1371.91 456.783 1344.03 464.856 1315.46 469.301C1269.38 476.374 1227.98 473.335 1168.57 481.693C1155.06 483.622 970.346 508.874 840.592 633.026C727.622 741.104 756.449 828.198 648.623 884.896C610.615 904.887 597.693 898.983 430.516 916.052C159.665 943.7 131.891 965.443 120.021 988.356C96.2798 1034.18 140.018 1077.2 176.214 1201.88C183.403 1226.55 189.078 1250.46 193.58 1273.37C175.98 1227.78 155.339 1173.24 131.13 1109.53C94.8768 1014.02 91.2515 1000.87 98.3263 982.687C144.17 864.262 466.829 984.557 670.375 798.562C741.012 734.031 709.553 712.813 799.72 624.023C932.63 493.209 1100.57 441.304 1173.13 419.676C1332.83 372.037 1455.38 375.193 1490.82 292.308C1499.36 272.376 1495.67 264.251 1512.69 216.73C1544.91 127.122 1574.32 110.639 1569.29 71.3005C1565.08 38.3919 1540.17 16.7093 1520.99 1.44983C1526.06 2.13485 1531.03 3.4304 1535.79 5.30824C1564.44 16.7056 1583.27 49.2637 1589.06 75.392C1600.99 128.817 1557.54 150.912 1535.79 249.112Z" fill="#282724"/>
<path opacity="0.08" d="M324.118 1506.89C312.313 1530.77 296.977 1552.75 278.625 1572.06C271.901 1549.21 263.011 1521.27 251.084 1486.08C271.645 1472.09 290.52 1455.77 307.335 1437.45C330.607 1412.02 341.717 1391.68 348.032 1394.31C358.149 1398.58 348.209 1457.91 324.118 1506.89Z" fill="#282724"/>
<path opacity="0.08" d="M358.149 1728.84C347.769 1748.48 335.489 1767.06 321.486 1784.31C319.38 1772.33 317.159 1760.28 314.996 1748.3V1748.24C321.369 1741.64 328.269 1734.21 335.403 1726.03C361.833 1695.69 374.873 1674.65 377.971 1676.4C381.305 1678.28 370.37 1705.63 358.149 1728.84Z" fill="#282724"/>
<path opacity="0.08" d="M330.49 1836.79C334.142 1835.62 337.683 1834.14 341.074 1832.35C371.598 1816.33 379.257 1782.67 383.643 1784.13C387.619 1785.47 386.039 1814.23 372.299 1843.69C363.956 1861.35 352.351 1877.27 338.094 1890.63L330.49 1836.79Z" fill="#282724"/>
<path opacity="0.3" d="M1360.39 774.017C1356.88 776.413 1353.72 778.167 1351.44 779.57C1318.99 799.152 1294.84 832.82 1274.14 877.712C1280.28 853.938 1283.67 829.541 1284.26 804.997C1285.25 767.587 1279.93 739.355 1290.4 735.322C1303.73 730.119 1320.63 773.316 1355.71 774.193C1357.27 774.252 1358.84 774.193 1360.39 774.017Z" fill="#282724"/>
</g>
<defs>
<clipPath id="clip0_2681_480215">
<rect width="1592" height="2326" fill="white"/>
</clipPath>
</defs>
</svg>
