<svg width="38" height="53" viewBox="0 0 38 53" fill="none" xmlns="http://www.w3.org/2000/svg">
<path d="M37.3345 37.3382C35.3796 38.8118 33.1808 39.9307 30.8383 40.644C29.4308 40.6732 28.0301 40.8482 26.6587 41.166C26.2278 41.4198 25.7294 41.5352 25.2307 41.4967C24.5759 41.2137 23.8838 41.0261 23.1756 40.9399H23.1408C22.5747 41.014 22.0229 41.1723 21.5037 41.4096C21.4864 41.4271 21.4515 41.4271 21.434 41.4444C21.2599 41.5315 21.1032 41.6184 20.9464 41.7055C20.9291 41.7228 20.9291 41.7403 20.9116 41.7403C20.494 42.0097 20.1033 42.3184 19.7448 42.6624C18.1396 44.1848 16.644 45.8186 15.2691 47.5514V47.5687C14.2342 48.8578 13.0797 50.0463 11.821 51.1183C11.01 51.7872 10.1482 52.3922 9.24344 52.9278C8.66585 52.2722 8.21158 51.5177 7.90252 50.7007C7.85017 50.582 7.78115 50.4159 7.7102 50.2135C7.52247 49.6685 7.40563 49.1016 7.36254 48.5269C7.30099 47.731 7.44801 47.839 7.44929 46.6071C7.47254 46.0319 7.43154 45.4559 7.32706 44.8898C7.30761 44.8027 7.23389 44.3819 7.10076 43.9154C7.06352 43.7956 7.0344 43.6735 7.01358 43.5499C6.94392 43.3063 6.85695 43.0281 6.75245 42.6974C6.7001 42.5407 6.64796 42.3669 6.57829 42.1754C6.52587 41.984 6.4562 41.7752 6.3693 41.549C5.51582 39.1478 6.64709 38.6608 6.12548 36.0509C5.42885 32.5188 3.06031 31.9091 3.4956 29.6131C3.79177 28.1168 4.88907 27.8907 4.94121 26.2724C4.97604 25.0023 4.29694 24.6891 3.73963 22.9318C2.95582 20.4958 3.89627 20.0262 3.26951 17.9209C2.5216 15.4849 1.14479 15.7285 0.396023 13.3969C-0.439932 10.7349 0.673818 8.31575 0.1522 8.14239C1.72916 7.40977 3.46927 7.09803 5.20277 7.23759C7.60593 7.46389 8.45941 8.54248 9.85245 7.98483C11.6115 7.27155 11.5244 5.07915 13.4053 4.62676C14.3109 4.41796 14.3803 4.90431 15.4603 4.81891C15.8031 4.79775 16.1393 4.71524 16.4529 4.57532C17.3075 4.10829 18.074 3.49592 18.718 2.76573C18.7353 2.74844 18.7526 2.74844 18.7526 2.73094C19.3254 2.15118 20.071 1.77265 20.8774 1.65214C21.1083 1.62158 21.3418 1.61578 21.574 1.63484C21.723 1.65093 21.8692 1.68603 22.0093 1.73925C22.0225 1.74104 22.0348 1.74711 22.0443 1.75653C22.1488 1.79133 22.2531 1.82614 22.3751 1.86094C22.7852 2.01844 23.2279 2.07226 23.6639 2.01764C25.019 1.78327 26.2571 1.10359 27.1816 0.0863744C30.9597 4.76558 33.8355 10.1048 35.663 15.8327V15.7631C36.1307 15.3866 36.5621 14.9671 36.9516 14.5103C37.0734 22.1137 37.201 29.723 37.3345 37.3382Z" fill="#F4D58C" stroke="#282724" stroke-width="0.1124" stroke-miterlimit="10"/>
<path opacity="0.41" d="M37.3345 37.3382C35.3796 38.8118 33.1808 39.9307 30.8383 40.644C29.4308 40.6732 28.0301 40.8482 26.6587 41.166C26.2278 41.4198 25.7294 41.5352 25.2307 41.4967C24.5759 41.2137 23.8838 41.0261 23.1756 40.9399H23.1408C22.5747 41.014 22.0229 41.1723 21.5037 41.4096C21.4864 41.4271 21.4515 41.4271 21.434 41.4444C21.2599 41.5315 21.1032 41.6184 20.9464 41.7055C20.9291 41.7228 20.9291 41.7403 20.9116 41.7403C20.494 42.0097 20.1033 42.3184 19.7448 42.6624C18.1396 44.1848 16.644 45.8186 15.2691 47.5514V47.5687C14.2342 48.8578 13.0797 50.0463 11.821 51.1183C11.01 51.7872 10.1482 52.3922 9.24344 52.9278C8.66585 52.2722 8.21158 51.5177 7.90252 50.7007C7.85017 50.582 7.78115 50.4159 7.7102 50.2135C7.52247 49.6685 7.40563 49.1016 7.36254 48.5269C7.30099 47.731 7.44801 47.839 7.44929 46.6071C7.47254 46.0319 7.43154 45.4559 7.32706 44.8898C7.30761 44.8027 7.23389 44.3819 7.10076 43.9154C7.06352 43.7956 7.0344 43.6735 7.01358 43.5499C6.94392 43.3063 6.85695 43.0281 6.75245 42.6974C6.7001 42.5407 6.64796 42.3669 6.57829 42.1754C6.52587 41.984 6.4562 41.7752 6.3693 41.549C5.51582 39.1478 6.64709 38.6608 6.12548 36.0509C5.42885 32.5188 3.06031 31.9091 3.4956 29.6131C3.79177 28.1168 4.88907 27.8907 4.94121 26.2724C4.97604 25.0023 4.29694 24.6891 3.73963 22.9318C2.95582 20.4958 3.89627 20.0262 3.26951 17.9209C2.5216 15.4849 1.14479 15.7285 0.396023 13.3969C-0.439932 10.7349 0.673818 8.31575 0.1522 8.14239C1.72916 7.40977 3.46927 7.09803 5.20277 7.23759C7.60593 7.46389 8.45941 8.54248 9.85245 7.98483C11.6115 7.27155 11.5244 5.07915 13.4053 4.62676C14.3109 4.41796 14.3803 4.90431 15.4603 4.81891C15.8031 4.79775 16.1393 4.71524 16.4529 4.57532C17.3075 4.10829 18.074 3.49592 18.718 2.76573C18.7353 2.74844 18.7526 2.74844 18.7526 2.73094C19.3254 2.15118 20.071 1.77265 20.8774 1.65214C21.1083 1.62158 21.3418 1.61578 21.574 1.63484C21.723 1.65093 21.8692 1.68603 22.0093 1.73925C22.0225 1.74104 22.0348 1.74711 22.0443 1.75653C22.1488 1.79133 22.2531 1.82614 22.3751 1.86094C22.7852 2.01844 23.2279 2.07226 23.6639 2.01764C25.019 1.78327 26.2571 1.10359 27.1816 0.0863744C30.9597 4.76558 33.8355 10.1048 35.663 15.8327V15.7631C36.1307 15.3866 36.5621 14.9671 36.9516 14.5103C37.0734 22.1137 37.201 29.723 37.3345 37.3382Z" fill="#282724"/>
<path opacity="0.3" d="M37.3344 37.3383C35.3795 38.8118 33.1807 39.9307 30.8382 40.644C29.4307 40.6732 28.03 40.8482 26.6587 41.166C26.2278 41.4198 25.7293 41.5352 25.2306 41.4967C24.5758 41.2137 23.8837 41.0261 23.1755 40.9399H23.1407C22.5746 41.014 22.0228 41.1723 21.5036 41.4096C21.4863 41.4271 21.4515 41.4271 21.4339 41.4444C21.2476 41.4771 21.0767 41.5686 20.9463 41.7055C20.929 41.7228 20.929 41.7403 20.9115 41.7403C20.4939 42.0097 20.1032 42.3184 19.7447 42.6624C18.1395 44.1848 16.6439 45.8186 15.269 47.5514C17.3208 41.4598 18.5567 35.1236 18.9444 28.7079C19.4555 20.5815 18.614 12.4266 16.4541 4.57532C17.1672 3.92153 17.924 3.31694 18.7192 2.76573C18.7365 2.74844 18.7538 2.74844 18.7538 2.73094C19.3834 2.23397 20.1056 1.86723 20.8786 1.65214C21.1095 1.62158 21.343 1.61578 21.5752 1.63484H21.6254C21.7574 1.65094 21.8864 1.68612 22.0083 1.73925C22.0216 1.74104 22.0339 1.74711 22.0434 1.75654C22.1479 1.79133 22.2522 1.82614 22.3742 1.86094C22.7843 2.01844 23.227 2.07226 23.6629 2.01764C25.0181 1.78327 26.2561 1.10359 27.1807 0.0863744C30.9587 4.76558 33.8346 10.1048 35.6621 15.8327V15.7631C36.1298 15.3866 36.5612 14.9671 36.9506 14.5103C37.073 22.1137 37.2009 29.723 37.3344 37.3383Z" fill="#282724"/>
</svg>
