<svg width="81" height="116" viewBox="0 0 81 116" fill="none" xmlns="http://www.w3.org/2000/svg">
<path d="M80.7883 64.1445C80.7688 64.8352 80.4964 65.4947 80.0228 65.9978C79.5293 66.4611 78.9552 66.5618 78.6732 67.2064C78.5121 67.5992 78.6732 67.72 78.5423 68.0121C78.1898 68.838 76.6589 68.2639 75.0574 69.0193C73.6273 69.674 73.7683 70.6308 72.0359 71.4365C71.3798 71.6703 70.7062 71.8522 70.0216 71.9804C67.3324 72.9372 67.1612 75.0019 64.6432 75.8782C63.4548 76.3113 63.5051 75.8782 62.0447 76.2508C59.6577 76.9156 59.3052 78.1846 57.2203 79.4033C55.1355 80.622 53.1916 80.7126 49.6162 80.8939C48.1567 81.096 46.6727 81.0346 45.2349 80.7126C44.6252 80.4491 43.9652 80.3219 43.3011 80.34C42.4876 80.4317 41.711 80.7299 41.0451 81.2061C39.8962 81.9311 38.6612 82.5097 37.3689 82.9284C34.6596 83.6435 32.8567 81.9212 31.9906 82.9284C31.4668 83.5126 32.0812 84.1773 31.4668 85.4061C31.0136 86.2823 30.5503 86.2722 29.5834 87.2895C28.68 88.2815 27.9939 89.4513 27.569 90.724C26.9144 92.3354 27.3374 92.3455 26.723 93.8563C26.018 95.5483 25.3835 95.8001 25.041 97.2203C24.8786 98.0735 24.8514 98.947 24.9605 99.8087V101.521C24.9516 101.748 24.9246 101.973 24.8799 102.196V102.75C24.8799 103.112 24.749 103.455 24.6885 103.817C24.6872 103.99 24.6669 104.162 24.6281 104.331C24.5677 104.603 24.6281 104.411 24.6281 104.452V106.174C24.749 108.571 25.4943 108.621 25.3331 110.747V110.867C25.2626 111.552 24.9202 114.302 23.5001 115.42C23.3863 115.508 23.265 115.585 23.1375 115.652C23.0156 115.718 22.8874 115.772 22.7547 115.813C22.2694 115.886 21.7743 115.862 21.2986 115.74C20.8229 115.619 20.3762 115.404 19.985 115.108C17.0843 112.187 17.2656 109.216 13.1362 106.436C11.8202 105.69 10.5672 104.837 9.38951 103.888C7.75718 102.534 6.3081 100.973 5.07879 99.2447C4.88743 98.9526 4.66585 98.6303 4.45434 98.2375C4.36174 98.1163 4.28397 97.9844 4.22269 97.8447C4.06154 97.5828 3.91046 97.2907 3.73924 96.9785C3.55684 96.6519 3.39209 96.3157 3.24573 95.9713C2.96157 95.4347 2.70606 94.8833 2.48027 94.3196L2.2587 93.7455C2.18819 93.5441 2.10762 93.3426 2.02704 93.1311L1.79539 92.4966C1.65439 92.0736 1.49324 91.6304 1.36231 91.1772C1.23137 90.724 1.12058 90.4017 1.01987 89.9887C0.919148 89.5758 0.858718 89.3945 0.798288 89.0823C0.605678 88.329 0.454376 87.5658 0.345058 86.796V86.4233C0.345058 86.2924 0.264485 85.8593 0.234269 85.5672C0.204054 85.2751 0.173839 85.0133 0.153695 84.7312C0.143515 84.5299 0.143515 84.3283 0.153695 84.127V81.2968L0.214125 80.34V80.0378C0.20795 79.834 0.231703 79.6304 0.284627 79.4335C0.35513 79.2321 0.284627 79.1616 0.284627 79.0306C0.284627 78.8997 0.35513 78.527 0.395418 78.2853L0.566638 77.2781C0.657284 76.835 0.737858 76.4019 0.838576 75.999C0.939294 75.5962 1.10044 74.9919 1.24145 74.4883C1.30188 74.3171 1.34216 74.1458 1.41267 73.9847C1.46608 73.7756 1.53338 73.5704 1.6141 73.3703C1.73496 72.9775 1.8659 72.6149 2.0069 72.2423C2.22848 71.638 2.48027 71.0538 2.722 70.4999C2.88314 70.1473 3.03422 69.7948 3.1853 69.4927C4.14212 67.4783 5.09893 65.8165 5.76367 64.5374C6.63991 62.8352 7.38522 61.2036 8.01974 59.6525C12.6427 48.3822 11.6053 40.4255 11.6959 30.0416V28.7524C11.6959 27.856 11.6959 26.9495 11.7765 26.0128C11.7765 25.328 11.847 24.6229 11.8873 23.8978V23.5855C11.8777 23.3055 11.8979 23.0253 11.9477 22.7496C12.0082 22.4676 11.9477 22.1755 12.0182 21.8733C12.0398 21.3811 12.0869 20.8903 12.1592 20.4029C12.3002 19.0532 12.4815 17.6432 12.7031 16.1828C12.7635 15.8404 12.8139 15.508 12.8743 15.1756C12.9348 14.8433 12.9952 14.4404 13.0556 14.0778L13.2671 12.9397C13.286 12.7098 13.3333 12.4831 13.4081 12.2649C13.4686 11.8822 13.5491 11.5095 13.6398 11.1268C13.6545 10.9482 13.6917 10.7722 13.7506 10.603C13.8312 10.2203 13.9319 9.81743 14.0124 9.40449C14.093 8.99155 14.2038 8.57862 14.3146 8.1556C14.4657 7.54122 14.6168 6.93691 14.788 6.30239C14.8178 6.07793 14.8753 5.85803 14.9592 5.64773C15.07 5.21464 15.1908 4.77149 15.3218 4.32833C15.5736 3.45208 15.8254 2.56577 16.1174 1.63917C16.2887 1.09529 16.4498 0.571558 16.6311 0.0478261C16.4196 1.4478 16.3491 2.72691 16.7923 2.9082C17.2354 3.0895 17.9606 1.90103 18.3534 2.12261C18.7462 2.34419 18.1117 3.54273 18.1922 5.49666C18.3295 6.99101 18.707 8.45342 19.3102 9.8275C19.4379 10.1856 19.6141 10.5245 19.8339 10.8347C20.0471 11.2537 20.3756 11.6032 20.7807 11.8419C20.8669 11.884 20.9583 11.9145 21.0526 11.9325C21.3547 12.03 21.675 12.0575 21.9893 12.0131C23.5504 11.8822 24.1346 10.8246 24.759 11.0059C24.8339 11.0363 24.9023 11.0808 24.9605 11.1368L25.041 11.2174L25.1216 11.3282C25.1216 11.3987 25.1921 11.4793 25.2324 11.5599C25.2763 11.6638 25.31 11.7717 25.3331 11.8822C25.3622 11.9946 25.3824 12.109 25.3935 12.2246C25.3854 12.3583 25.406 12.4923 25.454 12.6174C25.5144 12.7584 25.313 13.0001 25.2626 13.1915C25.2123 13.3829 25.0914 13.7051 25.0209 13.967C24.9504 14.2289 24.8698 14.4303 24.8094 14.672C24.7946 14.7626 24.7675 14.8507 24.7288 14.9339C24.7288 15.0245 24.7288 14.9339 24.7288 15.0044C24.7288 15.1656 24.6382 15.3368 24.5878 15.5181L24.477 15.9209C24.4669 15.9537 24.4669 15.9888 24.477 16.0217C24.2856 16.7468 24.1446 17.4619 24.0137 18.1367C24.0037 18.2069 24.0037 18.2781 24.0137 18.3482C23.9914 18.5966 23.9476 18.8426 23.8828 19.0835C23.8828 19.3252 23.7921 19.5871 23.7619 19.8288C23.9936 19.5166 24.2051 19.2446 24.4166 18.9928C25.8065 17.3411 26.6525 17.0893 27.1863 17.2403C27.7201 17.3914 27.7403 17.8043 28.9086 18.9727C29.9158 19.9798 30.4798 20.5137 31.1747 20.5338C32.3028 20.5338 32.6553 19.154 33.3301 19.2144C35.2135 19.4058 35.0826 30.3437 38.0034 30.9077C38.7991 31.0689 39.7156 30.5149 40.2595 30.9984C40.8034 31.4818 40.3602 32.207 40.9444 33.1638C41.4077 33.899 41.8206 33.7077 42.2537 34.2918C43.2609 35.6717 41.6292 37.5249 42.5961 38.8846C42.9587 39.3982 43.1702 39.0961 44.3285 39.8917C45.3265 40.5064 46.1107 41.4138 46.5745 42.4903C46.9471 43.5881 46.373 43.7392 46.7558 44.9176C47.1385 46.096 48.0248 46.529 47.9644 47.506C47.8851 47.9861 47.6762 48.4354 47.3601 48.8053C46.1112 50.9808 49.2234 53.126 49.1126 57.3864V57.5677C48.8849 58.6604 48.9865 59.7961 49.4046 60.831C49.8377 61.7374 50.2507 61.7273 50.6032 62.6036C51.2377 64.1949 50.2607 65.1215 50.8852 66.1287C51.5096 67.1359 52.7082 67.1359 53.7859 67.2668C55.1153 67.4078 55.7096 67.146 58.0059 66.6927C61.944 65.9474 62.3267 66.3201 63.3843 65.5647L63.495 65.5445C64.9756 64.4467 65.1468 62.9662 65.9526 63.0669C66.4964 63.1374 66.6475 63.8424 67.282 64.7388C67.5268 65.0859 67.8144 65.4006 68.1381 65.6755C68.6339 66.1092 69.2037 66.4504 69.8201 66.6827L80.6573 64.1647L80.7883 64.1445Z" fill="#F4D58C" stroke="#282724" stroke-width="0.29" stroke-miterlimit="10"/>
<path opacity="0.3" d="M80.7883 64.1445C80.7688 64.8352 80.4964 65.4947 80.0228 65.9978C79.5293 66.4611 78.9552 66.5618 78.6732 67.2064C78.5121 67.5992 78.6732 67.72 78.5423 68.0121C78.1898 68.838 76.6589 68.2639 75.0574 69.0193C73.6273 69.674 73.7683 70.6308 72.0359 71.4365C71.3798 71.6703 70.7062 71.8522 70.0216 71.9804C67.3324 72.9372 67.1612 75.0019 64.6432 75.8782C63.4548 76.3113 63.5051 75.8782 62.0447 76.2508C59.6577 76.9156 59.3052 78.1846 57.2203 79.4033C55.1355 80.622 53.1916 80.7126 49.6162 80.8939C48.1567 81.096 46.6727 81.0346 45.2349 80.7126C44.6252 80.4491 43.9652 80.3219 43.3011 80.34C42.4876 80.4317 41.711 80.7299 41.0451 81.2061C39.8962 81.9311 38.6612 82.5097 37.3689 82.9284C34.6596 83.6435 32.8567 81.9212 31.9906 82.9284C31.4668 83.5126 32.0812 84.1773 31.4668 85.4061C31.0136 86.2823 30.5503 86.2722 29.5834 87.2895C28.68 88.2815 27.9939 89.4513 27.569 90.724C26.9144 92.3354 27.3374 92.3455 26.723 93.8563C26.018 95.5483 25.3835 95.8001 25.041 97.2203C24.8786 98.0735 24.8514 98.947 24.9605 99.8087V101.521C24.9516 101.748 24.9246 101.973 24.8799 102.196V102.75C24.8799 103.112 24.749 103.455 24.6885 103.817C24.6872 103.99 24.6669 104.162 24.6281 104.331C24.5677 104.603 24.6281 104.411 24.6281 104.452V106.174C24.749 108.571 25.4943 108.621 25.3331 110.747V110.867C25.2626 111.552 24.9202 114.302 23.5001 115.42C23.3863 115.508 23.265 115.585 23.1375 115.652C23.0156 115.718 22.8874 115.772 22.7547 115.813C22.2694 115.886 21.7743 115.862 21.2986 115.74C20.8229 115.619 20.3762 115.404 19.985 115.108C17.0843 112.187 17.2656 109.216 13.1362 106.436C11.8202 105.69 10.5672 104.837 9.38951 103.888C7.75718 102.534 6.3081 100.973 5.07879 99.2447C4.88743 98.9526 4.66585 98.6303 4.45434 98.2375C4.36174 98.1163 4.28397 97.9844 4.22269 97.8447C4.06154 97.5828 3.91046 97.2907 3.73924 96.9785C3.55684 96.6519 3.39209 96.3157 3.24573 95.9713C2.96157 95.4347 2.70606 94.8833 2.48027 94.3196L2.2587 93.7455C2.18819 93.5441 2.10762 93.3426 2.02704 93.1311L1.79539 92.4966C1.65439 92.0736 1.49324 91.6304 1.36231 91.1772C1.23137 90.724 1.12058 90.4017 1.01987 89.9887C0.919148 89.5758 0.858718 89.3945 0.798288 89.0823C0.605678 88.329 0.454376 87.5658 0.345058 86.796V86.4233C0.345058 86.2924 0.264485 85.8593 0.234269 85.5672C0.204054 85.2751 0.173839 85.0133 0.153695 84.7312C0.143515 84.5299 0.143515 84.3283 0.153695 84.127V81.2968L0.214125 80.34V80.0378C0.20795 79.834 0.231703 79.6304 0.284627 79.4335C0.35513 79.2321 0.284627 79.1616 0.284627 79.0306C0.284627 78.8997 0.35513 78.527 0.395418 78.2853L0.566638 77.2781C0.657284 76.835 0.737858 76.4019 0.838576 75.999C0.939294 75.5962 1.10044 74.9919 1.24145 74.4883C1.30188 74.3171 1.34216 74.1458 1.41267 73.9847C1.46608 73.7756 1.53338 73.5704 1.6141 73.3703C1.73496 72.9775 1.8659 72.6149 2.0069 72.2423C2.22848 71.638 2.48027 71.0538 2.722 70.4999C2.88314 70.1473 3.03422 69.7948 3.1853 69.4927C4.14212 67.4783 5.09893 65.8165 5.76367 64.5374C6.63991 62.8352 7.38522 61.2036 8.01974 59.6525C12.6427 48.3822 11.6053 40.4255 11.6959 30.0416V28.7524C11.6959 27.856 11.6959 26.9495 11.7765 26.0128C11.7765 25.328 11.847 24.6229 11.8873 23.8978V23.5855C11.8777 23.3055 11.8979 23.0253 11.9477 22.7496C12.0082 22.4676 11.9477 22.1755 12.0182 21.8733C12.0398 21.3811 12.0869 20.8903 12.1592 20.4029C12.3002 19.0532 12.4815 17.6432 12.7031 16.1828C12.7635 15.8404 12.8139 15.508 12.8743 15.1756C12.9348 14.8433 12.9952 14.4404 13.0556 14.0778L13.2671 12.9397C13.286 12.7098 13.3333 12.4831 13.4081 12.2649C13.4686 11.8822 13.5491 11.5095 13.6398 11.1268C13.6545 10.9482 13.6917 10.7722 13.7506 10.603C13.8312 10.2203 13.9319 9.81743 14.0124 9.40449C14.093 8.99155 14.2038 8.57862 14.3146 8.1556C14.4657 7.54122 14.6168 6.93691 14.788 6.30239C14.8178 6.07793 14.8753 5.85803 14.9592 5.64773C15.07 5.21464 15.1908 4.77149 15.3218 4.32833C15.5736 3.45208 15.8254 2.56577 16.1174 1.63917C16.2887 1.09529 16.4498 0.571558 16.6311 0.0478261C16.4196 1.4478 16.3491 2.72691 16.7923 2.9082C17.2354 3.0895 17.9606 1.90103 18.3534 2.12261C18.7462 2.34419 18.1117 3.54273 18.1922 5.49666C18.3295 6.99101 18.707 8.45342 19.3102 9.8275C19.4379 10.1856 19.6141 10.5245 19.8339 10.8347C20.0471 11.2537 20.3756 11.6032 20.7807 11.8419C20.8669 11.884 20.9583 11.9145 21.0526 11.9325C21.3547 12.03 21.675 12.0575 21.9893 12.0131C23.5504 11.8822 24.1346 10.8246 24.759 11.0059C24.8339 11.0363 24.9023 11.0808 24.9605 11.1368L25.041 11.2174L25.1216 11.3282C25.1216 11.3987 25.1921 11.4793 25.2324 11.5599C25.2763 11.6638 25.31 11.7717 25.3331 11.8822C25.3622 11.9946 25.3824 12.109 25.3935 12.2246C25.3854 12.3583 25.406 12.4923 25.454 12.6174C25.5144 12.7584 25.313 13.0001 25.2626 13.1915C25.2123 13.3829 25.0914 13.7051 25.0209 13.967C24.9504 14.2289 24.8698 14.4303 24.8094 14.672C24.7946 14.7626 24.7675 14.8507 24.7288 14.9339C24.7288 15.0245 24.7288 14.9339 24.7288 15.0044C24.7288 15.1656 24.6382 15.3368 24.5878 15.5181L24.477 15.9209C24.4669 15.9537 24.4669 15.9888 24.477 16.0217C24.2856 16.7468 24.1446 17.4619 24.0137 18.1367C24.0037 18.2069 24.0037 18.2781 24.0137 18.3482C23.9914 18.5966 23.9476 18.8426 23.8828 19.0835C23.8828 19.3252 23.7921 19.5871 23.7619 19.8288C23.9936 19.5166 24.2051 19.2446 24.4166 18.9928C25.8065 17.3411 26.6525 17.0893 27.1863 17.2403C27.7201 17.3914 27.7403 17.8043 28.9086 18.9727C29.9158 19.9798 30.4798 20.5137 31.1747 20.5338C32.3028 20.5338 32.6553 19.154 33.3301 19.2144C35.2135 19.4058 35.0826 30.3437 38.0034 30.9077C38.7991 31.0689 39.7156 30.5149 40.2595 30.9984C40.8034 31.4818 40.3602 32.207 40.9444 33.1638C41.4077 33.899 41.8206 33.7077 42.2537 34.2918C43.2609 35.6717 41.6292 37.5249 42.5961 38.8846C42.9587 39.3982 43.1702 39.0961 44.3285 39.8917C45.3265 40.5064 46.1107 41.4138 46.5745 42.4903C46.9471 43.5881 46.373 43.7392 46.7558 44.9176C47.1385 46.096 48.0248 46.529 47.9644 47.506C47.8851 47.9861 47.6762 48.4354 47.3601 48.8053C46.1112 50.9808 49.2234 53.126 49.1126 57.3864V57.5677C48.8849 58.6604 48.9865 59.7961 49.4046 60.831C49.8377 61.7374 50.2507 61.7273 50.6032 62.6036C51.2377 64.1949 50.2607 65.1215 50.8852 66.1287C51.5096 67.1359 52.7082 67.1359 53.7859 67.2668C55.1153 67.4078 55.7096 67.146 58.0059 66.6927C61.944 65.9474 62.3267 66.3201 63.3843 65.5647L63.495 65.5445C64.9756 64.4467 65.1468 62.9662 65.9526 63.0669C66.4964 63.1374 66.6475 63.8424 67.282 64.7388C67.5268 65.0859 67.8144 65.4006 68.1381 65.6755C68.6339 66.1092 69.2037 66.4504 69.8201 66.6827L80.6573 64.1647L80.7883 64.1445Z" fill="#282724"/>
<path d="M80.7883 64.1445C80.7687 64.8352 80.4964 65.4947 80.0228 65.9978C79.5293 66.4611 78.9552 66.5618 78.6732 67.2064C78.512 67.5992 78.6732 67.72 78.5423 68.0121C78.1897 68.838 76.6588 68.2639 75.0574 69.0193C73.6272 69.674 73.7682 70.6308 72.0359 71.4365C71.3797 71.6703 70.7062 71.8522 70.0215 71.9804C67.3324 72.9372 67.1612 75.0019 64.6432 75.8782C63.4547 76.3113 63.5051 75.8782 62.0447 76.2508C59.6577 76.9156 59.3052 78.1846 57.2203 79.4033C55.1355 80.622 53.1916 80.7126 49.6161 80.8939C48.1566 81.096 46.6727 81.0346 45.2349 80.7126C44.6251 80.4491 43.9652 80.3219 43.3011 80.34C42.4876 80.4317 41.711 80.7299 41.0451 81.2061C39.8962 81.9311 38.6612 82.5097 37.3689 82.9284C34.6596 83.6435 32.8567 81.9212 31.9905 82.9284C31.4668 83.5126 32.0812 84.1773 31.4668 85.4061C31.0136 86.2823 30.5503 86.2722 29.5834 87.2895C28.68 88.2815 27.9939 89.4513 27.569 90.724C26.9144 92.3354 27.3374 92.3455 26.723 93.8563C26.018 95.5483 25.3835 95.8001 25.041 97.2203C24.8785 98.0735 24.8514 98.947 24.9605 99.8087V102.75C24.9101 103.112 24.8295 103.455 24.7691 103.817C24.7678 103.99 24.7475 104.162 24.7087 104.331C24.6482 104.603 24.7087 104.411 24.7087 104.452V106.174C24.8295 108.571 25.5748 108.621 25.4137 110.747V110.867C25.3432 111.552 25.0007 114.302 23.5806 115.42C23.4668 115.508 23.3455 115.585 23.218 115.652C23.0962 115.718 22.968 115.772 22.8353 115.813C22.35 115.886 21.8548 115.862 21.3791 115.74C20.9034 115.619 20.4568 115.404 20.0656 115.108C17.1649 112.187 17.3462 109.216 13.2168 106.436C11.9008 105.69 10.6478 104.837 9.47007 103.888C7.80775 102.541 6.33115 100.979 5.07878 99.2447C4.88741 98.9526 4.66583 98.6303 4.45433 98.2375C4.36173 98.1163 4.28396 97.9844 4.22268 97.8447C4.06153 97.5828 3.91045 97.2907 3.73923 96.9785C3.55682 96.6519 3.39208 96.3157 3.24572 95.9713C2.96156 95.4347 2.70604 94.8833 2.48026 94.3196L2.25868 93.7455C2.18818 93.5441 2.10761 93.3426 2.02703 93.1311L1.79538 92.4966C1.65438 92.0736 1.49323 91.6304 1.36229 91.1772C1.23136 90.724 1.12057 90.4017 1.01985 89.9887C0.919136 89.5758 0.858706 89.3945 0.798276 89.0823C0.754976 88.9761 0.727817 88.8641 0.717702 88.7499C0.667343 88.5485 0.627057 88.3672 0.58677 88.1657C0.576582 88.1091 0.576582 88.0511 0.58677 87.9945C0.506195 87.6017 0.435692 87.1988 0.375261 86.796V86.4233C0.375261 86.2924 0.294687 85.8593 0.264471 85.5672C0.234256 85.2751 0.204041 85.0133 0.183897 84.7312C0.173717 84.5299 0.173717 84.3283 0.183897 84.127V83.7543C0.173365 83.6707 0.173365 83.5861 0.183897 83.5025V81.2968L0.244329 80.34V80.0378C0.238154 79.834 0.261907 79.6304 0.314831 79.4335C0.385334 79.2321 0.314831 79.1616 0.314831 79.0306C0.314831 78.8997 0.385332 78.527 0.42562 78.2853L0.59684 77.2781C0.687486 76.835 0.76806 76.4019 0.868778 75.999C0.969496 75.5962 1.13064 74.9919 1.27165 74.4883C1.33208 74.3171 1.37237 74.1458 1.44287 73.9847C1.49629 73.7756 1.56358 73.5704 1.6443 73.3703C1.76517 72.9775 1.8961 72.6149 2.0371 72.2423C2.25868 71.638 2.51048 71.0538 2.7522 70.4999C2.91335 70.1473 3.06442 69.7948 3.2155 69.4927C4.22268 67.4783 5.12914 65.8165 5.79387 64.5374C6.67012 62.8352 7.41543 61.2036 8.04995 59.6525C12.6729 48.3822 11.6355 40.4255 11.7261 30.0416V28.7524C11.7261 27.856 11.7261 26.9495 11.8067 26.0128C11.8067 25.328 11.8772 24.6229 11.9175 23.8978V23.5855C11.9079 23.3055 11.9281 23.0253 11.9779 22.7496C12.0384 22.4676 11.9779 22.1755 12.0484 21.8733C12.065 21.3807 12.1121 20.8896 12.1894 20.4029C12.3305 19.0532 12.5117 17.6432 12.7333 16.1828C12.7938 15.8404 12.8441 15.508 12.9045 15.1756C12.965 14.8433 13.0254 14.4404 13.0858 14.0778L13.2973 12.9397C13.3162 12.7098 13.3635 12.4831 13.4383 12.2649C13.4988 12.0332 13.5793 11.5196 13.67 11.1268C13.6847 10.9482 13.7219 10.7722 13.7808 10.603C13.8614 10.2203 13.9621 9.81743 14.0427 9.40449C14.1232 8.99155 14.234 8.57862 14.3448 8.1556C14.4959 7.54122 14.647 6.93691 14.8182 6.30239C14.848 6.07793 14.9055 5.85803 14.9894 5.64773C15.1002 5.21464 15.221 4.77149 15.352 4.32833C15.6038 3.45208 15.8556 2.56577 16.1477 1.63917C16.3189 1.09529 16.48 0.571558 16.6613 0.0478261C16.4498 1.4478 16.3793 2.72691 16.8225 2.9082C17.2656 3.0895 17.9908 1.90103 18.3836 2.12261C18.7764 2.34419 18.1419 3.54273 18.2224 5.49666C18.3597 6.99101 18.7372 8.45342 19.3404 9.8275C19.4681 10.1856 19.6443 10.5245 19.8641 10.8347C20.0773 11.2537 20.4058 11.6032 20.8109 11.8419C20.8971 11.884 20.9885 11.9145 21.0828 11.9325C21.3849 12.03 21.7052 12.0575 22.0195 12.0131C23.5806 11.8822 24.1648 10.8246 24.7892 11.0059C24.8641 11.0363 24.9325 11.0808 24.9907 11.1368L25.0712 11.2174L25.1518 11.3282C25.1518 11.3987 25.2223 11.4793 25.2626 11.5599C25.3065 11.6638 25.3402 11.7717 25.3633 11.8822C25.3924 11.9946 25.4126 12.109 25.4238 12.2246C25.4156 12.3583 25.4362 12.4923 25.4842 12.6174C25.5446 12.7584 25.3432 13.0001 25.2928 13.1915C25.2425 13.3829 25.1216 13.7051 25.0511 13.967C24.9806 14.2289 24.9 14.4303 24.8396 14.672C24.8009 14.7552 24.7738 14.8433 24.759 14.9339V15.0044C24.759 15.1656 24.6684 15.3368 24.618 15.5181L24.5072 15.9209C24.4971 15.9537 24.4971 15.9888 24.5072 16.0217C24.3159 16.7468 24.1749 17.4619 24.0439 18.1367C24.0339 18.2069 24.0339 18.2781 24.0439 18.3482C24.0216 18.5966 23.9778 18.8426 23.913 19.0835C23.913 19.3252 23.8223 19.5871 23.7921 19.8288C23.4112 22.2917 23.2159 24.7797 23.208 27.2718C23.208 30.9984 23.5303 34.8357 23.8928 39.0155C23.8928 39.5594 23.9734 40.0932 24.0238 40.627C24.0741 41.1608 24.1144 41.6342 24.1547 42.168C24.195 42.7018 24.2252 42.9636 24.2554 43.3564C24.3159 43.9305 24.3662 44.4945 24.4166 45.0485L24.477 45.7233L24.5475 46.3981C24.5584 46.6585 24.5887 46.9177 24.6382 47.1736C24.6459 47.4638 24.6728 47.7532 24.7187 48.0398C24.7771 48.3217 24.8107 48.6082 24.8194 48.8959C24.8194 49.1779 24.8899 49.4398 24.9302 49.7218C24.9403 49.8357 24.9403 49.9503 24.9302 50.0642V50.1549C24.9546 50.4934 25.0017 50.8299 25.0712 51.1621C25.0712 51.4743 25.172 51.7865 25.2324 52.0786C25.2928 52.3707 25.3432 52.693 25.4036 53.0052C25.464 53.3174 25.5245 53.5994 25.5849 53.8814C25.6453 54.1634 25.6554 54.1634 25.6856 54.3044C25.7158 54.4454 25.7561 54.5764 25.7863 54.7174C25.776 54.7536 25.776 54.792 25.7863 54.8282C25.8468 55.08 25.9072 55.3217 25.9777 55.5533V55.644L26.2295 56.1274C26.2591 56.2483 26.2996 56.3663 26.3504 56.4799C26.4108 56.7015 26.4914 56.9231 26.5719 57.1346C26.6525 57.3461 26.7331 57.5878 26.8137 57.7893C26.8942 57.9907 26.9949 58.2022 27.0856 58.4137C27.1762 58.6252 27.1863 58.6152 27.2266 58.7159C27.2669 58.8166 27.3575 58.9979 27.428 59.1288L27.4985 59.2698L27.8007 59.8036C27.9271 60.0492 28.0719 60.2849 28.2338 60.5087C28.336 60.693 28.4539 60.8683 28.5863 61.0324L28.687 61.1835C28.8179 61.3547 28.9489 61.5259 29.0899 61.687C29.2309 61.8482 29.4021 62.0798 29.5632 62.2712C39.776 73.894 62.5181 68.5862 73.2747 66.0783C75.7624 65.4942 78.22 64.9201 80.617 64.3057L80.7883 64.1445Z" fill="#FFEECC" stroke="#282724" stroke-width="0.29" stroke-miterlimit="10"/>
<path opacity="0.1" d="M24.9504 101.219V101.289L24.7691 102.74C24.5548 103.695 24.45 104.671 24.4569 105.65C24.4569 108.208 25.2223 108.803 25.1619 110.736C25.1619 112.449 24.4166 115.279 22.5835 115.772C22.0983 115.859 21.6002 115.84 21.1226 115.719C20.645 115.597 20.1988 115.375 19.8138 115.067C16.9131 112.147 17.0944 109.175 12.965 106.396C11.648 105.64 10.3949 104.777 9.2183 103.817C7.65367 102.463 6.26623 100.916 5.08887 99.2144C4.89751 98.9223 4.67593 98.6 4.46442 98.2072C4.37182 98.086 4.29406 97.9541 4.23277 97.8144C3.92055 97.2706 3.58818 96.6562 3.22559 95.9814C2.48208 94.4592 1.87213 92.8753 1.40261 91.2476C1.28174 90.8649 1.16088 90.4721 1.06017 90.0592C0.959447 89.6462 0.848657 89.2433 0.758011 88.8203C0.707652 88.6189 0.667366 88.4376 0.627079 88.2362C0.506218 87.6621 0.415573 87.088 0.334999 86.4937C0.28464 86.2218 0.254424 85.9297 0.224208 85.6377C0.193993 85.3456 0.163778 85.0837 0.143634 84.8017C0.123491 84.5197 0.0731321 83.9959 0.0630603 83.5729C0.0529885 83.1499 0.0630603 82.9586 0.0630603 82.6564V81.3672L0.12349 80.4104C0.140672 79.9717 0.184396 79.5345 0.254423 79.1011C0.271574 78.8501 0.308621 78.6009 0.365213 78.3558L0.536433 77.3486C0.727796 76.3414 0.959447 75.4349 1.21124 74.5386C2.36419 71.0556 3.87992 67.7035 5.73347 64.5373C6.60971 62.8352 7.35502 61.2035 7.98954 59.6525C13.942 45.1693 10.5276 36.155 12.1593 20.3726C12.9247 27.7955 13.3981 37.6356 13.4887 44.4139C13.6902 58.0813 13.7909 64.92 12.6226 68.7775C10.9809 74.1659 7.87875 80.5514 10.8801 84.6708C11.8873 86.0607 13.1564 86.1513 14.5765 87.3297C20.831 92.6073 21.7677 97.6029 24.9504 101.219Z" fill="#282724"/>
<path opacity="0.1" d="M80.7883 64.1445C80.7688 64.8351 80.4964 65.4946 80.0228 65.9977C79.5293 66.461 78.9552 66.5617 78.6732 67.2063C78.5121 67.5991 78.6732 67.72 78.5423 68.0121C78.1898 68.838 76.6589 68.2639 75.0574 69.0193C73.6273 69.6739 73.7683 70.6307 72.0359 71.4365C71.3798 71.6703 70.7062 71.8522 70.0216 71.9804C67.3324 72.9372 67.1612 75.0019 64.6432 75.8781C60.7253 75.9386 34.8006 75.9889 26.4914 60.5489C25.313 58.3532 24.8295 56.3892 23.8828 52.4915C21.8684 44.283 21.9893 36.85 23.1475 27.312C23.1475 31.0386 23.4698 34.876 23.8324 39.0557C23.8324 39.5996 23.913 40.1334 23.9634 40.6672C24.0137 41.201 24.054 41.6744 24.0943 42.2082C24.1346 42.742 24.1648 43.0039 24.195 43.3967C24.2554 43.9708 24.3058 44.5348 24.3562 45.0887L24.4166 45.7635L24.4871 46.4383C24.498 46.6987 24.5283 46.958 24.5777 47.2139C24.5855 47.5041 24.6124 47.7934 24.6583 48.08C24.7166 48.362 24.7503 48.6484 24.759 48.9361C24.759 49.2181 24.8295 49.48 24.8698 49.762C24.8799 49.876 24.8799 49.9905 24.8698 50.1045V50.1951C24.8941 50.5336 24.9413 50.8701 25.0108 51.2023C25.0108 51.5145 25.1115 51.8267 25.172 52.1188C25.2324 52.4109 25.2828 52.7332 25.3432 53.0454C25.4036 53.3576 25.4641 53.6397 25.5245 53.9217C25.5849 54.2037 25.595 54.2037 25.6252 54.3447C25.6554 54.4857 25.6957 54.6166 25.7259 54.7576C25.7156 54.7938 25.7156 54.8322 25.7259 54.8684C25.7864 55.1202 25.8468 55.3619 25.9173 55.5936V55.6842L26.2396 56.077C26.2692 56.1979 26.3097 56.3159 26.3604 56.4295C26.4209 56.6511 26.5014 56.8727 26.582 57.0842C26.6626 57.2957 26.7432 57.5374 26.8237 57.7389C26.9043 57.9403 27.005 58.1518 27.0957 58.3633C27.1863 58.5748 27.1964 58.5648 27.2367 58.6655C27.277 58.7662 27.3676 58.9475 27.4381 59.0784L27.5086 59.2194L27.8108 59.7532C27.9372 59.9988 28.082 60.2344 28.2439 60.4582C28.3461 60.6426 28.464 60.8179 28.5964 60.982L28.6971 61.1331C28.828 61.3043 28.959 61.4755 29.1 61.6366C29.241 61.7978 29.4122 62.0294 29.5733 62.2208C39.7861 73.8436 62.5282 68.5358 73.2848 66.0279C75.7725 65.4438 78.23 64.8697 80.6271 64.2553L80.7883 64.1445Z" fill="#282724"/>
</svg>
