<svg width="123" height="120" viewBox="0 0 123 120" fill="none" xmlns="http://www.w3.org/2000/svg">
<path d="M54.9147 38.554C53.4167 38.0552 51.8407 39.1469 50.4248 38.1876C50.2059 38.0387 50.0104 37.8582 49.8445 37.6521C48.8126 37.4738 47.757 37.4839 46.7288 37.6819C46.3349 37.7588 45.947 37.8636 45.568 37.9957C44.0828 38.4495 43.2442 37.7862 42.0738 37.7689H42.0388C41.4709 37.8432 40.9174 38.002 40.3965 38.24C40.047 38.4147 39.7127 38.6183 39.3971 38.8487C39.1294 39.0493 38.8739 39.2657 38.6321 39.4968C37.5013 40.5992 34.2291 45.8194 31.4483 48.7817C30.745 49.5293 29.9882 50.225 29.1839 50.863C26.4271 52.6244 23.2925 53.7096 20.0359 54.0302C17.8181 54.2151 16.4367 53.9073 12.0654 54.3016C10.805 54.4777 9.53399 54.5684 8.26124 54.5732C5.92952 54.4735 3.65063 53.8477 1.59542 52.7428C1.59542 52.7428 6.31756 61.9523 10.6365 70.482C10.9727 71.1324 11.2086 71.8299 11.3364 72.5507C11.4047 72.9426 11.44 73.3396 11.4418 73.7374C12.2529 74.1034 13.083 74.4256 13.9285 74.7027C13.9446 74.7122 13.9625 74.7181 13.9811 74.7203C17.201 75.6182 20.5582 75.9198 23.8869 75.6104C23.9042 75.6104 23.9042 75.628 23.9218 75.6104C31.8062 74.6921 39.7672 74.6337 47.6643 75.436C49.9006 75.7145 52.3116 76.1167 54.8622 76.6568C55.9105 64.84 57.1159 52.9707 57.4653 41.1365C56.9786 39.9804 56.0653 39.0557 54.9147 38.554Z" fill="#F4D58C" stroke="#282724" stroke-width="0.1124" stroke-miterlimit="10"/>
<path opacity="0.3" d="M54.9145 38.554C53.4165 38.0552 51.8404 39.1469 50.4245 38.1876C50.2057 38.0387 50.0102 37.8582 49.8442 37.6521C48.4128 37.4012 46.9409 37.5191 45.5678 37.9948C44.0826 38.4486 43.244 37.7854 42.0735 37.768H42.0386C41.4707 37.8423 40.9172 38.0012 40.3963 38.2392C39.7463 38.5638 39.151 38.9879 38.6318 39.496C34.893 42.9519 33.8098 45.4132 30.6828 47.979C29.8692 48.6501 29.0047 49.257 28.0971 49.7943C21.3361 52.5171 18.6106 52.7788 17.4052 52.4299C17.3177 52.4124 16.3044 52.1157 14.9416 51.8015C14.1359 51.5774 13.3116 51.4259 12.4787 51.3488C11.3672 51.2939 11.0317 51.4867 10.5835 51.4451C10.4429 51.4311 10.3047 51.3987 10.1726 51.3488C9.32558 51.0766 6.85797 52.4715 5.82793 52.8715C4.44811 53.342 2.9443 53.2964 1.59562 52.743C1.59562 52.743 6.31776 61.9525 10.6367 70.4822C10.9729 71.1327 11.2088 71.8301 11.3366 72.5509C11.4049 72.9429 11.4402 73.3398 11.4421 73.7377C12.2531 74.1036 13.0832 74.4259 13.9287 74.7029C13.9448 74.7124 13.9627 74.7184 13.9813 74.7205C17.2012 75.6184 20.5584 75.9201 23.8871 75.6106C23.9044 75.6106 23.9044 75.6282 23.922 75.6106C31.8064 74.6923 39.7674 74.6339 47.6645 75.4363C49.9008 75.7147 52.3118 76.1169 54.8624 76.6571C55.9107 64.8402 57.1161 52.9709 57.4655 41.1367C56.9788 39.9804 56.0653 39.0556 54.9145 38.554Z" fill="#282724"/>
<path d="M122.351 103.66C121.971 103.913 121.574 104.14 121.163 104.341C118.834 105.439 116.296 106.022 113.721 106.051C110.209 106.295 106.715 106.767 103.221 107.168C103.133 107.186 103.046 107.186 102.942 107.203C101.877 107.29 100.793 107.413 99.7102 107.535C94.4315 107.925 89.181 108.63 83.9868 109.647C73.697 111.776 74.1858 113.4 69.1192 113.26C67.7857 113.223 66.4583 113.065 65.1533 112.789C65.1184 112.771 65.101 112.771 65.0661 112.754C61.6068 112.004 59.3358 110.747 54.2518 111.34C51.4549 111.468 48.7446 112.349 46.4073 113.889C42.8434 116.455 42.6344 119.544 40.677 119.631C39.6987 119.666 38.9299 118.933 37.2353 116.158C36.7112 115.355 36.1871 114.43 35.6456 113.47C35.2436 112.772 34.7894 111.986 34.3004 111.131C34.0382 110.695 33.7936 110.258 33.5666 109.857L33.5141 109.752C33.4965 109.717 33.4618 109.682 33.4442 109.647C31.332 106.337 29.486 102.864 27.9235 99.2618C26.7704 94.3396 27.8712 91.5121 25.3725 89.2778C23.9924 88.0386 22.6123 88.0037 21.3544 86.0652C20.2712 84.4071 20.7604 83.5868 19.5899 81.8937C18.5819 80.5773 17.2607 79.5333 15.7463 78.8565C14.9574 78.4065 14.1191 78.0492 13.248 77.7919C13.021 77.7221 12.8113 77.6696 12.5835 77.6173C11.675 77.4079 11.0286 77.2507 10.9757 77.2333C10.3992 77.111 8.72202 76.0982 3.86526 72.2238C6.66043 72.3458 7.49904 71.9454 7.65638 71.4731C7.95329 70.583 6.67801 69.5706 5.52491 66.7431C5.13795 65.7413 4.83982 64.7075 4.63398 63.6536C4.63031 63.6165 4.61838 63.5808 4.59905 63.5489C3.47299 59.5829 1.9755 55.7316 0.126435 52.0462C0.440915 52.2032 0.930108 52.4476 1.59401 52.7445C1.68147 52.7794 1.76872 52.8316 1.87269 52.8665C1.89323 52.8803 1.91797 52.8865 1.94258 52.8839C10.7648 56.7868 20.7383 57.2109 29.8606 54.0711C38.0286 51.0254 44.863 45.2045 49.1657 37.6287C50.5825 35.2312 51.7587 32.6996 52.6772 30.0709C54.6012 24.4541 55.2575 18.4814 54.5991 12.5813V12.5115C54.9995 12.1866 55.3789 11.8368 55.7352 11.4642C55.9403 11.2544 56.1328 11.0327 56.3117 10.8002C56.6253 10.4087 56.9003 9.98782 57.1329 9.54346C57.2307 9.38036 57.3182 9.21133 57.3949 9.03736C57.5072 8.78077 57.6063 8.51864 57.692 8.25198C58.4082 6.10489 57.919 4.37694 58.9323 3.83573C59.9982 3.25981 61.0987 4.91793 62.6013 4.32467C63.859 3.83571 63.9638 2.35214 65.1868 2.2472C65.9371 2.17738 66.2526 2.71838 66.7765 2.49157C67.5978 2.12512 67.266 0.641316 67.8773 0.414078C68.7335 0.0823226 70.0961 2.76999 70.952 2.49157C71.2665 2.38684 71.5461 1.88074 71.5461 0.292425C71.6159 0.466763 71.6858 0.641309 71.739 0.798513C72.0359 1.54812 72.4378 2.54403 72.9094 3.71342C73.6432 5.45894 74.3594 7.04725 75.0409 8.49593C77.1722 13.0343 78.9718 16.1064 79.8977 17.8339C83.6371 24.5917 85.6701 32.1588 85.8203 39.879C85.8027 40.2804 85.7155 41.3626 85.5232 43.1773C85.436 43.9802 85.3312 44.9225 85.2089 46.0044C84.8595 49.0416 84.4052 53.2306 83.7763 58.6591C83.1996 63.5814 82.9726 65.5188 84.178 67.6308C86.2046 71.1917 90.712 72.4834 97.6653 74.3683C98.2769 74.5429 98.9581 74.7174 100.356 75.0323C100.735 75.5812 100.99 76.2055 101.105 76.8623C101.219 77.519 101.191 78.1928 101.02 78.8375C100.71 79.5575 100.237 80.1964 99.64 80.7051C99.3565 80.9693 99.0462 81.2033 98.7142 81.4033C97.9639 81.8571 97.4389 81.9618 97.1943 82.5727C96.8623 83.4105 97.6659 83.7423 97.5262 84.8429C97.369 86.0637 96.2159 86.9722 94.4864 88.3339C93.6304 89.0148 93.3333 89.1195 93.0538 89.6256C92.8532 90.0885 92.7497 90.5875 92.7497 91.0919C92.7497 91.5962 92.8532 92.0953 93.0538 92.5581C93.2922 93.0763 93.6312 93.5421 94.051 93.9286C94.4708 94.315 94.9631 94.6145 95.4995 94.8097C96.8273 95.2286 97.6835 94.5653 98.6617 95.2984C99.0636 95.6126 99.0287 95.8045 99.5528 96.1886C100.113 96.5969 100.769 96.855 101.457 96.9382C107.117 97.8981 107.397 98.2472 109.616 98.1424C111.328 98.0551 111.538 97.8109 114.385 97.6362C115.572 97.5047 116.771 97.5341 117.949 97.7236C118.281 97.8109 118.473 97.9503 118.543 98.1424C118.736 98.7184 117.547 99.4341 117.81 99.9229C118.054 100.377 119.172 99.8355 120.011 100.516C120.077 100.565 120.136 100.624 120.185 100.691C120.518 101.075 120.395 101.44 120.902 101.86C120.963 101.919 121.034 101.966 121.112 102L121.216 102.052C121.259 102.073 121.3 102.096 121.339 102.122C121.356 102.122 121.356 102.14 121.374 102.14C121.722 102.173 122.067 102.237 122.404 102.332C122.799 102.443 122.874 102.508 122.911 102.577C123.101 102.933 122.398 103.615 122.351 103.66Z" fill="#FFEECC" stroke="#282724" stroke-width="0.1124" stroke-miterlimit="10"/>
<path opacity="0.1" d="M101.019 78.8394C100.709 79.5594 100.236 80.1984 99.6392 80.707C99.3556 80.9712 99.0453 81.2052 98.7133 81.4052C85.6453 81.0037 81.5397 80.1135 78.6054 76.6225C72.7703 69.6931 77.9767 60.0581 78.7803 42.4813C79.3329 29.3023 77.3397 16.1403 72.9096 3.71451C73.6434 5.46003 74.3596 7.04835 75.0411 8.49702C77.1723 13.0354 78.972 16.1075 79.8978 17.835C83.6373 24.5928 85.6702 32.1599 85.8205 39.8801C85.8029 40.2815 85.7156 41.3637 85.5235 43.1784C85.4361 43.9813 85.3313 44.9236 85.2091 46.0055C84.8596 49.0427 84.4054 53.2319 83.7764 58.6602C83.1998 63.5825 82.9728 65.5199 84.1782 67.6319C86.2048 71.1928 90.7122 72.4844 97.6655 74.3694C98.277 74.5439 98.9583 74.7185 100.356 75.0333C100.735 75.5825 100.99 76.2069 101.104 76.8639C101.219 77.5208 101.19 78.1947 101.019 78.8394Z" fill="#282724"/>
<path opacity="0.1" d="M122.351 103.66C121.971 103.913 121.574 104.14 121.163 104.341C118.834 105.439 116.296 106.022 113.721 106.051C110.209 106.295 106.715 106.767 103.221 107.168C103.133 107.186 103.046 107.186 102.942 107.203C101.876 107.29 100.793 107.413 99.7101 107.535C94.4314 107.924 89.1809 108.63 83.9867 109.647C73.6969 111.776 74.1857 113.4 69.1191 113.26C67.7856 113.223 66.4582 113.065 65.1532 112.789C65.1183 112.771 65.1009 112.771 65.066 112.754C61.8339 111.672 58.1474 109.717 53.1509 110.572C49.7978 110.99 46.6588 112.442 44.171 114.727C42.0047 116.839 41.83 118.48 40.4838 118.637C39.3309 118.776 38.2827 117.729 37.2344 116.158C36.7102 115.355 36.1861 114.43 35.6446 113.47C34.9801 112.283 34.2994 111.027 33.5652 109.857L33.5127 109.752C33.4951 109.717 33.4604 109.683 33.4428 109.648C31.3306 106.337 29.4846 102.864 27.9222 99.2619C26.7691 94.3398 27.8699 91.5122 25.3712 89.278C23.9911 88.0388 22.6109 88.0039 21.353 86.0654C20.2698 84.4072 20.759 83.587 19.5885 81.8939C18.5805 80.5775 17.2593 79.5335 15.7449 78.8567C14.9561 78.4067 14.1177 78.0494 13.2466 77.7921C13.0196 77.7222 12.81 77.6698 12.5821 77.6175C11.6736 77.4081 11.0273 77.2509 10.9743 77.2335C10.3979 77.1112 8.72064 76.0984 3.86388 72.224C6.65905 72.3461 7.49766 71.9456 7.65501 71.4733C7.95191 70.5832 6.67663 69.5708 5.52353 66.7433C5.13657 65.7415 4.83845 64.7077 4.63261 63.6538C4.62894 63.6167 4.617 63.581 4.59767 63.5491C6.56414 65.0386 8.68412 66.3141 10.9216 67.3541C22.7666 72.835 27.3264 69.9899 31.432 74.1963C36.4112 79.2936 31.3797 85.8735 36.7257 91.4587C39.1541 93.9898 43.0324 94.6531 50.7026 95.8574C61.5518 97.5678 63.2464 96.189 73.6588 97.6552C87.4428 99.6102 91.1644 102.036 106.574 99.9417C110.41 99.4549 114.209 98.7143 117.947 97.725C118.279 97.8124 118.471 97.9518 118.541 98.1439C118.734 98.7198 117.545 99.4356 117.807 99.9244C118.052 100.378 119.17 99.837 120.009 100.518C120.075 100.567 120.134 100.626 120.183 100.692C120.515 101.076 120.393 101.442 120.899 101.862C120.961 101.92 121.032 101.967 121.109 102.001L121.214 102.054L121.269 102.083L121.286 102.092C121.337 102.121 122.715 102.269 122.908 102.577C122.994 102.711 122.933 102.999 122.351 103.66Z" fill="#282724"/>
<path opacity="0.1" d="M35.2079 59.9185C25.3898 62.8334 14.6284 59.1688 14.6623 58.0509C14.6973 56.9513 25.3379 59.0633 35.2079 54.3154C48.2759 48.0494 57.8147 30.8565 56.5045 16.0723C56.3662 14.519 56.1092 12.9786 55.7358 11.4644C56.6262 10.5582 57.2958 9.45931 57.6925 8.25286C58.4087 6.10576 57.9195 4.3778 58.9329 3.83658C59.8608 6.065 60.5632 8.38063 61.0294 10.7488C65.135 31.45 51.7875 54.9963 35.2079 59.9185Z" fill="#282724"/>
</svg>
