<svg width="20" height="39" viewBox="0 0 20 39" fill="none" xmlns="http://www.w3.org/2000/svg">
<path d="M19.6901 7.48354C19.6199 7.93504 19.3289 9.93166 17.8239 18.5803C17.4527 20.7274 16.3089 23.4164 13.62 26.7675C9.86434 31.1781 5.56225 35.0925 0.817544 38.4161L0.677079 38.5164L0.285783 38.7873H0.225586L0.085121 38.8776C0.877748 38.3057 1.63024 37.7338 2.36267 37.192L2.85429 36.7907L3.20546 36.4796C3.66699 36.0783 4.10846 35.6569 4.54992 35.2255L5.10174 34.6636L5.29238 34.463C5.48301 34.2623 5.6636 34.0516 5.85423 33.8409C6.04487 33.6302 6.41611 33.1887 6.69704 32.8376L7.23883 32.1854C7.63013 31.6637 8.02142 31.1118 8.38262 30.55C8.50302 30.3694 8.62342 30.1888 8.73379 29.9982C8.84416 29.8075 8.98462 29.5968 9.10502 29.3962C11.9985 24.4158 13.4796 18.7409 13.3892 12.9818V10.9249C13.3995 10.5894 13.3793 10.2536 13.329 9.92162V8.99856C13.329 8.7377 13.2688 8.4668 13.2488 8.1959C13.253 7.98304 13.2294 7.77054 13.1785 7.56381C13.1241 7.32301 13.0905 7.07795 13.0782 6.83137L12.9277 5.82805C12.9038 5.55436 12.8602 5.28276 12.7972 5.01536C12.7972 4.74446 12.727 4.62406 12.6869 4.4234C12.5163 3.42007 12.3157 2.48698 12.0949 1.50372L11.9143 0.741196C11.8963 0.55541 11.8524 0.373044 11.7839 0.199391C12.6662 0.389373 13.4501 0.891793 13.9912 1.61408C14.3524 2.18598 14.2621 2.61741 14.8541 3.24951C15.446 3.8816 16.0681 3.81137 16.6701 4.40333C17.6734 5.40665 17.0815 6.53037 17.8239 7.28287C18.0951 7.4659 18.4068 7.57988 18.7321 7.61485C19.0574 7.64983 19.3862 7.60475 19.6901 7.48354Z" fill="#FFEECC" stroke="#282724" stroke-width="0.29" stroke-miterlimit="10"/>
<path opacity="0.1" d="M19.6901 7.4835C19.6199 7.93499 19.3289 9.93161 17.8239 18.5201C17.4527 20.6873 16.3089 23.3762 13.62 26.7273C9.9544 31.0251 5.7685 34.8504 1.15869 38.115L1.24898 38.0348C1.29042 38.0108 1.3277 37.9803 1.35935 37.9445L1.61018 37.7639C1.62822 37.7356 1.65218 37.7117 1.68041 37.6936L2.36267 37.1819L2.8543 36.7806L3.20547 36.4696C3.65697 36.0682 4.10847 35.6468 4.54993 35.2154L5.10175 34.6536L5.29238 34.4529C5.48301 34.2522 5.66361 34.0415 5.85424 33.8308C6.04487 33.6201 6.41612 33.1787 6.69705 32.8275C6.97798 32.4763 7.0783 32.3459 7.24886 32.1051C7.3191 32.0248 7.36927 31.9446 7.42947 31.8643C7.6201 31.6135 7.79066 31.3727 7.97126 31.1218C8.32242 30.6101 8.66355 30.1185 8.97459 29.5567C9.03479 29.4764 9.08495 29.3861 9.13512 29.3159C12.0241 24.3341 13.5017 18.6596 13.4093 12.9014V11.7777C13.4267 7.80104 12.8484 3.84418 11.6936 0.038825C12.576 0.24064 13.3582 0.749056 13.9009 1.47357C14.2621 2.03544 14.1718 2.47689 14.7638 3.09896C15.3557 3.72102 15.9778 3.66083 16.5798 4.25279C17.5831 5.25611 16.9912 6.37983 17.7437 7.13233C18.0101 7.35399 18.3295 7.50284 18.6706 7.56438C19.0117 7.62592 19.363 7.59806 19.6901 7.4835Z" fill="#282724"/>
</svg>
