<svg width="250" height="296" viewBox="0 0 250 296" fill="none" xmlns="http://www.w3.org/2000/svg">
<path d="M219.982 82.2331C208.539 65.4918 194.184 50.937 177.597 39.2601C168.027 32.494 157.853 26.6246 147.203 21.7265C104.82 1.77187 59.8038 0.797639 25.698 0.0663246C29.4274 1.05872 32.0414 1.99898 31.9544 2.67816C31.9529 2.71358 31.9426 2.74806 31.9243 2.77844C31.9061 2.80883 31.8805 2.83414 31.8499 2.85207C30.8042 4.05362 20.6445 3.94915 20.6445 4.19292C20.6445 4.40186 29.1317 4.1754 29.3051 5.34191C29.4099 6.19522 24.8786 7.22201 25.018 8.21504C25.1574 9.1726 29.4099 9.1726 29.4099 9.6078C29.4099 10.2 21.7415 10.4263 21.672 11.3317C21.672 12.3589 31.0306 13.3165 31.0306 14.5704C30.9958 15.7194 22.9442 16.2582 22.9442 16.8686C22.979 17.4606 30.4205 17.3737 30.4554 18.0178C30.4554 18.5575 25.4887 19.0798 25.4887 19.759C25.506 20.4213 30.2114 20.6818 31.7102 21.1868H31.7275C32.0055 21.2738 32.1807 21.3791 32.1807 21.4827C32.1807 22.1617 26.3428 22.1617 26.0648 23.6767C25.7162 25.5397 34.0815 28.2915 33.8026 29.2136C33.5247 30.0842 25.9253 28.1515 25.6125 29.0916C25.2291 30.1886 34.9189 33.8625 34.5006 35.3251C34.0997 36.7179 24.8456 35.151 24.6889 36.0216C24.5668 36.6483 29.4291 37.9195 29.3079 38.564C29.1687 39.2082 23.9751 38.5465 23.8705 39.1387C23.8008 39.5915 26.9727 40.1136 26.9901 40.9842C27.0249 42.4992 17.4396 43.6309 17.5269 44.5536C17.5791 45.1108 21.1171 44.9367 26.2929 46.2949C26.903 46.4517 31.8349 47.74 31.7303 48.5933C31.5911 49.6378 24.0797 49.2722 23.9924 50.2125C23.9054 51.1004 30.65 52.1627 30.5627 53.4337C30.5104 54.3043 27.4083 54.3564 27.2167 55.506C26.9901 56.9862 31.8176 58.5706 31.6084 59.3192C31.3304 60.3466 22.215 58.2048 21.6748 59.6675C21.2738 60.7818 26.1535 63.0803 25.7179 64.2822C25.2299 65.6577 18.3111 63.847 17.7536 65.327C17.248 66.6676 22.5462 69.3316 22.0231 70.7418C21.5001 72.1521 15.6273 71.1599 15.5576 71.6648C15.4879 72.1175 20.507 72.8313 20.5245 73.8587C20.5245 75.2342 11.6364 76.0176 11.6364 77.4281C11.6539 78.5947 17.6315 79.0997 17.6315 80.3184C17.6315 81.537 11.4794 81.9207 11.4097 83.435C11.3575 84.3057 13.7975 85.4549 18.6772 87.7009C20.8556 88.6936 22.0755 89.1809 22.0231 89.7733C21.9186 90.9398 16.8822 91.0268 16.8298 91.967C16.7776 93.0293 23.3128 93.7779 23.2955 94.962C23.278 96.1109 17.0913 96.5115 17.0564 97.6086C17.0564 98.9317 25.7171 100.081 25.7171 100.725C25.6473 101.456 15.0688 100.272 14.5284 102.345C14.0928 103.929 19.9136 106.123 19.478 107.759C18.9376 109.919 8.32418 108.56 8.06287 110.075C7.81887 111.433 16.1675 113.488 15.9053 115.49C15.8356 116.047 15.1385 116.43 13.831 116.883C10.0805 117.96 6.16587 118.349 2.2765 118.032C2.2765 118.259 9.38676 119.077 9.44022 120.331C9.50993 121.706 1.25006 122.873 1.35378 123.918C1.45835 124.84 8.16808 124.665 8.28997 125.763C8.39454 126.79 2.41679 127.522 2.17407 129.803C1.99979 131.422 4.91018 132.031 5.04961 134.173C5.22389 136.715 1.26781 137.586 1.25028 140.302C1.23296 142.774 4.57916 143.419 4.47438 145.943C4.40466 147.772 2.627 148.12 1.12839 151.132C0.638299 152.253 0.281454 153.428 0.0651632 154.632C2.22626 155.067 2.85365 155.868 4.3698 155.346C6.19986 154.736 6.87946 153.03 7.92515 153.326C8.8312 153.57 8.51771 154.945 9.61451 155.694C11.3049 156.843 13.3781 154.458 15.3656 155.52C16.8471 156.303 16.6901 158.132 18.4154 158.567C18.9895 158.614 19.5565 158.725 20.106 158.898C20.5068 159.072 21.5525 159.525 21.8138 160.43C22.0753 161.37 21.169 161.91 21.4652 162.798C21.6395 163.32 22.1102 163.581 22.8246 163.982C24.3758 164.853 25.1769 164.522 25.8744 165.166C26.2754 165.532 26.6935 166.246 26.5543 167.882C27.045 167.411 27.6258 167.044 28.262 166.803C30.4755 165.967 31.8697 167.273 33.0546 166.663C35.0241 165.619 32.9152 160.569 34.7799 159.716C37.4465 158.48 41.4024 164.539 45.9164 163.181C47.3265 162.615 48.6203 161.795 49.7331 160.761C52.4692 158.584 52.6956 157.331 53.8983 157.278C56.3032 157.191 57.4534 162.032 59.4751 161.788C61.0434 161.614 60.9215 158.619 62.9432 157.975C65.2783 157.244 67.056 160.691 69.5481 160.064C71.9357 159.455 72.2321 155.798 73.7309 155.886C75.3865 156.007 75.5432 160.639 77.8959 161.109C79.3426 161.387 80.0397 159.734 81.3642 160.064C83.3508 160.534 82.4976 164.313 85.1982 166.315C86.3908 167.082 87.7794 167.491 89.1979 167.491C90.6164 167.491 92.005 167.082 93.1976 166.315C93.2846 166.246 93.2847 166.246 93.4416 166.123C94.0688 165.635 99.2973 161.596 101.876 162.833C104.177 163.947 103.131 168.579 105.013 169.084C106.477 169.484 107.906 166.907 108.83 167.36C110.172 168.004 107.75 173.75 109.527 175.004C110.956 175.996 113.588 173.036 115.087 173.959C117.527 175.421 113.414 184.667 115.785 186.112C117.44 187.122 120.769 183.396 122.041 184.371C123.662 185.607 118.904 191.945 121.344 195.149C122.029 195.876 122.886 196.419 123.836 196.73C124.786 197.04 125.798 197.107 126.781 196.925C128.367 196.612 128.942 195.602 129.535 195.898C131.034 196.664 128.036 203.995 129.535 204.812C130.754 205.491 134.293 201.26 134.833 201.731C135.269 202.079 133.09 204.725 133.805 205.666C134.624 206.728 138.284 204.586 139.12 205.666C139.869 206.623 137.465 208.852 138.266 210.297C139.12 211.794 142.64 210.732 143.076 211.829C143.599 213.17 138.667 215.712 139.12 216.966C139.643 218.359 146.387 216.722 146.666 217.662C147.015 218.759 137.796 222.451 138.091 223.304C138.369 224.122 146.648 221.424 147.868 223.652C148.339 224.522 147.363 225.446 147.868 226.211C149.087 228.04 156.042 225.01 156.443 225.881C156.809 226.647 151.424 229.589 151.808 230.495C152.156 231.279 156.374 229.886 156.618 230.495C157.001 231.453 147.329 236.137 147.695 237.007C147.869 237.39 149.803 236.746 150.1 237.356C150.431 238.052 148.078 239.428 148.392 240.263C148.758 241.291 152.818 240.42 153.011 241.116C153.237 241.917 147.992 243.362 148.044 245.226C148.096 247.054 153.115 247.82 153.011 249.335C152.924 250.623 149.316 251.268 149.421 251.738C149.543 252.312 154.736 251.389 155.067 252.417C155.329 253.218 152.54 254.611 152.836 255.342C153.08 255.916 154.963 255.081 155.921 256.021C156.222 256.458 156.418 256.959 156.493 257.485C156.569 258.01 156.522 258.546 156.357 259.051V259.068C156.26 259.608 156.115 260.139 155.921 260.652C155.241 262.532 154.231 263.177 154.562 263.908C155.015 264.901 157.35 264.483 157.472 265.093C157.612 265.789 154.753 266.433 154.735 267.669C154.718 268.418 155.763 268.488 156.443 269.724C157.227 271.134 156.356 272.005 156.792 274.007C157.175 275.801 157.959 275.557 158.673 277.611C159.597 280.241 158.499 281.233 159.527 282.574C160.743 283.69 162.338 284.3 163.989 284.28C165.697 284.489 165.975 284.071 167.248 284.454C169.234 285.046 169.67 286.387 170.507 286.161C171.587 285.883 170.995 283.549 172.563 281.546C174.027 279.648 176.816 278.778 177.53 279.491C178.314 280.275 175.805 282.155 175.979 285.481C176.049 286.822 176.502 287.276 179.761 293.699C180.249 294.657 180.58 295.336 180.772 295.824H180.789C181.085 295.88 181.391 295.87 181.683 295.794C181.975 295.719 182.247 295.58 182.479 295.388C183.142 294.709 182.567 293.647 182.724 292.48C183.055 289.746 187.272 287.257 189.067 288.197C190.061 288.737 189.607 289.956 190.531 290.495C192.553 291.714 197.467 287.414 200.012 284.68C202.469 282.068 202.033 281.633 204.491 279.317C207.035 276.914 208.36 276.566 208.708 274.93C209.214 272.562 206.808 271.552 207.366 269.201C207.819 267.234 209.614 267.495 211.026 264.726C212.159 262.515 211.793 260.791 212.734 260.53C213.814 260.217 214.773 262.41 215.784 262.132C217.352 261.715 216.882 255.847 217.561 255.777C218.137 255.742 218.833 259.782 219.443 259.73C220.001 259.677 219.53 256.369 220.89 255.69C222.51 254.872 225.159 258.703 226.519 258.023C228.279 257.135 226.118 249.683 226.711 249.526C227.199 249.387 228.89 254.785 229.656 254.628C230.319 254.489 229.464 250.432 231.086 245.313C231.469 244.147 232.184 241.901 233.072 241.918C233.369 241.918 233.647 242.196 233.891 242.614C234.576 244.258 235.17 245.938 235.669 247.646C235.983 247.577 233.682 238.244 235.669 237.356C236.593 236.921 237.813 238.714 238.702 238.244C240.375 237.373 237.935 230.235 239.155 229.747C239.799 229.486 240.95 231.332 241.385 231.088C242.17 230.652 239.12 224.576 240.235 223.845C240.828 223.445 242.222 224.855 242.64 224.472C243.093 224.071 241.577 222.677 241.664 220.797C241.786 218.377 244.453 217.802 244.348 215.783C244.261 213.92 241.926 213.45 242.117 211.935C242.292 210.385 244.784 210.437 245.516 208.365C246.073 206.781 244.853 206.154 245.341 204.43C245.969 202.201 248.269 202.271 248.566 200.478C248.914 198.353 245.951 196.403 246.684 195.289C246.841 195.063 246.98 195.132 247.485 194.749C248.166 194.176 248.688 193.439 249.002 192.608C249.284 191.925 249.529 191.228 249.734 190.518H249.751C249.821 190.309 249.89 190.1 249.943 189.892C249.051 163.806 247.5 122.68 219.982 82.2331Z" fill="#FFEECC" stroke="#282724" stroke-width="0.1124" stroke-miterlimit="10"/>
<path opacity="0.1" d="M249.94 189.89C249.888 190.099 249.818 190.308 249.748 190.516H249.73C249.525 191.226 249.281 191.924 248.998 192.606C248.684 193.437 248.162 194.175 247.482 194.748C246.977 195.131 246.837 195.061 246.681 195.287C245.949 196.402 248.911 198.352 248.562 200.476C248.266 202.269 245.965 202.2 245.338 204.429C244.85 206.152 246.07 206.779 245.513 208.364C244.78 210.436 242.288 210.383 242.114 211.933C241.921 213.448 244.257 213.918 244.345 215.781C244.449 217.801 241.783 218.375 241.661 220.796C241.574 222.676 243.09 224.069 242.637 224.47C242.218 224.853 240.824 223.443 240.232 223.844C239.116 224.575 242.166 230.651 241.382 231.086C240.946 231.33 239.796 229.484 239.151 229.745C237.931 230.233 240.37 237.373 238.698 238.242C237.809 238.712 236.589 236.919 235.666 237.354C233.679 238.242 235.979 247.575 235.666 247.645C235.166 245.936 234.573 244.256 233.888 242.613C236.276 186.373 237.53 156.929 219.179 121.741C188.28 62.4361 130.385 41.6814 109.42 34.1595C84.4958 25.2729 58.1895 20.8808 31.7274 21.1879H31.7101C30.2113 20.6829 25.5059 20.4218 25.4886 19.7601C25.4886 19.081 30.4553 18.5586 30.4553 18.0189C30.4204 17.3748 22.9789 17.4617 22.9441 16.8697C22.9441 16.2604 30.9956 15.7205 31.0305 14.5715C31.0305 13.3176 21.6719 12.3601 21.6719 11.3328C21.7414 10.4274 29.4098 10.2005 29.4098 9.60892C29.4098 9.17372 25.1573 9.17372 25.0179 8.21615C24.8785 7.22355 29.4098 6.19633 29.305 5.34303C29.1307 4.17651 20.6444 4.40298 20.6444 4.19403C20.6444 3.95026 30.8047 4.05473 31.8497 2.85318C39.3088 3.07965 47.1337 3.58471 55.0634 4.4378C77.4578 6.858 127.754 12.3252 177.597 39.2612C194.183 50.938 208.538 65.4925 219.981 82.2333C247.5 122.68 249.051 163.806 249.94 189.89Z" fill="#282724"/>
</svg>
