<svg width="208" height="172" viewBox="0 0 208 172" fill="none" xmlns="http://www.w3.org/2000/svg">
<path d="M42.9715 109.225C38.2476 114.554 28.2777 114.032 22.5424 112.534C17.8681 111.27 13.6108 108.795 10.2012 105.359C13.0504 105.634 15.9256 105.332 18.6552 104.471C20.1808 104.072 21.6257 103.412 22.9258 102.52C28.6956 97.9575 24.2331 83.3115 23.4139 80.6643C21.4863 74.7967 18.9141 69.1605 15.7443 63.8588C15.1736 62.9815 14.6499 62.0746 14.1754 61.1419C13.517 59.8894 12.9632 58.5846 12.5195 57.241C12.2214 56.122 12.1678 54.9519 12.3625 53.8103C13.1284 52.9634 14.0016 52.2199 14.96 51.5986C16.0935 50.9714 16.581 51.0238 16.9296 49.648C17.1869 48.1765 17.8102 46.7932 18.7423 45.6251C19.5933 44.7979 20.1504 43.7155 20.3287 42.5427C20.7992 39.7562 20.7992 37.2137 22.5424 34.8103C23.3442 33.6957 24.4074 32.7901 25.1569 31.6234C25.4357 31.1749 25.6568 30.6931 25.815 30.1893C25.6193 32.6668 24.8628 35.3912 24.4947 37.4575C22.0194 51.2503 33.1057 56.3354 41.211 82.3535C45.0457 94.5964 47.7826 103.792 42.9715 109.225Z" fill="#F4D58C" stroke="#282724" stroke-width="0.1124" stroke-miterlimit="10"/>
<path opacity="0.3" d="M42.9715 109.225C38.2476 114.554 28.2777 114.032 22.5424 112.534C17.8681 111.27 13.6109 108.795 10.2012 105.359C13.0504 105.634 15.9256 105.331 18.6552 104.471C20.1808 104.072 21.6257 103.412 22.9258 102.52C28.6956 97.9575 24.2331 83.3113 23.4139 80.6643C21.4863 74.7967 18.9141 69.1605 15.7443 63.8588C15.1736 62.9815 14.6499 62.0746 14.1754 61.1419C13.517 59.8894 12.9632 58.5846 12.5195 57.241C12.2214 56.122 12.1679 54.9518 12.3628 53.8103C13.1285 52.9633 14.0015 52.2198 14.9597 51.5986C16.0933 50.9714 16.581 51.0238 16.9296 49.648C17.187 48.1765 17.8103 46.7932 18.7423 45.6251C19.5933 44.7979 20.1504 43.7155 20.3287 42.5427C20.7992 39.7562 20.7992 37.2137 22.5424 34.8103C23.3442 33.6957 24.4074 32.7901 25.1569 31.6234C25.4357 31.1749 25.6568 30.6931 25.815 30.1893C25.6193 32.6668 24.8628 35.3912 24.4947 37.4575C22.0194 51.2503 33.1057 56.3354 41.211 82.3535C45.0457 94.5964 47.7826 103.792 42.9715 109.225Z" fill="#282724"/>
<path d="M207.887 104.732C207.131 106.491 206.075 108.105 204.767 109.504C204.349 109.974 203.896 110.444 203.425 110.914C202.518 111.837 201.56 112.725 200.653 113.561C197.535 116.463 194.012 118.898 190.194 120.788C190.669 121.64 190.951 122.585 191.02 123.556C191.09 124.528 190.944 125.504 190.595 126.414C189.828 128.068 188.468 128.26 187.387 130.036C186.01 132.283 186.794 134.32 186.585 135.661C186.557 135.834 186.511 136.003 186.446 136.166L186.393 136.271C186.355 136.382 186.303 136.487 186.237 136.584C186.215 136.611 186.198 136.64 186.184 136.671C186.167 136.689 186.149 136.706 186.149 136.723L186.062 136.81C186.039 136.855 186.01 136.896 185.975 136.932C185.922 137.001 185.864 137.065 185.801 137.125C185.716 137.215 185.623 137.297 185.523 137.369C185.436 137.456 185.33 137.525 185.226 137.612C185.034 137.734 184.825 137.856 184.616 137.978C183.959 138.316 183.27 138.591 182.56 138.797L182.037 138.953C181.877 139.004 181.714 139.045 181.548 139.075C181.531 139.093 181.531 139.093 181.514 139.093C181.349 139.119 181.186 139.154 181.026 139.197C180.989 139.219 180.947 139.231 180.904 139.232C180.503 139.319 180.067 139.424 179.631 139.51C179.404 139.562 179.178 139.614 178.951 139.649C178.93 139.661 178.906 139.667 178.882 139.667L178.254 139.771C178.254 139.776 178.252 139.779 178.248 139.782C178.245 139.785 178.241 139.787 178.237 139.787C178.232 139.787 178.228 139.785 178.225 139.782C178.222 139.779 178.22 139.776 178.219 139.771C177.348 139.928 176.441 140.085 175.483 140.224C175.29 140.259 175.099 140.294 174.89 140.329H174.838C173.966 140.468 173.06 140.606 172.136 140.729C172.066 140.747 171.996 140.747 171.926 140.764C171.526 140.816 171.125 140.886 170.724 140.938C170.375 140.99 170.027 141.042 169.678 141.112C169.538 141.13 169.416 141.147 169.277 141.165C168.614 141.269 167.952 141.373 167.272 141.495C166.645 141.6 166.018 141.704 165.39 141.826C165.249 141.847 165.11 141.876 164.972 141.913C164.884 141.916 164.796 141.928 164.71 141.948C164.31 142.018 163.891 142.105 163.473 142.192C163.159 142.244 162.863 142.314 162.549 142.384L161.346 142.645C161.19 142.68 161.05 142.715 160.893 142.75C160.615 142.82 160.335 142.872 160.056 142.942C159.9 142.977 159.76 143.012 159.603 143.047C158.923 143.203 158.226 143.395 157.546 143.587C157.215 143.691 156.867 143.796 156.518 143.883C156.326 143.935 156.134 144.005 155.943 144.057C155.891 144.077 155.839 144.094 155.786 144.109C155.263 144.266 154.74 144.44 154.217 144.614C153.956 144.701 153.677 144.806 153.415 144.892C153.154 144.977 152.892 145.084 152.631 145.17C152.073 145.379 151.515 145.605 150.957 145.849C150.713 145.953 150.452 146.058 150.209 146.162C149.931 146.284 149.634 146.424 149.355 146.563C148.919 146.772 148.483 146.981 148.065 147.19C147.96 147.242 147.856 147.294 147.769 147.347C147.592 147.416 147.422 147.504 147.263 147.608C146.932 147.782 146.6 147.973 146.27 148.165C145.973 148.322 145.677 148.513 145.398 148.688C144.997 148.931 144.596 149.193 144.213 149.454C143.428 149.976 142.671 150.54 141.947 151.143C141.703 151.335 141.476 151.526 141.25 151.735C141.09 151.859 140.939 151.993 140.796 152.136C140.692 152.223 140.604 152.31 140.518 152.397C140.462 152.438 140.409 152.485 140.361 152.536C140.239 152.641 140.135 152.745 140.03 152.85L139.56 153.32C138.102 154.898 136.833 156.639 135.777 158.509C135.763 158.525 135.751 158.543 135.742 158.562C135.725 158.579 135.725 158.597 135.69 158.614C135.69 158.631 135.655 158.666 135.62 158.701C135.516 158.84 135.376 159.015 135.185 159.241C135.08 159.363 134.975 159.485 134.853 159.606C134.592 159.903 134.278 160.234 133.912 160.599C133.79 160.704 133.668 160.826 133.529 160.948C133.226 161.22 132.899 161.465 132.553 161.679C132.366 161.817 132.167 161.939 131.96 162.045C131.636 162.243 131.298 162.418 130.949 162.567C130.756 162.654 130.548 162.741 130.339 162.828C130.083 162.946 129.821 163.051 129.554 163.142C129.276 163.246 128.979 163.351 128.7 163.455C128.578 163.49 128.474 163.525 128.352 163.56C128.195 163.63 128.032 163.683 127.864 163.717C127.463 163.856 127.062 163.978 126.644 164.1C125.86 164.344 125.041 164.587 124.187 164.831C122.426 165.371 120.543 165.946 118.591 166.695C113.763 168.558 113.327 169.655 110.503 170.23C110.296 170.282 110.087 170.323 109.876 170.352C109.851 170.349 109.826 170.355 109.806 170.369C109.754 170.369 109.719 170.386 109.667 170.386C109.161 170.474 108.69 170.508 108.272 170.543H108.098C108.023 170.557 107.947 170.563 107.871 170.561C105.57 170.613 104.228 169.951 100.585 169.777C95.1639 169.499 93.7869 170.683 89.6555 171.257C89.2547 171.31 88.8364 171.362 88.3658 171.397C88.2097 171.417 88.0527 171.429 87.8953 171.432C87.6337 171.449 87.3548 171.466 87.0759 171.484C86.7446 171.501 86.396 171.519 86.0475 171.519H85.6465C84.9668 171.536 84.3741 171.519 83.8338 171.484C79.7375 171.291 79.4935 170.195 73.5319 170.299C71.5236 170.323 69.5196 170.492 67.5357 170.804C65.8306 171.129 64.0888 171.217 62.3597 171.066L62.3248 171.048C62.155 171.047 61.9858 171.03 61.8194 170.996C61.5754 170.961 61.314 170.926 61.0351 170.874C60.8954 170.857 60.7213 170.822 60.5645 170.787C60.3902 170.752 60.2334 170.717 60.0765 170.683C59.2224 170.474 58.56 170.265 57.9847 170.073C57.1133 169.742 56.416 169.446 55.4921 169.168C54.624 168.932 53.7378 168.769 52.8427 168.68C52.2849 168.628 51.7793 168.593 51.326 168.575C49.1299 168.488 48.0491 168.853 45.9225 168.715C45.7133 168.697 45.5041 168.68 45.2776 168.662C45.0684 168.628 44.8592 168.61 44.6327 168.575C44.5681 168.578 44.5033 168.572 44.4402 168.558C44.2995 168.543 44.1598 168.52 44.0219 168.488C43.83 168.453 43.6556 168.418 43.4989 168.384C43.0145 168.295 42.5369 168.173 42.0696 168.018C40.4873 167.296 38.8078 166.809 37.0843 166.573C35.9006 166.428 34.7017 166.463 33.5285 166.677C32.6916 166.851 32.0467 167.078 31.3321 167.182C30.9469 167.251 30.555 167.274 30.1643 167.252C29.8117 167.243 29.4611 167.196 29.1184 167.113C29.0532 167.108 28.9886 167.096 28.926 167.078C28.6297 167.008 28.3681 166.921 28.1068 166.834C27.8018 166.727 27.5047 166.599 27.2179 166.451C24.3416 165.005 23.627 162.358 20.6114 162.463C19.711 162.538 18.8372 162.805 18.0491 163.246C17.1249 163.633 16.139 163.851 15.1379 163.891C14.7261 163.922 14.3129 163.928 13.9004 163.908C13.7436 163.891 13.6042 163.891 13.4647 163.873H13.426C13.3731 163.876 13.32 163.87 13.269 163.856C12.7006 163.79 12.1259 163.802 11.5607 163.891C11.4433 163.907 11.3269 163.931 11.2121 163.96C10.8964 164.033 10.5874 164.132 10.2883 164.257C8.63242 164.866 8.00488 165.772 6.9068 165.441C6.46274 165.299 6.08903 164.994 5.86091 164.587C5.54689 164.098 5.13065 163.682 4.6407 163.368C4.62338 163.351 4.5883 163.333 4.57097 163.316C3.43599 162.731 2.12031 162.6 0.892166 162.95C0.805115 162.654 0.699672 162.323 0.614119 161.958C0.474666 161.383 0.336069 160.74 0.230624 160.025C0.115723 159.176 0.057491 158.321 0.0563105 157.464C0.0563105 152.466 2.13098 148.844 6.17468 142.069C13.3563 130.053 13.2341 130.698 13.5654 129.618C15.5469 123.173 15.2515 116.244 12.7287 109.991C12.0423 108.367 11.1956 106.815 10.2013 105.359C11.125 105.341 12.293 105.324 13.67 105.393H13.7049C15.7837 105.461 17.8563 105.659 19.9103 105.986C28.0332 107.257 30.4212 109.521 33.2103 108.302C37.5506 106.421 39.1541 97.7308 37.8992 90.6427C35.7202 78.3653 26.1679 77.7208 22.4726 63.1965C21.8973 60.9152 22.1946 61.2112 20.747 53.0262C21.675 52.1999 22.4482 51.215 23.0305 50.1177C23.7751 48.4572 24.2742 46.6973 24.512 44.8933C24.7935 43.6573 25.321 42.4905 26.0633 41.4625C26.6697 40.7139 27.1523 39.8732 27.4927 38.9722C27.8382 37.5408 27.8974 36.0553 27.667 34.6009C27.6814 32.1003 28.3289 29.644 29.5492 27.4608C30.9437 25.1271 31.9372 25.5102 32.5821 23.525C33.2098 21.6093 32.4775 20.5819 33.4712 18.8925C34.1342 17.7599 34.5868 17.9696 35.5281 16.6635C36.3151 15.3741 36.8588 13.9515 37.1323 12.4662C37.9514 9.27927 37.446 9.45321 38.1084 7.38042C38.2983 6.80001 38.5197 6.23034 38.7715 5.67391C39.2047 4.7893 39.4369 3.81998 39.4514 2.83527C39.4485 2.0245 39.2948 1.22134 38.998 0.466747C39.661 1.45933 40.6541 1.05888 42.0486 1.86C43.565 2.71326 43.0596 3.56651 44.8374 5.25572C46.5284 6.85838 47.3127 6.38827 48.3935 7.86807C49.2824 9.10447 49.0907 9.92312 49.9448 10.3411C50.9907 10.8809 51.932 9.9058 53.03 10.0449C55.0172 10.2887 56.4291 13.0752 56.5861 15.2694C56.6128 15.6528 56.6011 16.0379 56.5512 16.419C56.4988 16.6968 56.4291 17.133 56.3245 17.6371C55.7407 20.4082 54.8522 23.1065 53.6751 25.6827C51.8728 30.0187 50.7498 34.6063 50.3456 39.2839C50.0928 41.9813 50.1514 44.6987 50.5201 47.3827C50.6894 48.6072 50.922 49.8221 51.2172 51.0225C51.8157 53.4794 52.6991 55.8582 53.8494 58.1105C57.4401 64.7456 74.1913 67.4274 94.7426 63.7006C95.8233 63.3699 96.8865 63.0382 97.9151 62.7254C98.2462 62.6209 98.56 62.5164 98.8913 62.4294C99.2048 62.3249 99.5361 62.2204 99.8499 62.1335C100.477 61.9411 101.087 61.7503 101.698 61.5586C102.081 61.4368 102.446 61.3323 102.813 61.2103L103.179 61.1058C103.493 61.0013 103.807 60.8968 104.103 60.8099C105.619 60.3397 107.031 59.9042 108.374 59.4863C108.452 59.4551 108.534 59.4318 108.618 59.4166L108.635 59.3993C108.879 59.3296 109.123 59.2425 109.367 59.1728C112.208 58.2847 114.684 57.5184 116.828 56.8393C117.02 56.787 117.211 56.7173 117.403 56.6649C117.542 56.6128 117.681 56.578 117.821 56.5256C118.135 56.4211 118.466 56.3333 118.762 56.2297C118.902 56.1948 119.04 56.1427 119.163 56.1076C119.441 56.0207 119.704 55.9337 119.965 55.8465H120C120.244 55.7593 120.488 55.6899 120.732 55.6027C121.36 55.4104 121.935 55.2195 122.475 55.0454L122.632 54.993C122.719 54.9757 122.807 54.9409 122.894 54.9236C123.068 54.8712 123.242 54.8016 123.417 54.7494C123.504 54.7146 123.609 54.6971 123.695 54.6623C123.747 54.6449 123.782 54.6274 123.834 54.6101C124.131 54.5229 124.427 54.4178 124.706 54.3323C127.129 53.5312 128.506 53.0609 129.064 52.8346C129.798 52.5374 130.549 52.2816 131.312 52.0683C132.515 51.6232 133.795 51.4219 135.077 51.4762C137.656 52.3645 132.339 65.5127 135.53 75.4046C138.929 85.8886 151.235 90.6254 153.449 91.4787C169.554 97.6784 178.689 86.916 196.015 94.2139C203.32 97.2957 208.549 102.12 207.887 104.732Z" fill="#FFEECC" stroke="#282724" stroke-width="0.1124" stroke-miterlimit="10"/>
<path opacity="0.1" d="M207.887 104.732C207.131 106.491 206.075 108.105 204.767 109.504C204.349 109.974 203.896 110.444 203.425 110.914C202.518 111.837 201.56 112.725 200.653 113.561C197.535 116.463 194.012 118.898 190.194 120.788C190.669 121.64 190.951 122.584 191.02 123.556C191.09 124.528 190.945 125.504 190.595 126.414C189.828 128.068 188.469 128.26 187.387 130.036C186.01 132.282 186.794 134.32 186.585 135.661C186.557 135.834 186.511 136.003 186.446 136.166L186.393 136.271C186.355 136.382 186.303 136.487 186.237 136.584C186.215 136.611 186.198 136.64 186.184 136.671C186.167 136.689 186.149 136.706 186.149 136.723L186.062 136.81C186.039 136.855 186.01 136.896 185.975 136.932C185.922 137.001 185.864 137.065 185.801 137.125C185.717 137.215 185.623 137.297 185.523 137.368C185.436 137.456 185.33 137.525 185.227 137.612C185.034 137.734 184.825 137.856 184.617 137.978C183.959 138.316 183.27 138.59 182.56 138.797L182.037 138.953C181.877 139.004 181.714 139.045 181.549 139.075C181.531 139.093 181.531 139.093 181.514 139.093C181.349 139.119 181.186 139.154 181.026 139.197C180.989 139.219 180.947 139.231 180.904 139.232C180.503 139.319 180.067 139.424 179.631 139.51C179.405 139.562 179.178 139.614 178.951 139.649C178.93 139.661 178.906 139.667 178.882 139.667L178.254 139.771C178.254 139.775 178.252 139.779 178.248 139.782C178.245 139.785 178.241 139.787 178.237 139.787C178.232 139.787 178.228 139.785 178.225 139.782C178.222 139.779 178.22 139.775 178.219 139.771C178.027 139.806 177.836 139.841 177.644 139.893C177.295 139.945 176.947 140.015 176.581 140.067L175.483 140.224C175.29 140.259 175.099 140.294 174.89 140.329H174.838C173.966 140.468 173.06 140.606 172.136 140.729C172.066 140.746 171.996 140.747 171.927 140.764C171.526 140.816 171.125 140.886 170.724 140.938C170.236 141.025 169.765 141.095 169.277 141.164C168.614 141.269 167.952 141.373 167.272 141.495C166.645 141.6 166.018 141.704 165.39 141.826C165.249 141.847 165.11 141.876 164.972 141.913C164.884 141.916 164.796 141.928 164.711 141.948C164.31 142.018 163.891 142.105 163.473 142.192C163.159 142.244 162.863 142.314 162.549 142.384L161.346 142.645C161.19 142.68 161.05 142.715 160.893 142.75C160.615 142.819 160.335 142.872 160.056 142.942C159.9 142.977 159.76 143.012 159.603 143.047C158.923 143.203 158.226 143.395 157.546 143.587C157.215 143.691 156.867 143.796 156.518 143.883C156.326 143.935 156.134 144.005 155.943 144.057C155.891 144.077 155.839 144.094 155.786 144.109C155.263 144.266 154.74 144.44 154.217 144.614C153.956 144.701 153.677 144.806 153.415 144.892C153.154 144.977 152.892 145.084 152.631 145.17C152.073 145.379 151.515 145.605 150.958 145.849C150.714 145.953 150.452 146.058 150.209 146.162C149.931 146.284 149.634 146.424 149.355 146.563C148.919 146.772 148.483 146.981 148.065 147.19C147.96 147.242 147.856 147.294 147.769 147.346C147.592 147.416 147.422 147.504 147.263 147.608C146.932 147.782 146.6 147.973 146.27 148.165C145.973 148.322 145.677 148.513 145.398 148.688C144.997 148.931 144.596 149.193 144.213 149.454C143.428 149.976 142.671 150.54 141.947 151.143C141.703 151.335 141.476 151.526 141.25 151.735C141.09 151.859 140.939 151.993 140.796 152.136C140.692 152.223 140.604 152.31 140.518 152.397C140.462 152.438 140.409 152.485 140.361 152.536C140.239 152.641 140.135 152.745 140.03 152.85L139.56 153.32C138.102 154.898 136.833 156.639 135.777 158.509C135.763 158.525 135.751 158.543 135.742 158.562C135.725 158.579 135.725 158.597 135.69 158.614C135.69 158.631 135.655 158.666 135.62 158.701C135.219 159.119 134.278 160.164 133.738 160.739L133.529 160.948C132.192 162.217 130.535 163.102 128.735 163.508C128.457 163.595 128.178 163.664 127.881 163.734L127.864 163.717C127.358 163.333 126.888 162.933 126.452 162.55C124.865 161.19 123.39 159.705 122.042 158.109C121.296 157.212 120.598 156.276 119.95 155.305C119.061 153.964 117.946 152.066 117.458 152.257C116.673 152.553 118.364 157.726 117.632 158.022C116.464 158.492 111.601 147.137 109.614 147.695C108.115 148.113 108.882 155.288 109.666 161.958C109.701 162.271 109.736 162.567 109.771 162.881C110.085 165.65 110.398 168.297 110.503 170.23C110.296 170.282 110.087 170.323 109.875 170.352C109.928 170.613 109.962 170.874 110.015 171.153C109.961 170.887 109.891 170.626 109.806 170.369C109.753 170.369 109.718 170.386 109.666 170.386C109.161 170.474 108.69 170.508 108.272 170.543C108.184 170.334 108.079 170.108 107.994 169.899C107.296 168.227 106.652 166.416 106.373 165.615C106.111 164.867 105.867 164.152 105.658 163.456C101.231 149.786 102.991 143.168 97.0813 136.237C95.8786 134.826 92.6714 131.099 90.5972 131.9C87.4422 133.119 89.9869 143.655 88.715 162.464C88.6801 163.265 88.6104 164.083 88.5407 164.919C88.5058 165.546 88.4361 166.173 88.3837 166.818C88.2094 168.803 88.0177 170.405 87.8958 171.433C87.6342 171.451 87.3553 171.468 87.0764 171.485C86.7451 171.503 86.3965 171.52 86.0481 171.52H85.6819C85.6819 171.503 85.6646 171.503 85.647 171.485C83.6608 168.271 82.0746 164.827 80.9234 161.228C80.3018 159.378 79.7839 157.494 79.3719 155.586C78.2563 150.327 79.5811 152.12 78.5876 138.223C77.9949 130.003 77.193 124.674 80.348 119.345C81.3415 117.656 82.2655 116.141 83.7993 115.914C88.7498 115.2 92.7589 129.063 96.9946 128.453H97.0644C97.4762 128.371 97.8602 128.185 98.18 127.913C98.4763 127.65 98.7396 127.352 98.9643 127.025C99.593 126.052 100.086 124.997 100.429 123.89L100.533 123.577L100.55 123.56C100.96 122.228 101.285 120.872 101.523 119.5C101.919 117.376 102.001 115.205 101.767 113.057C99.0824 96.3901 99.518 79.4627 97.9146 62.7266C98.2456 62.6221 98.5594 62.5176 98.8907 62.4307C99.2043 62.3262 99.5356 62.2217 99.8494 62.1347C100.477 61.9424 101.087 61.7516 101.697 61.5599C102.08 61.4381 102.446 61.3336 102.812 61.2116L103.179 61.1071V61.0898C103.492 61.0026 103.806 60.8974 104.102 60.812C105.619 60.3419 107.031 59.9064 108.373 59.4884C108.452 59.4572 108.534 59.4339 108.617 59.4187C108.878 59.3318 109.123 59.2619 109.366 59.1749C112.207 58.2868 114.682 57.5205 116.826 56.8414C117.018 56.7891 117.21 56.7194 117.401 56.6671C117.541 56.6149 117.679 56.5801 117.82 56.5277C118.133 56.4232 118.465 56.3354 118.761 56.2318C118.9 56.1969 119.039 56.1448 119.162 56.1098C119.44 56.0228 119.702 55.9358 119.964 55.8486H119.999C120.243 55.7614 120.487 55.692 120.731 55.6048C121.358 55.4125 121.933 55.2217 122.474 55.0475L122.631 54.9952C122.857 54.9257 123.066 54.856 123.276 54.7862C123.324 54.7828 123.371 54.7711 123.415 54.7516C123.502 54.7167 123.608 54.6992 123.693 54.6644C123.746 54.6471 123.78 54.6295 123.833 54.6122C124.129 54.525 124.425 54.4199 124.704 54.3344C127.127 53.5333 128.504 53.063 129.062 52.8367C129.797 52.5395 130.547 52.2837 131.311 52.0704C132.514 51.6253 133.793 51.424 135.075 51.4783C137.655 52.3666 132.337 65.5148 135.528 75.4067C138.927 85.8907 151.233 90.6275 153.447 91.4808C169.553 97.6805 178.687 86.9181 196.014 94.216C203.32 97.2957 208.549 102.12 207.887 104.732Z" fill="#282724"/>
<path opacity="0.3" d="M207.887 104.732C207.131 106.491 206.075 108.105 204.767 109.504C204.349 109.974 203.896 110.444 203.425 110.914C202.518 111.837 201.56 112.725 200.653 113.561C197.535 116.463 194.012 118.898 190.194 120.788C190.669 121.64 190.951 122.584 191.02 123.556C191.09 124.528 190.945 125.504 190.595 126.414C189.828 128.068 188.469 128.26 187.387 130.036C186.01 132.282 186.795 134.32 186.585 135.661C186.557 135.834 186.511 136.003 186.446 136.166L186.393 136.271C186.355 136.382 186.303 136.487 186.237 136.584C186.215 136.611 186.198 136.64 186.184 136.671C186.167 136.689 186.149 136.706 186.149 136.723L186.062 136.81C186.039 136.855 186.01 136.896 185.975 136.932C185.922 137.001 185.864 137.065 185.801 137.125C185.717 137.215 185.623 137.297 185.523 137.368C185.436 137.456 185.33 137.525 185.227 137.612C185.034 137.734 184.825 137.856 184.617 137.978C183.959 138.316 183.27 138.59 182.56 138.797L182.037 138.953C181.877 139.004 181.714 139.045 181.549 139.075C181.531 139.093 181.531 139.093 181.514 139.093C181.13 139.197 180.712 139.302 180.276 139.389C180.206 139.406 180.119 139.424 180.049 139.441C179.912 139.473 179.772 139.496 179.631 139.511C179.405 139.563 179.178 139.615 178.951 139.65C178.93 139.662 178.906 139.668 178.882 139.667C178.672 139.72 178.463 139.754 178.237 139.789C178.044 139.824 177.836 139.859 177.644 139.894C177.295 139.946 176.947 140.016 176.581 140.068C176.04 140.155 175.483 140.242 174.891 140.329H174.839C173.967 140.469 173.061 140.607 172.137 140.73C172.067 140.747 171.997 140.747 171.928 140.764C171.196 140.869 170.446 140.991 169.679 141.113C168.163 141.357 166.576 141.618 164.974 141.914C164.172 142.053 163.369 142.21 162.551 142.384L161.348 142.645C161.191 142.68 161.052 142.715 160.895 142.75C160.617 142.819 160.337 142.871 160.058 142.942C159.221 143.151 158.385 143.36 157.548 143.586C157.217 143.691 156.868 143.795 156.52 143.882C156.327 143.935 156.153 143.987 155.962 144.039C155.96 144.039 155.957 144.04 155.955 144.04C155.953 144.041 155.951 144.043 155.949 144.044C155.948 144.046 155.946 144.048 155.946 144.05C155.945 144.052 155.944 144.054 155.944 144.057C155.893 144.077 155.84 144.094 155.787 144.109C155.264 144.266 154.742 144.44 154.219 144.614C153.957 144.701 153.678 144.806 153.417 144.892L152.58 145.205C152.04 145.414 151.499 145.623 150.959 145.85C150.715 145.954 150.453 146.059 150.211 146.163C149.932 146.285 149.635 146.424 149.356 146.564C148.921 146.773 148.485 146.982 148.067 147.19C147.962 147.243 147.857 147.295 147.77 147.347C147.265 147.608 146.759 147.887 146.271 148.166C146.236 147.992 146.149 147.73 145.94 147.661C145.574 147.539 145.138 148.148 144.528 149.228C144.42 149.298 144.315 149.373 144.214 149.455C143.429 149.977 142.673 150.541 141.948 151.144C141.705 151.336 141.478 151.527 141.251 151.736C141.092 151.86 140.941 151.994 140.798 152.136C140.694 152.223 140.606 152.31 140.52 152.398C140.463 152.439 140.411 152.486 140.363 152.537C140.241 152.641 140.137 152.746 140.032 152.85L139.561 153.32C138.104 154.898 136.835 156.64 135.779 158.51C135.765 158.526 135.753 158.543 135.744 158.562C135.727 158.58 135.727 158.597 135.692 158.614C135.692 158.632 135.657 158.667 135.622 158.702C135.518 158.841 135.378 159.015 135.186 159.241C135.082 159.363 134.977 159.485 134.855 159.607C134.594 159.903 134.28 160.234 133.914 160.6C133.862 160.635 133.809 160.687 133.74 160.739L133.531 160.948C133.228 161.221 132.901 161.466 132.554 161.68C132.367 161.818 132.169 161.94 131.962 162.045C131.638 162.244 131.3 162.418 130.951 162.568C130.758 162.655 130.55 162.742 130.341 162.829C130.085 162.947 129.823 163.052 129.556 163.143C129.278 163.247 128.981 163.352 128.685 163.439C128.578 163.49 128.468 163.53 128.353 163.56C128.197 163.631 128.033 163.683 127.865 163.717C127.465 163.856 127.064 163.978 126.646 164.1C125.862 164.344 125.043 164.588 124.189 164.832C124.729 164.327 125.339 163.752 125.931 163.125C126.106 162.933 126.28 162.759 126.454 162.55C126.756 162.227 127.036 161.884 127.291 161.523C128.499 159.97 129.313 158.147 129.662 156.211C130.586 150.708 126.454 149.681 124.833 139.562C124.049 134.704 124.415 133.014 123.875 131.203C123.474 129.862 123.282 128.869 122.585 128.626C121.121 128.138 120.092 131.499 117.409 132.301C112.911 133.659 108.571 126.397 105.207 127.93C103.063 128.905 103.516 132.493 101.773 132.719C100.274 132.911 98.1473 130.507 98.1473 128.226C98.1444 128.144 98.1502 128.063 98.1646 127.982C98.162 127.958 98.1682 127.933 98.1821 127.913C98.5356 126.386 99.3153 124.991 100.431 123.89C100.64 123.629 100.832 123.367 101.023 123.123C101.253 122.818 101.462 122.498 101.651 122.166C103.237 119.275 104.022 118.909 104.022 117.481C103.885 115.768 103.077 114.178 101.773 113.058C99.0886 96.3911 99.5243 79.4638 97.9208 62.7277C98.2519 62.6232 98.5656 62.5187 98.8969 62.4317C99.2105 62.3272 99.5418 62.2227 99.8556 62.1358C100.483 61.9434 101.093 61.7526 101.703 61.5609C102.087 61.4391 102.452 61.3346 102.819 61.2126C102.943 61.1799 103.066 61.1392 103.185 61.0908C103.499 61.0036 103.812 60.8985 104.109 60.813C105.625 60.3429 107.037 59.9074 108.379 59.4894C108.467 59.4546 108.554 59.4373 108.641 59.4025C108.885 59.3328 109.129 59.2456 109.373 59.176C112.214 58.2879 114.689 57.5216 116.833 56.8425C117.026 56.7901 117.217 56.7205 117.409 56.6681C117.548 56.616 117.687 56.5811 117.827 56.5288C118.141 56.4243 118.472 56.3365 118.768 56.2328C118.908 56.198 119.046 56.1459 119.169 56.1108C119.447 56.0238 119.71 55.9369 119.971 55.8497H120.006C120.25 55.7625 120.494 55.693 120.738 55.6059C121.365 55.4135 121.941 55.2227 122.481 55.0486L122.638 54.9962C122.725 54.9789 122.812 54.9441 122.899 54.9268C123.021 54.8744 123.161 54.8396 123.283 54.7872C123.331 54.7839 123.378 54.7722 123.422 54.7526C123.509 54.7178 123.615 54.7003 123.7 54.6654C123.753 54.6481 123.788 54.6306 123.84 54.6133C124.136 54.5261 124.433 54.421 124.711 54.3355C127.134 53.5344 128.512 53.064 129.069 52.8377C129.804 52.5406 130.555 52.2847 131.318 52.0714C132.521 51.6264 133.801 51.4251 135.082 51.4793C137.662 52.3676 132.345 65.5159 135.535 75.4077C138.934 85.8917 151.241 90.6286 153.454 91.4819C169.56 97.6816 178.695 86.9192 196.021 94.2171C203.32 97.2957 208.549 102.12 207.887 104.732Z" fill="#282724"/>
<path opacity="0.1" d="M89.9658 118.699C90.6979 119.866 91.3775 121.12 92.0405 122.304C91.6395 121.607 91.1862 120.824 90.6984 119.97C90.4364 119.535 90.1923 119.099 89.9658 118.699Z" fill="#282724"/>
<path opacity="0.1" d="M121.394 121.59C117.942 120.841 115.676 119.587 110.604 120.18C107.813 120.307 105.109 121.186 102.777 122.723C99.2214 125.283 99.0129 128.365 97.0599 128.452C96.0838 128.487 95.3168 127.756 93.626 124.986C94.6719 126.554 95.7178 127.599 96.8683 127.459C98.2104 127.303 98.3847 125.666 100.546 123.558C103.028 121.279 106.16 119.83 109.506 119.413C114.491 118.56 118.169 120.51 121.394 121.59Z" fill="#282724"/>
<path opacity="0.1" d="M84.3354 108.128C85.8948 111.722 87.737 115.187 89.8447 118.49C85.574 111.803 77.4687 104.732 70.8449 104.036C58.2944 102.747 47.5397 126.345 44.6809 124.725C43.0075 123.767 47.3305 116.122 48.934 102.834C49.9823 95.1481 49.7763 87.3436 48.324 79.7239C45.5863 66.3143 40.4975 65.4262 38.5974 54.7854C35.7213 38.8158 44.2801 24.6574 45.9011 24.9882C48.0278 25.4583 40.8107 44.3713 50.7295 60.8112C53.3903 65.3347 56.9 69.3025 61.0661 72.4968C61.0854 72.5286 61.0973 72.5643 61.101 72.6013C61.3064 73.6528 61.6038 74.6842 61.9899 75.6837C63.1404 78.5044 64.4128 79.5149 64.1165 80.4032C63.9596 80.8734 63.1228 81.2738 60.334 81.1512C65.1798 85.0174 66.8532 86.0273 67.4283 86.1493C67.4807 86.1666 68.1256 86.3235 69.0325 86.5325C69.2592 86.5846 69.4684 86.637 69.6955 86.7066C70.5646 86.9634 71.4011 87.3198 72.1881 87.7689C73.6991 88.4441 75.0173 89.4858 76.023 90.7992C77.1909 92.4873 76.7028 93.3068 77.7835 94.9612C79.0386 96.8944 80.4156 96.9293 81.7926 98.1665C84.2837 100.396 83.1849 103.217 84.3354 108.128Z" fill="#282724"/>
<path opacity="0.1" d="M97.7048 160.48C97.4199 160.656 97.0915 160.749 96.7564 160.749C96.4214 160.749 96.093 160.656 95.8081 160.48C93.4038 159.119 94.5286 152.244 95.65 152.111C96.8255 151.97 99.4467 159.065 97.7048 160.48Z" fill="#282724"/>
<path opacity="0.1" d="M67.5318 170.805C65.8267 171.13 64.0849 171.218 62.3558 171.066H62.3199C62.1631 171.049 61.9888 171.031 61.8144 170.997C61.5704 170.962 61.309 170.927 61.0301 170.875C60.8905 170.857 60.7164 170.822 60.5596 170.788C60.3853 170.753 60.2285 170.718 60.0715 170.683C59.2175 170.474 58.5551 170.265 57.9797 170.074C57.1084 169.743 56.4111 169.447 55.4871 169.168C55.7471 167.887 56.0907 166.625 56.5157 165.389C56.777 164.553 57.0735 163.63 57.4046 162.654C58.1194 160.494 58.9386 157.953 59.7753 154.956C63.6797 140.711 63.3311 131.063 64.5164 131.115C65.2486 131.132 65.6321 135.242 66.3986 143.445C66.817 148.077 66.8692 149.836 67.1472 158.125C67.1472 158.318 67.1472 158.508 67.1648 158.717C67.2169 160.389 67.2867 162.322 67.3573 164.586C67.4447 167.147 67.5151 169.185 67.5318 170.805Z" fill="#282724"/>
<path opacity="0.1" d="M50.7805 163.856C51.1968 165.393 51.3789 166.984 51.3208 168.576C49.1246 168.488 48.0439 168.853 45.9172 168.715C45.9348 168.697 45.9172 168.697 45.9172 168.697C45.7081 168.697 45.4989 168.68 45.2724 168.663C45.0632 168.628 44.854 168.61 44.6275 168.576C44.5628 168.579 44.4981 168.573 44.435 168.558C44.2943 168.543 44.1546 168.52 44.0167 168.488C43.8247 168.454 43.6504 168.419 43.4937 168.384C43.5286 167.722 43.5634 167.061 43.5983 166.416C44.0589 159.07 45.5251 151.822 47.956 144.874C49.7167 139.893 51.6515 136.149 52.122 136.305C52.8368 136.531 49.6294 144.925 50.0473 156.506C50.0649 157.133 50.0997 157.724 50.1346 158.3C50.1695 158.701 50.1868 159.101 50.2392 159.467C50.3797 161.244 50.5889 162.724 50.7805 163.856Z" fill="#282724"/>
<path opacity="0.1" d="M28.103 166.834C29.1975 159.739 30.9481 152.761 33.3322 145.989C34.9881 141.234 37.5853 134.877 38.3001 135.087C38.9974 135.296 37.4634 141.617 35.5635 153.094C34.6744 158.44 34.0119 163.073 33.5239 166.678L28.103 166.834Z" fill="#282724"/>
<path opacity="0.1" d="M23.3616 146.355C22.7168 148.863 22.228 151.179 21.8627 153.251C21.7755 153.774 21.6882 154.261 21.6011 154.749C21.3398 156.456 21.1479 157.954 21.0085 159.19C20.015 160.548 19.0215 161.907 18.0453 163.248C17.1211 163.634 16.1352 163.852 15.1341 163.892C14.7224 163.923 14.3091 163.929 13.8966 163.909C13.7398 163.892 13.6004 163.892 13.4609 163.874H13.4261C13.3731 163.877 13.3201 163.871 13.2691 163.857C12.7007 163.792 12.126 163.803 11.5608 163.892C11.4433 163.909 11.3269 163.932 11.2121 163.962C10.8964 164.034 10.5874 164.133 10.2884 164.258C10.5484 163.02 10.8802 161.799 11.2821 160.601C11.5086 159.904 11.7353 159.26 11.9967 158.633C12.633 157.032 13.4027 155.488 14.2976 154.017C16.093 151.109 17.9407 149.21 21.7057 142.958C24.9653 137.525 26.7782 133.624 27.1268 133.763C27.5276 133.937 25.2442 139.109 23.3616 146.355Z" fill="#282724"/>
<path opacity="0.1" d="M2.56949 162.676C1.53707 162.414 1.38093 158.877 1.69042 156.529C2.1618 153.603 3.41513 150.858 5.31811 148.585C12.4223 139.109 14.4082 132.927 15.1382 133.277C16.747 134.048 5.70267 163.473 2.56949 162.676Z" fill="#282724"/>
<path opacity="0.1" d="M38.9497 110.269C39.498 109.876 39.9787 109.395 40.3729 108.848C42.612 105.694 41.0224 101.367 41.5445 101.236C41.8493 101.16 42.6781 102.562 43.0768 104.298C43.7366 107.166 43.3675 111.563 40.6575 113.824C39.478 114.807 38.8395 114.566 30.2842 115.298C24.0092 115.835 22.1801 116.151 20.4241 117.608C18.6579 119.074 18.0057 120.832 17.3033 120.611C16.4465 120.341 15.7031 117.186 16.9765 115.224C20.0201 110.535 33.4144 114.439 38.9497 110.269Z" fill="#282724"/>
<g opacity="0.1">
<path opacity="0.1" d="M4.64076 163.369C4.62343 163.351 4.58835 163.334 4.57103 163.316C3.43605 162.731 2.12037 162.6 0.892225 162.951C0.805174 162.655 0.699731 162.324 0.614178 161.958C0.474726 161.383 0.336128 160.74 0.230683 160.025C0.701228 159.137 1.08472 158.858 1.48575 158.841H1.55548C1.63193 158.845 1.70778 158.857 1.78198 158.876C2.6187 159.085 3.38611 160.356 3.9959 161.749C4.23972 162.289 4.44912 162.846 4.64076 163.369Z" fill="#282724"/>
<path opacity="0.1" d="M13.426 163.874C13.373 163.876 13.32 163.871 13.269 163.856C12.7006 163.791 12.1259 163.802 11.5607 163.891C11.4432 163.908 11.3268 163.931 11.212 163.961C10.8963 164.033 10.5873 164.133 10.2883 164.257C8.63239 164.866 8.00485 165.772 6.90677 165.441C6.46271 165.299 6.089 164.994 5.86088 164.588C6.10492 164.013 6.34896 163.491 6.593 163.003C7.53409 161.07 8.38834 159.868 9.34718 159.712C9.43913 159.698 9.53222 159.692 9.62524 159.695C10.2723 159.776 10.8643 160.1 11.2813 160.601C12.1731 161.565 12.8979 162.671 13.426 163.874Z" fill="#282724"/>
<path opacity="0.1" d="M27.2142 166.451C24.3379 165.006 23.6233 162.359 20.6077 162.463C19.7073 162.538 18.8335 162.805 18.0454 163.247C17.1212 163.633 16.1353 163.852 15.1342 163.891C14.7225 163.922 14.3092 163.928 13.8967 163.909C13.7399 163.891 13.6005 163.891 13.461 163.874C13.7748 163.09 14.1241 162.289 14.4894 161.523C15.9536 158.441 17.7316 155.654 19.527 154.784C19.9491 154.559 20.4277 154.462 20.904 154.506C21.1523 154.531 21.3911 154.615 21.6012 154.75C22.3638 155.303 23.0096 156.001 23.5014 156.804C25.4165 159.717 26.6827 163.007 27.2142 166.451Z" fill="#282724"/>
<path opacity="0.1" d="M42.0651 168.019C40.4828 167.296 38.8033 166.809 37.0799 166.573C35.8961 166.428 34.6973 166.464 33.524 166.677C32.6871 166.852 32.0423 167.078 31.3277 167.183C30.9425 167.251 30.5505 167.275 30.1599 167.252C30.2294 167.078 30.2818 166.921 30.3524 166.765C33.2809 159.119 33.9082 157.778 34.8497 157.587C34.8937 157.567 34.9408 157.555 34.9889 157.552C35.0764 157.54 35.1653 157.546 35.2505 157.569C36.4532 157.622 37.5164 158.997 38.6496 160.548C40.3092 162.765 41.4739 165.313 42.0651 168.019Z" fill="#282724"/>
<path opacity="0.1" d="M57.9797 170.074C57.1083 169.743 56.411 169.447 55.4871 169.169C54.619 168.933 53.7328 168.77 52.8377 168.681C52.2799 168.629 51.7743 168.594 51.321 168.577C49.1249 168.489 48.0441 168.854 45.9175 168.716C45.7083 168.698 45.4991 168.681 45.2726 168.664C45.0634 168.629 44.8542 168.611 44.6277 168.577C44.9058 167.444 45.168 166.539 45.4642 165.564C46.7542 161.245 47.399 159.973 48.6725 159.538C48.7348 159.517 48.7996 159.506 48.865 159.503V159.485C49.3157 159.366 49.7887 159.36 50.2422 159.468C51.2837 159.723 52.2585 160.198 53.1008 160.861C54.6579 162.004 55.8456 163.579 56.5173 165.389C57.1171 166.914 57.6058 168.479 57.9797 170.074Z" fill="#282724"/>
<path opacity="0.1" d="M83.8302 171.485C79.7338 171.293 79.4898 170.196 73.5282 170.301C71.5199 170.324 69.5159 170.493 67.532 170.806C65.8269 171.13 64.0851 171.218 62.356 171.067L62.3211 171.049C62.1514 171.048 61.9821 171.031 61.8157 170.997C61.5717 170.962 61.3103 170.928 61.0314 170.875C61.2579 169.97 61.5541 168.89 61.9552 167.549C63.3846 162.777 64.134 160.374 65.1634 159.625C65.4704 159.409 65.7973 159.222 66.1396 159.068C66.4721 158.923 66.8162 158.807 67.1682 158.72C71.0553 157.709 76.5634 159.852 79.8752 163.021C81.993 165.396 83.3679 168.338 83.8302 171.485Z" fill="#282724"/>
<path opacity="0.1" d="M107.867 170.561C105.566 170.613 104.224 169.952 100.581 169.777C95.1602 169.5 93.7832 170.683 89.6518 171.258C89.251 171.31 88.8326 171.362 88.3621 171.397C88.206 171.417 88.0489 171.429 87.8915 171.432C87.63 171.449 87.351 171.467 87.0721 171.484C86.7408 171.501 86.3922 171.519 86.0438 171.519H85.6428V171.485C85.6577 171.379 85.681 171.274 85.7125 171.171C86.0848 168.09 87.1067 165.122 88.7107 162.464C89.0374 161.962 89.5414 161.601 90.1223 161.454C90.1568 161.426 90.2007 161.414 90.2445 161.419C91.4471 161.332 92.3191 163.004 94.7591 162.934C96.3104 162.882 96.781 162.186 98.0709 161.976C100.947 161.558 103.614 164.292 104.764 165.476C106.161 166.922 107.221 168.659 107.867 170.561Z" fill="#282724"/>
<path opacity="0.1" d="M126.641 164.1C125.856 164.344 125.037 164.588 124.183 164.832C122.422 165.371 120.54 165.946 118.588 166.695C113.759 168.558 113.323 169.656 110.5 170.23C110.293 170.283 110.083 170.323 109.872 170.352C109.847 170.35 109.823 170.356 109.802 170.37C109.75 170.37 109.715 170.387 109.663 170.387C109.157 170.474 108.687 170.509 108.268 170.544H108.094C108.059 170.317 108.024 170.109 107.989 169.9C107.778 168.575 107.702 167.233 107.763 165.894C107.837 164.708 108.268 163.573 109 162.637C109.199 162.39 109.421 162.163 109.663 161.958C110.011 161.656 110.391 161.393 110.797 161.174C112.052 160.588 113.375 160.161 114.737 159.903C117.317 159.048 120.11 159.085 122.668 160.008C123.992 160.765 125.112 161.836 125.927 163.125C126.152 163.421 126.397 163.752 126.641 164.1Z" fill="#282724"/>
</g>
<g opacity="0.31">
<path opacity="0.31" d="M29.0788 166.8C29.0991 166.903 29.1109 167.008 29.1139 167.113C29.0486 167.108 28.9841 167.097 28.9214 167.078C28.6251 167.009 28.3636 166.921 28.1022 166.834C27.7972 166.728 27.5001 166.6 27.2133 166.451C24.337 165.006 23.6224 162.359 20.6068 162.463C19.7064 162.538 18.8326 162.805 18.0445 163.247C17.1203 163.633 16.1344 163.852 15.1333 163.891C14.7216 163.922 14.3083 163.928 13.8958 163.909C13.739 163.891 13.5996 163.891 13.4601 163.874H13.4259C13.373 163.877 13.3199 163.871 13.2689 163.856C12.7005 163.791 12.1259 163.802 11.5606 163.891C11.4432 163.908 11.3268 163.931 11.212 163.961C10.8963 164.033 10.5873 164.133 10.2882 164.257C8.63233 164.866 8.0048 165.772 6.90672 165.441C6.46265 165.299 6.08895 164.994 5.86083 164.588C5.54681 164.098 5.13056 163.682 4.64062 163.369C4.62329 163.351 4.58822 163.334 4.57089 163.316C3.43591 162.731 2.12023 162.6 0.892083 162.951C0.805032 162.655 0.699589 162.324 0.614035 161.958C0.979991 160.844 1.29397 159.99 1.57266 159.346C1.64239 159.172 1.71211 159.015 1.78184 158.876C2.27014 157.883 2.67096 157.569 3.10664 157.552C3.92581 157.517 4.69281 158.545 5.32055 159.833C5.81627 160.86 6.24139 161.919 6.59295 163.003C6.71487 163.404 6.81945 163.751 6.90672 164.013C6.92404 164.1 6.97623 164.24 7.01131 164.379C7.63518 162.75 8.41754 161.187 9.34713 159.711C9.97446 158.84 10.5847 158.387 11.2469 158.405C11.5116 158.417 11.7691 158.495 11.9965 158.631C13.0726 159.353 13.9337 160.352 14.4891 161.522C14.6816 161.87 14.8726 162.236 15.0643 162.636C16.1033 159.788 17.6116 157.134 19.5267 154.782C20.1211 154.035 20.9398 153.498 21.8626 153.25C22.0804 153.203 22.3041 153.191 22.5256 153.215C23.0834 153.285 23.7805 153.615 25.1228 155.531C26.8217 158.08 28.0004 160.938 28.5916 163.943C28.8079 164.885 28.9706 165.839 29.0788 166.8Z" fill="#282724"/>
<path opacity="0.31" d="M43.5989 166.416C43.7818 167.098 43.9215 167.79 44.0173 168.489C43.8253 168.454 43.651 168.419 43.4943 168.385C43.0099 168.296 42.5323 168.174 42.0649 168.019C40.4827 167.297 38.8032 166.81 37.0797 166.573C35.896 166.429 34.6971 166.464 33.5239 166.678C32.687 166.852 32.0421 167.079 31.3275 167.183C31.375 167.028 31.4332 166.877 31.5018 166.73C33.0007 162.777 33.9596 160.322 34.6568 158.789V158.754C34.8834 158.284 35.0577 157.883 35.2495 157.57C35.7725 156.56 36.1384 156.333 36.609 156.281C37.9338 156.142 39.0321 157.605 40.2696 159.259C41.86 161.391 42.9934 163.827 43.5989 166.416Z" fill="#282724"/>
<path opacity="0.31" d="M60.0717 170.683C59.2177 170.474 58.5553 170.265 57.98 170.074C57.1086 169.743 56.4113 169.447 55.4874 169.168C54.6193 168.932 53.7331 168.769 52.838 168.68C52.2802 168.628 51.7746 168.593 51.3213 168.576C49.1252 168.489 48.0444 168.854 45.9178 168.715C45.9353 168.698 45.9178 168.698 45.9178 168.698C46.3361 166.869 46.6499 165.633 47.0682 164.274C47.4942 162.624 48.0961 161.024 48.8636 159.502V159.485C49.1414 158.958 49.5901 158.54 50.1362 158.301C50.1884 158.284 50.2232 158.266 50.2756 158.249C51.0684 158.127 51.8782 158.183 52.6468 158.412C53.4154 158.641 54.1236 159.037 54.7204 159.572C55.8381 160.382 56.7561 161.437 57.4048 162.655C58.6453 165.201 59.5421 167.901 60.0717 170.683Z" fill="#282724"/>
<path opacity="0.31" d="M85.7123 171.171C85.7296 171.275 85.7647 171.397 85.782 171.519H85.6426C84.9629 171.537 84.3702 171.519 83.8299 171.484C79.7336 171.292 79.4896 170.195 73.528 170.3C71.5197 170.324 69.5157 170.492 67.5317 170.805C65.8267 171.13 64.0849 171.218 62.3558 171.066H62.3198V171.049C62.5639 169.847 62.9476 168.367 63.5749 166.26C64.1651 163.776 65.0243 161.365 66.1372 159.067C66.3014 158.788 66.5209 158.545 66.7823 158.353C66.9003 158.271 67.0224 158.196 67.1482 158.127C70.7913 155.933 77.0316 157.9 80.919 161.227C81.1279 161.383 81.3022 161.557 81.4941 161.732C83.5683 163.734 84.6142 166.521 85.7123 171.171Z" fill="#282724"/>
<path opacity="0.31" d="M107.763 165.894C108.714 167.247 109.405 168.764 109.802 170.37C109.75 170.37 109.715 170.387 109.663 170.387C109.157 170.474 108.686 170.509 108.268 170.544H108.094C108.019 170.558 107.943 170.564 107.867 170.561C105.566 170.613 104.224 169.952 100.581 169.778C95.16 169.5 93.783 170.683 89.6516 171.258C89.2508 171.31 88.8325 171.362 88.3619 171.397C88.2058 171.417 88.0488 171.429 87.8914 171.432C87.6298 171.449 87.3509 171.467 87.072 171.484C87.3604 169.256 87.8505 167.059 88.5362 164.919C88.9127 163.7 89.4458 162.535 90.1224 161.453C90.2967 161.121 90.5414 160.83 90.8394 160.602C91.1373 160.373 91.4815 160.212 91.848 160.13C93.0509 160.042 93.9398 161.732 96.3802 161.645C97.9315 161.592 98.3847 160.897 99.674 160.704C100.811 160.702 101.935 160.946 102.967 161.422C104 161.897 104.916 162.591 105.653 163.456C105.931 163.734 106.176 163.978 106.368 164.187C106.882 164.714 107.349 165.285 107.763 165.894Z" fill="#282724"/>
<path opacity="0.31" d="M128.732 163.508C128.454 163.595 128.174 163.665 127.878 163.734L127.861 163.717C127.46 163.856 127.059 163.978 126.642 164.1C125.857 164.344 125.038 164.588 124.184 164.832C122.423 165.372 120.54 165.946 118.588 166.695C113.76 168.558 113.324 169.656 110.5 170.23C110.294 170.283 110.084 170.323 109.873 170.352C109.216 167.909 109.18 165.341 109.768 162.881C109.963 162.331 110.252 161.818 110.622 161.366C110.675 161.298 110.734 161.233 110.797 161.174C112.333 159.757 114.28 158.867 116.358 158.631C118.2 158.092 120.13 157.915 122.04 158.108C122.816 158.199 123.574 158.404 124.289 158.718C125.5 159.397 126.529 160.359 127.287 161.522C127.705 162.079 128.176 162.706 128.681 163.437C128.684 163.437 128.686 163.438 128.688 163.439C128.69 163.44 128.692 163.441 128.694 163.442C128.695 163.444 128.697 163.446 128.697 163.448C128.698 163.45 128.699 163.453 128.699 163.455C128.715 163.473 128.715 163.491 128.732 163.508Z" fill="#282724"/>
</g>
<path opacity="0.1" d="M63.2337 101.939C62.7431 102.287 62.1452 102.45 61.546 102.399C61.1606 102.431 60.7732 102.367 60.4186 102.213C60.0639 102.059 59.7531 101.819 59.5141 101.515C58.8887 100.407 60.4228 98.5381 61.6161 97.0873L61.6719 97.0157C61.9271 96.7671 62.2543 96.6053 62.6069 96.5534C62.9595 96.5015 63.3196 96.5622 63.6356 96.7269C63.8564 96.8643 64.0432 97.0497 64.1821 97.2694C64.321 97.4891 64.4085 97.7373 64.4379 97.9955C64.3104 97.8838 64.1593 97.8021 63.9959 97.7565C63.8326 97.711 63.661 97.7026 63.494 97.7322C62.5653 98.0592 62.561 100.809 63.1186 100.99C63.2756 101.041 63.5618 100.916 64.1284 100.086C64.1195 100.44 64.0351 100.789 63.8808 101.109C63.7266 101.428 63.506 101.712 63.2337 101.939Z" fill="#282724"/>
<path opacity="0.49" d="M61.6726 97.0158C62.1346 97.8426 62.3665 98.7779 62.3443 99.7245C62.322 100.671 62.0463 101.595 61.546 102.399C61.1606 102.431 60.7732 102.367 60.4186 102.213C60.0639 102.059 59.7531 101.819 59.5141 101.515C58.8887 100.407 60.4228 98.5382 61.6161 97.0874L61.6726 97.0158Z" fill="#282724"/>
<path opacity="0.1" d="M62.6352 94.5011C61.9533 94.608 61.6284 95.0879 59.3692 99.3091C58.6634 100.626 58.3156 101.296 58.4976 101.855C58.87 102.997 60.6112 103.436 61.7076 103.446C62.3613 103.437 63.0059 103.292 63.6006 103.021C64.1953 102.749 64.7271 102.358 65.1624 101.87C65.7496 101.151 66.1073 100.273 66.1891 99.3488H66.1867H66.179L66.1634 99.346C65.4402 100.573 64.464 101.631 63.2995 102.451C62.6689 102.74 61.9678 102.84 61.2815 102.739C60.7855 102.699 59.6635 102.6 59.2496 101.855C59.0901 101.568 58.9502 101.017 60.3109 98.5847C61.6269 96.2341 62.6018 95.2512 62.9192 95.2099C64.0436 95.0657 65.3586 96.2982 66.1679 98.1223C66.0549 97.1777 65.6451 96.2931 64.9973 95.5958C64.7096 95.2497 64.3483 94.9718 63.9398 94.7825C63.5312 94.5931 63.0856 94.497 62.6352 94.5011Z" fill="#282724"/>
</svg>
