<svg width="20" height="100" viewBox="0 0 20 100" fill="none" xmlns="http://www.w3.org/2000/svg">
<path d="M14.18 61.7195C12.9372 69.191 11.1898 76.5697 8.94971 83.8051C7.10255 89.6075 5.33569 93.844 3.59896 99.7368C0.587297 97.0163 1.03905 87.8307 0.215863 54.9132C0.215863 53.9093 0.165661 53.0459 0.145583 52.1826V30.6793C3.39203 24.43 4.27942 17.2206 2.64529 10.3706C3.53661 10.1007 4.45634 9.93566 5.38588 9.87872C8.76899 9.6679 10.2548 11.2239 11.4594 10.1899C12.6641 9.15592 12.0718 8.02152 13.4672 6.32494C14.1567 5.55587 14.9974 4.9373 15.9368 4.50791C17.4547 3.56144 18.673 2.20386 19.4504 0.59275C20.3639 26.0514 16.7399 47.4041 14.18 61.7195Z" fill="#F4D58C" stroke="#282724" stroke-width="0.29" stroke-miterlimit="10"/>
</svg>
