<svg width="141" height="164" viewBox="0 0 141 164" fill="none" xmlns="http://www.w3.org/2000/svg">
<path d="M127.929 79.4761C115.826 115.665 102.991 123.112 98.5858 125.269C92.659 127.639 86.9391 130.496 81.4848 133.811C69.6604 141.362 68.8593 145.833 60.0824 152.132C45.2281 162.814 28.5974 163.545 22.7983 163.736C15.1577 164.358 7.46787 163.579 0.10726 161.44L0.159591 161.388C1.16965 160.466 2.2323 159.456 3.32912 158.343C4.0316 157.856 4.76452 157.414 5.52339 157.021C9.64006 155.043 14.0611 153.772 18.6006 153.263C23.1282 152.568 25.636 151.959 30.6688 150.741C32.2744 150.453 33.7487 149.668 34.883 148.496C35.8018 147.216 36.4424 145.758 36.7633 144.216C37.736 141.808 39.0689 139.561 40.7164 137.553C43.3635 134.404 44.4257 135.326 46.1845 132.577C47.1755 130.581 48.0364 128.524 48.7619 126.418C50.2769 122.538 50.1899 122.66 50.3117 122.486C52.4363 119.441 55.6231 120.711 60.7606 117.527C61.91 116.814 65.6889 114.465 65.3761 112.047C65.2018 110.638 63.7735 110.133 64.0178 109.314C64.4879 107.696 70.2346 108.984 71.2098 106.913C71.3839 106.548 71.3491 106.182 71.0356 105.434C71.3319 105.49 71.6368 105.48 71.9288 105.405C72.2208 105.33 72.4925 105.191 72.7248 104.999C73.3872 104.321 72.812 103.259 72.9688 102.094C73.2996 99.3611 77.5137 96.8743 79.3076 97.8138C80.3001 98.3531 79.8474 99.571 80.7702 100.11C82.7904 101.328 87.7014 97.0307 90.2437 94.2992C92.6991 91.6896 92.2639 91.2545 94.7193 88.9408C97.262 86.5397 98.5853 86.1917 98.9334 84.5564C99.4386 82.1901 97.0353 81.181 97.5926 78.8323C98.0454 76.8663 99.839 77.1272 101.249 74.3608C102.382 72.1513 102.016 70.4289 102.956 70.1678C104.036 69.8546 104.994 72.0464 106.004 71.7689C107.571 71.3513 107.101 65.4882 107.78 65.4184C108.355 65.3836 109.051 69.4202 109.66 69.3679C110.218 69.3158 109.747 66.01 111.106 65.3315C112.725 64.5136 115.372 68.3416 116.731 67.663C118.489 66.7755 116.33 59.329 116.923 59.1725C117.411 59.0333 119.1 64.4268 119.866 64.2703C120.528 64.1309 119.674 60.077 121.294 54.9624C121.677 53.7967 122.391 51.5524 123.279 51.5697C124.672 51.6045 125.613 57.2938 125.874 57.2938C126.187 57.2242 123.889 47.8986 125.874 47.0113C126.797 46.5763 128.016 48.3685 128.904 47.8986C130.576 47.0286 128.138 39.8953 129.357 39.4081C130.001 39.1472 131.151 40.9915 131.586 40.7479C132.37 40.3128 129.322 34.2409 130.437 33.5108C131.029 33.1105 132.422 34.5197 132.84 34.1372C133.292 33.7369 131.777 32.3439 131.864 30.4652C131.986 28.0469 134.651 27.4726 134.546 25.4545C134.459 23.5927 132.126 23.1231 132.317 21.6093C132.491 20.0609 134.982 20.1132 135.713 18.0426C136.27 16.4594 135.051 15.833 135.539 14.1106C136.166 11.8836 138.465 11.9532 138.761 10.1612C139.109 8.03849 136.149 6.09001 136.88 4.97648C137.037 4.75018 137.176 4.81978 137.681 4.437C138.361 3.86462 138.883 3.12791 139.196 2.29704C139.479 1.61517 139.723 0.918122 139.928 0.209154H139.945C140.011 0.162221 140.081 0.121486 140.154 0.0874696C140.588 27.0497 136.455 53.8912 127.929 79.4761Z" fill="#F4D58C" stroke="#282724" stroke-width="0.1124" stroke-miterlimit="10"/>
<path opacity="0.3" d="M127.929 79.4761C115.826 115.665 102.991 123.112 98.5858 125.269C92.659 127.639 86.9391 130.496 81.4848 133.811C69.6604 141.362 68.8593 145.833 60.0824 152.132C45.2281 162.814 28.5974 163.545 22.7983 163.736C15.1577 164.358 7.46787 163.579 0.10726 161.44L0.159591 161.388C1.16965 160.466 2.2323 159.456 3.32912 158.343C4.0316 157.856 4.76452 157.414 5.52339 157.021C9.64006 155.043 14.0611 153.772 18.6006 153.263C23.1282 152.568 25.636 151.959 30.6688 150.741C32.2744 150.453 33.7487 149.668 34.883 148.496C35.8018 147.216 36.4424 145.758 36.7633 144.216L36.833 144.06C37.343 142.806 37.9545 141.595 38.6615 140.441L38.679 140.406C38.7835 140.232 38.888 140.058 39.0098 139.867C39.5272 139.059 40.0973 138.286 40.7164 137.553C40.8382 137.396 40.9602 137.275 41.0647 137.135C41.2216 136.961 41.3955 136.787 41.5696 136.613C41.7265 136.457 41.9006 136.3 42.0572 136.161C43.3284 135.029 44.1819 134.839 45.1048 133.916C45.1223 133.899 45.1398 133.882 45.1571 133.882C45.5474 133.486 45.892 133.049 46.1845 132.577C47.1755 130.581 48.0364 128.524 48.7619 126.418C50.2769 122.538 50.1899 122.66 50.3117 122.486C52.4363 119.441 55.6231 120.711 60.7606 117.527C61.91 116.814 65.6889 114.465 65.3761 112.047C65.2018 110.638 63.7735 110.133 64.0178 109.314C64.4879 107.696 70.2346 108.984 71.2098 106.913C71.3839 106.548 71.3491 106.182 71.0356 105.434C71.3319 105.49 71.6368 105.48 71.9288 105.405C72.2208 105.33 72.4925 105.191 72.7248 104.999C73.3872 104.321 72.812 103.259 72.9688 102.094C73.2996 99.3611 77.5137 96.8743 79.3076 97.8138C80.3001 98.3531 79.8474 99.571 80.7702 100.11C82.7904 101.328 87.7014 97.0307 90.2437 94.2992C92.6991 91.6896 92.2639 91.2545 94.7193 88.9408C97.262 86.5397 98.5853 86.1917 98.9334 84.5564C99.4386 82.1901 97.0353 81.181 97.5926 78.8323C98.0454 76.8663 99.839 77.1272 101.249 74.3608C102.382 72.1513 102.016 70.4289 102.956 70.1678C104.036 69.8546 104.994 72.0464 106.004 71.7689C107.571 71.3513 107.101 65.4882 107.78 65.4184C108.355 65.3836 109.051 69.4202 109.66 69.3679C110.218 69.3158 109.747 66.01 111.106 65.3315C112.725 64.5136 115.372 68.3416 116.731 67.663C118.489 66.7755 116.33 59.329 116.923 59.1725C117.411 59.0333 119.1 64.4268 119.866 64.2703C120.528 64.1309 119.674 60.077 121.294 54.9624C121.677 53.7967 122.391 51.5524 123.279 51.5697C123.575 51.5697 123.854 51.8472 124.098 52.2656C124.782 53.9078 125.375 55.5864 125.874 57.2938C126.187 57.2242 123.889 47.8986 125.874 47.0113C126.797 46.5763 128.016 48.3685 128.904 47.8986C130.576 47.0286 128.138 39.8953 129.357 39.4081C130.001 39.1472 131.151 40.9915 131.586 40.7479C132.37 40.3128 129.322 34.2409 130.437 33.5108C131.029 33.1105 132.422 34.5197 132.84 34.1372C133.292 33.7369 131.777 32.3439 131.864 30.4652C131.986 28.0469 134.651 27.4726 134.546 25.4545C134.459 23.5927 132.126 23.1231 132.317 21.6093C132.491 20.0609 134.982 20.1132 135.713 18.0426C136.27 16.4594 135.051 15.833 135.539 14.1106C136.166 11.8836 138.465 11.9532 138.761 10.1612C139.109 8.03849 136.149 6.09001 136.88 4.97648C137.037 4.75018 137.176 4.81978 137.681 4.437C138.361 3.86462 138.883 3.12791 139.196 2.29704C139.479 1.61517 139.723 0.918122 139.928 0.209154H139.945C140.011 0.162221 140.081 0.121486 140.154 0.0874696C140.588 27.0497 136.455 53.8912 127.929 79.4761Z" fill="#282724"/>
<path opacity="0.1" d="M127.929 79.4762C115.826 115.665 102.991 123.112 98.5858 125.269C92.659 127.639 86.9391 130.497 81.4848 133.811C69.6604 141.362 68.8593 145.834 60.0824 152.132C45.228 162.814 28.5973 163.545 22.7983 163.737C15.1577 164.358 7.46787 163.58 0.10726 161.44L0.159591 161.388C1.16965 160.466 2.2323 159.456 3.32912 158.343C4.0316 157.856 4.76452 157.414 5.52339 157.021C9.64005 155.043 14.0611 153.773 18.6006 153.263C23.1282 152.568 25.636 151.959 30.6688 150.741C32.2744 150.453 33.7487 149.668 34.883 148.496C35.8018 147.216 36.4424 145.759 36.7633 144.216L36.833 144.06L38.6615 140.441L38.679 140.406C38.7835 140.232 38.888 140.058 39.0098 139.867C39.4893 139.088 40.0309 138.349 40.6292 137.657C40.6643 137.622 40.6816 137.588 40.7164 137.553C40.8382 137.396 40.9602 137.275 41.0647 137.135C41.2216 136.961 41.3955 136.787 41.5696 136.613C41.7265 136.457 41.9006 136.3 42.0572 136.161C42.9847 135.3 44.0072 134.547 45.1048 133.916C45.1223 133.899 45.1398 133.882 45.1571 133.882C50.9559 130.472 54.1778 126.018 59.2104 123.721C65.4622 117.405 76.8165 124.069 91.5315 117.353C98.0588 113.835 103.749 108.951 108.215 103.034C120.875 87.1668 123.382 69.0029 124.096 52.2655C124.781 53.9076 125.374 55.5863 125.873 57.2937C126.186 57.2241 123.887 47.8985 125.873 47.0112C126.796 46.5761 128.015 48.3683 128.903 47.8985C130.575 47.0285 128.137 39.8951 129.356 39.408C130 39.1471 131.149 40.9914 131.585 40.7478C132.368 40.3127 129.321 34.2408 130.435 33.5107C131.027 33.1104 132.42 34.5196 132.838 34.137C133.291 33.7368 131.776 32.3438 131.863 30.4651C131.985 28.0468 134.65 27.4725 134.545 25.4544C134.458 23.5926 132.124 23.123 132.316 21.6091C132.49 20.0607 134.98 20.113 135.712 18.0425C136.269 16.4593 135.05 15.8329 135.538 14.1105C136.165 11.8834 138.463 11.953 138.759 10.161C139.108 8.03835 136.147 6.08989 136.879 4.97635C137.036 4.75006 137.175 4.81965 137.68 4.43688C138.36 3.8645 138.881 3.12777 139.195 2.2969C139.478 1.61503 139.722 0.918 139.927 0.209032H139.944C140.01 0.162099 140.08 0.121364 140.153 0.0873475C140.588 27.0496 136.455 53.8911 127.929 79.4762Z" fill="#282724"/>
</svg>
