<svg width="137" height="61" viewBox="0 0 137 61" fill="none" xmlns="http://www.w3.org/2000/svg">
<path d="M15.8915 57.0114C14.1845 55.4895 12.6395 53.7953 11.2812 51.9559C7.03316 46.012 4.68151 38.9247 4.53445 31.6225L11.3938 32.7459C11.4023 32.8447 11.4152 32.9924 11.4314 33.1714C11.5964 34.992 12.0001 39.0125 12.8557 43.8681C13.6422 48.2982 14.6555 52.685 15.8915 57.0114Z" fill="white" stroke="#282724" stroke-width="0.1124" stroke-miterlimit="10"/>
<path opacity="0.1" d="M15.8915 57.0114C14.1845 55.4895 12.6395 53.7953 11.2812 51.9559C7.03316 46.012 4.68151 38.9247 4.53445 31.6225L11.3938 32.7459C11.4023 32.8447 11.4152 32.9924 11.4314 33.1714C11.5964 34.992 12.0001 39.0125 12.8557 43.8681C13.6422 48.2982 14.6555 52.685 15.8915 57.0114Z" fill="#282724"/>
<path d="M10.7192 40.497C10.8085 44.4377 13.0652 49.5653 17.5786 59.8201C17.7671 60.2477 18.0875 60.9582 18.4774 60.9435C19.7366 60.8962 20.3414 53.3746 20.7264 48.5852C21.8903 34.1087 20.3118 32.0886 19.2645 31.1718C18.303 30.4268 17.1956 29.8918 16.0141 29.6015C14.8325 29.3112 13.603 29.2721 12.4054 29.4868C11.2118 33.0322 10.6413 36.7572 10.7192 40.497Z" fill="white" stroke="#282724" stroke-width="0.1124" stroke-miterlimit="10"/>
<path opacity="0.1" d="M10.7192 40.497C10.8085 44.4377 13.0652 49.5653 17.5786 59.8201C17.7671 60.2477 18.0875 60.9582 18.4774 60.9435C19.7366 60.8962 20.3414 53.3746 20.7264 48.5852C21.8903 34.1087 20.3118 32.0886 19.2645 31.1718C18.303 30.4268 17.1956 29.8918 16.0141 29.6015C14.8325 29.3112 13.603 29.2721 12.4054 29.4868C11.2118 33.0322 10.6413 36.7572 10.7192 40.497Z" fill="#282724"/>
<path d="M18.1708 30.4112C17.1421 33.8424 16.7362 37.4297 16.9723 41.0036C17.7091 51.624 24.2937 61.1476 26.4618 60.494C27.1201 60.2956 26.9923 59.2733 27.8113 56.4498C28.8694 53.2222 30.3036 50.1301 32.0841 47.2371C33.3973 44.2651 33.1195 38.9327 25.3374 28.5879L18.1708 30.4112Z" fill="white" stroke="#282724" stroke-width="0.1124" stroke-miterlimit="10"/>
<path opacity="0.1" d="M18.1708 30.4112C17.1421 33.8424 16.7362 37.4297 16.9723 41.0036C17.7091 51.624 24.2937 61.1476 26.4618 60.494C27.1203 60.2956 26.9925 59.2733 27.8113 56.4495C28.8694 53.222 30.3035 50.13 32.0841 47.2371C33.3973 44.2651 33.1195 38.9327 25.3374 28.5879L18.1708 30.4112Z" fill="#282724"/>
<path d="M27.8112 28.1392C26.1319 29.5951 26.4065 32.2004 27.0241 37.3513C27.7687 42.8078 29.3622 48.1146 31.7468 53.0796C34.9832 60.1755 36.4549 60.3716 36.9193 60.3819C38.7336 60.4221 40.3772 57.956 42.4293 54.8771C43.4718 53.4099 44.3398 51.8264 45.0156 50.1585C45.7811 48.1814 48.2728 41.747 44.903 35.5537C43.1135 32.417 40.2927 29.9957 36.9193 28.7009C35.2201 27.9983 30.3136 25.9695 27.8112 28.1392Z" fill="white" stroke="#282724" stroke-width="0.1124" stroke-miterlimit="10"/>
<path opacity="0.1" d="M44.903 35.5536C43.1135 32.4169 40.2927 29.9956 36.9193 28.7008C35.2201 27.9982 30.3136 25.9694 27.8112 28.1389C26.1319 29.5947 26.4065 32.2 27.0241 37.3512C27.7689 42.8077 29.3623 48.1144 31.7468 53.0795C34.9834 60.1754 36.4549 60.3715 36.9193 60.3818C38.7336 60.422 40.3772 57.9559 42.4293 54.877C43.4718 53.4098 44.3398 51.8262 45.0156 50.1584C45.7813 48.1811 48.2728 41.7469 44.903 35.5536ZM39.8604 52.7393C39.7534 53.2918 38.92 57.5588 37.8417 57.5475C36.4618 57.5331 35.3145 50.5172 35.1452 45.1197C35.0677 42.6539 34.8601 36.0272 36.102 35.8207C37.5735 35.5759 41.5129 44.2713 39.8604 52.7393Z" fill="#282724"/>
<path d="M46.7632 32.7194C44.605 33.7553 44.0344 36.7033 43.7787 38.0251C43.0141 41.9763 44.3647 45.2688 46.1401 49.5965C46.8318 51.499 47.8184 53.281 49.0636 54.8777C50.4435 56.5454 52.1089 58.5552 54.3495 58.6972C58.1208 58.9349 60.9773 53.7092 61.3212 53.0802C62.4587 50.9996 62.6571 47.6203 63.008 40.9468C63.3102 35.1977 63.1182 34.388 62.4456 33.7568C60.6535 32.0752 58.2605 34.3016 52.2497 33.2834C49.3433 32.7908 48.2735 31.9948 46.7632 32.7194Z" fill="white" stroke="#282724" stroke-width="0.1124" stroke-miterlimit="10"/>
<path opacity="0.1" d="M62.4448 33.7562C60.6527 32.0743 58.2597 34.301 52.2489 33.2828C49.3433 32.7911 48.2735 31.9946 46.7632 32.7196C44.605 33.7555 44.0344 36.7036 43.7787 38.0253C43.0141 41.9765 44.3647 45.269 46.1401 49.5968C46.8318 51.4993 47.8184 53.2814 49.0638 54.8779C50.4437 56.5456 52.1089 58.5554 54.3498 58.6974C58.121 58.9351 60.9777 53.7092 61.3214 53.0804C62.4589 50.9998 62.6573 47.6205 63.0082 40.9471C63.3098 35.197 63.1172 34.3871 62.4448 33.7562ZM61.6653 49.2181C61.2258 50.5843 60.6024 51.8845 59.8123 53.0829C59.4517 53.7762 58.9456 54.3836 58.3286 54.8636C57.7623 55.236 57.1093 55.4557 56.4329 55.5013C54.2231 55.5843 52.1065 52.0412 51.3395 49.8437C50.2754 46.5951 50.3797 43.0772 51.6347 39.8973C52.2125 38.5186 52.9649 36.8859 53.7799 36.9467C55.9689 37.1098 55.9317 49.3584 57.5419 49.443C59.2216 49.5313 61.2423 36.3065 61.7276 36.3899C61.9776 36.4327 61.6146 39.7125 61.6322 43.517C61.6463 46.4674 62.3455 47.1441 61.6653 49.2181Z" fill="#282724"/>
<path d="M75.4885 32.5205C67.4986 33.0536 65.4248 32.6274 64.2236 34.3477C63.7057 35.0899 63.548 35.9477 65.1439 43.3064C66.9558 51.6634 67.6126 52.6472 68.2923 53.4173C69.4621 54.6198 70.8602 55.5771 72.4049 56.2329C73.9496 56.8888 75.6097 57.2302 77.2881 57.237C77.5889 57.2398 84.2647 57.1994 87.5208 52.2937C88.7231 50.4826 88.869 47.8366 89.1104 42.6186C89.3783 36.8335 89.4866 33.9152 88.2193 32.6463C86.6067 31.0303 84.6781 31.9069 75.4885 32.5205Z" fill="white" stroke="#282724" stroke-width="0.1124" stroke-miterlimit="10"/>
<path opacity="0.1" d="M88.2199 32.6454C86.6078 31.0311 84.6791 31.9073 75.4895 32.5205C67.4996 33.0535 65.4259 32.6274 64.2247 34.3477C63.7068 35.0899 63.5493 35.9477 65.1449 43.3064C66.9569 51.6634 67.6137 52.6472 68.2933 53.4173C69.4631 54.6198 70.8613 55.5771 72.4059 56.233C73.9506 56.8888 75.6107 57.2302 77.2891 57.2371C77.59 57.2396 84.2657 57.1994 87.5218 52.2937C88.7241 50.4826 88.87 47.8366 89.1114 42.6184C89.3779 36.8326 89.4862 33.9141 88.2199 32.6454ZM88.0168 44.5647C87.2851 48.7126 86.4383 53.5123 84.8046 53.62C82.4899 53.7729 80.4061 44.3866 79.3703 44.6372C78.4152 44.8681 79.913 52.9151 78.7766 53.2082C78.1952 53.3579 77.2292 51.4 76.836 50.6034C75.074 46.6027 74.6278 42.1466 75.5616 37.8765C75.556 37.2941 75.6758 36.7174 75.9131 36.1854C76.1503 35.6534 76.4993 35.1786 76.9364 34.7933C77.7337 34.3097 78.6833 34.1419 79.5982 34.3229C83.6378 35.2611 84.5351 46.1448 84.9871 46.0757C85.4327 46.0077 83.595 35.5712 85.203 35.0683C85.9054 34.8487 87.1105 36.5725 87.687 37.7873C88.5422 39.9482 88.6577 42.3311 88.0157 44.5645L88.0168 44.5647Z" fill="#282724"/>
<path d="M92.4245 30.6882C91.1091 31.3733 90.0927 32.5189 89.5698 33.9058C89.1093 35.312 89.7751 37.1591 91.107 40.8529C91.6941 42.5357 92.4036 44.1733 93.2298 45.7526C93.7284 46.7827 94.3205 47.765 94.9985 48.6872C95.4184 49.2279 98.8198 53.7457 102.183 52.9728C103.608 52.6455 103.806 51.5441 106.044 50.7229C107.944 50.0252 108.821 50.7703 111.084 50.0799C112.097 49.7835 113.053 49.3201 113.913 48.709C116.833 46.4336 116.487 41.479 116.307 38.9032C116.019 34.7767 115.682 29.9499 112.692 28.4382C109.422 26.7848 107.254 31.2588 100.36 30.7953C96.9986 30.5684 94.9572 29.3324 92.4245 30.6882Z" fill="white" stroke="#282724" stroke-width="0.1124" stroke-miterlimit="10"/>
<path opacity="0.1" d="M116.307 38.9023C116.019 34.7758 115.682 29.949 112.692 28.4374C109.422 26.784 107.254 31.258 100.36 30.7944C96.9986 30.5682 94.9572 29.3324 92.4245 30.6875C91.1092 31.3728 90.0928 32.5183 89.5698 33.9052C89.1093 35.3116 89.7751 37.1587 91.107 40.8525C91.6941 42.5352 92.4035 44.1727 93.2298 45.752C93.7284 46.7822 94.3205 47.7645 94.9985 48.6868C95.4184 49.2275 98.8198 53.7453 102.183 52.9724C103.608 52.645 103.806 51.5437 106.044 50.7225C107.944 50.0248 108.821 50.7699 111.084 50.0795C112.097 49.783 113.053 49.3197 113.913 48.7086C116.833 46.4328 116.487 41.4781 116.307 38.9023ZM111.211 47.7233C108.474 47.5523 107.034 40.2517 106.517 40.3924C106.025 40.5258 107.53 47.0592 107.09 47.179C106.858 47.2418 106.021 45.5444 105.729 44.1959C105.233 41.9045 104.829 40.2074 104.664 39.206C103.815 34.0636 103.503 33.4309 104.057 32.8622C104.974 31.9214 106.254 33.2116 108.808 32.1667C110.11 31.6343 111.05 30.7848 111.773 31.1872C112.139 31.3908 112.252 31.8246 113.658 46.1052C113.726 46.7898 112.329 47.793 111.211 47.7233Z" fill="#282724"/>
<path d="M113.549 30.5385C113.945 33.4207 115.391 35.3986 117.934 38.9964C120.923 43.2275 121.091 43.5602 121.939 43.9806C124.191 44.8233 126.679 44.7873 128.905 43.8796C131.433 43.1882 134.7 42.2947 136.225 39.4495C137.139 37.7465 136.734 35.3942 135.923 30.6895C134.874 24.6012 133.569 23.5974 132.807 23.2089C131.876 22.8013 130.845 22.6774 129.843 22.8529C127.197 23.0896 126.676 24.5135 123.482 25.5835C123.394 25.6132 123.441 25.5965 119.112 26.4601C115.93 27.0957 114.327 27.4355 113.742 28.5127C113.452 29.1471 113.384 29.8607 113.549 30.5385Z" fill="white" stroke="#282724" stroke-width="0.1124" stroke-miterlimit="10"/>
<path opacity="0.1" d="M135.923 30.6882C134.874 24.5999 133.569 23.5959 132.807 23.2076C131.876 22.8 130.845 22.6761 129.843 22.8516C127.197 23.0883 126.676 24.5123 123.482 25.5822C123.394 25.6119 123.441 25.5952 119.112 26.4588C115.93 27.0945 114.327 27.4342 113.742 28.5114C113.452 29.1458 113.385 29.8593 113.55 30.537C113.946 33.4192 115.392 35.3971 117.934 38.9949C120.923 43.226 121.091 43.5587 121.94 43.9791C124.192 44.8218 126.679 44.7858 128.905 43.8781C131.434 43.1865 134.7 42.2932 136.226 39.448C137.138 37.7459 136.733 35.3935 135.923 30.6882ZM129.992 34.5643C128.894 34.887 129.783 40.5538 129.407 40.5974C128.743 38.732 128.3 36.7953 128.087 34.8269C128.038 34.4021 127.991 33.9768 127.934 33.553C127.923 33.4889 127.875 33.1652 127.867 33.1203C127.821 32.8468 127.774 32.5759 127.744 32.2992C127.701 31.902 127.682 31.5022 127.678 31.1019C127.575 29.9579 127.795 28.8079 128.313 27.7825C128.56 27.3781 128.933 27.0654 129.375 26.8918C129.817 26.7181 130.303 26.6931 130.76 26.8203C131.325 27.0092 131.82 27.3619 132.183 27.8334C132.212 27.8672 132.251 27.8915 132.277 27.9268L132.303 27.9653C132.443 28.1376 132.575 28.3162 132.702 28.4936C132.726 28.527 132.724 28.5669 132.744 28.6005C132.939 28.9324 135.502 39.3682 134.204 39.7672C133.217 40.0744 131.138 34.228 129.992 34.565V34.5643Z" fill="#282724"/>
<path opacity="0.1" d="M6.95037 37.5784C7.50892 37.6139 7.84491 38.006 8.85181 39.031C9.28111 39.468 9.92334 40.1133 10.7363 40.8946C11.3998 38.7137 13.0774 37.442 14.4446 37.6528C14.8831 37.7763 15.2921 37.9871 15.6469 38.2726C16.0017 38.5581 16.295 38.9124 16.5092 39.3141C16.9974 40.1352 17.1928 41.0973 17.0637 42.0436C17.48 40.9634 18.1451 39.9964 19.005 39.2206C19.8649 38.4449 20.8955 37.8823 22.0134 37.5784C23.7875 37.2052 25.6373 37.5305 27.1772 38.4864C28.2639 36.7698 29.9075 35.478 31.8333 34.8271C35.7808 33.6263 40.6379 35.7602 43.5608 40.3105C43.5494 39.7777 43.6523 39.2486 43.8628 38.7589C44.0732 38.2692 44.3862 37.8302 44.7807 37.4715C45.907 36.5844 47.0639 37.2489 49.9301 36.2955C50.6149 36.0678 50.7677 35.9566 51.6115 35.7046C52.63 35.4016 53.6721 35.1841 54.7268 35.0546C57.5024 34.4553 60.4001 34.8359 62.9262 36.1317C62.9977 36.1771 63.0666 36.228 63.1373 36.2752C63.0932 34.6094 62.8614 34.1465 62.4441 33.7551C60.652 32.0732 58.259 34.2998 52.2482 33.2817C49.3426 32.7899 48.2728 31.9935 46.7626 32.7185C45.7901 33.2425 45.0344 34.0931 44.6289 35.12C42.8235 32.2014 40.1175 29.948 36.9187 28.6997C35.2195 27.9971 30.313 25.9683 27.8106 28.1378C27.1632 28.724 26.7522 29.5262 26.655 30.3937C26.2409 29.8085 25.8041 29.2079 25.3371 28.5872L18.1705 30.4102L18.1686 30.417C16.3843 29.5372 14.3767 29.2129 12.4058 29.4861C12.0112 30.6727 11.6841 31.8807 11.4259 33.1042L11.3938 32.7439L4.53445 31.6206C4.55286 32.1812 4.58388 32.7561 4.62754 33.3454C4.75677 35.0574 4.99422 36.7595 5.33847 38.4416C5.5279 38.189 5.77034 37.9808 6.04879 37.8317C6.32723 37.6826 6.63495 37.5961 6.95037 37.5784Z" fill="#282724"/>
<path opacity="0.1" d="M64.6973 41.194C66.3171 39.1931 68.3086 37.5238 70.5623 36.2778C73.7367 34.7805 77.1618 33.8854 80.6634 33.6379C83.3345 33.2247 86.0481 33.1617 88.7355 33.4504C88.613 33.1535 88.4382 32.8808 88.2196 32.6454C86.6075 31.0311 84.6788 31.9073 75.4892 32.5205C67.4993 33.0535 65.4256 32.6274 64.2243 34.3477C63.9354 34.7619 63.7595 35.2148 63.9367 36.8102L64.6973 41.194Z" fill="#282724"/>
<path opacity="0.1" d="M90.3904 33.6329C93.7566 34.4529 97.2625 34.5207 100.658 33.8315C103.975 32.8234 107.042 31.3565 110.457 30.5912C113.742 29.8551 117.105 29.5508 120.392 28.8499C123.384 28.2119 126.147 26.7674 129.16 26.2214C131.099 25.8539 133.1 25.9854 134.974 26.6035C134.168 24.085 133.349 23.4848 132.807 23.2081C131.876 22.8005 130.845 22.6767 129.843 22.8521C127.197 23.0888 126.676 24.5128 123.482 25.5827C123.394 25.6124 123.441 25.5958 119.112 26.4594C115.93 27.095 114.327 27.4347 113.742 28.5119C113.654 28.6814 113.59 28.8623 113.551 29.0494C113.293 28.8088 113.004 28.603 112.692 28.4371C109.422 26.7837 107.254 31.2577 100.36 30.7941C96.9987 30.5679 94.9572 29.3321 92.4245 30.6872C91.2323 31.3238 90.2808 32.332 89.7147 33.5585C89.9405 33.5865 90.1637 33.6006 90.3904 33.6329Z" fill="#282724"/>
<path d="M5.99539 4.40704C5.07217 4.4451 4.3148 5.82205 2.56573 11.8648C0.571218 19.2511 -0.242765 26.9059 0.153881 34.546C0.138487 34.9423 0.211098 35.3371 0.366502 35.702C0.521905 36.067 0.756247 36.393 1.05271 36.6567C2.56872 37.5868 5.81926 35.3384 7.50863 33.6333C14.6164 26.4584 10.3048 12.5301 9.79271 10.8755C9.28381 9.23103 7.76779 4.33391 5.99539 4.40704Z" fill="white" stroke="#282724" stroke-width="0.1124" stroke-miterlimit="10"/>
<path d="M14.1367 5.25694C12.3022 5.19151 10.8343 8.85944 8.65467 14.3056C6.63324 19.6492 5.71443 25.3461 5.95348 31.0536C5.87537 34.633 6.14438 35.6599 6.90688 36.2129C9.06278 37.7758 14.5041 35.0709 17.3144 31.6091C24.3831 22.9055 18.0902 5.39827 14.1367 5.25694Z" fill="white" stroke="#282724" stroke-width="0.1124" stroke-miterlimit="10"/>
<path d="M25.4129 0.0704941C21.8616 -0.347506 17.9381 8.59191 16.4032 13.9752C15.2349 19.0024 15.0604 24.2091 15.8896 29.3031C16.1205 30.9301 16.7114 32.4852 17.6194 33.8554C18.3042 34.874 19.3653 36.4491 20.9311 36.5804C21.8708 36.6593 22.5576 36.1817 24.7043 34.5064C27.4506 32.3651 28.8237 31.2944 29.116 30.9833C31.6665 28.2689 31.8968 24.5711 32.1637 20.2852C32.8288 9.60111 28.8894 3.64222 28.0107 2.37796C26.6774 0.461572 25.9819 0.138486 25.4129 0.0704941Z" fill="white" stroke="#282724" stroke-width="0.1124" stroke-miterlimit="10"/>
<path d="M39.5144 3.12521C38.4056 3.23019 37.8734 4.475 34.1377 14.2459C33.7024 15.384 32.9356 18.5544 31.4021 24.8952C31.0929 25.6644 30.9499 26.4903 30.9825 27.3186C31.015 28.1469 31.2223 28.959 31.5908 29.7017C31.9067 30.1438 32.2958 30.4382 34.9867 31.7756C36.1511 32.4031 37.3475 32.9693 38.5711 33.472C39.9579 33.7291 41.3895 33.5813 42.6944 33.0465C43.9993 32.5116 45.1223 31.6123 45.9288 30.4562C46.4975 29.539 46.8243 28.4927 46.8786 27.4152C47.4707 20.3876 48.114 12.7503 43.1795 6.1145C41.9419 4.44956 40.8353 2.99971 39.5144 3.12521Z" fill="white" stroke="#282724" stroke-width="0.1124" stroke-miterlimit="10"/>
<path d="M53.1919 5.10419C51.9188 5.5363 51.2791 6.82023 49.9846 11.1358C48.615 16.0075 47.6159 20.9757 46.9958 25.9979C46.6055 28.4544 46.3793 30.0259 47.3434 31.2094C48.1223 32.1653 48.6738 31.637 52.2486 33.2833C53.3732 34.0004 54.6883 34.3618 56.0217 34.3201C56.5458 34.2407 57.0547 34.0821 57.5309 33.8497C62.039 31.9603 62.4593 32.1234 63.0964 31.3995C63.7506 30.6558 63.9806 29.7187 63.9453 26.8759C64.0405 23.7424 63.7162 20.6103 62.981 17.5627C61.7013 12.3295 60.8157 8.70924 57.6253 6.4251C57.0306 5.89032 56.3243 5.49433 55.5575 5.26588C54.7907 5.03742 53.9827 4.98221 53.1919 5.10419Z" fill="white" stroke="#282724" stroke-width="0.1124" stroke-miterlimit="10"/>
<path d="M69.6996 5.19852C68.6642 5.93702 67.9261 8.33982 66.4925 13.1148C64.0038 21.4034 65.3895 19.9401 64.2285 29.513C64.1575 29.8362 64.1544 30.1706 64.2194 30.495C64.2843 30.8195 64.4159 31.1269 64.6058 31.398C65.0869 31.931 65.7674 31.8551 67.4358 31.8684C71.0791 31.899 71.9879 32.296 73.7556 31.5855C74.1477 31.4279 74.5263 31.2388 74.8877 31.0202C76.1905 31.357 77.5139 31.6088 78.8494 31.7741C82.1879 32.1867 87.9102 32.8944 89.8859 30.2661C90.7041 29.1778 90.6677 27.7993 89.9803 24.4231C88.2068 15.7124 87.32 11.3569 84.4149 8.5904C80.4718 4.83653 73.4607 2.51626 69.6996 5.19852Z" fill="white" stroke="#282724" stroke-width="0.1124" stroke-miterlimit="10"/>
<path d="M94.79 6.98915C95.9933 6.89315 96.8695 8.58012 99.3179 8.49694C100.861 8.44477 101.328 7.74689 102.619 7.55467C105.507 7.1247 108.177 9.86959 109.318 11.0415C112.055 14.1743 113.563 18.1921 113.563 22.3506C113.807 25.0726 113.399 25.8755 113.092 26.3089C111.383 28.7142 106.71 28.2907 105.64 28.1936C102.713 27.9285 102.196 26.9729 100.169 27.4397C98.5424 27.8145 98.3162 28.5588 96.1125 29.3246C94.7331 29.9793 93.1897 30.2089 91.6792 29.9842C87.3105 28.1707 90.6723 7.31863 94.79 6.98915Z" fill="white" stroke="#282724" stroke-width="0.1124" stroke-miterlimit="10"/>
<path d="M127.24 5.57562C124.68 4.65706 121.885 4.62333 119.303 5.47983C117.134 5.71262 115.109 6.67714 113.562 8.21426C111.689 10.5119 112.195 13.5296 113.092 18.8637C113.83 23.2608 114.199 25.4594 115.827 26.3089C118.046 27.4664 121.64 25.9578 124.694 22.8218C125.854 22.9464 127.024 22.9464 128.184 22.8218C130.75 22.5438 130.56 21.933 133.655 21.4083C134.49 21.2668 135.041 21.2199 135.448 20.7485C135.88 20.246 135.981 19.4552 135.636 17.9213C135.259 16.2462 134.588 14.6509 133.655 13.2091C130.515 8.61538 128.945 6.3184 127.24 5.57562Z" fill="white" stroke="#282724" stroke-width="0.1124" stroke-miterlimit="10"/>
<path opacity="0.1" d="M63.9454 26.8742C64.0405 23.7409 63.7162 20.6088 62.9811 17.5613C61.7013 12.328 60.8158 8.70781 57.6254 6.42368C57.0305 5.88915 56.3241 5.49346 55.5574 5.26526C54.7906 5.03707 53.9827 4.98208 53.192 5.10426C51.9187 5.53637 51.2792 6.8203 49.9847 11.1359C48.6151 16.0076 47.6159 20.9758 46.9959 25.998C47.5309 19.3699 47.7847 12.3062 43.1795 6.11364C41.9419 4.44934 40.8353 2.99993 39.5145 3.12501C38.4057 3.22999 37.8737 4.47458 34.1378 14.2457C33.7662 15.2177 33.1482 17.691 32.0219 22.3361C32.0739 21.6677 32.1205 20.9891 32.1642 20.2865C32.8295 9.60241 28.8899 3.6435 28.0112 2.37923C26.6775 0.461354 25.982 0.138283 25.4129 0.0700772C22.7475 -0.243797 19.8725 4.71426 17.955 9.4833C16.7605 6.95799 15.3407 5.29862 14.1365 5.25564C12.6762 5.20347 11.4426 7.54126 9.90285 11.2353C9.86005 11.0926 9.81874 10.9573 9.79285 10.8741C9.28394 9.22972 7.76792 4.33154 5.99553 4.40573C5.07252 4.44379 4.31494 5.82074 2.56586 11.8635C0.57133 19.2498 -0.242656 26.9045 0.154012 34.5447C0.138695 34.9409 0.211342 35.3356 0.366741 35.7005C0.522141 36.0654 0.756442 36.3915 1.05284 36.6552C2.22131 37.3723 4.41466 36.1993 6.13506 34.8436C6.2017 35.3836 6.47914 35.8754 6.90698 36.212C8.92505 37.6751 13.8209 35.3978 16.7444 32.2612C16.989 32.8171 17.282 33.3506 17.6199 33.8553C18.3047 34.8739 19.3658 36.4491 20.9317 36.5804C21.8714 36.6593 22.5581 36.1816 24.705 34.5064C27.4511 32.3651 28.8242 31.2943 29.1167 30.9832C29.9471 30.0836 30.5861 29.0251 30.9951 27.8716C31.0144 28.5255 31.2212 29.1602 31.5909 29.7001C31.9067 30.1423 32.2958 30.4367 34.9867 31.7741C36.1511 32.4015 37.3476 32.9678 38.5711 33.4705C39.9579 33.7276 41.3895 33.5798 42.6944 33.045C43.9994 32.5101 45.1223 31.6108 45.9289 30.4547C46.269 29.9246 46.5198 29.3424 46.6715 28.7312C46.576 29.6121 46.816 30.4966 47.3439 31.2086C48.1226 32.1645 48.6741 31.6349 52.2489 33.2825C53.3735 33.9997 54.6885 34.361 56.022 34.3193C56.5461 34.2399 57.055 34.0814 57.5312 33.8489C62.0392 31.9595 62.4596 32.1226 63.0966 31.3987C63.7507 30.6544 63.9807 29.7173 63.9454 26.8742ZM29.5467 21.1869C29.1762 23.2834 28.521 25.3195 27.5992 27.239C26.4363 29.7361 24.5342 33.8198 23.0516 33.5951C20.763 33.2483 19.5684 22.6466 21.6439 13.1168C22.1857 10.6318 22.9512 8.2009 23.9312 5.85365C24.3145 4.35826 24.7403 4.05956 25.029 4.02235C26.8303 3.7908 30.9566 12.7591 29.5467 21.1875V21.1869ZM44.3645 27.4943C43.8669 29.4692 43.4697 30.9533 42.1891 31.518C41.4373 31.7533 40.6336 31.7678 39.8738 31.5597C39.114 31.3515 38.4301 30.9295 37.9036 30.3439C36.2558 28.5943 36.5607 25.7399 37.1884 22.031C37.4044 20.7547 37.6505 19.4652 37.9633 18.2097C38.5125 16.0075 38.661 15.4599 39.4012 12.5793C40.6162 7.8515 40.6617 7.01079 41.1499 6.9475C42.1643 6.81601 43.4948 10.2466 44.085 12.4923C44.4854 14.294 44.7051 16.1312 44.7407 17.9765C45.1262 21.1492 44.9992 24.3633 44.3645 27.4958V27.4943ZM61.8349 26.7047C61.7947 27.9979 61.3321 29.2424 60.5177 30.2484C59.7033 31.2544 58.5819 31.9665 57.3245 32.2761C57.0745 32.3477 56.8112 32.3602 56.5555 32.3125C56.2499 32.2138 55.9688 32.0509 55.7314 31.8347C55.4939 31.6185 55.3055 31.3541 55.1788 31.0591C53.9376 28.8028 55.4523 20.0814 54.9648 13.1027C54.839 11.3022 54.485 8.26052 55.5174 7.85963C55.6974 7.82171 55.8836 7.8247 56.0623 7.8684C56.2409 7.91211 56.4075 7.99543 56.5496 8.11214C60.4588 10.4617 60.9328 16.3823 61.3938 20.4315C61.7475 22.5034 61.8952 24.6052 61.8349 26.7061V26.7047Z" fill="#282724"/>
<path opacity="0.1" d="M135.635 17.9213C135.258 16.2462 134.588 14.6509 133.654 13.2091C130.515 8.61541 128.945 6.31822 127.24 5.57608C124.68 4.65757 121.885 4.62394 119.303 5.48052C117.134 5.71331 115.109 6.67783 113.562 8.21494C111.795 10.3826 112.152 13.2168 112.949 18.0064C112.422 15.3886 111.163 12.9738 109.318 11.0422C108.178 9.87026 105.508 7.12536 102.62 7.55533C101.329 7.74776 100.862 8.44544 99.3188 8.49761C96.8704 8.58078 95.9943 6.89403 94.7911 6.98981C92.1184 7.20362 89.7671 16.0554 89.6372 22.7438C88.0801 15.1437 87.1265 11.1741 84.4155 8.59189C80.4724 4.83717 73.4613 2.51667 69.7002 5.19913C68.6648 5.93763 67.9267 8.34022 66.4931 13.1155C64.0044 21.404 65.3901 19.9407 64.2291 29.5137C64.1581 29.8369 64.155 30.1712 64.22 30.4957C64.285 30.8201 64.4166 31.1276 64.6066 31.3986C65.0873 31.9316 65.768 31.8557 67.4364 31.869C71.0797 31.8998 71.9886 32.2966 73.7562 31.5863C74.1483 31.4288 74.5269 31.2397 74.8883 31.0208C76.1912 31.3578 77.5146 31.6097 78.8502 31.7749C82.1874 32.1876 87.9108 32.8953 89.8865 30.2669C90.2335 29.7947 90.436 29.2321 90.4693 28.6473C90.6925 29.2274 91.1236 29.7039 91.6788 29.9843C93.1894 30.2089 94.7327 29.9792 96.1122 29.3246C98.3164 28.5588 98.5416 27.8145 100.168 27.4397C102.195 26.973 102.713 27.9283 105.64 28.1936C106.71 28.2907 111.383 28.7142 113.091 26.3089C113.399 25.8755 113.808 25.0726 113.562 22.3506C113.51 21.7761 113.447 21.15 113.37 20.505C113.949 23.819 114.415 25.5723 115.826 26.3089C118.044 27.4664 121.638 25.9578 124.692 22.8218C125.852 22.9463 127.022 22.9463 128.183 22.8218C130.748 22.5439 130.558 21.933 133.654 21.4081C134.488 21.2668 135.04 21.22 135.446 20.7485C135.879 20.2461 135.98 19.455 135.635 17.9213ZM84.7072 29.7022C82.7811 30.5757 78.9718 29.1076 76.8448 29.3905C75.8637 29.6049 74.8497 29.6225 73.8617 29.4423L73.832 29.4391C73.2687 29.3952 72.7208 29.2346 72.2231 28.9674C71.7255 28.7002 71.289 28.3324 70.9415 27.8873C70.5941 27.4422 70.3433 26.9296 70.2051 26.3823C70.067 25.835 70.0445 25.265 70.1391 24.7085C70.0989 23.1571 70.3082 21.599 70.3657 20.0487C70.4105 18.2982 70.5616 16.5521 70.8184 14.82C71.384 9.56388 71.6667 6.93592 72.4108 6.34303C73.2021 5.88035 74.1023 5.63617 75.0192 5.63549C75.9361 5.63481 76.8367 5.87766 77.6287 6.33918C82.1825 8.74732 81.8859 16.9884 82.722 16.9241C83.4608 16.8672 83.0726 10.4822 83.6682 10.4093C84.6639 10.2878 88.7679 27.8609 84.7072 29.7027V29.7022ZM110.944 26.1551C110.143 26.7109 109.212 27.0507 108.241 27.1416C107.27 27.2326 106.292 27.0716 105.402 26.6743C104.821 26.2308 104.166 25.8946 103.467 25.6817C102.483 25.5451 101.482 25.5943 100.516 25.8269C99.4817 25.9946 99.6255 26.0332 99.0274 26.1109C97.9802 26.2871 96.9048 26.0704 96.008 25.5024C95.3521 25.0337 94.8677 24.3635 94.6287 23.5941C94.2278 22.2737 94.0541 20.8948 94.1151 19.5163C94.0996 18.0689 94.244 16.6241 94.5457 15.2082C94.7403 14.2916 95.1846 13.4465 95.8297 12.7663C96.176 12.2972 96.6607 11.9485 97.2158 11.7691C99.3054 11.5125 101.027 18.6925 102.6 18.5182C104.173 18.344 103.537 11.0477 105.228 10.6689C107.599 10.1388 114.168 23.3442 110.945 26.1553L110.944 26.1551ZM124.015 19.7725C123.784 20.187 122.098 23.1507 120.434 22.9035C119.068 22.7002 118.504 20.4477 117.68 17.1636C116.929 14.167 116.274 11.554 117.665 10.2553C117.96 9.97096 118.32 9.76311 118.714 9.64988C119.108 9.53666 119.524 9.52151 119.926 9.60577C122.039 10.2029 122.104 14.4719 122.907 14.4606C123.886 14.4469 123.565 8.1243 125.465 7.61735C126.955 7.21967 127.988 10.8858 132.479 16.6991C132.779 17.005 133.01 17.3721 133.155 17.7751C133.3 18.1782 133.356 18.6078 133.32 19.0346C132.969 20.4603 130.716 20.9845 130.218 21.1004C128.056 21.487 125.829 21.0103 124.016 19.7729L124.015 19.7725Z" fill="#282724"/>
</svg>
