<svg width="2356" height="1650" viewBox="0 0 2356 1650" fill="none" xmlns="http://www.w3.org/2000/svg">
<g clip-path="url(#clip0_4611_296484)">
<path d="M529.119 273.401H556.805" stroke="#073E64" stroke-width="2" stroke-miterlimit="10"/>
<path d="M529.119 293.806H553.895" stroke="#073E64" stroke-width="2" stroke-miterlimit="10"/>
<path d="M268.06 535.12C415.554 535.12 535.12 415.554 535.12 268.06C535.12 120.567 415.554 1.00023 268.06 1.00023C120.567 1.00023 1.00023 120.567 1.00023 268.06C1.00023 415.554 120.567 535.12 268.06 535.12Z" fill="#A4BCD9" stroke="#073E64" stroke-width="2" stroke-miterlimit="10"/>
<path d="M268.06 370.123C324.428 370.123 370.123 324.428 370.123 268.06C370.123 211.692 324.428 165.997 268.06 165.997C211.692 165.997 165.997 211.692 165.997 268.06C165.997 324.428 211.692 370.123 268.06 370.123Z" fill="#004475" stroke="#073E64" stroke-width="2" stroke-miterlimit="10"/>
<path d="M240.524 142.222C240.524 142.222 141.412 163.117 133.64 267.08" stroke="#004475" stroke-width="17.1223" stroke-miterlimit="10" stroke-linecap="round"/>
<path d="M206.516 107.234C206.516 107.234 86.5095 147.073 91.3706 290.885" stroke="#004475" stroke-width="17.1223" stroke-miterlimit="10" stroke-linecap="round"/>
<path d="M107.884 122.788C107.884 122.788 58.3231 174.289 49.5812 247.166" stroke="#004475" stroke-width="17.1223" stroke-miterlimit="10" stroke-linecap="round"/>
<path d="M319.712 153.885C319.712 153.885 364.172 170.888 378.985 216.559" stroke="#004475" stroke-width="17.1223" stroke-miterlimit="10" stroke-linecap="round"/>
<path d="M303.438 103.593C303.438 103.593 419.794 126.188 433.397 251.046" stroke="#004475" stroke-width="17.1223" stroke-miterlimit="10" stroke-linecap="round"/>
<path d="M331.865 66.9151C331.865 66.9151 473.246 116.476 475.677 256.878" stroke="#004475" stroke-width="17.1223" stroke-miterlimit="10" stroke-linecap="round"/>
<path d="M166.007 357.941C166.007 357.941 270.161 458.513 364.412 351.139" stroke="#004475" stroke-width="17.1223" stroke-miterlimit="10" stroke-linecap="round"/>
<path d="M176.39 419.634C176.39 419.634 266.27 477.447 364.412 410.892" stroke="#004475" stroke-width="17.1223" stroke-miterlimit="10" stroke-linecap="round"/>
<path d="M115.656 428.867C115.656 428.867 178.82 495.431 284.244 486.199" stroke="#004475" stroke-width="17.1223" stroke-miterlimit="10" stroke-linecap="round"/>
<path d="M277.212 439.499C274.432 443.42 272.991 447.381 271.871 451.352C270.811 455.322 270.291 459.313 270.191 463.314C270.091 467.315 270.381 471.326 271.211 475.357C272.091 479.388 273.291 483.429 275.802 487.5L241.184 486.479C243.935 482.559 245.365 478.598 246.485 474.627C247.546 470.656 248.076 466.665 248.206 462.664C248.336 458.663 248.046 454.652 247.226 450.621C246.345 446.59 245.145 442.55 242.595 438.479L277.212 439.499Z" fill="#004474"/>
<path d="M244.235 398.17C241.414 400.73 239.624 403.541 238.094 406.421C236.593 409.312 235.513 412.303 234.753 415.373C234.003 418.444 233.533 421.595 233.503 424.856C233.493 428.116 233.733 431.447 234.983 435.018L208.387 428.346C211.178 425.786 212.958 422.965 214.498 420.085C215.999 417.194 217.079 414.203 217.869 411.133C218.649 408.062 219.109 404.921 219.149 401.66C219.159 398.4 218.909 395.069 217.639 391.488L244.235 398.17Z" fill="#004474"/>
<path d="M74.6068 171.939C77.1474 174.769 79.948 176.58 82.8186 178.12C85.6993 179.64 88.68 180.731 91.7507 181.511C94.8213 182.281 97.962 182.771 101.223 182.821C104.484 182.851 107.814 182.631 111.395 181.401L104.564 207.957C102.013 205.146 99.2123 203.346 96.3417 201.795C93.461 200.275 90.4804 199.175 87.4197 198.375C84.359 197.574 81.2083 197.094 77.9575 197.034C74.6968 197.004 71.3661 197.234 67.7753 198.485L74.6068 171.939Z" fill="#004474"/>
<path d="M184.451 122.107C184.191 125.908 184.842 129.179 185.742 132.31C186.662 135.43 187.952 138.341 189.533 141.082C191.123 143.822 192.963 146.413 195.194 148.783C197.444 151.144 199.925 153.374 203.306 155.085L179.5 168.688C179.74 164.907 179.07 161.636 178.19 158.496C177.28 155.375 175.98 152.464 174.419 149.714C172.859 146.963 171.008 144.372 168.788 141.992C166.537 139.631 164.057 137.401 160.656 135.7L184.451 122.107Z" fill="#004474"/>
<path d="M406.041 170.268C402.271 170.768 399.19 172.059 396.299 173.559C393.418 175.079 390.828 176.93 388.457 179.02C386.087 181.121 383.916 183.441 382.026 186.092C380.166 188.772 378.465 191.643 377.455 195.294L359.391 174.659C363.142 174.139 366.212 172.839 369.113 171.349C371.994 169.838 374.584 167.988 376.975 165.917C379.365 163.837 381.536 161.516 383.426 158.866C385.297 156.195 386.987 153.314 387.977 149.644L406.041 170.268Z" fill="#004474"/>
<path d="M398.04 106.914C394.499 108.294 391.818 110.285 389.358 112.425C386.927 114.586 384.847 116.996 383.036 119.597C381.236 122.198 379.675 124.968 378.475 127.999C377.305 131.04 376.345 134.23 376.225 138.021L353.77 122.288C357.29 120.887 359.961 118.897 362.422 116.756C364.862 114.596 366.933 112.185 368.763 109.605C370.583 107.014 372.144 104.243 373.344 101.223C374.524 98.1821 375.474 94.9814 375.565 91.1805L398.04 106.914Z" fill="#004474"/>
<path d="M249.208 53.4893C261.439 50.4158 270.506 44.5499 269.46 40.3873C268.414 36.2247 257.651 35.3418 245.42 38.4152C233.19 41.4886 224.123 47.3546 225.169 51.5172C226.215 55.6797 236.978 56.5627 249.208 53.4893Z" fill="#004474" stroke="#004474" stroke-width="0.9512" stroke-miterlimit="10"/>
<path d="M118.226 367.111C122.053 365.167 120.526 354.476 114.815 343.232C109.105 331.987 101.373 324.448 97.5464 326.391C93.7195 328.335 95.2464 339.026 100.957 350.27C106.667 361.514 114.399 369.054 118.226 367.111Z" fill="#004474" stroke="#004474" stroke-width="0.9512" stroke-miterlimit="10"/>
<path d="M447.895 355.027C454.201 344.106 456.3 333.512 452.583 331.366C448.866 329.22 440.741 336.334 434.435 347.255C428.129 358.177 426.031 368.77 429.748 370.917C433.465 373.063 441.59 365.949 447.895 355.027Z" fill="#004474" stroke="#004474" stroke-width="0.9512" stroke-miterlimit="10"/>
<path d="M598.595 273.401H617.539" stroke="#553240" stroke-width="9.5124" stroke-miterlimit="10"/>
<path d="M598.595 293.806H617.539" stroke="#553240" stroke-width="9.5124" stroke-miterlimit="10"/>
<path d="M595.724 281.163H556.845C552.574 281.163 549.074 277.663 549.074 273.392C549.074 269.121 552.574 265.62 556.845 265.62H595.724C599.995 265.62 603.496 269.121 603.496 273.392C603.496 277.673 599.995 281.163 595.724 281.163Z" fill="#3F698C"/>
<path d="M655.477 281.163H616.599C612.328 281.163 608.827 277.663 608.827 273.392C608.827 269.121 612.328 265.62 616.599 265.62H655.477C659.748 265.62 663.249 269.121 663.249 273.392C663.249 277.673 659.758 281.163 655.477 281.163Z" fill="#C0433B"/>
<path d="M595.724 301.568H556.845C552.574 301.568 549.074 298.067 549.074 293.796C549.074 289.525 552.574 286.024 556.845 286.024H595.724C599.995 286.024 603.496 289.525 603.496 293.796C603.496 298.077 599.995 301.568 595.724 301.568Z" fill="#004570"/>
<path d="M655.477 301.568H616.599C612.328 301.568 608.827 298.067 608.827 293.796C608.827 289.525 612.328 286.024 616.599 286.024H655.477C659.748 286.024 663.249 289.525 663.249 293.796C663.249 298.077 659.758 301.568 655.477 301.568Z" fill="#AD1900"/>
</g>
<g clip-path="url(#clip1_4611_296484)">
<path d="M529.119 1386.65H556.805" stroke="#073E64" stroke-width="2" stroke-miterlimit="10"/>
<path d="M529.119 1407.06H553.895" stroke="#073E64" stroke-width="2" stroke-miterlimit="10"/>
<path d="M268.06 1648.37C415.554 1648.37 535.12 1528.8 535.12 1381.31C535.12 1233.82 415.554 1114.25 268.06 1114.25C120.567 1114.25 1.00023 1233.82 1.00023 1381.31C1.00023 1528.8 120.567 1648.37 268.06 1648.37Z" fill="#A4BCD9" stroke="#073E64" stroke-width="2" stroke-miterlimit="10"/>
<path d="M268.06 1483.37C324.428 1483.37 370.123 1437.68 370.123 1381.31C370.123 1324.94 324.428 1279.25 268.06 1279.25C211.692 1279.25 165.997 1324.94 165.997 1381.31C165.997 1437.68 211.692 1483.37 268.06 1483.37Z" fill="#004475" stroke="#073E64" stroke-width="2" stroke-miterlimit="10"/>
<path d="M240.524 1255.47C240.524 1255.47 141.412 1276.37 133.64 1380.33" stroke="#004475" stroke-width="17.1223" stroke-miterlimit="10" stroke-linecap="round"/>
<path d="M206.516 1220.48C206.516 1220.48 86.5095 1260.32 91.3706 1404.14" stroke="#004475" stroke-width="17.1223" stroke-miterlimit="10" stroke-linecap="round"/>
<path d="M107.884 1236.04C107.884 1236.04 58.3231 1287.54 49.5812 1360.42" stroke="#004475" stroke-width="17.1223" stroke-miterlimit="10" stroke-linecap="round"/>
<path d="M319.712 1267.14C319.712 1267.14 364.172 1284.14 378.985 1329.81" stroke="#004475" stroke-width="17.1223" stroke-miterlimit="10" stroke-linecap="round"/>
<path d="M303.438 1216.84C303.438 1216.84 419.794 1239.44 433.397 1364.3" stroke="#004475" stroke-width="17.1223" stroke-miterlimit="10" stroke-linecap="round"/>
<path d="M331.865 1180.17C331.865 1180.17 473.246 1229.73 475.677 1370.13" stroke="#004475" stroke-width="17.1223" stroke-miterlimit="10" stroke-linecap="round"/>
<path d="M166.007 1471.19C166.007 1471.19 270.161 1571.76 364.412 1464.39" stroke="#004475" stroke-width="17.1223" stroke-miterlimit="10" stroke-linecap="round"/>
<path d="M176.39 1532.88C176.39 1532.88 266.27 1590.7 364.412 1524.14" stroke="#004475" stroke-width="17.1223" stroke-miterlimit="10" stroke-linecap="round"/>
<path d="M115.656 1542.12C115.656 1542.12 178.82 1608.68 284.244 1599.45" stroke="#004475" stroke-width="17.1223" stroke-miterlimit="10" stroke-linecap="round"/>
<path d="M277.212 1552.75C274.432 1556.67 272.991 1560.63 271.871 1564.6C270.811 1568.57 270.291 1572.56 270.191 1576.56C270.091 1580.57 270.381 1584.58 271.211 1588.61C272.091 1592.64 273.291 1596.68 275.802 1600.75L241.184 1599.73C243.935 1595.81 245.365 1591.85 246.485 1587.88C247.546 1583.91 248.076 1579.92 248.206 1575.91C248.336 1571.91 248.046 1567.9 247.226 1563.87C246.345 1559.84 245.145 1555.8 242.595 1551.73L277.212 1552.75Z" fill="#004474"/>
<path d="M244.235 1511.42C241.414 1513.98 239.624 1516.79 238.094 1519.67C236.593 1522.56 235.513 1525.55 234.753 1528.62C234.003 1531.69 233.533 1534.85 233.503 1538.11C233.493 1541.37 233.733 1544.7 234.983 1548.27L208.387 1541.6C211.178 1539.04 212.958 1536.22 214.498 1533.33C215.999 1530.44 217.079 1527.45 217.869 1524.38C218.649 1521.31 219.109 1518.17 219.149 1514.91C219.159 1511.65 218.909 1508.32 217.639 1504.74L244.235 1511.42Z" fill="#004474"/>
<path d="M74.6068 1285.19C77.1474 1288.02 79.948 1289.83 82.8186 1291.37C85.6993 1292.89 88.68 1293.98 91.7507 1294.76C94.8213 1295.53 97.962 1296.02 101.223 1296.07C104.484 1296.1 107.814 1295.88 111.395 1294.65L104.564 1321.21C102.013 1318.4 99.2123 1316.6 96.3417 1315.05C93.461 1313.53 90.4804 1312.43 87.4197 1311.62C84.359 1310.82 81.2083 1310.34 77.9575 1310.28C74.6968 1310.25 71.3661 1310.48 67.7753 1311.74L74.6068 1285.19Z" fill="#004474"/>
<path d="M184.451 1235.36C184.191 1239.16 184.842 1242.43 185.742 1245.56C186.662 1248.68 187.952 1251.59 189.533 1254.33C191.123 1257.07 192.963 1259.66 195.194 1262.03C197.444 1264.39 199.925 1266.63 203.306 1268.34L179.5 1281.94C179.74 1278.16 179.07 1274.89 178.19 1271.75C177.28 1268.63 175.98 1265.71 174.419 1262.96C172.859 1260.21 171.008 1257.62 168.788 1255.24C166.537 1252.88 164.057 1250.65 160.656 1248.95L184.451 1235.36Z" fill="#004474"/>
<path d="M406.041 1283.52C402.271 1284.02 399.19 1285.31 396.299 1286.81C393.418 1288.33 390.828 1290.18 388.457 1292.27C386.087 1294.37 383.916 1296.69 382.026 1299.34C380.166 1302.02 378.465 1304.89 377.455 1308.54L359.391 1287.91C363.142 1287.39 366.212 1286.09 369.113 1284.6C371.994 1283.09 374.584 1281.24 376.975 1279.17C379.365 1277.09 381.536 1274.77 383.426 1272.12C385.297 1269.45 386.987 1266.57 387.977 1262.89L406.041 1283.52Z" fill="#004474"/>
<path d="M398.04 1220.16C394.499 1221.54 391.818 1223.54 389.358 1225.68C386.927 1227.84 384.847 1230.25 383.036 1232.85C381.236 1235.45 379.675 1238.22 378.475 1241.25C377.305 1244.29 376.345 1247.48 376.225 1251.27L353.77 1235.54C357.29 1234.14 359.961 1232.15 362.422 1230.01C364.862 1227.85 366.933 1225.44 368.763 1222.86C370.583 1220.26 372.144 1217.49 373.344 1214.47C374.524 1211.43 375.474 1208.23 375.565 1204.43L398.04 1220.16Z" fill="#004474"/>
<path d="M249.208 1166.74C261.439 1163.67 270.506 1157.8 269.46 1153.64C268.414 1149.48 257.651 1148.59 245.42 1151.67C233.19 1154.74 224.123 1160.61 225.169 1164.77C226.215 1168.93 236.978 1169.81 249.208 1166.74Z" fill="#004474" stroke="#004474" stroke-width="0.9512" stroke-miterlimit="10"/>
<path d="M118.226 1480.36C122.053 1478.42 120.526 1467.73 114.815 1456.48C109.105 1445.24 101.373 1437.7 97.5464 1439.64C93.7195 1441.59 95.2464 1452.28 100.957 1463.52C106.667 1474.76 114.399 1482.3 118.226 1480.36Z" fill="#004474" stroke="#004474" stroke-width="0.9512" stroke-miterlimit="10"/>
<path d="M447.895 1468.28C454.201 1457.36 456.3 1446.76 452.583 1444.62C448.866 1442.47 440.741 1449.58 434.435 1460.51C428.129 1471.43 426.031 1482.02 429.748 1484.17C433.465 1486.31 441.59 1479.2 447.895 1468.28Z" fill="#004474" stroke="#004474" stroke-width="0.9512" stroke-miterlimit="10"/>
<path d="M598.595 1386.65H617.539" stroke="#553240" stroke-width="9.5124" stroke-miterlimit="10"/>
<path d="M598.595 1407.06H617.539" stroke="#553240" stroke-width="9.5124" stroke-miterlimit="10"/>
<path d="M595.724 1394.41H556.845C552.574 1394.41 549.074 1390.91 549.074 1386.64C549.074 1382.37 552.574 1378.87 556.845 1378.87H595.724C599.995 1378.87 603.496 1382.37 603.496 1386.64C603.496 1390.92 599.995 1394.41 595.724 1394.41Z" fill="#3F698C"/>
<path d="M655.477 1394.41H616.599C612.328 1394.41 608.827 1390.91 608.827 1386.64C608.827 1382.37 612.328 1378.87 616.599 1378.87H655.477C659.748 1378.87 663.249 1382.37 663.249 1386.64C663.249 1390.92 659.758 1394.41 655.477 1394.41Z" fill="#C0433B"/>
<path d="M595.724 1414.82H556.845C552.574 1414.82 549.074 1411.32 549.074 1407.05C549.074 1402.78 552.574 1399.27 556.845 1399.27H595.724C599.995 1399.27 603.496 1402.78 603.496 1407.05C603.496 1411.33 599.995 1414.82 595.724 1414.82Z" fill="#004570"/>
<path d="M655.477 1414.82H616.599C612.328 1414.82 608.827 1411.32 608.827 1407.05C608.827 1402.78 612.328 1399.27 616.599 1399.27H655.477C659.748 1399.27 663.249 1402.78 663.249 1407.05C663.249 1411.33 659.758 1414.82 655.477 1414.82Z" fill="#AD1900"/>
</g>
<g clip-path="url(#clip2_4611_296484)">
<path d="M1272.29 273.401H1299.97" stroke="#073E64" stroke-width="2" stroke-miterlimit="10"/>
<path d="M1272.29 293.806H1297.06" stroke="#073E64" stroke-width="2" stroke-miterlimit="10"/>
<path d="M1011.23 535.12C1158.72 535.12 1278.29 415.554 1278.29 268.06C1278.29 120.567 1158.72 1.00023 1011.23 1.00023C863.734 1.00023 744.167 120.567 744.167 268.06C744.167 415.554 863.734 535.12 1011.23 535.12Z" fill="#A4BCD9" stroke="#073E64" stroke-width="2" stroke-miterlimit="10"/>
<path d="M1011.23 370.123C1067.6 370.123 1113.29 324.428 1113.29 268.06C1113.29 211.692 1067.6 165.997 1011.23 165.997C954.86 165.997 909.165 211.692 909.165 268.06C909.165 324.428 954.86 370.123 1011.23 370.123Z" fill="#004475" stroke="#073E64" stroke-width="2" stroke-miterlimit="10"/>
<path d="M983.691 142.222C983.691 142.222 884.579 163.117 876.807 267.08" stroke="#004475" stroke-width="17.1223" stroke-miterlimit="10" stroke-linecap="round"/>
<path d="M949.684 107.234C949.684 107.234 829.677 147.073 834.538 290.885" stroke="#004475" stroke-width="17.1223" stroke-miterlimit="10" stroke-linecap="round"/>
<path d="M851.051 122.788C851.051 122.788 801.49 174.289 792.748 247.166" stroke="#004475" stroke-width="17.1223" stroke-miterlimit="10" stroke-linecap="round"/>
<path d="M1062.88 153.885C1062.88 153.885 1107.34 170.888 1122.15 216.559" stroke="#004475" stroke-width="17.1223" stroke-miterlimit="10" stroke-linecap="round"/>
<path d="M1046.61 103.593C1046.61 103.593 1162.96 126.188 1176.56 251.046" stroke="#004475" stroke-width="17.1223" stroke-miterlimit="10" stroke-linecap="round"/>
<path d="M1075.03 66.9151C1075.03 66.9151 1216.41 116.476 1218.84 256.878" stroke="#004475" stroke-width="17.1223" stroke-miterlimit="10" stroke-linecap="round"/>
<path d="M909.175 357.941C909.175 357.941 1013.33 458.513 1107.58 351.139" stroke="#004475" stroke-width="17.1223" stroke-miterlimit="10" stroke-linecap="round"/>
<path d="M919.557 419.634C919.557 419.634 1009.44 477.447 1107.58 410.892" stroke="#004475" stroke-width="17.1223" stroke-miterlimit="10" stroke-linecap="round"/>
<path d="M858.823 428.867C858.823 428.867 921.987 495.431 1027.41 486.199" stroke="#004475" stroke-width="17.1223" stroke-miterlimit="10" stroke-linecap="round"/>
<path d="M1020.38 439.499C1017.6 443.42 1016.16 447.381 1015.04 451.352C1013.98 455.322 1013.46 459.313 1013.36 463.314C1013.26 467.315 1013.55 471.326 1014.38 475.357C1015.26 479.388 1016.46 483.429 1018.97 487.5L984.351 486.479C987.102 482.559 988.532 478.598 989.653 474.627C990.713 470.656 991.243 466.665 991.373 462.664C991.503 458.663 991.213 454.652 990.393 450.621C989.513 446.59 988.312 442.55 985.762 438.479L1020.38 439.499Z" fill="#004474"/>
<path d="M987.402 398.17C984.581 400.73 982.791 403.541 981.261 406.421C979.76 409.312 978.68 412.303 977.92 415.373C977.17 418.444 976.7 421.595 976.67 424.856C976.66 428.116 976.9 431.447 978.15 435.018L951.554 428.346C954.345 425.786 956.125 422.965 957.665 420.085C959.166 417.194 960.246 414.203 961.036 411.133C961.816 408.062 962.276 404.921 962.316 401.66C962.326 398.4 962.076 395.069 960.806 391.488L987.402 398.17Z" fill="#004474"/>
<path d="M817.774 171.939C820.315 174.769 823.115 176.58 825.986 178.12C828.866 179.64 831.847 180.731 834.918 181.511C837.989 182.281 841.129 182.771 844.39 182.821C847.651 182.851 850.981 182.631 854.562 181.401L847.731 207.957C845.18 205.146 842.38 203.346 839.509 201.795C836.628 200.275 833.648 199.175 830.587 198.375C827.526 197.574 824.375 197.094 821.125 197.034C817.864 197.004 814.533 197.234 810.942 198.485L817.774 171.939Z" fill="#004474"/>
<path d="M927.619 122.107C927.359 125.908 928.009 129.179 928.909 132.31C929.829 135.43 931.119 138.341 932.7 141.082C934.29 143.822 936.131 146.413 938.361 148.783C940.612 151.144 943.092 153.374 946.473 155.085L922.668 168.688C922.908 164.907 922.237 161.636 921.357 158.496C920.447 155.375 919.147 152.464 917.586 149.714C916.026 146.963 914.176 144.372 911.955 141.992C909.705 139.631 907.224 137.401 903.823 135.7L927.619 122.107Z" fill="#004474"/>
<path d="M1149.21 170.268C1145.44 170.768 1142.36 172.059 1139.47 173.559C1136.59 175.079 1134 176.93 1131.62 179.02C1129.25 181.121 1127.08 183.441 1125.19 186.092C1123.33 188.772 1121.63 191.643 1120.62 195.294L1102.56 174.659C1106.31 174.139 1109.38 172.839 1112.28 171.349C1115.16 169.838 1117.75 167.988 1120.14 165.917C1122.53 163.837 1124.7 161.516 1126.59 158.866C1128.46 156.195 1130.15 153.314 1131.14 149.644L1149.21 170.268Z" fill="#004474"/>
<path d="M1141.21 106.914C1137.67 108.294 1134.99 110.285 1132.52 112.425C1130.09 114.586 1128.01 116.996 1126.2 119.597C1124.4 122.198 1122.84 124.968 1121.64 127.999C1120.47 131.04 1119.51 134.23 1119.39 138.021L1096.94 122.288C1100.46 120.887 1103.13 118.897 1105.59 116.756C1108.03 114.596 1110.1 112.185 1111.93 109.605C1113.75 107.014 1115.31 104.243 1116.51 101.223C1117.69 98.1821 1118.64 94.9814 1118.73 91.1805L1141.21 106.914Z" fill="#004474"/>
<path d="M992.375 53.4893C1004.61 50.4158 1013.67 44.5499 1012.63 40.3873C1011.58 36.2247 1000.82 35.3418 988.588 38.4152C976.357 41.4886 967.29 47.3546 968.336 51.5172C969.382 55.6797 980.145 56.5627 992.375 53.4893Z" fill="#004474" stroke="#004474" stroke-width="0.9512" stroke-miterlimit="10"/>
<path d="M861.393 367.111C865.22 365.167 863.693 354.476 857.983 343.232C852.272 331.987 844.541 324.448 840.714 326.391C836.887 328.335 838.414 339.026 844.124 350.27C849.835 361.514 857.566 369.054 861.393 367.111Z" fill="#004474" stroke="#004474" stroke-width="0.9512" stroke-miterlimit="10"/>
<path d="M1191.06 355.027C1197.37 344.106 1199.47 333.512 1195.75 331.366C1192.03 329.22 1183.91 336.334 1177.6 347.255C1171.3 358.177 1169.2 368.77 1172.91 370.917C1176.63 373.063 1184.76 365.949 1191.06 355.027Z" fill="#004474" stroke="#004474" stroke-width="0.9512" stroke-miterlimit="10"/>
<path d="M1341.76 273.401H1360.71" stroke="#553240" stroke-width="9.5124" stroke-miterlimit="10"/>
<path d="M1341.76 293.806H1360.71" stroke="#553240" stroke-width="9.5124" stroke-miterlimit="10"/>
<path d="M1338.89 281.163H1300.01C1295.74 281.163 1292.24 277.663 1292.24 273.392C1292.24 269.121 1295.74 265.62 1300.01 265.62H1338.89C1343.16 265.62 1346.66 269.121 1346.66 273.392C1346.66 277.673 1343.16 281.163 1338.89 281.163Z" fill="#3F698C"/>
<path d="M1398.64 281.163H1359.77C1355.49 281.163 1351.99 277.663 1351.99 273.392C1351.99 269.121 1355.49 265.62 1359.77 265.62H1398.64C1402.92 265.62 1406.42 269.121 1406.42 273.392C1406.42 277.673 1402.93 281.163 1398.64 281.163Z" fill="#C0433B"/>
<path d="M1338.89 301.568H1300.01C1295.74 301.568 1292.24 298.067 1292.24 293.796C1292.24 289.525 1295.74 286.024 1300.01 286.024H1338.89C1343.16 286.024 1346.66 289.525 1346.66 293.796C1346.66 298.077 1343.16 301.568 1338.89 301.568Z" fill="#004570"/>
<path d="M1398.64 301.568H1359.77C1355.49 301.568 1351.99 298.067 1351.99 293.796C1351.99 289.525 1355.49 286.024 1359.77 286.024H1398.64C1402.92 286.024 1406.42 289.525 1406.42 293.796C1406.42 298.077 1402.93 301.568 1398.64 301.568Z" fill="#AD1900"/>
</g>
<g clip-path="url(#clip3_4611_296484)">
<path d="M1272.29 1386.65H1299.97" stroke="#073E64" stroke-width="2" stroke-miterlimit="10"/>
<path d="M1272.29 1407.06H1297.06" stroke="#073E64" stroke-width="2" stroke-miterlimit="10"/>
<path d="M1011.23 1648.37C1158.72 1648.37 1278.29 1528.8 1278.29 1381.31C1278.29 1233.82 1158.72 1114.25 1011.23 1114.25C863.734 1114.25 744.167 1233.82 744.167 1381.31C744.167 1528.8 863.734 1648.37 1011.23 1648.37Z" fill="#A4BCD9" stroke="#073E64" stroke-width="2" stroke-miterlimit="10"/>
<path d="M1011.23 1483.37C1067.6 1483.37 1113.29 1437.68 1113.29 1381.31C1113.29 1324.94 1067.6 1279.25 1011.23 1279.25C954.86 1279.25 909.165 1324.94 909.165 1381.31C909.165 1437.68 954.86 1483.37 1011.23 1483.37Z" fill="#004475" stroke="#073E64" stroke-width="2" stroke-miterlimit="10"/>
<path d="M983.691 1255.47C983.691 1255.47 884.579 1276.37 876.807 1380.33" stroke="#004475" stroke-width="17.1223" stroke-miterlimit="10" stroke-linecap="round"/>
<path d="M949.684 1220.48C949.684 1220.48 829.677 1260.32 834.538 1404.14" stroke="#004475" stroke-width="17.1223" stroke-miterlimit="10" stroke-linecap="round"/>
<path d="M851.051 1236.04C851.051 1236.04 801.49 1287.54 792.748 1360.42" stroke="#004475" stroke-width="17.1223" stroke-miterlimit="10" stroke-linecap="round"/>
<path d="M1062.88 1267.14C1062.88 1267.14 1107.34 1284.14 1122.15 1329.81" stroke="#004475" stroke-width="17.1223" stroke-miterlimit="10" stroke-linecap="round"/>
<path d="M1046.61 1216.84C1046.61 1216.84 1162.96 1239.44 1176.56 1364.3" stroke="#004475" stroke-width="17.1223" stroke-miterlimit="10" stroke-linecap="round"/>
<path d="M1075.03 1180.17C1075.03 1180.17 1216.41 1229.73 1218.84 1370.13" stroke="#004475" stroke-width="17.1223" stroke-miterlimit="10" stroke-linecap="round"/>
<path d="M909.175 1471.19C909.175 1471.19 1013.33 1571.76 1107.58 1464.39" stroke="#004475" stroke-width="17.1223" stroke-miterlimit="10" stroke-linecap="round"/>
<path d="M919.557 1532.88C919.557 1532.88 1009.44 1590.7 1107.58 1524.14" stroke="#004475" stroke-width="17.1223" stroke-miterlimit="10" stroke-linecap="round"/>
<path d="M858.823 1542.12C858.823 1542.12 921.987 1608.68 1027.41 1599.45" stroke="#004475" stroke-width="17.1223" stroke-miterlimit="10" stroke-linecap="round"/>
<path d="M1020.38 1552.75C1017.6 1556.67 1016.16 1560.63 1015.04 1564.6C1013.98 1568.57 1013.46 1572.56 1013.36 1576.56C1013.26 1580.57 1013.55 1584.58 1014.38 1588.61C1015.26 1592.64 1016.46 1596.68 1018.97 1600.75L984.351 1599.73C987.102 1595.81 988.532 1591.85 989.653 1587.88C990.713 1583.91 991.243 1579.92 991.373 1575.91C991.503 1571.91 991.213 1567.9 990.393 1563.87C989.513 1559.84 988.312 1555.8 985.762 1551.73L1020.38 1552.75Z" fill="#004474"/>
<path d="M987.402 1511.42C984.581 1513.98 982.791 1516.79 981.261 1519.67C979.76 1522.56 978.68 1525.55 977.92 1528.62C977.17 1531.69 976.7 1534.85 976.67 1538.11C976.66 1541.37 976.9 1544.7 978.15 1548.27L951.554 1541.6C954.345 1539.04 956.125 1536.22 957.665 1533.33C959.166 1530.44 960.246 1527.45 961.036 1524.38C961.816 1521.31 962.276 1518.17 962.316 1514.91C962.326 1511.65 962.076 1508.32 960.806 1504.74L987.402 1511.42Z" fill="#004474"/>
<path d="M817.774 1285.19C820.315 1288.02 823.115 1289.83 825.986 1291.37C828.866 1292.89 831.847 1293.98 834.918 1294.76C837.989 1295.53 841.129 1296.02 844.39 1296.07C847.651 1296.1 850.981 1295.88 854.562 1294.65L847.731 1321.21C845.18 1318.4 842.38 1316.6 839.509 1315.05C836.628 1313.53 833.648 1312.43 830.587 1311.62C827.526 1310.82 824.375 1310.34 821.125 1310.28C817.864 1310.25 814.533 1310.48 810.942 1311.74L817.774 1285.19Z" fill="#004474"/>
<path d="M927.619 1235.36C927.359 1239.16 928.009 1242.43 928.909 1245.56C929.829 1248.68 931.119 1251.59 932.7 1254.33C934.29 1257.07 936.131 1259.66 938.361 1262.03C940.612 1264.39 943.092 1266.63 946.473 1268.34L922.668 1281.94C922.908 1278.16 922.237 1274.89 921.357 1271.75C920.447 1268.63 919.147 1265.71 917.586 1262.96C916.026 1260.21 914.176 1257.62 911.955 1255.24C909.705 1252.88 907.224 1250.65 903.823 1248.95L927.619 1235.36Z" fill="#004474"/>
<path d="M1149.21 1283.52C1145.44 1284.02 1142.36 1285.31 1139.47 1286.81C1136.59 1288.33 1134 1290.18 1131.62 1292.27C1129.25 1294.37 1127.08 1296.69 1125.19 1299.34C1123.33 1302.02 1121.63 1304.89 1120.62 1308.54L1102.56 1287.91C1106.31 1287.39 1109.38 1286.09 1112.28 1284.6C1115.16 1283.09 1117.75 1281.24 1120.14 1279.17C1122.53 1277.09 1124.7 1274.77 1126.59 1272.12C1128.46 1269.45 1130.15 1266.57 1131.14 1262.89L1149.21 1283.52Z" fill="#004474"/>
<path d="M1141.21 1220.16C1137.67 1221.54 1134.99 1223.54 1132.52 1225.68C1130.09 1227.84 1128.01 1230.25 1126.2 1232.85C1124.4 1235.45 1122.84 1238.22 1121.64 1241.25C1120.47 1244.29 1119.51 1247.48 1119.39 1251.27L1096.94 1235.54C1100.46 1234.14 1103.13 1232.15 1105.59 1230.01C1108.03 1227.85 1110.1 1225.44 1111.93 1222.86C1113.75 1220.26 1115.31 1217.49 1116.51 1214.47C1117.69 1211.43 1118.64 1208.23 1118.73 1204.43L1141.21 1220.16Z" fill="#004474"/>
<path d="M992.375 1166.74C1004.61 1163.67 1013.67 1157.8 1012.63 1153.64C1011.58 1149.48 1000.82 1148.59 988.588 1151.67C976.357 1154.74 967.29 1160.61 968.336 1164.77C969.382 1168.93 980.145 1169.81 992.375 1166.74Z" fill="#004474" stroke="#004474" stroke-width="0.9512" stroke-miterlimit="10"/>
<path d="M861.393 1480.36C865.22 1478.42 863.693 1467.73 857.983 1456.48C852.272 1445.24 844.541 1437.7 840.714 1439.64C836.887 1441.59 838.414 1452.28 844.124 1463.52C849.835 1474.76 857.566 1482.3 861.393 1480.36Z" fill="#004474" stroke="#004474" stroke-width="0.9512" stroke-miterlimit="10"/>
<path d="M1191.06 1468.28C1197.37 1457.36 1199.47 1446.76 1195.75 1444.62C1192.03 1442.47 1183.91 1449.58 1177.6 1460.51C1171.3 1471.43 1169.2 1482.02 1172.91 1484.17C1176.63 1486.31 1184.76 1479.2 1191.06 1468.28Z" fill="#004474" stroke="#004474" stroke-width="0.9512" stroke-miterlimit="10"/>
<path d="M1341.76 1386.65H1360.71" stroke="#553240" stroke-width="9.5124" stroke-miterlimit="10"/>
<path d="M1341.76 1407.06H1360.71" stroke="#553240" stroke-width="9.5124" stroke-miterlimit="10"/>
<path d="M1338.89 1394.41H1300.01C1295.74 1394.41 1292.24 1390.91 1292.24 1386.64C1292.24 1382.37 1295.74 1378.87 1300.01 1378.87H1338.89C1343.16 1378.87 1346.66 1382.37 1346.66 1386.64C1346.66 1390.92 1343.16 1394.41 1338.89 1394.41Z" fill="#3F698C"/>
<path d="M1398.64 1394.41H1359.77C1355.49 1394.41 1351.99 1390.91 1351.99 1386.64C1351.99 1382.37 1355.49 1378.87 1359.77 1378.87H1398.64C1402.92 1378.87 1406.42 1382.37 1406.42 1386.64C1406.42 1390.92 1402.93 1394.41 1398.64 1394.41Z" fill="#C0433B"/>
<path d="M1338.89 1414.82H1300.01C1295.74 1414.82 1292.24 1411.32 1292.24 1407.05C1292.24 1402.78 1295.74 1399.27 1300.01 1399.27H1338.89C1343.16 1399.27 1346.66 1402.78 1346.66 1407.05C1346.66 1411.33 1343.16 1414.82 1338.89 1414.82Z" fill="#004570"/>
<path d="M1398.64 1414.82H1359.77C1355.49 1414.82 1351.99 1411.32 1351.99 1407.05C1351.99 1402.78 1355.49 1399.27 1359.77 1399.27H1398.64C1402.92 1399.27 1406.42 1402.78 1406.42 1407.05C1406.42 1411.33 1402.93 1414.82 1398.64 1414.82Z" fill="#AD1900"/>
</g>
<g clip-path="url(#clip4_4611_296484)">
<path d="M892.201 850.531H919.887" stroke="#073E64" stroke-width="2" stroke-miterlimit="10"/>
<path d="M892.201 870.936H916.976" stroke="#073E64" stroke-width="2" stroke-miterlimit="10"/>
<path d="M631.142 1112.25C778.635 1112.25 898.202 992.683 898.202 845.19C898.202 697.697 778.635 578.13 631.142 578.13C483.649 578.13 364.082 697.697 364.082 845.19C364.082 992.683 483.649 1112.25 631.142 1112.25Z" fill="#A4BCD9" stroke="#073E64" stroke-width="2" stroke-miterlimit="10"/>
<path d="M631.142 947.253C687.51 947.253 733.205 901.558 733.205 845.19C733.205 788.822 687.51 743.127 631.142 743.127C574.774 743.127 529.079 788.822 529.079 845.19C529.079 901.558 574.774 947.253 631.142 947.253Z" fill="#004475" stroke="#073E64" stroke-width="2" stroke-miterlimit="10"/>
<path d="M603.606 719.352C603.606 719.352 504.493 740.246 496.722 844.21" stroke="#004475" stroke-width="17.1223" stroke-miterlimit="10" stroke-linecap="round"/>
<path d="M569.598 684.364C569.598 684.364 449.591 724.203 454.452 868.015" stroke="#004475" stroke-width="17.1223" stroke-miterlimit="10" stroke-linecap="round"/>
<path d="M470.966 699.917C470.966 699.917 421.405 751.419 412.663 824.295" stroke="#004475" stroke-width="17.1223" stroke-miterlimit="10" stroke-linecap="round"/>
<path d="M682.794 731.014C682.794 731.014 727.254 748.018 742.067 793.689" stroke="#004475" stroke-width="17.1223" stroke-miterlimit="10" stroke-linecap="round"/>
<path d="M666.52 680.723C666.52 680.723 782.876 703.318 796.479 828.176" stroke="#004475" stroke-width="17.1223" stroke-miterlimit="10" stroke-linecap="round"/>
<path d="M694.946 644.045C694.946 644.045 836.328 693.606 838.759 834.008" stroke="#004475" stroke-width="17.1223" stroke-miterlimit="10" stroke-linecap="round"/>
<path d="M529.089 935.07C529.089 935.07 633.242 1035.64 727.494 928.269" stroke="#004475" stroke-width="17.1223" stroke-miterlimit="10" stroke-linecap="round"/>
<path d="M539.471 996.764C539.471 996.764 629.352 1054.58 727.494 988.022" stroke="#004475" stroke-width="17.1223" stroke-miterlimit="10" stroke-linecap="round"/>
<path d="M478.738 1006C478.738 1006 541.902 1072.56 647.326 1063.33" stroke="#004475" stroke-width="17.1223" stroke-miterlimit="10" stroke-linecap="round"/>
<path d="M640.294 1016.63C637.513 1020.55 636.073 1024.51 634.953 1028.48C633.893 1032.45 633.372 1036.44 633.272 1040.44C633.172 1044.44 633.463 1048.46 634.293 1052.49C635.173 1056.52 636.373 1060.56 638.884 1064.63L604.266 1063.61C607.017 1059.69 608.447 1055.73 609.567 1051.76C610.627 1047.79 611.157 1043.79 611.288 1039.79C611.418 1035.79 611.127 1031.78 610.307 1027.75C609.427 1023.72 608.227 1019.68 605.676 1015.61L640.294 1016.63Z" fill="#004474"/>
<path d="M607.317 975.299C604.496 977.86 602.706 980.671 601.175 983.551C599.675 986.442 598.595 989.433 597.834 992.503C597.084 995.574 596.614 998.725 596.584 1001.99C596.574 1005.25 596.814 1008.58 598.065 1012.15L571.469 1005.48C574.259 1002.92 576.04 1000.1 577.58 997.214C579.08 994.324 580.161 991.333 580.951 988.262C581.731 985.192 582.191 982.051 582.231 978.79C582.241 975.53 581.991 972.199 580.721 968.618L607.317 975.299Z" fill="#004474"/>
<path d="M437.688 749.069C440.229 751.899 443.03 753.71 445.9 755.25C448.781 756.77 451.762 757.861 454.832 758.641C457.903 759.411 461.044 759.901 464.304 759.951C467.565 759.981 470.896 759.761 474.477 758.531L467.645 785.087C465.095 782.276 462.294 780.476 459.423 778.925C456.543 777.405 453.562 776.305 450.501 775.504C447.441 774.704 444.29 774.224 441.039 774.164C437.778 774.134 434.448 774.364 430.857 775.615L437.688 749.069Z" fill="#004474"/>
<path d="M547.533 699.237C547.273 703.038 547.923 706.309 548.823 709.44C549.744 712.56 551.034 715.471 552.614 718.212C554.205 720.952 556.045 723.543 558.276 725.913C560.526 728.274 563.007 730.504 566.387 732.215L542.582 745.818C542.822 742.037 542.152 738.766 541.272 735.625C540.362 732.505 539.061 729.594 537.501 726.843C535.941 724.093 534.09 721.502 531.87 719.122C529.619 716.761 527.139 714.531 523.738 712.83L547.533 699.237Z" fill="#004474"/>
<path d="M769.123 747.398C765.352 747.898 762.271 749.189 759.381 750.689C756.5 752.209 753.91 754.06 751.539 756.15C749.169 758.251 746.998 760.571 745.108 763.222C743.247 765.902 741.547 768.773 740.537 772.424L722.473 751.789C726.223 751.269 729.294 749.969 732.195 748.478C735.075 746.968 737.666 745.118 740.057 743.047C742.447 740.967 744.618 738.646 746.508 735.996C748.378 733.325 750.069 730.444 751.059 726.773L769.123 747.398Z" fill="#004474"/>
<path d="M761.121 684.044C757.58 685.424 754.9 687.415 752.439 689.555C750.009 691.716 747.928 694.126 746.118 696.727C744.317 699.327 742.757 702.098 741.557 705.129C740.387 708.169 739.426 711.36 739.306 715.151L716.851 699.417C720.372 698.017 723.043 696.027 725.503 693.886C727.944 691.726 730.014 689.315 731.845 686.735C733.665 684.144 735.225 681.373 736.426 678.353C737.606 675.312 738.556 672.111 738.646 668.31L761.121 684.044Z" fill="#004474"/>
<path d="M612.29 630.619C624.521 627.546 633.588 621.68 632.542 617.517C631.496 613.355 620.733 612.472 608.502 615.545C596.271 618.618 587.205 624.484 588.251 628.647C589.297 632.81 600.059 633.693 612.29 630.619Z" fill="#004474" stroke="#004474" stroke-width="0.9512" stroke-miterlimit="10"/>
<path d="M481.308 944.241C485.135 942.297 483.608 931.606 477.897 920.362C472.187 909.117 464.455 901.577 460.628 903.521C456.801 905.464 458.328 916.155 464.039 927.4C469.749 938.644 477.481 946.184 481.308 944.241Z" fill="#004474" stroke="#004474" stroke-width="0.9512" stroke-miterlimit="10"/>
<path d="M810.977 932.157C817.283 921.236 819.381 910.642 815.664 908.496C811.947 906.35 803.822 913.464 797.516 924.385C791.211 935.307 789.112 945.9 792.829 948.046C796.546 950.193 804.671 943.079 810.977 932.157Z" fill="#004474" stroke="#004474" stroke-width="0.9512" stroke-miterlimit="10"/>
<path d="M961.676 850.531H980.621" stroke="#553240" stroke-width="9.5124" stroke-miterlimit="10"/>
<path d="M961.676 870.936H980.621" stroke="#553240" stroke-width="9.5124" stroke-miterlimit="10"/>
<path d="M958.806 858.293H919.927C915.656 858.293 912.155 854.792 912.155 850.521C912.155 846.25 915.656 842.75 919.927 842.75H958.806C963.077 842.75 966.577 846.25 966.577 850.521C966.577 854.802 963.077 858.293 958.806 858.293Z" fill="#3F698C"/>
<path d="M1018.56 858.293H979.68C975.409 858.293 971.909 854.792 971.909 850.521C971.909 846.25 975.409 842.75 979.68 842.75H1018.56C1022.83 842.75 1026.33 846.25 1026.33 850.521C1026.33 854.802 1022.84 858.293 1018.56 858.293Z" fill="#C0433B"/>
<path d="M958.806 878.698H919.927C915.656 878.698 912.155 875.197 912.155 870.926C912.155 866.655 915.656 863.154 919.927 863.154H958.806C963.077 863.154 966.577 866.655 966.577 870.926C966.577 875.207 963.077 878.698 958.806 878.698Z" fill="#004570"/>
<path d="M1018.56 878.698H979.68C975.409 878.698 971.909 875.197 971.909 870.926C971.909 866.655 975.409 863.154 979.68 863.154H1018.56C1022.83 863.154 1026.33 866.655 1026.33 870.926C1026.33 875.207 1022.84 878.698 1018.56 878.698Z" fill="#AD1900"/>
</g>
<g clip-path="url(#clip5_4611_296484)">
<path d="M1604.36 829.527H1632.05" stroke="#073E64" stroke-width="2" stroke-miterlimit="10"/>
<path d="M1604.36 849.931H1629.14" stroke="#073E64" stroke-width="2" stroke-miterlimit="10"/>
<path d="M1343.3 1091.25C1490.8 1091.25 1610.36 971.679 1610.36 824.185C1610.36 676.692 1490.8 557.125 1343.3 557.125C1195.81 557.125 1076.24 676.692 1076.24 824.185C1076.24 971.679 1195.81 1091.25 1343.3 1091.25Z" fill="#A4BCD9" stroke="#073E64" stroke-width="2" stroke-miterlimit="10"/>
<path d="M1343.3 926.248C1399.67 926.248 1445.37 880.553 1445.37 824.185C1445.37 767.818 1399.67 722.122 1343.3 722.122C1286.93 722.122 1241.24 767.818 1241.24 824.185C1241.24 880.553 1286.93 926.248 1343.3 926.248Z" fill="#004475" stroke="#073E64" stroke-width="2" stroke-miterlimit="10"/>
<path d="M1315.77 698.347C1315.77 698.347 1216.65 719.242 1208.88 823.205" stroke="#004475" stroke-width="17.1223" stroke-miterlimit="10" stroke-linecap="round"/>
<path d="M1281.76 663.359C1281.76 663.359 1161.75 703.198 1166.61 847.011" stroke="#004475" stroke-width="17.1223" stroke-miterlimit="10" stroke-linecap="round"/>
<path d="M1183.13 678.913C1183.13 678.913 1133.57 730.414 1124.82 803.291" stroke="#004475" stroke-width="17.1223" stroke-miterlimit="10" stroke-linecap="round"/>
<path d="M1394.95 710.01C1394.95 710.01 1439.41 727.014 1454.23 772.684" stroke="#004475" stroke-width="17.1223" stroke-miterlimit="10" stroke-linecap="round"/>
<path d="M1378.68 659.718C1378.68 659.718 1495.04 682.313 1508.64 807.172" stroke="#004475" stroke-width="17.1223" stroke-miterlimit="10" stroke-linecap="round"/>
<path d="M1407.11 623.04C1407.11 623.04 1548.49 672.601 1550.92 813.003" stroke="#004475" stroke-width="17.1223" stroke-miterlimit="10" stroke-linecap="round"/>
<path d="M1241.25 914.066C1241.25 914.066 1345.4 1014.64 1439.65 907.264" stroke="#004475" stroke-width="17.1223" stroke-miterlimit="10" stroke-linecap="round"/>
<path d="M1251.63 975.76C1251.63 975.76 1341.51 1033.57 1439.65 967.018" stroke="#004475" stroke-width="17.1223" stroke-miterlimit="10" stroke-linecap="round"/>
<path d="M1190.9 984.992C1190.9 984.992 1254.06 1051.56 1359.49 1042.32" stroke="#004475" stroke-width="17.1223" stroke-miterlimit="10" stroke-linecap="round"/>
<path d="M1352.45 995.624C1349.67 999.545 1348.23 1003.51 1347.11 1007.48C1346.05 1011.45 1345.53 1015.44 1345.43 1019.44C1345.33 1023.44 1345.62 1027.45 1346.45 1031.48C1347.33 1035.51 1348.53 1039.55 1351.04 1043.62L1316.43 1042.6C1319.18 1038.68 1320.61 1034.72 1321.73 1030.75C1322.79 1026.78 1323.32 1022.79 1323.45 1018.79C1323.58 1014.79 1323.29 1010.78 1322.47 1006.75C1321.59 1002.72 1320.39 998.675 1317.84 994.604L1352.45 995.624Z" fill="#004474"/>
<path d="M1319.48 954.295C1316.66 956.855 1314.87 959.666 1313.34 962.547C1311.84 965.437 1310.75 968.428 1309.99 971.499C1309.24 974.569 1308.77 977.72 1308.74 980.981C1308.73 984.241 1308.97 987.572 1310.22 991.143L1283.63 984.472C1286.42 981.911 1288.2 979.09 1289.74 976.21C1291.24 973.319 1292.32 970.328 1293.11 967.258C1293.89 964.187 1294.35 961.046 1294.39 957.786C1294.4 954.525 1294.15 951.194 1292.88 947.613L1319.48 954.295Z" fill="#004474"/>
<path d="M1149.85 728.064C1152.39 730.894 1155.19 732.705 1158.06 734.245C1160.94 735.766 1163.92 736.856 1166.99 737.636C1170.06 738.406 1173.2 738.896 1176.46 738.946C1179.73 738.976 1183.06 738.756 1186.64 737.526L1179.81 764.082C1177.25 761.271 1174.45 759.471 1171.58 757.921C1168.7 756.4 1165.72 755.3 1162.66 754.5C1159.6 753.7 1156.45 753.219 1153.2 753.159C1149.94 753.129 1146.61 753.36 1143.02 754.61L1149.85 728.064Z" fill="#004474"/>
<path d="M1259.69 678.233C1259.43 682.033 1260.08 685.304 1260.98 688.435C1261.9 691.556 1263.19 694.466 1264.77 697.207C1266.36 699.947 1268.21 702.538 1270.44 704.909C1272.69 707.269 1275.17 709.5 1278.55 711.21L1254.74 724.813C1254.98 721.032 1254.31 717.761 1253.43 714.621C1252.52 711.5 1251.22 708.589 1249.66 705.839C1248.1 703.088 1246.25 700.498 1244.03 698.117C1241.78 695.756 1239.3 693.526 1235.9 691.826L1259.69 678.233Z" fill="#004474"/>
<path d="M1481.28 726.393C1477.51 726.894 1474.43 728.184 1471.54 729.684C1468.66 731.204 1466.07 733.055 1463.7 735.145C1461.33 737.246 1459.16 739.566 1457.27 742.217C1455.41 744.898 1453.71 747.768 1452.7 751.419L1434.63 730.784C1438.38 730.264 1441.45 728.964 1444.35 727.474C1447.24 725.963 1449.83 724.113 1452.22 722.042C1454.61 719.962 1456.78 717.641 1458.67 714.991C1460.54 712.32 1462.23 709.44 1463.22 705.769L1481.28 726.393Z" fill="#004474"/>
<path d="M1473.28 663.039C1469.74 664.42 1467.06 666.41 1464.6 668.55C1462.17 670.711 1460.09 673.121 1458.28 675.722C1456.48 678.323 1454.92 681.093 1453.72 684.124C1452.55 687.165 1451.59 690.355 1451.47 694.146L1429.01 678.413C1432.53 677.012 1435.2 675.022 1437.66 672.881C1440.1 670.721 1442.17 668.31 1444 665.73C1445.83 663.139 1447.39 660.369 1448.59 657.348C1449.77 654.307 1450.72 651.107 1450.81 647.306L1473.28 663.039Z" fill="#004474"/>
<path d="M1324.45 609.614C1336.68 606.541 1345.75 600.675 1344.7 596.512C1343.66 592.35 1332.89 591.467 1320.66 594.54C1308.43 597.614 1299.36 603.48 1300.41 607.642C1301.46 611.805 1312.22 612.688 1324.45 609.614Z" fill="#004474" stroke="#004474" stroke-width="0.9512" stroke-miterlimit="10"/>
<path d="M1193.47 923.236C1197.29 921.292 1195.77 910.601 1190.06 899.357C1184.35 888.113 1176.62 880.573 1172.79 882.516C1168.96 884.46 1170.49 895.151 1176.2 906.395C1181.91 917.639 1189.64 925.179 1193.47 923.236Z" fill="#004474" stroke="#004474" stroke-width="0.9512" stroke-miterlimit="10"/>
<path d="M1523.14 911.152C1529.44 900.231 1531.54 889.637 1527.82 887.491C1524.11 885.345 1515.98 892.459 1509.68 903.381C1503.37 914.302 1501.27 924.896 1504.99 927.042C1508.71 929.188 1516.83 922.074 1523.14 911.152Z" fill="#004474" stroke="#004474" stroke-width="0.9512" stroke-miterlimit="10"/>
<path d="M1673.84 829.527H1692.78" stroke="#553240" stroke-width="9.5124" stroke-miterlimit="10"/>
<path d="M1673.84 849.931H1692.78" stroke="#553240" stroke-width="9.5124" stroke-miterlimit="10"/>
<path d="M1670.97 837.288H1632.09C1627.82 837.288 1624.32 833.788 1624.32 829.517C1624.32 825.246 1627.82 821.745 1632.09 821.745H1670.97C1675.24 821.745 1678.74 825.246 1678.74 829.517C1678.74 833.798 1675.24 837.288 1670.97 837.288Z" fill="#3F698C"/>
<path d="M1730.72 837.288H1691.84C1687.57 837.288 1684.07 833.788 1684.07 829.517C1684.07 825.246 1687.57 821.745 1691.84 821.745H1730.72C1734.99 821.745 1738.49 825.246 1738.49 829.517C1738.49 833.798 1735 837.288 1730.72 837.288Z" fill="#C0433B"/>
<path d="M1670.97 857.693H1632.09C1627.82 857.693 1624.32 854.192 1624.32 849.921C1624.32 845.65 1627.82 842.149 1632.09 842.149H1670.97C1675.24 842.149 1678.74 845.65 1678.74 849.921C1678.74 854.202 1675.24 857.693 1670.97 857.693Z" fill="#004570"/>
<path d="M1730.72 857.693H1691.84C1687.57 857.693 1684.07 854.192 1684.07 849.921C1684.07 845.65 1687.57 842.149 1691.84 842.149H1730.72C1734.99 842.149 1738.49 845.65 1738.49 849.921C1738.49 854.202 1735 857.693 1730.72 857.693Z" fill="#AD1900"/>
</g>
<path d="M1865.88 837.838L1784.36 835.518C1784.36 843.29 1765.98 869.616 1736.41 868.635C1699.6 867.415 1656.42 881.268 1656.42 881.268" stroke="#91679B" stroke-width="4" stroke-miterlimit="10"/>
<path d="M1655.11 791.198C1655.11 791.198 1698.3 805.051 1735.1 803.831C1764.67 802.851 1784.36 827.736 1784.36 835.508" stroke="#91679B" stroke-width="4" stroke-miterlimit="10"/>
<path d="M1648.14 806.721C1658.51 806.721 1666.92 798.316 1666.92 787.947C1666.92 777.579 1658.51 769.173 1648.14 769.173C1637.77 769.173 1629.37 777.579 1629.37 787.947C1629.37 798.316 1637.77 806.721 1648.14 806.721Z" fill="#9684C1" stroke="#91679B" stroke-width="4" stroke-miterlimit="10"/>
<path d="M1648.14 901.563C1658.51 901.563 1666.92 893.157 1666.92 882.789C1666.92 872.42 1658.51 864.014 1648.14 864.014C1637.77 864.014 1629.37 872.42 1629.37 882.789C1629.37 893.157 1637.77 901.563 1648.14 901.563Z" fill="#9684C1" stroke="#91679B" stroke-width="4" stroke-miterlimit="10"/>
<g clip-path="url(#clip6_4611_296484)">
<path d="M1831.27 587.702C1798.07 567.048 1772.54 587.992 1805.23 608.537C1844.12 632.992 1907.33 650.216 1870.87 720.022C1834.41 789.828 1756.27 726.273 1745.84 725.233C1735.42 724.193 1726.05 738.516 1752.09 752.709C1778.14 766.902 1826.07 779.415 1836.49 796.079C1846.92 812.753 1812.53 858.593 1792.73 870.056C1772.94 881.518 1713.55 917.986 1698.96 928.399C1684.38 938.811 1688.54 957.575 1710.42 947.153C1732.31 936.731 1784.4 899.222 1801.08 897.142C1817.75 895.061 1847.97 896.102 1856.3 913.816C1864.63 931.53 1865.68 958.616 1856.3 975.289C1846.92 991.963 1790.88 1072.18 1786.09 1080.52C1775.62 1098.75 1794.51 1115.09 1811.5 1096.16C1833.39 1071.74 1819.83 1038.85 1869.84 994.054C1919.85 949.254 1923.71 1010.37 1922.98 1020.1C1922.13 1031.44 1908.42 1053.3 1924.33 1054.49C1945.95 1056.11 1932.8 1037.97 1942.79 1014.9C1946.12 1007.19 1986.55 997.184 1994.88 1032.61C2003.21 1068.04 1993.84 1122.21 2003.21 1129.51C2012.59 1136.81 2027.18 1130.55 2026.14 1113.88C2025.1 1097.21 2014.85 1046.1 2015.71 1034.69C2017.21 1014.99 2030.3 1005.52 2046.97 1003.44C2063.64 1001.36 2084.39 993.714 2095.94 986.762C2115.25 975.149 2142.83 982.591 2159.5 993.013C2176.17 1003.44 2185.54 1011.77 2188.67 999.265C2191.8 986.762 2163.67 976.34 2161.59 965.927C2159.51 955.505 2156.38 902.373 2194.92 889.87C2233.47 877.367 2277.46 883.339 2303.28 888.83C2336.95 895.992 2346.14 910.295 2352.25 905.504C2361.81 898.012 2346.09 880.168 2314.74 872.166C2294.28 866.935 2264.81 860.243 2244.93 857.023C2214.94 852.162 2182.42 833.618 2182.42 816.944C2182.42 800.27 2195.96 765.892 2217.85 752.349C2239.73 738.806 2266.82 737.766 2262.65 726.303C2258.48 714.841 2230.35 725.263 2213.68 730.474C2197 735.685 2154.29 746.108 2136.58 712.76C2118.87 679.423 2155.33 628.361 2163.67 615.859C2172 603.356 2201.09 569.118 2198.05 559.596C2196.75 555.505 2186.28 554.365 2172.01 574.179C2151.4 602.786 2125.12 654.407 2077.2 651.276C2029.28 648.146 2033.13 601.315 2033.44 591.883C2034.08 572.169 2015.69 554.325 2014.68 590.843C2013.56 631.472 2012.6 633.562 1999.05 635.643C1985.51 637.723 1961.54 645.025 1945.91 651.276C1930.27 657.528 1910.48 653.357 1888.6 634.603C1866.73 615.849 1838.77 592.373 1831.27 587.702Z" fill="#AD779C" stroke="#6B1A49" stroke-width="2" stroke-miterlimit="10"/>
<path d="M2006.11 901.113C2044.88 901.113 2076.32 869.68 2076.32 830.907C2076.32 792.133 2044.88 760.701 2006.11 760.701C1967.34 760.701 1935.91 792.133 1935.91 830.907C1935.91 869.68 1967.34 901.113 2006.11 901.113Z" fill="#582853" stroke="#6B1A49" stroke-width="2" stroke-miterlimit="10"/>
<path d="M2000.06 721.062C2000.06 721.062 1934.42 720.022 1905.25 792.958" stroke="#5A2C50" stroke-width="12" stroke-miterlimit="10" stroke-linecap="round"/>
<path d="M2006.11 695.016C2006.11 695.016 1924 693.976 1884.41 775.244" stroke="#5A2C50" stroke-width="12" stroke-miterlimit="10" stroke-linecap="round"/>
<path d="M1977.13 757.01C1977.13 757.01 1955.09 762.742 1935.9 788.787" stroke="#5A2C50" stroke-width="12" stroke-miterlimit="10" stroke-linecap="round"/>
<path d="M1925.76 838.769C1925.76 838.769 1931.89 904.653 1997.27 912.825" stroke="#5A2C50" stroke-width="12" stroke-miterlimit="10" stroke-linecap="round"/>
<path d="M1901.76 860.214C1901.76 860.214 1909.74 930.189 2006.11 939.891" stroke="#5A2C50" stroke-width="12" stroke-miterlimit="10" stroke-linecap="round"/>
<path d="M1905.25 919.977C1905.25 919.977 1938.67 956.755 1979.91 962.877" stroke="#5A2C50" stroke-width="12" stroke-miterlimit="10" stroke-linecap="round"/>
<path d="M2062.13 772.894C2067.25 776.965 2121.89 835.698 2057.53 895.962" stroke="#5A2C50" stroke-width="12" stroke-miterlimit="10" stroke-linecap="round"/>
<path d="M2099.93 775.244C2099.93 775.244 2137.22 829.066 2095.33 892.911" stroke="#5A2C50" stroke-width="12" stroke-miterlimit="10" stroke-linecap="round"/>
<path d="M2142.32 828.546C2142.32 828.546 2139.26 898.522 2095.33 933.25" stroke="#5A2C50" stroke-width="12" stroke-miterlimit="10" stroke-linecap="round"/>
<path d="M2074.44 735.29C2075.84 731.668 2069.62 725.888 2060.54 722.379C2051.46 718.87 2042.97 718.962 2041.57 722.584C2040.17 726.206 2046.39 731.986 2055.47 735.495C2064.55 739.004 2073.04 738.913 2074.44 735.29Z" fill="#5A2C50"/>
<path d="M2165.12 795.36C2168.67 793.779 2168.33 785.291 2164.37 776.399C2160.41 767.508 2154.32 761.58 2150.78 763.161C2147.23 764.741 2147.56 773.23 2151.52 782.121C2155.48 791.013 2161.57 796.94 2165.12 795.36Z" fill="#5A2C50"/>
<path d="M2053.28 966.152C2062.76 963.988 2069.76 959.164 2068.89 955.378C2068.03 951.592 2059.64 950.278 2050.15 952.442C2040.66 954.607 2033.67 959.431 2034.53 963.217C2035.39 967.003 2043.79 968.317 2053.28 966.152Z" fill="#5A2C50"/>
<path d="M1865.04 843.378C1868.87 842.767 1870.74 834.479 1869.21 824.866C1867.68 815.253 1863.33 807.956 1859.49 808.567C1855.66 809.178 1853.79 817.465 1855.32 827.078C1856.85 836.691 1861.2 843.988 1865.04 843.378Z" fill="#5A2C50"/>
<path d="M1910.62 738.876C1911.17 741.027 1912.11 742.727 1913.18 744.307C1914.26 745.868 1915.5 747.258 1916.87 748.488C1918.24 749.729 1919.75 750.819 1921.4 751.739C1923.07 752.649 1924.86 753.419 1927.04 753.77L1916.3 765.632C1915.74 763.502 1914.79 761.791 1913.73 760.221C1912.65 758.661 1911.42 757.27 1910.05 756.03C1908.69 754.78 1907.18 753.69 1905.53 752.769C1903.86 751.859 1902.07 751.089 1899.88 750.749L1910.62 738.876Z" fill="#5A2C50"/>
<path d="M1952.64 738.576C1952.73 740.787 1953.3 742.657 1954.02 744.417C1954.76 746.168 1955.68 747.778 1956.77 749.268C1957.86 750.759 1959.11 752.139 1960.53 753.389C1961.98 754.62 1963.57 755.75 1965.63 756.54L1952.67 765.922C1952.56 763.722 1951.99 761.851 1951.27 760.091C1950.53 758.341 1949.62 756.73 1948.54 755.23C1947.47 753.729 1946.22 752.349 1944.79 751.099C1943.34 749.869 1941.75 748.738 1939.68 747.958L1952.64 738.576Z" fill="#5A2C50"/>
<path d="M2088 851.081C2089.52 852.692 2091.18 853.722 2092.88 854.582C2094.58 855.412 2096.34 856.033 2098.14 856.443C2099.94 856.853 2101.79 857.073 2103.68 857.083C2105.58 857.063 2107.52 856.873 2109.59 856.113L2105.97 871.696C2104.44 870.106 2102.79 869.076 2101.09 868.215C2099.39 867.385 2097.63 866.765 2095.84 866.345C2094.04 865.915 2092.2 865.695 2090.3 865.695C2088.4 865.715 2086.46 865.905 2084.38 866.685L2088 851.081Z" fill="#5A2C50"/>
<path d="M1910.15 875.867C1912.36 875.767 1914.23 875.187 1915.98 874.457C1917.72 873.717 1919.33 872.786 1920.82 871.686C1922.31 870.596 1923.68 869.336 1924.92 867.905C1926.15 866.455 1927.27 864.855 1928.05 862.794L1937.49 875.727C1935.29 875.837 1933.42 876.427 1931.66 877.147C1929.92 877.887 1928.3 878.818 1926.81 879.898C1925.31 880.978 1923.94 882.228 1922.7 883.669C1921.47 885.119 1920.35 886.719 1919.58 888.79L1910.15 875.867Z" fill="#5A2C50"/>
<path d="M1936.53 940.982C1938.47 939.911 1939.89 938.571 1941.15 937.151C1942.39 935.71 1943.43 934.17 1944.28 932.53C1945.14 930.889 1945.81 929.159 1946.3 927.329C1946.76 925.478 1947.07 923.558 1946.86 921.357L1961.02 928.809C1959.09 929.879 1957.68 931.229 1956.42 932.65C1955.18 934.09 1954.14 935.63 1953.28 937.261C1952.41 938.891 1951.73 940.622 1951.25 942.452C1950.79 944.292 1950.48 946.223 1950.71 948.433L1936.53 940.982Z" fill="#5A2C50"/>
<path d="M2118.68 835.218C2120.51 836.468 2122.34 837.128 2124.18 837.608C2126.02 838.069 2127.86 838.299 2129.71 838.319C2131.56 838.349 2133.41 838.169 2135.26 837.779C2137.11 837.358 2138.97 836.758 2140.84 835.588L2140.57 851.592C2138.74 850.351 2136.91 849.701 2135.07 849.221C2133.23 848.761 2131.39 848.531 2129.54 848.491C2127.69 848.451 2125.84 848.621 2123.99 849.021C2122.14 849.441 2120.28 850.041 2118.41 851.232L2118.68 835.218Z" fill="#5A2C50"/>
</g>
<defs>
<clipPath id="clip0_4611_296484">
<rect width="663.1" height="536.01" fill="white" transform="scale(1.00023)"/>
</clipPath>
<clipPath id="clip1_4611_296484">
<rect width="663.1" height="536.01" fill="white" transform="translate(0 1113.25) scale(1.00023)"/>
</clipPath>
<clipPath id="clip2_4611_296484">
<rect width="663.1" height="536.01" fill="white" transform="translate(743.167) scale(1.00023)"/>
</clipPath>
<clipPath id="clip3_4611_296484">
<rect width="663.1" height="536.01" fill="white" transform="translate(743.167 1113.25) scale(1.00023)"/>
</clipPath>
<clipPath id="clip4_4611_296484">
<rect width="663.1" height="536.01" fill="white" transform="translate(363.082 577.13) scale(1.00023)"/>
</clipPath>
<clipPath id="clip5_4611_296484">
<rect width="663.1" height="536.01" fill="white" transform="translate(1075.24 556.125) scale(1.00023)"/>
</clipPath>
<clipPath id="clip6_4611_296484">
<rect width="666.47" height="577.24" fill="white" transform="translate(1689.38 556.125) scale(1.00023)"/>
</clipPath>
</defs>
</svg>
