<svg width="699" height="578" viewBox="0 0 699 578" fill="none" xmlns="http://www.w3.org/2000/svg">
<g clip-path="url(#clip0_4611_295959)">
<path d="M695.986 403.581C690.54 376.638 674.57 339.633 656.058 329.801C649.119 324.585 638.867 319.619 625.961 316.325C605.476 311.088 575.98 304.39 556.086 301.166C526.06 296.3 493.51 277.738 493.51 261.047C493.51 244.357 507.067 209.945 528.973 196.389C550.88 182.832 577.993 181.791 573.818 170.317C569.643 158.843 541.488 169.276 524.798 174.492C508.108 179.709 465.346 190.141 447.624 156.761C429.893 123.39 466.397 72.2879 474.737 59.7727C483.077 47.2575 512.193 12.9858 509.159 3.4542C507.858 -0.640783 497.375 -1.78217 483.087 18.052C462.462 46.6868 436.15 98.3596 388.182 95.2258C340.204 92.092 344.068 45.215 344.379 35.7735C345.02 16.0395 326.617 -1.82222 325.606 34.7322C324.485 75.4017 323.523 77.4942 309.957 79.5768C296.4 81.6593 272.411 88.9682 256.762 95.2258C241.113 101.483 221.299 97.3083 199.402 78.5355C177.506 59.7627 149.552 36.2741 142.043 31.5984C108.812 10.9233 83.2512 31.8888 115.971 52.4538C154.908 76.9336 218.175 94.1745 181.681 164.05C145.177 233.925 66.9614 170.307 56.5287 169.266C46.096 168.225 36.7146 182.562 62.7863 196.769C88.858 210.987 136.836 223.502 147.269 240.182C157.702 256.872 123.28 302.758 103.466 314.232C83.6517 325.706 24.1994 362.21 9.60165 372.633C-4.9961 383.066 -0.831035 401.839 21.0756 391.406C42.9822 380.973 95.1257 343.428 111.816 341.345C128.506 339.263 158.753 340.304 167.093 358.035C175.433 375.767 176.485 402.88 167.093 419.57C157.702 436.261 101.614 516.558 96.8177 524.908C86.335 543.151 105.248 559.51 122.249 540.557C144.165 516.118 130.589 483.198 180.65 438.353C230.711 393.509 234.575 454.683 233.844 464.425C232.993 475.779 219.267 497.655 235.196 498.847C256.832 500.469 243.676 482.317 253.668 459.218C257.003 451.499 297.472 441.487 305.812 476.95C314.152 512.413 304.771 566.639 314.152 573.938C323.533 581.237 338.141 574.979 337.1 558.289C336.059 541.599 325.806 490.436 326.667 479.023C328.169 459.299 341.265 449.817 357.955 447.735C374.646 445.652 395.411 438.003 406.975 431.044C414.754 426.359 423.885 424.777 433.097 425.237C446.763 425.918 461.631 429.793 469.911 440.686C492.589 470.512 503.492 511.842 523.567 529.344C578.684 577.402 649.34 534.46 666.32 516.798C684.823 497.515 704.417 445.292 695.986 403.581Z" fill="#AD779C" stroke="#6B1A49" stroke-width="2" stroke-miterlimit="10"/>
<path d="M317.046 345.33C355.858 345.33 387.321 313.867 387.321 275.055C387.321 236.242 355.858 204.779 317.046 204.779C278.233 204.779 246.77 236.242 246.77 275.055C246.77 313.867 278.233 345.33 317.046 345.33Z" fill="#582853" stroke="#6B1A49" stroke-width="2" stroke-miterlimit="10"/>
<path d="M310.988 165.101C310.988 165.101 245.278 164.06 216.083 237.068" stroke="#5A2C50" stroke-width="12" stroke-miterlimit="10" stroke-linecap="round"/>
<path d="M317.046 139.029C317.046 139.029 234.856 137.988 195.227 219.337" stroke="#5A2C50" stroke-width="12" stroke-miterlimit="10" stroke-linecap="round"/>
<path d="M288.04 201.085C288.04 201.085 265.973 206.821 246.76 232.893" stroke="#5A2C50" stroke-width="12" stroke-miterlimit="10" stroke-linecap="round"/>
<path d="M236.618 282.924C236.618 282.924 242.755 348.874 308.195 357.054" stroke="#5A2C50" stroke-width="12" stroke-miterlimit="10" stroke-linecap="round"/>
<path d="M212.588 304.39C212.588 304.39 220.578 374.435 317.046 384.147" stroke="#5A2C50" stroke-width="12" stroke-miterlimit="10" stroke-linecap="round"/>
<path d="M216.083 364.213C216.083 364.213 249.533 401.028 290.814 407.155" stroke="#5A2C50" stroke-width="12" stroke-miterlimit="10" stroke-linecap="round"/>
<path d="M373.124 216.984C378.24 221.059 432.936 279.85 368.518 340.174" stroke="#5A2C50" stroke-width="12" stroke-miterlimit="10" stroke-linecap="round"/>
<path d="M410.96 219.337C410.96 219.337 448.285 273.212 406.354 337.12" stroke="#5A2C50" stroke-width="12" stroke-miterlimit="10" stroke-linecap="round"/>
<path d="M453.391 272.692C453.391 272.692 450.328 342.737 406.354 377.499" stroke="#5A2C50" stroke-width="12" stroke-miterlimit="10" stroke-linecap="round"/>
<path d="M385.446 179.343C386.847 175.717 380.616 169.931 371.529 166.419C362.442 162.906 353.939 162.998 352.538 166.624C351.136 170.249 357.367 176.036 366.454 179.548C375.542 183.061 384.045 182.969 385.446 179.343Z" fill="#5A2C50"/>
<path d="M476.21 239.472C479.761 237.89 479.426 229.393 475.461 220.492C471.497 211.592 465.405 205.659 461.853 207.241C458.302 208.823 458.638 217.32 462.602 226.22C466.567 235.121 472.659 241.054 476.21 239.472Z" fill="#5A2C50"/>
<path d="M364.257 410.434C373.755 408.268 380.755 403.439 379.89 399.649C379.025 395.859 370.625 394.544 361.126 396.711C351.627 398.877 344.628 403.706 345.493 407.496C346.357 411.286 354.758 412.601 364.257 410.434Z" fill="#5A2C50"/>
<path d="M175.832 287.538C179.671 286.926 181.541 278.63 180.008 269.008C178.476 259.385 174.121 252.081 170.282 252.692C166.443 253.304 164.573 261.6 166.106 271.222C167.638 280.844 171.993 288.149 175.832 287.538Z" fill="#5A2C50"/>
<path d="M221.459 182.932C222.01 185.085 222.951 186.787 224.022 188.369C225.104 189.931 226.345 191.323 227.717 192.554C229.089 193.796 230.6 194.887 232.252 195.808C233.924 196.719 235.717 197.49 237.899 197.841L227.146 209.715C226.586 207.582 225.634 205.87 224.573 204.298C223.492 202.737 222.26 201.345 220.889 200.103C219.527 198.852 218.015 197.761 216.363 196.839C214.691 195.928 212.899 195.157 210.706 194.817L221.459 182.932Z" fill="#5A2C50"/>
<path d="M263.52 182.632C263.611 184.845 264.181 186.717 264.902 188.479C265.643 190.231 266.564 191.843 267.655 193.335C268.747 194.827 269.998 196.209 271.42 197.46C272.872 198.692 274.464 199.823 276.526 200.614L263.551 210.005C263.44 207.803 262.87 205.93 262.149 204.168C261.408 202.416 260.497 200.804 259.415 199.302C258.344 197.801 257.093 196.419 255.661 195.167C254.209 193.936 252.617 192.805 250.545 192.024L263.52 182.632Z" fill="#5A2C50"/>
<path d="M399.015 295.249C400.537 296.861 402.199 297.892 403.901 298.753C405.603 299.584 407.365 300.205 409.168 300.616C410.97 301.026 412.822 301.246 414.714 301.256C416.617 301.236 418.559 301.046 420.631 300.285L417.007 315.884C415.475 314.292 413.823 313.261 412.121 312.4C410.419 311.569 408.657 310.948 406.865 310.528C405.063 310.097 403.22 309.877 401.318 309.877C399.416 309.897 397.473 310.087 395.391 310.868L399.015 295.249Z" fill="#5A2C50"/>
<path d="M220.989 320.059C223.201 319.959 225.074 319.378 226.826 318.648C228.568 317.907 230.18 316.975 231.672 315.874C233.164 314.783 234.535 313.521 235.777 312.09C237.008 310.638 238.13 309.036 238.911 306.973L248.352 319.919C246.149 320.029 244.287 320.62 242.525 321.341C240.783 322.082 239.161 323.013 237.669 324.094C236.167 325.175 234.796 326.427 233.554 327.869C232.323 329.32 231.201 330.922 230.43 332.995L220.989 320.059Z" fill="#5A2C50"/>
<path d="M247.391 385.239C249.333 384.167 250.755 382.826 252.016 381.404C253.258 379.962 254.299 378.42 255.15 376.778C256.011 375.136 256.682 373.404 257.173 371.572C257.633 369.72 257.944 367.797 257.733 365.595L271.911 373.054C269.978 374.125 268.567 375.477 267.305 376.898C266.064 378.34 265.022 379.882 264.161 381.514C263.29 383.146 262.609 384.878 262.129 386.71C261.668 388.553 261.358 390.485 261.588 392.698L247.391 385.239Z" fill="#5A2C50"/>
<path d="M429.723 279.37C431.555 280.621 433.387 281.282 435.229 281.763C437.072 282.223 438.914 282.454 440.766 282.474C442.618 282.504 444.47 282.323 446.323 281.933C448.175 281.512 450.037 280.912 451.91 279.74L451.639 295.76C449.807 294.518 447.975 293.867 446.133 293.387C444.29 292.926 442.448 292.696 440.596 292.656C438.744 292.616 436.891 292.786 435.039 293.187C433.187 293.607 431.324 294.208 429.452 295.399L429.723 279.37Z" fill="#5A2C50"/>
<path d="M516.678 346.772C490.717 373.484 491.738 417.458 497.865 445.282C503.993 473.105 520.573 494.121 535.802 510.2C551.03 526.28 588.406 535.101 629.856 516.798C662.606 502.331 682.61 431.214 679.877 415.846C675.782 392.898 664.889 363.592 629.856 344.269C597.687 326.527 554.524 307.844 516.678 346.772Z" fill="#FFAEC9" stroke="#91679B" stroke-width="2.4401" stroke-miterlimit="10"/>
<path d="M587.124 348.774V423.265L639.788 370.591L587.124 423.265H661.605H587.124L639.788 475.929L587.124 423.265V497.745V423.265L534.46 475.929L587.124 423.265H512.643H587.124L534.46 370.591L587.124 423.265V348.774Z" fill="#D6D0DE" stroke="#91679B" stroke-width="2.4401" stroke-miterlimit="10"/>
<path d="M587.124 458.057C606.339 458.057 621.916 442.48 621.916 423.265C621.916 404.049 606.339 388.472 587.124 388.472C567.909 388.472 552.332 404.049 552.332 423.265C552.332 442.48 567.909 458.057 587.124 458.057Z" fill="#D6D0DE" stroke="#91679B" stroke-width="2.4401" stroke-miterlimit="10"/>
<path d="M534.81 485.21C540.091 485.21 544.372 480.929 544.372 475.648C544.372 470.368 540.091 466.087 534.81 466.087C529.53 466.087 525.249 470.368 525.249 475.648C525.249 480.929 529.53 485.21 534.81 485.21Z" fill="#9684C1" stroke="#91679B" stroke-width="2.4401" stroke-miterlimit="10"/>
<path d="M515.677 432.826C520.958 432.826 525.239 428.545 525.239 423.265C525.239 417.984 520.958 413.703 515.677 413.703C510.396 413.703 506.116 417.984 506.116 423.265C506.116 428.545 510.396 432.826 515.677 432.826Z" fill="#9684C1" stroke="#91679B" stroke-width="2.4401" stroke-miterlimit="10"/>
<path d="M534.81 380.152C540.091 380.152 544.372 375.871 544.372 370.591C544.372 365.31 540.091 361.029 534.81 361.029C529.53 361.029 525.249 365.31 525.249 370.591C525.249 375.871 529.53 380.152 534.81 380.152Z" fill="#9684C1" stroke="#91679B" stroke-width="2.4401" stroke-miterlimit="10"/>
<path d="M587.124 361.309C592.405 361.309 596.686 357.029 596.686 351.748C596.686 346.467 592.405 342.186 587.124 342.186C581.843 342.186 577.562 346.467 577.562 351.748C577.562 357.029 581.843 361.309 587.124 361.309Z" fill="#9684C1" stroke="#91679B" stroke-width="2.4401" stroke-miterlimit="10"/>
<path d="M638.427 380.443C643.707 380.443 647.988 376.162 647.988 370.881C647.988 365.6 643.707 361.319 638.427 361.319C633.146 361.319 628.865 365.6 628.865 370.881C628.865 376.162 633.146 380.443 638.427 380.443Z" fill="#9684C1" stroke="#91679B" stroke-width="2.4401" stroke-miterlimit="10"/>
<path d="M659.212 432.826C664.492 432.826 668.773 428.545 668.773 423.265C668.773 417.984 664.492 413.703 659.212 413.703C653.931 413.703 649.65 417.984 649.65 423.265C649.65 428.545 653.931 432.826 659.212 432.826Z" fill="#9684C1" stroke="#91679B" stroke-width="2.4401" stroke-miterlimit="10"/>
<path d="M587.124 504.333C592.405 504.333 596.686 500.052 596.686 494.772C596.686 489.491 592.405 485.21 587.124 485.21C581.843 485.21 577.562 489.491 577.562 494.772C577.562 500.052 581.843 504.333 587.124 504.333Z" fill="#9684C1" stroke="#91679B" stroke-width="2.4401" stroke-miterlimit="10"/>
<path d="M638.427 485.21C643.707 485.21 647.988 480.929 647.988 475.648C647.988 470.368 643.707 466.087 638.427 466.087C633.146 466.087 628.865 470.368 628.865 475.648C628.865 480.929 633.146 485.21 638.427 485.21Z" fill="#9684C1" stroke="#91679B" stroke-width="2.4401" stroke-miterlimit="10"/>
</g>
<defs>
<clipPath id="clip0_4611_295959">
<rect width="698.15" height="577.24" fill="white" transform="scale(1.00122)"/>
</clipPath>
</defs>
</svg>
