<svg width="1691" height="809" viewBox="0 0 1691 809" fill="none" xmlns="http://www.w3.org/2000/svg">
<g clip-path="url(#clip0_4614_299342)">
<path d="M1556.47 494.306H1584.16" stroke="#073E64" stroke-width="2" stroke-miterlimit="10"/>
<path d="M1556.47 514.706H1581.25" stroke="#073E64" stroke-width="2" stroke-miterlimit="10"/>
<path d="M1295.47 755.988C1442.94 755.988 1562.48 636.442 1562.48 488.975C1562.48 341.508 1442.94 221.963 1295.47 221.963C1148 221.963 1028.46 341.508 1028.46 488.975C1028.46 636.442 1148 755.988 1295.47 755.988Z" fill="#F8C18D" stroke="#AF6924" stroke-width="2" stroke-miterlimit="10"/>
<path d="M1295.47 591.02C1351.83 591.02 1397.52 545.333 1397.52 488.975C1397.52 432.617 1351.83 386.93 1295.47 386.93C1239.11 386.93 1193.43 432.617 1193.43 488.975C1193.43 545.333 1239.11 591.02 1295.47 591.02Z" fill="#CB6700" stroke="#CB6700" stroke-width="0.9512" stroke-miterlimit="10"/>
<path d="M1168.41 510.016C1168.41 510.016 1184.18 610.051 1287.59 623.151" stroke="#CB6700" stroke-width="17.1223" stroke-miterlimit="10" stroke-linecap="round"/>
<path d="M1131.72 542.178C1131.72 542.178 1165.33 664.043 1309.18 666.583" stroke="#CB6700" stroke-width="17.1223" stroke-miterlimit="10" stroke-linecap="round"/>
<path d="M1142.18 641.452C1142.18 641.452 1191.07 693.575 1263.38 706.055" stroke="#CB6700" stroke-width="17.1223" stroke-miterlimit="10" stroke-linecap="round"/>
<path d="M1184.12 431.533C1184.12 431.533 1203.38 388.021 1249.74 375.57" stroke="#CB6700" stroke-width="17.1223" stroke-miterlimit="10" stroke-linecap="round"/>
<path d="M1133.06 445.203C1133.06 445.203 1161.59 330.178 1286.97 323.008" stroke="#CB6700" stroke-width="17.1223" stroke-miterlimit="10" stroke-linecap="round"/>
<path d="M1097.9 414.942C1097.9 414.942 1154.64 276.315 1294.97 281.106" stroke="#CB6700" stroke-width="17.1223" stroke-miterlimit="10" stroke-linecap="round"/>
<path d="M1379.97 595.5C1379.97 595.5 1485.73 496.666 1383.37 397.041" stroke="#CB6700" stroke-width="17.1223" stroke-miterlimit="10" stroke-linecap="round"/>
<path d="M1442.11 588.3C1442.11 588.3 1504.45 501.526 1443.03 400.111" stroke="#CB6700" stroke-width="17.1223" stroke-miterlimit="10" stroke-linecap="round"/>
<path d="M1448.21 649.413C1448.21 649.413 1517.91 589.77 1514.11 484.025" stroke="#CB6700" stroke-width="17.1223" stroke-miterlimit="10" stroke-linecap="round"/>
<path d="M1467.06 489.795C1470.58 492.585 1474.2 494.126 1477.84 495.366C1481.49 496.546 1485.18 497.236 1488.9 497.536C1492.62 497.826 1496.38 497.756 1500.17 497.186C1503.97 496.566 1507.79 495.656 1511.72 493.515L1509.04 525.737C1505.52 522.977 1501.9 521.447 1498.26 520.207C1494.61 519.017 1490.92 518.327 1487.2 518.007C1483.48 517.687 1479.73 517.757 1475.93 518.317C1472.13 518.937 1468.31 519.857 1464.38 522.027L1467.06 489.795Z" fill="#CB6700"/>
<path d="M1424.16 519.457C1426.57 522.397 1429.29 524.337 1432.08 526.007C1434.89 527.657 1437.82 528.877 1440.85 529.797C1443.88 530.707 1447 531.337 1450.25 531.537C1453.51 531.717 1456.84 531.637 1460.48 530.577L1452.45 556.798C1450.03 553.878 1447.31 551.958 1444.52 550.278C1441.72 548.628 1438.78 547.398 1435.76 546.458C1432.74 545.528 1429.62 544.898 1426.37 544.688C1423.12 544.508 1419.78 544.588 1416.14 545.678L1424.16 519.457Z" fill="#CB6700"/>
<path d="M1189.56 677.204C1192.52 674.814 1194.47 672.104 1196.16 669.313C1197.82 666.513 1199.07 663.593 1200.01 660.563C1200.94 657.533 1201.58 654.423 1201.81 651.173C1202 647.913 1201.95 644.582 1200.91 640.942L1227.08 649.133C1224.15 651.533 1222.21 654.243 1220.51 657.023C1218.84 659.813 1217.6 662.743 1216.63 665.763C1215.68 668.783 1215.03 671.894 1214.81 675.144C1214.61 678.394 1214.67 681.734 1215.74 685.384L1189.56 677.204Z" fill="#CB6700"/>
<path d="M1145.44 564.969C1149.22 565.429 1152.52 564.939 1155.69 564.209C1158.86 563.459 1161.82 562.308 1164.64 560.868C1167.47 559.428 1170.15 557.718 1172.63 555.618C1175.1 553.488 1177.46 551.128 1179.34 547.848L1191.7 572.319C1187.94 571.889 1184.64 572.379 1181.46 573.109C1178.29 573.859 1175.33 575.009 1172.49 576.419C1169.66 577.839 1166.97 579.549 1164.48 581.649C1162.01 583.769 1159.66 586.14 1157.78 589.45L1145.44 564.969Z" fill="#CB6700"/>
<path d="M1204.91 346.179C1205.21 349.969 1206.34 353.109 1207.69 356.079C1209.06 359.029 1210.77 361.709 1212.74 364.189C1214.71 366.67 1216.92 368.96 1219.47 370.97C1222.05 372.97 1224.83 374.81 1228.42 376L1206.89 392.971C1206.57 389.191 1205.43 386.06 1204.08 383.09C1202.72 380.14 1201 377.45 1199.06 374.96C1197.11 372.47 1194.9 370.18 1192.35 368.16C1189.78 366.159 1186.99 364.319 1183.37 363.139L1204.91 346.179Z" fill="#CB6700"/>
<path d="M1141.24 350.919C1142.44 354.529 1144.28 357.309 1146.3 359.869C1148.33 362.409 1150.63 364.609 1153.13 366.55C1155.64 368.48 1158.32 370.18 1161.29 371.53C1164.27 372.86 1167.41 373.98 1171.19 374.29L1154.31 395.911C1153.1 392.321 1151.24 389.551 1149.23 386.98C1147.2 384.44 1144.9 382.24 1142.41 380.28C1139.92 378.33 1137.23 376.63 1134.27 375.27C1131.3 373.94 1128.15 372.82 1124.36 372.54L1141.24 350.919Z" fill="#CB6700"/>
<path d="M1077.05 520.678C1081.26 519.848 1082.69 509.145 1080.25 496.774C1077.81 484.404 1072.42 475.048 1068.21 475.879C1064 476.71 1062.56 487.412 1065 499.783C1067.45 512.154 1072.84 521.509 1077.05 520.678Z" fill="#CB6700" stroke="#CB6700" stroke-width="0.9512" stroke-miterlimit="10"/>
<path d="M1368.99 660.047C1380.51 654.923 1388.43 647.59 1386.69 643.669C1384.95 639.748 1374.19 640.723 1362.67 645.847C1351.15 650.972 1343.22 658.305 1344.97 662.226C1346.71 666.147 1357.47 665.171 1368.99 660.047Z" fill="#CB6700" stroke="#CB6700" stroke-width="0.9512" stroke-miterlimit="10"/>
<path d="M1406.46 332.802C1408.79 329.2 1402.1 320.722 1391.52 313.865C1380.94 307.008 1370.47 304.369 1368.14 307.971C1365.8 311.572 1372.49 320.05 1383.07 326.907C1393.65 333.764 1404.12 336.403 1406.46 332.802Z" fill="#CB6700" stroke="#CB6700" stroke-width="0.9512" stroke-miterlimit="10"/>
<path d="M1625.94 494.306H1644.89" stroke="#553240" stroke-width="9.5124" stroke-miterlimit="10"/>
<path d="M1625.94 514.706H1644.89" stroke="#553240" stroke-width="9.5124" stroke-miterlimit="10"/>
<path d="M1623.07 502.076H1584.19C1579.92 502.076 1576.42 498.576 1576.42 494.306C1576.42 490.035 1579.92 486.535 1584.19 486.535H1623.07C1627.34 486.535 1630.84 490.035 1630.84 494.306C1630.84 498.586 1627.35 502.076 1623.07 502.076Z" fill="#B5E61D" stroke="#B5E61D" stroke-miterlimit="10"/>
<path d="M1682.82 502.076H1643.95C1639.68 502.076 1636.18 498.576 1636.18 494.306C1636.18 490.035 1639.68 486.535 1643.95 486.535H1682.82C1687.09 486.535 1690.59 490.035 1690.59 494.306C1690.59 498.586 1687.09 502.076 1682.82 502.076Z" fill="#FF7F27"/>
<path d="M1623.07 522.477H1584.19C1579.92 522.477 1576.42 518.977 1576.42 514.706C1576.42 510.436 1579.92 506.936 1584.19 506.936H1623.07C1627.34 506.936 1630.84 510.436 1630.84 514.706C1630.84 518.987 1627.35 522.477 1623.07 522.477Z" fill="#22B14C"/>
<path d="M1682.82 522.477H1643.95C1639.68 522.477 1636.18 518.977 1636.18 514.706C1636.18 510.436 1639.68 506.936 1643.95 506.936H1682.82C1687.09 506.936 1690.59 510.436 1690.59 514.706C1690.59 518.987 1687.09 522.477 1682.82 522.477Z" fill="#B97A57"/>
</g>
<g clip-path="url(#clip1_4614_299342)">
<path d="M454.422 808.98C601.889 808.98 721.435 689.434 721.435 541.968C721.435 394.501 601.889 274.955 454.422 274.955C306.956 274.955 187.41 394.501 187.41 541.968C187.41 689.434 306.956 808.98 454.422 808.98Z" fill="#F8C18D" stroke="#AF6924" stroke-width="2" stroke-miterlimit="10"/>
<path d="M454.422 781.849C586.905 781.849 694.303 674.45 694.303 541.968C694.303 409.485 586.905 302.086 454.422 302.086C321.94 302.086 214.541 409.485 214.541 541.968C214.541 674.45 321.94 781.849 454.422 781.849Z" fill="#F28B2F"/>
<path d="M454.422 644.012C510.78 644.012 556.467 598.325 556.467 541.968C556.467 485.61 510.78 439.923 454.422 439.923C398.065 439.923 352.378 485.61 352.378 541.968C352.378 598.325 398.065 644.012 454.422 644.012Z" fill="#CB6700" stroke="#CB6700" stroke-width="0.9512" stroke-miterlimit="10"/>
<path d="M327.356 563.009C327.356 563.009 343.127 663.043 446.542 676.144" stroke="#CB6700" stroke-width="17.1223" stroke-miterlimit="10" stroke-linecap="round"/>
<path d="M290.675 595.17C290.675 595.17 324.286 717.036 468.133 719.576" stroke="#CB6700" stroke-width="17.1223" stroke-miterlimit="10" stroke-linecap="round"/>
<path d="M301.135 694.445C301.135 694.445 350.018 746.567 422.331 759.048" stroke="#CB6700" stroke-width="17.1223" stroke-miterlimit="10" stroke-linecap="round"/>
<path d="M343.067 484.525C343.067 484.525 362.328 441.013 408.69 428.563" stroke="#CB6700" stroke-width="17.1223" stroke-miterlimit="10" stroke-linecap="round"/>
<path d="M292.015 498.196C292.015 498.196 320.546 383.17 445.922 376" stroke="#CB6700" stroke-width="17.1223" stroke-miterlimit="10" stroke-linecap="round"/>
<path d="M256.853 467.934C256.853 467.934 313.596 329.308 453.922 334.098" stroke="#CB6700" stroke-width="17.1223" stroke-miterlimit="10" stroke-linecap="round"/>
<path d="M538.916 648.493C538.916 648.493 644.681 549.658 542.317 450.033" stroke="#CB6700" stroke-width="17.1223" stroke-miterlimit="10" stroke-linecap="round"/>
<path d="M601.059 641.292C601.059 641.292 663.402 554.518 601.979 453.103" stroke="#CB6700" stroke-width="17.1223" stroke-miterlimit="10" stroke-linecap="round"/>
<path d="M607.159 702.405C607.159 702.405 676.863 642.762 673.062 537.017" stroke="#CB6700" stroke-width="17.1223" stroke-miterlimit="10" stroke-linecap="round"/>
<path d="M626.01 542.788C629.53 545.578 633.15 547.118 636.791 548.358C640.441 549.538 644.131 550.228 647.851 550.528C651.571 550.818 655.332 550.748 659.122 550.178C662.922 549.558 666.742 548.648 670.672 546.508L667.992 578.729C664.472 575.969 660.852 574.439 657.212 573.199C653.561 572.009 649.871 571.319 646.151 570.999C642.431 570.679 638.681 570.749 634.881 571.309C631.08 571.929 627.26 572.849 623.33 575.019L626.01 542.788Z" fill="#CB6700"/>
<path d="M583.108 572.449C585.519 575.389 588.239 577.329 591.029 578.999C593.839 580.649 596.769 581.869 599.799 582.79C602.829 583.7 605.949 584.33 609.2 584.53C612.46 584.71 615.79 584.63 619.43 583.57L611.4 609.791C608.98 606.871 606.259 604.951 603.469 603.27C600.669 601.62 597.729 600.39 594.709 599.45C591.689 598.52 588.569 597.89 585.319 597.68C582.068 597.5 578.728 597.58 575.088 598.67L583.108 572.449Z" fill="#CB6700"/>
<path d="M348.507 730.196C351.467 727.806 353.418 725.096 355.108 722.306C356.768 719.506 358.018 716.586 358.958 713.556C359.888 710.525 360.528 707.415 360.758 704.165C360.948 700.905 360.898 697.575 359.858 693.935L386.029 702.125C383.099 704.525 381.159 707.235 379.459 710.015C377.789 712.805 376.549 715.736 375.579 718.756C374.628 721.776 373.978 724.886 373.758 728.136C373.558 731.386 373.618 734.727 374.689 738.377L348.507 730.196Z" fill="#CB6700"/>
<path d="M304.395 617.961C308.176 618.421 311.476 617.931 314.646 617.201C317.816 616.451 320.776 615.301 323.596 613.861C326.416 612.421 329.097 610.711 331.577 608.611C334.047 606.481 336.407 604.121 338.287 600.84L350.648 625.312C346.887 624.882 343.587 625.372 340.407 626.102C337.237 626.852 334.277 628.002 331.437 629.412C328.607 630.832 325.926 632.542 323.436 634.642C320.966 636.762 318.616 639.132 316.736 642.442L304.395 617.961Z" fill="#CB6700"/>
<path d="M363.858 399.171C364.158 402.961 365.288 406.101 366.638 409.071C368.008 412.022 369.718 414.702 371.688 417.182C373.659 419.662 375.869 421.952 378.419 423.962C380.999 425.962 383.779 427.802 387.369 428.992L365.838 445.963C365.518 442.183 364.378 439.053 363.028 436.083C361.668 433.133 359.948 430.442 358.008 427.952C356.058 425.462 353.848 423.172 351.297 421.152C348.727 419.152 345.937 417.312 342.317 416.132L363.858 399.171Z" fill="#CB6700"/>
<path d="M300.195 403.911C301.395 407.521 303.235 410.302 305.255 412.862C307.285 415.402 309.586 417.602 312.086 419.542C314.596 421.472 317.276 423.172 320.246 424.522C323.226 425.852 326.366 426.972 330.137 427.282L313.266 448.903C312.056 445.313 310.196 442.543 308.185 439.973C306.155 437.433 303.855 435.233 301.365 433.273C298.875 431.322 296.185 429.622 293.225 428.262C290.255 426.932 287.105 425.812 283.314 425.532L300.195 403.911Z" fill="#CB6700"/>
<path d="M235.999 573.671C240.21 572.84 241.644 562.138 239.203 549.767C236.761 537.396 231.369 528.041 227.159 528.872C222.949 529.703 221.514 540.405 223.956 552.776C226.397 565.147 231.789 574.502 235.999 573.671Z" fill="#CB6700" stroke="#CB6700" stroke-width="0.9512" stroke-miterlimit="10"/>
<path d="M527.938 713.039C539.459 707.915 547.385 700.582 545.641 696.661C543.897 692.74 533.144 693.715 521.623 698.84C510.102 703.964 502.176 711.297 503.92 715.218C505.664 719.139 516.417 718.164 527.938 713.039Z" fill="#CB6700" stroke="#CB6700" stroke-width="0.9512" stroke-miterlimit="10"/>
<path d="M565.408 385.794C567.741 382.193 561.055 373.715 550.473 366.858C539.892 360.001 529.422 357.362 527.088 360.963C524.754 364.565 531.441 373.043 542.022 379.9C552.604 386.756 563.074 389.396 565.408 385.794Z" fill="#CB6700" stroke="#CB6700" stroke-width="0.9512" stroke-miterlimit="10"/>
</g>
<path d="M805.488 412.962L864.531 453.594V540.558" stroke="#F18803" stroke-width="12" stroke-miterlimit="10"/>
<path d="M795.438 428.892L847.29 464.574" stroke="#F18803" stroke-width="12" stroke-miterlimit="10"/>
<path d="M943.625 412.962L884.582 453.594V540.558" stroke="#F18803" stroke-width="12" stroke-miterlimit="10"/>
<path d="M953.675 428.892L901.823 464.574" stroke="#F18803" stroke-width="12" stroke-miterlimit="10"/>
<path d="M605.479 92.9469L664.522 133.579V220.543" stroke="#F18803" stroke-width="12" stroke-miterlimit="10"/>
<path d="M595.429 108.878L647.281 144.559" stroke="#F18803" stroke-width="12" stroke-miterlimit="10"/>
<path d="M743.616 92.9469L684.573 133.579V220.543" stroke="#F18803" stroke-width="12" stroke-miterlimit="10"/>
<path d="M753.666 108.878L701.814 144.559" stroke="#F18803" stroke-width="12" stroke-miterlimit="10"/>
<path d="M305.465 4.94286L364.508 45.5747V132.539" stroke="#F18803" stroke-width="12" stroke-miterlimit="10"/>
<path d="M295.415 20.8735L347.267 56.5552" stroke="#F18803" stroke-width="12" stroke-miterlimit="10"/>
<path d="M443.602 4.94286L384.559 45.5747V132.539" stroke="#F18803" stroke-width="12" stroke-miterlimit="10"/>
<path d="M453.652 20.8735L401.8 56.5552" stroke="#F18803" stroke-width="12" stroke-miterlimit="10"/>
<path d="M13.4518 156.95L72.4945 197.582V284.546" stroke="#F18803" stroke-width="12" stroke-miterlimit="10"/>
<path d="M3.40152 172.881L55.2539 208.562" stroke="#F18803" stroke-width="12" stroke-miterlimit="10"/>
<path d="M151.589 156.95L92.5458 197.582V284.546" stroke="#F18803" stroke-width="12" stroke-miterlimit="10"/>
<path d="M161.639 172.881L109.786 208.562" stroke="#F18803" stroke-width="12" stroke-miterlimit="10"/>
<defs>
<clipPath id="clip0_4614_299342">
<rect width="663.11" height="536.02" fill="white" transform="translate(1027.45 220.953)"/>
</clipPath>
<clipPath id="clip1_4614_299342">
<rect width="536.02" height="536.02" fill="white" transform="translate(185.41 272.955)"/>
</clipPath>
</defs>
</svg>
