<svg width="1281" height="578" viewBox="0 0 1281 578" fill="none" xmlns="http://www.w3.org/2000/svg">
<g clip-path="url(#clip0_4611_296166)">
<path d="M529.219 273.453H556.91" stroke="#073E64" stroke-width="2" stroke-miterlimit="10"/>
<path d="M529.219 293.862H553.999" stroke="#073E64" stroke-width="2" stroke-miterlimit="10"/>
<path d="M268.111 535.221C415.632 535.221 535.221 415.632 535.221 268.111C535.221 120.59 415.632 1.00041 268.111 1.00041C120.59 1.00041 1.00041 120.59 1.00041 268.111C1.00041 415.632 120.59 535.221 268.111 535.221Z" fill="#A4BCD9" stroke="#073E64" stroke-width="2" stroke-miterlimit="10"/>
<path d="M268.111 370.193C324.489 370.193 370.193 324.489 370.193 268.111C370.193 211.732 324.489 166.029 268.111 166.029C211.732 166.029 166.029 211.732 166.029 268.111C166.029 324.489 211.732 370.193 268.111 370.193Z" fill="#004475" stroke="#073E64" stroke-width="2" stroke-miterlimit="10"/>
<path d="M240.57 142.249C240.57 142.249 141.439 163.147 133.665 267.131" stroke="#004475" stroke-width="17.1223" stroke-miterlimit="10" stroke-linecap="round"/>
<path d="M206.555 107.254C206.555 107.254 86.5258 147.101 91.3878 290.94" stroke="#004475" stroke-width="17.1223" stroke-miterlimit="10" stroke-linecap="round"/>
<path d="M107.905 122.811C107.905 122.811 58.3341 174.322 49.5905 247.212" stroke="#004475" stroke-width="17.1223" stroke-miterlimit="10" stroke-linecap="round"/>
<path d="M319.772 153.914C319.772 153.914 364.241 170.921 379.057 216.6" stroke="#004475" stroke-width="17.1223" stroke-miterlimit="10" stroke-linecap="round"/>
<path d="M303.496 103.613C303.496 103.613 419.874 126.212 433.479 251.094" stroke="#004475" stroke-width="17.1223" stroke-miterlimit="10" stroke-linecap="round"/>
<path d="M331.927 66.9277C331.927 66.9277 473.336 116.498 475.767 256.926" stroke="#004475" stroke-width="17.1223" stroke-miterlimit="10" stroke-linecap="round"/>
<path d="M166.039 358.008C166.039 358.008 270.212 458.6 364.481 351.205" stroke="#004475" stroke-width="17.1223" stroke-miterlimit="10" stroke-linecap="round"/>
<path d="M176.423 419.714C176.423 419.714 266.32 477.538 364.481 410.97" stroke="#004475" stroke-width="17.1223" stroke-miterlimit="10" stroke-linecap="round"/>
<path d="M115.678 428.947C115.678 428.947 178.854 495.525 284.298 486.291" stroke="#004475" stroke-width="17.1223" stroke-miterlimit="10" stroke-linecap="round"/>
<path d="M277.265 439.582C274.484 443.503 273.043 447.465 271.923 451.437C270.862 455.408 270.342 459.4 270.242 463.402C270.142 467.403 270.432 471.415 271.262 475.447C272.143 479.478 273.343 483.52 275.854 487.592L241.23 486.571C243.981 482.65 245.412 478.688 246.532 474.716C247.592 470.745 248.123 466.753 248.253 462.751C248.383 458.75 248.093 454.738 247.272 450.706C246.392 446.675 245.191 442.633 242.64 438.561L277.265 439.582Z" fill="#004474"/>
<path d="M244.281 398.245C241.46 400.806 239.669 403.617 238.139 406.498C236.638 409.389 235.557 412.381 234.797 415.452C234.047 418.523 233.577 421.674 233.547 424.936C233.537 428.197 233.777 431.529 235.027 435.1L208.426 428.427C211.217 425.866 212.998 423.045 214.539 420.164C216.039 417.273 217.12 414.281 217.91 411.21C218.69 408.139 219.151 404.998 219.191 401.736C219.201 398.475 218.951 395.143 217.68 391.562L244.281 398.245Z" fill="#004474"/>
<path d="M74.6209 171.971C77.1619 174.802 79.9631 176.613 82.8343 178.154C85.7155 179.674 88.6967 180.765 91.768 181.545C94.8393 182.315 97.9805 182.806 101.242 182.856C104.503 182.886 107.835 182.666 111.416 181.435L104.583 207.996C102.032 205.185 99.2311 203.384 96.3599 201.834C93.4787 200.313 90.4975 199.212 87.4362 198.412C84.3749 197.612 81.2236 197.132 77.9723 197.072C74.7109 197.042 71.3795 197.272 67.7881 198.522L74.6209 171.971Z" fill="#004474"/>
<path d="M184.486 122.131C184.226 125.932 184.876 129.203 185.777 132.335C186.697 135.456 187.988 138.367 189.568 141.108C191.159 143.85 193 146.441 195.231 148.812C197.482 151.173 199.963 153.403 203.344 155.114L179.534 168.72C179.774 164.938 179.104 161.667 178.224 158.526C177.313 155.404 176.013 152.493 174.452 149.742C172.892 146.991 171.041 144.4 168.82 142.019C166.569 139.658 164.088 137.427 160.686 135.726L184.486 122.131Z" fill="#004474"/>
<path d="M406.118 170.3C402.346 170.801 399.265 172.091 396.374 173.592C393.493 175.112 390.902 176.963 388.531 179.054C386.16 181.155 383.989 183.476 382.098 186.127C380.237 188.808 378.537 191.679 377.526 195.331L359.459 174.692C363.21 174.172 366.282 172.872 369.183 171.381C372.064 169.87 374.655 168.02 377.046 165.949C379.437 163.868 381.608 161.547 383.499 158.896C385.369 156.225 387.06 153.343 388.051 149.672L406.118 170.3Z" fill="#004474"/>
<path d="M398.115 106.934C394.573 108.315 391.892 110.306 389.431 112.447C387 114.607 384.919 117.018 383.109 119.619C381.308 122.221 379.747 124.992 378.547 128.023C377.376 131.064 376.416 134.256 376.296 138.047L353.836 122.311C357.358 120.91 360.029 118.919 362.49 116.778C364.931 114.617 367.002 112.206 368.833 109.625C370.653 107.034 372.214 104.263 373.415 101.242C374.595 98.2006 375.545 94.9993 375.635 91.1977L398.115 106.934Z" fill="#004474"/>
<path d="M249.255 53.4994C261.488 50.4254 270.557 44.5583 269.511 40.3949C268.465 36.2316 257.7 35.3485 245.467 38.4225C233.234 41.4965 224.165 47.3635 225.211 51.5269C226.258 55.6903 237.022 56.5734 249.255 53.4994Z" fill="#004474" stroke="#004474" stroke-width="0.9512" stroke-miterlimit="10"/>
<path d="M118.248 367.18C122.076 365.236 120.549 354.543 114.837 343.297C109.126 332.05 101.392 324.509 97.5648 326.453C93.7372 328.397 95.2644 339.09 100.976 350.336C106.687 361.583 114.421 369.124 118.248 367.18Z" fill="#004474" stroke="#004474" stroke-width="0.9512" stroke-miterlimit="10"/>
<path d="M447.98 355.094C454.287 344.171 456.386 333.575 452.668 331.429C448.95 329.282 440.824 336.397 434.517 347.321C428.21 358.245 426.111 368.84 429.829 370.987C433.547 373.133 441.673 366.018 447.98 355.094Z" fill="#004474" stroke="#004474" stroke-width="0.9512" stroke-miterlimit="10"/>
<path d="M598.708 273.453H617.656" stroke="#553240" stroke-width="9.5124" stroke-miterlimit="10"/>
<path d="M598.708 293.862H617.656" stroke="#553240" stroke-width="9.5124" stroke-miterlimit="10"/>
<path d="M595.837 281.216H556.95C552.679 281.216 549.177 277.715 549.177 273.443C549.177 269.171 552.679 265.67 556.95 265.67H595.837C600.108 265.67 603.61 269.171 603.61 273.443C603.61 277.725 600.108 281.216 595.837 281.216Z" fill="#3F698C"/>
<path d="M655.601 281.216H616.715C612.443 281.216 608.942 277.715 608.942 273.443C608.942 269.171 612.443 265.67 616.715 265.67H655.601C659.873 265.67 663.374 269.171 663.374 273.443C663.374 277.725 659.883 281.216 655.601 281.216Z" fill="#C0433B"/>
<path d="M595.837 301.625H556.95C552.679 301.625 549.177 298.123 549.177 293.852C549.177 289.58 552.679 286.078 556.95 286.078H595.837C600.108 286.078 603.61 289.58 603.61 293.852C603.61 298.133 600.108 301.625 595.837 301.625Z" fill="#004570"/>
<path d="M655.601 301.625H616.715C612.443 301.625 608.942 298.123 608.942 293.852C608.942 289.58 612.443 286.078 616.715 286.078H655.601C659.873 286.078 663.374 289.58 663.374 293.852C663.374 298.133 659.883 301.625 655.601 301.625Z" fill="#AD1900"/>
</g>
<path d="M790.787 281.767L709.253 279.446C709.253 287.219 690.866 313.55 661.294 312.569C624.478 311.349 581.291 325.205 581.291 325.205" stroke="#91679B" stroke-width="4" stroke-miterlimit="10"/>
<path d="M579.98 235.117C579.98 235.117 623.178 248.973 659.983 247.752C689.555 246.772 709.253 271.662 709.253 279.436" stroke="#91679B" stroke-width="4" stroke-miterlimit="10"/>
<path d="M573.007 250.644C583.378 250.644 591.785 242.237 591.785 231.866C591.785 221.495 583.378 213.088 573.007 213.088C562.636 213.088 554.229 221.495 554.229 231.866C554.229 242.237 562.636 250.644 573.007 250.644Z" fill="#9684C1" stroke="#91679B" stroke-width="4" stroke-miterlimit="10"/>
<path d="M573.007 345.503C583.378 345.503 591.785 337.096 591.785 326.725C591.785 316.355 583.378 307.947 573.007 307.947C562.636 307.947 554.229 316.355 554.229 326.725C554.229 337.096 562.636 345.503 573.007 345.503Z" fill="#9684C1" stroke="#91679B" stroke-width="4" stroke-miterlimit="10"/>
<g clip-path="url(#clip1_4611_296166)">
<path d="M756.173 31.5831C722.969 10.9245 697.429 31.8732 730.122 52.4217C769.028 76.8818 832.244 94.1089 795.779 163.928C759.314 233.747 681.152 170.18 670.728 169.14C660.303 168.1 650.929 182.425 676.98 196.621C703.031 210.817 750.971 223.332 761.395 239.999C771.819 256.676 737.425 302.525 717.627 313.99C697.829 325.455 638.424 361.93 623.838 372.344C609.252 382.758 613.414 401.526 635.303 391.102C657.192 380.678 709.293 343.162 725.97 341.081C742.647 339 772.87 340.041 781.203 357.758C789.537 375.475 790.587 402.567 781.203 419.243C771.819 435.92 715.776 516.154 710.984 524.497C700.51 542.725 719.408 559.071 736.395 540.133C758.294 515.713 744.728 482.82 794.749 438.011C844.77 393.203 848.631 454.328 847.901 464.062C847.05 475.407 833.335 497.266 849.251 498.456C870.87 500.077 857.725 481.939 867.709 458.86C871.04 451.147 911.477 441.143 919.811 476.577C928.144 512.012 918.77 566.194 928.144 573.497C937.528 580.79 952.114 574.538 951.074 557.861C950.033 541.184 939.789 490.063 940.649 478.658C942.15 458.95 955.235 449.476 971.912 447.395C988.589 445.314 1009.34 437.671 1020.89 430.718C1040.2 419.103 1067.79 426.546 1084.46 436.971C1101.14 447.395 1110.51 455.729 1113.64 443.223C1116.77 430.718 1088.63 420.294 1086.55 409.88C1084.47 399.455 1081.34 346.313 1119.89 333.808C1158.45 321.303 1202.45 327.275 1228.27 332.768C1261.94 339.931 1271.14 354.237 1277.25 349.445C1286.81 341.951 1271.09 324.104 1239.73 316.101C1219.26 310.869 1189.79 304.176 1169.91 300.955C1139.91 296.093 1107.39 277.545 1107.39 260.868C1107.39 244.191 1120.93 209.807 1142.82 196.261C1164.71 182.716 1191.8 181.675 1187.63 170.21C1183.46 158.746 1155.33 169.17 1138.65 174.382C1121.97 179.594 1079.26 190.019 1061.54 156.665C1043.82 123.321 1080.3 72.2499 1088.63 59.7447C1096.96 47.2395 1126.06 12.9954 1123.02 3.47144C1121.72 -0.620256 1111.25 -1.76073 1096.97 18.0575C1076.37 46.6693 1050.07 98.3007 1002.14 95.1694C954.215 92.0381 958.066 45.1987 958.377 35.7648C959.017 16.0466 940.629 -1.80074 939.619 34.7244C938.498 75.3612 937.538 77.452 923.982 79.5329C910.437 81.6138 886.467 88.9168 870.83 95.1694C855.194 101.422 835.396 97.2502 813.517 78.4925C791.638 59.7347 763.676 36.255 756.173 31.5831Z" fill="#AD779C" stroke="#6B1A49" stroke-width="2" stroke-miterlimit="10"/>
<path d="M931.045 345.053C969.826 345.053 1001.26 313.615 1001.26 274.834C1001.26 236.053 969.826 204.615 931.045 204.615C892.264 204.615 860.826 236.053 860.826 274.834C860.826 313.615 892.264 345.053 931.045 345.053Z" fill="#582853" stroke="#6B1A49" stroke-width="2" stroke-miterlimit="10"/>
<path d="M924.993 164.968C924.993 164.968 859.336 163.928 830.163 236.878" stroke="#5A2C50" stroke-width="12" stroke-miterlimit="10" stroke-linecap="round"/>
<path d="M931.045 138.917C931.045 138.917 848.921 137.877 809.325 219.161" stroke="#5A2C50" stroke-width="12" stroke-miterlimit="10" stroke-linecap="round"/>
<path d="M902.063 200.923C902.063 200.923 880.014 206.656 860.816 232.706" stroke="#5A2C50" stroke-width="12" stroke-miterlimit="10" stroke-linecap="round"/>
<path d="M850.682 282.697C850.682 282.697 856.815 348.594 922.202 356.768" stroke="#5A2C50" stroke-width="12" stroke-miterlimit="10" stroke-linecap="round"/>
<path d="M826.672 304.146C826.672 304.146 834.655 374.135 931.045 383.839" stroke="#5A2C50" stroke-width="12" stroke-miterlimit="10" stroke-linecap="round"/>
<path d="M830.163 363.921C830.163 363.921 863.587 400.706 904.834 406.828" stroke="#5A2C50" stroke-width="12" stroke-miterlimit="10" stroke-linecap="round"/>
<path d="M987.078 216.81C992.191 220.881 1046.84 279.626 982.477 339.901" stroke="#5A2C50" stroke-width="12" stroke-miterlimit="10" stroke-linecap="round"/>
<path d="M1024.88 219.161C1024.88 219.161 1062.18 272.993 1020.28 336.849" stroke="#5A2C50" stroke-width="12" stroke-miterlimit="10" stroke-linecap="round"/>
<path d="M1067.28 272.473C1067.28 272.473 1064.22 342.462 1020.28 377.196" stroke="#5A2C50" stroke-width="12" stroke-miterlimit="10" stroke-linecap="round"/>
<path d="M999.391 179.199C1000.79 175.576 994.565 169.795 985.485 166.285C976.405 162.775 967.909 162.867 966.509 166.49C965.108 170.113 971.334 175.895 980.414 179.404C989.494 182.914 997.99 182.822 999.391 179.199Z" fill="#5A2C50"/>
<path d="M1090.08 239.28C1093.63 237.699 1093.3 229.209 1089.33 220.316C1085.37 211.422 1079.29 205.494 1075.74 207.075C1072.19 208.655 1072.52 217.146 1076.48 226.039C1080.45 234.932 1086.53 240.86 1090.08 239.28Z" fill="#5A2C50"/>
<path d="M978.219 410.105C987.709 407.94 994.703 403.115 993.839 399.328C992.975 395.542 984.581 394.227 975.09 396.392C965.599 398.557 958.606 403.382 959.47 407.169C960.333 410.956 968.728 412.27 978.219 410.105Z" fill="#5A2C50"/>
<path d="M789.945 287.307C793.781 286.696 795.649 278.406 794.118 268.792C792.587 259.177 788.235 251.878 784.399 252.489C780.563 253.1 778.695 261.39 780.227 271.004C781.758 280.619 786.109 287.918 789.945 287.307Z" fill="#5A2C50"/>
<path d="M835.536 182.786C836.086 184.937 837.026 186.637 838.097 188.218C839.177 189.779 840.418 191.169 841.788 192.4C843.159 193.64 844.67 194.731 846.32 195.651C847.991 196.561 849.782 197.332 851.963 197.682L841.218 209.547C840.658 207.416 839.707 205.705 838.647 204.134C837.567 202.574 836.336 201.183 834.965 199.943C833.605 198.692 832.094 197.602 830.444 196.681C828.773 195.771 826.982 195.001 824.791 194.661L835.536 182.786Z" fill="#5A2C50"/>
<path d="M877.563 182.486C877.653 184.696 878.223 186.567 878.944 188.328C879.684 190.079 880.604 191.689 881.695 193.18C882.785 194.671 884.036 196.051 885.456 197.302C886.907 198.532 888.498 199.663 890.558 200.453L877.593 209.837C877.483 207.636 876.913 205.765 876.193 204.004C875.452 202.254 874.542 200.643 873.461 199.142C872.391 197.642 871.14 196.261 869.71 195.011C868.259 193.78 866.669 192.65 864.598 191.869L877.563 182.486Z" fill="#5A2C50"/>
<path d="M1012.95 295.012C1014.47 296.623 1016.13 297.653 1017.83 298.514C1019.53 299.344 1021.29 299.964 1023.09 300.374C1024.89 300.784 1026.74 301.005 1028.64 301.015C1030.54 300.995 1032.48 300.804 1034.55 300.044L1030.93 315.631C1029.4 314.04 1027.75 313.01 1026.04 312.149C1024.34 311.319 1022.58 310.699 1020.79 310.278C1018.99 309.848 1017.15 309.628 1015.25 309.628C1013.35 309.648 1011.41 309.838 1009.33 310.619L1012.95 295.012Z" fill="#5A2C50"/>
<path d="M835.066 319.802C837.276 319.702 839.147 319.122 840.898 318.392C842.639 317.651 844.249 316.721 845.74 315.621C847.231 314.53 848.601 313.27 849.842 311.839C851.072 310.388 852.193 308.788 852.973 306.727L862.407 319.662C860.206 319.772 858.345 320.363 856.584 321.083C854.844 321.823 853.223 322.754 851.732 323.834C850.232 324.914 848.861 326.165 847.621 327.606C846.39 329.056 845.27 330.657 844.499 332.728L835.066 319.802Z" fill="#5A2C50"/>
<path d="M861.446 384.929C863.387 383.859 864.808 382.518 866.068 381.098C867.309 379.657 868.349 378.116 869.2 376.476C870.06 374.835 870.73 373.104 871.22 371.274C871.681 369.423 871.991 367.502 871.781 365.301L885.947 372.754C884.016 373.825 882.605 375.175 881.345 376.596C880.104 378.036 879.064 379.577 878.203 381.208C877.333 382.838 876.653 384.569 876.172 386.4C875.712 388.241 875.402 390.171 875.632 392.382L861.446 384.929Z" fill="#5A2C50"/>
<path d="M1043.63 279.146C1045.46 280.396 1047.29 281.056 1049.13 281.537C1050.97 281.997 1052.82 282.227 1054.67 282.247C1056.52 282.277 1058.37 282.097 1060.22 281.707C1062.07 281.286 1063.93 280.686 1065.8 279.516L1065.53 295.522C1063.7 294.282 1061.87 293.632 1060.03 293.151C1058.19 292.691 1056.35 292.461 1054.5 292.421C1052.65 292.381 1050.79 292.551 1048.94 292.951C1047.09 293.371 1045.23 293.972 1043.36 295.162L1043.63 279.146Z" fill="#5A2C50"/>
</g>
<defs>
<clipPath id="clip0_4611_296166">
<rect width="663.1" height="536.01" fill="white" transform="scale(1.00041)"/>
</clipPath>
<clipPath id="clip1_4611_296166">
<rect width="666.47" height="577.24" fill="white" transform="translate(614.254) scale(1.00041)"/>
</clipPath>
</defs>
</svg>
