<svg width="973" height="508" viewBox="0 0 973 508" fill="none" xmlns="http://www.w3.org/2000/svg">
<path d="M443.974 300.772C444.079 303.983 447.756 307.672 453.201 314.158C462.95 325.772 478.188 336.122 491.163 337.563C544.322 330.416 561.26 291.223 563.085 272.52C563.082 271.209 562.649 268.887 560.936 270.085C545.491 326.182 506.538 330.407 494.257 331.738C493.468 331.824 492.789 331.898 492.234 331.972C484.873 332.962 474.972 327.434 470.942 324.547C468.578 322.444 470.447 322.798 471.293 323.289C483.049 331.392 509.764 326.892 512.632 324.994C538.739 313.922 551.144 289.567 552.927 286.067C553.043 285.838 553.114 285.698 553.141 285.658C557.186 278.578 557.638 272.647 557.358 270.566C557.063 270.303 556.001 270.144 555.729 271.996C542.036 307.969 515.52 320.672 503.974 322.527C486.992 326.262 473.003 319.227 468.131 315.242C461.461 307.424 465.128 308.384 467.612 311.378C473.004 317.431 487.988 319.734 494.806 320.128C501.624 320.523 516.852 314.441 524.125 309.832C524.221 308.609 523.039 307.557 522.056 307.992C521.962 308.005 521.143 308.279 519.835 308.718C514.045 310.659 498.682 315.809 494.207 315.67C489.818 315.534 491.521 313.106 492.921 311.909C501.459 313.485 524.82 303.384 525.052 301.235C525.89 297.794 523.448 297.041 522.568 298.24C517.642 304.955 503.222 306.591 496.627 306.569C494.346 306.634 495.226 303.68 496 303.632C521 298.971 532.382 284.748 535.131 279.47C535.414 278.926 535.621 278.528 535.762 278.311C537.272 275.99 538.079 276.184 539.596 277.796C540.64 278.904 534.653 287.26 530.7 292.776C528.908 295.278 527.533 297.195 527.424 297.588C527.072 298.845 527.408 299.405 528.39 298.971C549.835 284.287 548.717 256.599 548.478 254.815C548.238 253.032 547.687 252.803 546.489 253.57C545.291 254.336 542.887 271.302 542.791 272.525C542.695 273.748 539.764 273.234 539.564 271.748C541.597 257.435 540.832 246.967 540.196 243.523C539.858 239.453 542.528 239.578 543.024 241.327C543.303 243.408 543.996 247.793 544.533 248.689C545.204 249.809 546.657 249.008 547.009 247.751C547.299 246.712 546.672 242.954 546.108 239.576C545.648 236.818 545.23 234.312 545.388 233.747C546.008 229.064 547.808 231.102 548.63 232.706C553.908 248.197 553.987 262.29 554.009 266.107C554.012 266.639 554.013 266.971 554.028 267.08C554.148 267.972 556.704 267.628 556.464 265.845C557.119 249.417 552.435 233.909 549.9 228.601C545.971 220.657 549.374 220.805 550.476 221.262C551.578 221.719 553.335 225.114 553.494 226.303C554.796 228.246 562.238 262.346 562.478 264.129C562.718 265.912 564.626 266.563 564.874 262.596C566.232 253.336 556.242 223.513 553.99 218.369C552.103 214.06 551.343 214.059 550.672 214.057C550.542 214.057 550.415 214.057 550.284 214.026C549.895 213.932 549.057 215.446 548.247 216.911C547.376 218.483 546.538 219.997 546.323 219.4C540.237 205.088 531.524 194.459 528.058 191.899C524.592 189.339 525.742 194.026 526.333 194.552C533.665 202.644 543 219.846 544.486 225.093C545.971 230.34 542.625 228.672 542.249 227.815C534.934 208.222 526.325 200.302 523.825 199.125C521.326 197.948 521.214 200.989 522.1 201.778C536.651 211.32 541.498 235.783 541.147 237.04C540.795 238.298 539.182 237.91 539.022 236.721C532.634 208.531 517.678 199.851 509.801 197.379C507.06 195.569 508.571 192.098 510.815 193.309C512.24 194.227 515.655 196.411 517.923 197.8C520.266 199.235 520.226 197.479 520.195 196.136C520.189 195.853 520.183 195.589 520.199 195.376C520.295 194.153 516.909 192.187 513.858 190.782C511.284 189.596 512.235 187.075 512.806 185.561C512.912 185.28 513.005 185.034 513.06 184.838C513.383 183.682 518.583 187.749 521.227 189.816C521.46 189.999 521.673 190.165 521.861 190.311C524.185 192.117 524.608 187.521 523.858 185.807C523.447 184.868 520.544 182.811 517.983 180.997C515.867 179.498 513.985 178.164 513.931 177.761C512.23 172.846 519.809 176.971 522.468 179.337C528.078 183.305 531.16 188.126 533.074 191.118C534.103 192.727 534.794 193.808 535.358 193.943C539.823 194.251 535.582 187.862 531.717 182.329C528.965 178.391 523.663 175.102 518.045 171.617C515.771 170.207 513.445 168.764 511.216 167.233C503.477 161.919 475.029 165.139 472.513 165.779C471.824 165.955 471.133 166.108 470.488 166.251C468.776 166.63 467.393 166.936 467.266 167.393C467.09 168.021 466.994 169.245 468.567 169.336C503.989 166.51 508.173 169.76 509.594 172.595C510.305 174.012 509.953 175.27 509.778 175.899C509.506 177.751 505.297 177.409 504.706 176.883C504.115 176.357 499.235 174.895 498.828 177.673C498.421 180.451 503.492 179.467 503.963 179.101C504.435 178.735 508.076 180.666 509.258 181.718C510.247 182.597 507.58 186.087 506.429 187.592C506.205 187.885 506.038 188.104 505.968 188.212C505.655 188.693 504.613 187.837 503.403 186.842C502.946 186.467 502.465 186.071 501.99 185.721C500.257 184.441 498.389 184.087 498.237 186.831C498.128 188.795 501.537 190.132 503.807 191.022C504.707 191.375 505.428 191.658 505.68 191.882C506.389 192.512 504.511 194.157 503.484 194.9C500.521 194.794 493.726 194.699 490.25 195.166C486.687 195.646 486.706 195.439 486.763 194.858C486.775 194.73 486.789 194.585 486.768 194.424C486.706 193.965 488.517 193.575 490.445 193.16C492.263 192.768 494.185 192.354 494.746 191.839C495.905 190.775 494.563 188.535 493.796 188.638C493.744 188.645 493.651 188.656 493.522 188.671C491.739 188.885 483.038 189.925 479.724 192.345C476.88 194.422 478.912 195.985 480.283 196.507C479.53 197.422 474.922 198.582 471.078 199.55C469.21 200.02 467.522 200.445 466.546 200.774C463.559 201.781 464.533 197.414 466.066 197.207C472.064 197.309 475.619 194.713 475.459 193.524C475.402 191.394 467.117 192.966 464.653 193.433C464.328 193.495 464.104 193.538 464.014 193.55C455.426 191.135 482.511 187.91 489.507 187.078C490.22 186.993 490.725 186.933 490.961 186.901C491.517 186.826 491.97 186.808 492.351 186.793C493.716 186.739 494.139 186.723 495.026 184.236C495.934 181.694 475.166 184.889 464.669 186.805C463.288 187.495 460.178 188.619 458.791 187.595C455.381 183.515 485.578 179.757 488.941 179.608C489.589 179.579 490.196 179.601 490.748 179.621C493.061 179.704 494.424 179.753 493.908 175.914C410.553 167.452 424.263 248.216 425.213 251.417C426.164 254.617 427.425 256.263 428.735 252.456C416.376 205.324 446.455 189.649 452.053 186.732C452.496 186.502 452.785 186.351 452.889 186.27C454.303 185.173 455.253 188.373 453.368 189.837C435.661 205.229 428.321 222.253 428.76 225.522C429.199 228.792 432.186 227.785 431.316 225.179C429.008 221.555 449.862 196.663 454.047 194.89C457.395 193.471 458.471 194.9 458.591 195.792C457.079 196.802 454.213 199.225 454.845 200.834C455.478 202.444 458.671 199.614 460.188 197.998C461.248 200.074 462.907 204.289 461.067 204.537C450 215.5 448.314 218.439 444 225.522C443.78 226.729 442.805 228.571 442.257 229.154C440.495 231.032 440.107 230.365 439.279 228.944C439.039 228.53 438.76 228.052 438.4 227.555C435.532 224.124 447.563 209.703 451.977 204.412C452.812 203.412 453.374 202.737 453.511 202.526C454.374 201.2 452.17 200.286 451.267 201.315C427.842 218.686 430.508 254.033 432.026 255.645C433.869 260.137 435.273 249.671 436.351 241.627C436.857 237.86 437.29 234.624 437.665 233.705C438.604 231.4 441.192 234.139 442.369 235.796C442.296 237.789 439.083 246.297 440.218 252.456C441.048 256.963 444.545 260.112 444 254C443.808 251.841 444 246.5 444 246.5C451.694 218.832 465.551 202.389 489.507 197.998C503.807 195.376 527.147 209.569 533 240C538.5 265.845 526.557 291.758 492.5 297C487.063 297.152 478.565 297.897 470.951 294C465.881 291.405 463.06 290.323 459 285.5C452.095 277.296 453.309 283.221 456.5 289C463 300.772 481.465 303.592 490.5 305C488.559 310.441 477.621 306.64 470.951 303.632C467.882 302.248 465.735 301.28 465.823 301.936C466.365 305.968 482.484 311.252 485.53 312.052C478.719 316.229 467.145 307.759 460.061 302.575C457.138 300.435 454.979 298.855 454.235 298.955C448.586 299.714 456.808 308.1 461.764 313.154C463.31 314.732 464.539 315.985 464.928 316.58C466.565 319.084 468.538 322.147 465.327 319.553C451.312 307.681 446.564 303.363 446.333 295.575C446.288 295.035 446.218 294.988 445.854 294.645C444.954 293.798 443.688 292.024 443.974 300.772Z" fill="#319A81"/>
<path d="M444 254C444.545 260.112 441.048 256.963 440.218 252.456C439.083 246.297 442.296 237.789 442.369 235.796C441.192 234.139 438.604 231.4 437.665 233.705C437.29 234.624 436.857 237.86 436.351 241.627C435.273 249.671 433.869 260.137 432.026 255.645C430.508 254.033 427.842 218.686 451.267 201.315C452.17 200.286 454.374 201.2 453.511 202.526C453.374 202.737 452.812 203.412 451.977 204.412C447.563 209.703 435.532 224.124 438.4 227.555C438.76 228.052 439.039 228.53 439.279 228.944C440.107 230.365 440.495 231.032 442.257 229.154C442.805 228.571 443.78 226.729 444 225.522C448.314 218.439 450 215.5 461.067 204.537C462.907 204.289 461.248 200.074 460.188 197.998C458.671 199.614 455.478 202.444 454.845 200.834C454.213 199.225 457.079 196.802 458.591 195.792C458.471 194.9 457.395 193.471 454.047 194.89C449.862 196.663 429.008 221.555 431.316 225.179C432.186 227.785 429.199 228.792 428.76 225.522C428.321 222.253 435.661 205.229 453.368 189.837C455.253 188.373 454.303 185.173 452.889 186.27C452.785 186.351 452.496 186.502 452.053 186.732C446.455 189.649 416.376 205.324 428.735 252.456C427.425 256.263 426.164 254.617 425.213 251.417C424.263 248.216 410.553 167.452 493.908 175.914C494.424 179.753 493.061 179.704 490.748 179.621C490.196 179.601 489.589 179.579 488.941 179.608C485.578 179.757 455.381 183.515 458.791 187.595C460.178 188.619 463.288 187.495 464.669 186.805C475.166 184.889 495.934 181.694 495.026 184.236C494.139 186.723 493.716 186.739 492.351 186.793C491.97 186.808 491.517 186.826 490.961 186.901C490.725 186.933 490.22 186.993 489.507 187.078C482.511 187.91 455.426 191.135 464.014 193.55C464.104 193.538 464.328 193.495 464.653 193.433C467.117 192.966 475.402 191.394 475.459 193.524C475.619 194.713 472.064 197.309 466.066 197.207C464.533 197.414 463.559 201.781 466.546 200.774C467.522 200.445 469.21 200.02 471.078 199.55C474.922 198.582 479.53 197.422 480.283 196.507C478.912 195.985 476.88 194.422 479.724 192.345C483.038 189.925 491.739 188.885 493.522 188.671C493.651 188.656 493.744 188.645 493.796 188.638C494.563 188.535 495.905 190.775 494.746 191.839C494.185 192.354 492.263 192.768 490.445 193.16C488.517 193.575 486.706 193.965 486.768 194.424C486.789 194.585 486.775 194.73 486.763 194.858C486.706 195.439 486.687 195.646 490.25 195.166C493.726 194.699 500.521 194.794 503.484 194.9C504.511 194.157 506.389 192.512 505.68 191.882C505.428 191.658 504.707 191.375 503.807 191.022C501.537 190.132 498.128 188.795 498.237 186.831C498.389 184.087 500.257 184.441 501.99 185.721C502.465 186.071 502.946 186.467 503.403 186.842C504.613 187.837 505.655 188.693 505.968 188.212C506.038 188.104 506.205 187.885 506.429 187.592C507.58 186.087 510.247 182.597 509.258 181.718C508.076 180.666 504.435 178.735 503.963 179.101C503.492 179.467 498.421 180.451 498.828 177.673C499.235 174.895 504.115 176.357 504.706 176.883C505.297 177.409 509.506 177.751 509.778 175.899C509.953 175.27 510.305 174.012 509.594 172.595C508.173 169.76 503.989 166.51 468.567 169.336C466.994 169.245 467.09 168.021 467.266 167.393C467.393 166.936 468.776 166.63 470.488 166.251C471.133 166.108 471.824 165.955 472.513 165.779C475.029 165.139 503.477 161.919 511.216 167.233C513.445 168.764 515.771 170.207 518.045 171.617C523.663 175.102 528.965 178.391 531.717 182.329C535.582 187.862 539.823 194.251 535.358 193.943C534.794 193.808 534.103 192.727 533.074 191.118C531.161 188.126 528.078 183.305 522.468 179.337C519.809 176.971 512.23 172.846 513.931 177.761C513.985 178.164 515.867 179.498 517.983 180.997C520.544 182.811 523.447 184.868 523.858 185.807C524.608 187.521 524.185 192.117 521.861 190.311C521.673 190.165 521.46 189.999 521.227 189.816C518.583 187.749 513.383 183.682 513.06 184.838C513.005 185.034 512.912 185.28 512.806 185.561C512.235 187.075 511.284 189.596 513.858 190.782C516.909 192.187 520.295 194.153 520.199 195.376C520.183 195.589 520.189 195.853 520.195 196.136C520.226 197.479 520.266 199.235 517.923 197.8C515.655 196.411 512.24 194.227 510.815 193.309C508.571 192.098 507.06 195.569 509.801 197.379C517.678 199.851 532.634 208.531 539.022 236.721C539.182 237.91 540.795 238.298 541.147 237.04C541.498 235.783 536.651 211.32 522.1 201.778C521.214 200.989 521.326 197.948 523.825 199.125C526.325 200.302 534.934 208.222 542.249 227.815C542.625 228.672 545.971 230.34 544.486 225.093C543 219.846 533.665 202.644 526.333 194.552C525.742 194.026 524.592 189.339 528.058 191.899C531.524 194.459 540.237 205.088 546.323 219.4C546.538 219.997 547.376 218.483 548.247 216.911C549.057 215.446 549.895 213.932 550.284 214.026C550.415 214.057 550.542 214.057 550.672 214.057C551.343 214.059 552.103 214.06 553.99 218.369C556.242 223.513 566.232 253.336 564.874 262.596C564.626 266.563 562.718 265.912 562.478 264.129C562.238 262.346 554.796 228.246 553.494 226.303C553.335 225.114 551.578 221.719 550.476 221.262C549.374 220.805 545.971 220.657 549.9 228.601C552.435 233.909 557.119 249.417 556.464 265.845C556.704 267.628 554.148 267.972 554.028 267.08C554.013 266.971 554.012 266.639 554.009 266.107C553.987 262.29 553.908 248.197 548.63 232.706C547.808 231.102 546.008 229.064 545.388 233.747C545.23 234.312 545.648 236.818 546.108 239.576C546.672 242.954 547.299 246.712 547.009 247.751C546.657 249.008 545.204 249.809 544.533 248.689C543.996 247.793 543.303 243.408 543.024 241.327C542.528 239.578 539.858 239.453 540.196 243.523C540.832 246.967 541.597 257.435 539.564 271.748C539.764 273.234 542.695 273.748 542.791 272.525C542.887 271.302 545.291 254.336 546.489 253.57C547.687 252.803 548.238 253.032 548.478 254.815C548.717 256.599 549.835 284.287 528.39 298.971C527.408 299.405 527.072 298.845 527.424 297.588C527.533 297.195 528.908 295.278 530.7 292.776C534.653 287.26 540.64 278.904 539.596 277.796C538.079 276.184 537.272 275.99 535.762 278.311C535.621 278.528 535.414 278.926 535.131 279.47C532.382 284.748 521 298.971 496 303.632C495.226 303.68 494.346 306.634 496.627 306.569C503.222 306.591 517.642 304.955 522.568 298.24C523.448 297.041 525.89 297.794 525.052 301.235C524.82 303.384 501.459 313.485 492.921 311.909C491.521 313.106 489.818 315.534 494.207 315.67C498.682 315.809 514.045 310.659 519.835 308.718C521.143 308.279 521.962 308.005 522.056 307.992C523.039 307.557 524.221 308.609 524.125 309.832C516.852 314.441 501.624 320.523 494.806 320.128C487.988 319.734 473.004 317.431 467.612 311.378C465.128 308.384 461.461 307.424 468.131 315.242C473.003 319.227 486.992 326.262 503.974 322.527C515.52 320.672 542.036 307.969 555.729 271.996C556.001 270.144 557.063 270.303 557.358 270.566C557.638 272.647 557.186 278.578 553.141 285.658C553.114 285.698 553.043 285.838 552.927 286.067C551.144 289.567 538.739 313.922 512.632 324.994C509.764 326.892 483.049 331.392 471.293 323.289C470.447 322.798 468.578 322.444 470.942 324.547C474.972 327.434 484.873 332.962 492.234 331.972C492.789 331.898 493.468 331.824 494.257 331.738C506.538 330.407 545.491 326.182 560.936 270.085C562.649 268.887 563.082 271.209 563.085 272.52C561.26 291.223 544.322 330.416 491.163 337.563C478.188 336.122 462.95 325.772 453.201 314.158C447.756 307.672 444.079 303.983 443.974 300.772C443.688 292.024 444.954 293.798 445.854 294.645C446.218 294.988 446.288 295.035 446.333 295.575C446.564 303.363 451.312 307.681 465.327 319.553C468.538 322.147 466.565 319.084 464.928 316.58C464.539 315.985 463.31 314.732 461.764 313.154C456.808 308.1 448.586 299.714 454.235 298.955C454.979 298.855 457.138 300.435 460.061 302.575C467.145 307.759 478.719 316.229 485.53 312.052M444 254C443.808 251.841 444 246.5 444 246.5M444 254C444 254 444 251.5 444 246.5M444 246.5C451.694 218.832 465.551 202.389 489.507 197.998C503.807 195.376 527.147 209.569 533 240C538.5 265.845 526.557 291.758 492.5 297C487.063 297.152 478.565 297.897 470.951 294C465.881 291.405 463.06 290.323 459 285.5C452.095 277.296 453.309 283.221 456.5 289C463 300.772 481.465 303.592 490.5 305C488.559 310.441 477.621 306.64 470.951 303.632C467.882 302.248 465.735 301.28 465.823 301.936C466.365 305.968 482.484 311.252 485.53 312.052M485.53 312.052C485.569 312.028 485.607 312.004 485.646 311.979C486.217 312.194 486.112 312.205 485.53 312.052Z" stroke="#104469" stroke-width="1.16623"/>
</svg>
