<svg width="973" height="508" viewBox="0 0 973 508" fill="none" xmlns="http://www.w3.org/2000/svg">
<path d="M670.353 266.847C669.352 263.037 665.938 260.004 662.056 259.414C659.605 259.051 657.256 261.288 657.053 263.766C656.85 266.244 658.408 268.622 660.536 269.907C662.663 271.191 665.228 271.506 667.712 271.404C669.869 271.3 670.888 268.892 670.353 266.847Z" fill="#E2C2C6" stroke="#7F2135" stroke-width="0.161619" stroke-miterlimit="10"/>
<path d="M656.453 292.13C656.643 290.281 657.114 288.321 655.814 287.003C654.514 285.684 652.31 285.39 650.704 286.296C649.088 287.219 648.219 289.27 648.693 291.062C649.098 292.62 649.83 294.178 651.097 295.194C652.363 296.209 654.22 296.579 655.633 295.787C657.037 295.013 656.361 293.067 656.453 292.13Z" fill="#E2C2C6" stroke="#7F2135" stroke-width="0.161619" stroke-miterlimit="10"/>
<path d="M642.913 313.749C644.506 312.463 645.292 310.323 645.661 308.307C646.03 306.292 645.359 303.932 643.556 302.978C641.753 302.023 638.995 303.358 639.116 305.398C639.482 310.991 638.612 316.683 636.568 321.915C636.022 323.329 637.597 324.907 639.11 324.739C640.623 324.572 641.755 323.167 642.158 321.696C642.56 320.225 642.396 318.667 642.3 317.146C642.205 315.625 642.329 314.222 642.913 313.749Z" fill="#E2C2C6" stroke="#7F2135" stroke-width="0.161619" stroke-miterlimit="10"/>
<path d="M638.145 336.346C638.217 335.486 637.422 334.77 636.868 334.097C636.304 333.441 635.537 332.916 634.669 332.862C634.007 332.832 633.336 333.061 632.781 333.44C631.794 334.09 631.078 335.172 630.884 336.339C630.664 337.513 630.95 338.765 631.642 339.71C632.127 340.39 632.892 340.958 633.746 340.916C634.488 340.879 635.142 340.4 635.726 339.927C636.53 339.331 638.109 336.897 638.145 336.346Z" fill="#E2C2C6" stroke="#7F2135" stroke-width="0.161619" stroke-miterlimit="10"/>
<path d="M650.384 251.994C650.641 251.519 651.103 251.111 651.181 250.562C651.437 248.836 648.936 247.635 647.21 247.994C645.484 248.353 644.267 250.237 644.615 251.939C644.954 253.658 646.816 254.908 648.533 254.566C649.044 254.47 649.578 254.211 649.843 253.763C650.224 253.18 650.201 252.333 650.384 251.994Z" fill="#E2C2C6" stroke="#7F2135" stroke-width="0.161619" stroke-miterlimit="10"/>
<path d="M640.748 254.957C641.833 255.742 642.953 256.503 643.551 257.704C644.148 258.905 644.414 260.233 644.646 261.543C646.121 270.018 646.1 278.67 646.055 287.287C646.048 288.27 646.003 289.364 645.299 290.058C644.507 290.835 643.116 290.695 642.271 289.952C641.443 289.218 641.111 288.052 641.096 286.947C641.107 285.835 641.384 284.757 641.628 283.66C643.262 275.948 641.774 267.619 637.568 260.954C636.749 259.677 635.827 258.389 635.627 256.898C635.41 255.399 636.261 253.623 637.75 253.421C639.143 253.232 640.201 254.551 640.748 254.957Z" fill="#E2C2C6" stroke="#7F2135" stroke-width="0.161619" stroke-miterlimit="10"/>
<path d="M618.31 244.58C621.568 244.02 624.932 243.342 627.275 245.686C629.617 248.03 630.618 251.357 631.441 254.567C634.079 264.856 635.779 275.384 636.487 285.966C636.743 289.899 636.877 293.897 635.949 297.715C635.421 299.864 634.569 301.924 633.955 304.07C633.007 307.439 632.667 310.939 631.967 314.376C630.293 322.484 626.429 330.15 620.9 336.323C618.896 338.571 616.447 340.71 613.472 341.072C610.489 341.408 607.095 339.065 607.419 336.082C607.62 334.173 609.211 332.688 610.928 331.82C612.646 330.952 614.538 330.529 616.272 329.67C620.862 327.376 623.456 322.42 625.32 317.64C631.749 300.989 632.844 282.304 628.363 265.027C627.186 260.53 625.431 255.807 621.617 253.148C620.387 252.307 619.003 251.711 617.827 250.81C616.651 249.91 615.645 248.575 615.686 247.084C615.71 245.584 617.132 244.775 618.31 244.58Z" fill="#E2C2C6" stroke="#7F2135" stroke-width="0.161619" stroke-miterlimit="10"/>
<path d="M604.631 253.116C606.935 251.689 609.85 251.075 612.368 252.044C614.264 252.786 615.721 254.299 617.11 255.775C619.615 258.426 622.16 261.164 623.538 264.521C624.957 267.965 625.01 271.789 625.05 275.517C625.104 279.582 625.159 283.647 625.187 287.72C625.242 292.268 625.288 296.833 624.391 301.281C623.393 306.158 621.278 310.715 619.19 315.22C616.805 320.354 614.695 326.032 610.246 329.522C606.373 332.556 601.721 334.357 599.582 333.417C594.676 331.242 605.712 324.719 609.265 320.7C614.751 314.526 618.274 306.762 620.015 298.692C621.757 290.621 621.76 282.244 620.74 274.059C620.425 271.608 620.026 269.111 618.954 266.885C617.883 264.66 616.036 262.694 613.647 262.014C609.637 260.851 605.647 263.492 601.684 264.789C600.221 265.269 598.337 265.476 597.343 264.279C596.555 263.349 596.649 261.842 597.362 260.847C598.589 259.186 602.327 254.544 604.631 253.116Z" fill="#E2C2C6" stroke="#7F2135" stroke-width="0.161619" stroke-miterlimit="10"/>
<path d="M611.945 279.274C612.686 278.469 612.591 277.19 612.186 276.159C611.781 275.128 611.14 274.21 610.908 273.142C610.677 272.073 611.032 270.73 612.077 270.375C612.835 270.106 613.711 270.471 614.259 271.075C614.807 271.679 615.083 272.464 615.341 273.24C616.991 278.279 617.882 283.587 617.964 288.895C617.971 289.974 617.798 291.305 616.786 291.678C615.775 292.051 614.731 291.069 614.464 290.025C614.197 288.982 614.457 287.894 614.433 286.807C614.406 285.564 613.654 284.082 612.428 284.163C611.634 284.216 611.015 284.955 610.834 285.734C610.653 286.513 610.824 287.33 610.987 288.12C611.528 290.76 612.078 293.383 612.619 296.022C612.856 297.203 613.117 298.419 612.871 299.602C612.624 300.784 611.768 301.922 610.573 302.108C608.833 302.371 607.497 300.595 606.958 298.921C605.106 293.246 607.482 286.55 604.572 281.333C602.791 278.153 599.302 276.109 597.923 272.753C597.421 271.538 597.273 270.032 598.116 269.041C598.877 268.159 600.227 267.97 601.344 268.333C602.46 268.697 603.355 269.51 604.162 270.364C605.934 272.224 607.414 274.341 608.535 276.637C608.938 277.47 609.323 278.336 609.973 278.995C610.623 279.654 611.653 280.015 611.945 279.274Z" fill="#E2C2C6" stroke="#7F2135" stroke-width="0.161619" stroke-miterlimit="10"/>
<path d="M601.654 302.696C602.022 301.733 602.553 300.792 602.545 299.757C602.536 298.721 602.132 297.647 601.309 297.026C600.419 296.324 599.156 296.232 598.077 296.569C596.997 296.905 596.07 297.609 595.276 298.429C594.028 299.683 592.984 301.289 592.856 303.062C592.745 304.844 593.784 306.766 595.492 307.209C596.551 307.476 597.698 307.176 598.646 306.637C600.2 305.746 601.106 304.153 601.654 302.696Z" fill="#E2C2C6" stroke="#7F2135" stroke-width="0.161619" stroke-miterlimit="10"/>
<path d="M605.626 314.52C606.792 313.661 608.408 313.505 609.155 312.287C609.911 311.051 609.941 309.379 609.11 308.205C608.279 307.031 606.555 306.536 605.3 307.238C604.203 307.85 603.679 309.101 603.133 310.231C601.828 312.967 599.926 315.512 597.316 317.059C596.507 317.542 595.598 317.927 594.989 318.649C593.663 320.168 594.347 322.908 596.227 323.641C597.605 324.168 599.215 323.659 600.358 322.72C601.5 321.782 602.276 320.469 603.024 319.208C603.976 317.53 604.435 315.388 605.626 314.52Z" fill="#E2C2C6" stroke="#7F2135" stroke-width="0.161619" stroke-miterlimit="10"/>
<path d="M589.03 329.943C590.932 331.281 592.017 333.644 592.094 335.968C592.163 338.308 591.354 340.611 590.074 342.571C588.821 344.524 586.884 346.283 584.566 346.321C582.799 346.35 581.119 345.331 580.063 343.925C579.007 342.52 578.507 340.735 578.324 338.97C578.142 337.204 578.3 335.294 579.305 333.842C580.291 332.424 581.945 331.632 583.52 330.906C585.558 329.97 587.885 329.147 589.03 329.943Z" fill="#E2C2C6" stroke="#7F2135" stroke-width="0.161619" stroke-miterlimit="10"/>
</svg>
