<svg width="973" height="508" viewBox="0 0 973 508" fill="none" xmlns="http://www.w3.org/2000/svg">
<path d="M377.476 395.021C377.476 395.021 376.905 399.737 375.274 406.244C373.643 412.761 370.981 421.081 366.668 428.269C366.668 428.269 369.07 423.113 371.282 416.275C373.493 409.428 375.524 400.888 374.864 394.16L377.476 395.021Z" fill="#2B895F"/>
<path d="M372.553 393.389C372.553 393.389 371.092 395.081 369.06 400.087C367.029 405.103 364.387 413.432 362.166 426.767C362.166 426.767 362.586 421.812 363.857 415.094C365.128 408.366 367.239 399.857 370.501 392.708L372.553 393.389Z" fill="#2B895F"/>
<path d="M388.133 398.095C388.133 398.095 388.563 402.58 387.913 409.217C387.253 415.865 385.511 424.695 380.958 433.385C380.958 433.385 382.749 427.788 384.341 420.52C385.932 413.252 387.313 404.362 386.602 397.584L388.133 398.095Z" fill="#2B895F"/>
<path d="M380.598 396.653C380.598 396.653 383.92 398.084 373.493 430.632C373.493 430.632 381.649 411.9 382.819 396.683L380.598 396.653Z" fill="#2B895F"/>
<path d="M353.54 387.072C353.54 387.072 352.859 391.747 351.098 398.215C349.327 404.682 346.465 412.941 341.982 420.06C341.982 420.06 344.514 414.954 346.875 408.156C349.247 401.358 351.448 392.919 350.958 386.121C350.958 386.121 351.598 386.361 352.239 386.601C352.879 386.852 353.54 387.072 353.54 387.072Z" fill="#2B895F"/>
<path d="M348.666 385.28C348.666 385.28 347.175 386.922 345.034 391.877C342.892 396.833 340.061 405.113 337.519 418.408C337.519 418.408 338.059 413.462 339.49 406.754C340.911 400.047 343.223 391.577 346.645 384.509L348.666 385.28Z" fill="#2B895F"/>
<path d="M364.197 390.136C364.197 390.136 364.537 394.621 363.726 401.258C362.906 407.896 360.955 416.686 356.231 425.266C356.231 425.266 363.857 403.05 362.666 389.625L364.197 390.136Z" fill="#2B895F"/>
<path d="M356.642 388.694C356.642 388.694 359.964 390.125 348.796 422.432C348.796 422.432 357.392 403.851 358.883 388.734L356.642 388.694Z" fill="#2B895F"/>
<path d="M329.914 378.302C329.914 378.302 329.113 382.977 327.192 389.405C325.261 395.832 322.199 404.011 317.545 410.999C317.545 410.999 320.197 405.964 322.729 399.226C325.261 392.498 327.692 384.079 327.342 377.351L329.914 378.302Z" fill="#2B895F"/>
<path d="M325.06 376.5C325.06 376.5 323.529 378.122 321.248 383.037C318.976 387.953 315.944 396.152 313.092 409.337C313.092 409.337 313.743 404.422 315.324 397.774C316.905 391.127 319.417 382.737 323.029 375.739L325.06 376.5Z" fill="#2B895F"/>
<path d="M340.441 381.746C340.441 381.746 340.661 386.251 339.69 392.889C338.71 399.516 336.558 408.276 331.625 416.716C331.625 416.716 339.77 394.691 338.93 381.185L340.441 381.746Z" fill="#2B895F"/>
<path d="M332.966 380.034C332.966 380.034 336.228 381.586 324.29 413.612C324.29 413.612 326.561 409.027 329.043 402.55C331.535 396.072 334.247 387.703 335.187 380.144L332.966 380.034Z" fill="#2B895F"/>
<path d="M306.498 369.092C306.498 369.092 305.577 373.757 303.476 380.134C301.374 386.511 298.102 394.621 293.279 401.458C293.279 401.458 296.051 396.493 298.763 389.835C301.474 383.168 304.116 374.798 303.966 368.04L306.498 369.092Z" fill="#2B895F"/>
<path d="M316.855 372.936C316.855 372.936 316.965 377.441 315.844 384.009C314.713 390.576 312.352 399.266 307.198 407.616C307.198 407.616 309.38 402.159 311.481 395.031C313.583 387.893 315.584 379.133 315.374 372.315L316.855 372.936Z" fill="#2B895F"/>
<path d="M309.47 370.944C309.47 370.944 312.662 372.616 299.923 404.332C299.923 404.332 302.305 399.817 304.957 393.399C307.599 386.992 310.521 378.682 311.671 371.124L309.47 370.944Z" fill="#2B895F"/>
<path d="M524.205 433.044C524.205 433.044 524.195 437.78 523.355 444.438C522.504 451.095 520.823 459.675 517.411 467.334C517.411 467.334 519.182 461.928 520.573 454.869C521.964 447.811 522.965 439.101 521.494 432.534L524.205 433.044Z" fill="#2B895F"/>
<path d="M519.102 432.053C519.102 432.053 517.861 433.895 516.43 439.111C515.019 444.327 513.398 452.927 512.768 466.443C512.768 466.443 512.608 461.467 513.058 454.629C513.508 447.791 514.599 439.081 516.98 431.603L519.102 432.053Z" fill="#2B895F"/>
<path d="M535.213 434.696C535.213 434.696 536.174 439.101 536.284 445.799C536.394 452.497 535.673 461.487 532.171 470.607C532.171 470.607 536.664 447.561 533.622 434.386L535.213 434.696Z" fill="#2B895F"/>
<path d="M527.518 434.256C527.518 434.256 531.02 435.247 524.456 468.795C524.456 468.795 530.38 449.213 529.739 434.006L527.518 434.256Z" fill="#2B895F"/>
<path d="M499.439 427.859C499.439 427.859 499.349 432.594 498.378 439.241C497.407 445.879 495.586 454.429 492.014 462.018C492.014 462.018 493.885 456.641 495.406 449.613C496.927 442.585 498.088 433.895 496.747 427.288L499.439 427.859Z" fill="#2B895F"/>
<path d="M494.355 426.767C494.355 426.767 493.074 428.609 491.553 433.795C490.042 438.991 488.271 447.551 487.391 461.026C487.391 461.026 487.321 456.071 487.901 449.253C488.471 442.435 489.712 433.765 492.234 426.307L494.355 426.767Z" fill="#2B895F"/>
<path d="M510.406 429.741C510.406 429.741 511.287 434.166 511.267 440.873C511.257 447.571 510.376 456.551 506.714 465.612C506.714 465.612 511.627 442.646 508.815 429.4L510.406 429.741Z" fill="#2B895F"/>
<path d="M502.721 429.13C502.721 429.13 506.193 430.201 499.028 463.62C499.028 463.62 505.303 444.157 504.942 428.92L502.721 429.13Z" fill="#2B895F"/>
<path d="M474.782 422.222C474.782 422.222 474.602 426.968 473.511 433.585C472.42 440.213 470.429 448.713 466.727 456.241C466.727 456.241 468.708 450.895 470.349 443.897C472 436.889 473.321 428.229 472.11 421.582L474.782 422.222Z" fill="#2B895F"/>
<path d="M469.718 421.021C469.718 421.021 468.408 422.823 466.786 427.989C465.175 433.155 463.244 441.674 462.113 455.14C462.113 455.14 462.133 450.174 462.834 443.366C463.544 436.559 464.935 427.909 467.607 420.51L469.718 421.021Z" fill="#2B895F"/>
<path d="M485.689 424.365C485.689 424.365 486.48 428.82 486.35 435.527C486.21 442.245 485.169 451.165 481.336 460.175C481.336 460.175 486.67 437.309 484.108 423.994L485.689 424.365Z" fill="#2B895F"/>
<path d="M478.034 423.584C478.034 423.584 481.476 424.725 473.701 458.013C473.701 458.013 480.326 438.681 480.256 423.434L478.034 423.584Z" fill="#2B895F"/>
<path d="M450.225 416.185C450.225 416.185 449.945 420.931 448.724 427.528C447.513 434.136 445.352 442.605 441.509 450.044C441.509 450.044 443.581 444.748 445.362 437.78C447.143 430.812 448.644 422.172 447.553 415.474L450.225 416.185Z" fill="#2B895F"/>
<path d="M445.202 414.854C445.202 414.854 443.851 416.626 442.14 421.762C440.429 426.887 438.327 435.377 436.936 448.832C436.936 448.832 437.056 443.867 437.897 437.069C438.728 430.271 440.299 421.641 443.11 414.303L445.202 414.854Z" fill="#2B895F"/>
<path d="M461.093 418.508C461.093 418.508 461.813 422.943 461.553 429.621C461.293 436.298 460.082 445.218 456.079 454.159C456.079 454.159 461.843 431.393 459.512 418.127L461.093 418.508Z" fill="#2B895F"/>
<path d="M453.447 417.627C453.447 417.627 456.86 418.858 448.454 451.986C448.454 451.986 450.205 447.191 451.986 440.473C453.758 433.765 455.549 425.156 455.669 417.517L453.447 417.627Z" fill="#2B895F"/>
<path d="M425.789 409.688C425.789 409.688 425.418 414.403 424.078 420.971C422.727 427.538 420.415 435.968 416.412 443.356C416.412 443.356 418.594 438.09 420.515 431.162C422.436 424.224 424.088 415.635 423.127 408.967L425.789 409.688Z" fill="#2B895F"/>
<path d="M420.795 408.276C420.795 408.276 419.414 410.018 417.603 415.104C415.792 420.2 413.52 428.639 411.859 442.075C411.859 442.075 412.079 437.099 413.06 430.311C414.031 423.524 415.772 414.924 418.724 407.656L420.795 408.276Z" fill="#2B895F"/>
<path d="M436.646 412.111C436.646 412.111 437.266 416.576 436.886 423.253C436.486 429.931 435.105 438.841 430.932 447.691C430.932 447.691 437.136 425.045 435.075 411.7L436.646 412.111Z" fill="#2B895F"/>
<path d="M429.001 411.129C429.001 411.129 432.413 412.361 423.357 445.318C423.357 445.318 430.732 426.237 431.242 411.039L429.001 411.129Z" fill="#2B895F"/>
<path d="M401.562 402.56C401.562 402.56 401.102 407.275 399.611 413.823C398.13 420.37 395.628 428.74 391.485 436.038C391.485 436.038 393.777 430.822 395.848 423.934C397.91 417.046 399.751 408.476 398.93 401.779L401.562 402.56Z" fill="#2B895F"/>
<path d="M396.589 401.088C396.589 401.088 395.168 402.82 393.237 407.876C391.315 412.942 388.874 421.321 386.942 434.686C386.942 434.686 387.253 429.741 388.373 422.993C389.484 416.245 391.405 407.696 394.518 400.467L396.589 401.088Z" fill="#2B895F"/>
<path d="M412.33 405.293C412.33 405.293 412.85 409.778 412.33 416.456C411.799 423.133 410.238 432.023 405.885 440.763C405.885 440.763 412.54 418.248 410.779 404.822L412.33 405.293Z" fill="#2B895F"/>
<path d="M404.734 404.091C404.734 404.091 408.107 405.423 398.36 438.18C398.36 438.18 406.125 419.269 406.956 404.051L404.734 404.091Z" fill="#2B895F"/>
<path d="M166.663 283.213C166.663 283.213 164.682 287.588 160.959 293.195C157.227 298.791 151.773 305.619 144.598 310.304C144.598 310.304 148.911 306.53 153.434 300.944C157.967 295.357 162.7 287.969 163.801 280.861L166.663 283.213Z" fill="#2B895F"/>
<path d="M161.269 278.748C161.269 278.748 159.068 279.589 155.215 283.414C151.383 287.238 145.859 294.016 139.505 306.1C139.505 306.1 141.366 301.364 144.778 295.367C148.171 289.35 153.124 282.092 159.028 276.866L161.269 278.748Z" fill="#2B895F"/>
<path d="M178.831 292.374C178.831 292.374 178.151 297.139 175.529 303.426C172.907 309.714 168.354 317.543 160.499 323.589C160.499 323.589 175.279 305.349 177.07 290.972L178.831 292.374Z" fill="#2B895F"/>
<path d="M169.955 286.587C169.955 286.587 170.846 287.418 169.125 291.603C167.383 295.778 162.97 303.286 152.273 316.611C152.273 316.611 167.223 302.515 172.657 287.899L169.955 286.587Z" fill="#2B895F"/>
<path d="M140.856 260.878C140.856 260.878 138.624 265.143 134.591 270.519C130.549 275.895 124.715 282.392 117.28 286.677C117.28 286.677 121.803 283.153 126.636 277.827C131.469 272.501 136.633 265.393 138.104 258.345L140.856 260.878Z" fill="#2B895F"/>
<path d="M135.682 256.092C135.682 256.092 133.431 256.813 129.388 260.417C125.355 264.031 119.481 270.509 112.456 282.222C112.456 282.222 114.588 277.607 118.31 271.8C122.033 265.984 127.346 258.986 133.541 254.09L135.682 256.092Z" fill="#2B895F"/>
<path d="M152.353 270.549C152.353 270.549 151.423 275.244 148.541 281.401C145.649 287.558 140.845 295.247 132.73 300.964C132.73 300.964 136.613 296.559 140.765 290.351C144.928 284.154 149.401 276.185 150.712 269.107L152.353 270.549Z" fill="#2B895F"/>
<path d="M143.958 264.452C143.968 264.452 147.37 267.936 124.645 293.445C124.645 293.445 128.567 290.141 133.26 285.015C137.954 279.91 143.387 272.982 146.559 265.884L143.958 264.452Z" fill="#2B895F"/>
<path d="M116.099 237.121C116.099 237.121 113.677 241.296 109.394 246.471C105.111 251.657 98.9572 257.864 91.3521 261.799C91.3521 261.799 96.0252 258.495 101.109 253.399C106.192 248.304 111.676 241.446 113.467 234.458L116.099 237.121Z" fill="#2B895F"/>
<path d="M111.135 232.085C111.135 232.085 108.854 232.696 104.651 236.12C100.458 239.544 94.3039 245.761 86.7588 257.144C86.7588 257.144 89.1004 252.629 93.0731 246.992C97.0458 241.346 102.67 234.588 109.074 229.973L111.135 232.085Z" fill="#2B895F"/>
<path d="M127.176 247.392C127.176 247.392 126.006 252.038 122.813 258.045C119.621 264.041 114.398 271.46 106.012 276.746C106.012 276.746 110.115 272.541 114.588 266.564C119.071 260.587 123.954 252.859 125.595 245.841L127.176 247.392Z" fill="#2B895F"/>
<path d="M119.051 240.855C119.051 240.855 122.313 244.519 98.3467 268.877C98.3467 268.877 102.439 265.773 107.363 260.888C112.296 256.012 118.08 249.365 121.582 242.417L119.051 240.855Z" fill="#2B895F"/>
<path d="M92.2826 212.232C92.2826 212.232 89.7109 216.307 85.2279 221.313C80.7448 226.328 74.3505 232.285 66.5952 235.929C66.5952 235.929 71.3985 232.796 76.672 227.91C81.9556 223.015 87.6995 216.387 89.7409 209.459L92.2826 212.232Z" fill="#2B895F"/>
<path d="M87.4893 206.996C87.4893 206.996 85.1777 207.517 80.8548 210.781C76.5319 214.045 70.1675 220.041 62.1921 231.124C62.1921 231.124 64.7038 226.709 68.8867 221.223C73.0595 215.736 78.9235 209.179 85.4879 204.804L87.4893 206.996Z" fill="#2B895F"/>
<path d="M102.97 222.985C102.97 222.985 101.629 227.58 98.1666 233.457C94.7143 239.323 89.1805 246.491 80.5747 251.427C80.5747 251.427 84.8476 247.403 89.5808 241.626C94.324 235.849 99.5176 228.341 101.449 221.383L102.97 222.985Z" fill="#2B895F"/>
<path d="M95.0946 216.097C95.0946 216.097 98.2167 219.911 73.2798 243.258C73.2798 243.258 77.4926 240.314 82.6161 235.639C87.7396 230.974 93.7937 224.566 97.5663 217.759L95.0946 216.097Z" fill="#2B895F"/>
<path d="M69.4171 186.553C69.4171 186.553 66.6452 190.487 61.9721 195.313C57.2789 200.128 50.6944 205.875 42.749 209.149C42.749 209.149 47.6924 206.235 53.1561 201.57C58.6298 196.905 64.6239 190.477 67.0755 183.77L69.4171 186.553Z" fill="#2B895F"/>
<path d="M65.0441 181.287C65.0441 181.287 62.7526 181.717 58.2395 184.721C53.7464 187.744 46.9618 193.261 38.4661 203.973C38.4661 203.973 41.1679 199.648 45.671 194.412C50.164 189.156 56.4783 183.059 63.2929 179.074L65.0441 181.287Z" fill="#2B895F"/>
<path d="M79.6239 197.576C79.6239 197.576 78.1229 202.131 74.4704 207.877C70.8179 213.614 65.024 220.572 56.238 225.197C56.238 225.197 73.88 209.71 78.1329 195.894L79.6239 197.576Z" fill="#2B895F"/>
<path d="M72.0089 190.438C72.0089 190.438 74.9609 194.302 49.2834 216.838C49.2834 216.838 53.5864 214.034 58.8599 209.529C64.1435 205.034 70.3778 198.827 74.4005 192.159L72.0089 190.438Z" fill="#2B895F"/>
<path d="M50.0339 160.443C50.0339 160.443 46.6716 163.857 41.368 167.982C36.0344 172.066 28.7394 176.912 20.3337 178.854C20.3337 178.854 25.6774 176.752 31.7515 172.907C37.8556 169.083 44.6703 163.567 48.2727 157.52L50.0339 160.443Z" fill="#2B895F"/>
<path d="M46.7718 154.897C46.7718 154.897 44.4703 154.987 39.5069 157.159C34.5735 159.382 26.8483 163.507 16.7214 172.747C16.7214 172.747 20.0737 168.843 25.4173 164.488C30.751 160.083 38.1059 155.317 45.501 152.574L46.7718 154.897Z" fill="#2B895F"/>
<path d="M58.2895 171.816C58.2895 171.816 56.2781 176.081 52.1653 181.487C48.0325 186.883 41.8283 193.491 32.6521 197.365C32.6521 197.365 37.3453 193.841 42.6989 188.625C48.0626 183.419 54.0866 176.562 57.0687 170.134L58.2895 171.816Z" fill="#2B895F"/>
<path d="M51.9152 164.428C51.9152 164.428 52.4655 165.409 49.5135 168.803C46.5515 172.197 40.1672 178.103 26.1077 187.814C26.1077 187.814 30.7308 185.562 36.4847 181.667C42.2386 177.793 49.1033 172.297 53.9766 166.28L51.9152 164.428Z" fill="#2B895F"/>
<path d="M37.4954 133.072C37.4954 133.072 33.3125 135.325 27.0683 137.837C20.8241 140.29 12.5284 143.123 3.85254 142.483C3.85254 142.483 9.57642 142.012 16.4811 139.96C23.3958 137.968 31.4313 134.454 36.7248 130.059C36.7248 130.059 36.905 130.809 37.0951 131.56C37.2852 132.321 37.4954 133.072 37.4954 133.072Z" fill="#2B895F"/>
<path d="M36.1544 127.405C36.1544 127.405 33.9529 126.875 28.5693 127.375C23.2156 127.956 14.4997 129.197 2.05127 135.064C2.05127 135.064 6.39422 132.241 12.8786 129.788C19.323 127.275 27.8888 125.313 35.7341 125.053L36.1544 127.405Z" fill="#2B895F"/>
<path d="M42.3086 145.016C42.3086 145.016 39.3566 148.59 34.2331 153.035C29.0896 157.42 21.7947 162.876 11.988 164.758C11.988 164.758 17.2716 162.215 23.5359 158.151C29.8301 154.096 37.0951 148.61 41.5381 143.254L42.3086 145.016Z" fill="#2B895F"/>
<path d="M38.1259 137.046C38.1259 137.046 38.366 138.038 34.6435 140.54C30.911 143.013 23.2958 147.228 7.35498 153.355C7.35498 153.355 12.3984 152.294 18.8928 149.851C25.4072 147.448 33.3226 143.624 39.5768 139.159L38.1259 137.046Z" fill="#2B895F"/>
<path d="M35.8233 106.091C35.8233 106.091 31.07 106.211 24.3755 105.801C17.691 105.32 8.94503 104.429 1.42993 99.9141C1.42993 99.9141 6.77355 102.036 13.8884 103.168C21.0032 104.359 29.7491 104.639 36.4037 103.278C36.4037 103.278 36.2536 103.979 36.0934 104.69C35.9634 105.39 35.8233 106.091 35.8233 106.091Z" fill="#2B895F"/>
<path d="M37.0551 100.785C37.0551 100.785 35.3039 99.3635 30.3005 97.3411C27.7888 96.34 24.4466 95.1887 20.0135 94.1575C15.5805 93.1464 10.0868 92.2453 3.18213 92.1352C3.18213 92.1352 8.35564 91.5345 15.2403 92.3154C22.135 93.0162 30.5907 95.2387 37.7256 98.5926C37.7256 98.5926 37.5454 99.1432 37.3753 99.6838C37.2152 100.244 37.0551 100.785 37.0551 100.785Z" fill="#2B895F"/>
<path d="M35.464 117.724C35.464 117.724 31.3712 119.697 25.0269 122.009C18.6425 124.192 9.98668 127.055 0.0799561 125.223C0.0799561 125.223 5.92392 124.652 13.2189 123.02C20.5238 121.419 29.2698 118.896 35.4239 116.002L35.464 117.724Z" fill="#2B895F"/>
<path d="M34.7436 109.635C34.7436 109.635 34.5735 110.526 30.1404 111.217C25.7475 111.868 17.0616 112.669 0 111.978C0 111.978 5.05343 113.069 11.9781 113.38C18.9128 113.74 27.6888 113.289 35.2039 111.938L34.7436 109.635Z" fill="#2B895F"/>
<path d="M274.236 315.21C274.236 315.21 275.477 314.91 277.558 314.759C279.66 314.619 282.572 314.659 285.884 315.19C289.226 315.71 292.949 316.722 296.771 318.033C300.594 319.325 304.547 320.936 308.469 322.168C308.469 322.168 307.098 321.807 304.867 321.207C302.625 320.606 299.553 319.705 296.061 318.864C292.558 318.033 288.636 317.262 284.683 317.372C280.74 317.482 276.708 318.554 273.426 321.587C273.426 321.587 273.496 319.975 273.706 318.383C273.916 316.772 274.236 315.21 274.236 315.21Z" fill="#2B895F"/>
<path d="M276.307 339.998C276.307 339.998 278.919 341.089 284.143 339.538C286.754 338.777 289.987 337.355 294.019 335.253C298.042 333.18 302.885 330.397 309.01 327.674C309.01 327.674 304.597 329.766 298.813 333.461C295.901 335.283 292.668 337.495 289.236 339.588C285.804 341.67 282.141 343.612 278.209 344.473C278.209 344.473 277.658 343.362 277.188 342.241C276.718 341.109 276.307 339.998 276.307 339.998Z" fill="#2B895F"/>
<path d="M302.095 282.793C302.095 282.793 303.346 283.444 305.037 284.865C306.738 286.277 308.83 288.479 310.631 291.433C312.442 294.376 313.953 298.05 314.944 302.195C315.954 306.34 316.415 310.985 316.725 315.831C316.725 315.831 316.395 314.399 315.874 312.066C315.304 309.734 314.473 306.52 313.253 302.996C310.791 296.028 306.818 287.468 298.863 284.074C298.863 284.074 299.683 283.734 300.484 283.404C301.294 283.103 302.095 282.793 302.095 282.793Z" fill="#2B895F"/>
<path d="M287.785 292.274C287.785 292.274 288.205 291.913 289.176 291.843C290.137 291.773 291.658 291.993 293.679 293.225C295.711 294.446 298.212 296.689 301.174 300.533C304.166 304.378 307.559 309.844 311.851 317.232C311.851 317.232 309.52 312.687 306.368 306.52C304.737 303.457 302.845 300.013 300.444 296.779C298.042 293.555 295.14 290.532 291.348 288.63C291.348 288.63 290.407 289.471 289.516 290.382C288.626 291.293 287.785 292.274 287.785 292.274Z" fill="#2B895F"/>
<path d="M301.524 368.11C301.524 368.11 303.196 363.595 306.538 357.758C309.88 351.922 314.873 344.744 321.698 339.568C321.698 339.568 317.655 343.622 313.523 349.519C309.36 355.386 305.217 363.145 304.476 370.223L301.524 368.11Z" fill="#2B895F"/>
<path d="M307.128 372.125C307.128 372.125 307.639 371.865 308.599 371.094C309.65 370.393 310.711 368.861 312.532 366.849C314.303 364.807 316.715 362.194 319.287 358.459C320.588 356.607 321.818 354.385 323.109 351.882C324.43 349.389 325.761 346.586 327.102 343.432C327.102 343.432 326.742 344.664 326.011 346.676C325.641 347.687 325.181 348.878 324.62 350.23C324.17 351.651 323.59 353.193 322.829 354.745C321.328 357.869 319.077 361.032 316.375 364.016C313.683 367.009 310.571 369.832 307.869 372.676L307.128 372.125Z" fill="#2B895F"/>
<path d="M286.814 357.098C286.814 357.098 286.875 355.706 287.385 353.524C287.905 351.351 288.936 348.418 290.847 345.515C292.738 342.581 295.52 339.748 298.993 337.265C302.445 334.752 306.568 332.59 310.721 330.117C310.721 330.117 309.54 330.988 307.599 332.4C305.687 333.831 303.055 335.854 300.314 338.396C297.592 340.929 294.78 344.003 292.678 347.587C290.567 351.141 289.236 355.256 289.176 359.33C289.176 359.33 288.586 358.79 287.995 358.249C287.405 357.668 286.814 357.098 286.814 357.098Z" fill="#2B895F"/>
<path d="M297.842 364.807C297.842 364.807 296.761 363.946 298.222 359.611C299.653 355.256 303.926 347.647 314.563 334.272C314.563 334.272 310.981 337.926 306.538 343.252C302.115 348.588 296.881 355.716 294.76 363.385C294.76 363.385 295.541 363.755 296.321 364.116C297.072 364.466 297.842 364.807 297.842 364.807Z" fill="#2B895F"/>
<path d="M308.179 373.186C308.179 373.186 309.78 373.657 312.562 374.297C315.344 374.938 319.296 375.679 323.94 376.43C326.271 376.82 328.773 377.241 331.385 377.671C332.425 377.871 333.476 378.072 334.557 378.272C335.537 378.472 336.518 378.702 337.519 378.973C341.492 380.054 345.664 381.736 349.127 384.919C349.127 384.919 347.856 384.139 345.684 383.187C343.523 382.226 340.431 381.145 336.918 380.284C336.048 380.084 335.137 379.884 334.217 379.673C333.166 379.463 332.095 379.243 331.014 379.023C328.333 378.492 325.611 377.951 322.899 377.411C317.515 376.32 312.242 375.078 308.149 373.256L308.179 373.186Z" fill="#2B895F"/>
<path d="M308.099 373.336C308.099 373.336 310.611 374.878 316.605 379.513C318.126 380.665 319.867 381.976 321.868 383.478C322.889 384.219 323.98 384.999 325.141 385.83C325.731 386.231 326.331 386.651 326.962 387.082C327.282 387.292 327.602 387.502 327.933 387.723C328.183 387.873 328.433 388.033 328.693 388.193C332.636 390.576 337.789 393.259 344.874 394.721C344.874 394.721 343.463 394.681 341.212 394.25C338.97 393.83 335.888 392.979 332.606 391.487C330.955 390.746 329.273 389.865 327.582 388.834C327.222 388.634 326.562 388.173 326.021 387.803C325.461 387.412 324.9 387.012 324.33 386.611C323.209 385.8 322.089 384.959 320.978 384.098C316.535 380.655 312.302 376.83 308.059 373.396L308.099 373.336Z" fill="#2B895F"/>
<path d="M307.559 373.006C307.559 373.006 312.212 371.564 317.275 367.139C319.857 364.987 322.579 362.123 325.771 359.32C329.013 356.537 332.906 353.684 338.64 352.603C338.64 352.603 337.359 353.413 335.417 354.865C333.466 356.307 330.854 358.419 327.962 360.772C322.309 365.407 314.763 371.324 307.559 373.006Z" fill="#2B895F"/>
<path d="M308.94 373.136C308.94 373.136 309.14 373.136 309.72 373.136C310.471 373.136 311.962 373.156 314.784 372.976C317.606 372.796 321.718 372.385 327.752 371.594C330.354 371.234 333.386 370.813 336.899 370.323C340.251 369.872 344.124 369.382 348.587 368.961C348.587 368.961 347.176 368.791 344.834 368.761C342.502 368.721 339.26 368.851 335.608 369.282C333.787 369.492 331.865 369.762 329.904 370.073C327.572 370.463 325.171 370.853 322.729 371.264C317.866 372.075 312.882 372.866 307.999 372.996C308.009 372.966 308.94 373.106 308.94 373.136Z" fill="#2B895F"/>
<path d="M369.581 294.466C369.581 294.466 368.34 299.192 365.208 305.148C362.106 311.135 357.072 318.273 350.898 324.01C350.898 324.01 354.6 319.675 358.513 313.638C362.376 307.581 366.489 299.752 365.748 292.134C365.748 292.134 366.719 292.704 367.689 293.285C368.63 293.876 369.581 294.466 369.581 294.466Z" fill="#2B895F"/>
<path d="M362.216 290.171C362.216 290.171 359.984 291.312 357.052 295.888C354.04 300.413 350.678 308.492 346.365 321.327C346.365 321.327 347.606 316.511 349.607 309.914C351.669 303.356 354.33 294.937 358.994 288.519C358.994 288.519 359.804 288.93 360.625 289.33C361.425 289.751 362.216 290.171 362.216 290.171Z" fill="#2B895F"/>
<path d="M384.081 304.468C384.081 304.468 383.58 309.433 380.728 315.64C377.916 321.897 372.723 329.266 364.748 335.062C364.748 335.062 368.69 330.708 372.913 324.55C377.116 318.403 381.599 310.374 382.119 302.866L384.081 304.468Z" fill="#2B895F"/>
<path d="M373.914 298.01C373.914 298.01 375.084 298.911 373.633 303.246C372.212 307.581 368.01 315.24 357.643 328.815C357.643 328.815 361.215 325.141 365.528 319.705C369.821 314.259 374.884 307.051 377.046 299.432L373.914 298.01Z" fill="#2B895F"/>
<path d="M328.813 279.98C328.813 279.98 330.114 284.755 330.084 291.483C330.144 298.241 328.713 306.84 326.291 314.85C326.291 314.85 326.531 313.438 326.922 311.165C327.282 308.873 327.762 305.689 328.072 302.105C328.663 294.977 328.743 286.057 323.84 279.79C323.84 279.79 325.08 279.82 326.331 279.85C327.562 279.92 328.813 279.98 328.813 279.98Z" fill="#2B895F"/>
<path d="M319.377 279.9C319.377 279.9 317.886 282.052 317.786 287.488C317.715 290.211 318.006 293.725 318.736 298.211C319.457 302.686 320.627 308.142 321.838 314.78C321.838 314.78 320.597 309.934 318.906 303.336C317.255 296.669 314.723 288.189 315.354 280.24C315.354 280.24 316.365 280.14 317.375 280.04C318.376 279.97 319.377 279.9 319.377 279.9Z" fill="#2B895F"/>
<path d="M348.456 283.634C348.456 283.634 350.017 288.59 349.377 295.417C348.847 302.305 345.855 310.795 340.331 318.884C340.331 318.884 342.722 313.518 344.804 306.36C346.845 299.212 348.486 290.101 345.775 282.753L348.456 283.634Z" fill="#2B895F"/>
<path d="M334.947 281.251C334.947 281.251 335.347 281.331 335.858 281.992C336.368 282.653 336.959 283.884 337.289 286.167C338.009 290.752 337.209 299.452 332.866 315.981C332.866 315.981 333.276 314.769 333.956 312.747C334.617 310.705 335.578 307.862 336.538 304.528C338.409 297.86 340.531 289.25 338.9 281.301C338.9 281.301 337.909 281.271 336.918 281.251C335.928 281.251 334.947 281.251 334.947 281.251Z" fill="#2B895F"/>
<path d="M277.518 304.177C277.518 304.177 278.929 303.617 281.241 303.306C283.552 302.986 286.724 303.006 290.097 303.997C293.469 304.958 296.951 306.91 300.234 309.614C303.566 312.287 306.708 315.741 310.31 318.944C310.31 318.944 309.16 318.043 307.268 316.562C305.377 315.1 302.725 313.088 299.553 311.155C296.371 309.223 292.638 307.371 288.546 306.51C284.463 305.649 280.03 305.889 276.077 307.491C276.077 307.491 276.397 306.64 276.768 305.829C277.138 304.988 277.518 304.177 277.518 304.177Z" fill="#2B895F"/>
<path d="M275.337 334.862C275.337 334.862 275.227 334.392 275.627 333.561C276.027 332.74 276.908 331.579 278.909 330.337C280.9 329.106 284.033 327.834 288.776 326.843C293.539 325.822 299.943 325.151 308.449 324.51C308.449 324.51 303.346 324.631 296.421 324.791C289.536 325.091 280.59 325.492 273.766 330.447C273.766 330.447 274.106 331.599 274.506 332.7C274.896 333.821 275.337 334.862 275.337 334.862Z" fill="#2B895F"/>
<path d="M307.459 373.446C307.459 373.446 307.168 374.578 306.858 376.58C306.528 378.582 306.228 381.476 305.998 384.91C305.737 388.343 305.557 392.328 304.807 396.293C304.016 400.257 302.625 404.302 299.283 407.565C299.283 407.565 300.074 406.324 300.944 404.172C301.835 402.029 302.765 398.956 303.406 395.392C304.076 391.847 304.466 387.783 304.947 383.878C305.287 379.914 306.668 376.46 306.108 372.946C306.098 372.926 306.778 373.186 307.459 373.446C307.378 373.416 307.479 373.446 307.459 373.446Z" fill="#2B895F"/>
<path d="M303.506 371.875C303.506 371.875 301.765 373.366 299.153 378.112C296.611 382.887 292.909 390.836 290.607 404.372C290.607 404.372 290.807 399.216 292.418 392.498C293.989 385.771 296.881 377.471 301.094 370.813L303.506 371.875Z" fill="#2B895F"/>
<path d="M307.559 373.006C307.559 373.006 308.149 374.137 309.56 376.099C310.971 378.052 313.292 380.805 316.585 383.928C319.737 386.982 324.53 391.006 327.402 393.529C330.634 396.493 333.826 399.947 335.387 404.752C335.387 404.752 334.417 403.611 332.696 401.849C330.974 400.077 328.493 397.704 325.611 394.991C324.89 394.31 324.15 393.609 323.399 392.899C323.019 392.538 322.639 392.178 322.259 391.807C321.898 391.477 321.338 390.886 320.888 390.436C318.996 388.474 317.135 386.491 315.394 384.469C311.942 380.464 309.05 376.4 307.559 373.006Z" fill="#2B895F"/>
<path d="M307.589 374.067C307.589 374.067 307.609 374.227 307.679 374.698C307.759 375.298 307.909 376.49 308.449 378.862C308.98 381.235 309.94 384.779 311.581 390.095C312.372 392.598 313.282 395.491 314.343 398.875C315.364 402.169 316.505 405.913 317.625 410.188C317.625 410.188 317.625 408.897 317.325 406.744C317.045 404.592 316.435 401.588 315.434 398.155C314.934 396.433 314.343 394.61 313.683 392.698C312.942 390.596 312.182 388.433 311.411 386.231C309.87 381.846 308.349 377.381 307.629 373.376C307.659 373.376 307.619 374.077 307.589 374.067Z" fill="#2B895F"/>
<path d="M280.2 360.401C280.2 360.401 278.969 365.037 276.247 371.204C273.515 377.341 269.333 385.029 263.008 390.836C263.008 390.836 266.631 386.401 270.143 380.124C273.656 373.837 277.098 365.768 276.998 358.579L280.2 360.401Z" fill="#2B895F"/>
<path d="M274.076 356.887C274.076 356.887 272.004 358.069 268.882 362.504C265.76 366.929 261.597 374.618 257.314 387.572C257.314 387.572 261.627 367.76 271.434 355.366L274.076 356.887Z" fill="#2B895F"/>
<path d="M292.779 366.458C292.779 366.458 292.819 367.61 292.739 369.622C292.789 371.684 292.849 374.648 292.268 378.002C291.168 384.729 288.506 393.369 282.251 401.078C282.251 401.078 284.813 395.792 287.175 388.714C289.666 381.676 291.208 372.565 291.027 365.637L292.779 366.458Z" fill="#2B895F"/>
<path d="M283.892 363.104C283.892 363.104 284.863 363.705 283.852 368.11C282.832 372.495 279.98 380.705 272.185 395.922C272.185 395.922 275.207 391.757 278.419 385.61C281.661 379.473 285.093 371.364 286.594 363.795L283.892 363.104Z" fill="#2B895F"/>
<path d="M250.01 343.092C250.01 343.092 248.719 347.727 245.867 353.824C243.015 359.911 238.632 367.469 232.248 373.196C232.248 373.196 235.94 368.821 239.583 362.614C243.225 356.407 246.807 348.388 246.797 341.189L250.01 343.092Z" fill="#2B895F"/>
<path d="M243.976 339.478C243.976 339.478 241.924 340.639 238.702 345.004C235.49 349.369 231.067 356.907 226.604 369.822C226.604 369.822 227.735 364.867 230.196 358.409C232.638 351.952 236.43 344.023 241.474 337.956L243.976 339.478Z" fill="#2B895F"/>
<path d="M263.339 350.26C263.339 350.26 263.379 355.055 261.788 361.673C260.236 368.331 256.834 376.71 250.12 383.958C250.12 383.958 253.072 378.883 255.934 371.985C258.796 365.077 261.587 356.377 261.407 349.159L263.339 350.26Z" fill="#2B895F"/>
<path d="M253.812 345.965C253.812 345.965 257.895 348.698 240.813 378.292C240.813 378.292 243.986 374.247 247.538 368.281C251.09 362.324 255.013 354.445 256.644 346.836L253.812 345.965Z" fill="#2B895F"/>
<path d="M221.33 324.941C221.33 324.941 219.699 329.466 216.467 335.363C213.225 341.25 208.381 348.528 201.597 353.794C201.597 353.794 205.579 349.679 209.622 343.722C213.665 337.766 217.758 330.007 218.298 322.849L221.33 324.941Z" fill="#2B895F"/>
<path d="M215.626 320.966C215.626 320.966 213.505 321.988 209.972 326.102C206.46 330.227 201.487 337.415 196.123 349.989C196.123 349.989 197.594 345.114 200.506 338.857C203.418 332.59 207.771 324.961 213.255 319.274L215.626 320.966Z" fill="#2B895F"/>
<path d="M233.959 332.74C233.959 332.74 233.719 337.505 231.807 344.033C229.876 350.56 226.304 358.88 219.139 365.768C219.139 365.768 222.301 360.822 225.473 354.064C228.655 347.307 231.867 338.747 232.127 331.579L233.959 332.74Z" fill="#2B895F"/>
<path d="M224.852 328.004C224.852 328.004 228.675 330.918 209.952 359.5C209.952 359.5 213.365 355.656 217.237 349.899C221.12 344.153 225.473 336.504 227.594 329.026L224.852 328.004Z" fill="#2B895F"/>
<path d="M193.842 304.748C193.842 304.748 191.98 309.193 188.398 314.879C184.805 320.566 179.502 327.514 172.467 332.4C172.467 332.4 176.67 328.515 181.053 322.819C185.446 317.112 190.019 309.613 190.87 302.445L193.842 304.748Z" fill="#2B895F"/>
<path d="M188.238 300.373C188.238 300.373 186.046 301.274 182.324 305.218C178.601 309.163 173.348 316.141 167.323 328.395C167.323 328.395 169.065 323.619 172.267 317.512C175.479 311.395 180.142 303.947 185.886 298.531L188.238 300.373Z" fill="#2B895F"/>
<path d="M206.13 313.518C206.13 313.518 205.56 318.273 203.178 324.641C200.776 330.998 196.593 339.037 188.948 345.374C188.948 345.374 192.461 340.669 196.123 334.162C199.786 327.654 203.628 319.365 204.369 312.207L206.13 313.518Z" fill="#2B895F"/>
<path d="M197.264 308.092C197.264 308.092 200.966 311.305 180.302 338.537C180.302 338.537 183.955 334.922 188.228 329.456C192.501 323.99 197.384 316.662 199.966 309.323L197.264 308.092Z" fill="#2B895F"/>
<path d="M599.056 442.115C599.056 442.115 598.836 446.92 597.455 453.508C596.064 460.085 593.513 468.455 588.589 475.463C588.589 475.463 591.191 470.367 593.333 463.499C595.474 456.631 597.145 447.991 595.524 440.993L599.056 442.115Z" fill="#2B895F"/>
<path d="M592.382 439.972C592.382 439.972 590.651 441.574 588.489 446.54C586.348 451.515 583.736 459.865 582.305 473.451C582.305 473.451 582.285 468.365 583.216 461.527C584.146 454.689 586.038 446.109 589.59 439.051L592.382 439.972Z" fill="#2B895F"/>
<path d="M613.556 446.009C613.556 446.009 614.697 450.644 614.697 457.462C614.677 464.26 613.566 473.26 608.643 481.87C608.643 481.87 610.284 476.234 611.435 468.855C612.596 461.467 613.266 452.376 611.465 445.398L613.556 446.009Z" fill="#2B895F"/>
<path d="M603.389 444.037C603.389 444.037 607.942 445.759 598.136 478.486C598.136 478.486 600.297 473.821 602.379 467.194C604.47 460.566 606.461 452.016 606.331 444.227L603.389 444.037Z" fill="#2B895F"/>
<path d="M566.844 430.942C566.844 430.942 566.344 435.738 564.573 442.225C562.802 448.712 559.77 456.912 554.446 463.629C554.446 463.629 557.348 458.694 559.88 451.956C562.411 445.228 564.583 436.699 563.382 429.621L566.844 430.942Z" fill="#2B895F"/>
<path d="M560.31 428.419C560.31 428.419 558.479 429.911 556.037 434.756C553.605 439.602 550.513 447.771 548.282 461.257C548.282 461.257 548.562 456.171 549.893 449.403C551.224 442.625 553.625 434.186 557.588 427.348L560.31 428.419Z" fill="#2B895F"/>
<path d="M581.064 435.657C581.064 435.657 581.925 440.353 581.544 447.15C581.144 453.938 579.533 462.858 574.119 471.178C574.119 471.178 576.081 465.642 577.642 458.343C579.213 451.035 580.394 441.995 579.003 434.927L581.064 435.657Z" fill="#2B895F"/>
<path d="M571.037 433.125C571.037 433.125 575.48 435.097 563.812 467.213C563.812 467.213 566.244 462.678 568.706 456.191C571.168 449.693 573.639 441.264 573.969 433.485L571.037 433.125Z" fill="#2B895F"/>
<path d="M535.433 417.907C535.433 417.907 534.623 422.643 532.461 429.02C530.29 435.387 526.757 443.386 521.003 449.744C521.003 449.744 524.216 444.998 527.158 438.441C530.12 431.883 532.811 423.514 532.071 416.375L535.433 417.907Z" fill="#2B895F"/>
<path d="M529.089 414.974C529.089 414.974 527.178 416.345 524.426 421.021C521.694 425.696 518.061 433.655 514.989 446.97C514.989 446.97 515.58 441.915 517.351 435.237C519.112 428.569 522.064 420.28 526.457 413.722L529.089 414.974Z" fill="#2B895F"/>
<path d="M549.293 423.464C549.293 423.464 549.863 428.199 549.093 434.957C548.282 441.714 546.151 450.524 540.247 458.504C540.247 458.504 542.528 453.097 544.529 445.899C546.531 438.701 548.252 429.741 547.291 422.613L549.293 423.464Z" fill="#2B895F"/>
<path d="M539.466 420.33C539.466 420.33 543.759 422.552 530.15 453.908C530.15 453.908 532.852 449.533 535.693 443.206C538.545 436.879 541.547 428.599 542.348 420.87L539.466 420.33Z" fill="#2B895F"/>
<path d="M505.033 402.85C505.033 402.85 503.902 407.525 501.3 413.732C498.698 419.929 494.636 427.678 488.461 433.625C488.461 433.625 491.984 429.11 495.376 422.763C498.768 416.415 502.021 408.256 501.78 401.078L505.033 402.85Z" fill="#2B895F"/>
<path d="M498.928 399.506C498.928 399.506 496.927 400.748 493.865 405.213C490.813 409.688 486.63 417.376 482.647 430.441C482.647 430.441 483.588 425.436 485.82 418.908C488.031 412.371 491.553 404.322 496.397 398.084L498.928 399.506Z" fill="#2B895F"/>
<path d="M518.462 409.317C518.462 409.317 518.722 414.083 517.481 420.77C516.23 427.458 513.528 436.108 507.114 443.687C507.114 443.687 509.746 438.441 512.217 431.392C514.679 424.344 517.001 415.504 516.52 408.336L518.462 409.317Z" fill="#2B895F"/>
<path d="M508.885 405.543C508.885 405.543 513.008 408.056 497.337 438.41C497.337 438.41 500.329 434.236 503.592 428.109C506.864 421.982 510.406 413.933 511.727 406.274L508.885 405.543Z" fill="#2B895F"/>
<path d="M475.883 385.731C475.883 385.731 474.402 390.306 471.35 396.293C468.288 402.279 463.665 409.698 457.05 415.164C457.05 415.164 460.903 410.929 464.755 404.862C468.618 398.785 472.471 390.896 472.791 383.738L475.883 385.731Z" fill="#2B895F"/>
<path d="M470.079 381.946C470.079 381.946 467.998 383.037 464.595 387.252C461.203 391.477 456.43 398.805 451.456 411.53C451.456 411.53 452.777 406.604 455.509 400.267C458.231 393.92 462.384 386.181 467.687 380.334L470.079 381.946Z" fill="#2B895F"/>
<path d="M488.752 393.129C488.752 393.129 488.651 397.894 486.95 404.482C485.229 411.059 481.937 419.509 474.992 426.607C474.992 426.607 477.984 421.551 480.936 414.703C483.898 407.846 486.83 399.196 486.89 392.018L488.752 393.129Z" fill="#2B895F"/>
<path d="M479.505 388.694C479.505 388.694 483.408 391.487 465.576 420.64C465.576 420.64 468.868 416.686 472.561 410.819C476.263 404.952 480.386 397.164 482.267 389.635L479.505 388.694Z" fill="#2B895F"/>
<path d="M448.434 366.438C448.434 366.438 446.543 370.853 442.97 376.55C439.388 382.236 434.144 389.234 427.04 394.08C427.04 394.08 431.272 390.205 435.645 384.499C440.028 378.792 444.561 371.274 445.572 364.196L448.434 366.438Z" fill="#2B895F"/>
<path d="M443.071 362.194C443.071 362.194 440.899 363.085 437.117 366.959C433.354 370.844 427.87 377.681 421.756 389.905C421.756 389.905 423.517 385.12 426.83 379.063C430.132 372.996 435.025 365.698 440.859 360.392L443.071 362.194Z" fill="#2B895F"/>
<path d="M460.512 374.838C460.512 374.838 460.012 379.573 457.781 386.001C455.529 392.418 451.596 400.577 444.091 407.105C444.091 407.105 447.484 402.309 450.966 395.702C454.468 389.104 458.091 380.715 458.761 373.586L460.512 374.838Z" fill="#2B895F"/>
<path d="M451.757 369.682C451.757 369.682 455.369 372.766 435.155 400.307C435.155 400.307 438.768 396.653 442.941 391.107C447.133 385.58 451.877 378.162 454.418 370.823L451.757 369.682Z" fill="#2B895F"/>
<path d="M423.477 344.784C423.477 344.784 421.066 348.928 416.853 354.174C412.63 359.41 406.636 365.768 398.981 369.712C398.981 369.712 403.654 366.378 408.667 361.222C413.691 356.077 419.044 349.119 420.976 342.281L423.477 344.784Z" fill="#2B895F"/>
<path d="M418.784 340.018C418.784 340.018 416.543 340.649 412.29 344.013C408.057 347.397 401.713 353.413 394.147 364.827C394.147 364.827 396.469 360.261 400.532 354.695C404.585 349.089 410.419 342.531 416.883 338.006L418.784 340.018Z" fill="#2B895F"/>
<path d="M434.365 354.264C434.365 354.264 433.354 358.89 430.482 365.067C427.59 371.214 422.897 378.973 414.771 384.699C414.771 384.699 418.614 380.264 422.747 374.047C426.879 367.82 431.322 359.851 432.783 352.873L434.365 354.264Z" fill="#2B895F"/>
<path d="M426.339 348.318C426.339 348.318 429.501 351.701 406.456 376.93C406.456 376.93 410.448 373.687 415.201 368.621C419.955 363.565 425.458 356.697 428.811 349.719L426.339 348.318Z" fill="#2B895F"/>
<path d="M399.611 319.334C399.611 319.334 397.249 323.579 392.916 328.715C388.584 333.861 382.249 339.888 374.784 343.933C374.784 343.933 379.417 340.589 384.551 335.553C389.654 330.497 395.288 323.719 396.699 316.441L399.611 319.334Z" fill="#2B895F"/>
<path d="M394.057 313.898C394.057 313.898 391.696 314.509 387.643 318.103C383.56 321.677 377.906 328.345 370.561 339.788C370.561 339.788 372.883 335.333 376.605 329.526C380.348 323.75 385.441 316.561 391.656 311.656L394.057 313.898Z" fill="#2B895F"/>
<path d="M411.079 330.898C411.079 330.898 409.708 335.583 406.015 341.31C402.283 346.966 396.619 354.074 387.753 358.589C387.753 358.589 392.166 354.725 397.109 349.129C402.073 343.552 407.596 336.254 409.498 329.156L411.079 330.898Z" fill="#2B895F"/>
<path d="M402.783 323.419C402.783 323.419 406.256 327.554 381.029 350.63C381.029 350.63 385.231 347.687 390.415 343.072C395.588 338.446 401.753 332.169 405.415 325.221L402.783 323.419Z" fill="#2B895F"/>
<path d="M873.423 460.776C873.423 460.776 875.944 464.851 878.626 471.018C881.288 477.185 884.15 485.454 884.04 494.074C884.04 494.074 883.279 488.388 881.038 481.55C878.816 474.692 875.164 466.723 870.05 461.817L873.423 460.776Z" fill="#2B895F"/>
<path d="M859.563 464.681C859.563 464.681 858.993 466.943 859.783 472.299C860.624 477.655 862.685 486.155 868.789 498.409C868.789 498.409 866.008 494.124 863.186 487.817C860.354 481.51 857.542 473.19 856.841 465.331L859.563 464.681Z" fill="#2B895F"/>
<path d="M895.657 451.516C895.657 451.516 899.4 454.309 903.983 459.315C908.516 464.34 914.11 471.508 916.271 481.26C916.271 481.26 913.59 476.034 909.377 469.867C905.164 463.69 899.51 456.541 893.846 452.367L895.657 451.516Z" fill="#2B895F"/>
<path d="M887.362 456.321C887.362 456.321 891.545 454.899 905.394 486.125C905.394 486.125 904.063 481.149 901.331 474.772C898.62 468.385 894.507 460.606 889.564 454.669L887.362 456.321Z" fill="#2B895F"/>
<path d="M833.916 469.596C833.916 469.596 835.747 474.041 837.348 480.569C838.929 487.096 840.31 495.736 838.809 504.206C838.809 504.206 838.989 498.479 837.948 491.361C836.918 484.243 834.686 475.753 830.353 470.077L833.916 469.596Z" fill="#2B895F"/>
<path d="M827.161 470.477C827.161 470.477 826.291 472.65 826.411 478.076C826.561 483.492 827.611 492.172 832.094 505.097C832.094 505.097 829.893 500.491 827.882 493.884C825.86 487.286 824.059 478.686 824.339 470.797L827.161 470.477Z" fill="#2B895F"/>
<path d="M848.125 466.753C848.125 466.753 851.157 470.387 854.3 476.414C857.402 482.451 860.724 490.9 860.304 500.842C860.304 500.842 859.123 495.085 856.701 488.017C854.28 480.949 850.677 472.57 846.064 467.143L848.125 466.753Z" fill="#2B895F"/>
<path d="M838.499 469.486C838.499 469.486 843.142 469.045 849.026 502.704C849.026 502.704 848.906 497.568 847.795 490.71C846.704 483.862 844.623 475.303 841.141 468.385L838.499 469.486Z" fill="#2B895F"/>
<path d="M800.803 472.429C800.803 472.429 802.164 477.045 803.045 483.702C803.915 490.37 804.345 499.1 801.964 507.369C801.964 507.369 802.754 501.693 802.484 494.495C802.224 487.306 800.913 478.617 797.181 472.53L800.803 472.429Z" fill="#2B895F"/>
<path d="M793.939 472.59C793.939 472.59 792.838 474.662 792.398 480.058C791.987 485.464 792.147 494.214 795.24 507.529C795.24 507.529 793.538 502.724 792.217 495.946C790.877 489.168 789.966 480.429 791.067 472.61L793.939 472.59Z" fill="#2B895F"/>
<path d="M815.393 471.178C815.393 471.178 818.015 475.132 820.437 481.49C822.818 487.857 825.07 496.637 823.489 506.458C823.489 506.458 823.008 500.612 821.447 493.303C819.886 485.995 817.294 477.245 813.282 471.338L815.393 471.178Z" fill="#2B895F"/>
<path d="M805.426 472.81C805.426 472.81 810.139 472.88 812.191 506.989C812.191 506.989 812.641 501.863 812.311 494.935C812.001 487.997 810.9 479.267 808.188 471.999L805.426 472.81Z" fill="#2B895F"/>
<path d="M931.122 423.974C931.122 423.974 935.505 425.776 941.499 428.83C947.423 431.933 955.118 436.218 960.191 443.376C960.191 443.376 956.119 439.292 950.054 435.427C944.01 431.503 936.105 427.738 929.46 426.337C929.46 426.337 929.881 425.756 930.311 425.165C930.721 424.565 931.122 423.974 931.122 423.974Z" fill="#2B895F"/>
<path d="M927.869 428.369C927.869 428.369 928.88 430.371 932.683 434.236C934.594 436.158 937.196 438.541 940.848 441.244C944.501 443.927 949.204 446.94 955.478 449.804C955.478 449.804 950.505 448.272 944.501 444.828C938.467 441.434 931.532 436.058 926.328 430.151L927.869 428.369Z" fill="#2B895F"/>
<path d="M935.685 413.983C935.685 413.983 940.138 413.842 946.892 413.943C950.265 414.013 954.207 414.163 958.43 414.854C962.633 415.554 967.126 416.796 971.419 419.499C971.419 419.499 969.998 419.118 967.656 418.638C965.315 418.157 962.033 417.577 958.33 417.076C950.915 416.075 941.849 415.304 935.154 415.434L935.685 413.983Z" fill="#2B895F"/>
<path d="M933.473 421.231C933.473 421.231 933.974 420.53 938.276 421.651C942.569 422.823 950.875 425.426 966.375 432.614C966.375 432.614 962.143 429.64 955.858 426.697C949.594 423.714 941.299 420.8 933.903 419.028C933.903 419.028 933.803 419.569 933.713 420.13C933.593 420.68 933.473 421.231 933.473 421.231Z" fill="#2B895F"/>
<path d="M910.818 443.406C910.818 443.406 914.3 446.66 918.633 451.816C922.916 456.982 928.119 464.04 930.291 472.439C930.291 472.439 928.019 467.163 923.937 461.237C919.884 455.29 914.1 448.682 908.056 445.208L910.818 443.406Z" fill="#2B895F"/>
<path d="M905.534 446.74C905.534 446.74 905.704 449.033 907.986 453.948C910.327 458.824 914.61 466.473 924.127 476.344C924.127 476.344 920.124 473.11 915.641 467.864C911.108 462.638 906.165 455.38 903.253 448.051L905.534 446.74Z" fill="#2B895F"/>
<path d="M920.715 435.167C920.715 435.167 924.928 436.949 930.772 440.383C936.525 443.887 944.221 448.823 949.114 457.583C949.114 457.583 944.971 453.438 939.077 448.833C933.193 444.227 925.698 439.051 919.344 436.378L920.715 435.167Z" fill="#2B895F"/>
<path d="M914.521 441.504C914.521 441.504 915.401 440.953 918.903 443.747C922.406 446.55 928.72 452.527 939.427 465.852C939.427 465.852 936.886 461.367 932.583 455.93C928.3 450.464 922.256 444.077 916.112 439.472L914.521 441.504Z" fill="#2B895F"/>
<path d="M879.417 458.283C879.417 458.283 882.899 461.447 886.902 466.933C890.864 472.439 895.538 480.228 896.608 490.14C896.608 490.14 894.547 484.643 891.065 478.036C887.582 471.418 882.759 463.689 877.485 458.964L879.417 458.283Z" fill="#2B895F"/>
<path d="M862.755 464.45C862.755 464.44 867.248 463.559 876.565 496.437C876.565 496.437 875.914 491.331 874.113 484.633C872.322 477.926 869.36 469.636 865.227 463.099L862.755 464.45Z" fill="#2B895F"/>
<path d="M767.3 471.929C767.3 471.929 768.261 476.644 768.521 483.362C768.771 490.09 768.331 498.819 765.269 506.819C765.269 506.819 766.55 501.242 766.95 494.054C767.35 486.866 766.87 478.086 763.558 471.698L767.3 471.929Z" fill="#2B895F"/>
<path d="M760.246 471.478C760.246 471.478 758.945 473.451 758.084 478.807C757.234 484.163 756.783 492.893 758.735 506.418C758.735 506.418 757.474 501.483 756.683 494.635C755.893 487.777 755.582 478.997 757.294 471.278L760.246 471.478Z" fill="#2B895F"/>
<path d="M782.081 472.089C782.081 472.089 784.312 476.284 786.073 482.851C787.804 489.419 789.155 498.389 786.604 508C786.604 508 786.714 502.133 785.893 494.705C785.083 487.276 783.372 478.306 779.929 472.029L782.081 472.089Z" fill="#2B895F"/>
<path d="M771.934 472.75C771.934 472.75 776.667 473.27 775.386 507.419C775.386 507.419 776.327 502.364 776.677 495.436C777.027 488.498 776.807 479.708 774.796 472.199L771.934 472.75Z" fill="#2B895F"/>
<path d="M733.067 469.196C733.067 469.196 733.818 473.951 733.778 480.669C733.738 487.396 732.907 496.096 729.505 503.975C729.505 503.975 731.036 498.449 731.746 491.291C732.457 484.133 732.367 475.353 729.335 468.805L733.067 469.196Z" fill="#2B895F"/>
<path d="M726.043 468.435C726.043 468.435 724.662 470.357 723.571 475.663C722.49 480.969 721.65 489.689 723 503.265C723 503.265 721.96 498.299 721.479 491.401C720.999 484.513 721.079 475.723 723.131 468.094L726.043 468.435Z" fill="#2B895F"/>
<path d="M748.128 470.137C748.128 470.137 750.169 474.462 751.5 481.139C752.821 487.817 753.461 496.857 750.319 506.268C750.319 506.268 750.829 500.421 750.519 492.953C750.209 485.484 749.098 476.424 745.936 469.947L748.128 470.137Z" fill="#2B895F"/>
<path d="M737.7 470.217C737.7 470.217 742.544 470.988 739.412 505.027C739.412 505.027 740.602 500.021 741.333 493.123C742.063 486.225 742.334 477.425 740.652 469.836L737.7 470.217Z" fill="#2B895F"/>
<path d="M699.014 464.911C699.014 464.911 699.554 469.696 699.204 476.414C698.854 483.132 697.623 491.781 693.851 499.49C693.851 499.49 695.632 494.044 696.673 486.926C697.723 479.798 698.033 471.028 695.322 464.36L699.014 464.911Z" fill="#2B895F"/>
<path d="M692.06 463.84C692.06 463.84 690.589 465.692 689.248 470.948C687.917 476.204 686.666 484.854 687.376 498.489C687.376 498.489 686.566 493.473 686.416 486.576C686.246 479.688 686.766 470.898 689.158 463.379L692.06 463.84Z" fill="#2B895F"/>
<path d="M714.014 466.543C714.014 466.543 715.846 470.958 716.876 477.705C717.897 484.423 718.127 493.473 714.565 502.744C714.565 502.744 715.335 496.927 715.365 489.459C715.395 481.99 714.685 472.86 711.823 466.262L714.014 466.543Z" fill="#2B895F"/>
<path d="M703.607 466.162C703.607 466.162 708.411 467.143 703.717 501.002C703.717 501.002 705.138 496.066 706.189 489.208C707.23 482.341 707.91 473.571 706.569 465.902L703.607 466.162Z" fill="#2B895F"/>
<path d="M665.271 459.024C665.271 459.024 665.571 463.83 664.891 470.527C664.21 477.215 662.559 485.805 658.417 493.303C658.417 493.303 660.458 487.957 661.849 480.899C663.25 473.851 663.99 465.081 661.609 458.303L665.271 459.024Z" fill="#2B895F"/>
<path d="M658.376 457.602C658.376 457.602 656.815 459.374 655.214 464.56C653.623 469.736 651.942 478.316 651.972 491.982C651.972 491.982 651.412 486.926 651.602 480.028C651.782 473.13 652.733 464.4 655.505 457.002L658.376 457.602Z" fill="#2B895F"/>
<path d="M680.141 461.377C680.141 461.377 681.763 465.892 682.473 472.65C683.173 479.417 682.983 488.478 678.971 497.558C678.971 497.558 680.021 491.781 680.402 484.323C680.782 476.874 680.512 467.724 677.98 460.986L680.141 461.377Z" fill="#2B895F"/>
<path d="M669.794 460.486C669.794 460.486 674.527 461.707 668.203 495.296C668.203 495.296 669.854 490.43 671.235 483.632C672.606 476.835 673.697 468.095 672.746 460.366L669.794 460.486Z" fill="#2B895F"/>
<path d="M631.919 451.445C631.919 451.445 631.969 456.261 630.948 462.909C629.917 469.556 627.826 478.046 623.293 485.314C623.293 485.314 625.614 480.078 627.366 473.1C629.127 466.122 630.328 457.412 628.316 450.514L631.919 451.445Z" fill="#2B895F"/>
<path d="M625.114 449.673C625.114 449.673 623.473 451.365 621.592 456.451C619.731 461.537 617.599 470.017 616.919 483.662C616.919 483.662 616.618 478.576 617.169 471.699C617.709 464.821 619.12 456.151 622.272 448.903L625.114 449.673Z" fill="#2B895F"/>
<path d="M646.618 454.559C646.618 454.559 648.009 459.134 648.38 465.922C648.73 472.72 648.09 481.76 643.626 490.63C643.626 490.63 644.967 484.914 645.728 477.485C646.488 470.047 646.679 460.936 644.497 454.058L646.618 454.559Z" fill="#2B895F"/>
<path d="M636.342 453.137C636.342 453.137 640.995 454.609 632.969 487.827C632.969 487.827 634.871 483.052 636.602 476.324C638.323 469.596 639.854 460.946 639.304 453.167L636.342 453.137Z" fill="#2B895F"/>
<path d="M801.664 293.826C801.664 293.826 802.334 289.1 804.196 282.643C806.067 276.195 809.089 267.996 814.012 261.128C814.012 261.128 811.26 266.124 808.739 272.862C806.207 279.599 803.905 288.069 804.586 294.947L801.664 293.826Z" fill="#2B895F"/>
<path d="M807.177 295.928C807.177 295.928 808.829 294.356 811.18 289.47C813.512 284.585 816.574 276.396 819.166 263.09C819.166 263.09 818.675 268.076 817.184 274.774C815.713 281.471 813.242 289.881 809.479 296.819L807.177 295.928Z" fill="#2B895F"/>
<path d="M789.726 289.731C789.726 289.731 789.265 285.075 789.936 278.448C790.636 271.78 792.538 262.98 797.651 254.521C797.651 254.521 795.67 260.047 793.919 267.275C792.177 274.483 790.646 283.444 791.457 290.391L789.726 289.731Z" fill="#2B895F"/>
<path d="M798.161 291.883C798.161 291.883 794.459 290.121 806.197 258.025C806.197 258.025 803.885 262.58 801.424 269.067C798.962 275.555 796.36 283.974 795.68 291.643L798.161 291.883Z" fill="#2B895F"/>
<path d="M828.322 304.408C828.322 304.408 829.222 299.712 831.374 293.345C833.535 286.978 836.928 278.929 842.171 272.311C842.171 272.311 839.189 277.177 836.357 283.784C833.525 290.392 830.833 298.761 831.164 305.659L828.322 304.408Z" fill="#2B895F"/>
<path d="M833.686 306.77C833.686 306.77 835.407 305.279 837.988 300.513C840.55 295.738 844.023 287.729 847.255 274.553C847.255 274.553 846.524 279.509 844.723 286.127C842.922 292.744 840.03 301.024 835.937 307.761L833.686 306.77Z" fill="#2B895F"/>
<path d="M816.544 299.993C816.544 299.993 816.234 295.427 817.224 288.79C818.235 282.162 820.496 273.422 825.97 265.213C825.97 265.213 823.739 270.649 821.687 277.797C819.626 284.945 817.715 293.816 818.265 300.643L816.544 299.993Z" fill="#2B895F"/>
<path d="M824.94 302.295C824.94 302.295 821.357 300.333 834.476 268.837C834.476 268.837 831.944 273.312 829.203 279.689C826.451 286.087 823.529 294.306 822.488 301.935L824.94 302.295Z" fill="#2B895F"/>
<path d="M854.119 316.401C854.119 316.401 855.3 311.796 857.812 305.569C860.344 299.352 864.196 291.513 869.86 285.196C869.86 285.196 866.588 289.881 863.366 296.308C860.143 302.746 856.961 310.915 856.881 317.773L854.119 316.401Z" fill="#2B895F"/>
<path d="M859.333 318.994C859.333 318.994 861.144 317.583 864.016 312.987C866.878 308.382 870.861 300.603 874.864 287.678C874.864 287.678 873.853 292.574 871.641 299.051C869.44 305.529 865.977 313.648 861.504 320.085C861.504 320.085 860.974 319.795 860.434 319.535C859.883 319.265 859.333 318.994 859.333 318.994Z" fill="#2B895F"/>
<path d="M842.772 311.275C842.772 311.275 842.712 306.71 844.052 300.133C845.393 293.555 848.085 284.955 853.979 277.026C853.979 277.026 851.478 282.342 849.056 289.38C846.614 296.449 844.323 305.088 844.393 312.076L842.772 311.275Z" fill="#2B895F"/>
<path d="M850.867 314.169C850.867 314.169 847.405 312.096 862.275 281.321C862.285 281.321 859.513 285.616 856.421 291.833C853.329 298.04 849.927 306.16 848.446 313.708L850.867 314.169Z" fill="#2B895F"/>
<path d="M878.746 329.907C878.746 329.907 880.327 325.391 883.329 319.365C886.351 313.358 890.774 305.809 896.928 300.052C896.928 300.052 893.296 304.428 889.573 310.585C885.851 316.742 882.038 324.671 881.278 331.528L878.746 329.907Z" fill="#2B895F"/>
<path d="M883.539 332.99C883.539 332.99 885.431 331.749 888.693 327.434C891.945 323.099 896.638 315.731 901.732 303.136C901.732 303.136 900.311 307.962 897.529 314.229C894.757 320.516 890.584 328.215 885.531 334.262L883.539 332.99Z" fill="#2B895F"/>
<path d="M867.859 324.18C867.859 324.18 868.189 319.605 869.99 313.087C871.811 306.59 875.054 298.14 881.458 290.702C881.458 290.702 878.616 295.838 875.714 302.716C872.812 309.583 869.83 318.193 869.43 325.061L867.859 324.18Z" fill="#2B895F"/>
<path d="M875.744 327.454C875.744 327.454 872.442 325.241 889.533 295.647C889.533 295.647 886.431 299.742 882.899 305.709C879.356 311.676 875.374 319.525 873.342 326.873L875.744 327.454Z" fill="#2B895F"/>
<path d="M901.381 345.434C901.381 345.434 903.453 341.189 907.125 335.573C910.798 329.977 916.051 322.989 922.916 317.903C922.916 317.903 918.753 321.847 914.36 327.544C909.907 333.26 905.374 340.569 903.683 347.256C903.683 347.256 903.132 346.776 902.582 346.305C901.972 345.875 901.381 345.434 901.381 345.434Z" fill="#2B895F"/>
<path d="M905.624 348.938C905.624 348.938 907.626 347.937 911.418 344.083C915.181 340.188 920.855 333.541 927.459 321.617C927.459 321.617 925.458 326.273 921.885 332.139C918.333 338.026 913.139 345.084 907.355 350.42L905.624 348.938Z" fill="#2B895F"/>
<path d="M891.505 338.697C891.505 338.697 891.735 337.555 892.225 335.643C892.706 333.751 893.486 331.068 894.677 327.944C897.079 321.707 901.041 313.598 908.176 306.74C908.176 306.74 904.864 311.596 901.352 318.143C897.829 324.711 894.157 332.89 892.906 339.728L891.505 338.697Z" fill="#2B895F"/>
<path d="M898.7 342.761C898.7 342.761 895.818 340.238 915.881 312.577C915.881 312.577 912.369 316.301 908.236 321.878C904.093 327.444 899.33 334.852 896.458 341.94L898.7 342.761Z" fill="#2B895F"/>
<path d="M920.655 363.275C920.655 363.275 923.577 359.48 928.19 354.595C932.793 349.769 939.177 343.662 946.842 340.118C946.842 340.118 942.039 343.182 936.706 347.997C931.342 352.793 925.408 359.32 922.406 365.387L920.655 363.275Z" fill="#2B895F"/>
<path d="M923.947 367.259C923.947 367.259 926.098 366.629 930.611 363.615C935.074 360.552 942.049 355.286 950.785 344.884C950.785 344.884 947.983 349.079 943.31 354.074C938.667 359.1 932.102 364.847 925.338 368.921L923.947 367.259Z" fill="#2B895F"/>
<path d="M912.439 355.456C912.439 355.456 912.849 354.365 913.64 352.573C914.4 350.79 915.571 348.268 917.192 345.354C920.474 339.538 925.448 331.999 933.513 326.242C933.513 326.242 929.561 330.587 925.168 336.584C920.755 342.591 915.981 350.17 913.59 356.637L912.439 355.456Z" fill="#2B895F"/>
<path d="M918.673 360.301C918.673 360.301 916.372 357.538 940.548 333.391C940.548 333.391 936.475 336.494 931.502 341.35C926.529 346.185 920.685 352.773 916.642 359.21L918.673 360.301Z" fill="#2B895F"/>
<path d="M934.014 383.288C934.014 383.288 938.016 380.634 943.79 377.351C946.712 375.709 950.125 373.927 953.877 372.385C957.63 370.853 961.753 369.532 965.965 369.121C965.965 369.121 960.442 370.523 953.917 373.556C947.373 376.53 939.768 381.075 934.894 385.57L934.014 383.288Z" fill="#2B895F"/>
<path d="M935.695 387.543C935.695 387.543 937.966 387.543 943.16 386.241C948.333 384.859 956.879 382.427 968.417 375.339C968.417 375.339 967.426 376.13 965.675 377.301C963.934 378.482 961.442 380.034 958.34 381.626C952.196 384.839 943.93 387.793 936.265 389.325C936.265 389.325 936.155 388.884 936.045 388.434C935.905 387.993 935.695 387.543 935.695 387.543Z" fill="#2B895F"/>
<path d="M928.68 374.548C928.68 374.548 931.242 370.944 935.805 365.978C940.418 361.082 946.872 354.655 956.018 351.001C956.018 351.001 951.205 354.365 945.561 359.25C939.908 364.116 933.343 370.443 929.551 375.819L928.68 374.548Z" fill="#2B895F"/>
<path d="M933.103 380.204C933.103 380.204 932.793 379.463 936.215 376.63C939.648 373.817 946.682 368.671 961.522 360.201C961.522 360.201 956.759 362.083 950.725 365.497C944.671 368.881 937.346 373.807 931.592 378.782L933.103 380.204Z" fill="#2B895F"/>
<path d="M938.116 403.851C938.116 403.851 942.82 403.401 949.554 403.1C956.279 402.89 965.035 402.67 973 405.893C973 405.893 971.609 405.553 969.318 405.183C967.026 404.812 963.834 404.442 960.241 404.302C953.066 403.961 944.231 404.592 937.966 406.044L938.116 403.851Z" fill="#2B895F"/>
<path d="M937.656 407.956C937.656 407.956 939.567 408.947 944.801 410.349C947.423 411.029 950.875 411.82 955.358 412.421C959.851 413.012 965.385 413.422 972.249 412.962C972.249 412.962 967.176 413.933 960.321 413.712C953.447 413.572 944.881 412.04 937.366 409.658L937.656 407.956Z" fill="#2B895F"/>
<path d="M937.136 394.971C937.136 394.971 941.128 392.889 947.062 390.055C953.107 387.342 961.372 383.508 971.349 383.628C971.349 383.628 965.635 384.99 958.62 387.452C955.098 388.664 951.285 390.105 947.583 391.637C943.83 393.179 940.228 394.761 937.326 396.282L937.136 394.971Z" fill="#2B895F"/>
<path d="M938.727 401.068C938.727 401.068 938.777 400.397 943.1 399.376C947.433 398.395 955.999 396.683 973 395.171C973 395.171 967.827 394.851 960.912 395.452C953.967 396.002 945.411 397.514 937.996 399.376L938.727 401.068Z" fill="#2B895F"/>
<path d="M580.804 185.272C580.804 185.272 582.935 180.997 586.758 175.47C590.581 169.944 596.074 163.146 602.909 158.201C602.909 158.201 598.716 162.065 594.183 167.641C589.64 173.218 584.747 180.506 583.226 187.294L580.804 185.272Z" fill="#2B895F"/>
<path d="M590.681 193.501C590.681 193.501 592.762 192.55 596.545 188.675C600.327 184.801 605.841 178.023 612.596 166.27C612.596 166.27 610.504 170.815 606.952 176.692C603.399 182.558 598.376 189.737 592.592 195.093L590.681 193.501Z" fill="#2B895F"/>
<path d="M563.492 172.297C563.492 172.297 564.413 167.782 567.095 161.564C569.776 155.367 574.179 147.448 581.534 140.961C581.534 140.961 578.002 145.656 574.189 152.064C570.367 158.481 566.244 166.6 564.943 173.398L563.492 172.297Z" fill="#2B895F"/>
<path d="M570.917 176.722C570.917 176.722 567.905 174.019 588.739 146.928C588.739 146.928 585.147 150.582 580.854 156.028C576.561 161.474 571.568 168.733 568.596 175.791L570.917 176.722Z" fill="#2B895F"/>
<path d="M609.003 208.708C609.003 208.708 611.065 204.383 614.847 198.837C618.64 193.281 624.163 186.513 630.878 181.447C630.878 181.447 626.755 185.372 622.242 190.978C617.749 196.585 612.846 203.893 611.605 210.811C611.605 210.811 610.935 210.29 610.304 209.77C609.654 209.229 609.003 208.708 609.003 208.708Z" fill="#2B895F"/>
<path d="M613.987 212.633C613.987 212.633 616.088 211.652 619.71 207.627C623.353 203.623 628.456 196.514 634.901 184.631C634.901 184.631 632.889 189.186 629.587 195.193C626.265 201.19 621.662 208.678 616.098 214.255L613.987 212.633Z" fill="#2B895F"/>
<path d="M598.436 200.579C598.436 200.579 599.497 196.054 602.519 190.027C605.531 184 610.514 176.481 618.229 170.385C618.229 170.385 602.889 188.165 599.907 201.81L598.436 200.579Z" fill="#2B895F"/>
<path d="M606.101 205.615C606.101 205.615 602.879 202.571 624.824 176.381C624.824 176.381 621.121 179.915 616.598 185.181C612.085 190.457 606.762 197.465 603.689 204.513L606.101 205.615Z" fill="#2B895F"/>
<path d="M634.27 227.099C634.27 227.099 635.831 222.584 639.064 216.707C642.266 210.811 647.159 203.562 653.283 197.776C653.283 197.776 649.581 202.121 645.648 208.138C641.725 214.165 637.593 221.893 637.182 228.941L634.27 227.099Z" fill="#2B895F"/>
<path d="M639.754 230.573C639.754 230.573 641.735 229.392 644.897 224.997C648.08 220.622 652.352 212.983 657.506 200.439C657.506 200.439 655.975 205.184 653.343 211.541C650.691 217.889 646.959 225.868 642.045 232.005L639.754 230.573Z" fill="#2B895F"/>
<path d="M622.582 219.651C622.582 219.651 622.732 218.489 623.223 216.557C623.693 214.635 624.524 211.922 625.844 208.798C628.466 202.551 633.109 194.812 640.374 188.255C640.374 188.255 636.802 192.92 632.959 199.318C629.107 205.735 625.034 213.814 624.243 220.822L622.582 219.651Z" fill="#2B895F"/>
<path d="M630.938 224.286C630.938 224.286 627.356 221.393 647.019 193.431C647.019 193.431 643.647 197.275 639.594 202.902C635.541 208.538 630.808 215.947 628.396 223.315L630.938 224.286Z" fill="#2B895F"/>
<path d="M526.958 145.847C526.958 145.847 528.679 141.402 531.961 135.545C535.253 129.688 540.096 122.41 546.451 116.844C546.451 116.844 542.638 121.088 538.635 127.065C534.633 133.042 530.44 140.751 529.569 147.619L526.958 145.847Z" fill="#2B895F"/>
<path d="M531.901 149.17C531.901 149.17 533.872 148.009 537.265 143.784C540.647 139.549 545.46 132.261 550.994 119.897C550.994 119.897 549.383 124.632 546.431 130.819C543.479 137.017 539.186 144.655 533.962 150.562L531.901 149.17Z" fill="#2B895F"/>
<path d="M516.13 139.119C516.13 139.119 516.711 134.544 518.972 128.226C521.234 121.899 525.166 113.78 532.111 106.792C532.111 106.792 528.869 111.688 525.466 118.305C522.044 124.943 518.482 133.222 517.671 140.16L516.13 139.119Z" fill="#2B895F"/>
<path d="M523.955 143.153C523.955 143.153 520.693 140.58 539.596 112.108C539.596 112.108 536.274 116.002 532.371 121.739C528.468 127.475 523.975 135.054 521.554 142.352L523.955 143.153Z" fill="#2B895F"/>
<path d="M550.793 162.375C550.793 162.375 552.645 157.99 556.097 152.224C559.549 146.467 564.593 139.329 571.097 133.933C571.097 133.933 567.155 138.068 562.992 143.924C558.829 149.791 554.416 157.38 553.375 164.207L550.793 162.375Z" fill="#2B895F"/>
<path d="M555.657 165.829C555.657 165.829 557.668 164.728 561.16 160.593C564.663 156.449 569.666 149.29 575.54 137.086C575.54 137.086 573.799 141.772 570.667 147.869C567.565 153.966 563.022 161.524 557.678 167.261L555.657 165.829Z" fill="#2B895F"/>
<path d="M540.126 155.377C540.126 155.377 540.847 150.802 543.309 144.515C545.78 138.228 549.953 130.249 557.098 123.471C557.098 123.471 543.609 142.683 541.647 156.449L540.126 155.377Z" fill="#2B895F"/>
<path d="M547.862 159.612C547.862 159.612 544.659 156.959 564.373 129.037C564.373 129.037 560.94 132.842 556.878 138.458C552.805 144.075 548.112 151.523 545.48 158.741L547.862 159.612Z" fill="#2B895F"/>
<path d="M576.021 181.908C576.021 181.908 577.051 177.473 579.913 171.406C582.775 165.339 587.428 157.61 595.034 151.323C595.034 151.323 591.341 155.888 587.328 162.155C583.296 168.442 578.943 176.301 577.462 183.069C577.462 183.069 577.101 182.769 576.741 182.478C576.381 182.168 576.021 181.908 576.021 181.908Z" fill="#2B895F"/>
<path d="M588.889 191.278C588.889 191.278 585.907 188.385 607.742 162.095C607.742 162.095 604.03 165.619 599.537 170.905C595.034 176.191 589.77 183.239 586.588 190.237L588.889 191.278Z" fill="#2B895F"/>
<path d="M661.559 242.627C661.559 242.627 662.64 237.972 665.191 231.755C667.743 225.538 671.776 217.789 677.249 211.381C677.249 211.381 674.047 216.097 670.795 222.514C667.563 228.941 664.301 237.081 664.601 244.129L661.559 242.627Z" fill="#2B895F"/>
<path d="M667.293 245.48C667.293 245.48 669.134 244.089 671.816 239.403C674.528 234.718 678 226.689 681.793 213.654C681.793 213.654 680.782 218.549 678.821 225.157C676.839 231.764 673.947 239.994 669.694 246.671L667.293 245.48Z" fill="#2B895F"/>
<path d="M649.18 236.58C649.18 236.58 649.29 231.875 651.172 225.417C653.043 218.94 656.776 210.761 663.26 203.372C663.26 203.372 660.248 208.418 657.166 215.186C654.084 221.953 650.962 230.483 650.942 237.571L649.18 236.58Z" fill="#2B895F"/>
<path d="M657.986 240.204C657.986 240.204 657.016 239.634 658.066 235.299C659.117 230.954 662.289 222.804 670.435 207.807C670.435 207.807 667.533 212.002 664.14 218.059C660.768 224.116 656.896 232.035 655.334 239.634L657.986 240.204Z" fill="#2B895F"/>
<path d="M689.718 255.261C689.718 255.261 690.438 250.566 692.48 244.179C694.511 237.792 697.873 229.722 702.887 222.885C702.887 222.885 700.045 227.84 697.323 234.498C694.611 241.165 692.039 249.535 692.82 256.443L689.718 255.261Z" fill="#2B895F"/>
<path d="M695.572 257.494C695.572 257.494 697.293 255.942 699.645 251.057C702.016 246.181 704.978 237.962 707.75 224.727C707.75 224.727 707.15 229.662 705.659 236.36C704.158 243.047 701.796 251.497 698.023 258.425L695.572 257.494Z" fill="#2B895F"/>
<path d="M677.099 250.426C677.099 250.426 676.809 245.761 678.07 239.153C679.311 232.535 682.173 224.006 687.937 216.027C687.937 216.027 685.445 221.343 683.023 228.381C680.622 235.429 678.34 244.219 678.921 251.227L677.099 250.426Z" fill="#2B895F"/>
<path d="M686.025 253.249C686.025 253.249 682.053 251.157 695.652 219.801C695.652 219.801 693.12 224.236 690.278 230.573C687.456 236.911 684.314 245.14 683.384 252.829L686.025 253.249Z" fill="#2B895F"/>
<path d="M718.207 265.954C718.207 265.954 718.697 261.218 720.389 254.731C722.07 248.244 724.972 239.994 729.625 232.916C729.625 232.916 727.043 238.012 724.701 244.81C722.35 251.607 720.238 260.107 721.339 266.965L718.207 265.954Z" fill="#2B895F"/>
<path d="M724.111 267.856C724.111 267.856 725.732 266.224 727.854 261.228C729.975 256.233 732.557 247.893 734.648 234.528C734.648 234.528 734.298 239.493 733.147 246.251C731.976 253.009 729.995 261.549 726.563 268.657L724.111 267.856Z" fill="#2B895F"/>
<path d="M705.529 261.749C705.529 261.749 704.978 257.103 705.829 250.416C706.659 243.718 708.931 234.988 714.174 226.689C714.174 226.689 712.023 232.155 710.082 239.343C708.14 246.541 706.409 255.472 707.36 262.44L705.529 261.749Z" fill="#2B895F"/>
<path d="M714.465 264.062C714.465 264.062 710.452 262.209 722.2 230.113C722.2 230.113 719.918 234.688 717.467 241.175C715.015 247.663 712.373 256.062 711.853 263.791L714.465 264.062Z" fill="#2B895F"/>
<path d="M746.867 275.214C746.867 275.214 747.197 270.429 748.658 263.871C750.119 257.304 752.721 248.964 757.094 241.796C757.094 241.796 754.702 246.952 752.601 253.84C750.489 260.718 748.678 269.318 749.989 276.235L746.867 275.214Z" fill="#2B895F"/>
<path d="M752.681 277.096C752.681 277.096 754.202 275.435 756.173 270.389C758.124 265.353 760.556 256.953 762.167 243.428C762.167 243.428 762.027 248.464 761.056 255.282C760.076 262.099 758.264 270.699 755.042 277.867L752.681 277.096Z" fill="#2B895F"/>
<path d="M734.138 271.57C734.138 271.57 733.408 266.975 733.958 260.267C734.498 253.55 736.35 244.729 741.223 236.19C741.223 236.19 739.322 241.746 737.711 249.014C736.089 256.283 734.758 265.273 735.969 272.161L734.138 271.57Z" fill="#2B895F"/>
<path d="M743.104 273.402C743.104 273.402 739.061 271.77 749.518 239.223C749.518 239.223 747.417 243.888 745.215 250.466C743.014 257.043 740.732 265.543 740.492 273.252L743.104 273.402Z" fill="#2B895F"/>
<path d="M774.505 284.205C774.505 284.205 774.986 279.469 776.587 272.952C778.198 266.434 780.92 258.125 785.563 251.047C785.563 251.047 783.011 256.162 780.75 262.99C778.478 269.818 776.507 278.368 777.487 285.186L774.505 284.205Z" fill="#2B895F"/>
<path d="M780.159 286.047C780.159 286.047 781.76 284.395 783.892 279.419C786.023 274.433 788.735 266.134 790.786 252.749C790.786 252.749 790.496 257.734 789.285 264.482C788.095 271.23 785.983 279.729 782.511 286.817L780.159 286.047Z" fill="#2B895F"/>
<path d="M762.307 280.7C762.307 280.7 761.647 276.115 762.127 269.388C762.617 262.65 764.218 253.76 769.022 245.2C769.022 245.2 767.22 250.776 765.709 258.095C764.198 265.403 762.968 274.433 764.058 281.281L762.307 280.7Z" fill="#2B895F"/>
<path d="M770.903 282.442C770.903 282.442 767.09 280.871 777.658 248.364C777.658 248.364 775.506 253.009 773.285 259.586C771.063 266.164 768.772 274.664 768.381 282.332L770.903 282.442Z" fill="#2B895F"/>
<path d="M319.837 48.7456C319.837 48.7456 319.967 43.9902 321.048 37.3626C322.138 30.7451 324.18 22.2454 328.293 14.8269C328.293 14.8269 326.131 20.1129 324.42 27.1009C322.689 34.0889 321.398 42.7588 322.859 49.4665L319.837 48.7456Z" fill="#2B895F"/>
<path d="M325.511 50.1673C325.511 50.1673 326.962 48.4353 328.733 43.3195C330.494 38.2036 332.636 29.7339 333.686 16.1584C333.686 16.1584 333.756 21.1942 333.046 28.042C332.335 34.8798 330.814 43.5297 327.872 50.828L325.511 50.1673Z" fill="#2B895F"/>
<path d="M307.559 46.2728C307.559 46.2728 306.538 41.7477 306.408 35.07C306.288 28.3624 307.038 19.3721 311.071 10.3618C311.071 10.3618 309.79 16.0984 308.959 23.4968C308.129 30.8752 307.729 39.9356 309.34 46.7033L307.559 46.2728Z" fill="#2B895F"/>
<path d="M316.154 47.2941C316.154 47.2941 312.302 46.0426 320.087 12.7646C320.087 12.7646 318.326 17.5701 316.665 24.3078C315.004 31.0455 313.453 39.7054 313.663 47.3842L316.154 47.2941Z" fill="#2B895F"/>
<path d="M347.295 56.4445C347.295 56.4445 347.686 51.6891 349.147 45.1216C350.608 38.5641 353.129 30.1945 357.622 23.0464C357.622 23.0464 355.181 28.2023 353.079 35.0801C350.968 41.948 349.187 50.5578 350.257 57.3856L347.295 56.4445Z" fill="#2B895F"/>
<path d="M352.889 58.2265C352.889 58.2265 354.44 56.5546 356.492 51.5389C358.533 46.5232 361.125 38.1836 362.916 24.7283C362.916 24.7283 362.716 29.734 361.635 36.5117C360.555 43.2895 358.573 51.8192 355.231 58.9574L352.889 58.2265Z" fill="#2B895F"/>
<path d="M335.147 53.3209C335.147 53.3209 334.367 48.7957 334.627 42.068C334.897 35.3403 336.178 26.3901 340.701 17.6602C340.701 17.6602 339.09 23.3066 337.839 30.655C336.588 38.0034 335.658 47.0537 336.918 53.8214L335.147 53.3209Z" fill="#2B895F"/>
<path d="M343.713 54.7125C343.713 54.7125 342.772 54.312 343.033 49.8569C343.293 45.4119 344.734 36.8621 349.577 20.4734C349.577 20.4734 347.546 25.1888 345.504 31.8163C343.463 38.4439 341.422 47.0037 341.221 54.6424C341.221 54.6424 341.852 54.6224 342.472 54.6624C343.093 54.6925 343.713 54.7125 343.713 54.7125Z" fill="#2B895F"/>
<path d="M374.364 65.6148C374.364 65.6148 374.994 60.8994 376.795 54.4321C378.597 47.9647 381.549 39.7353 386.432 32.8074C386.432 32.8074 383.72 37.8431 381.248 44.6008C378.787 51.3586 376.555 59.8382 377.286 66.666L374.364 65.6148Z" fill="#2B895F"/>
<path d="M379.878 67.6473C379.878 67.6473 381.509 66.0855 383.82 61.1799C386.112 56.2844 389.144 48.085 391.636 34.7097C391.636 34.7097 391.175 39.7254 389.734 46.4431C388.303 53.1708 385.872 61.6104 382.169 68.5383L379.878 67.6473Z" fill="#2B895F"/>
<path d="M362.386 61.8106C362.386 61.8106 361.866 57.1853 362.486 50.5077C363.116 43.83 364.868 34.9799 369.881 26.4802C369.881 26.4802 367.97 32.0366 366.309 39.2949C364.657 46.5231 363.226 55.5634 364.107 62.4313L362.386 61.8106Z" fill="#2B895F"/>
<path d="M370.842 63.7527C370.842 63.7527 367.119 62.0908 378.527 29.874C378.527 29.874 376.245 34.4593 373.854 40.9767C371.452 47.4841 368.96 55.9338 368.35 63.5825L370.842 63.7527Z" fill="#2B895F"/>
<path d="M400.962 76.197C400.962 76.197 401.832 71.5016 403.954 65.1143C406.075 58.7371 409.438 50.6679 414.631 44.0203C414.631 44.0203 411.679 48.8958 408.887 55.5234C406.085 62.151 403.434 70.5305 403.824 77.4384L400.962 76.197Z" fill="#2B895F"/>
<path d="M406.376 78.5496C406.376 78.5496 408.087 77.0478 410.629 72.2724C413.17 67.4869 416.573 59.4377 419.705 46.2327C419.705 46.2327 419.004 51.1983 417.243 57.8359C415.492 64.4735 412.67 72.783 408.627 79.5407L406.376 78.5496Z" fill="#2B895F"/>
<path d="M389.154 71.8119C389.154 71.8119 388.854 67.2267 389.814 60.5591C390.785 53.8915 393.007 45.1315 398.43 36.9321C398.43 36.9321 396.229 42.3783 394.207 49.5465C392.186 56.7147 390.305 65.6149 390.865 72.4827L389.154 71.8119Z" fill="#2B895F"/>
<path d="M397.56 74.0947C397.56 74.0947 396.659 73.5841 397.369 69.2091C398.09 64.8141 400.401 56.4545 406.926 40.6665C406.926 40.6665 404.414 45.1416 401.702 51.5289C398.981 57.9162 396.059 66.2157 395.078 73.7943C395.078 73.7943 395.698 73.8644 396.329 73.9345C396.949 74.0146 397.56 74.0947 397.56 74.0947Z" fill="#2B895F"/>
<path d="M427.11 88.0606C427.11 88.0606 428.18 83.4153 430.582 77.1482C432.984 70.871 436.706 62.972 442.21 56.5347C442.21 56.5347 439.038 61.2801 435.956 67.7775C432.854 74.2749 429.831 82.5143 429.942 89.4022L427.11 88.0606Z" fill="#2B895F"/>
<path d="M432.443 90.6034C432.443 90.6034 434.225 89.1718 436.976 84.4964C439.728 79.8211 443.471 71.9321 447.183 58.9072C447.183 58.9072 446.263 63.8228 444.221 70.3603C442.18 76.9078 438.998 85.0671 434.665 91.6546L432.443 90.6034Z" fill="#2B895F"/>
<path d="M415.532 83.0247C415.532 83.0247 415.422 78.4595 416.692 71.852C417.973 65.2645 420.605 56.6246 426.419 48.6655C426.419 48.6655 423.957 54.0016 421.606 61.0597C419.234 68.1478 416.983 76.8477 417.203 83.8157L415.532 83.0247Z" fill="#2B895F"/>
<path d="M423.787 85.848C423.787 85.848 420.225 83.7957 434.685 52.8303C434.685 52.8303 431.983 57.1753 428.981 63.4324C425.969 69.6896 422.667 77.8489 421.326 85.4175L423.787 85.848Z" fill="#2B895F"/>
<path d="M452.807 100.995C452.807 100.995 454.068 96.4101 456.73 90.2531C459.392 84.0961 463.444 76.3472 469.208 70.1401C469.208 70.1401 465.846 74.7554 462.484 81.1127C459.111 87.4699 455.759 95.5592 455.589 102.447L452.807 100.995Z" fill="#2B895F"/>
<path d="M458.021 103.808C458.021 103.808 459.852 102.467 462.794 97.9217C465.726 93.3765 469.789 85.6376 474.062 72.7329C474.062 72.7329 472.931 77.6285 470.609 84.1059C468.298 90.5833 464.775 98.6225 460.192 105.01L458.021 103.808Z" fill="#2B895F"/>
<path d="M441.359 95.5891C441.359 95.5891 441.459 90.9739 443.03 84.4064C444.612 77.8389 447.624 69.3191 453.758 61.6504C453.758 61.6504 451.076 66.8763 448.404 73.8443C445.732 80.8123 443.061 89.5122 443 96.4401L441.359 95.5891Z" fill="#2B895F"/>
<path d="M449.545 98.6927C449.545 98.6927 446.053 96.5202 461.803 66.1956C461.803 66.1956 458.921 70.4304 455.649 76.5474C452.377 82.6644 448.724 90.6735 447.083 98.1621L449.545 98.6927Z" fill="#2B895F"/>
<path d="M477.994 115.041C477.994 115.041 479.445 110.486 482.337 104.419C485.239 98.3523 489.582 90.7837 495.566 84.8169C495.566 84.8169 492.034 89.292 488.431 95.5191C484.829 101.746 481.146 109.725 480.696 116.643L477.994 115.041Z" fill="#2B895F"/>
<path d="M483.088 118.085C483.088 118.085 484.979 116.813 488.081 112.378C491.183 107.943 495.526 100.355 500.269 87.6401C500.269 87.6401 498.948 92.4757 496.397 98.853C493.845 105.23 490.042 113.139 485.209 119.356L483.088 118.085Z" fill="#2B895F"/>
<path d="M466.747 109.175C466.747 109.175 467.017 104.579 468.838 98.0921C470.669 91.6047 474.032 83.2251 480.466 75.7966C480.466 75.7966 477.584 80.9025 474.642 87.7503C471.69 94.5981 468.678 103.188 468.368 110.076L466.747 109.175Z" fill="#2B895F"/>
<path d="M474.852 112.529C474.852 112.529 471.42 110.256 488.351 80.572C488.351 80.572 485.289 84.6867 481.787 90.6836C478.284 96.6704 474.322 104.529 472.39 111.938L474.852 112.529Z" fill="#2B895F"/>
<path d="M502.691 130.038C502.691 130.038 504.282 125.543 507.394 119.576C510.496 113.62 515.109 106.191 521.284 100.445C521.284 100.445 517.601 104.8 513.788 110.897C509.966 116.993 506.013 124.832 505.353 131.73L502.691 130.038Z" fill="#2B895F"/>
<path d="M507.714 133.232C507.714 133.232 509.656 132.021 512.908 127.686C516.16 123.351 520.753 115.922 525.917 103.378C525.917 103.378 524.436 108.163 521.674 114.441C518.902 120.728 514.849 128.497 509.806 134.554L507.714 133.232Z" fill="#2B895F"/>
<path d="M491.664 123.711C491.664 123.711 492.094 119.136 494.155 112.729C496.207 106.331 499.879 98.072 506.574 90.8738C506.574 90.8738 503.502 95.8795 500.319 102.607C497.127 109.345 493.805 117.795 493.265 124.672L491.664 123.711Z" fill="#2B895F"/>
<path d="M499.629 127.425C499.629 127.425 496.307 124.943 514.299 95.8894C514.299 95.8894 511.107 99.884 507.384 105.751C503.662 111.607 499.429 119.316 497.217 126.705L499.629 127.425Z" fill="#2B895F"/>
<path d="M90.0009 54.0016C90.0009 54.0016 87.5593 49.9369 84.7774 43.8099C82.0355 37.6829 78.9334 29.5036 78.4031 21.0239C78.4031 21.0239 79.4738 26.6403 81.9055 33.4081C84.3271 40.1858 88.0596 48.1149 92.7628 53.0405L90.0009 54.0016Z" fill="#2B895F"/>
<path d="M101.419 50.3876C101.419 50.3876 101.739 48.1551 100.688 42.849C99.6176 37.553 97.266 29.1234 91.2119 16.9495C91.2119 16.9495 93.8937 21.2243 96.7156 27.4815C99.5676 33.7386 102.53 41.9881 103.67 49.7769L101.419 50.3876Z" fill="#2B895F"/>
<path d="M72.0189 62.2009C72.0189 62.2009 68.5766 59.3677 64.0635 54.372C59.6105 49.3463 53.9166 42.2682 51.1047 32.8074C51.1047 32.8074 53.9767 37.9232 58.2996 44.0102C62.6326 50.1271 68.2163 57.1552 73.4899 61.4701L72.0189 62.2009Z" fill="#2B895F"/>
<path d="M78.5932 57.906C78.5932 57.916 75.2009 59.1174 60.3608 28.3223C60.3608 28.3223 61.9419 33.2179 64.9039 39.495C67.8359 45.7922 72.1088 53.451 76.882 59.4278L78.5932 57.906Z" fill="#2B895F"/>
<path d="M122.843 45.3419C122.843 45.3419 120.952 40.9769 119.111 34.5095C117.29 28.0421 115.488 19.4924 116.099 11.0327C116.099 11.0327 116.379 16.7392 117.8 23.7973C119.211 30.8553 121.723 39.2449 125.865 44.7612L122.843 45.3419Z" fill="#2B895F"/>
<path d="M128.537 44.2606C128.537 44.2606 129.118 42.0581 128.577 36.6819C128.017 31.2958 126.396 22.706 121.623 9.99146C121.623 9.99146 123.814 14.5066 126.046 21.004C128.277 27.4914 130.529 35.9711 130.939 43.8401L128.537 44.2606Z" fill="#2B895F"/>
<path d="M110.965 48.3752C110.965 48.3752 108.133 44.7811 105.061 38.8043C102.009 32.8175 98.5968 24.4279 98.2566 14.5967C98.2566 14.5967 99.6575 20.2932 102.209 27.3012C104.761 34.3092 108.383 42.6087 112.686 47.9648L110.965 48.3752Z" fill="#2B895F"/>
<path d="M118.951 45.5421C118.951 45.5421 115.028 46.0727 107.653 12.6946C107.653 12.6946 108.133 17.8004 109.544 24.5882C110.955 31.3759 113.327 39.8656 116.789 46.6934L118.951 45.5421Z" fill="#2B895F"/>
<path d="M151.112 40.6464C151.112 40.6464 144.188 22.8561 146.019 6.06689C146.019 6.06689 146.189 28.8829 154.295 40.1758L151.112 40.6464Z" fill="#2B895F"/>
<path d="M157.147 39.7555C157.147 39.7555 157.837 37.573 157.447 32.1668C157.057 26.7707 155.566 18.1508 151.303 5.27612C151.303 5.27612 153.284 9.87137 155.335 16.4189C157.377 22.9763 159.498 31.4961 159.678 39.365L157.147 39.7555Z" fill="#2B895F"/>
<path d="M138.584 43.0092C138.584 43.0092 135.962 39.2149 133.37 33.0078C130.789 26.7907 128.177 18.1408 128.617 8.30957C128.617 8.30957 129.538 14.1162 131.479 21.3044C133.42 28.4926 136.392 37.0924 140.395 42.7088L138.584 43.0092Z" fill="#2B895F"/>
<path d="M147.05 40.6865C147.05 40.6865 142.907 40.9868 137.803 7.19824C137.803 7.19824 137.964 12.3241 138.924 19.1919C139.875 26.0698 141.636 34.6896 144.728 41.7177L147.05 40.6865Z" fill="#2B895F"/>
<path d="M43.9498 85.7278C43.9498 85.7278 39.6168 83.8657 33.6528 80.7621C27.7288 77.5985 20.1136 73.2936 14.6699 66.636C14.6699 66.636 18.8928 70.5204 24.9769 74.3448C31.061 78.2292 38.8663 82.0636 45.3207 83.6955C45.3207 83.6955 44.9405 84.176 44.6002 84.6866C44.28 85.2172 43.9498 85.7278 43.9498 85.7278Z" fill="#2B895F"/>
<path d="M46.6215 81.9536C46.6215 81.9536 45.4307 80.0815 41.488 76.4173C39.4967 74.5852 36.8049 72.3026 33.0923 69.6696C29.3698 67.0466 24.6566 64.0832 18.5024 61.2C18.5024 61.2 23.2857 62.7918 29.2998 66.2457C35.3239 69.6296 42.3586 74.8355 47.8523 80.4419C47.8523 80.4419 46.5815 81.9336 46.6215 81.9536Z" fill="#2B895F"/>
<path d="M39.7169 94.5779C39.7169 94.5779 35.374 94.3877 28.6894 93.4667C22.0649 92.4455 13.0488 91.0239 4.82324 85.5476C4.82324 85.5476 10.347 87.5399 17.5919 89.342C24.8768 91.1841 33.6328 92.866 40.3273 93.2764L39.7169 94.5779Z" fill="#2B895F"/>
<path d="M41.8383 88.0705C41.8383 88.0705 41.408 88.7012 37.1651 87.3897C32.9322 86.0482 24.7467 83.0247 9.49634 75.376C9.49634 75.376 13.7292 78.3293 19.9134 81.4629C26.1076 84.6466 34.1831 87.9303 41.5081 90.0527L41.8383 88.0705Z" fill="#2B895F"/>
<path d="M59.9907 69.149C59.9907 69.149 56.5383 65.9253 52.0853 60.8996C47.6623 55.8438 42.1586 49.046 39.3267 40.9668C39.3267 40.9668 41.9384 46.0726 46.2614 51.8192C50.5743 57.6058 56.4683 63.9931 62.1622 67.6272C62.1622 67.6272 61.6018 67.9977 61.0514 68.3781C60.511 68.7485 59.9907 69.149 59.9907 69.149Z" fill="#2B895F"/>
<path d="M64.1236 66.2856C64.1236 66.2856 63.7033 64.1031 61.1615 59.3376C58.5698 54.6222 54.0167 47.0736 44.5002 37.3625C44.5002 37.3625 48.4129 40.5362 52.946 45.7521C57.5091 50.918 62.5825 58.0562 65.9348 65.1643C65.9348 65.1643 65.4745 65.4446 65.0142 65.7149C64.5639 65.9852 64.1236 66.2856 64.1236 66.2856Z" fill="#2B895F"/>
<path d="M52.3254 76.187C52.3254 76.187 48.3427 74.3649 42.5488 70.941C36.8049 67.437 29.1297 62.6315 23.616 54.3721C23.616 54.3721 27.9289 58.3466 33.9029 62.8217C39.917 67.3369 47.3321 72.3426 53.4262 75.1758L52.3254 76.187Z" fill="#2B895F"/>
<path d="M56.9986 70.7107C56.9986 70.7107 56.3181 71.1713 52.8357 68.4181C49.3834 65.6349 42.929 59.7883 31.6614 46.9436C31.6614 46.9436 34.4833 51.2585 39.0364 56.4945C43.5795 61.7605 49.8037 67.9075 55.8778 72.5228L56.9986 70.7107Z" fill="#2B895F"/>
<path d="M85.1376 56.2743C85.1376 56.2743 81.9255 53.0506 78.0428 47.5944C74.1902 42.1081 69.477 34.3593 67.7659 24.6482C67.7659 24.6482 69.9974 30.0744 73.5498 36.6319C77.0922 43.1794 81.8654 50.8882 86.7187 55.6736L85.1376 56.2743Z" fill="#2B895F"/>
<path d="M98.737 50.5878C98.737 50.5878 95.0045 51.3787 84.6775 18.8215C84.6775 18.8215 85.5881 23.8673 87.6195 30.5049C89.6309 37.1425 92.773 45.3718 96.7357 51.8793L98.737 50.5878Z" fill="#2B895F"/>
<path d="M179.502 37.0224C179.502 37.0224 178.051 32.5072 176.85 25.9097C175.669 19.3122 174.729 10.6222 176.15 2.22266C176.15 2.22266 175.879 7.93919 176.6 15.0974C177.31 22.2555 178.991 30.8553 182.544 36.652L179.502 37.0224Z" fill="#2B895F"/>
<path d="M185.256 36.4816C185.256 36.4816 186.036 34.3692 186.036 28.963C186.006 23.5669 185.256 14.8469 181.753 1.67188C181.753 1.67188 183.504 6.40728 185.075 13.1149C186.667 19.8226 188.047 28.5025 187.677 36.3415L185.256 36.4816Z" fill="#2B895F"/>
<path d="M167.294 38.9145C167.294 38.9145 164.812 35.0301 162.37 28.7129C159.949 22.3957 157.507 13.6757 158.207 3.89453C158.207 3.89453 158.988 9.71117 160.769 16.9695C162.55 24.2277 165.302 32.9277 169.085 38.7043L167.294 38.9145Z" fill="#2B895F"/>
<path d="M175.599 36.9221C175.599 36.9221 171.616 37.0723 167.624 3.12354C167.624 3.12354 167.594 8.24939 168.324 15.1573C169.045 22.0552 170.546 30.7351 173.318 37.8632L175.599 36.9221Z" fill="#2B895F"/>
<path d="M207.621 35.33C207.621 35.33 206.51 30.6647 205.82 23.9771C205.139 17.3295 204.849 8.51942 206.89 0.370117C206.89 0.370117 206.19 6.01657 206.37 13.2048C206.54 20.403 207.571 29.143 210.703 35.3501L207.621 35.33Z" fill="#2B895F"/>
<path d="M213.425 35.3698C213.425 35.3698 214.365 33.3175 214.756 27.9213C215.136 22.5252 215.026 13.7852 212.504 0.419922C212.504 0.419922 213.905 5.25545 214.976 12.0532C216.057 18.841 216.807 27.5909 215.846 35.3999L213.425 35.3698Z" fill="#2B895F"/>
<path d="M195.272 36.3807C195.272 36.3807 193.091 32.3461 191.16 25.8887C189.238 19.4313 187.487 10.5512 188.938 0.830078C188.938 0.830078 189.268 6.68677 190.469 14.0452C191.68 21.4136 193.741 30.2737 197.074 36.2806L195.272 36.3807Z" fill="#2B895F"/>
<path d="M203.728 34.899C203.728 34.899 199.735 34.8089 198.355 0.649902C198.355 0.649902 197.934 5.76575 198.134 12.7037C198.334 19.6416 199.155 28.4016 201.377 35.6899L203.728 34.899Z" fill="#2B895F"/>
<path d="M235.83 35.871C235.83 35.871 235.059 31.1557 234.849 24.438C234.659 17.7103 235.009 8.98034 237.651 0.961182C237.651 0.961182 236.54 6.54756 236.2 13.7358C235.84 20.924 236.23 29.704 238.902 36.0813L235.83 35.871Z" fill="#2B895F"/>
<path d="M241.614 36.2614C241.614 36.2614 242.694 34.2691 243.495 28.913C244.266 23.5569 244.796 14.8269 243.255 1.34155C243.255 1.34155 244.296 6.25717 244.876 13.095C245.456 19.9428 245.556 28.7028 244.035 36.4316L241.614 36.2614Z" fill="#2B895F"/>
<path d="M223.432 35.871C223.432 35.871 221.56 31.7162 220.089 25.1487C218.648 18.5812 217.558 9.61097 219.719 0C219.719 0 219.609 5.86669 220.269 13.2852C220.93 20.7136 222.341 29.6839 225.233 35.881L223.432 35.871Z" fill="#2B895F"/>
<path d="M231.977 35.0395C231.977 35.0395 230.977 34.8893 230.126 30.4742C229.286 26.0992 228.535 17.4894 229.115 0.399902C229.115 0.399902 228.325 5.4757 228.015 12.4136C227.704 19.3415 227.885 28.1416 229.576 35.56L231.977 35.0395Z" fill="#2B895F"/>
<path d="M263.979 38.3036C263.979 38.3036 263.539 33.5682 263.799 26.8606C264.089 20.1529 265.07 11.463 268.252 3.61401C268.252 3.61401 266.751 9.1203 265.9 16.2685C265.03 23.4066 264.8 32.1866 267.041 38.664L263.979 38.3036Z" fill="#2B895F"/>
<path d="M269.773 38.9945C269.773 38.9945 271.004 37.0523 272.155 31.7863C273.285 26.5203 274.406 17.7903 273.806 4.2749C273.806 4.2749 274.506 9.19052 274.606 16.0984C274.716 22.9863 274.226 31.7563 272.185 39.3449C272.185 39.3449 271.584 39.2448 270.984 39.1547C270.373 39.0546 269.773 38.9945 269.773 38.9945Z" fill="#2B895F"/>
<path d="M251.561 37.3627C251.561 37.3627 249.999 33.0978 249.019 26.4602C248.068 19.8327 247.638 10.8124 250.51 1.36157C250.51 1.36157 249.959 7.20824 250.08 14.6467C250.19 22.0952 250.94 31.1055 253.372 37.4828C253.372 37.4828 252.921 37.4327 252.461 37.4127C252.011 37.3927 251.561 37.3627 251.561 37.3627Z" fill="#2B895F"/>
<path d="M260.166 37.2926C260.166 37.2926 256.204 36.5017 259.826 2.51294C259.826 2.51294 258.675 7.49863 257.855 14.3865C257.034 21.2744 256.564 30.0744 257.725 37.6731L260.166 37.2926Z" fill="#2B895F"/>
<path d="M292.028 42.6588C292.028 42.6588 291.878 37.8833 292.579 31.1957C293.289 24.5081 294.81 15.9082 298.473 8.29956C298.473 8.29956 296.631 13.6957 295.33 20.7738C294.02 27.8419 293.239 36.6019 295.07 43.2695L292.028 42.6588Z" fill="#2B895F"/>
<path d="M297.772 43.7999C297.772 43.7999 299.123 41.9678 300.594 36.7519C302.055 31.5359 303.696 22.9561 303.946 9.38062C303.946 9.38062 304.326 14.3763 304.016 21.2342C303.706 28.092 302.685 36.8019 300.174 44.2705L297.772 43.7999Z" fill="#2B895F"/>
<path d="M279.66 40.9867C279.66 40.9867 278.359 36.5817 277.828 29.854C277.308 23.1363 277.508 14.086 280.981 4.89551C280.981 4.89551 280.05 10.6921 279.67 18.1406C279.289 25.5891 279.429 34.6895 281.451 41.277L279.66 40.9867Z" fill="#2B895F"/>
<path d="M288.296 41.3373C288.296 41.3373 284.373 40.3962 290.147 6.70776C290.147 6.70776 288.676 11.6234 287.415 18.4512C286.164 25.269 285.133 34.0089 285.814 41.6176L288.296 41.3373Z" fill="#2B895F"/>
</svg>
