<svg width="307" height="461" viewBox="0 0 307 461" fill="none" xmlns="http://www.w3.org/2000/svg">
<path d="M174.249 237.22C174.11 237.766 173.912 238.296 173.659 238.8C173.62 238.753 173.589 238.698 173.569 238.64C170.499 233.26 168.919 230.51 166.859 228.13C165.389 226.45 164.859 226.13 162.419 223.32C161.729 222.54 161.119 221.8 160.489 221.07C159.569 220 158.619 218.92 157.359 217.63C154.009 214.18 153.209 214.05 152.669 214.08C150.349 214.21 149.019 217.71 147.859 217.25C147.339 217.03 147.649 216.33 146.739 215.01C146.133 214.286 145.464 213.616 144.739 213.01C144.749 212.004 144.659 210.999 144.469 210.01C144.093 208.003 143.865 205.971 143.789 203.93C143.339 197.35 144.099 195.7 145.149 195C146.039 194.4 147.339 194.37 147.449 193.65C147.519 193.14 146.889 192.97 146.769 192.16C146.649 191.35 147.149 191.16 147.579 189.73C147.799 189.087 147.89 188.408 147.849 187.73C147.705 187.053 147.43 186.411 147.039 185.84C146.259 184.19 146.989 183.33 146.639 180.7C146.511 179.782 146.297 178.878 145.999 178C145.909 177.85 145.809 177.7 145.709 177.55C145.91 177.253 146.172 177.004 146.479 176.82C147.399 176.32 147.979 176.91 149.879 176.36C150.759 176.1 151.049 175.86 151.649 175.98C152.439 176.14 152.559 176.71 153.349 176.9C154.139 177.09 154.559 176.67 155.349 176.52C155.619 176.52 156.229 176.4 159.129 177.91C162.369 179.6 163.049 180.44 163.439 181.15C163.589 181.42 163.72 181.701 163.829 181.99C163.65 182.365 163.443 182.726 163.209 183.07C162.309 184.4 161.669 184.47 161.209 185.16C160.159 186.7 162.159 188.16 161.439 191.09C161.139 192.34 160.649 192.6 160.749 193.64C160.915 194.628 161.283 195.571 161.829 196.41C161.829 196.41 161.889 196.78 161.949 197.22C162.009 197.66 162.099 198.16 162.129 198.41C162.479 200.88 161.839 201.18 162.209 202.66C162.579 204.14 163.359 203.99 164.059 205.98C164.438 207.069 164.62 208.217 164.599 209.37C164.599 211.18 163.969 211.75 164.369 212.68C164.769 213.61 165.599 213.68 166.529 214.3C169.839 216.45 170.339 222.42 170.469 223.94C170.488 225.188 170.75 226.421 171.239 227.57C171.629 228.397 172.119 229.173 172.699 229.88C174.122 232.044 174.676 234.665 174.249 237.22Z" fill="black"/>
<path d="M147.629 189.7C147.199 191.16 146.699 191.37 146.819 192.13C146.939 192.89 147.569 193.13 147.499 193.62C147.389 194.34 146.089 194.37 145.199 194.97C144.199 195.67 143.389 197.32 143.839 203.9C143.915 205.941 144.143 207.973 144.519 209.98C144.709 210.969 144.799 211.974 144.789 212.98L144.419 212.65L144.489 212.72C144.012 212.712 143.536 212.659 143.069 212.56C142.232 212.465 141.443 212.116 140.809 211.56C139.809 210.43 140.589 208.96 139.809 208.49C139.029 208.02 137.169 209.3 136.129 210.33C136.044 210.408 135.964 210.492 135.889 210.58C135.807 210.662 135.73 210.748 135.659 210.84C135.509 211 135.379 211.17 135.239 211.34C135.001 211.661 134.781 211.995 134.579 212.34L134.419 212.63C134.233 212.95 134.073 213.285 133.939 213.63C133.819 213.91 133.699 214.18 133.599 214.43C133.499 214.68 133.369 215.02 133.259 215.28C133.149 215.54 132.999 215.88 132.859 216.16L132.659 216.56C132.403 217.027 132.119 217.477 131.809 217.91C131.754 217.997 131.694 218.08 131.629 218.16C131.509 218.34 131.369 218.5 131.239 218.67L130.899 219.07C130.409 219.62 129.899 220.12 129.389 220.61L129.049 220.94L128.359 221.6C128.029 221.91 127.709 222.24 127.359 222.6C126.131 223.933 125.07 225.41 124.199 227L124.019 227.33L123.789 227.76C123.679 227.96 123.589 228.15 123.489 228.34C123.049 227.291 122.811 226.168 122.789 225.03C122.772 221.766 123.921 218.602 126.029 216.11C127.649 214.23 129.419 213.37 129.419 211.51C129.419 210.08 128.349 209.18 128.879 207.99C129.239 207.17 129.879 207.35 130.629 206.37C131.559 205.17 131.079 204.26 131.709 202.85C132.429 201.27 133.479 201.43 134.709 200.02C136.209 198.26 135.329 197.12 136.469 192.85C137.469 189.11 138.469 188.61 138.219 186.76C137.899 184.58 136.099 183.03 134.579 182.03C135.046 182.029 135.503 181.897 135.899 181.65C136.016 181.572 136.117 181.474 136.199 181.36C136.689 180.65 136.119 179.83 136.599 179.19C136.829 178.89 137.179 178.77 138.599 178.65C141.499 178.43 141.779 178.81 142.659 178.38C143.819 177.82 144.039 176.82 144.819 176.9C145.009 176.936 145.19 177.01 145.35 177.118C145.51 177.227 145.646 177.367 145.749 177.53C145.849 177.68 145.949 177.83 146.039 177.98C146.35 178.857 146.578 179.761 146.719 180.68C147.069 183.31 146.339 184.17 147.119 185.82C147.51 186.391 147.785 187.033 147.929 187.71C147.967 188.387 147.865 189.064 147.629 189.7Z" fill="black"/>
<path d="M174.249 237.22C174.11 237.766 173.912 238.296 173.659 238.8C173.62 238.753 173.589 238.698 173.569 238.64C170.499 233.26 168.919 230.51 166.859 228.13C165.389 226.45 164.859 226.13 162.419 223.32C161.729 222.54 161.119 221.8 160.489 221.07C159.569 220 158.619 218.92 157.359 217.63C154.009 214.18 153.209 214.05 152.669 214.08C150.349 214.21 149.019 217.71 147.859 217.25C147.339 217.03 147.649 216.33 146.739 215.01C146.133 214.286 145.464 213.616 144.739 213.01C144.749 212.004 144.659 210.999 144.469 210.01C144.093 208.003 143.865 205.971 143.789 203.93C143.339 197.35 144.099 195.7 145.149 195C146.039 194.4 147.339 194.37 147.449 193.65C147.519 193.14 146.889 192.97 146.769 192.16C146.649 191.35 147.149 191.16 147.579 189.73C147.799 189.087 147.89 188.408 147.849 187.73C147.705 187.053 147.43 186.411 147.039 185.84C146.259 184.19 146.989 183.33 146.639 180.7C146.511 179.782 146.297 178.878 145.999 178C145.909 177.85 145.809 177.7 145.709 177.55C145.91 177.253 146.172 177.004 146.479 176.82C147.399 176.32 147.979 176.91 149.879 176.36C150.759 176.1 151.049 175.86 151.649 175.98C152.439 176.14 152.559 176.71 153.349 176.9C154.139 177.09 154.559 176.67 155.349 176.52C155.619 176.52 156.229 176.4 159.129 177.91C162.369 179.6 163.049 180.44 163.439 181.15C163.589 181.42 163.72 181.701 163.829 181.99C163.65 182.365 163.443 182.726 163.209 183.07C162.309 184.4 161.669 184.47 161.209 185.16C160.159 186.7 162.159 188.16 161.439 191.09C161.139 192.34 160.649 192.6 160.749 193.64C160.915 194.628 161.283 195.571 161.829 196.41C161.829 196.41 161.889 196.78 161.949 197.22C162.009 197.66 162.099 198.16 162.129 198.41C162.479 200.88 161.839 201.18 162.209 202.66C162.579 204.14 163.359 203.99 164.059 205.98C164.438 207.069 164.62 208.217 164.599 209.37C164.599 211.18 163.969 211.75 164.369 212.68C164.769 213.61 165.599 213.68 166.529 214.3C169.839 216.45 170.339 222.42 170.469 223.94C170.488 225.188 170.75 226.421 171.239 227.57C171.629 228.397 172.119 229.173 172.699 229.88C174.122 232.044 174.676 234.665 174.249 237.22Z" stroke="black" stroke-width="0.25" stroke-miterlimit="10"/>
<path d="M147.629 189.7C147.199 191.16 146.699 191.37 146.819 192.13C146.939 192.89 147.569 193.13 147.499 193.62C147.389 194.34 146.089 194.37 145.199 194.97C144.199 195.67 143.389 197.32 143.839 203.9C143.915 205.941 144.143 207.973 144.519 209.98C144.709 210.969 144.799 211.974 144.789 212.98L144.419 212.65L144.489 212.72C144.012 212.712 143.536 212.659 143.069 212.56C142.232 212.465 141.443 212.116 140.809 211.56C139.809 210.43 140.589 208.96 139.809 208.49C139.029 208.02 137.169 209.3 136.129 210.33C136.044 210.408 135.964 210.492 135.889 210.58C135.807 210.662 135.73 210.748 135.659 210.84C135.509 211 135.379 211.17 135.239 211.34C135.001 211.661 134.781 211.995 134.579 212.34L134.419 212.63C134.233 212.95 134.073 213.285 133.939 213.63C133.819 213.91 133.699 214.18 133.599 214.43C133.499 214.68 133.369 215.02 133.259 215.28C133.149 215.54 132.999 215.88 132.859 216.16L132.659 216.56C132.403 217.027 132.119 217.477 131.809 217.91C131.754 217.997 131.694 218.08 131.629 218.16C131.509 218.34 131.369 218.5 131.239 218.67L130.899 219.07C130.409 219.62 129.899 220.12 129.389 220.61L129.049 220.94L128.359 221.6C128.029 221.91 127.709 222.24 127.359 222.6C126.131 223.933 125.07 225.41 124.199 227L124.019 227.33L123.789 227.76C123.679 227.96 123.589 228.15 123.489 228.34C123.049 227.291 122.811 226.168 122.789 225.03C122.772 221.766 123.921 218.602 126.029 216.11C127.649 214.23 129.419 213.37 129.419 211.51C129.419 210.08 128.349 209.18 128.879 207.99C129.239 207.17 129.879 207.35 130.629 206.37C131.559 205.17 131.079 204.26 131.709 202.85C132.429 201.27 133.479 201.43 134.709 200.02C136.209 198.26 135.329 197.12 136.469 192.85C137.469 189.11 138.469 188.61 138.219 186.76C137.899 184.58 136.099 183.03 134.579 182.03C135.046 182.029 135.503 181.897 135.899 181.65C136.016 181.572 136.117 181.474 136.199 181.36C136.689 180.65 136.119 179.83 136.599 179.19C136.829 178.89 137.179 178.77 138.599 178.65C141.499 178.43 141.779 178.81 142.659 178.38C143.819 177.82 144.039 176.82 144.819 176.9C145.009 176.936 145.19 177.01 145.35 177.118C145.51 177.227 145.646 177.367 145.749 177.53C145.849 177.68 145.949 177.83 146.039 177.98C146.35 178.857 146.578 179.761 146.719 180.68C147.069 183.31 146.339 184.17 147.119 185.82C147.51 186.391 147.785 187.033 147.929 187.71C147.967 188.387 147.865 189.064 147.629 189.7Z" stroke="black" stroke-width="0.25" stroke-miterlimit="10"/>
</svg>
