<svg width="307" height="461" viewBox="0 0 307 461" fill="none" xmlns="http://www.w3.org/2000/svg">
<path d="M81.1701 236.61C81.1507 237.295 80.8802 237.95 80.4101 238.45C79.9201 238.91 79.3501 239.01 79.0701 239.65C78.9101 240.04 79.0701 240.16 78.9401 240.45C78.5901 241.27 77.0701 240.7 75.4801 241.45C74.0601 242.1 74.2001 243.05 72.4801 243.85C71.8286 244.082 71.1599 244.262 70.4801 244.39C67.8101 245.34 67.6401 247.39 65.1401 248.26C63.9601 248.69 64.0101 248.26 62.5601 248.63C60.1901 249.29 59.8401 250.55 57.7701 251.76C55.7001 252.97 53.7701 253.06 50.2201 253.24C48.771 253.44 47.2976 253.379 45.8701 253.06C45.2646 252.798 44.6094 252.672 43.9501 252.69C43.1423 252.781 42.3713 253.077 41.7101 253.55C40.5694 254.27 39.3432 254.844 38.0601 255.26C35.3701 255.97 33.5801 254.26 32.7201 255.26C32.2001 255.84 32.8101 256.5 32.2001 257.72C31.7501 258.59 31.2901 258.58 30.3301 259.59C29.4331 260.575 28.7519 261.736 28.3301 263C27.6801 264.6 28.1001 264.61 27.4901 266.11C26.7901 267.79 26.1601 268.04 25.8201 269.45C25.6588 270.297 25.6318 271.164 25.7401 272.02V273.72C25.7312 273.945 25.7045 274.169 25.6601 274.39V274.94C25.6601 275.3 25.5301 275.64 25.4701 276C25.4688 276.171 25.4486 276.342 25.4101 276.51C25.3501 276.78 25.4101 276.59 25.4101 276.63V278.34C25.5301 280.72 26.2701 280.77 26.1101 282.88V283C26.0401 283.68 25.7001 286.41 24.2901 287.52C24.1771 287.607 24.0566 287.684 23.9301 287.75C23.8091 287.816 23.6818 287.869 23.5501 287.91C23.0682 287.983 22.5766 287.958 22.1043 287.838C21.6319 287.718 21.1885 287.504 20.8001 287.21C17.9201 284.31 18.1001 281.36 14.0001 278.6C12.6935 277.859 11.4494 277.013 10.2801 276.07C8.65938 274.725 7.22062 273.176 6.00007 271.46C5.81007 271.17 5.59007 270.85 5.38007 270.46C5.28813 270.339 5.21092 270.208 5.15007 270.07C4.99007 269.81 4.84007 269.52 4.67007 269.21C4.48896 268.885 4.32539 268.552 4.18007 268.21C3.89793 267.677 3.64424 267.129 3.42007 266.57L3.20007 266C3.13007 265.8 3.05007 265.6 2.97007 265.39L2.74007 264.76C2.60007 264.34 2.44007 263.9 2.31007 263.45C2.18007 263 2.07007 262.68 1.97007 262.27C1.87007 261.86 1.81007 261.68 1.75007 261.37C1.55883 260.622 1.40861 259.864 1.30007 259.1V258.73C1.30007 258.6 1.22007 258.17 1.19007 257.88C1.16007 257.59 1.13007 257.33 1.11007 257.05C1.09996 256.85 1.09996 256.65 1.11007 256.45V253.64L1.17007 252.69V252.39C1.16394 252.187 1.18752 251.985 1.24007 251.79C1.31007 251.59 1.24007 251.52 1.24007 251.39C1.24007 251.26 1.31007 250.89 1.35007 250.65L1.52007 249.65C1.61007 249.21 1.69007 248.78 1.79007 248.38C1.89007 247.98 2.05007 247.38 2.19007 246.88C2.25007 246.71 2.29007 246.54 2.36007 246.38C2.41311 246.172 2.47992 245.968 2.56007 245.77C2.68007 245.38 2.81007 245.02 2.95007 244.65C3.17007 244.05 3.42007 243.47 3.66007 242.92C3.82007 242.57 3.97007 242.22 4.12007 241.92C5.07007 239.92 6.02007 238.27 6.68007 237C7.55007 235.31 8.29007 233.69 8.92007 232.15C13.5101 220.96 12.4801 213.06 12.5701 202.75V201.47C12.5701 200.58 12.5701 199.68 12.6501 198.75C12.6501 198.07 12.7201 197.37 12.7601 196.65V196.34C12.7505 196.062 12.7706 195.783 12.8201 195.51C12.8801 195.23 12.8201 194.94 12.8901 194.64C12.9115 194.151 12.9582 193.664 13.0301 193.18C13.1701 191.84 13.3501 190.44 13.5701 188.99C13.6301 188.65 13.6801 188.32 13.7401 187.99C13.8001 187.66 13.8601 187.26 13.9201 186.9L14.1301 185.77C14.1488 185.541 14.1958 185.316 14.2701 185.1C14.3301 184.72 14.4101 184.35 14.5001 183.97C14.5147 183.792 14.5516 183.618 14.6101 183.45C14.6901 183.07 14.7901 182.67 14.8701 182.26C14.9501 181.85 15.0601 181.44 15.1701 181.02C15.3201 180.41 15.4701 179.81 15.6401 179.18C15.6697 178.957 15.7268 178.739 15.8101 178.53C15.9201 178.1 16.0401 177.66 16.1701 177.22C16.4201 176.35 16.6701 175.47 16.9601 174.55C17.1301 174.01 17.2901 173.49 17.4701 172.97C17.2601 174.36 17.1901 175.63 17.6301 175.81C18.0701 175.99 18.7901 174.81 19.1801 175.03C19.5701 175.25 18.9401 176.44 19.0201 178.38C19.1564 179.863 19.5312 181.315 20.1301 182.68C20.2569 183.035 20.4319 183.372 20.6501 183.68C20.8617 184.096 21.1879 184.443 21.5901 184.68C21.6757 184.722 21.7665 184.752 21.8601 184.77C22.16 184.867 22.478 184.894 22.7901 184.85C24.3401 184.72 24.9201 183.67 25.5401 183.85C25.6144 183.88 25.6823 183.924 25.7401 183.98L25.8201 184.06L25.9001 184.17C25.9001 184.24 25.9701 184.32 26.0101 184.4C26.0536 184.503 26.0871 184.61 26.1101 184.72C26.1389 184.831 26.159 184.945 26.1701 185.06C26.1619 185.193 26.1824 185.326 26.2301 185.45C26.2901 185.59 26.0901 185.83 26.0401 186.02C25.9901 186.21 25.8701 186.53 25.8001 186.79C25.7301 187.05 25.6501 187.25 25.5901 187.49C25.5754 187.58 25.5485 187.667 25.5101 187.75C25.5101 187.84 25.5101 187.75 25.5101 187.82C25.5101 187.98 25.4201 188.15 25.3701 188.33L25.2601 188.73C25.25 188.762 25.25 188.797 25.2601 188.83C25.0701 189.55 24.9301 190.26 24.8001 190.93C24.7901 190.999 24.7901 191.07 24.8001 191.14C24.7779 191.386 24.7344 191.631 24.6701 191.87C24.6701 192.11 24.5801 192.37 24.5501 192.61C24.7801 192.3 24.9901 192.03 25.2001 191.78C26.5801 190.14 27.4201 189.89 27.9501 190.04C28.4801 190.19 28.5001 190.6 29.6601 191.76C30.6601 192.76 31.2201 193.29 31.9101 193.31C33.0301 193.31 33.3801 191.94 34.0501 192C35.9201 192.19 35.7901 203.05 38.6901 203.61C39.4801 203.77 40.3901 203.22 40.9301 203.7C41.4701 204.18 41.0301 204.9 41.6101 205.85C42.0701 206.58 42.4801 206.39 42.9101 206.97C43.9101 208.34 42.2901 210.18 43.2501 211.53C43.6101 212.04 43.8201 211.74 44.9701 212.53C45.961 213.14 46.7396 214.041 47.2001 215.11C47.5701 216.2 47.0001 216.35 47.3801 217.52C47.7601 218.69 48.6401 219.12 48.5801 220.09C48.5014 220.566 48.2939 221.012 47.9801 221.38C46.7401 223.54 49.8301 225.67 49.7201 229.9V230.08C49.494 231.165 49.5949 232.292 50.0101 233.32C50.4401 234.22 50.8501 234.21 51.2001 235.08C51.8301 236.66 50.8601 237.58 51.4801 238.58C52.1001 239.58 53.2901 239.58 54.3601 239.71C55.6801 239.85 56.2701 239.59 58.5501 239.14C62.4601 238.4 62.8401 238.77 63.8901 238.02L64.0001 238C65.4701 236.91 65.6401 235.44 66.4401 235.54C66.9801 235.61 67.1301 236.31 67.7601 237.2C68.0031 237.544 68.2887 237.857 68.6101 238.13C69.1023 238.56 69.668 238.899 70.2801 239.13L81.0401 236.63L81.1701 236.61Z" fill="black"/>
<path d="M81.1701 236.61C81.1507 237.295 80.8802 237.95 80.4101 238.45C79.9201 238.91 79.3501 239.01 79.0701 239.65C78.9101 240.04 79.0701 240.16 78.9401 240.45C78.5901 241.27 77.0701 240.7 75.4801 241.45C74.0601 242.1 74.2001 243.05 72.4801 243.85C71.8286 244.082 71.1599 244.262 70.4801 244.39C67.8101 245.34 67.6401 247.39 65.1401 248.26C63.9601 248.69 64.0101 248.26 62.5601 248.63C60.1901 249.29 59.8401 250.55 57.7701 251.76C55.7001 252.97 53.7701 253.06 50.2201 253.24C48.771 253.44 47.2976 253.379 45.8701 253.06C45.2646 252.798 44.6094 252.672 43.9501 252.69C43.1423 252.781 42.3713 253.077 41.7101 253.55C40.5694 254.27 39.3432 254.844 38.0601 255.26C35.3701 255.97 33.5801 254.26 32.7201 255.26C32.2001 255.84 32.8101 256.5 32.2001 257.72C31.7501 258.59 31.2901 258.58 30.3301 259.59C29.4331 260.575 28.7519 261.736 28.3301 263C27.6801 264.6 28.1001 264.61 27.4901 266.11C26.7901 267.79 26.1601 268.04 25.8201 269.45C25.6588 270.297 25.6318 271.164 25.7401 272.02V273.72C25.7312 273.945 25.7045 274.169 25.6601 274.39V274.94C25.6601 275.3 25.5301 275.64 25.4701 276C25.4688 276.171 25.4486 276.342 25.4101 276.51C25.3501 276.78 25.4101 276.59 25.4101 276.63V278.34C25.5301 280.72 26.2701 280.77 26.1101 282.88V283C26.0401 283.68 25.7001 286.41 24.2901 287.52C24.1771 287.607 24.0566 287.684 23.9301 287.75C23.8091 287.816 23.6818 287.869 23.5501 287.91C23.0682 287.983 22.5766 287.958 22.1043 287.838C21.6319 287.718 21.1885 287.504 20.8001 287.21C17.9201 284.31 18.1001 281.36 14.0001 278.6C12.6935 277.859 11.4494 277.013 10.2801 276.07C8.65938 274.725 7.22062 273.176 6.00007 271.46C5.81007 271.17 5.59007 270.85 5.38007 270.46C5.28813 270.339 5.21092 270.208 5.15007 270.07C4.99007 269.81 4.84007 269.52 4.67007 269.21C4.48896 268.885 4.32539 268.552 4.18007 268.21C3.89793 267.677 3.64424 267.129 3.42007 266.57L3.20007 266C3.13007 265.8 3.05007 265.6 2.97007 265.39L2.74007 264.76C2.60007 264.34 2.44007 263.9 2.31007 263.45C2.18007 263 2.07007 262.68 1.97007 262.27C1.87007 261.86 1.81007 261.68 1.75007 261.37C1.55883 260.622 1.40861 259.864 1.30007 259.1V258.73C1.30007 258.6 1.22007 258.17 1.19007 257.88C1.16007 257.59 1.13007 257.33 1.11007 257.05C1.09996 256.85 1.09996 256.65 1.11007 256.45V253.64L1.17007 252.69V252.39C1.16394 252.187 1.18752 251.985 1.24007 251.79C1.31007 251.59 1.24007 251.52 1.24007 251.39C1.24007 251.26 1.31007 250.89 1.35007 250.65L1.52007 249.65C1.61007 249.21 1.69007 248.78 1.79007 248.38C1.89007 247.98 2.05007 247.38 2.19007 246.88C2.25007 246.71 2.29007 246.54 2.36007 246.38C2.41311 246.172 2.47992 245.968 2.56007 245.77C2.68007 245.38 2.81007 245.02 2.95007 244.65C3.17007 244.05 3.42007 243.47 3.66007 242.92C3.82007 242.57 3.97007 242.22 4.12007 241.92C5.07007 239.92 6.02007 238.27 6.68007 237C7.55007 235.31 8.29007 233.69 8.92007 232.15C13.5101 220.96 12.4801 213.06 12.5701 202.75V201.47C12.5701 200.58 12.5701 199.68 12.6501 198.75C12.6501 198.07 12.7201 197.37 12.7601 196.65V196.34C12.7505 196.062 12.7706 195.783 12.8201 195.51C12.8801 195.23 12.8201 194.94 12.8901 194.64C12.9115 194.151 12.9582 193.664 13.0301 193.18C13.1701 191.84 13.3501 190.44 13.5701 188.99C13.6301 188.65 13.6801 188.32 13.7401 187.99C13.8001 187.66 13.8601 187.26 13.9201 186.9L14.1301 185.77C14.1488 185.541 14.1958 185.316 14.2701 185.1C14.3301 184.72 14.4101 184.35 14.5001 183.97C14.5147 183.792 14.5516 183.618 14.6101 183.45C14.6901 183.07 14.7901 182.67 14.8701 182.26C14.9501 181.85 15.0601 181.44 15.1701 181.02C15.3201 180.41 15.4701 179.81 15.6401 179.18C15.6697 178.957 15.7268 178.739 15.8101 178.53C15.9201 178.1 16.0401 177.66 16.1701 177.22C16.4201 176.35 16.6701 175.47 16.9601 174.55C17.1301 174.01 17.2901 173.49 17.4701 172.97C17.2601 174.36 17.1901 175.63 17.6301 175.81C18.0701 175.99 18.7901 174.81 19.1801 175.03C19.5701 175.25 18.9401 176.44 19.0201 178.38C19.1564 179.863 19.5312 181.315 20.1301 182.68C20.2569 183.035 20.4319 183.372 20.6501 183.68C20.8617 184.096 21.1879 184.443 21.5901 184.68C21.6757 184.722 21.7665 184.752 21.8601 184.77C22.16 184.867 22.478 184.894 22.7901 184.85C24.3401 184.72 24.9201 183.67 25.5401 183.85C25.6144 183.88 25.6823 183.924 25.7401 183.98L25.8201 184.06L25.9001 184.17C25.9001 184.24 25.9701 184.32 26.0101 184.4C26.0536 184.503 26.0871 184.61 26.1101 184.72C26.1389 184.831 26.159 184.945 26.1701 185.06C26.1619 185.193 26.1824 185.326 26.2301 185.45C26.2901 185.59 26.0901 185.83 26.0401 186.02C25.9901 186.21 25.8701 186.53 25.8001 186.79C25.7301 187.05 25.6501 187.25 25.5901 187.49C25.5754 187.58 25.5485 187.667 25.5101 187.75C25.5101 187.84 25.5101 187.75 25.5101 187.82C25.5101 187.98 25.4201 188.15 25.3701 188.33L25.2601 188.73C25.25 188.762 25.25 188.797 25.2601 188.83C25.0701 189.55 24.9301 190.26 24.8001 190.93C24.7901 190.999 24.7901 191.07 24.8001 191.14C24.7779 191.386 24.7344 191.631 24.6701 191.87C24.6701 192.11 24.5801 192.37 24.5501 192.61C24.7801 192.3 24.9901 192.03 25.2001 191.78C26.5801 190.14 27.4201 189.89 27.9501 190.04C28.4801 190.19 28.5001 190.6 29.6601 191.76C30.6601 192.76 31.2201 193.29 31.9101 193.31C33.0301 193.31 33.3801 191.94 34.0501 192C35.9201 192.19 35.7901 203.05 38.6901 203.61C39.4801 203.77 40.3901 203.22 40.9301 203.7C41.4701 204.18 41.0301 204.9 41.6101 205.85C42.0701 206.58 42.4801 206.39 42.9101 206.97C43.9101 208.34 42.2901 210.18 43.2501 211.53C43.6101 212.04 43.8201 211.74 44.9701 212.53C45.961 213.14 46.7396 214.041 47.2001 215.11C47.5701 216.2 47.0001 216.35 47.3801 217.52C47.7601 218.69 48.6401 219.12 48.5801 220.09C48.5014 220.566 48.2939 221.012 47.9801 221.38C46.7401 223.54 49.8301 225.67 49.7201 229.9V230.08C49.494 231.165 49.5949 232.292 50.0101 233.32C50.4401 234.22 50.8501 234.21 51.2001 235.08C51.8301 236.66 50.8601 237.58 51.4801 238.58C52.1001 239.58 53.2901 239.58 54.3601 239.71C55.6801 239.85 56.2701 239.59 58.5501 239.14C62.4601 238.4 62.8401 238.77 63.8901 238.02L64.0001 238C65.4701 236.91 65.6401 235.44 66.4401 235.54C66.9801 235.61 67.1301 236.31 67.7601 237.2C68.0031 237.544 68.2887 237.857 68.6101 238.13C69.1023 238.56 69.668 238.899 70.2801 239.13L81.0401 236.63L81.1701 236.61Z" fill="black"/>
<path d="M81.1701 236.61C81.1507 237.295 80.8802 237.95 80.4101 238.45C79.9201 238.91 79.3501 239.01 79.0701 239.65C78.9101 240.04 79.0701 240.16 78.9401 240.45C78.5901 241.27 77.0701 240.7 75.4801 241.45C74.0601 242.1 74.2001 243.05 72.4801 243.85C71.8286 244.082 71.1599 244.262 70.4801 244.39C67.8101 245.34 67.6401 247.39 65.1401 248.26C63.9601 248.69 64.0101 248.26 62.5601 248.63C60.1901 249.29 59.8401 250.55 57.7701 251.76C55.7001 252.97 53.7701 253.06 50.2201 253.24C48.771 253.44 47.2976 253.379 45.8701 253.06C45.2646 252.798 44.6094 252.672 43.9501 252.69C43.1423 252.781 42.3713 253.077 41.7101 253.55C40.5694 254.27 39.3432 254.844 38.0601 255.26C35.3701 255.97 33.5801 254.26 32.7201 255.26C32.2001 255.84 32.8101 256.5 32.2001 257.72C31.7501 258.59 31.2901 258.58 30.3301 259.59C29.4331 260.575 28.7519 261.736 28.3301 263C27.6801 264.6 28.1001 264.61 27.4901 266.11C26.7901 267.79 26.1601 268.04 25.8201 269.45C25.6588 270.297 25.6318 271.164 25.7401 272.02V274.94C25.6901 275.3 25.6101 275.64 25.5501 276C25.5488 276.171 25.5286 276.342 25.4901 276.51C25.4301 276.78 25.4901 276.59 25.4901 276.63V278.34C25.6101 280.72 26.3501 280.77 26.1901 282.88V283C26.1201 283.68 25.7801 286.41 24.3701 287.52C24.2571 287.607 24.1366 287.684 24.0101 287.75C23.8891 287.816 23.7618 287.869 23.6301 287.91C23.1482 287.983 22.6566 287.958 22.1843 287.838C21.7119 287.718 21.2685 287.504 20.8801 287.21C18.0001 284.31 18.1801 281.36 14.0801 278.6C12.7735 277.859 11.5294 277.013 10.3601 276.07C8.70959 274.732 7.24351 273.182 6.00007 271.46C5.81007 271.17 5.59007 270.85 5.38007 270.46C5.28813 270.339 5.21092 270.208 5.15007 270.07C4.99007 269.81 4.84007 269.52 4.67007 269.21C4.48896 268.885 4.32539 268.552 4.18007 268.21C3.89793 267.677 3.64424 267.129 3.42007 266.57L3.20007 266C3.13007 265.8 3.05007 265.6 2.97007 265.39L2.74007 264.76C2.60007 264.34 2.44007 263.9 2.31007 263.45C2.18007 263 2.07007 262.68 1.97007 262.27C1.87007 261.86 1.81007 261.68 1.75007 261.37C1.70708 261.264 1.68011 261.153 1.67007 261.04C1.62007 260.84 1.58007 260.66 1.54007 260.46C1.52996 260.404 1.52996 260.346 1.54007 260.29C1.46007 259.9 1.39007 259.5 1.33007 259.1V258.73C1.33007 258.6 1.25007 258.17 1.22007 257.88C1.19007 257.59 1.16007 257.33 1.14007 257.05C1.12996 256.85 1.12996 256.65 1.14007 256.45V256.08C1.12961 255.997 1.12961 255.913 1.14007 255.83V253.64L1.20007 252.69V252.39C1.19394 252.187 1.21752 251.985 1.27007 251.79C1.34007 251.59 1.27007 251.52 1.27007 251.39C1.27007 251.26 1.34007 250.89 1.38007 250.65L1.55007 249.65C1.64007 249.21 1.72007 248.78 1.82007 248.38C1.92007 247.98 2.08007 247.38 2.22007 246.88C2.28007 246.71 2.32007 246.54 2.39007 246.38C2.44311 246.172 2.50992 245.968 2.59007 245.77C2.71007 245.38 2.84007 245.02 2.98007 244.65C3.20007 244.05 3.45007 243.47 3.69007 242.92C3.85007 242.57 4.00007 242.22 4.15007 241.92C5.15007 239.92 6.05007 238.27 6.71007 237C7.58007 235.31 8.32007 233.69 8.95007 232.15C13.5401 220.96 12.5101 213.06 12.6001 202.75V201.47C12.6001 200.58 12.6001 199.68 12.6801 198.75C12.6801 198.07 12.7501 197.37 12.7901 196.65V196.34C12.7805 196.062 12.8006 195.783 12.8501 195.51C12.9101 195.23 12.8501 194.94 12.9201 194.64C12.9365 194.151 12.9833 193.663 13.0601 193.18C13.2001 191.84 13.3801 190.44 13.6001 188.99C13.6601 188.65 13.7101 188.32 13.7701 187.99C13.8301 187.66 13.8901 187.26 13.9501 186.9L14.1601 185.77C14.1788 185.541 14.2258 185.316 14.3001 185.1C14.3601 184.87 14.4401 184.36 14.5301 183.97C14.5447 183.792 14.5816 183.618 14.6401 183.45C14.7201 183.07 14.8201 182.67 14.9001 182.26C14.9801 181.85 15.0901 181.44 15.2001 181.02C15.3501 180.41 15.5001 179.81 15.6701 179.18C15.6997 178.957 15.7568 178.739 15.8401 178.53C15.9501 178.1 16.0701 177.66 16.2001 177.22C16.4501 176.35 16.7001 175.47 16.9901 174.55C17.1601 174.01 17.3201 173.49 17.5001 172.97C17.2901 174.36 17.2201 175.63 17.6601 175.81C18.1001 175.99 18.8201 174.81 19.2101 175.03C19.6001 175.25 18.9701 176.44 19.0501 178.38C19.1864 179.863 19.5612 181.315 20.1601 182.68C20.2869 183.035 20.4619 183.372 20.6801 183.68C20.8917 184.096 21.2179 184.443 21.6201 184.68C21.7057 184.722 21.7965 184.752 21.8901 184.77C22.19 184.867 22.508 184.894 22.8201 184.85C24.3701 184.72 24.9501 183.67 25.5701 183.85C25.6444 183.88 25.7123 183.924 25.7701 183.98L25.8501 184.06L25.9301 184.17C25.9301 184.24 26.0001 184.32 26.0401 184.4C26.0836 184.503 26.1171 184.61 26.1401 184.72C26.1689 184.831 26.189 184.945 26.2001 185.06C26.1919 185.193 26.2124 185.326 26.2601 185.45C26.3201 185.59 26.1201 185.83 26.0701 186.02C26.0201 186.21 25.9001 186.53 25.8301 186.79C25.7601 187.05 25.6801 187.25 25.6201 187.49C25.5817 187.572 25.5548 187.66 25.5401 187.75V187.82C25.5401 187.98 25.4501 188.15 25.4001 188.33L25.2901 188.73C25.28 188.762 25.28 188.797 25.2901 188.83C25.1001 189.55 24.9601 190.26 24.8301 190.93C24.8201 190.999 24.8201 191.07 24.8301 191.14C24.8079 191.386 24.7644 191.631 24.7001 191.87C24.7001 192.11 24.6101 192.37 24.5801 192.61C24.2019 195.055 24.008 197.525 24.0001 200C24.0001 203.7 24.3201 207.51 24.6801 211.66C24.6801 212.2 24.7601 212.73 24.8101 213.26C24.8601 213.79 24.9001 214.26 24.9401 214.79C24.9801 215.32 25.0101 215.58 25.0401 215.97C25.1001 216.54 25.1501 217.1 25.2001 217.65L25.2601 218.32L25.3301 218.99C25.3409 219.248 25.3709 219.506 25.4201 219.76C25.4278 220.048 25.4545 220.335 25.5001 220.62C25.558 220.9 25.5914 221.184 25.6001 221.47C25.6001 221.75 25.6701 222.01 25.7101 222.29C25.7201 222.403 25.7201 222.517 25.7101 222.63V222.72C25.7342 223.056 25.781 223.39 25.8501 223.72C25.8501 224.03 25.9501 224.34 26.0101 224.63C26.0701 224.92 26.1201 225.24 26.1801 225.55C26.2401 225.86 26.3001 226.14 26.3601 226.42C26.4201 226.7 26.4301 226.7 26.4601 226.84C26.4901 226.98 26.5301 227.11 26.5601 227.25C26.5498 227.286 26.5498 227.324 26.5601 227.36C26.6201 227.61 26.6801 227.85 26.7501 228.08V228.17L27.0001 228.65C27.0295 228.77 27.0697 228.887 27.1201 229C27.1801 229.22 27.2601 229.44 27.3401 229.65C27.4201 229.86 27.5001 230.1 27.5801 230.3C27.6601 230.5 27.7601 230.71 27.8501 230.92C27.9401 231.13 27.9501 231.12 27.9901 231.22C28.0301 231.32 28.1201 231.5 28.1901 231.63L28.2601 231.77L28.5601 232.3C28.6856 232.544 28.8294 232.778 28.9901 233C29.0916 233.183 29.2087 233.357 29.3401 233.52L29.4401 233.67C29.5701 233.84 29.7001 234.01 29.8401 234.17C29.9801 234.33 30.1501 234.56 30.3101 234.75C40.4501 246.29 63.0301 241.02 73.7101 238.53C76.1801 237.95 78.6201 237.38 81.0001 236.77L81.1701 236.61Z" fill="black"/>
<path d="M25.7301 273.42V273.49L25.5501 274.93C25.3373 275.878 25.2333 276.848 25.2401 277.82C25.2401 280.36 26.0001 280.95 25.9401 282.87C25.9401 284.57 25.2001 287.38 23.3801 287.87C22.8983 287.955 22.4038 287.937 21.9295 287.816C21.4553 287.696 21.0123 287.475 20.6301 287.17C17.7501 284.27 17.9301 281.32 13.8301 278.56C12.5224 277.809 11.2783 276.953 10.1101 276C8.55659 274.655 7.17903 273.119 6.01007 271.43C5.82007 271.14 5.60007 270.82 5.39007 270.43C5.29813 270.309 5.22092 270.178 5.16007 270.04C4.85007 269.5 4.52007 268.89 4.16007 268.22C3.42185 266.708 2.81625 265.136 2.35007 263.52C2.23007 263.14 2.11007 262.75 2.01007 262.34C1.91007 261.93 1.80007 261.53 1.71007 261.11C1.66007 260.91 1.62007 260.73 1.58007 260.53C1.46007 259.96 1.37007 259.39 1.29007 258.8C1.24007 258.53 1.21007 258.24 1.18007 257.95C1.15007 257.66 1.12007 257.4 1.10007 257.12C1.08007 256.84 1.03007 256.32 1.02007 255.9C1.01007 255.48 1.02007 255.29 1.02007 254.99V253.71L1.08007 252.76C1.09713 252.324 1.14054 251.89 1.21007 251.46C1.2271 251.211 1.26388 250.963 1.32007 250.72L1.49007 249.72C1.68007 248.72 1.91007 247.82 2.16007 246.93C3.3048 243.472 4.80973 240.143 6.65007 237C7.52007 235.31 8.26007 233.69 8.89007 232.15C14.8001 217.77 11.4101 208.82 13.0301 193.15C13.7901 200.52 14.2601 210.29 14.3501 217.02C14.5501 230.59 14.6501 237.38 13.4901 241.21C11.8601 246.56 8.78007 252.9 11.7601 256.99C12.7601 258.37 14.0201 258.46 15.4301 259.63C21.6401 264.87 22.5701 269.83 25.7301 273.42Z" fill="black"/>
<path d="M81.1701 236.61C81.1507 237.295 80.8802 237.95 80.4101 238.45C79.9201 238.91 79.3501 239.01 79.0701 239.65C78.9101 240.04 79.0701 240.16 78.9401 240.45C78.5901 241.27 77.0701 240.7 75.4801 241.45C74.0601 242.1 74.2001 243.05 72.4801 243.85C71.8286 244.082 71.1599 244.262 70.4801 244.39C67.8101 245.34 67.6401 247.39 65.1401 248.26C61.2501 248.32 35.5101 248.37 27.2601 233.04C26.0901 230.86 25.6101 228.91 24.6701 225.04C22.6701 216.89 22.7901 209.51 23.9401 200.04C23.9401 203.74 24.2601 207.55 24.6201 211.7C24.6201 212.24 24.7001 212.77 24.7501 213.3C24.8001 213.83 24.8401 214.3 24.8801 214.83C24.9201 215.36 24.9501 215.62 24.9801 216.01C25.0401 216.58 25.0901 217.14 25.1401 217.69L25.2001 218.36L25.2701 219.03C25.2809 219.288 25.311 219.546 25.3601 219.8C25.3678 220.088 25.3945 220.375 25.4401 220.66C25.498 220.94 25.5314 221.224 25.5401 221.51C25.5401 221.79 25.6101 222.05 25.6501 222.33C25.6601 222.443 25.6601 222.557 25.6501 222.67V222.76C25.6742 223.096 25.721 223.43 25.7901 223.76C25.7901 224.07 25.8901 224.38 25.9501 224.67C26.0101 224.96 26.0601 225.28 26.1201 225.59C26.1801 225.9 26.2401 226.18 26.3001 226.46C26.3601 226.74 26.3701 226.74 26.4001 226.88C26.4301 227.02 26.4701 227.15 26.5001 227.29C26.4898 227.326 26.4898 227.364 26.5001 227.4C26.5601 227.65 26.6201 227.89 26.6901 228.12V228.21L27.0101 228.6C27.0395 228.72 27.0797 228.837 27.1301 228.95C27.1901 229.17 27.2701 229.39 27.3501 229.6C27.4301 229.81 27.5101 230.05 27.5901 230.25C27.6701 230.45 27.7701 230.66 27.8601 230.87C27.9501 231.08 27.9601 231.07 28.0001 231.17C28.0401 231.27 28.1301 231.45 28.2001 231.58L28.2701 231.72L28.5701 232.25C28.6956 232.494 28.8394 232.728 29.0001 232.95C29.1016 233.133 29.2187 233.307 29.3501 233.47L29.4501 233.62C29.5801 233.79 29.7101 233.96 29.8501 234.12C29.9901 234.28 30.1601 234.51 30.3201 234.7C40.4601 246.24 63.0401 240.97 73.7201 238.48C76.1901 237.9 78.6301 237.33 81.0101 236.72L81.1701 236.61Z" fill="black"/>
<path d="M301.12 260.31C300.73 266.15 300.33 272.08 296.2 276.56C295.2 277.66 295.58 276.89 287.4 283.49C286.3 284.37 285.5 285.02 284.87 285.54C283.87 286.38 283.29 286.89 282.69 287.44C281.48 288.56 280.69 289.37 280.1 290C279.893 290.041 279.681 290.058 279.47 290.05C278.829 290.048 278.195 289.912 277.61 289.65L277.15 288.16C276.854 287.608 276.688 286.996 276.663 286.371C276.639 285.745 276.758 285.123 277.01 284.55C277.48 283.71 278.07 283.81 278.59 282.87C278.635 282.802 278.669 282.728 278.69 282.65C278.703 282.591 278.723 282.534 278.75 282.48V281.11C278.75 280.59 278.75 280.06 278.8 279.24C278.85 277.88 278.91 277.48 278.64 276.92C278.37 276.36 277.98 276.3 277.32 275.51C276.32 274.3 276.56 273.51 275.59 272.29C275.12 271.736 274.571 271.254 273.96 270.86C272.441 269.633 271.18 268.117 270.25 266.4C268.07 262.86 269.18 261.4 267.54 260.17C266.25 259.17 265.3 259.96 261.31 259.99C258.174 259.93 255.055 259.521 252.01 258.77C249.73 258.269 247.491 257.601 245.31 256.77C242.95 255.92 241.5 255.21 241.22 253.98C241.18 253.772 241.18 253.558 241.22 253.35C241.215 253.341 241.212 253.33 241.212 253.32C241.212 253.309 241.215 253.299 241.22 253.29C241.232 253.211 241.252 253.134 241.28 253.06C241.309 252.918 241.356 252.78 241.42 252.65C241.53 252.363 241.53 252.046 241.42 251.76C240.94 250.56 239.19 250.89 237.79 249.44C237.208 248.736 236.794 247.908 236.58 247.02L236.4 246.66L236.23 246.37L236 246C235.91 245.9 235.82 245.79 235.72 245.69L235.39 245.36L234.98 245.03C234.86 244.94 234.73 244.84 234.59 244.75C234.157 244.459 233.698 244.208 233.22 244L232.8 243.81C232.52 243.69 232.21 243.57 231.88 243.46L231.36 243.29C231 243.18 230.63 243.07 230.23 242.97L229.52 242.81C230.936 243.179 232.44 242.989 233.72 242.28C235.26 241.33 235.31 239.93 236.79 239.48C237.949 239.254 239.15 239.487 240.14 240.13C242.28 241.29 242.14 242.85 244.14 243.58C244.558 243.779 245.013 243.89 245.476 243.906C245.939 243.921 246.4 243.841 246.83 243.67C248.22 242.94 248.07 240.99 249.44 240.6C250.09 240.41 250.22 240.82 250.84 240.69C252.49 240.35 252.1 237.32 254.37 234.37C255.71 232.63 256.6 232.7 256.78 231.49C257.04 229.87 255.64 228.7 256.32 227.39C256.68 226.68 257.25 226.73 257.32 226.09C257.49 225.09 256.22 224.41 256.49 223.58C256.62 223.17 256.97 223.18 257.32 222.84C258.5 221.68 256.76 219.66 257.6 217.84C258.44 216.02 260.47 216.44 260.96 214.59C261.14 213.88 260.96 213.46 261.34 212.9C261.72 212.34 262.43 212.48 263.34 211.79C263.81 211.44 263.73 211.32 265 209.79C265.74 208.87 266.13 208.41 266.4 208.3C267.2 208 267.5 208.63 269.57 209.03L271.98 209.32C272.674 209.248 273.35 209.059 273.98 208.76C274.377 208.578 274.747 208.342 275.08 208.06C276.259 206.997 277.042 205.566 277.3 204C277.517 203.042 277.604 202.06 277.56 201.08V200.48C277.35 198.63 277.12 196.8 276.9 194.96V194.86C277.3 194.98 277.722 195.016 278.137 194.964C278.552 194.913 278.951 194.775 279.31 194.56C279.457 194.452 279.577 194.312 279.66 194.15C279.711 194.064 279.755 193.973 279.79 193.88C279.841 193.726 279.881 193.569 279.91 193.41C279.935 193.195 279.982 192.984 280.05 192.78C280.146 192.455 280.288 192.145 280.47 191.86L280.6 191.68C281.46 190.49 282.3 190.68 282.84 189.43C282.913 189.266 282.97 189.095 283.01 188.92C283.02 188.544 283.123 188.176 283.31 187.85C283.93 186.85 284.79 187.05 285.16 186.27C285.53 185.49 284.79 184.76 284.61 183.2C284.59 182.984 284.59 182.766 284.61 182.55C284.616 181.792 284.765 181.042 285.05 180.34C288.05 188.84 291.71 201.59 292.05 214.8V217.93C292.05 219.5 292.05 221.02 291.97 222.52C291.96 222.636 291.96 222.753 291.97 222.87C291.85 227.49 291.75 231.74 292.55 235.45C292.535 235.583 292.567 235.717 292.64 235.83C292.75 236.363 292.897 236.887 293.08 237.4C293.352 238.262 293.707 239.096 294.14 239.89C294.571 240.702 295.088 241.466 295.68 242.17C297.361 244.012 298.729 246.116 299.73 248.4C301.58 252.82 301.35 256.93 301.12 260.31Z" fill="black"/>
<path d="M301.12 260.31C300.73 266.15 300.33 272.08 296.2 276.56C295.2 277.66 295.58 276.89 287.4 283.49C286.3 284.37 285.5 285.02 284.87 285.54C283.87 286.38 283.29 286.89 282.69 287.44C281.48 288.56 280.69 289.37 280.1 290C279.893 290.041 279.681 290.058 279.47 290.05C278.829 290.048 278.195 289.912 277.61 289.65L277.15 288.16C276.854 287.608 276.688 286.996 276.663 286.371C276.639 285.745 276.758 285.123 277.01 284.55C277.48 283.71 278.07 283.81 278.59 282.87C278.635 282.802 278.669 282.728 278.69 282.65C278.703 282.591 278.723 282.534 278.75 282.48V281.11C278.75 280.59 278.75 280.06 278.8 279.24C278.85 277.88 278.91 277.48 278.64 276.92C278.37 276.36 277.98 276.3 277.32 275.51C276.32 274.3 276.56 273.51 275.59 272.29C275.12 271.736 274.571 271.254 273.96 270.86C272.441 269.633 271.18 268.117 270.25 266.4C268.07 262.86 269.18 261.4 267.54 260.17C266.25 259.17 265.3 259.96 261.31 259.99C258.174 259.93 255.055 259.521 252.01 258.77C249.73 258.269 247.491 257.601 245.31 256.77C242.95 255.92 241.5 255.21 241.22 253.98C241.18 253.772 241.18 253.558 241.22 253.35C241.215 253.341 241.212 253.33 241.212 253.32C241.212 253.309 241.215 253.299 241.22 253.29C241.232 253.211 241.252 253.134 241.28 253.06C241.309 252.918 241.356 252.78 241.42 252.65C241.53 252.363 241.53 252.046 241.42 251.76C240.94 250.56 239.19 250.89 237.79 249.44C237.208 248.736 236.794 247.908 236.58 247.02L236.4 246.66L236.23 246.37L236 246C235.91 245.9 235.82 245.79 235.72 245.69L235.39 245.36L234.98 245.03C234.86 244.94 234.73 244.84 234.59 244.75C234.157 244.459 233.698 244.208 233.22 244L232.8 243.81C232.52 243.69 232.21 243.57 231.88 243.46L231.36 243.29C231 243.18 230.63 243.07 230.23 242.97L229.52 242.81C230.936 243.179 232.44 242.989 233.72 242.28C235.26 241.33 235.31 239.93 236.79 239.48C237.949 239.254 239.15 239.487 240.14 240.13C242.28 241.29 242.14 242.85 244.14 243.58C244.558 243.779 245.013 243.89 245.476 243.906C245.939 243.921 246.4 243.841 246.83 243.67C248.22 242.94 248.07 240.99 249.44 240.6C250.09 240.41 250.22 240.82 250.84 240.69C252.49 240.35 252.1 237.32 254.37 234.37C255.71 232.63 256.6 232.7 256.78 231.49C257.04 229.87 255.64 228.7 256.32 227.39C256.68 226.68 257.25 226.73 257.32 226.09C257.49 225.09 256.22 224.41 256.49 223.58C256.62 223.17 256.97 223.18 257.32 222.84C258.5 221.68 256.76 219.66 257.6 217.84C258.44 216.02 260.47 216.44 260.96 214.59C261.14 213.88 260.96 213.46 261.34 212.9C261.72 212.34 262.43 212.48 263.34 211.79C263.81 211.44 263.73 211.32 265 209.79C265.74 208.87 266.13 208.41 266.4 208.3C267.2 208 267.5 208.63 269.57 209.03L271.98 209.32C272.674 209.248 273.35 209.059 273.98 208.76C274.377 208.578 274.747 208.342 275.08 208.06C276.259 206.997 277.042 205.566 277.3 204C277.517 203.042 277.604 202.06 277.56 201.08V200.48C277.35 198.63 277.12 196.8 276.9 194.96V194.86C277.3 194.98 277.722 195.016 278.137 194.964C278.552 194.913 278.951 194.775 279.31 194.56C279.457 194.452 279.577 194.312 279.66 194.15C279.711 194.064 279.755 193.973 279.79 193.88C279.841 193.726 279.881 193.569 279.91 193.41C279.935 193.195 279.982 192.984 280.05 192.78C280.146 192.455 280.288 192.145 280.47 191.86L280.6 191.68C281.46 190.49 282.3 190.68 282.84 189.43C282.913 189.266 282.97 189.095 283.01 188.92C283.02 188.544 283.123 188.176 283.31 187.85C283.93 186.85 284.79 187.05 285.16 186.27C285.53 185.49 284.79 184.76 284.61 183.2C284.59 182.984 284.59 182.766 284.61 182.55C284.616 181.792 284.765 181.042 285.05 180.34C288.05 188.84 291.71 201.59 292.05 214.8V217.93C292.05 219.5 292.05 221.02 291.97 222.52C291.96 222.636 291.96 222.753 291.97 222.87C291.85 227.49 291.75 231.74 292.55 235.45C292.535 235.583 292.567 235.717 292.64 235.83C292.75 236.363 292.897 236.887 293.08 237.4C293.352 238.262 293.707 239.096 294.14 239.89C294.571 240.702 295.088 241.466 295.68 242.17C297.361 244.012 298.729 246.116 299.73 248.4C301.58 252.82 301.35 256.93 301.12 260.31Z" fill="black"/>
<path d="M301.12 260.31C300.73 266.15 300.33 272.08 296.2 276.56C295.2 277.66 295.58 276.89 287.4 283.49C286.3 284.37 285.5 285.02 284.87 285.54C283.87 286.38 283.29 286.89 282.69 287.44C281.48 288.56 280.69 289.37 280.1 290C279.893 290.041 279.681 290.058 279.47 290.05C278.829 290.048 278.195 289.912 277.61 289.65L277.15 288.16C276.854 287.608 276.688 286.996 276.663 286.371C276.639 285.745 276.758 285.123 277.01 284.55C277.48 283.71 278.07 283.81 278.59 282.87C278.635 282.802 278.669 282.728 278.69 282.65L278.75 282.48V281.11C278.75 280.59 278.75 280.06 278.8 279.24C278.85 277.88 278.91 277.48 278.64 276.92C278.37 276.36 277.98 276.3 277.32 275.51C276.32 274.3 276.56 273.51 275.59 272.29C275.12 271.736 274.571 271.254 273.96 270.86C272.441 269.633 271.18 268.117 270.25 266.4C268.07 262.86 269.18 261.4 267.54 260.17C266.25 259.17 265.3 259.96 261.31 259.99C258.174 259.93 255.055 259.521 252.01 258.77C249.73 258.269 247.491 257.601 245.31 256.77C242.95 255.92 241.5 255.21 241.22 253.98C241.2 253.871 241.2 253.759 241.22 253.65C241.21 253.55 241.21 253.449 241.22 253.35C241.215 253.341 241.212 253.33 241.212 253.32C241.212 253.309 241.215 253.299 241.22 253.29L241.31 252.98C241.357 252.867 241.394 252.75 241.42 252.63C241.53 252.343 241.53 252.026 241.42 251.74C240.94 250.54 239.19 250.87 237.79 249.42C237.208 248.716 236.794 247.888 236.58 247L236.4 246.64C236.4 246.54 236.29 246.45 236.23 246.35L236 246C235.912 245.892 235.819 245.788 235.72 245.69L235.39 245.36C235.27 245.25 235.12 245.14 234.98 245.03C234.855 244.93 234.725 244.836 234.59 244.75C234.157 244.459 233.698 244.208 233.22 244L232.8 243.81C232.52 243.69 232.21 243.57 231.88 243.46L231.36 243.29C231 243.18 230.63 243.07 230.23 242.97C233.78 243.8 237.23 244.5 240.51 245.16C251.98 247.47 257.7 248.62 263.17 245.91C267.185 243.803 270.435 240.486 272.46 236.43C277.71 226.75 278.59 212.64 277.62 200.94V200.34C277.41 198.49 277.18 196.66 276.96 194.82V194.72C277.36 194.84 277.782 194.876 278.197 194.824C278.612 194.773 279.011 194.635 279.37 194.42C279.517 194.312 279.637 194.172 279.72 194.01C279.771 193.924 279.815 193.833 279.85 193.74C279.901 193.586 279.941 193.429 279.97 193.27C279.995 193.055 280.042 192.844 280.11 192.64C280.206 192.315 280.348 192.005 280.53 191.72L280.66 191.54C281.52 190.35 282.36 190.54 282.9 189.29C282.973 189.126 283.03 188.955 283.07 188.78C283.08 188.404 283.183 188.036 283.37 187.71C283.99 186.71 284.85 186.91 285.22 186.13C285.59 185.35 284.85 184.62 284.67 183.06C284.65 182.844 284.65 182.626 284.67 182.41C284.676 181.652 284.825 180.902 285.11 180.2C288.11 188.7 291.77 201.45 292.11 214.66V217.79C292.11 219.36 292.06 220.89 292.03 222.38C292.02 222.496 292.02 222.613 292.03 222.73C291.91 227.35 291.81 231.6 292.61 235.31C292.595 235.443 292.627 235.577 292.7 235.69C292.81 236.223 292.957 236.747 293.14 237.26C293.412 238.122 293.767 238.956 294.2 239.75C294.631 240.562 295.148 241.326 295.74 242.03C297.421 243.872 298.789 245.976 299.79 248.26C301.58 252.82 301.35 256.93 301.12 260.31Z" fill="black"/>
<path d="M301.12 260.31C300.73 266.15 300.33 272.08 296.2 276.56C295.2 277.66 295.58 276.89 287.4 283.49C286.3 284.37 285.5 285.02 284.87 285.54C283.87 286.38 283.29 286.89 282.69 287.44C281.48 288.56 280.69 289.37 280.1 290C279.893 290.041 279.681 290.058 279.47 290.05C278.829 290.048 278.195 289.912 277.61 289.65L277.15 288.16C276.854 287.608 276.688 286.996 276.663 286.371C276.639 285.745 276.758 285.123 277.01 284.55C277.48 283.71 278.07 283.81 278.59 282.87C278.82 282.43 278.8 282.2 278.8 281.11C283.62 279.83 287.34 277.91 290.18 274.35C291.711 272.302 293.006 270.088 294.04 267.75C296.31 263 299.84 255.6 298.23 248.41C296.62 241.22 291.23 241.3 289.23 233.75C287.4 227.03 289.31 218.38 292.06 217.75C292 227.54 290.77 236.16 295.67 241.99C297.351 243.832 298.719 245.936 299.72 248.22C301.58 252.82 301.35 256.93 301.12 260.31Z" fill="black"/>
<path d="M282.13 218.34C282.049 223.944 281.273 229.516 279.82 234.93C277.6 242.93 276.47 247.04 273.39 250.07C267.39 255.99 254.83 256.78 241.33 253.07C241.377 252.957 241.414 252.84 241.44 252.72C241.55 252.433 241.55 252.116 241.44 251.83C240.96 250.63 239.21 250.96 237.81 249.51C237.228 248.806 236.814 247.978 236.6 247.09L236.42 246.73C236.37 246.63 236.31 246.54 236.25 246.44L236.02 246.11C235.932 246.002 235.839 245.898 235.74 245.8L235.41 245.47C235.29 245.36 235.14 245.25 235 245.14C234.875 245.04 234.745 244.946 234.61 244.86C234.177 244.569 233.718 244.318 233.24 244.11L232.82 243.92C232.54 243.8 232.23 243.68 231.9 243.57L231.38 243.4C231.02 243.29 230.65 243.18 230.25 243.08C233.8 243.91 237.25 244.61 240.53 245.27C252 247.58 257.72 248.73 263.19 246.02C267.205 243.913 270.455 240.596 272.48 236.54C277.73 226.86 278.61 212.75 277.64 201.05V200.45C277.43 198.6 277.2 196.77 276.98 194.93V194.83C277.38 194.95 277.802 194.986 278.217 194.934C278.632 194.883 279.031 194.745 279.39 194.53C279.537 194.422 279.657 194.282 279.74 194.12C279.791 194.034 279.835 193.943 279.87 193.85C279.921 193.696 279.961 193.539 279.99 193.38C280.015 193.165 280.062 192.954 280.13 192.75C280.226 192.425 280.368 192.115 280.55 191.83C281.03 195.83 281.41 200.5 281.85 205.83C282.173 209.991 282.267 214.168 282.13 218.34Z" fill="black"/>
</svg>
