<svg width="307" height="461" viewBox="0 0 307 461" fill="none" xmlns="http://www.w3.org/2000/svg">
<g clip-path="url(#clip0_2635_449677)">
<path d="M203.669 232.78C187.759 222.78 178.019 212.56 176.749 207.23C176.329 205.47 174.899 199.51 177.279 197.38C177.649 197.05 178.619 196.38 178.619 195.38C179.159 195.291 179.71 195.291 180.249 195.38C180.991 195.474 181.688 195.787 182.249 196.28C182.627 196.669 182.899 197.147 183.039 197.67C183.366 198.748 183.802 199.79 184.339 200.78V200.85C184.327 201.119 184.354 201.389 184.419 201.65C184.499 201.92 184.419 201.93 184.469 202.08C184.485 202.292 184.512 202.502 184.549 202.71C184.609 203.14 184.669 203.57 184.749 204.01C184.829 204.45 184.899 204.9 184.989 205.36C185.004 205.488 185.027 205.615 185.059 205.74C185.059 205.87 185.169 206.28 185.239 206.57C185.309 206.86 185.369 207.16 185.449 207.46C185.529 207.76 185.559 207.93 185.629 208.18C185.949 209.38 186.329 210.61 186.779 211.86C186.879 212.12 186.969 212.37 187.069 212.62C187.259 213.13 187.459 213.62 187.689 214.14C187.76 214.344 187.847 214.541 187.949 214.73C187.999 214.85 188.049 214.97 188.109 215.09C188.169 215.21 188.289 215.48 188.379 215.68C188.469 215.88 188.629 216.19 188.759 216.45L189.169 217.22C189.299 217.48 189.439 217.73 189.589 217.99C189.819 218.41 190.059 218.83 190.309 219.24C190.559 219.65 190.659 219.8 190.839 220.08L191.039 220.38C191.259 220.72 191.479 221.05 191.709 221.38L191.819 221.53C192.039 221.84 192.259 222.15 192.499 222.45C192.541 222.531 192.595 222.606 192.659 222.67L193.259 223.45C193.619 223.89 193.969 224.32 194.349 224.74C194.569 225 194.799 225.26 195.039 225.51C195.279 225.76 195.509 226.03 195.749 226.27L196.109 226.64L196.839 227.36C197.419 227.91 198.019 228.46 198.629 228.98C198.989 229.29 199.359 229.6 199.739 229.9L200.739 230.66L200.819 230.72L201.759 231.41C202.365 231.909 203.003 232.366 203.669 232.78Z" fill="#FFEECC" stroke="#282724" stroke-width="0.25" stroke-miterlimit="10"/>
<path d="M120.409 197.38C120.339 197.83 120.049 199.82 118.549 208.44C118.179 210.58 117.039 213.26 114.359 216.6C110.616 220.996 106.328 224.898 101.599 228.21L101.459 228.31L101.069 228.58H101.009L100.869 228.67C101.659 228.1 102.409 227.53 103.139 226.99L103.629 226.59L103.979 226.28C104.439 225.88 104.879 225.46 105.319 225.03L105.869 224.47L106.059 224.27C106.249 224.07 106.429 223.86 106.619 223.65C106.809 223.44 107.179 223 107.459 222.65L107.999 222C108.389 221.48 108.779 220.93 109.139 220.37C109.259 220.19 109.379 220.01 109.489 219.82C109.599 219.63 109.739 219.42 109.859 219.22C112.743 214.256 114.219 208.6 114.129 202.86V200.81C114.139 200.476 114.119 200.141 114.069 199.81V198.89C114.069 198.63 114.009 198.36 113.989 198.09C113.993 197.878 113.97 197.666 113.919 197.46C113.865 197.22 113.831 196.976 113.819 196.73L113.669 195.73C113.645 195.457 113.602 195.187 113.539 194.92C113.539 194.65 113.469 194.53 113.429 194.33C113.259 193.33 113.059 192.4 112.839 191.42L112.659 190.66C112.641 190.475 112.597 190.293 112.529 190.12C113.408 190.309 114.19 190.81 114.729 191.53C115.089 192.1 114.999 192.53 115.589 193.16C116.179 193.79 116.799 193.72 117.399 194.31C118.399 195.31 117.809 196.43 118.549 197.18C118.819 197.363 119.13 197.476 119.454 197.511C119.778 197.546 120.106 197.501 120.409 197.38Z" fill="#FFEECC" stroke="#282724" stroke-width="0.25" stroke-miterlimit="10"/>
<path opacity="0.1" d="M120.409 197.38C120.339 197.83 120.049 199.82 118.549 208.38C118.179 210.54 117.039 213.22 114.359 216.56C110.706 220.844 106.534 224.656 101.939 227.91L102.029 227.83C102.071 227.806 102.108 227.776 102.139 227.74L102.389 227.56C102.407 227.532 102.431 227.508 102.459 227.49L103.139 226.98L103.629 226.58L103.979 226.27C104.429 225.87 104.879 225.45 105.319 225.02L105.869 224.46L106.059 224.26C106.249 224.06 106.429 223.85 106.619 223.64C106.809 223.43 107.179 222.99 107.459 222.64C107.739 222.29 107.839 222.16 108.009 221.92C108.079 221.84 108.129 221.76 108.189 221.68C108.379 221.43 108.549 221.19 108.729 220.94C109.079 220.43 109.419 219.94 109.729 219.38C109.789 219.3 109.839 219.21 109.889 219.14C112.769 214.175 114.242 208.519 114.149 202.78V201.66C114.167 197.696 113.59 193.753 112.439 189.96C113.319 190.161 114.099 190.668 114.639 191.39C114.999 191.95 114.909 192.39 115.499 193.01C116.089 193.63 116.709 193.57 117.309 194.16C118.309 195.16 117.719 196.28 118.469 197.03C118.735 197.251 119.053 197.399 119.393 197.461C119.733 197.522 120.083 197.494 120.409 197.38Z" fill="#282724"/>
</g>
<defs>
<clipPath id="clip0_2635_449677">
<rect width="307" height="461" fill="white"/>
</clipPath>
</defs>
</svg>
