<svg width="307" height="461" viewBox="0 0 307 461" fill="none" xmlns="http://www.w3.org/2000/svg">
<path d="M148.3 225.55C148.3 224.04 148.42 222.41 148.54 220.69C148.5 222.22 148.43 223.85 148.3 225.55Z" fill="black"/>
<path d="M101.07 228.55C101.4 228.31 101.71 228.06 102.07 227.84L101.98 227.92C101.915 227.976 101.845 228.027 101.77 228.07L101.64 228.17L101.5 228.27L101.07 228.55Z" fill="black"/>
<path d="M101.6 228.21C101.559 228.25 101.512 228.283 101.46 228.31L101.6 228.21Z" fill="black"/>
<path d="M108.24 221.7C108.18 221.78 108.13 221.86 108.06 221.94C107.89 222.18 107.7 222.43 107.51 222.66C107.32 222.89 106.96 223.33 106.67 223.66C106.38 223.99 106.3 224.08 106.11 224.28L105.92 224.48L105.37 225.04C104.93 225.47 104.48 225.89 104.03 226.29L103.68 226.6L103.19 227L102.51 227.51C104.633 225.795 106.556 223.846 108.24 221.7Z" fill="black"/>
<path d="M129.87 207C129.585 207.878 129.251 208.739 128.87 209.58C128.757 209.325 128.699 209.049 128.699 208.77C128.699 208.491 128.757 208.215 128.87 207.96C129.08 207.41 129.44 207.29 129.87 207Z" fill="black"/>
<path d="M280.1 290C279.365 290.993 278.457 291.847 277.42 292.52C274.87 294.04 273.35 293.09 268.2 294.22C265.2 294.86 263.51 295.35 259.92 296.29C247.31 299.59 247.56 299.18 244.92 300.18C240.524 301.756 236.456 304.129 232.92 307.18C231.41 308.51 219.81 318.68 221.29 330.1C221.8 333.97 223.75 336.19 222.63 340.1C222.582 340.212 222.545 340.33 222.52 340.45C222.155 341.606 221.71 342.735 221.19 343.83C220.837 344.576 220.439 345.301 220 346C219.613 346.65 219.175 347.269 218.69 347.85C218.54 348.038 218.376 348.215 218.2 348.38C216.259 350.008 213.794 350.878 211.26 350.83H211.14C210.433 350.86 209.725 350.84 209.02 350.77C207.369 350.639 205.739 350.303 204.17 349.77C203.103 349.432 202.071 348.99 201.09 348.45C200.09 347.91 199.31 347.33 198.42 346.83C197.425 346.259 196.321 345.902 195.18 345.78C194.87 345.78 194.53 345.72 194.18 345.71C192.451 345.673 190.723 345.807 189.02 346.11C188.02 346.29 187.72 346.41 187.19 346.45H186.8C186.564 346.47 186.327 346.47 186.09 346.45H185.78C184.1 346.27 183.39 345.45 181.78 345.26C181.1 345.179 180.41 345.279 179.78 345.55C178.281 346.359 176.675 346.955 175.01 347.32H174.79C174.009 347.471 173.216 347.558 172.42 347.58C171.754 347.62 171.087 347.62 170.42 347.58C165.95 347.33 164.23 345.7 161.72 346.24C161.523 346.261 161.33 346.315 161.15 346.4C160.336 346.72 159.492 346.958 158.63 347.11L158.11 347.17C157.29 347.26 156.461 347.26 155.64 347.17C155.754 345.667 155.717 344.156 155.53 342.66C155.357 341.259 155.022 339.883 154.53 338.56C153.82 336.71 153.17 335.23 152.63 334.1C152.21 333.2 151.75 332.31 151.24 331.45L151.19 331.36C150.19 329.85 149.26 328.66 149.39 326.99C149.52 325.32 150.54 325.13 150.94 323.64C151.69 320.76 148.51 319.19 147.71 315.27C147.09 312.18 148.86 312.14 149.14 307.42C149.42 302.7 147.82 301.59 147.58 295.7C147.522 293.763 147.609 291.824 147.84 289.9C148.25 285.8 148.94 283.9 149.64 278.82C149.92 276.82 150.07 275.25 150.16 274.32C150.032 271.486 149.698 268.665 149.16 265.88C148.74 261.07 147.65 260.61 148.34 258.31C149.34 254.9 152.18 254.75 152.64 251.77C152.77 250.94 151.84 248.88 149.98 244.82C149.984 244.78 149.984 244.74 149.98 244.7C148.55 241.56 147.45 239.1 147.21 236.14C147.18 235.554 147.18 234.966 147.21 234.38C147.35 233.6 147.49 232.78 147.62 231.96C147.774 230.96 147.904 229.96 148.01 228.96C148.07 228.6 148.1 228.24 148.14 227.89L148.26 226.69L148.35 225.58V225.49C148.13 229.01 148.321 232.544 148.92 236.02C149.25 237.29 149.64 238.32 149.64 238.32C150.44 240.32 151.3 241.18 152.47 245.52C154.81 254.12 153.08 256.85 152.47 257.67C151.41 259.09 150.71 258.75 149.94 260.08C148.38 262.77 150.61 265.29 151.94 271.22C153.06 276.14 154.01 280.27 152.7 284.89C152.17 286.79 151.3 288.59 152.19 290.21C152.96 291.59 154.63 292.16 156.38 292.49C161.936 293.62 167.708 292.918 172.83 290.49C179.65 286.7 185.13 278.89 184.74 271.49C184.57 268.25 183.45 268.17 181.19 257.94C181.09 257.51 181.01 257.11 180.93 256.74C180.943 256.616 180.919 256.49 180.86 256.38C180.67 255.5 180.54 254.81 180.44 254.25C180.428 254.09 180.395 253.931 180.34 253.78C180.34 253.64 180.34 253.5 180.27 253.37C180.21 253.143 180.163 252.913 180.13 252.68C180.13 252.5 180.06 252.31 180.01 252.12C179.9 251.64 179.76 251.12 179.55 250.47L179.31 249.77C179.18 249.42 179.05 249.07 178.9 248.71C178.75 248.35 178.57 247.9 178.38 247.49C178.19 247.08 178 246.67 177.79 246.24C177.58 245.81 177.45 245.57 177.27 245.24L177.09 244.88C176.57 243.88 175.97 242.81 175.27 241.59C175.11 241.29 174.93 240.97 174.75 240.66C174.42 240.06 174.07 239.45 173.68 238.78C173.941 238.278 174.142 237.748 174.28 237.2C174.732 234.626 174.177 231.977 172.73 229.8C172.157 229.09 171.671 228.315 171.28 227.49C170.793 226.34 170.528 225.108 170.5 223.86C170.38 222.34 169.88 216.38 166.57 214.22C165.64 213.61 164.8 213.51 164.41 212.6C164.02 211.69 164.59 211.11 164.64 209.28C164.657 208.127 164.475 206.98 164.1 205.89C163.4 203.89 162.65 204.15 162.25 202.57C161.85 200.99 162.52 200.8 162.18 198.33C162.141 197.93 162.081 197.533 162 197.14L161.87 196.33C161.329 195.487 160.959 194.546 160.78 193.56C160.68 192.56 161.18 192.25 161.48 191.01C162.2 188.07 160.2 186.62 161.25 185.08C161.71 184.39 162.35 184.33 163.25 182.99C163.477 182.644 163.681 182.283 163.86 181.91C166.69 180.91 168.2 181.34 169.05 181.91C170.014 182.823 171.04 183.669 172.12 184.44C173.12 185.03 173.12 184.9 173.44 185.24C174.66 186.56 173.2 188.24 174.1 190.17C174.21 190.39 174.2 190.3 177.17 193.23C178.17 194.23 178.63 194.68 178.63 195.36C178.63 196.36 177.63 197.04 177.31 197.36C174.92 199.49 176.31 205.45 176.78 207.21C178.05 212.53 187.78 222.77 203.69 232.76C203.719 232.801 203.762 232.829 203.81 232.84H203.86C204.16 233.03 204.46 233.22 204.77 233.4C204.88 233.48 205.01 233.54 205.13 233.62C205.45 233.81 205.76 234 206.07 234.17L207.29 234.85L208.08 235.27L208.74 235.61L209.58 236.03L210.87 236.65L211.38 236.88L212.12 237.21H212.18C212.69 237.44 213.18 237.65 213.72 237.86L215.27 238.48C217.22 239.22 219.19 239.9 221.17 240.48C221.46 240.58 221.76 240.67 222.05 240.75L224.23 241.39L225.23 241.65L226.68 242.03L228.11 242.38L229.53 242.74L230.24 242.9C234.48 243.97 236.03 245.59 236.61 246.9C236.824 247.788 237.238 248.616 237.82 249.32C239.22 250.77 240.97 250.44 241.45 251.64C241.578 252.051 241.542 252.495 241.35 252.88C241.222 253.197 241.19 253.545 241.26 253.88C241.54 255.11 242.99 255.82 245.35 256.67C247.531 257.501 249.771 258.169 252.05 258.67C255.095 259.421 258.215 259.83 261.35 259.89C265.35 259.89 266.29 259.11 267.58 260.07C269.22 261.27 268.11 262.76 270.29 266.3C271.22 268.017 272.481 269.533 274 270.76C274.611 271.154 275.16 271.636 275.63 272.19C276.63 273.45 276.32 274.19 277.36 275.41C278.02 276.2 278.36 276.13 278.68 276.82C279 277.51 278.89 277.82 278.84 279.14C278.84 279.96 278.84 280.56 278.79 281.01C278.874 281.605 278.801 282.211 278.58 282.77C278.06 283.71 277.47 283.61 277 284.45C276.75 285.025 276.636 285.649 276.665 286.275C276.695 286.901 276.867 287.511 277.17 288.06L277.63 289.55C278.216 289.812 278.849 289.949 279.49 289.95C279.691 289.988 279.896 290.005 280.1 290Z" fill="black"/>
<path d="M220.22 269.11C221.071 268.728 221.754 268.049 222.14 267.2C222.886 266.042 223.158 264.643 222.9 263.29C222.23 261.15 218.9 261.29 216.34 261.35H216.21C215.661 261.508 215.174 261.832 214.815 262.278C214.457 262.724 214.246 263.269 214.21 263.84C214.115 264.757 214.365 265.677 214.91 266.42C214.871 265.826 215.052 265.238 215.42 264.77C216.56 263.77 219.54 266.87 219.26 267.88C219.19 268.16 218.81 268.43 217.43 268.32C217.78 268.693 218.224 268.963 218.716 269.103C219.207 269.242 219.728 269.244 220.22 269.11Z" fill="black"/>
<path d="M216.21 261.35C216.84 263.68 219.58 267.41 222.14 267.2C222.886 266.042 223.158 264.643 222.9 263.29C222.23 261.15 218.9 261.29 216.34 261.35H216.21Z" fill="black"/>
<path d="M212.68 259.91C213.37 259.05 214.16 259.12 220.68 260.61C222.68 261.07 223.68 261.32 224.17 262.21C225.1 264.02 224.1 267.02 223.17 268.6C223.03 268.85 221.35 271.67 218.55 271.8C217.226 271.823 215.942 271.34 214.96 270.45C214.96 270.45 218.69 271.08 220.73 269.82C221.623 269.161 222.315 268.268 222.73 267.24C223.11 266.48 223.94 264.76 223.49 263.33C223.31 262.78 222.83 261.96 219.05 261.19C215.27 260.42 213.51 260.74 213.2 261.19C212.1 262.65 212.33 265.92 213.62 269.13C212.642 267.808 212.037 266.246 211.87 264.61C211.81 263.92 211.53 261.34 212.68 259.91Z" fill="black"/>
<path d="M221.24 343.79C221.02 344.25 220.79 344.71 220.55 345.15L220.05 345.99L219.42 346.99C219.077 347.494 218.685 347.963 218.25 348.39C217.869 348.773 217.442 349.109 216.98 349.39C216.756 349.538 216.518 349.665 216.27 349.77C216.038 349.887 215.797 349.987 215.55 350.07H215.49C214.154 350.549 212.75 350.809 211.33 350.84H211.21C210.503 350.87 209.795 350.85 209.09 350.78L207.86 350.65L206.7 350.46L206.45 350.4C206.12 350.34 205.78 350.26 205.45 350.17H205.38C205.03 350.08 204.69 349.98 204.38 349.87L203.59 349.61L202.9 349.34L202.55 349.18L201.87 348.87L201.23 348.54C200.69 348.24 200.23 347.94 199.73 347.63C199.23 347.32 198.99 347.16 198.61 346.95C198.247 346.75 197.873 346.57 197.49 346.41C197.24 346.31 196.98 346.22 196.72 346.14C196.262 346.011 195.794 345.92 195.32 345.87C195.03 345.87 194.67 345.81 194.32 345.8H193C192.64 345.792 192.279 345.809 191.92 345.85H191.39L190.57 345.94H190.32L189.7 346.03L189.07 346.13C188.68 346.2 188.41 346.25 188.17 346.31H188C187.63 346.399 187.251 346.449 186.87 346.46C186.538 346.49 186.203 346.49 185.87 346.46C185.492 346.429 185.12 346.352 184.76 346.23C184.27 346.07 183.84 345.87 183.38 345.69C182.879 345.489 182.355 345.352 181.82 345.28H181.56C181.074 345.241 180.584 345.298 180.12 345.45L179.77 345.58C179.34 345.75 178.91 345.99 178.4 346.23L178.03 346.4L177.68 346.56C177.39 346.68 177.08 346.8 176.74 346.91L176.06 347.1H176L175.61 347.2L175.15 347.3C174.86 347.35 174.56 347.41 174.28 347.44H173.94L173.41 347.5H172.74C172.018 347.55 171.293 347.55 170.57 347.5C166.73 347.28 164.92 346.05 162.9 346.05C162.565 346.061 162.23 346.098 161.9 346.16C161.713 346.19 161.529 346.237 161.35 346.3C160.536 346.62 159.692 346.858 158.83 347.01L158.3 347.07C158.04 347.07 157.79 347.13 157.56 347.14C156.985 347.19 156.406 347.19 155.83 347.14C155.944 345.637 155.907 344.126 155.72 342.63C155.547 341.229 155.212 339.853 154.72 338.53C154.01 336.68 153.36 335.2 152.82 334.07C153.13 332.35 153.41 330.47 153.68 328.43C153.81 327.36 153.99 325.95 154.13 324.16C154.48 319.73 154.2 318.43 154.48 318.38C155.27 318.21 158.25 328.06 160.6 339.28C160.811 339.168 161.028 339.068 161.25 338.98L161.71 338.84C163.769 338.18 165.982 338.18 168.04 338.84C169.064 339.293 169.968 339.977 170.68 340.84C171.143 339.223 171.732 337.645 172.44 336.12C175.67 329.34 171.44 321.76 172.39 321.45C173.34 321.14 177.39 328.36 179.09 337.45C179.28 338.45 179.41 339.38 179.53 340.28C180.205 340.062 180.921 340.007 181.62 340.12C183.97 340.49 183.86 341.99 186.11 342.5L186.61 342.57C186.67 341.86 186.69 341.13 186.68 340.41C186.664 339.579 186.587 338.75 186.45 337.93C186.01 335.677 185.339 333.476 184.45 331.36C182.87 326.84 183.56 322.21 184.05 322.14C184.54 322.07 184.51 327.39 188.18 332.99C189.69 335.27 190.62 335.78 191.97 338.32C192.3 338.93 192.57 339.53 192.82 340.11C193.808 339.588 194.944 339.419 196.04 339.63C197.326 339.973 198.477 340.698 199.34 341.71C199.491 339.176 199.259 336.634 198.65 334.17C197.83 330.86 196.36 328.85 196.78 328.56C197.43 328.12 202.08 332.13 204.11 337.76C204.791 339.688 205.149 341.715 205.17 343.76C205.609 343.89 206.014 344.111 206.36 344.41C207.48 345.41 207.51 346.82 208.45 346.89C208.729 346.901 209.002 346.805 209.21 346.62C209.052 342.509 208.298 338.444 206.97 334.55C205.39 329.91 203.73 325.99 204.32 325.67C204.91 325.35 207.4 328.67 209.1 331.35C211.6 335.24 214.88 341.57 215.71 346.1C216.64 346.1 217.09 346.93 217.65 346.67C218.21 346.41 218.15 345.84 218.65 345.15C218.97 344.763 219.364 344.443 219.809 344.209C220.253 343.976 220.74 343.833 221.24 343.79Z" fill="black"/>
<path d="M280.1 290C279.365 290.993 278.457 291.847 277.42 292.52C274.87 294.04 273.35 293.09 268.2 294.22C265.2 294.86 263.51 295.35 259.92 296.29C247.31 299.59 247.56 299.18 244.92 300.18C240.524 301.756 236.456 304.129 232.92 307.18C231.41 308.51 219.81 318.68 221.29 330.1C221.8 333.97 223.75 336.19 222.63 340.1C222.582 340.212 222.545 340.33 222.52 340.45C222.155 341.606 221.71 342.735 221.19 343.83C220.535 345.282 219.695 346.643 218.69 347.88C218.061 344.288 217.199 340.74 216.11 337.26C215.36 334.85 215.11 334.26 214.29 332.17C214.29 332.17 213.63 330.52 212.2 326.25C210.34 320.66 205.97 307.54 211.2 299.53C211.87 298.53 213.39 296.53 220.06 293.32C232.3 287.45 242.06 286.54 262.41 283.84C268.89 282.98 274.24 282.34 278.67 281.15C278.754 281.745 278.681 282.351 278.46 282.91C277.94 283.85 277.35 283.75 276.88 284.59C276.63 285.164 276.516 285.789 276.545 286.415C276.575 287.041 276.747 287.651 277.05 288.2L277.51 289.69L280.1 290Z" fill="black"/>
<path d="M219.16 329.42C216.7 320.8 216.75 311.72 220.42 303.42C222.74 298.17 226.42 293.81 230.34 289.66C228.53 290.18 226.81 290.74 225.13 291.33C223.02 292.08 220.98 292.9 220.13 293.27C217.703 294.521 215.561 296.262 213.84 298.383C212.119 300.503 210.856 302.957 210.13 305.59C209.28 309.09 210.49 312.85 212.91 320.36C215.96 329.84 218.43 332.66 218.96 339.71C219.161 342.418 219.08 345.139 218.72 347.83C219.725 346.593 220.565 345.232 221.22 343.78C221.74 342.685 222.185 341.556 222.55 340.4C222.575 340.28 222.612 340.162 222.66 340.05C222.73 339.79 222.79 339.55 222.84 339.31C221.38 336.105 220.15 332.8 219.16 329.42Z" fill="black"/>
<path d="M171.27 343.76C172.09 344.85 172.27 345.76 172.44 347.64C171.774 347.68 171.107 347.68 170.44 347.64C165.97 347.39 164.25 345.76 161.74 346.3C161.543 346.32 161.35 346.375 161.17 346.46C160.356 346.78 159.512 347.018 158.65 347.17L158.13 347.23C159.71 343.39 160.73 341.38 162.81 340.67C165.75 339.64 169.42 341.28 171.27 343.76Z" fill="black"/>
<path d="M186.12 346.49H185.81C184.13 346.31 183.42 345.49 181.81 345.3C181.13 345.219 180.44 345.319 179.81 345.59C178.3 346.396 176.684 346.989 175.01 347.35H174.79C174.88 347.04 174.98 346.71 175.1 346.35C175.6 344.94 176.77 341.59 179.37 341.02C180.506 340.84 181.669 341.071 182.65 341.67C184.33 342.63 185.34 344.16 186.12 346.49Z" fill="black"/>
<path d="M220 346C219.613 346.65 219.175 347.269 218.69 347.85C218.54 348.038 218.376 348.215 218.2 348.38C216.259 350.008 213.794 350.878 211.26 350.83H211.14C210.433 350.86 209.725 350.84 209.02 350.77C207.369 350.639 205.739 350.303 204.17 349.77C203.103 349.432 202.071 348.99 201.09 348.45C200.09 347.91 199.31 347.33 198.42 346.83C197.425 346.259 196.321 345.902 195.18 345.78C194.87 345.78 194.53 345.72 194.18 345.71C192.451 345.673 190.723 345.807 189.02 346.11C188.02 346.29 187.72 346.41 187.19 346.45C187.67 345.81 188.4 345.32 190.3 343.14C192.2 340.96 192.2 340.64 192.94 340.39C194.84 339.72 197.36 341.31 198.76 342.9C200 344.31 200.26 345.65 200.42 347.96C200.668 347.2 201.036 346.484 201.51 345.84C201.93 345.27 202.91 343.99 204.2 344C204.754 344.089 205.281 344.303 205.738 344.627C206.196 344.952 206.573 345.377 206.84 345.87C207.333 346.568 207.765 347.307 208.13 348.08C208.36 346.93 208.76 346.26 209.4 345.98C209.742 345.875 210.101 345.839 210.457 345.875C210.812 345.911 211.157 346.018 211.47 346.19C212.053 346.499 212.535 346.967 212.86 347.54C212.936 347.367 213.03 347.203 213.14 347.05C213.548 346.525 214.096 346.126 214.72 345.9C215.426 345.668 216.194 345.722 216.86 346.05C217.115 346.196 217.336 346.394 217.51 346.63C217.51 345.43 217.65 344.5 218.1 344.36C218.55 344.22 219.59 345.34 220 346Z" fill="black"/>
<path d="M241.33 253C230.274 249.901 220.033 244.412 211.33 236.92L212.07 237.25H212.13C212.64 237.48 213.13 237.69 213.67 237.9L215.22 238.52C217.17 239.26 219.14 239.94 221.12 240.52C221.41 240.62 221.71 240.71 222 240.79L224.18 241.43L225.18 241.69L226.63 242.07L228.06 242.42L229.48 242.78L230.19 242.94C234.43 244.01 235.98 245.63 236.56 246.94C236.774 247.828 237.188 248.656 237.77 249.36C239.17 250.81 240.92 250.48 241.4 251.68C241.479 251.893 241.513 252.12 241.501 252.347C241.489 252.574 241.431 252.796 241.33 253Z" fill="black"/>
<path d="M155.66 347.23H154.66C154.403 347.231 154.149 347.169 153.92 347.05C153.728 346.988 153.541 346.911 153.36 346.82C152.425 346.351 151.405 346.072 150.36 346C150.2 346.019 150.044 346.067 149.9 346.14C149.29 346.49 149.63 347.24 148.97 347.85C148.11 348.64 146.58 348.1 146.09 348.15C144.61 348.27 142.6 348.41 140.14 348.48C139.14 348.48 138.02 348.48 136.85 348.48H134.34C133.42 348.48 132.47 348.42 131.49 348.38C129.59 348.29 127.57 348.16 125.44 347.95C124.44 347.85 123.44 347.73 122.33 347.6L121.69 347.52L120.69 347.38L120.02 347.28C118.42 347.03 117.17 346.79 116.14 346.56L115.85 346.49L115.43 346.38H115.27L115.08 346.32H115C113.44 345.88 112.54 345.18 111.35 345.18C111.181 345.164 111.01 345.164 110.84 345.18C109.26 345.43 108.53 346.46 107.26 347.52C106.301 348.327 105.213 348.966 104.04 349.41C103.525 349.619 102.998 349.796 102.46 349.94C101.24 350.28 99.9205 350.54 98.4005 350.84C97.9705 350.93 97.5405 351.01 97.1205 351.06C94.4716 351.47 91.7779 351.5 89.1205 351.15C89 351.081 88.8891 350.997 88.7905 350.9C88.2714 350.519 87.7983 350.08 87.3805 349.59C87.0725 349.253 86.7916 348.891 86.5405 348.51C86.4105 348.31 86.2805 348.14 86.1805 347.96L86.0905 347.78C85.9105 347.47 85.7505 347.18 85.6105 346.88C85.6105 346.75 85.5005 346.61 85.4605 346.49C85.19 345.846 84.9888 345.176 84.8605 344.49C84.7936 344.22 84.7468 343.946 84.7205 343.67C84.5905 342.88 84.5505 342.12 84.4805 341.42C84.4628 341.027 84.416 340.636 84.3405 340.25C83.8805 337.25 82.8305 334.34 82.2005 331.36C80.8605 325.09 78.8805 315.64 72.5605 308.09C63.6905 297.51 49.6505 294.63 46.9705 294.09C44.0305 293.54 39.9105 293.09 32.6805 291.43C23.5205 289.31 21.9305 288.34 20.6805 287.1C21.0689 287.394 21.5123 287.608 21.9847 287.728C22.457 287.848 22.9486 287.873 23.4305 287.8C25.6005 287.16 25.9705 283.19 26.0005 282.8C26.1805 280.55 25.3205 280.64 25.2905 277.8V276.09C25.3108 275.881 25.3476 275.673 25.4005 275.47C25.3905 275.397 25.3905 275.323 25.4005 275.25C25.3932 275.134 25.4103 275.019 25.4505 274.91V273.91C25.481 273.725 25.501 273.538 25.5105 273.35V272C25.4022 271.144 25.4292 270.277 25.5905 269.43C25.9305 268.02 26.5905 267.77 27.2605 266.09C27.8705 264.59 27.4505 264.58 28.1005 262.98C28.5223 261.716 29.2035 260.555 30.1005 259.57C31.1005 258.57 31.5205 258.57 31.9705 257.7C32.5805 256.48 31.9705 255.82 32.4905 255.24C33.3505 254.24 35.1405 255.95 37.8305 255.24C39.2152 254.846 40.5405 254.268 41.7705 253.52C42.4317 253.047 43.2027 252.751 44.0105 252.66C44.6698 252.642 45.325 252.768 45.9305 253.03C47.358 253.35 48.8314 253.411 50.2805 253.21C53.8005 253.03 55.7805 252.92 57.8305 251.73C59.8805 250.54 60.2505 249.26 62.6205 248.6C64.0705 248.19 64.0205 248.66 65.2005 248.23C67.7005 247.34 67.8705 245.31 70.5405 244.36C71.2194 244.229 71.8878 244.048 72.5405 243.82C74.2605 243.02 74.1205 242.07 75.5405 241.42C77.1305 240.68 78.6505 241.25 79.0005 240.42C79.1205 240.13 79.0005 240.01 79.1305 239.62C79.4105 238.98 79.9805 238.88 80.4705 238.42C80.9407 237.92 81.2111 237.266 81.2305 236.58L82.7005 236.19C83.2005 236.07 83.6905 235.94 84.1705 235.8L84.5405 235.69C85.2705 235.48 86.0005 235.28 86.7205 235.06L87.1105 234.94L87.3405 234.88L88.4805 234.51C89.4005 234.2 90.3305 233.88 91.2405 233.51L91.9105 233.24L92.4705 233.04H92.5605C93.3005 232.75 94.0505 232.44 94.8205 232.04C96.9076 231.087 98.9142 229.967 100.82 228.69L100.96 228.6H101L101.39 228.32L101.53 228.22C106.262 224.914 110.55 221.016 114.29 216.62C116.97 213.28 118.11 210.62 118.48 208.44C119.98 199.83 120.27 197.84 120.34 197.44V197.3C120.2 195.7 119.72 192.7 121.4 191.19C122.14 190.51 123.02 190.38 123.53 189.32C124.04 188.26 123.4 187.6 123.93 186.51C124.46 185.42 125.11 185.83 126.72 184.38C127.97 183.28 128.25 182.48 128.99 182.52C129.73 182.56 129.99 183.29 130.59 183.19C131.19 183.09 131.26 182.4 131.92 181.99C132.314 181.802 132.747 181.71 133.183 181.72C133.619 181.731 134.046 181.844 134.43 182.05C135.96 183.05 137.76 184.6 138.09 186.78C138.37 188.62 137.33 189.13 136.33 192.87C135.18 197.14 136.07 198.28 134.57 200.03C133.36 201.45 132.3 201.28 131.57 202.87C130.92 204.28 131.41 205.19 130.48 206.39C130.281 206.653 130.037 206.88 129.76 207.06C129.33 207.35 128.97 207.47 128.76 208.06C128.647 208.315 128.589 208.591 128.589 208.87C128.589 209.149 128.647 209.425 128.76 209.68C129.027 210.279 129.193 210.917 129.25 211.57C129.25 213.44 127.48 214.29 125.86 216.16C123.761 218.662 122.614 221.824 122.62 225.09C122.642 226.228 122.88 227.351 123.32 228.4C123.08 228.9 122.85 229.4 122.63 229.91C122.55 230.09 122.47 230.26 122.41 230.44C122.24 230.84 122.09 231.25 121.92 231.65V231.74L121.62 232.57V232.67L121.28 233.67V233.82C121.255 233.915 121.225 234.008 121.19 234.1C121.11 234.35 121.04 234.6 120.96 234.84C120.917 234.961 120.88 235.085 120.85 235.21C120.85 235.33 120.77 235.46 120.74 235.58C120.71 235.7 120.64 235.89 120.61 236.05C120.45 236.56 120.32 237.05 120.18 237.58L120.12 237.78C119.97 238.39 119.81 239 119.66 239.6C119.66 239.7 119.64 239.79 119.6 239.87C119.47 240.4 119.34 240.94 119.22 241.47C119.208 241.566 119.184 241.66 119.15 241.75C119.01 242.34 118.87 242.92 118.74 243.49C118.723 243.659 118.689 243.827 118.64 243.99C118.55 244.36 118.48 244.72 118.41 245.06C118.422 245.176 118.394 245.292 118.33 245.39C118.33 245.59 118.26 245.79 118.22 245.98C118.229 246.079 118.212 246.179 118.17 246.27C118.16 246.34 118.16 246.41 118.17 246.48C118.155 246.693 118.118 246.904 118.06 247.11C118.06 247.32 118.01 247.43 117.99 247.6C117.98 247.686 117.98 247.774 117.99 247.86C118.016 247.999 118.016 248.141 117.99 248.28C117.94 248.41 117.99 248.28 117.99 248.33V250.97C117.981 250.999 117.981 251.031 117.99 251.06V251.49C118.002 251.898 117.982 252.305 117.93 252.71V256L117.87 256.46C117.849 256.719 117.808 256.976 117.75 257.23C117.75 257.5 117.68 257.63 117.64 257.83V257.9C117.617 258.073 117.58 258.243 117.53 258.41C117.496 258.599 117.449 258.786 117.39 258.97C117.33 259.16 117.39 259.2 117.3 259.32C117.259 259.444 117.226 259.571 117.2 259.7C117.14 259.91 117.07 260.12 117.01 260.35C116.95 260.58 116.78 261.08 116.64 261.47C116.5 261.86 116.49 261.94 116.4 262.18C114.5 267.46 112.96 268.9 113.12 272.62C113.4 278.62 117.8 282.9 120.49 285.49C122.63 287.58 127.77 292.56 135.21 292.86C137.3 292.94 141.89 293.13 143.8 290.41C145.51 287.97 143.47 285.41 145.44 281.2C146.58 278.74 147.44 279.2 148.71 276.7C150.55 273.07 150.22 269.27 149.93 266.07C150.468 268.855 150.802 271.676 150.93 274.51C150.84 275.44 150.69 277.05 150.41 279.01C149.71 284.1 149.02 286.01 148.61 290.09C148.379 292.014 148.292 293.953 148.35 295.89C148.59 301.78 150.16 303.03 149.91 307.61C149.66 312.19 147.91 312.37 148.48 315.46C149.28 319.38 152.48 320.95 151.71 323.83C151.31 325.32 150.28 325.53 150.16 327.18C150.04 328.83 151 330.04 151.96 331.55V331.64C152.47 332.5 152.96 333.39 153.35 334.29C153.89 335.42 154.54 336.9 155.25 338.75C155.742 340.073 156.077 341.449 156.25 342.85C156.197 344.326 155.999 345.793 155.66 347.23Z" fill="black"/>
<path d="M71.1505 271.76C70.1021 271.443 69.199 270.767 68.6005 269.85C67.6005 268.58 67.1405 267.02 67.6005 265.94C68.4905 263.8 72.9005 263.94 76.3205 264H76.4905C77.1315 264.089 77.7282 264.378 78.1965 264.825C78.6648 265.271 78.981 265.854 79.1005 266.49C79.1505 266.961 79.0938 267.438 78.9345 267.885C78.7753 268.331 78.5176 268.736 78.1805 269.07C78.1946 268.762 78.141 268.455 78.0235 268.17C77.906 267.884 77.7275 267.629 77.5005 267.42C76.0105 266.42 72.0105 269.55 72.3905 270.55C72.4905 270.83 72.9905 271.1 74.8205 270.99C74.2977 271.37 73.7004 271.635 73.0679 271.768C72.4353 271.9 71.7819 271.898 71.1505 271.76Z" fill="black"/>
<path d="M76.4905 264C75.6505 266.33 72.0005 270.06 68.6005 269.85C67.6005 268.58 67.1405 267.02 67.6005 265.94C68.4905 263.8 72.9005 263.94 76.3205 264H76.4905Z" fill="black"/>
<path d="M81.1805 262.55C80.2705 261.69 79.1805 261.76 70.6105 263.25C67.9205 263.71 66.6105 263.96 65.9705 264.85C64.7405 266.66 66.0605 269.66 67.2805 271.24C68.0197 272.175 68.9477 272.943 70.004 273.494C71.0603 274.045 72.2211 274.368 73.4105 274.44C75.1044 274.49 76.7728 274.019 78.1905 273.09C78.1905 273.09 73.1905 273.72 70.5105 272.46C69.3889 271.877 68.4612 270.981 67.8405 269.88C67.3405 269.12 66.2305 267.4 66.8405 265.97C67.0705 265.42 67.7105 264.6 72.7305 263.83C77.5905 263.08 80.0905 263.38 80.5105 263.83C81.9705 265.29 81.6705 268.56 79.9605 271.77C81.1917 270.546 82.0038 268.964 82.2805 267.25C82.3405 266.55 82.7105 264 81.1805 262.55Z" fill="black"/>
<path d="M155.55 342.72C155.737 344.216 155.774 345.727 155.66 347.23H154.66C154.403 347.231 154.149 347.169 153.92 347.05L152.71 346.59L151.83 346.27H151.76C151.311 346.108 150.838 346.023 150.36 346.02C150.187 346.039 150.018 346.087 149.86 346.16C149.25 346.51 149.59 347.26 148.93 347.87C148.07 348.66 146.54 348.12 146.05 348.17C144.58 348.29 142.55 348.42 140.05 348.5H133.63C131.1 348.43 128.32 348.28 125.35 347.99H125.08C123.94 347.88 122.8 347.74 121.6 347.59C119.716 347.367 117.846 347.033 116 346.59L115.71 346.52L115.29 346.41H115.13L114.94 346.35H114.82C113.26 345.91 112.36 345.21 111.17 345.21C110.999 345.211 110.829 345.228 110.66 345.26C109.08 345.51 108.35 346.54 107.08 347.6C106.763 347.867 106.429 348.114 106.08 348.34L105.81 348.5C105.509 348.698 105.195 348.875 104.87 349.03C104.842 349.057 104.808 349.077 104.77 349.09C104.47 349.23 104.16 349.37 103.86 349.49C103.35 349.68 102.86 349.87 102.28 350.03L101.72 350.17L101.36 350.27C100.36 350.5 99.3605 350.71 98.2205 350.93C95.1551 351.542 92.0098 351.647 88.9105 351.24C88.7901 351.171 88.6791 351.087 88.5805 350.99C87.6947 350.333 86.9328 349.524 86.3305 348.6C86.2005 348.4 86.0705 348.23 85.9705 348.05L85.8805 347.87C85.7005 347.56 85.5405 347.27 85.4005 346.97C85.4005 346.84 85.2905 346.7 85.2505 346.58C84.98 345.936 84.7788 345.266 84.6505 344.58C84.6226 344.314 84.5792 344.051 84.5205 343.79C84.3905 343 84.3505 342.24 84.2805 341.54C84.2628 341.147 84.216 340.756 84.1405 340.37C83.6805 337.37 82.6305 334.46 82.0005 331.48C80.6605 325.21 78.6805 315.76 72.3605 308.21C63.4905 297.63 49.4505 294.75 46.7705 294.21C43.8305 293.66 39.7105 293.21 32.4805 291.55C23.3205 289.43 21.7305 288.46 20.4805 287.22C20.8689 287.514 21.3123 287.728 21.7847 287.848C22.257 287.968 22.7486 287.993 23.2305 287.92C25.4005 287.28 25.7705 283.31 25.8005 282.92C25.9805 280.67 25.1205 280.76 25.0905 277.87V276.33C25.1126 276.064 25.1561 275.799 25.2205 275.54C25.2105 275.467 25.2105 275.393 25.2205 275.32C25.2358 275.111 25.2692 274.903 25.3205 274.7V274.42C25.3205 274.13 25.4005 273.82 25.4205 273.42C26.2352 274.372 27.2015 275.183 28.2805 275.82C32.3705 278.29 35.8105 277.28 42.0405 277.14C46.3979 277.06 50.7525 277.411 55.0405 278.19C57.3994 278.553 59.7363 279.048 62.0405 279.67C70.247 281.943 78.0099 285.587 85.0005 290.45C85.4899 290.755 85.9607 291.089 86.4105 291.45C90.8853 294.749 94.4863 299.092 96.9005 304.1C97.9705 306.47 98.9905 309.89 96.2605 329.22C95.3605 335.56 94.4705 340.77 93.8205 344.32C95.0069 343.949 96.1692 343.505 97.3005 342.99C97.3705 342.99 97.5705 342.85 97.8605 342.74C98.8005 336.47 99.8605 334.52 103.44 320.74C105.58 312.44 106.15 309.35 106.44 309.4C106.73 309.45 106.59 315.59 104.96 322.14C103.69 327.26 103.13 326.47 102.38 330.36C101.733 334.245 101.558 338.193 101.86 342.12C102.196 342.092 102.53 342.046 102.86 341.98C103.278 341.898 103.688 341.788 104.09 341.65C104.453 337.973 105.35 334.369 106.75 330.95C107.85 328.37 109.26 325.89 111.16 320.58C114.62 310.88 115.28 304.06 115.7 304.12C116.12 304.18 116.2 312.68 113.92 322.48C112.75 327.48 111.61 330.19 110.98 335.88L110.86 337.09C114.53 336.73 116.22 341.21 119.51 342.5C119.222 338.409 119.559 334.299 120.51 330.31C120.8 329.19 121.63 326.18 122.94 320.92C125.49 310.69 126.61 304.92 126.94 304.92C127.27 304.92 122.41 320.07 124.53 337.66C124.66 338.73 124.83 339.92 124.98 341.28C126.14 340.115 127.659 339.376 129.29 339.18C130.402 339.047 131.528 339.264 132.51 339.8V339.65C137.23 320.88 135.29 309 136.92 309C137.39 309 138.22 316.66 139.7 341.73C141.041 340.75 142.53 339.99 144.11 339.48C145.7 338.97 148.58 338.04 151.11 339.33L151.54 339.58C151.87 337.96 152.22 336.19 152.54 334.2C153.08 335.33 153.73 336.81 154.44 338.66C154.964 339.967 155.336 341.329 155.55 342.72Z" fill="black"/>
<path d="M90.8105 349.43C92.0105 350.69 93.8105 351.2 93.6805 351.61C93.5505 352.02 91.0005 351.61 89.0205 351.22L88.6905 350.97C87.8047 350.313 87.0428 349.504 86.4405 348.58C86.3105 348.38 86.1805 348.21 86.0805 348.03L85.9905 347.85C85.8105 347.54 85.6505 347.25 85.5105 346.95C85.5105 346.82 85.4005 346.68 85.3605 346.56C85.09 345.917 84.8888 345.246 84.7605 344.56C85.0505 342.07 85.4105 339.29 85.6805 336.26C86.3505 328.41 88.5205 303.02 75.6805 288.64C72.022 284.623 67.4399 281.558 62.3305 279.71C70.4325 282.003 78.0946 285.632 85.0005 290.45C85.6705 290.9 86.0005 291.12 86.4105 291.45C95.2105 298.22 95.0405 311.07 94.9905 315.18C94.9305 320.31 93.9905 324.13 92.4605 330.66C90.4105 339.33 87.7005 346.18 90.8105 349.43Z" fill="black"/>
<path d="M119.31 343.55C120.12 344.44 120.5 345.43 120.66 347.55L119.99 347.45C118.39 347.2 117.14 346.96 116.11 346.73L115.82 346.66L115.4 346.55H115.24L115.05 346.49H114.93C113.37 346.05 112.47 345.35 111.28 345.35C111.111 345.334 110.94 345.334 110.77 345.35C109.19 345.6 108.46 346.63 107.19 347.69C106.231 348.497 105.143 349.136 103.97 349.58C103.455 349.789 102.928 349.966 102.39 350.11C101.17 350.45 99.8505 350.71 98.3305 351.01C97.9005 351.1 97.4705 351.18 97.0505 351.23C94.4016 351.64 91.7079 351.67 89.0505 351.32C88.9301 351.251 88.8191 351.167 88.7205 351.07C88.2014 350.689 87.7283 350.25 87.3105 349.76C87.7405 348.13 88.5305 345.4 89.3105 345.46C89.8605 345.46 90.1905 347 90.3705 347.99C90.7705 346.99 91.2105 346.35 91.7005 346.36C92.5705 346.36 93.3605 348.51 93.8605 350.78C94.6505 348.66 95.8605 346.16 97.3105 346.21C98.3105 346.21 99.2305 347.58 99.9405 349.59C100.61 346.36 101.26 344.18 102.18 344.11C103.1 344.04 103.85 345.61 104.66 347.99C106.07 343.12 108.47 338.41 110.92 338.44C111.44 338.44 111.55 338.67 115.63 341.21C118.67 343 118.86 343.05 119.31 343.55Z" fill="black"/>
<path d="M133.89 344.76C134.47 346.14 134.28 346.93 134.36 348.56C133.44 348.56 132.49 348.5 131.51 348.46C129.61 348.37 127.59 348.24 125.51 348.03C124.51 347.93 123.51 347.81 122.4 347.68C122.227 346.42 122.374 345.137 122.83 343.95C123.72 342.07 125.96 339.95 128.67 340.19C132.07 340.44 133.71 344.28 133.89 344.76Z" fill="black"/>
<path d="M152.34 344.1C152.831 344.963 153.169 345.903 153.34 346.88C152.405 346.411 151.385 346.132 150.34 346.06C150.18 346.079 150.024 346.127 149.88 346.2C149.27 346.55 149.61 347.3 148.95 347.91C148.09 348.7 146.56 348.16 146.07 348.21C144.59 348.33 142.58 348.47 140.12 348.54C139.12 348.54 138 348.54 136.83 348.54C137.3 345.26 137.48 344.39 138.24 343.26C139.88 340.81 143.35 338.48 146.83 339.26C150 340 151.64 342.87 152.34 344.1Z" fill="black"/>
<path d="M129.87 207C129.44 207.29 129.08 207.41 128.87 208C128.757 208.255 128.699 208.531 128.699 208.81C128.699 209.089 128.757 209.365 128.87 209.62C125.325 213.572 122.605 218.192 120.87 223.21C118.4 230.51 119.64 234.38 118.39 245.04C117.19 255.15 114.39 266.27 112.39 266.17C109.6 266.02 112.15 244.11 103.03 240.31C99.7905 238.96 97.0305 240.7 89.7505 243.1C81.783 245.728 73.5498 247.469 65.2005 248.29C67.7005 247.4 67.8705 245.37 70.5405 244.42C71.2194 244.289 71.8878 244.108 72.5405 243.88C74.2605 243.08 74.1205 242.13 75.5405 241.48C77.1305 240.74 78.6505 241.31 79.0005 240.48C79.1205 240.19 79.0005 240.07 79.1305 239.68C79.4105 239.04 79.9805 238.94 80.4705 238.48C80.9407 237.98 81.2111 237.326 81.2305 236.64L82.7005 236.25C83.2005 236.13 83.6905 236 84.1705 235.86L84.5405 235.75C85.2705 235.54 86.0005 235.34 86.7205 235.12L87.1105 235L87.3405 234.94L88.4805 234.57C89.4005 234.26 90.3305 233.94 91.2405 233.57L91.9105 233.3L92.4705 233.1H92.5605C93.3005 232.81 94.0505 232.5 94.8205 232.1C96.9076 231.147 98.9142 230.027 100.82 228.75L100.96 228.66H101L101.39 228.38C101.442 228.353 101.489 228.32 101.53 228.28L101.66 228.18L101.87 228.03C106.465 224.776 110.637 220.964 114.29 216.68C116.97 213.34 118.11 210.68 118.48 208.5C119.98 199.89 120.27 197.9 120.34 197.5V197.36C120.2 195.76 119.72 192.76 121.4 191.25C122.14 190.57 123.02 190.44 123.53 189.38C124.04 188.32 123.4 187.66 123.93 186.57C124.46 185.48 125.11 185.89 126.72 184.44C127.97 183.34 128.25 182.54 128.99 182.58C129.73 182.62 129.99 183.35 130.59 183.25C133.39 190.6 132.71 199 129.87 207Z" fill="black"/>
</svg>
