<svg width="307" height="461" viewBox="0 0 307 461" fill="none" xmlns="http://www.w3.org/2000/svg">
<g clip-path="url(#clip0_2635_449673)">
<path d="M300.839 220.08C299.601 227.523 297.861 234.873 295.629 242.08C293.789 247.86 292.029 252.08 290.299 257.95C287.299 255.24 287.749 246.09 286.929 213.3C286.929 212.3 286.879 211.44 286.859 210.58V189.16C290.093 182.935 290.977 175.754 289.349 168.93C290.237 168.662 291.153 168.497 292.079 168.44C295.449 168.23 296.929 169.78 298.129 168.75C299.329 167.72 298.739 166.59 300.129 164.9C300.816 164.134 301.654 163.518 302.589 163.09C304.101 162.148 305.315 160.795 306.089 159.19C306.999 184.55 303.389 205.82 300.839 220.08Z" fill="#F4D58C" stroke="#282724" stroke-width="0.25" stroke-miterlimit="10"/>
<path d="M18.8905 175.55C18.8205 178.69 18.6905 182.7 18.5605 188.17C17.6405 224.17 18.3205 231.7 14.1805 233.47C12.6905 234.11 10.8705 233.85 8.93046 233.02V232.22C7.83046 207.11 4.44046 197.93 3.55046 174.59C3.18046 164.99 2.70046 152.21 3.45046 138.3L3.76046 138.47L4.15046 138.73L4.43046 138.95C4.56046 139.05 4.68046 139.16 4.80046 139.27C4.96061 139.42 5.11093 139.58 5.25046 139.75C6.70046 141.44 6.25046 142.65 7.31046 143.6C7.97046 144.18 8.78046 144.02 13.3605 143.28L15.1305 143C14.7328 143.947 14.5847 144.979 14.7005 146C14.7005 146 15.7905 154.59 13.8005 157.9C13.229 158.896 12.9452 160.032 12.9805 161.18C13.0005 166 16.8505 172.3 18.8905 175.55Z" fill="#F4D58C" stroke="#282724" stroke-width="0.25" stroke-miterlimit="10"/>
</g>
<defs>
<clipPath id="clip0_2635_449673">
<rect width="307" height="461" fill="white"/>
</clipPath>
</defs>
</svg>
