<svg width="307" height="461" viewBox="0 0 307 461" fill="none" xmlns="http://www.w3.org/2000/svg">
<g clip-path="url(#clip0_2635_449672)">
<path d="M222.83 364.38C223.93 365.08 223.17 366.58 223.63 372.43C223.82 374.79 224.06 376 223.36 376.43C222.66 376.86 220.9 376.04 220.05 375.35C217.55 373.35 215.97 368.65 218.18 365.96C219.33 364.55 221.61 363.62 222.83 364.38Z" fill="white" stroke="#282724" stroke-width="0.25" stroke-miterlimit="10"/>
<path opacity="0.1" d="M222.83 364.38C223.93 365.08 223.17 366.58 223.63 372.43C223.82 374.79 224.06 376 223.36 376.43C222.66 376.86 220.9 376.04 220.05 375.35C217.55 373.35 215.97 368.65 218.18 365.96C219.33 364.55 221.61 363.62 222.83 364.38Z" fill="#282724"/>
<path d="M218.27 368.55C219.54 369.35 219.34 370.55 220.27 378.38C220.68 381.65 220.92 383.15 220 383.84C218.87 384.69 216.82 383.68 216.61 383.57C215.334 382.857 214.35 381.717 213.83 380.35C213.56 379.76 209.77 371.68 213.3 368.91C214.005 368.376 214.85 368.057 215.732 367.993C216.614 367.929 217.496 368.123 218.27 368.55Z" fill="white" stroke="#282724" stroke-width="0.25" stroke-miterlimit="10"/>
<path opacity="0.1" d="M219.22 380.49C218.15 376.73 218.14 372.78 217.22 369C217.175 368.85 217.166 368.691 217.194 368.536C217.222 368.381 217.286 368.236 217.38 368.11C216.7 367.928 215.988 367.901 215.295 368.031C214.603 368.161 213.949 368.444 213.38 368.86C209.85 371.63 213.64 379.71 213.91 380.3C214.43 381.667 215.414 382.807 216.69 383.52C216.9 383.63 218.95 384.64 220.08 383.79C220.68 383.35 220.78 382.56 220.68 381.19C220.556 381.257 220.42 381.296 220.28 381.306C220.139 381.316 219.999 381.296 219.866 381.248C219.734 381.2 219.614 381.124 219.513 381.027C219.412 380.929 219.333 380.811 219.28 380.68C219.25 380.621 219.23 380.556 219.22 380.49Z" fill="#282724"/>
<path d="M213.532 370.82C214.712 370.74 215.662 373.4 215.762 373.68C216.172 374.82 216.382 376.16 215.672 380.68C214.672 387.28 213.672 387.68 213.982 389.74C214.055 390.022 214.07 390.316 214.023 390.604C213.977 390.891 213.87 391.166 213.712 391.41C213.372 391.674 212.967 391.839 212.54 391.886C212.113 391.934 211.681 391.863 211.292 391.68C209.842 391.1 209.402 389.01 209.152 387.39C207.672 377.84 206.802 373.09 208.882 371.83C209.462 371.47 210.512 371.13 212.452 371.74C212.892 371 213.292 370.84 213.532 370.82Z" fill="white" stroke="#282724" stroke-width="0.25" stroke-miterlimit="10"/>
<path opacity="0.1" d="M214.551 386.07H214.391C214.119 386.043 213.867 385.917 213.683 385.716C213.498 385.515 213.394 385.253 213.391 384.98C213.205 383.34 213.296 381.68 213.661 380.07C213.643 379.438 213.549 378.81 213.381 378.2C213.02 377.405 212.829 376.543 212.821 375.67C212.826 375.42 212.891 375.175 213.011 374.955C213.131 374.736 213.303 374.549 213.511 374.41C213.771 374.26 214.021 374.21 214.241 374.1C214.461 373.99 214.531 373.75 214.691 373.58L214.821 373.43C214.811 373.327 214.811 373.223 214.821 373.12C214.811 372.977 214.835 372.834 214.891 372.702C214.946 372.57 215.032 372.453 215.141 372.36C214.731 371.58 214.141 370.77 213.481 370.81C213.241 370.81 212.841 370.96 212.401 371.71C210.461 371.1 209.401 371.44 208.831 371.8C206.751 373.06 207.621 377.8 209.101 387.36C209.351 388.98 209.791 391.07 211.241 391.65C211.63 391.833 212.062 391.904 212.489 391.856C212.916 391.809 213.322 391.644 213.661 391.38C213.82 391.136 213.926 390.861 213.972 390.574C214.019 390.286 214.005 389.992 213.931 389.71C213.791 388.46 214.071 387.82 214.551 386.07Z" fill="#282724"/>
<path d="M206.551 371.091C207.791 370.991 209.061 374.961 209.321 375.831C211.861 384.031 210.481 391.191 208.431 394.071C208.255 394.391 208.012 394.669 207.719 394.886C207.425 395.104 207.088 395.255 206.731 395.331C205.311 395.501 204.021 393.781 203.511 393.091C199.271 387.391 198.721 372.981 201.811 372.161C202.701 371.931 204.181 372.741 205.571 371.811C206.101 371.451 206.201 371.121 206.551 371.091Z" fill="white" stroke="#282724" stroke-width="0.25" stroke-miterlimit="10"/>
<path opacity="0.1" d="M209.162 389C207.852 384.63 208.042 380.09 207.812 375.59C207.512 374.55 207.202 373.51 206.882 372.47C206.811 372.279 206.804 372.069 206.864 371.874C206.924 371.679 207.046 371.509 207.212 371.39C207.037 371.211 206.801 371.104 206.552 371.09C206.202 371.09 206.102 371.45 205.552 371.81C204.162 372.74 202.682 371.93 201.792 372.16C198.702 372.98 199.252 387.39 203.492 393.09C204.002 393.78 205.292 395.5 206.712 395.33C207.069 395.254 207.406 395.103 207.699 394.885C207.992 394.668 208.236 394.39 208.412 394.07C209.255 392.755 209.842 391.293 210.142 389.76C209.922 389.743 209.712 389.661 209.538 389.526C209.364 389.391 209.233 389.208 209.162 389Z" fill="#282724"/>
<path d="M200.65 371.18C204.23 372.38 205.34 376.55 205.75 378.07C206.42 380.58 206.26 382.83 204.67 389.07C202.85 396.25 201 403.52 199.13 403.37C198.02 403.29 198.13 400.67 194.84 396.85C193.32 395.08 193.05 395.36 192.42 394.34C190.65 391.48 192.49 388.89 193.42 382.34C194.35 375.79 193.2 373.43 195.29 371.79C197.38 370.15 200.47 371.12 200.65 371.18Z" fill="white" stroke="#282724" stroke-width="0.25" stroke-miterlimit="10"/>
<path opacity="0.1" d="M200.17 398.821C199.46 393.671 199.79 388.461 199.77 383.281C199.85 380.608 199.72 377.933 199.38 375.281C199.13 373.811 198.8 372.351 198.48 370.891C197.33 370.846 196.2 371.199 195.28 371.891C193.19 373.531 194.28 375.891 193.41 382.441C192.54 388.991 190.65 391.561 192.41 394.441C193.04 395.441 193.31 395.181 194.83 396.951C198.11 400.771 198.01 403.391 199.12 403.471C200 403.541 200.87 401.951 201.75 399.471C201.15 399.751 200.29 399.661 200.17 398.821Z" fill="#282724"/>
<path d="M193.672 369.551C194.382 369.901 196.002 371.171 195.112 382.701C195.112 382.701 194.652 388.631 190.632 400.851C190.372 401.661 189.872 403.121 188.942 403.261C187.452 403.491 185.672 400.261 183.572 396.381C183.122 395.561 182.732 394.801 182.412 394.151C181.954 393.236 181.727 392.223 181.752 391.201C181.752 389.431 181.832 386.741 181.872 383.501C181.992 374.721 181.962 372.141 183.872 370.801C184.872 370.061 186.772 369.891 190.492 369.551C192.262 369.411 193.182 369.331 193.672 369.551Z" fill="white" stroke="#282724" stroke-width="0.25" stroke-miterlimit="10"/>
<path opacity="0.1" d="M193.671 369.551L193.451 369.471C194.361 373.071 194.061 377.111 193.861 380.661C193.67 386.018 192.355 391.275 190.001 396.091C189.872 396.29 189.683 396.444 189.461 396.529C189.239 396.614 188.996 396.626 188.766 396.564C188.537 396.502 188.333 396.368 188.185 396.182C188.036 395.996 187.951 395.768 187.941 395.531C187.551 387.001 187.291 378.471 186.821 369.951C185.767 370.005 184.74 370.303 183.821 370.821C181.941 372.161 181.971 374.741 181.821 383.521C181.821 386.761 181.731 389.451 181.701 391.221C181.676 392.243 181.903 393.256 182.361 394.171C182.681 394.821 183.071 395.581 183.521 396.401C185.621 400.241 187.401 403.511 188.891 403.281C189.821 403.141 190.321 401.681 190.581 400.871C194.581 388.651 195.061 382.721 195.061 382.721C196.001 371.191 194.381 369.921 193.671 369.551Z" fill="#282724"/>
<path d="M171.001 372.88C169.411 374.16 170.401 376.93 170.291 381.64C170.204 384.585 169.719 387.505 168.851 390.32C168.711 391.057 168.711 391.813 168.851 392.55C169.18 394.124 170.113 395.507 171.451 396.4C172.041 396.79 173.831 397.97 175.271 397.4C176.711 396.83 176.801 395.17 177.801 390.64C177.801 390.64 178.551 387.19 179.231 384.47C181.141 376.75 184.891 373.42 183.701 372.13C182.931 371.28 181.421 372.69 176.901 372.84C173.171 372.91 172.161 372 171.001 372.88Z" fill="white" stroke="#282724" stroke-width="0.25" stroke-miterlimit="10"/>
<path opacity="0.1" d="M183.75 372.08C183.3 371.59 182.6 371.86 181.22 372.2C180.872 375.1 180.122 377.937 178.99 380.63C177.57 384.1 175.69 387.63 175.52 391.46C175.45 392.87 173.27 392.89 173.31 391.46V390.9C173.201 390.819 173.117 390.708 173.07 390.58C171.68 387.64 171.99 384.21 172.44 381.09C172.844 378.258 173.418 375.453 174.16 372.69C172.52 372.52 171.79 372.26 171.02 372.88C169.43 374.16 170.42 376.93 170.3 381.64C170.222 384.585 169.74 387.505 168.87 390.32C168.731 391.057 168.731 391.813 168.87 392.55C169.199 394.124 170.133 395.507 171.47 396.4C172.06 396.79 173.85 397.97 175.29 397.4C176.73 396.83 176.82 395.17 177.82 390.64C177.82 390.64 178.57 387.19 179.25 384.47C181.19 376.7 184.94 373.37 183.75 372.08Z" fill="#282724"/>
<path d="M159.591 373.36C157.591 374.77 159.591 378.07 158.591 385.13C158.351 386.94 158.481 388.41 158.141 391.3C158.05 392.077 158.081 392.863 158.231 393.63C158.581 395.37 159.681 397.63 161.001 398.01C162.821 398.5 165.821 395.58 167.801 390.41C167.831 388.765 167.951 387.122 168.161 385.49C169.051 378.42 171.061 375.57 169.591 373.95C168.881 373.17 167.061 373.14 163.421 373.06C161.231 373 160.121 373 159.591 373.36Z" fill="white" stroke="#282724" stroke-width="0.25" stroke-miterlimit="10"/>
<path opacity="0.1" d="M169.621 374C169.498 373.889 169.364 373.792 169.221 373.71C168.811 377.54 167.821 381.32 167.221 385.11V385.64C167.212 386.918 166.901 388.176 166.311 389.31C165.681 390.99 164.661 392.42 162.841 392.69C162.559 392.759 162.261 392.718 162.008 392.575C161.755 392.432 161.567 392.197 161.481 391.92C161.063 390.827 160.806 389.678 160.721 388.51C160.358 386.037 160.294 383.529 160.531 381.04C160.651 378.74 160.901 376.48 161.211 374.22C161.141 373.85 161.091 373.47 161.021 373.1C160.522 373.076 160.026 373.183 159.581 373.41C157.581 374.82 159.581 378.12 158.581 385.18C158.341 386.99 158.471 388.46 158.131 391.35C158.041 392.127 158.071 392.913 158.221 393.68C158.571 395.42 159.671 397.68 160.991 398.06C162.811 398.55 165.811 395.63 167.791 390.46C167.821 388.815 167.941 387.172 168.151 385.54C169.081 378.42 171.091 375.55 169.621 374Z" fill="#282724"/>
<path d="M156.07 371.67C157.58 372.44 156.24 377.04 155.76 383.43C155.56 386.018 155.53 388.617 155.67 391.21C155.682 392.373 155.468 393.528 155.04 394.61C154.77 395.29 153.43 398.61 150.93 398.81C150.464 398.846 149.997 398.774 149.564 398.601C149.13 398.427 148.742 398.157 148.43 397.81C147.87 397.15 147.94 396.47 147.8 394.14C147.74 393.09 147.62 392.04 147.56 390.99C147.39 388.44 147.13 386.78 147 385.65C146.56 381.221 146.38 376.77 146.46 372.32C147.32 372.22 148.18 372.16 149.05 372.14C150.97 372.14 151.5 372.35 152.9 372.23C155.15 372.07 155.45 371.35 156.07 371.67Z" fill="white" stroke="#282724" stroke-width="0.25" stroke-miterlimit="10"/>
<path opacity="0.1" d="M156.07 371.67C155.61 371.43 155.31 371.78 154.23 372.05C154.307 376.667 154.123 381.284 153.68 385.88C153.3 388.88 153.88 393.39 151.48 395.71C151.269 395.919 150.983 396.037 150.685 396.037C150.387 396.037 150.102 395.919 149.89 395.71C149.77 395.578 149.681 395.421 149.63 395.25C148.57 391.47 148.97 387.56 148.99 383.69C149.01 379.82 148.99 376.02 148.99 372.19C148.141 372.201 147.293 372.258 146.45 372.36C146.37 376.81 146.55 381.261 146.99 385.69C147.12 386.82 147.38 388.48 147.55 391.03C147.61 392.08 147.73 393.13 147.79 394.18C147.93 396.51 147.86 397.18 148.42 397.85C148.733 398.197 149.12 398.467 149.554 398.641C149.987 398.814 150.455 398.886 150.92 398.85C153.42 398.69 154.76 395.33 155.03 394.65C155.458 393.568 155.672 392.413 155.66 391.25C155.52 388.657 155.55 386.059 155.75 383.47C156.24 377 157.58 372.44 156.07 371.67Z" fill="#282724"/>
<path d="M90.2501 368.71C88.7701 367.07 88.9701 365.5 88.3101 365.42C87.4901 365.32 86.5701 367.69 86.2101 368.96C85.7801 370.42 85.2801 372.17 86.0401 372.84C87.3301 373.98 91.8301 371.61 91.6901 370.14C91.6401 369.65 91.1001 369.64 90.2501 368.71Z" fill="white" stroke="#282724" stroke-width="0.25" stroke-miterlimit="10"/>
<path opacity="0.1" d="M90.2501 368.71C88.7701 367.07 88.9701 365.5 88.3101 365.42C87.4901 365.32 86.5701 367.69 86.2101 368.96C85.7801 370.42 85.2801 372.17 86.0401 372.84C87.3301 373.98 91.8301 371.61 91.6901 370.14C91.6401 369.65 91.1001 369.64 90.2501 368.71Z" fill="#282724"/>
<path d="M93.8008 369.63C92.4608 368.7 90.4608 369.28 89.3308 370.14C87.0808 371.84 87.4808 375.14 87.6408 376.46C87.8008 377.78 87.9708 379.19 89.0708 379.75C90.4808 380.48 92.3308 379.12 92.6108 378.91C94.7808 377.32 94.9308 374.56 94.9808 373.85C95.0008 372.62 95.1608 370.6 93.8008 369.63Z" fill="white" stroke="#282724" stroke-width="0.25" stroke-miterlimit="10"/>
<path opacity="0.1" d="M93.8002 369.63C93.4424 369.402 93.0402 369.252 92.6202 369.19C92.5598 369.336 92.4675 369.466 92.3502 369.57C90.8501 371.085 89.679 372.892 88.9102 374.88C88.431 375.941 88.0947 377.061 87.9102 378.21C87.9773 378.53 88.1108 378.833 88.302 379.098C88.4932 379.363 88.7378 379.586 89.0201 379.75C90.4301 380.48 92.2801 379.12 92.5602 378.91C94.7302 377.32 94.8802 374.56 94.9302 373.85C95.0002 372.62 95.1602 370.6 93.8002 369.63Z" fill="#282724"/>
<path d="M97.7601 371.32C96.1322 371.507 94.63 372.287 93.5401 373.51C90.8001 376.23 89.3901 380.61 90.6801 381.86C90.9601 382.14 91.1201 382.01 91.5201 382.37C92.5201 383.27 92.1401 384.61 92.6101 386.08C92.835 386.776 93.208 387.416 93.7034 387.955C94.1988 388.493 94.8049 388.918 95.4801 389.2C97.8401 390.01 100.48 387.71 101.05 387.2C104.71 383.96 105.87 377.87 103.91 376.2C102.82 375.2 100.91 375.81 100.37 374.59C99.9601 373.71 100.73 372.93 100.2 372.15C99.6701 371.37 98.1701 371.3 97.7601 371.32Z" fill="white" stroke="#282724" stroke-width="0.25" stroke-miterlimit="10"/>
<path opacity="0.1" d="M91.3702 377.431C91.5822 376.696 91.8845 375.991 92.2702 375.331L92.7302 374.521C92.7302 374.441 92.8202 374.341 92.8602 374.261C90.5802 376.971 89.5002 380.711 90.6802 381.861L90.7902 381.951C90.7431 380.423 90.9388 378.897 91.3702 377.431Z" fill="#282724"/>
<path opacity="0.1" d="M103.911 376.13C102.821 375.13 100.911 375.74 100.371 374.52C99.9607 373.64 100.731 372.86 100.201 372.08C100.065 371.892 99.8865 371.738 99.6807 371.63C98.157 373.141 96.965 374.953 96.1807 376.95C95.7907 377.95 95.5607 378.95 95.2707 379.95C95.2219 380.287 95.1518 380.621 95.0607 380.95C94.7007 382.474 94.2533 383.977 93.7207 385.45C93.632 385.654 93.4942 385.832 93.3198 385.97C93.1453 386.108 92.9395 386.201 92.7207 386.24C92.9609 386.892 93.3325 387.487 93.8124 387.99C94.2924 388.492 94.8704 388.89 95.5107 389.16C97.8707 389.97 100.511 387.67 101.081 387.16C104.711 383.93 105.871 377.84 103.911 376.13Z" fill="#282724"/>
<path d="M102.481 372.55C100.131 372.85 98.8107 376.37 98.3507 377.55C96.0907 383.55 96.8407 391.97 100.791 393.83C101.347 394.085 101.949 394.228 102.561 394.25C106.101 394.5 108.821 391.25 109.391 390.62C113.131 386.23 113.551 378.5 110.321 375.7C109.551 375.03 108.041 374.41 105.011 373.17C104.213 372.809 103.355 372.599 102.481 372.55Z" fill="white" stroke="#282724" stroke-width="0.25" stroke-miterlimit="10"/>
<path opacity="0.1" d="M110.321 375.79C109.114 374.955 107.803 374.283 106.421 373.79C106.061 376.51 105.511 379.21 105.101 381.93C104.771 383.916 104.551 385.919 104.441 387.93C104.381 389.46 104.611 391.01 103.751 392.38C103.599 392.628 103.357 392.808 103.076 392.883C102.795 392.957 102.495 392.921 102.241 392.78C98.6407 391.17 98.6807 387.05 99.0307 383.66C99.4323 379.753 100.594 375.962 102.451 372.5C100.121 372.83 98.8107 376.33 98.3507 377.5C96.0907 383.5 96.8407 391.92 100.791 393.78C101.347 394.035 101.949 394.178 102.561 394.2C106.101 394.45 108.821 391.2 109.391 390.57C113.131 386.32 113.551 378.55 110.321 375.79Z" fill="#282724"/>
<path d="M107.881 372.33C107.051 373.16 106.481 374.33 106.441 378.66C106.361 388.49 109.291 393.49 110.291 395.06C111.291 396.63 111.891 397.06 112.511 397.29C115.561 398.29 119.991 393.61 122.041 389.45C124.451 384.57 125.101 377.22 122.041 375.11C120.131 373.8 116.641 374.46 114.621 371.91C114.393 371.582 114.109 371.298 113.781 371.07C112.141 370 109.331 370.86 107.881 372.33Z" fill="white" stroke="#282724" stroke-width="0.25" stroke-miterlimit="10"/>
<path opacity="0.1" d="M122.001 375.11C120.763 374.504 119.437 374.099 118.071 373.91C118.065 374.726 118.009 375.541 117.901 376.35C117.57 378.474 117.503 380.63 117.701 382.77C117.911 384.77 118.291 386.77 118.551 388.83C118.826 389.874 118.847 390.967 118.611 392.02C118.071 393.9 116.211 393.92 114.701 394.55C113.971 394.86 113.371 394.11 113.301 393.49C112.448 386.55 112.495 379.529 113.441 372.6V370.92C111.781 370.09 109.171 370.92 107.781 372.29C106.951 373.12 106.381 374.29 106.341 378.62C106.261 388.45 109.191 393.45 110.191 395.02C111.191 396.59 111.791 397.02 112.411 397.25C115.461 398.25 119.891 393.57 121.941 389.41C124.451 384.55 125.101 377.22 122.001 375.11Z" fill="#282724"/>
<path d="M122.211 372.55C120.391 373.77 120.311 376.4 120.211 380.81C120.111 385.22 120.821 385.28 121.731 393.81C122.081 397.18 122.121 398.64 123.071 399.04C124.021 399.44 125.401 398.34 129.401 394.91C135.631 389.56 135.601 389.63 135.811 389.34C139.091 384.72 139.731 377.05 136.401 374.25C135.661 373.63 133.581 373.33 129.401 372.73C123.501 371.82 122.701 372.17 122.211 372.55Z" fill="white" stroke="#282724" stroke-width="0.25" stroke-miterlimit="10"/>
<path opacity="0.1" d="M136.381 374.19C135.811 373.71 134.381 373.42 131.871 373.03C131.97 375.417 131.883 377.807 131.611 380.18C131.363 382.42 130.911 384.632 130.261 386.79C129.511 389.17 128.261 391.36 127.771 393.79C127.752 393.962 127.682 394.124 127.569 394.256C127.457 394.388 127.308 394.483 127.141 394.53C127.064 394.725 126.934 394.896 126.767 395.023C126.599 395.15 126.4 395.228 126.191 395.25C126.119 395.298 126.042 395.338 125.961 395.37C125.679 395.447 125.378 395.409 125.123 395.265C124.868 395.121 124.681 394.882 124.601 394.6C124.041 390.6 123.381 386.69 123.701 382.73C123.726 382.434 123.726 382.136 123.701 381.84C123.59 378.568 123.974 375.297 124.841 372.14C123.021 372.04 122.571 372.26 122.261 372.47C120.441 373.69 120.361 376.32 120.261 380.73C120.161 385.14 120.871 385.2 121.781 393.73C122.131 397.1 122.171 398.56 123.121 398.96C124.071 399.36 125.451 398.26 129.451 394.83C135.681 389.48 135.651 389.55 135.861 389.26C139.071 384.66 139.711 377 136.381 374.19Z" fill="#282724"/>
<path d="M134.351 370.061C133.751 370.291 132.901 371.191 133.171 379.751C133.431 387.751 134.171 386.051 135.031 395.861C135.271 398.551 135.421 400.961 136.591 401.321C137.471 401.581 138.491 400.541 139.921 399.061C141.982 397.106 143.416 394.582 144.041 391.811C144.121 391.391 144.181 390.721 144.301 389.371C144.731 384.521 144.361 384.751 144.471 378.231C144.634 377.211 144.488 376.166 144.051 375.231C143.321 373.981 142.111 373.751 140.051 372.871C136.001 371.121 135.391 369.661 134.351 370.061Z" fill="white" stroke="#282724" stroke-width="0.25" stroke-miterlimit="10"/>
<path opacity="0.1" d="M144.472 378.23C144.635 377.211 144.489 376.165 144.052 375.23C143.452 374.23 142.532 373.87 141.112 373.3C142.832 377.19 142.752 381.77 142.112 385.89C141.562 389.22 141.482 393.39 139.202 396.09C139.098 396.195 138.974 396.278 138.837 396.335C138.701 396.392 138.554 396.421 138.407 396.421C138.259 396.421 138.113 396.392 137.976 396.335C137.84 396.278 137.716 396.195 137.612 396.09C137.489 395.96 137.4 395.802 137.352 395.63C135.902 389.63 136.452 383.45 135.732 377.37C135.601 377.262 135.51 377.115 135.472 376.95C134.962 374.81 134.392 372.68 133.872 370.54C133.412 371.37 133.022 373.54 133.222 379.73C133.482 387.73 134.222 386.03 135.082 395.84C135.322 398.53 135.472 400.94 136.642 401.3C137.522 401.56 138.542 400.52 139.972 399.04C142.033 397.085 143.467 394.562 144.092 391.79C144.172 391.37 144.232 390.7 144.352 389.34C144.732 384.55 144.362 384.75 144.472 378.23Z" fill="#282724"/>
<path opacity="0.2" d="M175.001 376.47C176.201 376.498 177.368 376.875 178.357 377.555C179.346 378.235 180.116 379.189 180.571 380.3C181.041 379.11 181.521 378.081 181.971 377.171C181.971 378.271 181.911 379.58 181.891 381.1C183.33 378.963 185.503 377.428 187.999 376.786C190.495 376.145 193.139 376.442 195.431 377.62C195.988 376.683 196.736 375.873 197.627 375.245C198.518 374.616 199.531 374.181 200.601 373.97C201.801 373.791 203.028 373.911 204.171 374.321C204.411 374.004 204.711 373.739 205.054 373.54C205.398 373.341 205.777 373.212 206.171 373.16C206.925 373.175 207.652 373.447 208.229 373.934C208.806 374.42 209.199 375.089 209.341 375.83C210.236 375.092 211.056 374.268 211.791 373.37C212.446 372.57 213.035 371.717 213.551 370.821C215.119 369.584 217.075 368.943 219.071 369.011C219.092 368.539 219.206 368.076 219.407 367.649C219.608 367.221 219.891 366.838 220.241 366.52C220.687 366.159 221.21 365.903 221.769 365.774C222.329 365.644 222.911 365.643 223.471 365.77C223.493 365.367 223.376 364.968 223.141 364.641C223.056 364.541 222.959 364.453 222.851 364.38C221.631 363.62 219.351 364.59 218.201 365.99C217.715 366.596 217.391 367.315 217.261 368.08C216.595 367.92 215.902 367.907 215.23 368.042C214.558 368.177 213.924 368.456 213.371 368.86C212.968 369.199 212.637 369.613 212.395 370.08C212.153 370.547 212.005 371.057 211.961 371.58C211.462 371.409 210.933 371.341 210.407 371.38C209.881 371.42 209.368 371.566 208.901 371.81C208.562 372.021 208.294 372.327 208.131 372.69C207.661 371.78 207.131 371.05 206.571 371.09C206.221 371.09 206.121 371.45 205.571 371.81C204.451 372.55 203.291 372.19 202.421 372.13C201.884 371.723 201.287 371.403 200.651 371.18C200.471 371.12 197.411 370.18 195.281 371.81L195.011 372.05C194.631 370.17 194.011 369.751 193.671 369.571C192.609 369.378 191.522 369.378 190.461 369.571C186.741 369.911 184.891 370.081 183.841 370.821C183.467 371.085 183.154 371.426 182.921 371.821C180.957 372.342 178.948 372.677 176.921 372.821C173.141 372.941 172.131 372.02 171.021 372.91C169.911 373.8 170.111 375.86 170.261 378.91C170.821 378.178 171.536 377.579 172.356 377.157C173.176 376.735 174.079 376.5 175.001 376.47Z" fill="#282724"/>
<path opacity="0.2" d="M158.89 380C162.26 379.3 164.78 376.74 168.39 378.13L169.55 378.61C170.15 376.24 170.48 374.86 169.62 373.92C168.91 373.14 167.09 373.11 163.45 373.03C161.23 372.98 160.12 372.96 159.59 373.33C158.14 374.33 158.75 376.33 158.87 380H158.89Z" fill="#282724"/>
<path opacity="0.2" d="M149.731 377.861C151.303 377.672 152.896 377.951 154.311 378.661C154.891 378.921 155.521 379.251 156.161 379.541C156.691 375.231 157.251 372.281 156.071 371.671C155.451 371.351 155.151 372.071 152.901 372.251C151.501 372.371 150.971 372.141 149.051 372.161C148.181 372.161 147.321 372.241 146.461 372.341C146.461 375.001 146.461 377.191 146.561 379.001C147.578 378.519 148.64 378.137 149.731 377.861Z" fill="#282724"/>
<path opacity="0.2" d="M88.6009 369.39C88.9296 369.54 89.1902 369.807 89.3309 370.14L88.4009 371.14C89.1879 370.994 90.0011 371.148 90.6809 371.57C91.9309 372.47 92.3309 374.57 91.3009 376.64C94.1809 374.99 96.2409 374.95 97.6109 375.26C98.6366 375.462 99.641 375.76 100.611 376.15C102.024 376.611 103.53 376.71 104.991 376.44C105.061 376.19 105.141 376.06 105.241 376.04C105.521 376.04 105.921 376.88 106.461 378.68C108.146 378 109.869 377.416 111.621 376.93C114.441 376.15 115.221 376.21 115.711 376.29C117.971 376.69 119.461 378.61 120.231 379.88C122.728 378.459 125.468 377.516 128.311 377.1C129.777 376.889 131.261 376.822 132.741 376.9C136.822 376.407 140.951 377.283 144.481 379.39V378.25C144.634 377.247 144.488 376.221 144.061 375.3C143.331 374.05 142.121 373.82 140.061 372.94C135.921 371.14 135.361 369.68 134.321 370.08C133.931 370.23 133.441 370.67 133.211 373.27C132.211 373.1 130.921 372.92 129.351 372.69C123.471 371.84 122.671 372.19 122.181 372.52C121.495 373.007 120.994 373.712 120.761 374.52C118.821 373.91 116.221 373.95 114.591 371.89C114.363 371.562 114.079 371.278 113.751 371.05C112.111 370.05 109.311 370.84 107.851 372.31C107.371 372.781 107.026 373.371 106.851 374.02L104.951 373.24C103.381 372.6 102.951 372.5 102.421 372.57C101.523 372.74 100.727 373.253 100.201 374C100.201 373.32 100.561 372.69 100.141 372.07C99.5809 371.22 98.1409 371.29 97.7009 371.31C96.7056 371.38 95.7496 371.726 94.9409 372.31C95.0164 371.546 94.7865 370.782 94.3013 370.186C93.8161 369.591 93.1149 369.211 92.3509 369.13C91.8493 369.082 91.3438 369.161 90.8809 369.36C90.6299 369.174 90.3987 368.963 90.1909 368.73C88.7109 367.09 88.9109 365.52 88.2509 365.44C87.8109 365.39 87.3509 366.05 86.9509 366.87L85.6309 371.16C86.5309 369.7 87.8009 369.06 88.6009 369.39Z" fill="#282724"/>
<path d="M218.552 345.61C219.222 345.39 220.292 346.93 220.662 347.47C225.082 353.88 222.912 364.74 221.432 364.79C220.262 364.79 219.242 358.07 218.592 353.79C218.212 351.28 217.412 346 218.552 345.61Z" fill="white" stroke="#282724" stroke-width="0.25" stroke-miterlimit="10"/>
<path opacity="0.1" d="M220.49 349.481C220.33 348.764 220.35 348.018 220.55 347.311C220.11 346.691 219.16 345.401 218.55 345.611C217.41 345.991 218.21 351.281 218.55 353.811C219.14 357.671 220.03 363.561 221.07 364.611C221.19 359.481 221.57 354.651 220.49 349.481Z" fill="#282724"/>
<path d="M215.171 347.15C215.878 346.929 216.642 346.982 217.311 347.3C218.481 347.94 218.641 349.59 218.851 351.16C219.441 355.48 220.681 360.77 220.341 364.16C220.31 364.725 220.104 365.267 219.751 365.71C219.191 366.36 218.681 366.11 217.751 366.71C216.821 367.31 216.911 367.77 215.751 368.61C215.031 369.13 214.661 369.38 214.401 369.32C213.061 369.02 215.231 362.98 213.621 355.37C213.251 353.6 212.311 350.05 213.621 348.32C214.018 347.793 214.555 347.388 215.171 347.15Z" fill="white" stroke="#282724" stroke-width="0.25" stroke-miterlimit="10"/>
<path opacity="0.1" d="M220.201 364.33C219.971 364.38 219.451 363.27 218.531 360.56C217.961 359.42 214.471 352.28 217.431 348.8C217.636 348.555 217.867 348.334 218.121 348.14C217.935 347.789 217.654 347.498 217.311 347.3C216.642 346.982 215.877 346.929 215.171 347.15C214.545 347.38 213.997 347.782 213.591 348.31C212.241 350.04 213.181 353.59 213.591 355.36C215.201 362.97 213.031 369.01 214.371 369.31C214.631 369.37 215.001 369.12 215.721 368.6C216.911 367.76 216.801 367.29 217.721 366.7C218.641 366.11 219.201 366.34 219.721 365.7C220.084 365.263 220.291 364.718 220.311 364.15C220.311 364.15 220.281 364.31 220.201 364.33Z" fill="#282724"/>
<path d="M209.852 347.23C210.194 347.126 210.553 347.092 210.909 347.13C211.264 347.168 211.609 347.277 211.922 347.45C213.792 348.36 214.282 350.91 214.672 353.91C215.832 362.83 216.352 367.35 213.672 370.23C213.112 370.83 211.762 372.23 210.562 371.94C209.692 371.7 208.862 370.48 208.412 357.75C208.152 350.92 208.272 347.9 209.852 347.23Z" fill="white" stroke="#282724" stroke-width="0.25" stroke-miterlimit="10"/>
<path opacity="0.1" d="M214.76 367.92C214.63 368.25 214.43 368.24 213.51 369.1C212.3 370.24 212.26 370.39 212.13 370.36C211.39 370.16 212.86 364.41 212.4 358.54C212.349 357.115 212.141 355.7 211.78 354.32C211.45 353.16 211.13 352 210.78 350.85C210.36 349.44 210.2 348.93 210.47 348.61C211.03 347.91 212.97 348.67 213.33 348.81C213 348.231 212.511 347.759 211.92 347.45C211.608 347.277 211.263 347.168 210.908 347.13C210.552 347.092 210.193 347.126 209.85 347.23C208.27 347.9 208.15 350.92 208.39 357.75C208.84 370.48 209.67 371.7 210.54 371.94C211.74 372.28 213.09 370.83 213.65 370.23C214.895 368.796 215.578 366.959 215.57 365.06C215.397 366.038 215.125 366.996 214.76 367.92Z" fill="#282724"/>
<path d="M204.661 345.261C203.361 345.261 202.381 346.531 201.961 347.091C200.141 349.571 200.221 352.481 200.251 355.731C200.331 366.561 199.591 368.221 201.411 370.001C202.826 371.302 204.643 372.082 206.561 372.211C207.357 372.34 208.174 372.2 208.881 371.811C210.251 370.931 210.411 368.941 210.481 367.921C210.801 363.121 211.481 352.921 207.291 347.121C207.022 346.632 206.646 346.21 206.19 345.888C205.735 345.565 205.212 345.351 204.661 345.261Z" fill="white" stroke="#282724" stroke-width="0.25" stroke-miterlimit="10"/>
<path opacity="0.1" d="M210.51 364.271C210.35 367.271 210.51 367.571 210.2 368.351C209.5 370.111 207.46 371.541 206.55 371.091C205.64 370.641 206.25 368.021 206.55 364.661C207.26 355.211 203.84 347.551 205.29 347.011C206.075 346.94 206.858 347.161 207.49 347.631L207.87 347.951C207.69 347.671 207.52 347.391 207.33 347.121C207.061 346.632 206.685 346.21 206.229 345.888C205.774 345.565 205.251 345.351 204.7 345.261C203.4 345.261 202.42 346.531 202 347.091C200.18 349.571 200.26 352.481 200.29 355.731C200.37 366.561 199.63 368.221 201.45 370.001C202.865 371.302 204.682 372.082 206.6 372.211C207.396 372.34 208.213 372.2 208.92 371.811C210.29 370.931 210.45 368.941 210.52 367.921C210.63 366.281 210.78 363.991 210.76 361.471C210.65 362.401 210.55 363.341 210.51 364.271Z" fill="#282724"/>
<path d="M193.39 341.641C195.29 340.971 197.81 342.561 199.21 344.151C201.21 346.441 200.67 348.491 201.21 354.871C201.95 363.351 203.72 368.871 201.39 370.921C201.11 371.171 200.57 371.531 198.7 373.001C196.83 374.471 196.7 374.621 196.37 374.661C195.08 374.791 194.3 373.341 191.29 370.311C189.2 368.211 189.29 368.641 188.77 367.921C186.29 364.641 188.52 361.921 187.45 354.341C187.02 351.341 186.45 350.031 187.24 348.341C187.78 347.231 188.3 347.201 190.73 344.421C192.59 342.301 192.65 341.901 193.39 341.641Z" fill="white" stroke="#282724" stroke-width="0.25" stroke-miterlimit="10"/>
<path opacity="0.1" d="M202 361.55C202.382 363.501 202.248 365.518 201.61 367.4C200.5 370.6 197.61 373.88 196.27 373.4C194.93 372.92 196.02 369.271 195.78 357.761C195.7 353.891 195.66 351.96 195.44 350.25C194.88 346.06 193.87 343.251 194.67 342.821C195.2 342.551 196.27 343.47 197.6 344.62C198.225 345.155 198.797 345.748 199.31 346.391C199.919 347.193 200.43 348.066 200.83 348.99C200.67 346.84 200.38 345.561 199.19 344.201C197.79 342.611 195.27 341.02 193.37 341.69C192.63 341.95 192.57 342.351 190.73 344.451C188.3 347.231 187.73 347.26 187.24 348.37C186.41 350.08 187.02 351.37 187.45 354.37C188.52 361.94 186.29 364.671 188.77 367.951C189.32 368.671 189.2 368.24 191.29 370.34C194.29 373.34 195.08 374.82 196.37 374.69C196.73 374.69 196.81 374.52 198.7 373.03C200.59 371.54 201.11 371.201 201.39 370.951C203.06 369.491 202.66 366.28 202 361.55Z" fill="#282724"/>
<path d="M179.811 342.27C180.948 342.094 182.111 342.328 183.091 342.93C186.091 344.62 186.941 348.32 188.341 355.23C189.641 361.66 189.431 364.78 189.081 366.97C188.731 369.16 188.491 370.49 187.361 371.89C186.119 373.293 184.488 374.294 182.676 374.768C180.863 375.241 178.95 375.166 177.181 374.55C176.802 374.449 176.444 374.283 176.121 374.06C173.291 372.14 175.121 367.4 175.051 358.47C175.051 352.88 174.301 351.18 175.541 347.65C176.001 346.19 177.211 342.85 179.811 342.27Z" fill="white" stroke="#282724" stroke-width="0.25" stroke-miterlimit="10"/>
<path opacity="0.1" d="M186.811 371.8C184.691 373.8 181.061 374.69 179.541 373.39C177.781 371.86 180.671 368.84 181.051 360.77C181.261 356.24 180.491 354.14 180.941 346.77C181.021 345.36 181.131 344.2 181.201 343.42C181.425 343.333 181.668 343.303 181.907 343.333C182.146 343.363 182.374 343.451 182.571 343.59C185.061 345.24 186.071 348.23 186.841 350.98C187.883 354.384 188.656 357.865 189.151 361.39C189.251 362.31 189.321 363.21 189.341 364.1C189.338 361.099 189.003 358.107 188.341 355.18C186.941 348.27 186.141 344.57 183.091 342.88C182.11 342.278 180.948 342.044 179.811 342.22C177.211 342.8 176.041 346.14 175.541 347.56C174.301 351.09 175.031 352.79 175.051 358.38C175.051 367.31 173.291 372.05 176.121 373.97C176.443 374.193 176.802 374.359 177.181 374.46C178.946 375.079 180.856 375.161 182.668 374.694C184.48 374.228 186.113 373.235 187.361 371.84C188.125 370.676 188.649 369.37 188.901 368C188.888 368.183 188.855 368.365 188.801 368.54C188.431 369.781 187.746 370.905 186.811 371.8Z" fill="#282724"/>
<path d="M163.24 341.86C160.92 342.65 159.91 345.05 157.99 349.86C155.56 355.86 155.23 360.39 154.57 369.41C154.358 370.695 154.58 372.015 155.2 373.16C156.82 375.83 160.82 376.04 163.73 376.16C166.64 376.28 171.73 376.58 173.73 373.54C174.35 372.418 174.622 371.137 174.51 369.86C174.68 362.71 173.77 358.96 173.15 352.46C172.71 347.79 172.88 346.61 171.68 344.99C169.84 342.55 166.16 340.86 163.24 341.86Z" fill="white" stroke="#282724" stroke-width="0.25" stroke-miterlimit="10"/>
<path opacity="0.1" d="M173.16 352.45C172.72 347.78 172.89 346.6 171.69 344.98C169.84 342.51 166.16 340.86 163.24 341.86C160.92 342.65 159.91 345.05 157.99 349.86C155.56 355.86 155.23 360.39 154.57 369.41C154.358 370.695 154.58 372.015 155.2 373.16C156.82 375.83 160.82 376.04 163.73 376.16C166.64 376.28 171.73 376.58 173.73 373.54C174.35 372.418 174.622 371.137 174.51 369.86C174.69 362.7 173.78 359 173.16 352.45ZM172.37 371.39C171.5 372.9 169.79 373.3 168.61 373.65C168.12 373.79 163.16 375.19 161.03 373.05C159.16 371.16 160.74 367.8 162.35 360.48C164.6 350.23 164.35 343.92 165.1 343.94C166.24 343.94 166.65 357.47 167.43 357.45C168.21 357.43 167.97 345.58 169.2 345.45C170.43 345.32 171.73 354.45 172.2 357.64C172.45 359.19 172.6 357.44 172.87 365.74C173 367.55 173.28 369.81 172.37 371.39Z" fill="#282724"/>
<path d="M90.8105 349.43C90.6405 348.5 90.3005 346.63 89.6805 346.58C88.7805 346.52 87.8305 350.36 87.5105 351.67C86.5249 354.949 86.3465 358.417 86.9905 361.78C87.4505 364 87.7405 365.37 88.3105 365.42C89.8005 365.55 92.0805 356.75 90.8105 349.43Z" fill="white" stroke="#282724" stroke-width="0.25" stroke-miterlimit="10"/>
<path opacity="0.1" d="M90.8105 349.43C90.6405 348.5 90.3005 346.63 89.6805 346.58C88.7805 346.52 87.8305 350.36 87.5105 351.67C86.5249 354.949 86.3465 358.417 86.9905 361.78C87.4505 364 87.7405 365.37 88.3105 365.42C89.8005 365.55 92.0805 356.75 90.8105 349.43Z" fill="#282724"/>
<path d="M92.0816 347.48C91.0816 347.48 90.3816 349.95 89.6116 352.57C88.4616 356.44 86.8716 362.08 89.1216 366.87C90.1216 368.87 91.0416 369.35 91.6316 369.49C92.1305 369.633 92.6604 369.623 93.1538 369.463C93.6472 369.302 94.0816 368.999 94.4016 368.59C94.5201 368.307 94.5812 368.003 94.5812 367.695C94.5812 367.388 94.5201 367.084 94.4016 366.8C93.4016 363.55 95.3316 360.44 94.7016 354.67C94.3816 351.74 93.3216 347.55 92.0816 347.48Z" fill="white" stroke="#282724" stroke-width="0.25" stroke-miterlimit="10"/>
<path opacity="0.1" d="M92.0816 347.48C91.0816 347.48 90.3816 349.95 89.6116 352.57C88.4616 356.44 86.8716 362.08 89.1216 366.87C90.1216 368.87 91.0416 369.35 91.6316 369.49C92.1305 369.633 92.6604 369.623 93.1538 369.463C93.6472 369.302 94.0816 368.999 94.4016 368.59C94.5201 368.307 94.5812 368.003 94.5812 367.695C94.5812 367.388 94.5201 367.084 94.4016 366.8C93.4016 363.55 95.3316 360.44 94.7016 354.67C94.3816 351.74 93.3216 347.55 92.0816 347.48Z" fill="#282724"/>
<path d="M97.6914 347.331C95.4214 347.261 93.6914 353.621 93.3514 354.671C90.8114 363.741 94.9514 372.831 96.4214 372.671C96.7614 372.671 96.7814 372.131 97.7614 371.281C98.5549 370.621 99.4731 370.128 100.461 369.831C103.741 368.491 101.801 347.461 97.6914 347.331Z" fill="white" stroke="#282724" stroke-width="0.25" stroke-miterlimit="10"/>
<path opacity="0.1" d="M97.6914 347.331C95.4214 347.261 93.6914 353.621 93.3514 354.671C90.8114 363.741 94.9514 372.831 96.4214 372.671C96.7614 372.671 96.7814 372.131 97.7614 371.281C98.5549 370.621 99.4731 370.128 100.461 369.831C103.741 368.491 101.801 347.461 97.6914 347.331ZM95.8014 370.001C95.3514 370.131 94.6514 369.061 94.4914 368.811C93.5814 367.391 92.9314 365.171 93.7614 360.931C94.6414 356.431 96.7614 351.931 97.3814 352.151C98.0014 352.371 95.3814 358.151 96.0514 366.021C96.1514 367.231 96.4414 369.801 95.8014 370.021V370.001Z" fill="#282724"/>
<path d="M102.561 345.24C101.341 345.31 100.561 349.14 99.641 354.15C99.2131 357.627 98.9894 361.127 98.971 364.63C98.801 368.92 98.801 371.21 100.201 372.08C100.913 372.418 101.692 372.592 102.481 372.59C103.781 372.76 105.102 372.699 106.381 372.41C110.281 370.86 105.771 345 102.561 345.24Z" fill="white" stroke="#282724" stroke-width="0.25" stroke-miterlimit="10"/>
<path opacity="0.1" d="M102.561 345.24C101.831 345.24 101.271 346.69 100.731 348.89C101.191 353.61 101.801 357.5 102.311 360.33C103.311 366.13 104.481 370.27 102.821 371.33C102.574 371.473 102.298 371.557 102.013 371.574C101.728 371.592 101.443 371.542 101.181 371.43C98.481 370.34 99.181 362.79 99.041 362.79C98.9578 363.406 98.9344 364.029 98.971 364.65C98.801 368.94 98.801 371.23 100.201 372.1C100.913 372.438 101.692 372.612 102.481 372.61C103.781 372.78 105.102 372.719 106.381 372.43C110.281 370.86 105.771 345 102.561 345.24Z" fill="#282724"/>
<path d="M111.301 339.55C108.301 339.55 105.301 346.63 104.221 352.44C103.901 354.13 101.621 366.75 108.341 373.57C109.061 374.3 111.081 376.35 112.981 375.88C114.321 375.56 114.831 374.18 116.771 370.95C119.301 366.77 119.471 367.38 120.311 365.6C121.311 363.47 121.311 359.96 121.231 353.02C121.231 347.67 120.981 346.02 119.721 344.72C119.281 344.25 119.081 344.21 116.021 342.31C111.931 339.79 111.821 339.55 111.301 339.55Z" fill="white" stroke="#282724" stroke-width="0.25" stroke-miterlimit="10"/>
<path opacity="0.1" d="M121.231 353C121.231 347.65 120.981 346 119.721 344.7C119.281 344.23 119.081 344.19 116.021 342.29C111.931 339.75 111.821 339.53 111.301 339.53C108.301 339.53 105.301 346.61 104.221 352.42C103.901 354.11 101.621 366.73 108.341 373.55C109.061 374.28 111.081 376.33 112.981 375.86C114.321 375.54 114.831 374.16 116.771 370.93C119.301 366.75 119.471 367.36 120.311 365.58C121.311 363.49 121.291 360 121.231 353ZM115.441 366.84C115.288 367.496 115.204 368.167 115.191 368.84C115.161 369.256 115.161 369.674 115.191 370.09C115.261 371.75 113.191 374.45 111.801 374.35C109.441 374.17 108.331 365.75 107.901 362.48C107.121 356.59 108.071 352.14 109.961 343.22C110.091 342.6 110.351 341.42 111.191 341.09C112.701 340.5 115.651 342.85 117.081 345.59C119.081 349.36 118.251 353.98 115.441 366.84Z" fill="#282724"/>
<path d="M129.001 341.41C126.301 341.21 124.061 343.29 123.181 345.17C122.481 346.66 122.801 347.68 122.731 349.56C122.601 353.28 121.191 354.4 119.861 358.43C118.861 361.61 116.611 368.33 119.771 372.5C121.268 374.137 123.212 375.299 125.363 375.841C127.514 376.383 129.777 376.282 131.871 375.55C133.562 374.876 134.973 373.645 135.871 372.06C136.434 370.821 136.711 369.471 136.681 368.11C137.011 363.11 137.171 360.62 136.411 357.18C135.821 354.5 135.411 354.66 134.981 352.07C134.401 348.65 135.041 347.89 134.261 345.98C134.121 345.55 132.501 341.67 129.001 341.41Z" fill="white" stroke="#282724" stroke-width="0.25" stroke-miterlimit="10"/>
<path opacity="0.1" d="M136.47 357.18C135.88 354.5 135.47 354.66 135.04 352.07C134.46 348.65 135.1 347.89 134.32 345.98C134.12 345.5 132.5 341.67 129.03 341.41C126.33 341.21 124.09 343.29 123.21 345.17C122.51 346.66 122.83 347.68 122.76 349.56C122.63 353.28 121.22 354.4 119.89 358.43C118.89 361.61 116.64 368.33 119.8 372.5C121.297 374.137 123.241 375.299 125.392 375.841C127.543 376.383 129.806 376.282 131.9 375.55C133.592 374.876 135.003 373.645 135.9 372.06C136.463 370.821 136.74 369.471 136.71 368.11C137.07 363.15 137.23 360.62 136.47 357.18ZM130.65 373.6C130.34 373.82 128.31 375.27 126.89 374.53C124.35 373.22 127.19 366.69 127.32 354.22C127.39 347.41 126.61 343.45 128.32 342.78C129.62 342.26 131.99 343.9 132.74 345.78C133.37 347.39 132.37 347.94 132.67 351.43C132.77 352.6 132.91 352.82 133.23 355.38C133.23 355.38 133.41 356.88 133.55 358.38C133.94 363.17 134.62 370.78 130.65 373.6Z" fill="#282724"/>
<path d="M152.76 345.32C152.06 344.09 150.43 341.21 147.29 340.52C143.82 339.76 140.34 342.08 138.7 344.52C137.8 345.86 137.7 346.83 136.99 351.83C135.76 360.15 135.8 358.76 135.57 361.03C134.83 368.59 134.46 372.37 136.38 374.17C137.59 375.31 140.16 375.35 145.28 375.43C149.08 375.49 150.7 375.03 151.99 374.05C152.892 373.348 153.615 372.444 154.1 371.41C156.1 367.51 155.03 364.04 154.37 355.48C153.9 349.33 154.19 347.85 152.76 345.32Z" fill="white" stroke="#282724" stroke-width="0.25" stroke-miterlimit="10"/>
<path opacity="0.1" d="M154.37 355.551C153.9 349.381 154.19 347.901 152.76 345.371C152.06 344.141 150.43 341.261 147.29 340.571C143.82 339.811 140.34 342.131 138.7 344.571C137.8 345.911 137.7 346.881 136.99 351.881C135.76 360.201 135.8 358.811 135.57 361.081C134.83 368.641 134.46 372.421 136.38 374.221C137.59 375.361 140.16 375.401 145.28 375.481C149.08 375.541 150.7 375.081 151.99 374.101C152.892 373.399 153.615 372.495 154.1 371.461C156.08 367.551 155 364.061 154.37 355.551ZM153.67 362.441C153.6 369.021 152.23 370.811 151.31 371.681C148.42 374.411 142.93 374.771 140.64 372.341C139.22 370.841 139.33 368.621 139.41 367.471C139.94 359.061 142.56 341.631 144.94 341.991C147.32 342.351 146.2 358.921 147.16 358.941C148.12 358.961 147.98 344.711 149.93 344.541C151.52 344.351 153.76 353.771 153.67 362.391V362.441Z" fill="#282724"/>
</g>
<defs>
<clipPath id="clip0_2635_449672">
<rect width="307" height="461" fill="white"/>
</clipPath>
</defs>
</svg>
