<svg width="646" height="785" viewBox="0 0 646 785" fill="none" xmlns="http://www.w3.org/2000/svg">
<path d="M368.12 413.132C372.738 409.858 377.118 406.423 381.259 402.83L440.682 486.62C444.334 491.77 441.204 500.263 433.691 505.59C426.178 510.918 417.127 511.063 413.476 505.914L354.053 422.124C358.802 419.4 363.491 416.403 368.12 413.132Z" fill="#696969"/>
<path opacity="0.6" d="M366.943 411.513C450.459 352.311 469.871 236.194 410.301 152.159C350.73 68.1238 234.736 47.9931 151.22 107.196C67.7033 166.398 48.2912 282.515 107.862 366.55C167.432 450.585 283.426 470.716 366.943 411.513Z" fill="#CCDCF3"/>
<g style="mix-blend-mode:soft-light">
<path d="M367.537 409.616C331.155 436.556 286.165 449.238 241.069 445.265L79.9428 208.139C80.0503 207.766 80.1469 207.394 80.2574 207.022C92.9385 163.809 120.832 126.645 158.783 102.398L367.537 409.616Z" fill="white"/>
</g>
<g style="mix-blend-mode:soft-light">
<path d="M290.919 75.9607L439.925 295.249C438.81 300.858 437.445 306.467 435.792 312.06C428.543 336.712 416.287 359.603 399.791 379.304L198.557 83.1528C228.224 72.9024 260.023 70.4263 290.919 75.9607Z" fill="white"/>
</g>
<path d="M88.1449 380.583C155.507 475.576 286.649 498.313 381.056 431.366C475.464 364.418 497.387 233.14 430.024 138.146C362.662 43.1526 231.521 20.4168 137.114 87.3638C42.7068 154.311 20.7823 285.589 88.1449 380.583ZM107.88 366.588C48.2947 282.561 67.6876 166.439 151.196 107.221C234.703 48.0034 350.703 68.1155 410.29 152.142C469.876 236.168 450.481 352.29 366.975 411.509C283.466 470.726 167.466 450.615 107.88 366.588Z" fill="#6B6C6B"/>
<path d="M632.71 769.496L631.18 770.596L619.348 779.107C616.173 781.389 612.58 783.023 608.773 783.917C604.967 784.81 601.021 784.945 597.163 784.313C593.304 783.682 589.607 782.296 586.284 780.236C582.961 778.176 580.076 775.481 577.794 772.306L405.966 531.861C401.359 525.448 399.488 517.468 400.763 509.676C402.039 501.884 406.356 494.917 412.767 490.307L426.128 480.706C427.911 479.419 429.833 478.339 431.859 477.486C438.079 474.834 445.016 474.381 451.528 476.201C458.04 478.021 463.738 482.005 467.683 487.497L639.51 727.942C641.793 731.117 643.427 734.71 644.321 738.517C645.214 742.323 645.349 746.269 644.717 750.128C644.086 753.986 642.7 757.683 640.64 761.006C638.58 764.329 635.885 767.214 632.71 769.496Z" fill="#ECBD22"/>
<path d="M632.71 769.496L631.18 770.596C624.96 773.229 618.031 773.67 611.528 771.845C605.026 770.021 599.337 766.039 595.396 760.555L423.578 520.12C418.967 513.708 417.092 505.726 418.366 497.932C419.639 490.137 423.957 483.167 430.369 478.556L431.859 477.486C438.079 474.834 445.016 474.381 451.528 476.201C458.04 478.021 463.738 482.005 467.683 487.497L639.51 727.942C641.793 731.117 643.427 734.71 644.321 738.517C645.214 742.323 645.349 746.269 644.717 750.128C644.086 753.986 642.7 757.683 640.64 761.006C638.58 764.329 635.885 767.214 632.71 769.496Z" fill="#F4D358"/>
</svg>
