<svg width="497" height="460" viewBox="0 0 497 460" fill="none" xmlns="http://www.w3.org/2000/svg">
<path d="M33.1776 150.89C24.0736 142.393 30.3354 119.27 48.6471 99.6703C66.9588 80.0707 113.885 70.5226 103.345 96.3543C97.572 110.477 76.9214 112.031 67.6397 125.191C47.8773 153.243 42.2669 159.402 33.1776 150.89Z" fill="#E69264"/>
<path opacity="0.3608" d="M32.3486 142.348C33.6661 141.445 36.1382 140.705 38.0331 139.876C39.0841 139.417 40.3572 138.514 39.9427 137.433C39.6318 136.604 38.4772 136.441 37.6778 136.826C36.8784 137.211 36.3603 137.966 35.7534 138.603C35.1464 139.239 34.3174 139.802 33.4588 139.668C32.7187 139.55 32.1413 138.899 31.9045 138.188C31.6824 137.477 31.7417 136.693 31.8897 135.953C32.2302 134.206 33.3996 132.267 35.176 132.282C36.0938 132.282 36.9228 132.814 37.7222 133.273C38.5216 133.732 39.4394 134.162 40.3276 133.939C41.2158 133.717 41.8671 132.533 41.2602 131.837C39.9427 131.63 38.5808 131.675 37.2633 131.438C35.9458 131.201 34.6135 130.609 33.9029 129.469C33.1924 128.329 33.3996 126.582 34.5839 125.946C35.3537 125.531 36.3307 125.679 37.1153 126.064C37.8998 126.449 38.566 127.056 39.2765 127.574C42.3852 129.854 49.7129 130.86 49.5204 129.513C49.3872 128.507 45.1683 127.707 42.5777 126.893C39.9871 126.079 37.3373 124.51 36.5527 121.919C36.2863 121.031 36.2715 120.024 36.686 119.195C37.1005 118.366 38.0034 117.745 38.9361 117.834C40.2684 117.952 41.0973 119.284 41.9263 120.335C42.7553 121.386 44.2949 122.334 45.3459 121.49C44.6797 119.936 43.1402 118.988 41.8967 117.848C40.6532 116.708 39.6318 114.902 40.372 113.378C41.0085 112.075 42.7257 111.631 44.132 111.986C45.5383 112.341 46.693 113.304 47.7884 114.251C49.5796 115.776 51.3856 117.315 53.1768 118.84C54.0354 119.565 55.3381 120.306 56.1523 119.536C56.6852 119.033 56.6112 118.115 56.1819 117.508C55.7526 116.901 55.0865 116.546 54.4499 116.176C52.037 114.828 49.7129 113.333 47.5072 111.69C46.3081 110.802 45.0202 109.632 45.0794 108.137C45.1386 106.465 46.8706 105.34 48.499 105.029C51.3856 104.466 54.4055 105.547 56.7888 107.279C59.1722 109.011 61.0374 111.35 62.8582 113.659C63.3467 113.23 63.4355 112.475 63.2135 111.853C63.0062 111.231 62.5473 110.743 62.1032 110.269C60.164 108.226 58.0175 106.391 55.7082 104.777C54.8052 104.155 53.8578 103.548 53.2509 102.631C52.6439 101.728 52.4515 100.425 53.1472 99.5662C53.8726 98.6632 55.2789 98.6188 56.3151 99.1221C57.3514 99.6255 58.0915 100.573 58.8169 101.461C59.5423 102.349 60.312 103.282 61.3779 103.741C61.8812 103.963 62.6213 103.948 62.7842 103.43C62.873 103.163 62.7546 102.882 62.6065 102.66C61.3186 100.484 57.9879 99.6699 57.5882 97.1681C57.4106 95.9838 58.1063 94.7107 59.2018 94.2222C60.2972 93.7337 61.7035 94.0742 62.4733 95.0068C63.2283 95.9394 63.3023 97.2273 63.8056 98.308C64.3237 99.3886 65.7892 100.247 66.6626 99.433C67.2696 98.8557 67.1215 97.8194 66.6478 97.1385C66.1741 96.4427 65.4636 95.969 64.9159 95.3325C64.1165 94.4147 63.6872 93.112 64.1017 91.9721C64.5162 90.8323 65.9225 90.0625 66.7959 89.9441C67.6693 89.8109 68.6463 89.796 69.1792 90.2401C69.7121 90.6842 69.9194 91.3948 70.1562 92.0462C71.1628 94.9328 73.0429 97.5234 75.4854 99.3738C75.9739 99.7439 76.5364 100.114 77.1434 100.129C77.7503 100.144 78.4461 99.7291 78.4609 99.1073C78.4757 98.678 78.2684 98.2043 77.9132 97.9675C75.9591 96.6944 74.6712 95.1104 73.3093 93.4377C72.5247 92.4755 71.0148 90.3142 71.2665 89.1003C71.7698 86.5837 75.5594 86.0952 76.2256 86.3765C76.8917 86.6577 77.321 87.3091 77.7059 87.916C78.2536 88.7894 78.8013 89.6628 79.3491 90.5362C79.5859 90.9211 79.8524 91.3208 80.2373 91.5724C80.6222 91.8241 81.1699 91.8833 81.5252 91.5873C82.0285 91.1432 81.8064 90.3142 81.4808 89.7368C80.8738 88.6414 80.03 87.6644 79.0234 86.9094C78.7569 86.7022 78.4609 86.4801 78.4313 86.1396C78.4165 85.814 78.6829 85.5475 78.9642 85.3551C80.3557 84.4224 82.3097 84.4224 83.7012 85.3551C84.7523 86.0656 85.4184 87.2055 86.129 88.2565C86.8395 89.3075 87.7129 90.3586 88.9268 90.7287C89.3709 90.8619 89.8594 90.9063 90.2887 90.7139C90.718 90.5214 91.0289 90.0625 90.9697 89.6036C90.8808 89.0263 90.2887 88.7006 89.7854 88.3897C89.0008 87.8864 88.3199 87.2203 87.8018 86.4505C87.4909 85.9916 87.2392 85.3995 87.4613 84.8962C87.7129 84.2892 88.4827 84.0968 89.1341 84.008C91.1325 83.7415 93.1754 83.6231 95.159 84.008C97.1426 84.378 99.0671 85.281 100.414 86.7762C101.761 88.2713 102.457 90.4178 101.954 92.3718C101.776 93.0676 101.347 93.8225 100.621 93.941C99.9553 94.0446 99.3335 93.5709 98.8598 93.0972C95.2034 89.5148 95.2774 90.0329 94.9221 90.1069C94.4928 90.1957 95.4699 92.431 96.2248 93.2748C97.0094 94.163 98.0604 94.7996 98.8006 95.7322C99.5408 96.6648 99.896 98.0859 99.0967 99.0037C98.919 100.055 97.8976 100.825 96.8466 100.943C95.7955 101.061 94.7297 100.632 93.8711 100.025C92.9977 99.4182 92.2724 98.6188 91.5026 97.8935C89.9778 96.4427 88.2459 95.1993 86.3806 94.2074C86.0994 94.0594 85.7885 93.8966 85.4628 93.8966C85.1372 93.8966 84.7819 94.089 84.7227 94.3999C84.6635 94.7107 84.8559 95.0068 85.0631 95.2437C86.2326 96.6204 87.8166 97.5678 89.2377 98.678C90.6588 99.7883 92.0059 101.195 92.3612 102.971C92.7165 104.747 91.695 106.879 89.9038 107.146C88.6011 107.338 87.3429 106.539 86.5435 105.488C85.7441 104.451 85.2852 103.193 84.6931 102.024C84.397 101.431 84.0269 100.825 83.4496 100.499C82.8723 100.173 82.0285 100.218 81.6584 100.78C81.2143 101.431 81.6436 102.32 82.1321 102.941C82.8426 103.889 83.6864 104.762 84.2194 105.813C84.7523 106.864 84.9447 108.197 84.3378 109.218C83.8197 110.077 82.8279 110.55 81.836 110.698C79.6747 111.009 77.4987 109.899 75.9591 108.345C74.4196 106.79 73.3981 104.807 72.3619 102.882C72.0214 102.26 71.6366 101.594 71 101.254C70.3635 100.913 69.4161 101.076 69.1792 101.757C68.9423 102.408 69.4457 103.06 69.9194 103.563C71.3109 105.073 72.7172 106.583 74.1087 108.093C74.8045 108.848 75.515 109.618 75.9591 110.535C76.4032 111.453 76.566 112.578 76.1516 113.511C75.6186 114.68 74.2271 115.317 72.954 115.198C71.6662 115.08 70.5115 114.31 69.6825 113.333C68.8535 112.356 68.291 111.172 67.7729 109.988C67.4768 109.307 67.1808 108.581 66.559 108.167C65.9521 107.752 64.9455 107.826 64.6494 108.507C64.3829 109.114 64.8122 109.781 65.2119 110.313C65.8485 111.157 66.4998 111.986 67.1363 112.83C67.8469 113.763 70.4079 116.975 68.6167 119.181C67.8765 120.098 66.4406 120.498 65.508 119.847C63.6428 118.07 61.7924 116.294 59.9271 114.518C58.1359 112.8 56.0487 110.965 53.5617 111.068C53.0288 111.098 52.3775 111.335 52.333 111.868C52.2886 112.341 52.7623 112.682 53.162 112.934C55.8562 114.547 58.4172 116.383 60.8301 118.396C61.9848 119.373 63.1691 120.454 63.5984 121.904C63.9832 123.192 63.7316 124.584 63.1691 125.812C62.6065 127.026 61.7775 128.092 60.9338 129.143C60.4897 129.706 59.9567 130.298 59.2462 130.327C58.506 130.342 57.9287 129.721 57.455 129.158C55.1605 126.464 52.6883 123.918 50.0533 121.564C49.7573 121.297 49.4316 121.016 49.0467 120.913C48.6618 120.809 48.1733 120.927 47.9957 121.283C47.744 121.786 48.1881 122.363 48.6026 122.748C50.3346 124.332 52.2146 125.783 53.7098 127.604C55.2049 129.41 56.3299 131.675 56.1967 134.028C56.0339 136.856 54.1539 139.254 52.3478 141.43C51.963 141.889 51.5189 142.392 50.9119 142.451C49.9793 142.54 49.3576 141.534 48.9727 140.69C48.3214 139.254 47.67 137.818 47.0039 136.382C46.767 135.849 46.5005 135.301 46.0416 134.946C45.5827 134.591 44.8574 134.517 44.4577 134.931C43.8656 135.553 44.3985 136.545 44.887 137.226C45.8788 138.603 46.7374 140.083 47.4628 141.608C48.1881 143.162 48.7655 144.953 48.1585 146.552C47.4332 148.432 45.3755 149.35 43.4955 150.075C42.5777 150.43 41.3046 150.682 40.8161 149.823C40.4016 149.113 40.9197 148.254 41.3046 147.544C42.2076 145.901 42.5629 143.961 42.2816 142.111C42.2224 141.741 42.104 141.312 41.7487 141.164C41.4082 141.015 40.9937 141.223 40.7865 141.534C40.5792 141.844 40.52 142.229 40.4608 142.599C40.2091 144.213 39.7946 145.797 39.2321 147.336C38.9953 147.973 38.7288 148.624 38.2699 149.113C37.811 149.616 37.1153 149.942 36.4491 149.794C35.857 149.675 35.3981 149.216 35.0132 148.743C33.4292 146.878 31.6676 142.821 32.3486 142.348Z" fill="#FDDFD3"/>
<path d="M37.219 145.797C37.6686 145.797 38.0332 145.433 38.0332 144.983C38.0332 144.533 37.6686 144.169 37.219 144.169C36.7693 144.169 36.4048 144.533 36.4048 144.983C36.4048 145.433 36.7693 145.797 37.219 145.797Z" fill="#AA2829"/>
<path d="M51.7852 134.458C52.2348 134.458 52.5994 134.094 52.5994 133.644C52.5994 133.195 52.2348 132.83 51.7852 132.83C51.3355 132.83 50.971 133.195 50.971 133.644C50.971 134.094 51.3355 134.458 51.7852 134.458Z" fill="#AA2829"/>
<path d="M45.5234 125.857C45.9731 125.857 46.3376 125.492 46.3376 125.043C46.3376 124.593 45.9731 124.229 45.5234 124.229C45.0737 124.229 44.7092 124.593 44.7092 125.043C44.7092 125.492 45.0737 125.857 45.5234 125.857Z" fill="#AA2829"/>
<path d="M45.2126 116.813C45.6623 116.813 46.0268 116.448 46.0268 115.999C46.0268 115.549 45.6623 115.185 45.2126 115.185C44.763 115.185 44.3984 115.549 44.3984 115.999C44.3984 116.448 44.763 116.813 45.2126 116.813Z" fill="#AA2829"/>
<path d="M49.2098 109.544C49.6595 109.544 50.024 109.18 50.024 108.73C50.024 108.281 49.6595 107.916 49.2098 107.916C48.7602 107.916 48.3956 108.281 48.3956 108.73C48.3956 109.18 48.7602 109.544 49.2098 109.544Z" fill="#AA2829"/>
<path d="M65.9821 117.064C66.4318 117.064 66.7963 116.699 66.7963 116.25C66.7963 115.8 66.4318 115.436 65.9821 115.436C65.5324 115.436 65.1679 115.8 65.1679 116.25C65.1679 116.699 65.5324 117.064 65.9821 117.064Z" fill="#AA2829"/>
<path d="M65.3597 105.739C65.8094 105.739 66.1739 105.374 66.1739 104.925C66.1739 104.475 65.8094 104.11 65.3597 104.11C64.9101 104.11 64.5455 104.475 64.5455 104.925C64.5455 105.374 64.9101 105.739 65.3597 105.739Z" fill="#AA2829"/>
<path d="M68.3652 93.8373C68.8149 93.8373 69.1794 93.4728 69.1794 93.0232C69.1794 92.5735 68.8149 92.209 68.3652 92.209C67.9156 92.209 67.551 92.5735 67.551 93.0232C67.551 93.4728 67.9156 93.8373 68.3652 93.8373Z" fill="#AA2829"/>
<path d="M75.2927 92.0913C75.7424 92.0913 76.1069 91.7267 76.1069 91.2771C76.1069 90.8274 75.7424 90.4629 75.2927 90.4629C74.843 90.4629 74.4785 90.8274 74.4785 91.2771C74.4785 91.7267 74.843 92.0913 75.2927 92.0913Z" fill="#AA2829"/>
<path d="M90.4075 104.14C90.8572 104.14 91.2217 103.776 91.2217 103.326C91.2217 102.876 90.8572 102.512 90.4075 102.512C89.9578 102.512 89.5933 102.876 89.5933 103.326C89.5933 103.776 89.9578 104.14 90.4075 104.14Z" fill="#AA2829"/>
<path d="M72.2436 106.391C72.1696 106.361 72.0808 106.361 72.0068 106.376C71.4887 106.361 70.8373 106.391 70.5857 106.909C70.4376 107.161 70.4228 107.56 70.7041 107.708C70.7781 107.753 70.8521 107.753 70.9409 107.753C71.0742 107.767 71.1926 107.812 71.311 107.856C71.4591 107.915 71.5183 108.034 71.6367 108.123C71.6959 108.138 71.7551 108.167 71.7995 108.197C71.7847 108.212 71.7847 108.226 71.7699 108.256C71.6811 108.478 71.6219 108.715 71.6515 108.952C71.6811 109.129 71.7847 109.292 71.8439 109.47C71.8587 109.499 71.8735 109.603 71.918 109.647C72.0364 109.707 72.1992 109.692 72.3028 109.781C72.3176 109.781 72.3177 109.795 72.3325 109.795C72.2732 110.018 72.4213 110.225 72.214 110.358C72.0956 110.417 71.918 110.417 71.8439 110.55C71.7551 110.817 71.9032 111.172 71.9624 111.394C71.9328 111.394 71.9032 111.394 71.8735 111.424C71.7995 111.483 71.7699 111.572 71.7699 111.661C71.7551 111.838 71.7403 112.031 71.7847 112.194C71.918 112.445 72.066 112.697 72.1696 112.963C72.1104 113.111 72.0068 113.259 71.8588 113.304C71.4147 113.333 71.3258 112.771 71.237 112.475C71.2074 112.297 71.2222 111.898 71.2074 111.646C71.2074 111.527 71.237 111.424 71.2518 111.291C71.311 110.95 71.3406 110.61 71.3702 110.225C71.3998 109.958 71.3406 109.588 71.311 109.351C71.2962 109.144 71.2814 108.922 71.1778 108.744C71.0446 108.611 70.9113 108.463 70.7337 108.374C70.4228 108.256 70.186 108.611 70.0527 108.848C69.6975 109.618 69.8899 110.55 69.9491 111.453C69.9343 110.595 69.6975 109.855 70.0824 109.041C70.2156 108.789 70.4672 108.434 70.7781 108.596C70.9409 108.685 71.089 108.818 71.1926 108.967C71.2814 109.115 71.2814 109.292 71.2962 109.455C71.3702 110.003 71.3406 110.121 71.2814 110.787C71.2074 111.143 71.163 111.69 71.1926 111.912C71.1926 112.268 71.1926 112.564 71.311 112.904C71.3554 113.141 71.5923 113.659 71.9476 113.482C72.066 113.378 72.1992 113.23 72.214 113.082C72.2436 112.682 71.9772 112.342 71.7995 112.001C71.7699 111.927 71.7847 111.927 71.7995 111.838C71.7995 111.764 71.8439 111.602 71.992 111.602C72.0808 111.335 71.918 111.054 71.8588 110.787C71.8736 110.728 71.9032 110.698 71.9624 110.669C72.066 110.61 72.1844 110.61 72.2732 110.536C72.3621 110.447 72.3473 110.314 72.3621 110.195C72.3621 110.136 72.3621 110.047 72.3473 109.988C72.3473 109.958 72.3769 109.929 72.3917 109.899C72.4065 109.87 72.4213 109.855 72.4361 109.84C72.5397 109.929 72.5989 110.047 72.6877 110.166C72.7025 110.195 72.7025 110.195 72.7025 110.21C72.7025 110.269 72.7025 110.343 72.7617 110.417C72.9838 110.55 73.0134 110.743 73.1614 110.921C73.2058 110.98 73.2503 111.024 73.2947 111.083C73.2355 111.172 73.2503 111.291 73.2651 111.394C73.3243 111.587 73.4575 111.735 73.4427 111.927C73.4131 112.12 73.3983 112.312 73.4279 112.505C73.4871 112.815 73.5611 113.082 73.6055 113.348V113.363C73.5759 113.452 73.5315 113.526 73.4871 113.6C73.2503 113.881 72.8506 114.103 72.4805 114.118C72.3473 114.074 72.1992 113.807 72.1104 113.689C72.214 113.467 72.4953 113.363 72.5989 113.126C72.747 112.963 72.9394 112.801 72.9838 112.579C72.9838 112.579 72.9986 112.549 72.9838 112.564C72.969 112.593 72.969 112.623 72.9542 112.653C72.8506 112.889 72.6433 112.949 72.4805 113.185C72.3621 113.304 72.1696 113.363 72.0956 113.526C72.066 113.644 72.0512 113.778 72.1104 113.881C72.214 114.029 72.3176 114.192 72.4509 114.325C72.6285 114.385 72.8062 114.281 72.969 114.207C73.1911 114.103 73.4131 113.955 73.5463 113.748C73.6648 113.585 73.6647 113.363 73.6203 113.171C73.5759 112.919 73.5019 112.608 73.4575 112.342C73.4427 112.312 73.4723 112.164 73.4871 112.06C73.5019 111.912 73.4723 111.794 73.4575 111.661C73.4427 111.527 73.3687 111.409 73.3095 111.276C73.3243 111.261 73.3539 111.246 73.3687 111.217C73.3983 111.172 73.3835 111.113 73.3835 111.069C73.3835 110.891 73.2207 110.773 73.117 110.639C72.9986 110.491 72.9394 110.299 72.7617 110.21C72.7321 110.195 72.7173 110.166 72.7173 110.136C72.7173 110.106 72.7025 110.032 72.7025 110.018C72.6729 109.929 72.5989 109.87 72.5545 109.781C72.5397 109.751 72.5101 109.707 72.4805 109.677C72.4953 109.559 72.5101 109.44 72.4953 109.307C72.4805 109.026 72.4213 108.656 72.1844 108.286C72.14 108.212 72.066 108.167 72.0068 108.108L71.992 108.093C72.2288 107.975 72.3176 107.723 72.4065 107.486C72.4509 107.353 72.5545 107.264 72.5841 107.131C72.6137 106.938 72.6581 106.702 72.5249 106.539C72.4213 106.524 72.3325 106.45 72.2436 106.391ZM72.14 108.508C72.3473 108.804 72.4509 109.115 72.4657 109.396C72.4657 109.455 72.4953 109.544 72.4065 109.662C72.3325 109.588 72.2288 109.544 72.1252 109.514C72.0512 109.485 71.9476 109.499 71.8735 109.44C71.8439 109.366 71.8291 109.292 71.7995 109.218C71.7551 109.115 71.6515 108.892 71.6515 108.863C71.6959 108.67 71.7403 108.434 71.8588 108.271C71.9624 108.345 72.0512 108.434 72.14 108.508ZM72.4361 107.22C72.3177 107.442 72.288 107.753 72.0512 107.901C71.9772 107.93 71.918 107.975 71.8735 108.034C71.8143 107.989 71.7551 107.945 71.6959 107.93C71.5331 107.886 71.4739 107.753 71.3406 107.664C71.2222 107.59 71.089 107.545 70.9409 107.531C70.8521 107.516 70.7485 107.531 70.6597 107.471C70.5857 107.442 70.5413 107.353 70.5116 107.309C70.5265 107.279 70.5264 107.264 70.5412 107.235C70.7337 106.731 71.3406 106.568 71.8439 106.613C71.9772 106.628 72.1252 106.568 72.2436 106.628C72.3325 106.702 72.5101 106.805 72.5545 106.909C72.5545 106.998 72.5101 107.116 72.4361 107.22Z" fill="#AA2829"/>
</svg>
