<svg width="497" height="460" viewBox="0 0 497 460" fill="none" xmlns="http://www.w3.org/2000/svg">
<path d="M133.411 78.7526C136.534 66.6879 156.356 60.1596 177.924 65.6073C199.493 71.0549 223.874 105.887 200.425 110.195C187.606 112.549 178.872 95.8652 165.504 94.755C137.008 92.3864 130.287 90.8025 133.411 78.7526Z" fill="#E69264"/>
<path opacity="0.3608" d="M139.599 73.6748C140.768 74.3262 142.234 76.0434 143.551 77.2128C144.277 77.8642 145.431 78.4711 146.112 77.5829C146.63 76.9019 146.334 75.8361 145.742 75.3624C145.165 74.8887 144.395 74.8295 143.699 74.637C142.989 74.4446 142.263 74.0449 142.056 73.2307C141.879 72.535 142.16 71.7208 142.619 71.1583C143.078 70.5957 143.699 70.2553 144.306 70.0036C145.757 69.3967 147.652 69.3967 148.303 70.9066C148.644 71.6912 148.54 72.6534 148.481 73.5564C148.422 74.4594 148.436 75.466 148.925 76.1026C149.413 76.7539 150.553 76.6947 150.864 75.8213C150.538 74.5926 150.006 73.4824 149.71 72.2389C149.413 70.9954 149.369 69.5595 149.976 68.3753C150.583 67.191 151.989 66.4804 152.892 67.1466C153.484 67.5907 153.736 68.4937 153.721 69.3523C153.706 70.2257 153.499 71.0843 153.366 71.9577C152.759 75.7473 154.683 82.468 155.646 81.6242C156.356 80.9877 155.424 77.0204 155.098 74.4002C154.772 71.7948 154.979 68.7453 156.667 66.7469C157.244 66.0659 157.999 65.5478 158.784 65.4738C159.569 65.3998 160.368 65.8439 160.634 66.6729C161.034 67.8571 160.323 69.2486 159.82 70.4773C159.317 71.7208 159.169 73.4972 160.19 73.9561C161.123 72.5942 161.271 70.803 161.7 69.1746C162.115 67.5315 163.106 65.7403 164.528 65.5922C165.741 65.459 166.718 66.6877 166.955 68.0644C167.192 69.4411 166.881 70.9066 166.57 72.3129C166.067 74.6222 165.564 76.9168 165.061 79.2261C164.824 80.3215 164.75 81.8018 165.623 82.0979C166.2 82.2904 166.867 81.7574 167.163 81.0913C167.459 80.4251 167.503 79.6702 167.533 78.9448C167.666 76.221 167.962 73.4824 168.406 70.7734C168.643 69.2931 169.057 67.6055 170.212 66.8949C171.5 66.0955 172.98 66.9689 173.824 68.1976C175.304 70.3589 175.586 73.4676 175.156 76.369C174.712 79.2705 173.617 82.0387 172.536 84.7773C173.04 84.9697 173.646 84.6589 174.031 84.1556C174.416 83.6671 174.638 83.0305 174.831 82.4088C175.675 79.7146 176.281 76.9612 176.652 74.1781C176.8 73.0975 176.918 71.9873 177.377 71.0102C177.836 70.0332 178.754 69.2042 179.657 69.3523C180.604 69.5003 181.167 70.6698 181.152 71.8096C181.137 72.9495 180.708 74.0597 180.293 75.1256C179.879 76.1914 179.464 77.3164 179.494 78.4563C179.509 78.9892 179.79 79.6258 180.249 79.4925C180.471 79.4333 180.648 79.1817 180.767 78.9448C181.951 76.7391 181.344 73.4972 183.091 71.8984C183.92 71.1287 185.149 71.0695 185.918 71.7504C186.688 72.4314 186.94 73.7933 186.511 74.9183C186.081 76.0286 185.119 76.7539 184.497 77.7457C183.876 78.7376 183.757 80.4251 184.69 80.736C185.341 80.9581 186.081 80.3067 186.437 79.5517C186.792 78.7968 186.895 77.953 187.162 77.1536C187.562 76.0138 188.405 74.9775 189.412 74.7407C190.433 74.5038 191.514 75.3032 191.929 75.9842C192.343 76.6503 192.713 77.4645 192.58 78.1454C192.432 78.8264 191.973 79.3593 191.558 79.8922C189.738 82.2311 188.465 85.1474 187.946 88.1525C187.843 88.7594 187.769 89.4107 187.976 89.9437C188.183 90.4766 188.761 90.8319 189.234 90.5358C189.56 90.3285 189.856 89.9141 189.9 89.4996C190.152 87.1902 190.877 85.2954 191.647 83.2822C192.091 82.1275 193.187 79.7442 194.193 79.3297C196.281 78.4711 198.042 81.417 198.072 82.1275C198.102 82.8381 197.761 83.519 197.435 84.1704C196.976 85.0882 196.518 85.9912 196.059 86.909C195.851 87.3087 195.644 87.738 195.6 88.1821C195.555 88.641 195.703 89.1295 196.059 89.2775C196.577 89.4848 197.124 88.863 197.45 88.2857C198.057 87.2051 198.486 85.9912 198.694 84.7625C198.753 84.4368 198.812 84.0667 199.064 83.8743C199.301 83.6967 199.611 83.7855 199.848 83.9187C201.062 84.6145 201.788 86.2724 201.58 87.9304C201.417 89.1887 200.811 90.3286 200.278 91.4684C199.745 92.6083 199.256 93.8813 199.419 95.0952C199.478 95.5393 199.626 95.9834 199.922 96.2351C200.218 96.5015 200.677 96.5311 201.003 96.2499C201.417 95.8798 201.447 95.2136 201.491 94.6215C201.58 93.7037 201.832 92.7859 202.232 91.9421C202.468 91.4388 202.824 90.9355 203.283 90.8467C203.845 90.743 204.26 91.3056 204.571 91.8089C205.503 93.3632 206.332 95.036 206.776 96.9012C207.22 98.7664 207.235 100.854 206.599 102.763C205.947 104.673 204.571 106.361 202.913 106.923C202.32 107.13 201.595 107.145 201.24 106.597C200.914 106.079 201.062 105.324 201.24 104.658C202.617 99.7286 202.261 100.054 202.069 99.7879C201.847 99.477 200.514 101.446 200.144 102.512C199.759 103.637 199.656 104.851 199.212 105.946C198.768 107.041 197.835 108.078 196.843 107.87C195.985 108.255 195.022 107.782 194.549 106.953C194.075 106.124 194.016 105.013 194.149 103.962C194.297 102.911 194.623 101.89 194.904 100.868C195.452 98.8256 195.763 96.7384 195.837 94.6511C195.851 94.3254 195.851 93.9998 195.733 93.7185C195.615 93.4372 195.333 93.2448 195.067 93.3484C194.815 93.452 194.667 93.7629 194.549 94.059C193.927 95.7614 193.794 97.5822 193.468 99.3586C193.142 101.135 192.565 102.985 191.351 104.199C190.137 105.413 188.139 105.635 187.28 104.258C186.659 103.267 186.807 101.772 187.31 100.572C187.798 99.3586 188.598 98.3371 189.264 97.2417C189.604 96.6792 189.93 96.0574 189.96 95.4061C190.004 94.7399 189.649 94.059 189.086 94.0294C188.42 93.9998 187.917 94.8139 187.621 95.5393C187.162 96.6348 186.807 97.7746 186.2 98.7812C185.593 99.7879 184.66 100.617 183.668 100.632C182.825 100.632 182.099 100.04 181.625 99.2697C180.604 97.597 180.648 95.184 181.27 93.0968C181.892 90.9947 183.017 89.1147 184.098 87.2495C184.453 86.6425 184.808 85.9764 184.838 85.2658C184.867 84.5553 184.394 83.8447 183.787 83.9779C183.209 84.1112 182.899 84.8809 182.676 85.5323C182.04 87.4863 181.403 89.4403 180.782 91.3944C180.471 92.3714 180.145 93.3632 179.612 94.207C179.079 95.0656 178.295 95.7762 177.421 95.8946C176.341 96.0426 175.349 95.1988 174.964 94.0442C174.579 92.8895 174.742 91.5276 175.186 90.3137C175.63 89.0999 176.311 88.0192 177.036 86.983C177.451 86.3909 177.88 85.7543 177.969 85.029C178.058 84.3036 177.643 83.4894 177.022 83.593C176.459 83.6819 176.119 84.3776 175.867 84.9994C175.467 85.9764 175.068 86.9386 174.668 87.9156C174.224 88.9963 172.729 92.8007 170.39 92.4306C169.428 92.2826 168.599 91.2612 168.747 90.1361C169.413 87.6492 170.079 85.1622 170.745 82.69C171.396 80.2919 172.018 77.5829 171.026 75.54C170.819 75.096 170.39 74.6667 169.975 74.9035C169.605 75.1108 169.516 75.6733 169.472 76.147C169.22 79.2557 168.776 82.3644 168.125 85.4287C167.814 86.909 167.414 88.4633 166.482 89.5736C165.653 90.5506 164.498 91.0539 163.373 91.2019C162.248 91.35 161.138 91.1871 160.042 91.0243C159.465 90.9355 158.799 90.7875 158.532 90.2101C158.251 89.5884 158.503 88.789 158.754 88.0933C159.968 84.7773 160.99 81.3726 161.804 77.9382C161.893 77.5533 161.981 77.1388 161.922 76.7539C161.863 76.369 161.597 76.0286 161.256 76.0582C160.782 76.1026 160.516 76.7687 160.368 77.3164C159.791 79.5961 159.376 81.9203 158.562 84.126C157.748 86.3317 156.43 88.4337 154.609 89.5144C152.404 90.8319 149.902 90.4618 147.593 90.0473C147.104 89.9585 146.556 89.84 146.305 89.3515C145.905 88.6114 146.423 87.5751 146.926 86.8054C147.77 85.5175 148.629 84.2296 149.473 82.9417C149.784 82.468 150.109 81.9647 150.213 81.4022C150.316 80.8248 150.109 80.1735 149.635 80.0551C148.955 79.8774 148.392 80.8248 148.052 81.5946C147.371 83.1341 146.571 84.6293 145.668 86.0208C144.765 87.4271 143.611 88.8482 142.175 89.1443C140.487 89.4996 139.036 88.2117 137.793 87.0126C137.186 86.4205 136.535 85.4731 136.993 84.6145C137.378 83.9039 138.222 83.8891 138.903 83.8595C140.487 83.7855 142.086 83.0897 143.389 81.9055C143.655 81.6686 143.936 81.3429 143.921 80.9729C143.907 80.6028 143.596 80.3659 143.285 80.3511C142.974 80.3363 142.663 80.4844 142.367 80.6176C141.05 81.2245 139.688 81.6982 138.326 81.9943C137.763 82.1275 137.171 82.2163 136.623 82.0831C136.076 81.9499 135.572 81.5206 135.439 80.884C135.321 80.3215 135.498 79.6998 135.706 79.1373C136.564 76.9168 138.992 73.3344 139.599 73.6748Z" fill="#FDDFD3"/>
<path d="M140.033 79.3373C140.152 78.9035 139.96 78.4734 139.605 78.3766C139.25 78.2799 138.866 78.5531 138.748 78.9869C138.63 79.4208 138.822 79.8509 139.177 79.9477C139.531 80.0444 139.915 79.7712 140.033 79.3373Z" fill="#AA2829"/>
<path d="M153.958 85.851C154.077 85.4172 153.885 84.987 153.53 84.8903C153.175 84.7935 152.791 85.0668 152.673 85.5006C152.555 85.9344 152.747 86.3646 153.102 86.4613C153.457 86.5581 153.84 86.2848 153.958 85.851Z" fill="#AA2829"/>
<path d="M158.195 76.1362C158.313 75.7023 158.121 75.2722 157.766 75.1754C157.411 75.0787 157.028 75.3519 156.909 75.7858C156.791 76.2196 156.983 76.6497 157.338 76.7465C157.693 76.8432 158.077 76.57 158.195 76.1362Z" fill="#AA2829"/>
<path d="M164.937 71.2416C165.055 70.8078 164.863 70.3777 164.508 70.2809C164.153 70.1842 163.769 70.4574 163.651 70.8912C163.533 71.3251 163.725 71.7552 164.08 71.852C164.435 71.9487 164.818 71.6755 164.937 71.2416Z" fill="#AA2829"/>
<path d="M171.907 70.9028C172.026 70.4689 171.834 70.0388 171.479 69.942C171.124 69.8453 170.74 70.1185 170.622 70.5524C170.504 70.9862 170.696 71.4163 171.051 71.5131C171.406 71.6098 171.789 71.3366 171.907 70.9028Z" fill="#AA2829"/>
<path d="M172.343 88.9506C172.462 88.5168 172.27 88.0867 171.915 87.9899C171.56 87.8931 171.176 88.1664 171.058 88.6002C170.94 89.034 171.131 89.4642 171.486 89.5609C171.841 89.6577 172.225 89.3844 172.343 88.9506Z" fill="#AA2829"/>
<path d="M180.7 82.6254C180.818 82.1916 180.626 81.7615 180.271 81.6647C179.916 81.568 179.533 81.8412 179.414 82.275C179.296 82.7089 179.488 83.139 179.843 83.2357C180.198 83.3325 180.582 83.0592 180.7 82.6254Z" fill="#AA2829"/>
<path d="M190.833 79.0551C190.951 78.6213 190.759 78.1911 190.404 78.0944C190.049 77.9976 189.666 78.2709 189.548 78.7047C189.429 79.1385 189.621 79.5687 189.976 79.6654C190.331 79.7622 190.715 79.4889 190.833 79.0551Z" fill="#AA2829"/>
<path d="M194.679 84.0414C194.797 83.6076 194.605 83.1775 194.25 83.0807C193.896 82.9839 193.512 83.2572 193.394 83.691C193.275 84.1249 193.467 84.555 193.822 84.6518C194.177 84.7485 194.561 84.4753 194.679 84.0414Z" fill="#AA2829"/>
<path d="M191.071 102.997C191.19 102.564 190.998 102.134 190.643 102.037C190.288 101.94 189.904 102.213 189.786 102.647C189.668 103.081 189.86 103.511 190.215 103.608C190.57 103.705 190.953 103.431 191.071 102.997Z" fill="#AA2829"/>
<path d="M181.462 88.996C181.462 88.922 181.418 88.8479 181.388 88.7887C181.211 88.3446 180.959 87.8117 180.456 87.8561C180.219 87.8561 179.908 88.0486 179.893 88.3594C179.878 88.4483 179.923 88.5075 179.937 88.5815C179.967 88.6999 179.982 88.8183 179.982 88.9516C179.997 89.0996 179.923 89.218 179.908 89.3661C179.923 89.4253 179.923 89.4845 179.908 89.5437C179.893 89.5437 179.878 89.5437 179.863 89.5585C179.671 89.5881 179.464 89.6621 179.301 89.8102C179.168 89.9286 179.094 90.1062 178.99 90.2394C178.975 90.2691 178.901 90.3283 178.886 90.3875C178.886 90.5207 178.946 90.6539 178.931 90.7872C178.931 90.802 178.931 90.8168 178.931 90.8316C178.738 90.8908 178.635 91.1276 178.457 91.024C178.368 90.95 178.309 90.802 178.176 90.8168C177.939 90.876 177.732 91.1721 177.584 91.3497C177.569 91.3349 177.569 91.3053 177.525 91.2905C177.451 91.2461 177.377 91.2757 177.303 91.3201C177.154 91.3941 177.021 91.4829 176.903 91.6162C176.755 91.8678 176.622 92.1195 176.459 92.3415C176.325 92.3711 176.177 92.3563 176.089 92.2527C175.911 91.8974 176.296 91.5273 176.488 91.2905C176.607 91.1721 176.918 90.9796 177.11 90.8464C177.199 90.7872 177.288 90.7576 177.406 90.6983C177.687 90.5651 177.954 90.4319 178.25 90.2543C178.457 90.1358 178.724 89.899 178.886 89.7657C179.034 89.6473 179.197 89.5289 179.286 89.3364C179.345 89.1588 179.405 88.9664 179.405 88.7739C179.375 88.4483 179.02 88.4334 178.798 88.4483C178.087 88.5371 177.436 89.1736 176.784 89.6917C177.436 89.2328 177.909 88.6703 178.664 88.5667C178.901 88.5519 179.257 88.5815 179.257 88.922C179.242 89.0996 179.197 89.3068 179.123 89.4697C179.049 89.6177 178.916 89.7065 178.783 89.8102C178.398 90.1506 178.294 90.195 177.761 90.4763C177.465 90.5947 177.036 90.8316 176.873 90.9796C176.607 91.1573 176.37 91.3053 176.163 91.5866C176 91.7494 175.689 92.2231 175.955 92.4303C176.074 92.4896 176.237 92.5044 176.37 92.4451C176.681 92.2675 176.844 91.8678 177.036 91.5421C177.08 91.4829 177.08 91.4977 177.154 91.4533C177.214 91.4089 177.347 91.3793 177.406 91.4977C177.643 91.4385 177.791 91.1573 177.969 90.9648C178.013 90.95 178.057 90.9648 178.087 90.9796C178.161 91.0388 178.206 91.1424 178.294 91.1721C178.398 91.2017 178.487 91.1276 178.576 91.0684C178.62 91.0388 178.694 90.9944 178.724 90.95C178.753 90.9352 178.783 90.9352 178.812 90.95C178.842 90.95 178.857 90.9648 178.872 90.9648C178.842 91.098 178.768 91.2165 178.709 91.3349C178.694 91.3645 178.694 91.3645 178.679 91.3793C178.635 91.4089 178.576 91.4533 178.546 91.5421C178.531 91.8086 178.398 91.9122 178.309 92.1491C178.28 92.2231 178.265 92.2823 178.235 92.3563C178.146 92.3563 178.057 92.4303 177.983 92.4895C177.865 92.6376 177.791 92.83 177.643 92.9188C177.48 92.9929 177.332 93.0817 177.199 93.2001C176.992 93.4074 176.814 93.5998 176.622 93.7774L176.607 93.7922C176.533 93.807 176.459 93.8218 176.385 93.8218C176.089 93.7626 175.778 93.5406 175.63 93.2445C175.615 93.0965 175.763 92.8596 175.822 92.6968C176.029 92.6672 176.207 92.8596 176.429 92.8152C176.607 92.8596 176.799 92.9336 176.992 92.8596C176.992 92.8596 177.021 92.8596 177.006 92.8596C176.977 92.8596 176.962 92.8744 176.932 92.8744C176.71 92.904 176.592 92.756 176.355 92.7412C176.222 92.6968 176.103 92.5784 175.955 92.5932C175.852 92.6228 175.748 92.682 175.689 92.7856C175.615 92.9485 175.526 93.1261 175.467 93.3037C175.482 93.4814 175.645 93.585 175.748 93.6886C175.911 93.8219 176.103 93.9403 176.311 93.9403C176.474 93.9551 176.636 93.8515 176.77 93.7034C176.947 93.5406 177.154 93.3185 177.347 93.1261C177.362 93.1113 177.495 93.0521 177.569 93.0077C177.673 92.9485 177.761 92.8744 177.865 92.7856C177.969 92.6968 178.028 92.5784 178.102 92.4748C178.117 92.4748 178.146 92.4895 178.161 92.4895C178.206 92.4895 178.25 92.4451 178.28 92.4303C178.413 92.3415 178.442 92.1343 178.502 91.9862C178.576 91.8086 178.694 91.6606 178.709 91.4681C178.709 91.4385 178.724 91.4089 178.738 91.3941C178.753 91.3793 178.812 91.3349 178.827 91.3201C178.886 91.2461 178.901 91.1424 178.96 91.0684C178.975 91.0388 178.99 90.9944 179.005 90.95C179.108 90.9056 179.183 90.8464 179.286 90.7724C179.493 90.6243 179.76 90.3875 179.952 89.9878C179.997 89.9138 179.997 89.825 180.026 89.7509C180.026 89.7361 180.026 89.7361 180.026 89.7213C180.204 89.8546 180.426 89.8102 180.633 89.7657C180.752 89.7361 180.855 89.7806 180.974 89.7361C181.122 89.6621 181.329 89.5733 181.388 89.3809C181.418 89.2328 181.447 89.1144 181.462 88.996ZM179.819 90.0026C179.671 90.3283 179.464 90.5799 179.271 90.728C179.227 90.7576 179.168 90.8168 179.049 90.8168C179.079 90.7132 179.079 90.6095 179.064 90.5059C179.049 90.4319 179.02 90.3431 179.034 90.2543C179.079 90.195 179.123 90.1358 179.168 90.0766C179.227 89.9878 179.36 89.7954 179.375 89.7657C179.538 89.6917 179.73 89.6177 179.893 89.6325C179.878 89.7806 179.834 89.899 179.819 90.0026ZM180.9 89.5881C180.678 89.6029 180.441 89.7361 180.248 89.6029C180.204 89.5585 180.145 89.5437 180.086 89.5289C180.1 89.4549 180.115 89.3809 180.1 89.3216C180.071 89.1588 180.16 89.0404 180.174 88.8775C180.189 88.7443 180.16 88.5963 180.13 88.4779C180.1 88.389 180.056 88.315 180.071 88.2114C180.071 88.1374 180.115 88.0486 180.145 87.9894C180.174 87.9894 180.189 87.9745 180.219 87.9745C180.678 87.8857 181.018 88.3002 181.166 88.7591C181.211 88.8775 181.299 88.9664 181.299 89.1144C181.27 89.2328 181.255 89.4253 181.211 89.5141C181.107 89.5881 181.003 89.6029 180.9 89.5881Z" fill="#AA2829"/>
</svg>
