<svg width="497" height="460" viewBox="0 0 497 460" fill="none" xmlns="http://www.w3.org/2000/svg">
<path d="M326.075 167.617C327.97 183.101 310.695 199.666 286.639 203.012C262.584 206.357 223.385 176.706 245.264 161.104C257.225 152.577 273.02 168.12 286.995 163.398C316.735 153.302 324.181 152.133 326.075 167.617Z" fill="#E69264"/>
<path opacity="0.3608" d="M321.96 176.322C320.509 176.085 318.318 174.752 316.498 173.968C315.476 173.524 314.07 173.346 313.759 174.693C313.522 175.715 314.277 176.84 315.062 177.121C315.846 177.402 316.646 177.136 317.43 177.047C318.215 176.958 319.133 177.091 319.68 177.935C320.154 178.66 320.213 179.741 319.976 180.6C319.74 181.458 319.266 182.139 318.748 182.717C317.534 184.078 315.624 184.937 314.336 183.472C313.67 182.717 313.359 181.547 313.048 180.452C312.738 179.356 312.308 178.216 311.539 177.683C310.769 177.151 309.644 177.728 309.703 178.882C310.547 180.156 311.553 181.236 312.367 182.539C313.182 183.842 313.833 185.514 313.715 187.158C313.596 188.801 312.486 190.281 311.287 189.896C310.502 189.644 309.881 188.712 309.525 187.69C309.17 186.669 309.022 185.574 308.8 184.493C307.823 179.786 303.071 172.813 302.464 174.234C302.005 175.285 304.625 179.519 306.046 182.406C307.468 185.307 308.533 188.964 307.66 192.043C307.364 193.094 306.816 194.041 306.061 194.485C305.306 194.914 304.314 194.752 303.678 193.923C302.775 192.709 302.923 190.784 302.908 189.112C302.893 187.439 302.286 185.292 301.073 185.218C300.702 187.232 301.295 189.378 301.561 191.48C301.828 193.582 301.576 196.114 300.199 196.928C299.03 197.623 297.535 196.632 296.72 195.137C295.906 193.641 295.595 191.791 295.329 190C294.87 187.084 294.411 184.167 293.967 181.251C293.745 179.86 293.212 178.098 292.191 178.142C291.524 178.172 291.08 179.105 291.051 180.008C291.021 180.925 291.302 181.814 291.569 182.687C292.575 185.929 293.419 189.26 294.115 192.62C294.485 194.456 294.781 196.602 293.908 197.964C292.946 199.489 291.066 199.119 289.718 198.068C287.32 196.217 285.736 192.724 284.967 189.126C284.197 185.544 284.138 181.814 284.093 178.128C283.501 178.128 283.027 178.779 282.835 179.519C282.642 180.259 282.702 181.118 282.761 181.932C283.042 185.44 283.575 188.949 284.36 192.354C284.671 193.671 285.011 195.033 284.952 196.38C284.893 197.727 284.3 199.104 283.338 199.341C282.317 199.592 281.266 198.482 280.807 197.15C280.348 195.817 280.318 194.322 280.289 192.886C280.259 191.451 280.215 189.941 279.697 188.653C279.46 188.031 278.912 187.424 278.512 187.779C278.305 187.957 278.246 188.312 278.216 188.653C277.95 191.761 279.919 195.27 278.808 197.934C278.29 199.207 277.076 199.829 276.011 199.37C274.945 198.926 274.116 197.446 274.086 195.936C274.057 194.441 274.723 193.168 274.945 191.732C275.167 190.296 274.575 188.268 273.494 188.327C272.739 188.371 272.265 189.467 272.236 190.503C272.191 191.539 272.443 192.576 272.502 193.627C272.576 195.137 272.162 196.735 271.229 197.461C270.296 198.186 268.861 197.742 268.165 197.15C267.469 196.558 266.744 195.773 266.61 194.914C266.477 194.056 266.714 193.212 266.907 192.413C267.765 188.86 267.839 184.893 267.099 181.147C266.951 180.392 266.744 179.593 266.314 179.06C265.885 178.527 265.16 178.379 264.79 178.942C264.538 179.327 264.42 179.948 264.553 180.452C265.263 183.264 265.323 185.81 265.382 188.505C265.426 190.044 265.308 193.331 264.464 194.263C262.717 196.217 259.697 193.553 259.372 192.738C259.046 191.924 259.09 190.962 259.15 190.074C259.238 188.801 259.312 187.528 259.401 186.269C259.446 185.707 259.475 185.115 259.342 184.567C259.209 184.019 258.839 183.501 258.424 183.501C257.817 183.486 257.521 184.463 257.432 185.278C257.27 186.817 257.344 188.416 257.654 189.955C257.728 190.37 257.832 190.829 257.654 191.154C257.492 191.48 257.136 191.51 256.84 191.451C255.316 191.184 253.894 189.57 253.421 187.542C253.051 186.003 253.199 184.389 253.258 182.82C253.317 181.251 253.273 179.549 252.607 178.202C252.355 177.713 252.029 177.269 251.615 177.091C251.2 176.914 250.727 177.091 250.519 177.565C250.268 178.172 250.519 178.986 250.697 179.682C250.993 180.792 251.126 181.991 251.067 183.146C251.037 183.827 250.889 184.597 250.46 184.893C249.942 185.263 249.276 184.804 248.758 184.345C247.159 182.953 245.619 181.384 244.406 179.401C243.177 177.417 242.274 174.989 242.141 172.473C242.007 169.956 242.674 167.366 244.124 165.944C244.642 165.441 245.368 165.086 245.945 165.56C246.493 166.004 246.67 166.966 246.759 167.81C247.425 174.175 247.662 173.642 247.958 173.864C248.314 174.131 248.847 171.229 248.758 169.823C248.669 168.343 248.284 166.877 248.254 165.397C248.225 163.916 248.758 162.288 249.838 162.066C250.549 161.222 251.704 161.341 252.533 162.11C253.362 162.865 253.894 164.138 254.176 165.426C254.472 166.714 254.561 168.061 254.709 169.379C255.005 171.999 255.567 174.59 256.367 177.047C256.485 177.432 256.633 177.817 256.87 178.098C257.107 178.364 257.462 178.483 257.684 178.231C257.906 177.994 257.921 177.565 257.906 177.165C257.817 174.915 257.196 172.71 256.781 170.504C256.367 168.283 256.174 165.856 256.885 163.902C257.61 161.948 259.52 160.778 260.97 161.992C262.021 162.88 262.48 164.671 262.495 166.315C262.51 167.958 262.14 169.497 261.918 171.081C261.814 171.895 261.74 172.754 261.977 173.539C262.214 174.323 262.85 174.974 263.428 174.752C264.109 174.501 264.286 173.316 264.286 172.325C264.286 170.844 264.168 169.349 264.36 167.913C264.553 166.477 265.145 165.071 266.152 164.612C266.995 164.227 267.987 164.597 268.772 165.278C270.504 166.773 271.466 169.601 271.718 172.325C271.969 175.048 271.614 177.757 271.303 180.422C271.199 181.295 271.111 182.228 271.392 183.072C271.658 183.916 272.443 184.537 272.991 184.108C273.524 183.694 273.524 182.657 273.464 181.799C273.287 179.238 273.109 176.662 272.931 174.101C272.843 172.813 272.754 171.51 272.931 170.282C273.109 169.038 273.612 167.869 274.427 167.336C275.463 166.67 276.81 167.217 277.683 168.387C278.557 169.556 278.956 171.229 279.03 172.843C279.09 174.456 278.853 176.025 278.557 177.55C278.394 178.424 278.216 179.356 278.424 180.259C278.631 181.147 279.401 181.902 279.993 181.517C280.511 181.162 280.585 180.185 280.585 179.356C280.585 178.039 280.585 176.721 280.585 175.419C280.585 173.953 280.496 168.831 283.013 168.224C284.049 167.972 285.307 168.772 285.618 170.163C285.988 173.361 286.343 176.558 286.713 179.756C287.069 182.85 287.572 186.284 289.422 188.223C289.822 188.638 290.429 188.949 290.755 188.49C291.051 188.075 290.903 187.38 290.74 186.817C289.689 183.087 288.845 179.253 288.208 175.374C287.898 173.509 287.661 171.51 288.134 169.793C288.564 168.269 289.526 167.158 290.592 166.477C291.672 165.796 292.857 165.486 294.041 165.189C294.663 165.027 295.388 164.908 295.906 165.471C296.454 166.063 296.528 167.129 296.558 168.046C296.72 172.473 297.12 176.899 297.727 181.281C297.801 181.784 297.875 182.302 298.097 182.717C298.319 183.131 298.734 183.412 299.059 183.235C299.533 182.968 299.518 182.065 299.429 181.369C299.059 178.453 298.497 175.537 298.408 172.606C298.319 169.675 298.763 166.625 300.155 164.523C301.828 161.992 304.507 161.296 307.023 160.734C307.556 160.615 308.163 160.512 308.622 160.956C309.348 161.651 309.244 163.087 309.052 164.212C308.741 166.092 308.415 167.987 308.104 169.867C307.986 170.563 307.867 171.288 308.015 171.999C308.149 172.71 308.637 173.376 309.155 173.316C309.925 173.228 310.088 171.866 310.117 170.8C310.162 168.683 310.354 166.596 310.68 164.553C311.006 162.495 311.583 160.334 312.9 159.327C314.455 158.158 316.453 159.002 318.215 159.845C319.073 160.26 320.124 161.074 320.021 162.288C319.932 163.295 319.088 163.68 318.407 164.02C316.838 164.819 315.521 166.359 314.706 168.328C314.544 168.727 314.396 169.231 314.558 169.66C314.721 170.075 315.136 170.223 315.461 170.104C315.787 169.986 316.039 169.675 316.276 169.379C317.356 168.076 318.526 166.921 319.784 165.944C320.302 165.545 320.85 165.16 321.472 165.071C322.078 164.982 322.774 165.249 323.174 165.93C323.529 166.537 323.603 167.336 323.633 168.091C323.677 171.17 322.7 176.44 321.96 176.322Z" fill="#FDDFD3"/>
<path d="M320.016 170.83C320.423 170.788 320.706 170.306 320.649 169.753C320.591 169.2 320.215 168.786 319.808 168.828C319.402 168.87 319.119 169.353 319.176 169.906C319.233 170.459 319.61 170.873 320.016 170.83Z" fill="#AA2829"/>
<path d="M303.229 169.498C303.635 169.456 303.919 168.974 303.861 168.421C303.804 167.868 303.428 167.454 303.021 167.496C302.614 167.538 302.331 168.021 302.389 168.574C302.446 169.127 302.822 169.541 303.229 169.498Z" fill="#AA2829"/>
<path d="M303.022 182.748C303.429 182.706 303.712 182.224 303.654 181.671C303.597 181.118 303.221 180.704 302.814 180.746C302.408 180.788 302.125 181.271 302.182 181.824C302.239 182.377 302.615 182.791 303.022 182.748Z" fill="#AA2829"/>
<path d="M298.241 191.498C298.648 191.456 298.931 190.974 298.874 190.421C298.816 189.868 298.44 189.454 298.034 189.496C297.627 189.538 297.344 190.021 297.401 190.574C297.459 191.127 297.835 191.541 298.241 191.498Z" fill="#AA2829"/>
<path d="M291.343 195.038C291.749 194.995 292.032 194.513 291.975 193.96C291.918 193.407 291.542 192.993 291.135 193.035C290.728 193.077 290.445 193.56 290.503 194.113C290.56 194.666 290.936 195.08 291.343 195.038Z" fill="#AA2829"/>
<path d="M283.361 174.163C283.768 174.121 284.051 173.639 283.994 173.086C283.936 172.533 283.56 172.119 283.154 172.161C282.747 172.203 282.464 172.686 282.521 173.239C282.579 173.792 282.955 174.206 283.361 174.163Z" fill="#AA2829"/>
<path d="M277.574 185.311C277.98 185.269 278.264 184.786 278.206 184.233C278.149 183.68 277.773 183.266 277.366 183.308C276.959 183.351 276.676 183.833 276.734 184.386C276.791 184.939 277.167 185.353 277.574 185.311Z" fill="#AA2829"/>
<path d="M268.841 194.045C269.247 194.003 269.53 193.521 269.473 192.968C269.416 192.415 269.04 192.001 268.633 192.043C268.226 192.085 267.943 192.567 268.001 193.12C268.058 193.673 268.434 194.088 268.841 194.045Z" fill="#AA2829"/>
<path d="M262.859 189.96C263.265 189.918 263.548 189.436 263.491 188.883C263.434 188.33 263.058 187.916 262.651 187.958C262.244 188 261.961 188.482 262.019 189.035C262.076 189.588 262.452 190.003 262.859 189.96Z" fill="#AA2829"/>
<path d="M258.566 166.216C258.973 166.174 259.256 165.692 259.198 165.139C259.141 164.586 258.765 164.171 258.358 164.214C257.952 164.256 257.668 164.738 257.726 165.291C257.783 165.844 258.159 166.258 258.566 166.216Z" fill="#AA2829"/>
<path d="M273.272 177.298C273.302 177.387 273.376 177.446 273.435 177.505C273.79 177.949 274.279 178.452 274.767 178.171C275.019 178.068 275.241 177.712 275.122 177.327C275.093 177.224 275.034 177.165 274.989 177.091C274.9 176.972 274.841 176.824 274.782 176.691C274.708 176.528 274.738 176.35 274.693 176.173C274.664 176.114 274.634 176.04 274.619 175.966C274.634 175.951 274.649 175.951 274.664 175.936C274.856 175.803 275.019 175.625 275.137 175.373C275.226 175.181 275.226 174.944 275.285 174.737C275.285 174.692 275.33 174.589 275.33 174.515C275.27 174.352 275.152 174.234 275.122 174.071C275.122 174.056 275.122 174.041 275.108 174.026C275.285 173.863 275.285 173.553 275.507 173.597C275.626 173.641 275.759 173.789 275.877 173.715C276.099 173.538 276.173 173.094 276.262 172.827C276.277 172.842 276.307 172.872 276.336 172.872C276.425 172.886 276.484 172.812 276.544 172.738C276.662 172.59 276.766 172.428 276.825 172.22C276.869 171.865 276.899 171.51 276.973 171.184C277.091 171.095 277.254 171.051 277.387 171.125C277.728 171.465 277.476 172.072 277.373 172.428C277.299 172.62 277.062 172.99 276.943 173.227C276.869 173.331 276.795 173.405 276.706 173.523C276.484 173.804 276.262 174.086 276.04 174.426C275.877 174.648 275.715 175.048 275.596 175.285C275.493 175.492 275.374 175.699 275.359 175.966C275.374 176.202 275.389 176.454 275.478 176.676C275.641 177.046 276.011 176.913 276.233 176.78C276.914 176.35 277.299 175.314 277.743 174.426C277.284 175.255 277.047 176.128 276.322 176.587C276.099 176.72 275.715 176.839 275.567 176.439C275.507 176.217 275.463 175.966 275.463 175.743C275.478 175.536 275.581 175.373 275.655 175.196C275.907 174.618 275.996 174.53 276.396 173.967C276.647 173.701 276.973 173.212 277.091 172.99C277.284 172.664 277.461 172.383 277.55 171.969C277.654 171.717 277.772 171.021 277.402 170.903C277.254 170.888 277.091 170.932 276.988 171.066C276.751 171.421 276.751 171.954 276.692 172.428C276.677 172.516 276.662 172.502 276.603 172.59C276.558 172.664 276.44 172.768 276.336 172.65C276.129 172.827 276.085 173.227 275.981 173.523C275.937 173.567 275.907 173.567 275.848 173.553C275.744 173.523 275.655 173.419 275.552 173.419C275.448 173.434 275.374 173.567 275.3 173.671C275.27 173.73 275.226 173.819 275.196 173.863C275.167 173.893 275.137 173.908 275.108 173.908C275.078 173.923 275.063 173.923 275.048 173.923C275.034 173.76 275.048 173.582 275.048 173.419C275.048 173.375 275.048 173.375 275.063 173.36C275.093 173.301 275.137 173.227 275.137 173.123C275.048 172.812 275.137 172.62 275.122 172.324C275.122 172.235 275.108 172.146 275.108 172.057C275.196 172.028 275.256 171.895 275.3 171.791C275.359 171.569 275.359 171.302 275.463 171.14C275.596 170.992 275.715 170.814 275.789 170.607C275.907 170.266 276.011 169.955 276.129 169.674C276.129 169.674 276.129 169.659 276.144 169.645C276.203 169.585 276.277 169.541 276.351 169.511C276.677 169.452 277.091 169.571 277.358 169.852C277.432 170.015 277.387 170.37 277.387 170.577C277.195 170.71 276.928 170.562 276.721 170.71C276.514 170.74 276.292 170.725 276.144 170.918C276.144 170.918 276.114 170.932 276.129 170.932C276.159 170.918 276.173 170.888 276.203 170.873C276.41 170.74 276.588 170.858 276.84 170.77C277.002 170.755 277.165 170.844 277.313 170.755C277.402 170.681 277.476 170.548 277.491 170.399C277.506 170.163 277.521 169.941 277.491 169.704C277.402 169.511 277.21 169.452 277.047 169.378C276.825 169.304 276.588 169.245 276.381 169.334C276.203 169.408 276.085 169.585 276.011 169.807C275.907 170.074 275.789 170.429 275.67 170.725C275.67 170.755 275.552 170.873 275.493 170.962C275.404 171.095 275.359 171.214 275.285 171.347C275.211 171.495 275.211 171.658 275.182 171.821C275.152 171.821 275.137 171.821 275.108 171.835C275.063 171.865 275.034 171.924 275.004 171.969C274.9 172.131 274.96 172.383 274.96 172.59C274.96 172.827 274.9 173.049 274.974 173.286C274.974 173.316 274.974 173.36 274.974 173.39C274.96 173.419 274.93 173.493 274.915 173.523C274.886 173.641 274.915 173.76 274.886 173.878C274.886 173.923 274.886 173.982 274.886 174.026C274.812 174.13 274.738 174.219 274.678 174.367C274.53 174.633 274.367 175.033 274.338 175.581C274.323 175.684 274.353 175.803 274.367 175.892C274.367 175.906 274.367 175.921 274.367 175.936C274.131 175.847 273.923 176.025 273.746 176.158C273.642 176.247 273.509 176.247 273.42 176.35C273.287 176.498 273.124 176.691 273.139 176.957C273.228 177.002 273.242 177.15 273.272 177.298ZM274.516 175.388C274.53 174.929 274.634 174.559 274.767 174.293C274.797 174.248 274.826 174.13 274.96 174.086C274.974 174.219 275.019 174.352 275.078 174.456C275.122 174.544 275.196 174.618 275.211 174.722C275.196 174.811 275.167 174.9 275.152 174.989C275.122 175.122 275.078 175.403 275.063 175.447C274.93 175.595 274.767 175.773 274.59 175.832C274.56 175.669 274.545 175.521 274.516 175.388ZM273.598 176.35C273.805 176.232 273.997 175.98 274.249 176.025C274.323 176.054 274.382 176.054 274.456 176.04C274.471 176.128 274.486 176.217 274.516 176.276C274.619 176.454 274.575 176.632 274.634 176.824C274.678 176.987 274.752 177.135 274.841 177.283C274.9 177.372 274.989 177.446 275.004 177.564C275.034 177.653 275.019 177.786 275.019 177.846C275.004 177.86 274.974 177.875 274.96 177.89C274.545 178.201 274.012 177.86 273.672 177.401C273.583 177.283 273.45 177.209 273.39 177.061C273.361 176.913 273.302 176.676 273.316 176.543C273.376 176.454 273.479 176.38 273.598 176.35Z" fill="#AA2829"/>
</svg>
