<svg width="497" height="460" viewBox="0 0 497 460" fill="none" xmlns="http://www.w3.org/2000/svg">
<path d="M409.019 339.794C402.801 351.844 381.307 353.828 361.13 342.607C340.968 331.386 325.513 288.175 350.072 289.478C363.498 290.189 367.939 310.158 381.025 314.703C408.93 324.355 415.236 327.745 409.019 339.794Z" fill="#E69264"/>
<path opacity="0.3608" d="M401.528 343.644C400.521 342.652 399.5 340.461 398.493 338.878C397.931 337.989 396.924 337.057 396.036 337.841C395.355 338.433 395.37 339.647 395.829 340.299C396.288 340.95 397.042 341.216 397.694 341.587C398.345 341.971 398.982 342.578 398.982 343.496C398.982 344.281 398.493 345.08 397.886 345.569C397.279 346.057 396.584 346.264 395.903 346.383C394.289 346.664 392.409 346.19 392.143 344.414C392.009 343.496 392.35 342.49 392.646 341.542C392.942 340.595 393.179 339.529 392.853 338.715C392.527 337.901 391.373 337.678 390.855 338.522C390.87 339.914 391.106 341.231 391.092 342.623C391.077 344.014 390.736 345.554 389.833 346.664C388.93 347.774 387.346 348.189 386.606 347.241C386.118 346.62 386.118 345.598 386.34 344.68C386.577 343.763 387.006 342.889 387.361 342.001C388.93 338.108 388.738 330.469 387.568 331.135C386.695 331.624 386.606 336.095 386.266 338.966C385.925 341.823 384.919 345.021 382.728 346.708C381.973 347.286 381.085 347.656 380.285 347.537C379.486 347.419 378.805 346.738 378.731 345.791C378.627 344.429 379.708 343.126 380.522 341.942C381.336 340.758 381.943 338.878 381.04 338.137C379.767 339.351 379.145 341.216 378.302 342.86C377.458 344.503 376.022 346.161 374.556 345.968C373.298 345.805 372.647 344.251 372.765 342.726C372.869 341.202 373.564 339.721 374.231 338.285C375.326 335.961 376.422 333.637 377.517 331.313C378.035 330.203 378.494 328.648 377.695 328.101C377.162 327.745 376.362 328.145 375.889 328.782C375.415 329.418 375.193 330.218 374.971 330.973C374.127 333.844 373.135 336.687 372.01 339.47C371.388 340.98 370.545 342.667 369.197 343.156C367.702 343.689 366.444 342.371 365.926 340.861C365.008 338.182 365.511 334.807 366.696 331.831C367.88 328.856 369.686 326.176 371.477 323.541C371.018 323.201 370.337 323.393 369.819 323.823C369.301 324.252 368.916 324.874 368.576 325.495C367.051 328.145 365.719 330.928 364.638 333.8C364.209 334.91 363.809 336.065 363.099 336.998C362.388 337.93 361.248 338.567 360.39 338.197C359.487 337.797 359.22 336.42 359.531 335.206C359.842 333.992 360.552 332.927 361.248 331.89C361.944 330.854 362.64 329.759 362.891 328.545C363.01 327.967 362.891 327.227 362.403 327.257C362.151 327.272 361.929 327.479 361.737 327.701C359.99 329.759 359.768 333.356 357.592 334.629C356.555 335.236 355.327 334.999 354.735 334.066C354.143 333.149 354.231 331.624 354.957 330.543C355.667 329.463 356.822 328.93 357.695 328.042C358.584 327.153 359.131 325.377 358.273 324.814C357.666 324.415 356.778 324.933 356.23 325.643C355.682 326.354 355.356 327.242 354.883 328.012C354.187 329.122 353.077 330.025 352.011 330.01C350.93 330.01 350.042 328.871 349.805 328.056C349.568 327.242 349.405 326.28 349.716 325.584C350.027 324.903 350.634 324.444 351.182 323.971C353.61 321.943 355.623 319.16 356.911 316.08C357.177 315.459 357.414 314.778 357.34 314.156C357.266 313.534 356.792 313.016 356.23 313.209C355.845 313.342 355.46 313.712 355.297 314.156C354.453 316.554 353.24 318.39 351.952 320.344C351.211 321.469 349.509 323.734 348.399 323.911C346.09 324.311 345.083 320.714 345.231 319.959C345.379 319.204 345.897 318.553 346.386 317.946C347.081 317.087 347.777 316.243 348.473 315.385C348.784 315 349.095 314.615 349.272 314.141C349.435 313.668 349.405 313.105 349.095 312.868C348.636 312.513 347.925 313.031 347.451 313.564C346.563 314.571 345.823 315.74 345.29 317.013C345.157 317.354 344.994 317.724 344.698 317.872C344.402 318.005 344.135 317.827 343.928 317.62C342.892 316.569 342.596 314.63 343.232 312.913C343.706 311.625 344.624 310.559 345.453 309.478C346.282 308.398 347.081 307.169 347.244 305.822C347.303 305.333 347.259 304.83 347.022 304.475C346.785 304.119 346.341 303.957 345.942 304.193C345.438 304.489 345.231 305.2 345.024 305.792C344.698 306.754 344.21 307.672 343.588 308.457C343.218 308.93 342.744 309.389 342.255 309.36C341.678 309.33 341.397 308.634 341.219 308.013C340.686 306.118 340.287 304.134 340.316 302.032C340.346 299.93 340.864 297.695 342.004 295.83C343.144 293.964 344.95 292.514 346.756 292.321C347.407 292.247 348.132 292.41 348.34 293.076C348.532 293.698 348.192 294.482 347.851 295.134C345.201 300.034 345.645 299.782 345.764 300.108C345.912 300.493 347.748 298.746 348.384 297.695C349.05 296.599 349.479 295.326 350.19 294.275C350.915 293.209 352.114 292.351 353.062 292.81C354.024 292.617 354.853 293.357 355.12 294.364C355.386 295.371 355.164 296.57 354.749 297.65C354.335 298.731 353.743 299.738 353.195 300.759C352.129 302.787 351.271 304.948 350.664 307.139C350.575 307.48 350.486 307.835 350.531 308.161C350.575 308.486 350.797 308.768 351.093 308.723C351.374 308.679 351.611 308.383 351.789 308.087C352.84 306.444 353.447 304.534 354.231 302.728C355.016 300.922 356.067 299.086 357.592 298.109C359.116 297.132 361.174 297.384 361.677 299.071C362.047 300.285 361.515 301.84 360.7 302.994C359.886 304.149 358.85 305.052 357.888 306.059C357.399 306.577 356.926 307.139 356.718 307.835C356.511 308.531 356.689 309.345 357.236 309.523C357.888 309.73 358.598 308.99 359.102 308.294C359.842 307.243 360.493 306.118 361.352 305.2C362.21 304.297 363.365 303.631 364.372 303.868C365.215 304.075 365.793 304.889 366.059 305.822C366.651 307.865 366 310.411 364.831 312.483C363.661 314.556 362.062 316.273 360.493 318.005C359.99 318.567 359.457 319.174 359.25 319.929C359.042 320.669 359.324 321.558 359.96 321.572C360.567 321.572 361.085 320.847 361.47 320.196C362.61 318.271 363.735 316.347 364.875 314.437C365.437 313.475 366.015 312.498 366.77 311.728C367.525 310.959 368.487 310.396 369.39 310.485C370.515 310.603 371.285 311.743 371.374 313.061C371.462 314.378 370.944 315.799 370.204 316.983C369.449 318.168 368.487 319.145 367.51 320.063C366.947 320.595 366.355 321.158 366.074 321.913C365.793 322.668 366.015 323.63 366.651 323.689C367.229 323.734 367.762 323.082 368.176 322.49C368.827 321.558 369.479 320.625 370.13 319.692C370.855 318.656 373.328 314.97 375.563 315.962C376.481 316.362 377.058 317.65 376.614 318.819C375.311 321.291 374.009 323.778 372.691 326.25C371.433 328.634 370.115 331.357 370.574 333.785C370.678 334.303 370.989 334.866 371.462 334.733C371.892 334.599 372.129 334.022 372.277 333.534C373.313 330.292 374.571 327.094 376.007 323.985C376.703 322.49 377.502 320.936 378.716 319.989C379.797 319.145 381.085 318.908 382.254 319.026C383.423 319.145 384.489 319.604 385.54 320.063C386.103 320.299 386.725 320.625 386.843 321.321C386.976 322.046 386.503 322.846 386.073 323.527C384.016 326.754 382.121 330.114 380.404 333.578C380.211 333.978 380.019 334.377 379.974 334.807C379.945 335.236 380.122 335.665 380.463 335.724C380.951 335.798 381.395 335.162 381.677 334.599C382.831 332.32 383.853 329.936 385.244 327.805C386.636 325.673 388.486 323.763 390.588 323.053C393.134 322.209 395.533 323.23 397.753 324.252C398.227 324.474 398.73 324.74 398.863 325.318C399.071 326.221 398.286 327.183 397.575 327.879C396.391 329.033 395.222 330.203 394.037 331.357C393.608 331.787 393.149 332.231 392.912 332.823C392.661 333.4 392.705 334.155 393.134 334.407C393.771 334.777 394.57 333.904 395.118 333.163C396.199 331.698 397.383 330.306 398.641 329.048C399.914 327.775 401.424 326.561 402.934 326.606C404.711 326.65 405.836 328.382 406.768 329.981C407.227 330.765 407.627 331.935 406.946 332.734C406.383 333.4 405.54 333.193 404.844 333.06C403.245 332.734 401.469 333.089 399.855 334.022C399.529 334.214 399.174 334.481 399.085 334.881C399.011 335.266 399.248 335.606 399.559 335.695C399.87 335.784 400.21 335.71 400.551 335.636C402.031 335.31 403.497 335.162 404.947 335.177C405.554 335.177 406.161 335.221 406.679 335.502C407.198 335.784 407.582 336.361 407.568 337.072C407.538 337.708 407.198 338.315 406.842 338.863C405.406 340.95 402.046 344.148 401.528 343.644Z" fill="#FDDFD3"/>
<path d="M403.794 338.171C403.996 337.724 403.876 337.234 403.526 337.075C403.175 336.917 402.728 337.152 402.526 337.599C402.324 338.046 402.444 338.536 402.795 338.695C403.145 338.853 403.592 338.618 403.794 338.171Z" fill="#AA2829"/>
<path d="M391.529 327.729C391.73 327.282 391.61 326.791 391.26 326.633C390.91 326.475 390.462 326.709 390.26 327.156C390.059 327.603 390.179 328.094 390.529 328.252C390.879 328.41 391.327 328.176 391.529 327.729Z" fill="#AA2829"/>
<path d="M384.804 337.003C385.005 336.556 384.885 336.066 384.535 335.908C384.185 335.749 383.737 335.984 383.535 336.431C383.333 336.878 383.454 337.368 383.804 337.527C384.154 337.685 384.602 337.45 384.804 337.003Z" fill="#AA2829"/>
<path d="M376.806 340.522C377.008 340.075 376.888 339.584 376.538 339.426C376.187 339.268 375.74 339.502 375.538 339.949C375.336 340.396 375.457 340.887 375.807 341.045C376.157 341.203 376.604 340.969 376.806 340.522Z" fill="#AA2829"/>
<path d="M369.747 339.131C369.948 338.684 369.828 338.194 369.478 338.035C369.128 337.877 368.68 338.112 368.478 338.559C368.276 339.006 368.397 339.496 368.747 339.654C369.097 339.813 369.545 339.578 369.747 339.131Z" fill="#AA2829"/>
<path d="M373.95 319.806C374.152 319.359 374.031 318.868 373.681 318.71C373.331 318.552 372.883 318.786 372.682 319.233C372.48 319.681 372.6 320.171 372.95 320.329C373.3 320.487 373.748 320.253 373.95 319.806Z" fill="#AA2829"/>
<path d="M363.968 324.446C364.169 323.999 364.049 323.508 363.699 323.35C363.349 323.192 362.901 323.426 362.699 323.873C362.498 324.32 362.618 324.811 362.968 324.969C363.318 325.127 363.766 324.893 363.968 324.446Z" fill="#AA2829"/>
<path d="M352.91 325.698C353.112 325.251 352.992 324.76 352.641 324.602C352.291 324.444 351.844 324.678 351.642 325.125C351.44 325.572 351.56 326.063 351.91 326.221C352.261 326.379 352.708 326.145 352.91 325.698Z" fill="#AA2829"/>
<path d="M350.331 319.423C350.533 318.976 350.413 318.486 350.062 318.327C349.712 318.169 349.265 318.404 349.063 318.851C348.861 319.298 348.981 319.788 349.331 319.946C349.682 320.105 350.129 319.87 350.331 319.423Z" fill="#AA2829"/>
<path d="M358.818 300.146C359.019 299.699 358.899 299.208 358.549 299.05C358.199 298.892 357.751 299.126 357.549 299.573C357.347 300.02 357.468 300.511 357.818 300.669C358.168 300.827 358.616 300.593 358.818 300.146Z" fill="#AA2829"/>
<path d="M363.602 316.805C363.587 316.894 363.602 316.968 363.617 317.042C363.676 317.56 363.795 318.197 364.313 318.256C364.55 318.33 364.905 318.197 365.008 317.856C365.038 317.767 365.023 317.693 365.008 317.604C365.008 317.471 365.023 317.338 365.053 317.205C365.082 317.042 365.186 316.938 365.23 316.79C365.23 316.731 365.26 316.657 365.275 316.598C365.29 316.598 365.304 316.598 365.334 316.598C365.541 316.613 365.763 316.583 365.971 316.465C366.133 316.376 366.252 316.213 366.4 316.095C366.43 316.065 366.504 316.021 366.548 315.961C366.592 315.813 366.548 315.665 366.607 315.532C366.607 315.517 366.622 315.502 366.622 315.488C366.829 315.473 366.992 315.251 367.14 315.414C367.214 315.517 367.244 315.695 367.377 315.71C367.629 315.71 367.91 315.443 368.102 315.295C368.117 315.325 368.102 315.354 368.147 315.369C368.206 315.428 368.295 315.414 368.369 315.399C368.532 315.354 368.694 315.295 368.842 315.192C369.05 314.969 369.242 314.733 369.479 314.54C369.612 314.555 369.76 314.599 369.834 314.733C369.923 315.162 369.435 315.458 369.183 315.65C369.035 315.739 368.665 315.872 368.458 315.976C368.354 316.021 368.265 316.021 368.132 316.05C367.821 316.124 367.51 316.198 367.17 316.317C366.933 316.391 366.607 316.583 366.4 316.672C366.222 316.761 366.03 316.849 365.882 317.027C365.778 317.205 365.66 317.397 365.615 317.59C365.556 317.945 365.911 318.049 366.148 318.093C366.888 318.182 367.688 317.649 368.487 317.279C367.717 317.604 367.11 318.093 366.311 318.004C366.074 317.96 365.719 317.841 365.808 317.471C365.867 317.279 365.971 317.086 366.074 316.924C366.193 316.776 366.356 316.716 366.504 316.642C366.977 316.376 367.096 316.361 367.688 316.183C368.013 316.139 368.502 315.976 368.709 315.872C369.02 315.754 369.287 315.65 369.568 315.414C369.775 315.28 370.204 314.866 369.982 314.57C369.879 314.481 369.731 314.407 369.583 314.451C369.227 314.57 368.961 314.955 368.68 315.251C368.62 315.31 368.62 315.28 368.532 315.31C368.458 315.34 368.31 315.34 368.295 315.192C368.043 315.206 367.821 315.458 367.599 315.606C367.54 315.606 367.51 315.591 367.481 315.547C367.421 315.473 367.392 315.34 367.318 315.28C367.229 315.236 367.11 315.28 367.007 315.31C366.948 315.34 366.874 315.369 366.829 315.384C366.8 315.384 366.77 315.384 366.74 315.369C366.711 315.354 366.696 315.354 366.681 315.34C366.755 315.206 366.844 315.103 366.933 314.984C366.962 314.955 366.948 314.955 366.977 314.94C367.036 314.91 367.096 314.895 367.155 314.807C367.244 314.54 367.407 314.451 367.54 314.229C367.584 314.155 367.629 314.096 367.673 314.037C367.762 314.066 367.865 314.007 367.954 313.963C368.117 313.844 368.236 313.652 368.413 313.593C368.591 313.563 368.768 313.504 368.931 313.4C369.198 313.223 369.42 313.06 369.657 312.927L369.671 312.912C369.745 312.912 369.834 312.927 369.893 312.941C370.175 313.075 370.426 313.4 370.5 313.756C370.471 313.904 370.264 314.141 370.175 314.289C369.953 314.274 369.834 314.022 369.597 314.007C369.435 313.918 369.257 313.785 369.05 313.815C369.05 313.815 369.02 313.815 369.035 313.815C369.065 313.815 369.094 313.815 369.124 313.815C369.346 313.844 369.435 314.022 369.671 314.096C369.805 314.17 369.879 314.333 370.042 314.363C370.145 314.363 370.278 314.318 370.352 314.215C370.471 314.052 370.604 313.904 370.708 313.726C370.737 313.534 370.604 313.386 370.53 313.252C370.397 313.075 370.249 312.897 370.027 312.853C369.864 312.808 369.671 312.867 369.509 312.986C369.287 313.119 369.02 313.297 368.798 313.445C368.783 313.46 368.635 313.489 368.546 313.504C368.413 313.548 368.31 313.608 368.191 313.667C368.073 313.726 367.969 313.844 367.88 313.948C367.865 313.933 367.836 313.918 367.821 313.918C367.777 313.904 367.732 313.933 367.688 313.963C367.525 314.022 367.451 314.229 367.347 314.377C367.229 314.54 367.066 314.673 367.007 314.881C366.992 314.91 366.977 314.94 366.948 314.955C366.918 314.969 366.859 314.999 366.844 315.014C366.77 315.073 366.726 315.177 366.652 315.251C366.622 315.28 366.592 315.325 366.578 315.354C366.474 315.384 366.37 315.414 366.252 315.473C366 315.576 365.675 315.769 365.393 316.139C365.334 316.213 365.304 316.302 365.26 316.376C365.26 316.391 365.245 316.391 365.245 316.405C365.112 316.213 364.86 316.213 364.653 316.213C364.535 316.213 364.431 316.139 364.313 316.169C364.135 316.198 363.913 316.243 363.795 316.435C363.706 316.568 363.646 316.687 363.602 316.805ZM365.512 316.154C365.749 315.843 366.015 315.621 366.252 315.517C366.296 315.502 366.37 315.443 366.504 315.473C366.459 315.576 366.415 315.695 366.415 315.798C366.4 315.887 366.43 315.991 366.385 316.065C366.326 316.124 366.267 316.169 366.207 316.213C366.119 316.287 365.941 316.465 365.911 316.494C365.734 316.524 365.527 316.553 365.349 316.494C365.393 316.376 365.453 316.257 365.512 316.154ZM364.327 316.317C364.55 316.361 364.831 316.287 364.994 316.465C365.038 316.524 365.082 316.568 365.142 316.583C365.112 316.657 365.082 316.731 365.068 316.79C365.053 316.968 364.934 317.072 364.89 317.249C364.846 317.397 364.831 317.545 364.831 317.693C364.831 317.797 364.86 317.886 364.816 317.989C364.801 318.078 364.727 318.152 364.683 318.197C364.653 318.197 364.638 318.197 364.609 318.197C364.135 318.182 363.898 317.649 363.869 317.116C363.854 316.983 363.795 316.85 363.824 316.716C363.883 316.598 363.943 316.391 364.031 316.302C364.105 316.272 364.224 316.272 364.327 316.317Z" fill="#AA2829"/>
</svg>
