<svg width="497" height="460" viewBox="0 0 497 460" fill="none" xmlns="http://www.w3.org/2000/svg">
<path d="M71.0298 386.751C74.5382 373.65 95.1148 367.122 117.216 373.798C139.317 380.474 163.61 419.392 139.347 423.345C126.083 425.506 117.483 406.943 103.715 405.299C74.4197 401.806 67.5362 399.852 71.0298 386.751Z" fill="#E69264"/>
<path opacity="0.3608" d="M77.5289 381.392C78.7132 382.147 80.1787 384.071 81.511 385.403C82.2512 386.143 83.4206 386.839 84.1312 385.892C84.6789 385.166 84.3976 383.982 83.8055 383.449C83.2134 382.916 82.4288 382.813 81.7034 382.591C80.9781 382.369 80.2379 381.895 80.0455 381.007C79.8826 380.237 80.1787 379.349 80.6672 378.757C81.1557 378.164 81.7923 377.809 82.4436 377.543C83.9535 376.921 85.9076 376.98 86.5441 378.653C86.8698 379.512 86.7514 380.577 86.6626 381.569C86.5737 382.561 86.5737 383.656 87.0622 384.367C87.5507 385.092 88.735 385.063 89.0607 384.13C88.7498 382.783 88.2317 381.54 87.9504 380.163C87.6692 378.786 87.6692 377.217 88.3205 375.944C88.9719 374.671 90.4374 373.931 91.3552 374.701C91.9621 375.204 92.1842 376.196 92.1546 377.143C92.125 378.09 91.8881 379.038 91.7253 379.97C91.0147 384.115 92.8355 391.532 93.8422 390.629C94.5971 389.963 93.7237 385.566 93.4425 382.709C93.176 379.837 93.4573 376.506 95.2485 374.39C95.8554 373.664 96.6548 373.117 97.4541 373.057C98.2683 372.998 99.0677 373.516 99.3342 374.434C99.7191 375.752 98.9493 377.232 98.4016 378.579C97.8538 379.926 97.6614 381.865 98.7124 382.398C99.7043 380.933 99.9115 378.979 100.37 377.202C100.829 375.426 101.895 373.487 103.375 373.368C104.634 373.265 105.611 374.641 105.818 376.151C106.04 377.661 105.685 379.26 105.33 380.799C104.752 383.301 104.19 385.803 103.612 388.32C103.346 389.519 103.227 391.132 104.13 391.487C104.723 391.724 105.418 391.162 105.744 390.436C106.07 389.711 106.129 388.897 106.173 388.097C106.381 385.122 106.751 382.132 107.269 379.171C107.55 377.558 108.024 375.737 109.223 374.982C110.57 374.138 112.08 375.159 112.909 376.521C114.389 378.934 114.611 382.339 114.078 385.507C113.545 388.675 112.361 391.68 111.177 394.626C111.695 394.863 112.331 394.522 112.731 394.004C113.131 393.486 113.383 392.79 113.59 392.109C114.522 389.193 115.218 386.188 115.662 383.153C115.84 381.984 115.988 380.755 116.491 379.704C116.995 378.653 117.957 377.78 118.875 377.957C119.852 378.15 120.399 379.452 120.355 380.696C120.325 381.939 119.837 383.138 119.393 384.308C118.934 385.462 118.49 386.691 118.49 387.92C118.49 388.512 118.771 389.208 119.23 389.074C119.467 389.015 119.644 388.749 119.778 388.497C121.051 386.114 120.503 382.561 122.353 380.859C123.227 380.045 124.485 380.015 125.27 380.785C126.054 381.554 126.276 383.064 125.802 384.278C125.329 385.477 124.322 386.247 123.656 387.298C122.975 388.364 122.827 390.2 123.789 390.584C124.455 390.851 125.225 390.155 125.61 389.341C125.995 388.527 126.113 387.594 126.424 386.75C126.868 385.507 127.757 384.397 128.808 384.175C129.859 383.953 130.969 384.87 131.383 385.611C131.798 386.365 132.153 387.268 131.99 387.994C131.827 388.734 131.339 389.311 130.895 389.874C128.956 392.376 127.579 395.529 126.972 398.8C126.854 399.466 126.765 400.177 126.957 400.769C127.15 401.361 127.742 401.761 128.245 401.45C128.585 401.228 128.896 400.799 128.956 400.325C129.281 397.808 130.066 395.751 130.91 393.575C131.398 392.331 132.568 389.755 133.619 389.326C135.795 388.453 137.541 391.739 137.556 392.524C137.571 393.308 137.201 394.048 136.861 394.729C136.357 395.706 135.869 396.698 135.365 397.675C135.143 398.119 134.921 398.563 134.862 399.067C134.803 399.555 134.951 400.103 135.306 400.281C135.839 400.517 136.416 399.866 136.757 399.244C137.408 398.075 137.882 396.772 138.134 395.425C138.193 395.07 138.282 394.655 138.533 394.463C138.785 394.27 139.096 394.389 139.347 394.537C140.591 395.336 141.287 397.172 141.035 398.993C140.843 400.355 140.176 401.598 139.599 402.827C139.022 404.055 138.489 405.432 138.622 406.779C138.667 407.268 138.815 407.756 139.125 408.052C139.422 408.348 139.91 408.408 140.251 408.097C140.68 407.712 140.724 406.972 140.798 406.335C140.917 405.329 141.198 404.337 141.627 403.434C141.879 402.901 142.264 402.338 142.737 402.264C143.315 402.175 143.744 402.797 144.04 403.36C144.973 405.092 145.787 406.942 146.187 409C146.601 411.057 146.572 413.352 145.861 415.41C145.15 417.482 143.685 419.273 141.968 419.851C141.346 420.058 140.606 420.058 140.251 419.451C139.925 418.874 140.088 418.045 140.295 417.334C141.834 411.99 141.45 412.33 141.272 412.02C141.05 411.664 139.629 413.781 139.214 414.936C138.785 416.15 138.652 417.482 138.178 418.666C137.704 419.851 136.698 420.961 135.676 420.709C134.788 421.109 133.811 420.561 133.337 419.628C132.864 418.696 132.834 417.482 132.997 416.342C133.175 415.202 133.545 414.092 133.855 412.982C134.462 410.776 134.832 408.482 134.966 406.202C134.981 405.847 134.995 405.477 134.877 405.18C134.758 404.87 134.477 404.648 134.211 404.751C133.944 404.855 133.781 405.195 133.663 405.521C132.982 407.357 132.804 409.355 132.42 411.279C132.049 413.219 131.413 415.232 130.125 416.505C128.852 417.793 126.779 417.971 125.936 416.446C125.314 415.336 125.506 413.707 126.054 412.405C126.587 411.102 127.431 409.992 128.141 408.807C128.511 408.2 128.852 407.534 128.911 406.824C128.97 406.098 128.615 405.343 128.053 405.284C127.372 405.225 126.824 406.098 126.498 406.883C125.995 408.067 125.61 409.311 124.959 410.376C124.307 411.442 123.33 412.345 122.294 412.316C121.436 412.301 120.695 411.62 120.222 410.761C119.2 408.896 119.304 406.261 120 403.981C120.695 401.702 121.894 399.688 123.049 397.675C123.419 397.009 123.819 396.298 123.863 395.529C123.908 394.759 123.434 393.945 122.812 394.078C122.22 394.211 121.865 395.025 121.628 395.736C120.932 397.853 120.222 399.97 119.526 402.087C119.171 403.138 118.815 404.218 118.253 405.136C117.675 406.054 116.846 406.809 115.958 406.912C114.833 407.046 113.827 406.083 113.471 404.81C113.116 403.537 113.308 402.042 113.782 400.74C114.256 399.422 114.996 398.267 115.766 397.157C116.195 396.521 116.669 395.84 116.787 395.055C116.906 394.27 116.491 393.353 115.84 393.441C115.263 393.516 114.878 394.27 114.611 394.937C114.167 395.988 113.738 397.039 113.294 398.09C112.805 399.259 111.177 403.374 108.779 402.901C107.787 402.708 106.958 401.568 107.15 400.34C107.89 397.646 108.645 394.937 109.386 392.242C110.111 389.637 110.822 386.691 109.845 384.426C109.637 383.938 109.208 383.449 108.779 383.701C108.394 383.923 108.29 384.53 108.231 385.048C107.905 388.438 107.372 391.828 106.632 395.173C106.277 396.787 105.833 398.475 104.826 399.659C103.953 400.71 102.739 401.213 101.569 401.346C100.4 401.48 99.2602 401.258 98.1351 401.036C97.543 400.917 96.862 400.74 96.5956 400.088C96.3143 399.407 96.6104 398.534 96.8768 397.779C98.2091 394.182 99.3342 390.496 100.267 386.75C100.37 386.321 100.474 385.877 100.415 385.462C100.356 385.048 100.089 384.663 99.7487 384.678C99.2602 384.708 98.9641 385.433 98.8013 386.025C98.1499 388.497 97.6762 391.043 96.7732 393.427C95.8702 395.81 94.4787 398.075 92.5691 399.2C90.2746 400.577 87.6988 400.073 85.3154 399.555C84.8121 399.452 84.2496 399.289 83.998 398.756C83.5983 397.927 84.1756 396.802 84.7085 395.988C85.6115 394.611 86.5145 393.219 87.4175 391.843C87.758 391.339 88.0985 390.792 88.2169 390.17C88.3353 389.548 88.1281 388.823 87.6544 388.675C86.9586 388.453 86.3517 389.474 85.9816 390.318C85.2414 391.991 84.3828 393.59 83.4206 395.085C82.4436 396.595 81.2297 398.105 79.7494 398.386C78.0026 398.711 76.5371 397.276 75.2936 395.899C74.6867 395.233 74.0353 394.167 74.5386 393.249C74.9531 392.479 75.8117 392.494 76.5223 392.494C78.1506 392.464 79.8234 391.754 81.1853 390.496C81.4666 390.244 81.7626 389.903 81.7478 389.489C81.7478 389.089 81.437 388.823 81.1113 388.793C80.7856 388.764 80.4748 388.912 80.1491 389.06C78.7724 389.681 77.3661 390.155 75.945 390.436C75.3528 390.555 74.7459 390.644 74.1834 390.481C73.6208 390.318 73.1175 389.829 72.9843 389.134C72.8659 388.512 73.0731 387.831 73.31 387.224C74.3166 384.841 76.922 381.007 77.5289 381.392Z" fill="#FDDFD3"/>
<path d="M77.8618 387.51C77.9637 387.03 77.7416 386.576 77.3657 386.497C76.9898 386.417 76.6025 386.741 76.5006 387.221C76.3988 387.701 76.6209 388.155 76.9968 388.234C77.3726 388.314 77.7599 387.99 77.8618 387.51Z" fill="#AA2829"/>
<path d="M92.0514 395.1C92.1533 394.62 91.9312 394.166 91.5553 394.087C91.1794 394.007 90.7921 394.331 90.6902 394.811C90.5883 395.291 90.8104 395.744 91.1863 395.824C91.5622 395.904 91.9495 395.58 92.0514 395.1Z" fill="#AA2829"/>
<path d="M96.6536 384.59C96.7555 384.11 96.5333 383.657 96.1575 383.577C95.7816 383.497 95.3943 383.821 95.2924 384.301C95.1905 384.781 95.4126 385.235 95.7885 385.314C96.1644 385.394 96.5517 385.07 96.6536 384.59Z" fill="#AA2829"/>
<path d="M103.726 379.463C103.827 378.983 103.605 378.53 103.229 378.45C102.854 378.37 102.466 378.694 102.364 379.174C102.263 379.654 102.485 380.108 102.86 380.187C103.236 380.267 103.624 379.943 103.726 379.463Z" fill="#AA2829"/>
<path d="M110.917 379.318C111.019 378.838 110.797 378.384 110.421 378.304C110.045 378.224 109.658 378.549 109.556 379.029C109.454 379.508 109.676 379.962 110.052 380.042C110.428 380.122 110.815 379.797 110.917 379.318Z" fill="#AA2829"/>
<path d="M110.942 399.076C111.043 398.597 110.821 398.143 110.445 398.063C110.07 397.983 109.682 398.308 109.58 398.787C109.478 399.267 109.701 399.721 110.076 399.801C110.452 399.881 110.84 399.556 110.942 399.076Z" fill="#AA2829"/>
<path d="M119.694 392.425C119.796 391.945 119.574 391.492 119.198 391.412C118.822 391.332 118.435 391.656 118.333 392.136C118.231 392.616 118.453 393.07 118.829 393.149C119.205 393.229 119.592 392.905 119.694 392.425Z" fill="#AA2829"/>
<path d="M130.216 388.855C130.318 388.375 130.096 387.921 129.72 387.841C129.344 387.762 128.957 388.086 128.855 388.566C128.753 389.046 128.975 389.499 129.351 389.579C129.727 389.659 130.114 389.335 130.216 388.855Z" fill="#AA2829"/>
<path d="M134.073 394.424C134.175 393.944 133.953 393.491 133.577 393.411C133.201 393.331 132.814 393.655 132.712 394.135C132.61 394.615 132.832 395.069 133.208 395.148C133.584 395.228 133.971 394.904 134.073 394.424Z" fill="#AA2829"/>
<path d="M129.904 415.067C130.006 414.587 129.784 414.133 129.408 414.053C129.032 413.974 128.645 414.298 128.543 414.778C128.441 415.257 128.663 415.711 129.039 415.791C129.415 415.871 129.802 415.547 129.904 415.067Z" fill="#AA2829"/>
<path d="M120.31 399.54C120.31 399.451 120.266 399.377 120.236 399.303C120.073 398.815 119.807 398.208 119.303 398.252C119.052 398.237 118.726 398.445 118.711 398.785C118.696 398.874 118.726 398.948 118.756 399.022C118.785 399.155 118.8 399.289 118.8 399.422C118.8 399.585 118.726 399.703 118.711 399.866C118.726 399.925 118.711 399.999 118.711 400.058C118.696 400.058 118.682 400.058 118.652 400.073C118.445 400.103 118.238 400.177 118.06 400.34C117.927 400.458 117.838 400.65 117.719 400.798C117.705 400.828 117.631 400.887 117.601 400.961C117.586 401.109 117.66 401.243 117.631 401.405C117.631 401.42 117.631 401.435 117.631 401.45C117.423 401.509 117.32 401.761 117.142 401.642C117.053 401.553 116.994 401.391 116.861 401.405C116.609 401.465 116.387 401.79 116.239 401.968C116.224 401.953 116.224 401.923 116.18 401.909C116.106 401.864 116.032 401.894 115.958 401.938C115.81 402.012 115.662 402.101 115.529 402.249C115.381 402.516 115.233 402.782 115.055 403.019C114.922 403.034 114.759 403.019 114.67 402.915C114.492 402.516 114.907 402.131 115.114 401.879C115.247 401.761 115.573 401.553 115.765 401.405C115.854 401.346 115.943 401.317 116.061 401.257C116.358 401.124 116.624 400.976 116.95 400.798C117.172 400.68 117.438 400.428 117.616 400.28C117.779 400.162 117.942 400.029 118.045 399.821C118.104 399.629 118.178 399.422 118.178 399.215C118.164 398.844 117.793 398.83 117.557 398.83C116.816 398.904 116.136 399.585 115.455 400.132C116.136 399.644 116.639 399.052 117.423 398.963C117.66 398.948 118.03 398.992 118.03 399.377C118.016 399.585 117.956 399.792 117.882 399.969C117.793 400.132 117.66 400.221 117.527 400.325C117.127 400.68 117.009 400.724 116.461 401.021C116.15 401.139 115.706 401.391 115.529 401.539C115.247 401.716 115.01 401.879 114.788 402.175C114.626 402.338 114.285 402.856 114.552 403.093C114.67 403.152 114.833 403.197 114.966 403.123C115.292 402.93 115.469 402.501 115.677 402.16C115.721 402.086 115.736 402.116 115.81 402.072C115.869 402.027 116.017 401.998 116.061 402.131C116.313 402.072 116.461 401.761 116.654 401.568C116.698 401.553 116.742 401.568 116.787 401.598C116.861 401.657 116.905 401.775 116.994 401.82C117.098 401.849 117.201 401.775 117.29 401.716C117.335 401.687 117.409 401.627 117.453 401.598C117.483 401.583 117.512 401.583 117.542 401.598C117.571 401.598 117.586 401.613 117.601 401.613C117.557 401.746 117.497 401.879 117.438 402.012C117.423 402.042 117.423 402.042 117.409 402.057C117.364 402.086 117.305 402.131 117.275 402.22C117.246 402.501 117.113 402.619 117.024 402.871C116.994 402.945 116.979 403.019 116.935 403.093C116.846 403.078 116.757 403.167 116.668 403.226C116.535 403.374 116.461 403.596 116.298 403.685C116.136 403.759 115.973 403.848 115.839 403.981C115.617 404.203 115.425 404.41 115.233 404.603L115.218 404.618C115.144 404.633 115.07 404.647 114.981 404.633C114.67 404.559 114.359 404.307 114.211 403.966C114.196 403.818 114.359 403.537 114.418 403.374C114.64 403.345 114.818 403.567 115.04 403.522C115.233 403.581 115.41 403.67 115.617 403.581C115.617 403.581 115.647 403.581 115.632 403.581C115.603 403.581 115.573 403.596 115.558 403.596C115.336 403.611 115.218 403.463 114.966 403.433C114.833 403.389 114.714 403.241 114.552 403.256C114.448 403.285 114.344 403.359 114.27 403.463C114.181 403.641 114.093 403.818 114.033 404.011C114.048 404.203 114.196 404.322 114.315 404.44C114.478 404.588 114.67 404.721 114.892 404.736C115.07 404.751 115.233 404.647 115.366 404.499C115.558 404.322 115.78 404.085 115.973 403.892C115.987 403.863 116.121 403.818 116.21 403.774C116.328 403.7 116.417 403.626 116.52 403.537C116.624 403.448 116.698 403.315 116.772 403.197C116.802 403.197 116.816 403.211 116.846 403.211C116.89 403.211 116.935 403.167 116.979 403.152C117.127 403.049 117.157 402.841 117.216 402.664C117.29 402.471 117.423 402.323 117.438 402.101C117.438 402.072 117.453 402.042 117.483 402.012C117.512 401.998 117.557 401.953 117.571 401.938C117.631 401.864 117.66 401.746 117.705 401.672C117.719 401.627 117.749 401.598 117.764 401.553C117.867 401.509 117.956 401.45 118.06 401.361C118.282 401.198 118.548 400.946 118.756 400.532C118.8 400.458 118.815 400.354 118.83 400.28C118.83 400.266 118.83 400.266 118.845 400.251C119.022 400.414 119.259 400.354 119.466 400.31C119.585 400.28 119.703 400.34 119.822 400.28C119.984 400.206 120.192 400.118 120.266 399.91C120.251 399.777 120.295 399.659 120.31 399.54ZM118.593 400.576C118.43 400.932 118.223 401.198 118.001 401.346C117.956 401.376 117.897 401.45 117.764 401.435C117.793 401.317 117.793 401.198 117.793 401.095C117.779 401.006 117.749 400.917 117.764 400.828C117.808 400.754 117.867 400.71 117.912 400.636C117.986 400.547 118.119 400.325 118.134 400.31C118.297 400.236 118.504 400.162 118.682 400.192C118.652 400.325 118.608 400.458 118.593 400.576ZM119.718 400.162C119.496 400.162 119.244 400.295 119.037 400.162C118.993 400.117 118.933 400.088 118.859 400.073C118.874 399.999 118.889 399.925 118.889 399.851C118.859 399.673 118.948 399.54 118.978 399.377C118.993 399.229 118.978 399.081 118.948 398.933C118.919 398.83 118.874 398.756 118.889 398.637C118.889 398.548 118.948 398.46 118.963 398.4C118.993 398.4 119.007 398.386 119.037 398.386C119.511 398.297 119.851 398.77 119.999 399.274C120.044 399.407 120.132 399.511 120.132 399.659C120.103 399.792 120.088 399.999 120.029 400.103C119.94 400.162 119.822 400.177 119.718 400.162Z" fill="#AA2829"/>
</svg>
