<svg width="433" height="344" viewBox="0 0 433 344" fill="none" xmlns="http://www.w3.org/2000/svg">
<path d="M235.58 34.7614C233.222 36.3915 231.046 38.2027 228.96 40.1951C226.875 42.0969 224.88 44.1798 223.066 46.4439C223.066 46.3533 223.066 46.3533 223.066 46.2628C223.61 44.4515 224.517 42.6403 225.424 40.9196C227.328 37.4782 229.686 34.218 232.497 31.5011L232.406 31.32C229.142 33.6746 226.331 36.7537 224.155 40.1951C223.066 41.9158 222.16 43.727 221.344 45.6288C220.528 47.4401 219.984 49.3419 219.621 51.4248C219.167 52.2399 218.714 53.055 218.351 53.87L216.719 57.8548L215.903 59.5755L214.906 61.2961C214.09 62.564 213.092 63.8319 212.004 65.0092C212.276 62.2018 212.367 59.1226 212.004 56.1341C212.185 53.055 212.004 50.157 211.46 47.3495C211.007 44.361 210.191 41.463 209.556 38.6555C208.831 35.8481 208.286 32.9501 207.652 30.2332C207.017 27.4258 206.382 24.6184 206.564 21.8109H206.382C205.566 24.6184 205.838 27.6975 206.11 30.5955C206.473 33.4935 207.198 36.3009 207.561 39.1084C207.833 40.9196 207.833 42.7308 207.833 44.5421C206.473 42.5497 205.022 40.829 203.571 39.1989C200.488 35.9387 197.587 33.0407 195.139 29.5087C192.781 26.0674 190.968 22.0826 189.698 17.9167H189.517C189.698 22.2637 190.605 26.7919 192.328 30.9577C194.051 35.2142 196.589 39.0178 198.856 42.7308C201.123 46.3533 203.027 49.7947 203.571 53.2361C204.115 56.768 203.299 60.2999 201.667 64.1036C201.123 65.2809 200.579 66.5487 199.944 67.7261C199.582 67.1827 199.128 66.7299 198.766 66.2771C196.952 64.1036 195.048 62.2923 193.235 60.3905C191.421 58.4887 189.608 56.5869 188.157 54.5945C185.255 50.4286 184.711 45.176 184.076 40.014C183.714 37.3877 183.442 34.7614 182.716 32.135C182.082 29.5087 180.993 27.0635 179.452 24.89L179.271 24.9806C181.719 29.6899 181.991 34.9425 182.263 40.1951C182.535 45.2666 183.26 50.6098 185.799 55.5001C185.074 55.2285 184.258 54.9568 183.532 54.6851C181.719 54.1417 179.905 53.5983 178.273 52.6021C176.641 51.606 175.19 50.3381 173.921 48.8891L173.739 48.9796C174.918 50.5192 176.097 52.0588 177.638 53.3266C179.089 54.6851 180.903 55.7718 182.716 56.5869C184.53 57.402 186.071 58.217 187.522 59.3038C188.157 59.8471 188.791 60.3905 189.336 61.0244C189.698 61.5678 190.061 62.1112 190.424 62.564C191.965 64.7375 193.507 66.911 194.776 68.9939C195.683 70.4429 196.317 71.8919 196.771 73.3409C196.408 73.9749 194.595 77.5974 193.507 79.4992C191.512 82.85 189.698 84.6612 189.698 84.6612C188.882 84.299 187.341 82.85 186.887 82.3972C185.255 80.4048 184.53 79.0464 183.26 76.7823C182.626 75.6955 182.082 74.6088 181.537 73.4315L180.812 71.7108L179.905 69.809C178.727 67.2733 177.094 64.9186 175.19 62.9263C173.286 60.9339 171.201 59.3038 169.024 57.7642C164.763 54.6851 160.501 51.606 157.962 46.9873L157.781 47.0778C159.776 52.0588 164.037 55.6813 167.846 59.2132C171.745 62.6546 175.372 66.3676 176.913 71.0769L177.911 74.8805C178.364 76.1484 178.727 77.5068 179.271 78.7747C179.452 79.3181 179.724 79.7709 179.905 80.3142C178.364 79.4992 176.913 78.7747 175.372 78.2313C173.286 77.4162 171.201 76.7823 169.296 75.6956C167.483 74.6088 165.669 73.1598 164.581 71.258L164.4 71.3486C165.397 73.3409 166.939 75.0616 168.662 76.5106C170.385 77.9596 172.289 79.3181 174.102 80.4954C176.006 81.6727 177.82 82.7594 179.452 84.0273C180.903 85.114 182.444 86.2008 183.804 87.2875C185.164 88.3743 186.434 89.5516 186.797 90.2761C185.255 93.7175 184.348 95.1665 183.351 97.7022C181.537 102.321 180.177 104.857 177.457 108.932L198.675 117.354C199.582 112.192 200.216 110.653 201.305 106.125C202.393 101.506 203.209 97.8833 204.841 93.5363C206.292 89.6422 207.561 84.299 207.561 84.299C209.284 83.3028 212.639 82.4877 214.271 81.401C216.175 80.4954 218.079 79.7709 220.074 79.5897C222.25 79.3181 224.608 79.4992 226.875 80.1331C229.232 80.6765 231.59 81.4915 234.038 81.7632C236.486 82.0349 239.025 81.6727 241.292 80.7671L241.201 80.5859C238.844 81.2199 236.486 81.3104 234.129 80.8576C231.771 80.4048 229.595 79.4992 227.237 78.6841C225.243 77.9596 223.066 77.1446 220.8 76.9634C221.616 76.4201 222.432 75.8767 223.157 75.3333C225.696 73.5221 227.872 71.3486 229.776 68.9939C233.494 64.2847 236.396 59.0321 239.932 54.3228C241.655 51.9682 243.65 49.7042 245.735 47.7118C247.821 45.6288 250.269 43.9987 252.808 42.4592L252.717 42.278C250.087 43.727 247.549 45.2666 245.372 47.259C243.106 49.2513 241.02 51.4248 239.206 53.6889C235.398 58.217 232.134 63.2885 228.235 67.5449C226.331 69.7184 224.245 71.7108 221.888 73.2504C219.53 74.7899 216.81 76.1484 214.18 77.4162C212.73 78.1407 211.188 78.7747 209.647 79.4992L210.372 73.5221C210.463 72.8881 210.553 72.2542 210.644 71.6202C211.007 71.258 211.46 70.8957 211.823 70.5335C213.999 68.4506 215.903 66.0959 217.445 63.4696C217.807 62.7451 218.17 62.1112 218.442 61.3867C218.714 60.6622 218.986 59.9377 219.258 59.3038L220.437 55.2285C221.253 52.6927 222.613 50.2475 224.155 48.074C227.328 43.6365 231.499 39.7423 235.852 36.2104C240.204 32.5879 244.919 29.5087 249.725 26.5202L250.269 26.1579C245.191 28.6031 240.295 31.5011 235.58 34.7614Z" fill="#5B9ED9"/>
</svg>
