<svg width="433" height="344" viewBox="0 0 433 344" fill="none" xmlns="http://www.w3.org/2000/svg">
<path d="M88.5537 71.1251C88.4631 70.4925 88.2818 69.9502 88.2818 69.3176C88.2818 69.0465 88.1912 68.685 88.1912 68.4138C88.0099 66.1545 88.1005 63.8951 88.5537 61.6357C89.0976 59.1956 90.0041 56.8458 91.3638 54.8576C91.4544 54.7672 91.4544 54.6768 91.5451 54.6768C92.9954 52.779 95.0802 50.9715 96.7119 48.8928C98.3435 46.7238 99.7938 44.3741 100.882 41.934C101.969 39.4938 102.695 36.873 103.873 34.6136C105.051 32.3542 106.774 30.2756 108.949 28.7392L108.858 28.5585C106.502 29.8237 104.507 31.7216 103.057 34.0714C101.607 36.4211 100.7 38.9516 99.5219 41.211C98.3435 43.5607 96.9838 45.7297 95.3522 47.718C93.7206 49.7062 91.9076 51.333 90.0947 53.5923C90.0041 53.6827 90.0041 53.7731 89.9134 53.7731C89.2789 54.7672 88.8257 55.7613 88.3724 56.7555C88.3724 56.6651 88.3724 56.5747 88.4631 56.394C88.9163 54.225 89.6415 52.056 90.6386 50.0677V49.9773C91.4544 47.8083 92.6328 45.6393 92.7234 43.1088C92.8141 41.8436 92.6328 40.7591 92.7234 39.5842C92.7234 38.4997 92.9047 37.3249 93.1767 36.15L92.9954 36.0596C92.4515 37.0537 91.9983 38.2286 91.817 39.4035C91.6357 40.5784 91.5451 41.7532 91.3638 42.8377C91.0012 45.0067 90.276 47.0853 88.9163 49.0736C87.8286 51.2426 87.1034 53.5923 86.7408 55.9421C86.4689 57.7496 86.2876 59.4667 86.3782 61.2742C85.7437 59.8282 84.9279 58.4726 84.0214 57.2073C83.9308 57.117 83.9308 57.0266 83.8401 56.9362C82.2085 53.8635 81.2114 50.4292 80.6675 46.9046C80.4862 45.1875 80.3956 43.4703 80.2143 41.7532C80.1237 40.0361 80.305 38.319 80.5769 36.6019C80.9395 34.8847 81.4834 33.1676 82.2085 31.5409C82.843 29.9141 83.6589 28.2874 84.4747 26.6606C84.8373 25.8472 85.2905 25.0339 85.6531 24.1301C86.0157 23.2264 86.2876 22.2322 86.3782 21.3285C86.6502 19.4306 86.3782 17.5327 86.1063 15.7252C85.8344 13.9177 85.6531 12.1102 85.7437 10.3027C85.8344 6.68774 87.194 3.2535 89.0976 0.090377L88.9163 0C86.8315 2.98237 85.2905 6.507 84.8373 10.2124C84.384 13.9177 85.4718 17.7135 84.9279 21.1477C84.656 22.8649 83.9308 24.3109 82.9337 25.9376C82.0272 27.5644 81.2114 29.1911 80.4862 30.9082C79.9424 32.2639 79.3985 33.7099 79.1266 35.2462C78.8546 34.4329 78.5827 33.6195 78.2201 32.8965C77.5856 31.812 76.8604 30.7275 75.9539 29.9141C75.1381 29.0104 74.3223 28.3777 73.6878 27.3836C72.3281 25.5761 71.6029 23.4071 71.2404 21.1477C70.8778 18.8884 70.7871 16.5386 70.5152 14.1889C70.1526 11.8391 69.5181 9.57975 68.249 7.5915L68.0677 7.68187C69.3368 9.67012 69.79 11.9295 69.9713 14.2792C70.1526 16.629 70.062 18.8884 70.3339 21.2381C70.5152 23.5879 71.1497 26.028 72.4188 28.1066C72.9626 29.1911 73.8691 30.1852 74.5943 30.9986C75.3194 31.812 75.8633 32.7157 76.3165 33.7099C78.1295 37.596 77.6762 42.3858 78.2201 47.0853C78.2201 47.3565 78.3107 47.6276 78.3107 47.9891C78.492 49.4351 76.8604 50.4292 75.5914 49.6158C73.8691 48.441 72.2375 47.3565 70.6058 46.272C68.521 44.826 66.5268 43.38 64.9858 41.5725C63.3542 39.765 62.5383 37.596 61.4506 35.1558C59.2751 30.4564 55.8305 26.3895 52.386 22.6841C49.1227 19.1595 45.8595 15.2734 43.3214 10.845L43.1401 10.9354C45.4063 15.5445 48.5789 19.6114 51.8421 23.4975C55.1054 27.3836 58.1873 31.4505 60.0909 36.0596C60.9067 38.319 61.8132 41.0302 63.5355 43.1088C64.6232 44.5548 65.9829 45.8201 67.3426 46.9046C65.9829 46.6335 64.7139 46.3623 63.4448 46.0008C61.9945 45.549 60.4535 45.0067 59.0938 44.3741C57.7341 43.6511 56.5557 42.7473 55.468 41.6628C54.3802 40.5784 53.3831 39.3131 52.2954 38.0479C51.2076 36.7826 49.9386 35.6077 48.3069 34.9751C46.7659 34.2521 45.0437 34.1617 43.412 34.1617V34.3425C45.0437 34.5232 46.5847 34.8847 47.9443 35.6077C49.304 36.4211 50.3011 37.596 51.2076 38.8612C52.1141 40.1265 53.0205 41.5725 54.1083 42.8377C55.196 44.103 56.4651 45.2778 57.9154 46.272C59.4564 47.1757 60.9067 47.8083 62.5383 48.441C64.0793 49.0736 65.8016 49.4351 67.4332 49.7062C69.0649 49.9773 70.4245 50.2485 71.7842 50.8811C72.4188 51.1522 73.0533 51.5137 73.6878 51.8752C73.7784 51.8752 73.8691 51.9656 73.8691 52.056C76.3165 53.9538 78.5827 55.8517 80.305 58.2015C81.6646 60.0993 82.7524 62.178 83.2963 64.5277C83.6589 65.6122 83.7495 66.7871 83.9308 67.962C84.0214 68.5042 84.1121 69.1368 84.1121 69.8598C84.2027 70.4925 84.2934 71.2155 84.384 71.8481C84.656 73.9267 85.1998 76.0053 85.8344 78.0839C84.8373 77.3609 83.8401 76.6379 82.9337 76.0053C80.8488 74.6497 78.8546 73.2037 76.8604 71.6673C76.7698 71.577 76.6791 71.5769 76.6791 71.4866C75.4101 70.2213 74.2317 68.8657 73.1439 67.3293C71.0591 64.5277 69.1555 61.6357 67.1613 58.7437C66.1642 57.2073 64.8951 55.8517 63.5355 54.6768C62.1758 53.502 60.5441 52.5078 58.9125 51.7848C57.2809 51.0618 55.6493 50.5196 54.1083 49.6158C52.6579 48.8025 51.2983 47.6276 50.2105 46.272L50.0292 46.3623C50.9357 47.8987 52.1141 49.2543 53.655 50.3388C55.1054 51.4233 56.737 52.1463 58.1873 53.0501C61.1787 54.6768 63.5354 57.117 65.439 59.9186C66.3455 61.2742 67.3426 62.7202 68.249 64.1662C66.98 63.0817 65.711 62.0876 64.3513 61.1838C62.0851 59.7378 59.3657 58.563 56.5557 58.3822C53.7457 58.2015 51.117 58.563 48.4882 58.8341C45.8595 59.1052 43.2308 59.286 40.602 59.1956V59.3763C43.2308 59.8282 45.8595 60.009 48.5789 59.9186C51.2076 59.9186 53.8363 59.6475 56.3744 60.0993C61.3599 60.732 65.439 64.347 68.9742 67.962C70.7871 69.8598 72.6907 71.8481 74.6849 73.6556C76.6791 75.4631 78.764 77.1802 80.8488 78.8069C83.0243 80.3433 85.0185 81.8797 86.7408 83.6872C87.5566 84.5006 88.2818 85.3139 89.007 86.2177C89.0976 86.4888 89.1883 86.6696 89.3696 86.9407C90.548 89.2904 91.1825 91.9113 92.2702 94.3514C92.2702 94.4418 92.3609 94.5322 92.4515 94.7129H92.2702L91.2731 94.8033C90.0041 94.8937 88.4631 94.9841 87.7379 95.0744C86.8315 95.2552 85.925 95.3456 85.0185 95.3456C81.3021 95.5263 77.4949 94.8937 73.7785 93.5381C70.1526 92.1824 66.5268 90.1942 63.3542 87.7541C61.7225 86.5792 60.1816 85.2236 58.5499 83.868C57.0089 82.5123 55.5586 81.0663 53.655 79.6203C49.9386 76.8187 45.5876 75.8246 41.7804 74.3786C39.8769 73.6556 37.9733 72.7518 36.251 71.577C34.5287 70.4021 33.0784 68.9561 31.7187 67.3293L31.5374 67.4197C32.6252 69.2272 33.9849 70.854 35.6165 72.2999C37.2481 73.7459 39.061 74.9208 40.9646 75.9149C40.9646 75.9149 40.9646 75.9149 41.0553 75.9149C42.5962 76.7283 42.2337 78.9877 40.5114 79.2588C40.4207 79.2588 40.4207 79.2588 40.3301 79.2588L32.7158 80.253C30.1777 80.5241 27.549 80.9759 25.1922 79.9818L25.1016 80.1626C27.4584 81.3374 30.1777 81.1567 32.7158 81.0663C35.2539 80.8856 37.8826 80.6144 40.4207 80.6144C42.9588 80.6144 45.4969 80.8856 47.8537 81.3374C49.576 81.6989 51.2076 82.2412 52.5673 83.1449C52.6579 83.2353 52.8392 83.3257 52.9299 83.4161C53.8363 84.4102 54.8334 85.4947 55.8305 86.5792C57.2809 88.1156 58.8219 89.6519 60.4535 91.0979C62.0851 92.5439 63.7167 93.9899 65.5297 95.2552C65.6203 95.3456 65.711 95.3456 65.711 95.4359C65.6203 95.4359 65.6203 95.4359 65.5297 95.5263C64.4419 95.8878 63.4448 96.2493 62.4477 96.7012C58.5499 98.4183 55.196 100.316 51.5702 101.581C48.035 103.118 44.1372 103.479 40.1488 103.299C36.1604 103.118 32.2626 102.033 28.4555 100.858L28.3648 101.039C31.9907 102.756 35.7978 104.473 39.8769 105.196C40.7833 105.468 41.6898 105.468 42.5962 105.558C43.7746 105.648 44.953 105.739 46.1314 105.739C46.6753 105.739 47.2192 105.739 47.7631 105.739L49.304 105.558L50.9357 105.468C51.4795 105.377 52.0234 105.287 52.4766 105.196C52.6579 105.196 52.8392 105.106 53.0205 105.016C52.1141 106.462 51.3889 107.998 50.5731 109.354C49.7573 110.89 48.6695 112.155 47.0379 113.149L47.1285 113.33C48.9415 113.059 50.6637 111.794 51.9328 110.348C53.2018 108.902 54.1989 107.456 55.3773 106.191C56.2838 105.196 57.2809 104.383 58.278 103.57C58.4593 103.479 58.5499 103.389 58.7312 103.299C60.6348 102.576 62.4477 101.943 64.17 101.31C67.5239 100.226 70.6058 99.8643 73.6878 100.407C73.8691 100.407 73.9597 100.497 74.141 100.587C77.223 102.033 80.6675 103.118 84.1121 103.75C85.2905 104.022 86.4689 104.112 87.6473 104.293C89.007 104.383 89.6415 104.564 90.3667 104.745L90.9105 104.835L91.4544 105.106L92.5422 105.558C93.2673 105.829 93.9018 106.371 94.5364 106.642C97.0745 108.45 99.7938 110.438 101.607 113.421C102.513 114.957 103.873 116.313 104.507 117.939C104.87 118.753 106.23 122.729 106.139 122.729L122.818 114.505C122.546 114.053 120.824 112.336 120.642 111.975C120.461 111.703 118.286 109.173 117.379 108.36C115.657 106.552 114.207 105.016 112.212 103.479C111.215 102.666 108.949 101.13 108.949 101.039C106.864 99.3221 105.414 97.3338 103.42 95.5263C103.238 95.1648 103.057 94.8033 102.876 94.4418C102.695 92.7247 102.695 90.9172 102.876 89.2001C103.057 86.9407 103.601 84.6813 104.235 82.5123C104.87 80.3433 105.776 78.1743 106.774 76.0957C107.771 74.0171 108.949 72.1192 110.49 70.3117C112.122 68.4138 113.391 66.0641 113.844 63.624C114.388 61.1838 114.478 58.8341 115.204 56.6651C115.838 54.4057 117.017 52.3271 118.376 50.4292L118.286 50.3388C116.745 52.1463 115.385 54.1346 114.478 56.4843C113.572 58.7437 113.209 61.1838 112.575 63.3528C111.94 65.6122 110.762 67.5101 109.221 69.1368C107.499 70.854 106.048 72.9326 104.779 75.0112C102.423 79.2588 100.791 83.8679 99.8845 88.7482C99.4313 85.9466 100.247 82.9642 101.154 80.0722C102.151 77.0898 103.329 74.1074 104.326 71.0347C105.323 67.9619 106.139 64.7988 106.32 61.455C106.32 60.6416 106.32 59.8282 106.23 58.9245C106.139 58.1111 106.048 57.2073 105.867 56.4843C105.595 54.948 105.323 53.4116 105.142 51.7848C104.779 48.7121 104.87 45.549 106.139 42.657C106.683 41.211 107.499 39.8554 108.405 38.4997C109.221 37.1441 110.218 35.8788 111.215 34.6136L111.125 34.5232C108.949 36.873 106.864 39.3131 105.414 42.2051C103.873 45.0971 103.51 48.5313 103.692 51.7848C103.782 53.4116 103.964 55.0383 104.235 56.5747C104.326 57.3881 104.417 58.1111 104.417 58.8341C104.507 59.5571 104.417 60.3705 104.417 61.0935C104.145 64.1662 103.238 67.1486 102.151 70.0406C101.154 73.0229 99.8845 75.9149 98.8874 78.9877C98.3435 80.5241 97.8903 82.0604 97.5277 83.7776C97.3464 84.5909 97.2558 85.4947 97.1651 86.3081C97.1651 87.1214 97.0745 88.1156 97.2557 88.9289C97.2557 89.0193 97.2557 89.1097 97.2557 89.1097C96.8025 88.6578 96.3493 88.1156 95.8961 87.6637C94.9896 86.7599 94.2644 85.7658 93.6299 84.6813C91.3638 80.4337 89.4602 75.9149 88.5537 71.1251Z" fill="#5B9ED9"/>
</svg>
