<svg width="433" height="344" viewBox="0 0 433 344" fill="none" xmlns="http://www.w3.org/2000/svg">
<path d="M12.1162 205.084C14.3026 203.27 16.58 201.546 19.0397 199.912C21.4083 198.279 23.868 196.918 26.5099 195.738C26.4188 195.738 26.4188 195.738 26.3277 195.738C24.4146 195.829 22.4104 196.192 20.4973 196.736C16.6712 197.734 12.9361 199.186 9.56541 201.364L9.47431 201.183C12.5717 198.642 16.2157 196.646 20.1329 195.284C22.046 194.649 24.1413 194.196 26.1455 193.833C28.1496 193.47 30.1538 193.379 32.2491 193.56C33.1601 193.288 34.0711 193.107 34.9821 192.925L39.1726 192.381L41.0857 192.018L42.9988 191.473C44.4564 191.02 45.914 190.294 47.2805 189.568C44.4564 189.114 41.4501 188.479 38.626 187.481C35.6198 186.846 32.7957 186.029 30.1538 184.849C27.3297 183.67 24.6879 182.218 22.1371 180.857C19.5863 179.496 16.9444 178.225 14.3937 176.955C11.8429 175.594 9.29212 174.414 6.37694 173.87V173.688C9.38321 173.598 12.2984 174.596 15.0314 175.594C17.7643 176.683 20.3151 178.044 23.0481 179.042C24.779 179.677 26.5099 180.222 28.2407 180.585C26.601 178.861 25.3256 176.955 24.0502 175.14C21.6816 171.42 19.4952 167.79 16.6711 164.614C13.8471 161.439 10.4764 158.716 6.65024 156.539L6.74134 156.357C11.023 157.537 15.1225 159.533 18.7664 162.255C22.5015 164.977 25.5989 168.335 28.6962 171.42C31.7025 174.505 34.5266 177.227 37.8062 178.498C41.0857 179.859 44.8208 179.949 48.8292 179.314C50.1045 179.133 51.471 178.861 52.7464 178.588C52.382 178.135 51.9265 177.59 51.5621 177.137C49.9223 174.868 48.5559 172.6 47.1894 170.331C45.8229 168.153 44.3653 165.885 42.7255 163.979C39.3548 160.168 34.4355 158.353 29.5161 156.448C27.0565 155.45 24.5057 154.542 22.1371 153.181C19.7685 151.911 17.5821 150.278 15.8513 148.281L15.9424 148.191C19.9507 151.729 25.0523 153.272 30.0627 154.724C34.9821 156.176 39.9925 158.172 44.092 161.801C44.0009 160.985 43.9098 160.168 43.9098 159.442C43.8187 157.537 43.7276 155.631 43.181 153.816C42.5433 152.002 41.7234 150.278 40.5391 148.735L40.7213 148.644C41.9056 150.187 43.181 151.729 44.092 153.544C45.003 155.268 45.6407 157.355 46.0051 159.261C46.3695 161.166 46.7339 162.981 47.4627 164.524C47.8271 165.25 48.2826 166.066 48.7381 166.701C49.1936 167.155 49.5579 167.7 50.0134 168.153C51.7443 170.15 53.4752 172.146 55.2972 173.961C56.4815 175.14 57.7569 176.229 59.0323 176.955C59.7611 176.774 63.6783 175.866 65.7736 175.231C69.5087 174.051 71.7861 173.779 71.7861 173.779C71.6039 172.872 70.6019 171.057 70.2375 170.513C68.6888 168.425 67.4134 166.429 65.5914 164.705C64.6804 163.798 63.6783 162.981 62.7673 162.164L61.3097 160.985L59.67 159.624C57.3925 157.9 55.5705 155.722 54.1129 153.363C52.6553 151.003 51.5621 148.553 50.56 146.103C48.5559 141.294 46.6428 136.304 42.7255 132.765L42.8166 132.583C47.1894 135.759 49.7401 140.75 52.1998 145.287C54.5684 149.915 57.3925 154.361 61.583 156.902L65.0448 158.807C66.2291 159.533 67.4134 160.259 68.5066 161.076C68.9621 161.439 69.4176 161.711 69.8731 162.074C69.5087 160.44 69.1443 158.807 68.871 157.174C68.5977 154.996 68.4155 152.818 67.8689 150.64C67.2312 148.553 66.3202 146.557 64.6804 145.015L64.7715 144.833C66.4113 146.285 67.7778 148.191 68.6888 150.278C69.6909 152.274 70.6019 154.452 71.2395 156.539C71.9683 158.626 72.606 160.713 73.4259 162.618C74.1547 164.342 74.8835 166.974 75.6123 168.607C76.3411 170.15 77.161 171.692 77.7987 172.237C81.5338 171.511 93.5588 168.335 98.2049 166.701L101.302 189.386C96.0185 189.023 94.3787 189.205 89.7327 189.205C84.9955 189.205 81.1694 189.023 76.5233 189.568C72.4238 190.022 66.8668 190.022 66.8668 190.022C65.4092 191.473 63.8605 194.468 62.4029 195.829C61.0364 197.462 59.9433 199.096 59.2145 201.001C58.4857 203.088 58.0302 205.357 58.0302 207.807C58.0302 210.166 58.2124 212.707 57.9391 215.156C57.5747 217.606 56.6637 219.966 55.2061 221.962L55.0239 221.871C56.2082 219.784 56.937 217.425 57.0281 215.066C57.2103 212.707 56.8459 210.347 56.5726 207.897C56.2993 205.81 56.1171 203.542 56.4815 201.273C55.7527 201.908 55.0239 202.544 54.2951 203.179C51.9265 205.175 49.2846 206.808 46.5517 208.079C40.9946 210.62 35.2554 212.162 29.7894 214.34C27.0564 215.429 24.4146 216.79 21.8638 218.332C19.313 219.875 17.1266 221.871 15.0314 223.958L14.8492 223.868C16.8533 221.69 19.0397 219.603 21.4994 217.879C23.9591 216.155 26.601 214.703 29.3339 213.432C34.7088 210.801 40.448 208.895 45.5496 206.083C48.1915 204.812 50.56 203.179 52.6553 201.273C54.7506 199.368 56.7548 197.009 58.5768 194.831C59.6699 193.56 60.672 192.29 61.6741 190.929L55.6616 190.203C55.0239 190.112 54.3862 190.022 53.7485 190.022C53.293 190.294 52.9286 190.657 52.4731 190.929C49.9223 192.562 47.1894 193.833 44.1831 194.649C43.4543 194.831 42.7255 195.012 41.9056 195.103C41.1768 195.194 40.3569 195.284 39.6281 195.375L35.3465 195.466C32.7046 195.647 29.9716 196.373 27.4208 197.281C22.2282 199.277 17.491 202.362 13.0272 205.81C8.47222 209.168 4.28166 212.979 0.182199 216.881L0 216.79C3.82616 212.888 7.83453 208.895 12.1162 205.084Z" fill="#5B9ED9"/>
</svg>
