<svg width="433" height="344" viewBox="0 0 433 344" fill="none" xmlns="http://www.w3.org/2000/svg">
<path d="M105.428 274.488C105.337 275.122 105.337 275.666 105.337 276.3C105.337 276.572 105.338 276.935 105.247 277.207C105.338 279.472 105.608 281.647 106.149 283.822C106.87 286.179 108.043 288.354 109.485 290.257C109.575 290.348 109.575 290.348 109.666 290.438C111.289 292.16 113.453 293.792 115.256 295.695C117.059 297.689 118.682 299.864 119.945 302.129C121.207 304.486 122.199 306.842 123.551 309.017C124.904 311.192 126.798 313.005 128.962 314.274L128.871 314.455C126.527 313.367 124.273 311.736 122.74 309.561C121.117 307.386 120.035 305.03 118.682 302.854C117.33 300.679 115.797 298.686 113.994 296.873C112.28 295.06 110.297 293.61 108.313 291.617C108.223 291.526 108.223 291.526 108.133 291.435C107.411 290.529 106.87 289.623 106.329 288.626C106.329 288.716 106.42 288.807 106.42 288.898C107.051 290.982 107.952 292.976 109.125 294.879C109.125 294.879 109.125 294.97 109.215 294.97C110.207 297.054 111.559 299.048 111.83 301.495C112.01 302.673 112.01 303.851 112.1 304.939C112.19 306.027 112.461 307.114 112.821 308.202L112.641 308.292C112.01 307.295 111.469 306.208 111.198 305.12C110.928 303.942 110.748 302.854 110.477 301.767C109.936 299.683 109.034 297.689 107.592 295.876C106.329 293.882 105.428 291.617 104.887 289.351C104.436 287.629 104.165 285.907 104.075 284.185C103.624 285.635 102.903 287.085 102.182 288.354C102.182 288.445 102.091 288.535 102.091 288.626C100.829 291.798 100.108 295.242 99.9274 298.776C99.9274 300.498 99.9274 302.129 100.018 303.851C100.108 305.573 100.378 307.205 100.829 308.836C101.28 310.467 102.001 312.099 102.813 313.639C103.624 315.18 104.526 316.721 105.428 318.261C105.879 318.986 106.42 319.802 106.87 320.618C107.321 321.433 107.592 322.43 107.862 323.337C108.223 325.24 108.223 327.052 108.133 328.865C108.043 330.677 108.043 332.399 108.313 334.212C108.764 337.746 110.387 341.009 112.551 343.909L112.461 344C110.207 341.19 108.313 337.928 107.592 334.303C106.87 330.677 107.592 326.871 106.69 323.608C106.239 321.887 105.428 320.618 104.346 319.077C103.354 317.536 102.362 315.996 101.46 314.364C100.739 313.096 100.198 311.645 99.7471 310.286C99.5667 311.102 99.3864 311.917 99.0257 312.642C98.5749 313.821 97.8535 314.817 97.1322 315.814C96.4108 316.721 95.6895 317.536 95.1485 318.443C94.0665 320.346 93.4353 322.521 93.3451 324.787C93.1648 327.052 93.3451 329.318 93.255 331.674C93.1648 333.94 92.7139 336.296 91.6319 338.381L91.4516 338.29C92.4434 336.206 92.8041 333.94 92.7139 331.674C92.7139 329.409 92.4434 327.143 92.4434 324.787C92.4434 322.43 92.8041 319.983 93.796 317.808C94.2468 316.721 95.0583 315.633 95.5993 314.727C96.2305 313.821 96.6813 312.914 97.042 311.917C98.3945 307.93 97.583 303.308 97.6732 298.595C97.6732 298.323 97.6732 298.051 97.6732 297.689C97.6732 296.239 95.96 295.423 94.878 296.329C93.3451 297.598 91.8123 298.867 90.2794 300.045C88.3859 301.586 86.5825 303.217 85.23 305.211C83.8775 307.114 83.2463 309.38 82.3446 311.827C80.6314 316.721 77.6558 320.89 74.6803 324.877C71.7047 328.865 68.8194 332.943 66.8357 337.565L66.6553 337.475C68.4587 332.762 71.1637 328.502 73.959 324.333C76.7542 320.165 79.4592 315.996 80.8117 311.283C81.4429 309.017 82.0741 306.298 83.5168 304.033C84.4185 302.492 85.6808 301.133 86.853 299.954C85.5907 300.317 84.3283 300.679 83.1561 301.223C81.7134 301.767 80.3609 302.492 79.0985 303.217C77.8362 304.033 76.7542 305.03 75.7623 306.208C74.7705 307.386 73.959 308.745 72.9671 310.014C71.9753 311.283 70.8932 312.642 69.3604 313.458C67.9177 314.274 66.2947 314.546 64.6716 314.636V314.455C66.2045 314.183 67.7373 313.639 68.9997 312.824C70.2621 311.917 71.1637 310.649 71.8851 309.38C72.6966 308.02 73.4179 306.57 74.3196 305.211C75.2213 303.851 76.3935 302.583 77.746 301.495C79.1887 300.498 80.5412 299.682 82.0741 298.957C83.5168 298.232 85.1398 297.689 86.6727 297.236C88.2055 296.782 89.5581 296.42 90.8204 295.695C91.4516 295.332 91.9926 294.97 92.6238 294.517C92.7139 294.426 92.7139 294.426 92.8041 294.335C94.9682 292.251 97.042 290.166 98.4847 287.72C99.6569 285.726 100.559 283.551 100.829 281.285C101.1 280.197 101.1 279.019 101.1 277.841C101.1 277.297 101.1 276.663 101.1 275.938C101.1 275.303 101.1 274.669 101.19 273.944C101.28 271.86 101.641 269.775 102.001 267.691C101.1 268.506 100.198 269.231 99.3864 269.956C97.4929 271.497 95.6895 273.128 93.8861 274.76C93.796 274.85 93.796 274.85 93.7058 274.941C92.6238 276.3 91.5418 277.75 90.6401 279.291C88.8367 282.191 87.3039 285.273 85.5907 288.263C84.689 289.804 83.607 291.254 82.4348 292.613C81.1724 293.882 79.7297 295.06 78.1969 295.876C76.664 296.782 75.1311 297.417 73.7786 298.414C72.4261 299.32 71.2539 300.589 70.2621 302.039L70.0817 301.948C70.8031 300.408 71.8851 298.867 73.2376 297.779C74.5901 296.601 76.123 295.695 77.4755 294.698C80.2707 292.795 82.3446 290.257 83.8775 287.266C84.689 285.816 85.4103 284.366 86.2218 282.826C85.1398 284.004 83.9676 285.091 82.7053 286.088C80.6314 287.72 78.1067 289.079 75.4016 289.532C72.6966 289.985 70.0817 289.804 67.557 289.804C65.0323 289.713 62.4174 289.895 59.8927 290.166V289.985C62.4174 289.26 65.0323 288.898 67.557 288.716C70.1719 288.535 72.6966 288.445 75.1311 287.81C80.0002 286.723 83.5168 282.826 86.6727 278.929C88.2957 276.844 89.9187 274.76 91.7221 272.856C93.5255 270.863 95.419 269.05 97.3125 267.237C99.2061 265.516 101.009 263.794 102.542 261.89C103.264 260.984 103.895 260.078 104.526 259.172C104.616 258.9 104.706 258.718 104.796 258.446C105.788 256.09 106.149 253.371 106.961 250.924C106.961 250.834 107.051 250.743 107.051 250.562H106.87H105.879C104.616 250.562 103.083 250.652 102.362 250.562C101.46 250.471 100.559 250.471 99.6569 250.562C96.0502 250.743 92.3533 251.649 88.9269 253.371C85.5005 255.003 82.2544 257.268 79.2789 259.987C77.8362 261.347 76.3935 262.797 75.041 264.247C73.5983 265.697 72.4261 267.237 70.7129 268.869C67.3767 271.95 63.2289 273.31 59.6222 275.122C57.8188 276.028 56.1056 277.025 54.5728 278.385C53.0399 279.654 51.6874 281.285 50.6054 283.007L50.425 282.916C51.3267 281.104 52.4989 279.291 53.9416 277.75C55.3843 276.21 57.0975 274.85 58.8107 273.763C58.8107 273.763 58.8107 273.763 58.9009 273.763C60.3435 272.856 59.8025 270.591 58.0893 270.591C57.9992 270.591 57.9992 270.591 57.909 270.591L50.425 270.319C47.9905 270.228 45.3756 270.138 43.1214 271.225L43.0312 271.044C45.2855 269.684 47.9003 269.594 50.425 269.413C52.9498 269.322 55.4745 269.322 57.909 269.231C60.3435 269.05 62.8683 268.506 65.0323 267.872C66.6553 267.419 68.1882 266.603 69.4505 265.606C69.5407 265.516 69.6309 265.425 69.721 265.244C70.5326 264.156 71.3441 262.978 72.2458 261.89C73.5081 260.259 74.8606 258.628 76.3033 256.996C77.746 255.365 79.2789 253.915 80.9019 252.465C80.9921 252.374 81.0822 252.374 81.0822 252.284C80.9921 252.284 80.9921 252.284 80.9019 252.284C79.8199 252.102 78.828 251.74 77.8362 251.377C73.8688 250.109 70.4424 248.477 66.7455 247.571C63.1388 246.393 59.3517 246.393 55.5646 246.937C51.6874 247.39 48.0807 248.93 44.3838 250.381L44.2936 250.199C47.72 248.205 51.2366 246.212 55.1138 245.124C55.9253 244.762 56.827 244.671 57.7287 244.49C58.9009 244.218 59.9829 244.037 61.1551 243.946C61.6961 243.946 62.1469 243.855 62.6879 243.765H64.2208H65.7536C66.2947 243.765 66.8357 243.855 67.2865 243.855C67.4668 243.855 67.6472 243.946 67.8275 243.946C66.7455 242.586 65.934 241.227 65.0323 239.958C64.0404 238.508 62.9584 237.33 61.2452 236.605V236.424C63.0486 236.514 64.852 237.602 66.2045 238.871C67.557 240.14 68.639 241.499 69.9014 242.677C70.8932 243.583 71.8851 244.308 72.9671 244.943C73.1474 245.033 73.2376 245.124 73.4179 245.124C75.3115 245.577 77.1148 246.121 78.9182 246.574C82.2544 247.299 85.3201 247.39 88.2055 246.574C88.3859 246.574 88.476 246.484 88.6564 246.393C91.5418 244.671 94.6976 243.312 98.124 242.405C99.2061 242.043 100.378 241.771 101.55 241.59C102.903 241.318 103.444 241.136 104.165 240.865L104.706 240.683L105.247 240.411L106.239 239.868C106.87 239.505 107.502 238.961 108.133 238.599C110.477 236.605 112.371 233.886 113.813 230.805C114.535 229.264 115.166 227.633 115.617 226.001C115.887 225.186 116.068 224.28 116.248 223.464C116.338 223.011 116.428 222.648 116.518 222.195C116.518 222.014 116.609 221.742 116.609 221.651C116.609 221.47 116.699 221.198 116.609 221.289L135.634 228.448C135.364 228.992 135.183 229.173 135.003 229.445C134.823 229.717 134.642 229.989 134.462 230.261C134.101 230.805 133.74 231.349 133.38 231.802C132.658 232.799 131.937 233.796 131.126 234.792C129.593 236.696 127.97 238.599 126.166 240.321C125.265 241.227 124.273 242.043 123.281 242.858L123.191 242.949C121.297 244.852 119.494 246.755 117.691 248.749C117.51 249.112 117.42 249.474 117.24 249.927C117.24 251.649 117.33 253.371 117.691 255.093C118.051 257.268 118.773 259.443 119.584 261.528C120.396 263.612 121.478 265.697 122.65 267.6C123.822 269.503 125.175 271.316 126.798 272.947C128.511 274.669 129.953 276.844 130.675 279.2C131.396 281.557 131.667 283.822 132.568 285.907C133.38 288.082 134.732 289.985 136.265 291.798L136.175 291.888C134.552 290.257 133.019 288.354 131.937 286.269C130.855 284.185 130.314 281.738 129.412 279.654C128.601 277.569 127.248 275.757 125.625 274.306C123.822 272.766 122.199 270.863 120.846 268.959C118.141 264.972 116.158 260.622 114.895 255.909C114.715 258.718 115.707 261.528 116.879 264.337C118.141 267.147 119.494 269.956 120.756 272.856C122.019 275.757 123.101 278.838 123.551 282.101C123.642 282.916 123.732 283.732 123.732 284.548C123.732 285.363 123.732 286.269 123.642 286.994C123.461 288.535 123.371 290.076 123.371 291.617C123.281 294.698 123.642 297.779 125.174 300.408C125.896 301.767 126.798 303.036 127.789 304.214C128.781 305.483 129.773 306.57 130.855 307.748L130.765 307.839C128.421 305.755 126.166 303.58 124.453 300.77C122.74 298.051 122.019 294.698 121.928 291.526C121.928 289.895 121.928 288.354 122.019 286.723C122.109 285.907 122.019 285.182 122.019 284.457C122.019 283.732 121.838 283.007 121.748 282.191C121.207 279.2 120.035 276.391 118.773 273.581C117.51 270.772 116.068 267.962 114.715 265.062C114.084 263.612 113.453 262.072 113.002 260.531C112.731 259.715 112.551 258.9 112.371 258.084C112.28 257.268 112.19 256.271 112.19 255.546C112.19 255.456 112.19 255.365 112.19 255.365C111.83 255.909 111.379 256.453 111.018 256.906C110.207 257.903 109.666 258.9 109.125 260.078C107.321 265.153 105.879 269.684 105.428 274.488Z" fill="#5B9ED9"/>
</svg>
