<svg width="433" height="344" viewBox="0 0 433 344" fill="none" xmlns="http://www.w3.org/2000/svg">
<path d="M233.443 263.644C234.071 264.002 234.609 264.45 235.236 264.808C235.505 264.987 235.864 265.167 236.133 265.346C238.374 266.6 240.705 267.585 243.036 268.213C245.635 268.84 248.146 268.929 250.476 268.571C250.566 268.571 250.656 268.571 250.745 268.481C252.897 267.854 255.138 266.69 257.559 266.062C260.069 265.435 262.669 265.167 265.358 265.167C268.047 265.256 270.827 265.704 273.337 265.615C275.847 265.525 278.178 264.719 280.15 263.285L280.24 263.465C278.536 265.167 276.205 266.331 273.606 266.69C271.006 267.048 268.227 266.779 265.717 266.869C263.117 266.869 260.696 267.317 258.365 267.944C256.035 268.571 254.062 269.735 251.463 270.452C251.373 270.452 251.283 270.452 251.194 270.542C250.118 270.721 248.952 270.721 247.877 270.721C247.966 270.721 248.146 270.81 248.235 270.81C250.566 271.348 252.807 271.617 255.049 271.617H255.138C257.469 271.885 259.889 271.706 262.489 272.781C263.744 273.319 264.91 273.946 266.075 274.483C267.241 275.021 268.406 275.379 269.571 275.648V275.827C268.406 275.917 267.151 275.738 265.986 275.379C264.73 275.021 263.565 274.483 262.4 274.215C260.158 273.587 257.828 273.319 255.676 273.677C253.256 273.767 250.745 273.319 248.325 272.602C246.442 272.065 244.649 271.348 242.856 270.452C244.201 271.706 245.456 273.229 246.532 274.662C246.622 274.752 246.711 274.842 246.711 274.931C249.58 277.977 252.897 280.665 256.393 282.815C258.097 283.8 259.8 284.696 261.593 285.681C263.386 286.577 265.179 287.294 266.882 287.742C268.675 288.19 270.558 288.458 272.351 288.548C274.144 288.637 275.936 288.637 277.729 288.637C278.626 288.637 279.522 288.548 280.509 288.637C281.495 288.727 282.481 288.906 283.467 289.265C285.439 289.981 287.322 291.056 289.115 292.131C290.908 293.206 292.701 294.281 294.583 294.998C298.259 296.521 302.024 296.879 305.61 296.431L305.7 296.61C302.293 297.237 298.438 297.237 294.583 295.804C290.728 294.46 287.053 291.594 283.467 290.608C281.674 290.071 280.06 290.16 278.178 290.34C276.385 290.429 274.502 290.519 272.619 290.429C271.095 290.34 269.571 290.16 267.958 289.802C268.765 290.429 269.482 291.056 270.199 291.863C271.275 293.027 272.171 294.281 272.888 295.535C273.606 296.79 274.233 297.865 275.04 298.94C276.654 301.09 278.716 302.881 280.957 304.315C283.198 305.748 285.618 306.912 287.86 308.346C290.19 309.779 292.432 311.481 294.225 313.721L294.135 313.81C292.342 311.66 290.101 310.048 287.77 308.794C285.439 307.54 283.019 306.465 280.688 305.121C278.357 303.867 275.936 302.075 273.964 299.835C272.978 298.76 272.171 297.417 271.364 296.252C270.647 295.177 269.84 294.102 268.944 293.206C265.268 289.623 260.338 287.742 255.586 284.965C255.317 284.785 254.959 284.606 254.69 284.427C253.256 283.531 251.911 284.785 252.538 286.398C253.435 288.637 254.242 290.877 255.138 292.937C256.214 295.625 257.379 298.402 258.993 300.731C260.607 303.15 262.669 305.031 264.91 307.36C269.392 311.84 272.888 317.035 276.116 322.231C279.343 327.427 282.75 332.533 286.874 337.102L286.784 337.192C282.481 332.713 278.895 327.696 275.488 322.59C272.082 317.483 268.496 312.467 264.103 308.435C261.951 306.554 259.352 304.404 257.559 301.717C256.214 299.925 255.228 298.044 254.331 296.073C254.331 297.506 254.421 298.94 254.6 300.373C254.78 302.075 255.049 303.867 255.497 305.479C255.945 307.181 256.752 308.794 257.648 310.406C258.545 312.019 259.71 313.631 260.786 315.244C261.862 316.946 262.848 318.737 263.296 320.708C263.744 322.59 263.565 324.381 263.296 325.994L263.117 325.904C263.206 324.202 263.117 322.5 262.579 320.798C262.041 319.096 260.965 317.483 259.8 315.96C258.634 314.437 257.379 312.915 256.214 311.213C255.048 309.51 254.062 307.629 253.345 305.748C252.718 303.777 252.269 301.985 251.911 300.104C251.552 298.223 251.463 296.342 251.373 294.64C251.373 292.848 251.283 291.325 250.925 289.713C250.745 288.906 250.476 288.1 250.207 287.294C250.207 287.204 250.118 287.115 250.118 287.025C248.594 283.71 247.07 280.485 244.918 277.708C243.215 275.469 241.243 273.319 239.001 271.796C237.926 270.9 236.76 270.273 235.595 269.556C235.057 269.198 234.429 268.84 233.712 268.481C233.085 268.123 232.368 267.675 231.74 267.317C229.678 265.973 227.616 264.54 225.644 262.927C226.182 264.271 226.72 265.525 227.258 266.779C228.333 269.467 229.409 272.154 230.664 274.842C230.754 274.931 230.754 275.021 230.844 275.11C231.919 276.992 233.085 278.783 234.429 280.575C236.94 283.979 239.539 287.204 242.229 290.608C243.574 292.31 244.739 294.192 245.815 296.162C246.801 298.133 247.518 300.194 247.966 302.165C248.415 304.135 248.773 306.106 249.311 307.988C249.939 309.869 250.835 311.75 252 313.452L251.911 313.542C250.476 311.929 249.311 310.048 248.504 308.077C247.697 306.106 247.159 304.135 246.532 302.254C245.367 298.492 243.305 294.998 240.705 291.773C239.45 290.16 238.105 288.548 236.85 286.935C237.746 288.638 238.553 290.429 239.181 292.221C240.257 295.177 240.974 298.402 240.705 301.358C240.436 304.225 239.539 306.733 238.822 309.152C238.105 311.66 237.477 314.169 237.119 316.856L236.94 316.767C236.94 313.9 237.209 311.213 237.746 308.525C238.195 305.927 238.912 303.329 238.912 300.642C239.091 295.356 236.133 289.623 232.995 284.338C231.292 281.56 229.678 278.873 228.154 276.006C226.63 273.14 225.285 270.273 223.941 267.406C222.686 264.54 221.43 261.852 219.996 259.254C219.279 258.09 218.562 256.925 217.755 255.85C217.486 255.581 217.307 255.402 217.038 255.223C214.886 252.894 212.286 251.013 209.956 248.773C209.866 248.683 209.776 248.594 209.687 248.504V248.683L209.418 249.669C209.059 250.923 208.79 252.446 208.521 253.073C208.252 253.879 207.894 254.775 207.714 255.671C206.908 259.254 206.908 263.375 207.625 267.675C208.432 271.975 209.776 276.454 211.748 280.844C212.735 283.083 213.81 285.233 214.886 287.473C215.962 289.713 217.217 291.773 218.382 294.371C220.534 299.387 220.893 304.225 221.699 308.704C222.148 310.944 222.686 313.273 223.582 315.512C224.479 317.752 225.734 319.902 227.168 322.052L227.078 322.142C225.465 320.171 223.941 318.021 222.775 315.781C221.61 313.452 220.713 311.123 219.996 308.704V308.615C219.458 306.733 217.038 306.017 216.5 307.629C216.5 307.719 216.5 307.719 216.41 307.808L214.079 314.975C213.362 317.304 212.466 319.812 213.004 322.59H212.824C212.017 319.633 212.735 317.035 213.183 314.527C213.81 312.019 214.438 309.6 214.976 307.092C215.424 304.583 215.603 301.896 215.514 299.298C215.424 297.417 215.155 295.535 214.438 293.744C214.348 293.565 214.259 293.385 214.169 293.206C213.273 291.773 212.376 290.34 211.48 288.817C210.135 286.577 208.88 284.338 207.625 282.008C206.37 279.679 205.294 277.35 204.218 274.931C204.128 274.842 204.128 274.752 204.128 274.662C204.128 274.752 204.039 274.752 204.039 274.842C203.501 275.738 202.963 276.544 202.335 277.35C199.915 280.485 197.405 282.904 195.522 285.95C193.281 288.727 192.295 292.49 191.847 296.521C191.309 300.552 191.847 304.942 192.385 309.421H192.205C191.129 304.942 189.964 300.373 189.964 295.983C189.874 294.998 189.964 294.102 190.054 293.117C190.143 291.862 190.233 290.608 190.412 289.444C190.502 288.906 190.592 288.369 190.681 287.831L191.129 286.308L191.488 284.785C191.667 284.248 191.847 283.8 192.026 283.352C192.116 283.173 192.205 282.994 192.295 282.904C190.681 283.173 188.978 283.173 187.454 283.352C185.751 283.442 184.227 283.89 183.061 285.054L182.882 284.965C183.509 283.262 185.033 282.188 186.737 281.56C188.44 281.023 190.054 280.665 191.578 280.127C192.743 279.679 193.729 279.142 194.715 278.425C194.805 278.335 194.984 278.246 195.074 278.067C196.06 276.544 197.136 275.021 198.032 273.498C199.736 270.721 200.632 267.765 200.542 264.45C200.542 264.271 200.542 264.092 200.453 263.912C199.467 260.15 199.018 256.208 198.929 252.446C198.839 251.192 198.929 249.938 199.018 248.683C199.108 247.25 199.018 246.623 199.018 245.727V245.1L198.839 244.473L198.57 243.219C198.391 242.412 198.032 241.517 197.763 240.71C196.419 237.306 194.088 233.902 191.398 230.677C190.054 229.065 183.42 226.646 183.24 226.556C183.061 226.467 196.06 206.938 196.06 206.938C196.508 207.475 199.646 214.104 200.363 215.358C201.887 217.956 202.963 221.36 204.218 224.048C204.846 225.481 205.473 226.825 206.011 228.258C206.011 228.348 206.011 228.348 206.101 228.437C207.535 231.304 208.969 234.26 210.493 237.038C210.852 237.396 211.211 237.754 211.569 238.113C213.273 239.098 215.065 239.994 216.948 240.621C219.279 241.517 221.699 242.054 224.03 242.412C226.361 242.771 228.692 242.95 231.023 242.86C233.354 242.86 235.505 242.502 237.567 241.875C239.808 241.158 242.318 240.979 244.918 241.696C247.428 242.323 249.849 243.308 252.269 243.667C254.69 244.115 257.021 243.935 259.172 243.398L259.262 243.577C257.11 244.294 254.869 244.652 252.359 244.473C249.939 244.294 247.339 243.488 245.008 243.129C242.677 242.681 240.526 242.95 238.553 243.846C236.491 244.742 234.161 245.279 231.74 245.458C226.989 245.817 221.968 245.279 216.948 243.846C219.727 245.638 222.865 246.265 226.003 246.713C229.23 247.16 232.457 247.34 235.774 247.787C239.091 248.235 242.498 248.952 245.904 250.296C246.711 250.744 247.608 251.013 248.415 251.55C249.221 252.088 250.118 252.535 250.835 253.073C252.359 254.058 253.883 255.044 255.497 255.94C258.545 257.821 261.772 259.165 264.91 259.254C266.523 259.344 268.047 259.165 269.482 258.896C271.006 258.627 272.44 258.269 273.875 257.91L273.964 258.09C271.185 259.165 268.316 260.15 265.089 260.15C261.862 260.24 258.276 259.075 255.049 257.283C253.435 256.388 251.821 255.492 250.207 254.506C249.401 253.969 248.683 253.61 247.877 253.162C247.159 252.715 246.353 252.446 245.546 252.177C242.408 251.012 239.181 250.565 235.953 250.206C232.726 249.848 229.499 249.669 226.271 249.221C224.568 249.042 222.954 248.773 221.162 248.325C220.265 248.146 219.369 247.877 218.472 247.519C217.576 247.16 216.589 246.713 215.783 246.265C215.693 246.265 215.603 246.175 215.603 246.175C216.052 246.892 216.41 247.608 216.858 248.235C217.665 249.579 218.562 250.744 219.548 251.908C224.479 256.477 228.692 260.508 233.443 263.644Z" fill="#5B9ED9"/>
</svg>
