<svg width="800" height="800" viewBox="0 0 800 800" fill="none" xmlns="http://www.w3.org/2000/svg">
<g clip-path="url(#clip0_4614_301333)">
<path d="M790.868 800H9.13148C4.11067 800 0 795.889 0 790.868V9.13148C0 4.11067 4.11067 0 9.13148 0H790.868C795.889 0 800 4.11067 800 9.13148V790.868C800 795.889 795.889 800 790.868 800Z" fill="white"/>
<path d="M339.045 784.408C334.974 787.178 309.44 787.388 294.878 783.467C294.718 781.467 294.418 777.416 294.048 772.016L294.988 771.996C294.988 771.996 290.617 721.357 290.427 691.813C290.347 680.541 290.877 672.339 292.487 671.199C298.208 667.139 319.882 669.119 321.502 644.925C321.512 644.885 321.512 644.845 321.512 644.805C326.853 677.85 343.236 781.547 339.045 784.408Z" fill="url(#paint0_linear_4614_301333)" stroke="#F9DDAF" stroke-width="0.6728" stroke-miterlimit="10"/>
<path d="M321.572 643.345C320.742 671.659 298.318 669.309 292.487 673.859C286.657 678.41 294.988 784.857 294.988 784.857L114.709 790.128L41.9868 792.259C41.9868 792.259 54.5488 655.336 55.0389 609.519C55.0789 606.358 55.0589 603.638 54.9689 601.418C54.2788 584.165 76.3224 550.409 115.339 540.728C123.42 538.718 132.211 537.737 141.703 538.157C141.703 538.157 171.568 556.81 192.821 538.157C195.362 535.937 198.342 534.237 201.663 532.987C214.635 528.086 232.678 530.046 248.32 534.467C262.233 538.407 274.235 544.308 279.075 549.069C282.126 552.08 286.557 558.031 291.417 565.692C305.09 587.305 322.182 622.451 321.572 643.345Z" fill="url(#paint1_linear_4614_301333)"/>
<path d="M114.699 790.138L41.9768 792.269C41.9768 792.269 54.5388 655.347 55.0289 609.529L94.9354 616.25C94.9354 616.25 106.217 741.461 114.699 790.138Z" fill="url(#paint2_linear_4614_301333)"/>
<path d="M291.397 562.681C282.106 560.661 269.324 556.07 265.303 552.06C259.052 545.809 204.043 542.888 200.503 539.978C199.312 538.998 200.082 536.137 201.633 532.767C226.167 524.295 268.774 538.227 279.045 547.479C282.116 550.219 286.547 555.67 291.397 562.681Z" fill="#A5A5E5" stroke="#A29EDB" stroke-width="0.6754" stroke-miterlimit="10"/>
<path d="M51.0683 614.98C51.0683 614.98 50.1381 577.744 77.2225 558.501C104.307 539.258 123.19 536.907 125.63 538.087C128.071 539.258 140.963 552.67 138.482 555.93C136.002 559.191 108.058 574.263 105.147 585.105C102.227 595.927 58.5695 625.402 51.0683 614.98Z" fill="#AFAFE8"/>
<path opacity="0.19" d="M138.803 569.132C115.429 563.741 112.988 550.429 115.329 539.838C123.41 537.997 132.201 537.107 141.693 537.487C141.693 537.487 171.558 554.55 192.811 537.487C195.352 535.457 198.332 533.897 201.653 532.756C214.625 528.276 232.668 530.066 248.31 534.107C252.141 556.4 177.129 577.994 138.803 569.132Z" fill="#474772"/>
<path d="M207.594 542.678C207.594 547.679 192.761 559.151 176.339 561.931C146.134 567.052 116.329 555.18 123.42 544.559C125.79 541.008 126.39 534.467 126.13 527.336V527.176C126.07 525.646 125.97 524.095 125.85 522.535C125.54 518.724 125.06 514.904 124.53 511.403C123.72 506.032 122.81 501.432 122.25 498.831C122.16 498.421 122.09 498.061 122.02 497.751C122.01 497.731 122.01 497.701 122 497.681C121.84 496.961 121.75 496.571 121.75 496.571C121.77 496.531 121.78 496.501 121.8 496.461C123 493.87 129.461 491.75 138.102 490.17C141.003 489.64 144.153 489.17 147.434 488.75C168.547 486.129 195.102 486.189 196.132 489.81C196.822 492.23 198.862 500.742 201.053 510.273C201.113 510.513 201.163 510.743 201.213 510.983C202.013 514.464 202.823 518.054 203.583 521.535C204.223 524.485 204.843 527.356 205.383 529.986C206.694 536.247 207.594 541.158 207.594 542.678Z" fill="#EDCD9F"/>
<path d="M201.063 510.273C171.308 522.555 141.803 516.954 124.53 511.403C123.72 506.032 122.81 501.432 122.25 498.831C122.16 498.421 122.09 498.061 122.02 497.751C122.01 497.731 122.01 497.701 122 497.681C121.93 497.261 121.87 496.861 121.8 496.461C123 493.87 129.461 491.75 138.102 490.17C141.003 489.64 144.153 489.17 147.434 488.75C168.547 486.129 195.102 486.189 196.132 489.81C196.822 492.23 198.872 500.742 201.063 510.273Z" fill="#CEA380"/>
<path d="M764.174 783.687C761.044 800.4 498.571 788.368 499.481 783.687C499.901 781.497 500.621 769.765 502.122 757.093C503.812 742.711 506.492 727.128 510.883 722.867C519.144 714.846 759.173 702.154 759.173 702.154C759.173 702.154 761.394 719.837 763.064 739.1C764.584 756.733 765.664 775.706 764.174 783.687Z" fill="url(#paint3_linear_4614_301333)"/>
<path d="M341.606 370.76C341.606 370.76 324.243 363.259 327.163 392.984C330.084 422.709 357.308 424.659 357.308 424.659C357.308 424.659 390.363 392.854 398.985 390.624C407.606 388.393 344.366 371.481 341.606 370.76Z" fill="#86AFCE"/>
<path d="M341.305 371.63C338.355 370.52 334.944 370.44 332.484 372.221C331.254 373.081 330.314 374.351 329.624 375.761C328.933 377.181 328.493 378.742 328.173 380.332C327.593 383.532 327.523 386.863 327.703 390.173C327.883 393.494 328.293 396.775 329.143 399.975C330.774 406.356 334.274 412.277 339.365 416.478C344.416 420.688 350.817 423.369 357.328 424.179H357.338L356.968 424.309C363.989 417.568 371.13 410.957 378.481 404.576C382.172 401.395 385.903 398.265 389.813 395.324C391.784 393.874 393.764 392.434 395.944 391.214C396.484 390.904 397.044 390.624 397.645 390.374C398.185 390.133 399.075 389.903 399.165 389.813C399.135 389.823 399.165 389.823 399.115 389.883C399.075 389.943 399.095 390.033 399.085 390.053C399.085 390.073 399.095 390.093 399.105 390.103C399.095 390.093 399.085 390.093 399.085 390.083C399.075 390.073 399.075 390.053 399.025 390.013C398.915 389.873 398.675 389.703 398.455 389.563C397.995 389.263 397.475 388.983 396.944 388.723C394.804 387.693 392.534 386.853 390.253 386.023C387.973 385.203 385.673 384.443 383.372 383.692C378.752 382.202 374.111 380.802 369.45 379.432C364.789 378.062 360.119 376.741 355.438 375.441L348.407 373.521L341.305 371.63ZM341.906 369.89L348.877 371.8L355.898 373.781C360.579 375.111 365.249 376.481 369.91 377.881C374.571 379.282 379.222 380.732 383.842 382.262C386.153 383.032 388.463 383.822 390.753 384.663C393.044 385.513 395.324 386.373 397.565 387.473C398.125 387.753 398.675 388.053 399.235 388.413C399.515 388.613 399.785 388.783 400.065 389.113C400.135 389.173 400.205 389.283 400.275 389.403L400.375 389.573C400.405 389.663 400.425 389.753 400.445 389.853C400.495 390.033 400.445 390.253 400.365 390.464C400.275 390.664 400.155 390.754 400.035 390.874C399.815 391.034 399.595 391.144 399.425 391.184L398.955 391.334C398.695 391.434 398.435 391.484 398.165 391.614C397.635 391.834 397.114 392.094 396.594 392.384C394.514 393.524 392.534 394.934 390.593 396.344C386.703 399.215 382.962 402.315 379.262 405.456C371.88 411.757 364.689 418.308 357.638 424.979L357.478 425.129L357.268 425.109H357.258C353.827 424.759 350.547 423.849 347.386 422.559C344.236 421.259 341.255 419.528 338.615 417.358C333.274 413.057 329.534 406.896 327.773 400.305C326.863 397.015 326.393 393.604 326.173 390.234C325.953 386.853 325.973 383.412 326.553 380.002C326.863 378.302 327.323 376.601 328.083 374.991C328.843 373.391 329.944 371.851 331.454 370.76C332.964 369.66 334.814 369.07 336.635 369C338.445 368.93 340.285 369.25 341.906 369.89Z" fill="#AED0ED"/>
<path opacity="0.2" d="M763.064 739.1C752.462 746.231 737.23 755.793 728.398 758.143C713.876 762.004 577.274 772.335 561.651 766.994C548.639 762.544 513.533 758.373 502.122 757.103C503.812 742.72 506.492 727.138 510.883 722.877C519.144 714.856 759.173 702.164 759.173 702.164C759.173 702.164 761.384 719.837 763.064 739.1Z" fill="#2D297C"/>
<path d="M688.462 283.886C686.801 291.877 677.91 304.549 673.189 309.32C671.539 310.98 669.389 312.141 666.998 313.371L665.138 309.32L666.458 298.458C666.128 298.408 665.798 298.348 665.458 298.258C661.377 297.218 658.997 294.488 657.637 291.247C658.847 285.746 660.117 280.055 661.387 274.555C662.698 268.804 663.998 263.263 665.158 258.352C667.698 247.59 669.569 239.919 669.569 239.919L672.069 238.869L680.11 235.478C680.11 235.478 682.331 244.43 684.511 254.741C686.952 266.343 689.352 279.665 688.462 283.886Z" fill="#9B5E4B" stroke="#9B5E4B" stroke-width="0.6754" stroke-miterlimit="10"/>
<path d="M477.738 235.558C477.738 235.568 477.738 235.568 477.738 235.558C477.738 235.568 477.138 238.929 476.297 243.57C474.747 251.991 472.377 264.643 471.217 269.004V269.014C470.886 270.314 470.646 270.874 470.576 270.374C470.536 270.094 470.466 269.674 470.376 269.124C470.226 268.314 470.026 267.243 469.776 265.963C468.326 258.392 465.406 244 464.746 239.289C464.225 235.508 468.106 227.067 471.097 221.286C472.867 217.835 474.327 215.325 474.327 215.325L476.027 225.417L477.738 235.558Z" fill="#9B5E4B" stroke="#9B5E4B" stroke-width="0.6754" stroke-miterlimit="10"/>
<path d="M577.144 527.846C565.892 545.479 553.56 556.831 541.508 563.472C539.398 564.642 537.317 565.652 535.237 566.532C518.324 573.713 502.422 571.993 491.39 565.892C488.489 564.282 485.919 562.381 483.769 560.261C482.178 558.691 480.808 557.011 479.688 555.24C451.513 510.793 460.375 433.23 460.375 433.23L469.746 431.81L534.997 421.919C534.987 421.909 613.61 470.707 577.144 527.846Z" fill="#F9C8A0" stroke="#F4BD8C" stroke-width="0.816" stroke-miterlimit="10" stroke-linecap="round"/>
<path d="M644.115 756.693C630.902 757.723 619.241 758.143 610.849 758.143C589.236 758.143 559.521 753.042 536.217 747.031C515.524 741.7 499.891 735.639 499.491 731.799C498.941 726.568 509.533 679.31 514.113 635.473C516.704 610.769 517.374 587.145 513.083 572.723C501.181 532.737 499.261 514.664 494.29 491.47C484.919 447.743 477.377 386.393 520.744 364.579C564.092 342.766 644.005 343.686 644.005 343.686C644.005 343.686 645.655 344.646 648.535 346.456C665.738 357.278 726.778 398.485 740.07 446.393C767.315 544.559 764.724 666.358 767.275 707.255C769.305 739.74 695.153 752.722 644.115 756.693Z" fill="#DB734F"/>
<path opacity="0.18" d="M534.137 453.084C536.527 453.934 574.243 498.521 585.445 529.036C596.647 559.551 614.89 575.804 619.52 602.688C624.151 629.562 619.15 713.956 606.018 698.954C592.896 683.951 596.247 587.825 577.184 576.334C553.32 561.941 579.934 643.324 568.592 647.075C557.25 650.826 544.328 637.704 544.848 599.567C545.378 561.441 515.994 469.346 519.124 461.635C522.255 453.924 524.765 449.753 534.137 453.084Z" fill="white" stroke="white" stroke-width="0.816" stroke-miterlimit="10"/>
<path d="M644.115 756.693C646.525 718.246 696.413 645.785 650.406 604.578C601.898 561.131 544.858 400.155 544.858 400.155L552.11 396.264L589.996 375.931L624.741 357.278L648.535 346.436C659.737 353.487 689.542 373.42 712.636 399.715C724.998 413.777 735.439 429.67 740.07 446.372C744.601 462.685 748.301 479.648 751.342 496.801C766.594 582.795 765.154 673.139 767.275 707.245C769.305 739.74 695.153 752.722 644.115 756.693Z" fill="#D36B4F"/>
<path d="M674.49 268.003C674.49 270.724 674.42 273.424 674.26 276.095C670.709 339.935 625.392 390.433 570.003 390.433C555.3 390.433 541.598 386.963 529.316 380.682C493.38 362.299 469.746 319.812 469.746 269.404V269.224C469.746 268.134 469.756 267.053 469.786 265.973C469.786 265.693 469.796 265.423 469.806 265.153C469.976 257.812 470.606 250.801 471.657 244.15C472.697 237.549 474.167 231.308 476.037 225.427C479.868 213.345 485.399 202.813 492.43 193.991C498.631 186.19 506.012 179.719 514.414 174.678C528.496 166.217 545.469 161.756 564.722 161.756C571.133 161.756 577.464 162.226 583.665 163.166C633.343 170.678 674.49 207.884 674.49 268.003Z" fill="#F9DDAF" stroke="#F9DDAF" stroke-width="0.6754" stroke-miterlimit="10"/>
<path opacity="0.21" d="M751.342 486.889C743.201 514.673 725.378 545.038 705.004 554.58C672.079 569.992 641.184 561.431 619.521 526.425C599.417 493.96 568.322 411.967 562.871 394.954C559.661 394.794 556.07 394.134 552.12 392.864C545.699 390.803 538.267 387.123 529.676 381.202C529.676 381.202 490.23 354.307 500.021 347.786C503.242 345.636 529.616 369.84 531.176 366.339C532.666 362.999 502.552 339.785 505.472 331.794C509.773 320.022 533.917 357.598 540.258 354.517C546.609 351.437 503.482 320.692 511.523 313.431C518.864 306.8 550.239 350.887 551.099 344.936C551.57 341.705 525.185 316.831 530.956 309.31C535.977 302.769 569.652 349.417 568.432 345.106C566.562 338.495 566.852 289.937 577.204 313.351C582.084 324.373 591.506 359.048 590.016 373.821C590.006 373.901 589.996 373.981 589.996 374.051C602.328 387.823 659.457 477.417 667.918 473.957C677.08 470.206 679.16 398.115 697.503 393.624C702.114 392.494 707.305 393.514 712.656 396.074C725.018 409.226 735.459 424.089 740.09 439.711C744.601 454.994 748.301 470.856 751.342 486.889Z" fill="#9B5E4B" stroke="#9B5E4B" stroke-width="0.6754" stroke-miterlimit="10"/>
<path d="M665.958 443.072C665.958 443.072 657.627 440.751 656.657 443.132C655.686 445.512 661.797 457.734 663.738 458.844C665.678 459.955 665.958 443.072 665.958 443.072Z" fill="#A34C34"/>
<path d="M674.49 268.003C674.49 335.614 627.712 390.433 570.003 390.433C555.3 390.433 541.598 386.963 529.316 380.682C573.463 377.821 617.62 359.398 627.192 341.615C632.353 332.034 635.403 292.437 631.232 272.034C627.862 255.501 569.833 169.647 569.833 169.647L583.665 163.176C633.343 170.678 674.49 207.884 674.49 268.003Z" fill="#F4BD8C" stroke="#F4BD8C" stroke-width="0.816" stroke-miterlimit="10" stroke-linecap="round"/>
<path d="M680.06 279.055C678.05 278.635 675.91 277.445 674.259 276.085C673.309 275.295 671.549 274.865 669.329 274.675C667.048 274.455 664.258 274.474 661.377 274.565C659.807 274.615 658.207 274.675 656.627 274.735C649.605 274.995 643.204 275.105 642.894 272.644C642.274 267.643 629.142 252.631 629.772 240.759C630.392 228.887 616.02 212.624 612.269 210.764C608.919 209.084 597.057 200.903 588.776 199.192C587.795 198.992 586.875 198.882 586.015 198.882C577.884 198.882 565.452 187.73 537.877 188.261C520.424 188.591 508.563 191.711 500.431 196.152C481.238 206.613 482.778 224.376 480.588 229.927C480.158 231.027 479.088 233.198 477.738 235.568C477.738 235.578 477.738 235.578 477.738 235.578C475.897 238.829 473.547 242.429 471.647 244.16C470.426 245.26 469.386 245.58 468.776 244.53C467.116 241.659 470.796 230.177 471.106 221.316C471.227 218.115 470.906 215.265 469.746 213.275C465.676 206.323 478.028 189.051 479.098 185.18C479.188 184.88 479.208 184.66 479.128 184.53C468.506 165.147 528.676 143.493 534.137 147.994C548.299 159.666 559.551 144.703 581.504 141.053C584.285 140.583 587.455 140.643 590.726 141.123C599.407 142.353 608.779 146.454 613.32 151.194C618.28 156.375 619.731 148.114 640.964 158.566C643.875 160.006 646.445 161.346 648.695 162.636C667.408 173.318 664.918 179.429 666.038 188.911C667.298 199.532 677.92 216.415 682.911 230.317C686.191 239.439 684.901 246.75 684.511 254.771C684.301 258.962 684.341 263.353 685.421 268.293C687.482 277.805 684.051 279.915 680.06 279.055Z" fill="#9B5E4B" stroke="#9B5E4B" stroke-width="0.6754" stroke-miterlimit="10"/>
<path d="M531.216 294.938C531.216 294.938 528.296 301.609 524.545 304.109C520.795 306.61 518.294 315.781 534.127 318.692" fill="#EDC488"/>
<path d="M531.216 294.938C531.216 294.938 528.296 301.609 524.545 304.109C520.795 306.61 518.294 315.781 534.127 318.692" stroke="#F9DDAF" stroke-width="0.6754" stroke-miterlimit="10"/>
<path d="M521.725 269.864C521.735 270.804 521.555 271.704 521.215 272.514C520.184 275.024 517.734 276.815 514.854 276.835C514.284 276.835 513.723 276.765 513.193 276.645L513.143 276.625C510.123 275.895 507.252 275.114 504.342 274.294C501.441 273.474 498.541 272.624 495.651 271.704C492.76 270.764 489.88 269.784 487.009 268.663C485.569 268.073 484.139 267.493 482.688 266.783C481.598 266.273 480.498 265.663 479.378 264.913C479.008 264.673 478.648 264.403 478.288 264.123C477.197 263.283 476.997 261.722 477.838 260.642C478.518 259.762 479.658 259.462 480.648 259.822L481.158 260.002L481.958 260.292L482.338 260.442L482.808 260.562C483.449 260.722 484.029 260.912 484.739 261.032C486.059 261.322 487.469 261.522 488.849 261.722C491.67 262.082 494.54 262.322 497.411 262.512C500.301 262.692 503.202 262.812 506.102 262.892C508.993 262.972 511.933 263.022 514.764 263.002C518.584 262.952 521.705 266.043 521.725 269.864Z" fill="#9B5E4B"/>
<path opacity="0.21" d="M656.637 274.735C656.117 276.735 647.905 279.656 644.025 277.975C640.134 276.305 637.914 266.043 633.743 261.603C629.572 257.162 629.022 250.761 624.761 235.478C620.491 220.206 607.629 211.594 606.248 209.964C604.858 208.344 588.466 204.643 586.805 204.643C585.145 204.643 567.082 194.642 548.979 192.691C530.886 190.741 508.463 198.802 502.902 200.653C497.341 202.503 487.349 216.855 487.089 220.746C486.839 224.637 482.338 238.249 478.998 240.469C475.667 242.69 472.057 251.581 471.226 259.072C470.986 261.263 470.466 263.323 469.806 265.133C470.806 222.266 487.199 190.991 514.424 174.658L540.398 169.898L636.513 185.74L648.735 235.468C648.735 235.478 657.147 272.734 656.637 274.735Z" fill="#9B5E4B" stroke="#9B5E4B" stroke-width="0.6754" stroke-miterlimit="10"/>
<path d="M595.677 257.692C594.447 258.962 593.176 259.892 591.906 260.742C591.616 260.942 591.316 261.132 591.016 261.322C589.436 262.323 587.836 263.203 586.225 264.053C583.015 265.733 579.754 267.233 576.474 268.664C573.203 270.084 569.893 271.434 566.582 272.734C563.252 274.034 559.961 275.265 556.52 276.475L556.51 276.485C555.47 276.855 554.4 276.955 553.38 276.815C550.859 276.505 548.619 274.805 547.729 272.244C546.469 268.654 548.369 264.723 551.96 263.463C552.43 263.293 552.96 263.173 553.43 263.123C556.76 262.733 560.221 262.243 563.602 261.713C567.002 261.192 570.393 260.612 573.763 259.962C577.124 259.302 580.464 258.572 583.725 257.702C585.345 257.262 586.955 256.792 588.496 256.232C590.026 255.682 591.526 255.051 592.646 254.331L592.846 254.201C593.906 253.521 595.307 253.831 595.987 254.891C596.547 255.792 596.397 256.962 595.677 257.692Z" fill="#9B5E4B"/>
<path d="M483.829 278.095C486.229 278.075 488.549 278.225 490.91 278.485C493.26 278.745 495.6 279.155 497.931 279.756C500.251 280.376 502.572 281.176 504.792 282.386C506.992 283.586 509.133 285.276 510.633 287.647L513.163 292.418L508.283 290.727C506.462 290.097 504.552 289.497 502.672 288.957C500.781 288.407 498.871 287.907 496.941 287.467C495.02 287.037 493.08 286.667 491.12 286.447C490.14 286.347 489.159 286.277 488.179 286.307C487.199 286.337 486.209 286.447 485.289 286.847C486.119 286.287 487.129 285.997 488.109 285.787C489.109 285.586 490.12 285.466 491.13 285.396C493.16 285.266 495.18 285.286 497.211 285.386C499.231 285.486 501.251 285.647 503.262 285.867C505.282 286.087 507.262 286.337 509.313 286.657L506.972 289.737C506.122 288.107 504.672 286.657 502.902 285.506C501.141 284.346 499.121 283.436 497.031 282.706C494.93 281.986 492.74 281.416 490.51 280.976C488.289 280.546 486.009 280.216 483.779 280.056H483.749C483.208 280.016 482.798 279.546 482.838 279.005C482.898 278.495 483.318 278.105 483.829 278.095Z" fill="#726361"/>
<path d="M585.465 280.115C583.245 280.275 580.954 280.595 578.744 281.025C576.524 281.456 574.333 282.016 572.233 282.736C570.143 283.466 568.112 284.366 566.352 285.526C564.582 286.666 563.131 288.117 562.271 289.747L559.931 286.666C561.971 286.336 563.962 286.086 565.982 285.876C567.992 285.666 570.013 285.496 572.033 285.396C574.053 285.306 576.084 285.276 578.114 285.406C579.124 285.476 580.134 285.586 581.134 285.796C582.124 286.006 583.125 286.296 583.955 286.856C583.035 286.456 582.044 286.346 581.064 286.316C580.084 286.286 579.104 286.356 578.124 286.456C576.174 286.676 574.233 287.046 572.303 287.476C570.383 287.917 568.472 288.417 566.572 288.967C564.682 289.517 562.781 290.107 560.961 290.737L556.09 292.427L558.621 287.657C560.121 285.286 562.251 283.586 564.452 282.376C566.662 281.155 568.982 280.355 571.313 279.725C573.643 279.125 575.994 278.715 578.344 278.445C580.704 278.175 583.025 278.025 585.425 278.045C585.995 278.045 586.465 278.515 586.455 279.085C586.455 279.625 586.025 280.075 585.495 280.115H585.465Z" fill="#726361"/>
<path d="M548.679 335.905C546.449 337.605 544.188 340.065 542.008 343.246C527.906 363.729 516.954 413.737 537.917 478.658C538.748 481.238 518.584 491.32 504.842 489.81C502.912 489.6 501.101 489.17 499.501 488.439C486.489 482.569 503.702 472.797 489.77 450.303C487.429 446.523 485.129 444.202 482.788 443.012C481.778 442.492 480.758 442.182 479.728 442.052C468.936 440.722 456.524 459.045 434.271 464.986C404.936 472.807 394.364 454.814 399.075 427.83C406.196 387.053 326.603 367.88 341.595 369.96C349.417 371.05 357.798 371.49 366.329 371.28C401.315 370.45 438.521 358.718 447.953 335.915C455.824 316.912 477.728 310.211 494.32 307.92C502.502 306.79 509.383 306.74 512.673 306.82C522.655 307.06 552.15 333.244 548.679 335.905Z" fill="#AED0ED"/>
<path d="M537.927 478.658C538.758 481.238 518.594 491.32 504.852 489.809C502.922 489.599 501.111 489.169 499.511 488.439C486.499 482.568 503.712 472.797 489.78 450.303C487.439 446.522 485.139 444.202 482.798 443.012C481.788 442.492 480.768 442.182 479.738 442.052C479.348 413.827 486.549 390.243 492.6 363.009C499.271 333.004 540.258 331.894 540.258 331.894L542.008 343.256C527.916 363.729 516.964 413.737 537.927 478.658Z" fill="url(#paint4_linear_4614_301333)"/>
<path d="M728.388 495.03C721.317 501.321 713.246 507.742 704.804 514.343C698.673 519.144 692.352 524.035 686.111 529.046C663.208 547.379 636.933 549.969 615.27 514.964C595.167 482.498 566.112 416.698 560.671 399.685C552.22 399.255 541.358 395.494 527.476 385.933C527.476 385.933 499.691 366.979 496.551 357.048C495.94 355.138 496.241 353.567 497.811 352.517C501.021 350.377 527.406 374.581 528.966 371.08C530.446 367.73 500.341 344.526 503.262 336.535C507.552 324.763 531.706 362.329 538.047 359.258C544.398 356.188 501.271 325.433 509.303 318.172C516.654 311.54 548.019 355.628 548.879 349.677C549.349 346.446 523.745 319.682 529.526 312.161C534.547 305.63 562.931 352.897 566.222 349.857C569.522 346.816 569.772 293.988 578.354 317.962C582.855 330.534 589.406 364.149 587.785 378.801C600.117 392.584 642.354 468.626 650.816 465.165C653.256 464.165 656.247 459.284 659.687 452.553C664.238 443.622 669.559 431.44 675.36 420.868C681.571 409.546 688.332 400.075 695.283 398.365C712.626 394.114 738.17 420.188 749.702 444.532C750.362 445.932 750.982 447.313 751.542 448.693C757.743 463.835 746.351 479.028 728.388 495.03Z" fill="#F9DDAF"/>
<path d="M685.791 529.036C662.888 547.369 636.613 549.959 614.95 514.954C594.847 482.488 565.792 416.688 560.351 399.675C551.9 399.245 541.038 395.484 527.156 385.923C527.156 385.923 499.371 366.97 496.231 357.038C498.941 364.469 523.715 377.041 530.946 380.672C538.207 384.322 557.851 389.523 564.502 394.944C571.153 400.365 582.025 424.529 595.777 450.483C609.529 476.427 637.033 512.463 648.695 516.624C660.367 520.794 705.205 479.958 705.205 479.958L749.362 444.542C750.022 445.942 750.642 447.323 751.202 448.703C761.634 474.127 722.437 499.691 685.791 529.036Z" fill="#F4BD8C"/>
<path d="M686.051 529.356C682.571 532.126 678.88 534.657 674.97 536.787C671.039 538.877 666.888 540.628 662.518 541.608C660.347 542.128 658.117 542.448 655.877 542.568C653.636 542.718 651.386 542.588 649.175 542.298C646.945 542.028 644.775 541.428 642.644 540.738C640.524 539.998 638.484 539.067 636.533 537.977C628.712 533.547 622.531 526.796 617.47 519.524C612.489 512.143 608.209 504.382 603.988 496.581C599.797 488.769 595.767 480.868 591.876 472.907C587.966 464.955 584.185 456.934 580.484 448.883C576.774 440.832 573.193 432.72 569.713 424.579C566.262 416.418 562.821 408.246 559.961 399.825L560.331 400.105C557 399.905 553.72 399.245 550.549 398.275C547.379 397.314 544.298 396.064 541.318 394.624C535.357 391.754 529.786 388.143 524.435 384.292C519.094 380.422 513.873 376.381 508.913 372.04C506.442 369.86 504.012 367.62 501.782 365.189C500.661 363.979 499.581 362.729 498.611 361.389C497.651 360.048 496.761 358.638 496.241 357.068V357.058C496.941 358.778 498.241 360.148 499.561 361.419C500.901 362.689 502.342 363.829 503.822 364.929C506.792 367.11 509.903 369.09 513.063 370.97C519.404 374.721 525.915 378.191 532.547 381.372C539.338 384.212 546.409 386.343 553.25 389.093C556.66 390.473 560.071 391.914 563.201 393.904C566.332 395.974 568.372 399.195 570.373 402.255C574.273 408.516 577.654 415.077 581.054 421.608L591.146 441.272C594.537 447.813 597.917 454.354 601.758 460.645C605.568 466.946 609.629 473.087 613.88 479.108C618.14 485.109 622.591 490.99 627.292 496.651C632.023 502.282 636.933 507.812 642.584 512.503C644.005 513.663 645.495 514.734 647.085 515.604L647.685 515.924L648.305 516.184C648.725 516.374 649.125 516.514 649.566 516.584C650.436 516.734 651.336 516.674 652.226 516.534C655.797 515.874 659.127 514.173 662.338 512.433C668.739 508.833 674.73 504.522 680.591 500.071C686.441 495.61 692.132 490.93 697.723 486.139L701.884 482.518L703.944 480.688L704.974 479.758L706.055 478.888L714.666 471.967L749.122 444.262L749.132 444.252L749.552 443.922L749.762 444.402C750.722 446.592 751.762 448.733 752.472 451.063C753.102 453.404 753.402 455.824 753.322 458.244C753.162 460.655 752.722 463.045 751.962 465.336C751.162 467.606 750.212 469.826 748.992 471.887C746.641 476.067 743.681 479.858 740.5 483.408C737.32 486.969 733.909 490.3 730.399 493.52C723.368 499.941 715.936 505.902 708.475 511.783C700.994 517.624 693.463 523.425 686.051 529.356ZM685.541 528.726C692.963 522.785 700.494 516.984 707.965 511.103C715.426 505.222 722.837 499.281 729.838 492.88C733.339 489.679 736.73 486.359 739.88 482.828C743.031 479.298 745.961 475.557 748.272 471.447C749.472 469.416 750.392 467.246 751.182 465.035C751.922 462.805 752.352 460.495 752.502 458.164C752.572 455.834 752.282 453.504 751.682 451.243C751.002 449.013 749.962 446.873 749.022 444.712L749.642 444.852L749.632 444.862L715.126 472.477L706.495 479.378L705.425 480.238L704.404 481.158L702.334 482.988L698.153 486.609C692.552 491.4 686.842 496.071 680.961 500.531C675.08 504.972 669.069 509.283 662.608 512.893C659.367 514.644 656.017 516.354 652.316 517.034C651.386 517.184 650.436 517.244 649.475 517.084C648.995 517.014 648.535 516.844 648.105 516.654L647.455 516.374L646.835 516.044C645.195 515.144 643.695 514.043 642.254 512.873C636.563 508.122 631.663 502.572 626.932 496.921C622.231 491.24 617.79 485.349 613.54 479.328C609.299 473.297 605.248 467.136 601.448 460.815C597.617 454.514 594.247 447.943 590.866 441.402L580.824 421.708C577.444 415.167 574.073 408.606 570.203 402.345C568.212 399.285 566.192 396.074 563.111 394.034C560.011 392.054 556.61 390.603 553.2 389.223C546.369 386.463 539.308 384.312 532.506 381.452C525.865 378.251 519.374 374.761 513.033 371C509.873 369.1 506.762 367.12 503.802 364.929C502.322 363.829 500.881 362.679 499.541 361.409C498.231 360.138 496.921 358.758 496.231 357.038V357.048C496.771 358.608 497.671 360.008 498.641 361.339C499.621 362.669 500.711 363.899 501.842 365.099C504.102 367.5 506.542 369.71 509.033 371.87C514.033 376.151 519.294 380.142 524.665 383.952C530.046 387.743 535.627 391.273 541.578 394.064C544.548 395.464 547.609 396.664 550.749 397.585C553.89 398.515 557.121 399.125 560.371 399.285L560.651 399.305L560.741 399.565C563.572 407.926 567.022 416.098 570.463 424.249C573.943 432.39 577.524 440.491 581.224 448.533C584.915 456.584 588.696 464.595 592.606 472.537C596.487 480.498 600.518 488.379 604.708 496.181C608.909 503.962 613.21 511.733 618.14 519.044C623.151 526.255 629.262 532.916 636.933 537.257C638.854 538.317 640.844 539.238 642.914 539.958C644.995 540.638 647.115 541.228 649.285 541.488C651.456 541.778 653.646 541.898 655.836 541.758C658.027 541.648 660.197 541.338 662.328 540.818C666.608 539.848 670.699 538.127 674.58 536.067C678.44 533.967 682.091 531.466 685.541 528.726Z" fill="#F4BD8C"/>
<path opacity="0.21" d="M728.388 495.031C721.317 501.322 713.246 507.743 704.804 514.344C697.843 497.131 688.332 481.098 682.041 470.376C675.79 459.685 664.068 454.284 659.667 452.564C664.218 443.632 669.539 431.45 675.34 420.878L687.962 419.958L714.846 439.962L728.388 495.031Z" fill="#9B5E4B" stroke="#9B5E4B" stroke-width="0.6754" stroke-miterlimit="10"/>
<path d="M740.45 493.13C720.967 526.536 720.957 522.735 720.957 522.735C720.957 522.735 714.266 511.403 705.005 497.291C689.772 474.087 667.578 443.382 656.657 443.132C656.657 443.132 664.078 397.575 688.262 385.143C700.944 378.622 711.976 380.372 721.087 386.273C726.948 390.063 732.029 395.574 736.23 401.725C746.981 417.408 759.943 459.725 740.45 493.13Z" fill="#F4885D"/>
<path d="M528.276 242.759C529.416 247.56 530.506 252.361 531.516 257.202C532.026 259.622 532.506 262.052 532.947 264.523C533.167 265.753 533.367 267.013 533.547 268.283C533.617 268.964 533.707 269.574 533.757 270.314L533.797 271.464V271.604L533.767 271.854L533.697 272.364C533.637 272.704 533.567 273.054 533.477 273.384C532.717 275.255 530.586 276.145 528.716 275.385C526.846 274.625 525.955 272.494 526.716 270.624C526.686 270.664 526.676 270.704 526.676 270.744C526.676 270.764 526.685 270.784 526.695 270.814C526.695 270.824 526.706 270.844 526.716 270.834L526.736 270.754L526.876 270.074C526.966 269.584 527.006 268.984 527.086 268.434C527.186 267.263 527.266 266.083 527.326 264.873C527.446 262.463 527.516 260.012 527.556 257.562C527.646 252.661 527.646 247.74 527.606 242.819C527.606 242.629 527.756 242.479 527.936 242.479C528.106 242.499 528.236 242.609 528.276 242.759Z" fill="#F4BD8C"/>
<path opacity="0.24" d="M629.077 327.388C642.306 323.078 651.095 313.64 648.706 306.308C646.317 298.976 633.655 296.527 620.426 300.838C607.196 305.148 598.408 314.586 600.797 321.918C603.186 329.25 615.847 331.699 629.077 327.388Z" fill="#E23D69"/>
<g opacity="0.6">
<path opacity="0.6" d="M621.201 294.718C620.611 294.748 619.751 294.878 618.99 294.978C618.2 295.108 617.41 295.218 616.62 295.378C615.83 295.518 615.03 295.678 614.25 295.848C613.45 296.008 612.669 296.188 611.879 296.388C608.739 297.178 605.598 298.098 602.608 299.308C599.627 300.519 596.687 301.919 594.006 303.679C591.356 305.469 588.926 307.57 586.935 310.13L586.875 310.21C586.295 310.96 585.225 311.09 584.475 310.51C583.855 310.03 583.655 309.2 583.945 308.5C585.365 305.059 587.475 301.909 589.936 299.078C592.416 296.268 595.257 293.838 598.207 291.597C601.178 289.357 604.328 287.417 607.559 285.616C608.369 285.156 609.179 284.726 610.009 284.306C610.829 283.876 611.669 283.466 612.509 283.066C613.34 282.656 614.21 282.276 615.06 281.896C615.96 281.516 616.75 281.166 617.83 280.775L618.35 280.585C622.131 279.225 626.302 281.196 627.662 284.976C629.022 288.757 627.052 292.927 623.271 294.288C622.601 294.538 621.881 294.678 621.201 294.718Z" fill="#FFF2DE"/>
</g>
<path d="M606.588 501.572C609.179 506.662 612.109 511.583 615.33 516.254C618.58 520.905 622.111 525.366 626.152 529.246C630.162 533.097 634.723 536.487 639.794 538.078C641.054 538.478 642.334 538.758 643.625 538.908C644.945 539.038 646.365 539.138 647.735 539.178C650.496 539.258 653.276 539.158 656.026 538.888C661.527 538.358 666.968 537.177 672.079 535.247C674.63 534.277 677.11 533.147 679.41 531.767L686.551 527.476C691.362 524.625 695.963 521.335 700.324 517.714C704.684 514.094 708.885 510.223 712.756 506.002C706.435 515.604 698.403 524.065 689.362 531.517C688.202 532.407 687.012 533.277 685.801 534.107C684.561 534.897 683.311 535.657 682.021 536.397C679.37 537.858 676.58 539.018 673.759 539.978C668.098 541.878 662.238 542.968 656.347 543.278C653.406 543.438 650.456 543.418 647.505 543.198C646.025 543.088 644.595 542.938 643.074 542.708C641.534 542.458 640.024 542.048 638.584 541.508C632.813 539.298 628.172 535.357 624.231 531.086C620.301 526.756 616.99 521.995 614.1 517.014C611.239 512.043 608.659 506.903 606.588 501.572Z" fill="#D8A275"/>
<path opacity="0.18" d="M498.151 211.674C494.34 216.175 487.189 226.897 500.311 235.178C513.433 243.46 558.171 230.497 566.972 232.128C575.784 233.758 580.034 208.684 568.532 205.503C557.03 202.323 513.323 193.771 498.151 211.674Z" fill="white" stroke="white" stroke-width="0.816" stroke-miterlimit="10"/>
<path d="M501.301 122.41C501.301 122.41 469.286 178.669 501.301 176.789C533.317 174.919 601.448 172.418 600.197 164.917C598.947 157.416 584.085 145.924 565.472 141.673C546.859 137.412 496.791 136.162 501.301 122.41Z" fill="#9B5E4B" stroke="#9B5E4B" stroke-width="0.6754" stroke-miterlimit="10"/>
<path d="M501.631 139.083C501.631 139.083 487.309 162.396 494.96 172.838C502.612 183.28 534.557 171.138 547.269 174.178C559.971 177.219 573.463 163.747 579.974 167.007C586.495 170.268 610.399 162.556 612.479 161.756C614.56 160.956 581.224 155.335 578.514 156.375C575.803 157.416 560.001 147.204 553.32 147.834C546.639 148.464 503.922 147.414 501.631 139.083Z" fill="#AF7464" stroke="#AF7464" stroke-width="0.6754" stroke-miterlimit="10"/>
<path d="M500.431 196.142C481.238 206.604 482.778 224.367 480.588 229.917C480.158 231.018 479.088 233.188 477.738 235.558C477.738 235.568 477.738 235.568 477.738 235.568C477.738 235.568 477.138 238.929 476.297 243.57C474.747 251.991 472.377 264.643 471.217 269.004V269.014L470.376 269.124L469.736 269.214C469.736 268.124 469.746 267.043 469.776 265.963C468.326 258.392 465.406 244 464.746 239.289C464.225 235.508 468.106 227.067 471.097 221.286C471.217 218.086 470.896 215.235 469.736 213.245C465.666 206.294 478.018 189.021 479.088 185.15C482.058 189.471 487.479 192.241 492.42 193.982C495.53 195.072 498.441 195.752 500.431 196.142Z" fill="#8E5444"/>
<path d="M688.462 283.886C686.801 291.877 677.91 304.549 673.189 309.32C671.539 310.981 669.389 312.141 666.998 313.371L665.138 309.32L666.458 298.459L669.339 274.665L670.189 267.694C670.189 267.694 671.209 263.633 672.199 258.882C672.819 255.892 673.419 252.611 673.749 249.921C674.109 246.9 673.479 243 672.079 238.859C670.259 233.468 667.128 227.687 663.188 222.966C656.247 214.635 657.087 192.411 656.667 186.58C656.377 182.54 651.096 173.708 644.825 167.607C642.044 164.897 639.064 162.716 636.243 161.746C627.082 158.576 614.58 158.236 612.589 154.625C611.129 151.975 600.768 146.034 590.746 141.083C599.427 142.313 608.799 146.414 613.34 151.155C618.3 156.335 619.751 148.074 640.984 158.526C643.895 159.966 646.465 161.306 648.715 162.596C667.428 173.278 664.938 179.389 666.058 188.871C667.318 199.492 677.94 216.375 682.931 230.277C686.211 239.399 684.921 246.71 684.531 254.731C686.952 266.343 689.352 279.665 688.462 283.886Z" fill="#8E5444"/>
<path d="M479.828 195.932C480.258 196.282 480.828 196.702 480.978 196.872L481.328 197.202L481.488 197.412C481.558 197.532 481.508 197.572 481.478 197.632L481.378 197.802L480.978 198.472L480.188 199.832C479.668 200.742 479.168 201.663 478.688 202.583C477.718 204.413 476.807 206.283 476.137 208.094C475.817 208.964 475.527 209.924 475.497 210.504C475.487 210.574 475.467 210.674 475.467 210.724C475.477 210.744 475.487 210.774 475.477 210.794C475.477 210.834 475.447 210.814 475.467 210.914L475.587 211.344C475.737 211.914 475.877 212.484 475.987 213.044C476.467 215.305 476.717 217.575 476.687 219.915C476.677 221.086 476.607 222.266 476.387 223.466C476.177 224.666 475.877 225.896 475.227 227.097C474.467 228.437 473.857 229.007 473.287 229.907C472.707 230.747 472.187 231.627 471.707 232.518C470.706 234.298 469.986 236.228 469.506 238.218C469.056 240.219 468.916 242.319 469.116 244.439V244.449C469.136 244.639 468.996 244.8 468.806 244.82C468.646 244.84 468.506 244.74 468.456 244.589C467.736 242.499 467.456 240.219 467.566 237.958C467.706 235.688 468.236 233.448 469.026 231.307C469.426 230.237 469.906 229.207 470.436 228.197C470.926 227.217 471.687 226.096 471.887 225.506C472.457 223.986 472.577 221.986 472.417 220.035C472.347 219.055 472.207 218.055 472.027 217.065C471.867 216.075 471.657 215.085 471.397 214.115C471.277 213.634 471.136 213.154 470.986 212.694L470.876 212.354C470.826 212.194 470.766 211.904 470.726 211.674C470.686 211.434 470.646 211.184 470.616 210.944C470.606 210.724 470.616 210.554 470.626 210.354C470.666 208.774 471.026 207.653 471.367 206.483C472.107 204.223 473.057 202.193 474.047 200.192C474.557 199.202 475.087 198.222 475.617 197.262L476.447 195.822L476.867 195.101L476.977 194.921C477.007 194.861 477.037 194.791 477.177 194.791L477.448 194.831L477.908 194.991C478.128 195.041 478.768 195.351 479.268 195.592C479.468 195.672 479.668 195.802 479.828 195.932Z" fill="#AF7464"/>
<path opacity="0.61" d="M688.462 283.886C686.801 291.877 677.91 304.549 673.189 309.32C671.539 310.98 669.389 312.141 666.998 313.371L665.138 309.32L666.458 298.458C666.128 298.408 665.798 298.348 665.458 298.258C661.377 297.218 658.997 294.488 657.637 291.247C658.847 285.746 660.117 280.055 661.387 274.554C659.817 274.604 658.217 274.664 656.637 274.724C649.615 274.984 643.214 275.094 642.904 272.634C642.284 267.633 629.152 252.621 629.782 240.749C630.402 228.877 616.03 212.614 612.279 210.754C608.929 209.074 597.067 200.892 588.786 199.182C593.086 197.812 597.647 195.522 601.908 191.791C616.21 179.289 630.642 178.999 637.453 173.038C640.274 170.578 642.834 169.117 644.825 167.607C646.665 166.227 648.035 164.827 648.695 162.596C667.408 173.278 664.918 179.389 666.038 188.87C667.298 199.492 677.92 216.375 682.911 230.277C686.191 239.399 684.901 246.71 684.511 254.731C686.951 266.343 689.352 279.665 688.462 283.886Z" fill="#8E5444"/>
<path d="M680.06 279.055C679.56 289.627 674.029 299.489 666.448 298.458C666.118 298.408 665.788 298.348 665.448 298.258C661.367 297.218 658.987 294.488 657.627 291.247C654.676 284.206 656.627 274.725 656.627 274.725C656.627 274.725 659.467 261.973 665.148 258.352C667.138 257.082 669.489 256.932 672.179 258.882C672.859 259.362 673.559 259.982 674.279 260.752C678.7 265.463 680.38 272.394 680.06 279.055Z" fill="#F4BD8C" stroke="#F4BD8C" stroke-width="0.816" stroke-miterlimit="10" stroke-linecap="round"/>
<path opacity="0.66" d="M638.714 194.722C638.714 194.722 613.73 185.2 616.79 191.311C619.851 197.422 628.732 202.703 627.622 206.313C626.512 209.924 617.38 201.873 616.53 203.533C615.68 205.193 635.403 226.867 635.403 233.818C635.403 240.759 634.843 251.241 644.295 253.781C653.736 256.322 641.234 243.259 642.624 235.478C644.015 227.697 645.885 241.229 650.366 242.799C654.846 244.37 650.406 222.696 645.955 217.695C641.514 212.694 647.945 208.704 652.226 219.316C656.507 229.927 659.567 233.348 660.117 227.187C660.667 221.026 647.305 178.249 639.684 178.799C632.063 179.359 643.695 191.741 638.714 194.722Z" fill="#AF7464" stroke="#AF7464" stroke-width="0.6754" stroke-miterlimit="10"/>
<path d="M574.573 311.391C573.663 311.251 573.133 311.921 572.843 312.591C572.523 313.281 572.363 314.071 572.223 314.871C572.103 315.671 571.983 316.481 571.923 317.302C571.823 318.122 571.783 318.942 571.723 319.792C571.463 323.203 571.163 326.603 570.753 329.994C570.363 333.384 569.882 336.775 569.252 340.145C568.942 341.836 568.592 343.516 568.152 345.186C567.932 346.026 567.702 346.856 567.422 347.687C567.122 348.517 566.852 349.337 566.182 350.137C566.042 350.307 565.782 350.327 565.612 350.187C565.452 350.057 565.422 349.827 565.532 349.657L565.572 349.597C565.942 349.037 566.142 348.167 566.342 347.376C566.542 346.566 566.692 345.746 566.822 344.906C567.092 343.246 567.302 341.566 567.522 339.885C567.942 336.525 568.292 333.144 568.642 329.764C568.972 326.383 569.332 323.003 569.612 319.622C569.762 317.902 570.022 316.141 570.643 314.451C570.953 313.611 571.353 312.761 571.983 312.031C572.313 311.681 572.703 311.351 573.183 311.191C573.693 311.021 574.243 311.101 574.573 311.391Z" fill="#D8A275"/>
<path d="M535.217 314.101C533.927 313.071 532.616 312.03 531.246 311.52C530.566 311.27 529.946 311.27 529.556 311.55C529.136 311.86 528.856 312.411 528.766 313.081C528.666 313.741 528.726 314.491 528.866 315.241C528.966 315.991 529.186 316.741 529.406 317.491C529.876 318.992 530.456 320.482 531.146 321.932C531.836 323.382 532.596 324.763 533.517 326.133L536.167 330.243C537.917 333.004 539.658 335.764 541.328 338.595C539.278 336.044 537.297 333.434 535.327 330.814L532.396 326.863C531.386 325.583 530.516 324.122 529.736 322.652C528.966 321.172 528.236 319.662 527.726 318.031C527.246 316.401 526.785 314.711 527.126 312.801C527.296 311.88 527.756 310.81 528.756 310.25C529.256 309.98 529.846 309.85 530.366 309.92C530.636 309.94 530.876 310 531.106 310.09C531.346 310.16 531.556 310.27 531.756 310.38C532.566 310.82 533.207 311.41 533.767 312.04C534.337 312.681 534.827 313.361 535.217 314.101Z" fill="#D8A275"/>
<path d="M501.771 325.423C501.771 325.423 470.376 338.545 457.594 363.829C444.812 389.113 422.309 412.447 413.147 420.228C403.986 428.009 401.205 454.674 424.539 453.014C447.873 451.353 461.765 435.111 461.765 428.51C461.765 421.898 463.275 374.971 469.746 363.279C476.507 351.057 503.052 324.853 501.771 325.423Z" fill="url(#paint5_linear_4614_301333)" stroke="#AED0ED" stroke-width="0.816" stroke-miterlimit="10" stroke-linecap="round"/>
<g opacity="0.18">
<path opacity="0.18" d="M490.1 311.541C477.598 314.531 467.876 327.163 460.365 335.225C452.864 343.276 445.092 361.059 439.531 367.45C433.97 373.841 395.354 391.334 389.253 386.893C385.293 384.012 374.241 376.601 366.34 371.26C401.325 370.43 438.531 358.698 447.963 335.895C455.834 316.892 477.738 310.19 494.33 307.9C494.53 309.42 493.27 310.781 490.1 311.541Z" fill="white"/>
<path opacity="0.18" d="M490.2 311.931C487.009 312.701 483.999 314.111 481.208 315.871C478.418 317.632 475.847 319.732 473.417 321.982C468.566 326.493 464.255 331.614 459.775 336.515C457.634 339.025 455.794 341.796 454.044 344.606C452.293 347.427 450.633 350.307 448.983 353.197C447.333 356.088 445.692 358.988 443.942 361.839C443.072 363.269 442.152 364.669 441.162 366.03C440.932 366.38 440.652 366.7 440.381 367.03C440.111 367.36 439.871 367.7 439.551 368C438.951 368.64 438.281 369.15 437.601 369.66C434.881 371.66 431.96 373.301 429.02 374.881C426.069 376.451 423.069 377.911 420.028 379.292C413.947 382.032 407.736 384.533 401.305 386.393C399.695 386.843 398.065 387.263 396.414 387.563C394.754 387.853 393.074 388.103 391.334 387.943C390.483 387.923 389.533 387.573 388.803 387.073L386.743 385.663L382.622 382.852L366.119 371.6L365.059 370.88L366.329 370.85C378.781 370.6 391.254 369.11 403.325 365.97C406.346 365.189 409.336 364.289 412.277 363.269C415.227 362.259 418.138 361.129 420.968 359.839C426.649 357.288 432.1 354.138 436.891 350.147C441.682 346.176 445.722 341.206 448.103 335.425C450.643 329.714 454.614 324.633 459.595 320.852L461.465 319.442C462.095 318.982 462.775 318.592 463.425 318.162C464.715 317.282 466.126 316.592 467.486 315.821C470.276 314.421 473.147 313.171 476.097 312.151C479.028 311.071 482.048 310.26 485.079 309.46C488.119 308.7 491.18 308.09 494.26 307.5L494.67 307.42L494.72 307.85C494.8 308.44 494.66 309.08 494.34 309.58C494.02 310.08 493.59 310.461 493.13 310.761C492.22 311.361 491.21 311.681 490.2 311.931ZM490.01 311.141C490.97 310.901 491.91 310.591 492.71 310.08C493.1 309.83 493.45 309.52 493.67 309.15C493.91 308.79 493.98 308.38 493.94 307.96L494.4 308.31C488.209 308.93 482.038 310.14 476.137 312.191C470.216 314.171 464.575 317.052 459.655 320.892C454.694 324.683 450.753 329.774 448.253 335.475C447.033 338.355 445.492 341.105 443.562 343.576C441.652 346.056 439.441 348.297 437.051 350.307C432.26 354.348 426.799 357.518 421.108 360.109C418.268 361.419 415.357 362.569 412.397 363.589C409.446 364.619 406.456 365.539 403.425 366.34C391.334 369.56 378.862 371.27 366.349 371.66L366.57 370.91L383.082 382.172L387.213 384.993L389.273 386.403C389.923 386.833 390.583 387.083 391.404 387.123C392.984 387.273 394.634 387.043 396.254 386.753C397.875 386.463 399.485 386.053 401.075 385.603C407.446 383.772 413.627 381.272 419.688 378.552C422.709 377.171 425.709 375.731 428.63 374.161C431.55 372.591 434.451 370.95 437.101 369.01C437.751 368.51 438.401 368.01 438.951 367.43C439.241 367.16 439.481 366.82 439.741 366.51C439.991 366.19 440.261 365.88 440.492 365.539C441.462 364.209 442.372 362.819 443.232 361.409C444.972 358.578 446.602 355.678 448.253 352.787C449.903 349.897 451.563 347.006 453.334 344.166C455.104 341.336 456.954 338.535 459.145 335.975C463.645 331.044 467.936 325.943 472.847 321.372C475.297 319.102 477.908 316.972 480.758 315.171C483.619 313.391 486.709 311.931 490.01 311.141Z" fill="white"/>
</g>
<path opacity="0.57" d="M504.852 489.8C502.922 489.59 501.111 489.16 499.511 488.429C486.499 482.558 503.712 472.787 489.78 450.293C487.439 446.513 481.328 442.292 478.988 441.092C482.648 440.492 493.12 443.212 498.461 454.674C503.822 466.206 504.952 480.398 504.852 489.8Z" fill="#86AFCE"/>
<path opacity="0.57" d="M740.45 493.13C720.967 526.536 720.957 522.735 720.957 522.735C720.957 522.735 714.266 511.403 705.004 497.291C710.845 489.61 720.757 474.947 726.778 457.174C732.559 440.112 726.268 407.326 721.087 386.263C726.948 390.054 732.029 395.564 736.23 401.715C746.981 417.408 759.943 459.725 740.45 493.13Z" fill="#C96B4B"/>
<path opacity="0.18" d="M695.413 390.433C695.413 390.433 662.758 424.539 673.149 438.921C683.541 453.304 686.661 426.179 695.413 421.918C704.164 417.658 717.336 381.932 695.413 390.433Z" fill="white" stroke="white" stroke-width="0.816" stroke-miterlimit="10"/>
<path d="M536.217 747.021C515.524 741.69 499.891 735.629 499.491 731.789C498.941 726.558 509.533 679.3 514.114 635.463C515.064 658.617 516.034 688.952 521.735 707.725C526.826 724.467 531.486 737.61 536.217 747.021Z" fill="#D36B4F"/>
<g opacity="0.45">
<path opacity="0.45" d="M585.535 388.933C590.676 394.564 595.397 400.495 600.037 406.476C604.658 412.477 609.099 418.598 613.41 424.799C617.73 431.01 621.901 437.311 625.832 443.792C626.812 445.412 627.782 447.043 628.732 448.683L631.523 453.654C633.303 457.024 635.143 460.325 636.533 463.985L635.933 464.285C631.122 458.475 626.302 452.594 621.781 446.553C617.22 440.522 612.879 434.351 608.639 428.09C604.398 421.839 600.267 415.508 596.297 409.077C592.356 402.615 588.466 396.114 584.985 389.333L585.535 388.933Z" fill="white"/>
</g>
<g opacity="0.26">
<path opacity="0.26" d="M532.926 315.231C535.307 317.702 537.607 320.232 539.848 322.822C542.088 325.413 544.288 328.023 546.429 330.694C548.589 333.344 550.669 336.065 552.68 338.835C554.66 341.636 556.62 344.456 558.231 347.536C558.331 347.737 558.261 347.987 558.06 348.087C557.89 348.177 557.68 348.137 557.56 347.997L557.55 347.987C553.09 342.836 548.719 337.595 544.538 332.204C542.418 329.524 540.348 326.813 538.297 324.083C536.247 321.352 534.237 318.582 532.296 315.761C532.166 315.571 532.216 315.321 532.396 315.191C532.566 315.061 532.786 315.091 532.926 315.231Z" fill="white"/>
</g>
<g opacity="0.23">
<path opacity="0.23" d="M575.243 319.932L576.164 322.982C576.484 324.022 576.784 325.073 577.074 326.123C577.684 328.213 578.214 330.323 578.774 332.434C579.834 336.664 580.794 340.915 581.624 345.196C582.445 349.477 583.245 353.777 583.655 358.138C584.075 362.489 584.355 366.899 583.855 371.31C583.825 371.54 583.625 371.7 583.395 371.67C583.215 371.65 583.075 371.51 583.035 371.35C582.074 367.079 581.224 362.859 580.404 358.608C579.564 354.367 578.904 350.097 578.164 345.826C577.434 341.555 576.744 337.275 576.063 332.984C575.753 330.834 575.413 328.683 575.133 326.523C574.993 325.443 574.843 324.362 574.723 323.282C574.663 322.742 574.593 322.202 574.543 321.652C574.493 321.102 574.433 320.572 574.413 319.932C574.403 319.712 574.583 319.532 574.803 319.522C574.983 319.512 575.143 319.632 575.193 319.802L575.243 319.932Z" fill="white"/>
</g>
<path d="M521.225 272.514C520.194 275.025 517.744 276.815 514.864 276.835C514.294 276.835 513.733 276.765 513.203 276.645L513.153 276.625C510.133 275.895 507.262 275.115 504.352 274.294C501.451 273.474 498.551 272.624 495.66 271.704C492.77 270.764 489.89 269.784 487.019 268.664C485.579 268.073 484.149 267.493 482.698 266.783C481.608 266.273 480.508 265.663 479.388 264.913C479.808 264.843 480.248 264.873 480.648 265.023L481.158 265.213L481.958 265.503L482.338 265.653L482.808 265.783C483.449 265.943 484.029 266.123 484.739 266.253C486.059 266.543 487.469 266.733 488.849 266.943C491.67 267.303 494.54 267.543 497.411 267.723C500.301 267.903 503.202 268.023 506.102 268.113C508.993 268.193 511.933 268.233 514.764 268.223C517.674 268.173 520.184 269.964 521.225 272.514Z" fill="#844D3E"/>
<path d="M591.906 260.743C591.616 260.943 591.316 261.133 591.016 261.323C589.436 262.323 587.835 263.203 586.225 264.053C583.015 265.733 579.754 267.234 576.474 268.664C573.203 270.084 569.892 271.434 566.582 272.734C563.251 274.035 559.961 275.265 556.52 276.475L556.51 276.485C555.47 276.855 554.4 276.955 553.38 276.815C553.27 276.595 553.17 276.355 553.09 276.115C551.83 272.524 553.73 268.594 557.32 267.334C557.79 267.164 558.311 267.044 558.791 266.994C562.111 266.603 565.572 266.103 568.962 265.583C572.363 265.063 575.753 264.483 579.114 263.833C582.475 263.173 585.825 262.443 589.076 261.573C590.026 261.303 590.976 261.043 591.906 260.743Z" fill="#844D3E"/>
<path d="M754.812 507.042C757.343 521.635 759.233 536.297 760.953 550.969L762.194 561.981L763.284 573.003C764.024 580.354 764.674 587.705 765.264 595.067C766.474 609.789 767.374 624.531 767.845 639.304L768.085 650.396C768.155 654.096 768.105 657.797 768.125 661.497C768.115 665.198 767.985 668.909 767.905 672.609C767.755 676.31 767.555 680.02 767.265 683.721C766.704 680.04 766.294 676.37 765.824 672.699C765.394 669.029 764.924 665.358 764.534 661.687C763.674 654.346 762.964 647.015 762.204 639.674C760.783 624.991 759.623 610.289 758.613 595.567L757.873 584.525L757.223 573.473L756.583 562.421L756.053 551.36C755.373 536.617 754.822 521.855 754.812 507.042Z" fill="#A34C34"/>
<path d="M498.851 501.461C502.992 512.963 506.612 524.605 510.023 536.327C510.873 539.257 511.673 542.198 512.483 545.148C513.283 548.099 514.083 551.039 514.804 554.02C515.544 556.99 516.234 559.981 516.844 563.051L517.224 565.482L517.404 567.862C517.474 569.412 517.554 570.962 517.594 572.493C517.764 578.634 517.794 584.745 517.664 590.856C517.614 593.916 517.534 596.967 517.434 600.017C517.304 603.068 517.184 606.118 517.004 609.179C516.704 615.28 516.194 621.381 515.554 627.462C514.884 633.543 514.103 639.624 512.733 645.605C512.683 645.825 512.463 645.965 512.243 645.915C512.043 645.865 511.903 645.675 511.923 645.475C512.533 639.424 512.793 633.353 512.993 627.282C513.203 621.211 513.273 615.14 513.343 609.059C513.403 596.917 513.383 584.735 512.983 572.653C512.843 569.642 512.783 566.602 512.263 563.891C511.713 560.981 511.063 558.03 510.363 555.08C508.963 549.179 507.592 543.258 506.132 537.347C503.312 525.505 500.491 513.653 498.051 501.681C498.001 501.461 498.151 501.241 498.371 501.201C498.581 501.151 498.781 501.271 498.851 501.461Z" fill="#D36B4F"/>
<path d="M596.327 387.603C601.878 385.042 607.249 382.202 612.479 379.132C613.8 378.391 615.06 377.541 616.35 376.761C617.66 376.001 618.9 375.131 620.161 374.301L622.051 373.051L623.891 371.73C625.111 370.84 626.392 370.03 627.552 369.06C632.383 365.439 636.863 361.389 641.104 357.108C645.375 352.817 649.015 348.016 652.576 343.016C651.916 344.386 651.216 345.756 650.516 347.126C650.156 347.806 649.825 348.507 649.415 349.157L648.155 351.087L646.875 353.007C646.435 353.637 646.045 354.317 645.535 354.898L642.614 358.488L641.874 359.378L641.074 360.208L639.464 361.869L637.854 363.539C637.323 364.109 636.713 364.579 636.143 365.099C634.983 366.119 633.843 367.16 632.673 368.16C631.473 369.12 630.232 370.05 629.012 370.99C627.812 371.96 626.502 372.77 625.252 373.671L623.341 374.971L621.371 376.181C618.77 377.831 616.08 379.312 613.35 380.722C607.879 383.492 602.208 385.923 596.327 387.603Z" fill="#A34C34"/>
<path d="M509.293 318.172C508.863 318.842 508.833 319.582 508.883 320.262C508.893 320.602 509.003 320.952 509.053 321.292C509.183 321.632 509.233 321.972 509.383 322.302C509.873 323.643 510.563 324.953 511.363 326.213C511.753 326.843 512.143 327.483 512.603 328.093C513.023 328.713 513.453 329.344 513.924 329.944C514.794 331.194 515.774 332.374 516.644 333.664C515.424 332.714 514.234 331.714 513.163 330.594C512.613 330.044 512.093 329.464 511.603 328.864C511.093 328.273 510.633 327.643 510.183 326.993C509.713 326.363 509.363 325.643 508.953 324.963C508.623 324.233 508.283 323.503 508.103 322.693C507.993 322.302 507.953 321.872 507.903 321.472C507.923 321.042 507.863 320.632 507.983 320.212C508.123 319.382 508.553 318.522 509.293 318.172Z" fill="#D8A275"/>
<path d="M528.596 371.24C527.726 369.84 526.625 368.46 525.515 367.16C524.405 365.839 523.235 364.569 522.045 363.309C519.674 360.779 517.184 358.418 514.674 355.938C512.183 353.457 509.813 350.837 507.702 348.007C506.642 346.596 505.662 345.126 504.802 343.576C504.382 342.796 503.992 342.006 503.672 341.175C503.362 340.355 503.072 339.475 503.142 338.595C503.222 339.475 503.632 340.255 504.012 341.015C504.422 341.776 504.902 342.496 505.402 343.206C506.392 344.626 507.502 345.956 508.623 347.266C510.903 349.867 513.343 352.337 515.864 354.718C518.404 357.068 520.975 359.528 523.305 362.169C525.615 364.839 527.836 367.59 529.346 370.92C529.436 371.12 529.346 371.36 529.146 371.46C528.956 371.54 528.736 371.48 528.636 371.3L528.596 371.24Z" fill="#D8A275"/>
<path d="M512.523 374.931C516.084 377.811 519.774 380.452 523.575 382.922C524.535 383.532 525.475 384.162 526.445 384.743L529.346 386.503C531.316 387.613 533.277 388.733 535.287 389.773C536.277 390.313 537.287 390.824 538.307 391.294L541.358 392.764C543.438 393.634 545.458 394.644 547.579 395.444C551.73 397.255 556.04 398.615 560.361 400.225C555.8 399.755 551.249 398.815 546.889 397.315C542.498 395.894 538.277 393.974 534.237 391.764C530.166 389.593 526.295 387.063 522.645 384.273C518.984 381.462 515.514 378.412 512.523 374.931Z" fill="#D8A275"/>
<path d="M488.809 448.633C486.979 446.342 484.659 444.532 482.108 443.652C480.828 443.232 479.518 443.062 478.208 443.112C476.907 443.182 475.617 443.492 474.367 443.962C471.877 444.922 469.576 446.492 467.436 448.273L464.035 451.063C462.855 451.963 461.675 452.863 460.475 453.724C455.604 457.114 450.403 460.025 444.922 462.235C442.172 463.325 439.391 464.315 436.521 465.025C433.67 465.756 430.74 466.296 427.799 466.316C430.67 465.755 433.42 464.815 436.121 463.785C438.811 462.735 441.452 461.565 444.022 460.255C449.193 457.704 454.074 454.634 458.704 451.263C459.855 450.413 460.985 449.533 462.115 448.643C463.235 447.713 464.265 446.822 465.456 445.852C467.786 443.912 470.456 442.242 473.497 441.312C476.497 440.331 480.038 440.451 482.848 441.952C485.659 443.432 487.709 445.912 488.809 448.633Z" fill="#88B0CF"/>
<path d="M215.255 481.648C214.655 482.268 214.045 482.878 213.435 483.488C198.822 497.881 180.419 507.502 159.686 510.163C155.345 510.723 151.045 510.963 146.814 510.893C136.842 510.763 127.201 508.952 118.089 505.682C80.103 492.05 51.2283 452.913 44.7873 402.925L44.7673 402.745C44.6272 401.655 44.4972 400.595 44.3972 399.525C44.3572 399.245 44.3272 398.975 44.3072 398.705C43.5371 391.403 43.267 384.362 43.457 377.631C43.6571 370.96 44.3072 364.569 45.4174 358.508C47.6777 346.026 51.8184 334.884 57.6594 325.233C61.58 318.742 66.2708 312.941 71.6716 307.87C73.3819 306.26 75.1522 304.729 77.0025 303.269C79.873 300.999 82.9134 298.908 86.114 296.998C97.2758 290.337 110.408 285.936 125.25 284.026C131.601 283.206 137.942 282.866 144.213 283.006C164.657 283.466 184.33 288.967 200.993 299.378C214.885 308.05 226.677 320.112 235.068 335.484C237.889 340.635 240.319 346.146 242.319 352.047C244.79 359.278 246.6 367.059 247.67 375.391C248.01 378.081 248.29 380.772 248.48 383.442C251.301 422.128 238.239 457.914 215.255 481.648Z" fill="#F9DDAF" stroke="#F9DDAF" stroke-width="0.6754" stroke-miterlimit="10"/>
<path d="M215.255 481.648C200.363 497.051 181.299 507.382 159.686 510.163C145.114 512.043 131.071 510.353 118.089 505.682C80.103 492.05 51.2283 452.913 44.7873 402.925L44.7673 402.745C44.6272 401.655 44.4972 400.595 44.3972 399.525C44.3572 399.245 44.3272 398.975 44.3072 398.705C43.5371 391.403 43.267 384.362 43.457 377.631C43.6571 370.96 44.3072 364.569 45.4174 358.508C47.6777 346.026 51.8184 334.884 57.6594 325.233C61.58 318.742 66.2708 312.941 71.6716 307.87C74.5721 351.347 79.4429 426.589 101.536 459.744C122.73 491.56 152.505 498.591 168.067 496.57C179.909 495.03 197.452 488.739 215.255 481.648Z" fill="#EFC5A8" stroke="#EFC5A8" stroke-width="0.816" stroke-miterlimit="10" stroke-linecap="round"/>
<path d="M108.898 391.583C108.438 391.583 107.978 391.493 107.527 391.313C105.647 390.553 104.737 388.423 105.487 386.533C113.238 367.249 133.822 367.54 134.682 367.57C136.712 367.62 138.312 369.31 138.262 371.33C138.212 373.35 136.532 374.921 134.512 374.911C133.822 374.901 118.119 374.791 112.298 389.273C111.728 390.713 110.358 391.583 108.898 391.583Z" fill="#BC8535"/>
<path d="M214.065 372.241C213.115 372.241 212.154 371.871 211.444 371.14C201.963 361.449 188.561 365.079 187.991 365.24C186.04 365.79 184.01 364.659 183.46 362.719C182.9 360.769 184.02 358.748 185.96 358.188C186.69 357.978 204.083 353.128 216.685 366.01C218.105 367.46 218.075 369.78 216.625 371.201C215.925 371.891 214.995 372.241 214.065 372.241Z" fill="#BC8535"/>
<path d="M174.468 396.944C174.468 396.944 184.05 407.716 187.39 410.917C190.721 414.117 187.39 420.118 179.059 421.908C179.059 421.908 170.098 423.699 171.138 417.448C172.178 411.197 175.098 410.987 177.389 411.197C179.669 411.407 171.758 397.694 174.468 396.944Z" fill="#EDC488" stroke="#EDC488" stroke-width="0.6754" stroke-miterlimit="10"/>
<path d="M166.797 459.745C162.336 469.446 147.354 477.058 142.233 470.787C141.523 469.927 141.143 468.986 141.043 468.026C140.043 458.825 164.187 446.063 164.187 446.063C168.677 450.293 168.867 455.254 166.797 459.745Z" fill="#D88B64" stroke="#F4BD8C" stroke-width="0.6754" stroke-miterlimit="10"/>
<path d="M166.797 459.745C162.336 469.446 147.354 477.057 142.233 470.786C141.523 469.926 141.143 468.986 141.043 468.026C145.014 461.975 160.076 460.225 166.797 459.745Z" fill="#D6967B"/>
<path opacity="0.1" d="M121.347 442.998C130.57 441.743 137.376 435.797 136.549 429.716C135.722 423.635 127.575 419.722 118.352 420.977C109.129 422.231 102.323 428.178 103.15 434.259C103.977 440.34 112.125 444.253 121.347 442.998Z" fill="#A02249"/>
<path opacity="0.1" d="M222.19 425.943C231.014 424.743 237.53 419.093 236.745 413.324C235.96 407.555 228.172 403.851 219.348 405.051C210.525 406.252 204.009 411.902 204.793 417.671C205.578 423.44 213.367 427.143 222.19 425.943Z" fill="#A02249"/>
<path opacity="0.43" d="M215.255 481.648C200.363 497.051 181.299 507.383 159.686 510.163C155.345 510.723 151.045 510.963 146.814 510.893C154.415 507.573 162.486 503.942 171.038 499.961C269.024 454.384 245.9 364.849 235.088 335.485C241.359 346.957 245.75 360.279 247.69 375.391C248.03 378.082 248.31 380.772 248.5 383.442C251.301 422.129 238.239 457.915 215.255 481.648Z" fill="#EFC5A8" stroke="#EFC5A8" stroke-width="0.816" stroke-miterlimit="10" stroke-linecap="round"/>
<path opacity="0.51" d="M78.3427 672.839C78.3427 672.839 96.0956 719.477 119.859 740.99C143.633 762.504 181.79 777.796 220.776 760.003C238.389 751.962 277.815 702.654 269.484 650.065C261.152 597.477 220.776 674.989 220.776 674.989C220.776 674.989 199.562 703.624 197.852 701.394C196.142 699.163 153.925 675.83 153.925 675.83L78.3427 672.839Z" fill="#474772"/>
<path d="M293.108 566.672C292.908 567.562 292.657 569.002 292.327 570.943C292.327 570.943 292.317 570.953 292.317 570.963C287.367 599.407 266.023 733.139 201.943 749.402C155.655 761.153 94.4553 702.794 63.2002 650.075C59.9397 644.585 58.0294 639.374 57.1893 634.503C51.1183 599.267 101.306 581.004 109.718 593.096C116.539 602.898 144.163 642.334 166.727 661.857C175.839 669.749 184.13 674.389 189.881 672.509C198.712 669.619 240.699 594.716 255.721 569.462C256.432 568.272 257.072 567.182 257.662 566.222C258.382 565.042 259.132 563.981 259.902 563.061C267.063 554.45 276.305 556.34 283.216 559.811C288.977 562.691 293.108 566.672 293.108 566.672Z" fill="#F9DDAF" stroke="#F9DDAF" stroke-width="0.6754" stroke-miterlimit="10"/>
<path d="M300.649 555.4C297.088 561.241 294.388 566.542 292.327 570.943C292.327 570.943 292.317 570.953 292.317 570.963C288.887 578.284 287.267 583.105 286.557 583.815C286.056 584.315 279.665 584.205 272.744 583.315C267.733 582.675 262.443 581.614 258.912 580.094C256.202 578.924 254.521 577.494 254.781 575.744C254.781 575.744 255.181 573.293 255.732 569.463C256.162 566.392 256.702 562.441 257.202 558.161C257.202 558.161 257.202 558.161 257.202 558.151C258.462 547.269 259.512 534.247 258.262 528.046C255.912 516.354 243.51 473.567 248.97 473.097C254.441 472.627 257.602 483.229 257.792 484.509C257.982 485.779 257.612 477.378 261.913 477.828C267.974 478.468 272.814 516.164 275.465 520.995C278.115 525.815 285.066 535.547 292.117 532.577C301.489 528.616 307.08 507.943 310.96 509.983C311.091 510.053 311.211 510.143 311.321 510.273C314.541 513.823 310.29 539.528 300.649 555.4Z" fill="#F9DDAF"/>
<path d="M300.769 555.47C297.728 560.501 294.978 565.692 292.497 571.023L292.457 571.073C292.487 571.043 292.507 570.993 292.507 570.953L292.487 571.033C291.327 573.543 290.227 576.073 289.167 578.634C288.637 579.914 288.117 581.194 287.557 582.464C287.417 582.785 287.267 583.105 287.097 583.415C286.997 583.575 286.927 583.725 286.787 583.895C286.747 583.975 286.607 584.055 286.486 584.115C286.386 584.155 286.296 584.165 286.196 584.195C285.466 584.325 284.786 584.335 284.086 584.355C281.296 584.385 278.535 584.195 275.775 583.935C273.014 583.665 270.264 583.305 267.533 582.805C264.803 582.294 262.083 581.674 259.462 580.664C258.162 580.144 256.862 579.554 255.752 578.594C255.211 578.114 254.711 577.504 254.511 576.734C254.401 576.353 254.421 575.933 254.471 575.573L254.621 574.543C255.491 569.082 256.122 563.581 256.842 558.101V558.141V558.13V558.111V558.091C257.452 552.77 257.962 547.429 258.242 542.088C258.382 539.417 258.462 536.737 258.402 534.077C258.352 531.396 258.122 528.786 257.472 526.175C255.061 515.734 252.291 505.362 250.051 494.86C248.95 489.609 247.85 484.339 247.41 478.958C247.32 477.607 247.27 476.257 247.48 474.887C247.62 474.237 247.74 473.437 248.49 472.977C248.9 472.777 249.26 472.837 249.601 472.837C249.951 472.867 250.301 472.927 250.641 473.037C252.001 473.477 253.051 474.467 253.911 475.517C254.761 476.587 255.451 477.767 256.042 478.978C256.632 480.198 257.122 481.458 257.532 482.738C257.632 483.058 257.732 483.388 257.822 483.708C257.862 483.868 257.912 484.038 257.942 484.209L257.992 484.469L258.002 484.519C257.902 484.599 258.262 484.409 257.652 484.499C257.622 484.569 257.652 484.469 257.652 484.449C257.712 483.798 257.782 483.108 257.902 482.448C258.142 481.128 258.492 479.748 259.392 478.648C259.842 478.108 260.502 477.697 261.222 477.617C261.582 477.577 261.933 477.587 262.293 477.687C262.653 477.797 262.943 478.018 263.213 478.238C264.243 479.198 264.843 480.448 265.413 481.658C265.963 482.888 266.423 484.159 266.853 485.429C267.693 487.979 268.394 490.58 269.034 493.18C270.314 498.391 271.384 503.652 272.484 508.903C273.034 511.523 273.584 514.153 274.225 516.754C274.555 518.044 274.875 519.364 275.395 520.584C275.995 521.765 276.725 522.905 277.455 524.015C278.975 526.215 280.666 528.326 282.716 530.046C283.726 530.926 284.846 531.666 286.056 532.226C287.257 532.816 288.617 533.066 289.937 532.986C291.277 532.926 292.547 532.366 293.668 531.666C294.798 530.946 295.798 530.046 296.718 529.076C298.558 527.125 300.069 524.895 301.479 522.615C302.889 520.334 304.159 517.964 305.48 515.634C306.14 514.473 306.82 513.303 307.58 512.203C307.97 511.653 308.36 511.113 308.84 510.633C309.31 510.183 309.9 509.703 310.61 509.773C310.77 509.833 310.94 509.863 311.09 509.963C311.241 510.053 311.351 510.183 311.441 510.333C311.661 510.603 311.781 510.913 311.901 511.233C312.121 511.873 312.231 512.543 312.311 513.203C312.461 514.543 312.451 515.884 312.391 517.224C312.271 519.904 311.911 522.575 311.451 525.215C310.51 530.496 309.16 535.717 307.41 540.788C305.66 545.899 303.529 550.859 300.769 555.47ZM300.529 555.33C303.299 550.749 305.45 545.809 307.22 540.758C308.98 535.697 310.36 530.506 311.321 525.225C311.791 522.585 312.161 519.924 312.291 517.254C312.351 515.914 312.371 514.573 312.231 513.243C312.151 512.583 312.051 511.913 311.831 511.283C311.711 510.973 311.591 510.663 311.381 510.403C311.291 510.263 311.18 510.143 311.04 510.053C310.9 509.963 310.74 509.933 310.59 509.873C309.92 509.793 309.33 510.253 308.87 510.703C308.39 511.173 307.99 511.713 307.6 512.253C306.84 513.353 306.16 514.513 305.49 515.674C304.159 518.004 302.869 520.354 301.479 522.645C300.079 524.935 298.568 527.165 296.738 529.136C295.818 530.116 294.818 531.026 293.688 531.746C292.557 532.456 291.287 533.036 289.927 533.096C288.587 533.186 287.217 532.946 286.006 532.346C284.786 531.786 283.646 531.046 282.626 530.166C280.556 528.446 278.855 526.325 277.315 524.125C276.565 523.005 275.845 521.885 275.225 520.674C274.695 519.424 274.365 518.124 274.024 516.824C273.374 514.223 272.814 511.593 272.254 508.973C271.134 503.732 270.034 498.471 268.734 493.28C268.084 490.68 267.373 488.099 266.523 485.559C266.093 484.289 265.633 483.038 265.083 481.828C264.523 480.638 263.903 479.408 262.953 478.528C262.033 477.587 260.422 477.907 259.652 478.908C258.842 479.908 258.492 481.238 258.272 482.528C258.162 483.188 258.102 483.838 258.032 484.519C258.022 484.579 258.042 484.569 257.982 484.719C257.332 484.859 257.692 484.569 257.582 484.629L257.572 484.559L257.522 484.319L257.402 483.838C257.312 483.518 257.222 483.198 257.112 482.888C256.702 481.618 256.202 480.378 255.621 479.188C255.041 477.997 254.361 476.847 253.531 475.817C252.701 474.807 251.691 473.897 250.471 473.507C250.171 473.407 249.861 473.357 249.54 473.327C249.23 473.317 248.88 473.297 248.68 473.417C248.23 473.667 248.04 474.367 247.93 474.977C247.73 476.257 247.79 477.607 247.89 478.928C248.35 484.249 249.47 489.509 250.591 494.74C252.881 505.212 255.702 515.564 258.172 526.015C258.842 528.616 259.112 531.376 259.152 534.057C259.202 536.757 259.112 539.447 258.962 542.128C258.662 547.499 258.132 552.84 257.512 558.171V558.13V558.141V558.161V558.181C256.772 563.671 256.122 569.172 255.241 574.633L255.081 575.663C255.041 575.983 255.021 576.263 255.101 576.563C255.251 577.144 255.651 577.664 256.142 578.094C257.132 578.954 258.392 579.544 259.652 580.054C262.203 581.044 264.893 581.674 267.603 582.194C270.314 582.714 273.044 583.095 275.795 583.375C278.535 583.645 281.296 583.855 284.046 583.845C284.726 583.835 285.426 583.825 286.066 583.715L286.276 583.665C286.306 583.635 286.346 583.655 286.386 583.585C286.476 583.485 286.557 583.325 286.637 583.195C286.797 582.905 286.947 582.594 287.087 582.274C287.647 581.024 288.177 579.734 288.717 578.464C289.797 575.913 290.917 573.383 292.097 570.873L292.077 570.953C292.077 570.903 292.107 570.833 292.137 570.803L292.097 570.853C294.658 565.532 297.448 560.341 300.529 555.33Z" fill="#F9DDAF"/>
<path opacity="0.18" d="M171.048 387.603C165.237 391.044 163.797 367.94 153.925 364.979C144.053 362.019 122.79 364.739 118.209 360.049C113.628 355.358 151.905 334.515 179.859 338.685C207.804 342.856 209.894 349.107 200.513 350.357C191.141 351.607 177.389 354.738 175.719 360.049C174.048 365.359 174.298 385.683 171.048 387.603Z" fill="white" stroke="white" stroke-width="0.816" stroke-miterlimit="10"/>
<path d="M300.649 555.4C297.088 561.241 294.388 566.542 292.327 570.943C292.327 570.943 292.317 570.953 292.317 570.963C287.367 599.407 266.023 733.139 201.943 749.402C155.655 761.154 94.4553 702.794 63.2003 650.075C59.9397 644.585 58.0294 639.374 57.1893 634.503C77.2725 638.104 101.186 643.604 106.537 650.075C116.119 661.667 154.455 718.337 184.79 721.707C205.483 724.008 225.337 707.815 237.809 686.401C245.67 672.909 263.493 612.329 272.744 583.325C275.595 574.383 277.395 568.252 277.395 567.072C277.395 565.342 279.865 562.781 283.226 559.821C289.627 554.18 299.229 547.109 301.149 541.648C303.259 535.597 308.87 521.005 311.321 510.273C314.541 513.823 310.29 539.528 300.649 555.4Z" fill="#EFC5A8" stroke="#EFC5A8" stroke-width="0.816" stroke-miterlimit="10" stroke-linecap="round"/>
<path d="M106.777 672.939C91.6449 685.191 77.6026 694.573 76.0324 692.113C72.3818 686.432 45.9075 633.713 51.1783 604.558C52.7586 595.787 56.4292 589.556 60.8799 585.345C66.8109 579.734 74.1621 577.694 79.873 577.954C102.817 578.984 140.843 617.22 146.144 629.982C148.504 635.663 126.701 656.807 106.777 672.939Z" fill="#A5A5E5"/>
<path opacity="0.18" d="M262.813 571.163C262.163 572.703 260.872 575.674 258.912 580.084C254.591 589.846 247.05 606.639 236.138 630.582C220.296 665.358 204.483 692.352 189.051 692.503C177.559 692.613 167.357 670.179 166.737 661.848C175.849 669.739 184.14 674.38 189.891 672.499C198.722 669.609 240.709 594.707 255.732 569.452C256.162 566.382 256.702 562.431 257.202 558.151C258.092 560.071 259.042 561.671 259.922 563.051C262.123 566.552 263.843 568.722 262.813 571.163Z" fill="white" stroke="white" stroke-width="0.816" stroke-miterlimit="10"/>
<path opacity="0.43" d="M213.435 483.489C198.822 497.881 180.419 507.503 159.686 510.163C155.345 510.723 151.045 510.963 146.814 510.893C136.842 510.763 127.201 508.953 118.089 505.682C80.103 492.05 51.2283 452.914 44.7873 402.926L44.7673 402.746C44.6272 401.655 44.4972 400.595 44.3972 399.525C44.3572 399.245 44.3272 398.975 44.3072 398.705C43.5371 391.404 43.267 384.363 43.457 377.632C43.6571 370.96 44.3072 364.569 45.4174 358.508C47.6777 346.026 51.8184 334.885 57.6594 325.233C61.58 318.742 66.2708 312.941 71.6716 307.87C73.3819 306.26 75.1522 304.73 77.0025 303.269C79.873 300.999 82.9134 298.909 86.114 296.998C86.034 330.914 86.8041 386.483 92.225 409.547C100.276 443.842 116.409 482.929 148.894 488.289C176.109 492.78 184.63 492.87 213.435 483.489Z" fill="#EFC5A8" stroke="#EFC5A8" stroke-width="0.816" stroke-miterlimit="10" stroke-linecap="round"/>
<g opacity="0.18">
<path opacity="0.18" d="M141.233 420.598C138.012 419.868 134.642 419.418 131.331 419.158C128.001 418.918 124.68 418.868 121.42 419.138C118.159 419.428 114.979 419.998 111.978 420.928C109.008 421.939 106.287 423.329 103.947 425.089L103.857 425.149C102.277 426.339 100.036 426.019 98.846 424.439C97.6558 422.859 97.9759 420.618 99.5562 419.428C99.6662 419.348 99.7862 419.268 99.8962 419.198C103.277 417.218 106.887 415.938 110.508 415.188C114.139 414.517 117.759 414.337 121.32 414.447C124.88 414.587 128.371 415.058 131.791 415.728C135.222 416.418 138.562 417.278 141.893 418.458C142.473 418.668 142.783 419.308 142.573 419.888C142.383 420.428 141.813 420.728 141.273 420.608L141.233 420.598Z" fill="white"/>
</g>
<g opacity="0.18">
<path opacity="0.18" d="M201.203 408.776C203.513 406.466 206.063 404.606 208.854 403.005C211.624 401.415 214.635 400.205 217.775 399.405L218.946 399.095C219.336 399.005 219.746 398.955 220.146 398.885C220.946 398.765 221.746 398.585 222.556 398.505C224.176 398.395 225.807 398.225 227.437 398.345C228.247 398.395 229.077 398.335 229.877 398.485L232.308 398.825C233.128 398.905 233.908 399.145 234.698 399.335L237.078 399.935C238.189 400.215 238.859 401.335 238.579 402.435C238.299 403.545 237.178 404.216 236.078 403.935C236.038 403.925 235.998 403.915 235.958 403.905L235.748 403.835L233.658 403.175C232.958 402.965 232.268 402.685 231.548 402.575L229.397 402.135C228.677 401.945 227.947 401.965 227.217 401.865C225.757 401.655 224.286 401.725 222.816 401.725C222.076 401.745 221.346 401.865 220.616 401.925C220.246 401.965 219.876 401.985 219.516 402.045L218.425 402.265C215.515 402.805 212.655 403.755 209.954 405.076C207.264 406.376 204.663 408.056 202.463 409.996L202.403 410.046C202.043 410.367 201.483 410.327 201.163 409.966C200.853 409.626 200.883 409.106 201.203 408.776Z" fill="white"/>
</g>
<path opacity="0.31" d="M159.876 414.257C160.412 414.257 160.846 413.823 160.846 413.287C160.846 412.751 160.412 412.317 159.876 412.317C159.34 412.317 158.906 412.751 158.906 413.287C158.906 413.823 159.34 414.257 159.876 414.257Z" fill="#D88B64"/>
<path opacity="0.31" d="M160.846 423.119C161.382 423.119 161.816 422.684 161.816 422.148C161.816 421.613 161.382 421.178 160.846 421.178C160.31 421.178 159.876 421.613 159.876 422.148C159.876 422.684 160.31 423.119 160.846 423.119Z" fill="#D88B64"/>
<path opacity="0.31" d="M166.407 428.53C166.943 428.53 167.377 428.095 167.377 427.559C167.377 427.024 166.943 426.589 166.407 426.589C165.871 426.589 165.437 427.024 165.437 427.559C165.437 428.095 165.871 428.53 166.407 428.53Z" fill="#D88B64"/>
<path opacity="0.31" d="M201.833 424.089C202.369 424.089 202.803 423.655 202.803 423.119C202.803 422.583 202.369 422.149 201.833 422.149C201.297 422.149 200.863 422.583 200.863 423.119C200.863 423.655 201.297 424.089 201.833 424.089Z" fill="#D88B64"/>
<path opacity="0.31" d="M166.407 418.718C166.943 418.718 167.377 418.284 167.377 417.748C167.377 417.212 166.943 416.778 166.407 416.778C165.871 416.778 165.437 417.212 165.437 417.748C165.437 418.284 165.871 418.718 166.407 418.718Z" fill="#D88B64"/>
<path opacity="0.31" d="M220.096 430.48C220.632 430.48 221.066 430.046 221.066 429.51C221.066 428.974 220.632 428.54 220.096 428.54C219.56 428.54 219.126 428.974 219.126 429.51C219.126 430.046 219.56 430.48 220.096 430.48Z" fill="#D88B64"/>
<path opacity="0.31" d="M149.324 432.94C149.86 432.94 150.294 432.506 150.294 431.97C150.294 431.435 149.86 431 149.324 431C148.788 431 148.354 431.435 148.354 431.97C148.354 432.506 148.788 432.94 149.324 432.94Z" fill="#D88B64"/>
<path opacity="0.31" d="M128.421 426.589C128.957 426.589 129.391 426.155 129.391 425.619C129.391 425.083 128.957 424.649 128.421 424.649C127.885 424.649 127.451 425.083 127.451 425.619C127.451 426.155 127.885 426.589 128.421 426.589Z" fill="#D88B64"/>
<path opacity="0.31" d="M192.101 413.277C192.637 413.277 193.071 412.843 193.071 412.307C193.071 411.771 192.637 411.337 192.101 411.337C191.565 411.337 191.131 411.771 191.131 412.307C191.131 412.843 191.565 413.277 192.101 413.277Z" fill="#D88B64"/>
<path opacity="0.31" d="M212.465 399.395C213 399.395 213.435 398.961 213.435 398.425C213.435 397.889 213 397.455 212.465 397.455C211.929 397.455 211.494 397.889 211.494 398.425C211.494 398.961 211.929 399.395 212.465 399.395Z" fill="#D88B64"/>
<path opacity="0.31" d="M201.833 405.666C202.369 405.666 202.803 405.232 202.803 404.696C202.803 404.16 202.369 403.726 201.833 403.726C201.297 403.726 200.863 404.16 200.863 404.696C200.863 405.232 201.297 405.666 201.833 405.666Z" fill="#D88B64"/>
<path opacity="0.31" d="M197.102 417.748C197.638 417.748 198.072 417.314 198.072 416.778C198.072 416.242 197.638 415.808 197.102 415.808C196.566 415.808 196.132 416.242 196.132 416.778C196.132 417.314 196.566 417.748 197.102 417.748Z" fill="#D88B64"/>
<path opacity="0.31" d="M201.833 414.257C202.369 414.257 202.803 413.823 202.803 413.287C202.803 412.751 202.369 412.317 201.833 412.317C201.297 412.317 200.863 412.751 200.863 413.287C200.863 413.823 201.297 414.257 201.833 414.257Z" fill="#D88B64"/>
<path opacity="0.31" d="M141.013 427.559C141.549 427.559 141.983 427.125 141.983 426.589C141.983 426.053 141.549 425.619 141.013 425.619C140.477 425.619 140.043 426.053 140.043 426.589C140.043 427.125 140.477 427.559 141.013 427.559Z" fill="#D88B64"/>
<path opacity="0.31" d="M213.435 409.547C213.97 409.547 214.405 409.112 214.405 408.576C214.405 408.041 213.97 407.606 213.435 407.606C212.899 407.606 212.464 408.041 212.464 408.576C212.464 409.112 212.899 409.547 213.435 409.547Z" fill="#D88B64"/>
<path opacity="0.31" d="M213.435 419.698C213.97 419.698 214.405 419.264 214.405 418.728C214.405 418.192 213.97 417.758 213.435 417.758C212.899 417.758 212.464 418.192 212.464 418.728C212.464 419.264 212.899 419.698 213.435 419.698Z" fill="#D88B64"/>
<path opacity="0.31" d="M226.837 410.516C227.373 410.516 227.807 410.082 227.807 409.546C227.807 409.01 227.373 408.576 226.837 408.576C226.301 408.576 225.867 409.01 225.867 409.546C225.867 410.082 226.301 410.516 226.837 410.516Z" fill="#D88B64"/>
<path opacity="0.31" d="M191.131 405.666C191.667 405.666 192.101 405.232 192.101 404.696C192.101 404.16 191.667 403.726 191.131 403.726C190.595 403.726 190.161 404.16 190.161 404.696C190.161 405.232 190.595 405.666 191.131 405.666Z" fill="#D88B64"/>
<path opacity="0.31" d="M153.835 423.119C154.371 423.119 154.805 422.684 154.805 422.148C154.805 421.613 154.371 421.178 153.835 421.178C153.299 421.178 152.865 421.613 152.865 422.148C152.865 422.684 153.299 423.119 153.835 423.119Z" fill="#D88B64"/>
<path opacity="0.31" d="M143.433 414.257C143.969 414.257 144.403 413.823 144.403 413.287C144.403 412.751 143.969 412.317 143.433 412.317C142.897 412.317 142.463 412.751 142.463 413.287C142.463 413.823 142.897 414.257 143.433 414.257Z" fill="#D88B64"/>
<path opacity="0.19" d="M242.339 352.047C241.209 353.077 239.849 354.048 238.229 354.828C230.727 358.478 214.885 327.013 207.604 331.304C200.313 335.595 190.311 334.514 154.815 331.624C119.319 328.723 104.037 346.596 97.3658 351.597C90.6947 356.598 79.873 387.443 77.3626 400.215C74.8622 412.997 69.4513 418.708 69.4513 418.708L63.1403 387.943L60.1998 363.039L80.7031 320.762L157.746 301.589L201.013 299.379C214.905 308.05 226.697 320.112 235.088 335.485C237.909 340.635 240.339 346.156 242.339 352.047Z" fill="#8E5444"/>
<path d="M50.6082 425.619C50.6082 425.619 51.8784 434.961 57.1893 438.291C62.5001 441.622 69.1712 441.352 72.5017 436.901C75.8323 432.46 76.6324 427.84 74.4421 421.919C73.0518 418.168 66.3207 408.807 66.3207 408.807L50.6082 425.619Z" fill="#D6A685"/>
<path d="M243.64 342.446C241.319 353.948 241.979 350.977 235.308 349.857C228.637 348.737 215.965 310.841 207.794 318.692C199.632 326.543 178.629 328.283 160.286 325.923C141.953 323.573 125.28 324.943 112.778 330.564C100.276 336.185 75.2722 362.449 76.1024 379.582C76.7525 392.944 72.7018 410.327 67.771 416.098C63.0303 421.649 54.7089 426.639 49.088 426.589C46.2075 426.559 44.0172 425.189 43.3871 421.909C41.5068 412.207 32.7653 398.275 27.7545 380.982C22.7537 363.699 33.5855 339.935 35.2557 325.913C36.916 311.891 48.5879 310.771 61.0899 298.529C73.592 286.297 80.7331 281.206 89.4245 276.075C104.447 267.233 128.601 278.255 132.772 272.014C136.932 265.783 165.187 263.233 187.36 270.754C197.232 274.105 207.684 281.966 216.475 290.097C227.887 300.629 236.498 311.611 237.379 313.671C242.079 324.663 245.39 333.774 243.64 342.446Z" fill="#BC8535"/>
<path d="M216.495 290.107C207.294 285.306 197.952 280.786 193.081 279.045C181.55 274.935 149.184 269.934 146.824 273.264C144.463 276.605 130.291 279.075 123.42 278.045C116.539 277.015 94.1753 274.785 85.1439 282.986C76.1224 291.187 58.1995 311.791 53.6187 316.071C49.028 320.352 39.0264 338.915 36.526 347.767C34.0256 356.608 27.6945 362.739 30.315 379.102C32.7153 394.034 56.3892 405.436 49.098 426.589C46.2175 426.559 44.0272 425.189 43.3971 421.909C41.5168 412.207 32.7754 398.275 27.7645 380.982C22.7637 363.699 33.5955 339.935 35.2658 325.913C36.926 311.891 48.5979 310.771 61.1 298.529C73.602 286.297 80.7431 281.206 89.4345 276.075C104.457 267.233 128.611 278.255 132.782 272.014C136.942 265.783 165.197 263.233 187.37 270.754C197.252 274.115 207.704 281.976 216.495 290.107Z" fill="#AA6D35"/>
<path d="M72.2317 417.748C71.8117 417.008 61.9501 395.284 54.1688 405.666C50.2782 410.857 49.8581 417.488 51.5284 423.199C53.1986 428.91 56.9492 433.7 61.39 435.231C70.2814 438.291 77.2925 426.679 72.2317 417.748Z" fill="#EFC5A8"/>
<path d="M194.742 290.207C193.831 289.797 158.346 271.594 148.344 280.486C138.342 289.377 165.287 287.987 172.788 292.158C180.299 296.318 208.274 296.318 194.742 290.207Z" fill="#C98F43"/>
<path d="M201.833 302.989C201.833 302.989 163.497 309.1 154.815 302.989C146.134 296.878 122.52 272.984 111.408 280.486C100.296 287.987 121.56 284.096 128.431 295.068C135.302 306.04 150.024 316.601 166.417 316.041C182.81 315.481 221.416 303.269 201.833 302.989Z" fill="#C98F43"/>
<path d="M89.7345 293.268C89.7345 293.268 96.3956 297.468 85.1438 308.98C73.892 320.492 67.5009 332.164 66.3907 341.056C65.2806 349.947 59.2596 367.9 53.6987 376.771C48.1378 385.643 33.1353 384.883 42.5869 371.25C52.0284 357.618 57.2193 347.176 57.7793 338.145C58.3394 329.104 69.7213 313.021 76.9525 308.98C84.1836 304.94 83.6135 291.317 89.7345 293.268Z" fill="#C98F43"/>
<path d="M106.677 288.817C106.677 288.817 120.26 301.129 119.859 306.78C119.459 312.431 116.399 317.432 100.566 325.763C84.7338 334.094 78.8928 326.873 93.6252 314.931C108.358 302.989 88.6444 286.457 106.677 288.817Z" fill="#C98F43"/>
<path d="M138.272 371.35C138.272 371.51 138.252 371.66 138.232 371.81C137.962 373.611 136.392 374.941 134.522 374.931C133.832 374.921 118.139 374.821 112.318 389.293C111.738 390.723 110.358 391.593 108.908 391.593C108.708 391.593 108.498 391.573 108.308 391.533C108.048 391.503 107.797 391.423 107.537 391.333C105.657 390.573 104.747 388.433 105.507 386.553C113.248 367.27 133.832 367.56 134.702 367.59C136.722 367.64 138.322 369.32 138.272 371.35Z" fill="#BC8535"/>
<path d="M138.232 371.8C137.962 373.6 136.392 374.931 134.522 374.921C133.832 374.911 118.139 374.811 112.318 389.283C111.738 390.713 110.358 391.583 108.908 391.583C108.708 391.583 108.498 391.563 108.308 391.523C108.338 391.243 108.418 390.973 108.518 390.703C116.269 371.42 136.852 371.71 137.712 371.74C137.882 371.76 138.052 371.77 138.232 371.8Z" fill="#AA6D35"/>
<path d="M217.205 370.46C217.055 370.72 216.865 370.97 216.635 371.19C215.915 371.89 214.995 372.23 214.065 372.23C213.115 372.23 212.154 371.86 211.434 371.13C201.953 361.439 188.551 365.079 187.991 365.229C186.35 365.689 184.65 364.959 183.82 363.559C183.66 363.299 183.54 363.009 183.45 362.709C182.9 360.758 184.01 358.738 185.95 358.168C186.68 357.958 204.073 353.107 216.685 365.999C217.885 367.219 218.055 369.06 217.205 370.46Z" fill="#BC8535"/>
<path d="M217.205 370.46C217.055 370.72 216.865 370.97 216.635 371.19C215.915 371.89 214.995 372.23 214.065 372.23C213.115 372.23 212.154 371.86 211.434 371.13C201.953 361.439 188.551 365.079 187.991 365.229C186.35 365.689 184.65 364.959 183.82 363.559C184.28 362.789 185.01 362.199 185.94 361.929C186.67 361.719 204.063 356.868 216.665 369.75C216.885 369.97 217.065 370.21 217.205 370.46Z" fill="#AA6D35"/>
<path d="M132.161 399.395C132.161 400.195 132.121 400.965 132.051 401.715C131.601 406.206 129.861 409.546 127.791 409.546C125.37 409.546 123.42 405.006 123.42 399.395C123.42 393.794 125.38 389.253 127.791 389.253C128.181 389.253 128.571 389.373 128.921 389.603C130.791 390.753 132.161 394.704 132.161 399.395Z" fill="#726361" stroke="#726361" stroke-width="0.6754" stroke-miterlimit="10"/>
<path d="M130.851 396.695C130.851 397.055 130.831 397.405 130.801 397.735C130.591 399.745 129.791 401.255 128.841 401.255C127.731 401.255 126.831 399.215 126.831 396.695C126.831 394.184 127.731 392.144 128.841 392.144C129.021 392.144 129.201 392.194 129.361 392.304C130.211 392.814 130.851 394.584 130.851 396.695Z" fill="#EFDCDA" stroke="#726361" stroke-width="0.307" stroke-miterlimit="10"/>
<path d="M200.513 399.405C202.926 399.405 204.883 394.86 204.883 389.253C204.883 383.647 202.926 379.102 200.513 379.102C198.099 379.102 196.142 383.647 196.142 389.253C196.142 394.86 198.099 399.405 200.513 399.405Z" fill="#726361" stroke="#726361" stroke-width="0.6754" stroke-miterlimit="10"/>
<path d="M203.843 386.122C203.843 386.483 203.823 386.833 203.793 387.163C203.583 389.173 202.783 390.683 201.833 390.683C200.723 390.683 199.822 388.643 199.822 386.122C199.822 383.612 200.723 381.572 201.833 381.572C202.013 381.572 202.193 381.622 202.353 381.732C203.213 382.242 203.843 384.012 203.843 386.122Z" fill="#EFDCDA" stroke="#726361" stroke-width="0.307" stroke-miterlimit="10"/>
<path d="M240.519 441.022C239.719 444.112 238.609 447.123 237.409 450.093C236.208 453.064 234.848 455.964 233.338 458.795C230.337 464.466 226.867 469.906 222.806 474.907C218.786 479.918 214.165 484.509 209.194 488.55C204.283 492.65 199.272 496.651 193.941 500.251C188.611 503.832 182.84 506.912 176.629 508.803C170.398 510.633 164.007 511.423 157.606 511.843C151.195 512.173 144.753 511.893 138.422 510.963C135.252 510.513 132.101 509.923 129.001 509.173C125.89 508.433 122.82 507.513 119.869 506.292C122.87 507.383 125.97 508.133 129.091 508.783C132.211 509.423 135.362 509.903 138.522 510.233C144.843 510.903 151.215 511.103 157.536 510.623C163.837 510.083 170.168 509.143 176.169 507.283C182.18 505.402 187.76 502.382 192.991 498.821C198.212 495.241 203.163 491.24 208.024 487.129C210.464 485.079 212.835 483.009 215.085 480.788C217.335 478.568 219.456 476.228 221.486 473.807C229.537 464.076 236.048 452.974 240.519 441.022Z" fill="#C49174"/>
<path d="M249.711 472.586C251.741 472.767 253.531 474.097 254.891 475.617C256.242 477.187 257.182 479.058 257.862 480.968C258.012 481.458 258.172 481.938 258.312 482.428L258.662 483.908C258.892 484.888 259.042 485.829 259.242 486.789L260.452 492.53L262.873 504.032C263.663 507.872 264.403 511.723 265.103 515.593C263.853 511.863 262.703 508.112 261.622 504.332C260.552 500.551 259.552 496.76 258.632 492.94C258.162 491.029 257.752 489.109 257.332 487.189L256.732 484.308L256.432 482.918L256.052 481.558C255.521 479.758 254.821 478.007 253.831 476.427C252.811 474.867 251.521 473.407 249.711 472.586Z" fill="#C49174"/>
<path d="M270.754 501.411C271.834 505.892 273.054 510.323 274.435 514.674C275.165 516.834 275.925 518.974 276.835 521.035C277.785 523.035 278.835 525.085 280.315 526.466C281.966 527.876 283.846 529.316 285.686 530.506C286.627 531.096 287.577 531.656 288.547 531.986C289.037 532.177 289.517 532.257 289.987 532.297C290.457 532.307 290.897 532.247 291.327 532.086C292.177 531.706 293.138 530.976 293.988 530.286C294.868 529.586 295.718 528.826 296.548 528.046C298.208 526.486 299.819 524.855 301.229 523.025C300.199 525.105 298.758 526.956 297.258 528.726C296.498 529.606 295.698 530.456 294.858 531.276C293.978 532.076 293.168 532.857 291.957 533.517C291.327 533.807 290.627 533.967 289.947 533.957C289.277 533.927 288.607 533.837 288.017 533.637C286.797 533.267 285.716 532.707 284.706 532.086C283.696 531.466 282.726 530.796 281.786 530.096C280.846 529.376 279.935 528.756 279.025 527.886C278.575 527.426 278.085 526.986 277.765 526.466C277.405 525.965 277.025 525.475 276.755 524.935C276.475 524.405 276.135 523.895 275.905 523.355L275.185 521.735C274.315 519.544 273.604 517.324 273.024 515.074C271.894 510.583 271.134 506.012 270.754 501.411Z" fill="#C49174"/>
<path d="M283.146 617.17C281.686 625.621 279.715 633.963 277.505 642.244C275.285 650.515 272.774 658.727 269.934 666.818C267.083 674.909 263.943 682.911 260.232 690.672C258.382 694.553 256.372 698.353 254.151 702.044C251.901 705.704 249.501 709.295 246.62 712.475C249.09 708.975 251.251 705.294 253.161 701.484C255.101 697.693 256.852 693.812 258.542 689.902C261.863 682.061 264.843 674.069 267.623 666.008C270.394 657.947 273.034 649.825 275.575 641.674L283.146 617.17Z" fill="#C49174"/>
<path d="M366.339 427.56C366.339 427.56 364.229 430.69 362.379 434.711C361.339 436.961 360.379 439.482 359.908 441.912C358.238 450.493 353.297 454.484 349.067 449.643C349.057 449.623 349.047 449.623 349.037 449.603C341.185 440.572 352.827 437.451 354.908 435.731C356.988 434.011 366.339 427.56 366.339 427.56Z" fill="url(#paint6_radial_4614_301333)" stroke="#AED0ED" stroke-width="0.816" stroke-miterlimit="10"/>
<path opacity="0.52" d="M362.379 434.711C361.339 436.961 360.378 439.481 359.908 441.912C358.238 450.493 353.297 454.484 349.067 449.643C349.057 449.623 349.047 449.623 349.037 449.603C354.298 452.364 356.378 445.632 356.988 442.872C357.328 441.302 359.868 437.831 362.379 434.711Z" fill="#72A3AF"/>
<path opacity="0.31" d="M358.968 434.711C358.968 434.711 351.987 440.582 350.117 441.932C348.247 443.282 347.096 447.873 350.117 447.033C353.137 446.203 355.528 437.171 358.968 434.711Z" fill="#C1E0EA"/>
<path d="M414.287 483.228C414.287 483.228 413.097 486.269 412.287 490.029C411.827 492.13 411.497 494.45 411.547 496.601C411.737 504.192 408.326 508.492 403.866 505.162C403.856 505.152 403.836 505.142 403.826 505.132C395.544 498.911 404.756 494.12 406.186 492.27C407.616 490.43 414.287 483.228 414.287 483.228Z" fill="url(#paint7_radial_4614_301333)" stroke="#AED0ED" stroke-width="0.7059" stroke-miterlimit="10"/>
<path opacity="0.52" d="M412.287 490.03C411.827 492.13 411.497 494.45 411.547 496.601C411.737 504.192 408.326 508.493 403.866 505.162C403.856 505.152 403.836 505.142 403.826 505.132C408.766 506.502 409.266 500.411 409.256 497.951C409.266 496.561 410.757 493.15 412.287 490.03Z" fill="#72A3AF"/>
<path opacity="0.31" d="M409.417 490.66C409.417 490.66 404.636 496.931 403.305 498.421C401.975 499.921 401.865 504.022 404.256 502.752C406.646 501.482 406.986 493.39 409.417 490.66Z" fill="#C1E0EA"/>
<path d="M318.132 406.186C318.132 406.186 315.861 408.186 313.611 410.937C312.341 412.477 311.09 414.237 310.23 416.028C307.2 422.349 302.559 424.449 300.259 419.838C300.259 419.828 300.249 419.818 300.239 419.798C295.968 411.197 305.64 411.137 307.6 410.217C309.57 409.297 318.132 406.186 318.132 406.186Z" fill="url(#paint8_radial_4614_301333)" stroke="#AED0ED" stroke-width="0.6544" stroke-miterlimit="10"/>
<path opacity="0.52" d="M313.611 410.937C312.341 412.477 311.09 414.237 310.23 416.028C307.2 422.349 302.559 424.449 300.259 419.838C300.259 419.828 300.249 419.818 300.239 419.798C303.769 422.999 306.74 418.208 307.77 416.178C308.36 415.027 311.03 412.857 313.611 410.937Z" fill="#72A3AF"/>
<path opacity="0.31" d="M310.97 410.247C310.97 410.247 304.369 413.387 302.639 414.067C300.909 414.748 299.099 418.068 301.609 418.028C304.109 417.988 307.8 411.467 310.97 410.247Z" fill="#C1E0EA"/>
<path d="M286.316 439.671C286.316 439.671 284.246 440.912 282.076 442.752C280.856 443.782 279.615 444.982 278.685 446.273C275.385 450.803 271.434 451.783 270.284 447.823C270.284 447.813 270.274 447.803 270.274 447.793C268.164 440.412 275.775 441.762 277.455 441.322C279.135 440.882 286.316 439.671 286.316 439.671Z" fill="url(#paint9_radial_4614_301333)" stroke="#AED0ED" stroke-width="0.5234" stroke-miterlimit="10"/>
<path opacity="0.52" d="M282.076 442.752C280.856 443.782 279.615 444.982 278.685 446.273C275.385 450.803 271.434 451.784 270.284 447.823C270.284 447.813 270.274 447.803 270.274 447.793C272.584 450.823 275.615 447.483 276.725 446.043C277.345 445.212 279.765 443.892 282.076 442.752Z" fill="#72A3AF"/>
<path opacity="0.31" d="M280.085 441.822C280.085 441.822 274.435 443.342 272.974 443.612C271.514 443.892 269.604 446.242 271.584 446.583C273.564 446.923 277.425 442.322 280.085 441.822Z" fill="#C1E0EA"/>
<path d="M389.493 467.146C389.493 467.146 371.37 507.682 371.99 521.424L389.493 467.146Z" fill="#C1E0EA"/>
<path d="M389.493 467.146C389.493 467.146 371.37 507.682 371.99 521.424" stroke="#AED0ED" stroke-width="0.816" stroke-miterlimit="10"/>
<path d="M316.611 436.911C316.611 436.911 288.627 457.984 276.925 462.485L316.611 436.911Z" fill="#C1E0EA"/>
<path d="M316.611 436.911C316.611 436.911 288.627 457.984 276.925 462.485" stroke="#AED0ED" stroke-width="0.816" stroke-miterlimit="10"/>
<path d="M444.342 483.228C444.342 483.228 442.002 508.683 447.003 522.865L444.342 483.228Z" fill="#C1E0EA"/>
<path d="M444.342 483.228C444.342 483.228 442.002 508.683 447.003 522.865" stroke="#AED0ED" stroke-width="0.816" stroke-miterlimit="10"/>
<path opacity="0.66" d="M106.777 672.939C91.6449 685.191 77.6026 694.573 76.0324 692.112C72.3818 686.431 45.9075 633.713 51.1783 604.558C52.7586 595.787 56.4292 589.556 60.8799 585.345C62.9803 596.677 64.4705 629.222 75.5623 648.865C82.4334 661.047 99.5762 667.578 106.777 672.939Z" fill="#8383C6"/>
<path d="M121.8 621.091C118.839 616.28 86.144 587.196 78.6328 593.307C71.1216 599.418 100.846 614.56 110.848 625.332C120.85 636.103 131.371 636.644 121.8 621.091Z" fill="#AFAFE8"/>
<path opacity="0.71" d="M205.393 529.976C195.752 537.577 183.65 544.318 171.548 546.409C156.445 548.999 137.892 536.687 126.12 527.326V527.166C126.06 525.635 125.96 524.085 125.84 522.525C125.53 518.714 125.05 514.894 124.52 511.393C123.71 506.022 122.8 501.421 122.24 498.821C122.15 498.411 122.08 498.051 122.01 497.741C122 497.721 122 497.691 121.99 497.671C121.83 496.951 121.74 496.561 121.74 496.561C121.76 496.521 121.77 496.491 121.79 496.451C122.99 493.86 129.451 491.74 138.092 490.16C140.993 489.629 144.143 489.159 147.424 488.739C168.537 486.119 195.092 486.179 196.122 489.8C196.812 492.22 198.852 500.731 201.043 510.263C201.103 510.503 201.153 510.733 201.203 510.973C202.003 514.454 202.813 518.044 203.573 521.525C204.233 524.485 204.843 527.356 205.393 529.976Z" fill="#EFC5A8" stroke="#EFC5A8" stroke-width="0.816" stroke-miterlimit="10" stroke-linecap="round"/>
<path d="M384.032 369.92C392.244 368.23 400.415 366.34 408.426 363.999C412.427 362.789 416.348 361.469 419.968 359.458C423.679 357.528 427.359 355.568 430.88 353.367C434.39 351.177 437.801 348.787 440.541 345.826C441.222 345.086 441.842 344.306 442.402 343.486C442.922 342.686 443.462 341.756 444.002 340.855C445.082 339.045 446.202 337.255 447.363 335.495C448.523 333.734 449.753 332.014 450.993 330.314C452.283 328.643 453.574 326.963 454.984 325.383C456.394 323.803 457.834 322.252 459.465 320.882C461.075 319.512 462.765 318.182 464.725 317.382C462.935 318.482 461.415 319.932 459.995 321.442C458.584 322.963 457.264 324.573 456.014 326.233C453.504 329.544 451.193 333.004 448.983 336.545C447.883 338.305 446.783 340.075 445.742 341.886C445.222 342.786 444.732 343.686 444.092 344.626C443.472 345.536 442.782 346.396 442.032 347.196C439.051 350.377 435.511 352.827 431.9 355.018C428.269 357.198 424.519 359.118 420.748 360.979C419.818 361.449 418.838 361.889 417.848 362.309C416.868 362.739 415.857 363.069 414.857 363.439C412.847 364.099 410.827 364.709 408.786 365.239C404.716 366.31 400.605 367.21 396.474 367.96C392.334 368.71 388.193 369.4 384.032 369.92Z" fill="#86AFCE"/>
<g opacity="0.57">
<path opacity="0.57" d="M79.873 577.954C86.9741 579.284 93.8552 581.684 100.476 584.675C102.157 585.375 103.737 586.275 105.377 587.075C106.987 587.925 108.558 588.856 110.148 589.746C111.678 590.736 113.228 591.706 114.729 592.746C116.189 593.846 117.719 594.856 119.129 596.037C121.98 598.347 124.68 600.867 127.151 603.598C129.661 606.358 131.831 609.189 134.012 612.059C138.342 617.8 142.493 623.691 146.134 629.982C140.823 625.021 136.012 619.66 131.391 614.15C129.081 611.399 126.861 608.529 124.57 605.938C122.26 603.308 119.689 600.907 117.019 598.617C111.668 594.046 105.707 590.136 99.4461 586.745C93.1951 583.335 86.6641 580.344 79.873 577.954Z" fill="#474772"/>
</g>
</g>
<defs>
<linearGradient id="paint0_linear_4614_301333" x1="315.067" y1="786.459" x2="315.067" y2="644.811" gradientUnits="userSpaceOnUse">
<stop stop-color="#F8DCB0" stop-opacity="0.1"/>
<stop offset="1" stop-color="#F9DDAF"/>
</linearGradient>
<linearGradient id="paint1_linear_4614_301333" x1="181.782" y1="792.272" x2="181.782" y2="530.128" gradientUnits="userSpaceOnUse">
<stop offset="2.06466e-07" stop-color="#A4ADDD" stop-opacity="0.1"/>
<stop offset="0.312" stop-color="#A5A8E2" stop-opacity="0.3808"/>
<stop offset="1" stop-color="#A5A5E5"/>
</linearGradient>
<linearGradient id="paint2_linear_4614_301333" x1="78.3392" y1="792.272" x2="78.3392" y2="609.529" gradientUnits="userSpaceOnUse">
<stop offset="2.06466e-07" stop-color="#A4ADDD" stop-opacity="0.1"/>
<stop offset="0.1515" stop-color="#979DD4" stop-opacity="0.2364"/>
<stop offset="0.3558" stop-color="#8C8ECC" stop-opacity="0.4202"/>
<stop offset="0.6019" stop-color="#8586C7" stop-opacity="0.6417"/>
<stop offset="1" stop-color="#8383C6"/>
</linearGradient>
<linearGradient id="paint3_linear_4614_301333" x1="632.177" y1="786.67" x2="632.177" y2="710.273" gradientUnits="userSpaceOnUse">
<stop offset="0.0859" stop-color="#5F50AA" stop-opacity="0.1"/>
<stop offset="0.2363" stop-color="#563EA4" stop-opacity="0.2481"/>
<stop offset="0.4201" stop-color="#4F2F9F" stop-opacity="0.429"/>
<stop offset="0.6416" stop-color="#4A279C" stop-opacity="0.6472"/>
<stop offset="1" stop-color="#49249B"/>
</linearGradient>
<linearGradient id="paint4_linear_4614_301333" x1="479.723" y1="410.919" x2="542.014" y2="410.919" gradientUnits="userSpaceOnUse">
<stop offset="4.12931e-07" stop-color="#AED0ED"/>
<stop offset="1" stop-color="#86AFCE"/>
</linearGradient>
<linearGradient id="paint5_linear_4614_301333" x1="519.462" y1="319.064" x2="430.699" y2="434.497" gradientUnits="userSpaceOnUse">
<stop offset="4.12931e-07" stop-color="#AED0ED"/>
<stop offset="1" stop-color="#86AFCE"/>
</linearGradient>
<radialGradient id="paint6_radial_4614_301333" cx="0" cy="0" r="1" gradientUnits="userSpaceOnUse" gradientTransform="translate(351.712 443.287) scale(17.1143)">
<stop stop-color="white"/>
<stop offset="1" stop-color="#92C7D3"/>
</radialGradient>
<radialGradient id="paint7_radial_4614_301333" cx="0" cy="0" r="1" gradientUnits="userSpaceOnUse" gradientTransform="translate(404.926 499.322) rotate(-12.3448) scale(14.7373 14.8776)">
<stop stop-color="white"/>
<stop offset="1" stop-color="#92C7D3"/>
</radialGradient>
<radialGradient id="paint8_radial_4614_301333" cx="0" cy="0" r="1" gradientUnits="userSpaceOnUse" gradientTransform="translate(303.61 415.426) rotate(14.6018) scale(13.7255)">
<stop stop-color="white"/>
<stop offset="1" stop-color="#92C7D3"/>
</radialGradient>
<radialGradient id="paint9_radial_4614_301333" cx="0" cy="0" r="1" gradientUnits="userSpaceOnUse" gradientTransform="translate(273.549 444.85) rotate(25.0481) scale(10.9793)">
<stop stop-color="white"/>
<stop offset="1" stop-color="#92C7D3"/>
</radialGradient>
<clipPath id="clip0_4614_301333">
<rect width="799.87" height="799.87" fill="white" transform="scale(1.00016)"/>
</clipPath>
</defs>
</svg>
