<svg width="800" height="800" viewBox="0 0 800 800" fill="none" xmlns="http://www.w3.org/2000/svg">
<g clip-path="url(#clip0_4614_301147)">
<path d="M800 0H0V800H800V0Z" fill="white"/>
<path opacity="0.24" d="M403.826 754.583C563.755 754.583 693.403 717.313 693.403 671.339C693.403 625.365 563.755 588.095 403.826 588.095C243.897 588.095 114.249 625.365 114.249 671.339C114.249 717.313 243.897 754.583 403.826 754.583Z" fill="#206D84" stroke="#206D84" stroke-width="1.6171" stroke-miterlimit="10"/>
<path d="M584.035 491.24C583.585 491.06 577.074 527.556 583.245 524.865C589.416 522.175 589.896 511.283 590.636 510.273C591.376 509.273 608.229 541.928 611.649 539.877C616.03 537.257 602.208 510.623 604.108 510.283C606.008 509.943 620.151 533.827 624.141 530.946C628.122 528.066 613.25 506.662 614.03 505.542C614.81 504.422 632.333 522.315 635.693 519.044C638.194 516.614 618.56 499.231 619.991 497.401C621.421 495.57 633.873 503.692 636.133 502.101C638.394 500.511 604.698 473.627 604.228 474.837C603.768 476.057 584.035 491.24 584.035 491.24Z" fill="#FFD5B8" stroke="#FFD5B8" stroke-width="1.6886" stroke-miterlimit="10"/>
<path d="M581.014 503.402C580.684 506.882 580.404 510.363 580.204 513.843C580.114 515.584 580.044 517.324 580.074 519.054C580.094 519.914 580.124 520.784 580.254 521.605C580.324 522.035 580.404 522.335 580.604 522.725C580.774 523.105 580.974 523.465 581.194 523.795C581.634 524.455 582.235 524.995 582.845 525.055C583.445 525.135 584.115 524.765 584.685 524.225C585.835 523.115 586.695 521.605 587.365 520.084C588.046 518.534 588.536 516.894 588.926 515.233C589.316 513.573 589.636 511.863 589.816 510.193L589.926 507.812L591.376 509.843C593.216 512.423 594.967 515.063 596.697 517.724C598.417 520.384 600.097 523.065 601.768 525.755L604.248 529.786L604.868 530.776C605.078 531.096 605.308 531.476 605.508 531.826C605.918 532.536 606.308 533.236 606.669 533.936C607.399 535.337 608.079 536.747 608.859 538.057C609.249 538.717 609.669 539.347 610.169 539.887C610.669 540.398 611.309 540.868 612.119 540.638C611.809 540.888 611.349 541.018 610.909 540.958C610.469 540.908 610.049 540.728 609.679 540.508C608.929 540.067 608.329 539.477 607.759 538.877C606.638 537.657 605.728 536.317 604.848 534.997L603.568 533.026L602.228 531.086L599.607 527.095C597.907 524.425 596.237 521.725 594.617 519.004C593.006 516.274 591.416 513.533 589.936 510.723L591.496 510.363C591.016 513.923 590.196 517.394 588.666 520.674C587.875 522.305 586.945 523.875 585.525 525.165C584.825 525.775 583.845 526.395 582.665 526.225C581.504 526.015 580.784 525.145 580.294 524.375C580.044 523.975 579.844 523.555 579.674 523.125C579.494 522.725 579.354 522.175 579.314 521.735C579.214 520.814 579.224 519.934 579.254 519.054C579.314 517.294 579.464 515.543 579.634 513.803C579.984 510.313 580.464 506.852 581.014 503.402Z" fill="#EAB998"/>
<path d="M606.679 511.483C608.749 515.264 611.019 518.964 613.46 522.535C614.7 524.305 616 526.045 617.4 527.686C618.84 529.286 620.351 530.906 622.331 531.826C620.291 531.036 618.64 529.486 617.1 527.966C615.58 526.395 614.17 524.725 612.8 523.025C610.109 519.584 607.609 516.014 605.268 512.303C605.028 511.923 605.138 511.423 605.518 511.183C605.898 510.943 606.398 511.053 606.638 511.433C606.648 511.443 606.659 511.463 606.659 511.473L606.679 511.483Z" fill="#EAB998"/>
<path d="M616.7 506.152C618.93 508.312 621.181 510.452 623.461 512.573C624.601 513.633 625.742 514.683 626.902 515.713C628.072 516.734 629.212 517.794 630.492 518.674C629.142 517.904 627.892 516.954 626.642 516.023C625.392 515.093 624.161 514.143 622.931 513.183C620.481 511.263 618.04 509.322 615.62 507.352C615.27 507.072 615.22 506.562 615.5 506.212C615.78 505.862 616.29 505.812 616.64 506.092C616.67 506.122 616.69 506.142 616.7 506.152Z" fill="#EAB998"/>
<path d="M637.033 502.021C637.163 502.381 636.993 502.821 636.623 502.992C636.273 503.162 635.883 503.202 635.503 503.192C634.743 503.172 633.993 503.032 633.263 502.841C631.793 502.471 630.372 501.931 628.972 501.411L624.761 499.811L622.671 498.991C622.321 498.861 621.971 498.721 621.641 498.611C621.471 498.551 621.311 498.511 621.191 498.481C621.181 498.481 621.171 498.481 621.161 498.481C621.141 498.481 621.211 498.491 621.241 498.481C621.291 498.471 621.261 498.481 621.401 498.421C621.511 498.351 621.561 498.301 621.641 498.131C621.681 498.061 621.681 497.921 621.671 497.901C621.671 497.881 621.671 497.871 621.671 497.851C621.651 497.781 621.661 497.841 621.651 497.851L621.811 497.781C621.911 498.141 622.221 498.691 622.481 499.151C622.751 499.631 623.041 500.111 623.341 500.591C623.941 501.541 624.531 502.501 625.232 503.392C624.341 502.691 623.531 501.891 622.711 501.091C622.301 500.691 621.901 500.281 621.511 499.861C621.111 499.411 620.741 499.071 620.341 498.421L620.501 498.351C620.461 498.281 620.431 498.241 620.391 498.081L620.371 497.961C620.361 497.921 620.371 497.761 620.411 497.661C620.491 497.441 620.591 497.381 620.741 497.271C620.911 497.171 620.931 497.201 621.031 497.171C621.101 497.161 621.221 497.151 621.251 497.161L621.491 497.201C621.731 497.271 621.921 497.341 622.101 497.421C622.461 497.571 622.801 497.741 623.151 497.901L625.182 498.871L629.252 500.771C630.622 501.391 631.973 502.021 633.383 502.491C634.083 502.741 634.813 502.922 635.543 503.002C635.913 503.042 636.283 503.022 636.623 502.891C636.933 502.791 637.133 502.391 637.033 502.021Z" fill="#EAB998"/>
<path opacity="0.32" d="M615.991 499.164C616.618 498.802 616.371 497.202 615.441 495.59C614.51 493.978 613.247 492.965 612.621 493.326C611.994 493.688 612.24 495.288 613.171 496.9C614.102 498.513 615.364 499.526 615.991 499.164Z" fill="white" stroke="white" stroke-width="1.515" stroke-miterlimit="10"/>
<path opacity="0.32" d="M609.681 505.567C610.308 505.205 610.061 503.605 609.13 501.993C608.2 500.381 606.937 499.368 606.31 499.729C605.684 500.091 605.93 501.691 606.861 503.303C607.792 504.915 609.054 505.929 609.681 505.567Z" fill="white" stroke="white" stroke-width="1.515" stroke-miterlimit="10"/>
<path opacity="0.32" d="M599.589 509.669C600.216 509.307 599.969 507.707 599.039 506.095C598.108 504.483 596.845 503.469 596.219 503.831C595.592 504.193 595.838 505.793 596.769 507.405C597.7 509.017 598.963 510.031 599.589 509.669Z" fill="white" stroke="white" stroke-width="1.515" stroke-miterlimit="10"/>
<path d="M210.934 488.009C211.384 487.829 217.895 524.325 211.724 521.635C205.553 518.944 205.073 508.052 204.333 507.042C203.593 506.042 186.74 538.697 183.32 536.647C178.939 534.027 192.761 507.392 190.861 507.052C188.961 506.712 174.818 530.596 170.828 527.716C166.837 524.835 181.72 503.432 180.939 502.311C180.159 501.191 162.636 519.084 159.276 515.814C156.775 513.383 176.409 496 174.978 494.17C173.548 492.34 161.096 500.461 158.836 498.871C156.575 497.281 190.271 470.396 190.741 471.606C191.211 472.817 210.934 488.009 210.934 488.009Z" fill="#FFD5B8" stroke="#FFD5B8" stroke-width="1.6886" stroke-miterlimit="10"/>
<path d="M213.965 500.161C214.515 503.612 214.995 507.072 215.335 510.563C215.505 512.303 215.655 514.054 215.715 515.814C215.735 516.694 215.745 517.584 215.655 518.494C215.615 518.934 215.475 519.484 215.295 519.884C215.125 520.315 214.925 520.735 214.675 521.135C214.185 521.915 213.475 522.785 212.304 522.985C211.124 523.165 210.144 522.535 209.444 521.925C208.024 520.645 207.094 519.064 206.303 517.434C204.773 514.154 203.953 510.683 203.473 507.122L205.033 507.482C203.553 510.293 201.973 513.033 200.353 515.764C198.732 518.484 197.062 521.185 195.362 523.855L192.741 527.846L191.401 529.786L190.121 531.756C189.241 533.077 188.331 534.417 187.21 535.637C186.64 536.237 186.04 536.837 185.29 537.267C184.92 537.487 184.5 537.667 184.06 537.717C183.62 537.777 183.17 537.647 182.85 537.397C183.67 537.627 184.31 537.157 184.8 536.647C185.3 536.107 185.72 535.477 186.11 534.817C186.89 533.497 187.57 532.096 188.301 530.696C188.661 529.986 189.051 529.296 189.461 528.586C189.661 528.236 189.891 527.856 190.101 527.536L190.721 526.546L193.201 522.515C194.872 519.824 196.552 517.144 198.272 514.484C200.002 511.833 201.753 509.183 203.593 506.602L205.043 504.572L205.153 506.952C205.333 508.623 205.643 510.333 206.043 511.993C206.434 513.653 206.924 515.294 207.604 516.844C208.284 518.364 209.134 519.875 210.284 520.985C210.854 521.525 211.524 521.905 212.124 521.815C212.735 521.755 213.325 521.215 213.775 520.555C213.995 520.225 214.195 519.865 214.365 519.484C214.555 519.084 214.645 518.784 214.715 518.364C214.845 517.544 214.875 516.684 214.895 515.814C214.915 514.084 214.855 512.343 214.765 510.603C214.575 507.122 214.295 503.642 213.965 500.161Z" fill="#EAB998"/>
<path d="M189.691 509.063C187.35 512.773 184.85 516.344 182.16 519.784C180.799 521.495 179.389 523.155 177.859 524.725C176.319 526.245 174.668 527.796 172.628 528.586C174.618 527.666 176.129 526.045 177.559 524.445C178.969 522.805 180.259 521.064 181.499 519.294C183.95 515.724 186.21 512.023 188.281 508.242L188.291 508.232C188.501 507.842 189.001 507.692 189.391 507.912C189.781 508.122 189.931 508.622 189.711 509.012C189.711 509.032 189.701 509.053 189.691 509.063Z" fill="#EAB998"/>
<path d="M179.339 504.132C176.919 506.102 174.488 508.042 172.028 509.962C170.798 510.923 169.568 511.873 168.317 512.803C167.067 513.723 165.827 514.683 164.467 515.453C165.747 514.573 166.897 513.513 168.057 512.493C169.217 511.463 170.358 510.403 171.498 509.352C173.768 507.232 176.019 505.092 178.259 502.931C178.579 502.621 179.089 502.621 179.399 502.951C179.709 503.271 179.709 503.781 179.379 504.092C179.379 504.092 179.359 504.112 179.339 504.132Z" fill="#EAB998"/>
<path d="M157.936 498.791C157.836 499.161 158.036 499.561 158.376 499.681C158.716 499.811 159.086 499.831 159.456 499.791C160.186 499.711 160.916 499.531 161.616 499.281C163.026 498.811 164.377 498.181 165.747 497.561L169.818 495.66L171.848 494.69C172.188 494.53 172.528 494.37 172.898 494.21C173.078 494.13 173.278 494.06 173.508 493.99L173.748 493.95C173.778 493.94 173.898 493.95 173.968 493.96C174.068 493.98 174.088 493.96 174.258 494.06C174.398 494.17 174.508 494.23 174.588 494.45C174.628 494.54 174.638 494.7 174.628 494.75L174.608 494.87C174.568 495.03 174.538 495.06 174.498 495.14L174.658 495.21C174.258 495.86 173.888 496.2 173.488 496.651C173.098 497.071 172.698 497.481 172.288 497.881C171.468 498.671 170.658 499.471 169.768 500.181C170.458 499.291 171.058 498.331 171.658 497.381C171.948 496.901 172.238 496.42 172.518 495.94C172.778 495.48 173.088 494.92 173.188 494.57L173.348 494.64C173.348 494.63 173.348 494.58 173.328 494.64C173.328 494.66 173.328 494.67 173.328 494.69C173.328 494.71 173.328 494.85 173.358 494.92C173.438 495.09 173.478 495.14 173.598 495.21C173.728 495.27 173.708 495.26 173.758 495.27C173.778 495.28 173.858 495.27 173.838 495.27C173.828 495.27 173.818 495.27 173.808 495.27C173.688 495.3 173.518 495.34 173.358 495.4C173.018 495.51 172.678 495.65 172.328 495.78L170.238 496.6L166.027 498.201C164.617 498.721 163.207 499.251 161.736 499.631C161.006 499.831 160.256 499.961 159.496 499.981C159.116 499.991 158.726 499.951 158.376 499.781C157.976 499.591 157.806 499.151 157.936 498.791Z" fill="#EAB998"/>
<path opacity="0.32" d="M181.778 493.677C182.709 492.065 182.955 490.465 182.329 490.103C181.702 489.741 180.44 490.755 179.509 492.367C178.578 493.979 178.332 495.579 178.958 495.941C179.585 496.302 180.847 495.289 181.778 493.677Z" fill="white" stroke="white" stroke-width="1.515" stroke-miterlimit="10"/>
<path opacity="0.32" d="M188.082 500.083C189.013 498.471 189.26 496.871 188.633 496.509C188.006 496.147 186.744 497.161 185.813 498.773C184.882 500.385 184.636 501.985 185.263 502.347C185.889 502.709 187.152 501.695 188.082 500.083Z" fill="white" stroke="white" stroke-width="1.515" stroke-miterlimit="10"/>
<path opacity="0.32" d="M198.172 504.183C199.103 502.571 199.349 500.971 198.722 500.609C198.096 500.247 196.833 501.261 195.902 502.873C194.972 504.485 194.725 506.085 195.352 506.447C195.979 506.809 197.241 505.795 198.172 504.183Z" fill="white" stroke="white" stroke-width="1.515" stroke-miterlimit="10"/>
<path d="M585.805 496.19C583.835 497.441 581.824 497.031 579.654 495.46C579.654 495.44 579.634 495.44 579.634 495.44C571.353 489.489 560.951 466.946 543.288 457.384C530.216 450.303 515.064 452.713 503.392 454.524C499.271 455.154 495.58 455.734 492.56 455.774C489.539 455.824 487.189 455.354 485.769 453.933C484.359 452.523 482.778 449.273 481.228 444.912C475.167 427.799 469.806 393.464 479.738 385.812C480.268 385.392 484.089 385.812 490.12 387.103C496.201 388.383 504.532 390.543 514.013 393.604C542.898 402.905 582.445 420.498 601.338 447.042C627.212 483.368 595.307 490.159 585.805 496.19Z" fill="#8DD4F7" stroke="#8DD4F7" stroke-width="1.6886" stroke-miterlimit="10"/>
<path d="M310.8 447.253C309.94 449.053 309.1 450.393 308.33 451.163C307.46 452.033 306.24 452.533 304.739 452.793C299.079 453.764 289.327 451.083 278.455 450.153C269.434 449.363 259.642 449.813 250.801 454.604C228.517 466.686 217.775 499.451 208.294 493.42C207.164 492.69 205.703 491.96 204.053 491.17C191.991 485.319 169.988 476.237 192.761 444.252C212.284 416.858 253.821 398.965 282.896 389.903C286.246 388.863 289.427 387.933 292.407 387.123C304.889 383.722 313.531 382.382 314.351 383.032C325.403 391.534 317.532 433.15 310.8 447.253Z" fill="#8DD4F7" stroke="#8DD4F7" stroke-width="1.6886" stroke-miterlimit="10"/>
<path d="M518.784 585.375C518.264 604.238 488.179 618.42 449.233 625.471C448.243 625.651 447.263 625.831 446.272 625.972C415.878 631.162 380.562 632.053 349.797 627.522C323.643 623.661 300.809 615.91 287.127 603.538C277.425 594.776 272.164 579.504 270.034 560.501C266.543 529.606 271.264 488.829 278.465 450.163C279.485 444.662 280.556 439.231 281.666 433.86C283.076 426.919 284.556 420.108 286.076 413.497C286.657 410.877 287.257 408.306 287.857 405.766C288.257 404.036 288.677 402.305 289.087 400.605C289.217 400.075 289.347 399.555 289.477 399.035C290.467 394.954 291.447 390.983 292.417 387.133C294.488 378.911 296.508 371.3 298.388 364.459C299.169 361.569 299.939 358.818 300.669 356.228C300.729 356.018 300.779 355.828 300.829 355.628C302.899 348.316 304.679 342.265 306 337.825C307.63 332.394 308.6 329.353 308.6 329.353C313.501 313.111 449.003 331.004 467.716 329.353C470.596 329.093 473.827 333.894 477.257 342.385C479.178 347.186 481.168 353.177 483.178 360.078C483.989 362.889 484.809 365.849 485.619 368.96C485.989 370.32 486.359 371.73 486.719 373.15C487.849 377.581 488.979 382.242 490.12 387.113C492.87 399.015 495.59 412.137 498.211 425.799C498.841 429.08 499.461 432.38 500.071 435.711C500.571 438.461 501.071 441.222 501.561 444.012C502.192 447.503 502.812 451.033 503.402 454.544C508.383 483.658 512.633 513.253 515.404 537.657C516.944 551.209 518.004 563.151 518.504 572.543C518.784 577.614 518.884 581.944 518.784 585.375Z" fill="#8DD4F7" stroke="#8DD4F7" stroke-width="1.6171" stroke-miterlimit="10"/>
<path d="M362.869 727.428C322.672 724.128 249.461 687.782 242.289 633.263C237.419 596.197 257.012 572.113 270.024 560.491C276.155 555.02 280.826 552.32 280.826 552.32C317.171 552.32 360.108 605.178 351.017 615.09C348.657 617.68 348.477 622.161 349.787 627.512C353.487 642.764 369.2 665.128 380.922 671.249C396.784 679.52 403.075 730.729 362.869 727.428Z" fill="#8DD4F7" stroke="#8DD4F7" stroke-width="1.6171" stroke-miterlimit="10"/>
<path opacity="0.29" d="M512.993 408.466C512.993 413.317 509.173 417.278 504.372 417.528C504.292 417.838 504.192 418.138 504.082 418.448C507.482 420.068 509.723 423.719 509.193 427.85C508.693 431.73 505.622 434.931 501.771 435.601C501.191 435.701 500.621 435.751 500.071 435.711C499.421 435.711 498.811 435.631 498.211 435.501C497.301 435.311 496.461 434.971 495.69 434.531C496.471 436.281 496.721 438.301 496.211 440.402C495.43 443.672 492.8 446.303 489.529 447.053C486.329 447.783 483.348 446.823 481.268 444.902C481.248 444.902 481.248 444.922 481.238 444.922C480.898 445.082 480.528 445.232 480.168 445.392C480.508 446.963 480.458 448.693 479.798 450.483C478.638 453.574 475.787 455.884 472.507 456.304C467.786 456.914 463.655 453.894 462.525 449.643C462.125 449.673 461.705 449.703 461.295 449.743C460.225 453.574 456.714 456.394 452.543 456.394C448.033 456.394 444.292 453.094 443.582 448.793C443.502 448.773 443.422 448.763 443.342 448.733C442.582 453.524 438.121 457.044 432.99 456.284C429.08 455.714 425.909 452.504 425.369 448.573C425.049 446.193 425.659 443.982 426.869 442.202C426.719 442.102 426.599 442.012 426.449 441.932C424.779 445.672 420.638 448.093 416.098 447.093C412.737 446.363 409.997 443.632 409.276 440.252C408.436 436.261 410.197 432.6 413.187 430.64C411.407 431.55 409.286 431.89 407.076 431.4C403.646 430.66 400.885 427.87 400.165 424.449C399.375 420.488 401.155 416.868 404.126 414.928C404.076 414.847 404.046 414.767 404.016 414.687C402.785 415.288 401.425 415.638 399.975 415.638C399.575 415.638 399.165 415.588 398.765 415.538C398.375 415.588 397.975 415.638 397.555 415.638C396.114 415.638 394.744 415.278 393.524 414.687C393.494 414.767 393.464 414.847 393.414 414.928C396.394 416.868 398.165 420.488 397.375 424.449C396.664 427.88 393.894 430.66 390.463 431.4C388.243 431.89 386.133 431.55 384.352 430.64C387.343 432.6 389.103 436.251 388.253 440.252C387.543 443.632 384.812 446.363 381.442 447.093C376.901 448.093 372.761 445.672 371.09 441.932C370.94 442.012 370.82 442.112 370.67 442.202C371.88 443.982 372.5 446.193 372.17 448.573C371.64 452.504 368.47 455.724 364.549 456.284C359.418 457.044 354.958 453.514 354.198 448.733C354.118 448.763 354.037 448.783 353.957 448.793C353.247 453.094 349.507 456.394 344.996 456.394C340.825 456.394 337.315 453.584 336.245 449.743C335.845 449.713 335.424 449.683 335.014 449.643C333.884 453.894 329.754 456.924 325.033 456.304C321.752 455.884 318.902 453.574 317.742 450.483C317.081 448.683 317.031 446.953 317.372 445.392C317.001 445.232 316.631 445.072 316.271 444.902C314.801 446.243 312.921 447.123 310.8 447.263C309.91 447.343 308.97 447.283 308 447.053C304.729 446.313 302.099 443.672 301.319 440.402C300.799 438.301 301.059 436.281 301.839 434.531C300.089 435.531 297.988 435.971 295.758 435.601C291.907 434.941 288.837 431.74 288.337 427.85C287.807 423.729 290.047 420.068 293.428 418.448C293.328 418.138 293.238 417.838 293.158 417.528C291.137 417.418 289.307 416.668 287.857 415.478C287.177 414.908 286.567 414.247 286.076 413.507C285.106 412.087 284.536 410.357 284.536 408.476C284.536 405.116 286.366 402.205 289.077 400.615C289.447 400.405 289.817 400.215 290.227 400.045C290.207 399.775 290.197 399.495 290.177 399.205C289.937 399.155 289.707 399.105 289.467 399.045C285.666 397.965 282.886 394.454 282.886 390.314C282.886 390.184 282.886 390.053 282.906 389.923C286.256 388.883 289.437 387.953 292.417 387.143C294.488 378.922 296.508 371.31 298.388 364.469L299.619 364.909L300.829 365.349L377.091 392.664C389.173 396.995 402.355 397.115 414.497 393.004L483.188 369.79L485.629 368.97C485.999 370.33 486.369 371.741 486.729 373.161C487.859 377.591 488.989 382.252 490.13 387.123C496.211 388.403 504.542 390.564 514.023 393.624C512.923 396.475 510.413 398.605 507.362 399.225C507.342 399.515 507.332 399.795 507.312 400.065C510.633 401.395 512.993 404.646 512.993 408.466Z" fill="#3A83A0"/>
<path d="M512.993 398.755C512.993 403.606 509.173 407.566 504.372 407.816C504.292 408.127 504.192 408.427 504.082 408.737C507.482 410.357 509.723 414.007 509.193 418.138C508.693 422.019 505.622 425.219 501.771 425.889C500.521 426.099 499.331 426.049 498.211 425.789C497.301 425.599 496.461 425.259 495.69 424.819C496.471 426.57 496.721 428.59 496.211 430.69C495.43 433.961 492.8 436.591 489.529 437.341C486.329 438.071 483.348 437.111 481.268 435.191C480.908 435.351 480.538 435.511 480.168 435.681C480.508 437.251 480.458 438.982 479.798 440.772C478.638 443.862 475.787 446.173 472.507 446.593C467.786 447.203 463.655 444.182 462.525 439.932C462.125 439.962 461.705 439.992 461.295 440.032C460.225 443.862 456.714 446.683 452.543 446.683C448.033 446.683 444.292 443.382 443.582 439.082C443.502 439.062 443.422 439.052 443.342 439.022C442.582 443.812 438.121 447.333 432.99 446.573C429.08 446.003 425.909 442.792 425.369 438.862C425.049 436.481 425.659 434.271 426.869 432.49C426.719 432.39 426.599 432.3 426.449 432.22C424.779 435.961 420.638 438.381 416.098 437.381C412.737 436.651 409.997 433.921 409.276 430.54C408.436 426.55 410.197 422.889 413.187 420.929C411.407 421.839 409.286 422.179 407.076 421.689C403.646 420.949 400.885 418.158 400.165 414.738C399.375 410.777 401.155 407.156 404.126 405.216C404.076 405.136 404.046 405.056 404.016 404.976C402.785 405.576 401.425 405.926 399.975 405.926C399.575 405.926 399.165 405.876 398.765 405.826C398.375 405.876 397.975 405.926 397.555 405.926C396.114 405.926 394.744 405.566 393.524 404.976C393.494 405.056 393.464 405.136 393.414 405.216C396.394 407.156 398.165 410.777 397.375 414.738C396.664 418.168 393.894 420.949 390.463 421.689C388.243 422.179 386.133 421.839 384.352 420.929C387.343 422.889 389.103 426.54 388.253 430.54C387.543 433.921 384.812 436.651 381.442 437.381C376.901 438.381 372.761 435.961 371.09 432.22C370.94 432.3 370.82 432.4 370.67 432.49C371.88 434.271 372.5 436.481 372.17 438.862C371.64 442.792 368.47 446.013 364.549 446.573C359.418 447.333 354.958 443.802 354.198 439.022C354.118 439.052 354.037 439.072 353.957 439.082C353.247 443.382 349.507 446.683 344.996 446.683C340.825 446.683 337.315 443.872 336.245 440.032C335.845 440.002 335.424 439.972 335.014 439.932C333.884 444.182 329.754 447.213 325.033 446.593C321.752 446.173 318.902 443.862 317.742 440.772C317.081 438.972 317.031 437.241 317.372 435.681C317.001 435.521 316.631 435.361 316.271 435.191C314.181 437.111 311.211 438.071 308.01 437.341C304.739 436.601 302.109 433.961 301.329 430.69C300.809 428.59 301.069 426.57 301.849 424.819C300.099 425.819 297.998 426.259 295.768 425.889C291.917 425.229 288.847 422.029 288.347 418.138C287.817 414.017 290.057 410.357 293.438 408.737C293.338 408.427 293.248 408.127 293.168 407.816C291.147 407.706 289.317 406.956 287.867 405.766C285.846 404.096 284.546 401.595 284.546 398.765C284.546 394.944 286.907 391.694 290.237 390.334C290.217 390.064 290.207 389.784 290.187 389.493C286.026 388.673 282.896 384.993 282.896 380.602C282.896 375.931 286.426 372.091 290.947 371.581C290.947 371.531 290.947 371.501 290.967 371.451C286.537 370.96 283.076 367.29 282.916 362.779C282.736 358.248 286.146 354.178 290.627 353.448C291.937 353.238 293.198 353.348 294.378 353.678C294.428 353.468 294.478 353.358 294.478 353.358L299.619 355.198L300.829 355.638L377.091 382.952C389.173 387.283 402.355 387.403 414.497 383.292L483.188 360.079L503.062 353.348C503.062 353.348 503.112 353.458 503.162 353.668C504.342 353.348 505.602 353.228 506.912 353.438C509.613 353.878 511.923 355.538 513.283 357.788C514.203 359.259 514.694 360.979 514.624 362.769C514.463 367.28 511.003 370.95 506.572 371.441C506.592 371.491 506.592 371.521 506.592 371.571C511.123 372.091 514.644 375.921 514.644 380.592C514.644 384.993 511.503 388.663 507.352 389.484C507.332 389.774 507.322 390.054 507.302 390.324C510.633 391.694 512.993 394.944 512.993 398.755Z" fill="url(#paint0_linear_4614_301147)"/>
<path d="M562.901 282.376C562.901 310.66 539.318 335.925 502.392 352.507C474.137 365.199 438.051 372.821 398.745 372.821C397.595 372.821 396.464 372.801 395.314 372.791C394.394 372.811 393.484 372.821 392.564 372.821C386.663 372.821 380.852 372.501 375.131 371.88C295.668 365.569 234.608 327.903 234.608 282.376C234.608 271.164 238.309 260.432 245.09 250.511C244.57 245.85 244.3 241.129 244.3 236.338C244.3 204.623 256.062 175.409 275.795 152.245C282.026 144.934 289.037 138.223 296.738 132.202C307.38 123.87 319.332 116.919 332.254 111.608C350.677 104.057 371.09 99.8463 392.564 99.8463C396.764 99.8463 400.925 100.006 405.036 100.336C409.707 100.676 414.337 101.247 418.878 102.007C429.47 103.757 439.681 106.537 449.353 110.238C453.784 111.918 458.104 113.799 462.295 115.869C509.023 138.833 540.818 184.17 540.818 236.328C540.818 236.558 540.798 236.799 540.798 237.029C554.87 250.361 562.901 265.843 562.901 282.376Z" fill="#FFD5B8" stroke="#FFD5B8" stroke-width="1.6171" stroke-miterlimit="10"/>
<path opacity="0.19" d="M449.363 110.248C447.863 111.738 446.322 112.378 444.862 111.618C438.341 108.208 427.929 123.28 420.908 128.231C413.887 133.182 382.372 141.853 361.449 139.473C347.496 137.882 330.474 131.931 330.474 131.931L335.564 115.869L401.915 100.926L405.036 100.346C409.707 100.686 414.337 101.257 418.878 102.017C429.49 103.757 439.691 106.547 449.363 110.248Z" fill="#726361" stroke="#726361" stroke-width="1.6171" stroke-miterlimit="10"/>
<path d="M249.681 199.802C249.681 199.802 220.496 204.353 223.806 228.027C227.117 251.701 255.191 230.777 255.191 230.777L249.681 199.802Z" fill="#FFD5B8" stroke="#FFD5B8" stroke-width="1.6171" stroke-miterlimit="10"/>
<path d="M524.285 180.049C524.285 180.049 553.47 184.6 550.159 208.274C546.849 231.948 518.774 211.024 518.774 211.024L524.285 180.049Z" fill="#FFD5B8" stroke="#FFD5B8" stroke-width="1.6171" stroke-miterlimit="10"/>
<path d="M474.327 256.632C477.978 256.632 480.938 246.283 480.938 233.518C480.938 220.753 477.978 210.404 474.327 210.404C470.676 210.404 467.716 220.753 467.716 233.518C467.716 246.283 470.676 256.632 474.327 256.632Z" fill="#726361" stroke="#726361" stroke-width="1.6171" stroke-miterlimit="10"/>
<path d="M375.771 256.632C379.422 256.632 382.382 246.283 382.382 233.518C382.382 220.753 379.422 210.404 375.771 210.404C372.12 210.404 369.16 220.753 369.16 233.518C369.16 246.283 372.12 256.632 375.771 256.632Z" fill="#726361" stroke="#726361" stroke-width="1.6171" stroke-miterlimit="10"/>
<path opacity="0.68" d="M502.402 352.497C474.147 365.189 438.061 372.81 398.755 372.81C397.605 372.81 396.474 372.79 395.324 372.78C394.404 372.8 393.494 372.81 392.574 372.81C386.673 372.81 380.862 372.49 375.141 371.87C295.678 365.559 234.618 327.893 234.618 282.366C234.618 271.154 238.319 260.422 245.1 250.501C244.58 245.84 244.31 241.119 244.31 236.328C244.31 204.613 256.072 175.398 275.805 152.235C282.036 144.923 289.047 138.212 296.748 132.191C289.377 160.136 276.205 215.005 279.405 239.299C283.816 272.614 263.583 331.494 355.938 351.657C418.488 365.329 465.746 362.869 502.402 352.497Z" fill="#EAB998"/>
<path d="M451.583 717.617C439.061 720.817 430.31 717.697 424.669 711.616C412.697 698.744 414.717 672.589 424.409 665.258C433.08 658.687 442.572 640.814 446.272 625.972C448.663 616.43 448.663 608.129 444.512 604.898C433.9 596.647 467.396 537.367 503.222 531.286H503.242C503.242 531.286 508.383 533.197 515.404 537.647C530.206 546.949 553.38 567.412 554.76 604.658C556.81 659.597 490.67 707.655 451.583 717.617Z" fill="#8DD4F7" stroke="#8DD4F7" stroke-width="1.6171" stroke-miterlimit="10"/>
<path opacity="0.21" d="M349.067 313.321C370.665 313.321 388.173 303.335 388.173 291.017C388.173 278.699 370.665 268.714 349.067 268.714C327.469 268.714 309.96 278.699 309.96 291.017C309.96 303.335 327.469 313.321 349.067 313.321Z" fill="#FF99E5" stroke="#FF99E5" stroke-width="1.6886" stroke-miterlimit="10"/>
<path opacity="0.16" d="M519.529 298.556C539.683 295.814 554.768 284.384 553.223 273.027C551.678 261.67 534.088 254.685 513.934 257.427C493.781 260.168 478.696 271.598 480.241 282.955C481.786 294.313 499.376 301.297 519.529 298.556Z" fill="#FF99E5" stroke="#FF99E5" stroke-width="1.5808" stroke-miterlimit="10"/>
<path d="M408.066 260.012C408.066 260.012 365.359 238.259 350.257 246.8C339.695 252.771 396.944 278.735 408.066 260.012Z" fill="#FFD5B8" stroke="#FFD5B8" stroke-width="1.6171" stroke-miterlimit="10"/>
<path d="M459.365 267.044C459.365 267.044 506.402 257.842 513.033 241.809C517.664 230.608 456.584 245.45 459.365 267.044Z" fill="#FFD5B8" stroke="#FFD5B8" stroke-width="1.6171" stroke-miterlimit="10"/>
<path d="M434.551 247.16C434.551 247.16 439.091 254.531 445.292 256.622C451.483 258.722 449.353 267.803 439.681 272.344C430.01 276.885 421.748 264.503 430.01 262.433C438.261 260.372 425.879 246.34 434.551 247.16Z" fill="#EAB998"/>
<path d="M376.181 233.518C377.468 233.518 378.511 230.392 378.511 226.537C378.511 222.681 377.468 219.556 376.181 219.556C374.894 219.556 373.851 222.681 373.851 226.537C373.851 230.392 374.894 233.518 376.181 233.518Z" fill="white" stroke="white" stroke-width="1.1372" stroke-miterlimit="10"/>
<path d="M460.845 327.993C457.834 332.454 453.614 336.435 447.873 338.215C439.561 340.775 431 336.255 424.309 330.824C416.938 324.853 411.837 317.772 411.837 317.772C411.837 317.772 428.29 318.712 439.671 317.772C451.053 316.852 464.985 311.791 466.846 309.41C468.106 307.81 466.996 318.912 460.845 327.993Z" fill="#AD7466"/>
<path d="M474.757 230.947C476.066 230.947 477.127 227.768 477.127 223.846C477.127 219.924 476.066 216.745 474.757 216.745C473.448 216.745 472.387 219.924 472.387 223.846C472.387 227.768 473.448 230.947 474.757 230.947Z" fill="white" stroke="white" stroke-width="1.1576" stroke-miterlimit="10"/>
<path d="M460.845 327.993C457.834 332.454 453.614 336.435 447.873 338.215C439.561 340.775 431 336.255 424.309 330.824C436.461 327.013 450.253 327.043 460.845 327.993Z" fill="#ED967E"/>
<path d="M462.305 115.879C439.261 113.938 409.777 112.758 409.777 112.758L418.898 102.017C434.321 104.557 448.923 109.288 462.305 115.879Z" fill="#BC7E50" stroke="#BC7E50" stroke-width="1.6171" stroke-miterlimit="10"/>
<path d="M376.601 132.402C361.959 133.972 296.078 128.231 326.083 94.9155C353.397 64.6006 386.513 86.1441 393.944 91.1049C401.375 96.0657 439.371 67.151 439.371 67.151C439.371 67.151 447.783 124.77 376.601 132.402Z" fill="#C99061" stroke="#C99061" stroke-width="1.6171" stroke-miterlimit="10"/>
<path d="M363.929 124.51C363.929 124.51 308.99 137.252 275.795 152.245C290.647 134.792 310 120.75 332.254 111.618C344.926 112.428 356.058 116.249 363.929 124.51Z" fill="#C99061" stroke="#C99061" stroke-width="1.6171" stroke-miterlimit="10"/>
<path opacity="0.68" d="M367.026 203.548C373.219 201.311 377.632 197.817 376.883 195.744C376.134 193.671 370.507 193.805 364.314 196.042C358.122 198.279 353.709 201.773 354.458 203.846C355.206 205.919 360.834 205.786 367.026 203.548Z" fill="#EAB998"/>
<path opacity="0.68" d="M483.457 196.438C483.679 194.245 478.549 191.93 471.998 191.267C465.447 190.604 459.957 191.844 459.735 194.037C459.513 196.23 464.643 198.545 471.194 199.208C477.745 199.871 483.235 198.631 483.457 196.438Z" fill="#EAB998"/>
<path d="M342.736 91.6151C335.995 93.9555 329.243 108.058 335.574 115.869C341.905 123.68 385.133 128.641 403.295 118.179C421.468 107.718 436.031 77.7128 436.031 77.7128C436.031 77.7128 403.045 103.837 392.574 99.8664C382.102 95.8858 361.779 85.004 342.736 91.6151Z" fill="#DBA379" stroke="#C99061" stroke-width="1.6171" stroke-miterlimit="10"/>
<path d="M449.233 625.472C418.198 631.103 381.562 632.203 349.797 627.522C353.497 642.774 369.21 665.138 380.932 671.259C396.784 679.52 403.075 730.729 362.869 727.428C322.672 724.128 249.46 687.782 242.289 633.263C237.419 596.197 257.012 572.113 270.024 560.491C266.533 529.596 271.254 488.819 278.455 450.153C269.434 449.363 259.642 449.813 250.801 454.604C228.517 466.686 217.775 499.451 208.294 493.42C207.164 492.69 205.703 491.96 204.053 491.17C213.905 463.465 231.438 440.952 251.361 432.85C265.233 427.209 281.176 424.299 288.337 427.839C301.839 434.521 305.68 440.712 305.29 446.663C305.23 447.713 305.02 449.833 304.739 452.794C302.649 474.547 300.389 511.333 302.819 531.286C306.54 561.831 333.054 590.326 370.49 595.697C417.148 602.388 446.693 578.214 451.703 591.976C454.214 598.867 452.974 612.92 449.233 625.472Z" fill="#6BBDDD" stroke="#6BBDDD" stroke-width="1.6171" stroke-miterlimit="10"/>
<path d="M324.323 125.441C321.982 124.32 319.242 124.43 316.901 125.571C309.93 128.971 292.968 137.362 291.657 139.173C290.007 141.443 329.443 129.881 327.793 128.641C326.643 127.781 326.613 126.541 324.323 125.441Z" fill="#DBA379" stroke="#DBA379" stroke-width="1.6171" stroke-miterlimit="10"/>
<path d="M395.684 729.038C393.854 731.109 390.943 732.779 386.543 733.989C385.543 734.259 384.452 734.519 383.292 734.749C375.041 736.37 366.339 733.409 358.598 726.988C349.287 719.257 341.345 706.525 337.205 690.722C336.715 688.882 336.315 687.052 335.955 685.241C334.144 675.99 333.964 667.048 335.174 659.107C332.744 659.077 330.304 657.067 329.303 654.026C328.103 650.386 329.403 646.695 332.214 645.775C332.404 645.715 332.604 645.695 332.794 645.665C332.734 645.485 332.664 645.305 332.604 645.115C332.344 644.335 332.164 643.575 332.054 642.814C331.424 638.774 332.754 635.193 335.434 634.303C336.565 633.933 337.765 634.073 338.945 634.643C337.735 629.972 339.465 625.412 343.066 624.211C345.186 623.511 347.496 624.131 349.407 625.672C350.897 626.882 352.137 628.652 352.867 630.782C353.127 630.652 353.417 630.552 353.687 630.442C353.637 630.022 353.627 629.602 353.627 629.182C353.627 623.501 357.278 618.891 361.799 618.891C366.309 618.891 369.97 623.501 369.97 629.182C369.97 629.832 369.92 630.472 369.82 631.103C370.31 631.293 370.79 631.503 371.28 631.713C371.78 625.272 376.121 620.161 381.612 619.921C387.673 619.651 392.854 625.372 393.174 632.713C393.414 638.014 391.043 642.694 387.433 644.985C388.583 646.525 389.653 648.155 390.623 649.866C395.154 657.937 397.324 667.758 395.034 678.12C394.844 679.01 394.674 679.9 394.534 680.791C391.023 702.654 403.806 719.847 395.684 729.038Z" fill="#FFD5B8" stroke="#FFD5B8" stroke-width="1.6171" stroke-miterlimit="10"/>
<path d="M394.494 663.007C391.884 656.536 388.163 634.653 388.163 634.653C385.683 633.142 372.881 641.124 369.97 643.914C367.05 646.695 397.104 669.478 394.494 663.007Z" fill="#FFD5B8" stroke="#FFD5B8" stroke-width="1.6886" stroke-miterlimit="10"/>
<path d="M375.051 638.454C373.991 638.013 373.091 637.393 372.22 636.663C371.35 635.933 370.59 635.023 370.04 633.943C368.83 631.813 368.92 628.942 369.89 626.752C370.14 626.212 370.43 625.691 370.7 625.161C371 624.671 371.32 624.221 371.64 623.751C371.97 623.291 372.34 622.851 372.701 622.401C373.081 621.971 373.481 621.551 373.891 621.141C375.601 619.58 377.711 618.23 380.132 617.76C382.512 617.21 385.083 617.5 387.323 618.64C388.623 619.35 389.353 620.301 390.063 621.201C390.773 622.111 391.304 623.081 391.814 624.061C392.804 626.022 393.524 628.102 393.894 630.262C394.264 632.373 394.244 634.743 393.164 636.603C393.424 635.573 393.454 634.553 393.314 633.543C393.144 632.543 392.894 631.562 392.534 630.612C391.834 628.712 390.873 626.922 389.753 625.271C389.173 624.461 388.583 623.661 387.933 622.971C387.293 622.291 386.573 621.641 385.973 621.431C384.422 620.781 382.572 620.751 380.892 621.171C379.202 621.591 377.611 622.511 376.221 623.731C375.881 624.051 375.541 624.371 375.201 624.701C374.891 625.061 374.561 625.401 374.261 625.771L373.391 626.922C373.161 627.302 372.901 627.682 372.67 628.072C371.88 629.642 371.56 631.342 372.16 633.033C372.691 634.723 374.011 636.353 375.521 637.623L375.551 637.653C375.761 637.833 375.781 638.143 375.611 638.344C375.471 638.484 375.241 638.534 375.051 638.454Z" fill="#EAB998"/>
<path d="M355.448 632.063C354.208 631.662 353.187 630.942 352.367 629.812C351.977 629.242 351.687 628.552 351.547 627.832C351.417 627.102 351.447 626.362 351.577 625.671C351.847 624.271 352.547 623.141 353.287 622.181C354.047 621.221 354.888 620.431 355.808 619.711C356.728 619 357.748 618.34 358.898 617.9C360.038 617.45 361.319 617.17 362.609 617.3C363.889 617.39 365.099 617.93 366.019 618.68C366.93 619.45 367.63 620.391 367.99 621.451C366.289 620.061 364.319 619.38 362.639 619.7C360.939 619.991 359.418 621.051 358.008 622.341C356.588 623.641 355.278 625.121 354.788 626.482C354.568 627.162 354.518 627.792 354.768 628.502C354.988 629.222 355.588 629.992 356.188 630.642L356.288 630.752C356.598 631.082 356.578 631.592 356.248 631.902C356.018 632.093 355.718 632.153 355.448 632.063Z" fill="#EAB998"/>
<path d="M340.985 636.933C339.895 636.603 339.025 636.013 338.275 635.163C337.555 634.313 337.145 633.173 337.125 632.082C337.085 630.982 337.355 629.952 337.745 629.032C337.935 628.562 338.145 628.112 338.405 627.702C338.645 627.272 338.895 626.852 339.195 626.472C339.475 626.071 339.765 625.681 340.115 625.321C340.285 625.141 340.445 624.951 340.625 624.781L341.205 624.301C341.996 623.691 342.916 623.171 343.946 623.031C344.956 622.871 345.976 623.031 346.866 623.411C347.766 623.781 348.507 624.371 349.257 624.911C348.387 624.561 347.576 624.111 346.696 623.941C345.836 623.741 344.946 623.731 344.156 623.981C342.556 624.481 341.395 625.861 340.495 627.332C339.625 628.822 338.855 630.492 338.935 632.002C338.955 632.753 339.195 633.443 339.665 634.013C339.875 634.313 340.175 634.563 340.475 634.803C340.785 635.023 341.165 635.243 341.455 635.373L341.545 635.413C341.955 635.593 342.136 636.073 341.955 636.473C341.785 636.873 341.365 637.053 340.985 636.933Z" fill="#EAB998"/>
<path d="M334.474 635.153C333.544 635.783 333.154 637.023 333.014 638.404C332.894 639.784 332.934 641.254 332.984 642.744C333.014 643.554 332.984 644.115 333.214 644.685C333.424 645.255 333.814 645.805 334.304 646.285C334.784 646.775 335.384 647.195 336.015 647.565C336.645 647.945 337.315 648.265 338.015 648.555C336.495 648.465 334.974 648.035 333.604 647.155C332.934 646.695 332.304 646.095 331.894 645.295C331.694 644.905 331.544 644.475 331.454 644.025C331.364 643.544 331.364 643.244 331.314 642.844C331.174 641.344 331.024 639.814 331.204 638.214C331.294 637.413 331.444 636.583 331.814 635.773C332.184 634.973 332.814 634.183 333.654 633.763C334.054 633.563 334.544 633.713 334.744 634.113C334.934 634.483 334.804 634.933 334.474 635.153Z" fill="#EAB998"/>
<path d="M335.324 662.047C333.844 661.207 332.534 660.227 331.304 659.067C330.104 657.896 328.993 656.566 328.263 654.946C327.913 654.126 327.653 653.246 327.623 652.306C327.603 651.395 327.693 650.555 327.933 649.715C328.163 648.875 328.533 648.075 329.043 647.385C329.293 647.035 329.584 646.715 329.904 646.445C330.064 646.305 330.234 646.175 330.414 646.065L330.544 645.985L330.614 645.945H330.624C330.624 645.945 330.634 645.944 330.624 645.954C330.554 645.994 330.804 646.175 330.724 646.085H330.714L330.674 646.095L330.384 646.205L330.594 645.985L330.624 645.954L330.644 645.935C330.564 645.845 330.814 646.035 330.744 646.065L330.734 646.075L330.724 646.085L330.684 646.145L330.594 646.265C330.484 646.425 330.384 646.605 330.284 646.775C330.094 647.115 329.934 647.465 329.804 647.825C329.534 648.535 329.373 649.265 329.273 650.005C329.203 650.735 329.163 651.505 329.253 652.206C329.323 652.876 329.574 653.546 329.904 654.176C330.564 655.456 331.564 656.616 332.654 657.686C333.734 658.757 334.954 659.777 336.165 660.687L336.195 660.707C336.555 660.977 336.625 661.487 336.355 661.837C336.125 662.157 335.674 662.237 335.324 662.047Z" fill="#EAB998"/>
<path opacity="0.32" d="M382.362 624.231C374.851 627.302 374.811 633.583 380.502 638.114C388.243 644.275 391.113 620.661 382.362 624.231Z" fill="white" stroke="white" stroke-width="1.9996" stroke-miterlimit="10"/>
<path opacity="0.32" d="M362.009 622.401C361.079 622.741 357.468 623.781 358.708 627.632C359.938 631.483 369.44 619.651 362.009 622.401Z" fill="white" stroke="white" stroke-width="1.6171" stroke-miterlimit="10"/>
<path opacity="0.32" d="M343.636 625.191C343.636 625.191 339.295 629.832 339.975 631.342C340.665 632.863 347.766 622.981 343.636 625.191Z" fill="white" stroke="white" stroke-width="1.6171" stroke-miterlimit="10"/>
<path opacity="0.32" d="M338.965 637.873C338.985 637.453 336.115 634.703 335.154 637.043C334.194 639.384 338.795 641.754 338.965 637.873Z" fill="white" stroke="white" stroke-width="1.6171" stroke-miterlimit="10"/>
<path opacity="0.32" d="M333.044 650.256C333.054 649.705 331.624 646.105 331.134 649.175C330.664 652.236 332.964 655.346 333.044 650.256Z" fill="white" stroke="white" stroke-width="1.3087" stroke-miterlimit="10"/>
<path d="M359.288 632.342C359.528 632.523 359.968 632.723 360.349 632.853C360.749 632.993 361.179 633.093 361.619 633.153C362.499 633.263 363.429 633.233 364.349 633.063C363.519 633.493 362.609 633.803 361.639 633.963C361.149 634.033 360.659 634.073 360.148 634.053C359.628 634.023 359.158 633.983 358.558 633.783L358.528 633.773C358.098 633.623 357.868 633.163 358.008 632.733C358.158 632.302 358.618 632.072 359.048 632.212C359.138 632.242 359.218 632.282 359.288 632.342Z" fill="#EAB998"/>
<path d="M380.282 644.254C382.232 644.515 383.982 644.675 385.623 644.445C386.443 644.345 387.203 644.094 387.983 643.814C388.793 643.564 389.523 643.114 390.513 642.714C390.253 643.704 389.653 644.625 388.783 645.235C387.933 645.875 386.873 646.235 385.823 646.285C384.772 646.365 383.732 646.195 382.792 645.855C381.842 645.475 380.962 644.985 380.282 644.254Z" fill="#EAB998"/>
<path d="M333.044 669.408C334.894 675.309 336.735 681.13 338.665 686.911C340.625 692.672 342.706 698.373 345.066 703.934C347.426 709.485 350.097 714.876 353.327 719.927C356.638 724.888 360.519 729.538 365.789 732.809C362.799 731.949 360.038 730.318 357.548 728.398C355.078 726.438 352.847 724.167 350.887 721.697C346.966 716.756 343.946 711.185 341.495 705.464C339.055 699.723 337.145 693.792 335.745 687.762C334.324 681.721 333.304 675.599 333.044 669.408Z" fill="#EAB998"/>
<path opacity="0.31" d="M395.684 729.038C393.854 731.109 390.943 732.779 386.543 733.989C385.543 734.259 384.452 734.519 383.292 734.749C375.041 736.369 366.339 733.409 358.598 726.988C349.287 719.257 341.345 706.525 337.205 690.722C336.715 688.882 336.315 687.051 335.955 685.241C334.144 675.99 333.964 667.048 335.174 659.107C332.744 659.077 330.304 657.067 329.303 654.026C328.103 650.386 329.403 646.695 332.214 645.775C332.404 645.715 332.604 645.695 332.794 645.665C332.734 645.485 332.664 645.305 332.604 645.115C332.344 644.335 332.164 643.574 332.054 642.814C334.434 645.755 337.535 649.205 339.915 650.466C344.326 652.796 334.384 654.996 346.706 692.712C346.866 693.202 347.026 693.683 347.196 694.183C352.987 711.535 361.829 725.748 395.684 729.038Z" fill="#EAB998" stroke="#EAB998" stroke-width="1.6171" stroke-miterlimit="10"/>
<path opacity="0.31" d="M395.684 729.038C393.854 731.109 390.943 732.779 386.543 733.989C385.543 734.259 384.452 734.519 383.292 734.749C375.041 736.369 366.339 733.409 358.598 726.988C349.287 719.257 341.345 706.525 337.205 690.722C336.715 688.882 336.315 687.051 335.955 685.241C338.725 687.572 342.296 690.432 346.706 692.712C352.127 695.543 361.859 701.964 369.76 701.104C382.242 699.734 388.693 686.111 394.534 680.8C391.023 702.654 403.806 719.847 395.684 729.038Z" fill="#EAB998" stroke="#EAB998" stroke-width="1.6171" stroke-miterlimit="10"/>
<path opacity="0.15" d="M361.629 645.985C363.029 645.915 386.223 647.525 386.223 657.017C386.223 666.518 383.942 673.539 382.082 680.551C380.232 687.572 370.24 694.383 364.809 691.082C359.388 687.782 330.014 647.545 361.629 645.985Z" fill="white" stroke="white" stroke-width="1.9996" stroke-miterlimit="10"/>
<path opacity="0.15" d="M364.819 704.925C364.819 704.925 388.503 692.123 389.123 703.064C389.743 714.006 380.242 724.748 373.641 720.407C367.04 716.066 356.358 709.155 364.819 704.925Z" fill="white" stroke="white" stroke-width="1.9996" stroke-miterlimit="10"/>
<path d="M395.684 660.737C396.674 664.348 397.204 668.058 397.465 671.789C397.615 673.659 397.595 675.54 397.565 677.42C397.485 679.31 397.295 681.2 396.994 683.091C396.364 686.641 396.024 690.212 396.084 693.843C396.114 697.463 396.514 701.174 396.424 704.914C395.414 701.324 394.434 697.743 394.004 693.973C393.544 690.212 393.684 686.351 394.364 682.621C394.994 679.11 395.204 675.47 395.384 671.809L395.684 660.737Z" fill="#EAB998"/>
<path opacity="0.56" d="M579.644 495.45C571.363 489.499 560.961 466.956 543.298 457.394C530.226 450.313 515.074 452.723 503.402 454.534C508.383 483.648 512.633 513.243 515.404 537.647C530.206 546.949 553.38 567.412 554.76 604.658C556.81 659.597 490.68 707.655 451.583 717.616C439.061 720.817 430.31 717.696 424.669 711.615C426.839 711.035 429.26 710.495 431.93 710.015C490.22 699.633 520.034 649.795 536.027 621.981C545.249 605.968 531.226 588.035 518.514 572.533C509.163 561.151 500.541 551.089 502.402 544.078C503.272 540.828 503.472 536.407 503.222 531.286C502.232 510.403 493.82 477.717 492.5 463.125C492.26 460.375 492.27 457.934 492.56 455.764C493.38 449.993 496.261 446.242 501.551 443.992C507.292 441.552 515.884 440.871 527.736 441.272C554.09 442.172 578.024 493.02 579.644 495.45Z" fill="#6BBDDD" stroke="#6BBDDD" stroke-width="1.6171" stroke-miterlimit="10"/>
<path d="M416.528 729.038C418.358 731.108 421.268 732.779 425.669 733.989C426.669 734.259 427.759 734.519 428.92 734.749C437.171 736.369 445.872 733.409 453.614 726.988C462.925 719.256 470.866 706.524 475.007 690.722C475.497 688.881 475.897 687.051 476.257 685.241C478.068 675.989 478.248 667.048 477.037 659.107C479.468 659.077 481.908 657.066 482.908 654.026C484.109 650.385 482.808 646.695 479.998 645.774C479.808 645.714 479.608 645.694 479.418 645.664C479.478 645.484 479.548 645.304 479.608 645.114C479.868 644.334 480.048 643.574 480.158 642.814C480.788 638.773 479.458 635.193 476.777 634.303C475.647 633.933 474.447 634.072 473.267 634.643C474.477 629.972 472.747 625.411 469.146 624.211C467.026 623.511 464.715 624.131 462.805 625.671C461.315 626.881 460.075 628.652 459.345 630.782C459.085 630.652 458.794 630.552 458.524 630.442C458.574 630.022 458.584 629.602 458.584 629.182C458.584 623.501 454.934 618.89 450.413 618.89C445.902 618.89 442.242 623.501 442.242 629.182C442.242 629.832 442.292 630.472 442.392 631.102C441.902 631.292 441.422 631.502 440.932 631.712C440.431 625.271 436.091 620.16 430.6 619.92C424.539 619.65 419.358 625.371 419.038 632.712C418.798 638.013 421.168 642.694 424.779 644.984C423.629 646.525 422.559 648.155 421.588 649.865C417.058 657.936 414.887 667.758 417.178 678.12C417.368 679.01 417.538 679.9 417.678 680.79C421.188 702.654 408.406 719.846 416.528 729.038Z" fill="#FFD5B8" stroke="#FFD5B8" stroke-width="1.6171" stroke-miterlimit="10"/>
<path d="M417.718 663.007C420.328 656.536 424.049 634.653 424.049 634.653C426.529 633.142 439.331 641.124 442.242 643.914C445.162 646.695 415.097 669.478 417.718 663.007Z" fill="#FFD5B8" stroke="#FFD5B8" stroke-width="1.6886" stroke-miterlimit="10"/>
<path d="M436.681 637.593C438.191 636.323 439.501 634.703 440.041 633.003C440.642 631.312 440.321 629.612 439.531 628.042C439.311 627.652 439.051 627.272 438.811 626.892L437.941 625.741C437.641 625.371 437.311 625.031 437.001 624.671C436.671 624.341 436.321 624.021 435.981 623.701C434.581 622.491 433 621.571 431.31 621.141C429.63 620.711 427.779 620.751 426.229 621.401C425.629 621.621 424.909 622.261 424.269 622.941C423.619 623.631 423.029 624.431 422.449 625.241C421.328 626.892 420.368 628.692 419.668 630.582C419.318 631.532 419.058 632.513 418.888 633.513C418.748 634.523 418.778 635.543 419.038 636.573C417.958 634.713 417.938 632.343 418.308 630.232C418.678 628.082 419.398 626.002 420.388 624.031C420.908 623.061 421.428 622.081 422.139 621.171C422.849 620.271 423.579 619.33 424.879 618.61C427.129 617.48 429.69 617.18 432.07 617.73C434.491 618.2 436.591 619.55 438.311 621.111C438.721 621.521 439.121 621.941 439.501 622.371C439.851 622.821 440.221 623.261 440.562 623.721C440.872 624.191 441.202 624.641 441.502 625.131C441.782 625.661 442.062 626.182 442.312 626.722C443.282 628.912 443.372 631.782 442.162 633.913C441.612 634.993 440.842 635.903 439.981 636.633C439.101 637.363 438.201 637.983 437.151 638.424C436.901 638.534 436.611 638.414 436.501 638.163C436.411 637.963 436.481 637.733 436.641 637.593H436.681Z" fill="#EAB998"/>
<path d="M456.024 630.632C456.634 629.982 457.224 629.212 457.444 628.492C457.694 627.772 457.644 627.142 457.424 626.471C456.934 625.111 455.624 623.631 454.204 622.331C452.794 621.041 451.273 619.98 449.573 619.69C447.883 619.37 445.912 620.05 444.222 621.441C444.582 620.39 445.272 619.44 446.192 618.67C447.113 617.92 448.323 617.39 449.603 617.29C450.883 617.15 452.173 617.44 453.314 617.89C454.464 618.34 455.484 618.99 456.404 619.7C457.324 620.42 458.164 621.211 458.925 622.171C459.665 623.131 460.365 624.261 460.635 625.661C460.765 626.351 460.795 627.102 460.665 627.822C460.525 628.542 460.225 629.232 459.845 629.802C459.015 630.942 457.994 631.662 456.764 632.052C456.334 632.192 455.884 631.952 455.744 631.522C455.654 631.232 455.734 630.932 455.924 630.722L456.024 630.632Z" fill="#EAB998"/>
<path d="M470.746 635.393C471.036 635.263 471.427 635.043 471.727 634.823C472.027 634.582 472.327 634.332 472.537 634.032C473.007 633.462 473.247 632.772 473.267 632.022C473.347 630.512 472.577 628.842 471.707 627.351C470.806 625.871 469.656 624.491 468.046 624.001C467.256 623.751 466.376 623.761 465.506 623.961C464.625 624.131 463.805 624.581 462.945 624.931C463.695 624.391 464.435 623.801 465.336 623.431C466.226 623.061 467.246 622.901 468.256 623.051C469.286 623.181 470.216 623.701 470.996 624.321L471.577 624.801C471.757 624.981 471.917 625.161 472.087 625.341C472.437 625.701 472.727 626.091 473.007 626.491C473.307 626.871 473.557 627.301 473.797 627.721C474.057 628.131 474.267 628.582 474.457 629.052C474.847 629.972 475.117 631.002 475.077 632.102C475.047 633.192 474.637 634.332 473.927 635.183C473.177 636.033 472.317 636.613 471.217 636.953C470.786 637.083 470.336 636.843 470.206 636.423C470.086 636.033 470.276 635.613 470.646 635.453L470.746 635.393Z" fill="#EAB998"/>
<path d="M478.558 633.763C479.398 634.193 480.028 634.983 480.398 635.773C480.768 636.583 480.918 637.413 481.008 638.213C481.188 639.814 481.038 641.354 480.898 642.844C480.848 643.244 480.848 643.544 480.758 644.024C480.668 644.464 480.518 644.894 480.318 645.295C479.908 646.085 479.268 646.695 478.608 647.155C477.237 648.035 475.717 648.465 474.197 648.555C474.897 648.265 475.577 647.945 476.197 647.565C476.827 647.205 477.427 646.785 477.908 646.285C478.398 645.805 478.788 645.265 478.998 644.684C479.228 644.104 479.188 643.544 479.228 642.744C479.268 641.254 479.318 639.784 479.198 638.403C479.058 637.023 478.668 635.783 477.738 635.153C477.368 634.903 477.267 634.403 477.518 634.023C477.748 633.693 478.198 633.583 478.558 633.763Z" fill="#EAB998"/>
<path d="M476.037 660.667C477.247 659.757 478.468 658.737 479.548 657.667C480.638 656.597 481.638 655.436 482.298 654.156C482.628 653.526 482.878 652.856 482.948 652.186C483.038 651.486 482.998 650.716 482.928 649.986C482.838 649.245 482.668 648.515 482.398 647.805C482.268 647.445 482.098 647.095 481.918 646.755C481.818 646.585 481.728 646.415 481.608 646.245L481.518 646.125L481.478 646.065L481.468 646.055L481.458 646.045C481.378 646.005 481.628 645.815 481.558 645.915L481.578 645.935L481.608 645.965L481.818 646.185L481.528 646.075L481.488 646.065H481.478C481.408 646.155 481.658 645.975 481.578 645.935C481.568 645.925 481.578 645.925 481.578 645.925H481.588L481.658 645.965L481.788 646.045C481.968 646.165 482.138 646.285 482.298 646.425C482.618 646.705 482.908 647.025 483.158 647.365C483.669 648.055 484.039 648.855 484.269 649.695C484.509 650.546 484.589 651.386 484.579 652.286C484.549 653.216 484.289 654.106 483.939 654.926C483.198 656.547 482.098 657.887 480.898 659.047C479.668 660.207 478.358 661.187 476.877 662.027C476.487 662.247 475.997 662.107 475.777 661.717C475.577 661.357 475.677 660.907 475.997 660.667H476.037Z" fill="#EAB998"/>
<path opacity="0.32" d="M429.85 624.231C437.361 627.301 437.401 633.582 431.71 638.113C423.959 644.274 421.098 620.66 429.85 624.231Z" fill="white" stroke="white" stroke-width="1.9996" stroke-miterlimit="10"/>
<path opacity="0.32" d="M450.203 622.401C451.133 622.741 454.744 623.781 453.504 627.632C452.263 631.483 442.772 619.651 450.203 622.401Z" fill="white" stroke="white" stroke-width="1.6171" stroke-miterlimit="10"/>
<path opacity="0.32" d="M468.566 625.191C468.566 625.191 472.907 629.832 472.227 631.342C471.537 632.863 464.445 622.981 468.566 625.191Z" fill="white" stroke="white" stroke-width="1.6171" stroke-miterlimit="10"/>
<path opacity="0.32" d="M473.247 637.873C473.227 637.453 476.097 634.703 477.057 637.043C478.018 639.384 473.417 641.754 473.247 637.873Z" fill="white" stroke="white" stroke-width="1.6171" stroke-miterlimit="10"/>
<path opacity="0.32" d="M479.158 650.256C479.148 649.705 480.578 646.105 481.068 649.175C481.548 652.236 479.248 655.346 479.158 650.256Z" fill="white" stroke="white" stroke-width="1.3087" stroke-miterlimit="10"/>
<path d="M453.654 633.783C453.054 633.983 452.583 634.023 452.063 634.053C451.553 634.073 451.053 634.043 450.573 633.963C449.603 633.803 448.693 633.493 447.863 633.063C448.783 633.233 449.713 633.273 450.593 633.153C451.033 633.093 451.463 632.993 451.863 632.853C452.253 632.723 452.684 632.523 452.924 632.343C453.284 632.063 453.804 632.133 454.074 632.493C454.354 632.853 454.284 633.373 453.924 633.643C453.854 633.703 453.774 633.743 453.684 633.773L453.654 633.783Z" fill="#EAB998"/>
<path d="M431.93 644.254C431.25 644.984 430.36 645.484 429.43 645.844C428.49 646.195 427.449 646.355 426.399 646.275C425.349 646.215 424.289 645.854 423.439 645.224C422.569 644.614 421.979 643.694 421.708 642.704C422.689 643.104 423.419 643.554 424.239 643.804C425.019 644.084 425.769 644.334 426.599 644.434C428.23 644.664 429.98 644.504 431.93 644.254Z" fill="#EAB998"/>
<path d="M479.158 669.408C478.908 675.599 477.878 681.721 476.467 687.751C475.067 693.782 473.157 699.723 470.716 705.454C468.266 711.175 465.246 716.746 461.325 721.687C459.365 724.157 457.134 726.428 454.664 728.388C452.173 730.308 449.403 731.939 446.422 732.799C451.693 729.528 455.574 724.877 458.884 719.917C462.105 714.876 464.785 709.485 467.146 703.924C469.496 698.363 471.577 692.672 473.547 686.901C475.467 681.13 477.307 675.309 479.158 669.408Z" fill="#EAB998"/>
<path opacity="0.31" d="M416.528 729.038C418.358 731.109 421.268 732.779 425.669 733.989C426.669 734.259 427.759 734.519 428.92 734.749C437.171 736.369 445.872 733.409 453.614 726.988C462.925 719.257 470.866 706.525 475.007 690.722C475.497 688.882 475.897 687.051 476.257 685.241C478.068 675.99 478.248 667.048 477.037 659.107C479.468 659.077 481.908 657.067 482.908 654.026C484.109 650.386 482.808 646.695 479.998 645.775C479.808 645.715 479.608 645.695 479.418 645.665C479.478 645.485 479.548 645.305 479.608 645.115C479.868 644.335 480.048 643.574 480.158 642.814C477.778 645.755 474.677 649.205 472.297 650.466C467.886 652.796 477.828 654.996 465.506 692.712C465.346 693.202 465.186 693.683 465.015 694.183C459.225 711.535 450.373 725.748 416.528 729.038Z" fill="#EAB998" stroke="#EAB998" stroke-width="1.6171" stroke-miterlimit="10"/>
<path opacity="0.31" d="M416.528 729.038C418.358 731.109 421.268 732.779 425.669 733.989C426.669 734.259 427.759 734.519 428.92 734.749C437.171 736.369 445.872 733.409 453.614 726.988C462.925 719.257 470.866 706.525 475.007 690.722C475.497 688.882 475.897 687.051 476.257 685.241C473.487 687.572 469.916 690.432 465.506 692.712C460.085 695.543 450.353 701.964 442.452 701.104C429.97 699.734 423.519 686.111 417.678 680.8C421.188 702.654 408.406 719.847 416.528 729.038Z" fill="#EAB998" stroke="#EAB998" stroke-width="1.6171" stroke-miterlimit="10"/>
<path opacity="0.15" d="M450.573 645.984C449.173 645.914 425.979 647.525 425.979 657.016C425.979 666.518 428.26 673.539 430.12 680.55C431.97 687.571 441.962 694.382 447.393 691.082C452.814 687.781 482.198 647.545 450.573 645.984Z" fill="white" stroke="white" stroke-width="1.9996" stroke-miterlimit="10"/>
<path opacity="0.15" d="M447.383 704.924C447.383 704.924 423.699 692.122 423.079 703.064C422.459 714.006 431.96 724.747 438.561 720.407C445.162 716.066 455.854 709.155 447.383 704.924Z" fill="white" stroke="white" stroke-width="1.9996" stroke-miterlimit="10"/>
<path d="M416.528 660.737L416.838 671.819C417.008 675.48 417.218 679.11 417.858 682.631C418.528 686.361 418.668 690.232 418.218 693.983C417.778 697.753 416.798 701.334 415.798 704.924C415.707 701.174 416.108 697.473 416.138 693.853C416.188 690.222 415.858 686.651 415.227 683.101C414.927 681.21 414.737 679.32 414.657 677.43C414.627 675.54 414.617 673.659 414.757 671.799C414.997 668.058 415.527 664.348 416.528 660.737Z" fill="#EAB998"/>
<path opacity="0.18" d="M320.102 530.326C318.072 548.729 328.543 573.683 379.212 574.923C429.88 576.164 496.611 550.969 483.889 526.195C471.166 501.421 328.143 457.314 320.102 530.326Z" fill="white" stroke="white" stroke-width="1.9996" stroke-miterlimit="10"/>
<g opacity="0.3">
<path opacity="0.3" d="M324.733 247.34C325.683 247.33 326.363 247.37 327.153 247.4L329.423 247.52C330.924 247.62 332.414 247.74 333.904 247.88C336.875 248.16 339.815 248.53 342.746 248.98C348.607 249.901 354.408 251.131 360.078 252.821C365.749 254.501 371.31 256.632 376.541 259.412C379.142 260.822 381.672 262.353 384.032 264.113C386.393 265.883 388.593 267.824 390.573 269.954C390.953 270.364 390.923 270.994 390.523 271.374C390.173 271.704 389.653 271.724 389.273 271.464L389.253 271.454C386.973 269.884 384.562 268.564 382.072 267.443C379.582 266.333 376.991 265.463 374.391 264.723C369.15 263.283 363.769 262.493 358.358 262.123C352.947 261.743 347.506 261.813 342.106 262.153C339.405 262.333 336.705 262.593 334.044 262.923C332.714 263.093 331.384 263.273 330.064 263.483L328.113 263.813C327.503 263.923 326.773 264.053 326.323 264.173C321.752 265.363 317.081 262.623 315.881 258.052C314.691 253.481 317.432 248.81 322.002 247.61C322.692 247.43 323.383 247.34 324.063 247.33L324.733 247.34Z" fill="white"/>
</g>
<g opacity="0.34">
<path opacity="0.34" d="M534.787 250.061C532.596 249.981 530.156 250.001 527.826 250.061C525.465 250.121 523.105 250.241 520.755 250.411C516.044 250.751 511.343 251.321 506.712 252.191C502.082 253.071 497.521 254.261 493.19 256.002C488.909 257.782 484.779 260.122 481.748 263.633L481.728 263.653C481.368 264.073 480.738 264.123 480.318 263.753C479.938 263.423 479.868 262.873 480.128 262.463C482.878 258.122 487.039 254.901 491.35 252.321C495.72 249.771 500.361 247.8 505.092 246.16C509.823 244.53 514.654 243.22 519.524 242.139C521.965 241.599 524.405 241.109 526.876 240.689C529.366 240.259 531.756 239.879 534.417 239.589C537.307 239.269 539.908 241.349 540.228 244.23C540.548 247.12 538.467 249.721 535.587 250.041C535.337 250.071 535.087 250.081 534.847 250.071L534.787 250.061Z" fill="white"/>
</g>
<path d="M507.502 148.874C512.923 154.905 517.844 161.366 522.405 168.097C524.665 171.478 526.846 174.918 528.826 178.499C530.836 182.06 532.666 185.75 534.167 189.621C534.937 191.531 535.587 193.582 536.117 195.572C536.627 197.552 537.107 199.532 537.567 201.513C538.497 205.473 539.198 209.484 539.898 213.475C541.158 221.496 542.148 229.547 542.438 237.669L542.258 237.339C545.389 239.599 548.119 242.279 550.669 245.15C553.2 248.04 555.45 251.191 557.371 254.541C559.261 257.912 560.841 261.493 561.911 265.243C562.431 267.123 562.851 269.034 563.161 270.954C563.421 272.854 563.642 274.755 563.802 276.665C564.112 280.486 564.192 284.336 563.882 288.177C563.601 292.018 562.961 295.838 561.861 299.529C560.781 303.219 559.241 306.79 557.23 310.05C555.21 313.301 552.8 316.301 549.989 318.832C554.92 313.081 558.261 306.22 559.901 299.009C561.571 291.787 561.641 284.296 560.911 276.915C560.721 275.065 560.471 273.224 560.181 271.394C559.891 269.594 559.511 267.814 559.021 266.053C557.991 262.553 556.64 259.122 554.9 255.882C551.49 249.361 546.909 243.36 541.638 238.109L541.508 238.029L541.448 237.789C539.628 229.907 538.047 221.996 536.327 214.145C535.517 210.204 534.597 206.304 533.717 202.393C533.257 200.443 532.786 198.502 532.266 196.572C531.786 194.642 531.256 192.831 530.566 190.981C527.806 183.62 524.025 176.519 520.074 169.538C516.094 162.566 511.843 155.715 507.502 148.874Z" fill="#EAB998"/>
<path d="M258.602 397.714C251.891 401.245 245.28 404.876 238.759 408.626C235.508 410.517 232.268 412.427 229.087 414.427C225.877 416.367 222.756 418.458 219.656 420.548C216.535 422.629 213.535 424.869 210.564 427.129C207.584 429.4 204.723 431.8 201.953 434.31C196.402 439.321 191.361 444.892 187.28 451.293C190.251 444.292 194.952 438.041 200.293 432.6C201.613 431.21 203.003 429.9 204.403 428.599C205.843 427.339 207.264 426.059 208.744 424.859C211.674 422.408 214.765 420.158 217.895 417.978C221.026 415.797 224.266 413.787 227.537 411.837C230.837 409.936 234.168 408.096 237.569 406.406C239.269 405.566 240.979 404.736 242.699 403.935C244.43 403.155 246.17 402.385 247.92 401.645C251.431 400.215 254.971 398.825 258.602 397.714Z" fill="#6BBDDD"/>
</g>
<defs>
<linearGradient id="paint0_linear_4614_301147" x1="398.763" y1="436.236" x2="398.763" y2="366.297" gradientUnits="userSpaceOnUse">
<stop stop-color="white"/>
<stop offset="0.188" stop-color="#FAFCFD"/>
<stop offset="0.4001" stop-color="#EDF5F7"/>
<stop offset="0.6241" stop-color="#D6E8EE"/>
<stop offset="0.8546" stop-color="#B7D6E0"/>
<stop offset="1" stop-color="#9FC9D6"/>
</linearGradient>
<clipPath id="clip0_4614_301147">
<rect width="799.87" height="799.87" fill="white" transform="scale(1.00016)"/>
</clipPath>
</defs>
</svg>
