<svg width="140" height="140" viewBox="0 0 140 140" fill="none" xmlns="http://www.w3.org/2000/svg">
<path d="M70.2115 117.078C98.2612 117.078 121 95.7798 121 69.5068C121 43.2339 98.2612 21.9354 70.2115 21.9354C42.1619 21.9354 19.4231 43.2339 19.4231 69.5068C19.4231 95.7798 42.1619 117.078 70.2115 117.078Z" fill="#EDCD24"/>
<path d="M70.2115 117.078C98.2612 117.078 121 95.7798 121 69.5068C121 43.2339 98.2612 21.9354 70.2115 21.9354C42.1619 21.9354 19.4231 43.2339 19.4231 69.5068C19.4231 95.7798 42.1619 117.078 70.2115 117.078Z" stroke="#D07D00" stroke-width="0.994477" stroke-miterlimit="10" stroke-linecap="round" stroke-linejoin="round"/>
<path d="M70.2116 113.457C96.6423 113.457 118.069 93.7798 118.069 69.5069C118.069 45.2339 96.6423 25.5568 70.2116 25.5568C43.7808 25.5568 22.3545 45.2339 22.3545 69.5069C22.3545 93.7798 43.7808 113.457 70.2116 113.457Z" fill="#FFE86F"/>
<path d="M70.2116 113.457C96.6423 113.457 118.069 93.7798 118.069 69.5069C118.069 45.2339 96.6423 25.5568 70.2116 25.5568C43.7808 25.5568 22.3545 45.2339 22.3545 69.5069C22.3545 93.7798 43.7808 113.457 70.2116 113.457Z" stroke="#D07D00" stroke-width="0.994477" stroke-miterlimit="10" stroke-linecap="round" stroke-linejoin="round"/>
<path d="M70.5286 80.2807C68.4815 89.7384 55.2171 91.15 49.4683 80.2242C43.7194 69.2984 52.2445 48.322 64.7517 43.1838C73.0805 39.7677 78.3526 45.4706 78.4648 51.7381C78.577 58.0056 68.846 59.9819 67.9767 66.7858C67.1073 73.6179 72.0429 73.2509 70.5286 80.2807Z" fill="#FFF4CB" stroke="#F99E17" stroke-width="0.662985" stroke-miterlimit="10"/>
</svg>
