<svg width="140" height="140" viewBox="0 0 140 140" fill="none" xmlns="http://www.w3.org/2000/svg">
<path d="M64.043 19.3657C63.4034 18.5738 62.8551 17.7209 62.3678 16.8376C61.8804 15.9543 61.4845 15.0101 61.2408 14.0354C60.9667 13.0607 60.8448 12.0556 60.9058 11.0504C60.9667 10.0453 61.2408 9.07062 61.6977 8.18732C61.3017 9.10108 61.0885 10.0758 61.058 11.0809C61.058 12.0556 61.2103 13.0607 61.5149 13.9745C62.1241 15.8325 63.2206 17.5382 64.4999 19.0002C64.6217 19.122 64.5913 19.3048 64.4694 19.4266C64.3476 19.5484 64.1648 19.518 64.043 19.3657Z" fill="#985F0A"/>
<path d="M64.7436 16.5025C64.3476 15.8324 64.0735 15.1014 63.8603 14.3704C63.647 13.6394 63.5557 12.8779 63.5557 12.1165C63.5557 11.355 63.6775 10.5935 63.9516 9.89296C64.2258 9.19241 64.6522 8.55277 65.17 8.03497C64.6826 8.61369 64.3171 9.25333 64.1039 9.95388C63.8603 10.6544 63.7993 11.3854 63.8603 12.1165C63.9212 12.8475 64.0735 13.548 64.2867 14.2486C64.5303 14.9187 64.8349 15.5888 65.2309 16.1675C65.3223 16.3198 65.2918 16.5025 65.1395 16.5939C65.0481 16.6853 64.8654 16.6548 64.7436 16.5025C64.774 16.5025 64.774 16.5025 64.7436 16.5025Z" fill="#985F0A"/>
<path d="M66.0227 15.0101C65.7486 14.2791 65.7486 13.5176 65.8705 12.7866C65.9923 12.0556 66.2664 11.3855 66.6319 10.7763C66.9974 10.1671 67.4848 9.61887 68.0635 9.2229C68.6422 8.79648 69.3123 8.52235 69.9824 8.37006C69.3123 8.58327 68.7031 8.91831 68.1549 9.34474C67.6371 9.77116 67.1802 10.3194 66.8756 10.9286C66.571 11.5378 66.3578 12.2079 66.2969 12.8475C66.236 13.5176 66.2969 14.1877 66.5406 14.7664C66.6015 14.9187 66.5406 15.1014 66.3883 15.1624C66.2664 15.2537 66.1141 15.1928 66.0227 15.0101C66.0227 15.0405 66.0227 15.0101 66.0227 15.0101Z" fill="#985F0A"/>
<path d="M68.7338 13.7612L68.7034 13.4567L68.7338 13.1825C68.7643 12.9998 68.7947 12.817 68.8252 12.6343C68.9166 12.2688 69.008 11.9337 69.1298 11.5987C69.3735 10.9286 69.7085 10.3194 70.1654 9.74069C70.5918 9.19243 71.1401 8.70509 71.7797 8.4005C72.4193 8.09591 73.1199 7.97408 73.79 8.00454C73.0894 8.00454 72.4193 8.18729 71.8406 8.52234C71.2619 8.85738 70.7746 9.34473 70.4091 9.92344C70.0436 10.4717 69.7694 11.1113 69.5867 11.751C69.4953 12.0556 69.4344 12.3906 69.3735 12.7256C69.343 12.8779 69.343 13.0607 69.343 13.213V13.4567L69.3735 13.6699V13.7308C69.4039 13.8831 69.2821 14.0658 69.1298 14.0658C68.9166 14.0658 68.7643 13.9745 68.7338 13.7612C68.7338 13.7917 68.7338 13.7917 68.7338 13.7612Z" fill="#985F0A"/>
<path d="M70.6829 13.9745C70.7438 13.548 70.8961 13.2434 71.0484 12.9084C71.2007 12.6038 71.3834 12.2688 71.5966 11.9946C71.9926 11.4159 72.5104 10.8981 73.0891 10.5022C73.6678 10.1062 74.3075 9.8016 75.008 9.71022C75.7086 9.61885 76.4091 9.71023 77.0487 9.89298C76.3787 9.74068 75.6781 9.71022 75.0385 9.86252C74.3684 10.0148 73.7897 10.3499 73.2719 10.7458C72.7541 11.1722 72.3276 11.69 71.9926 12.2688C71.8098 12.5429 71.688 12.8475 71.5357 13.1521C71.4139 13.4567 71.3225 13.7612 71.292 14.0354C71.292 14.2181 71.1397 14.34 70.957 14.3095C70.8047 14.3095 70.6829 14.1572 70.6829 13.9745Z" fill="#985F0A"/>
<path d="M58.6214 20.3708C59.2611 18.5433 59.6266 16.5635 59.5047 14.5836C59.4438 13.609 59.2306 12.6343 58.8347 11.7205C58.4387 10.8068 57.8904 9.98437 57.1594 9.28381C57.9209 9.92345 58.5301 10.7458 58.9565 11.6596C59.3829 12.5734 59.657 13.548 59.7789 14.5532C59.9007 15.5583 59.9007 16.5635 59.7789 17.5686C59.657 18.5737 59.4743 19.5789 59.1697 20.5536C59.1088 20.7059 58.9565 20.7972 58.8042 20.7668C58.6519 20.7059 58.5605 20.5536 58.6214 20.3708Z" fill="#985F0A"/>
<path d="M57.1898 19.6702C57.3421 19.0001 57.3725 18.2387 57.3421 17.5381C57.3116 16.8071 57.1898 16.0761 56.9461 15.406C56.7025 14.7055 56.3674 14.0658 55.9105 13.4871C55.4536 12.9084 54.8445 12.4515 54.2048 12.1165C54.8749 12.421 55.5146 12.8475 56.0324 13.3957C56.5502 13.944 56.9766 14.6141 57.2507 15.3146C57.5553 16.0152 57.7076 16.7766 57.8294 17.5077C57.9208 18.2691 57.9513 19.0306 57.8294 19.8225C57.799 19.9748 57.6467 20.0967 57.4944 20.0662C57.3421 20.0357 57.2203 19.8834 57.2507 19.7312C57.1898 19.7007 57.1898 19.6702 57.1898 19.6702Z" fill="#985F0A"/>
<path d="M55.3623 19.2133C55.3927 18.6042 55.1795 17.9341 54.8749 17.3553C54.5704 16.7766 54.1439 16.2284 53.6261 15.7715C53.1083 15.3146 52.4992 14.9796 51.8595 14.7664C51.1894 14.5531 50.4889 14.4922 49.7883 14.5531C50.4889 14.4313 51.1894 14.4618 51.89 14.6445C52.5905 14.7968 53.2302 15.1319 53.8089 15.5583C54.3876 15.9847 54.9054 16.533 55.2709 17.1421C55.6669 17.7513 55.941 18.4823 55.9715 19.2438C55.9715 19.4265 55.8496 19.5484 55.6669 19.5484C55.4841 19.5484 55.3623 19.4265 55.3623 19.2438C55.3623 19.2438 55.3623 19.2438 55.3623 19.2133Z" fill="#985F0A"/>
<path d="M53.0168 19.4875L52.9558 19.3047L52.8645 19.0915C52.8036 18.9392 52.7122 18.8174 52.6208 18.6651C52.438 18.391 52.2553 18.1168 52.0421 17.8732C51.6157 17.3554 51.0979 16.9289 50.5191 16.5634C49.9404 16.1979 49.3008 15.9543 48.6307 15.8933C47.9606 15.8324 47.2601 15.9543 46.6509 16.2284C47.2601 15.9238 47.9606 15.7106 48.6612 15.7411C49.3617 15.7715 50.0623 15.9847 50.6714 16.3198C51.3111 16.6548 51.8593 17.0812 52.3771 17.599C52.6208 17.8427 52.8645 18.1168 53.0777 18.4214C53.1691 18.5737 53.2909 18.726 53.3823 18.8783L53.5041 19.122L53.5955 19.4266C53.6564 19.5789 53.565 19.7616 53.4127 19.8225C53.2604 19.8834 53.0777 19.7921 53.0168 19.6398C53.0168 19.6398 53.0168 19.6398 53.0168 19.6093V19.4875Z" fill="#985F0A"/>
<path d="M51.3721 20.6449C51.2503 20.4012 51.0066 20.1576 50.7934 19.9139C50.5497 19.7007 50.306 19.4875 50.0319 19.3047C49.4836 18.9392 48.8745 18.6346 48.2348 18.4519C47.5952 18.2691 46.9251 18.2082 46.255 18.3605C45.5849 18.5128 44.9757 18.8174 44.4275 19.2133C44.9453 18.7565 45.5545 18.391 46.2246 18.2082C46.8946 18.0255 47.6257 18.0255 48.2958 18.1473C48.9963 18.2691 49.6664 18.5433 50.2756 18.9088C50.5802 19.0915 50.8848 19.3047 51.1589 19.5179C51.433 19.7616 51.7071 19.9748 51.9204 20.3403C52.0117 20.4926 51.9813 20.6754 51.829 20.7667C51.6767 20.8581 51.4939 20.7972 51.3721 20.6449C51.4026 20.6449 51.3721 20.6449 51.3721 20.6449Z" fill="#985F0A"/>
<path d="M49.362 23.0207L49.2402 22.838L49.0879 22.6552C48.9661 22.5334 48.8442 22.442 48.7224 22.3202C48.4787 22.107 48.2046 21.9242 47.9 21.7415C47.3213 21.4064 46.7121 21.1323 46.0725 20.9495C45.4328 20.7668 44.7323 20.7363 44.0622 20.8886C43.3921 21.0409 42.7829 21.3455 42.2651 21.8024C42.7525 21.315 43.3617 20.9191 44.0317 20.7363C44.7018 20.5536 45.4329 20.5231 46.1334 20.6449C46.834 20.7668 47.504 21.0104 48.1437 21.315C48.4483 21.4673 48.7529 21.6501 49.0574 21.8633C49.2097 21.9851 49.3316 22.0765 49.4839 22.1983L49.6971 22.4115L49.8798 22.6552C49.9712 22.7771 49.9712 22.9903 49.8189 23.0816C49.6971 23.173 49.4839 23.173 49.3925 23.0207C49.3925 23.0207 49.3925 23.0207 49.3925 22.9903L49.362 23.0207Z" fill="#985F0A"/>
<path d="M48.1436 24.6046C47.9609 24.4218 47.6563 24.2391 47.3517 24.1172C47.0471 23.9649 46.7425 23.8431 46.438 23.7517C45.7983 23.569 45.1282 23.4776 44.4886 23.508C43.8185 23.5385 43.1484 23.6908 42.5697 24.0258C41.991 24.3609 41.5036 24.8482 41.1077 25.3965C41.4732 24.8178 41.9301 24.2695 42.5088 23.8735C43.0875 23.4776 43.788 23.2644 44.4886 23.173C45.1891 23.0816 45.8897 23.1425 46.5902 23.2948C46.9253 23.3558 47.2908 23.4776 47.6258 23.5994C47.9609 23.7517 48.2959 23.8736 48.6005 24.1477C48.7224 24.2695 48.7528 24.4523 48.631 24.5741C48.5091 24.6959 48.2959 24.7569 48.1436 24.6046C48.1741 24.635 48.1741 24.635 48.1436 24.6046Z" fill="#985F0A"/>
<path d="M73.2414 14.3095C73.3633 13.944 73.5765 13.6699 73.8201 13.3958C73.942 13.2739 74.0334 13.1216 74.1857 13.0303C74.3075 12.9084 74.4293 12.7866 74.5816 12.6952C75.1299 12.2688 75.7086 11.9337 76.3787 11.7205C77.0183 11.5073 77.7189 11.4464 78.3585 11.5073C79.0286 11.5682 79.6682 11.751 80.2774 11.9947C79.6378 11.8119 78.9981 11.6596 78.3585 11.6596C77.7189 11.6596 77.0792 11.7814 76.4701 12.0251C75.8913 12.2688 75.3431 12.6038 74.8862 13.0303C74.7644 13.1521 74.673 13.2435 74.5512 13.3653C74.4293 13.4871 74.3379 13.609 74.2466 13.7308C74.0638 13.9745 73.9115 14.2486 73.8506 14.4923C73.8201 14.6446 73.6374 14.7664 73.4851 14.7055C73.2719 14.675 73.1805 14.5227 73.2414 14.3095C73.211 14.34 73.2414 14.34 73.2414 14.3095Z" fill="#985F0A"/>
<path d="M76.3178 15.01C76.6224 14.4313 77.0793 14.0354 77.5666 13.7003C78.054 13.3653 78.6022 13.1216 79.1505 12.9693C79.6988 12.817 80.3079 12.7561 80.8867 12.7865C81.4654 12.817 82.0136 12.9693 82.5619 13.1825C82.0136 12.9998 81.4654 12.8779 80.8867 12.8779C80.3079 12.8779 79.7597 12.9693 79.2419 13.1521C78.7241 13.3348 78.2063 13.6089 77.7799 13.944C77.3534 14.279 76.9575 14.7054 76.7443 15.1623C76.6833 15.2842 76.5615 15.3451 76.4397 15.2842C76.3178 15.2842 76.2569 15.1623 76.3178 15.01C76.3178 15.0405 76.3178 15.0405 76.3178 15.01Z" fill="#985F0A"/>
<path d="M79.1202 15.802C79.7902 15.0405 80.6126 14.3704 81.5569 14.0354C82.0442 13.8526 82.5315 13.7917 83.0493 13.7917C83.5367 13.7917 84.0545 13.8831 84.5114 14.0354C84.024 13.9135 83.5367 13.8831 83.0493 13.9135C82.562 13.944 82.0747 14.0658 81.6482 14.279C80.7649 14.675 80.0339 15.3451 79.4857 16.1066C79.4247 16.1979 79.2724 16.2284 79.1811 16.1675C79.0897 16.1066 79.0288 15.8933 79.1202 15.802Z" fill="#985F0A"/>
<path d="M81.2826 16.7158C81.5872 16.2284 82.0136 15.8629 82.4705 15.5583C82.9274 15.2538 83.4452 15.071 83.963 14.9492C84.4808 14.8273 85.029 14.7969 85.5468 14.8273C86.0646 14.8578 86.5824 14.9492 87.1002 15.1015C86.5824 15.0101 86.0646 14.9492 85.5468 14.9492C85.029 14.9492 84.5112 15.0405 84.0239 15.1928C83.5366 15.3451 83.0797 15.5888 82.6837 15.8629C82.2877 16.1675 81.9222 16.533 81.709 16.9594C81.6481 17.0813 81.4958 17.1117 81.4044 17.0508C81.3131 16.9899 81.1912 16.8376 81.2826 16.7158C81.2521 16.7462 81.2826 16.7158 81.2826 16.7158Z" fill="#985F0A"/>
<path d="M83.2929 17.3554C84.0544 16.7462 84.9377 16.198 85.9124 15.9543C86.887 15.7106 87.8922 15.7411 88.8364 15.9543C87.8617 15.8325 86.887 15.8629 85.9733 16.198C85.0595 16.5026 84.298 17.0813 83.5975 17.7209C83.5061 17.8123 83.3538 17.8123 83.2624 17.7209C83.1711 17.5991 83.2015 17.4468 83.2929 17.3554Z" fill="#985F0A"/>
<path d="M85.3336 18.726C86.1256 18.0864 87.0393 17.5381 88.0749 17.2944C89.0801 17.0508 90.1157 17.0812 91.1208 17.2944C90.1157 17.1726 89.0801 17.2031 88.1358 17.5381C87.1916 17.8427 86.3692 18.4214 85.6382 19.0915C85.5468 19.1829 85.3946 19.1829 85.3032 19.0611C85.2118 18.9392 85.2118 18.8174 85.3336 18.726C85.3032 18.726 85.3032 18.726 85.3336 18.726Z" fill="#985F0A"/>
<path d="M87.6181 19.7616C88.3796 19.1525 89.2629 18.6042 90.2376 18.3605C91.2122 18.1169 92.2174 18.1473 93.1616 18.3605C92.1869 18.2387 91.2122 18.2692 90.2985 18.6042C89.3847 18.9088 88.6232 19.4875 87.9227 20.1272C87.8313 20.2185 87.679 20.2185 87.5876 20.1272C87.4963 20.0053 87.5267 19.853 87.6181 19.7616Z" fill="#985F0A"/>
<path d="M89.2628 20.9191C90.0852 20.3708 90.9685 19.8835 91.9736 19.7007C92.9483 19.518 93.9535 19.6398 94.8977 19.8835C93.9535 19.7007 92.9483 19.6703 92.0345 19.9139C91.1208 20.1576 90.2984 20.6754 89.5674 21.2846C89.476 21.376 89.3237 21.3455 89.2323 21.2541C89.1105 21.1627 89.141 21.0105 89.2628 20.9191C89.2323 20.9191 89.2323 20.9191 89.2628 20.9191Z" fill="#985F0A"/>
<path d="M90.999 22.1679C91.9127 21.711 92.9179 21.315 93.9535 21.2541C94.9891 21.1932 95.9942 21.4064 96.9384 21.7719C95.9638 21.4978 94.9586 21.3455 93.9535 21.4673C92.9788 21.5891 92.065 22.0156 91.2122 22.5334C91.0904 22.5943 90.9685 22.5638 90.9076 22.4725C90.8162 22.3811 90.8467 22.2592 90.999 22.1679C90.9685 22.1679 90.9685 22.1679 90.999 22.1679Z" fill="#985F0A"/>
<path d="M92.8875 23.569C93.8012 23.1121 94.8064 22.7161 95.842 22.6552C96.8776 22.5943 97.8827 22.8075 98.8269 23.173C97.8522 22.8989 96.8471 22.7466 95.842 22.8684C94.8673 22.9903 93.9535 23.4167 93.1007 23.9345C92.9788 23.9954 92.857 23.965 92.7961 23.8736C92.7352 23.7822 92.7656 23.6299 92.8875 23.569C92.857 23.569 92.8875 23.569 92.8875 23.569Z" fill="#985F0A"/>
<path d="M94.38 25.0005C95.3242 24.6045 96.3294 24.2695 97.3954 24.3C98.431 24.3 99.4362 24.6045 100.35 25.0005C99.4057 24.6655 98.4006 24.4523 97.3954 24.5132C96.3903 24.5741 95.4765 24.9396 94.5932 25.3965C94.4714 25.4574 94.3495 25.4269 94.2886 25.3051C94.1972 25.2137 94.2582 25.0614 94.38 25.0005C94.3495 25.0005 94.38 25.0005 94.38 25.0005Z" fill="#985F0A"/>
<path d="M96.3293 26.889C97.304 26.5844 98.3396 26.3712 99.3752 26.4626C100.411 26.5539 101.385 26.889 102.269 27.3763C101.355 26.9804 100.35 26.7062 99.3752 26.7062C98.3701 26.7062 97.4258 26.9499 96.5121 27.3154C96.3902 27.3763 96.2684 27.3154 96.2075 27.1936C96.1466 27.0717 96.2075 26.9194 96.3293 26.889Z" fill="#985F0A"/>
<path d="M97.9436 28.6556C98.9183 28.351 99.9539 28.1378 100.989 28.2292C102.025 28.3205 103 28.6556 103.883 29.1429C102.969 28.747 101.964 28.4728 100.989 28.4728C99.9843 28.4728 99.0401 28.7165 98.1263 29.082C98.0045 29.1429 97.8827 29.082 97.8217 28.9602C97.7608 28.8383 97.8218 28.7165 97.9436 28.6556Z" fill="#985F0A"/>
<path d="M98.9489 30.1176C99.9236 29.874 100.99 29.7217 101.995 29.874C103.03 30.0263 103.975 30.4222 104.827 30.94C103.944 30.4831 102.969 30.1481 101.964 30.0872C100.959 30.0263 99.9845 30.209 99.0707 30.5441C98.9489 30.5745 98.827 30.5136 98.7966 30.3918C98.7661 30.2699 98.827 30.1786 98.9489 30.1176C98.9489 30.1481 98.9489 30.1481 98.9489 30.1176Z" fill="#985F0A"/>
<path d="M100.502 31.7014C101.507 31.5491 102.573 31.5187 103.579 31.7624C104.584 32.006 105.467 32.5238 106.289 33.1025C105.437 32.5543 104.523 32.1279 103.548 31.9756C102.573 31.7928 101.568 31.9146 100.624 32.1279C100.502 32.1583 100.38 32.0669 100.35 31.9451C100.32 31.8233 100.35 31.7319 100.502 31.7014C100.472 31.7014 100.502 31.7014 100.502 31.7014Z" fill="#985F0A"/>
<path d="M101.842 33.529C102.848 33.3767 103.914 33.3463 104.919 33.5899C105.924 33.8336 106.807 34.3514 107.63 34.9301C106.777 34.3819 105.863 33.9554 104.888 33.8031C103.914 33.6204 102.908 33.7422 101.964 33.9554C101.842 33.9859 101.721 33.8945 101.69 33.7727C101.66 33.6509 101.721 33.5595 101.842 33.529Z" fill="#985F0A"/>
<path d="M102.847 35.2347C103.853 35.1433 104.919 35.1738 105.893 35.5088C106.868 35.8134 107.751 36.3616 108.513 37.0317C107.69 36.4226 106.807 35.9657 105.832 35.722C104.858 35.5088 103.883 35.5393 102.908 35.6916C102.787 35.722 102.665 35.6306 102.634 35.5088C102.604 35.387 102.695 35.2651 102.847 35.2347C102.817 35.2347 102.817 35.2347 102.847 35.2347Z" fill="#985F0A"/>
<path d="M103.883 37.1536C104.888 37.0927 105.954 37.1536 106.929 37.4886C107.904 37.8237 108.757 38.4024 109.488 39.0725C108.696 38.4633 107.812 37.9455 106.868 37.7018C105.924 37.4582 104.919 37.4582 103.944 37.58C103.822 37.6105 103.7 37.5191 103.7 37.3973C103.64 37.3059 103.731 37.184 103.883 37.1536C103.883 37.184 103.883 37.184 103.883 37.1536Z" fill="#985F0A"/>
<path d="M104.888 39.1639C105.893 39.103 106.959 39.1639 107.934 39.4989C108.909 39.834 109.762 40.4127 110.493 41.0828C109.701 40.4736 108.817 39.9558 107.873 39.7122C106.929 39.4685 105.924 39.4685 104.949 39.5903C104.827 39.6208 104.705 39.5294 104.705 39.4076C104.644 39.2857 104.736 39.1639 104.888 39.1639C104.858 39.1639 104.888 39.1639 104.888 39.1639Z" fill="#985F0A"/>
<path d="M105.985 41.1132C106.99 41.1132 108.056 41.2351 109 41.631C109.945 42.027 110.767 42.6666 111.468 43.3672C110.706 42.6971 109.884 42.1488 108.939 41.8442C107.995 41.5396 107.021 41.4787 106.015 41.5701C105.894 41.5701 105.772 41.4787 105.772 41.3569C105.741 41.2351 105.833 41.1132 105.985 41.1132C105.954 41.1132 105.985 41.1132 105.985 41.1132Z" fill="#985F0A"/>
<path d="M106.899 43.0931C107.904 43.1235 108.939 43.2758 109.884 43.7327C110.828 44.1591 111.62 44.8292 112.29 45.5602C111.559 44.8597 110.737 44.281 109.823 43.9459C108.909 43.6109 107.904 43.5195 106.929 43.55C106.807 43.55 106.686 43.4586 106.686 43.3367C106.686 43.2149 106.746 43.0931 106.899 43.0931C106.868 43.0931 106.868 43.0931 106.899 43.0931Z" fill="#985F0A"/>
<path d="M107.69 45.1642C108.696 45.1947 109.731 45.347 110.675 45.8039C111.62 46.2303 112.412 46.9004 113.082 47.6314C112.351 46.9309 111.528 46.3521 110.615 46.0171C109.701 45.682 108.696 45.5907 107.721 45.6211C107.599 45.6211 107.477 45.5298 107.477 45.4079C107.447 45.2861 107.538 45.1947 107.69 45.1642C107.66 45.1642 107.66 45.1642 107.69 45.1642Z" fill="#985F0A"/>
<path d="M108.3 47.0222C109.305 47.1136 110.341 47.3573 111.224 47.8141C112.138 48.3015 112.869 49.002 113.478 49.794C112.808 49.063 112.016 48.4233 111.102 48.0274C110.188 47.6314 109.214 47.5096 108.239 47.4791C108.117 47.4791 108.026 47.3573 108.026 47.2354C108.026 47.1136 108.147 47.0222 108.3 47.0222Z" fill="#985F0A"/>
<path d="M109.152 49.3066C110.157 49.398 111.193 49.6112 112.107 50.0986C113.021 50.5859 113.782 51.2865 114.422 52.0479C113.721 51.3169 112.929 50.6773 112.015 50.2813C111.102 49.8854 110.127 49.7635 109.122 49.7331C109 49.7331 108.909 49.6112 108.909 49.4894C108.909 49.3676 109 49.3066 109.152 49.3066Z" fill="#985F0A"/>
<path d="M109.701 51.5301C110.706 51.7433 111.711 52.0479 112.564 52.6266C113.417 53.2054 114.117 53.9668 114.665 54.8197C114.056 54.0277 113.325 53.2967 112.442 52.8399C111.589 52.3525 110.614 52.1088 109.64 51.987C109.518 51.9566 109.427 51.8652 109.427 51.7433C109.427 51.591 109.548 51.4997 109.701 51.5301C109.67 51.5301 109.67 51.5301 109.701 51.5301Z" fill="#985F0A"/>
<path d="M110.34 53.7232C111.345 53.9364 112.351 54.241 113.203 54.8197C114.056 55.3984 114.757 56.1599 115.305 57.0127C114.696 56.2208 113.965 55.4898 113.082 55.0329C112.229 54.5456 111.254 54.3019 110.279 54.1801C110.158 54.1496 110.066 54.0582 110.066 53.9364C110.097 53.7841 110.218 53.6927 110.34 53.7232Z" fill="#985F0A"/>
<path d="M110.706 55.6421C111.681 55.9162 112.686 56.2817 113.478 56.9214C114.3 57.5305 114.94 58.3529 115.427 59.2362C114.879 58.4138 114.178 57.6524 113.356 57.1041C112.534 56.5559 111.559 56.2817 110.584 56.099C110.462 56.0685 110.371 55.9467 110.401 55.8248C110.462 55.703 110.584 55.6421 110.706 55.6421Z" fill="#985F0A"/>
<path d="M111.041 57.8351C112.015 58.1092 112.99 58.5357 113.782 59.1753C114.574 59.8149 115.183 60.6373 115.671 61.5511C115.122 60.6982 114.483 59.9368 113.66 59.3885C112.838 58.8402 111.894 58.5052 110.949 58.292C110.828 58.2615 110.736 58.1397 110.767 58.0178C110.797 57.8656 110.919 57.7742 111.041 57.8351C111.041 57.8046 111.041 57.8046 111.041 57.8351Z" fill="#985F0A"/>
<path d="M111.315 60.0281C112.29 60.3022 113.265 60.7287 114.056 61.3683C114.848 62.0079 115.458 62.8303 115.945 63.7441C115.397 62.8912 114.757 62.1298 113.935 61.5815C113.112 61.0333 112.168 60.6982 111.224 60.485C111.102 60.4545 111.011 60.3327 111.041 60.2109C111.072 60.089 111.193 59.9977 111.315 60.0281Z" fill="#985F0A"/>
<path d="M111.681 62.008C112.655 62.2821 113.63 62.678 114.422 63.3177C115.244 63.9573 115.853 64.7797 116.31 65.663C115.762 64.8102 115.092 64.0487 114.27 63.5004C113.447 62.9522 112.503 62.6476 111.528 62.4344C111.406 62.4039 111.315 62.2821 111.346 62.1602C111.376 62.0384 111.559 61.9775 111.681 62.008C111.681 61.9775 111.681 61.9775 111.681 62.008Z" fill="#985F0A"/>
<path d="M112.259 64.3837C113.204 64.7492 114.117 65.267 114.848 65.9676C115.579 66.6681 116.097 67.5515 116.493 68.4957C116.036 67.6124 115.457 66.7595 114.696 66.1503C113.935 65.5107 113.021 65.1147 112.077 64.8102C111.955 64.7797 111.894 64.6579 111.924 64.536C112.016 64.4142 112.137 64.3533 112.259 64.3837Z" fill="#985F0A"/>
<path d="M112.259 66.7595C113.204 67.125 114.117 67.6428 114.848 68.3434C115.579 69.0439 116.097 69.9272 116.493 70.8715C116.036 69.9882 115.457 69.1353 114.696 68.5261C113.935 67.8865 113.021 67.4905 112.077 67.186C111.955 67.1555 111.894 67.0337 111.924 66.9118C111.955 66.79 112.137 66.7291 112.259 66.7595Z" fill="#985F0A"/>
<path d="M112.229 68.7394C113.143 69.1658 114.026 69.714 114.726 70.4755C115.427 71.237 115.884 72.1508 116.219 73.095C115.823 72.1812 115.305 71.2979 114.574 70.6278C113.843 69.9577 112.99 69.5008 112.046 69.1353C111.924 69.1049 111.863 68.9526 111.924 68.8307C111.955 68.7394 112.107 68.6784 112.229 68.7394Z" fill="#985F0A"/>
<path d="M112.32 71.4197C113.203 71.907 114.056 72.5466 114.696 73.369C115.336 74.161 115.732 75.1356 115.975 76.1103C115.64 75.1661 115.183 74.2523 114.513 73.5213C113.843 72.7903 112.99 72.2725 112.107 71.8461C111.985 71.7852 111.955 71.6633 111.985 71.5415C112.046 71.3892 112.198 71.3588 112.32 71.4197Z" fill="#985F0A"/>
<path d="M112.077 73.6432C112.96 74.1305 113.813 74.7702 114.453 75.5925C115.092 76.3845 115.488 77.3592 115.732 78.3338C115.397 77.3896 114.94 76.4759 114.27 75.7448C113.6 75.0138 112.747 74.496 111.864 74.0696C111.742 74.0087 111.711 73.8869 111.742 73.765C111.833 73.6127 111.955 73.5823 112.077 73.6432C112.077 73.6127 112.077 73.6127 112.077 73.6432Z" fill="#985F0A"/>
<path d="M112.32 75.7753C113.173 76.3236 113.996 76.9937 114.574 77.8465C115.153 78.6994 115.488 79.674 115.701 80.6487C115.427 79.674 115.031 78.7603 114.392 77.9988C113.782 77.2373 112.96 76.6586 112.107 76.1713C111.985 76.1104 111.955 75.9581 112.016 75.8667C112.077 75.7753 112.199 75.7144 112.32 75.7753Z" fill="#985F0A"/>
<path d="M112.015 78.0902C112.838 78.6689 113.63 79.3694 114.178 80.2223C114.726 81.0751 115.031 82.0803 115.214 83.0549C114.97 82.0803 114.604 81.136 113.995 80.3441C113.417 79.5522 112.625 78.943 111.772 78.4557C111.65 78.3947 111.619 78.2425 111.68 78.1511C111.741 78.0597 111.894 78.0292 112.015 78.0902Z" fill="#985F0A"/>
<path d="M111.559 80.2528C112.381 80.8315 113.173 81.532 113.721 82.3849C114.269 83.2377 114.574 84.2429 114.757 85.2175C114.513 84.2429 114.148 83.2986 113.538 82.5067C112.96 81.7148 112.168 81.1056 111.315 80.6183C111.193 80.5573 111.163 80.4051 111.224 80.3137C111.284 80.2223 111.437 80.1918 111.559 80.2528Z" fill="#985F0A"/>
<path d="M111.071 82.1717C111.863 82.8113 112.594 83.5423 113.112 84.4256C113.63 85.3089 113.874 86.3141 113.965 87.3192C113.782 86.3445 113.478 85.3698 112.929 84.5474C112.381 83.7251 111.62 83.0854 110.828 82.5372C110.736 82.4763 110.706 82.324 110.767 82.2326C110.828 82.1107 110.95 82.0803 111.071 82.1717C111.071 82.1412 111.071 82.1717 111.071 82.1717Z" fill="#985F0A"/>
<path d="M110.706 84.6997C111.498 85.3394 112.259 86.0704 112.747 86.9842C113.264 87.8675 113.508 88.8726 113.63 89.8777C113.447 88.9031 113.112 87.9284 112.564 87.106C112.016 86.2836 111.254 85.644 110.432 85.0653C110.34 85.0043 110.31 84.852 110.371 84.7607C110.432 84.6388 110.584 84.6388 110.706 84.6997Z" fill="#985F0A"/>
<path d="M109.975 86.8624C110.706 87.5629 111.376 88.3853 111.802 89.3295C112.229 90.2737 112.381 91.3093 112.381 92.284C112.29 91.2789 112.076 90.2737 111.589 89.4209C111.132 88.5376 110.432 87.837 109.67 87.1974C109.579 87.106 109.548 86.9842 109.64 86.8624C109.701 86.771 109.853 86.771 109.975 86.8624C109.944 86.8624 109.944 86.8624 109.975 86.8624Z" fill="#985F0A"/>
<path d="M109.335 89.0553C110.066 89.7559 110.736 90.5783 111.163 91.5225C111.589 92.4667 111.742 93.5023 111.742 94.477C111.65 93.4719 111.437 92.4667 110.95 91.6139C110.493 90.7306 109.792 90.03 109.031 89.3904C108.939 89.299 108.909 89.1772 109 89.0553C109.092 88.9335 109.213 88.964 109.335 89.0553Z" fill="#985F0A"/>
<path d="M108.574 90.8829C109.274 91.6443 109.883 92.4972 110.219 93.4414C110.584 94.4161 110.675 95.4212 110.614 96.4264C110.584 95.4212 110.432 94.4161 110.005 93.5328C109.609 92.619 108.939 91.8576 108.239 91.1875C108.147 91.0961 108.147 90.9438 108.239 90.8524C108.33 90.761 108.482 90.7915 108.574 90.8829Z" fill="#985F0A"/>
<path d="M107.69 92.8932C108.361 93.6546 108.939 94.5379 109.274 95.5126C109.609 96.4873 109.67 97.5229 109.579 98.528C109.579 97.5229 109.457 96.5178 109.061 95.604C108.665 94.6902 108.056 93.9288 107.355 93.2282C107.264 93.1368 107.264 92.9845 107.355 92.8932C107.447 92.8018 107.599 92.7713 107.69 92.8932C107.69 92.8627 107.69 92.8932 107.69 92.8932Z" fill="#985F0A"/>
<path d="M106.655 94.8121C107.325 95.5735 107.904 96.4568 108.239 97.4315C108.574 98.4062 108.635 99.4418 108.543 100.447C108.543 99.4418 108.421 98.4367 108.025 97.5229C107.629 96.6091 107.02 95.8477 106.32 95.1471C106.228 95.0557 106.228 94.9034 106.32 94.8121C106.411 94.7207 106.563 94.7207 106.655 94.8121Z" fill="#985F0A"/>
<path d="M38.1226 41.6311C37.1479 41.4483 36.1732 41.3569 35.1986 41.5397C34.2239 41.7224 33.3101 42.1489 32.4573 42.7276C33.2492 42.1184 34.1325 41.6006 35.1376 41.3265C36.1428 41.0523 37.1784 41.0828 38.1835 41.2046C38.3054 41.2351 38.3967 41.3265 38.3663 41.4483C38.3663 41.5397 38.2444 41.6311 38.1226 41.6311Z" fill="#985F0A"/>
<path d="M36.7825 43.489C35.8078 43.3063 34.8332 43.2149 33.8585 43.3977C32.8838 43.5804 31.97 44.0068 31.1172 44.5856C31.9091 43.9764 32.7924 43.4586 33.7976 43.1844C34.8027 42.9103 35.8383 42.9408 36.8434 43.0626C36.9653 43.0931 37.0566 43.1844 37.0262 43.3063C37.0566 43.4281 36.9348 43.489 36.7825 43.489C36.813 43.489 36.7825 43.489 36.7825 43.489Z" fill="#985F0A"/>
<path d="M35.8686 45.2252C34.8939 45.0729 33.8888 45.0729 32.9446 45.3165C31.9699 45.5602 31.0866 46.0476 30.2947 46.6567C31.0561 45.9866 31.909 45.4079 32.8837 45.1033C33.8584 44.7683 34.9244 44.7074 35.9296 44.7987C36.0514 44.7987 36.1428 44.9206 36.1428 45.0424C36.1123 45.1338 36.0209 45.2252 35.8686 45.2252Z" fill="#985F0A"/>
<path d="M34.8636 47.1745C33.8889 47.0527 32.8837 47.0527 31.9395 47.3268C30.9953 47.601 30.112 48.1188 29.3201 48.7584C30.0511 48.0578 30.8735 47.4791 31.8481 47.1136C32.8228 46.7481 33.8584 46.6872 34.894 46.7177C35.0159 46.7177 35.1072 46.8395 35.1072 46.9613C35.1072 47.0527 35.0159 47.1745 34.8636 47.1745Z" fill="#985F0A"/>
<path d="M33.9192 49.1544C32.9445 49.0326 31.9394 49.0326 30.9952 49.3067C30.051 49.5808 29.1677 50.0986 28.3757 50.7382C29.1067 50.0377 29.9291 49.459 30.9038 49.0935C31.8785 48.728 32.9141 48.6671 33.9497 48.6975C34.0715 48.6975 34.1629 48.8193 34.1629 48.9412C34.1629 49.063 34.0411 49.1849 33.9192 49.1544Z" fill="#985F0A"/>
<path d="M33.036 50.9818C32.0613 50.9209 31.0562 50.9818 30.1424 51.3169C29.1982 51.6519 28.3758 52.2307 27.6448 52.9007C28.3149 52.1697 29.1373 51.5301 30.0815 51.1037C31.0257 50.6773 32.0613 50.5554 33.0664 50.525C33.1883 50.525 33.3101 50.6163 33.3101 50.7382C33.2796 50.8905 33.1883 50.9818 33.036 50.9818Z" fill="#985F0A"/>
<path d="M44.519 30.4526C43.5748 30.209 42.5696 30.0567 41.5949 30.1785C40.6203 30.3004 39.676 30.6963 38.7927 31.2141C39.6151 30.6354 40.5289 30.1785 41.534 29.9653C42.5392 29.7521 43.6052 29.813 44.6104 30.0262C44.7322 30.0567 44.8236 30.1785 44.7931 30.3004C44.7931 30.3917 44.6713 30.4831 44.519 30.4526Z" fill="#985F0A"/>
<path d="M43.0873 32.2497C42.1431 32.006 41.138 31.8537 40.1633 31.9756C39.1886 32.0974 38.2444 32.4934 37.3611 33.0112C38.1835 32.4325 39.0972 31.9756 40.1024 31.7624C41.1075 31.5492 42.1736 31.6101 43.1787 31.8233C43.3005 31.8537 43.3919 31.9756 43.3615 32.0974C43.3615 32.1888 43.2396 32.2802 43.0873 32.2497C43.1178 32.2497 43.0873 32.2497 43.0873 32.2497Z" fill="#985F0A"/>
<path d="M42.0519 33.9249C41.0772 33.7422 40.1025 33.6508 39.1278 33.8336C38.1531 34.0163 37.2394 34.4732 36.417 35.0214C37.2089 34.4123 38.0922 33.864 39.0974 33.6203C40.1025 33.3462 41.1381 33.3462 42.1432 33.4681C42.2651 33.4985 42.3565 33.5899 42.3565 33.7117C42.326 33.8336 42.2042 33.9249 42.0519 33.9249C42.0823 33.9249 42.0823 33.9249 42.0519 33.9249Z" fill="#985F0A"/>
<path d="M47.6257 25.6402C46.6814 25.3965 45.6763 25.2442 44.7016 25.366C43.7269 25.4879 42.7827 25.8838 41.8994 26.4016C42.7218 25.8229 43.6356 25.366 44.6407 25.1528C45.6458 24.9396 46.7119 25.0005 47.717 25.2137C47.8389 25.2442 47.9303 25.366 47.8998 25.4879C47.8693 25.5792 47.778 25.6706 47.6257 25.6402Z" fill="#985F0A"/>
<path d="M46.194 27.4068C45.2498 27.1631 44.2447 27.0109 43.27 27.1327C42.2953 27.2545 41.3511 27.6505 40.4678 28.1683C41.2902 27.5896 42.2039 27.1327 43.2091 26.9195C44.2142 26.7063 45.2803 26.7672 46.2854 26.9804C46.4072 27.0109 46.4986 27.1327 46.4682 27.2545C46.4682 27.3764 46.3463 27.4373 46.194 27.4068C46.194 27.4373 46.194 27.4373 46.194 27.4068Z" fill="#985F0A"/>
<path d="M45.1586 29.082C44.1839 28.8992 43.2092 28.8078 42.2345 28.9906C41.2598 29.1734 40.3461 29.6302 39.5237 30.1785C40.3156 29.5693 41.1989 29.0211 42.2041 28.7774C43.2092 28.5033 44.2448 28.5033 45.2499 28.6251C45.3718 28.6556 45.4631 28.7469 45.4631 28.8688C45.4327 29.0211 45.3109 29.1124 45.1586 29.082C45.189 29.082 45.189 29.082 45.1586 29.082Z" fill="#985F0A"/>
<path d="M40.9552 35.8134C39.9806 35.6611 38.9754 35.6002 38.0312 35.8134C37.0565 36.0266 36.1732 36.4835 35.3508 37.0927C36.1123 36.4531 36.9956 35.9048 37.9703 35.6002C38.945 35.2956 40.011 35.2652 41.0162 35.3565C41.138 35.3565 41.2294 35.4784 41.2294 35.6002C41.2294 35.722 41.1075 35.8134 40.9552 35.8134Z" fill="#985F0A"/>
<path d="M39.8893 37.7628C38.9146 37.6105 37.9095 37.5496 36.9653 37.7628C35.9906 37.976 35.1073 38.4329 34.2849 39.042C35.0464 38.4024 35.9297 37.8541 36.9044 37.5496C37.879 37.245 38.9451 37.2145 39.9502 37.3059C40.0721 37.3059 40.1635 37.4277 40.1635 37.5496C40.133 37.6714 40.0416 37.7628 39.8893 37.7628Z" fill="#985F0A"/>
<path d="M38.9144 39.5294C37.9397 39.438 36.9346 39.438 35.9904 39.7122C35.0461 39.9863 34.1628 40.5041 33.4014 41.1437C34.1324 40.4432 34.9548 39.834 35.9294 39.4989C36.9041 39.1334 37.9397 39.0421 38.9449 39.0725C39.0667 39.0725 39.1581 39.1944 39.1581 39.3162C39.1581 39.438 39.0362 39.5294 38.9144 39.5294Z" fill="#985F0A"/>
<path d="M32.3048 53.2054C31.3302 53.1444 30.325 53.1749 29.3808 53.4795C28.4366 53.7841 27.5837 54.3323 26.8223 55.0024C27.5228 54.3019 28.3452 53.6622 29.2894 53.2663C30.2337 52.8703 31.2692 52.7485 32.3048 52.7485C32.4267 52.7485 32.5181 52.8399 32.5181 52.9921C32.5485 53.114 32.4267 53.2054 32.3048 53.2054Z" fill="#985F0A"/>
<path d="M31.4218 55.2461C30.4471 55.1852 29.442 55.2157 28.4977 55.5203C27.5535 55.8248 26.7007 56.3731 25.9392 57.0432C26.6398 56.3426 27.4621 55.703 28.4064 55.307C29.3506 54.9111 30.3862 54.7892 31.4218 54.7892C31.5436 54.7892 31.635 54.8806 31.635 55.0329C31.6655 55.1547 31.5741 55.2461 31.4218 55.2461Z" fill="#985F0A"/>
<path d="M30.7517 57.0736C29.777 57.0432 28.7719 57.165 27.8581 57.5001C26.9443 57.8656 26.1219 58.4443 25.4214 59.1753C26.061 58.4138 26.853 57.7437 27.7667 57.2869C28.6805 56.83 29.7161 56.6472 30.7212 56.5863C30.8431 56.5863 30.9649 56.6777 30.9649 56.7995C30.9953 56.9518 30.8735 57.0736 30.7517 57.0736Z" fill="#985F0A"/>
<path d="M29.9597 59.2362C28.9851 59.3276 27.9799 59.5104 27.0966 59.9672C26.2133 60.4241 25.4518 61.0942 24.7817 61.8557C25.3605 61.0333 26.0915 60.3023 26.9748 59.754C27.8581 59.2058 28.8632 58.9316 29.8988 58.7793C30.0206 58.7489 30.1425 58.8403 30.1729 58.9621C30.2034 59.1144 30.112 59.2362 29.9597 59.2362C29.9902 59.2362 29.9597 59.2362 29.9597 59.2362Z" fill="#985F0A"/>
<path d="M29.5941 61.4902C28.6194 61.6729 27.6752 61.947 26.8224 62.4953C25.9695 63.0131 25.2994 63.7746 24.7207 64.597C25.2385 63.7136 25.8477 62.9217 26.7005 62.3125C27.5229 61.7034 28.4976 61.3074 29.5027 61.0637C29.6246 61.0333 29.7464 61.0942 29.7769 61.216C29.8073 61.3074 29.7464 61.4292 29.5941 61.4902C29.6246 61.4597 29.5941 61.4597 29.5941 61.4902Z" fill="#985F0A"/>
<path d="M29.0763 63.6832C28.1016 63.866 27.1574 64.1401 26.3045 64.6884C25.4517 65.2062 24.7816 65.9676 24.2029 66.79C24.7207 65.9067 25.3299 65.1148 26.1827 64.5056C27.0051 63.8964 27.9798 63.5005 28.9849 63.2568C29.1067 63.2263 29.2286 63.2872 29.259 63.4091C29.2895 63.5309 29.1981 63.6528 29.0763 63.6832Z" fill="#985F0A"/>
<path d="M28.8326 65.6326C27.8579 65.8762 26.9442 66.2113 26.1522 66.79C25.3603 67.3687 24.7207 68.1606 24.2029 69.0135C24.6598 68.1302 25.2385 67.2773 26.0304 66.6072C26.8223 65.9371 27.7666 65.5107 28.7412 65.1757C28.8631 65.1452 28.9849 65.2061 29.0154 65.328C29.0458 65.4498 28.9849 65.6021 28.8326 65.6326C28.8631 65.6326 28.8631 65.6326 28.8326 65.6326Z" fill="#985F0A"/>
<path d="M28.6499 67.8256C27.7057 68.0997 26.7615 68.4652 26 69.0744C25.2081 69.6836 24.5989 70.4755 24.1116 71.3588C24.538 70.4451 25.0863 69.5922 25.8477 68.8917C26.6092 68.1911 27.5534 67.7342 28.4976 67.3992C28.6195 67.3687 28.7413 67.4296 28.8022 67.5515C28.8631 67.6733 28.7718 67.7647 28.6499 67.8256Z" fill="#985F0A"/>
<path d="M28.4976 70.0491C27.5534 70.3233 26.6091 70.6887 25.8477 71.2979C25.0557 71.9071 24.4466 72.699 23.9592 73.5823C24.3857 72.6686 24.9339 71.8157 25.6954 71.1152C26.4568 70.4146 27.4011 69.9577 28.3453 69.6227C28.4671 69.5922 28.589 69.6531 28.6499 69.775C28.6803 69.8664 28.6194 69.9882 28.4976 70.0491Z" fill="#985F0A"/>
<path d="M28.1931 72.1508C27.2489 72.4858 26.3656 72.8818 25.6346 73.5519C24.8731 74.1915 24.3249 75.0443 23.8984 75.9581C24.2639 75.0139 24.7513 74.1306 25.4823 73.3996C26.2133 72.6686 27.1271 72.1508 28.0408 71.7548C28.1627 71.6939 28.2845 71.7548 28.3454 71.8766C28.4063 71.9985 28.315 72.0898 28.1931 72.1508C28.1931 72.1203 28.1931 72.1508 28.1931 72.1508Z" fill="#985F0A"/>
<path d="M28.1018 74.4656C27.188 74.8006 26.3047 75.2575 25.5737 75.9581C24.8427 76.6282 24.3249 77.481 23.929 78.3948C24.264 77.4505 24.7209 76.5368 25.4214 75.7753C26.122 75.0138 27.0053 74.4656 27.9191 74.0392C28.0409 73.9782 28.1627 74.0392 28.2236 74.161C28.2846 74.2828 28.2236 74.4047 28.1018 74.4656C28.1323 74.4656 28.1018 74.4656 28.1018 74.4656Z" fill="#985F0A"/>
<path d="M27.9797 76.8109C27.066 77.146 26.1827 77.6028 25.4517 78.3034C24.7206 78.9735 24.2028 79.8263 23.8069 80.7401C24.1419 79.7959 24.5988 78.8821 25.2994 78.1206C25.9999 77.3592 26.8832 76.8109 27.797 76.3845C27.9188 76.3236 28.0407 76.3845 28.1016 76.5063C28.1625 76.6282 28.1016 76.75 27.9797 76.8109C28.0102 76.8109 27.9797 76.8109 27.9797 76.8109Z" fill="#985F0A"/>
<path d="M28.1626 78.7603C27.2793 79.1562 26.4264 79.6741 25.7259 80.3746C25.0558 81.0752 24.5684 81.9889 24.2334 82.9331C24.5075 81.9585 24.9035 81.0142 25.5736 80.2223C26.2132 79.4304 27.0661 78.8212 27.9798 78.3339C28.1017 78.2729 28.2235 78.3034 28.2844 78.4252C28.3149 78.5471 28.2844 78.6994 28.1626 78.7603Z" fill="#985F0A"/>
<path d="M28.6195 81.3493C27.7362 81.7757 26.8833 82.2935 26.2132 83.0245C25.5431 83.7555 25.0863 84.6693 24.7512 85.6135C24.9949 84.6388 25.4213 83.6946 26.0305 82.8722C26.6701 82.0498 27.523 81.4407 28.4063 80.9229C28.5281 80.8619 28.6499 80.8924 28.7109 81.0142C28.7718 81.1361 28.7413 81.2884 28.6195 81.3493C28.6499 81.3493 28.6195 81.3493 28.6195 81.3493Z" fill="#985F0A"/>
<path d="M28.6195 83.6337C27.7666 84.121 26.9442 84.6693 26.3046 85.4612C25.665 86.2227 25.269 87.1669 24.9949 88.1112C25.2081 87.1365 25.5431 86.1618 26.1218 85.3089C26.7006 84.4561 27.523 83.786 28.3758 83.2377C28.4672 83.1768 28.6195 83.2073 28.6804 83.2987C28.7413 83.39 28.7108 83.5423 28.6195 83.6337C28.6195 83.6032 28.6195 83.6337 28.6195 83.6337Z" fill="#985F0A"/>
<path d="M29.2286 85.5526C28.4063 86.0704 27.6143 86.6796 27.0356 87.502C26.4569 88.2939 26.0914 89.2686 25.8782 90.2433C26.0305 89.2381 26.3046 88.2634 26.8224 87.3801C27.3402 86.4968 28.1321 85.7963 28.9545 85.1871C29.0459 85.1262 29.1982 85.1262 29.2591 85.248C29.3809 85.3089 29.3505 85.4612 29.2286 85.5526Z" fill="#985F0A"/>
<path d="M29.4723 87.8979C28.65 88.4462 27.8885 89.0858 27.3402 89.9082C26.792 90.7306 26.4569 91.6748 26.2742 92.6799C26.3655 91.6748 26.6397 90.7001 27.127 89.7864C27.6144 88.903 28.3758 88.1416 29.1678 87.5324C29.2591 87.441 29.4114 87.4715 29.5028 87.5629C29.5942 87.6542 29.5942 87.8065 29.4723 87.8979C29.4723 87.8674 29.4723 87.8674 29.4723 87.8979Z" fill="#985F0A"/>
<path d="M30.051 90.03C29.2286 90.5783 28.4671 91.2179 27.9188 92.0403C27.3706 92.8627 27.0355 93.8069 26.8528 94.8121C26.9442 93.8069 27.2183 92.8323 27.7056 91.9185C28.193 91.0352 28.9544 90.2737 29.7464 89.6645C29.8377 89.5732 29.99 89.6036 30.0814 89.695C30.1728 89.7864 30.1728 89.9387 30.051 90.03Z" fill="#985F0A"/>
<path d="M30.6602 91.888C29.8683 92.4972 29.1678 93.1673 28.6804 94.0201C28.1931 94.873 27.919 95.8477 27.7971 96.8528C27.8276 95.8477 28.0103 94.8425 28.4672 93.9288C28.9241 93.015 29.6246 92.2231 30.3557 91.553C30.447 91.4616 30.5993 91.4921 30.6907 91.5834C30.7821 91.6748 30.7516 91.7662 30.6602 91.888C30.6602 91.8576 30.6602 91.888 30.6602 91.888Z" fill="#985F0A"/>
<path d="M31.1782 94.3856C30.3863 94.9948 29.6553 95.6649 29.1679 96.5178C28.6501 97.3706 28.376 98.3453 28.2542 99.3504C28.3151 98.3453 28.4978 97.3402 28.9547 96.3959C29.4116 95.4822 30.1121 94.6902 30.8736 94.0201C30.965 93.9288 31.1173 93.9592 31.2087 94.0506C31.3 94.1724 31.2696 94.2943 31.1782 94.3856Z" fill="#985F0A"/>
<path d="M32.0612 96.4873C31.3302 97.1573 30.6906 97.9188 30.2642 98.8326C29.8377 99.7159 29.6854 100.751 29.655 101.726C29.5941 100.721 29.7159 99.6854 30.0509 98.7412C30.4165 97.7665 31.0256 96.9137 31.7262 96.1827C31.8176 96.0913 31.9698 96.0913 32.0612 96.1827C32.1526 96.2131 32.1831 96.3654 32.0612 96.4873C32.0917 96.4568 32.0917 96.4568 32.0612 96.4873Z" fill="#985F0A"/>
<path d="M32.9448 98.4367C32.2138 99.1068 31.5741 99.8682 31.1477 100.782C30.7213 101.665 30.569 102.701 30.5385 103.676C30.4776 102.67 30.5994 101.635 30.9345 100.691C31.3 99.7159 31.9092 98.8631 32.6097 98.1321C32.7011 98.0407 32.8534 98.0407 32.9448 98.1321C33.0362 98.193 33.0362 98.3453 32.9448 98.4367Z" fill="#985F0A"/>
<path d="M33.706 100.386C33.036 101.117 32.4268 101.909 32.0613 102.823C31.6958 103.736 31.5739 104.772 31.6349 105.747C31.513 104.742 31.5435 103.706 31.8481 102.731C32.1526 101.757 32.7009 100.843 33.371 100.081C33.4624 99.99 33.5842 99.9596 33.706 100.051C33.767 100.142 33.7974 100.264 33.706 100.386Z" fill="#985F0A"/>
<path d="M34.7111 102.335C34.0411 103.066 33.4623 103.889 33.1577 104.803C32.8227 105.747 32.7313 106.752 32.7922 107.757C32.6399 106.752 32.6399 105.747 32.9141 104.742C33.1882 103.737 33.7365 102.853 34.3456 102.031C34.437 101.939 34.5589 101.909 34.6807 102C34.7721 102.061 34.8025 102.214 34.7111 102.335Z" fill="#985F0A"/>
<path d="M35.8383 104.193C35.1683 104.924 34.5895 105.747 34.2849 106.66C33.9499 107.605 33.8585 108.61 33.9194 109.615C33.7671 108.61 33.7671 107.605 34.0413 106.6C34.3154 105.594 34.8637 104.711 35.4728 103.889C35.5642 103.797 35.686 103.767 35.8079 103.858C35.9297 103.95 35.9297 104.071 35.8383 104.193C35.8688 104.193 35.8383 104.193 35.8383 104.193Z" fill="#985F0A"/>
<path d="M37.0565 106.508C36.4169 107.27 35.8686 108.092 35.564 109.036C35.2594 109.981 35.1985 110.986 35.2899 111.991C35.1376 111.016 35.1071 109.981 35.3508 108.975C35.5945 107.97 36.1123 107.056 36.7214 106.234C36.7824 106.143 36.9347 106.112 37.026 106.173C37.1174 106.234 37.1479 106.417 37.0565 106.508C37.0869 106.508 37.0869 106.508 37.0565 106.508Z" fill="#985F0A"/>
<path d="M38.336 108.092C37.7572 108.884 37.2394 109.737 36.9958 110.681C36.7521 111.625 36.7521 112.661 36.9044 113.636C36.6912 112.661 36.5693 111.625 36.7826 110.62C36.9653 109.615 37.4222 108.671 37.9704 107.818C38.0314 107.727 38.1837 107.666 38.275 107.757C38.3969 107.818 38.4273 107.97 38.336 108.092Z" fill="#985F0A"/>
<path d="M39.4018 110.194C38.8231 110.986 38.3662 111.869 38.153 112.844C37.9398 113.818 37.9703 114.823 38.153 115.798C37.8789 114.823 37.7571 113.818 37.9094 112.783C38.0617 111.778 38.4881 110.803 39.0059 109.95C39.0668 109.828 39.2191 109.798 39.3105 109.859C39.4323 109.92 39.4628 110.072 39.4018 110.194C39.4018 110.163 39.4018 110.194 39.4018 110.194Z" fill="#985F0A"/>
<path d="M40.7117 111.991C40.1329 112.783 39.6761 113.666 39.4628 114.641C39.2496 115.615 39.2801 116.621 39.4628 117.595C39.1887 116.621 39.0669 115.615 39.2192 114.58C39.3715 113.575 39.7979 112.6 40.3157 111.747C40.3766 111.625 40.5289 111.595 40.6203 111.656C40.7117 111.717 40.7726 111.839 40.7117 111.991C40.7117 111.96 40.7117 111.96 40.7117 111.991Z" fill="#985F0A"/>
<path d="M41.9606 113.483C41.4428 114.336 41.0163 115.219 40.864 116.194C40.7117 117.169 40.8031 118.174 41.0468 119.149C40.7117 118.204 40.529 117.199 40.6204 116.164C40.7117 115.159 41.0772 114.153 41.5341 113.27C41.595 113.148 41.7169 113.118 41.8387 113.179C41.9606 113.209 42.0215 113.361 41.9606 113.483Z" fill="#985F0A"/>
<path d="M43.4834 115.433C42.9656 116.285 42.5392 117.169 42.3869 118.143C42.2042 119.118 42.326 120.154 42.5392 121.128C42.2346 120.184 42.0519 119.149 42.1432 118.113C42.2346 117.077 42.6001 116.103 43.0875 115.189C43.1484 115.067 43.2702 115.037 43.392 115.098C43.5139 115.159 43.5443 115.311 43.4834 115.433C43.4834 115.402 43.4834 115.433 43.4834 115.433Z" fill="#985F0A"/>
<path d="M45.0368 117.108C44.6103 117.991 44.2753 118.935 44.2144 119.941C44.1535 120.915 44.3362 121.92 44.6713 122.865C44.2753 121.951 43.9707 120.946 43.9707 119.91C43.9707 118.875 44.2448 117.869 44.6103 116.925C44.6713 116.803 44.7931 116.742 44.9149 116.803C45.0368 116.864 45.0672 116.986 45.0368 117.108Z" fill="#985F0A"/>
<path d="M46.4989 118.844C46.0725 119.727 45.7375 120.672 45.6765 121.677C45.6156 122.651 45.7984 123.657 46.1334 124.601C45.7375 123.687 45.4329 122.682 45.4329 121.646C45.4329 120.611 45.707 119.606 46.0725 118.661C46.1334 118.539 46.2552 118.479 46.3771 118.539C46.4989 118.57 46.5598 118.722 46.4989 118.844Z" fill="#985F0A"/>
<path d="M48.0522 120.001C47.5648 120.793 47.1689 121.646 47.047 122.56C46.9252 123.474 47.047 124.448 47.3212 125.332C46.9861 124.448 46.7424 123.504 46.8338 122.53C46.8947 121.555 47.2298 120.611 47.6562 119.758C47.7171 119.636 47.839 119.606 47.9608 119.666C48.0522 119.758 48.1131 119.88 48.0522 120.001Z" fill="#985F0A"/>
<path d="M49.4838 121.555C49.0269 122.377 48.6614 123.23 48.57 124.144C48.4482 125.058 48.6309 126.032 48.9355 126.916C48.57 126.032 48.3264 125.088 48.3568 124.113C48.3873 123.139 48.6919 122.195 49.0878 121.311C49.1487 121.189 49.2706 121.159 49.3924 121.189C49.4838 121.281 49.5447 121.433 49.4838 121.555Z" fill="#985F0A"/>
<path d="M51.0371 123.017C50.5802 123.687 50.1843 124.448 50.0624 125.24C49.9101 126.063 50.0624 126.885 50.3366 127.677C49.9711 126.916 49.7579 126.063 49.8492 125.21C49.9101 124.357 50.2452 123.504 50.6716 122.773C50.7325 122.651 50.8848 122.621 50.9762 122.682C51.0676 122.743 51.098 122.895 51.0371 123.017Z" fill="#985F0A"/>
<path d="M52.9864 123.809C52.4077 124.388 51.8594 125.027 51.5549 125.789C51.2503 126.55 51.1893 127.403 51.3112 128.256C51.1284 127.433 51.098 126.55 51.3416 125.728C51.5853 124.905 52.1031 124.144 52.6514 123.504C52.7427 123.413 52.8646 123.382 52.9864 123.474C53.0778 123.565 53.1083 123.687 52.9864 123.809C53.0169 123.809 53.0169 123.809 52.9864 123.809Z" fill="#985F0A"/>
<path d="M105.741 96.7919C106.35 97.5838 106.898 98.4975 107.173 99.5027C107.447 100.508 107.447 101.513 107.294 102.518C107.355 101.513 107.294 100.508 106.959 99.5636C106.624 98.6194 106.076 97.8274 105.406 97.066C105.315 96.9746 105.345 96.8223 105.436 96.7309C105.497 96.67 105.619 96.67 105.741 96.7919C105.711 96.7614 105.711 96.7614 105.741 96.7919Z" fill="#985F0A"/>
<path d="M104.645 98.8631C105.223 99.6855 105.741 100.599 105.985 101.604C106.228 102.609 106.168 103.645 106.015 104.62C106.107 103.615 106.076 102.61 105.772 101.665C105.467 100.721 104.919 99.8987 104.31 99.1372C104.218 99.0458 104.249 98.8935 104.34 98.8022C104.431 98.7108 104.553 98.7412 104.645 98.8631C104.645 98.8326 104.645 98.8326 104.645 98.8631Z" fill="#985F0A"/>
<path d="M103.365 100.843C103.944 101.665 104.462 102.579 104.706 103.584C104.949 104.589 104.888 105.625 104.736 106.6C104.827 105.594 104.797 104.589 104.492 103.645C104.188 102.701 103.639 101.879 103.03 101.117C102.939 101.026 102.969 100.873 103.061 100.782C103.122 100.721 103.274 100.752 103.365 100.843Z" fill="#985F0A"/>
<path d="M102.269 102.488C102.817 103.341 103.243 104.285 103.426 105.29C103.609 106.295 103.487 107.331 103.243 108.275C103.426 107.3 103.426 106.265 103.183 105.32C102.939 104.376 102.451 103.493 101.873 102.701C101.812 102.61 101.812 102.457 101.934 102.396C102.056 102.335 102.177 102.366 102.269 102.488C102.269 102.457 102.269 102.488 102.269 102.488Z" fill="#985F0A"/>
<path d="M100.898 104.346C101.325 105.259 101.66 106.265 101.72 107.27C101.781 108.305 101.538 109.31 101.203 110.224C101.477 109.28 101.629 108.275 101.507 107.3C101.385 106.325 100.989 105.412 100.502 104.559C100.441 104.437 100.472 104.315 100.594 104.254C100.685 104.193 100.807 104.224 100.898 104.346C100.868 104.346 100.868 104.346 100.898 104.346Z" fill="#985F0A"/>
<path d="M99.2533 106.478C99.6188 107.422 99.8625 108.458 99.832 109.463C99.8016 110.498 99.497 111.473 99.101 112.387C99.4665 111.443 99.6797 110.437 99.6188 109.463C99.5579 108.488 99.2533 107.544 98.8269 106.63C98.766 106.508 98.8269 106.386 98.9487 106.326C99.0401 106.295 99.1924 106.356 99.2533 106.478Z" fill="#985F0A"/>
<path d="M97.639 108.031C98.0046 108.975 98.2482 110.011 98.2178 111.016C98.1873 112.052 97.8827 113.026 97.4868 113.94C97.8523 112.996 98.0655 111.991 98.0045 111.016C97.9436 110.041 97.639 109.097 97.2126 108.183C97.1517 108.062 97.2126 107.94 97.3345 107.879C97.4563 107.848 97.5781 107.909 97.639 108.031Z" fill="#985F0A"/>
<path d="M96.1466 109.432C96.4816 110.376 96.7557 111.412 96.6948 112.448C96.6644 113.483 96.3598 114.458 95.9029 115.372C96.2684 114.427 96.4816 113.453 96.4511 112.448C96.4207 111.473 96.1161 110.529 95.6897 109.615C95.6288 109.493 95.6897 109.371 95.8115 109.31C95.9333 109.25 96.0856 109.28 96.1466 109.432C96.1161 109.402 96.1161 109.432 96.1466 109.432Z" fill="#985F0A"/>
<path d="M94.5018 111.077C94.8064 112.052 95.05 113.057 94.9587 114.092C94.8977 115.128 94.5627 116.103 94.0754 116.986C94.4713 116.072 94.7455 115.098 94.715 114.092C94.715 113.118 94.4409 112.143 94.0449 111.229C93.984 111.108 94.0449 110.986 94.1667 110.925C94.319 110.894 94.4409 110.955 94.5018 111.077Z" fill="#985F0A"/>
<path d="M92.8265 112.539C93.1311 113.514 93.3747 114.519 93.2834 115.555C93.2224 116.59 92.8874 117.565 92.4001 118.448C92.796 117.534 93.0702 116.56 93.0397 115.555C93.0397 114.58 92.7656 113.605 92.3696 112.691C92.3087 112.57 92.3696 112.448 92.4914 112.387C92.6437 112.356 92.7656 112.417 92.8265 112.539Z" fill="#985F0A"/>
<path d="M91.2427 113.666C91.5472 114.641 91.73 115.676 91.6386 116.681C91.5472 117.687 91.1817 118.661 90.7249 119.545C91.1208 118.631 91.4254 117.656 91.4254 116.681C91.4254 115.707 91.1817 114.732 90.8162 113.818C90.7553 113.697 90.8162 113.575 90.9381 113.514C91.0294 113.453 91.1817 113.514 91.2427 113.666C91.2122 113.636 91.2122 113.636 91.2427 113.666Z" fill="#985F0A"/>
<path d="M89.3544 115.006C89.598 115.981 89.7503 117.047 89.598 118.052C89.4457 119.088 89.0498 120.032 88.532 120.885C88.9889 119.971 89.3239 119.027 89.3544 118.022C89.4153 117.017 89.2021 116.042 88.8975 115.128C88.867 115.006 88.928 114.884 89.0498 114.823C89.1716 114.793 89.2935 114.854 89.3544 115.006C89.3544 114.976 89.3544 114.976 89.3544 115.006Z" fill="#985F0A"/>
<path d="M87.4658 116.255C87.6181 117.26 87.6486 118.326 87.4049 119.331C87.1612 120.337 86.6739 121.25 86.0647 122.042C86.613 121.189 87.0394 120.276 87.1917 119.301C87.344 118.326 87.2526 117.321 87.0394 116.377C87.0089 116.255 87.1003 116.133 87.2221 116.103C87.3135 116.042 87.4353 116.103 87.4658 116.255Z" fill="#985F0A"/>
<path d="M85.6079 117.626C85.7602 118.631 85.7906 119.697 85.547 120.702C85.3033 121.707 84.816 122.621 84.2068 123.413C84.755 122.56 85.1815 121.646 85.3338 120.672C85.4861 119.697 85.3947 118.692 85.1815 117.748C85.151 117.626 85.2424 117.504 85.3642 117.473C85.4556 117.412 85.5774 117.473 85.6079 117.626C85.6079 117.595 85.6079 117.595 85.6079 117.626Z" fill="#985F0A"/>
<path d="M83.9326 118.6C84.024 119.606 83.9935 120.672 83.689 121.646C83.3844 122.621 82.8361 123.504 82.166 124.266C82.7447 123.443 83.2321 122.56 83.4453 121.585C83.6585 120.611 83.628 119.636 83.4453 118.661C83.4148 118.539 83.5062 118.418 83.628 118.387C83.7499 118.357 83.9022 118.479 83.9326 118.6C83.9022 118.6 83.9326 118.6 83.9326 118.6Z" fill="#985F0A"/>
<path d="M81.831 119.575C81.9833 120.58 82.0137 121.646 81.7701 122.621C81.5264 123.626 81.0086 124.509 80.3994 125.301C80.9477 124.448 81.3741 123.535 81.5264 122.56C81.7091 121.585 81.5873 120.58 81.3741 119.636C81.3436 119.514 81.435 119.392 81.5568 119.362C81.6787 119.331 81.8005 119.423 81.831 119.575Z" fill="#985F0A"/>
<path d="M79.9729 120.915C80.0034 121.92 79.8816 122.986 79.5161 123.931C79.1505 124.905 78.5414 125.728 77.8408 126.428C78.4805 125.667 79.0287 124.784 79.3028 123.839C79.577 122.895 79.6074 121.89 79.5161 120.915C79.5161 120.793 79.6074 120.672 79.7293 120.672C79.8511 120.672 79.9425 120.763 79.9729 120.915C79.9729 120.885 79.9729 120.885 79.9729 120.915Z" fill="#985F0A"/>
<path d="M77.9933 121.829C77.9628 122.834 77.7801 123.87 77.3536 124.814C76.9272 125.758 76.2571 126.55 75.5261 127.22C76.2267 126.489 76.8054 125.667 77.1404 124.753C77.4755 123.839 77.5669 122.834 77.5364 121.859C77.5364 121.738 77.6278 121.616 77.7496 121.616C77.8714 121.585 77.9933 121.677 77.9933 121.829C77.9933 121.799 77.9933 121.799 77.9933 121.829Z" fill="#985F0A"/>
<path d="M75.8611 122.712C75.8002 123.717 75.587 124.753 75.1301 125.667C74.6732 126.581 74.0031 127.342 73.2112 128.012C73.9117 127.312 74.5514 126.489 74.9169 125.575C75.2824 124.662 75.4042 123.687 75.4042 122.682C75.4042 122.56 75.4956 122.438 75.6174 122.438C75.7393 122.469 75.8611 122.59 75.8611 122.712Z" fill="#985F0A"/>
<path d="M73.5767 123.443C73.5158 124.448 73.3025 125.484 72.8457 126.398C72.3888 127.312 71.7187 128.073 70.9268 128.743C71.6273 128.043 72.2669 127.22 72.6325 126.306C72.998 125.393 73.1198 124.418 73.1198 123.413C73.1198 123.291 73.2112 123.169 73.333 123.169C73.4853 123.2 73.5767 123.291 73.5767 123.443Z" fill="#985F0A"/>
<path d="M71.6881 123.992C71.5663 124.997 71.2922 126.002 70.7744 126.885C70.2566 127.768 69.5256 128.499 68.7336 129.078C69.4951 128.439 70.1652 127.647 70.5612 126.763C70.9876 125.88 71.1703 124.905 71.2008 123.931C71.2008 123.809 71.3226 123.717 71.4445 123.717C71.5968 123.748 71.7186 123.87 71.6881 123.992Z" fill="#985F0A"/>
<path d="M69.5864 124.905C69.495 125.91 69.3123 126.946 68.8249 127.86C68.368 128.774 67.6675 129.535 66.906 130.205C67.637 129.505 68.2462 128.682 68.6117 127.768C69.0077 126.855 69.099 125.85 69.1295 124.875C69.1295 124.753 69.2209 124.662 69.3732 124.662C69.5255 124.662 69.5864 124.753 69.5864 124.905C69.5864 124.875 69.5864 124.905 69.5864 124.905Z" fill="#985F0A"/>
<path d="M67.698 125.484C67.5457 126.489 67.3021 127.525 66.7538 128.408C66.236 129.291 65.505 130.022 64.6826 130.601C65.4441 129.962 66.1142 129.17 66.5406 128.286C66.967 127.403 67.1498 126.428 67.2107 125.423C67.2107 125.301 67.3325 125.21 67.4544 125.21C67.6067 125.24 67.698 125.332 67.698 125.484C67.698 125.454 67.698 125.484 67.698 125.484Z" fill="#985F0A"/>
<path d="M65.4745 126.032C65.3222 127.037 65.0481 128.043 64.4998 128.926C63.982 129.809 63.2206 130.51 62.3982 131.119C63.1597 130.479 63.8602 129.718 64.2866 128.835C64.7435 127.951 64.9263 126.977 64.9872 126.002C64.9872 125.88 65.109 125.789 65.2309 125.789C65.3832 125.789 65.4745 125.88 65.4745 126.032Z" fill="#985F0A"/>
<path d="M63.4642 126.428C63.251 127.433 62.9159 128.408 62.3067 129.261C61.728 130.114 60.9361 130.784 60.0833 131.302C60.8752 130.693 61.6062 129.992 62.0935 129.139C62.5809 128.286 62.855 127.312 62.9768 126.337C63.0073 126.215 63.0987 126.124 63.2205 126.154C63.4033 126.185 63.4946 126.306 63.4642 126.428C63.4946 126.428 63.4642 126.428 63.4642 126.428Z" fill="#985F0A"/>
<path d="M61.3321 126.855C61.0579 127.829 60.662 128.804 60.0223 129.596C59.3827 130.418 58.5603 131.028 57.677 131.484C58.5298 130.936 59.2913 130.266 59.8396 129.444C60.3878 128.621 60.6924 127.677 60.9056 126.702C60.9361 126.581 61.0579 126.489 61.1798 126.52C61.3016 126.611 61.3625 126.733 61.3321 126.855C61.3625 126.855 61.3625 126.855 61.3321 126.855Z" fill="#985F0A"/>
<path d="M59.1392 126.855C58.9564 127.799 58.6518 128.743 58.0731 129.505C57.5248 130.297 56.7938 130.906 55.9714 131.424C56.7329 130.875 57.403 130.205 57.8599 129.383C58.3168 128.591 58.5604 127.677 58.6518 126.763C58.6518 126.641 58.7736 126.55 58.8955 126.55C59.0782 126.611 59.1696 126.702 59.1392 126.855Z" fill="#985F0A"/>
<path d="M57.0984 126.946C56.9156 127.89 56.611 128.835 56.0323 129.596C55.4841 130.388 54.7531 130.997 53.9307 131.515C54.6921 130.967 55.3622 130.297 55.8191 129.474C56.276 128.682 56.5197 127.768 56.611 126.855C56.611 126.733 56.7329 126.641 56.8547 126.641C57.0375 126.672 57.0984 126.794 57.0984 126.946Z" fill="#985F0A"/>
<path d="M56.0627 126.611C55.5754 127.464 54.9966 128.256 54.2047 128.865C53.4432 129.474 52.5295 129.84 51.6157 130.083C52.499 129.748 53.3823 129.322 54.0524 128.682C54.753 128.043 55.2403 127.251 55.6363 126.398C55.6972 126.276 55.819 126.246 55.9409 126.276C56.0932 126.337 56.1236 126.489 56.0627 126.611Z" fill="#985F0A"/>
<path d="M55.5145 125.636C54.9358 126.398 54.2352 127.129 53.3824 127.616C52.5296 128.103 51.5853 128.378 50.6411 128.499C51.5853 128.286 52.4991 127.951 53.2606 127.403C54.0525 126.855 54.6312 126.124 55.149 125.332C55.2099 125.24 55.3622 125.21 55.4536 125.271C55.545 125.362 55.5754 125.515 55.5145 125.636Z" fill="#985F0A"/>
<path d="M64.3781 36.8795C65.7183 36.7576 64.4999 31.7929 64.1344 29.3257C63.0988 22.6552 61.2408 19.3048 66.7539 14.7664C70.7744 11.5073 106.624 18.8174 111.559 62.6476C116.889 110.072 73.8812 124.723 61.9109 126.489C58.3777 127.007 55.6973 127.373 55.2709 125.606C54.814 123.839 59.3829 123.169 58.8041 122.073C57.9208 120.306 55.6973 124.296 52.5905 123.413C49.4837 122.53 31.1476 105.594 28.6499 81.7453C26.4264 60.4546 33.9193 49.7635 39.7369 38.7375C45.6459 27.5591 51.0676 20.3404 53.9307 19.6703C59.261 18.4215 61.3931 23.0207 62.3678 29.5998C62.7638 32.5239 62.2155 37.1232 64.3781 36.8795Z" fill="#EDCD24"/>
<path d="M64.3781 36.8795C65.7183 36.7576 64.4999 31.7929 64.1344 29.3257C63.0988 22.6552 61.2408 19.3048 66.7539 14.7664C70.7744 11.5073 106.624 18.8174 111.559 62.6476C116.889 110.072 73.8812 124.723 61.9109 126.489C58.3777 127.007 55.6973 127.373 55.2709 125.606C54.814 123.839 59.3829 123.169 58.8041 122.073C57.9208 120.306 55.6973 124.296 52.5905 123.413C49.4837 122.53 31.1476 105.594 28.6499 81.7453C26.4264 60.4546 33.9193 49.7635 39.7369 38.7375C45.6459 27.5591 51.0676 20.3404 53.9307 19.6703C59.261 18.4215 61.3931 23.0207 62.3678 29.5998C62.7638 32.5239 62.2155 37.1232 64.3781 36.8795Z" stroke="#D07D00" stroke-width="0.913763" stroke-miterlimit="10" stroke-linecap="round" stroke-linejoin="round"/>
<path d="M70.1651 19.9444C77.1097 14.34 99.8624 29.5085 105.619 55.8553C111.224 81.5625 105.528 93.3805 90.8466 108.762C81.2521 118.814 68.2462 121.768 63.9515 117.93C59.6568 114.092 57.7684 117.352 52.5599 117.93C46.0722 118.661 29.198 88.8117 34.5283 66.2113C39.8586 43.6109 46.6814 32.402 52.7122 30.8791C58.0425 29.5389 60.2964 41.8138 66.7537 39.3162C74.7339 36.2094 65.0175 24.1173 70.1651 19.9444Z" fill="#FFE86F"/>
<path d="M77.5058 55.2766C82.0746 47.9665 93.7403 50.7991 95.3241 61.7338C96.908 72.6685 83.3843 87.6847 71.2312 88.2025C63.1597 88.5376 60.4184 82.1717 62.2154 76.8718C64.0125 71.572 72.8456 72.8513 75.6173 67.3992C78.3586 61.947 74.0944 60.7287 77.5058 55.2766Z" fill="#FFF4CB" stroke="#F99E17" stroke-width="0.609176" stroke-miterlimit="10"/>
<path d="M55.0577 66.6986C60.693 66.6986 65.2614 62.1302 65.2614 56.4949C65.2614 50.8595 60.693 46.2912 55.0577 46.2912C49.4224 46.2912 44.854 50.8595 44.854 56.4949C44.854 62.1302 49.4224 66.6986 55.0577 66.6986Z" fill="#FFF4CB" stroke="#F99E17" stroke-width="0.456882" stroke-miterlimit="10"/>
<path d="M49.4532 50.5554C49.6969 49.1848 52.2859 47.6618 53.5042 48.3319C54.7226 49.002 55.3013 51.6215 52.7732 52.3829C50.2451 53.1444 49.1486 52.2002 49.4532 50.5554Z" fill="#801000"/>
<path d="M50.7324 50.6163C50.8542 49.8549 51.9203 49.5198 52.5295 49.733C53.1387 49.9462 53.626 51.3169 52.4076 51.6519C51.1588 52.0174 50.6106 51.2255 50.7324 50.6163Z" fill="#F93E30"/>
<path d="M59.0174 54.5455C60.1749 53.3272 63.2512 54.6369 63.6472 55.9771C64.0127 57.3173 62.3984 59.6626 60.053 58.3833C57.7077 57.1041 57.86 55.7334 59.0174 54.5455Z" fill="#801000"/>
<path d="M59.9923 56.3731C60.2969 55.6725 61.4239 55.6116 61.9417 55.9466C62.4595 56.2817 62.6118 57.7437 61.3629 57.7742C60.0837 57.8351 59.7486 56.9213 59.9923 56.3731Z" fill="#F93E30"/>
<path d="M47.565 56.434C48.3264 55.307 51.3418 54.9415 52.1642 56.038C53.0171 57.1345 52.4993 59.7845 49.8494 59.4494C47.2299 59.1448 46.6512 57.8046 47.565 56.434Z" fill="#801000"/>
<path d="M49.088 56.9518C49.3926 56.2513 50.5196 56.1904 51.0374 56.5254C51.5552 56.8605 51.7075 58.3225 50.4586 58.3529C49.1794 58.4139 48.8443 57.5001 49.088 56.9518Z" fill="#F93E30"/>
<path d="M52.7733 61.8252C53.5348 60.6982 56.5502 60.3327 57.3726 61.4292C58.2255 62.5257 57.7076 65.1756 55.0577 64.8406C52.4078 64.5055 51.8291 63.1958 52.7733 61.8252Z" fill="#801000"/>
<path d="M54.0526 62.282C54.3572 61.5815 55.4842 61.5206 56.002 61.8556C56.5198 62.1907 56.6721 63.6527 55.4232 63.6831C54.144 63.7136 53.8089 62.8303 54.0526 62.282Z" fill="#F93E30"/>
<path d="M72.5714 113.666C77.7189 113.666 81.8918 109.493 81.8918 104.346C81.8918 99.1981 77.7189 95.0253 72.5714 95.0253C67.4239 95.0253 63.251 99.1981 63.251 104.346C63.251 109.493 67.4239 113.666 72.5714 113.666Z" fill="#FFF4CB" stroke="#F99E17" stroke-width="0.456882" stroke-miterlimit="10"/>
<path d="M72.754 97.5533C73.9115 96.3349 76.9878 97.6447 77.3838 98.9848C77.7493 100.325 76.135 102.67 73.7896 101.391C71.4748 100.112 71.6271 98.7412 72.754 97.5533Z" fill="#801000"/>
<path d="M73.7288 99.3808C74.0333 98.6802 75.1603 98.6193 75.6781 98.9544C76.1959 99.2894 76.3482 100.751 75.0994 100.782C73.8506 100.812 73.4851 99.9291 73.7288 99.3808Z" fill="#F93E30"/>
<path d="M65.8705 103.645C66.632 102.518 69.6474 102.153 70.4698 103.249C71.3226 104.346 70.8048 106.996 68.1549 106.66C65.505 106.356 64.9263 105.016 65.8705 103.645Z" fill="#801000"/>
<path d="M67.3629 104.163C67.6675 103.462 68.7945 103.401 69.3123 103.736C69.8301 104.071 69.9824 105.533 68.7335 105.564C67.4543 105.625 67.1192 104.711 67.3629 104.163Z" fill="#F93E30"/>
<path d="M73.0283 106.935C73.7898 105.808 76.8052 105.442 77.6276 106.539C78.4805 107.635 77.9627 110.285 75.3128 109.95C72.6933 109.645 72.1146 108.305 73.0283 106.935Z" fill="#801000"/>
<path d="M74.3381 107.391C74.6427 106.691 75.7697 106.63 76.2875 106.965C76.8053 107.3 76.9576 108.762 75.7088 108.793C74.46 108.823 74.0945 107.94 74.3381 107.391Z" fill="#F93E30"/>
</svg>
