<svg width="746" height="383" viewBox="0 0 746 383" fill="none" xmlns="http://www.w3.org/2000/svg">
<path d="M7.44667 96.1992C7.95385 95.888 8.50191 95.5543 9.09057 95.199C13.3193 92.6466 19.6428 88.9817 27.9586 84.5744C44.591 75.7594 69.1874 63.9777 100.928 52.1873C164.411 28.606 256.444 5.00001 370.499 5.00001C484.561 5 577.856 28.4838 642.608 51.951C674.982 63.6839 700.211 75.4091 717.319 84.1836C725.872 88.5707 732.394 92.2193 736.763 94.7614C737.376 95.1185 737.947 95.4538 738.476 95.7662L507.333 376.161C505.437 375.541 502.766 374.693 499.402 373.692C492.221 371.554 481.873 368.711 469.151 365.87C443.726 360.192 408.721 354.5 370.499 354.5C332.249 354.5 298.216 360.45 273.757 366.391C261.52 369.363 251.658 372.339 244.839 374.578C241.806 375.573 239.373 376.424 237.6 377.064L7.44667 96.1992Z" fill="url(#paint0_radial_4264_275406)" stroke="#833A80" stroke-width="10"/>
<path d="M327.88 109.531H344.843V223.701H407.949V109.531H424.824V223.349H438.271L436.689 268.349H421.484V237.5H327.88V109.531Z" fill="#833A80"/>
<defs>
<radialGradient id="paint0_radial_4264_275406" cx="0" cy="0" r="1" gradientUnits="userSpaceOnUse" gradientTransform="translate(372.999 189.134) scale(372.999 1024.45)">
<stop stop-color="#D48DFF"/>
<stop offset="1" stop-color="#C76CFF"/>
</radialGradient>
</defs>
</svg>
