<svg width="526" height="443" viewBox="0 0 526 443" fill="none" xmlns="http://www.w3.org/2000/svg">
<path d="M8.3685 285.676L237.081 6.56977C237.131 6.60154 237.182 6.63361 237.233 6.66599C239.748 8.25544 243.431 10.6112 248.085 13.6649C257.395 19.7728 270.585 28.6699 286.081 39.8098C317.092 62.1024 357.253 93.3171 394.013 129.083C430.675 164.754 462.459 206.95 485.113 240.309C496.43 256.972 505.444 271.395 511.624 281.644C514.544 286.486 516.831 290.395 518.428 293.167L194.788 436.737C193.523 434.908 191.775 432.418 189.59 429.397C184.737 422.689 177.72 413.354 169.048 402.822C151.744 381.805 127.681 355.81 100.932 336.449C74.377 317.228 49.5919 303.95 31.4281 295.469C22.3433 291.228 14.9067 288.182 9.72226 286.192C9.25238 286.011 8.80098 285.839 8.3685 285.676Z" fill="url(#paint0_radial_4264_275405)" stroke="#833A80" stroke-width="10"/>
<path d="M231.381 180.031H248.344V294.201H311.449V180.031H328.324V293.849H341.771L340.189 338.849H324.984V308H231.381V180.031Z" fill="#833A80"/>
<defs>
<radialGradient id="paint0_radial_4264_275405" cx="0" cy="0" r="1" gradientUnits="userSpaceOnUse" gradientTransform="translate(262.75 218.764) scale(262.75 1184.94)">
<stop stop-color="#D48DFF"/>
<stop offset="1" stop-color="#C76CFF"/>
</radialGradient>
</defs>
</svg>
