<svg width="165" height="94" viewBox="0 0 165 94" fill="none" xmlns="http://www.w3.org/2000/svg">
<g filter="url(#filter0_d_4528_291856)">
<path d="M2 16C2 9.92487 6.92487 5 13 5H152C158.075 5 163 9.92487 163 16V79C163 85.0751 158.075 90 152 90H13C6.92486 90 2 85.0751 2 79V16Z" fill="white"/>
<path d="M58.5478 57L60.1682 52.158H67.551L69.181 57H72.9779L66.0553 37.3636H61.6639L54.7509 57H58.5478ZM61.127 49.3008L63.7829 41.3906H63.9363L66.5922 49.3008H61.127ZM72.3283 40.3455H78.3975V57H81.9259V40.3455H87.9952V37.3636H72.3283V40.3455ZM97.5928 39.5497C93.0097 39.5497 89.6731 42.7138 89.6731 47.5078C89.6731 52.2156 92.9714 55.2933 97.5928 55.2933H97.8709V57.8054H101.294V55.2933H101.562C106.165 55.2933 109.463 52.1772 109.463 47.4982C109.463 42.7138 106.165 39.5497 101.562 39.5497H101.294V37.0185H97.8709V39.5497H97.5928ZM97.5928 42.5604H97.8709V52.2827H97.5928C94.8219 52.2827 93.0385 50.576 93.0385 47.5078C93.0385 44.315 94.7931 42.5604 97.5928 42.5604ZM101.294 42.5604H101.572C104.362 42.5604 106.088 44.3246 106.088 47.4982C106.088 50.5472 104.362 52.2827 101.572 52.2827H101.294V42.5604Z" fill="#C66464"/>
<path d="M13 9H152V1H13V9ZM159 16V79H167V16H159ZM152 86H13V94H152V86ZM6 79V16H-2V79H6ZM13 86C9.13401 86 6 82.866 6 79H-2C-2 87.2843 4.71572 94 13 94V86ZM159 79C159 82.866 155.866 86 152 86V94C160.284 94 167 87.2843 167 79H159ZM152 9C155.866 9 159 12.134 159 16H167C167 7.71573 160.284 1 152 1V9ZM13 1C4.71573 1 -2 7.71573 -2 16H6C6 12.134 9.13401 9 13 9V1Z" fill="#C66464"/>
</g>
<defs>
<filter id="filter0_d_4528_291856" x="1" y="5" width="162" height="89" filterUnits="userSpaceOnUse" color-interpolation-filters="sRGB">
<feFlood flood-opacity="0" result="BackgroundImageFix"/>
<feColorMatrix in="SourceAlpha" type="matrix" values="0 0 0 0 0 0 0 0 0 0 0 0 0 0 0 0 0 0 127 0" result="hardAlpha"/>
<feOffset dx="-1" dy="4"/>
<feComposite in2="hardAlpha" operator="out"/>
<feColorMatrix type="matrix" values="0 0 0 0 0 0 0 0 0 0 0 0 0 0 0 0 0 0 0.1 0"/>
<feBlend mode="normal" in2="BackgroundImageFix" result="effect1_dropShadow_4528_291856"/>
<feBlend mode="normal" in="SourceGraphic" in2="effect1_dropShadow_4528_291856" result="shape"/>
</filter>
</defs>
</svg>
