<svg width="85" height="85" viewBox="0 0 85 85" fill="none" xmlns="http://www.w3.org/2000/svg">
<path d="M42.37 84.74C65.7703 84.74 84.74 65.7703 84.74 42.37C84.74 18.9697 65.7703 0 42.37 0C18.9697 0 0 18.9697 0 42.37C0 65.7703 18.9697 84.74 42.37 84.74Z" fill="url(#paint0_radial)"/>
<path d="M42.37 84.74C65.7703 84.74 84.74 65.7703 84.74 42.37C84.74 18.9697 65.7703 0 42.37 0C18.9697 0 0 18.9697 0 42.37C0 65.7703 18.9697 84.74 42.37 84.74Z" fill="#376D00" fill-opacity="0.17"/>
<path d="M28.368 55.7116C27.054 55.7116 25.857 55.4956 24.777 55.0636C23.697 54.6316 22.77 54.0016 21.996 53.1736C21.222 52.3456 20.619 51.3286 20.187 50.1226C19.773 48.8986 19.566 47.5036 19.566 45.9376C19.566 44.3716 19.8 42.9856 20.268 41.7796C20.754 40.5556 21.402 39.5296 22.212 38.7016C23.022 37.8736 23.967 37.2436 25.047 36.8116C26.127 36.3796 27.279 36.1636 28.503 36.1636C29.277 36.1636 29.97 36.2176 30.582 36.3256C31.212 36.4336 31.752 36.5596 32.202 36.7036C32.67 36.8476 33.048 36.9916 33.336 37.1356C33.624 37.2796 33.822 37.3876 33.93 37.4596L33.174 39.6196C33.012 39.5116 32.778 39.3946 32.472 39.2686C32.166 39.1426 31.815 39.0166 31.419 38.8906C31.041 38.7646 30.618 38.6656 30.15 38.5936C29.7 38.5036 29.241 38.4586 28.773 38.4586C27.783 38.4586 26.892 38.6296 26.1 38.9716C25.308 39.3136 24.633 39.8086 24.075 40.4566C23.517 41.1046 23.085 41.8966 22.779 42.8326C22.491 43.7506 22.347 44.7856 22.347 45.9376C22.347 47.0536 22.473 48.0706 22.725 48.9886C22.995 49.9066 23.391 50.6986 23.913 51.3646C24.435 52.0126 25.083 52.5166 25.857 52.8766C26.649 53.2366 27.567 53.4166 28.611 53.4166C29.817 53.4166 30.816 53.2906 31.608 53.0386C32.4 52.7866 32.994 52.5616 33.39 52.3636L34.065 54.5236C33.939 54.6136 33.714 54.7306 33.39 54.8746C33.066 55.0006 32.661 55.1266 32.175 55.2526C31.689 55.3786 31.122 55.4866 30.474 55.5766C29.826 55.6666 29.124 55.7116 28.368 55.7116ZM41.6552 53.4976C42.2492 53.4976 42.7712 53.4886 43.2212 53.4706C43.6892 53.4346 44.0762 53.3806 44.3822 53.3086V49.1236C44.2022 49.0336 43.9052 48.9616 43.4912 48.9076C43.0952 48.8356 42.6092 48.7996 42.0332 48.7996C41.6552 48.7996 41.2502 48.8266 40.8182 48.8806C40.4042 48.9346 40.0172 49.0516 39.6572 49.2316C39.3152 49.3936 39.0272 49.6276 38.7932 49.9336C38.5592 50.2216 38.4422 50.6086 38.4422 51.0946C38.4422 51.9946 38.7302 52.6246 39.3062 52.9846C39.8822 53.3266 40.6652 53.4976 41.6552 53.4976ZM41.4392 40.9156C42.4472 40.9156 43.2932 41.0506 43.9772 41.3206C44.6792 41.5726 45.2372 41.9416 45.6512 42.4276C46.0832 42.8956 46.3892 43.4626 46.5692 44.1286C46.7492 44.7766 46.8392 45.4966 46.8392 46.2886V55.0636C46.6232 55.0996 46.3172 55.1536 45.9212 55.2256C45.5432 55.2796 45.1112 55.3336 44.6252 55.3876C44.1392 55.4416 43.6082 55.4866 43.0322 55.5226C42.4742 55.5766 41.9162 55.6036 41.3582 55.6036C40.5662 55.6036 39.8372 55.5226 39.1712 55.3606C38.5052 55.1986 37.9292 54.9466 37.4432 54.6046C36.9572 54.2446 36.5792 53.7766 36.3092 53.2006C36.0392 52.6246 35.9042 51.9316 35.9042 51.1216C35.9042 50.3476 36.0572 49.6816 36.3632 49.1236C36.6872 48.5656 37.1192 48.1156 37.6592 47.7736C38.1992 47.4316 38.8292 47.1796 39.5492 47.0176C40.2692 46.8556 41.0252 46.7746 41.8172 46.7746C42.0692 46.7746 42.3302 46.7926 42.6002 46.8286C42.8702 46.8466 43.1222 46.8826 43.3562 46.9366C43.6082 46.9726 43.8242 47.0086 44.0042 47.0446C44.1842 47.0806 44.3102 47.1076 44.3822 47.1256V46.4236C44.3822 46.0096 44.3372 45.6046 44.2472 45.2086C44.1572 44.7946 43.9952 44.4346 43.7612 44.1286C43.5272 43.8046 43.2032 43.5526 42.7892 43.3726C42.3932 43.1746 41.8712 43.0756 41.2232 43.0756C40.3952 43.0756 39.6662 43.1386 39.0362 43.2646C38.4242 43.3726 37.9652 43.4896 37.6592 43.6156L37.3622 41.5366C37.6862 41.3926 38.2262 41.2576 38.9822 41.1316C39.7382 40.9876 40.5572 40.9156 41.4392 40.9156Z" fill="white"/>
<path d="M56.62 29.74C56.62 30.22 56.52 30.6933 56.32 31.16C56.12 31.6133 55.86 32.06 55.54 32.5C55.2333 32.9267 54.88 33.3467 54.48 33.76C54.08 34.16 53.68 34.5533 53.28 34.94C53.0667 35.14 52.8267 35.38 52.56 35.66C52.2933 35.94 52.04 36.22 51.8 36.5C51.56 36.78 51.3533 37.0533 51.18 37.32C51.0067 37.5733 50.9133 37.7867 50.9 37.96H57.06V40H48.24C48.2267 39.8933 48.22 39.7667 48.22 39.62C48.22 39.46 48.22 39.34 48.22 39.26C48.22 38.62 48.32 38.0333 48.52 37.5C48.7333 36.9533 49.0067 36.4467 49.34 35.98C49.6733 35.5133 50.0467 35.0733 50.46 34.66C50.8733 34.2467 51.2867 33.84 51.7 33.44C52.02 33.1333 52.3267 32.8333 52.62 32.54C52.9133 32.2467 53.1667 31.96 53.38 31.68C53.6067 31.3867 53.7867 31.0933 53.92 30.8C54.0533 30.4933 54.12 30.18 54.12 29.86C54.12 29.1667 53.92 28.6733 53.52 28.38C53.12 28.0867 52.6333 27.94 52.06 27.94C51.6867 27.94 51.34 27.9933 51.02 28.1C50.7 28.2067 50.4133 28.3333 50.16 28.48C49.92 28.6267 49.7067 28.78 49.52 28.94C49.3333 29.0867 49.1933 29.2067 49.1 29.3L47.9 27.6C48.46 27.0667 49.1133 26.64 49.86 26.32C50.62 25.9867 51.4333 25.82 52.3 25.82C53.78 25.82 54.8667 26.1733 55.56 26.88C56.2667 27.5733 56.62 28.5267 56.62 29.74Z" fill="white"/>
<path d="M58.431 31.847H63.534V26.285H65.694V31.847H70.797V33.98H65.694V39.569H63.534V33.98H58.431V31.847Z" fill="white"/>
<defs>
<radialGradient id="paint0_radial" cx="0" cy="0" r="1" gradientUnits="userSpaceOnUse" gradientTransform="translate(23.0352 16.4555) scale(74.883)">
<stop stop-color="#DAFFB5"/>
<stop offset="0.362207" stop-color="#2AFF00"/>
<stop offset="0.437756" stop-color="#27F900"/>
<stop offset="0.524414" stop-color="#20E900"/>
<stop offset="0.633293" stop-color="#14CE00"/>
<stop offset="0.7944" stop-color="#04AA00"/>
<stop offset="0.8182" stop-color="#00A100"/>
<stop offset="0.8537" stop-color="#03A700"/>
<stop offset="0.9017" stop-color="#0CB800"/>
<stop offset="0.9565" stop-color="#19D400"/>
<stop offset="1" stop-color="#27F000"/>
</radialGradient>
</defs>
</svg>
