<svg width="86" height="85" viewBox="0 0 86 85" fill="none" xmlns="http://www.w3.org/2000/svg">
<g filter="url(#filter0_ii)">
<path d="M86 0H0V85H86V0Z" fill="url(#paint0_linear)"/>
</g>
<path d="M39.368 52.405C38.054 52.405 36.857 52.189 35.777 51.757C34.697 51.325 33.77 50.695 32.996 49.867C32.222 49.039 31.619 48.022 31.187 46.816C30.773 45.592 30.566 44.197 30.566 42.631C30.566 41.065 30.8 39.679 31.268 38.473C31.754 37.249 32.402 36.223 33.212 35.395C34.022 34.567 34.967 33.937 36.047 33.505C37.127 33.073 38.279 32.857 39.503 32.857C40.277 32.857 40.97 32.911 41.582 33.019C42.212 33.127 42.752 33.253 43.202 33.397C43.67 33.541 44.048 33.685 44.336 33.829C44.624 33.973 44.822 34.081 44.93 34.153L44.174 36.313C44.012 36.205 43.778 36.088 43.472 35.962C43.166 35.836 42.815 35.71 42.419 35.584C42.041 35.458 41.618 35.359 41.15 35.287C40.7 35.197 40.241 35.152 39.773 35.152C38.783 35.152 37.892 35.323 37.1 35.665C36.308 36.007 35.633 36.502 35.075 37.15C34.517 37.798 34.085 38.59 33.779 39.526C33.491 40.444 33.347 41.479 33.347 42.631C33.347 43.747 33.473 44.764 33.725 45.682C33.995 46.6 34.391 47.392 34.913 48.058C35.435 48.706 36.083 49.21 36.857 49.57C37.649 49.93 38.567 50.11 39.611 50.11C40.817 50.11 41.816 49.984 42.608 49.732C43.4 49.48 43.994 49.255 44.39 49.057L45.065 51.217C44.939 51.307 44.714 51.424 44.39 51.568C44.066 51.694 43.661 51.82 43.175 51.946C42.689 52.072 42.122 52.18 41.474 52.27C40.826 52.36 40.124 52.405 39.368 52.405ZM52.1152 52.27C50.5672 52.234 49.4692 51.901 48.8212 51.271C48.1732 50.641 47.8492 49.66 47.8492 48.328V31.48L50.3602 31.048V47.923C50.3602 48.337 50.3962 48.679 50.4682 48.949C50.5402 49.219 50.6572 49.435 50.8192 49.597C50.9812 49.759 51.1972 49.885 51.4672 49.975C51.7372 50.047 52.0702 50.11 52.4662 50.164L52.1152 52.27Z" fill="white"/>
<path d="M53.702 32.739H60.371V35.088H53.702V32.739Z" fill="white"/>
<defs>
<filter id="filter0_ii" x="-5" y="-10" width="96" height="105" filterUnits="userSpaceOnUse" color-interpolation-filters="sRGB">
<feFlood flood-opacity="0" result="BackgroundImageFix"/>
<feBlend mode="normal" in="SourceGraphic" in2="BackgroundImageFix" result="shape"/>
<feColorMatrix in="SourceAlpha" type="matrix" values="0 0 0 0 0 0 0 0 0 0 0 0 0 0 0 0 0 0 127 0" result="hardAlpha"/>
<feOffset dx="-5" dy="-10"/>
<feGaussianBlur stdDeviation="5"/>
<feComposite in2="hardAlpha" operator="arithmetic" k2="-1" k3="1"/>
<feColorMatrix type="matrix" values="0 0 0 0 0 0 0 0 0 0 0 0 0 0 0 0 0 0 0.15 0"/>
<feBlend mode="normal" in2="shape" result="effect1_innerShadow"/>
<feColorMatrix in="SourceAlpha" type="matrix" values="0 0 0 0 0 0 0 0 0 0 0 0 0 0 0 0 0 0 127 0" result="hardAlpha"/>
<feOffset dx="5" dy="10"/>
<feGaussianBlur stdDeviation="5"/>
<feComposite in2="hardAlpha" operator="arithmetic" k2="-1" k3="1"/>
<feColorMatrix type="matrix" values="0 0 0 0 1 0 0 0 0 1 0 0 0 0 1 0 0 0 0.45 0"/>
<feBlend mode="normal" in2="effect1_innerShadow" result="effect2_innerShadow"/>
</filter>
<linearGradient id="paint0_linear" x1="16.8827" y1="-6.6102" x2="76.2743" y2="105.057" gradientUnits="userSpaceOnUse">
<stop stop-color="#DAFFB5"/>
<stop offset="0.2928" stop-color="#2AFF00"/>
<stop offset="0.345984" stop-color="#26F600"/>
<stop offset="0.447088" stop-color="#1CDF00"/>
<stop offset="0.629744" stop-color="#0AB800"/>
<stop offset="0.87591" stop-color="#01A400"/>
<stop offset="0.929866" stop-color="#05AC00"/>
<stop offset="0.9304" stop-color="#0DBB00"/>
<stop offset="0.9635" stop-color="#17CF00"/>
<stop offset="0.9935" stop-color="#24E900"/>
<stop offset="1" stop-color="#27F000"/>
</linearGradient>
</defs>
</svg>
