<svg width="165" height="94" viewBox="0 0 165 94" fill="none" xmlns="http://www.w3.org/2000/svg">
<g filter="url(#filter0_d_4528_291803)">
<path d="M2 16C2 9.92487 6.92487 5 13 5H152C158.075 5 163 9.92487 163 16V79C163 85.0751 158.075 90 152 90H13C6.92486 90 2 85.0751 2 79V16Z" fill="white"/>
<path d="M20.479 35.8665C20.7688 39.2926 23.1296 41.7386 27.3825 41.7386C31.7546 41.7386 34.4734 38.5852 34.4734 33.608V31.9886C34.4734 27.0028 31.6864 23.8068 27.3058 23.8068C23.0018 23.8068 20.8029 26.3892 20.462 29.7983H23.641C23.854 27.6932 24.7915 26.4403 27.3058 26.4403C29.8711 26.4403 31.2347 28.375 31.32 31.6733H25.337V34.2727H31.3029C31.1495 37.2045 29.9819 39.1562 27.3825 39.1562C24.979 39.1562 23.8626 38.0227 23.658 35.8665H20.479ZM36.6232 30.9403H40.859V41.5H43.842V30.9403H48.0778V28.4091H36.6232V30.9403ZM53.5089 37.3239V28.4091H50.5344V41.5H53.7134L58.9379 32.5767V41.5H61.9208V28.4091H58.7504L53.5089 37.3239ZM64.1857 41.5H65.1403C67.9528 41.5 69.2227 39.5227 69.4272 35.1591L69.6317 30.9403H73.3903V41.5H76.3732V28.4091H66.8278L66.5977 34.2045C66.4528 37.8778 65.9755 38.9602 64.6204 38.9602H64.1687L64.1857 41.5ZM85.19 41.7557C89.0252 41.7557 91.4627 39.054 91.4627 35.0057C91.4627 30.9489 89.0252 28.2386 85.19 28.2386C81.3548 28.2386 78.9173 30.9489 78.9173 35.0057C78.9173 39.054 81.3548 41.7557 85.19 41.7557ZM85.207 39.2841C83.0849 39.2841 82.0451 37.392 82.0451 34.9972C82.0451 32.6023 83.0849 30.6847 85.207 30.6847C87.2951 30.6847 88.3349 32.6023 88.3349 34.9972C88.3349 37.392 87.2951 39.2841 85.207 39.2841ZM94.0813 41.5H100.422C103.49 41.5 105.246 40.1108 105.246 37.946C105.246 36.1136 103.823 34.8352 101.769 34.6562C103.516 34.3324 104.607 33.4034 104.607 31.929C104.607 29.7216 102.672 28.4091 99.5785 28.4091H94.0813V41.5ZM96.9705 39.071V35.8239H100.422C101.556 35.8239 102.246 36.4801 102.246 37.5625C102.246 38.5 101.556 39.071 100.422 39.071H96.9705ZM96.9705 33.8295V30.8807H99.5785C100.865 30.8807 101.65 31.4261 101.65 32.321C101.65 33.2585 100.891 33.8295 99.6381 33.8295H96.9705ZM110.767 32.6705V28.4091H107.792V41.5H113.741C117.074 41.5 118.991 39.6591 119 37.0852C118.991 34.4432 117.074 32.6705 113.741 32.6705H110.767ZM120.627 41.5H123.713V28.4091H120.627V41.5ZM110.767 35.2017H113.741C115.079 35.2017 116.042 35.9943 116.042 37.1278C116.042 38.2102 115.079 38.9688 113.741 38.9688H110.767V35.2017ZM129.868 37.3239V28.4091H126.894V41.5H130.073L135.297 32.5767V41.5H138.28V28.4091H135.11L129.868 37.3239ZM134.266 23.9091C134.257 24.7443 133.78 25.4858 132.578 25.4858C131.36 25.4858 130.9 24.7273 130.9 23.9091H128.607C128.598 25.9034 130.141 27.25 132.578 27.25C135.033 27.25 136.576 25.9034 136.576 23.9091H134.266ZM54.733 70.7557C58.0227 70.7557 60.1193 68.804 60.3409 66.0256H57.392C57.1278 67.4318 56.1136 68.2415 54.7585 68.2415C52.8324 68.2415 51.5881 66.6307 51.5881 63.9545C51.5881 61.3125 52.858 59.7273 54.7585 59.7273C56.2415 59.7273 57.1534 60.6818 57.392 61.9432H60.3409C60.1278 59.1051 57.9119 57.2386 54.7159 57.2386C50.8807 57.2386 48.4602 60.0085 48.4602 64.0057C48.4602 67.9688 50.821 70.7557 54.733 70.7557ZM62.8743 70.5H65.8232V59.9403H70.9538V70.5H73.9283V57.4091H62.8743V70.5ZM80.0753 66.3239V57.4091H77.1009V70.5H80.2798L85.5043 61.5767V70.5H88.4872V57.4091H85.3168L80.0753 66.3239ZM91.6555 75.4091H94.7408V68.4375H94.8686C95.3544 69.392 96.3686 70.7301 98.6186 70.7301C101.704 70.7301 104.013 68.2841 104.013 63.9716C104.013 59.608 101.636 57.2386 98.6101 57.2386C96.3004 57.2386 95.3374 58.6278 94.8686 59.5739H94.6896V57.4091H91.6555V75.4091ZM94.6811 63.9545C94.6811 61.4148 95.772 59.7699 97.7578 59.7699C99.8118 59.7699 100.869 61.517 100.869 63.9545C100.869 66.4091 99.7947 68.1989 97.7578 68.1989C95.7891 68.1989 94.6811 66.4943 94.6811 63.9545ZM105.237 59.9403H109.472V70.5H112.455V59.9403H116.691V57.4091H105.237V59.9403Z" fill="#C68200"/>
<path d="M13 9H152V1H13V9ZM159 16V79H167V16H159ZM152 86H13V94H152V86ZM6 79V16H-2V79H6ZM13 86C9.13401 86 6 82.866 6 79H-2C-2 87.2843 4.71572 94 13 94V86ZM159 79C159 82.866 155.866 86 152 86V94C160.284 94 167 87.2843 167 79H159ZM152 9C155.866 9 159 12.134 159 16H167C167 7.71573 160.284 1 152 1V9ZM13 1C4.71573 1 -2 7.71573 -2 16H6C6 12.134 9.13401 9 13 9V1Z" fill="#C68200"/>
</g>
<defs>
<filter id="filter0_d_4528_291803" x="1" y="5" width="162" height="89" filterUnits="userSpaceOnUse" color-interpolation-filters="sRGB">
<feFlood flood-opacity="0" result="BackgroundImageFix"/>
<feColorMatrix in="SourceAlpha" type="matrix" values="0 0 0 0 0 0 0 0 0 0 0 0 0 0 0 0 0 0 127 0" result="hardAlpha"/>
<feOffset dx="-1" dy="4"/>
<feComposite in2="hardAlpha" operator="out"/>
<feColorMatrix type="matrix" values="0 0 0 0 0 0 0 0 0 0 0 0 0 0 0 0 0 0 0.1 0"/>
<feBlend mode="normal" in2="BackgroundImageFix" result="effect1_dropShadow_4528_291803"/>
<feBlend mode="normal" in="SourceGraphic" in2="effect1_dropShadow_4528_291803" result="shape"/>
</filter>
</defs>
</svg>
