<svg width="85" height="85" viewBox="0 0 85 85" fill="none" xmlns="http://www.w3.org/2000/svg">
<g clip-path="url(#clip0)">
<g filter="url(#filter0_ii)">
<path d="M42.5 0L0 85H85L42.5 0Z" fill="url(#paint0_linear)"/>
</g>
<path d="M45.173 46.289C44.615 46.901 43.985 47.585 43.283 48.341C42.581 49.079 41.843 49.844 41.069 50.636C40.313 51.41 39.557 52.175 38.801 52.931C38.045 53.687 37.334 54.389 36.668 55.037C37.442 55.577 38.261 56.243 39.125 57.035C39.989 57.827 40.835 58.673 41.663 59.573C42.491 60.473 43.265 61.391 43.985 62.327C44.723 63.263 45.335 64.154 45.821 65H42.743C42.203 64.154 41.582 63.308 40.88 62.462C40.178 61.598 39.431 60.779 38.639 60.005C37.865 59.213 37.073 58.484 36.263 57.818C35.471 57.152 34.697 56.585 33.941 56.117V65H31.322V46.289H33.941V54.551C34.571 53.957 35.264 53.291 36.02 52.553C36.776 51.797 37.523 51.041 38.261 50.285C38.999 49.529 39.692 48.809 40.34 48.125C41.006 47.423 41.564 46.811 42.014 46.289H45.173Z" fill="white"/>
<path d="M45.431 48.847H50.534V43.285H52.694V48.847H57.797V50.98H52.694V56.569H50.534V50.98H45.431V48.847Z" fill="white"/>
</g>
<defs>
<filter id="filter0_ii" x="-5" y="-10" width="95" height="105" filterUnits="userSpaceOnUse" color-interpolation-filters="sRGB">
<feFlood flood-opacity="0" result="BackgroundImageFix"/>
<feBlend mode="normal" in="SourceGraphic" in2="BackgroundImageFix" result="shape"/>
<feColorMatrix in="SourceAlpha" type="matrix" values="0 0 0 0 0 0 0 0 0 0 0 0 0 0 0 0 0 0 127 0" result="hardAlpha"/>
<feOffset dx="-5" dy="-10"/>
<feGaussianBlur stdDeviation="5"/>
<feComposite in2="hardAlpha" operator="arithmetic" k2="-1" k3="1"/>
<feColorMatrix type="matrix" values="0 0 0 0 0 0 0 0 0 0 0 0 0 0 0 0 0 0 0.15 0"/>
<feBlend mode="normal" in2="shape" result="effect1_innerShadow"/>
<feColorMatrix in="SourceAlpha" type="matrix" values="0 0 0 0 0 0 0 0 0 0 0 0 0 0 0 0 0 0 127 0" result="hardAlpha"/>
<feOffset dx="5" dy="10"/>
<feGaussianBlur stdDeviation="5"/>
<feComposite in2="hardAlpha" operator="arithmetic" k2="-1" k3="1"/>
<feColorMatrix type="matrix" values="0 0 0 0 1 0 0 0 0 1 0 0 0 0 1 0 0 0 0.45 0"/>
<feBlend mode="normal" in2="effect1_innerShadow" result="effect2_innerShadow"/>
</filter>
<linearGradient id="paint0_linear" x1="11.6705" y1="22.9291" x2="69.2994" y2="106.172" gradientUnits="userSpaceOnUse">
<stop stop-color="#FFA3FF"/>
<stop offset="0.0804" stop-color="#FF77FF"/>
<stop offset="0.1862" stop-color="#FF44FF"/>
<stop offset="0.569245" stop-color="#D500E4"/>
<stop offset="1" stop-color="#A400C4"/>
</linearGradient>
<clipPath id="clip0">
<rect width="85" height="85" fill="white"/>
</clipPath>
</defs>
</svg>
