<svg width="165" height="94" viewBox="0 0 165 94" fill="none" xmlns="http://www.w3.org/2000/svg">
<g filter="url(#filter0_d_4528_291858)">
<path d="M2 16C2 9.92487 6.92487 5 13 5H152C158.075 5 163 9.92487 163 16V79C163 85.0751 158.075 90 152 90H13C6.92486 90 2 85.0751 2 79V16Z" fill="white"/>
<path d="M48.1292 57H51.6863V48.6584H60.7854V57H64.3522V37.3636H60.7854V45.6765H51.6863V37.3636H48.1292V57ZM70.7426 57L72.363 52.158H79.7458L81.3758 57H85.1727L78.2501 37.3636H73.8588L66.9458 57H70.7426ZM73.3218 49.3008L75.9777 41.3906H76.1311L78.787 49.3008H73.3218ZM86.4838 61.7365H89.8972V57H102.41V61.7173H105.823V54.0948H103.637V37.3636H91.0861L90.5684 45.6669C90.252 50.9595 89.1301 53.0401 87.7974 54.0948H86.4838V61.7365ZM91.9395 54.0948C92.9846 52.3786 93.742 49.6843 93.9817 45.6669L94.2885 40.3455H100.224V54.0948H91.9395ZM111.693 46.4723H113.937V43.3274H117.226V41.1126H113.937V37.9773H111.693V41.1126H108.366V43.3274H111.693V46.4723Z" fill="#00A2C6"/>
<path d="M13 9H152V1H13V9ZM159 16V79H167V16H159ZM152 86H13V94H152V86ZM6 79V16H-2V79H6ZM13 86C9.13401 86 6 82.866 6 79H-2C-2 87.2843 4.71572 94 13 94V86ZM159 79C159 82.866 155.866 86 152 86V94C160.284 94 167 87.2843 167 79H159ZM152 9C155.866 9 159 12.134 159 16H167C167 7.71573 160.284 1 152 1V9ZM13 1C4.71573 1 -2 7.71573 -2 16H6C6 12.134 9.13401 9 13 9V1Z" fill="#00A2C6"/>
</g>
<defs>
<filter id="filter0_d_4528_291858" x="1" y="5" width="162" height="89" filterUnits="userSpaceOnUse" color-interpolation-filters="sRGB">
<feFlood flood-opacity="0" result="BackgroundImageFix"/>
<feColorMatrix in="SourceAlpha" type="matrix" values="0 0 0 0 0 0 0 0 0 0 0 0 0 0 0 0 0 0 127 0" result="hardAlpha"/>
<feOffset dx="-1" dy="4"/>
<feComposite in2="hardAlpha" operator="out"/>
<feColorMatrix type="matrix" values="0 0 0 0 0 0 0 0 0 0 0 0 0 0 0 0 0 0 0.1 0"/>
<feBlend mode="normal" in2="BackgroundImageFix" result="effect1_dropShadow_4528_291858"/>
<feBlend mode="normal" in="SourceGraphic" in2="effect1_dropShadow_4528_291858" result="shape"/>
</filter>
</defs>
</svg>
