<svg width="115" height="115" viewBox="0 0 115 115" fill="none" xmlns="http://www.w3.org/2000/svg">
<g clip-path="url(#clip0_4528_291851)">
<g filter="url(#filter0_d_4528_291851)">
<path d="M32.5468 7.99639C29.312 7.99639 26.2771 9.56107 24.4008 12.1961L2.87544 42.4262C-0.424287 47.0603 2.88874 53.4864 8.5776 53.4864H106.872C112.473 53.4864 115.805 47.236 112.684 42.5856L92.4424 12.4239C90.5853 9.6566 87.4717 7.99639 84.139 7.99639H32.5468Z" fill="white"/>
<path d="M32.5468 9.99639C29.959 9.99639 27.531 11.2481 26.03 13.3561L4.50463 43.5862C2.14768 46.8963 4.51412 51.4864 8.5776 51.4864H106.872C110.872 51.4864 113.253 47.0219 111.024 43.7001L90.7817 13.5384C89.296 11.3246 86.8051 9.99639 84.139 9.99639H32.5468Z" stroke="#C65F00" stroke-width="4"/>
</g>
<path d="M47.1665 21.3636H31.5187V41H35.0471V24.3168H43.6381V41H47.1665V21.3636ZM51.4212 41H59.3697C63.8665 41 66.0717 38.7085 66.0717 35.6499C66.0717 32.6776 63.9624 30.9325 61.8722 30.8271V30.6353C63.7898 30.1847 65.3047 28.8423 65.3047 26.4549C65.3047 23.5305 63.1953 21.3636 58.9382 21.3636H51.4212V41ZM54.9783 38.0277V32.2749H58.8999C61.0955 32.2749 62.457 33.6172 62.457 35.3718C62.457 36.9347 61.3832 38.0277 58.804 38.0277H54.9783ZM54.9783 29.7148V24.2976H58.5739C60.6641 24.2976 61.7475 25.4002 61.7475 26.9151C61.7475 28.641 60.3477 29.7148 58.4972 29.7148H54.9783ZM80.9308 41H85.3126L77.2203 30.3189L84.977 21.3636H80.5953L73.6151 29.4368H72.7235V21.3636H69.1663V41H72.7235V32.4187H74.4685L80.9308 41Z" fill="#C65F00"/>
</g>
<defs>
<filter id="filter0_d_4528_291851" x="0.565277" y="7.9964" width="113.319" height="49.49" filterUnits="userSpaceOnUse" color-interpolation-filters="sRGB">
<feFlood flood-opacity="0" result="BackgroundImageFix"/>
<feColorMatrix in="SourceAlpha" type="matrix" values="0 0 0 0 0 0 0 0 0 0 0 0 0 0 0 0 0 0 127 0" result="hardAlpha"/>
<feOffset dx="-1" dy="4"/>
<feComposite in2="hardAlpha" operator="out"/>
<feColorMatrix type="matrix" values="0 0 0 0 0 0 0 0 0 0 0 0 0 0 0 0 0 0 0.1 0"/>
<feBlend mode="normal" in2="BackgroundImageFix" result="effect1_dropShadow_4528_291851"/>
<feBlend mode="normal" in="SourceGraphic" in2="effect1_dropShadow_4528_291851" result="shape"/>
</filter>
<clipPath id="clip0_4528_291851">
<rect width="115" height="115" fill="white"/>
</clipPath>
</defs>
</svg>
