<svg width="140" height="140" viewBox="0 0 140 140" fill="none" xmlns="http://www.w3.org/2000/svg">
<path d="M14.4186 51.3109C12.5736 53.2256 11.06 55.6037 9.46907 60.0684C7.54202 65.4777 4.74095 76.0907 6.80412 91.527C6.80412 92.7177 6.80412 93.9079 6.80412 95.0986C25.5922 99.2561 41.6589 102.333 54.0132 102.333C54.0132 102.333 66.9237 103.434 96.1413 100.698C101.303 100.214 107.467 99.5815 112.263 95.0986C115.947 91.6557 114.917 89.6119 120.253 84.2767C125.353 79.1779 129.375 75.5816 129.375 75.5816C130.096 74.9364 131.971 73.274 133.167 70.4768C133.61 69.4409 133.84 68.5323 133.964 67.9197C132.947 66.2386 131.657 63.729 130.82 60.4959C129.669 56.0428 130.394 53.7696 128.719 52.0881C126.17 49.5296 121.449 50.454 119.523 50.7743C109.423 52.4549 97.1137 49.6177 72.496 43.9426C63.4821 41.8648 62.6659 41.0047 57.4394 40.6494C51.3305 40.2345 45.2883 41.5096 33.4543 44.0764C20.2096 46.9492 17.0589 48.5706 14.4186 51.3109Z" fill="#D7A1A2"/>
<path d="M14.4185 47.7382C12.0789 50.1662 10.7187 52.8724 9.46897 56.4957C5.13846 69.0523 5.65915 82.415 6.80401 91.5259C25.7944 95.5314 41.9324 97.6051 54.0131 98.7603C102.956 103.44 107.457 95.1608 108.265 93.2219C108.399 92.9002 108.486 92.6237 108.539 92.4345C109.445 92.3697 110.796 92.1739 112.263 91.5259C116.263 89.759 117.461 85.6928 119.261 83.7245C128.612 73.4956 133.462 72.9851 133.964 67.919C134.291 64.6225 132.235 64.8663 130.821 56.9237C129.973 52.1629 130.374 50.1773 128.719 48.5158C126.17 45.9573 121.45 46.8818 119.524 47.2021C109.423 48.8827 97.1141 46.0454 72.4964 40.3704C63.4825 38.2925 62.6662 37.4324 57.4398 37.0772C51.3309 36.6622 45.2887 37.9373 33.4546 40.5042C20.2095 43.3764 17.0588 44.9979 14.4185 47.7382Z" fill="#F3DBD5"/>
<path d="M130.409 54.1517C130.104 54.3545 129.802 54.5605 129.502 54.7643C128.864 55.1978 128.225 55.6314 127.558 56.0202C126.881 56.4146 126.183 56.7232 125.453 57.0034C123.901 57.5997 122.381 58.278 120.908 59.0486C117.645 60.7559 115.013 62.5913 112.92 64.257C109.851 66.7003 108.483 68.3572 108.419 68.2948C108.303 68.1819 111.9 61.9931 118.477 59.0929C119.103 58.8169 122.949 57.1619 125.501 56.0841C126.104 55.8291 127.77 55.1139 129.698 53.7624C129.904 53.6179 130.107 53.4673 130.307 53.3144C130.218 52.5694 130.141 51.9279 130.04 51.3601C129.158 52.0603 127.761 52.9815 125.869 53.4449C124.52 53.7755 124.375 53.5172 123.277 53.8155C120.842 54.4766 120.519 56.0272 117.932 57.52C115.647 58.8388 113.377 59.0831 113.329 58.9489C113.283 58.8225 115.226 58.4258 117.562 56.885C120.153 55.1759 120.451 53.8915 122.695 53.1806C123.793 52.8328 123.931 53.0743 125.552 52.7041C127.493 52.2612 128.989 51.5293 129.963 50.969C129.891 50.54 129.72 49.8855 129.285 49.2118C129.129 48.9699 128.943 48.7396 128.72 48.5158C126.171 45.9573 121.451 46.8818 119.525 47.2021C109.424 48.8827 97.115 46.0454 72.4973 40.3704C63.4834 38.2925 62.6672 37.4324 57.4407 37.0772C51.3318 36.6622 45.2897 37.9373 33.4556 40.5042C20.2104 43.3769 17.0598 44.9983 14.4195 47.7387C12.9838 49.2286 11.7158 51.0016 10.5715 53.6053C11.9736 54.1078 14.047 54.8314 16.5773 55.6379C16.5773 55.6379 23.9331 57.9834 30.8251 59.5414C42.9086 62.2738 47.5542 58.657 64.3327 60.7027C68.5653 61.2188 77.2077 62.5386 85.9909 64.1591C93.4409 65.5334 96.207 66.2416 100.002 64.9712C105.45 63.1484 105.532 59.7559 112.719 54.9489C119.889 50.1536 127.168 48.6062 127.312 48.9396C127.43 49.2128 122.683 50.8832 115.724 55.092C105.508 61.2691 105.956 63.5815 99.9921 65.3703C94.265 67.0882 88.1808 66.6574 84.1365 66.3712C82.4407 66.2514 80.5985 66.1246 78.1829 65.5428C74.5195 64.6607 72.8292 63.3875 66.0612 62.5456C63.6358 62.2439 56.9582 62.326 43.6022 62.4896C39.9378 62.5344 36.8333 62.5964 32.4128 62.2589C28.6431 61.9712 24.8882 61.4794 21.1726 60.7801C17.5268 60.0943 13.917 59.2076 10.3789 58.0911C9.951 57.9559 9.524 57.8174 9.09841 57.6752C8.39173 60.0174 7.8417 62.478 7.4175 64.8038C11.2707 64.9241 15.1234 65.0542 18.9761 65.1819C32.8085 65.6407 36.4725 67.2481 44.0376 65.8127C46.5431 65.3372 47.7738 64.8836 51.1072 64.4584C55.1105 63.9479 59.303 63.4127 63.7067 64.4584C67.5547 65.3722 67.5053 66.5288 74.3087 69.9903C81.7862 73.7949 86.567 74.7996 86.4473 75.215C86.2944 75.746 78.3913 74.4173 69.8529 71.2197C66.5791 69.9936 65.0268 69.1726 63.4722 68.5152C54.7893 64.8439 46.9133 67.4705 31.7206 68.7073C23.2605 69.3959 14.8395 70.4635 6.43018 71.6061C6.22508 73.4551 6.12208 74.8262 6.08105 75.3959C13.3408 74.4071 21.5226 73.732 30.4745 73.7064C41.6281 73.6747 50.3609 74.6607 54.738 75.2383C58.9058 75.7879 56.7611 75.6551 69.2305 77.6891C78.2281 79.1567 86.4985 80.3931 96.5035 80.139C100.949 80.0262 102.19 79.7091 103.037 79.4388C109.402 77.4089 111.932 72.1628 116.705 66.409C119.435 63.1171 123.768 58.6127 130.409 54.1517Z" fill="#B24652"/>
<path d="M128.3 48.1425C128.222 48.08 128.142 48.0203 128.059 47.9639C128.044 47.9518 128.029 47.9401 128.014 47.934C127.957 47.8926 127.901 47.8539 127.841 47.818C127.791 47.7853 127.74 47.7527 127.689 47.7257C127.639 47.6958 127.588 47.666 127.538 47.6394C127.499 47.6156 127.457 47.5947 127.415 47.5769C127.353 47.541 127.29 47.5117 127.225 47.4819C126.844 47.3005 126.442 47.1634 126.031 47.059C125.93 47.0324 125.826 47.0082 125.722 46.9877C125.647 46.97 125.573 46.955 125.499 46.9429C125.448 46.9308 125.397 46.9219 125.344 46.9163C125.266 46.9014 125.189 46.8898 125.109 46.8804C125.097 46.8776 125.088 46.8744 125.079 46.8744C124.99 46.8623 124.901 46.8506 124.811 46.8417C124.668 46.8268 124.525 46.8119 124.385 46.8031C124.311 46.797 124.237 46.7942 124.162 46.7881H124.144C123.933 46.7793 123.725 46.7732 123.519 46.7732C121.915 46.7732 120.419 47.0529 119.523 47.2017C118.77 47.3266 118.002 47.4278 117.219 47.5024C116.773 47.5471 116.321 47.5825 115.859 47.6096C115.799 47.6124 115.74 47.6156 115.681 47.6184C111.657 47.8417 107.155 47.4664 101.646 46.5769C101.272 46.5145 100.89 46.452 100.507 46.3863C93.2542 45.1569 84.2879 43.0884 72.4972 40.3714C63.4833 38.294 62.6648 37.4339 57.4392 37.0768C51.3299 36.6632 45.2886 37.9369 33.4531 40.5052C21.6717 43.059 17.8773 44.6273 15.3237 46.8683C16.291 47.9098 18.371 48.3117 19.5825 48.5201C20.987 48.7611 22.4064 48.8832 23.823 49.0142C25.4447 49.1602 27.0609 49.3741 28.6766 49.5709C40.2081 50.9606 51.6772 52.913 62.9589 55.7018C64.7237 56.1363 66.4736 56.6245 68.2203 57.1275C75.9518 59.3508 78.124 59.8538 79.8861 60.3237C91.4503 63.4072 97.2533 64.955 101.521 63.1899C101.539 63.1839 101.554 63.175 101.572 63.169C105.53 61.5051 104.125 59.7792 111.22 55.3144C115.924 52.3499 120.138 50.8441 122.171 50.1895C124.123 49.5616 125.807 49.1597 127.063 48.8977C127.447 48.6776 127.872 48.4273 128.301 48.1448C128.302 48.1425 128.3 48.1425 128.3 48.1425Z" fill="url(#paint0_linear_4821_340915)"/>
<path opacity="0.7" d="M101.647 46.5762C107.152 47.4629 111.658 47.8409 115.681 47.6176C111.658 47.8409 107.155 47.4661 101.647 46.5762Z" fill="url(#paint1_linear_4821_340915)"/>
<path opacity="0.7" d="M133.965 67.9188C133.867 68.9072 133.599 69.7225 133.17 70.4694C133.17 70.4694 133.168 70.4722 133.168 70.4755C131.971 73.2731 130.097 74.937 129.376 75.5798C129.376 75.5798 125.353 79.178 120.252 84.2763C114.916 89.6096 115.946 91.6544 112.265 95.0977C110.366 96.8716 108.256 98.038 106.078 98.8357C106.917 97.7523 107.64 96.5886 108.122 95.294C108.542 94.1718 108.759 92.9817 108.825 91.7882C108.902 90.3863 108.816 88.9639 108.56 87.5859C108.033 84.7761 106.784 82.1691 105.501 79.6395C104.212 77.1039 102.828 74.5771 102.04 71.8297C101.632 70.4069 101.423 68.9486 101.421 67.4666C101.415 66.041 101.546 64.6153 101.522 63.1897C101.54 63.1836 101.554 63.1748 101.573 63.1687C105.531 61.5048 104.126 59.779 111.22 55.3142C115.925 52.3497 120.139 50.8438 122.172 50.1893C124.124 49.5613 125.808 49.1594 127.064 48.8974C127.448 48.6774 127.873 48.427 128.302 48.1445C128.448 48.2578 128.585 48.3828 128.719 48.5166C130.374 50.1772 129.974 52.1622 130.82 56.9245C132.236 64.8652 134.293 64.6214 133.965 67.9188Z" fill="url(#paint2_linear_4821_340915)"/>
<path d="M85.2688 55.3899C85.425 54.1867 77.7358 52.9 60.0889 48.2422C51.3053 45.9238 46.1814 44.3872 38.3496 44.4679C34.0327 44.5126 28.4944 45.0529 28.4659 45.8399C28.4254 46.9797 40.0558 45.4045 54.8853 50.3769C62.766 53.0193 69.8962 56.9564 80.7709 56.382C82.1419 56.3098 85.1718 56.1349 85.2688 55.3899Z" fill="url(#paint3_linear_4821_340915)"/>
<path d="M23.7593 52.9974C26.4923 54.7121 21.9898 62.7568 19.9304 79.2276C19.1449 85.5096 19.0508 90.3282 17.6332 90.524C16.1728 90.7254 14.3954 85.8714 13.9959 84.78C10.6382 75.6104 9.83273 60.3233 18.3991 54.5289C19.2736 53.9377 22.1534 51.9895 23.7593 52.9974Z" fill="url(#paint4_linear_4821_340915)"/>
<path d="M25.7811 55.185C25.9232 54.7621 26.9879 55.1108 31.0182 54.8749C34.195 54.6889 34.4244 54.4204 35.6695 54.6684C37.4749 55.0274 37.6995 55.7332 40.3333 57.0246C43.6182 58.6353 45.7812 58.7696 45.7299 59.1826C45.6753 59.6236 43.1828 59.6745 39.6313 59.7341C36.7523 59.7826 35.3128 59.8064 34.4976 59.6996C29.6655 59.0651 25.4837 56.0708 25.7811 55.185Z" fill="url(#paint5_linear_4821_340915)"/>
<path d="M37.4684 57.2277C37.4684 58.5065 36.3389 59.5433 34.9456 59.5433C33.5523 59.5433 32.4229 58.507 32.4229 57.2277C32.4229 56.1284 33.2577 55.2082 34.3774 54.9713H34.3778C34.5526 54.9345 34.7344 54.914 34.9214 54.9126C34.9293 54.9121 34.9377 54.9121 34.9456 54.9121C35.2011 54.9121 35.4476 54.9466 35.6798 55.0119C36.7146 55.3009 37.4684 56.1834 37.4684 57.2277Z" fill="#DCD5AC"/>
<path d="M37.4684 57.2277C37.4684 58.5065 36.3389 59.5433 34.9456 59.5433C33.5523 59.5433 32.4229 58.507 32.4229 57.2277C32.4229 56.1284 33.2577 55.2082 34.3774 54.9713H34.3778C34.5526 54.9345 34.7344 54.914 34.9214 54.9126C34.9293 54.9121 34.9377 54.9121 34.9456 54.9121C35.2011 54.9121 35.4476 54.9466 35.6798 55.0119C36.7146 55.3009 37.4684 56.1834 37.4684 57.2277Z" fill="url(#paint6_radial_4821_340915)"/>
<path d="M50.9388 69.6361C51.081 69.2133 52.1456 69.562 56.1759 69.3261C59.3523 69.1401 59.5821 68.8716 60.8272 69.1196C62.6326 69.4786 62.8572 70.1844 65.491 71.4758C68.7759 73.0865 70.9388 73.2207 70.888 73.6338C70.8335 74.0748 68.341 74.1256 64.7894 74.1853C61.9105 74.2338 60.4711 74.2576 59.6558 74.1508C54.8232 73.5163 50.6414 70.5219 50.9388 69.6361Z" fill="url(#paint7_linear_4821_340915)"/>
<path d="M62.6247 71.6789C62.6247 72.9577 61.4952 73.9945 60.1019 73.9945C58.7086 73.9945 57.5791 72.9581 57.5791 71.6789C57.5791 70.5796 58.414 69.6588 59.5337 69.4225H59.5341C59.7089 69.3856 59.8907 69.3651 60.0777 69.3637C60.0856 69.3633 60.094 69.3633 60.1019 69.3633C60.3574 69.3633 60.6039 69.3978 60.8361 69.463C61.8709 69.7521 62.6247 70.6346 62.6247 71.6789Z" fill="#DCD5AC"/>
<path d="M62.6247 71.6789C62.6247 72.9577 61.4952 73.9945 60.1019 73.9945C58.7086 73.9945 57.5791 72.9581 57.5791 71.6789C57.5791 70.5796 58.414 69.6588 59.5337 69.4225H59.5341C59.7089 69.3856 59.8907 69.3651 60.0777 69.3637C60.0856 69.3633 60.094 69.3633 60.1019 69.3633C60.3574 69.3633 60.6039 69.3978 60.8361 69.463C61.8709 69.7521 62.6247 70.6346 62.6247 71.6789Z" fill="url(#paint8_radial_4821_340915)"/>
<path d="M75.3045 67.3764C75.4467 66.9536 76.5114 67.3023 80.5417 67.0664C83.7185 66.8803 83.9478 66.6118 85.1929 66.8598C86.9983 67.2188 87.223 67.9246 89.8567 69.216C93.1417 70.8267 95.3046 70.961 95.2533 71.3741C95.1988 71.8151 92.7063 71.8659 89.1552 71.9256C86.2762 71.9741 84.8368 71.9978 84.0215 71.8911C79.1889 71.2566 75.0071 68.2622 75.3045 67.3764Z" fill="url(#paint9_linear_4821_340915)"/>
<path d="M86.9903 69.4191C86.9903 70.6979 85.8609 71.7348 84.4676 71.7348C83.0743 71.7348 81.9448 70.6984 81.9448 69.4191C81.9448 68.3198 82.7797 67.3991 83.8994 67.1627H83.8998C84.0746 67.1259 84.2564 67.1054 84.4433 67.104C84.4513 67.1035 84.4597 67.1035 84.4676 67.1035C84.723 67.1035 84.9696 67.138 85.2017 67.2033C86.2366 67.4923 86.9903 68.3748 86.9903 69.4191Z" fill="#DCD5AC"/>
<path d="M86.9903 69.4191C86.9903 70.6979 85.8609 71.7348 84.4676 71.7348C83.0743 71.7348 81.9448 70.6984 81.9448 69.4191C81.9448 68.3198 82.7797 67.3991 83.8994 67.1627H83.8998C84.0746 67.1259 84.2564 67.1054 84.4433 67.104C84.4513 67.1035 84.4597 67.1035 84.4676 67.1035C84.723 67.1035 84.9696 67.138 85.2017 67.2033C86.2366 67.4923 86.9903 68.3748 86.9903 69.4191Z" fill="url(#paint10_radial_4821_340915)"/>
<defs>
<linearGradient id="paint0_linear_4821_340915" x1="68.8376" y1="-44.7692" x2="74.2419" y2="122.748" gradientUnits="userSpaceOnUse">
<stop stop-color="white" stop-opacity="0.6"/>
<stop offset="1" stop-color="white" stop-opacity="0"/>
</linearGradient>
<linearGradient id="paint1_linear_4821_340915" x1="62.3862" y1="47.1286" x2="115.682" y2="47.1286" gradientUnits="userSpaceOnUse">
<stop offset="0.0012" stop-color="#4F4942"/>
<stop offset="1" stop-color="#4F4942" stop-opacity="0"/>
</linearGradient>
<linearGradient id="paint2_linear_4821_340915" x1="211.469" y1="101.245" x2="64.8281" y2="58.0852" gradientUnits="userSpaceOnUse">
<stop offset="0.0012" stop-color="#A21C26"/>
<stop offset="1" stop-color="#A21C26" stop-opacity="0"/>
</linearGradient>
<linearGradient id="paint3_linear_4821_340915" x1="21.8913" y1="-34.1372" x2="82.1355" y2="111.759" gradientUnits="userSpaceOnUse">
<stop stop-color="white" stop-opacity="0.6"/>
<stop offset="1" stop-color="white" stop-opacity="0"/>
</linearGradient>
<linearGradient id="paint4_linear_4821_340915" x1="-55.7722" y1="-47.9554" x2="85.3346" y2="173.759" gradientUnits="userSpaceOnUse">
<stop stop-color="white" stop-opacity="0.6"/>
<stop offset="1" stop-color="white" stop-opacity="0"/>
</linearGradient>
<linearGradient id="paint5_linear_4821_340915" x1="35.2097" y1="52.1122" x2="36.3104" y2="62.5677" gradientUnits="userSpaceOnUse">
<stop offset="0.0012" stop-color="#A21C26"/>
<stop offset="1" stop-color="#A21C26" stop-opacity="0"/>
</linearGradient>
<radialGradient id="paint6_radial_4821_340915" cx="0" cy="0" r="1" gradientUnits="userSpaceOnUse" gradientTransform="translate(34.9455 57.2279) scale(2.42113 2.42142)">
<stop offset="0.5352" stop-color="#6F6558" stop-opacity="0"/>
<stop offset="1" stop-color="#6F6558" stop-opacity="0.3"/>
</radialGradient>
<linearGradient id="paint7_linear_4821_340915" x1="60.3675" y1="66.5633" x2="61.4681" y2="77.0188" gradientUnits="userSpaceOnUse">
<stop offset="0.0012" stop-color="#A21C26"/>
<stop offset="1" stop-color="#A21C26" stop-opacity="0"/>
</linearGradient>
<radialGradient id="paint8_radial_4821_340915" cx="0" cy="0" r="1" gradientUnits="userSpaceOnUse" gradientTransform="translate(60.1018 71.6791) scale(2.42118 2.42142)">
<stop offset="0.5352" stop-color="#6F6558" stop-opacity="0"/>
<stop offset="1" stop-color="#6F6558" stop-opacity="0.3"/>
</radialGradient>
<linearGradient id="paint9_linear_4821_340915" x1="84.7331" y1="64.3037" x2="85.8338" y2="74.7591" gradientUnits="userSpaceOnUse">
<stop offset="0.0012" stop-color="#A21C26"/>
<stop offset="1" stop-color="#A21C26" stop-opacity="0"/>
</linearGradient>
<radialGradient id="paint10_radial_4821_340915" cx="0" cy="0" r="1" gradientUnits="userSpaceOnUse" gradientTransform="translate(84.4674 69.4195) scale(2.42113 2.42145)">
<stop offset="0.5352" stop-color="#6F6558" stop-opacity="0"/>
<stop offset="1" stop-color="#6F6558" stop-opacity="0.3"/>
</radialGradient>
</defs>
</svg>
