<svg width="140" height="140" viewBox="0 0 140 140" fill="none" xmlns="http://www.w3.org/2000/svg">
<path d="M70.5235 35.1864C49.6853 35.3298 33.0357 52.5334 32.223 72.3966C31.3167 94.5472 50.3445 114.126 72.9307 112.89C94.4096 111.715 111.006 92.1599 109.261 70.8644C107.655 51.2466 90.8848 35.0464 70.5235 35.1864Z" fill="#DCD5AC" stroke="#463C43" stroke-width="0.193814" stroke-miterlimit="10"/>
<path d="M70.6398 34.9384C50.2347 35.0805 33.9317 52.1445 33.1359 71.8462C32.2486 93.8166 50.8808 113.236 72.9972 112.01C94.0294 110.845 110.281 91.4492 108.573 70.3266C106.999 50.8686 90.5776 34.7996 70.6398 34.9384Z" fill="url(#paint0_radial_4821_340914)"/>
<path d="M70.5378 34.9384C50.8269 35.0737 35.078 51.3469 34.3092 70.1354C33.4518 91.0877 51.4506 109.607 72.8147 108.438C93.1316 107.327 108.83 88.8299 107.18 68.6862C105.66 50.1301 89.7975 34.8059 70.5378 34.9384Z" fill="url(#paint1_radial_4821_340914)"/>
<path d="M66.1182 48.1183C65.9419 46.5569 65.6846 45.1326 65.3953 43.8618C64.6839 44.9884 63.972 46.1153 63.2606 47.2419C63.77 45.9061 64.3591 43.8256 64.2212 41.2996C64.0201 37.615 62.3745 34.8705 60.807 32.3214C58.7477 28.9729 56.7508 27.1311 56.8853 27.0079C57.0258 26.8793 59.2491 28.8456 61.2907 31.4428C62.2501 32.663 62.9556 33.7512 63.4288 34.5327L63.9066 35.3446L64.1449 35.752L64.3667 36.1683L64.8104 37.0026L65.219 37.8554C67.3875 42.4156 68.5013 47.5131 68.4916 52.6409V52.6452C68.4334 52.7236 68.0176 53.2677 67.2981 53.3019C66.8262 53.3242 66.4813 53.115 66.3577 53.0319C66.3796 51.5692 66.3214 49.918 66.1182 48.1183Z" fill="#DCD5AC" stroke="#5B5249" stroke-width="0.193814" stroke-miterlimit="10"/>
<path d="M73.894 48.1183C74.0703 46.5569 74.3276 45.1326 74.6169 43.8618C75.3283 44.9884 76.0402 46.1153 76.7516 47.2419C76.2422 45.9061 75.653 43.8256 75.7909 41.2996C75.9921 37.615 77.6377 34.8705 79.2052 32.3214C81.2645 28.9729 83.2614 27.1311 83.1268 27.0079C82.9864 26.8793 80.7631 28.8456 78.7215 31.4428C77.7621 32.663 77.0565 33.7512 76.5834 34.5327L76.1056 35.3446L75.8673 35.752L75.6455 36.1683L75.2018 37.0026L74.7932 37.8554C72.6246 42.4156 71.5109 47.5131 71.5206 52.6409V52.6452C71.5788 52.7236 71.9946 53.2677 72.7141 53.3019C73.186 53.3242 73.5309 53.115 73.6545 53.0319C73.6326 51.5692 73.6912 49.918 73.894 48.1183Z" fill="#DCD5AC" stroke="#5B5249" stroke-width="0.193814" stroke-miterlimit="10"/>
<path d="M48.1206 55.5719C46.7817 54.7498 45.5005 54.0758 44.3213 53.5225C44.7713 54.7768 45.2217 56.0312 45.6717 57.2855C44.9324 56.062 43.6554 54.3171 41.5797 52.8713C38.5517 50.7624 35.3761 50.3706 32.4026 50.0374C28.4961 49.6 25.8157 50.0408 25.8013 49.859C25.7861 49.6692 28.7045 49.1268 32.0079 49.1154C33.5598 49.1103 34.8519 49.2234 35.7591 49.3313L36.6932 49.4545L37.1609 49.5173L37.6256 49.5987L38.5564 49.7624L39.4799 49.9648C44.4082 51.0619 49.1117 53.3209 53.1467 56.4846L53.1501 56.4871C53.1763 56.5811 53.3491 57.2438 52.9333 57.8321C52.6605 58.2176 52.2834 58.3614 52.1418 58.4074C51.0014 57.4901 49.6641 56.5196 48.1206 55.5719Z" fill="#DCD5AC" stroke="#5B5249" stroke-width="0.193814" stroke-miterlimit="10"/>
<path d="M46.0288 60.7008C44.6899 59.8787 43.4087 59.2047 42.2295 58.6514C42.6795 59.9057 43.1299 61.1601 43.5799 62.4144C42.8406 61.1908 41.5636 59.446 39.4879 58.0002C36.4599 55.8913 33.2844 55.4995 30.3108 55.1663C26.4044 54.7289 23.7243 55.1697 23.7095 54.9879C23.6943 54.7981 26.6127 54.2557 29.916 54.2443C31.468 54.2392 32.7601 54.3523 33.6673 54.4603L34.6014 54.5834L35.0691 54.6463L35.5338 54.7277L36.4646 54.8913L37.3881 55.0938C42.3164 56.1908 47.0199 58.4498 51.0549 61.6135L51.0583 61.616C51.0844 61.71 51.2574 62.3727 50.8415 62.961C50.5687 63.3465 50.1917 63.4904 50.05 63.5363C48.9096 62.619 47.5719 61.6485 46.0288 60.7008Z" fill="#DCD5AC" stroke="#5B5249" stroke-width="0.193814" stroke-miterlimit="10"/>
<path d="M91.4921 54.814C92.8311 53.992 94.1123 53.318 95.2914 52.7647C94.8414 54.019 94.391 55.2734 93.9411 56.5277C94.6803 55.3041 95.9573 53.5593 98.033 52.1134C101.061 50.0046 104.237 49.6128 107.21 49.2796C111.117 48.8422 113.797 49.2829 113.811 49.1012C113.827 48.9114 110.908 48.369 107.605 48.3576C106.053 48.3525 104.761 48.4656 103.854 48.5735L102.92 48.6967L102.452 48.7595L101.988 48.8409L101.057 49.0046L100.133 49.207C95.205 50.304 90.5015 52.563 86.4664 55.7267L86.4631 55.7293C86.4369 55.8233 86.264 56.4859 86.6798 57.0743C86.9527 57.4598 87.3297 57.6036 87.4714 57.6496C88.6113 56.7318 89.949 55.7613 91.4921 54.814Z" fill="#DCD5AC" stroke="#5B5249" stroke-width="0.193814" stroke-miterlimit="10"/>
<path d="M93.5843 59.9429C94.9233 59.1209 96.2045 58.4469 97.3836 57.8936C96.9336 59.1479 96.4833 60.4022 96.0333 61.6566C96.7726 60.433 98.0495 58.6882 100.125 57.2423C103.153 55.1335 106.329 54.7417 109.302 54.4085C113.209 53.9711 115.889 54.4119 115.904 54.2301C115.919 54.0403 113 53.4979 109.697 53.4865C108.145 53.4814 106.853 53.5945 105.946 53.7024L105.012 53.8256L104.544 53.8884L104.079 53.9698L103.149 54.1335L102.225 54.3359C97.2968 55.433 92.5933 57.692 88.5582 60.8557L88.5548 60.8582C88.5287 60.9522 88.3558 61.6148 88.7716 62.2032C89.0445 62.5887 89.4215 62.7325 89.5632 62.7785C90.7035 61.8607 92.0408 60.8902 93.5843 59.9429Z" fill="#DCD5AC" stroke="#5B5249" stroke-width="0.193814" stroke-miterlimit="10"/>
<path d="M66.1177 48.1164C65.9414 46.555 65.6841 45.1307 65.3948 43.8599C64.6834 44.9864 63.9715 46.1134 63.2601 47.2399C63.7695 45.9042 64.3587 43.8236 64.2208 41.2976C64.0196 37.613 62.374 34.8686 60.8065 32.3194C58.7472 28.971 56.7503 27.1291 56.8849 27.006C57.0253 26.8773 59.2486 28.8436 61.2902 31.4409C62.2496 32.6611 62.9552 33.7492 63.4283 34.5308L63.9061 35.3427L64.1444 35.7501L64.3662 36.1664L64.8099 37.0006L65.2185 37.8534C67.3871 42.4136 68.5008 47.5111 68.4911 52.639V52.6432C68.4329 52.7217 68.0171 53.2657 67.2976 53.2999C66.8257 53.3223 66.4808 53.1131 66.3572 53.03C66.3791 51.5673 66.3209 49.9161 66.1177 48.1164Z" fill="url(#paint2_linear_4821_340914)"/>
<path d="M73.894 48.1164C74.0703 46.555 74.3276 45.1307 74.6169 43.8599C75.3283 44.9864 76.0402 46.1134 76.7516 47.2399C76.2422 45.9042 75.653 43.8236 75.7909 41.2976C75.9921 37.613 77.6377 34.8686 79.2052 32.3194C81.2645 28.971 83.2614 27.1291 83.1268 27.006C82.9864 26.8773 80.7631 28.8436 78.7215 31.4409C77.7621 32.6611 77.0565 33.7492 76.5834 34.5308L76.1056 35.3427L75.8673 35.7501L75.6455 36.1664L75.2018 37.0006L74.7932 37.8534C72.6246 42.4136 71.5109 47.5111 71.5206 52.639V52.6432C71.5788 52.7217 71.9946 53.2657 72.7141 53.2999C73.186 53.3223 73.5309 53.1131 73.6545 53.03C73.6326 51.5673 73.6912 49.9161 73.894 48.1164Z" fill="url(#paint3_linear_4821_340914)"/>
<path d="M48.1201 55.5699C46.7812 54.7479 45.5 54.0739 44.3208 53.5205C44.7708 54.7749 45.2212 56.0292 45.6712 57.2836C44.9319 56.06 43.6549 54.3151 41.5792 52.8693C38.5512 50.7605 35.3757 50.3686 32.4021 50.0354C28.4957 49.5981 25.8152 50.0388 25.8008 49.857C25.7857 49.6672 28.704 49.1248 32.0074 49.1134C33.5593 49.1084 34.8514 49.2214 35.7586 49.3294L36.6927 49.4526L37.1604 49.5154L37.6251 49.5968L38.5559 49.7604L39.4794 49.9629C44.4077 51.0599 49.1112 53.3189 53.1462 56.4826L53.1496 56.4851C53.1758 56.5792 53.3487 57.2418 52.9328 57.8302C52.66 58.2157 52.283 58.3595 52.1413 58.4055C51.0009 57.4881 49.6636 56.5176 48.1201 55.5699Z" fill="url(#paint4_linear_4821_340914)"/>
<path d="M46.0288 60.7008C44.6899 59.8787 43.4087 59.2047 42.2295 58.6514C42.6795 59.9057 43.1299 61.1601 43.5799 62.4144C42.8406 61.1908 41.5636 59.446 39.4879 58.0002C36.4599 55.8913 33.2844 55.4995 30.3108 55.1663C26.4044 54.7289 23.7243 55.1697 23.7095 54.9879C23.6943 54.7981 26.6127 54.2557 29.916 54.2443C31.468 54.2392 32.7601 54.3523 33.6673 54.4603L34.6014 54.5834L35.0691 54.6463L35.5338 54.7277L36.4646 54.8913L37.3881 55.0938C42.3164 56.1908 47.0199 58.4498 51.0549 61.6135L51.0583 61.616C51.0844 61.71 51.2574 62.3727 50.8415 62.961C50.5687 63.3465 50.1917 63.4904 50.05 63.5363C48.9096 62.619 47.5719 61.6485 46.0288 60.7008Z" fill="url(#paint5_linear_4821_340914)"/>
<path d="M91.4921 54.814C92.8311 53.992 94.1123 53.318 95.2914 52.7647C94.8414 54.019 94.391 55.2734 93.9411 56.5277C94.6803 55.3041 95.9573 53.5593 98.033 52.1134C101.061 50.0046 104.237 49.6128 107.21 49.2796C111.117 48.8422 113.797 49.2829 113.811 49.1012C113.827 48.9114 110.908 48.369 107.605 48.3576C106.053 48.3525 104.761 48.4656 103.854 48.5735L102.92 48.6967L102.452 48.7595L101.988 48.8409L101.057 49.0046L100.133 49.207C95.205 50.304 90.5015 52.563 86.4664 55.7267L86.4631 55.7293C86.4369 55.8233 86.264 56.4859 86.6798 57.0743C86.9527 57.4598 87.3297 57.6036 87.4714 57.6496C88.6113 56.7318 89.949 55.7613 91.4921 54.814Z" fill="url(#paint6_linear_4821_340914)"/>
<path d="M93.5833 59.9429C94.9223 59.1209 96.2035 58.4469 97.3826 57.8936C96.9327 59.1479 96.4823 60.4022 96.0323 61.6566C96.7716 60.433 98.0486 58.6882 100.124 57.2423C103.152 55.1335 106.328 54.7417 109.301 54.4085C113.208 53.9711 115.888 54.4119 115.903 54.2301C115.918 54.0403 112.999 53.4979 109.696 53.4865C108.144 53.4814 106.852 53.5945 105.945 53.7024L105.011 53.8256L104.543 53.8884L104.078 53.9698L103.148 54.1335L102.224 54.3359C97.2958 55.433 92.5923 57.692 88.5572 60.8557L88.5539 60.8582C88.5277 60.9522 88.3548 61.6148 88.7706 62.2032C89.0435 62.5887 89.4205 62.7325 89.5622 62.7785C90.7025 61.8607 92.0398 60.8902 93.5833 59.9429Z" fill="url(#paint7_linear_4821_340914)"/>
<defs>
<radialGradient id="paint0_radial_4821_340914" cx="0" cy="0" r="1" gradientUnits="userSpaceOnUse" gradientTransform="translate(70.8989 73.5021) scale(37.9312 38.4264)">
<stop offset="0.5352" stop-color="#6F6558" stop-opacity="0"/>
<stop offset="1" stop-color="#6F6558" stop-opacity="0.2"/>
</radialGradient>
<radialGradient id="paint1_radial_4821_340914" cx="0" cy="0" r="1" gradientUnits="userSpaceOnUse" gradientTransform="translate(70.7896 71.7143) scale(36.6415 36.6454)">
<stop stop-color="white" stop-opacity="0.6"/>
<stop offset="1" stop-color="white" stop-opacity="0"/>
</radialGradient>
<linearGradient id="paint2_linear_4821_340914" x1="62.1783" y1="65.7771" x2="62.7159" y2="38.2277" gradientUnits="userSpaceOnUse">
<stop stop-color="#6F6558"/>
<stop offset="1" stop-color="#6F6558" stop-opacity="0"/>
</linearGradient>
<linearGradient id="paint3_linear_4821_340914" x1="76.8114" y1="66.0626" x2="77.3491" y2="38.5132" gradientUnits="userSpaceOnUse">
<stop stop-color="#6F6558"/>
<stop offset="1" stop-color="#6F6558" stop-opacity="0"/>
</linearGradient>
<linearGradient id="paint4_linear_4821_340914" x1="39.7014" y1="67.4245" x2="39.4326" y2="48.3415" gradientUnits="userSpaceOnUse">
<stop stop-color="#6F6558"/>
<stop offset="1" stop-color="#6F6558" stop-opacity="0"/>
</linearGradient>
<linearGradient id="paint5_linear_4821_340914" x1="37.9765" y1="77.0399" x2="37.1701" y2="50.5656" gradientUnits="userSpaceOnUse">
<stop stop-color="#6F6558"/>
<stop offset="1" stop-color="#6F6558" stop-opacity="0"/>
</linearGradient>
<linearGradient id="paint6_linear_4821_340914" x1="74.2422" y1="71.2177" x2="102.731" y2="50.525" gradientUnits="userSpaceOnUse">
<stop stop-color="#6F6558"/>
<stop offset="1" stop-color="#6F6558" stop-opacity="0"/>
</linearGradient>
<linearGradient id="paint7_linear_4821_340914" x1="77.4031" y1="75.5692" x2="105.892" y2="54.8765" gradientUnits="userSpaceOnUse">
<stop stop-color="#6F6558"/>
<stop offset="1" stop-color="#6F6558" stop-opacity="0"/>
</linearGradient>
</defs>
</svg>
