<svg width="140" height="140" viewBox="0 0 140 140" fill="none" xmlns="http://www.w3.org/2000/svg">
<path d="M79.6309 66.7459C76.4685 70.3631 69.1894 71.3268 65.0634 68.0842C61.4605 65.2531 61.802 60.4238 62.1501 55.5028C62.4988 50.5685 62.8535 45.5603 67.0059 43.1889C71.011 40.9014 76.9962 41.953 79.7696 45.1969C81.3072 46.995 81.3244 49.9 81.296 55.6369C81.2649 61.8083 81.2497 64.8944 79.6309 66.7459Z" fill="#DCD5AC" stroke="#463C43" stroke-width="0.0691915" stroke-miterlimit="10"/>
<path d="M68.3314 43.081C68.12 43.114 67.8294 43.1602 67.7238 43.3782C67.6907 43.4443 67.6775 43.5037 67.6907 43.5632C68.0012 43.365 68.338 43.1801 68.7013 43.0281C68.5824 43.0413 68.4569 43.0612 68.3314 43.081ZM82.8222 58.7227C82.8222 58.5179 82.8222 58.3132 82.8156 58.1084C82.7958 57.111 82.7628 56.0475 82.7231 54.8981C82.6901 54.046 82.6637 53.2666 82.6307 52.54C82.5778 51.285 82.5052 50.2017 82.3731 49.2307C82.307 48.7088 82.2212 48.22 82.1089 47.7576C82.0693 47.5595 82.0164 47.3745 81.9636 47.183C81.9636 47.1764 81.957 47.1632 81.957 47.1565C81.9372 47.0839 81.9107 47.0178 81.8909 46.9518C81.8315 46.747 81.7588 46.5555 81.6796 46.3639C81.6135 46.1789 81.5409 46.0072 81.455 45.8289C81.389 45.6901 81.3163 45.5514 81.2436 45.4193C81.1115 45.1683 80.9531 44.9173 80.788 44.6795C80.7351 44.5936 80.6691 44.5144 80.603 44.4351C80.5304 44.3294 80.4511 44.2303 80.3652 44.1246C80.1539 43.8736 79.9293 43.6226 79.6915 43.3848C78.7339 42.4138 77.5648 41.5948 76.2439 41.0069C75.5504 40.6898 74.804 40.4454 74.0379 40.2737C73.7341 40.201 73.4237 40.1416 73.1 40.1019C72.9481 40.0887 72.7896 40.0689 72.6245 40.0557C72.0763 39.9962 71.5083 39.983 70.9403 40.0227C70.7421 40.0359 70.4251 40.0557 70.0222 40.1085C69.6457 40.1614 69.19 40.2472 68.6881 40.386C68.5626 40.419 68.4305 40.4586 68.2918 40.5049C68.0276 40.5841 67.7568 40.6832 67.4662 40.7955C67.169 40.921 66.8585 41.0597 66.5481 41.2315C66.4556 41.2777 66.3632 41.3305 66.2707 41.39C65.9405 41.5749 65.6169 41.7929 65.2866 42.0373C65.1281 42.1628 64.9696 42.2883 64.8243 42.4204C64.679 42.5525 64.5337 42.6847 64.395 42.8234C64.2629 42.9621 64.1308 43.1008 64.0053 43.2395C63.8798 43.3848 63.7609 43.5368 63.642 43.6821C62.2154 45.5382 61.6012 47.8435 61.2445 50.2809C61.0728 51.3973 60.9539 52.5466 60.8483 53.6893C60.8284 53.9073 60.8086 54.1121 60.7888 54.3301C60.7888 54.3367 60.7822 54.3367 60.7822 54.3433C60.6831 55.3671 60.5841 56.391 60.518 57.3884C60.4388 58.5311 60.4057 59.6409 60.4255 60.7242C60.5048 63.9278 61.1785 66.7681 63.292 68.9149H63.2854C63.4109 69.0404 63.5297 69.1725 63.6684 69.298C66.8321 72.1582 71.112 72.0657 72.2876 71.9931C72.4065 71.9864 72.5914 71.9732 72.8292 71.9534C72.9877 71.9336 73.1661 71.9138 73.3708 71.8874C73.9124 71.8147 74.5993 71.6892 75.3588 71.4646C75.4051 71.4514 75.4513 71.4316 75.4976 71.4184C75.59 71.392 75.6825 71.3655 75.7816 71.3325C75.9136 71.2929 76.0523 71.24 76.191 71.1938C76.3562 71.1277 76.5345 71.0617 76.7128 70.9824C76.726 70.9758 76.7326 70.9692 76.7458 70.9626C76.8713 70.9164 76.9902 70.8635 77.1157 70.8041C77.1619 70.7843 77.2082 70.7644 77.2544 70.738C77.3799 70.6786 77.5054 70.6125 77.6375 70.5399C77.7167 70.5002 77.8026 70.454 77.8819 70.4077C78.6942 69.9454 79.5 69.3443 80.2331 68.5648C81.5079 67.1909 82.1815 65.6584 82.525 63.7759C82.5514 63.6107 82.5778 63.4522 82.5976 63.2871C82.6307 63.0889 82.6571 62.8841 82.6703 62.6794C82.6835 62.6397 82.6835 62.6001 82.6901 62.5605C82.7165 62.3557 82.7297 62.1575 82.7495 61.9462C82.7561 61.8735 82.7562 61.7942 82.7628 61.715C82.7628 61.6753 82.7628 61.6423 82.7694 61.6027C82.776 61.4838 82.7826 61.3649 82.7892 61.246C82.7958 61.1403 82.8024 61.0346 82.8024 60.9289C82.8288 60.2353 82.8354 59.5021 82.8222 58.7227ZM79.3481 66.5303V66.537C78.8792 67.0786 78.3177 67.574 77.6969 67.9967C77.3667 68.2213 77.0298 68.4261 76.6798 68.6111C76.6732 68.6177 76.6732 68.6177 76.6732 68.6177C76.5081 68.7035 76.3495 68.7762 76.1778 68.8555L76.1712 68.8621H76.1646L76.158 68.8687C74.7512 69.516 73.1793 69.8793 71.6536 69.8727C71.429 69.8727 70.577 69.8595 69.4542 69.6019H69.4344C69.4278 69.6019 69.4278 69.6019 69.4212 69.6019C67.9483 69.2584 66.0462 68.512 64.494 66.8408C63.0344 65.2555 62.4202 63.406 62.2352 61.2328C62.1824 60.592 62.1626 59.9315 62.1758 59.2379C62.1758 59.0133 62.1824 58.7755 62.1956 58.5377C62.222 57.8904 62.2683 57.2167 62.3277 56.5231C62.4004 55.6644 62.4862 54.766 62.5853 53.8347C62.6513 53.1213 62.7174 52.4673 62.8032 51.8464C62.8032 51.8398 62.8032 51.8398 62.8032 51.8398C62.8957 51.1132 63.008 50.4461 63.1599 49.8119C63.4637 48.5437 63.9392 47.4274 64.7913 46.2912C64.9564 46.0799 65.2338 45.7099 65.6235 45.2872C65.9801 44.8975 66.4292 44.4681 66.9642 44.0586H66.9708C67.202 43.8868 67.4332 43.7217 67.6907 43.5632C68.0012 43.365 68.338 43.1801 68.7013 43.0281C69.0249 42.8828 69.3551 42.7573 69.7118 42.6582C70.1807 42.5195 70.6827 42.4204 71.2177 42.3742C71.6073 42.3412 71.997 42.3346 72.3801 42.361C73.0009 42.394 73.6086 42.4997 74.1964 42.678C75.5438 43.0546 76.7656 43.7613 77.7365 44.6663C77.7365 44.6663 77.7365 44.6663 77.7431 44.6663C78.1857 45.0758 78.5819 45.5316 78.9056 46.0138C79.2358 46.5026 79.4934 47.0112 79.6982 47.5132C80.537 49.6072 80.4049 51.6615 80.3719 52.0776C80.2662 53.5836 79.8302 54.2574 79.9755 56.0475C79.9888 56.2324 80.0152 56.4042 80.035 56.5627V56.5693C80.2067 57.7055 80.537 58.1877 80.7747 59.5021C80.8276 59.8324 81.2635 62.3689 80.603 64.377C80.3454 65.163 79.9161 65.8764 79.3547 66.5303C79.3547 66.5303 79.3547 66.5303 79.3481 66.5303ZM68.3314 43.081C68.12 43.114 67.8294 43.1602 67.7238 43.3782C67.6907 43.4443 67.6775 43.5037 67.6907 43.5632C68.0012 43.365 68.338 43.1801 68.7013 43.0281C68.5824 43.0413 68.4569 43.0612 68.3314 43.081ZM68.3314 43.081C68.12 43.114 67.8294 43.1602 67.7238 43.3782C67.6907 43.4443 67.6775 43.5037 67.6907 43.5632C68.0012 43.365 68.338 43.1801 68.7013 43.0281C68.5824 43.0413 68.4569 43.0612 68.3314 43.081Z" fill="#463C43"/>
<path d="M77.2066 68.5529C77.0349 68.5727 76.8499 68.5793 76.6782 68.6124C77.0283 68.4274 77.3651 68.2226 77.6953 67.998C77.7217 68.15 77.7283 68.3217 77.6293 68.4274C77.5302 68.5265 77.3387 68.5397 77.2066 68.5529Z" fill="url(#paint0_linear_4821_340909)"/>
<path opacity="0.67" d="M75.1196 46.6671C73.5233 45.7687 71.4824 45.9477 70.0373 46.6671C66.5725 48.3924 66.8195 53.0856 66.8611 53.8683C66.9252 55.0824 67.0638 57.72 68.9257 58.7716C71.1971 60.0543 74.907 58.3429 76.5489 55.8605C78.4663 52.9621 78.031 48.3052 75.1196 46.6671Z" fill="#463C43"/>
<path opacity="0.91" d="M74.0828 47.3359C73.1965 46.8372 72.0631 46.9363 71.2613 47.3359C69.3373 48.2937 69.4747 50.8996 69.4978 51.3342C69.5335 52.0086 69.6101 53.4724 70.6444 54.057C71.9053 54.7691 73.9653 53.8192 74.8774 52.4406C75.9414 50.8309 75.6997 48.2455 74.0828 47.3359Z" fill="#463C43"/>
<path d="M91.4674 93.6724C87.0237 95.4995 80.0795 93.1163 77.8319 88.3742C75.8697 84.2332 78.328 80.0632 80.8338 75.8133C83.3462 71.5528 85.8963 67.2275 90.6702 66.9567C95.2744 66.6958 100.163 70.3063 101.199 74.4459C101.774 76.7407 100.494 79.3492 97.9103 84.471C95.1317 89.982 93.7421 92.7371 91.4674 93.6724Z" fill="#DCD5AC" stroke="#463C43" stroke-width="0.0691915" stroke-miterlimit="10"/>
<path d="M91.9024 67.4525C91.6983 67.3878 91.4176 67.2992 91.226 67.4479C91.1673 67.4921 91.129 67.5397 91.1138 67.5985C91.4803 67.5595 91.8641 67.5443 92.2571 67.5701C92.1448 67.5291 92.0239 67.4908 91.9024 67.4525ZM97.8988 87.9155C97.99 87.7326 98.0811 87.5489 98.167 87.3627C98.5937 86.461 99.0388 85.4946 99.5157 84.4483C99.8664 83.6709 100.19 82.9614 100.485 82.2963C100.997 81.1496 101.415 80.1475 101.73 79.2194C101.903 78.7227 102.044 78.2471 102.15 77.7834C102.202 77.5886 102.237 77.399 102.276 77.2041C102.278 77.1982 102.278 77.1836 102.282 77.1777C102.296 77.1037 102.302 77.033 102.314 76.965C102.352 76.755 102.373 76.5515 102.387 76.3448C102.41 76.1499 102.422 75.9636 102.424 75.7655C102.427 75.6115 102.424 75.455 102.418 75.3044C102.411 75.021 102.381 74.7258 102.34 74.4391C102.331 74.3387 102.307 74.2383 102.283 74.1379C102.265 74.0111 102.238 73.8869 102.208 73.7541C102.131 73.4351 102.042 73.1101 101.935 72.7917C101.511 71.4957 100.829 70.2407 99.9093 69.1257C99.4298 68.5325 98.8711 67.9809 98.2614 67.4855C98.0217 67.2847 97.7707 67.0932 97.4986 66.9135C97.3685 66.8342 97.2357 66.7457 97.0937 66.6598C96.6294 66.3619 96.1268 66.0971 95.601 65.8791C95.4181 65.8024 95.1255 65.6789 94.7411 65.5468C94.3805 65.4259 93.9347 65.2998 93.4235 65.2C93.2966 65.1736 93.1606 65.1505 93.0159 65.13C92.7445 65.0831 92.4578 65.0507 92.1474 65.0217C91.8258 65.0012 91.4856 64.9873 91.1316 65.0025C91.0286 65.0025 90.9216 65.0085 90.8126 65.0204C90.4348 65.0389 90.0478 65.0897 89.6429 65.1611C89.4448 65.2027 89.2473 65.2443 89.0584 65.2978C88.8695 65.3513 88.6806 65.4048 88.4943 65.4669C88.314 65.5323 88.1344 65.5977 87.96 65.6657C87.783 65.7397 87.6087 65.8229 87.4376 65.8996C85.3333 66.9247 83.7554 68.7141 82.3493 70.7367C81.698 71.6595 81.0792 72.6351 80.4748 73.6108C80.3599 73.797 80.251 73.9714 80.1361 74.1577C80.1334 74.1636 80.1275 74.1603 80.1242 74.1663C79.5793 75.0382 79.0337 75.9108 78.5298 76.7741C77.9492 77.7616 77.4248 78.7399 76.9598 79.7188C75.6026 82.6219 74.9388 85.4643 75.8733 88.3284L75.8674 88.3257C75.9235 88.4942 75.9711 88.6652 76.0391 88.8396C77.5959 92.8108 81.4675 94.6366 82.552 95.0957C82.6617 95.1426 82.8327 95.2133 83.0547 95.3018C83.2052 95.3546 83.3737 95.4167 83.5692 95.4841C84.0864 95.6604 84.7574 95.8546 85.5374 95.992C85.585 96.0006 85.6351 96.0039 85.682 96.0125C85.7765 96.0303 85.8709 96.0475 85.9746 96.0621C86.1107 96.0852 86.258 96.0997 86.4033 96.1208C86.5803 96.1354 86.7699 96.1558 86.9647 96.1644C86.9792 96.1644 86.9885 96.1611 87.003 96.1611C87.1357 96.1757 87.2658 96.1816 87.4045 96.1843C87.4547 96.1869 87.5049 96.1902 87.5584 96.1869C87.6971 96.1895 87.8392 96.1862 87.9897 96.1803C88.0783 96.1803 88.176 96.177 88.2671 96.171C89.2004 96.1195 90.1898 95.9405 91.1937 95.5699C92.9472 94.9087 94.2339 93.8373 95.3805 92.3055C95.4775 92.1695 95.572 92.0393 95.6631 91.9006C95.7813 91.7381 95.8962 91.5664 95.9993 91.3893C96.029 91.3596 96.0462 91.3246 96.07 91.2916C96.1849 91.1198 96.2853 90.9488 96.3969 90.7684C96.4352 90.7063 96.4709 90.6357 96.5118 90.5676C96.5296 90.532 96.5442 90.5022 96.568 90.4699C96.6267 90.3662 96.6855 90.2631 96.745 90.1594C96.7978 90.0676 96.8513 89.9758 96.8982 89.8813C97.2298 89.2723 97.5626 88.619 97.8988 87.9155ZM91.308 93.3545L91.3053 93.3604C90.6442 93.6359 89.921 93.8294 89.1766 93.9305C88.781 93.984 88.388 94.017 87.9924 94.0269C87.9838 94.0295 87.9838 94.0295 87.9838 94.0295C87.7975 94.0328 87.6232 94.0269 87.4343 94.0216L87.4257 94.0249L87.4197 94.0223L87.4111 94.0249C85.863 93.9767 84.2944 93.6009 82.9318 92.9145C82.731 92.8141 81.9742 92.4224 81.0838 91.6912L81.066 91.6826C81.06 91.68 81.06 91.68 81.0541 91.6767C79.889 90.7123 78.5192 89.1957 77.8752 87.0079C77.2755 84.9378 77.5503 83.0083 78.3541 80.9811C78.5925 80.384 78.8693 79.7842 79.1903 79.1692C79.2906 78.9684 79.4023 78.7584 79.5205 78.5516C79.8329 77.9842 80.1744 77.4016 80.537 76.8071C80.9848 76.0706 81.4623 75.3051 81.9662 74.5157C82.3434 73.9067 82.6941 73.3505 83.0481 72.8333C83.0514 72.8274 83.0514 72.8273 83.0514 72.8273C83.4582 72.2183 83.8558 71.6714 84.2746 71.1714C85.1121 70.172 86.0354 69.3846 87.3048 68.7478C87.5472 68.6322 87.96 68.4248 88.4976 68.22C88.9904 68.0305 89.5841 67.8462 90.2453 67.718L90.2512 67.7207C90.5345 67.6698 90.8153 67.6256 91.1164 67.5985C91.483 67.5595 91.8667 67.5443 92.2597 67.5701C92.6144 67.5846 92.9657 67.6196 93.329 67.6896C93.8105 67.7748 94.3038 67.9096 94.8038 68.1071C95.1671 68.2511 95.5191 68.4189 95.85 68.6137C96.391 68.9202 96.8876 69.2855 97.3341 69.7076C98.3724 70.6456 99.1511 71.8233 99.616 73.0658C99.616 73.0658 99.6161 73.0658 99.622 73.0685C99.8353 73.6326 99.9872 74.2171 100.062 74.7931C100.14 75.3777 100.143 75.9478 100.103 76.4888C99.9199 78.7373 98.8856 80.5168 98.6709 80.8748C97.9048 82.1754 97.2139 82.5843 96.5462 84.2515C96.4755 84.4232 96.4227 84.5884 96.3698 84.739L96.3672 84.7449C96.0145 85.8388 96.0951 86.4174 95.7219 87.7002C95.6222 88.0192 94.8811 90.4844 93.3944 91.9871C92.8132 92.5757 92.1111 93.0229 91.3172 93.3578C91.3139 93.3578 91.3139 93.3578 91.308 93.3545ZM91.9024 67.4525C91.6983 67.3878 91.4176 67.2992 91.226 67.4479C91.1673 67.4921 91.129 67.5397 91.1138 67.5985C91.4803 67.5595 91.8641 67.5443 92.2571 67.5701C92.1448 67.5291 92.0239 67.4908 91.9024 67.4525ZM91.9024 67.4525C91.6983 67.3878 91.4176 67.2992 91.226 67.4479C91.1673 67.4921 91.129 67.5397 91.1138 67.5985C91.4803 67.5595 91.8641 67.5443 92.2571 67.5701C92.1448 67.5291 92.0239 67.4908 91.9024 67.4525Z" fill="#463C43"/>
<path d="M88.491 94.2104C88.3286 94.1516 88.1601 94.075 87.9917 94.0281C88.3873 94.0188 88.7803 93.9858 89.176 93.9316C89.1317 94.0796 89.0611 94.2361 88.9257 94.2863C88.7929 94.3306 88.6152 94.2573 88.491 94.2104Z" fill="url(#paint1_linear_4821_340909)"/>
<path opacity="0.67" d="M96.382 73.6902C95.3537 72.1742 93.4469 71.4238 91.8334 71.4238C87.963 71.4232 86.0919 75.7339 85.7795 76.4532C85.2954 77.5682 84.2439 79.9911 85.4413 81.7627C86.9023 83.924 90.986 84.0462 93.5625 82.5566C96.5703 80.8168 98.2571 76.4545 96.382 73.6902Z" fill="#463C43"/>
<path opacity="0.91" d="M95.1556 73.8267C94.5843 72.9852 93.5262 72.5684 92.6299 72.5684C90.4807 72.5677 89.4418 74.9615 89.2687 75.3611C88.9999 75.9801 88.4161 77.3256 89.0812 78.3092C89.8922 79.5094 92.1597 79.5774 93.5903 78.7498C95.2599 77.7834 96.1972 75.3618 95.1556 73.8267Z" fill="#463C43"/>
<path d="M63.6655 89.0077C63.326 93.8006 58.1036 98.9621 52.8575 98.8663C48.2758 98.7831 45.6345 94.7267 42.9424 90.5923C40.2437 86.4474 37.5041 82.2398 39.3838 77.8425C41.1975 73.6018 46.6048 70.8275 50.773 71.7404C53.084 72.2464 54.8508 74.5523 58.2892 79.1444C61.9899 84.0847 63.8399 86.5544 63.6655 89.0077Z" fill="#DCD5AC" stroke="#463C43" stroke-width="0.0691915" stroke-miterlimit="10"/>
<path d="M40.3759 76.9584C40.2273 77.1124 40.0232 77.3244 40.0708 77.5622C40.084 77.6348 40.1098 77.6903 40.156 77.7293C40.2841 77.3838 40.4407 77.0331 40.6388 76.6929C40.5523 76.7755 40.4644 76.8673 40.3759 76.9584ZM61.3691 80.6859C61.2456 80.5228 61.1221 80.3596 60.9933 80.1997C60.3757 79.4163 59.7074 78.588 58.9828 77.6956C58.4426 77.0357 57.9511 76.4307 57.4862 75.8712C56.687 74.9022 55.975 74.0824 55.2841 73.3875C54.9169 73.011 54.553 72.6735 54.1845 72.3723C54.0332 72.2382 53.8793 72.1226 53.7215 72.0017C53.7175 71.9964 53.7043 71.9898 53.7003 71.9845C53.6409 71.9383 53.5801 71.902 53.524 71.861C53.3529 71.7335 53.1792 71.6245 53.0009 71.5195C52.8365 71.4119 52.6753 71.3187 52.4989 71.2282C52.3629 71.1575 52.2209 71.0908 52.0835 71.0294C51.8266 70.9092 51.5492 70.8048 51.2737 70.7143C51.1799 70.678 51.0796 70.6542 50.9785 70.6311C50.857 70.5908 50.7342 70.5597 50.6014 70.5267C50.2817 70.4541 49.9508 70.3893 49.618 70.3431C48.2686 70.1469 46.842 70.1991 45.4338 70.5274C44.6895 70.6932 43.9471 70.9488 43.2325 71.2738C42.9465 71.3993 42.6631 71.5393 42.3811 71.7032C42.2523 71.7844 42.1137 71.8643 41.9743 71.9535C41.5014 72.2369 41.0404 72.5691 40.6111 72.9436C40.4611 73.0738 40.2201 73.2812 39.9308 73.5659C39.6626 73.8354 39.3509 74.1789 39.0345 74.5924C38.9546 74.6948 38.8727 74.8057 38.7901 74.9266C38.627 75.1492 38.4711 75.3916 38.3073 75.6565C38.1462 75.9359 37.9824 76.2338 37.8384 76.5582C37.7928 76.6506 37.7505 76.7491 37.7129 76.8521C37.561 77.1989 37.4348 77.5681 37.3186 77.9625C37.2677 78.158 37.2175 78.3542 37.1812 78.5471C37.1449 78.7399 37.1092 78.9328 37.0821 79.1277C37.0603 79.3179 37.0392 79.5081 37.0227 79.6944C37.0102 79.886 37.0075 80.0789 37.0003 80.2665C36.9824 82.6074 37.884 84.8163 39.0702 86.9756C39.6071 87.9697 40.2055 88.9579 40.8105 89.9329C40.9261 90.1185 41.0338 90.2942 41.15 90.4798C41.154 90.4851 41.1487 90.4891 41.1527 90.4943C41.6916 91.3702 42.2306 92.2468 42.7794 93.0817C43.4055 94.0408 44.0488 94.9458 44.7185 95.7972C46.7145 98.304 48.9661 100.162 51.9468 100.599L51.9415 100.603C52.1172 100.627 52.2916 100.661 52.4778 100.677C56.7266 101.049 60.0832 98.3918 60.9768 97.6243C61.0679 97.547 61.2073 97.4248 61.3849 97.2656C61.4992 97.154 61.6293 97.0304 61.7766 96.8858C62.165 96.5007 62.6365 95.9861 63.1068 95.3487C63.1359 95.3104 63.1603 95.2668 63.1894 95.2278C63.2468 95.1512 63.305 95.0739 63.3637 94.988C63.445 94.8764 63.5236 94.7509 63.6068 94.63C63.6986 94.4774 63.801 94.3176 63.8954 94.1465C63.902 94.1333 63.9033 94.124 63.9099 94.1108C63.9819 93.9985 64.0447 93.8843 64.1094 93.7614C64.1345 93.7178 64.1589 93.6742 64.1801 93.6253C64.2441 93.5025 64.3042 93.3737 64.3657 93.2363C64.4046 93.157 64.4456 93.0678 64.4806 92.9833C64.8491 92.1246 65.1292 91.1588 65.2434 90.0947C65.431 88.23 65.0433 86.6011 64.1814 84.8929C64.1028 84.7456 64.0282 84.6029 63.9443 84.4596C63.8512 84.2819 63.7488 84.1022 63.6359 83.9312C63.6226 83.8915 63.5989 83.8598 63.5797 83.8242C63.4773 83.6451 63.3683 83.4787 63.2567 83.2984C63.2184 83.2363 63.1702 83.1735 63.128 83.1061C63.1042 83.0744 63.0843 83.048 63.0652 83.0123C62.9985 82.9133 62.9324 82.8148 62.8657 82.7158C62.8069 82.6272 62.7488 82.5394 62.6848 82.4548C62.2872 81.8881 61.8499 81.2989 61.3691 80.6859ZM63.3102 89.0081L63.3142 89.0134C63.2673 89.7281 63.1187 90.462 62.8783 91.174C62.7508 91.5525 62.6055 91.9191 62.4377 92.2778C62.4364 92.2871 62.4364 92.2871 62.4364 92.2871C62.3565 92.4555 62.2739 92.6087 62.1848 92.7759L62.1834 92.7851L62.1782 92.7891L62.1769 92.7983C61.4457 94.1637 60.4114 95.4022 59.1908 96.3177C59.0118 96.4531 58.3243 96.9571 57.2735 97.4294L57.2577 97.4413C57.2524 97.4453 57.2523 97.4453 57.2471 97.4492C55.8654 98.0642 53.8985 98.6171 51.6522 98.2214C49.5314 97.8383 47.9258 96.7338 46.4675 95.1129C46.0388 94.634 45.6247 94.1194 45.2166 93.5579C45.0812 93.3789 44.9431 93.1854 44.8097 92.9879C44.4398 92.4555 44.0706 91.8907 43.6995 91.3015C43.2391 90.573 42.7655 89.8047 42.2827 89.0022C41.9049 88.3931 41.5628 87.8323 41.257 87.2854C41.2531 87.2801 41.253 87.2801 41.253 87.2801C40.8884 86.6447 40.5754 86.0449 40.3138 85.4478C39.7907 84.2529 39.4962 83.0758 39.4903 81.6556C39.4942 81.3874 39.4922 80.925 39.5483 80.353C39.5979 79.8272 39.6963 79.2135 39.876 78.5642L39.8812 78.5603C39.9618 78.2835 40.0464 78.0127 40.1567 77.7306C40.2848 77.3852 40.4413 77.0344 40.6395 76.6942C40.8099 76.3831 40.9974 76.0839 41.222 75.7893C41.5119 75.3956 41.8528 75.0138 42.2517 74.6538C42.5423 74.3922 42.8494 74.1518 43.1704 73.9417C43.6856 73.5936 44.2338 73.3109 44.8104 73.0982C46.1122 72.585 47.513 72.4113 48.8326 72.5473C48.8326 72.5473 48.8326 72.5473 48.8379 72.5434C49.4376 72.6028 50.0288 72.727 50.5776 72.9166C51.1357 73.1068 51.6482 73.3571 52.1145 73.6339C54.0471 74.7971 55.1811 76.5152 55.4057 76.8666C56.23 78.1316 56.2894 78.9315 57.4849 80.2711C57.6071 80.4105 57.7319 80.5313 57.8428 80.6463L57.8468 80.6516C58.6691 81.4541 59.2239 81.6391 60.206 82.544C60.4478 82.7752 62.3255 84.5349 63.0104 86.535C63.2792 87.3171 63.3677 88.1454 63.3142 89.0055C63.3155 89.0041 63.3155 89.0042 63.3102 89.0081ZM40.3759 76.9584C40.2273 77.1124 40.0232 77.3244 40.0708 77.5622C40.084 77.6348 40.1098 77.6903 40.156 77.7293C40.2841 77.3838 40.4407 77.0331 40.6388 76.6929C40.5523 76.7755 40.4644 76.8673 40.3759 76.9584ZM40.3759 76.9584C40.2273 77.1124 40.0232 77.3244 40.0708 77.5622C40.084 77.6348 40.1098 77.6903 40.156 77.7293C40.2841 77.3838 40.4407 77.0331 40.6388 76.6929C40.5523 76.7755 40.4644 76.8673 40.3759 76.9584Z" fill="#463C43"/>
<path d="M62.8232 91.911C62.6984 92.0305 62.5551 92.1474 62.4375 92.2776C62.6053 91.9189 62.7499 91.5523 62.878 91.1738C62.991 91.2789 63.0999 91.4123 63.0841 91.5563C63.0649 91.695 62.9203 91.8211 62.8232 91.911Z" fill="url(#paint2_linear_4821_340909)"/>
<path opacity="0.67" d="M47.9538 75.7195C46.1388 75.9665 44.619 77.3411 43.9011 78.7864C42.1792 82.2529 45.2082 85.8463 45.7135 86.4461C46.4968 87.3755 48.1988 89.3948 50.3183 89.1101C52.9034 88.7626 54.8294 85.158 54.6405 82.1882C54.4205 78.7197 51.2641 75.269 47.9538 75.7195Z" fill="#463C43"/>
<path opacity="0.91" d="M47.5299 76.8776C46.522 77.015 45.6786 77.7779 45.2796 78.5805C44.3239 80.5053 46.0055 82.5002 46.2862 82.8331C46.7214 83.349 47.6666 84.4706 48.8429 84.3121C50.2781 84.1192 51.3474 82.1177 51.2424 80.4683C51.1202 78.5435 49.368 76.6273 47.5299 76.8776Z" fill="#463C43"/>
<defs>
<linearGradient id="paint0_linear_4821_340909" x1="82.5099" y1="71.0246" x2="76.7314" y2="68.0738" gradientUnits="userSpaceOnUse">
<stop stop-color="#EEE197"/>
<stop offset="1" stop-color="#EEE197" stop-opacity="0"/>
</linearGradient>
<linearGradient id="paint1_linear_4821_340909" x1="92.1487" y1="98.7745" x2="88.2921" y2="93.556" gradientUnits="userSpaceOnUse">
<stop stop-color="#EEE197"/>
<stop offset="1" stop-color="#EEE197" stop-opacity="0"/>
</linearGradient>
<linearGradient id="paint2_linear_4821_340909" x1="68.5633" y1="90.6725" x2="62.1747" y2="91.8062" gradientUnits="userSpaceOnUse">
<stop stop-color="#EEE197"/>
<stop offset="1" stop-color="#EEE197" stop-opacity="0"/>
</linearGradient>
</defs>
</svg>
