<svg width="242" height="133" viewBox="0 0 242 133" fill="none" xmlns="http://www.w3.org/2000/svg">
<path d="M231.2 5.40007C243.7 9.10007 237.6 40.6001 220.4 35.7001C204.6 31.2001 217.7 1.40007 231.2 5.40007Z" fill="url(#paint0_radial_3027:498064)"/>
<path opacity="0.41" d="M229.9 7.90006C234.7 7.80006 236.7 19.4001 231.6 19.4001C226.5 19.5001 223.9 8.00006 229.9 7.90006Z" fill="#F2D8D3"/>
<path d="M231.2 5.40007C243.7 9.10007 237.6 40.6001 220.4 35.7001C204.6 31.2001 217.7 1.40007 231.2 5.40007Z" stroke="#691100" stroke-miterlimit="10"/>
<path d="M11.1 0.900058C23.5 -3.09994 36.3 26.3001 19.4 32.0001C3.8 37.2001 -2.4 5.20006 11.1 0.900058Z" fill="url(#paint1_radial_3027:498064)"/>
<path d="M11.1 0.900058C23.5 -3.09994 36.3 26.3001 19.4 32.0001C3.8 37.2001 -2.4 5.20006 11.1 0.900058Z" stroke="#691100" stroke-miterlimit="10"/>
<path opacity="0.41" d="M12.6 4.40008C17 6.50008 13.6 17.7001 9 15.5001C4.4 13.3001 7.1 1.90008 12.6 4.40008Z" fill="#F2D8D3"/>
<path d="M8.6 100.4C21 96.4001 33.8 125.8 16.9 131.5C1.3 136.7 -4.9 104.7 8.6 100.4Z" fill="url(#paint2_radial_3027:498064)"/>
<path d="M8.6 100.4C21 96.4001 33.8 125.8 16.9 131.5C1.3 136.7 -4.9 104.7 8.6 100.4Z" stroke="#691100" stroke-miterlimit="10"/>
<path opacity="0.41" d="M10.6 104.7C15 106.8 11.6 118 7 115.8C2.4 113.6 5.1 102.1 10.6 104.7Z" fill="#F2D8D3"/>
<path d="M234.2 101.4C246.7 105.1 240.6 136.6 223.4 131.7C207.6 127.2 220.7 97.4001 234.2 101.4Z" fill="url(#paint3_radial_3027:498064)"/>
<path d="M234.2 101.4C246.7 105.1 240.6 136.6 223.4 131.7C207.6 127.2 220.7 97.4001 234.2 101.4Z" stroke="#691100" stroke-miterlimit="10"/>
<path opacity="0.41" d="M233.7 104.5C238.4 105 238.8 116.5 233.8 115.8C228.8 115.1 227.9 103.8 233.7 104.5Z" fill="#F2D8D3"/>
<defs>
<radialGradient id="paint0_radial_3027:498064" cx="0" cy="0" r="1" gradientUnits="userSpaceOnUse" gradientTransform="translate(228.486 17.6614) scale(15.2387)">
<stop stop-color="#FFBEA8"/>
<stop offset="1" stop-color="#8A0900"/>
</radialGradient>
<radialGradient id="paint1_radial_3027:498064" cx="0" cy="0" r="1" gradientUnits="userSpaceOnUse" gradientTransform="translate(12.5791 13.5291) scale(14.1254)">
<stop stop-color="#FFBEA8"/>
<stop offset="1" stop-color="#8A0900"/>
</radialGradient>
<radialGradient id="paint2_radial_3027:498064" cx="0" cy="0" r="1" gradientUnits="userSpaceOnUse" gradientTransform="translate(11.0791 111.029) scale(14.1254)">
<stop stop-color="#FFBEA8"/>
<stop offset="1" stop-color="#8A0900"/>
</radialGradient>
<radialGradient id="paint3_radial_3027:498064" cx="0" cy="0" r="1" gradientUnits="userSpaceOnUse" gradientTransform="translate(231.153 112.995) scale(12.5187)">
<stop stop-color="#FFBEA8"/>
<stop offset="1" stop-color="#8A0900"/>
</radialGradient>
</defs>
</svg>
