<svg width="592" height="405" viewBox="0 0 592 405" fill="none" xmlns="http://www.w3.org/2000/svg">
<path d="M45.1699 376.12C41.5769 371.335 36.9572 367.405 31.311 365.354C2.2243 354.759 -2.73755 310.842 3.42198 292.386C10.2659 271.88 5.13297 241.12 22.2428 225.741C39.3526 210.361 34.2197 176.184 63.3064 160.804C92.3931 145.424 112.925 123.209 143.723 128.335C174.52 133.462 184.786 116.373 215.584 121.5C246.382 126.627 263.491 107.829 285.734 112.956C307.977 118.082 304.555 102.703 328.509 102.703C352.462 102.703 345.618 75.3608 376.416 83.9051C407.214 92.4494 402.081 68.5253 415.769 68.5253C429.457 68.5253 432.879 49.7279 449.988 56.5633C467.098 63.3987 455.977 24.9494 485.064 23.2405C509.017 21.8734 509.873 5.29747 526.983 10.4241C544.092 15.5506 559.491 -10.2532 581.734 5.29747C597.133 18.9684 574.89 24.0949 585.156 37.7658C595.422 51.4367 592 65.1076 578.312 70.2342C564.624 75.3608 600.726 105.095 555.214 117.228C529.549 124.063 553.503 142.861 538.104 154.823C525.614 164.563 520.994 156.532 515.861 163.367C510.728 170.203 518.941 186.266 490.197 182.165C466.243 178.747 487.972 227.108 447.422 216.342C421.757 209.506 438.867 233.43 414.913 233.43C390.96 233.43 394.382 257.354 365.295 245.392C336.208 233.43 348.185 269.316 313.965 262.481C279.746 255.646 310.543 279.57 274.613 274.443C238.682 269.316 274.613 300.076 242.104 300.076C223.283 300.076 257.503 346.215 204.462 358.177C171.098 365.696 197.619 394.063 163.399 390.646C140.985 388.253 133.457 410.127 111.214 401.582C88.9711 393.038 87.2601 415.253 71.8613 398.165C59.8844 384.835 50.9873 383.981 45.1699 376.12Z" fill="url(#paint0_linear_3106:499788)"/>
<path opacity="0.37" d="M59.3711 343.823C56.2913 339.722 52.0138 336.133 47.052 334.424C20.874 325.025 17.1098 287.43 22.9271 271.709C29.4289 254.449 25.3225 228.133 40.8925 215.316C56.4624 202.5 52.5271 173.278 79.0474 160.633C105.568 147.987 124.56 129.361 152.277 134.316C179.995 139.101 189.577 124.747 217.295 129.703C245.013 134.487 260.754 118.766 280.772 123.551C300.791 128.335 297.882 115.177 319.612 115.519C341.341 115.861 335.524 92.4494 363.242 100.31C390.96 108.171 386.682 87.6645 399.001 87.8354C411.32 88.0063 414.742 72.1139 430.141 78.2658C445.54 84.4177 449.988 49.7278 476.338 48.7025C498.067 47.8481 499.436 30.7595 514.835 35.3734C530.234 39.9873 538.104 16.2342 558.123 29.7342C571.81 41.6962 543.579 52.462 552.647 64.2532C561.716 76.0443 558.465 87.6645 545.975 91.7658C533.484 95.8671 565.651 121.842 524.416 131.411C501.147 136.88 522.534 153.285 508.333 163.196C496.869 171.228 492.763 164.392 488.143 170.032C483.353 175.842 490.539 189.513 464.703 185.582C443.145 182.335 461.965 223.861 425.521 213.949C402.423 207.627 417.48 228.304 395.921 227.962C374.192 227.62 376.929 247.956 350.923 237.361C324.916 226.766 335.01 257.525 304.213 251.032C273.415 244.709 300.791 265.557 268.453 260.601C236.116 255.646 268.111 282.475 238.682 281.962C221.743 281.62 251.857 321.437 203.778 330.835C173.494 336.646 197.105 361.253 166.136 357.835C145.947 355.614 138.761 374.07 118.742 366.38C98.7237 358.69 96.8416 377.658 83.1537 362.791C72.3746 351.513 64.504 350.487 59.3711 343.823Z" fill="#FFC670"/>
<g opacity="0.53">
<path opacity="0.53" d="M88.2868 248.81C101.804 254.791 87.9445 281.278 74.77 274.101C61.5954 266.924 76.3099 243.513 88.2868 248.81Z" fill="#FFA442"/>
<path opacity="0.53" d="M87.4313 250.69C98.8949 255.646 87.2602 278.373 75.9677 272.221C64.6752 266.07 77.1654 246.247 87.4313 250.69Z" fill="#F7C05E"/>
</g>
<g opacity="0.53">
<path opacity="0.53" d="M64.8462 263.165C78.3629 269.146 64.504 295.633 51.3294 288.456C38.1549 281.108 52.8693 257.867 64.8462 263.165Z" fill="#FFA442"/>
<path opacity="0.53" d="M63.8196 265.044C75.2831 270 63.6485 292.728 52.356 286.576C41.0635 280.424 53.5537 260.601 63.8196 265.044Z" fill="#F7C05E"/>
</g>
<g opacity="0.53">
<path opacity="0.53" d="M108.134 296.487C122.164 301.443 110.187 328.956 96.4994 322.633C82.8116 316.31 95.815 292.044 108.134 296.487Z" fill="#FFA442"/>
<path opacity="0.53" d="M107.279 298.367C119.084 302.639 108.99 325.88 97.3549 320.582C85.7202 315.285 96.8416 294.779 107.279 298.367Z" fill="#F7C05E"/>
</g>
<g opacity="0.53">
<path opacity="0.53" d="M147.316 292.728C160.148 299.905 143.723 325.025 131.403 316.481C118.913 307.937 135.852 286.234 147.316 292.728Z" fill="#FFA442"/>
<path opacity="0.53" d="M146.118 294.437C157.068 300.589 143.038 321.949 132.601 314.601C121.993 307.424 136.536 288.968 146.118 294.437Z" fill="#F7C05E"/>
</g>
<g opacity="0.53">
<path opacity="0.53" d="M37.2994 285.722C52.0139 283.842 53.8959 313.576 38.8393 314.259C23.7827 314.943 24.4671 287.43 37.2994 285.722Z" fill="#FFA442"/>
<path opacity="0.53" d="M37.4705 287.943C49.9607 286.234 51.5006 311.696 38.8393 312.209C26.178 312.722 26.5202 289.31 37.4705 287.943Z" fill="#F7C05E"/>
</g>
<g opacity="0.53">
<path opacity="0.53" d="M105.91 262.994C116.176 269.146 104.199 286.918 94.2752 279.911C84.3515 272.905 96.8416 257.525 105.91 262.994Z" fill="#FFA442"/>
<path opacity="0.53" d="M105.054 264.19C113.78 269.316 103.686 284.525 95.1306 278.544C86.7468 272.734 97.3549 259.747 105.054 264.19Z" fill="#F7C05E"/>
</g>
<g opacity="0.53">
<path opacity="0.53" d="M135.51 276.665C145.776 282.816 133.799 300.589 123.875 293.582C113.78 286.576 126.27 271.196 135.51 276.665Z" fill="#FFA442"/>
<path opacity="0.53" d="M134.654 277.861C143.38 282.987 133.285 298.196 124.731 292.215C116.176 286.405 126.955 273.418 134.654 277.861Z" fill="#F7C05E"/>
</g>
<g opacity="0.53">
<path opacity="0.53" d="M153.817 219.589C164.083 225.741 152.106 243.513 142.183 236.506C132.259 229.5 144.749 214.291 153.817 219.589Z" fill="#FFA442"/>
<path opacity="0.53" d="M152.962 220.785C161.688 225.911 151.593 241.12 143.038 235.139C134.654 229.329 145.262 216.342 152.962 220.785Z" fill="#F7C05E"/>
</g>
<g opacity="0.53">
<path opacity="0.53" d="M83.1537 276.494C95.9861 282.304 85.5491 302.81 72.8878 295.975C60.0555 288.968 71.6902 271.196 83.1537 276.494Z" fill="#FFA442"/>
<path opacity="0.53" d="M82.2982 277.861C93.2485 282.816 84.3514 300.247 73.5722 294.437C62.793 288.627 72.7167 273.589 82.2982 277.861Z" fill="#F7C05E"/>
</g>
<g opacity="0.53">
<path opacity="0.53" d="M91.3665 223.348C104.199 229.158 93.7618 249.665 81.1006 242.829C68.4393 235.823 80.074 218.051 91.3665 223.348Z" fill="#FFA442"/>
<path opacity="0.53" d="M90.6821 224.715C101.632 229.671 92.7353 247.101 81.9561 241.291C71.1769 235.481 81.1006 220.272 90.6821 224.715Z" fill="#F7C05E"/>
</g>
<g opacity="0.53">
<path opacity="0.53" d="M127.981 217.88C140.985 223.69 128.837 246.93 116.176 239.924C103.514 233.089 116.518 212.753 127.981 217.88Z" fill="#FFA442"/>
<path opacity="0.53" d="M127.126 219.589C138.076 224.544 127.982 244.196 117.202 238.386C106.252 232.405 117.373 215.316 127.126 219.589Z" fill="#F7C05E"/>
</g>
<g opacity="0.53">
<path opacity="0.53" d="M114.978 204.38C126.955 212.07 111.385 233.089 99.9214 224.373C88.6289 215.658 104.541 197.544 114.978 204.38Z" fill="#FFA442"/>
<path opacity="0.53" d="M113.951 205.918C124.046 212.411 110.872 230.354 101.119 222.835C91.5376 215.487 105.054 200.108 113.951 205.918Z" fill="#F7C05E"/>
</g>
<g opacity="0.53">
<path opacity="0.53" d="M126.784 168.323C140.13 177.038 122.677 200.791 109.845 190.88C97.0127 180.968 114.978 160.633 126.784 168.323Z" fill="#FFA442"/>
<path opacity="0.53" d="M125.586 170.032C137.05 177.38 122.164 197.544 111.214 189.171C100.264 180.797 115.491 163.538 125.586 170.032Z" fill="#F7C05E"/>
</g>
<g opacity="0.53">
<path opacity="0.53" d="M197.276 293.07C210.622 301.785 193.17 325.538 180.338 315.627C167.505 305.715 185.47 285.38 197.276 293.07Z" fill="#FFA442"/>
<path opacity="0.53" d="M196.079 294.778C207.542 302.127 192.657 322.291 181.706 313.918C170.756 305.544 185.984 288.285 196.079 294.778Z" fill="#F7C05E"/>
</g>
<g opacity="0.53">
<path opacity="0.53" d="M191.117 322.975C200.014 336.133 171.954 352.538 164.083 338.354C156.213 324 183.246 311.184 191.117 322.975Z" fill="#FFA442"/>
<path opacity="0.53" d="M189.235 324.171C196.763 335.449 172.98 349.291 166.308 337.158C159.635 325.025 182.391 314.089 189.235 324.171Z" fill="#F7C05E"/>
</g>
<g opacity="0.53">
<path opacity="0.53" d="M208.74 343.652C213.873 358.69 182.562 367.063 178.627 351.342C174.691 335.62 204.12 330.323 208.74 343.652Z" fill="#FFA442"/>
<path opacity="0.53" d="M206.516 344.335C210.964 357.152 184.273 364.329 180.851 351C177.429 337.671 202.58 333.057 206.516 344.335Z" fill="#F7C05E"/>
</g>
<g opacity="0.53">
<path opacity="0.53" d="M231.838 329.297C240.906 338.525 220.888 355.785 212.504 345.532C203.949 335.449 223.797 321.095 231.838 329.297Z" fill="#FFA442"/>
<path opacity="0.53" d="M230.469 330.494C238.169 338.354 221.23 353.051 214.044 344.335C206.858 335.62 223.626 323.658 230.469 330.494Z" fill="#F7C05E"/>
</g>
<g opacity="0.53">
<path opacity="0.53" d="M224.31 287.601C232.009 295.633 217.637 308.108 210.451 299.222C203.265 290.506 217.466 280.424 224.31 287.601Z" fill="#FFA442"/>
<path opacity="0.53" d="M223.283 288.456C229.785 295.291 217.637 305.886 211.477 298.367C205.318 291.019 217.466 282.475 223.283 288.456Z" fill="#F7C05E"/>
</g>
<g opacity="0.53">
<path opacity="0.53" d="M230.127 301.956C241.249 303.665 236.629 324.684 225.508 321.949C214.386 319.386 220.375 300.418 230.127 301.956Z" fill="#FFA442"/>
<path opacity="0.53" d="M229.785 303.494C239.195 304.861 235.26 322.804 225.85 320.582C216.439 318.19 221.401 302.127 229.785 303.494Z" fill="#F7C05E"/>
</g>
<g opacity="0.53">
<path opacity="0.53" d="M132.43 191.051C142.183 197.373 129.521 214.633 120.111 207.456C110.701 200.278 123.704 185.411 132.43 191.051Z" fill="#FFA442"/>
<path opacity="0.53" d="M131.403 192.247C139.787 197.544 128.837 212.241 120.966 206.259C112.925 200.108 124.046 187.633 131.403 192.247Z" fill="#F7C05E"/>
</g>
<g opacity="0.53">
<path opacity="0.53" d="M143.894 170.886C153.646 177.209 140.985 194.468 131.575 187.291C122.164 180.114 135.339 165.418 143.894 170.886Z" fill="#FFA442"/>
<path opacity="0.53" d="M143.038 172.253C151.422 177.551 140.472 192.247 132.601 186.266C124.56 180.114 135.681 167.468 143.038 172.253Z" fill="#F7C05E"/>
</g>
<g opacity="0.53">
<path opacity="0.53" d="M73.4012 184.899C83.496 191.392 70.3214 209.335 60.5688 201.987C50.8162 194.468 64.333 179.259 73.4012 184.899Z" fill="#FFA442"/>
<path opacity="0.53" d="M72.3746 186.266C80.9295 191.905 69.8081 207.114 61.4243 200.791C53.2115 194.468 64.8462 181.31 72.3746 186.266Z" fill="#F7C05E"/>
</g>
<g opacity="0.53">
<path opacity="0.53" d="M545.461 81.1709C554.187 89.3734 538.104 104.753 529.891 95.6962C521.508 86.4683 537.591 73.8228 545.461 81.1709Z" fill="#FFA442"/>
<path opacity="0.53" d="M544.264 82.3671C551.792 89.3734 537.933 102.361 530.918 94.6709C524.074 86.8101 537.762 76.0443 544.264 82.3671Z" fill="#F7C05E"/>
</g>
<g opacity="0.53">
<path opacity="0.53" d="M469.665 51.4367C479.76 58.1013 466.414 75.8734 456.832 68.3544C447.251 60.8354 460.768 45.4557 469.665 51.4367Z" fill="#FFA442"/>
<path opacity="0.53" d="M468.638 52.6329C477.193 58.2722 465.901 73.481 457.688 66.9873C449.475 60.4937 461.11 47.6772 468.638 52.6329Z" fill="#F7C05E"/>
</g>
<g opacity="0.53">
<path opacity="0.53" d="M452.384 63.9114C456.832 78.4367 429.628 85.1013 426.377 70.0633C422.955 54.8544 448.449 51.0949 452.384 63.9114Z" fill="#FFA442"/>
<path opacity="0.53" d="M450.502 64.424C454.266 76.7278 431.168 82.3671 428.259 69.7215C425.35 57.0759 447.08 53.4873 450.502 64.424Z" fill="#F7C05E"/>
</g>
<g opacity="0.53">
<path opacity="0.53" d="M491.052 102.361C494.645 113.981 472.916 119.278 470.178 107.316C467.441 95.1836 487.801 92.1076 491.052 102.361Z" fill="#FFA442"/>
<path opacity="0.53" d="M489.512 102.703C492.592 112.614 474.113 117.057 471.718 106.804C469.494 96.7215 486.775 93.9873 489.512 102.703Z" fill="#F7C05E"/>
</g>
<g opacity="0.53">
<path opacity="0.53" d="M539.302 137.051C549.397 149.013 526.298 166.272 517.059 153.456C507.82 140.468 530.405 126.456 539.302 137.051Z" fill="#FFA442"/>
<path opacity="0.53" d="M537.762 138.247C546.317 148.329 526.812 163.196 518.77 152.089C510.9 141.152 530.062 129.361 537.762 138.247Z" fill="#F7C05E"/>
</g>
<g opacity="0.53">
<path opacity="0.53" d="M562.742 89.7152C574.377 96.5506 560.518 117.228 549.225 109.367C537.933 101.506 552.476 83.7342 562.742 89.7152Z" fill="#FFA442"/>
<path opacity="0.53" d="M561.716 91.2531C571.639 97.0633 559.834 114.665 550.252 108C540.671 101.335 552.99 86.1266 561.716 91.2531Z" fill="#F7C05E"/>
</g>
<g opacity="0.53">
<path opacity="0.53" d="M566.335 72.7975C577.457 72.2848 577.286 92.7911 565.993 92.4494C554.701 92.1076 556.583 73.3101 566.335 72.7975Z" fill="#FFA442"/>
<path opacity="0.53" d="M566.507 74.3354C575.917 73.8228 575.746 91.2532 566.164 91.0823C556.412 90.7405 558.123 74.6772 566.507 74.3354Z" fill="#F7C05E"/>
</g>
<g opacity="0.53">
<path opacity="0.53" d="M581.221 47.3354C592.342 46.8228 592.171 67.3291 580.879 66.9873C569.415 66.6455 571.297 47.8481 581.221 47.3354Z" fill="#FFA442"/>
<path opacity="0.53" d="M581.221 48.8734C590.631 48.3608 590.46 65.7911 580.879 65.6203C571.297 65.2785 572.837 49.2152 581.221 48.8734Z" fill="#F7C05E"/>
</g>
<g opacity="0.53">
<path opacity="0.53" d="M558.807 7.3481C566.506 15.3797 550.936 28.7089 543.75 19.9937C536.564 11.2785 552.134 0.341774 558.807 7.3481Z" fill="#FFA442"/>
<path opacity="0.53" d="M557.78 8.37343C564.282 15.2089 551.108 26.4873 544.948 19.1392C538.789 11.6203 551.963 2.39241 557.78 8.37343Z" fill="#F7C05E"/>
</g>
<g opacity="0.53">
<path opacity="0.53" d="M518.941 13.8418C526.641 21.8734 511.071 35.2025 503.884 26.4873C496.698 17.6013 512.097 6.66455 518.941 13.8418Z" fill="#FFA442"/>
<path opacity="0.53" d="M517.743 14.6962C524.245 21.5316 511.071 32.8101 504.911 25.462C498.923 17.943 511.926 8.71519 517.743 14.6962Z" fill="#F7C05E"/>
</g>
<g opacity="0.53">
<path opacity="0.53" d="M572.153 1.19619C582.761 4.44303 575.575 23.7531 565.138 19.481C554.53 15.2088 562.742 -1.70887 572.153 1.19619Z" fill="#FFA442"/>
<path opacity="0.53" d="M571.639 2.56328C580.708 5.29746 574.548 21.7025 565.651 18.1139C556.754 14.5253 563.598 0.170878 571.639 2.56328Z" fill="#F7C05E"/>
</g>
<g opacity="0.53">
<path opacity="0.53" d="M579.681 28.1962C590.289 31.443 583.103 50.7532 572.666 46.481C562.058 42.2089 570.271 25.2911 579.681 28.1962Z" fill="#FFA442"/>
<path opacity="0.53" d="M579.168 29.5633C588.236 32.2975 582.076 48.7025 573.179 45.1139C564.111 41.5253 571.126 27 579.168 29.5633Z" fill="#F7C05E"/>
</g>
<g opacity="0.53">
<path opacity="0.53" d="M518.77 95.3544C531.945 99.4557 523.047 123.209 510.044 118.082C497.041 112.785 507.135 91.7658 518.77 95.3544Z" fill="#FFA442"/>
<path opacity="0.53" d="M518.257 97.0633C529.549 100.481 521.85 120.816 510.728 116.373C499.607 111.93 508.333 93.9874 518.257 97.0633Z" fill="#F7C05E"/>
</g>
<g opacity="0.53">
<path opacity="0.53" d="M513.295 59.4684C525.443 65.962 511.926 87.6646 500.291 79.9747C488.486 72.2848 502.516 53.6582 513.295 59.4684Z" fill="#FFA442"/>
<path opacity="0.53" d="M512.268 61.0063C522.534 66.6456 511.242 84.9304 501.147 78.4367C491.223 71.943 503.2 56.0506 512.268 61.0063Z" fill="#F7C05E"/>
</g>
<g opacity="0.53">
<g opacity="0.53">
<path opacity="0.53" d="M159.977 141.152C166.992 153.456 143.551 165.076 137.392 152.089C131.232 139.101 153.817 130.386 159.977 141.152Z" fill="#E6A31C"/>
</g>
<g opacity="0.53">
<path opacity="0.53" d="M157.924 142.177C163.741 152.259 144.407 161.829 139.445 151.063C134.483 140.468 152.962 133.291 157.924 142.177Z" fill="#FFD65E"/>
</g>
</g>
<g opacity="0.53">
<g opacity="0.53">
<path opacity="0.53" d="M194.368 154.31C199.672 163.709 183.417 171.74 178.798 161.829C174.178 151.918 189.748 146.108 194.368 154.31Z" fill="#E6A31C"/>
</g>
<g opacity="0.53">
<path opacity="0.53" d="M192.999 154.994C197.276 162.684 184.102 169.348 180.166 161.146C176.402 153.114 189.235 148.329 192.999 154.994Z" fill="#FFD65E"/>
</g>
</g>
<g opacity="0.53">
<g opacity="0.53">
<path opacity="0.53" d="M241.933 174.646C247.237 184.044 230.983 192.076 226.363 182.165C221.572 172.253 237.142 166.272 241.933 174.646Z" fill="#E6A31C"/>
</g>
<g opacity="0.53">
<path opacity="0.53" d="M240.564 175.329C244.842 183.019 231.667 189.684 227.732 181.481C223.968 173.449 236.629 168.494 240.564 175.329Z" fill="#FFD65E"/>
</g>
</g>
<g opacity="0.53">
<g opacity="0.53">
<path opacity="0.53" d="M255.279 174.475C260.583 183.873 244.328 191.905 239.709 181.994C235.089 172.082 250.659 166.101 255.279 174.475Z" fill="#E6A31C"/>
</g>
<g opacity="0.53">
<path opacity="0.53" d="M253.91 175.158C258.187 182.848 245.013 189.513 241.077 181.31C237.313 173.108 250.146 168.323 253.91 175.158Z" fill="#FFD65E"/>
</g>
</g>
<g opacity="0.53">
<g opacity="0.53">
<path opacity="0.53" d="M274.955 167.81C280.43 177.209 261.267 186.608 256.647 176.696C252.028 166.614 270.164 159.608 274.955 167.81Z" fill="#E6A31C"/>
</g>
<g opacity="0.53">
<path opacity="0.53" d="M273.415 168.665C277.863 176.354 262.122 184.044 258.358 175.842C254.423 167.639 269.48 161.829 273.415 168.665Z" fill="#FFD65E"/>
</g>
</g>
<g opacity="0.53">
<g opacity="0.53">
<path opacity="0.53" d="M213.702 260.772C217.808 272.563 194.025 279.057 190.946 266.753C187.866 254.449 210.109 250.348 213.702 260.772Z" fill="#E6A31C"/>
</g>
<g opacity="0.53">
<path opacity="0.53" d="M211.648 261.285C215.07 271.025 195.394 276.323 192.828 266.24C190.432 256.158 208.74 252.74 211.648 261.285Z" fill="#FFD65E"/>
</g>
</g>
<g opacity="0.53">
<g opacity="0.53">
<path opacity="0.53" d="M230.469 274.614C234.234 285.38 213.531 291.19 210.622 279.911C207.884 268.633 227.219 265.215 230.469 274.614Z" fill="#E6A31C"/>
</g>
<g opacity="0.53">
<path opacity="0.53" d="M228.758 275.127C231.838 284.013 214.899 288.627 212.504 279.399C210.109 270.171 226.021 267.437 228.758 275.127Z" fill="#FFD65E"/>
</g>
</g>
<g opacity="0.53">
<g opacity="0.53">
<path opacity="0.53" d="M255.107 270C258.872 280.766 238.169 286.576 235.26 275.297C232.522 264.019 251.857 260.43 255.107 270Z" fill="#E6A31C"/>
</g>
<g opacity="0.53">
<path opacity="0.53" d="M253.397 270.513C256.476 279.399 239.538 284.013 237.142 274.785C234.747 265.557 250.659 262.652 253.397 270.513Z" fill="#FFD65E"/>
</g>
</g>
<g opacity="0.53">
<g opacity="0.53">
<path opacity="0.53" d="M245.526 244.538C249.29 255.304 228.587 261.114 225.679 249.835C222.77 238.557 242.275 234.968 245.526 244.538Z" fill="#E6A31C"/>
</g>
<g opacity="0.53">
<path opacity="0.53" d="M243.815 245.051C246.895 253.937 229.956 258.551 227.561 249.323C225.165 240.095 241.077 237.19 243.815 245.051Z" fill="#FFD65E"/>
</g>
</g>
<g opacity="0.53">
<g opacity="0.53">
<path opacity="0.53" d="M275.81 232.576C279.746 244.196 257.674 250.348 254.594 238.215C251.514 226.082 272.217 222.323 275.81 232.576Z" fill="#E6A31C"/>
</g>
<g opacity="0.53">
<path opacity="0.53" d="M273.928 233.089C277.179 242.658 259.043 247.614 256.476 237.703C253.91 227.791 271.02 224.715 273.928 233.089Z" fill="#FFD65E"/>
</g>
</g>
<g opacity="0.53">
<g opacity="0.53">
<path opacity="0.53" d="M309.517 227.962C314.136 239.241 292.407 246.759 288.643 234.797C284.879 222.835 305.41 217.88 309.517 227.962Z" fill="#E6A31C"/>
</g>
<g opacity="0.53">
<path opacity="0.53" d="M307.635 228.646C311.399 238.044 293.605 244.025 290.525 234.285C287.445 224.544 304.384 220.443 307.635 228.646Z" fill="#FFD65E"/>
</g>
</g>
<g opacity="0.53">
<g opacity="0.53">
<path opacity="0.53" d="M325.258 106.462C332.957 116.032 314.136 129.19 307.121 118.937C300.106 108.513 318.414 97.9177 325.258 106.462Z" fill="#E6A31C"/>
</g>
<g opacity="0.53">
<path opacity="0.53" d="M323.547 107.658C329.877 115.519 314.479 126.456 308.661 117.911C303.015 109.367 318.072 100.652 323.547 107.658Z" fill="#FFD65E"/>
</g>
</g>
<g opacity="0.53">
<g opacity="0.53">
<path opacity="0.53" d="M346.474 140.81C353.66 152.943 330.391 164.905 324.06 151.918C317.729 138.93 340.143 130.044 346.474 140.81Z" fill="#E6A31C"/>
</g>
<g opacity="0.53">
<path opacity="0.53" d="M344.421 141.835C350.238 151.918 331.246 161.658 325.942 151.063C320.809 140.297 339.288 132.949 344.421 141.835Z" fill="#FFD65E"/>
</g>
</g>
<g opacity="0.53">
<g opacity="0.53">
<path opacity="0.53" d="M401.568 122.867C408.754 135 385.484 146.962 379.154 133.975C372.823 120.987 395.237 112.101 401.568 122.867Z" fill="#E6A31C"/>
</g>
<g opacity="0.53">
<path opacity="0.53" d="M399.685 123.892C405.503 133.975 386.511 143.715 381.207 133.12C376.074 122.354 394.381 115.006 399.685 123.892Z" fill="#FFD65E"/>
</g>
</g>
<g opacity="0.53">
<g opacity="0.53">
<path opacity="0.53" d="M426.377 127.994C434.59 142.006 407.898 155.677 400.541 140.81C393.355 125.943 419.02 115.519 426.377 127.994Z" fill="#E6A31C"/>
</g>
<g opacity="0.53">
<path opacity="0.53" d="M424.152 129.19C430.996 140.639 408.925 151.918 402.936 139.785C396.948 127.481 418.164 118.937 424.152 129.19Z" fill="#FFD65E"/>
</g>
</g>
<g opacity="0.53">
<g opacity="0.53">
<path opacity="0.53" d="M466.072 74.3354C477.193 86.1266 454.266 105.437 443.829 92.6202C433.392 79.8038 456.148 63.9114 466.072 74.3354Z" fill="#E6A31C"/>
</g>
<g opacity="0.53">
<path opacity="0.53" d="M464.019 76.0443C473.258 85.7848 454.266 101.677 445.711 91.0823C437.327 80.4874 455.977 67.5 464.019 76.0443Z" fill="#FFD65E"/>
</g>
</g>
<g opacity="0.53">
<g opacity="0.53">
<path opacity="0.53" d="M473.429 129.703C474.456 145.937 444.342 145.937 444.684 129.532C444.856 112.956 472.402 115.348 473.429 129.703Z" fill="#E6A31C"/>
</g>
<g opacity="0.53">
<path opacity="0.53" d="M470.863 129.703C471.718 143.032 446.909 143.032 447.251 129.532C447.593 116.032 470.007 117.911 470.863 129.703Z" fill="#FFD65E"/>
</g>
</g>
<g opacity="0.53">
<g opacity="0.53">
<path opacity="0.53" d="M497.212 148.158C498.067 161.316 473.6 161.487 473.771 147.987C473.942 134.487 496.527 136.538 497.212 148.158Z" fill="#E6A31C"/>
</g>
<g opacity="0.53">
<path opacity="0.53" d="M495.158 148.158C495.843 158.924 475.653 159.095 475.995 147.987C476.166 136.88 494.474 138.589 495.158 148.158Z" fill="#FFD65E"/>
</g>
</g>
<g opacity="0.53">
<g opacity="0.53">
<path opacity="0.53" d="M451.871 174.987C452.726 188.146 428.259 188.316 428.43 174.816C428.601 161.316 451.186 163.367 451.871 174.987Z" fill="#E6A31C"/>
</g>
<g opacity="0.53">
<path opacity="0.53" d="M449.817 175.158C450.502 185.924 430.312 186.095 430.654 174.987C430.826 163.88 449.133 165.589 449.817 175.158Z" fill="#FFD65E"/>
</g>
</g>
<g opacity="0.53">
<g opacity="0.53">
<path opacity="0.53" d="M472.916 197.032C480.786 210.361 455.292 223.69 448.277 209.335C441.262 195.152 465.901 185.07 472.916 197.032Z" fill="#E6A31C"/>
</g>
<g opacity="0.53">
<path opacity="0.53" d="M470.691 198.057C477.193 208.994 456.148 219.93 450.502 208.139C444.856 196.348 464.874 188.487 470.691 198.057Z" fill="#FFD65E"/>
</g>
</g>
<g opacity="0.53">
<g opacity="0.53">
<path opacity="0.53" d="M427.746 171.57C428.943 191.392 392.157 191.392 392.67 171.228C393.184 151.063 426.719 153.968 427.746 171.57Z" fill="#E6A31C"/>
</g>
<g opacity="0.53">
<path opacity="0.53" d="M424.666 171.57C425.692 187.804 395.579 187.975 395.75 171.399C396.092 154.823 423.81 157.215 424.666 171.57Z" fill="#FFD65E"/>
</g>
</g>
<g opacity="0.53">
<g opacity="0.53">
<path opacity="0.53" d="M391.986 186.949C392.842 200.108 368.203 200.278 368.546 186.778C368.717 173.278 391.302 175.329 391.986 186.949Z" fill="#E6A31C"/>
</g>
<g opacity="0.53">
<path opacity="0.53" d="M389.933 187.12C390.617 198.057 370.428 198.057 370.599 186.949C370.77 175.842 389.249 177.38 389.933 187.12Z" fill="#FFD65E"/>
</g>
</g>
<g opacity="0.53">
<g opacity="0.53">
<path opacity="0.53" d="M362.899 184.044C363.755 197.203 339.117 197.373 339.459 183.873C339.63 170.373 362.215 172.253 362.899 184.044Z" fill="#E6A31C"/>
</g>
<g opacity="0.53">
<path opacity="0.53" d="M360.846 184.044C361.531 194.981 341.341 194.981 341.512 183.873C341.683 172.766 360.162 174.475 360.846 184.044Z" fill="#FFD65E"/>
</g>
</g>
<g opacity="0.53">
<g opacity="0.53">
<path opacity="0.53" d="M331.246 216.513C332.102 229.671 307.464 229.842 307.806 216.342C307.977 202.842 330.562 204.722 331.246 216.513Z" fill="#E6A31C"/>
</g>
<g opacity="0.53">
<path opacity="0.53" d="M329.193 216.513C329.877 227.449 309.688 227.449 309.859 216.342C310.03 205.234 328.509 206.943 329.193 216.513Z" fill="#FFD65E"/>
</g>
</g>
<g opacity="0.53">
<g opacity="0.53">
<path opacity="0.53" d="M290.183 263.506C291.038 276.665 266.4 276.835 266.742 263.335C266.913 249.835 289.498 251.715 290.183 263.506Z" fill="#E6A31C"/>
</g>
<g opacity="0.53">
<path opacity="0.53" d="M288.129 263.506C288.814 274.443 268.624 274.443 268.795 263.335C268.966 252.228 287.445 253.937 288.129 263.506Z" fill="#FFD65E"/>
</g>
</g>
<g opacity="0.53">
<g opacity="0.53">
<path opacity="0.53" d="M360.333 212.582C361.188 225.74 336.55 225.911 336.892 212.411C337.064 198.911 359.649 200.962 360.333 212.582Z" fill="#E6A31C"/>
</g>
<g opacity="0.53">
<path opacity="0.53" d="M358.28 212.753C358.964 223.69 338.775 223.69 338.946 212.582C339.117 201.475 357.595 203.013 358.28 212.753Z" fill="#FFD65E"/>
</g>
</g>
<g opacity="0.53">
<g opacity="0.53">
<path opacity="0.53" d="M355.542 155.677C361.702 166.101 341.854 176.184 336.379 165.247C330.904 154.31 350.067 146.62 355.542 155.677Z" fill="#E6A31C"/>
</g>
<g opacity="0.53">
<path opacity="0.53" d="M353.831 156.703C358.793 165.247 342.539 173.62 338.09 164.563C333.642 155.506 349.383 149.013 353.831 156.703Z" fill="#FFD65E"/>
</g>
</g>
<g opacity="0.53">
<g opacity="0.53">
<path opacity="0.53" d="M301.988 120.304C308.148 127.994 293.091 138.589 287.445 130.215C281.97 122.013 296.684 113.639 301.988 120.304Z" fill="#E6A31C"/>
</g>
<g opacity="0.53">
<path opacity="0.53" d="M300.791 121.329C305.753 127.652 293.434 136.196 288.985 129.532C284.365 122.696 296.342 115.69 300.791 121.329Z" fill="#FFD65E"/>
</g>
</g>
<g opacity="0.53">
<g opacity="0.53">
<path opacity="0.53" d="M318.585 123.722C322.52 132.608 305.41 139.101 302.16 129.703C298.909 120.304 314.992 115.861 318.585 123.722Z" fill="#E6A31C"/>
</g>
<g opacity="0.53">
<path opacity="0.53" d="M317.045 124.405C320.296 131.753 306.266 137.051 303.528 129.361C300.791 121.5 314.136 117.911 317.045 124.405Z" fill="#FFD65E"/>
</g>
</g>
<g opacity="0.53">
<g opacity="0.53">
<path opacity="0.53" d="M326.627 151.405C330.562 160.291 313.452 166.785 310.201 157.386C306.95 147.987 323.034 143.373 326.627 151.405Z" fill="#E6A31C"/>
</g>
<g opacity="0.53">
<path opacity="0.53" d="M325.087 151.918C328.338 159.266 314.308 164.563 311.57 156.873C308.832 149.013 322.349 145.424 325.087 151.918Z" fill="#FFD65E"/>
</g>
</g>
<g opacity="0.53">
<g opacity="0.53">
<path opacity="0.53" d="M304.042 152.43C307.977 161.316 290.867 167.81 287.616 158.411C284.365 149.013 300.449 144.57 304.042 152.43Z" fill="#E6A31C"/>
</g>
<g opacity="0.53">
<path opacity="0.53" d="M302.502 152.943C305.753 160.291 291.722 165.589 288.985 157.899C286.247 150.209 299.593 146.449 302.502 152.943Z" fill="#FFD65E"/>
</g>
</g>
<g opacity="0.53">
<g opacity="0.53">
<path opacity="0.53" d="M271.704 146.62C275.639 155.506 258.529 162 255.279 152.601C251.857 143.203 268.111 138.76 271.704 146.62Z" fill="#E6A31C"/>
</g>
<g opacity="0.53">
<path opacity="0.53" d="M270.164 147.133C273.415 154.481 259.385 159.779 256.647 152.089C253.91 144.399 267.256 140.639 270.164 147.133Z" fill="#FFD65E"/>
</g>
</g>
<g opacity="0.53">
<g opacity="0.53">
<path opacity="0.53" d="M281.285 196.006C287.616 207.285 268.111 217.025 262.465 205.063C256.818 193.101 275.639 185.924 281.285 196.006Z" fill="#E6A31C"/>
</g>
<g opacity="0.53">
<path opacity="0.53" d="M279.746 196.861C285.05 206.089 268.966 214.12 264.347 204.38C259.556 194.468 275.126 188.658 279.746 196.861Z" fill="#FFD65E"/>
</g>
</g>
<g opacity="0.53">
<g opacity="0.53">
<path opacity="0.53" d="M205.66 164.392C210.964 173.791 194.71 181.823 190.09 171.911C185.47 162 201.04 156.019 205.66 164.392Z" fill="#E6A31C"/>
</g>
<g opacity="0.53">
<path opacity="0.53" d="M204.291 165.076C208.569 172.766 195.394 179.43 191.459 171.228C187.695 163.196 200.527 158.241 204.291 165.076Z" fill="#FFD65E"/>
</g>
</g>
<g opacity="0.53">
<g opacity="0.53">
<path opacity="0.53" d="M176.916 131.582C182.22 140.981 164.425 149.696 159.806 139.785C155.186 129.873 172.125 123.38 176.916 131.582Z" fill="#E6A31C"/>
</g>
<g opacity="0.53">
<path opacity="0.53" d="M175.376 132.437C179.824 140.127 165.11 147.304 161.346 139.272C157.582 131.07 171.441 125.601 175.376 132.437Z" fill="#FFD65E"/>
</g>
</g>
<g opacity="0.53">
<g opacity="0.53">
<path opacity="0.53" d="M111.214 138.247C118.913 145.937 102.488 160.12 95.4728 151.747C88.2867 143.373 104.37 131.582 111.214 138.247Z" fill="#E6A31C"/>
</g>
<g opacity="0.53">
<path opacity="0.53" d="M109.674 139.443C116.005 145.766 102.488 157.386 96.6705 150.551C91.0242 143.544 104.199 133.975 109.674 139.443Z" fill="#FFD65E"/>
</g>
</g>
<path d="M44.6566 223.177C55.4358 225.057 67.926 197.203 57.1468 188.829C49.1052 182.677 38.1549 191.905 35.0751 200.962C30.9688 213.095 36.615 223.348 44.6566 223.177Z" fill="#FA7B2D"/>
<path d="M44.9988 221.297C54.5803 223.006 65.8728 198.057 56.2913 190.709C49.1051 185.241 39.3526 193.443 36.615 201.475C32.6797 212.24 37.8127 221.468 44.9988 221.297Z" fill="#FF8A05"/>
<path d="M67.0705 239.07C75.1121 240.608 84.0093 221.297 75.7965 215.316C69.8081 210.873 61.7665 217.196 59.5422 223.348C56.6335 231.722 61.0821 239.07 67.0705 239.07Z" fill="#FA7B2D"/>
<path d="M67.2417 237.703C74.4278 239.07 82.2983 221.81 75.1122 216.513C69.637 212.582 62.622 218.051 60.5688 223.69C58.0023 231.038 61.9376 237.703 67.2417 237.703Z" fill="#FF8A05"/>
<path d="M498.751 138.759C493.276 130.044 511.413 111.418 522.021 118.253C529.891 123.38 526.469 135.171 520.139 140.639C511.926 147.646 501.489 145.766 498.751 138.759Z" fill="#FA7B2D"/>
<path d="M500.291 137.905C495.329 130.215 511.584 113.468 520.994 119.62C528.009 124.234 524.929 134.829 519.454 139.443C512.097 145.766 502.858 144.057 500.291 137.905Z" fill="#FF8A05"/>
<path d="M473.942 72.1139C466.756 61.519 484.55 42.3798 497.212 51.6076C506.622 58.443 504.227 71.6013 498.067 76.8987C489.683 83.9051 477.877 80.4873 473.942 72.1139Z" fill="#FA7B2D"/>
<path d="M475.482 71.4304C469.151 62.0316 484.892 44.943 496.185 53.1456C504.569 59.2975 502.516 70.9177 496.869 75.7025C489.683 81.8544 479.075 78.7785 475.482 71.4304Z" fill="#FF8A05"/>
<path d="M503.2 45.7975C497.212 36.9114 512.097 21.019 522.705 28.7089C530.576 34.3481 528.523 45.4557 523.39 49.8987C516.546 55.7089 506.622 52.8038 503.2 45.7975Z" fill="#FA7B2D"/>
<path d="M504.569 45.1139C499.265 37.2531 512.439 23.0696 521.85 29.9051C528.865 35.0316 527.154 44.7721 522.534 48.7025C516.375 54 507.477 51.4367 504.569 45.1139Z" fill="#FF8A05"/>
<path d="M148.513 310.158C144.236 299.563 168.19 282.304 178.627 291.873C186.326 299.051 179.995 311.525 172.125 316.31C161.346 322.462 150.224 318.361 148.513 310.158Z" fill="#FA7B2D"/>
<path d="M150.224 309.646C146.289 300.247 167.676 284.696 177.087 293.241C183.931 299.563 178.455 310.842 171.269 314.943C161.859 320.582 151.764 316.994 150.224 309.646Z" fill="#FF8A05"/>
<path d="M74.0855 183.361C69.8081 172.766 93.7618 155.506 104.199 165.076C111.898 172.253 105.568 184.728 97.6971 189.513C86.9179 195.665 75.7965 191.563 74.0855 183.361Z" fill="#FA7B2D"/>
<path d="M75.7965 182.677C71.8612 173.278 93.2485 157.728 102.659 166.272C109.503 172.595 104.028 183.873 96.8416 187.975C87.4312 193.614 77.3364 190.025 75.7965 182.677Z" fill="#FF8A05"/>
<path d="M92.3931 258.892C83.3248 251.715 95.815 224.886 109.503 228.133C119.769 230.525 120.453 244.538 115.834 252.57C109.674 263.165 97.8682 265.215 92.3931 258.892Z" fill="#FA7B2D"/>
<path d="M93.5907 257.525C85.5491 251.203 96.4994 227.278 108.818 230.184C117.887 232.234 118.571 244.88 114.465 252.057C108.99 261.285 98.5526 262.994 93.5907 257.525Z" fill="#FF8A05"/>
<path d="M85.3781 349.12C81.4428 340.576 100.435 325.367 109.332 332.886C116.005 338.354 111.214 348.949 104.883 353.222C96.4995 358.69 87.2601 355.785 85.3781 349.12Z" fill="#FA7B2D"/>
<path d="M86.918 348.608C83.3249 340.918 100.264 327.418 108.305 334.082C114.294 339.038 110.016 348.437 104.37 352.196C96.8417 357.152 88.4579 354.589 86.918 348.608Z" fill="#FF8A05"/>
<path d="M145.434 381.076C144.578 369.627 172.809 360.74 179.653 373.044C184.786 382.272 174.862 392.184 165.794 394.234C153.817 396.797 144.407 389.449 145.434 381.076Z" fill="#FA7B2D"/>
<path d="M147.316 381.076C146.631 370.823 171.783 362.962 177.942 373.899C182.562 382.101 173.665 390.987 165.623 392.696C154.844 395.089 146.46 388.424 147.316 381.076Z" fill="#FF8A05"/>
<path d="M114.978 353.734C114.294 343.823 138.59 336.133 144.578 346.899C149.027 354.76 140.472 363.475 132.601 365.184C122.164 367.234 114.122 360.911 114.978 353.734Z" fill="#FA7B2D"/>
<path d="M116.518 353.734C115.834 344.848 137.563 338.013 142.867 347.582C146.802 354.589 139.103 362.278 132.259 363.816C123.02 365.696 115.834 360.057 116.518 353.734Z" fill="#FF8A05"/>
<path d="M68.6104 377.487C72.3746 368.43 97.6971 372.361 98.2104 384.665C98.5526 393.722 87.089 397.481 79.3896 395.601C69.1237 392.867 64.6752 383.468 68.6104 377.487Z" fill="#FA7B2D"/>
<path d="M70.1504 378.171C73.5723 369.968 95.9862 373.728 96.4995 384.494C96.8417 392.525 86.5758 395.943 79.7319 394.234C70.4926 392.013 66.5573 383.639 70.1504 378.171Z" fill="#FF8A05"/>
<path d="M159.635 272.221C159.121 262.139 183.76 254.791 189.748 265.728C194.025 273.759 185.299 282.304 177.429 284.013C166.821 286.063 158.779 279.57 159.635 272.221Z" fill="#FA7B2D"/>
<path d="M161.346 272.392C160.832 263.506 182.904 256.842 188.037 266.582C191.972 273.759 184.102 281.449 177.087 282.816C167.676 284.696 160.49 278.715 161.346 272.392Z" fill="#FF8A05"/>
<path d="M513.466 84.2468C510.044 77.4114 523.903 65.962 531.089 72.1139C536.393 76.7278 533.313 84.9304 528.522 88.0063C522.192 92.1076 515.006 89.5443 513.466 84.2468Z" fill="#FA7B2D"/>
<path d="M514.493 83.9051C511.413 77.7532 523.903 67.6709 530.234 73.1392C535.024 77.2405 532.116 84.5886 528.009 87.3228C522.363 90.9114 515.861 88.519 514.493 83.9051Z" fill="#FF8A05"/>
<path d="M555.385 65.6203C549.91 60.3228 559.149 44.9431 567.875 48.3608C574.377 50.9241 574.206 59.6393 570.784 64.2532C566.506 70.2342 558.807 70.2342 555.385 65.6203Z" fill="#FA7B2D"/>
<path d="M556.411 64.9367C551.45 60.1519 559.833 46.481 567.533 49.557C573.35 51.7785 573.179 59.6393 570.099 63.7405C566.164 68.8671 559.32 68.8671 556.411 64.9367Z" fill="#FF8A05"/>
<path d="M536.222 52.8038C530.747 47.5063 539.986 32.1266 548.712 35.5443C555.214 38.1076 555.043 46.8228 551.621 51.4367C547.172 57.4177 539.473 57.4177 536.222 52.8038Z" fill="#FA7B2D"/>
<path d="M537.077 52.1203C532.116 47.3355 540.499 33.6646 548.199 36.7405C554.016 38.962 553.845 46.8228 550.765 50.9241C547.001 56.0507 539.986 56.0506 537.077 52.1203Z" fill="#FF8A05"/>
<path d="M228.929 293.924C227.219 285.722 243.815 278.032 249.461 286.576C253.568 292.899 248.606 300.589 243.131 302.468C235.773 304.861 229.101 299.905 228.929 293.924Z" fill="#FA7B2D"/>
<path d="M230.127 293.753C228.587 286.405 243.473 279.57 248.435 287.259C252.199 292.899 247.579 299.734 242.788 301.443C236.287 303.494 230.298 299.221 230.127 293.753Z" fill="#FF8A05"/>
<path d="M279.061 197.032C281.457 187.975 306.095 188.487 308.319 199.937C309.859 208.31 299.422 213.437 291.722 212.582C281.457 211.386 276.153 203.354 279.061 197.032Z" fill="#E0AC10"/>
<path d="M280.601 197.544C282.825 189.513 304.726 190.025 306.608 200.108C307.977 207.627 298.737 212.07 291.894 211.386C282.825 210.361 277.863 203.184 280.601 197.544Z" fill="#FFCF57"/>
<path d="M309.174 192.589C311.912 182.335 339.972 183.019 342.368 195.835C344.25 205.405 332.273 211.215 323.547 210.19C312.083 208.823 305.753 199.595 309.174 192.589Z" fill="#E0AC10"/>
<path d="M310.885 193.272C313.281 184.044 338.261 184.728 340.485 196.177C342.025 204.722 331.417 209.848 323.718 208.994C313.452 207.797 307.977 199.424 310.885 193.272Z" fill="#FFCF57"/>
<path d="M374.876 144.74C377.785 132.778 405.845 133.12 408.069 147.987C409.78 159.095 397.803 165.759 389.077 164.905C377.443 163.538 371.454 152.943 374.876 144.74Z" fill="#E0AC10"/>
<path d="M376.587 145.424C379.154 134.829 404.134 135.171 406.187 148.329C407.727 158.241 396.948 164.222 389.249 163.367C378.983 162.171 373.508 152.772 376.587 145.424Z" fill="#FFCF57"/>
<path d="M287.445 142.348C286.761 132.949 307.635 126.627 312.768 137.051C316.532 144.74 309.346 152.601 302.673 153.968C293.776 155.677 286.761 149.184 287.445 142.348Z" fill="#E0AC10"/>
<path d="M288.814 142.519C288.301 134.146 306.779 128.506 311.399 137.734C314.821 144.57 308.319 151.576 302.331 152.772C294.46 154.31 288.301 148.671 288.814 142.519Z" fill="#FFCF57"/>
<path d="M252.37 128.506C249.29 115.861 275.982 102.703 285.221 115.519C292.065 125.089 284.194 137.392 275.468 140.639C263.834 145.082 253.054 137.905 252.37 128.506Z" fill="#E0AC10"/>
<path d="M254.252 128.335C251.514 117.057 275.297 105.266 283.51 116.715C289.669 125.26 282.483 136.196 274.784 139.101C264.518 143.032 254.936 136.709 254.252 128.335Z" fill="#FFCF57"/>
<path d="M219.348 144.399C216.781 133.804 239.195 122.696 246.895 133.462C252.712 141.494 246.039 151.747 238.682 154.481C228.929 158.24 219.861 152.259 219.348 144.399Z" fill="#E0AC10"/>
<path d="M220.888 144.228C218.664 134.829 238.511 124.918 245.526 134.487C250.659 141.665 244.67 150.892 238.169 153.285C229.614 156.532 221.401 151.234 220.888 144.228Z" fill="#FFCF57"/>
<path d="M177.258 132.608C180.338 122.013 210.964 123.209 213.531 136.367C215.413 146.278 202.409 151.918 192.828 150.892C180.338 149.354 173.494 139.785 177.258 132.608Z" fill="#E0AC10"/>
<path d="M179.14 133.12C181.877 123.722 209.253 124.747 211.477 136.538C213.188 145.424 201.554 150.551 192.999 149.525C181.877 148.158 175.889 139.614 179.14 133.12Z" fill="#FFCF57"/>
<path d="M162.03 196.519C168.874 205.063 196.763 192.076 194.025 178.747C191.972 168.835 177.771 168.665 169.387 173.449C158.266 179.772 155.87 191.392 162.03 196.519Z" fill="#E0AC10"/>
<path d="M163.57 195.152C169.729 202.671 194.539 191.222 192.143 179.43C190.261 170.715 177.6 170.373 170.072 174.646C160.319 180.285 158.095 190.538 163.57 195.152Z" fill="#FFCF57"/>
<path d="M268.795 178.405C269.48 168.835 296.342 164.051 300.962 174.816C304.555 182.848 294.289 190.196 285.734 191.051C274.613 192.076 266.913 185.07 268.795 178.405Z" fill="#E0AC10"/>
<path d="M270.677 178.576C271.191 170.032 295.145 165.76 299.422 175.5C302.673 182.677 293.434 189.171 285.905 189.854C275.81 190.709 268.967 184.557 270.677 178.576Z" fill="#FFCF57"/>
<path d="M435.616 144.911C438.696 133.12 470.007 133.633 472.573 148.5C474.626 159.608 461.281 166.272 451.528 165.076C438.696 163.709 431.852 152.943 435.616 144.911Z" fill="#E0AC10"/>
<path d="M437.669 145.424C440.407 134.829 468.296 135.342 470.691 148.671C472.402 158.582 460.596 164.563 451.87 163.538C440.407 162.342 434.247 152.772 437.669 145.424Z" fill="#FFCF57"/>
<path d="M195.394 204.551C198.645 191.563 229.272 191.905 231.667 208.139C233.549 220.272 220.375 227.62 210.793 226.595C198.303 225.057 191.63 213.437 195.394 204.551Z" fill="#E0AC10"/>
<path d="M197.276 205.234C200.185 193.614 227.39 193.956 229.614 208.31C231.154 219.076 219.519 225.74 210.964 224.715C199.843 223.519 193.854 213.095 197.276 205.234Z" fill="#FFCF57"/>
<path d="M187.866 248.639C183.588 238.044 207.542 220.785 217.979 230.354C225.679 237.532 219.348 250.006 211.477 254.791C200.698 260.943 189.577 256.842 187.866 248.639Z" fill="#E0AC10"/>
<path d="M189.577 248.127C185.641 238.728 207.029 223.177 216.439 231.722C223.283 238.044 217.808 249.323 210.622 253.424C201.211 259.063 191.117 255.475 189.577 248.127Z" fill="#FFCF57"/>
<path d="M232.694 213.266C228.416 202.671 252.37 185.411 262.807 194.981C270.506 202.158 264.176 214.633 256.305 219.418C245.697 225.57 234.405 221.468 232.694 213.266Z" fill="#E0AC10"/>
<path d="M234.576 212.582C230.64 203.184 252.028 187.633 261.438 196.177C268.282 202.5 262.807 213.778 255.621 217.88C246.21 223.519 236.116 219.93 234.576 212.582Z" fill="#FFCF57"/>
<path d="M358.28 231.038C356.227 221.127 376.416 211.899 383.26 222.152C388.222 229.842 382.062 238.899 375.39 241.12C366.664 244.196 358.622 238.386 358.28 231.038Z" fill="#E0AC10"/>
<path d="M359.82 231.038C357.938 222.323 376.074 213.949 382.062 223.177C386.511 230.013 381.036 238.215 375.047 240.095C367.177 242.658 359.991 237.532 359.82 231.038Z" fill="#FFCF57"/>
<path d="M344.763 136.709C343.052 126.797 369.401 115.348 376.929 125.26C382.576 132.608 373.85 142.69 365.295 145.595C354.002 149.354 344.421 144.057 344.763 136.709Z" fill="#E0AC10"/>
<path d="M346.645 136.367C345.105 127.481 368.546 117.228 375.218 126.114C380.18 132.778 372.481 141.665 364.953 144.228C354.858 147.816 346.303 143.032 346.645 136.367Z" fill="#FFCF57"/>
<path d="M373.336 113.981C371.796 106.804 387.195 99.7975 392.157 107.316C395.921 112.956 391.131 119.62 386.169 121.329C379.496 123.38 373.507 119.278 373.336 113.981Z" fill="#E0AC10"/>
<path d="M374.363 113.81C372.994 107.316 386.682 101.165 391.131 107.829C394.381 112.785 390.275 118.766 385.826 120.304C380.009 122.354 374.705 118.595 374.363 113.81Z" fill="#FFCF57"/>
<path d="M354.858 100.31C350.922 92.1076 367.348 78.6076 375.732 85.9557C382.062 91.4241 378.298 101.165 372.823 104.753C365.466 109.709 356.74 106.633 354.858 100.31Z" fill="#E0AC10"/>
<path d="M356.227 99.7974C352.634 92.4493 367.348 80.4873 374.876 86.981C380.523 91.7658 377.101 100.481 372.139 103.728C365.637 108.171 357.938 105.437 356.227 99.7974Z" fill="#FFCF57"/>
<path d="M403.963 83.3924C400.541 76.557 414.4 65.1076 421.586 71.2595C426.89 75.8734 423.81 84.0759 419.02 87.1519C412.689 91.2532 405.503 88.6899 403.963 83.3924Z" fill="#E0AC10"/>
<path d="M404.99 83.0506C401.91 76.8987 414.4 66.8164 420.731 72.2848C425.521 76.3861 422.613 83.7342 418.506 86.4684C412.86 90.057 406.358 87.6646 404.99 83.0506Z" fill="#FFCF57"/>
<path d="M451.357 110.392C447.935 103.557 461.794 92.1076 468.98 98.2595C474.284 102.873 471.205 111.076 466.414 114.152C460.254 118.253 452.897 115.69 451.357 110.392Z" fill="#E0AC10"/>
<path d="M452.555 109.88C449.475 103.728 461.965 93.6456 468.296 99.1139C473.087 103.215 470.178 110.563 466.072 113.297C460.425 116.886 453.924 114.665 452.555 109.88Z" fill="#FFCF57"/>
<path d="M417.137 199.595C413.715 189.171 435.958 175.329 444.855 185.582C451.528 193.101 445.369 204.38 438.011 207.968C428.259 212.582 418.335 207.627 417.137 199.595Z" fill="#E0AC10"/>
<path d="M418.848 199.253C415.769 189.854 435.616 177.722 443.658 186.778C449.646 193.443 444.171 203.525 437.498 206.601C428.772 210.873 419.875 206.43 418.848 199.253Z" fill="#FFCF57"/>
<path d="M239.538 257.525C237.827 249.323 254.423 241.633 260.069 250.177C264.176 256.5 259.214 264.19 253.739 266.07C246.553 268.462 239.88 263.677 239.538 257.525Z" fill="#E0AC10"/>
<path d="M240.735 257.525C239.195 250.177 254.081 243.342 259.043 251.032C262.807 256.671 258.187 263.506 253.396 265.215C246.895 267.266 241.077 262.823 240.735 257.525Z" fill="#FFCF57"/>
<path d="M301.817 253.424C302.502 245.392 324.573 241.975 328.338 251.203C331.075 258.038 322.52 263.848 315.676 264.361C306.437 265.044 300.277 259.063 301.817 253.424Z" fill="#E0AC10"/>
<path d="M303.357 253.595C304.042 246.418 323.718 243.513 326.969 251.544C329.364 257.696 321.836 262.823 315.676 263.335C307.292 264.019 301.817 258.551 303.357 253.595Z" fill="#FFCF57"/>
<path d="M142.525 328.101C139.958 318.703 164.083 304.69 172.467 313.405C178.627 319.899 171.269 330.494 163.399 334.253C152.962 339.38 143.209 335.278 142.525 328.101Z" fill="#FC832D"/>
<path d="M144.407 327.759C142.012 319.386 163.741 306.911 171.098 314.601C176.574 320.411 170.072 329.81 162.886 333.228C153.646 337.671 144.92 334.082 144.407 327.759Z" fill="#FFA142"/>
<path d="M147.316 350.829C145.947 341.259 171.783 330.323 178.969 340.063C184.273 347.241 175.547 356.81 167.334 359.544C156.213 363.133 146.973 358.006 147.316 350.829Z" fill="#FC832D"/>
<path d="M149.198 350.658C148 342.114 170.927 332.373 177.429 341.089C182.22 347.582 174.52 356.127 166.992 358.519C157.068 361.595 148.855 356.981 149.198 350.658Z" fill="#FFA142"/>
<path d="M139.787 279.741C138.247 270.342 160.832 260.601 167.505 270.342C172.467 277.519 165.11 286.747 157.753 288.968C148.171 292.044 139.787 286.747 139.787 279.741Z" fill="#FC832D"/>
<path d="M141.498 279.57C140.129 271.196 160.148 262.481 166.136 271.196C170.585 277.69 164.083 285.722 157.41 287.943C148.855 290.506 141.327 285.722 141.498 279.57Z" fill="#FFA142"/>
<path d="M55.2648 318.019C64.5041 320.753 76.8232 299.392 67.9261 291.703C61.2532 285.892 51.5006 292.215 48.2498 299.222C43.9723 308.449 48.2498 317.335 55.2648 318.019Z" fill="#FC832D"/>
<path d="M55.607 316.481C63.8197 318.873 74.77 299.905 66.8995 292.899C61.0821 287.772 52.185 293.24 49.2763 299.563C45.5122 307.937 49.4474 315.797 55.607 316.481Z" fill="#FFA142"/>
<path d="M76.4809 347.07C84.6937 352.025 101.975 334.595 95.4729 324.854C90.511 317.506 79.3896 321.095 74.4278 326.905C67.926 334.766 69.8081 344.506 76.4809 347.07Z" fill="#FC832D"/>
<path d="M77.1653 345.703C84.5225 350.146 99.9214 334.595 94.104 325.88C89.6555 319.386 79.7318 322.462 75.4543 327.759C69.637 334.766 71.348 343.481 77.1653 345.703Z" fill="#FFA142"/>
<path d="M29.4289 338.867C39.1815 332.373 28.7445 304.177 14.5434 306.399C3.93527 308.108 2.05319 322.291 6.15954 330.665C11.4636 341.943 23.2694 344.848 29.4289 338.867Z" fill="#FC832D"/>
<path d="M28.2312 337.329C36.9572 331.519 27.7179 306.399 14.8855 308.449C5.47511 309.987 3.76413 322.633 7.3572 330.152C12.1479 340.063 22.756 342.627 28.2312 337.329Z" fill="#FFA142"/>
<path d="M126.955 335.279C138.59 335.449 146.289 306.57 133.286 300.247C123.704 295.462 114.123 306.057 112.583 315.285C110.53 327.589 118.571 336.646 126.955 335.279Z" fill="#FC832D"/>
<path d="M126.784 333.399C137.221 333.57 144.065 307.766 132.43 302.127C123.875 297.854 115.32 307.253 113.951 315.456C112.24 326.392 119.256 334.595 126.784 333.399Z" fill="#FFA142"/>
<path d="M41.5768 282.304C50.3029 276.323 41.0635 251.032 28.0601 253.082C18.4786 254.62 16.7676 267.437 20.5318 274.956C25.3225 285.209 36.1017 287.772 41.5768 282.304Z" fill="#FC832D"/>
<path d="M40.5502 280.937C48.4208 275.639 40.0369 253.082 28.5734 254.791C20.0185 256.158 18.4786 267.437 21.7294 274.272C26.0069 283.5 35.5884 285.722 40.5502 280.937Z" fill="#FFA142"/>
<path d="M115.491 148.158C122.164 157.044 148.342 145.937 145.605 132.608C143.551 122.696 130.035 121.5 122.164 125.772C111.727 131.241 109.503 142.519 115.491 148.158Z" fill="#FC832D"/>
<path d="M116.86 146.962C122.849 154.994 146.289 145.082 143.723 133.12C141.841 124.234 129.864 123.209 122.849 126.968C113.609 131.753 111.556 142.006 116.86 146.962Z" fill="#FFA142"/>
<path d="M466.756 48.3608C473.258 57.4177 499.778 46.8228 497.212 33.3228C495.33 23.2405 481.813 21.8734 473.942 25.9747C463.505 31.2721 460.939 42.5506 466.756 48.3608Z" fill="#FC832D"/>
<path d="M468.296 47.1646C474.113 55.1962 497.725 45.7975 495.501 33.8354C493.79 24.9494 481.813 23.5823 474.627 27.3418C465.216 31.9557 463.163 42.038 468.296 47.1646Z" fill="#FFA142"/>
<path d="M75.6254 207.797C80.074 218.051 108.134 212.924 108.476 199.082C108.647 188.829 95.6439 184.899 87.089 187.291C75.7965 190.367 71.0058 200.962 75.6254 207.797Z" fill="#FC832D"/>
<path d="M77.3364 206.943C81.4427 216 106.423 211.386 106.594 199.253C106.765 190.196 95.1306 186.608 87.6023 188.658C77.3364 191.392 73.23 200.962 77.3364 206.943Z" fill="#FFA142"/>
<path d="M65.0174 178.063C73.4012 185.411 96.6706 169.006 91.1955 156.532C87.0891 147.133 73.5723 149.013 66.7284 154.652C57.8313 162.171 58.0024 173.791 65.0174 178.063Z" fill="#FC832D"/>
<path d="M66.2151 176.525C73.7434 183.019 94.4463 168.494 89.6555 157.215C86.0625 148.842 73.9145 150.38 67.926 155.506C59.7133 162.513 60.0555 172.766 66.2151 176.525Z" fill="#FFA142"/>
<path d="M49.1052 264.532C57.489 272.051 80.9295 255.816 75.4543 243.171C71.5191 233.772 58.0023 235.31 51.1584 241.12C42.0902 248.81 42.0902 260.259 49.1052 264.532Z" fill="#FC832D"/>
<path d="M50.3029 263.165C57.6602 269.829 78.7053 255.475 73.9145 244.196C70.3214 235.823 58.3446 237.19 52.185 242.316C43.9723 248.981 43.9723 259.234 50.3029 263.165Z" fill="#FFA142"/>
<path d="M30.2844 241.975C38.6682 249.494 62.1087 233.26 56.6335 220.614C52.6983 211.215 39.1815 212.753 32.3376 218.563C23.2694 226.082 23.2694 237.703 30.2844 241.975Z" fill="#FC832D"/>
<path d="M31.482 240.437C38.8393 247.101 59.8843 232.747 55.0936 221.468C51.5005 213.095 39.5236 214.462 33.3641 219.589C25.1514 226.424 25.1514 236.677 31.482 240.437Z" fill="#FFA142"/>
<path d="M195.223 321.266C191.459 313.918 209.424 298.025 217.979 303.835C224.31 308.278 219.861 318.361 213.873 322.804C205.66 328.785 196.763 327.247 195.223 321.266Z" fill="#FC832D"/>
<path d="M196.592 320.582C193.17 313.918 209.253 299.905 216.781 305.032C222.428 308.962 218.492 318.019 213.017 321.949C206.002 327.418 198.132 325.88 196.592 320.582Z" fill="#FFA142"/>
<path d="M117.031 375.778C116.689 367.405 139.787 360.741 144.92 369.797C148.684 376.462 140.472 383.81 133.115 385.177C123.362 387.057 116.176 381.759 117.031 375.778Z" fill="#FC832D"/>
<path d="M118.742 375.778C118.571 368.43 139.103 362.449 143.723 370.31C147.145 376.291 139.787 382.785 133.114 384.152C124.388 385.861 117.716 381.247 118.742 375.778Z" fill="#FFA142"/>
<path d="M182.562 282.304C181.877 271.88 204.805 264.703 210.451 276.323C214.728 284.867 206.687 293.582 199.33 295.12C189.577 297 181.877 289.994 182.562 282.304Z" fill="#FC832D"/>
<path d="M184.102 282.304C183.417 272.905 203.949 266.582 209.082 276.835C212.846 284.525 205.66 292.215 199.158 293.582C190.432 295.462 183.417 289.139 184.102 282.304Z" fill="#FFA142"/>
<path d="M82.1271 361.082C82.9826 352.88 106.765 349.12 110.701 358.69C113.609 365.696 104.37 371.848 96.8416 372.532C86.9179 373.215 80.4162 366.892 82.1271 361.082Z" fill="#FC832D"/>
<path d="M83.667 361.253C84.3514 353.905 105.568 350.658 109.161 359.203C111.727 365.525 103.514 370.994 96.8416 371.506C87.9445 372.019 82.1271 366.551 83.667 361.253Z" fill="#FFA142"/>
<path d="M102.146 168.152C98.2104 161.146 112.069 148.5 119.94 154.652C125.757 159.095 122.849 167.81 118.058 171.399C111.898 175.842 104.199 173.62 102.146 168.152Z" fill="#FC832D"/>
<path d="M103.343 167.639C99.9214 161.487 112.24 150.209 119.084 155.506C124.217 159.437 121.651 167.297 117.373 170.373C111.898 174.475 105.054 172.595 103.343 167.639Z" fill="#FFA142"/>
<path d="M518.257 24.6076C517.914 16.5759 535.88 11.4494 540.157 20.1646C543.408 26.6582 536.906 33.3228 531.26 34.3481C523.561 35.8861 517.743 30.4177 518.257 24.6076Z" fill="#FC832D"/>
<path d="M519.625 24.7785C519.283 17.6013 535.366 12.9873 539.131 20.8481C542.039 26.6582 536.222 32.4684 531.089 33.4937C524.245 34.6899 518.941 29.9051 519.625 24.7785Z" fill="#FFA142"/>
<path d="M551.45 35.5443C547.514 28.7089 561.031 15.7215 568.902 21.7025C574.719 26.1456 571.981 34.8607 567.362 38.4494C561.202 43.0633 553.503 40.8418 551.45 35.5443Z" fill="#FC832D"/>
<path d="M552.476 35.0317C548.883 28.8798 561.031 17.4304 568.046 22.557C573.179 26.4873 570.784 34.1772 566.677 37.424C561.202 41.6962 554.358 39.8165 552.476 35.0317Z" fill="#FFA142"/>
<path d="M538.617 77.4114C534.682 70.5759 548.199 57.5886 556.069 63.5696C561.887 68.0126 559.149 76.7278 554.529 80.3164C548.37 84.9304 540.67 82.7089 538.617 77.4114Z" fill="#FC832D"/>
<path d="M539.644 76.8987C536.051 70.7468 548.199 59.2975 555.214 64.4241C560.347 68.3544 557.952 76.0443 553.845 79.2911C548.37 83.5633 541.526 81.6836 539.644 76.8987Z" fill="#FFA142"/>
<path d="M494.987 95.6962C492.763 88.0063 509.017 78.7785 515.348 86.2975C519.968 91.9367 515.348 99.7975 509.873 102.19C502.687 105.266 495.672 101.335 494.987 95.6962Z" fill="#FC832D"/>
<path d="M496.185 95.3544C494.132 88.519 508.675 80.3164 514.321 86.981C518.428 91.9367 514.321 98.943 509.531 101.165C503.029 104.07 496.869 100.481 496.185 95.3544Z" fill="#FFA142"/>
<path d="M112.412 257.354C108.476 250.348 122.335 237.703 130.206 243.854C136.023 248.298 133.115 257.013 128.324 260.601C122.164 265.215 114.465 262.823 112.412 257.354Z" fill="#FC832D"/>
<path d="M113.609 257.013C110.187 250.861 122.506 239.582 129.35 244.88C134.483 248.81 131.917 256.671 127.639 259.747C122.164 263.848 115.32 261.797 113.609 257.013Z" fill="#FFA142"/>
<path d="M59.3711 369.968C51.6717 366.038 56.6336 346.386 67.2416 347.241C75.1122 347.753 77.6786 357.323 75.6254 363.304C72.7168 371.165 64.333 373.728 59.3711 369.968Z" fill="#FC832D"/>
<path d="M60.0555 368.943C53.2115 365.354 57.6601 347.924 67.0705 348.608C74.0855 349.12 76.4809 357.665 74.4277 362.962C71.8613 369.968 64.504 372.19 60.0555 368.943Z" fill="#FFA142"/>
<path d="M473.771 124.918C471.547 112.272 498.067 100.994 506.451 114.152C512.61 124.063 504.227 135.513 495.672 138.247C484.208 141.835 473.942 134.146 473.771 124.918Z" fill="#FC832D"/>
<path d="M475.653 124.747C473.6 113.468 497.212 103.386 504.74 115.177C510.215 123.892 502.687 134.146 494.987 136.538C484.893 139.785 475.824 133.12 475.653 124.747Z" fill="#FFA142"/>
<path d="M483.01 170.544C480.957 159.266 504.74 149.184 512.097 160.975C517.572 169.69 510.044 180.114 502.345 182.506C492.25 185.582 483.182 178.747 483.01 170.544Z" fill="#FC832D"/>
<path d="M484.721 170.373C483.01 160.291 504.056 151.234 510.728 161.829C515.69 169.69 509.017 178.747 502.002 180.968C492.934 183.873 484.892 177.722 484.721 170.373Z" fill="#FFA142"/>
<path d="M524.416 121.671C517.23 115.519 529.207 91.7658 540.671 94.5C549.225 96.5506 549.054 108.854 544.606 116.032C538.96 125.43 528.865 127.31 524.416 121.671Z" fill="#FC832D"/>
<path d="M525.614 120.475C519.112 115.006 529.891 93.8165 539.986 96.2089C547.514 98.0886 547.343 109.025 543.579 115.348C538.446 123.722 529.549 125.43 525.614 120.475Z" fill="#FFA142"/>
<path d="M511.584 59.8101C509.702 48.8734 532.629 38.962 539.986 50.4114C545.461 58.9557 538.104 69.038 530.576 71.2595C520.652 74.5063 511.755 67.8418 511.584 59.8101Z" fill="#FC832D"/>
<path d="M513.295 59.8101C511.584 50.0696 532.115 41.1835 538.617 51.4367C543.408 59.1266 536.906 68.0127 530.233 70.0633C521.336 72.7975 513.466 66.9873 513.295 59.8101Z" fill="#FFA142"/>
<path d="M217.295 223.519C219.519 211.215 255.45 208.823 260.069 223.519C263.491 234.456 249.119 242.487 237.827 242.316C222.941 241.975 213.873 232.063 217.295 223.519Z" fill="#F0B92B"/>
<path d="M219.519 223.861C221.572 212.924 253.397 210.703 257.674 223.861C260.754 233.601 247.921 240.778 237.827 240.608C224.652 240.437 216.61 231.551 219.519 223.861Z" fill="#FFD86E"/>
<path d="M163.741 255.816C165.452 265.215 190.09 266.753 192.999 255.304C195.223 246.76 185.128 240.779 177.429 240.949C167.334 241.462 161.346 249.323 163.741 255.816Z" fill="#F0B92B"/>
<path d="M165.281 255.475C166.821 263.848 188.721 265.215 191.459 254.962C193.512 247.443 184.444 241.975 177.6 242.146C168.532 242.487 163.057 249.665 165.281 255.475Z" fill="#FFD86E"/>
<path d="M180.338 222.152C183.588 229.158 202.751 225.057 202.751 215.658C202.751 208.652 193.683 206.089 187.866 207.797C179.995 210.19 177.087 217.538 180.338 222.152Z" fill="#F0B92B"/>
<path d="M181.364 221.468C184.273 227.62 201.383 224.032 201.383 215.658C201.383 209.335 193.341 207.114 188.208 208.652C181.193 210.873 178.456 217.538 181.364 221.468Z" fill="#FFD86E"/>
<path d="M143.209 167.81C145.434 179.772 176.231 181.481 179.995 167.127C182.733 156.361 170.243 148.842 160.49 149.184C147.658 149.525 139.958 159.437 143.209 167.81Z" fill="#F0B92B"/>
<path d="M145.091 167.297C146.973 177.892 174.52 179.43 177.942 166.614C180.509 157.044 169.216 150.209 160.49 150.551C149.198 151.063 142.354 159.949 145.091 167.297Z" fill="#FFD86E"/>
<path d="M201.725 156.532C203.778 167.468 232.18 169.177 235.602 155.848C238.169 145.937 226.534 138.93 217.637 139.272C205.831 139.614 198.816 148.842 201.725 156.532Z" fill="#F0B92B"/>
<path d="M203.436 156.019C205.147 165.759 230.641 167.297 233.72 155.506C236.116 146.791 225.679 140.468 217.637 140.81C207.2 140.981 200.869 149.184 203.436 156.019Z" fill="#FFD86E"/>
<path d="M326.798 235.481C322.007 226.937 339.972 210.703 349.554 218.051C356.74 223.519 352.805 234.456 346.816 238.899C338.775 245.051 329.193 242.316 326.798 235.481Z" fill="#F0B92B"/>
<path d="M328.167 234.968C323.889 227.278 339.801 212.924 348.356 219.418C354.687 224.203 351.265 233.943 345.961 238.044C338.946 243.342 330.391 240.949 328.167 234.968Z" fill="#FFD86E"/>
<path d="M271.191 246.247C268.795 238.044 287.103 227.791 293.776 235.823C298.738 241.804 293.434 250.348 287.445 253.082C279.575 256.5 271.875 252.399 271.191 246.247Z" fill="#F0B92B"/>
<path d="M272.56 245.905C270.506 238.557 286.761 229.5 292.749 236.677C297.198 241.975 292.407 249.665 287.103 252.057C280.088 255.133 273.244 251.373 272.56 245.905Z" fill="#FFD86E"/>
<path d="M148.342 212.924C144.407 205.918 158.266 193.272 166.136 199.424C171.954 203.867 169.045 212.582 164.254 216.171C158.095 220.785 150.395 218.392 148.342 212.924Z" fill="#F0B92B"/>
<path d="M149.54 212.582C146.118 206.43 158.437 195.152 165.281 200.449C170.414 204.38 167.847 212.241 163.57 215.316C158.095 219.418 151.251 217.367 149.54 212.582Z" fill="#FFD86E"/>
<path d="M136.879 198.911C132.601 191.392 147.658 177.551 156.042 184.215C162.201 189 159.121 198.57 153.988 202.329C147.316 207.456 138.932 204.892 136.879 198.911Z" fill="#F0B92B"/>
<path d="M138.076 198.399C134.312 191.563 147.829 179.43 155.186 185.241C160.832 189.513 157.924 198.057 153.475 201.475C147.487 205.918 139.958 203.696 138.076 198.399Z" fill="#FFD86E"/>
<path d="M269.309 147.304C266.571 139.785 282.141 129.361 288.814 136.538C293.776 141.835 289.669 150.038 284.536 152.772C277.693 156.361 270.506 152.943 269.309 147.304Z" fill="#F0B92B"/>
<path d="M270.506 146.962C267.94 140.297 281.97 131.07 287.958 137.392C292.407 142.177 288.814 149.354 284.194 151.918C278.035 155.165 271.533 152.089 270.506 146.962Z" fill="#FFD86E"/>
<path d="M352.291 117.057C349.554 109.538 365.124 99.1139 371.797 106.291C376.758 111.589 372.652 119.791 367.519 122.525C360.675 126.114 353.489 122.696 352.291 117.057Z" fill="#F0B92B"/>
<path d="M353.489 116.715C350.923 110.051 364.953 100.823 370.941 107.146C375.39 111.93 371.797 119.108 367.177 121.671C361.017 124.747 354.516 121.671 353.489 116.715Z" fill="#FFD86E"/>
<path d="M420.388 90.5696C419.02 82.7089 436.301 75.3607 441.605 83.5633C445.54 89.7152 440.065 96.8924 434.418 98.7722C426.89 100.994 420.388 96.3797 420.388 90.5696Z" fill="#F0B92B"/>
<path d="M421.586 90.3987C420.388 83.3924 435.787 76.8987 440.578 84.076C444.171 89.5443 439.209 96.038 434.076 97.576C427.403 99.7975 421.586 95.5253 421.586 90.3987Z" fill="#FFD86E"/>
<path d="M396.777 110.392C394.724 104.411 408.925 95.0126 414.571 100.481C418.677 104.582 414.742 111.418 409.952 113.981C403.792 117.399 397.461 115.006 396.777 110.392Z" fill="#F0B92B"/>
<path d="M397.975 110.051C396.093 104.753 408.925 96.3797 413.887 101.335C417.651 104.924 414.058 111.076 409.78 113.297C404.134 116.373 398.488 114.152 397.975 110.051Z" fill="#FFD86E"/>
<path d="M385.998 195.494C394.382 185.753 422.442 199.937 417.822 215.146C414.4 226.424 399.343 226.937 390.96 221.639C380.009 214.462 378.641 201.475 385.998 195.494Z" fill="#F0B92B"/>
<path d="M387.367 196.861C394.895 188.146 419.875 200.791 415.769 214.291C412.689 224.373 399.172 224.715 391.815 220.101C382.063 213.949 381.036 202.329 387.367 196.861Z" fill="#FFD86E"/>
<path d="M415.255 155.677C413.031 143.032 439.551 131.753 447.935 144.911C454.095 154.823 445.711 166.272 437.156 169.006C425.521 172.595 415.427 164.905 415.255 155.677Z" fill="#F0B92B"/>
<path d="M417.137 155.506C415.084 144.228 438.696 134.146 446.224 145.937C451.699 154.652 444.171 164.905 436.472 167.297C426.377 170.544 417.309 163.88 417.137 155.506Z" fill="#FFD86E"/>
<path d="M448.962 179.43C447.251 169.177 470.52 159.437 477.535 170.032C482.668 177.892 475.14 187.462 467.612 189.854C457.688 193.101 448.962 186.949 448.962 179.43Z" fill="#F0B92B"/>
<path d="M450.673 179.259C449.133 170.203 470.007 161.316 476.166 170.886C480.786 177.892 474.113 186.437 467.269 188.658C458.372 191.392 450.673 186.095 450.673 179.259Z" fill="#FFD86E"/>
<path d="M464.532 85.443C462.65 74.5063 485.577 64.5949 492.934 76.0443C498.409 84.5886 491.052 94.6709 483.524 96.8924C473.6 100.139 464.703 93.4747 464.532 85.443Z" fill="#F0B92B"/>
<path d="M466.243 85.443C464.532 75.7025 485.063 66.8165 491.565 77.0696C496.356 84.7595 489.854 93.6456 483.181 95.6962C474.284 98.4304 466.414 92.6202 466.243 85.443Z" fill="#FFD86E"/>
<path d="M419.704 117.911C418.335 106.804 446.224 96.3798 453.753 108C459.228 116.544 449.817 126.968 440.749 129.361C428.943 132.608 419.191 125.943 419.704 117.911Z" fill="#F0B92B"/>
<path d="M421.757 117.74C420.56 107.829 445.54 98.6013 452.213 108.854C457.175 116.544 448.62 125.772 440.749 127.994C429.97 130.899 421.244 124.918 421.757 117.74Z" fill="#FFD86E"/>
<path d="M318.243 132.608C312.939 123.722 332.444 104.241 343.223 111.247C351.265 116.373 347.158 128.677 340.486 134.316C331.589 141.665 320.809 139.785 318.243 132.608Z" fill="#F0B92B"/>
<path d="M319.783 131.753C314.992 123.892 332.444 106.462 342.026 112.614C349.212 117.228 345.448 128.165 339.63 133.12C331.76 139.785 322.178 138.076 319.783 131.753Z" fill="#FFD86E"/>
<path d="M355.542 158.411C357.253 148.158 384.8 145.937 388.393 158.07C391.131 167.127 380.009 173.962 371.454 173.962C359.991 173.962 352.976 165.589 355.542 158.411Z" fill="#F0B92B"/>
<path d="M357.253 158.753C358.793 149.696 383.26 147.646 386.682 158.411C389.249 166.443 379.325 172.595 371.626 172.595C361.189 172.595 355.029 165.247 357.253 158.753Z" fill="#FFD86E"/>
<path d="M264.518 216.342C265.544 205.918 295.316 201.133 300.449 213.095C304.213 221.981 292.578 229.842 283.168 230.525C270.506 231.551 262.294 223.69 264.518 216.342Z" fill="#F0B92B"/>
<path d="M266.4 216.513C267.255 207.285 293.947 203.013 298.395 213.608C301.817 221.468 291.38 228.475 282.997 229.158C271.875 230.184 264.347 223.177 266.4 216.513Z" fill="#FFD86E"/>
<path d="M211.82 253.937C215.755 245.222 243.131 249.835 243.986 261.627C244.671 270.513 232.352 273.93 223.968 271.709C212.675 268.975 207.713 259.747 211.82 253.937Z" fill="#F0B92B"/>
<path d="M213.531 254.791C216.953 246.93 241.42 251.032 242.104 261.627C242.617 269.487 231.667 272.563 224.139 270.684C214.215 268.12 209.767 259.918 213.531 254.791Z" fill="#FFD86E"/>
<path d="M305.582 174.133C309.517 165.418 336.893 170.032 337.748 181.823C338.432 190.709 326.113 194.127 317.73 191.905C306.437 189.171 301.475 179.943 305.582 174.133Z" fill="#F0B92B"/>
<path d="M307.121 174.816C310.543 166.956 335.011 171.057 335.695 181.652C336.208 189.513 325.258 192.589 317.73 190.709C307.977 188.316 303.528 180.114 307.121 174.816Z" fill="#FFD86E"/>
<path d="M357.253 186.778C364.781 181.139 383.773 196.861 378.469 207.114C374.534 214.633 363.071 212.241 357.595 206.772C350.409 199.595 351.094 189.684 357.253 186.778Z" fill="#F0B92B"/>
<path d="M358.109 188.146C364.781 183.19 381.72 197.203 376.929 206.259C373.336 213.095 363.242 210.873 358.28 205.918C351.949 199.424 352.633 190.709 358.109 188.146Z" fill="#FFD86E"/>
<g opacity="0.42">
<path opacity="0.42" d="M282.312 212.582C284.365 209.165 291.552 208.652 293.947 211.728C296.342 214.804 293.262 219.247 288.985 219.247C284.708 219.247 280.43 215.829 282.312 212.582Z" fill="white"/>
<path opacity="0.42" d="M319.954 180.968C322.007 177.551 329.193 177.038 331.588 180.114C333.984 183.19 330.904 187.633 326.627 187.633C322.349 187.633 318.072 184.215 319.954 180.968Z" fill="white"/>
<path opacity="0.42" d="M356.74 192.076C358.793 188.658 365.979 188.146 368.375 191.222C370.77 194.297 367.69 198.741 363.413 198.741C359.135 198.741 354.858 195.323 356.74 192.076Z" fill="white"/>
<path opacity="0.42" d="M362.044 164.051C364.097 160.633 371.283 160.12 373.679 163.196C376.074 166.272 372.994 170.715 368.717 170.715C364.439 170.715 360.162 167.297 362.044 164.051Z" fill="white"/>
<path opacity="0.42" d="M420.559 155.335C423.639 152.601 430.483 154.481 431.852 158.07C433.221 161.658 428.943 164.905 424.837 163.709C420.902 162.342 417.822 157.728 420.559 155.335Z" fill="white"/>
<path opacity="0.42" d="M454.437 178.918C456.832 176.867 462.136 178.234 463.163 180.968C464.19 183.703 460.939 186.266 457.688 185.241C454.608 184.215 452.213 180.797 454.437 178.918Z" fill="white"/>
<path opacity="0.42" d="M425.008 117.399C428.088 114.665 434.932 116.544 436.301 120.133C437.669 123.722 433.392 126.968 429.286 125.772C425.179 124.405 422.271 119.791 425.008 117.399Z" fill="white"/>
<path opacity="0.42" d="M401.054 108C402.765 106.462 406.701 107.487 407.556 109.538C408.241 111.589 405.845 113.639 403.45 112.785C401.054 111.93 399.343 109.538 401.054 108Z" fill="white"/>
<path opacity="0.42" d="M425.521 89.3734C427.917 87.1519 433.392 88.6899 434.418 91.5949C435.445 94.5 432.023 97.0633 428.943 96.038C425.864 95.0126 423.297 91.4241 425.521 89.3734Z" fill="white"/>
<path opacity="0.42" d="M470.863 84.2468C474.113 81.5127 481.128 83.3924 482.497 86.981C483.866 90.7405 479.417 94.1582 475.311 92.7911C471.034 91.5949 467.954 86.8101 470.863 84.2468Z" fill="white"/>
<path opacity="0.42" d="M321.665 129.19C323.718 125.772 330.904 125.259 333.299 128.335C335.695 131.411 332.615 135.854 328.338 135.854C324.06 135.854 319.783 132.437 321.665 129.19Z" fill="white"/>
<path opacity="0.42" d="M275.81 144.911C277.521 142.006 283.51 141.665 285.563 144.228C287.616 146.791 285.05 150.551 281.457 150.551C277.692 150.551 274.099 147.646 275.81 144.911Z" fill="white"/>
<path opacity="0.42" d="M355.542 115.348C357.253 112.443 363.242 112.101 365.295 114.665C367.348 117.228 364.782 120.987 361.189 120.987C357.595 120.987 353.831 118.082 355.542 115.348Z" fill="white"/>
<path opacity="0.42" d="M385.656 206.259C384.629 201.816 390.104 196.006 394.382 196.348C398.488 196.861 399.515 202.671 396.093 206.089C392.671 209.506 386.511 210.361 385.656 206.259Z" fill="white"/>
<path opacity="0.42" d="M241.077 221.981C243.473 218.221 251.686 217.709 254.252 221.127C256.99 224.373 253.568 229.329 248.606 229.329C243.815 229.158 239.024 225.399 241.077 221.981Z" fill="white"/>
<path opacity="0.42" d="M217.979 149.013C220.375 144.57 228.587 144.057 231.154 147.987C233.891 151.747 230.469 157.557 225.508 157.557C220.717 157.386 215.926 153.114 217.979 149.013Z" fill="white"/>
<path opacity="0.42" d="M163.228 161.829C165.623 157.386 173.836 156.873 176.402 160.804C179.14 164.563 175.718 170.373 170.756 170.373C165.965 170.203 161.175 165.93 163.228 161.829Z" fill="white"/>
<path opacity="0.42" d="M177.771 250.177C179.824 246.418 186.497 246.076 188.721 249.323C190.946 252.57 188.037 257.354 184.102 257.354C180.166 257.354 175.889 253.595 177.771 250.177Z" fill="white"/>
<path opacity="0.42" d="M190.09 214.291C190.946 211.215 195.908 209.848 198.132 211.728C200.356 213.778 198.987 217.709 196.079 218.392C192.999 219.076 189.406 217.025 190.09 214.291Z" fill="white"/>
<path opacity="0.42" d="M157.924 202.329C160.319 199.595 165.965 200.449 167.334 203.525C168.703 206.601 165.452 210.019 162.03 209.335C158.437 208.652 155.699 204.892 157.924 202.329Z" fill="white"/>
<path opacity="0.42" d="M283.51 237.703C285.392 235.481 290.183 236.165 291.209 238.728C292.236 241.291 289.669 244.025 286.761 243.513C284.023 242.829 281.799 239.753 283.51 237.703Z" fill="white"/>
<path opacity="0.42" d="M338.603 221.127C340.486 218.905 345.276 219.589 346.303 222.152C347.329 224.715 344.763 227.449 341.854 226.937C339.117 226.424 336.892 223.348 338.603 221.127Z" fill="white"/>
<path opacity="0.42" d="M148.513 188.316C150.567 185.924 155.528 186.778 156.726 189.342C157.924 192.076 155.015 194.981 152.106 194.297C149.198 193.614 146.631 190.538 148.513 188.316Z" fill="white"/>
<path opacity="0.42" d="M226.363 254.962C228.758 252.399 235.089 253.424 236.629 256.5C238.169 259.405 234.747 262.652 230.983 261.798C227.218 260.943 224.139 257.354 226.363 254.962Z" fill="white"/>
</g>
<g opacity="0.11">
<path opacity="0.11" d="M82.2983 326.221C82.6405 322.633 90.6821 322.12 92.3931 327.93C94.1041 333.911 81.6139 332.202 82.2983 326.221Z" fill="white"/>
<path opacity="0.11" d="M63.8196 352.88C64.1618 349.462 71.6901 349.12 73.23 354.589C74.7699 360.057 63.1352 358.348 63.8196 352.88Z" fill="white"/>
<path opacity="0.11" d="M97.6971 358.348C98.0393 355.101 105.225 354.76 106.765 359.886C108.134 365.184 97.1838 363.475 97.6971 358.348Z" fill="white"/>
<path opacity="0.11" d="M133.628 370.823C133.97 367.576 141.156 367.234 142.696 372.361C144.065 377.658 133.114 376.12 133.628 370.823Z" fill="white"/>
<path opacity="0.11" d="M58.1734 294.266C59.5422 290.848 67.7549 292.557 67.7549 298.88C67.7549 305.202 55.9491 299.905 58.1734 294.266Z" fill="white"/>
<path opacity="0.11" d="M13.859 313.063C15.2278 308.791 25.4937 311.013 25.3226 318.703C25.4937 326.221 11.6347 320.07 13.859 313.063Z" fill="white"/>
<path opacity="0.11" d="M85.378 156.532C88.9711 156.019 89.6555 166.614 82.8116 168.152C76.1387 169.69 78.7052 157.386 85.378 156.532Z" fill="white"/>
<path opacity="0.11" d="M100.264 193.956C103.172 192.418 106.765 201.133 101.461 204.38C96.3284 207.627 95.1307 196.69 100.264 193.956Z" fill="white"/>
<path opacity="0.11" d="M528.694 110.905C532.116 109.88 536.564 117.741 531.602 120.133C526.469 122.525 523.561 112.443 528.694 110.905Z" fill="white"/>
<path opacity="0.11" d="M542.724 73.1393C545.29 71.7722 549.91 77.0696 546.317 79.8038C542.724 82.3671 538.959 75.019 542.724 73.1393Z" fill="white"/>
<path opacity="0.11" d="M556.412 30.4177C558.978 29.0506 563.598 34.3481 560.005 37.0823C556.412 39.6456 552.647 32.2975 556.412 30.4177Z" fill="white"/>
<path opacity="0.11" d="M524.074 25.1202C526.469 23.4114 533.313 27.8544 530.062 31.1013C526.983 34.3481 520.481 27.6835 524.074 25.1202Z" fill="white"/>
<path opacity="0.11" d="M68.6104 242.146C71.5191 240.608 75.1121 249.323 69.8081 252.57C64.6752 255.987 63.4775 244.88 68.6104 242.146Z" fill="white"/>
<path opacity="0.11" d="M50.474 219.93C53.3827 218.392 56.9757 227.108 51.6717 230.354C46.5387 233.772 45.17 222.665 50.474 219.93Z" fill="white"/>
<path opacity="0.11" d="M31.4821 258.38C34.3907 255.987 40.037 263.335 38.8393 267.949C37.6416 272.563 33.3641 271.538 31.1399 268.633C28.9156 265.728 28.5734 260.772 31.4821 258.38Z" fill="white"/>
</g>
<g opacity="0.22">
<path opacity="0.22" d="M140.13 130.386C143.38 131.241 140.643 143.544 134.312 142.519C127.982 141.494 133.97 128.848 140.13 130.386Z" fill="white"/>
<path opacity="0.22" d="M118.058 158.411C120.966 158.07 121.48 166.443 116.005 167.639C110.529 168.835 112.754 159.266 118.058 158.411Z" fill="white"/>
<path opacity="0.22" d="M208.227 308.449C207.542 305.544 216.097 304.69 217.637 309.987C219.177 315.285 209.253 313.747 208.227 308.449Z" fill="white"/>
<path opacity="0.22" d="M124.046 305.886C123.362 302.297 133.799 301.101 135.681 307.937C137.563 314.772 125.415 312.38 124.046 305.886Z" fill="white"/>
<path opacity="0.22" d="M164.768 341.943C164.083 338.354 174.52 337.158 176.402 343.994C178.284 350.829 166.136 348.608 164.768 341.943Z" fill="white"/>
<path opacity="0.22" d="M483.695 119.279C488.314 118.766 492.25 129.873 485.235 131.753C478.048 133.633 476.68 119.962 483.695 119.279Z" fill="white"/>
<path opacity="0.22" d="M517.915 57.7595C521.508 55.3671 529.549 62.5443 524.758 67.1582C519.797 71.943 512.439 61.519 517.915 57.7595Z" fill="white"/>
<path opacity="0.22" d="M470.178 38.1076C473.771 35.7152 481.813 42.8924 477.022 47.5063C472.06 52.2911 464.703 41.8671 470.178 38.1076Z" fill="white"/>
<path opacity="0.22" d="M490.368 165.759C494.303 164.905 499.607 174.475 493.618 176.696C487.63 178.918 484.208 166.956 490.368 165.759Z" fill="white"/>
<path opacity="0.22" d="M499.949 92.6203C502.516 91.2532 507.135 96.5507 503.542 99.2848C499.949 101.848 496.185 94.5 499.949 92.6203Z" fill="white"/>
<path opacity="0.22" d="M125.073 245.222C126.955 243.171 132.601 249.152 129.35 253.424C126.099 257.525 121.651 248.981 125.073 245.222Z" fill="white"/>
<path opacity="0.22" d="M159.293 269.829C161.859 268.291 166.821 273.076 165.794 276.323C164.768 279.57 161.003 278.715 158.95 276.835C156.897 274.956 156.726 271.367 159.293 269.829Z" fill="white"/>
<path opacity="0.22" d="M200.869 273.93C203.436 272.392 208.398 277.177 207.371 280.424C206.345 283.671 202.58 282.816 200.527 280.937C198.474 279.057 198.303 275.639 200.869 273.93Z" fill="white"/>
<path opacity="0.22" d="M165.623 314.089C168.19 312.551 173.151 317.335 172.125 320.582C171.098 323.829 167.334 322.975 165.281 321.095C163.228 319.215 163.057 315.797 165.623 314.089Z" fill="white"/>
</g>
<g opacity="0.24">
<path opacity="0.24" d="M331.588 192.76C333.813 191.051 338.09 193.443 338.775 197.373C339.288 201.304 333.984 201.304 331.76 198.911C330.22 197.544 329.364 194.468 331.588 192.76Z" fill="white"/>
<path opacity="0.24" d="M350.923 133.291C353.66 131.24 358.793 134.146 359.477 138.759C360.162 143.373 353.66 143.373 351.094 140.639C349.554 138.93 348.356 135.171 350.923 133.291Z" fill="white"/>
<path opacity="0.24" d="M381.207 143.373C383.602 141.665 387.88 144.057 388.564 147.987C389.077 151.918 383.602 151.918 381.378 149.525C380.009 148.158 378.983 144.911 381.207 143.373Z" fill="white"/>
<path opacity="0.24" d="M422.442 195.835C424.837 194.127 429.114 196.519 429.799 200.449C430.312 204.38 424.837 204.38 422.613 201.987C421.073 200.62 420.217 197.544 422.442 195.835Z" fill="white"/>
<path opacity="0.24" d="M378.298 112.956C380.18 111.247 384.116 112.956 384.971 116.203C385.827 119.449 381.207 120.133 378.983 118.253C377.614 117.228 376.587 114.494 378.298 112.956Z" fill="white"/>
<path opacity="0.24" d="M358.793 96.3797C360.675 94.6709 364.61 96.3797 365.466 99.6266C366.321 102.873 361.702 103.557 359.478 101.677C358.109 100.481 357.082 97.9177 358.793 96.3797Z" fill="white"/>
<path opacity="0.24" d="M408.069 80.1456C409.952 78.4367 413.887 80.1456 414.742 83.3924C415.598 86.6392 410.978 87.3228 408.754 85.443C407.556 84.2468 406.359 81.6835 408.069 80.1456Z" fill="white"/>
<path opacity="0.24" d="M310.715 139.956C312.597 142.348 310.03 146.791 305.753 147.475C301.475 148.158 301.475 142.519 303.871 140.127C305.582 138.759 309.004 137.905 310.715 139.956Z" fill="white"/>
<path opacity="0.24" d="M282.141 119.278C285.734 121.329 284.536 128.165 279.746 130.899C274.784 133.804 272.046 126.797 273.928 122.696C275.126 120.304 278.89 117.399 282.141 119.278Z" fill="white"/>
<path opacity="0.24" d="M298.738 196.861C301.304 195.494 305.068 198.74 305.068 202.5C304.897 206.43 299.593 205.405 297.882 202.842C296.856 201.304 296.513 198.057 298.738 196.861Z" fill="white"/>
<path opacity="0.24" d="M293.776 173.962C296.684 173.62 299.08 177.892 297.711 181.481C296.342 185.07 291.551 182.506 290.867 179.43C290.354 177.38 291.038 174.133 293.776 173.962Z" fill="white"/>
<path opacity="0.24" d="M257.674 197.032C260.925 196.69 264.005 201.475 262.294 205.747C260.583 210.019 255.108 206.943 254.252 203.354C253.739 200.962 254.594 197.373 257.674 197.032Z" fill="white"/>
<path opacity="0.24" d="M225.679 203.867C228.758 206.772 226.363 213.608 220.888 215.487C215.413 217.367 214.215 209.335 216.782 205.747C218.835 203.354 222.941 201.304 225.679 203.867Z" fill="white"/>
<path opacity="0.24" d="M188.379 177.209C191.117 179.772 188.893 186.095 184.102 187.804C179.14 189.513 177.942 182.165 180.509 178.918C182.049 176.696 185.813 174.816 188.379 177.209Z" fill="white"/>
<path opacity="0.24" d="M215.413 242.316C212.162 243.854 207.542 240.095 207.542 235.31C207.713 230.525 214.386 231.722 216.439 234.968C217.979 236.848 218.321 240.778 215.413 242.316Z" fill="white"/>
<path opacity="0.24" d="M256.647 257.354C254.423 258.551 250.83 255.646 251.001 252.228C251.001 248.81 255.963 249.665 257.503 251.886C258.358 253.424 258.701 256.329 256.647 257.354Z" fill="white"/>
<path opacity="0.24" d="M323.718 253.082C322.691 255.475 318.243 255.475 316.019 252.741C313.794 250.006 318.072 247.614 320.809 248.297C322.691 248.81 324.745 250.861 323.718 253.082Z" fill="white"/>
<path opacity="0.24" d="M377.785 224.373C377.443 227.278 372.823 228.816 369.572 226.595C366.321 224.373 370.086 220.443 373.165 220.272C375.219 220.443 377.956 221.81 377.785 224.373Z" fill="white"/>
<path opacity="0.24" d="M243.644 136.709C246.724 138.076 246.724 143.715 243.302 146.62C239.88 149.525 236.458 144.057 237.655 140.468C238.169 138.247 240.735 135.513 243.644 136.709Z" fill="white"/>
<path opacity="0.24" d="M208.056 135.171C210.28 137.563 207.884 142.861 203.436 144.057C198.987 145.253 198.474 138.76 200.869 136.025C202.58 134.146 206.002 132.949 208.056 135.171Z" fill="white"/>
</g>
<g opacity="0.25">
<path opacity="0.25" d="M105.568 232.234C108.476 230.013 115.834 234.627 114.636 239.411C113.609 243.684 108.134 242.829 105.568 239.924C103.857 238.044 103.343 233.772 105.568 232.234Z" fill="white"/>
<path opacity="0.25" d="M100.777 333.74C103.686 331.69 110.701 335.962 109.503 340.576C108.476 344.677 103.343 343.823 100.777 341.089C99.0659 339.38 98.7237 335.278 100.777 333.74Z" fill="white"/>
<path opacity="0.25" d="M169.216 293.07C172.125 291.019 179.14 295.291 177.942 299.905C176.916 304.006 171.783 303.152 169.216 300.418C167.505 298.538 167.163 294.608 169.216 293.07Z" fill="white"/>
<path opacity="0.25" d="M133.97 344.848C136.879 342.797 143.894 347.07 142.696 351.683C141.669 355.785 136.536 354.93 133.97 352.196C132.259 350.487 131.917 346.386 133.97 344.848Z" fill="white"/>
<path opacity="0.25" d="M239.709 285.038C242.275 283.329 248.777 286.918 247.75 290.506C246.724 293.753 242.104 293.24 239.709 291.019C238.169 289.652 237.827 286.405 239.709 285.038Z" fill="white"/>
<path opacity="0.25" d="M503.713 134.487C506.28 132.778 512.781 136.367 511.755 139.956C510.728 143.203 506.109 142.69 503.713 140.468C502.173 138.93 501.831 135.684 503.713 134.487Z" fill="white"/>
<path opacity="0.25" d="M479.588 60.3228C482.839 58.2722 490.71 62.5443 489.512 67.1582C488.314 71.2595 482.497 70.4051 479.588 67.6709C477.706 65.962 477.193 61.8608 479.588 60.3228Z" fill="white"/>
<path opacity="0.25" d="M517.23 80.8291C519.625 79.2911 525.443 82.3671 524.416 85.7848C523.561 88.6899 519.283 88.1772 517.23 86.1266C515.861 84.9304 515.519 82.0253 517.23 80.8291Z" fill="white"/>
<path opacity="0.25" d="M508.333 40.8418C511.242 38.962 518.428 42.8924 517.23 46.9937C516.203 50.5823 510.899 49.8988 508.333 47.5063C506.622 45.9684 506.28 42.3797 508.333 40.8418Z" fill="white"/>
<path opacity="0.25" d="M558.294 60.1519C560.347 58.9557 565.48 61.519 564.624 64.424C563.94 66.9873 560.176 66.4747 558.294 64.7658C557.096 63.5696 556.754 61.0063 558.294 60.1519Z" fill="white"/>
<path opacity="0.25" d="M164.768 371.848C167.676 368.26 178.113 371.335 178.113 377.487C178.284 382.956 171.44 383.81 167.163 381.076C164.596 379.538 162.714 374.582 164.768 371.848Z" fill="white"/>
<path opacity="0.25" d="M84.3515 377.829C87.2601 375.266 95.3018 379.367 94.6174 384.494C93.933 389.108 88.1156 388.766 85.0358 385.861C83.1538 383.981 82.2983 379.709 84.3515 377.829Z" fill="white"/>
<path opacity="0.25" d="M50.4739 190.88C53.8959 189.513 60.0555 195.494 57.8312 199.937C55.778 203.867 50.8161 201.816 48.763 198.399C47.5653 196.177 47.9075 191.905 50.4739 190.88Z" fill="white"/>
</g>
<path d="M249.803 167.81C258.872 166.101 268.282 165.418 277.692 165.247C296.513 165.076 315.334 167.639 333.984 170.715C343.394 172.253 352.633 173.962 362.215 175.329C371.625 176.696 381.207 177.892 390.617 177.38C381.036 177.209 371.796 175.5 362.386 173.62C353.147 171.741 343.907 169.519 334.497 167.468C315.847 163.367 297.026 159.949 277.692 159.266C268.111 158.924 258.358 159.266 248.606 160.804C242.617 161.658 236.8 163.025 230.983 164.734C235.089 160.975 239.195 157.215 243.473 153.797C248.606 149.525 254.081 145.424 259.898 141.835C265.716 138.247 271.875 135.342 278.377 133.462C271.704 134.829 265.202 137.222 259.043 140.297C252.883 143.373 247.066 147.133 241.42 151.063C235.773 154.994 230.298 159.266 224.823 163.367C221.401 165.93 218.15 168.494 214.728 170.886C207.542 174.133 200.698 178.234 194.539 183.019C186.668 189 179.653 196.177 173.494 203.696C161.003 218.734 151.764 235.823 140.129 249.665C138.247 251.886 136.194 254.108 133.97 256.158C134.483 254.62 134.825 253.253 135.168 251.715C137.221 244.025 138.247 236.335 139.616 228.816C139.958 226.937 140.472 225.228 140.814 223.348C141.327 221.639 141.669 219.76 142.354 218.051C143.038 216.342 143.551 214.462 144.407 212.924L145.605 210.361C146.118 209.506 146.631 208.823 147.144 207.968C151.251 201.646 156.897 196.348 162.714 191.392C156.213 195.494 149.882 200.108 144.92 206.259C139.958 212.411 136.536 219.93 134.654 227.62C132.601 235.139 131.061 242.658 128.495 249.665C126.099 255.987 123.02 261.968 119.255 267.437C111.385 272.563 103.685 278.032 96.1572 283.842C88.4577 289.994 81.2716 296.658 74.5988 303.835C73.0589 305.715 71.1768 307.424 69.6369 309.475L65.0173 315.285C62.1086 319.386 59.1999 323.316 56.8046 327.759C54.067 332.032 52.0138 336.475 49.7895 340.918L46.8809 347.753C46.3676 348.949 45.8543 349.975 45.5121 351.171L44.3144 354.76C42.4323 359.886 41.0635 365.013 39.8658 370.139C41.7479 371.848 43.4589 373.728 44.9988 375.778C46.7098 378.171 48.934 380.051 51.3294 381.589C52.6982 373.899 54.4092 366.38 56.9757 359.032L58.0022 355.785C58.3444 354.76 58.8578 353.734 59.2 352.709L61.7664 346.386C63.8196 342.285 65.5306 338.184 67.9259 334.253C70.1502 330.323 72.7167 326.563 75.2832 322.804L79.3895 317.335C80.7583 315.456 82.2982 313.918 83.8381 312.209C89.8265 305.373 96.4994 299.051 103.686 293.241C110.872 287.43 118.4 281.962 126.27 276.665L129.179 274.614L132.259 272.392C134.312 270.854 136.365 269.316 138.247 267.437C142.012 264.019 145.433 260.259 148.513 256.329C149.369 255.133 150.395 253.937 151.251 252.74C152.277 251.715 153.475 250.861 154.502 249.835C160.661 244.709 166.992 239.924 173.836 235.823C180.68 231.892 188.037 228.646 195.736 226.595C203.436 224.544 211.477 224.032 219.69 224.715C211.82 222.665 203.436 222.152 195.052 223.348C186.839 224.544 178.798 227.278 171.269 230.867C168.532 232.234 165.794 233.772 163.057 235.31C163.741 234.285 164.425 233.089 165.11 232.063C170.243 224.032 175.205 216.171 181.022 208.994C183.759 205.405 186.839 201.816 189.919 198.57C190.775 197.715 191.63 196.861 192.485 196.006C194.539 194.639 196.763 193.614 199.329 192.759C202.922 191.563 206.858 190.88 210.793 190.538C218.664 189.684 226.876 189.342 234.918 189.171C243.131 189 251.172 189 259.385 188.829C267.598 188.658 275.639 188.316 283.852 187.633C275.639 187.633 267.598 187.291 259.385 186.778C251.172 186.266 243.131 185.753 234.918 185.24C226.705 184.728 218.492 184.215 210.109 184.557C208.569 184.557 207.029 184.728 205.66 184.899C211.135 181.139 216.953 177.892 223.112 175.158C231.667 172.253 240.735 169.519 249.803 167.81Z" fill="#BF4600"/>
<path opacity="0.63" d="M172.125 233.43C168.19 235.139 164.425 237.19 160.661 239.241C158.608 240.437 156.726 241.633 154.844 242.829C159.806 236.165 164.425 229.329 168.874 222.323C170.756 219.418 172.638 216.684 174.52 213.778C176.573 211.044 178.455 208.139 180.68 205.576C184.786 200.278 189.577 195.323 194.539 190.709C199.501 186.095 205.147 182.165 210.964 178.747C216.781 175.329 223.112 172.595 229.614 170.373C242.617 166.101 256.305 163.88 269.993 163.025C256.305 163.367 242.446 164.905 228.929 168.835C227.218 169.348 225.679 169.861 223.968 170.544L221.572 171.399C220.717 171.741 220.032 172.082 219.177 172.424C217.637 173.108 215.926 173.791 214.386 174.475L209.766 176.867C203.607 180.285 197.79 184.044 192.485 188.658C187.181 193.272 182.22 198.057 177.771 203.525C175.376 206.089 173.494 208.994 171.269 211.728C169.216 214.633 167.163 217.367 165.281 220.272C157.41 231.551 149.369 242.658 140.301 252.741C137.221 256.158 134.141 259.234 130.719 262.31C130.89 261.797 131.232 261.285 131.403 260.601C133.457 255.646 134.825 250.519 135.852 245.222C136.365 242.658 136.707 239.924 136.879 237.361C137.05 234.797 137.392 232.234 137.734 229.671C138.59 224.544 139.958 219.589 142.354 214.975C139.103 219.247 137.05 224.203 135.681 229.329C134.996 231.892 134.483 234.627 134.141 237.19C133.799 239.753 133.285 242.316 132.601 244.709C131.403 249.665 129.864 254.62 127.81 259.234C126.442 262.652 124.731 265.899 123.02 269.146C118.742 272.734 114.294 276.152 109.503 279.399C103.857 283.329 98.2103 286.918 92.393 291.361C86.9179 295.804 81.6138 300.76 76.9942 306.057C67.7548 316.652 59.8843 328.614 53.8959 341.26C50.8161 347.582 48.2496 354.076 46.0254 360.911C44.6566 365.013 43.63 369.285 42.6034 373.557C43.4589 374.582 44.3144 375.608 45.1699 376.633C46.3676 378.342 47.7363 379.538 49.1051 380.734C49.9606 374.753 51.5005 368.943 53.2115 363.133C55.2647 356.81 57.66 350.487 60.5687 344.335C66.215 332.203 73.5722 320.753 82.2982 310.5C86.7468 305.373 91.5375 300.76 96.4993 296.487C101.632 292.557 107.621 288.627 113.096 284.354C124.217 276.152 134.996 266.924 144.065 256.158C144.236 255.987 144.236 255.816 144.407 255.646C146.973 253.595 149.369 251.544 151.935 249.665C155.186 247.101 158.608 244.538 162.03 242.146C165.452 239.753 169.045 237.361 172.638 235.31C176.231 233.26 179.995 231.209 183.931 229.5C180.166 230.354 176.06 231.722 172.125 233.43Z" fill="#FF9636"/>
<defs>
<linearGradient id="paint0_linear_3106:499788" x1="37.4023" y1="317.044" x2="576.071" y2="32.8221" gradientUnits="userSpaceOnUse">
<stop offset="9.49155e-08" stop-color="#CF6A00"/>
<stop offset="0.1332" stop-color="#DE8700"/>
<stop offset="0.2753" stop-color="#EB9E00"/>
<stop offset="0.4086" stop-color="#F2AC00"/>
<stop offset="0.5229" stop-color="#F5B100"/>
<stop offset="0.5971" stop-color="#F1AB00"/>
<stop offset="0.6924" stop-color="#E59B00"/>
<stop offset="0.7992" stop-color="#D28100"/>
<stop offset="0.9135" stop-color="#B85D00"/>
<stop offset="0.9534" stop-color="#AD4E00"/>
</linearGradient>
</defs>
</svg>
