<svg width="290" height="265" viewBox="0 0 290 265" fill="none" xmlns="http://www.w3.org/2000/svg">
<path d="M285.797 262.413C282.225 250.456 269.336 209.133 251.193 181.095C241.176 165.573 231.159 159.35 216.87 159.839C216.729 158.091 216.449 156.413 216.169 154.665C211.686 127.606 193.964 110.685 181.075 100.266C175.191 95.5818 168.116 91.4564 160.2 87.9604C150.744 47.0567 181.425 17.1306 200.548 2.93665C201.249 2.37728 201.389 1.39839 200.899 0.69918C200.338 -2.80552e-05 199.357 -0.13987 198.657 0.349576C179.254 14.7533 148.292 44.8892 156.558 86.4221C114.459 69.3615 49.8744 67.5435 1.33092 77.2625C0.420295 77.4723 -0.140091 78.3113 0.0700542 79.1504C0.280199 80.0593 1.12078 80.6187 1.96136 80.409C60.6618 68.6622 142.969 73.8364 179.043 102.784C209.374 127.046 237.324 166.132 184.017 252.974C183.527 253.743 183.807 254.722 184.577 255.211C184.857 255.351 185.138 255.421 185.418 255.421C185.978 255.421 186.469 255.141 186.819 254.652C208.744 218.922 218.691 188.786 217.15 162.985C230.039 162.636 239.215 168.369 248.461 182.773C266.394 210.462 279.213 251.365 282.715 263.252C282.925 263.951 283.556 264.441 284.256 264.441C284.396 264.441 284.536 264.441 284.746 264.371C285.517 264.161 286.007 263.252 285.797 262.413Z" fill="#691E00"/>
<path d="M82.2367 73.7665L77.1232 63.8377L63.0435 63.6279L57.5097 73.4169L62.7633 82.7862L76.913 82.996L82.2367 73.7665Z" fill="url(#paint0_radial_2470:375202)"/>
<path d="M54.4976 73.3469L48.5435 63.8377L34.4638 64.8166L29.8406 75.095L35.8647 83.9749L49.9444 82.9261L54.4976 73.3469Z" fill="url(#paint1_radial_2470:375202)"/>
<path d="M27.529 75.2349L20.9444 66.1451L7.00483 68.1029L3.08212 78.661L9.66666 87.1214L23.6763 85.1636L27.529 75.2349Z" fill="url(#paint2_radial_2470:375202)"/>
<path d="M165.314 91.876L164.263 80.7586L151.164 75.4446L142.408 82.5765L143.879 93.2045L156.978 98.5184L165.314 91.876Z" fill="url(#paint3_radial_2470:375202)"/>
<path d="M137.575 81.5976L134.493 70.8298L120.693 67.8931L113.408 76.4934L116.7 86.7018L130.5 89.5686L137.575 81.5976Z" fill="url(#paint4_radial_2470:375202)"/>
<path d="M109.766 76.1438L105.563 65.7955L91.5531 64.3271L85.1787 73.6965L89.5918 83.4155L103.671 84.8839L109.766 76.1438Z" fill="url(#paint5_radial_2470:375202)"/>
<path d="M196.696 3.84564L186.118 0.139832L175.751 9.78891L178.623 20.6966L188.85 23.843L199.217 14.1939L196.696 3.84564Z" fill="url(#paint6_radial_2470:375202)"/>
<path d="M175.751 24.0528L164.543 23.2836L157.118 35.31L162.792 45.029L173.51 45.3786L180.935 33.3522L175.751 24.0528Z" fill="url(#paint7_radial_2470:375202)"/>
<path d="M161.111 49.504L150.394 52.8602L147.802 66.7045L156.628 73.7665L166.715 70.2005L169.307 56.3562L161.111 49.504Z" fill="url(#paint8_radial_2470:375202)"/>
<path d="M215.258 162.146L223.734 154.805L220.442 141.1L209.585 138.164L201.739 145.505L205.031 159.28L215.258 162.146Z" fill="url(#paint9_radial_2470:375202)"/>
<path d="M207.483 133.479L212.527 123.48L204.331 112.013L193.123 113.412L188.71 123.201L196.906 134.668L207.483 133.479Z" fill="url(#paint10_radial_2470:375202)"/>
<path d="M188.64 109.426L190.461 98.3786L179.254 89.8483L168.957 94.463L167.556 105.161L178.833 113.691L188.64 109.426Z" fill="url(#paint11_radial_2470:375202)"/>
<path d="M188.78 248.359H199.988L206.643 235.913L200.408 226.543L189.691 226.893L183.036 239.339L188.78 248.359Z" fill="url(#paint12_radial_2470:375202)"/>
<path d="M203.14 220.46L214.278 219.202L219.321 206.057L212.036 197.456L201.389 199.135L196.345 212.28L203.14 220.46Z" fill="url(#paint13_radial_2470:375202)"/>
<path d="M212.807 191.933L223.314 187.947L224.995 173.963L215.819 167.46L205.942 171.656L204.191 185.64L212.807 191.933Z" fill="url(#paint14_radial_2470:375202)"/>
<path d="M246.57 176.76L248.461 165.712L237.324 157.112L227.027 161.657L225.556 172.285L236.763 180.885L246.57 176.76Z" fill="url(#paint15_radial_2470:375202)"/>
<path d="M281.944 256.19L289.79 248.219L285.447 234.794L274.379 232.766L267.164 240.668L271.507 254.092L281.944 256.19Z" fill="url(#paint16_radial_2470:375202)"/>
<path d="M271.787 228.082L279.002 219.551L273.679 206.476L262.471 205.288L255.886 213.748L261.21 226.823L271.787 228.082Z" fill="url(#paint17_radial_2470:375202)"/>
<path d="M260.44 201.792L266.604 192.422L259.809 180.116L248.531 180.186L242.998 189.346L249.792 201.722L260.44 201.792Z" fill="url(#paint18_radial_2470:375202)"/>
<defs>
<radialGradient id="paint0_radial_2470:375202" cx="0" cy="0" r="1" gradientUnits="userSpaceOnUse" gradientTransform="translate(66.8961 71.3192) scale(11.7069 11.6856)">
<stop stop-color="#FF8787"/>
<stop offset="1" stop-color="#941700"/>
</radialGradient>
<radialGradient id="paint1_radial_2470:375202" cx="0" cy="0" r="1" gradientUnits="userSpaceOnUse" gradientTransform="translate(38.5266 71.1444) scale(10.904 10.8842)">
<stop stop-color="#FF8787"/>
<stop offset="1" stop-color="#941700"/>
</radialGradient>
<radialGradient id="paint2_radial_2470:375202" cx="0" cy="0" r="1" gradientUnits="userSpaceOnUse" gradientTransform="translate(12.3752 74.5823) scale(10.5486 10.5295)">
<stop stop-color="#FF8787"/>
<stop offset="1" stop-color="#941700"/>
</radialGradient>
<radialGradient id="paint3_radial_2470:375202" cx="0" cy="0" r="1" gradientUnits="userSpaceOnUse" gradientTransform="translate(151.606 86.6457) scale(9.33064 9.31366)">
<stop stop-color="#FF8787"/>
<stop offset="1" stop-color="#941700"/>
</radialGradient>
<radialGradient id="paint4_radial_2470:375202" cx="0" cy="0" r="1" gradientUnits="userSpaceOnUse" gradientTransform="translate(122.844 79.4566) scale(11.4941 11.4732)">
<stop stop-color="#FF8787"/>
<stop offset="1" stop-color="#941700"/>
</radialGradient>
<radialGradient id="paint5_radial_2470:375202" cx="0" cy="0" r="1" gradientUnits="userSpaceOnUse" gradientTransform="translate(93.4627 73.0421) scale(11.3309 11.3103)">
<stop stop-color="#FF8787"/>
<stop offset="1" stop-color="#941700"/>
</radialGradient>
<radialGradient id="paint6_radial_2470:375202" cx="0" cy="0" r="1" gradientUnits="userSpaceOnUse" gradientTransform="translate(184.336 12.8673) scale(9.9587 9.94058)">
<stop stop-color="#FF8787"/>
<stop offset="1" stop-color="#941700"/>
</radialGradient>
<radialGradient id="paint7_radial_2470:375202" cx="0" cy="0" r="1" gradientUnits="userSpaceOnUse" gradientTransform="translate(167.968 33.4547) scale(9.82103 9.80318)">
<stop stop-color="#FF8787"/>
<stop offset="1" stop-color="#941700"/>
</radialGradient>
<radialGradient id="paint8_radial_2470:375202" cx="0" cy="0" r="1" gradientUnits="userSpaceOnUse" gradientTransform="translate(156.107 61.6659) scale(8.80046 8.78443)">
<stop stop-color="#FF8787"/>
<stop offset="1" stop-color="#941700"/>
</radialGradient>
<radialGradient id="paint9_radial_2470:375202" cx="0" cy="0" r="1" gradientUnits="userSpaceOnUse" gradientTransform="translate(210.99 150.761) scale(9.15699 9.14033)">
<stop stop-color="#FF8787"/>
<stop offset="1" stop-color="#941700"/>
</radialGradient>
<radialGradient id="paint10_radial_2470:375202" cx="0" cy="0" r="1" gradientUnits="userSpaceOnUse" gradientTransform="translate(197.634 122.29) scale(8.62561 8.60991)">
<stop stop-color="#FF8787"/>
<stop offset="1" stop-color="#941700"/>
</radialGradient>
<radialGradient id="paint11_radial_2470:375202" cx="0" cy="0" r="1" gradientUnits="userSpaceOnUse" gradientTransform="translate(176.925 101.588) scale(10.3578 10.339)">
<stop stop-color="#FF8787"/>
<stop offset="1" stop-color="#941700"/>
</radialGradient>
<radialGradient id="paint12_radial_2470:375202" cx="0" cy="0" r="1" gradientUnits="userSpaceOnUse" gradientTransform="translate(190.654 235.246) scale(10.7756 10.756)">
<stop stop-color="#FF8787"/>
<stop offset="1" stop-color="#941700"/>
</radialGradient>
<radialGradient id="paint13_radial_2470:375202" cx="0" cy="0" r="1" gradientUnits="userSpaceOnUse" gradientTransform="translate(204.341 208.625) scale(10.2419 10.2233)">
<stop stop-color="#FF8787"/>
<stop offset="1" stop-color="#941700"/>
</radialGradient>
<radialGradient id="paint14_radial_2470:375202" cx="0" cy="0" r="1" gradientUnits="userSpaceOnUse" gradientTransform="translate(209.702 179.36) scale(10.0549 10.0366)">
<stop stop-color="#FF8787"/>
<stop offset="1" stop-color="#941700"/>
</radialGradient>
<radialGradient id="paint15_radial_2470:375202" cx="0" cy="0" r="1" gradientUnits="userSpaceOnUse" gradientTransform="translate(234.932 168.66) scale(8.68725 8.67144)">
<stop stop-color="#FF8787"/>
<stop offset="1" stop-color="#941700"/>
</radialGradient>
<radialGradient id="paint16_radial_2470:375202" cx="0" cy="0" r="1" gradientUnits="userSpaceOnUse" gradientTransform="translate(277.787 242.909) scale(10.5217 10.5026)">
<stop stop-color="#FF8787"/>
<stop offset="1" stop-color="#941700"/>
</radialGradient>
<radialGradient id="paint17_radial_2470:375202" cx="0" cy="0" r="1" gradientUnits="userSpaceOnUse" gradientTransform="translate(265.698 216.172) scale(9.07609 9.05958)">
<stop stop-color="#FF8787"/>
<stop offset="1" stop-color="#941700"/>
</radialGradient>
<radialGradient id="paint18_radial_2470:375202" cx="0" cy="0" r="1" gradientUnits="userSpaceOnUse" gradientTransform="translate(252.688 189.725) scale(9.30382 9.28689)">
<stop stop-color="#FF8787"/>
<stop offset="1" stop-color="#941700"/>
</radialGradient>
</defs>
</svg>
