<svg width="313" height="388" viewBox="0 0 313 388" fill="none" xmlns="http://www.w3.org/2000/svg">
<g clip-path="url(#clip0_3300:577257)">
<path d="M71.3025 209.808C71.5015 205.528 75.3822 189.699 82.447 176.658C90.4074 162.025 99.3629 155.753 99.8604 150.776C101.054 139.527 99.3629 135.346 95.1837 128.776C94.1886 125.491 84.8352 130.169 80.1584 121.708C73.3921 109.563 82.8451 103.789 81.253 101.101C74.7852 89.5535 77.0738 90.1508 66.4267 82.0874C62.347 78.9018 50.1079 86.2684 40.456 81.0919C32.197 76.7117 32.6946 66.2591 28.8139 64.7659C20.6545 61.5804 9.90793 68.4492 1.15149 67.6528C1.15149 67.6528 7.71882 -0.438377 148.12 2.84672C155.882 5.93273 170.011 3.74266 176.38 8.42145C186.629 15.8876 183.644 23.8515 189.912 27.4352C198.37 34.6027 202.749 39.4806 219.366 50.5305C222.451 53.5169 237.177 51.6255 246.332 60.5849C255.884 69.9424 250.312 84.9743 252.8 88.0603C262.651 104.784 263.944 110.956 274.492 128.776C279.865 142.115 293.398 151.97 302.652 177.256C316.085 213.89 309.219 238.279 309.915 265.157" fill="#DC9576"/>
<path d="M12.1965 44.1594C35.6797 50.5305 81.7505 70.8384 98.0693 108.567C117.771 154.26 95.1837 203.736 95.1837 203.736L274.79 199.356C274.79 199.356 275.188 188.405 270.412 160.233C265.636 132.061 238.57 81.1915 221.057 62.5759C205.833 46.3495 156.976 14.9917 133.095 2.94629C59.1629 3.84223 26.5252 26.0416 12.1965 44.1594Z" fill="url(#paint0_linear_3300:577257)"/>
<path d="M203.246 114.54C242.352 112.45 260.76 115.934 274.591 128.975C267.327 114.441 259.168 97.816 252.899 87.6621C193.594 69.8429 118.965 83.6801 95.1837 128.577C97.4723 133.156 100.258 142.314 99.9599 150.378C127.622 123.201 151.305 117.328 203.246 114.54Z" fill="#993B3A"/>
<path d="M124.04 121.011C141.155 109.662 160.857 101.898 181.256 100.006C191.505 99.1102 201.754 99.0106 212.003 99.7075C222.252 100.404 232.401 101.997 242.352 104.486C250.61 106.576 258.67 109.264 266.531 112.649C266.332 112.251 266.133 111.952 265.934 111.554C258.372 108.169 250.61 105.481 242.65 103.391C232.6 100.803 222.351 99.2097 212.102 98.5129C201.754 97.816 191.505 98.0151 181.156 99.0106C160.558 101.002 140.757 108.866 123.742 120.414C115.184 126.187 107.224 132.857 99.96 140.124C99.7609 140.323 99.4624 140.622 99.2634 140.821C99.2634 140.921 99.2634 141.12 99.3629 141.219C99.6615 140.921 99.96 140.622 100.258 140.323C107.423 133.255 115.383 126.685 124.04 121.011Z" fill="#871816"/>
<path d="M127.423 121.11C135.881 115.635 144.936 111.056 154.489 107.771C164.041 104.585 173.992 102.495 184.042 101.997C189.116 101.599 194.092 101.798 199.166 102.097C204.142 102.594 209.216 103.192 214.092 104.187C219.067 105.183 224.043 106.078 228.918 107.273C231.406 107.87 233.894 108.368 236.282 109.065L243.546 111.155C244.74 111.454 245.834 111.852 247.028 112.25C253.496 114.042 259.864 116.033 266.034 118.522C266.432 118.721 266.83 118.821 267.228 119.02C259.665 115.536 251.705 112.649 243.745 110.16L236.381 108.069C233.993 107.373 231.406 106.875 229.018 106.278C224.142 104.983 219.067 104.187 214.092 103.192C209.117 102.196 204.042 101.599 198.967 101.201C193.893 101.002 188.818 100.802 183.743 101.201C173.594 101.798 163.544 103.888 153.991 107.174C144.439 110.558 135.284 115.137 126.826 120.712C116.776 127.382 107.622 135.246 99.3629 144.006C99.3629 144.106 99.3629 144.206 99.3629 144.405C108.119 135.644 117.274 127.78 127.423 121.11Z" fill="#871816"/>
<path d="M265.934 119.119C265.835 119.119 265.735 119.02 265.636 119.02C267.327 119.717 269.019 120.513 270.71 121.31C270.611 121.21 270.611 121.011 270.511 120.911C269.019 120.214 267.427 119.717 265.934 119.119Z" fill="#871816"/>
<path d="M250.61 100.703C248.023 100.205 245.536 99.7075 242.949 99.2097C249.814 101.201 256.481 103.49 263.049 106.278C262.85 105.979 262.75 105.68 262.551 105.382C261.854 105.083 261.257 104.784 260.561 104.486C257.377 103.092 253.994 101.798 250.61 100.703Z" fill="#871816"/>
<path d="M120.657 112.649C136.677 101.698 155.384 94.6305 174.688 92.4404L181.952 91.8431C184.34 91.644 186.828 91.7436 189.216 91.644C191.604 91.5445 194.092 91.644 196.48 91.7436C198.868 91.8431 201.356 91.8431 203.744 92.1418C213.296 92.8386 222.749 94.2323 232.103 96.4224L232.799 96.5219C236.282 97.0196 239.665 97.6169 243.148 98.2142C239.665 97.2187 236.282 96.2233 232.7 95.4269C223.147 93.2368 213.495 91.7436 203.744 91.0467C201.356 90.8476 198.868 90.7481 196.38 90.7481C193.893 90.6485 191.505 90.549 189.017 90.6485C186.529 90.7481 184.141 90.7481 181.654 90.8476L174.39 91.4449C154.986 93.8341 136.18 101.002 120.159 112.151C111.602 117.925 103.741 124.694 96.5768 132.061C96.5768 132.16 96.6763 132.26 96.6763 132.359C104.139 125.092 112.1 118.423 120.657 112.649Z" fill="#871816"/>
<path d="M243.148 98.3137C245.635 99.1101 248.123 99.9065 250.61 100.703C253.894 101.4 257.277 102.196 260.561 103.092L261.556 103.391C261.456 103.092 261.257 102.793 261.158 102.594L260.76 102.495C254.989 100.703 249.118 99.4088 243.148 98.3137Z" fill="#871816"/>
<path d="M123.145 114.839C127.025 112.151 131.205 109.762 135.384 107.671C139.563 105.481 143.941 103.59 148.419 101.997C152.897 100.404 157.374 99.0106 162.051 98.0151C164.34 97.4178 166.728 97.0196 169.016 96.6215C170.21 96.4224 171.405 96.2233 172.499 96.1237C173.693 95.9246 174.788 95.7255 175.982 95.626C178.37 95.4269 180.658 95.1282 183.047 95.0287L186.629 94.8296H190.211C192.599 94.73 194.987 94.9291 197.276 94.9291L204.341 95.1282L211.406 95.5264L214.988 95.7255L218.57 96.0242L225.635 96.721L232.7 97.6169C236.182 98.1147 239.565 98.6124 243.048 99.2097C239.565 98.2142 236.083 97.3183 232.6 96.5219C232.501 96.5219 232.302 96.4224 232.202 96.4224L225.834 95.626L218.769 94.9291L215.187 94.6305L211.605 94.4314L204.44 94.0332L197.276 93.9336C194.888 93.9336 192.5 93.8341 190.111 93.9336L186.529 94.0332L182.947 94.2323C180.559 94.3318 178.171 94.6305 175.783 94.8296C174.589 94.9291 173.395 95.1282 172.201 95.3273C171.007 95.5264 169.812 95.626 168.718 95.9246C166.33 96.4224 164.041 96.8206 161.753 97.4178C157.076 98.5129 152.499 99.9066 148.12 101.499C143.643 103.092 139.264 105.083 135.085 107.273C130.807 109.463 126.727 111.852 122.846 114.54C114.985 119.916 107.721 126.088 101.055 132.857C100.059 133.853 99.0644 134.948 98.0694 136.043C98.0694 136.142 98.1689 136.242 98.1689 136.341C99.2635 135.246 100.259 134.151 101.353 133.156C107.92 126.287 115.284 120.115 123.145 114.839Z" fill="#871816"/>
<path d="M99.2634 122.106C105.333 115.336 112.1 109.264 119.562 104.088C123.244 101.499 127.125 99.2096 131.205 97.1191C135.185 95.0286 139.364 93.2367 143.643 91.7435C152.101 88.6575 161.056 86.7661 170.011 85.7706C171.106 85.5715 172.3 85.4719 173.395 85.4719L175.484 85.2728C178.171 84.7751 180.857 84.2773 183.544 83.8792C178.967 84.0782 174.39 84.3769 169.812 84.8746C160.757 85.9697 151.802 87.9606 143.245 91.1462C138.966 92.739 134.787 94.5308 130.806 96.6214C126.826 98.7119 122.846 101.101 119.164 103.689C112.398 108.468 106.129 114.142 100.557 120.214C99.96 121.011 99.4624 121.708 98.9649 122.504C99.0644 122.404 99.1639 122.305 99.2634 122.106Z" fill="#871816"/>
<path d="M224.341 85.0738C213.396 83.8792 202.45 83.481 191.505 83.6801C188.32 83.9788 185.136 84.4765 181.952 84.9743C182.549 84.9743 183.047 84.9742 183.644 84.8747C185.932 84.7751 188.121 84.6756 190.41 84.6756H197.176C199.465 84.6756 201.754 84.7751 203.943 84.7751C206.231 84.8747 208.52 84.8747 210.709 85.0738C215.187 85.3724 219.764 85.6711 224.242 86.1688C234.491 87.1643 244.839 88.7571 254.889 91.0467C254.69 90.7481 254.591 90.549 254.392 90.2503C253.297 89.9517 252.203 89.7526 251.207 89.4539C242.352 87.463 233.297 86.0693 224.341 85.0738Z" fill="#871816"/>
<path d="M125.533 125.192C133.593 119.717 142.25 115.038 151.404 111.653C160.558 108.269 170.111 106.278 179.862 105.879C189.614 105.282 199.365 105.581 209.017 106.477C218.769 107.373 228.321 108.866 237.874 111.056C247.227 113.047 256.581 115.735 265.636 119.02C259.566 116.432 253.397 114.242 247.128 112.251C244.143 111.454 241.158 110.658 238.073 109.961C228.52 107.87 218.868 106.278 209.117 105.382C199.365 104.585 189.514 104.386 179.763 104.984C170.011 105.481 160.26 107.572 151.106 111.056C141.951 114.54 133.294 119.219 125.234 124.794C117.174 130.368 109.612 136.64 102.647 143.509C101.652 144.405 100.756 145.4 99.8605 146.296C99.8605 146.396 99.8605 146.595 99.8605 146.694C100.856 145.699 101.851 144.703 102.846 143.708C109.91 136.939 117.473 130.667 125.533 125.192Z" fill="#871816"/>
<path d="M270.213 120.214C270.213 120.115 270.113 120.115 270.113 120.015C269.218 119.617 268.322 119.318 267.427 118.92C268.322 119.318 269.317 119.816 270.213 120.214Z" fill="#871816"/>
<path d="M267.427 118.92C267.029 118.721 266.631 118.622 266.233 118.423C259.964 116.033 253.596 113.943 247.227 112.151C253.496 114.142 259.665 116.332 265.735 118.92C265.835 118.92 265.934 119.02 266.034 119.02C267.526 119.617 269.019 120.115 270.511 120.812C270.412 120.613 270.312 120.414 270.213 120.214C269.317 119.816 268.322 119.318 267.427 118.92Z" fill="#871816"/>
<path d="M183.544 83.8792C186.131 83.7797 188.818 83.6801 191.405 83.6801C200.559 82.6847 209.714 82.386 218.868 82.5851C224.441 82.6846 230.013 83.0828 235.585 83.5806C233.894 83.2819 232.302 82.9833 230.61 82.6847C226.729 82.386 222.849 82.0874 218.868 81.9878C207.127 81.5896 195.286 82.1869 183.544 83.8792Z" fill="#871816"/>
<path d="M118.169 109.065C125.533 104.187 133.294 100.106 141.354 96.6215C149.414 93.1373 157.772 90.2504 166.33 88.0603C171.405 86.7662 176.579 85.6711 181.753 84.8748C180.061 84.9743 178.37 84.9743 176.579 85.0738L175.285 85.1734C172.201 85.7707 169.116 86.4675 166.031 87.1644C157.474 89.2549 149.016 92.0422 140.856 95.5264C132.697 99.0106 124.836 103.192 117.473 108.07C110.607 112.748 104.139 117.925 98.0694 123.599C97.5718 124.396 97.0743 125.192 96.5768 125.889L97.2733 125.192C103.94 119.418 110.806 113.943 118.169 109.065Z" fill="#871816"/>
<path d="M243.148 98.3139C239.665 97.617 236.282 97.1193 232.799 96.6215L232.103 96.522C232.202 96.522 232.401 96.6215 232.501 96.6215C235.983 97.4179 239.466 98.3139 242.949 99.3093C245.536 99.7075 248.023 100.205 250.61 100.803C248.123 99.8071 245.635 99.0107 243.148 98.3139Z" fill="#871816"/>
<path d="M183.544 83.8793C180.857 84.2775 178.171 84.6757 175.484 85.2729L176.778 85.1734C178.469 85.0739 180.161 84.9743 181.952 84.9743C185.136 84.4766 188.32 84.0784 191.504 83.6802C188.818 83.6802 186.231 83.7797 183.544 83.8793Z" fill="#871816"/>
<path d="M219.963 51.0282C206.53 41.0734 202.549 36.5937 190.31 27.6343C137.871 14.9917 96.2782 31.8154 66.6257 82.1869C73.0936 87.2639 74.9842 89.7526 81.452 101.4C98.3678 69.3452 160.757 35.1005 219.963 51.0282Z" fill="#993B3A"/>
<path d="M104.239 39.9784C109.512 36.5938 114.985 33.6073 120.557 31.019C114.786 33.4082 109.214 36.4942 103.94 40.1775C104.139 40.078 104.139 39.9784 104.239 39.9784Z" fill="#993B3A"/>
<path d="M93.2931 72.3317C101.154 64.8655 109.811 58.594 118.965 53.7161C128.12 48.9378 137.871 45.6527 147.822 44.1594C152.797 43.2635 157.872 43.1639 162.847 43.0644C167.922 43.1639 172.897 43.5621 177.972 44.3585C183.047 45.1549 188.022 45.7522 193.097 46.9468C193.296 46.9468 193.495 47.0463 193.694 47.0463C196.778 47.1459 199.863 47.4445 202.948 47.7432L200.659 47.1459C198.171 46.449 195.584 46.0509 193.097 45.5531C188.022 44.4581 183.047 43.7612 177.972 42.9649C172.897 42.1685 167.822 41.8698 162.748 41.7703C157.673 41.8698 152.598 42.0689 147.523 43.0644C137.473 44.5576 127.722 48.0418 118.468 52.8202C109.214 57.698 100.656 64.0691 92.7955 71.6348C86.5267 77.6077 80.7555 84.2775 75.4817 91.445C75.5812 91.5445 75.6807 91.6441 75.6807 91.8432C81.253 84.8748 87.0243 78.205 93.2931 72.3317Z" fill="#871816"/>
<path d="M137.473 33.209L144.638 31.9149C147.026 31.5167 149.513 31.4172 151.901 31.1185C154.29 30.8199 156.777 30.7203 159.165 30.6208C161.553 30.5212 164.041 30.4217 166.429 30.5212C175.982 30.5212 185.634 31.5167 195.087 33.4081L195.783 33.5077C196.579 33.6072 197.375 33.7068 198.171 33.8063C197.574 33.3086 196.977 32.9104 196.38 32.4126C196.082 32.3131 195.883 32.3131 195.584 32.2135C185.833 30.2226 176.081 29.2271 166.33 29.2271C163.842 29.1275 161.454 29.3266 158.966 29.4262C156.479 29.5257 154.091 29.6253 151.702 29.9239C149.314 30.2226 146.827 30.4217 144.439 30.8199L137.175 32.2135C118.07 36.6932 100.059 47.0463 85.2331 61.9786C78.8648 68.3497 72.8945 75.4176 67.4218 82.8837C67.5213 82.9833 67.6208 83.0828 67.7203 83.1824C73.193 75.7163 79.1633 68.7479 85.5317 62.4763C100.557 47.7431 118.468 37.5892 137.473 33.209Z" fill="#871816"/>
<path d="M88.4173 64.965C92.099 61.3813 95.8802 58.0962 99.8604 55.1097C103.841 52.1233 107.92 49.4355 112.298 47.1458C116.577 44.7567 120.955 42.7657 125.433 41.0734C127.622 40.1774 129.911 39.4806 132.199 38.7838C133.294 38.3856 134.488 38.1865 135.682 37.8878C136.876 37.5892 137.971 37.2905 139.165 36.9919C141.453 36.4941 143.842 35.9964 146.13 35.6978L149.613 35.2L153.195 34.9014C155.583 34.6027 157.872 34.6027 160.26 34.4036L167.325 34.0054L174.489 33.9059H178.071L181.653 34.0054L188.818 34.2045L195.982 34.7023C197.375 34.8018 198.868 35.0009 200.261 35.1005C199.863 34.8018 199.365 34.4036 198.967 34.105C197.873 33.9059 196.778 33.6072 195.684 33.4081C195.584 33.4081 195.385 33.3086 195.286 33.3086L188.818 32.8108L181.653 32.6118L178.071 32.5122H174.489L167.325 32.6118L160.16 33.0099C157.772 33.209 155.384 33.209 152.996 33.5077L149.414 33.9059L145.832 34.5032C143.444 34.8018 141.155 35.3991 138.767 35.8969C137.573 36.096 136.478 36.4941 135.284 36.7928C134.09 37.0914 132.996 37.3901 131.801 37.7883C129.513 38.5847 127.224 39.2815 124.936 40.1774C120.458 41.8698 115.98 43.9603 111.701 46.3495C107.423 48.7386 103.244 51.526 99.2633 54.5124C95.2831 57.4989 91.4024 60.8835 87.8203 64.4673C81.4519 70.7388 75.5812 77.8068 70.2079 85.3725C70.3074 85.472 70.4069 85.5716 70.5064 85.6711C76.1782 78.205 82.049 71.2366 88.4173 64.965Z" fill="#871816"/>
<path d="M173.196 46.25C163.345 46.0509 153.593 46.6482 143.941 48.2409C134.19 49.6346 124.737 53.0193 115.98 57.9967C107.224 62.9741 99.0643 69.5443 91.6015 76.9109C86.4272 82.0874 81.5515 87.6621 76.9742 93.5355C77.0737 93.6351 77.1733 93.8342 77.1733 93.9337C81.7505 88.0604 86.7257 82.4856 91.9 77.4087C99.3629 70.0421 107.522 63.671 116.279 58.6935C125.035 53.8157 134.389 50.5306 144.041 49.2364C153.693 47.7432 163.444 47.2455 173.196 47.5441C173.992 47.5441 174.788 47.6436 175.584 47.6436C178.867 47.345 182.25 47.0464 185.634 47.0464C181.454 46.6482 177.375 46.3495 173.196 46.25Z" fill="#871816"/>
<path d="M128.816 28.6298C130.806 27.8334 132.796 27.1366 134.787 26.3402C129.911 27.5348 125.234 29.028 120.657 31.019C115.085 33.6073 109.612 36.5937 104.338 39.9784C104.239 40.0779 104.139 40.0779 104.04 40.1775C98.3678 44.0598 92.895 48.6391 87.8203 54.0147C93.293 49.2364 98.9648 45.0553 104.836 41.2725C112.497 36.096 120.557 32.0145 128.816 28.6298Z" fill="#871816"/>
<path d="M195.883 33.4081L195.186 33.3086C195.286 33.3086 195.485 33.4081 195.584 33.4081C196.679 33.6072 197.773 33.8063 198.868 34.105C198.669 34.0054 198.47 33.8063 198.37 33.7068C197.475 33.6072 196.679 33.5077 195.883 33.4081Z" fill="#871816"/>
<path d="M1.15149 67.6529C10.1069 68.4493 20.953 61.5804 29.1124 64.8655C33.5901 40.8743 46.0282 23.5529 72.7951 9.81519C5.1317 26.5393 1.15149 67.6529 1.15149 67.6529Z" fill="#993B3A"/>
<path d="M10.0074 55.0101L8.71382 58.2952L7.42026 61.7794C6.92273 62.974 6.62421 64.1686 6.22619 65.3632L5.52966 67.4537C5.72867 67.4537 5.92768 67.3541 6.22619 67.3541C6.82322 65.7614 7.32076 64.069 7.81828 62.3767L10.0074 55.0101Z" fill="#993B3A"/>
<path d="M14.2861 41.6707C14.4851 41.4716 14.6841 41.173 14.8832 40.9739C14.6841 41.173 14.4851 41.4716 14.2861 41.6707Z" fill="#993B3A"/>
<path d="M38.5654 32.2135C42.3465 26.7383 46.5258 21.5618 51.0035 16.7834C50.4065 16.9825 49.9089 17.2812 49.4114 17.4803C45.4312 21.96 41.65 26.7383 38.1673 31.7157C31.8985 40.8742 26.5253 50.9286 22.0475 61.5803C21.6495 62.4762 21.351 63.2726 21.0525 64.1685C21.152 64.1685 21.351 64.1685 21.4505 64.1685C21.749 63.3722 22.0475 62.5758 22.4456 61.8789C26.8238 51.2272 32.197 41.2724 38.5654 32.2135Z" fill="#871816"/>
<path d="M55.7797 14.8921C55.1827 15.0912 54.5857 15.2903 53.9886 15.5889C49.4114 20.2677 45.2322 25.4442 41.3515 30.9194C34.3862 40.9738 28.6149 52.1232 23.7391 63.9695C23.8386 63.9695 23.9381 63.9695 24.1371 63.9695C29.0129 52.3223 34.7842 41.2725 41.7495 31.4172C46.0282 25.3447 50.705 19.8695 55.7797 14.8921Z" fill="#871816"/>
<path d="M29.0129 28.5303C28.8139 28.7294 28.5154 28.8289 28.3163 29.028C28.5154 28.9285 28.8139 28.7294 29.0129 28.5303Z" fill="#871816"/>
<path d="M28.3163 29.028C28.1173 29.1275 28.0178 29.227 27.8188 29.3266C20.953 40.7747 15.3807 53.2182 10.8035 66.3587C10.903 66.3587 11.0025 66.3587 11.102 66.2591C15.8782 52.8201 21.749 39.9783 29.0129 28.4307C28.8139 28.7293 28.5153 28.9284 28.3163 29.028Z" fill="#871816"/>
<path d="M35.5802 25.1456C35.8787 24.6479 36.2768 24.2497 36.5753 23.752C36.1773 24.0506 35.6797 24.2497 35.2817 24.5483C35.2817 24.6479 35.1822 24.6479 35.1822 24.7474C29.4109 33.2091 24.5352 42.5666 20.4555 52.4219C18.6644 56.7025 16.9728 60.9831 15.3807 65.3632C15.4802 65.3632 15.5797 65.3632 15.6792 65.2637C17.2713 60.9831 18.9629 56.8021 20.754 52.621C24.9332 42.8653 29.8089 33.5077 35.5802 25.1456Z" fill="#871816"/>
<path d="M13.5896 44.7567C13.9876 43.4626 14.4852 42.268 14.8832 40.9739C14.6842 41.173 14.4852 41.4716 14.2861 41.6707C13.5896 43.7612 12.8931 45.8518 12.1965 47.9423C12.5946 46.8472 13.0921 45.7522 13.5896 44.7567Z" fill="#871816"/>
<path d="M4.03711 65.3632L4.13661 65.4627C6.12671 58.8925 8.41533 52.4219 10.8035 46.0508C10.6044 46.3494 10.4054 46.6481 10.2064 46.9467C8.01731 52.9196 5.9277 59.0916 4.03711 65.3632Z" fill="#871816"/>
<path d="M25.9282 64.0691C26.0277 64.0691 26.2267 64.0691 26.3262 64.1687C28.4158 59.4899 30.7045 55.0102 33.0926 50.6301C33.5901 49.2364 34.1871 47.8427 34.7842 46.5486C31.5005 52.0238 28.6149 57.8971 25.9282 64.0691Z" fill="#871816"/>
<path d="M45.7297 29.6252C47.2223 27.9329 48.8144 26.3401 50.6055 24.7473C54.0882 20.7654 57.7698 16.9826 61.6505 13.5979C62.148 13.1997 62.5461 12.8015 63.0436 12.4033C62.4466 12.6024 61.8495 12.8015 61.153 13.0006C61.0535 13.0006 60.954 13.1002 60.8545 13.1002C55.3817 17.978 50.4065 23.5528 45.7297 29.6252Z" fill="#871816"/>
<path d="M11.5 51.4265L14.4851 44.6572C15.5797 42.3676 16.7737 40.0779 17.9678 37.7883C17.2713 38.4852 16.5747 39.2816 15.8782 39.9784C15.1817 41.3721 14.4851 42.7658 13.8881 44.1594C13.7886 44.3585 13.6891 44.5576 13.6891 44.7567C12.7936 47.2454 11.9975 49.7342 11.2015 52.3224L11.5 51.4265Z" fill="#871816"/>
<path d="M10.0074 54.9107L10.704 53.0192L11.102 52.1233C11.898 49.6346 12.6941 47.0463 13.5896 44.5576C13.0921 45.6527 12.6941 46.6481 12.1965 47.7432C11.4005 50.2319 10.704 52.621 10.0074 54.9107Z" fill="#871816"/>
<path d="M7.42032 61.8789L8.71388 58.3947L10.0074 55.1096V55.0101C10.704 52.6209 11.4005 50.3313 12.097 47.9421C9.41041 54.2137 7.2213 60.7839 5.2312 67.5532C5.33071 67.5532 5.43021 67.5532 5.52972 67.5532L6.22625 65.4627C6.62427 64.2681 6.92279 62.974 7.42032 61.8789Z" fill="#871816"/>
<path d="M10.2064 55.1097C10.5049 54.2138 10.8034 53.2183 11.102 52.3224L10.7039 53.2183L10.0074 55.0102L9.9079 55.2093L7.71879 62.5759C7.22126 64.2682 6.72374 65.861 6.12671 67.5533C6.22621 67.5533 6.22622 67.5533 6.32572 67.5533C6.92275 65.9605 7.42028 64.3678 7.9178 62.775L10.2064 55.1097Z" fill="#871816"/>
<path d="M64.3371 222.351C80.7554 188.803 142.249 140.025 225.635 160.93C309.02 181.835 334.294 266.252 287.029 334.343C239.764 402.435 131.403 394.172 88.4173 359.629C48.9138 327.773 39.0629 274.017 64.3371 222.351Z" fill="#FFAE91"/>
<path d="M64.3371 222.351C80.7554 188.803 142.249 140.025 225.635 160.93C309.02 181.835 334.294 266.252 287.029 334.343C239.764 402.435 131.403 394.172 88.4173 359.629C48.9138 327.773 39.0629 274.017 64.3371 222.351Z" stroke="#C46C4C" stroke-width="3" stroke-miterlimit="10"/>
<path d="M72.6955 225.835C87.9198 194.776 144.936 149.482 222.351 168.794C299.766 188.107 323.149 266.551 279.367 329.665C235.585 392.778 134.886 385.213 95.0841 353.158C58.4663 323.592 49.3119 273.718 72.6955 225.835Z" stroke="#B55527" stroke-width="3" stroke-miterlimit="10"/>
<path d="M72.6955 225.835C87.9198 194.776 144.936 149.482 222.351 168.794C299.766 188.107 323.149 266.551 279.367 329.665C235.585 392.778 134.886 385.213 95.0841 353.158C58.4663 323.592 49.3119 273.718 72.6955 225.835Z" fill="#FFD5BF"/>
<path d="M72.6955 225.835C87.9198 194.776 144.936 149.482 222.351 168.794C299.766 188.107 323.149 266.551 279.367 329.665C235.585 392.778 134.886 385.213 95.0841 353.158C58.4663 323.592 49.3119 273.718 72.6955 225.835Z" fill="url(#paint1_radial_3300:577257)"/>
<path d="M74.4866 236.686C78.8648 226.632 85.0341 217.374 92.298 209.111C99.5618 200.849 108.02 193.582 117.274 187.609C126.528 181.636 136.677 177.057 147.125 173.871C152.399 172.278 157.772 171.084 163.145 170.287C168.618 169.491 174.091 169.192 179.564 169.192C190.509 169.292 201.554 170.487 212.201 173.075C222.948 175.563 233.396 179.346 243.048 184.523C252.799 189.6 261.854 196.17 269.516 204.134C277.178 212.098 283.347 221.455 287.427 231.609L287.328 231.709C282.85 221.754 276.482 212.695 268.72 205.03C261.058 197.365 252.003 190.994 242.351 185.917C223.047 175.862 201.256 170.686 179.464 170.088C168.519 169.69 157.573 171.084 147.125 174.369C136.677 177.554 126.826 182.631 117.771 188.604C113.194 191.591 108.915 194.876 104.736 198.46C100.557 201.944 96.6762 205.826 92.9945 209.808C85.6311 217.872 79.2628 226.831 74.4866 236.686Z" fill="#821B10"/>
<path d="M244.342 180.64C246.63 181.735 248.819 183.03 251.008 184.423C253.197 185.817 255.287 187.31 257.277 188.803C261.357 191.889 265.238 195.274 268.82 198.957C272.402 202.641 275.785 206.523 278.77 210.604C281.855 214.686 284.542 219.066 286.93 223.645C291.706 232.804 294.691 242.659 296.184 252.813C297.577 262.967 297.278 273.32 295.487 283.374C292.004 303.483 282.75 322.895 268.422 337.728C261.357 345.194 253.197 351.565 244.441 356.841C235.585 362.018 226.132 366.099 216.281 368.688V368.588C226.033 365.602 235.287 361.221 243.944 355.945C252.6 350.57 260.461 344.199 267.427 336.832C270.909 333.149 274.094 329.167 276.979 325.085C279.964 321.004 282.551 316.624 284.84 312.044C287.129 307.465 289.119 302.886 290.711 298.008C292.303 293.23 293.696 288.352 294.691 283.275C296.781 273.32 297.179 262.967 295.686 252.913C294.89 247.935 293.696 242.958 292.004 238.179C290.313 233.401 288.223 228.722 285.835 224.243C281.059 215.283 274.989 207.12 267.924 199.754C264.442 196.07 260.76 192.586 256.78 189.401C252.799 186.215 248.72 183.229 244.242 180.74L244.342 180.64Z" fill="#821B10"/>
<path d="M291.905 258.587C292.9 271.03 291.507 283.673 287.626 295.619C285.636 301.592 283.049 307.266 280.064 312.741C277.079 318.216 273.696 323.493 269.914 328.47C262.352 338.425 252.799 346.886 242.351 353.656C237.078 357.04 231.605 360.126 225.933 362.715C223.147 364.108 220.261 365.203 217.376 366.398C215.983 366.995 214.49 367.493 212.997 367.991L208.619 369.584L208.52 369.484C219.963 364.706 231.107 359.131 241.456 352.362L245.237 349.773C245.834 349.375 246.531 348.877 247.128 348.38L249.018 346.986L250.909 345.592C251.506 345.095 252.103 344.597 252.7 344.099C253.894 343.104 255.088 342.208 256.282 341.113C260.959 337.031 265.238 332.651 269.317 327.873C273.298 323.094 276.78 317.918 279.666 312.443C282.551 306.968 284.741 301.094 286.532 295.221C290.114 283.374 291.805 271.03 291.805 258.587H291.905Z" fill="#821B10"/>
<path d="M179.166 176.658C189.216 176.957 199.166 178.649 209.017 180.939C218.769 183.328 228.421 186.514 237.476 190.993C242.053 193.184 246.431 195.672 250.61 198.46C254.79 201.247 258.77 204.333 262.551 207.718C270.014 214.487 276.283 222.65 280.163 232.007C282.054 236.686 283.447 241.564 284.243 246.641C284.94 251.618 285.238 256.695 285.139 261.772C284.84 271.926 282.949 281.981 279.765 291.537C276.581 301.094 272.103 310.253 266.929 318.814C261.655 327.375 255.586 335.538 248.521 342.705L248.421 342.606C251.804 338.923 254.79 334.941 257.775 330.859C260.66 326.778 263.347 322.597 265.934 318.216C271.009 309.556 275.188 300.497 278.372 291.04C278.77 289.845 279.168 288.651 279.467 287.456L280.462 283.872C281.059 281.483 281.656 278.994 282.054 276.605C282.949 271.727 283.646 266.75 283.745 261.772C283.944 256.795 283.745 251.818 283.148 246.84C282.452 241.962 281.258 237.084 279.566 232.406L278.074 228.921L276.382 225.636C275.785 224.541 275.089 223.446 274.491 222.451C273.894 221.356 273.098 220.36 272.402 219.365C269.516 215.283 266.133 211.6 262.352 208.315C254.889 201.645 246.133 196.568 237.078 192.387C232.6 190.297 227.923 188.405 223.147 186.812C218.47 185.12 213.694 183.726 208.818 182.432C199.166 179.944 189.315 178.052 179.265 177.156L179.166 176.658Z" fill="#821B10"/>
<path d="M260.76 201.546C264.143 204.134 267.327 207.021 270.312 210.107L272.501 212.496C273.198 213.292 273.895 214.188 274.492 214.985C275.885 216.677 276.979 218.469 278.173 220.261C278.77 221.157 279.268 222.152 279.765 223.048L281.258 225.935L282.551 228.922C282.95 229.917 283.447 230.912 283.746 231.908C284.144 232.903 284.442 233.899 284.84 234.894L285.437 236.388L285.736 237.184L285.935 237.98C286.432 240.071 287.129 242.062 287.626 244.152C288.024 246.243 288.522 248.333 288.82 250.424L289.417 256.795C289.517 257.89 289.517 258.985 289.517 259.981V263.166C289.517 264.261 289.517 265.356 289.517 266.352L289.218 269.537C288.522 278.098 286.432 286.461 283.845 294.524H283.746C285.338 286.162 287.129 277.899 287.626 269.438C288.323 261.076 288.323 252.514 286.83 244.152C286.731 243.655 286.631 243.157 286.532 242.56L286.134 240.967C285.935 239.971 285.636 238.876 285.437 237.881C284.84 235.79 284.044 233.899 283.348 231.908C282.552 229.917 281.556 228.125 280.561 226.234L278.87 223.546C278.273 222.65 277.775 221.754 277.178 220.858C275.984 219.166 274.79 217.374 273.497 215.682C272.8 214.885 272.203 213.989 271.506 213.193L269.417 210.804C266.631 207.618 263.646 204.632 260.66 201.546H260.76Z" fill="#821B10"/>
<path d="M232.898 175.265C225.933 173.075 218.968 171.382 211.903 169.79L206.629 168.595C204.838 168.296 203.047 167.998 201.256 167.699C199.465 167.5 197.674 167.301 195.883 167.201C194.092 167.002 192.3 167.102 190.41 167.002C183.146 166.903 175.882 167.102 168.718 167.799C161.553 168.495 154.389 169.591 147.424 171.482L147.324 171.382C154.091 168.595 161.255 167.002 168.519 166.206C172.2 165.808 175.783 165.708 179.464 165.708C183.146 165.708 186.728 165.907 190.41 166.206L195.883 166.704C197.674 166.903 199.465 167.102 201.355 167.301C203.146 167.5 204.938 167.699 206.828 167.898L212.201 168.695C219.366 169.989 226.431 172.079 232.998 175.165L232.898 175.265Z" fill="#821B10"/>
<path d="M239.366 188.505C230.809 184.523 221.953 181.138 212.798 178.849C203.644 176.459 194.291 175.165 184.838 174.966C175.385 174.667 165.932 175.464 156.678 177.554C147.424 179.645 138.568 183.129 130.11 187.211C121.652 191.491 113.891 196.966 107.224 203.537C100.457 210.107 94.7856 217.672 90.0094 225.736C85.3326 233.899 81.5515 242.56 78.8648 251.618C77.4718 256.098 76.3772 260.677 75.5812 265.356C74.7851 270.035 74.0886 274.714 74.0886 279.492H73.9891C73.8896 277.103 73.9891 274.714 74.0886 272.325C74.1881 269.935 74.4866 267.546 74.8846 265.257C75.5812 260.578 76.5762 255.899 77.8698 251.32C80.4569 242.161 84.0391 233.202 88.8153 224.94C98.1688 208.315 112.597 194.478 129.911 186.414C138.568 182.532 147.523 179.247 156.777 176.957C159.066 176.459 161.454 176.061 163.743 175.563C164.34 175.464 164.937 175.265 165.534 175.165L167.325 174.966L170.907 174.468C173.295 174.07 175.683 173.971 177.972 173.871C179.166 173.772 180.36 173.672 181.554 173.672H185.136C204.241 173.871 223.047 179.346 239.764 188.405L239.366 188.505Z" fill="#821B10"/>
<path d="M97.8703 206.921C92.099 213.591 87.3228 220.858 83.1436 228.623C82.1485 230.514 81.1535 232.505 80.1584 234.397C79.2629 236.388 78.3673 238.378 77.4718 240.369C76.7752 242.46 76.0787 244.55 75.3822 246.641C74.7851 248.732 74.2876 250.922 73.7901 253.012L72.596 259.483C72.198 261.673 71.999 263.863 71.7005 265.953C71.203 270.334 70.9044 274.614 70.9044 278.994C70.8049 287.755 71.601 296.415 73.0936 305.076H72.9941C70.5064 296.614 69.3124 287.755 69.3124 278.895C69.4119 270.035 70.6059 261.175 72.9941 252.713C73.5911 250.623 74.2876 248.532 74.8846 246.342C75.5812 244.252 76.3772 242.161 77.0738 240.071C77.8698 237.98 78.6658 235.989 79.4619 233.899C80.3574 231.908 81.1535 229.817 82.1485 227.826C84.1386 223.844 86.4272 220.062 89.0143 216.478L91.0044 213.79L93.1936 211.301L94.2881 210.007C94.6861 209.609 95.0842 209.211 95.4822 208.813C96.2782 208.016 97.0743 207.22 97.8703 206.523V206.921Z" fill="#821B10"/>
<path d="M111.303 189.003C104.935 193.98 98.6663 199.156 92.9945 204.731L90.8054 206.822L88.7158 209.012L86.6262 211.202C85.9297 211.998 85.3327 212.795 84.7356 213.591C84.1386 214.387 83.4421 215.184 82.845 215.98L81.1534 218.568C80.5564 219.464 80.0589 220.261 79.5614 221.157L78.1683 223.745C77.6708 224.641 77.1733 225.537 76.7752 226.433L75.4817 229.22C74.5861 231.012 73.8896 232.903 73.0935 234.795C71.601 238.578 70.4069 242.361 69.2128 246.243C66.9242 254.008 65.3322 261.872 63.7401 269.836H63.6406C64.2376 261.772 65.6307 253.709 67.7203 245.845C69.9094 237.98 73.0935 230.415 77.3723 223.446L78.9643 220.858L80.6559 218.369L82.3475 215.881C82.9445 215.084 83.5416 214.288 84.1386 213.491L85.9297 211.003L87.8203 208.614L89.7109 206.224L91.8005 203.935C97.4723 198.061 103.94 193.084 110.905 188.903L111.303 189.003Z" fill="#821B10"/>
<path d="M89.0143 239.175C90.1089 235.492 91.9 232.007 93.9896 228.722C95.9797 225.437 98.2683 222.252 100.756 219.265C105.731 213.292 111.204 207.817 117.473 203.138C120.557 200.849 123.742 198.659 127.125 196.767C130.508 194.776 133.891 193.084 137.473 191.491C140.956 189.898 144.638 188.604 148.319 187.41C152.001 186.215 155.782 185.319 159.563 184.622C167.126 183.229 174.987 182.93 182.648 183.627C190.31 184.125 198.072 185.22 205.535 187.011C213.097 188.803 220.46 191.292 227.426 194.677C234.292 198.161 241.058 202.242 246.232 208.016L246.133 208.116C243.446 205.328 240.262 203.138 237.078 201.147C233.894 199.057 230.411 197.365 226.928 195.772C219.963 192.586 212.599 190.297 205.236 188.505C197.773 186.812 190.211 185.518 182.549 185.021C174.887 184.224 167.225 184.324 159.663 185.419C152.1 186.613 144.638 188.704 137.672 191.989C135.881 192.785 134.19 193.681 132.498 194.577C130.806 195.573 129.115 196.469 127.523 197.564C125.931 198.559 124.339 199.654 122.747 200.749C121.254 201.844 119.662 203.039 118.169 204.233C115.184 206.623 112.299 209.111 109.512 211.799C106.726 214.387 104.139 217.175 101.651 220.161C99.1639 223.048 96.7757 226.134 94.6861 229.32C92.5965 232.505 90.6064 235.79 89.2134 239.374L89.0143 239.175Z" fill="#821B10"/>
<path d="M105.831 221.256C103.443 225.139 101.353 229.121 99.4623 233.202C97.6712 237.383 95.8801 241.564 94.4871 245.845C94.0891 246.94 93.691 247.935 93.3925 249.03L92.497 252.315C91.8004 254.505 91.4024 256.695 90.9049 258.886C90.4074 261.076 90.2084 263.365 89.9099 265.655L89.7108 267.347C89.6113 267.944 89.6113 268.442 89.6113 269.039L89.5118 272.424C89.4123 274.714 89.5118 277.003 89.6113 279.193C89.6113 280.288 89.6113 281.483 89.7108 282.578L90.0094 285.963C90.2084 288.252 90.3079 290.442 90.7059 292.732C91.1039 294.922 91.3029 297.212 91.7009 299.402C93.1935 308.361 95.5816 317.121 98.1688 325.782L98.0693 325.882C97.2732 323.791 96.3777 321.601 95.5816 319.511C95.1836 318.416 94.7856 317.42 94.3876 316.325L93.3925 313.04L92.3975 309.755C92.099 308.66 91.7009 307.565 91.5019 306.47L90.1089 299.8C88.6163 290.741 88.0193 281.583 88.7158 272.424C88.9148 270.134 89.0143 267.845 89.4123 265.655L89.9099 262.27C90.0094 261.175 90.2084 259.981 90.4074 258.886C90.8054 256.596 91.1039 254.406 91.6014 252.116L92.298 248.732C92.5965 247.637 92.895 246.541 93.1935 245.446C93.492 244.351 93.7906 243.256 94.1886 242.161L95.3826 238.976L95.9797 237.383L96.6762 235.79L98.1688 232.704C100.358 228.623 102.646 224.74 105.532 221.157L105.831 221.256Z" fill="#821B10"/>
<path d="M95.3826 231.709C94.3876 234.496 93.293 237.184 92.3975 239.971C91.5019 242.759 90.6064 245.546 89.7108 248.333C89.2133 249.727 88.8153 251.121 88.4173 252.514L87.8202 254.605C87.6212 255.302 87.5217 255.999 87.3227 256.795L86.9247 258.985C86.8252 259.682 86.7257 260.478 86.6262 261.175C86.4272 262.668 86.2282 264.062 86.1287 265.555L85.9297 267.745L85.8301 269.935C85.7306 271.429 85.6311 272.822 85.6311 274.316C85.5316 275.809 85.5316 277.203 85.5316 278.696C85.5316 280.189 85.4321 281.583 85.5316 283.076C85.5316 288.949 85.8301 294.723 86.1287 300.696H86.0291C84.7356 294.922 84.0391 289.049 83.9396 283.076C83.84 280.089 84.0391 277.203 84.2381 274.216C84.3376 272.723 84.4371 271.23 84.6361 269.836C84.7356 268.343 85.0341 266.949 85.2331 265.456L85.6311 263.266C85.7306 262.569 85.9296 261.772 86.0291 261.076L86.4272 258.886L86.8252 256.696C87.0242 255.202 87.3227 253.809 87.6212 252.315C87.8202 250.822 88.2183 249.428 88.5168 247.935C88.8153 246.442 89.3128 245.048 89.7108 243.655C90.1089 242.261 90.7059 240.867 91.2034 239.474C91.5019 238.777 91.8004 238.08 92.099 237.483L92.9945 235.492C93.691 234.198 94.3876 232.903 95.0841 231.609L95.3826 231.709Z" fill="#821B10"/>
<path d="M82.447 253.41C81.651 257.392 81.1534 261.275 80.6559 265.257L80.4569 268.243C80.3574 269.239 80.2579 270.234 80.2579 271.23C80.1584 273.221 79.9594 275.212 79.9594 277.202C79.8599 279.193 79.6609 281.184 79.7604 283.175C79.7604 285.166 79.6609 287.157 79.8599 289.148C80.0589 293.13 80.5564 297.112 81.2529 301.094C82.646 308.958 84.7356 316.723 87.4222 324.189C90.1089 331.656 93.5915 338.923 97.6712 345.791L97.5717 345.891C92.5965 339.52 88.8153 332.352 85.9297 324.787L84.9346 321.9L84.4371 320.506L84.0391 319.013C83.5415 317.022 82.9445 315.13 82.447 313.139L81.2529 307.167C80.9544 305.176 80.6559 303.185 80.4569 301.194C80.0589 297.212 79.6609 293.13 79.3623 289.148C79.0638 285.166 78.7653 281.085 78.7653 277.103C78.8648 269.04 79.8599 260.877 82.447 253.211V253.41Z" fill="#821B10"/>
<path d="M97.7708 218.469C103.244 209.509 111.005 202.043 119.761 196.17C124.14 193.283 128.816 190.794 133.593 188.704C138.468 186.613 143.444 185.021 148.618 183.826C153.693 182.631 158.966 181.935 164.141 181.536C169.414 181.138 174.589 181.039 179.862 181.337C182.449 181.337 185.037 181.735 187.723 181.835L191.604 182.233C192.897 182.333 194.191 182.532 195.485 182.731C198.072 183.129 200.659 183.428 203.246 183.925C204.54 184.125 205.833 184.324 207.127 184.622L210.908 185.518C221.057 187.907 231.107 191.69 239.963 197.464C248.919 203.039 256.68 210.604 262.451 219.365C268.422 228.125 272.402 238.08 274.79 248.234C277.178 258.487 278.074 269.039 277.178 279.492H277.079C277.377 274.316 277.079 269.039 276.482 263.863C275.885 258.686 274.989 253.51 273.695 248.532C272.402 243.456 270.71 238.578 268.621 233.799C266.531 229.021 264.044 224.442 261.158 220.161C258.272 215.881 254.989 211.899 251.207 208.315C247.526 204.731 243.545 201.346 239.167 198.659C237.078 197.165 234.69 195.971 232.5 194.677C231.406 193.98 230.212 193.482 229.018 192.984C227.824 192.487 226.729 191.79 225.535 191.392L221.953 189.998L220.162 189.301L218.271 188.704C215.784 187.907 213.296 187.011 210.808 186.514L207.027 185.518C205.734 185.22 204.44 185.021 203.246 184.722C201.952 184.523 200.659 184.224 199.365 184.025L195.485 183.428C194.191 183.229 192.897 183.03 191.604 182.93L187.723 182.532C185.136 182.333 182.549 182.134 179.962 182.134C174.788 181.935 169.514 182.134 164.34 182.631C163.046 182.83 161.752 182.83 160.459 183.129L156.578 183.726L152.797 184.523C151.503 184.722 150.309 185.12 149.016 185.419C138.966 187.907 129.214 191.889 120.458 197.564C116.08 200.351 112 203.537 108.219 207.12C104.438 210.704 100.955 214.586 98.0693 218.967L97.7708 218.469Z" fill="#821B10"/>
<path d="M251.804 202.541C254.392 204.034 256.68 206.025 258.869 208.016L260.461 209.609C260.959 210.107 261.456 210.704 261.954 211.301C262.949 212.396 263.845 213.591 264.74 214.786C266.531 217.175 268.024 219.763 269.516 222.351C271.009 224.94 272.501 227.428 273.895 230.116C276.681 235.392 278.671 241.066 279.964 246.84C281.158 252.714 281.556 258.687 281.258 264.56H281.059C280.462 258.687 279.666 252.813 278.372 247.139C277.676 244.352 277.079 241.465 276.084 238.677L275.387 236.587L274.591 234.496C274.094 233.103 273.596 231.709 272.999 230.415C271.904 227.727 270.511 225.039 269.019 222.55C267.427 220.062 265.636 217.772 263.745 215.482C260.063 210.903 256.083 206.623 251.705 202.641L251.804 202.541Z" fill="#821B10"/>
<path d="M112.398 212.695C115.085 209.908 117.97 207.319 121.154 205.03C122.746 203.835 124.339 202.84 126.03 201.745L128.518 200.251C129.314 199.754 130.209 199.256 131.105 198.858C134.588 197.165 138.269 195.772 141.851 194.478C145.533 193.184 149.215 191.989 152.896 190.894C154.787 190.396 156.678 189.998 158.568 189.5C160.459 189.202 162.449 188.903 164.34 188.604L165.832 188.405L167.325 188.306L170.21 188.107L173.096 187.907C174.091 187.907 175.086 187.907 175.982 187.907C177.972 188.007 179.862 188.007 181.852 188.107L187.624 188.803C188.619 188.903 189.514 189.003 190.509 189.202L193.395 189.799C195.286 190.197 197.176 190.595 199.067 191.093V191.193C197.176 190.993 195.186 190.794 193.295 190.496L190.41 190.098C189.415 189.998 188.519 189.998 187.524 189.898L181.753 189.5L175.982 189.401C168.32 189.401 160.658 189.998 153.095 191.491C149.314 192.288 145.633 193.283 142.05 194.677C140.259 195.274 138.468 196.17 136.777 197.066C134.986 197.862 133.393 198.858 131.702 199.754C130.01 200.65 128.418 201.645 126.727 202.641L124.339 204.134C123.543 204.632 122.746 205.129 121.95 205.727C118.766 207.817 115.682 210.206 112.696 212.595L112.398 212.695Z" fill="#821B10"/>
<path d="M103.642 334.443C107.224 337.628 111.104 340.416 114.985 343.104C118.965 345.791 123.045 348.181 127.224 350.57C131.403 352.959 135.583 355.149 140.06 357.04C144.439 358.932 149.016 360.326 153.693 361.52C162.946 363.81 172.499 365.104 181.952 365.104C186.728 365.104 191.504 364.805 196.181 364.208C200.957 363.611 205.634 362.615 210.211 361.421V361.52C205.734 363.113 201.057 364.407 196.281 365.303C191.504 366.099 186.728 366.597 181.852 366.597C176.977 366.597 172.2 366.199 167.424 365.502C162.648 364.805 157.971 363.71 153.295 362.217C148.717 360.823 144.14 359.131 139.662 357.339C135.185 355.547 130.707 353.755 126.428 351.466C122.149 349.276 118.07 346.687 114.189 343.9C110.308 341.013 106.527 338.027 103.343 334.343L103.642 334.443Z" fill="#821B10"/>
<path d="M88.4173 309.556C90.8054 317.221 93.89 324.588 97.9697 331.456C100.059 334.841 102.248 338.226 104.836 341.212C106.229 342.705 107.522 344.199 109.015 345.493C109.811 346.19 110.507 346.787 111.303 347.484L112.398 348.479L113.592 349.375C115.284 350.47 116.876 351.665 118.567 352.76L123.742 355.846C125.433 356.841 127.324 357.638 129.115 358.534C130.01 358.932 130.906 359.43 131.801 359.828L134.588 360.923L137.374 362.117C138.269 362.516 139.165 362.914 140.16 363.212L145.832 365.203C147.722 365.9 149.613 366.398 151.603 366.995C153.494 367.493 155.484 368.09 157.374 368.688V368.787C149.513 367.393 141.553 365.602 134.09 362.416L131.304 361.221C130.408 360.823 129.513 360.326 128.617 359.828C126.826 358.832 125.035 357.936 123.244 356.941L118.169 353.656C117.274 353.158 116.577 352.461 115.781 351.864L113.393 349.972C110.308 347.384 107.423 344.597 104.637 341.61L103.542 340.515C103.244 340.117 102.945 339.719 102.547 339.321L100.557 337.031C99.8603 336.235 99.2633 335.438 98.6663 334.642L96.8752 332.153C94.6861 328.769 92.7955 325.085 91.4024 321.302C90.0093 317.52 88.9148 313.637 88.2183 309.655L88.4173 309.556Z" fill="#821B10"/>
<path d="M182.151 369.982C184.937 369.583 187.624 369.384 190.31 368.887C192.997 368.488 195.684 367.991 198.37 367.593C201.057 367.194 203.744 366.697 206.43 366.099C207.724 365.701 209.017 365.303 210.41 364.905C211.704 364.407 212.997 363.909 214.291 363.411C215.585 362.914 216.779 362.316 218.072 361.719C219.366 361.221 220.56 360.525 221.754 360.027C223.047 359.43 224.242 358.832 225.436 358.235C226.63 357.638 227.824 356.941 229.018 356.344C233.794 353.755 238.471 350.968 243.147 347.882L243.247 347.981C239.167 351.764 234.69 354.95 229.814 357.638C227.426 359.031 224.839 360.126 222.351 361.321C221.057 361.819 219.764 362.416 218.47 362.814C217.177 363.312 215.883 363.71 214.59 364.108L210.609 365.303C209.316 365.701 207.923 366.099 206.629 366.497C205.336 366.896 204.042 367.294 202.649 367.692C201.355 368.09 199.962 368.488 198.669 368.787C195.982 369.384 193.196 369.783 190.509 369.982C187.723 370.28 184.937 370.28 182.25 370.081L182.151 369.982Z" fill="#821B10"/>
<path d="M221.953 356.045C225.635 353.954 229.316 351.963 232.699 349.674C236.182 347.384 239.466 344.895 242.65 342.208C245.834 339.52 248.819 336.633 251.506 333.348C254.093 330.063 256.382 326.579 258.272 322.796C260.163 319.112 261.755 315.23 263.148 311.348C264.541 307.465 265.636 303.384 266.631 299.402C268.621 291.338 269.815 283.076 270.611 274.714H270.71C270.81 283.076 270.014 291.537 268.123 299.8C266.133 307.963 263.148 316.026 258.869 323.293C256.78 326.977 254.392 330.361 251.804 333.746C249.217 337.031 246.531 340.316 243.446 343.203C237.277 348.977 229.714 353.158 221.953 356.244V356.045Z" fill="#821B10"/>
<path d="M257.576 220.958C261.158 226.632 264.442 232.406 266.929 238.578C267.526 240.17 268.024 241.763 268.621 243.256L269.317 245.646C269.516 246.442 269.815 247.238 270.014 248.035C270.909 251.22 271.904 254.406 272.7 257.691C273.497 260.976 274.094 264.261 274.492 267.546C274.591 269.239 274.79 270.831 274.89 272.524C274.989 274.216 274.989 275.908 274.989 277.501C274.89 284.171 273.994 290.841 272.402 297.311H272.302C272.899 290.641 273.397 284.071 273.397 277.501C273.397 270.931 272.899 264.361 271.904 257.79C271.407 254.505 270.611 251.32 269.516 248.134C269.019 246.541 268.322 245.048 267.725 243.455L265.735 238.976C263.048 232.903 260.063 227.03 257.377 220.958H257.576Z" fill="#821B10"/>
<path d="M215.485 193.781C219.067 194.776 222.55 196.07 225.834 197.564C227.525 198.36 229.117 199.156 230.709 200.152C231.505 200.65 232.301 201.147 233.098 201.546C233.894 202.043 234.59 202.641 235.386 203.138C236.879 204.233 238.272 205.428 239.665 206.623C241.058 207.817 242.351 209.211 243.645 210.405C245.038 211.6 246.232 212.994 247.526 214.387C248.123 215.084 248.819 215.681 249.416 216.378L251.207 218.469C252.401 219.862 253.596 221.256 254.591 222.849C255.586 224.342 256.78 225.835 257.675 227.428L260.362 232.306C260.561 232.704 260.859 233.102 261.058 233.501L261.655 234.795L262.75 237.383L263.845 239.971C264.243 240.768 264.541 241.664 264.84 242.56L266.531 247.836L266.929 249.13C267.029 249.528 267.128 250.026 267.228 250.523L267.825 253.211C268.223 255.003 268.621 256.795 268.919 258.587H268.82C268.223 256.795 267.626 255.103 267.128 253.311C266.531 251.519 266.133 249.827 265.437 248.134C264.143 244.75 262.949 241.265 261.357 237.98L260.262 235.691L259.665 234.397L259.068 233.202L256.481 228.324C256.083 227.528 255.486 226.731 255.088 226.034L253.596 223.745L252.899 222.55C252.7 222.152 252.401 221.754 252.103 221.455L250.511 219.265L248.919 217.075C248.322 216.378 247.725 215.681 247.128 214.985C245.934 213.591 244.74 212.197 243.347 211.003C241.953 209.808 240.66 208.514 239.167 207.518C237.675 206.423 236.282 205.328 234.69 204.333C233.894 203.835 233.197 203.337 232.401 202.84L230.112 201.446C228.62 200.451 226.928 199.654 225.336 198.758C222.152 197.066 218.769 195.573 215.386 194.079L215.485 193.781Z" fill="#821B10"/>
<path d="M63.8396 279.99C63.9391 283.972 64.0386 287.854 64.6356 291.737C65.1331 295.619 65.8297 299.402 66.8247 303.185L67.5213 306.072L68.4168 308.859C68.7153 309.755 68.9143 310.75 69.3124 311.646L70.4069 314.334C70.8049 315.23 71.1034 316.126 71.601 317.022L72.994 319.61C73.4916 320.506 73.8896 321.303 74.3871 322.198L75.9792 324.687L77.5713 327.176C77.8698 327.574 78.0688 327.972 78.4668 328.37L79.3623 329.565L81.1534 331.855C81.7505 332.651 82.248 333.447 82.9445 334.144L86.7257 338.624L87.7208 339.719L88.7158 340.814L90.7059 342.905C93.2931 345.791 96.2782 348.38 99.0643 351.167C100.457 352.561 101.95 353.755 103.443 355.049C104.935 356.344 106.428 357.638 107.821 358.932L107.721 359.031C106.129 357.936 104.537 356.742 102.945 355.547L100.557 353.755C100.159 353.457 99.7609 353.158 99.3629 352.859L98.2683 351.864C95.2831 349.276 92.1985 346.787 89.5119 343.9C83.9396 338.325 79.0638 331.954 75.1831 325.085L73.6906 322.497L72.397 319.809L71.1034 317.221C70.6059 316.325 70.3074 315.429 69.9094 314.533L68.7153 311.845C68.3173 310.949 68.0188 310.054 67.6208 309.058L66.5262 306.271L65.6307 303.483C63.4415 295.918 62.8445 287.755 63.7401 279.99H63.8396Z" fill="#821B10"/>
<path d="M73.7901 287.954C74.4866 291.537 75.0836 295.121 75.5811 298.705C75.7801 300.497 75.8797 302.388 76.1782 304.18C76.3772 305.076 76.5762 305.972 76.7752 306.868C76.9742 307.764 77.2727 308.66 77.5712 309.456C78.1683 311.149 78.6658 312.94 79.2628 314.633L80.9544 319.809C82.049 323.293 83.044 326.678 84.3376 330.162L84.2381 330.262C82.1485 327.176 80.7554 323.791 79.5613 320.307C78.9643 318.615 78.4668 316.823 78.0688 315.031C77.5712 313.239 77.2727 311.447 76.9742 309.655C76.6757 307.863 76.3772 306.072 75.9792 304.28C75.7802 303.384 75.5811 302.488 75.2826 301.592C75.0836 300.696 74.7851 299.8 74.5861 298.904C74.1881 297.112 73.9891 295.32 73.8896 293.429C73.7901 291.637 73.6905 289.746 73.8896 287.954H73.7901Z" fill="#821B10"/>
<path d="M96.6762 337.429C99.1639 340.515 101.751 343.601 104.438 346.389L106.527 348.479C107.224 349.176 107.92 349.873 108.716 350.47L110.905 352.461C111.701 353.059 112.398 353.656 113.194 354.353C116.179 356.841 119.463 359.231 122.846 361.222L124.14 362.018L125.433 362.715L128.12 364.009C129.911 364.905 131.801 365.502 133.593 366.199C141.055 368.787 148.717 370.878 156.479 372.172L159.364 372.769C160.359 372.968 161.354 373.068 162.25 373.167L168.121 373.964L169.613 374.163L171.106 374.262L174.091 374.561C176.081 374.76 178.071 374.959 180.061 375.158V375.258C178.071 375.258 176.081 375.258 174.091 375.258H171.106H169.613C169.116 375.258 168.618 375.158 168.121 375.158C164.141 374.76 160.16 374.561 156.18 373.765L153.195 373.267C152.2 373.068 151.205 372.968 150.21 372.67L144.439 371.176L142.946 370.778L141.553 370.28L138.767 369.285L135.981 368.289L133.195 367.095C131.403 366.298 129.513 365.502 127.722 364.606L125.035 363.212L123.742 362.516L122.448 361.819C118.965 359.927 115.483 357.936 112.299 355.547C111.502 354.95 110.706 354.353 109.91 353.755C109.114 353.059 108.418 352.461 107.622 351.764C106.129 350.47 104.736 348.977 103.343 347.484C100.656 344.497 98.3678 341.212 96.2782 337.828L96.6762 337.429Z" fill="#821B10"/>
<g opacity="0.7">
<g opacity="0.58">
<path opacity="0.58" d="M108.418 234.098C110.209 230.017 112.697 226.333 115.483 222.949C118.468 219.663 121.552 216.478 125.135 213.89L127.821 211.899L130.607 210.107C131.503 209.51 132.498 208.912 133.394 208.415L136.279 206.822C137.274 206.324 138.17 205.727 139.165 205.229L142.15 203.835C143.145 203.338 144.14 202.84 145.135 202.442L148.22 201.247C156.479 198.061 165.136 196.17 173.992 195.473C182.847 194.876 191.703 195.672 200.36 197.265V197.365C191.604 196.369 182.848 195.871 174.091 196.469L167.524 197.166L165.932 197.365L164.34 197.663L161.155 198.261C160.061 198.46 158.966 198.659 157.971 198.957L154.787 199.853L151.603 200.65L148.518 201.745L145.434 202.84C144.439 203.238 143.444 203.736 142.448 204.134L139.463 205.528C138.468 205.926 137.573 206.623 136.578 207.12L133.692 208.713C132.797 209.31 131.901 209.908 131.005 210.605L128.319 212.496L125.732 214.587C122.249 217.274 119.164 220.36 116.179 223.546C113.194 226.731 110.607 230.315 108.418 234.098Z" fill="#D91E0D"/>
</g>
<g opacity="0.58">
<path opacity="0.58" d="M102.348 268.442C103.144 259.682 105.333 250.822 109.114 242.858C111.005 238.876 113.493 235.094 116.179 231.609C118.866 228.125 121.851 224.84 125.234 221.953C132 216.179 139.961 211.899 148.319 208.912C152.499 207.419 156.777 206.324 161.155 205.528C165.534 204.731 169.912 204.234 174.39 204.333V204.433C170.011 204.632 165.633 205.329 161.354 206.224C157.076 207.12 152.797 208.315 148.717 209.808C146.628 210.605 144.638 211.401 142.648 212.297C140.657 213.093 138.667 214.188 136.677 215.184C132.896 217.374 129.115 219.564 125.632 222.351C122.15 225.139 119.065 228.225 116.478 231.808C113.791 235.293 111.701 239.275 109.91 243.257C106.229 251.22 103.94 259.782 102.348 268.442Z" fill="#D91E0D"/>
</g>
<g opacity="0.58">
<path opacity="0.58" d="M107.721 269.537C108.915 264.162 110.109 258.687 112 253.51C113.891 248.234 116.378 243.256 119.662 238.677C122.946 234.198 127.025 230.315 131.403 226.931C135.881 223.645 140.558 220.659 145.533 218.27C150.608 215.881 155.882 214.188 161.354 213.093C166.827 211.998 172.3 211.301 177.872 211.301C183.445 211.202 189.017 211.6 194.49 212.496C199.962 213.392 205.336 214.786 210.51 216.976V217.075C205.336 215.184 199.863 213.989 194.39 213.292C188.917 212.496 183.445 212.197 177.972 212.297C167.026 212.596 155.981 214.487 145.832 218.768C144.538 219.365 143.344 219.962 142.15 220.559C140.856 221.157 139.762 221.953 138.568 222.55L136.777 223.645L135.085 224.84C133.991 225.636 132.797 226.333 131.702 227.329C127.324 230.713 123.543 234.795 120.358 239.275C117.174 243.754 114.687 248.732 112.796 253.809C110.706 258.886 109.313 264.261 107.721 269.537Z" fill="#D91E0D"/>
</g>
<g opacity="0.58">
<path opacity="0.58" d="M210.709 202.442C216.182 204.532 221.754 206.822 226.63 210.206C227.824 211.003 229.018 211.998 230.212 212.894L233.496 215.881C234.491 216.976 235.585 217.971 236.58 219.066C237.476 220.161 238.57 221.256 239.466 222.451C243.247 227.03 245.934 232.406 248.023 237.98C250.113 243.555 251.108 249.429 251.804 255.302H251.705C250.411 249.528 249.118 243.754 247.028 238.279C245.038 232.804 242.451 227.428 239.068 222.65C238.172 221.455 237.277 220.36 236.282 219.166C235.287 218.071 234.192 217.075 233.197 215.98C232.102 214.985 230.908 214.089 229.814 213.193C228.62 212.396 227.426 211.501 226.132 210.704C224.839 209.908 223.645 209.111 222.351 208.415C221.057 207.618 219.764 207.021 218.47 206.324C215.983 205.129 213.296 203.935 210.709 202.442Z" fill="#D91E0D"/>
</g>
<g opacity="0.58">
<path opacity="0.58" d="M242.152 217.473C244.242 220.36 246.332 223.247 248.322 226.234C250.212 229.22 252.003 232.406 253.496 235.691C256.382 242.261 258.372 249.229 259.665 256.297L260.461 261.673C260.66 263.465 260.76 265.257 260.859 267.049C260.859 267.546 260.959 267.944 260.959 268.442V269.836V272.524V275.212L260.76 277.899C260.362 285.067 258.77 292.135 257.078 299.103H256.979C258.173 292.035 259.367 284.967 259.765 277.899C260.163 270.831 260.262 263.664 259.267 256.596C258.969 254.804 258.67 253.112 258.372 251.32C257.974 249.628 257.476 247.836 256.979 246.143C256.382 244.451 255.785 242.759 255.088 241.166C254.292 239.573 253.695 237.881 252.8 236.288L251.605 233.899C251.207 233.103 250.71 232.306 250.312 231.51C249.516 229.917 248.521 228.424 247.625 226.831C245.834 223.645 243.944 220.659 242.152 217.473Z" fill="#D91E0D"/>
</g>
<g opacity="0.58">
<path opacity="0.58" d="M197.574 216.876C200.36 216.578 203.146 216.976 205.833 217.673C208.52 218.369 211.206 219.365 213.694 220.559C216.182 221.754 218.47 223.347 220.858 224.84C223.147 226.433 225.436 228.026 227.525 229.718C231.804 233.202 235.585 237.383 238.57 242.162C241.456 246.94 243.446 252.216 244.342 257.691H244.242C242.849 252.315 240.66 247.238 237.675 242.659C234.789 237.98 231.207 233.799 227.227 230.116C225.237 228.225 223.047 226.532 220.659 225.039C218.371 223.546 215.883 222.351 213.395 221.256C210.908 220.161 208.321 219.066 205.734 218.369C203.047 217.673 200.36 217.075 197.574 216.876Z" fill="#D91E0D"/>
</g>
<g opacity="0.58">
<path opacity="0.58" d="M184.738 208.713C192.4 208.713 200.161 209.51 207.525 211.6C211.206 212.695 214.789 214.089 218.271 215.682C221.754 217.274 225.137 219.166 228.321 221.356C231.505 223.546 234.491 226.134 236.978 229.021C239.565 231.908 241.754 235.094 243.546 238.578C243.944 239.474 244.441 240.27 244.839 241.166L245.934 243.854C246.332 244.75 246.531 245.646 246.929 246.542L247.426 247.935L247.824 249.329C248.919 253.012 249.416 256.895 249.914 260.677H249.814C248.421 253.112 246.332 245.745 242.749 238.976C240.958 235.691 238.869 232.505 236.381 229.519C233.894 226.632 231.107 224.044 228.023 221.754C224.938 219.464 221.654 217.473 218.172 215.98C214.689 214.387 211.007 213.292 207.326 212.396C199.962 210.505 192.4 209.51 184.738 208.713Z" fill="#D91E0D"/>
</g>
<g opacity="0.58">
<path opacity="0.58" d="M100.557 258.388C99.7609 262.469 99.0643 266.551 98.6663 270.632C98.2683 274.714 98.1688 278.895 98.3678 282.976C98.5668 287.058 98.9648 291.239 99.8604 295.221C100.756 299.203 102.149 303.185 103.841 306.868C107.224 314.334 111.9 321.203 117.274 327.475C122.647 333.647 128.816 339.221 135.284 344.298L135.185 344.398C131.801 342.009 128.418 339.619 125.334 336.832C122.149 334.144 119.164 331.257 116.478 328.072C113.692 324.986 111.204 321.601 109.015 318.117C106.726 314.633 104.836 310.949 103.343 307.067C101.751 303.185 100.557 299.302 99.5619 295.221C98.5668 291.239 97.8703 287.058 97.5718 282.976C97.0742 274.714 98.1688 266.352 100.557 258.388Z" fill="#D91E0D"/>
</g>
<g opacity="0.58">
<path opacity="0.58" d="M109.711 276.506C108.517 279.791 107.92 283.375 108.02 286.859C108.119 290.343 108.915 293.827 110.209 297.013C111.502 300.198 113.294 303.284 115.781 305.873C116.975 307.167 118.368 308.361 119.861 309.257C121.254 310.352 123.045 310.75 124.538 311.845C127.523 313.936 129.612 317.022 131.503 319.909C133.394 322.895 135.185 325.981 137.075 328.968C138.966 331.855 141.055 334.742 143.543 337.23C146.031 339.619 149.016 341.61 152.399 342.805V342.905C148.916 342.009 145.732 340.117 143.046 337.728C140.359 335.339 138.17 332.452 136.18 329.466C134.19 326.479 132.498 323.393 130.607 320.407C128.717 317.42 126.826 314.434 124.04 312.244C122.647 311.248 120.955 310.551 119.463 309.556C118.667 309.058 117.97 308.461 117.373 307.963C116.677 307.465 116.08 306.768 115.383 306.171C112.896 303.682 110.806 300.696 109.313 297.411C107.821 294.126 107.124 290.542 107.124 286.958C107.224 283.275 108.02 279.691 109.711 276.506Z" fill="#D91E0D"/>
</g>
<g opacity="0.58">
<path opacity="0.58" d="M122.448 243.157C123.443 240.27 124.637 237.483 126.528 235.094C128.319 232.605 130.707 230.514 133.593 229.32C136.478 228.125 139.563 227.926 142.548 227.926C145.533 227.926 148.618 228.623 151.503 228.225C154.389 227.827 157.175 226.532 159.762 225.139C162.35 223.646 164.837 221.953 167.524 220.559C170.21 219.166 172.997 217.971 175.982 217.274C178.967 216.578 182.051 216.578 185.037 216.777V216.876C182.051 216.976 179.066 217.274 176.181 218.071C173.295 218.867 170.608 220.062 168.021 221.555C165.434 222.949 162.847 224.541 160.26 226.035C157.573 227.428 154.688 228.623 151.603 228.922C148.518 229.22 145.633 228.324 142.648 228.424C139.662 228.424 136.677 229.021 133.991 230.216C131.304 231.41 129.015 233.302 127.224 235.691C125.234 237.781 123.742 240.469 122.448 243.157Z" fill="#D91E0D"/>
</g>
<g opacity="0.58">
<path opacity="0.58" d="M238.869 265.058C239.366 268.343 240.66 271.429 242.152 274.415C243.645 277.402 245.436 280.289 246.332 283.574C246.531 284.37 246.73 285.266 246.829 286.062L247.028 287.356V288.651C247.128 289.547 247.028 290.343 246.929 291.139C246.929 292.035 246.73 292.832 246.63 293.628L246.431 294.922L246.133 296.117C245.934 296.913 245.834 297.809 245.436 298.506L244.541 300.895L243.446 303.185C241.854 306.171 239.466 308.759 236.779 310.85C234.192 313.04 231.306 314.832 228.421 316.624C225.635 318.416 222.749 320.208 220.261 322.398C217.674 324.488 215.485 326.977 213.595 329.764L213.495 329.665C215.087 326.678 217.276 323.99 219.764 321.701C222.251 319.411 225.038 317.52 227.923 315.728C230.709 313.936 233.595 312.144 236.182 310.153C238.769 308.162 241.157 305.773 242.948 302.986L244.143 300.796C244.441 299.999 244.74 299.203 245.038 298.506C245.337 297.71 245.536 296.913 245.735 296.117L246.033 294.922L246.232 293.728C246.73 290.442 246.531 287.058 245.536 283.872C245.337 283.076 245.038 282.28 244.74 281.583C244.342 280.786 244.043 280.089 243.745 279.293C243.048 277.8 242.252 276.307 241.555 274.813C240.063 271.727 238.968 268.442 238.869 265.058Z" fill="#D91E0D"/>
</g>
<g opacity="0.58">
<path opacity="0.58" d="M113.791 311.845C114.985 312.443 115.881 313.239 116.776 314.235C117.672 315.131 118.468 316.126 119.164 317.122C120.657 319.112 122.149 321.203 123.543 323.294C126.428 327.375 129.513 331.357 132.896 335.04C136.279 338.724 140.06 342.009 144.339 344.696C146.429 345.991 148.717 347.185 151.006 348.181C153.295 349.176 155.683 349.973 158.17 350.57C163.046 351.665 168.021 352.561 172.996 352.76L174.887 352.859C175.484 352.859 176.181 352.859 176.778 352.859H180.559C183.047 352.66 185.534 352.66 188.022 352.262C197.972 351.167 207.823 348.678 217.177 344.896V344.995C212.599 347.185 207.923 348.977 203.047 350.371C198.171 351.764 193.196 352.76 188.121 353.258C185.634 353.556 183.047 353.656 180.559 353.855H176.778C176.181 353.855 175.484 353.855 174.887 353.855L172.996 353.755C167.922 353.457 162.947 352.461 158.071 351.167C148.319 348.28 139.463 343.004 132.299 335.737C128.717 332.153 125.732 328.072 122.846 323.891C121.453 321.8 120.06 319.71 118.667 317.619C117.274 315.429 115.881 313.239 113.791 311.845Z" fill="#D91E0D"/>
</g>
<g opacity="0.58">
<path opacity="0.58" d="M145.334 322.497C148.717 325.384 152.399 328.072 156.678 329.466C160.857 330.859 165.434 330.66 169.812 329.565L171.404 329.167L172.996 328.669L174.589 328.171C175.186 328.072 175.683 327.873 176.28 327.873C178.569 327.574 180.857 327.972 183.046 328.57C187.425 329.864 191.405 332.054 195.584 333.746C199.664 335.538 204.042 337.031 208.42 336.533C212.898 336.036 217.177 334.941 221.356 333.348C225.436 331.656 229.416 329.565 233.097 326.877C236.68 324.289 240.063 321.203 243.048 317.818L243.147 317.918C237.675 325.085 230.311 330.959 221.853 334.343C217.575 336.036 213.097 337.131 208.619 337.529C206.331 337.828 203.943 337.429 201.753 336.832C199.564 336.235 197.475 335.339 195.385 334.343C191.305 332.452 187.425 330.162 183.046 328.968C180.857 328.371 178.668 328.171 176.479 328.47C175.882 328.57 175.385 328.669 174.887 328.868L173.295 329.466L171.703 330.063L170.111 330.561C167.922 331.158 165.633 331.556 163.345 331.556C161.056 331.556 158.767 331.158 156.578 330.361C152.1 328.669 148.419 325.782 145.334 322.497Z" fill="#D91E0D"/>
</g>
<g opacity="0.58">
<path opacity="0.58" d="M131.901 236.487C130.309 239.175 128.518 241.763 126.428 244.152C124.438 246.542 122.348 248.831 120.358 251.32C118.368 253.709 116.577 256.297 115.582 259.284C114.587 262.171 114.289 265.356 114.687 268.442C114.985 271.528 115.085 274.714 114.985 277.899C114.886 281.085 114.587 284.171 114.488 287.257C114.388 290.343 114.587 293.429 115.582 296.316C116.577 299.203 118.468 301.791 120.657 303.981L120.557 304.081C118.169 302.09 115.98 299.601 114.786 296.615C113.592 293.628 113.294 290.343 113.393 287.257C113.393 284.071 113.791 280.985 113.99 277.899C114.189 274.813 114.189 271.727 114.09 268.542C113.891 265.356 114.289 262.171 115.284 259.184C116.279 256.198 117.871 253.41 119.761 250.822C121.652 248.333 123.841 246.044 125.931 243.754C128.02 241.365 130.01 238.976 131.901 236.487Z" fill="#D91E0D"/>
</g>
<g opacity="0.58">
<path opacity="0.58" d="M144.14 231.211C145.931 231.41 147.722 231.908 149.513 232.406C151.205 233.003 152.996 233.6 154.688 234.098C156.379 234.695 158.071 235.293 159.862 235.591C161.653 235.89 163.444 235.89 165.235 235.492C167.026 235.193 168.718 234.496 170.111 233.6C171.504 232.605 172.698 231.211 173.494 229.718C174.39 228.225 174.987 226.532 175.683 224.84C176.081 224.044 176.479 223.148 176.977 222.351C177.474 221.555 178.27 220.858 179.166 220.659V220.758C178.37 221.057 177.773 221.854 177.375 222.55C176.977 223.347 176.678 224.143 176.38 225.039C175.783 226.731 175.285 228.523 174.39 230.216C173.494 231.908 172.2 233.401 170.608 234.397C169.016 235.392 167.126 235.89 165.335 236.089C163.444 236.288 161.653 236.189 159.862 235.89C158.071 235.691 156.28 235.293 154.489 234.894C150.807 233.899 147.523 232.306 144.14 231.211Z" fill="#D91E0D"/>
</g>
<g opacity="0.58">
<path opacity="0.58" d="M141.055 223.944C145.036 222.053 148.916 220.062 153.096 218.768C155.185 218.17 157.374 217.673 159.464 217.175C161.553 216.677 163.743 216.179 165.832 215.682C166.927 215.482 168.021 215.283 169.116 215.084C170.21 214.985 171.305 214.786 172.4 214.686C173.494 214.587 174.589 214.487 175.683 214.487C176.778 214.387 177.872 214.387 178.967 214.387C180.061 214.387 181.156 214.387 182.25 214.487L185.534 214.786C186.629 214.885 187.723 215.084 188.818 215.283C189.912 215.482 191.007 215.682 192.002 215.881V215.98C187.624 215.682 183.345 215.383 178.967 215.482C174.589 215.482 170.31 215.682 165.932 216.279C163.743 216.578 161.653 216.976 159.563 217.473C157.474 218.071 155.384 218.768 153.394 219.564C152.399 219.962 151.404 220.36 150.309 220.659L147.225 221.854C145.235 222.65 143.245 223.446 141.055 223.944Z" fill="#D91E0D"/>
</g>
<g opacity="0.58">
<path opacity="0.58" d="M125.433 217.971C131.105 213.292 137.473 209.51 144.339 206.722C145.135 206.324 146.031 206.025 146.926 205.727L149.513 204.831C150.409 204.532 151.304 204.333 152.2 204.034L154.887 203.238L160.26 201.944C162.051 201.546 163.842 201.247 165.733 200.948C172.997 199.754 180.459 199.754 187.823 200.55C189.614 200.849 191.504 201.048 193.296 201.347C195.087 201.745 196.878 202.143 198.669 202.541L201.355 203.238L203.943 204.134L209.117 205.926V206.025L203.843 204.632L201.156 203.935L198.47 203.437C196.679 203.138 194.888 202.641 193.097 202.342C191.305 202.143 189.514 201.844 187.624 201.645L186.231 201.446L184.838 201.347L182.151 201.147L179.464 200.948H176.778C173.096 200.849 169.514 201.147 165.832 201.446C164.041 201.745 162.151 201.844 160.359 202.242C158.568 202.641 156.777 203.039 154.986 203.537C153.195 204.134 151.503 204.632 149.812 205.229C148.12 205.926 146.429 206.523 144.737 207.319C137.971 210.405 131.503 213.89 125.433 217.971Z" fill="#D91E0D"/>
</g>
<g opacity="0.58">
<path opacity="0.58" d="M207.823 197.564C210.709 198.061 213.396 199.057 215.983 200.252L217.873 201.247C218.47 201.546 219.167 201.944 219.764 202.243L221.654 203.238C222.351 203.537 222.948 203.835 223.645 204.134C226.232 205.329 228.719 206.722 231.107 208.415C233.496 210.007 235.685 211.998 237.575 214.089L237.476 214.188C235.088 212.596 232.799 210.804 230.411 209.31C229.814 208.912 229.217 208.514 228.62 208.116C228.023 207.718 227.426 207.32 226.829 206.921L223.246 204.632C222.052 203.835 220.759 203.138 219.465 202.541C218.172 201.944 216.779 201.546 215.485 201.048C212.998 199.953 210.41 198.858 207.823 197.564Z" fill="#D91E0D"/>
</g>
<g opacity="0.58">
<path opacity="0.58" d="M250.312 236.189C252.899 241.962 254.69 248.134 255.586 254.406C255.785 255.999 255.984 257.592 255.984 259.184L256.083 261.573L256.183 263.963C256.282 265.555 256.282 267.148 256.282 268.741C256.282 269.537 256.282 270.334 256.282 271.13L256.183 273.519C255.984 279.89 254.989 286.162 253.397 292.334C251.804 298.506 249.615 304.479 247.028 310.253H246.929C248.919 304.28 250.809 298.207 252.401 292.135C253.098 289.049 253.795 285.963 254.292 282.877C254.392 282.08 254.591 281.284 254.69 280.587L254.989 278.198L255.287 275.809L255.486 273.42C255.586 271.827 255.785 270.234 255.785 268.741V266.352C255.785 265.555 255.685 264.759 255.685 263.963L255.586 261.573L255.287 259.184C255.188 258.388 255.088 257.592 254.989 256.795L254.591 254.506C254.093 251.42 253.496 248.334 252.7 245.248C252.103 242.261 251.207 239.275 250.312 236.189Z" fill="#D91E0D"/>
</g>
<g opacity="0.58">
<path opacity="0.58" d="M264.74 278.298C264.641 282.578 263.745 286.759 262.75 290.841C261.655 294.922 260.262 299.004 258.67 302.886C256.979 306.768 255.088 310.551 252.998 314.334C250.909 318.017 248.72 321.701 246.332 325.185C241.555 332.253 235.784 338.624 228.918 343.801C222.152 348.977 214.192 352.76 205.933 354.651V354.552C213.993 352.063 221.654 348.181 228.321 343.004C231.605 340.416 234.789 337.629 237.774 334.543C240.66 331.457 243.446 328.271 245.934 324.886C248.421 321.502 250.71 317.918 252.7 314.135C254.69 310.452 256.382 306.47 257.874 302.587C259.367 298.606 260.859 294.624 262.053 290.642C263.148 286.56 264.243 282.479 264.74 278.298Z" fill="#D91E0D"/>
</g>
<g opacity="0.58">
<path opacity="0.58" d="M117.97 280.687C119.264 284.669 121.851 288.153 125.234 290.542C126.926 291.737 128.717 292.832 130.707 293.529C132.697 294.225 134.787 294.524 136.876 294.823C138.966 295.121 141.155 296.017 142.648 297.71C144.14 299.402 144.936 301.592 145.235 303.682C145.832 307.963 145.135 312.244 144.439 316.325H144.339C144.439 312.144 144.837 307.863 144.24 303.782C143.941 301.791 143.245 299.8 141.951 298.307C140.657 296.814 138.767 295.818 136.777 295.32C135.782 295.022 134.687 294.922 133.692 294.624C132.697 294.424 131.602 294.126 130.607 293.827C128.617 293.23 126.627 292.433 124.737 291.239C121.154 288.85 118.567 284.967 117.97 280.687Z" fill="#D91E0D"/>
</g>
<g opacity="0.58">
<path opacity="0.58" d="M120.458 270.533C122.05 269.139 124.04 268.343 125.831 267.546C127.722 266.75 129.612 266.053 131.503 265.356C133.394 264.659 135.284 263.863 136.976 262.668C137.772 262.071 138.568 261.374 139.065 260.478C139.563 259.582 139.762 258.587 139.563 257.591C139.364 255.6 138.667 253.709 137.971 251.818C137.274 249.926 136.379 248.035 135.782 246.044C135.085 244.053 134.588 242.062 134.488 239.971C134.389 237.881 134.687 235.691 135.583 233.899H135.682C135.085 235.89 134.986 237.881 135.185 239.872C135.384 241.863 136.08 243.754 136.677 245.646L138.767 251.419C139.463 253.311 140.06 255.401 140.06 257.492C140.16 258.587 139.861 259.682 139.264 260.578C138.667 261.474 137.971 262.171 137.075 262.868C135.483 264.162 133.593 265.157 131.801 266.053C129.911 266.949 128.02 267.546 126.03 268.243C125.035 268.542 124.14 268.94 123.145 269.239C122.249 269.637 121.353 270.035 120.458 270.533Z" fill="#D91E0D"/>
</g>
<g opacity="0.58">
<path opacity="0.58" d="M150.011 224.442C151.205 223.745 152.399 223.247 153.693 222.949C154.29 222.849 154.986 222.75 155.583 222.55C156.18 222.351 156.777 222.053 157.374 221.754C158.469 221.057 159.663 220.559 160.857 219.962C161.454 219.763 162.051 219.464 162.747 219.265C163.046 219.166 163.345 219.066 163.743 218.967C164.041 218.867 164.439 218.768 164.837 218.867V218.967C164.539 219.066 164.34 219.265 164.041 219.464L163.245 219.962C162.648 220.261 162.15 220.559 161.553 220.858C160.956 221.157 160.359 221.356 159.762 221.555C159.165 221.754 158.469 221.953 157.872 222.152C157.275 222.351 156.578 222.451 155.981 222.75C155.384 223.048 154.787 223.347 154.19 223.645C152.697 224.243 151.404 224.541 150.011 224.442Z" fill="#D91E0D"/>
</g>
<g opacity="0.58">
<path opacity="0.58" d="M154.787 231.41C156.479 231.51 158.071 231.609 159.663 231.709C160.459 231.709 161.255 231.808 162.15 231.709C162.947 231.609 163.743 231.311 164.539 231.012C166.031 230.315 167.424 229.519 168.618 228.523C169.912 227.528 171.006 226.433 172.001 225.039H172.101C171.603 226.632 170.608 228.125 169.315 229.32C168.021 230.415 166.429 231.211 164.738 231.51L162.25 232.007C161.454 232.207 160.658 232.406 159.762 232.505C157.971 232.605 156.28 232.306 154.787 231.41Z" fill="#D91E0D"/>
</g>
<g opacity="0.58">
<path opacity="0.58" d="M197.375 220.958C199.067 224.641 198.669 228.822 200.36 232.306C201.156 233.998 202.749 235.094 204.639 235.293C206.53 235.492 208.52 235.591 210.51 235.492C214.49 235.492 218.371 235.492 222.351 236.089L223.844 236.388L225.237 236.786C225.734 236.985 226.132 237.184 226.63 237.284C227.028 237.582 227.525 237.781 227.923 238.08C229.515 239.275 230.709 240.967 231.605 242.759C233.297 246.442 233.595 250.623 233.197 254.505C233.098 255.501 232.899 256.496 232.699 257.492L232.401 258.985L232.102 260.379C231.903 261.275 231.903 262.27 231.804 263.266C231.804 263.764 231.903 264.261 231.903 264.659L232.003 265.356L232.202 266.053C232.5 267.945 233.396 269.736 234.292 271.429C235.187 273.121 236.381 274.714 237.476 276.406C238.57 277.999 239.665 279.691 240.56 281.483C241.456 283.275 241.953 285.266 242.053 287.257H241.953C241.754 285.266 241.058 283.474 240.162 281.682C239.267 279.99 238.073 278.397 236.879 276.804C235.685 275.212 234.491 273.619 233.496 271.926C232.5 270.234 231.605 268.343 231.207 266.352L231.008 265.655L230.908 264.859C230.908 264.361 230.809 263.863 230.809 263.365C230.908 262.37 230.809 261.275 231.107 260.379L231.406 258.886L231.804 257.492C232.003 256.496 232.202 255.601 232.301 254.605C232.799 250.822 232.6 246.741 231.107 243.157C230.709 242.261 230.311 241.365 229.714 240.668C229.217 239.872 228.52 239.175 227.724 238.578C226.132 237.383 224.242 236.985 222.251 236.686C218.371 236.189 214.391 236.487 210.51 236.587C208.52 236.587 206.53 236.686 204.54 236.388C202.45 236.288 200.36 234.795 199.664 232.903C198.768 231.012 198.669 229.021 198.37 227.03C198.171 224.84 197.972 222.849 197.375 220.958Z" fill="#D91E0D"/>
</g>
<g opacity="0.58">
<path opacity="0.58" d="M218.271 228.424C219.565 229.121 220.858 229.618 222.052 230.315C223.346 230.913 224.54 231.609 225.734 232.505C228.122 234.098 230.212 236.189 231.903 238.478C235.088 243.356 236.779 248.831 237.973 254.406C238.67 257.193 239.167 259.981 239.864 262.669C240.66 265.356 241.555 268.044 242.948 270.433C243.545 271.628 244.342 272.822 245.237 273.917C246.033 275.013 246.929 276.207 247.725 277.402C248.521 278.596 249.118 279.99 249.516 281.384C249.715 282.08 249.814 282.777 249.914 283.474L250.113 285.565H250.013C249.615 282.777 248.819 279.99 247.128 277.8C246.332 276.705 245.436 275.61 244.541 274.515C244.143 273.917 243.645 273.42 243.247 272.723C242.849 272.126 242.451 271.528 242.152 270.831C240.759 268.343 239.864 265.555 239.068 262.768C238.371 259.981 237.973 257.094 237.575 254.306L237.277 252.216C237.177 251.519 236.978 250.822 236.779 250.125C236.481 248.732 235.983 247.438 235.486 246.044C234.491 243.456 233.097 240.967 231.406 238.677C229.714 236.487 227.724 234.397 225.436 232.804C223.147 231.41 220.56 230.116 218.271 228.424Z" fill="#D91E0D"/>
</g>
<g opacity="0.58">
<path opacity="0.58" d="M123.742 295.42C126.13 295.818 128.518 296.415 130.707 297.61C132.896 298.705 134.886 300.298 136.379 302.189C137.871 304.18 138.966 306.47 139.563 308.859C140.16 311.248 140.259 313.737 140.458 316.126C140.657 318.515 140.856 320.904 141.453 323.294C142.05 325.583 143.046 327.873 144.538 329.665C146.13 331.556 148.12 332.85 150.309 333.945C151.404 334.343 152.498 334.841 153.693 335.14C154.887 335.438 155.981 335.737 157.175 335.936C158.369 336.135 159.563 336.334 160.757 336.434L164.34 336.733C166.728 336.932 169.215 337.031 171.603 337.429L173.395 337.628L175.186 338.027L176.977 338.425L178.768 338.923C181.156 339.52 183.445 340.416 185.733 341.212C190.211 343.004 194.788 344.497 199.664 344.199C204.44 344.099 209.216 343.104 213.993 342.009V342.108C209.316 343.502 204.639 344.696 199.664 344.995C198.47 345.095 197.176 344.995 195.982 344.995C194.788 344.796 193.495 344.796 192.3 344.497C189.912 344 187.624 343.104 185.335 342.307C180.857 340.615 176.181 339.221 171.404 338.524L169.613 338.226C169.016 338.126 168.419 338.126 167.822 338.027L164.24 337.628L160.558 337.23C159.364 337.031 158.17 336.832 156.976 336.533C155.782 336.334 154.588 335.936 153.394 335.538C152.797 335.438 152.299 335.14 151.702 334.941C151.105 334.742 150.608 334.542 150.011 334.244C147.822 333.149 145.832 331.755 144.14 329.864C142.548 327.972 141.453 325.683 140.757 323.393C140.06 321.004 139.762 318.615 139.463 316.226C139.264 313.836 139.065 311.348 138.568 309.058C138.07 306.768 137.075 304.578 135.682 302.687C134.289 300.796 132.398 299.203 130.309 298.108C128.319 296.814 126.03 296.017 123.742 295.42Z" fill="#D91E0D"/>
</g>
<g opacity="0.58">
<path opacity="0.58" d="M154.588 332.751C157.872 333.348 161.056 333.647 164.34 333.746C167.623 333.846 170.807 333.547 174.191 333.447C177.474 333.348 180.857 333.746 184.042 334.742C184.838 335.04 185.634 335.339 186.33 335.638C187.126 336.036 187.823 336.334 188.619 336.733C189.315 337.131 190.012 337.529 190.808 337.927C191.504 338.325 192.201 338.724 192.997 339.022C195.982 340.217 199.266 340.515 202.549 340.515C205.833 340.416 209.017 340.018 212.201 339.42C218.57 338.126 224.839 336.235 231.008 333.945V334.045C228.023 335.538 225.038 336.733 221.853 337.828C218.769 338.923 215.585 339.819 212.301 340.416C209.017 341.113 205.734 341.411 202.45 341.411C199.166 341.411 195.783 340.914 192.698 339.52C191.902 339.221 191.206 338.724 190.509 338.325C189.813 337.927 189.116 337.529 188.42 337.031C187.723 336.633 186.927 336.334 186.231 335.936C185.435 335.638 184.738 335.339 183.942 335.14C180.857 334.144 177.474 334.144 174.29 334.343C171.006 334.542 167.723 334.742 164.439 334.542C160.956 334.244 157.673 333.746 154.588 332.751Z" fill="#D91E0D"/>
</g>
<g opacity="0.58">
<path opacity="0.58" d="M117.274 288.153C117.97 291.339 119.363 294.325 121.751 296.515C122.846 297.71 124.14 298.705 125.334 299.701C126.627 300.696 127.722 301.891 128.816 303.185C129.314 303.882 129.811 304.479 130.209 305.176L130.806 306.271C131.005 306.669 131.204 306.968 131.304 307.366C131.503 307.764 131.702 308.063 131.801 308.461L132.199 309.655L132.597 310.85L132.896 312.045C133.294 313.637 133.692 315.23 134.19 316.723C134.389 317.52 134.687 318.217 134.986 319.013L135.881 321.303C137.175 324.289 138.767 327.076 140.657 329.665C142.548 332.253 144.936 334.443 147.523 336.334C150.21 338.126 153.096 339.52 156.081 340.615L158.369 341.411L160.757 342.009L161.951 342.307L163.146 342.506L165.534 343.004V343.104C162.25 342.805 159.066 342.407 155.882 341.411C152.797 340.416 149.712 339.122 146.926 337.23C141.453 333.448 137.573 327.773 135.384 321.601L134.588 319.312C134.389 318.515 134.09 317.719 133.891 316.922C133.493 315.33 133.095 313.737 132.597 312.244C131.702 309.158 130.11 306.271 128.02 303.882C125.931 301.492 123.244 299.601 120.955 297.212C118.866 294.723 117.473 291.438 117.274 288.153Z" fill="#D91E0D"/>
</g>
<g opacity="0.58">
<path opacity="0.58" d="M165.434 327.475C167.225 326.778 168.718 325.583 170.111 324.389C171.504 323.094 172.798 321.701 174.091 320.307C175.385 318.913 176.778 317.52 178.27 316.325C179.763 315.131 181.653 314.235 183.644 314.036C184.141 314.036 184.639 314.036 185.136 314.036L185.932 314.135L186.629 314.334C187.624 314.633 188.42 315.031 189.315 315.529C191.007 316.425 192.599 317.52 194.191 318.615C197.276 320.805 200.36 323.094 203.843 324.687C205.535 325.484 207.326 326.081 209.216 326.081C211.007 326.18 212.799 325.384 214.092 324.19C215.386 322.895 215.983 321.104 216.182 319.312C216.381 317.52 216.381 315.628 216.182 313.737C215.883 309.954 215.187 306.171 214.988 302.388C214.888 300.497 214.789 298.506 215.286 296.615C215.485 295.619 215.883 294.723 216.48 293.927C217.077 293.13 217.873 292.533 218.769 292.234V292.334C217.873 292.732 217.177 293.329 216.679 294.126C216.182 294.922 215.883 295.818 215.784 296.714C215.485 298.506 215.585 300.497 215.784 302.289C216.182 306.072 216.978 309.755 217.276 313.637C217.475 315.529 217.575 317.52 217.276 319.511C217.177 320.506 216.878 321.502 216.48 322.398C216.082 323.294 215.485 324.19 214.789 324.886C213.993 325.583 213.197 326.081 212.202 326.479C211.206 326.877 210.211 326.977 209.216 326.877C208.221 326.877 207.226 326.579 206.331 326.28C205.435 325.981 204.54 325.583 203.644 325.085C200.261 323.294 197.276 320.904 194.092 318.814C192.5 317.719 190.907 316.723 189.216 315.927C187.524 315.131 185.733 314.533 183.942 314.832C182.151 315.031 180.459 315.927 178.967 317.022C177.474 318.117 176.181 319.511 174.788 320.805C173.494 322.199 172.101 323.493 170.608 324.787C169.016 325.981 167.325 327.076 165.434 327.475Z" fill="#D91E0D"/>
</g>
<g opacity="0.58">
<path opacity="0.58" d="M176.38 323.293C177.076 322.696 178.071 322.497 178.967 322.497C179.862 322.497 180.857 322.696 181.653 322.995C183.445 323.592 185.037 324.389 186.629 325.284C189.813 326.977 192.898 328.868 196.181 330.361C199.365 331.855 202.848 333.149 206.43 333.348C208.221 333.447 210.012 333.447 211.803 332.95L213.097 332.651C213.495 332.551 213.993 332.352 214.391 332.253L215.684 331.855C216.082 331.755 216.58 331.556 216.978 331.357C220.361 330.063 223.446 328.171 226.331 326.18C229.217 324.09 232.003 321.8 234.59 319.312C239.665 314.235 244.342 308.66 247.128 301.99H247.227C246.133 305.474 244.342 308.66 242.351 311.646C240.262 314.633 237.973 317.42 235.386 320.008C232.799 322.597 230.013 324.886 226.928 326.977C223.943 328.968 220.659 330.76 217.276 331.954C216.878 332.153 216.381 332.253 215.983 332.352L214.689 332.751C213.794 333.049 212.898 333.149 212.002 333.348C210.211 333.746 208.42 333.746 206.629 333.746C203.047 333.547 199.465 332.551 196.082 331.158C192.699 329.764 189.614 327.773 186.529 325.981C184.937 325.085 183.445 324.189 181.753 323.592C180.957 323.293 180.061 322.995 179.166 322.995C178.071 322.696 177.176 322.895 176.38 323.293Z" fill="#D91E0D"/>
</g>
<g opacity="0.58">
<path opacity="0.58" d="M182.947 318.814C184.141 318.913 185.236 319.212 186.231 319.809C187.226 320.307 188.221 320.904 189.116 321.601C190.012 322.298 190.808 323.094 191.703 323.791C192.599 324.488 193.594 325.085 194.589 325.583C196.579 326.678 198.569 327.674 200.659 328.371C202.749 329.167 204.838 329.665 207.127 329.963V330.063C204.838 330.361 202.549 330.063 200.36 329.366C198.171 328.57 196.181 327.375 194.39 326.081C193.495 325.384 192.599 324.687 191.604 324.09C190.708 323.493 189.713 322.895 188.718 322.298C186.728 321.004 185.037 319.71 182.947 318.814Z" fill="#D91E0D"/>
</g>
<g opacity="0.58">
<path opacity="0.58" d="M220.46 313.637C219.963 311.945 219.764 310.153 219.764 308.361C219.664 306.569 219.764 304.778 220.062 302.986C220.361 301.194 220.759 299.501 221.256 297.809C221.754 296.117 222.251 294.424 222.948 292.732C223.645 291.139 224.839 289.447 226.729 288.75C227.724 288.452 228.52 288.352 229.316 288.053C230.112 287.854 230.908 287.456 231.704 287.157C232.5 286.759 233.197 286.361 233.894 285.863C234.59 285.366 235.187 284.768 235.685 284.071C236.779 282.777 237.177 280.985 236.779 279.293H236.879C237.675 280.886 237.476 282.976 236.381 284.569C235.386 286.162 233.794 287.257 232.202 288.153C231.406 288.551 230.51 288.85 229.615 289.148C228.819 289.447 227.724 289.547 227.028 289.746C225.535 290.243 224.341 291.637 223.446 293.13C222.55 294.624 221.953 296.316 221.555 298.008C221.157 299.701 221.057 301.492 220.858 303.284C220.46 306.569 220.261 310.054 220.46 313.637Z" fill="#D91E0D"/>
</g>
<g opacity="0.58">
<path opacity="0.58" d="M224.938 308.361C225.038 306.669 225.535 305.076 226.232 303.483C226.63 302.687 227.127 301.99 227.525 301.293C227.923 300.597 228.321 299.8 228.719 299.103C229.515 297.61 230.51 296.216 231.804 295.022C233.098 293.927 234.59 293.031 236.282 292.533V292.633C234.889 293.628 233.695 294.624 232.5 295.719C231.306 296.814 230.212 298.008 229.217 299.302C228.719 299.9 228.222 300.597 227.923 301.393C227.525 302.09 227.326 302.986 227.127 303.683C226.331 305.375 225.734 306.868 224.938 308.361Z" fill="#D91E0D"/>
</g>
<g opacity="0.58">
<path opacity="0.58" d="M221.654 317.321C223.446 315.23 225.635 313.637 227.824 312.144C228.918 311.447 230.112 310.75 231.107 309.854C232.202 309.058 233.097 308.063 233.993 307.167C235.784 305.176 237.376 303.085 238.769 300.895C240.162 298.705 241.257 296.316 242.252 293.827H242.351C241.953 296.515 241.058 299.103 239.665 301.492C238.272 303.882 236.481 305.873 234.391 307.664C233.396 308.56 232.301 309.357 231.306 310.253C230.311 311.149 229.316 312.045 228.222 312.94C226.232 314.434 223.943 315.827 221.654 317.321Z" fill="#D91E0D"/>
</g>
<g opacity="0.58">
<path opacity="0.58" d="M230.112 305.574C230.908 304.081 232.003 302.687 233.197 301.592C233.794 300.995 234.491 300.497 235.088 299.9C235.685 299.302 236.182 298.605 236.481 297.909C236.68 297.51 236.879 297.212 236.978 296.814C237.177 296.415 237.277 296.117 237.476 295.719C237.675 295.32 237.774 294.922 237.874 294.524C237.973 294.126 238.073 293.728 238.172 293.329C238.57 291.737 238.67 290.144 238.769 288.452H238.869C239.366 290.044 239.466 291.836 239.167 293.529C238.869 295.221 238.073 296.913 236.879 298.207C236.381 298.904 235.784 299.501 235.187 300.099C234.69 300.796 234.192 301.492 233.694 302.09C232.699 303.384 231.505 304.578 230.112 305.574Z" fill="#D91E0D"/>
</g>
<g opacity="0.58">
<path opacity="0.58" d="M244.64 263.067C245.536 264.361 246.431 265.555 247.227 266.849C247.625 267.546 247.924 268.144 248.421 268.84C248.919 269.438 249.416 270.035 250.013 270.533C251.108 271.628 252.003 273.022 252.501 274.614C252.899 276.207 252.799 277.8 252.401 279.293H252.302C252.103 277.7 251.904 276.307 251.406 274.913C251.307 274.515 251.207 274.216 251.108 273.917C251.008 273.519 250.809 273.221 250.71 272.922C250.411 272.225 250.013 271.628 249.615 270.931C249.217 270.234 248.72 269.637 248.222 269.04C247.725 268.442 247.128 267.945 246.63 267.347C245.536 266.053 244.839 264.659 244.64 263.067Z" fill="#D91E0D"/>
</g>
<g opacity="0.58">
<path opacity="0.58" d="M158.767 346.19C160.857 346.289 162.947 346.09 165.036 345.692C167.126 345.294 169.116 344.597 171.305 344.497C173.494 344.298 175.683 344.597 177.673 345.095C179.763 345.592 181.753 346.289 183.843 346.787C185.932 347.185 188.022 347.384 190.111 347.484C192.201 347.583 194.291 347.484 196.38 347.384C200.559 347.185 204.739 346.687 209.017 345.991V346.09C204.938 347.384 200.758 348.081 196.48 348.38C192.201 348.678 187.823 348.38 183.743 347.185C182.748 346.886 181.753 346.488 180.758 346.19C180.26 345.991 179.763 345.791 179.265 345.692L177.773 345.294C175.683 344.896 173.594 344.896 171.504 345.194C169.414 345.493 167.424 345.991 165.235 346.389C163.046 346.687 160.857 346.787 158.767 346.19Z" fill="#D91E0D"/>
</g>
<g opacity="0.58">
<path opacity="0.58" d="M141.354 348.38C145.832 350.47 150.508 352.063 155.285 353.457L158.867 354.552C160.061 354.85 161.255 355.149 162.449 355.448C163.643 355.647 164.837 355.846 166.131 356.045C167.325 356.244 168.618 356.344 169.812 356.443C174.788 356.841 179.663 357.04 184.639 356.941C189.614 356.841 194.49 356.443 199.465 356.045V356.145C194.589 357.24 189.614 357.837 184.639 358.036C179.663 358.135 174.688 357.837 169.812 357.04L166.131 356.443C164.937 356.244 163.743 355.945 162.449 355.746C161.255 355.448 159.961 355.249 158.767 355.049C157.573 354.751 156.379 354.552 155.086 354.253C152.698 353.656 150.309 352.76 148.021 351.864C145.633 350.968 143.444 349.873 141.354 348.38Z" fill="#D91E0D"/>
</g>
<g opacity="0.58">
<path opacity="0.58" d="M102.149 276.008C102.447 281.981 102.945 288.053 103.841 293.927C104.338 296.913 104.836 299.8 105.831 302.687C106.726 305.574 108.119 308.262 109.811 310.651C113.393 315.429 117.274 320.108 121.055 324.787C124.836 329.466 128.617 334.144 132.299 338.923L132.199 339.022C128.02 334.642 124.04 330.162 120.259 325.484C118.368 323.194 116.478 320.805 114.687 318.416C112.896 316.026 111.104 313.637 109.413 311.049C107.821 308.461 106.627 305.673 105.532 302.886C104.537 299.999 103.642 297.112 103.045 294.126C101.95 288.153 101.751 282.08 102.049 276.107H102.149V276.008Z" fill="#D91E0D"/>
</g>
<g opacity="0.58">
<path opacity="0.58" d="M102.348 311.348C103.94 314.533 105.831 317.42 107.721 320.307C108.617 321.8 109.512 323.293 110.607 324.687C111.602 326.081 112.796 327.475 113.99 328.669C116.378 331.257 118.766 333.746 121.254 336.135C123.742 338.524 126.229 341.013 129.214 342.805V342.905C127.622 342.307 126.03 341.312 124.637 340.316C123.244 339.221 121.851 338.126 120.557 336.932C118.07 334.443 115.682 331.855 113.592 329.067C113.095 328.37 112.597 327.674 112 326.977C111.502 326.28 110.905 325.583 110.408 324.886C109.313 323.493 108.119 322.198 107.124 320.805C106.627 320.108 106.129 319.411 105.632 318.615C105.134 317.918 104.736 317.121 104.338 316.325C103.443 314.732 102.746 313.04 102.348 311.348Z" fill="#D91E0D"/>
</g>
<g opacity="0.58">
<path opacity="0.58" d="M109.512 250.324C110.607 247.637 111.9 244.949 113.294 242.361C114.687 239.772 116.279 237.284 117.97 234.894C121.453 230.116 125.433 225.636 130.209 222.152C134.986 218.568 140.359 215.98 146.031 214.387C151.702 212.795 157.374 211.401 163.145 210.107C168.817 208.713 174.589 207.618 180.26 206.125L182.35 205.528C183.047 205.328 183.843 205.229 184.539 205.03C185.236 204.831 186.032 204.831 186.728 204.632C187.126 204.632 187.425 204.532 187.823 204.532L188.917 204.433C190.41 204.333 191.902 204.433 193.395 204.433C194.888 204.532 196.38 204.632 197.773 204.93C203.644 205.727 209.316 207.618 214.689 210.007C220.062 212.496 225.137 215.582 229.714 219.265L229.615 219.365C220.062 212.496 209.117 207.718 197.574 205.926C196.181 205.627 194.689 205.627 193.196 205.428C191.703 205.428 190.31 205.328 188.818 205.428H187.723C187.325 205.428 187.027 205.528 186.629 205.528C185.932 205.627 185.136 205.627 184.44 205.826C183.743 206.025 183.047 206.125 182.35 206.324L180.26 206.921C174.589 208.414 168.718 209.41 163.046 210.605C160.16 211.202 157.275 211.799 154.489 212.496C151.603 213.193 148.717 213.79 145.931 214.686C140.359 216.378 135.185 219.265 130.508 222.849C125.931 226.433 121.851 230.713 118.368 235.392C117.473 236.587 116.677 237.781 115.781 238.976C114.985 240.17 114.189 241.465 113.493 242.659C112.199 245.148 110.806 247.736 109.512 250.324Z" fill="#D91E0D"/>
</g>
<g opacity="0.58">
<path opacity="0.58" d="M116.975 275.212C116.975 272.026 117.373 268.641 119.065 265.754C119.96 264.361 121.254 263.266 122.647 262.37C124.04 261.474 125.632 260.976 127.125 260.379C128.617 259.881 129.811 258.786 130.607 257.492C131.403 256.198 131.801 254.705 132 253.211C132.399 250.125 132.1 246.94 131.403 243.854H131.503C132.797 246.84 133.394 250.125 132.996 253.41C132.797 255.103 132.299 256.696 131.304 258.089C130.309 259.483 128.816 260.578 127.224 260.976C125.632 261.374 124.14 261.773 122.747 262.668C121.453 263.564 120.358 264.759 119.662 266.153C118.269 268.94 117.672 272.126 116.975 275.212Z" fill="#D91E0D"/>
</g>
<g opacity="0.58">
<path opacity="0.58" d="M118.468 261.275C118.567 260.08 119.264 258.985 120.259 258.288C120.756 257.99 121.353 257.791 121.851 257.492C122.348 257.193 122.846 256.895 123.244 256.496C124.04 255.7 124.836 255.003 125.433 254.207C126.13 253.41 126.727 252.514 127.423 251.619H127.523C127.324 252.813 126.926 253.908 126.229 254.904C125.533 255.8 124.538 256.596 123.443 257.094C122.945 257.293 122.348 257.591 121.95 257.89C121.453 258.189 121.154 258.686 120.756 258.985C119.96 259.682 119.264 260.478 118.468 261.275Z" fill="#D91E0D"/>
</g>
<g opacity="0.58">
<path opacity="0.58" d="M202.848 221.455C204.341 221.854 205.435 223.247 205.833 224.541C206.032 225.238 206.132 225.935 206.43 226.632C206.629 227.329 207.027 227.926 207.525 228.424L207.823 228.822L208.221 229.121C208.42 229.32 208.719 229.519 209.017 229.718C209.316 229.917 209.614 230.116 209.913 230.216C210.112 230.315 210.211 230.415 210.311 230.415L210.808 230.614C212.002 231.211 213.396 231.51 214.789 232.008V232.107C213.296 232.207 211.803 232.107 210.41 231.51C209.017 230.913 207.724 229.917 207.027 228.623C206.629 227.926 206.43 227.329 206.132 226.632C205.833 225.935 205.435 225.338 205.137 224.741C204.44 223.645 203.843 222.55 202.848 221.455Z" fill="#D91E0D"/>
</g>
<g opacity="0.58">
<path opacity="0.58" d="M208.321 222.451C209.017 222.75 209.515 223.148 209.913 223.745C210.112 224.044 210.211 224.342 210.41 224.641C210.609 224.94 210.908 225.139 211.107 225.338C211.704 225.736 212.201 226.134 212.599 226.632C212.998 227.13 213.396 227.727 213.495 228.424L213.396 228.523C212.699 228.225 212.201 227.827 211.704 227.329C211.306 226.831 210.908 226.333 210.609 225.636C210.41 225.338 210.311 225.039 210.012 224.84C209.813 224.641 209.415 224.442 209.216 224.243C208.818 223.845 208.42 223.247 208.321 222.451Z" fill="#D91E0D"/>
</g>
<g opacity="0.58">
<path opacity="0.58" d="M228.918 254.107C227.824 255.302 226.829 256.496 225.734 257.691C225.237 258.288 224.64 258.786 224.142 259.483C223.943 259.782 223.744 260.18 223.645 260.578C223.446 260.976 223.446 261.374 223.346 261.673C223.247 262.071 223.247 262.469 223.147 262.868C223.147 263.266 223.147 263.664 223.147 263.963C223.247 264.659 223.346 265.456 223.744 266.053C224.341 267.347 225.436 268.442 226.729 269.537V269.637C225.237 269.139 223.744 268.144 222.848 266.551C222.052 264.958 222.152 263.067 222.848 261.573C223.247 260.777 223.645 260.08 223.943 259.383C224.142 259.085 224.341 258.687 224.54 258.288C224.739 257.89 224.938 257.592 225.137 257.193C226.132 255.8 227.426 254.804 228.918 254.107Z" fill="#D91E0D"/>
</g>
<g opacity="0.58">
<path opacity="0.58" d="M225.436 340.914C228.321 338.525 231.008 335.837 233.695 333.248C235.088 331.954 236.481 330.66 237.675 329.266C238.968 327.873 240.063 326.38 241.157 324.886C243.346 321.8 245.436 318.714 247.426 315.529C249.416 312.343 251.307 309.158 253.297 305.873H253.397C252.003 309.357 250.312 312.741 248.322 316.027C246.332 319.212 244.043 322.298 241.655 325.185L237.973 329.466C236.779 330.959 235.585 332.452 234.292 333.846C231.704 336.633 228.719 339.122 225.436 340.914Z" fill="#D91E0D"/>
</g>
</g>
<path d="M123.543 210.007C154.389 189.401 211.604 184.423 241.257 211.998C270.81 239.673 283.248 307.465 232.899 345.592C182.549 383.719 115.781 346.787 103.343 320.904C90.8054 294.922 87.0243 234.397 123.543 210.007Z" stroke="#C13D2F" stroke-miterlimit="10"/>
<path d="M138.369 234.496C145.533 227.03 155.285 243.256 167.723 241.465C180.161 239.673 175.484 219.066 188.121 218.568C200.758 218.071 192.4 233.799 199.863 238.279C207.326 242.759 227.525 234.994 229.515 245.048C231.505 255.103 215.784 258.487 216.58 264.958C217.376 271.429 236.481 272.424 233.993 279.89C231.505 287.356 216.58 284.868 211.306 289.646C206.032 294.424 220.261 318.515 212.102 321.999C203.943 325.484 193.395 306.072 184.241 307.067C175.086 308.063 166.031 333.248 153.593 326.28C141.155 319.312 157.573 299.9 149.812 294.126C142.05 288.352 121.95 291.139 119.96 281.384C117.97 271.628 138.369 268.442 143.842 260.478C149.314 252.515 132.398 240.668 138.369 234.496Z" fill="#FFCDB5"/>
<path d="M138.369 234.496C145.533 227.03 155.285 243.256 167.723 241.465C180.161 239.673 175.484 219.066 188.121 218.568C200.758 218.071 192.4 233.799 199.863 238.279C207.326 242.759 227.525 234.994 229.515 245.048C231.505 255.103 215.784 258.487 216.58 264.958C217.376 271.429 236.481 272.424 233.993 279.89C231.505 287.356 216.58 284.868 211.306 289.646C206.032 294.424 220.261 318.515 212.102 321.999C203.943 325.484 193.395 306.072 184.241 307.067C175.086 308.063 166.031 333.248 153.593 326.28C141.155 319.312 157.573 299.9 149.812 294.126C142.05 288.352 121.95 291.139 119.96 281.384C117.97 271.628 138.369 268.442 143.842 260.478C149.314 252.515 132.398 240.668 138.369 234.496Z" stroke="#F7854F" stroke-width="0.5" stroke-miterlimit="10"/>
<path d="M152.697 246.143C157.772 241.365 163.842 252.614 172.2 251.818C180.658 251.021 178.171 236.985 186.728 237.085C195.286 237.184 189.116 247.438 193.992 250.723C198.868 254.008 212.699 249.429 213.694 256.198C214.689 262.967 204.042 264.759 204.341 269.139C204.639 273.519 217.475 274.813 215.585 279.791C213.694 284.768 203.644 282.578 199.962 285.565C196.281 288.551 205.037 305.275 199.365 307.366C193.694 309.456 187.325 296.017 181.056 296.415C174.788 296.814 167.922 313.438 159.762 308.262C151.603 303.185 163.345 290.642 158.369 286.461C153.394 282.379 139.662 283.474 138.667 276.904C137.672 270.334 151.503 268.841 155.484 263.664C159.464 258.487 148.518 250.125 152.697 246.143Z" fill="url(#paint2_radial_3300:577257)"/>
<path d="M152.697 246.143C157.772 241.365 163.842 252.614 172.2 251.818C180.658 251.021 178.171 236.985 186.728 237.085C195.286 237.184 189.116 247.438 193.992 250.723C198.868 254.008 212.699 249.429 213.694 256.198C214.689 262.967 204.042 264.759 204.341 269.139C204.639 273.519 217.475 274.813 215.585 279.791C213.694 284.768 203.644 282.578 199.962 285.565C196.281 288.551 205.037 305.275 199.365 307.366C193.694 309.456 187.325 296.017 181.056 296.415C174.788 296.814 167.922 313.438 159.762 308.262C151.603 303.185 163.345 290.642 158.369 286.461C153.394 282.379 139.662 283.474 138.667 276.904C137.672 270.334 151.503 268.841 155.484 263.664C159.464 258.487 148.518 250.125 152.697 246.143Z" stroke="#F7854F" stroke-width="0.5" stroke-miterlimit="10"/>
<path opacity="0.21" d="M143.643 273.121C146.13 270.334 159.961 273.022 170.409 255.401C172.499 253.809 174.191 254.605 174.191 254.605C174.191 254.605 171.603 265.954 163.643 273.121C157.175 278.995 149.314 280.687 146.329 280.09C143.344 279.492 140.856 276.307 143.643 273.121Z" fill="#8C271D"/>
<path opacity="0.21" d="M167.126 305.275C170.509 303.882 176.678 289.447 177.972 277.899C179.265 266.352 179.862 253.908 179.862 253.908H176.579C176.579 253.908 171.205 274.017 168.718 281.881C165.534 291.836 160.359 298.705 158.966 300.596C157.076 303.185 162.847 306.968 167.126 305.275Z" fill="#8C271D"/>
<path opacity="0.21" d="M181.056 253.908C181.056 254.306 181.554 272.225 182.449 281.384C183.345 291.139 191.305 302.388 194.191 303.583C197.077 304.778 199.564 300.995 198.171 297.51C196.778 294.026 190.41 288.153 187.823 279.094C185.335 270.334 183.942 253.709 183.942 253.709L181.056 253.908Z" fill="#8C271D"/>
<path opacity="0.21" d="M185.136 253.908C185.136 253.908 187.126 272.822 193.196 277.601C199.266 282.379 208.918 282.479 210.609 281.682C212.301 280.886 211.604 277.103 210.211 276.207C208.818 275.311 197.475 274.415 194.39 269.239C191.305 264.062 186.629 253.51 186.629 253.51L185.136 253.908Z" fill="#8C271D"/>
<path d="M204.341 269.239C204.042 264.859 214.689 263.067 213.694 256.297C212.699 249.528 198.868 254.008 193.992 250.822C189.116 247.537 195.385 237.284 186.728 237.184C178.171 237.085 180.658 251.22 172.2 251.917C163.743 252.714 157.772 241.465 152.697 246.243C148.419 250.225 159.464 258.687 155.484 263.863C152.2 268.243 141.851 269.936 139.264 274.316C140.458 277.004 141.951 279.492 143.742 281.782C148.419 283.474 155.285 283.972 158.469 286.66C160.459 288.352 159.762 291.339 158.767 294.723C163.743 297.411 169.414 299.302 175.385 300.198C177.375 298.207 179.265 296.615 181.156 296.515C183.544 296.415 185.932 298.207 188.221 300.397C192.499 299.9 196.679 299.004 200.559 297.511C199.564 292.533 198.072 287.257 199.962 285.664C203.644 282.678 213.595 284.868 215.585 279.89C217.575 274.913 204.639 273.619 204.341 269.239Z" fill="url(#paint3_radial_3300:577257)"/>
</g>
<defs>
<linearGradient id="paint0_linear_3300:577257" x1="90.348" y1="150.411" x2="215.669" y2="75.7712" gradientUnits="userSpaceOnUse">
<stop offset="0.1698" stop-color="white" stop-opacity="0"/>
<stop offset="0.232" stop-color="#FFF9F6" stop-opacity="0.1483"/>
<stop offset="0.3315" stop-color="#FFEADF" stop-opacity="0.3853"/>
<stop offset="0.4551" stop-color="#FFD1B9" stop-opacity="0.6797"/>
<stop offset="0.5055" stop-color="#FFC6A8" stop-opacity="0.8"/>
<stop offset="0.5968" stop-color="#FFD0B7" stop-opacity="0.6159"/>
<stop offset="0.7711" stop-color="#FFE9DE" stop-opacity="0.2641"/>
<stop offset="0.9021" stop-color="white" stop-opacity="0"/>
</linearGradient>
<radialGradient id="paint1_radial_3300:577257" cx="0" cy="0" r="1" gradientUnits="userSpaceOnUse" gradientTransform="translate(182.527 273.146) scale(112.586 112.635)">
<stop offset="0.1611" stop-color="#FF9C69" stop-opacity="0"/>
<stop offset="0.2981" stop-color="#FA9765" stop-opacity="0.1803"/>
<stop offset="0.4686" stop-color="#EB8759" stop-opacity="0.4047"/>
<stop offset="0.6569" stop-color="#D26E46" stop-opacity="0.6525"/>
<stop offset="0.8567" stop-color="#B04B2C" stop-opacity="0.9154"/>
<stop offset="0.921" stop-color="#A33E22"/>
</radialGradient>
<radialGradient id="paint2_radial_3300:577257" cx="0" cy="0" r="1" gradientUnits="userSpaceOnUse" gradientTransform="translate(177.256 273.251) scale(37.353 37.3693)">
<stop stop-color="#FF9C69" stop-opacity="0"/>
<stop offset="0.2876" stop-color="#FF9665" stop-opacity="0.2876"/>
<stop offset="0.6737" stop-color="#FF855A" stop-opacity="0.6737"/>
<stop offset="1" stop-color="#FF714D"/>
</radialGradient>
<radialGradient id="paint3_radial_3300:577257" cx="0" cy="0" r="1" gradientUnits="userSpaceOnUse" gradientTransform="translate(181.488 241.498) scale(64.0831 64.1111)">
<stop offset="0.1927" stop-color="#200000"/>
<stop offset="0.4333" stop-color="#240000" stop-opacity="0.6003"/>
<stop offset="0.6749" stop-color="#300000" stop-opacity="0.1989"/>
<stop offset="0.7946" stop-color="#390000" stop-opacity="0"/>
</radialGradient>
<clipPath id="clip0_3300:577257">
<rect width="313" height="388" fill="white"/>
</clipPath>
</defs>
</svg>
