<svg width="492" height="163" viewBox="0 0 492 163" fill="none" xmlns="http://www.w3.org/2000/svg">
<g clip-path="url(#clip0_3025:498045)">
<path d="M103.974 27.8779C105.365 16.5185 94.6158 5.85473 79.9637 4.05975C65.3117 2.26478 52.3057 10.0183 50.9141 21.3778C49.5225 32.7372 60.2722 43.401 74.9242 45.196C89.5763 46.9909 102.582 39.2374 103.974 27.8779Z" fill="#FAE4B2"/>
<path d="M103.974 27.8779C105.365 16.5185 94.6158 5.85473 79.9637 4.05975C65.3117 2.26478 52.3057 10.0183 50.9141 21.3778C49.5225 32.7372 60.2722 43.401 74.9242 45.196C89.5763 46.9909 102.582 39.2374 103.974 27.8779Z" stroke="#F2D59D" stroke-miterlimit="10"/>
<path opacity="0.74" d="M97.3218 27.4196C98.505 17.7613 89.3658 8.69462 76.9088 7.16855C64.4518 5.64249 53.3942 12.235 52.211 21.8932C51.0278 31.5515 60.167 40.6182 72.624 42.1443C85.081 43.6703 96.1386 37.0779 97.3218 27.4196Z" fill="#F9E7BF"/>
<path opacity="0.23" d="M83.3904 25.4361C84.1501 19.2351 78.2709 13.4124 70.259 12.4309C62.247 11.4494 55.1362 15.6807 54.3765 21.8817C53.6168 28.0828 59.496 33.9054 67.508 34.8869C75.5199 35.8684 82.6308 31.6372 83.3904 25.4361Z" fill="#FCFCF2"/>
<path opacity="0.55" d="M75.7092 24.628C76.2134 20.5123 72.3514 16.6526 67.0833 16.0073C61.8151 15.3619 57.1357 18.1752 56.6315 22.2909C56.1273 26.4066 59.9893 30.2663 65.2574 30.9117C70.5256 31.5571 75.205 28.7438 75.7092 24.628Z" fill="#FCFCF2"/>
<path d="M150.091 27.9542C151.483 16.5948 140.733 5.93101 126.081 4.13604C111.429 2.34106 98.4232 10.0946 97.0316 21.4541C95.64 32.8135 106.39 43.4773 121.042 45.2722C135.694 47.0672 148.7 39.3137 150.091 27.9542Z" fill="#FAE4B2"/>
<path d="M150.091 27.9542C151.483 16.5948 140.733 5.93101 126.081 4.13604C111.429 2.34106 98.4232 10.0946 97.0316 21.4541C95.64 32.8135 106.39 43.4773 121.042 45.2722C135.694 47.0672 148.7 39.3137 150.091 27.9542Z" stroke="#F2D59D" stroke-miterlimit="10"/>
<path opacity="0.74" d="M143.451 27.3966C144.635 17.7383 135.495 8.67163 123.038 7.14557C110.581 5.6195 99.5239 12.212 98.3407 21.8702C97.1575 31.5285 106.297 40.5952 118.754 42.1213C131.211 43.6473 142.268 37.0549 143.451 27.3966Z" fill="#F9E7BF"/>
<path opacity="0.23" d="M129.52 25.4131C130.28 19.2121 124.401 13.3894 116.389 12.4079C108.377 11.4264 101.266 15.6577 100.506 21.8587C99.7464 28.0598 105.626 33.8824 113.638 34.8639C121.65 35.8455 128.76 31.6142 129.52 25.4131Z" fill="#FCFCF2"/>
<path opacity="0.55" d="M121.839 24.605C122.343 20.4892 118.481 16.6296 113.213 15.9842C107.945 15.3388 103.265 18.1521 102.761 22.2678C102.257 26.3836 106.119 30.2432 111.387 30.8886C116.655 31.534 121.335 28.7207 121.839 24.605Z" fill="#FCFCF2"/>
<path d="M233.212 101.538C234.604 90.1785 223.854 79.5148 209.202 77.7198C194.55 75.9248 181.544 83.6784 180.153 95.0378C178.761 106.397 189.511 117.061 204.163 118.856C218.815 120.651 231.821 112.897 233.212 101.538Z" fill="#FAE4B2"/>
<path d="M233.212 101.538C234.604 90.1785 223.854 79.5148 209.202 77.7198C194.55 75.9248 181.544 83.6784 180.153 95.0378C178.761 106.397 189.511 117.061 204.163 118.856C218.815 120.651 231.821 112.897 233.212 101.538Z" stroke="#F2D59D" stroke-miterlimit="10"/>
<path opacity="0.74" d="M226.572 100.98C227.756 91.3221 218.616 82.2554 206.159 80.7293C193.702 79.2033 182.645 85.7957 181.462 95.454C180.278 105.112 189.418 114.179 201.875 115.705C214.332 117.231 225.389 110.639 226.572 100.98Z" fill="#F9E7BF"/>
<path opacity="0.23" d="M212.641 98.9969C213.401 92.7958 207.522 86.9732 199.51 85.9917C191.498 85.0102 184.387 89.2414 183.627 95.4425C182.867 101.644 188.747 107.466 196.759 108.448C204.771 109.429 211.881 105.198 212.641 98.9969Z" fill="#FCFCF2"/>
<path opacity="0.55" d="M204.96 98.1887C205.464 94.073 201.602 90.2133 196.334 89.5679C191.066 88.9225 186.386 91.7358 185.882 95.8516C185.378 99.9673 189.24 103.827 194.508 104.472C199.776 105.118 204.456 102.304 204.96 98.1887Z" fill="#FCFCF2"/>
<path d="M219.108 73.4365C220.594 61.3088 209.12 49.9241 193.48 48.0081C177.84 46.0922 163.957 54.3704 162.471 66.4981C160.985 78.6259 172.46 90.0105 188.099 91.9265C203.739 93.8425 217.622 85.5642 219.108 73.4365Z" fill="#FAE4B2"/>
<path d="M219.108 73.4365C220.594 61.3088 209.12 49.9241 193.48 48.0081C177.84 46.0922 163.957 54.3704 162.471 66.4981C160.985 78.6259 172.46 90.0105 188.099 91.9265C203.739 93.8425 217.622 85.5642 219.108 73.4365Z" stroke="#F2D59D" stroke-miterlimit="10"/>
<path opacity="0.74" d="M211.975 72.9617C213.239 62.6449 203.498 52.9626 190.218 51.3357C176.938 49.7088 165.148 56.7534 163.884 67.0701C162.62 77.3869 172.361 87.0692 185.641 88.6961C198.921 90.323 210.711 83.2785 211.975 72.9617Z" fill="#F9E7BF"/>
<path opacity="0.23" d="M197.118 70.8489C197.932 64.2088 191.651 57.9758 183.09 56.927C174.53 55.8783 166.93 60.4109 166.117 67.051C165.303 73.6911 171.584 79.9241 180.145 80.9728C188.705 82.0216 196.305 77.4889 197.118 70.8489Z" fill="#FCFCF2"/>
<path opacity="0.55" d="M188.98 69.9044C189.518 65.5143 185.372 61.3941 179.72 60.7016C174.067 60.0092 169.049 63.0068 168.511 67.3969C167.974 71.787 172.12 75.9072 177.772 76.5997C183.424 77.2921 188.442 74.2946 188.98 69.9044Z" fill="#FCFCF2"/>
<path d="M187.721 49.2039C189.207 37.0761 177.733 25.6915 162.093 23.7755C146.453 21.8595 132.57 30.1378 131.085 42.2655C129.599 54.3932 141.073 65.7779 156.713 67.6939C172.353 69.6098 186.236 61.3316 187.721 49.2039Z" fill="#FAE4B2"/>
<path d="M187.721 49.2039C189.207 37.0761 177.733 25.6915 162.093 23.7755C146.453 21.8595 132.57 30.1378 131.085 42.2655C129.599 54.3932 141.073 65.7779 156.713 67.6939C172.353 69.6098 186.236 61.3316 187.721 49.2039Z" stroke="#F2D59D" stroke-miterlimit="10"/>
<path opacity="0.74" d="M180.589 48.729C181.853 38.4122 172.112 28.73 158.831 27.1031C145.551 25.4762 133.761 32.5207 132.497 42.8375C131.233 53.1543 140.974 62.8366 154.254 64.4635C167.535 66.0904 179.325 59.0458 180.589 48.729Z" fill="#F9E7BF"/>
<path opacity="0.23" d="M165.732 46.6161C166.545 39.976 160.265 33.743 151.704 32.6943C143.143 31.6455 135.544 36.1782 134.73 42.8183C133.917 49.4583 140.197 55.6913 148.758 56.7401C157.319 57.7888 164.918 53.2562 165.732 46.6161Z" fill="#FCFCF2"/>
<path opacity="0.55" d="M157.494 45.6595C158.032 41.2694 153.886 37.1491 148.234 36.4567C142.581 35.7643 137.563 38.7618 137.026 43.1519C136.488 47.5421 140.634 51.6623 146.286 52.3548C151.938 53.0472 156.957 50.0496 157.494 45.6595Z" fill="#FCFCF2"/>
<path d="M203.022 132.867C204.414 121.507 193.664 110.843 179.012 109.049C164.36 107.254 151.354 115.007 149.962 126.367C148.571 137.726 159.32 148.39 173.972 150.185C188.624 151.98 201.63 144.226 203.022 132.867Z" fill="#FAE4B2"/>
<path d="M203.022 132.867C204.414 121.507 193.664 110.843 179.012 109.049C164.36 107.254 151.354 115.007 149.962 126.367C148.571 137.726 159.32 148.39 173.972 150.185C188.624 151.98 201.63 144.226 203.022 132.867Z" stroke="#F2D59D" stroke-miterlimit="10"/>
<path opacity="0.74" d="M196.37 132.408C197.553 122.75 188.414 113.683 175.957 112.157C163.5 110.631 152.442 117.224 151.259 126.882C150.076 136.54 159.215 145.607 171.672 147.133C184.129 148.659 195.187 142.067 196.37 132.408Z" fill="#F9E7BF"/>
<path opacity="0.23" d="M182.439 130.425C183.198 124.224 177.319 118.401 169.307 117.42C161.295 116.438 154.184 120.67 153.425 126.871C152.665 133.072 158.544 138.894 166.556 139.876C174.568 140.857 181.679 136.626 182.439 130.425Z" fill="#FCFCF2"/>
<path opacity="0.55" d="M174.658 129.605C175.162 125.489 171.3 121.629 166.032 120.984C160.764 120.338 156.085 123.152 155.58 127.267C155.076 131.383 158.938 135.243 164.206 135.888C169.474 136.534 174.154 133.72 174.658 129.605Z" fill="#FCFCF2"/>
<path d="M156.461 142.432C157.853 131.072 147.103 120.409 132.451 118.614C117.799 116.819 104.793 124.572 103.402 135.932C102.01 147.291 112.76 157.955 127.412 159.75C142.064 161.545 155.07 153.791 156.461 142.432Z" fill="#FAE4B2"/>
<path d="M156.461 142.432C157.853 131.072 147.103 120.409 132.451 118.614C117.799 116.819 104.793 124.572 103.402 135.932C102.01 147.291 112.76 157.955 127.412 159.75C142.064 161.545 155.07 153.791 156.461 142.432Z" stroke="#F2D59D" stroke-miterlimit="10"/>
<path opacity="0.74" d="M149.809 141.974C150.993 132.315 141.853 123.249 129.396 121.723C116.939 120.197 105.882 126.789 104.699 136.447C103.515 146.106 112.655 155.172 125.112 156.698C137.569 158.224 148.626 151.632 149.809 141.974Z" fill="#F9E7BF"/>
<path opacity="0.23" d="M135.878 139.99C136.638 133.789 130.759 127.966 122.747 126.985C114.735 126.003 107.624 130.235 106.864 136.436C106.104 142.637 111.984 148.459 119.996 149.441C128.008 150.422 135.118 146.191 135.878 139.99Z" fill="#FCFCF2"/>
<path opacity="0.55" d="M128.209 139.083C128.713 134.967 124.851 131.107 119.583 130.462C114.315 129.817 109.635 132.63 109.131 136.746C108.627 140.861 112.489 144.721 117.757 145.366C123.025 146.012 127.705 143.198 128.209 139.083Z" fill="#FCFCF2"/>
<path d="M113.593 124.946C114.984 113.586 104.235 102.923 89.5825 101.128C74.9304 99.3327 61.9245 107.086 60.5329 118.446C59.1412 129.805 69.891 140.469 84.543 142.264C99.195 144.059 112.201 136.305 113.593 124.946Z" fill="#FAE4B2"/>
<path d="M113.593 124.946C114.984 113.586 104.235 102.923 89.5825 101.128C74.9304 99.3327 61.9245 107.086 60.5329 118.446C59.1412 129.805 69.891 140.469 84.543 142.264C99.195 144.059 112.201 136.305 113.593 124.946Z" stroke="#F2D59D" stroke-miterlimit="10"/>
<path opacity="0.74" d="M106.941 124.488C108.124 114.829 98.9845 105.763 86.5275 104.237C74.0705 102.711 63.013 109.303 61.8298 118.961C60.6466 128.62 69.7858 137.686 82.2428 139.212C94.6998 140.738 105.757 134.146 106.941 124.488Z" fill="#F9E7BF"/>
<path opacity="0.23" d="M92.9098 122.492C93.6695 116.291 87.7903 110.468 79.7784 109.487C71.7664 108.505 64.6556 112.737 63.8959 118.938C63.1362 125.139 69.0154 130.961 77.0273 131.943C85.0393 132.924 92.1502 128.693 92.9098 122.492Z" fill="#FCFCF2"/>
<path opacity="0.55" d="M85.2408 121.584C85.745 117.469 81.883 113.609 76.6149 112.964C71.3467 112.318 66.6673 115.132 66.1631 119.247C65.6589 123.363 69.5208 127.223 74.789 127.868C80.0571 128.513 84.7366 125.7 85.2408 121.584Z" fill="#FCFCF2"/>
<path d="M68.7057 44.5468C70.0973 33.1874 59.3476 22.5236 44.6956 20.7286C30.0435 18.9337 17.0376 26.6872 15.646 38.0467C14.2544 49.4061 25.0041 60.0699 39.6561 61.8649C54.3082 63.6598 67.3141 55.9063 68.7057 44.5468Z" fill="#FAE4B2"/>
<path d="M68.7057 44.5468C70.0973 33.1874 59.3476 22.5236 44.6956 20.7286C30.0435 18.9337 17.0376 26.6872 15.646 38.0467C14.2544 49.4061 25.0041 60.0699 39.6561 61.8649C54.3082 63.6598 67.3141 55.9063 68.7057 44.5468Z" stroke="#F2D59D" stroke-miterlimit="10"/>
<path opacity="0.74" d="M62.0536 44.0886C63.2368 34.4303 54.0976 25.3636 41.6406 23.8375C29.1837 22.3115 18.1261 28.9039 16.9429 38.5622C15.7597 48.2205 24.8989 57.2872 37.3559 58.8133C49.8129 60.3393 60.8704 53.7469 62.0536 44.0886Z" fill="#F9E7BF"/>
<path opacity="0.23" d="M48.1345 42.0057C48.8942 35.8047 43.015 29.9821 35.003 29.0005C26.991 28.019 19.8802 32.2503 19.1206 38.4513C18.3609 44.6524 24.24 50.475 32.252 51.4565C40.264 52.4381 47.3748 48.2068 48.1345 42.0057Z" fill="#FCFCF2"/>
<path opacity="0.55" d="M40.4532 41.1976C40.9574 37.0818 37.0955 33.2222 31.8273 32.5768C26.5592 31.9314 21.8798 34.7447 21.3756 38.8604C20.8714 42.9762 24.7333 46.8358 30.0014 47.4812C35.2696 48.1266 39.949 45.3133 40.4532 41.1976Z" fill="#FCFCF2"/>
<path d="M80.3162 101.343C81.8019 89.2153 70.3278 77.8306 54.6879 75.9146C39.0481 73.9986 25.1651 82.2769 23.6794 94.4046C22.1937 106.532 33.6678 117.917 49.3077 119.833C64.9475 121.749 78.8305 113.471 80.3162 101.343Z" fill="#FAE4B2"/>
<path d="M80.3162 101.343C81.8019 89.2153 70.3278 77.8306 54.6879 75.9146C39.0481 73.9986 25.1651 82.2769 23.6794 94.4046C22.1937 106.532 33.6678 117.917 49.3077 119.833C64.9475 121.749 78.8305 113.471 80.3162 101.343Z" stroke="#F2D59D" stroke-miterlimit="10"/>
<path opacity="0.74" d="M73.1956 100.769C74.4594 90.452 64.7183 80.7697 51.4382 79.1428C38.1581 77.5159 26.3678 84.5605 25.104 94.8773C23.8401 105.194 33.5812 114.876 46.8613 116.503C60.1414 118.13 71.9317 111.086 73.1956 100.769Z" fill="#F9E7BF"/>
<path opacity="0.23" d="M58.3385 98.656C59.1519 92.0159 52.8715 85.7829 44.3108 84.7341C35.75 83.6854 28.1507 88.2181 27.3373 94.8581C26.5238 101.498 32.8043 107.731 41.365 108.78C49.9258 109.829 57.525 105.296 58.3385 98.656Z" fill="#FCFCF2"/>
<path opacity="0.55" d="M50.2006 97.7115C50.7385 93.3214 46.5924 89.2012 40.9401 88.5087C35.2878 87.8163 30.2697 90.8139 29.7319 95.204C29.1941 99.5941 33.3402 103.714 38.9925 104.407C44.6447 105.099 49.6628 102.102 50.2006 97.7115Z" fill="#FCFCF2"/>
<path d="M202.436 106.462C203.922 94.3341 192.447 82.9494 176.808 81.0334C161.168 79.1175 147.285 87.3957 145.799 99.5234C144.313 111.651 155.788 123.036 171.427 124.952C187.067 126.868 200.95 118.59 202.436 106.462Z" fill="#FAE4B2"/>
<path d="M202.436 106.462C203.922 94.3341 192.447 82.9494 176.808 81.0334C161.168 79.1175 147.285 87.3957 145.799 99.5234C144.313 111.651 155.788 123.036 171.427 124.952C187.067 126.868 200.95 118.59 202.436 106.462Z" stroke="#F2D59D" stroke-miterlimit="10"/>
<path opacity="0.74" d="M195.303 105.987C196.567 95.6702 186.826 85.9879 173.546 84.361C160.266 82.7341 148.475 89.7787 147.212 100.095C145.948 110.412 155.689 120.095 168.969 121.721C182.249 123.348 194.039 116.304 195.303 105.987Z" fill="#F9E7BF"/>
<path opacity="0.23" d="M180.446 103.874C181.259 97.234 174.979 91.001 166.418 89.9522C157.858 88.9035 150.258 93.4361 149.445 100.076C148.631 106.716 154.912 112.949 163.473 113.998C172.033 115.047 179.633 110.514 180.446 103.874Z" fill="#FCFCF2"/>
<path opacity="0.55" d="M172.209 102.917C172.747 98.5273 168.601 94.4071 162.948 93.7147C157.296 93.0222 152.278 96.0198 151.74 100.41C151.202 104.8 155.348 108.92 161.001 109.613C166.653 110.305 171.671 107.308 172.209 102.917Z" fill="#FCFCF2"/>
<path d="M55.5795 72.3734C56.9711 61.0139 46.2214 50.3502 31.5693 48.5552C16.9173 46.7602 3.91133 54.5138 2.51973 65.8732C1.12812 77.2327 11.8778 87.8964 26.5299 89.6914C41.1819 91.4864 54.1879 83.7328 55.5795 72.3734Z" fill="#FAE4B2"/>
<path d="M55.5795 72.3734C56.9711 61.0139 46.2214 50.3502 31.5693 48.5552C16.9173 46.7602 3.91133 54.5138 2.51973 65.8732C1.12812 77.2327 11.8778 87.8964 26.5299 89.6914C41.1819 91.4864 54.1879 83.7328 55.5795 72.3734Z" stroke="#F2D59D" stroke-miterlimit="10"/>
<path opacity="0.74" d="M48.9274 71.9151C50.1106 62.2568 40.9714 53.1901 28.5144 51.6641C16.0574 50.138 4.99986 56.7305 3.81666 66.3888C2.63345 76.047 11.7727 85.1137 24.2296 86.6398C36.6866 88.1659 47.7442 81.5734 48.9274 71.9151Z" fill="#F9E7BF"/>
<path opacity="0.23" d="M35.0082 69.8323C35.7679 63.6312 29.8888 57.8086 21.8768 56.8271C13.8648 55.8456 6.75397 60.0768 5.9943 66.2779C5.23463 72.4789 11.1138 78.3016 19.1258 79.2831C27.1377 80.2646 34.2486 76.0333 35.0082 69.8323Z" fill="#FCFCF2"/>
<path opacity="0.55" d="M27.327 69.0241C27.8312 64.9084 23.9693 61.0487 18.7011 60.4033C13.433 59.7579 8.75354 62.5712 8.24933 66.687C7.74513 70.8027 11.6071 74.6624 16.8752 75.3077C22.1434 75.9531 26.8228 73.1398 27.327 69.0241Z" fill="#FCFCF2"/>
<path d="M153.498 117.636C154.984 105.508 143.51 94.1232 127.87 92.2072C112.23 90.2912 98.3474 98.5695 96.8617 110.697C95.3759 122.825 106.85 134.21 122.49 136.126C138.13 138.042 152.013 129.763 153.498 117.636Z" fill="#FAE4B2"/>
<path d="M153.498 117.636C154.984 105.508 143.51 94.1232 127.87 92.2072C112.23 90.2912 98.3474 98.5695 96.8617 110.697C95.3759 122.825 106.85 134.21 122.49 136.126C138.13 138.042 152.013 129.763 153.498 117.636Z" stroke="#F2D59D" stroke-miterlimit="10"/>
<path opacity="0.74" d="M146.378 117.061C147.642 106.745 137.901 97.0623 124.621 95.4354C111.34 93.8085 99.5502 100.853 98.2863 111.17C97.0225 121.487 106.764 131.169 120.044 132.796C133.324 134.423 145.114 127.378 146.378 117.061Z" fill="#F9E7BF"/>
<path opacity="0.23" d="M131.521 114.949C132.334 108.308 126.054 102.075 117.493 101.027C108.932 99.978 101.333 104.511 100.52 111.151C99.7061 117.791 105.987 124.024 114.547 125.073C123.108 126.121 130.707 121.589 131.521 114.949Z" fill="#FCFCF2"/>
<path opacity="0.55" d="M123.371 114.103C123.909 109.713 119.762 105.593 114.11 104.901C108.458 104.208 103.44 107.206 102.902 111.596C102.364 115.986 106.51 120.106 112.163 120.799C117.815 121.491 122.833 118.494 123.371 114.103Z" fill="#FCFCF2"/>
<path d="M90.6795 60.7132C92.1652 48.5855 80.691 37.2008 65.0512 35.2848C49.4114 33.3689 35.5284 41.6471 34.0427 53.7748C32.5569 65.9026 44.0311 77.2872 59.6709 79.2032C75.3107 81.1192 89.1937 72.8409 90.6795 60.7132Z" fill="#FAE4B2"/>
<path d="M90.6795 60.7132C92.1652 48.5855 80.691 37.2008 65.0512 35.2848C49.4114 33.3689 35.5284 41.6471 34.0427 53.7748C32.5569 65.9026 44.0311 77.2872 59.6709 79.2032C75.3107 81.1192 89.1937 72.8409 90.6795 60.7132Z" stroke="#F2D59D" stroke-miterlimit="10"/>
<path opacity="0.74" d="M83.5468 60.2384C84.8106 49.9216 75.0695 40.2393 61.7894 38.6124C48.5093 36.9855 36.719 44.0301 35.4552 54.3468C34.1913 64.6636 43.9324 74.3459 57.2125 75.9728C70.4926 77.5997 82.2829 70.5552 83.5468 60.2384Z" fill="#F9E7BF"/>
<path opacity="0.23" d="M68.6896 58.1255C69.5031 51.4854 63.2226 45.2524 54.6619 44.2036C46.1011 43.1549 38.5019 47.6875 37.6884 54.3276C36.8749 60.9677 43.1554 67.2007 51.7161 68.2494C60.2769 69.2982 67.8762 64.7655 68.6896 58.1255Z" fill="#FCFCF2"/>
<path opacity="0.55" d="M60.5517 57.181C61.0896 52.7909 56.9435 48.6707 51.2912 47.9782C45.6389 47.2858 40.6208 50.2833 40.083 54.6735C39.5452 59.0636 43.6913 63.1838 49.3436 63.8763C54.9958 64.5687 60.0139 61.5711 60.5517 57.181Z" fill="#FCFCF2"/>
<path d="M136.171 53.0642C137.657 40.9365 126.183 29.5518 110.543 27.6358C94.903 25.7199 81.02 33.9981 79.5343 46.1258C78.0486 58.2536 89.5228 69.6382 105.163 71.5542C120.802 73.4702 134.685 65.1919 136.171 53.0642Z" fill="#FAE4B2"/>
<path d="M136.171 53.0642C137.657 40.9365 126.183 29.5518 110.543 27.6358C94.903 25.7199 81.02 33.9981 79.5343 46.1258C78.0486 58.2536 89.5228 69.6382 105.163 71.5542C120.802 73.4702 134.685 65.1919 136.171 53.0642Z" stroke="#F2D59D" stroke-miterlimit="10"/>
<path opacity="0.74" d="M129.038 52.5895C130.302 42.2727 120.561 32.5904 107.281 30.9635C94.0008 29.3366 82.2106 36.3811 80.9467 46.6979C79.6828 57.0147 89.4239 66.697 102.704 68.3239C115.984 69.9508 127.774 62.9063 129.038 52.5895Z" fill="#F9E7BF"/>
<path opacity="0.23" d="M114.181 50.4765C114.995 43.8365 108.714 37.6035 100.153 36.5547C91.5927 35.506 83.9934 40.0386 83.1799 46.6787C82.3665 53.3188 88.6469 59.5518 97.2076 60.6005C105.768 61.6493 113.368 57.1166 114.181 50.4765Z" fill="#FCFCF2"/>
<path opacity="0.55" d="M105.944 49.5199C106.482 45.1298 102.336 41.0096 96.6835 40.3171C91.0312 39.6247 86.0131 42.6223 85.4753 47.0124C84.9375 51.4025 89.0836 55.5227 94.7358 56.2152C100.388 56.9076 105.406 53.9101 105.944 49.5199Z" fill="#FCFCF2"/>
<path d="M166.666 81.4635C168.152 69.3358 156.678 57.9511 141.038 56.0352C125.398 54.1192 111.515 62.3974 110.029 74.5251C108.543 86.6529 120.018 98.0375 135.657 99.9535C151.297 101.87 165.18 93.5913 166.666 81.4635Z" fill="#FAE4B2"/>
<path d="M166.666 81.4635C168.152 69.3358 156.678 57.9511 141.038 56.0352C125.398 54.1192 111.515 62.3974 110.029 74.5251C108.543 86.6529 120.018 98.0375 135.657 99.9535C151.297 101.87 165.18 93.5913 166.666 81.4635Z" stroke="#F2D59D" stroke-miterlimit="10"/>
<path opacity="0.74" d="M159.545 80.8894C160.809 70.5726 151.068 60.8904 137.788 59.2635C124.508 57.6366 112.718 64.6811 111.454 74.9979C110.19 85.3147 119.931 94.997 133.211 96.6239C146.491 98.2508 158.282 91.2062 159.545 80.8894Z" fill="#F9E7BF"/>
<path opacity="0.23" d="M144.688 78.7765C145.502 72.1364 139.221 65.9034 130.661 64.8547C122.1 63.8059 114.501 68.3386 113.687 74.9787C112.874 81.6187 119.154 87.8517 127.715 88.9005C136.276 89.9492 143.875 85.4166 144.688 78.7765Z" fill="#FCFCF2"/>
<path opacity="0.55" d="M136.451 77.8199C136.989 73.4298 132.843 69.3095 127.191 68.6171C121.538 67.9247 116.52 70.9222 115.982 75.3123C115.445 79.7025 119.591 83.8227 125.243 84.5152C130.895 85.2076 135.913 82.21 136.451 77.8199Z" fill="#FCFCF2"/>
<path d="M122.048 84.2492C123.534 72.1215 112.06 60.7368 96.42 58.8209C80.7802 56.9049 66.8972 65.1831 65.4114 77.3109C63.9257 89.4386 75.3999 100.823 91.0397 102.739C106.68 104.655 120.563 96.377 122.048 84.2492Z" fill="#FAE4B2"/>
<path d="M122.048 84.2492C123.534 72.1215 112.06 60.7368 96.42 58.8209C80.7802 56.9049 66.8972 65.1831 65.4114 77.3109C63.9257 89.4386 75.3999 100.823 91.0397 102.739C106.68 104.655 120.563 96.377 122.048 84.2492Z" stroke="#F2D59D" stroke-miterlimit="10"/>
<path opacity="0.74" d="M114.928 83.6751C116.192 73.3583 106.45 63.6761 93.1704 62.0492C79.8902 60.4223 68.1 67.4668 66.8361 77.7836C65.5722 88.1004 75.3133 97.7827 88.5935 99.4096C101.874 101.036 113.664 93.9919 114.928 83.6751Z" fill="#F9E7BF"/>
<path opacity="0.23" d="M100.17 81.5744C100.983 74.9343 94.703 68.7013 86.1422 67.6526C77.5815 66.6038 69.9822 71.1365 69.1687 77.7765C68.3553 84.4166 74.6357 90.6496 83.1965 91.6984C91.7572 92.7471 99.3565 88.2145 100.17 81.5744Z" fill="#FCFCF2"/>
<path opacity="0.55" d="M91.9328 80.6178C92.4706 76.2276 88.3245 72.1074 82.6722 71.415C77.0199 70.7225 72.0019 73.7201 71.464 78.1102C70.9262 82.5003 75.0723 86.6206 80.7246 87.313C86.3769 88.0055 91.395 85.0079 91.9328 80.6178Z" fill="#FCFCF2"/>
<path d="M444.461 128.3C458.104 122.664 465.621 109.522 461.251 98.9449C456.882 88.3683 442.281 84.3629 428.638 89.9988C414.996 95.6347 407.479 108.778 411.848 119.354C416.217 129.931 430.819 133.936 444.461 128.3Z" fill="#FAE4B2"/>
<path d="M444.461 128.3C458.104 122.664 465.621 109.522 461.251 98.9449C456.882 88.3683 442.281 84.3629 428.638 89.9988C414.996 95.6347 407.479 108.778 411.848 119.354C416.217 129.931 430.819 133.936 444.461 128.3Z" stroke="#F2D59D" stroke-miterlimit="10"/>
<path opacity="0.74" d="M445.586 124.14C457.184 119.349 463.575 108.174 459.86 99.1817C456.145 90.189 443.731 86.7832 432.132 91.5748C420.534 96.3663 414.143 107.541 417.858 116.533C421.573 125.526 433.987 128.932 445.586 124.14Z" fill="#F9E7BF"/>
<path opacity="0.23" d="M448.882 116.28C456.342 113.198 460.456 106.019 458.071 100.246C455.685 94.472 447.704 92.2897 440.245 95.3715C432.785 98.4533 428.671 105.632 431.056 111.406C433.441 117.18 441.422 119.362 448.882 116.28Z" fill="#FCFCF2"/>
<path opacity="0.55" d="M449.948 111.669C454.853 109.643 457.546 104.894 455.963 101.061C454.38 97.2293 449.12 95.7655 444.215 97.7918C439.31 99.8182 436.617 104.567 438.2 108.4C439.783 112.232 445.043 113.696 449.948 111.669Z" fill="#FCFCF2"/>
<path d="M404.341 151.005C417.983 145.369 425.5 132.227 421.131 121.65C416.761 111.073 402.16 107.068 388.518 112.704C374.875 118.34 367.358 131.482 371.727 142.059C376.097 152.636 390.698 156.641 404.341 151.005Z" fill="#FAE4B2"/>
<path d="M404.341 151.005C417.983 145.369 425.5 132.227 421.131 121.65C416.761 111.073 402.16 107.068 388.518 112.704C374.875 118.34 367.358 131.482 371.727 142.059C376.097 152.636 390.698 156.641 404.341 151.005Z" stroke="#F2D59D" stroke-miterlimit="10"/>
<path opacity="0.74" d="M405.465 146.845C417.064 142.054 423.454 130.879 419.739 121.887C416.024 112.894 403.61 109.488 392.012 114.28C380.413 119.071 374.022 130.245 377.737 139.238C381.452 148.231 393.866 151.637 405.465 146.845Z" fill="#F9E7BF"/>
<path opacity="0.23" d="M408.669 139.023C416.129 135.941 420.243 128.762 417.857 122.989C415.472 117.215 407.491 115.033 400.031 118.115C392.571 121.196 388.458 128.375 390.843 134.149C393.228 139.923 401.209 142.105 408.669 139.023Z" fill="#FCFCF2"/>
<path opacity="0.55" d="M409.696 134.32C414.601 132.293 417.294 127.544 415.711 123.712C414.128 119.88 408.868 118.416 403.963 120.442C399.058 122.469 396.365 127.218 397.948 131.05C399.531 134.882 404.791 136.346 409.696 134.32Z" fill="#FCFCF2"/>
<path d="M295.836 127.772C309.478 122.136 316.995 108.993 312.626 98.4168C308.257 87.8401 293.655 83.8348 280.013 89.4707C266.37 95.1065 258.853 108.249 263.223 118.826C267.592 129.403 282.193 133.408 295.836 127.772Z" fill="#FAE4B2"/>
<path d="M295.836 127.772C309.478 122.136 316.995 108.993 312.626 98.4168C308.257 87.8401 293.655 83.8348 280.013 89.4707C266.37 95.1065 258.853 108.249 263.223 118.826C267.592 129.403 282.193 133.408 295.836 127.772Z" stroke="#F2D59D" stroke-miterlimit="10"/>
<path opacity="0.74" d="M296.96 123.612C308.559 118.821 314.949 107.646 311.234 98.6535C307.519 89.6608 295.105 86.2551 283.507 91.0466C271.908 95.8381 265.517 107.012 269.232 116.005C272.947 124.998 285.361 128.404 296.96 123.612Z" fill="#F9E7BF"/>
<path opacity="0.23" d="M300.164 115.79C307.624 112.708 311.738 105.529 309.353 99.7557C306.967 93.9819 298.986 91.7997 291.526 94.8815C284.067 97.9632 279.953 105.142 282.338 110.916C284.723 116.69 292.704 118.872 300.164 115.79Z" fill="#FCFCF2"/>
<path opacity="0.55" d="M301.191 111.087C306.096 109.06 308.789 104.311 307.206 100.479C305.623 96.6469 300.363 95.183 295.458 97.2094C290.553 99.2358 287.86 103.985 289.443 107.817C291.026 111.649 296.286 113.113 301.191 111.087Z" fill="#FCFCF2"/>
<path d="M324.076 145.788C338.638 139.772 346.662 125.741 341.997 114.449C337.332 103.157 321.745 98.88 307.183 104.896C292.621 110.912 284.598 124.942 289.263 136.234C293.928 147.526 309.514 151.804 324.076 145.788Z" fill="#FAE4B2"/>
<path d="M324.076 145.788C338.638 139.772 346.662 125.741 341.997 114.449C337.332 103.157 321.745 98.88 307.183 104.896C292.621 110.912 284.598 124.942 289.263 136.234C293.928 147.526 309.514 151.804 324.076 145.788Z" stroke="#F2D59D" stroke-miterlimit="10"/>
<path opacity="0.74" d="M325.224 141.365C337.589 136.257 344.396 124.329 340.428 114.723C336.459 105.117 323.219 101.471 310.854 106.579C298.489 111.687 291.682 123.616 295.65 133.221C299.618 142.827 312.859 146.473 325.224 141.365Z" fill="#F9E7BF"/>
<path opacity="0.23" d="M328.688 133.062C336.658 129.769 341.05 122.088 338.496 115.906C335.941 109.723 327.409 107.381 319.438 110.673C311.468 113.966 307.077 121.648 309.631 127.83C312.185 134.013 320.717 136.355 328.688 133.062Z" fill="#FCFCF2"/>
<path opacity="0.55" d="M329.827 128.064C335.09 125.89 337.988 120.814 336.299 116.726C334.61 112.639 328.975 111.087 323.712 113.261C318.449 115.436 315.552 120.512 317.241 124.599C318.929 128.687 324.565 130.238 329.827 128.064Z" fill="#FCFCF2"/>
<path d="M363.324 151.508C377.886 145.492 385.909 131.461 381.244 120.169C376.58 108.877 360.993 104.6 346.431 110.616C331.869 116.632 323.846 130.662 328.51 141.954C333.175 153.246 348.762 157.524 363.324 151.508Z" fill="#FAE4B2"/>
<path d="M363.324 151.508C377.886 145.492 385.909 131.461 381.244 120.169C376.58 108.877 360.993 104.6 346.431 110.616C331.869 116.632 323.846 130.662 328.51 141.954C333.175 153.246 348.762 157.524 363.324 151.508Z" stroke="#F2D59D" stroke-miterlimit="10"/>
<path opacity="0.74" d="M364.564 147.047C376.929 141.939 383.736 130.011 379.768 120.405C375.8 110.799 362.559 107.153 350.194 112.261C337.829 117.369 331.022 129.297 334.99 138.903C338.959 148.509 352.199 152.155 364.564 147.047Z" fill="#F9E7BF"/>
<path opacity="0.23" d="M368.028 138.744C375.999 135.451 380.39 127.77 377.836 121.587C375.282 115.405 366.75 113.062 358.779 116.355C350.808 119.648 346.417 127.329 348.971 133.512C351.525 139.694 360.057 142.037 368.028 138.744Z" fill="#FCFCF2"/>
<path opacity="0.55" d="M369.168 133.746C374.43 131.572 377.328 126.495 375.639 122.408C373.951 118.32 368.315 116.769 363.053 118.943C357.79 121.117 354.892 126.193 356.581 130.281C358.27 134.369 363.905 135.92 369.168 133.746Z" fill="#FCFCF2"/>
<path d="M306.64 85.5612C320.282 79.9254 327.8 66.7825 323.43 56.2058C319.061 45.6292 304.459 41.6238 290.817 47.2597C277.175 52.8956 269.657 66.0384 274.027 76.6151C278.396 87.1917 292.998 91.1971 306.64 85.5612Z" fill="#FAE4B2"/>
<path d="M306.64 85.5612C320.282 79.9254 327.8 66.7825 323.43 56.2058C319.061 45.6292 304.459 41.6238 290.817 47.2597C277.175 52.8956 269.657 66.0384 274.027 76.6151C278.396 87.1917 292.998 91.1971 306.64 85.5612Z" stroke="#F2D59D" stroke-miterlimit="10"/>
<path opacity="0.74" d="M307.857 81.363C319.455 76.5714 325.846 65.3971 322.131 56.4044C318.416 47.4116 306.002 44.0059 294.404 48.7974C282.805 53.589 276.414 64.7633 280.129 73.756C283.844 82.7488 296.258 86.1545 307.857 81.363Z" fill="#F9E7BF"/>
<path opacity="0.23" d="M311.061 73.5408C318.521 70.4591 322.635 63.2802 320.249 57.5065C317.864 51.7328 309.883 49.5505 302.423 52.6323C294.963 55.7141 290.85 62.8929 293.235 68.6666C295.62 74.4403 303.601 76.6226 311.061 73.5408Z" fill="#FCFCF2"/>
<path opacity="0.55" d="M312.126 68.9301C317.031 66.9037 319.724 62.1545 318.141 58.3223C316.558 54.4902 311.298 53.0263 306.393 55.0527C301.488 57.0791 298.795 61.8283 300.378 65.6605C301.961 69.4926 307.221 70.9565 312.126 68.9301Z" fill="#FCFCF2"/>
<path d="M342.491 54.4256C356.134 48.7898 363.651 35.6469 359.282 25.0703C354.912 14.4936 340.311 10.4883 326.668 16.1241C313.026 21.76 305.509 34.9028 309.878 45.4795C314.248 56.0562 328.849 60.0615 342.491 54.4256Z" fill="#FAE4B2"/>
<path d="M342.491 54.4256C356.134 48.7898 363.651 35.6469 359.282 25.0703C354.912 14.4936 340.311 10.4883 326.668 16.1241C313.026 21.76 305.509 34.9028 309.878 45.4795C314.248 56.0562 328.849 60.0615 342.491 54.4256Z" stroke="#F2D59D" stroke-miterlimit="10"/>
<path opacity="0.74" d="M343.708 50.2274C355.307 45.4359 361.698 34.2615 357.983 25.2688C354.268 16.2761 341.853 12.8703 330.255 17.6619C318.656 22.4534 312.265 33.6277 315.98 42.6205C319.695 51.6132 332.11 55.0189 343.708 50.2274Z" fill="#F9E7BF"/>
<path opacity="0.23" d="M346.874 42.3128C354.334 39.2311 358.448 32.0522 356.062 26.2785C353.677 20.5048 345.696 18.3225 338.236 21.4043C330.777 24.4861 326.663 31.6649 329.048 37.4386C331.433 43.2124 339.414 45.3946 346.874 42.3128Z" fill="#FCFCF2"/>
<path opacity="0.55" d="M347.939 37.702C352.844 35.6756 355.538 30.9264 353.954 27.0942C352.371 23.2621 347.112 21.7983 342.206 23.8246C337.301 25.851 334.608 30.6003 336.191 34.4324C337.774 38.2645 343.034 39.7284 347.939 37.702Z" fill="#FCFCF2"/>
<path d="M388.518 48.5061C402.16 42.8703 409.677 29.7274 405.308 19.1508C400.938 8.57409 386.337 4.56876 372.695 10.2046C359.052 15.8405 351.535 28.9833 355.904 39.56C360.274 50.1367 374.875 54.142 388.518 48.5061Z" fill="#FAE4B2"/>
<path d="M388.518 48.5061C402.16 42.8703 409.677 29.7274 405.308 19.1508C400.938 8.57409 386.337 4.56876 372.695 10.2046C359.052 15.8405 351.535 28.9833 355.904 39.56C360.274 50.1367 374.875 54.142 388.518 48.5061Z" stroke="#F2D59D" stroke-miterlimit="10"/>
<path opacity="0.74" d="M389.642 44.3461C401.24 39.5546 407.631 28.3802 403.916 19.3875C400.201 10.3948 387.787 6.98903 376.189 11.7806C364.59 16.5721 358.199 27.7464 361.914 36.7392C365.629 45.7319 378.043 49.1376 389.642 44.3461Z" fill="#F9E7BF"/>
<path opacity="0.23" d="M392.846 36.524C400.306 33.4422 404.42 26.2634 402.034 20.4896C399.649 14.7159 391.668 12.5336 384.208 15.6154C376.748 18.6972 372.634 25.876 375.02 31.6498C377.405 37.4235 385.386 39.6057 392.846 36.524Z" fill="#FCFCF2"/>
<path opacity="0.55" d="M394.004 31.875C398.909 29.8486 401.602 25.0994 400.019 21.2672C398.436 17.4351 393.176 15.9713 388.271 17.9976C383.366 20.024 380.673 24.7733 382.256 28.6054C383.839 32.4375 389.099 33.9014 394.004 31.875Z" fill="#FCFCF2"/>
<path d="M467.011 96.58C480.653 90.9442 488.17 77.8013 483.801 67.2247C479.432 56.648 464.83 52.6427 451.188 58.2785C437.545 63.9144 430.028 77.0572 434.398 87.6339C438.767 98.2106 453.368 102.216 467.011 96.58Z" fill="#FAE4B2"/>
<path d="M467.011 96.58C480.653 90.9442 488.17 77.8013 483.801 67.2247C479.432 56.648 464.83 52.6427 451.188 58.2785C437.545 63.9144 430.028 77.0572 434.398 87.6339C438.767 98.2106 453.368 102.216 467.011 96.58Z" stroke="#F2D59D" stroke-miterlimit="10"/>
<path opacity="0.74" d="M468.228 92.3818C479.826 87.5903 486.217 76.4159 482.502 67.4232C478.787 58.4305 466.373 55.0247 454.774 59.8163C443.176 64.6078 436.785 75.7821 440.5 84.7749C444.215 93.7676 456.629 97.1733 468.228 92.3818Z" fill="#F9E7BF"/>
<path opacity="0.23" d="M471.432 84.5597C478.892 81.4779 483.005 74.2991 480.62 68.5253C478.235 62.7516 470.254 60.5693 462.794 63.6511C455.334 66.7329 451.22 73.9117 453.606 79.6855C455.991 85.4592 463.972 87.6415 471.432 84.5597Z" fill="#FCFCF2"/>
<path opacity="0.55" d="M472.459 79.8564C477.364 77.83 480.057 73.0808 478.474 69.2487C476.891 65.4165 471.631 63.9527 466.726 65.979C461.821 68.0054 459.128 72.7547 460.711 76.5868C462.294 80.4189 467.554 81.8828 472.459 79.8564Z" fill="#FCFCF2"/>
<path d="M431.206 53.4261C445.768 47.4103 453.791 33.3796 449.126 22.0876C444.461 10.7956 428.875 6.51838 414.313 12.5342C399.751 18.55 391.727 32.5807 396.392 43.8727C401.057 55.1647 416.644 59.4419 431.206 53.4261Z" fill="#FAE4B2"/>
<path d="M431.206 53.4261C445.768 47.4103 453.791 33.3796 449.126 22.0876C444.461 10.7956 428.875 6.51838 414.313 12.5342C399.751 18.55 391.727 32.5807 396.392 43.8727C401.057 55.1647 416.644 59.4419 431.206 53.4261Z" stroke="#F2D59D" stroke-miterlimit="10"/>
<path opacity="0.74" d="M432.446 48.9653C444.811 43.8571 451.618 31.9291 447.65 22.3232C443.681 12.7173 430.441 9.07121 418.076 14.1794C405.711 19.2875 398.904 31.2156 402.872 40.8215C406.84 50.4273 420.081 54.0734 432.446 48.9653Z" fill="#F9E7BF"/>
<path opacity="0.23" d="M435.871 40.5697C443.842 37.2768 448.233 29.5956 445.679 23.4131C443.125 17.2306 434.593 14.888 426.622 18.1809C418.651 21.4738 414.26 29.1551 416.814 35.3376C419.368 41.5201 427.901 43.8626 435.871 40.5697Z" fill="#FCFCF2"/>
<path opacity="0.55" d="M437.011 35.5715C442.274 33.3974 445.171 28.3212 443.483 24.2336C441.794 20.146 436.159 18.5949 430.896 20.769C425.633 22.9431 422.736 28.0193 424.424 32.1069C426.113 36.1945 431.748 37.7457 437.011 35.5715Z" fill="#FCFCF2"/>
<path d="M322.383 108.862C336.945 102.846 344.968 88.815 340.303 77.523C335.638 66.231 320.052 61.9538 305.49 67.9696C290.928 73.9854 282.904 88.0161 287.569 99.3081C292.234 110.6 307.821 114.877 322.383 108.862Z" fill="#FAE4B2"/>
<path d="M322.383 108.862C336.945 102.846 344.968 88.815 340.303 77.523C335.638 66.231 320.052 61.9538 305.49 67.9696C290.928 73.9854 282.904 88.0161 287.569 99.3081C292.234 110.6 307.821 114.877 322.383 108.862Z" stroke="#F2D59D" stroke-miterlimit="10"/>
<path opacity="0.74" d="M323.623 104.401C335.988 99.2925 342.795 87.3645 338.827 77.7586C334.858 68.1527 321.618 64.5066 309.253 69.6148C296.888 74.7229 290.081 86.651 294.049 96.2569C298.017 105.863 311.258 109.509 323.623 104.401Z" fill="#F9E7BF"/>
<path opacity="0.23" d="M327.087 96.0976C335.057 92.8048 339.449 85.1235 336.895 78.941C334.34 72.7585 325.808 70.416 317.838 73.7088C309.867 77.0017 305.476 84.683 308.03 90.8655C310.584 97.048 319.116 99.3905 327.087 96.0976Z" fill="#FCFCF2"/>
<path opacity="0.55" d="M328.226 91.0995C333.489 88.9254 336.387 83.8493 334.698 79.7617C333.009 75.6741 327.374 74.1229 322.111 76.297C316.849 78.4712 313.951 83.5473 315.64 87.6349C317.328 91.7225 322.964 93.2737 328.226 91.0995Z" fill="#FCFCF2"/>
<path d="M464.79 65.8349C478.432 60.199 485.95 47.0562 481.58 36.4795C477.211 25.9028 462.61 21.8975 448.967 27.5333C435.325 33.1692 427.808 46.3121 432.177 56.8887C436.546 67.4654 451.148 71.4707 464.79 65.8349Z" fill="#FAE4B2"/>
<path d="M464.79 65.8349C478.432 60.199 485.95 47.0562 481.58 36.4795C477.211 25.9028 462.61 21.8975 448.967 27.5333C435.325 33.1692 427.808 46.3121 432.177 56.8887C436.546 67.4654 451.148 71.4707 464.79 65.8349Z" stroke="#F2D59D" stroke-miterlimit="10"/>
<path opacity="0.74" d="M465.915 61.6748C477.513 56.8833 483.904 45.709 480.189 36.7162C476.474 27.7235 464.06 24.3178 452.461 29.1093C440.863 33.9008 434.472 45.0752 438.187 54.0679C441.902 63.0606 454.316 66.4664 465.915 61.6748Z" fill="#F9E7BF"/>
<path opacity="0.23" d="M469.211 53.8146C476.671 50.7328 480.785 43.554 478.4 37.7803C476.014 32.0065 468.033 29.8243 460.573 32.906C453.114 35.9878 449 43.1666 451.385 48.9404C453.77 54.7141 461.751 56.8964 469.211 53.8146Z" fill="#FCFCF2"/>
<path opacity="0.55" d="M470.276 49.2037C475.182 47.1774 477.875 42.4281 476.291 38.596C474.708 34.7639 469.449 33.3 464.543 35.3264C459.638 37.3528 456.945 42.102 458.528 45.9341C460.112 49.7663 465.371 51.2301 470.276 49.2037Z" fill="#FCFCF2"/>
<path d="M359.518 75.125C374.08 69.1092 382.103 55.0785 377.438 43.7865C372.773 32.4945 357.187 28.2173 342.625 34.2331C328.063 40.2489 320.039 54.2796 324.704 65.5716C329.369 76.8636 344.956 81.1408 359.518 75.125Z" fill="#FAE4B2"/>
<path d="M359.518 75.125C374.08 69.1092 382.103 55.0785 377.438 43.7865C372.773 32.4945 357.187 28.2173 342.625 34.2331C328.063 40.2489 320.039 54.2796 324.704 65.5716C329.369 76.8636 344.956 81.1408 359.518 75.125Z" stroke="#F2D59D" stroke-miterlimit="10"/>
<path opacity="0.74" d="M360.758 70.6642C373.123 65.556 379.93 53.6279 375.962 44.0221C371.993 34.4162 358.753 30.7701 346.388 35.8782C334.023 40.9864 327.216 52.9145 331.184 62.5203C335.153 72.1262 348.393 75.7723 360.758 70.6642Z" fill="#F9E7BF"/>
<path opacity="0.23" d="M364.222 62.3611C372.193 59.0682 376.584 51.3869 374.03 45.2044C371.476 39.022 362.943 36.6794 354.973 39.9723C347.002 43.2652 342.611 50.9465 345.165 57.129C347.719 63.3115 356.251 65.654 364.222 62.3611Z" fill="#FCFCF2"/>
<path opacity="0.55" d="M365.361 57.3629C370.624 55.1888 373.522 50.1126 371.833 46.025C370.144 41.9374 364.509 40.3863 359.246 42.5604C353.984 44.7345 351.086 49.8107 352.775 53.8983C354.463 57.9859 360.099 59.537 365.361 57.3629Z" fill="#FCFCF2"/>
<path d="M442.13 93.8691C456.693 87.8533 464.716 73.8226 460.051 62.5306C455.386 51.2386 439.8 46.9614 425.237 52.9772C410.675 58.993 402.652 73.0237 407.317 84.3157C411.982 95.6077 427.568 99.8849 442.13 93.8691Z" fill="#FAE4B2"/>
<path d="M442.13 93.8691C456.693 87.8533 464.716 73.8226 460.051 62.5306C455.386 51.2386 439.8 46.9614 425.237 52.9772C410.675 58.993 402.652 73.0237 407.317 84.3157C411.982 95.6077 427.568 99.8849 442.13 93.8691Z" stroke="#F2D59D" stroke-miterlimit="10"/>
<path opacity="0.74" d="M443.371 89.4084C455.736 84.3002 462.543 72.3722 458.574 62.7663C454.606 53.1604 441.365 49.5143 429 54.6225C416.635 59.7306 409.829 71.6587 413.797 81.2646C417.765 90.8704 431.006 94.5165 443.371 89.4084Z" fill="#F9E7BF"/>
<path opacity="0.23" d="M446.796 81.0128C454.767 77.72 459.158 70.0387 456.604 63.8562C454.05 57.6737 445.518 55.3312 437.547 58.624C429.576 61.9169 425.185 69.5982 427.739 75.7807C430.293 81.9632 438.825 84.3057 446.796 81.0128Z" fill="#FCFCF2"/>
<path opacity="0.55" d="M447.936 76.0146C453.199 73.8405 456.096 68.7644 454.407 64.6768C452.719 60.5892 447.084 59.038 441.821 61.2121C436.558 63.3863 433.661 68.4624 435.349 72.55C437.038 76.6376 442.673 78.1888 447.936 76.0146Z" fill="#FCFCF2"/>
<path d="M406.362 122.77C420.925 116.754 428.948 102.723 424.283 91.4311C419.618 80.1391 404.032 75.8619 389.469 81.8777C374.907 87.8935 366.884 101.924 371.549 113.216C376.214 124.508 391.8 128.785 406.362 122.77Z" fill="#FAE4B2"/>
<path d="M406.362 122.77C420.925 116.754 428.948 102.723 424.283 91.4311C419.618 80.1391 404.032 75.8619 389.469 81.8777C374.907 87.8935 366.884 101.924 371.549 113.216C376.214 124.508 391.8 128.785 406.362 122.77Z" stroke="#F2D59D" stroke-miterlimit="10"/>
<path opacity="0.74" d="M407.51 118.347C419.875 113.239 426.682 101.311 422.714 91.705C418.746 82.0991 405.505 78.453 393.14 83.5611C380.775 88.6693 373.968 100.597 377.936 110.203C381.905 119.809 395.145 123.455 407.51 118.347Z" fill="#F9E7BF"/>
<path opacity="0.23" d="M410.974 110.044C418.945 106.751 423.336 99.0699 420.782 92.8874C418.228 86.7049 409.695 84.3623 401.725 87.6552C393.754 90.9481 389.363 98.6293 391.917 104.812C394.471 110.994 403.003 113.337 410.974 110.044Z" fill="#FCFCF2"/>
<path opacity="0.55" d="M412.114 105.046C417.376 102.872 420.274 97.7955 418.585 93.7079C416.896 89.6203 411.261 88.0692 405.998 90.2433C400.736 92.4174 397.838 97.4936 399.527 101.581C401.216 105.669 406.851 107.22 412.114 105.046Z" fill="#FCFCF2"/>
<path d="M365.817 113.082C380.379 107.066 388.403 93.0354 383.738 81.7434C379.073 70.4514 363.486 66.1742 348.924 72.19C334.362 78.2058 326.339 92.2365 331.004 103.529C335.669 114.821 351.255 119.098 365.817 113.082Z" fill="#FAE4B2"/>
<path d="M365.817 113.082C380.379 107.066 388.403 93.0354 383.738 81.7434C379.073 70.4514 363.486 66.1742 348.924 72.19C334.362 78.2058 326.339 92.2365 331.004 103.529C335.669 114.821 351.255 119.098 365.817 113.082Z" stroke="#F2D59D" stroke-miterlimit="10"/>
<path opacity="0.74" d="M367.058 108.621C379.423 103.513 386.23 91.585 382.261 81.9791C378.293 72.3732 365.052 68.7271 352.687 73.8353C340.322 78.9434 333.515 90.8715 337.484 100.477C341.452 110.083 354.693 113.729 367.058 108.621Z" fill="#F9E7BF"/>
<path opacity="0.23" d="M370.521 100.318C378.492 97.0253 382.883 89.344 380.329 83.1615C377.775 76.979 369.243 74.6365 361.272 77.9293C353.301 81.2222 348.91 88.9035 351.464 95.086C354.018 101.268 362.55 103.611 370.521 100.318Z" fill="#FCFCF2"/>
<path opacity="0.55" d="M371.661 95.3199C376.924 93.1458 379.821 88.0697 378.132 83.9821C376.444 79.8945 370.809 78.3433 365.546 80.5174C360.283 82.6915 357.386 87.7677 359.074 91.8553C360.763 95.9429 366.398 97.4941 371.661 95.3199Z" fill="#FCFCF2"/>
<path d="M403.285 88.8457C417.848 82.8299 425.871 68.7992 421.206 57.5072C416.541 46.2152 400.954 41.9379 386.392 47.9537C371.83 53.9696 363.807 68.0003 368.472 79.2923C373.137 90.5843 388.723 94.8615 403.285 88.8457Z" fill="#FAE4B2"/>
<path d="M403.285 88.8457C417.848 82.8299 425.871 68.7992 421.206 57.5072C416.541 46.2152 400.954 41.9379 386.392 47.9537C371.83 53.9696 363.807 68.0003 368.472 79.2923C373.137 90.5843 388.723 94.8615 403.285 88.8457Z" stroke="#F2D59D" stroke-miterlimit="10"/>
<path opacity="0.74" d="M404.526 84.3848C416.891 79.2767 423.698 67.3486 419.729 57.7427C415.761 48.1369 402.52 44.4908 390.155 49.5989C377.79 54.7071 370.983 66.6351 374.952 76.241C378.92 85.8469 392.161 89.493 404.526 84.3848Z" fill="#F9E7BF"/>
<path opacity="0.23" d="M407.951 75.9893C415.922 72.6964 420.313 65.0151 417.759 58.8326C415.205 52.6501 406.673 50.3076 398.702 53.6005C390.731 56.8933 386.34 64.5746 388.894 70.7571C391.448 76.9396 399.98 79.2821 407.951 75.9893Z" fill="#FCFCF2"/>
<path opacity="0.55" d="M409.091 70.9911C414.354 68.8169 417.251 63.7408 415.562 59.6532C413.874 55.5656 408.239 54.0144 402.976 56.1886C397.713 58.3627 394.816 63.4388 396.504 67.5264C398.193 71.614 403.828 73.1652 409.091 70.9911Z" fill="#FCFCF2"/>
</g>
<defs>
<clipPath id="clip0_3025:498045">
<rect width="491.204" height="162.831" fill="white" transform="scale(1.00104)"/>
</clipPath>
</defs>
</svg>
