<svg width="360" height="378" viewBox="0 0 360 378" fill="none" xmlns="http://www.w3.org/2000/svg">
<mask id="mask0_4109_264350" style="mask-type:alpha" maskUnits="userSpaceOnUse" x="175" y="211" width="43" height="81">
<path d="M177.8 252.6C178.3 252.9 179 253.5 179.8 254.1C180.6 254.7 181.2 255.1 181.5 255.3C182.7 256.2 184.2 257.5 186.9 259.9C187.6 260.5 188.3 261.1 189.2 262.1C189.9 262.9 190.3 263.4 190.6 263.9C191.2 265.1 191.3 266.6 191.4 267C191.4 267.3 191.5 267.6 191.6 268.1C191.6 268.1 191.8 268.9 192.2 269.6C192.8 270.7 194 271.3 194.6 271.6C194.6 271.6 197.4 273.2 200.5 276C200.9 276.4 201.6 277.1 202.3 278.1C202.8 278.8 203 279.4 203.1 279.7C203.8 281.2 205 282.5 206.9 284.5C208.7 286.4 210 287.5 212.6 289.5C214.1 290.7 215.2 291.5 216.1 291.1C216.7 290.9 217 290.2 217.3 289.6C218.5 286.7 217.3 283.4 216.5 281.4C216.2 280.7 215.8 280 215.8 280C215.5 279.4 215.2 279.1 215.1 278.9C214.3 277.8 213.9 276.1 213.8 275.5C213.3 273.4 213.8 272.7 213.6 268.2C213.6 267.6 213.6 267.1 213.5 266.3C213.2 262.7 212.6 261.4 211.4 255.8C211 254 211 253.6 210.6 252.3C210.3 251.3 209.9 249.7 209.2 247.8C207.6 243.7 205.6 240.1 205.6 240.1C205.6 240.1 206.4 236 206.7 234.1C207.2 230.9 207.8 226.9 206.4 222.6C205.9 221.2 204.5 217.2 200.4 214.4C199.7 213.9 195.3 211 189.5 211.9C188.3 212.1 184.2 212.7 181.6 216.1C180.9 216.9 180.6 217.7 179.9 219.2C179.2 220.7 178.3 223 177.3 228.1C177.1 229.3 176.4 232.6 176 237.1C176 237.1 175.4 242.7 176 247.7C176 248.3 176.1 248.8 176.2 249.2C176.2 249.3 176.4 249.8 176.7 250.4C176.8 251 177.2 251.8 177.8 252.6Z" fill="#892A26"/>
</mask>
<g mask="url(#mask0_4109_264350)">
<path d="M188 264C184.877 258.934 172.657 255.959 177.5 252.5C180.3 250.5 183.882 246.5 185 246.5C189 246.5 192.785 251.715 194.5 250C197 247.5 196.896 245.068 199.5 243C202.235 240.828 204.01 239.366 207.5 239.5C214.287 239.761 211.448 249.388 213 256C214.755 263.474 213.191 268.178 215.5 275.5C216.711 279.339 219.772 280.984 219.5 285C219.282 288.225 218.36 290.291 216 292.5C209.721 298.377 206.013 283.478 199 278.5C196.129 276.462 193.732 276.222 191.5 273.5C188.993 270.443 190.074 267.366 188 264Z" fill="#B45D5D"/>
<path d="M191 263.5C189.5 261.5 181.5 254.5 177 252.5C172.5 250.5 184.469 259.201 187.5 264C188.807 266.069 189.085 267.504 190.5 269.5C193.22 273.336 196.533 273.851 199.5 277.5C201.55 280.021 201.864 282.051 204 284.5C207.987 289.072 212.588 297.162 217 293C218.713 291.384 219.03 289.818 219.497 287.513L219.5 287.5C220.469 282.716 216.88 280.301 216 275.5C215.187 271.066 215.683 268.456 215 264C213.418 253.684 206.5 236.5 206 239C205.853 239.734 206 241.5 208.5 249C211.106 256.818 209.254 254.793 210 263C210.5 268.5 209.521 272.439 204 273.5C199.089 274.444 196.967 272.605 193.5 269C192.057 267.5 192.5 265.5 191 263.5Z" fill="#9F4341"/>
</g>
</svg>
