<svg width="360" height="378" viewBox="0 0 360 378" fill="none" xmlns="http://www.w3.org/2000/svg">
<mask id="mask0_4109_264335" style="mask-type:alpha" maskUnits="userSpaceOnUse" x="137" y="219" width="60" height="76">
<path d="M139.2 235.4C139.1 236.2 139 237.1 139 237.1C138.9 238.3 138.9 240.2 138.9 241.7C138.9 241.9 138.8 242.7 138.7 243.8C138.5 245.1 138.3 246 138.2 246.2C136.6 252.7 137.8 256.8 137.8 256.8C138 257.5 138.8 260.1 140.7 262.4C140.7 262.4 140.9 262.6 143.1 265.1C143.3 265.4 143.5 265.8 143.8 266.4C144.4 267.7 144.5 268.4 145.1 269.5C145.2 269.6 145.5 270.2 146 270.9C147.5 272.9 149.4 274 151.2 275.6C151.3 275.7 151.6 275.9 151.8 276.2C152.3 276.7 152.5 277.1 152.6 277.3C153 278 153.6 278.6 154.6 279.5C156 280.9 158.7 282.9 162.5 284.4C163.9 284.9 164.9 285.2 165.4 285.3C169.7 286.4 171.5 287.6 181.8 291.8C183.5 292.5 190.2 295.2 194.2 294.2C195.6 293.9 196 293.2 196 293C196.4 291.9 195.3 290.5 194.5 289.5C192.7 287.3 191.2 284.9 189.3 282.8C185.7 278.8 184.3 274.1 183.4 271.7C182.7 269.9 182.9 270 182.3 268.7C181.2 266 179.7 263.8 177.4 260.3C177.3 260.1 177.2 260 177 259.7C175.2 257.1 172 252.8 171.9 252.6C171.6 248.7 171.5 247.9 171.5 247.9C171.2 244.3 171.6 243.5 171.8 237.7C171.9 233.3 171.9 231 171.4 229.1C171 227.7 170.2 225.1 167.8 222.8C165.5 220.7 163.1 220 162.1 219.8C157.7 218.7 153.9 220.2 152.5 220.8C149.4 222.1 147.3 224 145.5 225.6C144.2 226.8 143.1 228.1 143.1 228.1C142.7 228.5 142.2 229.1 141.6 230C139.9 232.5 139.3 234.8 139.2 235.4Z" fill="#892A26"/>
</mask>
<g mask="url(#mask0_4109_264335)">
<path d="M138.5 235C138.4 235.6 137.5 237 137.5 237C137.4 238.2 137.6 239 137.5 241.5C137.5 242.3 137.6 242.8 137.5 243.5C137.3 245.1 137.3 245 137 246.5C137 246.5 136.6 248.1 136.5 249.5C136.2 252.2 136.4 254.7 137 257C137.5 259 138.5 260.8 139.5 262C139.6 262.1 139.8 262.7 140.5 263.5C141.1 264.2 141.6 264.6 142 265C142.1 265 143.2 265 143.3 265C145.8 265 147.7 265.1 149.7 265.5C153.4 266.2 154 267.3 154.9 266.7C157.2 265.4 152.8 258.6 155.8 254.5C158.2 251.2 164.4 250.9 167.5 251.5C168.3 251.7 173.5 253 173.5 253C173.2 249.1 174 247.5 174 247.5C173.7 243.9 174.3 243.8 174.5 238C174.6 233.6 173.5 230.9 173 229C172.6 227.6 170.9 223.8 168.5 221.5C166.2 219.4 163.5 218.7 162.5 218.5C158.1 217.4 152.9 219.9 151.5 220.5C148.4 221.8 146.8 222.9 145 224.5C143.7 225.7 142.5 227.5 142.5 227.5C141.9 228.2 140.9 229.5 140.5 230C138.8 232.7 138.7 233.8 138.5 235Z" fill="#892A26"/>
</g>
<mask id="mask1_4109_264335" style="mask-type:alpha" maskUnits="userSpaceOnUse" x="137" y="219" width="38" height="48">
<mask id="mask2_4109_264335" style="mask-type:alpha" maskUnits="userSpaceOnUse" x="137" y="219" width="60" height="76">
<path d="M139.2 235.4C139.1 236.2 139 237.1 139 237.1C138.9 238.3 138.9 240.2 138.9 241.7C138.9 241.9 138.8 242.7 138.7 243.8C138.5 245.1 138.3 246 138.2 246.2C136.6 252.7 137.8 256.8 137.8 256.8C138 257.5 138.8 260.1 140.7 262.4C140.7 262.4 140.9 262.6 143.1 265.1C143.3 265.4 143.5 265.8 143.8 266.4C144.4 267.7 144.5 268.4 145.1 269.5C145.2 269.6 145.5 270.2 146 270.9C147.5 272.9 149.4 274 151.2 275.6C151.3 275.7 151.6 275.9 151.8 276.2C152.3 276.7 152.5 277.1 152.6 277.3C153 278 153.6 278.6 154.6 279.5C156 280.9 158.7 282.9 162.5 284.4C163.9 284.9 164.9 285.2 165.4 285.3C169.7 286.4 171.5 287.6 181.8 291.8C183.5 292.5 190.2 295.2 194.2 294.2C195.6 293.9 196 293.2 196 293C196.4 291.9 195.3 290.5 194.5 289.5C192.7 287.3 191.2 284.9 189.3 282.8C185.7 278.8 184.3 274.1 183.4 271.7C182.7 269.9 182.9 270 182.3 268.7C181.2 266 179.7 263.8 177.4 260.3C177.3 260.1 177.2 260 177 259.7C175.2 257.1 172 252.8 171.9 252.6C171.6 248.7 171.5 247.9 171.5 247.9C171.2 244.3 171.6 243.5 171.8 237.7C171.9 233.3 171.9 231 171.4 229.1C171 227.7 170.2 225.1 167.8 222.8C165.5 220.7 163.1 220 162.1 219.8C157.7 218.7 153.9 220.2 152.5 220.8C149.4 222.1 147.3 224 145.5 225.6C144.2 226.8 143.1 228.1 143.1 228.1C142.7 228.5 142.2 229.1 141.6 230C139.9 232.5 139.3 234.8 139.2 235.4Z" fill="#892A26"/>
</mask>
<g mask="url(#mask2_4109_264335)">
<path d="M138.5 235C138.4 235.6 137.5 237 137.5 237C137.4 238.2 137.6 239 137.5 241.5C137.5 242.3 137.6 242.8 137.5 243.5C137.3 245.1 137.3 245 137 246.5C137 246.5 136.6 248.1 136.5 249.5C136.2 252.2 136.4 254.7 137 257C137.5 259 138.5 260.8 139.5 262C139.6 262.1 139.8 262.7 140.5 263.5C141.1 264.2 141.6 264.6 142 265C142.1 265 143.2 265 143.3 265C145.8 265 147.7 265.1 149.7 265.5C153.4 266.2 154 267.3 154.9 266.7C157.2 265.4 152.8 258.6 155.8 254.5C158.2 251.2 164.4 250.9 167.5 251.5C168.3 251.7 173.5 253 173.5 253C173.2 249.1 174 247.5 174 247.5C173.7 243.9 174.3 243.8 174.5 238C174.6 233.6 173.5 230.9 173 229C172.6 227.6 170.9 223.8 168.5 221.5C166.2 219.4 163.5 218.7 162.5 218.5C158.1 217.4 152.9 219.9 151.5 220.5C148.4 221.8 146.8 222.9 145 224.5C143.7 225.7 142.5 227.5 142.5 227.5C141.9 228.2 140.9 229.5 140.5 230C138.8 232.7 138.7 233.8 138.5 235Z" fill="#DB7171"/>
</g>
</mask>
<g mask="url(#mask1_4109_264335)">
<path d="M150.5 233C147.5 235 141.198 236.685 140.5 232.5C140 229.5 145.485 219.502 153.5 218.5C157 218.063 157.725 218.225 159 219.5C160.5 221 160.29 223.199 158.5 225.5C155 230 152.5 231.667 150.5 233Z" fill="#681E17"/>
</g>
<path d="M153.5 255C153.5 257.761 149.366 258.5 145.5 258.5C141.634 258.5 139 256.761 139 254C139 251.239 141 250 143.5 249.5C150.854 248.029 153.5 252.239 153.5 255Z" fill="#681E17"/>
</svg>
