<svg width="360" height="378" viewBox="0 0 360 378" fill="none" xmlns="http://www.w3.org/2000/svg">
<mask id="mask0_4109_264345" style="mask-type:alpha" maskUnits="userSpaceOnUse" x="137" y="219" width="60" height="76">
<path d="M139.2 235.4C139.1 236.2 139 237.1 139 237.1C138.9 238.3 138.9 240.2 138.9 241.7C138.9 241.9 138.8 242.7 138.7 243.8C138.5 245.1 138.3 246 138.2 246.2C136.6 252.7 137.8 256.8 137.8 256.8C138 257.5 138.8 260.1 140.7 262.4C140.7 262.4 140.9 262.6 143.1 265.1C143.3 265.4 143.5 265.8 143.8 266.4C144.4 267.7 144.5 268.4 145.1 269.5C145.2 269.6 145.5 270.2 146 270.9C147.5 272.9 149.4 274 151.2 275.6C151.3 275.7 151.6 275.9 151.8 276.2C152.3 276.7 152.5 277.1 152.6 277.3C153 278 153.6 278.6 154.6 279.5C156 280.9 158.7 282.9 162.5 284.4C163.9 284.9 164.9 285.2 165.4 285.3C169.7 286.4 171.5 287.6 181.8 291.8C183.5 292.5 190.2 295.2 194.2 294.2C195.6 293.9 196 293.2 196 293C196.4 291.9 195.3 290.5 194.5 289.5C192.7 287.3 191.2 284.9 189.3 282.8C185.7 278.8 184.3 274.1 183.4 271.7C182.7 269.9 182.9 270 182.3 268.7C181.2 266 179.7 263.8 177.4 260.3C177.3 260.1 177.2 260 177 259.7C175.2 257.1 172 252.8 171.9 252.6C171.6 248.7 171.5 247.9 171.5 247.9C171.2 244.3 171.6 243.5 171.8 237.7C171.9 233.3 171.9 231 171.4 229.1C171 227.7 170.2 225.1 167.8 222.8C165.5 220.7 163.1 220 162.1 219.8C157.7 218.7 153.9 220.2 152.5 220.8C149.4 222.1 147.3 224 145.5 225.6C144.2 226.8 143.1 228.1 143.1 228.1C142.7 228.5 142.2 229.1 141.6 230C139.9 232.5 139.3 234.8 139.2 235.4Z" fill="#892A26"/>
</mask>
<g mask="url(#mask0_4109_264345)">
<path d="M161.5 285.485C149.526 280.967 131.896 265 143 265C151.5 265 152 266.5 154 266.5C157.925 266.5 152 259 156 254C156.698 253.127 158.944 251 165 251C168.5 251 172.5 253 174.5 253.5C180.825 255.081 177.95 257.735 180 261.5C183.633 268.173 184.634 272.459 188.5 279C192.139 285.155 198.5 288.5 197 294C196.074 297.396 186 295.5 182.5 294C170.174 288.717 173.474 290.003 161.5 285.485Z" fill="#B45D5D"/>
<path d="M154.5 275.5C148.807 271.515 147.5 273.22 143 265C142.76 264.561 143.5 270 155.5 282.5C161.971 289.241 167.957 290.646 177 293C185.522 295.218 200.934 303.189 199.5 294.5C198.987 291.394 197.07 290.229 195.5 287.5C186.766 272.319 170.922 250.19 172 252.5C175.5 260 177.832 261.887 179 265C180.5 269 183.289 274.722 178 278.5C174.5 281 168.556 280.647 166.5 280.5C162.5 280.214 159.5 279 154.5 275.5Z" fill="#9F4341"/>
</g>
</svg>
