<svg width="360" height="378" viewBox="0 0 360 378" fill="none" xmlns="http://www.w3.org/2000/svg">
<path d="M201.276 299.168C201.742 298.826 202.107 298.311 202.268 297.733C202.349 297.444 202.368 297.139 202.327 296.86C202.286 296.581 202.183 296.287 202.041 296.037L201.797 296.219C201.94 296.429 202.062 296.661 202.124 296.918C202.186 297.175 202.186 297.457 202.146 297.703C202.046 298.256 201.702 298.789 201.276 299.168Z" fill="#38720A"/>
<path d="M202.675 298.264C202.533 298.094 202.411 297.903 202.268 297.733L202.065 297.952C202.269 298.056 202.472 298.16 202.675 298.264Z" fill="#38720A"/>
<path d="M201.314 297.954C201.599 298.092 201.984 298.079 202.329 297.909L202.166 297.681C201.964 297.9 201.619 297.989 201.314 297.954Z" fill="#38720A"/>
<path d="M202.21 298.888L201.965 298.424L201.783 298.581L202.21 298.888Z" fill="#38720A"/>
<path d="M201.194 298.61L201.945 298.607L201.924 298.387L201.194 298.61Z" fill="#38720A"/>
<path d="M202.998 297.349L202.286 296.703L202.104 296.94L202.998 297.349Z" fill="#38720A"/>
<path d="M201.333 297.408L202.266 296.926L202.144 296.694L201.333 297.408Z" fill="#38720A"/>
<path d="M180.985 298.094C181.586 298.284 182.278 298.328 182.898 298.198C183.208 298.133 183.493 298.018 183.716 297.87C183.94 297.721 184.138 297.523 184.272 297.314L183.955 297.216C183.858 297.408 183.728 297.595 183.536 297.748C183.345 297.901 183.093 298.022 182.848 298.097C182.289 298.26 181.594 298.239 180.985 298.094Z" fill="#316D01"/>
<path d="M182.681 298.717C182.743 298.542 182.837 298.373 182.898 298.198L182.574 298.145C182.61 298.336 182.645 298.526 182.681 298.717Z" fill="#316D01"/>
<path d="M182.095 297.605C182.153 297.869 182.408 298.141 182.779 298.317L182.88 298.102C182.556 298.05 182.257 297.839 182.095 297.605Z" fill="#316D01"/>
<path d="M181.827 298.647L182.087 298.273L181.832 298.209L181.827 298.647Z" fill="#316D01"/>
<path d="M181.432 297.797L181.911 298.337L182.095 298.228L181.432 297.797Z" fill="#316D01"/>
<path d="M183.705 298.56L183.832 297.773L183.504 297.742L183.705 298.56Z" fill="#316D01"/>
<path d="M182.596 297.387L183.619 297.853L183.749 297.667L182.596 297.387Z" fill="#316D01"/>
<path d="M185.098 299.305C185.682 299.544 186.368 299.644 186.997 299.566C187.311 299.527 187.604 299.436 187.839 299.307C188.074 299.177 188.289 298.996 188.439 298.799L188.131 298.675C188.018 298.858 187.873 299.033 187.67 299.171C187.467 299.308 187.205 299.407 186.955 299.462C186.385 299.578 185.693 299.5 185.098 299.305Z" fill="#316D01"/>
<path d="M186.738 300.065C186.813 299.896 186.921 299.735 186.997 299.566L186.678 299.487C186.698 299.68 186.718 299.872 186.738 300.065Z" fill="#316D01"/>
<path d="M186.245 298.909C186.281 299.176 186.513 299.469 186.868 299.675L186.987 299.469C186.668 299.39 186.387 299.156 186.245 298.909Z" fill="#316D01"/>
<path d="M185.893 299.925L186.182 299.574L185.933 299.489L185.893 299.925Z" fill="#316D01"/>
<path d="M185.569 299.046L186.001 299.623L186.193 299.53L185.569 299.046Z" fill="#316D01"/>
<path d="M187.771 299.993L187.962 299.22L187.638 299.162L187.771 299.993Z" fill="#316D01"/>
<path d="M186.763 298.733L187.744 299.283L187.889 299.107L186.763 298.733Z" fill="#316D01"/>
<path d="M191.377 300.444C192.007 300.444 192.656 300.214 193.165 299.787C193.42 299.574 193.629 299.305 193.769 299.019C193.909 298.732 194.004 298.391 194.036 298.062L193.705 298.065C193.699 298.357 193.661 298.654 193.553 298.934C193.445 299.214 193.267 299.476 193.076 299.677C192.637 300.121 191.994 300.382 191.377 300.444Z" fill="#316D01"/>
<path d="M193.191 300.556C193.172 300.302 193.184 300.042 193.165 299.788L192.847 299.853C192.962 300.087 193.076 300.321 193.191 300.556Z" fill="#316D01"/>
<path d="M192.178 299.345C192.344 299.665 192.694 299.915 193.108 299.992L193.107 299.669C192.789 299.735 192.426 299.584 192.178 299.345Z" fill="#316D01"/>
<path d="M192.383 300.817L192.459 300.221L192.198 300.243L192.383 300.817Z" fill="#316D01"/>
<path d="M191.656 299.87L192.325 300.378L192.446 300.16L191.656 299.87Z" fill="#316D01"/>
<path d="M194.056 299.926L193.833 298.844L193.521 298.94L194.056 299.926Z" fill="#316D01"/>
<path d="M192.541 298.852L193.674 299.038L193.712 298.74L192.541 298.852Z" fill="#316D01"/>
<path d="M196.377 300.444C197.007 300.444 197.656 300.214 198.165 299.787C198.42 299.574 198.629 299.305 198.769 299.019C198.909 298.732 199.004 298.391 199.036 298.062L198.705 298.065C198.699 298.357 198.661 298.654 198.553 298.934C198.445 299.214 198.267 299.476 198.076 299.677C197.637 300.121 196.994 300.382 196.377 300.444Z" fill="#316D01"/>
<path d="M198.191 300.556C198.172 300.302 198.184 300.042 198.165 299.788L197.847 299.853C197.962 300.087 198.076 300.321 198.191 300.556Z" fill="#316D01"/>
<path d="M197.178 299.345C197.344 299.665 197.694 299.915 198.108 299.992L198.107 299.669C197.789 299.735 197.426 299.584 197.178 299.345Z" fill="#316D01"/>
<path d="M197.383 300.817L197.459 300.221L197.198 300.243L197.383 300.817Z" fill="#316D01"/>
<path d="M196.656 299.87L197.325 300.378L197.446 300.16L196.656 299.87Z" fill="#316D01"/>
<path d="M199.056 299.926L198.833 298.844L198.521 298.94L199.056 299.926Z" fill="#316D01"/>
<path d="M197.541 298.852L198.674 299.038L198.712 298.74L197.541 298.852Z" fill="#316D01"/>
<path d="M178.044 296.058C178.499 296.194 179.02 296.21 179.485 296.092C179.718 296.032 179.931 295.934 180.097 295.81C180.263 295.687 180.41 295.525 180.508 295.355L180.268 295.286C180.197 295.441 180.102 295.592 179.96 295.718C179.818 295.845 179.63 295.947 179.446 296.013C179.028 296.157 178.504 296.158 178.044 296.058Z" fill="#316D01"/>
<path d="M179.329 296.508C179.373 296.368 179.441 296.232 179.485 296.092L179.241 296.058C179.27 296.208 179.299 296.358 179.329 296.508Z" fill="#316D01"/>
<path d="M178.873 295.642C178.92 295.849 179.116 296.059 179.397 296.189L179.471 296.016C179.226 295.983 178.998 295.824 178.873 295.642Z" fill="#316D01"/>
<path d="M178.685 296.475L178.876 296.172L178.683 296.127L178.685 296.475Z" fill="#316D01"/>
<path d="M178.377 295.812L178.744 296.227L178.881 296.137L178.377 295.812Z" fill="#316D01"/>
<path d="M180.097 296.358L180.182 295.731L179.935 295.715L180.097 296.358Z" fill="#316D01"/>
<path d="M179.248 295.456L180.024 295.8L180.119 295.649L179.248 295.456Z" fill="#316D01"/>
<path d="M176.074 293.641C176.331 293.788 176.646 293.87 176.947 293.86C177.097 293.855 177.241 293.823 177.361 293.768C177.48 293.714 177.593 293.633 177.677 293.541L177.541 293.465C177.475 293.551 177.395 293.633 177.29 293.692C177.186 293.752 177.056 293.79 176.935 293.806C176.659 293.838 176.339 293.766 176.074 293.641Z" fill="#316D01"/>
<path d="M176.791 294.099C176.838 294.017 176.9 293.941 176.947 293.86L176.803 293.805C176.799 293.903 176.795 294.001 176.791 294.099Z" fill="#316D01"/>
<path d="M176.64 293.495C176.638 293.631 176.727 293.789 176.879 293.909L176.949 293.811C176.805 293.756 176.689 293.626 176.64 293.495Z" fill="#316D01"/>
<path d="M176.404 293.989L176.564 293.827L176.453 293.772L176.404 293.989Z" fill="#316D01"/>
<path d="M176.312 293.533L176.476 293.843L176.572 293.805L176.312 293.533Z" fill="#316D01"/>
<path d="M177.281 294.111L177.424 293.731L177.276 293.687L177.281 294.111Z" fill="#316D01"/>
<path d="M176.895 293.43L177.317 293.752L177.398 293.671L176.895 293.43Z" fill="#316D01"/>
<path d="M175.076 292.382C175.222 292.515 175.415 292.613 175.612 292.649C175.711 292.667 175.809 292.667 175.894 292.648C175.98 292.63 176.065 292.594 176.133 292.546L176.055 292.477C176 292.524 175.936 292.565 175.86 292.589C175.783 292.613 175.693 292.619 175.612 292.612C175.428 292.594 175.231 292.502 175.076 292.382Z" fill="#316D01"/>
<path d="M175.477 292.782C175.519 292.736 175.57 292.695 175.612 292.649L175.526 292.593C175.51 292.656 175.493 292.719 175.477 292.782Z" fill="#316D01"/>
<path d="M175.464 292.368C175.444 292.456 175.479 292.571 175.561 292.671L175.621 292.617C175.535 292.561 175.478 292.46 175.464 292.368Z" fill="#316D01"/>
<path d="M175.241 292.656L175.368 292.573L175.303 292.521L175.241 292.656Z" fill="#316D01"/>
<path d="M175.246 292.346L175.308 292.571L175.376 292.56L175.246 292.346Z" fill="#316D01"/>
<path d="M175.794 292.86L175.941 292.633L175.851 292.583L175.794 292.86Z" fill="#316D01"/>
<path d="M175.639 292.362L175.869 292.631L175.932 292.59L175.639 292.362Z" fill="#316D01"/>
<path d="M220.1 297.267C219.624 297.457 219.03 297.496 218.453 297.356C218.165 297.287 217.885 297.165 217.651 297.011C217.416 296.856 217.19 296.65 217.018 296.434L217.27 296.336C217.406 296.534 217.569 296.728 217.776 296.887C217.984 297.047 218.237 297.173 218.471 297.253C219.003 297.426 219.606 297.411 220.1 297.267Z" fill="#38720A"/>
<path d="M218.78 297.892C218.68 297.712 218.553 297.537 218.453 297.356L218.723 297.305C218.742 297.501 218.761 297.696 218.78 297.892Z" fill="#38720A"/>
<path d="M219 296.754C219.019 297.024 218.867 297.302 218.589 297.48L218.444 297.258C218.714 297.207 218.92 296.993 219 296.754Z" fill="#38720A"/>
<path d="M219.509 297.828L219.183 297.442L219.39 297.378L219.509 297.828Z" fill="#38720A"/>
<path d="M219.631 296.958L219.354 297.509L219.165 297.395L219.631 296.958Z" fill="#38720A"/>
<path d="M217.843 297.722L217.525 296.91L217.804 296.882L217.843 297.722Z" fill="#38720A"/>
<path d="M218.504 296.525L217.732 296.995L217.569 296.802L218.504 296.525Z" fill="#38720A"/>
<path d="M223.943 281.434C223.893 281.96 223.679 282.488 223.336 282.885C223.165 283.084 222.958 283.242 222.743 283.34C222.529 283.438 222.279 283.495 222.043 283.5L222.071 283.224C222.279 283.238 222.493 283.226 222.7 283.154C222.908 283.082 223.108 282.95 223.265 282.804C223.615 282.466 223.85 281.946 223.943 281.434Z" fill="#316D01"/>
<path d="M223.88 282.957C223.701 282.924 223.515 282.918 223.337 282.885L223.408 282.624C223.565 282.735 223.723 282.846 223.88 282.957Z" fill="#316D01"/>
<path d="M223.099 282.032C223.314 282.191 223.464 282.5 223.486 282.851L223.257 282.829C223.329 282.568 223.25 282.255 223.099 282.032Z" fill="#316D01"/>
<path d="M224.129 282.299L223.7 282.323L223.736 282.107L224.129 282.299Z" fill="#316D01"/>
<path d="M223.514 281.63L223.822 282.222L223.657 282.309L223.514 281.63Z" fill="#316D01"/>
<path d="M223.366 283.639L222.615 283.382L222.707 283.127L223.366 283.639Z" fill="#316D01"/>
<path d="M222.721 282.302L222.765 283.261L222.55 283.274L222.721 282.302Z" fill="#316D01"/>
<path d="M223.717 285.344C223.718 285.879 223.557 286.428 223.258 286.854C223.108 287.068 222.919 287.243 222.717 287.358C222.516 287.473 222.275 287.549 222.044 287.572L222.045 287.291C222.251 287.289 222.46 287.261 222.657 287.173C222.855 287.085 223.039 286.937 223.18 286.777C223.492 286.41 223.675 285.868 223.717 285.344Z" fill="#316D01"/>
<path d="M223.799 286.887C223.62 286.867 223.437 286.874 223.258 286.855L223.304 286.585C223.469 286.686 223.634 286.786 223.799 286.887Z" fill="#316D01"/>
<path d="M222.944 286.01C223.17 286.155 223.347 286.456 223.402 286.808L223.175 286.804C223.22 286.534 223.113 286.224 222.944 286.01Z" fill="#316D01"/>
<path d="M223.982 286.203L223.563 286.26L223.577 286.039L223.982 286.203Z" fill="#316D01"/>
<path d="M223.314 285.574L223.672 286.149L223.519 286.248L223.314 285.574Z" fill="#316D01"/>
<path d="M223.357 287.613L222.595 287.409L222.662 287.146L223.357 287.613Z" fill="#316D01"/>
<path d="M222.597 286.312L222.731 287.277L222.521 287.305L222.597 286.312Z" fill="#316D01"/>
<path d="M223.636 289.478C223.587 289.992 223.309 290.501 222.845 290.877C222.613 291.065 222.33 291.211 222.034 291.299C221.738 291.386 221.39 291.432 221.061 291.427L221.089 291.157C221.38 291.179 221.679 291.176 221.966 291.114C222.253 291.052 222.528 290.931 222.742 290.794C223.218 290.477 223.527 289.976 223.636 289.478Z" fill="#316D01"/>
<path d="M223.608 290.97C223.357 290.931 223.097 290.916 222.845 290.877L222.935 290.623C223.159 290.739 223.384 290.854 223.608 290.97Z" fill="#316D01"/>
<path d="M222.48 290.029C222.786 290.195 223.009 290.504 223.053 290.849L222.732 290.819C222.822 290.565 222.699 290.255 222.48 290.029Z" fill="#316D01"/>
<path d="M223.93 290.334L223.331 290.34L223.373 290.129L223.93 290.334Z" fill="#316D01"/>
<path d="M223.043 289.653L223.497 290.246L223.271 290.324L223.043 289.653Z" fill="#316D01"/>
<path d="M222.915 291.618L221.855 291.334L221.974 291.089L222.915 291.618Z" fill="#316D01"/>
<path d="M221.962 290.28L222.06 291.223L221.761 291.226L221.962 290.28Z" fill="#316D01"/>
<path d="M223.034 294.238C222.803 294.701 222.36 295.075 221.792 295.258C221.508 295.35 221.191 295.385 220.883 295.36C220.576 295.335 220.235 295.253 219.929 295.129L220.053 294.888C220.316 295.013 220.597 295.118 220.887 295.163C221.177 295.209 221.476 295.195 221.725 295.144C222.284 295.019 222.752 294.664 223.034 294.238Z" fill="#316D01"/>
<path d="M222.47 295.62C222.25 295.493 222.013 295.386 221.792 295.259L221.967 295.054C222.135 295.243 222.303 295.431 222.47 295.62Z" fill="#316D01"/>
<path d="M221.757 294.336C221.983 294.601 222.079 294.97 221.996 295.307L221.708 295.164C221.882 294.959 221.88 294.625 221.757 294.336Z" fill="#316D01"/>
<path d="M223 295.143L222.439 294.933L222.553 294.751L223 295.143Z" fill="#316D01"/>
<path d="M222.418 294.188L222.627 294.905L222.388 294.896L222.418 294.188Z" fill="#316D01"/>
<path d="M221.59 295.975L220.703 295.328L220.904 295.142L221.59 295.975Z" fill="#316D01"/>
<path d="M221.183 294.383L220.935 295.298L220.655 295.194L221.183 294.383Z" fill="#316D01"/>
<path d="M223.063 279.019C223.178 279.399 223.172 279.827 223.033 280.201C222.963 280.388 222.856 280.557 222.725 280.687C222.595 280.817 222.426 280.928 222.253 280.999L222.194 280.799C222.351 280.749 222.507 280.679 222.639 280.57C222.772 280.46 222.882 280.311 222.956 280.165C223.118 279.83 223.142 279.401 223.063 279.019Z" fill="#316D01"/>
<path d="M223.456 280.095C223.314 280.124 223.174 280.173 223.033 280.201L223.01 279.999C223.159 280.031 223.307 280.063 223.456 280.095Z" fill="#316D01"/>
<path d="M222.611 279.676C222.816 279.725 223.016 279.897 223.134 280.134L222.958 280.185C222.935 279.983 222.787 279.788 222.611 279.676Z" fill="#316D01"/>
<path d="M223.45 279.566L223.14 279.706L223.104 279.545L223.45 279.566Z" fill="#316D01"/>
<path d="M222.802 279.278L223.201 279.601L223.104 279.708L222.802 279.278Z" fill="#316D01"/>
<path d="M223.272 280.717L222.642 280.753L222.637 280.55L223.272 280.717Z" fill="#316D01"/>
<path d="M222.409 279.972L222.718 280.626L222.563 280.696L222.409 279.972Z" fill="#316D01"/>
<path d="M221.649 277.052C221.787 277.269 221.857 277.531 221.835 277.777C221.825 277.9 221.787 278.017 221.729 278.112C221.67 278.207 221.585 278.296 221.49 278.361L221.418 278.246C221.508 278.196 221.592 278.134 221.655 278.051C221.719 277.968 221.761 277.863 221.782 277.764C221.824 277.54 221.765 277.275 221.649 277.052Z" fill="#316D01"/>
<path d="M222.08 277.66C221.997 277.695 221.919 277.742 221.835 277.777L221.786 277.656C221.884 277.658 221.982 277.659 222.08 277.66Z" fill="#316D01"/>
<path d="M221.483 277.509C221.618 277.513 221.773 277.593 221.887 277.724L221.787 277.777C221.737 277.656 221.611 277.555 221.483 277.509Z" fill="#316D01"/>
<path d="M221.985 277.338L221.816 277.462L221.766 277.368L221.985 277.338Z" fill="#316D01"/>
<path d="M221.532 277.242L221.836 277.39L221.794 277.467L221.532 277.242Z" fill="#316D01"/>
<path d="M222.073 278.062L221.688 278.162L221.65 278.039L222.073 278.062Z" fill="#316D01"/>
<path d="M221.408 277.715L221.714 278.076L221.629 278.138L221.408 277.715Z" fill="#316D01"/>
<path d="M219.432 274.033C219.479 274.205 219.477 274.392 219.421 274.547C219.393 274.625 219.35 274.693 219.297 274.742C219.244 274.792 219.176 274.831 219.105 274.852L219.081 274.761C219.145 274.749 219.208 274.727 219.262 274.686C219.316 274.646 219.36 274.587 219.39 274.527C219.455 274.39 219.465 274.204 219.432 274.033Z" fill="#316D01"/>
<path d="M219.593 274.525C219.536 274.529 219.479 274.543 219.421 274.547L219.412 274.458C219.472 274.48 219.533 274.502 219.593 274.525Z" fill="#316D01"/>
<path d="M219.249 274.294C219.332 274.327 219.414 274.413 219.462 274.524L219.391 274.536C219.381 274.446 219.321 274.353 219.249 274.294Z" fill="#316D01"/>
<path d="M219.59 274.293L219.464 274.337L219.449 274.265L219.59 274.293Z" fill="#316D01"/>
<path d="M219.326 274.131L219.489 274.295L219.45 274.336L219.326 274.131Z" fill="#316D01"/>
<path d="M219.519 274.785L219.263 274.766L219.261 274.677L219.519 274.785Z" fill="#316D01"/>
<path d="M219.167 274.412L219.294 274.715L219.231 274.737L219.167 274.412Z" fill="#316D01"/>
<path d="M146 236C146 236 142.4 242.3 143.5 248C144.1 250.9 146.5 256.5 146.5 256.5" stroke="#316D01"/>
<path d="M146.5 235.5C146.5 235.5 138 239.1 140 250C141 255.5 146.5 257 146.5 257" stroke="#316D01"/>
<path d="M150.5 235C150.5 235 155.7 237.3 156 243C156.5 252.5 150.5 256.5 150.5 256.5" stroke="#316D01"/>
<path d="M150 234.5C152.5 234.5 155.5 234.8 158 234.5C160.4 234.3 162.9 233.9 165.2 233.1C167.5 232.3 169.5 230.8 171.3 229.1C173.1 227.4 174.8 225.6 176.6 223.8C178.4 222.1 180.6 220.5 183.1 219.6C184.3 219.2 185.6 219 186.9 218.9C188.2 218.8 189.4 218.7 190.7 218.8C193.3 218.9 195.9 219.8 198 221.3C199.1 222.1 199.9 223.1 200.6 224.2C201.3 225.2 202 226.3 202.5 227.5C201.8 226.5 201 225.5 200.2 224.6C199.4 223.7 198.5 222.8 197.4 222.2C195.4 220.8 193.1 220 190.7 219.9C189.5 219.8 188.2 219.9 187 220C185.8 220.1 184.6 220.3 183.4 220.7C181.1 221.4 179.1 223 177.3 224.6C175.5 226.3 173.8 228.2 171.9 229.9C170.1 231.6 167.9 233.2 165.5 234.1C162.5 235.5 153.5 236 150 235.5C149.5 235.5 152.5 234.8 150 234.5Z" fill="#316D01"/>
<path d="M150 256.5C150.5 256 153.2 253.2 154.9 251.6C155.8 250.8 156.8 250.1 157.9 249.6C159 249.1 160.1 248.7 161.2 248.4C163.5 247.9 166 247.7 168.3 248.3C169.5 248.6 170.6 249.1 171.6 249.7C172.6 250.4 173.5 251.1 174.4 251.9C174.8 252.3 175.2 252.8 175.6 253.2C176 253.7 176.3 254.1 176.6 254.6C177.3 255.5 178.1 256.3 178.9 257.1C179.8 257.9 180.7 258.6 181.5 259.3C182.4 260.1 183.2 260.9 184 261.8C184.8 262.7 185.5 263.6 186.1 264.7C186.7 265.7 187 267 187.2 268.2C187.3 269.4 187.4 270.5 187.8 271.5C188.2 272.6 188.6 273.7 189.1 274.7C190.9 278.9 194.8 281.7 197.8 285.2C199.3 287 200.9 288.7 202 290.9C202.5 292 202.9 293.2 202.8 294.5C202.7 295.1 202.6 295.8 202.2 296.4C201.8 297 201.2 297.4 200.7 297.6C199.6 298.1 198.4 298.3 197.2 298.5C196 298.7 194.9 298.8 193.7 298.9C191.4 299.1 188.9 299 186.6 298.5C185.5 298.2 184.4 297.8 183.3 297.3C182.2 296.8 181.3 296.1 180.3 295.4C178.4 294 176.5 292.8 174.4 291.8C176.6 292.6 178.7 293.7 180.6 294.9C181.6 295.5 182.5 296.1 183.6 296.6C184.6 297 185.8 297.3 186.9 297.5C189.1 298 191.4 298.2 193.6 297.9C195.9 297.6 198.3 297.5 200.2 296.6C200.7 296.4 201.1 296.1 201.3 295.7C201.6 295.3 201.7 294.8 201.7 294.3C201.8 293.3 201.4 292.2 201 291.2C200 289.2 198.5 287.5 197 285.8C195.5 284.1 193.8 282.5 192.2 280.8C190.6 279.1 189.1 277.2 188.1 275C187.6 273.9 187.2 272.8 186.8 271.7C186.4 270.5 186.3 269.3 186.2 268.2C186 266 184.8 264 183.3 262.4C182.5 261.6 181.7 260.7 180.9 260C180 259.3 179.1 258.5 178.3 257.7C177.4 256.9 176.6 256 175.9 255.1C175.5 254.6 175.2 254.1 174.9 253.7C174.6 253.3 174.2 252.9 173.8 252.5C173 251.7 172.1 251 171.2 250.4C170.3 249.8 169.2 249.4 168.2 249.1C166.1 248.5 163.8 248.7 161.6 249.2C156.5 251 153 254 150.5 257.5C150.5 257.5 151.4 254.7 150 256.5Z" fill="#316D01"/>
<path d="M184.5 263C185.4 264.3 185 263.3 186 264.5C187 265.7 189 269.5 189.8 270.7L190.4 271.7C190.6 272 190.8 272.3 191.1 272.6C191.6 273.1 192.2 273.7 192.8 274.2C193.4 274.7 194 275.2 194.5 275.8C195 276.4 195.6 276.9 196.1 277.5C198.3 279.7 200.6 281.8 202.7 284.1C204.9 286.4 206.6 289 209 290.9C210.2 291.9 211.4 293.1 212.4 294.1C213 294.6 213.5 295.1 214.2 295.4C214.5 295.6 214.8 295.7 215.2 295.9L215.7 296.1C215.8 296.1 216 296.2 216.2 296.2C216.9 296.3 217.6 296.1 218.2 295.8C218.9 295.5 219.4 295.1 219.7 294.5C220.4 293.2 220.9 291.7 221.2 290.3C221.4 289.6 221.5 288.8 221.5 288.1C221.5 287.3 221.5 286.5 221.6 285.7C221.7 284.2 221.7 282.6 221.4 281.1C221.3 280.3 221.2 279.6 221.1 278.8C221 278.1 220.6 277.4 220.2 276.8C219.8 276.1 219.3 275.5 219 274.7C218.7 273.9 218.6 273.2 218.5 272.4C218.7 273.2 218.9 273.9 219.2 274.6C219.5 275.3 220 275.8 220.5 276.5C221 277.1 221.5 277.8 221.7 278.6C221.9 279.4 222.1 280.1 222.3 280.9C222.5 282.5 222.6 284.1 222.5 285.7C222.5 286.5 222.4 287.2 222.4 288C222.4 288.8 222.3 289.6 222.1 290.4C221.8 292 221.3 293.5 220.5 294.9C220.1 295.7 219.3 296.3 218.5 296.6C217.7 296.9 216.9 297.1 216 297C215.8 297 215.6 296.9 215.3 296.9L214.7 296.7C214.3 296.5 213.9 296.4 213.6 296.2C212.9 295.8 212.2 295.3 211.6 294.7C210.4 293.6 209.4 292.5 208.2 291.5C205.7 289.5 203.9 286.8 201.8 284.6C199.7 282.4 197.4 280.2 195.2 278C194.6 277.4 194.1 276.9 193.6 276.3C193.1 275.7 192.5 275.2 191.9 274.7C191.3 274.2 190.7 273.7 190.2 273.1C189.9 272.8 189.7 272.5 189.4 272.1C189.2 271.8 189 271.4 188.8 271.1C188.1 269.7 187.5 268.3 186.7 267C185.9 265.8 185.2 264.4 184.5 263Z" fill="#316D01"/>
<path d="M148.5 259C149.881 259 151 257.881 151 256.5C151 255.119 149.881 254 148.5 254C147.119 254 146 255.119 146 256.5C146 257.881 147.119 259 148.5 259Z" fill="url(#paint0_radial_4115_267855)"/>
<path d="M148.5 238C149.881 238 151 236.881 151 235.5C151 234.119 149.881 233 148.5 233C147.119 233 146 234.119 146 235.5C146 236.881 147.119 238 148.5 238Z" fill="url(#paint1_radial_4115_267855)"/>
<g filter="url(#filter0_f_4115_267855)">
<path d="M146 236C146 236 142.422 242.28 143.5 248C144.051 250.923 146.5 256.5 146.5 256.5" stroke="white" stroke-width="0.1"/>
</g>
<g filter="url(#filter1_f_4115_267855)">
<path d="M146.5 235.5C146.5 235.5 138.014 239.077 140 250C141 255.5 146.5 257 146.5 257" stroke="white" stroke-width="0.1"/>
</g>
<g filter="url(#filter2_f_4115_267855)">
<path d="M150.5 235C150.5 235 155.963 235.254 158.5 235C163.5 234.5 167 233.5 170.5 230.5C176.094 225.705 179.154 220.076 186.5 219.5C191.082 219.141 194.301 219.272 198 222C200.233 223.647 202.5 227.5 202.5 227.5" stroke="white" stroke-width="0.1"/>
</g>
<g filter="url(#filter3_f_4115_267855)">
<path d="M150.5 257C150.5 257 153.854 252.229 157 250.5C158.5 249.676 162.405 248.303 166 248.5C167.5 248.582 170 249 172.5 251C173.735 251.988 174.739 252.934 175.5 254C176.303 255.124 177.024 256.024 178 257C178.976 257.976 181.259 259.759 182 260.5C183.5 262 184.9 263.254 186 265.5C187.146 267.84 186.602 269.554 187.5 272C189.105 276.373 190 278 194 282C196.652 284.652 200.335 288.613 201.5 291C202.665 293.387 202.5 295 202 296C201 298 196.766 298.189 194.5 298.5C190.612 299.034 186.5 298 184.5 297.5C182.966 297.117 180 294.8 179.5 294.5C179 294.2 178 293.5 177 293" stroke="white" stroke-width="0.1"/>
</g>
<g filter="url(#filter4_f_4115_267855)">
<path d="M184.5 263C184.5 263 185.394 264.536 186 265.5C186.75 266.692 187.219 267.133 188 268.5C188.781 269.867 189 270.5 190 272C191 273.5 192.788 274.669 194 276C195.696 277.862 198.283 280.27 201.5 283.5C204.522 286.534 205.663 288.815 209 291.5C211.532 293.537 212.5 295.5 215.5 296.5C216.911 296.97 219.175 296.237 220 295C221 293.5 222 290.183 222 288C222 285.5 222.5 283 221.5 279C221.118 277.473 220.5 277 219.5 275.5C218.815 274.472 218.5 272.5 218.5 272.5" stroke="white" stroke-width="0.1"/>
</g>
<g filter="url(#filter5_f_4115_267855)">
<path d="M150.5 235C150.5 235 155.7 237.307 156 243C156.5 252.5 150.5 256.5 150.5 256.5" stroke="white" stroke-width="0.1"/>
</g>
<defs>
<filter id="filter0_f_4115_267855" x="142.748" y="235.475" width="4.29813" height="21.5447" filterUnits="userSpaceOnUse" color-interpolation-filters="sRGB">
<feFlood flood-opacity="0" result="BackgroundImageFix"/>
<feBlend mode="normal" in="SourceGraphic" in2="BackgroundImageFix" result="shape"/>
<feGaussianBlur stdDeviation="0.25" result="effect1_foregroundBlur_4115_267855"/>
</filter>
<filter id="filter1_f_4115_267855" x="139.149" y="234.954" width="7.87054" height="22.5942" filterUnits="userSpaceOnUse" color-interpolation-filters="sRGB">
<feFlood flood-opacity="0" result="BackgroundImageFix"/>
<feBlend mode="normal" in="SourceGraphic" in2="BackgroundImageFix" result="shape"/>
<feGaussianBlur stdDeviation="0.25" result="effect1_foregroundBlur_4115_267855"/>
</filter>
<filter id="filter2_f_4115_267855" x="149.998" y="218.805" width="53.0453" height="16.8575" filterUnits="userSpaceOnUse" color-interpolation-filters="sRGB">
<feFlood flood-opacity="0" result="BackgroundImageFix"/>
<feBlend mode="normal" in="SourceGraphic" in2="BackgroundImageFix" result="shape"/>
<feGaussianBlur stdDeviation="0.25" result="effect1_foregroundBlur_4115_267855"/>
</filter>
<filter id="filter3_f_4115_267855" x="149.959" y="247.931" width="52.9717" height="51.2684" filterUnits="userSpaceOnUse" color-interpolation-filters="sRGB">
<feFlood flood-opacity="0" result="BackgroundImageFix"/>
<feBlend mode="normal" in="SourceGraphic" in2="BackgroundImageFix" result="shape"/>
<feGaussianBlur stdDeviation="0.25" result="effect1_foregroundBlur_4115_267855"/>
</filter>
<filter id="filter4_f_4115_267855" x="183.957" y="262.475" width="38.7182" height="34.7188" filterUnits="userSpaceOnUse" color-interpolation-filters="sRGB">
<feFlood flood-opacity="0" result="BackgroundImageFix"/>
<feBlend mode="normal" in="SourceGraphic" in2="BackgroundImageFix" result="shape"/>
<feGaussianBlur stdDeviation="0.25" result="effect1_foregroundBlur_4115_267855"/>
</filter>
<filter id="filter5_f_4115_267855" x="149.972" y="234.454" width="6.6073" height="22.5872" filterUnits="userSpaceOnUse" color-interpolation-filters="sRGB">
<feFlood flood-opacity="0" result="BackgroundImageFix"/>
<feBlend mode="normal" in="SourceGraphic" in2="BackgroundImageFix" result="shape"/>
<feGaussianBlur stdDeviation="0.25" result="effect1_foregroundBlur_4115_267855"/>
</filter>
<radialGradient id="paint0_radial_4115_267855" cx="0" cy="0" r="1" gradientUnits="userSpaceOnUse" gradientTransform="translate(147.995 255.5) rotate(81.8699) scale(3.53553 3.5122)">
<stop stop-color="#FFFEF9"/>
<stop offset="1" stop-color="#FFF599"/>
</radialGradient>
<radialGradient id="paint1_radial_4115_267855" cx="0" cy="0" r="1" gradientUnits="userSpaceOnUse" gradientTransform="translate(148 234.999) rotate(80.5377) scale(3.04138)">
<stop stop-color="#FFFFFC"/>
<stop offset="1" stop-color="#FFF599"/>
</radialGradient>
</defs>
</svg>
