<svg width="1000" height="320" viewBox="0 0 1000 320" fill="none" xmlns="http://www.w3.org/2000/svg">
<path d="M70.2001 182C66.4001 183.2 62.5001 184.4 58.6001 185.5L92.7001 215.3C99.5001 216.7 106.3 218.1 113.1 219.5L70.2001 182Z" fill="#F24747"/>
<path d="M931.7 117.6L931.4 117.1C925.7 115.6 920 114 914.4 112.3C913.9 112.5 913.4 112.8 912.9 113C885.9 125.2 849.1 142.2 800.4 165.2L785.5 67.6999C780.4 65.8999 775.2 64.0999 770.1 62.3999L786.6 171.7C781.3 174.2 775.8 176.8 770.2 179.4C743.4 192.1 701.3 212.2 660.4 231.8L575.5 158L676.3 36.1999C671.9 35.2999 667.5 34.3999 663.1 33.4999L566.5 150.3L493 86.3999L558.6 21.3999C553.9 21.1999 549.1 20.9999 544.2 20.8999L485 79.4999L426 28.1999C421.7 28.9999 417.4 29.7999 413.3 30.7999L477.8 86.6999L318.9 244.1L220.2 145.3L300 73.8999C284.9 81.8999 269.9 90.3999 254.3 99.0999L212 137.1L202.4 127.5C199.3 129.1 196.2 130.7 193 132.3L204.5 143.8L118.6 220.7C123.3 221.7 127.9 222.7 132.6 223.8L212.7 152.1L311.7 251.3L298.2 264.7C302.2 265.7 306.2 266.7 310.2 267.6L319.2 258.7L333.6 273.1C339.8 274.5 346 276 352.2 277.3L326.4 251.5L485.7 93.5999L560 158.1L447.5 294.1C452.3 294.6 457 295.1 461.7 295.6L569 165.9L650.5 236.6C593.4 264 540.9 289.2 538.3 290.5C535.1 292.1 529.8 294.2 525.9 296.6C538.6 295.6 550.7 293.7 562.6 291.1C587.8 279 622.1 262.8 660.1 244.9L668.2 251.9C671.5 250.4 674.8 248.9 678.1 247.3L669.9 240.2C707.9 222.3 749.1 203 788.4 184.5L790.4 198.1C795 196.3 799.7 194.5 804.5 192.7L802.2 178C847.1 157 888.7 137.5 919 123.4L936.2 151.8C941 150.6 945.8 149.4 950.7 148.2L931.7 117.6Z" fill="#F24747"/>
</svg>
