<svg width="1000" height="320" viewBox="0 0 1000 320" fill="none" xmlns="http://www.w3.org/2000/svg">
<g clip-path="url(#clip0)">
<path d="M178 109.3C177.9 109 177.5 108.9 176.9 108.8C174.9 108.7 173.7 110.9 174.7 112.6C174.8 112.8 174.9 113 175 113.3C177.3 118.1 176.8 123.2 173.6 124.7C170.5 126.2 166.1 123.6 163.7 118.9C163.6 118.7 163.5 118.5 163.4 118.2C162.6 116.3 159.9 116 158.9 117.8C158.7 118.1 158.7 118.5 158.8 118.8C162.2 125.8 166.4 131.1 172 130.8C172.3 130.8 172.5 130.9 172.7 131.2L178 142C178.4 142.9 180.3 142.9 182.1 142C184 141.1 185.1 139.6 184.6 138.8L179.3 128C179.2 127.8 179.2 127.5 179.4 127.2C183.1 122.9 181.4 116.3 178 109.3C178 109.4 178 109.4 178 109.3Z" fill="#AD033C"/>
<path d="M78.8002 150.7C78.7002 150.4 78.3002 150.3 77.7002 150.2C75.8002 150.1 74.4002 152.1 75.3002 153.9C75.4002 154.2 75.5002 154.3 75.6002 154.6C77.8002 159.5 77.0002 164.5 73.8002 165.9C70.6002 167.3 66.3002 164.5 64.2002 159.6C64.1002 159.3 64.0002 159.2 63.9002 158.9C63.2002 157 60.5002 156.6 59.4002 158.3C59.1002 158.7 59.2002 158.9 59.3002 159.2C62.4002 166.3 66.3002 171.8 72.0002 171.7C72.3002 171.7 72.5002 171.9 72.6002 172.2L77.5002 183.3C77.8002 184.3 79.7002 184.2 81.6002 183.4C83.4002 182.6 84.7002 181.1 84.3002 180.3L79.5002 169.4C79.4002 169.1 79.5002 168.8 79.7002 168.6C83.4002 164.5 82.0002 157.9 78.8002 150.7C78.9002 150.8 78.9002 150.8 78.8002 150.7Z" fill="#AD033C"/>
<path d="M256.3 67.9002C256.2 67.6002 255.7 67.4002 255.3 67.3002C253.3 67.2002 252.1 69.4002 253 71.1002C253.1 71.3002 253.3 71.5002 253.3 71.7002C255.6 76.5002 254.9 81.6002 251.7 83.0002C248.5 84.5002 244.2 81.8002 241.9 76.9002C241.8 76.7002 241.6 76.5002 241.6 76.2002C240.9 74.3002 238.2 74.0002 237.1 75.7002C236.9 76.0002 236.8 76.4002 237 76.6002C240.4 83.7002 244.3 89.0002 249.9 88.8002C250.2 88.8002 250.5 89.0002 250.6 89.2002L255.7 100.1C256.1 101.1 258 101 259.8 100.1C261.7 99.2002 262.8 97.8002 262.3 96.9002L257.2 86.0002C257.1 85.7002 257.1 85.5002 257.3 85.2002C261.1 81.5002 259.5 74.9002 256.3 67.9002Z" fill="#AD033C"/>
<path d="M364.4 17.7999C364.3 17.4999 363.9 17.1999 363.5 17.0999C361.6 16.6999 360 18.6999 360.7 20.5999C360.7 20.7999 360.8 21.0999 361 21.2999C362.6 26.2999 361.2 31.2999 358 32.2999C354.6 33.3999 350.7 30.0999 349.2 25.0999C349.2 24.8999 349.1 24.5999 348.9 24.3999C348.4 22.3999 345.8 21.6999 344.5 23.3999C344.2 23.6999 344.2 23.9999 344.3 24.3999C346.6 31.7999 349.9 37.6999 355.5 38.1999C355.7 38.2999 356 38.3999 356.1 38.6999L359.7 50.1999C360 51.0999 361.8 51.3999 363.8 50.6999C365.8 49.9999 367.1 48.7999 366.8 47.8999L363 36.2999C362.9 35.9999 363 35.6999 363.2 35.5999C367.4 31.8999 366.8 25.1999 364.4 17.7999Z" fill="#AD033C"/>
<path d="M448.1 -1.6001C448.1 -1.9001 447.7 -2.2001 447.4 -2.5001C445.6 -3.3001 443.6 -1.9001 443.9 0.0998967C443.9 0.299897 443.9 0.5999 444 0.8999C444.3 6.1999 441.7 10.6999 438.2 10.7999C434.7 10.9999 431.7 6.7999 431.5 1.4999C431.5 1.2999 431.5 0.999899 431.4 0.699899C431.5 -1.4001 429 -2.6001 427.4 -1.5001C427.1 -1.3001 426.9 -1.0001 426.9 -0.700103C427.3 7.0999 428.9 13.5999 434.2 15.4999C434.4 15.5999 434.7 15.7999 434.7 16.0999L435.3 28.1999C435.4 29.1999 437.1 29.8999 439.1 29.7999C441.2 29.6999 442.8 28.6999 442.7 27.8999L442.1 15.8999C442.1 15.5999 442.3 15.2999 442.5 15.1999C447.3 12.7999 448.5 6.1999 448.1 -1.6001Z" fill="#AD033C"/>
<path d="M565 -4.69997C565.1 -4.99997 564.7 -5.29996 564.4 -5.59996C562.8 -6.69996 560.6 -5.49997 560.5 -3.49997C560.5 -3.29997 560.4 -2.89997 560.5 -2.69997C560 2.60003 556.8 6.60004 553.4 6.20004C549.9 5.90004 547.6 1.30004 548.1 -3.99997C548.1 -4.19997 548.2 -4.59996 548.1 -4.79996C548.5 -6.79996 546.2 -8.49996 544.4 -7.59996C544.1 -7.49996 543.9 -7.19997 543.8 -6.89997C543.1 0.900034 543.8 7.50004 548.7 10.2C548.9 10.4 549.1 10.6 549.1 10.9L548 22.9C547.9 23.9 549.5 24.9 551.5 25C553.5 25.1 555.2 24.6 555.3 23.5L556.4 11.6C556.5 11.3 556.7 11 556.9 11C562.2 9.60003 564.3 3.10003 565 -4.69997C565 -4.59997 565 -4.59997 565 -4.69997Z" fill="#AD033C"/>
<path d="M695.7 16.8999C695.8 16.5999 695.6 16.0999 695.2 15.7999C693.9 14.3999 691.5 15.0999 690.9 16.9999C690.8 17.1999 690.7 17.5999 690.7 17.6999C689.1 22.7999 685.1 25.9999 681.8 24.9999C678.5 23.9999 677.1 18.9999 678.8 13.8999C678.9 13.6999 679 13.2999 679 13.0999C679.7 11.1999 678 9.19989 676 9.59989C675.6 9.69989 675.3 9.89989 675.2 10.1999C672.9 17.5999 672.1 24.2999 676.3 27.9999C676.5 28.1999 676.6 28.3999 676.5 28.7999L672.8 40.2999C672.5 41.2999 673.8 42.4999 675.8 43.0999C677.8 43.6999 679.5 43.4999 679.9 42.4999L683.6 31.0999C683.7 30.7999 683.9 30.6999 684.3 30.6999C689.9 30.1999 693.2 24.2999 695.7 16.8999Z" fill="#AD033C"/>
<path d="M795.5 46.4999C795.7 46.1999 795.5 45.7999 795.2 45.2999C794 43.7999 791.5 44.2999 790.9 46.1999C790.9 46.3999 790.7 46.6999 790.6 46.7999C788.5 51.6999 784.3 54.5999 781.1 53.1999C777.9 51.7999 776.9 46.7999 779 41.8999C779 41.6999 779.2 41.3999 779.2 41.0999C780.2 39.1999 778.5 37.0999 776.6 37.3999C776.2 37.4999 776 37.5999 775.8 37.9999C772.8 45.1999 771.5 51.6999 775.4 55.7999C775.6 55.9999 775.7 56.2999 775.5 56.5999L770.8 67.6999C770.4 68.5999 771.7 69.9999 773.5 70.7999C775.4 71.5999 777.2 71.4999 777.7 70.5999L782.4 59.5999C782.6 59.2999 782.7 59.1999 783.1 59.1999C788.6 59.2999 792.4 53.7999 795.5 46.4999C795.5 46.5999 795.5 46.5999 795.5 46.4999Z" fill="#AD033C"/>
<path d="M781.2 223.5C781.3 223.8 781.7 223.9 782.3 224C784.3 224.1 785.5 221.9 784.6 220.2C784.5 220 784.4 219.8 784.3 219.5C782 214.7 782.7 209.6 785.8 208.2C789 206.7 793.3 209.4 795.6 214.1C795.7 214.3 795.8 214.5 795.9 214.8C796.7 216.7 799.4 217 800.4 215.2C800.6 214.9 800.6 214.5 800.5 214.3C797.1 207.3 793 201.9 787.4 202.2C787.1 202.2 786.9 202.1 786.7 201.8L781.5 190.9C781.1 190 779.2 190 777.4 190.9C775.5 191.8 774.4 193.2 774.9 194.1L780.1 204.9C780.2 205.2 780.2 205.4 780 205.7C776.3 209.9 777.9 216.5 781.2 223.5Z" fill="#AD033C"/>
<path d="M580.6 309C580.7 309.3 581 309.5 581.5 309.8C583.4 310.3 585.1 308.5 584.6 306.6C584.5 306.4 584.5 306.1 584.5 305.8C583.4 300.6 585.2 295.8 588.6 295C592 294.2 595.6 297.9 596.7 303C596.8 303.2 596.8 303.5 596.9 303.8C597.2 305.9 599.8 306.8 601.2 305.2C601.5 304.9 601.6 304.7 601.5 304.3C599.9 296.7 597.1 290.6 591.6 289.5C591.3 289.4 591.1 289.3 591.1 289L588.6 277.2C588.4 276.2 586.6 275.8 584.6 276.2C582.6 276.6 581.2 277.8 581.4 278.7L583.9 290.3C584 290.6 583.9 290.8 583.6 291.1C579 294.6 579 301.3 580.6 309C580.6 308.9 580.6 308.9 580.6 309Z" fill="#AD033C"/>
<path d="M459.5 319.9C459.5 320.2 459.8 320.6 460.3 320.8C462.1 321.7 464 320.3 463.9 318.3C463.9 318.1 463.9 317.8 463.9 317.5C463.8 312.2 466.4 307.8 469.9 307.7C473.4 307.6 476.3 311.9 476.4 317.1C476.4 317.3 476.4 317.6 476.4 317.9C476.3 320 478.7 321.3 480.4 320.2C480.7 320 480.9 319.8 480.9 319.4C480.7 311.6 479.3 305.1 474 303C473.8 302.9 473.6 302.7 473.6 302.3L473.3 290.2C473.3 289.2 471.7 288.4 469.6 288.4C467.5 288.4 466 289.3 466 290.3L466.3 302.3C466.3 302.6 466.2 302.8 465.9 303C460.6 305.5 459.4 312.1 459.5 319.9Z" fill="#AD033C"/>
<path d="M657.3 280.4C657.4 280.7 657.8 280.9 658.3 280.9C660.3 281.1 661.6 279 660.8 277.2C660.7 277 660.6 276.7 660.5 276.5C658.5 271.6 659.3 266.6 662.6 265.2C665.8 263.8 670.1 266.8 672.1 271.6C672.2 271.8 672.3 272.1 672.4 272.3C673.1 274.3 675.8 274.6 676.9 273C677.1 272.7 677.3 272.4 677.1 272.1C674.1 264.9 670.4 259.4 664.7 259.4C664.5 259.4 664.2 259.3 664.1 258.9L659.4 247.8C659 246.9 657.2 246.8 655.3 247.5C653.4 248.3 652.2 249.6 652.6 250.6L657.3 261.6C657.4 261.9 657.4 262.2 657.1 262.4C653.1 266.5 654.4 273.1 657.3 280.4Z" fill="#AD033C"/>
<path d="M880.5 188.8C880.6 189.1 881 189.3 881.5 189.4C883.4 189.7 884.9 187.8 884.2 185.9C884.1 185.7 884 185.4 884 185.2C882.4 180.2 883.6 175.2 887 174.1C890.3 173 894.3 176.3 895.9 181.3C896 181.5 896.1 181.8 896.1 182C896.6 184 899.3 184.6 900.6 183.1C900.9 182.8 901 182.5 900.9 182.2C898.4 174.8 895.2 169 889.6 168.5C889.4 168.5 889.1 168.3 889 168L885.2 156.5C884.9 155.6 883.1 155.3 881.1 155.9C879.1 156.5 877.9 157.8 878.2 158.7L882 170.1C882.1 170.4 882.1 170.7 881.8 170.9C877.4 174.7 878.1 181.4 880.5 188.8Z" fill="#AD033C"/>
<path d="M381 307.2C381 307.5 381.2 307.9 381.6 308.2C383.2 309.4 385.4 308.2 385.5 306.3C385.5 306.1 385.5 305.8 385.6 305.5C386.2 300.2 389.6 296.3 393 296.8C396.5 297.3 398.6 301.9 398 307.1C398 307.3 398 307.6 397.9 307.9C397.5 310 399.6 311.6 401.4 310.7C401.7 310.5 402 310.3 402 310C403 302.3 402.4 295.6 397.6 292.8C397.4 292.7 397.2 292.3 397.3 292.1L398.7 280.2C398.8 279.2 397.2 278.2 395.3 278C393.2 277.7 391.5 278.4 391.4 279.3L390 291C390 291.3 389.8 291.5 389.5 291.6C384.2 293.1 382 299.5 381 307.2C381 307.1 381 307.1 381 307.2Z" fill="#AD033C"/>
<path d="M210.1 267.2C210 267.5 210.2 267.9 210.5 268.3C211.9 269.6 214.2 268.7 214.7 266.9C214.8 266.7 214.8 266.4 214.9 266.1C216.2 260.9 220 257.5 223.4 258.4C226.8 259.3 228.3 264.1 227 269.3C226.9 269.5 226.9 269.8 226.8 270.1C226.1 272.1 228 274.1 230 273.4C230.4 273.3 230.7 273.1 230.7 272.7C232.7 265.2 233 258.4 228.5 255C228.3 254.8 228.2 254.6 228.3 254.2L231.3 242.6C231.5 241.6 230.2 240.4 228.2 240C226.2 239.5 224.5 239.9 224.1 240.8L221.1 252.3C221 252.6 220.8 252.8 220.6 252.8C215.1 253.6 212.2 259.6 210.1 267.2C210.1 267.1 210.1 267.1 210.1 267.2Z" fill="#AD033C"/>
<path d="M94.6002 239.8C94.5002 240.1 94.7002 240.6 95.0002 240.9C96.4002 242.3 98.8002 241.7 99.3002 239.8C99.4002 239.6 99.5002 239.4 99.5002 239.1C101.2 234.1 105.2 230.9 108.6 232.1C111.9 233.2 113.1 238.1 111.4 243.2C111.3 243.4 111.2 243.6 111.1 244C110.3 245.9 112 248 113.9 247.4C114.3 247.3 114.6 247.2 114.7 246.8C117.3 239.5 118.1 232.8 113.9 229C113.7 228.8 113.6 228.6 113.7 228.2L117.7 216.8C118 215.8 116.8 214.5 114.8 213.9C112.9 213.2 111.1 213.4 110.7 214.3L106.8 225.6C106.7 225.9 106.5 226 106.2 226.1C100.7 226.7 97.3002 232.5 94.6002 239.8C94.7002 239.8 94.7002 239.8 94.6002 239.8Z" fill="#AD033C"/>
</g>
<defs>
<clipPath id="clip0">
<rect width="1000" height="320" fill="white"/>
</clipPath>
</defs>
</svg>
