<svg width="1000" height="320" viewBox="0 0 1000 320" fill="none" xmlns="http://www.w3.org/2000/svg">
<path d="M490.6 13.0996C492.2 12.9996 493.6 12.1996 493.6 11.1996V10.4996C493.6 9.49964 492.1 8.79964 490.5 8.89964L478 9.39964C476.4 9.49964 475 10.2996 475 11.2996V11.7996C475 12.7996 476.5 13.4996 478.1 13.3996L479.9 13.2996L480.3 23.2996L478.5 23.3996C476.9 23.4996 475.5 24.2996 475.5 25.2996V25.7996C475.5 26.7996 477 27.4996 478.6 27.3996L491 26.8996C492.6 26.7996 494 25.9996 494 24.9996V24.4996C494 23.4996 492.5 22.7996 490.9 22.8996L489.1 22.9996L488.7 12.9996L490.5 12.8996L490.6 13.0996Z" fill="#E48405"/>
<path d="M487.1 27.3996L482.9 27.5996C482.9 27.5996 482.9 20.6996 482.9 18.3996C482.8 16.0996 482.2 9.29961 482.2 9.29961L486.3 9.09961C486.3 9.09961 486.3 15.9996 486.3 18.1996C486.4 20.4996 487.1 27.3996 487.1 27.3996Z" fill="#BC6906"/>
<path d="M405.9 24.7996C407.5 24.4996 408.8 23.4996 408.5 22.4996L408.4 21.9996C408.2 20.9996 406.7 20.3996 405.1 20.7996L392.9 23.0996C391.3 23.3996 390 24.3996 390.3 25.3996L390.4 25.8996C390.6 26.8996 392.1 27.4996 393.7 27.0996L395.4 26.7996L397.2 36.5996L395.5 36.8996C393.9 37.1996 392.6 38.1996 392.9 39.1996L393 39.6996C393.2 40.6996 394.7 41.2996 396.3 40.8996L408.5 38.5996C410.1 38.2996 411.4 37.2996 411.1 36.2996L411 35.7996C410.8 34.7996 409.3 34.1996 407.7 34.5996L406 34.8996L404.2 25.0996L405.9 24.7996Z" fill="#E48405"/>
<path d="M404.5 39.4994L400.5 40.1994C400.5 40.1994 399.6 33.2994 399.2 30.9994C398.8 28.6994 397.2 22.0994 397.2 22.0994L401.2 21.3994C401.2 21.3994 402 28.1994 402.5 30.4994C402.9 32.7994 404.5 39.4994 404.5 39.4994Z" fill="#BC6906"/>
<path d="M338.7 47.8997C340.3 47.2997 341.3 46.0996 340.9 45.1996L340.7 44.6996C340.4 43.7996 338.7 43.3996 337.2 44.0996L325.6 48.4997C324 49.0997 323 50.2996 323.4 51.1996L323.6 51.6996C323.9 52.5996 325.6 52.9997 327.1 52.2997L328.8 51.6996L332.2 61.0996L330.5 61.6996C328.9 62.2996 327.9 63.4997 328.3 64.3997L328.5 64.8997C328.8 65.7997 330.5 66.1997 332 65.4997L343.6 61.0996C345.2 60.4996 346.2 59.2997 345.8 58.3997L345.6 57.8997C345.3 56.9997 343.6 56.5997 342.1 57.2997L340.4 57.8997L337 48.4997L338.7 47.8997Z" fill="#E48405"/>
<path d="M339.7 62.6995L335.9 64.0995C335.9 64.0995 333.9 57.4995 333.1 55.2995C332.3 53.0995 329.5 46.8995 329.5 46.8995L333.3 45.4995C333.3 45.4995 335.3 51.9995 336.1 54.1995C336.9 56.3995 339.7 62.6995 339.7 62.6995Z" fill="#BC6906"/>
<path d="M309 61.0997C310.5 60.2997 311.3 58.8997 310.9 58.0997L310.7 57.5997C310.3 56.6997 308.6 56.6997 307.2 57.4997L296.2 63.2997C294.7 64.0997 293.9 65.4997 294.3 66.2997L294.5 66.7997C294.9 67.6997 296.6 67.6997 298 66.8997L299.6 66.0997L304.3 74.9997L302.7 75.7997C301.2 76.5997 300.4 77.9997 300.8 78.7997L301 79.2997C301.4 80.1997 303.1 80.1997 304.5 79.3997L315.5 73.5997C317 72.7997 317.8 71.3997 317.4 70.5997L317.2 70.0997C316.8 69.1997 315.1 69.1997 313.7 69.9997L312.1 70.7997L307.4 61.8997L309 61.0997Z" fill="#E48405"/>
<path d="M312.1 75.5999L308.5 77.4999C308.5 77.4999 305.5 71.1999 304.5 69.1999C303.4 67.1999 299.8 61.2999 299.8 61.2999L303.4 59.3999C303.4 59.3999 306.3 65.5999 307.4 67.5999C308.5 69.6999 312.1 75.5999 312.1 75.5999Z" fill="#BC6906"/>
<path d="M225.2 107.8C226.7 107 227.5 105.6 227 104.8L226.7 104.3C226.2 103.5 224.6 103.4 223.2 104.2L212.3 110.2C210.8 111 210 112.4 210.5 113.2L210.8 113.7C211.3 114.5 212.9 114.6 214.3 113.8L215.9 113L220.8 121.7L219.2 122.5C217.7 123.3 216.9 124.7 217.4 125.5L217.7 126C218.2 126.8 219.8 126.9 221.2 126.1L232.1 120.1C233.6 119.3 234.4 117.9 233.9 117.1L233.6 116.6C233.1 115.8 231.5 115.7 230.1 116.5L228.5 117.3L223.6 108.6L225.2 107.8Z" fill="#E48405"/>
<path d="M228.5 122.3L224.9 124.3C224.9 124.3 221.9 118.1 220.7 116.1C219.6 114.1 216 108.3 216 108.3L219.6 106.3C219.6 106.3 222.6 112.5 223.7 114.5C224.8 116.4 228.5 122.3 228.5 122.3Z" fill="#BC6906"/>
<path d="M161.2 140.8C162.8 140.2 163.7 138.9 163.3 137.9L163.1 137.4C162.7 136.5 161.1 136.3 159.6 136.9L148.2 141.7C146.6 142.3 145.7 143.6 146.1 144.6L146.3 145.1C146.7 146 148.3 146.2 149.8 145.6L151.4 144.9L155.3 154L153.7 154.7C152.1 155.3 151.2 156.6 151.6 157.6L151.8 158.1C152.2 159 153.8 159.2 155.3 158.6L166.7 153.8C168.3 153.2 169.2 151.9 168.8 150.9L168.6 150.4C168.2 149.5 166.6 149.3 165.1 149.9L163.5 150.6L159.6 141.5L161.2 140.8Z" fill="#E48405"/>
<path d="M162.9 155.4L159.1 157C159.1 157 156.8 150.5 155.8 148.3C154.9 146.2 151.9 140.1 151.9 140.1L155.7 138.5C155.7 138.5 158 145 158.9 147C159.9 149.2 162.9 155.4 162.9 155.4Z" fill="#BC6906"/>
<path d="M134.1 151.8C135.6 151 136.5 149.8 136 148.8L135.8 148.3C135.3 147.4 133.8 147.3 132.3 148L121.2 153.5C119.7 154.3 118.8 155.5 119.3 156.5L119.5 157C120 157.9 121.5 158 123 157.3L124.5 156.5L129 165.4L127.5 166.2C126 167 125.1 168.2 125.6 169.2L125.8 169.7C126.3 170.6 127.8 170.7 129.3 170L140.4 164.5C141.9 163.7 142.8 162.5 142.3 161.5L142.1 161C141.6 160.1 140.1 160 138.6 160.7L137 161.4L132.5 152.5L134.1 151.8Z" fill="#E48405"/>
<path d="M136.6 166.3L132.9 168.1C132.9 168.1 130.2 161.7 129.1 159.7C128.1 157.7 124.8 151.7 124.8 151.7L128.5 149.9C128.5 149.9 131.2 156.2 132.2 158.3C133.3 160.3 136.6 166.3 136.6 166.3Z" fill="#BC6906"/>
<path d="M50.7999 180C52.3999 179.5 53.4999 178.3 53.0999 177.3L52.8999 176.8C52.5999 175.9 50.9999 175.6 49.3999 176.1L37.6999 180C36.0999 180.5 34.9999 181.7 35.3999 182.7L35.5999 183.2C35.8999 184.1 37.4999 184.4 39.0999 183.9L40.7999 183.4L43.8999 192.9L42.1999 193.4C40.5999 193.9 39.4999 195.1 39.8999 196.1L40.0999 196.6C40.3999 197.5 41.9999 197.8 43.5999 197.3L55.3999 193.4C56.9999 192.9 58.0999 191.7 57.6999 190.7L57.4999 190.2C57.1999 189.3 55.5999 189 53.9999 189.5L52.2999 190L49.1999 180.5L50.7999 180Z" fill="#E48405"/>
<path d="M51.2999 194.8L47.3999 196.1C47.3999 196.1 45.5999 189.4 44.7999 187.2C44.0999 185 41.5999 178.6 41.5999 178.6L45.4999 177.3C45.4999 177.3 47.2999 184 47.9999 186.1C48.7999 188.4 51.2999 194.8 51.2999 194.8Z" fill="#BC6906"/>
<path d="M72.4997 216.6C70.7997 216.2 69.2997 216.6 68.9997 217.6L68.7997 218.1C68.5997 219.1 69.5997 220.2 71.2997 220.6L83.2997 223.6C84.9997 224 86.4997 223.6 86.7997 222.6L86.9997 222.1C87.1997 221.1 86.1997 220 84.4997 219.6L82.7997 219.2L85.1997 209.5L86.8997 209.9C88.5997 210.3 90.0997 209.9 90.3997 208.9L90.5997 208.4C90.7997 207.4 89.7997 206.3 88.0997 205.9L76.0997 202.9C74.3997 202.5 72.8997 202.9 72.5997 203.9L72.3997 204.4C72.1997 205.4 73.1997 206.5 74.8997 206.9L76.5997 207.3L74.1997 217L72.4997 216.6Z" fill="#E48405"/>
<path d="M79.9997 204L83.9997 205.1C83.9997 205.1 81.9997 211.7 81.3997 214C80.7997 216.2 79.4997 222.9 79.4997 222.9L75.4997 221.8C75.4997 221.8 77.4997 215.2 78.0997 213C78.6997 210.7 79.9997 204 79.9997 204Z" fill="#BC6906"/>
<path d="M148.1 232.4C146.4 231.9 145 232.3 144.7 233.2L144.5 233.7C144.2 234.7 145.3 235.9 146.9 236.3L158.8 239.9C160.5 240.4 161.9 240 162.2 239.1L162.4 238.6C162.7 237.6 161.6 236.4 160 236L158.3 235.5L161.1 225.9L162.8 226.4C164.5 226.9 165.9 226.5 166.2 225.6L166.4 225.1C166.7 224.1 165.6 222.9 164 222.5L152.1 218.9C150.4 218.4 149 218.8 148.7 219.7L148.5 220.2C148.2 221.2 149.3 222.4 150.9 222.8L152.6 223.3L149.8 232.9L148.1 232.4Z" fill="#E48405"/>
<path d="M156.1 219.9L160 221.1C160 221.1 157.7 227.7 157.1 229.8C156.4 232 154.9 238.6 154.9 238.6L151 237.4C151 237.4 153.3 231 153.9 228.7C154.5 226.6 156.1 219.9 156.1 219.9Z" fill="#BC6906"/>
<path d="M177.5 240.4C175.9 239.9 174.3 240.4 174.1 241.3L174 241.9C173.7 242.8 174.8 244 176.4 244.5L188.3 247.9C189.9 248.4 191.5 247.9 191.7 247L191.8 246.4C192.1 245.5 191 244.3 189.4 243.8L187.7 243.4L190.5 233.8L192.2 234.2C193.8 234.7 195.4 234.2 195.6 233.3L195.7 232.7C196 231.8 194.9 230.6 193.3 230.1L181.4 226.7C179.8 226.2 178.2 226.7 178 227.6L177.9 228.2C177.6 229.1 178.7 230.3 180.3 230.8L182 231.2L179.2 240.8L177.5 240.4Z" fill="#E48405"/>
<path d="M185.4 227.9L189.3 229.1C189.3 229.1 187 235.7 186.4 237.9C185.8 240.1 184.2 246.8 184.2 246.8L180.3 245.6C180.3 245.6 182.6 239.1 183.2 236.9C183.8 234.6 185.4 227.9 185.4 227.9Z" fill="#BC6906"/>
<path d="M276.1 264.1C274.5 263.6 272.9 263.9 272.6 264.9L272.4 265.4C272.1 266.4 273.2 267.6 274.8 268.1L286.7 271.9C288.3 272.4 289.9 272.1 290.2 271.1L290.4 270.6C290.7 269.6 289.6 268.4 288 267.9L286.3 267.4L289.3 257.9L291 258.4C292.6 258.9 294.2 258.6 294.5 257.6L294.7 257.1C295 256.1 293.9 254.9 292.3 254.4L280.4 250.6C278.8 250.1 277.2 250.4 276.9 251.4L276.7 251.9C276.4 252.9 277.5 254.1 279.1 254.6L280.8 255.1L277.8 264.6L276.1 264.1Z" fill="#E48405"/>
<path d="M284.4 251.8L288.4 253.1C288.4 253.1 286 259.6 285.2 261.8C284.5 263.9 282.8 270.6 282.8 270.6L278.8 269.3C278.8 269.3 281.2 262.8 282 260.7C282.6 258.5 284.4 251.8 284.4 251.8Z" fill="#BC6906"/>
<path d="M315.5 274.6C313.9 274.2 312.3 274.7 312.1 275.7L311.9 276.2C311.7 277.2 312.9 278.3 314.5 278.7L326.6 281.3C328.2 281.7 329.8 281.2 330 280.2L330.2 279.7C330.4 278.7 329.2 277.6 327.6 277.2L325.9 276.8L328 267.1L329.7 267.5C331.3 267.9 332.9 267.4 333.1 266.4L333.3 265.9C333.5 264.9 332.3 263.8 330.7 263.4L318.6 260.8C317 260.4 315.4 260.9 315.2 261.9L315 262.4C314.8 263.4 316 264.5 317.6 264.9L319.3 265.3L317.2 275L315.5 274.6Z" fill="#E48405"/>
<path d="M322.5 261.6L326.5 262.4C326.5 262.4 324.7 269.1 324.2 271.3C323.8 273.6 322.6 280.3 322.6 280.3L318.6 279.5C318.6 279.5 320.4 272.8 320.9 270.6C321.4 268.4 322.5 261.6 322.5 261.6Z" fill="#BC6906"/>
<path d="M361.7 284.9C360.1 284.6 358.6 285.1 358.4 286.1L358.3 286.6C358.1 287.6 359.3 288.6 361 288.9L373.2 291.1C374.8 291.4 376.3 290.9 376.5 289.9L376.6 289.4C376.8 288.4 375.6 287.4 373.9 287.1L372.2 286.8L374 276.9L375.7 277.2C377.3 277.5 378.8 277 379 276L379.1 275.5C379.3 274.5 378.1 273.5 376.4 273.2L364.2 271C362.6 270.7 361.1 271.2 360.9 272.2L360.8 272.7C360.6 273.7 361.8 274.7 363.5 275L365.2 275.3L363.4 285.2L361.7 284.9Z" fill="#E48405"/>
<path d="M368.3 271.7L372.3 272.5C372.3 272.5 370.7 279.3 370.4 281.6C369.9 283.9 369.1 290.6 369.1 290.6L365.1 289.8C365.1 289.8 366.7 283.1 367 280.8C367.5 278.6 368.3 271.7 368.3 271.7Z" fill="#BC6906"/>
<path d="M435.2 297.5C433.6 297.4 432.1 298 432 299V299.5C431.9 300.5 433.2 301.5 434.9 301.6L447.3 302.8C448.9 302.9 450.4 302.3 450.5 301.3V300.8C450.6 299.8 449.3 298.8 447.6 298.7L445.8 298.6L446.8 288.7L448.6 288.8C450.2 288.9 451.7 288.3 451.8 287.3V286.8C451.9 285.8 450.6 284.8 448.9 284.7L436.5 283.5C434.9 283.4 433.4 284 433.3 285V285.5C433.2 286.5 434.5 287.5 436.2 287.6L438 287.7L437 297.6L435.2 297.5Z" fill="#E48405"/>
<path d="M440.7 283.8L444.7 284.2C444.7 284.2 443.7 291.1 443.4 293.3C443.2 295.6 442.9 302.4 442.9 302.4L438.9 302C438.9 302 439.9 295.1 440.2 293C440.4 290.7 440.7 283.8 440.7 283.8Z" fill="#BC6906"/>
<path d="M503.5 304.2C501.9 304.3 500.5 305.3 500.5 306.3V306.8C500.6 307.8 502 308.4 503.7 308.3L516.1 307.2C517.7 307.1 519.1 306.1 519.1 305.1V304.6C519 303.6 517.6 303 515.9 303.1L514.1 303.2L513.2 293.2L515 293.1C516.6 293 518 292 518 291V290.5C517.9 289.5 516.5 288.9 514.8 289L502.4 290.1C500.8 290.2 499.4 291.2 499.4 292.2V292.7C499.5 293.7 500.9 294.3 502.6 294.2L504.4 294.1L505.3 304.1L503.5 304.2Z" fill="#E48405"/>
<path d="M506.5 289.7L510.6 289.4C510.6 289.4 510.8 296.3 511 298.6C511.2 300.9 512.1 307.7 512.1 307.7L508 308C508 308 507.8 301.1 507.6 298.9C507.3 296.7 506.5 289.7 506.5 289.7Z" fill="#BC6906"/>
<path d="M540.5 301.4C538.9 301.6 537.5 302.5 537.6 303.5L537.7 304C537.8 305 539.2 305.6 541 305.4L553.3 304.1C554.9 303.9 556.3 303 556.2 302L556.1 301.5C556 300.5 554.6 299.9 552.8 300.1L551 300.3L550 290.4L551.8 290.2C553.4 290 554.8 289.1 554.7 288.1L554.6 287.6C554.5 286.6 553.1 286 551.3 286.2L539 287.5C537.4 287.7 536 288.6 536.1 289.6L536.2 290.1C536.3 291.1 537.7 291.7 539.5 291.5L541.3 291.3L542.3 301.2L540.5 301.4Z" fill="#E48405"/>
<path d="M543.1 286.9L547.2 286.5C547.2 286.5 547.5 293.4 547.7 295.7C547.9 298 549 304.7 549 304.7L544.9 305.1C544.9 305.1 544.6 298.2 544.4 296C544.2 293.7 543.1 286.9 543.1 286.9Z" fill="#BC6906"/>
<path d="M623.9 278.7C622.4 279.4 621.4 280.6 621.7 281.5L621.9 282C622.3 282.9 623.8 283.2 625.4 282.5L636.9 277.9C638.4 277.2 639.4 276 639.1 275.1L638.9 274.6C638.5 273.7 637 273.4 635.4 274.1L633.7 274.8L630 265.6L631.7 264.9C633.2 264.2 634.2 263 633.9 262.1L633.7 261.6C633.3 260.7 631.8 260.4 630.2 261.1L618.7 265.7C617.2 266.4 616.2 267.6 616.5 268.5L616.7 269C617.1 269.9 618.6 270.2 620.2 269.5L621.9 268.8L625.6 278L623.9 278.7Z" fill="#E48405"/>
<path d="M622.5 264.1L626.3 262.5C626.3 262.5 628.5 269.1 629.4 271.2C630.3 273.3 633.1 279.5 633.1 279.5L629.3 281.1C629.3 281.1 627.1 274.6 626.3 272.4C625.4 270.4 622.5 264.1 622.5 264.1Z" fill="#BC6906"/>
<path d="M706.1 240.5C704.5 241 703.4 242.3 703.8 243.2L703.9 243.7C704.3 244.7 705.8 244.9 707.4 244.4L719.1 240.4C720.7 239.9 721.8 238.6 721.4 237.7L721.3 237.2C720.9 236.2 719.4 236 717.8 236.5L716.1 237.1L712.8 227.7L714.5 227.1C716.1 226.6 717.2 225.3 716.8 224.4L716.7 223.9C716.3 222.9 714.8 222.7 713.2 223.2L701.5 227.2C699.9 227.7 698.8 229 699.2 229.9L699.3 230.4C699.7 231.4 701.2 231.6 702.8 231.1L704.5 230.5L707.8 239.9L706.1 240.5Z" fill="#E48405"/>
<path d="M705.4 225.8L709.3 224.4C709.3 224.4 711.2 231 712 233.3C712.8 235.5 715.3 241.8 715.3 241.8L711.4 243.2C711.4 243.2 709.5 236.6 708.8 234.4C708 232.2 705.4 225.8 705.4 225.8Z" fill="#BC6906"/>
<path d="M743.7 224.1C742.1 224.7 741.2 226.1 741.5 226.9L741.7 227.4C742.1 228.4 743.6 228.5 745.2 227.9L756.6 223.1C758.2 222.5 759.1 221.1 758.8 220.3L758.6 219.8C758.2 218.8 756.7 218.7 755.1 219.3L753.5 220L749.7 210.8L751.3 210.1C752.9 209.5 753.8 208.1 753.5 207.3L753.3 206.8C752.9 205.8 751.4 205.7 749.8 206.3L738.4 211.1C736.8 211.7 735.9 213.1 736.2 213.9L736.4 214.4C736.8 215.4 738.3 215.5 739.9 214.9L741.5 214.2L745.3 223.4L743.7 224.1Z" fill="#E48405"/>
<path d="M742.1 209.4L745.9 207.8C745.9 207.8 748.2 214.3 749.1 216.4C750 218.6 752.9 224.7 752.9 224.7L749.1 226.3C749.1 226.3 746.8 219.8 746 217.6C745.1 215.6 742.1 209.4 742.1 209.4Z" fill="#BC6906"/>
<path d="M824 192.8C822.4 193.3 821.3 194.6 821.6 195.5L821.7 196.1C822 197 823.6 197.4 825.1 196.8L837 193C838.6 192.5 839.7 191.2 839.4 190.3L839.3 189.7C839 188.8 837.4 188.4 835.9 189L834.2 189.6L831.2 180.1L832.9 179.5C834.5 179 835.6 177.7 835.3 176.8L835.2 176.2C834.9 175.3 833.3 174.9 831.8 175.5L820 179.3C818.4 179.8 817.3 181.1 817.6 182L817.7 182.6C818 183.5 819.6 183.9 821.1 183.3L822.8 182.7L825.8 192.2L824 192.8Z" fill="#E48405"/>
<path d="M823.7 178L827.6 176.8C827.6 176.8 829.4 183.5 830 185.7C830.7 187.8 833.1 194.3 833.1 194.3L829.2 195.5C829.2 195.5 827.5 188.8 826.8 186.7C826.1 184.4 823.7 178 823.7 178Z" fill="#BC6906"/>
<path d="M850.4 183.9C848.8 184.5 847.8 185.8 848.2 186.7L848.4 187.2C848.8 188.2 850.3 188.4 852 187.8L863.6 183.3C865.2 182.7 866.2 181.4 865.8 180.5L865.6 180C865.2 179 863.7 178.8 862 179.4L860.3 180L856.7 170.7L858.4 170.1C860 169.5 861 168.2 860.6 167.3L860.4 166.8C860 165.8 858.5 165.6 856.8 166.2L845.2 170.7C843.6 171.3 842.6 172.6 843 173.5L843.2 174C843.6 175 845.1 175.2 846.8 174.6L848.5 174L852.1 183.3L850.4 183.9Z" fill="#E48405"/>
<path d="M849.3 169.2L853.1 167.8C853.1 167.8 855.2 174.4 856.1 176.6C856.9 178.8 859.7 185 859.7 185L855.9 186.4C855.9 186.4 853.7 179.9 853 177.7C852 175.5 849.3 169.2 849.3 169.2Z" fill="#BC6906"/>
<path d="M920.3 163.5C918.7 163.9 917.5 165.1 917.8 166.1L917.9 166.6C918.2 167.6 919.8 168 921.3 167.4L933.2 163.9C934.8 163.5 936 162.3 935.7 161.3L935.6 160.8C935.3 159.8 933.7 159.4 932.2 160L930.5 160.5L927.7 151L929.4 150.5C931 150.1 932.2 148.9 931.9 147.9L931.8 147.4C931.5 146.4 929.9 146 928.4 146.6L916.5 150.1C914.9 150.5 913.7 151.7 914 152.7L914.1 153.2C914.4 154.2 916 154.6 917.5 154L919.2 153.5L922 163L920.3 163.5Z" fill="#E48405"/>
<path d="M920.3 148.8L924.2 147.6C924.2 147.6 925.8 154.3 926.5 156.5C927.2 158.7 929.4 165.2 929.4 165.2L925.5 166.4C925.5 166.4 923.9 159.7 923.2 157.5C922.6 155.3 920.3 148.8 920.3 148.8Z" fill="#BC6906"/>
<path d="M961.6 115C963.2 115.3 964.8 114.8 965 113.7L965.1 113.2C965.3 112.2 964.1 111.2 962.4 110.9L950.2 108.6C948.6 108.3 947 108.8 946.8 109.9L946.7 110.4C946.5 111.4 947.7 112.4 949.5 112.7L951.2 113.1L949.4 122.9L947.7 122.5C946.1 122.2 944.5 122.7 944.3 123.8L944.2 124.3C944 125.3 945.2 126.3 947 126.6L959.2 128.9C960.8 129.2 962.4 128.7 962.6 127.6L962.7 127.1C962.9 126.1 961.7 125.1 960 124.8L958.3 124.4L960.1 114.6L961.6 115Z" fill="#E48405"/>
<path d="M955.1 128.2L951 127.5C951 127.5 952.6 120.8 953 118.5C953.4 116.2 954.3 109.5 954.3 109.5L958.4 110.2C958.4 110.2 956.8 116.9 956.4 119.2C956 121.3 955.1 128.2 955.1 128.2Z" fill="#BC6906"/>
<path d="M898.9 98.2997C900.5 98.6997 902.1 98.2997 902.3 97.3997L902.5 96.8997C902.8 95.8997 901.6 94.7997 900 94.2997L888 90.8997C886.4 90.4997 884.8 90.8997 884.6 91.7997L884.4 92.2997C884.1 93.2997 885.3 94.3997 886.9 94.8997L888.7 95.3997L886 105L884.2 104.5C882.6 104.1 881 104.5 880.8 105.4L880.6 105.9C880.3 106.9 881.5 108 883.1 108.5L895.1 111.9C896.7 112.3 898.3 111.9 898.5 111L898.7 110.5C899 109.5 897.8 108.4 896.2 107.9L894.4 107.4L897.1 97.7997L898.9 98.2997Z" fill="#E48405"/>
<path d="M891.1 110.9L887.2 109.8C887.2 109.8 889.4 103.2 890.1 101C890.7 98.8995 892.3 91.9995 892.3 91.9995L896.2 93.0995C896.2 93.0995 894 99.6995 893.4 101.8C892.7 104.2 891.1 110.9 891.1 110.9Z" fill="#BC6906"/>
<path d="M875.1 90.8001C876.7 91.4001 878.3 91.0001 878.6 90.0001L878.8 89.4001C879.2 88.4001 878.1 87.2001 876.4 86.8001L864.7 82.9001C863.1 82.3001 861.5 82.7001 861.2 83.7001L861 84.3001C860.6 85.3001 861.7 86.5001 863.4 86.9001L865.1 87.4001L861.9 96.8001L860.2 96.3001C858.6 95.7001 857 96.1001 856.7 97.1001L856.5 97.7001C856.1 98.7001 857.2 99.9001 858.9 100.3L870.6 104.2C872.2 104.8 873.8 104.4 874.1 103.4L874.3 102.8C874.7 101.8 873.6 100.6 871.9 100.2L870.2 99.7001L873.4 90.3001L875.1 90.8001Z" fill="#E48405"/>
<path d="M866.6 102.9L862.7 101.6C862.7 101.6 865.3 95.1002 866 92.9002C866.7 90.7002 868.5 84.2002 868.5 84.2002L872.4 85.5002C872.4 85.5002 869.8 91.9002 869.2 94.0002C868.5 96.2002 866.6 102.9 866.6 102.9Z" fill="#BC6906"/>
<path d="M826.5 73.5998C828.1 74.1998 829.7 73.9998 830 73.0998L830.2 72.4998C830.6 71.5998 829.6 70.2998 828.1 69.6998L816.6 65.0998C815 64.4998 813.4 64.6998 813.1 65.5998L812.9 66.1998C812.5 67.0998 813.5 68.3998 815 68.9998L816.7 69.5998L813.1 78.8998L811.4 78.2998C809.8 77.6998 808.2 77.8998 807.9 78.7998L807.7 79.3998C807.3 80.2998 808.3 81.5998 809.8 82.1998L821.3 86.7998C822.9 87.3998 824.5 87.1998 824.8 86.2998L825 85.6998C825.4 84.7998 824.4 83.4998 822.9 82.8998L821.2 82.2998L824.8 72.9998L826.5 73.5998Z" fill="#E48405"/>
<path d="M817.5 85.1996L813.7 83.5996C813.7 83.5996 816.6 77.2996 817.5 75.1996C818.3 73.0996 820.5 66.5996 820.5 66.5996L824.3 68.1996C824.3 68.1996 821.5 74.3996 820.5 76.5996C819.6 78.6996 817.5 85.1996 817.5 85.1996Z" fill="#BC6906"/>
<path d="M756.4 49.0997C758 49.5997 759.6 49.2997 759.8 48.2997L759.9 47.7997C760.2 46.7997 759.1 45.6997 757.5 45.1997L745.7 41.4997C744.1 40.9997 742.5 41.2997 742.3 42.2997L742.2 42.7997C741.9 43.7997 743 44.8997 744.6 45.3997L746.3 45.8997L743.3 55.3997L741.6 54.8997C740 54.3997 738.4 54.6997 738.2 55.6997L738.1 56.1997C737.8 57.1997 738.9 58.2997 740.5 58.7997L752.3 62.4997C753.9 62.9997 755.5 62.6997 755.7 61.6997L755.8 61.1997C756.1 60.1997 755 59.0997 753.4 58.5997L751.7 58.0997L754.7 48.5997L756.4 49.0997Z" fill="#E48405"/>
<path d="M748.2 61.2995L744.3 60.0995C744.3 60.0995 746.7 53.5995 747.4 51.2995C748.1 49.0995 749.8 42.4995 749.8 42.4995L753.7 43.6995C753.7 43.6995 751.3 50.1995 750.6 52.2995C750 54.5995 748.2 61.2995 748.2 61.2995Z" fill="#BC6906"/>
<path d="M726 40.8C727.6 41.2 729.2 40.7 729.5 39.9L729.6 39.4C729.9 38.4 728.7 37.3 727.1 36.9L715 33.8C713.4 33.4 711.8 33.9 711.5 34.7L711.4 35.2C711.1 36.2 712.3 37.3 713.9 37.7L715.6 38.1L713.2 47.8L711.5 47.4C709.9 47 708.3 47.5 708 48.3L707.9 48.8C707.6 49.8 708.8 50.9 710.4 51.3L722.5 54.4C724.1 54.8 725.7 54.3 726 53.5L726.1 53C726.4 52 725.2 50.9 723.6 50.5L721.9 50.1L724.3 40.4L726 40.8Z" fill="#E48405"/>
<path d="M718.4 53.5001L714.4 52.4001C714.4 52.4001 716.5 45.8001 717 43.5001C717.5 41.3001 719 34.6001 719 34.6001L723 35.7001C723 35.7001 720.9 42.3001 720.4 44.5001C719.9 46.7001 718.4 53.5001 718.4 53.5001Z" fill="#BC6906"/>
<path d="M641.6 20.9998C643.2 21.2998 644.8 20.6998 645 19.6998L645.1 19.1998C645.3 18.1998 644 17.1998 642.3 16.8998L630.1 14.8998C628.5 14.5998 626.9 15.1998 626.7 16.1998L626.6 16.6998C626.4 17.6998 627.7 18.6998 629.4 18.9998L631.1 19.2998L629.6 29.0998L627.9 28.7998C626.3 28.4998 624.7 29.0998 624.5 30.0998L624.4 30.5998C624.2 31.5998 625.5 32.5998 627.2 32.8998L639.4 34.8998C641 35.1998 642.6 34.5998 642.8 33.5998L642.9 33.0998C643.1 32.0998 641.8 31.0998 640.1 30.7998L638.4 30.4998L639.9 20.6998L641.6 20.9998Z" fill="#E48405"/>
<path d="M635.2 34.3997L631.2 33.7997C631.2 33.7997 632.6 26.9997 633 24.7997C633.3 22.4997 634.1 15.6997 634.1 15.6997L638.1 16.2997C638.1 16.2997 636.7 23.0997 636.3 25.1997C635.9 27.4997 635.2 34.3997 635.2 34.3997Z" fill="#BC6906"/>
<path d="M603.1 16.2999C604.7 16.4999 606.2 15.8999 606.3 14.8999V14.3999C606.5 13.3999 605.2 12.4999 603.4 12.1999L591 10.6999C589.4 10.4999 587.8 11.0999 587.8 12.0999V12.5999C587.6 13.5999 588.9 14.4999 590.7 14.7999L592.5 14.9999L591.3 24.9999L589.5 24.7999C587.9 24.5999 586.3 25.1999 586.3 26.1999V26.6999C586.1 27.6999 587.4 28.5999 589.2 28.8999L601.6 30.3999C603.2 30.5999 604.7 29.9999 604.8 28.9999V28.4999C605 27.4999 603.7 26.5999 601.9 26.2999L600.1 26.0999L601.3 16.0999L603.1 16.2999Z" fill="#E48405"/>
<path d="M597.4 29.9001L593.4 29.4001C593.4 29.4001 594.6 22.5001 594.9 20.2001C595.2 17.9001 595.6 11.1001 595.6 11.1001L599.6 11.6001C599.6 11.6001 598.4 18.4001 598.1 20.7001C597.8 23.0001 597.4 29.9001 597.4 29.9001Z" fill="#BC6906"/>
<path d="M523.5 12.0998C525.1 11.9998 526.5 11.1998 526.5 10.1998V9.69984C526.5 8.69984 525 7.99983 523.4 8.09983L511 8.59983C509.4 8.69983 508 9.49983 508 10.4998V10.9998C508 11.9998 509.5 12.6998 511.1 12.5998L512.9 12.4998L513.3 22.4998L511.5 22.5998C509.9 22.6998 508.5 23.4998 508.5 24.4998V24.9998C508.5 25.9998 510 26.6998 511.6 26.5998L524 26.0998C525.6 25.9998 527 25.1998 527 24.1998V23.6998C527 22.6998 525.5 21.9998 523.9 22.0998L522.1 22.1998L521.7 12.1998L523.5 12.0998Z" fill="#E48405"/>
<path d="M519.9 26.3996L515.8 26.5996C515.8 26.5996 515.8 19.6996 515.8 17.3996C515.7 15.0996 515.1 8.29961 515.1 8.29961L519.2 8.09961C519.2 8.09961 519.2 14.9996 519.2 17.1996C519.3 19.4996 519.9 26.3996 519.9 26.3996Z" fill="#BC6906"/>
</svg>
