<svg width="1000" height="320" viewBox="0 0 1000 320" fill="none" xmlns="http://www.w3.org/2000/svg">
<path d="M411.3 60.0001C415.2 62.2001 409 74.7001 399 84.1001C389 93.4001 375 99.9001 373.1 96.4001C370.6 91.8001 382.2 90.0001 392.5 80.6001C402.1 71.6001 407.9 58.1001 411.3 60.0001Z" fill="#6178DE" stroke="#0B147E" stroke-width="2" stroke-miterlimit="10"/>
<path d="M362.4 100.6C361.5 97.5998 350.2 103.7 340.5 105.2C330.8 106.7 322.3 105.4 321.1 108.8C319.9 112.2 333.3 112.3 341.8 110.8C350.4 109.2 363.6 105 362.4 100.6Z" fill="#6178DE" stroke="#0B147E" stroke-width="2" stroke-miterlimit="10"/>
<path d="M404.7 46.3C408.3 48.2 401.6 59.5 397.3 65.6C392 73.1 383.7 79 381.8 76.9C379.9 74.8 386.5 70.8 392.9 62.8C399.1 55.2 401.6 44.8 404.7 46.3Z" fill="#6178DE" stroke="#0B147E" stroke-width="2" stroke-miterlimit="10"/>
<path d="M376.3 80.1003C378.8 83.8003 366.9 89.8003 359.6 92.8003C350.7 96.3003 339.9 96.6003 339.2 93.5003C338.4 90.5003 346.7 91.3003 356.8 88.0003C366.6 84.9003 374.1 76.9003 376.3 80.1003Z" fill="#6178DE" stroke="#0B147E" stroke-width="2" stroke-miterlimit="10"/>
<path d="M331.7 94.2003C331.6 96.8003 324.7 98.5003 320.2 97.2003C315.9 96.1003 313.3 93.5003 314.1 91.7003C314.9 90.1003 318.9 93.0003 322.5 93.6003C326.4 94.3003 331.7 91.5003 331.7 94.2003Z" fill="#6178DE" stroke="#0B147E" stroke-width="2" stroke-miterlimit="10"/>
<path d="M234.8 138.2C238.9 140.1 233.8 153.1 224.4 163.2C215.3 173.3 201.7 180.9 199.7 177.6C196.9 173.2 208.2 170.5 217.7 160.2C226.5 150.5 231.3 136.6 234.8 138.2Z" fill="#6178DE" stroke="#0B147E" stroke-width="2" stroke-miterlimit="10"/>
<path d="M189.4 182.6C188.3 179.7 177.5 186.7 168 189C158.6 191.2 149.9 190.7 148.9 194.1C147.9 197.5 161.4 196.6 169.7 194.4C178.2 192.3 191.1 187 189.4 182.6Z" fill="#6178DE" stroke="#0B147E" stroke-width="2" stroke-miterlimit="10"/>
<path d="M227.2 125.1C230.9 126.6 225.2 138.5 221.4 145C216.8 152.9 208.9 159.5 206.8 157.5C204.8 155.5 210.9 151.1 216.7 142.5C222.2 134.4 223.8 123.8 227.2 125.1Z" fill="#6178DE" stroke="#0B147E" stroke-width="2" stroke-miterlimit="10"/>
<path d="M201.6 161.2C204.4 164.7 193.1 171.8 186 175.3C177.5 179.6 166.7 180.7 165.7 177.8C164.7 174.9 173 175 182.9 170.8C192.3 166.7 199.1 158.1 201.6 161.2Z" fill="#6178DE" stroke="#0B147E" stroke-width="2" stroke-miterlimit="10"/>
<path d="M158.3 178.9C158.4 181.5 151.7 183.7 147.1 182.9C142.8 182.1 139.9 179.8 140.6 178C141.3 176.3 145.4 178.9 149.2 179.2C153.1 179.4 158.1 176.2 158.3 178.9Z" fill="#6178DE" stroke="#0B147E" stroke-width="2" stroke-miterlimit="10"/>
<path d="M243.9 214.6C242.8 211.3 252.9 207.4 263.6 207.2C274.2 207.1 285.6 210.7 284.9 213.6C283.9 217.5 276.4 212.5 265.5 212.6C255.3 212.8 244.8 217.5 243.9 214.6Z" fill="#6178DE" stroke="#0B147E" stroke-width="2" stroke-miterlimit="10"/>
<path d="M293.2 216.9C292.1 219.1 301.8 221.4 308.2 225.6C314.5 229.8 318.8 234.9 321.2 233.7C323.7 232.4 316.1 225.3 310.3 221.7C304.5 218.1 294.8 213.7 293.2 216.9Z" fill="#6178DE" stroke="#0B147E" stroke-width="2" stroke-miterlimit="10"/>
<path d="M240.6 225.9C239.5 223 249.2 220 255 218.7C262 217.1 269.9 218.1 269.8 220.3C269.8 222.5 264 221.3 256 222.6C248.4 223.8 241.5 228.4 240.6 225.9Z" fill="#6178DE" stroke="#0B147E" stroke-width="2" stroke-miterlimit="10"/>
<path d="M274.5 221.4C275 217.9 285.1 220.7 290.8 222.8C297.7 225.3 304.1 230.9 303 233.1C301.8 235.2 297.5 230.5 289.9 227.1C282.6 223.7 274.1 224.4 274.5 221.4Z" fill="#6178DE" stroke="#0B147E" stroke-width="2" stroke-miterlimit="10"/>
<path d="M307.4 236.5C308.8 235.1 313.6 237.7 315.5 240.7C317.3 243.6 317.6 246.4 316.2 247C314.9 247.5 314.1 243.8 312.3 241.5C310.5 239.2 306 238 307.4 236.5Z" fill="#6178DE" stroke="#0B147E" stroke-width="2" stroke-miterlimit="10"/>
<path d="M612.3 48.3003C615.1 52.1003 602.3 60.3003 587.3 63.8003C572.4 67.3003 554.7 66.4003 554.7 62.5003C554.7 57.3003 567.2 61.2003 582.5 57.6003C597 54.2003 609.9 45.0003 612.3 48.3003Z" fill="#6178DE" stroke="#0B147E" stroke-width="2" stroke-miterlimit="10"/>
<path d="M541.8 61.1C542.5 58 527.8 58.2 517.4 54.9C506.8 51.6 498.9 46.6 495.9 48.9C492.9 51.2 506.4 57.7 515.8 60.5C525.2 63.3 540.8 65.6 541.8 61.1Z" fill="#6178DE" stroke="#0B147E" stroke-width="2" stroke-miterlimit="10"/>
<path d="M612.7 33.2003C615.4 36.5003 602.7 43.4003 595.1 46.8003C585.9 51.0003 574.4 52.2003 573.6 49.4003C572.8 46.6003 581.4 46.2003 592.1 42.2003C602.4 38.3003 610.3 30.2003 612.7 33.2003Z" fill="#6178DE" stroke="#0B147E" stroke-width="2" stroke-miterlimit="10"/>
<path d="M566.5 49.6001C567.1 54.1001 551.9 53.8001 543 52.9001C532.2 51.9001 521.1 47.0001 522 44.0001C522.8 41.0001 530.7 45.6001 542.7 47.4001C554.1 49.2001 565.9 45.6001 566.5 49.6001Z" fill="#6178DE" stroke="#0B147E" stroke-width="2" stroke-miterlimit="10"/>
<path d="M514 41.0001C512.6 43.3001 504.8 41.5001 500.8 38.3001C497.1 35.3001 495.7 31.8001 497.5 30.6001C499.2 29.5001 501.6 34.0001 505.1 36.2001C508.7 38.7001 515.5 38.7001 514 41.0001Z" fill="#6178DE" stroke="#0B147E" stroke-width="2" stroke-miterlimit="10"/>
<path d="M768.8 84.2C770.2 87.4999 759.1 91.3 747.3 91.2C735.5 91.0999 722.6 87.3 723.3 84.3C724.2 80.4 732.8 85.6 744.9 85.7C756.3 85.8 767.6 81.3 768.8 84.2Z" fill="#6178DE" stroke="#0B147E" stroke-width="2" stroke-miterlimit="10"/>
<path d="M713.8 80.9002C714.9 78.8002 703.8 76.2002 696.7 71.9002C689.5 67.6002 684.4 62.2002 681.7 63.6002C679 64.8002 687.9 72.1002 694.5 75.9002C701.1 79.4002 712.2 84.1002 713.8 80.9002Z" fill="#6178DE" stroke="#0B147E" stroke-width="2" stroke-miterlimit="10"/>
<path d="M771.8 73.0002C773.2 76.0002 762.6 78.7002 756.2 79.9002C748.5 81.3002 739.7 80.2002 739.6 78.0002C739.5 75.8002 746 77.1002 754.8 76.0002C763.2 75.0002 770.6 70.4002 771.8 73.0002Z" fill="#6178DE" stroke="#0B147E" stroke-width="2" stroke-miterlimit="10"/>
<path d="M734.4 76.9003C734.1 80.4003 722.7 77.4003 716.2 75.1003C708.4 72.4003 700.9 66.7003 702.1 64.6003C703.3 62.5003 708.3 67.4003 717 70.9003C725.2 74.4003 734.7 73.9003 734.4 76.9003Z" fill="#6178DE" stroke="#0B147E" stroke-width="2" stroke-miterlimit="10"/>
<path d="M696.8 60.9001C695.3 62.3001 689.8 59.6001 687.5 56.5001C685.3 53.6001 684.9 50.7001 686.4 50.2001C687.9 49.7001 688.9 53.5001 691 55.8001C693.1 58.2001 698.3 59.5001 696.8 60.9001Z" fill="#6178DE" stroke="#0B147E" stroke-width="2" stroke-miterlimit="10"/>
<path d="M893.6 134.4C894.7 137.9 883.3 140.5 871.5 139.3C859.8 138.1 847.3 133 848.2 130.2C849.5 126.4 857.6 132.4 869.6 133.7C881 134.8 892.6 131.4 893.6 134.4Z" fill="#6178DE" stroke="#0B147E" stroke-width="2" stroke-miterlimit="10"/>
<path d="M839.1 125.8C840.4 123.8 829.7 120.2 822.9 115.1C816.1 110.1 811.6 104.3 808.8 105.3C806 106.2 814.1 114.3 820.4 118.8C826.7 123 837.2 128.9 839.1 125.8Z" fill="#6178DE" stroke="#0B147E" stroke-width="2" stroke-miterlimit="10"/>
<path d="M897.8 123.5C898.9 126.6 888 128.3 881.6 128.9C873.8 129.6 865.2 127.6 865.3 125.4C865.4 123.2 871.8 125.1 880.6 124.8C888.9 124.6 896.7 120.8 897.8 123.5Z" fill="#6178DE" stroke="#0B147E" stroke-width="2" stroke-miterlimit="10"/>
<path d="M860 123.7C859.3 127.1 848.3 123.1 842.1 120.2C834.6 116.8 827.7 110.3 829 108.4C830.4 106.4 835 111.7 843.2 116.1C851.1 120.3 860.6 120.7 860 123.7Z" fill="#6178DE" stroke="#0B147E" stroke-width="2" stroke-miterlimit="10"/>
<path d="M824.1 104.2C822.5 105.5 817.3 102.2 815.3 98.9002C813.4 95.8002 813.2 92.9002 814.8 92.5002C816.3 92.1002 817 96.0002 818.9 98.5002C820.9 101.1 825.8 102.9 824.1 104.2Z" fill="#6178DE" stroke="#0B147E" stroke-width="2" stroke-miterlimit="10"/>
<path d="M724 197.1C720.9 195.3 727.4 185.6 737.1 178.6C746.5 171.7 759.3 167 760.5 169.8C762.1 173.5 752.1 174.5 742.3 181.6C733.2 188.4 726.7 198.8 724 197.1Z" fill="#6178DE" stroke="#0B147E" stroke-width="2" stroke-miterlimit="10"/>
<path d="M770.2 167C770.6 169.4 781 164.9 789.4 164.1C797.8 163.3 805 164.5 806.4 161.9C807.8 159.3 796.3 158.8 788.8 159.7C781.3 160.6 769.6 163.5 770.2 167Z" fill="#6178DE" stroke="#0B147E" stroke-width="2" stroke-miterlimit="10"/>
<path d="M728.3 208C725.4 206.5 732.3 197.8 736.6 193.1C741.9 187.4 749.7 183 751.1 184.8C752.5 186.5 746.5 189.4 740.1 195.5C734.1 201.4 730.9 209.3 728.3 208Z" fill="#6178DE" stroke="#0B147E" stroke-width="2" stroke-miterlimit="10"/>
<path d="M756.1 182.5C754.3 179.5 765.1 175.2 771.7 173.1C779.6 170.6 789 170.8 789.3 173.1C789.6 175.5 782.6 174.6 773.6 176.9C764.9 179 757.7 185.2 756.1 182.5Z" fill="#6178DE" stroke="#0B147E" stroke-width="2" stroke-miterlimit="10"/>
<path d="M795.8 172.9C796.1 170.9 802.2 169.8 806 170.9C809.5 171.9 811.6 174 810.7 175.3C809.8 176.6 806.8 174.2 803.7 173.6C800.3 173 795.5 175 795.8 172.9Z" fill="#6178DE" stroke="#0B147E" stroke-width="2" stroke-miterlimit="10"/>
<path d="M391.9 256C389.3 252.1 402.4 244.5 417.6 241.7C432.7 238.9 450.3 240.6 450.1 244.5C449.9 249.7 437.5 245.3 422.1 248.1C407.6 250.7 394.2 259.4 391.9 256Z" fill="#6178DE" stroke="#0B147E" stroke-width="2" stroke-miterlimit="10"/>
<path d="M463 246.4C462.1 249.4 476.9 250 487.1 253.7C497.5 257.4 505.2 262.9 508.3 260.6C511.4 258.4 498.2 251.3 488.9 248.1C479.6 245.2 464.2 241.9 463 246.4Z" fill="#6178DE" stroke="#0B147E" stroke-width="2" stroke-miterlimit="10"/>
<path d="M390.9 271.1C388.4 267.7 401.3 261.4 409.1 258.3C418.5 254.6 430.1 253.8 430.7 256.7C431.4 259.5 422.7 259.5 411.9 263.1C401.3 266.4 393 274 390.9 271.1Z" fill="#6178DE" stroke="#0B147E" stroke-width="2" stroke-miterlimit="10"/>
<path d="M437.8 256.7C437.4 252.2 452.6 253.2 461.4 254.4C472.2 255.9 483 261.3 482 264.3C481 267.3 473.3 262.3 461.4 260C450.1 257.7 438.1 260.7 437.8 256.7Z" fill="#6178DE" stroke="#0B147E" stroke-width="2" stroke-miterlimit="10"/>
<path d="M489.8 267.7C491.3 265.5 499 267.6 502.9 271C506.4 274.2 507.7 277.7 505.9 278.8C504.2 279.8 501.9 275.3 498.6 272.8C495 270.3 488.2 270 489.8 267.7Z" fill="#6178DE" stroke="#0B147E" stroke-width="2" stroke-miterlimit="10"/>
<path d="M575 248.2C571.5 245.9 579.5 235.3 590.8 227.8C601.9 220.4 616.7 215.7 618 218.9C619.6 223.2 608.1 223.8 596.6 231.4C585.7 238.6 578 250.1 575 248.2Z" fill="#6178DE" stroke="#0B147E" stroke-width="2" stroke-miterlimit="10"/>
<path d="M629 216.1C629.3 218.8 641.4 214.3 651 213.7C660.6 213.1 668.7 215 670.5 212C672.3 209.2 659.2 207.9 650.6 208.6C642 209.4 628.5 212 629 216.1Z" fill="#6178DE" stroke="#0B147E" stroke-width="2" stroke-miterlimit="10"/>
<path d="M579.3 260.7C576 258.8 584.4 249.3 589.6 244.1C595.9 237.8 604.9 233.3 606.5 235.3C607.9 237.3 601 240.3 593.5 246.9C586.1 253.4 582.1 262.4 579.3 260.7Z" fill="#6178DE" stroke="#0B147E" stroke-width="2" stroke-miterlimit="10"/>
<path d="M612.2 233C610.3 229.4 622.9 225 630.4 223.1C639.6 220.6 650.2 221.3 650.4 224C650.6 226.7 642.7 225.4 632.3 227.6C622.5 229.6 613.9 236.1 612.2 233Z" fill="#6178DE" stroke="#0B147E" stroke-width="2" stroke-miterlimit="10"/>
<path d="M657.9 224.1C658.4 221.8 665.3 220.8 669.5 222.3C673.5 223.7 675.7 226.1 674.6 227.6C673.5 229 670.2 226.1 666.6 225.2C663.1 224.4 657.4 226.4 657.9 224.1Z" fill="#6178DE" stroke="#0B147E" stroke-width="2" stroke-miterlimit="10"/>
</svg>
