<svg width="1000" height="320" viewBox="0 0 1000 320" fill="none" xmlns="http://www.w3.org/2000/svg">
<path d="M654.066 184.492C663.78 186.266 685.829 181.45 697.233 158.135C701.542 149.349 700.275 132.791 683.041 123.499C677.635 120.542 669.525 118.008 661.162 117.67C652.798 117.417 644.351 119.36 637.93 125.526L654.066 184.492ZM654.066 184.492C648.659 183.478 643.083 180.521 638.353 176.382C633.622 172.327 629.905 167.174 628.047 162.105L654.066 184.492ZM628.384 137.945C625.681 143.858 624.414 151.799 628.047 162.105L628.384 137.945ZM628.384 137.945C631.088 132.2 635.143 128.23 637.761 125.78L628.384 137.945ZM628.384 137.945L637.761 125.78L628.384 137.945ZM637.677 125.78C637.761 125.695 637.846 125.611 637.93 125.611L637.677 125.78Z" fill="#8B92D2" fill-opacity="0.4" stroke="#5A5999" stroke-width="1.68955"/>
<path d="M654.15 182.633C663.527 184.323 684.308 179.677 695.121 157.797C699.261 149.349 697.994 133.637 681.69 124.851C671.468 119.36 651.193 115.221 638.944 126.963C634.213 131.44 622.64 142.084 629.483 161.599C632.862 171.229 643.759 180.69 654.15 182.633Z" fill="#5A5999"/>
<path d="M654.319 181.704C663.442 183.393 683.633 178.832 694.108 157.543C698.163 149.265 696.896 134.059 681.098 125.526C671.13 120.204 651.531 116.15 639.535 127.554C634.974 131.947 623.654 142.253 630.327 161.176C633.706 170.637 644.266 179.845 654.319 181.704Z" fill="#949BD9" stroke="#5C629B" stroke-width="0.954087" stroke-miterlimit="10" stroke-linecap="round" stroke-linejoin="round"/>
<path d="M659.219 162.696C671.637 158.895 674.509 147.828 667.582 140.394C660.655 132.96 653.221 130.764 644.688 140.31C636.156 149.94 647.561 166.244 659.219 162.696Z" fill="#406296" stroke="#2D3368" stroke-width="0.954087" stroke-miterlimit="10" stroke-linecap="round" stroke-linejoin="round"/>
<path opacity="0.5" d="M657.191 161.767C666.484 158.895 668.68 150.701 663.442 145.041C658.205 139.465 652.629 137.776 646.294 144.956C639.958 152.137 648.49 164.386 657.191 161.767Z" fill="#6277C2"/>
</svg>
