<svg width="1000" height="320" viewBox="0 0 1000 320" fill="none" xmlns="http://www.w3.org/2000/svg">
<path d="M264.357 192.912C256.999 185.505 263.496 165.914 280.141 149.405C296.786 132.896 337.432 125.493 327.154 147.512C321.528 159.564 303.7 160.402 295.145 171.638C276.765 195.173 271.714 200.319 264.357 192.912Z" fill="#E69264"/>
<path opacity="0.3608" d="M264.116 185.626C265.258 184.835 267.391 184.286 269.118 183.657C270.049 183.319 271.191 182.528 270.852 181.598C270.611 180.933 269.62 180.691 268.871 181.114C268.206 181.356 267.687 181.996 267.119 182.503C266.551 183.011 265.892 183.476 265.174 183.361C264.545 183.289 264.171 182.672 263.887 182.098C263.694 181.567 263.851 180.757 264.014 180.171C264.377 178.685 265.494 177 267.017 177.048C267.82 176.982 268.461 177.501 269.143 177.93C269.826 178.359 270.551 178.698 271.306 178.499C272.019 178.39 272.75 177.296 272.242 176.729C271.119 176.535 270.001 176.565 268.787 176.329C267.663 176.136 266.576 175.628 266.056 174.613C265.495 173.689 265.767 172.161 266.872 171.684C267.489 171.309 268.298 171.466 269.023 171.805C269.657 172.101 270.165 172.669 270.757 173.055C273.27 175.001 279.516 176.041 279.395 174.881C279.329 174.077 275.729 173.279 273.608 172.621C271.397 171.92 269.301 170.5 268.794 168.277C268.594 167.521 268.661 166.67 269.09 165.987C269.519 165.304 270.22 164.749 271.072 164.815C272.238 164.918 272.805 166.066 273.458 167.032C274.152 167.909 275.385 168.815 276.303 168.03C275.82 166.7 274.545 165.885 273.579 164.882C272.57 163.969 271.767 162.381 272.492 161.064C273.09 160.019 274.51 159.578 275.772 159.946C276.944 160.273 277.862 161.143 278.823 161.922C280.291 163.269 281.668 164.575 283.136 165.922C283.824 166.574 284.87 167.173 285.661 166.659C286.187 166.242 286.078 165.529 285.794 164.956C285.51 164.382 284.876 164.085 284.332 163.832C282.375 162.587 280.418 161.342 278.587 159.826C277.627 159.046 276.57 158.001 276.715 156.745C276.902 155.397 278.395 154.328 279.82 154.111C282.225 153.688 284.889 154.601 286.81 156.16C288.773 157.628 290.217 159.736 291.745 161.664C292.228 161.337 292.343 160.619 292.15 160.087C291.957 159.555 291.588 159.163 291.353 158.722C289.873 156.927 287.994 155.278 286.079 153.942C285.348 153.381 284.527 152.776 284.061 152.118C283.548 151.326 283.518 150.209 284.08 149.478C284.775 148.698 285.892 148.668 286.756 149.182C287.662 149.605 288.266 150.439 288.78 151.23C289.426 151.973 290.03 152.807 290.936 153.23C291.299 153.399 292.06 153.423 292.139 153.019C292.265 152.747 292.126 152.572 291.988 152.396C290.955 150.59 288.248 149.768 288.013 147.672C287.941 146.645 288.539 145.6 289.602 145.213C290.575 144.784 291.837 145.153 292.351 145.944C292.997 146.688 292.894 147.854 293.275 148.693C293.613 149.624 294.797 150.397 295.673 149.702C296.241 149.195 296.084 148.349 295.842 147.685C295.468 147.068 294.876 146.682 294.368 146.114C293.722 145.371 293.378 144.217 293.843 143.22C294.308 142.223 295.456 141.655 296.211 141.456C296.924 141.348 297.776 141.414 298.278 141.758C298.646 142.151 298.93 142.725 298.99 143.305C299.685 145.836 301.177 148.078 303.188 149.679C303.599 149.981 304.1 150.325 304.547 150.313C305.085 150.344 305.701 149.969 305.689 149.522C305.768 149.117 305.581 148.809 305.26 148.549C303.617 147.341 302.597 145.982 301.485 144.58C300.881 143.746 299.667 141.855 300.042 140.816C300.567 138.744 303.866 138.297 304.41 138.551C304.953 138.805 305.328 139.421 305.563 139.862C305.986 140.611 306.409 141.361 306.832 142.11C306.977 142.508 307.206 142.726 307.617 143.028C307.937 143.288 308.384 143.276 308.692 143.089C309.176 142.762 308.976 142.007 308.741 141.566C308.27 140.684 307.617 139.717 306.705 139.071C306.476 138.853 306.337 138.678 306.24 138.412C306.276 138.098 306.452 137.959 306.76 137.772C307.992 137.023 309.648 137.023 310.789 137.887C311.701 138.534 312.221 139.549 312.825 140.383C313.429 141.216 314.039 142.274 315.03 142.515C315.434 142.594 315.839 142.672 316.238 142.527C316.637 142.383 316.939 141.972 316.927 141.525C316.824 141.035 316.413 140.733 315.96 140.522C315.278 140.093 314.77 139.525 314.438 138.818C314.202 138.377 313.967 137.936 314.221 137.392C314.432 136.939 315.097 136.698 315.725 136.77C317.465 136.589 319.163 136.499 320.872 136.855C322.582 137.212 324.213 137.973 325.234 139.333C326.255 140.692 326.883 142.42 326.212 144.093C326.049 144.679 325.662 145.271 325.04 145.422C324.418 145.573 323.868 145.096 323.542 144.612C320.594 141.471 320.696 141.96 320.34 142.014C319.984 142.069 320.708 144.062 321.306 144.673C321.953 145.416 322.774 146.02 323.378 146.854C324.025 147.597 324.194 148.89 323.408 149.627C323.209 150.527 322.242 151.179 321.348 151.203C320.454 151.227 319.505 150.895 318.865 150.375C318.134 149.813 317.536 149.203 316.98 148.502C315.694 147.24 314.323 146.158 312.776 145.215C312.504 145.089 312.323 145.004 312.009 144.968C311.695 144.931 311.477 145.161 311.393 145.342C311.308 145.523 311.495 145.832 311.634 146.007C312.516 147.191 313.881 148.049 315.114 148.955C316.304 149.952 317.276 151.179 317.584 152.647C317.802 154.072 316.823 155.933 315.264 156.199C314.104 156.319 313.101 155.631 312.54 154.706C311.845 153.83 311.591 152.719 311.162 151.746C310.969 151.214 310.643 150.731 310.232 150.429C309.821 150.127 309.018 150.193 308.716 150.604C308.239 151.154 308.571 151.86 309.078 152.428C309.682 153.262 310.329 154.005 310.757 154.978C311.138 155.818 311.216 157.068 310.703 157.932C310.141 158.663 309.392 159.086 308.498 159.11C306.625 159.339 304.764 158.36 303.61 157.049C302.366 155.696 301.647 153.926 300.844 152.337C300.651 151.805 300.276 151.189 299.733 150.935C299.189 150.681 298.476 150.79 298.18 151.424C297.926 151.968 298.301 152.584 298.76 153.019C299.913 154.33 300.977 155.599 302.13 156.91C302.686 157.611 303.284 158.221 303.574 159.019C303.906 159.726 304.069 160.795 303.598 161.568C303 162.613 301.894 163.09 300.728 162.988C299.562 162.885 298.65 162.238 297.998 161.272C297.345 160.305 296.874 159.423 296.488 158.36C296.294 157.828 296.053 157.163 295.594 156.728C295.092 156.384 294.289 156.45 293.944 156.952C293.691 157.495 293.975 158.069 294.343 158.462C294.899 159.163 295.322 159.912 295.877 160.613C296.524 161.356 298.432 164.123 296.874 166.044C296.179 166.823 295.025 167.168 294.203 166.563C292.729 164.992 291.213 163.512 289.649 161.899C288.132 160.419 286.477 158.763 284.333 158.866C283.886 158.878 283.354 159.071 283.233 159.566C283.155 159.971 283.565 160.273 283.928 160.443C286.115 161.905 288.259 163.458 290.277 165.282C291.195 166.152 292.204 167.065 292.463 168.4C292.717 169.511 292.523 170.635 291.883 171.771C291.285 172.816 290.548 173.686 289.811 174.555C289.376 175.015 288.941 175.474 288.27 175.492C287.69 175.552 287.183 174.984 286.766 174.458C284.869 172.138 283.021 169.951 280.816 167.819C280.496 167.559 280.357 167.384 279.994 167.214C279.59 167.136 279.233 167.19 279.106 167.462C278.895 167.915 279.221 168.398 279.589 168.791C281.057 170.138 282.525 171.486 283.727 172.93C284.978 174.507 285.835 176.452 285.533 178.518C285.285 180.941 283.551 183 281.853 184.746C281.461 185.115 281.025 185.574 280.578 185.586C279.775 185.652 279.304 184.77 279.062 184.106C278.537 182.867 278.011 181.629 277.619 180.342C277.425 179.81 277.281 179.411 276.87 179.109C276.55 178.849 275.831 178.735 275.571 179.055C275.003 179.562 275.384 180.402 275.849 181.06C276.64 182.202 277.256 183.483 277.83 184.855C278.404 186.226 278.712 187.694 278.168 189.095C277.406 190.727 275.636 191.445 273.999 192.116C273.201 192.406 272.132 192.569 271.8 191.862C271.516 191.288 271.945 190.605 272.283 189.88C273.141 188.515 273.498 186.805 273.323 185.289C273.269 184.933 273.214 184.576 272.9 184.54C272.538 184.371 272.278 184.691 272.103 184.83C271.843 185.15 271.849 185.373 271.77 185.778C271.492 187.083 270.948 188.485 270.447 189.796C270.193 190.339 269.939 190.883 269.504 191.342C269.112 191.71 268.495 192.085 267.909 191.922C267.414 191.801 267.046 191.408 266.81 190.967C264.714 189.547 263.409 185.959 264.116 185.626Z" fill="#FDDFD3"/>
<path d="M267.59 188.351C267.867 188.702 268.224 188.647 268.574 188.37C268.925 188.092 268.913 187.645 268.593 187.385C268.315 187.034 267.958 187.089 267.608 187.367C267.348 187.687 267.318 188.225 267.59 188.351Z" fill="#AA2829"/>
<path d="M280.669 179.007C280.947 179.357 281.304 179.303 281.654 179.025C282.004 178.747 281.992 178.3 281.672 178.04C281.394 177.69 281.038 177.744 280.688 178.022C280.379 178.209 280.392 178.656 280.669 179.007Z" fill="#AA2829"/>
<path d="M275.723 171.4C276.001 171.751 276.357 171.696 276.707 171.419C277.058 171.141 277.046 170.694 276.726 170.434C276.448 170.083 276.091 170.138 275.741 170.416C275.481 170.736 275.36 171.231 275.723 171.4Z" fill="#AA2829"/>
<path d="M275.874 163.746C276.152 164.097 276.508 164.042 276.859 163.764C277.209 163.487 277.197 163.04 276.877 162.78C276.599 162.429 276.243 162.484 275.892 162.762C275.633 163.082 275.596 163.396 275.874 163.746Z" fill="#AA2829"/>
<path d="M279.735 157.603C280.013 157.953 280.37 157.899 280.72 157.621C281.07 157.343 281.058 156.896 280.738 156.636C280.46 156.286 280.104 156.34 279.753 156.618C279.403 156.896 279.415 157.343 279.735 157.603Z" fill="#AA2829"/>
<path d="M293.696 164.34C293.974 164.691 294.33 164.636 294.68 164.358C295.031 164.08 295.019 163.633 294.699 163.374C294.421 163.023 294.064 163.078 293.714 163.355C293.406 163.543 293.418 163.99 293.696 164.34Z" fill="#AA2829"/>
<path d="M293.745 154.541C294.023 154.891 294.379 154.837 294.73 154.559C295.08 154.281 295.068 153.834 294.748 153.575C294.47 153.224 294.114 153.278 293.763 153.556C293.413 153.834 293.383 154.372 293.745 154.541Z" fill="#AA2829"/>
<path d="M296.918 144.435C297.196 144.785 297.552 144.731 297.903 144.453C298.253 144.175 298.241 143.728 297.921 143.468C297.643 143.118 297.287 143.172 296.936 143.45C296.586 143.728 296.598 144.175 296.918 144.435Z" fill="#AA2829"/>
<path d="M302.923 143.154C303.201 143.505 303.557 143.45 303.907 143.173C304.258 142.895 304.246 142.448 303.926 142.188C303.648 141.837 303.291 141.892 302.941 142.17C302.633 142.357 302.645 142.804 302.923 143.154Z" fill="#AA2829"/>
<path d="M315.149 153.607C315.427 153.957 315.783 153.903 316.134 153.625C316.484 153.347 316.472 152.9 316.152 152.641C315.874 152.29 315.518 152.344 315.167 152.622C315.04 152.894 314.962 153.299 315.149 153.607Z" fill="#AA2829"/>
<path d="M299.943 155.448C299.853 155.406 299.853 155.406 299.72 155.454C299.273 155.466 298.735 155.436 298.433 155.847C298.216 156.076 298.27 156.433 298.542 156.559C298.632 156.602 298.723 156.644 298.765 156.553C298.856 156.596 298.947 156.638 299.128 156.723C299.218 156.765 299.267 156.898 299.448 156.982C299.539 157.025 299.539 157.025 299.629 157.067C299.629 157.067 299.629 157.067 299.587 157.158C299.502 157.339 299.418 157.52 299.424 157.744C299.43 157.967 299.478 158.1 299.617 158.275L299.665 158.408C299.756 158.45 299.979 158.444 300.028 158.577C299.943 158.759 300.082 158.934 299.907 159.073C299.774 159.121 299.641 159.169 299.508 159.218C299.381 159.49 299.611 159.707 299.617 159.931C299.617 159.931 299.526 159.888 299.484 159.979C299.351 160.027 299.399 160.16 299.357 160.251C299.363 160.474 299.321 160.565 299.369 160.698C299.466 160.964 299.605 161.139 299.611 161.362C299.568 161.453 299.484 161.634 299.26 161.64C298.813 161.652 298.843 161.115 298.795 160.982C298.747 160.849 298.783 160.535 298.777 160.311C298.819 160.22 298.771 160.088 298.813 159.997C298.85 159.683 298.844 159.459 298.922 159.055C298.916 158.831 298.862 158.475 298.904 158.384C298.898 158.16 298.892 157.937 298.801 157.895C298.663 157.719 298.614 157.586 298.481 157.635C298.209 157.508 297.95 157.828 297.865 158.009C297.569 158.644 297.635 159.447 297.611 160.208C297.635 159.447 297.484 158.825 297.913 158.142C298.04 157.87 298.258 157.641 298.53 157.768C298.711 157.852 298.85 158.027 298.807 158.118C298.856 158.251 298.862 158.475 298.91 158.607C299.013 159.097 298.97 159.187 298.807 159.773C298.771 160.088 298.65 160.583 298.698 160.716C298.662 161.03 298.668 161.254 298.765 161.519C298.771 161.743 298.916 162.142 299.272 162.087C299.405 162.039 299.49 161.858 299.532 161.767C299.611 161.362 299.381 161.145 299.194 160.837C299.103 160.794 299.236 160.746 299.146 160.704C299.188 160.613 299.23 160.523 299.363 160.474C299.49 160.202 299.26 159.985 299.254 159.761C299.297 159.671 299.297 159.671 299.339 159.58C299.472 159.532 299.562 159.574 299.605 159.484C299.647 159.393 299.689 159.302 299.732 159.212C299.774 159.121 299.683 159.079 299.726 158.988L299.768 158.898L299.81 158.807C299.859 158.94 299.949 158.982 299.997 159.115C299.955 159.206 300.046 159.248 300.003 159.339C300.275 159.465 300.191 159.647 300.239 159.78C300.33 159.822 300.287 159.913 300.378 159.955C300.336 160.045 300.293 160.136 300.342 160.269C300.348 160.492 300.529 160.577 300.444 160.758C300.36 160.94 300.366 161.163 300.456 161.205C300.511 161.562 300.559 161.695 300.565 161.918C300.523 162.009 300.48 162.099 300.48 162.099C300.263 162.329 299.864 162.474 299.598 162.571C299.508 162.528 299.411 162.262 299.321 162.22C299.447 161.948 299.671 161.942 299.756 161.761C299.931 161.622 300.106 161.483 300.058 161.35L300.015 161.441C299.931 161.622 299.665 161.719 299.58 161.9C299.405 162.039 299.272 162.087 299.23 162.178C299.188 162.268 299.236 162.401 299.194 162.492C299.242 162.625 299.381 162.8 299.429 162.933C299.61 163.018 299.786 162.879 299.919 162.83C300.184 162.734 300.36 162.595 300.402 162.504C300.486 162.323 300.571 162.142 300.48 162.099C300.474 161.876 300.378 161.61 300.372 161.387C300.372 161.387 300.366 161.163 300.408 161.072C300.36 160.94 300.402 160.849 300.354 160.716C300.305 160.583 300.257 160.45 300.209 160.317L300.251 160.227L300.293 160.136C300.287 159.913 300.106 159.828 300.058 159.695C300.01 159.562 299.871 159.387 299.822 159.254L299.732 159.212C299.732 159.212 299.774 159.121 299.683 159.079C299.635 158.946 299.635 158.946 299.587 158.813C299.587 158.813 299.496 158.771 299.538 158.68C299.581 158.589 299.532 158.456 299.575 158.366C299.569 158.142 299.472 157.877 299.418 157.52C299.327 157.478 299.279 157.345 299.279 157.345C299.545 157.248 299.539 157.025 299.714 156.886C299.756 156.795 299.841 156.614 299.883 156.523C299.968 156.342 299.962 156.119 299.78 156.034C300.173 155.666 300.125 155.533 299.943 155.448ZM299.859 157.285C300.046 157.593 300.052 157.816 300.058 158.04C300.016 158.13 300.106 158.173 300.022 158.354C299.931 158.312 299.84 158.269 299.75 158.227C299.659 158.185 299.526 158.233 299.569 158.142C299.478 158.1 299.52 158.009 299.563 157.919C299.514 157.786 299.466 157.653 299.418 157.52C299.502 157.339 299.496 157.115 299.629 157.067C299.677 157.2 299.768 157.242 299.859 157.285ZM300.143 156.203C300.058 156.384 299.974 156.566 299.756 156.795C299.714 156.886 299.623 156.844 299.581 156.934C299.49 156.892 299.49 156.892 299.4 156.85C299.218 156.765 299.17 156.632 299.079 156.59C298.989 156.547 298.808 156.463 298.717 156.421C298.626 156.378 298.493 156.427 298.403 156.384C298.312 156.342 298.264 156.209 298.264 156.209C298.264 156.209 298.264 156.209 298.306 156.118C298.475 155.756 299.007 155.563 299.454 155.551C299.545 155.593 299.678 155.545 299.859 155.629C299.949 155.672 300.088 155.847 300.179 155.889C300.27 155.931 300.276 156.155 300.143 156.203Z" fill="#AA2829"/>
</svg>
