<svg width="1000" height="320" viewBox="0 0 1000 320" fill="none" xmlns="http://www.w3.org/2000/svg">
<path d="M380.5 133C377.4 123 392.4 108.7 414.8 102C437.3 95.3002 476.6 107.6 457.2 122.2C446.7 130.1 430.4 122.7 417.6 128.5C390.5 140.8 383.6 143 380.5 133Z" fill="#E69264"/>
<path opacity="0.3608" d="M383.7 126.4C385 126.3 387.2 126.7 389 126.9C390 127 391.3 126.9 391.5 125.9C391.6 125.2 390.8 124.6 390.1 124.5C389.4 124.5 388.6 124.8 387.9 125C387.2 125.2 386.3 125.3 385.7 124.8C385.2 124.4 385 123.7 385.2 123.1C385.4 122.5 385.7 122 386.2 121.4C387.2 120.2 389 119.4 390.3 120.1C391 120.5 391.4 121.2 391.8 121.9C392.2 122.6 392.7 123.3 393.5 123.4C394.3 123.6 395.3 123 395.2 122.2C394.3 121.5 393.3 121 392.4 120.2C391.5 119.4 390.8 118.5 390.8 117.4C390.8 116.3 391.7 115.1 392.9 115.2C393.6 115.2 394.3 115.7 394.8 116.3C395.2 116.9 395.4 117.6 395.8 118.3C397.1 121.2 402.1 125 402.6 123.9C402.9 123.1 400.1 120.8 398.6 119.1C397.1 117.4 395.7 115.2 396.3 113C396.5 112.2 396.9 111.5 397.6 111.1C398.3 110.7 399.3 110.6 399.9 111C400.8 111.7 400.9 113 401 114C401.1 115.1 401.9 116.4 403 116.2C403.2 114.8 402.5 113.4 402 112.1C401.6 110.8 401.6 109 402.8 108.2C403.9 107.5 405.3 107.9 406.3 108.7C407.2 109.5 407.6 110.7 408 111.8C408.6 113.7 409.4 115.6 410 117.4C410.3 118.3 411 119.4 411.9 119.1C412.5 118.9 412.9 118.3 412.8 117.6C412.7 117 412.4 116.5 412.1 115.9C410.9 114 409.8 111.8 408.9 109.7C408.4 108.5 407.9 107.2 408.6 106.1C409.3 104.9 411.1 104.8 412.6 105.3C415.1 106.1 416.8 108.2 417.9 110.4C418.9 112.7 419.3 115.1 419.6 117.5C420.2 117.4 420.5 116.9 420.7 116.3C420.8 115.8 420.7 115.2 420.5 114.7C420 112.4 419.2 110.2 418.2 108C417.8 107.1 417.4 106.4 417.3 105.4C417.2 104.4 417.7 103.5 418.6 103.1C419.5 102.7 420.6 103.2 421.2 104.1C421.8 104.9 421.9 105.9 422 106.9C422.1 107.9 422.3 108.9 422.9 109.6C423.2 110 423.7 110.2 424.1 110C424.2 109.9 424.3 109.6 424.3 109.3C424.3 107.2 422.2 105.2 423 103.2C423.4 102.3 424.5 101.6 425.5 101.7C426.5 101.8 427.4 102.7 427.6 103.7C427.8 104.7 427.2 105.6 427.2 106.6C427.1 107.6 427.8 108.8 428.8 108.6C429.5 108.4 429.8 107.6 429.8 106.9C429.8 106.2 429.5 105.6 429.3 104.9C429.1 103.9 429.4 102.8 430.2 102.1C431 101.4 432.4 101.5 433.1 101.7C433.8 101.9 434.6 102.3 434.8 102.9C435 103.4 434.8 104 434.7 104.6C434.2 107.1 434.4 109.8 435.4 112.2C435.6 112.6 435.8 113.2 436.3 113.4C436.8 113.7 437.4 113.7 437.8 113.2C438 112.9 438 112.4 437.9 112.1C437 110.3 436.7 108.7 436.4 106.9C436.2 105.9 436.1 103.6 436.8 102.9C438.3 101.3 441.4 102.5 441.7 102.9C442.1 103.4 442.1 104 442.1 104.6C442.1 105.4 442.1 106.3 442.1 107.2C442.1 107.6 442.1 108 442.3 108.3C442.5 108.6 442.9 108.9 443.2 108.9C443.8 108.8 444 108.1 444 107.6C444 106.6 443.8 105.5 443.4 104.5C443.3 104.3 443.2 104 443.3 103.7C443.5 103.5 443.8 103.4 444.1 103.4C445.5 103.3 447 104.1 447.7 105.3C448.1 106.3 448.2 107.4 448.2 108.4C448.3 109.4 448.5 110.6 449.1 111.4C449.4 111.7 449.7 111.9 450.1 112C450.5 112.1 451 111.8 451.1 111.5C451.3 111.1 451 110.5 450.8 110.1C450.4 109.4 450.2 108.6 450.2 107.9C450.2 107.4 450.2 106.9 450.6 106.6C451.1 106.3 451.7 106.5 452.3 106.6C453.9 107.2 455.5 108 456.8 109.1C458.2 110.2 459.2 111.7 459.5 113.3C459.8 114.9 459.4 116.8 458.1 118C457.7 118.4 457 118.8 456.4 118.6C455.8 118.4 455.6 117.8 455.4 117.3C454.3 113.1 454.1 113.6 453.8 113.4C453.5 113.3 453.2 115.4 453.4 116.3C453.6 117.3 454.1 118.2 454.2 119.2C454.4 120.2 454 121.4 453 121.7C452.4 122.4 451.2 122.6 450.4 122.1C449.6 121.8 449 121 448.6 120.1C448.2 119.3 448 118.4 447.8 117.5C447.3 115.8 446.6 114.1 445.6 112.7C445.5 112.5 445.3 112.2 445 112.1C444.8 111.9 444.4 111.9 444.2 112.1C444 112.3 444 112.6 444.1 112.8C444.4 114.3 445.1 115.6 445.7 117C446.3 118.4 446.6 120 446.1 121.4C445.6 122.8 443.9 124 442.4 123.4C441.3 123 440.7 121.9 440.6 120.8C440.5 119.7 440.7 118.6 440.8 117.5C440.9 117 440.8 116.3 440.6 115.8C440.3 115.3 439.6 115 439.1 115.2C438.5 115.5 438.4 116.3 438.5 117C438.6 118 438.8 119 438.8 120C438.8 121 438.3 122.1 437.4 122.5C436.6 122.9 435.7 122.9 434.9 122.6C433.1 122 432 120.2 431.5 118.4C431 116.6 431.1 114.7 431.2 112.9C431.2 112.3 431.2 111.7 430.9 111.1C430.6 110.6 429.8 110.3 429.3 110.7C428.8 111.1 429 111.8 429.1 112.3C429.5 114 429.8 115.7 430.3 117.3C430.5 118.1 430.7 119 430.6 119.8C430.5 120.6 430.2 121.5 429.4 122.1C428.5 122.7 427.2 122.6 426.3 122C425.4 121.3 424.9 120.3 424.6 119.3C424.4 118.2 424.5 117.1 424.7 116.1C424.8 115.5 424.9 114.9 424.6 114.3C424.3 113.7 423.6 113.4 423 113.7C422.5 114 422.6 114.7 422.6 115.3C422.7 116.2 422.8 117 422.9 117.9C423.1 118.9 423.5 122.3 421.2 123.2C420.3 123.6 418.9 123.3 418.6 122.4C418 120.4 417.4 118.2 416.8 116.2C416.2 114.2 415.5 112 413.5 111C413.1 110.8 412.5 110.7 412.3 111.1C412 111.4 412.3 111.8 412.4 112.3C413.7 114.6 414.8 117 415.7 119.5C416.2 120.7 416.5 122 416.2 123.2C415.9 124.3 415.1 125.2 414.2 125.9C413.3 126.5 412.2 127 411 127.4C410.5 127.6 409.7 127.9 409.2 127.6C408.6 127.3 408.5 126.6 408.4 126C407.9 123.1 407.2 120.2 406.2 117.3C406.1 117 405.9 116.7 405.7 116.4C405.5 116.2 405.1 116 404.7 116.2C404.3 116.4 404.4 117 404.5 117.5C405.1 119.4 405.9 121.3 406.2 123.2C406.5 125.2 406.4 127.3 405.2 128.9C403.8 130.9 401.3 131.9 399 132.7C398.5 132.9 398 133 397.5 132.9C396.8 132.6 396.7 131.5 396.8 130.8C396.9 129.4 397 128.2 397.3 126.8C397.3 126.3 397.4 125.8 397.2 125.4C397 125 396.5 124.6 396 124.8C395.3 125 395.3 126 395.3 126.6C395.4 128 395.5 129.4 395.3 130.9C395.1 132.3 394.8 133.9 393.6 134.8C392.2 135.9 390.3 135.6 388.5 135.5C387.7 135.4 386.6 135 386.6 134.2C386.6 133.6 387.4 133.1 388 132.8C389.4 132 390.5 130.7 391.2 129.2C391.3 128.9 391.4 128.5 391.2 128.3C391 128.1 390.6 128 390.3 128.2C390 128.4 389.8 128.6 389.6 128.8C388.7 129.8 387.6 130.9 386.5 131.8C386 132.1 385.5 132.5 385 132.7C384.4 132.9 383.8 132.8 383.3 132.5C382.9 132.2 382.7 131.7 382.7 131.1C382.5 130.2 383 126.5 383.7 126.4Z" fill="#FDDFD3"/>
<path d="M385.5 130.5C385.6 130.9 386 131.1 386.4 131C386.8 130.9 387 130.5 386.9 130.1C386.8 129.7 386.4 129.5 386 129.6C385.6 129.8 385.4 130.2 385.5 130.5Z" fill="#AA2829"/>
<path d="M401.5 128.3C401.6 128.7 402 128.9 402.4 128.8C402.8 128.6 403 128.3 402.9 127.9C402.8 127.5 402.4 127.3 402 127.4C401.6 127.6 401.4 128 401.5 128.3Z" fill="#AA2829"/>
<path d="M400.5 119.4C400.6 119.8 401 120 401.4 119.9C401.8 119.8 402 119.4 401.9 119C401.8 118.6 401.4 118.4 401 118.5C400.7 118.7 400.5 119 400.5 119.4Z" fill="#AA2829"/>
<path d="M404.4 112.7C404.5 113.1 404.9 113.3 405.3 113.2C405.7 113.1 405.9 112.7 405.8 112.3C405.7 111.9 405.3 111.7 404.9 111.8C404.5 112 404.3 112.3 404.4 112.7Z" fill="#AA2829"/>
<path d="M410.6 109C410.7 109.4 411.1 109.6 411.5 109.5C411.9 109.4 412.1 109 412 108.6C411.9 108.2 411.5 108 411.1 108.1C410.7 108.3 410.4 108.7 410.6 109Z" fill="#AA2829"/>
<path d="M419.9 121.4C420 121.8 420.4 122 420.8 121.9C421.2 121.8 421.4 121.4 421.3 121C421.2 120.6 420.8 120.4 420.4 120.5C420 120.7 419.8 121.1 419.9 121.4Z" fill="#AA2829"/>
<path d="M424.3 112.9C424.4 113.3 424.8 113.5 425.2 113.4C425.6 113.3 425.8 112.9 425.7 112.5C425.6 112.1 425.2 111.9 424.8 112C424.5 112.1 424.3 112.5 424.3 112.9Z" fill="#AA2829"/>
<path d="M431.9 105.5C432 105.9 432.4 106.1 432.8 106C433.2 105.9 433.4 105.5 433.3 105.1C433.2 104.7 432.8 104.5 432.4 104.6C432.1 104.8 431.9 105.1 431.9 105.5Z" fill="#AA2829"/>
<path d="M437.9 107C438 107.4 438.4 107.6 438.8 107.5C439.2 107.4 439.4 107 439.3 106.6C439.2 106.2 438.8 106 438.4 106.1C438 106.2 437.8 106.7 437.9 107Z" fill="#AA2829"/>
<path d="M443.9 122.1C444 122.5 444.4 122.7 444.8 122.6C445.2 122.5 445.4 122.1 445.3 121.7C445.2 121.3 444.8 121.1 444.4 121.2C444 121.4 443.8 121.8 443.9 122.1Z" fill="#AA2829"/>
<path d="M429.5 116.7C429.4 116.7 429.4 116.7 429.4 116.6C429 116.4 428.5 116.1 428.1 116.4C427.9 116.5 427.7 116.8 427.8 117.1C427.9 117.2 427.9 117.2 427.9 117.2C428 117.2 428 117.3 428.1 117.4C428.2 117.5 428.1 117.6 428.2 117.7L428.3 117.8C428.2 117.9 428 118.1 427.9 118.2C427.8 118.4 427.9 118.5 427.9 118.7C427.9 118.7 427.9 118.8 427.8 118.9C427.9 119 427.9 119 428 119.1C427.9 119.2 427.9 119.4 427.7 119.5C427.6 119.5 427.4 119.4 427.3 119.5C427.1 119.6 427.1 120 427 120.2H426.9C426.8 120.2 426.8 120.3 426.7 120.3C426.6 120.4 426.5 120.5 426.5 120.7C426.5 121 426.5 121.2 426.5 121.4C426.4 121.5 426.3 121.5 426.1 121.6C425.8 121.5 425.9 121 426 120.7C426.1 120.5 426.2 120.3 426.4 120.1C426.4 120 426.5 120 426.6 119.9C426.8 119.7 426.9 119.4 427.2 119.2C427.3 119.1 427.4 118.7 427.6 118.6C427.7 118.4 427.8 118.3 427.8 118.1C427.7 118 427.7 117.8 427.6 117.7C427.4 117.5 427.1 117.6 426.8 117.7C426.2 118.1 425.9 118.9 425.6 119.6C426 119 426.1 118.3 426.8 117.9C427 117.8 427.4 117.6 427.6 117.9C427.7 118 427.7 118.2 427.8 118.3C427.7 118.5 427.7 118.6 427.7 118.7C427.6 119.1 427.5 119.2 427.1 119.6C426.9 119.8 426.6 120.2 426.5 120.3C426.3 120.5 426.2 120.8 426.2 121C426.1 121.2 426.1 121.7 426.4 121.7C426.5 121.6 426.7 121.6 426.8 121.5C427 121.2 427 120.8 427 120.5C427 120.4 427 120.4 427 120.4C427 120.3 427.1 120.3 427.2 120.3C427.4 120.2 427.3 119.9 427.5 119.6L427.6 119.5C427.7 119.5 427.8 119.6 427.9 119.5C428 119.4 428 119.4 428.1 119.3C428.1 119.2 428.1 119.2 428.2 119.1C428.2 119.1 428.2 119.1 428.3 119C428.3 119 428.3 119 428.4 119C428.5 119.1 428.4 119.2 428.4 119.4C428.4 119.5 428.4 119.5 428.3 119.6C428.4 119.8 428.3 120 428.4 120.1C428.4 120.2 428.5 120.2 428.4 120.3C428.3 120.4 428.3 120.4 428.2 120.5C428.1 120.7 428.2 120.9 428.1 120.9C428 121 427.9 121.1 427.8 121.3C427.7 121.6 427.6 121.8 427.6 122C427.6 122.1 427.5 122.1 427.4 122.1C427.1 122.2 426.7 122.2 426.4 122.1C426.3 122 426.3 121.8 426.3 121.6C426.5 121.5 426.7 121.5 426.9 121.4C427.1 121.4 427.3 121.3 427.4 121.2C427.4 121.2 427.4 121.2 427.4 121.3C427.2 121.4 427 121.4 426.8 121.5C426.6 121.5 426.5 121.5 426.4 121.7C426.3 121.8 426.3 121.8 426.2 121.9C426.2 122.1 426.2 122.2 426.2 122.4C426.3 122.5 426.5 122.5 426.6 122.5C426.8 122.5 427.1 122.5 427.3 122.4C427.4 122.3 427.5 122.2 427.6 122C427.7 121.8 427.8 121.5 427.8 121.3C427.8 121.3 427.9 121.2 428 121.1C428.1 121 428.1 121 428.2 120.8C428.2 120.7 428.3 120.5 428.3 120.5H428.4C428.4 120.5 428.4 120.4 428.5 120.4C428.6 120.2 428.5 120.1 428.4 120C428.4 119.8 428.4 119.6 428.4 119.5C428.4 119.5 428.4 119.5 428.4 119.4V119.3C428.4 119.2 428.4 119.1 428.4 119V118.9C428.4 118.8 428.5 118.8 428.6 118.7C428.8 118.5 428.8 118.2 428.9 117.8C428.9 117.7 428.8 117.7 428.9 117.6C429.1 117.6 429.3 117.4 429.5 117.3C429.6 117.2 429.7 117.2 429.7 117.1C429.8 117 430 116.8 429.9 116.6C429.7 116.8 429.6 116.8 429.5 116.7ZM428.6 118.1C428.6 118.4 428.6 118.7 428.5 118.9C428.5 119 428.5 119 428.4 119C428.4 118.9 428.3 118.9 428.3 118.8C428.2 118.8 428.1 118.7 428.2 118.7C428.3 118.7 428.2 118.6 428.3 118.5C428.3 118.4 428.3 118.2 428.3 118.1C428.4 118 428.6 117.8 428.7 117.8C428.5 118 428.5 118.1 428.6 118.1ZM429.3 117.3C429.1 117.4 428.9 117.6 428.7 117.7C428.6 117.7 428.6 117.7 428.5 117.7L428.4 117.6C428.3 117.5 428.3 117.4 428.2 117.3C428.1 117.2 428.1 117.1 428 117.1C427.9 117.1 427.8 117 427.8 116.9C427.7 116.9 427.7 116.8 427.8 116.7C427.8 116.7 427.8 116.7 427.8 116.6C428.2 116.3 428.7 116.4 429.1 116.7C429.2 116.7 429.4 116.8 429.4 116.9C429.4 117 429.5 117.1 429.5 117.2C429.5 117.2 429.4 117.3 429.3 117.3Z" fill="#AA2829"/>
</svg>
