<svg width="1000" height="320" viewBox="0 0 1000 320" fill="none" xmlns="http://www.w3.org/2000/svg">
<path d="M526.6 169.9C533 178.1 524.2 196.9 505.8 211.2C487.3 225.5 446 228.1 458.9 207.6C465.9 196.4 483.7 197.4 493.6 187.5C514.5 166.3 520.2 161.7 526.6 169.9Z" fill="#E69264"/>
<path opacity="0.3608" d="M526 177.2C524.8 177.8 522.5 178.2 520.8 178.6C519.8 178.9 518.7 179.5 518.8 180.5C519 181.2 519.9 181.5 520.6 181.3C521.3 181 521.9 180.5 522.5 180.1C523.1 179.7 523.9 179.2 524.6 179.5C525.2 179.7 525.6 180.3 525.7 180.9C525.8 181.5 525.6 182.1 525.3 182.8C524.8 184.2 523.4 185.7 521.9 185.5C521.1 185.4 520.5 184.9 519.9 184.3C519.3 183.9 518.6 183.3 517.8 183.4C517 183.5 516.3 184.4 516.7 185C517.8 185.4 518.9 185.4 520 185.8C521.1 186.2 522.1 186.8 522.6 187.8C523 188.9 522.6 190.3 521.4 190.7C520.7 191 519.9 190.7 519.3 190.3C518.7 189.9 518.2 189.3 517.7 188.8C515.4 186.5 509.3 184.8 509.3 185.9C509.3 186.8 512.7 187.9 514.8 188.9C516.8 189.9 518.9 191.5 519.2 193.8C519.3 194.6 519.1 195.4 518.7 196C518.3 196.6 517.4 197.1 516.6 196.9C515.4 196.6 515 195.4 514.5 194.4C514 193.4 512.8 192.4 511.7 193.1C512.1 194.4 513.2 195.5 514.1 196.6C515 197.7 515.6 199.4 514.7 200.5C514 201.6 512.5 201.7 511.3 201.2C510.1 200.7 509.3 199.8 508.5 198.9C507.2 197.4 505.9 195.9 504.7 194.4C504.1 193.7 503.1 192.9 502.3 193.4C501.8 193.8 501.7 194.6 501.9 195.1C502.2 195.6 502.7 196.1 503.1 196.4C505 197.8 506.7 199.3 508.4 201C509.3 201.9 510.2 203 509.9 204.3C509.6 205.7 507.9 206.4 506.5 206.5C504 206.7 501.6 205.3 499.8 203.6C498 201.9 496.8 199.7 495.6 197.5C495.2 197.8 494.9 198.5 495 199C495.1 199.5 495.4 200.1 495.7 200.4C497 202.4 498.6 204.1 500.3 205.7C500.9 206.3 501.6 206.9 502.1 207.7C502.5 208.5 502.5 209.7 501.7 210.3C501 211 499.7 210.8 498.9 210.3C498.1 209.8 497.7 208.9 497.1 208.1C496.7 207.3 496.1 206.4 495.2 205.9C494.8 205.6 494.1 205.5 494 206C493.9 206.2 493.9 206.4 494 206.7C494.8 208.7 497.5 209.7 497.4 211.9C497.4 212.9 496.6 213.9 495.6 214.2C494.6 214.5 493.5 214 492.9 213.1C492.4 212.2 492.5 211.1 492.3 210.2C492 209.2 490.9 208.3 490.1 209C489.5 209.4 489.5 210.3 489.7 211C490 211.6 490.5 212.2 490.9 212.7C491.4 213.6 491.6 214.7 491.1 215.6C490.6 216.5 489.2 217 488.5 217C487.8 217 486.9 216.9 486.5 216.5C486.1 216.1 486.1 215.4 486 214.9C485.6 212.3 484.4 210 482.6 208.1C482.2 207.7 481.8 207.4 481.3 207.3C480.8 207.2 480.1 207.5 480.1 208C480 208.4 480.1 208.8 480.4 209C481.8 210.3 482.7 211.8 483.6 213.4C484.1 214.3 485 216.3 484.7 217.3C483.9 219.3 480.6 219.3 480.1 219C479.6 218.7 479.3 218.1 479.1 217.5C478.7 216.7 478.4 215.9 478.1 215.1C477.9 214.7 477.8 214.4 477.5 214.1C477.2 213.8 476.8 213.7 476.4 213.9C475.9 214.2 476 215 476.1 215.5C476.5 216.5 477 217.4 477.8 218.2C478 218.4 478.2 218.6 478.2 218.9C478.2 219.2 477.9 219.3 477.7 219.5C476.4 220.1 474.8 219.9 473.7 219C472.9 218.3 472.5 217.2 472.1 216.3C471.7 215.3 471.1 214.3 470.1 213.9C469.7 213.7 469.3 213.6 468.9 213.7C468.5 213.8 468.2 214.1 468.2 214.6C468.2 215.1 468.6 215.5 469 215.8C469.6 216.3 470.1 217 470.4 217.7C470.6 218.1 470.8 218.7 470.5 219C470.2 219.4 469.5 219.5 469 219.5C467.3 219.5 465.5 219.3 463.9 218.8C462.3 218.3 460.8 217.3 459.9 215.9C459 214.5 458.7 212.6 459.5 211C459.8 210.5 460.2 209.8 460.8 209.8C461.4 209.8 461.9 210.2 462.1 210.7C464.7 214.2 464.7 213.7 465 213.6C465.4 213.6 464.9 211.6 464.4 210.7C463.9 209.9 463.1 209.2 462.6 208.3C462.1 207.4 462.1 206.2 462.9 205.5C463.2 204.6 464.2 204.1 465.1 204.2C466 204.2 466.9 204.7 467.5 205.4C468.1 206 468.7 206.7 469.2 207.4C470.3 208.8 471.5 210.1 472.9 211.1C473.1 211.3 473.3 211.5 473.6 211.5C473.9 211.5 474.2 211.4 474.3 211.1C474.4 210.8 474.3 210.6 474.1 210.4C473.3 209.1 472.1 208.1 471.1 207C470 205.9 469.1 204.6 469.1 203C469.1 201.5 470.3 199.8 471.8 199.8C473 199.8 473.8 200.6 474.4 201.6C474.9 202.6 475.1 203.6 475.5 204.7C475.7 205.2 475.9 205.8 476.3 206.1C476.7 206.5 477.5 206.5 477.9 206.1C478.3 205.6 478.2 204.8 477.8 204.2C477.4 203.3 476.7 202.5 476.5 201.5C476.3 200.5 476.2 199.4 476.9 198.6C477.4 198 478.4 197.6 479.2 197.6C481.1 197.6 482.8 198.8 483.8 200.3C484.9 201.8 485.4 203.6 486 205.3C486.2 205.8 486.4 206.5 486.9 206.8C487.4 207.2 488.2 207.2 488.5 206.6C488.8 206.1 488.5 205.4 488.1 205C487.1 203.6 486.2 202.1 485.2 200.7C484.8 200 484.2 199.3 484 198.4C483.7 197.6 483.8 196.6 484.3 195.9C484.9 195 486.2 194.6 487.2 194.8C488.2 195 489.2 195.9 489.7 196.8C490.2 197.7 490.6 198.8 490.8 199.8C491 200.4 491.1 201 491.5 201.5C491.9 201.9 492.8 201.9 493.2 201.4C493.6 201 493.3 200.3 493 199.8C492.6 199 492.2 198.3 491.8 197.5C491.4 196.6 489.7 193.7 491.5 192C492.3 191.3 493.5 191.1 494.3 191.8C495.6 193.5 496.9 195.3 498.2 197C499.4 198.6 501 200.5 503.1 200.7C503.5 200.7 504.2 200.6 504.3 200.2C504.4 199.8 504 199.5 503.8 199.2C501.8 197.5 499.9 195.6 498.1 193.7C497.3 192.7 496.4 191.7 496.3 190.4C496.1 189.2 496.6 188.2 497.3 187.2C497.9 186.2 498.8 185.4 499.7 184.6C500.1 184.2 500.7 183.7 501.3 183.8C501.9 183.9 502.4 184.4 502.6 185C504.1 187.6 505.8 190 507.8 192.3C508 192.6 508.2 192.8 508.5 192.9C508.8 193 509.2 193 509.5 192.7C509.8 192.3 509.5 191.8 509.2 191.4C508 189.9 506.6 188.4 505.6 186.7C504.6 185 504 183 504.4 181C504.9 178.7 506.9 176.8 508.8 175.2C509.2 174.8 509.7 174.5 510.1 174.5C510.9 174.5 511.3 175.5 511.4 176.2C511.8 177.4 512.1 178.8 512.4 180C512.5 180.4 512.7 181 513 181.3C513.3 181.6 514 181.8 514.3 181.5C514.9 181.1 514.6 180.2 514.3 179.5C513.7 178.3 513.1 176.9 512.8 175.5C512.4 174.1 512.2 172.6 513 171.2C513.9 169.7 515.8 169.2 517.5 168.8C518.3 168.6 519.5 168.5 519.7 169.3C520 169.9 519.3 170.6 518.9 171.2C517.9 172.4 517.3 174.1 517.2 175.7C517.2 176.1 517.2 176.4 517.5 176.6C517.8 176.8 518.1 176.6 518.4 176.4C518.6 176.1 518.8 175.9 518.8 175.5C519.2 174.2 519.9 172.9 520.6 171.7C520.9 171.2 521.2 170.6 521.7 170.4C522.1 170 522.8 169.9 523.4 170C523.8 170.2 524.2 170.6 524.5 171.1C525.8 173.3 526.6 177 526 177.2Z" fill="#FDDFD3"/>
<path d="M522.9 174C522.7 173.7 522.3 173.6 521.9 173.8C521.5 174 521.5 174.4 521.7 174.8C521.9 175.2 522.3 175.2 522.7 175C523.1 174.8 523.1 174.4 522.9 174Z" fill="#AA2829"/>
<path d="M508.8 181.9C508.6 181.6 508.2 181.5 507.8 181.7C507.4 182 507.4 182.3 507.6 182.7C507.8 183 508.2 183.1 508.6 182.9C508.9 182.7 509 182.2 508.8 181.9Z" fill="#AA2829"/>
<path d="M512.8 189.9C512.6 189.6 512.2 189.5 511.8 189.7C511.4 190 511.4 190.3 511.6 190.7C511.8 191 512.2 191.1 512.6 190.9C513 190.7 513 190.2 512.8 189.9Z" fill="#AA2829"/>
<path d="M511.7 197.6C511.5 197.3 511.1 197.2 510.7 197.4C510.3 197.6 510.3 198 510.5 198.4C510.7 198.7 511.1 198.8 511.5 198.6C511.9 198.4 511.9 197.8 511.7 197.6Z" fill="#AA2829"/>
<path d="M507.2 203.2C507 202.9 506.6 202.8 506.2 203C505.8 203.3 505.8 203.6 506 204C506.2 204.3 506.6 204.4 507 204.2C507.3 204 507.4 203.5 507.2 203.2Z" fill="#AA2829"/>
<path d="M494.1 194.9C493.9 194.6 493.5 194.5 493.1 194.7C492.7 194.9 492.7 195.3 492.9 195.7C493.1 196 493.5 196.1 493.9 195.9C494.3 195.7 494.3 195.2 494.1 194.9Z" fill="#AA2829"/>
<path d="M493 204.5C492.8 204.2 492.4 204.1 492 204.3C491.6 204.6 491.6 204.9 491.8 205.3C492 205.6 492.4 205.7 492.8 205.5C493.1 205.2 493.1 204.9 493 204.5Z" fill="#AA2829"/>
<path d="M488.6 214.2C488.4 213.9 488 213.8 487.6 214C487.2 214.3 487.2 214.6 487.4 215C487.6 215.3 488 215.4 488.4 215.2C488.7 214.9 488.8 214.5 488.6 214.2Z" fill="#AA2829"/>
<path d="M482.5 214.8C482.3 214.5 481.9 214.4 481.5 214.6C481.1 214.9 481.1 215.2 481.3 215.6C481.5 215.9 481.9 216 482.3 215.8C482.5 215.6 482.6 215.2 482.5 214.8Z" fill="#AA2829"/>
<path d="M471.4 203C471.2 202.7 470.8 202.6 470.4 202.8C470 203.1 470 203.4 470.2 203.8C470.4 204.1 470.8 204.2 471.2 204C471.6 203.7 471.7 203.3 471.4 203Z" fill="#AA2829"/>
<path d="M486.7 202.9C486.8 202.9 486.8 202.9 486.9 202.9C487.3 203 487.9 203 488.1 202.6C488.3 202.4 488.4 202.1 488.1 201.9C488 201.9 488 201.8 487.9 201.8C487.8 201.8 487.7 201.7 487.6 201.6C487.5 201.5 487.4 201.4 487.3 201.3L487.2 201.2C487.3 201 487.4 200.8 487.4 200.7C487.4 200.6 487.3 200.4 487.3 200.3C487.3 200.3 487.3 200.2 487.3 200.1C487.2 200 487 200 487 199.9C487.1 199.7 487 199.5 487.2 199.5C487.3 199.5 487.5 199.5 487.6 199.4C487.7 199.2 487.7 198.9 487.6 198.7H487.7C487.8 198.7 487.8 198.6 487.8 198.5C487.8 198.3 487.9 198.2 487.9 198.1C487.8 197.8 487.7 197.7 487.7 197.4C487.8 197.3 487.9 197.1 488.1 197.1C488.5 197.1 488.5 197.6 488.5 197.9C488.5 198.1 488.4 198.4 488.4 198.6C488.4 198.7 488.3 198.8 488.3 198.9C488.2 199.2 488.1 199.4 488 199.8C487.9 200 487.9 200.3 487.9 200.5C487.9 200.7 487.9 200.9 487.9 201C488 201.1 488.1 201.3 488.3 201.4C488.6 201.5 488.8 201.2 488.9 201C489.3 200.4 489.3 199.6 489.4 198.9C489.3 199.6 489.4 200.2 489 200.9C488.8 201.1 488.6 201.3 488.4 201.2C488.3 201.1 488.1 200.9 488.1 200.8C488 200.7 488.1 200.5 488.1 200.4C488.1 200 488.2 199.9 488.3 199.3C488.4 199 488.6 198.6 488.6 198.4C488.7 198.1 488.7 197.9 488.6 197.6C488.6 197.4 488.5 196.9 488.2 197.1C488.1 197.2 487.9 197.3 487.9 197.5C487.8 197.9 488 198.1 488.1 198.5C488.1 198.6 488.1 198.6 488.1 198.6C488.1 198.7 488 198.8 487.9 198.8C487.8 199 487.9 199.2 487.9 199.5L487.8 199.6C487.7 199.6 487.6 199.6 487.5 199.7C487.4 199.8 487.4 199.9 487.4 200C487.4 200.1 487.4 200.1 487.4 200.2C487.4 200.2 487.4 200.2 487.3 200.3C487.3 200.3 487.3 200.3 487.2 200.3C487.1 200.2 487.1 200.1 487 200C487 199.9 487 199.9 487 199.8C486.8 199.6 486.8 199.5 486.7 199.4C486.7 199.3 486.6 199.3 486.6 199.2C486.7 199.1 486.7 199 486.7 198.9C486.7 198.7 486.6 198.5 486.6 198.5C486.7 198.3 486.7 198.1 486.7 198.1C486.7 197.8 486.7 197.6 486.7 197.4C486.7 197.3 486.8 197.3 486.8 197.2C487.1 197 487.4 196.8 487.8 196.8C487.9 196.9 488 197.1 488.1 197.2C488 197.4 487.7 197.5 487.6 197.6C487.4 197.7 487.2 197.9 487.2 198V197.9C487.3 197.7 487.5 197.7 487.6 197.5C487.7 197.4 487.9 197.4 488 197.2C488 197.1 488.1 197 488 196.9C487.9 196.7 487.9 196.6 487.8 196.5C487.6 196.4 487.4 196.5 487.4 196.5C487.2 196.6 487 196.7 486.9 196.9C486.8 197 486.7 197.2 486.7 197.3C486.7 197.4 486.7 197.8 486.7 198C486.7 198 486.7 198.2 486.6 198.3C486.6 198.4 486.6 198.5 486.6 198.7C486.6 198.8 486.6 199 486.7 199.1C486.7 199.1 486.7 199.1 486.6 199.1V199.2C486.6 199.4 486.7 199.5 486.8 199.6C486.9 199.7 486.9 199.9 487.1 200C487.1 200 487.1 200 487.1 200.1V200.2C487.1 200.3 487.2 200.4 487.2 200.5V200.6C487.2 200.7 487.1 200.8 487.1 200.9C487.1 201.2 487.1 201.4 487.2 201.8C487.2 201.9 487.3 201.9 487.3 202C487.1 202.1 486.9 202.3 486.9 202.4C486.8 202.5 486.7 202.6 486.7 202.7C486.6 202.9 486.6 203.1 486.7 203.2C486.6 202.8 486.6 202.8 486.7 202.9ZM487.2 201.1C487.1 200.8 487 200.6 487 200.3C487 200.2 487 200.2 487.1 200C487.2 200.1 487.2 200.1 487.3 200.2C487.4 200.2 487.5 200.2 487.5 200.3C487.5 200.4 487.5 200.4 487.5 200.5C487.5 200.6 487.6 200.8 487.6 200.9C487.5 201.1 487.4 201.3 487.3 201.3C487.3 201.3 487.2 201.2 487.2 201.1ZM486.7 202.2C486.8 202 486.9 201.8 487.1 201.7C487.2 201.7 487.2 201.7 487.3 201.6L487.4 201.7C487.5 201.8 487.6 201.9 487.7 202C487.8 202.1 487.9 202.1 488.1 202.2C488.2 202.2 488.3 202.2 488.4 202.3C488.5 202.3 488.5 202.4 488.5 202.5C488.5 202.5 488.5 202.5 488.5 202.6C488.2 203 487.7 203 487.3 203C487.2 203 487 203 486.9 202.9C486.8 202.8 486.7 202.7 486.7 202.6C486.6 202.4 486.6 202.3 486.7 202.2Z" fill="#AA2829"/>
</svg>
