<svg width="1021" height="834" viewBox="0 0 1021 834" fill="none" xmlns="http://www.w3.org/2000/svg">
<path d="M142.339 804.902C130.899 812.993 115.452 811.192 101.603 808.96C100.919 808.859 100.208 808.732 99.4982 808.58C96.4544 807.971 93.4614 806.931 91.8127 804.394C89.9104 801.478 90.5445 797.648 91.3054 794.249C92.4722 789.074 93.8419 783.824 93.5375 778.497C93.2585 773.196 91.0264 767.667 86.5116 764.851C84.8882 763.837 82.9859 763.152 81.7684 761.681C79.9929 759.525 80.2466 756.278 81.388 753.716C82.5294 751.155 84.381 748.998 85.6999 746.538C88.5661 741.237 88.7944 734.972 88.7183 728.961C88.6422 721.909 85.7253 711.256 89.2256 704.763C91.0518 701.339 94.8565 698.371 98.0777 696.367C98.9655 695.809 110.329 691.193 110.354 692.106C111.09 717.268 112.079 743.494 124.178 765.561C126.917 770.558 130.164 775.225 132.852 780.222C133.157 780.78 133.436 781.338 133.715 781.896C137.393 789.201 139.929 797.064 142.339 804.902Z" fill="#F1ECE0"/>
<path d="M142.339 804.902C130.9 812.994 115.453 811.193 101.604 808.961C100.919 808.86 100.209 808.733 99.4985 808.58C99.9297 807.515 100.437 806.45 100.97 805.486C105.713 796.862 112.789 789.303 121.692 785.118C125.446 783.368 129.555 782.252 133.715 781.897C137.393 789.202 139.929 797.065 142.339 804.902Z" fill="#CDB98C"/>
<path d="M142.339 804.902C130.899 812.993 115.452 811.192 101.603 808.96C100.919 808.859 100.208 808.732 99.4982 808.58C96.4544 807.971 93.4614 806.931 91.8127 804.394C89.9104 801.478 90.5445 797.648 91.3054 794.249C92.4722 789.074 93.8419 783.824 93.5375 778.497C93.2585 773.196 91.0264 767.667 86.5116 764.851C84.8882 763.837 82.9859 763.152 81.7684 761.681C79.9929 759.525 80.2466 756.278 81.388 753.716C82.5294 751.155 84.381 748.998 85.6999 746.538C88.5661 741.237 88.7944 734.972 88.7183 728.961C88.6422 721.909 85.7253 711.256 89.2256 704.763C91.0518 701.339 94.8565 698.371 98.0777 696.367C98.9655 695.809 110.329 691.193 110.354 692.106C111.09 717.268 112.079 743.494 124.178 765.561C126.917 770.558 130.164 775.225 132.852 780.222C133.157 780.78 133.436 781.338 133.715 781.896C137.393 789.201 139.929 797.064 142.339 804.902Z" fill="url(#paint0_linear_4172_276543)"/>
<path d="M719.953 768.522C706.332 771.895 691.672 770.906 678.634 765.731C677.645 765.351 676.707 764.945 675.743 764.514C674.348 763.88 672.927 763.144 672.141 761.876C671.177 760.329 671.355 758.376 671.481 756.549C672.268 744.146 668.539 731.489 661.133 721.496C655.832 714.394 648.4 707.723 648.197 698.871C648.121 695.675 649.034 692.53 649.947 689.461C652.027 682.384 653.523 677.159 653.853 676.296C655.984 670.361 660.067 652.53 668.184 606.189C671.228 602.08 676.428 596.12 684.392 590.894C691.646 586.126 698.52 583.742 703.263 582.499C705.546 583.158 709.883 584.071 712.217 583.564C704.709 610.983 697.226 638.427 689.718 665.846C688.044 671.959 686.37 678.173 686.32 684.54C686.244 694.102 689.871 703.284 693.422 712.162C697.581 722.485 701.767 732.859 707.499 742.396C707.524 742.422 707.55 742.472 707.575 742.498C712.597 750.792 718.989 758.858 719.953 768.522Z" fill="#F1ECE0"/>
<path d="M719.953 768.522C706.333 771.895 691.672 770.906 678.635 765.731C680.563 763.094 682.541 760.507 684.595 757.97C687.157 754.774 689.846 751.654 693.118 749.219C697.455 746.023 702.503 744.248 707.5 742.396C707.525 742.422 707.55 742.472 707.576 742.498C712.598 750.792 718.99 758.858 719.953 768.522Z" fill="#CDB98C"/>
<path d="M719.953 768.522C706.332 771.895 691.672 770.906 678.634 765.731C677.645 765.351 676.707 764.945 675.743 764.514C674.348 763.88 672.927 763.144 672.141 761.876C671.177 760.329 671.355 758.376 671.481 756.549C672.268 744.146 668.539 731.489 661.133 721.496C655.832 714.394 648.4 707.723 648.197 698.871C648.121 695.675 649.034 692.53 649.947 689.461C652.027 682.384 653.523 677.159 653.853 676.296C655.984 670.361 660.067 652.53 668.184 606.189C671.228 602.08 676.428 596.12 684.392 590.894C691.646 586.126 698.52 583.742 703.263 582.499C705.546 583.158 709.883 584.071 712.217 583.564C704.709 610.983 697.226 638.427 689.718 665.846C688.044 671.959 686.37 678.173 686.32 684.54C686.244 694.102 689.871 703.284 693.422 712.162C697.581 722.485 701.767 732.859 707.499 742.396C707.524 742.422 707.55 742.472 707.575 742.498C712.597 750.792 718.989 758.858 719.953 768.522Z" fill="url(#paint1_linear_4172_276543)"/>
<path d="M735.811 560.126C738.195 563.228 738.85 567.577 737.482 571.245C736.115 574.913 732.77 577.771 728.935 578.55C730.226 583.174 731.096 589.112 727.189 591.905C725.026 593.452 722.134 593.365 719.479 593.216C719.918 597.272 720.328 601.533 718.758 605.3C717.188 609.066 712.922 612.047 709.062 610.723C711.03 614.639 710.497 619.681 707.75 623.098C705.006 626.514 700.194 628.122 695.946 627.042C694.939 632.409 689.84 636.523 684.402 637.033C678.964 637.543 673.503 634.791 670.089 630.53C665.917 625.32 664.692 618.395 663.961 611.762C661.141 586.152 664.303 558.378 680.458 538.307C683.2 534.901 686.386 531.69 690.396 529.942C693.744 528.483 697.465 528.133 701.115 528.012C711.895 527.646 729.12 527.859 738.479 534.34C746.999 540.24 744.209 555.426 735.811 560.126Z" fill="#CDB98C"/>
<path d="M735.811 560.126C738.195 563.228 738.85 567.577 737.482 571.245C736.115 574.913 732.77 577.771 728.935 578.55C730.226 583.174 731.096 589.112 727.189 591.905C725.026 593.452 722.134 593.365 719.479 593.216C719.918 597.272 720.328 601.533 718.758 605.3C717.188 609.066 712.922 612.047 709.062 610.723C711.03 614.639 710.497 619.681 707.75 623.098C705.006 626.514 700.194 628.122 695.946 627.042C694.939 632.409 689.84 636.523 684.402 637.033C678.964 637.543 673.503 634.791 670.089 630.53C665.917 625.32 664.692 618.395 663.961 611.762C661.141 586.152 664.303 558.378 680.458 538.307C683.2 534.901 686.386 531.69 690.396 529.942C693.744 528.483 697.465 528.133 701.115 528.012C711.895 527.646 729.12 527.859 738.479 534.34C746.999 540.24 744.209 555.426 735.811 560.126Z" fill="url(#paint2_linear_4172_276543)"/>
<path d="M158.808 551.24C157.773 573.206 150.096 594.243 142.501 614.88C139.105 624.115 135.503 633.67 128.485 640.566C133.218 643.425 134.524 650.098 132.652 655.301C130.781 660.503 126.466 664.442 121.944 667.623C125.142 669.294 127.204 672.931 126.999 676.536C126.793 680.14 124.328 683.516 120.959 684.812C123.524 690.745 123.856 697.616 121.87 703.767C121.439 705.106 120.873 706.453 119.848 707.417C116.998 710.1 111.329 707.503 111.501 703.592C111.717 707.143 111.189 710.737 109.961 714.077C108.303 715.744 105.391 715.457 103.483 714.085C101.573 712.713 100.427 710.547 99.3464 708.459C99.3134 712.241 95.8613 715.688 92.0795 715.62C88.2977 715.551 84.947 711.881 85.3148 708.117C86.2913 711.097 83.5799 714.481 80.4499 714.646C77.3174 714.811 74.4385 712.251 73.6928 709.205C72.9471 706.159 74.0631 702.864 76.0669 700.452C76.9014 699.447 77.9591 698.321 77.6826 697.045C77.3757 695.633 75.6941 695.115 74.474 694.339C71.6966 692.571 70.9636 688.663 71.9046 685.507C72.8456 682.352 75.0803 679.775 77.254 677.302C74.7252 675.907 72.3536 674.225 70.1976 672.305C69.495 671.678 68.7747 670.948 68.6554 670.015C68.5236 668.982 69.1653 668.026 69.7766 667.181C72.4652 663.463 75.1564 659.747 77.845 656.029C73.528 654.37 68.5591 651.937 67.9021 647.359C67.3137 643.263 70.9509 637.936 73.9414 635.075C70.5984 637.058 65.911 635.519 63.7297 632.3C61.5483 629.084 61.6041 624.719 63.093 621.129C64.5819 617.54 67.3238 614.613 70.2711 612.077C64.5489 611.839 61.5153 604.369 63.476 598.989C65.4367 593.609 70.4563 590.051 75.1969 586.84C71.2223 583.491 72.5514 576.595 76.4728 573.186C80.3941 569.777 85.85 568.912 90.9964 568.187C87.8462 564.544 85.7891 559.705 86.4385 554.934C87.0878 550.163 90.928 545.719 95.7269 545.315C88.5589 538.234 90.3319 524.418 99.0572 519.375C94.0072 515.71 90.3294 509.744 90.6413 503.51C90.9508 497.278 95.9983 491.259 102.233 490.995C118.202 501.024 132.424 515.241 141.565 531.735C144.132 536.364 146.56 541.397 150.976 544.318C153.337 545.894 156.647 549.394 158.808 551.24Z" fill="#CDB98C"/>
<path d="M142.492 614.872C139.118 624.105 135.517 633.667 128.491 640.567C133.234 643.433 134.527 650.103 132.65 655.303C131.281 659.057 128.668 662.151 125.599 664.789C124.432 665.804 123.189 666.742 121.947 667.63C122.784 668.061 123.545 668.645 124.204 669.304V669.33C125.396 670.522 126.259 672.018 126.69 673.642C126.943 674.58 127.045 675.544 126.994 676.533C126.791 680.135 124.331 683.508 120.957 684.827C123.519 690.737 123.849 697.611 121.87 703.774C121.439 705.119 120.881 706.463 119.841 707.427C117.178 709.964 111.978 707.782 111.522 704.282C111.649 707.605 111.116 710.953 109.949 714.073C108.301 715.747 105.384 715.468 103.481 714.098C101.579 712.703 100.412 710.547 99.3469 708.467C99.3215 712.246 95.8466 715.696 92.0673 715.62C88.9474 715.544 86.132 713.058 85.4725 710.065C85.092 712.424 82.9107 714.529 80.4504 714.656C77.3052 714.808 74.439 712.246 73.6781 709.202C72.9425 706.159 74.0585 702.862 76.0623 700.452C76.8993 699.463 77.9647 698.321 77.6856 697.053C77.3813 695.633 75.6818 695.125 74.4644 694.339C71.6996 692.563 70.9641 688.657 71.9026 685.512C72.841 682.367 75.0731 679.78 77.2545 677.294C74.718 675.899 72.3591 674.225 70.2031 672.297C69.4929 671.689 68.7827 670.953 68.6559 670.015C68.5291 668.975 69.1632 668.036 69.772 667.174C72.4606 663.471 75.1492 659.742 77.8378 656.039C73.5259 654.365 68.5544 651.93 67.895 647.364C67.3116 643.255 70.9387 637.929 73.9317 635.088C70.5836 637.066 65.9165 635.519 63.7352 632.298C61.5539 629.076 61.6046 624.714 63.1011 621.137C64.5722 617.536 67.3116 614.619 70.2538 612.082C64.5469 611.854 61.5031 604.371 63.4815 598.994C65.4346 593.617 70.4568 590.066 75.1999 586.845C71.2177 583.496 72.5367 576.597 76.4682 573.198C80.3996 569.774 85.853 568.912 91.002 568.202C87.8314 564.549 85.7769 559.705 86.4364 554.936C87.0705 550.168 90.9259 545.729 95.7198 545.323C88.5416 538.246 90.3171 524.423 99.0425 519.375C93.995 515.723 90.3171 509.762 90.6215 503.522C90.7483 501.468 91.3571 499.439 92.3463 497.638C93.8428 494.949 96.1763 492.743 98.9664 491.677C100.006 491.271 101.097 491.043 102.213 490.992C103.608 491.855 104.978 492.768 106.322 493.706C120.628 503.522 133.208 516.661 141.553 531.753C144.115 536.369 146.55 541.391 150.963 544.334C153.348 545.881 156.645 549.407 158.801 551.233C157.787 573.198 150.101 594.251 142.492 614.872Z" fill="url(#paint3_linear_4172_276543)"/>
<path d="M124.204 669.329C125.396 670.521 126.259 672.017 126.69 673.641C126.589 673.615 126.513 673.59 126.411 673.539C125.523 673.159 124.61 672.702 124.204 671.865C123.824 671.079 123.976 670.166 124.204 669.329Z" fill="url(#paint4_linear_4172_276543)"/>
<path d="M152.206 702.607C152.612 703.14 152.866 703.748 152.967 704.408C152.612 703.85 152.359 703.266 152.206 702.607Z" fill="url(#paint5_linear_4172_276543)"/>
<path d="M142.491 614.872C139.118 624.104 135.516 633.667 128.49 640.566C133.233 643.432 134.527 650.103 132.65 655.302C131.28 659.056 128.668 662.151 125.598 664.789C126.537 661.745 127.475 658.701 128.414 655.657C123.798 655.48 118.319 654.77 116.214 650.635C114.337 646.957 116.087 640.743 117.989 637.065C115.453 640.033 110.532 640.084 107.438 637.725C104.343 635.366 102.973 631.231 103.227 627.351C103.506 623.47 105.155 619.818 107.133 616.469C101.629 618.093 96.3533 611.98 96.4801 606.248C96.6323 600.541 100.234 595.544 103.684 591.003C98.8643 589.101 97.9005 582.151 100.513 577.662C103.126 573.172 108.021 570.585 112.663 568.252C108.503 565.817 105.003 561.885 104.089 557.167C103.176 552.424 105.383 546.996 109.796 545.069C100.741 540.655 97.9766 527.009 104.622 519.451C98.6614 517.599 93.2588 513.109 91.5594 507.123C90.6716 504.029 91.0267 500.554 92.3457 497.637C93.5885 494.898 95.6938 492.64 98.5093 491.55C98.6614 491.575 98.8136 491.626 98.9658 491.676C101.426 492.26 103.886 492.919 106.321 493.706C120.627 503.522 133.208 516.66 141.553 531.752C144.114 536.369 146.549 541.391 150.963 544.333C153.347 545.88 156.645 549.406 158.8 551.232C157.786 573.198 150.1 594.25 142.491 614.872Z" fill="url(#paint6_linear_4172_276543)"/>
<path d="M1013.33 78.8201C1007.19 83.0052 1001.48 86.886 995.802 90.1327C985.453 96.0426 975.13 99.8978 962.169 99.8218C950.983 99.7457 947.711 96.7782 946.595 95.6875C941.269 90.4878 940.305 79.505 945.251 73.9755C951.744 66.6706 961.915 62.9165 971.427 62.1302C974.268 61.902 978.808 62.2571 986.189 63.2209C990.476 63.7536 995.751 64.5145 1002.19 65.453C1014.95 67.3046 1019.87 68.3192 1020.43 70.9318C1020.94 73.3921 1017.29 76.1315 1013.33 78.8201Z" fill="#F1ECE0"/>
<path d="M1013.33 78.8201C1007.19 83.0052 1001.48 86.886 995.802 90.1327C985.453 96.0426 975.13 99.8978 962.169 99.8218C950.983 99.7457 947.711 96.7782 946.595 95.6875C941.269 90.4878 940.305 79.505 945.251 73.9755C951.744 66.6706 961.915 62.9165 971.427 62.1302C974.268 61.902 978.808 62.2571 986.189 63.2209C990.476 63.7536 995.751 64.5145 1002.19 65.453C1014.95 67.3046 1019.87 68.3192 1020.43 70.9318C1020.94 73.3921 1017.29 76.1315 1013.33 78.8201Z" fill="url(#paint7_linear_4172_276543)"/>
<path d="M1013.33 78.8205C1008.97 81.783 1005.68 84.1217 1004.39 84.8294C997.513 88.6264 990.094 92.7201 980.055 92.5477C977.392 92.502 975.401 92.1748 974.163 91.9592C966.123 90.5642 960.035 87.1653 956.281 84.6035C960.03 80.3499 967.505 73.0983 979.193 68.766C989.506 64.9436 998.077 65.2606 1002.19 65.4534C1004.04 65.5396 1019.49 66.4046 1020.43 70.9322C1020.94 73.3925 1017.29 76.1318 1013.33 78.8205Z" fill="url(#paint8_linear_4172_276543)"/>
<path d="M272.611 832.245C260.943 833.666 249.174 834.224 237.456 833.919C231.393 833.742 224.697 833.006 219.497 830.216C216.783 828.796 214.475 826.817 212.852 824.103C208.337 816.418 211.432 805.892 206.688 798.358C203.721 793.666 198.115 790.926 195.655 785.93C193.22 780.984 194.463 775.125 194.995 769.646C196.872 750.496 189.72 731.777 182.668 713.895C182.998 714.732 210.747 715.467 215.211 717.801C221.882 721.326 223.86 727.947 225.839 734.77C231.647 754.706 241.387 770.914 251.837 788.035C253.765 791.155 255.693 794.3 257.62 797.496C264.164 808.327 270.049 819.74 272.611 832.245Z" fill="#F1ECE0"/>
<path d="M684.073 783.875C670.452 787.249 655.791 786.26 642.754 781.085C641.765 780.705 640.826 780.299 639.862 779.868C638.467 779.233 637.047 778.498 636.261 777.23C635.297 775.683 635.474 773.729 635.601 771.903C636.387 759.5 632.659 746.843 625.252 736.85C619.951 729.748 612.52 723.077 612.317 714.224C612.24 711.029 613.154 707.883 614.067 704.814C616.147 697.738 617.643 692.513 617.973 691.65C620.103 685.715 624.187 667.884 632.304 621.543C635.347 617.434 640.547 611.473 648.512 606.248C655.766 601.48 662.64 599.095 667.383 597.852C669.666 598.512 674.003 599.425 676.336 598.918C668.829 626.337 661.346 653.781 653.838 681.2C652.164 687.313 650.49 693.527 650.439 699.894C650.363 709.456 653.99 718.638 657.541 727.515C661.701 737.839 665.886 748.213 671.619 757.75C671.644 757.775 671.669 757.826 671.695 757.851C676.717 766.146 683.109 774.212 684.073 783.875Z" fill="#F1ECE0"/>
<path d="M953.676 229.809C956.75 231.341 958.406 235.255 957.364 238.529C956.321 241.804 952.709 244.041 949.313 243.513C951.467 249.147 952.405 255.242 952.042 261.264C949.595 261.685 947.147 262.106 944.699 262.527C945.432 267.843 944.77 273.347 942.8 278.339C937.975 278.803 933.044 278.146 928.509 276.437C928.055 279.655 927.551 283.006 925.691 285.669C923.832 288.335 920.174 290.05 917.242 288.65C919.109 291.564 917.235 295.691 914.252 297.449C911.272 299.206 907.619 299.244 904.157 299.232C901.534 299.224 898.676 299.133 896.662 297.451C894.945 296.015 894.234 293.735 893.61 291.587C885.291 262.856 877.75 233.9 870.995 204.762C870.212 201.378 869.44 197.812 870.409 194.477C871.739 189.906 876.007 186.854 880.256 184.711C887.145 181.239 894.658 179.202 902.166 177.442C910.402 175.512 919.261 173.921 927.137 177.008C934.551 179.915 939.829 186.479 944.42 192.988C948.862 199.283 954.87 205.82 958.657 212.371C960.298 215.204 960.357 233.14 953.676 229.809Z" fill="#CDB98C"/>
<path d="M953.676 229.809C956.75 231.341 958.406 235.255 957.364 238.529C956.321 241.804 952.709 244.041 949.313 243.513C951.467 249.147 952.405 255.242 952.042 261.264C949.595 261.685 947.147 262.106 944.699 262.527C945.432 267.843 944.77 273.347 942.8 278.339C937.975 278.803 933.044 278.146 928.509 276.437C928.055 279.655 927.551 283.006 925.691 285.669C923.832 288.335 920.174 290.05 917.242 288.65C919.109 291.564 917.235 295.691 914.252 297.449C911.272 299.206 907.619 299.244 904.157 299.232C901.534 299.224 898.676 299.133 896.662 297.451C894.945 296.015 894.234 293.735 893.61 291.587C885.291 262.856 877.75 233.9 870.995 204.762C870.212 201.378 869.44 197.812 870.409 194.477C871.739 189.906 876.007 186.854 880.256 184.711C887.145 181.239 894.658 179.202 902.166 177.442C910.402 175.512 919.261 173.921 927.137 177.008C934.551 179.915 939.829 186.479 944.42 192.988C948.862 199.283 954.87 205.82 958.657 212.371C960.298 215.204 960.357 233.14 953.676 229.809Z" fill="url(#paint9_linear_4172_276543)"/>
<path d="M999.911 185.351C998.592 190.474 994.433 193.873 991.161 195.927C991.186 196.08 991.211 196.232 991.211 196.384C991.44 198.591 991.44 201.711 990.121 204.856C990.019 205.109 989.918 205.338 989.791 205.591C985.631 214.063 974.521 215.839 969.55 216.625C960.47 218.071 953.291 216.447 949.766 215.712C928.992 211.298 929.626 214.697 906.519 210.639C874.992 205.109 846.051 193.949 831.999 188.115C829.412 163.284 826.85 138.452 824.263 113.645C823.502 113.062 815.563 106.873 815.842 96.2961C816.121 86.404 823.35 80.7984 824.263 80.0882C828.93 73.5188 833.571 66.9241 838.239 60.3294C842.804 58.6807 905.606 36.639 932.315 45.897C936.881 47.495 946.139 50.7162 949.766 58.8328C952.074 64.0579 950.4 67.5835 951.186 74.6602C951.516 77.6786 952.581 83.7914 961.713 97.9447C977.819 122.853 986.544 122.472 990.247 137.031C992.809 147.152 988.726 147.811 992.074 159.58C995.625 171.984 1001.92 177.488 999.911 185.351Z" fill="#F1ECE0"/>
<path d="M839.384 467.558C842.783 468.557 846.74 467.235 848.858 464.395C850.976 461.554 851.113 457.384 849.182 454.411C855.019 453.095 858.146 445.176 854.783 440.227C858.92 441.004 862.765 437.029 863.308 432.854C863.851 428.682 862.002 424.585 859.899 420.938C863.445 420.228 866.456 417.328 867.298 413.81C868.14 410.292 866.768 406.343 863.927 404.106C867.13 403.824 869.439 400.616 869.819 397.422C870.199 394.229 869.126 391.064 868.066 388.027C869.791 387.274 871.518 386.521 873.243 385.768C873.547 378.242 873.426 370.696 872.878 363.183C877.941 363.082 882.869 360.258 885.517 355.941C888.165 351.624 889.377 343.972 887.173 339.411C892.865 334.359 895.734 326.311 894.521 318.798C898.298 318.762 901.266 315.156 901.918 311.437C902.569 307.719 901.484 303.939 900.408 300.32C905.829 296.632 908.566 289.923 909.017 283.384C909.469 276.845 907.947 270.347 906.438 263.967C911.447 265.033 916.091 259.61 915.701 254.501C915.31 249.393 911.338 245.198 906.871 242.694C910.848 239.508 912.873 234.055 911.937 229.046C911.001 224.036 907.66 216.906 902.803 215.372C904.756 212.305 904.964 208.204 903.335 204.955C901.707 201.705 898.298 199.418 894.674 199.144C897.928 196.28 899.62 191.735 899.029 187.438C898.438 183.141 895.582 179.225 891.673 177.345C890.914 176.98 890.057 176.628 889.694 175.869C889.147 174.728 890.024 173.465 890.483 172.283C891.457 169.782 890.387 166.768 888.307 165.072C886.227 163.375 883.343 162.883 880.693 163.309C883.762 160.932 883.09 155.776 880.353 153.023C877.616 150.271 874.367 148.257 870.57 147.458C873.109 145.901 872.424 141.673 870.017 139.92C867.61 138.168 864.378 138.201 861.408 138.398C863.79 136.948 863.617 133.064 861.553 131.192C859.488 129.318 856.33 129.166 853.646 129.927C854.537 127.662 852.799 125.024 850.527 124.156C848.252 123.289 845.695 123.758 843.369 124.471C844.662 121.878 842.035 118.726 839.164 118.35C836.292 117.975 833.533 119.423 830.999 120.823C828.609 117.009 826.167 113.052 825.492 108.6C825.147 106.327 825.281 104.012 825.416 101.716C825.703 96.826 825.989 91.9357 826.273 87.0455C826.324 86.1729 826.387 85.2624 826.836 84.5141C827.567 83.2967 829.079 82.8553 830.299 82.1299C833.393 80.2884 834.697 75.9512 833.134 72.7071C837.175 73.5517 842.055 70.5562 843.41 66.6576C845.837 72.0552 854.882 72.4205 857.735 67.2385C858.775 72.1744 864.624 75.4718 869.385 73.8053C869.629 72.149 869.872 70.4952 870.116 68.8389C873.497 75.175 882.08 76.0044 889.261 76.0374C892.274 76.0501 895.483 76.0119 898.009 74.3709C900.535 72.7298 901.836 68.8516 899.79 66.6398C902.017 71.2993 907.751 73.9676 912.751 72.6664C917.748 71.3652 921.456 66.2391 921.129 61.085C924.611 67.4414 930.716 74.2974 937.725 72.4509C941.659 71.4135 944.568 67.3653 944.291 63.3044C946.534 67.8523 954.031 67.2207 956.877 63.0254C959.726 58.8302 958.82 53.0521 956.494 48.5474C954.039 43.7941 949.055 39.4618 943.853 40.7148C943.358 35.7891 942.719 30.5158 939.462 26.7898C936.205 23.0612 929.336 22.1709 926.668 26.3433C924.69 19.9413 920.916 14.1075 915.891 9.67638C914.1 8.09618 912.046 6.64785 909.679 6.32826C903.911 5.55211 899.665 11.4012 896.837 16.4867C891.744 8.20524 883.429 1.49883 873.796 0.200175C864.163 -1.09848 853.505 4.00492 850.047 13.0905C843.179 9.86664 835.848 6.5642 828.313 7.46211C820.777 8.36001 813.441 15.3174 815.098 22.7238C806.887 17.9832 796.333 16.4031 787.899 20.7328C779.466 25.0625 774.53 36.2481 778.849 44.6869C774.139 43.5099 768.803 45.5214 766.038 49.5113C763.273 53.5011 763.268 59.2055 766.025 63.2004C759.747 60.3697 751.555 62.8859 747.948 68.7527C744.341 74.6195 745.797 83.0658 751.159 87.3879C742.941 89.171 733.531 85.5744 726.383 90.003C720.197 93.8356 718.52 102.315 719.87 109.465C712.575 106.566 705.366 107.367 697.518 107.18C689.671 106.992 681.26 110.132 677.29 116.905C669.412 108.793 652.859 114.439 651.581 125.673C649.1 119.958 640.644 118 635.906 122.046C631.901 125.465 629.818 132.331 624.555 132.189C622.435 132.131 620.596 130.814 618.691 129.884C610.526 125.886 599.444 129.785 595.579 138.013C592.649 133.787 588.832 130.183 584.444 127.502C577.182 127.864 573.978 139.451 566.729 138.906C563.348 138.652 560.898 135.738 558.123 133.787C549.038 127.403 534.187 133.536 532.251 144.468C527.463 141.531 522.676 138.591 517.888 135.654C513.411 136.663 509.274 139.116 506.238 142.556C502.243 140.722 498.664 137.993 495.838 134.627C493.776 136.09 492.282 138.335 491.729 140.803C489.68 139.421 487.628 138.036 485.578 136.653C466.213 139.55 446.428 139.649 427.032 136.95C424.437 136.59 421.825 136.176 419.21 136.351C416.28 136.547 413.455 137.468 410.634 138.279C404.785 139.961 398.804 141.196 392.767 141.965C381.632 143.385 370.365 143.223 359.142 143.06C349.602 142.921 339.867 142.751 330.858 139.606C323.637 137.087 315.578 132.732 308.938 136.524C306.939 137.665 305.334 139.466 303.213 140.364C298.303 142.439 292.991 139.06 287.936 137.369C282.881 135.677 275.178 137.853 275.939 143.131C265.428 143.078 254.914 143.027 244.403 142.974C236.705 142.936 228.913 142.908 221.436 144.742C213.015 146.807 204.713 151.23 196.17 149.762C188.109 148.374 180.84 141.823 172.807 143.372C170.154 143.885 167.757 145.257 165.418 146.609C155.138 152.547 144.858 158.482 134.578 164.42C127.217 168.671 119.856 172.922 112.498 177.17C108.696 179.367 104.287 183.375 106.286 187.281C97.221 187.636 85.8907 190.061 77.0918 192.272C75.3137 192.719 73.4443 193.264 72.2065 194.619C70.8851 196.067 70.5528 198.149 69.5585 199.836C66.6162 204.84 59.5269 204.721 54.0583 206.664C45.6754 209.639 40.2753 219.293 42.1218 227.993C36.0369 230.088 29.7364 232.31 25.1327 236.81C20.5316 241.31 18.16 248.782 21.4168 254.332C13.1404 259.648 8.32368 269.898 9.51074 279.66C9.72887 281.454 10.1271 283.308 9.60208 285.038C8.79802 287.688 6.13222 289.223 4.14619 291.156C-0.944456 296.114 -1.41877 305.055 3.11893 310.526C4.63826 312.358 6.74348 314.111 6.71812 316.49C6.69529 318.676 4.86147 320.335 3.57295 322.103C-0.399115 327.548 0.564727 335.323 3.72513 341.278C5.1075 343.883 6.88806 346.354 7.4892 349.24C8.20955 352.702 7.13662 356.253 6.84239 359.777C6.5507 363.3 7.41564 367.432 10.5608 369.05C14.2945 370.97 19.0326 367.908 20.4428 363.954C21.8531 360 20.9298 355.637 19.9913 351.546C24.5417 350.346 30.7281 354.135 33.3964 350.26C34.0864 349.258 34.2436 347.992 34.3679 346.78C34.7915 342.643 35.0527 338.491 35.1517 334.333C36.5569 336.048 37.962 337.763 39.3647 339.477C43.7527 337.41 48.9829 338.136 53.5662 336.545C58.1496 334.955 61.7742 328.604 58.0989 325.433C60.2421 331.883 62.3576 339.079 59.5497 345.268C58.1115 348.434 55.5142 350.96 54.0811 354.128C51.2048 360.487 53.7083 368.243 58.3601 373.445C63.0119 378.648 69.4418 381.849 75.7068 384.923C69.7284 386.11 63.8464 388.776 59.9276 393.443C56.0088 398.11 54.4337 404.999 57.0488 410.503C59.6613 416.007 66.9409 419.152 72.3461 416.342C67.7399 421.412 64.3613 428.129 65.1755 434.929C65.9897 441.731 72.1152 448.065 78.9307 447.357C75.1945 457.49 82.9154 470.459 93.6065 471.989C87.6941 476.653 88.1354 486.287 92.5057 492.417C96.876 498.55 103.975 502.03 110.773 505.264C106.048 510.923 106.991 519.773 111.164 525.853C115.336 531.93 122.015 535.77 128.675 538.928C115.285 544.724 112.79 566.179 124.493 574.892C117.817 577.172 113.292 584.541 114.279 591.526C115.265 598.512 121.652 604.338 128.698 604.683C128.503 617.664 124.894 630.577 118.332 641.781C122.497 646.879 130.486 648.343 136.188 645.055C130.961 649.717 132.726 659.708 138.831 663.145C142.836 665.4 148.358 665.289 151.09 668.982C146.956 673.448 145.91 680.51 148.579 685.981C151.245 691.452 157.449 694.98 163.516 694.475C165.307 701.445 165.543 708.811 164.201 715.883C163.516 719.495 162.423 723.165 163.09 726.78C163.757 730.394 166.988 733.894 170.61 733.273C169.284 736.256 167.934 739.337 167.861 742.599C167.79 745.864 169.319 749.389 172.323 750.67C175.326 751.951 179.531 749.848 179.503 746.584C180.401 747.911 181.299 749.237 182.194 750.566C186.098 751.7 190.443 747.525 189.464 743.578C188.967 747.454 193.339 750.914 197.119 749.919C200.898 748.925 203.069 744.291 201.831 740.585C201.852 746.992 208.812 752.388 215.024 750.807C221.235 749.227 224.774 741.166 221.73 735.525C222.356 738.221 224.243 740.596 226.727 741.818C234.929 732.606 231.569 715.837 220.449 710.496C226.067 699.665 218.757 684.408 206.795 682.001C213.36 675.708 210.463 662.717 201.847 659.807C208.69 651.833 208.19 638.59 200.764 631.156C208.888 624.885 209.755 611.247 202.491 604.001C207.896 604.817 213.666 602.372 216.84 597.923C220.013 593.472 220.444 587.222 217.912 582.377C221.707 583.039 225.758 583.481 229.606 583.278C230.919 583.209 232.355 583.032 233.268 582.083C234.257 581.051 234.298 579.455 234.194 578.027C233.93 574.4 233.111 570.816 231.777 567.433C234.153 567.443 236.472 568.151 238.841 568.341C241.21 568.528 243.848 568.067 245.364 566.238C246.392 565 246.737 563.344 246.935 561.749C247.394 558.076 247.267 554.329 246.554 550.697C250.957 551.326 255.695 551.904 259.65 549.868C263.604 547.831 265.864 542.033 262.808 538.804C266.255 539.276 269.752 539.367 273.22 539.08C274.891 538.943 276.634 538.684 277.983 537.69C279.563 536.526 280.324 534.55 280.71 532.625C281.534 528.503 280.966 524.115 279.117 520.339C283.282 521.827 288.081 522.01 292.015 519.983C295.946 517.957 298.708 513.439 297.907 509.087C304.672 510.857 311.624 511.905 318.609 512.206C320.567 512.29 322.604 512.303 324.392 511.494C326.178 510.685 327.639 508.831 327.37 506.888C327.449 510.586 330.673 514.34 334.269 515.207C337.866 516.072 341.934 514.256 343.687 510.999C345.135 516.473 349.166 521.203 354.343 523.499C355.735 522.094 357.125 520.686 358.518 519.281C359.028 526.413 369.419 530.345 374.523 525.335C375.071 529.619 376.062 533.99 378.583 537.498C381.105 541.005 385.46 543.473 389.708 542.69C393.234 542.04 396.001 539.39 398.543 536.863C401.069 540.224 403.864 543.783 407.887 545.008C411.91 546.233 417.272 543.669 417.163 539.466C419.704 542.723 423.22 545.208 427.139 546.52C428.742 547.057 430.565 547.382 432.075 546.624C433.584 545.863 434.375 543.615 433.18 542.421C435.065 549.705 446.484 551.904 450.938 545.842C454.01 553.025 465.348 554.616 470.276 548.554C474.606 551.382 479.514 553.822 484.683 553.586C489.852 553.35 495.153 549.601 495.524 544.442C499.683 546.971 504.046 549.566 508.898 549.946C513.753 550.327 519.211 547.735 520.399 543.012C524.921 548.696 534.029 550.005 539.97 545.825C541.809 544.531 543.564 542.723 545.814 542.718C547.376 542.712 548.776 543.605 550.131 544.384C554.011 546.616 558.6 548.166 562.945 547.088C567.287 546.007 570.955 541.508 569.824 537.178C575.072 538.393 579.069 542.644 584.043 544.719C589.017 546.791 596.603 544.901 596.705 539.514C598.31 547.567 607.256 553.348 615.259 551.504C614.356 559.078 621.8 566.453 629.367 565.485C624.773 571.991 628.337 582.54 635.933 584.931C630.475 590.032 629.455 599.214 633.658 605.39C630.221 610.058 626.838 615.118 626.26 620.883C625.684 626.648 628.923 633.208 634.602 634.367C638.419 635.145 642.637 633.111 644.405 629.639C646.173 626.164 645.331 621.558 642.452 618.932C647.388 623.572 654.543 626.486 661.022 624.51C667.5 622.534 671.984 614.43 668.661 608.528C673.935 610.529 680.004 606.938 682.726 601.997C685.445 597.056 685.66 591.171 685.81 585.533C689.572 586.111 693.108 590.877 696.648 589.477C700.187 588.077 702.954 583.963 701.498 580.445C705.81 581.667 710.761 580.242 713.762 576.911C716.762 573.581 717.665 568.508 716.001 564.346C720.833 564.328 725.899 563.245 729.508 560.031C733.117 556.818 734.741 551.075 732.204 546.961C736.823 548.676 742.398 547.425 745.843 543.905C749.287 540.384 750.416 534.784 748.6 530.203C754.086 530.847 759.961 531.128 764.808 528.48C769.655 525.832 772.711 519.212 769.733 514.561C778.461 517.145 788.394 508.481 787.017 499.481C791.613 501.625 796.98 503.045 801.71 501.219C806.441 499.393 809.594 493.171 806.738 488.98C811.115 490.309 816.206 489.513 819.64 486.49C823.075 483.466 824.485 478.173 822.557 474.025C827.511 477.166 837.383 473.079 839.384 467.558Z" fill="#CDB98C"/>
<path d="M839.384 467.558C842.783 468.557 846.74 467.235 848.858 464.395C850.976 461.554 851.113 457.384 849.182 454.411C855.019 453.095 858.146 445.176 854.783 440.227C858.92 441.004 862.765 437.029 863.308 432.854C863.851 428.682 862.002 424.585 859.899 420.938C863.445 420.228 866.456 417.328 867.298 413.81C868.14 410.292 866.768 406.343 863.927 404.106C867.13 403.824 869.439 400.616 869.819 397.422C870.199 394.229 869.126 391.064 868.066 388.027C869.791 387.274 871.518 386.521 873.243 385.768C873.547 378.242 873.426 370.696 872.878 363.183C877.941 363.082 882.869 360.258 885.517 355.941C888.165 351.624 889.377 343.972 887.173 339.411C892.865 334.359 895.734 326.311 894.521 318.798C898.298 318.762 901.266 315.156 901.918 311.437C902.569 307.719 901.484 303.939 900.408 300.32C905.829 296.632 908.566 289.923 909.017 283.384C909.469 276.845 907.947 270.347 906.438 263.967C911.447 265.033 916.091 259.61 915.701 254.501C915.31 249.393 911.338 245.198 906.871 242.694C910.848 239.508 912.873 234.055 911.937 229.046C911.001 224.036 907.66 216.906 902.803 215.372C904.756 212.305 904.964 208.204 903.335 204.955C901.707 201.705 898.298 199.418 894.674 199.144C897.928 196.28 899.62 191.735 899.029 187.438C898.438 183.141 895.582 179.225 891.673 177.345C890.914 176.98 890.057 176.628 889.694 175.869C889.147 174.728 890.024 173.465 890.483 172.283C891.457 169.782 890.387 166.768 888.307 165.072C886.227 163.375 883.343 162.883 880.693 163.309C883.762 160.932 883.09 155.776 880.353 153.023C877.616 150.271 874.367 148.257 870.57 147.458C873.109 145.901 872.424 141.673 870.017 139.92C867.61 138.168 864.378 138.201 861.408 138.398C863.79 136.948 863.617 133.064 861.553 131.192C859.488 129.318 856.33 129.166 853.646 129.927C854.537 127.662 852.799 125.024 850.527 124.156C848.252 123.289 845.695 123.758 843.369 124.471C844.662 121.878 842.035 118.726 839.164 118.35C836.292 117.975 833.533 119.423 830.999 120.823C828.609 117.009 826.167 113.052 825.492 108.6C825.147 106.327 825.281 104.012 825.416 101.716C825.703 96.826 825.989 91.9357 826.273 87.0455C826.324 86.1729 826.387 85.2624 826.836 84.5141C827.567 83.2967 829.079 82.8553 830.299 82.1299C833.393 80.2884 834.697 75.9512 833.134 72.7071C837.175 73.5517 842.055 70.5562 843.41 66.6576C845.837 72.0552 854.882 72.4205 857.735 67.2385C858.775 72.1744 864.624 75.4718 869.385 73.8053C869.629 72.149 869.872 70.4952 870.116 68.8389C873.497 75.175 882.08 76.0044 889.261 76.0374C892.274 76.0501 895.483 76.0119 898.009 74.3709C900.535 72.7298 901.836 68.8516 899.79 66.6398C902.017 71.2993 907.751 73.9676 912.751 72.6664C917.748 71.3652 921.456 66.2391 921.129 61.085C924.611 67.4414 930.716 74.2974 937.725 72.4509C941.659 71.4135 944.568 67.3653 944.291 63.3044C946.534 67.8523 954.031 67.2207 956.877 63.0254C959.726 58.8302 958.82 53.0521 956.494 48.5474C954.039 43.7941 949.055 39.4618 943.853 40.7148C943.358 35.7891 942.719 30.5158 939.462 26.7898C936.205 23.0612 929.336 22.1709 926.668 26.3433C924.69 19.9413 920.916 14.1075 915.891 9.67638C914.1 8.09618 912.046 6.64785 909.679 6.32826C903.911 5.55211 899.665 11.4012 896.837 16.4867C891.744 8.20524 883.429 1.49883 873.796 0.200175C864.163 -1.09848 853.505 4.00492 850.047 13.0905C843.179 9.86664 835.848 6.5642 828.313 7.46211C820.777 8.36001 813.441 15.3174 815.098 22.7238C806.887 17.9832 796.333 16.4031 787.899 20.7328C779.466 25.0625 774.53 36.2481 778.849 44.6869C774.139 43.5099 768.803 45.5214 766.038 49.5113C763.273 53.5011 763.268 59.2055 766.025 63.2004C759.747 60.3697 751.555 62.8859 747.948 68.7527C744.341 74.6195 745.797 83.0658 751.159 87.3879C742.941 89.171 733.531 85.5744 726.383 90.003C720.197 93.8356 718.52 102.315 719.87 109.465C712.575 106.566 705.366 107.367 697.518 107.18C689.671 106.992 681.26 110.132 677.29 116.905C669.412 108.793 652.859 114.439 651.581 125.673C649.1 119.958 640.644 118 635.906 122.046C631.901 125.465 629.818 132.331 624.555 132.189C622.435 132.131 620.596 130.814 618.691 129.884C610.526 125.886 599.444 129.785 595.579 138.013C592.649 133.787 588.832 130.183 584.444 127.502C577.182 127.864 573.978 139.451 566.729 138.906C563.348 138.652 560.898 135.738 558.123 133.787C549.038 127.403 534.187 133.536 532.251 144.468C527.463 141.531 522.676 138.591 517.888 135.654C513.411 136.663 509.274 139.116 506.238 142.556C502.243 140.722 498.664 137.993 495.838 134.627C493.776 136.09 492.282 138.335 491.729 140.803C489.68 139.421 487.628 138.036 485.578 136.653C466.213 139.55 446.428 139.649 427.032 136.95C424.437 136.59 421.825 136.176 419.21 136.351C416.28 136.547 413.455 137.468 410.634 138.279C404.785 139.961 398.804 141.196 392.767 141.965C381.632 143.385 370.365 143.223 359.142 143.06C349.602 142.921 339.867 142.751 330.858 139.606C323.637 137.087 315.578 132.732 308.938 136.524C306.939 137.665 305.334 139.466 303.213 140.364C298.303 142.439 292.991 139.06 287.936 137.369C282.881 135.677 275.178 137.853 275.939 143.131C265.428 143.078 254.914 143.027 244.403 142.974C236.705 142.936 228.913 142.908 221.436 144.742C213.015 146.807 204.713 151.23 196.17 149.762C188.109 148.374 180.84 141.823 172.807 143.372C170.154 143.885 167.757 145.257 165.418 146.609C155.138 152.547 144.858 158.482 134.578 164.42C127.217 168.671 119.856 172.922 112.498 177.17C108.696 179.367 104.287 183.375 106.286 187.281C97.221 187.636 85.8907 190.061 77.0918 192.272C75.3137 192.719 73.4443 193.264 72.2065 194.619C70.8851 196.067 70.5528 198.149 69.5585 199.836C66.6162 204.84 59.5269 204.721 54.0583 206.664C45.6754 209.639 40.2753 219.293 42.1218 227.993C36.0369 230.088 29.7364 232.31 25.1327 236.81C20.5316 241.31 18.16 248.782 21.4168 254.332C13.1404 259.648 8.32368 269.898 9.51074 279.66C9.72887 281.454 10.1271 283.308 9.60208 285.038C8.79802 287.688 6.13222 289.223 4.14619 291.156C-0.944456 296.114 -1.41877 305.055 3.11893 310.526C4.63826 312.358 6.74348 314.111 6.71812 316.49C6.69529 318.676 4.86147 320.335 3.57295 322.103C-0.399115 327.548 0.564727 335.323 3.72513 341.278C5.1075 343.883 6.88806 346.354 7.4892 349.24C8.20955 352.702 7.13662 356.253 6.84239 359.777C6.5507 363.3 7.41564 367.432 10.5608 369.05C14.2945 370.97 19.0326 367.908 20.4428 363.954C21.8531 360 20.9298 355.637 19.9913 351.546C24.5417 350.346 30.7281 354.135 33.3964 350.26C34.0864 349.258 34.2436 347.992 34.3679 346.78C34.7915 342.643 35.0527 338.491 35.1517 334.333C36.5569 336.048 37.962 337.763 39.3647 339.477C43.7527 337.41 48.9829 338.136 53.5662 336.545C58.1496 334.955 61.7742 328.604 58.0989 325.433C60.2421 331.883 62.3576 339.079 59.5497 345.268C58.1115 348.434 55.5142 350.96 54.0811 354.128C51.2048 360.487 53.7083 368.243 58.3601 373.445C63.0119 378.648 69.4418 381.849 75.7068 384.923C69.7284 386.11 63.8464 388.776 59.9276 393.443C56.0088 398.11 54.4337 404.999 57.0488 410.503C59.6613 416.007 66.9409 419.152 72.3461 416.342C67.7399 421.412 64.3613 428.129 65.1755 434.929C65.9897 441.731 72.1152 448.065 78.9307 447.357C75.1945 457.49 82.9154 470.459 93.6065 471.989C87.6941 476.653 88.1354 486.287 92.5057 492.417C96.876 498.55 103.975 502.03 110.773 505.264C106.048 510.923 106.991 519.773 111.164 525.853C115.336 531.93 122.015 535.77 128.675 538.928C115.285 544.724 112.79 566.179 124.493 574.892C117.817 577.172 113.292 584.541 114.279 591.526C115.265 598.512 121.652 604.338 128.698 604.683C128.503 617.664 124.894 630.577 118.332 641.781C122.497 646.879 130.486 648.343 136.188 645.055C130.961 649.717 132.726 659.708 138.831 663.145C142.836 665.4 148.358 665.289 151.09 668.982C146.956 673.448 145.91 680.51 148.579 685.981C151.245 691.452 157.449 694.98 163.516 694.475C165.307 701.445 165.543 708.811 164.201 715.883C163.516 719.495 162.423 723.165 163.09 726.78C163.757 730.394 166.988 733.894 170.61 733.273C169.284 736.256 167.934 739.337 167.861 742.599C167.79 745.864 169.319 749.389 172.323 750.67C175.326 751.951 179.531 749.848 179.503 746.584C180.401 747.911 181.299 749.237 182.194 750.566C186.098 751.7 190.443 747.525 189.464 743.578C188.967 747.454 193.339 750.914 197.119 749.919C200.898 748.925 203.069 744.291 201.831 740.585C201.852 746.992 208.812 752.388 215.024 750.807C221.235 749.227 224.774 741.166 221.73 735.525C222.356 738.221 224.243 740.596 226.727 741.818C234.929 732.606 231.569 715.837 220.449 710.496C226.067 699.665 218.757 684.408 206.795 682.001C213.36 675.708 210.463 662.717 201.847 659.807C208.69 651.833 208.19 638.59 200.764 631.156C208.888 624.885 209.755 611.247 202.491 604.001C207.896 604.817 213.666 602.372 216.84 597.923C220.013 593.472 220.444 587.222 217.912 582.377C221.707 583.039 225.758 583.481 229.606 583.278C230.919 583.209 232.355 583.032 233.268 582.083C234.257 581.051 234.298 579.455 234.194 578.027C233.93 574.4 233.111 570.816 231.777 567.433C234.153 567.443 236.472 568.151 238.841 568.341C241.21 568.528 243.848 568.067 245.364 566.238C246.392 565 246.737 563.344 246.935 561.749C247.394 558.076 247.267 554.329 246.554 550.697C250.957 551.326 255.695 551.904 259.65 549.868C263.604 547.831 265.864 542.033 262.808 538.804C266.255 539.276 269.752 539.367 273.22 539.08C274.891 538.943 276.634 538.684 277.983 537.69C279.563 536.526 280.324 534.55 280.71 532.625C281.534 528.503 280.966 524.115 279.117 520.339C283.282 521.827 288.081 522.01 292.015 519.983C295.946 517.957 298.708 513.439 297.907 509.087C304.672 510.857 311.624 511.905 318.609 512.206C320.567 512.29 322.604 512.303 324.392 511.494C326.178 510.685 327.639 508.831 327.37 506.888C327.449 510.586 330.673 514.34 334.269 515.207C337.866 516.072 341.934 514.256 343.687 510.999C345.135 516.473 349.166 521.203 354.343 523.499C355.735 522.094 357.125 520.686 358.518 519.281C359.028 526.413 369.419 530.345 374.523 525.335C375.071 529.619 376.062 533.99 378.583 537.498C381.105 541.005 385.46 543.473 389.708 542.69C393.234 542.04 396.001 539.39 398.543 536.863C401.069 540.224 403.864 543.783 407.887 545.008C411.91 546.233 417.272 543.669 417.163 539.466C419.704 542.723 423.22 545.208 427.139 546.52C428.742 547.057 430.565 547.382 432.075 546.624C433.584 545.863 434.375 543.615 433.18 542.421C435.065 549.705 446.484 551.904 450.938 545.842C454.01 553.025 465.348 554.616 470.276 548.554C474.606 551.382 479.514 553.822 484.683 553.586C489.852 553.35 495.153 549.601 495.524 544.442C499.683 546.971 504.046 549.566 508.898 549.946C513.753 550.327 519.211 547.735 520.399 543.012C524.921 548.696 534.029 550.005 539.97 545.825C541.809 544.531 543.564 542.723 545.814 542.718C547.376 542.712 548.776 543.605 550.131 544.384C554.011 546.616 558.6 548.166 562.945 547.088C567.287 546.007 570.955 541.508 569.824 537.178C575.072 538.393 579.069 542.644 584.043 544.719C589.017 546.791 596.603 544.901 596.705 539.514C598.31 547.567 607.256 553.348 615.259 551.504C614.356 559.078 621.8 566.453 629.367 565.485C624.773 571.991 628.337 582.54 635.933 584.931C630.475 590.032 629.455 599.214 633.658 605.39C630.221 610.058 626.838 615.118 626.26 620.883C625.684 626.648 628.923 633.208 634.602 634.367C638.419 635.145 642.637 633.111 644.405 629.639C646.173 626.164 645.331 621.558 642.452 618.932C647.388 623.572 654.543 626.486 661.022 624.51C667.5 622.534 671.984 614.43 668.661 608.528C673.935 610.529 680.004 606.938 682.726 601.997C685.445 597.056 685.66 591.171 685.81 585.533C689.572 586.111 693.108 590.877 696.648 589.477C700.187 588.077 702.954 583.963 701.498 580.445C705.81 581.667 710.761 580.242 713.762 576.911C716.762 573.581 717.665 568.508 716.001 564.346C720.833 564.328 725.899 563.245 729.508 560.031C733.117 556.818 734.741 551.075 732.204 546.961C736.823 548.676 742.398 547.425 745.843 543.905C749.287 540.384 750.416 534.784 748.6 530.203C754.086 530.847 759.961 531.128 764.808 528.48C769.655 525.832 772.711 519.212 769.733 514.561C778.461 517.145 788.394 508.481 787.017 499.481C791.613 501.625 796.98 503.045 801.71 501.219C806.441 499.393 809.594 493.171 806.738 488.98C811.115 490.309 816.206 489.513 819.64 486.49C823.075 483.466 824.485 478.173 822.557 474.025C827.511 477.166 837.383 473.079 839.384 467.558Z" fill="url(#paint10_linear_4172_276543)"/>
<path d="M906.872 242.702C910.849 239.516 912.873 234.063 911.937 229.053C911.001 224.044 907.661 216.914 902.804 215.379C904.757 212.313 904.965 208.211 903.336 204.962C901.708 201.713 898.299 199.425 894.674 199.151C897.929 196.287 899.62 191.742 899.029 187.445C898.438 183.149 895.582 179.232 891.674 177.353C890.915 176.988 890.058 176.635 889.695 175.877C889.147 174.735 890.025 173.472 890.484 172.29C891.458 169.789 890.388 166.776 888.308 165.079C886.652 163.727 884.485 163.167 882.332 163.2C882.327 163.205 882.327 163.21 882.322 163.212C876.901 168.123 877.586 176.835 883.585 180.98C884.673 181.733 884.191 183.197 882.946 183.344C880.435 183.636 877.754 184.506 876.348 186.761C875.21 188.587 875.101 190.86 875.342 192.945C875.9 197.799 878.248 202.545 881.003 206.517C881.568 207.334 880.81 208.417 879.907 208.424C877.449 208.45 874.509 208.934 873.363 211.422C872.394 213.523 872.869 216.084 873.498 218.207C874.89 222.905 877.934 228.32 882.068 231.143C882.951 231.744 882.865 233.147 881.766 233.462C875.357 235.298 869.226 239.77 866.048 245.705C864.678 248.264 863.912 251.275 864.592 254.156C865.459 257.827 868.313 260.424 871.428 262.306C872.323 262.849 872.219 264.378 871.126 264.624C864.912 266.012 856.869 267.95 855.291 275.141C854.941 276.736 852.496 276.056 852.846 274.466C852.853 274.43 852.871 274.402 852.879 274.367C852.513 274.098 852.293 273.652 852.465 273.083C853.64 269.18 854.85 263.813 850.398 261.606C846.941 259.889 842.751 259.886 839.068 258.877C835.791 257.979 831.431 256.087 830.302 252.546C828.76 247.711 831.535 242.451 830.37 237.545C829.762 234.983 827.25 233.132 825.259 231.62C822.817 229.763 820.204 228.148 817.703 226.377C815.999 225.17 814.617 224.001 813.45 222.271C812.392 220.701 811.377 219.103 810.36 217.507C804.861 208.891 799.304 200.171 792.222 192.744C786.817 187.075 779.276 180.907 771.099 182.304C773.402 184.29 775.246 186.857 777.95 188.308C778.531 188.62 778.771 189.485 778.404 190.043C777.054 192.09 774.272 195.735 775.847 198.322C776.519 199.428 777.739 200.173 778.82 200.825C780.511 201.842 782.295 202.705 784.06 203.585C784.651 203.879 784.874 204.774 784.514 205.32C782.447 208.47 780.349 212.521 781.354 216.409C782.366 220.328 786.292 222.258 789.866 223.316C790.675 223.554 791.01 224.45 790.624 225.178C789.622 227.067 788.03 228.442 786.807 230.131C789.006 231.262 790.936 232.926 792.798 234.514C795.144 236.518 797.594 239.055 800.56 240.12C801.569 240.483 801.84 241.84 800.861 242.438C797.764 244.328 795.172 246.95 793.189 249.982C790.728 253.746 787.91 259.775 789.752 264.343C791.903 269.685 799.705 265.023 802.637 263.161C803.953 262.324 805.006 264.112 804.174 265.152C798.333 272.454 792.491 279.754 786.65 287.057C793.579 293.735 804.047 301.215 813.072 293.913C814.335 292.891 815.935 294.448 814.865 295.706C812.821 298.11 811.071 300.766 809.604 303.561C807.248 308.043 805.161 313.545 805.957 318.696C806.67 323.295 810.074 325.682 814.145 326.663C814.206 326.501 814.259 326.334 814.322 326.174C814.916 324.67 817.369 325.329 816.767 326.848C816.734 326.932 816.707 327.018 816.674 327.102C816.79 327.115 816.904 327.138 817.024 327.148C818.642 327.285 818.649 329.824 817.024 329.684C816.618 329.649 816.209 329.605 815.801 329.552C814.165 334.546 813.343 339.914 814.175 345.108C815.187 351.416 818.807 356.436 824.618 359.147C825.807 359.703 825.158 361.499 823.979 361.511C821.062 361.539 817.853 362.041 815.717 364.218C814.086 365.879 813.551 368.195 813.663 370.463C813.934 376.048 817.696 381.384 822.211 384.448C822.824 384.867 823.139 385.884 822.467 386.439C819.664 388.758 817.206 391.469 815.233 394.531C812.105 399.383 809.894 405.351 810.683 411.2C811.532 417.511 816.154 421.869 821.906 424.078C823.405 424.654 822.794 427.061 821.232 426.523C817.883 425.369 813.63 424.04 810.13 425.379C805.589 427.117 806.132 433.163 806.982 436.986C808.212 442.508 810.779 447.895 814.231 452.372C814.842 453.163 814.005 454.279 813.135 454.279C810.424 454.279 807.712 454.294 805.006 454.447C800.237 454.713 794.723 455.147 790.614 457.835C785.863 460.942 787.73 466.373 790.135 470.441C790.538 471.121 790.178 472.121 789.376 472.303C785.955 473.09 782.637 474.337 779.855 476.526C777.536 478.35 775.702 480.689 774.104 483.149C773.275 484.427 772.499 485.739 771.735 487.058C770.924 488.458 770.635 489.498 770.695 491.124C770.794 493.789 771.718 496.567 771.286 499.233C770.858 501.883 768.869 503.636 766.888 505.234C765.775 506.132 764.58 507.05 763.926 508.354C763.17 509.863 762.526 511.451 761.818 512.985C759.172 518.73 756.565 524.531 754.873 530.641C758.353 530.647 761.777 530.136 764.803 528.483C769.65 525.835 772.707 519.215 769.729 514.563C778.457 517.148 788.39 508.483 787.012 499.484C791.608 501.627 796.976 503.047 801.706 501.221C806.436 499.395 809.589 493.173 806.733 488.983C811.111 490.312 816.202 489.516 819.636 486.492C823.07 483.469 824.481 478.175 822.553 474.028C827.514 477.168 837.386 473.079 839.387 467.56C842.786 468.559 846.743 467.238 848.861 464.397C850.979 461.556 851.116 457.386 849.186 454.414C855.022 453.097 858.149 445.179 854.786 440.23C858.923 441.006 862.768 437.031 863.311 432.856C863.854 428.684 862.005 424.585 859.902 420.94C863.448 420.23 866.459 417.331 867.301 413.813C868.143 410.295 866.771 406.345 863.93 404.108C867.134 403.827 869.442 400.618 869.822 397.425C870.203 394.232 869.13 391.066 868.07 388.03L873.246 385.77C873.551 378.244 873.429 370.698 872.881 363.185C877.944 363.084 882.872 360.261 885.52 355.944C888.168 351.627 889.381 343.974 887.177 339.414C892.868 334.361 895.737 326.313 894.525 318.8C898.301 318.765 901.269 315.158 901.921 311.439C902.573 307.721 901.487 303.942 900.412 300.322C905.832 296.634 908.569 289.925 909.02 283.386C909.472 276.847 907.95 270.349 906.441 263.97C911.45 265.035 916.094 259.612 915.704 254.504C915.313 249.395 911.339 245.205 906.872 242.702Z" fill="url(#paint11_linear_4172_276543)"/>
<path d="M58.941 331.53C58.6417 331.469 58.3602 331.286 58.1649 330.939C55.3849 326.018 54.5403 320.116 54.3602 314.541C54.2841 312.22 54.591 310.069 55.5803 307.949C56.4452 306.09 57.7464 304.514 58.9157 302.845C59.9531 301.369 61.0869 299.589 60.8992 297.699C60.6861 295.538 59.357 293.466 58.3424 291.601C57.2568 289.605 56.0875 287.578 55.4484 285.382C54.7534 282.985 54.9461 280.304 55.357 277.874C56.2245 272.715 58.9157 268.124 62.0482 264.015C62.0051 259.964 61.5713 255.901 61.8605 251.853C62.1572 247.701 63.3646 243.881 65.4774 240.294C68.9549 234.387 74.1419 229.938 79.6308 225.968C75.6207 225.92 71.6765 226.714 68.1534 228.837C64.4603 231.064 61.6221 234.427 59.4078 238.082C58.2004 240.076 57.1503 242.166 56.227 244.307C55.5295 245.925 55.4661 247.789 54.4389 249.243C53.0311 251.239 51.248 252.705 49.2746 254.113C46.936 255.779 44.8612 257.638 42.9259 259.764C41.2367 261.621 39.7173 263.766 39.0858 266.229C38.3578 269.06 39.0731 271.82 40.425 274.341C40.7598 274.965 40.5645 275.7 39.971 276.076C35.692 278.785 31.3318 281.828 28.5291 286.145C25.7288 290.46 24.9146 295.551 24.7371 300.606C24.7067 301.471 23.9533 301.993 23.1315 301.828C15.7277 300.344 6.47471 302.176 1.54894 308.06C1.98521 308.933 2.49756 309.767 3.12659 310.526C4.64592 312.357 6.75119 314.11 6.72582 316.489C6.70299 318.675 4.86913 320.334 3.58062 322.102C-0.39145 327.548 0.572392 335.322 3.7328 341.277C5.11516 343.882 6.89577 346.353 7.4969 349.239C8.21725 352.702 7.14433 356.253 6.8501 359.776C6.55841 363.299 7.42334 367.431 10.5685 369.049C14.3022 370.969 19.0402 367.908 20.4505 363.953C21.8608 359.999 20.9375 355.636 19.999 351.545C24.5494 350.345 30.7358 354.135 33.4041 350.259C34.094 349.257 34.2513 347.991 34.3756 346.779C34.7992 342.642 35.0604 338.49 35.1593 334.333C36.5645 336.047 37.9697 337.762 39.3724 339.477C43.7604 337.409 48.9906 338.135 53.5739 336.545C55.8846 335.746 57.929 333.732 58.941 331.53Z" fill="url(#paint12_linear_4172_276543)"/>
<path d="M623.944 545.192C623.787 544.353 623.188 543.793 622.724 543.095C621.57 541.358 620.698 539.341 619.901 537.418C618.27 533.492 617.908 529.228 618.864 525.086C619.366 522.91 620.124 520.723 620.261 518.481C620.383 516.485 619.409 514.842 618.204 513.322C615.589 510.02 612.647 507.308 611.795 502.994C610.935 498.651 611.526 493.906 613.446 489.913C614.326 488.082 615.658 486.758 617.213 485.485C618.61 484.341 620.634 483.143 621.454 481.469C622.214 479.91 620.913 477.855 620.167 476.513C619.206 474.786 618.077 473.145 617.207 471.367C615.868 468.625 615.485 465.376 615.658 462.198C614.255 464.407 612.967 466.692 611.579 468.917C610.59 470.504 609.649 472.412 608.048 473.485C603.955 476.232 597.811 473.677 593.941 476.944C592.563 478.106 591.785 479.93 590.681 481.333C589.048 483.41 586.854 485.424 584.345 486.355C579.668 488.087 576.305 483.765 572.338 482.182C566.055 479.674 560.325 484.323 555.057 487.176C552.828 488.384 550.289 489.622 547.686 489.543C545.282 489.472 543.113 488.298 541.18 486.956C537.211 484.201 532.881 479.861 527.699 482.459C523.263 484.683 520.475 490.981 514.844 490.591C511.795 490.38 509.102 488.32 506.662 486.677C504.229 485.038 501.726 483.704 498.867 482.966C497.188 482.532 495.38 482.378 493.957 483.539C492.059 485.089 491.118 487.823 490.297 490.03C490.02 490.773 489.183 491.247 488.435 490.788C483.537 487.79 478.807 482.497 472.823 481.878C470.406 481.629 468.94 482.827 466.89 483.816C465.335 484.567 463.621 484.901 461.899 484.884C458.452 484.848 455.002 483.922 451.651 483.199C447.897 482.39 444.062 481.525 440.199 481.586C437.201 481.634 434.125 482.484 432.699 485.277C432.735 485.809 432.775 486.339 432.757 486.892C432.704 488.523 430.168 488.526 430.221 486.892C430.229 486.631 430.196 486.403 430.19 486.149C429.942 485.883 429.823 485.515 430.015 485.051C430.051 484.965 430.099 484.896 430.137 484.813C428.937 474.608 416.019 473.259 407.39 474.304C406.652 474.393 406.191 473.652 406.122 473.036C405.513 467.494 405.364 460.531 401.716 455.976C399.482 453.186 395.847 452.902 392.54 453.089C389.108 453.282 385.775 453.69 382.348 453.17C381.788 453.087 381.445 452.45 381.417 451.948C381.108 446.215 380.598 440.141 377.818 434.994C375.441 430.599 370.749 426.457 365.679 425.642C362.239 425.09 354.163 425.63 354.589 420.197C354.686 418.977 355.107 417.807 355.221 416.592C355.345 415.258 354.597 414.444 353.798 413.427C351.913 411.03 349.618 408.983 347.261 407.06C344.517 404.826 341.681 402.698 338.995 400.41C340.73 409.272 337.666 426.018 326.678 426.208C328.946 432.501 331.548 439.032 331.457 445.774C331.355 453.328 326.787 458.72 320.431 462.144C322.379 466.624 324.634 471.727 323.579 476.61C322.43 481.926 317.154 485.135 312.588 487.489C314.425 492.057 315.525 497.444 312.756 501.842C309.895 506.382 304.355 507.935 299.287 508.531C299.044 508.759 298.813 508.998 298.577 509.236C305.136 510.905 311.863 511.912 318.625 512.204C320.583 512.287 322.62 512.3 324.408 511.491C326.194 510.682 327.655 508.828 327.386 506.885C327.465 510.583 330.688 514.337 334.285 515.204C337.882 516.069 341.95 514.253 343.703 510.996C345.151 516.47 349.182 521.2 354.358 523.496C355.751 522.091 357.141 520.683 358.533 519.278C359.043 526.41 369.435 530.342 374.538 525.332C375.086 529.616 376.078 533.989 378.599 537.497C381.12 541.005 385.476 543.473 389.724 542.689C393.25 542.04 396.017 539.392 398.558 536.863C401.085 540.226 403.88 543.782 407.903 545.007C411.926 546.232 417.288 543.668 417.179 539.465C419.72 542.722 423.236 545.21 427.154 546.519C428.757 547.057 430.581 547.382 432.09 546.623C433.085 546.121 433.754 544.977 433.762 543.912C436.709 549.971 446.822 551.465 450.954 545.839C454.025 553.022 465.363 554.613 470.292 548.551C474.621 551.379 479.529 553.819 484.699 553.583C489.865 553.347 495.169 549.598 495.539 544.439C499.699 546.968 504.062 549.563 508.914 549.943C513.769 550.324 519.227 547.732 520.414 543.009C524.937 548.693 534.045 550.002 539.985 545.822C541.824 544.528 543.58 542.72 545.829 542.715C547.392 542.709 548.792 543.602 550.146 544.381C554.027 546.613 558.616 548.163 562.961 547.085C567.303 546.004 570.971 541.504 569.839 537.175C575.087 538.39 579.085 542.641 584.059 544.716C589.033 546.788 596.619 544.898 596.721 539.511C598.326 547.564 607.272 553.345 615.275 551.501C614.463 558.306 620.396 564.934 627.097 565.507C620.898 561.21 625.124 551.478 623.944 545.192Z" fill="url(#paint13_linear_4172_276543)"/>
<path d="M991.221 200.477C979.886 201.713 962.179 201.875 943.135 194.154C937.951 192.051 933.37 189.649 929.373 187.199C940.33 193.566 952.987 195.848 965.491 196.432C971.833 196.736 978.174 196.609 984.515 196.33C986.798 196.254 989.106 195.798 991.211 196.381C991.214 197.748 991.216 199.113 991.221 200.477Z" fill="#673219"/>
<path d="M966.968 161.472C965.915 160.985 964.89 160.399 964.076 159.577C962.544 158.033 961.91 155.841 960.845 153.944C959.779 152.047 957.852 150.264 955.708 150.631C954.128 153.84 954.864 157.908 957.103 160.696C959.343 163.483 962.879 165.049 966.443 165.363C968.883 165.581 973.534 165.629 975.039 163.471C972.264 163.08 969.557 162.672 966.968 161.472Z" fill="#673219"/>
<path d="M879.538 92.3267C878.815 91.094 878.074 89.8385 877.014 88.8772C874.128 86.257 869.747 86.4447 865.864 86.7871C863.056 87.0356 860.248 87.2842 857.44 87.5328C855.109 87.7383 852.581 88.0324 850.907 89.6684C849.598 90.9468 849.073 92.8036 848.598 94.5715C848.431 95.2005 848.261 95.8701 848.461 96.489C848.809 97.5695 850.075 98.0108 851.183 98.2619C857.238 99.6341 863.563 99.8016 869.681 98.7541C871.223 98.4903 872.776 98.1478 874.336 98.2543C877.456 98.4674 880.177 100.438 882.404 102.632C883.954 104.159 885.605 107.109 887.896 106.698C885.422 101.777 882.328 97.0825 879.538 92.3267Z" fill="#673219"/>
<path d="M802.738 76.1363C790.911 76.4052 783.499 82.2517 775.897 88.2504C773.201 90.3785 770.784 92.7069 770.693 95.7684C770.604 98.7411 772.75 101.13 774.741 102.997C780.727 108.608 790.401 117.678 805.828 117.818C817.655 117.924 826.335 112.722 829.959 110.226C830.781 108.544 834.626 100.227 831.083 91.2434C829.553 87.3626 827.184 84.7222 825.505 83.1699C822.578 81.1078 814.292 75.8751 802.738 76.1363Z" fill="#F1ECE0"/>
<path d="M825.781 88.3344C818.542 81.5849 804.399 81.1487 793.558 86.1531C790.591 87.5227 785.888 90.2139 781.368 95.5201C786.712 103.183 795.263 108.537 804.49 109.998C806.862 110.374 809.269 110.503 811.669 110.541C814.743 110.589 817.87 110.478 820.782 109.493C823.694 108.509 826.393 106.533 827.628 103.718C828.232 102.338 830.474 99.2258 829.86 95.2436C829.309 91.6875 826.938 89.4149 825.781 88.3344Z" fill="url(#paint14_linear_4172_276543)"/>
<path d="M684.073 783.876C670.452 787.249 655.791 786.26 642.754 781.086C644.682 778.448 646.66 775.86 648.715 773.324C651.276 770.128 653.965 767.008 657.237 764.573C661.574 761.377 666.622 759.602 671.619 757.75C671.644 757.775 671.669 757.826 671.695 757.852C676.717 766.146 683.109 774.212 684.073 783.876Z" fill="#CDB98C"/>
<path d="M272.611 832.245C260.943 833.665 249.174 834.223 237.456 833.919C231.394 833.742 224.698 833.006 219.498 830.216C222.161 821.389 226.803 813.069 232.713 805.967C236.67 801.224 243.721 794.224 251.838 788.035C253.765 791.155 255.693 794.3 257.621 797.496C264.165 808.326 270.049 819.74 272.611 832.245Z" fill="#CDB98C"/>
<path d="M863.8 90.0178C862.552 90.3958 860.804 91.1973 860.896 91.7604C861.03 92.5923 865.103 92.5441 865.93 92.534C867.8 92.5112 872.84 92.2676 872.9 91.3723C872.961 90.4845 868.102 88.7166 863.8 90.0178Z" fill="white"/>
<defs>
<linearGradient id="paint0_linear_4172_276543" x1="-138.173" y1="435.93" x2="181.702" y2="853.491" gradientUnits="userSpaceOnUse">
<stop offset="0.0012" stop-color="#673219"/>
<stop offset="1" stop-color="#673219" stop-opacity="0"/>
</linearGradient>
<linearGradient id="paint1_linear_4172_276543" x1="383.841" y1="357.671" x2="753.724" y2="735.692" gradientUnits="userSpaceOnUse">
<stop offset="0.0012" stop-color="#673219"/>
<stop offset="1" stop-color="#673219" stop-opacity="0"/>
</linearGradient>
<linearGradient id="paint2_linear_4172_276543" x1="410.272" y1="153.412" x2="786.355" y2="701.419" gradientUnits="userSpaceOnUse">
<stop offset="0.0012" stop-color="#673219"/>
<stop offset="1" stop-color="#673219" stop-opacity="0"/>
</linearGradient>
<linearGradient id="paint3_linear_4172_276543" x1="636.638" y1="25.0851" x2="-11.6411" y2="730.326" gradientUnits="userSpaceOnUse">
<stop offset="0.0012" stop-color="#673219"/>
<stop offset="1" stop-color="#673219" stop-opacity="0"/>
</linearGradient>
<linearGradient id="paint4_linear_4172_276543" x1="131.203" y1="665.222" x2="124.044" y2="673.01" gradientUnits="userSpaceOnUse">
<stop offset="0.0012" stop-color="#673219"/>
<stop offset="1" stop-color="#673219" stop-opacity="0"/>
</linearGradient>
<linearGradient id="paint5_linear_4172_276543" x1="154.966" y1="700.918" x2="152.096" y2="704.04" gradientUnits="userSpaceOnUse">
<stop offset="0.0012" stop-color="#673219"/>
<stop offset="1" stop-color="#673219" stop-opacity="0"/>
</linearGradient>
<linearGradient id="paint6_linear_4172_276543" x1="448.318" y1="211.74" x2="44.3998" y2="651.149" gradientUnits="userSpaceOnUse">
<stop offset="0.0012" stop-color="#673219"/>
<stop offset="1" stop-color="#673219" stop-opacity="0"/>
</linearGradient>
<linearGradient id="paint7_linear_4172_276543" x1="813.368" y1="77.9645" x2="1000.01" y2="81.5637" gradientUnits="userSpaceOnUse">
<stop offset="0.0012" stop-color="#673219"/>
<stop offset="1" stop-color="#673219" stop-opacity="0"/>
</linearGradient>
<linearGradient id="paint8_linear_4172_276543" x1="964.977" y1="82.0602" x2="1044.38" y2="71.7035" gradientUnits="userSpaceOnUse">
<stop offset="0.0012" stop-color="#673219"/>
<stop offset="1" stop-color="#673219" stop-opacity="0"/>
</linearGradient>
<linearGradient id="paint9_linear_4172_276543" x1="1235.87" y1="157.363" x2="774.22" y2="270.513" gradientUnits="userSpaceOnUse">
<stop offset="0.0012" stop-color="#673219"/>
<stop offset="1" stop-color="#673219" stop-opacity="0"/>
</linearGradient>
<linearGradient id="paint10_linear_4172_276543" x1="451.226" y1="4057.79" x2="479.581" y2="144.718" gradientUnits="userSpaceOnUse">
<stop offset="0.0012" stop-color="#673219"/>
<stop offset="1" stop-color="#673219" stop-opacity="0"/>
</linearGradient>
<linearGradient id="paint11_linear_4172_276543" x1="1280.81" y1="1232.71" x2="744.926" y2="199.436" gradientUnits="userSpaceOnUse">
<stop offset="0.0012" stop-color="#673219"/>
<stop offset="1" stop-color="#673219" stop-opacity="0"/>
</linearGradient>
<linearGradient id="paint12_linear_4172_276543" x1="668.016" y1="457.548" x2="-111.086" y2="257.467" gradientUnits="userSpaceOnUse">
<stop offset="0.0012" stop-color="#673219"/>
<stop offset="1" stop-color="#673219" stop-opacity="0"/>
</linearGradient>
<linearGradient id="paint13_linear_4172_276543" x1="560.679" y1="1649.5" x2="440.249" y2="266.505" gradientUnits="userSpaceOnUse">
<stop offset="0.0012" stop-color="#673219"/>
<stop offset="1" stop-color="#673219" stop-opacity="0"/>
</linearGradient>
<linearGradient id="paint14_linear_4172_276543" x1="832.004" y1="97.0793" x2="772.931" y2="95.9287" gradientUnits="userSpaceOnUse">
<stop offset="0.0012" stop-color="#673219"/>
<stop offset="1" stop-color="#673219" stop-opacity="0"/>
</linearGradient>
</defs>
</svg>
