<svg width="360" height="378" viewBox="0 0 360 378" fill="none" xmlns="http://www.w3.org/2000/svg">
<g clip-path="url(#clip0_3881_257113)">
<path d="M305.8 377.9C305.8 377.9 304.3 364.7 302 352.9C300.5 345.2 299.6 342.2 297.9 335.1C293.7 317.4 289.9 307.6 291.1 295.2C292.5 280.2 291.9 265.3 290 257.5C288.1 249.7 287.3 250.3 290.3 234.5C293.3 218.7 287.3 201.2 278 184.6C268.7 168 248.7 167.7 243.5 163.8C238.3 159.9 228.2 157.7 218.6 152.2C209 146.7 202.7 145 202.7 141.1C202.7 137.2 202.4 127 206.3 118.7C210.1 110.4 210.1 102.1 210.1 102.1C214.2 104.3 214.5 100.4 218 93C221.6 85.5 222.7 80.5 221.8 76.6C221 72.7 217.4 73.3 217.4 73.3C217.4 73.3 223.7 49.2 211.4 33.7C201.6 21.3 186.7 19 181.1 18.6V18.4C181.1 18.4 180.7 18.4 180 18.4C179.3 18.4 178.9 18.4 178.9 18.4V18.5C173.3 18.9 158.4 21.3 148.6 33.6C136.3 49.1 142.6 73.2 142.6 73.2C142.6 73.2 139 72.6 138.2 76.5C137.4 80.4 138.5 85.4 142 92.9C145.6 100.4 145.8 104.3 149.9 102C149.9 102 149.9 110.3 153.7 118.6C157.5 126.9 157.3 137.2 157.3 141C157.3 144.9 151 146.5 141.4 152.1C131.8 157.6 121.7 159.9 116.5 163.7C111.3 167.6 91.2999 167.8 82 184.5C72.7 201.1 66.6999 218.6 69.6999 234.4C72.6999 250.2 71.9 249.6 70 257.4C68.1 265.2 67.5 280.1 68.9 295.1C70.3 310.1 66.1999 323.1 62.0999 335C59.4999 342.6 58.2 346.3 56.7 354.7C54.9 365 54.2 377.8 54.2 377.8L96.4 378C96.4 378 98 369.6 98.0999 368.8C99.6999 360 100.9 344.7 102.8 322.9C103.2 318.8 102.7 324.4 106.8 298.5C107.4 294.6 107.9 291.8 108.9 291.7C111.5 291.4 115.2 308.4 115.6 310.2C118.2 322.1 120.2 331.6 118.4 343.8C117.2 351.7 113.8 365 113 372C113 372.1 112.3 378 112.3 378H247.3C247.3 378 246.2 369.1 246.1 368C244 350.9 241.3 345.9 241 334.1C240.8 324.1 242.5 316.6 244.4 308.6C245.6 303.6 248.4 291.6 250.8 291.8C252.1 291.9 252.8 295.3 255.1 310.2C256.8 321.4 257.6 327 258.1 331.8C260 349.2 260 357.9 261.8 368.4C262 369.4 263.4 378.1 263.4 378.1C263.5 378 305.8 377.9 305.8 377.9Z" fill="#FCD4C5"/>
</g>
<path fill-rule="evenodd" clip-rule="evenodd" d="M138.665 264.517C138.046 263.5 137.573 262.724 137.1 261.7C136 259.3 135.5 256.6 135 253.4L135 253.4C134.9 252.9 134.7 251.9 134.7 250.6V249.4C134.713 249.153 134.725 248.91 134.737 248.673C134.915 245.156 135.044 242.604 135.7 239.7C136.2 237.6 136.7 235.7 137.8 233.3C139.5 229.8 141.6 227.6 142.9 226.3C144.9 224.2 148.7 220.5 154.8 219C156.1 218.6 157.4 218.3 158.8 218.3C158.8 218.3 159.7 218.3 160.6 218.4C162.8 218.7 165.8 219.8 168.4 222.2C169.2 222.9 171.4 225 172.5 228.4C172.99 229.968 173.096 231.345 173.288 233.847L173.3 234C173.304 234.048 173.309 234.096 173.313 234.143C173.408 235.189 173.5 236.191 173.5 238.2C173.5 239.251 173.514 240.118 173.526 240.877C173.547 242.14 173.562 243.1 173.5 244.1C173.5 244.431 173.483 244.831 173.463 245.3C173.434 245.963 173.4 246.763 173.4 247.7C173.4 248.129 173.429 248.5 173.455 248.845C173.478 249.143 173.5 249.422 173.5 249.7C173.524 249.994 173.543 250.258 173.56 250.5C173.612 251.243 173.649 251.772 173.8 252.3C173.958 253.09 174.303 253.631 174.836 254.464C174.978 254.686 175.132 254.927 175.3 255.2C175.9 256.2 176.8 257.5 178.3 259C178.757 259.419 179.083 259.678 179.39 259.922C179.888 260.317 180.333 260.671 181.2 261.6L181.2 261.6C181.7 262.1 182.4 262.8 183 263.8C183.4 264.5 183.7 265.1 183.8 265.3C183.9 265.4 184.1 265.8 184.4 266.8C184.57 267.367 184.644 267.709 184.712 268.027C184.764 268.269 184.813 268.497 184.9 268.8C185.2 269.7 185.4 270.2 185.9 271.4C186.059 271.772 186.247 272.172 186.448 272.6C186.625 272.978 186.812 273.378 187 273.8C187.052 273.904 187.107 274.015 187.166 274.134C187.673 275.158 188.445 276.718 189.7 278.6C190.5 279.699 191.099 280.499 191.4 280.899L191.4 280.9C191.607 281.107 191.883 281.434 192.206 281.818C192.663 282.36 193.214 283.014 193.8 283.6L194.7 284.5L195.5 285.3C195.5 285.3 196 285.8 196.4 286.3C196.539 286.495 196.733 286.753 196.971 287.068C197.585 287.884 198.491 289.086 199.5 290.6C199.508 290.617 199.522 290.643 199.54 290.678C199.733 291.053 200.425 292.402 200.7 293.5L200.7 293.5C200.8 293.9 200.9 294.3 200.8 294.8C200.8 295 200.8 295.2 200.7 295.4C200.7 295.5 200.6 295.8 200.3 296.1C199.8 296.7 199 296.9 197.3 297.1C196.921 297.134 196.59 297.169 196.298 297.199C195.742 297.257 195.328 297.3 195 297.3C194.312 297.338 193.741 297.376 193.254 297.409C192.465 297.462 191.894 297.5 191.4 297.5H191.4C190 297.5 188.9 297.5 187.4 297.2C187.1 297.2 186 296.9 184.7 296.4C183.9 296.1 183.2 295.8 182.4 295.3C181.5 294.7 180.9 294.1 180.9 294.1C180.8 294 180.6 293.8 180.3 293.6C180.137 293.437 179.973 293.34 179.647 293.147C179.573 293.103 179.492 293.055 179.4 293C179.209 292.885 179.047 292.785 178.909 292.7C178.685 292.562 178.524 292.462 178.4 292.4C176.9 291.6 174.6 290.6 174.6 290.6C173.9 290.3 172 289.6 169.6 288.8C168.1 288.3 167.4 288.1 166.5 287.9C166.384 287.861 166.192 287.822 165.942 287.772C165.549 287.692 165.012 287.584 164.4 287.4C164.171 287.324 163.971 287.262 163.8 287.209C163.524 287.124 163.324 287.062 163.2 287C163.2 287 162.8 286.9 162.3 286.7C160.5 286 158.7 284.8 158.7 284.8C158 284.4 156.5 283.4 153 280.4C152.584 280.044 152.222 279.741 151.891 279.464C151.108 278.809 150.503 278.303 149.8 277.6C147.3 275.3 145.5 273.3 144.1 271.7C141.7 269 140.3 267.1 139.2 265.4C139.009 265.082 138.832 264.791 138.665 264.517ZM139 237.1C139 237.1 139.1 236.2 139.2 235.4C139.3 234.8 139.9 232.5 141.6 230C142.2 229.1 142.7 228.5 143.1 228.1C143.1 228.1 144.2 226.8 145.5 225.6C145.539 225.565 145.579 225.53 145.618 225.495C147.392 223.917 149.468 222.072 152.5 220.8C153.9 220.2 157.7 218.7 162.1 219.8C163.1 220 165.5 220.7 167.8 222.8C170.2 225.1 171 227.7 171.4 229.1C171.9 231 171.9 233.3 171.8 237.7C171.724 239.914 171.618 241.4 171.533 242.591C171.397 244.519 171.314 245.674 171.5 247.9C171.5 247.9 171.6 248.7 171.9 252.6C171.941 252.682 172.502 253.452 173.274 254.512C174.387 256.038 175.937 258.165 177 259.7C177.076 259.815 177.138 259.9 177.191 259.973C177.276 260.091 177.338 260.176 177.4 260.3C177.563 260.549 177.723 260.791 177.878 261.027C179.911 264.115 181.278 266.192 182.3 268.7C182.624 269.402 182.715 269.696 182.84 270.101C182.946 270.446 183.078 270.872 183.4 271.7C183.506 271.982 183.618 272.295 183.74 272.635C184.659 275.193 186.122 279.269 189.3 282.8C190.404 284.021 191.374 285.343 192.345 286.668C193.045 287.622 193.746 288.579 194.5 289.5C195.3 290.5 196.4 291.9 196 293C196 293.2 195.6 293.9 194.2 294.2C190.2 295.2 183.5 292.5 181.8 291.8C178.089 290.287 175.481 289.163 173.462 288.293C169.878 286.748 168.151 286.004 165.4 285.3C164.9 285.2 163.9 284.9 162.5 284.4C158.7 282.9 156 280.9 154.6 279.5C153.6 278.6 153 278 152.6 277.3C152.5 277.1 152.3 276.7 151.8 276.2C151.653 275.979 151.451 275.812 151.315 275.7C151.267 275.66 151.226 275.626 151.2 275.6C150.619 275.084 150.028 274.619 149.443 274.16C148.215 273.196 147.016 272.255 146 270.9C145.706 270.488 145.481 270.111 145.325 269.849C145.216 269.667 145.141 269.541 145.1 269.5C144.765 268.886 144.586 268.397 144.389 267.859C144.233 267.432 144.065 266.975 143.8 266.4C143.5 265.8 143.3 265.4 143.1 265.1C140.9 262.6 140.7 262.4 140.7 262.4C138.8 260.1 138 257.5 137.8 256.8C137.8 256.8 136.6 252.7 138.2 246.2C138.3 246 138.5 245.1 138.7 243.8C138.745 243.303 138.79 242.868 138.826 242.521C138.87 242.1 138.9 241.81 138.9 241.7C138.9 240.2 138.9 238.3 139 237.1Z" fill="#D7998E"/>
<mask id="mask0_3881_257113" style="mask-type:alpha" maskUnits="userSpaceOnUse" x="134" y="218" width="67" height="80">
<path fill-rule="evenodd" clip-rule="evenodd" d="M138.665 264.517C138.046 263.5 137.573 262.724 137.1 261.7C136 259.3 135.5 256.6 135 253.4L135 253.4C134.9 252.9 134.7 251.9 134.7 250.6V249.4C134.713 249.153 134.725 248.91 134.737 248.673C134.915 245.156 135.044 242.604 135.7 239.7C136.2 237.6 136.7 235.7 137.8 233.3C139.5 229.8 141.6 227.6 142.9 226.3C144.9 224.2 148.7 220.5 154.8 219C156.1 218.6 157.4 218.3 158.8 218.3C158.8 218.3 159.7 218.3 160.6 218.4C162.8 218.7 165.8 219.8 168.4 222.2C169.2 222.9 171.4 225 172.5 228.4C172.99 229.968 173.096 231.345 173.288 233.847L173.3 234C173.304 234.048 173.309 234.096 173.313 234.143C173.408 235.189 173.5 236.191 173.5 238.2C173.5 239.251 173.514 240.118 173.526 240.877C173.547 242.14 173.562 243.1 173.5 244.1C173.5 244.431 173.483 244.831 173.463 245.3C173.434 245.963 173.4 246.763 173.4 247.7C173.4 248.129 173.429 248.5 173.455 248.845C173.478 249.143 173.5 249.422 173.5 249.7C173.524 249.994 173.543 250.258 173.56 250.5C173.612 251.243 173.649 251.772 173.8 252.3C173.958 253.09 174.303 253.631 174.836 254.464C174.978 254.686 175.132 254.927 175.3 255.2C175.9 256.2 177 257.5 178.5 259C178.812 259.286 179.05 259.498 179.256 259.681C179.84 260.202 180.164 260.49 181.2 261.6L181.2 261.6C181.7 262.1 182.4 262.8 183 263.8C183.4 264.5 183.7 265.1 183.8 265.3C183.9 265.4 184.1 265.8 184.4 266.8C184.57 267.367 184.644 267.709 184.712 268.027C184.764 268.269 184.813 268.497 184.9 268.8C185.2 269.7 185.4 270.2 185.9 271.4C186.059 271.772 186.247 272.172 186.448 272.6C186.625 272.978 186.812 273.378 187 273.8C187.052 273.904 187.107 274.015 187.166 274.134C187.673 275.158 188.445 276.718 189.7 278.6C190.5 279.699 191.099 280.499 191.4 280.899L191.4 280.9C191.607 281.107 191.883 281.434 192.206 281.818C192.663 282.36 193.214 283.014 193.8 283.6L194.7 284.5L195.5 285.3C195.5 285.3 196 285.8 196.4 286.3C196.539 286.495 196.733 286.753 196.971 287.068C197.585 287.884 198.491 289.086 199.5 290.6C199.508 290.617 199.522 290.643 199.54 290.678C199.733 291.053 200.425 292.402 200.7 293.5L200.7 293.5C200.8 293.9 200.9 294.3 200.8 294.8C200.8 295 200.8 295.2 200.7 295.4C200.7 295.5 200.6 295.8 200.3 296.1C199.8 296.7 199 296.9 197.3 297.1C196.921 297.134 196.59 297.169 196.298 297.199C195.742 297.257 195.328 297.3 195 297.3C194.312 297.338 193.741 297.376 193.254 297.409C192.465 297.462 191.894 297.5 191.4 297.5H191.4C190 297.5 188.9 297.5 187.4 297.2C187.1 297.2 186 296.9 184.7 296.4C183.9 296.1 183.2 295.8 182.4 295.3C181.5 294.7 180.9 294.1 180.9 294.1C180.8 294 180.6 293.8 180.3 293.6C180.137 293.437 179.973 293.34 179.647 293.147C179.573 293.103 179.492 293.055 179.4 293C179.209 292.885 179.047 292.785 178.909 292.7C178.685 292.562 178.524 292.462 178.4 292.4C176.9 291.6 174.6 290.6 174.6 290.6C173.9 290.3 172 289.6 169.6 288.8C168.1 288.3 167.4 288.1 166.5 287.9C166.384 287.861 166.192 287.822 165.942 287.772C165.549 287.692 165.012 287.584 164.4 287.4C164.171 287.324 163.971 287.262 163.8 287.209C163.524 287.124 163.324 287.062 163.2 287C163.2 287 162.8 286.9 162.3 286.7C160.5 286 158.7 284.8 158.7 284.8C158 284.4 156.5 283.4 153 280.4C152.584 280.044 152.222 279.741 151.891 279.464C151.108 278.809 150.503 278.303 149.8 277.6C147.3 275.3 145.5 273.3 144.1 271.7C141.7 269 140.3 267.1 139.2 265.4C139.009 265.082 138.832 264.791 138.665 264.517ZM139 237.1C139 237.1 139.1 236.2 139.2 235.4C139.3 234.8 139.9 232.5 141.6 230C142.2 229.1 142.7 228.5 143.1 228.1C143.1 228.1 144.2 226.8 145.5 225.6C145.539 225.565 145.579 225.53 145.618 225.495C147.392 223.917 149.468 222.072 152.5 220.8C153.9 220.2 157.7 218.7 162.1 219.8C163.1 220 165.5 220.7 167.8 222.8C170.2 225.1 171 227.7 171.4 229.1C171.9 231 171.9 233.3 171.8 237.7C171.724 239.914 171.618 241.4 171.533 242.591C171.397 244.519 171.314 245.674 171.5 247.9C171.5 247.9 171.6 248.7 171.9 252.6C171.941 252.682 172.502 253.452 173.274 254.512C174.387 256.038 175.937 258.165 177 259.7C177.076 259.815 177.138 259.9 177.191 259.973C177.276 260.091 177.338 260.176 177.4 260.3C177.563 260.549 177.723 260.791 177.878 261.027C179.911 264.115 181.278 266.192 182.3 268.7C182.624 269.402 182.715 269.696 182.84 270.101C182.946 270.446 183.078 270.872 183.4 271.7C183.506 271.982 183.618 272.295 183.74 272.635C184.659 275.193 186.122 279.269 189.3 282.8C190.404 284.021 191.374 285.343 192.345 286.668C193.045 287.622 193.746 288.579 194.5 289.5C195.3 290.5 196.4 291.9 196 293C196 293.2 195.6 293.9 194.2 294.2C190.2 295.2 183.5 292.5 181.8 291.8C178.089 290.287 175.481 289.163 173.462 288.293C169.878 286.748 168.151 286.004 165.4 285.3C164.9 285.2 163.9 284.9 162.5 284.4C158.7 282.9 156 280.9 154.6 279.5C153.6 278.6 153 278 152.6 277.3C152.5 277.1 152.3 276.7 151.8 276.2C151.653 275.979 151.451 275.812 151.315 275.7C151.267 275.66 151.226 275.626 151.2 275.6C150.619 275.084 150.028 274.619 149.443 274.16C148.215 273.196 147.016 272.255 146 270.9C145.706 270.488 145.481 270.111 145.325 269.849C145.216 269.667 145.141 269.541 145.1 269.5C144.765 268.886 144.586 268.397 144.389 267.859C144.233 267.432 144.065 266.975 143.8 266.4C143.5 265.8 143.3 265.4 143.1 265.1C140.9 262.6 140.7 262.4 140.7 262.4C138.8 260.1 138 257.5 137.8 256.8C137.8 256.8 136.6 252.7 138.2 246.2C138.3 246 138.5 245.1 138.7 243.8C138.745 243.303 138.79 242.868 138.826 242.521C138.87 242.1 138.9 241.81 138.9 241.7C138.9 240.2 138.9 238.3 139 237.1Z" fill="#D7998E"/>
</mask>
<g mask="url(#mask0_3881_257113)">
<rect x="158" y="218" width="1" height="2" fill="#CC857C"/>
<path d="M155.818 218.114L157.092 217.866L157.474 219.829L157 220.5L155.818 218.114Z" fill="#CC857C"/>
<rect x="154.608" y="218.13" width="0.67822" height="2" transform="rotate(-11.0118 154.608 218.13)" fill="#CC857C"/>
<rect x="153.914" y="218.686" width="0.370044" height="2.45168" transform="rotate(-11.0118 153.914 218.686)" fill="#CC857C"/>
<path d="M153 219.071L153.659 218.942L154.009 220.739L153.659 220.612L153 219.071Z" fill="#CC857C"/>
<path d="M151.213 219.281L152.659 219L153.078 221.151L152.5 222L151.213 219.281Z" fill="#CC857C"/>
<path d="M150 220.16L150.768 219.657L151.195 222.052L150.768 222.212L150 220.16Z" fill="#CC857C"/>
<path d="M148.704 220.874L149.5 220L150.345 222.949L149.944 223.166L148.704 220.874Z" fill="#CC857C"/>
<path d="M147.081 221.714L148.401 221L149.5 224L148.321 224.007L147.081 221.714Z" fill="#CC857C"/>
<path d="M145.434 222.405L146.5 222.022L147 225L146.483 225.325L145.434 222.405Z" fill="#CC857C"/>
<rect x="144.393" y="223.242" width="0.714659" height="3.10317" transform="rotate(-19.759 144.393 223.242)" fill="#CC857C"/>
<path d="M143.685 223.995L144.176 223.819L145 226.5L145 227L143.685 223.995Z" fill="#CC857C"/>
<rect x="142.319" y="225.421" width="1.24599" height="3.10317" transform="rotate(-19.759 142.319 225.421)" fill="#CC857C"/>
<path d="M140.786 227.651L141.523 227.216L143.099 229.889L142.391 230.064L140.786 227.651Z" fill="#CC857C"/>
<path d="M138.88 229L140.086 228.035L142.026 230.457L142 231.5L138.88 229Z" fill="#CC857C"/>
<rect x="138.4" y="230.717" width="0.618937" height="3.75956" transform="rotate(-44.1166 138.4 230.717)" fill="#CC857C"/>
<path d="M137.073 232.053L138 230.5L140.396 233.844L140.017 234.333L137.073 232.053Z" fill="#CC857C"/>
<rect x="136.931" y="233.632" width="0.909468" height="3.72402" transform="rotate(-57.0636 136.931 233.632)" fill="#CC857C"/>
<path d="M136.092 235.733L136.842 234.37L140 237L139.355 237.527L136.092 235.733Z" fill="#CC857C"/>
<rect x="135.479" y="237.654" width="0.772083" height="4.55349" transform="rotate(-70.0186 135.479 237.654)" fill="#CC857C"/>
<path d="M135 238.726L135.264 238L139.5 240L139.279 240.282L135 238.726Z" fill="#CC857C"/>
<rect x="134.788" y="241.818" width="1.5865" height="4.55349" transform="rotate(-77.4423 134.788 241.818)" fill="#CC857C"/>
<rect x="134.788" y="241.818" width="1.5865" height="4.55349" transform="rotate(-77.4423 134.788 241.818)" fill="#CC857C"/>
<rect x="134.086" y="244.27" width="1.16756" height="4.90377" transform="rotate(-80.4472 134.086 244.27)" fill="#CC857C"/>
<rect x="133.229" y="247.267" width="1.28455" height="5.3491" transform="rotate(-80.4472 133.229 247.267)" fill="#CC857C"/>
<rect x="133.069" y="250.044" width="0.677362" height="5.3491" transform="rotate(-88.5386 133.069 250.044)" fill="#CC857C"/>
<rect x="133.02" y="251.831" width="0.945267" height="5.3491" transform="rotate(-91.8331 133.02 251.831)" fill="#CC857C"/>
<rect x="133.191" y="255.055" width="1.62323" height="5.3491" transform="rotate(-97.6695 133.191 255.055)" fill="#CC857C"/>
<rect x="134.424" y="257.524" width="1.20669" height="5.3491" transform="rotate(-111.875 134.424 257.524)" fill="#CC857C"/>
<path d="M135.5 262.5L134 258.993L138.964 257L140 259L135.5 262.5Z" fill="#CC857C"/>
<path d="M137.767 265.301L136.469 263.402L140.886 260.384L142 261.5L137.767 265.301Z" fill="#CC857C"/>
<path d="M159.776 217.5L161.735 218.273L161.258 220.216L159.776 219.852L159.776 217.5Z" fill="#CC857C"/>
<rect x="162.477" y="218" width="0.774627" height="2" transform="rotate(13.7959 162.477 218)" fill="#CC857C"/>
<rect x="163.911" y="219" width="0.35932" height="2" transform="rotate(27.1084 163.911 219)" fill="#CC857C"/>
<rect x="165.911" y="220" width="0.657589" height="2" transform="rotate(27.1084 165.911 220)" fill="#CC857C"/>
<path d="M167.132 220.601L169 221.5L167.585 223.08L166.22 222.381L167.132 220.601Z" fill="#CC857C"/>
<path d="M168.911 222L169.479 222.291L168.293 223.78L168 223.78L168.911 222Z" fill="#CC857C"/>
<path d="M169.697 222.89L170.343 223.221L169 225L168.5 224.5L169.697 222.89Z" fill="#CC857C"/>
<rect x="170.406" y="224" width="0.877915" height="2.53538" transform="rotate(33.689 170.406 224)" fill="#CC857C"/>
<path d="M171.618 225L171.974 225.298L170.356 227.231L170 226.5L171.618 225Z" fill="#CC857C"/>
<path d="M172 226L171.974 226.298L170.356 228.231L170 227.934L172 226Z" fill="#CC857C"/>
<rect x="172.427" y="226.781" width="0.906737" height="2.52132" transform="rotate(46.8717 172.427 226.781)" fill="#CC857C"/>
<path d="M173.043 228.142L174 229.642L171 230.5L170.772 229.784L173.043 228.142Z" fill="#CC857C"/>
<path d="M173.587 230L174.082 231.185L171.495 232.265L171 231.5L173.587 230Z" fill="#CC857C"/>
<rect x="173.587" y="232" width="0.543816" height="2.80312" transform="rotate(67.3399 173.587 232)" fill="#CC857C"/>
<path d="M173.636 233.08L174.5 233.5L171.16 234.502L170.984 233.987L173.636 233.08Z" fill="#CC857C"/>
<path d="M173.604 234.593L173.841 235.737L171.081 236.221L170.937 235.405L173.604 234.593Z" fill="#CC857C"/>
<rect x="173.814" y="236.301" width="0.949782" height="2.80312" transform="rotate(80.0529 173.814 236.301)" fill="#CC857C"/>
<path d="M173.761 238L174.5 238L171.5 238.5L171 238L173.761 238Z" fill="#CC857C"/>
<rect x="173.732" y="238.836" width="0.650444" height="2.80312" transform="rotate(80.0529 173.732 238.836)" fill="#CC857C"/>
<path d="M173.761 240L173.894 240.758L171 241L171 240.484L173.761 240Z" fill="#CC857C"/>
<path d="M173.724 241.209L173.859 242.767L171 242.5L170.932 241.451L173.724 241.209Z" fill="#CC857C"/>
<rect x="173.793" y="243" width="0.599996" height="2.80312" transform="rotate(85.055 173.793 243)" fill="#CC857C"/>
<rect x="173.793" y="244" width="0.599996" height="2.80312" transform="rotate(85.055 173.793 244)" fill="#CC857C"/>
<rect x="173.793" y="245" width="1.08152" height="2.80312" transform="rotate(85.055 173.793 245)" fill="#CC857C"/>
<rect x="173.678" y="246.804" width="1.08152" height="2.80312" transform="rotate(76.3966 173.678 246.804)" fill="#CC857C"/>
<rect x="173.809" y="248.351" width="0.720495" height="2.80312" transform="rotate(76.3966 173.809 248.351)" fill="#CC857C"/>
<path d="M174 249.5L174.209 250.462L171.5 251.5L170.901 250.922L174 249.5Z" fill="#CC857C"/>
<path d="M173.917 250.948L174.5 251.5L171.5 252.341L171.017 252.341L173.917 250.948Z" fill="#CC857C"/>
<path d="M173.95 252.074L174.5 252.5L172 253L171.5 252.5L173.95 252.074Z" fill="#CC857C"/>
<path d="M174.5 253.5L175.412 253.779L172.342 254.785L172.342 253.633L174.5 253.5Z" fill="#CC857C"/>
<rect x="175.095" y="254.434" width="0.630135" height="2.07922" transform="rotate(66.8556 175.095 254.434)" fill="#CC857C"/>
<path d="M175.912 255L176.644 255.563L174.184 256.249L174 255.817L175.912 255Z" fill="#CC857C"/>
<rect x="176.912" y="256" width="0.903137" height="2.41403" transform="rotate(66.8556 176.912 256)" fill="#CC857C"/>
<path d="M178.156 257.85L178.575 258.83L175.78 259.532L175.936 258.799L178.156 257.85Z" fill="#CC857C"/>
<rect x="179.302" y="259.11" width="0.804287" height="2.74552" transform="rotate(72.3557 179.302 259.11)" fill="#CC857C"/>
<path d="M181.235 260.109L181.588 261.217L177.244 262.599L177.244 260.917L181.235 260.109Z" fill="#CC857C"/>
<rect x="182.222" y="261.547" width="0.874542" height="4.55832" transform="rotate(75.5785 182.222 261.547)" fill="#CC857C"/>
<rect x="183.415" y="263" width="0.610177" height="4.55832" transform="rotate(75.5785 183.415 263)" fill="#CC857C"/>
<path d="M184.479 264.529L184 265.5L180.095 266.365L179.948 265.031L184.479 264.529Z" fill="#CC857C"/>
<path d="M185.5 266.5L185.882 268.311L181.147 268.18L181.5 267.5L185.5 266.5Z" fill="#CC857C"/>
<path d="M186.531 269L186.633 269.923L182.102 270.424L181.5 269L186.531 269Z" fill="#CC857C"/>
<rect x="186.446" y="270.232" width="0.993596" height="4.55832" transform="rotate(83.6869 186.446 270.232)" fill="#CC857C"/>
<path d="M187.5 272L187.576 273.336L183.022 273.145L183.064 272.152L187.5 272Z" fill="#CC857C"/>
<path d="M188.324 273.862L188.5 275L184.5 276.654L183.838 274.669L188.324 273.862Z" fill="#CC857C"/>
<path d="M189 276L190.454 277.392L186 278.5L185.5 278L189 276Z" fill="#CC857C"/>
<rect x="190.2" y="278" width="1.15051" height="4.55832" transform="rotate(67.1438 190.2 278)" fill="#CC857C"/>
<rect x="191.131" y="279.288" width="0.819237" height="4.55832" transform="rotate(60.5056 191.131 279.288)" fill="#CC857C"/>
<path d="M192 280.5L193 281.5L188.536 283.192L188.536 282.5L192 280.5Z" fill="#CC857C"/>
<path d="M193.39 282L193.683 283.048L189.293 284.276L189 284L193.39 282Z" fill="#CC857C"/>
<rect x="195.675" y="283.92" width="1.53289" height="4.85403" transform="rotate(74.3714 195.675 283.92)" fill="#CC857C"/>
<path d="M197.451 286.206L197.572 287.162L193.5 288.5L192.031 286.893L197.451 286.206Z" fill="#CC857C"/>
<path d="M199 287.5L199.541 289.956L193.235 290.756L193.5 290L199 287.5Z" fill="#CC857C"/>
<path d="M202 290.5L201.5 293L195.5 291.846L195 291.5L202 290.5Z" fill="#CC857C"/>
<path d="M203 295L202 297.5L195 293L194.508 292.142L203 295Z" fill="#CC857C"/>
<path d="M199.629 297.959L198 299.5L193 293.5L194 293L199.629 297.959Z" fill="#CC857C"/>
<path d="M195.287 298.574L192.5 300L189.5 293.5L191 292.5L195.287 298.574Z" fill="#CC857C"/>
<path d="M189.659 299.336L186.781 300.287L185 292.5L187.108 291.613L189.659 299.336Z" fill="#CC857C"/>
<path d="M185.428 297.724L183 298L182.5 290.5L183.5 290.5L185.428 297.724Z" fill="#CC857C"/>
<path d="M182.06 296.212L179.332 296.212L179.5 288.5L181.5 289.5L182.06 296.212Z" fill="#CC857C"/>
<path d="M178.648 293.185L177.158 293.32L177.5 288.424L178.217 288.424L178.648 293.185Z" fill="#CC857C"/>
<rect x="176.92" y="292.761" width="0.757362" height="4.78085" transform="rotate(174.828 176.92 292.761)" fill="#CC857C"/>
<rect x="175.185" y="291.761" width="0.757362" height="4.78085" transform="rotate(174.828 175.185 291.761)" fill="#CC857C"/>
<rect x="173.614" y="290.723" width="1.1879" height="4.78085" transform="rotate(174.828 173.614 290.723)" fill="#CC857C"/>
<path d="M171.5 290L168.818 290.674L169.197 285.908L171 286L171.5 290Z" fill="#CC857C"/>
<path d="M168.252 289.865L166.5 289.5L167.379 285L168.631 285.099L168.252 289.865Z" fill="#CC857C"/>
<rect x="165.77" y="288.827" width="0.772832" height="4.78085" transform="rotate(-175.456 165.77 288.827)" fill="#CC857C"/>
<path d="M164.471 287.962L160.5 287.5L162.379 283L164.5 283L164.471 287.962Z" fill="#CC857C"/>
<path d="M159.406 286.65L158.178 285.966L161.5 281.5L161.733 282.474L159.406 286.65Z" fill="#CC857C"/>
<rect x="157.664" y="286.104" width="0.820747" height="4.78085" transform="rotate(-150.868 157.664 286.104)" fill="#CC857C"/>
<rect x="156.717" y="284.576" width="0.820747" height="4.78085" transform="rotate(-150.868 156.717 284.576)" fill="#CC857C"/>
<rect x="155.197" y="284.843" width="0.773941" height="4.78085" transform="rotate(-150.868 155.197 284.843)" fill="#CC857C"/>
<rect x="153.676" y="283.553" width="0.773941" height="4.78085" transform="rotate(-150.868 153.676 283.553)" fill="#CC857C"/>
<rect x="152.12" y="282.265" width="1.61334" height="4.78085" transform="rotate(-136.024 152.12 282.265)" fill="#CC857C"/>
<path d="M150.5 281L148.5 278.5L152.5 275L153.48 277.12L150.5 281Z" fill="#CC857C"/>
<path d="M148.26 277.621L146 276.5L150.756 273.386L151.579 274.18L148.26 277.621Z" fill="#CC857C"/>
<rect x="146.129" y="276.388" width="1.14437" height="4.78085" transform="rotate(-143.997 146.129 276.388)" fill="#CC857C"/>
<path d="M144.926 274.54L143.376 273.414L146.186 269.546L147.5 270L144.926 274.54Z" fill="#CC857C"/>
<path d="M142 271.5L141 270L145.264 267.161L146.577 268.556L142 271.5Z" fill="#CC857C"/>
<rect x="140.858" y="269.188" width="1.25172" height="4.78085" transform="rotate(-133.27 140.858 269.188)" fill="#CC857C"/>
<rect x="139.858" y="267.188" width="1.25172" height="4.78085" transform="rotate(-133.27 139.858 267.188)" fill="#CC857C"/>
<path d="M164.911 219L166 219.5L164.585 221.08L164 220.78L164.911 219Z" fill="#CC857C"/>
</g>
<path d="M139.2 235.4C139.1 236.2 139 237.1 139 237.1C138.9 238.3 138.9 240.2 138.9 241.7C138.9 241.9 138.8 242.7 138.7 243.8C138.5 245.1 138.3 246 138.2 246.2C136.6 252.7 137.8 256.8 137.8 256.8C138 257.5 138.8 260.1 140.7 262.4C140.7 262.4 140.9 262.6 143.1 265.1C143.3 265.4 143.5 265.8 143.8 266.4C144.4 267.7 144.5 268.4 145.1 269.5C145.2 269.6 145.5 270.2 146 270.9C147.5 272.9 149.4 274 151.2 275.6C151.3 275.7 151.6 275.9 151.8 276.2C152.3 276.7 152.5 277.1 152.6 277.3C153 278 153.6 278.6 154.6 279.5C156 280.9 158.7 282.9 162.5 284.4C163.9 284.9 164.9 285.2 165.4 285.3C169.7 286.4 171.5 287.6 181.8 291.8C183.5 292.5 190.2 295.2 194.2 294.2C195.6 293.9 196 293.2 196 293C196.4 291.9 195.3 290.5 194.5 289.5C192.7 287.3 191.2 284.9 189.3 282.8C185.7 278.8 184.3 274.1 183.4 271.7C182.7 269.9 182.9 270 182.3 268.7C181.2 266 179.7 263.8 177.4 260.3C177.3 260.1 177.2 260 177 259.7C175.2 257.1 172 252.8 171.9 252.6C171.6 248.7 171.5 247.9 171.5 247.9C171.2 244.3 171.6 243.5 171.8 237.7C171.9 233.3 171.9 231 171.4 229.1C171 227.7 170.2 225.1 167.8 222.8C165.5 220.7 163.1 220 162.1 219.8C157.7 218.7 153.9 220.2 152.5 220.8C149.4 222.1 147.3 224 145.5 225.6C144.2 226.8 143.1 228.1 143.1 228.1C142.7 228.5 142.2 229.1 141.6 230C139.9 232.5 139.3 234.8 139.2 235.4Z" fill="#892A26"/>
<path fill-rule="evenodd" clip-rule="evenodd" d="M177 254.7C177 254.7 176.7 254.5 176.5 254.2C172.9 250.1 174.2 236.5 174.3 236.3C174.752 233.791 174.985 231.722 175.199 229.815C175.506 227.084 175.776 224.685 176.6 221.8C178.8 213.9 181.1 211.8 182.8 211C183.4 210.7 184.8 210.1 186.7 209.6C187.8 209.3 189.3 208.9 191.1 208.9C191.142 208.9 191.192 208.9 191.251 208.899C192.037 208.891 194.295 208.87 196.9 209.8C201 211.2 203.6 213.8 204.4 214.8C204.8 215.2 205.1 215.7 205.1 215.7C205.1 215.7 206.1 217.1 206.8 218.6C208.8 222.8 209 228.5 209 229.4C209 230.6 208.9 231.3 208.9 231.3C208.838 231.485 208.815 231.671 208.782 231.927C208.762 232.085 208.738 232.271 208.7 232.5C208.7 232.714 208.671 232.9 208.645 233.072C208.622 233.222 208.6 233.361 208.6 233.5C208.6 233.624 208.583 233.783 208.563 233.969C208.534 234.231 208.5 234.549 208.5 234.9C208.45 235.7 208.45 236.15 208.45 236.562C208.45 236.975 208.45 237.35 208.4 238C208.4 238.1 208.4 238.5 208.5 238.9C208.5 239.024 208.538 239.109 208.591 239.227C208.624 239.3 208.662 239.385 208.7 239.5C208.798 239.793 208.895 240.086 209.086 240.564C209.172 240.629 209.4 240.833 209.4 240.9C209.462 240.962 209.485 241.024 209.518 241.109C209.538 241.162 209.562 241.224 209.6 241.3C209.65 241.35 209.7 241.425 209.75 241.5C209.8 241.575 209.85 241.65 209.9 241.7C209.996 241.845 210.093 241.92 210.2 242.003C210.316 242.093 210.445 242.193 210.6 242.4C210.7 242.4 210.7 242.4 210.9 242.7L210.9 242.7C210.988 242.846 211.059 242.967 211.117 243.067C211.259 243.309 211.329 243.429 211.4 243.5C211.9 244.2 212.4 245 212.4 245.1L213 246.3C213.1 246.6 213.2 246.8 213.3 247L213.3 247C213.371 247.141 213.391 247.233 213.433 247.416C213.45 247.491 213.471 247.583 213.5 247.7C213.5 247.89 213.54 248.04 213.57 248.15C213.587 248.213 213.6 248.263 213.6 248.3C213.722 248.788 213.77 249.239 213.811 249.63C213.837 249.88 213.861 250.105 213.9 250.3C213.912 250.385 213.924 250.467 213.936 250.546C214.021 251.123 214.088 251.573 214 252.1C214 252.35 213.975 252.525 213.95 252.7C213.925 252.875 213.9 253.05 213.9 253.3C213.9 253.32 213.896 253.36 213.89 253.416C213.868 253.64 213.82 254.12 213.9 254.6C214 255.7 214.3 256.7 214.5 257.1C214.578 257.41 214.715 257.66 214.82 257.85C214.85 257.905 214.878 257.955 214.9 258C215.282 258.654 215.544 258.982 215.818 259.322C216.046 259.606 216.282 259.9 216.6 260.4C216.619 260.438 216.66 260.505 216.716 260.598C216.956 260.992 217.476 261.848 217.8 262.9L218 263.7C218.1 263.9 218.2 264.5 218.3 265.1C218.4 266.3 218.3 267.2 218.2 268.1L218.2 268.1C218.064 268.959 217.949 269.429 217.855 269.816C217.74 270.286 217.655 270.633 217.6 271.4C217.5 272 217.5 273 217.8 274.1C217.9 274.5 218.1 275.3 218.7 276.1C218.805 276.239 218.921 276.367 219.05 276.507C219.291 276.77 219.574 277.079 219.9 277.6C219.9 277.6 220.1 277.9 220.3 278.3C221.4 280.3 221.1 285.7 221.1 285.7C221 290.1 220.6 291.4 220.1 292.3C219.7 293.2 219 294.5 217.7 294.9C216.3 295.3 214.8 294.6 213.9 294.1C210.17 292.058 207.466 288.911 205.016 286.061C204.707 285.702 204.402 285.347 204.1 285C203.976 284.862 203.821 284.688 203.638 284.482C202.493 283.192 200.231 280.645 197.3 277.8C196.389 276.909 195.561 276.128 194.809 275.419C191.765 272.548 189.982 270.867 189.1 267.9C189.003 267.577 188.938 267.285 188.873 266.998C188.737 266.396 188.606 265.812 188.2 265C187.2 262.8 185.7 261.3 183.3 259.4C180.173 256.817 178.756 255.897 177.918 255.353C177.523 255.097 177.256 254.924 177 254.7ZM178.992 253.476C178.529 253.113 178.123 252.794 177.8 252.6C177.2 251.8 176.8 251 176.7 250.4C176.4 249.8 176.2 249.3 176.2 249.2C176.1 248.8 176 248.3 176 247.7C175.4 242.7 176 237.1 176 237.1C176.328 233.409 176.858 230.525 177.148 228.946C177.212 228.599 177.264 228.316 177.3 228.1C178.3 223 179.2 220.7 179.9 219.2C180.016 218.951 180.121 218.722 180.219 218.509C180.71 217.435 181.016 216.767 181.6 216.1C184.135 212.785 188.095 212.132 189.404 211.916C189.438 211.91 189.47 211.905 189.5 211.9C195.3 211 199.7 213.9 200.4 214.4C204.463 217.175 205.875 221.129 206.386 222.562L206.4 222.6C207.8 226.9 207.2 230.9 206.7 234.1C206.4 236 205.6 240.1 205.6 240.1C205.6 240.1 207.6 243.7 209.2 247.8C209.729 249.235 210.086 250.499 210.359 251.462C210.447 251.774 210.527 252.055 210.6 252.3C210.857 253.136 210.949 253.6 211.088 254.304C211.166 254.694 211.257 255.158 211.4 255.8C211.804 257.688 212.141 259.087 212.42 260.25C212.97 262.538 213.301 263.913 213.5 266.3C213.6 267.1 213.6 267.6 213.6 268.2C213.689 270.21 213.639 271.462 213.601 272.419C213.553 273.605 213.523 274.338 213.8 275.5C213.9 276.1 214.3 277.8 215.1 278.9C215.137 278.973 215.2 279.06 215.28 279.17C215.42 279.36 215.61 279.62 215.8 280C215.8 280 216.2 280.7 216.5 281.4C217.3 283.4 218.5 286.7 217.3 289.6C217.275 289.65 217.25 289.7 217.225 289.751C216.948 290.312 216.65 290.917 216.1 291.1C215.2 291.5 214.1 290.7 212.6 289.5C210 287.5 208.7 286.4 206.9 284.5C205 282.5 203.8 281.2 203.1 279.7C203 279.4 202.8 278.8 202.3 278.1C201.6 277.1 200.9 276.4 200.5 276C197.4 273.2 194.6 271.6 194.6 271.6C194 271.3 192.8 270.7 192.2 269.6C191.8 268.9 191.6 268.1 191.6 268.1C191.569 267.943 191.537 267.806 191.509 267.682C191.447 267.412 191.4 267.206 191.4 267C191.377 266.906 191.353 266.752 191.323 266.555C191.226 265.913 191.059 264.819 190.6 263.9C190.3 263.4 189.9 262.9 189.2 262.1C188.3 261.1 187.6 260.5 186.9 259.9C184.2 257.5 182.7 256.2 181.5 255.3C181.2 255.1 180.6 254.7 179.8 254.1C179.517 253.887 179.246 253.675 178.992 253.476Z" fill="#D7998E"/>
<mask id="mask1_3881_257113" style="mask-type:alpha" maskUnits="userSpaceOnUse" x="173" y="208" width="49" height="88">
<path fill-rule="evenodd" clip-rule="evenodd" d="M177 254.7C177 254.7 176.7 254.5 176.5 254.2C172.9 250.1 174.2 236.5 174.3 236.3C174.752 233.791 174.985 231.722 175.199 229.815C175.506 227.084 175.776 224.685 176.6 221.8C178.8 213.9 181.1 211.8 182.8 211C183.4 210.7 184.8 210.1 186.7 209.6C187.8 209.3 189.3 208.9 191.1 208.9C191.142 208.9 191.192 208.9 191.251 208.899C192.037 208.891 194.295 208.87 196.9 209.8C201 211.2 203.6 213.8 204.4 214.8C204.8 215.2 205.1 215.7 205.1 215.7C205.1 215.7 206.1 217.1 206.8 218.6C208.8 222.8 209 228.5 209 229.4C209 230.6 208.9 231.3 208.9 231.3C208.838 231.485 208.815 231.671 208.782 231.927C208.762 232.085 208.738 232.271 208.7 232.5C208.7 232.714 208.671 232.9 208.645 233.072C208.622 233.222 208.6 233.361 208.6 233.5C208.6 233.624 208.583 233.783 208.563 233.969C208.534 234.231 208.5 234.549 208.5 234.9C208.45 235.7 208.45 236.15 208.45 236.562C208.45 236.975 208.45 237.35 208.4 238C208.4 238.1 208.4 238.5 208.5 238.9C208.5 239.024 208.538 239.109 208.591 239.227C208.624 239.3 208.662 239.385 208.7 239.5C208.798 239.793 208.895 240.086 209.086 240.564C209.172 240.629 209.4 240.833 209.4 240.9C209.462 240.962 209.485 241.024 209.518 241.109C209.538 241.162 209.562 241.224 209.6 241.3C209.65 241.35 209.7 241.425 209.75 241.5C209.8 241.575 209.85 241.65 209.9 241.7C209.996 241.845 210.093 241.92 210.2 242.003C210.316 242.093 210.445 242.193 210.6 242.4C210.7 242.4 210.7 242.4 210.9 242.7L210.9 242.7C210.988 242.846 211.059 242.967 211.117 243.067C211.259 243.309 211.329 243.429 211.4 243.5C211.9 244.2 212.4 245 212.4 245.1L213 246.3C213.1 246.6 213.2 246.8 213.3 247L213.3 247C213.371 247.141 213.391 247.233 213.433 247.416C213.45 247.491 213.471 247.583 213.5 247.7C213.5 247.89 213.54 248.04 213.57 248.15C213.587 248.213 213.6 248.263 213.6 248.3C213.722 248.788 213.77 249.239 213.811 249.63C213.837 249.88 213.861 250.105 213.9 250.3C213.912 250.385 213.924 250.467 213.936 250.546C214.021 251.123 214.088 251.573 214 252.1C214 252.35 213.975 252.525 213.95 252.7C213.925 252.875 213.9 253.05 213.9 253.3C213.9 253.32 213.896 253.36 213.89 253.416C213.868 253.64 213.82 254.12 213.9 254.6C214 255.7 214.3 256.7 214.5 257.1C214.578 257.41 214.715 257.66 214.82 257.85C214.85 257.905 214.878 257.955 214.9 258C215.282 258.654 215.544 258.982 215.818 259.322C216.046 259.606 216.282 259.9 216.6 260.4C216.619 260.438 216.66 260.505 216.716 260.598C216.956 260.992 217.476 261.848 217.8 262.9L218 263.7C218.1 263.9 218.2 264.5 218.3 265.1C218.4 266.3 218.3 267.2 218.2 268.1L218.2 268.1C218.064 268.959 217.949 269.429 217.855 269.816C217.74 270.286 217.655 270.633 217.6 271.4C217.5 272 217.5 273 217.8 274.1C217.9 274.5 218.1 275.3 218.7 276.1C218.805 276.239 218.921 276.367 219.05 276.507C219.291 276.77 219.574 277.079 219.9 277.6C219.9 277.6 220.1 277.9 220.3 278.3C221.4 280.3 221.1 285.7 221.1 285.7C221 290.1 220.6 291.4 220.1 292.3C219.7 293.2 219 294.5 217.7 294.9C216.3 295.3 214.8 294.6 213.9 294.1C210.17 292.058 207.466 288.911 205.016 286.061C204.707 285.702 204.402 285.347 204.1 285C203.976 284.862 203.821 284.688 203.638 284.482C202.493 283.192 200.231 280.645 197.3 277.8C196.389 276.909 195.561 276.128 194.809 275.419C191.765 272.548 189.982 270.867 189.1 267.9C189.003 267.577 188.938 267.285 188.873 266.998C188.737 266.396 188.606 265.812 188.2 265C187.2 262.8 185.7 261.3 183.3 259.4C180.173 256.817 178.756 255.897 177.918 255.353C177.523 255.097 177.256 254.924 177 254.7ZM178.992 253.476C178.529 253.113 178.123 252.794 177.8 252.6C177.2 251.8 176.8 251 176.7 250.4C176.4 249.8 176.2 249.3 176.2 249.2C176.1 248.8 176 248.3 176 247.7C175.4 242.7 176 237.1 176 237.1C176.328 233.409 176.858 230.525 177.148 228.946C177.212 228.599 177.264 228.316 177.3 228.1C178.3 223 179.2 220.7 179.9 219.2C180.016 218.951 180.121 218.722 180.219 218.509C180.71 217.435 181.016 216.767 181.6 216.1C184.135 212.785 188.095 212.132 189.404 211.916C189.438 211.91 189.47 211.905 189.5 211.9C195.3 211 199.7 213.9 200.4 214.4C204.463 217.175 205.875 221.129 206.386 222.562L206.4 222.6C207.8 226.9 207.2 230.9 206.7 234.1C206.4 236 205.6 240.1 205.6 240.1C205.6 240.1 207.6 243.7 209.2 247.8C209.729 249.235 210.086 250.499 210.359 251.462C210.447 251.774 210.527 252.055 210.6 252.3C210.857 253.136 210.949 253.6 211.088 254.304C211.166 254.694 211.257 255.158 211.4 255.8C211.804 257.688 212.141 259.087 212.42 260.25C212.97 262.538 213.301 263.913 213.5 266.3C213.6 267.1 213.6 267.6 213.6 268.2C213.689 270.21 213.639 271.462 213.601 272.419C213.553 273.605 213.523 274.338 213.8 275.5C213.9 276.1 214.3 277.8 215.1 278.9C215.137 278.973 215.2 279.06 215.28 279.17C215.42 279.36 215.61 279.62 215.8 280C215.8 280 216.2 280.7 216.5 281.4C217.3 283.4 218.5 286.7 217.3 289.6C217.275 289.65 217.25 289.7 217.225 289.751C216.948 290.312 216.65 290.917 216.1 291.1C215.2 291.5 214.1 290.7 212.6 289.5C210 287.5 208.7 286.4 206.9 284.5C205 282.5 203.8 281.2 203.1 279.7C203 279.4 202.8 278.8 202.3 278.1C201.6 277.1 200.9 276.4 200.5 276C197.4 273.2 194.6 271.6 194.6 271.6C194 271.3 192.8 270.7 192.2 269.6C191.8 268.9 191.6 268.1 191.6 268.1C191.569 267.943 191.537 267.806 191.509 267.682C191.447 267.412 191.4 267.206 191.4 267C191.377 266.906 191.353 266.752 191.323 266.555C191.226 265.913 191.059 264.819 190.6 263.9C190.3 263.4 189.9 262.9 189.2 262.1C188.3 261.1 187.6 260.5 186.9 259.9C184.2 257.5 182.7 256.2 181.5 255.3C181.2 255.1 180.6 254.7 179.8 254.1C179.517 253.887 179.246 253.675 178.992 253.476Z" fill="#D7998E"/>
</mask>
<g mask="url(#mask1_3881_257113)">
<rect x="191" y="208" width="1" height="4" fill="#CC857C"/>
<path d="M187.511 208.332L189.441 207.808L189.5 212.5L188.686 212.659L187.511 208.332Z" fill="#CC857C"/>
<rect x="186.002" y="209.252" width="0.961533" height="4.48406" transform="rotate(-15.1933 186.002 209.252)" fill="#CC857C"/>
<path d="M183 209.5L184.645 209.033L186.348 213.181L185.458 213.546L183 209.5Z" fill="#CC857C"/>
<path d="M181.543 210.553L182.89 210L184.593 214.148L184 214.5L181.543 210.553Z" fill="#CC857C"/>
<path d="M179 214L180.946 212.066L182.5 216L182.104 216.635L179 214Z" fill="#CC857C"/>
<path d="M176.931 216.972L178.758 215.176L181.902 218.374L180.5 219.5L176.931 216.972Z" fill="#CC857C"/>
<rect x="175.166" y="221.194" width="1.94806" height="4.48406" transform="rotate(-65.9902 175.166 221.194)" fill="#CC857C"/>
<rect x="174.365" y="222.96" width="1.05101" height="5.17608" transform="rotate(-65.9902 174.365 222.96)" fill="#CC857C"/>
<rect x="173.85" y="225.694" width="1.40156" height="5.17608" transform="rotate(-74.684 173.85 225.694)" fill="#CC857C"/>
<rect x="174.076" y="227.539" width="1.05101" height="5.17608" transform="rotate(-64.2397 174.076 227.539)" fill="#CC857C"/>
<path d="M193.466 207.939L195.578 208.43L195 212.5L192.56 211.835L193.466 207.939Z" fill="#CC857C"/>
<rect x="197.009" y="209.256" width="1.03606" height="4" transform="rotate(13.0818 197.009 209.256)" fill="#CC857C"/>
<rect x="198.236" y="209.844" width="0.644513" height="4" transform="rotate(13.0818 198.236 209.844)" fill="#CC857C"/>
<path d="M199.64 209.869L201 211L199.437 214.02L198.37 213.662L199.64 209.869Z" fill="#CC857C"/>
<rect x="201.33" y="211.004" width="0.776332" height="4" transform="rotate(20.1689 201.33 211.004)" fill="#CC857C"/>
<path d="M202.124 212L203.245 213.5L201.5 216L200.745 215.755L202.124 212Z" fill="#CC857C"/>
<rect x="204.033" y="214" width="1.3374" height="4" transform="rotate(30.5418 204.033 214)" fill="#CC857C"/>
<rect x="205.639" y="215.232" width="0.935792" height="3.67972" transform="rotate(35.2953 205.639 215.232)" fill="#CC857C"/>
<path d="M206.547 217.226L207.505 218.358L204.696 220.735L204.5 220L206.547 217.226Z" fill="#CC857C"/>
<rect x="207.984" y="219.104" width="0.627697" height="3.67972" transform="rotate(55.6456 207.984 219.104)" fill="#CC857C"/>
<rect x="208.369" y="220.438" width="0.839884" height="3.16204" transform="rotate(59.8691 208.369 220.438)" fill="#CC857C"/>
<rect x="208.864" y="222.145" width="0.503542" height="3.16204" transform="rotate(66.6594 208.864 222.145)" fill="#CC857C"/>
<rect x="208.903" y="223" width="0.503542" height="3.16204" transform="rotate(66.6594 208.903 223)" fill="#CC857C"/>
<path d="M209.002 224.18L209.367 225.453L206.327 226.324L206.327 225.37L209.002 224.18Z" fill="#CC857C"/>
<rect x="209.217" y="226.269" width="0.776403" height="3.16204" transform="rotate(84.7864 209.217 226.269)" fill="#CC857C"/>
<path d="M209.122 227.704L209.22 228.773L206.845 228.99L206.72 227.704L209.122 227.704Z" fill="#CC857C"/>
<rect x="209.389" y="229.049" width="0.525702" height="2.38429" transform="rotate(87.1861 209.389 229.049)" fill="#CC857C"/>
<path d="M209.374 229.852L209.407 230.526L207.026 230.643L206.5 230.5L209.374 229.852Z" fill="#CC857C"/>
<rect x="209.273" y="230.956" width="0.674569" height="2.59016" transform="rotate(87.1861 209.273 230.956)" fill="#CC857C"/>
<path d="M208.91 232.463L209 233L205.99 233.709L206.01 232.419L208.91 232.463Z" fill="#CC857C"/>
<path d="M208.889 233.976L208.923 235.041L206.024 235.133L206.024 234.5L208.889 233.976Z" fill="#CC857C"/>
<path d="M209 235.5L208.9 236.357L205.659 236.782L205.594 236.287L209 235.5Z" fill="#CC857C"/>
<path d="M209.38 236.742L209.38 238.058L205.696 238.541L205.5 238L209.38 236.742Z" fill="#CC857C"/>
<path d="M209.5 238.5L210 239.5L205.065 239.976L205.5 239.5L209.5 238.5Z" fill="#CC857C"/>
<path d="M210.3 239.728L210.608 240.897L206 241.5L205.583 240.975L210.3 239.728Z" fill="#CC857C"/>
<path d="M210.791 241.283L211.5 242.5L206.309 243.415L206.075 242.53L210.791 241.283Z" fill="#CC857C"/>
<path d="M212 243.5L212.431 244.515L207.421 245.84L207 244.247L212 243.5Z" fill="#CC857C"/>
<rect x="213.01" y="245" width="1.08581" height="5.18256" transform="rotate(75.1886 213.01 245)" fill="#CC857C"/>
<path d="M214 247.5L214.5 249L209.278 249.375L209 248.5L214 247.5Z" fill="#CC857C"/>
<rect x="214.251" y="249.914" width="0.914343" height="5.18256" transform="rotate(80.0596 214.251 249.914)" fill="#CC857C"/>
<path d="M214.5 252L215.5 253.5L210.158 253.795L210 253L214.5 252Z" fill="#CC857C"/>
<rect x="214.983" y="254.305" width="0.912321" height="5.18256" transform="rotate(80.0596 214.983 254.305)" fill="#CC857C"/>
<rect x="215.053" y="256.184" width="0.912321" height="4.11469" transform="rotate(80.0596 215.053 256.184)" fill="#CC857C"/>
<path d="M215.5 257.5L216.184 259.459L212.367 260.996L211.817 259.63L215.5 257.5Z" fill="#CC857C"/>
<rect x="217.515" y="260.55" width="0.969077" height="5.81194" transform="rotate(72.2978 217.515 260.55)" fill="#CC857C"/>
<path d="M218.093 262.008L219 264.5L211.856 264.903L211.856 263.976L218.093 262.008Z" fill="#CC857C"/>
<path d="M218.771 265.853L218.798 268.171L212.095 268.25L212.5 267L218.771 265.853Z" fill="#CC857C"/>
<rect x="218.599" y="269.305" width="1.46319" height="6.7042" transform="rotate(79.9744 218.599 269.305)" fill="#CC857C"/>
<path d="M218.602 272L219.115 273.167L212.123 273.863L212 273.167L218.602 272Z" fill="#CC857C"/>
<path d="M219.353 273.695L219.863 275.466L213.5 276.5L212.911 275.551L219.353 273.695Z" fill="#CC857C"/>
<path d="M220.5 276.5L220.907 278.376L213.95 279.117L214 278L220.5 276.5Z" fill="#CC857C"/>
<rect x="222.065" y="279.892" width="1.07456" height="6.99637" transform="rotate(92.371 222.065 279.892)" fill="#CC857C"/>
<rect x="222.056" y="282.698" width="1.33528" height="6.99637" transform="rotate(103.222 222.056 282.698)" fill="#CC857C"/>
<path d="M223.236 285.462L222.5 288L217 285L216.588 283.281L223.236 285.462Z" fill="#CC857C"/>
<path d="M223.191 289.882L222.514 290.89L217.383 286.812L217.383 285.981L223.191 289.882Z" fill="#CC857C"/>
<path d="M222.192 292.431L220.5 294.5L216.5 288.5L217 288L222.192 292.431Z" fill="#CC857C"/>
<path d="M219.395 295.883L217.5 296.5L216 290L216.52 289.505L219.395 295.883Z" fill="#CC857C"/>
<path d="M216.014 295.789L214.742 295.914L215 290L215.479 290.375L216.014 295.789Z" fill="#CC857C"/>
<path d="M212.209 294.009L209.5 293L212.709 289.283L214.183 290.011L212.209 294.009Z" fill="#CC857C"/>
<path d="M209.801 292.393L209 291L210.975 288L211.776 288.396L209.801 292.393Z" fill="#CC857C"/>
<path d="M208.5 291L208 290L209.5 286L210.776 287.396L208.5 291Z" fill="#CC857C"/>
<rect x="207.169" y="289.575" width="1.30334" height="4.45864" transform="rotate(-153.711 207.169 289.575)" fill="#CC857C"/>
<path d="M204.5 288L204 286.998L205.975 283L207.718 283.861L204.5 288Z" fill="#CC857C"/>
<rect x="202.867" y="284.43" width="1.09599" height="4.45864" transform="rotate(-150.441 202.867 284.43)" fill="#CC857C"/>
<path d="M200.5 282.5L200.11 281.104L202.654 277.182L203.471 277.913L200.5 282.5Z" fill="#CC857C"/>
<rect x="198.817" y="280.488" width="1.31374" height="5.04109" transform="rotate(-138.192 198.817 280.488)" fill="#CC857C"/>
<path d="M197.426 278.813L196.698 278.372L199.311 274.061L199.5 275L197.426 278.813Z" fill="#CC857C"/>
<rect x="195.81" y="277.802" width="0.946476" height="5.04109" transform="rotate(-148.789 195.81 277.802)" fill="#CC857C"/>
<path d="M194.88 277.116L193.5 276.5L195.671 271.64L196.5 272L194.88 277.116Z" fill="#CC857C"/>
<rect x="192.54" y="275.1" width="0.904562" height="5.32323" transform="rotate(-149.182 192.54 275.1)" fill="#CC857C"/>
<path d="M189.103 269.655L187.902 268.354L192.5 265L193.015 266.045L189.103 269.655Z" fill="#CC857C"/>
<path d="M187.883 265.815L187.103 265.815L190.707 261.898L192 264.5L187.883 265.815Z" fill="#CC857C"/>
<path d="M187 264L185.663 263.672L188.211 259.81L189.92 260.937L187 264Z" fill="#CC857C"/>
<path d="M184.793 261.386L184 260.863L186.548 257L187.5 259L184.793 261.386Z" fill="#CC857C"/>
<rect x="182.793" y="261.386" width="0.949943" height="4.62731" transform="rotate(-146.588 182.793 261.386)" fill="#CC857C"/>
<path d="M181.5 258.5L180.241 258.362L182.789 254.499L184.341 255.523L181.5 258.5Z" fill="#CC857C"/>
<rect x="178.956" y="257.493" width="1.14516" height="4.62731" transform="rotate(-146.588 178.956 257.493)" fill="#CC857C"/>
<rect x="176.571" y="256.317" width="1.14516" height="4.62731" transform="rotate(-136.394 176.571 256.317)" fill="#CC857C"/>
<rect x="174.143" y="253.551" width="1.14516" height="4.62731" transform="rotate(-114.508 174.143 253.551)" fill="#CC857C"/>
<path d="M173.167 250.798L172.978 249.179L177.575 248.644L177.5 249.5L173.167 250.798Z" fill="#CC857C"/>
<rect x="173.014" y="248.101" width="0.987965" height="4.62731" transform="rotate(-86.2827 173.014 248.101)" fill="#CC857C"/>
<path d="M173 245.986L173 243L177.733 244.508L177.618 246.286L173 245.986Z" fill="#CC857C"/>
<rect x="172.888" y="242.111" width="1.15187" height="4.62731" transform="rotate(-70.6072 172.888 242.111)" fill="#CC857C"/>
<path d="M173 240.087L173.382 239L177.747 240.536L177.5 240.5L173 240.087Z" fill="#CC857C"/>
<path d="M173 237.087L173.737 234.992L178.102 236.528L177 238L173 237.087Z" fill="#CC857C"/>
<path d="M173.656 232.5L173.656 230.034L178.224 230.77L177.659 234.28L173.656 232.5Z" fill="#CC857C"/>
<path d="M191 273L189.5 270.5L193.5 269.5L194.126 269.197L191 273Z" fill="#CC857C"/>
</g>
<path d="M177.8 252.6C178.3 252.9 179 253.5 179.8 254.1C180.6 254.7 181.2 255.1 181.5 255.3C182.7 256.2 184.2 257.5 186.9 259.9C187.6 260.5 188.3 261.1 189.2 262.1C189.9 262.9 190.3 263.4 190.6 263.9C191.2 265.1 191.3 266.6 191.4 267C191.4 267.3 191.5 267.6 191.6 268.1C191.6 268.1 191.8 268.9 192.2 269.6C192.8 270.7 194 271.3 194.6 271.6C194.6 271.6 197.4 273.2 200.5 276C200.9 276.4 201.6 277.1 202.3 278.1C202.8 278.8 203 279.4 203.1 279.7C203.8 281.2 205 282.5 206.9 284.5C208.7 286.4 210 287.5 212.6 289.5C214.1 290.7 215.2 291.5 216.1 291.1C216.7 290.9 217 290.2 217.3 289.6C218.5 286.7 217.3 283.4 216.5 281.4C216.2 280.7 215.8 280 215.8 280C215.5 279.4 215.2 279.1 215.1 278.9C214.3 277.8 213.9 276.1 213.8 275.5C213.3 273.4 213.8 272.7 213.6 268.2C213.6 267.6 213.6 267.1 213.5 266.3C213.2 262.7 212.6 261.4 211.4 255.8C211 254 211 253.6 210.6 252.3C210.3 251.3 209.9 249.7 209.2 247.8C207.6 243.7 205.6 240.1 205.6 240.1C205.6 240.1 206.4 236 206.7 234.1C207.2 230.9 207.8 226.9 206.4 222.6C205.9 221.2 204.5 217.2 200.4 214.4C199.7 213.9 195.3 211 189.5 211.9C188.3 212.1 184.2 212.7 181.6 216.1C180.9 216.9 180.6 217.7 179.9 219.2C179.2 220.7 178.3 223 177.3 228.1C177.1 229.3 176.4 232.6 176 237.1C176 237.1 175.4 242.7 176 247.7C176 248.3 176.1 248.8 176.2 249.2C176.2 249.3 176.4 249.8 176.7 250.4C176.8 251 177.2 251.8 177.8 252.6Z" fill="#892A26"/>
<path d="M135 246C135.1 246.9 134.9 252.4 135.1 253.8C135.2 254.2 135.5 256.5 135.9 258.1C137.1 263 140.2 266.8 143.5 270.7C143.8 271 144 271.3 144.2 271.5C145.6 273.1 148.5 276.4 152.7 279.8C156.8 283.2 159.1 285.1 162.8 286.5C165.7 287.6 166.1 287.2 171.4 289C175.3 290.4 177.4 291.4 179 292.4C181.6 294 181.2 294.3 183 295.3C187.7 297.9 194.6 297.1 194.6 297.1C198 296.7 200.1 296.5 200.7 295C201.4 293.4 199.7 291 198.4 289C197.9 288.3 197.5 287.8 196.6 286.7C194.7 284.4 193.4 283.6 192.5 282.5C189 278 187.5 275 186.1 272C185.4 270.5 185.2 269.5 185 268.6C184.8 267.9 184.7 267.2 184.3 266.2C184.3 266.1 184 265.4 183.5 264.6C182.7 263.2 181.9 262.4 179.1 259.6C177.9 258.3 177.6 258.1 177.2 257.6C175.9 256.2 175.3 255.2 175 254.8C174.5 254 174.2 253.6 174 253.1C173.4 251.7 173.3 250.4 173.3 248.5C173.3 247.9 173.3 247.4 173.3 246.5C173.4 243.6 173.4 242.9 173.4 241.7C173.4 240 173.4 239.7 173.3 238.4C173.2 237.4 173.2 236.9 173.2 236C173.2 234.5 173.1 233.4 173 232.2C172.8 230.3 172.6 228.6 171.7 226.7C171.6 226.5 171.2 225.6 170.4 224.5C170.2 224.2 169.1 222.7 167.3 221.3C166.7 220.8 166 220.423 165.8 220.3C164.5 219.5 164.1 219.4 164 219.3C163.3 219 162.3 218.6 160.9 218.4C160.2 218.3 158.5 218.5 157.5 218.5C157.6 218.5 159.066 218.3 159.366 218.3C161.166 218.3 161.5 218.3 162.6 218.3C164.9 218.4 166.8 218 167.8 217.7C168.1 217.6 168.3 217.6 168.6 217.5C168.6 217.5 169.3 217.3 170 217C171.7 216.4 178.5 213.3 181.4 211.7C181.8 211.5 182.3 211.2 182.9 211C183.3 210.8 183.7 210.7 184 210.6C183.7 210.8 183.3 211 182.9 211.3C182.1 211.9 181 212.6 180.1 213.8C179.9 214.1 179.6 214.6 179.1 215.5C178.6 216.4 178.2 217.2 178.1 217.5C177.3 219.3 176.8 221.2 176.6 222.1C175.7 225.9 175.3 229.2 175 231.5C174.8 233.1 174.7 233.8 174.4 236.7C174.2 238.2 174.2 238.4 174.1 238.9C173.9 240.9 174 242.6 174.1 243.8C174.1 244.5 174.2 245.1 174.2 246C174.4 248.8 175.2 251.3 175.2 251.3C175.6 252.8 175.9 253.5 176.3 254.1C177.1 255.2 177.7 255.2 179.8 256.6C181.8 257.9 183.2 259.2 184.4 260.3C184.8 260.6 185.6 261.4 186.6 262.6C187.2 263.3 187.5 263.7 187.8 264.3C188.2 265 188.4 265.7 188.8 266.6C189.1 267.5 189.3 268 189.3 268C189.4 268.4 189.5 268.7 189.7 269.2C189.8 269.6 190 269.8 190 269.9C190.6 271.1 191.3 271.9 192.2 272.8C193.2 273.9 193.6 274.1 195 275.4C195.6 276 196.1 276.5 197.8 278.2C200.3 280.8 201.6 282.1 203.3 284C207.4 288.5 208.8 290.6 212.3 293.1C214.5 294.7 216.3 295.5 217.8 294.9C218.8 294.5 219.4 293.7 219.8 293.1C219.9 293 220 292.8 220.1 292.6C220.9 291.1 221.1 288.2 221.1 285.3C221.1 283.7 221.1 282.6 220.9 281.2C220.8 280.5 220.8 280.1 220.7 279.8C220.1 277.6 218.8 277.2 217.9 275.1C217.6 274.4 217.5 273.9 217.4 273C216.6 268.5 218.6 267.3 218 264.2C217.1 260.2 214.9 259.2 214 256.7C213.6 255.6 213.7 254.3 213.7 254.3C213.7 254 213.7 253.7 213.7 253.3C213.7 252.2 213.9 251.9 213.8 251C213.8 250.8 213.7 250.5 213.6 249.9C213.5 249.1 213.3 248.3 213.2 248C213.1 247.8 213 247.2 213 247.2C213 247.2 212.7 246.7 212.7 246.6C212.4 245.9 211.7 244.8 211.6 244.7C211 243.7 210.7 243.2 210.4 242.8C210.1 242.5 209.9 242.4 209.6 242C209.2 241.5 208.8 240.9 208.8 240.9C208.8 240.9 208 239.3 208 237.5C208 237.4 208.1 236.7 208.2 235.2C208.2 235.1 208.2 234.7 208.3 234.1C208.4 233.3 208.4 233.2 208.4 233.1C208.5 232.2 208.6 232.2 208.6 231.7C208.6 231.7 208.6 231.5 208.6 230.5C208.6 230.5 208.7 230.1 208.7 229.8C208.7 229.6 208.7 229.6 208.6 228.9C208.6 228.5 208.6 228.3 208.6 228.1C208.6 227.7 208.6 227.3 208.6 227.3C208.6 227.3 208.5 226.6 208.4 226C208.3 225.6 208.3 225.4 208.3 225.2C208.1 223.9 207.8 222.8 207.6 221.9C207.4 221.2 207.3 220.8 207.1 220.4C207 220.1 206.8 219.9 206.7 219.6C206.6 219.4 206.5 219.2 206.4 219C206.4 218.9 206.3 218.8 206.3 218.7C206.2 218.5 206.1 218.3 206.1 218.2C205.7 217.5 205.6 217.3 205.6 217.3C204.9 216.2 204.5 215.6 203.8 214.9C203.7 214.8 203 214 202 213.2C201.6 212.9 201.2 212.642 201 212.5C200.308 212.009 199.5 211.5 199.5 211.5L197.5 210.5C196.3 210.1 194.957 209.7 194.357 209.6C194.057 209.5 193 209.1 192 209C191.8 209 191.1 209 191 209C191.2 209 192.1 209 192.5 209C194 209 194.9 209.4 196.1 209.6C196.5 209.7 197.5 209.8 198.7 210.2C198.7 210.2 200 210.6 201.2 211.2C204 212.7 206.4 215.6 206.7 216C208 217.6 212.3 222.7 212.5 229.5C212.6 232.9 211.8 237.8 211.8 237.8C215.7 242.1 217.4 244.6 217.4 244.6C221.7 250.9 222.6 258.3 222.8 260.7C223 263 222.9 264.4 223.5 267.2C224.2 270.3 225 271.4 225.9 274.3C226 274.7 227.2 278.7 227.4 283C227.5 285.9 227.7 292.9 223.1 297.9C220.7 300.6 217.9 301.5 214.7 302.6C211.6 303.7 206.1 305 196.4 304.2C185.3 303.2 177.1 300 171.1 297.7C163.4 294.7 158 291.6 155.3 289.9C147.9 285.4 142.8 282.2 138.9 275.8C138 274.2 135.9 270.7 134.9 265.7C134.2 262.3 134.3 259.2 134.4 256C134.5 253.4 134.9 247.3 135 246Z" fill="#F0C6BF" stroke="#D5A19C" stroke-width="0.25" stroke-miterlimit="10"/>
<path d="M195.5 297.7C195.5 298.1 201.7 299 203.2 296.5C204.5 294.3 201.5 290.4 198.6 286.7C195.7 282.9 194.4 282.6 191.6 278.4C191 277.6 190.2 275.8 188.5 273C186.9 270.4 187.1 270.8 186.8 270.1C186.8 270.1 184.1 264.6 183.6 263.7C183.6 263.7 184.4 265.6 185.1 267.5C185.6 268.9 185.6 269 186 270C186.8 272.2 187.7 273.8 188.2 274.8C188.8 275.9 189.9 277.8 191.5 279.9C193.9 283.1 194.7 283.3 196.9 286C199.2 288.9 202.5 292.9 201.3 295.3C200.1 297.8 195.5 297.4 195.5 297.7Z" fill="#FBEFF3"/>
<path d="M136.1 266C136.1 266 136.7 268.3 138.2 271.1C139.9 274.3 142 276.6 144 278.4C150.1 284.2 156.8 288.3 157.9 289C157.9 289 163.9 292.6 176.6 298.4C176.6 298.4 169 295.8 162.4 292.7C158.6 290.9 154 288.7 148.7 284.6C145.3 281.9 142.3 279.5 139.7 275.4C136.9 270.7 136 266 136.1 266Z" fill="#FBEFF3"/>
<path d="M220.8 298.8C220.8 298.8 222.6 294.9 223.5 292C224.9 287.5 224.7 283.8 224.7 282.8C224.5 279.9 223.8 275.5 222.3 273.1C222.1 272.8 221.2 271.4 220.8 269.4C220.7 268.8 220.6 268.2 220.6 268.1C220.4 266.6 220.6 265.4 220.7 265.1C221 263.2 220.4 258 218.6 252.9C216.8 247.6 214.2 244.2 213.8 243.6C213.1 242.7 212.2 241.7 212.2 241.7C212 241.5 211.8 241.2 211.6 241C209.9 239.1 208.9 238.4 209 237.3C209 236.9 209.2 236.8 210 235.5C210.7 234.4 210.9 232.6 210.9 232.6C211.3 229.2 211.3 229.2 211.4 229.1C211.4 229.1 211.4 227.3 210.9 224.8C210.9 224.8 211.4 226.5 211.7 228.1C211.9 229.2 212 229.8 212 230.6C212 232.7 211.4 235 211.3 235.3C211.1 236 210.9 236.6 211.1 237.4C211.3 238.1 211.8 238.6 212 238.8C212.9 239.7 214.2 241.4 216.7 244.8C218.2 246.8 218.8 248.4 220 251.6C221 254.3 221.6 255.8 221.8 258C222.2 261.9 222.2 264.1 222.2 264.1C222.2 264.4 222.2 265.4 222.5 266.6C222.7 267.5 223 268.2 223.1 268.4C224 270.5 225 274.3 225.4 276.3C226.2 280.5 226.1 283.8 226.1 284.7C226 286.1 225.9 287.9 225.3 290.2C224.9 291.9 224.3 294 222.8 296.1C222.2 297 220.8 298.8 220.8 298.8Z" fill="#D5A19C"/>
<defs>
<clipPath id="clip0_3881_257113">
<rect width="360" height="378" fill="white"/>
</clipPath>
</defs>
</svg>
