<svg width="360" height="378" viewBox="0 0 360 378" fill="none" xmlns="http://www.w3.org/2000/svg">
<g clip-path="url(#clip0_3685:257651)">
<path d="M305.8 377.9C305.8 377.9 304.3 364.7 302 352.9C300.5 345.2 299.6 342.2 297.9 335.1C293.7 317.4 289.9 307.6 291.1 295.2C292.5 280.2 291.9 265.3 290 257.5C288.1 249.7 287.3 250.3 290.3 234.5C293.3 218.7 287.3 201.2 278 184.6C268.7 168 248.7 167.7 243.5 163.8C238.3 159.9 228.2 157.7 218.6 152.2C209 146.7 202.7 145 202.7 141.1C202.7 137.2 202.4 127 206.3 118.7C210.1 110.4 210.1 102.1 210.1 102.1C214.2 104.3 214.5 100.4 218 93C221.6 85.5 222.7 80.5 221.8 76.6C221 72.7 217.4 73.3 217.4 73.3C217.4 73.3 223.7 49.2 211.4 33.7C201.6 21.3 186.7 19 181.1 18.6V18.4C181.1 18.4 180.7 18.4 180 18.4C179.3 18.4 178.9 18.4 178.9 18.4V18.5C173.3 18.9 158.4 21.3 148.6 33.6C136.3 49.1 142.6 73.2 142.6 73.2C142.6 73.2 139 72.6 138.2 76.5C137.4 80.4 138.5 85.4 142 92.9C145.6 100.4 145.8 104.3 149.9 102C149.9 102 149.9 110.3 153.7 118.6C157.5 126.9 157.3 137.2 157.3 141C157.3 144.9 151 146.5 141.4 152.1C131.8 157.6 121.7 159.9 116.5 163.7C111.3 167.6 91.3 167.8 82 184.5C72.7 201.1 66.7 218.6 69.7 234.4C72.7 250.2 71.9 249.6 70 257.4C68.1 265.2 67.5 280.1 68.9 295.1C70.3 310.1 66.2 323.1 62.1 335C59.5 342.6 58.2 346.3 56.7 354.7C54.9 365 54.2 377.8 54.2 377.8L96.4 378C96.4 378 98 369.6 98.1 368.8C99.7 360 100.9 344.7 102.8 322.9C103.2 318.8 102.7 324.4 106.8 298.5C107.4 294.6 107.9 291.8 108.9 291.7C111.5 291.4 115.2 308.4 115.6 310.2C118.2 322.1 120.2 331.6 118.4 343.8C117.2 351.7 113.8 365 113 372C113 372.1 112.3 378 112.3 378H247.3C247.3 378 246.2 369.1 246.1 368C244 350.9 241.3 345.9 241 334.1C240.8 324.1 242.5 316.6 244.4 308.6C245.6 303.6 248.4 291.6 250.8 291.8C252.1 291.9 252.8 295.3 255.1 310.2C256.8 321.4 257.6 327 258.1 331.8C260 349.2 260 357.9 261.8 368.4C262 369.4 263.4 378.1 263.4 378.1C263.5 378 305.8 377.9 305.8 377.9Z" fill="#FCD4C5"/>
</g>
<path d="M137.1 261.7C137.7 263 138.3 263.9 139.2 265.4C140.3 267.1 141.7 269 144.1 271.7C145.5 273.3 147.3 275.3 149.8 277.6C150.8 278.6 151.6 279.2 153 280.4C156.5 283.4 158 284.4 158.7 284.8C158.7 284.8 160.5 286 162.3 286.7C162.8 286.9 163.2 287 163.2 287C163.4 287.1 163.8 287.2 164.4 287.4C165.4 287.7 166.2 287.8 166.5 287.9C167.4 288.1 168.1 288.3 169.6 288.8C172 289.6 173.9 290.3 174.6 290.6C174.6 290.6 176.9 291.6 178.4 292.4C178.6 292.5 178.9 292.7 179.4 293C179.9 293.3 180.1 293.4 180.3 293.6C180.6 293.8 180.8 294 180.9 294.1C180.9 294.1 181.5 294.7 182.4 295.3C183.2 295.8 183.9 296.1 184.7 296.4C186 296.9 187.1 297.2 187.4 297.2C188.9 297.5 190 297.5 191.4 297.5C192.2 297.5 193.2 297.4 195 297.3C195.5 297.3 196.2 297.2 197.3 297.1C199 296.9 199.8 296.7 200.3 296.1C200.6 295.8 200.7 295.5 200.7 295.4C200.8 295.2 200.8 295 200.8 294.8C200.9 294.3 200.8 293.9 200.7 293.5C200.4 292.3 199.6 290.8 199.5 290.6C198.1 288.5 196.9 287 196.4 286.3C196 285.8 195.5 285.3 195.5 285.3C195.1 284.9 194.8 284.6 194.7 284.5C194.2 284 193.9 283.7 193.8 283.6C192.8 282.6 191.9 281.4 191.4 280.9C191.1 280.5 190.3 279.1 189.5 278C188.1 275.9 187.5 274.5 187 273.5C186.6 272.6 186.3 271.7 186 271C185.5 269.8 185.3 269.4 185 268.5C184.8 267.8 184.7 267.8 184.4 266.8C184.1 265.8 183.9 265.4 183.8 265.3C183.7 265.1 183.4 264.5 183 263.8C182.4 262.8 181.7 262.1 181.2 261.6C179.8 260.1 179.2 259.6 178 258.5C176.5 257 175.9 256.2 175.3 255.2C174.5 253.9 174 253.3 173.8 252.3C173.6 251.6 173.6 250.9 173.5 249.7C173.5 249.1 173.4 248.5 173.4 247.7C173.4 246.1 173.5 244.9 173.5 244.1C173.6 242.5 173.5 241 173.5 238.2C173.5 236.1 173.4 235.1 173.3 234C173.1 231.4 173 230 172.5 228.4C171.4 225 169.2 222.9 168.4 222.2C165.8 219.8 162.8 218.7 160.6 218.4C159.7 218.3 158.8 218.3 158.8 218.3C157.4 218.3 156.3 218.1 155 218.5C148.9 220 145 223.9 143 226C141.7 227.3 139.7 229 138 232.5C136.9 234.9 136.2 237.6 135.7 239.7C135 242.8 134.9 245.5 134.7 249.4C134.7 249.6 134.7 250 134.7 250.6C134.7 251.9 134.9 252.9 135 253.4C135.5 256.6 136 259.3 137.1 261.7Z" fill="#D7998E"/>
<path d="M176.5 254.2C176.7 254.5 177 254.7 177 254.7C177.8 255.4 178.7 255.6 183.3 259.4C185.7 261.3 187.2 262.8 188.2 265C188.8 266.2 188.8 266.9 189.1 267.9C190.2 271.6 192.7 273.3 197.3 277.8C200.7 281.1 203.2 284 204.1 285C206.8 288.1 209.7 291.8 213.9 294.1C214.8 294.6 216.3 295.3 217.7 294.9C219 294.5 219.7 293.2 220.1 292.3C220.6 291.4 221 290.1 221.1 285.7C221.1 285.7 221.4 280.3 220.3 278.3C220.1 277.9 219.9 277.6 219.9 277.6C219.4 276.8 219 276.5 218.7 276.1C218.1 275.3 217.9 274.5 217.8 274.1C217.5 273 217.5 272 217.6 271.4C217.7 270 217.9 270 218.2 268.1C218.3 267.2 218.4 266.3 218.3 265.1C218.2 264.5 218.1 263.9 218 263.7C218 263.7 217.9 263.3 217.8 262.9C217.4 261.6 216.7 260.6 216.6 260.4C215.9 259.3 215.6 259.2 214.9 258C214.8 257.8 214.6 257.5 214.5 257.1C214.3 256.7 214 255.7 213.9 254.6C213.8 254 213.9 253.4 213.9 253.3C213.9 252.8 214 252.6 214 252.1C214.1 251.5 214 251 213.9 250.3C213.8 249.8 213.8 249.1 213.6 248.3C213.6 248.2 213.5 248 213.5 247.7C213.4 247.3 213.4 247.2 213.3 247C213.2 246.8 213.1 246.6 213 246.3C212.6 245.5 212.4 245.1 212.4 245.1C212.4 245 211.9 244.2 211.4 243.5C211.3 243.4 211.2 243.2 210.9 242.7C210.7 242.4 210.7 242.4 210.6 242.4C210.3 242 210.1 242 209.9 241.7C209.8 241.6 209.7 241.4 209.6 241.3C209.5 241.1 209.5 241 209.4 240.9C209.4 240.8 208.9 240.4 209.1 240.6C208.9 240.1 208.8 239.8 208.7 239.5C208.6 239.2 208.5 239.1 208.5 238.9C208.4 238.5 208.4 238.1 208.4 238C208.5 236.7 208.4 236.5 208.5 234.9C208.5 234.3 208.6 233.8 208.6 233.5C208.6 233.2 208.7 232.9 208.7 232.5C208.8 231.9 208.8 231.6 208.9 231.3C208.9 231.3 209 230.6 209 229.4C209 228.5 208.8 222.8 206.8 218.6C206.1 217.1 205.1 215.7 205.1 215.7C205.1 215.7 204.8 215.2 204.4 214.8C203.6 213.8 201 211.2 196.9 209.8C194.1 208.8 191.7 208.9 191.1 208.9C189.3 208.9 187.8 209.3 186.7 209.6C184.8 210.1 183.4 210.7 182.8 211C181.1 211.8 178.8 213.9 176.6 221.8C175.2 226.7 175.4 230.2 174.3 236.3C174.2 236.5 172.9 250.1 176.5 254.2Z" fill="#D7998E"/>
<path d="M158.4 218.1C158.4 218.5 158.4 219 158.4 219.4C158.8 219.4 159.3 219.4 159.8 219.4C160.1 219.4 160.4 219.5 160.7 219.5C160.7 219.1 160.7 218.7 160.7 218.3C160.4 218.2 160 218.2 159.6 218.2C159.1 218.1 158.7 218.1 158.4 218.1Z" fill="#CC857C"/>
<path d="M154.4 218.9C154.5 219.2 154.6 219.6 154.8 219.9C155.1 219.8 155.4 219.8 155.7 219.7L155.3 218.6C155 218.7 154.7 218.8 154.4 218.9Z" fill="#CC857C"/>
<path d="M152.5 219.5C152.7 219.8 152.9 220.1 153.1 220.5C153.3 220.4 153.6 220.3 153.8 220.2C153.8 220.1 153.7 220 153.7 219.9C153.6 219.7 153.4 219.4 153.3 219.2C153.1 219.3 153 219.3 152.8 219.4C152.7 219.4 152.6 219.4 152.5 219.5Z" fill="#CC857C"/>
<path d="M148.3 221.6C148.4 221.7 148.5 221.8 148.6 221.9C148.8 222.1 149 222.4 149.2 222.6C149.4 222.4 149.7 222.3 149.9 222.1C149.7 221.9 149.6 221.8 149.4 221.6C149.3 221.5 149.2 221.3 149 221.2C148.8 221.3 148.5 221.4 148.3 221.6Z" fill="#CC857C"/>
<path d="M150.9 220.1C151 220.2 151.1 220.3 151.2 220.4C151.3 220.6 151.5 220.7 151.5 220.9C151.6 221 151.6 221.1 151.6 221.1L152.3 220.8C152.2 220.7 152.1 220.5 152 220.3C151.9 220.1 151.8 219.9 151.7 219.7C151.6 219.8 151.4 219.8 151.3 219.9C151.2 220 151.1 220.1 150.9 220.1Z" fill="#CC857C"/>
<path d="M146.7 222.7C147.1 223 147.4 223.3 147.8 223.6C148 223.4 148.2 223.3 148.5 223.1C148.3 222.9 148.2 222.8 148 222.6C147.8 222.4 147.7 222.3 147.5 222.1C147.2 222.3 146.9 222.5 146.7 222.7Z" fill="#CC857C"/>
<path d="M144.1 224.9C144.3 225.1 144.4 225.2 144.6 225.4C144.8 225.6 144.9 225.7 145.1 225.9L146.7 224.4C146.6 224.3 146.4 224.1 146.2 224C146 223.8 145.8 223.7 145.6 223.5C145.4 223.6 145.3 223.8 145.1 223.9C144.8 224.3 144.4 224.6 144.1 224.9Z" fill="#CC857C"/>
<path d="M143 226L144.027 227.473L144.527 226.973C144.327 226.873 144.127 226.573 144.027 226.473C143.834 226.28 143.527 225.773 143.427 225.673C143.327 225.773 143.327 225.773 143.227 225.873C143.027 225.973 143.1 226 143 226Z" fill="#CC857C"/>
<path d="M141.5 227.6C141.7 227.7 141.9 227.9 142.1 228.1C142.3 228.3 142.5 228.4 142.7 228.6C142.8 228.5 142.9 228.3 143.1 228.2C143.2 228.1 143.3 227.9 143.4 227.8L142.3 226.9C142 227.1 141.7 227.3 141.5 227.6Z" fill="#CC857C"/>
<path d="M140.8 228.4C141 228.6 141.2 228.7 141.4 228.9C141.6 229.1 141.8 229.2 142 229.4L141.2 230.6L140.5 230.1L139.9 229.6C140 229.4 140.2 229.2 140.3 229C140.5 228.7 140.7 228.5 140.8 228.4Z" fill="#CC857C"/>
<path d="M138.7 231.4L139.5 231.9L140.3 232.4L140.8 231.5C140.3 231.2 139.8 230.8 139.3 230.5C139.2 230.6 139.1 230.8 139 230.9C138.9 231.1 138.8 231.2 138.7 231.4Z" fill="#CC857C"/>
<path d="M137 235C137.7 235.3 138.4 235.6 139.1 235.9L139.8 233.6C139.5 233.4 139.2 233.2 139 233.1C138.9 233 138.8 232.9 138.6 232.8C138.4 232.7 138.2 232.6 138.1 232.5C138 232.7 137.9 233 137.8 233.1C137.7 233.4 137.5 233.8 137.3 234.3C137.1 234.6 137.1 234.8 137 235Z" fill="#CC857C"/>
<path d="M136 238.3C137 238.9 137.9 239.5 138.9 240.2C138.9 239.3 138.9 238.4 138.9 237.5C138.3 237.1 137.7 236.8 137.1 236.4C136.9 236.3 136.7 236.2 136.6 236.1C136.4 236.8 136.2 237.6 136 238.3Z" fill="#CC857C"/>
<path d="M135.5 240.7C136.1 240.8 136.6 241 137.3 241.2C137.9 241.4 138.4 241.5 138.9 241.7C138.9 241.5 138.9 241.3 138.9 241.1C137.8 240.7 136.8 240.3 135.7 239.9C135.6 240.2 135.5 240.4 135.5 240.7Z" fill="#CC857C"/>
<path d="M135.2 242.5C135.7 242.7 136.3 243 136.9 243.2C137.5 243.4 138.1 243.6 138.6 243.8C138.6 243.5 138.7 243.2 138.7 242.9C138.2 242.7 137.6 242.5 137.1 242.3C136.5 242.1 135.9 241.9 135.3 241.7C135.3 241.9 135.2 242.2 135.2 242.5Z" fill="#CC857C"/>
<path d="M135 244.5C135.6 244.7 136.1 244.8 136.7 245.1C137.3 245.3 137.8 245.5 138.3 245.7L138.4 245C137.9 244.8 137.3 244.6 136.8 244.4C136.2 244.2 135.6 244 135 243.8C135 244 135 244.3 135 244.5Z" fill="#CC857C"/>
<path d="M134.8 247.4C135.3 247.6 135.9 247.7 136.4 247.9C136.9 248.1 137.4 248.2 137.9 248.4C138 247.9 138 247.5 138.1 247C137.6 246.8 137.1 246.6 136.5 246.4C135.9 246.2 135.4 246 134.9 245.7C134.9 246.3 134.8 246.8 134.8 247.4Z" fill="#CC857C"/>
<path d="M134.7 249.1C135.7 249.2 136.7 249.3 137.8 249.4C137.8 249.8 137.7 250.3 137.7 250.7C136.7 250.6 135.8 250.4 134.8 250.3C134.8 250 134.8 249.7 134.8 249.4C134.7 249.3 134.7 249.2 134.7 249.1Z" fill="#CC857C"/>
<path d="M134.9 252.7C135.8 252.8 136.6 252.8 137.5 252.9C137.5 252.7 137.5 252.5 137.5 252.4C137.5 252.2 137.5 252.1 137.5 251.9C137.2 251.9 136.9 251.8 136.7 251.8C136.1 251.7 135.8 251.7 135.3 251.6C135 251.6 134.8 251.5 134.7 251.5C134.7 251.7 134.8 251.9 134.8 252.1C134.9 252.3 134.9 252.5 134.9 252.7Z" fill="#CC857C"/>
<path d="M135 253.8C135.2 253.8 135.4 253.9 135.6 253.9C136.2 254 136.8 254.1 137.5 254.2C137.5 254.6 137.5 255 137.5 255.4L135.3 255.3L135 253.8Z" fill="#CC857C"/>
<path d="M135.4 256.2L137.6 256.5L137.8 257.2L135.5 257.1L135.4 256.2Z" fill="#CC857C"/>
<path d="M135.8 258C136.6 258.1 137.4 258.1 138.2 258.2C138.3 258.5 138.5 258.7 138.6 259C137.8 258.9 136.9 258.9 136.1 258.8L135.8 258Z" fill="#CC857C"/>
<path d="M136.5 260.2L139.1 260.1L138.9 259.7L136.3 259.8L136.5 260.2Z" fill="#CC857C"/>
<path d="M136.9 261.1L139.4 260.6L139.7 261.1L137.2 261.8L136.9 261.1Z" fill="#CC857C"/>
<path d="M137.6 262.5L140 261.6L140.3 261.9L138 263.3L137.6 262.5Z" fill="#CC857C"/>
<path d="M138.2 263.8L138.7 264.4L140.9 262.8L140.6 262.4L138.2 263.8Z" fill="#CC857C"/>
<path d="M139 265.1L139.5 265.7L142 264L141.5 263.5L139 265.1Z" fill="#CC857C"/>
<path d="M139.9 266.3L142.6 264.7C142.9 265 143 265.1 143 265.1C143 265.1 143.1 265.2 143.2 265.4C142.2 265.9 141.2 266.3 140.2 266.8L139.9 266.3Z" fill="#CC857C"/>
<path d="M141 267.7L141.5 268.4L144 267.1L143.7 266.4L141 267.7Z" fill="#CC857C"/>
<path d="M142.4 269.5L144.5 268.3L144.9 269.2L142.9 270.1L142.4 269.5Z" fill="#CC857C"/>
<path d="M143.7 271.1L144.3 271.9L145.9 270.9L145.4 270.1L143.7 271.1Z" fill="#CC857C"/>
<path d="M145.2 272.8L146.4 274.1L147.9 272.8L146.7 271.7L145.2 272.8Z" fill="#CC857C"/>
<path d="M147.8 275.6L148.6 276.3L150.4 274.8L149.8 274.2L147.8 275.6Z" fill="#CC857C"/>
<path d="M149.1 276.9L149.9 277.6L151.6 276L151.1 275.4L149.1 276.9Z" fill="#CC857C"/>
<path d="M150.5 278.1L151.9 279.4L153.4 278L152.3 276.6L150.5 278.1Z" fill="#CC857C"/>
<path d="M153.2 280.5L153.9 281L155.1 279.8L154.6 279.3L153.2 280.5Z" fill="#CC857C"/>
<path d="M154.6 281.6L156 282.7L157 281.3L155.7 280.3L154.6 281.6Z" fill="#CC857C"/>
<path d="M156.9 283.4L157.2 283.6L158.4 282.2L157.8 281.9L156.9 283.4Z" fill="#CC857C"/>
<path d="M159 282.5L158 284.2L159 284.8L160.2 283.2L159 282.5Z" fill="#CC857C"/>
<path d="M160.9 283.6L159.7 285.2L160.5 285.7L161.6 283.9L160.9 283.6Z" fill="#CC857C"/>
<path d="M161.5 286.2L162.8 284.4L163.8 284.7L162.5 286.6L161.5 286.2Z" fill="#CC857C"/>
<path d="M163.4 286.9L164.7 284.9L165.8 285.1L164.4 287.3L163.4 286.9Z" fill="#CC857C"/>
<path d="M165.2 287.5L166.5 285.2L167.5 285.3L166.5 287.8L165.2 287.5Z" fill="#CC857C"/>
<path d="M167.2 287.9L168.2 285.4L169 285.5L167.9 288.1L167.2 287.9Z" fill="#CC857C"/>
<path d="M168.7 288.4L169.5 288.6L171.1 286L169.9 285.7L168.7 288.4Z" fill="#CC857C"/>
<path d="M170.2 288.8L172 286.3L173 286.7L171 289.1L170.2 288.8Z" fill="#CC857C"/>
<path d="M171.9 289.4L173.9 287.1L175 287.7L173.1 289.9L171.9 289.4Z" fill="#CC857C"/>
<path d="M174 290.2L175.3 290.8L176.9 288.9L175.7 288.1L174 290.2Z" fill="#CC857C"/>
<path d="M176.3 291.2L178.4 292.3L179.6 290.5L178.2 289.6L176.3 291.2Z" fill="#CC857C"/>
<path d="M180.6 290.9L179.2 292.8L180.4 293.6L181.3 291.3L180.6 290.9Z" fill="#CC857C"/>
<path d="M180.9 294C180.9 294 181.4 294.5 181.9 294.9C182.2 295.1 182.6 295.4 182.6 295.4L183.3 292.2L182.4 291.8L180.9 294Z" fill="#CC857C"/>
<path d="M184.1 292.5L183.6 295.9L184.8 296.4L184.9 292.8L184.1 292.5Z" fill="#CC857C"/>
<path d="M185.7 293C185.7 293 185.7 293.7 185.8 296.7L186.2 296.8C186.4 296.9 186.6 296.9 186.6 296.9C186.5 294.5 186.5 293.2 186.5 293.2C186.4 293.3 185.7 293 185.7 293Z" fill="#CC857C"/>
<path d="M187.4 293.5L187.6 297.2L188.6 297.4L188.4 293.7L187.4 293.5Z" fill="#CC857C"/>
<path d="M189.5 293.9V297.5C189.5 297.5 190 297.5 190.6 297.6C191.1 297.6 191.6 297.6 191.6 297.6L191.4 294.1C191.4 294 189.5 293.9 189.5 293.9Z" fill="#CC857C"/>
<path d="M192.2 294.1L192.6 297.5L193.6 297.4L193 294.1H192.2Z" fill="#CC857C"/>
<path d="M193.7 294L194.7 297.4L197.5 297.1L194.9 293.8L193.7 294Z" fill="#CC857C"/>
<path d="M195.8 293.3L199.2 296.7C199.2 296.7 199.8 296.6 200.3 296.2C200.6 295.9 200.8 295.4 200.8 295.4L196 292.7C196 292.7 196 292.9 196 293C195.9 293.1 195.8 293.3 195.8 293.3Z" fill="#CC857C"/>
<path d="M195.2 290.6L201 294.3C201 294.3 200.9 293.7 200.9 293.6C200.9 293.6 200.8 292.8 199.5 290.7L194.8 290C194.8 290 194.9 290.1 194.9 290.2C195.1 290.5 195.2 290.6 195.2 290.6Z" fill="#CC857C"/>
<path d="M194.1 289L198.5 289.3L197.4 287.7L193.6 288.2L194.1 289Z" fill="#CC857C"/>
<path d="M193.1 287.6L196.9 287.1L195.9 285.9L192.9 287.3L193.1 287.6Z" fill="#CC857C"/>
<path d="M192.3 286.6L195.4 285.3L194.6 284.6L192.1 286.2L192.3 286.6Z" fill="#CC857C"/>
<path d="M191.4 285.4L194 283.9L192.8 282.5L190.2 284L191.4 285.4Z" fill="#CC857C"/>
<path d="M189.7 283.4L192.2 281.8L191.4 280.7L189.3 282.8L189.7 283.4Z" fill="#CC857C"/>
<path d="M188.7 282.1L191 280.3L190 278.8L187.3 280.5L188.7 282.1Z" fill="#CC857C"/>
<path d="M186.9 280L189.5 278.1L189.2 277.5L186.5 279.4L186.9 280Z" fill="#CC857C"/>
<path d="M186.2 278.9L188.8 277L188.4 276.2L185.7 278.2L186.2 278.9Z" fill="#CC857C"/>
<path d="M185.2 277.4L188 275.5L187.3 274.1L184.7 276.3L185.2 277.4Z" fill="#CC857C"/>
<path d="M184.3 275.2L186.8 273.1L186.1 271.6L184 273.9L184.3 275.2Z" fill="#CC857C"/>
<path d="M183.4 271.7L183.7 272.9L185.7 270.7L185.2 269.3L183.4 271.7Z" fill="#CC857C"/>
<path d="M182.5 269.3L182.8 269.9L184.8 268.1L184.6 267.2L182.5 269.3Z" fill="#CC857C"/>
<path d="M181.9 268L182.3 268.7L184.3 266.3L184 265.6L181.9 268Z" fill="#CC857C"/>
<path d="M181.5 267.2L183.6 264.8L183.3 264.1L181.1 266.4L181.5 267.2Z" fill="#CC857C"/>
<path d="M180.6 265.6C181.3 264.8 182 264 182.7 263.2C182.5 263 182.3 262.7 182.1 262.5C181.5 263.3 180.9 264.1 180.2 264.8L180.6 265.6Z" fill="#CC857C"/>
<path d="M179.6 263.8L181.4 261.9L180.5 261L179.1 262.9L179.6 263.8Z" fill="#CC857C"/>
<path d="M178.4 261.8L179.6 260.1L178.1 258.6L177 259.7L178.4 261.8Z" fill="#CC857C"/>
<path d="M176.3 258.8C176.7 258.5 177.2 258.2 177.6 258C177.4 257.8 177.3 257.6 177.1 257.4C176.7 257.8 176.3 258.1 175.9 258.5L176.3 258.8Z" fill="#CC857C"/>
<path d="M174.8 256.9C175.2 256.5 175.5 256.2 175.9 255.8C176 256 176.2 256.2 176.3 256.4C175.9 256.7 175.5 257 175.1 257.3C175 257.2 174.9 257 174.8 256.9Z" fill="#CC857C"/>
<path d="M173.9 256.1C174.4 255.8 174.9 255.5 175.3 255.1L174.7 254.1C174.5 254.3 174.3 254.5 174.1 254.7C173.8 255 173.6 255.2 173.3 255.3C173.5 255.6 173.7 255.8 173.9 256.1Z" fill="#CC857C"/>
<path d="M172.2 253.4C172.3 253.6 172.4 253.7 172.4 253.9C173 253.6 173.5 253.2 174.1 252.9V252.6C173.5 252.9 172.8 253.1 172.2 253.4Z" fill="#CC857C"/>
<path d="M172 252.9C172.6 252.7 173.3 252.4 173.9 252.2V252L171.9 252.8L172 252.9Z" fill="#CC857C"/>
<path d="M171.7 251.8L171.8 252.1L173.8 251.8V251.6L171.7 251.8Z" fill="#CC857C"/>
<path d="M171.6 250.3V250.6L173.6 250.5V250L171.6 250.3Z" fill="#CC857C"/>
<path d="M171.5 249.2V248.5L173.5 248.3V249.2H171.5Z" fill="#CC857C"/>
<path d="M171.4 247L171.3 245.5L173.5 245.4V246.8L171.4 247Z" fill="#CC857C"/>
<path d="M162.9 218.8L162.3 219.8L163.3 220.1L164.1 219.2C164.1 219.2 163.8 219.1 163.5 219C163.2 218.9 162.9 218.8 162.9 218.8Z" fill="#CC857C"/>
<path d="M164.4 220.5C164.6 220.2 164.8 219.9 165 219.6C165.3 219.8 165.7 220 166.1 220.2C166.3 220.3 166.5 220.5 166.7 220.6C166.4 220.8 166.1 221 165.8 221.3C165.6 221.2 165.4 221 165.2 220.9C164.8 220.7 164.6 220.6 164.4 220.5Z" fill="#CC857C"/>
<path d="M166.6 221.8C166.8 221.6 167.1 221.4 167.3 221.1C167.5 221.3 167.7 221.4 167.9 221.6L167.8 221.7C167.6 221.9 167.4 222.1 167.3 222.3C167.2 222.2 167 222.1 166.9 222C166.8 221.9 166.7 221.9 166.6 221.8Z" fill="#CC857C"/>
<path d="M168.5 222.1L169.1 222.6L168.6 223.7L168.1 223.1L168.5 222.1Z" fill="#CC857C"/>
<path d="M169.2 224.5L169.8 223.5C169.9 223.6 170 223.7 170 223.8C169.8 224.1 169.6 224.4 169.4 224.7L169.2 224.5Z" fill="#CC857C"/>
<path d="M169.7 225.2L170.4 224.2L170.8 224.8L170 225.7L169.7 225.2Z" fill="#CC857C"/>
<path d="M170.4 226.6L171.4 225.7L171.9 226.8L170.8 227.6L170.4 226.6Z" fill="#CC857C"/>
<path d="M171.1 228.5L172.3 227.8C172.4 228 172.4 228.1 172.5 228.3C172.1 228.5 171.7 228.7 171.2 228.9L171.1 228.5Z" fill="#CC857C"/>
<path d="M171.5 229.9L172.7 229.4L172.9 230.2L171.6 230.6L171.5 229.9Z" fill="#CC857C"/>
<path d="M171.4 244L173.6 243.8V240.3L171.6 240.5L171.4 244Z" fill="#CC857C"/>
<path d="M171.7 237.3L171.6 238.6L173.5 238.1L173.4 236.8L171.7 237.3Z" fill="#CC857C"/>
<path d="M171.7 235.9L173.4 235.4V234.4L171.7 235.1V235.9Z" fill="#CC857C"/>
<path d="M171.7 231.8L173.1 231.3L173.3 233.3L171.7 234V231.8Z" fill="#CC857C"/>
<path d="M183.1 211L184.5 213.7L183.1 214.6L182.2 211.6L183.1 211Z" fill="#CC857C"/>
<path d="M185.4 210C185.8 210.9 186.1 211.9 186.5 212.8C186.7 212.7 186.9 212.7 187.3 212.6C187.9 212.4 188.4 212.3 189.2 212.2C189.4 212.2 189.8 212.1 190.2 212C189.9 211 189.7 210.1 189.4 209.1C188.7 209.2 187.9 209.3 187.1 209.5C186.5 209.7 185.9 209.8 185.4 210Z" fill="#CC857C"/>
<path d="M192.8 209.1C192.6 209.1 192.4 209.1 192.2 209C192.3 210 192.4 210.9 192.5 211.9C192.9 211.9 193.2 212 193.6 212C193.7 211.1 193.9 210.1 194 209.2C193.8 209.2 193.6 209.1 193.4 209.1C193.2 209.1 193 209.1 192.8 209.1Z" fill="#CC857C"/>
<path d="M196.9 210C196.5 210.8 196.1 211.6 195.8 212.5L197.1 212.9C197.6 212.2 198 211.4 198.5 210.7C198.2 210.5 197.8 210.4 197.4 210.2C197.2 210.1 197.1 210.1 196.9 210Z" fill="#CC857C"/>
<path d="M200.2 211.6L199.1 213.9L199.6 214.2L201.1 212.2C200.8 212 200.5 211.8 200.2 211.6Z" fill="#CC857C"/>
<path d="M201.6 212.5C201.2 213.2 200.9 214 200.5 214.7L201.3 215.3C201.8 214.7 202.3 214.1 202.9 213.6C202.4 213.2 202 212.9 201.6 212.5Z" fill="#CC857C"/>
<path d="M204.1 214.9L202.7 216.6L204.1 218.3L205.7 217.2C205.7 217.2 205.3 216.5 205 216.1C204.8 215.8 204.5 215.4 204.1 214.9Z" fill="#CC857C"/>
<path d="M205 219.8L206.5 218.7L206.1 217.9L204.7 219.3L205 219.8Z" fill="#CC857C"/>
<path d="M205.3 220.2L206.7 219.3L207.1 220.1L205.6 220.9L205.3 220.2Z" fill="#CC857C"/>
<path d="M206.2 222.4L207.6 221.6L207.9 222.7L206.5 223.4L206.2 222.4Z" fill="#CC857C"/>
<path d="M206.7 224.1L208.1 223.5L208.3 224.8L206.9 225.2L206.7 224.1Z" fill="#CC857C"/>
<path d="M207.1 226.1L208.4 225.7L208.6 227L207.2 227.1L207.1 226.1Z" fill="#CC857C"/>
<path d="M207.2 228L208.6 227.8L208.7 229.5L207.2 229.3V228Z" fill="#CC857C"/>
<path d="M207.1 230.3L208.6 230.2V231.4L207.1 231.3V230.3Z" fill="#CC857C"/>
<path d="M206.8 233L208.4 232.8L208.3 233.8L206.8 233.6V233Z" fill="#CC857C"/>
<path d="M206.5 235.1L208.2 234.9L208 237.2L206.1 237.4L206.5 235.1Z" fill="#CC857C"/>
<path d="M205.8 238.9L208 237.9L208.2 238.9L205.7 239.5L205.8 238.9Z" fill="#CC857C"/>
<path d="M205.8 240.6L208.4 239.5L208.8 240.6C207.9 240.9 207.1 241.3 206.2 241.6C206.1 241.4 206 241.3 205.9 241.1C205.9 240.8 205.8 240.7 205.8 240.6Z" fill="#CC857C"/>
<path d="M206.7 242.3L209.1 240.9L209.6 241.7L207.3 243.5L206.7 242.3Z" fill="#CC857C"/>
<path d="M207.6 244.2L210.3 242.4L211.1 243.5L208 245.2L207.6 244.2Z" fill="#CC857C"/>
<path d="M208.7 246.9L212.1 245.1L212.7 246.3L209.1 247.9L208.7 246.9Z" fill="#CC857C"/>
<path d="M209.4 248.8L213 247L213.3 248.3L209.7 249.6L209.4 248.8Z" fill="#CC857C"/>
<path d="M210.3 251.5L213.7 250.3L213.8 252.1L210.6 252.6L210.3 251.5Z" fill="#CC857C"/>
<path d="M211 254.5C211.9 254.5 212.7 254.4 213.6 254.4C213.6 254.6 213.6 254.8 213.6 255.1C213.6 255.3 213.6 255.4 213.7 255.6C212.9 255.7 212.1 255.8 211.3 256C211.2 255.4 211.1 255 211 254.5Z" fill="#CC857C"/>
<path d="M211.5 257.1C212.3 256.8 213.1 256.5 213.8 256.2C213.9 256.4 213.9 256.6 214 256.8C214.1 257.1 214.3 257.4 214.4 257.7C214.1 257.9 213.8 258 213.4 258.2C212.8 258.5 212.2 258.7 211.7 258.8C211.6 258.2 211.5 257.9 211.5 257.9L211.7 258.8C211.8 258.8 211.5 257.1 211.5 257.1Z" fill="#CC857C"/>
<path d="M212.2 260.6C213.3 260.1 214.4 259.7 215.5 259.2C215.9 259.7 216.3 260.3 216.7 260.9C216.9 261.3 217.1 261.7 217.3 262.1C216.5 262.3 215.8 262.5 215 262.7C213.9 263 212.8 263.4 212.8 263.4C212.6 262.5 212.4 261.5 212.2 260.6Z" fill="#CC857C"/>
<path d="M213.3 265.6L217.7 263.3L218 264.4L213.4 266.4L213.3 265.6Z" fill="#CC857C"/>
<path d="M213.4 267.6L218.2 265.4V268L213.3 270L213.4 267.6Z" fill="#CC857C"/>
<path d="M213.2 271.5L217.9 269.2L217.4 271.6L213.2 273.4C213.2 273.4 213.1 273 213.1 272.6C213.1 272 213.2 271.5 213.2 271.5Z" fill="#CC857C"/>
<path d="M213.4 274.5L217.4 272.4L217.6 273.7L213.7 275.9L213.4 274.5Z" fill="#CC857C"/>
<path d="M214.2 277.2L217.8 274.5L218.2 275.4L214.6 278L214.2 277.2Z" fill="#CC857C"/>
<path d="M214.9 278.6L218.6 276.1L219.8 277.6L215.5 279.7L214.9 278.6Z" fill="#CC857C"/>
<path d="M216.1 280.8L220.3 278.5C220.3 278.5 220.6 279.1 220.9 279.8C221 280.2 221.1 280.8 221.1 280.8C219.7 281.4 218.2 282 216.8 282.6C216.6 282 216.3 281.4 216.1 280.8Z" fill="#CC857C"/>
<path d="M217 283.4L221.2 281.9V284.5H217.2L217 283.4Z" fill="#CC857C"/>
<path d="M217.3 285.5V286.1L221.2 286.3V285.5H217.3Z" fill="#CC857C"/>
<path d="M217.4 286.9L221.2 287.4C221.2 287.4 221.2 288.2 221.1 289C221.1 289.5 221 290.1 221 290.1L217.5 287.6C217.4 287.6 217.4 286.9 217.4 286.9Z" fill="#CC857C"/>
<path d="M217.3 289.1L220.7 291.5L220.9 290.6L217.3 288.7V289.1Z" fill="#CC857C"/>
<path d="M216.8 290.3C216.8 290.3 218.2 292.6 219.7 293.6C219.8 293.4 220 293.3 220.1 293C220.2 292.8 220.3 292.7 220.3 292.6C219.2 291.4 216.9 290.1 216.9 290.1L216.8 290.3Z" fill="#CC857C"/>
<path d="M215.2 291L215.5 294.9C215.5 294.9 216.3 295.2 217 295.2C217.5 295.2 218 295 218 295L215.9 291C215.9 291 215.7 291.1 215.6 291.1C215.4 291.1 215.2 291 215.2 291Z" fill="#CC857C"/>
<path d="M213.4 290C213.4 290 212.9 292.2 213.1 293.6C213.3 293.8 213.6 293.9 213.8 294.1C214 294.2 214.2 294.4 214.4 294.5L214.1 290.6L213.4 290Z" fill="#CC857C"/>
<path d="M211.6 288.6L210.7 291.8L212.4 293.1L212.3 289.2L211.6 288.6Z" fill="#CC857C"/>
<path d="M210.2 287.5L209.1 290.3L209.7 291L210.7 287.9L210.2 287.5Z" fill="#CC857C"/>
<path d="M208.6 286.1L207.5 288.6L208.5 289.7L209.3 286.7L208.6 286.1Z" fill="#CC857C"/>
<path d="M206.2 283.6L205.2 286L206.7 287.7L207.5 285.1L206.2 283.6Z" fill="#CC857C"/>
<path d="M204.2 281.1L202.8 283.3L204.3 285L205.4 282.7L204.2 281.1Z" fill="#CC857C"/>
<path d="M203.4 279.9L201.7 282.2L202.4 282.9L203.7 280.4L203.4 279.9Z" fill="#CC857C"/>
<path d="M201.5 277L199.4 279.9L200.8 281.4L202.4 278.4C202.4 278.4 202.2 278.1 202 277.8C201.8 277.3 201.5 277 201.5 277Z" fill="#CC857C"/>
<path d="M199.3 274.9L197.5 277.8L198.6 279L200.3 275.8L199.3 274.9Z" fill="#CC857C"/>
<path d="M195.7 276L197.8 273.7L198.6 274.3L196.7 277.1L195.7 276Z" fill="#CC857C"/>
<path d="M196 272.3L193.9 274.4L195 275.4L197 273L196 272.3Z" fill="#CC857C"/>
<path d="M193.6 270.7L192 272.6L192.9 273.5L194.7 271.4L193.6 270.7Z" fill="#CC857C"/>
<path d="M190.5 270.8L192.1 269.2L192.8 270L191.2 271.7L190.5 270.8Z" fill="#CC857C"/>
<path d="M190 269.8L191.7 268.5C191.5 267.7 191.5 267.5 191.5 267.5C191.5 267.2 191.4 266.8 191.4 266.8L189.4 268.2C189.4 268.2 189.5 268.7 189.7 269.1C189.8 269.5 190 269.8 190 269.8Z" fill="#CC857C"/>
<path d="M191 264.8L188.9 266.5L189.2 267.3L191.2 265.7L191 264.8Z" fill="#CC857C"/>
<path d="M188 264.4L189.8 262.6L190.6 263.7L188.4 265.4L188 264.4Z" fill="#CC857C"/>
<path d="M187.5 263.6L189.2 261.9L188.6 261.3L187.2 263.1L187.5 263.6Z" fill="#CC857C"/>
<path d="M186.1 261.8L187.5 260.2L188.1 260.8L186.6 262.4L186.1 261.8Z" fill="#CC857C"/>
<path d="M184.2 260.1L185.6 258.6L186.8 259.6L185.5 261.2L184.2 260.1Z" fill="#CC857C"/>
<path d="M182.7 258.8L184 257.2L184.7 257.9L183.4 259.4L182.7 258.8Z" fill="#CC857C"/>
<path d="M182 258.3L183.4 256.7L182.2 255.8L180.7 257.3L182 258.3Z" fill="#CC857C"/>
<path d="M178.3 255.6L179.9 254L181.5 255.3L180 256.7L178.3 255.6Z" fill="#CC857C"/>
<path d="M176.7 254.5L178.6 253.2L179.2 253.6L177.3 255C177.3 255 177.1 254.9 177 254.8C176.9 254.6 176.7 254.5 176.7 254.5Z" fill="#CC857C"/>
<path d="M178.1 252.7L176.3 254L176.1 253.6L177.8 252.5V252.6L178.1 252.7Z" fill="#CC857C"/>
<path d="M177.4 251.9L175.6 252.6L175.4 252L177.1 251.5L177.4 251.9Z" fill="#CC857C"/>
<path d="M176.8 250.9L175.1 251.1L174.8 249.7L176.3 249.9L176.8 250.9Z" fill="#CC857C"/>
<path d="M176.1 249L174.6 248.9L174.5 248.3L176 248.5L176.1 249Z" fill="#CC857C"/>
<path d="M175.8 247.3L174.3 247.2L174.2 246.3L175.8 246.8V247.3Z" fill="#CC857C"/>
<path d="M175.7 245.5L174.1 245.3V244.3L175.7 244.5V245.5Z" fill="#CC857C"/>
<path d="M174 242.6L175.6 243L175.7 242.3L174 241.7V242.6Z" fill="#CC857C"/>
<path d="M174 240.9L175.7 241.2V240.5L174 240.1V240.9Z" fill="#CC857C"/>
<path d="M174.1 238.9L175.8 239.3V238.5L174.1 238V238.9Z" fill="#CC857C"/>
<path d="M174.3 236.8L174.4 235.7L176 236.2L175.9 237.2L174.3 236.8Z" fill="#CC857C"/>
<path d="M174.6 234.3L176.2 234.9L176.3 234L174.8 232.8L174.6 234.3Z" fill="#CC857C"/>
<path d="M175 231.3L176.6 232L176.8 230.9L175.3 229.2L175 231.3Z" fill="#CC857C"/>
<path d="M175.5 227.6L177.1 229.1L177.4 227.7L175.9 225.4L175.5 227.6Z" fill="#CC857C"/>
<path d="M176.2 223.8L177.9 225.2L178.2 224.1L176.6 221.9L176.2 223.8Z" fill="#CC857C"/>
<path d="M176.8 221L178.6 222.9L178.7 222.4L177 220.1L176.8 221Z" fill="#CC857C"/>
<path d="M177.3 219.3C177.9 220 178.4 220.7 179 221.4C179 221.4 179.1 221.1 179.2 221C179.1 220.9 178.5 220 178.2 219.5C178.2 219.5 178.1 219.3 178 219.1C177.8 218.9 177.7 218.7 177.6 218.6C177.5 218.8 177.4 219.1 177.3 219.3Z" fill="#CC857C"/>
<path d="M178 217.5L179.7 219.6L180.1 218.7L178.5 216.3C178.5 216.3 178.3 216.7 178.1 217.2C178.1 217.3 178 217.5 178 217.5Z" fill="#CC857C"/>
<path d="M179.2 215.1L181.1 216.8L181.6 216.1L180.6 213C180.6 213 180.3 213.3 180.2 213.4C179.6 214 179.2 215.1 179.2 215.1Z" fill="#CC857C"/>
<path d="M134.7 250.3C134.8 251.2 134.9 252.4 135.1 253.8C135.2 254.2 135.5 256.5 135.9 258.1C137.1 263 140.2 266.8 143.5 270.7C143.8 271 144 271.3 144.2 271.5C145.6 273.1 148.5 276.4 152.7 279.8C156.8 283.2 159.1 285.1 162.8 286.5C165.7 287.6 166.1 287.2 171.4 289C175.3 290.4 177.4 291.4 179 292.4C181.6 294 181.2 294.3 183 295.3C187.7 297.9 194.6 297.1 194.6 297.1C198 296.7 200.1 296.5 200.7 295C201.4 293.4 199.7 291 198.4 289C197.9 288.3 197.5 287.8 196.6 286.7C194.7 284.4 193.5 283.3 192.6 282.2C189.3 278.5 187.6 274.7 186.2 271.7C185.5 270.2 185.2 269.5 185 268.6C184.8 267.9 184.7 267.2 184.3 266.2C184.3 266.1 184 265.4 183.5 264.6C182.7 263.2 181.9 262.4 179.1 259.6C177.9 258.3 177.6 258.1 177.2 257.6C175.9 256.2 175.3 255.2 175 254.8C174.5 254 174.2 253.6 174 253.1C173.4 251.7 173.3 250.4 173.3 248.5C173.3 247.9 173.3 247.4 173.3 246.5C173.4 243.6 173.4 242.9 173.4 241.7C173.4 240 173.4 239.7 173.3 238.4C173.2 237.4 173.2 236.9 173.2 236C173.2 234.5 173.1 233.4 173 232.2C172.8 230.3 172.6 228.6 171.7 226.7C171.6 226.5 171.2 225.6 170.4 224.5C170.2 224.2 169.1 222.7 167.3 221.3C166.7 220.8 166.1 220.4 165.8 220.3C164.9 219.7 164.1 219.4 164 219.3C163.3 219 162.3 218.6 160.9 218.4C160.2 218.3 159.3 218.2 158.3 218.2C158.4 218.2 158.7 218.2 159 218.2C160.8 218.2 161.5 218.3 162.6 218.3C164.9 218.4 166.8 218 167.8 217.7C168.1 217.6 168.3 217.6 168.6 217.5C168.6 217.5 169.3 217.3 170 217C171.7 216.4 178.5 213.3 181.4 211.7C181.8 211.5 182.3 211.2 182.9 211C183.3 210.8 183.7 210.7 184 210.6C183.7 210.8 183.3 211 182.9 211.3C182.1 211.9 181 212.6 180.1 213.8C179.9 214.1 179.6 214.6 179.1 215.5C178.6 216.4 178.2 217.2 178.1 217.5C177.3 219.3 176.8 221.2 176.6 222.1C175.7 225.9 175.3 229.2 175 231.5C174.8 233.1 174.7 233.8 174.4 236.7C174.2 238.2 174.2 238.4 174.1 238.9C173.9 240.9 174 242.6 174.1 243.8C174.1 244.5 174.2 245.1 174.2 246C174.4 248.8 175.2 251.3 175.2 251.3C175.6 252.8 175.9 253.5 176.3 254.1C177.1 255.2 177.7 255.2 179.8 256.6C181.8 257.9 183.2 259.2 184.4 260.3C184.8 260.6 185.6 261.4 186.6 262.6C187.2 263.3 187.5 263.7 187.8 264.3C188.2 265 188.4 265.7 188.8 266.6C189.1 267.5 189.3 268 189.3 268C189.4 268.4 189.5 268.7 189.7 269.2C189.8 269.6 190 269.8 190 269.9C190.6 271.1 191.3 271.9 192.2 272.8C193.2 273.9 193.6 274.1 195 275.4C195.6 276 196.1 276.5 197.8 278.2C200.3 280.8 201.6 282.1 203.3 284C207.4 288.5 208.8 290.6 212.3 293.1C214.5 294.7 216.3 295.5 217.8 294.9C218.8 294.5 219.4 293.7 219.8 293.1C219.9 293 220 292.8 220.1 292.6C220.9 291.1 221.1 288.2 221.1 285.3C221.1 283.7 221.1 282.6 220.9 281.2C220.8 280.5 220.8 280.1 220.7 279.8C220.1 277.6 218.8 277.2 217.9 275.1C217.6 274.4 217.5 273.9 217.4 273C216.6 268.5 218.6 267.3 218 264.2C217.1 260.2 214.9 259.2 214 256.7C213.6 255.6 213.7 254.3 213.7 254.3C213.7 254 213.7 253.7 213.7 253.3C213.7 252.2 213.9 251.9 213.8 251C213.8 250.8 213.7 250.5 213.6 249.9C213.5 249.1 213.3 248.3 213.2 248C213.1 247.8 213 247.2 213 247.2C213 247.2 212.7 246.7 212.7 246.6C212.4 245.9 211.7 244.8 211.6 244.7C211 243.7 210.7 243.2 210.4 242.8C210.1 242.5 209.9 242.4 209.6 242C209.2 241.5 208.8 240.9 208.8 240.9C208.8 240.9 208 239.3 208 237.5C208 237.4 208.1 236.7 208.2 235.2C208.2 235.1 208.2 234.7 208.3 234.1C208.4 233.3 208.4 233.2 208.4 233.1C208.5 232.2 208.6 232.2 208.6 231.7C208.6 231.7 208.6 231.5 208.6 230.5C208.6 230.5 208.7 230.1 208.7 229.8C208.7 229.6 208.7 229.6 208.6 228.9C208.6 228.5 208.6 228.3 208.6 228.1C208.6 227.7 208.6 227.3 208.6 227.3C208.6 227.3 208.5 226.6 208.4 226C208.3 225.6 208.3 225.4 208.3 225.2C208.1 223.9 207.8 222.8 207.6 221.9C207.4 221.2 207.3 220.8 207.1 220.4C207 220.1 206.8 219.9 206.7 219.6C206.6 219.4 206.5 219.2 206.4 219C206.4 218.9 206.3 218.8 206.3 218.7C206.2 218.5 206.1 218.3 206.1 218.2C205.7 217.5 205.6 217.3 205.6 217.3C204.9 216.2 204.5 215.6 203.8 214.9C203.7 214.8 203 214 202 213.2C201.6 212.9 202 213 201.1 212.6C200.7 212.4 200.1 212.1 200 212C197.9 210.8 196.8 210.4 196.8 210.4C195.6 210 195.1 209.7 194.5 209.6C194.2 209.5 194.5 209.5 192 209C191.8 209 190.1 209 190 209C190.2 209 191.6 209 192 209C193.5 209 195.165 209.291 196 209.5C196.4 209.6 197.5 209.8 198.7 210.2C198.7 210.2 200 210.6 201.2 211.2C204 212.7 206.4 215.6 206.7 216C208 217.6 212.3 222.7 212.5 229.5C212.6 232.9 211.8 237.8 211.8 237.8C215.7 242.1 217.4 244.6 217.4 244.6C221.7 250.9 222.6 258.3 222.8 260.7C223 263 222.9 264.4 223.5 267.2C224.2 270.3 225 271.4 225.9 274.3C226 274.7 227.2 278.7 227.4 283C227.5 285.9 227.7 292.9 223.1 297.9C220.7 300.6 217.9 301.5 214.7 302.6C211.6 303.7 206.1 305 196.4 304.2C185.3 303.2 177.1 300 171.1 297.7C163.4 294.7 158 291.6 155.3 289.9C147.9 285.4 142.8 282.2 138.9 275.8C138 274.2 135.9 270.7 134.9 265.7C134.2 262.3 134.3 259.2 134.4 256C134.5 253.4 134.6 251.6 134.7 250.3Z" fill="#F0C6BF"/>
<path d="M192 209C194.5 209.5 194.2 209.5 194.5 209.6C195.1 209.7 195.6 210 196.8 210.4C196.8 210.4 197.9 210.8 200 212C200.1 212.1 200.7 212.4 201.1 212.6C202 213 201.6 212.9 202 213.2C203 214 203.7 214.8 203.8 214.9C204.5 215.6 204.9 216.2 205.6 217.3C205.6 217.3 205.7 217.5 206.1 218.2C206.1 218.3 206.2 218.5 206.3 218.7C206.3 218.8 206.4 218.9 206.4 219C206.5 219.2 206.6 219.4 206.7 219.6C206.8 219.9 207 220.1 207.1 220.4C207.3 220.8 207.4 221.2 207.6 221.9C207.8 222.8 208.1 223.9 208.3 225.2C208.3 225.4 208.3 225.6 208.4 226C208.5 226.6 208.6 227.3 208.6 227.3C208.6 227.3 208.6 227.7 208.6 228.1C208.6 228.3 208.6 228.5 208.6 228.9C208.7 229.6 208.7 229.6 208.7 229.8C208.7 230.1 208.6 230.5 208.6 230.5C208.6 231.5 208.6 231.7 208.6 231.7C208.6 232.2 208.5 232.2 208.4 233.1C208.4 233.2 208.4 233.3 208.3 234.1C208.2 234.7 208.2 235.1 208.2 235.2C208.1 236.7 208 237.4 208 237.5C208 239.3 208.8 240.9 208.8 240.9C208.8 240.9 209.2 241.5 209.6 242C209.9 242.4 210.1 242.5 210.4 242.8C210.7 243.2 211 243.7 211.6 244.7C211.7 244.8 212.4 245.9 212.7 246.6C212.7 246.7 213 247.2 213 247.2C213 247.2 213.1 247.8 213.2 248C213.3 248.3 213.5 249.1 213.6 249.9C213.7 250.5 213.8 250.8 213.8 251C213.9 251.9 213.7 252.2 213.7 253.3C213.7 253.7 213.7 254 213.7 254.3C213.7 254.3 213.6 255.6 214 256.7C214.9 259.2 217.1 260.2 218 264.2C218.6 267.3 216.6 268.5 217.4 273C217.5 273.9 217.6 274.4 217.9 275.1C218.8 277.2 220.1 277.6 220.7 279.8C220.8 280.1 220.8 280.5 220.9 281.2C221.1 282.6 221.1 283.7 221.1 285.3C221.1 288.2 220.9 291.1 220.1 292.6C220 292.8 219.9 293 219.8 293.1C219.4 293.7 218.8 294.5 217.8 294.9C216.3 295.5 214.5 294.7 212.3 293.1C208.8 290.6 207.4 288.5 203.3 284C201.6 282.1 200.3 280.8 197.8 278.2C196.1 276.5 195.6 276 195 275.4C193.6 274.1 193.2 273.9 192.2 272.8C191.3 271.9 190.6 271.1 190 269.9C190 269.8 189.8 269.6 189.7 269.2C189.5 268.7 189.4 268.4 189.3 268C189.3 268 189.1 267.5 188.8 266.6C188.4 265.7 188.2 265 187.8 264.3C187.5 263.7 187.2 263.3 186.6 262.6C185.6 261.4 184.8 260.6 184.4 260.3C183.2 259.2 181.8 257.9 179.8 256.6C177.7 255.2 177.1 255.2 176.3 254.1C175.9 253.5 175.6 252.8 175.2 251.3C175.2 251.3 174.4 248.8 174.2 246C174.2 245.1 174.1 244.5 174.1 243.8C174 242.6 173.9 240.9 174.1 238.9C174.2 238.4 174.2 238.2 174.4 236.7C174.7 233.8 174.8 233.1 175 231.5C175.3 229.2 175.7 225.9 176.6 222.1C176.8 221.2 177.3 219.3 178.1 217.5C178.2 217.2 178.6 216.4 179.1 215.5C179.6 214.6 179.9 214.1 180.1 213.8C181 212.6 182.1 211.9 182.9 211.3C183.3 211 183.7 210.8 184 210.6C183.7 210.7 183.3 210.8 182.9 211C182.3 211.2 181.8 211.5 181.4 211.7C178.5 213.3 171.7 216.4 170 217C169.3 217.3 168.6 217.5 168.6 217.5C168.3 217.6 168.1 217.6 167.8 217.7C166.8 218 164.9 218.4 162.6 218.3C161.5 218.3 160.8 218.2 159 218.2C158.7 218.2 158.4 218.2 158.3 218.2C159.3 218.2 160.2 218.3 160.9 218.4C162.3 218.6 163.3 219 164 219.3C164.1 219.4 164.9 219.7 165.8 220.3C166.1 220.4 166.7 220.8 167.3 221.3C169.1 222.7 170.2 224.2 170.4 224.5C171.2 225.6 171.6 226.5 171.7 226.7C172.6 228.6 172.8 230.3 173 232.2C173.1 233.4 173.2 234.5 173.2 236C173.2 236.9 173.2 237.4 173.3 238.4C173.4 239.7 173.4 240 173.4 241.7C173.4 242.9 173.4 243.6 173.3 246.5C173.3 247.4 173.3 247.9 173.3 248.5C173.3 250.4 173.4 251.7 174 253.1C174.2 253.6 174.5 254 175 254.8C175.3 255.2 175.9 256.2 177.2 257.6C177.6 258.1 177.9 258.3 179.1 259.6C181.9 262.4 182.7 263.2 183.5 264.6C184 265.4 184.3 266.1 184.3 266.2C184.7 267.2 184.8 267.9 185 268.6C185.2 269.5 185.5 270.2 186.2 271.7C187.6 274.7 189.3 278.5 192.6 282.2C193.5 283.3 194.7 284.4 196.6 286.7C197.5 287.8 197.9 288.3 198.4 289C199.7 291 201.4 293.4 200.7 295C200.1 296.5 198 296.7 194.6 297.1C194.6 297.1 187.7 297.9 183 295.3C181.2 294.3 181.6 294 179 292.4C177.4 291.4 175.3 290.4 171.4 289C166.1 287.2 165.7 287.6 162.8 286.5C159.1 285.1 156.8 283.2 152.7 279.8C148.5 276.4 145.6 273.1 144.2 271.5C144 271.3 143.8 271 143.5 270.7C140.2 266.8 137.1 263 135.9 258.1C135.5 256.5 135.2 254.2 135.1 253.8C134.9 252.4 134.8 251.2 134.7 250.3C134.6 251.6 134.5 253.4 134.4 256C134.3 259.2 134.2 262.3 134.9 265.7C135.9 270.7 138 274.2 138.9 275.8C142.8 282.2 147.9 285.4 155.3 289.9C158 291.6 163.4 294.7 171.1 297.7C177.1 300 185.3 303.2 196.4 304.2C206.1 305 211.6 303.7 214.7 302.6C217.9 301.5 220.7 300.6 223.1 297.9C227.7 292.9 227.5 285.9 227.4 283C227.2 278.7 226 274.7 225.9 274.3C225 271.4 224.2 270.3 223.5 267.2C222.9 264.4 223 263 222.8 260.7C222.6 258.3 221.7 250.9 217.4 244.6C217.4 244.6 215.7 242.1 211.8 237.8C211.8 237.8 212.6 232.9 212.5 229.5C212.3 222.7 208 217.6 206.7 216C206.4 215.6 204 212.7 201.2 211.2C200 210.6 198.7 210.2 198.7 210.2C197.5 209.8 196.4 209.6 196 209.5C195.165 209.291 193.5 209 192 209ZM192 209C191.8 209 190.1 209 190 209C190.2 209 191.6 209 192 209Z" stroke="#D5A19C" stroke-width="0.25" stroke-miterlimit="10"/>
<path d="M139.2 235.4C139.1 236.2 139 237.1 139 237.1C138.9 238.3 138.9 240.2 138.9 241.7C138.9 241.9 138.8 242.7 138.7 243.8C138.5 245.1 138.3 246 138.2 246.2C136.6 252.7 137.8 256.8 137.8 256.8C138 257.5 138.8 260.1 140.7 262.4C140.7 262.4 140.9 262.6 143.1 265.1C143.3 265.4 143.5 265.8 143.8 266.4C144.4 267.7 144.5 268.4 145.1 269.5C145.2 269.6 145.5 270.2 146 270.9C147.5 272.9 149.4 274 151.2 275.6C151.3 275.7 151.6 275.9 151.8 276.2C152.3 276.7 152.5 277.1 152.6 277.3C153 278 153.6 278.6 154.6 279.5C156 280.9 158.7 282.9 162.5 284.4C163.9 284.9 164.9 285.2 165.4 285.3C169.7 286.4 171.5 287.6 181.8 291.8C183.5 292.5 190.2 295.2 194.2 294.2C195.6 293.9 196 293.2 196 293C196.4 291.9 195.3 290.5 194.5 289.5C192.7 287.3 191.2 284.9 189.3 282.8C185.7 278.8 184.3 274.1 183.4 271.7C182.7 269.9 182.9 270 182.3 268.7C181.2 266 179.7 263.8 177.4 260.3C177.3 260.1 177.2 260 177 259.7C175.2 257.1 172 252.8 171.9 252.6C171.6 248.7 171.5 247.9 171.5 247.9C171.2 244.3 171.6 243.5 171.8 237.7C171.9 233.3 171.9 231 171.4 229.1C171 227.7 170.2 225.1 167.8 222.8C165.5 220.7 163.1 220 162.1 219.8C157.7 218.7 153.9 220.2 152.5 220.8C149.4 222.1 147.3 224 145.5 225.6C144.2 226.8 143.1 228.1 143.1 228.1C142.7 228.5 142.2 229.1 141.6 230C139.9 232.5 139.3 234.8 139.2 235.4Z" fill="#892A26"/>
<path d="M177.8 252.6C178.3 252.9 179 253.5 179.8 254.1C180.6 254.7 181.2 255.1 181.5 255.3C182.7 256.2 184.2 257.5 186.9 259.9C187.6 260.5 188.3 261.1 189.2 262.1C189.9 262.9 190.3 263.4 190.6 263.9C191.2 265.1 191.3 266.6 191.4 267C191.4 267.3 191.5 267.6 191.6 268.1C191.6 268.1 191.8 268.9 192.2 269.6C192.8 270.7 194 271.3 194.6 271.6C194.6 271.6 197.4 273.2 200.5 276C200.9 276.4 201.6 277.1 202.3 278.1C202.8 278.8 203 279.4 203.1 279.7C203.8 281.2 205 282.5 206.9 284.5C208.7 286.4 210 287.5 212.6 289.5C214.1 290.7 215.2 291.5 216.1 291.1C216.7 290.9 217 290.2 217.3 289.6C218.5 286.7 217.3 283.4 216.5 281.4C216.2 280.7 215.8 280 215.8 280C215.5 279.4 215.2 279.1 215.1 278.9C214.3 277.8 213.9 276.1 213.8 275.5C213.3 273.4 213.8 272.7 213.6 268.2C213.6 267.6 213.6 267.1 213.5 266.3C213.2 262.7 212.6 261.4 211.4 255.8C211 254 211 253.6 210.6 252.3C210.3 251.3 209.9 249.7 209.2 247.8C207.6 243.7 205.6 240.1 205.6 240.1C205.6 240.1 206.4 236 206.7 234.1C207.2 230.9 207.8 226.9 206.4 222.6C205.9 221.2 204.5 217.2 200.4 214.4C199.7 213.9 195.3 211 189.5 211.9C188.3 212.1 184.2 212.7 181.6 216.1C180.9 216.9 180.6 217.7 179.9 219.2C179.2 220.7 178.3 223 177.3 228.1C177.1 229.3 176.4 232.6 176 237.1C176 237.1 175.4 242.7 176 247.7C176 248.3 176.1 248.8 176.2 249.2C176.2 249.3 176.4 249.8 176.7 250.4C176.8 251 177.2 251.8 177.8 252.6Z" fill="#892A26"/>
<path d="M195.5 297.7C195.5 298.1 201.7 299 203.2 296.5C204.5 294.3 201.5 290.4 198.6 286.7C195.7 282.9 194.4 282.6 191.6 278.4C191 277.6 190.2 275.8 188.5 273C186.9 270.4 187.1 270.8 186.8 270.1C186.8 270.1 184.1 264.6 183.6 263.7C183.6 263.7 184.4 265.6 185.1 267.5C185.6 268.9 185.6 269 186 270C186.8 272.2 187.7 273.8 188.2 274.8C188.8 275.9 189.9 277.8 191.5 279.9C193.9 283.1 194.7 283.3 196.9 286C199.2 288.9 202.5 292.9 201.3 295.3C200.1 297.8 195.5 297.4 195.5 297.7Z" fill="#FBEFF3"/>
<path d="M136.1 266C136.1 266 136.7 268.3 138.2 271.1C139.9 274.3 142 276.6 144 278.4C150.1 284.2 156.8 288.3 157.9 289C157.9 289 163.9 292.6 176.6 298.4C176.6 298.4 169 295.8 162.4 292.7C158.6 290.9 154 288.7 148.7 284.6C145.3 281.9 142.3 279.5 139.7 275.4C136.9 270.7 136 266 136.1 266Z" fill="#FBEFF3"/>
<path d="M220.8 298.8C220.8 298.8 222.6 294.9 223.5 292C224.9 287.5 224.7 283.8 224.7 282.8C224.5 279.9 223.8 275.5 222.3 273.1C222.1 272.8 221.2 271.4 220.8 269.4C220.7 268.8 220.6 268.2 220.6 268.1C220.4 266.6 220.6 265.4 220.7 265.1C221 263.2 220.4 258 218.6 252.9C216.8 247.6 214.2 244.2 213.8 243.6C213.1 242.7 212.2 241.7 212.2 241.7C212 241.5 211.8 241.2 211.6 241C209.9 239.1 208.9 238.4 209 237.3C209 236.9 209.2 236.8 210 235.5C210.7 234.4 210.9 232.6 210.9 232.6C211.3 229.2 211.3 229.2 211.4 229.1C211.4 229.1 211.4 227.3 210.9 224.8C210.9 224.8 211.4 226.5 211.7 228.1C211.9 229.2 212 229.8 212 230.6C212 232.7 211.4 235 211.3 235.3C211.1 236 210.9 236.6 211.1 237.4C211.3 238.1 211.8 238.6 212 238.8C212.9 239.7 214.2 241.4 216.7 244.8C218.2 246.8 218.8 248.4 220 251.6C221 254.3 221.6 255.8 221.8 258C222.2 261.9 222.2 264.1 222.2 264.1C222.2 264.4 222.2 265.4 222.5 266.6C222.7 267.5 223 268.2 223.1 268.4C224 270.5 225 274.3 225.4 276.3C226.2 280.5 226.1 283.8 226.1 284.7C226 286.1 225.9 287.9 225.3 290.2C224.9 291.9 224.3 294 222.8 296.1C222.2 297 220.8 298.8 220.8 298.8Z" fill="#D5A19C"/>
<path fill-rule="evenodd" clip-rule="evenodd" d="M138.965 264.267C138.346 263.25 137.873 262.474 137.4 261.45C136.3 259.05 135.8 256.35 135.3 253.15L135.3 253.15C135.2 252.65 135 251.65 135 250.35V249.15C135.013 248.903 135.025 248.66 135.037 248.423C135.215 244.906 135.344 242.354 136 239.45C136.5 237.35 137.2 234.65 138.3 232.25C139.798 229.166 141.529 227.479 142.809 226.232C142.981 226.064 143.146 225.904 143.3 225.75C145.3 223.65 149.2 219.75 155.3 218.25C156.264 217.953 157.118 217.987 158.066 218.024C158.397 218.037 158.738 218.05 159.1 218.05C159.1 218.05 160 218.05 160.9 218.15C163.1 218.45 166.1 219.55 168.7 221.95C169.5 222.65 171.7 224.75 172.8 228.15C173.29 229.718 173.396 231.095 173.588 233.597L173.6 233.75C173.604 233.798 173.609 233.846 173.613 233.893C173.709 234.939 173.8 235.941 173.8 237.95C173.8 239.001 173.814 239.868 173.826 240.627C173.847 241.89 173.862 242.85 173.8 243.85C173.8 244.181 173.783 244.581 173.763 245.05C173.734 245.713 173.7 246.513 173.7 247.45C173.7 247.879 173.729 248.25 173.755 248.595C173.778 248.893 173.8 249.172 173.8 249.45C173.825 249.744 173.843 250.008 173.86 250.25C173.912 250.993 173.949 251.522 174.1 252.05C174.258 252.84 174.604 253.381 175.136 254.214C175.278 254.436 175.432 254.677 175.6 254.95C176.2 255.95 176.8 256.75 178.3 258.25C178.5 258.433 178.683 258.6 178.856 258.757C179.722 259.544 180.333 260.1 181.5 261.35L181.5 261.35C182 261.85 182.7 262.55 183.3 263.55C183.7 264.25 184 264.85 184.1 265.05C184.2 265.15 184.4 265.55 184.7 266.55C184.859 267.08 184.962 267.329 185.053 267.55C185.134 267.746 185.206 267.921 185.3 268.25C185.521 268.912 185.687 269.304 185.959 269.943C186.057 270.172 186.168 270.433 186.3 270.75C186.43 271.053 186.56 271.393 186.698 271.755C186.878 272.229 187.073 272.739 187.3 273.25C187.384 273.419 187.472 273.599 187.565 273.792C188.025 274.743 188.636 276.005 189.8 277.75C190.28 278.41 190.76 279.178 191.132 279.773C191.38 280.17 191.58 280.49 191.7 280.65C191.907 280.857 192.183 281.184 192.506 281.568C192.963 282.11 193.514 282.764 194.1 283.35L195 284.25L195.8 285.05C195.8 285.05 196.3 285.55 196.7 286.05C196.84 286.245 197.034 286.503 197.271 286.818C197.885 287.634 198.791 288.836 199.8 290.35C199.809 290.367 199.822 290.393 199.84 290.428C200.033 290.803 200.726 292.152 201 293.25L201 293.25C201.1 293.65 201.2 294.05 201.1 294.55C201.1 294.75 201.1 294.95 201 295.15C201 295.25 200.9 295.55 200.6 295.85C200.1 296.45 199.3 296.65 197.6 296.85C197.222 296.884 196.89 296.919 196.598 296.949C196.042 297.007 195.628 297.05 195.3 297.05C194.612 297.088 194.042 297.126 193.554 297.159C192.765 297.212 192.194 297.25 191.7 297.25H191.7C190.3 297.25 189.2 297.25 187.7 296.95C187.4 296.95 186.3 296.65 185 296.15C184.2 295.85 183.5 295.55 182.7 295.05C181.8 294.45 181.2 293.85 181.2 293.85C181.1 293.75 180.9 293.55 180.6 293.35C180.437 293.187 180.273 293.09 179.947 292.897C179.873 292.853 179.792 292.805 179.7 292.75C179.509 292.635 179.347 292.535 179.209 292.45C178.985 292.312 178.824 292.212 178.7 292.15C177.2 291.35 174.9 290.35 174.9 290.35C174.2 290.05 172.3 289.35 169.9 288.55C168.4 288.05 167.7 287.85 166.8 287.65C166.684 287.611 166.492 287.572 166.242 287.522C165.849 287.442 165.312 287.334 164.7 287.15C164.471 287.074 164.271 287.012 164.1 286.959C163.824 286.874 163.624 286.812 163.5 286.75C163.5 286.75 163.1 286.65 162.6 286.45C160.8 285.75 159 284.55 159 284.55C158.3 284.15 156.8 283.15 153.3 280.15C152.885 279.794 152.522 279.491 152.191 279.214C151.408 278.559 150.803 278.053 150.1 277.35C147.6 275.05 145.8 273.05 144.4 271.45C142 268.75 140.6 266.85 139.5 265.15C139.309 264.832 139.132 264.541 138.965 264.267ZM138.632 236.692C138.632 236.692 138.732 235.792 138.832 234.992C138.932 234.392 139.532 232.092 141.232 229.592C141.832 228.692 142.332 228.092 142.732 227.692C142.732 227.692 143.832 226.392 145.132 225.192C145.171 225.157 145.211 225.122 145.25 225.087C147.024 223.51 149.1 221.664 152.132 220.392C153.532 219.792 157.332 218.292 161.732 219.392C162.732 219.592 165.132 220.292 167.432 222.392C169.832 224.692 170.632 227.292 171.032 228.692C171.532 230.592 171.532 232.892 171.432 237.292C171.356 239.507 171.25 240.992 171.166 242.183C171.029 244.111 170.947 245.267 171.132 247.492C171.132 247.492 171.232 248.292 171.532 252.192C171.573 252.274 172.134 253.044 172.907 254.104C174.019 255.631 175.569 257.758 176.632 259.292C176.708 259.407 176.77 259.492 176.823 259.565C176.908 259.683 176.97 259.769 177.032 259.892C177.195 260.141 177.355 260.383 177.51 260.619C179.543 263.707 180.91 265.784 181.932 268.292C182.256 268.994 182.347 269.288 182.472 269.693C182.578 270.038 182.71 270.464 183.032 271.292C183.138 271.574 183.25 271.887 183.372 272.227C184.291 274.786 185.754 278.862 188.932 282.392C190.036 283.613 191.006 284.935 191.977 286.26C192.677 287.215 193.378 288.171 194.132 289.092C194.932 290.092 196.032 291.492 195.632 292.592C195.632 292.792 195.232 293.492 193.832 293.792C189.832 294.792 183.132 292.092 181.432 291.392C177.721 289.879 175.113 288.755 173.094 287.885C169.51 286.341 167.783 285.596 165.032 284.892C164.532 284.792 163.532 284.492 162.132 283.992C158.332 282.492 155.632 280.492 154.232 279.092C153.232 278.192 152.632 277.592 152.232 276.892C152.132 276.692 151.932 276.292 151.432 275.792C151.285 275.571 151.083 275.405 150.947 275.292C150.899 275.252 150.858 275.219 150.832 275.192C150.251 274.676 149.66 274.212 149.075 273.752C147.847 272.789 146.648 271.847 145.632 270.492C145.338 270.08 145.113 269.703 144.957 269.442C144.848 269.259 144.773 269.133 144.732 269.092C144.397 268.479 144.218 267.99 144.021 267.451C143.865 267.025 143.697 266.567 143.432 265.992C143.132 265.392 142.932 264.992 142.732 264.692C140.532 262.192 140.332 261.992 140.332 261.992C138.432 259.692 137.632 257.092 137.432 256.392C137.432 256.392 136.232 252.292 137.832 245.792C137.932 245.592 138.132 244.692 138.332 243.392C138.377 242.896 138.422 242.46 138.458 242.114C138.502 241.692 138.532 241.402 138.532 241.292C138.532 239.792 138.532 237.892 138.632 236.692Z" fill="#CC857C"/>
<path fill-rule="evenodd" clip-rule="evenodd" d="M162.446 218.467C162.662 218.525 162.883 218.591 163.106 218.663L162.772 219.666C162.473 219.571 162.209 219.5 161.988 219.448L162.446 218.467ZM164.493 220.37C164.29 220.269 164.093 220.177 163.903 220.094L164.352 219.131C164.584 219.23 164.817 219.337 165.052 219.452L164.493 220.37ZM165.259 220.787C165.354 220.842 165.449 220.9 165.545 220.96L165.955 219.932C165.877 219.887 165.798 219.843 165.72 219.8L165.259 220.787ZM166.617 221.707C166.456 221.582 166.294 221.463 166.134 221.35L166.735 220.413C166.901 220.522 167.067 220.636 167.233 220.755L166.617 221.707ZM167.219 222.202C167.29 222.264 167.361 222.328 167.432 222.392L167.464 222.423L168.246 221.548C168.138 221.455 168.03 221.365 167.921 221.278L167.219 222.202ZM168.878 224.049C168.73 223.845 168.572 223.641 168.404 223.437L169.227 222.438C169.294 222.503 169.363 222.572 169.435 222.645L168.878 224.049ZM169.541 225.063C169.688 225.313 169.822 225.56 169.943 225.802L170.828 224.294C170.683 224.094 170.538 223.905 170.395 223.727L169.541 225.063ZM170.678 227.555C170.628 227.409 170.574 227.259 170.515 227.104L171.579 225.441C171.747 225.727 171.912 226.03 172.069 226.349L170.678 227.555ZM170.881 228.181C170.938 228.365 170.987 228.536 171.032 228.692C171.11 228.987 171.175 229.292 171.23 229.613L172.952 228.674C172.905 228.501 172.855 228.326 172.8 228.15C172.674 227.76 172.533 227.388 172.382 227.032L170.881 228.181ZM171.442 231.695C171.431 231.471 171.417 231.256 171.402 231.048L173.328 230.695C173.347 230.855 173.366 231.02 173.384 231.19L171.442 231.695ZM173.173 229.67L171.342 230.407C171.322 230.235 171.301 230.067 171.277 229.904L173.095 229.273C173.123 229.404 173.149 229.536 173.173 229.67ZM171.48 233.005C171.482 233.162 171.483 233.323 171.484 233.488L173.568 233.328C173.553 233.133 173.538 232.945 173.524 232.764L171.48 233.005ZM171.465 235.661C171.471 235.36 171.475 235.07 171.478 234.79L173.701 234.925C173.714 235.103 173.727 235.288 173.738 235.485L171.465 235.661ZM171.455 236.245C171.448 236.58 171.44 236.929 171.432 237.292L171.428 237.405L173.796 237.223C173.791 236.849 173.783 236.513 173.772 236.207L171.455 236.245ZM171.376 238.702C171.347 239.328 171.317 239.885 171.286 240.39L173.816 239.957C173.811 239.612 173.806 239.245 173.803 238.849L171.376 238.702ZM171.166 242.183L171.18 241.976L173.844 241.995C173.845 242.296 173.844 242.583 173.839 242.865L171.082 243.423C171.105 243.037 171.134 242.632 171.165 242.185L171.166 242.183ZM171.036 244.396C171.025 244.74 171.021 245.085 171.026 245.45L173.772 244.842C173.783 244.577 173.792 244.337 173.797 244.12L171.036 244.396ZM171.132 247.492C171.106 247.185 171.086 246.898 171.07 246.627L173.721 246.135C173.714 246.351 173.709 246.576 173.705 246.812L171.139 247.549L171.134 247.507L171.132 247.492ZM171.212 248.3C171.226 248.446 171.241 248.615 171.258 248.812L173.726 248.198C173.719 248.082 173.712 247.962 173.708 247.837L171.212 248.3ZM171.416 250.718C171.378 250.233 171.344 249.818 171.314 249.463L173.794 249.172C173.798 249.265 173.8 249.357 173.8 249.45C173.813 249.607 173.824 249.755 173.835 249.896L171.416 250.718ZM171.462 251.288C171.484 251.569 171.507 251.87 171.532 252.192C171.544 252.217 171.603 252.303 171.7 252.44L174.141 252.233C174.126 252.173 174.112 252.112 174.1 252.05C173.992 251.671 173.942 251.293 173.904 250.835L171.462 251.288ZM172.815 253.978C172.553 253.619 172.318 253.297 172.123 253.028L174.434 253.028C174.506 253.177 174.588 253.325 174.679 253.48L172.815 253.978ZM173.522 254.949C173.779 255.302 174.048 255.672 174.321 256.048L175.812 255.294C175.74 255.181 175.67 255.067 175.6 254.95C175.507 254.799 175.419 254.658 175.334 254.525L173.522 254.949ZM175.478 257.655C175.318 257.432 175.155 257.205 174.991 256.977L176.5 256.271C176.654 256.468 176.824 256.672 177.015 256.892L175.478 257.655ZM176.081 258.504C176.275 258.779 176.46 259.043 176.632 259.292C176.708 259.407 176.77 259.492 176.823 259.565C176.908 259.683 176.97 259.769 177.032 259.892L177.058 259.932L178.724 258.637C178.59 258.515 178.45 258.387 178.3 258.25C178.168 258.118 178.043 257.992 177.925 257.87L176.081 258.504ZM179.152 263.139C178.871 262.697 178.574 262.239 178.259 261.758L180.45 260.258C180.743 260.551 181.066 260.886 181.449 261.296L179.152 263.139ZM180.549 265.449C180.636 265.604 180.72 265.758 180.803 265.912L183.814 264.491C183.678 264.231 183.505 263.909 183.307 263.562L180.549 265.449ZM181.932 268.292C181.809 267.99 181.68 267.693 181.546 267.4L184.572 266.141C184.613 266.264 184.655 266.4 184.7 266.55C184.778 266.811 184.843 267.004 184.899 267.159L182.021 268.488C181.994 268.427 181.964 268.361 181.932 268.292ZM182.458 269.647L182.472 269.693L182.472 269.693L182.472 269.693L182.472 269.694C182.542 269.92 182.622 270.18 182.76 270.565L185.671 269.257C185.58 269.031 185.495 268.813 185.406 268.56L182.458 269.647ZM183.372 272.227C183.279 271.968 183.191 271.724 183.108 271.498L186.092 270.255C186.155 270.405 186.224 270.568 186.3 270.75C186.376 270.928 186.453 271.119 186.531 271.32L183.531 272.668L183.448 272.439L183.372 272.227ZM183.872 273.596C183.995 273.923 184.127 274.264 184.269 274.616L187.314 273.279L187.3 273.25C187.162 272.94 187.036 272.63 186.918 272.328L183.872 273.596ZM184.668 275.57C184.567 275.337 184.47 275.108 184.378 274.884L187.612 273.889L187.681 274.03C187.709 274.089 187.738 274.148 187.768 274.209L184.668 275.57ZM184.947 276.194C185.034 276.383 185.124 276.574 185.218 276.767L188.37 275.383C188.275 275.208 188.187 275.04 188.104 274.88L184.947 276.194ZM186.105 278.452C185.898 278.089 185.703 277.729 185.52 277.372L188.733 276.034C188.906 276.334 189.097 276.654 189.31 276.993L186.105 278.452ZM186.811 279.611C187.101 280.059 187.412 280.507 187.745 280.95L190.955 279.49C190.708 279.096 190.426 278.654 190.135 278.227L186.811 279.611ZM188.932 282.392C188.819 282.266 188.707 282.139 188.598 282.012L191.691 280.637L191.7 280.65C191.862 280.812 192.066 281.048 192.303 281.327L189.273 282.777C189.16 282.648 189.047 282.519 188.932 282.392ZM190.936 284.852C190.988 284.922 191.04 284.991 191.092 285.061L194.379 283.629L194.231 283.48L190.936 284.852ZM191.977 286.26L191.975 286.257L191.973 286.254C191.843 286.077 191.712 285.899 191.582 285.721L195.034 284.284L195.8 285.05C195.8 285.05 196.056 285.306 196.348 285.635L192.033 286.336L191.977 286.26ZM192.491 286.959C192.809 287.39 193.129 287.819 193.457 288.243L198.208 288.075C197.852 287.589 197.535 287.168 197.271 286.818L197.088 286.576L192.491 286.959ZM195.388 290.914C195.153 290.442 194.82 289.974 194.493 289.55L199.427 289.798C199.55 289.977 199.674 290.161 199.8 290.35C199.809 290.367 199.822 290.393 199.84 290.428C199.926 290.595 200.111 290.955 200.314 291.4L195.388 290.914ZM195.707 291.91C195.732 292.146 195.711 292.375 195.632 292.592C195.632 292.702 195.512 292.962 195.172 293.224L200.999 295.166L201 295.158L201 295.15C201.1 294.95 201.1 294.75 201.1 294.55C201.2 294.05 201.1 293.65 201 293.25L201 293.25L200.989 293.205L200.974 293.149L195.707 291.91ZM192.259 294.004C192.576 293.991 192.885 293.964 193.182 293.92L197.887 296.815C197.794 296.827 197.699 296.838 197.6 296.85C197.222 296.884 196.89 296.919 196.599 296.949C196.042 297.007 195.628 297.05 195.3 297.05C194.959 297.069 194.646 297.088 194.358 297.106L192.259 294.004ZM190.74 293.965C190.3 293.928 189.853 293.872 189.403 293.801L190.111 297.23C190.622 297.25 191.137 297.25 191.7 297.25H191.7C191.887 297.25 192.086 297.245 192.302 297.235L190.74 293.965ZM187.478 293.41C187.678 293.459 187.88 293.505 188.082 293.549L188.273 297.053C188.124 297.03 187.972 297.003 187.815 296.973L187.478 293.41ZM186.434 293.138C186.141 293.057 185.853 292.973 185.572 292.887L185.589 296.368C185.97 296.504 186.322 296.618 186.628 296.709L186.434 293.138ZM183.295 292.12C183.687 292.264 184.118 292.416 184.578 292.569L184.459 295.939C183.956 295.735 183.476 295.511 182.963 295.21L183.295 292.12ZM180.735 291.107L180.298 293.111C180.204 293.049 180.091 292.982 179.947 292.897C179.873 292.853 179.792 292.805 179.7 292.75C179.509 292.635 179.347 292.535 179.209 292.45C179.116 292.393 179.034 292.342 178.961 292.298L179.163 290.459C179.663 290.667 180.186 290.882 180.735 291.107ZM175.381 290.563C175.738 290.721 176.257 290.956 176.819 291.22L177.135 289.611C176.657 289.41 176.204 289.218 175.773 289.034L175.381 290.563ZM174.004 288.277C173.688 288.141 173.385 288.01 173.094 287.885L173.094 287.885L172.832 287.772L172.411 289.413C172.889 289.582 173.319 289.739 173.689 289.877L174.004 288.277ZM171.048 287.008L170.692 288.816C170.435 288.729 170.171 288.64 169.9 288.55C169.621 288.457 169.369 288.374 169.139 288.3L169.874 286.518C170.246 286.67 170.634 286.833 171.048 287.008ZM167.571 287.835L167.891 285.757C167.792 285.722 167.694 285.688 167.596 285.654L167.22 287.747C167.337 287.775 167.453 287.804 167.571 287.835ZM166.459 287.566L166.793 285.391C166.302 285.237 165.796 285.092 165.252 284.949L164.591 287.114L164.644 287.131L164.7 287.15C165.312 287.334 165.849 287.442 166.242 287.522L166.243 287.522L166.246 287.523C166.323 287.538 166.394 287.552 166.459 287.566ZM162.346 286.348L162.82 284.233C162.603 284.159 162.373 284.078 162.132 283.992C161.893 283.898 161.659 283.802 161.429 283.704L160.484 285.44C161.033 285.743 161.684 286.074 162.346 286.348ZM158.585 282.298C158.773 282.405 158.966 282.512 159.163 282.618L158.447 284.209C158.243 284.076 158.003 283.911 157.717 283.705L158.585 282.298ZM156.53 282.812C156.391 282.704 156.245 282.589 156.093 282.468L156.738 281.14C156.886 281.243 157.039 281.346 157.196 281.449L156.53 282.812ZM155.303 280.059C155.454 280.184 155.613 280.311 155.78 280.44L155.047 281.62C154.837 281.447 154.617 281.264 154.386 281.071L155.303 280.059ZM154.618 279.463L153.751 280.535C153.607 280.413 153.46 280.287 153.308 280.157L154.253 279.114C154.367 279.226 154.488 279.343 154.618 279.463ZM152.544 279.51L152.68 279.624L153.588 278.5C153.425 278.345 153.275 278.198 153.138 278.056L152.372 279.365L152.544 279.51ZM151.595 278.714C151.325 278.484 151.07 278.263 150.815 278.031L152.122 276.683C152.169 276.767 152.204 276.837 152.232 276.892L152.232 276.892C152.336 277.075 152.454 277.25 152.589 277.426L151.595 278.714ZM148.518 275.846C148.349 275.68 148.183 275.516 148.022 275.354L149.451 274.049C149.585 274.154 149.719 274.261 149.852 274.368L148.518 275.846ZM147.002 274.31L148.161 273.026C147.849 272.772 147.542 272.513 147.242 272.24L146.067 273.313C146.363 273.635 146.674 273.967 147.002 274.31ZM145.081 272.222L146.109 271.084C145.946 270.896 145.787 270.699 145.632 270.492C145.504 270.313 145.389 270.141 145.287 269.981L143.927 270.913C144.08 271.088 144.238 271.267 144.4 271.45C144.617 271.698 144.844 271.956 145.081 272.222ZM150.066 277.319C149.881 277.148 149.699 276.979 149.521 276.811L151.071 275.396C151.176 275.488 151.295 275.603 151.395 275.74L150.066 277.319ZM160.871 218.147C160.646 218.122 160.421 218.104 160.212 218.09L159.951 219.076C160.187 219.102 160.425 219.134 160.665 219.173L160.871 218.147ZM159.1 218.05C159.1 218.05 159.199 218.05 159.365 218.054L159.273 219.021C159.157 219.015 159.043 219.01 158.929 219.006L159.072 218.05L159.1 218.05ZM158.202 218.029L158.066 218.024C157.854 218.015 157.646 218.007 157.44 218.003L157.467 219.038C157.685 219.022 157.907 219.011 158.133 219.005L158.202 218.029ZM155.3 218.25C155.404 218.218 155.507 218.19 155.609 218.165L155.816 219.253C155.412 219.328 155.029 219.416 154.671 219.51L154.348 218.508C154.659 218.416 154.977 218.33 155.3 218.25ZM137.4 261.45L137.412 261.475L139.354 260.647C139.235 260.461 139.122 260.276 139.015 260.092L137.181 260.949C137.251 261.117 137.324 261.284 137.4 261.45ZM138.415 263.357C138.291 263.147 138.172 262.941 138.056 262.735L140.194 261.823C140.24 261.879 140.285 261.936 140.332 261.992C140.332 261.992 140.38 262.041 140.69 262.386L138.415 263.357ZM139.335 264.876C139.389 264.965 139.444 265.056 139.5 265.15C139.529 265.194 139.558 265.239 139.587 265.284L142.252 264.147L141.922 263.773L139.335 264.876ZM140.919 267.202C140.625 266.804 140.355 266.424 140.103 266.056L143.058 265.255C143.115 265.364 143.176 265.482 143.241 265.612L140.919 267.202ZM141.609 268.115C141.767 268.318 141.931 268.526 142.102 268.74L144.014 267.431C143.926 267.191 143.834 266.942 143.724 266.667L141.609 268.115ZM143.525 270.45C143.438 270.349 143.353 270.25 143.269 270.151L144.762 269.129C144.806 269.188 144.871 269.297 144.957 269.442L144.969 269.461L143.525 270.45ZM153.703 219.795L153.243 218.87C153.008 218.955 152.777 219.042 152.55 219.133L152.86 220.095C153.11 219.999 153.392 219.897 153.703 219.795ZM151.034 219.808C151.214 219.719 151.396 219.633 151.58 219.548L152.023 220.438C151.864 220.506 151.707 220.576 151.552 220.648L151.034 219.808ZM150.295 221.288L149.607 220.576C149.374 220.712 149.146 220.851 148.924 220.992L149.425 221.805C149.705 221.628 149.995 221.456 150.295 221.288ZM146.882 222.435C147.158 222.219 147.445 222.003 147.744 221.788L148.415 222.483C148.101 222.708 147.798 222.936 147.507 223.165L146.882 222.435ZM146.836 223.709L146.117 223.058C145.987 223.168 145.861 223.277 145.737 223.386L146.468 224.02C146.589 223.916 146.712 223.812 146.836 223.709ZM144.355 224.673C144.47 224.559 144.589 224.443 144.713 224.325L145.503 224.862L145.25 225.087L145.132 225.192C145.093 225.228 145.054 225.264 145.016 225.3L144.355 224.673ZM136.811 259.984L138.619 259.369C138.571 259.275 138.524 259.182 138.479 259.09L136.679 259.592C136.722 259.724 136.766 259.855 136.811 259.984ZM137.971 257.953C138.034 258.109 138.103 258.273 138.178 258.443L136.471 258.919C136.422 258.751 136.375 258.582 136.329 258.411L137.971 257.953ZM136.156 257.728L137.721 257.292C137.7 257.233 137.68 257.176 137.662 257.122L136.114 257.553C136.128 257.612 136.142 257.67 136.156 257.728ZM137.2 255.223C137.239 255.488 137.279 255.71 137.315 255.887L135.843 256.297C135.797 256.063 135.752 255.826 135.707 255.586L137.2 255.223ZM135.486 254.313L137.072 254.106C137.054 253.894 137.039 253.669 137.027 253.43L135.378 253.646C135.414 253.871 135.45 254.093 135.486 254.313ZM137.002 252.013C136.998 252.314 137 252.602 137.006 252.875L135.29 253.1C135.251 252.903 135.199 252.637 135.15 252.313L137.002 252.013ZM135.033 251.263L137.023 251.278C137.035 251.014 137.051 250.741 137.073 250.459L135.001 250.483C135.004 250.758 135.015 251.018 135.033 251.263ZM137.265 248.708C137.23 248.953 137.199 249.194 137.172 249.429L135.001 249.123L135.037 248.423L135.037 248.423L135.049 248.182L137.265 248.708ZM135.116 246.894L137.425 247.71C137.473 247.437 137.527 247.159 137.586 246.875L135.158 246.145C135.144 246.391 135.13 246.64 135.116 246.894ZM138.136 244.548C138.098 244.747 138.062 244.926 138.028 245.082L135.311 244.015C135.32 243.912 135.33 243.809 135.339 243.707L138.136 244.548ZM135.506 242.225L138.319 243.476L138.332 243.392C138.362 243.06 138.393 242.754 138.42 242.485L135.566 241.798C135.545 241.94 135.525 242.082 135.506 242.225ZM138.532 241.292C138.532 241.337 138.527 241.412 138.518 241.514L135.72 240.84C135.739 240.735 135.758 240.629 135.778 240.523L138.532 240.605C138.532 240.841 138.532 241.071 138.532 241.292ZM136.135 238.891L138.536 239.717C138.537 239.578 138.538 239.437 138.539 239.298L136.213 238.571C136.187 238.679 136.16 238.785 136.135 238.891ZM138.55 238.563C138.548 238.679 138.546 238.795 138.544 238.913L136.303 238.212C136.338 238.077 136.373 237.94 136.409 237.802L138.55 238.563ZM136.659 236.877L138.565 237.966C138.575 237.641 138.589 237.332 138.606 237.05L136.858 236.184C136.789 236.417 136.723 236.648 136.659 236.877ZM138.824 235.055C138.781 235.399 138.739 235.756 138.705 236.049L137.227 235.011C137.31 234.761 137.396 234.512 137.485 234.263L138.824 235.055ZM137.988 232.964L139.134 233.839C139.22 233.575 139.324 233.279 139.451 232.956L138.319 232.21L138.3 232.25C138.192 232.485 138.088 232.724 137.988 232.964ZM140.073 231.565C139.99 231.732 139.911 231.895 139.837 232.055L138.872 231.156C138.993 230.941 139.114 230.735 139.236 230.535L140.073 231.565ZM139.454 230.188L140.268 231.188C140.334 231.065 140.402 230.94 140.474 230.814L139.682 229.841C139.606 229.954 139.53 230.069 139.454 230.188ZM141.232 229.592C141.034 229.883 140.851 230.171 140.682 230.454L139.912 229.508C140.118 229.217 140.324 228.944 140.528 228.687L141.247 229.571L141.232 229.592ZM140.945 228.18L141.628 229.02C141.82 228.755 141.999 228.523 142.166 228.32L141.436 227.627C141.275 227.802 141.111 227.986 140.945 228.18ZM144.083 226.217C143.845 226.462 143.628 226.693 143.441 226.896L142.819 226.223C142.985 226.06 143.144 225.906 143.294 225.756L144.083 226.217Z" fill="#D7998E"/>
<defs>
<clipPath id="clip0_3685:257651">
<rect width="360" height="378" fill="white"/>
</clipPath>
</defs>
</svg>
