<svg width="456" height="790" viewBox="0 0 456 790" fill="none" xmlns="http://www.w3.org/2000/svg">
<path d="M151.181 114.334C151.046 114.365 151.032 116.51 152.5 118.661C153.269 119.787 154.215 120.581 154.947 121.098C155.528 121.207 156.108 121.316 156.689 121.424C155.818 120.964 154.792 120.305 153.85 119.379C151.406 116.976 151.332 114.299 151.181 114.334Z" fill="#8FC25F"/>
<path d="M151.181 114.334C151.046 114.365 151.032 116.51 152.5 118.661C153.269 119.787 154.215 120.581 154.947 121.098C155.528 121.207 156.108 121.316 156.689 121.424C155.818 120.964 154.792 120.305 153.85 119.379C151.406 116.976 151.332 114.299 151.181 114.334Z" fill="url(#paint0_linear_4385_291079)"/>
<path d="M150.353 128.524C150.256 128.475 151.205 126.321 153.372 124.354C154.506 123.324 155.637 122.651 156.469 122.228C156.994 122.195 157.518 122.161 158.043 122.127C157.123 122.475 155.987 123.003 154.8 123.809C151.721 125.901 150.462 128.578 150.353 128.524Z" fill="#8FC25F"/>
<path d="M150.353 128.524C150.256 128.475 151.205 126.321 153.372 124.354C154.506 123.324 155.637 122.651 156.469 122.228C156.994 122.195 157.518 122.161 158.043 122.127C157.123 122.475 155.987 123.003 154.8 123.809C151.721 125.901 150.462 128.578 150.353 128.524Z" fill="url(#paint1_linear_4385_291079)"/>
<path d="M168.247 94.563C167.732 95.578 167.223 96.791 166.857 98.178C165.844 102.011 166.449 105.131 166.983 106.914C166.396 106.562 165.811 106.214 165.224 105.862C165.295 106.946 165.478 108.221 165.886 109.589C166.578 111.926 167.655 113.683 168.573 114.891C167.711 114.813 166.853 114.733 165.996 114.657C166.381 115.835 166.992 117.215 167.997 118.606C170.675 122.316 174.529 123.857 176.525 124.482C178.003 122.957 180.82 119.66 181.86 115.064C182.283 113.187 182.31 111.559 182.203 110.287C181.729 110.664 181.256 111.042 180.782 111.419C180.885 109.502 180.721 106.477 178.953 103.571C178.511 102.844 178.025 102.216 177.538 101.682C177.4 102.323 177.265 102.962 177.127 103.603C176.826 103.039 176.488 102.469 176.111 101.898C173.833 98.452 170.892 96.127 168.247 94.563Z" fill="#8FC25F"/>
<path d="M168.247 94.563C167.732 95.578 167.223 96.791 166.857 98.178C165.844 102.011 166.449 105.131 166.983 106.914C166.396 106.562 165.811 106.214 165.224 105.862C165.295 106.946 165.478 108.221 165.886 109.589C166.578 111.926 167.655 113.683 168.573 114.891C167.711 114.813 166.853 114.733 165.996 114.657C166.381 115.835 166.992 117.215 167.997 118.606C170.675 122.316 174.529 123.857 176.525 124.482C176 119.723 175.057 114.304 173.408 108.482C171.898 103.169 170.083 98.526 168.247 94.563Z" fill="url(#paint2_linear_4385_291079)"/>
<path d="M168.247 94.563C167.732 95.578 167.223 96.791 166.857 98.178C165.844 102.011 166.449 105.131 166.983 106.914C166.396 106.562 165.811 106.214 165.224 105.862C165.295 106.946 165.478 108.221 165.886 109.589C166.578 111.926 167.655 113.683 168.573 114.891C167.711 114.813 166.853 114.733 165.996 114.657C166.381 115.835 166.992 117.215 167.997 118.606C170.675 122.316 174.529 123.857 176.525 124.482C178.003 122.957 180.82 119.66 181.86 115.064C182.283 113.187 182.31 111.559 182.203 110.287C181.729 110.664 181.256 111.042 180.782 111.419C180.885 109.502 180.721 106.477 178.953 103.571C178.511 102.844 178.025 102.216 177.538 101.682C177.4 102.323 177.265 102.962 177.127 103.603C176.826 103.039 176.488 102.469 176.111 101.898C173.833 98.452 170.892 96.127 168.247 94.563Z" fill="url(#paint3_linear_4385_291079)"/>
<path d="M128.056 89.041C127.663 90.228 127.352 91.611 127.314 93.122C127.202 97.295 129.214 100.219 130.639 101.828C129.65 101.67 128.665 101.515 127.676 101.357C128.171 102.419 128.897 103.635 129.988 104.87C131.845 106.981 134.059 108.384 135.842 109.29C134.547 109.498 133.258 109.702 131.972 109.909C132.961 110.961 134.355 112.141 136.331 113.2C141.599 116.028 147.817 116.295 150.975 116.259C152.599 114.243 155.554 110.008 155.43 105.061C155.377 103.041 154.832 101.402 154.217 100.164C153.657 100.699 153.096 101.234 152.536 101.769C151.998 99.816 150.67 96.84 147.027 94.516C146.116 93.935 145.177 93.467 144.269 93.093C144.296 93.781 144.329 94.465 144.356 95.153C143.711 94.688 143.01 94.229 142.25 93.783C137.661 91.085 132.504 89.732 128.056 89.041Z" fill="#8FC25F"/>
<path d="M128.056 89.041C127.663 90.228 127.352 91.611 127.314 93.122C127.202 97.295 129.214 100.219 130.639 101.828C129.65 101.67 128.665 101.515 127.676 101.357C128.171 102.419 128.897 103.635 129.988 104.87C131.845 106.981 134.059 108.384 135.842 109.29C134.547 109.498 133.258 109.702 131.972 109.909C132.961 110.961 134.355 112.141 136.331 113.2C141.599 116.028 147.817 116.295 150.975 116.259C148.493 111.667 145.16 106.553 140.644 101.27C136.514 96.449 132.177 92.401 128.056 89.041Z" fill="url(#paint4_linear_4385_291079)"/>
<path d="M128.056 89.041C127.663 90.228 127.352 91.611 127.314 93.122C127.202 97.295 129.214 100.219 130.639 101.828C129.65 101.67 128.665 101.515 127.676 101.357C128.171 102.419 128.897 103.635 129.988 104.87C131.845 106.981 134.059 108.384 135.842 109.29C134.547 109.498 133.258 109.702 131.972 109.909C132.961 110.961 134.355 112.141 136.331 113.2C141.599 116.028 147.817 116.295 150.975 116.259C152.599 114.243 155.554 110.008 155.43 105.061C155.377 103.041 154.832 101.402 154.217 100.164C153.657 100.699 153.096 101.234 152.536 101.769C151.998 99.816 150.67 96.84 147.027 94.516C146.116 93.935 145.177 93.467 144.269 93.093C144.296 93.781 144.329 94.465 144.356 95.153C143.711 94.688 143.01 94.229 142.25 93.783C137.661 91.085 132.504 89.732 128.056 89.041Z" fill="url(#paint5_linear_4385_291079)"/>
<path d="M133.297 144.896C134.426 144.911 135.714 144.837 137.062 144.567C140.787 143.826 142.99 141.999 144.14 140.794C144.192 141.444 144.246 142.09 144.298 142.74C145.144 142.224 146.082 141.533 146.966 140.61C148.479 139.038 149.293 137.379 149.75 136.087C150.186 136.857 150.618 137.624 151.051 138.389C151.792 137.566 152.568 136.464 153.124 135.021C154.609 131.175 153.637 127.231 152.992 125.262C150.887 124.637 146.556 123.611 142.19 124.651C140.408 125.077 139.059 125.737 138.081 126.362C138.665 126.609 139.248 126.856 139.832 127.102C138.203 127.818 135.822 129.228 134.467 131.959C134.128 132.642 133.896 133.321 133.741 133.962C134.346 133.811 134.947 133.658 135.552 133.507C135.264 134.001 134.994 134.529 134.746 135.091C133.243 138.487 133.045 141.978 133.297 144.896Z" fill="#8FC25F"/>
<path d="M133.297 144.896C134.426 144.911 135.714 144.837 137.062 144.567C140.787 143.826 142.99 141.999 144.14 140.794C144.192 141.444 144.246 142.09 144.298 142.74C145.144 142.224 146.082 141.533 146.966 140.61C148.479 139.038 149.293 137.379 149.75 136.087C150.186 136.857 150.618 137.624 151.051 138.389C151.792 137.566 152.568 136.464 153.124 135.021C154.609 131.175 153.637 127.231 152.992 125.262C149.4 127.708 145.51 130.788 141.7 134.641C138.226 138.162 135.477 141.664 133.297 144.896Z" fill="url(#paint6_linear_4385_291079)"/>
<path d="M133.297 144.896C134.426 144.911 135.714 144.837 137.062 144.567C140.787 143.826 142.99 141.999 144.14 140.794C144.192 141.444 144.246 142.09 144.298 142.74C145.144 142.224 146.082 141.533 146.966 140.61C148.479 139.038 149.293 137.379 149.75 136.087C150.186 136.857 150.618 137.624 151.051 138.389C151.792 137.566 152.568 136.464 153.124 135.021C154.609 131.175 153.637 127.231 152.992 125.262C150.887 124.637 146.556 123.611 142.19 124.651C140.408 125.077 139.059 125.737 138.081 126.362C138.665 126.609 139.248 126.856 139.832 127.102C138.203 127.818 135.822 129.228 134.467 131.959C134.128 132.642 133.896 133.321 133.741 133.962C134.346 133.811 134.947 133.658 135.552 133.507C135.264 134.001 134.994 134.529 134.746 135.091C133.243 138.487 133.045 141.978 133.297 144.896Z" fill="url(#paint7_linear_4385_291079)"/>
<path d="M176.54 121.582C176.376 121.579 175.516 123.974 176.311 126.789C176.727 128.262 177.473 129.412 178.088 130.194C178.695 130.477 179.301 130.76 179.908 131.043C179.115 130.287 178.227 129.265 177.538 127.967C175.751 124.6 176.724 121.585 176.54 121.582Z" fill="#8FC25F"/>
<path d="M176.54 121.582C176.376 121.579 175.516 123.974 176.311 126.789C176.727 128.262 177.473 129.412 178.088 130.194C178.695 130.477 179.301 130.76 179.908 131.043C179.115 130.287 178.227 129.265 177.538 127.967C175.751 124.6 176.724 121.585 176.54 121.582Z" fill="url(#paint8_linear_4385_291079)"/>
<path d="M170.581 137.846C170.536 137.824 171.757 133.937 175.966 132.259C177.743 131.551 179.449 131.476 180.571 131.522C180.763 131.749 180.955 131.976 181.147 132.203C179.544 132.014 177.576 132.027 175.68 132.782C171.898 134.291 170.624 137.867 170.581 137.846Z" fill="#8FC25F"/>
<path d="M170.508 137.662C170.4 137.605 171.43 134.671 174.772 132.873C177.115 131.613 179.481 131.51 180.571 131.522C180.763 131.749 180.955 131.976 181.147 132.203C179.938 132.012 178.411 131.943 176.818 132.381C172.468 133.58 170.639 137.731 170.508 137.662Z" fill="url(#paint9_linear_4385_291079)"/>
<path d="M163.817 157.723C164.785 157.396 165.849 156.945 166.881 156.309C169.735 154.556 170.83 152.338 171.294 150.966C171.616 151.503 171.938 152.037 172.26 152.575C172.76 151.881 173.263 151.01 173.621 149.959C174.237 148.165 174.222 146.508 174.059 145.271C174.759 145.795 175.454 146.318 176.15 146.838C176.429 145.914 176.619 144.743 176.476 143.347C176.098 139.626 173.587 136.562 172.196 135.08C170.138 135.182 166.013 135.614 162.741 137.813C161.406 138.712 160.54 139.68 159.974 140.507C160.576 140.541 161.178 140.576 161.78 140.61C160.7 141.71 159.274 143.627 159.288 146.36C159.291 147.043 159.383 147.691 159.525 148.283C159.975 147.973 160.421 147.661 160.872 147.351C160.838 147.858 160.833 148.389 160.862 148.942C161.035 152.284 162.357 155.315 163.817 157.723Z" fill="#8FC25F"/>
<path d="M163.817 157.723C164.785 157.396 165.849 156.945 166.881 156.309C169.735 154.556 170.83 152.338 171.294 150.966C171.616 151.503 171.938 152.037 172.26 152.575C172.76 151.881 173.263 151.01 173.621 149.959C174.237 148.165 174.222 146.508 174.059 145.271C174.759 145.795 175.454 146.318 176.15 146.838C176.429 145.914 176.619 144.743 176.476 143.347C176.098 139.626 173.587 136.562 172.196 135.08C170.183 138.244 168.188 142.036 166.59 146.464C165.137 150.507 164.293 154.315 163.817 157.723Z" fill="url(#paint10_linear_4385_291079)"/>
<path d="M163.817 157.723C164.785 157.396 165.849 156.945 166.881 156.309C169.735 154.556 170.83 152.338 171.294 150.966C171.616 151.503 171.938 152.037 172.26 152.575C172.76 151.881 173.263 151.01 173.621 149.959C174.237 148.165 174.222 146.508 174.059 145.271C174.759 145.795 175.454 146.318 176.15 146.838C176.429 145.914 176.619 144.743 176.476 143.347C176.098 139.626 173.587 136.562 172.196 135.08C170.138 135.182 166.013 135.614 162.741 137.813C161.406 138.712 160.54 139.68 159.974 140.507C160.576 140.541 161.178 140.576 161.78 140.61C160.7 141.71 159.274 143.627 159.288 146.36C159.291 147.043 159.383 147.691 159.525 148.283C159.975 147.973 160.421 147.661 160.872 147.351C160.838 147.858 160.833 148.389 160.862 148.942C161.035 152.284 162.357 155.315 163.817 157.723Z" fill="url(#paint11_linear_4385_291079)"/>
<path d="M129.413 132.556C128.009 134.025 126.958 135.265 126.348 136.006C126.147 134.793 125.947 133.58 125.754 132.36C124.125 133.438 121.477 135.514 119.832 138.823C119.198 140.097 118.845 141.289 118.652 142.3C118.122 141.141 117.601 139.982 117.071 138.823C116.036 140.986 115.001 143.662 114.311 146.775C113.854 148.824 113.621 150.717 113.525 152.409C111.551 151.021 106.985 147.382 105.83 141.64C105.517 140.11 105.509 138.702 105.629 137.495C104.843 138.048 104.048 138.6 103.262 139.153C102.861 138.243 100.084 131.666 104.45 126.234C105.79 124.563 107.427 123.464 108.791 122.75C107.403 122.642 106.023 122.534 104.642 122.42C106.359 121.146 111.96 117.298 119.832 117.453C122.504 117.5 124.759 117.999 126.468 118.538C126.773 118.437 131.957 116.847 135.616 119.421C136.242 119.859 137.766 120.937 137.983 122.588C138.344 125.291 134.845 126.875 129.413 132.556Z" fill="#8FC25F"/>
<path d="M126.468 118.539C123.314 119.287 118.155 120.992 114.223 125.022C107.483 131.929 107.178 142.793 113.525 152.409C111.551 151.021 106.985 147.382 105.83 141.64C105.517 140.11 105.509 138.702 105.629 137.495C104.843 138.048 104.048 138.6 103.262 139.153C102.861 138.243 100.084 131.666 104.45 126.234C105.79 124.563 107.427 123.464 108.791 122.75C107.403 122.642 106.023 122.534 104.642 122.42C106.359 121.146 111.96 117.298 119.832 117.453C122.504 117.501 124.759 117.999 126.468 118.539Z" fill="url(#paint12_linear_4385_291079)"/>
<path d="M129.413 132.556C128.009 134.025 126.958 135.265 126.348 136.006C126.147 134.793 125.947 133.58 125.754 132.36C124.125 133.438 121.477 135.514 119.832 138.823C119.198 140.097 118.845 141.289 118.652 142.3C118.122 141.141 117.601 139.982 117.071 138.823C116.036 140.986 115.001 143.662 114.311 146.775C113.854 148.824 113.621 150.717 113.525 152.409C111.551 151.021 106.985 147.382 105.83 141.64C105.517 140.11 105.509 138.702 105.629 137.495C104.843 138.048 104.048 138.6 103.262 139.153C102.861 138.243 100.084 131.666 104.45 126.234C105.79 124.563 107.427 123.464 108.791 122.75C107.403 122.642 106.023 122.534 104.642 122.42C106.359 121.146 111.96 117.298 119.832 117.453C122.504 117.5 124.759 117.999 126.468 118.538C126.773 118.437 131.957 116.847 135.616 119.421C136.242 119.859 137.766 120.937 137.983 122.588C138.344 125.291 134.845 126.875 129.413 132.556Z" fill="url(#paint13_linear_4385_291079)"/>
<path d="M246.471 160.489C246.508 160.383 244.039 159.319 240.764 159.245C239.05 159.206 237.625 159.45 236.634 159.686C236.196 160.022 235.758 160.357 235.32 160.693C236.32 160.336 237.633 159.972 239.209 159.796C243.299 159.34 246.429 160.608 246.471 160.489Z" fill="#8FC25F"/>
<path d="M246.471 160.489C246.508 160.383 244.039 159.319 240.764 159.245C239.05 159.206 237.625 159.45 236.634 159.686C236.196 160.022 235.758 160.357 235.32 160.693C236.32 160.336 237.633 159.972 239.209 159.796C243.299 159.34 246.429 160.608 246.471 160.489Z" fill="url(#paint14_linear_4385_291079)"/>
<path d="M218.215 160.053C218.399 159.99 220.672 162.938 221.301 167.05C221.63 169.202 221.411 171.034 221.139 172.318C220.606 172.92 220.074 173.523 219.541 174.125C220.027 172.812 220.478 171.104 220.553 169.092C220.747 163.873 218.009 160.123 218.215 160.053Z" fill="#8FC25F"/>
<path d="M218.215 160.053C218.399 159.99 220.672 162.938 221.301 167.05C221.63 169.202 221.411 171.034 221.139 172.318C220.606 172.92 220.074 173.523 219.541 174.125C220.027 172.812 220.478 171.104 220.553 169.092C220.747 163.873 218.009 160.123 218.215 160.053Z" fill="url(#paint15_linear_4385_291079)"/>
<path d="M229.722 179.6C229.742 179.434 225.738 178.423 220.86 179.062C218.307 179.397 216.274 180.084 214.882 180.661C214.342 181.259 213.801 181.856 213.261 182.454C214.626 181.696 216.455 180.856 218.735 180.235C224.648 178.623 229.699 179.786 229.722 179.6Z" fill="#8FC25F"/>
<path d="M229.722 179.6C229.742 179.434 225.738 178.423 220.86 179.062C218.307 179.397 216.274 180.084 214.882 180.661C214.342 181.259 213.801 181.856 213.261 182.454C214.626 181.696 216.455 180.856 218.735 180.235C224.648 178.623 229.699 179.786 229.722 179.6Z" fill="url(#paint16_linear_4385_291079)"/>
<path d="M244.316 147.43C244.434 147.418 245.197 149.424 244.79 151.886C244.577 153.175 244.107 154.206 243.709 154.912C243.288 155.19 242.867 155.468 242.446 155.746C242.973 155.051 243.554 154.122 243.975 152.968C245.065 149.975 244.184 147.444 244.316 147.43Z" fill="#8FC25F"/>
<path d="M244.316 147.43C244.434 147.418 245.197 149.424 244.79 151.886C244.577 153.175 244.107 154.206 243.709 154.912C243.288 155.19 242.867 155.468 242.446 155.746C242.973 155.051 243.554 154.122 243.975 152.968C245.065 149.975 244.184 147.444 244.316 147.43Z" fill="url(#paint17_linear_4385_291079)"/>
<path d="M309.025 129.828C308.229 131.146 307.16 132.624 305.706 134.118C301.695 138.246 296.892 140.302 293.946 141.306C295.045 141.547 296.137 141.79 297.236 142.031C295.717 142.872 293.824 143.771 291.565 144.543C287.712 145.866 284.216 146.352 281.623 146.525C282.653 147.246 283.681 147.962 284.702 148.679C282.721 149.313 280.228 149.91 277.299 150.155C269.486 150.814 263.295 148.587 260.319 147.289C260.76 144.666 262.121 139.341 267.121 134.549C269.164 132.594 271.302 131.208 273.11 130.243C273.117 130.991 273.123 131.738 273.13 132.486C275.57 130.79 279.772 128.41 285.539 127.593C286.981 127.389 288.338 127.307 289.573 127.305C288.868 127.967 288.162 128.624 287.458 129.286C288.532 129.089 289.653 128.92 290.818 128.788C297.849 127.984 304.102 128.723 309.025 129.828Z" fill="#8FC25F"/>
<path d="M309.025 129.828C308.229 131.146 307.16 132.624 305.706 134.118C301.695 138.246 296.892 140.302 293.946 141.306C295.045 141.547 296.137 141.79 297.236 142.031C295.717 142.872 293.824 143.771 291.565 144.543C287.712 145.866 284.216 146.352 281.623 146.525C282.653 147.246 283.681 147.962 284.702 148.679C282.721 149.313 280.228 149.91 277.299 150.155C269.486 150.814 263.295 148.587 260.319 147.289C267.216 143.789 275.439 140.119 284.958 136.756C293.65 133.692 301.78 131.466 309.025 129.828Z" fill="url(#paint18_linear_4385_291079)"/>
<path d="M309.025 129.828C308.229 131.146 307.16 132.624 305.706 134.118C301.695 138.246 296.892 140.302 293.946 141.306C295.045 141.547 296.137 141.79 297.236 142.031C295.717 142.872 293.824 143.771 291.565 144.543C287.712 145.866 284.216 146.352 281.623 146.525C282.653 147.246 283.681 147.962 284.702 148.679C282.721 149.313 280.228 149.91 277.299 150.155C269.486 150.814 263.295 148.587 260.319 147.289C260.76 144.666 262.121 139.341 267.121 134.549C269.164 132.594 271.302 131.208 273.11 130.243C273.117 130.991 273.123 131.738 273.13 132.486C275.57 130.79 279.772 128.41 285.539 127.593C286.981 127.389 288.338 127.307 289.573 127.305C288.868 127.967 288.162 128.624 287.458 129.286C288.532 129.089 289.653 128.92 290.818 128.788C297.849 127.984 304.102 128.723 309.025 129.828Z" fill="url(#paint19_linear_4385_291079)"/>
<path d="M246.031 118.946C246.914 119.811 247.843 120.87 248.653 122.132C250.893 125.617 251.04 128.788 250.903 130.644C251.495 130.165 252.085 129.69 252.677 129.211C252.891 130.28 253.026 131.561 252.924 132.985C252.755 135.416 251.974 137.374 251.23 138.762C252.219 138.485 253.203 138.207 254.187 137.932C254.059 139.166 253.722 140.649 252.925 142.234C250.804 146.462 246.708 148.86 244.539 149.934C242.387 148.799 238.179 146.256 235.698 142.036C234.687 140.312 234.208 138.737 233.985 137.477C234.644 137.733 235.303 137.989 235.962 138.244C235.315 136.407 234.677 133.431 235.952 130.195C236.271 129.386 236.668 128.663 237.093 128.03C237.431 128.62 237.764 129.209 238.102 129.799C238.3 129.181 238.539 128.548 238.826 127.906C240.55 124.028 243.36 121.083 246.031 118.946Z" fill="#8FC25F"/>
<path d="M246.031 118.946C246.914 119.811 247.843 120.87 248.653 122.132C250.893 125.617 251.04 128.788 250.903 130.644C251.495 130.165 252.085 129.69 252.677 129.211C252.891 130.28 253.026 131.561 252.924 132.985C252.755 135.416 251.974 137.374 251.23 138.762C252.219 138.485 253.203 138.207 254.187 137.932C254.059 139.166 253.722 140.649 252.925 142.234C250.804 146.462 246.708 148.86 244.539 149.934C243.848 145.19 243.466 139.708 243.801 133.669C244.113 128.156 244.967 123.223 246.031 118.946Z" fill="url(#paint20_linear_4385_291079)"/>
<path d="M246.031 118.946C246.914 119.811 247.843 120.87 248.653 122.132C250.893 125.617 251.04 128.788 250.903 130.644C251.495 130.165 252.085 129.69 252.677 129.211C252.891 130.28 253.026 131.561 252.924 132.985C252.755 135.416 251.974 137.374 251.23 138.762C252.219 138.485 253.203 138.207 254.187 137.932C254.059 139.166 253.722 140.649 252.925 142.234C250.804 146.462 246.708 148.86 244.539 149.934C242.387 148.799 238.179 146.256 235.698 142.036C234.687 140.312 234.208 138.737 233.985 137.477C234.644 137.733 235.303 137.989 235.962 138.244C235.315 136.407 234.677 133.431 235.952 130.195C236.271 129.386 236.668 128.663 237.093 128.03C237.431 128.62 237.764 129.209 238.102 129.799C238.3 129.181 238.539 128.548 238.826 127.906C240.55 124.028 243.36 121.083 246.031 118.946Z" fill="url(#paint21_linear_4385_291079)"/>
<path d="M221.307 139.492C222.015 140.186 222.761 141.036 223.411 142.049C225.209 144.845 225.326 147.39 225.217 148.88C225.692 148.496 226.166 148.114 226.641 147.73C226.813 148.588 226.921 149.616 226.839 150.758C226.703 152.709 226.077 154.28 225.479 155.394C226.273 155.172 227.063 154.948 227.852 154.728C227.749 155.718 227.479 156.908 226.84 158.18C225.138 161.573 221.851 163.497 220.111 164.359C218.384 163.448 215.008 161.408 213.016 158.021C212.204 156.638 211.82 155.374 211.641 154.363C212.17 154.568 212.699 154.774 213.228 154.979C212.709 153.505 212.197 151.116 213.22 148.52C213.476 147.871 213.794 147.29 214.135 146.783C214.406 147.257 214.673 147.729 214.945 148.203C215.104 147.707 215.296 147.199 215.526 146.684C216.908 143.571 219.163 141.207 221.307 139.492Z" fill="#8FC25F"/>
<path d="M221.307 139.492C222.015 140.186 222.761 141.036 223.411 142.049C225.209 144.845 225.326 147.39 225.217 148.88C225.692 148.496 226.166 148.114 226.641 147.73C226.813 148.588 226.921 149.616 226.839 150.758C226.703 152.709 226.077 154.28 225.479 155.394C226.273 155.172 227.063 154.948 227.852 154.728C227.749 155.718 227.479 156.908 226.84 158.18C225.138 161.573 221.851 163.497 220.111 164.359C219.556 160.552 219.25 156.152 219.519 151.306C219.768 146.884 220.453 142.925 221.307 139.492Z" fill="url(#paint22_linear_4385_291079)"/>
<path d="M221.307 139.492C222.015 140.186 222.761 141.036 223.411 142.049C225.209 144.845 225.326 147.39 225.217 148.88C225.692 148.496 226.166 148.114 226.641 147.73C226.813 148.588 226.921 149.616 226.839 150.758C226.703 152.709 226.077 154.28 225.479 155.394C226.273 155.172 227.063 154.948 227.852 154.728C227.749 155.718 227.479 156.908 226.84 158.18C225.138 161.573 221.851 163.497 220.111 164.359C218.384 163.448 215.008 161.408 213.016 158.021C212.204 156.638 211.82 155.374 211.641 154.363C212.17 154.568 212.699 154.774 213.228 154.979C212.709 153.505 212.197 151.116 213.22 148.52C213.476 147.871 213.794 147.29 214.135 146.783C214.406 147.257 214.673 147.729 214.945 148.203C215.104 147.707 215.296 147.199 215.526 146.684C216.908 143.571 219.163 141.207 221.307 139.492Z" fill="url(#paint23_linear_4385_291079)"/>
<path d="M285.261 180.488C283.382 180.885 281.204 181.211 278.849 181.287C272.342 181.502 267.951 179.709 265.56 178.427C265.727 179.342 265.889 180.255 266.056 181.17C264.442 180.738 262.607 180.095 260.771 179.113C257.632 177.443 255.625 175.421 254.357 173.787C253.93 174.996 253.51 176.201 253.085 177.402C251.526 176.51 249.8 175.246 248.309 173.436C244.327 168.613 244.408 162.838 244.715 159.901C247.984 158.337 254.812 155.477 262.505 155.461C265.645 155.456 268.155 155.92 270.033 156.459C269.156 156.994 268.278 157.53 267.401 158.065C270.399 158.513 274.926 159.669 278.254 162.994C279.086 163.825 279.74 164.686 280.249 165.521C279.181 165.514 278.118 165.502 277.049 165.495C277.722 166.082 278.38 166.722 279.014 167.417C282.846 171.611 284.541 176.37 285.261 180.488Z" fill="#8FC25F"/>
<path d="M285.261 180.488C283.382 180.885 281.204 181.211 278.849 181.287C272.342 181.502 267.951 179.709 265.56 178.427C265.727 179.342 265.889 180.255 266.056 181.17C264.442 180.738 262.607 180.095 260.771 179.113C257.632 177.443 255.625 175.421 254.357 173.787C253.93 174.996 253.51 176.201 253.085 177.402C251.526 176.51 249.8 175.246 248.309 173.436C244.327 168.613 244.408 162.838 244.715 159.901C251.666 162.087 259.362 165.05 267.227 169.109C274.402 172.82 280.359 176.745 285.261 180.488Z" fill="url(#paint24_linear_4385_291079)"/>
<path d="M285.261 180.488C283.382 180.885 281.204 181.211 278.849 181.287C272.342 181.502 267.951 179.709 265.56 178.427C265.727 179.342 265.889 180.255 266.056 181.17C264.442 180.738 262.607 180.095 260.771 179.113C257.632 177.443 255.625 175.421 254.357 173.787C253.93 174.996 253.51 176.201 253.085 177.402C251.526 176.51 249.8 175.246 248.309 173.436C244.327 168.613 244.408 162.838 244.715 159.901C247.984 158.337 254.812 155.477 262.505 155.461C265.645 155.456 268.155 155.92 270.033 156.459C269.156 156.994 268.278 157.53 267.401 158.065C270.399 158.513 274.926 159.669 278.254 162.994C279.086 163.825 279.74 164.686 280.249 165.521C279.181 165.514 278.118 165.502 277.049 165.495C277.722 166.082 278.38 166.722 279.014 167.417C282.846 171.611 284.541 176.37 285.261 180.488Z" fill="url(#paint25_linear_4385_291079)"/>
<path d="M250.867 190.911C249.808 191.135 248.58 191.318 247.252 191.361C243.584 191.482 241.109 190.472 239.761 189.749C239.855 190.265 239.947 190.779 240.041 191.295C239.131 191.052 238.097 190.689 237.062 190.136C235.292 189.195 234.161 188.055 233.446 187.134C233.206 187.816 232.968 188.495 232.729 189.172C231.85 188.669 230.877 187.957 230.037 186.937C227.792 184.218 227.838 180.963 228.011 179.307C229.854 178.425 233.703 176.813 238.039 176.804C239.809 176.801 241.224 177.063 242.282 177.367C241.787 177.669 241.293 177.971 240.798 178.272C242.488 178.525 245.04 179.176 246.916 181.051C247.385 181.52 247.753 182.005 248.04 182.475C247.438 182.471 246.839 182.464 246.236 182.46C246.615 182.791 246.986 183.152 247.344 183.543C249.505 185.907 250.461 188.59 250.867 190.911Z" fill="#8FC25F"/>
<path d="M250.867 190.911C249.808 191.135 248.58 191.318 247.252 191.361C243.584 191.482 241.109 190.472 239.761 189.749C239.855 190.265 239.947 190.779 240.041 191.295C239.131 191.052 238.097 190.689 237.062 190.136C235.292 189.195 234.161 188.055 233.446 187.134C233.206 187.816 232.968 188.495 232.729 189.172C231.85 188.669 230.877 187.957 230.037 186.937C227.792 184.218 227.838 180.963 228.011 179.307C231.929 180.539 236.267 182.209 240.701 184.497C244.745 186.589 248.103 188.801 250.867 190.911Z" fill="url(#paint26_linear_4385_291079)"/>
<path d="M250.867 190.911C249.808 191.135 248.58 191.318 247.252 191.361C243.584 191.482 241.109 190.472 239.761 189.749C239.855 190.265 239.947 190.779 240.041 191.295C239.131 191.052 238.097 190.689 237.062 190.136C235.292 189.195 234.161 188.055 233.446 187.134C233.206 187.816 232.968 188.495 232.729 189.172C231.85 188.669 230.877 187.957 230.037 186.937C227.792 184.218 227.838 180.963 228.011 179.307C229.854 178.425 233.703 176.813 238.039 176.804C239.809 176.801 241.224 177.063 242.282 177.367C241.787 177.669 241.293 177.971 240.798 178.272C242.488 178.525 245.04 179.176 246.916 181.051C247.385 181.52 247.753 182.005 248.04 182.475C247.438 182.471 246.839 182.464 246.236 182.46C246.615 182.791 246.986 183.152 247.344 183.543C249.505 185.907 250.461 188.59 250.867 190.911Z" fill="url(#paint27_linear_4385_291079)"/>
<path d="M145.776 380.143C145.607 380.182 145.59 382.854 147.42 385.536C148.378 386.94 149.557 387.928 150.469 388.573C151.193 388.709 151.916 388.845 152.64 388.981C151.555 388.408 150.276 387.586 149.102 386.432C146.056 383.437 145.965 380.1 145.776 380.143Z" fill="#8FC25F"/>
<path d="M145.776 380.143C145.607 380.182 145.59 382.854 147.42 385.536C148.378 386.94 149.557 387.928 150.469 388.573C151.193 388.709 151.916 388.845 152.64 388.981C151.555 388.408 150.276 387.586 149.102 386.432C146.056 383.437 145.965 380.1 145.776 380.143Z" fill="url(#paint28_linear_4385_291079)"/>
<path d="M144.744 397.827C144.623 397.766 145.806 395.082 148.507 392.63C149.921 391.347 151.33 390.508 152.366 389.98C153.02 389.938 153.674 389.897 154.327 389.855C153.181 390.289 151.765 390.946 150.285 391.951C146.449 394.559 144.88 397.895 144.744 397.827Z" fill="#8FC25F"/>
<path d="M144.744 397.827C144.623 397.766 145.806 395.082 148.507 392.63C149.921 391.347 151.33 390.508 152.366 389.98C153.02 389.938 153.674 389.897 154.327 389.855C153.181 390.289 151.765 390.946 150.285 391.951C146.449 394.559 144.88 397.895 144.744 397.827Z" fill="url(#paint29_linear_4385_291079)"/>
<path d="M167.044 355.504C166.402 356.768 165.768 358.28 165.312 360.01C164.049 364.786 164.804 368.675 165.469 370.897C164.737 370.459 164.008 370.024 163.276 369.586C163.365 370.937 163.593 372.526 164.101 374.231C164.963 377.144 166.306 379.334 167.449 380.839C166.375 380.742 165.305 380.643 164.238 380.547C164.718 382.015 165.479 383.735 166.731 385.468C170.068 390.091 174.872 392.012 177.359 392.791C179.202 390.891 182.712 386.782 184.008 381.054C184.535 378.715 184.569 376.685 184.435 375.1C183.845 375.57 183.254 376.041 182.664 376.511C182.792 374.122 182.588 370.352 180.385 366.73C179.834 365.824 179.229 365.042 178.621 364.376C178.449 365.175 178.281 365.971 178.109 366.77C177.734 366.067 177.313 365.357 176.842 364.646C174.006 360.35 170.34 357.453 167.044 355.504Z" fill="#8FC25F"/>
<path d="M167.044 355.504C166.402 356.768 165.768 358.28 165.312 360.01C164.049 364.786 164.804 368.675 165.469 370.897C164.737 370.459 164.008 370.024 163.276 369.586C163.365 370.937 163.593 372.526 164.101 374.231C164.963 377.144 166.306 379.334 167.449 380.839C166.375 380.742 165.305 380.643 164.238 380.547C164.718 382.015 165.479 383.735 166.731 385.468C170.068 390.091 174.872 392.012 177.359 392.791C176.705 386.86 175.53 380.107 173.475 372.852C171.595 366.229 169.332 360.442 167.044 355.504Z" fill="url(#paint30_linear_4385_291079)"/>
<path d="M167.044 355.504C166.402 356.768 165.768 358.28 165.312 360.01C164.049 364.786 164.804 368.675 165.469 370.897C164.737 370.459 164.008 370.024 163.276 369.586C163.365 370.937 163.593 372.526 164.101 374.231C164.963 377.144 166.306 379.334 167.449 380.839C166.375 380.742 165.305 380.643 164.238 380.547C164.718 382.015 165.479 383.735 166.731 385.468C170.068 390.091 174.872 392.012 177.359 392.791C179.202 390.891 182.712 386.782 184.008 381.054C184.535 378.715 184.569 376.685 184.435 375.1C183.845 375.57 183.254 376.041 182.664 376.511C182.792 374.122 182.588 370.352 180.385 366.73C179.834 365.824 179.229 365.042 178.621 364.376C178.449 365.175 178.281 365.971 178.109 366.77C177.734 366.067 177.313 365.357 176.842 364.646C174.006 360.35 170.34 357.453 167.044 355.504Z" fill="url(#paint31_linear_4385_291079)"/>
<path d="M116.956 348.623C116.467 350.102 116.079 351.826 116.031 353.708C115.892 358.909 118.398 362.553 120.175 364.557C118.942 364.36 117.714 364.167 116.482 363.971C117.098 365.294 118.004 366.809 119.364 368.349C121.678 370.98 124.438 372.728 126.659 373.857C125.046 374.116 123.438 374.37 121.836 374.628C123.068 375.939 124.805 377.41 127.268 378.73C133.833 382.254 141.582 382.587 145.517 382.542C147.541 380.029 151.223 374.752 151.069 368.587C151.003 366.07 150.323 364.027 149.557 362.484C148.859 363.151 148.16 363.817 147.462 364.484C146.792 362.05 145.137 358.342 140.597 355.445C139.462 354.721 138.291 354.138 137.16 353.672C137.194 354.529 137.234 355.382 137.268 356.239C136.465 355.659 135.59 355.087 134.643 354.531C128.927 351.171 122.5 349.484 116.956 348.623Z" fill="#8FC25F"/>
<path d="M116.956 348.623C116.467 350.102 116.079 351.826 116.031 353.708C115.892 358.909 118.398 362.553 120.175 364.557C118.942 364.36 117.714 364.167 116.482 363.971C117.098 365.294 118.004 366.809 119.364 368.349C121.678 370.98 124.438 372.728 126.659 373.857C125.046 374.116 123.438 374.37 121.836 374.628C123.068 375.939 124.805 377.41 127.268 378.73C133.833 382.254 141.582 382.587 145.517 382.542C142.424 376.819 138.27 370.447 132.642 363.862C127.498 357.856 122.093 352.811 116.956 348.623Z" fill="url(#paint32_linear_4385_291079)"/>
<path d="M116.956 348.623C116.467 350.102 116.079 351.826 116.031 353.708C115.892 358.909 118.398 362.553 120.175 364.557C118.942 364.36 117.714 364.167 116.482 363.971C117.098 365.294 118.004 366.809 119.364 368.349C121.678 370.98 124.438 372.728 126.659 373.857C125.046 374.116 123.438 374.37 121.836 374.628C123.068 375.939 124.805 377.41 127.268 378.73C133.833 382.254 141.582 382.587 145.517 382.542C147.541 380.029 151.223 374.752 151.069 368.587C151.003 366.07 150.323 364.027 149.557 362.484C148.859 363.151 148.16 363.817 147.462 364.484C146.792 362.05 145.137 358.342 140.597 355.445C139.462 354.721 138.291 354.138 137.16 353.672C137.194 354.529 137.234 355.382 137.268 356.239C136.465 355.659 135.59 355.087 134.643 354.531C128.927 351.171 122.5 349.484 116.956 348.623Z" fill="url(#paint33_linear_4385_291079)"/>
<path d="M123.488 418.232C124.895 418.251 126.5 418.158 128.18 417.823C132.822 416.899 135.568 414.622 137.001 413.121C137.066 413.931 137.133 414.737 137.199 415.546C138.253 414.903 139.422 414.042 140.523 412.892C142.408 410.933 143.423 408.865 143.992 407.256C144.535 408.215 145.073 409.172 145.614 410.125C146.538 409.099 147.505 407.726 148.198 405.928C150.049 401.134 148.838 396.22 148.034 393.766C145.411 392.987 140.013 391.709 134.572 393.004C132.351 393.534 130.67 394.357 129.451 395.137C130.178 395.444 130.905 395.752 131.633 396.06C129.603 396.953 126.635 398.709 124.947 402.113C124.525 402.964 124.235 403.81 124.042 404.609C124.796 404.421 125.545 404.23 126.299 404.042C125.941 404.657 125.603 405.316 125.294 406.017C123.421 410.244 123.174 414.595 123.488 418.232Z" fill="#8FC25F"/>
<path d="M123.488 418.232C124.895 418.251 126.5 418.158 128.18 417.823C132.822 416.899 135.568 414.622 137.001 413.121C137.066 413.931 137.133 414.737 137.199 415.546C138.253 414.903 139.422 414.042 140.523 412.892C142.408 410.933 143.423 408.865 143.992 407.256C144.535 408.215 145.073 409.172 145.614 410.125C146.538 409.099 147.505 407.726 148.198 405.928C150.049 401.134 148.838 396.22 148.034 393.766C143.557 396.814 138.71 400.652 133.962 405.455C129.631 409.84 126.205 414.203 123.488 418.232Z" fill="url(#paint34_linear_4385_291079)"/>
<path d="M123.488 418.232C124.895 418.251 126.5 418.158 128.18 417.823C132.822 416.899 135.568 414.622 137.001 413.121C137.066 413.931 137.133 414.737 137.199 415.546C138.253 414.903 139.422 414.042 140.523 412.892C142.408 410.933 143.423 408.865 143.992 407.256C144.535 408.215 145.073 409.172 145.614 410.125C146.538 409.099 147.505 407.726 148.198 405.928C150.049 401.134 148.838 396.22 148.034 393.766C145.411 392.987 140.013 391.709 134.572 393.004C132.351 393.534 130.67 394.357 129.451 395.137C130.178 395.444 130.905 395.752 131.633 396.06C129.603 396.953 126.635 398.709 124.947 402.113C124.525 402.964 124.235 403.81 124.042 404.609C124.796 404.421 125.545 404.23 126.299 404.042C125.941 404.657 125.603 405.316 125.294 406.017C123.421 410.244 123.174 414.595 123.488 418.232Z" fill="url(#paint35_linear_4385_291079)"/>
<path d="M177.38 389.177C177.176 389.173 176.104 392.158 177.095 395.666C177.614 397.502 178.543 398.935 179.31 399.909C180.066 400.262 180.822 400.614 181.578 400.967C180.59 400.025 179.483 398.751 178.624 397.133C176.396 392.938 177.608 389.181 177.38 389.177Z" fill="#8FC25F"/>
<path d="M177.38 389.177C177.176 389.173 176.104 392.158 177.095 395.666C177.614 397.502 178.543 398.935 179.31 399.909C180.066 400.262 180.822 400.614 181.578 400.967C180.59 400.025 179.483 398.751 178.624 397.133C176.396 392.938 177.608 389.181 177.38 389.177Z" fill="url(#paint36_linear_4385_291079)"/>
<path d="M169.263 408.669C169.152 408.567 171.532 405.894 175.518 403.901C177.605 402.858 179.511 402.312 180.878 402.009C181.626 402.144 182.373 402.279 183.121 402.414C181.668 402.581 179.825 402.923 177.775 403.636C172.456 405.488 169.387 408.783 169.263 408.669Z" fill="#8FC25F"/>
<path d="M169.263 408.669C169.152 408.567 171.532 405.894 175.518 403.901C177.605 402.858 179.511 402.312 180.878 402.009C181.626 402.144 182.373 402.279 183.121 402.414C181.668 402.581 179.825 402.923 177.775 403.636C172.456 405.488 169.387 408.783 169.263 408.669Z" fill="url(#paint37_linear_4385_291079)"/>
<path d="M161.523 434.216C162.729 433.808 164.055 433.245 165.342 432.453C168.898 430.269 170.263 427.504 170.842 425.794C171.243 426.463 171.645 427.129 172.046 427.799C172.669 426.934 173.295 425.849 173.742 424.539C174.51 422.304 174.49 420.24 174.288 418.698C175.16 419.351 176.026 420.003 176.893 420.651C177.241 419.499 177.478 418.04 177.3 416.301C176.828 411.664 173.699 407.846 171.967 405.999C169.402 406.126 164.262 406.664 160.184 409.405C158.521 410.525 157.441 411.732 156.736 412.763C157.486 412.806 158.236 412.848 158.987 412.891C157.641 414.262 155.864 416.651 155.881 420.057C155.885 420.908 156 421.715 156.176 422.453C156.737 422.066 157.293 421.679 157.855 421.292C157.813 421.924 157.807 422.586 157.843 423.275C158.056 427.438 159.703 431.216 161.523 434.216Z" fill="#8FC25F"/>
<path d="M161.523 434.216C162.729 433.808 164.055 433.245 165.342 432.453C168.898 430.269 170.263 427.504 170.842 425.794C171.243 426.463 171.645 427.129 172.046 427.799C172.669 426.934 173.295 425.849 173.742 424.539C174.51 422.304 174.49 420.24 174.288 418.698C175.16 419.351 176.026 420.003 176.893 420.651C177.241 419.499 177.478 418.04 177.3 416.301C176.828 411.664 173.699 407.846 171.967 405.999C169.459 409.942 166.972 414.667 164.981 420.185C163.169 425.223 162.116 429.969 161.523 434.216Z" fill="url(#paint38_linear_4385_291079)"/>
<path d="M161.523 434.216C162.729 433.808 164.055 433.245 165.342 432.453C168.898 430.269 170.263 427.504 170.842 425.794C171.243 426.463 171.645 427.129 172.046 427.799C172.669 426.934 173.295 425.849 173.742 424.539C174.51 422.304 174.49 420.24 174.288 418.698C175.16 419.351 176.026 420.003 176.893 420.651C177.241 419.499 177.478 418.04 177.3 416.301C176.828 411.664 173.699 407.846 171.967 405.999C169.402 406.126 164.262 406.664 160.184 409.405C158.521 410.525 157.441 411.732 156.736 412.763C157.486 412.806 158.236 412.848 158.987 412.891C157.641 414.262 155.864 416.651 155.881 420.057C155.885 420.908 156 421.715 156.176 422.453C156.737 422.066 157.293 421.679 157.855 421.292C157.813 421.924 157.807 422.586 157.843 423.275C158.056 427.438 159.703 431.216 161.523 434.216Z" fill="url(#paint39_linear_4385_291079)"/>
<path d="M118.648 402.852C116.898 404.683 115.588 406.228 114.828 407.152C114.578 405.64 114.328 404.129 114.088 402.609C112.058 403.953 108.758 406.539 106.708 410.663C105.918 412.25 105.478 413.737 105.238 414.997C104.578 413.552 103.928 412.108 103.268 410.663C101.978 413.359 100.688 416.693 99.8282 420.573C99.2582 423.126 98.9682 425.486 98.8482 427.594C96.3882 425.864 90.6982 421.329 89.2582 414.173C88.8682 412.267 88.8582 410.511 89.0082 409.008C88.0282 409.697 87.0382 410.385 86.0582 411.074C85.5582 409.94 82.0982 401.743 87.5382 394.974C89.2082 392.891 91.2482 391.522 92.9482 390.632C91.2182 390.498 89.4982 390.363 87.7782 390.221C89.9182 388.634 96.8982 383.838 106.708 384.031C110.038 384.09 112.848 384.711 114.978 385.383C115.358 385.257 121.818 383.275 126.378 386.483C127.158 387.029 129.058 388.373 129.328 390.43C129.778 393.799 125.418 395.773 118.648 402.852Z" fill="#8FC25F"/>
<path d="M114.978 385.384C111.048 386.316 104.618 388.441 99.7182 393.463C91.3182 402.071 90.9382 415.609 98.8482 427.594C96.3882 425.864 90.6982 421.329 89.2582 414.173C88.8682 412.267 88.8582 410.511 89.0082 409.008C88.0282 409.697 87.0382 410.385 86.0582 411.074C85.5582 409.94 82.0982 401.743 87.5382 394.974C89.2082 392.891 91.2482 391.522 92.9482 390.632C91.2182 390.498 89.4982 390.363 87.7782 390.221C89.9182 388.634 96.8982 383.838 106.708 384.031C110.038 384.091 112.848 384.712 114.978 385.384Z" fill="url(#paint40_linear_4385_291079)"/>
<path d="M118.648 402.852C116.898 404.683 115.588 406.228 114.828 407.152C114.578 405.64 114.328 404.129 114.088 402.609C112.058 403.953 108.758 406.539 106.708 410.663C105.918 412.25 105.478 413.737 105.238 414.997C104.578 413.552 103.928 412.108 103.268 410.663C101.978 413.359 100.688 416.693 99.8282 420.573C99.2582 423.126 98.9682 425.486 98.8482 427.594C96.3882 425.864 90.6982 421.329 89.2582 414.173C88.8682 412.267 88.8582 410.511 89.0082 409.008C88.0282 409.697 87.0382 410.385 86.0582 411.074C85.5582 409.94 82.0982 401.743 87.5382 394.974C89.2082 392.891 91.2482 391.522 92.9482 390.632C91.2182 390.498 89.4982 390.363 87.7782 390.221C89.9182 388.634 96.8982 383.838 106.708 384.031C110.038 384.09 112.848 384.711 114.978 385.383C115.358 385.257 121.818 383.275 126.378 386.483C127.158 387.029 129.058 388.373 129.328 390.43C129.778 393.799 125.418 395.773 118.648 402.852Z" fill="url(#paint41_linear_4385_291079)"/>
<path d="M294.314 345.128C294.415 344.979 291.133 342.622 286.207 341.521C283.629 340.945 281.367 340.884 279.765 340.942C278.958 341.318 278.152 341.694 277.345 342.069C279.011 341.83 281.155 341.676 283.617 341.886C290.004 342.432 294.201 345.296 294.314 345.128Z" fill="#8FC25F"/>
<path d="M294.314 345.128C294.415 344.979 291.133 342.622 286.207 341.521C283.629 340.945 281.367 340.884 279.765 340.942C278.958 341.318 278.152 341.694 277.345 342.069C279.011 341.83 281.155 341.676 283.617 341.886C290.004 342.432 294.201 345.296 294.314 345.128Z" fill="url(#paint42_linear_4385_291079)"/>
<path d="M251.724 335.938C252.029 335.899 254.209 341.048 253.401 347.463C252.978 350.821 251.862 353.528 250.901 355.389C249.837 356.14 248.772 356.891 247.708 357.642C249.006 355.801 250.419 353.35 251.394 350.327C253.922 342.486 251.383 335.982 251.724 335.938Z" fill="#8FC25F"/>
<path d="M251.724 335.938C252.029 335.899 254.209 341.048 253.401 347.463C252.978 350.821 251.862 353.528 250.901 355.389C249.837 356.14 248.772 356.891 247.708 357.642C249.006 355.801 250.419 353.35 251.394 350.327C253.922 342.486 251.383 335.982 251.724 335.938Z" fill="url(#paint43_linear_4385_291079)"/>
<path d="M260.779 369.005C260.881 368.76 255.251 366.02 247.593 365.515C243.585 365.251 240.212 365.678 237.858 366.132C236.784 366.874 235.71 367.615 234.637 368.357C237.029 367.621 240.156 366.902 243.873 366.65C253.515 365.995 260.665 369.279 260.779 369.005Z" fill="#8FC25F"/>
<path d="M260.779 369.005C260.881 368.76 255.251 366.02 247.593 365.515C243.585 365.251 240.212 365.678 237.858 366.132C236.784 366.874 235.71 367.615 234.637 368.357C237.029 367.621 240.156 366.902 243.873 366.65C253.515 365.995 260.665 369.279 260.779 369.005Z" fill="url(#paint44_linear_4385_291079)"/>
<path d="M296.642 324.708C296.826 324.725 297.122 327.993 295.452 331.598C294.578 333.485 293.425 334.903 292.52 335.853C291.763 336.147 291.007 336.441 290.25 336.735C291.346 335.842 292.623 334.611 293.753 332.99C296.686 328.787 296.436 324.689 296.642 324.708Z" fill="#8FC25F"/>
<path d="M296.642 324.708C296.826 324.725 297.122 327.993 295.452 331.598C294.578 333.485 293.425 334.903 292.52 335.853C291.763 336.147 291.007 336.441 290.25 336.735C291.346 335.842 292.623 334.611 293.753 332.99C296.686 328.787 296.436 324.689 296.642 324.708Z" fill="url(#paint45_linear_4385_291079)"/>
<path d="M402.139 317.593C400.369 319.348 398.119 321.263 395.279 323.086C387.439 328.125 379.289 329.788 374.399 330.418C375.959 331.115 377.509 331.812 379.069 332.509C376.409 333.324 373.159 334.113 369.409 334.6C363.009 335.44 357.509 335.121 353.509 334.6C354.759 336.003 356.009 337.397 357.249 338.791C353.979 339.152 349.949 339.303 345.409 338.791C333.299 337.431 324.879 332.19 320.929 329.326C322.719 325.488 327.059 317.837 336.679 312.093C340.609 309.75 344.439 308.297 347.589 307.382C347.279 308.516 346.969 309.65 346.659 310.783C351.079 308.952 358.459 306.617 367.539 307.121C369.809 307.247 371.899 307.532 373.769 307.902C372.419 308.691 371.069 309.472 369.719 310.262C371.429 310.287 373.199 310.371 375.019 310.522C386.009 311.429 395.159 314.435 402.139 317.593Z" fill="#8FC25F"/>
<path d="M402.139 317.593C400.369 319.348 398.119 321.263 395.279 323.086C387.439 328.125 379.289 329.788 374.399 330.418C375.959 331.115 377.509 331.812 379.069 332.509C376.409 333.324 373.159 334.113 369.409 334.6C363.009 335.44 357.509 335.121 353.509 334.6C354.759 336.003 356.009 337.397 357.249 338.791C353.979 339.152 349.949 339.303 345.409 338.791C333.299 337.431 324.879 332.19 320.929 329.326C332.869 326.109 346.889 323.036 362.739 320.818C377.209 318.803 390.469 317.887 402.139 317.593Z" fill="url(#paint46_linear_4385_291079)"/>
<path d="M402.139 317.593C400.369 319.348 398.119 321.263 395.279 323.086C387.439 328.125 379.289 329.788 374.399 330.418C375.959 331.115 377.509 331.812 379.069 332.509C376.409 333.324 373.159 334.113 369.409 334.6C363.009 335.44 357.509 335.121 353.509 334.6C354.759 336.003 356.009 337.397 357.249 338.791C353.979 339.152 349.949 339.303 345.409 338.791C333.299 337.431 324.879 332.19 320.929 329.326C322.719 325.488 327.059 317.837 336.679 312.093C340.609 309.75 344.439 308.297 347.589 307.382C347.279 308.516 346.969 309.65 346.659 310.783C351.079 308.952 358.459 306.617 367.539 307.121C369.809 307.247 371.899 307.532 373.769 307.902C372.419 308.691 371.069 309.472 369.719 310.262C371.429 310.287 373.199 310.371 375.019 310.522C386.009 311.429 395.159 314.435 402.139 317.593Z" fill="url(#paint47_linear_4385_291079)"/>
<path d="M311.429 282.103C312.395 283.679 313.349 285.563 314.034 287.718C315.934 293.67 314.799 298.515 313.798 301.284C314.899 300.738 315.996 300.197 317.097 299.65C316.963 301.333 316.62 303.313 315.856 305.438C314.559 309.068 312.539 311.797 310.819 313.673C312.435 313.552 314.044 313.428 315.65 313.309C314.928 315.138 313.783 317.282 311.899 319.441C306.879 325.202 299.651 327.595 295.908 328.566C293.136 326.198 287.854 321.078 285.904 313.94C285.11 311.025 285.06 308.496 285.261 306.521C286.149 307.107 287.037 307.693 287.926 308.279C287.733 305.303 288.04 300.604 291.355 296.091C292.184 294.963 293.094 293.987 294.008 293.158C294.267 294.154 294.519 295.146 294.778 296.141C295.342 295.265 295.976 294.38 296.684 293.494C300.956 288.142 306.471 284.532 311.429 282.103Z" fill="#8FC25F"/>
<path d="M311.429 282.103C312.395 283.679 313.349 285.563 314.034 287.718C315.934 293.67 314.799 298.515 313.798 301.284C314.899 300.738 315.996 300.197 317.097 299.65C316.963 301.333 316.62 303.313 315.856 305.438C314.559 309.068 312.539 311.797 310.819 313.673C312.435 313.552 314.044 313.428 315.65 313.309C314.928 315.138 313.783 317.282 311.899 319.441C306.879 325.202 299.651 327.595 295.908 328.566C296.892 321.175 298.66 312.76 301.752 303.719C304.583 295.468 307.988 288.257 311.429 282.103Z" fill="url(#paint48_linear_4385_291079)"/>
<path d="M311.429 282.103C312.395 283.679 313.349 285.563 314.034 287.718C315.934 293.67 314.799 298.515 313.798 301.284C314.899 300.738 315.996 300.197 317.097 299.65C316.963 301.333 316.62 303.313 315.856 305.438C314.559 309.068 312.539 311.797 310.819 313.673C312.435 313.552 314.044 313.428 315.65 313.309C314.928 315.138 313.783 317.282 311.899 319.441C306.879 325.202 299.651 327.595 295.908 328.566C293.136 326.198 287.854 321.078 285.904 313.94C285.11 311.025 285.06 308.496 285.261 306.521C286.149 307.107 287.037 307.693 287.926 308.279C287.733 305.303 288.04 300.604 291.355 296.091C292.184 294.963 293.094 293.987 294.008 293.158C294.267 294.154 294.519 295.146 294.778 296.141C295.342 295.265 295.976 294.38 296.684 293.494C300.956 288.142 306.471 284.532 311.429 282.103Z" fill="url(#paint49_linear_4385_291079)"/>
<path d="M265.205 305.745C265.981 307.009 266.745 308.521 267.296 310.251C268.821 315.027 267.91 318.915 267.106 321.138C267.989 320.7 268.87 320.266 269.753 319.827C269.646 321.178 269.37 322.766 268.757 324.472C267.716 327.385 266.095 329.575 264.714 331.08C266.011 330.983 267.302 330.883 268.591 330.788C268.012 332.256 267.093 333.976 265.581 335.709C261.552 340.332 255.753 342.253 252.749 343.032C250.524 341.132 246.286 337.023 244.721 331.295C244.084 328.956 244.044 326.926 244.205 325.341C244.918 325.811 245.631 326.282 246.343 326.752C246.188 324.364 246.435 320.593 249.095 316.971C249.76 316.066 250.491 315.283 251.224 314.617C251.432 315.416 251.634 316.212 251.842 317.011C252.294 316.308 252.803 315.598 253.371 314.887C256.8 310.591 261.225 307.694 265.205 305.745Z" fill="#8FC25F"/>
<path d="M265.205 305.745C265.981 307.009 266.745 308.521 267.296 310.251C268.821 315.027 267.91 318.915 267.106 321.138C267.989 320.7 268.87 320.266 269.753 319.827C269.646 321.178 269.37 322.766 268.757 324.472C267.716 327.385 266.095 329.575 264.714 331.08C266.011 330.983 267.302 330.883 268.591 330.788C268.012 332.256 267.093 333.976 265.581 335.709C261.552 340.332 255.753 342.253 252.749 343.032C253.539 337.101 254.957 330.348 257.439 323.093C259.711 316.47 262.443 310.683 265.205 305.745Z" fill="url(#paint50_linear_4385_291079)"/>
<path d="M265.205 305.745C265.981 307.009 266.745 308.521 267.296 310.251C268.821 315.027 267.91 318.915 267.106 321.138C267.989 320.7 268.87 320.266 269.753 319.827C269.646 321.178 269.37 322.766 268.757 324.472C267.716 327.385 266.095 329.575 264.714 331.08C266.011 330.983 267.302 330.883 268.591 330.788C268.012 332.256 267.093 333.976 265.581 335.709C261.552 340.332 255.753 342.253 252.749 343.032C250.524 341.132 246.286 337.023 244.721 331.295C244.084 328.956 244.044 326.926 244.205 325.341C244.918 325.811 245.631 326.282 246.343 326.752C246.188 324.364 246.435 320.593 249.095 316.971C249.76 316.066 250.491 315.283 251.224 314.617C251.432 315.416 251.634 316.212 251.842 317.011C252.294 316.308 252.803 315.598 253.371 314.887C256.8 310.591 261.225 307.694 265.205 305.745Z" fill="url(#paint51_linear_4385_291079)"/>
<path d="M344.481 387.116C341.467 387.149 338.029 386.985 334.431 386.389C324.488 384.75 318.607 380.711 315.537 378.047C315.398 379.483 315.253 380.913 315.114 382.35C312.856 381.209 310.353 379.681 307.994 377.641C303.956 374.165 301.784 370.498 300.563 367.642C299.4 369.344 298.247 371.041 297.089 372.731C295.111 370.911 293.039 368.475 291.555 365.285C287.59 356.781 290.185 348.063 291.907 343.709C297.526 342.328 309.087 340.06 320.741 342.358C325.497 343.299 329.098 344.758 331.71 346.142C330.153 346.688 328.595 347.233 327.037 347.779C331.384 349.363 337.742 352.479 341.358 358.518C342.262 360.028 342.883 361.529 343.296 362.946C341.681 362.613 340.077 362.274 338.463 361.941C339.231 363.033 339.953 364.201 340.616 365.444C344.623 372.946 345.153 380.664 344.481 387.116Z" fill="#8FC25F"/>
<path d="M344.481 387.116C341.467 387.149 338.029 386.985 334.431 386.389C324.488 384.75 318.607 380.711 315.537 378.047C315.398 379.483 315.253 380.913 315.114 382.35C312.856 381.209 310.353 379.681 307.994 377.641C303.956 374.165 301.784 370.498 300.563 367.642C299.4 369.344 298.247 371.041 297.089 372.731C295.111 370.911 293.039 368.475 291.555 365.285C287.59 356.781 290.185 348.063 291.907 343.709C301.495 349.117 311.877 355.925 322.048 364.445C331.322 372.229 338.66 379.969 344.481 387.116Z" fill="url(#paint52_linear_4385_291079)"/>
<path d="M344.481 387.116C341.467 387.149 338.029 386.985 334.431 386.389C324.488 384.75 318.607 380.711 315.537 378.047C315.398 379.483 315.253 380.913 315.114 382.35C312.856 381.209 310.353 379.681 307.994 377.641C303.956 374.165 301.784 370.498 300.563 367.642C299.4 369.344 298.247 371.041 297.089 372.731C295.111 370.911 293.039 368.475 291.555 365.285C287.59 356.781 290.185 348.063 291.907 343.709C297.526 342.328 309.087 340.06 320.741 342.358C325.497 343.299 329.098 344.758 331.71 346.142C330.153 346.688 328.595 347.233 327.037 347.779C331.384 349.363 337.742 352.479 341.358 358.518C342.262 360.028 342.883 361.529 343.296 362.946C341.681 362.613 340.077 362.274 338.463 361.941C339.231 363.033 339.953 364.201 340.616 365.444C344.623 372.946 345.153 380.664 344.481 387.116Z" fill="url(#paint53_linear_4385_291079)"/>
<path d="M287.949 392.512C286.25 392.531 284.312 392.438 282.284 392.102C276.679 391.178 273.364 388.901 271.634 387.4C271.555 388.21 271.474 389.016 271.396 389.825C270.123 389.182 268.712 388.321 267.382 387.171C265.106 385.212 263.881 383.144 263.193 381.535C262.537 382.494 261.887 383.451 261.235 384.404C260.12 383.378 258.952 382.005 258.116 380.207C255.881 375.413 257.344 370.499 258.314 368.045C261.481 367.266 267.998 365.988 274.567 367.283C277.248 367.813 279.278 368.636 280.75 369.416C279.872 369.724 278.994 370.031 278.116 370.339C280.566 371.232 284.15 372.988 286.189 376.392C286.699 377.243 287.049 378.089 287.282 378.888C286.372 378.7 285.468 378.509 284.558 378.321C284.991 378.936 285.398 379.595 285.771 380.296C288.029 384.525 288.328 388.875 287.949 392.512Z" fill="#8FC25F"/>
<path d="M287.949 392.512C286.25 392.531 284.312 392.438 282.284 392.102C276.679 391.178 273.364 388.901 271.634 387.4C271.555 388.21 271.474 389.016 271.396 389.825C270.123 389.182 268.712 388.321 267.382 387.171C265.106 385.212 263.881 383.144 263.193 381.535C262.537 382.494 261.887 383.451 261.235 384.404C260.12 383.378 258.952 382.005 258.116 380.207C255.881 375.413 257.344 370.499 258.314 368.045C263.719 371.093 269.571 374.931 275.304 379.734C280.532 384.12 284.668 388.484 287.949 392.512Z" fill="url(#paint54_linear_4385_291079)"/>
<path d="M287.949 392.512C286.25 392.531 284.312 392.438 282.284 392.102C276.679 391.178 273.364 388.901 271.634 387.4C271.555 388.21 271.474 389.016 271.396 389.825C270.123 389.182 268.712 388.321 267.382 387.171C265.106 385.212 263.881 383.144 263.193 381.535C262.537 382.494 261.887 383.451 261.235 384.404C260.12 383.378 258.952 382.005 258.116 380.207C255.881 375.413 257.344 370.499 258.314 368.045C261.481 367.266 267.998 365.988 274.567 367.283C277.248 367.813 279.278 368.636 280.75 369.416C279.872 369.724 278.994 370.031 278.116 370.339C280.566 371.232 284.15 372.988 286.189 376.392C286.699 377.243 287.049 378.089 287.282 378.888C286.372 378.7 285.468 378.509 284.558 378.321C284.991 378.936 285.398 379.595 285.771 380.296C288.029 384.525 288.328 388.875 287.949 392.512Z" fill="url(#paint55_linear_4385_291079)"/>
<path d="M152.958 296.862C152.9 296.697 156.739 295.036 161.834 294.914C164.501 294.85 166.719 295.227 168.262 295.592C168.944 296.113 169.627 296.634 170.31 297.156C168.754 296.602 166.709 296.039 164.256 295.769C157.891 295.068 153.023 297.046 152.958 296.862Z" fill="#8FC25F"/>
<path d="M152.958 296.862C152.9 296.697 156.739 295.036 161.834 294.914C164.501 294.85 166.719 295.227 168.262 295.592C168.944 296.113 169.627 296.634 170.31 297.156C168.754 296.602 166.709 296.039 164.256 295.769C157.891 295.068 153.023 297.046 152.958 296.862Z" fill="url(#paint56_linear_4385_291079)"/>
<path d="M196.923 296.126C196.637 296.029 193.108 300.62 192.141 307.02C191.635 310.37 191.982 313.22 192.408 315.216C193.239 316.152 194.069 317.089 194.9 318.025C194.14 315.983 193.434 313.325 193.312 310.195C192.995 302.076 197.243 296.235 196.923 296.126Z" fill="#8FC25F"/>
<path d="M196.923 296.126C196.637 296.029 193.108 300.62 192.141 307.02C191.635 310.37 191.982 313.22 192.408 315.216C193.239 316.152 194.069 317.089 194.9 318.025C194.14 315.983 193.434 313.325 193.312 310.195C192.995 302.076 197.243 296.235 196.923 296.126Z" fill="url(#paint57_linear_4385_291079)"/>
<path d="M179.073 326.565C179.041 326.307 185.269 324.725 192.861 325.71C196.834 326.226 200 327.292 202.168 328.187C203.01 329.116 203.853 330.045 204.695 330.973C202.568 329.796 199.721 328.493 196.172 327.531C186.966 325.036 179.11 326.854 179.073 326.565Z" fill="#8FC25F"/>
<path d="M179.073 326.565C179.041 326.307 185.269 324.725 192.861 325.71C196.834 326.226 200 327.292 202.168 328.187C203.01 329.116 203.853 330.045 204.695 330.973C202.568 329.796 199.721 328.493 196.172 327.531C186.966 325.036 179.11 326.854 179.073 326.565Z" fill="url(#paint58_linear_4385_291079)"/>
<path d="M156.273 276.538C156.089 276.52 154.908 279.643 155.548 283.473C155.883 285.478 156.618 287.081 157.239 288.18C157.895 288.612 158.551 289.044 159.207 289.476C158.384 288.395 157.478 286.951 156.821 285.156C155.116 280.5 156.479 276.559 156.273 276.538Z" fill="#8FC25F"/>
<path d="M156.273 276.538C156.089 276.52 154.908 279.643 155.548 283.473C155.883 285.478 156.618 287.081 157.239 288.18C157.895 288.612 158.551 289.044 159.207 289.476C158.384 288.395 157.478 286.951 156.821 285.156C155.116 280.5 156.479 276.559 156.273 276.538Z" fill="url(#paint59_linear_4385_291079)"/>
<path d="M55.5371 249.278C56.7801 251.328 58.4471 253.624 60.7131 255.945C66.9671 262.361 74.4451 265.551 79.0321 267.107C77.3231 267.485 75.6241 267.864 73.9151 268.242C76.2811 269.548 79.2291 270.942 82.7461 272.138C88.7461 274.189 94.1861 274.939 98.2221 275.203C96.6221 276.327 95.0241 277.444 93.4371 278.562C96.5211 279.544 100.402 280.468 104.961 280.844C117.12 281.854 126.747 278.375 131.374 276.349C130.681 272.268 128.547 263.986 120.754 256.541C117.569 253.503 114.239 251.351 111.423 249.852C111.415 251.015 111.407 252.178 111.399 253.341C107.597 250.707 101.052 247.013 92.0771 245.753C89.8331 245.438 87.7211 245.313 85.8001 245.312C86.8981 246.341 87.9991 247.361 89.0971 248.39C87.4261 248.085 85.6801 247.825 83.8671 247.622C72.9211 246.387 63.1941 247.549 55.5371 249.278Z" fill="#8FC25F"/>
<path d="M55.5371 249.277C56.7801 251.327 58.4471 253.624 60.7131 255.945C66.9671 262.361 74.4451 265.55 79.0321 267.106C77.3231 267.484 75.6241 267.863 73.9151 268.241C76.2811 269.547 79.2291 270.942 82.7461 272.138C88.7461 274.189 94.1861 274.939 98.2221 275.203C96.6221 276.327 95.0241 277.443 93.4371 278.561C96.5211 279.543 100.402 280.467 104.961 280.843C117.12 281.853 126.747 278.375 131.374 276.349C120.632 270.917 107.826 265.223 93.0051 260.009C79.4711 255.259 66.8151 251.812 55.5371 249.277Z" fill="url(#paint60_linear_4385_291079)"/>
<path d="M55.5371 249.278C56.7801 251.328 58.4471 253.624 60.7131 255.945C66.9671 262.361 74.4451 265.551 79.0321 267.107C77.3231 267.485 75.6241 267.864 73.9151 268.242C76.2811 269.548 79.2291 270.942 82.7461 272.138C88.7461 274.189 94.1861 274.939 98.2221 275.203C96.6221 276.327 95.0241 277.444 93.4371 278.562C96.5211 279.544 100.402 280.468 104.961 280.844C117.12 281.854 126.747 278.375 131.374 276.349C130.681 272.268 128.547 263.986 120.754 256.541C117.569 253.503 114.239 251.351 111.423 249.852C111.415 251.015 111.407 252.178 111.399 253.341C107.597 250.707 101.052 247.013 92.0771 245.753C89.8331 245.438 87.7211 245.313 85.8001 245.312C86.8981 246.341 87.9991 247.361 89.0971 248.39C87.4261 248.085 85.6801 247.825 83.8671 247.622C72.9211 246.387 63.1941 247.549 55.5371 249.278Z" fill="url(#paint61_linear_4385_291079)"/>
<path d="M153.524 232.219C152.153 233.566 150.71 235.216 149.454 237.182C145.978 242.609 145.759 247.543 145.976 250.431C145.054 249.687 144.134 248.949 143.212 248.205C142.882 249.869 142.675 251.862 142.838 254.078C143.108 257.861 144.329 260.906 145.491 263.064C143.951 262.635 142.419 262.204 140.888 261.779C141.091 263.698 141.619 266.006 142.863 268.47C146.175 275.045 152.555 278.768 155.933 280.434C159.278 278.664 165.818 274.699 169.667 268.126C171.236 265.442 171.976 262.99 172.32 261.029C171.295 261.428 170.271 261.828 169.246 262.227C170.247 259.367 171.232 254.735 169.239 249.703C168.741 248.445 168.121 247.32 167.458 246.337C166.934 247.256 166.417 248.173 165.893 249.092C165.584 248.131 165.209 247.147 164.762 246.148C162.068 240.116 157.687 235.54 153.524 232.219Z" fill="#8FC25F"/>
<path d="M153.524 232.219C152.153 233.566 150.71 235.216 149.454 237.182C145.978 242.609 145.759 247.543 145.976 250.431C145.054 249.687 144.134 248.949 143.212 248.205C142.882 249.869 142.675 251.862 142.838 254.078C143.108 257.861 144.329 260.906 145.491 263.064C143.951 262.635 142.419 262.204 140.888 261.779C141.091 263.698 141.619 266.006 142.863 268.47C146.175 275.045 152.555 278.768 155.933 280.434C156.995 273.05 157.574 264.52 157.035 255.124C156.535 246.547 155.192 238.873 153.524 232.219Z" fill="url(#paint62_linear_4385_291079)"/>
<path d="M153.524 232.219C152.153 233.566 150.71 235.216 149.454 237.182C145.978 242.609 145.759 247.543 145.976 250.431C145.054 249.687 144.134 248.949 143.212 248.205C142.882 249.869 142.675 251.862 142.838 254.078C143.108 257.861 144.329 260.906 145.491 263.064C143.951 262.635 142.419 262.204 140.888 261.779C141.091 263.698 141.619 266.006 142.863 268.47C146.175 275.045 152.555 278.768 155.933 280.434C159.278 278.664 165.818 274.699 169.667 268.126C171.236 265.442 171.976 262.99 172.32 261.029C171.295 261.428 170.271 261.828 169.246 262.227C170.247 259.367 171.232 254.735 169.239 249.703C168.741 248.445 168.121 247.32 167.458 246.337C166.934 247.256 166.417 248.173 165.893 249.092C165.584 248.131 165.209 247.147 164.762 246.148C162.068 240.116 157.687 235.54 153.524 232.219Z" fill="url(#paint63_linear_4385_291079)"/>
<path d="M192.054 264.14C190.954 265.221 189.796 266.545 188.788 268.122C185.998 272.477 185.823 276.437 185.997 278.755C185.257 278.158 184.519 277.566 183.779 276.969C183.514 278.305 183.348 279.904 183.479 281.682C183.696 284.718 184.675 287.161 185.608 288.893C184.372 288.549 183.143 288.203 181.914 287.862C182.077 289.402 182.501 291.254 183.499 293.232C186.157 298.508 191.277 301.496 193.987 302.833C196.672 301.412 201.92 298.23 205.008 292.956C206.267 290.802 206.861 288.835 207.137 287.261C206.315 287.581 205.492 287.902 204.67 288.222C205.473 285.927 206.264 282.21 204.664 278.172C204.264 277.162 203.767 276.26 203.235 275.471C202.814 276.208 202.4 276.945 201.979 277.682C201.731 276.911 201.43 276.121 201.071 275.32C198.91 270.478 195.394 266.805 192.054 264.14Z" fill="#8FC25F"/>
<path d="M192.054 264.14C190.954 265.221 189.796 266.545 188.788 268.122C185.998 272.477 185.823 276.437 185.997 278.755C185.257 278.158 184.519 277.566 183.779 276.969C183.514 278.305 183.348 279.904 183.479 281.682C183.696 284.718 184.675 287.161 185.608 288.893C184.372 288.549 183.143 288.203 181.914 287.862C182.077 289.402 182.501 291.254 183.499 293.232C186.157 298.508 191.277 301.496 193.987 302.833C194.839 296.908 195.304 290.062 194.871 282.522C194.47 275.638 193.392 269.48 192.054 264.14Z" fill="url(#paint64_linear_4385_291079)"/>
<path d="M192.054 264.14C190.954 265.221 189.796 266.545 188.788 268.122C185.998 272.477 185.823 276.437 185.997 278.755C185.257 278.158 184.519 277.566 183.779 276.969C183.514 278.305 183.348 279.904 183.479 281.682C183.696 284.718 184.675 287.161 185.608 288.893C184.372 288.549 183.143 288.203 181.914 287.862C182.077 289.402 182.501 291.254 183.499 293.232C186.157 298.508 191.277 301.496 193.987 302.833C196.672 301.412 201.92 298.23 205.008 292.956C206.267 290.802 206.861 288.835 207.137 287.261C206.315 287.581 205.492 287.902 204.67 288.222C205.473 285.927 206.264 282.21 204.664 278.172C204.264 277.162 203.767 276.26 203.235 275.471C202.814 276.208 202.4 276.945 201.979 277.682C201.731 276.911 201.43 276.121 201.071 275.32C198.91 270.478 195.394 266.805 192.054 264.14Z" fill="url(#paint65_linear_4385_291079)"/>
<path d="M92.6562 328.058C95.5812 328.672 98.9712 329.174 102.636 329.288C112.761 329.609 119.589 326.812 123.305 324.811C123.048 326.236 122.798 327.655 122.541 329.08C125.051 328.405 127.904 327.4 130.758 325.869C135.638 323.264 138.755 320.114 140.723 317.57C141.39 319.451 142.049 321.324 142.713 323.193C145.136 321.802 147.818 319.831 150.134 317.013C156.317 309.5 156.174 300.515 155.688 295.945C150.597 293.518 139.964 289.082 127.993 289.072C123.107 289.071 119.203 289.798 116.282 290.64C117.649 291.471 119.016 292.302 120.383 293.134C115.719 293.838 108.679 295.645 103.51 300.826C102.218 302.121 101.203 303.462 100.413 304.762C102.076 304.749 103.729 304.728 105.392 304.715C104.346 305.63 103.324 306.627 102.34 307.71C96.3902 314.24 93.7652 321.649 92.6562 328.058Z" fill="#8FC25F"/>
<path d="M92.6562 328.058C95.5812 328.672 98.9712 329.174 102.636 329.288C112.761 329.609 119.589 326.812 123.305 324.811C123.048 326.236 122.798 327.655 122.541 329.08C125.051 328.405 127.904 327.4 130.758 325.869C135.638 323.264 138.755 320.114 140.723 317.57C141.39 319.451 142.049 321.324 142.713 323.193C145.136 321.802 147.818 319.831 150.134 317.013C156.317 309.5 156.174 300.515 155.688 295.945C144.878 299.36 132.912 303.986 120.685 310.317C109.532 316.105 100.275 322.224 92.6562 328.058Z" fill="url(#paint66_linear_4385_291079)"/>
<path d="M92.6562 328.058C95.5812 328.672 98.9712 329.174 102.636 329.288C112.761 329.609 119.589 326.812 123.305 324.811C123.048 326.236 122.798 327.655 122.541 329.08C125.051 328.405 127.904 327.4 130.758 325.869C135.638 323.264 138.755 320.114 140.723 317.57C141.39 319.451 142.049 321.324 142.713 323.193C145.136 321.802 147.818 319.831 150.134 317.013C156.317 309.5 156.174 300.515 155.688 295.945C150.597 293.518 139.964 289.082 127.993 289.072C123.107 289.071 119.203 289.798 116.282 290.64C117.649 291.471 119.016 292.302 120.383 293.134C115.719 293.838 108.679 295.645 103.51 300.826C102.218 302.121 101.203 303.462 100.413 304.762C102.076 304.749 103.729 304.728 105.392 304.715C104.346 305.63 103.324 306.627 102.34 307.71C96.3902 314.24 93.7652 321.649 92.6562 328.058Z" fill="url(#paint67_linear_4385_291079)"/>
<path d="M146.204 344.208C147.853 344.554 149.764 344.837 151.83 344.901C157.537 345.082 161.386 343.505 163.481 342.377C163.336 343.18 163.195 343.98 163.05 344.784C164.465 344.404 166.073 343.837 167.682 342.974C170.433 341.506 172.19 339.73 173.299 338.296C173.675 339.356 174.046 340.412 174.421 341.466C175.787 340.682 177.299 339.571 178.604 337.982C182.089 333.747 182.009 328.682 181.735 326.106C178.865 324.738 172.871 322.237 166.124 322.232C163.37 322.231 161.169 322.641 159.523 323.116C160.293 323.585 161.064 324.053 161.834 324.522C159.205 324.919 155.237 325.937 152.323 328.858C151.594 329.588 151.023 330.344 150.577 331.077C151.514 331.07 152.446 331.058 153.384 331.051C152.795 331.567 152.218 332.129 151.663 332.739C148.309 336.418 146.829 340.595 146.204 344.208Z" fill="#8FC25F"/>
<path d="M146.204 344.208C147.853 344.554 149.764 344.837 151.83 344.901C157.537 345.082 161.386 343.505 163.481 342.377C163.336 343.18 163.195 343.98 163.05 344.784C164.465 344.404 166.073 343.837 167.682 342.974C170.433 341.506 172.19 339.73 173.299 338.296C173.675 339.356 174.046 340.412 174.421 341.466C175.787 340.682 177.299 339.571 178.604 337.982C182.089 333.747 182.009 328.682 181.735 326.106C175.641 328.031 168.896 330.639 162.004 334.208C155.717 337.469 150.499 340.919 146.204 344.208Z" fill="url(#paint68_linear_4385_291079)"/>
<path d="M146.204 344.208C147.853 344.554 149.764 344.837 151.83 344.901C157.537 345.082 161.386 343.505 163.481 342.377C163.336 343.18 163.195 343.98 163.05 344.784C164.465 344.404 166.073 343.837 167.682 342.974C170.433 341.506 172.19 339.73 173.299 338.296C173.675 339.356 174.046 340.412 174.421 341.466C175.787 340.682 177.299 339.571 178.604 337.982C182.089 333.747 182.009 328.682 181.735 326.106C178.865 324.738 172.871 322.237 166.124 322.232C163.37 322.231 161.169 322.641 159.523 323.116C160.293 323.585 161.064 324.053 161.834 324.522C159.205 324.919 155.237 325.937 152.323 328.858C151.594 329.588 151.023 330.344 150.577 331.077C151.514 331.07 152.446 331.058 153.384 331.051C152.795 331.567 152.218 332.129 151.663 332.739C148.309 336.418 146.829 340.595 146.204 344.208Z" fill="url(#paint69_linear_4385_291079)"/>
<path d="M231.891 41.7168C232.863 43.4718 233.811 45.5918 234.468 48.0578C236.287 54.8688 234.925 60.6898 233.774 64.0538C234.958 63.2968 236.138 62.5468 237.322 61.7898C237.125 63.7858 236.697 66.1518 235.818 68.7318C234.325 73.1388 232.096 76.5608 230.212 78.9468C231.928 78.6378 233.637 78.3248 235.342 78.0198C234.518 80.2478 233.234 82.8898 231.167 85.6268C225.66 92.9278 217.925 96.4928 213.928 98.0218C211.069 95.5208 205.64 90.0388 203.808 81.8358C203.063 78.4858 203.092 75.5138 203.37 73.1678C204.292 73.7658 205.214 74.3648 206.136 74.9628C206.029 71.4788 206.508 65.9158 210.168 60.2588C211.083 58.8448 212.079 57.6028 213.075 56.5308C213.317 57.6758 213.551 58.8188 213.793 59.9638C214.419 58.8738 215.119 57.7668 215.898 56.6508C220.597 49.9098 226.558 45.0898 231.891 41.7168Z" fill="#8FC25F"/>
<path d="M231.891 41.7168C232.863 43.4718 233.811 45.5918 234.468 48.0578C236.287 54.8688 234.925 60.6898 233.774 64.0538C234.958 63.2968 236.138 62.5468 237.322 61.7898C237.125 63.7858 236.697 66.1518 235.818 68.7318C234.325 73.1388 232.096 76.5608 230.212 78.9468C231.928 78.6378 233.637 78.3248 235.342 78.0198C234.518 80.2478 233.234 82.8898 231.167 85.6268C225.66 92.9278 217.925 96.4928 213.928 98.0218C215.212 89.2188 217.36 79.1288 220.932 68.1658C224.201 58.1588 228.044 49.3178 231.891 41.7168Z" fill="url(#paint70_linear_4385_291079)"/>
<path d="M231.891 41.7168C232.863 43.4718 233.811 45.5918 234.468 48.0578C236.287 54.8688 234.925 60.6898 233.774 64.0538C234.958 63.2968 236.138 62.5468 237.322 61.7898C237.125 63.7858 236.697 66.1518 235.818 68.7318C234.325 73.1388 232.096 76.5608 230.212 78.9468C231.928 78.6378 233.637 78.3248 235.342 78.0198C234.518 80.2478 233.234 82.8898 231.167 85.6268C225.66 92.9278 217.925 96.4928 213.928 98.0218C211.069 95.5208 205.64 90.0388 203.808 81.8358C203.063 78.4858 203.092 75.5138 203.37 73.1678C204.292 73.7658 205.214 74.3648 206.136 74.9628C206.029 71.4788 206.508 65.9158 210.168 60.2588C211.083 58.8448 212.079 57.6028 213.075 56.5308C213.317 57.6758 213.551 58.8188 213.793 59.9638C214.419 58.8738 215.119 57.7668 215.898 56.6508C220.597 49.9098 226.558 45.0898 231.891 41.7168Z" fill="url(#paint71_linear_4385_291079)"/>
<defs>
<linearGradient id="paint0_linear_4385_291079" x1="156.018" y1="117.713" x2="151.702" y2="118.47" gradientUnits="userSpaceOnUse">
<stop stop-color="#2C7C61"/>
<stop offset="1" stop-color="#2C7C61" stop-opacity="0"/>
</linearGradient>
<linearGradient id="paint1_linear_4385_291079" x1="156.737" y1="126.858" x2="151.35" y2="125.287" gradientUnits="userSpaceOnUse">
<stop stop-color="#2C7C61"/>
<stop offset="1" stop-color="#2C7C61" stop-opacity="0"/>
</linearGradient>
<linearGradient id="paint2_linear_4385_291079" x1="183.955" y1="111.8" x2="159.946" y2="104.957" gradientUnits="userSpaceOnUse">
<stop stop-color="#2C7C61"/>
<stop offset="1" stop-color="#2C7C61" stop-opacity="0"/>
</linearGradient>
<linearGradient id="paint3_linear_4385_291079" x1="180.644" y1="89.0335" x2="173.039" y2="115.126" gradientUnits="userSpaceOnUse">
<stop stop-color="#DEDD1C"/>
<stop offset="1" stop-color="#D8DB1F" stop-opacity="0"/>
</linearGradient>
<linearGradient id="paint4_linear_4385_291079" x1="158.534" y1="100.197" x2="119.458" y2="96.0944" gradientUnits="userSpaceOnUse">
<stop stop-color="#2C7C61"/>
<stop offset="1" stop-color="#2C7C61" stop-opacity="0"/>
</linearGradient>
<linearGradient id="paint5_linear_4385_291079" x1="145.507" y1="78.339" x2="147.444" y2="107.776" gradientUnits="userSpaceOnUse">
<stop stop-color="#DEDD1C"/>
<stop offset="1" stop-color="#D8DB1F" stop-opacity="0"/>
</linearGradient>
<linearGradient id="paint6_linear_4385_291079" x1="138.57" y1="123.677" x2="142.361" y2="148.665" gradientUnits="userSpaceOnUse">
<stop stop-color="#2C7C61"/>
<stop offset="1" stop-color="#2C7C61" stop-opacity="0"/>
</linearGradient>
<linearGradient id="paint7_linear_4385_291079" x1="121.561" y1="135.713" x2="145.862" y2="127.635" gradientUnits="userSpaceOnUse">
<stop stop-color="#DEDD1C"/>
<stop offset="1" stop-color="#D8DB1F" stop-opacity="0"/>
</linearGradient>
<linearGradient id="paint8_linear_4385_291079" x1="180.396" y1="126.751" x2="175.706" y2="126.214" gradientUnits="userSpaceOnUse">
<stop stop-color="#2C7C61"/>
<stop offset="1" stop-color="#2C7C61" stop-opacity="0"/>
</linearGradient>
<linearGradient id="paint9_linear_4385_291079" x1="177.886" y1="137.257" x2="172.637" y2="133.884" gradientUnits="userSpaceOnUse">
<stop stop-color="#2C7C61"/>
<stop offset="1" stop-color="#2C7C61" stop-opacity="0"/>
</linearGradient>
<linearGradient id="paint10_linear_4385_291079" x1="160.135" y1="138.478" x2="172.236" y2="158.248" gradientUnits="userSpaceOnUse">
<stop stop-color="#2C7C61"/>
<stop offset="1" stop-color="#2C7C61" stop-opacity="0"/>
</linearGradient>
<linearGradient id="paint11_linear_4385_291079" x1="151.081" y1="153.892" x2="167.518" y2="139.485" gradientUnits="userSpaceOnUse">
<stop stop-color="#DEDD1C"/>
<stop offset="1" stop-color="#D8DB1F" stop-opacity="0"/>
</linearGradient>
<linearGradient id="paint12_linear_4385_291079" x1="142.511" y1="131.086" x2="101.5" y2="136.945" gradientUnits="userSpaceOnUse">
<stop stop-color="#2C7C61"/>
<stop offset="1" stop-color="#2C7C61" stop-opacity="0"/>
</linearGradient>
<linearGradient id="paint13_linear_4385_291079" x1="108.51" y1="159.493" x2="117.705" y2="133.253" gradientUnits="userSpaceOnUse">
<stop stop-color="#DEDD1C"/>
<stop offset="1" stop-color="#D8DB1F" stop-opacity="0"/>
</linearGradient>
<linearGradient id="paint14_linear_4385_291079" x1="240.017" y1="162.708" x2="241.785" y2="158.505" gradientUnits="userSpaceOnUse">
<stop stop-color="#2C7C61"/>
<stop offset="1" stop-color="#2C7C61" stop-opacity="0"/>
</linearGradient>
<linearGradient id="paint15_linear_4385_291079" x1="216.433" y1="168.449" x2="221.571" y2="165.65" gradientUnits="userSpaceOnUse">
<stop stop-color="#2C7C61"/>
<stop offset="1" stop-color="#2C7C61" stop-opacity="0"/>
</linearGradient>
<linearGradient id="paint16_linear_4385_291079" x1="220.821" y1="184.146" x2="222.197" y2="177.884" gradientUnits="userSpaceOnUse">
<stop stop-color="#2C7C61"/>
<stop offset="1" stop-color="#2C7C61" stop-opacity="0"/>
</linearGradient>
<linearGradient id="paint17_linear_4385_291079" x1="241.582" y1="152.043" x2="245.348" y2="151.149" gradientUnits="userSpaceOnUse">
<stop stop-color="#2C7C61"/>
<stop offset="1" stop-color="#2C7C61" stop-opacity="0"/>
</linearGradient>
<linearGradient id="paint18_linear_4385_291079" x1="267.208" y1="126.193" x2="303.872" y2="152.165" gradientUnits="userSpaceOnUse">
<stop stop-color="#2C7C61"/>
<stop offset="1" stop-color="#2C7C61" stop-opacity="0"/>
</linearGradient>
<linearGradient id="paint19_linear_4385_291079" x1="301.195" y1="109.637" x2="279.93" y2="144.975" gradientUnits="userSpaceOnUse">
<stop stop-color="#DEDD1C"/>
<stop offset="1" stop-color="#D8DB1F" stop-opacity="0"/>
</linearGradient>
<linearGradient id="paint20_linear_4385_291079" x1="233.141" y1="139.528" x2="256.583" y2="124.682" gradientUnits="userSpaceOnUse">
<stop stop-color="#2C7C61"/>
<stop offset="1" stop-color="#2C7C61" stop-opacity="0"/>
</linearGradient>
<linearGradient id="paint21_linear_4385_291079" x1="230.738" y1="116.699" x2="243.299" y2="141.434" gradientUnits="userSpaceOnUse">
<stop stop-color="#DEDD1C"/>
<stop offset="1" stop-color="#D8DB1F" stop-opacity="0"/>
</linearGradient>
<linearGradient id="paint22_linear_4385_291079" x1="210.964" y1="156.007" x2="229.776" y2="144.093" gradientUnits="userSpaceOnUse">
<stop stop-color="#2C7C61"/>
<stop offset="1" stop-color="#2C7C61" stop-opacity="0"/>
</linearGradient>
<linearGradient id="paint23_linear_4385_291079" x1="209.036" y1="137.687" x2="219.116" y2="157.536" gradientUnits="userSpaceOnUse">
<stop stop-color="#DEDD1C"/>
<stop offset="1" stop-color="#D8DB1F" stop-opacity="0"/>
</linearGradient>
<linearGradient id="paint24_linear_4385_291079" x1="269.126" y1="151.666" x2="273.212" y2="189.309" gradientUnits="userSpaceOnUse">
<stop stop-color="#2C7C61"/>
<stop offset="1" stop-color="#2C7C61" stop-opacity="0"/>
</linearGradient>
<linearGradient id="paint25_linear_4385_291079" x1="302.426" y1="162.536" x2="258.512" y2="155.967" gradientUnits="userSpaceOnUse">
<stop stop-color="#DEDD1C"/>
<stop offset="1" stop-color="#D8DB1F" stop-opacity="0"/>
</linearGradient>
<linearGradient id="paint26_linear_4385_291079" x1="241.787" y1="174.667" x2="244.09" y2="195.887" gradientUnits="userSpaceOnUse">
<stop stop-color="#2C7C61"/>
<stop offset="1" stop-color="#2C7C61" stop-opacity="0"/>
</linearGradient>
<linearGradient id="paint27_linear_4385_291079" x1="260.558" y1="180.795" x2="235.804" y2="177.092" gradientUnits="userSpaceOnUse">
<stop stop-color="#DEDD1C"/>
<stop offset="1" stop-color="#D8DB1F" stop-opacity="0"/>
</linearGradient>
<linearGradient id="paint28_linear_4385_291079" x1="151.802" y1="384.361" x2="146.422" y2="385.304" gradientUnits="userSpaceOnUse">
<stop stop-color="#2C7C61"/>
<stop offset="1" stop-color="#2C7C61" stop-opacity="0"/>
</linearGradient>
<linearGradient id="paint29_linear_4385_291079" x1="152.672" y1="395.747" x2="145.959" y2="393.789" gradientUnits="userSpaceOnUse">
<stop stop-color="#2C7C61"/>
<stop offset="1" stop-color="#2C7C61" stop-opacity="0"/>
</linearGradient>
<linearGradient id="paint30_linear_4385_291079" x1="186.615" y1="377.004" x2="156.695" y2="368.475" gradientUnits="userSpaceOnUse">
<stop stop-color="#2C7C61"/>
<stop offset="1" stop-color="#2C7C61" stop-opacity="0"/>
</linearGradient>
<linearGradient id="paint31_linear_4385_291079" x1="182.489" y1="348.631" x2="173.012" y2="381.148" gradientUnits="userSpaceOnUse">
<stop stop-color="#DEDD1C"/>
<stop offset="1" stop-color="#D8DB1F" stop-opacity="0"/>
</linearGradient>
<linearGradient id="paint32_linear_4385_291079" x1="154.921" y1="362.55" x2="106.223" y2="357.436" gradientUnits="userSpaceOnUse">
<stop stop-color="#2C7C61"/>
<stop offset="1" stop-color="#2C7C61" stop-opacity="0"/>
</linearGradient>
<linearGradient id="paint33_linear_4385_291079" x1="138.686" y1="335.309" x2="141.101" y2="371.994" gradientUnits="userSpaceOnUse">
<stop stop-color="#DEDD1C"/>
<stop offset="1" stop-color="#D8DB1F" stop-opacity="0"/>
</linearGradient>
<linearGradient id="paint34_linear_4385_291079" x1="130.059" y1="391.791" x2="134.784" y2="422.932" gradientUnits="userSpaceOnUse">
<stop stop-color="#2C7C61"/>
<stop offset="1" stop-color="#2C7C61" stop-opacity="0"/>
</linearGradient>
<linearGradient id="paint35_linear_4385_291079" x1="108.862" y1="406.791" x2="139.146" y2="396.724" gradientUnits="userSpaceOnUse">
<stop stop-color="#DEDD1C"/>
<stop offset="1" stop-color="#D8DB1F" stop-opacity="0"/>
</linearGradient>
<linearGradient id="paint36_linear_4385_291079" x1="182.195" y1="395.626" x2="176.349" y2="394.957" gradientUnits="userSpaceOnUse">
<stop stop-color="#2C7C61"/>
<stop offset="1" stop-color="#2C7C61" stop-opacity="0"/>
</linearGradient>
<linearGradient id="paint37_linear_4385_291079" x1="179.034" y1="408.755" x2="172.053" y2="404.268" gradientUnits="userSpaceOnUse">
<stop stop-color="#2C7C61"/>
<stop offset="1" stop-color="#2C7C61" stop-opacity="0"/>
</linearGradient>
<linearGradient id="paint38_linear_4385_291079" x1="156.931" y1="410.218" x2="172.012" y2="434.856" gradientUnits="userSpaceOnUse">
<stop stop-color="#2C7C61"/>
<stop offset="1" stop-color="#2C7C61" stop-opacity="0"/>
</linearGradient>
<linearGradient id="paint39_linear_4385_291079" x1="145.648" y1="429.427" x2="166.133" y2="411.473" gradientUnits="userSpaceOnUse">
<stop stop-color="#DEDD1C"/>
<stop offset="1" stop-color="#D8DB1F" stop-opacity="0"/>
</linearGradient>
<linearGradient id="paint40_linear_4385_291079" x1="134.972" y1="401.021" x2="83.8622" y2="408.322" gradientUnits="userSpaceOnUse">
<stop stop-color="#2C7C61"/>
<stop offset="1" stop-color="#2C7C61" stop-opacity="0"/>
</linearGradient>
<linearGradient id="paint41_linear_4385_291079" x1="92.5973" y1="436.422" x2="104.057" y2="403.721" gradientUnits="userSpaceOnUse">
<stop stop-color="#DEDD1C"/>
<stop offset="1" stop-color="#D8DB1F" stop-opacity="0"/>
</linearGradient>
<linearGradient id="paint42_linear_4385_291079" x1="283.643" y1="346.659" x2="288.136" y2="340.513" gradientUnits="userSpaceOnUse">
<stop stop-color="#2C7C61"/>
<stop offset="1" stop-color="#2C7C61" stop-opacity="0"/>
</linearGradient>
<linearGradient id="paint43_linear_4385_291079" x1="245.065" y1="348.051" x2="254.64" y2="345.446" gradientUnits="userSpaceOnUse">
<stop stop-color="#2C7C61"/>
<stop offset="1" stop-color="#2C7C61" stop-opacity="0"/>
</linearGradient>
<linearGradient id="paint44_linear_4385_291079" x1="245.383" y1="373.597" x2="250.11" y2="363.795" gradientUnits="userSpaceOnUse">
<stop stop-color="#2C7C61"/>
<stop offset="1" stop-color="#2C7C61" stop-opacity="0"/>
</linearGradient>
<linearGradient id="paint45_linear_4385_291079" x1="290.251" y1="330.722" x2="296.787" y2="330.722" gradientUnits="userSpaceOnUse">
<stop stop-color="#2C7C61"/>
<stop offset="1" stop-color="#2C7C61" stop-opacity="0"/>
</linearGradient>
<linearGradient id="paint46_linear_4385_291079" x1="340.144" y1="299.139" x2="384.978" y2="350.114" gradientUnits="userSpaceOnUse">
<stop stop-color="#2C7C61"/>
<stop offset="1" stop-color="#2C7C61" stop-opacity="0"/>
</linearGradient>
<linearGradient id="paint47_linear_4385_291079" x1="398.662" y1="283.979" x2="351.725" y2="331.922" gradientUnits="userSpaceOnUse">
<stop stop-color="#DEDD1C"/>
<stop offset="1" stop-color="#D8DB1F" stop-opacity="0"/>
</linearGradient>
<linearGradient id="paint48_linear_4385_291079" x1="281.983" y1="308.899" x2="325.502" y2="293.922" gradientUnits="userSpaceOnUse">
<stop stop-color="#2C7C61"/>
<stop offset="1" stop-color="#2C7C61" stop-opacity="0"/>
</linearGradient>
<linearGradient id="paint49_linear_4385_291079" x1="288.19" y1="273.543" x2="298.219" y2="315.085" gradientUnits="userSpaceOnUse">
<stop stop-color="#DEDD1C"/>
<stop offset="1" stop-color="#D8DB1F" stop-opacity="0"/>
</linearGradient>
<linearGradient id="paint50_linear_4385_291079" x1="241.574" y1="327.247" x2="276.497" y2="315.228" gradientUnits="userSpaceOnUse">
<stop stop-color="#2C7C61"/>
<stop offset="1" stop-color="#2C7C61" stop-opacity="0"/>
</linearGradient>
<linearGradient id="paint51_linear_4385_291079" x1="246.555" y1="298.874" x2="254.603" y2="332.211" gradientUnits="userSpaceOnUse">
<stop stop-color="#DEDD1C"/>
<stop offset="1" stop-color="#D8DB1F" stop-opacity="0"/>
</linearGradient>
<linearGradient id="paint52_linear_4385_291079" x1="330.431" y1="340.218" x2="323.44" y2="395.855" gradientUnits="userSpaceOnUse">
<stop stop-color="#2C7C61"/>
<stop offset="1" stop-color="#2C7C61" stop-opacity="0"/>
</linearGradient>
<linearGradient id="paint53_linear_4385_291079" x1="375.835" y1="366.827" x2="313.792" y2="341.931" gradientUnits="userSpaceOnUse">
<stop stop-color="#DEDD1C"/>
<stop offset="1" stop-color="#D8DB1F" stop-opacity="0"/>
</linearGradient>
<linearGradient id="paint54_linear_4385_291079" x1="280.049" y1="366.066" x2="276.108" y2="397.427" gradientUnits="userSpaceOnUse">
<stop stop-color="#2C7C61"/>
<stop offset="1" stop-color="#2C7C61" stop-opacity="0"/>
</linearGradient>
<linearGradient id="paint55_linear_4385_291079" x1="305.643" y1="381.065" x2="270.67" y2="367.031" gradientUnits="userSpaceOnUse">
<stop stop-color="#DEDD1C"/>
<stop offset="1" stop-color="#D8DB1F" stop-opacity="0"/>
</linearGradient>
<linearGradient id="paint56_linear_4385_291079" x1="163.026" y1="300.278" x2="160.264" y2="293.738" gradientUnits="userSpaceOnUse">
<stop stop-color="#2C7C61"/>
<stop offset="1" stop-color="#2C7C61" stop-opacity="0"/>
</linearGradient>
<linearGradient id="paint57_linear_4385_291079" x1="199.723" y1="309.131" x2="191.718" y2="304.786" gradientUnits="userSpaceOnUse">
<stop stop-color="#2C7C61"/>
<stop offset="1" stop-color="#2C7C61" stop-opacity="0"/>
</linearGradient>
<linearGradient id="paint58_linear_4385_291079" x1="192.959" y1="333.569" x2="190.802" y2="323.822" gradientUnits="userSpaceOnUse">
<stop stop-color="#2C7C61"/>
<stop offset="1" stop-color="#2C7C61" stop-opacity="0"/>
</linearGradient>
<linearGradient id="paint59_linear_4385_291079" x1="160.591" y1="283.691" x2="154.726" y2="282.308" gradientUnits="userSpaceOnUse">
<stop stop-color="#2C7C61"/>
<stop offset="1" stop-color="#2C7C61" stop-opacity="0"/>
</linearGradient>
<linearGradient id="paint60_linear_4385_291079" x1="120.647" y1="243.518" x2="63.6679" y2="284.011" gradientUnits="userSpaceOnUse">
<stop stop-color="#2C7C61"/>
<stop offset="1" stop-color="#2C7C61" stop-opacity="0"/>
</linearGradient>
<linearGradient id="paint61_linear_4385_291079" x1="67.72" y1="217.823" x2="100.901" y2="272.773" gradientUnits="userSpaceOnUse">
<stop stop-color="#DEDD1C"/>
<stop offset="1" stop-color="#D8DB1F" stop-opacity="0"/>
</linearGradient>
<linearGradient id="paint62_linear_4385_291079" x1="173.644" y1="264.278" x2="137.121" y2="241.223" gradientUnits="userSpaceOnUse">
<stop stop-color="#2C7C61"/>
<stop offset="1" stop-color="#2C7C61" stop-opacity="0"/>
</linearGradient>
<linearGradient id="paint63_linear_4385_291079" x1="177.32" y1="228.754" x2="157.837" y2="267.264" gradientUnits="userSpaceOnUse">
<stop stop-color="#DEDD1C"/>
<stop offset="1" stop-color="#D8DB1F" stop-opacity="0"/>
</linearGradient>
<linearGradient id="paint64_linear_4385_291079" x1="208.196" y1="289.874" x2="178.886" y2="271.373" gradientUnits="userSpaceOnUse">
<stop stop-color="#2C7C61"/>
<stop offset="1" stop-color="#2C7C61" stop-opacity="0"/>
</linearGradient>
<linearGradient id="paint65_linear_4385_291079" x1="211.145" y1="261.366" x2="195.51" y2="292.27" gradientUnits="userSpaceOnUse">
<stop stop-color="#DEDD1C"/>
<stop offset="1" stop-color="#D8DB1F" stop-opacity="0"/>
</linearGradient>
<linearGradient id="paint66_linear_4385_291079" x1="117.791" y1="283.165" x2="111.522" y2="341.722" gradientUnits="userSpaceOnUse">
<stop stop-color="#2C7C61"/>
<stop offset="1" stop-color="#2C7C61" stop-opacity="0"/>
</linearGradient>
<linearGradient id="paint67_linear_4385_291079" x1="66.0106" y1="300.142" x2="134.311" y2="289.813" gradientUnits="userSpaceOnUse">
<stop stop-color="#DEDD1C"/>
<stop offset="1" stop-color="#D8DB1F" stop-opacity="0"/>
</linearGradient>
<linearGradient id="paint68_linear_4385_291079" x1="160.394" y1="318.897" x2="156.86" y2="351.905" gradientUnits="userSpaceOnUse">
<stop stop-color="#2C7C61"/>
<stop offset="1" stop-color="#2C7C61" stop-opacity="0"/>
</linearGradient>
<linearGradient id="paint69_linear_4385_291079" x1="131.206" y1="328.466" x2="169.706" y2="322.644" gradientUnits="userSpaceOnUse">
<stop stop-color="#DEDD1C"/>
<stop offset="1" stop-color="#D8DB1F" stop-opacity="0"/>
</linearGradient>
<linearGradient id="paint70_linear_4385_291079" x1="199.759" y1="76.7775" x2="248.935" y2="62.171" gradientUnits="userSpaceOnUse">
<stop stop-color="#2C7C61"/>
<stop offset="1" stop-color="#2C7C61" stop-opacity="0"/>
</linearGradient>
<linearGradient id="paint71_linear_4385_291079" x1="207.553" y1="34.6365" x2="224.516" y2="79.0383" gradientUnits="userSpaceOnUse">
<stop stop-color="#DEDD1C"/>
<stop offset="1" stop-color="#D8DB1F" stop-opacity="0"/>
</linearGradient>
</defs>
</svg>
