<svg width="1280" height="720" viewBox="0 0 1280 720" fill="none" xmlns="http://www.w3.org/2000/svg">
<path d="M751.166 359.749C750.785 360.166 750.355 360.633 749.877 361.148C749.398 361.652 748.895 362.173 748.367 362.713C747.851 363.241 747.336 363.763 746.82 364.278C746.305 364.794 745.82 365.273 745.366 365.714C745.894 366.083 746.452 366.537 747.041 367.077C747.63 367.617 748.207 368.194 748.772 368.808C749.337 369.421 749.864 370.047 750.355 370.686C750.859 371.324 751.276 371.931 751.607 372.508H749.508C749.14 371.931 748.717 371.355 748.238 370.778C747.759 370.188 747.25 369.63 746.71 369.102C746.182 368.562 745.642 368.065 745.09 367.611C744.55 367.157 744.022 366.77 743.506 366.451V372.508H741.72V359.749H743.506V365.383C743.936 364.978 744.408 364.524 744.924 364.021C745.44 363.505 745.949 362.989 746.452 362.474C746.955 361.958 747.428 361.467 747.87 361.001C748.324 360.522 748.705 360.105 749.011 359.749H751.166ZM761.298 367.721C761.298 368.482 761.188 369.17 760.967 369.783C760.746 370.397 760.433 370.925 760.028 371.367C759.635 371.809 759.163 372.152 758.61 372.398C758.058 372.631 757.456 372.748 756.806 372.748C756.155 372.748 755.554 372.631 755.002 372.398C754.449 372.152 753.971 371.809 753.566 371.367C753.173 370.925 752.866 370.397 752.645 369.783C752.424 369.17 752.314 368.482 752.314 367.721C752.314 366.973 752.424 366.291 752.645 365.678C752.866 365.052 753.173 364.518 753.566 364.076C753.971 363.634 754.449 363.296 755.002 363.063C755.554 362.818 756.155 362.695 756.806 362.695C757.456 362.695 758.058 362.818 758.61 363.063C759.163 363.296 759.635 363.634 760.028 364.076C760.433 364.518 760.746 365.052 760.967 365.678C761.188 366.291 761.298 366.973 761.298 367.721ZM759.512 367.721C759.512 366.641 759.267 365.788 758.776 365.162C758.297 364.524 757.641 364.205 756.806 364.205C755.971 364.205 755.308 364.524 754.817 365.162C754.339 365.788 754.099 366.641 754.099 367.721C754.099 368.801 754.339 369.661 754.817 370.299C755.308 370.925 755.971 371.238 756.806 371.238C757.641 371.238 758.297 370.925 758.776 370.299C759.267 369.661 759.512 368.801 759.512 367.721ZM770.354 367.74C770.354 366.623 770.078 365.764 769.525 365.162C768.973 364.561 768.237 364.26 767.316 364.26C766.801 364.26 766.396 364.278 766.101 364.315C765.819 364.352 765.592 364.395 765.42 364.444V370.483C765.628 370.655 765.929 370.821 766.322 370.98C766.715 371.14 767.144 371.219 767.611 371.219C768.102 371.219 768.519 371.134 768.863 370.962C769.219 370.778 769.507 370.532 769.728 370.225C769.949 369.906 770.109 369.538 770.207 369.121C770.305 368.691 770.354 368.231 770.354 367.74ZM772.14 367.74C772.14 368.464 772.042 369.133 771.845 369.747C771.661 370.36 771.385 370.888 771.017 371.33C770.649 371.772 770.194 372.116 769.654 372.361C769.127 372.606 768.519 372.729 767.832 372.729C767.279 372.729 766.788 372.656 766.359 372.508C765.941 372.361 765.628 372.22 765.42 372.085V375.914H763.707V363.229C764.112 363.131 764.616 363.026 765.217 362.916C765.831 362.793 766.537 362.732 767.335 362.732C768.071 362.732 768.734 362.848 769.323 363.082C769.912 363.315 770.415 363.646 770.833 364.076C771.25 364.505 771.569 365.033 771.79 365.659C772.023 366.273 772.14 366.966 772.14 367.74ZM774.015 367.74C774.015 366.893 774.138 366.156 774.384 365.53C774.629 364.892 774.954 364.364 775.36 363.947C775.765 363.53 776.231 363.217 776.759 363.008C777.287 362.799 777.827 362.695 778.379 362.695C779.668 362.695 780.656 363.1 781.343 363.91C782.031 364.708 782.374 365.929 782.374 367.574C782.374 367.648 782.374 367.746 782.374 367.869C782.374 367.979 782.368 368.083 782.356 368.182H775.801C775.875 369.176 776.164 369.931 776.667 370.446C777.17 370.962 777.956 371.219 779.023 371.219C779.625 371.219 780.128 371.17 780.533 371.072C780.951 370.962 781.264 370.857 781.472 370.759L781.712 372.195C781.503 372.306 781.135 372.422 780.607 372.545C780.091 372.668 779.502 372.729 778.839 372.729C778.005 372.729 777.28 372.606 776.667 372.361C776.065 372.103 775.568 371.753 775.175 371.312C774.783 370.87 774.488 370.348 774.292 369.747C774.108 369.133 774.015 368.464 774.015 367.74ZM780.588 366.801C780.601 366.027 780.404 365.395 779.999 364.904C779.606 364.401 779.06 364.149 778.361 364.149C777.968 364.149 777.618 364.229 777.311 364.389C777.017 364.536 776.765 364.732 776.556 364.978C776.348 365.223 776.182 365.506 776.059 365.825C775.949 366.144 775.875 366.469 775.838 366.801H780.588ZM792.677 372.508H790.965V368.274H786.546V372.508H784.834V362.934H786.546V366.838H790.965V362.934H792.677V372.508ZM799.249 371.312C799.973 371.312 800.544 371.17 800.961 370.888C801.379 370.606 801.587 370.152 801.587 369.526C801.587 369.219 801.526 368.955 801.403 368.734C801.281 368.513 801.109 368.335 800.888 368.2C800.679 368.053 800.434 367.948 800.151 367.887C799.869 367.813 799.568 367.777 799.249 367.777C798.918 367.777 798.574 367.789 798.218 367.813C797.874 367.826 797.58 367.862 797.334 367.924V371.219C797.408 371.232 797.518 371.244 797.666 371.256C797.813 371.269 797.973 371.281 798.144 371.293C798.329 371.293 798.513 371.299 798.697 371.312C798.893 371.312 799.077 371.312 799.249 371.312ZM795.622 372.306V362.934H797.334V366.598C797.433 366.574 797.561 366.549 797.721 366.525C797.893 366.5 798.071 366.475 798.255 366.451C798.451 366.426 798.654 366.408 798.863 366.396C799.071 366.383 799.268 366.377 799.452 366.377C799.98 366.377 800.477 366.439 800.943 366.561C801.409 366.672 801.815 366.856 802.158 367.114C802.514 367.359 802.796 367.684 803.005 368.09C803.214 368.482 803.318 368.955 803.318 369.507C803.318 370.084 803.22 370.575 803.024 370.98C802.827 371.385 802.545 371.717 802.177 371.974C801.808 372.232 801.367 372.416 800.851 372.527C800.348 372.649 799.783 372.711 799.157 372.711C798.543 372.711 797.942 372.674 797.353 372.6C796.764 372.539 796.187 372.441 795.622 372.306Z" fill="black"/>
<path d="M419.924 197.981H503.274L568 165.885M427.637 388.863H497.054L633.5 326.5M802.587 165.885H739.39L679.5 130M802.587 231H739.39L723 222.613M802.587 381.15H739.39L624 467" stroke="black" stroke-width="1.5"/>
<path d="M752.418 209.007V221.766H750.632V210.535H744.501V221.766H742.715V209.007H752.418ZM758.811 213.628C758.811 214.033 758.799 214.469 758.774 214.935C758.762 215.39 758.731 215.85 758.682 216.316C758.633 216.77 758.566 217.225 758.48 217.679C758.394 218.121 758.283 218.538 758.148 218.931C758.013 219.324 757.842 219.692 757.633 220.035C757.437 220.379 757.191 220.686 756.896 220.956C756.602 221.214 756.258 221.435 755.865 221.619C755.473 221.791 755.012 221.901 754.485 221.95L754.245 220.514C754.847 220.391 755.319 220.164 755.663 219.833C756.019 219.501 756.301 219.096 756.51 218.618C756.694 218.2 756.829 217.728 756.915 217.2C757.001 216.672 757.062 216.126 757.099 215.561C757.136 214.985 757.154 214.408 757.154 213.831C757.166 213.254 757.173 212.708 757.173 212.192H763.543V221.766H761.831V213.628H758.811ZM774.934 216.979C774.934 217.74 774.823 218.427 774.602 219.041C774.381 219.655 774.068 220.183 773.663 220.625C773.27 221.066 772.798 221.41 772.245 221.656C771.693 221.889 771.092 222.005 770.441 222.005C769.791 222.005 769.189 221.889 768.637 221.656C768.084 221.41 767.606 221.066 767.201 220.625C766.808 220.183 766.501 219.655 766.28 219.041C766.059 218.427 765.949 217.74 765.949 216.979C765.949 216.23 766.059 215.549 766.28 214.935C766.501 214.309 766.808 213.775 767.201 213.334C767.606 212.892 768.084 212.554 768.637 212.321C769.189 212.075 769.791 211.953 770.441 211.953C771.092 211.953 771.693 212.075 772.245 212.321C772.798 212.554 773.27 212.892 773.663 213.334C774.068 213.775 774.381 214.309 774.602 214.935C774.823 215.549 774.934 216.23 774.934 216.979ZM773.148 216.979C773.148 215.899 772.902 215.046 772.411 214.42C771.932 213.782 771.276 213.462 770.441 213.462C769.606 213.462 768.944 213.782 768.453 214.42C767.974 215.046 767.735 215.899 767.735 216.979C767.735 218.059 767.974 218.918 768.453 219.557C768.944 220.183 769.606 220.496 770.441 220.496C771.276 220.496 771.932 220.183 772.411 219.557C772.902 218.918 773.148 218.059 773.148 216.979ZM776.164 220.367H777.195C777.6 219.778 777.919 219.17 778.153 218.544C778.398 217.918 778.582 217.274 778.705 216.611C778.828 215.936 778.908 215.236 778.944 214.512C778.981 213.775 779.006 213.002 779.018 212.192H785.296V220.367H786.585V224.436H784.965V221.766H777.784V224.436H776.164V220.367ZM783.584 220.367V213.628H780.583C780.571 214.205 780.54 214.788 780.491 215.377C780.442 215.954 780.362 216.531 780.252 217.108C780.141 217.673 779.982 218.231 779.773 218.783C779.576 219.324 779.325 219.851 779.018 220.367H783.584ZM791.953 217.034C791.621 217.034 791.296 217.047 790.977 217.071C790.67 217.083 790.394 217.12 790.149 217.182V220.477C790.222 220.49 790.327 220.502 790.462 220.514C790.609 220.526 790.762 220.539 790.922 220.551C791.094 220.551 791.266 220.557 791.437 220.569C791.609 220.569 791.763 220.569 791.898 220.569C792.646 220.569 793.223 220.428 793.628 220.146C794.033 219.864 794.236 219.409 794.236 218.783C794.236 218.477 794.168 218.213 794.033 217.992C793.911 217.771 793.739 217.593 793.518 217.458C793.309 217.311 793.07 217.206 792.8 217.145C792.53 217.071 792.247 217.034 791.953 217.034ZM788.436 212.192H790.149V215.856C790.357 215.807 790.658 215.758 791.051 215.709C791.456 215.66 791.842 215.635 792.211 215.635C792.714 215.635 793.193 215.696 793.647 215.819C794.101 215.93 794.5 216.114 794.844 216.372C795.187 216.617 795.457 216.942 795.654 217.347C795.862 217.74 795.967 218.213 795.967 218.765C795.967 219.342 795.868 219.833 795.672 220.238C795.476 220.643 795.199 220.974 794.844 221.232C794.488 221.49 794.058 221.674 793.555 221.785C793.051 221.907 792.499 221.969 791.898 221.969C791.321 221.969 790.738 221.932 790.149 221.858C789.559 221.797 788.989 221.699 788.436 221.564V212.192ZM799.446 221.766H797.734V212.192H799.446V221.766Z" fill="black"/>
<path d="M426.745 188.625C425.849 188.625 425.033 188.478 424.297 188.183C423.56 187.889 422.928 187.459 422.4 186.895C421.872 186.33 421.461 185.636 421.167 184.814C420.884 183.979 420.743 183.028 420.743 181.96C420.743 180.892 420.903 179.947 421.222 179.125C421.553 178.29 421.995 177.591 422.548 177.026C423.1 176.461 423.744 176.032 424.481 175.737C425.217 175.443 426.003 175.295 426.837 175.295C427.365 175.295 427.838 175.332 428.255 175.406C428.685 175.479 429.053 175.565 429.36 175.664C429.679 175.762 429.937 175.86 430.133 175.958C430.329 176.056 430.465 176.13 430.538 176.179L430.023 177.652C429.912 177.578 429.753 177.499 429.544 177.413C429.335 177.327 429.096 177.241 428.826 177.155C428.568 177.069 428.28 177.001 427.961 176.952C427.654 176.891 427.341 176.86 427.022 176.86C426.346 176.86 425.739 176.977 425.199 177.21C424.659 177.443 424.198 177.781 423.818 178.223C423.437 178.665 423.143 179.205 422.934 179.843C422.738 180.469 422.64 181.175 422.64 181.96C422.64 182.721 422.725 183.415 422.897 184.041C423.081 184.667 423.351 185.207 423.707 185.661C424.063 186.103 424.505 186.447 425.033 186.692C425.573 186.938 426.199 187.06 426.911 187.06C427.733 187.06 428.415 186.974 428.955 186.803C429.495 186.631 429.9 186.477 430.17 186.342L430.63 187.815C430.544 187.877 430.391 187.956 430.17 188.055C429.949 188.14 429.673 188.226 429.341 188.312C429.01 188.398 428.623 188.472 428.181 188.533C427.74 188.595 427.261 188.625 426.745 188.625ZM440.747 183.562C440.747 184.323 440.636 185.01 440.415 185.624C440.194 186.238 439.881 186.766 439.476 187.208C439.084 187.649 438.611 187.993 438.059 188.239C437.506 188.472 436.905 188.588 436.254 188.588C435.604 188.588 435.002 188.472 434.45 188.239C433.898 187.993 433.419 187.649 433.014 187.208C432.621 186.766 432.314 186.238 432.093 185.624C431.872 185.01 431.762 184.323 431.762 183.562C431.762 182.813 431.872 182.132 432.093 181.518C432.314 180.892 432.621 180.358 433.014 179.917C433.419 179.475 433.898 179.137 434.45 178.904C435.002 178.658 435.604 178.536 436.254 178.536C436.905 178.536 437.506 178.658 438.059 178.904C438.611 179.137 439.084 179.475 439.476 179.917C439.881 180.358 440.194 180.892 440.415 181.518C440.636 182.132 440.747 182.813 440.747 183.562ZM438.961 183.562C438.961 182.482 438.715 181.629 438.224 181.003C437.746 180.365 437.089 180.045 436.254 180.045C435.42 180.045 434.757 180.365 434.266 181.003C433.787 181.629 433.548 182.482 433.548 183.562C433.548 184.642 433.787 185.501 434.266 186.14C434.757 186.766 435.42 187.079 436.254 187.079C437.089 187.079 437.746 186.766 438.224 186.14C438.715 185.501 438.961 184.642 438.961 183.562ZM450.797 186.931H452.085V191.019H450.465V188.349H443.156V178.775H444.868V186.931H449.084V178.775H450.797V186.931ZM455.619 187.06C455.693 187.073 455.797 187.085 455.932 187.097C456.067 187.109 456.221 187.122 456.393 187.134C456.564 187.134 456.742 187.14 456.927 187.152C457.123 187.152 457.307 187.152 457.479 187.152C457.835 187.152 458.172 187.128 458.492 187.079C458.823 187.03 459.105 186.944 459.339 186.821C459.584 186.698 459.774 186.539 459.909 186.342C460.057 186.134 460.13 185.87 460.13 185.551C460.13 185.244 460.063 184.992 459.928 184.796C459.805 184.587 459.633 184.421 459.412 184.299C459.191 184.176 458.927 184.09 458.62 184.041C458.326 183.992 458.007 183.967 457.663 183.967H455.619V187.06ZM457.442 182.697C457.774 182.697 458.074 182.678 458.344 182.642C458.627 182.592 458.866 182.513 459.062 182.402C459.271 182.292 459.431 182.144 459.541 181.96C459.664 181.776 459.725 181.543 459.725 181.261C459.725 180.966 459.652 180.733 459.504 180.561C459.357 180.389 459.161 180.26 458.915 180.174C458.682 180.076 458.412 180.015 458.105 179.99C457.81 179.953 457.51 179.935 457.203 179.935C456.92 179.935 456.632 179.941 456.337 179.953C456.055 179.966 455.816 179.978 455.619 179.99V182.697H457.442ZM457.405 188.515C456.681 188.515 456.012 188.478 455.398 188.404C454.785 188.343 454.3 188.269 453.944 188.183V178.867C454.3 178.781 454.785 178.708 455.398 178.646C456.012 178.573 456.681 178.536 457.405 178.536C457.909 178.536 458.4 178.579 458.878 178.665C459.357 178.751 459.78 178.898 460.149 179.106C460.517 179.303 460.811 179.579 461.032 179.935C461.266 180.279 461.382 180.708 461.382 181.224C461.382 181.69 461.266 182.089 461.032 182.421C460.799 182.752 460.486 183.01 460.093 183.194C460.621 183.378 461.039 183.654 461.345 184.022C461.665 184.378 461.824 184.882 461.824 185.532C461.824 186.109 461.707 186.588 461.474 186.968C461.253 187.349 460.94 187.656 460.535 187.889C460.142 188.122 459.676 188.282 459.136 188.368C458.596 188.466 458.019 188.515 457.405 188.515ZM463.497 183.581C463.497 182.734 463.62 181.997 463.865 181.371C464.111 180.733 464.436 180.205 464.841 179.788C465.246 179.37 465.712 179.057 466.24 178.849C466.768 178.64 467.308 178.536 467.86 178.536C469.149 178.536 470.137 178.941 470.825 179.751C471.512 180.549 471.856 181.77 471.856 183.415C471.856 183.488 471.856 183.587 471.856 183.709C471.856 183.82 471.85 183.924 471.837 184.022H465.283C465.356 185.017 465.645 185.771 466.148 186.287C466.651 186.803 467.437 187.06 468.505 187.06C469.106 187.06 469.609 187.011 470.015 186.913C470.432 186.803 470.745 186.698 470.954 186.6L471.193 188.036C470.984 188.147 470.616 188.263 470.088 188.386C469.573 188.509 468.983 188.57 468.321 188.57C467.486 188.57 466.762 188.447 466.148 188.202C465.547 187.944 465.05 187.594 464.657 187.152C464.264 186.71 463.969 186.189 463.773 185.587C463.589 184.974 463.497 184.305 463.497 183.581ZM470.07 182.642C470.082 181.868 469.886 181.236 469.481 180.745C469.088 180.242 468.542 179.99 467.842 179.99C467.449 179.99 467.099 180.07 466.792 180.23C466.498 180.377 466.246 180.573 466.038 180.819C465.829 181.064 465.663 181.347 465.54 181.666C465.43 181.985 465.356 182.31 465.32 182.642H470.07ZM481.072 178.775V180.211H477.961V188.349H476.249V180.211H473.137V178.775H481.072ZM490.884 178.775V188.349H489.227V181.058C488.859 181.525 488.453 182.071 488.012 182.697C487.57 183.323 487.128 183.973 486.686 184.648C486.244 185.311 485.821 185.968 485.416 186.618C485.01 187.269 484.661 187.846 484.366 188.349H482.838V178.775H484.495V185.661C484.814 185.133 485.176 184.556 485.581 183.93C485.986 183.292 486.404 182.666 486.833 182.052C487.275 181.426 487.711 180.831 488.14 180.266C488.582 179.69 488.994 179.192 489.374 178.775H490.884ZM497.782 184.63C497.598 184.63 497.42 184.63 497.248 184.63C497.076 184.618 496.911 184.605 496.751 184.593C496.358 185.182 495.978 185.814 495.61 186.49C495.254 187.152 494.935 187.772 494.652 188.349H492.922C493.069 187.993 493.241 187.631 493.437 187.263C493.634 186.882 493.83 186.514 494.026 186.158C494.235 185.802 494.444 185.465 494.652 185.145C494.861 184.826 495.057 184.538 495.241 184.28C494.898 184.157 494.615 184.01 494.395 183.838C494.174 183.654 493.996 183.452 493.861 183.231C493.726 183.01 493.627 182.777 493.566 182.531C493.517 182.273 493.492 182.016 493.492 181.758C493.492 181.218 493.591 180.745 493.787 180.34C493.996 179.935 494.278 179.604 494.634 179.346C494.99 179.076 495.407 178.873 495.886 178.738C496.377 178.603 496.911 178.536 497.488 178.536C498.298 178.536 498.985 178.573 499.55 178.646C500.114 178.72 500.587 178.806 500.967 178.904V188.349H499.274V184.63H497.782ZM499.274 180.045C499.139 180.021 498.912 179.996 498.592 179.972C498.286 179.947 497.93 179.935 497.524 179.935C496.825 179.935 496.26 180.082 495.831 180.377C495.401 180.659 495.186 181.113 495.186 181.739C495.186 182.353 495.407 182.777 495.849 183.01C496.291 183.243 496.862 183.36 497.561 183.36H499.274V180.045Z" fill="black"/>
<path d="M434.21 379.756C433.314 379.756 432.497 379.609 431.761 379.314C431.024 379.02 430.392 378.59 429.865 378.025C429.337 377.461 428.926 376.767 428.631 375.945C428.349 375.11 428.208 374.159 428.208 373.091C428.208 372.023 428.367 371.078 428.686 370.256C429.018 369.421 429.46 368.721 430.012 368.157C430.564 367.592 431.209 367.163 431.945 366.868C432.682 366.573 433.467 366.426 434.302 366.426C434.83 366.426 435.302 366.463 435.719 366.537C436.149 366.61 436.517 366.696 436.824 366.794C437.143 366.893 437.401 366.991 437.597 367.089C437.794 367.187 437.929 367.261 438.003 367.31L437.487 368.783C437.377 368.709 437.217 368.629 437.008 368.543C436.8 368.458 436.56 368.372 436.29 368.286C436.032 368.2 435.744 368.132 435.425 368.083C435.118 368.022 434.805 367.991 434.486 367.991C433.811 367.991 433.203 368.108 432.663 368.341C432.123 368.574 431.663 368.912 431.282 369.354C430.902 369.795 430.607 370.336 430.399 370.974C430.202 371.6 430.104 372.306 430.104 373.091C430.104 373.852 430.19 374.546 430.362 375.172C430.546 375.798 430.816 376.338 431.172 376.792C431.528 377.234 431.97 377.577 432.497 377.823C433.038 378.068 433.663 378.191 434.375 378.191C435.198 378.191 435.879 378.105 436.419 377.933C436.959 377.762 437.364 377.608 437.634 377.473L438.095 378.946C438.009 379.007 437.855 379.087 437.634 379.185C437.413 379.271 437.137 379.357 436.806 379.443C436.474 379.529 436.088 379.603 435.646 379.664C435.204 379.725 434.725 379.756 434.21 379.756ZM446.176 369.906V371.342H443.064V379.48H441.352V371.342H438.24V369.906H446.176ZM447.407 374.711C447.407 373.864 447.53 373.128 447.775 372.502C448.021 371.864 448.346 371.336 448.751 370.919C449.156 370.501 449.623 370.188 450.151 369.98C450.678 369.771 451.218 369.667 451.771 369.667C453.06 369.667 454.048 370.072 454.735 370.882C455.422 371.68 455.766 372.901 455.766 374.546C455.766 374.619 455.766 374.718 455.766 374.84C455.766 374.951 455.76 375.055 455.748 375.153H449.193C449.267 376.147 449.555 376.902 450.059 377.418C450.562 377.933 451.347 378.191 452.415 378.191C453.017 378.191 453.52 378.142 453.925 378.044C454.342 377.933 454.655 377.829 454.864 377.731L455.103 379.167C454.895 379.277 454.526 379.394 453.999 379.517C453.483 379.64 452.894 379.701 452.231 379.701C451.396 379.701 450.672 379.578 450.059 379.333C449.457 379.075 448.96 378.725 448.567 378.283C448.174 377.841 447.88 377.32 447.683 376.718C447.499 376.105 447.407 375.436 447.407 374.711ZM453.98 373.772C453.992 372.999 453.796 372.367 453.391 371.876C452.998 371.373 452.452 371.121 451.752 371.121C451.36 371.121 451.01 371.201 450.703 371.36C450.408 371.508 450.157 371.704 449.948 371.95C449.739 372.195 449.574 372.477 449.451 372.797C449.34 373.116 449.267 373.441 449.23 373.772H453.98ZM459.772 371.011C460.153 370.704 460.595 370.471 461.098 370.311C461.614 370.139 462.105 370.053 462.571 370.053C463.946 370.053 464.983 370.477 465.682 371.324C466.394 372.158 466.75 373.324 466.75 374.822C466.75 375.46 466.664 376.074 466.493 376.663C466.321 377.252 466.051 377.774 465.682 378.228C465.327 378.682 464.872 379.044 464.32 379.314C463.768 379.584 463.111 379.719 462.35 379.719C461.479 379.719 460.754 379.56 460.177 379.241C459.601 378.921 459.14 378.486 458.797 377.933C458.465 377.381 458.232 376.737 458.097 376C457.962 375.264 457.894 374.484 457.894 373.662C457.894 372.594 457.968 371.6 458.115 370.679C458.275 369.759 458.557 368.949 458.962 368.249C459.367 367.549 459.926 366.972 460.638 366.518C461.362 366.052 462.289 365.739 463.418 365.579C463.749 365.53 464.038 365.493 464.283 365.469C464.541 365.432 464.762 365.401 464.946 365.377C465.142 365.352 465.32 365.328 465.48 365.303C465.64 365.266 465.805 365.229 465.977 365.193L466.161 366.739C466.075 366.764 465.983 366.782 465.885 366.794C465.799 366.807 465.67 366.825 465.498 366.85C465.339 366.874 465.118 366.905 464.836 366.942C464.566 366.978 464.21 367.021 463.768 367.071C462.553 367.206 461.62 367.574 460.969 368.175C460.319 368.777 459.92 369.722 459.772 371.011ZM459.662 373.938C459.662 374.515 459.699 375.061 459.772 375.577C459.858 376.092 459.999 376.546 460.196 376.939C460.404 377.332 460.681 377.645 461.024 377.878C461.368 378.099 461.81 378.21 462.35 378.21C462.816 378.21 463.215 378.124 463.547 377.952C463.878 377.768 464.148 377.522 464.357 377.215C464.566 376.908 464.719 376.553 464.817 376.147C464.915 375.73 464.964 375.288 464.964 374.822C464.964 374.405 464.921 373.999 464.836 373.607C464.762 373.214 464.621 372.864 464.412 372.557C464.203 372.25 463.921 372.005 463.565 371.821C463.221 371.637 462.786 371.545 462.258 371.545C461.742 371.545 461.245 371.655 460.767 371.876C460.3 372.097 459.938 372.367 459.68 372.686C459.668 372.821 459.662 373.011 459.662 373.257C459.662 373.502 459.662 373.729 459.662 373.938ZM468.642 374.711C468.642 373.864 468.764 373.128 469.01 372.502C469.255 371.864 469.581 371.336 469.986 370.919C470.391 370.501 470.857 370.188 471.385 369.98C471.913 369.771 472.453 369.667 473.005 369.667C474.294 369.667 475.282 370.072 475.97 370.882C476.657 371.68 477.001 372.901 477.001 374.546C477.001 374.619 477.001 374.718 477.001 374.84C477.001 374.951 476.994 375.055 476.982 375.153H470.428C470.501 376.147 470.79 376.902 471.293 377.418C471.796 377.933 472.582 378.191 473.65 378.191C474.251 378.191 474.754 378.142 475.159 378.044C475.577 377.933 475.89 377.829 476.098 377.731L476.338 379.167C476.129 379.277 475.761 379.394 475.233 379.517C474.718 379.64 474.128 379.701 473.466 379.701C472.631 379.701 471.907 379.578 471.293 379.333C470.692 379.075 470.194 378.725 469.802 378.283C469.409 377.841 469.114 377.32 468.918 376.718C468.734 376.105 468.642 375.436 468.642 374.711ZM475.215 373.772C475.227 372.999 475.031 372.367 474.626 371.876C474.233 371.373 473.687 371.121 472.987 371.121C472.594 371.121 472.244 371.201 471.937 371.36C471.643 371.508 471.391 371.704 471.183 371.95C470.974 372.195 470.808 372.477 470.685 372.797C470.575 373.116 470.501 373.441 470.464 373.772H475.215ZM482.793 371.342C482.793 371.747 482.781 372.183 482.756 372.649C482.744 373.103 482.713 373.564 482.664 374.03C482.615 374.484 482.547 374.938 482.461 375.393C482.375 375.834 482.265 376.252 482.13 376.645C481.995 377.037 481.823 377.406 481.614 377.749C481.418 378.093 481.173 378.4 480.878 378.67C480.583 378.928 480.24 379.149 479.847 379.333C479.454 379.505 478.994 379.615 478.466 379.664L478.227 378.228C478.828 378.105 479.301 377.878 479.644 377.547C480 377.215 480.283 376.81 480.491 376.332C480.675 375.914 480.81 375.442 480.896 374.914C480.982 374.386 481.044 373.84 481.081 373.275C481.117 372.698 481.136 372.121 481.136 371.545C481.148 370.968 481.154 370.421 481.154 369.906H487.525V379.48H485.812V371.342H482.793ZM494.091 378.283C494.815 378.283 495.386 378.142 495.803 377.86C496.221 377.577 496.429 377.123 496.429 376.497C496.429 376.19 496.368 375.927 496.245 375.706C496.123 375.485 495.951 375.307 495.73 375.172C495.521 375.024 495.276 374.92 494.993 374.859C494.711 374.785 494.41 374.748 494.091 374.748C493.76 374.748 493.416 374.76 493.06 374.785C492.716 374.797 492.422 374.834 492.176 374.895V378.191C492.25 378.203 492.36 378.216 492.508 378.228C492.655 378.24 492.815 378.253 492.986 378.265C493.171 378.265 493.355 378.271 493.539 378.283C493.735 378.283 493.919 378.283 494.091 378.283ZM490.464 379.277V369.906H492.176V373.57C492.275 373.545 492.403 373.521 492.563 373.496C492.735 373.472 492.913 373.447 493.097 373.423C493.293 373.398 493.496 373.38 493.705 373.367C493.913 373.355 494.11 373.349 494.294 373.349C494.822 373.349 495.319 373.41 495.785 373.533C496.251 373.643 496.657 373.828 497 374.085C497.356 374.331 497.638 374.656 497.847 375.061C498.056 375.454 498.16 375.927 498.16 376.479C498.16 377.056 498.062 377.547 497.866 377.952C497.669 378.357 497.387 378.688 497.019 378.946C496.65 379.204 496.209 379.388 495.693 379.498C495.19 379.621 494.625 379.683 493.999 379.683C493.385 379.683 492.784 379.646 492.195 379.572C491.606 379.511 491.029 379.412 490.464 379.277Z" fill="black"/>
<path d="M747.079 145.768C747.054 146.456 747.03 147.125 747.005 147.775C746.981 148.414 746.944 149.04 746.895 149.653C746.846 150.255 746.772 150.844 746.674 151.421C746.576 151.998 746.441 152.562 746.269 153.115C746.097 153.667 745.882 154.189 745.625 154.68C745.379 155.158 745.066 155.582 744.686 155.95C744.317 156.306 743.875 156.594 743.36 156.815C742.857 157.036 742.261 157.159 741.574 157.184L741.371 155.637C742.231 155.539 742.893 155.269 743.36 154.827C743.839 154.385 744.231 153.71 744.538 152.802C744.882 151.771 745.097 150.531 745.183 149.083C745.281 147.622 745.33 146.008 745.33 144.24H752.566V157H750.78V145.768H747.079ZM763.668 147.425V157H762.011V149.709C761.643 150.175 761.238 150.721 760.796 151.347C760.354 151.973 759.913 152.624 759.471 153.299C759.029 153.962 758.605 154.618 758.2 155.269C757.795 155.919 757.445 156.496 757.151 157H755.623V147.425H757.28V154.311C757.599 153.784 757.961 153.207 758.366 152.581C758.771 151.942 759.188 151.316 759.618 150.703C760.06 150.077 760.496 149.481 760.925 148.917C761.367 148.34 761.778 147.843 762.159 147.425H763.668ZM770.769 157.22C769.996 157.22 769.315 157.098 768.726 156.852C768.149 156.607 767.658 156.263 767.253 155.821C766.86 155.379 766.565 154.858 766.369 154.256C766.173 153.642 766.074 152.967 766.074 152.231C766.074 151.494 766.179 150.819 766.387 150.206C766.608 149.592 766.915 149.064 767.308 148.622C767.701 148.168 768.18 147.818 768.744 147.573C769.321 147.315 769.959 147.186 770.659 147.186C771.089 147.186 771.518 147.223 771.948 147.297C772.377 147.37 772.789 147.487 773.181 147.646L772.795 149.101C772.537 148.978 772.236 148.88 771.893 148.806C771.561 148.733 771.205 148.696 770.825 148.696C769.867 148.696 769.131 148.997 768.615 149.598C768.112 150.199 767.86 151.077 767.86 152.231C767.86 152.746 767.916 153.219 768.026 153.649C768.149 154.078 768.333 154.446 768.578 154.753C768.836 155.06 769.162 155.3 769.554 155.471C769.947 155.631 770.426 155.711 770.99 155.711C771.445 155.711 771.856 155.668 772.224 155.582C772.592 155.496 772.881 155.404 773.089 155.306L773.329 156.742C773.23 156.803 773.089 156.864 772.905 156.926C772.721 156.975 772.512 157.018 772.279 157.055C772.046 157.104 771.794 157.141 771.524 157.165C771.267 157.202 771.015 157.22 770.769 157.22ZM782.194 147.425V148.862H779.082V157H777.37V148.862H774.258V147.425H782.194ZM787.586 155.803C788.311 155.803 788.881 155.662 789.299 155.379C789.716 155.097 789.925 154.643 789.925 154.017C789.925 153.71 789.863 153.446 789.74 153.225C789.618 153.004 789.446 152.826 789.225 152.691C789.016 152.544 788.771 152.44 788.488 152.378C788.206 152.305 787.905 152.268 787.586 152.268C787.255 152.268 786.911 152.28 786.555 152.305C786.212 152.317 785.917 152.354 785.672 152.415V155.711C785.745 155.723 785.856 155.735 786.003 155.748C786.15 155.76 786.31 155.772 786.482 155.784C786.666 155.784 786.85 155.79 787.034 155.803C787.23 155.803 787.414 155.803 787.586 155.803ZM783.959 156.797V147.425H785.672V151.089C785.77 151.065 785.899 151.04 786.058 151.016C786.23 150.991 786.408 150.967 786.592 150.942C786.788 150.918 786.991 150.899 787.2 150.887C787.408 150.875 787.605 150.868 787.789 150.868C788.317 150.868 788.814 150.93 789.28 151.053C789.747 151.163 790.152 151.347 790.495 151.605C790.851 151.85 791.134 152.176 791.342 152.581C791.551 152.974 791.655 153.446 791.655 153.998C791.655 154.575 791.557 155.066 791.361 155.471C791.164 155.876 790.882 156.208 790.514 156.466C790.146 156.723 789.704 156.907 789.188 157.018C788.685 157.141 788.12 157.202 787.494 157.202C786.881 157.202 786.279 157.165 785.69 157.092C785.101 157.03 784.524 156.932 783.959 156.797ZM797.645 153.28C797.461 153.28 797.283 153.28 797.111 153.28C796.939 153.268 796.773 153.256 796.614 153.244C796.221 153.833 795.841 154.465 795.472 155.14C795.116 155.803 794.797 156.423 794.515 157H792.784C792.932 156.644 793.103 156.281 793.3 155.913C793.496 155.533 793.693 155.164 793.889 154.809C794.098 154.453 794.306 154.115 794.515 153.796C794.724 153.477 794.92 153.188 795.104 152.931C794.76 152.808 794.478 152.661 794.257 152.489C794.036 152.305 793.858 152.102 793.723 151.881C793.588 151.66 793.49 151.427 793.429 151.181C793.38 150.924 793.355 150.666 793.355 150.408C793.355 149.868 793.453 149.396 793.65 148.99C793.858 148.585 794.141 148.254 794.497 147.996C794.853 147.726 795.27 147.524 795.749 147.389C796.24 147.254 796.773 147.186 797.35 147.186C798.16 147.186 798.848 147.223 799.412 147.297C799.977 147.37 800.45 147.456 800.83 147.554V157H799.136V153.28H797.645ZM799.136 148.696C799.001 148.671 798.774 148.647 798.455 148.622C798.148 148.598 797.792 148.585 797.387 148.585C796.688 148.585 796.123 148.733 795.693 149.027C795.264 149.31 795.049 149.764 795.049 150.39C795.049 151.003 795.27 151.427 795.712 151.66C796.154 151.893 796.724 152.01 797.424 152.01H799.136V148.696Z" fill="black"/>
</svg>
