<svg width="456" height="790" viewBox="0 0 456 790" fill="none" xmlns="http://www.w3.org/2000/svg">
<path d="M217.446 77.4009C213.667 97.3749 211.497 114.553 210.182 127.684C210.182 127.684 205.934 170.122 207.967 211.22C208.252 216.975 208.468 224.518 209.803 234.503C210.834 242.209 212.144 250.075 213.211 257.978C213.211 257.978 214.51 267.172 216.132 281.748C220.358 319.711 221.695 377.469 221.695 377.469C221.695 446.209 219.826 463.426 221.681 470.487C221.807 470.968 222.378 472.998 221.584 474.517C219.719 478.084 211.175 477.217 209.76 473.234C209.205 471.671 209.861 469.948 210.064 469.389C210.064 469.389 213.201 460.767 213.267 391.678C213.267 391.626 213.505 342.191 208.474 282.818C207.223 268.06 206.233 259.27 206.233 259.269C205.394 251.429 204.313 243.646 203.46 235.606C202.619 227.544 202.328 219.371 202.355 211.319C202.373 205.968 202.607 201.868 202.762 199.162C205.762 146.689 210.816 113.916 210.816 113.916C212.274 104.468 214.396 91.9959 217.446 77.4009Z" fill="#8FC25F"/>
<path d="M217.446 77.4009C213.667 97.3749 211.497 114.553 210.182 127.684C210.182 127.684 205.934 170.122 207.967 211.22C208.252 216.975 208.468 224.518 209.803 234.503C210.834 242.209 212.144 250.075 213.211 257.978C213.211 257.978 214.51 267.172 216.132 281.748C220.358 319.711 221.695 377.469 221.695 377.469C221.695 446.209 219.826 463.426 221.681 470.487C221.807 470.968 222.378 472.998 221.584 474.517C219.719 478.084 211.175 477.217 209.76 473.234C209.205 471.671 209.861 469.948 210.064 469.389C210.064 469.389 213.201 460.767 213.267 391.678C213.267 391.626 213.505 342.191 208.474 282.818C207.223 268.06 206.233 259.27 206.233 259.269C205.394 251.429 204.313 243.646 203.46 235.606C203.204 233.193 203.126 232.073 203.076 231.463C202.768 227.75 202.278 220.676 202.355 211.319C202.355 211.319 202.406 205.377 202.762 199.162C205.762 146.689 210.816 113.916 210.816 113.916C212.274 104.468 214.396 91.9959 217.446 77.4009Z" fill="url(#paint0_linear_4385_317455)"/>
<defs>
<linearGradient id="paint0_linear_4385_317455" x1="141.485" y1="308.53" x2="257.279" y2="260.85" gradientUnits="userSpaceOnUse">
<stop stop-color="#2C7C61"/>
<stop offset="1" stop-color="#2C7C61" stop-opacity="0"/>
</linearGradient>
</defs>
</svg>
