<svg width="456" height="790" viewBox="0 0 456 790" fill="none" xmlns="http://www.w3.org/2000/svg">
<path d="M206.797 156.115C203.496 150.2 197.887 142.339 188.402 135.281C162.88 116.291 130.22 118.691 123.26 119.335C123.331 119.507 123.403 119.679 123.474 119.851C129.924 119.109 151.517 117.313 173.689 128.3C194.58 138.652 203.254 154.044 205.867 159.24C206.177 158.199 206.487 157.157 206.797 156.115Z" fill="#8FC25F"/>
<path d="M206.797 156.115C203.496 150.2 197.887 142.339 188.402 135.281C162.88 116.291 130.22 118.691 123.26 119.335C123.331 119.507 123.403 119.679 123.474 119.851C129.924 119.109 151.517 117.313 173.689 128.3C194.58 138.652 203.254 154.044 205.867 159.24C206.177 158.199 206.487 157.157 206.797 156.115Z" fill="url(#paint0_linear_4383_290024)"/>
<path d="M205.368 193.638C207.801 188.654 211.174 183.073 215.908 177.373C230.402 159.92 249.491 151.178 260.553 147.091C260.619 147.138 260.685 147.185 260.75 147.232C249.708 151.577 229.71 161.189 215.845 180.227C211.693 185.928 208.823 191.468 206.81 196.432C206.329 195.501 205.849 194.569 205.368 193.638Z" fill="#8FC25F"/>
<path d="M205.368 193.638C207.801 188.654 211.174 183.073 215.908 177.373C230.402 159.92 249.491 151.178 260.553 147.091C260.619 147.138 260.685 147.185 260.75 147.232C249.708 151.577 229.71 161.189 215.845 180.227C211.693 185.928 208.823 191.468 206.81 196.432C206.329 195.501 205.849 194.569 205.368 193.638Z" fill="url(#paint1_linear_4383_290024)"/>
<path d="M215.087 432.213C210.973 424.842 203.983 415.044 192.163 406.249C160.357 382.583 119.654 385.575 110.98 386.377C111.069 386.591 111.158 386.806 111.247 387.02C119.308 386.178 144.983 384.364 171.409 397.416C199.948 411.511 210.282 433.518 212.878 439.632C213.615 437.159 214.351 434.686 215.087 432.213Z" fill="#8FC25F"/>
<path d="M215.087 432.213C210.973 424.842 203.983 415.044 192.163 406.249C160.357 382.583 119.654 385.575 110.98 386.377C111.069 386.591 111.158 386.806 111.247 387.02C119.308 386.178 144.983 384.364 171.409 397.416C199.948 411.511 210.282 433.518 212.878 439.632C213.615 437.159 214.351 434.686 215.087 432.213Z" fill="url(#paint2_linear_4383_290024)"/>
<path d="M217.446 77.4009C213.667 97.3749 211.497 114.553 210.182 127.684C210.182 127.684 205.934 170.122 207.967 211.22C208.252 216.975 208.468 224.518 209.803 234.503C210.834 242.209 212.144 250.075 213.211 257.978C213.211 257.978 214.51 267.172 216.132 281.748C220.358 319.711 221.695 377.469 221.695 377.469C221.695 446.209 219.826 463.426 221.681 470.487C221.807 470.968 222.378 472.998 221.584 474.517C219.719 478.084 211.175 477.217 209.76 473.234C209.205 471.671 209.861 469.948 210.064 469.389C210.064 469.389 213.201 460.767 213.267 391.678C213.267 391.626 213.505 342.191 208.474 282.818C207.223 268.06 206.233 259.27 206.233 259.269C205.394 251.429 204.313 243.646 203.46 235.606C202.619 227.544 202.328 219.371 202.355 211.319C202.373 205.968 202.607 201.868 202.762 199.162C205.762 146.689 210.816 113.916 210.816 113.916C212.274 104.468 214.396 91.9959 217.446 77.4009Z" fill="#8FC25F"/>
<path d="M217.446 77.4009C213.667 97.3749 211.497 114.553 210.182 127.684C210.182 127.684 205.934 170.122 207.967 211.22C208.252 216.975 208.468 224.518 209.803 234.503C210.834 242.209 212.144 250.075 213.211 257.978C213.211 257.978 214.51 267.172 216.132 281.748C220.358 319.711 221.695 377.469 221.695 377.469C221.695 446.209 219.826 463.426 221.681 470.487C221.807 470.968 222.378 472.998 221.584 474.517C219.719 478.084 211.175 477.217 209.76 473.234C209.205 471.671 209.861 469.948 210.064 469.389C210.064 469.389 213.201 460.767 213.267 391.678C213.267 391.626 213.505 342.191 208.474 282.818C207.223 268.06 206.233 259.27 206.233 259.269C205.394 251.429 204.313 243.646 203.46 235.606C203.204 233.193 203.126 232.073 203.076 231.463C202.768 227.75 202.278 220.676 202.355 211.319C202.355 211.319 202.406 205.377 202.762 199.162C205.762 146.689 210.816 113.916 210.816 113.916C212.274 104.468 214.396 91.9959 217.446 77.4009Z" fill="url(#paint3_linear_4383_290024)"/>
<path d="M217.901 382.905C223.718 376.094 231.213 368.663 240.819 361.463C270.232 339.416 302.872 331.943 321.368 329.096C321.447 329.187 321.527 329.278 321.606 329.369C303.029 332.614 268.641 341.128 239.501 365.765C230.776 373.142 224.059 380.664 218.886 387.571C218.558 386.016 218.229 384.461 217.901 382.905Z" fill="#8FC25F"/>
<path d="M217.901 382.905C223.718 376.094 231.213 368.663 240.819 361.463C270.232 339.416 302.872 331.943 321.368 329.096C321.447 329.187 321.527 329.278 321.606 329.369C303.029 332.614 268.641 341.128 239.501 365.765C230.776 373.142 224.059 380.664 218.886 387.571C218.558 386.016 218.229 384.461 217.901 382.905Z" fill="url(#paint4_linear_4383_290024)"/>
<path d="M217.008 348.359C213.208 340.608 207.944 331.932 200.562 323.072C177.959 295.944 148.233 282.379 131.009 276.043C130.907 276.116 130.805 276.19 130.702 276.263C147.896 283.002 179.04 297.917 200.668 327.514C207.144 336.376 211.626 344.992 214.773 352.712C215.518 351.26 216.263 349.81 217.008 348.359Z" fill="#8FC25F"/>
<path d="M217.008 348.359C213.208 340.608 207.944 331.932 200.562 323.072C177.959 295.944 148.233 282.379 131.009 276.043C130.907 276.116 130.805 276.19 130.702 276.263C147.896 283.002 179.04 297.917 200.668 327.514C207.144 336.376 211.626 344.992 214.773 352.712C215.518 351.26 216.263 349.81 217.008 348.359Z" fill="url(#paint5_linear_4383_290024)"/>
<defs>
<linearGradient id="paint0_linear_4383_290024" x1="243.686" y1="166.669" x2="155.244" y2="127.855" gradientUnits="userSpaceOnUse">
<stop stop-color="#2C7C61"/>
<stop offset="1" stop-color="#2C7C61" stop-opacity="0"/>
</linearGradient>
<linearGradient id="paint1_linear_4383_290024" x1="241.981" y1="207.558" x2="228.962" y2="153.3" gradientUnits="userSpaceOnUse">
<stop stop-color="#2C7C61"/>
<stop offset="1" stop-color="#2C7C61" stop-opacity="0"/>
</linearGradient>
<linearGradient id="paint2_linear_4383_290024" x1="260.914" y1="447.294" x2="150.255" y2="398.729" gradientUnits="userSpaceOnUse">
<stop stop-color="#2C7C61"/>
<stop offset="1" stop-color="#2C7C61" stop-opacity="0"/>
</linearGradient>
<linearGradient id="paint3_linear_4383_290024" x1="141.485" y1="308.53" x2="257.279" y2="260.85" gradientUnits="userSpaceOnUse">
<stop stop-color="#2C7C61"/>
<stop offset="1" stop-color="#2C7C61" stop-opacity="0"/>
</linearGradient>
<linearGradient id="paint4_linear_4383_290024" x1="269.904" y1="418.662" x2="269.683" y2="326.985" gradientUnits="userSpaceOnUse">
<stop stop-color="#2C7C61"/>
<stop offset="1" stop-color="#2C7C61" stop-opacity="0"/>
</linearGradient>
<linearGradient id="paint5_linear_4383_290024" x1="160.105" y1="370.088" x2="180.238" y2="285.613" gradientUnits="userSpaceOnUse">
<stop stop-color="#2C7C61"/>
<stop offset="1" stop-color="#2C7C61" stop-opacity="0"/>
</linearGradient>
</defs>
</svg>
