<svg width="994" height="454" viewBox="0 0 994 454" fill="none" xmlns="http://www.w3.org/2000/svg">
<path d="M801.11 408.56C711.24 408.56 638.38 349.58 638.38 276.83C638.38 204.08 706.03 144.86 801.11 145.1C890.98 145.32 963.84 204.08 963.84 276.83C964.82 357.2 890.98 408.56 801.11 408.56Z" fill="#945159"/>
<path d="M801.97 398.56C886.492 398.56 955.01 344.207 955.01 277.16C955.01 210.113 886.492 155.76 801.97 155.76C717.448 155.76 648.93 210.113 648.93 277.16C648.93 344.207 717.448 398.56 801.97 398.56Z" fill="#C8949A"/>
<path d="M693.26 243.66C693.8 244.72 693.83 244.72 693.32 243.56C692.79 242.15 692.01 240.61 691.23 239.38C688.85 235.72 684.83 235.48 681.94 236.8C680.73 237.34 679.61 238.12 678.56 239.01C677.72 239.17 676.87 239.59 676.06 240.2C673.33 242.3 671.25 245.96 669.9 250.15C666.45 256.9 664.71 267.17 668.16 275.09C674.44 289.43 684.47 281.13 690.47 272.43C694.04 267.22 695.82 259.65 695.77 252.01C695.78 249.17 694.5 245.77 693.26 243.66Z" fill="#BB667B"/>
<path d="M725.36 279.84C725.05 279.66 724.78 279.49 724.47 279.26C720.81 276.9 716.35 282.88 714.79 286.99C714.54 287.56 714.33 288.23 714.07 288.79C712.79 292.23 711.5 296.78 712.77 300.92C714.31 306.09 718.5 305.07 721.01 303.18C724.87 300.14 732.99 284.8 725.36 279.84Z" fill="#BB667B"/>
<path d="M757.33 204.88C752.62 199 748.16 200.79 743.11 203.82C735.68 208.33 728.95 223.77 729.83 236.13C730.09 240 731.13 242.82 732.96 244.88C733.64 249.92 736.63 254.23 740.2 253.81C746.02 253.06 750.56 248.58 754.06 241.92C758.67 233.18 765.52 215.13 757.33 204.88Z" fill="#BB667B"/>
<path d="M852.72 281.54C846.68 275.52 840.74 277.67 834.82 281.71C830.2 284.81 826.2 291.25 823.57 297.59C821.43 302.7 819.17 310.41 819.93 316.99C820.26 319.61 820.59 322.23 821.34 324.77C821.42 324.91 821.49 324.96 821.53 325.1C821.99 329.81 823.35 334.79 825.98 337.84C832.13 344.85 839.85 338.97 844.85 333.6C852.52 325.33 857.66 309.71 856.99 294.99C856.79 290.61 855.35 284.18 852.72 281.54Z" fill="#BB667B"/>
<path d="M887.28 255.94C886.32 255.47 885.35 255.19 884.36 255.06C878.98 250.73 871.81 262.16 870.31 268.31C870.31 268.36 870.31 268.36 870.32 268.41C870.05 269.13 869.73 270.15 869.2 271.79C868 275.43 867.8 279.13 867.88 283.27C868.23 297.32 879.64 292.45 883.8 287.59C887.53 283.21 890.68 276.68 891.46 269.38C892 264.41 891.13 257.74 887.28 255.94Z" fill="#BB667B"/>
<path d="M894.7 307.43C890.43 309.15 887.25 314.23 885.5 320.21C882.65 325.87 880.33 333.63 884.18 338.98C889.14 345.84 897.37 335.98 899.52 329.77C901.1 325.11 902.82 319.74 902.07 314.16C901.26 308.37 898.39 305.94 894.7 307.43Z" fill="#BB667B"/>
<path d="M932.55 241.7C928 235.41 921.17 237.88 916.65 241.42C907.38 248.52 897.16 267.56 901.64 285.04C901.78 285.58 901.92 286.17 902.06 286.7C904.99 298.06 914.77 295.46 919.88 291.53C927.1 285.94 934.54 273.79 935.41 260.8C935.46 260.1 935.5 259.4 935.54 258.69C935.93 252.77 935.89 246.28 932.55 241.7Z" fill="#BB667B"/>
<path d="M768.41 305.25C763.22 307.34 757.61 313.81 754.48 321.79C753.56 323.85 752.77 326.06 752.16 328.4C750.92 333.14 750.19 339.13 751.73 344.26C753.8 351.14 758.78 351.91 762.83 350.45C772.41 346.97 780.94 331.55 780.18 316.08C779.73 306.48 773.69 303.1 768.41 305.25Z" fill="#BB667B"/>
<path d="M796.69 241.7C792.68 234.72 782.85 252.09 787.7 256.76C789.01 258.01 788.97 257.41 789.31 259.33C789.94 262.78 793.24 261.73 794.51 260.78C797.17 258.68 799.12 254.54 799.12 249.84C799.08 246.41 798.17 244.33 796.69 241.7Z" fill="#BB667B"/>
<path d="M816.19 348.31C816.2 348.06 816.12 347.87 816.11 347.67C816.04 347.17 815.94 346.73 815.87 346.29C815.76 345.7 815.65 345.16 815.48 344.67C815.4 344.48 815.29 344.34 815.22 344.19C814.98 343.66 814.74 343.08 814.41 342.65C814.37 342.6 814.3 342.56 814.23 342.52C813.25 341.3 812 340.4 810.75 339.44C806.89 336.64 801.86 342.42 799.65 346.13C797.55 349.59 793.89 358.35 796.33 363.6C797.91 367.12 799.39 371.35 802.72 370.85C807.62 370.13 811.52 365.79 814.07 359.65C815.29 356.72 816.33 352.24 816.12 348.32C816.16 348.32 816.16 348.32 816.19 348.31Z" fill="#BB667B"/>
<path d="M702.05 313.12C697.53 316.61 692.79 325.01 693.44 333.54L693.59 335.53C694.24 344.02 700.03 344.27 703.87 341.28C708.43 337.79 713.16 329.34 712.52 320.86L712.37 318.92C711.71 310.38 705.92 310.13 702.05 313.12Z" fill="#BB667B"/>
<path d="M881.18 203.95C877.09 195.88 868.16 198.4 863.63 202.3C858.79 206.41 854.83 212.5 852.75 220.45C852.32 222.13 851.95 224.15 851.75 226.27C850.42 232.86 851.13 242.24 856.2 244.95C859.96 246.96 864.37 244.97 867.85 243.26C876.91 238.66 889.13 219.51 881.18 203.95Z" fill="#BB667B"/>
<path d="M821.86 195.36C821.77 195.12 821.66 194.93 821.55 194.68C821.4 194.4 821.3 194.05 821.12 193.77C821.12 193.82 821.09 193.82 821.06 193.87C820.09 192.4 818.74 191.41 816.77 191.41C810.8 191.42 805.03 199.24 802.82 207.25C802.79 207.3 802.8 207.35 802.74 207.46C800.52 212.72 798.31 222.47 802.28 228.01C807.31 234.96 815.26 227.07 818.42 221.54C822.31 214.64 826.03 204.07 821.86 195.36Z" fill="#BB667B"/>
<path d="M163.11 408.56C73.24 408.56 0.380005 349.58 0.380005 276.83C0.380005 204.08 68.03 144.86 163.11 145.1C252.98 145.32 325.84 204.08 325.84 276.83C326.82 357.2 252.98 408.56 163.11 408.56Z" fill="#945159"/>
<path d="M163.97 398.56C248.492 398.56 317.01 344.207 317.01 277.16C317.01 210.113 248.492 155.76 163.97 155.76C79.4483 155.76 10.93 210.113 10.93 277.16C10.93 344.207 79.4483 398.56 163.97 398.56Z" fill="#C7A393"/>
<path opacity="0.7608" d="M266.78 266.6C266.53 262.33 264.73 257.99 262.94 253.97C261.15 249.94 253.29 244.23 248.49 242.38C231.56 235.88 216.94 238.37 198.41 239.04C185.41 239.51 172.17 239.59 159.18 240.05C146.89 240.49 133.61 241.23 124.23 247.61C114.34 254.34 109.42 263.66 110.76 277.53C112.67 297.23 123.93 299.12 138.09 301.48C142.88 302.28 149.98 300.76 154.87 300.78C160.55 300.81 167.21 300.06 172.87 299.64C177.86 299.27 184.73 299.59 189.73 299.83C204.91 300.56 214.79 301.43 227.85 301.56C240.9 301.68 252.88 296.71 258.96 291.96C262.81 288.95 265.23 283.63 265.97 279.35C266.71 275.06 267.04 270.91 266.78 266.6ZM261.84 272.57C261.47 277.1 260.04 283.1 256.86 286.85C252.35 292.17 243.53 295.51 234.57 297C225.61 298.48 216.38 297.41 207.24 297.04C197.33 296.63 189.53 295.78 180.39 296.1C172.04 296.4 138.54 298.33 130.86 295.66C123.19 293 117.11 286.89 115.96 281.42C114.29 273.53 113.83 266.52 118.43 259.43C130.51 240.8 155.72 243.43 171.56 242.88C181.52 242.53 191 242.78 200.96 242.44C209.28 242.15 218.06 242.11 226.39 242.27C234.72 242.43 243.14 244.1 249.89 248.02C260.3 254.07 262.58 263.45 261.84 272.57Z" fill="#A49356"/>
<path d="M138.77 244.15C142.83 243.24 144.28 243.42 149.72 242.87C180.15 239.79 194.96 241.32 198.97 241.32C215.45 241.32 222.48 240.25 232.32 240.8C236.04 241.01 239.58 242.13 242.59 242.97C246.76 244.13 250.24 245.83 253.44 248.27C254.91 249.39 260.81 253.72 262.52 261.79C264.83 272.66 261.44 286.87 252.38 292.39C246.38 296.05 237.53 298.18 230.03 298.74C221.5 299.37 215 298.29 207.45 297.8C174.06 295.62 162.19 298.78 136.08 297.81C131.26 297.63 125.62 295.39 121.99 292.84C118.17 290.15 116.21 286.14 115.09 282.16C112.75 273.85 113.7 264.13 118.74 256.63C123.8 249.14 131.07 245.88 138.77 244.15Z" fill="#9AC6D2"/>
<path d="M107.88 275.39C107.88 275.39 104.77 274 103.17 272.95C101.57 271.9 99.92 270.73 97.79 270.46C92.89 269.82 90.42 272.98 85.44 273.13C81.66 273.25 77.4 272.15 74.72 270.22C72.04 268.3 68.58 266.65 65.08 267.69C61.89 268.64 60.53 271.2 58.84 273.36C56.13 276.83 50.74 279.12 45.22 279.18C39.69 279.23 26.24 272.17 31.39 273.63C37.12 275.25 42.91 278.79 48.97 277.62C52.91 276.86 55.33 274.09 57.48 271.59C59.63 269.09 62.39 266.41 66.44 266.02C70.09 265.67 73.45 267.32 76.51 268.8C79.57 270.28 83.24 271.71 86.75 270.91C88.75 270.45 90.33 269.33 92.27 268.77C94.89 268.01 97.92 268.35 100.47 269.22C103.02 270.09 105.82 270.75 107.94 272.09C107.69 270.64 109.39 270.02 111.28 270.54C112.17 270.79 114.33 272.96 113.83 274.53C113.27 276.28 111.97 277.24 109.24 277.14C108.16 277.09 107.88 275.39 107.88 275.39Z" fill="#4D4949"/>
</svg>
