<svg width="994" height="454" viewBox="0 0 994 454" fill="none" xmlns="http://www.w3.org/2000/svg">
<path d="M486.28 145.09C452.11 145.01 421.03 151.59 394.41 163.23C407.1 163.47 420.04 164.91 432.73 164.99C457.01 165.14 481.11 164.1 505.24 167.08C550.22 172.63 595.83 186.8 625.16 223.61C639.76 241.93 650.08 262.29 653.22 285.68C656.31 308.68 651.66 332.54 638.89 352.16C636.96 355.12 634.91 357.94 632.78 360.63C623.89 377.77 610.2 392.46 594.07 404.13C580.71 413.79 564.46 420.19 548.72 424.76C534.94 428.76 520.74 430.97 506.52 432.77C491.31 435.79 474.82 435.28 462.06 426.55C457.32 426.15 452.86 424.84 448.88 422.68C430.43 424.77 411.97 426.8 393.53 428.95C420.89 441.57 364.91 457.84 486.28 448.79C589.59 441.08 674.98 389.58 673.86 296.94C673.86 213.08 589.88 145.34 486.28 145.09Z" fill="#945159"/>
<path d="M374.41 145.09C406.27 145.44 439.87 145.64 471.73 145.99C468.92 151.41 463.22 154.88 457.3 156.35C451.38 157.82 445.17 157.57 439.08 157.19C417.5 155.87 396.02 153.26 374.56 150.65C374 148.91 373 146.99 374.41 145.09Z" fill="#945159"/>
<path d="M487.27 437.26C287.57 454.42 310.86 374.61 310.86 297.32C310.86 220.03 389.84 157.38 487.27 157.38C584.7 157.38 663.68 220.03 663.68 297.32C663.68 374.61 587.28 428.66 487.27 437.26Z" fill="#C8949A"/>
<path d="M444.25 436.05C434.3 438.77 423.97 436.47 415.79 430.93C398.96 436.26 381.4 439.13 363.59 439.04C318.07 438.83 272.2 419.98 241.37 386.14C224.44 367.56 210.91 346.23 207.51 320.93C205.79 308.16 206.73 294.47 210.74 281.9C211.6 265.06 216.61 248.53 223.89 233.41C233.18 214.12 248.71 198.49 266.65 187.1C285.24 175.31 306.23 169.48 327.86 166.92C330.46 166.61 333.08 166.4 335.71 166.26C355.47 158.57 378.74 159.41 399.59 165.96C414.95 161.79 430.79 160.1 446.82 160.72C449.63 160.05 452.46 159.49 455.32 159.04C431.26 150.15 404.53 145.16 376.36 145.09C264.93 144.82 185.64 214.21 185.64 299.48C185.64 384.75 271.08 457.06 376.36 453.87C497.34 450.2 440.5 447.95 467.68 436.94C459.89 437.18 452.06 436.89 444.25 436.05Z" fill="#945159"/>
<path d="M377.39 442.16C278.42 437.87 198.02 378.46 198.02 299.88C198.02 221.3 275.12 157.6 377.39 157.6C405.19 157.6 433.75 156.49 453.95 156.49C592.36 156.49 556.76 231.12 556.76 299.88C556.76 378.45 570.37 450.51 377.39 442.16Z" fill="#C8949A"/>
<g opacity="0.4">
<path opacity="0.7608" d="M497.89 287.5C497.6 282.49 495.49 277.41 493.39 272.69C491.29 267.97 482.08 261.27 476.45 259.11C456.6 251.5 439.47 254.41 417.76 255.19C402.53 255.74 387.01 255.83 371.78 256.37C357.38 256.89 341.81 257.75 330.82 265.23C319.23 273.11 313.46 284.04 315.03 300.29C317.27 323.38 330.47 325.6 347.06 328.36C352.67 329.29 360.99 327.51 366.73 327.54C373.39 327.57 381.2 326.69 387.83 326.21C393.68 325.78 401.73 326.15 407.59 326.43C425.38 327.29 436.97 328.31 452.26 328.45C467.56 328.59 481.59 322.77 488.72 317.2C493.24 313.67 496.07 307.44 496.94 302.43C497.8 297.42 498.18 292.55 497.89 287.5ZM492.1 294.5C491.67 299.81 489.99 306.84 486.26 311.24C480.97 317.48 470.63 321.39 460.13 323.13C449.63 324.87 438.81 323.61 428.1 323.17C416.49 322.69 407.35 321.69 396.63 322.07C386.84 322.42 347.58 324.68 338.58 321.56C329.59 318.44 322.47 311.28 321.11 304.87C319.15 295.63 318.61 287.41 324 279.09C338.16 257.25 367.7 260.34 386.27 259.7C397.94 259.29 409.06 259.59 420.73 259.18C430.49 258.84 440.77 258.79 450.53 258.98C460.29 259.17 470.16 261.12 478.07 265.71C490.29 272.82 492.97 283.81 492.1 294.5Z" fill="#A49356"/>
<path d="M347.85 261.19C352.61 260.12 354.3 260.33 360.68 259.68C396.35 256.07 413.7 257.87 418.41 257.87C437.72 257.87 445.96 256.61 457.5 257.26C461.86 257.5 466 258.82 469.54 259.81C474.42 261.17 478.51 263.16 482.26 266.02C483.98 267.34 490.9 272.41 492.91 281.87C495.62 294.61 491.64 311.26 481.03 317.73C473.99 322.02 463.63 324.52 454.83 325.17C444.83 325.91 437.21 324.65 428.37 324.07C389.24 321.51 375.33 325.21 344.72 324.08C339.07 323.87 332.46 321.25 328.21 318.26C323.73 315.11 321.44 310.41 320.13 305.74C317.38 296 318.5 284.61 324.41 275.82C330.32 267.03 338.83 263.21 347.85 261.19Z" fill="#9AC6D2"/>
<path d="M311.65 297.8C311.65 297.8 308 296.17 306.13 294.94C304.26 293.71 302.32 292.34 299.83 292.02C294.08 291.27 291.19 294.97 285.36 295.15C280.93 295.29 275.94 294 272.8 291.74C269.66 289.48 265.6 287.56 261.51 288.77C257.77 289.88 256.18 292.88 254.2 295.42C251.02 299.48 244.71 302.17 238.24 302.24C231.77 302.31 216 294.03 222.03 295.73C228.75 297.63 235.53 301.78 242.63 300.41C247.25 299.51 250.09 296.27 252.61 293.34C255.13 290.41 258.36 287.27 263.11 286.81C267.39 286.4 271.33 288.33 274.91 290.06C278.49 291.79 282.8 293.47 286.91 292.54C289.25 292.01 291.1 290.69 293.38 290.03C296.45 289.14 300 289.54 302.99 290.56C305.98 291.58 309.26 292.35 311.75 293.92C311.45 292.22 313.45 291.49 315.66 292.11C316.71 292.4 319.23 294.95 318.65 296.78C318 298.83 316.47 299.95 313.27 299.84C311.98 299.79 311.65 297.8 311.65 297.8Z" fill="#4D4949"/>
</g>
<path d="M366.96 342.57C367.58 343.79 367.62 343.79 367.02 342.45C366.41 340.83 365.51 339.05 364.61 337.63C361.87 333.41 357.23 333.13 353.91 334.65C352.52 335.27 351.23 336.17 350.02 337.19C349.05 337.38 348.07 337.86 347.14 338.56C344 340.99 341.59 345.2 340.04 350.03C336.06 357.82 334.05 369.65 338.04 378.78C345.28 395.31 356.84 385.74 363.75 375.72C367.86 369.71 369.92 360.99 369.86 352.18C369.87 348.91 368.4 344.99 366.96 342.57Z" fill="#BB667B"/>
<path d="M306.391 216.92C306.041 216.72 305.721 216.51 305.361 216.25C301.141 213.53 296.001 220.42 294.201 225.16C293.911 225.82 293.671 226.59 293.381 227.24C291.911 231.21 290.421 236.44 291.881 241.22C293.661 247.18 298.481 246.01 301.381 243.83C305.831 240.32 315.181 222.63 306.391 216.92Z" fill="#BB667B"/>
<path d="M377.06 196.85C371.63 190.07 366.49 192.13 360.67 195.63C352.11 200.83 344.35 218.62 345.37 232.87C345.67 237.33 346.87 240.58 348.98 242.95C349.76 248.76 353.21 253.73 357.33 253.24C364.03 252.38 369.27 247.21 373.3 239.54C378.6 229.46 386.51 208.66 377.06 196.85Z" fill="#BB667B"/>
<path d="M475.68 221.13C468.72 214.19 461.87 216.67 455.04 221.33C449.72 224.9 445.1 232.33 442.07 239.63C439.61 245.51 436.99 254.4 437.88 261.99C438.26 265.01 438.64 268.03 439.51 270.96C439.6 271.12 439.68 271.18 439.73 271.34C440.26 276.77 441.83 282.51 444.86 286.02C451.95 294.1 460.85 287.33 466.61 281.14C475.45 271.6 481.37 253.6 480.6 236.64C480.37 231.58 478.71 224.18 475.68 221.13Z" fill="#BB667B"/>
<path d="M584.61 224.93C583.51 224.38 582.39 224.06 581.24 223.92C575.03 218.93 566.781 232.11 565.051 239.2C565.051 239.26 565.051 239.26 565.061 239.32C564.741 240.15 564.38 241.33 563.77 243.21C562.39 247.4 562.15 251.68 562.25 256.45C562.66 272.64 575.8 267.03 580.6 261.43C584.9 256.38 588.531 248.86 589.431 240.44C590.051 234.7 589.04 227.01 584.61 224.93Z" fill="#BB667B"/>
<path d="M552.16 280.26C547.24 282.24 543.57 288.1 541.56 294.99C538.28 301.51 535.6 310.46 540.04 316.62C545.75 324.53 555.24 313.16 557.72 306.01C559.54 300.63 561.52 294.44 560.65 288.01C559.73 281.35 556.41 278.55 552.16 280.26Z" fill="#BB667B"/>
<path d="M554.32 340.48C549.08 333.23 541.2 336.07 535.99 340.15C525.31 348.33 513.52 370.29 518.69 390.43C518.85 391.05 519.021 391.73 519.181 392.35C522.561 405.44 533.83 402.45 539.72 397.91C548.04 391.47 556.61 377.46 557.62 362.49C557.67 361.68 557.72 360.87 557.78 360.06C558.21 353.24 558.16 345.76 554.32 340.48Z" fill="#BB667B"/>
<path d="M294.56 292.03C288.58 294.44 282.12 301.9 278.5 311.1C277.43 313.48 276.53 316.02 275.83 318.72C274.4 324.18 273.56 331.09 275.34 337C277.72 344.93 283.46 345.82 288.14 344.13C299.18 340.12 309.02 322.34 308.14 304.52C307.61 293.45 300.65 289.55 294.56 292.03Z" fill="#BB667B"/>
<path d="M426.19 251.47C421.57 243.42 410.24 263.45 415.83 268.83C417.34 270.27 417.29 269.58 417.68 271.79C418.4 275.76 422.21 274.55 423.67 273.46C426.74 271.04 428.98 266.26 428.98 260.85C428.94 256.89 427.89 254.5 426.19 251.47Z" fill="#BB667B"/>
<path d="M449.61 315.9C449.63 315.61 449.53 315.39 449.51 315.16C449.43 314.59 449.31 314.08 449.24 313.57C449.11 312.88 448.99 312.26 448.8 311.7C448.71 311.48 448.58 311.32 448.49 311.15C448.21 310.53 447.93 309.87 447.56 309.38C447.52 309.32 447.44 309.28 447.36 309.22C446.23 307.81 444.79 306.77 443.34 305.67C438.9 302.45 433.09 309.1 430.54 313.38C428.12 317.36 423.9 327.47 426.71 333.52C428.53 337.58 430.23 342.46 434.08 341.88C439.73 341.05 444.23 336.04 447.16 328.97C448.57 325.59 449.76 320.43 449.53 315.91C449.58 315.91 449.58 315.91 449.61 315.9Z" fill="#BB667B"/>
<path d="M407.221 362.77C402.011 366.79 396.541 376.48 397.301 386.31L397.471 388.6C398.221 398.38 404.901 398.68 409.321 395.23C414.571 391.21 420.031 381.47 419.291 371.69L419.121 369.46C418.361 359.62 411.681 359.32 407.221 362.77Z" fill="#BB667B"/>
<path d="M507.77 297.03C503.05 287.72 492.76 290.64 487.54 295.12C481.97 299.86 477.4 306.88 475 316.04C474.51 317.98 474.08 320.31 473.85 322.74C472.31 330.34 473.14 341.15 478.98 344.27C483.32 346.58 488.4 344.3 492.41 342.32C502.85 337.04 516.93 314.97 507.77 297.03Z" fill="#BB667B"/>
<path d="M517.051 235.16C516.951 234.88 516.82 234.66 516.69 234.38C516.51 234.05 516.41 233.65 516.19 233.33C516.19 233.39 516.161 233.39 516.131 233.45C515.021 231.76 513.451 230.61 511.181 230.61C504.301 230.62 497.65 239.64 495.1 248.86C495.07 248.92 495.071 248.98 495.011 249.1C492.451 255.16 489.9 266.4 494.48 272.79C500.27 280.8 509.45 271.7 513.08 265.33C517.57 257.39 521.861 245.21 517.051 235.16Z" fill="#BB667B"/>
</svg>
