<svg width="994" height="454" viewBox="0 0 994 454" fill="none" xmlns="http://www.w3.org/2000/svg">
<path d="M486.28 145.09C452.11 145.01 421.03 151.59 394.41 163.23C407.1 163.47 420.04 164.91 432.73 164.99C457.01 165.14 481.11 164.1 505.24 167.08C550.22 172.63 595.83 186.8 625.16 223.61C639.76 241.93 650.08 262.29 653.22 285.68C656.31 308.68 651.66 332.54 638.89 352.16C636.96 355.12 634.91 357.94 632.78 360.63C623.89 377.77 610.2 392.46 594.07 404.13C580.71 413.79 564.46 420.19 548.72 424.76C534.94 428.76 520.74 430.97 506.52 432.77C491.31 435.79 474.82 435.28 462.06 426.55C457.32 426.15 452.86 424.84 448.88 422.68C430.43 424.77 411.97 426.8 393.53 428.95C420.89 441.57 364.91 457.84 486.28 448.79C589.59 441.08 674.98 389.58 673.86 296.94C673.86 213.08 589.88 145.34 486.28 145.09Z" fill="#945159"/>
<path d="M374.41 145.09C406.27 145.44 439.87 145.64 471.73 145.99C468.92 151.41 463.22 154.88 457.3 156.35C451.38 157.82 445.17 157.57 439.08 157.19C417.5 155.87 396.02 153.26 374.56 150.65C374 148.91 373 146.99 374.41 145.09Z" fill="#945159"/>
<path d="M487.27 437.26C287.57 454.42 310.86 374.61 310.86 297.32C310.86 220.03 389.84 157.38 487.27 157.38C584.7 157.38 663.68 220.03 663.68 297.32C663.68 374.61 587.28 428.66 487.27 437.26Z" fill="#C8949A"/>
<path d="M444.25 436.05C434.3 438.77 423.97 436.47 415.79 430.93C398.96 436.26 381.4 439.13 363.59 439.04C318.07 438.83 272.2 419.98 241.37 386.14C224.44 367.56 210.91 346.23 207.51 320.93C205.79 308.16 206.73 294.47 210.74 281.9C211.6 265.06 216.61 248.53 223.89 233.41C233.18 214.12 248.71 198.49 266.65 187.1C285.24 175.31 306.23 169.48 327.86 166.92C330.46 166.61 333.08 166.4 335.71 166.26C355.47 158.57 378.74 159.41 399.59 165.96C414.95 161.79 430.79 160.1 446.82 160.72C449.63 160.05 452.46 159.49 455.32 159.04C431.26 150.15 404.53 145.16 376.36 145.09C264.93 144.82 185.64 214.21 185.64 299.48C185.64 384.75 271.08 457.06 376.36 453.87C497.34 450.2 440.5 447.95 467.68 436.94C459.89 437.18 452.06 436.89 444.25 436.05Z" fill="#945159"/>
<path d="M377.39 442.16C278.42 437.87 198.02 378.46 198.02 299.88C198.02 221.3 275.12 157.6 377.39 157.6C405.19 157.6 433.75 156.49 453.95 156.49C592.36 156.49 556.76 231.12 556.76 299.88C556.76 378.45 570.37 450.51 377.39 442.16Z" fill="#C8949A"/>
<path d="M287.96 313.58C288.58 314.8 288.62 314.8 288.02 313.46C287.41 311.84 286.51 310.06 285.61 308.64C282.87 304.42 278.23 304.14 274.91 305.66C273.52 306.28 272.23 307.18 271.02 308.2C270.05 308.39 269.07 308.87 268.14 309.57C265 312 262.59 316.21 261.04 321.04C257.06 328.83 255.05 340.66 259.04 349.79C266.28 366.32 277.84 356.75 284.75 346.73C288.86 340.72 290.92 332 290.86 323.19C290.87 319.93 289.4 316.01 287.96 313.58Z" fill="#BB667B"/>
<path d="M315.76 248.36C315.41 248.16 315.09 247.95 314.73 247.69C310.51 244.97 305.37 251.86 303.57 256.6C303.28 257.26 303.04 258.03 302.75 258.68C301.28 262.65 299.79 267.88 301.25 272.66C303.03 278.62 307.85 277.45 310.75 275.27C315.21 271.76 324.56 254.07 315.76 248.36Z" fill="#BB667B"/>
<path d="M420.92 189.96C415.49 183.18 410.35 185.24 404.53 188.74C395.97 193.94 388.21 211.73 389.23 225.98C389.53 230.44 390.73 233.69 392.84 236.06C393.62 241.87 397.07 246.84 401.19 246.35C407.89 245.49 413.13 240.32 417.16 232.65C422.46 222.57 430.37 201.78 420.92 189.96Z" fill="#BB667B"/>
<path d="M481.68 267.39C474.72 260.45 467.87 262.93 461.04 267.59C455.72 271.16 451.1 278.59 448.07 285.89C445.61 291.77 442.99 300.66 443.88 308.25C444.26 311.27 444.64 314.29 445.51 317.22C445.6 317.38 445.68 317.44 445.73 317.6C446.26 323.03 447.83 328.77 450.86 332.28C457.95 340.36 466.85 333.59 472.61 327.4C481.45 317.86 487.37 299.86 486.6 282.9C486.37 277.85 484.71 270.44 481.68 267.39Z" fill="#BB667B"/>
<path d="M584.61 224.93C583.51 224.38 582.39 224.06 581.24 223.92C575.03 218.93 566.78 232.11 565.05 239.2C565.05 239.26 565.05 239.26 565.06 239.32C564.74 240.15 564.38 241.33 563.77 243.21C562.39 247.4 562.15 251.68 562.25 256.45C562.66 272.64 575.8 267.03 580.6 261.43C584.9 256.38 588.53 248.86 589.43 240.44C590.05 234.7 589.04 227.01 584.61 224.93Z" fill="#BB667B"/>
<path d="M539.16 327.23C534.24 329.21 530.57 335.07 528.56 341.96C525.28 348.48 522.6 357.43 527.04 363.59C532.75 371.5 542.24 360.13 544.72 352.98C546.54 347.6 548.52 341.41 547.65 334.98C546.73 328.32 543.41 325.52 539.16 327.23Z" fill="#BB667B"/>
<path d="M612.79 281.63C607.55 274.38 599.67 277.22 594.46 281.3C583.78 289.48 571.99 311.44 577.16 331.58C577.32 332.2 577.49 332.88 577.65 333.5C581.03 346.59 592.3 343.6 598.19 339.06C606.51 332.62 615.08 318.61 616.09 303.64C616.14 302.83 616.19 302.02 616.25 301.21C616.68 294.4 616.64 286.92 612.79 281.63Z" fill="#BB667B"/>
<path d="M383.59 265.27C377.61 267.68 371.15 275.14 367.53 284.34C366.46 286.72 365.56 289.26 364.86 291.96C363.43 297.42 362.59 304.33 364.37 310.24C366.75 318.17 372.49 319.06 377.17 317.37C388.21 313.36 398.05 295.58 397.17 277.76C396.63 266.68 389.68 262.79 383.59 265.27Z" fill="#BB667B"/>
<path d="M426.19 251.47C421.57 243.42 410.24 263.45 415.83 268.83C417.34 270.27 417.29 269.58 417.68 271.79C418.4 275.76 422.21 274.55 423.67 273.46C426.74 271.04 428.98 266.26 428.98 260.85C428.94 256.89 427.89 254.5 426.19 251.47Z" fill="#BB667B"/>
<path d="M426.22 342.87C426.24 342.58 426.14 342.36 426.12 342.13C426.04 341.56 425.92 341.05 425.85 340.54C425.72 339.85 425.6 339.23 425.41 338.67C425.32 338.45 425.19 338.29 425.1 338.12C424.82 337.5 424.54 336.84 424.17 336.35C424.13 336.29 424.05 336.25 423.97 336.19C422.84 334.78 421.4 333.74 419.95 332.64C415.51 329.42 409.7 336.07 407.15 340.35C404.73 344.33 400.51 354.44 403.32 360.49C405.14 364.55 406.84 369.43 410.69 368.85C416.34 368.02 420.84 363.01 423.77 355.94C425.18 352.56 426.37 347.4 426.14 342.88C426.18 342.87 426.18 342.87 426.22 342.87Z" fill="#BB667B"/>
<path d="M351.23 350.04C346.02 354.06 340.55 363.75 341.31 373.58L341.49 375.87C342.24 385.65 348.92 385.95 353.34 382.5C358.59 378.48 364.05 368.74 363.31 358.96L363.14 356.73C362.37 346.89 355.69 346.6 351.23 350.04Z" fill="#BB667B"/>
<path d="M544.9 256.13C540.18 246.82 529.89 249.74 524.67 254.22C519.1 258.96 514.53 265.98 512.13 275.14C511.64 277.08 511.21 279.41 510.98 281.84C509.44 289.44 510.27 300.25 516.11 303.37C520.45 305.68 525.53 303.4 529.54 301.42C539.98 296.14 554.07 274.07 544.9 256.13Z" fill="#BB667B"/>
<path d="M509.48 190.05C509.38 189.77 509.25 189.55 509.12 189.27C508.94 188.94 508.84 188.54 508.62 188.22C508.62 188.28 508.59 188.28 508.56 188.34C507.45 186.65 505.88 185.5 503.61 185.5C496.73 185.51 490.08 194.53 487.53 203.75C487.5 203.81 487.5 203.87 487.44 203.99C484.88 210.05 482.33 221.29 486.91 227.68C492.7 235.69 501.88 226.59 505.51 220.22C510 212.27 514.29 200.09 509.48 190.05Z" fill="#BB667B"/>
</svg>
