<svg width="994" height="454" viewBox="0 0 994 454" fill="none" xmlns="http://www.w3.org/2000/svg">
<path d="M866.03 3.50999C847.46 7.97999 831.56 16.17 818.85 26.88C825.78 25.35 833.03 24.52 839.94 22.89C853.15 19.77 866.09 15.94 879.65 14.58C904.92 12.06 931.84 14.78 953.32 33.65C964.01 43.04 972.69 54.26 977.92 68.31C983.06 82.12 984.13 97.48 980.15 111.3C979.55 113.39 978.86 115.4 978.1 117.35C975.85 129.12 970.63 140.02 963.62 149.37C957.82 157.11 949.96 163.22 942.09 168.13C935.21 172.42 927.82 175.67 920.37 178.67C912.56 182.55 903.53 184.42 895.28 180.71C892.65 181.09 890.02 180.87 887.53 180.06C877.82 183.79 868.1 187.5 858.4 191.26C875.16 195.44 847.21 212.91 911.78 191.24C966.75 172.8 1005.38 129.66 990.81 72.54C978.18 20.7 922.35 -10.05 866.03 3.50999Z" fill="#945159"/>
<path d="M805.25 18.32C822.61 14.32 840.9 9.98999 858.26 5.98999C857.55 9.70999 854.98 12.61 851.98 14.31C848.98 16.01 845.57 16.67 842.21 17.24C830.29 19.28 818.22 20.51 806.17 21.74C805.61 20.74 804.78 19.68 805.25 18.32Z" fill="#945159"/>
<path d="M910.58 183.99C804.67 221.04 805.3 168.62 793.66 120.84C782.02 73.06 815.49 23.88 868.42 10.98C921.35 -1.92002 973.7 26.35 985.34 74.13C996.98 121.91 963.62 165.43 910.58 183.99Z" fill="#C8949A"/>
<path d="M887.03 188.93C882.03 191.93 876.07 191.87 870.8 189.53C862.46 195.05 853.35 199.15 843.66 201.46C818.9 207.36 791.14 201.78 769.29 184.94C757.29 175.7 746.73 164.3 741.07 149.11C738.21 141.44 736.66 132.86 736.95 124.55C734.88 114.03 735.11 103.15 736.79 92.83C738.93 79.68 745.01 67.96 753.04 58.54C761.36 48.79 771.89 42.41 783.26 37.96C784.63 37.42 786.02 36.95 787.43 36.51C797.01 29.14 809.78 26.58 822.09 27.87C829.81 23.26 838.16 20.12 846.96 18.38C848.38 17.59 849.84 16.87 851.33 16.22C836.92 13.91 821.64 14.36 806.33 18.05C745.75 32.63 713.13 86.03 725.97 138.74C738.81 191.45 796.13 224.84 852.85 208.93C918.02 190.65 886.8 196.78 899.91 186.37C895.7 187.57 891.4 188.42 887.03 188.93Z" fill="#945159"/>
<path d="M851.62 201.56C797.21 212.01 744.57 185.93 732.74 137.35C720.91 88.77 753.19 39.19 808.75 25.65C823.85 21.97 839.2 17.5 850.18 14.83C925.38 -3.49003 917.28 47.36 927.64 89.86C939.48 138.43 957.73 181.18 851.62 201.56Z" fill="#C8949A"/>
<path d="M782.78 87.76C783.67 88.8 783.71 88.79 782.82 87.63C781.84 86.2 780.55 84.69 779.34 83.51C775.68 80.06 771.11 80.89 768.24 83.15C767.04 84.09 765.99 85.27 765.06 86.54C764.16 86.95 763.32 87.65 762.58 88.55C760.1 91.65 758.76 96.31 758.39 101.38C756.37 109.89 757.22 121.85 763.25 129.78C774.2 144.13 783.16 132.09 787.51 120.72C790.09 113.91 790.02 104.94 787.87 96.41C787.1 93.24 784.74 89.78 782.78 87.76Z" fill="#BA7766"/>
<path d="M790.53 154.89C790.14 154.78 789.78 154.65 789.37 154.48C784.63 152.83 781.26 160.75 780.64 165.77C780.51 166.48 780.46 167.28 780.33 167.98C779.84 172.18 779.63 177.62 782.18 181.92C785.32 187.29 789.73 185.01 792.03 182.2C795.53 177.75 800.43 158.35 790.53 154.89Z" fill="#BA7766"/>
<path d="M915.22 51.53C914.02 51.26 912.85 51.21 911.71 51.35C904.5 47.97 899.6 62.73 899.6 70.02C899.62 70.08 899.62 70.08 899.64 70.13C899.53 71.01 899.46 72.24 899.3 74.22C898.95 78.62 899.73 82.83 900.96 87.44C905.19 103.08 916.63 94.51 919.96 87.94C922.95 82.02 924.69 73.85 923.57 65.46C922.81 59.73 920.01 52.5 915.22 51.53Z" fill="#BA7766"/>
<path d="M926.489 122.39C922.179 125.48 919.999 132.04 919.679 139.21C918.039 146.32 917.549 155.65 923.319 160.59C930.739 166.92 937.269 153.63 937.989 146.09C938.489 140.44 938.949 133.95 936.579 127.91C934.099 121.66 930.219 119.72 926.489 122.39Z" fill="#BA7766"/>
<path d="M818.87 71.89C812.47 65.17 806.21 87.3 812.91 91.21C814.72 92.25 814.51 91.6 815.41 93.65C817.05 97.34 820.46 95.26 821.63 93.86C824.04 90.78 825.09 85.61 823.81 80.35C822.84 76.51 821.25 74.43 818.87 71.89Z" fill="#BA7766"/>
<path d="M878.449 99.15C878.399 98.86 878.249 98.67 878.179 98.45C877.959 97.91 877.729 97.45 877.539 96.97C877.259 96.33 876.989 95.76 876.669 95.26C876.529 95.07 876.369 94.94 876.239 94.8C875.829 94.27 875.399 93.68 874.919 93.3C874.869 93.26 874.779 93.23 874.689 93.2C873.259 92.1 871.609 91.43 869.949 90.7C864.869 88.62 860.799 96.46 859.339 101.22C857.929 105.66 856.229 116.48 860.389 121.69C863.119 125.2 865.929 129.54 869.529 128.06C874.819 125.91 878.009 119.99 879.179 112.42C879.749 108.8 879.679 103.51 878.389 99.17C878.409 99.16 878.409 99.16 878.449 99.15Z" fill="#BA7766"/>
<path d="M835.56 133.09C831.45 138.23 828.43 148.93 831.49 158.31L832.199 160.49C835.239 169.82 841.8 168.52 845.28 164.12C849.43 158.97 852.43 148.21 849.39 138.89L848.699 136.76C845.639 127.39 839.08 128.68 835.56 133.09Z" fill="#BA7766"/>
<path d="M862.6 35.91C862.44 35.66 862.26 35.48 862.06 35.24C861.81 34.96 861.61 34.6 861.33 34.34C861.35 34.4 861.31 34.41 861.29 34.47C859.81 33.09 858.02 32.34 855.81 32.88C849.13 34.52 844.8 44.86 844.51 54.42C844.5 54.49 844.51 54.54 844.47 54.67C843.42 61.17 843.61 72.69 849.56 77.81C857.09 84.22 863.84 73.21 865.87 66.16C868.38 57.37 869.66 44.53 862.6 35.91Z" fill="#BA7766"/>
</svg>
