<svg width="376" height="316" viewBox="0 0 376 316" fill="none" xmlns="http://www.w3.org/2000/svg">
<g filter="url(#filter0_d_4684_365350)">
<g clip-path="url(#clip0_4684_365350)">
<path d="M28 70C28 46.804 46.804 28 70 28H306C329.196 28 348 46.804 348 70V246C348 269.196 329.196 288 306 288H70C46.804 288 28 269.196 28 246V70Z" fill="white"/>
<path d="M111.307 221.912C111.541 222.317 111.803 222.813 112.091 223.4C112.379 223.987 112.672 224.605 112.971 225.256C113.269 225.896 113.563 226.552 113.851 227.224C114.149 227.885 114.421 228.499 114.667 229.064C114.912 228.499 115.179 227.885 115.467 227.224C115.755 226.552 116.048 225.896 116.347 225.256C116.645 224.605 116.939 223.987 117.227 223.4C117.515 222.813 117.776 222.317 118.011 221.912H119.835C119.931 222.723 120.021 223.587 120.107 224.504C120.192 225.411 120.267 226.344 120.331 227.304C120.405 228.253 120.469 229.213 120.523 230.184C120.587 231.144 120.64 232.083 120.683 233H118.699C118.656 231.709 118.603 230.381 118.539 229.016C118.485 227.651 118.4 226.328 118.283 225.048C118.165 225.293 118.027 225.587 117.867 225.928C117.707 226.269 117.536 226.643 117.355 227.048C117.173 227.443 116.987 227.853 116.795 228.28C116.613 228.707 116.432 229.123 116.251 229.528C116.08 229.923 115.92 230.296 115.771 230.648C115.621 230.989 115.493 231.283 115.387 231.528H113.883C113.776 231.283 113.648 230.984 113.499 230.632C113.349 230.28 113.184 229.907 113.003 229.512C112.832 229.107 112.651 228.691 112.459 228.264C112.277 227.837 112.096 227.427 111.915 227.032C111.733 226.637 111.563 226.269 111.403 225.928C111.243 225.576 111.104 225.283 110.987 225.048C110.869 226.328 110.779 227.651 110.715 229.016C110.661 230.381 110.613 231.709 110.571 233H108.587C108.629 232.083 108.677 231.133 108.731 230.152C108.795 229.171 108.859 228.2 108.923 227.24C108.997 226.269 109.077 225.331 109.163 224.424C109.248 223.517 109.339 222.68 109.435 221.912H111.307ZM122.471 228.856C122.471 228.12 122.578 227.475 122.791 226.92C123.015 226.365 123.308 225.907 123.671 225.544C124.034 225.171 124.45 224.893 124.919 224.712C125.388 224.52 125.868 224.424 126.359 224.424C127.511 224.424 128.407 224.781 129.047 225.496C129.698 226.211 130.023 227.277 130.023 228.696C130.023 228.803 130.018 228.925 130.007 229.064C130.007 229.192 130.002 229.309 129.991 229.416H124.471C124.524 230.088 124.759 230.611 125.175 230.984C125.602 231.347 126.215 231.528 127.015 231.528C127.484 231.528 127.911 231.485 128.295 231.4C128.69 231.315 128.999 231.224 129.223 231.128L129.479 232.712C129.372 232.765 129.223 232.824 129.031 232.888C128.85 232.941 128.636 232.989 128.391 233.032C128.156 233.085 127.9 233.128 127.623 233.16C127.346 233.192 127.063 233.208 126.775 233.208C126.039 233.208 125.399 233.101 124.855 232.888C124.311 232.664 123.863 232.36 123.511 231.976C123.159 231.581 122.898 231.123 122.727 230.6C122.556 230.067 122.471 229.485 122.471 228.856ZM128.087 227.992C128.087 227.725 128.05 227.475 127.975 227.24C127.9 226.995 127.788 226.787 127.639 226.616C127.5 226.435 127.324 226.296 127.111 226.2C126.908 226.093 126.663 226.04 126.375 226.04C126.076 226.04 125.815 226.099 125.591 226.216C125.367 226.323 125.175 226.467 125.015 226.648C124.866 226.829 124.748 227.037 124.663 227.272C124.578 227.507 124.519 227.747 124.487 227.992H128.087ZM135.084 227.368L136.86 224.632H138.892L136.14 228.584C136.716 229.331 137.265 230.088 137.788 230.856C138.321 231.613 138.758 232.328 139.1 233H137.004C136.908 232.797 136.78 232.568 136.62 232.312C136.47 232.045 136.305 231.773 136.124 231.496C135.953 231.208 135.772 230.925 135.58 230.648C135.388 230.371 135.201 230.109 135.02 229.864C134.646 230.344 134.278 230.877 133.916 231.464C133.564 232.04 133.27 232.552 133.036 233H131.052C131.212 232.68 131.404 232.339 131.628 231.976C131.852 231.613 132.092 231.245 132.348 230.872C132.604 230.488 132.865 230.109 133.132 229.736C133.409 229.352 133.681 228.989 133.948 228.648L131.18 224.632H133.308L135.084 227.368ZM143.489 231.64C144.086 231.64 144.539 231.608 144.849 231.544V229.4C144.742 229.368 144.587 229.336 144.385 229.304C144.182 229.272 143.958 229.256 143.713 229.256C143.499 229.256 143.281 229.272 143.057 229.304C142.843 229.336 142.646 229.395 142.465 229.48C142.294 229.565 142.155 229.688 142.049 229.848C141.942 229.997 141.889 230.189 141.889 230.424C141.889 230.883 142.033 231.203 142.321 231.384C142.609 231.555 142.998 231.64 143.489 231.64ZM143.329 224.424C143.969 224.424 144.507 224.504 144.945 224.664C145.382 224.824 145.729 225.048 145.985 225.336C146.251 225.624 146.438 225.976 146.545 226.392C146.662 226.797 146.721 227.245 146.721 227.736V232.808C146.422 232.872 145.969 232.947 145.361 233.032C144.763 233.128 144.086 233.176 143.329 233.176C142.827 233.176 142.369 233.128 141.953 233.032C141.537 232.936 141.179 232.781 140.881 232.568C140.593 232.355 140.363 232.077 140.193 231.736C140.033 231.395 139.953 230.973 139.953 230.472C139.953 229.992 140.043 229.587 140.225 229.256C140.417 228.925 140.673 228.659 140.993 228.456C141.313 228.243 141.681 228.093 142.097 228.008C142.523 227.912 142.966 227.864 143.424 227.864C143.638 227.864 143.862 227.88 144.097 227.912C144.331 227.933 144.582 227.976 144.849 228.04V227.72C144.849 227.496 144.822 227.283 144.769 227.08C144.715 226.877 144.619 226.701 144.481 226.552C144.353 226.392 144.177 226.269 143.953 226.184C143.739 226.099 143.467 226.056 143.137 226.056C142.689 226.056 142.278 226.088 141.905 226.152C141.531 226.216 141.227 226.291 140.993 226.376L140.753 224.808C140.998 224.723 141.355 224.637 141.825 224.552C142.294 224.467 142.795 224.424 143.329 224.424ZM156.115 233H154.179V229.496H151.027V233H149.091V224.632H151.027V227.896H154.179V224.632H156.115V233ZM165.904 224.632V233H163.984C163.984 232.392 163.984 231.789 163.984 231.192C163.994 230.595 164 230.04 164 229.528C164.01 229.016 164.016 228.573 164.016 228.2C164.026 227.816 164.032 227.533 164.032 227.352C163.712 227.768 163.381 228.227 163.04 228.728C162.698 229.229 162.357 229.731 162.016 230.232C161.685 230.733 161.37 231.224 161.072 231.704C160.773 232.184 160.512 232.616 160.288 233H158.576V224.632H160.48C160.48 225.251 160.474 225.843 160.464 226.408C160.464 226.963 160.464 227.469 160.464 227.928C160.464 228.387 160.458 228.787 160.448 229.128C160.448 229.469 160.448 229.731 160.448 229.912C160.746 229.453 161.056 228.984 161.376 228.504C161.696 228.013 162.016 227.539 162.336 227.08C162.666 226.611 162.992 226.168 163.312 225.752C163.632 225.336 163.941 224.963 164.24 224.632H165.904ZM169.765 227.224C169.765 227.736 169.909 228.099 170.197 228.312C170.495 228.515 170.901 228.616 171.413 228.616C171.658 228.616 171.898 228.605 172.133 228.584C172.378 228.552 172.591 228.515 172.773 228.472V224.632H174.709V233H172.773V230.008C172.581 230.04 172.33 230.083 172.021 230.136C171.711 230.179 171.434 230.2 171.189 230.2C170.687 230.2 170.229 230.152 169.813 230.056C169.407 229.96 169.055 229.8 168.757 229.576C168.458 229.341 168.229 229.037 168.069 228.664C167.909 228.28 167.829 227.805 167.829 227.24V224.632H169.765V227.224ZM176.706 228.856C176.706 228.12 176.812 227.475 177.026 226.92C177.25 226.365 177.543 225.907 177.906 225.544C178.268 225.171 178.684 224.893 179.154 224.712C179.623 224.52 180.103 224.424 180.594 224.424C181.746 224.424 182.642 224.781 183.282 225.496C183.932 226.211 184.258 227.277 184.258 228.696C184.258 228.803 184.252 228.925 184.242 229.064C184.242 229.192 184.236 229.309 184.226 229.416H178.706C178.759 230.088 178.994 230.611 179.41 230.984C179.836 231.347 180.45 231.528 181.25 231.528C181.719 231.528 182.146 231.485 182.53 231.4C182.924 231.315 183.234 231.224 183.458 231.128L183.714 232.712C183.607 232.765 183.458 232.824 183.266 232.888C183.084 232.941 182.871 232.989 182.626 233.032C182.391 233.085 182.135 233.128 181.858 233.16C181.58 233.192 181.298 233.208 181.01 233.208C180.274 233.208 179.634 233.101 179.09 232.888C178.546 232.664 178.098 232.36 177.746 231.976C177.394 231.581 177.132 231.123 176.962 230.6C176.791 230.067 176.706 229.485 176.706 228.856ZM182.322 227.992C182.322 227.725 182.284 227.475 182.21 227.24C182.135 226.995 182.023 226.787 181.874 226.616C181.735 226.435 181.559 226.296 181.346 226.2C181.143 226.093 180.898 226.04 180.61 226.04C180.311 226.04 180.05 226.099 179.826 226.216C179.602 226.323 179.41 226.467 179.25 226.648C179.1 226.829 178.983 227.037 178.898 227.272C178.812 227.507 178.754 227.747 178.722 227.992H182.322ZM185.846 228.824C185.846 228.205 185.942 227.629 186.134 227.096C186.326 226.552 186.598 226.083 186.95 225.688C187.313 225.293 187.75 224.984 188.262 224.76C188.774 224.536 189.35 224.424 189.99 224.424C190.779 224.424 191.526 224.568 192.23 224.856L191.814 226.44C191.59 226.344 191.334 226.264 191.046 226.2C190.769 226.136 190.47 226.104 190.15 226.104C189.393 226.104 188.817 226.344 188.422 226.824C188.027 227.293 187.83 227.96 187.83 228.824C187.83 229.656 188.017 230.317 188.39 230.808C188.763 231.288 189.393 231.528 190.278 231.528C190.609 231.528 190.934 231.496 191.254 231.432C191.574 231.368 191.851 231.288 192.086 231.192L192.358 232.792C192.145 232.899 191.819 232.995 191.382 233.08C190.955 233.165 190.513 233.208 190.054 233.208C189.339 233.208 188.715 233.101 188.182 232.888C187.659 232.664 187.222 232.36 186.87 231.976C186.529 231.581 186.273 231.117 186.102 230.584C185.931 230.04 185.846 229.453 185.846 228.824ZM195.793 227.992C196.038 227.747 196.305 227.475 196.593 227.176C196.881 226.867 197.164 226.557 197.441 226.248C197.729 225.939 198.001 225.645 198.257 225.368C198.513 225.08 198.726 224.835 198.897 224.632H201.169C200.934 224.909 200.662 225.213 200.353 225.544C200.054 225.875 199.74 226.216 199.409 226.568C199.089 226.909 198.769 227.245 198.449 227.576C198.14 227.896 197.857 228.184 197.601 228.44C197.932 228.717 198.273 229.043 198.625 229.416C198.988 229.779 199.34 230.168 199.681 230.584C200.033 230.989 200.358 231.405 200.657 231.832C200.956 232.248 201.206 232.637 201.409 233H199.169C198.966 232.68 198.726 232.344 198.449 231.992C198.182 231.64 197.9 231.299 197.601 230.968C197.302 230.627 196.998 230.307 196.689 230.008C196.38 229.709 196.081 229.453 195.793 229.24V233H193.857V224.632H195.793V227.992ZM205.754 231.64C206.351 231.64 206.805 231.608 207.114 231.544V229.4C207.007 229.368 206.853 229.336 206.65 229.304C206.447 229.272 206.223 229.256 205.978 229.256C205.765 229.256 205.546 229.272 205.322 229.304C205.109 229.336 204.911 229.395 204.73 229.48C204.559 229.565 204.421 229.688 204.314 229.848C204.207 229.997 204.154 230.189 204.154 230.424C204.154 230.883 204.298 231.203 204.586 231.384C204.874 231.555 205.263 231.64 205.754 231.64ZM205.594 224.424C206.234 224.424 206.773 224.504 207.21 224.664C207.647 224.824 207.994 225.048 208.25 225.336C208.517 225.624 208.703 225.976 208.81 226.392C208.927 226.797 208.986 227.245 208.986 227.736V232.808C208.687 232.872 208.234 232.947 207.626 233.032C207.029 233.128 206.351 233.176 205.594 233.176C205.093 233.176 204.634 233.128 204.218 233.032C203.802 232.936 203.445 232.781 203.146 232.568C202.858 232.355 202.629 232.077 202.458 231.736C202.298 231.395 202.218 230.973 202.218 230.472C202.218 229.992 202.309 229.587 202.49 229.256C202.682 228.925 202.938 228.659 203.258 228.456C203.578 228.243 203.946 228.093 204.362 228.008C204.789 227.912 205.231 227.864 205.69 227.864C205.903 227.864 206.127 227.88 206.362 227.912C206.597 227.933 206.847 227.976 207.114 228.04V227.72C207.114 227.496 207.087 227.283 207.034 227.08C206.981 226.877 206.885 226.701 206.746 226.552C206.618 226.392 206.442 226.269 206.218 226.184C206.005 226.099 205.733 226.056 205.402 226.056C204.954 226.056 204.543 226.088 204.17 226.152C203.797 226.216 203.493 226.291 203.258 226.376L203.018 224.808C203.263 224.723 203.621 224.637 204.09 224.552C204.559 224.467 205.061 224.424 205.594 224.424ZM215.053 229.896C214.925 229.896 214.797 229.896 214.669 229.896C214.541 229.896 214.418 229.891 214.301 229.88C213.96 230.392 213.645 230.92 213.357 231.464C213.069 231.997 212.802 232.509 212.557 233H210.573C210.861 232.339 211.181 231.704 211.533 231.096C211.885 230.488 212.216 229.971 212.525 229.544C212.002 229.32 211.618 229.021 211.373 228.648C211.138 228.264 211.021 227.816 211.021 227.304C211.021 226.835 211.106 226.424 211.277 226.072C211.458 225.709 211.709 225.411 212.029 225.176C212.349 224.931 212.733 224.749 213.181 224.632C213.629 224.504 214.125 224.44 214.669 224.44C215.298 224.44 215.906 224.477 216.493 224.552C217.09 224.627 217.576 224.712 217.949 224.808V233H216.013V229.896H215.053ZM216.013 226.04C215.896 226.019 215.714 226.003 215.469 225.992C215.224 225.971 214.973 225.96 214.717 225.96C213.533 225.96 212.941 226.397 212.941 227.272C212.941 227.507 212.984 227.704 213.069 227.864C213.165 228.013 213.293 228.136 213.453 228.232C213.613 228.328 213.8 228.397 214.013 228.44C214.226 228.472 214.456 228.488 214.701 228.488H216.013V226.04ZM230.458 226.248H227.754V233H225.818V226.248H223.13V224.632H230.458V226.248ZM233.84 227.992C234.085 227.747 234.352 227.475 234.64 227.176C234.928 226.867 235.211 226.557 235.488 226.248C235.776 225.939 236.048 225.645 236.304 225.368C236.56 225.08 236.773 224.835 236.944 224.632H239.216C238.981 224.909 238.709 225.213 238.4 225.544C238.101 225.875 237.787 226.216 237.456 226.568C237.136 226.909 236.816 227.245 236.496 227.576C236.187 227.896 235.904 228.184 235.648 228.44C235.979 228.717 236.32 229.043 236.672 229.416C237.035 229.779 237.387 230.168 237.728 230.584C238.08 230.989 238.405 231.405 238.704 231.832C239.003 232.248 239.253 232.637 239.456 233H237.216C237.013 232.68 236.773 232.344 236.496 231.992C236.229 231.64 235.947 231.299 235.648 230.968C235.349 230.627 235.045 230.307 234.736 230.008C234.427 229.709 234.128 229.453 233.84 229.24V233H231.904V224.632H233.84V227.992ZM243.801 231.64C244.398 231.64 244.852 231.608 245.161 231.544V229.4C245.054 229.368 244.9 229.336 244.697 229.304C244.494 229.272 244.27 229.256 244.025 229.256C243.812 229.256 243.593 229.272 243.369 229.304C243.156 229.336 242.958 229.395 242.777 229.48C242.606 229.565 242.468 229.688 242.361 229.848C242.254 229.997 242.201 230.189 242.201 230.424C242.201 230.883 242.345 231.203 242.633 231.384C242.921 231.555 243.31 231.64 243.801 231.64ZM243.641 224.424C244.281 224.424 244.82 224.504 245.257 224.664C245.694 224.824 246.041 225.048 246.297 225.336C246.564 225.624 246.75 225.976 246.857 226.392C246.974 226.797 247.033 227.245 247.033 227.736V232.808C246.734 232.872 246.281 232.947 245.673 233.032C245.076 233.128 244.398 233.176 243.641 233.176C243.14 233.176 242.681 233.128 242.265 233.032C241.849 232.936 241.492 232.781 241.193 232.568C240.905 232.355 240.676 232.077 240.505 231.736C240.345 231.395 240.265 230.973 240.265 230.472C240.265 229.992 240.356 229.587 240.537 229.256C240.729 228.925 240.985 228.659 241.305 228.456C241.625 228.243 241.993 228.093 242.409 228.008C242.836 227.912 243.278 227.864 243.737 227.864C243.95 227.864 244.174 227.88 244.409 227.912C244.644 227.933 244.894 227.976 245.161 228.04V227.72C245.161 227.496 245.134 227.283 245.081 227.08C245.028 226.877 244.932 226.701 244.793 226.552C244.665 226.392 244.489 226.269 244.265 226.184C244.052 226.099 243.78 226.056 243.449 226.056C243.001 226.056 242.59 226.088 242.217 226.152C241.844 226.216 241.54 226.291 241.305 226.376L241.065 224.808C241.31 224.723 241.668 224.637 242.137 224.552C242.606 224.467 243.108 224.424 243.641 224.424ZM256.428 233H254.492V229.496H251.34V233H249.404V224.632H251.34V227.896H254.492V224.632H256.428V233ZM260.824 227.72C260.984 227.677 261.219 227.64 261.528 227.608C261.838 227.576 262.147 227.56 262.456 227.56C262.936 227.56 263.384 227.613 263.8 227.72C264.227 227.827 264.595 227.997 264.904 228.232C265.214 228.456 265.459 228.749 265.64 229.112C265.822 229.464 265.912 229.885 265.912 230.376C265.912 230.877 265.827 231.304 265.656 231.656C265.486 232.008 265.24 232.296 264.92 232.52C264.6 232.744 264.216 232.909 263.768 233.016C263.331 233.123 262.84 233.176 262.296 233.176C261.667 233.176 261.08 233.144 260.536 233.08C259.992 233.016 259.443 232.92 258.888 232.792V224.632H260.824V227.72ZM262.248 231.656C262.792 231.656 263.214 231.555 263.512 231.352C263.822 231.139 263.976 230.803 263.976 230.344C263.976 230.109 263.923 229.912 263.816 229.752C263.72 229.592 263.587 229.464 263.416 229.368C263.256 229.261 263.064 229.187 262.84 229.144C262.616 229.101 262.382 229.08 262.136 229.08C261.912 229.08 261.678 229.091 261.432 229.112C261.187 229.123 260.984 229.149 260.824 229.192V231.576C260.963 231.597 261.166 231.619 261.432 231.64C261.71 231.651 261.982 231.656 262.248 231.656Z" fill="black" fill-opacity="0.6"/>
<path d="M126.459 259C126.043 258.36 125.563 257.688 125.019 256.984C124.475 256.28 123.899 255.6 123.291 254.944C122.699 254.288 122.083 253.664 121.443 253.072C120.803 252.48 120.171 251.968 119.547 251.536V259H116.523V242.368H119.547V249.232C120.075 248.704 120.627 248.144 121.203 247.552C121.779 246.944 122.347 246.336 122.907 245.728C123.483 245.104 124.027 244.504 124.539 243.928C125.051 243.352 125.515 242.832 125.931 242.368H129.555C129.027 242.976 128.467 243.608 127.875 244.264C127.283 244.92 126.675 245.584 126.051 246.256C125.427 246.912 124.795 247.568 124.155 248.224C123.531 248.88 122.915 249.504 122.307 250.096C122.979 250.608 123.659 251.208 124.347 251.896C125.051 252.568 125.739 253.296 126.411 254.08C127.083 254.848 127.723 255.656 128.331 256.504C128.955 257.336 129.523 258.168 130.035 259H126.459ZM142.802 252.712C142.802 253.704 142.658 254.608 142.37 255.424C142.082 256.24 141.674 256.936 141.146 257.512C140.618 258.088 139.978 258.536 139.226 258.856C138.49 259.176 137.674 259.336 136.778 259.336C135.882 259.336 135.066 259.176 134.33 258.856C133.594 258.536 132.962 258.088 132.434 257.512C131.906 256.936 131.49 256.24 131.186 255.424C130.898 254.608 130.754 253.704 130.754 252.712C130.754 251.72 130.898 250.824 131.186 250.024C131.49 249.208 131.906 248.512 132.434 247.936C132.978 247.36 133.618 246.92 134.354 246.616C135.09 246.296 135.898 246.136 136.778 246.136C137.658 246.136 138.466 246.296 139.202 246.616C139.954 246.92 140.594 247.36 141.122 247.936C141.65 248.512 142.058 249.208 142.346 250.024C142.65 250.824 142.802 251.72 142.802 252.712ZM139.826 252.712C139.826 251.464 139.554 250.48 139.01 249.76C138.482 249.024 137.738 248.656 136.778 248.656C135.818 248.656 135.066 249.024 134.522 249.76C133.994 250.48 133.73 251.464 133.73 252.712C133.73 253.976 133.994 254.976 134.522 255.712C135.066 256.448 135.818 256.816 136.778 256.816C137.738 256.816 138.482 256.448 139.01 255.712C139.554 254.976 139.826 253.976 139.826 252.712ZM150.713 248.848C150.697 249.552 150.673 250.288 150.641 251.056C150.609 251.808 150.529 252.552 150.401 253.288C150.289 254.024 150.105 254.728 149.849 255.4C149.593 256.072 149.233 256.68 148.769 257.224C148.321 257.752 147.753 258.2 147.065 258.568C146.393 258.92 145.569 259.144 144.593 259.24L144.185 256.816C145.001 256.656 145.633 256.4 146.081 256.048C146.529 255.68 146.873 255.216 147.113 254.656C147.305 254.24 147.449 253.768 147.545 253.24C147.657 252.712 147.737 252.16 147.785 251.584C147.849 250.992 147.889 250.392 147.905 249.784C147.921 249.176 147.929 248.584 147.929 248.008V246.448H156.809V259H153.905V248.848H150.713ZM165.432 248.848C165.416 249.552 165.392 250.288 165.36 251.056C165.328 251.808 165.248 252.552 165.12 253.288C165.008 254.024 164.824 254.728 164.568 255.4C164.312 256.072 163.952 256.68 163.488 257.224C163.04 257.752 162.472 258.2 161.784 258.568C161.112 258.92 160.288 259.144 159.312 259.24L158.904 256.816C159.72 256.656 160.352 256.4 160.8 256.048C161.248 255.68 161.592 255.216 161.832 254.656C162.024 254.24 162.168 253.768 162.264 253.24C162.376 252.712 162.456 252.16 162.504 251.584C162.568 250.992 162.608 250.392 162.624 249.784C162.64 249.176 162.648 248.584 162.648 248.008V246.448H171.528V259H168.624V248.848H165.432ZM174.535 252.784C174.535 251.68 174.695 250.712 175.015 249.88C175.351 249.048 175.791 248.36 176.335 247.816C176.879 247.256 177.503 246.84 178.207 246.568C178.911 246.28 179.631 246.136 180.367 246.136C182.095 246.136 183.439 246.672 184.399 247.744C185.375 248.816 185.863 250.416 185.863 252.544C185.863 252.704 185.855 252.888 185.839 253.096C185.839 253.288 185.831 253.464 185.815 253.624H177.535C177.615 254.632 177.967 255.416 178.591 255.976C179.231 256.52 180.151 256.792 181.351 256.792C182.055 256.792 182.695 256.728 183.271 256.6C183.863 256.472 184.327 256.336 184.663 256.192L185.047 258.568C184.887 258.648 184.663 258.736 184.375 258.832C184.103 258.912 183.783 258.984 183.415 259.048C183.063 259.128 182.679 259.192 182.263 259.24C181.847 259.288 181.423 259.312 180.991 259.312C179.887 259.312 178.927 259.152 178.111 258.832C177.295 258.496 176.623 258.04 176.095 257.464C175.567 256.872 175.175 256.184 174.919 255.4C174.663 254.6 174.535 253.728 174.535 252.784ZM182.959 251.488C182.959 251.088 182.903 250.712 182.791 250.36C182.679 249.992 182.511 249.68 182.287 249.424C182.079 249.152 181.815 248.944 181.495 248.8C181.191 248.64 180.823 248.56 180.391 248.56C179.943 248.56 179.551 248.648 179.215 248.824C178.879 248.984 178.591 249.2 178.351 249.472C178.127 249.744 177.951 250.056 177.823 250.408C177.695 250.76 177.607 251.12 177.559 251.488H182.959ZM199.478 259H196.574V253.744H191.846V259H188.942V246.448H191.846V251.344H196.574V246.448H199.478V259ZM207.68 250.552L210.344 246.448H213.392L209.264 252.376C210.128 253.496 210.952 254.632 211.736 255.784C212.536 256.92 213.192 257.992 213.704 259H210.56C210.416 258.696 210.224 258.352 209.984 257.968C209.76 257.568 209.512 257.16 209.24 256.744C208.984 256.312 208.712 255.888 208.424 255.472C208.136 255.056 207.856 254.664 207.584 254.296C207.024 255.016 206.472 255.816 205.928 256.696C205.4 257.56 204.96 258.328 204.608 259H201.632C201.872 258.52 202.16 258.008 202.496 257.464C202.832 256.92 203.192 256.368 203.576 255.808C203.96 255.232 204.352 254.664 204.752 254.104C205.168 253.528 205.576 252.984 205.976 252.472L201.824 246.448H205.016L207.68 250.552ZM226.863 246.448V259H223.983C223.983 258.088 223.983 257.184 223.983 256.288C223.999 255.392 224.007 254.56 224.007 253.792C224.023 253.024 224.031 252.36 224.031 251.8C224.047 251.224 224.055 250.8 224.055 250.528C223.575 251.152 223.079 251.84 222.567 252.592C222.055 253.344 221.543 254.096 221.031 254.848C220.535 255.6 220.063 256.336 219.615 257.056C219.167 257.776 218.775 258.424 218.439 259H215.871V246.448H218.727C218.727 247.376 218.719 248.264 218.703 249.112C218.703 249.944 218.703 250.704 218.703 251.392C218.703 252.08 218.695 252.68 218.679 253.192C218.679 253.704 218.679 254.096 218.679 254.368C219.127 253.68 219.591 252.976 220.071 252.256C220.551 251.52 221.031 250.808 221.511 250.12C222.007 249.416 222.495 248.752 222.975 248.128C223.455 247.504 223.919 246.944 224.367 246.448H226.863ZM233.495 250.768C233.447 251.44 233.399 252.144 233.351 252.88C233.303 253.6 233.263 254.32 233.231 255.04C233.199 255.76 233.167 256.456 233.135 257.128C233.103 257.8 233.079 258.424 233.063 259H230.255C230.287 258.072 230.335 257.072 230.399 256C230.463 254.912 230.535 253.816 230.615 252.712C230.711 251.592 230.807 250.496 230.903 249.424C230.999 248.352 231.103 247.36 231.215 246.448H233.735C234.343 247.424 234.959 248.576 235.583 249.904C236.207 251.216 236.903 252.712 237.671 254.392C238.471 252.68 239.199 251.136 239.855 249.76C240.511 248.368 241.095 247.264 241.607 246.448H244.151C244.263 247.36 244.367 248.352 244.463 249.424C244.575 250.496 244.671 251.592 244.751 252.712C244.831 253.816 244.903 254.912 244.967 256C245.031 257.072 245.079 258.072 245.111 259H242.231C242.199 257.688 242.143 256.336 242.063 254.944C241.999 253.536 241.919 252.144 241.823 250.768C241.583 251.248 241.319 251.784 241.031 252.376C240.759 252.968 240.487 253.568 240.215 254.176C239.943 254.784 239.679 255.376 239.423 255.952C239.167 256.512 238.943 257.008 238.751 257.44H236.591C236.399 257.008 236.167 256.504 235.895 255.928C235.639 255.352 235.375 254.76 235.103 254.152C234.831 253.544 234.551 252.952 234.263 252.376C233.991 251.784 233.735 251.248 233.495 250.768ZM252.912 256.96C253.808 256.96 254.488 256.912 254.952 256.816V253.6C254.792 253.552 254.56 253.504 254.256 253.456C253.952 253.408 253.616 253.384 253.248 253.384C252.928 253.384 252.6 253.408 252.264 253.456C251.944 253.504 251.648 253.592 251.376 253.72C251.12 253.848 250.912 254.032 250.752 254.272C250.592 254.496 250.512 254.784 250.512 255.136C250.512 255.824 250.728 256.304 251.16 256.576C251.592 256.832 252.176 256.96 252.912 256.96ZM252.672 246.136C253.632 246.136 254.44 246.256 255.096 246.496C255.752 246.736 256.272 247.072 256.656 247.504C257.056 247.936 257.336 248.464 257.496 249.088C257.672 249.696 257.76 250.368 257.76 251.104V258.712C257.312 258.808 256.632 258.92 255.72 259.048C254.824 259.192 253.808 259.264 252.672 259.264C251.92 259.264 251.232 259.192 250.608 259.048C249.984 258.904 249.448 258.672 249 258.352C248.568 258.032 248.224 257.616 247.968 257.104C247.728 256.592 247.608 255.96 247.608 255.208C247.608 254.488 247.744 253.88 248.016 253.384C248.304 252.888 248.688 252.488 249.168 252.184C249.648 251.864 250.2 251.64 250.824 251.512C251.464 251.368 252.128 251.296 252.816 251.296C253.136 251.296 253.472 251.32 253.824 251.368C254.176 251.4 254.552 251.464 254.952 251.56V251.08C254.952 250.744 254.912 250.424 254.832 250.12C254.752 249.816 254.608 249.552 254.4 249.328C254.208 249.088 253.944 248.904 253.608 248.776C253.288 248.648 252.88 248.584 252.384 248.584C251.712 248.584 251.096 248.632 250.536 248.728C249.976 248.824 249.52 248.936 249.168 249.064L248.808 246.712C249.176 246.584 249.712 246.456 250.416 246.328C251.12 246.2 251.872 246.136 252.672 246.136Z" fill="black"/>
<mask id="mask0_4684_365350" style="mask-type:alpha" maskUnits="userSpaceOnUse" x="31" y="31" width="314" height="169">
<path d="M32 71C32 49.4609 49.4609 32 71 32H305C326.539 32 344 49.4609 344 71V199H32V71Z" fill="#C4C4C4" stroke="white" stroke-width="2"/>
</mask>
<g mask="url(#mask0_4684_365350)">
<path d="M350.788 26.6963H25.2141V201.21H350.788V26.6963Z" stroke="#302C1E" stroke-width="0.763069" stroke-miterlimit="10"/>
<path d="M244.795 72.0469L226.258 77.4445L220.234 90.9376L237.38 115.766L262.868 118.644L274.685 106.05L268.198 83.381L244.795 72.0469Z" fill="#CCBC94" stroke="#302C1E" stroke-width="0.763069" stroke-miterlimit="10"/>
<path d="M200.307 88.958L185.709 112.167L195.21 135.555H220.234L237.381 115.765L220.234 90.9371L200.307 88.958Z" fill="#CCBC94" stroke="#302C1E" stroke-width="0.763069" stroke-miterlimit="10"/>
<path d="M273.527 140.234L262.868 118.644L237.38 115.766L220.234 135.556L231.124 154.806H261.478L273.527 140.234Z" fill="#CCBC94" stroke="#302C1E" stroke-width="0.763069" stroke-miterlimit="10"/>
<path d="M291.369 107.309L274.686 106.05L262.868 118.644L273.527 140.234L291.369 142.932L298.783 125.3L291.369 107.309Z" fill="#CCBC94" stroke="#302C1E" stroke-width="0.763069" stroke-miterlimit="10"/>
<path d="M268.198 83.3807L279.088 72.0465L298.783 70.7871L308.979 85.8995L301.564 101.732L291.369 107.309L274.686 106.05L268.198 83.3807Z" fill="#CCBC94" stroke="#302C1E" stroke-width="0.763069" stroke-miterlimit="10"/>
<path d="M195.209 135.556L183.624 152.107L194.051 168.479H217.454L231.124 154.806L220.234 135.556H195.209Z" fill="#CCBC94" stroke="#302C1E" stroke-width="0.763069" stroke-miterlimit="10"/>
<path d="M268.198 166.501L261.478 154.807H231.124L217.454 168.48L223.246 179.094C233.999 181.167 244.752 183.241 255.504 185.314C259.735 179.043 263.966 172.772 268.198 166.501Z" fill="#CCBC94" stroke="#302C1E" stroke-width="0.763069" stroke-miterlimit="10"/>
<path d="M294.844 154.086L291.369 142.932L273.527 140.233L261.478 154.806L268.198 166.5L283.491 169.289L294.844 154.086Z" fill="#CCBC94" stroke="#302C1E" stroke-width="0.763069" stroke-miterlimit="10"/>
<path d="M217.454 168.48H194.051L186.766 178.435L191.572 192.671L216.135 191.703L223.246 179.096L217.454 168.48Z" fill="#CCBC94" stroke="#302C1E" stroke-width="0.763069" stroke-miterlimit="10"/>
<path d="M262.869 201.212H220.237L216.133 191.705L223.242 179.096L255.505 185.317L262.869 201.212Z" fill="#CCBC94" stroke="#302C1E" stroke-width="0.763069" stroke-miterlimit="10"/>
<path d="M283.491 169.289L268.198 166.5L255.504 185.314L262.868 201.212H283.491L300.185 189.359L283.491 169.289Z" fill="#CCBC94" stroke="#302C1E" stroke-width="0.763069" stroke-miterlimit="10"/>
<path d="M220.237 201.212H182.977L191.567 192.666L216.133 191.705L220.237 201.212Z" fill="#CCBC94" stroke="#302C1E" stroke-width="0.763069" stroke-miterlimit="10"/>
<path d="M278.235 53.1128L279.088 72.0477L268.198 83.3818L244.795 72.0477V57.5277L258.904 45.9023L278.235 53.1128Z" fill="#CCBC94" stroke="#302C1E" stroke-width="0.763069" stroke-miterlimit="10"/>
<path d="M226.258 77.4448C232.437 75.6457 238.617 73.8464 244.795 72.0472V57.5273L231.615 48.6982L220.234 50.0225C217.556 54.6409 214.878 59.2601 212.2 63.8785C216.887 68.4001 221.573 72.9225 226.258 77.4448Z" fill="#CCBC94" stroke="#302C1E" stroke-width="0.763069" stroke-miterlimit="10"/>
<path d="M220.234 90.9384L200.307 88.9593L191.349 78.0178L200.107 66.2529L212.2 63.8789L226.258 77.4453L220.234 90.9384Z" fill="#CCBC94" stroke="#302C1E" stroke-width="0.763069" stroke-miterlimit="10"/>
<path d="M156.16 111.319L185.71 112.168L200.307 88.9588L191.35 78.0172L167.649 73.9668L148.741 86.2318L156.16 111.319Z" fill="#CCBC94" stroke="#302C1E" stroke-width="0.763069" stroke-miterlimit="10"/>
<path d="M154.007 148.112L183.624 152.107L195.21 135.556L185.709 112.167L156.16 111.318L143.476 126.371L154.007 148.112Z" fill="#CCBC94" stroke="#302C1E" stroke-width="0.763069" stroke-miterlimit="10"/>
<path d="M186.766 178.434L194.051 168.479L183.624 152.107L154.007 148.112L136.296 160.377L148.741 179.89L186.766 178.434Z" fill="#CCBC94" stroke="#302C1E" stroke-width="0.763069" stroke-miterlimit="10"/>
<path d="M191.567 192.666L182.976 201.212H147.787L139.411 190.15L148.739 179.889L186.766 178.433L191.567 192.666Z" fill="#CCBC94" stroke="#302C1E" stroke-width="0.763069" stroke-miterlimit="10"/>
<path d="M143.476 126.371H122.415L107.098 141.609L113.32 152.945L136.296 160.378L154.007 148.113L143.476 126.371Z" fill="#CCBC94" stroke="#302C1E" stroke-width="0.763069" stroke-miterlimit="10"/>
<path d="M101.593 172.272L113.32 152.945L136.296 160.378L148.741 179.891L139.408 190.154L115.713 188.068L101.593 172.272Z" fill="#CCBC94" stroke="#302C1E" stroke-width="0.763069" stroke-miterlimit="10"/>
<path d="M148.741 86.2314L156.16 111.319L143.476 126.371H122.415L103.22 108.86L108.998 88.1145L148.741 86.2314Z" fill="#CCBC94" stroke="#302C1E" stroke-width="0.763069" stroke-miterlimit="10"/>
<path d="M107.098 141.609L122.415 126.371L103.22 108.86H84.2646L73.072 126.371L83.904 144.691L107.098 141.609Z" fill="#CCBC94" stroke="#302C1E" stroke-width="0.763069" stroke-miterlimit="10"/>
<path d="M101.593 172.272L113.32 152.945L107.098 141.609L83.904 144.691L68.9197 164.002L76.3213 176.844L101.593 172.272Z" fill="#CCBC94" stroke="#302C1E" stroke-width="0.763069" stroke-miterlimit="10"/>
<path d="M147.787 201.212H106.107L115.71 188.068L139.411 190.15L147.787 201.212Z" fill="#CCBC94" stroke="#302C1E" stroke-width="0.763069" stroke-miterlimit="10"/>
<path d="M80.4738 201.212C89.0186 201.212 97.5642 201.212 106.109 201.212L115.714 188.066C111.007 182.801 106.301 177.535 101.594 172.271C93.1702 173.795 84.7458 175.319 76.3222 176.844C72.868 181.405 69.4139 185.967 65.9597 190.528C70.7972 194.09 75.6355 197.651 80.4738 201.212Z" fill="#CCBC94" stroke="#302C1E" stroke-width="0.763069" stroke-miterlimit="10"/>
<path d="M329.468 201.211H283.488L300.189 189.357L322.85 192.665L329.468 201.211Z" fill="#CCBC94" stroke="#302C1E" stroke-width="0.763069" stroke-miterlimit="10"/>
<path d="M294.844 154.087L283.49 169.289L300.185 189.359L322.85 192.67L342.952 177.467L329.472 160.757L294.844 154.087Z" fill="#CCBC94" stroke="#302C1E" stroke-width="0.763069" stroke-miterlimit="10"/>
<path d="M298.783 125.301L291.369 142.933L294.844 154.087L329.472 160.757L347.682 140.234L337.512 128.621L298.783 125.301Z" fill="#CCBC94" stroke="#302C1E" stroke-width="0.763069" stroke-miterlimit="10"/>
<path d="M301.564 101.731L291.369 107.309L298.783 125.3L337.512 128.62L340.351 111.318L334.438 104.932L301.564 101.731Z" fill="#CCBC94" stroke="#302C1E" stroke-width="0.763069" stroke-miterlimit="10"/>
<path d="M350.788 85.9854V92.3893L334.438 104.93L301.562 101.736L308.981 85.9016L327.694 73.9629L344.374 77.4088L350.788 85.9854Z" fill="#CCBC94" stroke="#302C1E" stroke-width="0.763069" stroke-miterlimit="10"/>
<path d="M278.235 53.1128L292.578 45.9023L307.241 51.4959L308.979 63.8789L298.783 70.7883L279.088 72.0477L278.235 53.1128Z" fill="#CCBC94" stroke="#302C1E" stroke-width="0.763069" stroke-miterlimit="10"/>
<path d="M327.698 73.9661L308.978 85.8994L298.783 70.787L308.978 63.8776L319.525 63.0703L327.698 64.6407V73.9661Z" fill="#CCBC94" stroke="#302C1E" stroke-width="0.763069" stroke-miterlimit="10"/>
<path d="M73.0721 126.371L83.9041 144.692L68.9205 164.002L48.1373 164.954C44.4883 160.232 40.8385 155.509 37.1895 150.787C39.4129 144.255 41.6372 137.725 43.8607 131.194C53.5978 129.586 63.335 127.978 73.0721 126.371Z" fill="#CCBC94" stroke="#302C1E" stroke-width="0.763069" stroke-miterlimit="10"/>
<path d="M108.998 88.1141C107.072 95.0295 105.146 101.944 103.221 108.86H84.2654L62.2477 95.8155L59.5715 71.8253C68.2483 68.907 76.9259 65.9887 85.6027 63.0703C93.4003 71.4182 101.199 79.7661 108.998 88.1141Z" fill="#CCBC94" stroke="#302C1E" stroke-width="0.763069" stroke-miterlimit="10"/>
<path d="M167.648 73.9666L148.741 86.2316L108.997 88.1146L85.6013 63.0709L103.22 38.7979C122.543 43.3111 141.866 47.8243 161.19 52.3367C163.343 59.5464 165.496 66.7569 167.648 73.9666Z" fill="#CCBC94" stroke="#302C1E" stroke-width="0.763069" stroke-miterlimit="10"/>
<path d="M200.107 66.2528L191.349 78.0176L167.648 73.9672C165.495 66.7575 163.343 59.5469 161.19 52.3372C164.51 48.9119 167.829 45.4859 171.149 42.0605C178.66 45.7207 186.17 49.38 193.682 53.0401C195.823 57.4451 197.965 61.8493 200.107 66.2528Z" fill="#CCBC94" stroke="#302C1E" stroke-width="0.763069" stroke-miterlimit="10"/>
<path d="M220.234 50.0221L212.2 63.8781L200.107 66.2528C197.965 61.8487 195.823 57.4445 193.681 53.0403C194.787 50.3675 195.893 47.6946 196.999 45.0217C201.236 44.0893 205.474 43.157 209.712 42.2246C213.22 44.8235 216.727 47.4232 220.234 50.0221Z" fill="#CCBC94" stroke="#302C1E" stroke-width="0.763069" stroke-miterlimit="10"/>
<path d="M103.22 38.798L85.6067 63.0718L59.5678 71.823L32.616 42.6022L42.8372 26.6992H85.6067L103.22 38.798Z" fill="#CCBC94" stroke="#302C1E" stroke-width="0.763069" stroke-miterlimit="10"/>
<path d="M171.773 26.501C171.773 26.5696 171.763 26.6305 171.763 26.6992C171.557 31.8223 171.36 36.9454 171.145 42.0609C167.826 45.4839 164.507 48.9146 161.189 52.3376C141.866 47.8244 122.543 43.3111 103.22 38.7979L85.6057 26.6992C91.7913 26.6839 97.9768 26.6687 104.162 26.6534C107.275 26.6458 110.397 26.6382 113.52 26.6382C127.285 26.6001 141.051 26.5696 154.816 26.5391C156.888 26.5391 158.959 26.5314 161.041 26.5238C164.615 26.5162 168.199 26.5086 171.773 26.501Z" fill="#CCBC94" stroke="#302C1E" stroke-width="0.763069" stroke-miterlimit="10"/>
<path d="M42.8371 26.6992L32.6158 42.6022L25.2126 47.3967V26.6992H42.8371Z" fill="#CCBC94" stroke="#302C1E" stroke-width="0.763069" stroke-miterlimit="10"/>
<path d="M62.2477 95.815L40.0681 104.934L25.2126 93.8565V47.397L32.6158 42.6025L59.5677 71.8233L62.2477 95.815Z" fill="#CCBC94" stroke="#302C1E" stroke-width="0.763069" stroke-miterlimit="10"/>
<path d="M43.8598 131.193L73.072 126.371L84.2646 108.86L62.2469 95.8164L40.0657 104.93L38.575 117.495L43.8598 131.193Z" fill="#CCBC94" stroke="#302C1E" stroke-width="0.763069" stroke-miterlimit="10"/>
<path d="M40.0681 104.933L38.5758 117.496L25.2126 126.775V93.8555L40.0681 104.933Z" fill="#CCBC94" stroke="#302C1E" stroke-width="0.763069" stroke-miterlimit="10"/>
<path d="M43.8583 131.197L37.1917 150.79C33.1958 149.898 29.2092 149.006 25.2134 148.114V126.775L38.5765 117.497L43.8583 131.197Z" fill="#CCBC94" stroke="#302C1E" stroke-width="0.763069" stroke-miterlimit="10"/>
<path d="M48.1388 164.955L41.7661 179.165L25.2119 179.89V148.114C29.2077 149.006 33.1944 149.898 37.1902 150.79L48.1388 164.955Z" fill="#CCBC94" stroke="#302C1E" stroke-width="0.763069" stroke-miterlimit="10"/>
<path d="M48.1364 189.824L65.9588 190.53L76.3213 176.845L68.9196 164.002L48.1364 164.953L41.769 179.163L48.1364 189.824Z" fill="#CCBC94" stroke="#302C1E" stroke-width="0.763069" stroke-miterlimit="10"/>
<path d="M80.4715 201.212H38.5759L48.1389 189.823L65.9598 190.531L80.4715 201.212Z" fill="#CCBC94" stroke="#302C1E" stroke-width="0.763069" stroke-miterlimit="10"/>
<path d="M48.1388 189.823L38.5758 201.212H25.2126V179.889L41.7668 179.165L48.1388 189.823Z" fill="#CCBC94" stroke="#302C1E" stroke-width="0.763069" stroke-miterlimit="10"/>
<path d="M350.788 181.053V201.21H329.466L322.853 192.671V192.663L342.947 177.462L342.954 177.47L350.788 181.053Z" fill="#CCBC94" stroke="#302C1E" stroke-width="0.763069" stroke-miterlimit="10"/>
<path d="M347.681 140.235L350.788 141.044V181.06L342.955 177.469L342.947 177.462L329.474 160.758L347.681 140.235Z" fill="#CCBC94" stroke="#302C1E" stroke-width="0.763069" stroke-miterlimit="10"/>
<path d="M350.788 113.018V141.043L347.681 140.235L337.515 128.624L340.353 111.318L350.788 113.018Z" fill="#CCBC94" stroke="#302C1E" stroke-width="0.763069" stroke-miterlimit="10"/>
<path d="M334.438 104.931L350.788 92.3896V113.019L340.353 111.319L334.438 104.931Z" fill="#CCBC94" stroke="#302C1E" stroke-width="0.763069" stroke-miterlimit="10"/>
<path d="M344.374 77.409L350.788 64.8223V85.9856L344.374 77.409Z" fill="#CCBC94" stroke="#302C1E" stroke-width="0.763069" stroke-miterlimit="10"/>
<path d="M350.788 57.5492V64.8223L344.374 77.4089L327.694 73.963V64.6393L330.103 51.1835L344.374 49.8799L350.788 57.5492Z" fill="#CCBC94" stroke="#302C1E" stroke-width="0.763069" stroke-miterlimit="10"/>
<path d="M307.241 51.4951L308.979 63.8781L319.525 63.0708L327.698 64.6412L330.104 51.1809L323.727 41.0186L307.241 51.4951Z" fill="#CCBC94" stroke="#302C1E" stroke-width="0.763069" stroke-miterlimit="10"/>
<path d="M196.999 45.022C196.435 41.0036 195.871 36.9844 195.306 32.966C192.504 30.8763 189.703 28.7867 186.901 26.697C181.858 26.633 176.814 26.5689 171.771 26.5049C171.564 31.6905 171.357 36.8754 171.15 42.0611C178.661 45.7212 186.171 49.3805 193.683 53.0406C194.788 50.3678 195.893 47.6949 196.999 45.022Z" fill="#CCBC94" stroke="#302C1E" stroke-width="0.763069" stroke-miterlimit="10"/>
<path d="M323.727 41.0179L328.658 34.0034L343.153 31.8535L349.904 36.4361L344.372 49.8774L330.104 51.1802L323.727 41.0179Z" fill="#CCBC94" stroke="#302C1E" stroke-width="0.763069" stroke-miterlimit="10"/>
<path d="M292.578 45.9011L307.241 51.4946L323.727 41.0181L328.658 34.0036L315.859 26.6963C309.403 28.2584 302.946 29.8205 296.49 31.3826C295.187 36.2221 293.882 41.0616 292.578 45.9011Z" fill="#CCBC94" stroke="#302C1E" stroke-width="0.763069" stroke-miterlimit="10"/>
<path d="M258.904 45.9011L278.235 53.1116L292.578 45.9011L296.49 31.3826L284.042 26.6963H261.942L258.904 45.9011Z" fill="#CCBC94" stroke="#302C1E" stroke-width="0.763069" stroke-miterlimit="10"/>
<path d="M231.615 48.6974L244.795 57.5265L258.904 45.9011L261.942 26.6963H241.773L234.53 36.6482L231.615 48.6974Z" fill="#CCBC94" stroke="#302C1E" stroke-width="0.763069" stroke-miterlimit="10"/>
<path d="M209.712 42.2245C213.219 44.8235 216.727 47.4224 220.234 50.0221L231.615 48.6978L234.529 36.6486C232.037 35.3465 229.545 34.0443 227.052 32.7422C222.467 33.5175 217.883 34.2929 213.3 35.0682C212.103 37.4536 210.908 39.8391 209.712 42.2245Z" fill="#CCBC94" stroke="#302C1E" stroke-width="0.763069" stroke-miterlimit="10"/>
<path d="M213.3 35.0676L209.712 42.2247L196.999 45.0218L195.306 32.965L201.817 26.6968L208.804 26.5039L213.3 35.0676Z" fill="#CCBC94" stroke="#302C1E" stroke-width="0.763069" stroke-miterlimit="10"/>
<path d="M241.773 26.6968L234.53 36.6487L227.052 32.7416L213.3 35.0676L208.804 26.5039L241.773 26.6968Z" fill="#CCBC94" stroke="#302C1E" stroke-width="0.763069" stroke-miterlimit="10"/>
<path d="M186.901 26.6963L195.306 32.9645L201.817 26.6963H186.901Z" fill="#CCBC94" stroke="#302C1E" stroke-width="0.763069" stroke-miterlimit="10"/>
<path d="M349.906 36.4387L350.788 36.1719V57.5486L344.374 49.8793L349.906 36.4387Z" fill="#CCBC94" stroke="#302C1E" stroke-width="0.763069" stroke-miterlimit="10"/>
<path d="M348.624 26.65L350.788 26.6348V36.1644L349.898 36.4312L343.154 31.8494L342.134 26.6958L346.837 26.6653L348.624 26.65Z" fill="#CCBC94" stroke="#302C1E" stroke-width="0.763069" stroke-miterlimit="10"/>
<path d="M343.155 31.8528L328.663 34.0027L315.86 26.6992H342.134L343.155 31.8528Z" fill="#CCBC94" stroke="#302C1E" stroke-width="0.763069" stroke-miterlimit="10"/>
<path d="M284.042 26.6963L296.49 31.3826L315.86 26.6963H284.042Z" fill="#CCBC94" stroke="#302C1E" stroke-width="0.763069" stroke-miterlimit="10"/>
<path d="M277.19 165.894C281.518 166.27 284.86 163.681 285.343 163.295C291.379 158.478 290.391 147.928 284.107 145.69C278.846 143.816 269.002 147.456 267.337 153.734C265.873 159.256 271.123 165.368 277.19 165.894Z" fill="#E9E9C0" stroke="#302C1E" stroke-width="0.254356" stroke-miterlimit="10"/>
<path d="M339.001 80.1686C333.303 77.1481 324.973 79.9506 320.803 82.3079C314.033 86.1357 308.972 94.0277 312.632 98.7308C316.884 104.193 332.499 104.833 339.708 98.3671C345.508 93.1639 345.553 83.642 339.001 80.1686Z" fill="#E9E9C0" stroke="#302C1E" stroke-width="0.254356" stroke-miterlimit="10"/>
<path d="M335.255 111.222C337.392 115.124 332.996 119.466 332.549 119.895C325.141 127.007 305.764 127.123 299.78 120.117C297.18 117.073 296.989 112.545 299.78 109.443C306.75 101.693 331.293 103.988 335.255 111.222Z" fill="#E9E9C0" stroke="#302C1E" stroke-width="0.254356" stroke-miterlimit="10"/>
<path d="M262.945 127.479C258.852 121.57 249.586 119.2 241.69 121.896C231.229 125.467 225.393 137.176 230.48 145.345C234.479 151.767 244.217 154.379 252.402 151.491C263.134 147.705 268.456 135.435 262.945 127.479Z" fill="#E9E9C0" stroke="#302C1E" stroke-width="0.254356" stroke-miterlimit="10"/>
<path d="M265.569 88.0816C265.566 88.0763 265.561 88.0678 265.554 88.0587C262.444 83.1224 256.279 80.8284 254.804 80.2795C252.819 79.5408 245 76.6316 238.561 78.8142C228.835 82.1107 224.85 96.1459 232.544 105.14C237.653 111.111 248.961 116.086 257.97 113.022C267.29 109.852 272.523 98.632 265.569 88.0816Z" fill="#E9E9C0" stroke="#302C1E" stroke-width="0.254356" stroke-miterlimit="10"/>
<path d="M303.961 87.2726C303.236 81.1973 296.841 75.3645 290.029 75.1442C280.056 74.8224 270.639 86.5766 274.356 95.0267C276.059 98.9002 280.73 102.55 286.297 102.98C295.463 103.687 304.941 95.5001 303.961 87.2726Z" fill="#E9E9C0" stroke="#302C1E" stroke-width="0.254356" stroke-miterlimit="10"/>
<path d="M339.025 141.951C339.227 141.112 339.439 140.265 339.114 139.328C336.569 131.98 307.12 127.941 300.243 136.572C297.344 140.211 298.69 145.812 301.946 149.203C308.035 155.544 320.637 153.671 326.631 151.729C328.059 151.266 337.515 148.202 339.025 141.951Z" fill="#E9E9C0" stroke="#302C1E" stroke-width="0.254356" stroke-miterlimit="10"/>
<path d="M332.118 114.558C333.4 114.069 333.739 112.61 333.319 111.598C332.613 109.901 329.56 108.951 328.416 109.526C326.987 110.244 327.666 113.776 330.017 114.558C330.095 114.584 331.158 114.924 332.118 114.558Z" fill="#302C1E"/>
<path d="M326.144 108.452C327.587 110.149 325.535 112.629 327.932 114.461C329.628 115.756 331.764 115.363 332.271 116.346C332.978 117.716 329.697 120.157 326.692 121.542C321.325 124.015 310.407 126.081 304.772 121.212C301.903 118.734 300.817 114.817 302.663 111.713C306.744 104.855 323.285 105.09 326.144 108.452Z" stroke="#302C1E" stroke-width="0.254356" stroke-miterlimit="10"/>
<path d="M338.235 84.2693C338.788 83.3431 337.943 82.1461 336.886 81.6109C335.116 80.7136 332.222 81.4066 331.832 82.3329C331.345 83.4894 334.466 85.7117 336.731 85.2147C336.807 85.1979 337.821 84.9631 338.235 84.2693Z" fill="#302C1E"/>
<path d="M329.406 82.5848C331.704 83.1497 332.086 85.8484 335.167 86.081C337.347 86.2456 338.582 85.0037 339.678 85.4787C341.207 86.1412 340.68 89.3637 339.562 91.7065C337.565 95.8896 331.292 102.277 323.628 101.328C319.726 100.843 316.027 98.5289 315.034 95.4772C312.839 88.7348 324.851 81.4641 329.406 82.5848Z" stroke="#302C1E" stroke-width="0.254356" stroke-miterlimit="10"/>
<path d="M295.908 79.5896C296.017 78.5117 294.603 77.5579 293.295 77.3224C291.102 76.9275 288.548 78.4316 288.601 79.4631C288.667 80.7515 292.839 82.0864 294.86 80.9536C294.928 80.9162 295.827 80.3962 295.908 79.5896Z" fill="#302C1E"/>
<path d="M286.303 80.3975C288.864 80.3136 290.532 82.8927 293.716 82.2576C295.967 81.8086 296.605 80.2236 297.925 80.389C299.765 80.6185 300.777 83.9752 300.781 86.6229C300.787 91.3503 297.583 99.4757 289.489 100.686C285.369 101.302 280.576 100.038 278.13 97.2785C272.723 91.1826 281.229 80.5637 286.303 80.3975Z" stroke="#302C1E" stroke-width="0.254356" stroke-miterlimit="10"/>
<path d="M247.391 81.8111C246.566 80.6927 244.102 80.3961 242.393 80.7636C239.527 81.3788 237.923 84.0425 238.894 85.0412C240.106 86.2877 246.07 85.6945 247.391 83.6445C247.435 83.5759 248.009 82.6482 247.391 81.8111Z" fill="#302C1E"/>
<path d="M237.081 87.0223C239.946 85.7629 244.134 87.5536 247.226 85.4625C249.413 83.9835 248.749 82.1195 250.409 81.6766C252.722 81.0598 256.844 83.9218 259.182 86.5443C263.358 91.2268 266.846 100.753 258.625 105.669C254.44 108.172 247.826 109.12 242.586 107.509C231.008 103.949 231.405 89.5168 237.081 87.0223Z" stroke="#302C1E" stroke-width="0.254356" stroke-miterlimit="10"/>
<path d="M288.415 111.364C293.452 113.985 294.462 119.794 294.631 120.765C295.937 128.271 291.085 137.103 284.864 138.144C276.6 139.526 265.479 127.236 268.881 118.486C271.387 112.041 281.647 107.841 288.415 111.364Z" fill="#E9E9C0" stroke="#302C1E" stroke-width="0.254356" stroke-miterlimit="10"/>
<path d="M282.831 113.168C282.415 112.233 280.879 111.883 279.758 112.099C277.88 112.461 276.607 114.523 277.127 115.369C277.777 116.424 281.62 116.222 282.655 114.637C282.69 114.585 283.144 113.867 282.831 113.168Z" fill="#302C1E"/>
<path d="M275.786 116.874C277.726 115.996 280.213 117.623 282.377 116.088C283.907 115.002 283.665 113.478 284.761 113.199C286.289 112.81 288.631 115.294 289.864 117.503C292.065 121.449 293.366 129.246 287.676 132.812C284.779 134.627 280.49 135.084 277.317 133.552C270.308 130.168 271.944 118.615 275.786 116.874Z" stroke="#302C1E" stroke-width="0.254356" stroke-miterlimit="10"/>
<path d="M332.953 142.132C334.235 141.643 334.575 140.184 334.154 139.172C333.448 137.475 330.395 136.525 329.251 137.1C327.822 137.818 328.502 141.35 330.853 142.132C330.93 142.158 331.993 142.498 332.953 142.132Z" fill="#302C1E"/>
<path d="M326.98 136.026C328.423 137.723 326.37 140.204 328.768 142.035C330.464 143.33 332.6 142.937 333.107 143.92C333.814 145.29 330.534 147.731 327.528 149.116C322.161 151.59 311.243 153.656 305.608 148.786C302.739 146.308 301.654 142.391 303.5 139.287C307.579 132.429 324.12 132.664 326.98 136.026Z" stroke="#302C1E" stroke-width="0.254356" stroke-miterlimit="10"/>
<path d="M283.58 148.177C283.653 147.388 282.582 146.659 281.597 146.459C279.945 146.125 278.04 147.177 278.088 147.935C278.149 148.883 281.295 149.947 282.805 149.157C282.854 149.131 283.526 148.768 283.58 148.177Z" fill="#302C1E"/>
<path d="M276.37 148.574C278.293 148.565 279.569 150.492 281.955 150.091C283.643 149.806 284.109 148.657 285.103 148.804C286.487 149.01 287.277 151.496 287.302 153.439C287.348 156.909 285.011 162.809 278.939 163.533C275.849 163.902 272.237 162.876 270.374 160.801C266.26 156.215 272.559 148.593 276.37 148.574Z" stroke="#302C1E" stroke-width="0.254356" stroke-miterlimit="10"/>
<path d="M255.519 126.821C255.662 125.617 253.965 124.501 252.389 124.193C249.747 123.676 246.651 125.275 246.704 126.433C246.771 127.88 251.79 129.515 254.24 128.315C254.321 128.275 255.412 127.722 255.519 126.821Z" fill="#302C1E"/>
<path d="M243.922 127.402C247.012 127.395 248.998 130.34 252.845 129.736C255.566 129.308 256.352 127.555 257.943 127.784C260.16 128.103 261.347 131.898 261.324 134.864C261.283 140.161 257.333 149.157 247.556 150.241C242.579 150.792 236.81 149.214 233.887 146.041C227.428 139.03 237.799 127.418 243.922 127.402Z" stroke="#302C1E" stroke-width="0.254356" stroke-miterlimit="10"/>
<path d="M228.642 119.007C229.249 117.268 229.346 115.931 229.375 115.641C230.426 105.047 219.408 93.6649 207.805 94.508C196.989 95.294 188.946 106.464 190.548 116.174C191.871 124.192 200.078 132.974 210.393 132.69C219.636 132.434 226.546 125.01 228.642 119.007Z" fill="#E9E9C0" stroke="#302C1E" stroke-width="0.254356" stroke-miterlimit="10"/>
<path d="M213.818 100.911C213.357 99.6357 210.921 98.8024 209.033 98.7826C205.867 98.7498 203.289 100.997 203.942 102.187C204.757 103.672 211.106 104.412 213.18 102.701C213.248 102.645 214.163 101.866 213.818 100.911Z" fill="#302C1E"/>
<path d="M201.384 103.721C204.773 103.125 208.465 105.8 212.378 104.441C215.146 103.479 215.109 101.513 216.973 101.447C219.57 101.355 222.821 105.063 224.318 108.141C226.99 113.638 227.271 123.713 217.093 126.697C211.913 128.217 204.769 127.679 199.932 124.948C189.243 118.911 194.67 104.903 201.384 103.721Z" stroke="#302C1E" stroke-width="0.254356" stroke-miterlimit="10"/>
<path d="M162.269 145.441C163.06 145.76 165.089 146.497 167.784 146.568C174.646 146.749 181.545 142.526 184.173 137.371C188.536 128.815 182.528 116.997 173.531 115.37C163.841 113.617 152.286 124.131 153.098 133.404C153.458 137.51 156.393 143.076 162.269 145.441Z" fill="#E9E9C0" stroke="#302C1E" stroke-width="0.254356" stroke-miterlimit="10"/>
<path d="M174.165 120.381C173.945 119.257 172.082 118.444 170.563 118.357C168.016 118.212 165.672 120.068 166.056 121.125C166.537 122.444 171.565 123.32 173.439 121.912C173.502 121.865 174.33 121.222 174.165 120.381Z" fill="#302C1E"/>
<path d="M163.815 122.363C166.617 121.97 169.274 124.429 172.587 123.393C174.931 122.66 175.135 120.951 176.645 120.963C178.748 120.979 180.927 124.317 181.767 127.044C183.268 131.914 182.298 140.671 173.744 142.887C169.389 144.015 163.698 143.287 160.124 140.736C152.229 135.103 158.265 123.142 163.815 122.363Z" stroke="#302C1E" stroke-width="0.254356" stroke-miterlimit="10"/>
<path d="M180.358 50.0945C185.857 50.7981 189.551 55.3586 190.169 56.121C194.943 62.0141 195.217 70.8361 190.524 73.5471C184.289 77.147 168.957 70.1553 167.512 61.8295C166.446 55.6971 172.969 49.1491 180.358 50.0945Z" fill="#E9E9C0" stroke="#302C1E" stroke-width="0.254356" stroke-miterlimit="10"/>
<path d="M176.572 53.2554C175.765 52.5967 174.309 52.7582 173.478 53.2698C172.085 54.1282 172.031 56.2301 172.88 56.7828C173.941 57.4735 177.057 56.1676 177.146 54.5361C177.149 54.4827 177.176 53.7486 176.572 53.2554Z" fill="#302C1E"/>
<path d="M172.498 58.4389C173.689 57.1307 176.568 57.7559 177.625 55.8324C178.372 54.4716 177.421 53.2679 178.201 52.7106C179.289 51.9337 182.466 53.3182 184.581 54.8025C188.358 57.4517 193.271 63.5895 190.26 68.256C188.728 70.6308 185.364 72.282 181.959 71.9389C174.436 71.1804 170.137 61.0317 172.498 58.4389Z" stroke="#302C1E" stroke-width="0.254356" stroke-miterlimit="10"/>
<path d="M231.209 72.2131C231.796 72.2489 233.274 72.2932 234.938 71.7984C239.174 70.5397 241.975 66.5937 241.869 62.9328C241.693 56.856 234.127 50.8623 228.114 51.6666C221.638 52.5326 218.084 61.2358 221.646 66.7164C223.223 69.1431 226.85 71.9455 231.209 72.2131Z" fill="#E9E9C0" stroke="#302C1E" stroke-width="0.254356" stroke-miterlimit="10"/>
<path d="M230.158 54.5893C229.652 53.9489 228.249 53.8254 227.296 54.0762C225.698 54.4963 224.886 56.0934 225.469 56.6591C226.198 57.3666 229.548 56.8962 230.222 55.6657C230.244 55.6246 230.537 55.068 230.158 54.5893Z" fill="#302C1E"/>
<path d="M224.515 57.8597C226.089 57.0615 228.52 58.0274 230.193 56.7368C231.377 55.8234 230.936 54.7424 231.859 54.4489C233.144 54.0395 235.574 55.6358 236.988 57.1278C239.513 59.7923 241.82 65.3141 237.347 68.3696C235.07 69.9249 231.365 70.6164 228.348 69.7778C221.679 67.9229 221.395 59.4409 224.515 57.8597Z" stroke="#302C1E" stroke-width="0.254356" stroke-miterlimit="10"/>
<path d="M219.042 80.3187C219.379 79.4496 219.433 78.7802 219.448 78.6354C220.032 73.3384 213.91 67.6474 207.462 68.069C201.453 68.4623 196.983 74.0474 197.873 78.9022C198.608 82.9115 203.169 87.3019 208.9 87.1601C214.037 87.0321 217.876 83.3201 219.042 80.3187Z" fill="#E9E9C0" stroke="#302C1E" stroke-width="0.254356" stroke-miterlimit="10"/>
<path d="M210.804 71.2715C210.548 70.6341 209.195 70.2171 208.145 70.2072C206.386 70.1912 204.954 71.3149 205.316 71.9096C205.768 72.6521 209.297 73.0219 210.449 72.1673C210.488 72.1383 210.996 71.7487 210.804 71.2715Z" fill="#302C1E"/>
<path d="M203.895 72.6763C205.778 72.3782 207.83 73.7155 210.004 73.0362C211.542 72.5559 211.522 71.5717 212.558 71.5389C214.001 71.4932 215.807 73.3464 216.639 74.8856C218.124 77.634 218.28 82.6717 212.624 84.1637C209.745 84.923 205.776 84.6547 203.088 83.2885C197.148 80.2711 200.164 73.2672 203.895 72.6763Z" stroke="#302C1E" stroke-width="0.254356" stroke-miterlimit="10"/>
<path d="M215.479 56.2356C215.763 55.5053 215.808 54.9434 215.822 54.8206C216.313 50.3692 211.167 45.5876 205.75 45.9414C200.7 46.2715 196.944 50.9645 197.692 55.044C198.31 58.4129 202.142 62.1028 206.958 61.9831C211.274 61.8763 214.5 58.7575 215.479 56.2356Z" fill="#E9E9C0" stroke="#302C1E" stroke-width="0.254356" stroke-miterlimit="10"/>
<path d="M208.557 48.6318C208.342 48.0958 207.205 47.7458 206.323 47.7375C204.845 47.7237 203.641 48.6684 203.945 49.1677C204.326 49.7921 207.291 50.1023 208.259 49.3842C208.292 49.3606 208.718 49.0336 208.557 48.6318Z" fill="#302C1E"/>
<path d="M202.752 49.8134C204.334 49.5626 206.058 50.687 207.884 50.116C209.176 49.712 209.16 48.8856 210.03 48.8581C211.243 48.82 212.76 50.3776 213.459 51.6705C214.707 53.9798 214.838 58.2131 210.086 59.4672C207.667 60.1053 204.331 59.8797 202.073 58.7323C197.082 56.1959 199.617 50.3105 202.752 49.8134Z" stroke="#302C1E" stroke-width="0.254356" stroke-miterlimit="10"/>
<path d="M230.775 43.8936C231.003 43.3058 231.039 42.8538 231.051 42.7555C231.446 39.1754 227.307 35.3284 222.949 35.6136C218.887 35.8789 215.867 39.6541 216.468 42.9354C216.966 45.6448 220.048 48.6127 223.921 48.5167C227.393 48.4313 229.988 45.923 230.775 43.8936Z" fill="#E9E9C0" stroke="#302C1E" stroke-width="0.254356" stroke-miterlimit="10"/>
<path d="M225.207 37.7784C225.034 37.3476 224.119 37.0656 223.41 37.0587C222.221 37.048 221.253 37.8073 221.498 38.2091C221.804 38.7115 224.189 38.9608 224.968 38.3829C224.994 38.3646 225.337 38.1016 225.207 37.7784Z" fill="#302C1E"/>
<path d="M220.538 38.728C221.811 38.5268 223.197 39.4302 224.666 38.9712C225.706 38.6464 225.692 37.9816 226.392 37.9595C227.367 37.929 228.588 39.1816 229.15 40.2215C230.154 42.0794 230.26 45.4841 226.436 46.4927C224.491 47.0058 221.808 46.8244 219.991 45.9011C215.978 43.8618 218.016 39.1275 220.538 38.728Z" stroke="#302C1E" stroke-width="0.254356" stroke-miterlimit="10"/>
<path d="M194.074 36.687C193.751 35.8255 193.352 35.2316 193.269 35.1012C190.23 30.3433 182.06 27.476 177.652 29.9827C173.542 32.3194 173.947 38.6165 177.768 42.5031C180.924 45.7127 187.108 47.9791 191.179 45.952C194.828 44.1345 195.19 39.6602 194.074 36.687Z" fill="#E9E9C0" stroke="#302C1E" stroke-width="0.254356" stroke-miterlimit="10"/>
<path d="M182.173 31.6302C181.57 31.1659 180.314 31.2567 179.546 31.5974C178.257 32.1684 177.951 33.6124 178.604 34.0042C179.419 34.4937 182.224 33.639 182.502 32.5191C182.51 32.4818 182.624 31.9778 182.173 31.6302Z" fill="#302C1E"/>
<path d="M178.073 35.1377C179.246 34.2548 181.611 34.7252 182.746 33.417C183.549 32.4915 182.891 31.6513 183.622 31.2785C184.641 30.7594 187.166 31.7558 188.776 32.8056C191.652 34.6795 195.059 38.9678 191.926 42.1339C190.332 43.7455 187.272 44.8334 184.426 44.5498C178.137 43.9239 175.748 36.8873 178.073 35.1377Z" stroke="#302C1E" stroke-width="0.254356" stroke-miterlimit="10"/>
<path d="M254.966 47.5608C255.731 46.7405 256.132 46.0307 256.223 45.8782C259.542 40.3213 256.947 31.792 250.84 29.8083C245.147 27.9588 238.13 32.3584 236.389 37.9916C234.951 42.6435 236.804 49.1625 242.111 51.179C246.866 52.9881 252.323 50.3938 254.966 47.5608Z" fill="#E9E9C0" stroke="#302C1E" stroke-width="0.254356" stroke-miterlimit="10"/>
<path d="M252.205 34.5687C252.307 33.7758 251.291 32.8084 250.339 32.4005C248.741 31.7159 246.843 32.399 246.861 33.185C246.883 34.1669 249.91 35.9074 251.411 35.4111C251.461 35.3943 252.129 35.1626 252.205 34.5687Z" fill="#302C1E"/>
<path d="M245.16 33.4832C247.036 33.8713 248.206 36.1081 250.547 36.1912C252.204 36.2499 252.702 35.1689 253.665 35.5256C255.007 36.0227 255.681 38.7291 255.63 40.7235C255.541 44.2845 253.033 49.839 247.085 49.3237C244.059 49.0614 240.577 47.2646 238.841 44.7556C235.007 39.2117 241.444 32.714 245.16 33.4832Z" stroke="#302C1E" stroke-width="0.254356" stroke-miterlimit="10"/>
<path d="M209.743 38.3552C210.061 37.8017 210.19 37.3603 210.221 37.265C211.335 33.781 208.745 29.5292 205.066 29.3242C201.637 29.1328 198.301 32.5162 198.08 35.8165C197.898 38.5419 199.804 41.8102 203.04 42.1471C205.939 42.449 208.644 40.2664 209.743 38.3552Z" fill="#E9E9C0" stroke="#302C1E" stroke-width="0.254356" stroke-miterlimit="10"/>
<path d="M206.466 31.7086C206.417 31.2649 205.72 30.8852 205.132 30.7998C204.148 30.6565 203.178 31.2968 203.293 31.72C203.437 32.249 205.361 32.7606 206.134 32.278C206.16 32.262 206.502 32.0409 206.466 31.7086Z" fill="#302C1E"/>
<path d="M202.382 32.1235C203.483 32.0671 204.435 33.1123 205.755 32.8233C206.689 32.619 206.823 31.9626 207.409 32.019C208.226 32.0976 208.964 33.4676 209.202 34.5555C209.627 36.498 208.967 39.8646 205.573 40.4318C203.846 40.7207 201.659 40.2427 200.354 39.1304C197.471 36.6733 200.202 32.2356 202.382 32.1235Z" stroke="#302C1E" stroke-width="0.254356" stroke-miterlimit="10"/>
<path d="M274.602 67.0718C275 65.913 275.063 65.0218 275.082 64.8282C275.771 57.7694 268.545 50.1853 260.935 50.7472C253.841 51.271 248.567 58.714 249.617 65.1834C250.485 70.5261 255.867 76.3772 262.632 76.1874C268.695 76.0181 273.226 71.072 274.602 67.0718Z" fill="#E9E9C0" stroke="#302C1E" stroke-width="0.254356" stroke-miterlimit="10"/>
<path d="M264.878 55.0149C264.576 54.1649 262.979 53.6099 261.74 53.5969C259.664 53.5756 257.973 55.0721 258.401 55.8649C258.936 56.8545 263.101 57.3477 264.46 56.208C264.505 56.1706 265.105 55.6515 264.878 55.0149Z" fill="#302C1E"/>
<path d="M256.724 56.8878C258.947 56.4906 261.368 58.273 263.934 57.3673C265.749 56.7269 265.725 55.4164 266.948 55.3722C268.651 55.3112 270.783 57.7813 271.765 59.832C273.518 63.4944 273.702 70.2071 267.027 72.1961C263.629 73.2085 258.945 72.8502 255.772 71.0304C248.761 67.0089 252.321 57.6753 256.724 56.8878Z" stroke="#302C1E" stroke-width="0.254356" stroke-miterlimit="10"/>
<path d="M287.54 44.9407C288.503 44.1204 289.008 43.4106 289.122 43.2581C293.3 37.7012 290.034 29.1719 282.347 27.1882C275.18 25.3387 266.348 29.7383 264.157 35.3722C262.347 40.0242 264.68 46.5431 271.36 48.5596C277.345 50.3679 284.214 47.7736 287.54 44.9407Z" fill="#E9E9C0" stroke="#302C1E" stroke-width="0.254356" stroke-miterlimit="10"/>
<path d="M284.065 31.9476C284.193 31.1547 282.914 30.1873 281.715 29.7794C279.704 29.0948 277.314 29.7779 277.337 30.5639C277.365 31.5458 281.175 33.2863 283.065 32.79C283.128 32.774 283.97 32.5415 284.065 31.9476Z" fill="#302C1E"/>
<path d="M275.197 30.8623C277.558 31.2503 279.03 33.4871 281.978 33.5702C284.063 33.6289 284.691 32.5479 285.903 32.9047C287.591 33.4017 288.439 36.1081 288.376 38.1025C288.263 41.6635 285.107 47.2181 277.62 46.7028C273.81 46.4405 269.427 44.6436 267.243 42.1346C262.417 36.5907 270.519 30.0923 275.197 30.8623Z" stroke="#302C1E" stroke-width="0.254356" stroke-miterlimit="10"/>
<path d="M302.214 65.8448C303.061 65.1015 303.506 64.4588 303.606 64.3201C307.284 59.2839 304.409 51.5549 297.642 49.7573C291.333 48.0816 283.559 52.068 281.629 57.1736C280.036 61.3895 282.089 67.2963 287.97 69.1245C293.239 70.7628 299.286 68.4117 302.214 65.8448Z" fill="#E9E9C0" stroke="#302C1E" stroke-width="0.254356" stroke-miterlimit="10"/>
<path d="M299.155 54.0711C299.268 53.3529 298.142 52.4762 297.087 52.1057C295.317 51.4851 293.213 52.1041 293.233 52.817C293.258 53.7066 296.611 55.284 298.275 54.8342C298.33 54.8197 299.071 54.6093 299.155 54.0711Z" fill="#302C1E"/>
<path d="M291.349 53.0877C293.427 53.4399 294.722 55.4663 297.318 55.5418C299.153 55.5951 299.706 54.6156 300.773 54.9388C302.259 55.3894 303.006 57.8419 302.95 59.6494C302.85 62.8765 300.072 67.9097 293.482 67.4431C290.128 67.2053 286.27 65.5768 284.347 63.3034C280.098 58.2794 287.231 52.3909 291.349 53.0877Z" stroke="#302C1E" stroke-width="0.254356" stroke-miterlimit="10"/>
<path d="M309.348 47.0231C310.465 46.7715 311.256 46.4437 311.429 46.3758C317.751 43.8837 322.319 36.8005 319.708 32.821C317.274 29.1113 309.34 29.2242 304.017 32.4383C299.62 35.0929 296.042 40.4508 298.094 44.1147C299.933 47.3982 305.491 47.8907 309.348 47.0231Z" fill="#E9E9C0" stroke="#302C1E" stroke-width="0.254356" stroke-miterlimit="10"/>
<path d="M317.104 36.7369C317.758 36.2238 317.795 35.1146 317.46 34.4246C316.9 33.2674 315.128 32.9418 314.559 33.5014C313.849 34.1997 314.583 36.7034 315.952 36.9915C315.997 37.0014 316.615 37.1211 317.104 36.7369Z" fill="#302C1E"/>
<path d="M313.204 32.991C314.169 34.0584 313.297 36.1229 314.799 37.1734C315.862 37.9167 316.992 37.3693 317.372 38.028C317.899 38.9451 316.35 41.1293 314.843 42.5076C312.152 44.9678 306.375 47.8023 302.786 44.9198C300.959 43.453 299.963 40.7169 300.659 38.2217C302.195 32.7067 311.291 30.8762 313.204 32.991Z" stroke="#302C1E" stroke-width="0.254356" stroke-miterlimit="10"/>
<path d="M38.8604 172.021C38.7523 172.189 38.3103 172.967 37.4664 173.866C34.8938 176.588 29.945 179.111 25.2126 178.357V154.83C27.697 153.839 30.4069 153.572 32.8905 154.373C39.6553 156.553 42.5325 165.915 38.8604 172.021Z" fill="#E9E9C0" stroke="#302C1E" stroke-width="0.254356" stroke-miterlimit="10"/>
<path d="M34.4042 159.6C34.517 158.729 33.3915 157.667 32.3357 157.219C30.5657 156.467 28.4619 157.218 28.4818 158.081C28.5071 159.159 31.86 161.07 33.5242 160.525C33.5794 160.507 34.3198 160.252 34.4042 159.6Z" fill="#302C1E"/>
<path d="M38.2029 166.356C38.0947 170.267 35.3257 176.366 28.7281 175.802C27.5796 175.703 26.3719 175.405 25.2134 174.94V158.397C25.7044 158.313 26.1655 158.313 26.5975 158.405C28.679 158.831 29.9749 161.294 32.5675 161.378C34.4035 161.446 34.9536 160.257 36.0239 160.654C37.5055 161.195 38.252 164.168 38.2029 166.356Z" stroke="#302C1E" stroke-width="0.254356" stroke-miterlimit="10"/>
<path d="M339.63 26.6982C339.169 28.6347 337.578 30.8226 334.799 31.5088C331.107 32.416 327.102 30.2051 325.678 27.7046C325.492 27.3844 325.345 27.0413 325.246 26.6982H339.63Z" fill="#E9E9C0" stroke="#302C1E" stroke-width="0.254356" stroke-miterlimit="10"/>
<path d="M74.6695 97.0825C73.2463 95.7979 72.4007 94.7215 72.212 94.4897C65.3221 86.0358 66.0901 74.0872 74.3871 72.041C82.121 70.1343 94.0502 77.4119 98.6391 85.7651C102.429 92.663 102.034 101.813 94.9294 104.014C88.5636 105.985 79.5837 101.519 74.6695 97.0825Z" fill="#E9E9C0" stroke="#302C1E" stroke-width="0.254356" stroke-miterlimit="10"/>
<path d="M74.0802 78.72C73.646 77.5634 74.7976 76.3041 76.0559 75.8428C78.1666 75.069 81.2118 76.3063 81.4673 77.4377C81.7865 78.8503 77.9464 80.956 75.5533 80.0404C75.4743 80.0099 74.4055 79.5852 74.0802 78.72Z" fill="#302C1E"/>
<path d="M84.0829 78.0947C81.4551 78.4043 80.5328 81.4728 77.1086 81.2799C74.6864 81.1434 73.5624 79.5188 72.2703 79.9054C70.4704 80.4436 70.4466 84.2554 71.2369 87.1371C72.6471 92.2831 78.3385 100.624 86.9263 100.674C91.2973 100.699 95.7888 98.5726 97.4483 95.1869C101.115 87.7066 89.2894 77.481 84.0829 78.0947Z" stroke="#302C1E" stroke-width="0.254356" stroke-miterlimit="10"/>
<path d="M68.095 183.591C68.9428 182.848 69.387 182.205 69.4875 182.066C73.1657 177.03 70.2901 169.301 63.523 167.503C57.2146 165.828 49.4401 169.815 47.5105 174.92C45.9177 179.136 47.9708 185.042 53.851 186.871C59.1205 188.509 65.1672 186.158 68.095 183.591Z" fill="#E9E9C0" stroke="#302C1E" stroke-width="0.254356" stroke-miterlimit="10"/>
<path d="M65.036 171.817C65.1488 171.099 64.0233 170.222 62.9675 169.852C61.1975 169.231 59.0937 169.85 59.1137 170.563C59.139 171.453 62.4919 173.03 64.156 172.58C64.2113 172.566 64.9524 172.355 65.036 171.817Z" fill="#302C1E"/>
<path d="M57.23 170.834C59.3085 171.186 60.6036 173.212 63.1992 173.288C65.0345 173.341 65.5877 172.362 66.6541 172.685C68.1403 173.135 68.8876 175.588 68.8316 177.396C68.7319 180.623 65.9536 185.656 59.3638 185.189C56.0093 184.951 52.1516 183.323 50.2289 181.05C45.9791 176.025 53.1115 170.136 57.23 170.834Z" stroke="#302C1E" stroke-width="0.254356" stroke-miterlimit="10"/>
<path d="M148.97 108.387C149.226 106.88 149.078 105.767 149.053 105.525C148.151 96.6752 135.893 88.6742 125.259 90.8088C115.346 92.7979 109.854 102.99 113.065 110.782C115.716 117.217 124.901 123.427 134.437 121.912C142.981 120.556 148.087 113.588 148.97 108.387Z" fill="#E9E9C0" stroke="#302C1E" stroke-width="0.254356" stroke-miterlimit="10"/>
<path d="M131.983 95.3316C131.329 94.339 128.918 93.9554 127.159 94.1735C124.212 94.5394 122.214 96.7091 123.032 97.6072C124.053 98.7286 130.085 98.5495 131.708 96.8845C131.761 96.8288 132.473 96.0741 131.983 95.3316Z" fill="#302C1E"/>
<path d="M120.927 99.1872C123.971 98.2754 127.877 100.019 131.271 98.415C133.672 97.2806 133.29 95.6658 135.01 95.3807C137.408 94.9835 141.086 97.6304 143.024 99.9785C146.482 104.171 148.53 112.428 139.6 116.148C135.055 118.04 128.322 118.486 123.341 116.838C112.337 113.196 114.896 100.993 120.927 99.1872Z" stroke="#302C1E" stroke-width="0.254356" stroke-miterlimit="10"/>
<path d="M213.698 201.211H190.153C190.182 201.074 190.232 200.937 190.281 200.807C192.215 195.707 199.982 191.72 206.295 193.39C210.37 194.472 213.03 197.705 213.698 201.211Z" fill="#E9E9C0" stroke="#302C1E" stroke-width="0.254356" stroke-miterlimit="10"/>
<path d="M207.808 197.705C207.921 196.987 206.795 196.111 205.739 195.74C203.969 195.12 201.865 195.739 201.885 196.451C201.911 197.341 205.264 198.918 206.928 198.469C206.983 198.454 207.723 198.244 207.808 197.705Z" fill="#302C1E"/>
<path d="M211.352 201.211H192.313C193.766 198.375 197.458 196.294 200.001 196.721C202.083 197.071 203.378 199.099 205.971 199.176C207.807 199.229 208.357 198.245 209.427 198.573C210.38 198.864 211.028 199.976 211.352 201.211Z" stroke="#302C1E" stroke-width="0.254356" stroke-miterlimit="10"/>
<path d="M105.874 191.958C106.794 191.041 107.207 190.307 107.303 190.149C110.799 184.364 104.881 177.27 95.4281 176.897C86.6163 176.55 77.4078 182.148 76.2461 187.636C75.2871 192.167 79.619 197.619 87.9052 198.208C95.3307 198.735 102.698 195.128 105.874 191.958Z" fill="#E9E9C0" stroke="#302C1E" stroke-width="0.254356" stroke-miterlimit="10"/>
<path d="M98.6098 180.876C98.5629 180.138 96.8328 179.5 95.3336 179.353C92.8201 179.106 90.203 180.163 90.424 180.868C90.7002 181.749 95.5714 182.617 97.653 181.821C97.7213 181.794 98.645 181.429 98.6098 180.876Z" fill="#302C1E"/>
<path d="M88.0026 181.532C90.8513 181.447 93.1201 183.194 96.5773 182.725C99.0225 182.393 99.4875 181.302 100.988 181.401C103.08 181.538 104.739 183.824 105.157 185.635C105.906 188.869 103.601 194.463 94.7451 195.378C90.2376 195.844 84.6835 195.03 81.517 193.169C74.519 189.057 82.3579 181.7 88.0026 181.532Z" stroke="#302C1E" stroke-width="0.254356" stroke-miterlimit="10"/>
<path d="M95.3382 167.671C96.5888 167.04 97.4021 166.409 97.5824 166.274C104.142 161.389 106.325 151.379 101.192 147.252C96.4062 143.405 86.7151 145.839 81.7311 151.322C77.6148 155.851 75.8125 163.458 80.1061 167.359C83.9538 170.855 91.0202 169.851 95.3382 167.671Z" fill="#E9E9C0" stroke="#302C1E" stroke-width="0.254356" stroke-miterlimit="10"/>
<path d="M99.8881 152.811C100.442 151.992 99.951 150.621 99.206 149.871C97.9577 148.614 95.6237 148.727 95.1956 149.578C94.6609 150.641 96.7746 153.499 98.5961 153.457C98.6559 153.455 99.4738 153.424 99.8881 152.811Z" fill="#302C1E"/>
<path d="M93.2836 149.343C94.9861 150.373 94.914 153.158 97.2672 154.012C98.9321 154.616 100.057 153.618 100.841 154.316C101.934 155.289 101.087 158.416 99.9026 160.543C97.7873 164.339 92.0629 169.487 86.2594 166.99C83.3055 165.719 80.7575 162.651 80.4038 159.388C79.622 152.179 89.9108 147.303 93.2836 149.343Z" stroke="#302C1E" stroke-width="0.254356" stroke-miterlimit="10"/>
<path d="M214.309 186.9C215.156 186.157 215.601 185.514 215.701 185.376C219.379 180.34 216.504 172.611 209.737 170.813C203.429 169.137 195.654 173.124 193.724 178.229C192.131 182.445 194.184 188.352 200.065 190.18C205.334 191.818 211.381 189.468 214.309 186.9Z" fill="#E9E9C0" stroke="#302C1E" stroke-width="0.254356" stroke-miterlimit="10"/>
<path d="M211.25 175.127C211.363 174.409 210.237 173.532 209.182 173.161C207.412 172.541 205.308 173.16 205.328 173.873C205.353 174.762 208.706 176.34 210.37 175.89C210.425 175.875 211.166 175.664 211.25 175.127Z" fill="#302C1E"/>
<path d="M203.444 174.143C205.522 174.496 206.817 176.522 209.413 176.598C211.248 176.651 211.801 175.671 212.868 175.994C214.354 176.445 215.101 178.898 215.045 180.705C214.945 183.932 212.167 188.965 205.577 188.499C202.223 188.261 198.365 186.633 196.442 184.359C192.193 179.334 199.326 173.446 203.444 174.143Z" stroke="#302C1E" stroke-width="0.254356" stroke-miterlimit="10"/>
<path d="M350.788 118.142V135.142C346.054 130.294 343.983 124.347 347.059 120.635C347.957 119.544 349.238 118.721 350.788 118.142Z" fill="#E9E9C0" stroke="#302C1E" stroke-width="0.254356" stroke-miterlimit="10"/>
<path d="M172.893 201.211H165.755C163.565 201.562 161.297 201.623 159.295 201.211H153.295C150.782 200.098 148.818 198.497 148.209 196.385C146.736 191.232 154.032 185.529 161.415 183.44C170.36 180.909 181.799 182.975 183.801 188.289C185.47 192.734 180.119 198.323 172.893 201.211Z" fill="#E9E9C0" stroke="#302C1E" stroke-width="0.254356" stroke-miterlimit="10"/>
<path d="M178.48 192.461C179.625 192.003 180.125 190.626 179.922 189.67C179.583 188.068 177.169 187.168 176.127 187.708C174.826 188.383 174.873 191.717 176.723 192.458C176.785 192.483 177.623 192.805 178.48 192.461Z" fill="#302C1E"/>
<path d="M172.912 199.039C171.027 199.946 168.445 200.792 165.755 201.212C163.565 201.562 161.297 201.623 159.295 201.212C157.439 200.838 155.799 200.045 154.63 198.696C152.588 196.355 152.264 192.658 154.267 189.73C158.695 183.265 172.49 183.517 174.385 186.689C175.347 188.297 173.255 190.63 174.993 192.36C176.221 193.588 178.067 193.222 178.342 194.152C178.734 195.441 175.632 197.744 172.912 199.039Z" stroke="#302C1E" stroke-width="0.254356" stroke-miterlimit="10"/>
<path d="M114.6 181.069C113.595 180.144 113.069 179.344 112.949 179.172C108.589 172.907 111.998 163.291 120.02 161.055C127.498 158.97 136.715 163.93 139.002 170.281C140.891 175.527 138.457 182.876 131.486 185.15C125.239 187.188 118.071 184.262 114.6 181.069Z" fill="#E9E9C0" stroke="#302C1E" stroke-width="0.254356" stroke-miterlimit="10"/>
<path d="M118.226 166.421C118.092 165.528 119.427 164.437 120.679 163.976C122.777 163.205 125.271 163.975 125.248 164.861C125.218 165.968 121.243 167.93 119.27 167.37C119.203 167.352 118.326 167.09 118.226 166.421Z" fill="#302C1E"/>
<path d="M127.48 165.197C125.016 165.635 123.481 168.157 120.404 168.25C118.228 168.315 117.573 167.097 116.309 167.5C114.546 168.06 113.662 171.112 113.728 173.36C113.846 177.375 117.14 183.637 124.952 183.056C128.929 182.76 133.503 180.734 135.782 177.905C140.818 171.655 132.362 164.33 127.48 165.197Z" stroke="#302C1E" stroke-width="0.254356" stroke-miterlimit="10"/>
<path d="M254.926 201.211H224.037C222.701 194.357 226.825 186.596 234.189 184.95C243.046 182.975 253.709 190.515 254.848 198.832C254.877 199.046 255.024 199.961 254.926 201.211Z" fill="#E9E9C0" stroke="#302C1E" stroke-width="0.254356" stroke-miterlimit="10"/>
<path d="M240.04 189.218C239.446 188.285 237.399 187.918 235.929 188.119C233.463 188.456 231.875 190.487 232.601 191.333C233.509 192.389 238.58 192.235 239.875 190.676C239.918 190.624 240.485 189.917 240.04 189.218Z" fill="#302C1E"/>
<path d="M252.363 201.211H226.953C226.511 197.43 228.219 193.717 230.899 192.81C233.423 191.963 236.78 193.61 239.569 192.108C241.544 191.056 241.15 189.539 242.594 189.272C244.597 188.906 247.807 191.399 249.536 193.61C251.057 195.547 252.324 198.399 252.363 201.211Z" stroke="#302C1E" stroke-width="0.254356" stroke-miterlimit="10"/>
<path d="M256.509 176.174C257.607 175.332 258.181 174.604 258.312 174.447C263.073 168.744 259.351 159.99 250.591 157.954C242.426 156.057 232.361 160.571 229.864 166.353C227.802 171.128 230.461 177.818 238.072 179.888C244.892 181.744 252.719 179.082 256.509 176.174Z" fill="#E9E9C0" stroke="#302C1E" stroke-width="0.254356" stroke-miterlimit="10"/>
<path d="M252.55 162.84C252.696 162.027 251.239 161.033 249.872 160.615C247.581 159.913 244.858 160.613 244.883 161.42C244.916 162.428 249.257 164.214 251.41 163.705C251.483 163.688 252.441 163.449 252.55 162.84Z" fill="#302C1E"/>
<path d="M242.445 161.727C245.136 162.126 246.812 164.421 250.171 164.506C252.547 164.566 253.262 163.457 254.644 163.823C256.568 164.333 257.535 167.111 257.462 169.158C257.333 172.813 253.736 178.514 245.206 177.985C240.864 177.715 235.87 175.87 233.381 173.296C227.882 167.606 237.114 160.937 242.445 161.727Z" stroke="#302C1E" stroke-width="0.254356" stroke-miterlimit="10"/>
<path d="M320.268 201.212H290.115C291.646 198.787 294.759 196.432 298.245 194.937C305.726 191.72 316.87 191.606 320.297 195.319C321.79 196.942 321.613 199.078 320.268 201.212Z" fill="#E9E9C0" stroke="#302C1E" stroke-width="0.254356" stroke-miterlimit="10"/>
<path d="M316.636 199.234C317.553 198.721 317.605 197.612 317.136 196.922C316.349 195.764 313.859 195.439 313.06 195.998C312.062 196.697 313.093 199.2 315.017 199.489C315.08 199.498 315.948 199.618 316.636 199.234Z" fill="#302C1E"/>
<path d="M317.126 201.212H293.375C293.414 201.044 293.463 200.876 293.532 200.716C295.692 195.204 308.466 193.375 311.157 195.486C312.512 196.554 311.284 198.62 313.396 199.672C314.888 200.411 316.478 199.862 317.009 200.526C317.156 200.709 317.185 200.945 317.126 201.212Z" stroke="#302C1E" stroke-width="0.254356" stroke-miterlimit="10"/>
<path d="M287.479 194.929C288.459 193.938 288.972 193.082 289.089 192.897C293.343 186.187 290.017 175.887 282.191 173.492C274.896 171.259 265.905 176.572 263.675 183.374C261.833 188.992 264.207 196.864 271.007 199.299C277.1 201.483 284.093 198.35 287.479 194.929Z" fill="#E9E9C0" stroke="#302C1E" stroke-width="0.254356" stroke-miterlimit="10"/>
<path d="M283.942 179.24C284.072 178.282 282.77 177.114 281.549 176.621C279.502 175.795 277.069 176.619 277.093 177.569C277.122 178.755 281 180.856 282.924 180.257C282.987 180.238 283.844 179.956 283.942 179.24Z" fill="#302C1E"/>
<path d="M274.914 177.929C277.318 178.398 278.816 181.099 281.817 181.199C283.939 181.27 284.578 179.964 285.812 180.395C287.531 180.995 288.395 184.264 288.33 186.672C288.215 190.973 285.002 197.68 277.381 197.057C273.502 196.74 269.04 194.571 266.817 191.541C261.903 184.847 270.152 177 274.914 177.929Z" stroke="#302C1E" stroke-width="0.254356" stroke-miterlimit="10"/>
<path d="M350.788 184.925V201.209H333.932C333.525 200.691 333.172 200.173 332.888 199.647C329.75 193.814 334.722 186.259 343.952 184.864C346.192 184.521 348.517 184.575 350.788 184.925Z" fill="#E9E9C0" stroke="#302C1E" stroke-width="0.254356" stroke-miterlimit="10"/>
<path d="M350.315 188.296C349.687 187.551 347.427 187.244 345.786 187.391C343.036 187.639 341.204 189.239 341.983 189.915C342.956 190.76 348.594 190.679 350.084 189.451C350.134 189.411 350.786 188.854 350.315 188.296Z" fill="#302C1E"/>
<path d="M350.788 190.04V201.209H337.054C333.54 197.412 335.827 192.045 340.039 191.069C342.87 190.421 346.553 191.755 349.706 190.589C350.167 190.414 350.512 190.231 350.788 190.04Z" stroke="#302C1E" stroke-width="0.254356" stroke-miterlimit="10"/>
<path d="M329.046 181.425C330.535 180.458 331.315 179.622 331.493 179.443C337.953 172.894 332.902 162.844 321.016 160.507C309.936 158.328 296.279 163.512 292.89 170.151C290.092 175.633 293.699 183.314 304.027 185.691C313.282 187.82 323.903 184.764 329.046 181.425Z" fill="#E9E9C0" stroke="#302C1E" stroke-width="0.254356" stroke-miterlimit="10"/>
<path d="M323.674 166.116C323.872 165.182 321.895 164.041 320.04 163.56C316.931 162.754 313.236 163.558 313.271 164.485C313.315 165.642 319.205 167.693 322.129 167.108C322.224 167.088 323.526 166.815 323.674 166.116Z" fill="#302C1E"/>
<path d="M309.961 164.836C313.612 165.294 315.888 167.929 320.446 168.027C323.67 168.095 324.64 166.822 326.514 167.243C329.125 167.828 330.436 171.018 330.339 173.369C330.164 177.565 325.283 184.11 313.708 183.503C307.816 183.193 301.039 181.076 297.663 178.119C290.2 171.586 302.728 163.93 309.961 164.836Z" stroke="#302C1E" stroke-width="0.254356" stroke-miterlimit="10"/>
<path d="M350.788 152.38V176.196C349.883 175.228 349.1 174.199 348.463 173.154C344.466 166.552 345.548 157.671 350.788 152.38Z" fill="#E9E9C0" stroke="#302C1E" stroke-width="0.254356" stroke-miterlimit="10"/>
<path d="M350.788 98.3359V110.93C349.791 110.419 348.916 109.825 348.203 109.146C344.612 105.731 346.561 101.378 350.788 98.3359Z" fill="#E9E9C0" stroke="#302C1E" stroke-width="0.254356" stroke-miterlimit="10"/>
<path d="M60.0617 124.125C61.6868 123.816 62.8384 123.414 63.09 123.33C72.2863 120.271 78.9322 111.576 75.1343 106.691C71.5935 102.137 60.0517 102.276 52.3064 106.221C45.9106 109.479 40.7041 116.057 43.6894 120.555C46.364 124.586 54.4516 125.19 60.0617 124.125Z" fill="#E9E9C0" stroke="#302C1E" stroke-width="0.254356" stroke-miterlimit="10"/>
<path d="M71.3455 111.499C72.2961 110.87 72.3498 109.508 71.8634 108.66C71.0478 107.24 68.4706 106.84 67.6427 107.527C66.6093 108.384 67.6773 111.457 69.669 111.811C69.735 111.823 70.6343 111.97 71.3455 111.499Z" fill="#302C1E"/>
<path d="M65.671 106.9C67.0751 108.211 65.8068 110.745 67.9919 112.034C69.5372 112.946 71.1837 112.275 71.7346 113.083C72.5026 114.209 70.2484 116.89 68.0556 118.582C64.1411 121.602 55.7367 125.081 50.5156 121.544C47.8578 119.743 46.4085 116.384 47.4197 113.321C49.6547 106.552 62.889 104.304 65.671 106.9Z" stroke="#302C1E" stroke-width="0.254356" stroke-miterlimit="10"/>
<path d="M343.556 43.2659C343.784 42.6781 343.82 42.2261 343.831 42.1285C344.227 38.5484 340.088 34.7015 335.73 34.9866C331.667 35.2519 328.648 39.0272 329.249 42.3084C329.746 45.0179 332.828 47.9858 336.702 47.8897C340.173 47.8036 342.769 45.2946 343.556 43.2659Z" fill="#E9E9C0" stroke="#302C1E" stroke-width="0.254356" stroke-miterlimit="10"/>
<path d="M337.988 37.1505C337.815 36.7197 336.9 36.4376 336.191 36.4308C335.002 36.4201 334.034 37.1794 334.279 37.5812C334.585 38.0836 336.97 38.3329 337.749 37.755C337.774 37.7359 338.118 37.473 337.988 37.1505Z" fill="#302C1E"/>
<path d="M333.319 38.1001C334.592 37.8988 335.978 38.8022 337.447 38.3433C338.487 38.0185 338.473 37.3537 339.173 37.3316C340.148 37.3011 341.369 38.5537 341.931 39.5935C342.935 41.4514 343.04 44.8562 339.217 45.8648C337.272 46.3779 334.589 46.1964 332.772 45.2732C328.758 43.2331 330.797 38.4988 333.319 38.1001Z" stroke="#302C1E" stroke-width="0.254356" stroke-miterlimit="10"/>
<path d="M220.448 158.519C221.145 157.347 221.391 156.388 221.451 156.181C223.627 148.628 216.467 138.612 207.287 137.41C198.731 136.29 191.016 143.17 191.028 150.493C191.038 156.541 196.332 164.223 204.432 165.629C211.691 166.89 218.042 162.564 220.448 158.519Z" fill="#E9E9C0" stroke="#302C1E" stroke-width="0.254356" stroke-miterlimit="10"/>
<path d="M211.17 143.017C210.972 142.016 209.175 141.027 207.701 140.718C205.229 140.198 202.927 141.432 203.285 142.401C203.733 143.611 208.602 145.143 210.442 144.221C210.504 144.191 211.318 143.766 211.17 143.017Z" fill="#302C1E"/>
<path d="M201.091 143.119C203.817 143.215 206.361 145.742 209.594 145.363C211.88 145.097 212.103 143.657 213.569 143.901C215.611 144.241 217.679 147.45 218.455 149.927C219.843 154.349 218.775 161.732 210.435 162.314C206.191 162.61 200.675 161.101 197.242 158.354C189.657 152.284 195.69 142.929 201.091 143.119Z" stroke="#302C1E" stroke-width="0.254356" stroke-miterlimit="10"/>
<path d="M326.984 57.6649C327.339 57.1168 327.476 56.6761 327.508 56.5808C328.694 53.1075 325.474 48.7636 321.119 48.4594C317.058 48.1758 313.243 51.489 313.105 54.8015C312.992 57.5369 315.367 60.8738 319.204 61.2992C322.642 61.6804 325.757 59.5579 326.984 57.6649Z" fill="#E9E9C0" stroke="#302C1E" stroke-width="0.254356" stroke-miterlimit="10"/>
<path d="M322.861 50.894C322.787 50.4465 321.948 50.0463 321.251 49.9441C320.083 49.7734 318.96 50.3917 319.112 50.8209C319.301 51.3568 321.594 51.9225 322.49 51.4582C322.52 51.4422 322.917 51.2287 322.861 50.894Z" fill="#302C1E"/>
<path d="M318.05 51.2027C319.349 51.1752 320.513 52.2517 322.063 51.9963C323.159 51.8156 323.294 51.1592 323.988 51.2316C324.956 51.3322 325.879 52.7297 326.202 53.8298C326.777 55.7944 326.123 59.1617 322.133 59.642C320.102 59.8867 317.5 59.3478 315.917 58.1943C312.416 55.6465 315.478 51.2576 318.05 51.2027Z" stroke="#302C1E" stroke-width="0.254356" stroke-miterlimit="10"/>
<path d="M317.348 78.5758C318.35 78.1969 319.02 77.8104 319.168 77.7288C324.552 74.7419 327.041 68.4196 323.486 65.7056C320.172 63.1753 312.612 64.5482 308.373 67.9431C304.872 70.7463 302.873 75.5492 305.809 78.1046C308.441 80.3948 313.89 79.884 317.348 78.5758Z" fill="#E9E9C0" stroke="#302C1E" stroke-width="0.254356" stroke-miterlimit="10"/>
<path d="M322.036 69.2139C322.524 68.7039 322.265 67.8234 321.762 67.334C320.918 66.5129 319.137 66.5426 318.741 67.0755C318.247 67.7411 319.614 69.5951 321.001 69.6012C321.047 69.6012 321.67 69.5959 322.036 69.2139Z" fill="#302C1E"/>
<path d="M317.309 66.8924C318.515 67.5778 318.23 69.3457 319.946 69.9305C321.159 70.3444 322.096 69.7299 322.634 70.1873C323.383 70.8246 322.481 72.797 321.406 74.1273C319.485 76.5021 314.711 79.6704 310.512 77.9795C308.375 77.1188 306.694 75.1237 306.697 73.044C306.701 68.4499 314.917 65.5347 317.309 66.8924Z" stroke="#302C1E" stroke-width="0.254356" stroke-miterlimit="10"/>
<path d="M348.554 66.7846C348.852 65.853 348.9 65.1356 348.914 64.9801C349.43 59.302 344.017 53.2015 338.316 53.6536C333.002 54.0752 329.05 60.0621 329.838 65.266C330.488 69.5635 334.52 74.2703 339.588 74.1178C344.129 73.9806 347.523 70.0018 348.554 66.7846Z" fill="#E9E9C0" stroke="#302C1E" stroke-width="0.254356" stroke-miterlimit="10"/>
<path d="M341.27 57.086C341.043 56.4029 339.846 55.9554 338.919 55.9455C337.363 55.928 336.097 57.1326 336.417 57.7699C336.818 58.5666 339.938 58.9622 340.957 58.0458C340.99 58.0153 341.439 57.5975 341.27 57.086Z" fill="#302C1E"/>
<path d="M335.162 58.593C336.826 58.2735 338.64 59.7068 340.563 58.9787C341.923 58.4633 341.905 57.409 342.82 57.3739C344.096 57.3251 345.694 59.3118 346.429 60.9616C347.741 63.9081 347.879 69.308 342.878 70.9074C340.334 71.7216 336.824 71.4342 334.447 69.9697C329.196 66.7343 331.862 59.2265 335.162 58.593Z" stroke="#302C1E" stroke-width="0.254356" stroke-miterlimit="10"/>
<path d="M165.925 177.529C167.738 177.352 169.02 177.005 169.301 176.935C179.541 174.355 186.848 164.698 182.528 158.374C178.502 152.478 165.595 151.269 156.99 155.088C149.883 158.241 144.157 165.525 147.561 171.287C150.612 176.449 159.666 178.14 165.925 177.529Z" fill="#E9E9C0" stroke="#302C1E" stroke-width="0.254356" stroke-miterlimit="10"/>
<path d="M178.361 163.701C179.416 163.057 179.455 161.427 178.899 160.351C177.966 158.547 175.078 157.759 174.162 158.486C173.019 159.393 174.258 163.214 176.491 163.876C176.564 163.898 177.573 164.183 178.361 163.701Z" fill="#302C1E"/>
<path d="M171.947 157.497C173.537 159.239 172.155 162.134 174.618 163.943C176.36 165.223 178.191 164.613 178.819 165.65C179.695 167.095 177.213 170.049 174.785 171.82C170.451 174.983 161.102 178.162 155.21 173.288C152.212 170.807 150.542 166.597 151.628 163.036C154.03 155.168 168.798 154.045 171.947 157.497Z" stroke="#302C1E" stroke-width="0.254356" stroke-miterlimit="10"/>
<path d="M108.668 133.876C109.818 132.868 110.419 131.996 110.557 131.809C115.542 124.983 111.645 114.506 102.471 112.069C93.9212 109.798 83.3815 115.202 80.7667 122.122C78.6069 127.836 81.3905 135.843 89.3614 138.321C96.503 140.543 104.699 137.356 108.668 133.876Z" fill="#E9E9C0" stroke="#302C1E" stroke-width="0.254356" stroke-miterlimit="10"/>
<path d="M104.522 117.916C104.675 116.942 103.149 115.754 101.718 115.252C99.3188 114.411 96.467 115.25 96.4946 116.216C96.5283 117.422 101.074 119.56 103.329 118.95C103.404 118.93 104.408 118.644 104.522 117.916Z" fill="#302C1E"/>
<path d="M93.9404 116.582C96.7577 117.06 98.514 119.807 102.031 119.909C104.518 119.98 105.268 118.653 106.714 119.091C108.729 119.702 109.741 123.027 109.666 125.477C109.531 129.851 105.764 136.675 96.8314 136.041C92.2847 135.719 87.0551 133.511 84.4488 130.429C78.6898 123.619 88.3586 115.638 93.9404 116.582Z" stroke="#302C1E" stroke-width="0.254356" stroke-miterlimit="10"/>
<path d="M69.0731 156.634C70.4511 155.747 71.3012 154.909 71.4899 154.73C78.3836 148.214 78.8908 136.129 71.7991 131.826C65.1885 127.815 53.9813 131.784 49.1201 138.829C45.1058 144.648 44.5473 153.849 50.5748 157.979C55.9777 161.681 64.3146 159.699 69.0731 156.634Z" fill="#E9E9C0" stroke="#302C1E" stroke-width="0.254356" stroke-miterlimit="10"/>
<path d="M71.4085 138.548C71.9049 137.518 71.0172 135.951 69.9561 135.148C68.1768 133.801 65.3772 134.198 65.0411 135.252C64.6207 136.569 67.7879 139.712 69.9822 139.457C70.0551 139.448 71.0371 139.319 71.4085 138.548Z" fill="#302C1E"/>
<path d="M62.6772 135.189C64.9567 136.216 65.4639 139.518 68.4937 140.263C70.6367 140.79 71.7852 139.483 72.8832 140.22C74.4123 141.247 74.0555 145.041 73.0765 147.69C71.3272 152.417 65.4984 159.15 57.9433 156.85C54.0979 155.679 50.3598 152.337 49.2358 148.519C46.7522 140.081 58.1604 133.155 62.6772 135.189Z" stroke="#302C1E" stroke-width="0.254356" stroke-miterlimit="10"/>
<path d="M141.226 149.071C142.226 148.194 142.75 147.436 142.869 147.273C147.207 141.333 143.815 132.217 135.834 130.097C128.394 128.12 119.223 132.823 116.947 138.844C115.068 143.817 117.49 150.784 124.426 152.94C130.64 154.872 137.773 152.099 141.226 149.071Z" fill="#E9E9C0" stroke="#302C1E" stroke-width="0.254356" stroke-miterlimit="10"/>
<path d="M137.618 135.183C137.751 134.336 136.424 133.301 135.178 132.865C133.091 132.133 130.609 132.864 130.633 133.704C130.662 134.754 134.618 136.614 136.581 136.083C136.645 136.066 137.519 135.817 137.618 135.183Z" fill="#302C1E"/>
<path d="M128.411 134.023C130.862 134.438 132.39 136.828 135.451 136.917C137.615 136.979 138.267 135.824 139.526 136.205C141.279 136.737 142.16 139.63 142.094 141.762C141.976 145.568 138.699 151.505 130.926 150.954C126.97 150.674 122.42 148.753 120.152 146.071C115.141 140.145 123.553 133.2 128.411 134.023Z" stroke="#302C1E" stroke-width="0.254356" stroke-miterlimit="10"/>
<path d="M30.387 198.438C30.2097 198.491 29.3757 198.743 28.2371 198.88C27.2842 199.002 26.2438 199.04 25.2126 198.964V184.578C25.4582 184.448 25.7137 184.326 25.9592 184.212C31.7619 181.566 39.4888 182.169 41.1093 186.003C42.8563 190.105 37.0145 196.585 30.387 198.438Z" fill="#E9E9C0" stroke="#302C1E" stroke-width="0.254356" stroke-miterlimit="10"/>
<path d="M37.8077 189.577C38.5435 189.137 38.799 188.06 38.6118 187.359C38.2972 186.183 36.6423 185.705 35.9794 186.199C35.1515 186.814 35.3679 189.316 36.6392 189.721C36.6806 189.734 37.2568 189.906 37.8077 189.577Z" fill="#302C1E"/>
<path d="M34.4718 194.984C32.2038 196.555 28.2962 198.178 25.2126 197.706V185.988C28.9046 184.021 33.7544 184.014 34.7656 185.577C35.4922 186.705 34.2355 188.634 35.4823 189.792C36.3661 190.608 37.5738 190.181 37.8093 190.86C38.1438 191.797 36.2096 193.779 34.4718 194.984Z" stroke="#302C1E" stroke-width="0.254356" stroke-miterlimit="10"/>
<path d="M70.6329 201.212H46.7546C46.8329 200.8 46.9411 200.404 47.0884 200.022C49.0226 194.914 56.7987 190.927 63.1024 192.605C67.4811 193.771 70.2309 197.423 70.6329 201.212Z" fill="#E9E9C0" stroke="#302C1E" stroke-width="0.254356" stroke-miterlimit="10"/>
<path d="M64.6169 196.916C64.7296 196.198 63.6041 195.321 62.5484 194.95C60.7783 194.33 58.6745 194.949 58.6945 195.661C58.7198 196.551 62.0727 198.128 63.7368 197.678C63.7921 197.664 64.5325 197.454 64.6169 196.916Z" fill="#302C1E"/>
<path d="M68.3258 201.212H48.7871C49.8965 197.979 54.0397 195.464 56.8087 195.929C58.8902 196.287 60.1861 198.315 62.7786 198.383C64.6147 198.437 65.1648 197.461 66.2351 197.781C67.3829 198.133 68.0903 199.687 68.3258 201.212Z" stroke="#302C1E" stroke-width="0.254356" stroke-miterlimit="10"/>
<path d="M138.4 201.211H114.365C114.443 200.54 114.6 199.892 114.826 199.282C116.751 194.182 124.527 190.195 130.84 191.872C135.504 193.107 138.312 197.164 138.4 201.211Z" fill="#E9E9C0" stroke="#302C1E" stroke-width="0.254356" stroke-miterlimit="10"/>
<path d="M132.351 196.183C132.464 195.465 131.338 194.588 130.282 194.218C128.512 193.597 126.409 194.216 126.429 194.929C126.454 195.819 129.807 197.396 131.471 196.946C131.526 196.931 132.267 196.721 132.351 196.183Z" fill="#302C1E"/>
<path d="M136.132 201.211H116.328C116.995 197.643 121.561 194.693 124.546 195.196C126.627 195.554 127.914 197.574 130.516 197.651C132.352 197.704 132.902 196.728 133.972 197.048C135.307 197.453 136.044 199.496 136.132 201.211Z" stroke="#302C1E" stroke-width="0.254356" stroke-miterlimit="10"/>
<path d="M188.171 100.438C189.137 99.3261 189.583 98.4014 189.686 98.2016C193.453 90.9317 187.814 80.8661 178.328 79.3078C169.487 77.8547 159.986 84.2343 158.579 91.3731C157.417 97.2685 161.533 104.98 169.837 106.693C177.278 108.229 184.84 104.28 188.171 100.438Z" fill="#E9E9C0" stroke="#302C1E" stroke-width="0.254356" stroke-miterlimit="10"/>
<path d="M181.353 84.9352C181.338 83.951 179.627 82.9118 178.126 82.5474C175.61 81.9368 172.933 83.0422 173.125 84.0013C173.364 85.1997 178.223 86.899 180.349 86.0779C180.42 86.0513 181.364 85.6717 181.353 84.9352Z" fill="#302C1E"/>
<path d="M170.662 84.6087C173.529 84.8176 175.734 87.3875 179.229 87.1558C181.701 86.9919 182.216 85.599 183.721 85.8986C185.817 86.3164 187.384 89.5313 187.727 91.9785C188.338 96.3476 185.776 103.499 176.835 103.714C172.285 103.823 166.738 102.119 163.635 99.2964C156.781 93.0595 164.981 84.1955 170.662 84.6087Z" stroke="#302C1E" stroke-width="0.254356" stroke-miterlimit="10"/>
<path d="M150.44 59.4175C149.246 57.6168 147.944 56.4358 147.669 56.1751C137.654 46.6646 114.327 43.1463 103.206 50.2562C92.8394 56.8834 96.226 70.7356 108.058 78.0368C117.829 84.0663 135.523 86.9435 145.897 81.0146C155.193 75.7032 154.562 65.6346 150.44 59.4175Z" fill="#E9E9C0" stroke="#302C1E" stroke-width="0.254356" stroke-miterlimit="10"/>
<path d="M116.138 52.3384C114.324 51.5173 110.931 52.1578 108.957 53.1831C105.647 54.9015 105.335 58.2178 107.257 58.8612C109.657 59.664 117.001 56.7861 117.354 54.2001C117.366 54.114 117.495 52.9529 116.138 52.3384Z" fill="#302C1E"/>
<path d="M106.22 61.5655C109.101 59.1938 115.724 59.4126 118.348 56.1092C120.204 53.7726 118.105 52.1351 119.965 51.0518C122.556 49.5423 129.804 50.8749 134.578 52.6444C143.104 55.8044 153.952 64.1424 146.55 72.2715C142.782 76.4089 134.829 79.8959 126.962 80.2603C109.577 81.0662 100.512 66.2647 106.22 61.5655Z" stroke="#302C1E" stroke-width="0.254356" stroke-miterlimit="10"/>
<path d="M47.314 98.0872C40.6174 100.466 31.6337 96.3872 25.2126 91.2336V51.1025C34.7365 51.4456 46.9411 60.8913 52.0172 71.5187C56.8187 81.559 56.3176 94.8845 47.314 98.0872Z" fill="#E9E9C0" stroke="#302C1E" stroke-width="0.254356" stroke-miterlimit="10"/>
<path d="M50.505 85.2324C48.4035 90.1649 42.709 93.2601 37.1717 93.222C32.4493 93.1915 28.4136 90.874 25.2126 87.6644V65.0069C29.1693 64.9459 30.367 60.7833 33.5779 60.3488C40.1663 59.4575 55.1491 74.3466 50.505 85.2324Z" stroke="#302C1E" stroke-width="0.254356" stroke-miterlimit="10"/>
<path d="M91.0066 46.7943C90.1426 52.6035 83.6525 59.8918 72.1353 60.3568C59.2832 60.8828 46.4011 52.6645 42.3853 45.0104C38.8606 38.3092 41.4431 30.7464 48.188 26.6982H73.5294C82.4249 30.4033 89.7889 37.0665 90.9275 43.5466C90.9766 43.8287 91.2521 45.1087 91.0066 46.7943Z" fill="#E9E9C0" stroke="#302C1E" stroke-width="0.254356" stroke-miterlimit="10"/>
<path d="M67.0813 29.8051C66.1276 28.5937 62.8284 27.8534 60.4538 27.8816C56.4726 27.9281 53.9 30.1459 55.0685 31.2704C56.5278 32.6746 64.7105 33.2289 66.8082 31.5372C66.878 31.4815 67.7956 30.7123 67.0813 29.8051Z" fill="#302C1E"/>
<path d="M52.3134 32.8043C56.389 32.1495 61.8073 34.6241 66.3149 33.2252C69.5028 32.2356 68.8791 30.3503 71.1977 30.2421C74.4286 30.0911 79.5968 33.5652 82.3803 36.4805C87.3498 41.6859 90.6658 51.3383 78.7766 54.4495C72.7253 56.0329 63.6073 55.6929 56.7358 53.1923C41.552 47.6659 44.2389 34.1019 52.3134 32.8043Z" stroke="#302C1E" stroke-width="0.254356" stroke-miterlimit="10"/>
<path d="M162.2 37.4558C155.504 46.3907 120.02 43.4099 107.471 31.0519C106.087 29.6873 104.987 28.2159 104.182 26.6988C104.162 26.6835 104.162 26.6683 104.162 26.653C107.275 26.6454 110.397 26.6378 113.52 26.6378C127.285 26.5997 141.051 26.5692 154.816 26.5387C156.888 26.5387 158.959 26.5311 161.041 26.5234C161.08 26.5844 161.119 26.6454 161.149 26.6988C163.643 30.8232 164.252 34.7189 162.2 37.4558Z" fill="#E9E9C0" stroke="#302C1E" stroke-width="0.254356" stroke-miterlimit="10"/>
<path d="M155.386 29.2531C155.533 33.7968 151.567 38.1652 145.136 39.4078C133.52 41.6568 118.184 32.8819 113.57 26.6991C113.55 26.6763 113.53 26.6534 113.521 26.6382C127.286 26.6001 141.052 26.5696 154.817 26.5391C154.837 26.5924 154.856 26.6458 154.876 26.6991C155.18 27.5301 155.356 28.384 155.386 29.2531Z" stroke="#302C1E" stroke-width="0.254356" stroke-miterlimit="10"/>
<path d="M35.9249 142.883C35.7776 142.997 35.1001 143.523 34.0498 144.049C31.6345 145.269 28.188 146.054 25.2134 145.559V128.192C29.5829 125.227 35.6502 124.319 38.9494 126.965C43.2391 130.418 41.413 138.797 35.9249 142.883Z" fill="#E9E9C0" stroke="#302C1E" stroke-width="0.254356" stroke-miterlimit="10"/>
<path d="M37.8583 131.619C38.3218 130.934 37.9105 129.787 37.2875 129.16C36.2425 128.107 34.2899 128.202 33.9316 128.914C33.4843 129.803 35.2528 132.195 36.7765 132.159C36.8272 132.158 37.5108 132.131 37.8583 131.619Z" fill="#302C1E"/>
<path d="M37.8684 138.089C36.1007 141.268 31.31 145.575 26.4594 143.486C26.0275 143.303 25.6147 143.074 25.2126 142.8V130.312C27.7162 128.536 30.8389 127.812 32.3312 128.719C33.7552 129.58 33.6961 131.913 35.6695 132.622C37.0544 133.133 37.9965 132.294 38.6541 132.881C39.5671 133.69 38.8604 136.311 37.8684 138.089Z" stroke="#302C1E" stroke-width="0.254356" stroke-miterlimit="10"/>
<path d="M30.8388 118.868C30.6915 118.982 30.014 119.508 28.9637 120.042C27.8742 120.591 26.5775 121.048 25.2134 121.345V101.875C28.4535 101.021 31.7327 101.25 33.8633 102.957C38.153 106.411 36.327 114.782 30.8388 118.868Z" fill="#E9E9C0" stroke="#302C1E" stroke-width="0.254356" stroke-miterlimit="10"/>
<path d="M32.7714 107.608C33.2349 106.924 32.8236 105.776 32.2006 105.149C31.1556 104.097 29.203 104.191 28.8447 104.903C28.3974 105.792 30.1659 108.184 31.6896 108.149C31.741 108.147 32.4246 108.12 32.7714 107.608Z" fill="#302C1E"/>
<path d="M32.783 114.074C31.4872 116.4 28.5808 119.327 25.2134 119.914V104.324C26.0182 104.27 26.7348 104.392 27.2458 104.705C28.6698 105.566 28.6107 107.899 30.5841 108.616C31.9682 109.119 32.9112 108.28 33.5687 108.867C34.481 109.683 33.7743 112.297 32.783 114.074Z" stroke="#302C1E" stroke-width="0.254356" stroke-miterlimit="10"/>
<path d="M35.4239 26.6982C35.414 26.805 35.404 26.9117 35.3848 27.0261C34.7664 31.1581 31.31 36.0373 25.2126 38.6827V26.6982H35.4239Z" fill="#E9E9C0" stroke="#302C1E" stroke-width="0.254356" stroke-miterlimit="10"/>
<path d="M31.2708 26.6982C31.1726 29.641 29.5031 32.3702 25.2126 34.0322V26.6982H31.2708Z" stroke="#302C1E" stroke-width="0.254356" stroke-miterlimit="10"/>
</g>
</g>
</g>
<defs>
<filter id="filter0_d_4684_365350" x="12" y="24" width="352" height="292" filterUnits="userSpaceOnUse" color-interpolation-filters="sRGB">
<feFlood flood-opacity="0" result="BackgroundImageFix"/>
<feColorMatrix in="SourceAlpha" type="matrix" values="0 0 0 0 0 0 0 0 0 0 0 0 0 0 0 0 0 0 127 0" result="hardAlpha"/>
<feOffset dy="12"/>
<feGaussianBlur stdDeviation="8"/>
<feColorMatrix type="matrix" values="0 0 0 0 0 0 0 0 0 0 0 0 0 0 0 0 0 0 0.04 0"/>
<feBlend mode="normal" in2="BackgroundImageFix" result="effect1_dropShadow_4684_365350"/>
<feBlend mode="normal" in="SourceGraphic" in2="effect1_dropShadow_4684_365350" result="shape"/>
</filter>
<clipPath id="clip0_4684_365350">
<path d="M28 70C28 46.804 46.804 28 70 28H306C329.196 28 348 46.804 348 70V246C348 269.196 329.196 288 306 288H70C46.804 288 28 269.196 28 246V70Z" fill="white"/>
</clipPath>
</defs>
</svg>
