<svg width="150" height="140" viewBox="0 0 150 140" fill="none" xmlns="http://www.w3.org/2000/svg">
<path d="M59.5 139C68.0604 139 75 132.06 75 123.5C75 114.94 68.0604 108 59.5 108C50.9396 108 44 114.94 44 123.5C44 132.06 50.9396 139 59.5 139Z" fill="url(#paint0_radial)"/>
<path d="M83.5 101C92.0604 101 99 94.0604 99 85.5C99 76.9396 92.0604 70 83.5 70C74.9396 70 68 76.9396 68 85.5C68 94.0604 74.9396 101 83.5 101Z" fill="url(#paint1_radial)"/>
<path d="M28.5 102C39.2696 102 48 93.0457 48 82C48 70.9543 39.2696 62 28.5 62C17.7304 62 9 70.9543 9 82C9 93.0457 17.7304 102 28.5 102Z" fill="url(#paint2_radial)"/>
<path d="M64.5 56C79.1355 56 91 44.1355 91 29.5C91 14.8645 79.1355 3 64.5 3C49.8645 3 38 14.8645 38 29.5C38 44.1355 49.8645 56 64.5 56Z" fill="url(#paint3_radial)"/>
<path d="M121 77C133.15 77 143 67.1503 143 55C143 42.8497 133.15 33 121 33C108.85 33 99 42.8497 99 55C99 67.1503 108.85 77 121 77Z" fill="url(#paint4_radial)"/>
<defs>
<radialGradient id="paint0_radial" cx="0" cy="0" r="1" gradientUnits="userSpaceOnUse" gradientTransform="translate(52.4274 114.017) scale(27.3941)">
<stop stop-color="#6699FF"/>
<stop offset="0.0938" stop-color="#497FFF"/>
<stop offset="0.2384" stop-color="#215DFF"/>
<stop offset="0.3536" stop-color="#0948FF"/>
<stop offset="0.4242" stop-color="#0040FF"/>
<stop offset="0.8182" stop-color="#001CAD"/>
<stop offset="0.8529" stop-color="#0121B3"/>
<stop offset="0.8997" stop-color="#022DC4"/>
<stop offset="0.9533" stop-color="#0542E0"/>
<stop offset="1" stop-color="#0859FF"/>
</radialGradient>
<radialGradient id="paint1_radial" cx="0" cy="0" r="1" gradientUnits="userSpaceOnUse" gradientTransform="translate(76.4274 76.017) scale(27.3941)">
<stop stop-color="#6699FF"/>
<stop offset="0.0938" stop-color="#497FFF"/>
<stop offset="0.2384" stop-color="#215DFF"/>
<stop offset="0.3536" stop-color="#0948FF"/>
<stop offset="0.4242" stop-color="#0040FF"/>
<stop offset="0.8182" stop-color="#001CAD"/>
<stop offset="0.8529" stop-color="#0121B3"/>
<stop offset="0.8997" stop-color="#022DC4"/>
<stop offset="0.9533" stop-color="#0542E0"/>
<stop offset="1" stop-color="#0859FF"/>
</radialGradient>
<radialGradient id="paint2_radial" cx="0" cy="0" r="1" gradientUnits="userSpaceOnUse" gradientTransform="translate(19.6022 69.7638) scale(34.4635 35.3472)">
<stop stop-color="#6699FF"/>
<stop offset="0.0938" stop-color="#497FFF"/>
<stop offset="0.2384" stop-color="#215DFF"/>
<stop offset="0.3536" stop-color="#0948FF"/>
<stop offset="0.4242" stop-color="#0040FF"/>
<stop offset="0.8182" stop-color="#001CAD"/>
<stop offset="0.8529" stop-color="#0121B3"/>
<stop offset="0.8997" stop-color="#022DC4"/>
<stop offset="0.9533" stop-color="#0542E0"/>
<stop offset="1" stop-color="#0859FF"/>
</radialGradient>
<radialGradient id="paint3_radial" cx="0" cy="0" r="1" gradientUnits="userSpaceOnUse" gradientTransform="translate(52.4081 13.2871) scale(46.835)">
<stop stop-color="#6699FF"/>
<stop offset="0.0938" stop-color="#497FFF"/>
<stop offset="0.2384" stop-color="#215DFF"/>
<stop offset="0.3536" stop-color="#0948FF"/>
<stop offset="0.4242" stop-color="#0040FF"/>
<stop offset="0.8182" stop-color="#001CAD"/>
<stop offset="0.8529" stop-color="#0121B3"/>
<stop offset="0.8997" stop-color="#022DC4"/>
<stop offset="0.9533" stop-color="#0542E0"/>
<stop offset="1" stop-color="#0859FF"/>
</radialGradient>
<radialGradient id="paint4_radial" cx="0" cy="0" r="1" gradientUnits="userSpaceOnUse" gradientTransform="translate(110.961 41.5402) scale(38.8819)">
<stop stop-color="#6699FF"/>
<stop offset="0.0938" stop-color="#497FFF"/>
<stop offset="0.2384" stop-color="#215DFF"/>
<stop offset="0.3536" stop-color="#0948FF"/>
<stop offset="0.4242" stop-color="#0040FF"/>
<stop offset="0.8182" stop-color="#001CAD"/>
<stop offset="0.8529" stop-color="#0121B3"/>
<stop offset="0.8997" stop-color="#022DC4"/>
<stop offset="0.9533" stop-color="#0542E0"/>
<stop offset="1" stop-color="#0859FF"/>
</radialGradient>
</defs>
</svg>
