<svg width="150" height="140" viewBox="0 0 150 140" fill="none" xmlns="http://www.w3.org/2000/svg">
<path d="M77.9293 31.3159C75.9889 34.6138 75.7153 37.5504 76.0369 46.5025C76.0673 47.3385 30.2904 67.6293 13.724 76.7301C-3.8087 86.3616 7.03403 96.2744 11.6859 97.9833C36.3756 107.057 62.2299 95.2145 68.5119 93.0436C82.9299 88.064 120.819 69.0249 120.819 69.0249C120.819 69.0249 123.047 52.5515 104.299 31.7715C102.857 30.1745 99.482 27.4649 97.7623 26.1733C86.5085 17.7183 80.5256 26.9038 77.9293 31.3159Z" fill="#457D43"/>
<path d="M11.398 80.012C11.398 80.012 6.0774 84.7582 6.57811 90.0271C7.03082 94.7861 11.9115 96.698 11.9115 96.698C11.9115 96.698 10.6077 92.2684 10.7757 85.6774C10.8045 84.56 11.398 80.012 11.398 80.012Z" fill="#185917"/>
<path d="M81.327 30.7676C81.327 30.7676 83.2914 25.3676 88.4328 24.6003C93.1135 23.9017 98.2902 27.0189 98.2902 27.0189L90.9012 28.715L81.327 30.7676Z" fill="#185917"/>
<path opacity="0.4902" d="M65.5588 51.2951C65.5588 51.2951 66.6194 28.5616 80.2552 35.6402C97.06 44.3652 100.696 67.1659 100.696 67.1659C100.696 67.1659 84.3009 74.6792 79.0507 77.5982C29.8089 104.974 3.21393 84.3235 19.9659 73.8208C30.7367 67.0699 65.5588 51.2951 65.5588 51.2951Z" fill="#C1D1B6"/>
<path d="M43.3311 77.993C43.0736 75.002 47.3623 72.1917 52.9069 71.7169C58.453 71.2405 63.1561 73.2803 63.4137 76.2713C63.6712 79.2622 59.3824 82.0725 53.8379 82.5473C48.2918 83.0221 43.5871 80.9839 43.3311 77.993Z" fill="url(#paint0_linear)"/>
<path d="M43.3232 77.7931C43.3232 77.1553 43.4432 76.8995 43.4432 76.8995C43.4432 76.8995 44.331 78.5493 45.9339 79.355C51.6752 82.2388 60.7519 80.0056 61.2942 79.98C61.5149 79.9704 60.136 80.944 58.25 81.6266C56.8742 82.1237 55.1546 82.3987 53.9564 82.5473C51.4353 82.8607 48.9094 82.4578 47.0089 81.7321C44.7469 80.8672 43.3232 79.4237 43.3232 77.7931Z" fill="url(#paint1_linear)"/>
<path d="M50.9378 80.4691C50.8674 79.8793 52.6878 79.5723 55.1898 79.2766C57.6901 78.9809 59.0562 79.0944 59.1458 79.5532C59.2178 79.9224 57.8117 80.7361 55.3113 81.0334C52.811 81.3308 51.0082 81.059 50.9378 80.4691Z" fill="#B0D6B0"/>
<path d="M43.4912 73.517C43.2336 70.526 47.5224 67.7157 53.0669 67.241C58.6131 66.7662 63.3162 68.8044 63.5737 71.7953C63.8313 74.7863 59.5425 77.5966 53.998 78.0714C48.4518 78.5461 43.7471 76.5079 43.4912 73.517Z" fill="url(#paint2_linear)"/>
<path d="M43.4832 73.3171C43.4832 72.6793 43.6031 72.4235 43.6031 72.4235C43.6031 72.4235 44.491 74.0733 46.0939 74.8789C51.8352 77.7628 60.9118 75.5296 61.4541 75.504C61.6749 75.4944 60.2959 76.4679 58.4099 77.1505C57.0342 77.6477 55.3145 77.9227 54.1163 78.0713C51.5952 78.3846 49.0693 77.9818 47.1689 77.256C44.9069 76.3912 43.4832 74.9477 43.4832 73.3171Z" fill="url(#paint3_linear)"/>
<path d="M51.0977 75.9931C51.0274 75.4033 52.8478 75.0963 55.3497 74.8006C57.85 74.5048 59.2162 74.6184 59.3058 75.0771C59.3778 75.4464 57.9716 76.2601 55.4713 76.5574C52.971 76.8548 51.1681 76.583 51.0977 75.9931Z" fill="#B0D6B0"/>
<path d="M80.5512 63.9334C80.3145 61.2398 84.2721 58.7092 89.3895 58.2824C94.5086 57.854 98.8501 59.6908 99.0869 62.3828C99.3236 65.0764 95.366 67.607 90.2486 68.0338C85.1296 68.4622 80.788 66.6254 80.5512 63.9334Z" fill="url(#paint4_linear)"/>
<path d="M80.5432 63.7529C80.5432 63.1775 80.6536 62.9489 80.6536 62.9489C80.6536 62.9489 81.4742 64.4355 82.9524 65.1597C88.2521 67.7558 96.6297 65.7464 97.1304 65.7224C97.3352 65.7128 96.0618 66.5904 94.3214 67.2043C93.0512 67.6519 91.4643 67.8997 90.3589 68.034C88.0314 68.3153 85.7006 67.954 83.9458 67.3002C81.8582 66.5217 80.5432 65.222 80.5432 63.7529Z" fill="url(#paint5_linear)"/>
<path d="M87.5723 66.1636C87.5083 65.6312 89.188 65.3563 91.4964 65.0893C93.8047 64.8223 95.0653 64.9263 95.1469 65.3387C95.2141 65.6712 93.9167 66.4049 91.6083 66.6703C89.3 66.9373 87.6363 66.6943 87.5723 66.1636Z" fill="#B0D6B0"/>
<path d="M85.1888 56.2058C84.9904 53.9902 88.3002 51.9088 92.5794 51.5572C96.8586 51.2055 100.49 52.7145 100.688 54.9302C100.887 57.1458 97.5768 59.2272 93.2976 59.5789C89.0185 59.9305 85.3872 58.4199 85.1888 56.2058Z" fill="url(#paint6_linear)"/>
<path d="M85.1824 56.0571C85.1824 55.5839 85.2752 55.3953 85.2752 55.3953C85.2752 55.3953 85.9615 56.6182 87.198 57.2145C91.6292 59.3502 98.6343 57.6956 99.0534 57.678C99.2245 57.6701 98.1591 58.3926 96.7034 58.8978C95.6412 59.267 94.3135 59.4701 93.3905 59.5804C91.4452 59.8122 89.4952 59.5148 88.0283 58.9761C86.2814 58.3351 85.1824 57.2656 85.1824 56.0571Z" fill="url(#paint7_linear)"/>
<path d="M91.0597 58.0394C91.0053 57.6014 92.4114 57.376 94.3406 57.1554C96.2699 56.9363 97.3241 57.0211 97.3945 57.36C97.4505 57.6333 96.3659 58.236 94.435 58.4566C92.5042 58.6772 91.1141 58.4774 91.0597 58.0394Z" fill="#B0D6B0"/>
<path d="M85.1888 51.0904C84.9904 48.8747 88.3002 46.7934 92.5794 46.4417C96.8586 46.09 100.49 47.5991 100.688 49.8147C100.887 52.0303 97.5768 54.1117 93.2976 54.4634C89.0185 54.8151 85.3872 53.3044 85.1888 51.0904Z" fill="url(#paint8_linear)"/>
<path d="M85.1824 50.9419C85.1824 50.4687 85.2752 50.2801 85.2752 50.2801C85.2752 50.2801 85.9615 51.503 87.198 52.0993C91.6292 54.235 98.6343 52.5805 99.0534 52.5629C99.2245 52.5549 98.1591 53.2774 96.7034 53.7826C95.6412 54.1519 94.3135 54.3549 93.3905 54.4652C91.4452 54.697 89.4952 54.3996 88.0283 53.8609C86.2814 53.2199 85.1824 52.1504 85.1824 50.9419Z" fill="url(#paint9_linear)"/>
<path d="M91.0597 52.9242C91.0053 52.4862 92.4114 52.2608 94.3406 52.0402C96.2699 51.8212 97.3241 51.9059 97.3945 52.2448C97.4505 52.5182 96.3659 53.1208 94.435 53.3414C92.5042 53.562 91.1141 53.3622 91.0597 52.9242Z" fill="#B0D6B0"/>
<path d="M85.5088 45.3355C85.3104 43.1199 88.6202 41.0385 92.8994 40.6869C97.1785 40.3352 100.81 41.8442 101.008 44.0599C101.207 46.2755 97.8968 48.3569 93.6176 48.7086C89.3384 49.0602 85.7071 47.5496 85.5088 45.3355Z" fill="url(#paint10_linear)"/>
<path d="M85.5025 45.1871C85.5025 44.7139 85.5953 44.5253 85.5953 44.5253C85.5953 44.5253 86.2816 45.7482 87.5182 46.3445C91.9493 48.4802 98.9544 46.8256 99.3735 46.808C99.5447 46.8001 98.4793 47.5226 97.0235 48.0278C95.9613 48.397 94.6336 48.6001 93.7106 48.7104C91.7654 48.9422 89.8153 48.6448 88.3484 48.1061C86.6015 47.4651 85.5025 46.3956 85.5025 45.1871Z" fill="url(#paint11_linear)"/>
<path d="M91.3798 47.1694C91.3254 46.7314 92.7315 46.506 94.6608 46.2854C96.59 46.0664 97.6442 46.1511 97.7146 46.49C97.7706 46.7633 96.686 47.366 94.7552 47.5866C92.8243 47.8072 91.4342 47.6074 91.3798 47.1694Z" fill="#B0D6B0"/>
<path d="M85.5088 40.8595C85.3104 38.6439 88.6202 36.5625 92.8994 36.2108C97.1785 35.8592 100.81 37.3682 101.008 39.5839C101.207 41.7995 97.8968 43.8808 93.6176 44.2325C89.3384 44.5842 85.7071 43.0736 85.5088 40.8595Z" fill="url(#paint12_linear)"/>
<path d="M85.5025 40.7106C85.5025 40.2375 85.5953 40.0488 85.5953 40.0488C85.5953 40.0488 86.2816 41.2717 87.5182 41.868C91.9493 44.0037 98.9544 42.3492 99.3735 42.3316C99.5447 42.3236 98.4793 43.0462 97.0235 43.5513C95.9613 43.9206 94.6336 44.1236 93.7106 44.2339C91.7654 44.4657 89.8153 44.1684 88.3484 43.6297C86.6015 42.9886 85.5025 41.9192 85.5025 40.7106Z" fill="url(#paint13_linear)"/>
<path d="M91.3798 42.6929C91.3254 42.2549 92.7315 42.0295 94.6608 41.8089C96.59 41.5899 97.6442 41.6746 97.7146 42.0135C97.7706 42.2869 96.686 42.8896 94.7552 43.1102C92.8243 43.3308 91.4342 43.1309 91.3798 42.6929Z" fill="#B0D6B0"/>
<path d="M63.436 67.8435C63.1769 64.8894 67.5089 62.1142 73.1126 61.6442C78.7163 61.1742 83.4706 63.1885 83.7298 66.1426C83.9889 69.0968 79.657 71.872 74.0532 72.342C68.4479 72.8103 63.6952 70.7961 63.436 67.8435Z" fill="url(#paint14_linear)"/>
<path d="M63.4281 67.6453C63.4281 67.0139 63.5496 66.7629 63.5496 66.7629C63.5496 66.7629 64.4471 68.3918 66.0676 69.1879C71.8696 72.035 81.0407 69.8306 81.5894 69.805C81.8133 69.7954 80.42 70.7561 78.5132 71.4307C77.123 71.9231 75.3842 72.1933 74.1748 72.3403C71.6265 72.6489 69.075 72.2524 67.1537 71.5363C64.8662 70.6826 63.4281 69.2567 63.4281 67.6453Z" fill="url(#paint15_linear)"/>
<path d="M71.1226 70.2895C71.0522 69.706 72.8918 69.4039 75.4193 69.1113C77.9469 68.8188 79.3258 68.9323 79.417 69.3847C79.4906 69.7507 78.07 70.5532 75.5425 70.8458C73.015 71.1383 71.193 70.8714 71.1226 70.2895Z" fill="#B0D6B0"/>
<path d="M85.5088 36.5433C85.3104 34.3277 88.6202 32.2463 92.8994 31.8946C97.1785 31.5429 100.81 33.052 101.008 35.2676C101.207 37.4833 97.8968 39.5646 93.6176 39.9163C89.3384 40.268 85.7071 38.7573 85.5088 36.5433Z" fill="url(#paint16_linear)"/>
<path d="M85.5025 36.3946C85.5025 35.9214 85.5953 35.7328 85.5953 35.7328C85.5953 35.7328 86.2816 36.9557 87.5182 37.552C91.9493 39.6877 98.9544 38.0332 99.3735 38.0156C99.5447 38.0076 98.4793 38.7301 97.0235 39.2353C95.9613 39.6046 94.6336 39.8076 93.7106 39.9179C91.7654 40.1497 89.8153 39.8523 88.3484 39.3136C86.6015 38.6726 85.5025 37.6031 85.5025 36.3946Z" fill="url(#paint17_linear)"/>
<path d="M91.3798 38.3769C91.3254 37.9389 92.7315 37.7135 94.6608 37.4929C96.59 37.2739 97.6442 37.3586 97.7146 37.6975C97.7706 37.9709 96.686 38.5735 94.7552 38.7941C92.8243 39.0147 91.4342 38.8149 91.3798 38.3769Z" fill="#B0D6B0"/>
<path d="M63.2761 61.7689C63.017 58.8148 67.3489 56.0396 72.9527 55.5696C78.5564 55.0997 83.3107 57.1139 83.5698 60.0681C83.829 63.0222 79.497 65.7974 73.8933 66.2674C68.288 66.7357 63.5353 64.7215 63.2761 61.7689Z" fill="url(#paint18_linear)"/>
<path d="M63.2679 61.5708C63.2679 60.9394 63.3895 60.6884 63.3895 60.6884C63.3895 60.6884 64.2869 62.3174 65.9074 63.1135C71.7095 65.9605 80.8805 63.7561 81.4292 63.7305C81.6532 63.7209 80.2598 64.6817 78.353 65.3563C76.9629 65.8486 75.224 66.1188 74.0146 66.2659C71.4663 66.5744 68.9148 66.178 66.9936 65.4618C64.706 64.6081 63.2679 63.1822 63.2679 61.5708Z" fill="url(#paint19_linear)"/>
<path d="M70.9624 64.2149C70.892 63.6314 72.7317 63.3293 75.2592 63.0367C77.7867 62.7442 79.1656 62.8577 79.2568 63.3101C79.3304 63.6762 77.9099 64.4787 75.3824 64.7712C72.8548 65.0637 71.0328 64.7968 70.9624 64.2149Z" fill="#B0D6B0"/>
<path d="M100.226 70.753C100.028 68.5374 103.337 66.456 107.617 66.1043C111.896 65.7527 115.527 67.2617 115.725 69.4774C115.924 71.693 112.614 73.7743 108.335 74.126C104.054 74.4777 100.424 72.9671 100.226 70.753Z" fill="url(#paint20_linear)"/>
<path d="M100.22 70.6041C100.22 70.131 100.312 69.9423 100.312 69.9423C100.312 69.9423 100.999 71.1652 102.235 71.7615C106.666 73.8972 113.671 72.2427 114.091 72.2251C114.262 72.2171 113.196 72.9397 111.741 73.4448C110.678 73.8141 109.351 74.0171 108.428 74.1274C106.482 74.3592 104.532 74.0619 103.065 73.5232C101.319 72.8821 100.22 71.8127 100.22 70.6041Z" fill="url(#paint21_linear)"/>
<path d="M106.097 72.5864C106.042 72.1484 107.449 71.923 109.378 71.7024C111.307 71.4834 112.361 71.5681 112.432 71.907C112.488 72.1804 111.403 72.7831 109.472 73.0037C107.541 73.2243 106.151 73.0244 106.097 72.5864Z" fill="#B0D6B0"/>
<path d="M100.546 66.5967C100.348 64.381 103.657 62.2997 107.936 61.948C112.216 61.5963 115.847 63.1053 116.045 65.321C116.244 67.5366 112.934 69.618 108.655 69.9697C104.374 70.3214 100.744 68.8107 100.546 66.5967Z" fill="url(#paint22_linear)"/>
<path d="M100.54 66.4481C100.54 65.9749 100.633 65.7863 100.633 65.7863C100.633 65.7863 101.319 67.0092 102.555 67.6054C106.987 69.7411 113.992 68.0866 114.411 68.069C114.582 68.061 113.516 68.7836 112.061 69.2887C110.999 69.658 109.671 69.861 108.748 69.9713C106.803 70.2031 104.853 69.9058 103.386 69.3671C101.639 68.726 100.54 67.6566 100.54 66.4481Z" fill="url(#paint23_linear)"/>
<path d="M106.417 68.4304C106.363 67.9923 107.769 67.7669 109.698 67.5463C111.627 67.3273 112.681 67.4121 112.752 67.751C112.808 68.0243 111.723 68.627 109.792 68.8476C107.862 69.0682 106.471 68.8684 106.417 68.4304Z" fill="#B0D6B0"/>
<path d="M64.7142 56.2843C64.4775 53.5043 68.4351 50.8922 73.5525 50.4494C78.67 50.0066 83.0131 51.9025 83.2499 54.6825C83.4866 57.4624 79.529 60.0745 74.4116 60.5173C69.2926 60.9601 64.951 59.0642 64.7142 56.2843Z" fill="url(#paint24_linear)"/>
<path d="M64.7061 56.0988C64.7061 55.5058 64.8165 55.2676 64.8165 55.2676C64.8165 55.2676 65.6371 56.8022 67.1152 57.5488C72.415 60.228 80.7926 58.153 81.2933 58.1306C81.4981 58.1211 80.2247 59.0258 78.4843 59.6605C77.2141 60.1225 75.6272 60.3783 74.5218 60.5173C72.1943 60.8083 69.8635 60.4342 68.1086 59.7596C66.021 58.9571 64.7061 57.6159 64.7061 56.0988Z" fill="url(#paint25_linear)"/>
<path d="M71.7352 58.5863C71.6712 58.038 73.3509 57.7534 75.6593 57.4785C77.9676 57.2035 79.2282 57.309 79.3098 57.7359C79.377 58.0796 78.0796 58.8357 75.7712 59.1106C73.4629 59.3856 71.7992 59.1346 71.7352 58.5863Z" fill="#B0D6B0"/>
<path d="M65.1943 51.968C64.9575 49.1881 68.9151 46.576 74.0326 46.1332C79.15 45.6904 83.4932 47.5863 83.7299 50.3663C83.9667 53.1462 80.009 55.7583 74.8916 56.2011C69.7726 56.6439 65.431 54.748 65.1943 51.968Z" fill="url(#paint26_linear)"/>
<path d="M65.1862 51.7828C65.1862 51.1897 65.2966 50.9515 65.2966 50.9515C65.2966 50.9515 66.1172 52.4862 67.5953 53.2327C72.8951 55.9119 81.2727 53.837 81.7734 53.8146C81.9782 53.805 80.7048 54.7098 78.9643 55.3444C77.6942 55.8064 76.1073 56.0622 75.0019 56.2013C72.6743 56.4922 70.3436 56.1182 68.5887 55.4436C66.5011 54.6411 65.1862 53.2999 65.1862 51.7828Z" fill="url(#paint27_linear)"/>
<path d="M72.2153 54.2703C72.1513 53.722 73.831 53.4374 76.1393 53.1624C78.4477 52.8875 79.7082 52.993 79.7898 53.4198C79.857 53.7635 78.5597 54.5196 76.2513 54.7946C73.9429 55.0696 72.2793 54.8186 72.2153 54.2703Z" fill="#B0D6B0"/>
<path d="M100.546 62.1206C100.348 59.905 103.657 57.8236 107.936 57.472C112.216 57.1203 115.847 58.6293 116.045 60.845C116.244 63.0606 112.934 65.142 108.655 65.4937C104.376 65.8453 100.744 64.3347 100.546 62.1206Z" fill="url(#paint28_linear)"/>
<path d="M100.54 61.9721C100.54 61.4989 100.633 61.3103 100.633 61.3103C100.633 61.3103 101.319 62.5332 102.555 63.1295C106.987 65.2652 113.992 63.6107 114.411 63.5931C114.582 63.5851 113.516 64.3076 112.061 64.8128C110.999 65.1821 109.671 65.3851 108.748 65.4954C106.803 65.7272 104.853 65.4299 103.386 64.8911C101.639 64.2501 100.54 63.1806 100.54 61.9721Z" fill="url(#paint29_linear)"/>
<path d="M106.417 63.9544C106.363 63.5164 107.769 63.291 109.698 63.0704C111.627 62.8514 112.681 62.9361 112.752 63.275C112.808 63.5484 111.723 64.151 109.792 64.3716C107.862 64.5922 106.471 64.3924 106.417 63.9544Z" fill="#B0D6B0"/>
<path d="M100.226 57.4848C100.028 55.2692 103.337 53.1878 107.617 52.8362C111.896 52.4845 115.527 53.9935 115.725 56.2092C115.924 58.4248 112.614 60.5062 108.335 60.8578C104.056 61.2095 100.424 59.6989 100.226 57.4848Z" fill="url(#paint30_linear)"/>
<path d="M100.22 57.3363C100.22 56.8631 100.312 56.6744 100.312 56.6744C100.312 56.6744 100.999 57.8974 102.235 58.4936C106.666 60.6293 113.671 58.9748 114.091 58.9572C114.262 58.9492 113.196 59.6718 111.741 60.1769C110.678 60.5462 109.351 60.7492 108.428 60.8595C106.482 61.0913 104.532 60.794 103.065 60.2553C101.319 59.6142 100.22 58.5448 100.22 57.3363Z" fill="url(#paint31_linear)"/>
<path d="M106.097 59.3185C106.042 58.8805 107.449 58.6551 109.378 58.4345C111.307 58.2155 112.361 58.3002 112.432 58.6391C112.488 58.9125 111.403 59.5152 109.472 59.7358C107.541 59.9564 106.151 59.7566 106.097 59.3185Z" fill="#B0D6B0"/>
<path d="M100.386 53.0087C100.188 50.7931 103.497 48.7117 107.776 48.36C112.056 48.0083 115.687 49.5174 115.885 51.733C116.084 53.9487 112.774 56.03 108.495 56.3817C104.216 56.7334 100.584 55.2227 100.386 53.0087Z" fill="url(#paint32_linear)"/>
<path d="M100.379 52.8601C100.379 52.3869 100.472 52.1982 100.472 52.1982C100.472 52.1982 101.158 53.4212 102.395 54.0174C106.826 56.1531 113.831 54.4986 114.25 54.481C114.421 54.473 113.356 55.1956 111.9 55.7007C110.838 56.07 109.51 56.273 108.587 56.3833C106.642 56.6151 104.692 56.3178 103.225 55.7791C101.478 55.138 100.379 54.0686 100.379 52.8601Z" fill="url(#paint33_linear)"/>
<path d="M106.257 54.8423C106.202 54.4043 107.608 54.1789 109.537 53.9583C111.467 53.7393 112.521 53.824 112.591 54.1629C112.647 54.4363 111.563 55.039 109.632 55.2596C107.701 55.4802 106.311 55.2804 106.257 54.8423Z" fill="#B0D6B0"/>
<path d="M100.546 47.7334C100.348 45.5178 103.657 43.4364 107.936 43.0847C112.216 42.7331 115.847 44.2421 116.045 46.4578C116.244 48.6734 112.934 50.7548 108.655 51.1064C104.376 51.4581 100.744 49.9475 100.546 47.7334Z" fill="url(#paint34_linear)"/>
<path d="M100.54 47.585C100.54 47.1118 100.633 46.9232 100.633 46.9232C100.633 46.9232 101.319 48.1461 102.555 48.7423C106.987 50.8781 113.992 49.2235 114.411 49.2059C114.582 49.1979 113.516 49.9205 112.061 50.4257C110.999 50.7949 109.671 50.9979 108.748 51.1082C106.803 51.34 104.853 51.0427 103.386 50.504C101.639 49.8629 100.54 48.7935 100.54 47.585Z" fill="url(#paint35_linear)"/>
<path d="M106.417 49.5673C106.363 49.1293 107.769 48.9039 109.698 48.6832C111.627 48.4642 112.681 48.549 112.752 48.8879C112.808 49.1612 111.723 49.7639 109.792 49.9845C107.862 50.2051 106.471 50.0053 106.417 49.5673Z" fill="#B0D6B0"/>
<path d="M65.5141 47.492C65.2773 44.7121 69.235 42.1 74.3524 41.6572C79.4698 41.2144 83.813 43.1103 84.0498 45.8902C84.2865 48.6702 80.3289 51.2823 75.2114 51.7251C70.0924 52.1679 65.7508 50.272 65.5141 47.492Z" fill="url(#paint36_linear)"/>
<path d="M65.506 47.3064C65.506 46.7133 65.6164 46.4751 65.6164 46.4751C65.6164 46.4751 66.4371 48.0097 67.9152 48.7563C73.215 51.4355 81.5926 49.3605 82.0933 49.3382C82.298 49.3286 81.0247 50.2334 79.2842 50.868C78.014 51.33 76.4272 51.5858 75.3218 51.7249C72.9942 52.0158 70.6635 51.6417 68.9086 50.9671C66.821 50.1646 65.506 48.8234 65.506 47.3064Z" fill="url(#paint37_linear)"/>
<path d="M72.5352 49.7938C72.4712 49.2455 74.1508 48.961 76.4592 48.686C78.7676 48.411 80.0281 48.5166 80.1097 48.9434C80.1769 49.2871 78.8795 50.0432 76.5712 50.3182C74.2628 50.5931 72.5991 50.3421 72.5352 49.7938Z" fill="#B0D6B0"/>
<path d="M80.0729 79.1935C79.8138 76.2393 84.1458 73.4642 89.7495 72.9942C95.3532 72.5242 100.108 74.5384 100.367 77.4926C100.626 80.4468 96.2938 83.2219 90.6901 83.6919C85.0848 84.1603 80.3321 82.1461 80.0729 79.1935Z" fill="url(#paint38_linear)"/>
<path d="M80.0651 78.9951C80.0651 78.3636 80.1867 78.1127 80.1867 78.1127C80.1867 78.1127 81.0841 79.7416 82.7046 80.5377C88.5067 83.3848 97.6778 81.1803 98.2265 81.1548C98.4504 81.1452 97.0571 82.1059 95.1503 82.7805C93.7601 83.2729 92.0228 83.5431 90.8119 83.6901C88.2636 83.9987 85.7121 83.6022 83.7908 82.886C81.5033 82.0324 80.0651 80.6065 80.0651 78.9951Z" fill="url(#paint39_linear)"/>
<path d="M87.7596 81.6391C87.6892 81.0557 89.5289 80.7535 92.0564 80.461C94.5839 80.1684 95.9629 80.2819 96.054 80.7343C96.1276 81.1004 94.7071 81.9029 92.1796 82.1955C89.6521 82.488 87.83 82.221 87.7596 81.6391Z" fill="#B0D6B0"/>
<path d="M78.9531 73.9182C78.6939 70.9641 83.0259 68.1889 88.6296 67.7189C94.2334 67.249 98.9877 69.2632 99.2468 72.2174C99.506 75.1715 95.174 77.9467 89.5703 78.4167C83.9649 78.885 79.2122 76.8708 78.9531 73.9182Z" fill="url(#paint40_linear)"/>
<path d="M78.9451 73.72C78.9451 73.0886 79.0666 72.8376 79.0666 72.8376C79.0666 72.8376 79.9641 74.4665 81.5845 75.2626C87.3866 78.1097 96.5577 75.9053 97.1064 75.8797C97.3304 75.8701 95.937 76.8308 94.0302 77.5054C92.6401 77.9978 90.9028 78.268 89.6918 78.415C87.1435 78.7236 84.592 78.3271 82.6707 77.611C80.3832 76.7573 78.9451 75.3314 78.9451 73.72Z" fill="url(#paint41_linear)"/>
<path d="M86.6396 76.3641C86.5692 75.7806 88.4088 75.4784 90.9363 75.1859C93.4639 74.8934 94.8428 75.0069 94.934 75.4593C95.0076 75.8253 93.587 76.6278 91.0595 76.9204C88.532 77.2129 86.71 76.946 86.6396 76.3641Z" fill="#B0D6B0"/>
<path d="M78.9531 67.6837C78.6939 64.7296 83.0259 61.9544 88.6296 61.4844C94.2334 61.0145 98.9877 63.0287 99.2468 65.9829C99.506 68.937 95.174 71.7122 89.5703 72.1822C83.9649 72.6505 79.2122 70.6363 78.9531 67.6837Z" fill="url(#paint42_linear)"/>
<path d="M78.9451 67.4854C78.9451 66.8539 79.0666 66.603 79.0666 66.603C79.0666 66.603 79.9641 68.2319 81.5845 69.028C87.3866 71.8751 96.5577 69.6707 97.1064 69.6451C97.3304 69.6355 95.937 70.5962 94.0302 71.2708C92.6401 71.7632 90.9028 72.0334 89.6918 72.1804C87.1435 72.489 84.592 72.0925 82.6707 71.3763C80.3832 70.5227 78.9451 69.0968 78.9451 67.4854Z" fill="url(#paint43_linear)"/>
<path d="M86.6396 70.1296C86.5692 69.5461 88.4088 69.2439 90.9363 68.9514C93.4639 68.6589 94.8428 68.7724 94.934 69.2248C95.0076 69.5908 93.587 70.3933 91.0595 70.6859C88.532 70.9784 86.71 70.7114 86.6396 70.1296Z" fill="#B0D6B0"/>
<path d="M80.2313 59.6172C79.9945 56.9236 83.9521 54.393 89.0696 53.9662C94.1886 53.5378 98.5302 55.3745 98.7669 58.0666C99.0037 60.7602 95.046 63.2907 89.9286 63.7176C84.8096 64.146 80.468 62.3092 80.2313 59.6172Z" fill="url(#paint44_linear)"/>
<path d="M80.2231 59.4364C80.2231 58.8609 80.3335 58.6323 80.3335 58.6323C80.3335 58.6323 81.1541 60.119 82.6322 60.8432C87.932 63.4393 96.3096 61.4298 96.8103 61.4059C97.0151 61.3963 95.7417 62.2739 94.0012 62.8878C92.7311 63.3354 91.1442 63.5831 90.0388 63.7174C87.7113 63.9988 85.3805 63.6375 83.6256 62.9837C81.538 62.2052 80.2231 60.9055 80.2231 59.4364Z" fill="url(#paint45_linear)"/>
<path d="M87.2522 61.8471C87.1882 61.3148 88.8679 61.0398 91.1762 60.7728C93.4846 60.5059 94.7452 60.6098 94.8267 61.0222C94.8939 61.3547 93.5966 62.0885 91.2882 62.3538C88.9799 62.6208 87.3162 62.3778 87.2522 61.8471Z" fill="#B0D6B0"/>
<path d="M79.9114 53.2229C79.6747 50.5293 83.6323 47.9987 88.7497 47.5719C93.8688 47.1435 98.2103 48.9803 98.4471 51.6723C98.6838 54.3659 94.7262 56.8964 89.6088 57.3233C84.4897 57.7517 80.1482 55.9149 79.9114 53.2229Z" fill="url(#paint46_linear)"/>
<path d="M79.9032 53.0424C79.9032 52.4669 80.0136 52.2383 80.0136 52.2383C80.0136 52.2383 80.8342 53.725 82.3124 54.4491C87.6121 57.0452 95.9897 55.0358 96.4904 55.0118C96.6952 55.0022 95.4218 55.8799 93.6814 56.4937C92.4112 56.9413 90.8243 57.1891 89.7189 57.3234C87.3914 57.6047 85.0606 57.2434 83.3058 56.5896C81.2182 55.8111 79.9032 54.5115 79.9032 53.0424Z" fill="url(#paint47_linear)"/>
<path d="M86.9323 55.453C86.8683 54.9207 88.548 54.6457 90.8564 54.3787C93.1647 54.1118 94.4253 54.2157 94.5069 54.6281C94.5741 54.9606 93.2767 55.6944 90.9684 55.9597C88.66 56.2267 86.9963 55.9837 86.9323 55.453Z" fill="#B0D6B0"/>
<path d="M62.5275 89.0232C62.27 86.0323 66.5588 83.222 72.1033 82.7472C77.6495 82.2708 82.3526 84.3106 82.6101 87.3016C82.8677 90.2925 78.5789 93.1028 73.0343 93.5776C67.4882 94.0524 62.7835 92.0142 62.5275 89.0232Z" fill="url(#paint48_linear)"/>
<path d="M62.5193 88.8234C62.5193 88.1855 62.6393 87.9297 62.6393 87.9297C62.6393 87.9297 63.5271 89.5795 65.13 90.3852C70.8713 93.269 79.948 91.0358 80.4903 91.0102C80.711 91.0006 79.3321 91.9742 77.446 92.6568C76.0703 93.1539 74.3506 93.4289 73.1525 93.5776C70.6313 93.8909 68.1054 93.488 66.205 92.7623C63.943 91.8974 62.5193 90.4539 62.5193 88.8234Z" fill="url(#paint49_linear)"/>
<path d="M70.1339 91.4994C70.0635 90.9095 71.8839 90.6025 74.3858 90.3068C76.8862 90.0111 78.2523 90.1246 78.3419 90.5834C78.4139 90.9526 77.0077 91.7663 74.5074 92.0637C72.0071 92.361 70.2042 92.0892 70.1339 91.4994Z" fill="#B0D6B0"/>
<path d="M62.6875 83.9078C62.4299 80.9168 66.7187 78.1065 72.2632 77.6317C77.8094 77.1553 82.5125 79.1951 82.77 82.1861C83.0276 85.177 78.7388 87.9873 73.1943 88.4621C67.6481 88.9369 62.9434 86.8987 62.6875 83.9078Z" fill="url(#paint50_linear)"/>
<path d="M62.6795 83.7082C62.6795 83.0704 62.7995 82.8146 62.7995 82.8146C62.7995 82.8146 63.6873 84.4643 65.2902 85.27C71.0315 88.1538 80.1082 85.9206 80.6504 85.895C80.8712 85.8855 79.4923 86.859 77.6062 87.5416C76.2305 88.0387 74.5108 88.3137 73.3126 88.4624C70.7915 88.7757 68.2656 88.3728 66.3652 87.6471C64.1032 86.7823 62.6795 85.3387 62.6795 83.7082Z" fill="url(#paint51_linear)"/>
<path d="M70.294 86.3842C70.2237 85.7943 72.0441 85.4874 74.546 85.1916C77.0463 84.8959 78.4125 85.0094 78.5021 85.4682C78.5741 85.8375 77.1679 86.6511 74.6676 86.9485C72.1673 87.2458 70.3644 86.9741 70.294 86.3842Z" fill="#B0D6B0"/>
<path d="M62.3675 78.9521C62.1099 75.9612 66.3987 73.1509 71.9433 72.6761C77.4894 72.1997 82.1925 74.2395 82.4501 77.2305C82.7076 80.2214 78.4188 83.0317 72.8743 83.5065C67.3281 83.9813 62.6234 81.9431 62.3675 78.9521Z" fill="url(#paint52_linear)"/>
<path d="M62.3593 78.7524C62.3593 78.1146 62.4793 77.8588 62.4793 77.8588C62.4793 77.8588 63.3672 79.5086 64.97 80.3142C70.7113 83.1981 79.788 80.9649 80.3303 80.9393C80.5511 80.9297 79.1721 81.9032 77.2861 82.5858C75.9104 83.083 74.1907 83.358 72.9925 83.5066C70.4714 83.82 67.9455 83.4171 66.045 82.6913C63.7831 81.8265 62.3593 80.383 62.3593 78.7524Z" fill="url(#paint53_linear)"/>
<path d="M69.9739 81.4285C69.9035 80.8386 71.724 80.5317 74.2259 80.2359C76.7262 79.9402 78.0924 80.0537 78.182 80.5125C78.2539 80.8818 76.8478 81.6955 74.3475 81.9928C71.8472 82.2901 70.0443 82.0184 69.9739 81.4285Z" fill="#B0D6B0"/>
<path d="M40.0134 93.6224C39.631 90.3773 43.8798 87.1545 49.5044 86.4272C55.1289 85.6982 59.9999 87.7396 60.3823 90.9863C60.7646 94.2315 56.5158 97.4542 50.8913 98.1816C45.2668 98.9105 40.3957 96.8691 40.0134 93.6224Z" fill="url(#paint54_linear)"/>
<path d="M39.9974 93.4067C39.9718 92.7113 40.0837 92.43 40.0837 92.43C40.0837 92.43 41.0548 94.1932 42.7184 95.0069C48.6789 97.9275 57.826 95.1524 58.3763 95.1044C58.6002 95.0852 57.2373 96.1978 55.3448 97.0115C53.9659 97.6062 52.2254 97.9707 51.0129 98.1769C48.4597 98.6133 45.873 98.2712 43.9086 97.5535C41.5715 96.6982 40.063 95.1828 39.9974 93.4067Z" fill="url(#paint55_linear)"/>
<path d="M47.8551 96.0302C47.7591 95.3907 49.6004 94.9879 52.1343 94.5707C54.6666 94.1534 56.0615 94.2254 56.1719 94.7225C56.2599 95.1222 54.8633 96.0605 52.3294 96.4794C49.7955 96.8982 47.9511 96.6712 47.8551 96.0302Z" fill="#B0D6B0"/>
<path d="M39.5335 88.6667C39.1511 85.4216 43.3999 82.1988 49.0244 81.4715C54.649 80.7425 59.52 82.7839 59.9024 86.0306C60.2847 89.2758 56.0359 92.4985 50.4114 93.2259C44.7869 93.9548 39.9158 91.9134 39.5335 88.6667Z" fill="url(#paint56_linear)"/>
<path d="M39.5175 88.451C39.4919 87.7556 39.6039 87.4742 39.6039 87.4742C39.6039 87.4742 40.5749 89.2375 42.2386 90.0512C48.1991 92.9718 57.3461 90.1966 57.8964 90.1487C58.1204 90.1295 56.7574 91.2421 54.865 92.0558C53.4861 92.6505 51.7456 93.0149 50.533 93.2212C47.9799 93.6576 45.3932 93.3155 43.4288 92.5977C41.0916 91.7425 39.5831 90.227 39.5175 88.451Z" fill="url(#paint57_linear)"/>
<path d="M47.3753 91.0744C47.2793 90.4349 49.1205 90.0321 51.6544 89.6149C54.1868 89.1976 55.5817 89.2696 55.6921 89.7667C55.78 90.1664 54.3835 91.1047 51.8496 91.5236C49.3157 91.9424 47.4712 91.7154 47.3753 91.0744Z" fill="#B0D6B0"/>
<path d="M39.6518 83.1084C39.3943 80.1175 43.6831 77.3072 49.2276 76.8324C54.7738 76.356 59.4769 78.3958 59.7344 81.3868C59.992 84.3777 55.7032 87.188 50.1586 87.6628C44.6125 88.1376 39.9078 86.0994 39.6518 83.1084Z" fill="url(#paint58_linear)"/>
<path d="M39.6439 82.9088C39.6439 82.271 39.7639 82.0152 39.7639 82.0152C39.7639 82.0152 40.6517 83.6649 42.2546 84.4706C47.9959 87.3545 57.0726 85.1212 57.6149 85.0957C57.8356 85.0861 56.4567 86.0596 54.5706 86.7422C53.1949 87.2394 51.4752 87.5143 50.2771 87.663C47.7559 87.9763 45.23 87.5735 43.3296 86.8477C41.0676 85.9829 39.6439 84.5394 39.6439 82.9088Z" fill="url(#paint59_linear)"/>
<path d="M47.2585 85.5848C47.1881 84.9949 49.0085 84.688 51.5104 84.3923C54.0108 84.0965 55.3769 84.21 55.4665 84.6688C55.5385 85.0381 54.1323 85.8518 51.632 86.1491C49.1317 86.4464 47.3288 86.1747 47.2585 85.5848Z" fill="#B0D6B0"/>
<path d="M18.6959 96.3223C18.4383 93.1955 22.7271 90.2557 28.2717 89.7585C33.8178 89.2614 38.5209 91.3939 38.7784 94.5207C39.036 97.6475 34.7472 100.587 29.2027 101.084C23.6565 101.583 18.9518 99.4507 18.6959 96.3223Z" fill="url(#paint60_linear)"/>
<path d="M18.688 96.1145C18.688 95.4463 18.808 95.1794 18.808 95.1794C18.808 95.1794 19.6958 96.9043 21.2987 97.7467C27.04 100.762 36.1167 98.4277 36.659 98.4005C36.8797 98.3893 35.5008 99.4076 33.6148 100.122C32.239 100.643 30.5194 100.929 29.3212 101.086C26.8001 101.414 24.2741 100.993 22.3737 100.234C20.1117 99.3293 18.688 97.8202 18.688 96.1145Z" fill="url(#paint61_linear)"/>
<path d="M26.3026 98.9121C26.2322 98.295 28.0526 97.9753 30.5546 97.6652C33.0565 97.355 34.421 97.4749 34.5106 97.9545C34.5826 98.3414 33.1765 99.1918 30.6761 99.5019C28.1758 99.8121 26.373 99.5307 26.3026 98.9121Z" fill="#B0D6B0"/>
<path d="M18.6959 91.0471C18.4383 87.9203 22.7271 84.9805 28.2717 84.4833C33.8178 83.9862 38.5209 86.1187 38.7784 89.2455C39.036 92.3723 34.7472 95.3121 29.2027 95.8093C23.6565 96.308 18.9518 94.1755 18.6959 91.0471Z" fill="url(#paint62_linear)"/>
<path d="M18.688 90.8395C18.688 90.1713 18.808 89.9043 18.808 89.9043C18.808 89.9043 19.6958 91.6292 21.2987 92.4716C27.04 95.4866 36.1167 93.1526 36.659 93.1254C36.8797 93.1143 35.5008 94.1326 33.6148 94.8471C32.239 95.3683 30.5194 95.6544 29.3212 95.8111C26.8001 96.1388 24.2741 95.7184 22.3737 94.959C20.1117 94.0542 18.688 92.5452 18.688 90.8395Z" fill="url(#paint63_linear)"/>
<path d="M26.3026 93.637C26.2322 93.0199 28.0526 92.7002 30.5546 92.3901C33.0565 92.0799 34.421 92.1998 34.5106 92.6794C34.5826 93.0663 33.1765 93.9167 30.6761 94.2268C28.1758 94.537 26.373 94.2556 26.3026 93.637Z" fill="#B0D6B0"/>
<path d="M18.6959 85.452C18.4383 82.3252 22.7271 79.3854 28.2717 78.8882C33.8178 78.3911 38.5209 80.5236 38.7784 83.6504C39.036 86.7772 34.7472 89.717 29.2027 90.2142C23.6565 90.713 18.9518 88.5804 18.6959 85.452Z" fill="url(#paint64_linear)"/>
<path d="M18.688 85.2441C18.688 84.5759 18.808 84.3089 18.808 84.3089C18.808 84.3089 19.6958 86.0338 21.2987 86.8762C27.04 89.8912 36.1167 87.5572 36.659 87.53C36.8797 87.5188 35.5008 88.5371 33.6148 89.2517C32.239 89.7729 30.5194 90.059 29.3212 90.2157C26.8001 90.5434 24.2741 90.1229 22.3737 89.3636C20.1117 88.4588 18.688 86.9498 18.688 85.2441Z" fill="url(#paint65_linear)"/>
<path d="M26.3026 88.0416C26.2322 87.4245 28.0526 87.1048 30.5546 86.7947C33.0565 86.4845 34.421 86.6044 34.5106 87.084C34.5826 87.4709 33.1765 88.3213 30.6761 88.6314C28.1758 88.9416 26.373 88.6602 26.3026 88.0416Z" fill="#B0D6B0"/>
<path d="M38.0506 79.0419C38.0506 79.0419 38.0266 76.2252 41.3172 73.9967C45.2477 71.3351 47.884 71.7172 47.884 71.7172L42.3314 67.4969C42.3314 67.4969 42.6818 68.4688 42.0707 69.607C41.5668 70.547 37.1644 73.7729 36.307 74.0479C34.6145 74.5914 33.4947 74.1774 33.4947 74.1774" fill="url(#paint66_linear)"/>
<path d="M17.8961 80.0713C17.6385 77.0803 21.9273 74.27 27.4719 73.7952C33.018 73.3189 37.7211 75.3586 37.9787 78.3496C38.2362 81.3405 33.9474 84.1509 28.4029 84.6256C22.8568 85.1004 18.152 83.0622 17.8961 80.0713Z" fill="url(#paint67_linear)"/>
<path d="M17.8882 79.8715C17.8882 79.2337 18.0081 78.9779 18.0081 78.9779C18.0081 78.9779 18.896 80.6276 20.4989 81.4333C26.2402 84.3172 35.3168 82.084 35.8591 82.0584C36.0799 82.0488 34.7009 83.0223 32.8149 83.7049C31.4392 84.2021 29.7195 84.477 28.5213 84.6257C26.0002 84.939 23.4743 84.5362 21.5739 83.8104C19.3119 82.9456 17.8882 81.5021 17.8882 79.8715Z" fill="url(#paint68_linear)"/>
<path d="M25.5027 82.5475C25.4323 81.9576 27.2528 81.6507 29.7547 81.355C32.255 81.0592 33.6212 81.1727 33.7108 81.6315C33.7827 82.0008 32.3766 82.8145 29.8763 83.1118C27.376 83.4091 25.5731 83.1374 25.5027 82.5475Z" fill="#B0D6B0"/>
<path d="M42.3203 67.4425C42.0483 64.4515 46.5851 61.6412 52.4543 61.1664C58.3236 60.6917 63.3003 62.7298 63.5722 65.7208C63.8442 68.7117 59.3074 71.5221 53.4382 71.9968C47.5705 72.4716 42.5922 70.4334 42.3203 67.4425Z" fill="url(#paint69_linear)"/>
<path d="M42.3122 67.2427C42.3122 66.6049 42.4386 66.3491 42.4386 66.3491C42.4386 66.3491 43.3792 67.9989 45.0749 68.8046C51.1505 71.6884 60.7567 69.4552 61.3293 69.4296C61.5629 69.42 60.104 70.3935 58.1076 71.0761C56.6518 71.5733 54.8314 71.8483 53.5644 71.9969C50.8961 72.3102 48.2231 71.9074 46.2122 71.1816C43.8175 70.3168 42.3122 68.8733 42.3122 67.2427Z" fill="url(#paint70_linear)"/>
<path d="M50.3699 69.9187C50.2963 69.3289 52.2223 69.0219 54.8682 68.7262C57.5141 68.4304 58.9602 68.5439 59.0546 69.0027C59.1314 69.372 57.6437 70.1857 54.9978 70.483C52.3519 70.7804 50.4434 70.5086 50.3699 69.9187Z" fill="#B0D6B0"/>
<path d="M88.7272 21.0419C88.7272 21.0419 95.0124 20.2921 101.374 24.9568C105.822 28.2179 112.425 37.2547 114.129 40.5686C122.521 56.8965 122.717 69.4598 122.717 69.4598C122.717 69.4598 85.7405 86.9835 65.7028 95.619C62.4122 97.037 53.1548 100.085 42.6368 101.452C30.8486 102.984 17.552 102.009 15.3172 101.388C-0.167867 97.0913 1.0623 91.3316 1.0623 91.3316C1.0623 91.3316 0.24006 98.1768 8.25773 107.068C13.5943 112.986 17.344 114.687 27.5404 118.194C40.7107 122.725 61.0141 120.004 77.2398 117.027C86.198 115.384 102.976 107.819 107.81 105.351C124.133 97.021 145.718 77.4063 148.919 62.9008C152.936 44.6993 144.99 34.478 137.716 29.5112C133.959 26.9454 124.832 21.4927 114.349 20.1562C111.712 19.8205 105.196 19.285 102.142 19.4081C94.7676 19.7086 88.7272 21.0419 88.7272 21.0419Z" fill="url(#paint71_radial)"/>
<path opacity="0.702" d="M11.4796 80.1526C11.5979 80.1175 7.98583 88.7147 23.8004 91.5058C31.7237 92.9045 42.8672 91.6033 49.3731 90.5434C63.6024 88.2271 102.665 68.5277 102.665 68.5277C102.665 68.5277 100.946 54.1597 93.5567 44.322C91.9314 42.1575 87.7514 37.5008 83.789 34.6649C79.8057 31.8131 73.7109 32.5324 73.7109 32.5324L98.2454 26.8878C98.2454 26.8878 109.013 31.2903 114.318 43.8968C123.471 65.6471 120.977 68.7244 120.977 68.7244C120.977 68.7244 84.0113 85.9523 71.2538 91.5426C61.0989 95.9914 56.6645 99.844 27.1806 100.216C15.4804 100.364 11.278 95.9578 11.278 95.9578C11.278 95.9578 10.5597 90.0623 10.6381 88.0784C10.7581 85.0827 10.9213 80.3205 11.4796 80.1526Z" fill="url(#paint72_radial)"/>
<path d="M120.086 68.7484L122.786 69.5381C122.786 69.5381 97.7207 82.1845 77.0095 91.1686C65.9812 95.9531 56.3014 99.2414 52.0446 100.042C36.6316 102.944 22.6087 103.47 14.5078 101.59C12.3882 101.097 6.91405 98.2263 4.97522 97.2416C3.83144 96.6613 0.822415 94.0076 0.977585 91.3236C1.39511 84.1428 7.02923 80.6355 8.81929 79.3246C14.0247 75.512 15.2853 75.4705 15.2853 75.4705C15.2853 75.4705 12.7849 77.8955 8.7665 84.2291C7.74589 85.8373 6.91405 88.0801 6.98764 90.2094C7.07562 92.7639 8.43217 95.5455 13.0537 96.8883C15.6164 97.6332 19.3357 99.5196 31.8453 99.9208C45.022 100.343 56.0727 96.567 63.7736 94.2155C68.5711 92.7496 85.1183 85.054 92.1346 81.7833C99.1236 78.5238 120.086 68.7484 120.086 68.7484Z" fill="url(#paint73_radial)"/>
<path d="M65.2438 51.1528L63.8152 50.1297C63.8152 50.1297 64.2088 45.5482 64.5127 44.0311C64.783 42.6787 66.8275 33.4357 73.4982 32.5181C86.4765 30.7325 94.587 44.565 97.5256 50.8491C101.522 59.3967 102.774 68.4399 102.774 68.4399L100.498 67.0187C100.498 67.0187 94.0143 40.9538 80.3145 36.0765C71.3914 32.9002 69.5421 37.2051 67.8321 41.5949C67.7249 41.8682 66.9922 44.4228 66.9266 44.4819C65.2326 46.0117 65.127 47.93 66.2996 49.2553C66.3315 49.292 65.8628 49.6405 65.5157 50.3743C65.2758 50.8826 65.2438 51.1528 65.2438 51.1528Z" fill="#ACBE9F"/>
<path d="M100.562 66.9836L102.923 68.4176C102.923 68.4176 97.1 71.5316 85.3695 76.8277C82.3205 78.2041 78.4284 80.1671 74.5555 81.8249C67.7728 84.7247 61.2077 87.1785 60.4862 87.4471C58.0035 88.3727 54.8361 89.4885 51.072 90.3054C36.9963 93.3635 16.653 94.3482 11.7323 84.9421C10.9101 83.3723 10.8989 81.4764 11.4876 79.9737C12.1226 78.3527 13.4408 77.1346 14.8229 75.779C18.2447 72.4188 22.743 70.1184 23.2661 69.8531C33.2738 64.7936 63.8296 50.1058 63.8296 50.1058L65.2565 51.1353C65.2565 51.1353 65.2085 51.3479 65.1957 51.6084C65.1845 51.8514 65.2021 52.0081 65.2021 52.0081C65.2021 52.0081 54.6009 56.9701 43.2287 62.2374C34.208 66.4161 25.5393 70.1648 20.625 74.0046C16.8034 76.9908 14.9285 79.7755 15.5284 82.7712C16.9297 89.7634 35.491 96.1354 72.9078 80.068C80.4248 76.8405 100.562 66.9836 100.562 66.9836Z" fill="#ACBE9F"/>
<defs>
<linearGradient id="paint0_linear" x1="49.8373" y1="71.0524" x2="60.6803" y2="89.7255" gradientUnits="userSpaceOnUse">
<stop stop-color="#378036"/>
<stop offset="1" stop-color="white"/>
</linearGradient>
<linearGradient id="paint1_linear" x1="43.3231" y1="79.7764" x2="59.5152" y2="79.7764" gradientUnits="userSpaceOnUse">
<stop stop-color="#4E7D2E"/>
<stop offset="1" stop-color="#ABCCB2"/>
</linearGradient>
<linearGradient id="paint2_linear" x1="49.9973" y1="66.5764" x2="60.8404" y2="85.2496" gradientUnits="userSpaceOnUse">
<stop stop-color="#378036"/>
<stop offset="1" stop-color="white"/>
</linearGradient>
<linearGradient id="paint3_linear" x1="43.483" y1="75.3004" x2="59.6751" y2="75.3004" gradientUnits="userSpaceOnUse">
<stop stop-color="#4E7D2E"/>
<stop offset="1" stop-color="#ABCCB2"/>
</linearGradient>
<linearGradient id="paint4_linear" x1="86.5933" y1="57.6097" x2="96.4888" y2="74.6511" gradientUnits="userSpaceOnUse">
<stop stop-color="#378036"/>
<stop offset="1" stop-color="white"/>
</linearGradient>
<linearGradient id="paint5_linear" x1="80.5438" y1="65.5394" x2="95.4892" y2="65.5394" gradientUnits="userSpaceOnUse">
<stop stop-color="#4E7D2E"/>
<stop offset="1" stop-color="#ABCCB2"/>
</linearGradient>
<linearGradient id="paint6_linear" x1="90.2609" y1="50.9621" x2="98.4751" y2="65.108" gradientUnits="userSpaceOnUse">
<stop stop-color="#378036"/>
<stop offset="1" stop-color="white"/>
</linearGradient>
<linearGradient id="paint7_linear" x1="85.1825" y1="57.5264" x2="97.68" y2="57.5264" gradientUnits="userSpaceOnUse">
<stop stop-color="#4E7D2E"/>
<stop offset="1" stop-color="#ABCCB2"/>
</linearGradient>
<linearGradient id="paint8_linear" x1="90.2609" y1="45.8466" x2="98.4751" y2="59.9925" gradientUnits="userSpaceOnUse">
<stop stop-color="#378036"/>
<stop offset="1" stop-color="white"/>
</linearGradient>
<linearGradient id="paint9_linear" x1="85.1825" y1="52.4112" x2="97.68" y2="52.4112" gradientUnits="userSpaceOnUse">
<stop stop-color="#4E7D2E"/>
<stop offset="1" stop-color="#ABCCB2"/>
</linearGradient>
<linearGradient id="paint10_linear" x1="90.5808" y1="40.0918" x2="98.7951" y2="54.2377" gradientUnits="userSpaceOnUse">
<stop stop-color="#378036"/>
<stop offset="1" stop-color="white"/>
</linearGradient>
<linearGradient id="paint11_linear" x1="85.5026" y1="46.6564" x2="98.0002" y2="46.6564" gradientUnits="userSpaceOnUse">
<stop stop-color="#4E7D2E"/>
<stop offset="1" stop-color="#ABCCB2"/>
</linearGradient>
<linearGradient id="paint12_linear" x1="90.5808" y1="35.6158" x2="98.7951" y2="49.7617" gradientUnits="userSpaceOnUse">
<stop stop-color="#378036"/>
<stop offset="1" stop-color="white"/>
</linearGradient>
<linearGradient id="paint13_linear" x1="85.5026" y1="42.1799" x2="98.0002" y2="42.1799" gradientUnits="userSpaceOnUse">
<stop stop-color="#4E7D2E"/>
<stop offset="1" stop-color="#ABCCB2"/>
</linearGradient>
<linearGradient id="paint14_linear" x1="70.0476" y1="60.9136" x2="80.8902" y2="79.586" gradientUnits="userSpaceOnUse">
<stop stop-color="#378036"/>
<stop offset="1" stop-color="white"/>
</linearGradient>
<linearGradient id="paint15_linear" x1="63.4273" y1="69.6047" x2="79.79" y2="69.6047" gradientUnits="userSpaceOnUse">
<stop stop-color="#4E7D2E"/>
<stop offset="1" stop-color="#ABCCB2"/>
</linearGradient>
<linearGradient id="paint16_linear" x1="90.5808" y1="31.2995" x2="98.7951" y2="45.4455" gradientUnits="userSpaceOnUse">
<stop stop-color="#378036"/>
<stop offset="1" stop-color="white"/>
</linearGradient>
<linearGradient id="paint17_linear" x1="85.5026" y1="37.8639" x2="98.0002" y2="37.8639" gradientUnits="userSpaceOnUse">
<stop stop-color="#4E7D2E"/>
<stop offset="1" stop-color="#ABCCB2"/>
</linearGradient>
<linearGradient id="paint18_linear" x1="69.8877" y1="54.8391" x2="80.7303" y2="73.5114" gradientUnits="userSpaceOnUse">
<stop stop-color="#378036"/>
<stop offset="1" stop-color="white"/>
</linearGradient>
<linearGradient id="paint19_linear" x1="63.2671" y1="63.5302" x2="79.6298" y2="63.5302" gradientUnits="userSpaceOnUse">
<stop stop-color="#4E7D2E"/>
<stop offset="1" stop-color="#ABCCB2"/>
</linearGradient>
<linearGradient id="paint20_linear" x1="105.298" y1="65.5093" x2="113.512" y2="79.6552" gradientUnits="userSpaceOnUse">
<stop stop-color="#378036"/>
<stop offset="1" stop-color="white"/>
</linearGradient>
<linearGradient id="paint21_linear" x1="100.22" y1="72.0734" x2="112.717" y2="72.0734" gradientUnits="userSpaceOnUse">
<stop stop-color="#4E7D2E"/>
<stop offset="1" stop-color="#ABCCB2"/>
</linearGradient>
<linearGradient id="paint22_linear" x1="105.618" y1="61.3529" x2="113.832" y2="75.4988" gradientUnits="userSpaceOnUse">
<stop stop-color="#378036"/>
<stop offset="1" stop-color="white"/>
</linearGradient>
<linearGradient id="paint23_linear" x1="100.54" y1="67.9174" x2="113.037" y2="67.9174" gradientUnits="userSpaceOnUse">
<stop stop-color="#4E7D2E"/>
<stop offset="1" stop-color="#ABCCB2"/>
</linearGradient>
<linearGradient id="paint24_linear" x1="70.7088" y1="49.8544" x2="80.75" y2="67.1465" gradientUnits="userSpaceOnUse">
<stop stop-color="#378036"/>
<stop offset="1" stop-color="white"/>
</linearGradient>
<linearGradient id="paint25_linear" x1="64.7066" y1="57.9424" x2="79.6521" y2="57.9424" gradientUnits="userSpaceOnUse">
<stop stop-color="#4E7D2E"/>
<stop offset="1" stop-color="#ABCCB2"/>
</linearGradient>
<linearGradient id="paint26_linear" x1="71.1888" y1="45.5381" x2="81.23" y2="62.8303" gradientUnits="userSpaceOnUse">
<stop stop-color="#378036"/>
<stop offset="1" stop-color="white"/>
</linearGradient>
<linearGradient id="paint27_linear" x1="65.1867" y1="53.6264" x2="80.1322" y2="53.6264" gradientUnits="userSpaceOnUse">
<stop stop-color="#4E7D2E"/>
<stop offset="1" stop-color="#ABCCB2"/>
</linearGradient>
<linearGradient id="paint28_linear" x1="105.618" y1="56.8769" x2="113.832" y2="71.0228" gradientUnits="userSpaceOnUse">
<stop stop-color="#378036"/>
<stop offset="1" stop-color="white"/>
</linearGradient>
<linearGradient id="paint29_linear" x1="100.54" y1="63.4414" x2="113.037" y2="63.4414" gradientUnits="userSpaceOnUse">
<stop stop-color="#4E7D2E"/>
<stop offset="1" stop-color="#ABCCB2"/>
</linearGradient>
<linearGradient id="paint30_linear" x1="105.298" y1="52.2411" x2="113.512" y2="66.387" gradientUnits="userSpaceOnUse">
<stop stop-color="#378036"/>
<stop offset="1" stop-color="white"/>
</linearGradient>
<linearGradient id="paint31_linear" x1="100.22" y1="58.8056" x2="112.717" y2="58.8056" gradientUnits="userSpaceOnUse">
<stop stop-color="#4E7D2E"/>
<stop offset="1" stop-color="#ABCCB2"/>
</linearGradient>
<linearGradient id="paint32_linear" x1="105.458" y1="47.7649" x2="113.672" y2="61.9109" gradientUnits="userSpaceOnUse">
<stop stop-color="#378036"/>
<stop offset="1" stop-color="white"/>
</linearGradient>
<linearGradient id="paint33_linear" x1="100.379" y1="54.3294" x2="112.877" y2="54.3294" gradientUnits="userSpaceOnUse">
<stop stop-color="#4E7D2E"/>
<stop offset="1" stop-color="#ABCCB2"/>
</linearGradient>
<linearGradient id="paint34_linear" x1="105.618" y1="42.4897" x2="113.832" y2="56.6356" gradientUnits="userSpaceOnUse">
<stop stop-color="#378036"/>
<stop offset="1" stop-color="white"/>
</linearGradient>
<linearGradient id="paint35_linear" x1="100.54" y1="49.0543" x2="113.037" y2="49.0543" gradientUnits="userSpaceOnUse">
<stop stop-color="#4E7D2E"/>
<stop offset="1" stop-color="#ABCCB2"/>
</linearGradient>
<linearGradient id="paint36_linear" x1="71.5087" y1="41.0621" x2="81.5499" y2="58.3543" gradientUnits="userSpaceOnUse">
<stop stop-color="#378036"/>
<stop offset="1" stop-color="white"/>
</linearGradient>
<linearGradient id="paint37_linear" x1="65.5066" y1="49.15" x2="80.4521" y2="49.15" gradientUnits="userSpaceOnUse">
<stop stop-color="#4E7D2E"/>
<stop offset="1" stop-color="#ABCCB2"/>
</linearGradient>
<linearGradient id="paint38_linear" x1="86.6845" y1="72.2636" x2="97.5271" y2="90.936" gradientUnits="userSpaceOnUse">
<stop stop-color="#378036"/>
<stop offset="1" stop-color="white"/>
</linearGradient>
<linearGradient id="paint39_linear" x1="80.0643" y1="80.9545" x2="96.427" y2="80.9545" gradientUnits="userSpaceOnUse">
<stop stop-color="#4E7D2E"/>
<stop offset="1" stop-color="#ABCCB2"/>
</linearGradient>
<linearGradient id="paint40_linear" x1="85.5646" y1="66.9883" x2="96.4072" y2="85.6607" gradientUnits="userSpaceOnUse">
<stop stop-color="#378036"/>
<stop offset="1" stop-color="white"/>
</linearGradient>
<linearGradient id="paint41_linear" x1="78.9443" y1="75.6794" x2="95.307" y2="75.6794" gradientUnits="userSpaceOnUse">
<stop stop-color="#4E7D2E"/>
<stop offset="1" stop-color="#ABCCB2"/>
</linearGradient>
<linearGradient id="paint42_linear" x1="85.5646" y1="60.7539" x2="96.4072" y2="79.4262" gradientUnits="userSpaceOnUse">
<stop stop-color="#378036"/>
<stop offset="1" stop-color="white"/>
</linearGradient>
<linearGradient id="paint43_linear" x1="78.9443" y1="69.4448" x2="95.307" y2="69.4448" gradientUnits="userSpaceOnUse">
<stop stop-color="#4E7D2E"/>
<stop offset="1" stop-color="#ABCCB2"/>
</linearGradient>
<linearGradient id="paint44_linear" x1="86.2733" y1="53.2935" x2="96.1689" y2="70.3348" gradientUnits="userSpaceOnUse">
<stop stop-color="#378036"/>
<stop offset="1" stop-color="white"/>
</linearGradient>
<linearGradient id="paint45_linear" x1="80.2236" y1="61.2229" x2="95.1691" y2="61.2229" gradientUnits="userSpaceOnUse">
<stop stop-color="#4E7D2E"/>
<stop offset="1" stop-color="#ABCCB2"/>
</linearGradient>
<linearGradient id="paint46_linear" x1="85.9535" y1="46.8992" x2="95.849" y2="63.9406" gradientUnits="userSpaceOnUse">
<stop stop-color="#378036"/>
<stop offset="1" stop-color="white"/>
</linearGradient>
<linearGradient id="paint47_linear" x1="79.9038" y1="54.8289" x2="94.8492" y2="54.8289" gradientUnits="userSpaceOnUse">
<stop stop-color="#4E7D2E"/>
<stop offset="1" stop-color="#ABCCB2"/>
</linearGradient>
<linearGradient id="paint48_linear" x1="69.0337" y1="82.0827" x2="79.8768" y2="100.756" gradientUnits="userSpaceOnUse">
<stop stop-color="#378036"/>
<stop offset="1" stop-color="white"/>
</linearGradient>
<linearGradient id="paint49_linear" x1="62.5192" y1="90.8067" x2="78.7112" y2="90.8067" gradientUnits="userSpaceOnUse">
<stop stop-color="#4E7D2E"/>
<stop offset="1" stop-color="#ABCCB2"/>
</linearGradient>
<linearGradient id="paint50_linear" x1="69.1936" y1="76.9672" x2="80.0367" y2="95.6403" gradientUnits="userSpaceOnUse">
<stop stop-color="#378036"/>
<stop offset="1" stop-color="white"/>
</linearGradient>
<linearGradient id="paint51_linear" x1="62.6793" y1="85.6915" x2="78.8714" y2="85.6915" gradientUnits="userSpaceOnUse">
<stop stop-color="#4E7D2E"/>
<stop offset="1" stop-color="#ABCCB2"/>
</linearGradient>
<linearGradient id="paint52_linear" x1="68.8736" y1="72.0116" x2="79.7167" y2="90.6847" gradientUnits="userSpaceOnUse">
<stop stop-color="#378036"/>
<stop offset="1" stop-color="white"/>
</linearGradient>
<linearGradient id="paint53_linear" x1="62.3592" y1="80.7357" x2="78.5513" y2="80.7357" gradientUnits="userSpaceOnUse">
<stop stop-color="#4E7D2E"/>
<stop offset="1" stop-color="#ABCCB2"/>
</linearGradient>
<linearGradient id="paint54_linear" x1="46.2422" y1="86.051" x2="58.3757" y2="105.259" gradientUnits="userSpaceOnUse">
<stop stop-color="#378036"/>
<stop offset="1" stop-color="white"/>
</linearGradient>
<linearGradient id="paint55_linear" x1="40.0773" y1="95.5648" x2="56.5572" y2="94.9492" gradientUnits="userSpaceOnUse">
<stop stop-color="#4E7D2E"/>
<stop offset="1" stop-color="#ABCCB2"/>
</linearGradient>
<linearGradient id="paint56_linear" x1="45.7622" y1="81.0953" x2="57.8958" y2="100.304" gradientUnits="userSpaceOnUse">
<stop stop-color="#378036"/>
<stop offset="1" stop-color="white"/>
</linearGradient>
<linearGradient id="paint57_linear" x1="39.5974" y1="90.6091" x2="56.0774" y2="89.9935" gradientUnits="userSpaceOnUse">
<stop stop-color="#4E7D2E"/>
<stop offset="1" stop-color="#ABCCB2"/>
</linearGradient>
<linearGradient id="paint58_linear" x1="46.158" y1="76.1679" x2="57.0011" y2="94.841" gradientUnits="userSpaceOnUse">
<stop stop-color="#378036"/>
<stop offset="1" stop-color="white"/>
</linearGradient>
<linearGradient id="paint59_linear" x1="39.6438" y1="84.8921" x2="55.8358" y2="84.8921" gradientUnits="userSpaceOnUse">
<stop stop-color="#4E7D2E"/>
<stop offset="1" stop-color="#ABCCB2"/>
</linearGradient>
<linearGradient id="paint60_linear" x1="25.1258" y1="89.2123" x2="36.2028" y2="108.288" gradientUnits="userSpaceOnUse">
<stop stop-color="#378036"/>
<stop offset="1" stop-color="white"/>
</linearGradient>
<linearGradient id="paint61_linear" x1="18.6879" y1="98.1885" x2="34.88" y2="98.1885" gradientUnits="userSpaceOnUse">
<stop stop-color="#4E7D2E"/>
<stop offset="1" stop-color="#ABCCB2"/>
</linearGradient>
<linearGradient id="paint62_linear" x1="25.1258" y1="83.9371" x2="36.2028" y2="103.013" gradientUnits="userSpaceOnUse">
<stop stop-color="#378036"/>
<stop offset="1" stop-color="white"/>
</linearGradient>
<linearGradient id="paint63_linear" x1="18.6879" y1="92.9134" x2="34.88" y2="92.9134" gradientUnits="userSpaceOnUse">
<stop stop-color="#4E7D2E"/>
<stop offset="1" stop-color="#ABCCB2"/>
</linearGradient>
<linearGradient id="paint64_linear" x1="25.1258" y1="78.342" x2="36.2028" y2="97.4181" gradientUnits="userSpaceOnUse">
<stop stop-color="#378036"/>
<stop offset="1" stop-color="white"/>
</linearGradient>
<linearGradient id="paint65_linear" x1="18.6879" y1="87.318" x2="34.88" y2="87.318" gradientUnits="userSpaceOnUse">
<stop stop-color="#4E7D2E"/>
<stop offset="1" stop-color="#ABCCB2"/>
</linearGradient>
<linearGradient id="paint66_linear" x1="36.46" y1="70.5977" x2="43.7651" y2="75.8336" gradientUnits="userSpaceOnUse">
<stop stop-color="#4E7D2E"/>
<stop offset="1" stop-color="#ABCCB2"/>
</linearGradient>
<linearGradient id="paint67_linear" x1="24.4023" y1="73.1307" x2="35.2453" y2="91.8038" gradientUnits="userSpaceOnUse">
<stop stop-color="#378036"/>
<stop offset="1" stop-color="white"/>
</linearGradient>
<linearGradient id="paint68_linear" x1="17.888" y1="81.8548" x2="34.0801" y2="81.8548" gradientUnits="userSpaceOnUse">
<stop stop-color="#4E7D2E"/>
<stop offset="1" stop-color="#ABCCB2"/>
</linearGradient>
<linearGradient id="paint69_linear" x1="49.2996" y1="60.3093" x2="60.4862" y2="79.5741" gradientUnits="userSpaceOnUse">
<stop stop-color="#378036"/>
<stop offset="1" stop-color="white"/>
</linearGradient>
<linearGradient id="paint70_linear" x1="42.3115" y1="69.226" x2="59.4473" y2="69.226" gradientUnits="userSpaceOnUse">
<stop stop-color="#4E7D2E"/>
<stop offset="1" stop-color="#ABCCB2"/>
</linearGradient>
<radialGradient id="paint71_radial" cx="0" cy="0" r="1" gradientUnits="userSpaceOnUse" gradientTransform="translate(72.7452 72.3073) scale(80.6061 39.8885)">
<stop stop-color="#F5F5F5"/>
<stop offset="0.4288" stop-color="#9AB799"/>
<stop offset="0.821" stop-color="#4D824B"/>
<stop offset="1" stop-color="#2F6D2C"/>
</radialGradient>
<radialGradient id="paint72_radial" cx="0" cy="0" r="1" gradientUnits="userSpaceOnUse" gradientTransform="translate(68.0544 61.0982) scale(70.4626 19.9059)">
<stop stop-color="#E8E8E8" stop-opacity="0.702"/>
<stop offset="0.2167" stop-color="#DCDFD9" stop-opacity="0.702"/>
<stop offset="0.6334" stop-color="#BBC9B1" stop-opacity="0.702"/>
<stop offset="1" stop-color="#9BB389" stop-opacity="0.702"/>
</radialGradient>
<radialGradient id="paint73_radial" cx="0" cy="0" r="1" gradientUnits="userSpaceOnUse" gradientTransform="translate(29.9338 48.188) scale(159.658 185.936)">
<stop stop-color="#3C7733"/>
<stop offset="0.1901" stop-color="#588D53"/>
<stop offset="0.5701" stop-color="#8CB68E"/>
<stop offset="0.851" stop-color="#ACCFB2"/>
<stop offset="1" stop-color="#B8D9C0"/>
</radialGradient>
</defs>
</svg>
