<svg width="500" height="400" viewBox="0 0 500 400" fill="none" xmlns="http://www.w3.org/2000/svg">
<path d="M320.803 113.046C320.532 122.239 321.749 170.907 321.884 206.597C322.02 247.424 322.966 298.121 322.29 307.313C320.938 324.618 305.256 321.643 295.658 321.643L201.16 321.779C183.586 322.184 177.908 310.017 179.395 276.896C178.854 259.592 178.043 248.776 178.043 206.868C178.043 164.959 177.908 143.464 178.448 125.078C178.854 111.694 179.124 66.4059 195.482 66.2707C208.596 66.1355 200.619 105.205 209.677 105.205C223.196 105.205 216.166 66.4059 231.172 66.2707C245.097 66.1355 237.932 105.34 247.53 105.34C259.968 105.34 256.317 65.8652 269.431 66.0003C281.598 66.1355 277.137 105.205 286.465 105.07C301.336 104.935 294.982 66.0003 308.095 66.0003C320.668 66.2707 321.073 104.124 320.803 113.046Z" fill="#703F3F"/>
<path d="M310.663 141.031C313.367 159.011 313.638 187.806 313.773 206.868C314.043 235.528 311.745 264.458 309.311 278.924C307.419 289.604 304.85 304.745 299.713 306.367C276.46 313.397 231.578 311.369 208.325 306.908C200.214 305.286 192.778 295.958 188.452 277.301C185.613 264.053 184.532 247.019 184.261 216.061C184.126 189.699 185.478 169.691 186.83 155.225C188.858 131.973 197.915 114.939 208.595 114.398C232.389 113.452 271.053 114.398 292.278 113.452C299.848 113.046 308.636 124.673 310.663 141.031Z" fill="#F7BBB2"/>
<path d="M248.342 239.313H240.906C229.821 239.313 220.628 230.256 220.628 219.035V208.49C220.628 197.405 229.686 188.212 240.906 188.212H248.342C259.427 188.212 268.62 197.269 268.62 208.49V219.035C268.755 230.12 259.698 239.313 248.342 239.313Z" fill="#703535"/>
</svg>
