<svg width="593" height="427" viewBox="0 0 593 427" fill="none" xmlns="http://www.w3.org/2000/svg">
<path d="M143.799 74.8C174.199 48.7 204.199 38.9 223.699 32.7C316.699 3.20002 396.799 33.8 420.899 43.4C439.599 50.8 452.599 56.1 466.299 68.8C498.199 98.2 503.299 138.9 508.599 180.8C512.299 210.5 508.999 238.8 502.399 295.4C499.899 317.1 496.999 334.4 484.599 351.3C473.799 366 459.9 374.6 445.199 381.4C385.499 408.9 315.599 404.1 279.499 399.7C218.299 392.3 187.699 388.6 161.299 371.2C91.1995 324.7 59.9995 219.2 92.1995 143.1C107.699 106.3 135.799 81.7 143.799 74.8Z" fill="#F9F1F1"/>
<path d="M143.799 74.8C174.199 48.7 204.199 38.9 223.699 32.7C316.699 3.20002 396.799 33.8 420.899 43.4C439.599 50.8 452.599 56.1 466.299 68.8C498.199 98.2 503.299 138.9 508.599 180.8C512.299 210.5 508.999 238.8 502.399 295.4C499.899 317.1 496.999 334.4 484.599 351.3C473.799 366 459.9 374.6 445.199 381.4C385.499 408.9 315.599 404.1 279.499 399.7C218.299 392.3 187.699 388.6 161.299 371.2C91.1995 324.7 59.9995 219.2 92.1995 143.1C107.699 106.3 135.799 81.7 143.799 74.8Z" fill="url(#paint0_linear_3137_572450)"/>
<path d="M143.799 74.8C174.199 48.7 204.199 38.9 223.699 32.7C316.699 3.20002 396.799 33.8 420.899 43.4C439.599 50.8 452.599 56.1 466.299 68.8C498.199 98.2 503.299 138.9 508.599 180.8C512.299 210.5 508.999 238.8 502.399 295.4C499.899 317.1 496.999 334.4 484.599 351.3C473.799 366 459.9 374.6 445.199 381.4C385.499 408.9 315.599 404.1 279.499 399.7C218.299 392.3 187.699 388.6 161.299 371.2C91.1995 324.7 59.9995 219.2 92.1995 143.1C107.699 106.3 135.799 81.7 143.799 74.8Z" stroke="#7B4E4C" stroke-width="1.4936" stroke-miterlimit="10"/>
<path d="M115.242 236.735L141.053 229.112L137.801 215.774L111.991 223.396L115.242 236.735Z" fill="#CE387A"/>
<path d="M95.9375 217.044L102.365 243.414L115.421 239.558L108.993 213.188L95.9375 217.044Z" fill="#CE387A"/>
<path d="M484.811 215.83L458.182 211.932L455.543 225.405L482.172 229.303L484.811 215.83Z" fill="#CE387A"/>
<path d="M494.085 241.8L499.303 215.164L485.833 213.192L480.615 239.828L494.085 241.8Z" fill="#CE387A"/>
<path d="M402.27 215.267C411.077 215.582 418.587 233.152 419.77 247.63C420.995 262.528 416.047 281.404 407.516 282.86C404.393 283.373 400.744 281.715 398.994 278.923C394.266 271.554 407.105 263.232 406.13 248.733C405.25 234.12 391.127 226.916 394.861 219.577C396.18 216.806 399.411 215.226 402.27 215.267Z" fill="#324B9A"/>
<path d="M207.56 206.472C198.719 206.901 191.555 224.722 190.718 239.078C189.826 253.968 195.132 272.808 203.715 274.095C206.824 274.536 210.569 272.8 212.307 269.989C216.88 262.569 203.932 254.406 204.445 239.976C205.052 225.43 219.019 217.845 215.149 210.605C213.724 207.887 210.399 206.304 207.56 206.472Z" fill="#324B9A"/>
<path d="M409.658 123.842C418.518 123.64 426.721 140.936 428.53 155.359C430.331 170.115 426.31 189.201 417.745 191.074C414.735 191.673 410.973 190.191 409.036 187.484C403.999 180.447 416.388 171.335 414.842 157.051C413.235 142.566 398.734 135.916 402.364 128.407C403.623 125.705 406.794 123.845 409.658 123.842Z" fill="#E5231E"/>
<path d="M174.235 129.219C165.429 129.955 159.031 148.123 158.843 162.502C158.578 177.344 164.755 195.927 173.392 196.785C176.449 197.053 180.084 195.27 181.683 192.243C185.917 184.547 172.569 176.991 172.556 162.675C172.55 148.026 186.247 139.942 181.946 132.787C180.334 130.421 176.904 128.946 174.235 129.219Z" fill="#E5231E"/>
<path d="M431.936 210.874C436.861 211.173 440.348 221.237 440.648 229.286C440.851 237.651 437.541 247.88 432.739 248.31C430.964 248.458 429.054 247.353 428.08 246.017C425.571 241.788 433.105 237.525 433.122 229.573C433.029 221.414 425.388 216.996 427.804 213.066C428.495 211.375 430.258 210.705 431.936 210.874Z" fill="#324B9A"/>
<path d="M177.424 205.549C172.608 205.456 167.925 215.091 167.179 223.165C166.226 231.349 168.681 241.962 173.205 243.003C174.993 243.378 176.962 242.598 177.969 241.004C180.701 237.171 173.778 232.108 174.633 224.24C175.379 216.166 183.449 212.413 181.463 208.171C180.902 206.616 178.992 205.511 177.424 205.549Z" fill="#324B9A"/>
<path d="M387.404 152.928C392.364 153.046 396.364 162.934 397.069 170.859C397.569 179.043 394.806 189.498 390.189 190.282C388.563 190.474 386.335 189.561 385.445 188.018C382.831 183.854 390.055 179.228 389.582 171.276C389.082 163.092 381.303 159.069 383.417 155.05C384.208 153.779 385.983 152.861 387.404 152.928Z" fill="#E5231E"/>
<path d="M204.996 151.511C200.064 151.625 196.056 161.521 195.6 169.583C194.939 177.905 197.833 188.396 202.616 189.006C204.296 189.278 206.304 188.333 207.3 186.801C209.878 182.727 202.741 178.157 203.198 170.095C203.654 162.033 211.397 157.817 209.275 153.829C208.385 152.286 206.417 151.578 204.996 151.511Z" fill="#E5231E"/>
<rect x="114" y="215.881" width="70.3104" height="1.19228" transform="rotate(-47.7539 114 215.881)" fill="#CE387A"/>
<rect width="77.4553" height="1.19228" transform="matrix(-0.694414 -0.719575 -0.719575 0.694414 480.23 212.27)" fill="#CE387A"/>
<rect x="437" y="229.277" width="17.9993" height="1.19228" transform="rotate(-23.9299 437 229.277)" fill="#CE387A"/>
<rect x="144" y="226.473" width="26.8933" height="1.19228" transform="rotate(-1.00874 144 226.473)" fill="#CE387A"/>
<rect x="139.131" y="213.185" width="73.0675" height="1.19228" transform="rotate(-35.2642 139.131 213.185)" fill="#CE387A"/>
<rect width="71.0365" height="1.19228" transform="matrix(-0.825171 -0.564883 -0.564883 0.825171 454.291 211.127)" fill="#CE387A"/>
<rect x="119.047" y="239" width="74.3369" height="1.19228" transform="rotate(2.28325 119.047 239)" fill="#CE387A"/>
<rect width="62.9699" height="1.19228" transform="matrix(-0.952974 0.303052 0.303052 0.952974 476.596 231)" fill="#CE387A"/>
<defs>
<linearGradient id="paint0_linear_3137_572450" x1="294.821" y1="20.1758" x2="294.821" y2="403.095" gradientUnits="userSpaceOnUse">
<stop stop-color="#F9F1F1"/>
<stop offset="1" stop-color="#FEF3E6"/>
</linearGradient>
</defs>
</svg>
