<svg width="593" height="427" viewBox="0 0 593 427" fill="none" xmlns="http://www.w3.org/2000/svg">
<path d="M143.799 74.8C174.199 48.7 204.199 38.9 223.699 32.7C316.699 3.20002 396.799 33.8 420.899 43.4C439.599 50.8 452.599 56.1 466.299 68.8C498.199 98.2 503.299 138.9 508.599 180.8C512.299 210.5 508.999 238.8 502.399 295.4C499.899 317.1 496.999 334.4 484.599 351.3C473.799 366 459.9 374.6 445.199 381.4C385.499 408.9 315.599 404.1 279.499 399.7C218.299 392.3 187.699 388.6 161.299 371.2C91.1995 324.7 59.9995 219.2 92.1995 143.1C107.699 106.3 135.799 81.7 143.799 74.8Z" fill="#F9F1F1"/>
<path d="M143.799 74.8C174.199 48.7 204.199 38.9 223.699 32.7C316.699 3.20002 396.799 33.8 420.899 43.4C439.599 50.8 452.599 56.1 466.299 68.8C498.199 98.2 503.299 138.9 508.599 180.8C512.299 210.5 508.999 238.8 502.399 295.4C499.899 317.1 496.999 334.4 484.599 351.3C473.799 366 459.9 374.6 445.199 381.4C385.499 408.9 315.599 404.1 279.499 399.7C218.299 392.3 187.699 388.6 161.299 371.2C91.1995 324.7 59.9995 219.2 92.1995 143.1C107.699 106.3 135.799 81.7 143.799 74.8Z" fill="url(#paint0_linear_3137_572195)"/>
<path d="M143.799 74.8C174.199 48.7 204.199 38.9 223.699 32.7C316.699 3.20002 396.799 33.8 420.899 43.4C439.599 50.8 452.599 56.1 466.299 68.8C498.199 98.2 503.299 138.9 508.599 180.8C512.299 210.5 508.999 238.8 502.399 295.4C499.899 317.1 496.999 334.4 484.599 351.3C473.799 366 459.9 374.6 445.199 381.4C385.499 408.9 315.599 404.1 279.499 399.7C218.299 392.3 187.699 388.6 161.299 371.2C91.1995 324.7 59.9995 219.2 92.1995 143.1C107.699 106.3 135.799 81.7 143.799 74.8Z" stroke="#7B4E4C" stroke-width="1.4936" stroke-miterlimit="10"/>
<path d="M157.799 237.255L183.609 229.632L180.358 216.293L154.547 223.916L157.799 237.255Z" fill="#CE387A"/>
<path d="M138.494 217.564L144.922 243.934L157.978 240.078L151.55 213.708L138.494 217.564Z" fill="#CE387A"/>
<path d="M453.295 210.909L426.666 207.011L424.027 220.484L450.656 224.382L453.295 210.909Z" fill="#CE387A"/>
<path d="M462.57 236.879L467.787 210.243L454.317 208.271L449.1 234.907L462.57 236.879Z" fill="#CE387A"/>
<path d="M252.403 284.819C273.127 296.613 327.213 303.016 371.525 259.209L372.536 260.219L371.525 259.209C388.374 242.697 398.484 204.112 366.639 169.572C361.248 163.675 346.252 146.658 321.484 139.244C289.808 129.809 234.88 133.684 214.325 175.975C196.633 212.368 211.629 261.399 252.403 284.819Z" stroke="#935B9B" stroke-width="2.5554" stroke-dasharray="6.11 2.11"/>
<path d="M223.325 207.55C231.065 203.233 246.397 214.695 254.733 226.603C263.217 238.809 268.576 257.564 261.878 263.221C259.496 265.156 255.477 265.602 252.5 264.114C244.76 260.244 251.458 246.4 243.42 234.492C235.233 222.435 219.306 223.328 219.008 214.992C218.859 212.015 220.794 208.889 223.325 207.55Z" fill="#E5231E"/>
<path d="M252.947 189.836C245.505 194.599 248.333 213.652 254.882 226.454C261.581 239.702 275.722 253.247 283.76 249.973C286.588 248.782 288.97 245.507 288.97 242.083C289.119 233.301 273.787 232.855 267.088 220.202C260.241 207.252 268.577 193.706 261.432 189.389C258.901 188.05 255.18 188.347 252.947 189.836Z" fill="#E5231E"/>
<path d="M300.571 187.045C307.567 181.687 324.536 190.469 334.659 200.889C345.078 211.606 353.265 229.32 347.609 235.869C345.525 238.251 341.655 239.293 338.529 238.251C330.193 235.572 334.807 220.984 324.834 210.415C314.861 199.698 299.38 203.122 297.594 195.084C296.85 192.106 298.338 188.832 300.571 187.045Z" fill="#324B9A"/>
<path d="M326.918 164.866C320.368 170.82 326.173 189.129 334.658 200.74C343.44 212.797 359.517 223.961 366.959 219.495C369.639 217.858 371.425 214.136 370.978 210.862C369.787 202.228 354.604 204.163 345.822 192.702C337.04 181.091 342.994 166.355 335.402 163.229C332.574 162.038 329.002 162.931 326.918 164.866Z" fill="#324B9A"/>
<path d="M295.045 267.369C295.746 262.458 306.037 259.651 313.989 259.885C322.175 260.353 332.232 264.329 332.466 269.007C332.466 270.644 331.297 272.749 329.66 273.45C325.216 275.555 321.474 267.837 313.522 267.369C305.336 266.902 300.424 274.152 296.682 271.579C295.513 270.644 294.811 268.773 295.045 267.369Z" fill="#E5231E"/>
<path d="M297.15 248.191C296.682 253.103 306.037 258.248 313.989 259.652C322.175 261.289 332.934 259.652 334.103 254.974C334.571 253.337 333.869 251.232 332.466 250.063C328.724 247.022 323.345 253.571 315.393 252.167C307.44 250.764 304.166 242.578 299.956 244.215C298.319 244.917 297.384 246.788 297.15 248.191Z" fill="#E5231E"/>
<path d="M253.792 171.741C256.364 167.531 266.889 169.168 274.14 172.676C281.624 176.418 289.108 184.136 287.237 188.58C286.535 190.217 284.664 191.387 283.027 191.621C278.116 191.855 277.882 183.201 270.865 179.459C263.615 175.717 256.131 180.394 253.792 176.418C252.622 175.015 252.856 173.144 253.792 171.741Z" fill="#324B9A"/>
<path d="M263.381 155.369C261.042 159.579 267.357 168.232 274.14 172.676C280.923 177.354 291.447 180.16 294.488 176.652C295.657 175.249 295.891 173.144 294.955 171.507C292.851 167.297 285.132 171.039 278.584 166.595C271.801 162.151 272.269 153.264 267.591 153.03C265.954 152.796 264.083 153.965 263.381 155.369Z" fill="#324B9A"/>
<defs>
<linearGradient id="paint0_linear_3137_572195" x1="294.821" y1="20.1758" x2="294.821" y2="403.095" gradientUnits="userSpaceOnUse">
<stop stop-color="#F9F1F1"/>
<stop offset="1" stop-color="#FEF3E6"/>
</linearGradient>
</defs>
</svg>
