<svg width="593" height="427" viewBox="0 0 593 427" fill="none" xmlns="http://www.w3.org/2000/svg">
<path d="M143.799 74.8C174.199 48.7 204.199 38.9 223.699 32.7C316.699 3.20002 396.799 33.8 420.899 43.4C439.599 50.8 452.599 56.1 466.299 68.8C498.199 98.2 503.299 138.9 508.599 180.8C512.299 210.5 508.999 238.8 502.399 295.4C499.899 317.1 496.999 334.4 484.599 351.3C473.799 366 459.9 374.6 445.199 381.4C385.499 408.9 315.599 404.1 279.499 399.7C218.299 392.3 187.699 388.6 161.299 371.2C91.1995 324.7 59.9995 219.2 92.1995 143.1C107.699 106.3 135.799 81.7 143.799 74.8Z" fill="#F9F1F1"/>
<path d="M143.799 74.8C174.199 48.7 204.199 38.9 223.699 32.7C316.699 3.20002 396.799 33.8 420.899 43.4C439.599 50.8 452.599 56.1 466.299 68.8C498.199 98.2 503.299 138.9 508.599 180.8C512.299 210.5 508.999 238.8 502.399 295.4C499.899 317.1 496.999 334.4 484.599 351.3C473.799 366 459.9 374.6 445.199 381.4C385.499 408.9 315.599 404.1 279.499 399.7C218.299 392.3 187.699 388.6 161.299 371.2C91.1995 324.7 59.9995 219.2 92.1995 143.1C107.699 106.3 135.799 81.7 143.799 74.8Z" fill="url(#paint0_linear_3137_572520)"/>
<path d="M143.799 74.8C174.199 48.7 204.199 38.9 223.699 32.7C316.699 3.20002 396.799 33.8 420.899 43.4C439.599 50.8 452.599 56.1 466.299 68.8C498.199 98.2 503.299 138.9 508.599 180.8C512.299 210.5 508.999 238.8 502.399 295.4C499.899 317.1 496.999 334.4 484.599 351.3C473.799 366 459.9 374.6 445.199 381.4C385.499 408.9 315.599 404.1 279.499 399.7C218.299 392.3 187.699 388.6 161.299 371.2C91.1995 324.7 59.9995 219.2 92.1995 143.1C107.699 106.3 135.799 81.7 143.799 74.8Z" stroke="#7B4E4C" stroke-width="1.4936" stroke-miterlimit="10"/>
<path d="M135.384 119.815L154.928 114.044L152.466 103.944L132.922 109.715L135.384 119.815Z" fill="#CE387A"/>
<path d="M120.767 104.906L125.634 124.873L135.52 121.953L130.653 101.986L120.767 104.906Z" fill="#CE387A"/>
<path d="M467.144 334.564L448.27 326.883L443.893 336.313L462.768 343.994L467.144 334.564Z" fill="#CE387A"/>
<path d="M469.268 355.336L477.92 336.694L468.372 332.809L459.72 351.45L469.268 355.336Z" fill="#CE387A"/>
<path d="M161.403 297.819C182.127 309.613 236.213 316.016 280.525 272.209L281.536 273.219L280.525 272.209C297.374 255.697 307.484 217.112 275.639 182.572C270.248 176.675 255.252 159.658 230.484 152.244C198.808 142.809 143.88 146.684 123.325 188.975C105.633 225.368 120.629 274.399 161.403 297.819Z" stroke="#935B9B" stroke-width="2.5554"/>
<path d="M204.126 249.282C200.13 240.853 200.987 237.171 202.32 235.324C205.337 231.771 211.619 235.037 217.616 230.217C218.514 229.428 221.962 226.623 222.356 222.673C222.787 216.436 215.094 214.409 212.633 206.433C211.537 203.116 211.355 198.769 213.562 193" stroke="#324A9A" stroke-width="2" stroke-miterlimit="10"/>
<path d="M151 182.711C159.194 188.532 163.2 188.531 165.203 187.44C169.573 185.075 167.388 177.617 173.579 172.342C174.49 171.432 178.131 168.522 182.319 169.068C188.875 169.795 189.603 178.345 197.615 182.711C200.892 184.53 205.445 185.621 212 184.53" stroke="#E5231E" stroke-width="2" stroke-miterlimit="10"/>
<path d="M206.412 293.571C205.382 290.737 203.248 286.997 199.346 284.377C190.269 278.318 178.895 284.371 176.165 279.887C173.011 274.99 185.201 263.892 182.732 260.745C179.414 256.773 157.207 274.909 145.503 267.467C142.704 265.751 140.658 262.597 140.217 259.25C139.599 254.732 142.535 250.911 148.331 244.779C161.686 230.56 169.443 227.416 168.831 223.736C168.479 221.393 164.491 218.606 146.654 217.468" stroke="#E5231E" stroke-width="2" stroke-miterlimit="10"/>
<path d="M222.688 292.325C222.745 289.234 223.355 284.913 226.149 280.998C232.713 271.982 245.371 273.772 246.49 268.645C247.764 262.846 232.329 256.37 233.743 252.565C235.464 247.416 262.714 257.227 271.12 246.086C273.183 243.469 273.996 239.685 273.206 236.504C272.122 232 268.037 229.238 260.719 225.441C243.139 216.497 234.874 216.125 234.127 212.518C233.675 210.233 236.512 205.892 252.905 198.707" stroke="#324A9A" stroke-width="2" stroke-miterlimit="10"/>
<path d="M444.367 152.807C422.609 143.051 368.159 141.858 328.245 189.707L327.142 188.798L328.245 189.707C313.055 207.757 306.687 247.132 341.693 278.464C347.625 283.818 364.181 299.321 389.545 304.328C421.979 310.687 476.283 301.569 492.694 257.504C506.819 219.584 487.197 172.214 444.367 152.807Z" stroke="#935B9B" stroke-width="2.5554"/>
<path d="M406.489 205.212C411.274 213.22 410.773 216.967 409.624 218.933C406.96 222.759 400.395 220.109 394.886 225.481C394.068 226.353 390.905 229.475 390.891 233.445C391.059 239.695 398.911 240.975 402.124 248.678C403.533 251.876 404.13 256.185 402.486 262.139" stroke="#324A9A" stroke-width="2" stroke-miterlimit="10"/>
<path d="M465.747 266.39C457.033 261.38 453.045 261.764 451.156 263.042C447.032 265.815 449.922 273.029 444.264 278.873C443.445 279.866 440.099 283.112 435.878 282.97C429.283 282.873 427.739 274.432 419.346 270.854C415.909 269.357 411.273 268.707 404.853 270.421" stroke="#E5231E" stroke-width="2" stroke-miterlimit="10"/>
<path d="M399.972 161.345C401.269 164.068 403.751 167.586 407.886 169.821C417.502 174.983 428.243 167.868 431.39 172.07C434.999 176.643 423.928 188.857 426.687 191.753C430.37 195.389 450.738 175.209 463.101 181.497C466.051 182.937 468.39 185.88 469.15 189.17C470.197 193.608 467.641 197.693 462.459 204.351C450.526 219.784 443.106 223.657 444.069 227.261C444.643 229.559 448.879 231.951 466.743 231.376" stroke="#E5231E" stroke-width="2" stroke-miterlimit="10"/>
<path d="M383.891 164.144C384.13 167.226 383.937 171.587 381.53 175.751C375.859 185.354 363.089 184.784 362.465 189.995C361.753 195.889 377.737 200.857 376.694 204.781C375.474 210.07 347.41 202.915 340.109 214.809C338.306 217.611 337.86 221.456 338.951 224.547C340.461 228.927 344.791 231.284 352.439 234.363C370.795 241.582 379.058 241.161 380.146 244.68C380.816 246.912 378.407 251.504 362.778 260.226" stroke="#324A9A" stroke-width="2" stroke-miterlimit="10"/>
<defs>
<linearGradient id="paint0_linear_3137_572520" x1="294.821" y1="20.1758" x2="294.821" y2="403.095" gradientUnits="userSpaceOnUse">
<stop stop-color="#F9F1F1"/>
<stop offset="1" stop-color="#FEF3E6"/>
</linearGradient>
</defs>
</svg>
