<svg width="593" height="427" viewBox="0 0 593 427" fill="none" xmlns="http://www.w3.org/2000/svg">
<path d="M550 196.5C547.5 180.2 539.6 128.5 497.7 99.5C457.8 71.8 392.469 69.1014 360.5 99.5C332 126.6 325.5 211.5 301.5 208.5C286 206.5 293.5 127 256 93.7C213 55.5161 158.1 66.3 116.3 86.1C110.7 88.8 87.1 100.5 68.3 126.6C31.3 177.7 30.4 259 73.9 306.1C101.8 336.3 139.4 343.1 155.8 346.1C164.8 347.7 206.7 355.4 251 338.4C297 313 285 243.7 301.5 241.5C329.4 237.7 314.5 313 351 336C390.3 352.8 462.8 365.4 505.1 338.7C550.5 309.9 556.5 238.9 550 196.5Z" fill="#F8EFEF" stroke="#7B4E4B" stroke-width="1.4936" stroke-miterlimit="10"/>
<path d="M91.6372 300L109.011 310.65L114.863 302.058L97.4899 291.408L91.6372 300Z" fill="#CE387A"/>
<path d="M92.9229 279.16L81.3525 296.145L90.1407 301.532L101.711 284.547L92.9229 279.16Z" fill="#CE387A"/>
<path d="M536.578 273.24L532.931 253.191L522.625 254.558L526.273 274.607L536.578 273.24Z" fill="#CE387A"/>
<path d="M520.19 286.178L540.563 283.476L538.718 273.334L518.345 276.037L520.19 286.178Z" fill="#CE387A"/>
<path d="M137.403 282.153C158.127 293.947 212.213 300.35 256.525 256.542L257.536 257.553L256.525 256.542C273.374 240.03 283.484 201.446 251.639 166.906C246.248 161.009 231.252 143.991 206.484 136.578C174.808 127.142 119.88 131.018 99.3246 173.308C81.6332 209.702 96.6287 258.733 137.403 282.153Z" stroke="#935B9B" stroke-width="2.5554"/>
<path d="M180.126 233.616C176.13 225.187 176.987 221.505 178.32 219.657C181.337 216.104 187.619 219.371 193.616 214.551C194.514 213.762 197.962 210.957 198.356 207.006C198.787 200.769 191.094 198.743 188.633 190.767C187.537 187.45 187.355 183.103 189.562 177.334" stroke="#324A9A" stroke-width="2" stroke-miterlimit="10"/>
<path d="M127 167.044C135.194 172.865 139.2 172.865 141.203 171.774C145.573 169.409 143.388 161.951 149.579 156.676C150.49 155.766 154.131 152.856 158.319 153.401C164.875 154.129 165.603 162.679 173.615 167.044C176.892 168.863 181.445 169.955 188 168.863" stroke="#E5231E" stroke-width="2" stroke-miterlimit="10"/>
<path d="M182.412 277.905C181.382 275.07 179.248 271.331 175.346 268.711C166.269 262.651 154.895 268.705 152.165 264.221C149.011 259.324 161.201 248.226 158.732 245.079C155.414 241.107 133.207 259.243 121.503 251.801C118.704 250.085 116.658 246.931 116.217 243.584C115.599 239.065 118.535 235.244 124.331 229.113C137.686 214.893 145.443 211.749 144.831 208.069C144.479 205.727 140.491 202.94 122.654 201.802" stroke="#E5231E" stroke-width="2" stroke-miterlimit="10"/>
<path d="M198.688 276.659C198.745 273.568 199.355 269.246 202.149 265.331C208.713 256.316 221.371 258.106 222.49 252.979C223.764 247.18 208.329 240.704 209.743 236.899C211.464 231.75 238.714 241.56 247.12 230.42C249.183 227.803 249.996 224.019 249.206 220.837C248.122 216.334 244.037 213.572 236.719 209.775C219.139 200.831 210.874 200.459 210.127 196.852C209.675 194.566 212.512 190.226 228.905 183.041" stroke="#324A9A" stroke-width="2" stroke-miterlimit="10"/>
<path d="M463.204 147.141C441.446 137.385 386.996 136.192 347.082 184.041L345.979 183.132L347.082 184.041C331.892 202.091 325.524 241.466 360.53 272.798C366.461 278.151 383.018 293.655 408.382 298.662C440.816 305.021 495.12 295.903 511.531 251.838C525.656 213.917 506.034 166.548 463.204 147.141Z" stroke="#935B9B" stroke-width="2.5554"/>
<path d="M425.325 199.546C430.11 207.553 429.609 211.301 428.459 213.267C425.796 217.093 419.23 214.443 413.722 219.815C412.904 220.687 409.741 223.808 409.727 227.779C409.895 234.029 417.747 235.309 420.96 243.012C422.369 246.209 422.966 250.519 421.322 256.473" stroke="#324A9A" stroke-width="2" stroke-miterlimit="10"/>
<path d="M484.583 260.724C475.869 255.714 471.881 256.098 469.992 257.376C465.868 260.148 468.758 267.363 463.1 273.207C462.281 274.2 458.935 277.445 454.714 277.303C448.119 277.207 446.575 268.766 438.182 265.188C434.745 263.691 430.109 263.041 423.689 264.755" stroke="#E5231E" stroke-width="2" stroke-miterlimit="10"/>
<path d="M418.809 155.679C420.106 158.402 422.588 161.92 426.723 164.155C436.339 169.317 447.08 162.202 450.227 166.404C453.836 170.976 442.765 183.191 445.524 186.087C449.207 189.723 469.575 169.543 481.938 175.831C484.888 177.271 487.227 180.214 487.987 183.503C489.034 187.942 486.478 192.026 481.295 198.685C469.363 214.118 461.943 217.99 462.906 221.595C463.48 223.893 467.716 226.285 485.58 225.71" stroke="#E5231E" stroke-width="2" stroke-miterlimit="10"/>
<path d="M402.727 158.478C402.967 161.56 402.773 165.921 400.367 170.085C394.696 179.688 381.926 179.118 381.302 184.329C380.59 190.223 396.574 195.191 395.531 199.114C394.311 204.404 366.247 197.248 358.946 209.143C357.143 211.945 356.697 215.789 357.788 218.881C359.297 223.26 363.628 225.618 371.276 228.697C389.632 235.916 397.895 235.495 398.983 239.014C399.653 241.245 397.244 245.838 381.615 254.56" stroke="#324A9A" stroke-width="2" stroke-miterlimit="10"/>
</svg>
