<svg width="394" height="444" viewBox="0 0 394 444" fill="none" xmlns="http://www.w3.org/2000/svg">
<path d="M87.5001 49.9001C87.4001 50.2001 87.4001 50.6001 87.5001 50.9001C87.5001 51.3001 87.6001 51.6001 87.6001 51.9001C87.7001 52.5001 87.9001 53.1001 88.2001 53.6001C88.3001 53.7001 88.3001 53.9001 88.4001 54.0001C88.5001 54.1001 88.6001 54.2001 88.6001 54.4001C88.7001 54.7001 88.9001 54.9001 89.0001 55.2001C89.1001 55.5001 89.3001 55.7001 89.4001 56.0001C89.5001 56.3001 89.7001 56.5001 89.9001 56.6001C91.5001 58.0001 93.0001 59.3001 94.6001 60.7001C97.7001 63.5001 100.7 66.3001 103.7 69.2001C109.7 75.0001 115.5 81.0001 121.1 87.2001C126.7 93.4001 132.2 99.8001 137.5 106.4C142.8 113 147.8 119.8 152.7 126.7C162.5 140.5 171.6 154.9 180.3 169.6C184.6 176.9 188.9 184.4 193 191.9C195.1 195.6 197.1 199.4 199 203.2C200 205.1 200.9 207 201.9 208.9C202.4 209.9 202.9 210.8 203.3 211.8C203.4 212.1 203.6 212.4 203.7 212.7C203.8 212.9 203.9 213 203.9 213.1C204.1 213.4 204.3 213.6 204.5 213.9C204.7 214.1 204.9 214.4 205.1 214.7C205.5 215.2 206 215.7 206.5 216.2C207 216.7 207.5 217.1 208 217.5C209 218.4 210.1 219.2 211.2 220.1C211.8 220.7 212.5 221.3 213.1 221.9C213.9 222.6 214.9 223.1 215.9 223.6C217 224.1 218 224.5 219.1 224.9C220.2 225.3 221.3 225.6 222.5 226C223.6 226.4 224.7 226.7 225.9 227.1C227 227.5 228.1 228 229.2 228.6C229.5 228.8 229.8 229 230.1 229.2C230.5 229.3 231 229.5 231.5 229.7C232 229.9 232.5 230.2 232.9 230.5C233.4 230.8 233.8 231.2 234.2 231.6C234.6 232 234.9 232.6 235.2 233.1C234.8 232.6 234.4 232.2 234.1 231.9C233.7 231.6 233.2 231.3 232.8 231C232.4 230.8 232 230.6 231.6 230.5C231.8 230.7 232 231 232.1 231.2C232.5 231.8 232.8 232.4 233 233C233.1 233.2 233.2 233.5 233.3 233.7C233.5 234 233.7 234.4 233.9 234.6C234.1 234.9 234.4 235.1 234.7 235.3C235 235.5 235.3 235.7 235.6 236C235.9 236.3 236.1 236.6 236.3 237C236.1 236.7 235.8 236.4 235.5 236.2C235.2 236 234.9 235.9 234.6 235.7C234.4 235.6 234.2 235.4 234 235.2C234.2 235.7 234.4 236.3 234.5 236.8C234.7 237.5 234.9 238.1 235 238.8C234.8 238.1 234.5 237.5 234.3 236.9C234 236.3 233.8 235.6 233.5 235C233.3 234.5 233 234 232.8 233.5C232.8 234 232.6 234.6 232.4 235C232.2 235.5 232 236 231.7 236.4C231.6 236.6 231.5 236.9 231.4 237.1C231.3 237.3 231.2 237.6 231.2 237.9C231.2 237.6 231.2 237.4 231.3 237.1C231.4 236.8 231.5 236.6 231.6 236.3C231.8 235.8 232 235.3 232.1 234.9C232.2 234.4 232.4 233.9 232.4 233.4C232.4 233.1 232.4 232.8 232.3 232.5C232.3 232.4 232.2 232.4 232.2 232.3C232.1 232.1 232 232 231.9 231.9L231.8 231.7L231.7 231.5C231.2 230.9 230.7 230.4 230.1 230C230.1 230.2 230.1 230.5 230.1 230.7C230 231.3 229.9 231.9 229.7 232.5C229.6 233.1 229.4 233.6 229.4 234.2C229.4 234.8 229.4 235.3 229.4 235.9C229.3 235.4 229.1 234.8 229.1 234.2C229.1 233.6 229.2 233 229.2 232.4C229.3 231.8 229.4 231.3 229.4 230.7C229.4 230.3 229.4 229.9 229.2 229.5C229.1 229.4 229 229.4 228.8 229.3C227.8 228.8 226.7 228.4 225.6 228C224.5 227.6 223.4 227.4 222.2 227.1C221.1 226.8 219.9 226.5 218.8 226.2C217.7 225.8 216.5 225.5 215.4 225C215.3 224.9 215.1 224.9 215 224.8C215.1 225 215.2 225.2 215.3 225.4C215.4 225.6 215.4 225.7 215.5 225.9C215.6 226.3 216 226.7 216.5 227.1C217 227.4 217.5 227.7 218.1 228C218.7 228.3 219.2 228.6 219.7 229C220 229.2 220.2 229.4 220.4 229.7C220.6 230 220.8 230.3 220.9 230.6C220.7 230.3 220.5 230 220.3 229.9C220.1 229.7 219.8 229.5 219.5 229.4C219 229.1 218.4 229 217.8 228.8C217.3 228.6 216.7 228.4 216.2 228.2C216.5 229.5 217 230.7 217.5 231.9L217.6 232.1L217.7 232.3C217.8 232.5 217.9 232.6 218 232.8L218.3 233.3C218.4 233.5 218.5 233.6 218.6 233.8C218.7 234 218.8 234.1 218.9 234.2C219 234.3 219.1 234.5 219.2 234.6L219.4 234.8C219.5 234.9 219.5 234.9 219.6 235C219.7 235.1 219.9 235.2 220 235.3C219.7 235.3 219.4 235.1 219.1 234.9C219 234.8 218.8 234.7 218.7 234.6C218.6 234.5 218.4 234.4 218.3 234.2C218.1 234 217.9 233.7 217.7 233.4C217.8 233.6 217.8 233.9 217.9 234.1C218.1 234.7 218.3 235.3 218.4 236L218.5 236.4L218.6 236.9C218.6 237 218.6 237.2 218.7 237.4C218.7 237.5 218.7 237.5 218.7 237.6V237.8C218.6 237.2 218.3 236.6 218.1 236.1L217.4 234.4C217.2 233.8 217 233.3 216.7 232.7C216.5 232.2 216.3 231.6 216.1 231L216 230.8L215.8 230.3L215.6 229.8C215.6 229.9 215.6 229.9 215.6 229.9C215.4 230.5 215.2 231.1 214.9 231.8C214.6 232.4 214.4 233 214.1 233.5C214 233.8 213.8 234 213.7 234.4C213.6 234.7 213.5 235 213.4 235.3C213.4 234.7 213.6 234 213.8 233.4C214 232.8 214.2 232.2 214.4 231.6C214.6 231 214.8 230.4 214.9 229.8C215 229.4 215 229 215.1 228.6C215 228.5 215 228.4 215 228.3L214.6 227.2L214.5 226.9C214.3 227.5 214 227.9 213.7 228.4C213.4 228.9 213.1 229.3 212.8 229.8C212.5 230.3 212.3 230.7 212.2 231.3C212.2 230.7 212.3 230.1 212.5 229.6C212.7 229.1 213 228.6 213.2 228.1C213.4 227.6 213.7 227.1 213.8 226.6C213.9 226.4 213.9 226.1 213.9 225.9C213.6 225.4 213.4 224.9 213.1 224.4C212.4 223.3 211.4 222.4 210.3 221.6C209.3 220.8 208.1 220.1 207 219.3C206.4 218.9 205.9 218.5 205.3 218C204.8 217.5 204.2 217.1 203.7 216.5C203.4 216.3 203.2 215.9 202.9 215.7C202.7 215.5 202.5 215.2 202.3 215C201.8 214.4 201.5 213.8 201.1 213.1C200.6 212.2 200.1 211.2 199.6 210.3C198.6 208.4 197.7 206.5 196.6 204.6L190.5 193.4C186.4 185.9 182.2 178.5 177.9 171.2C169.2 156.6 160.1 142.3 150.4 128.6C145.5 121.7 140.5 115 135.3 108.5C130.1 102 124.6 95.6001 119 89.5001C113.4 83.3001 107.6 77.4001 101.7 71.6001C98.7001 68.7001 95.7001 65.9001 92.7001 63.1001C91.2001 61.7001 89.6001 60.4001 88.1001 59.0001C87.9001 58.8001 87.7001 58.7001 87.4001 58.6001C87.2001 58.5001 86.9001 58.4001 86.6001 58.4001C86.3001 58.3001 86.1001 58.3001 85.8001 58.2001C85.7001 58.2001 85.6001 58.1001 85.4001 58.1001C85.3001 58.1001 85.1001 58.0001 85.0001 58.0001C84.5001 57.8001 83.9001 57.7001 83.3001 57.7001C83.0001 57.7001 82.7001 57.6001 82.3001 57.6001C81.9001 57.6001 81.6001 57.6001 81.1001 57.5001L87.5001 49.9001Z" fill="#B33939"/>
<path d="M73.3 56.3C73.1 55.9 73.3 55.4 73.6 55.2C75.4 53.4 76.5 50.6 75.4 48C75.3 47.6 75.2 47.2 75.5 46.9C75.8 46.5 76.2 46 76.5 45.5C76.7 45.2 77.1 45.1 77.5 45.1C79.8 45.5 81.3 44.3 82.1 42.7C82.2 42.5 82.4 42.3 82.7 42.3C83.1 42.3 83.7 42.3 84.3 42.4C84.7 42.5 84.9 42.8 85.1 43.1C86 45.4 88.3 46.8 91.1 47.4C91.4 47.5 91.7 47.7 91.8 48C91.9 48.4 92.1 48.9 92.2 49.3C92.3 49.6 92.3 50 92.1 50.3C91 52.5 91 55.3 92.2 57.8C92.4 58.2 92.4 58.7 92.2 59.1C91.9 59.6 91.6 60.1 91.3 60.5C91.1 60.8 90.8 60.9 90.4 60.9C88.5 60.7 87.3 61.4 86.5 62.1C85.8 62.7 85.1 63.3 84.5 64.7C84.4 65 84 65.3 83.7 65.2C83.4 65.1 82.9 65 82.5 64.9C82 64.8 81.6 64.4 81.5 63.9C81.1 62.5 80.3 60.4 79.3 59.5C78.5 58.7 77.2 57.8 74.6 57.7C74.2 57.7 73.9 57.5 73.7 57.1C73.5 57 73.4 56.7 73.3 56.3Z" fill="#B33939"/>
<path d="M73.1 55.7C75.4 53.8 76.8 50.5 75.1 47.4C74.4 46 75.3 44.8 76.8 45C79.7 45.7 81.4 44.2 82.2 42.3C82.9 40.7 84.3 40.9 84.7 42.5C85.4 45.3 88.1 46.9 91.4 47.5C92.5 47.7 92.8 48.7 92.2 49.8C90.8 52.2 90.7 55.5 92.5 58.4C93.3 59.8 92.6 61.2 90.9 60.9C88.7 60.5 87.3 61.3 86.4 62C85.6 62.7 84.9 63.3 84.2 65.2C83.7 66.6 81.8 66.3 81.6 64.7C81.4 63.6 80.4 60.5 79.2 59.4C78.3 58.6 76.9 57.6 74 57.6C72.5 57.8 71.8 56.7 73.1 55.7Z" fill="#B33939"/>
<path d="M84.8 79C84.4 78.1 84 77.3 83.8 76.5C83.5 75.7 83.3 74.8 83.2 74C83.2 73.6 83.2 73.2 83.2 72.8L83.3 72.2C83.3 72.1 83.3 72 83.3 71.9C83.3 71.8 83.3 71.7 83.3 71.5C83.3 71 83.2 70.6 83.1 70.1C83.1 70 83 69.9 83 69.9C83 69.8 83.1 69.7 83.1 69.6L83.3999 68.8C83.4999 69 83.7 69.2 83.8 69.4C84 69.8 84.2999 70.2 84.3999 70.6C84.5999 71 84.7 71.4 84.8 71.9C85 72.8 85 73.7 85.2 74.6C85.3 75 85.4 75.5 85.5 75.9C85.6 76.3 85.8 76.7 86 77.1C85.8 76.7 85.6 76.3 85.5 75.8C85.4 75.4 85.3 74.9 85.2 74.5C85.1 73.6 85.1 72.7 85 71.8C84.9 71.3 84.8 70.9 84.6 70.5C84.5 70.4 84.4999 70.2 84.3999 70.1C84.6999 70.3 85 70.3 85.3 70.4C85.6 70.5 86 70.5 86.3 70.7C86.6 70.8 86.9 71 87.1 71.3C86.9 71 86.6 70.7 86.3 70.6C86 70.4 85.6 70.4 85.3 70.2C85 70.1 84.6999 69.9 84.3999 69.7C84.1999 69.5 84 69.3 83.8 69C83.7 68.7 83.3 68.4 83.2 68.1C83.2 68.1 83.4 67.3 83.5 66.7C83.6 66 83.7999 65.5 83.8999 64.8C84.0999 64.1 84.1 63.9 84.3 63.1L81.2 62.5C81.2 63.2 81.2 63.7 81.2 64.4C81.1 64.8 81.2 65.1 81.1 65.7C81 65.8 80.8 65.8 80.5 65.9C80.3 65.9 80 66 79.8 66C79.5 66 79.1999 66 78.8999 66C78.5999 66 78.3 66.1 78 66.1C77.7 66.1 77.4 66.3 77.1 66.4C77.4 66.3 77.7 66.2 78 66.2C78.3 66.2 78.5999 66.3 78.8999 66.4C79.0999 66.4 79.3 66.5 79.6 66.5C79.5 66.6 79.4999 66.6 79.3999 66.6C79.2999 66.7 79.1 66.9 79 67L78.6 67.4C78.1 67.9 77.4 68.1 76.7 68.2C76 68.4 75.3 68.5 74.7 69C75.3 68.6 76 68.5 76.7 68.5C77.1 68.5 77.4 68.4 77.8 68.3C78.2 68.2 78.5 68 78.8 67.8L79 67.6L79.2 67.4C79.3 67.3 79.5 67.2 79.6 67.1C79.9 66.9 80.0999 66.8 80.3999 66.6C80.4999 66.6 80.7999 66.5 80.8999 66.5C80.8999 66.5 81 66.9 81 67.5C81 67.8 81 68.4 81 68.6C80.9 68.8 80.7 68.9 80.5 69C80.2 69.2 79.9 69.3 79.5 69.5C79.4 69.5 79.4 69.6 79.3 69.6C79.2 69.6 79.1 69.7 79 69.7C78.8 69.7 78.5 69.7 78.2 69.7C77.9 69.7 77.6 69.7 77.4 69.7C77.1 69.7 76.9 69.9 76.6 70C76.8 69.9 77.1 69.9 77.4 69.9C77.7 69.9 77.9 70 78.2 70.1C78.3 70.1 78.4 70.1 78.5 70.2C77.9 70.6 77.4 71.3 77 71.9C76.6 72.6 76.2 73.2 75.6 73.7C75.9 73.5 76.2 73.3 76.5 73C76.8 72.7 77 72.4 77.2 72.1C77.6 71.5 78 70.8 78.7 70.5C79 70.4 79.4 70.3 79.7 70.2C80 70.1 80.4 70 80.8 69.9C80.9 69.9 81 69.8 81 69.8C81 70 81 70.2 81 70.4C80.9 71 80.8 71.5 80.5 72C80.2 72.4 79.7 72.7 79.2 73C78.7 73.3 78.1 73.6 77.6 74C77.1 74.4 76.7 74.9 76.4 75.5C76.8 75 77.3 74.7 77.8 74.4C78.3 74.1 78.9 74 79.5 73.8C79.8 73.7 80.0999 73.6 80.3999 73.4C80.2999 73.6 80.2 73.9 80 74.1C79.8 74.4 79.5 74.8 79.3 75.1C79.1 75.5 78.8 75.8 78.7 76.3C78.9 75.9 79.0999 75.6 79.3999 75.3C79.6999 75 79.9 74.7 80.2 74.4C80.5 74.1 80.8 73.8 81 73.4C81.2 73.1 81.5 72.7 81.7 72.3C81.9 71.9 82.1 71.5 82.3 71.1C82.4 71.3 82.3999 71.6 82.3999 71.8V72.1V72.4L82.3 73C82.3 73.1 82.3 73.3 82.3 73.4C82.2 73.7 82.1 74 82.1 74.3C82.1 74.6 82.1 74.9 82.1 75.2C82.1 75.8 82.3 76.5 82.5 77C82.3 76.4 82.3 75.8 82.3 75.2C82.3 74.9 82.2999 74.6 82.3999 74.3C82.4999 74.7 82.6 75.2 82.7 75.6C82.8 76 83 76.4 83.1 76.8C84 77.6 84.3 78.3 84.8 79Z" fill="#B33939"/>
<path d="M69.9 58.9001C70.1 58.8001 70.2 58.7001 70.4 58.7001C70.5 58.7001 70.6 58.6001 70.7 58.6001C70.6 58.7001 70.6 58.8001 70.5 58.9001C70.5 59.0001 70.4 59.2001 70.4 59.3001C70.3 59.6001 70.3 59.8001 70.2 60.0001C70.1 60.5001 70.1 61.0001 70 61.4001C69.9 61.9001 69.9 62.3001 69.7 62.8001C69.6 62.9001 69.6 63.0001 69.5 63.1001C69.4 63.2001 69.4 63.3001 69.3 63.4001C69.2 63.6001 69 63.8001 68.9 64.0001C68.7 64.4001 68.5 64.9001 68.5 65.4001C68.5 65.9001 68.6 66.4001 68.7 66.9001C68.7 66.7001 68.6 66.4001 68.6 66.2001C68.6 65.9001 68.6 65.7001 68.6 65.5001C68.6 65.0001 68.9 64.6001 69.1 64.2001C69.2 64.0001 69.4 63.8001 69.5 63.6001C69.6 63.5001 69.6 63.4001 69.7 63.3001C69.8 63.2001 69.8 63.1001 69.9 63.0001C70.1 62.5001 70.2 62.1001 70.3 61.6001C70.4 61.1001 70.4 60.6001 70.5 60.2001C70.6 59.8001 70.7 59.3001 70.9 59.0001C70.7 59.7001 70.6 60.4001 70.6 61.2001C70.6 61.6001 70.6 62.0001 70.7 62.3001C70.8 62.6001 70.8 63.0001 70.7 63.3001C70.6 63.6001 70.5 64.0001 70.5 64.3001C70.5 64.7001 70.5 65.0001 70.5 65.4001C70.5 65.0001 70.5 64.7001 70.5 64.3001C70.6 63.9001 70.7 63.6001 70.8 63.3001C70.9 63.0001 70.9 62.5001 70.8 62.2001C70.7 61.8001 70.7 61.5001 70.8 61.1001C70.8 60.7001 70.9 60.4001 70.9 60.1001C71 59.8001 71.1 59.4001 71.2 59.1001C71.3 58.8001 71.4 58.6001 71.6 58.4001C71.7 58.4001 71.7 58.3001 71.7 58.3001C72.1 58.2001 72.4 58.1001 72.7 58.0001C72.7 58.0001 73.1 58.0001 73.3 57.9001C73.7 57.9001 73.9 57.8001 74.3 57.7001C74.5 57.7001 74.9 57.5001 74.9 57.5001C74.9 57.5001 75.3 57.4001 75.3 57.3001L73.8 54.9001C73.8 54.9001 73.4 55.3001 73.3 55.4001C73.1 55.6001 72.9 55.6001 72.6 55.8001C72.2 56.0001 71.7 56.1001 71.3 56.1001C71.2 56.1001 71.1 56.1001 71 56.1001H70.8H70.7H70.6C70.5 56.1001 70.4 56.1001 70.2 55.9001C70 55.8001 69.9 55.7001 69.7 55.7001C69.2 55.5001 68.8 55.4001 68.3 55.3001H68.2C67.8 55.1001 67.4 54.8001 67.1 54.4001C66.9 54.2001 66.7 54.0001 66.6 53.7001V53.6001C66.5 53.4001 66.5 53.2001 66.4 53.0001C66.3 52.7001 66.3 52.5001 66.3 52.2001C66.2 51.9001 66.1 51.6001 65.9 51.4001C66 51.7001 66.1 51.9001 66.1 52.2001C66.1 52.4001 66.1 52.7001 66.1 53.0001C66.1 53.0001 66.1 53.0001 66 52.9001C66 52.8001 65.9 52.8001 65.8 52.7001L65.6 52.6001L65.4 52.5001C65.3 52.5001 65.3 52.4001 65.2 52.4001C65.1 52.3001 64.9 52.2001 64.8 52.1001C64.7 52.0001 64.6 52.0001 64.4 51.9001C63.9 51.7001 63.3 51.6001 62.7 51.5001C63.2 51.7001 63.8 51.8001 64.3 52.1001C64.8 52.4001 65.2 52.7001 65.5 53.2001C65.9 53.7001 66.1 54.2001 66.5 54.7001C66.6 54.8001 66.7 55.0001 66.8 55.1001C66.5 55.1001 66.2 55.2001 65.9 55.2001C65.6 55.2001 65.3 55.3001 65 55.4001C64.8 55.5001 64.6 55.5001 64.4 55.6001H64.3C64.1 55.6001 63.8 55.5001 63.6 55.5001C63.3 55.4001 62.9 55.2001 62.6 55.0001C62.3 54.8001 62 54.6001 61.7 54.3001C61.4 54.1001 61.1 53.8001 60.7 53.8001C61 53.9001 61.3 54.1001 61.6 54.4001L62.4 55.1001C62.6 55.3001 62.5 55.6001 62.2 55.6001C61.9 55.6001 61.6 55.6001 61.3 55.6001C61 55.7001 60.7 55.8001 60.5 55.9001C60.8 55.8001 61 55.7001 61.3 55.7001C61.6 55.7001 61.9 55.7001 62.1 55.8001C62.7 55.9001 63.2 56.1001 63.9 56.1001C64.2 56.1001 64.5 56.0001 64.8 55.9001C65.1 55.9001 65.4 55.8001 65.6 55.8001C66.1 55.7001 66.7 55.7001 67.2 55.9001C67.7 56.0001 68.2 56.2001 68.7 56.6001C68.8 56.7001 68.9 56.7001 69 56.8001C69.1 56.9001 69.3 57.0001 69.4 57.1001L69.5 57.2001H69.4C69.1 57.4001 68.9 57.7001 68.5 57.9001C68.5 57.9001 68.4 57.9001 68.4 58.0001C68.3 58.1001 68.1 58.1001 68 58.2001C67.7 58.3001 67.3 58.3001 67 58.4001C66.6 58.4001 66.3 58.5001 65.9 58.6001C65.5 58.7001 65.2 58.8001 64.8 58.9001C64.1 59.1001 63.4 59.3001 62.8 58.9001C62.5 58.8001 62.2 58.5001 61.9 58.3001C61.6 58.1001 61.2 57.9001 60.9 57.7001C61.2 57.9001 61.5 58.1001 61.8 58.4001C62.1 58.6001 62.4 58.9001 62.7 59.1001C63.1 59.3001 63.5 59.3001 63.8 59.3001C64 59.3001 64.2 59.3001 64.5 59.2001C64.3 59.3001 64.1 59.4001 63.9 59.5001C63.5 59.7001 63 59.8001 62.6 59.8001C62.4 59.8001 62.1 59.8001 61.9 59.8001C61.6 59.8001 61.4 59.9001 61.2 60.0001C61.4 59.9001 61.7 59.9001 61.9 59.9001C62.1 59.9001 62.4 60.0001 62.6 60.0001C62.8 60.0001 63.1 60.0001 63.4 60.0001C63.6 60.0001 63.9 59.9001 64.1 59.8001C64.5 59.6001 64.9 59.3001 65.4 59.1001C65.6 59.0001 65.9 58.9001 66.1 58.8001C66.5 58.8001 66.8 58.7001 67.1 58.7001C67.3 58.7001 67.4 58.7001 67.6 58.7001C67.4 58.9001 67.2 59.2001 67 59.4001C66.9 59.5001 66.9 59.6001 66.8 59.6001C66.8 59.7001 66.7 59.8001 66.7 59.8001C66.6 59.9001 66.5 60.1001 66.4 60.2001C66.2 60.5001 65.9 60.6001 65.6 60.8001C65.2 61.0001 64.8 61.0001 64.4 61.1001C64.3 61.1001 64.2 61.1001 64.1 61.1001C63.9 61.1001 63.7 61.0001 63.5 60.9001C63.3 60.8001 63.1 60.7001 62.8 60.7001C62.6 60.7001 62.3 60.6001 62.1 60.6001C61.9 60.6001 61.6 60.7001 61.4 60.7001C61.2 60.8001 61 60.9001 60.8 61.0001C60.6 61.1001 60.4 61.2001 60.2 61.2001C60 61.2001 59.8 61.1001 59.6 61.0001C59.8 61.1001 60 61.3001 60.3 61.3001C60.5 61.3001 60.8 61.3001 61 61.2001C61.2 61.1001 61.4 61.0001 61.6 61.0001C61.8 60.9001 62 60.9001 62.2 60.9001C62.4 60.9001 62.6 61.0001 62.8 61.0001C63 61.1001 63.2 61.1001 63.3 61.2001C63.1 61.2001 62.8 61.3001 62.6 61.4001C62.3 61.5001 62 61.8001 61.7 62.0001C61.2 62.4001 60.5 62.7001 59.9 63.0001C59.2 63.2001 58.6 63.5001 58 64.0001C58.6 63.6001 59.3 63.4001 59.9 63.2001C60.6 63.0001 61.2 62.7001 61.8 62.3001C62.1 62.1001 62.3 61.9001 62.6 61.7001C62.9 61.6001 63.2 61.6001 63.6 61.5001C63.9 61.5001 64.1 61.5001 64.4 61.5001C64.6 61.5001 64.7 61.7001 64.6 61.9001C64.6 62.0001 64.5 62.0001 64.5 62.0001C64.1 62.6001 63.8 63.2001 63.4 63.6001C63.3 63.7001 63.2 63.8001 63 63.8001C62.9 63.8001 62.7 63.9001 62.5 64.0001C62.2 64.2001 62 64.4001 61.8 64.7001C61.6 65.0001 61.5 65.3001 61.3 65.6001C61.1 65.9001 60.9 66.2001 60.6 66.3001C60.9 66.2001 61.1 65.9001 61.3 65.6001C61.5 65.3001 61.7 65.0001 61.9 64.7001C62.1 64.4001 62.3 64.2001 62.6 64.1001C62.7 64.0001 62.9 64.0001 63 63.9001C63.2 63.9001 63.3 63.8001 63.5 63.7001C63.6 63.6001 63.7 63.6001 63.8 63.5001C63.7 63.7001 63.7 64.0001 63.7 64.2001C63.7 64.5001 63.7 64.7001 63.7 65.0001C63.7 65.3001 63.7 65.5001 63.6 65.8001C63.4 66.3001 63 66.7001 62.9 67.2001C62.7 67.7001 62.6 68.3001 62.7 68.9001C62.7 68.3001 62.8 67.8001 63 67.3001C63.1 67.0001 63.2 66.8001 63.4 66.6001C63.6 66.4001 63.7 66.2001 63.8 65.9001C63.9 65.8001 63.9 65.6001 63.9 65.5001C63.9 65.3001 63.9 65.2001 63.9 65.1001C63.9 64.8001 63.9 64.6001 64 64.3001C64 64.0001 64.1 63.8001 64.1 63.5001C64.2 63.2001 64.3 63.0001 64.4 62.8001C64.5 62.6001 64.7 62.4001 64.8 62.2001C65.1 61.8001 65.5 61.4001 65.9 61.1001C66.1 61.0001 66.3 60.9001 66.5 60.8001C66.4 61.0001 66.3 61.3001 66.2 61.5001C66.1 61.8001 66 62.2001 66 62.6001C66 63.0001 66 63.3001 65.9 63.6001C65.8 63.8001 65.8 63.9001 65.7 64.1001C65.6 64.3001 65.6 64.4001 65.6 64.6001C65.7 64.4001 65.7 64.3001 65.8 64.1001C65.9 63.9001 66 63.8001 66 63.6001C66.2 63.3001 66.2 62.9001 66.2 62.5001C66.2 62.2001 66.3 61.8001 66.4 61.5001C66.4 61.5001 66.4 61.5001 66.4 61.4001C66.4 61.6001 66.4 61.7001 66.4 61.9001C66.5 62.3001 66.6 62.7001 66.6 63.1001C66.6 63.5001 66.7 63.9001 66.7 64.3001C66.7 64.7001 66.6 65.1001 66.6 65.5001C66.6 65.9001 66.7 66.3001 66.9 66.7001C66.7 66.3001 66.7 65.9001 66.7 65.5001C66.7 65.1001 66.8 64.7001 66.8 64.3001C66.8 63.9001 66.8 63.5001 66.8 63.1001C66.7 62.7001 66.6 62.3001 66.6 61.9001C66.6 61.5001 66.6 61.2001 66.7 60.8001C66.8 60.5001 66.9 60.2001 67.1 59.9001L67.2 59.8001C67.3 59.7001 67.3 59.7001 67.4 59.6001C68.8 59.7001 69.4 59.3001 69.9 58.9001Z" fill="#B33939"/>
<path d="M67.6 34.1001C67.9 34.9001 68.1 35.8001 68.4 36.6001C68.7 37.4001 69.1 38.2001 69.6 38.9001C69.8 39.2001 70.1 39.5001 70.4 39.8001L70.9 40.2001C71 40.3001 71.1 40.4001 71.2 40.4001C71.3 40.5001 71.4 40.6001 71.4 40.6001C71.7 40.9001 71.9 41.3001 72.1 41.8001C72.1 41.9001 72.2 41.9001 72.2 42.0001C72.3 42.0001 72.4 42.1001 72.4 42.1001L73.2 42.5001C73.2 42.2001 73.1 42.0001 73.1 41.7001C73 41.3001 72.9 40.8001 72.8 40.4001C72.7 40.0001 72.5 39.6001 72.3 39.2001C71.9 38.4001 71.3 37.7001 70.8 36.9001C70.6 36.5001 70.3 36.1001 70.2 35.7001C70 35.3001 69.9 34.8001 69.8 34.4001C69.9 34.8001 70 35.3001 70.2 35.7001C70.4 36.1001 70.6 36.5001 70.9 36.8001C71.4 37.5001 72 38.2001 72.5 38.9001C72.7 39.3001 72.9 39.7001 73.1 40.2001C73.2 40.3001 73.2 40.5001 73.2 40.6001C73.3 40.3001 73.5 40.0001 73.7 39.7001C73.9 39.4001 74.1 39.1001 74.2 38.8001C74.3 38.5001 74.4 38.1001 74.4 37.7001C74.5 38.1001 74.4 38.5001 74.3 38.8001C74.2 39.1001 74 39.5001 73.8 39.8001C73.6 40.1001 73.5 40.5001 73.5 40.8001C73.5 41.1001 73.5 41.4001 73.5 41.7001C73.6 42.0001 73.6 42.5001 73.6 42.8001C73.6 42.8001 74.3 43.2001 74.7 43.6001C75.2 44.1001 75.7 44.3001 76.3 44.7001C76.9 45.1001 77.1 45.2001 77.7 45.6001L75.8 48.3001C75.4 47.7001 74.1 46.3001 73.7 46.0001C73.6 46.0001 73.4 46.1001 73.2 46.3001C73 46.5001 72.7 46.8001 72.5 46.9001C72.3 47.1001 72.1 47.3001 71.8 47.5001C71.6 47.7001 71.3 47.9001 71.1 48.1001C70.9 48.3001 70.6 48.4001 70.3 48.5001C70.6 48.4001 70.8 48.2001 71.1 48.0001C71.3 47.8001 71.5 47.5001 71.7 47.2001C71.8 47.0001 72 46.8001 72.1 46.6001C72 46.6001 71.9 46.6001 71.9 46.6001C71.7 46.6001 71.5 46.6001 71.3 46.6001H70.8C70.1 46.6001 69.5 47.0001 68.9 47.4001C68.3 47.8001 67.7 48.2001 66.9 48.3001C67.6 48.2001 68.2 47.6001 68.7 47.2001C69 47.0001 69.3 46.7001 69.6 46.5001C69.9 46.3001 70.3 46.2001 70.7 46.1001H71H71.2C71.4 46.1001 71.5 46.0001 71.7 46.0001C72 45.9001 72.3 45.8001 72.7 45.6001C72.8 45.6001 73 45.4001 73.1 45.3001C73.1 45.3001 72.8 45.1001 72.5 44.6001C72.3 44.4001 71.9 43.9001 71.8 43.8001C71.6 43.8001 71.4 43.8001 71.1 43.9001C70.8 44.0001 70.4 44.1001 70.1 44.2001C70 44.2001 69.9 44.3001 69.9 44.3001C69.8 44.4001 69.7 44.4001 69.6 44.5001C69.4 44.6001 69.2 44.8001 69.1 45.1001C68.9 45.3001 68.7 45.6001 68.5 45.7001C68.3 45.9001 68 46.0001 67.8 46.1001C68 46.0001 68.3 45.8001 68.5 45.6001C68.7 45.4001 68.8 45.2001 69 44.9001C69.1 44.8001 69.1 44.7001 69.2 44.6001C68.5 44.7001 67.7 44.6001 67 44.4001C66.3 44.2001 65.6 44.0001 64.9 44.1001C65.3 44.0001 65.6 43.9001 66 44.0001C66.4 44.0001 66.7 44.1001 67.1 44.2001C67.8 44.3001 68.5 44.5001 69.2 44.3001C69.5 44.2001 69.9 44.0001 70.2 43.8001C70.5 43.6001 70.8 43.4001 71.2 43.3001C71.3 43.3001 71.4 43.2001 71.4 43.2001C71.3 43.1001 71.1 42.9001 71 42.8001C70.6 42.4001 70.1 42.1001 69.6 42.0001C69.1 41.9001 68.6 42.0001 68 42.2001C67.4 42.4001 66.8 42.6001 66.2 42.6001C65.6 42.7001 64.9 42.6001 64.3 42.4001C64.9 42.4001 65.5 42.3001 66 42.1001C66.5 41.9001 67.1 41.6001 67.6 41.3001C67.9 41.2001 68.1 41.0001 68.5 40.9001C68.3 40.8001 68 40.7001 67.8 40.7001C67.4 40.6001 67 40.6001 66.6 40.5001C66.2 40.4001 65.8 40.3001 65.4 40.1001C65.8 40.3001 66.2 40.3001 66.6 40.3001C67 40.3001 67.4 40.4001 67.8 40.4001C68.2 40.4001 68.6 40.4001 69 40.5001C69.4 40.6001 69.8 40.7001 70.2 40.8001C70.6 40.9001 71 41.1001 71.4 41.2001C71.3 41.0001 71.2 40.8001 71 40.6001L70.8 40.4001L70.6 40.2001L70.1 39.8001C70 39.7001 69.9 39.6001 69.8 39.5001C69.5 39.4001 69.3 39.2001 69.1 39.0001C68.9 38.8001 68.7 38.6001 68.5 38.3001C68.1 37.8001 67.8 37.3001 67.6 36.7001C67.9 37.3001 68.2 37.7001 68.6 38.2001C68.8 38.4001 69 38.6001 69.2 38.8001C69 38.4001 68.8 38.1001 68.6 37.7001C68.4 37.3001 68.3 36.9001 68.1 36.5001C68 35.8001 67.8 34.9001 67.6 34.1001Z" fill="#B33939"/>
<path d="M83.6001 37C83.6001 37.2 83.6001 37.4 83.6001 37.6C83.6001 37.7 83.6001 37.8001 83.6001 37.9001C83.7001 37.8001 83.7 37.7 83.8 37.6C83.9 37.5 84 37.4 84 37.3C84.2 37.1 84.3 37.0001 84.5 36.9001C84.9 36.6001 85.2001 36.4 85.6001 36.1C85.9001 35.8 86.3 35.5001 86.5 35.2001C86.6 35.1 86.6 35.0001 86.7 34.9001C86.8 34.8001 86.8 34.7 86.9 34.6C87 34.4 87.1 34.2 87.2 34C87.4 33.6 87.7001 33.2 88.1001 33C88.5001 32.8 88.9 32.7 89.3 32.6C89.1 32.7 88.9 32.7 88.7 32.8C88.5 32.9 88.3001 33 88.1001 33.1C87.7001 33.3 87.5 33.7 87.3 34.1C87.2 34.3 87.1 34.5001 87 34.7001C87 34.8001 86.9 34.9 86.8 35C86.7 35.1 86.7001 35.2 86.6001 35.3C86.3001 35.7 86.0001 36 85.6001 36.3C85.2001 36.6 84.9001 36.8 84.6001 37.1C84.3001 37.4 83.9 37.7 83.8 38C84.3 37.5 84.8 37.1 85.4 36.8C85.7 36.7 86 36.6 86.3 36.5C86.6 36.4 86.9001 36.3 87.1001 36.1C87.3001 35.9 87.6 35.6001 87.8 35.4001C88.1 35.2001 88.4 35.1 88.7 35C88.4 35.1 88.1 35.2 87.9 35.5C87.7 35.7 87.5 36.0001 87.2 36.2001C87 36.4001 86.6 36.6 86.3 36.7001C86 36.8001 85.7 36.9 85.4 37.1C85.1 37.3 84.9001 37.4001 84.6001 37.7001C84.4001 37.9001 84.1 38.2001 83.9 38.4001C83.7 38.6001 83.6 38.8 83.5 39C83.5 39.1 83.5 39.1 83.5 39.2C83.6 39.6 83.7 40.0001 83.8 40.4001C83.9 40.6001 83.9 40.8 84 41C84.1 41.4 84.2 41.8 84.2 42.1C84.2 42.3 84.3 42.5 84.3 42.7C84.3 42.8 84.3 42.9 84.3 43C84.3 43.1 84.3 43.1 84.3 43.2C84.3 43.2 84.3 43.3001 84.3 43.4001L81.5 42.8001V42.7C81.5 42.6 81.5001 42.6 81.6001 42.5C81.6001 42.4 81.7 42.2 81.7 42.1C81.8 41.8 81.8 41.6001 81.8 41.3001C81.8 40.8001 81.8001 40.3001 81.6001 39.8001C81.5001 39.7001 81.5 39.6 81.5 39.5L81.4 39.4001L81.3 39.3001L81.2 39.2C81.1 39.1 81.1 39.0001 80.9 38.9001C80.8 38.8001 80.7 38.7 80.5 38.5C80.1 38.1 79.9001 37.7001 79.6001 37.2001C79.6001 37.2001 79.6001 37.2 79.6001 37.1C79.3001 36.8 79 36.5001 78.5 36.4001C78.3 36.3001 78 36.2001 77.7 36.2001C77.7 36.2001 77.7 36.2001 77.6 36.2001C77.4 36.2001 77.2 36.2 77.1 36.3C76.9 36.3 76.6 36.4 76.4 36.5C76.2 36.6 75.9 36.6001 75.6 36.4001C75.9 36.4001 76.1 36.4 76.3 36.3C76.5 36.2 76.7 36.1 76.9 36H76.8C76.7 36 76.7 35.9001 76.6 35.9001L76.4 35.8L76.2 35.7001C76.1 35.6 76.1 35.6 76 35.6C75.9 35.5 75.8 35.4 75.6 35.3C75.5 35.2 75.4 35.1 75.3 35C74.9 34.6 74.6 34 74.3 33.5C74.6 34 75 34.5 75.4 34.8C75.8 35.2 76.3 35.5 76.8 35.6C77.3 35.8 77.8 35.8 78.4 36C78.5 36 78.7 36.1 78.8 36.1C78.7 35.8 78.6001 35.5 78.6001 35.1C78.5001 34.8 78.5 34.4 78.4 34.1C78.3 33.9 78.3 33.7 78.3 33.5C78.3 33.5 78.3 33.5001 78.3 33.4001C78.2 33.2001 78.1 32.9 77.9 32.8C77.7 32.6 77.4 32.3 77.1 32.1C76.8 31.9 76.5 31.7 76.2 31.5C75.9 31.3 75.6 31.1001 75.4 30.7001C75.6 31.0001 75.9 31.2001 76.2 31.4001L77.1 32C77.3 32.1 77.5 31.9 77.4 31.6C77.3 31.3 77.2 31.0001 77.1 30.7001C77 30.4001 77 30.0001 77 29.7001C77 30.0001 77.1 30.4 77.2 30.6C77.3 30.9 77.4 31.2001 77.6 31.4001C77.9 31.9001 78.3 32.4 78.5 33.1C78.6 33.5 78.6 33.8 78.7 34.1C78.8 34.4 78.8 34.7 78.9 35C79.1 35.6 79.3001 36.2 79.6001 36.6C79.9001 37.1 80.3 37.5 80.7 37.8C80.8 37.9 80.9 37.9 81 38C81.1 38 81.3 38.2001 81.4 38.3001L81.5 38.4001C81.5 38.4001 81.5 38.4001 81.5 38.3001C81.6 37.9001 81.7 37.5 81.8 37.1V37C81.8 36.8 81.8 36.7 81.7 36.5C81.6 36.1 81.5 35.8001 81.4 35.4001C81.3 35.0001 81.2001 34.6 81.1001 34.2001C81.0001 33.8001 81 33.4 80.9 33C80.8 32.2 80.6001 31.5001 80.1001 30.9001C79.9001 30.6001 79.6 30.4001 79.3 30.2001C79 30.0001 78.7 29.7001 78.5 29.4001C78.8 29.6001 79.1 29.9 79.4 30.1C79.7 30.3 80 30.5 80.3 30.8C80.6 31.1 80.8 31.4 80.9 31.8C81 32 81.1001 32.3 81.1001 32.5C81.1001 32.2 81.1001 32.0001 81.1001 31.7001C81.1001 31.2001 81 30.7001 80.8 30.2001C80.7 30.0001 80.6 29.7 80.5 29.5C80.4 29.3 80.4 29.0001 80.4 28.7001C80.4 29.0001 80.5001 29.2 80.6001 29.5C80.7001 29.7 80.8 29.9001 81 30.2001C81.1 30.4001 81.2 30.7 81.3 31C81.4 31.3 81.4 31.6 81.4 31.8C81.4 32.3 81.4 32.8001 81.4 33.4001C81.4 33.7001 81.4 34.0001 81.5 34.2001C81.6 34.6 81.7 34.9 81.8 35.3C81.9 35.5 81.9 35.6 82 35.8C82.1 35.5 82.2 35.2001 82.3 34.9001C82.3 34.8001 82.4 34.7 82.4 34.6C82.5 34.5 82.5 34.4001 82.5 34.4001C82.6 34.2001 82.7 34.1001 82.7 33.9001C82.8 33.6001 82.8 33.2001 82.8 32.9001C82.8 32.5001 82.7001 32 82.6001 31.6C82.5001 31.5 82.5 31.4 82.5 31.3C82.4 31.1 82.3001 31 82.1001 30.8C81.9001 30.6 81.8 30.4001 81.7 30.2001C81.6 30.0001 81.5 29.8 81.4 29.5C81.3 29.3 81.3 29.0001 81.2 28.7001C81.2 28.4001 81.2 28.2 81.2 28C81.2 27.8 81.2001 27.5 81.1001 27.3C81.0001 27.1 80.9 26.9001 80.7 26.7001C80.9 26.8001 81.1 27.0001 81.2 27.2001C81.3 27.4001 81.4 27.7001 81.4 27.9001C81.4 28.2001 81.5 28.4 81.5 28.6C81.5 28.8 81.6 29.1 81.7 29.3C81.8 29.5 81.9 29.7001 82 29.9001C82.1 30.1001 82.2 30.2001 82.4 30.4001C82.3 30.1001 82.3 29.9 82.3 29.6C82.3 29.2 82.4 28.8001 82.5 28.4001C82.7 27.7001 82.6001 26.9 82.6001 26.1C82.6001 25.3 82.5001 24.6 82.6001 23.8C82.5001 24.6 82.6 25.3 82.7 26.1C82.8 26.8 82.9 27.6001 82.7 28.4001C82.6 28.8001 82.6001 29.1 82.6001 29.5C82.6001 29.9 82.7 30.2 82.9 30.6C83 30.9 83.1 31.2 83.2 31.5C83.3 31.7 83.5001 31.7 83.6001 31.5C83.6001 31.5 83.6 31.4001 83.7 31.4001C84 30.8001 84.4 30.2 84.5 29.6C84.5 29.4 84.5 29.3 84.5 29.1C84.5 28.9 84.5 28.7 84.5 28.5C84.5 28.1 84.6 27.8 84.8 27.5C85 27.2 85.1 26.9 85.3 26.6C85.5 26.3 85.6001 26 85.6001 25.6C85.6001 26 85.5 26.3 85.3 26.6C85.1 26.9 85 27.2 84.8 27.5C84.7 27.8 84.6001 28.1 84.6001 28.5C84.6001 28.7 84.7 28.8 84.7 29C84.7 29.2 84.7 29.4 84.7 29.6C84.7 29.7 84.7001 29.9 84.6001 30C84.7001 29.9 84.9001 29.7 85.1001 29.6C85.3001 29.5 85.5 29.3001 85.8 29.2001C86 29.1001 86.2 29 86.4 28.8C86.7 28.4 86.9 27.9 87.2 27.5C87.5 27.1 88 26.8 88.4 26.6C87.9 26.8 87.5 27.1 87.2 27.5C87 27.7 86.9 27.9001 86.8 28.2001C86.7 28.5001 86.6 28.7001 86.4 28.9001C86.3 29.0001 86.2001 29.1001 86.1001 29.2001C86.0001 29.3001 85.9 29.3001 85.8 29.4001C85.6 29.5001 85.4 29.7 85.2 29.8C85 29.9 84.8001 30.1 84.6001 30.3C84.4001 30.5 84.3 30.7001 84.2 30.9001C84.1 31.1001 84 31.3 83.8 31.6C83.6 32.1 83.4 32.6 83.4 33.1C83.4 33.3 83.4 33.6 83.3 33.8C83.4 33.6 83.6 33.4001 83.7 33.2001C83.9 33.0001 84.2 32.7 84.5 32.6C84.8 32.5 85 32.3 85.2 32.1C85.3 32 85.4 31.9001 85.5 31.7001C85.6 31.6001 85.7 31.5001 85.9 31.4001C85.8 31.5001 85.7001 31.6 85.6001 31.8C85.5001 32 85.4 32.1 85.3 32.2001C85.1 32.5001 84.8 32.7001 84.5 32.9001C84.2 33.1001 84 33.3 83.8 33.5C83.9 33.4 84.1 33.3 84.2 33.3C84.6 33.2 84.9 33.2 85.2 33.1C85.5 33 85.9 32.9001 86.2 32.7001C86.5 32.5001 86.8001 32.3001 87.1001 32.2001C87.4001 32.0001 87.8 32 88.2 32C87.8 32 87.5 32.1 87.2 32.3C86.9 32.5 86.6 32.7001 86.3 32.9001C86 33.1001 85.7 33.2001 85.3 33.4001C85 33.5001 84.6 33.5001 84.3 33.7001C84 33.8001 83.7 34 83.5 34.3C83.3 34.5 83.1 34.8 82.9 35.1C82.9 35.2 82.9 35.2001 82.8 35.2001C82.8 35.3001 82.7 35.4 82.7 35.5C83.9 35.6 83.8001 36.3 83.6001 37Z" fill="#B33939"/>
<path d="M96.3999 46.9001C96.1999 47.0001 95.9999 47.1001 95.7999 47.2001C95.6999 47.2001 95.5999 47.3001 95.4999 47.4001C95.5999 47.4001 95.7999 47.4001 95.8999 47.5001C95.9999 47.5001 96.0999 47.6001 96.2999 47.6001C96.4999 47.7001 96.7999 47.8001 96.9999 47.9001C97.3999 48.1001 97.7999 48.3001 98.1999 48.5001C98.5999 48.7001 98.9999 48.9001 99.4999 49.0001C99.5999 49.0001 99.6999 49.0001 99.8999 49.1001C99.9999 49.1001 100.1 49.1001 100.3 49.1001C100.6 49.1001 100.8 49.1001 101.1 49.1001C101.6 49.1001 102.1 49.3001 102.5 49.5001C102.9 49.8001 103.2 50.1001 103.4 50.5001C103.3 50.4001 103.1 50.2001 102.9 50.0001C102.7 49.9001 102.6 49.7001 102.4 49.6001C102 49.4001 101.5 49.3001 101 49.3001C100.7 49.3001 100.5 49.3001 100.2 49.3001C100.1 49.3001 99.9999 49.3001 99.7999 49.3001C99.6999 49.3001 99.4999 49.3001 99.3999 49.3001C98.8999 49.2001 98.3999 49.0001 97.9999 48.8001C97.5999 48.6001 97.1999 48.4001 96.7999 48.2001C96.3999 48.0001 95.9999 47.8001 95.4999 47.9001C96.1999 48.1001 96.7999 48.4001 97.3999 48.9001C97.6999 49.1001 97.8999 49.4001 98.0999 49.7001C98.2999 50.0001 98.4999 50.2001 98.7999 50.3001C99.0999 50.5001 99.4999 50.5001 99.7999 50.7001C100.1 50.9001 100.4 51.1001 100.6 51.4001C100.4 51.2001 100.1 50.9001 99.7999 50.8001C99.4999 50.7001 99.0999 50.6001 98.7999 50.5001C98.3999 50.4001 98.0999 50.2001 97.8999 49.9001C97.6999 49.6001 97.4999 49.4001 97.1999 49.2001C96.8999 49.0001 96.5999 48.8001 96.2999 48.7001C95.9999 48.5001 95.6999 48.4001 95.2999 48.4001C94.9999 48.3001 94.7999 48.3001 94.4999 48.3001C94.3999 48.3001 94.3999 48.3001 94.2999 48.4001C93.8999 48.6001 93.5999 48.9001 93.1999 49.2001C92.9999 49.4001 92.8999 49.5001 92.6999 49.6001C92.3999 49.9001 91.9999 50.2001 91.6999 50.4001C91.4999 50.5001 90.6999 51.1001 90.5999 51.2001L90.3999 47.6001C90.3999 47.6001 91.3999 47.8001 91.6999 47.7001C92.1999 47.5001 92.7999 47.2001 93.1999 46.9001C93.2999 46.8001 93.3999 46.7001 93.4999 46.6001L93.5999 46.4001L93.6999 46.3001V46.2001C93.7999 46.1001 93.7999 46.0001 93.8999 45.8001C93.9999 45.6001 94.0999 45.5001 94.0999 45.3001C94.3999 44.8001 94.6999 44.3001 95.0999 43.9001C95.0999 43.9001 95.0999 43.9001 95.1999 43.8001C95.3999 43.4001 95.4999 42.9001 95.4999 42.4001C95.4999 42.1001 95.4999 41.8001 95.4999 41.6001V41.5001C95.3999 41.3001 95.2999 41.2001 95.1999 41.0001C94.9999 40.8001 94.8999 40.6001 94.6999 40.4001C94.4999 40.2001 94.3999 39.9001 94.4999 39.6001C94.5999 39.8001 94.6999 40.0001 94.8999 40.2001C95.0999 40.3001 95.2999 40.5001 95.3999 40.6001C95.3999 40.6001 95.3999 40.6001 95.3999 40.5001C95.3999 40.4001 95.3999 40.3001 95.3999 40.3001L95.4999 40.1001L95.5999 39.9001C95.5999 39.8001 95.6999 39.7001 95.6999 39.7001C95.7999 39.5001 95.7999 39.4001 95.8999 39.2001C95.9999 39.1001 95.9999 38.9001 96.0999 38.8001C96.3999 38.2001 96.7999 37.7001 97.2999 37.2001C96.8999 37.7001 96.5999 38.3001 96.3999 38.8001C96.1999 39.4001 95.9999 39.9001 96.0999 40.5001C96.0999 41.1001 96.2999 41.6001 96.2999 42.2001C96.2999 42.4001 96.2999 42.5001 96.2999 42.7001C96.5999 42.5001 96.8999 42.3001 97.1999 42.1001C97.4999 41.9001 97.7999 41.7001 98.0999 41.5001C98.2999 41.4001 98.4999 41.2001 98.6999 41.1001C98.6999 41.1001 98.7999 41.1001 98.7999 41.0001C98.9999 40.8001 99.1999 40.6001 99.2999 40.4001C99.4999 40.1001 99.6999 39.7001 99.7999 39.3001C99.8999 38.9001 99.9999 38.6001 100.1 38.2001C100.2 37.9001 100.3 37.4001 100.6 37.1001C100.3 37.4001 100.3 37.8001 100.2 38.2001L99.9999 39.3001C99.9999 39.6001 100.3 39.7001 100.5 39.5001C100.7 39.2001 101 39.0001 101.3 38.8001C101.6 38.6001 101.9 38.4001 102.3 38.3001C102 38.5001 101.7 38.6001 101.4 38.9001C101.1 39.2001 100.9 39.4001 100.7 39.6001C100.3 40.1001 99.8999 40.7001 99.2999 41.2001C98.9999 41.4001 98.6999 41.6001 98.3999 41.8001C98.0999 42.0001 97.7999 42.2001 97.5999 42.4001C97.0999 42.8001 96.5999 43.3001 96.1999 43.8001C95.7999 44.3001 95.4999 44.8001 95.3999 45.4001C95.3999 45.5001 95.2999 45.7001 95.2999 45.8001C95.2999 45.9001 95.1999 46.1001 95.1999 46.3001V46.5001C95.1999 46.5001 95.1999 46.5001 95.2999 46.5001C95.6999 46.4001 96.1999 46.4001 96.5999 46.2001H96.6999C96.8999 46.1001 96.9999 46.0001 97.1999 45.9001C97.5999 45.7001 97.8999 45.4001 98.1999 45.1001C98.5999 44.8001 98.8999 44.6001 99.2999 44.3001C99.6999 44.0001 100.1 43.8001 100.4 43.6001C101.1 43.2001 101.9 42.6001 102.2 41.9001C102.4 41.6001 102.5 41.1001 102.6 40.8001C102.7 40.4001 102.9 40.0001 103.1 39.7001C103 40.1001 102.9 40.5001 102.8 40.8001C102.7 41.2001 102.7 41.6001 102.5 42.0001C102.3 42.4001 102 42.8001 101.7 43.1001C101.5 43.3001 101.3 43.5001 101.1 43.6001C101.4 43.5001 101.6 43.4001 101.9 43.3001C102.4 43.1001 102.9 42.8001 103.3 42.4001C103.5 42.2001 103.7 42.0001 103.9 41.8001C104.1 41.6001 104.4 41.5001 104.7 41.4001C104.5 41.5001 104.2 41.7001 104 41.9001C103.8 42.1001 103.6 42.3001 103.5 42.6001C103.3 42.8001 103.1 43.0001 102.8 43.2001C102.5 43.4001 102.3 43.5001 102 43.6001C101.5 43.8001 100.9 44.0001 100.4 44.3001C100.1 44.4001 99.8999 44.6001 99.5999 44.7001C99.2999 44.9001 98.9999 45.2001 98.5999 45.5001C98.3999 45.6001 98.2999 45.7001 98.0999 45.9001C98.3999 45.8001 98.7999 45.8001 99.0999 45.8001C99.1999 45.8001 99.2999 45.8001 99.3999 45.8001C99.4999 45.8001 99.5999 45.8001 99.6999 45.8001C99.8999 45.8001 100.1 45.8001 100.3 45.8001C100.7 45.8001 101.1 45.7001 101.4 45.5001C101.8 45.3001 102.2 45.0001 102.7 44.7001C102.8 44.6001 102.9 44.5001 102.9 44.4001C103.1 44.2001 103.2 44.0001 103.3 43.8001C103.4 43.6001 103.5 43.3001 103.7 43.1001C103.9 42.9001 104 42.7001 104.2 42.5001C104.4 42.3001 104.7 42.1001 104.9 42.0001C105.2 41.9001 105.4 41.8001 105.7 41.7001C105.9 41.6001 106.2 41.5001 106.4 41.3001C106.6 41.1001 106.7 40.9001 106.8 40.7001C106.7 40.9001 106.6 41.2001 106.4 41.4001C106.2 41.6001 106 41.8001 105.7 41.9001C105.5 42.0001 105.2 42.1001 105 42.3001C104.8 42.4001 104.6 42.6001 104.4 42.8001C104.2 43.0001 104.1 43.2001 103.9 43.4001C103.8 43.6001 103.7 43.7001 103.6 43.9001C103.8 43.7001 104.1 43.5001 104.4 43.4001C104.8 43.2001 105.2 43.1001 105.6 43.0001C106.4 42.8001 107.2 42.5001 107.9 42.1001C108.7 41.7001 109.4 41.3001 110.3 41.1001C109.5 41.4001 108.7 41.8001 108 42.2001C107.3 42.6001 106.5 43.0001 105.6 43.3001C105.2 43.4001 104.8 43.5001 104.4 43.7001C104 43.9001 103.7 44.2001 103.4 44.4001C103.2 44.6001 102.9 44.8001 102.6 45.1001C102.4 45.3001 102.5 45.5001 102.7 45.5001H102.8C103.5 45.5001 104.3 45.7001 105 45.5001C105.2 45.4001 105.3 45.4001 105.5 45.3001C105.7 45.2001 105.9 45.1001 106 45.0001C106.4 44.9001 106.8 44.8001 107.2 44.8001C107.6 44.8001 107.9 44.9001 108.3 44.9001C108.7 44.9001 109.1 44.9001 109.4 44.8001C109 45.0001 108.6 45.0001 108.3 45.0001C107.9 45.0001 107.6 45.0001 107.2 45.0001C106.8 45.0001 106.5 45.1001 106.1 45.2001C105.9 45.3001 105.8 45.4001 105.6 45.5001C105.4 45.6001 105.2 45.7001 105 45.8001C104.9 45.9001 104.7 45.9001 104.6 45.9001C104.8 46.0001 105 46.1001 105.2 46.2001C105.4 46.3001 105.7 46.5001 105.9 46.7001C106.1 46.9001 106.3 47.0001 106.6 47.1001C107.1 47.3001 107.7 47.2001 108.3 47.3001C108.9 47.4001 109.3 47.7001 109.7 48.1001C109.3 47.7001 108.8 47.5001 108.3 47.4001C108 47.3001 107.7 47.3001 107.5 47.3001C107.2 47.3001 106.9 47.3001 106.6 47.2001C106.4 47.2001 106.3 47.1001 106.2 47.0001C106.1 46.9001 106 46.8001 105.9 46.8001C105.7 46.7001 105.5 46.5001 105.2 46.4001C105 46.3001 104.7 46.2001 104.5 46.1001C104.3 46.0001 104 46.0001 103.7 45.9001C103.4 45.9001 103.2 45.9001 102.9 45.9001C102.3 45.9001 101.8 46.0001 101.2 46.2001C101 46.3001 100.7 46.4001 100.5 46.5001C100.8 46.5001 101 46.6001 101.3 46.7001C101.6 46.8001 102 46.9001 102.3 47.2001C102.5 47.4001 102.8 47.6001 103.1 47.7001C103.3 47.8001 103.4 47.8001 103.6 47.8001C103.8 47.8001 103.9 47.9001 104.1 48.0001C103.9 48.0001 103.8 47.9001 103.6 47.9001C103.4 47.9001 103.2 47.9001 103.1 47.8001C102.7 47.7001 102.4 47.5001 102.1 47.4001C101.8 47.2001 101.5 47.1001 101.2 47.0001C101.2 47.0001 101.2 47.0001 101.1 47.0001C101.2 47.1001 101.4 47.2001 101.5 47.3001C101.8 47.6001 101.9 47.9001 102.2 48.2001C102.4 48.5001 102.7 48.7001 103 48.9001C103.3 49.1001 103.7 49.3001 103.9 49.5001C104.2 49.7001 104.4 50.1001 104.5 50.4001C104.4 50.0001 104.1 49.8001 103.8 49.5001C103.5 49.2001 103.1 49.1001 102.8 48.9001C102.5 48.7001 102.2 48.4001 101.9 48.2001C101.7 47.9001 101.5 47.6001 101.3 47.3001C101.1 47.1001 100.7 46.9001 100.4 46.8001C100.1 46.7001 99.6999 46.6001 99.3999 46.6001H99.2999C99.1999 46.6001 99.0999 46.6001 98.9999 46.6001C97.9999 46.6001 97.1999 46.8001 96.3999 46.9001Z" fill="#B33939"/>
<path d="M80.2 50.7C79.6 51.2 79.4 51.8 79.4 52.3C79.4 52.8 79.5 53.2 79.6 53.5C79.8 54.2 80.2 54.6 80.8 55C81.3 55.3 81.9 55.5 82.3 55.5C83.7 55.6 84.3 54.5 84.4 53.8C84.5 51.8 83.3 50.6 82.7 50.3L80.2 50.7ZM81.4 50.2C81.8 50.1 82.3 50.1 82.6 50.3L81.4 50.2ZM81.4 50.2L82.6 50.3L81.4 50.2ZM80.2 50.7C80.5 50.4 80.9 50.2 81.3 50.2L80.2 50.7Z" fill="#8B92D2" fill-opacity="0.4" stroke="#5A5999" stroke-width="0.8619"/>
<path d="M80.3001 50.8C79.2001 51.8 79.5 53 79.7 53.5C80 54.8 81.4 55.3 82.2 55.4C83.5 55.5 84.1 54.5 84.2 53.7C84.3 51.8 83.2 50.6 82.5 50.4C81.8 50.1 80.8001 50.3 80.3001 50.8Z" fill="#5A5999"/>
<path d="M80.3 50.8C79.2 51.8 79.6 52.9 79.7 53.4C80 54.6 81.4 55.2 82.2 55.2C83.5 55.3 84.1 54.3 84.1 53.6C84.2 51.8 83.1 50.6 82.5 50.4C81.8 50.2 80.9 50.4 80.3 50.8Z" fill="#949BD9" stroke="#5C629B" stroke-width="0.4867" stroke-miterlimit="10" stroke-linecap="round" stroke-linejoin="round"/>
<path d="M80.5 52.8C80.7 53.8 81.1999 53.9 81.8999 53.7C82.5999 53.5 82.8 52.6 82.1999 51.9C81.5999 51.2 80.3 51.8 80.5 52.8Z" fill="#406296" stroke="#2D3368" stroke-width="0.4867" stroke-miterlimit="10" stroke-linecap="round" stroke-linejoin="round"/>
<path opacity="0.5" d="M80.7999 52.6C80.8999 53.3 81.2999 53.4 81.8999 53.3C82.3999 53.1 82.5999 52.5 82.0999 51.9C81.4999 51.4 80.5999 51.8 80.7999 52.6Z" fill="#6277C2"/>
<path d="M141.4 64.6001C141.2 64.8001 141.2 65.1001 141.1 65.3001C141 65.6001 141 65.8001 141 66.0001C141 66.5001 141.1 66.9001 141.2 67.3001C141.2 67.4001 141.3 67.5001 141.3 67.6001C141.3 67.7001 141.4 67.8001 141.4 67.9001C141.5 68.1001 141.5 68.3001 141.6 68.5001C141.7 68.7001 141.7 68.9001 141.8 69.1001C141.9 69.3001 142 69.5001 142.1 69.6001C143.3 70.8001 144.5 72.0001 145.7 73.2001C148.1 75.6001 150.4 78.1001 152.7 80.5001C157.2 85.5001 161.6 90.6001 165.7 95.8001C169.8 101 173.8 106.3 177.4 111.7C181.1 117.1 184.5 122.7 187.8 128.3C194.3 139.5 200 151.1 205.3 162.7C207.9 168.5 210.4 174.4 212.7 180.4C213.9 183.4 215 186.3 216.1 189.3C216.6 190.8 217.1 192.3 217.7 193.8C218 194.5 218.2 195.3 218.4 196.1C218.5 196.3 218.5 196.6 218.6 196.8C218.7 196.9 218.7 197 218.7 197.1C218.8 197.3 218.9 197.5 219.1 197.8C219.2 198 219.4 198.2 219.5 198.4C219.8 198.8 220.1 199.2 220.5 199.6C220.9 200 221.2 200.4 221.7 200.7C222.5 201.4 223.4 202.2 224.2 203C224.7 203.5 225.2 204 225.6 204.6C226.2 205.2 227 205.7 227.9 206.2C228.8 206.7 229.8 207.1 230.8 207.5C231.8 207.9 232.8 208.3 233.8 208.7C234.8 209.1 235.8 209.5 236.8 209.9C237.8 210.3 238.8 210.8 239.7 211.4C240 211.6 240.2 211.8 240.5 211.9C240.9 212.1 241.3 212.2 241.7 212.4C242.1 212.6 242.5 212.9 242.9 213.1C243.3 213.4 243.6 213.7 243.9 214.1C244.2 214.5 244.4 214.9 244.5 215.3C244.2 214.9 244 214.6 243.7 214.3C243.4 214 243 213.7 242.6 213.5C242.3 213.3 241.9 213.1 241.6 213C241.8 213.2 241.9 213.4 242 213.6C242.2 214.1 242.4 214.5 242.5 215C242.5 215.2 242.6 215.4 242.6 215.6C242.7 215.9 242.8 216.1 243 216.4C243.2 216.6 243.3 216.8 243.6 217C243.8 217.2 244.1 217.4 244.3 217.6C244.5 217.8 244.7 218.1 244.7 218.4C244.6 218.1 244.4 217.9 244.1 217.7C243.9 217.5 243.6 217.4 243.3 217.2C243.1 217.1 243 216.9 242.8 216.8C242.9 217.2 242.9 217.6 243 218C243 218.5 243.1 219 243.1 219.5C243 219 242.9 218.5 242.9 218C242.8 217.5 242.7 217 242.5 216.6C242.4 216.2 242.3 215.8 242.1 215.5C241.9 215.9 241.7 216.2 241.4 216.5C241.1 216.8 240.8 217.1 240.4 217.4C240.2 217.6 240.1 217.7 239.9 217.9C239.7 218.1 239.6 218.2 239.5 218.4C239.5 218.2 239.6 218 239.7 217.8C239.8 217.6 240 217.5 240.1 217.3C240.4 217 240.7 216.7 240.9 216.3C241.1 216 241.4 215.6 241.5 215.3C241.6 215.1 241.6 214.8 241.6 214.6V214.5C241.6 214.4 241.5 214.3 241.4 214.2L241.3 214L241.2 213.9C240.9 213.4 240.5 213 239.9 212.6C239.9 212.8 239.8 213 239.7 213.1C239.5 213.6 239.2 213.9 239 214.3C238.7 214.7 238.5 215.1 238.3 215.5C238.1 215.9 238 216.3 237.9 216.8C237.9 216.4 237.9 215.9 238 215.5C238.1 215.1 238.3 214.6 238.5 214.2C238.7 213.8 238.9 213.4 239.1 213C239.2 212.7 239.2 212.4 239.2 212.1C239.1 212 239 212 238.9 211.9C238 211.4 237 210.9 236 210.6C235 210.2 234 209.8 232.9 209.5C231.9 209.1 230.8 208.8 229.8 208.4C228.8 208 227.7 207.6 226.8 207.1C226.7 207 226.6 207 226.5 206.9C226.6 207.1 226.6 207.2 226.6 207.4C226.6 207.5 226.6 207.6 226.6 207.7C226.6 208 226.9 208.4 227.3 208.7C227.7 209 228.1 209.3 228.6 209.6C229.1 209.9 229.5 210.2 230 210.5C230.2 210.7 230.4 210.9 230.5 211.1C230.6 211.3 230.7 211.6 230.7 211.8C230.6 211.6 230.4 211.4 230.3 211.2C230.1 211 229.9 210.9 229.7 210.8C229.2 210.5 228.7 210.4 228.2 210.2C227.7 210 227.2 209.8 226.8 209.5C226.9 210.4 227 211.4 227.2 212.3V212.5L227.3 212.7C227.3 212.8 227.4 213 227.4 213.1L227.5 213.5C227.6 213.6 227.6 213.7 227.7 213.9C227.8 214 227.8 214.1 227.9 214.2C228 214.3 228.1 214.4 228.1 214.5L228.2 214.6C228.2 214.7 228.3 214.7 228.3 214.7C228.4 214.8 228.5 214.9 228.7 214.9C228.4 214.8 228.2 214.6 227.9 214.5C227.8 214.4 227.7 214.3 227.6 214.2C227.5 214.1 227.4 214 227.3 213.9C227.1 213.7 227 213.5 226.9 213.3C226.9 213.5 226.9 213.7 227 213.9C227.1 214.4 227.1 214.8 227.1 215.3V215.6V216C227.1 216.1 227.1 216.2 227.1 216.4C227.1 216.5 227.1 216.5 227.1 216.6L227 216.8C227 216.4 226.9 215.9 226.8 215.5L226.5 214.2C226.4 213.8 226.3 213.3 226.2 212.9C226.1 212.5 226.1 212.1 226 211.6V211.5L225.9 211.1L225.8 210.7L225.7 210.8C225.4 211.2 225 211.6 224.7 212C224.3 212.4 223.9 212.8 223.6 213.1C223.4 213.3 223.2 213.5 223.1 213.7C222.9 213.9 222.8 214.1 222.6 214.3C222.8 213.8 223.1 213.4 223.4 213C223.7 212.6 224.1 212.2 224.4 211.8C224.7 211.4 225 211 225.3 210.6C225.5 210.3 225.6 210 225.7 209.7C225.7 209.6 225.7 209.5 225.6 209.5L225.4 208.7V208.5C225.1 208.9 224.7 209.2 224.3 209.4C223.9 209.7 223.5 210 223.2 210.3C222.8 210.6 222.5 210.9 222.3 211.3C222.4 210.9 222.7 210.5 223 210.1C223.3 209.7 223.7 209.4 224 209.1C224.3 208.8 224.7 208.5 224.9 208.1C225 207.9 225.1 207.8 225.2 207.6C225.1 207.2 224.9 206.8 224.7 206.4C224.2 205.5 223.4 204.7 222.6 204C221.8 203.3 220.8 202.6 219.9 201.9C219.5 201.5 219 201.2 218.6 200.7C218.2 200.3 217.7 199.9 217.4 199.4C217.2 199.2 217 198.9 216.8 198.7C216.7 198.5 216.5 198.3 216.4 198.1C216.1 197.6 215.9 197.1 215.7 196.6C215.4 195.9 215.2 195.1 214.9 194.4C214.4 192.9 213.9 191.4 213.3 189.9L209.8 181C207.5 175.1 205 169.2 202.4 163.4C197.2 151.8 191.4 140.3 185 129.1C181.8 123.5 178.4 118 174.7 112.6C171 107.2 167.1 101.9 163 96.8001C158.9 91.6001 154.6 86.6001 150.1 81.7001C147.8 79.2001 145.5 76.8001 143.2 74.4001C142 73.2001 140.8 72.0001 139.6 70.9001C139.5 70.7001 139.3 70.6001 139 70.5001C138.8 70.4001 138.5 70.3001 138.3 70.2001C138.1 70.1001 137.8 70.0001 137.6 70.0001C137.5 70.0001 137.4 69.9001 137.3 69.8001C137.2 69.8001 137.1 69.7001 136.9 69.7001C136.4 69.5001 135.9 69.3001 135.3 69.2001C135 69.1001 134.7 69.1001 134.3 69.0001C134 68.9001 133.6 68.9001 133.2 68.8001L141.4 64.6001Z" fill="#B33939"/>
<path d="M123.7 63.6C123.6 63.2 123.8 62.8 124.2 62.6C126.4 61.3 127.9 59 127.4 56.4C127.3 56 127.4 55.6 127.7 55.4C128.1 55.1 128.5 54.7 128.9 54.4C129.2 54.2 129.6 54.1 129.9 54.3C132.1 55.1 133.8 54.3 134.9 53.1C135.1 52.9 135.3 52.8 135.6 52.8C136 52.9 136.6 53 137.1 53.2C137.4 53.3 137.6 53.7 137.7 54C138.1 56.3 140.1 58 142.8 59.1C143.1 59.2 143.3 59.4 143.4 59.8C143.5 60.2 143.5 60.7 143.6 61.1C143.6 61.4 143.5 61.7 143.3 62C141.8 63.8 141.2 66.3 142 68.9C142.1 69.3 142 69.8 141.7 70C141.3 70.4 140.9 70.8 140.6 71.1C140.3 71.4 140 71.4 139.6 71.3C137.8 70.7 136.5 71.2 135.6 71.6C134.8 72 134 72.4 133.2 73.6C133 73.9 132.6 74.1 132.3 73.9C132 73.8 131.6 73.6 131.2 73.4C130.8 73.2 130.5 72.8 130.4 72.3C130.3 71 129.9 68.8 129.1 67.9C128.4 67 127.4 66 124.9 65.3C124.6 65.2 124.3 65 124.2 64.6C123.8 64.3 123.8 64 123.7 63.6Z" fill="#B33939"/>
<path d="M123.6 63.0001C126.2 61.8001 128.2 59.0001 127.2 55.9001C126.8 54.5001 127.9 53.6001 129.3 54.1001C132 55.3001 133.9 54.3001 135.1 52.8001C136.1 51.5001 137.5 51.9001 137.5 53.5001C137.6 56.2001 139.9 58.2001 143.1 59.4001C144.1 59.8001 144.3 60.8001 143.4 61.7001C141.5 63.6001 140.8 66.6001 142 69.6001C142.5 71.0001 141.5 72.2001 140 71.6001C138 70.8001 136.4 71.2001 135.4 71.7001C134.5 72.2001 133.6 72.6001 132.6 74.2001C131.9 75.4001 130.1 74.7001 130.2 73.3001C130.3 72.3001 129.9 69.3001 128.9 68.0001C128.2 67.1001 127 65.9001 124.1 65.3001C122.7 64.8001 122.1 63.7001 123.6 63.0001Z" fill="#B33939"/>
<path d="M130.6 86.6C130.4 85.7 130.2 84.9 130.1 84.1C130 83.3 129.9 82.5 130 81.7C130 81.3 130.1 80.9 130.3 80.6L130.5 80.1C130.5 80 130.6 79.9 130.6 79.8C130.6 79.7 130.7 79.6 130.7 79.5C130.8 79.1 130.8 78.6 130.8 78.2C130.8 78.1 130.8 78 130.8 78C130.8 77.9 130.9 77.9 130.9 77.8L131.4 77.1C131.5 77.3 131.6 77.5 131.7 77.7C131.8 78.1 132 78.5 132.1 78.9C132.2 79.3 132.2 79.7 132.2 80.1C132.2 80.9 132.1 81.8 132 82.6C132 83 132 83.4 132 83.9C132 84.3 132.2 84.7 132.3 85.1C132.2 84.7 132.1 84.3 132.1 83.9C132.1 83.5 132.1 83.1 132.1 82.6C132.2 81.7 132.4 80.9 132.4 80.1C132.4 79.7 132.4 79.2 132.3 78.8C132.3 78.7 132.2 78.5 132.2 78.4C132.4 78.6 132.7 78.7 133 78.8C133.3 78.9 133.6 79 133.9 79.2C134.2 79.4 134.4 79.6 134.6 79.9C134.4 79.6 134.2 79.3 133.9 79.1C133.6 78.9 133.3 78.7 133 78.6C132.7 78.5 132.4 78.2 132.2 78C132 77.8 131.9 77.5 131.8 77.3C131.7 77 131.5 76.6 131.4 76.3C131.4 76.3 131.7 75.6 132 75.1C132.2 74.5 132.5 74 132.8 73.4C133.1 72.8 133.2 72.6 133.6 72L130.7 70.8C130.6 71.5 130.5 71.9 130.3 72.6C130.2 73 130.1 73.2 130 73.7C129.9 73.8 129.6 73.7 129.4 73.7C129.2 73.7 128.9 73.7 128.7 73.6C128.4 73.6 128.1 73.5 127.8 73.5C127.5 73.5 127.2 73.4 126.9 73.4C126.6 73.4 126.3 73.4 126 73.5C126.3 73.4 126.6 73.4 126.9 73.5C127.2 73.6 127.5 73.7 127.8 73.8C128 73.9 128.2 74 128.5 74C128.4 74 128.4 74.1 128.3 74.1C128.1 74.2 128 74.3 127.8 74.4L127.4 74.7C126.8 75.1 126.1 75.1 125.4 75.1C124.7 75.1 123.9 75.1 123.3 75.4C124 75.2 124.7 75.2 125.4 75.3C125.8 75.4 126.1 75.4 126.5 75.3C126.9 75.3 127.2 75.2 127.6 75L127.9 74.9L128.1 74.8C128.3 74.7 128.4 74.7 128.6 74.6C128.9 74.5 129.1 74.4 129.5 74.3C129.6 74.3 129.9 74.3 130 74.3C130 74.3 130 74.7 129.9 75.2C129.8 75.5 129.7 76.1 129.7 76.2C129.5 76.3 129.3 76.4 129.1 76.5C128.8 76.6 128.4 76.7 128.1 76.8C128 76.8 127.9 76.8 127.9 76.9C127.8 76.9 127.7 76.9 127.6 76.9C127.4 76.9 127.1 76.8 126.9 76.7C126.7 76.6 126.4 76.5 126.1 76.6C125.8 76.6 125.6 76.6 125.3 76.7C125.6 76.7 125.8 76.7 126.1 76.7C126.4 76.8 126.6 76.9 126.8 77C126.9 77 127 77.1 127.1 77.1C126.4 77.4 125.8 77.9 125.3 78.4C124.8 78.9 124.3 79.5 123.6 79.7C124 79.6 124.3 79.5 124.6 79.3C124.9 79.1 125.2 78.8 125.5 78.6C126 78.1 126.6 77.6 127.3 77.5C127.6 77.4 128 77.4 128.4 77.4C128.7 77.4 129.1 77.4 129.5 77.3C129.6 77.3 129.7 77.3 129.8 77.3C129.8 77.5 129.7 77.7 129.6 77.8C129.4 78.4 129.2 78.8 128.8 79.1C128.4 79.4 127.9 79.6 127.4 79.8C126.8 80 126.2 80.1 125.7 80.4C125.1 80.7 124.6 81.1 124.2 81.5C124.7 81.2 125.3 80.9 125.8 80.8C126.4 80.7 126.9 80.6 127.5 80.6C127.8 80.6 128.1 80.5 128.4 80.4C128.2 80.6 128.1 80.8 127.9 80.9C127.6 81.2 127.3 81.4 127 81.7C126.7 82 126.4 82.3 126.2 82.7C126.4 82.4 126.8 82.2 127.1 81.9C127.4 81.7 127.7 81.4 128.1 81.2C128.4 81 128.8 80.7 129.1 80.5C129.4 80.3 129.7 80 130 79.6C130.3 79.3 130.6 79 130.8 78.7C130.8 78.9 130.8 79.1 130.8 79.4L130.7 79.7L130 80L129.8 80.6C129.8 80.7 129.7 80.9 129.7 81C129.6 81.2 129.4 81.5 129.3 81.8C129.2 82.1 129.1 82.4 129.1 82.7C129 83.3 129 83.9 129.1 84.4C129.1 83.8 129.1 83.3 129.2 82.7C129.3 82.4 129.3 82.2 129.4 81.9C129.4 82.3 129.4 82.7 129.4 83.1C129.4 83.5 129.5 83.9 129.6 84.3C130 85.1 130.2 85.9 130.6 86.6Z" fill="#B33939"/>
<path d="M119.9 65.3C120.1 65.2 120.2 65.2 120.4 65.2C120.5 65.2 120.6 65.2 120.7 65.2C120.6 65.3 120.5 65.4 120.4 65.5C120.3 65.6 120.3 65.7 120.2 65.8C120.1 66 120 66.2 119.9 66.4C119.7 66.8 119.6 67.2 119.4 67.7C119.3 68.1 119.1 68.5 118.8 68.9C118.7 69 118.7 69.1 118.6 69.1C118.5 69.2 118.5 69.3 118.4 69.3C118.2 69.4 118.1 69.6 117.9 69.8C117.6 70.1 117.3 70.5 117.2 71C117.1 71.4 117.1 71.9 117.1 72.4C117.1 72.2 117.1 71.9 117.2 71.7C117.2 71.5 117.3 71.2 117.3 71C117.4 70.6 117.7 70.2 118 69.9C118.2 69.8 118.3 69.6 118.5 69.5C118.6 69.4 118.7 69.4 118.8 69.3C118.9 69.2 119 69.1 119 69C119.3 68.6 119.5 68.2 119.7 67.8C119.9 67.4 120 66.9 120.2 66.5C120.4 66.1 120.6 65.7 120.9 65.5C120.5 66.1 120.3 66.7 120.1 67.4C120 67.7 120 68.1 120 68.5C120 68.8 120 69.1 119.8 69.4C119.7 69.7 119.5 70 119.4 70.3C119.3 70.6 119.2 71 119.2 71.3C119.2 71 119.3 70.6 119.5 70.3C119.6 70 119.8 69.7 120 69.4C120.2 69.1 120.3 68.7 120.3 68.4C120.3 68 120.4 67.7 120.5 67.4C120.6 67.1 120.7 66.8 120.8 66.5C120.9 66.2 121.1 65.9 121.3 65.7C121.4 65.5 121.6 65.3 121.8 65.1C121.9 65.1 121.9 65.1 122 65C122.4 65 122.7 64.9 123.1 64.9C123.1 64.9 123.5 65 123.7 65C124.1 65 124.3 65 124.7 65C124.9 65 125.3 64.9 125.4 64.9C125.4 64.9 125.8 64.9 125.8 64.8L124.8 62.3C124.8 62.3 124.3 62.6 124.2 62.7C124 62.8 123.7 62.8 123.5 62.9C123 63 122.6 63 122.2 62.9C122.1 62.9 122 62.9 121.9 62.8H121.7H121.6H121.5C121.4 62.8 121.3 62.7 121.2 62.6C121.1 62.5 120.9 62.4 120.8 62.3C120.4 62 119.9 61.8 119.5 61.7H119.4C119 61.5 118.7 61.1 118.5 60.7C118.4 60.5 118.2 60.2 118.1 60V59.9C118.1 59.7 118 59.5 118 59.3C118 59.1 118 58.8 118 58.5C118 58.2 117.9 57.9 117.8 57.7C117.9 58 117.9 58.2 117.8 58.4C117.8 58.6 117.7 58.9 117.6 59.1C117.6 59.1 117.6 59.1 117.6 59C117.6 58.9 117.5 58.9 117.5 58.8L117.3 58.6L117.2 58.4C117.1 58.3 117.1 58.3 117 58.2C116.9 58.1 116.7 58 116.6 57.9C116.5 57.8 116.4 57.7 116.3 57.7C115.8 57.4 115.3 57.2 114.7 57C115.2 57.3 115.7 57.5 116.1 57.9C116.5 58.3 116.9 58.7 117.1 59.2C117.4 59.7 117.5 60.2 117.8 60.8C117.9 61 117.9 61.1 118 61.2C117.7 61.2 117.4 61.2 117.1 61.2C116.8 61.2 116.5 61.2 116.2 61.2C116 61.2 115.8 61.3 115.6 61.3H115.5C115.3 61.3 115.1 61.2 114.9 61C114.6 60.8 114.3 60.6 114.1 60.4C113.8 60.2 113.6 59.9 113.4 59.6C113.2 59.3 112.9 59.1 112.5 59C112.8 59.1 113.1 59.4 113.3 59.7L114 60.5C114.2 60.7 114 61 113.7 60.9C113.4 60.8 113.1 60.8 112.8 60.8C112.5 60.8 112.2 60.8 111.9 60.9C112.2 60.9 112.5 60.8 112.8 60.9C113.1 60.9 113.3 61 113.6 61.1C114.1 61.3 114.7 61.6 115.3 61.7C115.6 61.7 115.9 61.7 116.2 61.7C116.5 61.7 116.8 61.7 117.1 61.8C117.7 61.8 118.2 62 118.7 62.2C119.2 62.4 119.7 62.7 120 63.1C120.1 63.2 120.2 63.3 120.3 63.4C120.4 63.5 120.5 63.6 120.6 63.8L120.7 63.9H120.6C120.3 64.1 120 64.3 119.6 64.4C119.6 64.4 119.5 64.4 119.5 64.5C119.3 64.5 119.2 64.6 119 64.6C118.7 64.6 118.3 64.6 117.9 64.5C117.5 64.5 117.2 64.4 116.8 64.5C116.4 64.5 116.1 64.5 115.7 64.5C115 64.5 114.2 64.5 113.7 64.1C113.4 63.9 113.2 63.6 112.9 63.4C112.6 63.1 112.3 62.9 112 62.7C112.3 62.9 112.5 63.2 112.8 63.5C113 63.8 113.3 64.1 113.6 64.3C113.9 64.5 114.3 64.7 114.7 64.7C114.9 64.7 115.1 64.8 115.4 64.8C115.2 64.9 114.9 64.9 114.7 65C114.2 65.1 113.8 65.1 113.3 65C113.1 64.9 112.8 64.9 112.6 64.8C112.3 64.8 112.1 64.8 111.9 64.9C112.1 64.9 112.4 64.9 112.6 64.9C112.8 64.9 113.1 65 113.3 65.1C113.5 65.2 113.8 65.2 114 65.2C114.3 65.2 114.5 65.2 114.7 65.1C115.2 65 115.6 64.9 116.1 64.8C116.3 64.7 116.6 64.7 116.8 64.7C117.2 64.7 117.5 64.8 117.8 64.8C118 64.8 118.1 64.8 118.3 64.9C118 65.1 117.8 65.2 117.6 65.4C117.5 65.5 117.5 65.5 117.4 65.6C117.3 65.7 117.3 65.7 117.2 65.8C117.1 65.9 117 66 116.8 66.1C116.5 66.3 116.2 66.4 115.9 66.5C115.5 66.6 115.1 66.6 114.7 66.5C114.6 66.5 114.5 66.5 114.4 66.4C114.2 66.3 114 66.2 113.8 66.1C113.6 66 113.4 65.9 113.2 65.8C113 65.7 112.8 65.6 112.5 65.6C112.3 65.6 112 65.6 111.8 65.6C111.6 65.6 111.3 65.7 111.1 65.7C110.9 65.7 110.7 65.8 110.5 65.7C110.3 65.6 110.1 65.5 109.9 65.4C110.1 65.6 110.3 65.7 110.5 65.8C110.7 65.9 111 65.9 111.2 65.9C111.4 65.9 111.6 65.8 111.9 65.8C112.1 65.8 112.3 65.8 112.5 65.9C112.7 66 112.9 66.1 113.1 66.1C113.3 66.2 113.4 66.3 113.6 66.4C113.4 66.4 113.1 66.4 112.9 66.4C112.5 66.5 112.2 66.7 111.9 66.8C111.3 67.1 110.6 67.2 109.9 67.3C109.2 67.4 108.5 67.5 107.9 67.8C108.6 67.6 109.3 67.5 109.9 67.4C110.6 67.3 111.3 67.2 112 66.9C112.3 66.8 112.6 66.6 112.9 66.6C113.2 66.5 113.6 66.6 113.9 66.6C114.2 66.6 114.4 66.7 114.7 66.7C114.9 66.7 115 67 114.8 67.1L114.7 67.2C114.2 67.6 113.8 68.2 113.3 68.4C113.2 68.5 113 68.5 112.9 68.5C112.8 68.5 112.6 68.5 112.4 68.6C112.1 68.7 111.8 68.9 111.6 69.1C111.4 69.3 111.2 69.6 110.9 69.8C110.7 70 110.4 70.2 110.1 70.3C110.4 70.2 110.7 70.1 110.9 69.8C111.1 69.6 111.4 69.3 111.6 69.1C111.8 68.9 112.1 68.7 112.4 68.7C112.6 68.6 112.7 68.7 112.9 68.6C113.1 68.6 113.3 68.6 113.4 68.5C113.5 68.4 113.6 68.4 113.7 68.3C113.6 68.5 113.5 68.7 113.4 68.9C113.3 69.1 113.3 69.4 113.2 69.7C113.1 70 113.1 70.2 113 70.4C112.7 70.8 112.3 71.1 112 71.5C111.7 71.9 111.5 72.5 111.5 73C111.6 72.5 111.8 72 112.1 71.6C112.3 71.4 112.4 71.2 112.6 71.1C112.8 70.9 113 70.8 113.1 70.5C113.2 70.4 113.2 70.3 113.3 70.1C113.3 70 113.4 69.8 113.4 69.7C113.5 69.5 113.5 69.2 113.6 69C113.7 68.8 113.8 68.5 113.9 68.3C114 68.1 114.2 67.9 114.3 67.7C114.5 67.5 114.6 67.4 114.8 67.2C115.2 66.9 115.6 66.6 116 66.5C116.2 66.5 116.4 66.4 116.6 66.3C116.4 66.5 116.3 66.7 116.1 66.9C115.9 67.2 115.8 67.5 115.7 67.8C115.7 68.1 115.5 68.4 115.4 68.7C115.3 68.8 115.2 69 115.1 69.1C115 69.2 114.9 69.4 114.9 69.6C115 69.5 115.1 69.3 115.2 69.2C115.3 69.1 115.4 69 115.5 68.8C115.7 68.5 115.8 68.2 115.9 67.9C116 67.6 116.1 67.3 116.3 67C116.3 67.1 116.2 67.3 116.2 67.5C116.2 67.9 116.2 68.3 116.2 68.6C116.2 69 116.1 69.3 116 69.7C115.9 70.1 115.8 70.4 115.7 70.8C115.6 71.2 115.7 71.6 115.8 72C115.7 71.6 115.7 71.2 115.8 70.9C115.9 70.5 116 70.2 116.2 69.8C116.3 69.5 116.4 69.1 116.4 68.7C116.4 68.3 116.4 67.9 116.4 67.6C116.5 67.3 116.6 66.9 116.7 66.6C116.9 66.3 117.1 66.1 117.3 65.8L117.4 65.7C117.5 65.6 117.5 65.6 117.6 65.5C118.7 65.8 119.3 65.5 119.9 65.3Z" fill="#B33939"/>
<path d="M122.5 42.3C122.6 43.1 122.7 43.9 122.8 44.7C122.9 45.5 123.1 46.3 123.5 47C123.7 47.3 123.9 47.7 124.1 47.9L124.5 48.3C124.6 48.4 124.6 48.5 124.7 48.6C124.8 48.7 124.8 48.8 124.9 48.9C125.1 49.3 125.3 49.7 125.4 50.1C125.4 50.2 125.4 50.2 125.4 50.3C125.5 50.4 125.5 50.4 125.6 50.5L126.3 51C126.3 50.8 126.3 50.5 126.3 50.3C126.3 49.9 126.3 49.5 126.3 49.1C126.3 48.7 126.2 48.3 126 47.9C125.7 47.1 125.3 46.3 125 45.6C124.8 45.2 124.7 44.8 124.6 44.4C124.5 44 124.5 43.5 124.5 43.1C124.5 43.5 124.6 43.9 124.7 44.3C124.8 44.7 125 45.1 125.1 45.5C125.5 46.2 125.9 47 126.2 47.8C126.4 48.2 126.5 48.6 126.5 49.1C126.5 49.2 126.5 49.4 126.6 49.5C126.8 49.2 127 49 127.2 48.8C127.4 48.6 127.7 48.4 127.9 48.1C128.1 47.8 128.2 47.5 128.3 47.2C128.3 47.6 128.1 47.9 128 48.2C127.8 48.5 127.6 48.7 127.3 49C127.1 49.3 126.9 49.5 126.8 49.8C126.7 50.1 126.7 50.3 126.6 50.6C126.6 50.9 126.5 51.4 126.5 51.7C126.5 51.7 127.1 52.2 127.4 52.7C127.8 53.2 128.2 53.6 128.7 54C129.2 54.4 129.3 54.6 129.9 55.1L127.5 57.2C127.2 56.6 126.2 55.1 125.9 54.7C125.8 54.7 125.6 54.8 125.3 54.9C125.1 55 124.8 55.2 124.5 55.3C124.2 55.4 124 55.6 123.7 55.7C123.4 55.9 123.1 56 122.9 56.1C122.6 56.2 122.3 56.3 122 56.3C122.3 56.3 122.6 56.2 122.8 56C123.1 55.8 123.3 55.6 123.5 55.4C123.7 55.3 123.9 55.1 124 55C123.9 55 123.8 55 123.8 55C123.6 55 123.4 54.9 123.2 54.9L122.7 54.8C122 54.7 121.3 54.9 120.7 55.1C120 55.3 119.3 55.6 118.6 55.5C119.3 55.5 120 55.2 120.6 54.8C120.9 54.6 121.3 54.5 121.6 54.4C122 54.3 122.4 54.2 122.7 54.3H123H123.3C123.5 54.3 123.6 54.3 123.8 54.3C124.1 54.3 124.5 54.2 124.8 54.1C124.9 54.1 125.1 54 125.3 53.9C125.3 53.9 125.1 53.6 124.8 53.2C124.7 52.9 124.3 52.5 124.3 52.4C124.1 52.3 123.9 52.3 123.6 52.4C123.3 52.4 122.9 52.5 122.5 52.5C122.4 52.5 122.3 52.5 122.2 52.5C122.1 52.5 122 52.6 121.9 52.6C121.7 52.7 121.5 52.8 121.3 53C121.1 53.2 120.8 53.3 120.6 53.4C120.3 53.5 120.1 53.5 119.8 53.6C120.1 53.6 120.3 53.4 120.5 53.3C120.7 53.1 120.9 53 121.1 52.8C121.2 52.7 121.2 52.6 121.3 52.6C120.5 52.6 119.8 52.3 119.2 52C118.5 51.7 117.9 51.3 117.2 51.3C117.6 51.3 117.9 51.3 118.3 51.4C118.7 51.5 119 51.6 119.4 51.8C120.1 52.1 120.8 52.4 121.4 52.3C121.7 52.3 122.1 52.2 122.4 52.1C122.7 52 123.1 51.9 123.5 51.8C123.6 51.8 123.7 51.8 123.8 51.8C123.7 51.6 123.6 51.5 123.5 51.3C123.1 50.9 122.8 50.5 122.3 50.3C121.9 50.1 121.3 50.1 120.7 50.2C120.1 50.2 119.5 50.3 118.8 50.2C118.2 50.1 117.6 50 117 49.7C117.6 49.8 118.2 49.9 118.8 49.8C119.4 49.7 119.9 49.6 120.5 49.4C120.8 49.3 121.1 49.3 121.4 49.2C121.2 49.1 121 49 120.7 48.9C120.3 48.7 119.9 48.6 119.6 48.5C119.2 48.3 118.8 48.2 118.5 47.9C118.8 48.1 119.2 48.2 119.6 48.3C120 48.4 120.4 48.5 120.8 48.6C121.2 48.7 121.6 48.8 122 48.9C122.4 49 122.7 49.2 123.1 49.4C123.5 49.6 123.8 49.8 124.2 50C124.1 49.8 124 49.6 123.9 49.4L123.8 49.2L123.6 49L123.2 48.5C123.1 48.4 123.1 48.3 123 48.2C122.8 48 122.6 47.8 122.4 47.6C122.2 47.4 122.1 47.1 121.9 46.9C121.6 46.4 121.5 45.8 121.4 45.2C121.5 45.8 121.8 46.3 122.1 46.7C122.2 46.9 122.4 47.2 122.6 47.4C122.4 47 122.3 46.6 122.2 46.2C122.1 45.8 122 45.4 122 45C122.6 43.9 122.5 43.1 122.5 42.3Z" fill="#B33939"/>
<path d="M137.6 48.1C137.5 48.3 137.5 48.4 137.5 48.6C137.5 48.7 137.5 48.8 137.5 48.9C137.6 48.8 137.7 48.7 137.8 48.6C137.9 48.5 138 48.5 138.1 48.4C138.3 48.3 138.5 48.2 138.7 48.1C139.1 47.9 139.5 47.8 139.9 47.6C140.3 47.4 140.7 47.2 141 47C141.1 46.9 141.2 46.9 141.2 46.8C141.3 46.7 141.4 46.7 141.4 46.6C141.5 46.4 141.7 46.3 141.8 46.1C142.1 45.8 142.5 45.5 142.9 45.4C143.3 45.3 143.8 45.3 144.2 45.3C144 45.3 143.8 45.4 143.6 45.4C143.4 45.4 143.2 45.5 143 45.6C142.6 45.7 142.3 46 142 46.4C141.9 46.6 141.7 46.7 141.6 46.9C141.5 47 141.5 47.1 141.4 47.2C141.3 47.3 141.2 47.4 141.1 47.4C140.8 47.7 140.4 47.9 140 48.1C139.6 48.3 139.2 48.4 138.8 48.6C138.4 48.8 138 49 137.8 49.3C138.4 48.9 139 48.6 139.6 48.5C139.9 48.4 140.3 48.4 140.6 48.4C140.9 48.4 141.2 48.3 141.5 48.2C141.8 48.1 142.1 47.8 142.4 47.7C142.7 47.6 143 47.5 143.3 47.5C143 47.5 142.7 47.6 142.4 47.8C142.1 47.9 141.9 48.2 141.6 48.3C141.3 48.5 141 48.6 140.6 48.6C140.3 48.6 140 48.7 139.7 48.8C139.4 48.9 139.1 49 138.8 49.1C138.5 49.2 138.3 49.4 138 49.6C137.8 49.8 137.6 49.9 137.5 50.1C137.5 50.2 137.5 50.2 137.4 50.3C137.4 50.7 137.4 51.1 137.4 51.4C137.4 51.6 137.4 51.8 137.5 51.9C137.5 52.3 137.5 52.6 137.5 53C137.5 53.2 137.5 53.4 137.5 53.5C137.5 53.6 137.5 53.7 137.5 53.8C137.5 53.9 137.5 53.9 137.5 53.9C137.5 53.9 137.5 54 137.5 54.1L134.9 53V52.9C134.9 52.8 135 52.8 135 52.7C135.1 52.6 135.1 52.5 135.2 52.4C135.3 52.2 135.4 51.9 135.5 51.7C135.6 51.2 135.7 50.8 135.6 50.3C135.6 50.2 135.6 50.1 135.5 50L135.4 49.9V49.8V49.7C135.4 49.6 135.3 49.5 135.2 49.4C135.1 49.3 135 49.1 134.9 49C134.6 48.6 134.4 48.1 134.3 47.7C134.3 47.7 134.3 47.7 134.3 47.6C134.1 47.2 133.8 47 133.4 46.7C133.2 46.6 132.9 46.5 132.7 46.3C132.7 46.3 132.7 46.3 132.6 46.3C132.4 46.3 132.2 46.3 132.1 46.2C131.9 46.2 131.6 46.2 131.4 46.2C131.1 46.2 130.9 46.1 130.7 46C131 46.1 131.2 46.1 131.4 46C131.6 45.9 131.8 45.9 132 45.8H131.9C131.9 45.8 131.8 45.7 131.7 45.7L131.6 45.6L131.5 45.5C131.4 45.4 131.4 45.4 131.4 45.3C131.3 45.2 131.2 45 131.1 44.9C131 44.8 130.9 44.7 130.9 44.6C130.6 44.1 130.4 43.6 130.3 43C130.5 43.5 130.8 44 131.1 44.4C131.4 44.8 131.8 45.2 132.3 45.4C132.8 45.7 133.3 45.8 133.8 46.1C133.9 46.2 134.1 46.2 134.2 46.3C134.2 46 134.2 45.7 134.1 45.4C134.1 45.1 134.1 44.8 134.1 44.5C134.1 44.3 134.1 44.1 134.1 43.9C134.1 43.9 134.1 43.9 134.1 43.8C134.1 43.6 134 43.3 133.8 43.1C133.6 42.8 133.4 42.5 133.2 42.3C133 42.1 132.7 41.8 132.5 41.6C132.3 41.3 132 41.1 131.9 40.7C132 41 132.3 41.3 132.6 41.5L133.4 42.2C133.6 42.4 133.8 42.2 133.8 41.9C133.7 41.6 133.7 41.3 133.7 41C133.7 40.7 133.7 40.4 133.8 40.1C133.8 40.4 133.7 40.7 133.8 41C133.8 41.3 133.9 41.6 134 41.8C134.2 42.3 134.5 42.9 134.6 43.5C134.6 43.8 134.6 44.1 134.6 44.4C134.6 44.7 134.6 45 134.6 45.3C134.7 45.9 134.8 46.4 135 46.9C135.2 47.4 135.5 47.9 135.8 48.2C135.9 48.3 136 48.4 136.1 48.5C136.2 48.6 136.3 48.7 136.5 48.8L136.6 48.9C136.7 48.6 137 48.2 137.1 47.9V47.8C137.1 47.7 137.1 47.5 137.2 47.3C137.2 47 137.2 46.6 137.2 46.2C137.2 45.8 137.2 45.4 137.1 45.1C137 44.8 137.1 44.3 137.2 44C137.2 43.3 137.2 42.5 136.8 42C136.6 41.7 136.4 41.4 136.1 41.2C135.8 41 135.6 40.6 135.4 40.3C135.6 40.6 135.9 40.8 136.1 41.1C136.4 41.4 136.6 41.6 136.9 41.9C137.2 42.2 137.3 42.6 137.3 43C137.3 43.2 137.4 43.5 137.4 43.7C137.5 43.5 137.5 43.2 137.6 43C137.7 42.5 137.7 42.1 137.6 41.6C137.6 41.4 137.5 41.1 137.5 40.9C137.5 40.7 137.5 40.4 137.6 40.2C137.6 40.5 137.6 40.7 137.6 40.9C137.7 41.1 137.8 41.4 137.8 41.6C137.9 41.8 137.9 42.1 137.9 42.3C137.9 42.6 137.9 42.8 137.8 43.1C137.7 43.6 137.6 44 137.5 44.5C137.4 44.7 137.4 45 137.4 45.2C137.4 45.5 137.5 45.9 137.5 46.2C137.5 46.4 137.5 46.5 137.6 46.7C137.7 46.4 137.9 46.2 138.1 46C138.2 45.9 138.2 45.8 138.3 45.8C138.4 45.7 138.4 45.7 138.5 45.6C138.6 45.5 138.7 45.3 138.8 45.2C139 44.9 139.1 44.6 139.1 44.3C139.2 43.9 139.2 43.5 139.1 43C139.1 42.9 139.1 42.8 139 42.7C138.9 42.5 138.8 42.3 138.7 42.1C138.6 41.9 138.5 41.7 138.4 41.5C138.3 41.3 138.2 41 138.2 40.8C138.2 40.6 138.2 40.3 138.2 40.1C138.2 39.9 138.3 39.6 138.3 39.4C138.3 39.2 138.4 39 138.3 38.8C138.2 38.6 138.1 38.4 138 38.2C138.2 38.4 138.3 38.6 138.4 38.8C138.5 39 138.5 39.3 138.5 39.5C138.5 39.7 138.5 40 138.4 40.2C138.4 40.4 138.4 40.6 138.5 40.8C138.6 41 138.6 41.2 138.7 41.4C138.8 41.6 138.9 41.7 139 41.9C139 41.7 139 41.4 139 41.1C139.1 40.7 139.3 40.4 139.4 40.1C139.7 39.5 139.8 38.8 139.9 38.1C140 37.4 140.1 36.7 140.4 36C140.2 36.7 140.1 37.4 140 38.1C139.9 38.8 139.9 39.5 139.6 40.2C139.5 40.5 139.3 40.8 139.3 41.2C139.3 41.5 139.3 41.9 139.3 42.2C139.3 42.5 139.4 42.8 139.4 43C139.4 43.2 139.7 43.3 139.8 43.1L139.9 43C140.3 42.5 140.8 42.1 141.1 41.5C141.2 41.3 141.2 41.2 141.2 41.1C141.2 41 141.2 40.8 141.3 40.6C141.4 40.3 141.6 40 141.8 39.7C142 39.5 142.2 39.2 142.5 39C142.7 38.8 142.9 38.5 143 38.2C142.9 38.5 142.8 38.8 142.6 39.1C142.4 39.3 142.2 39.6 142 39.8C141.8 40.1 141.7 40.3 141.6 40.6C141.6 40.7 141.6 40.9 141.6 41.1C141.6 41.3 141.6 41.4 141.5 41.6C141.5 41.7 141.4 41.8 141.4 41.9C141.6 41.8 141.8 41.7 141.9 41.6C142.2 41.5 142.4 41.5 142.6 41.4C142.8 41.3 143 41.3 143.3 41.1C143.7 40.8 144 40.4 144.4 40C144.8 39.7 145.3 39.5 145.8 39.4C145.3 39.5 144.8 39.7 144.5 40C144.3 40.2 144.1 40.3 144 40.5C143.8 40.7 143.7 40.9 143.5 41.1C143.4 41.2 143.3 41.2 143.1 41.3C143 41.3 142.8 41.4 142.7 41.4C142.5 41.5 142.2 41.6 142 41.6C141.8 41.7 141.5 41.8 141.4 41.9C141.2 42 141 42.2 140.9 42.4C140.7 42.6 140.6 42.7 140.4 42.9C140.1 43.3 139.8 43.7 139.7 44.2C139.7 44.4 139.6 44.6 139.5 44.8C139.7 44.6 139.8 44.5 140.1 44.3C140.4 44.1 140.7 44 141 43.9C141.3 43.8 141.6 43.7 141.8 43.6C141.9 43.5 142.1 43.4 142.2 43.3C142.3 43.2 142.5 43.1 142.6 43.1C142.5 43.2 142.3 43.3 142.2 43.4C142.1 43.5 142 43.6 141.9 43.7C141.6 43.9 141.3 44 141 44.1C140.7 44.2 140.4 44.3 140.2 44.5C140.3 44.5 140.5 44.4 140.6 44.4C141 44.4 141.3 44.4 141.7 44.4C142 44.4 142.4 44.3 142.7 44.2C143 44.1 143.4 44 143.7 43.9C144 43.8 144.4 43.9 144.8 44C144.5 43.9 144.1 43.9 143.8 44C143.5 44.1 143.1 44.3 142.8 44.4C142.5 44.5 142.1 44.6 141.7 44.6C141.4 44.6 141 44.6 140.6 44.6C140.3 44.7 140 44.8 139.7 45C139.4 45.2 139.2 45.4 139 45.6L138.9 45.7C138.8 45.8 138.8 45.8 138.7 45.9C138.2 46.9 137.9 47.5 137.6 48.1Z" fill="#B33939"/>
<path d="M148.2 59.7C148 59.7 147.8 59.8 147.6 59.8C147.5 59.8 147.4 59.9 147.3 59.9C147.4 59.9 147.6 60 147.7 60C147.8 60 147.9 60.1 148 60.2C148.2 60.3 148.4 60.5 148.6 60.6C149 60.9 149.3 61.2 149.7 61.4C150.1 61.6 150.4 61.9 150.9 62.1C151 62.1 151.1 62.2 151.2 62.2C151.3 62.2 151.4 62.3 151.6 62.3C151.9 62.3 152.1 62.4 152.4 62.5C152.9 62.6 153.4 62.8 153.7 63.2C154 63.5 154.2 63.9 154.4 64.3C154.3 64.1 154.2 64 154 63.8C153.9 63.6 153.7 63.5 153.6 63.3C153.3 63 152.8 62.8 152.3 62.7C152 62.6 151.8 62.6 151.6 62.6C151.5 62.6 151.4 62.5 151.2 62.5C151.1 62.5 150.9 62.4 150.8 62.4C150.3 62.2 149.9 62 149.5 61.7C149.1 61.4 148.8 61.1 148.4 60.9C148 60.6 147.7 60.4 147.2 60.3C147.9 60.6 148.4 61.1 148.9 61.6C149.1 61.9 149.3 62.1 149.4 62.4C149.5 62.7 149.7 62.9 150 63.1C150.3 63.3 150.6 63.5 150.9 63.7C151.2 63.9 151.4 64.2 151.5 64.5C151.3 64.2 151.1 64 150.8 63.8C150.5 63.6 150.2 63.5 149.9 63.3C149.6 63.1 149.3 62.9 149.2 62.6C149 62.3 148.9 62.1 148.6 61.9C148.4 61.7 148.1 61.5 147.9 61.3C147.6 61.1 147.3 60.9 147 60.8C146.8 60.7 146.5 60.6 146.2 60.6C146.1 60.6 146.1 60.6 146 60.6C145.6 60.7 145.2 60.9 144.8 61.1C144.6 61.2 144.4 61.3 144.2 61.4C143.8 61.6 143.4 61.8 143 62C142.8 62.1 141.9 62.5 141.8 62.5L142.3 59.2C142.3 59.2 143.2 59.6 143.5 59.6C144.1 59.5 144.6 59.4 145.1 59.2C145.2 59.1 145.3 59.1 145.4 59L145.6 58.9L145.7 58.8L145.8 58.7C145.9 58.6 145.9 58.5 146.1 58.4C146.2 58.3 146.3 58.1 146.4 58C146.8 57.6 147.2 57.2 147.6 56.9C147.6 56.9 147.6 56.9 147.7 56.9C148 56.6 148.2 56.2 148.3 55.7C148.4 55.5 148.4 55.2 148.4 54.9V54.8C148.4 54.6 148.3 54.5 148.2 54.3C148.1 54.1 148 53.9 147.8 53.7C147.7 53.5 147.6 53.2 147.7 53C147.7 53.2 147.8 53.4 148 53.6C148.1 53.8 148.3 53.9 148.4 54.1C148.4 54.1 148.4 54.1 148.4 54C148.4 53.9 148.4 53.9 148.5 53.8L148.6 53.6L148.7 53.4C148.7 53.3 148.8 53.3 148.8 53.2C148.9 53.1 149 52.9 149.1 52.8C149.2 52.7 149.3 52.6 149.4 52.5C149.8 52 150.3 51.7 150.9 51.3C150.4 51.7 150 52.1 149.7 52.6C149.4 53.1 149.1 53.6 149.1 54.1C149 54.6 149 55.1 149 55.7C149 55.8 149 56 148.9 56.1C149.2 56 149.6 55.8 149.9 55.7C150.2 55.6 150.6 55.5 150.9 55.3C151.1 55.2 151.3 55.1 151.6 55.1H151.7C151.9 55 152.1 54.8 152.3 54.6C152.6 54.3 152.8 54 153 53.7C153.2 53.4 153.3 53.1 153.5 52.7C153.7 52.4 153.8 52.1 154.2 51.8C153.9 52 153.7 52.4 153.6 52.7L153.2 53.7C153.1 53.9 153.4 54.1 153.7 53.9C154 53.7 154.3 53.5 154.6 53.4C154.9 53.3 155.3 53.2 155.6 53.1C155.3 53.2 154.9 53.3 154.6 53.4C154.3 53.6 154 53.7 153.8 53.9C153.3 54.3 152.8 54.8 152.1 55.1C151.7 55.3 151.4 55.4 151.1 55.5C150.8 55.6 150.5 55.7 150.2 55.9C149.6 56.2 149.1 56.5 148.6 56.9C148.1 57.3 147.8 57.7 147.5 58.2C147.4 58.3 147.4 58.4 147.3 58.6C147.3 58.7 147.1 58.9 147.1 59.1L147 59.2C147 59.2 147 59.2 147.1 59.2C147.6 59.2 148 59.2 148.4 59.2H148.5C148.7 59.1 148.9 59.1 149 59.1C149.4 59 149.8 58.8 150.2 58.6C150.6 58.4 151 58.3 151.4 58.1C151.8 57.9 152.2 57.8 152.7 57.7C153.5 57.4 154.3 57.1 154.8 56.5C155 56.2 155.2 55.9 155.4 55.6C155.6 55.3 155.8 55 156.1 54.7C155.9 55 155.7 55.3 155.6 55.7C155.4 56 155.3 56.4 155.1 56.7C154.9 57.1 154.5 57.3 154.1 57.5C153.9 57.6 153.6 57.7 153.4 57.8C153.7 57.8 154 57.7 154.2 57.7C154.8 57.6 155.3 57.4 155.8 57.2C156 57.1 156.3 56.9 156.5 56.8C156.8 56.7 157.1 56.6 157.3 56.6C157 56.7 156.8 56.8 156.5 56.9C156.3 57 156.1 57.2 155.8 57.4C155.6 57.6 155.3 57.7 155 57.8C154.7 57.9 154.4 58 154.1 58C153.5 58.1 153 58.2 152.4 58.3C152.1 58.4 151.8 58.4 151.5 58.5C151.1 58.7 150.8 58.8 150.4 59C150.2 59.1 150.1 59.2 149.9 59.2C150.2 59.2 150.6 59.3 150.9 59.3C151 59.3 151.1 59.4 151.2 59.4C151.3 59.4 151.4 59.5 151.5 59.5C151.7 59.5 151.9 59.6 152.1 59.6C152.5 59.7 152.9 59.6 153.3 59.5C153.8 59.4 154.2 59.2 154.7 59C154.8 58.9 154.9 58.9 155 58.8C155.2 58.7 155.3 58.5 155.5 58.3C155.7 58.1 155.8 57.9 156 57.8C156.2 57.6 156.4 57.5 156.7 57.3C156.9 57.2 157.2 57.1 157.5 57C157.8 56.9 158 56.9 158.3 56.8C158.5 56.8 158.8 56.7 159 56.6C159.2 56.5 159.4 56.3 159.5 56.1C159.4 56.3 159.2 56.5 159 56.7C158.8 56.9 158.5 57 158.2 57C157.9 57.1 157.7 57.1 157.4 57.2C157.2 57.3 156.9 57.4 156.7 57.5C156.5 57.6 156.3 57.8 156.1 57.9C155.9 58 155.8 58.2 155.7 58.3C156 58.2 156.2 58.1 156.5 58C156.9 57.9 157.4 57.9 157.8 57.9C158.6 57.9 159.4 57.7 160.3 57.5C161.2 57.3 162 57.1 162.8 57C161.9 57.1 161.1 57.3 160.3 57.5C159.5 57.7 158.7 57.9 157.8 58C157.3 58 157 58 156.6 58.1C156.2 58.2 155.9 58.4 155.5 58.6C155.2 58.7 154.9 58.9 154.6 59C154.4 59.1 154.4 59.4 154.6 59.4H154.7C155.4 59.6 156.1 59.8 156.8 59.8C157 59.8 157.2 59.8 157.3 59.7C157.5 59.7 157.7 59.6 157.9 59.6C158.3 59.5 158.7 59.6 159.1 59.7C159.5 59.8 159.8 59.9 160.2 60C160.6 60.1 160.9 60.1 161.3 60.1C160.9 60.2 160.5 60.1 160.2 60.1C159.9 60 159.5 59.9 159.1 59.9C158.7 59.8 158.4 59.8 158 59.9C157.8 59.9 157.7 60 157.5 60C157.3 60.1 157.1 60.1 156.9 60.1C156.8 60.1 156.6 60.1 156.5 60.1C156.7 60.2 156.9 60.3 157 60.5C157.2 60.7 157.4 60.9 157.6 61.1C157.8 61.3 157.9 61.5 158.2 61.6C158.7 61.8 159.3 61.9 159.8 62.1C160.3 62.3 160.7 62.7 161 63.1C160.7 62.7 160.3 62.4 159.7 62.2C159.5 62.1 159.2 62 158.9 62C158.6 61.9 158.3 61.9 158.1 61.8C157.9 61.7 157.8 61.7 157.7 61.6C157.6 61.5 157.5 61.4 157.4 61.3C157.2 61.1 157 60.9 156.8 60.8C156.6 60.6 156.4 60.5 156.2 60.4C156 60.3 155.7 60.2 155.5 60.1C155.2 60 155 60 154.7 59.9C154.1 59.8 153.6 59.8 153 59.8C152.8 59.9 152.5 59.9 152.2 59.9C152.5 60 152.7 60.1 153 60.2C153.3 60.4 153.6 60.6 153.8 60.8C154 61.1 154.2 61.2 154.5 61.4C154.6 61.5 154.8 61.6 155 61.6C155.1 61.7 155.3 61.8 155.4 61.9C155.3 61.8 155.1 61.8 154.9 61.7C154.7 61.6 154.6 61.6 154.4 61.5C154 61.4 153.8 61.1 153.5 60.9C153.3 60.7 153 60.5 152.7 60.3C152.8 60.4 152.9 60.5 153 60.6C153.2 60.9 153.3 61.2 153.5 61.5C153.7 61.8 153.9 62.1 154.2 62.3C154.5 62.5 154.8 62.8 155 63.1C155.2 63.4 155.4 63.7 155.4 64.1C155.3 63.7 155.2 63.4 154.9 63.2C154.6 63 154.3 62.7 154 62.5C153.7 62.2 153.5 62 153.3 61.6C153.1 61.3 153 61 152.8 60.7C152.6 60.4 152.3 60.2 152 60C151.7 59.8 151.4 59.7 151 59.6H150.9C150.8 59.6 150.7 59.6 150.6 59.5C149.9 59.7 149.1 59.7 148.2 59.7Z" fill="#B33939"/>
<path d="M131.6 59.9001C130.9 60.3001 130.6 60.8001 130.5 61.2001C130.4 61.6001 130.4 62.0001 130.4 62.3001C130.5 62.9001 130.8 63.5001 131.2 63.9001C131.6 64.3001 132.2 64.6001 132.6 64.7001C133.9 65.0001 134.8 64.2001 135 63.5001C135.5 61.7001 134.6 60.3001 134 60.0001L131.6 59.9001ZM132.8 59.6001C133.2 59.6001 133.7 59.7001 134 59.9001L132.8 59.6001ZM132.8 59.6001L134 60.0001L132.8 59.6001ZM131.6 59.9001C131.9 59.7001 132.4 59.6001 132.8 59.6001L131.6 59.9001Z" fill="#8B92D2" fill-opacity="0.4" stroke="#5A5999" stroke-width="0.8619"/>
<path d="M131.6 60.0002C130.3 60.7002 130.4 61.9002 130.5 62.3002C130.6 63.5002 131.8 64.3002 132.6 64.5002C133.9 64.8002 134.7 64.0002 134.9 63.4002C135.3 61.7002 134.5 60.4002 133.9 60.0002C133.3 59.7002 132.3 59.6002 131.6 60.0002Z" fill="#5A5999"/>
<path d="M131.7 60.1C130.5 60.8 130.6 61.9001 130.6 62.4001C130.7 63.6001 131.9 64.3001 132.7 64.5001C133.9 64.8001 134.7 64.1001 134.9 63.4001C135.4 61.7001 134.5 60.5 134 60.1C133.3 59.7 132.3 59.7 131.7 60.1Z" fill="#949BD9" stroke="#5C629B" stroke-width="0.4867" stroke-miterlimit="10" stroke-linecap="round" stroke-linejoin="round"/>
<path d="M131.4 61.9001C131.4 62.8001 131.9 63.1001 132.6 63.0001C133.3 62.9001 133.7 62.2001 133.2 61.4001C132.8 60.6001 131.4 61.0001 131.4 61.9001Z" fill="#406296" stroke="#2D3368" stroke-width="0.4867" stroke-miterlimit="10" stroke-linecap="round" stroke-linejoin="round"/>
<path opacity="0.5" d="M131.8 61.7002C131.8 62.4002 132.2 62.6002 132.7 62.5002C133.2 62.5002 133.5 61.9002 133.1 61.3002C132.8 60.8002 131.8 61.0002 131.8 61.7002Z" fill="#6277C2"/>
<path d="M138.1 61C138.1 61 138.2 60.9 138.1 61C138.1 60.9 138.1 60.9 138.1 61Z" fill="#AA2829"/>
</svg>
