<svg width="394" height="444" viewBox="0 0 394 444" fill="none" xmlns="http://www.w3.org/2000/svg">
<path d="M215.9 73.6001C215.9 74.0001 215.6 74.3001 215.3 74.4001C213 75.5001 212.1 76.7001 211.6 77.7001C211 78.8001 211 80.9001 211.2 82.3001C211.2 82.8001 211 83.3001 210.6 83.5001C210.3 83.7001 209.9 84.0001 209.6 84.2001C209.3 84.4001 208.9 84.3001 208.7 84.1001C207.6 83.1001 206.8 82.9001 205.9 82.7001C204.9 82.4001 203.5 82.3001 201.9 83.2001C201.6 83.4001 201.2 83.4001 200.9 83.2001C200.5 83.0001 200 82.6001 199.6 82.3001C199.3 82.1001 199.1 81.7001 199.1 81.2001C199.4 78.6001 198.3 76.2001 196.6 74.8001C196.4 74.6001 196.2 74.3001 196.2 74.0001C196.2 73.6001 196.1 73.1001 196.1 72.7001C196.1 72.4001 196.3 72.1001 196.5 71.9001C198.9 70.3001 200.6 68.3001 200.5 66.0001C200.5 65.6001 200.6 65.3001 200.9 65.1001C201.4 64.8001 201.9 64.5001 202.3 64.4001C202.5 64.3001 202.8 64.4001 203 64.5001C204.3 65.5001 206.1 66.0001 208.1 64.8001C208.4 64.6001 208.8 64.6001 209.1 64.8001C209.5 65.0001 210.1 65.3001 210.5 65.6001C210.8 65.8001 210.9 66.2001 210.9 66.5001C210.8 69.2001 212.8 71.2001 215.1 72.0001C215.5 72.1001 215.8 72.5001 215.8 72.9001C215.9 73.0001 215.9 73.3001 215.9 73.6001Z" fill="#70C24C"/>
<path d="M215.8 74.1C213.1 75.2 212.1 76.6 211.6 77.6C210.9 79 211.1 82 211.3 83C211.7 84.4 210 85.4 209.1 84.4C207.8 83 206.9 82.8 205.9 82.5C204.8 82.2 203.2 82 201.4 83.2C200 84.1 198.8 83.2 199 81.7C199.6 78.6 198.4 75.8 196.2 74.3C195.2 73.6 195.2 72.6 196.1 72C199 70.3 200.9 67.9 200.5 65.2C200.3 63.7 201.5 63 202.8 64C204.2 65.3 206.3 65.9 208.7 64.2C210 63.4 211.2 64.1 211.1 65.6C210.7 68.9 213.1 71.1 215.9 71.9C217.5 72.4 217.1 73.6 215.8 74.1Z" fill="#70C24C"/>
<path d="M213.6 93.9002C213.6 93.5002 213.6 93.1002 213.6 92.7002C213.6 92.3002 213.5 91.9002 213.4 91.5002C213.5 91.7002 213.7 92.0002 213.8 92.2002C214 92.7002 214.2 93.3002 214.2 93.8002C214.2 93.2002 214.1 92.6002 213.9 92.1002C213.8 91.8002 213.7 91.6002 213.5 91.3002C213.4 91.1002 213.2 90.8002 213 90.6002C213 90.5002 212.9 90.4002 212.8 90.2002L212.5 89.7002L212.4 89.5002L212.3 89.2002C212.2 89.0002 212.2 88.8002 212.1 88.6002C212.4 88.9002 212.7 89.2002 213.1 89.4002C213.4 89.7002 213.8 89.9002 214.1 90.1002C214.5 90.3002 214.8 90.5002 215.2 90.6002C215.6 90.7002 215.9 90.9002 216.3 91.1002C216.7 91.3002 217 91.4002 217.3 91.7002C217.1 91.4002 216.7 91.1002 216.4 90.9002C216.1 90.7002 215.7 90.5002 215.3 90.3002C215.1 90.2002 214.9 90.0002 214.7 89.9002C215 89.9002 215.3 89.9002 215.6 89.9002C216.2 89.8002 216.8 89.7002 217.4 89.8002C218 89.8002 218.6 90.0002 219.1 90.2002C218.6 89.9002 218 89.6002 217.4 89.4002C216.8 89.2002 216.2 89.2002 215.6 89.1002C215 89.0002 214.5 89.0002 214.1 88.7002C213.7 88.4002 213.4 88.1002 213.1 87.6002C213 87.4002 212.9 87.3002 212.8 87.1002C212.9 87.1002 213 87.1002 213.1 87.1002C213.5 87.1002 213.9 87.0002 214.2 87.0002C214.6 87.0002 214.9 86.9002 215.3 86.9002C216 86.9002 216.6 87.3002 217.2 87.7002C217.5 87.9002 217.8 88.1002 218.2 88.2002C218.5 88.4002 218.9 88.4002 219.3 88.4002C218.6 88.3002 218 87.8002 217.4 87.4002C216.8 87.0002 216.2 86.6002 215.4 86.5002C215.5 86.4002 215.6 86.4002 215.7 86.3002C215.9 86.1002 216.1 86.0002 216.4 85.9002C216.6 85.8002 216.9 85.7002 217.2 85.7002C216.9 85.7002 216.7 85.7002 216.4 85.8002C216.1 85.8002 215.9 86.0002 215.6 86.1002C215.4 86.2002 215.1 86.3002 214.9 86.4002C214.8 86.4002 214.7 86.4002 214.6 86.5002C214.5 86.5002 214.4 86.5002 214.3 86.5002C213.9 86.5002 213.6 86.5002 213.2 86.4002C213 86.4002 212.7 86.3002 212.6 86.3002C212.6 86.2002 212.3 85.7002 212.2 85.4002C212 84.9002 211.9 84.5002 211.9 84.5002C212 84.4002 212.3 84.4002 212.4 84.4002C212.8 84.4002 213 84.4002 213.3 84.5002C213.5 84.5002 213.6 84.5002 213.8 84.6002L214 84.7002L214.3 84.8002C214.7 84.9002 215.1 84.9002 215.4 84.9002C215.8 84.8002 216.1 84.8002 216.5 84.6002C217.2 84.4002 217.9 84.2002 218.6 84.3002C217.9 84.1002 217.1 84.3002 216.4 84.4002C215.7 84.5002 215 84.7002 214.3 84.4002L213.8 84.2002C213.6 84.1002 213.4 84.1002 213.3 84.0002C213.2 84.0002 213.2 84.0002 213.1 83.9002C213.3 83.8002 213.5 83.7002 213.7 83.6002C214 83.4002 214.2 83.2002 214.5 83.1002C214.8 83.0002 215.1 82.9002 215.4 82.9002C215.1 82.8002 214.8 82.9002 214.5 82.9002C214.2 83.0002 213.9 83.1002 213.6 83.2002C213.3 83.3002 213 83.4002 212.8 83.5002C212.6 83.6002 212.3 83.7002 212.1 83.7002C211.9 83.8002 211.6 83.8002 211.5 83.8002C211.2 83.3002 211.2 83.1002 211 82.8002C210.7 82.2002 210.5 81.8002 210.3 81.2002L207.6 82.9002C208.1 83.5002 208.2 83.7002 208.6 84.2002C209 84.7002 209.3 85.1002 209.7 85.7002C210 86.2002 210.5 86.8002 210.5 86.8002C210.5 87.1002 210.3 87.5002 210.3 87.8002C210.2 88.1002 210.2 88.4002 210 88.6002C209.8 88.9002 209.6 89.1002 209.4 89.3002C209.1 89.5002 208.9 89.7002 208.6 90.0002C208.4 90.2002 208.2 90.6002 208.1 90.9002C208.2 90.6002 208.4 90.3002 208.7 90.1002C208.9 89.9002 209.2 89.7002 209.5 89.5002C209.7 89.3002 210 89.2002 210.2 88.9002C210.2 89.0002 210.2 89.2002 210.2 89.3002C210.2 89.7002 210.2 90.2002 210.3 90.6002C210.5 91.4002 210.8 92.2002 211.1 93.0002C211.2 93.4002 211.3 93.8002 211.3 94.2002C211.4 94.6002 211.3 95.0002 211.3 95.5002C211.4 95.1002 211.4 94.7002 211.4 94.2002C211.4 93.8002 211.3 93.3002 211.2 93.0002C211 92.2002 210.7 91.4002 210.6 90.6002C210.5 90.2002 210.5 89.8002 210.5 89.4002C210.5 89.0002 210.6 88.6002 210.7 88.2002C210.7 88.0002 210.8 87.7002 210.9 87.5002L211.5 88.1002C211.6 88.2002 211.6 88.2002 211.7 88.3002C211.7 88.4002 211.7 88.5002 211.7 88.5002C211.7 88.9002 211.8 89.3002 212 89.8002C212 89.9002 212.1 90.0002 212.1 90.1002C212.2 90.2002 212.2 90.3002 212.3 90.4002L212.6 90.9002C212.8 91.2002 213 91.6002 213.1 91.9002C213.3 92.6002 213.4 93.5002 213.4 94.2002C213.4 95.0002 213.4 95.8002 213.3 96.6002V96.7002C213.5 95.5002 213.6 94.7002 213.6 93.9002Z" fill="#70C24C"/>
<path d="M221.8 74.1C221.9 74.1 221.9 74.2 222 74.2C222 74.2 222.1 74.2 222.1 74.3C222.4 74.5 222.6 74.7 222.8 74.9C223 75.2 223.2 75.5 223.3 75.8C223.4 76.1 223.4 76.5 223.5 76.9C223.6 77.3 223.7 77.6 223.9 78C224.1 78.3 224.3 78.6 224.4 79C224.6 79.3 224.6 79.7 224.6 80.1C224.6 79.7 224.6 79.3 224.5 79C224.4 78.7 224.2 78.3 224 78C223.8 77.7 223.7 77.3 223.6 77C223.5 76.6 223.5 76.3 223.4 75.9C223.4 75.7 223.3 75.6 223.2 75.5C223.4 75.7 223.6 76 223.7 76.3C223.9 76.6 224 76.9 224.3 77.1C224.4 77.2 224.6 77.3 224.7 77.4C224.8 77.5 224.9 77.6 225 77.7C224.9 77.6 224.8 77.4 224.7 77.3C224.6 77.2 224.5 77.1 224.4 77C224.2 76.8 224 76.5 223.9 76.2C223.7 75.9 223.6 75.6 223.3 75.4C223.1 75.2 223 75 222.7 74.9C222.9 74.9 223.1 75 223.3 75C223.8 75.1 224.2 75.2 224.7 75.5C224.9 75.6 225.1 75.8 225.3 75.9C225.5 76 225.7 76.2 225.8 76.4C226 76.6 226.1 76.8 226.2 77C226.3 77.2 226.4 77.5 226.5 77.7C226.6 77.8 226.6 77.9 226.7 78.1C226.8 78.3 226.9 78.3 227 78.4C227.2 78.6 227.4 78.7 227.6 78.8C227.8 78.9 228 79.1 228.2 79.2C228.6 79.5 228.9 80 229 80.4C228.8 79.9 228.6 79.4 228.2 79.1C227.8 78.7 227.3 78.5 227 78.2C226.8 78 226.7 77.8 226.6 77.6C226.5 77.4 226.4 77.1 226.3 76.9C226.2 76.7 226.1 76.5 225.9 76.4C226 76.4 226.1 76.5 226.2 76.5C226.4 76.5 226.6 76.5 226.7 76.5C226.9 76.5 227 76.4 227.2 76.5C227.5 76.5 227.8 76.6 228.1 76.8C228.4 77 228.7 77.1 228.9 77.3C229.2 77.5 229.5 77.6 229.8 77.6C229.5 77.6 229.2 77.4 228.9 77.2C228.6 77 228.4 76.8 228.1 76.6C227.8 76.4 227.5 76.3 227.2 76.2C227 76.2 226.8 76.2 226.7 76.2C226.5 76.2 226.4 76.2 226.3 76.2C225.7 76.1 225.2 75.6 224.7 75.3C224.7 75.3 224.6 75.3 224.6 75.2C224.4 75.1 224.5 74.8 224.6 74.8C224.9 74.7 225.1 74.6 225.4 74.5C225.7 74.4 226.1 74.3 226.4 74.3C226.7 74.3 227 74.4 227.4 74.4C228.1 74.6 228.8 74.5 229.5 74.4C230.2 74.3 230.9 74.3 231.5 74.4C230.8 74.3 230.1 74.3 229.4 74.3C228.7 74.3 228 74.3 227.3 74.2C227 74.1 226.6 74 226.2 74C225.9 74 225.7 74 225.5 74.1C225.6 74 225.8 73.9 225.9 73.7C226.1 73.6 226.3 73.4 226.4 73.4C226.6 73.3 226.8 73.2 227 73.2C227.2 73.2 227.4 73.2 227.7 73.2C228 73.2 228.2 73.1 228.4 73C228.6 72.9 228.8 72.7 228.9 72.5C228.7 72.7 228.6 72.8 228.4 72.9C228.2 73 228 73 227.8 73C227.6 73 227.3 73 227.1 73C226.9 73 226.6 73.1 226.4 73.1C226.2 73.2 226 73.3 225.8 73.4C225.6 73.5 225.4 73.7 225.3 73.8C225.1 74 225 74.1 224.8 74.2C224.7 74.3 224.6 74.3 224.5 74.3C224.1 74.4 223.7 74.5 223.3 74.5C223 74.5 222.7 74.4 222.4 74.3C222.2 74.3 222.1 74.2 222 74.1C221.9 74.1 221.9 74 221.8 74C221.7 74 221.6 73.9 221.6 73.9C221.3 73.8 221.1 73.6 220.8 73.5C221 73.4 221.1 73.4 221.3 73.3C221.6 73.2 221.9 73.1 222.3 73C222.5 73 222.8 73 223.1 73C223.6 73 224.1 73 224.5 73.1C224.8 73.1 225 73.1 225.2 73C225.4 72.9 225.7 72.8 225.9 72.7C226.1 72.6 226.3 72.4 226.5 72.3C226.7 72.2 227 72.2 227.2 72.1C227 72.1 226.7 72.1 226.5 72.2C226.3 72.3 226 72.4 225.8 72.5C225.4 72.7 224.9 72.8 224.4 72.7C224.2 72.7 223.9 72.7 223.7 72.7C223.9 72.7 224.1 72.6 224.4 72.5C224.7 72.4 225.1 72.2 225.4 71.9C225.7 71.6 225.8 71.3 226 70.9C226.2 70.6 226.4 70.3 226.6 70C226.3 70.3 226.1 70.5 225.9 70.9C225.7 71.2 225.5 71.5 225.2 71.8C224.7 72.3 224 72.5 223.3 72.6C222.9 72.6 222.6 72.7 222.2 72.8C221.8 72.9 221.5 73 221.1 73.1C220.7 73.2 220.4 73.3 220.1 73.4C219.9 73.4 219.8 73.4 219.6 73.4H219.5C219.1 73.3 218.8 73.2 218.4 73.1C218.4 73.1 218.4 73.1 218.3 73.1L218.4 73C218.5 72.9 218.6 72.7 218.7 72.6C218.8 72.5 218.8 72.4 218.9 72.3C219.2 71.9 219.6 71.5 220 71.2C220.4 70.9 221 70.7 221.5 70.5C221.8 70.4 222 70.4 222.3 70.3C222.6 70.2 222.9 70.2 223.2 70.1C223.8 69.9 224.3 69.5 224.8 69.2C225 69 225.3 68.9 225.6 68.8C225.9 68.7 226.2 68.7 226.4 68.7C226.1 68.7 225.8 68.7 225.5 68.7C225.2 68.8 224.9 68.9 224.7 69C224.5 69.1 224.3 68.9 224.4 68.7L224.9 67.7C225.1 67.4 225.3 67 225.5 66.9C225.2 67.1 225 67.4 224.8 67.7C224.6 68 224.4 68.3 224.2 68.6C224 68.9 223.7 69.1 223.5 69.4C223.3 69.6 223.1 69.7 222.9 69.8C222.9 69.8 222.9 69.8 222.8 69.8C222.6 69.8 222.4 69.8 222.2 69.9C221.9 69.9 221.6 70 221.3 70C221 70.1 220.7 70.1 220.4 70.2C220.4 70 220.5 69.9 220.5 69.7C220.6 69.1 220.7 68.6 220.9 68C221 67.5 221.3 67 221.7 66.6C222.1 66.2 222.5 65.8 222.9 65.5C222.4 65.8 221.9 66.1 221.5 66.4C221.4 66.5 221.3 66.6 221.2 66.7C221.1 66.8 221 67 220.9 67.1C220.8 67.2 220.8 67.2 220.8 67.3L220.7 67.5L220.6 67.7C220.6 67.8 220.5 67.8 220.5 67.9C220.5 67.9 220.5 67.9 220.5 68C220.4 67.8 220.3 67.6 220.2 67.4C220.1 67.2 220 67 220.1 66.7C220 66.9 220 67.2 220 67.5C220.1 67.8 220.1 68 220.2 68.2C220.2 68.4 220.2 68.6 220.2 68.8C220.2 68.8 220.2 68.8 220.2 68.9C220.1 69.2 220 69.4 220 69.7C219.8 70.2 219.6 70.5 219.3 70.9C219.3 70.9 219.3 70.9 219.2 70.9C218.8 71.1 218.4 71.4 218 71.8C217.9 71.9 217.8 72 217.7 72.2C217.6 72.4 217.5 72.4 217.4 72.5H217.3H217.2H217C216.9 72.6 216.8 72.6 216.7 72.6C216.3 72.7 215.9 72.9 215.4 72.8C215.2 72.8 214.9 72.8 214.7 72.7C214.6 72.7 214 72.5 214 72.5L213.5 75.1C213.6 75.1 213.9 75.1 214 75.1C214 75.1 214.5 75.1 214.7 75C215 75 215.3 74.9 215.7 74.8C215.9 74.8 216.2 74.6 216.2 74.6C216.6 74.5 216.9 74.5 217.3 74.4C217.4 74.4 217.4 74.4 217.5 74.4C217.7 74.5 217.9 74.7 218.1 74.9C218.3 75.1 218.5 75.4 218.7 75.6C218.9 75.9 219 76.1 219.2 76.4C219.3 76.7 219.4 77 219.5 77.3C219.6 77.6 219.7 78 219.9 78.2C220.1 78.5 220.4 78.7 220.5 79C220.7 79.3 220.8 79.6 220.9 79.9C220.8 79.6 220.7 79.2 220.6 78.9C220.4 78.6 220.2 78.4 220 78.1C219.8 77.8 219.7 77.5 219.6 77.2C219.6 76.9 219.4 76.5 219.3 76.2C219 75.6 218.7 75 218.2 74.5C218.5 74.7 218.8 75 219 75.4C219.3 75.8 219.5 76.2 219.7 76.5C220 76.9 220.2 77.2 220.6 77.5C220.7 77.6 220.8 77.6 220.9 77.7C221 77.8 221.1 77.8 221.2 77.9C221.4 78 221.6 78.1 221.8 78.2C222.2 78.4 222.5 78.7 222.7 79.1C222.8 79.3 222.9 79.5 223 79.7C223.1 79.9 223.1 80.1 223.2 80.3C223.1 79.9 223 79.4 222.8 79C222.6 78.6 222.3 78.3 221.9 78C221.7 77.9 221.5 77.8 221.3 77.6C221.2 77.5 221.1 77.5 221 77.4C220.9 77.3 220.8 77.3 220.7 77.2C220.4 76.9 220.1 76.5 219.9 76.2C219.6 75.8 219.4 75.4 219.2 75.1C219.1 74.9 218.9 74.7 218.8 74.5C218.7 74.4 218.6 74.3 218.6 74.2C218.5 74.1 218.4 74 218.3 74C218.4 74 218.5 74 218.6 74C218.8 74 218.9 74 219.1 74C220.6 73.7 221.2 73.8 221.8 74.1Z" fill="#70C24C"/>
<path d="M213.5 54C213.5 54.4 213.5 54.8 213.5 55.2C213.5 55.6 213.4 56 213.3 56.4C213.5 56.2 213.6 55.9 213.7 55.7C213.9 55.2 214.1 54.6 214.1 54.1C214.1 54.7 214 55.3 213.9 55.8C213.8 56.1 213.7 56.4 213.6 56.6C213.5 56.9 213.3 57.1 213.1 57.3C213.1 57.4 213 57.5 212.9 57.7L212.6 58.2L212.5 58.5L212.4 58.8C212.3 59 212.3 59.2 212.3 59.4C212.6 59.1 212.9 58.8 213.2 58.6C213.5 58.3 213.8 58.1 214.2 57.9C214.6 57.7 214.9 57.5 215.3 57.3C215.7 57.1 216 56.9 216.4 56.7C216.8 56.5 217.1 56.3 217.4 56.1C217.2 56.4 216.8 56.7 216.5 56.9C216.2 57.1 215.8 57.3 215.5 57.5C215.3 57.6 215.1 57.8 214.9 58C215.2 58 215.5 58 215.8 58C216.4 58 217 58.1 217.6 58.1C218.2 58.1 218.8 57.9 219.3 57.7C218.8 58.1 218.3 58.4 217.6 58.6C217 58.8 216.4 58.9 215.8 58.9C215.2 59 214.7 59.1 214.3 59.3C213.9 59.6 213.6 60 213.3 60.5C213.2 60.7 213.1 60.8 213.1 61C213.2 61 213.3 61 213.4 61C213.8 61 214.2 61.1 214.5 61.1C214.9 61.1 215.2 61.2 215.6 61.1C216.3 61 216.9 60.6 217.5 60.2C217.8 60 218.1 59.8 218.5 59.6C218.8 59.4 219.2 59.3 219.6 59.3C218.9 59.5 218.3 59.9 217.7 60.3C217.1 60.7 216.5 61.1 215.8 61.3C215.9 61.4 216 61.4 216.1 61.5C216.3 61.7 216.5 61.8 216.8 61.9C217 62 217.3 62 217.6 62C217.3 62 217 62 216.8 62C216.5 62 216.3 61.9 216 61.7C215.7 61.5 215.5 61.5 215.3 61.4C215.2 61.4 215.1 61.4 215 61.4C214.9 61.4 214.8 61.4 214.7 61.4C214.3 61.4 214 61.5 213.6 61.5C213.4 61.5 213.2 61.6 213 61.7C213 61.8 212.7 62.3 212.6 62.6C212.4 63.1 212.3 63.4 212.3 63.4C212.4 63.5 212.7 63.5 212.8 63.5C213.2 63.5 213.5 63.5 213.8 63.5C214 63.5 214.2 63.4 214.3 63.4L214.5 63.3L214.8 63.2C215.2 63.1 215.6 63.1 216 63.1C216.4 63.1 216.7 63.2 217.1 63.3C217.8 63.5 218.5 63.7 219.2 63.5C218.5 63.7 217.7 63.6 217 63.5C216.3 63.4 215.6 63.3 214.9 63.6L214.4 63.8C214.2 63.9 214 63.9 213.9 64C213.8 64 213.7 64 213.7 64.1C213.9 64.2 214.1 64.3 214.3 64.4C214.6 64.6 214.8 64.7 215.1 64.8C215.4 64.9 215.7 65 216 64.9C215.7 65 215.4 64.9 215.1 64.9C214.8 64.9 214.5 64.8 214.2 64.7C213.9 64.6 213.6 64.5 213.4 64.4C213.1 64.3 212.8 64.2 212.6 64.1C212.4 64 212.1 64 212 64C211.8 64.5 211.1 66.1 210.9 66.8L208.2 65.2C208.7 64.6 208.8 64.4 209.2 63.9C209.6 63.4 209.9 62.9 210.3 62.4C210.6 61.9 211 61.3 211 61.3C211 61 210.8 60.6 210.7 60.3C210.6 60 210.5 59.7 210.4 59.5C210.2 59.2 210 59 209.7 58.8C209.4 58.6 209.1 58.4 208.9 58.2C208.7 58 208.5 57.6 208.4 57.3C208.5 57.6 208.7 57.9 209 58.1C209.2 58.3 209.5 58.5 209.8 58.7C210.1 58.8 210.3 59 210.5 59.3C210.5 59.2 210.5 59 210.5 58.9C210.5 58.5 210.5 58 210.6 57.6C210.8 56.8 211.1 56 211.3 55.2C211.4 54.8 211.5 54.4 211.5 54C211.6 53.6 211.5 53.2 211.4 52.8C211.5 53.2 211.5 53.6 211.5 54.1C211.5 54.5 211.4 55 211.3 55.4C211.1 56.2 210.9 57 210.8 57.9C210.7 58.3 210.7 58.7 210.7 59.1C210.7 59.5 210.8 59.9 210.9 60.3C210.9 60.5 211 60.8 211.1 61L211.7 60.4C211.8 60.3 211.8 60.3 211.9 60.2C211.9 60.1 211.9 60.1 211.9 60C211.9 59.6 212 59.2 212.2 58.7C212.2 58.6 212.3 58.5 212.3 58.4C212.4 58.3 212.4 58.2 212.5 58.1L212.8 57.6C213 57.3 213.1 56.9 213.3 56.6C213.5 55.8 213.6 55 213.6 54.2C213.6 53.4 213.5 52.6 213.5 51.8C213.4 52.4 213.5 53.2 213.5 54Z" fill="#70C24C"/>
<path d="M198.2 58.7001C198.1 58.6001 198.1 58.6001 198 58.5001L197.9 58.4001C197.6 58.2001 197.4 58.1001 197.1 57.9001C196.8 57.8001 196.4 57.7001 196.1 57.7001C195.8 57.7001 195.4 57.8001 195.1 57.9001C194.7 57.9001 194.4 57.9001 194 57.9001C193.6 57.8001 193.3 57.7001 192.9 57.7001C192.6 57.7001 192.2 57.7001 191.9 57.9001C192.2 57.7001 192.6 57.6001 192.9 57.6001C193.3 57.6001 193.6 57.7001 194 57.7001C194.3 57.7001 194.7 57.7001 195 57.7001C195.3 57.7001 195.7 57.6001 196 57.5001C196.2 57.5001 196.3 57.5001 196.5 57.5001C196.2 57.4001 195.9 57.3001 195.6 57.3001C195.3 57.2001 195 57.2001 194.7 57.0001C194.6 56.9001 194.4 56.8001 194.3 56.7001C194.2 56.6001 194 56.6001 193.9 56.5001C194.1 56.5001 194.2 56.5001 194.4 56.6001C194.5 56.7001 194.7 56.7001 194.8 56.8001C195.1 56.9001 195.4 57.0001 195.7 57.0001C196 57.0001 196.3 57.1001 196.6 57.2001C196.8 57.3001 197 57.4001 197.2 57.5001C197.1 57.3001 197 57.1001 196.9 56.9001C196.7 56.5001 196.3 56.1001 196 55.8001C195.8 55.7001 195.6 55.5001 195.4 55.4001C195.2 55.3001 195 55.1001 194.8 55.1001C194.6 55.0001 194.4 54.9001 194.1 54.9001C193.9 54.9001 193.6 54.8001 193.4 54.8001C193.3 54.8001 193.1 54.8001 193 54.8001C192.9 54.8001 192.7 54.7001 192.6 54.7001C192.4 54.6001 192.2 54.4001 192 54.3001C191.8 54.1001 191.6 54.0001 191.4 53.9001C191 53.7001 190.5 53.5001 190 53.6001C190.5 53.6001 191 53.7001 191.5 53.9001C192 54.1001 192.3 54.5001 192.8 54.7001C193 54.8001 193.2 54.8001 193.5 54.8001C193.8 54.8001 194 54.8001 194.3 54.9001C194.5 54.9001 194.7 55.0001 194.9 55.0001C194.8 54.9001 194.7 54.8001 194.7 54.7001C194.6 54.5001 194.6 54.4001 194.5 54.2001C194.5 54.0001 194.4 53.9001 194.4 53.8001C194.3 53.5001 194.1 53.3001 193.9 53.1001C193.7 52.9001 193.4 52.7001 193.1 52.5001C192.9 52.3001 192.6 52.0001 192.5 51.7001C192.6 52.0001 192.9 52.2001 193.1 52.4001C193.4 52.6001 193.6 52.8001 193.9 53.0001C194.2 53.2001 194.4 53.4001 194.5 53.8001C194.6 53.9001 194.6 54.1001 194.7 54.3001C194.7 54.5001 194.8 54.6001 194.9 54.7001C195.2 55.2001 195.8 55.5001 196.3 55.9001L196.4 56.0001C196.6 56.1001 196.8 56.0001 196.8 55.8001C196.8 55.5001 196.8 55.2001 196.8 55.0001C196.8 54.6001 196.8 54.3001 196.7 54.0001C196.6 53.7001 196.4 53.4001 196.2 53.1001C195.8 52.5001 195.6 51.8001 195.4 51.1001C195.2 50.4001 195 49.8001 194.7 49.1001C195.1 49.7001 195.3 50.4001 195.5 51.0001C195.7 51.7001 196 52.3001 196.4 52.9001C196.6 53.2001 196.8 53.5001 197 53.8001C197.1 54.0001 197.1 54.3001 197.2 54.5001C197.3 54.3001 197.3 54.1001 197.4 54.0001C197.5 53.8001 197.5 53.6001 197.5 53.4001C197.5 53.2001 197.5 53.0001 197.4 52.8001C197.3 52.6001 197.3 52.4001 197.2 52.1001C197.1 51.9001 197.1 51.6001 197.1 51.4001C197.1 51.2001 197.2 51.0001 197.4 50.8001C197.3 51.0001 197.2 51.2001 197.2 51.4001C197.2 51.6001 197.3 51.8001 197.3 52.0001C197.4 52.2001 197.5 52.4001 197.6 52.6001C197.7 52.8001 197.7 53.1001 197.7 53.3001C197.7 53.5001 197.7 53.8001 197.6 54.0001C197.6 54.2001 197.5 54.5001 197.4 54.7001C197.3 54.9001 197.2 55.1001 197.2 55.3001C197.2 55.4001 197.2 55.5001 197.2 55.6001C197.2 56.0001 197.3 56.4001 197.4 56.8001C197.5 57.1001 197.7 57.4001 197.9 57.6001C198 57.7001 198.1 57.8001 198.3 57.9001C198.4 58.0001 198.4 58.0001 198.5 58.1001C198.6 58.2001 198.6 58.2001 198.7 58.3001C198.9 58.5001 199.1 58.7001 199.3 58.9001C199.3 58.7001 199.3 58.6001 199.3 58.4001C199.3 58.0001 199.3 57.7001 199.2 57.4001C199.1 57.2001 199.1 56.9001 199 56.7001C198.8 56.2001 198.6 55.8001 198.4 55.4001C198.3 55.2001 198.2 54.9001 198.2 54.7001C198.2 54.5001 198.2 54.2001 198.2 53.9001C198.2 53.6001 198.3 53.4001 198.3 53.2001C198.3 53.0001 198.3 52.7001 198.2 52.5001C198.3 52.7001 198.4 53.0001 198.4 53.2001C198.4 53.5001 198.4 53.7001 198.4 53.9001C198.4 54.4001 198.5 54.8001 198.7 55.3001C198.8 55.5001 198.9 55.7001 199 55.9001C199 55.7001 198.9 55.4001 198.9 55.2001C198.9 54.8001 199 54.4001 199.1 54.1001C199.3 53.8001 199.5 53.5001 199.7 53.2001C199.9 52.9001 200.1 52.6001 200.3 52.3001C200.2 52.7001 200 53.0001 199.8 53.3001C199.6 53.6001 199.4 53.9001 199.3 54.2001C199 54.8001 199.2 55.6001 199.3 56.3001C199.4 56.7001 199.5 57.0001 199.6 57.4001C199.7 57.8001 199.7 58.1001 199.8 58.5001C199.8 58.9001 199.9 59.2001 200 59.5001C200 59.7001 200.1 59.8001 200.1 60.0001C200.1 60.0001 200.1 60.1001 200.2 60.1001C200.4 60.4001 200.6 60.7001 200.9 61.0001L201 60.9001C201.1 60.8001 201.2 60.6001 201.3 60.5001C201.4 60.4001 201.5 60.3001 201.5 60.2001C201.8 59.8001 202 59.3001 202.1 58.7001C202.2 58.2001 202.2 57.6001 202.2 57.0001C202.2 56.7001 202.1 56.4001 202.1 56.2001C202.1 55.9001 202 55.6001 202 55.3001C201.9 54.7001 202.1 54.1001 202.2 53.5001C202.3 53.2001 202.3 52.9001 202.3 52.7001C202.3 52.4001 202.2 52.1001 202.1 51.8001C202.2 52.1001 202.3 52.3001 202.4 52.6001C202.4 52.9001 202.4 53.2001 202.4 53.5001C202.4 53.7001 202.7 53.9001 202.8 53.7001L203.4 52.9001C203.6 52.6001 203.8 52.3001 203.9 52.0001C203.9 52.4001 203.6 52.7001 203.5 53.0001C203.3 53.3001 203.1 53.6001 202.9 53.9001C202.7 54.2001 202.6 54.5001 202.5 54.8001C202.4 55.0001 202.4 55.3001 202.4 55.5001C202.5 55.7001 202.5 55.9001 202.5 56.1001C202.6 56.4001 202.6 56.7001 202.7 57.0001C202.8 57.3001 202.8 57.6001 202.8 57.9001C202.9 57.8001 203 57.7001 203.2 57.6001C203.7 57.3001 204.1 57.0001 204.5 56.7001C204.9 56.4001 205.2 56.0001 205.5 55.5001C205.8 55.0001 205.9 54.5001 206 53.9001C205.9 54.5001 205.9 55.0001 205.7 55.6001C205.7 55.7001 205.6 55.8001 205.6 55.9001C205.5 56.1001 205.5 56.2001 205.4 56.3001C205.3 56.4001 205.3 56.4001 205.3 56.5001L205.2 56.7001L205.1 56.9001C205 57.0001 205 57.0001 205 57.1001C205 57.1001 205 57.1001 204.9 57.1001C205.1 57.1001 205.3 57.1001 205.6 57.1001C205.8 57.1001 206.1 57.1001 206.3 57.0001C206.1 57.2001 205.9 57.3001 205.6 57.4001C205.3 57.4001 205.1 57.4001 204.9 57.5001C204.7 57.5001 204.5 57.6001 204.4 57.7001C204.4 57.7001 204.4 57.7001 204.3 57.7001C204.1 57.9001 203.9 58.0001 203.7 58.2001C203.3 58.5001 203.1 58.9001 202.9 59.2001C202.9 59.2001 202.9 59.2001 202.9 59.3001C202.9 59.8001 202.7 60.3001 202.5 60.7001C202.5 60.9001 202.4 61.0001 202.3 61.2001C202.2 61.4001 202.2 61.4001 202.2 61.6001V61.7001V61.8001V62.0001C202.2 62.1001 202.2 62.2001 202.2 62.3001C202.2 62.7001 202.4 63.2001 202.6 63.6001C202.7 63.8001 202.8 64.0001 203 64.2001C203.1 64.3001 203.1 64.4001 203.2 64.5001L203.3 64.6001C203.3 64.6001 203.3 64.6001 203.3 64.7001L200.9 66.2001C200.9 66.1001 200.9 66.1001 200.9 66.0001V65.9001C200.9 65.8001 200.8 65.7001 200.8 65.6001C200.7 65.4001 200.7 65.3001 200.7 65.1001C200.6 64.8001 200.5 64.4001 200.5 64.1001C200.5 63.9001 200.5 63.7001 200.5 63.6001C200.5 63.2001 200.4 62.9001 200.3 62.5001C200.3 62.5001 200.2 62.4001 200.2 62.3001C200 62.2001 199.8 62.0001 199.6 61.9001C199.3 61.8001 199 61.6001 198.7 61.6001C198.4 61.5001 198.1 61.5001 197.8 61.4001C197.5 61.3001 197.2 61.4001 196.9 61.4001C196.6 61.4001 196.2 61.4001 195.9 61.3001C195.6 61.2001 195.3 61.0001 195 60.9001C194.7 60.8001 194.4 60.8001 194 60.8001C194.3 60.8001 194.6 60.7001 195 60.8001C195.3 60.9001 195.6 61.0001 195.9 61.1001C196.2 61.2001 196.5 61.2001 196.8 61.1001C197.1 61.0001 197.5 61.0001 197.8 61.0001C198.5 61.0001 199.1 61.2001 199.7 61.4001C199.4 61.1001 199 61.0001 198.6 60.9001C198.2 60.8001 197.8 60.7001 197.3 60.6001C196.9 60.5001 196.4 60.4001 196.1 60.1001C196 60.0001 195.9 60.0001 195.8 59.9001C195.7 59.8001 195.6 59.8001 195.5 59.7001C195.3 59.6001 195.2 59.4001 195 59.3001C194.7 59.0001 194.3 58.8001 193.9 58.8001C193.7 58.8001 193.5 58.8001 193.3 58.8001C193.1 58.8001 192.9 58.8001 192.7 58.8001C193.1 58.7001 193.6 58.6001 194 58.7001C194.4 58.7001 194.9 58.9001 195.2 59.2001C195.4 59.3001 195.5 59.5001 195.7 59.6001C195.8 59.7001 195.9 59.7001 196 59.8001C196.1 59.9001 196.2 59.9001 196.3 60.0001C196.7 60.2001 197.1 60.3001 197.5 60.4001C197.9 60.5001 198.3 60.6001 198.8 60.7001C199 60.8001 199.2 60.8001 199.4 60.9001C199.5 60.9001 199.6 61.0001 199.7 61.0001C199.8 61.1001 199.9 61.1001 200 61.2001C200 61.1001 199.9 61.0001 199.9 60.9001C199.9 60.7001 199.8 60.6001 199.7 60.4001C199 59.7001 198.7 59.1001 198.2 58.7001Z" fill="#70C24C"/>
<path d="M188.7 74.1001C188.6 74.1001 188.5 74.2001 188.4 74.2001C188.4 74.2001 188.3 74.2001 188.3 74.3001C188 74.4001 187.7 74.6001 187.4 74.8001C187.1 75.0001 186.9 75.3001 186.7 75.6001C186.6 75.9001 186.5 76.3001 186.4 76.6001C186.3 76.9001 186.1 77.3001 185.9 77.6001C185.7 77.9001 185.4 78.2001 185.2 78.5001C185 78.8001 184.9 79.1001 184.9 79.5001C184.9 79.2001 184.9 78.8001 185.1 78.5001C185.3 78.2001 185.5 77.9001 185.7 77.6001C185.9 77.3001 186.1 77.0001 186.2 76.7001C186.3 76.4001 186.4 76.0001 186.5 75.7001C186.6 75.6001 186.7 75.4001 186.8 75.3001C186.5 75.5001 186.3 75.8001 186.1 76.0001C185.9 76.2001 185.7 76.5001 185.4 76.7001C185.2 76.8001 185.1 76.9001 184.9 77.0001C184.7 77.1001 184.6 77.2001 184.5 77.3001C184.6 77.2001 184.7 77.0001 184.8 76.9001C184.9 76.8001 185.1 76.7001 185.2 76.6001C185.5 76.4001 185.7 76.2001 185.8 75.9001C186 75.6001 186.2 75.4001 186.5 75.2001C186.7 75.0001 186.9 74.9001 187.2 74.8001C187 74.9001 186.7 74.9001 186.4 74.9001C185.8 75.0001 185.3 75.1001 184.7 75.3001C184.5 75.4001 184.2 75.5001 184 75.6001C183.7 75.7001 183.5 75.9001 183.3 76.0001C183.1 76.2001 182.9 76.4001 182.8 76.5001C182.6 76.7001 182.5 76.9001 182.3 77.1001C182.2 77.2001 182.2 77.3001 182.1 77.4001C182 77.5001 181.9 77.6001 181.8 77.7001C181.6 77.9001 181.3 78.0001 181 78.1001C180.7 78.2001 180.5 78.3001 180.2 78.5001C179.7 78.8001 179.4 79.2001 179.1 79.6001C179.3 79.2001 179.6 78.7001 180.1 78.4001C180.6 78.1001 181.2 77.9001 181.6 77.6001C181.8 77.4001 181.9 77.2001 182.1 77.0001C182.2 76.8001 182.4 76.6001 182.6 76.4001C182.7 76.2001 182.9 76.1001 183.1 75.9001C183 75.9001 182.8 76.0001 182.7 76.0001C182.5 76.0001 182.3 76.0001 182.1 76.0001C181.9 76.0001 181.7 75.9001 181.5 76.0001C181.1 76.0001 180.8 76.1001 180.4 76.2001C180 76.3001 179.7 76.5001 179.4 76.6001C179.1 76.7001 178.7 76.9001 178.3 76.9001C178.7 76.9001 179 76.8001 179.4 76.6001C179.7 76.4001 180 76.3001 180.4 76.1001C180.7 75.9001 181.1 75.8001 181.5 75.8001C181.7 75.8001 181.9 75.8001 182.1 75.8001C182.3 75.8001 182.5 75.8001 182.6 75.8001C183.3 75.7001 183.9 75.3001 184.6 75.0001C184.6 75.0001 184.7 75.0001 184.7 74.9001C184.9 74.8001 184.9 74.6001 184.7 74.5001C184.4 74.4001 184.1 74.3001 183.8 74.2001C183.4 74.1001 183 74.0001 182.6 74.0001C182.2 74.0001 181.8 74.1001 181.4 74.1001C180.5 74.2001 179.7 74.2001 178.8 74.1001C178 74.0001 177.1 74.0001 176.3 74.0001C177.1 73.9001 178 73.9001 178.8 74.0001C179.6 74.0001 180.5 74.1001 181.3 73.9001C181.7 73.8001 182.1 73.7001 182.6 73.7001C182.9 73.7001 183.2 73.7001 183.5 73.8001C183.3 73.7001 183.2 73.6001 183 73.5001C182.8 73.4001 182.6 73.3001 182.4 73.2001C182.2 73.1001 181.9 73.1001 181.7 73.0001C181.5 73.0001 181.2 73.0001 180.9 72.9001C180.6 72.9001 180.4 72.8001 180.1 72.7001C179.9 72.6001 179.7 72.4001 179.5 72.2001C179.7 72.4001 179.9 72.5001 180.1 72.6001C180.3 72.7001 180.6 72.7001 180.9 72.7001C181.2 72.7001 181.4 72.7001 181.7 72.7001C182 72.7001 182.3 72.8001 182.5 72.8001C182.8 72.9001 183 73.0001 183.2 73.1001C183.4 73.2001 183.6 73.4001 183.8 73.5001C184 73.6001 184.2 73.8001 184.4 73.9001C184.5 74.0001 184.6 74.0001 184.7 74.0001C185.2 74.1001 185.7 74.2001 186.2 74.2001C186.6 74.2001 187 74.2001 187.3 74.0001C187.5 74.0001 187.7 73.9001 187.8 73.8001C187.9 73.8001 188 73.7001 188.1 73.7001C188.2 73.7001 188.3 73.6001 188.4 73.6001C188.7 73.5001 189 73.4001 189.4 73.3001C189.2 73.3001 189 73.2001 188.8 73.2001C188.4 73.1001 188 73.0001 187.6 72.9001C187.3 72.9001 187 72.8001 186.7 72.8001C186.1 72.8001 185.5 72.8001 185 72.8001C184.7 72.8001 184.4 72.8001 184.1 72.7001C183.8 72.6001 183.5 72.6001 183.3 72.4001C183 72.3001 182.8 72.1001 182.6 72.0001C182.4 71.9001 182.1 71.9001 181.8 71.8001C182.1 71.8001 182.4 71.8001 182.7 71.9001C183 72.0001 183.2 72.1001 183.5 72.2001C184 72.4001 184.6 72.4001 185.1 72.4001C185.4 72.4001 185.7 72.4001 186 72.4001C185.7 72.4001 185.5 72.3001 185.2 72.2001C184.8 72.1001 184.4 71.9001 184.1 71.6001C183.8 71.3001 183.6 71.0001 183.4 70.7001C183.2 70.4001 183 70.1001 182.7 69.9001C183 70.2001 183.3 70.4001 183.5 70.7001C183.7 71.0001 184 71.3001 184.3 71.5001C184.9 72.0001 185.7 72.1001 186.6 72.2001C187 72.3001 187.5 72.3001 187.9 72.4001C188.3 72.5001 188.8 72.6001 189.2 72.7001C189.6 72.8001 190 72.9001 190.4 73.0001C190.6 73.0001 190.8 73.0001 191 73.0001C191.1 73.0001 191.1 73.0001 191.1 73.0001C191.5 73.0001 192 72.8001 192.4 72.7001C192.4 72.7001 192.4 72.7001 192.5 72.7001L192.4 72.6001C192.3 72.4001 192.2 72.3001 192.1 72.2001C192 72.1001 192 72.0001 191.9 71.9001C191.6 71.5001 191.1 71.1001 190.6 70.9001C190.1 70.6001 189.5 70.4001 188.8 70.2001C188.5 70.1001 188.1 70.1001 187.8 70.0001C187.5 69.9001 187.1 69.9001 186.8 69.8001C186.1 69.6001 185.5 69.2001 185 69.0001C184.7 68.9001 184.4 68.7001 184.1 68.6001C183.8 68.5001 183.4 68.5001 183.1 68.4001C183.4 68.4001 183.8 68.4001 184.2 68.5001C184.6 68.6001 184.9 68.7001 185.2 68.8001C185.5 68.9001 185.7 68.7001 185.6 68.5001L185 67.6001C184.8 67.3001 184.6 67.0001 184.2 66.8001C184.6 67.0001 184.8 67.3001 185 67.5001C185.2 67.8001 185.4 68.1001 185.7 68.3001C185.9 68.6001 186.2 68.8001 186.5 69.0001C186.7 69.2001 186.9 69.3001 187.2 69.4001H187.3C187.5 69.4001 187.8 69.4001 188 69.5001C188.4 69.5001 188.7 69.6001 189.1 69.6001C189.5 69.7001 189.8 69.7001 190.2 69.8001C190.1 69.7001 190.1 69.5001 190.1 69.4001C190 68.8001 189.9 68.4001 189.7 67.9001C189.6 67.4001 189.2 67.0001 188.8 66.6001C188.4 66.2001 187.9 65.9001 187.3 65.6001C187.9 65.9001 188.5 66.1001 189 66.5001C189.1 66.6001 189.2 66.7001 189.3 66.8001C189.4 66.9001 189.6 67.0001 189.7 67.2001C189.7 67.3001 189.8 67.3001 189.8 67.4001L189.9 67.6001L190 67.8001C190 67.9001 190.1 67.9001 190.1 68.0001C190.1 68.0001 190.1 68.0001 190.1 68.1001C190.2 67.9001 190.4 67.7001 190.4 67.5001C190.5 67.3001 190.6 67.1001 190.6 66.9001C190.7 67.1001 190.7 67.4001 190.7 67.6001C190.6 67.8001 190.5 68.1001 190.4 68.3001C190.4 68.5001 190.3 68.6001 190.3 68.8001C190.3 68.8001 190.3 68.8001 190.3 68.9001C190.4 69.1001 190.5 69.4001 190.5 69.6001C190.7 70.0001 190.9 70.4001 191.3 70.7001C191.3 70.7001 191.3 70.7001 191.4 70.7001C191.9 70.9001 192.4 71.2001 192.8 71.5001C192.9 71.6001 193.1 71.7001 193.2 71.8001C193.4 71.9001 193.4 72.0001 193.5 72.1001L193.6 72.2001H193.7L193.9 72.3001C194 72.4001 194.1 72.4001 194.2 72.4001C194.7 72.5001 195.3 72.6001 195.8 72.5001C196.1 72.5001 196.9 71.9001 196.9 71.9001L198 75.0001C197.9 75.0001 196.9 74.8001 196.7 74.8001C196.3 74.7001 195.8 74.6001 195.4 74.5001C195.2 74.5001 195 74.4001 194.8 74.3001C194.4 74.2001 193.9 74.1001 193.5 74.1001C193.4 74.1001 193.4 74.1001 193.3 74.1001C193.1 74.2001 192.8 74.3001 192.6 74.5001C192.3 74.7001 192 74.9001 191.8 75.2001C191.6 75.4001 191.4 75.7001 191.2 75.9001C191 76.2001 190.9 76.4001 190.8 76.7001C190.7 77.0001 190.5 77.3001 190.2 77.6001C189.9 77.8001 189.6 78.0001 189.4 78.3001C189.2 78.6001 189 78.8001 188.9 79.1001C189 78.8001 189.1 78.5001 189.4 78.2001C189.6 77.9001 189.9 77.7001 190.2 77.5001C190.4 77.3001 190.6 77.0001 190.7 76.7001C190.8 76.4001 190.9 76.1001 191.1 75.8001C191.5 75.2001 191.9 74.7001 192.5 74.3001C192.1 74.5001 191.7 74.8001 191.4 75.1001C191.1 75.4001 190.8 75.8001 190.5 76.1001C190.2 76.4001 189.8 76.8001 189.4 77.0001C189.3 77.1001 189.2 77.1001 189.1 77.2001C189 77.2001 188.9 77.3001 188.7 77.3001C188.5 77.4001 188.2 77.5001 188 77.6001C187.5 77.8001 187.1 78.0001 186.9 78.4001C186.8 78.6001 186.7 78.8001 186.6 79.0001C186.5 79.2001 186.4 79.4001 186.3 79.6001C186.4 79.2001 186.5 78.8001 186.8 78.4001C187.1 78.0001 187.5 77.7001 187.9 77.5001C188.1 77.4001 188.4 77.3001 188.6 77.2001C188.7 77.2001 188.8 77.1001 188.9 77.0001C189 76.9001 189.1 76.9001 189.2 76.8001C189.6 76.5001 189.9 76.2001 190.2 75.9001C190.5 75.6001 190.8 75.2001 191.1 74.9001C191.3 74.7001 191.4 74.6001 191.6 74.4001C191.7 74.3001 191.8 74.2001 191.9 74.2001C192 74.1001 192.1 74.0001 192.3 74.0001C192.2 74.0001 192.1 74.0001 192 74.0001C191.8 74.0001 191.6 74.0001 191.4 74.0001C190.3 73.7001 189.5 73.8001 188.7 74.1001Z" fill="#70C24C"/>
<path d="M205.1 71.1C204.6 71.6 203.9 73.1 204.7 74.7C205 75.3 206 76.0001 207.2 75.4001C207.6 75.2001 208.1 74.9001 208.4 74.4001C208.8 73.9001 209 73.3 209 72.7C209 72.4 208.9 72 208.7 71.6C208.5 71.2 208.1 70.8 207.4 70.5L205.1 71.1ZM205.1 71.1C205.4 70.8 205.8 70.6 206.2 70.6L205.1 71.1ZM205.1 71.1L206.2 70.6L205.1 71.1ZM206.2 70.5C206.6 70.4 207.1 70.4 207.4 70.5H206.2Z" fill="#8B92D2" fill-opacity="0.4" stroke="#5A5999" stroke-width="0.8619"/>
<path d="M205.2 71.1001C204.7 71.6001 204.1 73.0001 204.8 74.6001C205.1 75.2001 206 75.8001 207.2 75.3001C207.9 74.9001 209 73.9001 208.9 72.7001C208.9 72.2001 208.8 71.1001 207.4 70.6001C206.8 70.4001 205.8 70.6001 205.2 71.1001Z" fill="#5A5999"/>
<path d="M205.3 71.1999C204.8 71.6999 204.2 72.9999 205 74.5999C205.3 75.1999 206.2 75.7999 207.3 75.1999C208 74.8999 209.1 73.8999 209 72.6999C209 72.1999 208.9 71.0999 207.5 70.6999C206.7 70.4999 205.8 70.6999 205.3 71.1999Z" fill="#949BD9" stroke="#5C629B" stroke-width="0.4867" stroke-miterlimit="10" stroke-linecap="round" stroke-linejoin="round"/>
<path d="M206.1 72.3C205.8 73.2 206.3 73.8 207 73.8C207.7 73.7 208.2 73.4 208 72.5C207.8 71.5 206.4 71.5 206.1 72.3Z" fill="#406296" stroke="#2D3368" stroke-width="0.4867" stroke-miterlimit="10" stroke-linecap="round" stroke-linejoin="round"/>
<path opacity="0.5" d="M206.2 72.1999C206 72.8999 206.3 73.2999 206.9 73.2999C207.4 73.1999 207.8 72.9999 207.6 72.2999C207.5 71.5999 206.5 71.5999 206.2 72.1999Z" fill="#6277C2"/>
<path d="M199.8 72.5C200 72.8 200 73.3 200.1 73.7C200.2 74.1 200.2 74.5 200.2 75C200.2 75.8 200.2 76.6 200 77.3C200 77.5 200 77.7 199.9 77.8C199.9 78 199.8 78.1 199.8 78.3C199.7 78.7 199.7 79 199.6 79.4C199.5 79.8 199.5 80.2 199.4 80.5C199.3 80.9 199.2 81.2 199.1 81.5C197.9 83.7 196.7 86 195.5 88.3C193.2 92.8 190.9 97.5 188.7 102.1C184.3 111.4 180.1 120.9 176 130.6C172 140.3 168.2 150.1 164.6 160.1C161 170.1 157.7 180.2 154.6 190.5C148.4 211 142.9 231.9 137.9 253C135.4 263.5 133.1 274.1 130.9 284.8C129.8 290.1 128.7 295.5 127.7 300.8C127.2 303.5 126.7 306.2 126.2 308.8C125.9 310.1 125.7 311.5 125.5 312.8C125.4 313.2 125.4 313.7 125.3 314.1C125.3 314.3 125.2 314.5 125.2 314.7C125.1 315.1 125 315.5 124.8 315.9C124.7 316.3 124.5 316.7 124.4 317.1C124.1 317.9 123.8 318.6 123.4 319.4C123.1 320.1 122.7 320.9 122.3 321.6C121.5 323 120.6 324.4 119.8 325.9C119.3 326.8 118.9 327.8 118.4 328.8C117.8 329.9 117 331 116.1 331.9C115.2 332.9 114.2 333.8 113.2 334.7C112.2 335.6 111.2 336.4 110.2 337.3C109.2 338.2 108.2 339 107.2 339.9C106.2 340.8 105.2 341.8 104.3 342.9C104 343.3 103.8 343.6 103.5 344C103.1 344.3 102.7 344.7 102.3 345.1C101.9 345.5 101.5 346 101.1 346.6C100.7 347.1 100.4 347.8 100.1 348.5C99.8001 349.2 99.6 349.9 99.5 350.7C99.7 350 100 349.4 100.3 348.8C100.6 348.2 101 347.7 101.4 347.3C101.7 346.9 102.1 346.6 102.4 346.2C102.2 346.5 102.1 346.9 102 347.3C101.8 348.2 101.6 349 101.5 349.9C101.5 350.2 101.4 350.6 101.4 350.9C101.3 351.4 101.2 351.8 101 352.3C100.8 352.7 100.7 353.1 100.4 353.5C100.2 353.9 99.9 354.2 99.7 354.6C99.5 355 99.3 355.5 99.3 356C99.4 355.5 99.6 355.1 99.9 354.8C100.1 354.5 100.4 354.2 100.7 353.8C100.9 353.6 101 353.3 101.2 353C101.2 353.7 101.1 354.5 101.1 355.2C101.1 356.1 101.1 357 101.1 357.9C101.2 357 101.2 356.2 101.3 355.3C101.4 354.4 101.5 353.6 101.6 352.7C101.7 352 101.8 351.4 101.9 350.7C102.1 351.3 102.3 351.9 102.6 352.4C102.9 352.9 103.3 353.4 103.6 353.8C103.8 354 103.9 354.3 104.1 354.5C104.3 354.7 104.4 355 104.5 355.3C104.5 355 104.4 354.7 104.2 354.4C104.1 354.1 103.9 353.9 103.8 353.6C103.5 353.1 103.2 352.6 102.9 352C102.6 351.4 102.4 350.9 102.3 350.3C102.2 349.9 102.2 349.5 102.2 349.1C102.2 349 102.2 349 102.2 348.9C102.2 348.7 102.3 348.5 102.3 348.3L102.4 348L102.5 347.7C102.8 346.8 103.2 346 103.7 345.2C103.7 345.5 103.8 345.8 103.9 346.1C104.1 346.9 104.4 347.5 104.7 348.1C105 348.7 105.2 349.3 105.4 350C105.6 350.7 105.7 351.4 105.8 352.1C105.8 351.4 105.8 350.6 105.7 349.9C105.6 349.2 105.4 348.5 105.1 347.8C104.9 347.1 104.7 346.5 104.5 345.8C104.4 345.3 104.3 344.8 104.4 344.3C104.5 344.2 104.6 344.1 104.7 343.9C105.6 342.9 106.6 342 107.6 341.1C108.6 340.2 109.6 339.5 110.6 338.7C111.6 337.9 112.6 337.1 113.7 336.3C114.7 335.4 115.7 334.6 116.7 333.5C116.8 333.4 116.9 333.3 117 333.2C117 333.5 116.9 333.8 116.9 334.1C116.9 334.3 116.9 334.5 116.9 334.7C116.9 335.3 116.6 335.9 116.2 336.5C115.8 337.1 115.4 337.6 114.9 338.2C114.4 338.8 114 339.4 113.6 340C113.4 340.4 113.2 340.7 113.1 341.1C113 341.5 112.9 342 112.9 342.4C113 342 113.1 341.6 113.3 341.3C113.5 341 113.7 340.7 113.9 340.4C114.3 339.9 114.9 339.5 115.4 339C115.9 338.6 116.4 338.2 116.8 337.6C116.8 339.3 116.6 340.9 116.4 342.5V342.8L116.3 343.1C116.3 343.3 116.2 343.6 116.2 343.8L116.1 344.5C116 344.7 116 344.9 115.9 345.2C115.8 345.4 115.8 345.6 115.7 345.8C115.6 346 115.5 346.2 115.5 346.4L115.4 346.6C115.4 346.7 115.3 346.8 115.3 346.9C115.2 347.1 115.1 347.3 115 347.4C115.3 347.2 115.5 346.9 115.8 346.5C115.9 346.3 116 346.1 116.1 345.9C116.2 345.7 116.3 345.5 116.4 345.3C116.6 344.9 116.7 344.5 116.8 344.1C116.8 344.4 116.8 344.8 116.8 345.1C116.7 345.9 116.7 346.7 116.7 347.5V348.1V348.7C116.7 348.9 116.7 349.1 116.7 349.3C116.7 349.4 116.7 349.5 116.7 349.6L116.8 349.9C116.8 349.1 116.9 348.3 116.9 347.6L117.1 345.3C117.2 344.5 117.2 343.8 117.3 343C117.4 342.3 117.4 341.5 117.4 340.8V340.6L117.5 339.9L117.6 339.2C117.6 339.3 117.7 339.3 117.7 339.4C118 340.1 118.4 340.8 118.8 341.4C119.2 342 119.6 342.6 120 343.2C120.2 343.5 120.4 343.8 120.6 344.1C120.8 344.4 120.9 344.7 121.1 345.1C120.9 344.3 120.6 343.6 120.3 342.9C120 342.2 119.6 341.6 119.3 340.9C119 340.3 118.7 339.6 118.4 338.9C118.2 338.4 118.1 338 118 337.5C118 337.4 118 337.2 118.1 337.1L118.2 335.6V335.2C118.5 335.8 118.9 336.3 119.3 336.7C119.7 337.1 120.1 337.6 120.5 338C120.9 338.5 121.2 339 121.5 339.6C121.4 338.9 121.1 338.2 120.8 337.6C120.5 337 120.1 336.5 119.7 336C119.3 335.5 119 335 118.7 334.4C118.6 334.1 118.5 333.9 118.4 333.6C118.5 332.9 118.7 332.2 118.9 331.5C119.4 329.9 120.1 328.4 121 327.1C121.8 325.7 122.8 324.5 123.7 323.1C124.1 322.4 124.6 321.7 125 320.9C125.4 320.1 125.8 319.3 126.2 318.5C126.4 318.1 126.5 317.6 126.7 317.2C126.8 316.8 127 316.5 127.1 316.1C127.4 315.2 127.6 314.3 127.8 313.4C128.1 312.1 128.3 310.7 128.6 309.4C129.1 306.7 129.6 304.1 130.1 301.4L133.3 285.5C135.5 274.9 137.8 264.3 140.3 253.8C145.3 232.8 150.7 212 156.9 191.6C160 181.4 163.3 171.4 166.8 161.4C170.3 151.5 174.1 141.7 178.1 132.2C182.1 122.6 186.3 113.2 190.7 103.9C192.9 99.3 195.2 94.7 197.5 90.2C198.7 87.9 199.8 85.7 201 83.5C201.1 83.2 201.3 83 201.6 82.8C201.8 82.6 202.1 82.4 202.3 82.2C202.5 82 202.8 81.8 203 81.7C203.1 81.6 203.2 81.5 203.3 81.4C203.4 81.3 203.5 81.2 203.7 81.1C204.2 80.7 204.7 80.3 205.3 80C205.6 79.9 205.9 79.7 206.3 79.5C206.6 79.3 207 79.3 207.4 79L199.8 72.5Z" fill="#70C24C"/>
<path d="M260.7 43.5002C260.6 43.9002 260.4 44.2002 260 44.3002C257.6 45.3002 256.6 46.5002 256.1 47.5002C255.4 48.6002 255.3 50.9002 255.3 52.3002C255.3 52.8002 255 53.3002 254.6 53.6002C254.2 53.8002 253.9 54.1002 253.6 54.2002C253.3 54.4002 252.9 54.3002 252.7 54.0002C251.7 52.9002 250.9 52.6002 250.1 52.3002C249.1 51.9002 247.7 51.7002 246 52.5002C245.7 52.7002 245.3 52.7002 245 52.4002C244.6 52.1002 244.2 51.7002 243.8 51.4002C243.5 51.1002 243.3 50.7002 243.4 50.2002C243.9 47.4002 243 44.8002 241.3 43.2002C241.1 43.0002 240.9 42.7002 240.9 42.3002C240.9 41.9002 240.9 41.4002 240.9 40.9002C240.9 40.6002 241.1 40.3002 241.4 40.1002C244 38.6002 245.7 36.5002 245.9 34.1002C245.9 33.7002 246.1 33.3002 246.4 33.2002C246.9 32.9002 247.4 32.7002 247.8 32.5002C248.1 32.4002 248.3 32.5002 248.5 32.7002C249.7 33.9002 251.5 34.5002 253.6 33.4002C253.9 33.2002 254.3 33.2002 254.6 33.4002C255 33.7002 255.5 34.0002 255.9 34.3002C256.2 34.5002 256.3 34.9002 256.3 35.3002C256 38.2002 257.8 40.4002 260.1 41.5002C260.5 41.7002 260.7 42.0002 260.7 42.5002C260.8 42.9002 260.7 43.2002 260.7 43.5002Z" fill="#70C24C"/>
<path d="M260.5 44.1001C257.7 45.1001 256.6 46.5001 256 47.5001C255.2 48.9001 255.1 52.1001 255.3 53.2001C255.6 54.7001 253.9 55.6001 253 54.5001C251.8 52.9001 250.9 52.6001 250 52.3001C249 51.9001 247.4 51.6001 245.4 52.7001C243.9 53.6001 242.8 52.4001 243.2 50.9001C244 47.7001 243 44.6001 240.9 42.8001C240 42.0001 240 40.9001 241 40.4001C244 38.8001 246.1 36.4001 245.9 33.5001C245.8 31.9001 247.1 31.2001 248.2 32.4001C249.5 33.8001 251.5 34.7001 254.1 33.1001C255.5 32.4001 256.6 33.2001 256.4 34.7001C255.7 38.1001 258 40.8001 260.7 41.7001C262.4 42.4001 261.9 43.6001 260.5 44.1001Z" fill="#70C24C"/>
<path d="M256.9 65C256.9 64.6 257 64.1 257 63.7C257 63.3 257 62.8 256.9 62.4C257 62.6 257.1 62.9 257.2 63.2C257.4 63.8 257.5 64.4 257.5 64.9C257.6 64.3 257.5 63.7 257.3 63.1C257.2 62.8 257.1 62.5 257 62.2C256.9 61.9 256.7 61.7 256.6 61.4C256.6 61.3 256.5 61.1 256.5 61L256.2 60.4L256.1 60.1L256 59.8C255.9 59.6 255.9 59.3 255.9 59.1C256.2 59.4 256.5 59.7 256.8 60C257.1 60.3 257.4 60.6 257.8 60.8C258.1 61.1 258.5 61.2 258.9 61.4C259.3 61.6 259.6 61.8 259.9 62C260.2 62.2 260.6 62.4 260.9 62.7C260.7 62.3 260.3 62.1 260 61.8C259.7 61.6 259.3 61.4 259 61.1C258.8 61 258.6 60.8 258.4 60.6C258.7 60.6 259 60.7 259.3 60.6C259.9 60.6 260.5 60.5 261.1 60.6C261.7 60.7 262.3 60.9 262.8 61.1C262.3 60.7 261.8 60.3 261.2 60.1C260.6 59.9 260 59.8 259.4 59.7C258.8 59.6 258.3 59.5 257.9 59.2C257.5 58.9 257.2 58.5 257 57.9C256.9 57.7 256.8 57.5 256.8 57.3C256.9 57.3 257 57.3 257.1 57.3C257.5 57.3 257.9 57.3 258.2 57.3C258.6 57.3 258.9 57.3 259.3 57.3C260 57.4 260.6 57.8 261.2 58.3C261.5 58.5 261.8 58.7 262.1 58.9C262.4 59.1 262.8 59.2 263.1 59.2C262.4 59 261.8 58.5 261.3 58C260.8 57.5 260.1 57.1 259.4 56.9C259.5 56.8 259.6 56.8 259.7 56.7C259.9 56.6 260.1 56.4 260.4 56.3C260.7 56.2 260.9 56.2 261.2 56.2C260.9 56.2 260.7 56.2 260.4 56.2C260.1 56.2 259.8 56.3 259.6 56.5C259.4 56.6 259.1 56.7 258.9 56.8C258.8 56.8 258.7 56.8 258.6 56.8C258.5 56.8 258.4 56.8 258.3 56.8C257.9 56.8 257.6 56.7 257.2 56.7C257 56.7 256.8 56.6 256.6 56.5C256.6 56.4 256.4 55.8 256.3 55.5C256.1 54.9 256.1 54.5 256.1 54.5C256.2 54.4 256.5 54.4 256.6 54.4C257 54.4 257.2 54.5 257.5 54.6C257.7 54.6 257.8 54.7 258 54.7L258.2 54.8L258.5 54.9C258.9 55 259.3 55.1 259.6 55C260 55 260.3 54.9 260.7 54.8C261.4 54.6 262.1 54.4 262.8 54.6C262.1 54.3 261.4 54.5 260.6 54.5C259.9 54.6 259.2 54.7 258.6 54.3L258.1 54C257.9 53.9 257.7 53.8 257.6 53.8C257.5 53.8 257.5 53.8 257.4 53.7C257.6 53.6 257.8 53.5 258 53.4C258.3 53.3 258.5 53.1 258.8 53C259.1 52.9 259.4 52.8 259.7 52.9C259.4 52.8 259.1 52.8 258.8 52.9C258.5 53 258.2 53 257.9 53.1C257.6 53.2 257.3 53.3 257 53.4C256.8 53.5 256.5 53.5 256.3 53.6C256.1 53.6 255.8 53.7 255.7 53.6C255.5 53.1 255.4 52.8 255.2 52.5C254.9 51.8 254.8 51.4 254.6 50.7L251.8 52.3C252.2 52.9 252.4 53.1 252.7 53.7C253.1 54.3 253.4 54.7 253.7 55.3C254 55.9 254.4 56.5 254.4 56.5C254.3 56.8 254.1 57.3 254.1 57.6C254 57.9 253.9 58.2 253.8 58.4C253.6 58.7 253.4 58.9 253.1 59.1C252.8 59.3 252.5 59.5 252.3 59.8C252 60 251.9 60.4 251.7 60.7C251.9 60.4 252 60.1 252.3 59.9C252.6 59.7 252.9 59.5 253.1 59.3C253.3 59.1 253.6 59 253.9 58.7C253.9 58.9 253.9 59 253.9 59.1C253.9 59.6 253.9 60 253.9 60.5C254 61.4 254.3 62.2 254.5 63.1C254.6 63.5 254.6 64 254.6 64.4C254.6 64.8 254.6 65.3 254.5 65.7C254.6 65.3 254.7 64.8 254.7 64.4C254.7 63.9 254.7 63.5 254.6 63.1C254.5 62.2 254.3 61.3 254.2 60.5C254.2 60.1 254.1 59.6 254.2 59.2C254.3 58.8 254.4 58.3 254.5 57.9C254.6 57.7 254.6 57.4 254.7 57.2L255.3 57.9C255.4 58 255.4 58 255.5 58.1C255.5 58.2 255.5 58.3 255.5 58.3C255.5 58.7 255.6 59.2 255.7 59.7C255.7 59.8 255.8 59.9 255.8 60C255.9 60.1 255.9 60.2 255.9 60.3L256.2 60.8C256.4 61.1 256.5 61.5 256.6 61.9C256.8 62.7 256.8 63.6 256.7 64.4C256.7 65.3 256.6 66.1 256.4 67V67.1C256.7 66.7 256.8 65.9 256.9 65Z" fill="#70C24C"/>
<path d="M266.6 44.5C266.7 44.6 266.7 44.6 266.8 44.6L266.9 44.7C267.2 44.9 267.4 45.1001 267.6 45.4001C267.8 45.7001 268 46.0001 268 46.4001C268.1 46.7001 268.1 47.2 268.1 47.6C268.2 48 268.3 48.4001 268.4 48.8001C268.6 49.2001 268.8 49.5001 268.9 49.9001C269 50.3001 269.1 50.7 269 51.1C269.1 50.7 269.1 50.3001 269 49.9001C268.9 49.5001 268.7 49.1001 268.6 48.8001C268.5 48.4001 268.4 48.1 268.3 47.7C268.2 47.3 268.2 46.9 268.2 46.5C268.2 46.3 268.1 46.2 268 46C268.2 46.3 268.3 46.6001 268.4 46.9001C268.6 47.2001 268.7 47.6001 268.9 47.8001C269 47.9001 269.2 48 269.3 48.2C269.4 48.3 269.5 48.4 269.6 48.6C269.5 48.4 269.5 48.3 269.4 48.1C269.3 47.9 269.2 47.8 269.1 47.7C268.9 47.4 268.8 47.2001 268.7 46.8001C268.6 46.5001 268.4 46.1001 268.2 45.9001C268 45.7001 267.9 45.5001 267.7 45.3001C267.9 45.4001 268.1 45.4001 268.3 45.4001C268.8 45.5001 269.2 45.7 269.6 46C269.8 46.1 270 46.3 270.2 46.5C270.4 46.7 270.5 46.9 270.7 47.1C270.8 47.3 271 47.5001 271.1 47.8001C271.2 48.0001 271.3 48.3 271.4 48.5C271.5 48.6 271.5 48.7001 271.6 48.9001C271.7 49.0001 271.7 49.2001 271.8 49.3001C272 49.5001 272.2 49.7001 272.4 49.8001C272.6 49.9001 272.8 50.1001 273 50.3001C273.4 50.7001 273.6 51.2 273.7 51.7C273.6 51.2 273.4 50.6 273 50.2C272.7 49.8 272.2 49.5 271.9 49.1C271.7 48.9 271.7 48.7001 271.6 48.4001C271.5 48.1001 271.4 47.9 271.3 47.6C271.2 47.4 271.1 47.2 271 47C271.1 47.1 271.2 47.1 271.3 47.1C271.5 47.1 271.7 47.2 271.8 47.1C272 47.1 272.1 47.1 272.3 47.1C272.6 47.1 272.9 47.3001 273.2 47.4001C273.5 47.6001 273.7 47.8 274 48C274.3 48.2 274.6 48.4001 274.9 48.4001C274.6 48.3001 274.3 48.2 274 48C273.7 47.8 273.5 47.6001 273.3 47.4001C273 47.2001 272.7 47 272.4 47C272.2 47 272 47 271.9 47C271.7 47 271.6 47.0001 271.5 46.9001C270.9 46.7001 270.5 46.2001 269.9 45.8001C269.9 45.8001 269.8 45.8 269.8 45.7C269.6 45.6 269.7 45.3 269.9 45.2C270.2 45.1 270.4 45.1 270.7 45C271 44.9 271.4 44.8001 271.7 44.8001C272 44.8001 272.3 44.9 272.7 45C273.4 45.2 274.1 45.2 274.8 45.2C275.5 45.2 276.2 45.2001 276.8 45.3001C276.1 45.1001 275.4 45.1 274.7 45C274 44.9 273.3 44.9 272.7 44.7C272.4 44.6 272 44.4001 271.7 44.4001C271.4 44.4001 271.2 44.4 271 44.5C271.1 44.4 271.3 44.3 271.4 44.1C271.6 44 271.8 43.9001 272 43.8001C272.2 43.7001 272.4 43.7 272.6 43.7C272.8 43.7 273 43.7 273.3 43.7C273.5 43.7 273.8 43.7 274 43.6C274.2 43.5 274.4 43.3 274.5 43.1C274.3 43.3 274.1 43.4 274 43.5C273.8 43.6 273.6 43.6 273.4 43.5C273.2 43.5 272.9 43.4001 272.7 43.4001C272.5 43.4001 272.2 43.4 272 43.5C271.8 43.6 271.6 43.7001 271.4 43.8001C271.2 43.9001 271 44.1 270.8 44.2C270.6 44.4 270.5 44.5 270.3 44.6C270.2 44.7 270.1 44.7 270 44.7C269.6 44.8 269.2 44.9001 268.8 44.8001C268.5 44.8001 268.2 44.7 267.9 44.5C267.7 44.4 267.6 44.3 267.5 44.2C267.4 44.2 267.4 44.1 267.3 44C267.2 43.9 267.1 43.9001 267.1 43.8001C266.9 43.6001 266.6 43.5001 266.3 43.3001C266.5 43.3001 266.6 43.2 266.8 43.2C267.1 43.1 267.5 43.0001 267.8 42.9001C268 42.9001 268.3 42.9001 268.6 42.9001C269.1 42.9001 269.6 43 270 43.1C270.3 43.1 270.5 43.1 270.7 43.1C270.9 43.1 271.2 43.0001 271.4 42.9001C271.6 42.8001 271.8 42.6 272.1 42.6C272.3 42.5 272.6 42.5 272.8 42.5C272.6 42.5 272.3 42.4 272.1 42.5C271.9 42.6 271.6 42.7001 271.4 42.8001C271 43.0001 270.5 43 270 43C269.8 43 269.5 42.9001 269.3 42.9001C269.5 42.9001 269.7 42.8001 270 42.8001C270.4 42.7001 270.7 42.5 271 42.2C271.3 41.9 271.5 41.6 271.7 41.2C271.9 40.9 272.1 40.6001 272.4 40.3001C272.1 40.6001 271.9 40.8 271.6 41.2C271.4 41.5 271.1 41.8 270.9 42.1C270.4 42.6 269.6 42.7001 268.9 42.8001C268.5 42.8001 268.2 42.8001 267.8 42.9001C267.4 42.9001 267.1 43 266.7 43.1C266.3 43.2 266 43.3001 265.7 43.3001C265.5 43.3001 265.4 43.3001 265.2 43.3001H265.1C264.7 43.2001 264.4 43.0001 264.1 42.9001C264.1 42.9001 264.1 42.9001 264 42.9001L264.1 42.8001C264.2 42.7001 264.3 42.5001 264.4 42.4001C264.5 42.3001 264.5 42.2 264.6 42.1C264.9 41.7 265.3 41.3 265.8 41C266.3 40.7 266.8 40.5001 267.3 40.4001C267.6 40.3001 267.8 40.3 268.1 40.2C268.4 40.1 268.7 40.1 269 40.1C269.6 40 270.1 39.6001 270.6 39.3001C270.9 39.2001 271.1 39.0001 271.4 38.9001C271.7 38.8001 272 38.8001 272.2 38.8001C271.9 38.7001 271.6 38.7001 271.3 38.8001C271 38.8001 270.7 38.9 270.4 39.1C270.2 39.2 270 38.9 270.1 38.7L270.7 37.7001C270.9 37.4001 271.1 37.0001 271.4 36.9001C271.1 37.1001 270.8 37.4001 270.6 37.7001C270.4 38.0001 270.2 38.3 269.9 38.6C269.7 38.9 269.4 39.1001 269.1 39.4001C268.9 39.6001 268.7 39.7001 268.5 39.8001C268.5 39.8001 268.5 39.8001 268.4 39.8001C268.2 39.8001 268 39.8001 267.8 39.8001C267.5 39.8001 267.2 39.8001 266.9 39.9001C266.6 39.9001 266.3 40 266 40.1C266.1 39.9 266.1 39.8 266.2 39.6C266.4 39 266.5 38.4001 266.7 37.9001C266.9 37.3001 267.2 36.9001 267.6 36.4001C268 36.0001 268.5 35.6 268.9 35.3C268.4 35.5 267.9 35.8001 267.4 36.2001C267.3 36.3001 267.2 36.4 267.1 36.5C267 36.6 266.9 36.8001 266.8 36.9001C266.7 37.0001 266.7 37 266.7 37.1L266.6 37.3L266.5 37.5C266.5 37.6 266.4 37.6001 266.4 37.7001C266.4 37.7001 266.4 37.7 266.4 37.8C266.3 37.6 266.2 37.3 266.2 37.1C266.1 36.8 266.1 36.6 266.1 36.3C266 36.5 265.9 36.9001 266 37.2001C266 37.5001 266.1 37.7 266.1 38C266.1 38.2 266.1 38.4 266.1 38.6C266.1 38.6 266.1 38.6 266.1 38.7C266 39 265.9 39.3 265.8 39.5C265.6 40 265.4 40.4 265 40.7C265 40.7 265 40.7 264.9 40.7C264.5 40.9 264 41.2 263.7 41.5C263.6 41.6 263.5 41.7001 263.3 41.9001C263.2 42.1001 263.1 42.1 263 42.2H262.9H262.8H262.6C262.5 42.3 262.4 42.3001 262.3 42.3001C261.9 42.4001 261.4 42.5001 261 42.4001C260.8 42.4001 260.5 42.4001 260.3 42.3001C260.2 42.3001 259.7 42 259.7 42L259 44.7C259.1 44.7 259.4 44.7 259.5 44.7C259.5 44.7 260 44.7 260.2 44.7C260.6 44.7 260.8 44.7 261.2 44.6C261.4 44.6 261.7 44.5 261.8 44.5C262.2 44.4 262.5 44.5001 262.9 44.4001C263 44.4001 263 44.4001 263.1 44.4001C263.3 44.5001 263.5 44.7001 263.6 44.9001C263.8 45.1001 264 45.4 264.2 45.7C264.4 46 264.5 46.3 264.6 46.6C264.7 46.9 264.8 47.2 264.9 47.6C264.9 48 265.1 48.4 265.3 48.6C265.5 48.9 265.7 49.1 265.9 49.5C266.1 49.8 266.2 50.1 266.3 50.5C266.3 50.1 266.2 49.8 266 49.5C265.9 49.2 265.6 48.9 265.5 48.6C265.3 48.3 265.2 48 265.2 47.6C265.2 47.2 265.1 46.9 265 46.5C264.8 45.8 264.5 45.2 264 44.6C264.3 44.8 264.6 45.2 264.8 45.6C265 46 265.2 46.4001 265.4 46.9001C265.6 47.3001 265.9 47.7 266.2 48.1C266.3 48.2 266.4 48.3001 266.5 48.3001C266.6 48.4001 266.7 48.4 266.8 48.5C267 48.6 267.2 48.7001 267.4 48.9001C267.7 49.2001 268.1 49.5001 268.2 49.9001C268.3 50.1001 268.4 50.3 268.4 50.6C268.5 50.8 268.5 51.1001 268.5 51.3001C268.5 50.8001 268.4 50.3001 268.2 49.9001C268 49.4001 267.7 49.1001 267.4 48.8001C267.2 48.6001 267 48.5001 266.9 48.4001C266.8 48.3001 266.7 48.3 266.6 48.2C266.5 48.1 266.4 48.1 266.4 48C266.1 47.7 265.9 47.3001 265.7 46.8001C265.5 46.4001 265.3 46 265.1 45.5C265 45.3 264.9 45.1001 264.7 44.9001C264.6 44.8001 264.5 44.7 264.5 44.6C264.4 44.5 264.3 44.4001 264.2 44.3001C264.3 44.3001 264.4 44.3001 264.5 44.3001C264.7 44.3001 264.8 44.3001 265 44.3001C265.4 43.9001 266 44.2 266.6 44.5Z" fill="#70C24C"/>
<path d="M259.8 22.5001C259.8 22.9001 259.8 23.4001 259.7 23.8001C259.7 24.2001 259.6 24.7001 259.5 25.1001C259.7 24.9001 259.8 24.6001 259.9 24.3001C260.1 23.8001 260.3 23.2001 260.4 22.6001C260.4 23.2001 260.3 23.8001 260 24.4001C259.9 24.7001 259.8 25.0001 259.6 25.2001C259.5 25.5001 259.3 25.7001 259.1 25.9001C259 26.0001 259 26.2001 258.9 26.3001L258.6 26.8001L258.5 27.1001L258.4 27.4001C258.3 27.6001 258.3 27.8001 258.2 28.1001C258.5 27.8001 258.8 27.5001 259.2 27.3001C259.5 27.0001 259.9 26.8001 260.2 26.6001C260.6 26.4001 261 26.2001 261.3 26.1001C261.7 25.9001 262 25.8001 262.4 25.6001C262.8 25.4001 263.1 25.3001 263.4 25.0001C263.1 25.4001 262.8 25.6001 262.4 25.8001C262 26.0001 261.7 26.2001 261.3 26.4001C261.1 26.5001 260.9 26.7001 260.7 26.8001C261 26.8001 261.3 26.8001 261.6 26.9001C262.2 27.0001 262.8 27.1001 263.4 27.1001C264 27.1001 264.6 27.0001 265.1 26.8001C264.6 27.2001 264 27.4001 263.4 27.6001C262.8 27.8001 262.1 27.8001 261.5 27.8001C260.9 27.8001 260.4 27.9001 259.9 28.1001C259.5 28.3001 259.1 28.8001 258.8 29.3001C258.7 29.5001 258.6 29.6001 258.5 29.8001C258.6 29.8001 258.7 29.8001 258.8 29.8001C259.2 29.8001 259.5 29.9001 259.9 30.0001C260.3 30.1001 260.6 30.1001 261 30.1001C261.7 30.1001 262.3 29.7001 263 29.3001C263.3 29.1001 263.6 28.9001 264 28.8001C264.3 28.7001 264.7 28.6001 265.1 28.6001C264.4 28.7001 263.8 29.1001 263.1 29.6001C262.5 30.0001 261.8 30.4001 261.1 30.5001C261.2 30.6001 261.3 30.6001 261.4 30.7001C261.6 30.9001 261.8 31.1001 262 31.2001C262.2 31.3001 262.5 31.4001 262.8 31.4001C262.5 31.4001 262.2 31.4001 262 31.3001C261.7 31.2001 261.5 31.1001 261.2 30.9001C261 30.7001 260.8 30.6001 260.5 30.6001C260.4 30.6001 260.3 30.5001 260.2 30.5001C260.1 30.5001 260 30.5001 259.9 30.5001C259.5 30.5001 259.2 30.5001 258.8 30.5001C258.6 30.5001 258.4 30.6001 258.2 30.6001C258.2 30.7001 257.9 31.2001 257.8 31.5001C257.6 32.0001 257.4 32.3001 257.4 32.3001C257.5 32.4001 257.8 32.4001 257.9 32.4001C258.3 32.4001 258.6 32.5001 258.9 32.4001C259.1 32.4001 259.3 32.4001 259.4 32.3001H259.6L259.9 32.2001C260.3 32.1001 260.7 32.1001 261.1 32.2001C261.5 32.3001 261.8 32.4001 262.2 32.5001C262.9 32.7001 263.6 33.0001 264.3 32.9001C263.6 33.1001 262.8 32.9001 262.1 32.7001C261.4 32.5001 260.7 32.4001 260.1 32.6001L259.6 32.8001C259.4 32.9001 259.2 32.9001 259.1 33.0001C259 33.0001 258.9 33.0001 258.9 33.0001C259.1 33.1001 259.3 33.3001 259.5 33.4001C259.7 33.6001 260 33.8001 260.3 33.9001C260.6 34.0001 260.9 34.1001 261.2 34.1001C260.9 34.1001 260.6 34.1001 260.3 34.0001C260 33.9001 259.7 33.8001 259.4 33.7001C259.1 33.6001 258.9 33.4001 258.6 33.3001C258.3 33.2001 258 33.0001 257.8 32.9001C257.6 32.8001 257.3 32.8001 257.2 32.8001C256.9 33.3001 256.2 35.0001 255.9 35.7001L253.3 33.8001C253.8 33.2001 254 33.0001 254.4 32.5001C254.8 32.0001 255.2 31.5001 255.6 30.9001C255.9 30.4001 256.4 29.7001 256.4 29.7001C256.4 29.4001 256.2 28.9001 256.2 28.6001C256.2 28.3001 256.1 28.0001 256 27.7001C255.9 27.4001 255.7 27.1001 255.4 26.9001C255.2 26.7001 254.9 26.4001 254.7 26.1001C254.5 25.8001 254.3 25.5001 254.3 25.1001C254.4 25.4001 254.6 25.8001 254.8 26.0001C255 26.3001 255.3 26.5001 255.6 26.7001C255.8 26.9001 256.1 27.1001 256.3 27.3001C256.3 27.2001 256.3 27.0001 256.3 26.9001C256.3 26.4001 256.4 26.0001 256.5 25.5001C256.7 24.6001 257.1 23.8001 257.4 23.0001C257.5 22.6001 257.6 22.1001 257.7 21.7001C257.8 21.3001 257.8 20.8001 257.7 20.4001C257.7 20.8001 257.8 21.3001 257.7 21.8001C257.7 22.2001 257.6 22.7001 257.4 23.1001C257.2 24.0001 256.8 24.8001 256.7 25.7001C256.6 26.1001 256.5 26.6001 256.6 27.0001C256.6 27.4001 256.7 27.9001 256.7 28.3001C256.7 28.6001 256.8 28.8001 256.8 29.0001L257.4 28.4001C257.5 28.3001 257.5 28.3001 257.6 28.2001C257.6 28.1001 257.6 28.1001 257.6 28.0001C257.7 27.5001 257.8 27.1001 258 26.7001C258 26.6001 258.1 26.5001 258.2 26.4001C258.3 26.3001 258.3 26.2001 258.4 26.1001L258.8 25.6001C259 25.3001 259.2 24.9001 259.3 24.5001C259.6 23.7001 259.7 22.9001 259.7 22.0001C259.8 21.2001 259.8 20.3001 259.7 19.4001C259.7 20.7001 259.8 21.6001 259.8 22.5001Z" fill="#70C24C"/>
<path d="M244.1 26.2001C244 26.1 244 26.1 243.9 26L243.8 25.9001C243.6 25.7001 243.3 25.5 243 25.3C242.7 25.2 242.4 25.1 242 25C241.7 25 241.3 25.1 240.9 25.1C240.5 25.1 240.2 25.1 239.8 25C239.4 24.9 239.1 24.8001 238.8 24.7001C238.5 24.6 238.1 24.7 237.8 24.8C238.1 24.6 238.5 24.5 238.9 24.6C239.3 24.6 239.6 24.7 240 24.8C240.3 24.9 240.7 24.9001 241 24.9001C241.4 24.9001 241.7 24.8 242.1 24.8C242.3 24.8 242.4 24.8001 242.6 24.9001C242.3 24.8001 242 24.7 241.7 24.6C241.4 24.5 241.1 24.5001 240.8 24.2001C240.7 24.1 240.5 24.0001 240.4 23.9001C240.3 23.8001 240.1 23.7 240 23.6C240.2 23.6 240.3 23.7001 240.5 23.7001C240.6 23.8001 240.8 23.9001 240.9 23.9001C241.2 24.0001 241.4 24.1 241.8 24.2001C242.1 24.3001 242.4 24.4 242.7 24.5C242.9 24.6 243.1 24.8001 243.3 24.9001C243.2 24.7001 243.1 24.5 243 24.3C242.8 23.8 242.5 23.4 242.1 23C241.9 22.8 241.8 22.7 241.6 22.5C241.4 22.3 241.2 22.2 241 22.1C240.8 22 240.6 21.9001 240.3 21.9001C240.1 21.8001 239.8 21.8001 239.6 21.7001C239.5 21.7001 239.3 21.7 239.2 21.6C239.1 21.6 238.9 21.5001 238.8 21.4001C238.6 21.2001 238.4 21.1001 238.2 20.9001C238 20.7001 237.8 20.5001 237.6 20.4001C237.2 20.1001 236.7 20.0001 236.2 19.9001C236.7 19.9001 237.2 20 237.6 20.3C238 20.6 238.4 21 238.8 21.3C239 21.4 239.2 21.5 239.5 21.5C239.8 21.5 240 21.6 240.3 21.6C240.5 21.6 240.7 21.7 240.9 21.8C240.8 21.7 240.8 21.6 240.7 21.5C240.6 21.3 240.6 21.2 240.5 21C240.5 20.8 240.5 20.7 240.4 20.5C240.3 20.2 240.1 19.9001 239.9 19.7001C239.7 19.5001 239.4 19.2 239.2 19C239 18.8 238.8 18.5 238.7 18.1C238.8 18.4 239 18.7001 239.3 18.9001C239.5 19.1001 239.8 19.3 240 19.6C240.2 19.8 240.5 20.1 240.6 20.5C240.7 20.7 240.7 20.9 240.7 21C240.7 21.2 240.8 21.3001 240.9 21.4001C241.2 21.9001 241.7 22.3 242.2 22.8L242.3 22.9001C242.5 23.0001 242.7 22.9001 242.7 22.7001C242.7 22.4001 242.7 22.1 242.7 21.8C242.7 21.4 242.7 21.1001 242.6 20.7001C242.5 20.4001 242.4 20.1001 242.2 19.7001C241.9 19.0001 241.7 18.3 241.6 17.5C241.5 16.8 241.3 16 241 15.3C241.3 16 241.5 16.7001 241.7 17.4001C241.9 18.1001 242.1 18.9 242.4 19.5C242.6 19.8 242.8 20.1 242.9 20.5C243 20.8 243 21 243 21.3C243.1 21.1 243.1 20.9001 243.2 20.7001C243.3 20.5001 243.3 20.3 243.4 20C243.4 19.8 243.4 19.6 243.4 19.3C243.4 19 243.3 18.8 243.3 18.6C243.3 18.4 243.2 18.1 243.3 17.8C243.4 17.6 243.5 17.3 243.6 17.1C243.5 17.3 243.4 17.5 243.4 17.8C243.4 18 243.4 18.3 243.5 18.5C243.6 18.7 243.6 19.0001 243.7 19.2001C243.8 19.4001 243.8 19.7 243.8 20C243.8 20.3 243.7 20.5 243.7 20.8C243.6 21 243.6 21.3 243.5 21.5C243.4 21.7 243.3 21.9 243.3 22.1C243.3 22.2 243.3 22.3001 243.3 22.4001C243.3 22.8001 243.3 23.3001 243.5 23.7001C243.6 24.0001 243.7 24.3 243.9 24.6C244 24.7 244.1 24.9 244.2 25C244.3 25.1 244.3 25.1 244.4 25.2001C244.5 25.3001 244.5 25.3001 244.6 25.4001C244.8 25.6001 245 25.9 245.2 26.1C245.2 25.9 245.2 25.8 245.2 25.6C245.2 25.2 245.2 24.9 245.2 24.5C245.2 24.2 245.1 24.0001 245 23.7001C244.9 23.2001 244.7 22.7001 244.5 22.2001C244.4 21.9001 244.4 21.7001 244.3 21.4001C244.3 21.1001 244.3 20.8 244.4 20.6C244.4 20.3 244.5 20.1 244.6 19.8C244.6 19.6 244.6 19.3 244.5 19C244.6 19.2 244.6 19.5 244.6 19.8C244.6 20.1 244.5 20.3 244.5 20.6C244.4 21.1 244.5 21.6 244.7 22.1C244.8 22.3 244.9 22.6 244.9 22.8C244.9 22.6 244.9 22.3 244.9 22.1C244.9 21.7 245 21.3001 245.2 20.9001C245.4 20.6001 245.7 20.3 245.9 20C246.1 19.7 246.4 19.4 246.6 19.1C246.5 19.5 246.2 19.8 246 20.1C245.8 20.4 245.6 20.7 245.4 21.1C245.1 21.8 245.2 22.6 245.3 23.3C245.4 23.7 245.4 24.1 245.5 24.5C245.6 24.9 245.6 25.3001 245.6 25.7001C245.6 26.1 245.6 26.5 245.7 26.8C245.7 27 245.8 27.1 245.8 27.3C245.8 27.3 245.8 27.4001 245.9 27.4001C246 27.8001 246.3 28.1001 246.5 28.4001L246.6 28.3C246.7 28.1 246.9 28.0001 246.9 27.9001C247 27.8001 247.1 27.7 247.1 27.6C247.4 27.2 247.7 26.7 247.8 26.1C247.9 25.5 248 24.9 248 24.3C248 24 248 23.7001 248 23.4001C248 23.1001 247.9 22.8001 247.9 22.4001C247.9 21.7001 248.1 21.1 248.3 20.5C248.4 20.2 248.4 19.9 248.4 19.6C248.4 19.3 248.4 19.0001 248.3 18.7001C248.4 19.0001 248.5 19.3 248.5 19.6C248.5 19.9 248.5 20.3 248.5 20.6C248.5 20.9 248.7 21 248.9 20.8L249.6 20C249.8 19.7 250.1 19.4 250.2 19.1C250.1 19.5 249.9 19.8 249.7 20.1C249.5 20.4 249.3 20.7 249 21C248.8 21.3 248.6 21.6001 248.5 21.9001C248.4 22.1001 248.3 22.4 248.3 22.6C248.3 22.6 248.3 22.6001 248.3 22.7001C248.3 22.9001 248.4 23.1 248.4 23.3C248.5 23.6 248.5 23.9 248.5 24.3C248.5 24.6 248.5 24.9 248.5 25.3C248.6 25.2 248.7 25.1 248.9 25.1C249.4 24.8 249.9 24.6 250.3 24.2001C250.7 23.9001 251.1 23.5 251.4 23C251.7 22.5 251.9 21.9001 252.1 21.4001C252 22.0001 251.9 22.6001 251.6 23.2001C251.6 23.3001 251.5 23.4 251.4 23.6C251.3 23.8 251.2 23.9 251.2 24C251.1 24.1 251.1 24.1 251.1 24.2001L251 24.4001L250.9 24.6C250.8 24.7 250.8 24.7 250.7 24.8C250.7 24.8 250.7 24.8 250.6 24.8C250.8 24.8 251 24.8001 251.3 24.9001C251.5 24.9001 251.8 24.9 252 24.8C251.8 25 251.6 25.1 251.3 25.1C251 25.1 250.8 25.1 250.6 25.1C250.4 25.1 250.2 25.2001 250.1 25.2001C250.1 25.2001 250.1 25.2001 250 25.2001C249.8 25.4001 249.6 25.5001 249.4 25.7001C249 26.0001 248.7 26.4 248.6 26.8C248.6 26.8 248.6 26.8001 248.6 26.9001C248.5 27.4001 248.4 27.9001 248.1 28.4001C248 28.6001 248 28.7001 247.9 28.9001C247.8 29.1001 247.8 29.2 247.7 29.3V29.4001V29.5V29.7001C247.7 29.8001 247.7 29.9 247.7 30C247.7 30.5 247.8 30.9001 248 31.4001C248.1 31.6001 248.2 31.9 248.3 32.1C248.4 32.2 248.4 32.3001 248.5 32.4001C248.5 32.4001 248.6 32.5 248.6 32.6C248.6 32.6 248.6 32.6 248.6 32.7001L246.1 34.2001C246.1 34.1 246.1 34.1 246.1 34C246.1 34 246.1 33.9 246.1 33.8C246.1 33.7 246.1 33.6 246 33.5C246 33.3 245.9 33.1001 245.9 32.9001C245.8 32.5001 245.8 32.2 245.8 31.8C245.8 31.6 245.8 31.4001 245.8 31.2001C245.8 30.8001 245.7 30.4 245.7 30C245.7 29.9 245.6 29.9 245.6 29.8C245.4 29.6 245.2 29.5 245 29.3C244.7 29.1 244.5 29.0001 244.2 28.9001C243.9 28.8001 243.6 28.7 243.3 28.6C243 28.5 242.7 28.5 242.4 28.5C242.1 28.5 241.7 28.5 241.4 28.3C241.1 28.2 240.8 27.9 240.5 27.8C240.2 27.7 239.9 27.6 239.6 27.6C239.9 27.6 240.3 27.6 240.6 27.7001C240.9 27.8001 241.2 28 241.5 28.1C241.8 28.2 242.1 28.2001 242.4 28.2001C242.7 28.2001 243.1 28.2001 243.4 28.2001C244.1 28.3001 244.7 28.5 245.3 28.8C245 28.5 244.6 28.3001 244.2 28.2001C243.8 28.1 243.4 27.9 243 27.8C242.6 27.7 242.2 27.5001 241.8 27.2001C241.7 27.1 241.6 27.1 241.5 27C241.4 26.9 241.3 26.8001 241.3 26.7001C241.2 26.5001 241 26.4001 240.8 26.2001C240.5 25.9001 240.1 25.6 239.7 25.5C239.5 25.4 239.3 25.4001 239.1 25.4001C238.9 25.4001 238.7 25.4001 238.5 25.4001C238.9 25.3001 239.4 25.3001 239.8 25.4001C240.2 25.5001 240.7 25.7 241 26C241.2 26.2 241.3 26.3 241.5 26.5C241.6 26.6 241.7 26.7001 241.7 26.7001C241.8 26.8001 241.9 26.8001 241.9 26.9001C242.3 27.1001 242.7 27.3001 243.1 27.4001C243.5 27.5001 243.9 27.6 244.3 27.8C244.5 27.9 244.7 28 244.9 28C245 28.1 245.1 28.1 245.2 28.2001C245.3 28.3001 245.4 28.4001 245.5 28.4001C245.5 28.3001 245.5 28.2 245.4 28.1C245.4 27.9 245.3 27.7 245.2 27.6C244.9 27.4 244.6 26.8001 244.1 26.2001Z" fill="#70C24C"/>
<path d="M233.6 41.9001C233.5 41.9001 233.4 42.0001 233.3 42.0001C233.3 42.0001 233.2 42.0001 233.2 42.1001C232.9 42.2001 232.5 42.4001 232.3 42.6001C232 42.8001 231.8 43.1001 231.6 43.4001C231.5 43.7001 231.4 44.1001 231.2 44.4001C231 44.8001 230.8 45.1001 230.6 45.4001C230.3 45.7001 230.1 46.0001 229.8 46.3001C229.6 46.6001 229.4 46.9001 229.4 47.3001C229.4 46.9001 229.5 46.5001 229.7 46.2001C229.9 45.9001 230.2 45.6001 230.4 45.3001C230.6 45.0001 230.8 44.7001 231 44.4001C231.2 44.1001 231.2 43.7001 231.4 43.4001C231.5 43.3001 231.6 43.1001 231.7 43.0001C231.4 43.2001 231.2 43.4001 231 43.7001C230.8 43.9001 230.6 44.2001 230.2 44.4001C230 44.5001 229.9 44.6001 229.7 44.6001C229.5 44.7001 229.4 44.8001 229.3 44.9001C229.4 44.8001 229.5 44.6001 229.7 44.5001C229.9 44.4001 230 44.3001 230.1 44.2001C230.4 44.0001 230.6 43.8001 230.8 43.5001C231 43.2001 231.3 43.0001 231.6 42.8001C231.8 42.6001 232.1 42.5001 232.3 42.4001C232.1 42.4001 231.8 42.4001 231.5 42.4001C230.9 42.4001 230.3 42.5001 229.8 42.7001C229.6 42.8001 229.3 42.9001 229 43.0001C228.7 43.1001 228.5 43.3001 228.3 43.4001C228.1 43.6001 227.9 43.7001 227.7 43.9001C227.5 44.1001 227.4 44.3001 227.2 44.5001C227.1 44.6001 227 44.7001 226.9 44.8001C226.8 44.9001 226.7 45.0001 226.6 45.1001C226.4 45.3001 226.1 45.4001 225.8 45.5001C225.5 45.6001 225.2 45.7001 225 45.8001C224.5 46.1001 224.1 46.5001 223.8 46.9001C224 46.5001 224.4 46.0001 224.9 45.7001C225.4 45.4001 226 45.3001 226.5 44.9001C226.7 44.8001 226.9 44.6001 227 44.3001C227.2 44.1001 227.3 43.9001 227.5 43.6001C227.7 43.4001 227.8 43.3001 228 43.1001C227.9 43.1001 227.7 43.1001 227.6 43.1001C227.4 43.1001 227.2 43.1001 227 43.0001C226.8 43.0001 226.6 42.9001 226.4 42.9001C226 42.9001 225.7 42.9001 225.3 43.0001C224.9 43.1001 224.6 43.3001 224.3 43.4001C223.9 43.5001 223.6 43.6001 223.2 43.6001C223.6 43.6001 224 43.5001 224.3 43.4001C224.6 43.3001 225 43.1001 225.3 43.0001C225.6 42.9001 226 42.8001 226.5 42.8001C226.7 42.8001 226.9 42.8001 227.1 42.9001C227.3 42.9001 227.5 42.9001 227.6 42.9001C228.3 42.8001 229 42.5001 229.7 42.2001C229.7 42.2001 229.8 42.2001 229.8 42.1001C230 42.0001 230 41.7001 229.8 41.7001C229.5 41.6001 229.2 41.5001 228.9 41.3001C228.5 41.2001 228.1 41.0001 227.7 41.0001C227.3 40.9001 226.9 41.0001 226.5 41.0001C225.6 41.1001 224.8 40.9001 223.9 40.8001C223 40.7001 222.2 40.5001 221.4 40.5001C222.2 40.5001 223.1 40.5001 223.9 40.7001C224.7 40.8001 225.6 40.9001 226.4 40.8001C226.8 40.7001 227.3 40.7001 227.7 40.7001C228 40.7001 228.3 40.8001 228.6 40.9001C228.5 40.8001 228.3 40.6001 228.1 40.5001C227.9 40.4001 227.7 40.2001 227.5 40.1001C227.3 40.0001 227 39.9001 226.8 39.9001C226.6 39.8001 226.3 39.8001 226 39.8001C225.7 39.7001 225.5 39.7001 225.2 39.5001C225 39.4001 224.8 39.2001 224.7 39.0001C224.9 39.2001 225 39.3001 225.3 39.5001C225.6 39.7001 225.8 39.7001 226 39.7001C226.3 39.7001 226.5 39.7001 226.8 39.8001C227.1 39.8001 227.4 39.9001 227.6 40.0001C227.9 40.1001 228.1 40.3001 228.3 40.4001C228.5 40.5001 228.7 40.7001 228.9 40.9001C229.1 41.1001 229.2 41.2001 229.5 41.3001C229.6 41.4001 229.7 41.4001 229.8 41.5001C230.3 41.7001 230.8 41.8001 231.2 41.8001C231.6 41.8001 232 41.8001 232.4 41.7001C232.6 41.7001 232.8 41.6001 232.9 41.5001C233 41.5001 233.1 41.4001 233.2 41.4001C233.3 41.4001 233.4 41.3001 233.5 41.3001C233.8 41.2001 234.2 41.1001 234.5 41.0001C234.3 40.9001 234.1 40.9001 234 40.8001C233.6 40.7001 233.3 40.5001 232.9 40.4001C232.6 40.3001 232.3 40.3001 232 40.3001C231.4 40.2001 230.9 40.2001 230.3 40.2001C230 40.2001 229.7 40.1001 229.4 40.1001C229.1 40.0001 228.8 39.9001 228.6 39.7001C228.3 39.6001 228.1 39.4001 227.9 39.3001C227.7 39.2001 227.4 39.1001 227.1 39.1001C227.4 39.1001 227.7 39.2001 228 39.2001C228.3 39.3001 228.5 39.4001 228.8 39.5001C229.3 39.7001 229.8 39.8001 230.4 39.9001C230.7 39.9001 231 39.9001 231.3 39.9001C231 39.8001 230.8 39.8001 230.5 39.6001C230.1 39.4001 229.7 39.2001 229.4 38.9001C229.1 38.6001 229 38.2001 228.8 37.9001C228.6 37.6001 228.4 37.3001 228.2 36.9001C228.5 37.2001 228.7 37.5001 229 37.8001C229.2 38.1001 229.4 38.5001 229.7 38.7001C230.2 39.2001 231.1 39.5001 231.9 39.7001C232.3 39.8001 232.8 39.9001 233.2 40.0001C233.6 40.1001 234 40.2001 234.5 40.4001C234.9 40.5001 235.3 40.7001 235.7 40.8001C235.9 40.8001 236.1 40.9001 236.3 40.9001C236.4 40.9001 236.4 40.9001 236.4 40.9001C236.8 40.9001 237.3 40.8001 237.7 40.7001C237.7 40.7001 237.7 40.7001 237.8 40.7001L237.7 40.6001C237.6 40.4001 237.5 40.3001 237.4 40.2001C237.3 40.1001 237.3 40.0001 237.2 39.8001C236.9 39.3001 236.5 38.9001 236 38.6001C235.5 38.3001 234.9 38.0001 234.3 37.8001C234 37.7001 233.7 37.6001 233.3 37.5001C233 37.4001 232.6 37.3001 232.3 37.2001C231.6 36.9001 231 36.5001 230.5 36.2001C230.2 36.0001 229.9 35.9001 229.6 35.7001C229.3 35.6001 229 35.5001 228.6 35.5001C228.9 35.5001 229.3 35.5001 229.7 35.6001C230.1 35.7001 230.4 35.8001 230.7 36.0001C230.9 36.1001 231.2 35.9001 231.1 35.7001L230.6 34.7001C230.4 34.4001 230.3 34.0001 229.9 33.8001C230.3 34.0001 230.5 34.3001 230.7 34.6001C230.9 34.9001 231.1 35.2001 231.3 35.6001C231.5 35.9001 231.8 36.2001 232.1 36.4001C232.3 36.6001 232.5 36.7001 232.8 36.8001H232.9C233.1 36.8001 233.4 36.9001 233.6 36.9001C234 37.0001 234.3 37.1001 234.6 37.1001C234.9 37.2001 235.3 37.3001 235.6 37.4001C235.6 37.3001 235.5 37.1001 235.5 36.9001C235.4 36.3001 235.4 35.8001 235.2 35.3001C235.1 34.8001 234.8 34.3001 234.4 33.8001C234 33.3001 233.5 33.0001 233 32.6001C233.6 32.9001 234.1 33.2001 234.6 33.7001C234.7 33.8001 234.8 33.9001 234.9 34.0001C235 34.1001 235.1 34.3001 235.2 34.4001C235.2 34.5001 235.3 34.5001 235.3 34.6001L235.4 34.8001L235.5 35.0001C235.5 35.1001 235.6 35.1001 235.6 35.2001V35.3001C235.7 35.1001 235.9 34.9001 236 34.7001C236.1 34.5001 236.2 34.3001 236.2 34.0001C236.3 34.2001 236.3 34.5001 236.2 34.8001C236.1 35.0001 236 35.3001 235.9 35.5001C235.8 35.7001 235.8 35.8001 235.8 36.0001C235.8 36.0001 235.8 36.0001 235.8 36.1001C235.9 36.4001 235.9 36.6001 236 36.9001C236.1 37.4001 236.4 37.8001 236.7 38.1001C236.7 38.1001 236.7 38.1001 236.8 38.1001C237.3 38.4001 237.7 38.7001 238.1 39.1001C238.2 39.2001 238.4 39.3001 238.5 39.5001C238.6 39.6001 238.7 39.7001 238.8 39.8001L238.9 39.9001H239L239.2 40.0001C239.3 40.1001 239.4 40.1001 239.5 40.2001C240 40.4001 240.5 40.5001 241.1 40.5001C241.4 40.5001 242.2 40.0001 242.3 40.0001L243.2 43.4001C243.1 43.4001 242.1 43.1001 241.9 43.1001C241.5 43.0001 241 42.8001 240.7 42.7001C240.5 42.6001 240.3 42.6001 240.1 42.5001C239.7 42.4001 239.2 42.2001 238.8 42.1001C238.7 42.1001 238.7 42.1001 238.6 42.1001C238.4 42.2001 238.1 42.3001 237.9 42.5001C237.6 42.7001 237.3 42.9001 237.1 43.1001C236.9 43.3001 236.6 43.6001 236.4 43.8001C236.2 44.1001 236 44.3001 235.9 44.7001C235.8 45.0001 235.6 45.3001 235.2 45.6001C234.9 45.8001 234.6 46.0001 234.3 46.2001C234 46.4001 233.8 46.7001 233.7 47.0001C233.8 46.7001 234 46.4001 234.2 46.1001C234.4 45.8001 234.8 45.6001 235 45.4001C235.3 45.2001 235.4 44.9001 235.5 44.6001C235.6 44.3001 235.8 44.0001 235.9 43.7001C236.3 43.1001 236.8 42.6001 237.4 42.2001C237 42.3001 236.6 42.6001 236.3 43.0001C236 43.3001 235.7 43.7001 235.3 44.0001C235 44.3001 234.6 44.7001 234.1 44.9001C234 44.9001 233.9 45.0001 233.7 45.1001C233.6 45.1001 233.5 45.2001 233.3 45.2001C233.1 45.3001 232.8 45.3001 232.6 45.4001C232.1 45.6001 231.7 45.8001 231.4 46.1001C231.3 46.3001 231.1 46.5001 231 46.7001C230.9 46.9001 230.8 47.1001 230.7 47.3001C230.8 46.9001 231 46.4001 231.3 46.1001C231.6 45.7001 232 45.4001 232.5 45.2001C232.7 45.1001 233 45.0001 233.2 44.9001C233.3 44.9001 233.4 44.8001 233.5 44.8001C233.6 44.8001 233.7 44.7001 233.8 44.6001C234.2 44.4001 234.6 44.0001 234.9 43.7001C235.2 43.4001 235.5 43.0001 235.9 42.7001C236.1 42.5001 236.2 42.4001 236.5 42.2001C236.6 42.1001 236.7 42.0001 236.8 42.0001C236.9 42.0001 237.1 41.9001 237.2 41.8001C237.1 41.8001 237 41.7001 236.9 41.7001C236.7 41.7001 236.5 41.6001 236.3 41.6001C235.1 41.6001 234.3 41.7001 233.6 41.9001Z" fill="#70C24C"/>
<path d="M250.1 40.0002C249.6 40.5002 248.8 42.0002 249.5 43.8002C249.8 44.5002 250.7 45.3002 252 44.7002C252.4 44.5002 252.9 44.2002 253.3 43.7002C253.7 43.2002 254 42.6002 254 42.0002C254 41.7002 254 41.3002 253.8 40.8002C253.6 40.3002 253.3 39.9002 252.5 39.6002L250.1 40.0002ZM250.1 40.0002C250.4 39.7002 250.8 39.6002 251.3 39.5002L250.1 40.0002ZM250.1 40.0002L251.3 39.5002L250.1 40.0002ZM251.3 39.5002C251.7 39.4002 252.2 39.5002 252.5 39.6002L251.3 39.5002Z" fill="#8B92D2" fill-opacity="0.4" stroke="#5A5999" stroke-width="0.8619"/>
<path d="M250.2 40.1001C249.7 40.6001 249 42.0001 249.6 43.8001C249.9 44.5001 250.7 45.2001 252 44.7001C252.8 44.4001 253.9 43.4001 253.9 42.1001C253.9 41.6001 253.9 40.4001 252.5 39.8001C251.8 39.4001 250.8 39.5001 250.2 40.1001Z" fill="#5A5999"/>
<path d="M250.3 40.1001C249.8 40.6001 249.1 42.0001 249.7 43.6001C249.9 44.3001 250.8 45.0001 252 44.5001C252.7 44.2001 253.9 43.2001 253.8 42.0001C253.8 41.5001 253.8 40.3001 252.5 39.8001C251.8 39.5001 250.8 39.6001 250.3 40.1001Z" fill="#949BD9" stroke="#5C629B" stroke-width="0.4867" stroke-miterlimit="10" stroke-linecap="round" stroke-linejoin="round"/>
<path d="M251.1 41.4002C250.7 42.3002 251.2 43.0002 251.9 43.0002C252.6 43.0002 253.1 42.7002 253 41.7002C252.8 40.7002 251.4 40.5002 251.1 41.4002Z" fill="#406296" stroke="#2D3368" stroke-width="0.4867" stroke-miterlimit="10" stroke-linecap="round" stroke-linejoin="round"/>
<path opacity="0.5" d="M251.2 41.3001C250.9 42.0001 251.3 42.5001 251.8 42.5001C252.3 42.5001 252.7 42.2001 252.6 41.5001C252.5 40.8001 251.5 40.6001 251.2 41.3001Z" fill="#6277C2"/>
<path d="M246.2 41.6001C246.2 41.5001 246.2 41.5001 246.2 41.6001C246.2 41.5001 246.2 41.5001 246.2 41.6001C246.1 41.5001 246.1 41.5001 246.2 41.6001C246.2 41.5001 246.2 41.6001 246.2 41.6001Z" fill="#AA2829"/>
<path d="M244.7 41.1001C244.9 41.5001 244.9 42.0001 244.9 42.4001C244.9 42.9001 244.9 43.3001 244.9 43.7001C244.9 44.6001 244.7 45.4001 244.6 46.1001C244.6 46.3001 244.5 46.5001 244.5 46.7001C244.5 46.9001 244.4 47.0001 244.3 47.2001C244.2 47.6001 244.1 48.0001 244 48.4001C243.9 48.8001 243.8 49.2001 243.7 49.6001C243.6 50.0001 243.5 50.3001 243.3 50.6001C241.9 52.9001 240.6 55.2001 239.3 57.5001C236.6 62.2001 234 66.9001 231.5 71.7001C226.4 81.3001 221.5 91.1001 216.8 101C212.1 111 207.5 121.1 203.3 131.5C199 141.9 194.9 152.4 191.1 163.1C183.4 184.5 176.4 206.3 169.8 228.3C166.5 239.3 163.4 250.4 160.4 261.6C158.9 267.2 157.4 272.8 156.1 278.4C155.4 281.2 154.7 284 154 286.8C153.6 288.2 153.3 289.6 153 291C152.9 291.5 152.8 291.9 152.7 292.4C152.6 292.6 152.6 292.8 152.5 293C152.4 293.5 152.2 293.8 152.1 294.3C151.9 294.7 151.8 295.1 151.6 295.5C151.3 296.3 150.9 297.1 150.5 297.9C150.1 298.7 149.7 299.4 149.2 300.1C148.3 301.5 147.3 303 146.4 304.5C145.9 305.4 145.3 306.4 144.8 307.5C144.1 308.7 143.2 309.7 142.3 310.6C141.3 311.6 140.3 312.5 139.2 313.3C138.1 314.1 137.1 315 136 315.8C134.9 316.6 133.9 317.5 132.8 318.4C131.8 319.3 130.7 320.3 129.7 321.4C129.4 321.8 129.1 322.1 128.9 322.5C128.5 322.8 128 323.2 127.6 323.6C127.1 324 126.7 324.5 126.3 325.1C125.9 325.6 125.5 326.3 125.2 327C124.9 327.7 124.6 328.5 124.5 329.3C124.8 328.6 125.1 327.9 125.5 327.3C125.9 326.7 126.3 326.2 126.7 325.7C127.1 325.3 127.4 325 127.8 324.6C127.6 325 127.5 325.3 127.4 325.7C127.1 326.6 126.9 327.5 126.7 328.4C126.6 328.7 126.6 329.1 126.5 329.4C126.4 329.9 126.2 330.4 126 330.8C125.8 331.2 125.6 331.6 125.4 332C125.1 332.4 124.9 332.7 124.6 333.2C124.3 333.6 124.2 334.1 124.1 334.7C124.3 334.2 124.5 333.7 124.7 333.4C125 333.1 125.3 332.8 125.5 332.4C125.7 332.2 125.9 331.9 126 331.6C125.9 332.4 125.8 333.1 125.7 333.9C125.6 334.8 125.5 335.8 125.5 336.7C125.6 335.8 125.8 334.9 125.9 334C126.1 333.1 126.2 332.2 126.4 331.3C126.6 330.6 126.7 329.9 126.9 329.2C127 329.9 127.2 330.5 127.5 331.1C127.8 331.7 128.1 332.2 128.4 332.7C128.5 333 128.7 333.2 128.8 333.5C128.9 333.8 129.1 334 129.1 334.4C129.1 334 129 333.7 128.9 333.4C128.8 333.1 128.7 332.8 128.5 332.5C128.2 331.9 128 331.4 127.8 330.8C127.6 330.2 127.4 329.6 127.3 329C127.2 328.6 127.2 328.2 127.3 327.7C127.3 327.6 127.3 327.6 127.4 327.5C127.5 327.3 127.5 327.1 127.6 326.9L127.7 326.6L127.8 326.3C128.2 325.3 128.6 324.5 129.2 323.8C129.2 324.1 129.3 324.5 129.3 324.8C129.5 325.6 129.7 326.3 129.9 327C130.1 327.7 130.3 328.4 130.4 329.1C130.5 329.8 130.6 330.6 130.6 331.4C130.7 330.6 130.7 329.8 130.6 329C130.5 328.2 130.4 327.4 130.2 326.7C130 326 129.9 325.3 129.8 324.6C129.7 324.1 129.7 323.5 129.8 323C129.9 322.9 130 322.8 130.1 322.6C131 321.6 132.1 320.7 133.2 319.9C134.3 319.1 135.3 318.3 136.4 317.6C137.5 316.8 138.6 316 139.6 315.2C140.7 314.4 141.8 313.5 142.8 312.5C142.9 312.4 143 312.3 143.1 312.2C143 312.5 143 312.8 142.9 313.1C142.9 313.3 142.8 313.5 142.8 313.7C142.7 314.3 142.4 314.9 142 315.6C141.6 316.2 141.1 316.7 140.6 317.3C140.1 317.9 139.6 318.5 139.1 319.1C138.9 319.5 138.7 319.8 138.5 320.3C138.3 320.7 138.2 321.2 138.2 321.7C138.3 321.3 138.5 320.9 138.7 320.5C138.9 320.2 139.1 319.9 139.4 319.6C139.9 319.1 140.4 318.7 141 318.3C141.5 317.9 142 317.5 142.5 317C142.3 318.8 142.1 320.6 141.8 322.2L141.7 322.5L141.6 322.9C141.5 323.1 141.5 323.4 141.4 323.6L141.2 324.3C141.1 324.5 141.1 324.8 141 325C140.9 325.2 140.8 325.4 140.8 325.7C140.7 325.9 140.6 326.1 140.5 326.3L140.4 326.6C140.4 326.7 140.3 326.8 140.2 326.9C140.1 327.1 140 327.3 139.8 327.4C140.1 327.2 140.4 326.9 140.6 326.5C140.7 326.3 140.8 326.1 140.9 325.9C141 325.7 141.1 325.5 141.2 325.3C141.4 324.9 141.5 324.5 141.7 324.1C141.7 324.4 141.6 324.8 141.6 325.2C141.5 326.1 141.4 326.9 141.4 327.8V328.4V329.1C141.4 329.3 141.4 329.5 141.4 329.7C141.4 329.8 141.4 329.9 141.4 330V330.3C141.5 329.5 141.6 328.6 141.7 327.8L142.1 325.4C142.2 324.6 142.4 323.8 142.5 322.9C142.6 322.1 142.7 321.4 142.8 320.6V320.3L143 319.6L143.2 318.9C143.2 319 143.2 319 143.3 319.1C143.6 319.9 143.9 320.6 144.2 321.3C144.5 322 144.9 322.6 145.2 323.3C145.4 323.6 145.5 323.9 145.7 324.3C145.9 324.6 146 325 146.1 325.4C146 324.6 145.7 323.8 145.4 323C145.1 322.3 144.8 321.5 144.5 320.8C144.2 320.1 144 319.4 143.7 318.6C143.6 318.1 143.5 317.6 143.4 317C143.4 316.9 143.4 316.7 143.5 316.6L143.7 315L143.8 314.6C144.1 315.3 144.4 315.8 144.8 316.3C145.2 316.8 145.5 317.3 145.9 317.8C146.2 318.3 146.5 318.9 146.7 319.6C146.7 318.8 146.4 318.1 146.1 317.5C145.8 316.9 145.5 316.3 145.2 315.7C144.9 315.1 144.6 314.6 144.4 313.9C144.3 313.6 144.2 313.3 144.2 313.1C144.4 312.3 144.6 311.6 144.8 310.9C145.4 309.2 146.2 307.7 147.2 306.4C148.1 305 149.2 303.7 150.2 302.3C150.7 301.6 151.2 300.8 151.7 300C152.2 299.2 152.7 298.4 153.1 297.5C153.3 297.1 153.5 296.6 153.7 296.2C153.8 295.8 154 295.5 154.1 295.1C154.5 294.2 154.7 293.2 155 292.3C155.4 290.9 155.7 289.5 156.1 288.1C156.8 285.3 157.5 282.5 158.2 279.7L162.6 263C165.6 251.9 168.7 240.8 171.9 229.8C178.4 207.8 185.4 186.1 193.1 164.9C197 154.3 201 143.8 205.2 133.5C209.5 123.2 214 113.1 218.7 103.2C223.4 93.3001 228.3 83.6001 233.3 74.1001C235.9 69.4001 238.4 64.7001 241.1 60.0001C242.4 57.7001 243.8 55.4001 245.1 53.1001C245.3 52.8001 245.5 52.6001 245.7 52.4001C245.9 52.2001 246.2 52.0001 246.4 51.9001C246.7 51.7001 246.9 51.6001 247.2 51.4001C247.3 51.3001 247.4 51.2001 247.5 51.1001C247.6 51.0001 247.8 50.9001 247.9 50.8001C248.4 50.4001 249 50.1001 249.6 49.8001C249.9 49.7001 250.2 49.5001 250.6 49.4001C251 49.2001 251.3 49.2001 251.7 48.9001L244.7 41.1001Z" fill="#70C24C"/>
</svg>
