<svg width="394" height="444" viewBox="0 0 394 444" fill="none" xmlns="http://www.w3.org/2000/svg">
<path d="M381.3 50.0001C343.5 48.8001 239.4 67.6001 209 155C188 215.4 231 329.8 198.8 397.4C166.6 465 71.2001 448.1 49.1 392C27 335.9 149.1 221.1 131.6 146.6C119.3 94.1001 40.1 68.5001 2.80005 53.0001C29.1 32.0001 81.5 -6.89989 113 8.20011C157.5 29.5001 203 18.8001 233.5 4.50011C269.3 -12.1999 325.9 26.1001 381.3 50.0001Z" fill="#CABFF5"/>
<path opacity="0.75" d="M233.5 4.50006C203 18.8001 157.5 29.4001 113 8.20006C87.2001 -4.09994 47.6001 19.6001 19.6001 40.1001C47.0001 53.8001 113.8 87.5001 128.1 114.9C144.2 145.7 157.7 198 111.3 265.7C65.0001 333.3 51.2001 395.8 91.1001 419.1C119.5 435.7 171.1 432.7 184.1 397.9C197.2 363.1 196.1 249 189.8 206.3C183.5 163.6 208.7 104.2 232.7 88.6001C251.2 76.6001 303.9 41.9001 339.3 30.3001C298.6 10.3001 260.3 -7.99994 233.5 4.50006Z" fill="#EFEBFF"/>
<path d="M2.80005 53.0002C40 68.4002 119.2 94.1002 131.6 146.5C149.1 221.1 27 335.9 49.1 392C71.2 448.1 166.6 465.1 198.8 397.4C231 329.7 187.9 215.5 209 155C239.4 67.6002 349.5 46.9002 381.3 50.0002" stroke="#A095CC" stroke-width="4" stroke-miterlimit="10" stroke-linecap="round" stroke-linejoin="round"/>
</svg>
