<svg width="131" height="578" viewBox="0 0 131 578" fill="none" xmlns="http://www.w3.org/2000/svg">
<path d="M86.7542 568.669C86.7271 568.669 86.7002 568.667 86.6732 568.665C86.153 568.621 85.7668 568.162 85.8108 567.643C86.1249 563.945 88.6349 560.94 90.8498 558.289L91.223 557.842C91.9083 557.017 92.5776 556.137 92.5876 555.243C92.5936 554.72 92.9518 554.252 93.545 554.307C94.0672 554.313 94.4863 554.742 94.4803 555.265C94.4623 556.778 93.5409 558.014 92.6776 559.05L92.3024 559.501C90.1676 562.059 87.9597 564.702 87.6956 567.802C87.6546 568.295 87.2404 568.669 86.7542 568.669Z" fill="#808E35"/>
<path d="M50.9241 577.999C50.4959 577.999 50.1087 577.707 50.0047 577.273C49.8826 576.765 50.1968 576.254 50.705 576.132C55.3629 575.018 60.1818 573.864 64.5526 571.771C67.9009 570.169 72.4228 567.265 74.9499 562.531C75.357 561.765 75.7062 560.97 76.0543 560.176C76.4585 559.257 76.8746 558.309 77.3838 557.398C79.3997 553.793 82.811 551.001 86.7446 549.739C87.2448 549.586 87.7771 549.854 87.9351 550.352C88.0952 550.849 87.82 551.381 87.3228 551.542C83.8404 552.659 80.8192 555.131 79.0355 558.321C78.5703 559.151 78.1911 560.018 77.7879 560.937C77.4188 561.776 77.0507 562.614 76.6185 563.422C73.8504 568.609 68.9724 571.755 65.3689 573.48C60.8171 575.66 55.8991 576.836 51.1442 577.974C51.0711 577.991 50.9971 577.999 50.9241 577.999Z" fill="#808E35"/>
<path d="M86.7542 568.669C86.7271 568.669 86.7002 568.667 86.6732 568.665C86.153 568.621 85.7668 568.162 85.8108 567.643C86.1249 563.945 88.6349 560.94 90.8498 558.289L91.223 557.842C91.9083 557.017 92.5776 556.137 92.5876 555.243C92.5936 554.72 92.9518 554.252 93.545 554.307C94.0672 554.313 94.4863 554.742 94.4803 555.265C94.4623 556.778 93.5409 558.014 92.6776 559.05L92.3024 559.501C90.1676 562.059 87.9597 564.702 87.6956 567.802C87.6546 568.295 87.2404 568.669 86.7542 568.669Z" fill="url(#paint0_linear_4929_362128)"/>
<path d="M50.9241 577.999C50.4959 577.999 50.1087 577.707 50.0047 577.273C49.8826 576.765 50.1968 576.254 50.705 576.132C55.3629 575.018 60.1818 573.864 64.5526 571.771C67.9009 570.169 72.4228 567.265 74.9499 562.531C75.357 561.765 75.7062 560.97 76.0543 560.176C76.4585 559.257 76.8746 558.309 77.3838 557.398C79.3997 553.793 82.811 551.001 86.7446 549.739C87.2448 549.586 87.7771 549.854 87.9351 550.352C88.0952 550.849 87.82 551.381 87.3228 551.542C83.8404 552.659 80.8192 555.131 79.0355 558.321C78.5703 559.151 78.1911 560.018 77.7879 560.937C77.4188 561.776 77.0507 562.614 76.6185 563.422C73.8504 568.609 68.9724 571.755 65.3689 573.48C60.8171 575.66 55.8991 576.836 51.1442 577.974C51.0711 577.991 50.9971 577.999 50.9241 577.999Z" fill="url(#paint1_linear_4929_362128)"/>
<path d="M73.95 534.578C67.6765 534.682 61.9311 530.658 58.7348 525.462C57.6924 523.695 56.901 521.759 56.6949 519.631C58.4486 520.843 59.8992 522.081 61.3378 523.287C65.3745 526.845 70.1705 530.67 73.95 534.578Z" fill="#808E35"/>
<path d="M73.507 531.845C81.4562 524.215 86.5082 514.88 88.6121 504.069C92.7268 515.138 85.0216 529.268 73.507 531.845Z" fill="#808E35"/>
<path d="M69.0432 521.53C69.9136 515.618 71.2801 509.657 72.5076 503.981C73.1319 501.145 72.9158 498.397 72.6577 495.566C72.4977 492.28 73.5601 488.912 75.685 486.61C75.0767 489.67 75.0757 492.512 75.7649 495.186C76.1431 496.703 76.5993 498.202 76.7133 499.772C77.0855 504.574 75.3078 509.266 73.6121 513.505C72.4286 516.307 71.052 519.126 69.0432 521.53Z" fill="#808E35"/>
<path d="M64.0671 491.189C51.588 491.703 39.7962 482.099 35.9287 470.523C45.4145 477.708 53.8699 484.986 64.0671 491.189Z" fill="#808E35"/>
<path d="M66.8233 513.866C59.2803 510.339 53.3478 504.371 46.8322 499.534C42.7275 497.044 38.0807 497 33.1717 496.037C39.7934 493.255 48.0156 493.465 53.3918 498.834C58.4459 503.394 63.0738 508.119 66.8233 513.866Z" fill="#808E35"/>
<path d="M64.6614 499.365C60.9199 484.089 75.5339 471.194 88.7563 466.769C86.4744 469.651 83.9073 472.098 81.4633 474.555C74.0803 481.707 67.4065 489.161 64.6614 499.365Z" fill="#808E35"/>
<path d="M73.95 534.578C67.6765 534.682 61.9311 530.658 58.7348 525.462C57.6924 523.695 56.901 521.759 56.6949 519.631C58.4486 520.843 59.8992 522.081 61.3378 523.287C65.3745 526.845 70.1705 530.67 73.95 534.578Z" fill="url(#paint2_linear_4929_362128)"/>
<path d="M73.507 531.845C81.4562 524.215 86.5082 514.88 88.6121 504.069C92.7268 515.138 85.0216 529.268 73.507 531.845Z" fill="url(#paint3_linear_4929_362128)"/>
<path d="M69.0432 521.53C69.9136 515.618 71.2801 509.657 72.5076 503.981C73.1319 501.145 72.9158 498.397 72.6577 495.566C72.4977 492.28 73.5601 488.912 75.685 486.61C75.0767 489.67 75.0757 492.512 75.7649 495.186C76.1431 496.703 76.5993 498.202 76.7133 499.772C77.0855 504.574 75.3078 509.266 73.6121 513.505C72.4286 516.307 71.052 519.126 69.0432 521.53Z" fill="url(#paint4_linear_4929_362128)"/>
<path d="M64.0671 491.189C51.588 491.703 39.7962 482.099 35.9287 470.523C45.4145 477.708 53.8699 484.986 64.0671 491.189Z" fill="url(#paint5_linear_4929_362128)"/>
<path d="M66.8233 513.866C59.2803 510.339 53.3478 504.371 46.8322 499.534C42.7275 497.044 38.0807 497 33.1717 496.037C39.7934 493.255 48.0156 493.465 53.3918 498.834C58.4459 503.394 63.0738 508.119 66.8233 513.866Z" fill="url(#paint6_linear_4929_362128)"/>
<path d="M64.6614 499.365C60.9199 484.089 75.5339 471.194 88.7563 466.769C86.4744 469.651 83.9073 472.098 81.4633 474.555C74.0803 481.707 67.4065 489.161 64.6614 499.365Z" fill="url(#paint7_linear_4929_362128)"/>
<path d="M86.2572 317.41C85.724 333.488 67.7757 340.719 60.8239 353.215C58.52 357.177 56.9163 361.965 54.5953 366.695C52.5995 355.629 55.7258 344.903 64.3273 337.29C71.8093 330.109 80.4179 325.989 86.2572 317.41Z" fill="#808E35"/>
<path d="M86.2572 317.41C85.724 333.488 67.7757 340.719 60.8239 353.215C58.52 357.177 56.9163 361.965 54.5953 366.695C52.5995 355.629 55.7258 344.903 64.3273 337.29C71.8093 330.109 80.4179 325.989 86.2572 317.41Z" fill="url(#paint8_linear_4929_362128)"/>
<path d="M17.6361 346.182C26.9469 348.227 36.6378 350.287 44.0018 356.701C51.3128 363.528 54.295 373.623 53.8688 383.262C51.8 378.986 50.0033 374.812 47.8244 370.979C45.6835 367.136 43.1795 363.671 40.1562 360.877C33.7566 355.195 24.4228 351.963 17.6361 346.182Z" fill="#808E35"/>
<path d="M17.6361 346.182C26.9469 348.227 36.6378 350.287 44.0018 356.701C51.3128 363.528 54.295 373.623 53.8688 383.262C51.8 378.986 50.0033 374.812 47.8244 370.979C45.6835 367.136 43.1795 363.671 40.1562 360.877C33.7566 355.195 24.4228 351.963 17.6361 346.182Z" fill="url(#paint9_linear_4929_362128)"/>
<path d="M62.0852 193.106C64.6993 197.931 66.3709 202.654 69.039 207.166C70.2565 209.406 72.3054 211.825 73.0587 214.462C73.934 217.522 73.6959 220.421 72.9296 223.246C71.372 220.732 70.3386 218.197 68.985 216.292C67.3804 214.114 65.5347 212.549 64.1271 210.012C61.2139 204.869 60.3325 198.757 62.0852 193.106Z" fill="#808E35"/>
<path d="M62.0852 193.106C64.6993 197.931 66.3709 202.654 69.039 207.166C70.2565 209.406 72.3054 211.825 73.0587 214.462C73.934 217.522 73.6959 220.421 72.9296 223.246C71.372 220.732 70.3386 218.197 68.985 216.292C67.3804 214.114 65.5347 212.549 64.1271 210.012C61.2139 204.869 60.3325 198.757 62.0852 193.106Z" fill="url(#paint10_linear_4929_362128)"/>
<path d="M35.3571 201.99C39.2767 212.006 49.2498 213.458 57.1921 219.739C65.6945 226.295 68.7788 237.78 67.2532 247.907C65.6445 243.148 64.1138 238.589 61.9569 234.501C59.8401 230.385 57.1419 226.893 53.6785 224.199C46.7247 218.957 34.1496 212.883 35.3571 201.99Z" fill="#808E35"/>
<path d="M35.3571 201.99C39.2767 212.006 49.2498 213.458 57.1921 219.739C65.6945 226.295 68.7788 237.78 67.2532 247.907C65.6445 243.148 64.1138 238.589 61.9569 234.501C59.8401 230.385 57.1419 226.893 53.6785 224.199C46.7247 218.957 34.1496 212.883 35.3571 201.99Z" fill="url(#paint11_linear_4929_362128)"/>
<path d="M107.941 207.64C106.906 216.568 100.383 224.402 92.3557 228.323C84.3494 232.218 76.3242 232.122 69.5424 238.121C70.1157 235.98 71.4722 234.071 73.0448 232.438C77.5487 227.838 84.5856 225.769 89.8687 223.219C97.1677 219.663 102.917 214.269 107.941 207.64Z" fill="#808E35"/>
<path d="M107.941 207.64C106.906 216.568 100.383 224.402 92.3557 228.323C84.3494 232.218 76.3242 232.122 69.5424 238.121C70.1157 235.98 71.4722 234.071 73.0448 232.438C77.5487 227.838 84.5856 225.769 89.8687 223.219C97.1677 219.663 102.917 214.269 107.941 207.64Z" fill="url(#paint12_linear_4929_362128)"/>
<path d="M90.851 242.18C88.255 252.055 81.9503 261.167 72.7946 265.965C69.7084 267.516 66.5 268.533 63.0676 269.034C65.3936 266.445 67.9607 264.369 70.2986 262.262C77.3965 256.171 83.42 247.987 90.851 242.18Z" fill="#808E35"/>
<path d="M90.851 242.18C88.255 252.055 81.9503 261.167 72.7946 265.965C69.7084 267.516 66.5 268.533 63.0676 269.034C65.3936 266.445 67.9607 264.369 70.2986 262.262C77.3965 256.171 83.42 247.987 90.851 242.18Z" fill="url(#paint13_linear_4929_362128)"/>
<path d="M45.2505 255.608C49.4042 262.136 51.0548 269.204 53.2777 276.372C55.5507 283.356 58.5479 289.703 60.5237 297.087C46.334 288.818 41.8902 270.955 45.2505 255.608Z" fill="#808E35"/>
<path d="M45.2505 255.608C49.4042 262.136 51.0548 269.204 53.2777 276.372C55.5507 283.356 58.5479 289.703 60.5237 297.087C46.334 288.818 41.8902 270.955 45.2505 255.608Z" fill="url(#paint14_linear_4929_362128)"/>
<path d="M89.0713 304.349C78.7551 313.191 65.3636 316.107 54.8773 324.776C60.8347 311.624 76.2811 307.386 89.0713 304.349Z" fill="#808E35"/>
<path d="M89.0713 304.349C78.7551 313.191 65.3636 316.107 54.8773 324.776C60.8347 311.624 76.2811 307.386 89.0713 304.349Z" fill="url(#paint15_linear_4929_362128)"/>
<path d="M87.1032 273.206C79.306 288.349 65.0312 298.116 56.9499 313.139C57.5532 295.103 73.5937 282.827 87.1032 273.206Z" fill="#808E35"/>
<path d="M87.1032 273.206C79.306 288.349 65.0312 298.116 56.9499 313.139C57.5532 295.103 73.5937 282.827 87.1032 273.206Z" fill="url(#paint16_linear_4929_362128)"/>
<path d="M31.633 300.715C32.3973 307.581 36.1469 312.256 41.1399 316.451C44.7974 319.726 49.8584 322.21 52.8967 326.511C53.9571 328.116 54.6474 330.236 54.0412 332.008C52.6126 328.708 49.6244 327.707 46.6462 326.271C43.5599 324.909 40.3236 323.18 37.4975 320.805C31.8852 316.421 27.5173 307.38 31.633 300.715Z" fill="#808E35"/>
<path d="M31.633 300.715C32.3973 307.581 36.1469 312.256 41.1399 316.451C44.7974 319.726 49.8584 322.21 52.8967 326.511C53.9571 328.116 54.6474 330.236 54.0412 332.008C52.6126 328.708 49.6244 327.707 46.6462 326.271C43.5599 324.909 40.3236 323.18 37.4975 320.805C31.8852 316.421 27.5173 307.38 31.633 300.715Z" fill="url(#paint17_linear_4929_362128)"/>
<path d="M103.6 357.993C104.386 378.08 81.5233 385.936 68.1008 395.364C63.631 398.616 59.5604 402.351 56.5801 407.658C56.5982 394.811 68.8402 385.692 78.7482 379.996C88.7543 374.056 98.4502 369.038 103.6 357.993Z" fill="#808E35"/>
<path d="M103.6 357.993C104.386 378.08 81.5233 385.936 68.1008 395.364C63.631 398.616 59.5604 402.351 56.5801 407.658C56.5982 394.811 68.8402 385.692 78.7482 379.996C88.7543 374.056 98.4502 369.038 103.6 357.993Z" fill="url(#paint18_linear_4929_362128)"/>
<path d="M18.9818 380.893C25.5945 388.106 32.6995 391.954 41.484 395.421C50.9399 399.159 58.597 410.046 56.103 420.3C53.1538 413.755 49.4483 408.918 43.8791 405.227C40.1715 402.846 35.8617 401.413 31.8291 399.034C25.2584 395.257 19.8952 388.404 18.9818 380.893Z" fill="#808E35"/>
<path d="M18.9818 380.893C25.5945 388.106 32.6995 391.954 41.484 395.421C50.9399 399.159 58.597 410.046 56.103 420.3C53.1538 413.755 49.4483 408.918 43.8791 405.227C40.1715 402.846 35.8617 401.413 31.8291 399.034C25.2584 395.257 19.8952 388.404 18.9818 380.893Z" fill="url(#paint19_linear_4929_362128)"/>
<path d="M87.9769 421.136C82.8208 430.544 74.6955 437.648 68.1749 445.828C64.4864 450.941 62.3365 456.623 59.0371 462.261C59.0111 455.605 60.2426 448.784 63.6499 442.908C67.1194 437.142 72.3855 432.888 77.3335 428.642C80.6769 425.936 84.1163 423.326 87.9769 421.136Z" fill="#808E35"/>
<path d="M87.9769 421.136C82.8208 430.544 74.6955 437.648 68.1749 445.828C64.4864 450.941 62.3365 456.623 59.0371 462.261C59.0111 455.605 60.2426 448.784 63.6499 442.908C67.1194 437.142 72.3855 432.888 77.3335 428.642C80.6769 425.936 84.1163 423.326 87.9769 421.136Z" fill="url(#paint20_linear_4929_362128)"/>
<path d="M25.4381 409.363C34.5218 406.994 41.7728 416.389 45.3662 423.254C48.8987 429.603 53.9267 437.953 56.99 444.557C49.9611 439.924 44.5989 433.276 40.4362 426.069C36.4426 419.1 33.6834 411.996 25.4381 409.363Z" fill="#808E35"/>
<path d="M25.4381 409.363C34.5218 406.994 41.7728 416.389 45.3662 423.254C48.8987 429.603 53.9267 437.953 56.99 444.557C49.9611 439.924 44.5989 433.276 40.4362 426.069C36.4426 419.1 33.6834 411.996 25.4381 409.363Z" fill="url(#paint21_linear_4929_362128)"/>
<path d="M115.85 409.545C102.131 411.286 88.64 415.084 78.3298 424.429C74.1521 428.187 70.2154 432.68 65.1934 435.639C62.6033 437.151 59.6121 438.168 56.694 438.124C64.8523 434.514 68.5658 426.661 74.5843 420.558C84.9755 409.779 101.584 405.632 115.85 409.545Z" fill="#808E35"/>
<path d="M115.85 409.545C102.131 411.286 88.64 415.084 78.3298 424.429C74.1521 428.187 70.2154 432.68 65.1934 435.639C62.6033 437.151 59.6121 438.168 56.694 438.124C64.8523 434.514 68.5658 426.661 74.5843 420.558C84.9755 409.779 101.584 405.632 115.85 409.545Z" fill="url(#paint22_linear_4929_362128)"/>
<path d="M0.00390784 435.845C7.25386 441.259 13.9275 446.15 22.4 448.222C28.2634 449.821 33.7177 448.654 39.9972 450.254C43.3576 451.15 46.4238 452.709 49.0689 454.743C54.3841 458.826 57.8044 464.55 59.368 470.523C53.1295 464.09 46.8859 458.766 38.4325 457.264C32.9703 456.477 25.9345 457.292 20.3652 455.092C11.1765 452.013 3.77244 444.411 0.00390784 435.845Z" fill="#808E35"/>
<path d="M0.00390784 435.845C7.25386 441.259 13.9275 446.15 22.4 448.222C28.2634 449.821 33.7177 448.654 39.9972 450.254C43.3576 451.15 46.4238 452.709 49.0689 454.743C54.3841 458.826 57.8044 464.55 59.368 470.523C53.1295 464.09 46.8859 458.766 38.4325 457.264C32.9703 456.477 25.9345 457.292 20.3652 455.092C11.1765 452.013 3.77244 444.411 0.00390784 435.845Z" fill="url(#paint23_linear_4929_362128)"/>
<path d="M60.1737 475.712C57.9018 470.881 59.2944 464.867 62.0385 460.425C70.8441 446.829 87.4208 445.85 100.581 438.828C96.0183 447.823 85.572 452.118 77.4337 456.577C69.3294 460.988 62.3256 466.067 60.1737 475.712Z" fill="#808E35"/>
<path d="M60.1737 475.712C57.9018 470.881 59.2944 464.867 62.0385 460.425C70.8441 446.829 87.4208 445.85 100.581 438.828C96.0183 447.823 85.572 452.118 77.4337 456.577C69.3294 460.988 62.3256 466.067 60.1737 475.712Z" fill="url(#paint24_linear_4929_362128)"/>
<path d="M118.893 571.723C117.644 571.193 116.334 570.61 115.03 569.977C101.883 563.595 93.721 554.379 88.4099 548.382C81.291 540.344 77.2784 532.949 75.3976 530.277C67.1013 518.486 65.2975 502.4 61.2449 470.286C60.0104 460.501 57.4423 440.145 58.2986 421.221L58.3776 419.573C58.5387 416.34 58.7218 412.678 58.4687 407.564C58.1426 400.947 57.3523 396.847 56.588 392.884C55.9347 389.493 55.3175 386.292 55.0824 381.749C54.8513 377.272 55.1844 375.589 55.6446 373.26C56.1088 370.916 56.685 367.999 56.8281 361.447C56.9661 355.04 56.566 350.736 56.2118 346.937C55.7937 342.446 55.4314 338.567 55.9286 332.151C56.2958 327.412 56.9051 324.37 57.8285 319.765L58.4117 316.834C60.8327 304.508 62.0202 295.624 63.3968 285.337C64.6883 275.681 66.1508 264.738 68.97 248.014C69.4322 245.268 70.3956 239.552 72.5005 232.075C74.9745 223.289 78.6249 214.677 78.6939 214.513C109.77 141.214 149.75 46.913 119.957 15.3912C107.088 1.77561 83.2188 2.00871 82.9947 2.68599C82.7746 3.35126 105.553 4.00252 117.884 17.9332C144.912 48.4686 110.389 129.975 75.2135 213.024C75.1374 213.204 71.3929 222.047 68.8569 231.049C66.696 238.721 65.7096 244.573 65.2354 247.385C62.4073 264.17 60.9387 275.149 59.6432 284.835C58.2186 295.482 57.0942 303.891 54.6952 316.105L54.1159 319.021C53.1655 323.761 52.5383 326.892 52.1532 331.858C51.632 338.595 52.0251 342.817 52.4413 347.287C52.8014 351.165 53.1755 355.174 53.0425 361.364C52.9064 367.585 52.3883 370.209 51.9301 372.523C51.4559 374.922 51.0457 376.996 51.3018 381.943C51.5499 386.748 52.1911 390.076 52.8704 393.598C53.6097 397.433 54.374 401.398 54.6882 407.748C54.9313 412.674 54.7613 416.084 54.5962 419.381L54.5161 421.046C53.6457 440.293 56.2409 460.867 57.4884 470.755C61.2759 500.77 62.8744 515.813 72.0822 532.099C83.4728 552.248 101.339 567.579 116.945 572.462C117.294 572.571 117.95 572.771 118.752 573.01C118.773 573.017 118.805 573.026 118.845 573.028C119.008 573.039 119.132 572.935 119.176 572.899C119.437 572.682 119.484 572.155 119.285 571.958C119.236 571.908 119.115 571.825 118.986 571.76C118.948 571.746 118.916 571.732 118.893 571.723Z" fill="#808E35"/>
<path d="M118.893 571.723C117.644 571.193 116.334 570.61 115.03 569.977C101.883 563.595 93.721 554.379 88.4099 548.382C81.291 540.344 77.2784 532.949 75.3976 530.277C67.1013 518.486 65.2975 502.4 61.2449 470.286C60.0104 460.501 57.4423 440.145 58.2986 421.221L58.3776 419.573C58.5387 416.34 58.7218 412.678 58.4687 407.564C58.1426 400.947 57.3523 396.847 56.588 392.884C55.9347 389.493 55.3175 386.292 55.0824 381.749C54.8513 377.272 55.1844 375.589 55.6446 373.26C56.1088 370.916 56.685 367.999 56.8281 361.447C56.9661 355.04 56.566 350.736 56.2118 346.937C55.7937 342.446 55.4314 338.567 55.9286 332.151C56.2958 327.412 56.9051 324.37 57.8285 319.765L58.4117 316.834C60.8327 304.508 62.0202 295.624 63.3968 285.337C64.6883 275.681 66.1508 264.738 68.97 248.014C69.4322 245.268 70.3956 239.552 72.5005 232.075C74.9745 223.289 78.6249 214.677 78.6939 214.513C109.77 141.214 149.75 46.913 119.957 15.3912C107.088 1.77561 83.2188 2.00871 82.9947 2.68599C82.7746 3.35126 105.553 4.00252 117.884 17.9332C144.912 48.4686 110.389 129.975 75.2135 213.024C75.1374 213.204 71.3929 222.047 68.8569 231.049C66.696 238.721 65.7096 244.573 65.2354 247.385C62.4073 264.17 60.9387 275.149 59.6432 284.835C58.2186 295.482 57.0942 303.891 54.6952 316.105L54.1159 319.021C53.1655 323.761 52.5383 326.892 52.1532 331.858C51.632 338.595 52.0251 342.817 52.4413 347.287C52.8014 351.165 53.1755 355.174 53.0425 361.364C52.9064 367.585 52.3883 370.209 51.9301 372.523C51.4559 374.922 51.0457 376.996 51.3018 381.943C51.5499 386.748 52.1911 390.076 52.8704 393.598C53.6097 397.433 54.374 401.398 54.6882 407.748C54.9313 412.674 54.7613 416.084 54.5962 419.381L54.5161 421.046C53.6457 440.293 56.2409 460.867 57.4884 470.755C61.2759 500.77 62.8744 515.813 72.0822 532.099C83.4728 552.248 101.339 567.579 116.945 572.462C117.294 572.571 117.95 572.771 118.752 573.01C118.773 573.017 118.805 573.026 118.845 573.028C119.008 573.039 119.132 572.935 119.176 572.899C119.437 572.682 119.484 572.155 119.285 571.958C119.236 571.908 119.115 571.825 118.986 571.76C118.948 571.746 118.916 571.732 118.893 571.723Z" fill="url(#paint25_linear_4929_362128)"/>
<path d="M118.893 571.723C117.644 571.193 116.334 570.61 115.03 569.977C101.883 563.595 93.721 554.379 88.4099 548.382C81.291 540.344 77.2784 532.949 75.3976 530.277C67.1013 518.486 65.2975 502.4 61.2449 470.286C60.0104 460.501 57.4423 440.145 58.2986 421.221L58.3776 419.573C58.5387 416.34 58.7218 412.678 58.4687 407.564C58.1426 400.947 57.3523 396.847 56.588 392.884C55.9347 389.493 55.3175 386.292 55.0824 381.749C54.8513 377.272 55.1844 375.589 55.6446 373.26C56.1088 370.916 56.685 367.999 56.8281 361.447C56.9661 355.04 56.566 350.736 56.2118 346.937C55.7937 342.446 55.4314 338.567 55.9286 332.151C56.2958 327.412 56.9051 324.37 57.8285 319.765L58.4117 316.834C60.8327 304.508 62.0202 295.624 63.3968 285.337C64.6883 275.681 66.1508 264.738 68.97 248.014C69.4322 245.268 70.3956 239.552 72.5005 232.075C74.9745 223.289 78.6249 214.677 78.6939 214.513C109.77 141.214 149.75 46.913 119.957 15.3912C107.088 1.77561 83.2188 2.00871 82.9947 2.68599C82.7746 3.35126 105.553 4.00252 117.884 17.9332C144.912 48.4686 110.389 129.975 75.2135 213.024C75.1374 213.204 71.3929 222.047 68.8569 231.049C66.696 238.721 65.7096 244.573 65.2354 247.385C62.4073 264.17 60.9387 275.149 59.6432 284.835C58.2186 295.482 57.0942 303.891 54.6952 316.105L54.1159 319.021C53.1655 323.761 52.5383 326.892 52.1532 331.858C51.632 338.595 52.0251 342.817 52.4413 347.287C52.8014 351.165 53.1755 355.174 53.0425 361.364C52.9064 367.585 52.3883 370.209 51.9301 372.523C51.4559 374.922 51.0457 376.996 51.3018 381.943C51.5499 386.748 52.1911 390.076 52.8704 393.598C53.6097 397.433 54.374 401.398 54.6882 407.748C54.9313 412.674 54.7613 416.084 54.5962 419.381L54.5161 421.046C53.6457 440.293 56.2409 460.867 57.4884 470.755C61.2759 500.77 62.8744 515.813 72.0822 532.099C83.4728 552.248 101.339 567.579 116.945 572.462C117.294 572.571 117.95 572.771 118.752 573.01C118.773 573.017 118.805 573.026 118.845 573.028C119.008 573.039 119.132 572.935 119.176 572.899C119.437 572.682 119.484 572.155 119.285 571.958C119.236 571.908 119.115 571.825 118.986 571.76C118.948 571.746 118.916 571.732 118.893 571.723Z" fill="url(#paint26_linear_4929_362128)"/>
<path d="M118.893 571.723C117.644 571.193 116.334 570.61 115.03 569.977C101.883 563.595 93.721 554.379 88.4099 548.382C81.291 540.344 77.2784 532.949 75.3976 530.277C67.1013 518.486 65.2975 502.4 61.2449 470.286C60.0104 460.501 57.4423 440.145 58.2986 421.221L58.3776 419.573C58.5387 416.34 58.7218 412.678 58.4687 407.564C58.1426 400.947 57.3523 396.847 56.588 392.884C55.9347 389.493 55.3175 386.292 55.0824 381.749C54.8513 377.272 55.1844 375.589 55.6446 373.26C56.1088 370.916 56.685 367.999 56.8281 361.447C56.9661 355.04 56.566 350.736 56.2118 346.937C55.7937 342.446 55.4314 338.567 55.9286 332.151C56.2958 327.412 56.9051 324.37 57.8285 319.765L58.4117 316.834C60.8327 304.508 62.0202 295.624 63.3968 285.337C64.6883 275.681 66.1508 264.738 68.97 248.014C69.4322 245.268 70.3956 239.552 72.5005 232.075C74.9745 223.289 78.6249 214.677 78.6939 214.513C109.77 141.214 149.75 46.913 119.957 15.3912C107.088 1.77561 83.2188 2.00871 82.9947 2.68599C82.7746 3.35126 105.553 4.00252 117.884 17.9332C144.912 48.4686 110.389 129.975 75.2135 213.024C75.1374 213.204 71.3929 222.047 68.8569 231.049C66.696 238.721 65.7096 244.573 65.2354 247.385C62.4073 264.17 60.9387 275.149 59.6432 284.835C58.2186 295.482 57.0942 303.891 54.6952 316.105L54.1159 319.021C53.1655 323.761 52.5383 326.892 52.1532 331.858C51.632 338.595 52.0251 342.817 52.4413 347.287C52.8014 351.165 53.1755 355.174 53.0425 361.364C52.9064 367.585 52.3883 370.209 51.9301 372.523C51.4559 374.922 51.0457 376.996 51.3018 381.943C51.5499 386.748 52.1911 390.076 52.8704 393.598C53.6097 397.433 54.374 401.398 54.6882 407.748C54.9313 412.674 54.7613 416.084 54.5962 419.381L54.5161 421.046C53.6457 440.293 56.2409 460.867 57.4884 470.755C61.2759 500.77 62.8744 515.813 72.0822 532.099C83.4728 552.248 101.339 567.579 116.945 572.462C117.294 572.571 117.95 572.771 118.752 573.01C118.773 573.017 118.805 573.026 118.845 573.028C119.008 573.039 119.132 572.935 119.176 572.899C119.437 572.682 119.484 572.155 119.285 571.958C119.236 571.908 119.115 571.825 118.986 571.76C118.948 571.746 118.916 571.732 118.893 571.723Z" fill="url(#paint27_linear_4929_362128)"/>
<path d="M57.5613 455.414C50.5565 450.331 43.6436 447.233 35.7894 443.951C33.3804 442.779 30.3512 441.832 28.2193 440.139C23.0392 435.862 22.629 427.952 24.1456 422.242C25.7933 427.29 26.8408 432.008 30.4062 435.264C32.6481 437.036 35.4883 437.435 38.0673 438.751C45.8545 442.052 54.0489 447.335 57.5613 455.414Z" fill="#808E35"/>
<path d="M24.638 366.026C40.4464 369.495 50.8816 384.858 55.3034 399.565C44.0318 389.045 36.2077 376.291 24.638 366.026Z" fill="#808E35"/>
<path d="M57.5613 455.414C50.5565 450.331 43.6436 447.233 35.7894 443.951C33.3804 442.779 30.3512 441.832 28.2193 440.139C23.0392 435.862 22.629 427.952 24.1456 422.242C25.7933 427.29 26.8408 432.008 30.4062 435.264C32.6481 437.036 35.4883 437.435 38.0673 438.751C45.8545 442.052 54.0489 447.335 57.5613 455.414Z" fill="url(#paint28_linear_4929_362128)"/>
<path d="M24.638 366.026C40.4464 369.495 50.8816 384.858 55.3034 399.565C44.0318 389.045 36.2077 376.291 24.638 366.026Z" fill="url(#paint29_linear_4929_362128)"/>
<path d="M58.7649 459.927C51.676 455.692 48.0405 447.205 48.0685 439.174C48.1266 436.475 48.5857 433.761 49.8312 431.238C50.9517 433.81 51.7159 436.201 52.4903 438.548C54.5371 445.328 57.2483 452.933 58.7649 459.927Z" fill="#808E35"/>
<path d="M57.8673 453.305C68.8167 442.795 75.7766 429.937 78.6748 415.044C84.3431 430.291 73.7287 449.756 57.8673 453.305Z" fill="#808E35"/>
<path d="M56.4087 421.136C62.9704 415.697 70.1034 410.682 76.8191 405.833C80.1855 403.421 82.5773 400.301 85.0033 397.053C87.9685 393.417 92.3074 390.858 96.7552 390.445C93.1917 393.11 90.4805 396.122 88.6618 399.614C87.6154 401.583 86.671 403.608 85.2945 405.381C81.1098 410.828 74.7502 414.106 68.9099 416.984C64.9783 418.827 60.8305 420.503 56.4087 421.136Z" fill="#808E35"/>
<path d="M56.6949 415.353C43.0744 411.253 33.9677 396.521 34.1228 382.622C41.6498 393.892 48.0344 404.877 56.6949 415.353Z" fill="#808E35"/>
<path d="M56.7363 432.501C47.3425 428.109 39.9545 420.676 31.8392 414.652C26.7272 411.55 20.9408 411.495 14.8263 410.296C23.0727 406.831 33.3128 407.092 40.0096 413.779C46.3031 419.459 52.0664 425.343 56.7363 432.501Z" fill="#808E35"/>
<path d="M54.443 392.303C59.9413 385.896 66.8932 381.283 72.7446 375.491C75.9999 371.85 76.3259 367.391 77.8066 362.421C79.9004 367.371 80.4877 374.001 77.0243 378.761C71.3699 385.783 63.1336 390.265 54.443 392.303Z" fill="#808E35"/>
<path d="M53.2897 385.87C51.1388 368.088 69.4182 355.497 84.9706 352.294C81.9973 355.242 78.7621 357.66 75.6638 360.105C66.342 367.186 57.7825 374.706 53.2897 385.87Z" fill="#808E35"/>
<path d="M55.1506 363.268C46.0399 347.472 41.2069 340.306 22.8644 335.197C18.0274 333.761 12.9365 332.701 7.86941 331.056C31.9932 327.674 52.6176 337.02 55.1506 363.268Z" fill="#808E35"/>
<path d="M54.2672 346.182C57.6856 329.771 70.751 311.63 89.0704 312.1C73.6501 319.483 65.0056 333.6 54.2672 346.182Z" fill="#808E35"/>
<path d="M56.4159 316.128C53.7938 312.471 51.696 308.655 49.0839 305.594C43.6387 299.425 35.2402 294.84 30.8724 287.306C28.4414 283.49 26.5788 279.306 25.8035 274.867C28.7287 278.281 31.4477 281.536 34.3819 284.547C44.6901 295.277 55.2944 299.065 56.4159 316.128Z" fill="#808E35"/>
<path d="M61.0356 289.594C63.3245 277.872 79.5661 274.364 89.6452 273.408C93.4368 273.174 97.2673 273.323 101.045 274.229C97.4434 275.682 93.921 276.734 90.4296 277.804L80.0194 280.847C73.0585 282.997 66.3167 284.046 61.0356 289.594Z" fill="#808E35"/>
<path d="M63.0674 278.348C50.7624 270.851 38.9747 263.845 24.5168 261.584C38.9757 255.475 56.5157 264.883 63.0674 278.348Z" fill="#808E35"/>
<path d="M63.5819 269.014C62.1083 264.74 61.1959 260.462 59.6583 256.677C56.559 249.152 50.6736 242.635 45.7216 236.18C43.0445 232.908 40.1743 229.849 36.848 226.799C45.7676 228.806 52.7355 235.822 58.0427 242.869C63.898 249.917 65.7068 260.181 63.5819 269.014Z" fill="#808E35"/>
<path d="M65.6327 250.587C73.817 235.194 92.8457 228.502 109.486 228.966C94.6824 236.37 79.3392 241.058 65.6327 250.587Z" fill="#808E35"/>
<path d="M78.2418 208.177C69.9984 201.987 67.3174 189.174 72.4524 180.221C75.3446 189.624 77.1323 198.403 78.2418 208.177Z" fill="#808E35"/>
<path d="M62.6827 280.492C67.0695 273.814 73.8083 268.574 80.9112 265.292C87.876 261.814 94.3136 259.123 99.3987 252.907C97.63 265.761 83.0371 270.197 73.2051 275.303C69.8407 277.015 66.4483 278.96 62.6827 280.492Z" fill="#808E35"/>
<path d="M75.2948 220.963C84.8517 210.427 104.224 217.699 110.671 203.363C111.723 207.174 109.647 211.358 106.846 213.992C97.918 222.04 85.9561 218.525 75.2948 220.963Z" fill="#808E35"/>
<path d="M59.4534 466.703C51.4121 464.299 43.5109 467.274 35.4076 466.442C27.6484 466.055 19.7531 465.534 15.0682 472.848C14.8141 468.289 18.7007 464.315 22.6963 462.535C28.9579 459.781 35.3875 460.852 41.647 461.118C47.6935 461.422 55.1886 461.693 59.4534 466.703Z" fill="#808E35"/>
<path d="M58.7649 459.927C51.676 455.692 48.0405 447.205 48.0685 439.174C48.1266 436.475 48.5857 433.761 49.8312 431.238C50.9517 433.81 51.7159 436.201 52.4903 438.548C54.5371 445.328 57.2483 452.933 58.7649 459.927Z" fill="url(#paint30_linear_4929_362128)"/>
<path d="M57.8673 453.305C68.8167 442.795 75.7766 429.937 78.6748 415.044C84.3431 430.291 73.7287 449.756 57.8673 453.305Z" fill="url(#paint31_linear_4929_362128)"/>
<path d="M56.4087 421.136C62.9704 415.697 70.1034 410.682 76.8191 405.833C80.1855 403.421 82.5773 400.301 85.0033 397.053C87.9685 393.417 92.3074 390.858 96.7552 390.445C93.1917 393.11 90.4805 396.122 88.6618 399.614C87.6154 401.583 86.671 403.608 85.2945 405.381C81.1098 410.828 74.7502 414.106 68.9099 416.984C64.9783 418.827 60.8305 420.503 56.4087 421.136Z" fill="url(#paint32_linear_4929_362128)"/>
<path d="M56.6949 415.353C43.0744 411.253 33.9677 396.521 34.1228 382.622C41.6498 393.892 48.0344 404.877 56.6949 415.353Z" fill="url(#paint33_linear_4929_362128)"/>
<path d="M56.7363 432.501C47.3425 428.109 39.9545 420.676 31.8392 414.652C26.7272 411.55 20.9408 411.495 14.8263 410.296C23.0727 406.831 33.3128 407.092 40.0096 413.779C46.3031 419.459 52.0664 425.343 56.7363 432.501Z" fill="url(#paint34_linear_4929_362128)"/>
<path d="M54.443 392.303C59.9413 385.896 66.8932 381.283 72.7446 375.491C75.9999 371.85 76.3259 367.391 77.8066 362.421C79.9004 367.371 80.4877 374.001 77.0243 378.761C71.3699 385.783 63.1336 390.265 54.443 392.303Z" fill="url(#paint35_linear_4929_362128)"/>
<path d="M53.2897 385.87C51.1388 368.088 69.4182 355.497 84.9706 352.294C81.9973 355.242 78.7621 357.66 75.6638 360.105C66.342 367.186 57.7825 374.706 53.2897 385.87Z" fill="url(#paint36_linear_4929_362128)"/>
<path d="M55.1506 363.268C46.0399 347.472 41.2069 340.306 22.8644 335.197C18.0274 333.761 12.9365 332.701 7.86941 331.056C31.9932 327.674 52.6176 337.02 55.1506 363.268Z" fill="url(#paint37_linear_4929_362128)"/>
<path d="M54.2672 346.182C57.6856 329.771 70.751 311.63 89.0704 312.1C73.6501 319.483 65.0056 333.6 54.2672 346.182Z" fill="url(#paint38_linear_4929_362128)"/>
<path d="M56.4159 316.128C53.7938 312.471 51.696 308.655 49.0839 305.594C43.6387 299.425 35.2402 294.84 30.8724 287.306C28.4414 283.49 26.5788 279.306 25.8035 274.867C28.7287 278.281 31.4477 281.536 34.3819 284.547C44.6901 295.277 55.2944 299.065 56.4159 316.128Z" fill="url(#paint39_linear_4929_362128)"/>
<path d="M61.0356 289.594C63.3245 277.872 79.5661 274.364 89.6452 273.408C93.4368 273.174 97.2673 273.323 101.045 274.229C97.4434 275.682 93.921 276.734 90.4296 277.804L80.0194 280.847C73.0585 282.997 66.3167 284.046 61.0356 289.594Z" fill="url(#paint40_linear_4929_362128)"/>
<path d="M63.0674 278.348C50.7624 270.851 38.9747 263.845 24.5168 261.584C38.9757 255.475 56.5157 264.883 63.0674 278.348Z" fill="url(#paint41_linear_4929_362128)"/>
<path d="M63.5819 269.014C62.1083 264.74 61.1959 260.462 59.6583 256.677C56.559 249.152 50.6736 242.635 45.7216 236.18C43.0445 232.908 40.1743 229.849 36.848 226.799C45.7676 228.806 52.7355 235.822 58.0427 242.869C63.898 249.917 65.7068 260.181 63.5819 269.014Z" fill="url(#paint42_linear_4929_362128)"/>
<path d="M65.6327 250.587C73.817 235.194 92.8457 228.502 109.486 228.966C94.6824 236.37 79.3392 241.058 65.6327 250.587Z" fill="url(#paint43_linear_4929_362128)"/>
<path d="M69.021 239.331C69.5632 222.592 58.4997 210.033 46.1496 204.771C53.8268 216.534 63.0466 226.019 69.021 239.331Z" fill="#808E35"/>
<path d="M69.021 239.331C69.5632 222.592 58.4997 210.033 46.1496 204.771C53.8268 216.534 63.0466 226.019 69.021 239.331Z" fill="url(#paint44_linear_4929_362128)"/>
<path d="M78.2418 208.177C69.9984 201.987 67.3174 189.174 72.4524 180.221C75.3446 189.624 77.1323 198.403 78.2418 208.177Z" fill="url(#paint45_linear_4929_362128)"/>
<path d="M78.2418 208.177C69.9984 201.987 67.3174 189.174 72.4524 180.221C75.3446 189.624 77.1323 198.403 78.2418 208.177Z" fill="url(#paint46_linear_4929_362128)"/>
<path d="M62.6827 280.492C67.0695 273.814 73.8083 268.574 80.9112 265.292C87.876 261.814 94.3136 259.123 99.3987 252.907C97.63 265.761 83.0371 270.197 73.2051 275.303C69.8407 277.015 66.4483 278.96 62.6827 280.492Z" fill="url(#paint47_linear_4929_362128)"/>
<path d="M75.2948 220.963C84.8517 210.427 104.224 217.699 110.671 203.363C111.723 207.174 109.647 211.358 106.846 213.992C97.918 222.04 85.9561 218.525 75.2948 220.963Z" fill="url(#paint48_linear_4929_362128)"/>
<path d="M75.2948 220.963C84.8517 210.427 104.224 217.699 110.671 203.363C111.723 207.174 109.647 211.358 106.846 213.992C97.918 222.04 85.9561 218.525 75.2948 220.963Z" fill="url(#paint49_linear_4929_362128)"/>
<path d="M59.4534 466.703C51.4121 464.299 43.5109 467.274 35.4076 466.442C27.6484 466.055 19.7531 465.534 15.0682 472.848C14.8141 468.289 18.7007 464.315 22.6963 462.535C28.9579 459.781 35.3875 460.852 41.647 461.118C47.6935 461.422 55.1886 461.693 59.4534 466.703Z" fill="url(#paint50_linear_4929_362128)"/>
<path d="M73.7712 223.242C73.9033 219.157 77.0475 215.621 79.5935 212.785C82.1456 210.015 84.1483 207.299 85.9001 204.149C89.6216 197.648 91.7044 190.504 94.8357 183.482C96.7765 195.338 92.7689 209.09 82.5537 216.108C79.3454 218.428 76.1912 220.01 73.7712 223.242Z" fill="#808E35"/>
<path d="M73.7712 223.242C73.9033 219.157 77.0475 215.621 79.5935 212.785C82.1456 210.015 84.1483 207.299 85.9001 204.149C89.6216 197.648 91.7044 190.504 94.8357 183.482C96.7765 195.338 92.7689 209.09 82.5537 216.108C79.3454 218.428 76.1912 220.01 73.7712 223.242Z" fill="url(#paint51_linear_4929_362128)"/>
<path d="M79.5304 569.793C79.2523 569.793 78.9762 569.671 78.7891 569.436C78.464 569.027 78.531 568.432 78.9402 568.106C79.9016 567.339 80.8088 566.616 81.4451 565.697C82.2024 564.605 82.5566 563.259 82.9337 561.833C83.3509 560.253 83.7821 558.617 84.8095 557.222C85.4168 556.397 86.168 555.745 86.8943 555.116C87.6466 554.463 88.3579 553.847 88.8441 553.097C89.1302 552.657 89.7155 552.533 90.1537 552.82C90.5919 553.105 90.7169 553.69 90.4318 554.128C89.7975 555.103 88.9512 555.836 88.1329 556.546C87.4546 557.133 86.8144 557.689 86.3332 558.341C85.5189 559.448 85.1517 560.84 84.7625 562.316C84.3613 563.837 83.9472 565.408 83.0008 566.774C82.2055 567.923 81.1451 568.767 80.1186 569.585C79.9456 569.727 79.7365 569.793 79.5304 569.793Z" fill="#808E35"/>
<path d="M92.5329 566.003C92.1807 566.003 91.8437 565.807 91.6796 565.469C91.4525 565 91.6485 564.431 92.1197 564.204C93.0371 563.761 94.0875 563.197 94.9128 562.388C95.7052 561.611 96.1733 560.693 96.2324 559.806C96.2664 559.282 96.7346 558.876 97.2398 558.924C97.7621 558.959 98.1562 559.41 98.1212 559.932C98.0311 561.285 97.3618 562.636 96.2374 563.74C95.2099 564.748 93.9375 565.43 92.9431 565.91C92.811 565.973 92.6709 566.003 92.5329 566.003Z" fill="#808E35"/>
<path d="M79.5304 569.793C79.2523 569.793 78.9762 569.671 78.7891 569.436C78.464 569.027 78.531 568.432 78.9402 568.106C79.9016 567.339 80.8088 566.616 81.4451 565.697C82.2024 564.605 82.5566 563.259 82.9337 561.833C83.3509 560.253 83.7821 558.617 84.8095 557.222C85.4168 556.397 86.168 555.745 86.8943 555.116C87.6466 554.463 88.3579 553.847 88.8441 553.097C89.1302 552.657 89.7155 552.533 90.1537 552.82C90.5919 553.105 90.7169 553.69 90.4318 554.128C89.7975 555.103 88.9512 555.836 88.1329 556.546C87.4546 557.133 86.8144 557.689 86.3332 558.341C85.5189 559.448 85.1517 560.84 84.7625 562.316C84.3613 563.837 83.9472 565.408 83.0008 566.774C82.2055 567.923 81.1451 568.767 80.1186 569.585C79.9456 569.727 79.7365 569.793 79.5304 569.793Z" fill="url(#paint52_linear_4929_362128)"/>
<path d="M92.5329 566.003C92.1807 566.003 91.8437 565.807 91.6796 565.469C91.4525 565 91.6485 564.431 92.1197 564.204C93.0371 563.761 94.0875 563.197 94.9128 562.388C95.7052 561.611 96.1733 560.693 96.2324 559.806C96.2664 559.282 96.7346 558.876 97.2398 558.924C97.7621 558.959 98.1562 559.41 98.1212 559.932C98.0311 561.285 97.3618 562.636 96.2374 563.74C95.2099 564.748 93.9375 565.43 92.9431 565.91C92.811 565.973 92.6709 566.003 92.5329 566.003Z" fill="url(#paint53_linear_4929_362128)"/>
<path d="M88.1175 2.14879C88.3496 1.87768 88.7928 2.26383 90.3794 2.37088C92.7074 2.52694 93.9219 1.84067 94.37 2.45992C94.6612 2.86108 94.1979 3.21622 94.4701 4.24464C94.6952 5.09298 95.1434 5.3511 94.9903 5.69724C94.7782 6.17944 93.8339 5.8453 93.3056 6.40653C92.6634 7.08981 93.3686 8.3183 93.0575 8.51238C92.3342 8.96156 87.2822 3.12518 88.1175 2.14879Z" fill="#EBBB50"/>
<path d="M88.1175 2.14879C88.3496 1.87768 88.7928 2.26383 90.3794 2.37088C92.7074 2.52694 93.9219 1.84067 94.37 2.45992C94.6612 2.86108 94.1979 3.21622 94.4701 4.24464C94.6952 5.09298 95.1434 5.3511 94.9903 5.69724C94.7782 6.17944 93.8339 5.8453 93.3056 6.40653C92.6634 7.08981 93.3686 8.3183 93.0575 8.51238C92.3342 8.96156 87.2822 3.12518 88.1175 2.14879Z" fill="url(#paint54_linear_4929_362128)"/>
<path d="M62.8041 35.5133C63.2943 35.6934 64.0386 35.9215 64.961 36.0255C69.2517 36.5087 72.7582 33.7756 74.5469 32.402C88.6577 21.5646 91.997 21.4966 93.3265 16.2075C93.5656 15.2561 94.3689 11.8727 93.0144 8.04013C92.8633 7.61196 91.1897 3.0541 87.3611 0.954243C80.3142 -2.91133 72.8371 5.87525 59.1756 11.0994C57.685 11.6696 53.6294 13.1512 51.7276 16.9397C51.4165 17.561 51.2313 18.1052 51.1253 18.4654C52.887 19.2717 58.3453 22.0468 61.1634 28.3144C62.4239 31.1165 62.7481 33.7106 62.8041 35.5133Z" fill="#EBBB50"/>
<path d="M62.8041 35.5133C63.2943 35.6934 64.0386 35.9215 64.961 36.0255C69.2517 36.5087 72.7582 33.7756 74.5469 32.402C88.6577 21.5646 91.997 21.4966 93.3265 16.2075C93.5656 15.2561 94.3689 11.8727 93.0144 8.04013C92.8633 7.61196 91.1897 3.0541 87.3611 0.954243C80.3142 -2.91133 72.8371 5.87525 59.1756 11.0994C57.685 11.6696 53.6294 13.1512 51.7276 16.9397C51.4165 17.561 51.2313 18.1052 51.1253 18.4654C52.887 19.2717 58.3453 22.0468 61.1634 28.3144C62.4239 31.1165 62.7481 33.7106 62.8041 35.5133Z" fill="url(#paint55_linear_4929_362128)"/>
<path d="M62.8041 35.5133C63.2943 35.6934 64.0386 35.9215 64.961 36.0255C69.2517 36.5087 72.7582 33.7756 74.5469 32.402C88.6577 21.5646 91.997 21.4966 93.3265 16.2075C93.5656 15.2561 94.3689 11.8727 93.0144 8.04013C92.8633 7.61196 91.1897 3.0541 87.3611 0.954243C80.3142 -2.91133 72.8371 5.87525 59.1756 11.0994C57.685 11.6696 53.6294 13.1512 51.7276 16.9397C51.4165 17.561 51.2313 18.1052 51.1253 18.4654C52.887 19.2717 58.3453 22.0468 61.1634 28.3144C62.4239 31.1165 62.7481 33.7106 62.8041 35.5133Z" fill="url(#paint56_linear_4929_362128)"/>
<path d="M62.8044 35.5133C62.7563 33.9787 62.5082 31.8688 61.6608 29.5479C63.0774 29.0667 64.483 28.5385 65.7875 27.7972C66.5358 27.372 67.2581 26.8888 67.9024 26.3166C68.5536 25.7393 69.1319 25.0861 69.6901 24.4208C70.7955 23.1043 71.839 21.7337 73.2115 20.6773C74.335 19.8119 75.5755 19.1106 76.8471 18.4894C79.4651 17.2099 82.2332 16.2675 84.8563 14.997C87.2823 13.8215 89.7683 12.2899 91.2919 10.0019C91.8591 9.15059 92.3274 8.22221 92.7025 7.26382C92.8786 7.66498 92.9836 7.95009 93.0166 8.04113C94.3711 11.8737 93.5678 15.2571 93.3287 16.2085C91.9992 21.4976 88.6599 21.5646 74.5491 32.403C72.7604 33.7766 69.2539 36.5097 64.9632 36.0265C64.0388 35.9225 63.2946 35.6944 62.8044 35.5133Z" fill="url(#paint57_linear_4929_362128)"/>
<path d="M48.4775 29.0217C47.401 27.9722 45.6433 26.3486 45.2622 23.8306C45.1701 23.2263 45.0161 22.1139 45.5523 21.0564C46.6238 18.9406 49.7371 18.4644 51.1266 18.4664C57.9804 18.4734 65.7365 30.1361 62.8043 35.5143C61.846 37.273 59.6641 38.5055 57.6963 38.4235C54.7001 38.2964 54.8471 35.2342 48.4775 29.0217Z" fill="#EBBB50"/>
<path d="M48.4775 29.0217C47.401 27.9722 45.6433 26.3486 45.2622 23.8306C45.1701 23.2263 45.0161 22.1139 45.5523 21.0564C46.6238 18.9406 49.7371 18.4644 51.1266 18.4664C57.9804 18.4734 65.7365 30.1361 62.8043 35.5143C61.846 37.273 59.6641 38.5055 57.6963 38.4235C54.7001 38.2964 54.8471 35.2342 48.4775 29.0217Z" fill="url(#paint58_linear_4929_362128)"/>
<path d="M59.948 33.4695C59.4778 34.5599 58.3474 35.8805 56.9668 36.0005C55.1361 36.1406 54.9259 34.0097 50.244 29.4578C49.4537 28.6875 48.1932 27.5171 47.9231 25.6963C47.8531 25.2661 47.743 24.4558 48.1332 23.6955C48.8835 22.2049 51.0344 21.7947 52.1648 21.8147C53.0452 21.8347 53.9356 22.1149 54.7959 22.5951C55.3461 22.8952 55.8763 23.2753 56.3765 23.7155C56.8867 24.1557 57.377 24.6559 57.8172 25.2061C57.8472 25.2461 57.8771 25.2761 57.8972 25.3162C58.2173 25.7063 58.4974 26.1165 58.7575 26.5467C58.9676 26.8768 59.1577 27.2069 59.3278 27.5571C59.3278 27.5671 59.3278 27.5671 59.3278 27.5671C59.5479 28.0173 59.7379 28.4674 59.888 28.9276V28.9376C59.898 28.9576 59.908 28.9676 59.908 28.9877V28.9977C60.4382 30.5883 60.5183 32.169 59.948 33.4695Z" fill="url(#paint59_linear_4929_362128)"/>
<path d="M59.948 33.4695C59.4778 34.5599 58.3474 35.8805 56.9668 36.0005C55.1361 36.1406 54.9259 34.0097 50.244 29.4578C49.4537 28.6875 48.1932 27.5171 47.9231 25.6963C47.8531 25.2661 47.743 24.4558 48.1332 23.6955C48.8835 22.2049 51.0344 21.7947 52.1648 21.8147C53.0452 21.8347 53.9356 22.1149 54.7959 22.5951C55.3461 22.8952 55.8763 23.2753 56.3765 23.7155C56.8867 24.1557 57.377 24.6559 57.8172 25.2061C57.8472 25.2461 57.8771 25.2761 57.8972 25.3162C58.2173 25.7063 58.4974 26.1165 58.7575 26.5467C58.9676 26.8768 59.1577 27.2069 59.3278 27.5571C59.3278 27.5671 59.3278 27.5671 59.3278 27.5671C59.5479 28.0173 59.7379 28.4674 59.888 28.9276V28.9376C59.898 28.9576 59.908 28.9676 59.908 28.9877V28.9977C60.4382 30.5883 60.5183 32.169 59.948 33.4695Z" fill="url(#paint60_linear_4929_362128)"/>
<path d="M51.485 24.7069C50.6426 25.1531 50.2366 26.1525 50.4076 26.9809C50.6937 28.3684 52.5915 29.2638 53.759 28.5365C54.6373 27.9893 55.0015 26.5867 54.3572 25.5443C53.766 24.5869 52.4784 24.1807 51.485 24.7069Z" fill="#EBBB50"/>
<path d="M50.7894 27.7692C50.8424 27.8372 51.1275 28.1904 51.6257 28.4185C51.7697 28.4845 53.0003 29.0227 53.9336 28.2794C54.6629 27.6982 54.6739 26.7648 54.6729 26.6267C54.6589 26.2556 54.566 25.8814 54.3569 25.5443C54.2609 25.3892 54.1418 25.2542 54.0128 25.1291C54.0138 25.1341 54.0168 25.1381 54.0178 25.1431C54.1138 25.4893 54.0738 25.8564 53.9037 26.1725C53.7156 26.5237 53.3695 26.7698 53.0074 26.9148C52.151 27.259 50.8985 26.9358 50.4443 26.1265C50.4113 26.2696 50.3872 26.4146 50.3792 26.5577C50.3742 26.6477 50.3752 26.8108 50.4062 26.9809C50.4792 27.368 50.6874 27.6391 50.7894 27.7692Z" fill="url(#paint61_linear_4929_362128)"/>
<path d="M44.6552 47.4862C43.8128 47.9323 43.4066 48.9317 43.5777 49.7601C43.8638 51.1476 45.7616 52.043 46.929 51.3157C47.8074 50.7685 48.1716 49.3659 47.5273 48.3235C46.9371 47.3671 45.6486 46.9599 44.6552 47.4862Z" fill="#EBBB50"/>
<path d="M43.9598 50.5485C44.0129 50.6165 44.298 50.9696 44.7962 51.1977C44.9403 51.2638 46.1708 51.802 47.1042 51.0587C47.8335 50.4774 47.8445 49.544 47.8435 49.406C47.8295 49.0348 47.7364 48.6607 47.5283 48.3236C47.4323 48.1685 47.3132 48.0335 47.1842 47.9084C47.1852 47.9134 47.1882 47.9174 47.1892 47.9224C47.2852 48.2686 47.2452 48.6357 47.0751 48.9518C46.8871 49.303 46.5409 49.5491 46.1788 49.6941C45.3224 50.0383 44.0699 49.7151 43.6157 48.9058C43.5827 49.0488 43.5587 49.1939 43.5507 49.337C43.5457 49.427 43.5467 49.5901 43.5777 49.7601C43.6498 50.1483 43.8578 50.4184 43.9598 50.5485Z" fill="url(#paint62_linear_4929_362128)"/>
<path d="M57.8177 25.2061C57.8477 25.2461 57.8777 25.2761 57.8977 25.3161C56.8673 25.7863 55.4267 25.1761 54.9065 24.1456C54.8765 24.0956 54.8465 24.0356 54.8165 23.9656C54.7765 23.8755 54.7464 23.7755 54.7263 23.6654C54.6963 23.4954 54.6864 23.3253 54.6964 23.2353C54.6964 23.2293 54.6984 23.2233 54.6994 23.2173C54.7034 23.0792 54.7264 22.9442 54.7564 22.8071C54.7564 22.8071 54.7564 22.8061 54.7564 22.8051C54.7714 22.7351 54.7754 22.663 54.7964 22.595C55.3467 22.8951 55.8768 23.2753 56.377 23.7155C56.8872 24.1557 57.3775 24.6558 57.8177 25.2061Z" fill="#EBBB50"/>
<path d="M57.8177 25.206C56.9773 25.5562 56.067 25.156 55.9369 25.096C55.4467 24.8659 55.1565 24.5157 55.1065 24.4457C55.0565 24.3757 54.9765 24.2756 54.9065 24.1456C54.8765 24.0956 54.8465 24.0356 54.8165 23.9655C54.7765 23.8755 54.7464 23.7754 54.7263 23.6654C54.6963 23.4953 54.6864 23.3253 54.6964 23.2352C54.7064 23.0952 54.7264 22.9451 54.7564 22.8051C55.0665 23.3453 55.7168 23.6654 56.377 23.7154C56.8872 24.1556 57.3775 24.6558 57.8177 25.206Z" fill="url(#paint63_linear_4929_362128)"/>
<path d="M46.8133 34.0757C45.9709 34.5219 45.5647 35.5213 45.7358 36.3497C46.0219 37.7372 47.9197 38.6326 49.0871 37.9053C49.9655 37.3581 50.3297 35.9555 49.6854 34.9131C49.0952 33.9557 47.8067 33.5495 46.8133 34.0757Z" fill="#EBBB50"/>
<path d="M46.118 37.138C46.171 37.206 46.4561 37.5592 46.9544 37.7873C47.0984 37.8533 48.3289 38.3915 49.2623 37.6482C49.9916 37.067 50.0026 36.1336 50.0016 35.9955C49.9876 35.6244 49.8945 35.2502 49.6854 34.9131C49.5894 34.758 49.4704 34.623 49.3413 34.4979C49.3423 34.5029 49.3453 34.5069 49.3463 34.5119C49.4424 34.8581 49.4023 35.2252 49.2323 35.5413C49.0442 35.8925 48.698 36.1386 48.3359 36.2836C47.4795 36.6278 46.227 36.3046 45.7728 35.4953C45.7398 35.6384 45.7159 35.7834 45.7079 35.9265C45.7029 36.0165 45.7038 36.1796 45.7349 36.3497C45.8079 36.7368 46.0159 37.0079 46.118 37.138Z" fill="url(#paint64_linear_4929_362128)"/>
<path d="M39.0268 37.6512C38.1844 38.0974 37.7784 39.0968 37.9494 39.9251C38.2355 41.3127 40.1333 42.208 41.3008 41.4807C42.1791 40.9335 42.5433 39.5309 41.899 38.4885C41.3088 37.5311 40.0202 37.125 39.0268 37.6512Z" fill="#EBBB50"/>
<path d="M38.3317 40.7134C38.3847 40.7814 38.6698 41.1346 39.168 41.3627C39.312 41.4287 40.5425 41.9669 41.4759 41.2236C42.2052 40.6424 42.2162 39.709 42.2152 39.5709C42.2012 39.1998 42.1082 38.8256 41.9002 38.4885C41.8041 38.3334 41.6851 38.1984 41.556 38.0733C41.557 38.0784 41.56 38.0823 41.561 38.0873C41.6571 38.4335 41.617 38.8006 41.447 39.1168C41.2589 39.4679 40.9127 39.714 40.5506 39.859C39.6943 40.2032 38.4417 39.8801 37.9875 39.0707C37.9545 39.2138 37.9305 39.3588 37.9225 39.5019C37.9175 39.5919 37.9186 39.755 37.9496 39.9251C38.0216 40.3122 38.2296 40.5833 38.3317 40.7134Z" fill="url(#paint65_linear_4929_362128)"/>
<path d="M52.2422 31.0375C51.3999 31.4836 50.9937 32.483 51.1648 33.3114C51.4509 34.699 53.3486 35.5943 54.5161 34.867C55.3945 34.3198 55.7586 32.9172 55.1144 31.8748C54.5241 30.9184 53.2356 30.5112 52.2422 31.0375Z" fill="#EBBB50"/>
<path d="M51.5469 34.0996C51.5999 34.1677 51.8851 34.5208 52.3833 34.7489C52.5274 34.8149 53.7579 35.3532 54.6913 34.6099C55.4206 34.0286 55.4316 33.0952 55.4306 32.9572C55.4166 32.586 55.3235 32.2119 55.1144 31.8747C55.0184 31.7197 54.8993 31.5846 54.7703 31.4596C54.7713 31.4646 54.7743 31.4686 54.7753 31.4736C54.8713 31.8197 54.8313 32.1869 54.6612 32.503C54.4731 32.8541 54.127 33.1002 53.7649 33.2453C52.9085 33.5894 51.656 33.2663 51.2018 32.457C51.1688 32.6 51.1448 32.7451 51.1368 32.8881C51.1318 32.9782 51.1328 33.1413 51.1638 33.3113C51.2369 33.6995 51.4449 33.9696 51.5469 34.0996Z" fill="url(#paint66_linear_4929_362128)"/>
<path d="M59.9081 28.9877V28.9977C59.7981 29.5679 59.488 30.0681 59.0378 30.3482C58.1784 30.8804 56.941 30.5353 56.2427 29.778C56.1777 29.714 56.1247 29.6559 56.0967 29.6179C56.0866 29.5979 56.0766 29.5879 56.0666 29.5779C56.0366 29.5479 56.0065 29.5079 55.9765 29.4679C55.9765 29.4579 55.9666 29.4579 55.9566 29.4479C55.9266 29.3978 55.8965 29.3478 55.8665 29.2778C55.8364 29.2378 55.8065 29.1777 55.7965 29.1277C55.7665 29.0777 55.7564 29.0277 55.7364 28.9777C55.7164 28.9176 55.6965 28.8576 55.6865 28.7876C55.6564 28.6575 55.6464 28.5375 55.6464 28.4474C55.6264 27.7071 56.0265 26.9068 56.7568 26.5167C57.3871 26.1765 58.1374 26.2265 58.7576 26.5467C58.9677 26.8768 59.1579 27.2069 59.3279 27.5571C59.3279 27.5671 59.3279 27.5671 59.3279 27.5671C59.548 28.0173 59.7381 28.4675 59.8881 28.9276V28.9376C59.8981 28.9576 59.9081 28.9677 59.9081 28.9877Z" fill="#EBBB50"/>
<path d="M59.8884 28.9277V28.9377C59.8183 29.2878 59.6383 29.748 59.2082 30.0882C58.2778 30.8385 57.0472 30.2982 56.8972 30.2282C56.457 30.0281 56.187 29.738 56.0969 29.618C56.0869 29.598 56.0769 29.5879 56.0669 29.5779C56.0369 29.5479 56.0068 29.5079 55.9767 29.4679C55.9767 29.4579 55.9668 29.4579 55.9568 29.4479C55.9268 29.3979 55.8967 29.3479 55.8667 29.2778C55.8367 29.2378 55.8067 29.1778 55.7967 29.1278C55.7667 29.0777 55.7567 29.0277 55.7367 28.9777C55.7167 28.9177 55.6967 28.8576 55.6867 28.7876C55.6567 28.6576 55.6467 28.5375 55.6467 28.4475C55.6467 28.4175 55.6567 28.3875 55.6567 28.3675C55.6667 28.2274 55.6867 28.0773 55.7168 27.9373C56.1769 28.7476 57.4274 29.0677 58.2877 28.7276C58.6479 28.5775 58.988 28.3374 59.1781 27.9873C59.2482 27.8572 59.2982 27.7172 59.3282 27.5671C59.5483 28.0173 59.7383 28.4675 59.8884 28.9277Z" fill="url(#paint67_linear_4929_362128)"/>
<path d="M118.987 571.765C118.949 571.746 118.916 571.732 118.893 571.722C117.644 571.192 116.334 570.609 115.03 569.976C106.047 565.615 99.3935 559.933 94.3845 554.857C94.2944 554.663 94.1414 554.507 93.9513 554.412C91.8194 552.226 89.9856 550.161 88.41 548.382C81.9163 541.05 78.0128 534.264 75.95 531.099C86.0761 527.224 92.4277 514.333 88.6111 504.069C86.6673 514.06 82.1995 522.786 75.2617 530.074C73.1879 527.089 71.5242 523.824 70.1296 520.095C71.5682 518.039 72.6565 515.768 73.6139 513.504C75.3086 509.265 77.0873 504.573 76.7142 499.771C76.6001 498.201 76.143 496.702 75.7658 495.185C75.0765 492.511 75.0776 489.67 75.6858 486.609C73.561 488.911 72.4985 492.279 72.6586 495.565C72.9167 498.396 73.1328 501.145 72.5085 503.981C71.4921 508.68 70.3967 513.573 69.5504 518.473C67.6566 512.93 66.273 506.378 64.9925 498.255C67.9107 488.62 74.3523 481.444 81.4632 474.556C83.9072 472.099 86.4742 469.652 88.7572 466.77C77.5226 470.529 65.2896 480.405 64.1592 492.66C64.0901 492.174 64.0211 491.687 63.952 491.191C63.9911 491.19 64.029 491.191 64.0681 491.189C64.025 491.163 63.9841 491.135 63.941 491.109C63.1467 485.397 62.3444 478.992 61.434 471.764C64.4153 464.603 70.5187 460.342 77.4365 456.577C85.5748 452.118 96.0202 447.823 100.584 438.828C87.4227 445.85 70.8458 446.829 62.0412 460.425C61.426 461.422 60.8838 462.5 60.4306 463.623C60.3115 462.607 60.1896 461.539 60.0675 460.432C61.9553 456.978 63.5329 453.534 65.3937 450.238C71.2751 446.675 75.8639 440.837 78.2949 434.278C81.8934 430.2 85.3298 425.974 87.9799 421.137C85.1677 422.733 82.5816 424.555 80.0896 426.47C80.2036 425.259 80.2396 424.044 80.1946 422.834C90.2397 414.646 102.945 411.183 115.853 409.546C103.533 406.166 89.4755 408.809 79.1743 416.532C79.0252 416.032 78.8601 415.536 78.677 415.044C78.53 415.801 78.3649 416.549 78.1968 417.296C76.9323 418.308 75.7168 419.386 74.5883 420.557C68.977 426.247 65.3657 433.456 58.2908 437.332C58.0937 432.028 58.0616 426.567 58.3037 421.222L58.3247 420.79C62.0363 420.006 65.5546 418.559 68.914 416.985C74.7544 414.106 81.114 410.828 85.2987 405.382C86.6753 403.608 87.6196 401.584 88.6661 399.615C90.4858 396.123 93.196 393.111 96.7595 390.446C92.3106 390.86 87.9728 393.418 85.0076 397.054C82.5816 400.301 80.1896 403.422 76.8232 405.834C70.7678 410.206 64.3932 414.731 58.3837 419.563C58.5448 416.333 58.727 412.673 58.4739 407.566C58.4288 406.645 58.3738 405.778 58.3118 404.949C61.0579 401.036 64.4412 398.031 68.1047 395.366C81.5272 385.938 104.389 378.082 103.604 357.995C98.4541 369.04 88.7582 374.057 78.7521 379.998C70.7709 384.586 61.2789 391.398 57.8785 400.589C57.5094 397.643 57.0473 395.239 56.5931 392.887C56.5231 392.524 56.454 392.163 56.385 391.802C64.3522 389.578 71.7963 385.26 77.0284 378.763C80.4928 374.003 79.9046 367.373 77.8107 362.423C76.3301 367.393 76.0029 371.852 72.7486 375.493C67.4784 380.711 61.324 384.982 56.1339 390.459C55.6757 387.94 55.2845 385.317 55.1004 381.972C59.8724 372.895 67.4744 366.33 75.6668 360.106C78.765 357.661 82.0004 355.243 84.9737 352.295C73.8401 354.589 61.312 361.694 55.8788 372.07C56.279 369.925 56.6941 367.055 56.8232 361.765C58.1207 358.729 59.3261 355.797 60.8267 353.216C67.7776 340.721 85.726 333.489 86.2602 317.411C80.4218 325.991 71.8133 330.111 64.3302 337.292C60.6988 340.506 58.0557 344.279 56.349 348.394C56.304 347.899 56.2589 347.416 56.2149 346.941C56.1268 345.997 56.0419 345.08 55.9669 344.161C65.9459 332.116 74.4744 319.092 89.0743 312.102C72.7697 311.683 60.6327 326.009 55.7488 340.735C55.6467 338.277 55.6667 335.579 55.9318 332.155C56.2069 328.607 56.6171 326.009 57.1933 322.996C67.2834 315.665 79.5013 312.556 89.0732 304.351C78.0137 306.978 64.9794 310.514 57.7995 319.924C57.8105 319.871 57.8195 319.823 57.8305 319.769L58.4138 316.838C59.027 313.717 59.5603 310.817 60.0385 308.059C66.8282 297.949 76.076 289.933 82.9829 279.984L90.4328 277.806C93.9242 276.736 97.4467 275.684 101.048 274.231C97.2706 273.325 93.4411 273.176 89.6485 273.41C88.7492 273.495 87.7997 273.602 86.8163 273.731C86.9104 273.554 87.0135 273.386 87.1055 273.208C86.8274 273.406 86.5473 273.607 86.2671 273.807C78.3359 274.915 68.3699 277.616 63.5849 283.942C63.763 282.611 63.945 281.253 64.1351 279.855C67.3254 278.44 70.2846 276.791 73.2068 275.305C83.0388 270.199 97.6317 265.763 99.4004 252.909C94.3153 259.125 87.8767 261.816 80.9129 265.294C74.6624 268.182 68.699 272.588 64.3672 278.153C64.7754 275.171 65.2215 271.993 65.7297 268.529C68.1777 267.959 70.5218 267.111 72.7967 265.967C81.9524 261.169 88.2579 252.057 90.853 242.182C83.422 247.989 77.3986 256.173 70.3017 262.265C68.9471 263.485 67.5195 264.707 66.1029 266.012C66.8692 260.887 67.7766 255.129 68.9021 248.436C81.7553 240.316 95.8491 235.79 109.489 228.968C95.1038 228.567 78.9401 233.519 69.5343 244.809C69.9274 242.687 70.4838 239.958 71.2701 236.757C77.6677 232.126 85.0197 231.896 92.3576 228.326C98.133 225.505 103.117 220.653 105.851 214.83C106.186 214.565 106.519 214.29 106.848 213.994C109.649 211.36 111.724 207.176 110.673 203.365C105.519 214.827 92.1065 212.483 82.0494 216.464C82.2184 216.346 82.3855 216.232 82.5546 216.11C92.7697 209.092 96.7775 195.341 94.8367 183.485C91.7044 190.505 89.6215 197.649 85.901 204.151C84.1493 207.301 82.1464 210.017 79.5944 212.787C79.4913 212.902 79.3853 213.021 79.2803 213.139C110.27 140.041 149.566 46.7209 119.958 15.3962C107.089 1.78062 83.2199 2.01372 82.9958 2.69099C82.7757 3.35626 105.554 4.00753 117.885 17.9382C144.193 47.6603 112.185 125.674 78.0217 206.397C76.9003 197.333 75.1667 189.049 72.4526 180.223C67.4735 188.904 69.8584 201.195 77.5215 207.577C76.7532 209.393 75.9839 211.21 75.2136 213.029C75.1816 213.104 74.5063 214.702 73.5509 217.178C73.4729 216.286 73.3209 215.384 73.0578 214.464C72.3045 211.827 70.2556 209.409 69.0381 207.168C66.371 202.656 64.6984 197.933 62.0843 193.108C60.3316 198.759 61.2129 204.871 64.1251 210.014C65.5327 212.551 67.3785 214.116 68.9831 216.294C70.0256 217.762 70.8818 219.606 71.9312 221.525C70.9058 224.389 69.7974 227.71 68.856 231.054C68.744 231.45 68.638 231.839 68.5319 232.225C66.271 219.058 56.6811 209.261 46.1488 204.773C49.4901 209.893 53.1247 214.583 56.6561 219.344C48.8059 213.403 39.188 211.787 35.3554 201.992C34.148 212.885 46.724 218.96 53.6769 224.201C57.1403 226.895 59.8384 230.388 61.9553 234.503C63.4889 237.411 64.7044 240.56 65.8578 243.846C65.5847 245.305 65.3827 246.5 65.2326 247.39C64.7384 250.323 64.2882 253.068 63.8711 255.67C62.9857 250.975 61.0529 246.496 58.0407 242.871C52.7345 235.824 45.7657 228.808 36.846 226.801C40.1724 229.852 43.0426 232.91 45.7196 236.182C50.6707 242.636 56.5571 249.154 59.6563 256.679C60.7368 259.341 61.5121 262.249 62.3874 265.226C61.8722 268.664 61.419 271.823 61.0069 274.777C58.0847 270.403 54.0001 266.64 49.3342 263.966C48.2547 261.109 46.9671 258.313 45.2464 255.61C44.8153 257.581 44.5141 259.592 44.3451 261.62C37.9465 259.223 30.9276 258.876 24.514 261.585C31.6099 262.695 38.0605 264.952 44.247 267.844C44.8052 278.663 49.2401 289.189 58.1717 295.564C57.4714 300.441 56.7061 305.302 55.6867 310.87C52.9116 298.137 43.5328 294.075 34.3811 284.548C31.4469 281.537 28.7277 278.282 25.8025 274.868C26.5778 279.308 28.4406 283.491 30.8716 287.307C35.2393 294.841 43.6377 299.426 49.083 305.595C51.2318 308.113 53.0366 311.143 55.0684 314.176C54.9464 314.811 54.8233 315.451 54.6942 316.107L54.115 319.024C53.5618 321.785 53.1206 324.004 52.7705 326.354C49.7212 322.154 44.7493 319.684 41.1388 316.451C36.1468 312.256 32.3962 307.581 31.6319 300.715C27.5152 307.38 31.883 316.422 37.4963 320.805C40.3225 323.18 43.5587 324.909 46.6449 326.271C48.7278 327.276 50.8047 328.084 52.3603 329.599C52.2853 330.319 52.2142 331.061 52.1522 331.862C51.631 338.599 52.0242 342.821 52.4404 347.291C52.6015 349.019 52.7614 350.785 52.8815 352.745C46.4409 334.548 28.4296 328.174 7.86721 331.057C12.9343 332.702 18.0254 333.762 22.8623 335.198C39.7552 339.903 45.1914 346.359 53.0616 359.687C53.0576 360.234 53.0536 360.783 53.0406 361.368C52.9426 365.846 52.6464 368.456 52.3173 370.433C50.7677 365.275 48.0506 360.486 43.999 356.702C36.635 350.288 26.9429 348.228 17.6331 346.183C24.4209 351.964 33.7537 355.196 40.1523 360.879C43.1745 363.673 45.6796 367.137 47.8205 370.981C49.045 373.136 50.1494 375.405 51.2489 377.732C51.2039 378.885 51.2109 380.244 51.2999 381.949C51.516 386.148 52.0332 389.218 52.6134 392.276C47.2773 380.107 37.8294 368.924 24.635 366.028C35.6355 375.789 43.2567 387.796 53.6689 397.997C54.1081 400.676 54.4872 403.736 54.6863 407.754C54.6913 407.864 54.6942 407.964 54.6993 408.073C52.3203 402.878 47.9125 398.439 42.8445 396.023C39.9743 391.611 37.1382 387.142 34.1209 382.626C34.0829 386.062 34.6121 389.548 35.6345 392.913C29.434 389.991 24.0598 386.437 18.9798 380.896C19.8931 388.406 25.2564 395.259 31.827 399.037C34.7942 400.787 37.9095 402.027 40.8267 403.508C43.8549 407.776 47.7965 411.342 52.4163 413.647C53.2297 414.832 53.978 416.102 54.6883 417.44C54.6592 418.099 54.6272 418.747 54.5952 419.387L54.5152 421.053C54.3952 423.718 54.3422 426.408 54.3422 429.092C50.1505 423.433 45.2685 418.53 40.0074 413.782C33.3106 407.095 23.0714 406.833 14.824 410.299C20.9375 411.499 26.725 411.554 31.837 414.655C33.0755 415.574 34.296 416.528 35.5105 417.498C37.2703 420.148 38.7428 423.12 40.4345 426.072C42.6594 429.925 45.2404 433.604 48.2226 436.915C48.1356 437.667 48.0836 438.423 48.0665 439.178C48.0595 441.013 48.2547 442.871 48.6278 444.698C45.3535 442.241 41.668 440.282 38.0636 438.754C35.4845 437.439 32.6453 437.039 30.4024 435.267C26.8369 432.011 25.7896 427.293 24.1419 422.245C22.6253 427.955 23.0363 435.865 28.2155 440.142C30.3473 441.835 33.3766 442.782 35.7856 443.954C41.1157 446.181 46.0097 448.339 50.7957 451.074C52.0782 453.661 53.814 456.001 55.9829 457.895C56.1929 459.93 56.406 461.85 56.6141 463.631C54.7783 460.277 52.2733 457.21 49.065 454.746C46.4199 452.712 43.3537 451.153 39.9933 450.257C33.7148 448.657 28.2596 449.824 22.3962 448.225C13.9237 446.152 7.25095 441.262 0 435.848C3.76853 444.414 11.1726 452.015 20.3603 455.095C25.9306 457.295 32.9654 456.48 38.4276 457.267C42.4903 457.989 46.0398 459.6 49.3261 461.786C46.733 461.365 44.0709 461.243 41.6419 461.12C35.3834 460.854 28.9528 459.783 22.6912 462.537C18.6956 464.317 14.809 468.291 15.0631 472.85C19.748 465.537 27.6433 466.058 35.4025 466.444C41.8441 467.105 48.1577 465.369 54.5142 465.833C55.4116 466.632 56.2979 467.466 57.1793 468.329C57.2873 469.196 57.3904 470.013 57.4844 470.762C58.3108 477.31 59.033 483.144 59.7523 488.436C51.4089 482.884 44.039 476.674 35.9237 470.526C39.3801 480.87 49.1641 489.633 60.1105 491.016C61.0699 497.816 62.0563 503.704 63.3058 509.075C60.3166 505.38 56.9623 502.064 53.3878 498.838C48.0106 493.468 39.7892 493.259 33.1675 496.041C38.0765 497.004 42.7225 497.048 46.8281 499.538C52.5585 503.791 57.8375 508.918 64.1571 512.491C66.0198 519.493 68.4609 525.706 72.0794 532.107C72.3545 532.594 72.6366 533.075 72.9187 533.556C69.3212 530.005 65.0155 526.536 61.334 523.29C59.8944 522.084 58.4439 520.846 56.6912 519.634C56.8972 521.762 57.6875 523.698 58.7309 525.465C61.8552 530.545 67.4175 534.493 73.526 534.571C76.9774 540.293 80.942 545.589 85.2087 550.325C81.9294 551.76 79.1292 554.271 77.3805 557.399C76.8723 558.31 76.4551 559.258 76.051 560.177C75.7028 560.972 75.3537 561.766 74.9465 562.532C72.4195 567.266 67.8977 570.17 64.5493 571.772C60.1786 573.865 55.3595 575.019 50.7017 576.133C50.1934 576.255 49.8794 576.765 50.0014 577.274C50.1055 577.708 50.4936 578 50.9207 578C50.9938 578 51.0679 577.993 51.1419 577.974C55.8978 576.836 60.8148 575.66 65.3667 573.48C68.9701 571.755 73.8481 568.609 76.6162 563.422C77.0484 562.615 77.4165 561.776 77.7857 560.937C78.1888 560.019 78.5679 559.151 79.0331 558.321C80.6888 555.36 83.416 553.033 86.5833 551.818C87.1796 552.454 87.7787 553.081 88.385 553.694C87.9538 554.192 87.4345 554.646 86.8903 555.118C86.164 555.746 85.4127 556.399 84.8055 557.224C83.7791 558.619 83.3469 560.256 82.9297 561.835C82.5536 563.261 82.1985 564.607 81.4422 565.699C80.8059 566.617 79.8985 567.341 78.9371 568.108C78.529 568.433 78.4609 569.028 78.7861 569.437C78.9731 569.673 79.2492 569.795 79.5273 569.795C79.7334 569.795 79.9425 569.728 80.1166 569.588C81.143 568.77 82.2035 567.926 82.9988 566.777C83.9452 565.411 84.3594 563.84 84.7606 562.319C85.1497 560.843 85.5168 559.451 86.3311 558.344C86.8123 557.692 87.4527 557.135 88.1309 556.549C88.6762 556.076 89.2293 555.585 89.7285 555.027C90.4308 555.711 91.1391 556.379 91.8524 557.032C91.6573 557.308 91.4413 557.579 91.2212 557.844L90.848 558.291C88.6331 560.942 86.1231 563.947 85.809 567.645C85.7649 568.164 86.151 568.623 86.6712 568.667C86.6993 568.669 86.7253 568.671 86.7523 568.671C87.2385 568.671 87.6527 568.298 87.6938 567.804C87.9579 564.704 90.1657 562.061 92.3006 559.503L92.6758 559.052C92.8738 558.814 93.0748 558.563 93.2679 558.303C94.1863 559.11 95.1107 559.894 96.0421 560.648C95.831 561.257 95.4539 561.857 94.9107 562.389C94.0853 563.198 93.0349 563.762 92.1175 564.205C91.6474 564.432 91.4502 565.001 91.6773 565.47C91.8404 565.808 92.1785 566.004 92.5307 566.004C92.6687 566.004 92.8088 565.974 92.9419 565.91C93.9363 565.43 95.2077 564.748 96.2362 563.74C96.8144 563.172 97.2677 562.537 97.5878 561.87C104.026 566.847 110.667 570.504 116.944 572.468C117.293 572.577 117.949 572.777 118.751 573.016C118.772 573.023 118.804 573.032 118.844 573.034C119.007 573.045 119.132 572.941 119.176 572.905C119.436 572.688 119.483 572.161 119.285 571.964C119.237 571.915 119.117 571.83 118.987 571.765ZM54.9925 446.505C54.5113 444.987 54.031 443.487 53.5638 442.008C53.9609 442.332 54.3561 442.658 54.7663 442.968C54.8353 444.161 54.9114 445.341 54.9925 446.505ZM59.5252 455.238C59.4522 454.484 59.3802 453.714 59.3092 452.934C59.5332 452.869 59.7524 452.791 59.9745 452.72C59.7974 453.554 59.6482 454.394 59.5252 455.238ZM65.1946 435.639C68.9261 433.44 72.0583 430.395 75.1355 427.433C74.4963 429.103 73.796 430.743 73.0357 432.35C69.5063 435.465 66.1209 438.8 63.6499 442.907C62.2323 445.352 61.2089 447.966 60.4786 450.658C60.0664 451.094 59.6473 451.528 59.2221 451.957C58.8389 447.596 58.5098 442.886 58.3157 438.032C60.7037 437.764 63.0818 436.872 65.1946 435.639ZM75.2687 282.225C69.9915 286.688 65.1215 291.695 61.7271 297.431C62.2013 294.192 62.6355 291.007 63.0777 287.718C66.7081 284.806 70.8839 283.476 75.2687 282.225ZM89.8686 223.22C84.5854 225.77 77.5486 227.839 73.0447 232.439C72.7216 232.775 72.4115 233.124 72.1123 233.482C72.2374 233.021 72.3665 232.552 72.5006 232.077C73.653 227.986 75.0565 223.944 76.239 220.764C83.0368 219.432 90.3037 220.277 96.9414 218.859C94.7445 220.513 92.4056 221.984 89.8686 223.22ZM66.5221 234.3C66.8592 234.92 67.1854 235.555 67.5085 236.191C67.3985 236.642 67.2924 237.085 67.1914 237.517C67.0193 236.435 66.8032 235.359 66.5221 234.3ZM53.2767 276.372C52.7985 274.83 52.3463 273.293 51.8901 271.763C54.8423 273.398 57.7685 275.135 60.7127 276.917C60.3305 279.696 59.9804 282.312 59.6433 284.837C59.3402 287.103 59.05 289.265 58.7589 291.385C57.0012 286.284 54.9454 281.499 53.2767 276.372ZM54.3551 431.293C54.3851 434.147 54.4712 436.984 54.6002 439.766C52.3753 435.527 49.7643 431.003 47.4343 426.916C49.6492 428.507 51.9411 429.993 54.3551 431.293Z" fill="url(#paint68_linear_4929_362128)"/>
<defs>
<linearGradient id="paint0_linear_4929_362128" x1="84.8693" y1="604.961" x2="93.9789" y2="529.957" gradientUnits="userSpaceOnUse">
<stop stop-color="#EBBB50"/>
<stop offset="1" stop-color="#EBBB50" stop-opacity="0"/>
</linearGradient>
<linearGradient id="paint1_linear_4929_362128" x1="64.2894" y1="602.461" x2="73.3992" y2="527.458" gradientUnits="userSpaceOnUse">
<stop stop-color="#EBBB50"/>
<stop offset="1" stop-color="#EBBB50" stop-opacity="0"/>
</linearGradient>
<linearGradient id="paint2_linear_4929_362128" x1="131.405" y1="640.054" x2="-3.27081" y2="412.293" gradientUnits="userSpaceOnUse">
<stop stop-color="#EBBB50"/>
<stop offset="1" stop-color="#EBBB50" stop-opacity="0"/>
</linearGradient>
<linearGradient id="paint3_linear_4929_362128" x1="147.595" y1="630.481" x2="12.9187" y2="402.72" gradientUnits="userSpaceOnUse">
<stop stop-color="#EBBB50"/>
<stop offset="1" stop-color="#EBBB50" stop-opacity="0"/>
</linearGradient>
<linearGradient id="paint4_linear_4929_362128" x1="147.237" y1="630.692" x2="12.5611" y2="402.932" gradientUnits="userSpaceOnUse">
<stop stop-color="#EBBB50"/>
<stop offset="1" stop-color="#EBBB50" stop-opacity="0"/>
</linearGradient>
<linearGradient id="paint5_linear_4929_362128" x1="140.56" y1="634.64" x2="5.88413" y2="406.88" gradientUnits="userSpaceOnUse">
<stop stop-color="#EBBB50"/>
<stop offset="1" stop-color="#EBBB50" stop-opacity="0"/>
</linearGradient>
<linearGradient id="paint6_linear_4929_362128" x1="130.278" y1="640.72" x2="-4.39732" y2="412.959" gradientUnits="userSpaceOnUse">
<stop stop-color="#EBBB50"/>
<stop offset="1" stop-color="#EBBB50" stop-opacity="0"/>
</linearGradient>
<linearGradient id="paint7_linear_4929_362128" x1="159.658" y1="623.348" x2="24.9823" y2="395.587" gradientUnits="userSpaceOnUse">
<stop stop-color="#EBBB50"/>
<stop offset="1" stop-color="#EBBB50" stop-opacity="0"/>
</linearGradient>
<linearGradient id="paint8_linear_4929_362128" x1="55.993" y1="376.653" x2="75.0526" y2="323.773" gradientUnits="userSpaceOnUse">
<stop stop-color="#3F552B"/>
<stop offset="1" stop-color="#3F552B" stop-opacity="0"/>
</linearGradient>
<linearGradient id="paint9_linear_4929_362128" x1="71.0578" y1="401.292" x2="29.51" y2="349.583" gradientUnits="userSpaceOnUse">
<stop stop-color="#3F552B"/>
<stop offset="1" stop-color="#3F552B" stop-opacity="0"/>
</linearGradient>
<linearGradient id="paint10_linear_4929_362128" x1="69.6996" y1="228.172" x2="65.2197" y2="191.401" gradientUnits="userSpaceOnUse">
<stop stop-color="#3F552B"/>
<stop offset="1" stop-color="#3F552B" stop-opacity="0"/>
</linearGradient>
<linearGradient id="paint11_linear_4929_362128" x1="77.3237" y1="249.821" x2="39.8337" y2="209.68" gradientUnits="userSpaceOnUse">
<stop stop-color="#3F552B"/>
<stop offset="1" stop-color="#3F552B" stop-opacity="0"/>
</linearGradient>
<linearGradient id="paint12_linear_4929_362128" x1="53.0401" y1="254.273" x2="96.846" y2="219.499" gradientUnits="userSpaceOnUse">
<stop stop-color="#3F552B"/>
<stop offset="1" stop-color="#3F552B" stop-opacity="0"/>
</linearGradient>
<linearGradient id="paint13_linear_4929_362128" x1="46.5391" y1="286.109" x2="88.3128" y2="248.852" gradientUnits="userSpaceOnUse">
<stop stop-color="#3F552B"/>
<stop offset="1" stop-color="#3F552B" stop-opacity="0"/>
</linearGradient>
<linearGradient id="paint14_linear_4929_362128" x1="64.134" y1="309.303" x2="38.9481" y2="251.061" gradientUnits="userSpaceOnUse">
<stop stop-color="#3F552B"/>
<stop offset="1" stop-color="#3F552B" stop-opacity="0"/>
</linearGradient>
<linearGradient id="paint15_linear_4929_362128" x1="53.4451" y1="326.134" x2="78.8049" y2="308.114" gradientUnits="userSpaceOnUse">
<stop stop-color="#3F552B"/>
<stop offset="1" stop-color="#3F552B" stop-opacity="0"/>
</linearGradient>
<linearGradient id="paint16_linear_4929_362128" x1="55.8604" y1="315.44" x2="76.4084" y2="282.247" gradientUnits="userSpaceOnUse">
<stop stop-color="#3F552B"/>
<stop offset="1" stop-color="#3F552B" stop-opacity="0"/>
</linearGradient>
<linearGradient id="paint17_linear_4929_362128" x1="57.3478" y1="340.529" x2="31.6062" y2="305.981" gradientUnits="userSpaceOnUse">
<stop stop-color="#3F552B"/>
<stop offset="1" stop-color="#3F552B" stop-opacity="0"/>
</linearGradient>
<linearGradient id="paint18_linear_4929_362128" x1="66.9645" y1="414.137" x2="92.2546" y2="355.429" gradientUnits="userSpaceOnUse">
<stop stop-color="#3F552B"/>
<stop offset="1" stop-color="#3F552B" stop-opacity="0"/>
</linearGradient>
<linearGradient id="paint19_linear_4929_362128" x1="68.1915" y1="432.407" x2="23.9339" y2="381.827" gradientUnits="userSpaceOnUse">
<stop stop-color="#3F552B"/>
<stop offset="1" stop-color="#3F552B" stop-opacity="0"/>
</linearGradient>
<linearGradient id="paint20_linear_4929_362128" x1="43.0694" y1="482.569" x2="87.7786" y2="413.698" gradientUnits="userSpaceOnUse">
<stop stop-color="#3F552B"/>
<stop offset="1" stop-color="#3F552B" stop-opacity="0"/>
</linearGradient>
<linearGradient id="paint21_linear_4929_362128" x1="91.9496" y1="449.704" x2="14.452" y2="412.673" gradientUnits="userSpaceOnUse">
<stop stop-color="#3F552B"/>
<stop offset="1" stop-color="#3F552B" stop-opacity="0"/>
</linearGradient>
<linearGradient id="paint22_linear_4929_362128" x1="62.0132" y1="450.506" x2="102.884" y2="405.571" gradientUnits="userSpaceOnUse">
<stop stop-color="#3F552B"/>
<stop offset="1" stop-color="#3F552B" stop-opacity="0"/>
</linearGradient>
<linearGradient id="paint23_linear_4929_362128" x1="67.3638" y1="475.2" x2="-6.24806" y2="430.266" gradientUnits="userSpaceOnUse">
<stop stop-color="#3F552B"/>
<stop offset="1" stop-color="#3F552B" stop-opacity="0"/>
</linearGradient>
<linearGradient id="paint24_linear_4929_362128" x1="56.5212" y1="477.353" x2="96.7142" y2="432.87" gradientUnits="userSpaceOnUse">
<stop stop-color="#3F552B"/>
<stop offset="1" stop-color="#3F552B" stop-opacity="0"/>
</linearGradient>
<linearGradient id="paint25_linear_4929_362128" x1="170.21" y1="585.56" x2="100.041" y2="287.948" gradientUnits="userSpaceOnUse">
<stop stop-color="#EBBB50"/>
<stop offset="1" stop-color="#EBBB50" stop-opacity="0"/>
</linearGradient>
<linearGradient id="paint26_linear_4929_362128" x1="43.2236" y1="-79.4006" x2="98.1092" y2="285.799" gradientUnits="userSpaceOnUse">
<stop stop-color="#EBBB50"/>
<stop offset="1" stop-color="#EBBB50" stop-opacity="0"/>
</linearGradient>
<linearGradient id="paint27_linear_4929_362128" x1="52.0134" y1="-33.0844" x2="88.5078" y2="220.06" gradientUnits="userSpaceOnUse">
<stop stop-color="#7B3A14"/>
<stop offset="1" stop-color="#7B3A14" stop-opacity="0"/>
</linearGradient>
<linearGradient id="paint28_linear_4929_362128" x1="63.836" y1="475.506" x2="16.6431" y2="412.507" gradientUnits="userSpaceOnUse">
<stop stop-color="#3F552B"/>
<stop offset="1" stop-color="#3F552B" stop-opacity="0"/>
</linearGradient>
<linearGradient id="paint29_linear_4929_362128" x1="75.7875" y1="414.701" x2="33.5622" y2="372.927" gradientUnits="userSpaceOnUse">
<stop stop-color="#3F552B"/>
<stop offset="1" stop-color="#3F552B" stop-opacity="0"/>
</linearGradient>
<linearGradient id="paint30_linear_4929_362128" x1="36.7693" y1="402.412" x2="53.5146" y2="450.402" gradientUnits="userSpaceOnUse">
<stop stop-color="#C8D34F"/>
<stop offset="1" stop-color="#C8D34F" stop-opacity="0"/>
</linearGradient>
<linearGradient id="paint31_linear_4929_362128" x1="81.0756" y1="393.77" x2="69.6397" y2="438.084" gradientUnits="userSpaceOnUse">
<stop stop-color="#C8D34F"/>
<stop offset="1" stop-color="#C8D34F" stop-opacity="0"/>
</linearGradient>
<linearGradient id="paint32_linear_4929_362128" x1="98.2044" y1="374.396" x2="76.9664" y2="405.232" gradientUnits="userSpaceOnUse">
<stop stop-color="#C8D34F"/>
<stop offset="1" stop-color="#C8D34F" stop-opacity="0"/>
</linearGradient>
<linearGradient id="paint33_linear_4929_362128" x1="20.173" y1="369.099" x2="42.4321" y2="399.935" gradientUnits="userSpaceOnUse">
<stop stop-color="#C8D34F"/>
<stop offset="1" stop-color="#C8D34F" stop-opacity="0"/>
</linearGradient>
<linearGradient id="paint34_linear_4929_362128" x1="7.39183" y1="398.659" x2="40.6783" y2="420.51" gradientUnits="userSpaceOnUse">
<stop stop-color="#C8D34F"/>
<stop offset="1" stop-color="#C8D34F" stop-opacity="0"/>
</linearGradient>
<linearGradient id="paint35_linear_4929_362128" x1="88.7121" y1="346.364" x2="68.4953" y2="380.876" gradientUnits="userSpaceOnUse">
<stop stop-color="#C8D34F"/>
<stop offset="1" stop-color="#C8D34F" stop-opacity="0"/>
</linearGradient>
<linearGradient id="paint36_linear_4929_362128" x1="98.7977" y1="337.807" x2="63.0606" y2="370.072" gradientUnits="userSpaceOnUse">
<stop stop-color="#C8D34F"/>
<stop offset="1" stop-color="#C8D34F" stop-opacity="0"/>
</linearGradient>
<linearGradient id="paint37_linear_4929_362128" x1="6.70444" y1="319.916" x2="37.132" y2="344.013" gradientUnits="userSpaceOnUse">
<stop stop-color="#C8D34F"/>
<stop offset="1" stop-color="#C8D34F" stop-opacity="0"/>
</linearGradient>
<linearGradient id="paint38_linear_4929_362128" x1="100.996" y1="298.971" x2="64.4419" y2="330.624" gradientUnits="userSpaceOnUse">
<stop stop-color="#C8D34F"/>
<stop offset="1" stop-color="#C8D34F" stop-opacity="0"/>
</linearGradient>
<linearGradient id="paint39_linear_4929_362128" x1="13.9012" y1="265.717" x2="44.3288" y2="298.186" gradientUnits="userSpaceOnUse">
<stop stop-color="#C8D34F"/>
<stop offset="1" stop-color="#C8D34F" stop-opacity="0"/>
</linearGradient>
<linearGradient id="paint40_linear_4929_362128" x1="116.699" y1="266.124" x2="71.977" y2="281.644" gradientUnits="userSpaceOnUse">
<stop stop-color="#C8D34F"/>
<stop offset="1" stop-color="#C8D34F" stop-opacity="0"/>
</linearGradient>
<linearGradient id="paint41_linear_4929_362128" x1="16.9968" y1="251.056" x2="50.6916" y2="270.865" gradientUnits="userSpaceOnUse">
<stop stop-color="#C8D34F"/>
<stop offset="1" stop-color="#C8D34F" stop-opacity="0"/>
</linearGradient>
<linearGradient id="paint42_linear_4929_362128" x1="31.3285" y1="209.145" x2="53.7918" y2="244.677" gradientUnits="userSpaceOnUse">
<stop stop-color="#C8D34F"/>
<stop offset="1" stop-color="#C8D34F" stop-opacity="0"/>
</linearGradient>
<linearGradient id="paint43_linear_4929_362128" x1="127.519" y1="214.987" x2="83.2052" y2="238.675" gradientUnits="userSpaceOnUse">
<stop stop-color="#C8D34F"/>
<stop offset="1" stop-color="#C8D34F" stop-opacity="0"/>
</linearGradient>
<linearGradient id="paint44_linear_4929_362128" x1="38.8412" y1="185.999" x2="66.8656" y2="217.531" gradientUnits="userSpaceOnUse">
<stop stop-color="#C8D34F"/>
<stop offset="1" stop-color="#C8D34F" stop-opacity="0"/>
</linearGradient>
<linearGradient id="paint45_linear_4929_362128" x1="65.3073" y1="163.643" x2="74.2548" y2="198.601" gradientUnits="userSpaceOnUse">
<stop stop-color="#C8D34F"/>
<stop offset="1" stop-color="#C8D34F" stop-opacity="0"/>
</linearGradient>
<linearGradient id="paint46_linear_4929_362128" x1="89.175" y1="220.901" x2="73.8497" y2="193.255" gradientUnits="userSpaceOnUse">
<stop stop-color="#3F552B"/>
<stop offset="1" stop-color="#3F552B" stop-opacity="0"/>
</linearGradient>
<linearGradient id="paint47_linear_4929_362128" x1="108.961" y1="243.97" x2="80.7801" y2="268.884" gradientUnits="userSpaceOnUse">
<stop stop-color="#C8D34F"/>
<stop offset="1" stop-color="#C8D34F" stop-opacity="0"/>
</linearGradient>
<linearGradient id="paint48_linear_4929_362128" x1="130.992" y1="191.686" x2="89.945" y2="218.029" gradientUnits="userSpaceOnUse">
<stop stop-color="#C8D34F"/>
<stop offset="1" stop-color="#C8D34F" stop-opacity="0"/>
</linearGradient>
<linearGradient id="paint49_linear_4929_362128" x1="76.4001" y1="231.91" x2="90.1334" y2="218.385" gradientUnits="userSpaceOnUse">
<stop stop-color="#3F552B"/>
<stop offset="1" stop-color="#3F552B" stop-opacity="0"/>
</linearGradient>
<linearGradient id="paint50_linear_4929_362128" x1="1.49349" y1="473.393" x2="44.7864" y2="463.591" gradientUnits="userSpaceOnUse">
<stop stop-color="#C8D34F"/>
<stop offset="1" stop-color="#C8D34F" stop-opacity="0"/>
</linearGradient>
<linearGradient id="paint51_linear_4929_362128" x1="108.315" y1="160.158" x2="85.443" y2="207.74" gradientUnits="userSpaceOnUse">
<stop stop-color="#C8D34F"/>
<stop offset="1" stop-color="#C8D34F" stop-opacity="0"/>
</linearGradient>
<linearGradient id="paint52_linear_4929_362128" x1="79.354" y1="604.291" x2="88.4638" y2="529.287" gradientUnits="userSpaceOnUse">
<stop stop-color="#EBBB50"/>
<stop offset="1" stop-color="#EBBB50" stop-opacity="0"/>
</linearGradient>
<linearGradient id="paint53_linear_4929_362128" x1="89.6259" y1="605.538" x2="98.7357" y2="530.535" gradientUnits="userSpaceOnUse">
<stop stop-color="#EBBB50"/>
<stop offset="1" stop-color="#EBBB50" stop-opacity="0"/>
</linearGradient>
<linearGradient id="paint54_linear_4929_362128" x1="91.5967" y1="6.92323" x2="91.4636" y2="1.64618" gradientUnits="userSpaceOnUse">
<stop stop-color="#7B3A14"/>
<stop offset="1" stop-color="#7B3A14" stop-opacity="0"/>
</linearGradient>
<linearGradient id="paint55_linear_4929_362128" x1="101.744" y1="-18.6565" x2="64.8587" y2="26.4419" gradientUnits="userSpaceOnUse">
<stop stop-color="#7B3A14"/>
<stop offset="1" stop-color="#7B3A14" stop-opacity="0"/>
</linearGradient>
<linearGradient id="paint56_linear_4929_362128" x1="43.9361" y1="22.8466" x2="74.0145" y2="18.1445" gradientUnits="userSpaceOnUse">
<stop stop-color="#7B3A14"/>
<stop offset="1" stop-color="#7B3A14" stop-opacity="0"/>
</linearGradient>
<linearGradient id="paint57_linear_4929_362128" x1="45.3298" y1="5.73246" x2="89.2888" y2="26.9263" gradientUnits="userSpaceOnUse">
<stop stop-color="#7B3A14"/>
<stop offset="1" stop-color="#7B3A14" stop-opacity="0"/>
</linearGradient>
<linearGradient id="paint58_linear_4929_362128" x1="113.314" y1="28.3959" x2="47.6492" y2="28.4231" gradientUnits="userSpaceOnUse">
<stop stop-color="#7B3A14"/>
<stop offset="1" stop-color="#7B3A14" stop-opacity="0"/>
</linearGradient>
<linearGradient id="paint59_linear_4929_362128" x1="48.9848" y1="24.9997" x2="61.1177" y2="32.9233" gradientUnits="userSpaceOnUse">
<stop stop-color="#7B3A14"/>
<stop offset="1" stop-color="#7B3A14" stop-opacity="0"/>
</linearGradient>
<linearGradient id="paint60_linear_4929_362128" x1="61.2886" y1="31.5916" x2="55.8866" y2="29.3777" gradientUnits="userSpaceOnUse">
<stop stop-color="#7B3A14"/>
<stop offset="1" stop-color="#7B3A14" stop-opacity="0"/>
</linearGradient>
<linearGradient id="paint61_linear_4929_362128" x1="56.0504" y1="34.2111" x2="51.3914" y2="24.1668" gradientUnits="userSpaceOnUse">
<stop stop-color="#7B3A14"/>
<stop offset="1" stop-color="#7B3A14" stop-opacity="0"/>
</linearGradient>
<linearGradient id="paint62_linear_4929_362128" x1="49.2214" y1="56.9909" x2="44.5622" y2="46.9465" gradientUnits="userSpaceOnUse">
<stop stop-color="#7B3A14"/>
<stop offset="1" stop-color="#7B3A14" stop-opacity="0"/>
</linearGradient>
<linearGradient id="paint63_linear_4929_362128" x1="59.4342" y1="31.3071" x2="54.7806" y2="21.2748" gradientUnits="userSpaceOnUse">
<stop stop-color="#7B3A14"/>
<stop offset="1" stop-color="#7B3A14" stop-opacity="0"/>
</linearGradient>
<linearGradient id="paint64_linear_4929_362128" x1="51.3792" y1="43.5799" x2="46.7201" y2="33.5356" gradientUnits="userSpaceOnUse">
<stop stop-color="#7B3A14"/>
<stop offset="1" stop-color="#7B3A14" stop-opacity="0"/>
</linearGradient>
<linearGradient id="paint65_linear_4929_362128" x1="43.593" y1="47.1553" x2="38.9338" y2="37.111" gradientUnits="userSpaceOnUse">
<stop stop-color="#7B3A14"/>
<stop offset="1" stop-color="#7B3A14" stop-opacity="0"/>
</linearGradient>
<linearGradient id="paint66_linear_4929_362128" x1="56.8083" y1="40.5421" x2="52.1492" y2="30.4977" gradientUnits="userSpaceOnUse">
<stop stop-color="#7B3A14"/>
<stop offset="1" stop-color="#7B3A14" stop-opacity="0"/>
</linearGradient>
<linearGradient id="paint67_linear_4929_362128" x1="61.1573" y1="36.1041" x2="56.4956" y2="26.0543" gradientUnits="userSpaceOnUse">
<stop stop-color="#7B3A14"/>
<stop offset="1" stop-color="#7B3A14" stop-opacity="0"/>
</linearGradient>
<linearGradient id="paint68_linear_4929_362128" x1="218.436" y1="668.531" x2="100.122" y2="334.884" gradientUnits="userSpaceOnUse">
<stop stop-color="#7B3A14"/>
<stop offset="1" stop-color="#7B3A14" stop-opacity="0"/>
</linearGradient>
</defs>
</svg>
