<svg width="85" height="84" viewBox="0 0 85 84" fill="none" xmlns="http://www.w3.org/2000/svg">
<path d="M21.9625 4.51004C5.38211 13.1867 -2.60665 32.6037 0.757317 48.7205C6.38717 75.6878 43.7415 93.1027 66.7276 78.97C84.0222 68.3366 91.1886 41.0712 78.5085 20.7985C66.867 2.18656 41.5089 -5.71825 21.9625 4.51004Z" fill="#EBBB50"/>
<path d="M78.5084 20.7985C66.8668 2.18656 41.5088 -5.71825 21.9624 4.51004C5.38195 13.1867 -2.60783 32.6037 0.757154 48.7205C6.38701 75.6878 43.7413 93.1027 66.7264 78.97C84.0221 68.3366 91.1884 41.0712 78.5084 20.7985ZM66.9911 31.046C61.3016 35.3111 53.0048 35.0039 46.2466 34.6726C42.7806 34.5029 39.5196 34.3251 36.286 32.9421C32.9372 31.5096 29.5156 29.1165 27.9933 25.7263C24.1929 17.2658 35.1838 12.327 41.5652 10.4126C49.2943 8.09321 58.4377 8.25281 65.6172 12.2492C69.4449 13.4513 71.3116 17.6346 71.5551 21.3501C71.8016 25.1363 70.0378 28.763 66.9911 31.046Z" fill="url(#paint0_linear_4929_362130)"/>
<path d="M8.26987 64.0472C9.3225 65.3716 14.918 72.2419 24.7261 76.6727C27.5688 77.9566 51.7802 88.4274 70.1659 73.9653C84.5209 62.6743 84.732 44.517 84.7199 41.846C84.44 34.6291 82.6056 27.3506 78.5072 20.7975C76.6182 17.777 74.2664 15.1555 71.7378 12.73C71.7641 12.8229 71.8176 12.9037 71.8439 12.9957C73.737 19.7226 72.9501 26.8607 69.6073 33.0067C65.8958 39.8327 59.087 44.6109 51.956 47.4395C35.1008 54.126 10.4459 47.8547 1.50157 32.1127C0.854031 34.9029 0.387303 37.7133 0.223651 40.4964C0.12061 42.2541 0.138748 45.409 0.756991 48.7194C2.16521 56.2515 6.25856 61.5166 8.26987 64.0472Z" fill="url(#paint1_linear_4929_362130)"/>
<defs>
<linearGradient id="paint0_linear_4929_362130" x1="-5.50478" y1="141.313" x2="56.7928" y2="13.5718" gradientUnits="userSpaceOnUse">
<stop stop-color="#7B3A14"/>
<stop offset="1" stop-color="#7B3A14" stop-opacity="0"/>
</linearGradient>
<linearGradient id="paint1_linear_4929_362130" x1="-62.0862" y1="148.03" x2="60.4652" y2="29.3085" gradientUnits="userSpaceOnUse">
<stop stop-color="#7B3A14"/>
<stop offset="1" stop-color="#7B3A14" stop-opacity="0"/>
</linearGradient>
</defs>
</svg>
