<svg width="497" height="460" viewBox="0 0 497 460" fill="none" xmlns="http://www.w3.org/2000/svg">
<path d="M228.973 399.326C224.864 400.049 200.426 401.988 201.28 406.673C201.921 410.188 216.346 411.052 229.974 408.587C242.106 406.393 253.753 401.276 252.487 397.412C250.367 390.864 239.15 397.53 228.973 399.326Z" fill="#319A81" stroke="#104469" stroke-width="1.45652" stroke-miterlimit="10"/>
<path d="M314.689 307.334C317.242 295.844 321.674 280.426 321.111 266.479C321.037 264.555 320.942 262.459 321.875 260.848C322.807 259.237 325.232 258.728 326.064 260.413C326.331 260.955 326.378 261.581 326.429 262.192C327.505 278.027 325.347 294.133 320.18 308.854C319.475 310.863 318.513 313.061 316.719 313.706C315.005 314.309 314.351 308.855 314.689 307.334Z" fill="#319A81" stroke="#104469" stroke-width="1.45652" stroke-miterlimit="10"/>
<path d="M302.576 349.371C305.09 346.522 306.866 342.795 307.577 338.819C307.872 337.169 308.012 335.44 308.728 333.964C309.444 332.487 310.998 331.374 312.371 331.978C313.327 332.392 313.929 333.562 314.085 334.733C314.241 335.905 314.019 337.096 313.75 338.241C312.206 344.999 309.266 351.312 305.246 356.544C304.197 357.906 302.854 359.296 301.276 359.162C299.32 358.982 298.078 356.299 298.535 354.118C298.998 351.905 301.097 351.052 302.576 349.371Z" fill="#319A81" stroke="#104469" stroke-width="1.45652" stroke-miterlimit="10"/>
<path d="M287.752 371.17C286.713 371.84 283.741 373.842 282.793 374.687C281.847 375.516 280.485 377.315 281.375 378.222C283.953 380.902 290.433 375.452 292.904 371.052C293.282 370.386 293.603 369.522 293.249 368.854C292.972 368.359 292.409 368.177 291.9 368.142C290.81 368.069 288.805 370.505 287.752 371.17Z" fill="#319A81" stroke="#104469" stroke-width="1.45652" stroke-miterlimit="10"/>
<path d="M280.486 387.587C282.684 385.837 284.805 381.913 287.279 383.056C288.514 383.636 288.159 386.012 287.592 387.4C287.011 388.784 285.997 389.858 284.994 390.886C279.5 396.544 273.483 402.495 266.148 403.325C265.014 403.454 263.826 403.434 262.811 402.837C261.812 402.228 261.255 400.922 261.359 399.613C261.694 395.261 272.594 393.895 280.486 387.587Z" fill="#319A81" stroke="#104469" stroke-width="1.45652" stroke-miterlimit="10"/>
<path d="M326.196 321.715C325.834 323.279 324.998 324.654 324.437 326.143C323.876 327.632 323.628 329.461 324.404 330.815C325.293 332.368 327.279 332.672 328.744 331.897C330.208 331.121 331.211 329.515 331.938 327.86C332.798 325.863 333.342 323.675 333.532 321.464C333.621 320.349 333.63 319.21 333.319 318.159C333.007 317.107 332.36 316.139 331.458 315.74C330.229 315.196 328.799 315.816 327.887 316.887C326.947 317.95 326.713 319.452 326.196 321.715Z" fill="#319A81" stroke="#104469" stroke-width="1.45652" stroke-miterlimit="10"/>
<path d="M297.48 391.494C295.945 392.911 294.684 394.706 293.817 396.733C293.404 397.687 293.098 398.871 293.59 399.76C293.971 400.435 294.725 400.724 295.417 400.647C296.109 400.57 296.749 400.212 297.355 399.812C298.955 398.746 300.413 397.422 301.675 395.875C302.721 394.596 303.681 392.794 303.061 391.189C302.625 390.051 301.471 389.429 300.401 389.527C299.358 389.633 298.527 390.529 297.48 391.494Z" fill="#319A81" stroke="#104469" stroke-width="1.45652" stroke-miterlimit="10"/>
<path d="M272.476 416.393C272.222 418.055 273.04 419.802 274.28 420.68C275.521 421.559 277.123 421.651 278.515 421.136C279.908 420.62 281.101 419.516 282.035 418.22C282.514 417.551 282.956 416.788 283.048 415.922C283.211 414.481 282.34 413.099 281.251 412.38C280.161 411.662 273.456 410.048 272.476 416.393Z" fill="#319A81" stroke="#104469" stroke-width="1.45652" stroke-miterlimit="10"/>
<path d="M322.609 361.57C323.215 359.747 323.717 357.811 324.854 356.376C325.992 354.941 328.046 354.224 329.39 355.414C330.612 356.503 330.7 358.564 330.509 360.327C330.204 363.315 329.397 366.302 327.746 368.628C326.095 370.953 323.087 373.954 320.937 372.26C317.465 369.532 322.003 363.393 322.609 361.57Z" fill="#319A81" stroke="#104469" stroke-width="1.45652" stroke-miterlimit="10"/>
<path d="M319.12 393.874C317.624 396.079 316.502 398.61 315.807 401.284C315.625 401.975 315.487 402.728 315.716 403.375C315.972 404.096 316.648 404.543 317.319 404.625C317.99 404.707 318.673 404.479 319.298 404.183C322.088 402.872 324.348 400.131 325.313 396.826C325.742 395.347 325.932 393.716 325.514 392.236C325.113 390.745 324.023 389.447 322.678 389.232C321.347 389.022 321.155 390.851 319.12 393.874Z" fill="#319A81" stroke="#104469" stroke-width="1.45652" stroke-miterlimit="10"/>
<path d="M347.225 338.603C346.854 339.95 346.483 341.296 346.415 342.699C346.348 344.102 346.607 345.584 347.384 346.674C348.161 347.764 349.511 348.344 350.654 347.854C351.624 347.429 352.247 346.372 352.775 345.353C353.562 343.815 354.265 342.202 354.553 340.451C354.842 338.7 354.689 336.802 353.843 335.311C353.014 333.81 351.423 332.827 349.907 333.124C348.391 333.422 348.098 335.387 347.225 338.603Z" fill="#319A81" stroke="#104469" stroke-width="1.45652" stroke-miterlimit="10"/>
<path d="M339.86 295.636C340.104 296.734 339.947 297.895 339.826 299.018C339.706 300.14 339.629 301.326 340.012 302.381C340.395 303.437 341.373 304.272 342.318 304.021C343.004 303.843 343.493 303.193 343.884 302.531C345.466 299.871 346.094 296.466 345.593 293.291C345.38 291.988 344.968 290.675 344.14 289.752C343.311 288.829 341.997 288.409 340.962 288.997C339.396 289.908 339.16 292.452 339.86 295.636Z" fill="#319A81" stroke="#104469" stroke-width="1.45652" stroke-miterlimit="10"/>
<path d="M302.271 418.714C299.978 419.212 297.72 419.936 295.533 420.862C294.39 421.352 293.081 422.206 293.084 423.613C293.083 424.457 293.619 425.211 294.261 425.615C294.904 426.02 295.649 426.157 296.38 426.29C298.052 426.585 299.754 426.872 301.406 426.482C303.057 426.093 304.669 424.848 305.154 422.989C305.639 421.13 304.547 418.227 302.271 418.714Z" fill="#319A81" stroke="#104469" stroke-width="1.45652" stroke-miterlimit="10"/>
<path d="M335.59 272.853C337.236 269.451 337.685 265.299 336.826 261.538C336.499 260.102 335.987 258.66 336.085 257.184C336.187 255.692 337.193 254.136 338.485 254.269C339.328 254.352 339.982 255.091 340.515 255.86C344.491 261.55 344.477 270.463 340.489 276.135C339.524 277.505 338.195 278.767 336.668 278.664C335.153 278.565 333.882 276.403 335.59 272.853Z" fill="#319A81" stroke="#104469" stroke-width="1.45652" stroke-miterlimit="10"/>
<path d="M355.656 311.908C353.976 312.488 352.886 314.747 353.298 316.705C353.723 318.667 355.578 320.074 357.304 319.74C359.03 319.405 360.412 317.447 360.345 315.426C360.277 313.404 358.643 310.87 355.656 311.908Z" fill="#319A81" stroke="#104469" stroke-width="1.45652" stroke-miterlimit="10"/>
<path d="M349.978 360.974C349.671 361.776 349.37 362.614 349.358 363.504C349.351 364.378 349.741 365.337 350.448 365.645C351.168 365.957 352.007 365.543 352.516 364.866C353.026 364.189 353.263 363.316 353.506 362.478C353.712 361.744 353.908 360.992 353.862 360.233C353.801 359.471 353.431 358.683 352.791 358.462C352.154 358.224 350.898 358.515 349.978 360.974Z" fill="#319A81" stroke="#104469" stroke-width="1.45652" stroke-miterlimit="10"/>
</svg>
