<svg width="497" height="460" viewBox="0 0 497 460" fill="none" xmlns="http://www.w3.org/2000/svg">
<g clip-path="url(#clip0_3513:376872)">
<path fill-rule="evenodd" clip-rule="evenodd" d="M175.648 140.507C97.1956 129.168 46.8317 173.12 35.5202 195.346L34.6655 199.183C12.4443 298.952 62.3813 357.266 90.1274 373.952C92.1537 374.889 96.0114 375.786 95.2316 371.877C18.2523 304.074 36.0992 231.694 41.7256 208.876C42.0872 207.41 42.3983 206.148 42.6305 205.105C45.7073 191.291 60.4395 177.637 67.421 172.537C72.148 169.839 70.4321 172.912 69.1435 174.066C49.2739 189.172 39.5086 239.964 40.6468 246.432C41.4134 300.863 71.2679 340.445 75.5585 346.134C75.8395 346.507 76.0108 346.734 76.0572 346.81C84.4613 359.097 93.339 364.164 96.7273 365.161C97.3182 364.824 98.2295 363.048 95.5389 361.234C48.5453 311.01 45.515 254.68 49.874 232.793C54.7298 199.876 74.3488 180.028 83.5514 174.218C99.7994 167.961 96.0231 173.801 89.8439 176.071C77.1211 181.321 64.19 206.341 59.3148 218.194C54.4397 230.048 54.3056 261.527 56.8735 277.786C58.7028 278.836 61.0663 277.487 61.0096 275.426C61.049 275.249 61.1374 273.593 61.2786 270.949C61.9033 259.249 63.5611 228.199 66.5755 220.332C69.532 212.615 72.2161 217.392 73.1886 220.745C65.4135 234.812 66.3974 283.656 69.5721 285.613C74.3624 289.579 77.0526 285.771 75.7512 283.343C68.4634 269.749 74.9586 242.903 79.1171 231.179C80.4445 227.072 81.6772 229.377 81.267 230.79C67.2239 279.145 90.4507 310.509 96.8825 319.194C97.5456 320.09 98.0302 320.744 98.277 321.151C100.918 325.506 100.113 326.803 96.6746 328.346C94.309 329.408 85.1499 312.746 79.1034 301.747C76.361 296.758 74.2589 292.934 73.7214 292.457C71.9989 290.927 70.924 291.122 70.9807 293.183C80.2434 341.909 123.707 359.814 126.611 360.669C129.516 361.524 130.213 360.707 129.779 358.024C129.346 355.341 104.646 338.87 102.817 337.821C100.987 336.771 103.615 331.922 106.035 332.635C126.871 346.537 143.516 352.698 149.235 354.04C155.732 356.362 153.868 361.026 150.857 360.651C147.469 359.654 140.262 357.737 138.542 358.048C136.393 358.438 136.72 361.6 138.442 363.13C139.865 364.393 146.061 365.976 151.632 367.4C156.18 368.563 160.311 369.619 161.085 370.306C167.93 374.774 163.657 376.515 160.665 376.827C133.435 375.092 111.62 365.107 105.71 362.402C104.887 362.025 104.373 361.79 104.195 361.737C102.743 361.31 101.675 366.107 104.579 366.961C129.542 379.932 156.426 382.735 166.209 382.037C180.938 380.75 178.581 386.701 177.185 388.334C175.79 389.968 169.447 390.656 167.511 390.086C163.695 391.008 106.371 379.756 103.467 378.901C100.563 378.046 98.3627 380.976 104.335 384.267C117.788 393.338 170.101 396.982 179.455 396.669C187.291 396.407 187.769 395.054 188.19 393.86C188.272 393.629 188.351 393.403 188.482 393.193C188.87 392.568 187.055 389.987 185.301 387.492C183.417 384.813 181.602 382.232 182.66 382.279C208.572 381.729 230.441 373.856 236.563 369.524C242.686 365.193 234.727 363.873 233.546 364.547C216.46 371.785 184.049 376.044 175.016 374.918C165.983 373.792 170.653 369.034 172.212 368.981C207.05 370.037 224.669 360.401 228.051 356.797C231.433 353.192 226.806 350.808 225.033 351.82C201.191 370.868 160.374 361.919 158.652 360.39C156.929 358.861 158.539 356.268 160.475 356.838C208.011 365.72 230.776 345.332 239.522 333.085C244.032 329.506 248.448 334.69 245.173 337.815C242.864 339.691 237.355 344.202 233.79 347.242C230.107 350.381 232.845 351.571 234.939 352.482C235.38 352.674 235.792 352.853 236.11 353.036C237.939 354.085 243.093 349.469 247.173 345.048C250.615 341.318 253.914 344.822 255.895 346.927C256.262 347.317 256.584 347.659 256.854 347.898C258.437 349.303 248.902 355.638 244.054 358.859C243.627 359.143 243.236 359.402 242.893 359.632C238.65 362.472 245.483 366.528 248.601 366.424C250.309 366.366 255.301 362.677 259.706 359.421C263.344 356.732 266.582 354.339 267.239 354.532C275.895 355.036 264.782 365.564 259.464 368.599C249.824 375.734 240.45 377.758 234.631 379.014C231.502 379.69 229.401 380.144 228.838 381.05C225.57 388.777 238.092 385.819 249.055 382.913C256.859 380.844 265.256 373.769 274.154 366.271C277.755 363.236 281.439 360.133 285.198 357.264C298.248 347.305 311.074 294.348 311.659 289.409C311.819 288.057 312.015 286.716 312.198 285.465C312.683 282.146 313.076 279.464 312.45 278.909C311.589 278.144 309.759 277.094 308.634 279.83C290.836 344.919 283.199 350.031 277.931 350.524C275.297 350.771 273.575 349.242 272.714 348.477C270.023 346.663 273.184 339.416 274.366 338.742C275.548 338.067 280.859 330.431 276.823 327.71C272.787 324.988 271.135 334.724 271.405 335.826C271.676 336.927 266.414 342.023 264.051 343.372C262.073 344.5 258.353 337.244 256.748 334.115C256.435 333.504 256.203 333.051 256.079 332.848C255.532 331.944 257.506 330.705 259.8 329.265C260.666 328.722 261.577 328.15 262.415 327.557C265.477 325.392 267.193 322.319 263.05 320.077C260.084 318.472 255.887 323.58 253.091 326.982C251.983 328.331 251.095 329.412 250.591 329.699C249.173 330.508 247.808 325.983 247.303 323.62C249.321 318.421 253.719 306.393 255.172 299.87C256.662 293.182 256.968 293.366 257.831 293.884C258.02 293.998 258.236 294.127 258.497 294.204C259.245 294.424 258.714 297.927 258.149 301.66C257.617 305.176 257.053 308.895 257.499 310.266C258.416 313.091 262.716 312.313 263.037 310.874C263.058 310.776 263.099 310.603 263.156 310.362C263.943 307.035 267.78 290.796 266.115 283.158C264.686 276.604 261.002 279.097 259.338 281.163C258.395 279.166 259.486 270.129 260.397 262.59C260.839 258.927 261.239 255.618 261.342 253.642C261.656 247.601 267.791 252.474 267.15 255.352C263.241 265.957 265.027 274.149 266.963 274.719C270.289 276.149 273.044 260.269 273.864 255.548C273.972 254.924 274.047 254.494 274.084 254.326C283.188 240.772 271.221 291.307 268.13 304.359C267.815 305.69 267.592 306.631 267.493 307.074C267.261 308.119 267.005 308.938 266.79 309.626C266.019 312.095 265.78 312.86 269.065 316.226C272.425 319.668 280.483 280.402 284.092 260.339C283.891 257.383 284.1 251.039 286.549 249.307C294.985 246.168 281.895 302.625 280.022 308.718C279.661 309.893 279.247 310.958 278.871 311.927C277.296 315.985 276.368 318.375 282.619 320.216C347.841 177.905 214.522 144.283 208.983 143.675C203.445 143.067 200.114 144.131 205.174 149.198C285.704 161.062 291.094 225.87 292.097 237.932C292.176 238.886 292.228 239.51 292.288 239.752C293.099 243.057 287.561 242.449 286.479 238.042C273.785 195.461 252.083 170.162 246.759 168.595C241.434 167.027 241.12 173.068 245.69 173.391C252.731 171.886 278.13 226.896 278.25 235.62C278.346 242.599 275.466 243.489 274.014 243.061C273.4 239.644 271.451 232.8 268.57 232.77C265.688 232.739 268.061 240.457 269.608 244.32C265.737 244.714 258.189 244.639 258.959 241.185C251.762 204.911 241.693 197.561 236.248 193.586C234.523 192.327 233.262 191.407 232.704 190.013C230.908 185.526 232.18 185.314 234.892 184.862C235.682 184.731 236.594 184.579 237.588 184.295C244.682 181.655 259.428 213.434 264.838 225.092C265.861 227.298 266.55 228.784 266.79 229.18C268.299 231.668 271.09 228.401 270.065 226.055C257.892 171.872 201.629 151.221 198.191 152.765C190.099 152.819 205.386 162.838 217.135 170.537C222.637 174.143 227.363 177.24 228.548 178.567C231.521 181.896 225.672 184.535 222.376 185.439C217.749 183.055 207.14 177.888 201.719 176.292C194.942 174.297 164.447 165.32 167.402 163.635C169.527 162.422 182.396 165.694 190.754 167.819C194.015 168.648 196.589 169.303 197.569 169.448C201.065 169.966 200.09 165.079 195.249 163.654C157.72 149.799 132.124 160.025 125.516 162.666C124.907 162.909 124.459 163.088 124.178 163.178C120.847 164.241 122.846 171.474 128.327 170.021C142.901 165.724 156.221 164.432 161.059 164.323C160.613 165.555 155.378 168.988 138.008 172.871C114.517 174.133 91.3378 205.643 83.5105 220.717C76.3211 213.351 90.9007 197.293 99.7183 187.581C103.777 183.111 106.615 179.985 105.547 179.671C98.9809 177.738 80.7337 202.636 77.5925 207.484C75.402 192.357 95.7252 177.84 108.165 168.954C113.299 165.287 117.091 162.578 117.401 161.183C119.763 150.581 101.667 159.193 90.7595 164.383C87.3553 166.003 84.6514 167.29 83.4881 167.555C78.5975 168.671 72.632 169.982 78.6476 166.13C126.681 139.448 169.334 147.392 180.204 149.416C181.855 149.723 182.773 149.894 182.865 149.787C182.967 149.667 183.226 149.529 183.546 149.359C185.417 148.366 189.338 146.283 175.648 140.507ZM96.4039 228.913C102.762 204.284 140.478 164.491 185.284 182.679C241.508 205.501 253.219 261.551 247.406 292.224C241.594 322.897 209.897 348.586 159.285 345.151C113.069 342.015 80.2645 291.432 96.4039 228.913Z" fill="#319A81"/>
<path d="M35.5202 195.346L34.6275 194.823L34.5709 194.934L34.5433 195.058L35.5202 195.346ZM175.648 140.507L175.979 139.552L175.857 139.5L175.729 139.482L175.648 140.507ZM34.6655 199.183L33.6886 198.896L34.6655 199.183ZM90.1274 373.952L89.6622 374.838L89.7117 374.868L89.7637 374.892L90.1274 373.952ZM95.2316 371.877L96.2123 371.725L96.1385 371.355L95.8551 371.106L95.2316 371.877ZM41.7256 208.876L42.6973 209.186L41.7256 208.876ZM67.421 172.537L66.898 171.624L66.853 171.65L66.8112 171.68L67.421 172.537ZM69.1435 174.066L69.7673 174.912L69.7969 174.889L69.8246 174.865L69.1435 174.066ZM40.6468 246.432L41.6484 246.478L41.6472 246.391L41.6321 246.306L40.6468 246.432ZM75.5585 346.134L74.782 346.74L74.7821 346.74L75.5585 346.134ZM76.0572 346.81L75.217 347.322L75.233 347.348L75.2504 347.374L76.0572 346.81ZM96.7273 365.161L96.5059 366.155L96.903 366.272L97.2503 366.074L96.7273 365.161ZM95.5389 361.234L94.8387 361.93L94.9241 362.021L95.0267 362.09L95.5389 361.234ZM49.874 232.793L50.8557 233.058L50.8607 233.033L50.8645 233.007L49.874 232.793ZM83.5514 174.218L83.1539 173.246L83.0696 173.278L82.9932 173.327L83.5514 174.218ZM89.8439 176.071L89.4599 175.093L89.4429 175.099L89.4261 175.106L89.8439 176.071ZM59.3148 218.194L60.2404 218.646L60.2404 218.646L59.3148 218.194ZM56.8735 277.786L55.8851 277.894L55.9683 278.421L56.4273 278.684L56.8735 277.786ZM61.0096 275.426L60.0327 275.138L60.0048 275.264L60.0083 275.395L61.0096 275.426ZM61.2786 270.949L62.2788 271.066L61.2786 270.949ZM66.5755 220.332L65.6411 219.903L66.5755 220.332ZM73.1886 220.745L74.0657 221.297L74.2701 220.927L74.1468 220.502L73.1886 220.745ZM69.5721 285.613L70.17 284.821L70.1114 284.772L70.0472 284.732L69.5721 285.613ZM75.7512 283.343L74.8815 283.803L75.7512 283.343ZM79.1171 231.179L80.0602 231.584L80.0649 231.571L80.0692 231.558L79.1171 231.179ZM81.267 230.79L80.306 230.44L81.267 230.79ZM96.8825 319.194L96.1001 319.792L96.8825 319.194ZM98.277 321.151L99.1172 320.64L99.1172 320.64L98.277 321.151ZM96.6746 328.346L96.2308 327.393L96.6746 328.346ZM79.1034 301.747L79.9675 301.277L79.9675 301.277L79.1034 301.747ZM73.7214 292.457L73.0946 293.224L73.0946 293.224L73.7214 292.457ZM70.9807 293.183L69.9794 293.152L69.9818 293.239L69.9981 293.324L70.9807 293.183ZM129.779 358.024L128.792 358.136L128.792 358.136L129.779 358.024ZM102.817 337.821L102.371 338.719L102.371 338.719L102.817 337.821ZM106.035 332.635L106.543 331.775L106.408 331.686L106.256 331.641L106.035 332.635ZM149.235 354.04L149.512 353.064L149.457 353.045L149.402 353.032L149.235 354.04ZM150.857 360.651L150.636 361.645L150.715 361.668L150.795 361.678L150.857 360.651ZM138.542 358.048L138.771 359.068L138.542 358.048ZM138.442 363.13L139.069 362.362L138.442 363.13ZM151.632 367.4L151.818 366.397L151.632 367.4ZM161.085 370.306L160.459 371.074L160.519 371.128L160.587 371.172L161.085 370.306ZM160.665 376.827L160.662 377.86L160.743 377.865L160.823 377.856L160.665 376.827ZM105.71 362.402L106.07 361.46L106.07 361.46L105.71 362.402ZM104.195 361.737L104.416 360.743L104.195 361.737ZM104.579 366.961L104.986 366.042L104.896 365.996L104.8 365.967L104.579 366.961ZM166.209 382.037L166.337 383.069L166.344 383.068L166.352 383.068L166.209 382.037ZM177.185 388.334L177.953 389.044L177.953 389.044L177.185 388.334ZM167.511 390.086L167.733 389.092L167.479 389.018L167.23 389.078L167.511 390.086ZM104.335 384.267L104.847 383.411L104.807 383.384L104.765 383.36L104.335 384.267ZM179.455 396.669L179.364 395.635L179.364 395.635L179.455 396.669ZM188.19 393.86L187.247 393.456L187.247 393.456L188.19 393.86ZM188.482 393.193L187.629 392.599L188.482 393.193ZM185.301 387.492L186.1 386.917L186.099 386.917L185.301 387.492ZM182.66 382.279L182.676 383.313L182.708 383.314L182.74 383.314L182.66 382.279ZM236.563 369.524L237.162 370.389L237.162 370.389L236.563 369.524ZM233.546 364.547L233.971 365.508L234.021 365.487L234.069 365.46L233.546 364.547ZM175.016 374.918L175.078 373.891L175.016 374.918ZM172.212 368.981L172.182 367.947L172.151 367.946L172.121 367.947L172.212 368.981ZM225.033 351.82L224.51 350.907L224.448 350.942L224.392 350.987L225.033 351.82ZM158.652 360.39L158.025 361.158L158.025 361.158L158.652 360.39ZM160.475 356.838L160.253 357.832L160.303 357.846L160.353 357.856L160.475 356.838ZM239.522 333.085L238.883 332.25L238.78 332.332L238.703 332.439L239.522 333.085ZM245.173 337.815L245.82 338.643L245.849 338.619L245.876 338.594L245.173 337.815ZM233.79 347.242L234.454 348.055L233.79 347.242ZM234.939 352.482L234.597 353.433L234.597 353.433L234.939 352.482ZM236.11 353.036L235.663 353.933L235.663 353.933L236.11 353.036ZM247.173 345.048L246.429 344.311L247.173 345.048ZM255.895 346.927L255.198 347.625L255.895 346.927ZM256.854 347.898L257.48 347.13L257.48 347.13L256.854 347.898ZM244.054 358.859L243.478 357.979L243.478 357.979L244.054 358.859ZM242.893 359.632L243.471 360.511L243.472 360.51L242.893 359.632ZM248.601 366.424L248.692 367.458L248.692 367.458L248.601 366.424ZM259.706 359.421L260.32 360.275L259.706 359.421ZM267.239 354.532L267.017 355.526L267.128 355.559L267.241 355.565L267.239 354.532ZM259.464 368.599L258.941 367.686L258.893 367.713L258.849 367.746L259.464 368.599ZM234.631 379.014L234.371 378.001L234.631 379.014ZM228.838 381.05L227.986 380.456L227.946 380.52L227.917 380.59L228.838 381.05ZM249.055 382.913L249.356 383.916L249.356 383.916L249.055 382.913ZM274.154 366.271L273.494 365.454L273.494 365.454L274.154 366.271ZM285.198 357.264L285.824 358.109L285.198 357.264ZM311.659 289.409L310.664 289.224L310.664 289.224L311.659 289.409ZM312.198 285.465L313.188 285.678L313.188 285.678L312.198 285.465ZM312.45 278.909L313.077 278.141L313.077 278.141L312.45 278.909ZM308.634 279.83L307.709 279.379L307.685 279.436L307.669 279.495L308.634 279.83ZM277.931 350.524L277.783 349.494L277.931 350.524ZM272.714 348.477L273.34 347.71L273.286 347.661L273.226 347.621L272.714 348.477ZM274.366 338.742L273.843 337.829L273.843 337.829L274.366 338.742ZM276.823 327.71L277.336 326.853L277.336 326.853L276.823 327.71ZM264.051 343.372L264.574 344.285L264.574 344.285L264.051 343.372ZM256.748 334.115L255.869 334.557L256.748 334.115ZM256.079 332.848L256.92 332.336L256.079 332.848ZM259.8 329.265L259.244 328.372L259.8 329.265ZM262.415 327.557L261.817 326.693L261.817 326.693L262.415 327.557ZM263.05 320.077L262.627 320.988L263.05 320.077ZM253.091 326.982L253.871 327.678L253.091 326.982ZM250.591 329.699L250.068 328.786L250.068 328.786L250.591 329.699ZM247.303 323.62L246.37 323.187L246.259 323.474L246.326 323.786L247.303 323.62ZM255.172 299.87L254.195 299.582L255.172 299.87ZM257.831 293.884L258.295 292.997L258.295 292.997L257.831 293.884ZM258.497 294.204L258.718 293.21L258.497 294.204ZM258.149 301.66L257.159 301.442L258.149 301.66ZM257.499 310.266L258.446 309.989L257.499 310.266ZM263.037 310.874L264.014 311.161L263.037 310.874ZM263.156 310.362L262.182 310.061L262.182 310.061L263.156 310.362ZM266.115 283.158L265.138 283.328L265.138 283.328L266.115 283.158ZM259.338 281.163L258.443 281.572L259.148 283.064L260.124 281.852L259.338 281.163ZM260.397 262.59L259.403 262.403L260.397 262.59ZM261.342 253.642L260.342 253.526L261.342 253.642ZM267.15 255.352L268.089 255.769L268.113 255.706L268.127 255.639L267.15 255.352ZM266.963 274.719L267.301 273.767L267.244 273.742L267.185 273.725L266.963 274.719ZM273.864 255.548L274.85 255.788L274.85 255.788L273.864 255.548ZM274.084 254.326L273.25 253.703L273.148 253.856L273.107 254.039L274.084 254.326ZM268.13 304.359L269.104 304.66L269.104 304.66L268.13 304.359ZM267.493 307.074L268.47 307.362L267.493 307.074ZM266.79 309.626L265.835 309.256L265.835 309.256L266.79 309.626ZM269.065 316.226L268.381 316.939L269.065 316.226ZM284.092 260.339L285.077 260.585L285.1 260.458L285.091 260.327L284.092 260.339ZM286.549 249.307L286.161 248.331L286.049 248.373L285.951 248.442L286.549 249.307ZM280.022 308.718L279.065 308.353L279.065 308.353L280.022 308.718ZM278.871 311.927L279.804 312.36L279.804 312.36L278.871 311.927ZM282.619 320.216L282.397 321.21L283.189 321.443L283.529 320.702L282.619 320.216ZM208.983 143.675L208.936 144.704L208.983 143.675ZM205.174 149.198L204.499 149.92L204.751 150.172L205.09 150.222L205.174 149.198ZM292.097 237.932L291.099 237.961L292.097 237.932ZM292.288 239.752L291.318 239.95L291.318 239.95L292.288 239.752ZM286.479 238.042L287.449 237.844L287.443 237.817L287.435 237.791L286.479 238.042ZM245.69 173.391L245.681 174.424L245.817 174.433L245.948 174.405L245.69 173.391ZM278.25 235.62L279.252 235.666L278.25 235.62ZM274.014 243.061L273.03 243.192L273.151 243.866L273.793 244.055L274.014 243.061ZM268.57 232.77L268.618 233.805L268.57 232.77ZM269.608 244.32L269.763 245.35L271.03 245.221L270.53 243.973L269.608 244.32ZM258.959 241.185L259.936 241.473L259.984 241.257L259.939 241.035L258.959 241.185ZM236.248 193.586L235.703 194.42L236.248 193.586ZM232.704 190.013L231.782 190.359L232.704 190.013ZM234.892 184.862L234.676 183.84L234.676 183.84L234.892 184.862ZM237.588 184.295L237.907 185.294L237.942 185.284L237.976 185.271L237.588 184.295ZM264.838 225.092L265.736 224.691L264.838 225.092ZM266.79 229.18L267.631 228.668L266.79 229.18ZM270.065 226.055L269.09 226.232L269.113 226.335L269.156 226.433L270.065 226.055ZM198.191 152.765L198.256 153.799L198.455 153.798L198.634 153.718L198.191 152.765ZM217.135 170.537L216.634 171.402L216.634 171.402L217.135 170.537ZM228.548 178.567L227.831 179.244L228.548 178.567ZM222.376 185.439L221.972 186.36L222.321 186.54L222.685 186.44L222.376 185.439ZM201.719 176.292L201.497 177.286L201.719 176.292ZM167.402 163.635L166.879 162.722L166.879 162.722L167.402 163.635ZM190.754 167.819L190.569 168.823L190.754 167.819ZM197.569 169.448L197.654 168.424L197.569 169.448ZM195.249 163.654L194.962 164.626L194.995 164.638L195.028 164.648L195.249 163.654ZM125.516 162.666L125.924 163.634L125.516 162.666ZM124.178 163.178L123.832 162.187L123.832 162.187L124.178 163.178ZM128.327 170.021L128.629 171.024L128.642 171.021L128.654 171.017L128.327 170.021ZM161.059 164.323L162 164.735L162.537 163.253L160.979 163.288L161.059 164.323ZM138.008 172.871L138.119 173.904L138.198 173.9L138.274 173.883L138.008 172.871ZM83.5105 220.717L82.8264 221.43L83.7911 222.418L84.3995 221.247L83.5105 220.717ZM99.7183 187.581L100.468 188.312L99.7183 187.581ZM105.547 179.671L105.326 180.665L105.547 179.671ZM77.5925 207.484L76.602 207.578L76.9979 210.312L78.4351 208.094L77.5925 207.484ZM108.165 168.954L107.563 168.092L108.165 168.954ZM117.401 161.183L116.425 160.895L117.401 161.183ZM90.7595 164.383L91.2219 165.327L90.7595 164.383ZM83.4881 167.555L83.2179 166.544L83.4881 167.555ZM78.6476 166.13L78.1339 165.212L78.1087 165.226L78.0846 165.242L78.6476 166.13ZM180.204 149.416L180.325 148.398L180.204 149.416ZM182.865 149.787L182.097 149.077L182.097 149.077L182.865 149.787ZM183.546 149.359L184.045 150.286L184.045 150.286L183.546 149.359ZM185.284 182.679L184.966 183.639L185.284 182.679ZM96.4039 228.913L97.3728 229.234L96.4039 228.913ZM159.285 345.151L159.292 344.119L159.285 345.151ZM77.5925 207.484L78.583 207.39L78.1871 204.656L76.7499 206.874L77.5925 207.484ZM77.632 207.742L78.42 208.428L78.6933 208.085L78.6198 207.63L77.632 207.742ZM36.4129 195.869C41.9571 184.975 57.2106 168.554 80.8968 156.27C104.552 144.002 136.559 135.894 175.566 141.531L175.729 139.482C136.285 133.781 103.883 141.98 79.9157 154.409C55.979 166.823 40.3948 183.491 34.6275 194.823L36.4129 195.869ZM35.6425 199.471L36.4971 195.633L34.5433 195.058L33.6886 198.896L35.6425 199.471ZM90.5926 373.065C63.2266 356.608 13.527 298.765 35.6425 199.471L33.6886 198.896C11.3617 299.139 61.536 357.924 89.6622 374.838L90.5926 373.065ZM94.251 372.028C94.4171 372.86 94.294 373.231 94.1985 373.383C94.1114 373.521 93.9364 373.654 93.5483 373.705C92.7077 373.816 91.4519 373.456 90.4911 373.011L89.7637 374.892C90.8292 375.385 92.5154 375.942 93.9152 375.758C94.6474 375.662 95.4173 375.344 95.8975 374.581C96.3693 373.831 96.436 372.847 96.2123 371.725L94.251 372.028ZM40.754 208.566C37.936 219.995 32.0211 243.964 36.512 273.608C41.0079 303.285 55.9195 338.57 94.6081 372.647L95.8551 371.106C57.5644 337.38 42.9098 302.574 38.491 273.406C34.0671 244.205 39.8888 220.576 42.6973 209.186L40.754 208.566ZM41.6536 204.818C41.4244 205.847 41.1165 207.096 40.754 208.566L42.6973 209.186C43.0579 207.724 43.3721 206.449 43.6074 205.393L41.6536 204.818ZM66.8112 171.68C63.2675 174.269 57.785 179.006 52.7938 184.843C47.8166 190.664 43.2443 197.676 41.6536 204.818L43.6074 205.393C45.0935 198.721 49.4257 191.998 54.3291 186.264C59.2186 180.545 64.593 175.905 68.0307 173.393L66.8112 171.68ZM69.8246 174.865C70.2116 174.518 70.6125 174.047 70.9219 173.576C71.0776 173.339 71.2227 173.083 71.3321 172.826C71.4343 172.586 71.5403 172.264 71.5398 171.916C71.5392 171.53 71.3932 170.991 70.8721 170.659C70.4464 170.388 69.9819 170.403 69.6638 170.451C68.9959 170.552 68.0891 170.944 66.898 171.624L67.9439 173.449C68.5148 173.124 68.9722 172.894 69.3329 172.741C69.7006 172.584 69.9353 172.519 70.0673 172.499C70.1312 172.49 70.1449 172.495 70.1217 172.492C70.0982 172.489 70.0077 172.475 69.894 172.403C69.7687 172.323 69.6644 172.203 69.6005 172.064C69.5425 171.938 69.5364 171.837 69.5364 171.798C69.5363 171.758 69.5421 171.748 69.5352 171.775C69.5288 171.8 69.5154 171.842 69.4901 171.902C69.4387 172.022 69.356 172.175 69.2434 172.346C69.0164 172.691 68.7196 173.037 68.4624 173.267L69.8246 174.865ZM41.6321 246.306C41.5183 245.659 41.5289 244.291 41.7263 242.247C41.9198 240.246 42.2808 237.701 42.8102 234.767C43.8689 228.9 45.594 221.513 47.9728 213.856C50.3522 206.197 53.3788 198.291 57.0341 191.373C60.696 184.442 64.954 178.571 69.7673 174.912L68.5196 173.22C63.3982 177.114 58.9844 183.257 55.2625 190.301C51.5342 197.357 48.465 205.385 46.0617 213.12C43.6577 220.858 41.913 228.326 40.8399 234.274C40.3035 237.247 39.9331 239.85 39.7327 241.923C39.5364 243.954 39.4908 245.588 39.6616 246.559L41.6321 246.306ZM76.3349 345.529C72.0743 339.88 42.4098 300.542 41.6484 246.478L39.6452 246.386C40.4169 301.184 70.4616 341.011 74.782 346.74L76.3349 345.529ZM76.8974 346.299C76.8121 346.158 76.5841 345.859 76.3349 345.529L74.7821 346.74C74.9237 346.927 75.0335 347.073 75.114 347.181C75.1542 347.236 75.1838 347.276 75.2046 347.306C75.2301 347.341 75.2286 347.341 75.217 347.322L76.8974 346.299ZM96.9487 364.167C93.8448 363.254 85.1587 358.374 76.864 346.247L75.2504 347.374C83.7639 359.821 92.8331 365.074 96.5059 366.155L96.9487 364.167ZM95.0267 362.09C96.1927 362.877 96.3509 363.489 96.3632 363.743C96.3798 364.084 96.1809 364.262 96.2043 364.249L97.2503 366.074C97.8645 365.724 98.4168 364.845 98.3641 363.76C98.3072 362.588 97.5758 361.405 96.0512 360.377L95.0267 362.09ZM48.8923 232.528C44.4746 254.709 47.5715 311.414 94.8387 361.93L96.2392 360.538C49.5191 310.606 46.5553 254.65 50.8557 233.058L48.8923 232.528ZM82.9932 173.327C73.5918 179.262 53.787 199.338 48.8835 232.579L50.8645 233.007C55.6725 200.414 75.1058 180.794 84.1095 175.11L82.9932 173.327ZM90.2279 177.048C91.8549 176.45 93.3375 175.614 94.3914 174.778C94.9141 174.363 95.369 173.919 95.679 173.471C95.945 173.087 96.3003 172.418 96.055 171.668C95.776 170.815 94.9753 170.527 94.4129 170.435C93.7951 170.333 93.002 170.372 92.0468 170.526C90.1174 170.839 87.2367 171.674 83.1539 173.246L83.9488 175.191C87.99 173.634 90.7304 172.853 92.4695 172.571C93.3486 172.429 93.9018 172.427 94.2109 172.478C94.5754 172.538 94.2825 172.598 94.1607 172.226C94.0727 171.957 94.2348 171.902 94.0261 172.203C93.8613 172.441 93.5598 172.755 93.1135 173.109C92.2292 173.811 90.9226 174.556 89.4599 175.093L90.2279 177.048ZM60.2404 218.646C62.6597 212.763 67.0848 203.6 72.4793 195.266C75.1762 191.099 78.1032 187.159 81.1297 183.944C84.1646 180.72 87.2528 178.276 90.2618 177.035L89.4261 175.106C86.0737 176.49 82.7744 179.143 79.6541 182.457C76.5254 185.78 73.5294 189.82 70.7937 194.047C65.3232 202.499 60.8452 211.772 58.3893 217.743L60.2404 218.646ZM57.8619 277.679C56.5914 269.634 55.9836 257.769 56.3043 246.429C56.6261 235.047 57.8798 224.385 60.2404 218.646L58.3893 217.743C55.8747 223.857 54.6237 234.861 54.3017 246.247C53.9786 257.675 54.5877 269.679 55.8851 277.894L57.8619 277.679ZM60.0083 275.395C60.0246 275.985 59.6947 276.535 59.1258 276.86C58.5575 277.184 57.8764 277.208 57.3197 276.888L56.4273 278.684C57.7 279.414 59.1153 279.288 60.1718 278.685C61.2279 278.083 62.0514 276.928 62.0109 275.457L60.0083 275.395ZM60.2784 270.832C60.2078 272.155 60.1505 273.227 60.1061 273.99C60.0838 274.372 60.065 274.673 60.0495 274.886C60.0304 275.15 60.0217 275.188 60.0327 275.138L61.9866 275.714C62.0172 275.576 62.0344 275.34 62.0474 275.161C62.0639 274.932 62.0835 274.62 62.1059 274.235C62.1507 273.465 62.2083 272.387 62.2788 271.066L60.2784 270.832ZM65.6411 219.903C64.8418 221.989 64.1611 225.511 63.5725 229.708C62.9797 233.934 62.4685 238.94 62.033 244.053C61.1621 254.28 60.5907 264.983 60.2784 270.832L62.2788 271.066C62.5912 265.215 63.1611 254.543 64.0288 244.353C64.4627 239.258 64.9702 234.295 65.5556 230.121C66.1451 225.918 66.802 222.608 67.51 220.76L65.6411 219.903ZM74.1468 220.502C73.8878 219.609 73.5102 218.603 73.0272 217.715C72.5622 216.86 71.9173 215.961 71.0613 215.483C70.6085 215.231 70.0908 215.094 69.5388 215.159C68.9948 215.224 68.4986 215.476 68.0535 215.857C67.1897 216.597 66.3974 217.929 65.6411 219.903L67.51 220.76C68.2318 218.876 68.8837 217.911 69.3852 217.482C69.6226 217.278 69.7892 217.227 69.8827 217.216C69.9681 217.205 70.0625 217.22 70.1907 217.291C70.497 217.462 70.8901 217.904 71.2944 218.647C71.6805 219.356 72.0031 220.204 72.2303 220.988L74.1468 220.502ZM70.0472 284.732C70.1467 284.794 70.1593 284.843 70.1109 284.766C70.0686 284.699 70.0067 284.579 69.9326 284.385C69.7843 283.999 69.6292 283.434 69.4769 282.686C69.1738 281.196 68.9096 279.121 68.7026 276.603C68.2891 271.574 68.1117 264.884 68.2756 257.806C68.4395 250.727 68.944 243.286 69.8879 236.751C70.8366 230.183 72.2137 224.648 74.0657 221.297L72.3114 220.193C70.2759 223.876 68.8604 229.721 67.906 236.329C66.9469 242.97 66.438 250.499 66.2728 257.635C66.1076 264.77 66.2855 271.538 66.7064 276.657C66.9165 279.213 67.1893 281.385 67.5173 282.996C67.6805 283.798 67.8645 284.497 68.0756 285.048C68.1812 285.323 68.3041 285.59 68.4512 285.823C68.5923 286.047 68.799 286.31 69.0969 286.494L70.0472 284.732ZM74.8815 283.803C75.2663 284.521 75.0729 285.514 74.359 286.003C73.7389 286.428 72.3684 286.64 70.17 284.821L68.9742 286.406C71.5661 288.551 73.9358 288.843 75.5331 287.748C77.0365 286.718 77.5376 284.593 76.6209 282.883L74.8815 283.803ZM78.1741 230.774C76.0751 236.691 73.3916 246.406 72.1482 256.369C70.9125 266.269 71.0621 276.679 74.8815 283.803L76.6209 282.883C73.1525 276.414 72.9058 266.603 74.1354 256.751C75.3572 246.961 78.0005 237.391 80.0602 231.584L78.1741 230.774ZM82.2279 231.14C82.384 230.602 82.3804 230.01 82.266 229.5C82.1658 229.053 81.9076 228.367 81.2847 228.014C80.9281 227.812 80.526 227.768 80.1475 227.887C79.7993 227.996 79.5237 228.223 79.3089 228.47C78.8855 228.956 78.5104 229.731 78.165 230.8L80.0692 231.558C80.3875 230.573 80.6642 230.097 80.8325 229.904C80.9135 229.811 80.9187 229.843 80.8301 229.87C80.7113 229.908 80.5478 229.897 80.4026 229.815C80.286 229.749 80.2513 229.677 80.2626 229.697C80.2708 229.711 80.2949 229.762 80.3155 229.854C80.3584 230.045 80.3551 230.271 80.306 230.44L82.2279 231.14ZM97.6648 318.597C91.2947 309.995 68.3269 279.006 82.2279 231.14L80.306 230.44C66.1209 279.284 89.6067 311.024 96.1001 319.792L97.6648 318.597ZM99.1172 320.64C98.8361 320.176 98.3093 319.467 97.6648 318.597L96.1001 319.792C96.782 320.713 97.2244 321.312 97.4369 321.663L99.1172 320.64ZM97.1183 329.299C97.9969 328.905 98.7744 328.498 99.3822 328.02C99.9999 327.535 100.494 326.937 100.718 326.147C100.942 325.358 100.858 324.513 100.574 323.624C100.293 322.745 99.7968 321.761 99.1172 320.64L97.4368 321.663C98.0775 322.719 98.4712 323.53 98.6746 324.167C98.875 324.794 98.8699 325.187 98.7927 325.459C98.7158 325.731 98.5292 326.018 98.1115 326.346C97.6839 326.682 97.0714 327.016 96.2308 327.393L97.1183 329.299ZM78.2393 302.217C81.2588 307.71 85.0747 314.652 88.4341 320.089C90.1103 322.802 91.6966 325.179 93.0294 326.822C93.6904 327.636 94.3305 328.322 94.9216 328.777C95.4318 329.169 96.2796 329.676 97.1183 329.299L96.2308 327.393C96.4781 327.282 96.5222 327.501 96.0552 327.142C95.6689 326.845 95.1582 326.318 94.5333 325.548C93.2946 324.021 91.7696 321.745 90.1046 319.05C86.7813 313.671 82.9945 306.783 79.9675 301.277L78.2393 302.217ZM73.0946 293.224C73.0601 293.194 73.0893 293.214 73.2008 293.37C73.2965 293.504 73.42 293.691 73.5719 293.933C73.875 294.417 74.2648 295.08 74.7302 295.896C75.6603 297.525 76.8664 299.719 78.2393 302.217L79.9675 301.277C78.598 298.785 77.3818 296.573 76.4408 294.924C75.9708 294.1 75.5629 293.406 75.235 292.882C75.0714 292.621 74.921 292.392 74.7881 292.206C74.6711 292.042 74.517 291.839 74.3481 291.689L73.0946 293.224ZM71.982 293.215C71.9698 292.774 72.0238 292.542 72.0651 292.444C72.0938 292.376 72.074 292.456 71.9654 292.482C71.9022 292.497 71.9488 292.457 72.1803 292.569C72.4019 292.675 72.7078 292.881 73.0946 293.224L74.3481 291.689C73.8737 291.268 73.3993 290.924 72.9367 290.702C72.4839 290.484 71.9424 290.335 71.4022 290.465C70.8167 290.606 70.4312 291.026 70.2204 291.526C70.0222 291.997 69.9631 292.561 69.9794 293.152L71.982 293.215ZM126.833 359.675C125.529 359.292 114.07 354.677 101.795 344.099C89.5454 333.544 76.5361 317.097 71.9632 293.042L69.9981 293.324C74.688 317.995 88.0419 334.864 100.566 345.656C113.064 356.427 124.79 361.192 126.39 361.663L126.833 359.675ZM128.792 358.136C128.894 358.767 128.915 359.21 128.881 359.511C128.848 359.802 128.775 359.867 128.766 359.875C128.754 359.886 128.665 359.961 128.337 359.959C128.004 359.958 127.519 359.877 126.833 359.675L126.39 361.663C127.156 361.889 127.847 362.027 128.448 362.029C129.054 362.031 129.657 361.894 130.128 361.472C130.602 361.048 130.804 360.459 130.871 359.869C130.937 359.288 130.882 358.623 130.767 357.913L128.792 358.136ZM102.371 338.719C103.234 339.214 109.826 343.564 116.288 348.152C119.511 350.44 122.675 352.768 125.054 354.685C126.246 355.645 127.221 356.486 127.903 357.158C128.245 357.495 128.493 357.769 128.653 357.978C128.844 358.228 128.812 358.26 128.792 358.136L130.767 357.913C130.693 357.453 130.416 357.042 130.197 356.755C129.947 356.428 129.618 356.072 129.24 355.7C128.481 354.953 127.44 354.059 126.227 353.081C123.796 351.123 120.59 348.764 117.355 346.468C110.902 341.887 104.229 337.477 103.263 336.923L102.371 338.719ZM106.256 331.641C105.281 331.354 104.374 331.654 103.678 332.117C102.978 332.582 102.388 333.272 101.966 333.996C101.548 334.714 101.244 335.554 101.207 336.359C101.17 337.166 101.416 338.171 102.371 338.719L103.263 336.923C103.253 336.917 103.253 336.92 103.244 336.899C103.228 336.86 103.2 336.76 103.208 336.576C103.225 336.199 103.386 335.675 103.699 335.138C104.007 334.608 104.414 334.153 104.83 333.877C105.25 333.598 105.579 333.56 105.814 333.629L106.256 331.641ZM149.402 353.032C143.829 351.724 127.299 345.624 106.543 331.775L105.527 333.494C126.443 347.45 143.203 353.672 149.068 355.049L149.402 353.032ZM150.795 361.678C152.827 361.931 154.569 360.478 154.613 358.44C154.658 356.329 152.933 354.287 149.512 353.064L148.958 355.016C152.034 356.115 152.625 357.565 152.61 358.273C152.594 359.055 151.899 359.746 150.919 359.624L150.795 361.678ZM138.771 359.068C139.02 359.023 139.636 359.052 140.623 359.206C141.56 359.352 142.701 359.588 143.91 359.868C146.326 360.427 148.955 361.15 150.636 361.645L151.079 359.657C149.371 359.154 146.702 358.42 144.238 357.85C143.007 357.565 141.812 357.317 140.808 357.16C139.854 357.011 138.925 356.918 138.314 357.029L138.771 359.068ZM139.069 362.362C138.443 361.807 138.062 360.929 138.041 360.193C138.032 359.836 138.108 359.573 138.218 359.404C138.317 359.252 138.476 359.121 138.771 359.068L138.314 357.029C137.533 357.17 136.927 357.58 136.537 358.179C136.158 358.76 136.02 359.456 136.039 360.13C136.075 361.456 136.718 362.924 137.815 363.898L139.069 362.362ZM151.818 366.397C149.026 365.683 146.108 364.937 143.71 364.213C142.51 363.85 141.461 363.5 140.634 363.168C139.767 362.82 139.27 362.541 139.069 362.362L137.815 363.898C138.325 364.35 139.136 364.742 140.006 365.091C140.914 365.456 142.029 365.827 143.253 366.197C145.702 366.936 148.666 367.694 151.446 368.404L151.818 366.397ZM161.712 369.538C161.506 369.356 161.256 369.214 161.032 369.103C160.794 368.985 160.517 368.87 160.215 368.756C159.611 368.528 158.851 368.287 157.993 368.037C156.275 367.536 154.086 366.976 151.818 366.397L151.446 368.404C153.726 368.987 155.877 369.537 157.555 370.026C158.395 370.271 159.097 370.495 159.627 370.695C159.893 370.796 160.101 370.884 160.255 370.96C160.423 371.043 160.471 371.085 160.459 371.074L161.712 369.538ZM160.823 377.856C161.629 377.772 162.543 377.591 163.354 377.276C164.134 376.974 164.98 376.488 165.435 375.687C165.676 375.263 165.799 374.764 165.746 374.209C165.694 373.666 165.48 373.135 165.151 372.627C164.509 371.634 163.339 370.586 161.584 369.441L160.587 371.172C162.254 372.26 163.117 373.105 163.505 373.705C163.692 373.994 163.742 374.184 163.752 374.292C163.762 374.389 163.745 374.471 163.692 374.563C163.561 374.794 163.205 375.081 162.556 375.333C161.939 375.572 161.197 375.725 160.506 375.797L160.823 377.856ZM105.351 363.344C111.287 366.061 133.243 376.113 160.662 377.86L160.668 375.794C133.628 374.071 111.953 364.152 106.07 361.46L105.351 363.344ZM103.974 362.731C103.964 362.729 103.988 362.736 104.069 362.769C104.142 362.799 104.239 362.841 104.362 362.895C104.609 363.005 104.937 363.155 105.351 363.344L106.07 361.46C105.661 361.272 105.32 361.116 105.059 361.001C104.825 360.897 104.584 360.793 104.416 360.743L103.974 362.731ZM104.8 365.967C104.373 365.842 104.127 365.596 103.971 365.287C103.798 364.947 103.719 364.489 103.753 364.001C103.786 363.51 103.926 363.096 104.078 362.86C104.261 362.575 104.242 362.81 103.974 362.731L104.416 360.743C103.422 360.451 102.724 361.125 102.389 361.646C102.023 362.216 101.806 362.974 101.754 363.736C101.702 364.501 101.809 365.376 102.208 366.161C102.623 366.979 103.333 367.654 104.357 367.955L104.8 365.967ZM166.082 381.004C156.468 381.69 129.77 378.92 104.986 366.042L104.172 367.88C129.314 380.944 156.385 383.779 166.337 383.069L166.082 381.004ZM177.953 389.044C178.381 388.543 178.872 387.732 179.103 386.787C179.336 385.829 179.321 384.621 178.542 383.515C177.782 382.434 176.443 381.667 174.487 381.237C172.521 380.804 169.798 380.68 166.067 381.005L166.352 383.068C169.985 382.75 172.49 382.887 174.181 383.26C175.882 383.634 176.628 384.215 176.946 384.666C177.244 385.09 177.299 385.596 177.158 386.173C177.014 386.763 176.687 387.308 176.417 387.624L177.953 389.044ZM167.29 391.08C167.922 391.267 168.802 391.328 169.713 391.318C170.65 391.307 171.712 391.219 172.754 391.061C173.792 390.902 174.836 390.67 175.726 390.36C176.578 390.064 177.436 389.65 177.953 389.044L176.417 387.624C176.237 387.835 175.779 388.12 174.989 388.395C174.237 388.656 173.312 388.866 172.348 389.013C171.388 389.159 170.414 389.239 169.574 389.248C168.707 389.258 168.068 389.191 167.733 389.092L167.29 391.08ZM103.246 379.895C104.029 380.125 108.222 381.001 114.03 382.154C119.876 383.316 127.437 384.775 135.027 386.178C142.616 387.581 150.24 388.93 156.209 389.87C159.192 390.34 161.772 390.71 163.731 390.934C164.709 391.045 165.545 391.122 166.205 391.156C166.822 391.187 167.403 391.189 167.793 391.095L167.23 389.078C167.143 389.099 166.829 389.121 166.185 389.088C165.585 389.058 164.795 388.986 163.835 388.877C161.917 388.658 159.37 388.293 156.397 387.825C150.453 386.888 142.849 385.543 135.267 384.141C127.686 382.74 120.133 381.283 114.295 380.123C108.419 378.955 104.357 378.104 103.688 377.907L103.246 379.895ZM104.765 383.36C103.343 382.576 102.49 381.858 102.023 381.283C101.554 380.705 101.543 380.369 101.561 380.256C101.577 380.157 101.652 380 101.942 379.885C102.237 379.769 102.695 379.733 103.246 379.895L103.688 377.907C102.786 377.641 101.88 377.651 101.133 377.946C100.38 378.243 99.7343 378.864 99.5838 379.802C99.4354 380.726 99.8122 381.686 100.52 382.557C101.229 383.43 102.341 384.312 103.905 385.174L104.765 383.36ZM179.364 395.635C174.763 395.789 159.406 394.963 143.495 392.96C135.549 391.96 127.493 390.668 120.597 389.067C113.658 387.455 108.034 385.559 104.847 383.411L103.823 385.124C107.362 387.511 113.322 389.472 120.268 391.085C127.257 392.708 135.386 394.009 143.369 395.014C159.317 397.022 174.794 397.862 179.546 397.703L179.364 395.635ZM187.247 393.456C187.139 393.762 187.072 393.934 186.947 394.099C186.831 394.252 186.62 394.453 186.157 394.662C185.184 395.102 183.266 395.504 179.364 395.635L179.546 397.703C183.481 397.571 185.719 397.167 187.049 396.566C187.738 396.255 188.215 395.877 188.552 395.433C188.88 395 189.031 394.555 189.134 394.264L187.247 393.456ZM187.629 392.599C187.435 392.913 187.323 393.239 187.247 393.456L189.134 394.264C189.22 394.018 189.268 393.894 189.335 393.787L187.629 392.599ZM184.503 388.068C185.387 389.326 186.254 390.559 186.853 391.553C187.156 392.054 187.361 392.447 187.468 392.724C187.494 392.79 187.511 392.841 187.521 392.88C187.532 392.919 187.534 392.937 187.534 392.936C187.534 392.935 187.533 392.926 187.533 392.912C187.533 392.898 187.534 392.875 187.538 392.846C187.546 392.787 187.569 392.696 187.629 392.599L189.335 393.787C189.551 393.439 189.553 393.059 189.523 392.806C189.492 392.542 189.411 392.283 189.322 392.054C189.144 391.594 188.858 391.068 188.536 390.534C187.887 389.458 186.969 388.153 186.1 386.917L184.503 388.068ZM182.644 381.245C182.336 381.232 181.861 381.308 181.559 381.757C181.293 382.152 181.335 382.597 181.378 382.831C181.466 383.314 181.745 383.865 182.022 384.35C182.612 385.381 183.573 386.746 184.503 388.068L186.099 386.917C185.145 385.559 184.257 384.295 183.732 383.377C183.604 383.152 183.507 382.965 183.439 382.814C183.405 382.739 183.382 382.679 183.366 382.633C183.359 382.611 183.353 382.594 183.35 382.581C183.346 382.569 183.345 382.563 183.346 382.563C183.346 382.563 183.347 382.573 183.348 382.59C183.35 382.606 183.35 382.635 183.347 382.672C183.34 382.747 183.314 382.873 183.226 383.003C183.021 383.309 182.72 383.315 182.676 383.313L182.644 381.245ZM235.965 368.66C233.037 370.731 226.164 373.748 216.725 376.318C207.317 378.879 195.449 380.971 182.581 381.245L182.74 383.314C195.783 383.037 207.806 380.917 217.34 378.321C226.844 375.734 233.967 372.649 237.162 370.389L235.965 368.66ZM234.069 365.46C234.023 365.486 234.096 365.441 234.385 365.423C234.635 365.407 234.959 365.417 235.321 365.459C236.062 365.547 236.827 365.758 237.347 366.057C237.881 366.363 237.858 366.553 237.848 366.625C237.833 366.741 237.756 366.981 237.458 367.346C237.163 367.709 236.688 368.148 235.965 368.66L237.162 370.389C237.969 369.818 238.585 369.269 239.022 368.733C239.456 368.2 239.752 367.631 239.833 367.025C240.017 365.652 239.078 364.742 238.24 364.261C237.388 363.772 236.325 363.509 235.433 363.404C234.977 363.35 234.534 363.333 234.147 363.357C233.798 363.379 233.363 363.44 233.023 363.635L234.069 365.46ZM174.954 375.945C179.623 376.527 190.107 375.72 201.472 373.891C212.865 372.059 225.326 369.17 233.971 365.508L233.12 363.586C224.68 367.162 212.392 370.022 201.051 371.846C189.68 373.675 179.441 374.435 175.078 373.891L174.954 375.945ZM172.121 367.947C171.722 367.961 171.333 368.111 171.017 368.279C170.682 368.456 170.344 368.697 170.034 368.98C169.437 369.525 168.825 370.337 168.656 371.306C168.567 371.811 168.6 372.367 168.832 372.921C169.063 373.473 169.461 373.951 169.991 374.348C171.021 375.119 172.637 375.656 174.954 375.945L175.078 373.891C172.878 373.617 171.69 373.137 171.104 372.697C170.826 372.489 170.713 372.313 170.664 372.196C170.616 372.081 170.599 371.952 170.628 371.788C170.692 371.42 170.975 370.963 171.41 370.566C171.616 370.377 171.828 370.229 172.012 370.132C172.213 370.025 172.312 370.015 172.303 370.016L172.121 367.947ZM227.312 356.054C225.788 357.679 220.724 360.93 211.599 363.641C202.52 366.337 189.507 368.472 172.182 367.947L172.241 370.016C189.754 370.546 202.97 368.391 212.256 365.632C221.495 362.888 226.932 359.519 228.79 357.539L227.312 356.054ZM225.556 352.732C225.732 352.632 226.091 352.57 226.577 352.676C227.047 352.778 227.501 353.012 227.815 353.314C228.115 353.603 228.261 353.92 228.254 354.274C228.246 354.653 228.059 355.258 227.312 356.054L228.79 357.539C229.734 356.533 230.236 355.488 230.257 354.438C230.278 353.363 229.791 352.472 229.135 351.84C228.493 351.222 227.67 350.824 226.88 350.652C226.105 350.482 225.22 350.502 224.51 350.907L225.556 352.732ZM158.025 361.158C158.199 361.312 158.404 361.419 158.552 361.489C158.721 361.57 158.92 361.65 159.138 361.729C159.575 361.888 160.145 362.062 160.825 362.243C162.188 362.607 164.048 363.013 166.292 363.395C170.781 364.16 176.844 364.832 183.603 364.856C197.091 364.904 213.512 362.369 225.675 352.652L224.392 350.987C212.713 360.318 196.804 362.833 183.492 362.786C176.852 362.763 170.898 362.102 166.504 361.354C164.306 360.98 162.508 360.585 161.217 360.241C160.57 360.068 160.062 359.912 159.701 359.781C159.52 359.715 159.388 359.66 159.301 359.619C159.191 359.566 159.213 359.564 159.279 359.622L158.025 361.158ZM160.696 355.844C159.206 355.405 157.914 356.201 157.316 357.271C156.696 358.382 156.713 359.993 158.025 361.158L159.279 359.622C158.868 359.258 158.829 358.808 159.066 358.382C159.327 357.916 159.807 357.7 160.253 357.832L160.696 355.844ZM238.703 332.439C230.143 344.427 207.722 364.625 160.596 355.82L160.353 357.856C208.3 366.814 231.409 346.237 240.34 333.73L238.703 332.439ZM245.876 338.594C246.871 337.644 247.34 336.472 247.307 335.286C247.275 334.113 246.755 333.014 245.936 332.207C244.247 330.544 241.454 330.21 238.883 332.25L240.161 333.919C242.1 332.38 243.77 332.849 244.598 333.665C245.038 334.097 245.289 334.657 245.305 335.223C245.32 335.775 245.113 336.424 244.471 337.036L245.876 338.594ZM234.454 348.055C238.01 345.023 243.512 340.518 245.82 338.643L244.526 336.987C242.216 338.864 236.7 343.381 233.126 346.428L234.454 348.055ZM235.281 351.532C234.745 351.299 234.241 351.078 233.812 350.827C233.368 350.568 233.137 350.349 233.039 350.187C232.989 350.104 232.933 349.991 233.05 349.701C233.193 349.346 233.578 348.801 234.454 348.055L233.126 346.428C232.16 347.251 231.507 348.033 231.193 348.812C230.853 349.657 230.921 350.486 231.357 351.208C231.745 351.85 232.361 352.296 232.904 352.614C233.462 352.94 234.086 353.21 234.597 353.433L235.281 351.532ZM236.556 352.138C236.176 351.92 235.703 351.716 235.281 351.532L234.597 353.433C235.056 353.632 235.407 353.787 235.663 353.933L236.556 352.138ZM246.429 344.311C244.405 346.505 242.136 348.722 240.166 350.253C239.176 351.022 238.302 351.587 237.598 351.896C237.247 352.051 236.977 352.125 236.783 352.146C236.589 352.166 236.538 352.127 236.556 352.138L235.663 353.933C236.139 354.206 236.649 354.253 237.103 354.204C237.557 354.156 238.021 354.007 238.474 353.808C239.379 353.409 240.391 352.74 241.429 351.933C243.513 350.313 245.861 348.012 247.917 345.784L246.429 344.311ZM256.593 346.228C255.636 345.211 254.167 343.63 252.434 342.853C251.535 342.451 250.528 342.245 249.465 342.455C248.406 342.665 247.39 343.27 246.429 344.311L247.917 345.784C248.677 344.961 249.364 344.605 249.953 344.488C250.539 344.372 251.125 344.474 251.73 344.745C253.001 345.314 254.173 346.537 255.198 347.625L256.593 346.228ZM257.48 347.13C257.257 346.931 256.974 346.632 256.593 346.228L255.198 347.625C255.551 348.001 255.912 348.386 256.227 348.665L257.48 347.13ZM244.63 359.739C247.048 358.133 250.673 355.725 253.496 353.538C254.9 352.451 256.152 351.384 256.96 350.473C257.353 350.03 257.71 349.549 257.893 349.065C257.987 348.817 258.063 348.497 258.017 348.141C257.967 347.75 257.78 347.396 257.48 347.13L256.227 348.665C256.125 348.575 256.049 348.435 256.031 348.293C256.017 348.186 256.046 348.149 256.021 348.215C255.967 348.359 255.8 348.629 255.447 349.027C254.761 349.801 253.623 350.781 252.235 351.856C249.475 353.994 245.908 356.364 243.478 357.979L244.63 359.739ZM243.472 360.51C243.814 360.282 244.203 360.023 244.63 359.739L243.478 357.979C243.051 358.262 242.659 358.523 242.314 358.754L243.472 360.51ZM248.51 365.389C247.918 365.409 247.054 365.225 246.114 364.845C245.186 364.47 244.279 363.94 243.603 363.355C242.897 362.744 242.594 362.21 242.55 361.84C242.519 361.577 242.587 361.103 243.471 360.511L242.314 358.754C241.077 359.582 240.408 360.679 240.562 361.973C240.703 363.158 241.509 364.164 242.371 364.909C243.262 365.68 244.383 366.322 245.48 366.767C246.566 367.206 247.725 367.49 248.692 367.458L248.51 365.389ZM259.092 358.568C256.884 360.2 254.555 361.921 252.566 363.242C251.571 363.903 250.68 364.451 249.945 364.834C249.163 365.241 248.7 365.383 248.51 365.389L248.692 367.458C249.356 367.436 250.157 367.095 250.929 366.693C251.748 366.266 252.701 365.677 253.718 365.002C255.753 363.65 258.122 361.899 260.32 360.275L259.092 358.568ZM267.46 353.538C267.066 353.422 266.697 353.531 266.521 353.589C266.292 353.664 266.046 353.779 265.799 353.909C265.302 354.172 264.689 354.56 264.008 355.02C262.642 355.944 260.905 357.227 259.092 358.568L260.32 360.275C262.145 358.926 263.846 357.669 265.172 356.772C265.838 356.322 266.385 355.979 266.793 355.764C266.999 355.655 267.142 355.593 267.23 355.564C267.371 355.518 267.248 355.594 267.017 355.526L267.46 353.538ZM259.987 369.512C262.743 367.939 266.947 364.469 269.39 361.288C270.006 360.487 270.531 359.676 270.893 358.895C271.248 358.129 271.489 357.3 271.421 356.487C271.348 355.604 270.913 354.827 270.115 354.296C269.378 353.806 268.397 353.567 267.236 353.499L267.241 355.565C268.245 355.624 268.81 355.823 269.101 356.017C269.332 356.171 269.407 356.323 269.426 356.545C269.45 356.837 269.366 357.29 269.076 357.914C268.795 358.522 268.358 359.209 267.793 359.945C265.513 362.913 261.502 366.225 258.941 367.686L259.987 369.512ZM234.89 380.028C240.729 378.767 250.27 376.711 260.078 369.452L258.849 367.746C249.378 374.756 240.171 376.749 234.371 378.001L234.89 380.028ZM229.691 381.644C229.714 381.608 229.8 381.504 230.055 381.363C230.303 381.225 230.65 381.084 231.115 380.937C232.051 380.642 233.309 380.369 234.89 380.028L234.371 378.001C232.823 378.335 231.467 378.627 230.429 378.955C229.908 379.119 229.429 379.304 229.027 379.527C228.631 379.747 228.244 380.04 227.986 380.456L229.691 381.644ZM248.753 381.909C243.242 383.37 237.482 384.802 233.519 384.935C232.538 384.967 231.707 384.918 231.042 384.786C230.366 384.651 229.94 384.446 229.692 384.232C229.479 384.049 229.347 383.82 229.317 383.445C229.285 383.025 229.384 382.399 229.76 381.511L227.917 380.59C227.475 381.633 227.251 382.605 227.321 383.491C227.393 384.422 227.788 385.207 228.462 385.788C229.099 386.337 229.916 386.646 230.775 386.817C231.642 386.99 232.636 387.039 233.701 387.003C237.923 386.862 243.905 385.361 249.356 383.916L248.753 381.909ZM273.494 365.454C269.038 369.209 264.745 372.825 260.596 375.763C256.441 378.705 252.497 380.917 248.753 381.909L249.356 383.916C253.417 382.839 257.573 380.48 261.793 377.492C266.018 374.501 270.372 370.831 274.814 367.088L273.494 365.454ZM284.573 356.419C280.793 359.303 277.092 362.422 273.494 365.454L274.814 367.088C278.418 364.051 282.085 360.962 285.824 358.109L284.573 356.419ZM310.664 289.224C310.528 290.378 309.636 294.546 308.143 300.376C306.659 306.174 304.599 313.547 302.151 321.073C299.703 328.604 296.873 336.268 293.851 342.657C290.808 349.091 287.641 354.078 284.573 356.419L285.824 358.109C289.281 355.47 292.61 350.103 295.661 343.652C298.733 337.157 301.593 329.405 304.055 321.834C306.518 314.26 308.59 306.845 310.082 301.013C311.567 295.213 312.497 290.909 312.653 289.593L310.664 289.224ZM311.207 285.252C311.024 286.501 310.826 287.856 310.664 289.224L312.653 289.593C312.811 288.258 313.005 286.931 313.188 285.678L311.207 285.252ZM311.823 279.676C311.644 279.517 311.707 279.405 311.748 279.762C311.78 280.046 311.78 280.46 311.741 281.016C311.664 282.122 311.452 283.578 311.207 285.252L313.188 285.678C313.429 284.034 313.656 282.488 313.74 281.285C313.781 280.686 313.792 280.119 313.737 279.639C313.691 279.233 313.569 278.578 313.077 278.141L311.823 279.676ZM309.56 280.281C310.029 279.14 310.493 279.087 310.678 279.091C311.016 279.099 311.448 279.344 311.823 279.676L313.077 278.141C312.591 277.709 311.678 277.047 310.604 277.022C309.378 276.994 308.365 277.784 307.709 279.379L309.56 280.281ZM278.08 351.555C279.578 351.415 281.235 350.931 283.132 349.22C284.99 347.543 287.058 344.706 289.478 339.921C294.318 330.35 300.698 312.717 309.6 280.165L307.669 279.495C298.772 312.032 292.435 329.499 287.69 338.88C285.318 343.571 283.376 346.172 281.764 347.627C280.191 349.046 278.919 349.387 277.783 349.494L278.08 351.555ZM272.087 349.245C272.964 350.024 274.99 351.845 278.08 351.555L277.783 349.494C275.605 349.698 274.185 348.46 273.34 347.71L272.087 349.245ZM273.843 337.829C273.516 338.016 273.241 338.34 273.033 338.626C272.803 338.941 272.569 339.329 272.344 339.759C271.893 340.62 271.445 341.709 271.125 342.838C270.808 343.956 270.596 345.182 270.671 346.297C270.746 347.402 271.125 348.608 272.201 349.334L273.226 347.621C272.957 347.44 272.723 347.059 272.67 346.275C272.618 345.499 272.766 344.531 273.05 343.526C273.332 342.532 273.728 341.57 274.118 340.825C274.314 340.453 274.499 340.15 274.658 339.932C274.838 339.686 274.921 339.636 274.889 339.654L273.843 337.829ZM276.311 328.566C276.974 329.013 277.269 329.638 277.308 330.475C277.349 331.364 277.087 332.434 276.627 333.538C276.174 334.628 275.563 335.669 274.994 336.476C274.711 336.878 274.445 337.212 274.224 337.458C274.114 337.581 274.02 337.676 273.946 337.743C273.866 337.816 273.833 337.835 273.843 337.829L274.889 339.654C275.175 339.491 275.471 339.2 275.729 338.913C276.009 338.602 276.321 338.207 276.638 337.756C277.272 336.857 277.958 335.693 278.475 334.448C278.987 333.219 279.37 331.828 279.309 330.498C279.245 329.117 278.691 327.767 277.336 326.853L276.311 328.566ZM272.375 335.628C272.388 335.68 272.366 335.567 272.394 335.188C272.418 334.863 272.471 334.438 272.556 333.952C272.727 332.977 273.019 331.811 273.43 330.773C273.853 329.705 274.35 328.909 274.861 328.52C275.099 328.339 275.308 328.27 275.497 328.266C275.685 328.263 275.948 328.322 276.311 328.566L277.336 326.853C276.689 326.417 276.019 326.185 275.344 326.197C274.672 326.21 274.092 326.463 273.611 326.829C272.686 327.534 272.03 328.731 271.569 329.895C271.096 331.089 270.773 332.393 270.584 333.468C270.49 334.007 270.426 334.502 270.396 334.91C270.37 335.263 270.355 335.696 270.435 336.024L272.375 335.628ZM264.574 344.285C265.865 343.548 267.842 341.865 269.435 340.269C270.239 339.463 270.978 338.647 271.507 337.944C271.769 337.596 272.001 337.248 272.161 336.924C272.241 336.763 272.317 336.58 272.365 336.388C272.41 336.206 272.45 335.933 272.375 335.628L270.435 336.024C270.413 335.935 270.412 335.865 270.414 335.827C270.415 335.807 270.417 335.792 270.419 335.782C270.42 335.773 270.421 335.767 270.422 335.767C270.422 335.766 270.419 335.777 270.41 335.801C270.4 335.825 270.386 335.857 270.366 335.897C270.282 336.069 270.128 336.31 269.898 336.615C269.443 337.221 268.77 337.969 267.997 338.743C266.436 340.308 264.6 341.847 263.528 342.459L264.574 344.285ZM255.869 334.557C256.666 336.11 258.026 338.766 259.446 340.893C260.149 341.947 260.916 342.945 261.68 343.615C262.381 344.227 263.491 344.903 264.574 344.285L263.528 342.459C263.528 342.459 263.536 342.456 263.545 342.455C263.55 342.455 263.534 342.457 263.487 342.442C263.38 342.407 263.192 342.304 262.922 342.068C262.383 341.597 261.748 340.797 261.074 339.787C259.738 337.786 258.435 335.249 257.628 333.674L255.869 334.557ZM255.239 333.359C255.335 333.518 255.543 333.92 255.869 334.557L257.628 333.674C257.328 333.089 257.07 332.584 256.92 332.336L255.239 333.359ZM259.244 328.372C258.119 329.078 256.986 329.787 256.212 330.442C255.831 330.764 255.456 331.14 255.226 331.564C254.979 332.02 254.832 332.688 255.239 333.359L256.92 332.336C257.053 332.556 256.947 332.73 256.988 332.654C257.046 332.547 257.205 332.354 257.536 332.073C258.186 331.523 259.187 330.892 260.356 330.158L259.244 328.372ZM261.817 326.693C261.003 327.268 260.114 327.827 259.244 328.372L260.356 330.158C261.218 329.618 262.151 329.032 263.014 328.422L261.817 326.693ZM262.627 320.988C263.557 321.492 264.044 321.982 264.28 322.385C264.5 322.759 264.551 323.136 264.457 323.558C264.246 324.506 263.303 325.641 261.817 326.693L263.014 328.422C264.589 327.308 266.035 325.824 266.411 324.133C266.611 323.237 266.505 322.289 265.977 321.39C265.466 320.519 264.614 319.784 263.473 319.167L262.627 320.988ZM253.871 327.678C255.281 325.961 256.975 323.904 258.669 322.467C259.516 321.748 260.308 321.233 261.013 320.981C261.705 320.732 262.218 320.767 262.627 320.988L263.473 319.167C262.398 318.585 261.274 318.657 260.258 319.021C259.254 319.381 258.266 320.054 257.344 320.837C255.499 322.403 253.697 324.6 252.312 326.285L253.871 327.678ZM251.114 330.612C251.517 330.382 251.96 329.922 252.369 329.463C252.808 328.971 253.321 328.347 253.871 327.678L252.312 326.285C251.754 326.965 251.268 327.556 250.86 328.013C250.421 328.505 250.169 328.729 250.068 328.786L251.114 330.612ZM246.326 323.786C246.586 325.003 247.072 326.806 247.697 328.229C248.001 328.923 248.385 329.637 248.862 330.131C249.106 330.385 249.433 330.641 249.844 330.761C250.288 330.891 250.729 330.832 251.114 330.612L250.068 328.786C250.099 328.768 250.188 328.744 250.283 328.772C250.346 328.791 250.33 328.808 250.239 328.714C250.045 328.514 249.79 328.1 249.513 327.469C248.974 326.241 248.526 324.6 248.281 323.454L246.326 323.786ZM254.195 299.582C252.761 306.02 248.391 317.98 246.37 323.187L248.236 324.053C250.25 318.862 254.677 306.766 256.149 300.157L254.195 299.582ZM258.295 292.997C258.203 292.941 258.043 292.844 257.878 292.771C257.703 292.693 257.437 292.603 257.122 292.629C256.43 292.686 256.057 293.233 255.844 293.65C255.61 294.109 255.383 294.781 255.13 295.704C254.871 296.644 254.568 297.905 254.195 299.582L256.149 300.157C256.52 298.49 256.814 297.267 257.059 296.376C257.309 295.469 257.492 294.966 257.628 294.699C257.786 294.391 257.744 294.663 257.399 294.692C257.257 294.703 257.168 294.66 257.182 294.666C257.204 294.675 257.243 294.697 257.366 294.771L258.295 292.997ZM258.718 293.21C258.601 293.176 258.493 293.115 258.295 292.997L257.366 294.771C257.547 294.88 257.87 295.079 258.276 295.198L258.718 293.21ZM259.139 301.878C259.419 300.025 259.7 298.175 259.814 296.76C259.87 296.061 259.891 295.402 259.833 294.879C259.804 294.622 259.749 294.322 259.624 294.044C259.496 293.762 259.226 293.359 258.718 293.21L258.276 295.198C257.955 295.104 257.831 294.859 257.816 294.825C257.803 294.796 257.824 294.834 257.842 294.996C257.877 295.307 257.871 295.799 257.817 296.47C257.711 297.794 257.444 299.562 257.159 301.442L259.139 301.878ZM258.446 309.989C258.39 309.815 258.341 309.465 258.339 308.895C258.338 308.349 258.38 307.685 258.454 306.931C258.602 305.423 258.871 303.643 259.139 301.878L257.159 301.442C256.894 303.192 256.615 305.03 256.46 306.603C256.383 307.39 256.334 308.132 256.336 308.779C256.337 309.402 256.384 310.031 256.551 310.542L258.446 309.989ZM262.06 310.586C262.075 310.517 262.059 310.66 261.687 310.846C261.359 311.01 260.902 311.126 260.416 311.134C259.404 311.152 258.693 310.747 258.446 309.989L256.551 310.542C257.222 312.61 259.12 313.229 260.567 313.204C261.311 313.191 262.046 313.018 262.644 312.72C263.196 312.443 263.838 311.95 264.014 311.161L262.06 310.586ZM262.182 310.061C262.126 310.299 262.083 310.481 262.06 310.586L264.014 311.161C264.033 311.072 264.072 310.907 264.13 310.662L262.182 310.061ZM265.138 283.328C265.922 286.924 265.418 292.708 264.566 298.154C263.723 303.542 262.575 308.401 262.182 310.061L264.13 310.662C264.524 308.995 265.688 304.071 266.544 298.6C267.391 293.185 267.973 287.03 267.092 282.988L265.138 283.328ZM260.124 281.852C260.496 281.389 260.976 280.911 261.493 280.549C262.021 280.179 262.513 279.981 262.919 279.962C263.269 279.945 263.607 280.052 263.961 280.458C264.358 280.912 264.8 281.777 265.138 283.328L267.092 282.988C266.716 281.262 266.162 279.981 265.413 279.123C264.624 278.218 263.669 277.849 262.71 277.894C261.809 277.937 260.978 278.341 260.303 278.815C259.617 279.296 259.012 279.904 258.553 280.474L260.124 281.852ZM259.403 262.403C258.948 266.166 258.445 270.334 258.174 273.812C258.039 275.549 257.959 277.138 257.976 278.432C257.985 279.078 258.017 279.669 258.083 280.178C258.147 280.669 258.251 281.164 258.443 281.572L260.234 280.754C260.19 280.663 260.122 280.438 260.068 280.023C260.017 279.627 259.987 279.125 259.979 278.525C259.964 277.327 260.038 275.811 260.171 274.097C260.438 270.673 260.935 266.553 261.391 262.777L259.403 262.403ZM260.342 253.526C260.241 255.457 259.848 258.72 259.403 262.403L261.391 262.777C261.831 259.134 262.237 255.779 262.342 253.758L260.342 253.526ZM268.127 255.639C268.374 254.53 267.953 253.379 267.384 252.487C266.801 251.575 265.952 250.751 265.034 250.246C264.137 249.751 262.968 249.462 261.949 250.043C260.927 250.627 260.427 251.875 260.342 253.526L262.342 253.758C262.413 252.389 262.799 251.981 262.995 251.869C263.194 251.755 263.578 251.731 264.174 252.059C264.75 252.376 265.334 252.933 265.731 253.555C266.142 254.198 266.247 254.734 266.173 255.064L268.127 255.639ZM267.185 273.725C267.239 273.741 267.177 273.745 267.03 273.551C266.89 273.365 266.723 273.063 266.558 272.621C266.229 271.741 265.96 270.447 265.865 268.797C265.674 265.509 266.179 260.952 268.089 255.769L266.212 254.935C264.213 260.357 263.656 265.198 263.865 268.8C263.969 270.595 264.266 272.119 264.694 273.266C264.908 273.838 265.167 274.352 265.48 274.765C265.786 275.169 266.203 275.554 266.742 275.713L267.185 273.725ZM272.877 255.308C272.467 257.674 271.581 262.777 270.389 267.104C269.789 269.278 269.132 271.186 268.448 272.445C268.103 273.082 267.794 273.469 267.55 273.659C267.435 273.748 267.366 273.769 267.342 273.773C267.329 273.776 267.324 273.777 267.301 273.767L266.625 275.671C267.467 276.033 268.235 275.788 268.812 275.34C269.358 274.916 269.817 274.26 270.21 273.536C271.004 272.072 271.71 269.983 272.318 267.777C273.54 263.341 274.441 258.143 274.85 255.788L272.877 255.308ZM273.107 254.039C273.063 254.238 272.982 254.703 272.877 255.308L274.85 255.788C274.962 255.144 275.03 254.751 275.061 254.614L273.107 254.039ZM269.104 304.66C270.648 298.139 274.419 282.214 276.665 269.61C277.782 263.343 278.545 257.779 278.43 254.613C278.401 253.82 278.316 253.092 278.127 252.514C277.954 251.984 277.563 251.21 276.707 251.035C275.952 250.88 275.309 251.316 274.868 251.715C274.373 252.161 273.836 252.831 273.25 253.703L274.918 254.949C275.47 254.127 275.906 253.604 276.235 253.308C276.617 252.964 276.647 253.108 276.43 253.064C276.112 252.999 276.124 252.736 276.232 253.07C276.326 253.355 276.402 253.843 276.428 254.568C276.533 257.473 275.818 262.818 274.694 269.121C272.46 281.659 268.703 297.527 267.156 304.058L269.104 304.66ZM268.47 307.362C268.567 306.927 268.788 305.995 269.104 304.66L267.156 304.058C266.842 305.384 266.617 306.335 266.516 306.787L268.47 307.362ZM267.745 309.995C267.961 309.306 268.228 308.451 268.47 307.362L266.516 306.787C266.294 307.786 266.049 308.571 265.835 309.256L267.745 309.995ZM269.749 315.513C268.094 313.816 267.537 312.97 267.369 312.36C267.215 311.803 267.336 311.307 267.745 309.995L265.835 309.256C265.474 310.414 265.09 311.535 265.445 312.819C265.785 314.051 266.752 315.27 268.381 316.939L269.749 315.513ZM283.107 260.093C281.304 270.114 278.391 284.924 275.513 296.791C274.071 302.731 272.647 307.898 271.383 311.353C270.745 313.097 270.176 314.324 269.704 314.997C269.456 315.351 269.32 315.426 269.323 315.425C269.346 315.415 269.433 315.388 269.555 315.416C269.676 315.443 269.741 315.504 269.749 315.513L268.381 316.939C268.6 317.163 268.884 317.355 269.233 317.435C269.583 317.515 269.906 317.46 270.174 317.347C270.665 317.139 271.05 316.704 271.351 316.274C271.977 315.381 272.617 313.948 273.263 312.182C274.568 308.615 276.013 303.357 277.458 297.403C280.35 285.481 283.271 270.627 285.077 260.585L283.107 260.093ZM285.951 248.442C285.135 249.019 284.573 249.926 284.177 250.897C283.776 251.879 283.511 253.011 283.337 254.144C282.989 256.409 282.988 258.815 283.093 260.351L285.091 260.327C284.994 258.908 284.997 256.663 285.316 254.584C285.476 253.545 285.709 252.582 286.03 251.794C286.356 250.997 286.739 250.461 287.147 250.172L285.951 248.442ZM280.978 309.083C281.932 305.979 285.682 290.293 288.138 275.786C289.366 268.537 290.282 261.517 290.353 256.485C290.388 253.998 290.222 251.858 289.706 250.403C289.447 249.675 289.046 248.961 288.39 248.528C287.681 248.059 286.893 248.058 286.161 248.331L286.937 250.283C287.259 250.163 287.358 250.236 287.383 250.252C287.461 250.304 287.642 250.487 287.829 251.014C288.204 252.07 288.385 253.873 288.35 256.333C288.281 261.194 287.389 268.08 286.164 275.315C283.716 289.774 279.984 305.364 279.065 308.353L280.978 309.083ZM279.804 312.36C280.179 311.394 280.605 310.297 280.978 309.083L279.065 308.353C278.716 309.489 278.316 310.522 277.938 311.494L279.804 312.36ZM282.84 319.222C279.725 318.305 278.961 317.39 278.775 316.686C278.668 316.278 278.69 315.747 278.882 314.994C279.075 314.241 279.403 313.391 279.804 312.36L277.938 311.494C277.551 312.492 277.172 313.462 276.943 314.356C276.714 315.25 276.6 316.193 276.844 317.12C277.364 319.086 279.261 320.286 282.397 321.21L282.84 319.222ZM208.936 144.704C209.524 144.769 212.132 145.333 216.177 146.588C220.191 147.833 225.559 149.738 231.647 152.45C243.83 157.878 258.847 166.517 271.656 179.524C284.451 192.518 295.044 209.87 298.417 232.776C301.793 255.695 297.957 284.276 281.709 319.729L283.529 320.702C299.891 285 303.849 256.012 300.398 232.583C296.945 209.141 286.09 191.367 273.017 178.09C259.956 164.827 244.682 156.052 232.347 150.557C226.177 147.808 220.731 145.875 216.648 144.609C212.597 143.352 209.827 142.734 209.031 142.646L208.936 144.704ZM205.849 148.476C204.615 147.24 204.009 146.357 203.782 145.775C203.674 145.499 203.675 145.348 203.685 145.282C203.693 145.23 203.714 145.173 203.795 145.098C204.008 144.902 204.523 144.689 205.487 144.6C206.409 144.515 207.584 144.556 208.936 144.704L209.031 142.646C207.613 142.491 206.295 142.437 205.193 142.538C204.133 142.636 203.093 142.892 202.413 143.519C202.049 143.855 201.789 144.298 201.706 144.845C201.625 145.377 201.724 145.922 201.929 146.449C202.328 147.472 203.203 148.622 204.499 149.92L205.849 148.476ZM293.095 237.904C292.591 231.843 290.979 212.408 279.3 192.983C267.587 173.5 245.821 154.15 205.258 148.174L205.09 150.222C245.057 156.11 266.251 175.096 277.616 193.999C289.015 212.959 290.6 231.96 291.099 237.961L293.095 237.904ZM293.258 239.554C293.259 239.556 293.256 239.547 293.252 239.52C293.247 239.495 293.242 239.461 293.236 239.416C293.224 239.327 293.211 239.21 293.196 239.063C293.167 238.769 293.135 238.384 293.095 237.904L291.099 237.961C291.139 238.434 291.172 238.838 291.203 239.154C291.232 239.445 291.266 239.74 291.318 239.95L293.258 239.554ZM285.509 238.24C286.158 240.884 288.163 242.438 289.955 242.804C290.836 242.984 291.807 242.901 292.518 242.33C293.296 241.705 293.535 240.684 293.258 239.554L291.318 239.95C291.446 240.472 291.297 240.615 291.231 240.668C291.098 240.775 290.769 240.884 290.231 240.774C289.187 240.561 287.882 239.607 287.449 237.844L285.509 238.24ZM246.537 169.589C246.992 169.723 247.776 170.173 248.879 171.078C249.955 171.96 251.251 173.204 252.718 174.806C255.65 178.01 259.221 182.598 263.033 188.478C270.655 200.236 279.208 217.108 285.523 238.293L287.435 237.791C281.056 216.394 272.411 199.327 264.677 187.398C260.811 181.435 257.166 176.743 254.135 173.432C252.62 171.777 251.247 170.454 250.067 169.486C248.915 168.542 247.856 167.858 246.98 167.601L246.537 169.589ZM245.7 172.359C243.888 172.231 243.428 171.1 243.507 170.478C243.551 170.131 243.752 169.787 244.179 169.575C244.617 169.358 245.372 169.246 246.537 169.589L246.98 167.601C245.483 167.16 244.203 167.215 243.227 167.7C242.24 168.189 241.649 169.082 241.521 170.09C241.254 172.178 242.923 174.229 245.681 174.424L245.7 172.359ZM279.252 235.666C279.235 234.403 278.778 232.453 278.059 230.119C277.328 227.746 276.287 224.859 275.027 221.663C272.506 215.27 269.087 207.594 265.452 200.243C261.82 192.896 257.958 185.841 254.547 180.702C252.845 178.139 251.228 176.009 249.783 174.555C249.062 173.829 248.347 173.234 247.653 172.844C246.966 172.457 246.195 172.214 245.433 172.377L245.948 174.405C246.065 174.38 246.318 174.39 246.776 174.648C247.228 174.903 247.781 175.344 248.429 175.995C249.721 177.296 251.244 179.284 252.916 181.803C256.251 186.828 260.066 193.788 263.679 201.096C267.289 208.399 270.682 216.018 273.178 222.345C274.426 225.51 275.444 228.34 276.153 230.64C276.873 232.978 277.236 234.655 277.249 235.574L279.252 235.666ZM273.793 244.055C274.875 244.374 276.344 244.159 277.481 242.828C278.59 241.53 279.302 239.273 279.252 235.666L277.249 235.574C277.295 238.945 276.615 240.623 275.945 241.408C275.303 242.16 274.605 242.176 274.235 242.067L273.793 244.055ZM268.618 233.805C268.922 233.808 269.318 233.987 269.816 234.569C270.309 235.146 270.789 235.996 271.231 237.019C272.11 239.058 272.732 241.534 273.03 243.192L274.999 242.931C274.682 241.171 274.022 238.517 273.053 236.271C272.571 235.153 271.985 234.072 271.283 233.251C270.586 232.435 269.658 231.747 268.521 231.735L268.618 233.805ZM270.53 243.973C269.77 242.076 268.821 239.26 268.413 236.957C268.206 235.786 268.162 234.867 268.279 234.288C268.337 234.007 268.415 233.89 268.454 233.85C268.469 233.834 268.495 233.803 268.618 233.805L268.521 231.735C267.923 231.729 267.393 231.932 266.993 232.348C266.616 232.739 266.419 233.251 266.318 233.749C266.119 234.729 266.224 235.975 266.443 237.213C266.888 239.727 267.898 242.701 268.685 244.666L270.53 243.973ZM257.982 240.898C257.845 241.511 257.881 242.123 258.122 242.694C258.36 243.256 258.758 243.689 259.204 244.018C260.065 244.653 261.25 245.007 262.432 245.215C264.833 245.639 267.788 245.551 269.763 245.35L269.452 243.29C267.557 243.483 264.803 243.554 262.655 243.176C261.562 242.983 260.762 242.695 260.303 242.357C260.089 242.199 259.994 242.063 259.951 241.961C259.912 241.869 259.88 241.723 259.936 241.473L257.982 240.898ZM235.703 194.42C238.373 196.369 242.116 199.095 246.102 205.778C250.112 212.499 254.394 223.271 257.978 241.335L259.939 241.035C256.327 222.825 251.976 211.785 247.791 204.769C243.583 197.714 239.569 194.779 236.794 192.753L235.703 194.42ZM231.782 190.359C232.484 192.114 234.063 193.223 235.703 194.42L236.794 192.753C234.984 191.432 234.04 190.7 233.627 189.666L231.782 190.359ZM234.676 183.84C234.021 183.95 233.356 184.058 232.803 184.238C232.243 184.42 231.649 184.718 231.264 185.316C230.871 185.925 230.805 186.667 230.915 187.466C231.024 188.255 231.32 189.208 231.782 190.359L233.627 189.666C233.19 188.575 232.971 187.818 232.898 187.292C232.827 186.774 232.911 186.594 232.951 186.533C232.998 186.46 233.119 186.341 233.504 186.216C233.896 186.088 234.406 186.001 235.107 185.884L234.676 183.84ZM237.269 183.296C236.332 183.564 235.469 183.708 234.676 183.84L235.107 185.884C235.895 185.753 236.856 185.594 237.907 185.294L237.269 183.296ZM265.736 224.691C263.034 218.868 257.975 207.963 252.696 198.84C250.061 194.287 247.339 190.12 244.8 187.244C243.533 185.81 242.263 184.641 241.028 183.919C239.787 183.193 238.458 182.851 237.201 183.319L237.976 185.271C238.492 185.079 239.175 185.153 240.12 185.705C241.07 186.261 242.158 187.233 243.356 188.589C245.745 191.294 248.378 195.305 250.992 199.824C256.212 208.845 261.231 219.659 263.939 225.494L265.736 224.691ZM267.631 228.668C267.547 228.531 267.343 228.122 267.002 227.404C266.675 226.713 266.249 225.795 265.736 224.691L263.939 225.494C264.45 226.595 264.88 227.523 265.213 228.225C265.533 228.9 265.793 229.432 265.95 229.691L267.631 228.668ZM269.156 226.433C269.448 227.101 269.217 228.079 268.643 228.684C268.369 228.972 268.141 229.038 268.039 229.036C268.01 229.036 267.859 229.044 267.631 228.668L265.95 229.691C266.476 230.559 267.24 231.092 268.127 231.106C268.94 231.118 269.628 230.687 270.113 230.176C271.056 229.183 271.707 227.354 270.974 225.676L269.156 226.433ZM198.634 153.718C198.573 153.745 198.584 153.723 198.745 153.72C198.887 153.717 199.09 153.729 199.362 153.764C199.904 153.836 200.642 153.993 201.562 154.247C203.397 154.754 205.879 155.628 208.821 156.897C214.702 159.434 222.367 163.525 230.305 169.344C246.186 180.987 263.081 199.485 269.09 226.232L271.04 225.878C264.876 198.441 247.553 179.523 231.399 167.68C223.32 161.757 215.514 157.589 209.499 154.994C206.492 153.697 203.919 152.788 201.972 152.25C201.001 151.981 200.166 151.8 199.5 151.712C199.168 151.668 198.858 151.645 198.585 151.651C198.331 151.656 198.023 151.688 197.747 151.812L198.634 153.718ZM217.635 169.673C211.742 165.81 205.038 161.416 200.813 157.985C199.76 157.13 198.881 156.352 198.215 155.669C197.531 154.967 197.146 154.441 196.99 154.093C196.915 153.928 196.928 153.879 196.926 153.911C196.924 153.931 196.918 153.961 196.902 153.992C196.887 154.022 196.873 154.034 196.876 154.031C196.936 153.978 197.271 153.806 198.256 153.799L198.125 151.73C197.088 151.737 196.13 151.89 195.524 152.425C195.181 152.727 194.968 153.137 194.929 153.62C194.893 154.071 195.015 154.502 195.18 154.871C195.503 155.59 196.117 156.347 196.847 157.095C197.595 157.862 198.546 158.701 199.633 159.583C203.965 163.1 210.779 167.564 216.634 171.402L217.635 169.673ZM229.266 177.89C228.895 177.474 228.305 176.978 227.605 176.442C226.888 175.892 225.997 175.256 224.982 174.556C222.952 173.157 220.383 171.473 217.635 169.673L216.634 171.402C219.389 173.207 221.934 174.875 223.939 176.257C224.941 176.948 225.798 177.561 226.473 178.078C227.164 178.608 227.609 178.997 227.831 179.244L229.266 177.89ZM222.685 186.44C224.382 185.975 226.806 185.049 228.451 183.747C229.265 183.103 230.013 182.27 230.272 181.23C230.556 180.094 230.203 178.939 229.266 177.89L227.831 179.244C228.38 179.859 228.411 180.283 228.33 180.606C228.226 181.025 227.863 181.532 227.175 182.077C225.814 183.154 223.666 183.999 222.066 184.438L222.685 186.44ZM201.497 177.286C206.808 178.849 217.329 183.967 221.972 186.36L222.78 184.518C218.169 182.142 207.472 176.926 201.94 175.298L201.497 177.286ZM166.879 162.722C166.688 162.831 166.443 163.021 166.302 163.346C166.147 163.705 166.184 164.076 166.301 164.374C166.407 164.643 166.576 164.85 166.716 164.996C166.863 165.15 167.033 165.289 167.206 165.415C167.874 165.901 168.945 166.437 170.222 166.993C172.817 168.122 176.6 169.477 180.655 170.83C188.776 173.541 198.111 176.289 201.497 177.286L201.94 175.298C198.55 174.3 189.249 171.562 181.168 168.864C177.12 167.513 173.411 166.183 170.907 165.093C169.635 164.539 168.755 164.081 168.294 163.746C168.185 163.667 168.124 163.612 168.095 163.582C168.06 163.545 168.107 163.581 168.15 163.691C168.205 163.83 168.237 164.055 168.14 164.281C168.057 164.473 167.931 164.544 167.925 164.547L166.879 162.722ZM190.939 166.815C186.765 165.754 181.435 164.399 176.88 163.461C174.605 162.992 172.498 162.623 170.814 162.448C169.972 162.361 169.212 162.32 168.576 162.345C167.977 162.369 167.349 162.453 166.879 162.722L167.925 164.547C167.986 164.512 168.225 164.434 168.769 164.413C169.277 164.393 169.935 164.425 170.73 164.508C172.317 164.672 174.349 165.026 176.601 165.49C181.102 166.416 186.385 167.759 190.569 168.823L190.939 166.815ZM197.654 168.424C196.739 168.288 194.24 167.655 190.939 166.815L190.569 168.823C193.789 169.642 196.438 170.317 197.485 170.472L197.654 168.424ZM195.028 164.648C197.187 165.284 198.304 166.636 198.582 167.54C198.722 167.994 198.629 168.208 198.574 168.277C198.528 168.334 198.325 168.523 197.654 168.424L197.485 170.472C198.562 170.632 199.547 170.405 200.151 169.646C200.745 168.9 200.76 167.9 200.488 167.019C199.943 165.253 198.152 163.45 195.471 162.66L195.028 164.648ZM125.924 163.634C132.44 161.03 157.767 150.895 194.962 164.626L195.537 162.682C157.673 148.703 131.808 159.02 125.107 161.698L125.924 163.634ZM124.524 164.168C124.845 164.065 125.333 163.87 125.924 163.634L125.107 161.698C124.481 161.948 124.073 162.11 123.832 162.187L124.524 164.168ZM128.026 169.018C126.865 169.326 125.974 169.157 125.321 168.804C124.656 168.444 124.155 167.846 123.857 167.164C123.555 166.474 123.489 165.758 123.623 165.206C123.751 164.679 124.048 164.32 124.524 164.168L123.832 162.187C122.642 162.567 121.94 163.511 121.678 164.594C121.421 165.651 121.572 166.853 122.039 167.922C122.51 169 123.328 170.004 124.475 170.625C125.635 171.253 127.049 171.443 128.629 171.024L128.026 169.018ZM160.979 163.288C156.061 163.399 142.658 164.704 128.001 169.025L128.654 171.017C143.144 166.745 156.381 165.465 161.14 165.358L160.979 163.288ZM138.274 173.883C146.991 171.934 152.701 170.091 156.306 168.564C158.107 167.801 159.403 167.108 160.293 166.509C160.737 166.209 161.097 165.922 161.37 165.649C161.631 165.389 161.873 165.084 162 164.735L160.118 163.911C160.133 163.87 160.115 163.941 159.935 164.12C159.77 164.286 159.511 164.499 159.131 164.756C158.371 165.268 157.189 165.907 155.454 166.642C151.988 168.11 146.395 169.925 137.742 171.859L138.274 173.883ZM84.3995 221.247C88.2728 213.788 95.9707 202.22 105.611 192.371C115.282 182.491 126.74 174.516 138.119 173.904L137.898 171.837C125.785 172.488 113.908 180.9 104.16 190.858C94.3809 200.849 86.5755 212.572 82.6214 220.187L84.3995 221.247ZM98.9691 186.85C94.5742 191.69 88.6631 198.197 84.7611 204.431C82.8133 207.544 81.3129 210.669 80.7853 213.548C80.2519 216.458 80.6993 219.25 82.8264 221.43L84.1945 220.004C82.727 218.5 82.3008 216.523 82.7546 214.047C83.2142 211.539 84.5618 208.662 86.4624 205.626C90.2573 199.562 96.0447 193.183 100.468 188.312L98.9691 186.85ZM105.326 180.665C105.255 180.644 105.115 180.586 104.985 180.44C104.849 180.288 104.794 180.12 104.778 180C104.754 179.824 104.815 179.772 104.742 179.937C104.616 180.222 104.303 180.7 103.763 181.388C102.705 182.734 101.009 184.603 98.9691 186.85L100.468 188.312C102.486 186.089 104.238 184.16 105.348 182.747C105.891 182.056 106.341 181.413 106.574 180.884C106.68 180.643 106.819 180.26 106.762 179.835C106.729 179.591 106.629 179.319 106.419 179.085C106.215 178.856 105.973 178.737 105.768 178.677L105.326 180.665ZM78.4351 208.094C79.9809 205.708 85.3005 198.308 91.0455 191.753C93.9198 188.474 96.872 185.44 99.4912 183.352C100.803 182.307 101.997 181.527 103.031 181.066C104.089 180.595 104.837 180.521 105.326 180.665L105.768 178.677C104.615 178.337 103.357 178.619 102.148 179.158C100.915 179.708 99.582 180.593 98.2103 181.686C95.4633 183.875 92.4262 187.006 89.5253 190.316C83.7199 196.939 78.3453 204.412 76.7499 206.874L78.4351 208.094ZM107.563 168.092C101.356 172.526 93.0926 178.425 86.6607 185.129C80.2754 191.784 75.432 199.499 76.602 207.578L78.583 207.39C77.5625 200.343 81.7855 193.235 88.124 186.629C94.416 180.071 102.534 174.268 108.767 169.817L107.563 168.092ZM116.425 160.895C116.425 160.894 116.42 160.916 116.398 160.962C116.376 161.008 116.342 161.069 116.291 161.146C116.186 161.302 116.03 161.495 115.812 161.725C115.376 162.188 114.75 162.741 113.948 163.386C112.345 164.676 110.139 166.252 107.563 168.092L108.767 169.817C111.325 167.989 113.582 166.377 115.236 165.047C116.062 164.382 116.764 163.768 117.286 163.215C117.772 162.701 118.237 162.105 118.378 161.47L116.425 160.895ZM91.2219 165.327C96.7026 162.719 103.867 159.314 109.357 157.865C110.722 157.504 111.954 157.273 113.01 157.2C114.079 157.127 114.893 157.222 115.462 157.445C115.99 157.652 116.288 157.957 116.451 158.389C116.636 158.878 116.698 159.668 116.425 160.895L118.378 161.47C118.695 160.047 118.709 158.787 118.313 157.738C117.896 156.633 117.083 155.911 116.075 155.516C115.11 155.137 113.965 155.053 112.761 155.135C111.543 155.219 110.187 155.48 108.755 155.857C103.061 157.361 95.7238 160.856 90.2972 163.439L91.2219 165.327ZM83.7582 168.566C84.4441 168.41 85.4937 167.981 86.7259 167.431C87.985 166.868 89.5232 166.136 91.2219 165.327L90.2972 163.439C88.5917 164.25 87.0758 164.972 85.8411 165.523C84.5794 166.087 83.6953 166.435 83.2179 166.544L83.7582 168.566ZM78.0846 165.242C77.3176 165.733 76.7195 166.155 76.2773 166.518C75.8625 166.858 75.4915 167.219 75.291 167.602C75.188 167.798 75.0659 168.121 75.1337 168.515C75.2104 168.961 75.4867 169.265 75.7514 169.436C75.9878 169.589 76.2365 169.655 76.4208 169.688C76.6177 169.724 76.8248 169.738 77.0266 169.74C77.8085 169.748 78.9093 169.582 80.0596 169.363C81.2317 169.14 82.5374 168.845 83.7582 168.566L83.2179 166.544C81.9935 166.823 80.7195 167.111 79.5856 167.327C78.4299 167.547 77.4983 167.677 76.9294 167.671C76.7936 167.669 76.7056 167.66 76.6564 167.651C76.5946 167.64 76.6462 167.639 76.7408 167.7C76.8637 167.779 77.0536 167.967 77.1056 168.27C77.1276 168.397 77.1155 168.5 77.101 168.564C77.087 168.626 77.0689 168.662 77.0658 168.668C77.0623 168.674 77.0859 168.63 77.179 168.531C77.2674 168.437 77.3969 168.317 77.5785 168.168C77.9424 167.87 78.4738 167.491 79.2107 167.019L78.0846 165.242ZM180.325 148.398C169.38 146.359 126.454 138.371 78.1339 165.212L79.1614 167.048C126.908 140.525 169.289 148.424 180.083 150.434L180.325 148.398ZM182.097 149.077C182.23 148.92 182.379 148.855 182.447 148.829C182.522 148.8 182.581 148.791 182.605 148.788C182.65 148.782 182.667 148.785 182.628 148.784C182.557 148.78 182.424 148.766 182.207 148.733C181.78 148.669 181.159 148.553 180.325 148.398L180.083 150.434C180.9 150.586 181.563 150.71 182.031 150.781C182.262 150.815 182.479 150.843 182.657 150.851C182.743 150.855 182.859 150.857 182.979 150.84C183.04 150.832 183.13 150.816 183.229 150.778C183.322 150.743 183.488 150.666 183.633 150.496L182.097 149.077ZM183.048 148.433C182.895 148.515 182.726 148.604 182.583 148.69C182.463 148.761 182.255 148.891 182.097 149.077L183.633 150.496C183.594 150.541 183.569 150.558 183.584 150.546C183.595 150.538 183.62 150.521 183.664 150.494C183.757 150.439 183.878 150.374 184.045 150.286L183.048 148.433ZM175.317 141.461C178.712 142.894 180.964 144.077 182.411 145.046C183.9 146.042 184.376 146.708 184.497 147.04C184.544 147.169 184.535 147.238 184.519 147.29C184.498 147.361 184.441 147.47 184.302 147.612C184.003 147.917 183.543 148.17 183.048 148.433L184.045 150.286C184.485 150.052 185.216 149.672 185.751 149.126C186.029 148.843 186.299 148.472 186.439 147.999C186.584 147.507 186.569 146.967 186.368 146.413C185.991 145.378 184.998 144.378 183.43 143.328C181.82 142.251 179.429 141.007 175.979 139.552L175.317 141.461ZM185.602 181.718C162.816 172.469 141.853 177.985 125.842 188.865C109.864 199.723 98.6834 216.009 95.4349 228.592L97.3728 229.234C100.482 217.189 111.339 201.263 127.01 190.614C142.648 179.988 162.946 174.701 184.966 183.639L185.602 181.718ZM248.39 292.48C254.267 261.466 242.441 204.79 185.602 181.718L184.966 183.639C240.575 206.211 252.171 261.636 246.423 291.968L248.39 292.48ZM159.278 346.184C210.229 349.642 242.461 323.766 248.39 292.48L246.423 291.968C240.727 322.027 209.565 347.53 159.292 344.119L159.278 346.184ZM95.4349 228.592C87.3076 260.075 91.4815 288.649 103.607 309.789C115.738 330.938 135.804 344.591 159.278 346.184L159.292 344.119C136.549 342.576 117.106 329.369 105.315 308.813C93.5194 288.248 89.3607 260.27 97.3728 229.234L95.4349 228.592ZM76.602 207.578C76.6153 207.67 76.6294 207.762 76.6443 207.854L78.6198 207.63C78.6069 207.55 78.5946 207.47 78.583 207.39L76.602 207.578ZM76.844 207.057C76.6745 207.269 76.5675 207.394 76.5111 207.455C76.4706 207.498 76.4949 207.466 76.5568 207.422C76.5767 207.407 76.6202 207.378 76.6819 207.348C76.7275 207.326 76.8731 207.259 77.0789 207.26C77.3377 207.26 77.7024 207.376 77.9444 207.738C78.1311 208.018 78.1323 208.287 78.1307 208.367C78.1284 208.473 78.11 208.552 78.1018 208.585C78.0919 208.625 78.0818 208.654 78.0764 208.668C78.066 208.697 78.0584 208.711 78.0613 208.705C78.0661 208.695 78.0822 208.664 78.1164 208.605C78.1829 208.491 78.2885 208.32 78.4351 208.094L76.7499 206.874C76.5966 207.111 76.4711 207.312 76.3812 207.467C76.3372 207.543 76.2939 207.622 76.2586 207.695C76.2413 207.73 76.2186 207.78 76.1979 207.836C76.1885 207.862 76.1318 208.008 76.1277 208.201C76.1259 208.288 76.1282 208.562 76.3173 208.845C76.5618 209.211 76.9301 209.329 77.1939 209.329C77.4046 209.33 77.5563 209.261 77.6095 209.236C77.6787 209.202 77.731 209.167 77.7609 209.146C77.8632 209.073 77.9488 208.982 77.9911 208.937C78.1004 208.82 78.2454 208.646 78.42 208.428L76.844 207.057Z" fill="#104469"/>
</g>
<defs>
<clipPath id="clip0_3513:376872">
<rect width="497" height="460" fill="white"/>
</clipPath>
</defs>
</svg>
