<svg width="497" height="460" viewBox="0 0 497 460" fill="none" xmlns="http://www.w3.org/2000/svg">
<path d="M42.0155 383.553C31.9197 352.555 28.8258 319.765 25.7911 287.317C22.416 251.182 19.0408 215.032 15.6657 178.897C13.5932 156.633 13.0899 133.407 21.2761 112.593C27.9968 95.5102 39.6026 81.5803 54.2727 70.5518C91.3994 42.6624 138.326 31.856 184.024 23.6254C219.285 17.2896 255.005 12.064 290.8 13.4407C326.594 14.8174 362.744 24.6024 393.105 43.6247C442.756 74.756 471.948 130.535 480.016 188.579C485.774 229.998 481.777 273.091 465.878 311.772C449.98 350.453 421.868 384.456 385.467 405.032C354.543 422.5 319.015 429.872 283.916 435.231C246.227 440.99 208.242 444.75 170.168 446.452C144.351 447.607 117.749 443.329 93.605 434.091C69.4609 424.854 50.0241 408.141 42.0155 383.553Z" fill="#EEF3F7"/>
</svg>
