<svg width="497" height="460" viewBox="0 0 497 460" fill="none" xmlns="http://www.w3.org/2000/svg">
<ellipse rx="1.23747" ry="1.44331" transform="matrix(0.959129 0.28297 -0.216935 0.976186 129.5 56.7591)" fill="black"/>
<ellipse rx="1.23747" ry="1.44331" transform="matrix(0.959129 0.28297 -0.216935 0.976186 34.4998 168.759)" fill="black"/>
<ellipse rx="1.23747" ry="1.44331" transform="matrix(0.959129 0.28297 -0.216935 0.976186 37.4998 329.759)" fill="black"/>
<ellipse rx="1.23747" ry="1.44331" transform="matrix(0.959129 0.28297 -0.216935 0.976186 66.4998 377.759)" fill="black"/>
<ellipse rx="1.23747" ry="1.44331" transform="matrix(0.959129 0.28297 -0.216935 0.976186 210.5 387.759)" fill="black"/>
<ellipse rx="1.23747" ry="1.44331" transform="matrix(0.959129 0.28297 -0.216935 0.976186 269.5 380.759)" fill="black"/>
<ellipse rx="1.23747" ry="1.44331" transform="matrix(0.959129 0.28297 -0.216935 0.976186 352.5 375.759)" fill="black"/>
<ellipse rx="1.23747" ry="1.44331" transform="matrix(0.959129 0.28297 -0.216935 0.976186 390.5 283.759)" fill="black"/>
<ellipse rx="1.23747" ry="1.44331" transform="matrix(0.959129 0.28297 -0.216935 0.976186 341.5 230.759)" fill="black"/>
<ellipse rx="1.23747" ry="1.44331" transform="matrix(0.959129 0.28297 -0.216935 0.976186 177.5 423.759)" fill="black"/>
<ellipse rx="1.23747" ry="1.44331" transform="matrix(0.959129 0.28297 -0.216935 0.976186 242.5 433.759)" fill="black"/>
<ellipse rx="1.23747" ry="1.44331" transform="matrix(0.959129 0.28297 -0.216935 0.976186 91.4998 63.7591)" fill="black"/>
<ellipse rx="1.23747" ry="1.44331" transform="matrix(0.959129 0.28297 -0.216935 0.976186 154.5 124.759)" fill="black"/>
<ellipse rx="1.23747" ry="1.44331" transform="matrix(0.959129 0.28297 -0.216935 0.976186 254.5 122.759)" fill="black"/>
<ellipse rx="1.23747" ry="1.44331" transform="matrix(0.959129 0.28297 -0.216935 0.976186 272.5 99.7591)" fill="black"/>
<ellipse rx="1.23747" ry="1.44331" transform="matrix(0.959129 0.28297 -0.216935 0.976186 319.5 121.759)" fill="black"/>
<ellipse rx="1.23747" ry="1.44331" transform="matrix(0.959129 0.28297 -0.216935 0.976186 364.5 98.7591)" fill="black"/>
<ellipse rx="1.23747" ry="1.44331" transform="matrix(0.959129 0.28297 -0.216935 0.976186 362.5 45.7591)" fill="black"/>
<ellipse rx="1.23747" ry="1.44331" transform="matrix(0.959129 0.28297 -0.216935 0.976186 400.5 63.7591)" fill="black"/>
<ellipse rx="1.23747" ry="1.44331" transform="matrix(0.959129 0.28297 -0.216935 0.976186 422.5 117.759)" fill="black"/>
<ellipse rx="1.23747" ry="1.44331" transform="matrix(0.959129 0.28297 -0.216935 0.976186 458.5 149.759)" fill="black"/>
<ellipse rx="1.23747" ry="1.44331" transform="matrix(0.959129 0.28297 -0.216935 0.976186 310.5 227.759)" fill="black"/>
<ellipse rx="1.23747" ry="1.44331" transform="matrix(0.959129 0.28297 -0.216935 0.976186 255.5 145.759)" fill="black"/>
<ellipse rx="1.23747" ry="1.44331" transform="matrix(0.959129 0.28297 -0.216935 0.976186 363.5 292.759)" fill="black"/>
<ellipse rx="1.23747" ry="1.44331" transform="matrix(0.959129 0.28297 -0.216935 0.976186 436.5 250.759)" fill="black"/>
<ellipse rx="1.23747" ry="1.44331" transform="matrix(0.959129 0.28297 -0.216935 0.976186 388.5 178.759)" fill="black"/>
<ellipse rx="1.23747" ry="1.44331" transform="matrix(0.959129 0.28297 -0.216935 0.976186 419.5 202.759)" fill="black"/>
<ellipse rx="1.23747" ry="1.44331" transform="matrix(0.959129 0.28297 -0.216935 0.976186 459.5 272.759)" fill="black"/>
<ellipse rx="1.23747" ry="1.44331" transform="matrix(0.959129 0.28297 -0.216935 0.976186 203.5 41.7591)" fill="black"/>
<ellipse rx="1.23747" ry="1.44331" transform="matrix(0.959129 0.28297 -0.216935 0.976186 195.5 66.7591)" fill="black"/>
</svg>
