<svg width="497" height="460" viewBox="0 0 497 460" fill="none" xmlns="http://www.w3.org/2000/svg">
<mask id="mask0" style="mask-type:alpha" maskUnits="userSpaceOnUse" x="14" y="13" width="469" height="434">
<path d="M42.0155 383.553C31.9197 352.555 28.8258 319.765 25.7911 287.317C22.416 251.182 19.0408 215.032 15.6657 178.897C13.5932 156.633 13.0899 133.407 21.2761 112.593C27.9968 95.5102 39.6026 81.5803 54.2727 70.5518C91.3994 42.6624 138.326 31.856 184.024 23.6254C219.285 17.2896 255.005 12.064 290.8 13.4407C326.594 14.8174 362.744 24.6024 393.105 43.6247C442.756 74.756 471.948 130.535 480.016 188.579C485.774 229.998 481.777 273.091 465.878 311.772C449.98 350.453 421.868 384.456 385.467 405.032C354.543 422.5 319.015 429.872 283.916 435.231C246.227 440.99 208.242 444.75 170.168 446.452C144.351 447.607 117.749 443.329 93.605 434.091C69.4609 424.854 50.0241 408.141 42.0155 383.553Z" fill="#EEF3F7"/>
</mask>
<g mask="url(#mask0)">
<path d="M637.479 222.156C636.83 221.47 602.451 234.495 594.018 234.632C601.153 220.099 629.695 172.112 632.29 172.798C634.236 173.346 629.695 167.314 630.344 162.515C630.473 161.829 591.553 226.954 580.396 233.124C565.866 233.673 529.281 228.737 508.004 224.487C507.874 223.938 507.615 223.39 507.485 222.841C505.02 216.946 502.555 211.462 499.701 206.114C499.701 205.018 500.09 203.921 500.609 203.098C501.907 201.179 503.853 200.082 505.799 198.848C508.912 196.791 511.637 194.323 514.231 191.581C514.75 191.033 515.269 190.347 515.529 189.525C515.658 189.25 515.658 188.976 515.529 188.702V188.565C515.529 184.452 513.583 135.779 515.529 130.295C517.086 125.908 519.421 114.939 522.015 112.471C534.989 114.528 614.776 149.49 629.046 161.829V158.402C629.046 157.031 629.046 150.175 626.452 150.861C624.246 151.409 541.476 112.608 522.015 101.229C522.145 100.817 522.145 100.406 522.015 99.9947C521.886 99.035 521.756 98.0752 521.626 97.1155C537.973 92.1797 602.191 72.8478 605.694 72.8478C608.029 72.8478 597.261 58.4517 597.261 63.9359C597.261 68.3233 538.881 88.6149 516.177 90.6715C515.399 90.1231 514.491 89.4376 513.583 88.8892C510.988 86.5584 507.485 84.0905 503.723 81.4855C488.414 69.5573 470.511 53.9272 471.16 50.0883C471.289 49.814 471.289 49.6769 471.289 49.6769C475.181 44.8783 510.858 19.5137 510.858 17.4571C510.858 15.4005 499.182 14.0295 499.831 16.0861C500.35 17.7313 473.625 39.9424 459.483 47.4833C457.537 48.5801 457.797 48.7172 455.981 48.7172C455.462 48.7172 453.905 49.1285 453.256 48.0317C448.067 40.3538 427.05 9.09368 426.531 7.85973C425.882 6.48867 405.125 7.85973 412.26 7.85973C417.709 7.85973 439.894 38.8456 450.402 56.3951C450.791 57.0806 450.662 57.9033 450.791 58.5888C450.921 59.1372 450.532 60.9196 450.013 61.1938C421.342 79.566 360.107 113.842 350.636 112.746C347.393 85.3244 348.69 15.4005 349.988 5.11762C339.22 4.43209 331.695 -3.79425 338.312 5.11762C342.852 11.2874 343.89 78.332 341.555 113.157C314.7 99.5834 288.104 85.7357 270.201 76.4125C264.104 72.0252 252.038 62.2907 252.038 57.9033C252.038 53.5159 270.201 20.8848 280.58 5.11762C276.299 4.15788 272.536 2.64972 271.498 3.74656C270.201 5.11762 251.39 52.4191 246.2 53.1046C242.049 53.653 238.416 50.0883 237.119 48.3059C241.4 34.3211 246.589 6.21446 248.146 5.11762C250.092 3.74656 239.065 2.3755 239.065 3.74656C239.065 5.11762 233.875 41.4506 231.281 44.8783C228.686 48.3059 186.133 51.4593 185.225 48.7172C184.317 45.9751 185.355 10.6018 188.858 7.31131C192.361 3.88367 176.144 5.94025 176.792 7.31131C177.441 8.68236 184.317 43.5072 180.684 51.1851C178.09 56.6693 169.657 47.7575 161.873 46.3864C158.63 34.7324 152.532 11.0132 154.089 9.36789C156.035 7.31131 144.359 8.68236 144.359 10.0534C144.359 11.4245 156.684 46.3864 156.035 50.4996C155.905 51.3222 160.705 53.5159 168.489 56.6693C171.473 57.9033 172.511 61.8793 170.306 64.3472C150.067 89.0263 115.558 113.705 113.223 108.084C110.628 101.914 124.25 17.5942 126.196 12.7955C127.104 10.6018 121.396 11.8358 117.763 12.7955C119.061 16.2232 110.628 103.285 100.898 108.084C94.0219 111.512 41.22 24.4495 45.1121 18.2798C40.3119 18.9653 31.6197 20.6106 34.7333 21.7074C36.9388 22.53 55.7503 51.8706 71.9671 77.9207C66.9074 86.0099 48.6149 105.342 42.9066 106.987C42.1282 107.261 41.4795 107.398 40.9606 107.673C30.971 106.027 20.5923 100.817 14.4948 92.591C10.3433 84.776 -1.33282 31.3048 0.483459 24.0382C1.0024 22.1187 -13.0089 27.3287 -10.544 28.8369C-2.7599 33.6356 11.2514 90.5344 10.473 94.6476C9.69459 98.7608 -19.6254 113.842 -22.9985 113.842C-26.3715 113.842 -48.2966 93.2765 -50.2427 93.2765C-52.1887 93.2765 -54.6536 99.4463 -52.0589 98.7608C-49.9832 98.2123 -33.5069 113.157 -25.4634 120.698C-31.9501 129.198 -46.0912 145.925 -50.7616 145.377C-55.432 144.828 -65.681 140.578 -70.2217 138.521C-76.0598 142.36 -83.1952 146.062 -75.4111 146.062C-67.6271 146.062 -28.8365 155.797 -8.20874 166.902C-5.48431 168.41 22.7978 186.234 32.2684 196.791C-17.0307 208.445 -64.3837 235.866 -107.196 248.891C-114.98 251.222 -111.348 251.222 -109.142 261.916C-96.2983 253.69 -74.1138 243.407 -59.843 237.923C-56.7294 239.157 -0.294945 290.297 8.91619 297.564C3.98628 312.92 5.02416 331.84 -3.40857 340.478C-8.33848 345.551 -7.94927 346.648 -18.328 346.648C-24.685 346.648 -79.9518 346.922 -93.5739 335.953C-95.001 334.72 -87.9954 346.236 -84.4925 350.35L-19.6254 355.834C-9.63582 359.947 12.6785 342.535 8.26752 377.771C7.09991 387.505 0.483459 420.273 -7.3006 423.016C-10.4142 424.112 4.37549 429.871 3.72681 426.443C2.04027 417.12 7.35938 395.732 12.5488 384.352C13.8461 381.473 16.9597 376.125 18.776 375.44C23.9654 373.52 33.436 366.802 39.1443 371.19C48.7446 378.456 54.0637 407.797 54.3232 409.991C54.8421 413.829 62.1073 428.5 56.9179 436.726L65.3506 435.355C60.8099 430.556 47.8365 365.98 47.8365 359.947C47.8365 356.108 55.4908 341.438 64.0533 325.671C115.298 335.131 198.328 349.116 206.502 354.874V355.011C206.502 355.422 206.631 355.697 206.631 355.971C174.457 388.328 126.715 438.234 115.298 442.073C111.017 443.581 132.164 448.517 132.164 444.815C132.164 429.048 210.653 361.866 214.545 359.81C217.788 363.923 211.95 439.331 211.95 453.042L222.978 452.356C219.086 447.557 219.086 362.552 225.054 357.068C225.054 355.971 224.924 354.737 224.924 353.64C230.243 348.156 258.006 336.502 274.223 333.76L270.98 329.647L220.513 343.357C219.345 313.605 220.253 281.523 224.275 272.062C248.925 304.282 314.181 377.771 315.738 385.174C315.997 386.134 316.257 386.82 316.646 387.231C316.257 397.24 315.997 407.248 315.608 417.257H315.478C315.089 436.726 314.441 455.235 313.143 456.332C311.586 457.566 316.905 458.389 321.965 458.8C320.019 446.872 319.76 429.871 322.614 417.806C323.003 416.983 323.522 416.16 323.652 415.201C326.636 394.635 328.452 394.909 340.128 393.264C342.852 392.852 345.317 392.441 347.393 391.893C347.782 391.893 348.431 391.755 349.209 391.618C353.88 389.973 354.528 391.481 355.956 393.127C357.383 394.635 357.901 396.965 358.291 399.022C359.329 405.055 359.458 409.305 359.458 415.201C359.329 415.886 359.069 416.434 359.069 416.709C357.383 430.831 356.215 444.952 355.696 459.211H356.604C353.491 460.308 363.091 459.623 368.28 459.211C366.594 448.243 363.74 426.032 365.556 422.467H365.686V422.33V422.193C365.686 422.193 365.686 422.056 365.556 422.056C363.869 410.402 365.167 398.885 367.632 387.505C367.891 387.368 368.151 387.231 368.41 387.231C369.707 386.957 370.875 387.231 372.172 387.642C372.561 387.779 372.951 387.917 373.34 388.054C373.989 388.328 374.637 388.602 375.286 388.876C376.583 389.425 378.01 389.836 379.437 390.247C384.238 392.167 388.908 394.635 393.319 397.651C388.649 411.91 385.405 426.58 383.589 441.525C383.459 442.485 383.329 443.581 383.719 444.541C384.238 445.638 384.886 445.227 389.297 447.283C385.794 431.379 388.389 428.363 392.411 411.91C393.189 409.031 397.081 403.547 399.287 400.256C404.865 403.409 409.666 407.934 414.336 412.458C418.228 416.023 421.99 419.725 424.844 424.387C430.553 433.573 431.201 433.161 436.65 446.598C440.542 440.839 441.58 445.09 442.748 439.742C434.056 429.048 425.363 418.491 416.671 407.797C413.168 403.409 409.536 399.022 404.995 395.732C404.476 395.32 403.827 394.909 403.179 394.635C404.087 393.812 404.995 392.989 405.903 392.167C412.13 388.739 438.467 373.795 458.965 366.939C462.857 371.738 470.641 438.92 471.938 451.259C472.197 454.139 473.235 454.001 479.722 451.945C477.127 446.461 462.208 371.053 468.695 364.197C486.209 356.656 517.994 345.688 530.967 342.946C539.789 349.39 559.509 356.794 565.995 362.826C571.185 367.625 594.926 390.522 602.97 403.272C605.564 398.474 608.159 396.28 605.564 395.732C602.97 395.183 574.817 363.786 560.806 347.745C556.006 341.575 550.427 330.743 564.049 327.179C566.644 326.493 618.538 345.688 623.079 347.745C626.062 349.116 621.133 341.575 623.727 342.26C625.673 342.809 560.806 325.122 565.995 315.525C568.72 310.452 624.376 320.323 627.619 322.38C630.603 324.299 630.214 309.355 627.619 312.783C625.544 315.525 576.374 311.412 564.049 307.298C561.714 303.459 558.341 292.491 564.049 279.877C566.385 274.804 574.947 265.344 584.807 251.085C600.505 261.642 631.641 279.877 632.16 279.877C632.809 279.877 636.701 272.336 635.403 270.28C634.106 268.223 595.705 248.754 592.591 245.601C592.98 245.052 592.85 244.915 593.24 244.23C607.77 239.02 632.809 227.503 635.403 231.89C638.776 237.237 638.128 222.841 637.479 222.156ZM441.71 255.884C440.802 257.94 440.153 259.449 439.634 260.682C439.245 261.368 438.985 262.465 438.985 263.973C438.985 271.651 421.471 293.177 412.649 303.048C415.244 288.378 421.471 255.061 422.769 250.262C428.218 229.971 442.099 179.379 444.175 183.766C446.77 189.113 452.997 214.889 453.905 217.906C453.645 219.002 453.386 220.648 453.127 222.978C452.218 228.6 449.494 233.673 447.548 239.02C445.602 244.641 444.045 250.4 441.71 255.884ZM428.347 174.306C426.531 176.774 423.936 178.419 421.471 180.064C407.071 188.976 390.724 194.186 374.118 195.283V195.146C369.578 196.517 366.075 193.501 364.258 188.976C362.702 185.137 364.388 181.435 362.702 178.145C362.702 178.008 362.702 177.871 362.572 177.734C354.918 158.539 353.491 145.24 351.674 129.472C351.545 128.376 353.62 126.319 355.566 124.262C388.13 140.441 420.304 157.716 430.812 167.862C430.812 170.056 429.774 172.386 428.347 174.306ZM450.013 172.798C454.554 174.443 473.625 188.428 483.225 195.694C487.247 201.042 491.009 207.074 493.085 213.655C494.123 216.809 494.771 219.962 496.328 222.978C496.588 223.39 496.717 223.801 496.977 224.075C487.376 225.172 484.911 229.011 477.127 229.559C474.403 229.834 471.419 229.834 468.954 228.6C466.23 227.366 464.154 224.761 462.857 221.882C461.819 219.551 461.819 217.083 460.521 214.615C454.943 199.945 445.342 171.153 450.013 172.798ZM496.458 82.9936C501.258 87.381 506.188 92.591 511.118 98.4865C508.523 106.987 507.096 128.101 507.096 137.013C507.096 145.788 507.615 180.476 505.02 189.799L492.436 192.952C491.917 192.815 491.139 192.678 489.712 192.541C481.928 191.993 460.132 172.661 450.143 163.063C447.159 159.361 459.873 81.2112 466.23 65.1699C473.106 67.6378 483.225 72.7107 496.458 82.9936ZM453.905 69.2831C454.683 69.4202 455.462 69.2831 456.24 69.0088C457.148 84.0905 445.991 144.691 438.985 157.716C432.499 157.716 399.027 141.949 358.55 121.657C386.703 103.697 445.083 68.1862 453.905 69.2831ZM273.315 85.3244C273.444 85.3244 304.581 99.1721 339.479 116.036C340.777 118.915 341.944 123.028 342.593 124.674C343.371 127.005 343.631 129.472 343.89 132.077C345.058 144.143 346.355 156.345 348.431 168.41C349.209 173.346 349.728 175.814 350.507 176.911C350.766 181.298 351.545 184.589 348.171 186.783C347.004 187.468 345.706 188.016 344.409 188.154C342.852 187.194 341.036 186.371 339.35 185.549C339.22 185.274 339.22 185 339.09 184.726C339.09 185 338.96 185.137 338.96 185.411C334.29 183.355 288.494 169.644 263.585 162.378C245.162 156.894 226.091 152.506 207.15 153.192C207.669 151.546 208.058 150.175 208.318 149.764C238.676 105.753 242.827 100.406 256.06 86.4212C262.287 79.566 271.628 85.3244 273.315 85.3244ZM183.149 61.7422C190.285 51.1851 208.188 50.0883 225.702 50.0883C232.189 50.0883 243.995 61.0567 246.46 62.5649C250.092 64.8957 256.579 72.4365 254.114 79.566C253.595 80.937 248.406 87.2439 247.498 88.6149C236.34 106.164 215.972 130.981 201.701 147.433C200.404 148.941 199.496 148.53 197.939 149.353C197.29 149.627 194.436 150.45 192.75 150.312C176.792 149.216 134.629 127.827 115.428 117.27C131.904 104.519 167.581 74.6302 183.149 61.7422ZM107.514 122.754C107.903 122.617 108.422 122.206 109.201 121.657L189.377 156.345C189.377 156.345 191.712 158.539 192.49 159.087C193.398 159.773 194.566 161.966 196.123 166.902C203.128 189.525 215.453 246.012 210.653 254.376C197.42 247.52 56.2692 194.049 56.2692 191.307C56.2692 188.565 102.455 124.811 107.514 122.754ZM102.974 257.255C102.584 257.118 102.195 257.118 101.676 256.981L71.4481 238.746C70.1508 237.375 69.1129 236.003 68.2048 234.632C64.3127 223.527 55.6205 206.526 55.2313 202.961C78.1943 198.574 183.02 249.988 206.631 266.304C207.41 272.062 121.266 259.449 102.974 257.255ZM75.8591 83.6791C86.627 101.092 95.0598 115.762 95.8382 117.27C98.4329 122.754 52.7664 189.525 51.0798 182.395C49.7825 177.185 44.5931 136.053 46.5391 117.544C46.6689 117.27 46.7986 116.996 46.7986 116.722C46.9283 116.173 46.9283 115.625 46.7986 115.076C46.7986 114.939 46.7986 114.939 46.7986 114.802C46.7986 114.802 46.7986 114.802 46.6689 114.802C46.4094 113.02 45.5013 111.512 46.7986 109.181C51.988 105.616 70.6697 84.3647 75.8591 83.6791ZM-31.042 141.949C-29.3554 132.9 -11.5818 115.899 -11.5818 115.899C-0.684158 107.81 6.7107 102.874 10.9919 99.5834C11.6406 99.4463 12.419 99.5834 13.0677 99.7205C14.6245 99.9947 15.9218 100.817 17.3489 101.64C22.0194 104.245 26.5601 106.987 31.2305 109.592C33.5657 110.963 35.9009 112.334 37.5875 114.391C39.1443 116.447 39.9227 119.052 40.3119 121.657C40.0524 122.617 40.1822 123.577 40.5714 124.125C42.5174 126.867 48.3554 181.71 40.5714 189.25C37.4577 192.404 -33.3772 154.289 -31.042 141.949ZM-50.7616 233.81C-13.2684 217.083 31.8792 199.533 35.5117 199.533C37.1983 201.316 37.0685 200.767 36.9388 200.493C36.9388 200.63 37.0685 200.904 37.4577 201.59C39.274 206.252 25.133 247.932 12.0298 288.104C0.872665 282.071 -48.5561 241.762 -50.7616 233.81ZM30.971 363.375C18.1273 370.23 10.2135 368.859 10.2135 339.381C7.22964 328.001 29.6737 226.406 49.523 206.252C50.3014 208.034 60.1612 223.253 58.8639 230.382L59.1234 230.519C58.8639 230.656 58.6044 230.656 58.6044 230.656C61.4586 236.141 65.0912 241.213 69.3724 245.464C73.2644 249.303 77.6754 252.593 80.789 257.118C83.9026 261.642 85.5892 267.812 83.254 272.885C81.9566 275.764 79.4916 277.821 77.5456 280.289C76.378 281.797 75.5996 283.716 75.4699 285.499C72.0968 295.782 37.0685 360.084 30.971 363.375ZM69.6319 315.388C76.1186 303.597 81.6971 293.862 82.2161 292.765L113.352 262.054C138.391 263.425 197.55 272.885 208.058 277.684C221.162 283.579 214.675 309.355 214.415 343.906C214.156 344.18 213.896 344.454 213.637 344.865C182.89 346.099 74.432 322.928 69.6319 315.388ZM330.787 386.683C329.749 386.545 328.841 386.408 327.803 386.134C331.306 362.963 337.274 345.825 345.188 324.299C342.333 324.711 339.479 325.122 336.625 325.808C331.825 344.317 327.025 362.689 322.225 381.198C322.225 381.061 321.965 381.061 321.706 381.198C296.537 353.092 230.373 269.869 223.497 261.094C221.551 253.553 205.204 195.969 203.258 169.233C203.128 167.451 203.518 165.12 204.037 162.926C204.556 162.515 205.204 162.104 205.853 161.829C208.448 160.595 211.431 160.458 214.415 160.458C243.865 160.184 272.666 169.919 301.467 180.887C314.181 185.686 328.192 188.565 337.404 196.243C337.404 196.517 337.274 196.654 337.274 196.928C337.533 196.928 337.922 196.928 338.182 196.928C338.441 197.065 338.701 197.065 339.09 197.065C343.371 197.751 346.744 202.687 346.874 207.486C347.004 211.873 347.134 215.438 346.744 219.551C346.485 219.962 346.485 220.511 346.485 221.333C346.485 221.744 346.355 222.019 346.355 222.43C346.485 222.43 346.615 222.43 346.744 222.43C347.523 228.6 350.247 257.118 348.042 273.57C346.096 288.241 342.593 302.637 338.96 317.033C341.685 316.484 344.409 316.21 347.134 315.936C351.545 295.233 354.269 274.119 355.437 252.867C355.826 245.327 355.956 237.923 356.215 230.382C356.215 228.188 356.085 224.487 355.956 222.156C355.956 222.019 355.956 222.019 355.956 221.882C356.993 216.397 358.81 213.244 362.702 211.324C363.35 211.05 363.999 210.639 364.518 210.09C364.518 210.228 364.518 210.365 364.648 210.502C366.723 208.034 370.097 206.114 374.118 204.469C374.248 204.469 374.248 204.469 374.378 204.469V204.332C382.681 201.179 393.578 199.533 399.806 197.751C409.147 195.283 419.006 192.952 426.272 186.234C429.126 183.629 431.591 180.339 434.704 178.145C432.758 204.606 408.109 277.272 395.784 306.202C394.616 307.436 366.853 312.234 343.89 316.484C321.706 320.323 288.234 326.356 277.726 327.453L282.266 332.937C293.424 330.469 323.133 327.316 342.463 324.162C358.031 321.969 383.459 316.484 388.649 317.307C391.373 317.718 389.297 323.066 388 325.533C385.016 331.292 363.221 377.222 358.42 385.312C349.08 386.82 339.868 388.054 330.787 386.683ZM389.816 388.465L370.875 379.553C378.01 363.1 393.968 324.162 394.876 323.614C396.822 322.243 397.211 317.444 398.768 324.299C396.692 344.591 392.022 385.037 389.816 388.465ZM528.502 338.01C526.037 340.067 427.828 377.496 402.53 382.432C402.271 361.318 403.179 328.413 409.147 322.243C413.687 311.274 525.129 316.073 527.205 318.815C528.762 324.299 531.097 335.816 528.502 338.01ZM547.314 298.249C547.833 301.54 534.989 306.476 531.745 309.903C529.799 311.96 441.321 309.218 418.228 309.766C420.304 304.693 439.375 276.175 448.716 262.602C453.905 256.981 457.019 246.012 462.857 241.351C468.046 237.237 475.181 237.1 481.668 236.003C483.484 235.729 485.56 235.044 487.766 234.358C487.895 234.495 488.544 234.358 489.582 233.81C496.328 231.068 551.206 238.746 577.801 242.996C568.72 261.231 547.054 296.467 547.314 298.249Z" fill="#718DD5"/>
<path d="M44.9819 202.138C47.9658 201.864 50.301 199.122 50.1712 195.968C49.9118 192.815 47.3171 190.347 44.3332 190.484C41.3493 190.758 39.0141 193.5 39.1438 196.654C39.2736 199.944 41.998 202.412 44.9819 202.138Z" fill="url(#paint0_radial)"/>
<path d="M49.2636 195.147C52.2475 194.873 54.5827 192.13 54.453 188.977C54.1935 185.824 51.5988 183.356 48.6149 183.493C45.631 183.767 43.2958 186.509 43.4256 189.663C43.685 192.953 46.2797 195.421 49.2636 195.147Z" fill="url(#paint1_radial)"/>
<path d="M53.0256 203.235C56.0095 202.96 58.3447 200.218 58.2149 197.065C57.9555 193.911 55.3608 191.444 52.3769 191.581C49.393 191.855 47.0578 194.597 47.1875 197.75C47.3173 201.041 49.9119 203.509 53.0256 203.235Z" fill="url(#paint2_radial)"/>
<path d="M102.584 123.852C105.828 123.577 108.293 120.698 108.033 117.27C107.774 113.843 105.049 111.238 101.806 111.512C98.5626 111.786 96.0977 114.665 96.3571 118.093C96.6166 121.521 99.2113 124.126 102.584 123.852Z" fill="url(#paint3_radial)"/>
<path d="M107.125 116.447C110.369 116.173 112.833 113.294 112.574 109.866C112.315 106.438 109.59 103.833 106.347 104.108C103.103 104.382 100.638 107.261 100.898 110.689C101.028 114.116 103.882 116.584 107.125 116.447Z" fill="url(#paint4_radial)"/>
<path d="M111.017 125.084C114.26 124.81 116.725 121.931 116.466 118.503C116.206 115.075 113.482 112.47 110.239 112.744C106.995 113.019 104.53 115.898 104.79 119.325C104.919 122.753 107.774 125.358 111.017 125.084Z" fill="url(#paint5_radial)"/>
<path d="M346.874 125.085C349.339 124.263 350.766 121.521 349.988 119.053C349.209 116.448 346.615 114.94 344.279 115.762C341.815 116.585 340.387 119.327 341.166 121.795C341.815 124.4 344.409 125.771 346.874 125.085Z" fill="url(#paint6_radial)"/>
<path d="M349.079 118.504C351.544 117.682 352.971 114.94 352.193 112.472C351.414 109.867 348.82 108.358 346.485 109.181C344.02 110.004 342.593 112.746 343.371 115.214C344.149 117.819 346.614 119.19 349.079 118.504Z" fill="url(#paint7_radial)"/>
<path d="M353.62 124.4C356.085 123.577 357.512 120.835 356.734 118.367C355.955 115.762 353.361 114.254 351.025 115.077C348.56 115.899 347.133 118.641 347.912 121.109C348.56 123.714 351.155 125.085 353.62 124.4Z" fill="url(#paint8_radial)"/>
<path d="M444.564 178.008C446.51 175.266 445.991 171.29 443.396 169.234C440.802 167.177 437.039 167.725 435.093 170.467C433.147 173.21 433.666 177.186 436.261 179.242C438.985 181.299 442.748 180.75 444.564 178.008Z" fill="url(#paint9_radial)"/>
<path d="M442.229 169.507C444.175 166.765 443.656 162.789 441.061 160.733C438.466 158.676 434.704 159.224 432.758 161.967C430.812 164.709 431.331 168.685 433.926 170.741C436.65 172.798 440.283 172.249 442.229 169.507Z" fill="url(#paint10_radial)"/>
<path d="M451.051 171.975C452.997 169.233 452.478 165.257 449.883 163.2C447.288 161.144 443.526 161.692 441.58 164.434C439.634 167.176 440.153 171.152 442.748 173.209C445.342 175.266 449.105 174.717 451.051 171.975Z" fill="url(#paint11_radial)"/>
<path d="M400.714 320.323C404.476 319.638 406.941 315.936 406.422 311.96C405.903 307.984 402.271 305.379 398.508 306.064C394.746 306.75 392.281 310.452 392.93 314.428C393.449 318.404 396.951 321.009 400.714 320.323Z" fill="url(#paint12_radial)"/>
<path d="M405.255 311.138C409.017 310.452 411.482 306.75 410.963 302.774C410.314 298.798 406.811 296.193 403.049 296.742C399.287 297.427 396.822 301.129 397.47 305.105C397.989 309.081 401.492 311.823 405.255 311.138Z" fill="url(#paint13_radial)"/>
<path d="M410.833 320.597C414.595 319.911 417.06 316.21 416.411 312.233C415.763 308.257 412.26 305.652 408.498 306.338C404.735 307.023 402.27 310.725 402.789 314.701C403.438 318.677 407.071 321.282 410.833 320.597Z" fill="url(#paint14_radial)"/>
<path d="M213.637 277.821C217.27 276.724 219.475 272.748 218.437 268.909C217.399 265.07 213.637 262.739 210.005 263.836C206.372 264.933 204.166 268.909 205.204 272.748C206.112 276.587 209.875 278.918 213.637 277.821Z" fill="url(#paint15_radial)"/>
<path d="M217.269 268.087C220.902 266.99 223.107 263.014 222.07 259.175C221.032 255.336 217.269 253.005 213.637 254.102C210.004 255.199 207.799 259.175 208.837 263.014C209.745 266.853 213.507 269.183 217.269 268.087Z" fill="url(#paint16_radial)"/>
<path d="M223.626 277.135C227.259 276.039 229.464 272.062 228.426 268.224C227.388 264.385 223.626 262.054 219.994 263.151C216.361 264.247 214.155 268.223 215.193 272.062C216.101 275.901 219.864 278.095 223.626 277.135Z" fill="url(#paint17_radial)"/>
<path d="M209.744 358.575C212.728 359.672 215.842 358.027 216.88 354.874C217.918 351.72 216.361 348.43 213.377 347.333C210.393 346.236 207.28 347.881 206.242 351.035C205.334 354.051 206.89 357.479 209.744 358.575Z" fill="url(#paint18_radial)"/>
<path d="M216.491 353.778C219.475 354.874 222.588 353.229 223.626 350.076C224.664 346.922 223.107 343.632 220.123 342.535C217.139 341.438 214.026 343.083 212.988 346.237C211.95 349.253 213.507 352.681 216.491 353.778Z" fill="url(#paint19_radial)"/>
<path d="M216.88 362.963C219.864 364.06 222.978 362.415 224.016 359.261C225.054 356.108 223.497 352.817 220.513 351.721C217.529 350.624 214.415 352.269 213.378 355.422C212.34 358.439 213.896 361.866 216.88 362.963Z" fill="url(#paint20_radial)"/>
<path d="M10.8619 295.371C12.9376 297.839 16.5702 297.976 18.7757 295.645C21.1109 293.451 21.2406 289.613 19.0351 287.282C16.9594 284.814 13.3268 284.677 11.1213 287.008C8.91584 289.201 8.78611 293.04 10.8619 295.371Z" fill="url(#paint21_radial)"/>
<path d="M7.22942 303.735C9.30517 306.203 12.9377 306.34 15.273 304.009C17.6082 301.815 17.7379 297.976 15.5324 295.508C13.4567 293.04 9.82411 292.903 7.48889 295.234C5.15368 297.565 5.15367 301.267 7.22942 303.735Z" fill="url(#paint22_radial)"/>
<path d="M192.62 160.732C195.214 162.652 198.717 161.966 200.534 159.224C202.35 156.482 201.701 152.78 199.106 150.86C196.512 148.941 193.009 149.626 191.193 152.369C189.376 155.111 190.025 158.813 192.62 160.732Z" fill="url(#paint23_radial)"/>
<path d="M200.274 157.99C202.869 159.909 206.372 159.224 208.188 156.482C210.004 153.74 209.355 150.038 206.761 148.118C204.166 146.199 200.663 146.884 198.847 149.626C197.031 152.369 197.679 156.07 200.274 157.99Z" fill="url(#paint24_radial)"/>
<path d="M198.458 167.04C201.053 168.959 204.555 168.274 206.372 165.531C208.188 162.789 207.539 159.088 204.945 157.168C202.35 155.249 198.847 155.934 197.031 158.676C195.215 161.418 195.863 165.12 198.458 167.04Z" fill="url(#paint25_radial)"/>
<path d="M347.912 200.63C350.506 202.55 354.009 201.864 355.825 199.122C357.642 196.38 356.993 192.678 354.398 190.759C351.804 188.839 348.301 189.525 346.485 192.267C344.798 195.009 345.447 198.711 347.912 200.63Z" fill="url(#paint26_radial)"/>
<path d="M355.696 197.888C358.291 199.808 361.794 199.122 363.61 196.38C365.426 193.638 364.778 189.936 362.183 188.017C359.588 186.097 356.085 186.783 354.269 189.525C352.453 192.267 353.101 195.969 355.696 197.888Z" fill="url(#paint27_radial)"/>
<path d="M353.75 206.8C356.345 208.72 359.848 208.034 361.664 205.292C363.48 202.55 362.832 198.848 360.237 196.929C357.642 195.009 354.139 195.695 352.323 198.437C350.507 201.179 351.155 205.018 353.75 206.8Z" fill="url(#paint28_radial)"/>
<path d="M84.1618 271.514C86.7565 273.434 90.2593 272.748 92.0756 270.006C93.8919 267.264 93.2432 263.562 90.6485 261.643C88.0538 259.723 84.551 260.409 82.7347 263.151C80.9184 265.893 81.5671 269.732 84.1618 271.514Z" fill="url(#paint29_radial)"/>
<path d="M91.9457 268.909C94.5404 270.828 98.0432 270.143 99.8595 267.401C101.676 264.659 101.027 260.957 98.4324 259.037C95.8377 257.118 92.3349 257.803 90.5186 260.545C88.7023 263.287 89.351 266.989 91.9457 268.909Z" fill="url(#paint30_radial)"/>
<path d="M89.9999 277.821C92.5946 279.74 96.0974 279.055 97.9137 276.313C99.73 273.571 99.0813 269.869 96.4866 267.949C93.8919 266.03 90.3891 266.715 88.5728 269.457C86.7565 272.2 87.4052 276.039 89.9999 277.821Z" fill="url(#paint31_radial)"/>
<path d="M454.683 60.3717C457.278 62.2912 460.781 61.6056 462.597 58.8635C464.413 56.1214 463.764 52.4196 461.17 50.5001C458.575 48.5806 455.072 49.2661 453.256 52.0082C451.44 54.7504 452.088 58.5893 454.683 60.3717Z" fill="url(#paint32_radial)"/>
<path d="M462.337 57.7662C464.932 59.6857 468.435 59.0002 470.251 56.258C472.067 53.5159 471.419 49.8141 468.824 47.8946C466.229 45.9751 462.727 46.6607 460.91 49.4028C459.094 52.1449 459.743 55.8467 462.337 57.7662Z" fill="url(#paint33_radial)"/>
<path d="M460.391 66.6783C462.986 68.5978 466.489 67.9123 468.305 65.1702C470.121 62.428 469.473 58.7262 466.878 56.8067C464.283 54.8872 460.78 55.5728 458.964 58.3149C457.148 61.057 457.797 64.8959 460.391 66.6783Z" fill="url(#paint34_radial)"/>
<path d="M450.791 236.278C453.386 238.197 456.889 237.512 458.705 234.77C460.521 232.028 459.873 228.326 457.278 226.406C454.683 224.487 451.18 225.172 449.364 227.914C447.548 230.657 448.196 234.358 450.791 236.278Z" fill="url(#paint35_radial)"/>
<path d="M458.445 233.536C461.04 235.455 464.543 234.77 466.359 232.028C468.175 229.285 467.527 225.584 464.932 223.664C462.337 221.745 458.834 222.43 457.018 225.172C455.202 227.914 455.851 231.616 458.445 233.536Z" fill="url(#paint36_radial)"/>
<path d="M456.499 242.585C459.094 244.504 462.597 243.819 464.413 241.076C466.229 238.334 465.581 234.632 462.986 232.713C460.391 230.793 456.889 231.479 455.072 234.221C453.256 236.963 454.034 240.665 456.499 242.585Z" fill="url(#paint37_radial)"/>
</g>
<defs>
<radialGradient id="paint0_radial" cx="0" cy="0" r="1" gradientUnits="userSpaceOnUse" gradientTransform="translate(44.6475 196.283) rotate(86.3286) scale(5.84103 5.52965)">
<stop stop-color="#6E97C9"/>
<stop offset="1" stop-color="#0075FF"/>
</radialGradient>
<radialGradient id="paint1_radial" cx="0" cy="0" r="1" gradientUnits="userSpaceOnUse" gradientTransform="translate(48.9537 189.285) rotate(86.3286) scale(5.84045 5.5291)">
<stop stop-color="#6E97C9"/>
<stop offset="1" stop-color="#0075FF"/>
</radialGradient>
<radialGradient id="paint2_radial" cx="0" cy="0" r="1" gradientUnits="userSpaceOnUse" gradientTransform="translate(52.6344 197.386) rotate(86.3286) scale(5.84103 5.52965)">
<stop stop-color="#6E97C9"/>
<stop offset="1" stop-color="#0075FF"/>
</radialGradient>
<radialGradient id="paint3_radial" cx="0" cy="0" r="1" gradientUnits="userSpaceOnUse" gradientTransform="translate(102.087 117.669) rotate(86.329) scale(6.23066 5.8985)">
<stop stop-color="#6E97C9"/>
<stop offset="1" stop-color="#0075FF"/>
</radialGradient>
<radialGradient id="paint4_radial" cx="0" cy="0" r="1" gradientUnits="userSpaceOnUse" gradientTransform="translate(106.674 110.201) rotate(86.329) scale(6.23066 5.8985)">
<stop stop-color="#6E97C9"/>
<stop offset="1" stop-color="#0075FF"/>
</radialGradient>
<radialGradient id="paint5_radial" cx="0" cy="0" r="1" gradientUnits="userSpaceOnUse" gradientTransform="translate(110.605 118.842) rotate(86.329) scale(6.23066 5.8985)">
<stop stop-color="#6E97C9"/>
<stop offset="1" stop-color="#0075FF"/>
</radialGradient>
<radialGradient id="paint6_radial" cx="0" cy="0" r="1" gradientUnits="userSpaceOnUse" gradientTransform="translate(345.529 120.367) rotate(74.0143) scale(4.87049 4.64948)">
<stop stop-color="#6E97C9"/>
<stop offset="1" stop-color="#0075FF"/>
</radialGradient>
<radialGradient id="paint7_radial" cx="0" cy="0" r="1" gradientUnits="userSpaceOnUse" gradientTransform="translate(347.792 113.801) rotate(74.0143) scale(4.8705 4.6495)">
<stop stop-color="#6E97C9"/>
<stop offset="1" stop-color="#0075FF"/>
</radialGradient>
<radialGradient id="paint8_radial" cx="0" cy="0" r="1" gradientUnits="userSpaceOnUse" gradientTransform="translate(352.241 119.68) rotate(74.0142) scale(4.8705 4.6495)">
<stop stop-color="#6E97C9"/>
<stop offset="1" stop-color="#0075FF"/>
</radialGradient>
<radialGradient id="paint9_radial" cx="0" cy="0" r="1" gradientUnits="userSpaceOnUse" gradientTransform="translate(439.901 174.272) rotate(38.1799) scale(6.01871 6.10638)">
<stop stop-color="#6E97C9"/>
<stop offset="1" stop-color="#0075FF"/>
</radialGradient>
<radialGradient id="paint10_radial" cx="0" cy="0" r="1" gradientUnits="userSpaceOnUse" gradientTransform="translate(437.507 165.738) rotate(38.1799) scale(6.01871 6.10638)">
<stop stop-color="#6E97C9"/>
<stop offset="1" stop-color="#0075FF"/>
</radialGradient>
<radialGradient id="paint11_radial" cx="0" cy="0" r="1" gradientUnits="userSpaceOnUse" gradientTransform="translate(446.279 168.197) rotate(38.1799) scale(6.01871 6.10638)">
<stop stop-color="#6E97C9"/>
<stop offset="1" stop-color="#0075FF"/>
</radialGradient>
<radialGradient id="paint12_radial" cx="0" cy="0" r="1" gradientUnits="userSpaceOnUse" gradientTransform="translate(399.559 313.198) rotate(80.8674) scale(7.2763 6.90536)">
<stop stop-color="#6E97C9"/>
<stop offset="1" stop-color="#0075FF"/>
</radialGradient>
<radialGradient id="paint13_radial" cx="0" cy="0" r="1" gradientUnits="userSpaceOnUse" gradientTransform="translate(404.067 303.942) rotate(80.8674) scale(7.2763 6.90536)">
<stop stop-color="#6E97C9"/>
<stop offset="1" stop-color="#0075FF"/>
</radialGradient>
<radialGradient id="paint14_radial" cx="0" cy="0" r="1" gradientUnits="userSpaceOnUse" gradientTransform="translate(409.601 313.507) rotate(80.8674) scale(7.2763 6.90537)">
<stop stop-color="#6E97C9"/>
<stop offset="1" stop-color="#0075FF"/>
</radialGradient>
<radialGradient id="paint15_radial" cx="0" cy="0" r="1" gradientUnits="userSpaceOnUse" gradientTransform="translate(211.768 270.779) rotate(75.6303) scale(7.26096 6.92003)">
<stop stop-color="#6E97C9"/>
<stop offset="1" stop-color="#0075FF"/>
</radialGradient>
<radialGradient id="paint16_radial" cx="0" cy="0" r="1" gradientUnits="userSpaceOnUse" gradientTransform="translate(215.405 261.109) rotate(75.6303) scale(7.26095 6.92002)">
<stop stop-color="#6E97C9"/>
<stop offset="1" stop-color="#0075FF"/>
</radialGradient>
<radialGradient id="paint17_radial" cx="0" cy="0" r="1" gradientUnits="userSpaceOnUse" gradientTransform="translate(221.79 270.068) rotate(75.6303) scale(7.26096 6.92004)">
<stop stop-color="#6E97C9"/>
<stop offset="1" stop-color="#0075FF"/>
</radialGradient>
<radialGradient id="paint18_radial" cx="0" cy="0" r="1" gradientUnits="userSpaceOnUse" gradientTransform="translate(211.619 352.873) rotate(108.036) scale(5.93347 5.67736)">
<stop stop-color="#6E97C9"/>
<stop offset="1" stop-color="#0075FF"/>
</radialGradient>
<radialGradient id="paint19_radial" cx="0" cy="0" r="1" gradientUnits="userSpaceOnUse" gradientTransform="translate(218.294 348.09) rotate(108.036) scale(5.93347 5.67736)">
<stop stop-color="#6E97C9"/>
<stop offset="1" stop-color="#0075FF"/>
</radialGradient>
<radialGradient id="paint20_radial" cx="0" cy="0" r="1" gradientUnits="userSpaceOnUse" gradientTransform="translate(218.72 357.258) rotate(108.036) scale(5.93348 5.67736)">
<stop stop-color="#6E97C9"/>
<stop offset="1" stop-color="#0075FF"/>
</radialGradient>
<radialGradient id="paint21_radial" cx="0" cy="0" r="1" gradientUnits="userSpaceOnUse" gradientTransform="translate(15.0088 291.285) rotate(135.423) scale(5.79659 5.81017)">
<stop stop-color="#6E97C9"/>
<stop offset="1" stop-color="#0075FF"/>
</radialGradient>
<radialGradient id="paint22_radial" cx="0" cy="0" r="1" gradientUnits="userSpaceOnUse" gradientTransform="translate(11.3106 299.591) rotate(135.423) scale(5.79659 5.81017)">
<stop stop-color="#6E97C9"/>
<stop offset="1" stop-color="#0075FF"/>
</radialGradient>
<radialGradient id="paint23_radial" cx="0" cy="0" r="1" gradientUnits="userSpaceOnUse" gradientTransform="translate(195.858 155.771) rotate(123.074) scale(5.90505 5.78205)">
<stop stop-color="#6E97C9"/>
<stop offset="1" stop-color="#0075FF"/>
</radialGradient>
<radialGradient id="paint24_radial" cx="0" cy="0" r="1" gradientUnits="userSpaceOnUse" gradientTransform="translate(203.554 153.034) rotate(123.074) scale(5.90505 5.78205)">
<stop stop-color="#6E97C9"/>
<stop offset="1" stop-color="#0075FF"/>
</radialGradient>
<radialGradient id="paint25_radial" cx="0" cy="0" r="1" gradientUnits="userSpaceOnUse" gradientTransform="translate(201.627 162.049) rotate(123.074) scale(5.90505 5.78205)">
<stop stop-color="#6E97C9"/>
<stop offset="1" stop-color="#0075FF"/>
</radialGradient>
<radialGradient id="paint26_radial" cx="0" cy="0" r="1" gradientUnits="userSpaceOnUse" gradientTransform="translate(351.2 195.627) rotate(123.074) scale(5.90505 5.78204)">
<stop stop-color="#6E97C9"/>
<stop offset="1" stop-color="#0075FF"/>
</radialGradient>
<radialGradient id="paint27_radial" cx="0" cy="0" r="1" gradientUnits="userSpaceOnUse" gradientTransform="translate(358.896 192.89) rotate(123.074) scale(5.90505 5.78204)">
<stop stop-color="#6E97C9"/>
<stop offset="1" stop-color="#0075FF"/>
</radialGradient>
<radialGradient id="paint28_radial" cx="0" cy="0" r="1" gradientUnits="userSpaceOnUse" gradientTransform="translate(356.968 201.905) rotate(123.074) scale(5.90505 5.78204)">
<stop stop-color="#6E97C9"/>
<stop offset="1" stop-color="#0075FF"/>
</radialGradient>
<radialGradient id="paint29_radial" cx="0" cy="0" r="1" gradientUnits="userSpaceOnUse" gradientTransform="translate(87.4374 266.622) rotate(123.074) scale(5.90505 5.78205)">
<stop stop-color="#6E97C9"/>
<stop offset="1" stop-color="#0075FF"/>
</radialGradient>
<radialGradient id="paint30_radial" cx="0" cy="0" r="1" gradientUnits="userSpaceOnUse" gradientTransform="translate(95.1331 263.885) rotate(123.074) scale(5.90506 5.78205)">
<stop stop-color="#6E97C9"/>
<stop offset="1" stop-color="#0075FF"/>
</radialGradient>
<radialGradient id="paint31_radial" cx="0" cy="0" r="1" gradientUnits="userSpaceOnUse" gradientTransform="translate(93.2055 272.9) rotate(123.074) scale(5.90506 5.78205)">
<stop stop-color="#6E97C9"/>
<stop offset="1" stop-color="#0075FF"/>
</radialGradient>
<radialGradient id="paint32_radial" cx="0" cy="0" r="1" gradientUnits="userSpaceOnUse" gradientTransform="translate(457.864 55.478) rotate(123.074) scale(5.90506 5.78205)">
<stop stop-color="#6E97C9"/>
<stop offset="1" stop-color="#0075FF"/>
</radialGradient>
<radialGradient id="paint33_radial" cx="0" cy="0" r="1" gradientUnits="userSpaceOnUse" gradientTransform="translate(465.56 52.7411) rotate(123.074) scale(5.90505 5.78205)">
<stop stop-color="#6E97C9"/>
<stop offset="1" stop-color="#0075FF"/>
</radialGradient>
<radialGradient id="paint34_radial" cx="0" cy="0" r="1" gradientUnits="userSpaceOnUse" gradientTransform="translate(463.632 61.7559) rotate(123.074) scale(5.90505 5.78205)">
<stop stop-color="#6E97C9"/>
<stop offset="1" stop-color="#0075FF"/>
</radialGradient>
<radialGradient id="paint35_radial" cx="0" cy="0" r="1" gradientUnits="userSpaceOnUse" gradientTransform="translate(454.017 231.343) rotate(123.074) scale(5.90505 5.78205)">
<stop stop-color="#6E97C9"/>
<stop offset="1" stop-color="#0075FF"/>
</radialGradient>
<radialGradient id="paint36_radial" cx="0" cy="0" r="1" gradientUnits="userSpaceOnUse" gradientTransform="translate(461.713 228.607) rotate(123.074) scale(5.90505 5.78205)">
<stop stop-color="#6E97C9"/>
<stop offset="1" stop-color="#0075FF"/>
</radialGradient>
<radialGradient id="paint37_radial" cx="0" cy="0" r="1" gradientUnits="userSpaceOnUse" gradientTransform="translate(459.785 237.621) rotate(123.074) scale(5.90505 5.78205)">
<stop stop-color="#6E97C9"/>
<stop offset="1" stop-color="#0075FF"/>
</radialGradient>
</defs>
</svg>
