<svg width="600" height="600" viewBox="0 0 600 600" fill="none" xmlns="http://www.w3.org/2000/svg">
<path d="M132.395 370.161C131.149 366.048 132.59 361.279 135.864 358.514C137.936 356.776 141.398 357.514 143.002 359.702C144.607 361.889 144.518 364.989 143.273 367.398C142.028 369.807 139.823 371.564 137.455 372.888C135.39 374.024 133.066 372.367 132.395 370.161Z" fill="#E2C2C6" stroke="#7F2135" stroke-width="1.33406" stroke-miterlimit="10"/>
<path d="M159.765 385.721C158.531 384.112 156.974 382.558 157.429 380.59C157.885 378.623 159.766 377.09 161.778 377.015C163.807 376.951 165.788 378.361 166.371 380.298C166.884 381.976 167.094 383.843 166.496 385.51C165.898 387.177 164.383 388.581 162.616 388.652C160.868 388.734 160.385 386.54 159.765 385.721Z" fill="#E2C2C6" stroke="#7F2135" stroke-width="1.33406" stroke-miterlimit="10"/>
<path d="M184.704 398.083C182.487 397.797 180.533 396.257 179.039 394.594C177.545 392.932 176.821 390.356 177.952 388.439C179.083 386.522 182.41 386.188 183.462 388.153C186.319 393.56 190.379 398.354 195.269 402.049C196.585 403.052 196.021 405.417 194.519 406.126C193.016 406.834 191.161 406.175 189.947 405.038C188.732 403.9 187.994 402.359 187.214 400.89C186.434 399.421 185.517 398.189 184.704 398.083Z" fill="#E2C2C6" stroke="#7F2135" stroke-width="1.33406" stroke-miterlimit="10"/>
<path d="M202.046 416.363C201.488 415.604 201.818 414.486 201.949 413.543C202.098 412.611 202.511 411.686 203.288 411.14C203.887 410.734 204.641 410.564 205.374 410.599C206.663 410.64 207.947 411.236 208.794 412.209C209.67 413.176 210.119 414.502 210.015 415.776C209.952 416.685 209.565 417.649 208.747 418.098C208.036 418.488 207.155 418.416 206.341 418.309C205.254 418.215 202.394 416.855 202.046 416.363Z" fill="#E2C2C6" stroke="#7F2135" stroke-width="1.33406" stroke-miterlimit="10"/>
<path d="M142.479 344.95C141.969 344.656 141.307 344.54 140.92 344.074C139.696 342.616 141.335 340.071 143.146 339.419C144.956 338.767 147.164 339.824 147.813 341.605C148.48 343.396 147.463 345.621 145.671 346.283C145.14 346.486 144.496 346.551 143.993 346.285C143.306 345.96 142.844 345.161 142.479 344.95Z" fill="#E2C2C6" stroke="#7F2135" stroke-width="1.33406" stroke-miterlimit="10"/>
<path d="M153.13 342.201C152.57 343.551 151.962 344.897 152.093 346.355C152.223 347.812 152.735 349.199 153.268 350.549C156.739 359.268 161.701 367.298 166.667 375.28C167.235 376.19 167.902 377.182 168.953 377.424C170.133 377.694 171.347 376.77 171.709 375.597C172.06 374.442 171.701 373.168 171.084 372.133C170.438 371.106 169.564 370.262 168.712 369.381C162.785 363.147 159.411 354.556 159.514 345.96C159.545 344.305 159.666 342.581 159.001 341.081C158.346 339.564 156.54 338.4 155.04 339.061C153.637 339.682 153.406 341.512 153.13 342.201Z" fill="#E2C2C6" stroke="#7F2135" stroke-width="1.33406" stroke-miterlimit="10"/>
<path d="M168.066 319.742C164.717 321.081 161.201 322.373 160.362 325.889C159.522 329.405 160.493 333.069 161.561 336.522C164.987 347.592 169.421 358.347 174.81 368.586C176.818 372.388 178.978 376.181 182.023 379.199C183.741 380.895 185.711 382.323 187.508 383.967C190.314 386.556 192.63 389.615 195.245 392.41C201.434 398.989 209.407 403.908 218.075 406.488C221.224 407.433 224.723 408.023 227.696 406.66C230.662 405.269 232.479 401.154 230.474 398.566C229.196 396.907 226.868 396.436 224.775 396.609C222.682 396.783 220.682 397.47 218.578 397.662C212.999 398.15 207.756 395.026 203.291 391.648C187.799 379.843 176.104 363.102 170.401 344.487C168.926 339.634 167.859 334.242 169.887 329.594C170.549 328.11 171.496 326.765 172.075 325.257C172.654 323.748 172.827 321.933 171.937 320.571C171.058 319.19 169.273 319.251 168.066 319.742Z" fill="#E2C2C6" stroke="#7F2135" stroke-width="1.33406" stroke-miterlimit="10"/>
<path d="M185.661 319.863C182.703 319.852 179.641 320.946 177.854 323.284C176.515 325.056 176.024 327.295 175.576 329.46C174.761 333.354 173.96 337.353 174.596 341.26C175.244 345.271 177.379 348.855 179.472 352.343C181.744 356.152 184.016 359.961 186.317 363.762C188.864 368.021 191.429 372.29 194.806 375.912C198.52 379.875 203.091 382.902 207.606 385.897C212.757 389.307 217.963 393.38 224.094 394.083C229.43 394.69 234.784 393.708 236.237 391.613C239.556 386.79 225.567 387.029 219.966 385.323C211.338 382.717 203.626 377.513 197.395 371.007C191.164 364.5 186.376 356.716 182.647 348.527C181.539 346.069 180.484 343.52 180.209 340.839C179.934 338.159 180.528 335.277 182.361 333.281C185.425 329.91 190.645 330.087 195.07 329.029C196.705 328.64 198.576 327.756 198.817 326.077C199.017 324.762 198.069 323.415 196.837 322.897C194.748 322.054 188.619 319.874 185.661 319.863Z" fill="#E2C2C6" stroke="#7F2135" stroke-width="1.33406" stroke-miterlimit="10"/>
<path d="M193.806 348.35C192.657 348.026 192.014 346.782 191.802 345.593C191.589 344.404 191.661 343.184 191.266 342.059C190.871 340.934 189.774 339.888 188.599 340.155C187.74 340.338 187.134 341.177 186.97 342.051C186.805 342.926 186.997 343.813 187.2 344.682C188.545 350.307 190.749 355.75 193.706 360.73C194.315 361.737 195.238 362.875 196.391 362.644C197.545 362.414 197.955 360.904 197.607 359.782C197.258 358.66 196.395 357.798 195.796 356.773C195.112 355.602 194.964 353.795 196.15 353.171C196.919 352.766 197.917 353.1 198.53 353.721C199.144 354.341 199.451 355.198 199.751 356.026C200.756 358.788 201.743 361.54 202.749 364.302C203.203 365.535 203.656 366.814 204.56 367.773C205.465 368.731 206.911 369.299 208.128 368.79C209.897 368.041 210.124 365.627 209.669 363.764C208.149 357.431 202.114 352.565 201.839 346.054C201.678 342.082 203.755 338.189 203.119 334.282C202.892 332.866 202.169 331.382 200.819 330.942C199.607 330.558 198.244 331.152 197.413 332.128C196.583 333.103 196.216 334.37 195.953 335.625C195.367 338.365 195.201 341.179 195.47 343.953C195.571 344.957 195.708 345.982 195.481 346.965C195.253 347.949 194.501 348.873 193.806 348.35Z" fill="#E2C2C6" stroke="#7F2135" stroke-width="1.33406" stroke-miterlimit="10"/>
<path d="M216.756 364.243C215.864 363.558 214.833 362.987 214.249 362.02C213.665 361.052 213.427 359.824 213.838 358.776C214.264 357.616 215.386 356.809 216.582 356.505C217.778 356.202 219.043 356.326 220.25 356.635C222.127 357.088 224.015 357.984 225.147 359.559C226.268 361.152 226.401 363.532 225.066 364.919C224.233 365.772 222.995 366.148 221.805 366.188C219.851 366.248 218.099 365.285 216.756 364.243Z" fill="#E2C2C6" stroke="#7F2135" stroke-width="1.33406" stroke-miterlimit="10"/>
<path d="M219.817 377.503C218.242 377.369 216.65 378.147 215.26 377.441C213.851 376.725 212.867 375.187 212.969 373.622C213.071 372.056 214.391 370.612 215.959 370.548C217.329 370.49 218.532 371.354 219.685 372.092C222.462 373.89 225.685 375.168 228.995 375.116C230.023 375.103 231.088 374.942 232.068 375.266C234.169 375.921 235.097 378.857 233.769 380.612C232.789 381.888 231 382.335 229.402 382.115C227.803 381.895 226.332 381.118 224.915 380.373C223.072 379.357 221.421 377.629 219.817 377.503Z" fill="#E2C2C6" stroke="#7F2135" stroke-width="1.33406" stroke-miterlimit="10"/>
<path d="M244.06 382.359C243.055 384.688 243.398 387.504 244.653 389.708C245.926 391.922 247.994 393.601 250.304 394.692C252.586 395.791 255.391 396.32 257.569 395.031C259.229 394.05 260.208 392.143 260.387 390.233C260.566 388.324 260.012 386.38 259.173 384.635C258.333 382.889 257.095 381.205 255.331 380.429C253.604 379.674 251.613 379.882 249.734 380.107C247.304 380.401 244.67 380.965 244.06 382.359Z" fill="#E2C2C6" stroke="#7F2135" stroke-width="1.33406" stroke-miterlimit="10"/>
</svg>
