<svg width="600" height="600" viewBox="0 0 600 600" fill="none" xmlns="http://www.w3.org/2000/svg">
<path d="M172.309 272.659C171.498 274.461 171.161 276.28 171.232 277.998C171.546 277.334 171.937 276.689 172.242 276.021C172.823 274.743 173.329 273.442 174.077 272.247C175.471 270.021 177.399 267.992 180.303 267.431C181.748 267.152 183.216 267.153 184.696 267.616C186.152 268.071 187.476 268.956 188.354 270.157C188.487 270.339 188.608 270.523 188.72 270.708C189.54 271.638 190.101 272.756 190.422 273.921C190.688 274.886 190.69 275.916 190.593 276.871C190.508 277.705 190.306 278.515 190.08 279.314C189.903 280.199 189.484 281.056 188.658 281.495C188.522 281.734 188.338 281.936 188.114 282.088C187.804 283.118 187.492 284.148 187.185 285.18C188.588 284.074 188.247 287.466 190.564 280.813C192.537 275.15 191.454 269.258 185.859 266.83C180.818 264.578 174.766 267.195 172.309 272.659Z" fill="#945159"/>
<path d="M169.67 278.568C170.442 276.895 171.246 275.125 172.018 273.452C172.278 273.746 172.352 274.14 172.301 274.493C172.25 274.846 172.088 275.166 171.922 275.477C171.334 276.581 170.67 277.646 170.008 278.709C169.891 278.692 169.751 278.692 169.67 278.568Z" fill="#945159"/>
<path d="M189.895 280.452C186.218 291.46 181.97 288.087 177.324 286.011C172.678 283.936 170.774 278.083 173.071 272.937C175.368 267.792 180.996 265.302 185.642 267.378C190.288 269.453 191.736 274.939 189.895 280.452Z" fill="#C8949A"/>
<path d="M188.808 282.691C188.736 283.29 188.354 283.774 187.829 284.057C187.752 285.088 187.511 286.093 187.086 287.032C186 289.43 183.786 291.347 181.024 292.066C179.508 292.462 177.907 292.603 176.306 292.104C175.497 291.852 174.697 291.435 174.036 290.885C173.044 290.387 172.168 289.679 171.431 288.888C170.49 287.88 169.917 286.64 169.655 285.386C169.384 284.088 169.529 282.823 169.885 281.611C169.927 281.465 169.977 281.321 170.03 281.178C170.034 279.928 170.634 278.721 171.519 277.797C171.63 276.873 171.902 275.991 172.317 275.162C172.343 274.995 172.376 274.83 172.418 274.667C171.316 275.699 170.385 276.977 169.717 278.463C167.073 284.341 169.376 290.392 174.501 292.681C179.626 294.971 185.988 292.4 188.279 286.754C190.911 280.266 189.435 283.208 189.414 281.476C189.246 281.896 189.043 282.302 188.808 282.691Z" fill="#945159"/>
<path d="M187.598 286.387C185.007 291.499 179.539 294.151 174.816 292.04C170.092 289.929 168.081 284.148 170.492 278.747C171.147 277.279 171.754 275.74 172.231 274.673C175.495 267.363 179.142 271.248 183.275 273.093C187.998 275.203 192.651 276.419 187.598 286.387Z" fill="#C8949A"/>
<path d="M173.927 284.806C174.068 284.799 174.07 284.795 173.919 284.795C173.74 284.784 173.535 284.794 173.361 284.818C172.847 284.899 172.626 285.325 172.629 285.703C172.63 285.861 172.66 286.021 172.705 286.178C172.682 286.277 172.686 286.39 172.712 286.508C172.809 286.907 173.105 287.312 173.497 287.664C174.065 288.368 175.097 289.056 176.128 289.066C177.995 289.079 177.578 287.584 176.923 286.508C176.529 285.865 175.791 285.303 174.957 284.938C174.649 284.8 174.216 284.774 173.927 284.806Z" fill="#BA7766"/>
<path d="M179.91 288.426C179.877 288.451 179.843 288.472 179.803 288.495C179.368 288.778 179.803 289.555 180.174 289.924C180.224 289.979 180.286 290.034 180.335 290.089C180.648 290.395 181.08 290.757 181.593 290.821C182.231 290.905 182.324 290.4 182.24 290.033C182.097 289.465 180.82 287.835 179.91 288.426Z" fill="#BA7766"/>
<path d="M179.351 271.681C179.253 271.762 179.175 271.854 179.114 271.956C178.381 272.332 179.278 273.668 179.874 274.13C179.881 274.132 179.881 274.132 179.886 274.133C179.951 274.198 180.047 274.282 180.199 274.42C180.537 274.728 180.931 274.931 181.386 275.122C182.933 275.767 182.957 274.289 182.63 273.6C182.335 272.981 181.777 272.321 181.02 271.881C180.503 271.58 179.734 271.35 179.351 271.681Z" fill="#BA7766"/>
<path d="M185.863 275.249C185.842 275.797 186.241 276.391 186.807 276.871C187.285 277.456 188.017 278.087 188.787 277.928C189.775 277.723 189.101 276.347 188.53 275.81C188.099 275.411 187.597 274.962 186.953 274.773C186.285 274.58 185.88 274.774 185.863 275.249Z" fill="#BA7766"/>
<path d="M174.915 280.849C173.96 280.947 175.374 282.861 176.118 282.561C176.318 282.479 176.251 282.455 176.476 282.511C176.882 282.611 176.927 282.2 176.887 282.016C176.788 281.623 176.431 281.21 175.92 280.981C175.544 280.817 175.273 280.815 174.915 280.849Z" fill="#BA7766"/>
<path d="M180.918 277.705C180.891 277.691 180.866 277.691 180.844 277.683C180.785 277.667 180.733 277.656 180.682 277.641C180.612 277.624 180.548 277.61 180.487 277.604C180.463 277.604 180.442 277.608 180.422 277.61C180.353 277.61 180.277 277.608 180.216 277.623C180.209 277.625 180.201 277.63 180.193 277.636C180.012 277.683 179.853 277.775 179.688 277.865C179.196 278.148 179.58 278.978 179.877 279.399C180.151 279.796 180.928 280.62 181.618 280.61C182.078 280.609 182.611 280.654 182.718 280.266C182.877 279.698 182.595 279.062 182.05 278.486C181.79 278.21 181.352 277.881 180.916 277.711C180.916 277.709 180.916 277.709 180.918 277.705Z" fill="#BA7766"/>
<path d="M180.979 283.363C181.139 284.024 181.823 284.949 182.784 285.293L183.008 285.373C183.964 285.716 184.273 285.097 184.133 284.534C183.975 283.868 183.284 282.941 182.329 282.599L182.111 282.521C181.151 282.177 180.841 282.795 180.979 283.363Z" fill="#BA7766"/>
<path d="M174.741 274.994C174.711 274.991 174.685 274.994 174.652 274.995C174.614 274.998 174.572 274.992 174.533 274.998C174.539 275 174.537 275.004 174.541 275.01C174.334 275.043 174.159 275.142 174.064 275.357C173.775 276.007 174.346 277.016 175.11 277.646C175.115 277.651 175.12 277.653 175.128 277.665C175.593 278.163 176.548 278.877 177.343 278.715C178.345 278.505 177.871 277.256 177.423 276.643C176.863 275.881 175.894 274.963 174.741 274.994Z" fill="#BA7766"/>
</svg>
