<svg width="600" height="600" viewBox="0 0 600 600" fill="none" xmlns="http://www.w3.org/2000/svg">
<path d="M263.974 414.258C262.985 412.548 261.705 411.213 260.268 410.267C260.624 410.91 260.919 411.604 261.284 412.241C261.982 413.459 262.743 414.63 263.276 415.935C264.269 418.366 264.791 421.116 263.551 423.801C262.934 425.137 262.076 426.328 260.836 427.26C259.617 428.176 258.124 428.734 256.636 428.746C256.411 428.748 256.192 428.739 255.976 428.721C254.742 428.844 253.507 428.647 252.374 428.227C251.435 427.879 250.598 427.28 249.879 426.644C249.251 426.088 248.712 425.45 248.195 424.8C247.58 424.14 247.129 423.299 247.255 422.372C247.14 422.122 247.084 421.855 247.091 421.584C246.436 420.731 245.782 419.876 245.124 419.025C245.202 420.81 242.647 418.552 246.695 424.318C250.141 429.226 255.557 431.788 260.795 428.663C265.567 425.885 266.975 419.444 263.974 414.258Z" fill="#945159"/>
<path d="M260.717 408.667C261.625 410.271 262.592 411.957 263.499 413.561C263.109 413.6 262.746 413.43 262.489 413.183C262.232 412.935 262.067 412.617 261.911 412.3C261.358 411.178 260.882 410.017 260.405 408.859C260.488 408.774 260.569 408.66 260.717 408.667Z" fill="#945159"/>
<path d="M247.379 423.986C240.589 414.573 245.808 413.094 250.206 410.534C254.604 407.974 260.467 409.846 263.303 414.715C266.14 419.584 264.874 425.607 260.477 428.167C256.079 430.727 250.78 428.699 247.379 423.986Z" fill="#C8949A"/>
<path d="M246.196 421.795C245.752 421.387 245.582 420.795 245.66 420.203C244.867 419.539 244.192 418.756 243.678 417.863C242.365 415.581 242.102 412.664 243.13 410.002C243.694 408.54 244.514 407.158 245.855 406.15C246.532 405.64 247.337 405.234 248.17 405.019C249.153 404.504 250.239 404.207 251.312 404.07C252.68 403.895 254.021 404.153 255.192 404.672C256.404 405.21 257.346 406.067 258.122 407.063C258.216 407.183 258.304 407.307 258.389 407.434C259.402 408.167 260.031 409.358 260.265 410.617C260.949 411.247 261.506 411.983 261.938 412.804C262.058 412.922 262.172 413.045 262.281 413.174C262.086 411.677 261.592 410.175 260.776 408.765C257.548 403.187 251.291 401.523 246.439 404.347C241.588 407.171 239.961 413.837 243.207 418.994C246.937 424.919 245.411 422.003 246.829 422.997C246.586 422.615 246.375 422.213 246.196 421.795Z" fill="#945159"/>
<path d="M243.902 418.655C241.266 413.567 242.305 407.58 246.777 404.978C251.248 402.375 257.116 404.118 260.093 409.229C260.902 410.618 261.797 412.009 262.385 413.019C266.414 419.937 261.131 420.63 257.219 422.907C252.749 425.51 249.044 428.578 243.902 418.655Z" fill="#C8949A"/>
<path d="M253.168 408.481C253.091 408.599 253.093 408.603 253.182 408.481C253.295 408.341 253.407 408.169 253.489 408.014C253.723 407.55 253.506 407.121 253.198 406.903C253.069 406.812 252.921 406.742 252.768 406.687C252.701 406.61 252.607 406.548 252.496 406.501C252.115 406.346 251.613 406.35 251.1 406.463C250.196 406.513 249.034 406.949 248.425 407.78C247.323 409.288 248.781 409.822 250.037 409.919C250.789 409.975 251.677 409.704 252.46 409.24C252.751 409.07 253.025 408.734 253.168 408.481Z" fill="#BA7766"/>
<path d="M246.736 411.224C246.736 411.182 246.738 411.143 246.743 411.097C246.767 410.579 245.883 410.477 245.366 410.564C245.292 410.572 245.211 410.59 245.138 410.598C244.707 410.673 244.161 410.812 243.809 411.191C243.369 411.661 243.725 412.031 244.071 412.176C244.616 412.393 246.684 412.308 246.736 411.224Z" fill="#BA7766"/>
<path d="M260.657 420.548C260.648 420.421 260.619 420.303 260.571 420.194C260.694 419.38 259.086 419.328 258.363 419.543C258.358 419.546 258.358 419.546 258.353 419.55C258.263 419.565 258.139 419.594 257.937 419.637C257.491 419.731 257.096 419.932 256.675 420.19C255.247 421.07 256.434 421.952 257.184 422.089C257.859 422.211 258.721 422.143 259.52 421.785C260.066 421.542 260.701 421.051 260.657 420.548Z" fill="#BA7766"/>
<path d="M253.958 423.75C253.525 423.414 252.81 423.391 252.089 423.57C251.336 423.616 250.396 423.842 250.075 424.56C249.666 425.482 251.176 425.738 251.945 425.588C252.521 425.471 253.178 425.326 253.707 424.913C254.255 424.483 254.333 424.042 253.958 423.75Z" fill="#BA7766"/>
<path d="M255.804 411.593C256.282 410.76 253.903 410.791 253.712 411.57C253.662 411.78 253.72 411.74 253.543 411.89C253.225 412.161 253.532 412.438 253.705 412.513C254.082 412.661 254.625 412.613 255.11 412.331C255.462 412.122 255.622 411.903 255.804 411.593Z" fill="#BA7766"/>
<path d="M254.851 418.302C254.878 418.289 254.893 418.268 254.912 418.255C254.96 418.217 254.998 418.181 255.04 418.148C255.096 418.101 255.144 418.058 255.185 418.011C255.199 417.992 255.207 417.972 255.218 417.955C255.258 417.899 255.304 417.839 255.328 417.78C255.33 417.774 255.33 417.764 255.331 417.754C255.398 417.58 255.416 417.397 255.439 417.211C255.496 416.646 254.599 416.473 254.084 416.468C253.602 416.459 252.478 416.608 252.084 417.174C251.816 417.548 251.468 417.955 251.721 418.268C252.089 418.729 252.771 418.871 253.556 418.765C253.932 418.715 254.455 418.552 254.847 418.297C254.849 418.298 254.849 418.298 254.851 418.302Z" fill="#BA7766"/>
<path d="M250.223 415.048C249.593 414.791 248.442 414.807 247.602 415.386L247.406 415.521C246.57 416.097 246.892 416.709 247.431 416.925C248.064 417.185 249.219 417.165 250.055 416.59L250.246 416.459C251.085 415.88 250.764 415.267 250.223 415.048Z" fill="#BA7766"/>
<path d="M260.659 414.87C260.679 414.847 260.692 414.824 260.71 414.797C260.73 414.764 260.76 414.734 260.778 414.698C260.772 414.702 260.77 414.698 260.764 414.698C260.857 414.511 260.879 414.311 260.76 414.108C260.401 413.494 259.248 413.368 258.291 413.621C258.284 413.622 258.279 413.625 258.265 413.624C257.589 413.711 256.452 414.069 256.119 414.81C255.704 415.745 256.995 416.091 257.754 416.084C258.7 416.075 260.012 415.824 260.659 414.87Z" fill="#BA7766"/>
</svg>
