<svg width="600" height="600" viewBox="0 0 600 600" fill="none" xmlns="http://www.w3.org/2000/svg">
<path d="M270.961 198.089C272.937 198.07 274.73 197.614 276.26 196.83C275.526 196.823 274.776 196.738 274.042 196.742C272.638 196.749 271.245 196.834 269.846 196.656C267.241 196.322 264.591 195.421 262.866 193.019C262.007 191.823 261.393 190.49 261.193 188.952C260.997 187.44 261.247 185.866 261.969 184.566C262.079 184.369 262.195 184.182 262.317 184.003C262.818 182.869 263.597 181.891 264.521 181.112C265.286 180.466 266.22 180.033 267.128 179.721C267.921 179.449 268.742 179.293 269.562 179.164C270.44 178.954 271.393 178.976 272.138 179.542C272.412 179.565 272.672 179.648 272.904 179.788C273.97 179.638 275.035 179.49 276.101 179.336C274.509 178.525 277.732 177.414 270.72 178.096C264.751 178.677 259.854 182.127 259.993 188.225C260.059 193.746 264.97 198.145 270.961 198.089Z" fill="#945159"/>
<path d="M277.431 198.01C275.589 198.009 273.645 198.02 271.802 198.019C271.96 197.661 272.287 197.428 272.628 197.327C272.97 197.225 273.329 197.238 273.681 197.259C274.93 197.33 276.175 197.487 277.418 197.643C277.451 197.757 277.51 197.883 277.431 198.01Z" fill="#945159"/>
<path d="M270.673 178.855C282.209 177.584 280.925 182.854 280.986 187.943C281.047 193.031 276.529 197.211 270.894 197.28C265.26 197.349 260.642 193.281 260.581 188.192C260.52 183.104 264.895 179.492 270.673 178.855Z" fill="#C8949A"/>
<path d="M273.162 178.905C273.736 178.719 274.335 178.864 274.812 179.222C275.781 178.86 276.795 178.658 277.825 178.651C280.458 178.632 283.125 179.841 284.935 182.047C285.93 183.258 286.728 184.653 286.945 186.316C287.055 187.156 287.012 188.057 286.789 188.888C286.753 189.997 286.476 191.089 286.067 192.09C285.545 193.366 284.659 194.406 283.631 195.169C282.565 195.959 281.356 196.357 280.106 196.541C279.956 196.564 279.805 196.579 279.652 196.59C278.515 197.111 277.169 197.072 275.958 196.655C275.073 196.94 274.158 197.063 273.231 197.033C273.069 197.08 272.905 197.118 272.74 197.149C274.139 197.718 275.689 198.028 277.318 198.012C283.762 197.951 288.293 193.326 288.226 187.713C288.159 182.1 283.159 177.4 277.073 177.684C270.079 178.011 273.368 178.119 271.805 178.864C272.257 178.841 272.71 178.855 273.162 178.905Z" fill="#945159"/>
<path d="M277.025 178.456C282.751 178.668 287.449 182.522 287.511 187.696C287.572 192.869 283.165 197.117 277.25 197.189C275.643 197.209 273.992 197.302 272.823 197.316C264.818 197.414 266.818 192.475 266.763 187.949C266.701 182.777 265.857 178.042 277.025 178.456Z" fill="#C8949A"/>
<path d="M281.314 191.531C281.248 191.406 281.244 191.406 281.307 191.544C281.372 191.711 281.467 191.893 281.562 192.04C281.85 192.473 282.33 192.496 282.672 192.334C282.815 192.268 282.948 192.173 283.071 192.067C283.171 192.046 283.272 191.995 283.368 191.922C283.69 191.667 283.934 191.228 284.089 190.726C284.491 189.915 284.683 188.689 284.26 187.749C283.491 186.048 282.307 187.053 281.604 188.098C281.186 188.725 280.984 189.631 281.002 190.541C281.006 190.878 281.163 191.282 281.314 191.531Z" fill="#BA7766"/>
<path d="M282.095 184.583C282.131 184.603 282.165 184.624 282.202 184.651C282.641 184.928 283.165 184.207 283.345 183.716C283.374 183.647 283.398 183.568 283.427 183.5C283.574 183.088 283.722 182.544 283.565 182.052C283.374 181.437 282.876 181.564 282.579 181.794C282.123 182.161 281.177 184.003 282.095 184.583Z" fill="#BA7766"/>
<path d="M267.123 192.103C267.237 192.158 267.354 192.19 267.472 192.203C268.12 192.711 268.957 191.337 269.127 190.602C269.127 190.595 269.127 190.595 269.126 190.59C269.157 190.504 269.193 190.381 269.255 190.185C269.393 189.75 269.412 189.307 269.396 188.814C269.333 187.139 267.981 187.737 267.492 188.321C267.053 188.849 266.688 189.632 266.605 190.504C266.549 191.099 266.662 191.894 267.123 192.103Z" fill="#BA7766"/>
<path d="M267.636 184.696C268.142 184.485 268.515 183.874 268.714 183.159C269.045 182.48 269.311 181.551 268.845 180.918C268.244 180.107 267.277 181.295 267.029 182.039C266.847 182.597 266.65 183.241 266.748 183.905C266.852 184.593 267.198 184.878 267.636 184.696Z" fill="#BA7766"/>
<path d="M277.307 192.292C277.795 193.118 278.941 191.033 278.357 190.482C278.199 190.335 278.205 190.406 278.162 190.178C278.083 189.768 277.69 189.898 277.54 190.012C277.225 190.267 276.999 190.764 277.006 191.324C277.014 191.733 277.126 191.98 277.307 192.292Z" fill="#BA7766"/>
<path d="M271.938 188.157C271.936 188.188 271.947 188.21 271.949 188.234C271.958 188.294 271.971 188.345 271.979 188.398C271.992 188.469 272.006 188.533 272.027 188.591C272.036 188.613 272.05 188.63 272.059 188.647C272.088 188.71 272.118 188.78 272.157 188.829C272.162 188.834 272.17 188.839 272.178 188.845C272.297 188.989 272.448 189.095 272.598 189.207C273.061 189.535 273.654 188.839 273.912 188.393C274.157 187.978 274.581 186.927 274.283 186.305C274.089 185.887 273.907 185.384 273.51 185.45C272.927 185.544 272.467 186.066 272.173 186.802C272.031 187.154 271.915 187.689 271.944 188.156C271.942 188.157 271.942 188.157 271.938 188.157Z" fill="#BA7766"/>
<path d="M277.049 185.733C277.583 185.31 278.136 184.302 278.046 183.285L278.026 183.049C277.936 182.037 277.245 182.016 276.792 182.378C276.254 182.801 275.701 183.816 275.79 184.826L275.81 185.057C275.901 186.073 276.592 186.096 277.049 185.733Z" fill="#BA7766"/>
<path d="M272.062 194.902C272.073 194.931 272.087 194.953 272.101 194.982C272.12 195.016 272.132 195.057 272.154 195.09C272.153 195.083 272.157 195.083 272.161 195.078C272.278 195.251 272.441 195.368 272.676 195.365C273.387 195.356 274.064 194.414 274.316 193.457C274.319 193.45 274.319 193.444 274.326 193.432C274.583 192.801 274.832 191.635 274.352 190.981C273.742 190.159 272.806 191.112 272.437 191.776C271.979 192.604 271.551 193.869 272.062 194.902Z" fill="#BA7766"/>
</svg>
