<svg width="600" height="600" viewBox="0 0 600 600" fill="none" xmlns="http://www.w3.org/2000/svg">
<path d="M376.774 363.331C374.854 363.794 373.209 364.641 371.895 365.749C372.611 365.591 373.361 365.505 374.076 365.337C375.442 365.014 376.781 364.617 378.183 364.477C380.797 364.216 383.581 364.497 385.803 366.45C386.908 367.422 387.806 368.583 388.347 370.037C388.879 371.466 388.99 373.055 388.578 374.485C388.516 374.701 388.444 374.909 388.366 375.111C388.133 376.329 387.593 377.457 386.868 378.424C386.268 379.225 385.455 379.858 384.641 380.366C383.93 380.809 383.165 381.146 382.395 381.456C381.587 381.858 380.653 382.051 379.8 381.667C379.528 381.707 379.256 381.684 378.998 381.6C377.994 381.986 376.988 382.37 375.985 382.759C377.719 383.192 374.828 384.999 381.506 382.757C387.192 380.849 391.187 376.385 389.68 370.474C388.374 365.11 382.6 361.928 376.774 363.331Z" fill="#945159"/>
<path d="M370.488 364.864C372.284 364.45 374.175 364.002 375.971 363.588C375.897 363.973 375.632 364.273 375.321 364.449C375.011 364.625 374.658 364.693 374.311 364.752C373.078 364.963 371.829 365.09 370.583 365.218C370.525 365.114 370.439 365.004 370.488 364.864Z" fill="#945159"/>
<path d="M381.382 382.007C370.428 385.841 370.493 380.416 369.289 375.472C368.085 370.528 371.547 365.439 377.021 364.104C382.496 362.769 387.91 365.695 389.114 370.639C390.318 375.583 386.868 380.086 381.382 382.007Z" fill="#C8949A"/>
<path d="M378.945 382.518C378.428 382.828 377.812 382.822 377.266 382.58C376.404 383.151 375.462 383.575 374.459 383.814C371.898 384.425 369.027 383.848 366.767 382.105C365.526 381.149 364.434 379.969 363.848 378.397C363.553 377.604 363.392 376.716 363.422 375.856C363.208 374.767 363.232 373.642 363.406 372.574C363.627 371.213 364.256 370 365.087 369.026C365.947 368.017 367.036 367.356 368.212 366.896C368.354 366.84 368.498 366.791 368.643 366.746C369.634 365.983 370.955 365.718 372.228 365.852C373.027 365.375 373.891 365.05 374.801 364.87C374.948 364.788 375.099 364.714 375.253 364.646C373.762 364.407 372.182 364.454 370.598 364.836C364.332 366.344 360.959 371.87 362.287 377.324C363.615 382.779 369.543 386.234 375.41 384.587C382.15 382.696 378.921 383.33 380.277 382.253C379.842 382.377 379.397 382.465 378.945 382.518Z" fill="#945159"/>
<path d="M375.283 383.825C369.655 384.906 364.211 382.208 362.987 377.181C361.763 372.154 365.102 367.023 370.849 365.622C372.41 365.241 373.998 364.779 375.134 364.503C382.912 362.607 382.074 367.869 383.146 372.266C384.37 377.292 386.258 381.716 375.283 383.825Z" fill="#C8949A"/>
<path d="M368.162 372.049C368.254 372.157 368.259 372.156 368.166 372.036C368.065 371.888 367.932 371.732 367.807 371.609C367.428 371.252 366.955 371.338 366.658 371.572C366.534 371.669 366.426 371.792 366.33 371.923C366.236 371.965 366.15 372.038 366.073 372.131C365.817 372.452 365.678 372.934 365.64 373.459C365.431 374.339 365.519 375.577 366.142 376.397C367.275 377.882 368.202 376.636 368.652 375.46C368.918 374.755 368.911 373.827 368.689 372.944C368.609 372.616 368.365 372.258 368.162 372.049Z" fill="#BA7766"/>
<path d="M368.965 378.996C368.924 378.984 368.887 378.971 368.845 378.953C368.354 378.782 368.006 379.602 367.942 380.121C367.928 380.195 367.923 380.278 367.91 380.35C367.859 380.785 367.837 381.348 368.101 381.793C368.426 382.348 368.882 382.112 369.12 381.822C369.482 381.361 369.988 379.354 368.965 378.996Z" fill="#BA7766"/>
<path d="M381.86 368.3C381.736 368.272 381.615 368.267 381.497 368.282C380.752 367.932 380.245 369.459 380.245 370.214C380.247 370.22 380.247 370.22 380.249 370.225C380.238 370.316 380.23 370.443 380.214 370.648C380.178 371.103 380.258 371.539 380.385 372.016C380.823 373.634 382.006 372.748 382.351 372.068C382.66 371.455 382.84 370.61 382.724 369.742C382.645 369.149 382.356 368.401 381.86 368.3Z" fill="#BA7766"/>
<path d="M383.027 375.633C382.581 375.952 382.356 376.631 382.323 377.373C382.153 378.109 382.103 379.074 382.699 379.585C383.467 380.24 384.142 378.865 384.217 378.085C384.268 377.5 384.316 376.829 384.071 376.204C383.814 375.557 383.413 375.356 383.027 375.633Z" fill="#BA7766"/>
<path d="M371.896 370.407C371.234 369.712 370.586 372.002 371.279 372.406C371.466 372.514 371.445 372.447 371.538 372.659C371.707 373.041 372.06 372.825 372.181 372.68C372.43 372.362 372.539 371.827 372.406 371.282C372.306 370.885 372.142 370.67 371.896 370.407Z" fill="#BA7766"/>
<path d="M378.057 373.228C378.052 373.198 378.036 373.178 378.029 373.155C378.006 373.1 377.983 373.052 377.963 373.002C377.934 372.936 377.906 372.877 377.873 372.825C377.858 372.806 377.842 372.792 377.828 372.778C377.786 372.723 377.742 372.662 377.692 372.622C377.687 372.618 377.677 372.615 377.668 372.612C377.52 372.498 377.35 372.429 377.178 372.353C376.652 372.138 376.231 372.949 376.08 373.442C375.935 373.901 375.759 375.021 376.189 375.56C376.471 375.923 376.762 376.372 377.134 376.219C377.682 375.997 378.011 375.384 378.132 374.601C378.191 374.226 378.184 373.679 378.051 373.23C378.053 373.229 378.053 373.229 378.057 373.228Z" fill="#BA7766"/>
<path d="M373.622 376.74C373.196 377.272 372.884 378.379 373.201 379.35L373.274 379.575C373.588 380.541 374.267 380.406 374.627 379.951C375.056 379.418 375.366 378.304 375.052 377.34L374.981 377.12C374.664 376.15 373.986 376.283 373.622 376.74Z" fill="#BA7766"/>
<path d="M376.418 366.684C376.402 366.658 376.383 366.639 376.362 366.615C376.336 366.586 376.316 366.548 376.287 366.521C376.289 366.528 376.285 366.529 376.283 366.535C376.13 366.392 375.944 366.315 375.716 366.37C375.025 366.54 374.577 367.61 374.547 368.599C374.546 368.607 374.547 368.612 374.543 368.625C374.434 369.298 374.454 370.49 375.069 371.02C375.848 371.683 376.546 370.544 376.756 369.814C377.016 368.905 377.148 367.576 376.418 366.684Z" fill="#BA7766"/>
</svg>
