<svg width="600" height="600" viewBox="0 0 600 600" fill="none" xmlns="http://www.w3.org/2000/svg">
<path d="M352.833 395.717C352.754 393.742 352.243 391.964 351.413 390.459C351.428 391.193 351.366 391.945 351.392 392.679C351.442 394.082 351.57 395.472 351.434 396.875C351.18 399.489 350.361 402.165 348.013 403.963C346.844 404.858 345.53 405.512 343.999 405.759C342.494 406.002 340.913 405.8 339.591 405.118C339.391 405.015 339.201 404.904 339.018 404.788C337.869 404.322 336.868 403.572 336.061 402.673C335.392 401.928 334.931 401.007 334.591 400.11C334.295 399.325 334.114 398.51 333.96 397.694C333.723 396.823 333.716 395.869 334.259 395.107C334.273 394.833 334.349 394.571 334.481 394.334C334.298 393.274 334.118 392.213 333.932 391.153C333.17 392.769 331.961 389.581 332.857 396.569C333.62 402.517 337.219 407.307 343.31 406.981C348.826 406.747 353.073 401.704 352.833 395.717Z" fill="#945159"/>
<path d="M352.555 389.252C352.611 391.094 352.682 393.036 352.737 394.878C352.374 394.731 352.132 394.412 352.02 394.073C351.908 393.735 351.909 393.375 351.919 393.023C351.953 391.773 352.071 390.523 352.19 389.276C352.303 389.239 352.427 389.177 352.555 389.252Z" fill="#945159"/>
<path d="M333.617 396.593C331.993 385.102 337.301 386.223 342.385 386.007C347.469 385.79 351.785 390.178 352.026 395.808C352.267 401.438 348.342 406.178 343.258 406.394C338.174 406.611 334.43 402.348 333.617 396.593Z" fill="#C8949A"/>
<path d="M333.59 394.104C333.387 393.536 333.513 392.933 333.857 392.445C333.465 391.488 333.233 390.481 333.194 389.451C333.094 386.82 334.221 384.117 336.37 382.24C337.55 381.209 338.92 380.368 340.576 380.101C341.412 379.965 342.314 379.981 343.152 380.178C344.261 380.181 345.361 380.424 346.374 380.802C347.666 381.285 348.733 382.138 349.527 383.143C350.348 384.184 350.783 385.381 351.006 386.624C351.033 386.774 351.052 386.924 351.069 387.076C351.623 388.197 351.626 389.544 351.246 390.767C351.558 391.643 351.709 392.553 351.708 393.481C351.759 393.641 351.803 393.804 351.839 393.968C352.364 392.553 352.626 390.994 352.561 389.366C352.303 382.926 347.542 378.54 341.933 378.778C336.325 379.017 331.78 384.158 332.25 390.233C332.791 397.213 332.798 393.922 333.59 395.462C333.553 395.011 333.554 394.557 333.59 394.104Z" fill="#945159"/>
<path d="M333.023 390.257C333.06 384.526 336.769 379.713 341.938 379.493C347.107 379.273 351.488 383.549 351.741 389.458C351.81 391.064 351.954 392.712 352.003 393.879C352.345 401.878 347.348 400.03 342.826 400.223C337.658 400.444 332.951 401.432 333.023 390.257Z" fill="#C8949A"/>
<path d="M345.962 385.57C345.839 385.639 345.839 385.643 345.975 385.576C346.14 385.506 346.319 385.406 346.463 385.307C346.887 385.005 346.895 384.525 346.724 384.188C346.652 384.047 346.554 383.917 346.444 383.797C346.42 383.697 346.366 383.598 346.29 383.505C346.025 383.191 345.579 382.961 345.072 382.821C344.249 382.444 343.018 382.289 342.092 382.74C340.415 383.562 341.456 384.714 342.522 385.384C343.161 385.784 344.073 385.957 344.982 385.912C345.319 385.897 345.718 385.728 345.962 385.57Z" fill="#BA7766"/>
<path d="M338.992 385.001C339.011 384.964 339.032 384.93 339.057 384.892C339.321 384.444 338.585 383.943 338.088 383.779C338.018 383.751 337.938 383.73 337.87 383.702C337.453 383.568 336.906 383.437 336.418 383.609C335.809 383.819 335.952 384.312 336.191 384.602C336.572 385.047 338.442 385.936 338.992 385.001Z" fill="#BA7766"/>
<path d="M346.967 399.736C347.019 399.62 347.047 399.502 347.056 399.384C347.545 398.721 346.145 397.926 345.406 397.778C345.399 397.779 345.399 397.779 345.394 397.78C345.307 397.751 345.183 397.719 344.985 397.663C344.546 397.539 344.103 397.533 343.61 397.565C341.938 397.678 342.577 399.012 343.176 399.482C343.717 399.905 344.511 400.246 345.385 400.302C345.982 400.341 346.772 400.202 346.967 399.736Z" fill="#BA7766"/>
<path d="M339.548 399.45C339.322 398.95 338.7 398.597 337.979 398.419C337.29 398.11 336.353 397.872 335.735 398.357C334.943 398.982 336.16 399.913 336.911 400.138C337.474 400.303 338.124 400.48 338.785 400.362C339.469 400.236 339.744 399.882 339.548 399.45Z" fill="#BA7766"/>
<path d="M346.845 389.551C347.656 389.038 345.536 387.956 345.005 388.557C344.862 388.72 344.933 388.711 344.706 388.761C344.299 388.853 344.441 389.241 344.56 389.388C344.824 389.695 345.327 389.906 345.887 389.882C346.296 389.861 346.539 389.742 346.845 389.551Z" fill="#BA7766"/>
<path d="M342.876 395.045C342.906 395.045 342.929 395.034 342.952 395.031C343.012 395.02 343.063 395.006 343.115 394.996C343.186 394.981 343.249 394.965 343.307 394.942C343.329 394.932 343.345 394.918 343.362 394.908C343.424 394.877 343.493 394.846 343.541 394.805C343.546 394.8 343.551 394.792 343.556 394.783C343.696 394.66 343.797 394.506 343.905 394.353C344.218 393.879 343.505 393.308 343.051 393.064C342.629 392.832 341.565 392.441 340.953 392.758C340.541 392.964 340.044 393.161 340.122 393.556C340.233 394.136 340.77 394.579 341.514 394.851C341.87 394.982 342.409 395.081 342.875 395.038C342.876 395.04 342.876 395.04 342.876 395.045Z" fill="#BA7766"/>
<path d="M340.297 390.009C339.858 389.488 338.833 388.966 337.819 389.087L337.584 389.115C336.575 389.235 336.575 389.927 336.951 390.369C337.39 390.894 338.422 391.415 339.429 391.295L339.659 391.268C340.672 391.147 340.673 390.455 340.297 390.009Z" fill="#BA7766"/>
<path d="M349.614 394.713C349.643 394.702 349.665 394.688 349.693 394.672C349.727 394.652 349.767 394.639 349.799 394.616C349.793 394.617 349.793 394.613 349.787 394.61C349.957 394.487 350.069 394.321 350.059 394.086C350.027 393.375 349.065 392.727 348.101 392.505C348.094 392.502 348.089 392.502 348.076 392.496C347.438 392.258 346.265 392.045 345.625 392.545C344.823 393.179 345.804 394.086 346.478 394.435C347.32 394.867 348.597 395.256 349.614 394.713Z" fill="#BA7766"/>
</svg>
