<svg width="600" height="600" viewBox="0 0 600 600" fill="none" xmlns="http://www.w3.org/2000/svg">
<path d="M295.5 434.5C302.41 434.5 308.525 432.833 313.248 429.159C317.983 425.474 321.21 419.855 322.487 412.164C323.769 404.434 322.065 396.466 317.95 390.571C313.817 384.649 307.243 380.821 298.918 381.503C290.87 382.163 284.74 384.328 280.618 388.192C276.471 392.079 274.5 397.55 274.5 404.5C274.5 411.393 276.152 418.83 279.574 424.578C283.009 430.346 288.294 434.5 295.5 434.5Z" fill="#99D3FF" stroke="#297CD6" stroke-width="2"/>
<path d="M320.513 411.836C319.303 419.13 316.286 424.26 312.02 427.58C307.742 430.909 302.1 432.5 295.5 432.5C289.196 432.5 284.481 428.909 281.293 423.555C278.093 418.181 276.5 411.117 276.5 404.5C276.5 397.939 278.348 393.061 281.986 389.651C285.649 386.217 291.268 384.137 299.082 383.497C306.618 382.879 312.537 386.309 316.31 391.715C320.102 397.149 321.717 404.581 320.513 411.836Z" stroke="#8DCEFF" stroke-width="2"/>
</svg>
