<svg width="600" height="600" viewBox="0 0 600 600" fill="none" xmlns="http://www.w3.org/2000/svg">
<path d="M283.233 331.502C297.512 339.575 334.111 343.818 364.086 314.28C375.71 302.829 382.533 276.557 360.857 253.045C347.268 238.295 316.62 220.135 289.957 232.191C279.687 236.839 254.787 247.543 254.949 283.168C255.037 300.988 267.373 322.542 283.233 331.502Z" fill="#C58BD2" fill-opacity="0.4"/>
<path d="M284.996 327.572C298.26 335.025 332.22 338.93 360.037 311.688C370.828 301.124 377.158 276.895 357.049 255.2C344.433 241.605 315.987 224.853 291.228 235.966C281.691 240.248 258.583 250.135 258.731 282.985C258.819 299.41 270.265 319.302 284.996 327.572Z" fill="#905999"/>
<path d="M285.814 326.304C298.697 333.546 331.712 337.338 358.754 310.871C369.234 300.602 375.395 277.064 355.85 255.974C343.601 242.76 315.945 226.473 291.892 237.29C282.623 241.459 260.164 251.051 260.311 282.985C260.385 298.946 271.507 318.26 285.814 326.304Z" fill="#CC94D9" stroke="#925C9B" stroke-width="1.15164" stroke-miterlimit="10" stroke-linecap="round" stroke-linejoin="round"/>
<path opacity="0.5" d="M291.892 237.29C282.623 241.459 260.164 251.051 260.311 282.985C260.385 298.946 271.507 318.274 285.829 326.304C298.711 333.546 331.726 337.338 358.768 310.871C369.248 300.602 375.409 277.064 355.864 255.974C343.587 242.76 315.945 226.473 291.892 237.29ZM345.65 259.763C361.54 277.852 356.536 298.066 348.016 306.883C326.039 329.604 299.19 326.348 288.72 320.134C277.079 313.231 268.032 296.65 267.972 282.944C267.854 255.531 286.109 247.291 293.642 243.728C313.209 234.432 335.687 248.408 345.65 259.763Z" fill="#BE83CB"/>
<path opacity="0.5" d="M305.447 303.655C328.981 304.515 340.463 287.105 333.011 269.877C325.572 252.636 314.142 244.31 293.954 255.86C273.766 267.41 283.493 302.851 305.447 303.655Z" fill="#BE83CB"/>
<path d="M303.146 300.33C323.985 301.077 334.156 286.076 327.564 271.229C320.973 256.382 310.855 249.211 292.98 259.155C275.092 269.099 283.703 299.638 303.146 300.33Z" fill="#6C4096" stroke="#5E2D68" stroke-width="1.15164" stroke-miterlimit="10" stroke-linecap="round" stroke-linejoin="round"/>
<path opacity="0.5" d="M300.662 297.85C316.267 298.415 323.884 287.174 318.944 276.046C314.004 264.932 306.44 259.551 293.038 267.002C279.649 274.467 286.087 297.329 300.662 297.85Z" fill="#9862C2"/>
</svg>
