<svg width="734" height="274" viewBox="0 0 734 274" fill="none" xmlns="http://www.w3.org/2000/svg">
<path fill-rule="evenodd" clip-rule="evenodd" d="M301.514 189.953C304.075 184.137 299.674 176.578 291.684 173.071C283.694 169.563 275.141 171.434 272.579 177.251C270.018 183.067 274.419 190.626 282.409 194.133C290.399 197.641 298.952 195.77 301.514 189.953ZM353.464 215.936C358.725 209.896 357.074 199.865 349.778 193.53C342.482 187.195 332.303 186.956 327.043 192.996C321.783 199.035 323.433 209.067 330.729 215.402C338.025 221.737 348.204 221.976 353.464 215.936ZM315.181 220.553C322.482 221.894 327.742 226.55 326.931 230.952C326.119 235.354 319.543 237.836 312.243 236.494C304.943 235.153 299.682 230.497 300.494 226.095C301.305 221.692 307.881 219.211 315.181 220.553ZM288.648 239.552C289.771 236.207 286.33 232.039 280.963 230.243C275.595 228.447 270.334 229.702 269.211 233.047C268.088 236.393 271.529 240.56 276.897 242.357C282.264 244.153 287.525 242.897 288.648 239.552ZM256.718 200.515C256.718 208.282 251.175 214.578 244.336 214.578C237.498 214.578 231.954 208.282 231.954 200.515C231.954 192.748 237.498 186.452 244.336 186.452C251.175 186.452 256.718 192.748 256.718 200.515Z" fill="#0039EE"/>
</svg>
