<svg width="734" height="274" viewBox="0 0 734 274" fill="none" xmlns="http://www.w3.org/2000/svg">
<path fill-rule="evenodd" clip-rule="evenodd" d="M415.092 34.1175C415.647 31.105 413.091 28.1105 409.382 27.4291C405.674 26.7476 402.217 28.6373 401.662 31.6497C401.107 34.6622 403.663 37.6567 407.372 38.3381C411.08 39.0196 414.537 37.1299 415.092 34.1175ZM447.692 41.3744C449.115 38.6609 447.049 34.7779 443.078 32.7015C439.106 30.6251 434.733 31.1415 433.31 33.855C431.887 36.5685 433.953 40.4515 437.924 42.5279C441.896 44.6043 446.269 44.0879 447.692 41.3744ZM430.051 49.3693C430.051 54.5472 425.847 58.7447 420.661 58.7447C415.476 58.7447 411.272 54.5472 411.272 49.3693C411.272 44.1914 415.476 39.9939 420.661 39.9939C425.847 39.9939 430.051 44.1914 430.051 49.3693Z" fill="#0039EE"/>
</svg>
