<svg width="734" height="274" viewBox="0 0 734 274" fill="none" xmlns="http://www.w3.org/2000/svg">
<path fill-rule="evenodd" clip-rule="evenodd" d="M637.572 185.791C637.572 190.969 633.368 195.167 628.182 195.167C622.996 195.167 618.792 190.969 618.792 185.791C618.792 180.614 622.996 176.416 628.182 176.416C633.368 176.416 637.572 180.614 637.572 185.791ZM677.545 195.63C683.114 195.63 687.629 191.809 687.629 187.096C687.629 182.383 683.114 178.562 677.545 178.562C671.976 178.562 667.461 182.383 667.461 187.096C667.461 191.809 671.976 195.63 677.545 195.63ZM649.05 226.488C652.453 222.581 652.47 217.033 649.087 214.096C645.704 211.158 640.203 211.945 636.8 215.852C633.397 219.759 633.381 225.308 636.764 228.245C640.147 231.182 645.647 230.396 649.05 226.488Z" fill="#0039EE"/>
</svg>
