<svg width="973" height="508" viewBox="0 0 973 508" fill="none" xmlns="http://www.w3.org/2000/svg">
<path d="M216.57 126.51C209.68 130.05 205.221 138.35 209.351 146.16C215.071 157 231.01 152.95 236.81 144.96C243.881 135.21 235.37 125.71 224.9 124.79C222 124.54 219.12 125.2 216.57 126.51Z" fill="#62CBE3"/>
<path d="M258.55 84.28C250.74 86.54 244.11 92.37 238.35 97.9C234.03 102.04 229.84 106.8 227.38 112.31C226.07 115.24 223.53 127.6 231.02 124.95C236.42 123.05 239.69 118.11 242.62 113.48C248.55 104.12 252.31 93.85 259.21 85.04C259.67 84.45 259.17 84.1 258.55 84.28Z" fill="#62CBE3"/>
<path d="M283.96 116.87C276.94 114.32 268.96 115.06 261.77 116.04C256.38 116.78 250.76 118.03 246.05 120.79C243.55 122.26 235.2 130.07 242.18 132.18C247.2 133.7 252.22 131.79 256.83 129.94C266.14 126.2 274.3 120.61 284.06 117.81C284.71 117.62 284.51 117.08 283.96 116.87Z" fill="#62CBE3"/>
<path d="M196.36 200.33C203.46 196.36 208.6 189.18 212.96 182.5C215.38 178.79 217.19 174.68 218.15 170.42C219.55 167.2 220.52 163.85 220.68 160.32C220.83 156.87 217.83 152.05 214 154.48C209.17 157.55 207.11 163.09 205.29 168.28C201.63 178.73 200.28 189.58 195.54 199.72C195.23 200.41 195.81 200.64 196.36 200.33Z" fill="#62CBE3"/>
<path d="M287.77 155.59C283.2 148.87 275.6 144.38 268.56 140.61C264.65 138.52 260.4 137.08 256.07 136.5C252.75 135.39 249.31 134.71 245.79 134.86C242.35 135.01 237.81 138.42 240.56 142.02C244.04 146.56 249.75 148.14 255.07 149.49C265.8 152.23 276.73 152.62 287.24 156.46C287.95 156.72 288.13 156.12 287.77 155.59Z" fill="#62CBE3"/>
<path d="M167.14 101.27C169.93 108.9 176.2 115.11 182.11 120.48C185.39 123.46 189.161 125.89 193.211 127.51C196.171 129.4 199.33 130.89 202.79 131.61C206.16 132.3 211.4 130.1 209.61 125.94C207.34 120.68 202.19 117.76 197.37 115.15C187.64 109.88 177.141 106.83 167.881 100.55C167.241 100.12 166.92 100.66 167.14 101.27Z" fill="#62CBE3"/>
<path d="M207.28 79.84C205.69 76.77 203.94 73.82 201.89 71.05C204.13 83.45 201.78 96.2 204.29 108.48C205.12 112.54 209.57 123.91 215.47 122.99C216.2 122.88 216.79 122.63 217.3 122.28C221.81 121.86 221.55 113.53 220.32 110.22C216.54 99.9 211.75 89.94 207.28 79.84Z" fill="#62CBE3"/>
<path d="M238.59 192C238.56 195.15 238.36 198.29 237.83 201.39C234.54 190.35 227.35 180.94 224.32 169.89C223.32 166.25 222.25 155.14 227.44 153.45C228.08 153.24 228.66 153.2 229.22 153.27C233.07 151.75 236.29 158.64 236.67 161.85C237.85 171.83 238.05 181.93 238.59 192Z" fill="#62CBE3"/>
<path d="M263.22 175.3C264.56 177.73 265.75 180.23 266.68 182.83C259.41 175.78 249.85 171.64 242.76 164.46C240.43 162.09 234.82 154.03 238.08 150.5C238.47 150.07 238.9 149.78 239.37 149.6C241.67 146.78 247.11 150.68 248.77 152.99C253.98 160.13 258.48 167.8 263.22 175.3Z" fill="#62CBE3"/>
<path d="M169.89 138.82C167.23 139.59 164.61 140.5 162.12 141.68C172.24 141.86 181.93 145.72 192.01 145.68C195.34 145.66 205.01 143.94 205.21 139.15C205.23 138.57 205.14 138.05 204.94 137.6C205.32 133.98 198.71 132.88 195.9 133.32C187.16 134.68 178.55 136.89 169.89 138.82Z" fill="#62CBE3"/>
<path d="M162.58 165.77C159.33 167.79 156.2 169.97 153.3 172.44C166.6 168.69 180.47 169.78 193.65 165.77C198 164.45 210.11 158.47 208.88 152.32C208.73 151.58 208.44 150.97 208.04 150.47C207.41 145.74 198.43 146.94 194.89 148.6C183.89 153.74 173.31 159.92 162.58 165.77Z" fill="#62CBE3"/>
</svg>
