<svg width="973" height="508" viewBox="0 0 973 508" fill="none" xmlns="http://www.w3.org/2000/svg">
<path d="M216.92 99.0101C204.13 100.66 192.93 110.59 189.26 122.95C185.59 135.31 189.36 149.46 198.31 158.74C207.26 168.02 220.96 172.29 233.7 170.29C242.18 168.96 250.3 164.93 256.05 158.55C261.8 152.17 264.99 143.43 264.13 134.9C262.84 122.19 253.21 111.9 242.81 104.48C235.38 99.1701 226.12 97.8201 216.92 99.0101Z" fill="#62CBE3"/>
<path d="M244.29 101.87C243.49 100.14 244.48 98.0001 246.03 96.8901C247.58 95.7701 249.53 95.4201 251.41 95.1001C250.5 95.8301 249.97 96.9301 249.51 98.0001C249.04 99.0701 248.59 100.18 247.77 101.01C246.94 101.84 245.64 102.32 244.29 101.87Z" fill="#62CBE3"/>
<path d="M264.43 120C264.32 118.76 265.51 117.72 266.74 117.54C267.97 117.36 269.19 117.8 270.35 118.25C271.51 118.7 272.71 119.18 273.94 119.07C272.76 119.43 271.74 120.17 270.69 120.81C269.64 121.45 268.46 122.02 267.23 121.95C266 121.88 264.52 121.01 264.43 120Z" fill="#62CBE3"/>
<path d="M267.54 145.44C267.4 144.88 267.26 144.31 267.32 143.74C267.38 143.17 267.69 142.59 268.22 142.37C268.8 142.13 269.46 142.36 270.03 142.62C272.67 143.83 275.02 145.64 276.87 147.87C275.71 146.96 274.13 146.61 272.7 146.94C271.96 147.11 271.27 147.45 270.51 147.52C269.06 147.64 267.82 146.56 267.54 145.44Z" fill="#62CBE3"/>
<path d="M256.29 167.99C255.88 167.22 255.47 166.43 255.37 165.57C255.28 164.71 255.58 163.74 256.33 163.3C257.4 162.67 258.84 163.4 259.47 164.47C260.11 165.54 260.19 166.83 260.43 168.05C260.75 169.7 261.36 171.28 262.24 172.71C259.99 172.14 257.71 170.65 256.29 167.99Z" fill="#62CBE3"/>
<path d="M234.61 174.81C235.05 173.86 236.39 173.56 237.32 174.04C238.25 174.52 238.77 175.6 238.83 176.65C238.89 177.7 238.57 178.73 238.17 179.71C237.77 180.68 237.3 181.63 237.04 182.65C236.09 181.54 235.14 180.41 234.51 179.09C233.9 177.76 233.89 176.36 234.61 174.81Z" fill="#62CBE3"/>
<path d="M208.25 171.94C208.81 171.3 210.29 170.5 211.11 170.75C212.82 171.27 212.98 172.95 212.43 174.59C211.88 176.23 211 176.79 209.48 177.62C207.96 178.45 206.7 178.48 205.35 179.54C207.08 176.03 207.16 173.2 208.25 171.94Z" fill="#62CBE3"/>
<path d="M180.36 155.77C181.66 154.32 183.42 153.29 185.33 152.88C186.51 152.62 187.82 152.62 188.85 153.24C189.88 153.86 190.5 155.27 189.95 156.35C189.56 157.11 188.7 157.53 187.85 157.63C187 157.72 186.15 157.53 185.32 157.34C183.43 156.91 181.54 156.48 180.36 155.77Z" fill="#62CBE3"/>
<path d="M181.82 136.16C182.6 135.77 183.41 135.37 184.28 135.29C185.15 135.21 186.12 135.51 186.58 136.26C187.27 137.38 186.44 138.97 185.21 139.44C183.98 139.91 182.58 139.56 181.39 138.99C180.2 138.42 179.1 137.65 177.85 137.25C179 137.17 180.11 137.01 181.82 136.16Z" fill="#62CBE3"/>
<path d="M185.06 107.3C185.24 108.7 185.43 110.13 186.03 111.41C186.63 112.69 187.73 113.81 189.12 114.08C190.51 114.34 192.12 113.5 192.39 112.11C192.67 110.67 191.48 109.32 190.14 108.74C189.58 108.5 187.64 107.96 187.23 107.87C186.11 107.62 185.65 106.78 185.06 107.3Z" fill="#62CBE3"/>
<path d="M211.09 89.8C211.83 90.95 211.31 92.45 210.9 93.76C210.49 95.07 210.32 96.75 211.42 97.56C212.39 98.27 213.9 97.74 214.49 96.69C215.07 95.64 214.88 94.3001 214.3 93.2401C213.72 92.1801 212.8 91.36 211.09 89.8Z" fill="#62CBE3"/>
</svg>
