<svg width="1347" height="500" viewBox="0 0 1347 500" fill="none" xmlns="http://www.w3.org/2000/svg">
<path d="M73 76.2999C73 75.7999 72.6 75.3999 72 75.0999C69.7 73.8999 67 75.6999 67.1 78.2999C67.1 78.5999 67.1 78.9999 67.1 79.2999C67.1 86.2999 63.4 91.8999 58.9 91.8999C54.4 91.8999 50.7 86.2999 50.7 79.2999C50.7 78.9999 50.7 78.5999 50.7 78.2999C50.9 75.5999 47.8 73.6999 45.6 75.1999C45.1 75.4999 44.9 75.7999 44.9 76.1999V76.2999C44.9 86.4999 46.7 95.0999 53.5 97.9999C53.8 98.1999 54.1 98.4999 54.1 98.8999V114.7C54.1 116 56.3 117 59 117C61.7 117 63.9 115.9 63.9 114.7V98.8999C63.9 98.4999 64.1 98.1999 64.5 97.9999C71.1 95.0999 72.9 86.4999 73 76.2999Z" fill="#BD4646"/>
<path d="M192 76.2999C192 75.7999 191.6 75.3999 191 75.0999C188.7 73.8999 186 75.6999 186.1 78.2999C186.1 78.5999 186.1 78.9999 186.1 79.2999C186.1 86.2999 182.4 91.8999 177.9 91.8999C173.4 91.8999 169.7 86.2999 169.7 79.2999C169.7 78.9999 169.7 78.5999 169.7 78.2999C169.9 75.5999 166.8 73.6999 164.6 75.1999C164.1 75.4999 163.9 75.7999 163.9 76.1999V76.2999C163.9 86.4999 165.7 95.0999 172.5 97.9999C172.8 98.1999 173.1 98.4999 173.1 98.8999V114.7C173.1 116 175.3 117 178 117C180.7 117 182.9 115.9 182.9 114.7V98.8999C182.9 98.4999 183.1 98.1999 183.5 97.9999C190.1 95.0999 191.9 86.4999 192 76.2999Z" fill="#BD4646"/>
<path d="M313 76.2999C313 75.7999 312.6 75.3999 312 75.0999C309.7 73.8999 307 75.6999 307.1 78.2999C307.1 78.5999 307.1 78.9999 307.1 79.2999C307.1 86.2999 303.4 91.8999 298.9 91.8999C294.4 91.8999 290.7 86.2999 290.7 79.2999C290.7 78.9999 290.7 78.5999 290.7 78.2999C290.9 75.5999 287.8 73.6999 285.6 75.1999C285.1 75.4999 284.9 75.7999 284.9 76.1999V76.2999C284.9 86.4999 286.7 95.0999 293.5 97.9999C293.8 98.1999 294.1 98.4999 294.1 98.8999V114.7C294.1 116 296.3 117 299 117C301.7 117 303.9 115.9 303.9 114.7V98.8999C303.9 98.4999 304.1 98.1999 304.5 97.9999C311.1 95.0999 312.9 86.4999 313 76.2999Z" fill="#BD4646"/>
<path d="M402 76.2999C402 75.7999 401.6 75.3999 401 75.0999C398.7 73.8999 396 75.6999 396.1 78.2999C396.1 78.5999 396.1 78.9999 396.1 79.2999C396.1 86.2999 392.4 91.8999 387.9 91.8999C383.4 91.8999 379.7 86.2999 379.7 79.2999C379.7 78.9999 379.7 78.5999 379.7 78.2999C379.9 75.5999 376.8 73.6999 374.6 75.1999C374.1 75.4999 373.9 75.7999 373.9 76.1999V76.2999C373.9 86.4999 375.7 95.0999 382.5 97.9999C382.8 98.1999 383.1 98.4999 383.1 98.8999V114.7C383.1 116 385.3 117 388 117C390.7 117 392.9 115.9 392.9 114.7V98.8999C392.9 98.4999 393.1 98.1999 393.5 97.9999C400.1 95.0999 401.9 86.4999 402 76.2999Z" fill="#BD4646"/>
<path d="M510 76.2999C510 75.7999 509.6 75.3999 509 75.0999C506.7 73.8999 504 75.6999 504.1 78.2999C504.1 78.5999 504.1 78.9999 504.1 79.2999C504.1 86.2999 500.4 91.8999 495.9 91.8999C491.4 91.8999 487.7 86.2999 487.7 79.2999C487.7 78.9999 487.7 78.5999 487.7 78.2999C487.9 75.5999 484.8 73.6999 482.6 75.1999C482.1 75.4999 481.9 75.7999 481.9 76.1999V76.2999C481.9 86.4999 483.7 95.0999 490.5 97.9999C490.8 98.1999 491.1 98.4999 491.1 98.8999V114.7C491.1 116 493.3 117 496 117C498.7 117 500.9 115.9 500.9 114.7V98.8999C500.9 98.4999 501.1 98.1999 501.5 97.9999C508.1 95.0999 509.9 86.4999 510 76.2999Z" fill="#BD4646"/>
<path d="M620 76.2999C620 75.7999 619.6 75.3999 619 75.0999C616.7 73.8999 614 75.6999 614.1 78.2999C614.1 78.5999 614.1 78.9999 614.1 79.2999C614.1 86.2999 610.4 91.8999 605.9 91.8999C601.4 91.8999 597.7 86.2999 597.7 79.2999C597.7 78.9999 597.7 78.5999 597.7 78.2999C597.9 75.5999 594.8 73.6999 592.6 75.1999C592.1 75.4999 591.9 75.7999 591.9 76.1999V76.2999C591.9 86.4999 593.7 95.0999 600.5 97.9999C600.8 98.1999 601.1 98.4999 601.1 98.8999V114.7C601.1 116 603.3 117 606 117C608.7 117 610.9 115.9 610.9 114.7V98.8999C610.9 98.4999 611.1 98.1999 611.5 97.9999C618.1 95.0999 619.9 86.4999 620 76.2999Z" fill="#BD4646"/>
<path d="M745 76.2999C745 75.7999 744.6 75.3999 744 75.0999C741.7 73.8999 739 75.6999 739.1 78.2999C739.1 78.5999 739.1 78.9999 739.1 79.2999C739.1 86.2999 735.4 91.8999 730.9 91.8999C726.4 91.8999 722.7 86.2999 722.7 79.2999C722.7 78.9999 722.7 78.5999 722.7 78.2999C722.9 75.5999 719.8 73.6999 717.6 75.1999C717.1 75.4999 716.9 75.7999 716.9 76.1999V76.2999C716.9 86.4999 718.7 95.0999 725.5 97.9999C725.8 98.1999 726.1 98.4999 726.1 98.8999V114.7C726.1 116 728.3 117 731 117C733.7 117 735.9 115.9 735.9 114.7V98.8999C735.9 98.4999 736.1 98.1999 736.5 97.9999C743.1 95.0999 744.9 86.4999 745 76.2999Z" fill="#BD4646"/>
<path d="M818 75.2999C818 74.7999 817.6 74.3999 817 74.0999C814.7 72.8999 812 74.6999 812.1 77.2999C812.1 77.5999 812.1 77.9999 812.1 78.2999C812.1 85.2999 808.4 90.8999 803.9 90.8999C799.4 90.8999 795.7 85.2999 795.7 78.2999C795.7 77.9999 795.7 77.5999 795.7 77.2999C795.9 74.5999 792.8 72.6999 790.6 74.1999C790.1 74.4999 789.9 74.7999 789.9 75.1999V75.2999C789.9 85.4999 791.7 94.0999 798.5 96.9999C798.8 97.1999 799.1 97.4999 799.1 97.8999V113.7C799.1 115 801.3 116 804 116C806.7 116 808.9 114.9 808.9 113.7V97.8999C808.9 97.4999 809.1 97.1999 809.5 96.9999C816.1 94.0999 817.9 85.4999 818 75.2999Z" fill="#BD4646"/>
<path d="M934 75.2999C934 74.7999 933.6 74.3999 933 74.0999C930.7 72.8999 928 74.6999 928.1 77.2999C928.1 77.5999 928.1 77.9999 928.1 78.2999C928.1 85.2999 924.4 90.8999 919.9 90.8999C915.4 90.8999 911.7 85.2999 911.7 78.2999C911.7 77.9999 911.7 77.5999 911.7 77.2999C911.9 74.5999 908.8 72.6999 906.6 74.1999C906.1 74.4999 905.9 74.7999 905.9 75.1999V75.2999C905.9 85.4999 907.7 94.0999 914.5 96.9999C914.8 97.1999 915.1 97.4999 915.1 97.8999V113.7C915.1 115 917.3 116 920 116C922.7 116 924.9 114.9 924.9 113.7V97.8999C924.9 97.4999 925.1 97.1999 925.5 96.9999C932.1 94.0999 933.9 85.4999 934 75.2999Z" fill="#BD4646"/>
<path d="M1009 75.2999C1009 74.7999 1008.6 74.3999 1008 74.0999C1005.7 72.8999 1003 74.6999 1003.1 77.2999C1003.1 77.5999 1003.1 77.9999 1003.1 78.2999C1003.1 85.2999 999.4 90.8999 994.9 90.8999C990.4 90.8999 986.7 85.2999 986.7 78.2999C986.7 77.9999 986.7 77.5999 986.7 77.2999C986.9 74.5999 983.8 72.6999 981.6 74.1999C981.1 74.4999 980.9 74.7999 980.9 75.1999V75.2999C980.9 85.4999 982.7 94.0999 989.5 96.9999C989.8 97.1999 990.1 97.4999 990.1 97.8999V113.7C990.1 115 992.3 116 995 116C997.7 116 999.9 114.9 999.9 113.7V97.8999C999.9 97.4999 1000.1 97.1999 1000.5 96.9999C1007.1 94.0999 1008.9 85.4999 1009 75.2999Z" fill="#BD4646"/>
<path d="M1136 75.2999C1136 74.7999 1135.6 74.3999 1135 74.0999C1132.7 72.8999 1130 74.6999 1130.1 77.2999C1130.1 77.5999 1130.1 77.9999 1130.1 78.2999C1130.1 85.2999 1126.4 90.8999 1121.9 90.8999C1117.4 90.8999 1113.7 85.2999 1113.7 78.2999C1113.7 77.9999 1113.7 77.5999 1113.7 77.2999C1113.9 74.5999 1110.8 72.6999 1108.6 74.1999C1108.1 74.4999 1107.9 74.7999 1107.9 75.1999V75.2999C1107.9 85.4999 1109.7 94.0999 1116.5 96.9999C1116.8 97.1999 1117.1 97.4999 1117.1 97.8999V113.7C1117.1 115 1119.3 116 1122 116C1124.7 116 1126.9 114.9 1126.9 113.7V97.8999C1126.9 97.4999 1127.1 97.1999 1127.5 96.9999C1134.1 94.0999 1135.9 85.4999 1136 75.2999Z" fill="#BD4646"/>
<path d="M1256 75.2999C1256 74.7999 1255.6 74.3999 1255 74.0999C1252.7 72.8999 1250 74.6999 1250.1 77.2999C1250.1 77.5999 1250.1 77.9999 1250.1 78.2999C1250.1 85.2999 1246.4 90.8999 1241.9 90.8999C1237.4 90.8999 1233.7 85.2999 1233.7 78.2999C1233.7 77.9999 1233.7 77.5999 1233.7 77.2999C1233.9 74.5999 1230.8 72.6999 1228.6 74.1999C1228.1 74.4999 1227.9 74.7999 1227.9 75.1999V75.2999C1227.9 85.4999 1229.7 94.0999 1236.5 96.9999C1236.8 97.1999 1237.1 97.4999 1237.1 97.8999V113.7C1237.1 115 1239.3 116 1242 116C1244.7 116 1246.9 114.9 1246.9 113.7V97.8999C1246.9 97.4999 1247.1 97.1999 1247.5 96.9999C1254.1 94.0999 1255.9 85.4999 1256 75.2999Z" fill="#BD4646"/>
<path d="M1246 431.3C1246 431.8 1246.4 432.2 1247 432.5C1249.3 433.7 1252 431.8 1251.8 429.3C1251.8 429 1251.8 428.6 1251.8 428.3C1251.8 421.3 1255.4 415.7 1260 415.7C1264.6 415.7 1268.3 421.3 1268.3 428.2C1268.3 428.5 1268.3 428.9 1268.3 429.2C1268.1 431.9 1271.2 433.8 1273.4 432.3C1273.9 432 1274.1 431.7 1274.1 431.3V431.2C1274 421 1272.2 412.4 1265.4 409.6C1265.1 409.4 1264.8 409.1 1264.8 408.7L1264.7 392.9C1264.7 391.6 1262.5 390.6 1259.8 390.6C1257.1 390.6 1254.9 391.7 1255 393L1255.1 408.7C1255.1 409.1 1254.9 409.4 1254.5 409.6C1247.8 412.4 1246 421 1246 431.3C1246 431.2 1246 431.2 1246 431.3Z" fill="#BD4646"/>
<path d="M1127 429.1C1127 429.6 1127.4 430 1128 430.3C1130.3 431.5 1133 429.6 1132.8 427.1C1132.8 426.8 1132.8 426.4 1132.8 426.1C1132.8 419.1 1136.4 413.5 1141 413.5C1145.6 413.5 1149.3 419.1 1149.3 426C1149.3 426.3 1149.3 426.7 1149.3 427C1149.1 429.7 1152.2 431.6 1154.4 430.1C1154.9 429.8 1155.1 429.5 1155.1 429.1V429C1155 418.8 1153.2 410.2 1146.4 407.4C1146.1 407.2 1145.8 406.9 1145.8 406.5L1145.7 390.7C1145.7 389.4 1143.5 388.4 1140.8 388.4C1138.1 388.4 1135.9 389.5 1136 390.8L1136.1 406.5C1136.1 406.9 1135.9 407.2 1135.5 407.4C1128.8 410.2 1127 418.8 1127 429.1C1127 429 1127 429 1127 429.1Z" fill="#BD4646"/>
<path d="M1006 429.9C1006 430.4 1006.4 430.8 1007 431.1C1009.3 432.3 1012 430.4 1011.8 427.9C1011.8 427.6 1011.8 427.2 1011.8 426.9C1011.8 419.9 1015.4 414.3 1020 414.3C1024.6 414.3 1028.3 419.9 1028.3 426.8C1028.3 427.1 1028.3 427.5 1028.3 427.8C1028.1 430.5 1031.2 432.4 1033.4 430.9C1033.9 430.6 1034.1 430.3 1034.1 429.9V429.8C1034 419.6 1032.2 411 1025.4 408.2C1025.1 408 1024.8 407.7 1024.8 407.3L1024.7 391.5C1024.7 390.2 1022.5 389.2 1019.8 389.2C1017.1 389.2 1014.9 390.3 1015 391.6L1015.1 407.3C1015.1 407.7 1014.9 408 1014.5 408.2C1007.8 411 1006 419.7 1006 429.9Z" fill="#BD4646"/>
<path d="M917 430.5C917 431 917.4 431.4 918 431.7C920.3 432.9 923 431 922.8 428.5C922.8 428.2 922.8 427.8 922.8 427.5C922.8 420.5 926.4 414.9 931 414.9C935.6 414.9 939.3 420.5 939.3 427.4C939.3 427.7 939.3 428.1 939.3 428.4C939.1 431.1 942.2 433 944.4 431.5C944.9 431.2 945.1 430.9 945.1 430.5V430.4C945 420.2 943.2 411.6 936.4 408.8C936.1 408.6 935.8 408.3 935.8 407.9L935.7 392.1C935.7 390.8 933.5 389.8 930.8 389.8C928.1 389.8 925.9 390.9 926 392.2L926.1 407.9C926.1 408.3 925.9 408.6 925.5 408.8C918.8 411.6 917 420.3 917 430.5Z" fill="#BD4646"/>
<path d="M809 431.3C809 431.8 809.4 432.2 810 432.5C812.3 433.7 815 431.8 814.8 429.3C814.8 429 814.8 428.6 814.8 428.3C814.8 421.3 818.4 415.7 823 415.7C827.6 415.7 831.3 421.3 831.3 428.2C831.3 428.5 831.3 428.9 831.3 429.2C831.1 431.9 834.2 433.8 836.4 432.3C836.9 432 837.1 431.7 837.1 431.3V431.2C837 421 835.2 412.4 828.4 409.6C828.1 409.4 827.8 409.1 827.8 408.7L827.7 392.9C827.7 391.6 825.5 390.6 822.8 390.6C820.1 390.6 817.9 391.7 818 393L818.1 408.7C818.1 409.1 817.9 409.4 817.5 409.6C810.8 412.4 809 421 809 431.3C809 431.2 809 431.2 809 431.3Z" fill="#BD4646"/>
<path d="M699 432C699 432.5 699.4 432.9 700 433.2C702.3 434.4 705 432.5 704.8 430C704.8 429.7 704.8 429.3 704.8 429C704.8 422 708.4 416.4 713 416.4C717.6 416.4 721.3 422 721.3 428.9C721.3 429.2 721.3 429.6 721.3 429.9C721.1 432.6 724.2 434.5 726.4 433C726.9 432.7 727.1 432.4 727.1 432V431.9C727 421.7 725.2 413.1 718.4 410.3C718.1 410.1 717.8 409.8 717.8 409.4L717.7 393.6C717.7 392.3 715.5 391.3 712.8 391.3C710.1 391.3 707.9 392.4 708 393.7L708.1 409.4C708.1 409.8 707.9 410.1 707.5 410.3C700.8 413.1 699 421.8 699 432Z" fill="#BD4646"/>
<path d="M574 432.9C574 433.4 574.4 433.8 575 434.1C577.3 435.3 580 433.4 579.8 430.9C579.8 430.6 579.8 430.2 579.8 429.9C579.8 422.9 583.4 417.3 588 417.3C592.6 417.3 596.3 422.9 596.3 429.8C596.3 430.1 596.3 430.5 596.3 430.8C596.1 433.5 599.2 435.4 601.4 433.9C601.9 433.6 602.1 433.3 602.1 432.9V432.8C602 422.6 600.2 414 593.4 411.2C593.1 411 592.8 410.7 592.8 410.3L592.7 394.5C592.7 393.2 590.5 392.2 587.8 392.2C585.1 392.2 582.9 393.3 583 394.6L583.1 410.3C583.1 410.7 582.9 411 582.5 411.2C575.8 414 574 422.6 574 432.9C574 432.8 574 432.8 574 432.9Z" fill="#BD4646"/>
<path d="M501 434.4C501 434.9 501.4 435.3 502 435.6C504.3 436.8 507 434.9 506.8 432.4C506.8 432.1 506.8 431.7 506.8 431.4C506.8 424.4 510.4 418.8 515 418.8C519.6 418.8 523.3 424.4 523.3 431.3C523.3 431.6 523.3 432 523.3 432.3C523.1 435 526.2 436.9 528.4 435.4C528.9 435.1 529.1 434.8 529.1 434.4V434.3C529 424.1 527.2 415.5 520.4 412.7C520.1 412.5 519.8 412.2 519.8 411.8L519.7 396C519.7 394.7 517.5 393.7 514.8 393.7C512.1 393.7 509.9 394.8 510 396.1L510.1 411.8C510.1 412.2 509.9 412.5 509.5 412.7C502.8 415.5 501 424.1 501 434.4C501 434.3 501 434.3 501 434.4Z" fill="#BD4646"/>
<path d="M385 435.2C385 435.7 385.4 436.1 386 436.4C388.3 437.6 391 435.7 390.8 433.2C390.8 432.9 390.8 432.5 390.8 432.2C390.8 425.2 394.4 419.6 399 419.6C403.6 419.6 407.3 425.2 407.3 432.1C407.3 432.4 407.3 432.8 407.3 433.1C407.1 435.8 410.2 437.7 412.4 436.2C412.9 435.9 413.1 435.6 413.1 435.2V435.1C413 424.9 411.2 416.3 404.4 413.5C404.1 413.3 403.8 413 403.8 412.6L403.7 396.8C403.7 395.5 401.5 394.5 398.8 394.5C396.1 394.5 393.9 395.6 394 396.9L394.1 412.6C394.1 413 393.9 413.3 393.5 413.5C386.8 416.3 385 424.9 385 435.2C385 435.1 385 435.1 385 435.2Z" fill="#BD4646"/>
<path d="M309.7 432.7C309.7 433.2 310.1 433.6 310.7 433.9C313 435.1 315.7 433.3 315.6 430.8C315.6 430.5 315.6 430.1 315.6 429.8C315.7 422.8 319.4 417.3 324 417.3C328.6 417.4 332.2 423 332.1 430C332.1 430.3 332.1 430.7 332.1 431C331.9 433.7 334.9 435.6 337.2 434.1C337.7 433.8 337.9 433.5 337.9 433.1V433C338 422.8 336.3 414.2 329.6 411.2C329.3 411 329 410.7 329 410.3L329.2 394.5C329.2 393.2 327.1 392.1 324.4 392.1C321.7 392.1 319.5 393.1 319.5 394.4L319.3 410.1C319.3 410.5 319.1 410.8 318.7 411C311.8 413.8 309.9 422.4 309.7 432.7C309.7 432.6 309.7 432.6 309.7 432.7Z" fill="#BD4646"/>
<path d="M182.7 433.2C182.7 433.7 183.1 434.1 183.7 434.4C186 435.6 188.7 433.8 188.6 431.3C188.6 431 188.6 430.6 188.6 430.3C188.7 423.3 192.4 417.8 197 417.8C201.6 417.8 205.2 423.5 205.1 430.5C205.1 430.8 205.1 431.2 205.1 431.5C204.9 434.2 207.9 436.1 210.2 434.6C210.7 434.3 210.9 434 210.9 433.6V433.5C211 423.3 209.3 414.7 202.6 411.7C202.3 411.5 202 411.2 202 410.8L202.2 395C202.2 393.7 200.1 392.6 197.4 392.6C194.7 392.6 192.5 393.6 192.5 394.9L192.3 410.6C192.3 411 192.1 411.3 191.7 411.5C184.8 414.4 182.9 423 182.7 433.2Z" fill="#BD4646"/>
<path d="M62.7 431.9C62.7 432.4 63.1 432.8 63.7 433.1C66 434.3 68.7 432.5 68.6 430C68.6 429.7 68.6 429.3 68.6 429C68.7 422 72.4 416.5 77 416.5C81.6 416.6 85.2 422.2 85.1 429.2C85.1 429.5 85.1 429.9 85.1 430.2C84.9 432.9 87.9 434.8 90.2 433.3C90.7 433 90.9 432.7 90.9 432.3V432.2C91 422 89.3 413.4 82.6 410.4C82.3 410.2 82 409.9 82 409.5L82.2 393.7C82.2 392.4 80.1 391.3 77.4 391.3C74.7 391.3 72.5 392.3 72.5 393.6L72.3 409.3C72.3 409.7 72.1 410 71.7 410.2C64.8 413 62.9 421.6 62.7 431.9C62.7 431.8 62.7 431.8 62.7 431.9Z" fill="#BD4646"/>
</svg>
