<svg width="460" height="553" viewBox="0 0 460 553" fill="none" xmlns="http://www.w3.org/2000/svg">
<g filter="url(#filter0_i_4612_295811)">
<path d="M110.449 392.841C110.531 392.668 110.452 392.445 110.298 392.213C109.652 391.349 108.311 391.562 107.892 392.556C107.83 392.685 107.769 392.815 107.717 392.923C106.465 395.563 104.081 397.03 102.357 396.212C100.634 395.394 100.261 392.62 101.513 389.98C101.575 389.85 101.636 389.721 101.698 389.591C102.245 388.605 101.442 387.349 100.335 387.513C100.111 387.539 99.9631 387.628 99.8913 387.78L99.881 387.801C98.0541 391.653 97.1721 395.237 99.2226 397.535C99.3211 397.661 99.356 397.81 99.2841 397.961L96.4514 403.933C96.2153 404.431 96.8492 405.209 97.8618 405.689C98.8743 406.169 99.888 406.146 100.114 405.67L102.926 399.742C102.998 399.591 103.146 399.502 103.295 399.52C106.351 399.644 108.59 396.703 110.417 392.852C110.438 392.862 110.438 392.862 110.449 392.841Z" fill="#AD033C"/>
</g>
<g filter="url(#filter1_i_4612_295811)">
<path d="M205.547 429.572C205.598 429.388 205.482 429.181 205.291 428.979C204.506 428.239 203.221 428.678 202.979 429.729C202.941 429.868 202.902 430.006 202.87 430.122C202.089 432.937 199.991 434.79 198.153 434.28C196.315 433.77 195.472 431.1 196.253 428.285C196.291 428.147 196.33 428.008 196.368 427.87C196.738 426.804 195.732 425.705 194.669 426.056C194.453 426.121 194.323 426.233 194.278 426.395L194.272 426.418C193.132 430.526 192.877 434.208 195.291 436.12C195.41 436.228 195.47 436.369 195.425 436.53L193.657 442.899C193.51 443.43 194.268 444.087 195.347 444.387C196.427 444.687 197.422 444.491 197.563 443.983L199.318 437.66C199.363 437.499 199.493 437.386 199.644 437.378C202.675 436.977 204.377 433.696 205.517 429.589C205.54 429.595 205.54 429.595 205.547 429.572Z" fill="#AD033C"/>
</g>
<g filter="url(#filter2_i_4612_295811)">
<path d="M154.325 415.947C154.407 415.774 154.328 415.551 154.174 415.319C153.528 414.456 152.187 414.668 151.768 415.662C151.706 415.792 151.645 415.922 151.593 416.03C150.341 418.67 147.957 420.136 146.233 419.318C144.51 418.501 144.137 415.726 145.389 413.087C145.45 412.957 145.512 412.827 145.574 412.697C146.121 411.711 145.318 410.455 144.211 410.619C143.987 410.646 143.839 410.735 143.767 410.886L143.757 410.908C141.93 414.759 141.048 418.343 143.099 420.641C143.197 420.767 143.232 420.916 143.16 421.068L140.327 427.04C140.091 427.537 140.725 428.315 141.738 428.795C142.75 429.276 143.764 429.253 143.99 428.777L146.802 422.848C146.874 422.697 147.022 422.608 147.171 422.626C150.227 422.75 152.466 419.81 154.293 415.959C154.314 415.969 154.314 415.969 154.325 415.947Z" fill="#AD033C"/>
</g>
<g filter="url(#filter3_i_4612_295811)">
<path d="M267.18 436.724C267.186 436.533 267.024 436.36 266.791 436.209C265.853 435.676 264.709 436.407 264.723 437.486C264.718 437.629 264.714 437.773 264.71 437.893C264.619 440.813 263.02 443.111 261.113 443.051C259.207 442.991 257.755 440.598 257.846 437.678C257.851 437.534 257.855 437.39 257.86 437.247C257.966 436.124 256.728 435.295 255.779 435.888C255.585 436.002 255.485 436.142 255.48 436.31L255.479 436.334C255.345 440.594 255.971 444.232 258.77 445.517C258.911 445.594 259.002 445.716 258.997 445.884L258.79 452.49C258.773 453.041 259.665 453.5 260.785 453.535C261.905 453.57 262.825 453.144 262.842 452.617L263.047 446.059C263.052 445.891 263.152 445.75 263.296 445.707C266.146 444.598 267.022 441.008 267.155 436.747C267.179 436.748 267.179 436.748 267.18 436.724Z" fill="#AD033C"/>
</g>
<g filter="url(#filter4_i_4612_295811)">
<path d="M318.399 436.439C318.377 436.249 318.192 436.102 317.939 435.986C316.934 435.596 315.908 436.485 316.079 437.551C316.095 437.693 316.112 437.836 316.125 437.955C316.46 440.857 315.213 443.364 313.318 443.582C311.423 443.801 309.638 441.644 309.303 438.741C309.287 438.599 309.271 438.456 309.254 438.313C309.196 437.187 307.85 436.547 306.998 437.272C306.822 437.412 306.744 437.566 306.763 437.733L306.766 437.756C307.254 441.991 308.402 445.499 311.358 446.363C311.509 446.418 311.617 446.526 311.636 446.693L312.393 453.259C312.456 453.806 313.406 454.131 314.519 454.002C315.632 453.874 316.48 453.318 316.42 452.795L315.669 446.276C315.649 446.11 315.728 445.956 315.864 445.892C318.522 444.38 318.866 440.701 318.378 436.466C318.402 436.463 318.402 436.463 318.399 436.439Z" fill="#AD033C"/>
</g>
<g filter="url(#filter5_i_4612_295811)">
<path d="M355.162 423.989C355.087 423.812 354.867 423.724 354.592 423.685C353.517 423.597 352.787 424.742 353.255 425.715C353.311 425.847 353.367 425.979 353.414 426.089C354.562 428.776 354.08 431.534 352.326 432.283C350.572 433.032 348.247 431.473 347.099 428.786C347.043 428.654 346.986 428.522 346.93 428.39C346.554 427.327 345.081 427.096 344.47 428.034C344.342 428.219 344.311 428.389 344.376 428.543L344.386 428.565C346.06 432.485 348.16 435.52 351.24 435.507C351.4 435.517 351.534 435.589 351.6 435.744L354.196 441.822C354.413 442.329 355.415 442.369 356.446 441.929C357.477 441.489 358.131 440.714 357.924 440.23L355.347 434.196C355.281 434.041 355.312 433.872 355.425 433.772C357.542 431.565 356.824 427.94 355.149 424.02C355.171 424.011 355.171 424.011 355.162 423.989Z" fill="#AD033C"/>
</g>
<g filter="url(#filter6_i_4612_295811)">
<path d="M387.37 407.287C387.284 407.116 387.059 407.042 386.781 407.021C385.703 407.004 385.05 408.194 385.579 409.133C385.644 409.262 385.709 409.39 385.763 409.497C387.083 412.103 386.782 414.886 385.08 415.748C383.379 416.61 380.957 415.206 379.637 412.599C379.572 412.471 379.507 412.343 379.442 412.215C378.997 411.178 377.513 411.044 376.965 412.02C376.849 412.213 376.828 412.384 376.904 412.534L376.915 412.555C378.841 416.358 381.134 419.25 384.206 419.036C384.366 419.036 384.506 419.099 384.581 419.249L387.568 425.145C387.816 425.637 388.819 425.612 389.819 425.106C390.819 424.599 391.422 423.784 391.184 423.314L388.219 417.46C388.143 417.311 388.164 417.139 388.27 417.032C390.239 414.693 389.286 411.122 387.36 407.319C387.381 407.308 387.381 407.308 387.37 407.287Z" fill="#AD033C"/>
</g>
<defs>
<filter id="filter0_i_4612_295811" x="95.8031" y="387.498" width="14.6783" height="19.139" filterUnits="userSpaceOnUse" color-interpolation-filters="sRGB">
<feFlood flood-opacity="0" result="BackgroundImageFix"/>
<feBlend mode="normal" in="SourceGraphic" in2="BackgroundImageFix" result="shape"/>
<feColorMatrix in="SourceAlpha" type="matrix" values="0 0 0 0 0 0 0 0 0 0 0 0 0 0 0 0 0 0 127 0" result="hardAlpha"/>
<feOffset dx="-0.93552" dy="0.748416"/>
<feGaussianBlur stdDeviation="0.299366"/>
<feComposite in2="hardAlpha" operator="arithmetic" k2="-1" k3="1"/>
<feColorMatrix type="matrix" values="0 0 0 0 1 0 0 0 0 1 0 0 0 0 1 0 0 0 0.4 0"/>
<feBlend mode="normal" in2="shape" result="effect1_innerShadow_4612_295811"/>
</filter>
<filter id="filter1_i_4612_295811" x="192.834" y="425.99" width="12.7242" height="19.1378" filterUnits="userSpaceOnUse" color-interpolation-filters="sRGB">
<feFlood flood-opacity="0" result="BackgroundImageFix"/>
<feBlend mode="normal" in="SourceGraphic" in2="BackgroundImageFix" result="shape"/>
<feColorMatrix in="SourceAlpha" type="matrix" values="0 0 0 0 0 0 0 0 0 0 0 0 0 0 0 0 0 0 127 0" result="hardAlpha"/>
<feOffset dx="-0.93552" dy="0.748416"/>
<feGaussianBlur stdDeviation="0.299366"/>
<feComposite in2="hardAlpha" operator="arithmetic" k2="-1" k3="1"/>
<feColorMatrix type="matrix" values="0 0 0 0 1 0 0 0 0 1 0 0 0 0 1 0 0 0 0.4 0"/>
<feBlend mode="normal" in2="shape" result="effect1_innerShadow_4612_295811"/>
</filter>
<filter id="filter2_i_4612_295811" x="139.679" y="410.605" width="14.6783" height="19.139" filterUnits="userSpaceOnUse" color-interpolation-filters="sRGB">
<feFlood flood-opacity="0" result="BackgroundImageFix"/>
<feBlend mode="normal" in="SourceGraphic" in2="BackgroundImageFix" result="shape"/>
<feColorMatrix in="SourceAlpha" type="matrix" values="0 0 0 0 0 0 0 0 0 0 0 0 0 0 0 0 0 0 127 0" result="hardAlpha"/>
<feOffset dx="-0.93552" dy="0.748416"/>
<feGaussianBlur stdDeviation="0.299366"/>
<feComposite in2="hardAlpha" operator="arithmetic" k2="-1" k3="1"/>
<feColorMatrix type="matrix" values="0 0 0 0 1 0 0 0 0 1 0 0 0 0 1 0 0 0 0.4 0"/>
<feBlend mode="normal" in2="shape" result="effect1_innerShadow_4612_295811"/>
</filter>
<filter id="filter3_i_4612_295811" x="254.863" y="435.69" width="12.3165" height="18.4454" filterUnits="userSpaceOnUse" color-interpolation-filters="sRGB">
<feFlood flood-opacity="0" result="BackgroundImageFix"/>
<feBlend mode="normal" in="SourceGraphic" in2="BackgroundImageFix" result="shape"/>
<feColorMatrix in="SourceAlpha" type="matrix" values="0 0 0 0 0 0 0 0 0 0 0 0 0 0 0 0 0 0 127 0" result="hardAlpha"/>
<feOffset dx="-0.93552" dy="0.748416"/>
<feGaussianBlur stdDeviation="0.299366"/>
<feComposite in2="hardAlpha" operator="arithmetic" k2="-1" k3="1"/>
<feColorMatrix type="matrix" values="0 0 0 0 1 0 0 0 0 1 0 0 0 0 1 0 0 0 0.4 0"/>
<feBlend mode="normal" in2="shape" result="effect1_innerShadow_4612_295811"/>
</filter>
<filter id="filter4_i_4612_295811" x="306.161" y="435.893" width="12.4044" height="18.7364" filterUnits="userSpaceOnUse" color-interpolation-filters="sRGB">
<feFlood flood-opacity="0" result="BackgroundImageFix"/>
<feBlend mode="normal" in="SourceGraphic" in2="BackgroundImageFix" result="shape"/>
<feColorMatrix in="SourceAlpha" type="matrix" values="0 0 0 0 0 0 0 0 0 0 0 0 0 0 0 0 0 0 127 0" result="hardAlpha"/>
<feOffset dx="-0.93552" dy="0.748416"/>
<feGaussianBlur stdDeviation="0.299366"/>
<feComposite in2="hardAlpha" operator="arithmetic" k2="-1" k3="1"/>
<feColorMatrix type="matrix" values="0 0 0 0 1 0 0 0 0 1 0 0 0 0 1 0 0 0 0.4 0"/>
<feBlend mode="normal" in2="shape" result="effect1_innerShadow_4612_295811"/>
</filter>
<filter id="filter5_i_4612_295811" x="343.744" y="423.681" width="14.2179" height="19.1507" filterUnits="userSpaceOnUse" color-interpolation-filters="sRGB">
<feFlood flood-opacity="0" result="BackgroundImageFix"/>
<feBlend mode="normal" in="SourceGraphic" in2="BackgroundImageFix" result="shape"/>
<feColorMatrix in="SourceAlpha" type="matrix" values="0 0 0 0 0 0 0 0 0 0 0 0 0 0 0 0 0 0 127 0" result="hardAlpha"/>
<feOffset dx="-0.93552" dy="0.748416"/>
<feGaussianBlur stdDeviation="0.299366"/>
<feComposite in2="hardAlpha" operator="arithmetic" k2="-1" k3="1"/>
<feColorMatrix type="matrix" values="0 0 0 0 1 0 0 0 0 1 0 0 0 0 1 0 0 0 0.4 0"/>
<feBlend mode="normal" in2="shape" result="effect1_innerShadow_4612_295811"/>
</filter>
<filter id="filter6_i_4612_295811" x="376.261" y="407.021" width="14.9747" height="19.0775" filterUnits="userSpaceOnUse" color-interpolation-filters="sRGB">
<feFlood flood-opacity="0" result="BackgroundImageFix"/>
<feBlend mode="normal" in="SourceGraphic" in2="BackgroundImageFix" result="shape"/>
<feColorMatrix in="SourceAlpha" type="matrix" values="0 0 0 0 0 0 0 0 0 0 0 0 0 0 0 0 0 0 127 0" result="hardAlpha"/>
<feOffset dx="-0.93552" dy="0.748416"/>
<feGaussianBlur stdDeviation="0.299366"/>
<feComposite in2="hardAlpha" operator="arithmetic" k2="-1" k3="1"/>
<feColorMatrix type="matrix" values="0 0 0 0 1 0 0 0 0 1 0 0 0 0 1 0 0 0 0.4 0"/>
<feBlend mode="normal" in2="shape" result="effect1_innerShadow_4612_295811"/>
</filter>
</defs>
</svg>
