<svg width="470" height="559" viewBox="0 0 470 559" fill="none" xmlns="http://www.w3.org/2000/svg">
<path d="M81.8514 387.842C56.6002 371.995 14.4131 354.495 14.2197 356.038L11.1042 364.216C14.7972 363.052 48.543 372.656 64.3269 386.284C87.0033 397.651 99.6474 404.608 121.963 418.996C149.022 432.264 165.374 437.603 196.345 443.92C229.767 452.336 248.62 454.407 282.28 457.291C307.567 457.65 321.646 457.017 346.407 452.877C364.62 444.815 374.317 439.325 392.1 430.16C421.617 418.63 438.413 413.983 469.208 411.857V404.328L467.261 404.645C436.312 409.691 418.369 412.616 396.903 421.722C373.272 436.347 360.089 442.955 336.801 449.242C299.37 452.103 278.33 452.216 240.611 447.035C208.92 442.04 191.083 438.417 158.959 428.343C121.186 410.224 105.428 401.257 82.8623 388.417L81.8514 387.842Z" fill="#F84E3C" stroke="#57291E" stroke-width="0.778868"/>
<path d="M456.166 538.033C468.689 502.178 468.689 453.656 468.689 413.414C432.329 411.385 403.979 422.541 346.147 453.656C302.886 458.5 280.654 458.346 244.115 453.656C185.055 443.451 157.349 435.928 120.405 418.347C52.5135 376.168 25.9555 362.495 12.1427 367.202C12.1427 367.202 -15.285 486.442 15.6659 522.678C41.4747 552.893 106.666 538.033 143.771 538.033C196.874 538.033 227.288 554.689 279.554 545.303C327.858 536.628 439.983 584.365 456.166 538.033Z" fill="#FEE8BF"/>
<g style="mix-blend-mode:multiply">
<path d="M133.906 457.031C183.273 476.595 236.894 498.87 289.16 489.484C359.071 476.929 331.957 493.556 393.009 453.656C425.981 432.107 462.666 495.678 467.666 471.678C467.666 443.178 468.689 426.678 468.689 413.414C432.329 411.385 403.979 422.541 346.147 453.656C302.886 458.5 280.655 458.346 244.116 453.656C185.055 443.451 157.349 435.928 120.405 418.347C52.5135 376.168 25.9555 362.495 12.1427 367.202C12.1427 367.202 0.16573 411.178 3.16592 448.678C10.7383 466.898 29.4076 392.385 45.1148 403.419C73.3918 423.283 112.08 448.382 133.906 457.031Z" fill="#FEE8BF"/>
</g>
</svg>
