<svg width="456" height="790" viewBox="0 0 456 790" fill="none" xmlns="http://www.w3.org/2000/svg">
<path d="M231.891 41.7168C232.863 43.4718 233.811 45.5918 234.468 48.0578C236.287 54.8688 234.925 60.6898 233.774 64.0538C234.958 63.2968 236.138 62.5468 237.322 61.7898C237.125 63.7858 236.697 66.1518 235.818 68.7318C234.325 73.1388 232.096 76.5608 230.212 78.9468C231.928 78.6378 233.637 78.3248 235.342 78.0198C234.518 80.2478 233.234 82.8898 231.167 85.6268C225.66 92.9278 217.925 96.4928 213.928 98.0218C211.069 95.5208 205.64 90.0388 203.808 81.8358C203.063 78.4858 203.092 75.5138 203.37 73.1678C204.292 73.7658 205.214 74.3648 206.136 74.9628C206.029 71.4788 206.508 65.9158 210.168 60.2588C211.083 58.8448 212.079 57.6028 213.075 56.5308C213.317 57.6758 213.551 58.8188 213.793 59.9638C214.419 58.8738 215.119 57.7668 215.898 56.6508C220.597 49.9098 226.558 45.0898 231.891 41.7168Z" fill="#8FC25F"/>
<path d="M231.891 41.7168C232.863 43.4718 233.811 45.5918 234.468 48.0578C236.287 54.8688 234.925 60.6898 233.774 64.0538C234.958 63.2968 236.138 62.5468 237.322 61.7898C237.125 63.7858 236.697 66.1518 235.818 68.7318C234.325 73.1388 232.096 76.5608 230.212 78.9468C231.928 78.6378 233.637 78.3248 235.342 78.0198C234.518 80.2478 233.234 82.8898 231.167 85.6268C225.66 92.9278 217.925 96.4928 213.928 98.0218C215.212 89.2188 217.36 79.1288 220.932 68.1658C224.201 58.1588 228.044 49.3178 231.891 41.7168Z" fill="url(#paint0_linear_4385_291079)"/>
<path d="M231.891 41.7168C232.863 43.4718 233.811 45.5918 234.468 48.0578C236.287 54.8688 234.925 60.6898 233.774 64.0538C234.958 63.2968 236.138 62.5468 237.322 61.7898C237.125 63.7858 236.697 66.1518 235.818 68.7318C234.325 73.1388 232.096 76.5608 230.212 78.9468C231.928 78.6378 233.637 78.3248 235.342 78.0198C234.518 80.2478 233.234 82.8898 231.167 85.6268C225.66 92.9278 217.925 96.4928 213.928 98.0218C211.069 95.5208 205.64 90.0388 203.808 81.8358C203.063 78.4858 203.092 75.5138 203.37 73.1678C204.292 73.7658 205.214 74.3648 206.136 74.9628C206.029 71.4788 206.508 65.9158 210.168 60.2588C211.083 58.8448 212.079 57.6028 213.075 56.5308C213.317 57.6758 213.551 58.8188 213.793 59.9638C214.419 58.8738 215.119 57.7668 215.898 56.6508C220.597 49.9098 226.558 45.0898 231.891 41.7168Z" fill="url(#paint1_linear_4385_291079)"/>
<defs>
<linearGradient id="paint0_linear_4385_291079" x1="199.759" y1="76.7775" x2="248.935" y2="62.171" gradientUnits="userSpaceOnUse">
<stop stop-color="#2C7C61"/>
<stop offset="1" stop-color="#2C7C61" stop-opacity="0"/>
</linearGradient>
<linearGradient id="paint1_linear_4385_291079" x1="207.552" y1="34.6365" x2="224.516" y2="79.0383" gradientUnits="userSpaceOnUse">
<stop stop-color="#DEDD1C"/>
<stop offset="1" stop-color="#D8DB1F" stop-opacity="0"/>
</linearGradient>
</defs>
</svg>
