<svg width="456" height="790" viewBox="0 0 456 790" fill="none" xmlns="http://www.w3.org/2000/svg">
<path d="M152.958 296.862C152.9 296.697 156.739 295.036 161.834 294.914C164.501 294.85 166.719 295.227 168.262 295.592C168.944 296.113 169.627 296.634 170.31 297.156C168.754 296.602 166.709 296.039 164.256 295.769C157.891 295.068 153.023 297.046 152.958 296.862Z" fill="#8FC25F"/>
<path d="M152.958 296.862C152.9 296.697 156.739 295.036 161.834 294.914C164.501 294.85 166.719 295.227 168.262 295.592C168.944 296.113 169.627 296.634 170.31 297.156C168.754 296.602 166.709 296.039 164.256 295.769C157.891 295.068 153.023 297.046 152.958 296.862Z" fill="url(#paint0_linear_4385_298462)"/>
<path d="M196.923 296.126C196.637 296.029 193.108 300.62 192.141 307.02C191.635 310.37 191.982 313.22 192.408 315.216C193.239 316.152 194.069 317.089 194.9 318.025C194.14 315.983 193.434 313.325 193.312 310.195C192.995 302.076 197.243 296.235 196.923 296.126Z" fill="#8FC25F"/>
<path d="M196.923 296.126C196.637 296.029 193.108 300.62 192.141 307.02C191.635 310.37 191.982 313.22 192.408 315.216C193.239 316.152 194.069 317.089 194.9 318.025C194.14 315.983 193.434 313.325 193.312 310.195C192.995 302.076 197.243 296.235 196.923 296.126Z" fill="url(#paint1_linear_4385_298462)"/>
<path d="M179.073 326.565C179.041 326.307 185.269 324.725 192.861 325.71C196.834 326.226 200 327.292 202.168 328.187C203.01 329.116 203.853 330.045 204.695 330.973C202.568 329.796 199.721 328.493 196.172 327.531C186.966 325.036 179.11 326.854 179.073 326.565Z" fill="#8FC25F"/>
<path d="M179.073 326.565C179.041 326.307 185.269 324.725 192.861 325.71C196.834 326.226 200 327.292 202.168 328.187C203.01 329.116 203.853 330.045 204.695 330.973C202.568 329.796 199.721 328.493 196.172 327.531C186.966 325.036 179.11 326.854 179.073 326.565Z" fill="url(#paint2_linear_4385_298462)"/>
<path d="M156.273 276.538C156.089 276.52 154.908 279.643 155.548 283.473C155.883 285.478 156.618 287.081 157.239 288.18C157.895 288.612 158.551 289.044 159.207 289.476C158.384 288.395 157.478 286.951 156.821 285.156C155.116 280.5 156.479 276.559 156.273 276.538Z" fill="#8FC25F"/>
<path d="M156.273 276.538C156.089 276.52 154.908 279.643 155.548 283.473C155.883 285.478 156.618 287.081 157.239 288.18C157.895 288.612 158.551 289.044 159.207 289.476C158.384 288.395 157.478 286.951 156.821 285.156C155.116 280.5 156.479 276.559 156.273 276.538Z" fill="url(#paint3_linear_4385_298462)"/>
<path d="M55.5371 249.278C56.7801 251.328 58.4471 253.624 60.7131 255.945C66.9671 262.361 74.4451 265.551 79.0321 267.107C77.3231 267.485 75.6241 267.864 73.9151 268.242C76.2811 269.548 79.2291 270.942 82.7461 272.138C88.7461 274.189 94.1861 274.939 98.2221 275.203C96.6221 276.327 95.0241 277.444 93.4371 278.562C96.5211 279.544 100.402 280.468 104.961 280.844C117.12 281.854 126.747 278.375 131.374 276.349C130.681 272.268 128.547 263.986 120.754 256.541C117.569 253.503 114.239 251.351 111.423 249.852C111.415 251.015 111.407 252.178 111.399 253.341C107.597 250.707 101.052 247.013 92.0771 245.753C89.8331 245.438 87.7211 245.313 85.8001 245.312C86.8981 246.341 87.9991 247.361 89.0971 248.39C87.4261 248.085 85.6801 247.825 83.8671 247.622C72.9211 246.387 63.1941 247.549 55.5371 249.278Z" fill="#8FC25F"/>
<path d="M55.5371 249.277C56.7801 251.327 58.4471 253.624 60.7131 255.945C66.9671 262.361 74.4451 265.55 79.0321 267.106C77.3231 267.484 75.6241 267.863 73.9151 268.241C76.2811 269.547 79.2291 270.942 82.7461 272.138C88.7461 274.189 94.1861 274.939 98.2221 275.203C96.6221 276.327 95.0241 277.443 93.4371 278.561C96.5211 279.543 100.402 280.467 104.961 280.843C117.12 281.853 126.747 278.375 131.374 276.349C120.632 270.917 107.826 265.223 93.0051 260.009C79.4711 255.259 66.8151 251.812 55.5371 249.277Z" fill="url(#paint4_linear_4385_298462)"/>
<path d="M55.5371 249.278C56.7801 251.328 58.4471 253.624 60.7131 255.945C66.9671 262.361 74.4451 265.551 79.0321 267.107C77.3231 267.485 75.6241 267.864 73.9151 268.242C76.2811 269.548 79.2291 270.942 82.7461 272.138C88.7461 274.189 94.1861 274.939 98.2221 275.203C96.6221 276.327 95.0241 277.444 93.4371 278.562C96.5211 279.544 100.402 280.468 104.961 280.844C117.12 281.854 126.747 278.375 131.374 276.349C130.681 272.268 128.547 263.986 120.754 256.541C117.569 253.503 114.239 251.351 111.423 249.852C111.415 251.015 111.407 252.178 111.399 253.341C107.597 250.707 101.052 247.013 92.0771 245.753C89.8331 245.438 87.7211 245.313 85.8001 245.312C86.8981 246.341 87.9991 247.361 89.0971 248.39C87.4261 248.085 85.6801 247.825 83.8671 247.622C72.9211 246.387 63.1941 247.549 55.5371 249.278Z" fill="url(#paint5_linear_4385_298462)"/>
<path d="M153.524 232.219C152.153 233.566 150.71 235.216 149.454 237.182C145.978 242.609 145.759 247.543 145.976 250.431C145.054 249.687 144.134 248.949 143.212 248.205C142.882 249.869 142.675 251.862 142.838 254.078C143.108 257.861 144.329 260.906 145.491 263.064C143.951 262.635 142.419 262.204 140.888 261.779C141.091 263.698 141.619 266.006 142.863 268.47C146.175 275.045 152.555 278.768 155.933 280.434C159.278 278.664 165.818 274.699 169.667 268.126C171.236 265.442 171.976 262.99 172.32 261.029C171.295 261.428 170.271 261.828 169.246 262.227C170.247 259.367 171.232 254.735 169.239 249.703C168.741 248.445 168.121 247.32 167.458 246.337C166.934 247.256 166.417 248.173 165.893 249.092C165.584 248.131 165.209 247.147 164.762 246.148C162.068 240.116 157.687 235.54 153.524 232.219Z" fill="#8FC25F"/>
<path d="M153.524 232.219C152.153 233.566 150.71 235.216 149.454 237.182C145.978 242.609 145.759 247.543 145.976 250.431C145.054 249.687 144.134 248.949 143.212 248.205C142.882 249.869 142.675 251.862 142.838 254.078C143.108 257.861 144.329 260.906 145.491 263.064C143.951 262.635 142.419 262.204 140.888 261.779C141.091 263.698 141.619 266.006 142.863 268.47C146.175 275.045 152.555 278.768 155.933 280.434C156.995 273.05 157.574 264.52 157.035 255.124C156.535 246.547 155.192 238.873 153.524 232.219Z" fill="url(#paint6_linear_4385_298462)"/>
<path d="M153.524 232.219C152.153 233.566 150.71 235.216 149.454 237.182C145.978 242.609 145.759 247.543 145.976 250.431C145.054 249.687 144.134 248.949 143.212 248.205C142.882 249.869 142.675 251.862 142.838 254.078C143.108 257.861 144.329 260.906 145.491 263.064C143.951 262.635 142.419 262.204 140.888 261.779C141.091 263.698 141.619 266.006 142.863 268.47C146.175 275.045 152.555 278.768 155.933 280.434C159.278 278.664 165.818 274.699 169.667 268.126C171.236 265.442 171.976 262.99 172.32 261.029C171.295 261.428 170.271 261.828 169.246 262.227C170.247 259.367 171.232 254.735 169.239 249.703C168.741 248.445 168.121 247.32 167.458 246.337C166.934 247.256 166.417 248.173 165.893 249.092C165.584 248.131 165.209 247.147 164.762 246.148C162.068 240.116 157.687 235.54 153.524 232.219Z" fill="url(#paint7_linear_4385_298462)"/>
<path d="M192.054 264.14C190.954 265.221 189.796 266.545 188.788 268.122C185.998 272.477 185.823 276.437 185.997 278.755C185.257 278.158 184.519 277.566 183.779 276.969C183.514 278.305 183.348 279.904 183.479 281.682C183.696 284.718 184.675 287.161 185.608 288.893C184.372 288.549 183.143 288.203 181.914 287.862C182.077 289.402 182.501 291.254 183.499 293.232C186.157 298.508 191.277 301.496 193.987 302.833C196.672 301.412 201.92 298.23 205.008 292.956C206.267 290.802 206.861 288.835 207.137 287.261C206.315 287.581 205.492 287.902 204.67 288.222C205.473 285.927 206.264 282.21 204.664 278.172C204.264 277.162 203.767 276.26 203.235 275.471C202.814 276.208 202.4 276.945 201.979 277.682C201.731 276.911 201.43 276.121 201.071 275.32C198.91 270.478 195.394 266.805 192.054 264.14Z" fill="#8FC25F"/>
<path d="M192.054 264.14C190.954 265.221 189.796 266.545 188.788 268.122C185.998 272.477 185.823 276.437 185.997 278.755C185.257 278.158 184.519 277.566 183.779 276.969C183.514 278.305 183.348 279.904 183.479 281.682C183.696 284.718 184.675 287.161 185.608 288.893C184.372 288.549 183.143 288.203 181.914 287.862C182.077 289.402 182.501 291.254 183.499 293.232C186.157 298.508 191.277 301.496 193.987 302.833C194.839 296.908 195.304 290.062 194.871 282.522C194.47 275.638 193.392 269.48 192.054 264.14Z" fill="url(#paint8_linear_4385_298462)"/>
<path d="M192.054 264.14C190.954 265.221 189.796 266.545 188.788 268.122C185.998 272.477 185.823 276.437 185.997 278.755C185.257 278.158 184.519 277.566 183.779 276.969C183.514 278.305 183.348 279.904 183.479 281.682C183.696 284.718 184.675 287.161 185.608 288.893C184.372 288.549 183.143 288.203 181.914 287.862C182.077 289.402 182.501 291.254 183.499 293.232C186.157 298.508 191.277 301.496 193.987 302.833C196.672 301.412 201.92 298.23 205.008 292.956C206.267 290.802 206.861 288.835 207.137 287.261C206.315 287.581 205.492 287.902 204.67 288.222C205.473 285.927 206.264 282.21 204.664 278.172C204.264 277.162 203.767 276.26 203.235 275.471C202.814 276.208 202.4 276.945 201.979 277.682C201.731 276.911 201.43 276.121 201.071 275.32C198.91 270.478 195.394 266.805 192.054 264.14Z" fill="url(#paint9_linear_4385_298462)"/>
<path d="M92.6562 328.058C95.5812 328.672 98.9712 329.174 102.636 329.288C112.761 329.609 119.589 326.812 123.305 324.811C123.048 326.236 122.798 327.655 122.541 329.08C125.051 328.405 127.904 327.4 130.758 325.869C135.638 323.264 138.755 320.114 140.723 317.57C141.39 319.451 142.049 321.324 142.713 323.193C145.136 321.802 147.818 319.831 150.134 317.013C156.317 309.5 156.174 300.515 155.688 295.945C150.597 293.518 139.964 289.082 127.993 289.072C123.107 289.071 119.203 289.798 116.282 290.64C117.649 291.471 119.016 292.302 120.383 293.134C115.719 293.838 108.679 295.645 103.51 300.826C102.218 302.121 101.203 303.462 100.413 304.762C102.076 304.749 103.729 304.728 105.392 304.715C104.346 305.63 103.324 306.627 102.34 307.71C96.3902 314.24 93.7652 321.649 92.6562 328.058Z" fill="#8FC25F"/>
<path d="M92.6562 328.058C95.5812 328.672 98.9712 329.174 102.636 329.288C112.761 329.609 119.589 326.812 123.305 324.811C123.048 326.236 122.798 327.655 122.541 329.08C125.051 328.405 127.904 327.4 130.758 325.869C135.638 323.264 138.755 320.114 140.723 317.57C141.39 319.451 142.049 321.324 142.713 323.193C145.136 321.802 147.818 319.831 150.134 317.013C156.317 309.5 156.174 300.515 155.688 295.945C144.878 299.36 132.912 303.986 120.685 310.317C109.532 316.105 100.275 322.224 92.6562 328.058Z" fill="url(#paint10_linear_4385_298462)"/>
<path d="M92.6562 328.058C95.5812 328.672 98.9712 329.174 102.636 329.288C112.761 329.609 119.589 326.812 123.305 324.811C123.048 326.236 122.798 327.655 122.541 329.08C125.051 328.405 127.904 327.4 130.758 325.869C135.638 323.264 138.755 320.114 140.723 317.57C141.39 319.451 142.049 321.324 142.713 323.193C145.136 321.802 147.818 319.831 150.134 317.013C156.317 309.5 156.174 300.515 155.688 295.945C150.597 293.518 139.964 289.082 127.993 289.072C123.107 289.071 119.203 289.798 116.282 290.64C117.649 291.471 119.016 292.302 120.383 293.134C115.719 293.838 108.679 295.645 103.51 300.826C102.218 302.121 101.203 303.462 100.413 304.762C102.076 304.749 103.729 304.728 105.392 304.715C104.346 305.63 103.324 306.627 102.34 307.71C96.3902 314.24 93.7652 321.649 92.6562 328.058Z" fill="url(#paint11_linear_4385_298462)"/>
<path d="M146.204 344.208C147.853 344.554 149.764 344.837 151.83 344.901C157.537 345.082 161.386 343.505 163.481 342.377C163.336 343.18 163.195 343.98 163.05 344.784C164.465 344.404 166.073 343.837 167.682 342.974C170.433 341.506 172.19 339.73 173.299 338.296C173.675 339.356 174.046 340.412 174.421 341.466C175.787 340.682 177.299 339.571 178.604 337.982C182.089 333.747 182.009 328.682 181.735 326.106C178.865 324.738 172.871 322.237 166.124 322.232C163.37 322.231 161.169 322.641 159.523 323.116C160.293 323.585 161.064 324.053 161.834 324.522C159.205 324.919 155.237 325.937 152.323 328.858C151.594 329.588 151.023 330.344 150.577 331.077C151.514 331.07 152.446 331.058 153.384 331.051C152.795 331.567 152.218 332.129 151.663 332.739C148.309 336.418 146.829 340.595 146.204 344.208Z" fill="#8FC25F"/>
<path d="M146.204 344.208C147.853 344.554 149.764 344.837 151.83 344.901C157.537 345.082 161.386 343.505 163.481 342.377C163.336 343.18 163.195 343.98 163.05 344.784C164.465 344.404 166.073 343.837 167.682 342.974C170.433 341.506 172.19 339.73 173.299 338.296C173.675 339.356 174.046 340.412 174.421 341.466C175.787 340.682 177.299 339.571 178.604 337.982C182.089 333.747 182.009 328.682 181.735 326.106C175.641 328.031 168.896 330.639 162.004 334.208C155.717 337.469 150.499 340.919 146.204 344.208Z" fill="url(#paint12_linear_4385_298462)"/>
<path d="M146.204 344.208C147.853 344.554 149.764 344.837 151.83 344.901C157.537 345.082 161.386 343.505 163.481 342.377C163.336 343.18 163.195 343.98 163.05 344.784C164.465 344.404 166.073 343.837 167.682 342.974C170.433 341.506 172.19 339.73 173.299 338.296C173.675 339.356 174.046 340.412 174.421 341.466C175.787 340.682 177.299 339.571 178.604 337.982C182.089 333.747 182.009 328.682 181.735 326.106C178.865 324.738 172.871 322.237 166.124 322.232C163.37 322.231 161.169 322.641 159.523 323.116C160.293 323.585 161.064 324.053 161.834 324.522C159.205 324.919 155.237 325.937 152.323 328.858C151.594 329.588 151.023 330.344 150.577 331.077C151.514 331.07 152.446 331.058 153.384 331.051C152.795 331.567 152.218 332.129 151.663 332.739C148.309 336.418 146.829 340.595 146.204 344.208Z" fill="url(#paint13_linear_4385_298462)"/>
<defs>
<linearGradient id="paint0_linear_4385_298462" x1="163.026" y1="300.278" x2="160.264" y2="293.738" gradientUnits="userSpaceOnUse">
<stop stop-color="#2C7C61"/>
<stop offset="1" stop-color="#2C7C61" stop-opacity="0"/>
</linearGradient>
<linearGradient id="paint1_linear_4385_298462" x1="199.723" y1="309.131" x2="191.718" y2="304.786" gradientUnits="userSpaceOnUse">
<stop stop-color="#2C7C61"/>
<stop offset="1" stop-color="#2C7C61" stop-opacity="0"/>
</linearGradient>
<linearGradient id="paint2_linear_4385_298462" x1="192.959" y1="333.569" x2="190.802" y2="323.822" gradientUnits="userSpaceOnUse">
<stop stop-color="#2C7C61"/>
<stop offset="1" stop-color="#2C7C61" stop-opacity="0"/>
</linearGradient>
<linearGradient id="paint3_linear_4385_298462" x1="160.591" y1="283.691" x2="154.726" y2="282.308" gradientUnits="userSpaceOnUse">
<stop stop-color="#2C7C61"/>
<stop offset="1" stop-color="#2C7C61" stop-opacity="0"/>
</linearGradient>
<linearGradient id="paint4_linear_4385_298462" x1="120.647" y1="243.518" x2="63.6679" y2="284.011" gradientUnits="userSpaceOnUse">
<stop stop-color="#2C7C61"/>
<stop offset="1" stop-color="#2C7C61" stop-opacity="0"/>
</linearGradient>
<linearGradient id="paint5_linear_4385_298462" x1="67.72" y1="217.823" x2="100.901" y2="272.773" gradientUnits="userSpaceOnUse">
<stop stop-color="#DEDD1C"/>
<stop offset="1" stop-color="#D8DB1F" stop-opacity="0"/>
</linearGradient>
<linearGradient id="paint6_linear_4385_298462" x1="173.644" y1="264.278" x2="137.121" y2="241.223" gradientUnits="userSpaceOnUse">
<stop stop-color="#2C7C61"/>
<stop offset="1" stop-color="#2C7C61" stop-opacity="0"/>
</linearGradient>
<linearGradient id="paint7_linear_4385_298462" x1="177.32" y1="228.754" x2="157.837" y2="267.264" gradientUnits="userSpaceOnUse">
<stop stop-color="#DEDD1C"/>
<stop offset="1" stop-color="#D8DB1F" stop-opacity="0"/>
</linearGradient>
<linearGradient id="paint8_linear_4385_298462" x1="208.196" y1="289.874" x2="178.886" y2="271.373" gradientUnits="userSpaceOnUse">
<stop stop-color="#2C7C61"/>
<stop offset="1" stop-color="#2C7C61" stop-opacity="0"/>
</linearGradient>
<linearGradient id="paint9_linear_4385_298462" x1="211.145" y1="261.366" x2="195.51" y2="292.27" gradientUnits="userSpaceOnUse">
<stop stop-color="#DEDD1C"/>
<stop offset="1" stop-color="#D8DB1F" stop-opacity="0"/>
</linearGradient>
<linearGradient id="paint10_linear_4385_298462" x1="117.791" y1="283.165" x2="111.522" y2="341.722" gradientUnits="userSpaceOnUse">
<stop stop-color="#2C7C61"/>
<stop offset="1" stop-color="#2C7C61" stop-opacity="0"/>
</linearGradient>
<linearGradient id="paint11_linear_4385_298462" x1="66.0106" y1="300.142" x2="134.311" y2="289.813" gradientUnits="userSpaceOnUse">
<stop stop-color="#DEDD1C"/>
<stop offset="1" stop-color="#D8DB1F" stop-opacity="0"/>
</linearGradient>
<linearGradient id="paint12_linear_4385_298462" x1="160.394" y1="318.897" x2="156.86" y2="351.905" gradientUnits="userSpaceOnUse">
<stop stop-color="#2C7C61"/>
<stop offset="1" stop-color="#2C7C61" stop-opacity="0"/>
</linearGradient>
<linearGradient id="paint13_linear_4385_298462" x1="131.206" y1="328.466" x2="169.706" y2="322.644" gradientUnits="userSpaceOnUse">
<stop stop-color="#DEDD1C"/>
<stop offset="1" stop-color="#D8DB1F" stop-opacity="0"/>
</linearGradient>
</defs>
</svg>
