<svg width="456" height="790" viewBox="0 0 456 790" fill="none" xmlns="http://www.w3.org/2000/svg">
<path d="M294.314 345.128C294.415 344.979 291.133 342.622 286.207 341.521C283.629 340.945 281.367 340.884 279.765 340.942C278.958 341.318 278.152 341.694 277.345 342.069C279.011 341.83 281.155 341.676 283.617 341.886C290.004 342.432 294.201 345.296 294.314 345.128Z" fill="#8FC25F"/>
<path d="M294.314 345.128C294.415 344.979 291.133 342.622 286.207 341.521C283.629 340.945 281.367 340.884 279.765 340.942C278.958 341.318 278.152 341.694 277.345 342.069C279.011 341.83 281.155 341.676 283.617 341.886C290.004 342.432 294.201 345.296 294.314 345.128Z" fill="url(#paint0_linear_4385_299518)"/>
<path d="M251.724 335.938C252.029 335.899 254.209 341.048 253.401 347.463C252.978 350.821 251.862 353.528 250.901 355.389C249.837 356.14 248.772 356.891 247.708 357.642C249.006 355.801 250.419 353.35 251.394 350.327C253.922 342.486 251.383 335.982 251.724 335.938Z" fill="#8FC25F"/>
<path d="M251.724 335.938C252.029 335.899 254.209 341.048 253.401 347.463C252.978 350.821 251.862 353.528 250.901 355.389C249.837 356.14 248.772 356.891 247.708 357.642C249.006 355.801 250.419 353.35 251.394 350.327C253.922 342.486 251.383 335.982 251.724 335.938Z" fill="url(#paint1_linear_4385_299518)"/>
<path d="M260.779 369.005C260.881 368.76 255.251 366.02 247.593 365.515C243.585 365.251 240.212 365.678 237.858 366.132C236.784 366.874 235.71 367.615 234.637 368.357C237.029 367.621 240.156 366.902 243.873 366.65C253.515 365.995 260.665 369.279 260.779 369.005Z" fill="#8FC25F"/>
<path d="M260.779 369.005C260.881 368.76 255.251 366.02 247.593 365.515C243.585 365.251 240.212 365.678 237.858 366.132C236.784 366.874 235.71 367.615 234.637 368.357C237.029 367.621 240.156 366.902 243.873 366.65C253.515 365.995 260.665 369.279 260.779 369.005Z" fill="url(#paint2_linear_4385_299518)"/>
<path d="M296.642 324.708C296.826 324.725 297.122 327.993 295.452 331.598C294.578 333.485 293.425 334.903 292.52 335.853C291.763 336.147 291.007 336.441 290.25 336.735C291.346 335.842 292.623 334.611 293.753 332.99C296.686 328.787 296.436 324.689 296.642 324.708Z" fill="#8FC25F"/>
<path d="M296.642 324.708C296.826 324.725 297.122 327.993 295.452 331.598C294.578 333.485 293.425 334.903 292.52 335.853C291.763 336.147 291.007 336.441 290.25 336.735C291.346 335.842 292.623 334.611 293.753 332.99C296.686 328.787 296.436 324.689 296.642 324.708Z" fill="url(#paint3_linear_4385_299518)"/>
<path d="M402.139 317.593C400.369 319.348 398.119 321.263 395.279 323.086C387.439 328.125 379.289 329.788 374.399 330.418C375.959 331.115 377.509 331.812 379.069 332.509C376.409 333.324 373.159 334.113 369.409 334.6C363.009 335.44 357.509 335.121 353.509 334.6C354.759 336.003 356.009 337.397 357.249 338.791C353.979 339.152 349.949 339.303 345.409 338.791C333.299 337.431 324.879 332.19 320.929 329.326C322.719 325.488 327.059 317.837 336.679 312.093C340.609 309.75 344.439 308.297 347.589 307.382C347.279 308.516 346.969 309.65 346.659 310.783C351.079 308.952 358.459 306.617 367.539 307.121C369.809 307.247 371.899 307.532 373.769 307.902C372.419 308.691 371.069 309.472 369.719 310.262C371.429 310.287 373.199 310.371 375.019 310.522C386.009 311.429 395.159 314.435 402.139 317.593Z" fill="#8FC25F"/>
<path d="M402.139 317.593C400.369 319.348 398.119 321.263 395.279 323.086C387.439 328.125 379.289 329.788 374.399 330.418C375.959 331.115 377.509 331.812 379.069 332.509C376.409 333.324 373.159 334.113 369.409 334.6C363.009 335.44 357.509 335.121 353.509 334.6C354.759 336.003 356.009 337.397 357.249 338.791C353.979 339.152 349.949 339.303 345.409 338.791C333.299 337.431 324.879 332.19 320.929 329.326C332.869 326.109 346.889 323.036 362.739 320.818C377.209 318.803 390.469 317.887 402.139 317.593Z" fill="url(#paint4_linear_4385_299518)"/>
<path d="M402.139 317.593C400.369 319.348 398.119 321.263 395.279 323.086C387.439 328.125 379.289 329.788 374.399 330.418C375.959 331.115 377.509 331.812 379.069 332.509C376.409 333.324 373.159 334.113 369.409 334.6C363.009 335.44 357.509 335.121 353.509 334.6C354.759 336.003 356.009 337.397 357.249 338.791C353.979 339.152 349.949 339.303 345.409 338.791C333.299 337.431 324.879 332.19 320.929 329.326C322.719 325.488 327.059 317.837 336.679 312.093C340.609 309.75 344.439 308.297 347.589 307.382C347.279 308.516 346.969 309.65 346.659 310.783C351.079 308.952 358.459 306.617 367.539 307.121C369.809 307.247 371.899 307.532 373.769 307.902C372.419 308.691 371.069 309.472 369.719 310.262C371.429 310.287 373.199 310.371 375.019 310.522C386.009 311.429 395.159 314.435 402.139 317.593Z" fill="url(#paint5_linear_4385_299518)"/>
<path d="M311.429 282.103C312.395 283.679 313.349 285.563 314.034 287.718C315.934 293.67 314.799 298.515 313.798 301.284C314.899 300.738 315.996 300.197 317.097 299.65C316.963 301.333 316.62 303.313 315.856 305.438C314.559 309.068 312.539 311.797 310.819 313.673C312.435 313.552 314.044 313.428 315.65 313.309C314.928 315.138 313.783 317.282 311.899 319.441C306.879 325.202 299.651 327.595 295.908 328.566C293.136 326.198 287.854 321.078 285.904 313.94C285.11 311.025 285.06 308.496 285.261 306.521C286.149 307.107 287.037 307.693 287.926 308.279C287.733 305.303 288.04 300.604 291.355 296.091C292.184 294.963 293.094 293.987 294.008 293.158C294.267 294.154 294.519 295.146 294.778 296.141C295.342 295.265 295.976 294.38 296.684 293.494C300.956 288.142 306.471 284.532 311.429 282.103Z" fill="#8FC25F"/>
<path d="M311.429 282.103C312.395 283.679 313.349 285.563 314.034 287.718C315.934 293.67 314.799 298.515 313.798 301.284C314.899 300.738 315.996 300.197 317.097 299.65C316.963 301.333 316.62 303.313 315.856 305.438C314.559 309.068 312.539 311.797 310.819 313.673C312.435 313.552 314.044 313.428 315.65 313.309C314.928 315.138 313.783 317.282 311.899 319.441C306.879 325.202 299.651 327.595 295.908 328.566C296.892 321.175 298.66 312.76 301.752 303.719C304.583 295.468 307.988 288.257 311.429 282.103Z" fill="url(#paint6_linear_4385_299518)"/>
<path d="M311.429 282.103C312.395 283.679 313.349 285.563 314.034 287.718C315.934 293.67 314.799 298.515 313.798 301.284C314.899 300.738 315.996 300.197 317.097 299.65C316.963 301.333 316.62 303.313 315.856 305.438C314.559 309.068 312.539 311.797 310.819 313.673C312.435 313.552 314.044 313.428 315.65 313.309C314.928 315.138 313.783 317.282 311.899 319.441C306.879 325.202 299.651 327.595 295.908 328.566C293.136 326.198 287.854 321.078 285.904 313.94C285.11 311.025 285.06 308.496 285.261 306.521C286.149 307.107 287.037 307.693 287.926 308.279C287.733 305.303 288.04 300.604 291.355 296.091C292.184 294.963 293.094 293.987 294.008 293.158C294.267 294.154 294.519 295.146 294.778 296.141C295.342 295.265 295.976 294.38 296.684 293.494C300.956 288.142 306.471 284.532 311.429 282.103Z" fill="url(#paint7_linear_4385_299518)"/>
<path d="M265.205 305.745C265.981 307.009 266.745 308.521 267.296 310.251C268.821 315.027 267.91 318.915 267.106 321.138C267.989 320.7 268.87 320.266 269.753 319.827C269.646 321.178 269.37 322.766 268.757 324.472C267.716 327.385 266.095 329.575 264.714 331.08C266.011 330.983 267.302 330.883 268.591 330.788C268.012 332.256 267.093 333.976 265.581 335.709C261.552 340.332 255.753 342.253 252.749 343.032C250.524 341.132 246.286 337.023 244.721 331.295C244.084 328.956 244.044 326.926 244.205 325.341C244.918 325.811 245.631 326.282 246.343 326.752C246.188 324.364 246.435 320.593 249.095 316.971C249.76 316.066 250.491 315.283 251.224 314.617C251.432 315.416 251.634 316.212 251.842 317.011C252.294 316.308 252.803 315.598 253.371 314.887C256.8 310.591 261.225 307.694 265.205 305.745Z" fill="#8FC25F"/>
<path d="M265.205 305.745C265.981 307.009 266.745 308.521 267.296 310.251C268.821 315.027 267.91 318.915 267.106 321.138C267.989 320.7 268.87 320.266 269.753 319.827C269.646 321.178 269.37 322.766 268.757 324.472C267.716 327.385 266.095 329.575 264.714 331.08C266.011 330.983 267.302 330.883 268.591 330.788C268.012 332.256 267.093 333.976 265.581 335.709C261.552 340.332 255.753 342.253 252.749 343.032C253.539 337.101 254.957 330.348 257.439 323.093C259.711 316.47 262.443 310.683 265.205 305.745Z" fill="url(#paint8_linear_4385_299518)"/>
<path d="M265.205 305.745C265.981 307.009 266.745 308.521 267.296 310.251C268.821 315.027 267.91 318.915 267.106 321.138C267.989 320.7 268.87 320.266 269.753 319.827C269.646 321.178 269.37 322.766 268.757 324.472C267.716 327.385 266.095 329.575 264.714 331.08C266.011 330.983 267.302 330.883 268.591 330.788C268.012 332.256 267.093 333.976 265.581 335.709C261.552 340.332 255.753 342.253 252.749 343.032C250.524 341.132 246.286 337.023 244.721 331.295C244.084 328.956 244.044 326.926 244.205 325.341C244.918 325.811 245.631 326.282 246.343 326.752C246.188 324.364 246.435 320.593 249.095 316.971C249.76 316.066 250.491 315.283 251.224 314.617C251.432 315.416 251.634 316.212 251.842 317.011C252.294 316.308 252.803 315.598 253.371 314.887C256.8 310.591 261.225 307.694 265.205 305.745Z" fill="url(#paint9_linear_4385_299518)"/>
<path d="M344.481 387.116C341.467 387.149 338.029 386.985 334.431 386.389C324.488 384.75 318.607 380.711 315.537 378.047C315.398 379.483 315.253 380.913 315.114 382.35C312.856 381.209 310.353 379.681 307.994 377.641C303.956 374.165 301.784 370.498 300.563 367.642C299.4 369.344 298.247 371.041 297.089 372.731C295.111 370.911 293.039 368.475 291.555 365.285C287.59 356.781 290.185 348.063 291.907 343.709C297.526 342.328 309.087 340.06 320.741 342.358C325.497 343.299 329.098 344.758 331.71 346.142C330.153 346.688 328.595 347.233 327.037 347.779C331.384 349.363 337.742 352.479 341.358 358.518C342.262 360.028 342.883 361.529 343.296 362.946C341.681 362.613 340.077 362.274 338.463 361.941C339.231 363.033 339.953 364.201 340.616 365.444C344.623 372.946 345.153 380.664 344.481 387.116Z" fill="#8FC25F"/>
<path d="M344.481 387.116C341.467 387.149 338.029 386.985 334.431 386.389C324.488 384.75 318.607 380.711 315.537 378.047C315.398 379.483 315.253 380.913 315.114 382.35C312.856 381.209 310.353 379.681 307.994 377.641C303.956 374.165 301.784 370.498 300.563 367.642C299.4 369.344 298.247 371.041 297.089 372.731C295.111 370.911 293.039 368.475 291.555 365.285C287.59 356.781 290.185 348.063 291.907 343.709C301.495 349.117 311.877 355.925 322.048 364.445C331.322 372.229 338.66 379.969 344.481 387.116Z" fill="url(#paint10_linear_4385_299518)"/>
<path d="M344.481 387.116C341.467 387.149 338.029 386.985 334.431 386.389C324.488 384.75 318.607 380.711 315.537 378.047C315.398 379.483 315.253 380.913 315.114 382.35C312.856 381.209 310.353 379.681 307.994 377.641C303.956 374.165 301.784 370.498 300.563 367.642C299.4 369.344 298.247 371.041 297.089 372.731C295.111 370.911 293.039 368.475 291.555 365.285C287.59 356.781 290.185 348.063 291.907 343.709C297.526 342.328 309.087 340.06 320.741 342.358C325.497 343.299 329.098 344.758 331.71 346.142C330.153 346.688 328.595 347.233 327.037 347.779C331.384 349.363 337.742 352.479 341.358 358.518C342.262 360.028 342.883 361.529 343.296 362.946C341.681 362.613 340.077 362.274 338.463 361.941C339.231 363.033 339.953 364.201 340.616 365.444C344.623 372.946 345.153 380.664 344.481 387.116Z" fill="url(#paint11_linear_4385_299518)"/>
<path d="M287.949 392.512C286.25 392.531 284.312 392.438 282.284 392.102C276.679 391.178 273.364 388.901 271.634 387.4C271.555 388.21 271.474 389.016 271.396 389.825C270.123 389.182 268.712 388.321 267.382 387.171C265.106 385.212 263.881 383.144 263.193 381.535C262.537 382.494 261.887 383.451 261.235 384.404C260.12 383.378 258.952 382.005 258.116 380.207C255.881 375.413 257.344 370.499 258.314 368.045C261.481 367.266 267.998 365.988 274.567 367.283C277.248 367.813 279.278 368.636 280.75 369.416C279.872 369.724 278.994 370.031 278.116 370.339C280.566 371.232 284.15 372.988 286.189 376.392C286.699 377.243 287.049 378.089 287.282 378.888C286.372 378.7 285.468 378.509 284.558 378.321C284.991 378.936 285.398 379.595 285.771 380.296C288.029 384.525 288.328 388.875 287.949 392.512Z" fill="#8FC25F"/>
<path d="M287.949 392.512C286.25 392.531 284.312 392.438 282.284 392.102C276.679 391.178 273.364 388.901 271.634 387.4C271.555 388.21 271.474 389.016 271.396 389.825C270.123 389.182 268.712 388.321 267.382 387.171C265.106 385.212 263.881 383.144 263.193 381.535C262.537 382.494 261.887 383.451 261.235 384.404C260.12 383.378 258.952 382.005 258.116 380.207C255.881 375.413 257.344 370.499 258.314 368.045C263.719 371.093 269.571 374.931 275.304 379.734C280.532 384.12 284.668 388.484 287.949 392.512Z" fill="url(#paint12_linear_4385_299518)"/>
<path d="M287.949 392.512C286.25 392.531 284.312 392.438 282.284 392.102C276.679 391.178 273.364 388.901 271.634 387.4C271.555 388.21 271.474 389.016 271.396 389.825C270.123 389.182 268.712 388.321 267.382 387.171C265.106 385.212 263.881 383.144 263.193 381.535C262.537 382.494 261.887 383.451 261.235 384.404C260.12 383.378 258.952 382.005 258.116 380.207C255.881 375.413 257.344 370.499 258.314 368.045C261.481 367.266 267.998 365.988 274.567 367.283C277.248 367.813 279.278 368.636 280.75 369.416C279.872 369.724 278.994 370.031 278.116 370.339C280.566 371.232 284.15 372.988 286.189 376.392C286.699 377.243 287.049 378.089 287.282 378.888C286.372 378.7 285.468 378.509 284.558 378.321C284.991 378.936 285.398 379.595 285.771 380.296C288.029 384.525 288.328 388.875 287.949 392.512Z" fill="url(#paint13_linear_4385_299518)"/>
<defs>
<linearGradient id="paint0_linear_4385_299518" x1="283.643" y1="346.659" x2="288.136" y2="340.513" gradientUnits="userSpaceOnUse">
<stop stop-color="#2C7C61"/>
<stop offset="1" stop-color="#2C7C61" stop-opacity="0"/>
</linearGradient>
<linearGradient id="paint1_linear_4385_299518" x1="245.065" y1="348.051" x2="254.64" y2="345.446" gradientUnits="userSpaceOnUse">
<stop stop-color="#2C7C61"/>
<stop offset="1" stop-color="#2C7C61" stop-opacity="0"/>
</linearGradient>
<linearGradient id="paint2_linear_4385_299518" x1="245.383" y1="373.597" x2="250.11" y2="363.795" gradientUnits="userSpaceOnUse">
<stop stop-color="#2C7C61"/>
<stop offset="1" stop-color="#2C7C61" stop-opacity="0"/>
</linearGradient>
<linearGradient id="paint3_linear_4385_299518" x1="290.251" y1="330.722" x2="296.787" y2="330.722" gradientUnits="userSpaceOnUse">
<stop stop-color="#2C7C61"/>
<stop offset="1" stop-color="#2C7C61" stop-opacity="0"/>
</linearGradient>
<linearGradient id="paint4_linear_4385_299518" x1="340.144" y1="299.139" x2="384.978" y2="350.114" gradientUnits="userSpaceOnUse">
<stop stop-color="#2C7C61"/>
<stop offset="1" stop-color="#2C7C61" stop-opacity="0"/>
</linearGradient>
<linearGradient id="paint5_linear_4385_299518" x1="398.662" y1="283.979" x2="351.724" y2="331.922" gradientUnits="userSpaceOnUse">
<stop stop-color="#DEDD1C"/>
<stop offset="1" stop-color="#D8DB1F" stop-opacity="0"/>
</linearGradient>
<linearGradient id="paint6_linear_4385_299518" x1="281.983" y1="308.899" x2="325.502" y2="293.922" gradientUnits="userSpaceOnUse">
<stop stop-color="#2C7C61"/>
<stop offset="1" stop-color="#2C7C61" stop-opacity="0"/>
</linearGradient>
<linearGradient id="paint7_linear_4385_299518" x1="288.19" y1="273.543" x2="298.219" y2="315.085" gradientUnits="userSpaceOnUse">
<stop stop-color="#DEDD1C"/>
<stop offset="1" stop-color="#D8DB1F" stop-opacity="0"/>
</linearGradient>
<linearGradient id="paint8_linear_4385_299518" x1="241.574" y1="327.247" x2="276.497" y2="315.228" gradientUnits="userSpaceOnUse">
<stop stop-color="#2C7C61"/>
<stop offset="1" stop-color="#2C7C61" stop-opacity="0"/>
</linearGradient>
<linearGradient id="paint9_linear_4385_299518" x1="246.555" y1="298.874" x2="254.602" y2="332.211" gradientUnits="userSpaceOnUse">
<stop stop-color="#DEDD1C"/>
<stop offset="1" stop-color="#D8DB1F" stop-opacity="0"/>
</linearGradient>
<linearGradient id="paint10_linear_4385_299518" x1="330.431" y1="340.218" x2="323.439" y2="395.855" gradientUnits="userSpaceOnUse">
<stop stop-color="#2C7C61"/>
<stop offset="1" stop-color="#2C7C61" stop-opacity="0"/>
</linearGradient>
<linearGradient id="paint11_linear_4385_299518" x1="375.835" y1="366.827" x2="313.792" y2="341.931" gradientUnits="userSpaceOnUse">
<stop stop-color="#DEDD1C"/>
<stop offset="1" stop-color="#D8DB1F" stop-opacity="0"/>
</linearGradient>
<linearGradient id="paint12_linear_4385_299518" x1="280.049" y1="366.066" x2="276.107" y2="397.427" gradientUnits="userSpaceOnUse">
<stop stop-color="#2C7C61"/>
<stop offset="1" stop-color="#2C7C61" stop-opacity="0"/>
</linearGradient>
<linearGradient id="paint13_linear_4385_299518" x1="305.642" y1="381.065" x2="270.67" y2="367.031" gradientUnits="userSpaceOnUse">
<stop stop-color="#DEDD1C"/>
<stop offset="1" stop-color="#D8DB1F" stop-opacity="0"/>
</linearGradient>
</defs>
</svg>
