<svg width="456" height="790" viewBox="0 0 456 790" fill="none" xmlns="http://www.w3.org/2000/svg">
<path d="M145.776 380.144C145.607 380.183 145.59 382.855 147.42 385.537C148.378 386.941 149.557 387.929 150.469 388.574C151.193 388.71 151.916 388.845 152.64 388.981C151.555 388.408 150.276 387.586 149.102 386.432C146.056 383.437 145.965 380.101 145.776 380.144Z" fill="#8FC25F"/>
<path d="M145.776 380.144C145.607 380.183 145.59 382.855 147.42 385.537C148.378 386.941 149.557 387.929 150.469 388.574C151.193 388.71 151.916 388.845 152.64 388.981C151.555 388.408 150.276 387.586 149.102 386.432C146.056 383.437 145.965 380.101 145.776 380.144Z" fill="url(#paint0_linear_4385_300574)"/>
<path d="M144.744 397.828C144.623 397.767 145.806 395.083 148.507 392.631C149.921 391.348 151.33 390.509 152.366 389.981C153.02 389.939 153.674 389.898 154.327 389.856C153.181 390.29 151.765 390.947 150.285 391.952C146.449 394.56 144.88 397.896 144.744 397.828Z" fill="#8FC25F"/>
<path d="M144.744 397.828C144.623 397.767 145.806 395.083 148.507 392.631C149.921 391.348 151.33 390.509 152.366 389.981C153.02 389.939 153.674 389.898 154.327 389.856C153.181 390.29 151.765 390.947 150.285 391.952C146.449 394.56 144.88 397.896 144.744 397.828Z" fill="url(#paint1_linear_4385_300574)"/>
<path d="M167.044 355.505C166.402 356.769 165.768 358.281 165.312 360.011C164.049 364.787 164.804 368.676 165.469 370.898C164.737 370.46 164.008 370.025 163.276 369.587C163.365 370.938 163.593 372.527 164.101 374.232C164.963 377.145 166.306 379.335 167.449 380.84C166.375 380.743 165.305 380.644 164.238 380.548C164.718 382.016 165.479 383.736 166.731 385.469C170.068 390.092 174.872 392.013 177.359 392.792C179.202 390.892 182.712 386.783 184.008 381.055C184.535 378.716 184.569 376.686 184.435 375.101C183.845 375.571 183.254 376.042 182.664 376.512C182.792 374.123 182.588 370.353 180.385 366.731C179.834 365.825 179.229 365.043 178.621 364.377C178.449 365.176 178.281 365.972 178.109 366.771C177.734 366.068 177.313 365.358 176.842 364.647C174.006 360.351 170.34 357.454 167.044 355.505Z" fill="#8FC25F"/>
<path d="M167.044 355.505C166.402 356.769 165.768 358.281 165.312 360.011C164.049 364.787 164.804 368.676 165.469 370.898C164.737 370.46 164.008 370.025 163.276 369.587C163.365 370.938 163.593 372.527 164.101 374.232C164.963 377.145 166.306 379.335 167.449 380.84C166.375 380.743 165.305 380.644 164.238 380.548C164.718 382.016 165.479 383.736 166.731 385.469C170.068 390.092 174.872 392.013 177.359 392.792C176.705 386.861 175.53 380.108 173.475 372.853C171.595 366.23 169.332 360.443 167.044 355.505Z" fill="url(#paint2_linear_4385_300574)"/>
<path d="M167.044 355.505C166.402 356.769 165.768 358.281 165.312 360.011C164.049 364.787 164.804 368.676 165.469 370.898C164.737 370.46 164.008 370.025 163.276 369.587C163.365 370.938 163.593 372.527 164.101 374.232C164.963 377.145 166.306 379.335 167.449 380.84C166.375 380.743 165.305 380.644 164.238 380.548C164.718 382.016 165.479 383.736 166.731 385.469C170.068 390.092 174.872 392.013 177.359 392.792C179.202 390.892 182.712 386.783 184.008 381.055C184.535 378.716 184.569 376.686 184.435 375.101C183.845 375.571 183.254 376.042 182.664 376.512C182.792 374.123 182.588 370.353 180.385 366.731C179.834 365.825 179.229 365.043 178.621 364.377C178.449 365.176 178.281 365.972 178.109 366.771C177.734 366.068 177.313 365.358 176.842 364.647C174.006 360.351 170.34 357.454 167.044 355.505Z" fill="url(#paint3_linear_4385_300574)"/>
<path d="M116.956 348.623C116.467 350.102 116.079 351.826 116.031 353.708C115.892 358.909 118.398 362.553 120.175 364.557C118.942 364.36 117.714 364.167 116.482 363.971C117.098 365.294 118.004 366.809 119.364 368.349C121.678 370.98 124.438 372.728 126.659 373.857C125.046 374.116 123.438 374.37 121.836 374.628C123.068 375.939 124.805 377.41 127.268 378.73C133.833 382.254 141.582 382.587 145.517 382.542C147.541 380.029 151.223 374.752 151.069 368.587C151.003 366.07 150.323 364.027 149.557 362.484C148.859 363.151 148.16 363.817 147.462 364.484C146.792 362.05 145.137 358.342 140.597 355.445C139.462 354.721 138.291 354.138 137.16 353.672C137.194 354.529 137.234 355.382 137.268 356.239C136.465 355.659 135.59 355.087 134.643 354.531C128.927 351.171 122.5 349.484 116.956 348.623Z" fill="#8FC25F"/>
<path d="M116.956 348.623C116.467 350.102 116.079 351.826 116.031 353.708C115.892 358.909 118.398 362.553 120.175 364.557C118.942 364.36 117.714 364.167 116.482 363.971C117.098 365.294 118.004 366.809 119.364 368.349C121.678 370.98 124.438 372.728 126.659 373.857C125.046 374.116 123.438 374.37 121.836 374.628C123.068 375.939 124.805 377.41 127.268 378.73C133.833 382.254 141.582 382.587 145.517 382.542C142.424 376.819 138.27 370.447 132.642 363.862C127.498 357.856 122.093 352.811 116.956 348.623Z" fill="url(#paint4_linear_4385_300574)"/>
<path d="M116.956 348.623C116.467 350.102 116.079 351.826 116.031 353.708C115.892 358.909 118.398 362.553 120.175 364.557C118.942 364.36 117.714 364.167 116.482 363.971C117.098 365.294 118.004 366.809 119.364 368.349C121.678 370.98 124.438 372.728 126.659 373.857C125.046 374.116 123.438 374.37 121.836 374.628C123.068 375.939 124.805 377.41 127.268 378.73C133.833 382.254 141.582 382.587 145.517 382.542C147.541 380.029 151.223 374.752 151.069 368.587C151.003 366.07 150.323 364.027 149.557 362.484C148.859 363.151 148.16 363.817 147.462 364.484C146.792 362.05 145.137 358.342 140.597 355.445C139.462 354.721 138.291 354.138 137.16 353.672C137.194 354.529 137.234 355.382 137.268 356.239C136.465 355.659 135.59 355.087 134.643 354.531C128.927 351.171 122.5 349.484 116.956 348.623Z" fill="url(#paint5_linear_4385_300574)"/>
<path d="M123.488 418.232C124.895 418.251 126.5 418.158 128.18 417.823C132.822 416.899 135.568 414.622 137.001 413.121C137.066 413.931 137.133 414.737 137.199 415.546C138.253 414.903 139.422 414.042 140.523 412.892C142.408 410.933 143.423 408.865 143.992 407.256C144.535 408.215 145.073 409.172 145.614 410.125C146.538 409.099 147.505 407.726 148.198 405.928C150.049 401.134 148.838 396.22 148.034 393.766C145.411 392.987 140.013 391.709 134.572 393.004C132.351 393.534 130.67 394.357 129.451 395.137C130.178 395.444 130.905 395.752 131.633 396.06C129.603 396.953 126.635 398.709 124.947 402.113C124.525 402.964 124.235 403.81 124.042 404.609C124.796 404.421 125.545 404.23 126.299 404.042C125.941 404.657 125.603 405.316 125.294 406.017C123.421 410.244 123.174 414.595 123.488 418.232Z" fill="#8FC25F"/>
<path d="M123.488 418.232C124.895 418.251 126.5 418.158 128.18 417.823C132.822 416.899 135.568 414.622 137.001 413.121C137.066 413.931 137.133 414.737 137.199 415.546C138.253 414.903 139.422 414.042 140.523 412.892C142.408 410.933 143.423 408.865 143.992 407.256C144.535 408.215 145.073 409.172 145.614 410.125C146.538 409.099 147.505 407.726 148.198 405.928C150.049 401.134 148.838 396.22 148.034 393.766C143.557 396.814 138.71 400.652 133.962 405.455C129.631 409.84 126.205 414.203 123.488 418.232Z" fill="url(#paint6_linear_4385_300574)"/>
<path d="M123.488 418.232C124.895 418.251 126.5 418.158 128.18 417.823C132.822 416.899 135.568 414.622 137.001 413.121C137.066 413.931 137.133 414.737 137.199 415.546C138.253 414.903 139.422 414.042 140.523 412.892C142.408 410.933 143.423 408.865 143.992 407.256C144.535 408.215 145.073 409.172 145.614 410.125C146.538 409.099 147.505 407.726 148.198 405.928C150.049 401.134 148.838 396.22 148.034 393.766C145.411 392.987 140.013 391.709 134.572 393.004C132.351 393.534 130.67 394.357 129.451 395.137C130.178 395.444 130.905 395.752 131.633 396.06C129.603 396.953 126.635 398.709 124.947 402.113C124.525 402.964 124.235 403.81 124.042 404.609C124.796 404.421 125.545 404.23 126.299 404.042C125.941 404.657 125.603 405.316 125.294 406.017C123.421 410.244 123.174 414.595 123.488 418.232Z" fill="url(#paint7_linear_4385_300574)"/>
<path d="M177.38 389.177C177.176 389.173 176.104 392.158 177.095 395.666C177.614 397.502 178.543 398.935 179.31 399.909C180.066 400.262 180.822 400.614 181.578 400.967C180.59 400.025 179.483 398.751 178.624 397.133C176.396 392.938 177.608 389.181 177.38 389.177Z" fill="#8FC25F"/>
<path d="M177.38 389.177C177.176 389.173 176.104 392.158 177.095 395.666C177.614 397.502 178.543 398.935 179.31 399.909C180.066 400.262 180.822 400.614 181.578 400.967C180.59 400.025 179.483 398.751 178.624 397.133C176.396 392.938 177.608 389.181 177.38 389.177Z" fill="url(#paint8_linear_4385_300574)"/>
<path d="M169.263 408.669C169.152 408.567 171.532 405.894 175.518 403.901C177.605 402.858 179.511 402.312 180.878 402.009C181.626 402.144 182.373 402.279 183.121 402.414C181.668 402.581 179.825 402.923 177.775 403.636C172.456 405.488 169.387 408.783 169.263 408.669Z" fill="#8FC25F"/>
<path d="M169.263 408.669C169.152 408.567 171.532 405.894 175.518 403.901C177.605 402.858 179.511 402.312 180.878 402.009C181.626 402.144 182.373 402.279 183.121 402.414C181.668 402.581 179.825 402.923 177.775 403.636C172.456 405.488 169.387 408.783 169.263 408.669Z" fill="url(#paint9_linear_4385_300574)"/>
<path d="M161.523 434.216C162.729 433.808 164.055 433.246 165.342 432.454C168.898 430.27 170.263 427.505 170.842 425.795C171.243 426.464 171.645 427.13 172.046 427.8C172.669 426.935 173.295 425.85 173.742 424.54C174.51 422.305 174.49 420.24 174.288 418.698C175.16 419.351 176.026 420.003 176.893 420.651C177.241 419.499 177.478 418.04 177.3 416.301C176.828 411.664 173.699 407.846 171.967 405.999C169.402 406.126 164.262 406.664 160.184 409.405C158.521 410.525 157.441 411.732 156.736 412.763C157.486 412.806 158.236 412.848 158.987 412.891C157.641 414.262 155.864 416.651 155.881 420.057C155.885 420.908 156 421.716 156.176 422.454C156.737 422.067 157.293 421.679 157.855 421.292C157.813 421.924 157.807 422.586 157.843 423.275C158.056 427.438 159.703 431.216 161.523 434.216Z" fill="#8FC25F"/>
<path d="M161.523 434.216C162.729 433.808 164.055 433.246 165.342 432.454C168.898 430.27 170.263 427.505 170.842 425.795C171.243 426.464 171.645 427.13 172.046 427.8C172.669 426.935 173.295 425.85 173.742 424.54C174.51 422.305 174.49 420.24 174.288 418.698C175.16 419.351 176.026 420.003 176.893 420.651C177.241 419.499 177.478 418.04 177.3 416.301C176.828 411.664 173.699 407.846 171.967 405.999C169.459 409.942 166.972 414.668 164.981 420.186C163.169 425.224 162.116 429.969 161.523 434.216Z" fill="url(#paint10_linear_4385_300574)"/>
<path d="M161.523 434.216C162.729 433.808 164.055 433.246 165.342 432.454C168.898 430.27 170.263 427.505 170.842 425.795C171.243 426.464 171.645 427.13 172.046 427.8C172.669 426.935 173.295 425.85 173.742 424.54C174.51 422.305 174.49 420.24 174.288 418.698C175.16 419.351 176.026 420.003 176.893 420.651C177.241 419.499 177.478 418.04 177.3 416.301C176.828 411.664 173.699 407.846 171.967 405.999C169.402 406.126 164.262 406.664 160.184 409.405C158.521 410.525 157.441 411.732 156.736 412.763C157.486 412.806 158.236 412.848 158.987 412.891C157.641 414.262 155.864 416.651 155.881 420.057C155.885 420.908 156 421.716 156.176 422.454C156.737 422.067 157.293 421.679 157.855 421.292C157.813 421.924 157.807 422.586 157.843 423.275C158.056 427.438 159.703 431.216 161.523 434.216Z" fill="url(#paint11_linear_4385_300574)"/>
<path d="M118.648 402.852C116.898 404.683 115.588 406.228 114.828 407.152C114.578 405.64 114.328 404.129 114.088 402.609C112.058 403.953 108.758 406.539 106.708 410.663C105.918 412.25 105.478 413.737 105.238 414.997C104.578 413.552 103.928 412.108 103.268 410.663C101.978 413.359 100.688 416.693 99.828 420.573C99.258 423.126 98.968 425.486 98.848 427.594C96.388 425.864 90.698 421.329 89.258 414.173C88.868 412.267 88.858 410.511 89.008 409.008C88.028 409.697 87.038 410.385 86.058 411.074C85.558 409.94 82.098 401.743 87.538 394.974C89.208 392.891 91.248 391.522 92.948 390.632C91.218 390.498 89.498 390.363 87.778 390.221C89.918 388.634 96.898 383.838 106.708 384.031C110.038 384.09 112.848 384.711 114.978 385.383C115.358 385.257 121.818 383.275 126.378 386.483C127.158 387.029 129.058 388.373 129.328 390.43C129.778 393.799 125.418 395.773 118.648 402.852Z" fill="#8FC25F"/>
<path d="M114.978 385.384C111.048 386.316 104.618 388.441 99.718 393.463C91.318 402.071 90.938 415.609 98.848 427.594C96.388 425.864 90.698 421.329 89.258 414.173C88.868 412.267 88.858 410.511 89.008 409.008C88.028 409.697 87.038 410.385 86.058 411.074C85.558 409.94 82.098 401.743 87.538 394.974C89.208 392.891 91.248 391.522 92.948 390.632C91.218 390.498 89.498 390.363 87.778 390.221C89.918 388.634 96.898 383.838 106.708 384.031C110.038 384.091 112.848 384.712 114.978 385.384Z" fill="url(#paint12_linear_4385_300574)"/>
<path d="M118.648 402.852C116.898 404.683 115.588 406.228 114.828 407.152C114.578 405.64 114.328 404.129 114.088 402.609C112.058 403.953 108.758 406.539 106.708 410.663C105.918 412.25 105.478 413.737 105.238 414.997C104.578 413.552 103.928 412.108 103.268 410.663C101.978 413.359 100.688 416.693 99.828 420.573C99.258 423.126 98.968 425.486 98.848 427.594C96.388 425.864 90.698 421.329 89.258 414.173C88.868 412.267 88.858 410.511 89.008 409.008C88.028 409.697 87.038 410.385 86.058 411.074C85.558 409.94 82.098 401.743 87.538 394.974C89.208 392.891 91.248 391.522 92.948 390.632C91.218 390.498 89.498 390.363 87.778 390.221C89.918 388.634 96.898 383.838 106.708 384.031C110.038 384.09 112.848 384.711 114.978 385.383C115.358 385.257 121.818 383.275 126.378 386.483C127.158 387.029 129.058 388.373 129.328 390.43C129.778 393.799 125.418 395.773 118.648 402.852Z" fill="url(#paint13_linear_4385_300574)"/>
<defs>
<linearGradient id="paint0_linear_4385_300574" x1="151.802" y1="384.362" x2="146.422" y2="385.305" gradientUnits="userSpaceOnUse">
<stop stop-color="#2C7C61"/>
<stop offset="1" stop-color="#2C7C61" stop-opacity="0"/>
</linearGradient>
<linearGradient id="paint1_linear_4385_300574" x1="152.671" y1="395.748" x2="145.959" y2="393.79" gradientUnits="userSpaceOnUse">
<stop stop-color="#2C7C61"/>
<stop offset="1" stop-color="#2C7C61" stop-opacity="0"/>
</linearGradient>
<linearGradient id="paint2_linear_4385_300574" x1="186.615" y1="377.004" x2="156.694" y2="368.476" gradientUnits="userSpaceOnUse">
<stop stop-color="#2C7C61"/>
<stop offset="1" stop-color="#2C7C61" stop-opacity="0"/>
</linearGradient>
<linearGradient id="paint3_linear_4385_300574" x1="182.489" y1="348.631" x2="173.011" y2="381.148" gradientUnits="userSpaceOnUse">
<stop stop-color="#DEDD1C"/>
<stop offset="1" stop-color="#D8DB1F" stop-opacity="0"/>
</linearGradient>
<linearGradient id="paint4_linear_4385_300574" x1="154.921" y1="362.55" x2="106.223" y2="357.437" gradientUnits="userSpaceOnUse">
<stop stop-color="#2C7C61"/>
<stop offset="1" stop-color="#2C7C61" stop-opacity="0"/>
</linearGradient>
<linearGradient id="paint5_linear_4385_300574" x1="138.686" y1="335.31" x2="141.101" y2="371.995" gradientUnits="userSpaceOnUse">
<stop stop-color="#DEDD1C"/>
<stop offset="1" stop-color="#D8DB1F" stop-opacity="0"/>
</linearGradient>
<linearGradient id="paint6_linear_4385_300574" x1="130.059" y1="391.792" x2="134.784" y2="422.932" gradientUnits="userSpaceOnUse">
<stop stop-color="#2C7C61"/>
<stop offset="1" stop-color="#2C7C61" stop-opacity="0"/>
</linearGradient>
<linearGradient id="paint7_linear_4385_300574" x1="108.861" y1="406.791" x2="139.146" y2="396.725" gradientUnits="userSpaceOnUse">
<stop stop-color="#DEDD1C"/>
<stop offset="1" stop-color="#D8DB1F" stop-opacity="0"/>
</linearGradient>
<linearGradient id="paint8_linear_4385_300574" x1="182.194" y1="395.626" x2="176.349" y2="394.957" gradientUnits="userSpaceOnUse">
<stop stop-color="#2C7C61"/>
<stop offset="1" stop-color="#2C7C61" stop-opacity="0"/>
</linearGradient>
<linearGradient id="paint9_linear_4385_300574" x1="179.034" y1="408.755" x2="172.053" y2="404.268" gradientUnits="userSpaceOnUse">
<stop stop-color="#2C7C61"/>
<stop offset="1" stop-color="#2C7C61" stop-opacity="0"/>
</linearGradient>
<linearGradient id="paint10_linear_4385_300574" x1="156.931" y1="410.218" x2="172.011" y2="434.857" gradientUnits="userSpaceOnUse">
<stop stop-color="#2C7C61"/>
<stop offset="1" stop-color="#2C7C61" stop-opacity="0"/>
</linearGradient>
<linearGradient id="paint11_linear_4385_300574" x1="145.648" y1="429.427" x2="166.133" y2="411.473" gradientUnits="userSpaceOnUse">
<stop stop-color="#DEDD1C"/>
<stop offset="1" stop-color="#D8DB1F" stop-opacity="0"/>
</linearGradient>
<linearGradient id="paint12_linear_4385_300574" x1="134.971" y1="401.022" x2="83.862" y2="408.323" gradientUnits="userSpaceOnUse">
<stop stop-color="#2C7C61"/>
<stop offset="1" stop-color="#2C7C61" stop-opacity="0"/>
</linearGradient>
<linearGradient id="paint13_linear_4385_300574" x1="92.5971" y1="436.423" x2="104.056" y2="403.722" gradientUnits="userSpaceOnUse">
<stop stop-color="#DEDD1C"/>
<stop offset="1" stop-color="#D8DB1F" stop-opacity="0"/>
</linearGradient>
</defs>
</svg>
