<svg width="456" height="790" viewBox="0 0 456 790" fill="none" xmlns="http://www.w3.org/2000/svg">
<path d="M246.471 160.489C246.508 160.383 244.039 159.319 240.764 159.245C239.05 159.206 237.625 159.45 236.634 159.686C236.196 160.022 235.758 160.357 235.32 160.693C236.32 160.336 237.633 159.972 239.209 159.796C243.299 159.34 246.429 160.608 246.471 160.489Z" fill="#8FC25F"/>
<path d="M246.471 160.489C246.508 160.383 244.039 159.319 240.764 159.245C239.05 159.206 237.625 159.45 236.634 159.686C236.196 160.022 235.758 160.357 235.32 160.693C236.32 160.336 237.633 159.972 239.209 159.796C243.299 159.34 246.429 160.608 246.471 160.489Z" fill="url(#paint0_linear_4385_301630)"/>
<path d="M218.215 160.053C218.399 159.99 220.672 162.938 221.301 167.05C221.63 169.202 221.411 171.034 221.139 172.318C220.606 172.92 220.074 173.523 219.541 174.125C220.027 172.812 220.478 171.104 220.553 169.092C220.747 163.873 218.009 160.123 218.215 160.053Z" fill="#8FC25F"/>
<path d="M218.215 160.053C218.399 159.99 220.672 162.938 221.301 167.05C221.63 169.202 221.411 171.034 221.139 172.318C220.606 172.92 220.074 173.523 219.541 174.125C220.027 172.812 220.478 171.104 220.553 169.092C220.747 163.873 218.009 160.123 218.215 160.053Z" fill="url(#paint1_linear_4385_301630)"/>
<path d="M229.722 179.6C229.742 179.434 225.738 178.423 220.86 179.062C218.307 179.397 216.274 180.084 214.882 180.661C214.342 181.259 213.801 181.856 213.261 182.454C214.626 181.696 216.455 180.856 218.735 180.235C224.648 178.623 229.699 179.786 229.722 179.6Z" fill="#8FC25F"/>
<path d="M229.722 179.6C229.742 179.434 225.738 178.423 220.86 179.062C218.307 179.397 216.274 180.084 214.882 180.661C214.342 181.259 213.801 181.856 213.261 182.454C214.626 181.696 216.455 180.856 218.735 180.235C224.648 178.623 229.699 179.786 229.722 179.6Z" fill="url(#paint2_linear_4385_301630)"/>
<path d="M244.316 147.43C244.434 147.418 245.197 149.424 244.79 151.886C244.577 153.175 244.107 154.206 243.709 154.912C243.288 155.19 242.867 155.468 242.446 155.746C242.973 155.051 243.554 154.122 243.975 152.968C245.065 149.975 244.184 147.444 244.316 147.43Z" fill="#8FC25F"/>
<path d="M244.316 147.43C244.434 147.418 245.197 149.424 244.79 151.886C244.577 153.175 244.107 154.206 243.709 154.912C243.288 155.19 242.867 155.468 242.446 155.746C242.973 155.051 243.554 154.122 243.975 152.968C245.065 149.975 244.184 147.444 244.316 147.43Z" fill="url(#paint3_linear_4385_301630)"/>
<path d="M309.025 129.828C308.229 131.146 307.16 132.624 305.706 134.118C301.695 138.246 296.892 140.302 293.946 141.306C295.045 141.547 296.137 141.79 297.236 142.031C295.717 142.872 293.824 143.771 291.565 144.543C287.712 145.866 284.216 146.352 281.623 146.525C282.653 147.246 283.681 147.962 284.702 148.679C282.721 149.313 280.228 149.91 277.299 150.155C269.486 150.814 263.295 148.587 260.319 147.289C260.76 144.666 262.121 139.341 267.121 134.549C269.164 132.594 271.302 131.208 273.11 130.243C273.117 130.991 273.123 131.738 273.13 132.486C275.57 130.79 279.772 128.41 285.539 127.593C286.981 127.389 288.338 127.307 289.573 127.305C288.868 127.967 288.162 128.624 287.458 129.286C288.532 129.089 289.653 128.92 290.818 128.788C297.849 127.984 304.102 128.723 309.025 129.828Z" fill="#8FC25F"/>
<path d="M309.025 129.828C308.229 131.146 307.16 132.624 305.706 134.118C301.695 138.246 296.892 140.302 293.946 141.306C295.045 141.547 296.137 141.79 297.236 142.031C295.717 142.872 293.824 143.771 291.565 144.543C287.712 145.866 284.216 146.352 281.623 146.525C282.653 147.246 283.681 147.962 284.702 148.679C282.721 149.313 280.228 149.91 277.299 150.155C269.486 150.814 263.295 148.587 260.319 147.289C267.216 143.789 275.439 140.119 284.958 136.756C293.65 133.692 301.78 131.466 309.025 129.828Z" fill="url(#paint4_linear_4385_301630)"/>
<path d="M309.025 129.828C308.229 131.146 307.16 132.624 305.706 134.118C301.695 138.246 296.892 140.302 293.946 141.306C295.045 141.547 296.137 141.79 297.236 142.031C295.717 142.872 293.824 143.771 291.565 144.543C287.712 145.866 284.216 146.352 281.623 146.525C282.653 147.246 283.681 147.962 284.702 148.679C282.721 149.313 280.228 149.91 277.299 150.155C269.486 150.814 263.295 148.587 260.319 147.289C260.76 144.666 262.121 139.341 267.121 134.549C269.164 132.594 271.302 131.208 273.11 130.243C273.117 130.991 273.123 131.738 273.13 132.486C275.57 130.79 279.772 128.41 285.539 127.593C286.981 127.389 288.338 127.307 289.573 127.305C288.868 127.967 288.162 128.624 287.458 129.286C288.532 129.089 289.653 128.92 290.818 128.788C297.849 127.984 304.102 128.723 309.025 129.828Z" fill="url(#paint5_linear_4385_301630)"/>
<path d="M246.031 118.946C246.914 119.811 247.843 120.87 248.653 122.132C250.893 125.617 251.04 128.788 250.903 130.644C251.495 130.165 252.085 129.69 252.677 129.211C252.891 130.28 253.026 131.561 252.924 132.985C252.755 135.416 251.974 137.374 251.23 138.762C252.219 138.485 253.203 138.207 254.187 137.932C254.059 139.166 253.722 140.649 252.925 142.234C250.804 146.462 246.708 148.86 244.539 149.934C242.387 148.799 238.179 146.256 235.698 142.036C234.687 140.312 234.208 138.737 233.985 137.477C234.644 137.733 235.303 137.989 235.962 138.244C235.315 136.407 234.677 133.431 235.952 130.195C236.271 129.386 236.668 128.663 237.093 128.03C237.431 128.62 237.764 129.209 238.102 129.799C238.3 129.181 238.539 128.548 238.826 127.906C240.55 124.028 243.36 121.083 246.031 118.946Z" fill="#8FC25F"/>
<path d="M246.031 118.946C246.914 119.811 247.843 120.87 248.653 122.132C250.893 125.617 251.04 128.788 250.903 130.644C251.495 130.165 252.085 129.69 252.677 129.211C252.891 130.28 253.026 131.561 252.924 132.985C252.755 135.416 251.974 137.374 251.23 138.762C252.219 138.485 253.203 138.207 254.187 137.932C254.059 139.166 253.722 140.649 252.925 142.234C250.804 146.462 246.708 148.86 244.539 149.934C243.848 145.19 243.466 139.708 243.801 133.669C244.113 128.156 244.967 123.223 246.031 118.946Z" fill="url(#paint6_linear_4385_301630)"/>
<path d="M246.031 118.946C246.914 119.811 247.843 120.87 248.653 122.132C250.893 125.617 251.04 128.788 250.903 130.644C251.495 130.165 252.085 129.69 252.677 129.211C252.891 130.28 253.026 131.561 252.924 132.985C252.755 135.416 251.974 137.374 251.23 138.762C252.219 138.485 253.203 138.207 254.187 137.932C254.059 139.166 253.722 140.649 252.925 142.234C250.804 146.462 246.708 148.86 244.539 149.934C242.387 148.799 238.179 146.256 235.698 142.036C234.687 140.312 234.208 138.737 233.985 137.477C234.644 137.733 235.303 137.989 235.962 138.244C235.315 136.407 234.677 133.431 235.952 130.195C236.271 129.386 236.668 128.663 237.093 128.03C237.431 128.62 237.764 129.209 238.102 129.799C238.3 129.181 238.539 128.548 238.826 127.906C240.55 124.028 243.36 121.083 246.031 118.946Z" fill="url(#paint7_linear_4385_301630)"/>
<path d="M221.307 139.492C222.015 140.186 222.761 141.036 223.411 142.049C225.209 144.845 225.326 147.39 225.217 148.88C225.692 148.496 226.166 148.114 226.641 147.73C226.813 148.588 226.921 149.616 226.839 150.758C226.703 152.709 226.077 154.28 225.479 155.394C226.273 155.172 227.063 154.948 227.852 154.728C227.749 155.718 227.479 156.908 226.84 158.18C225.138 161.573 221.851 163.497 220.111 164.359C218.384 163.448 215.008 161.408 213.016 158.021C212.204 156.638 211.82 155.374 211.641 154.363C212.17 154.568 212.699 154.774 213.228 154.979C212.709 153.505 212.197 151.116 213.22 148.52C213.476 147.871 213.794 147.29 214.135 146.783C214.406 147.257 214.673 147.729 214.945 148.203C215.104 147.707 215.296 147.199 215.526 146.684C216.908 143.571 219.163 141.207 221.307 139.492Z" fill="#8FC25F"/>
<path d="M221.307 139.492C222.015 140.186 222.761 141.036 223.411 142.049C225.209 144.845 225.326 147.39 225.217 148.88C225.692 148.496 226.166 148.114 226.641 147.73C226.813 148.588 226.921 149.616 226.839 150.758C226.703 152.709 226.077 154.28 225.479 155.394C226.273 155.172 227.063 154.948 227.852 154.728C227.749 155.718 227.479 156.908 226.84 158.18C225.138 161.573 221.851 163.497 220.111 164.359C219.556 160.552 219.25 156.152 219.519 151.306C219.768 146.884 220.453 142.925 221.307 139.492Z" fill="url(#paint8_linear_4385_301630)"/>
<path d="M221.307 139.492C222.015 140.186 222.761 141.036 223.411 142.049C225.209 144.845 225.326 147.39 225.217 148.88C225.692 148.496 226.166 148.114 226.641 147.73C226.813 148.588 226.921 149.616 226.839 150.758C226.703 152.709 226.077 154.28 225.479 155.394C226.273 155.172 227.063 154.948 227.852 154.728C227.749 155.718 227.479 156.908 226.84 158.18C225.138 161.573 221.851 163.497 220.111 164.359C218.384 163.448 215.008 161.408 213.016 158.021C212.204 156.638 211.82 155.374 211.641 154.363C212.17 154.568 212.699 154.774 213.228 154.979C212.709 153.505 212.197 151.116 213.22 148.52C213.476 147.871 213.794 147.29 214.135 146.783C214.406 147.257 214.673 147.729 214.945 148.203C215.104 147.707 215.296 147.199 215.526 146.684C216.908 143.571 219.163 141.207 221.307 139.492Z" fill="url(#paint9_linear_4385_301630)"/>
<path d="M285.261 180.488C283.382 180.885 281.204 181.211 278.849 181.287C272.342 181.502 267.951 179.709 265.56 178.427C265.727 179.342 265.889 180.255 266.056 181.17C264.442 180.738 262.607 180.095 260.771 179.113C257.632 177.443 255.625 175.421 254.357 173.787C253.93 174.996 253.51 176.201 253.085 177.402C251.526 176.51 249.8 175.246 248.309 173.436C244.327 168.613 244.408 162.838 244.715 159.901C247.984 158.337 254.812 155.477 262.505 155.461C265.645 155.456 268.155 155.92 270.033 156.459C269.156 156.994 268.278 157.53 267.401 158.065C270.399 158.513 274.926 159.669 278.254 162.994C279.086 163.825 279.74 164.686 280.249 165.521C279.181 165.514 278.118 165.502 277.049 165.495C277.722 166.082 278.38 166.722 279.014 167.417C282.846 171.611 284.541 176.37 285.261 180.488Z" fill="#8FC25F"/>
<path d="M285.261 180.488C283.382 180.885 281.204 181.211 278.849 181.287C272.342 181.502 267.951 179.709 265.56 178.427C265.727 179.342 265.889 180.255 266.056 181.17C264.442 180.738 262.607 180.095 260.771 179.113C257.632 177.443 255.625 175.421 254.357 173.787C253.93 174.996 253.51 176.201 253.085 177.402C251.526 176.51 249.8 175.246 248.309 173.436C244.327 168.613 244.408 162.838 244.715 159.901C251.666 162.087 259.362 165.05 267.227 169.109C274.402 172.82 280.359 176.745 285.261 180.488Z" fill="url(#paint10_linear_4385_301630)"/>
<path d="M285.261 180.488C283.382 180.885 281.204 181.211 278.849 181.287C272.342 181.502 267.951 179.709 265.56 178.427C265.727 179.342 265.889 180.255 266.056 181.17C264.442 180.738 262.607 180.095 260.771 179.113C257.632 177.443 255.625 175.421 254.357 173.787C253.93 174.996 253.51 176.201 253.085 177.402C251.526 176.51 249.8 175.246 248.309 173.436C244.327 168.613 244.408 162.838 244.715 159.901C247.984 158.337 254.812 155.477 262.505 155.461C265.645 155.456 268.155 155.92 270.033 156.459C269.156 156.994 268.278 157.53 267.401 158.065C270.399 158.513 274.926 159.669 278.254 162.994C279.086 163.825 279.74 164.686 280.249 165.521C279.181 165.514 278.118 165.502 277.049 165.495C277.722 166.082 278.38 166.722 279.014 167.417C282.846 171.611 284.541 176.37 285.261 180.488Z" fill="url(#paint11_linear_4385_301630)"/>
<path d="M250.867 190.911C249.808 191.135 248.58 191.318 247.252 191.361C243.584 191.482 241.109 190.472 239.761 189.749C239.855 190.265 239.947 190.779 240.041 191.295C239.131 191.052 238.097 190.689 237.062 190.136C235.292 189.195 234.161 188.055 233.446 187.134C233.206 187.816 232.968 188.495 232.729 189.172C231.85 188.669 230.877 187.957 230.037 186.937C227.792 184.218 227.838 180.963 228.011 179.307C229.854 178.425 233.703 176.813 238.039 176.804C239.809 176.801 241.224 177.063 242.282 177.367C241.787 177.669 241.293 177.971 240.798 178.272C242.488 178.525 245.04 179.176 246.916 181.051C247.385 181.52 247.753 182.005 248.04 182.475C247.438 182.471 246.839 182.464 246.236 182.46C246.615 182.791 246.986 183.152 247.344 183.543C249.505 185.907 250.461 188.59 250.867 190.911Z" fill="#8FC25F"/>
<path d="M250.867 190.911C249.808 191.135 248.58 191.318 247.252 191.361C243.584 191.482 241.109 190.472 239.761 189.749C239.855 190.265 239.947 190.779 240.041 191.295C239.131 191.052 238.097 190.689 237.062 190.136C235.292 189.195 234.161 188.055 233.446 187.134C233.206 187.816 232.968 188.495 232.729 189.172C231.85 188.669 230.877 187.957 230.037 186.937C227.792 184.218 227.838 180.963 228.011 179.307C231.929 180.539 236.267 182.209 240.701 184.497C244.745 186.589 248.103 188.801 250.867 190.911Z" fill="url(#paint12_linear_4385_301630)"/>
<path d="M250.867 190.911C249.808 191.135 248.58 191.318 247.252 191.361C243.584 191.482 241.109 190.472 239.761 189.749C239.855 190.265 239.947 190.779 240.041 191.295C239.131 191.052 238.097 190.689 237.062 190.136C235.292 189.195 234.161 188.055 233.446 187.134C233.206 187.816 232.968 188.495 232.729 189.172C231.85 188.669 230.877 187.957 230.037 186.937C227.792 184.218 227.838 180.963 228.011 179.307C229.854 178.425 233.703 176.813 238.039 176.804C239.809 176.801 241.224 177.063 242.282 177.367C241.787 177.669 241.293 177.971 240.798 178.272C242.488 178.525 245.04 179.176 246.916 181.051C247.385 181.52 247.753 182.005 248.04 182.475C247.438 182.471 246.839 182.464 246.236 182.46C246.615 182.791 246.986 183.152 247.344 183.543C249.505 185.907 250.461 188.59 250.867 190.911Z" fill="url(#paint13_linear_4385_301630)"/>
<defs>
<linearGradient id="paint0_linear_4385_301630" x1="240.017" y1="162.708" x2="241.785" y2="158.505" gradientUnits="userSpaceOnUse">
<stop stop-color="#2C7C61"/>
<stop offset="1" stop-color="#2C7C61" stop-opacity="0"/>
</linearGradient>
<linearGradient id="paint1_linear_4385_301630" x1="216.433" y1="168.449" x2="221.571" y2="165.65" gradientUnits="userSpaceOnUse">
<stop stop-color="#2C7C61"/>
<stop offset="1" stop-color="#2C7C61" stop-opacity="0"/>
</linearGradient>
<linearGradient id="paint2_linear_4385_301630" x1="220.821" y1="184.146" x2="222.197" y2="177.884" gradientUnits="userSpaceOnUse">
<stop stop-color="#2C7C61"/>
<stop offset="1" stop-color="#2C7C61" stop-opacity="0"/>
</linearGradient>
<linearGradient id="paint3_linear_4385_301630" x1="241.582" y1="152.043" x2="245.348" y2="151.149" gradientUnits="userSpaceOnUse">
<stop stop-color="#2C7C61"/>
<stop offset="1" stop-color="#2C7C61" stop-opacity="0"/>
</linearGradient>
<linearGradient id="paint4_linear_4385_301630" x1="267.208" y1="126.193" x2="303.872" y2="152.165" gradientUnits="userSpaceOnUse">
<stop stop-color="#2C7C61"/>
<stop offset="1" stop-color="#2C7C61" stop-opacity="0"/>
</linearGradient>
<linearGradient id="paint5_linear_4385_301630" x1="301.195" y1="109.637" x2="279.93" y2="144.975" gradientUnits="userSpaceOnUse">
<stop stop-color="#DEDD1C"/>
<stop offset="1" stop-color="#D8DB1F" stop-opacity="0"/>
</linearGradient>
<linearGradient id="paint6_linear_4385_301630" x1="233.142" y1="139.528" x2="256.584" y2="124.682" gradientUnits="userSpaceOnUse">
<stop stop-color="#2C7C61"/>
<stop offset="1" stop-color="#2C7C61" stop-opacity="0"/>
</linearGradient>
<linearGradient id="paint7_linear_4385_301630" x1="230.738" y1="116.699" x2="243.3" y2="141.434" gradientUnits="userSpaceOnUse">
<stop stop-color="#DEDD1C"/>
<stop offset="1" stop-color="#D8DB1F" stop-opacity="0"/>
</linearGradient>
<linearGradient id="paint8_linear_4385_301630" x1="210.964" y1="156.007" x2="229.776" y2="144.093" gradientUnits="userSpaceOnUse">
<stop stop-color="#2C7C61"/>
<stop offset="1" stop-color="#2C7C61" stop-opacity="0"/>
</linearGradient>
<linearGradient id="paint9_linear_4385_301630" x1="209.036" y1="137.687" x2="219.116" y2="157.536" gradientUnits="userSpaceOnUse">
<stop stop-color="#DEDD1C"/>
<stop offset="1" stop-color="#D8DB1F" stop-opacity="0"/>
</linearGradient>
<linearGradient id="paint10_linear_4385_301630" x1="269.126" y1="151.666" x2="273.212" y2="189.309" gradientUnits="userSpaceOnUse">
<stop stop-color="#2C7C61"/>
<stop offset="1" stop-color="#2C7C61" stop-opacity="0"/>
</linearGradient>
<linearGradient id="paint11_linear_4385_301630" x1="302.426" y1="162.536" x2="258.512" y2="155.967" gradientUnits="userSpaceOnUse">
<stop stop-color="#DEDD1C"/>
<stop offset="1" stop-color="#D8DB1F" stop-opacity="0"/>
</linearGradient>
<linearGradient id="paint12_linear_4385_301630" x1="241.787" y1="174.667" x2="244.09" y2="195.887" gradientUnits="userSpaceOnUse">
<stop stop-color="#2C7C61"/>
<stop offset="1" stop-color="#2C7C61" stop-opacity="0"/>
</linearGradient>
<linearGradient id="paint13_linear_4385_301630" x1="260.558" y1="180.795" x2="235.804" y2="177.092" gradientUnits="userSpaceOnUse">
<stop stop-color="#DEDD1C"/>
<stop offset="1" stop-color="#D8DB1F" stop-opacity="0"/>
</linearGradient>
</defs>
</svg>
