<svg width="456" height="790" viewBox="0 0 456 790" fill="none" xmlns="http://www.w3.org/2000/svg">
<path d="M151.181 114.334C151.046 114.365 151.032 116.51 152.5 118.661C153.269 119.787 154.215 120.581 154.947 121.098C155.528 121.207 156.108 121.316 156.689 121.424C155.818 120.964 154.792 120.305 153.85 119.379C151.406 116.976 151.332 114.299 151.181 114.334Z" fill="#8FC25F"/>
<path d="M151.181 114.334C151.046 114.365 151.032 116.51 152.5 118.661C153.269 119.787 154.215 120.581 154.947 121.098C155.528 121.207 156.108 121.316 156.689 121.424C155.818 120.964 154.792 120.305 153.85 119.379C151.406 116.976 151.332 114.299 151.181 114.334Z" fill="url(#paint0_linear_4385_302686)"/>
<path d="M150.353 128.524C150.256 128.475 151.205 126.321 153.372 124.354C154.506 123.324 155.637 122.651 156.469 122.228C156.994 122.195 157.518 122.161 158.043 122.127C157.123 122.475 155.987 123.003 154.8 123.809C151.721 125.901 150.462 128.578 150.353 128.524Z" fill="#8FC25F"/>
<path d="M150.353 128.524C150.256 128.475 151.205 126.321 153.372 124.354C154.506 123.324 155.637 122.651 156.469 122.228C156.994 122.195 157.518 122.161 158.043 122.127C157.123 122.475 155.987 123.003 154.8 123.809C151.721 125.901 150.462 128.578 150.353 128.524Z" fill="url(#paint1_linear_4385_302686)"/>
<path d="M168.247 94.563C167.732 95.578 167.223 96.791 166.857 98.178C165.844 102.011 166.449 105.131 166.983 106.914C166.396 106.562 165.811 106.214 165.224 105.862C165.295 106.946 165.478 108.221 165.886 109.589C166.578 111.926 167.655 113.683 168.573 114.891C167.711 114.813 166.853 114.733 165.996 114.657C166.381 115.835 166.992 117.215 167.997 118.606C170.675 122.316 174.529 123.857 176.525 124.482C178.003 122.957 180.82 119.66 181.86 115.064C182.283 113.187 182.31 111.559 182.203 110.287C181.729 110.664 181.256 111.042 180.782 111.419C180.885 109.502 180.721 106.477 178.953 103.571C178.511 102.844 178.025 102.216 177.538 101.682C177.4 102.323 177.265 102.962 177.127 103.603C176.826 103.039 176.488 102.469 176.111 101.898C173.833 98.452 170.892 96.127 168.247 94.563Z" fill="#8FC25F"/>
<path d="M168.247 94.563C167.732 95.578 167.223 96.791 166.857 98.178C165.844 102.011 166.449 105.131 166.983 106.914C166.396 106.562 165.811 106.214 165.224 105.862C165.295 106.946 165.478 108.221 165.886 109.589C166.578 111.926 167.655 113.683 168.573 114.891C167.711 114.813 166.853 114.733 165.996 114.657C166.381 115.835 166.992 117.215 167.997 118.606C170.675 122.316 174.529 123.857 176.525 124.482C176 119.723 175.057 114.304 173.408 108.482C171.898 103.169 170.083 98.526 168.247 94.563Z" fill="url(#paint2_linear_4385_302686)"/>
<path d="M168.247 94.563C167.732 95.578 167.223 96.791 166.857 98.178C165.844 102.011 166.449 105.131 166.983 106.914C166.396 106.562 165.811 106.214 165.224 105.862C165.295 106.946 165.478 108.221 165.886 109.589C166.578 111.926 167.655 113.683 168.573 114.891C167.711 114.813 166.853 114.733 165.996 114.657C166.381 115.835 166.992 117.215 167.997 118.606C170.675 122.316 174.529 123.857 176.525 124.482C178.003 122.957 180.82 119.66 181.86 115.064C182.283 113.187 182.31 111.559 182.203 110.287C181.729 110.664 181.256 111.042 180.782 111.419C180.885 109.502 180.721 106.477 178.953 103.571C178.511 102.844 178.025 102.216 177.538 101.682C177.4 102.323 177.265 102.962 177.127 103.603C176.826 103.039 176.488 102.469 176.111 101.898C173.833 98.452 170.892 96.127 168.247 94.563Z" fill="url(#paint3_linear_4385_302686)"/>
<path d="M128.056 89.041C127.663 90.228 127.352 91.611 127.314 93.122C127.202 97.295 129.214 100.219 130.639 101.828C129.65 101.67 128.665 101.515 127.676 101.357C128.171 102.419 128.897 103.635 129.988 104.87C131.845 106.981 134.059 108.384 135.842 109.29C134.547 109.498 133.258 109.702 131.972 109.909C132.961 110.961 134.355 112.141 136.331 113.2C141.599 116.028 147.817 116.295 150.975 116.259C152.599 114.243 155.554 110.008 155.43 105.061C155.377 103.041 154.832 101.402 154.217 100.164C153.657 100.699 153.096 101.234 152.536 101.769C151.998 99.816 150.67 96.84 147.027 94.516C146.116 93.935 145.177 93.467 144.269 93.093C144.296 93.781 144.329 94.465 144.356 95.153C143.711 94.688 143.01 94.229 142.25 93.783C137.661 91.085 132.504 89.732 128.056 89.041Z" fill="#8FC25F"/>
<path d="M128.056 89.041C127.663 90.228 127.352 91.611 127.314 93.122C127.202 97.295 129.214 100.219 130.639 101.828C129.65 101.67 128.665 101.515 127.676 101.357C128.171 102.419 128.897 103.635 129.988 104.87C131.845 106.981 134.059 108.384 135.842 109.29C134.547 109.498 133.258 109.702 131.972 109.909C132.961 110.961 134.355 112.141 136.331 113.2C141.599 116.028 147.817 116.295 150.975 116.259C148.493 111.667 145.16 106.553 140.644 101.27C136.514 96.449 132.177 92.401 128.056 89.041Z" fill="url(#paint4_linear_4385_302686)"/>
<path d="M128.056 89.041C127.663 90.228 127.352 91.611 127.314 93.122C127.202 97.295 129.214 100.219 130.639 101.828C129.65 101.67 128.665 101.515 127.676 101.357C128.171 102.419 128.897 103.635 129.988 104.87C131.845 106.981 134.059 108.384 135.842 109.29C134.547 109.498 133.258 109.702 131.972 109.909C132.961 110.961 134.355 112.141 136.331 113.2C141.599 116.028 147.817 116.295 150.975 116.259C152.599 114.243 155.554 110.008 155.43 105.061C155.377 103.041 154.832 101.402 154.217 100.164C153.657 100.699 153.096 101.234 152.536 101.769C151.998 99.816 150.67 96.84 147.027 94.516C146.116 93.935 145.177 93.467 144.269 93.093C144.296 93.781 144.329 94.465 144.356 95.153C143.711 94.688 143.01 94.229 142.25 93.783C137.661 91.085 132.504 89.732 128.056 89.041Z" fill="url(#paint5_linear_4385_302686)"/>
<path d="M133.297 144.896C134.426 144.911 135.714 144.837 137.062 144.567C140.787 143.826 142.99 141.999 144.14 140.794C144.192 141.444 144.246 142.09 144.298 142.74C145.144 142.224 146.082 141.533 146.966 140.61C148.479 139.038 149.293 137.379 149.75 136.087C150.186 136.857 150.618 137.624 151.051 138.389C151.792 137.566 152.568 136.464 153.124 135.021C154.609 131.175 153.637 127.231 152.992 125.262C150.887 124.637 146.556 123.611 142.19 124.651C140.408 125.077 139.059 125.737 138.081 126.362C138.665 126.609 139.248 126.856 139.832 127.102C138.203 127.818 135.822 129.228 134.467 131.959C134.128 132.642 133.896 133.321 133.741 133.962C134.346 133.811 134.947 133.658 135.552 133.507C135.264 134.001 134.994 134.529 134.746 135.091C133.243 138.487 133.045 141.978 133.297 144.896Z" fill="#8FC25F"/>
<path d="M133.297 144.896C134.426 144.911 135.714 144.837 137.062 144.567C140.787 143.826 142.99 141.999 144.14 140.794C144.192 141.444 144.246 142.09 144.298 142.74C145.144 142.224 146.082 141.533 146.966 140.61C148.479 139.038 149.293 137.379 149.75 136.087C150.186 136.857 150.618 137.624 151.051 138.389C151.792 137.566 152.568 136.464 153.124 135.021C154.609 131.175 153.637 127.231 152.992 125.262C149.4 127.708 145.51 130.788 141.7 134.641C138.226 138.162 135.477 141.664 133.297 144.896Z" fill="url(#paint6_linear_4385_302686)"/>
<path d="M133.297 144.896C134.426 144.911 135.714 144.837 137.062 144.567C140.787 143.826 142.99 141.999 144.14 140.794C144.192 141.444 144.246 142.09 144.298 142.74C145.144 142.224 146.082 141.533 146.966 140.61C148.479 139.038 149.293 137.379 149.75 136.087C150.186 136.857 150.618 137.624 151.051 138.389C151.792 137.566 152.568 136.464 153.124 135.021C154.609 131.175 153.637 127.231 152.992 125.262C150.887 124.637 146.556 123.611 142.19 124.651C140.408 125.077 139.059 125.737 138.081 126.362C138.665 126.609 139.248 126.856 139.832 127.102C138.203 127.818 135.822 129.228 134.467 131.959C134.128 132.642 133.896 133.321 133.741 133.962C134.346 133.811 134.947 133.658 135.552 133.507C135.264 134.001 134.994 134.529 134.746 135.091C133.243 138.487 133.045 141.978 133.297 144.896Z" fill="url(#paint7_linear_4385_302686)"/>
<path d="M176.54 121.582C176.376 121.579 175.516 123.974 176.311 126.789C176.727 128.262 177.473 129.412 178.088 130.194C178.695 130.477 179.301 130.76 179.908 131.043C179.115 130.287 178.227 129.265 177.538 127.967C175.751 124.6 176.724 121.585 176.54 121.582Z" fill="#8FC25F"/>
<path d="M176.54 121.582C176.376 121.579 175.516 123.974 176.311 126.789C176.727 128.262 177.473 129.412 178.088 130.194C178.695 130.477 179.301 130.76 179.908 131.043C179.115 130.287 178.227 129.265 177.538 127.967C175.751 124.6 176.724 121.585 176.54 121.582Z" fill="url(#paint8_linear_4385_302686)"/>
<path d="M170.581 137.846C170.536 137.824 171.757 133.937 175.966 132.259C177.743 131.551 179.449 131.476 180.571 131.522C180.763 131.749 180.955 131.976 181.147 132.203C179.544 132.014 177.576 132.027 175.68 132.782C171.898 134.291 170.624 137.867 170.581 137.846Z" fill="#8FC25F"/>
<path d="M170.508 137.662C170.4 137.605 171.43 134.671 174.772 132.873C177.115 131.613 179.481 131.51 180.571 131.522C180.763 131.749 180.955 131.976 181.147 132.203C179.938 132.012 178.411 131.943 176.818 132.381C172.468 133.58 170.639 137.731 170.508 137.662Z" fill="url(#paint9_linear_4385_302686)"/>
<path d="M163.817 157.723C164.785 157.396 165.849 156.945 166.881 156.309C169.735 154.556 170.83 152.338 171.294 150.966C171.616 151.503 171.938 152.037 172.26 152.575C172.76 151.881 173.263 151.01 173.621 149.959C174.237 148.165 174.222 146.508 174.059 145.271C174.759 145.795 175.454 146.318 176.15 146.838C176.429 145.914 176.619 144.743 176.476 143.347C176.098 139.626 173.587 136.562 172.196 135.08C170.138 135.182 166.013 135.614 162.741 137.813C161.406 138.712 160.54 139.68 159.974 140.507C160.576 140.541 161.178 140.576 161.78 140.61C160.7 141.71 159.274 143.627 159.288 146.36C159.291 147.043 159.383 147.691 159.525 148.283C159.975 147.973 160.421 147.661 160.872 147.351C160.838 147.858 160.833 148.389 160.862 148.942C161.035 152.284 162.357 155.315 163.817 157.723Z" fill="#8FC25F"/>
<path d="M163.817 157.723C164.785 157.396 165.849 156.945 166.881 156.309C169.735 154.556 170.83 152.338 171.294 150.966C171.616 151.503 171.938 152.037 172.26 152.575C172.76 151.881 173.263 151.01 173.621 149.959C174.237 148.165 174.222 146.508 174.059 145.271C174.759 145.795 175.454 146.318 176.15 146.838C176.429 145.914 176.619 144.743 176.476 143.347C176.098 139.626 173.587 136.562 172.196 135.08C170.183 138.244 168.188 142.036 166.59 146.464C165.137 150.507 164.293 154.315 163.817 157.723Z" fill="url(#paint10_linear_4385_302686)"/>
<path d="M163.817 157.723C164.785 157.396 165.849 156.945 166.881 156.309C169.735 154.556 170.83 152.338 171.294 150.966C171.616 151.503 171.938 152.037 172.26 152.575C172.76 151.881 173.263 151.01 173.621 149.959C174.237 148.165 174.222 146.508 174.059 145.271C174.759 145.795 175.454 146.318 176.15 146.838C176.429 145.914 176.619 144.743 176.476 143.347C176.098 139.626 173.587 136.562 172.196 135.08C170.138 135.182 166.013 135.614 162.741 137.813C161.406 138.712 160.54 139.68 159.974 140.507C160.576 140.541 161.178 140.576 161.78 140.61C160.7 141.71 159.274 143.627 159.288 146.36C159.291 147.043 159.383 147.691 159.525 148.283C159.975 147.973 160.421 147.661 160.872 147.351C160.838 147.858 160.833 148.389 160.862 148.942C161.035 152.284 162.357 155.315 163.817 157.723Z" fill="url(#paint11_linear_4385_302686)"/>
<path d="M129.413 132.556C128.009 134.025 126.958 135.265 126.348 136.006C126.147 134.793 125.947 133.58 125.754 132.36C124.125 133.438 121.477 135.514 119.832 138.823C119.198 140.097 118.845 141.289 118.652 142.3C118.122 141.141 117.601 139.982 117.071 138.823C116.036 140.986 115.001 143.662 114.311 146.775C113.854 148.824 113.621 150.717 113.525 152.409C111.551 151.021 106.985 147.382 105.83 141.64C105.517 140.11 105.509 138.702 105.629 137.495C104.843 138.048 104.048 138.6 103.262 139.153C102.861 138.243 100.084 131.666 104.45 126.234C105.79 124.563 107.427 123.464 108.791 122.75C107.403 122.642 106.023 122.534 104.642 122.42C106.359 121.146 111.96 117.298 119.832 117.453C122.504 117.5 124.759 117.999 126.468 118.538C126.773 118.437 131.957 116.847 135.616 119.421C136.242 119.859 137.766 120.937 137.983 122.588C138.344 125.291 134.845 126.875 129.413 132.556Z" fill="#8FC25F"/>
<path d="M126.468 118.539C123.314 119.287 118.155 120.992 114.223 125.022C107.483 131.929 107.178 142.793 113.525 152.409C111.551 151.021 106.985 147.382 105.83 141.64C105.517 140.11 105.509 138.702 105.629 137.495C104.843 138.048 104.048 138.6 103.262 139.153C102.861 138.243 100.084 131.666 104.45 126.234C105.79 124.563 107.427 123.464 108.791 122.75C107.403 122.642 106.023 122.534 104.642 122.42C106.359 121.146 111.96 117.298 119.832 117.453C122.504 117.501 124.759 117.999 126.468 118.539Z" fill="url(#paint12_linear_4385_302686)"/>
<path d="M129.413 132.556C128.009 134.025 126.958 135.265 126.348 136.006C126.147 134.793 125.947 133.58 125.754 132.36C124.125 133.438 121.477 135.514 119.832 138.823C119.198 140.097 118.845 141.289 118.652 142.3C118.122 141.141 117.601 139.982 117.071 138.823C116.036 140.986 115.001 143.662 114.311 146.775C113.854 148.824 113.621 150.717 113.525 152.409C111.551 151.021 106.985 147.382 105.83 141.64C105.517 140.11 105.509 138.702 105.629 137.495C104.843 138.048 104.048 138.6 103.262 139.153C102.861 138.243 100.084 131.666 104.45 126.234C105.79 124.563 107.427 123.464 108.791 122.75C107.403 122.642 106.023 122.534 104.642 122.42C106.359 121.146 111.96 117.298 119.832 117.453C122.504 117.5 124.759 117.999 126.468 118.538C126.773 118.437 131.957 116.847 135.616 119.421C136.242 119.859 137.766 120.937 137.983 122.588C138.344 125.291 134.845 126.875 129.413 132.556Z" fill="url(#paint13_linear_4385_302686)"/>
<defs>
<linearGradient id="paint0_linear_4385_302686" x1="156.018" y1="117.713" x2="151.701" y2="118.47" gradientUnits="userSpaceOnUse">
<stop stop-color="#2C7C61"/>
<stop offset="1" stop-color="#2C7C61" stop-opacity="0"/>
</linearGradient>
<linearGradient id="paint1_linear_4385_302686" x1="156.737" y1="126.858" x2="151.351" y2="125.287" gradientUnits="userSpaceOnUse">
<stop stop-color="#2C7C61"/>
<stop offset="1" stop-color="#2C7C61" stop-opacity="0"/>
</linearGradient>
<linearGradient id="paint2_linear_4385_302686" x1="183.955" y1="111.8" x2="159.946" y2="104.957" gradientUnits="userSpaceOnUse">
<stop stop-color="#2C7C61"/>
<stop offset="1" stop-color="#2C7C61" stop-opacity="0"/>
</linearGradient>
<linearGradient id="paint3_linear_4385_302686" x1="180.644" y1="89.0335" x2="173.039" y2="115.126" gradientUnits="userSpaceOnUse">
<stop stop-color="#DEDD1C"/>
<stop offset="1" stop-color="#D8DB1F" stop-opacity="0"/>
</linearGradient>
<linearGradient id="paint4_linear_4385_302686" x1="158.534" y1="100.197" x2="119.458" y2="96.0944" gradientUnits="userSpaceOnUse">
<stop stop-color="#2C7C61"/>
<stop offset="1" stop-color="#2C7C61" stop-opacity="0"/>
</linearGradient>
<linearGradient id="paint5_linear_4385_302686" x1="145.507" y1="78.339" x2="147.444" y2="107.776" gradientUnits="userSpaceOnUse">
<stop stop-color="#DEDD1C"/>
<stop offset="1" stop-color="#D8DB1F" stop-opacity="0"/>
</linearGradient>
<linearGradient id="paint6_linear_4385_302686" x1="138.57" y1="123.677" x2="142.361" y2="148.665" gradientUnits="userSpaceOnUse">
<stop stop-color="#2C7C61"/>
<stop offset="1" stop-color="#2C7C61" stop-opacity="0"/>
</linearGradient>
<linearGradient id="paint7_linear_4385_302686" x1="121.561" y1="135.713" x2="145.862" y2="127.635" gradientUnits="userSpaceOnUse">
<stop stop-color="#DEDD1C"/>
<stop offset="1" stop-color="#D8DB1F" stop-opacity="0"/>
</linearGradient>
<linearGradient id="paint8_linear_4385_302686" x1="180.396" y1="126.751" x2="175.706" y2="126.214" gradientUnits="userSpaceOnUse">
<stop stop-color="#2C7C61"/>
<stop offset="1" stop-color="#2C7C61" stop-opacity="0"/>
</linearGradient>
<linearGradient id="paint9_linear_4385_302686" x1="177.886" y1="137.257" x2="172.637" y2="133.884" gradientUnits="userSpaceOnUse">
<stop stop-color="#2C7C61"/>
<stop offset="1" stop-color="#2C7C61" stop-opacity="0"/>
</linearGradient>
<linearGradient id="paint10_linear_4385_302686" x1="160.135" y1="138.478" x2="172.236" y2="158.248" gradientUnits="userSpaceOnUse">
<stop stop-color="#2C7C61"/>
<stop offset="1" stop-color="#2C7C61" stop-opacity="0"/>
</linearGradient>
<linearGradient id="paint11_linear_4385_302686" x1="151.081" y1="153.892" x2="167.518" y2="139.485" gradientUnits="userSpaceOnUse">
<stop stop-color="#DEDD1C"/>
<stop offset="1" stop-color="#D8DB1F" stop-opacity="0"/>
</linearGradient>
<linearGradient id="paint12_linear_4385_302686" x1="142.511" y1="131.086" x2="101.5" y2="136.945" gradientUnits="userSpaceOnUse">
<stop stop-color="#2C7C61"/>
<stop offset="1" stop-color="#2C7C61" stop-opacity="0"/>
</linearGradient>
<linearGradient id="paint13_linear_4385_302686" x1="108.51" y1="159.493" x2="117.705" y2="133.253" gradientUnits="userSpaceOnUse">
<stop stop-color="#DEDD1C"/>
<stop offset="1" stop-color="#D8DB1F" stop-opacity="0"/>
</linearGradient>
</defs>
</svg>
