<svg width="346" height="144" viewBox="0 0 346 144" fill="none" xmlns="http://www.w3.org/2000/svg">
<path d="M324.258 62.1509C340.672 70.7407 348.581 89.9633 345.251 105.919C339.677 132.616 302.697 149.856 279.941 135.865C262.82 125.338 255.725 98.346 268.278 78.2763C279.803 59.8507 304.907 52.0251 324.258 62.1509Z" fill="#EBBB50"/>
<path d="M279.941 135.866C302.697 149.857 339.676 132.617 345.25 105.92C348.582 89.9644 340.672 70.7417 324.257 62.1519C304.907 52.0261 279.803 59.8518 268.278 78.2773C255.726 98.3461 262.819 125.339 279.941 135.866ZM275.162 78.8234C275.402 75.144 277.251 71.0037 281.041 69.8136C288.148 65.8563 297.2 65.6993 304.852 67.9955C311.169 69.8916 322.051 74.78 318.288 83.1558C316.781 86.512 313.394 88.8813 310.078 90.2994C306.877 91.6695 303.649 91.8445 300.217 92.0125C293.527 92.3406 285.314 92.6446 279.681 88.4222C276.664 86.161 274.917 82.5707 275.162 78.8234Z" fill="url(#paint0_linear_4929_362138)"/>
<path d="M337.813 121.093C336.771 122.404 331.231 129.207 321.522 133.592C318.707 134.863 294.739 145.23 276.537 130.912C262.325 119.734 262.116 101.758 262.128 99.1141C262.405 91.9695 264.222 84.7639 268.279 78.2763C270.149 75.286 272.477 72.6909 274.981 70.2897C274.955 70.3817 274.902 70.4617 274.875 70.5527C273.001 77.2122 273.78 84.2788 277.09 90.3633C280.764 97.1209 287.505 101.851 294.564 104.652C311.251 111.271 335.659 105.063 344.513 89.4783C345.155 92.2406 345.617 95.0227 345.779 97.778C345.881 99.5181 345.863 102.641 345.251 105.919C343.857 113.374 339.805 118.588 337.813 121.093Z" fill="url(#paint1_linear_4929_362138)"/>
<path d="M273.211 122.205C273.996 120.346 273.716 118.54 273.568 117.744C273.138 115.43 272.933 111.833 273.959 106.212C276.415 107.269 280.059 109.303 283.004 113.131C287.782 119.343 286.987 125.42 286.906 125.877C286.826 126.326 286.592 126.647 286.592 126.647C286.214 127.171 285.57 127.424 284.862 127.502C283.8 127.62 282.71 127.533 281.642 127.576C280.104 127.638 278.567 127.693 277.03 127.801C275.831 127.885 274.635 128.006 273.442 128.151C272.369 127.075 271.4 125.961 270.521 124.822C271.684 124.267 272.684 123.452 273.211 122.205Z" fill="url(#paint2_linear_4929_362138)"/>
<path d="M75.0034 103.51C73.7553 100.583 72.5262 97.592 71.3221 94.5347C67.1427 83.9298 63.6864 73.6399 60.8212 63.783C57.9399 64.3341 54.5316 64.7841 50.6953 64.9081C46.5629 65.0412 42.8926 64.7652 39.8193 64.3461C40.0404 68.5045 40.5624 74.273 41.8815 81.0345C44.6907 95.4268 47.503 109.834 55.9227 112.353C63.1453 114.513 71.5001 107.031 75.0034 103.51Z" fill="#808E35"/>
<path d="M75.0034 103.51C73.7553 100.583 72.5262 97.592 71.3221 94.5347C67.1427 83.9298 63.6864 73.6399 60.8212 63.783C57.9399 64.3341 54.5316 64.7841 50.6953 64.9081C46.5629 65.0412 42.8926 64.7652 39.8193 64.3461C40.0404 68.5045 40.5624 74.273 41.8815 81.0345C44.6907 95.4268 47.503 109.834 55.9227 112.353C63.1453 114.513 71.5001 107.031 75.0034 103.51Z" fill="url(#paint3_linear_4929_362138)"/>
<path d="M0.0667438 1.52873C-1.01835 4.12295 11.3267 8.1353 22.5687 21.4054C34.2737 35.2226 38.3641 51.5 39.8202 64.3461C40.4782 65.0162 44.2145 68.6895 50.1331 68.6585C56.4176 68.6255 60.2379 64.4441 60.821 63.7831C61.266 59.0206 61.384 51.8451 59.3209 43.5313C58.4438 39.996 55.1415 27.3229 44.8826 16.904C28.0872 -0.150423 1.58187 -2.09158 0.0667438 1.52873Z" fill="#808E35"/>
<path d="M0.0667438 1.52873C-1.01835 4.12295 11.3267 8.1353 22.5687 21.4054C34.2737 35.2226 38.3641 51.5 39.8202 64.3461C40.4782 65.0162 44.2145 68.6895 50.1331 68.6585C56.4176 68.6255 60.2379 64.4441 60.821 63.7831C61.266 59.0206 61.384 51.8451 59.3209 43.5313C58.4438 39.996 55.1415 27.3229 44.8826 16.904C28.0872 -0.150423 1.58187 -2.09158 0.0667438 1.52873Z" fill="url(#paint4_linear_4929_362138)"/>
<path d="M213.269 120.354C213.521 123.054 213.584 127.022 212.541 131.646C211.537 136.097 209.871 139.547 208.534 141.846C217.284 143.247 224.002 142.576 228.204 141.846C244.113 139.081 250.293 130.884 267.546 127.275C274.61 125.796 280.507 125.72 283.938 125.817C284.59 123.277 284.53 121.169 284.302 119.625C282.748 109.111 270.376 104.335 269.367 103.962C262.947 103.513 253.898 103.61 243.504 106.147C229.425 109.585 219.22 115.951 213.269 120.354Z" fill="#808E35"/>
<path d="M212.541 131.647C213.584 127.022 213.521 123.054 213.269 120.355C219.219 115.951 229.424 109.585 243.504 106.149C252.14 104.04 259.821 103.626 265.863 103.801C267.978 104.231 271.788 105.312 275.492 108.297C278.579 110.784 280.165 113.416 281.123 115.112C281.925 116.532 282.539 118.077 282.809 119.69C283.015 120.921 283.106 122.582 282.31 123.644C281.731 124.416 280.709 124.628 279.807 124.765C278.263 125.001 276.704 125.093 275.164 125.373C272.985 125.768 270.851 126.355 268.75 127.048C268.348 127.125 267.957 127.189 267.547 127.275C250.295 130.885 244.114 139.081 228.205 141.847C224.003 142.577 217.285 143.248 208.535 141.847C209.871 139.547 211.537 136.098 212.541 131.647Z" fill="url(#paint5_linear_4929_362138)"/>
<path d="M213.269 120.354C213.551 123.521 213.571 128.309 211.981 133.785C211.022 137.087 209.726 139.788 208.533 141.846C204.26 142.721 198.641 143.426 192.082 143.067C182.639 142.552 175.111 140.045 170.194 137.944C170.004 135.603 169.995 131.821 171.359 127.467C173.027 122.138 175.929 118.575 177.645 116.756C182.432 115.827 189.451 115.043 197.777 116.167C204.151 117.026 209.396 118.746 213.269 120.354Z" fill="#808E35"/>
<path d="M213.269 120.354C213.551 123.521 213.571 128.309 211.981 133.785C211.022 137.087 209.726 139.788 208.533 141.846C204.26 142.721 198.641 143.426 192.082 143.067C182.639 142.552 175.111 140.045 170.194 137.944C170.004 135.603 169.995 131.821 171.359 127.467C173.027 122.138 175.929 118.575 177.645 116.756C182.432 115.827 189.451 115.043 197.777 116.167C204.151 117.026 209.396 118.746 213.269 120.354Z" fill="url(#paint6_linear_4929_362138)"/>
<path d="M118.968 116.523C118.58 124.051 118.192 131.581 117.804 139.11C120.449 139.765 124.764 140.665 130.145 140.973C138.678 141.46 143.561 140.095 156.69 138.878C159.858 138.583 164.505 138.206 170.196 137.946C171.289 134.948 172.376 131.921 173.456 128.866C174.894 124.796 176.291 120.76 177.647 116.758C177.248 116.707 176.463 116.603 175.479 116.457C170.568 115.725 166.947 114.842 166.22 114.671C142.509 109.101 122.41 115.349 122.41 115.349C120.896 115.817 119.687 116.255 118.968 116.523Z" fill="#808E35"/>
<path d="M118.968 116.523C118.58 124.051 118.192 131.581 117.804 139.11C120.449 139.765 124.764 140.665 130.145 140.973C138.678 141.46 143.561 140.095 156.69 138.878C159.858 138.583 164.505 138.206 170.196 137.946C171.289 134.948 172.376 131.921 173.456 128.866C174.894 124.796 176.291 120.76 177.647 116.758C177.248 116.707 176.463 116.603 175.479 116.457C170.568 115.725 166.947 114.842 166.22 114.671C142.509 109.101 122.41 115.349 122.41 115.349C120.896 115.817 119.687 116.255 118.968 116.523Z" fill="url(#paint7_linear_4929_362138)"/>
<path d="M75.0034 103.51C69.8799 108.801 64.7565 114.091 59.634 119.382C62.6873 121.069 67.0227 123.374 72.3311 125.897C81.1279 130.079 88.7676 133.711 98.8944 136.255C103.458 137.402 109.878 138.668 117.806 139.11C118.885 137.044 120.358 133.585 120.78 129.072C121.314 123.356 119.891 118.847 118.971 116.524C116.265 116.33 112.302 115.825 107.75 114.37C102.786 112.784 99.5045 110.83 97.7263 109.86C93.1269 107.351 85.9853 104.542 75.0034 103.51Z" fill="#808E35"/>
<path d="M75.0034 103.51C69.8799 108.801 64.7565 114.091 59.634 119.382C62.6873 121.069 67.0227 123.374 72.3311 125.897C81.1279 130.079 88.7676 133.711 98.8944 136.255C103.458 137.402 109.878 138.668 117.806 139.11C118.885 137.044 120.358 133.585 120.78 129.072C121.314 123.356 119.891 118.847 118.971 116.524C116.265 116.33 112.302 115.825 107.75 114.37C102.786 112.784 99.5045 110.83 97.7263 109.86C93.1269 107.351 85.9853 104.542 75.0034 103.51Z" fill="url(#paint8_linear_4929_362138)"/>
<path d="M8.98133 113.983C8.40928 110.951 20.4553 105.635 30.4352 102.966C49.0078 98.001 65.3422 100.888 75.003 103.51C74.602 105.4 73.7819 108.021 71.9908 110.697C67.9044 116.801 61.6949 118.811 59.6337 119.381C57.4825 119.23 50.992 118.775 48.7978 118.621C14.8338 116.249 9.34937 115.939 8.98133 113.983Z" fill="#808E35"/>
<path d="M8.98133 113.983C8.40928 110.951 20.4553 105.635 30.4352 102.966C49.0078 98.001 65.3422 100.888 75.003 103.51C74.602 105.4 73.7819 108.021 71.9908 110.697C67.9044 116.801 61.6949 118.811 59.6337 119.381C57.4825 119.23 50.992 118.775 48.7978 118.621C14.8338 116.249 9.34937 115.939 8.98133 113.983Z" fill="url(#paint9_linear_4929_362138)"/>
<path d="M129.76 78.8474C127.141 81.0386 129.615 88.9123 132.611 93.7377C136.535 100.059 141.416 101.247 148.768 107.044C152.692 110.137 157.857 114.966 162.867 122.409C164.393 123.425 165.753 123.736 166.668 123.835C170.746 124.273 175.014 121.444 177.646 116.756C175.561 113.73 172.391 109.432 168.093 104.668C154.783 89.9134 134.458 74.9161 129.76 78.8474Z" fill="#808E35"/>
<path d="M129.76 78.8474C127.141 81.0386 129.615 88.9123 132.611 93.7377C136.535 100.059 141.416 101.247 148.768 107.044C152.692 110.137 157.857 114.966 162.867 122.409C164.393 123.425 165.753 123.736 166.668 123.835C170.746 124.273 175.014 121.444 177.646 116.756C175.561 113.73 172.391 109.432 168.093 104.668C154.783 89.9134 134.458 74.9161 129.76 78.8474Z" fill="url(#paint10_linear_4929_362138)"/>
<path d="M25.3207 24.9147C24.4476 23.7316 23.5435 22.5575 22.5675 21.4054C21.8474 20.5554 21.1223 19.7463 20.3973 18.9702C20.7073 19.1842 20.9803 19.4463 21.2763 19.6793C22.8285 21.2654 24.2156 23.0046 25.3207 24.9147Z" fill="url(#paint11_linear_4929_362138)"/>
<path d="M59.3179 69.5086C56.8357 68.5805 53.2504 71.0437 51.7133 73.691C50.0921 76.4842 50.9272 79.6464 52.6643 85.858C54.5185 92.4915 55.4456 95.8078 58.3678 98.025C62.4302 101.108 68.8137 101.53 70.1549 99.3561C71.296 97.507 67.9386 95.1648 65.0214 88.7092C60.294 78.2503 63.0022 70.8867 59.3179 69.5086Z" fill="url(#paint12_linear_4929_362138)"/>
<path d="M14.7322 3.92092C16.1013 2.00775 33.2267 8.71832 45.6968 23.1976C46.4999 24.1296 63.4893 44.2644 58.0009 57.8535C57.6408 58.7436 56.5328 61.4889 54.9246 61.5449C51.6653 61.6589 49.2991 50.6219 47.1319 44.1144C38.3542 17.7561 13.039 6.28612 14.7322 3.92092Z" fill="url(#paint13_linear_4929_362138)"/>
<path d="M20.2684 110.145C20.0053 108.528 28.6101 105.523 36.0587 103.994C48.3648 101.466 65.6093 101.306 67.2284 106.66C67.9335 108.989 65.5673 111.992 63.3321 113.427C58.9187 116.261 53.8783 113.71 46.1066 111.992C30.8023 108.606 20.5544 111.906 20.2684 110.145Z" fill="url(#paint14_linear_4929_362138)"/>
<path d="M77.2774 113.426C76.7843 111.293 77.3064 108.63 78.8905 107.345C81.9398 104.873 88.3243 107.992 93.4808 110.512C100.036 113.715 99.3293 114.884 103.887 116.507C110.977 119.033 114.746 116.936 117.326 120.061C119.213 122.346 119.585 126.358 117.88 128.191C116.216 129.979 112.989 129.243 100.449 125.114C81.8368 118.988 78.1134 117.044 77.2774 113.426Z" fill="url(#paint15_linear_4929_362138)"/>
<path d="M123.476 118.028C123.159 119.446 125.148 120.242 126.099 123.712C126.852 126.459 126.021 127.477 126.828 128.522C128.387 130.539 133.077 128.808 138.051 127.793C149.698 125.416 158.66 127.839 158.893 126.335C159.02 125.52 156.322 125.196 153.792 122.109C151.925 119.831 152.353 118.737 151.169 117.154C148.175 113.153 140.847 114.002 132.513 114.967C124.316 115.917 123.607 117.444 123.476 118.028Z" fill="url(#paint16_linear_4929_362138)"/>
<path d="M132.367 81.8817C131.383 83.0978 135.536 88.4922 139.801 92.0845C144.428 95.9819 148.033 96.787 152.335 98.7891C165.573 104.95 171.387 115.927 172.01 115.405C172.615 114.897 166.83 104.813 156.415 95.5828C146.4 86.706 133.794 80.1175 132.367 81.8817Z" fill="url(#paint17_linear_4929_362138)"/>
<path d="M181.483 119.735C179.324 121.626 177.332 125.149 178.402 127.072C179.271 128.635 181.837 128.558 184.418 128.687C197.793 129.354 203.072 135.09 206.577 131.915C208.368 130.293 208.662 127.28 208.044 125.164C205.754 117.314 188.51 113.582 181.483 119.735Z" fill="url(#paint18_linear_4929_362138)"/>
<path d="M219.238 121.984C219.408 123.328 220.634 124.65 221.909 125.156C224.915 126.35 228.731 123.226 229.923 122.318C241.631 113.401 266.588 115.36 266.659 111.798C266.695 109.953 260.02 108.077 254.971 107.457C237.155 105.271 218.496 116.138 219.238 121.984Z" fill="url(#paint19_linear_4929_362138)"/>
<defs>
<linearGradient id="paint0_linear_4929_362138" x1="351.45" y1="197.585" x2="289.776" y2="71.1227" gradientUnits="userSpaceOnUse">
<stop stop-color="#7B3A14"/>
<stop offset="1" stop-color="#7B3A14" stop-opacity="0"/>
</linearGradient>
<linearGradient id="paint1_linear_4929_362138" x1="407.465" y1="204.235" x2="286.141" y2="86.7019" gradientUnits="userSpaceOnUse">
<stop stop-color="#7B3A14"/>
<stop offset="1" stop-color="#7B3A14" stop-opacity="0"/>
</linearGradient>
<linearGradient id="paint2_linear_4929_362138" x1="417.244" y1="255.161" x2="259.33" y2="102.182" gradientUnits="userSpaceOnUse">
<stop stop-color="#7B3A14"/>
<stop offset="1" stop-color="#7B3A14" stop-opacity="0"/>
</linearGradient>
<linearGradient id="paint3_linear_4929_362138" x1="68.0109" y1="128.189" x2="54.2922" y2="78.9628" gradientUnits="userSpaceOnUse">
<stop stop-color="#3F552B"/>
<stop offset="1" stop-color="#3F552B" stop-opacity="0"/>
</linearGradient>
<linearGradient id="paint4_linear_4929_362138" x1="47.8742" y1="199.505" x2="31.2051" y2="34.9631" gradientUnits="userSpaceOnUse">
<stop stop-color="#3F552B"/>
<stop offset="1" stop-color="#3F552B" stop-opacity="0"/>
</linearGradient>
<linearGradient id="paint5_linear_4929_362138" x1="351.702" y1="110.257" x2="224.253" y2="125.068" gradientUnits="userSpaceOnUse">
<stop stop-color="#3F552B"/>
<stop offset="1" stop-color="#3F552B" stop-opacity="0"/>
</linearGradient>
<linearGradient id="paint6_linear_4929_362138" x1="277.462" y1="130.758" x2="180.803" y2="129.198" gradientUnits="userSpaceOnUse">
<stop stop-color="#3F552B"/>
<stop offset="1" stop-color="#3F552B" stop-opacity="0"/>
</linearGradient>
<linearGradient id="paint7_linear_4929_362138" x1="243.995" y1="134.446" x2="129.019" y2="125.872" gradientUnits="userSpaceOnUse">
<stop stop-color="#3F552B"/>
<stop offset="1" stop-color="#3F552B" stop-opacity="0"/>
</linearGradient>
<linearGradient id="paint8_linear_4929_362138" x1="183.291" y1="132.816" x2="79.2269" y2="119.175" gradientUnits="userSpaceOnUse">
<stop stop-color="#3F552B"/>
<stop offset="1" stop-color="#3F552B" stop-opacity="0"/>
</linearGradient>
<linearGradient id="paint9_linear_4929_362138" x1="106.834" y1="126.231" x2="41.7456" y2="109.082" gradientUnits="userSpaceOnUse">
<stop stop-color="#3F552B"/>
<stop offset="1" stop-color="#3F552B" stop-opacity="0"/>
</linearGradient>
<linearGradient id="paint10_linear_4929_362138" x1="133.102" y1="131.873" x2="156.495" y2="93.0505" gradientUnits="userSpaceOnUse">
<stop stop-color="#3F552B"/>
<stop offset="1" stop-color="#3F552B" stop-opacity="0"/>
</linearGradient>
<linearGradient id="paint11_linear_4929_362138" x1="1.76474" y1="-93.0253" x2="41.3762" y2="122.858" gradientUnits="userSpaceOnUse">
<stop stop-color="#C8D34F"/>
<stop offset="1" stop-color="#C8D34F" stop-opacity="0"/>
</linearGradient>
<linearGradient id="paint12_linear_4929_362138" x1="31.0569" y1="18.1386" x2="63.0677" y2="94.3992" gradientUnits="userSpaceOnUse">
<stop stop-color="#C8D34F"/>
<stop offset="1" stop-color="#C8D34F" stop-opacity="0"/>
</linearGradient>
<linearGradient id="paint13_linear_4929_362138" x1="7.46044" y1="-32.6189" x2="54.5282" y2="59.3016" gradientUnits="userSpaceOnUse">
<stop stop-color="#C8D34F"/>
<stop offset="1" stop-color="#C8D34F" stop-opacity="0"/>
</linearGradient>
<linearGradient id="paint14_linear_4929_362138" x1="-23.4028" y1="96.0694" x2="63.2634" y2="110.514" gradientUnits="userSpaceOnUse">
<stop stop-color="#C8D34F"/>
<stop offset="1" stop-color="#C8D34F" stop-opacity="0"/>
</linearGradient>
<linearGradient id="paint15_linear_4929_362138" x1="64.2234" y1="44.2623" x2="102.742" y2="128.521" gradientUnits="userSpaceOnUse">
<stop stop-color="#C8D34F"/>
<stop offset="1" stop-color="#C8D34F" stop-opacity="0"/>
</linearGradient>
<linearGradient id="paint16_linear_4929_362138" x1="63.4871" y1="81.9916" x2="147.504" y2="127.199" gradientUnits="userSpaceOnUse">
<stop stop-color="#C8D34F"/>
<stop offset="1" stop-color="#C8D34F" stop-opacity="0"/>
</linearGradient>
<linearGradient id="paint17_linear_4929_362138" x1="120.743" y1="21.5717" x2="155.715" y2="107.721" gradientUnits="userSpaceOnUse">
<stop stop-color="#C8D34F"/>
<stop offset="1" stop-color="#C8D34F" stop-opacity="0"/>
</linearGradient>
<linearGradient id="paint18_linear_4929_362138" x1="137.824" y1="84.3351" x2="201.37" y2="131.248" gradientUnits="userSpaceOnUse">
<stop stop-color="#C8D34F"/>
<stop offset="1" stop-color="#C8D34F" stop-opacity="0"/>
</linearGradient>
<linearGradient id="paint19_linear_4929_362138" x1="153.489" y1="72.2798" x2="254.992" y2="123.458" gradientUnits="userSpaceOnUse">
<stop stop-color="#C8D34F"/>
<stop offset="1" stop-color="#C8D34F" stop-opacity="0"/>
</linearGradient>
</defs>
</svg>
