<svg width="120" height="218" viewBox="0 0 120 218" fill="none" xmlns="http://www.w3.org/2000/svg">
<path d="M73.4652 180.063C74.3962 179.831 75.4054 179.874 76.3674 180.246C78.8558 181.205 80.0934 184.001 79.1334 186.488C77.2714 191.312 74.3921 195.828 70.8054 199.547C68.9545 201.47 65.8979 201.524 63.9788 199.672C62.0587 197.822 62.0026 194.765 63.8535 192.846C66.5533 190.046 68.722 186.643 70.125 183.011C70.7133 181.485 71.991 180.43 73.4652 180.063Z" fill="#808E35"/>
<path d="M86.3034 130.075C86.7373 129.967 87.1932 129.917 87.6622 129.935C90.328 130.039 92.4044 132.284 92.2991 134.947C92.0125 142.278 90.7158 149.528 88.443 156.496C87.6172 159.03 84.8934 160.417 82.356 159.589C79.8205 158.764 78.4354 156.038 79.2622 153.502C81.2574 147.381 82.397 141.01 82.6486 134.572C82.7358 132.375 84.275 130.58 86.3034 130.075Z" fill="#808E35"/>
<path d="M83.801 89.6864C83.8111 89.6844 83.8201 89.6814 83.8302 89.6794C86.4207 89.0491 89.0322 90.6404 89.6605 93.232C91.3061 100.011 91.8863 106.973 91.3822 113.928C91.1908 116.588 88.882 118.587 86.2183 118.396C83.5586 118.203 81.5583 115.892 81.7507 113.232C82.1817 107.276 81.6856 101.313 80.2776 95.5099C79.6493 92.9284 81.2255 90.3278 83.801 89.6864Z" fill="#808E35"/>
<path d="M78.1524 71.6698C77.6233 65.3602 76.534 59.0006 74.8715 52.6921C78.6215 58.0295 81.9616 63.7729 84.8137 69.8509C86.9342 74.9308 78.904 77.1215 78.1524 71.6698Z" fill="#808E35"/>
<path d="M80.1654 157.353C80.6014 157.245 81.0603 157.196 81.5333 157.214C84.1971 157.324 86.2684 159.572 86.1602 162.237C85.8796 169.064 83.8693 175.765 80.3448 181.617C78.9708 183.9 76.0024 184.641 73.7185 183.262C71.4336 181.887 70.6962 178.921 72.0731 176.636C74.7619 172.168 76.2972 167.051 76.5106 161.84C76.5998 159.649 78.1371 157.86 80.1654 157.353Z" fill="#808E35"/>
<path d="M86.1773 114.304C86.3697 114.256 86.5659 114.22 86.7694 114.196C89.415 113.874 91.8232 115.76 92.1439 118.408C92.6119 122.257 92.4005 126.122 91.5166 129.896C90.9093 132.492 88.3117 134.103 85.7141 133.496C83.1175 132.888 81.5061 130.291 82.1134 127.694C82.7387 125.025 82.8881 122.291 82.5584 119.569C82.2598 117.125 83.8463 114.884 86.1773 114.304Z" fill="#808E35"/>
<path d="M80.1125 87.7142C80.4653 84.5313 80.1946 81.2112 79.2936 78.0424C78.7615 76.1554 79.8598 74.1942 81.7469 73.663C87.5473 72.1739 88.3591 84.1335 88.6477 88.089C88.5765 94.1049 79.6586 93.718 80.1125 87.7142Z" fill="#808E35"/>
<path d="M73.4652 180.063C74.3962 179.831 75.4054 179.874 76.3674 180.246C78.8558 181.205 80.0934 184.001 79.1334 186.488C77.2714 191.312 74.3921 195.828 70.8054 199.547C68.9545 201.47 65.8979 201.524 63.9788 199.672C62.0587 197.822 62.0026 194.765 63.8535 192.846C66.5533 190.046 68.722 186.643 70.125 183.011C70.7133 181.485 71.991 180.43 73.4652 180.063Z" fill="url(#paint0_linear_4950_385054)"/>
<path d="M86.3034 130.075C86.7373 129.967 87.1932 129.917 87.6622 129.935C90.328 130.039 92.4044 132.284 92.2991 134.947C92.0125 142.278 90.7158 149.528 88.443 156.496C87.6172 159.03 84.8934 160.417 82.356 159.589C79.8205 158.764 78.4354 156.038 79.2622 153.502C81.2574 147.381 82.397 141.01 82.6486 134.572C82.7358 132.375 84.275 130.58 86.3034 130.075Z" fill="url(#paint1_linear_4950_385054)"/>
<path d="M83.801 89.6864C83.8111 89.6844 83.8201 89.6814 83.8302 89.6794C86.4207 89.0491 89.0322 90.6404 89.6605 93.232C91.3061 100.011 91.8863 106.973 91.3822 113.928C91.1908 116.588 88.882 118.587 86.2183 118.396C83.5586 118.203 81.5583 115.892 81.7507 113.232C82.1817 107.276 81.6856 101.313 80.2776 95.5099C79.6493 92.9284 81.2255 90.3278 83.801 89.6864Z" fill="url(#paint2_linear_4950_385054)"/>
<path d="M78.1524 71.6698C77.6233 65.3602 76.534 59.0006 74.8715 52.6921C78.6215 58.0295 81.9616 63.7729 84.8137 69.8509C86.9342 74.9308 78.904 77.1215 78.1524 71.6698Z" fill="url(#paint3_linear_4950_385054)"/>
<path d="M80.1654 157.353C80.6014 157.245 81.0603 157.196 81.5333 157.214C84.1971 157.324 86.2684 159.572 86.1602 162.237C85.8796 169.064 83.8693 175.765 80.3448 181.617C78.9708 183.9 76.0024 184.641 73.7185 183.262C71.4336 181.887 70.6962 178.921 72.0731 176.636C74.7619 172.168 76.2972 167.051 76.5106 161.84C76.5998 159.649 78.1371 157.86 80.1654 157.353Z" fill="url(#paint4_linear_4950_385054)"/>
<path d="M86.1773 114.304C86.3697 114.256 86.5659 114.22 86.7694 114.196C89.415 113.874 91.8232 115.76 92.1439 118.408C92.6119 122.257 92.4005 126.122 91.5166 129.896C90.9093 132.492 88.3117 134.103 85.7141 133.496C83.1175 132.888 81.5061 130.291 82.1134 127.694C82.7387 125.025 82.8881 122.291 82.5584 119.569C82.2598 117.125 83.8463 114.884 86.1773 114.304Z" fill="url(#paint5_linear_4950_385054)"/>
<path d="M80.1125 87.7142C80.4653 84.5313 80.1946 81.2112 79.2936 78.0424C78.7615 76.1554 79.8598 74.1942 81.7469 73.663C87.5473 72.1739 88.3591 84.1335 88.6477 88.089C88.5765 94.1049 79.6586 93.718 80.1125 87.7142Z" fill="url(#paint6_linear_4950_385054)"/>
<path d="M70.8054 199.548C74.3911 195.829 77.2714 191.313 79.1334 186.489C79.5883 185.311 79.5361 184.07 79.1062 182.982C79.5882 182.62 80.0143 182.167 80.344 181.619C83.8685 175.767 85.8788 169.066 86.1594 162.239C86.1995 161.25 85.938 160.32 85.4589 159.534C86.8229 159.05 87.9613 157.979 88.4443 156.497C90.7172 149.529 92.0139 142.28 92.3005 134.949C92.3556 133.551 91.7996 132.278 90.8837 131.36C91.1633 130.918 91.3906 130.435 91.5168 129.897C92.4007 126.124 92.6122 122.258 92.1442 118.409C92.0179 117.362 91.5559 116.443 90.8915 115.724C91.1621 115.179 91.3374 114.576 91.3835 113.93C91.8876 106.975 91.3076 100.012 89.662 93.2341C89.3945 92.1327 88.7569 91.2288 87.9271 90.5824C88.358 89.927 88.6378 89.1072 88.6499 88.09C88.4053 84.7428 87.7738 75.6944 84.0758 73.8825C85.0539 73.0137 85.5501 71.6137 84.8145 69.8529C81.9624 63.7739 78.6223 58.0316 74.8723 52.6942C76.5358 59.0017 77.6241 65.3612 78.1532 71.6717C78.3727 73.2651 79.2206 74.1902 80.2498 74.5971C79.3669 75.476 78.933 76.7606 79.2958 78.0444C80.1968 81.2142 80.4672 84.5333 80.1145 87.7161C79.9972 89.2645 80.5093 90.4321 81.3261 91.2197C80.3409 92.3602 79.8961 93.9365 80.2789 95.5119C81.6879 101.315 82.1829 107.278 81.752 113.234C81.6518 114.622 82.1579 115.907 83.0338 116.853C82.6289 117.667 82.4404 118.6 82.5587 119.572C82.8894 122.293 82.739 125.027 82.1136 127.696C81.7168 129.395 82.2801 131.081 83.4365 132.224C82.9996 132.916 82.685 133.696 82.6509 134.574C82.3994 141.012 81.26 147.383 79.2647 153.504C78.8068 154.909 79.0463 156.361 79.7658 157.528C77.9509 158.162 76.595 159.807 76.5108 161.843C76.2973 167.054 74.7621 172.17 72.0733 176.639C71.2626 177.985 71.2024 179.561 71.7425 180.916C71.044 181.441 70.4637 182.138 70.126 183.013C68.723 186.646 66.5543 190.048 63.8545 192.849C62.0035 194.768 62.0597 197.825 63.9798 199.675C65.8979 201.525 68.9545 201.47 70.8054 199.548Z" fill="url(#paint7_linear_4950_385054)"/>
<path d="M52.6002 177.152C51.4707 176.88 50.2502 176.942 49.0887 177.401C46.0853 178.587 44.6141 181.984 45.8016 184.986C48.1026 190.808 51.6332 196.247 56.0105 200.715C58.2704 203.024 61.9714 203.061 64.2763 200.8C66.5833 198.541 66.6203 194.839 64.3615 192.534C61.0654 189.17 58.4076 185.073 56.6728 180.689C55.9453 178.848 54.389 177.583 52.6002 177.152Z" fill="#808E35"/>
<path d="M36.5701 116.759C36.043 116.633 35.4907 116.577 34.9235 116.603C31.6976 116.755 29.2063 119.493 29.3586 122.717C29.7775 131.59 31.4179 140.353 34.238 148.766C35.2622 151.827 38.5743 153.479 41.6369 152.452C44.6975 151.428 46.348 148.114 45.3228 145.053C42.8475 137.662 41.4055 129.961 41.0387 122.168C40.9124 119.51 39.0304 117.352 36.5701 116.759Z" fill="#808E35"/>
<path d="M39.2056 67.8395C39.1946 67.8365 39.1827 67.8345 39.1706 67.8315C36.0279 67.0939 32.8821 69.0461 32.1465 72.1899C30.2204 80.4115 29.5861 88.8466 30.2636 97.2637C30.5211 100.482 33.3362 102.88 36.5591 102.622C39.777 102.363 42.176 99.5445 41.9175 96.3266C41.3372 89.1201 41.8793 81.8967 43.5279 74.8576C44.2635 71.7239 42.3293 68.5911 39.2056 67.8395Z" fill="#808E35"/>
<path d="M45.8683 45.9727C46.4475 38.3283 47.7043 30.6188 49.6564 22.9664C45.1678 29.4643 41.1813 36.4493 37.787 43.8372C35.2676 50.0064 45.0105 52.5809 45.8683 45.9727Z" fill="#808E35"/>
<path d="M44.2673 149.725C43.7391 149.598 43.1829 149.543 42.6096 149.57C39.3857 149.729 36.9004 152.471 37.0577 155.696C37.4646 163.958 39.963 172.051 44.2873 179.1C45.9729 181.852 49.5736 182.719 52.3255 181.028C55.0784 179.341 55.9424 175.743 54.2538 172.99C50.9547 167.607 49.0465 161.428 48.7368 155.121C48.6065 152.469 46.7275 150.317 44.2673 149.725Z" fill="#808E35"/>
<path d="M36.5698 97.6655C36.3363 97.6094 36.0977 97.5673 35.8512 97.5403C32.6443 97.1765 29.7482 99.4823 29.3864 102.691C28.8573 107.356 29.1508 112.033 30.2572 116.593C31.0178 119.73 34.1785 121.655 37.3162 120.896C40.454 120.135 42.38 116.974 41.6194 113.837C40.8367 110.612 40.6283 107.305 41.0021 104.006C41.3388 101.043 39.3968 98.346 36.5698 97.6655Z" fill="#808E35"/>
<path d="M43.6507 65.4153C43.1927 61.5651 43.4874 57.5435 44.5477 53.6982C45.173 51.4083 43.824 49.0453 41.5341 48.4199C34.497 46.6732 33.6311 61.1603 33.3205 65.9515C33.4668 73.2351 44.26 72.6799 43.6507 65.4153Z" fill="#808E35"/>
<path d="M52.6002 177.152C51.4707 176.88 50.2502 176.942 49.0887 177.401C46.0853 178.587 44.6141 181.984 45.8016 184.986C48.1026 190.808 51.6332 196.247 56.0105 200.715C58.2704 203.024 61.9714 203.061 64.2763 200.8C66.5833 198.541 66.6203 194.839 64.3615 192.534C61.0654 189.17 58.4076 185.073 56.6728 180.689C55.9453 178.848 54.389 177.583 52.6002 177.152Z" fill="url(#paint8_linear_4950_385054)"/>
<path d="M36.5701 116.759C36.043 116.633 35.4907 116.577 34.9235 116.603C31.6976 116.755 29.2063 119.493 29.3586 122.717C29.7775 131.59 31.4179 140.353 34.238 148.766C35.2622 151.827 38.5743 153.479 41.6369 152.452C44.6975 151.428 46.348 148.114 45.3228 145.053C42.8475 137.662 41.4055 129.961 41.0387 122.168C40.9124 119.51 39.0304 117.352 36.5701 116.759Z" fill="url(#paint9_linear_4950_385054)"/>
<path d="M39.2056 67.8395C39.1946 67.8365 39.1827 67.8345 39.1706 67.8315C36.0279 67.0939 32.8821 69.0461 32.1465 72.1899C30.2204 80.4115 29.5861 88.8466 30.2636 97.2637C30.5211 100.482 33.3362 102.88 36.5591 102.622C39.777 102.363 42.176 99.5445 41.9175 96.3266C41.3372 89.1201 41.8793 81.8967 43.5279 74.8576C44.2635 71.7239 42.3293 68.5911 39.2056 67.8395Z" fill="url(#paint10_linear_4950_385054)"/>
<path d="M45.8683 45.9727C46.4475 38.3283 47.7043 30.6188 49.6564 22.9664C45.1678 29.4643 41.1813 36.4493 37.787 43.8372C35.2676 50.0064 45.0105 52.5809 45.8683 45.9727Z" fill="url(#paint11_linear_4950_385054)"/>
<path d="M44.2673 149.725C43.7391 149.598 43.1829 149.543 42.6096 149.57C39.3857 149.729 36.9004 152.471 37.0577 155.696C37.4646 163.958 39.963 172.051 44.2873 179.1C45.9729 181.852 49.5736 182.719 52.3255 181.028C55.0784 179.341 55.9424 175.743 54.2538 172.99C50.9547 167.607 49.0465 161.428 48.7368 155.121C48.6065 152.469 46.7275 150.317 44.2673 149.725Z" fill="url(#paint12_linear_4950_385054)"/>
<path d="M36.5698 97.6655C36.3363 97.6094 36.0977 97.5673 35.8512 97.5403C32.6443 97.1765 29.7482 99.4823 29.3864 102.691C28.8573 107.356 29.1508 112.033 30.2572 116.593C31.0178 119.73 34.1785 121.655 37.3162 120.896C40.454 120.135 42.38 116.974 41.6194 113.837C40.8367 110.612 40.6283 107.305 41.0021 104.006C41.3388 101.043 39.3968 98.346 36.5698 97.6655Z" fill="url(#paint13_linear_4950_385054)"/>
<path d="M43.6507 65.4153C43.1927 61.5651 43.4874 57.5435 44.5477 53.6982C45.173 51.4083 43.824 49.0453 41.5341 48.4199C34.497 46.6732 33.6311 61.1603 33.3205 65.9515C33.4668 73.2351 44.26 72.6799 43.6507 65.4153Z" fill="url(#paint14_linear_4950_385054)"/>
<path d="M56.0097 200.715C51.6323 196.248 48.1017 190.809 45.8008 184.987C45.2386 183.566 45.2897 182.062 45.7998 180.741C45.2126 180.307 44.6934 179.762 44.2885 179.101C39.9642 172.052 37.4658 163.958 37.0589 155.697C37.0008 154.5 37.3085 153.372 37.8807 152.415C36.2252 151.842 34.8362 150.556 34.2379 148.767C31.4179 140.354 29.7784 131.59 29.3595 122.718C29.2794 121.027 29.9398 119.48 31.0401 118.359C30.6974 117.826 30.4168 117.244 30.2584 116.593C29.1521 112.033 28.8586 107.356 29.3867 102.691C29.53 101.423 30.079 100.306 30.8777 99.4283C30.545 98.7709 30.3267 98.0423 30.2646 97.2616C29.5861 88.8456 30.2204 80.4105 32.1465 72.1879C32.4592 70.852 33.2229 69.7517 34.221 68.961C33.6939 68.1723 33.3472 67.1821 33.3221 65.9505C33.5847 61.8958 34.2611 50.9354 38.7216 48.7066C37.5291 47.6644 36.9146 45.9736 37.7875 43.836C41.1808 36.4492 45.1683 29.4643 49.657 22.9654C47.7048 30.6178 46.4491 38.3283 45.8688 45.9717C45.6183 47.9039 44.6012 49.0312 43.3595 49.5333C44.4368 50.5886 44.975 52.1399 44.5491 53.6973C43.4888 57.5435 43.1942 61.5642 43.6521 65.4144C43.8095 67.2874 43.2012 68.7054 42.2191 69.6674C43.4227 71.0384 43.9768 72.9425 43.5288 74.8546C41.8803 81.8937 41.3382 89.1171 41.9184 96.3236C42.0537 98.0032 41.4535 99.5625 40.4023 100.718C40.9003 101.701 41.1367 102.829 41.0034 104.005C40.6296 107.304 40.838 110.611 41.6207 113.836C42.1178 115.889 41.4524 117.937 40.0634 119.331C40.5985 120.166 40.9885 121.106 41.0386 122.168C41.4054 129.961 42.8474 137.662 45.3227 145.053C45.8909 146.75 45.6154 148.511 44.7546 149.929C46.9573 150.679 48.6158 152.656 48.737 155.122C49.0467 161.429 50.9549 167.607 54.254 172.991C55.2491 174.612 55.3372 176.521 54.6958 178.165C55.5467 178.793 56.2551 179.632 56.673 180.689C58.4077 185.073 61.0665 189.17 64.3616 192.534C66.6204 194.839 66.5834 198.541 64.2764 200.8C61.9705 203.062 58.2695 203.025 56.0097 200.715Z" fill="url(#paint15_linear_4950_385054)"/>
<path d="M31.0223 113.996C29.8719 110.091 28.9298 106.961 27.8184 104.005C28.8817 107.231 29.88 110.449 30.8931 113.572C30.9382 113.712 30.9772 113.855 31.0223 113.996Z" fill="url(#paint16_linear_4950_385054)"/>
<path d="M43.2764 159.9C44.8057 162.944 46.1455 165.361 47.0795 166.993C48.711 169.845 49.6642 171.287 51.7416 175.011C53.0224 177.308 53.6988 178.442 53.9764 179.134C55.4696 182.859 56.0097 186.961 56.5879 190.905C57.1752 194.906 57.8297 198.85 59.0062 202.727C59.379 203.954 59.844 205.203 60.6548 206.216C61.4334 207.189 62.5007 207.849 63.6402 208.322C65.0863 207.8 66.7127 207.46 68.6629 207.497C68.7501 207.499 68.8292 207.512 68.9154 207.515C69.0176 207.25 69.1068 206.983 69.1779 206.73C69.5427 205.441 69.7272 204.106 69.9968 202.795C70.4127 200.78 70.7683 198.756 71.0259 196.713C71.539 192.644 71.7344 188.544 71.7966 184.447C71.8266 182.476 71.8488 180.503 71.7907 178.533C71.6995 175.471 71.7335 174.177 71.7335 173.617C71.7345 166.492 77.618 162.57 80.1825 152.028C80.1825 152.028 80.6597 150.073 81.0515 146.896C82.7031 133.503 73.7617 116.959 71.6742 112.731C56.614 82.2154 79.2515 46.8014 66.8609 40.2904C66.6675 40.1892 63.8406 38.7542 61.1539 39.8225C49.0008 44.6559 68.7211 83.1564 50.977 116.822C48.2772 121.944 37.8298 139.993 40.6128 151.204C42.107 157.218 43.2764 159.9 43.2764 159.9Z" fill="#808E35"/>
<path d="M43.2764 159.9C44.8057 162.944 46.1455 165.361 47.0795 166.993C48.711 169.845 49.6642 171.287 51.7416 175.011C53.0224 177.308 53.6988 178.442 53.9764 179.134C55.4696 182.859 56.0097 186.961 56.5879 190.905C57.1752 194.906 57.8297 198.85 59.0062 202.727C59.379 203.954 59.844 205.203 60.6548 206.216C61.4334 207.189 62.5007 207.849 63.6402 208.322C65.0863 207.8 66.7127 207.46 68.6629 207.497C68.7501 207.499 68.8292 207.512 68.9154 207.515C69.0176 207.25 69.1068 206.983 69.1779 206.73C69.5427 205.441 69.7272 204.106 69.9968 202.795C70.4127 200.78 70.7683 198.756 71.0259 196.713C71.539 192.644 71.7344 188.544 71.7966 184.447C71.8266 182.476 71.8488 180.503 71.7907 178.533C71.6995 175.471 71.7335 174.177 71.7335 173.617C71.7345 166.492 77.618 162.57 80.1825 152.028C80.1825 152.028 80.6597 150.073 81.0515 146.896C82.7031 133.503 73.7617 116.959 71.6742 112.731C56.614 82.2154 79.2515 46.8014 66.8609 40.2904C66.6675 40.1892 63.8406 38.7542 61.1539 39.8225C49.0008 44.6559 68.7211 83.1564 50.977 116.822C48.2772 121.944 37.8298 139.993 40.6128 151.204C42.107 157.218 43.2764 159.9 43.2764 159.9Z" fill="url(#paint17_linear_4950_385054)"/>
<path d="M43.2764 159.9C44.8057 162.944 46.1455 165.361 47.0795 166.993C48.711 169.845 49.6642 171.287 51.7416 175.011C53.0224 177.308 53.6988 178.442 53.9764 179.134C55.4696 182.859 56.0097 186.961 56.5879 190.905C57.1752 194.906 57.8297 198.85 59.0062 202.727C59.379 203.954 59.844 205.203 60.6548 206.216C61.4334 207.189 62.5007 207.849 63.6402 208.322C65.0863 207.8 66.7127 207.46 68.6629 207.497C68.7501 207.499 68.8292 207.512 68.9154 207.515C69.0176 207.25 69.1068 206.983 69.1779 206.73C69.5427 205.441 69.7272 204.106 69.9968 202.795C70.4127 200.78 70.7683 198.756 71.0259 196.713C71.539 192.644 71.7344 188.544 71.7966 184.447C71.8266 182.476 71.8488 180.503 71.7907 178.533C71.6995 175.471 71.7335 174.177 71.7335 173.617C71.7345 166.492 77.618 162.57 80.1825 152.028C80.1825 152.028 80.6597 150.073 81.0515 146.896C82.7031 133.503 73.7617 116.959 71.6742 112.731C56.614 82.2154 79.2515 46.8014 66.8609 40.2904C66.6675 40.1892 63.8406 38.7542 61.1539 39.8225C49.0008 44.6559 68.7211 83.1564 50.977 116.822C48.2772 121.944 37.8298 139.993 40.6128 151.204C42.107 157.218 43.2764 159.9 43.2764 159.9Z" fill="url(#paint18_linear_4950_385054)"/>
<path d="M53.443 120.793C48.783 131.77 42.6799 139.143 45.1883 149.707C46.9982 157.33 53.2495 166.427 60.7536 166.324C68.0453 166.224 73.5632 157.479 75.6877 151.179C79.9429 138.562 72.2573 130.797 67.5903 113.504C57.9536 77.7999 73.1363 45.7573 64.3294 42.6426C63.1549 42.2267 62.0885 42.5163 61.839 42.5905C51.8415 45.5548 69.0956 83.9251 53.443 120.793Z" fill="#EBBB50"/>
<path d="M61.1786 128.228C69.6087 128.796 75.3279 138.833 73.6744 147.053C72.579 152.501 68.0244 158.259 61.6648 158.901C53.9211 159.683 46.8309 152.541 46.2467 144.781C45.6003 136.165 53.0442 127.68 61.1786 128.228Z" fill="#7B3A14"/>
<path d="M61.1786 128.228C69.6087 128.796 75.3279 138.833 73.6744 147.053C72.579 152.501 68.0244 158.259 61.6648 158.901C53.9211 159.683 46.8309 152.541 46.2467 144.781C45.6003 136.165 53.0442 127.68 61.1786 128.228Z" fill="url(#paint19_linear_4950_385054)"/>
<path d="M55.4983 133.097C57.9465 130.18 65.5368 131.02 69.4552 135.206C75.6986 141.876 70.0264 154.275 65.8846 154.843C60.6203 155.567 51.3354 138.056 55.4983 133.097Z" fill="url(#paint20_linear_4950_385054)"/>
<path d="M78.8648 191.111C80.0182 190.971 81.224 191.173 82.3243 191.763C85.1704 193.287 86.2407 196.831 84.7154 199.676C81.7591 205.195 77.6253 210.191 72.7618 214.124C70.2514 216.159 66.5704 215.768 64.5411 213.256C62.5107 210.747 62.8995 207.065 65.4089 205.036C69.0708 202.074 72.1836 198.31 74.4114 194.155C75.3474 192.41 77.0388 191.332 78.8648 191.111Z" fill="#808E35"/>
<path d="M101.748 132.968C102.286 132.903 102.841 132.911 103.401 133.002C106.588 133.526 108.748 136.532 108.225 139.718C106.786 148.482 104.147 156.999 100.377 165.031C99.0068 167.953 95.5263 169.213 92.602 167.84C89.6798 166.47 88.4221 162.988 89.794 160.065C93.1041 153.009 95.424 145.525 96.6867 137.827C97.1176 135.2 99.2342 133.273 101.748 132.968Z" fill="#808E35"/>
<path d="M104.766 84.0704C104.778 84.0694 104.789 84.0673 104.801 84.0663C108.008 83.6965 110.908 85.9975 111.276 89.2044C112.242 97.5934 111.9 106.045 110.257 114.327C109.63 117.494 106.558 119.551 103.386 118.924C100.219 118.296 98.1609 115.22 98.7893 112.053C100.196 104.962 100.49 97.7237 99.6632 90.5413C99.2944 87.3454 101.576 84.4572 104.766 84.0704Z" fill="#808E35"/>
<path d="M100.668 61.5811C100.973 53.9217 100.613 46.118 99.5562 38.2912C103.265 45.2632 106.422 52.661 108.941 60.3906C110.732 66.8093 100.758 68.2434 100.668 61.5811Z" fill="#808E35"/>
<path d="M90.3023 164.828C90.8415 164.762 91.4006 164.771 91.9658 164.865C95.1496 165.395 97.3033 168.404 96.7752 171.59C95.4193 179.75 92.005 187.502 86.8971 194.006C84.9058 196.546 81.229 196.992 78.6905 194.995C76.1511 193.002 75.7071 189.329 77.7013 186.789C81.5977 181.821 84.2062 175.904 85.2395 169.674C85.6764 167.053 87.7909 165.132 90.3023 164.828Z" fill="#808E35"/>
<path d="M103.948 114.002C104.186 113.972 104.428 113.958 104.675 113.959C107.902 113.967 110.514 116.592 110.504 119.821C110.492 124.516 109.661 129.128 108.036 133.53C106.919 136.558 103.559 138.105 100.528 136.99C97.4996 135.872 95.9504 132.51 97.0668 129.482C98.2163 126.368 98.8045 123.107 98.8135 119.787C98.8205 116.807 101.061 114.351 103.948 114.002Z" fill="#808E35"/>
<path d="M100.63 81.1501C101.528 77.378 101.698 73.3495 101.089 69.408C100.731 67.061 102.343 64.8693 104.69 64.5115C111.882 63.5875 111.072 78.0775 110.829 82.8728C109.844 90.0903 99.1876 88.2954 100.63 81.1501Z" fill="#808E35"/>
<path d="M78.8648 191.111C80.0182 190.971 81.224 191.173 82.3243 191.763C85.1704 193.287 86.2407 196.831 84.7154 199.676C81.7591 205.195 77.6253 210.191 72.7618 214.124C70.2514 216.159 66.5704 215.768 64.5411 213.256C62.5107 210.747 62.8995 207.065 65.4089 205.036C69.0708 202.074 72.1836 198.31 74.4114 194.155C75.3474 192.41 77.0388 191.332 78.8648 191.111Z" fill="url(#paint21_linear_4950_385054)"/>
<path d="M101.748 132.968C102.286 132.903 102.841 132.911 103.401 133.002C106.588 133.526 108.748 136.532 108.225 139.718C106.786 148.482 104.147 156.999 100.377 165.031C99.0068 167.953 95.5263 169.213 92.602 167.84C89.6798 166.47 88.4221 162.988 89.794 160.065C93.1041 153.009 95.424 145.525 96.6867 137.827C97.1176 135.2 99.2342 133.273 101.748 132.968Z" fill="url(#paint22_linear_4950_385054)"/>
<path d="M104.766 84.0704C104.778 84.0694 104.789 84.0673 104.801 84.0663C108.008 83.6965 110.908 85.9975 111.276 89.2044C112.242 97.5934 111.9 106.045 110.257 114.327C109.63 117.494 106.558 119.551 103.386 118.924C100.219 118.296 98.1609 115.22 98.7893 112.053C100.196 104.962 100.49 97.7237 99.6632 90.5413C99.2944 87.3454 101.576 84.4572 104.766 84.0704Z" fill="url(#paint23_linear_4950_385054)"/>
<path d="M100.668 61.5811C100.973 53.9217 100.613 46.118 99.5562 38.2912C103.265 45.2632 106.422 52.661 108.941 60.3906C110.732 66.8093 100.758 68.2434 100.668 61.5811Z" fill="url(#paint24_linear_4950_385054)"/>
<path d="M90.3023 164.828C90.8415 164.762 91.4006 164.771 91.9658 164.865C95.1496 165.395 97.3033 168.404 96.7752 171.59C95.4193 179.75 92.005 187.502 86.8971 194.006C84.9058 196.546 81.229 196.992 78.6905 194.995C76.1511 193.002 75.7071 189.329 77.7013 186.789C81.5977 181.821 84.2062 175.904 85.2395 169.674C85.6764 167.053 87.7909 165.132 90.3023 164.828Z" fill="url(#paint25_linear_4950_385054)"/>
<path d="M103.948 114.002C104.186 113.972 104.428 113.958 104.675 113.959C107.902 113.967 110.514 116.592 110.504 119.821C110.492 124.516 109.661 129.128 108.036 133.53C106.919 136.558 103.559 138.105 100.528 136.99C97.4996 135.872 95.9504 132.51 97.0668 129.482C98.2163 126.368 98.8045 123.107 98.8135 119.787C98.8205 116.807 101.061 114.351 103.948 114.002Z" fill="url(#paint26_linear_4950_385054)"/>
<path d="M100.63 81.1501C101.528 77.378 101.698 73.3495 101.089 69.408C100.731 67.061 102.343 64.8693 104.69 64.5115C111.882 63.5875 111.072 78.0775 110.829 82.8728C109.844 90.0903 99.1876 88.2954 100.63 81.1501Z" fill="url(#paint27_linear_4950_385054)"/>
<path d="M72.7626 214.124C77.626 210.191 81.7598 205.195 84.7162 199.676C85.4377 198.329 85.561 196.83 85.2072 195.459C85.8406 195.095 86.4198 194.614 86.8979 194.004C92.0048 187.5 95.4201 179.748 96.776 171.588C96.9724 170.406 96.796 169.25 96.337 168.234C98.0477 167.856 99.576 166.739 100.377 165.03C104.147 156.998 106.786 148.481 108.225 139.717C108.499 138.045 108.021 136.434 107.057 135.193C107.459 134.703 107.805 134.157 108.036 133.529C109.661 129.128 110.491 124.516 110.503 119.821C110.507 118.544 110.09 117.372 109.398 116.409C109.804 115.793 110.105 115.095 110.257 114.327C111.9 106.046 112.242 97.5934 111.276 89.2044C111.12 87.8415 110.488 86.661 109.587 85.76C110.203 85.0375 110.661 84.0944 110.827 82.8727C111.034 78.815 111.625 67.8495 107.451 65.1207C108.756 64.2228 109.56 62.6144 108.94 60.3896C106.421 52.661 103.264 45.2622 99.5549 38.2902C100.612 46.117 100.972 53.9207 100.666 61.5801C100.692 63.5283 101.573 64.7649 102.749 65.4073C101.557 66.3313 100.845 67.8106 101.087 69.407C101.697 73.3494 101.526 77.378 100.628 81.1491C100.256 82.992 100.697 84.4702 101.561 85.5385C100.207 86.7611 99.4378 88.589 99.6623 90.5392C100.489 97.7216 100.194 104.96 98.7883 112.051C98.4606 113.704 98.8766 115.322 99.7885 116.591C99.1812 117.51 98.8153 118.602 98.8123 119.787C98.8033 123.107 98.2161 126.368 97.0666 129.482C96.3361 131.463 96.7618 133.574 97.9805 135.119C97.3521 135.886 96.8571 136.775 96.6857 137.825C95.423 145.523 93.1031 153.007 89.793 160.063C89.0323 161.683 89.1045 163.464 89.7949 164.972C87.5201 165.464 85.6451 167.237 85.2402 169.671C84.206 175.9 81.5985 181.818 77.7021 186.786C76.5266 188.282 76.22 190.167 76.6669 191.875C75.749 192.401 74.9482 193.151 74.4121 194.153C72.1843 198.309 69.0715 202.072 65.4096 205.034C62.8993 207.063 62.5105 210.745 64.5418 213.254C66.5712 215.768 70.2522 216.159 72.7626 214.124Z" fill="url(#paint28_linear_4950_385054)"/>
<path d="M50.067 188.139C48.6439 187.98 47.1597 188.244 45.8098 188.985C42.3193 190.896 41.0414 195.279 42.9555 198.767C46.6655 205.536 51.8196 211.645 57.8615 216.436C60.9812 218.915 65.513 218.389 67.9853 215.269C70.4596 212.151 69.9364 207.617 66.8177 205.145C62.269 201.537 58.3877 196.934 55.5927 191.838C54.4192 189.699 52.3218 188.391 50.067 188.139Z" fill="#808E35"/>
<path d="M21.1738 116.736C20.5104 116.662 19.8259 116.679 19.1365 116.798C15.2141 117.481 12.5874 121.213 13.2699 125.133C15.1469 135.922 18.5 146.388 23.2432 156.245C24.9669 159.831 29.271 161.343 32.8597 159.615C36.4454 157.892 37.9557 153.584 36.23 149.999C32.0661 141.339 29.1178 132.141 27.4712 122.666C26.908 119.432 24.2754 117.082 21.1738 116.736Z" fill="#808E35"/>
<path d="M16.8757 56.4943C16.8607 56.4923 16.8467 56.4913 16.8317 56.4893C12.8742 56.0704 9.32653 58.9415 8.91064 62.9C7.8183 73.2532 8.34049 83.6675 10.463 93.8573C11.2728 97.7537 15.0848 100.254 18.9872 99.4433C22.8835 98.6315 25.3849 94.8154 24.5731 90.919C22.7552 82.1943 22.3084 73.2751 23.2424 64.4111C23.6593 60.4677 20.8122 56.9342 16.8757 56.4943Z" fill="#808E35"/>
<path d="M21.6639 28.7237C21.1969 19.2855 21.5487 9.66081 22.7593 0.00110099C18.2687 8.63962 14.4653 17.7963 11.4509 27.3538C9.31831 35.2878 21.6309 36.9383 21.6639 28.7237Z" fill="#808E35"/>
<path d="M35.658 155.874C34.9926 155.8 34.3032 155.818 33.6077 155.939C29.6893 156.631 27.0698 160.366 27.7593 164.286C29.527 174.329 33.8271 183.844 40.1997 191.802C42.6841 194.909 47.222 195.416 50.3277 192.925C53.4343 190.437 53.9383 185.905 51.4499 182.797C46.5875 176.72 43.3034 169.456 41.9545 161.789C41.3873 158.563 38.7577 156.22 35.658 155.874Z" fill="#808E35"/>
<path d="M18.2379 93.3814C17.9433 93.3483 17.6444 93.3343 17.3398 93.3384C13.3612 93.3865 10.1736 96.6524 10.2237 100.633C10.2938 106.42 11.3722 112.096 13.4276 117.502C14.8396 121.222 19.0014 123.09 22.7234 121.68C26.4444 120.265 28.3133 116.104 26.9013 112.384C25.4472 108.56 24.6846 104.546 24.6345 100.454C24.5914 96.7787 21.8016 93.7793 18.2379 93.3814Z" fill="#808E35"/>
<path d="M21.9418 52.8465C20.7903 48.2075 20.5329 43.2438 21.2374 38.3764C21.6503 35.4791 19.637 32.7964 16.7397 32.3835C7.86471 31.3293 9.03326 49.1816 9.38902 55.0903C10.6878 63.9763 23.8038 61.6373 21.9418 52.8465Z" fill="#808E35"/>
<path d="M50.067 188.139C48.6439 187.98 47.1597 188.244 45.8098 188.985C42.3193 190.896 41.0414 195.279 42.9555 198.767C46.6655 205.536 51.8196 211.645 57.8615 216.436C60.9812 218.915 65.513 218.389 67.9853 215.269C70.4596 212.151 69.9364 207.617 66.8177 205.145C62.269 201.537 58.3877 196.934 55.5927 191.838C54.4192 189.699 52.3218 188.391 50.067 188.139Z" fill="url(#paint29_linear_4950_385054)"/>
<path d="M21.1738 116.736C20.5104 116.662 19.8259 116.679 19.1365 116.798C15.2141 117.481 12.5874 121.213 13.2699 125.133C15.1469 135.922 18.5 146.388 23.2432 156.245C24.9669 159.831 29.271 161.343 32.8597 159.615C36.4454 157.892 37.9557 153.584 36.23 149.999C32.0661 141.339 29.1178 132.141 27.4712 122.666C26.908 119.432 24.2754 117.082 21.1738 116.736Z" fill="url(#paint30_linear_4950_385054)"/>
<path d="M16.8757 56.4943C16.8607 56.4923 16.8467 56.4913 16.8317 56.4893C12.8742 56.0704 9.32653 58.9415 8.91064 62.9C7.8183 73.2532 8.34049 83.6675 10.463 93.8573C11.2728 97.7537 15.0848 100.254 18.9872 99.4433C22.8835 98.6315 25.3849 94.8154 24.5731 90.919C22.7552 82.1943 22.3084 73.2751 23.2424 64.4111C23.6593 60.4677 20.8122 56.9342 16.8757 56.4943Z" fill="url(#paint31_linear_4950_385054)"/>
<path d="M21.6639 28.7237C21.1969 19.2855 21.5487 9.66081 22.7593 0.00110099C18.2687 8.63962 14.4653 17.7963 11.4509 27.3538C9.31831 35.2878 21.6309 36.9383 21.6639 28.7237Z" fill="url(#paint32_linear_4950_385054)"/>
<path d="M35.658 155.874C34.9926 155.8 34.3032 155.818 33.6077 155.939C29.6893 156.631 27.0698 160.366 27.7593 164.286C29.527 174.329 33.8271 183.844 40.1997 191.802C42.6841 194.909 47.222 195.416 50.3277 192.925C53.4343 190.437 53.9383 185.905 51.4499 182.797C46.5875 176.72 43.3034 169.456 41.9545 161.789C41.3873 158.563 38.7577 156.22 35.658 155.874Z" fill="url(#paint33_linear_4950_385054)"/>
<path d="M18.2379 93.3814C17.9433 93.3483 17.6444 93.3343 17.3398 93.3384C13.3612 93.3865 10.1736 96.6524 10.2237 100.633C10.2938 106.42 11.3722 112.096 13.4276 117.502C14.8396 121.222 19.0014 123.09 22.7234 121.68C26.4444 120.265 28.3133 116.104 26.9013 112.384C25.4472 108.56 24.6846 104.546 24.6345 100.454C24.5914 96.7787 21.8016 93.7793 18.2379 93.3814Z" fill="url(#paint34_linear_4950_385054)"/>
<path d="M21.9418 52.8465C20.7903 48.2075 20.5329 43.2438 21.2374 38.3764C21.6503 35.4791 19.637 32.7964 16.7397 32.3835C7.86471 31.3293 9.03326 49.1816 9.38902 55.0903C10.6878 63.9763 23.8038 61.6373 21.9418 52.8465Z" fill="url(#paint35_linear_4950_385054)"/>
<path d="M57.8608 216.436C51.8198 211.645 46.6647 205.536 42.9558 198.767C42.0498 197.116 41.8806 195.269 42.3015 193.574C41.5169 193.133 40.7971 192.547 40.2009 191.8C33.8282 183.843 29.5272 174.327 27.7594 164.284C27.5038 162.829 27.7073 161.402 28.2605 160.144C26.1479 159.699 24.2508 158.339 23.2436 156.243C18.5014 146.386 15.1473 135.92 13.2713 125.131C12.9125 123.074 13.4826 121.082 14.6561 119.541C14.155 118.942 13.7222 118.273 13.4296 117.502C11.3742 112.095 10.2968 106.419 10.2257 100.633C10.2057 99.0595 10.7058 97.6085 11.5476 96.4129C11.0395 95.6593 10.6607 94.8014 10.4642 93.8574C8.34069 83.6675 7.8195 73.2532 8.91185 62.9C9.08923 61.2174 9.854 59.7553 10.9524 58.6349C10.1857 57.751 9.60939 56.5945 9.38992 55.0903C9.08827 50.0906 8.22952 36.5796 13.3425 33.1683C11.724 32.0769 10.7116 30.1037 11.4512 27.3538C14.4667 17.7963 18.27 8.63962 22.7597 0.00110099C21.5491 9.66181 21.1973 19.2855 21.6643 28.7237C21.6543 31.1248 20.5839 32.6612 19.1428 33.4659C20.6229 34.5913 21.5189 36.4051 21.2373 38.3763C20.5318 43.2438 20.7903 48.2075 21.9417 52.8465C22.4218 55.1133 21.8957 56.9422 20.8434 58.2691C22.526 59.7603 23.4971 62.005 23.2436 64.4112C22.3086 73.2752 22.7567 82.1943 24.5746 90.9191C24.9985 92.9524 24.5044 94.9526 23.396 96.527C24.1557 97.6524 24.6184 98.9954 24.6365 100.455C24.6866 104.546 25.4504 108.561 26.9035 112.384C27.8275 114.817 27.3273 117.426 25.8432 119.345C26.6258 120.283 27.2472 121.374 27.4717 122.665C29.1192 132.14 32.0665 141.338 36.2314 149.998C37.1875 151.985 37.1202 154.182 36.2865 156.049C39.0965 156.628 41.4287 158.792 41.9558 161.788C43.3037 169.455 46.5886 176.719 51.451 182.796C52.9172 184.626 53.3181 186.947 52.7869 189.057C53.9244 189.695 54.9205 190.612 55.593 191.84C58.388 196.936 62.2702 201.539 66.818 205.147C69.9357 207.618 70.4588 212.153 67.9845 215.271C65.5122 218.389 60.9805 218.915 57.8608 216.436Z" fill="url(#paint36_linear_4950_385054)"/>
<path d="M119.925 131.556C119.925 166.93 93.126 195.659 60.002 195.659C40.1715 195.659 24.1994 185.154 13.8011 171.433C4.26068 158.998 -0.670049 143.884 0.0805607 131.555C0.72394 121.371 4.58236 112.368 8.22718 107.222C21.4124 88.3565 30.4166 85.0324 41.1356 72.0626C63.6469 44.6207 52.8198 5.70936 58.9309 0.563332C59.2525 0.241642 59.5741 0.134378 60.002 0.0271478C63.6468 -0.509002 66.9701 6.88785 75.331 22.9673C102.345 74.9578 112.635 85.6769 118.316 116.764C119.495 123.624 119.925 127.055 119.925 131.556Z" fill="url(#paint37_radial_4950_385054)"/>
<path d="M119.925 131.556C119.925 166.93 93.126 195.659 60.002 195.659C40.1715 195.659 24.1994 185.154 13.8011 171.433C4.26068 158.998 -0.670049 143.884 0.0805607 131.555C0.72394 121.371 4.58236 112.368 8.22718 107.222C21.4124 88.3565 30.4166 85.0324 41.1356 72.0626C63.6469 44.6207 52.8198 5.70936 58.9309 0.563332C59.2525 0.241642 59.5741 0.134378 60.002 0.0271478C63.6468 -0.509002 66.9701 6.88785 75.331 22.9673C102.345 74.9578 112.635 85.6769 118.316 116.764C119.495 123.624 119.925 127.055 119.925 131.556Z" fill="url(#paint38_linear_4950_385054)"/>
<path d="M104.483 174.53C93.5111 187.489 77.6563 195.649 60.0044 195.649C40.1749 195.649 24.1936 185.163 13.7923 171.444C4.25887 158.992 -0.666876 143.878 0.0727092 131.553C0.728114 121.364 4.57543 112.379 8.23327 107.221C12.2499 101.45 15.9067 97.1374 19.332 93.5437C16.7956 96.4399 14.111 99.8222 11.2358 103.945C7.57896 109.103 3.73162 118.087 3.07622 128.277C2.33563 140.602 7.26214 155.716 16.7956 168.168C27.1959 181.887 43.1782 192.373 63.0067 192.373C79.1363 192.372 93.7436 185.586 104.483 174.53Z" fill="url(#paint39_linear_4950_385054)"/>
<path d="M39.7111 73.7362C32.9045 81.558 26.7102 85.8491 19.5439 93.3111C26.9217 84.9402 33.137 80.5639 39.7111 73.7362Z" fill="url(#paint40_linear_4950_385054)"/>
<path d="M87.5511 118.372C82.0843 153.318 51.105 177.543 18.4099 172.398C16.8025 172.183 15.3014 171.862 13.8011 171.434C4.26068 158.999 -0.670049 143.885 0.0805607 131.556C0.72394 121.372 4.58236 112.369 8.22718 107.223C21.4124 88.3576 30.4166 85.0335 41.1356 72.0637C63.6469 44.6218 52.8198 5.71035 58.9309 0.56432C59.3588 1.74285 59.7877 2.92236 60.2166 4.20812C78.7613 59.7352 87.444 71.9554 88.0874 103.364C88.3018 110.44 88.1944 113.977 87.5511 118.372Z" fill="url(#paint41_linear_4950_385054)"/>
<path d="M61.5146 27.46C65.1394 27.5972 69.1069 47.977 67.5275 69.9812C67.299 73.165 62.6861 130.515 37.8909 135.696C30.0451 137.336 19.7932 133.831 15.1743 126.637C10.2387 118.949 13.2862 109.473 13.9135 107.522C18.2027 94.184 29.5752 92.0264 40.0386 82.0079C62.0458 60.9368 56.8536 27.2836 61.5146 27.46Z" fill="url(#paint42_linear_4950_385054)"/>
<defs>
<linearGradient id="paint0_linear_4950_385054" x1="74.1345" y1="179.694" x2="67.9498" y2="201.498" gradientUnits="userSpaceOnUse">
<stop stop-color="#C8D34F"/>
<stop offset="1" stop-color="#C8D34F" stop-opacity="0"/>
</linearGradient>
<linearGradient id="paint1_linear_4950_385054" x1="89.8652" y1="130.518" x2="81.6462" y2="159.494" gradientUnits="userSpaceOnUse">
<stop stop-color="#C8D34F"/>
<stop offset="1" stop-color="#C8D34F" stop-opacity="0"/>
</linearGradient>
<linearGradient id="paint2_linear_4950_385054" x1="89.6147" y1="90.7666" x2="82.0545" y2="117.42" gradientUnits="userSpaceOnUse">
<stop stop-color="#C8D34F"/>
<stop offset="1" stop-color="#C8D34F" stop-opacity="0"/>
</linearGradient>
<linearGradient id="paint3_linear_4950_385054" x1="82.2333" y1="54.8757" x2="76.8742" y2="73.7686" gradientUnits="userSpaceOnUse">
<stop stop-color="#C8D34F"/>
<stop offset="1" stop-color="#C8D34F" stop-opacity="0"/>
</linearGradient>
<linearGradient id="paint4_linear_4950_385054" x1="83.0624" y1="157.611" x2="75.5583" y2="184.067" gradientUnits="userSpaceOnUse">
<stop stop-color="#C8D34F"/>
<stop offset="1" stop-color="#C8D34F" stop-opacity="0"/>
</linearGradient>
<linearGradient id="paint5_linear_4950_385054" x1="89.7731" y1="114.755" x2="84.523" y2="133.264" gradientUnits="userSpaceOnUse">
<stop stop-color="#C8D34F"/>
<stop offset="1" stop-color="#C8D34F" stop-opacity="0"/>
</linearGradient>
<linearGradient id="paint6_linear_4950_385054" x1="86.3181" y1="74.5286" x2="81.4047" y2="91.8507" gradientUnits="userSpaceOnUse">
<stop stop-color="#C8D34F"/>
<stop offset="1" stop-color="#C8D34F" stop-opacity="0"/>
</linearGradient>
<linearGradient id="paint7_linear_4950_385054" x1="70.3112" y1="213.644" x2="91.2882" y2="25.7584" gradientUnits="userSpaceOnUse">
<stop stop-color="#3F552B"/>
<stop offset="1" stop-color="#3F552B" stop-opacity="0"/>
</linearGradient>
<linearGradient id="paint8_linear_4950_385054" x1="51.826" y1="176.517" x2="59.5251" y2="202.852" gradientUnits="userSpaceOnUse">
<stop stop-color="#C8D34F"/>
<stop offset="1" stop-color="#C8D34F" stop-opacity="0"/>
</linearGradient>
<linearGradient id="paint9_linear_4950_385054" x1="32.3046" y1="117.141" x2="42.536" y2="152.137" gradientUnits="userSpaceOnUse">
<stop stop-color="#C8D34F"/>
<stop offset="1" stop-color="#C8D34F" stop-opacity="0"/>
</linearGradient>
<linearGradient id="paint10_linear_4950_385054" x1="32.2213" y1="69.0174" x2="41.6326" y2="101.209" gradientUnits="userSpaceOnUse">
<stop stop-color="#C8D34F"/>
<stop offset="1" stop-color="#C8D34F" stop-opacity="0"/>
</linearGradient>
<linearGradient id="paint11_linear_4950_385054" x1="40.8077" y1="25.4981" x2="47.4787" y2="48.3166" gradientUnits="userSpaceOnUse">
<stop stop-color="#C8D34F"/>
<stop offset="1" stop-color="#C8D34F" stop-opacity="0"/>
</linearGradient>
<linearGradient id="paint12_linear_4950_385054" x1="40.8032" y1="149.872" x2="50.1445" y2="181.825" gradientUnits="userSpaceOnUse">
<stop stop-color="#C8D34F"/>
<stop offset="1" stop-color="#C8D34F" stop-opacity="0"/>
</linearGradient>
<linearGradient id="paint13_linear_4950_385054" x1="32.2626" y1="98.0578" x2="38.7983" y2="120.413" gradientUnits="userSpaceOnUse">
<stop stop-color="#C8D34F"/>
<stop offset="1" stop-color="#C8D34F" stop-opacity="0"/>
</linearGradient>
<linearGradient id="paint14_linear_4950_385054" x1="36.0537" y1="49.3287" x2="42.17" y2="70.25" gradientUnits="userSpaceOnUse">
<stop stop-color="#C8D34F"/>
<stop offset="1" stop-color="#C8D34F" stop-opacity="0"/>
</linearGradient>
<linearGradient id="paint15_linear_4950_385054" x1="59.292" y1="217.042" x2="39.0994" y2="70.5187" gradientUnits="userSpaceOnUse">
<stop stop-color="#3F552B"/>
<stop offset="1" stop-color="#3F552B" stop-opacity="0"/>
</linearGradient>
<linearGradient id="paint16_linear_4950_385054" x1="1.71878" y1="-2.90568" x2="60.8415" y2="235.079" gradientUnits="userSpaceOnUse">
<stop stop-color="#C8D34F"/>
<stop offset="1" stop-color="#C8D34F" stop-opacity="0"/>
</linearGradient>
<linearGradient id="paint17_linear_4950_385054" x1="54.7875" y1="296.655" x2="62.1925" y2="107.173" gradientUnits="userSpaceOnUse">
<stop stop-color="#3F552B"/>
<stop offset="1" stop-color="#3F552B" stop-opacity="0"/>
</linearGradient>
<linearGradient id="paint18_linear_4950_385054" x1="-9.17423" y1="-99.8945" x2="101.313" y2="239.187" gradientUnits="userSpaceOnUse">
<stop stop-color="#EBBB50"/>
<stop offset="1" stop-color="#EBBB50" stop-opacity="0"/>
</linearGradient>
<linearGradient id="paint19_linear_4950_385054" x1="103.502" y1="111.759" x2="45.5004" y2="154.591" gradientUnits="userSpaceOnUse">
<stop stop-color="#EBBB50"/>
<stop offset="1" stop-color="#EBBB50" stop-opacity="0"/>
</linearGradient>
<linearGradient id="paint20_linear_4950_385054" x1="91.7464" y1="113.603" x2="53.0953" y2="151.968" gradientUnits="userSpaceOnUse">
<stop stop-color="#EBBB50"/>
<stop offset="1" stop-color="#EBBB50" stop-opacity="0"/>
</linearGradient>
<linearGradient id="paint21_linear_4950_385054" x1="79.6706" y1="190.562" x2="68.9892" y2="215.835" gradientUnits="userSpaceOnUse">
<stop stop-color="#C8D34F"/>
<stop offset="1" stop-color="#C8D34F" stop-opacity="0"/>
</linearGradient>
<linearGradient id="paint22_linear_4950_385054" x1="105.902" y1="133.829" x2="91.7076" y2="167.415" gradientUnits="userSpaceOnUse">
<stop stop-color="#C8D34F"/>
<stop offset="1" stop-color="#C8D34F" stop-opacity="0"/>
</linearGradient>
<linearGradient id="paint23_linear_4950_385054" x1="111.529" y1="86.0352" x2="98.4715" y2="116.929" gradientUnits="userSpaceOnUse">
<stop stop-color="#C8D34F"/>
<stop offset="1" stop-color="#C8D34F" stop-opacity="0"/>
</linearGradient>
<linearGradient id="paint24_linear_4950_385054" x1="108.012" y1="41.8159" x2="98.7568" y2="63.7144" gradientUnits="userSpaceOnUse">
<stop stop-color="#C8D34F"/>
<stop offset="1" stop-color="#C8D34F" stop-opacity="0"/>
</linearGradient>
<linearGradient id="paint25_linear_4950_385054" x1="93.6895" y1="165.364" x2="80.7295" y2="196.028" gradientUnits="userSpaceOnUse">
<stop stop-color="#C8D34F"/>
<stop offset="1" stop-color="#C8D34F" stop-opacity="0"/>
</linearGradient>
<linearGradient id="paint26_linear_4950_385054" x1="108.142" y1="114.878" x2="99.0746" y2="136.332" gradientUnits="userSpaceOnUse">
<stop stop-color="#C8D34F"/>
<stop offset="1" stop-color="#C8D34F" stop-opacity="0"/>
</linearGradient>
<linearGradient id="paint27_linear_4950_385054" x1="109.989" y1="66.0358" x2="101.504" y2="86.1135" gradientUnits="userSpaceOnUse">
<stop stop-color="#C8D34F"/>
<stop offset="1" stop-color="#C8D34F" stop-opacity="0"/>
</linearGradient>
<linearGradient id="paint28_linear_4950_385054" x1="-100.192" y1="361.657" x2="142.181" y2="56.6802" gradientUnits="userSpaceOnUse">
<stop stop-color="#3F552B"/>
<stop offset="1" stop-color="#3F552B" stop-opacity="0"/>
</linearGradient>
<linearGradient id="paint29_linear_4950_385054" x1="48.992" y1="187.5" x2="62.4575" y2="218.527" gradientUnits="userSpaceOnUse">
<stop stop-color="#C8D34F"/>
<stop offset="1" stop-color="#C8D34F" stop-opacity="0"/>
</linearGradient>
<linearGradient id="paint30_linear_4950_385054" x1="15.9862" y1="117.876" x2="33.8807" y2="159.108" gradientUnits="userSpaceOnUse">
<stop stop-color="#C8D34F"/>
<stop offset="1" stop-color="#C8D34F" stop-opacity="0"/>
</linearGradient>
<linearGradient id="paint31_linear_4950_385054" x1="8.48608" y1="59.0283" x2="24.9463" y2="96.9555" gradientUnits="userSpaceOnUse">
<stop stop-color="#C8D34F"/>
<stop offset="1" stop-color="#C8D34F" stop-opacity="0"/>
</linearGradient>
<linearGradient id="paint32_linear_4950_385054" x1="12.2984" y1="4.47848" x2="23.966" y2="31.3631" gradientUnits="userSpaceOnUse">
<stop stop-color="#C8D34F"/>
<stop offset="1" stop-color="#C8D34F" stop-opacity="0"/>
</linearGradient>
<linearGradient id="paint33_linear_4950_385054" x1="31.4138" y1="156.605" x2="47.7517" y2="194.25" gradientUnits="userSpaceOnUse">
<stop stop-color="#C8D34F"/>
<stop offset="1" stop-color="#C8D34F" stop-opacity="0"/>
</linearGradient>
<linearGradient id="paint34_linear_4950_385054" x1="13.0016" y1="94.542" x2="24.4324" y2="120.881" gradientUnits="userSpaceOnUse">
<stop stop-color="#C8D34F"/>
<stop offset="1" stop-color="#C8D34F" stop-opacity="0"/>
</linearGradient>
<linearGradient id="paint35_linear_4950_385054" x1="10.1478" y1="34.357" x2="20.8455" y2="59.0062" gradientUnits="userSpaceOnUse">
<stop stop-color="#C8D34F"/>
<stop offset="1" stop-color="#C8D34F" stop-opacity="0"/>
</linearGradient>
<linearGradient id="paint36_linear_4950_385054" x1="184.607" y1="336.231" x2="-5.09157" y2="40.2187" gradientUnits="userSpaceOnUse">
<stop stop-color="#3F552B"/>
<stop offset="1" stop-color="#3F552B" stop-opacity="0"/>
</linearGradient>
<radialGradient id="paint37_radial_4950_385054" cx="0" cy="0" r="1" gradientUnits="userSpaceOnUse" gradientTransform="translate(67.2936 135.886) scale(105.919 105.919)">
<stop stop-color="#009FE3" stop-opacity="0"/>
<stop offset="1" stop-color="#009FE3"/>
</radialGradient>
<linearGradient id="paint38_linear_4950_385054" x1="-64.3566" y1="158.165" x2="108.458" y2="78.2785" gradientUnits="userSpaceOnUse">
<stop stop-color="white"/>
<stop offset="1" stop-color="white" stop-opacity="0"/>
</linearGradient>
<linearGradient id="paint39_linear_4950_385054" x1="152.405" y1="125.834" x2="-3.52059" y2="152.347" gradientUnits="userSpaceOnUse">
<stop stop-color="white"/>
<stop offset="1" stop-color="white" stop-opacity="0"/>
</linearGradient>
<linearGradient id="paint40_linear_4950_385054" x1="5.21782" y1="94.8072" x2="42.2261" y2="77.6996" gradientUnits="userSpaceOnUse">
<stop stop-color="white"/>
<stop offset="1" stop-color="white" stop-opacity="0"/>
</linearGradient>
<linearGradient id="paint41_linear_4950_385054" x1="-278.599" y1="-38.7983" x2="112.043" y2="115.985" gradientUnits="userSpaceOnUse">
<stop stop-color="white"/>
<stop offset="1" stop-color="white" stop-opacity="0"/>
</linearGradient>
<linearGradient id="paint42_linear_4950_385054" x1="16.0281" y1="124.931" x2="70.6868" y2="59.4345" gradientUnits="userSpaceOnUse">
<stop stop-color="white"/>
<stop offset="1" stop-color="white" stop-opacity="0"/>
</linearGradient>
</defs>
</svg>
