<svg width="87" height="221" viewBox="0 0 87 221" fill="none" xmlns="http://www.w3.org/2000/svg">
<path d="M52.2993 182.136C53.3639 181.672 54.5758 181.522 55.7997 181.773C58.9605 182.419 60.9977 185.508 60.3497 188.669C59.0947 194.798 56.5628 200.764 53.0284 205.919C51.2046 208.585 47.568 209.262 44.9079 207.436C42.2458 205.612 41.5678 201.975 43.3916 199.315C46.0527 195.433 47.9586 190.939 48.9051 186.324C49.3007 184.384 50.6137 182.87 52.2993 182.136Z" fill="#808E35"/>
<path d="M57.6093 119.916C58.1061 119.7 58.6399 119.55 59.2028 119.478C62.4037 119.068 65.3312 121.331 65.7398 124.531C66.8656 133.337 66.7704 142.247 65.4534 151.016C64.9757 154.206 62.0031 156.406 58.8102 155.927C55.6203 155.449 53.4209 152.473 53.8996 149.283C55.0544 141.58 55.1395 133.75 54.15 126.017C53.8115 123.376 55.2888 120.926 57.6093 119.916Z" fill="#808E35"/>
<path d="M46.5341 72.224C46.5452 72.219 46.5562 72.215 46.5672 72.21C49.5328 70.939 52.967 72.3151 54.236 75.2817C57.5571 83.0406 59.6433 91.2322 60.4355 99.6331C60.74 102.845 58.3854 105.693 55.1674 105.998C51.9555 106.3 49.1051 103.943 48.8026 100.73C48.1246 93.5367 46.3389 86.521 43.4955 79.8778C42.2295 76.9242 43.5906 73.506 46.5341 72.224Z" fill="#808E35"/>
<path d="M36.1863 51.8567C34.2914 44.4333 31.7185 37.063 28.4705 29.8689C34.014 35.4865 39.1499 41.671 43.77 48.3533C47.3185 53.989 38.1754 58.2115 36.1863 51.8567Z" fill="#808E35"/>
<path d="M55.7463 153.697C56.2441 153.481 56.7819 153.33 57.3508 153.258C60.5517 152.856 63.4732 155.123 63.8778 158.325C64.9094 166.527 63.8527 174.927 60.8191 182.615C59.6373 185.615 56.2431 187.093 53.2424 185.906C50.2408 184.722 48.7666 181.331 49.9514 178.329C52.265 172.459 53.0722 166.047 52.284 159.786C51.9515 157.15 53.4277 154.706 55.7463 153.697Z" fill="#808E35"/>
<path d="M54.2992 101.123C54.5195 101.027 54.7469 100.945 54.9842 100.875C58.077 99.9616 61.328 101.729 62.2404 104.824C63.5694 109.324 64.0912 113.978 63.7928 118.657C63.5885 121.877 60.8112 124.319 57.5902 124.117C54.3703 123.91 51.9266 121.134 52.1309 117.914C52.3422 114.604 51.9736 111.313 51.0342 108.13C50.1899 105.274 51.6341 102.283 54.2992 101.123Z" fill="#808E35"/>
<path d="M41.7379 70.6095C41.5216 66.7405 40.5341 62.8335 38.8245 59.232C37.8119 57.0867 38.7303 54.5268 40.8756 53.5142C47.4988 50.5757 50.862 64.6844 51.9987 69.3465C53.1174 76.5396 42.398 77.8646 41.7379 70.6095Z" fill="#808E35"/>
<path d="M52.2993 182.136C53.3639 181.672 54.5758 181.522 55.7997 181.773C58.9605 182.419 60.9977 185.508 60.3497 188.669C59.0947 194.798 56.5628 200.764 53.0284 205.919C51.2046 208.585 47.568 209.262 44.9079 207.436C42.2458 205.612 41.5678 201.975 43.3916 199.315C46.0527 195.433 47.9586 190.939 48.9051 186.324C49.3007 184.384 50.6137 182.87 52.2993 182.136Z" fill="url(#paint0_linear_4929_362134)"/>
<path d="M57.6093 119.916C58.1061 119.7 58.6399 119.55 59.2028 119.478C62.4037 119.068 65.3312 121.331 65.7398 124.531C66.8656 133.337 66.7704 142.247 65.4534 151.016C64.9757 154.206 62.0031 156.406 58.8102 155.927C55.6203 155.449 53.4209 152.473 53.8996 149.283C55.0544 141.58 55.1395 133.75 54.15 126.017C53.8115 123.376 55.2888 120.926 57.6093 119.916Z" fill="url(#paint1_linear_4929_362134)"/>
<path d="M46.5341 72.224C46.5452 72.219 46.5562 72.215 46.5672 72.21C49.5328 70.939 52.967 72.3151 54.236 75.2817C57.5571 83.0406 59.6433 91.2322 60.4355 99.6331C60.74 102.845 58.3854 105.693 55.1674 105.998C51.9555 106.3 49.1051 103.943 48.8026 100.73C48.1246 93.5367 46.3389 86.521 43.4955 79.8778C42.2295 76.9242 43.5906 73.506 46.5341 72.224Z" fill="url(#paint2_linear_4929_362134)"/>
<path d="M36.1863 51.8567C34.2914 44.4333 31.7185 37.063 28.4705 29.8689C34.014 35.4865 39.1499 41.671 43.77 48.3533C47.3185 53.989 38.1754 58.2115 36.1863 51.8567Z" fill="url(#paint3_linear_4929_362134)"/>
<path d="M55.7463 153.697C56.2441 153.481 56.7819 153.33 57.3508 153.258C60.5517 152.856 63.4732 155.123 63.8778 158.325C64.9094 166.527 63.8527 174.927 60.8191 182.615C59.6373 185.615 56.2431 187.093 53.2424 185.906C50.2408 184.722 48.7666 181.331 49.9514 178.329C52.265 172.459 53.0722 166.047 52.284 159.786C51.9515 157.15 53.4277 154.706 55.7463 153.697Z" fill="url(#paint4_linear_4929_362134)"/>
<path d="M54.2992 101.123C54.5195 101.027 54.7469 100.945 54.9842 100.875C58.077 99.9616 61.328 101.729 62.2404 104.824C63.5694 109.324 64.0912 113.978 63.7928 118.657C63.5885 121.877 60.8112 124.319 57.5902 124.117C54.3703 123.91 51.9266 121.134 52.1309 117.914C52.3422 114.604 51.9736 111.313 51.0342 108.13C50.1899 105.274 51.6341 102.283 54.2992 101.123Z" fill="url(#paint5_linear_4929_362134)"/>
<path d="M41.7379 70.6095C41.5216 66.7405 40.5341 62.8335 38.8245 59.232C37.8119 57.0867 38.7303 54.5268 40.8756 53.5142C47.4988 50.5757 50.862 64.6844 51.9987 69.3465C53.1174 76.5396 42.398 77.8646 41.7379 70.6095Z" fill="url(#paint6_linear_4929_362134)"/>
<path d="M53.0283 205.919C56.5627 200.764 59.0946 194.798 60.3495 188.669C60.656 187.173 60.3455 185.702 59.6154 184.49C60.1182 183.961 60.5348 183.334 60.8192 182.614C63.8529 174.926 64.9095 166.527 63.878 158.324C63.7277 157.136 63.2289 156.079 62.4998 155.237C64.0302 154.386 65.1739 152.879 65.4534 151.015C66.7704 142.246 66.8655 133.336 65.7398 124.53C65.5255 122.851 64.6081 121.444 63.3301 120.531C63.5745 119.947 63.7507 119.325 63.7928 118.658C64.0923 113.979 63.5705 109.325 62.2404 104.825C61.8799 103.601 61.1447 102.597 60.2073 101.873C60.4206 101.167 60.5088 100.412 60.4357 99.6341C59.6444 91.2332 57.5582 83.0406 54.2361 75.2827C53.6963 74.0218 52.7549 73.0713 51.6351 72.4664C52.0177 71.598 52.187 70.5645 51.9977 69.3476C51.0362 65.4025 48.4703 54.7311 43.6939 53.3109C44.6874 52.079 44.9989 50.3083 43.769 48.3553C39.1489 41.673 34.0131 35.4886 28.4695 29.8709C31.7175 37.065 34.2905 44.4353 36.1854 51.8587C36.7673 53.7166 37.9641 54.65 39.2721 54.9294C38.3948 56.1553 38.1344 57.7748 38.8234 59.234C40.5331 62.8356 41.5206 66.7426 41.7379 70.6115C41.9082 72.4824 42.7525 73.7724 43.8852 74.5496C42.9378 76.107 42.7224 78.078 43.4956 79.8818C46.339 86.525 48.1247 93.5408 48.8028 100.734C48.961 102.41 49.8213 103.842 51.0562 104.796C50.7368 105.85 50.6987 107 51.0342 108.135C51.9737 111.317 52.3422 114.609 52.1309 117.918C51.9967 120.024 53.0072 121.924 54.6157 123.056C54.2331 123.971 54.0138 124.964 54.148 126.018C55.1375 133.752 55.0534 141.582 53.8976 149.284C53.6322 151.052 54.2091 152.738 55.3018 153.985C53.2636 155.105 51.9747 157.339 52.2821 159.786C53.0713 166.047 52.2631 172.459 49.9495 178.329C49.2515 180.098 49.4958 181.991 50.4112 183.498C49.6821 184.264 49.1303 185.212 48.9029 186.324C47.9555 190.94 46.0496 195.433 43.3895 199.315C41.5657 201.975 42.2447 205.613 44.9058 207.436C47.5679 209.262 51.2045 208.585 53.0283 205.919Z" fill="url(#paint7_linear_4929_362134)"/>
<path d="M33.9149 178.735C32.8833 178.202 31.6845 177.971 30.4466 178.141C27.2497 178.575 25.0123 181.523 25.4489 184.719C26.2952 190.918 28.4255 197.039 31.6104 202.417C33.2529 205.197 36.8364 206.114 39.6127 204.469C42.389 202.827 43.3084 199.242 41.6648 196.467C39.2672 192.417 37.6637 187.807 37.0247 183.138C36.7583 181.176 35.5484 179.578 33.9149 178.735Z" fill="#808E35"/>
<path d="M32.7443 116.3C32.2636 116.051 31.7408 115.865 31.1839 115.756C28.0171 115.135 24.9463 117.199 24.3264 120.365C22.6198 129.076 22.124 137.973 22.8561 146.81C23.1215 150.025 25.9419 152.417 29.1598 152.15C32.3748 151.884 34.7664 149.062 34.5 145.846C33.858 138.083 34.2937 130.264 35.794 122.613C36.3038 120.003 34.9918 117.461 32.7443 116.3Z" fill="#808E35"/>
<path d="M46.9569 69.4467C46.9459 69.4417 46.9359 69.4357 46.9249 69.4307C44.0505 67.9664 40.5321 69.1112 39.0688 71.9866C35.2399 79.5082 32.6159 87.5435 31.2678 95.8733C30.751 99.0582 32.9124 102.056 36.1023 102.574C39.2872 103.088 42.2878 100.925 42.8026 97.7392C43.9563 90.6062 46.2038 83.7246 49.4808 77.2847C50.9401 74.4213 49.8093 70.92 46.9569 69.4467Z" fill="#808E35"/>
<path d="M58.6332 49.8105C61.0169 42.5294 64.0726 35.3453 67.7903 28.3826C61.8862 33.6207 56.3517 39.4506 51.2979 45.8114C47.3839 51.1997 56.2275 56.0191 58.6332 49.8105Z" fill="#808E35"/>
<path d="M32.3618 150.129C31.879 149.879 31.3522 149.693 30.7904 149.583C27.6235 148.97 24.5578 151.038 23.9419 154.206C22.3684 162.321 22.8652 170.772 25.3831 178.645C26.3636 181.717 29.6516 183.416 32.7253 182.43C35.7991 181.449 37.4947 178.163 36.5112 175.088C34.5922 169.078 34.2116 162.626 35.4135 156.43C35.9192 153.826 34.6082 151.29 32.3618 150.129Z" fill="#808E35"/>
<path d="M37.2925 97.7673C37.0792 97.6571 36.8579 97.5599 36.6255 97.4748C33.5999 96.3581 30.2397 97.9065 29.123 100.934C27.4985 105.336 26.6692 109.945 26.6572 114.634C26.6482 117.86 29.2572 120.481 32.4841 120.492C35.7111 120.5 38.3331 117.892 38.3421 114.665C38.3502 111.348 38.9361 108.089 40.0848 104.976C41.1174 102.181 39.8745 99.1013 37.2925 97.7673Z" fill="#808E35"/>
<path d="M51.8497 68.1527C52.3224 64.3068 53.5663 60.4739 55.5113 56.9936C56.6641 54.9204 55.918 52.3054 53.8438 51.1526C47.4299 47.7814 43.1383 61.6357 41.6951 66.2118C40.1026 73.3157 50.71 75.3488 51.8497 68.1527Z" fill="#808E35"/>
<path d="M33.9149 178.735C32.8833 178.202 31.6845 177.971 30.4466 178.141C27.2497 178.575 25.0123 181.523 25.4489 184.719C26.2952 190.918 28.4255 197.039 31.6104 202.417C33.2529 205.197 36.8364 206.114 39.6127 204.469C42.389 202.827 43.3084 199.242 41.6648 196.467C39.2672 192.417 37.6637 187.807 37.0247 183.138C36.7583 181.176 35.5484 179.578 33.9149 178.735Z" fill="url(#paint8_linear_4929_362134)"/>
<path d="M32.7443 116.3C32.2636 116.051 31.7408 115.865 31.1839 115.756C28.0171 115.135 24.9463 117.199 24.3264 120.365C22.6198 129.076 22.124 137.973 22.8561 146.81C23.1215 150.025 25.9419 152.417 29.1598 152.15C32.3748 151.884 34.7664 149.062 34.5 145.846C33.858 138.083 34.2937 130.264 35.794 122.613C36.3038 120.003 34.9918 117.461 32.7443 116.3Z" fill="url(#paint9_linear_4929_362134)"/>
<path d="M46.9569 69.4467C46.9459 69.4417 46.9359 69.4357 46.9249 69.4307C44.0505 67.9664 40.5321 69.1112 39.0688 71.9866C35.2399 79.5082 32.6159 87.5435 31.2678 95.8733C30.751 99.0582 32.9124 102.056 36.1023 102.574C39.2872 103.088 42.2878 100.925 42.8026 97.7392C43.9563 90.6062 46.2038 83.7246 49.4808 77.2847C50.9401 74.4213 49.8093 70.92 46.9569 69.4467Z" fill="url(#paint10_linear_4929_362134)"/>
<path d="M58.6332 49.8105C61.0169 42.5294 64.0726 35.3453 67.7903 28.3826C61.8862 33.6207 56.3517 39.4506 51.2979 45.8114C47.3839 51.1997 56.2275 56.0191 58.6332 49.8105Z" fill="url(#paint11_linear_4929_362134)"/>
<path d="M32.3618 150.129C31.879 149.879 31.3522 149.693 30.7904 149.583C27.6235 148.97 24.5578 151.038 23.9419 154.206C22.3684 162.321 22.8652 170.772 25.3831 178.645C26.3636 181.717 29.6516 183.416 32.7253 182.43C35.7991 181.449 37.4947 178.163 36.5112 175.088C34.5922 169.078 34.2116 162.626 35.4135 156.43C35.9192 153.826 34.6082 151.29 32.3618 150.129Z" fill="url(#paint12_linear_4929_362134)"/>
<path d="M37.2925 97.7673C37.0792 97.6571 36.8579 97.5599 36.6255 97.4748C33.5999 96.3581 30.2397 97.9065 29.123 100.934C27.4985 105.336 26.6692 109.945 26.6572 114.634C26.6482 117.86 29.2572 120.481 32.4841 120.492C35.7111 120.5 38.3331 117.892 38.3421 114.665C38.3502 111.348 38.9361 108.089 40.0848 104.976C41.1174 102.181 39.8745 99.1013 37.2925 97.7673Z" fill="url(#paint13_linear_4929_362134)"/>
<path d="M51.8497 68.1527C52.3224 64.3068 53.5663 60.4739 55.5113 56.9936C56.6641 54.9204 55.918 52.3054 53.8438 51.1526C47.4299 47.7814 43.1383 61.6357 41.6951 66.2118C40.1026 73.3157 50.71 75.3488 51.8497 68.1527Z" fill="url(#paint14_linear_4929_362134)"/>
<path d="M31.6116 202.416C28.4267 197.038 26.2964 190.917 25.4501 184.718C25.2428 183.205 25.6504 181.758 26.4607 180.597C25.994 180.036 25.6194 179.383 25.3841 178.645C22.8672 170.772 22.3694 162.321 23.9428 154.206C24.1712 153.03 24.7391 152.009 25.5223 151.216C24.052 150.266 23.0104 148.686 22.8551 146.808C22.123 137.97 22.6188 129.073 24.3254 120.363C24.6509 118.701 25.6595 117.358 26.9955 116.533C26.7902 115.934 26.656 115.302 26.658 114.633C26.67 109.944 27.4993 105.335 29.1238 100.933C29.5655 99.7363 30.3647 98.7828 31.3482 98.1218C31.1819 97.4047 31.1439 96.6445 31.2691 95.8733C32.6161 87.5435 35.2412 79.5072 39.0701 71.9866C39.692 70.7647 40.6946 69.8784 41.8513 69.3496C41.5268 68.4582 41.4267 67.4156 41.6961 66.2127C42.917 62.3408 46.185 51.8627 51.0445 50.762C50.1351 49.467 49.9418 47.6793 51.2989 45.8124C56.3526 39.4506 61.8871 33.6217 67.7912 28.3836C64.0735 35.3463 61.0178 42.5304 58.6341 49.8116C57.931 51.6263 56.6741 52.4786 55.3501 52.6699C56.1443 53.9509 56.2966 55.5844 55.5124 56.9946C53.5674 60.4749 52.3234 64.3078 51.8507 68.1537C51.5573 70.0096 50.6288 71.2405 49.447 71.9406C50.2883 73.558 50.3735 75.5381 49.4821 77.2868C46.2051 83.7267 43.9576 90.6082 42.8038 97.7412C42.5344 99.4038 41.5809 100.775 40.286 101.645C40.5343 102.718 40.4963 103.869 40.0866 104.978C38.9379 108.091 38.352 111.351 38.344 114.667C38.338 116.777 37.2032 118.607 35.5236 119.629C35.8441 120.566 35.9983 121.572 35.794 122.614C34.2937 130.265 33.8591 138.083 34.5011 145.847C34.6483 147.629 33.9612 149.272 32.7884 150.444C34.7484 151.697 35.8862 154.012 35.4165 156.432C34.2136 162.628 34.5942 169.08 36.5132 175.09C37.092 176.901 36.7235 178.774 35.7089 180.218C36.3849 181.03 36.8737 182.013 37.0269 183.138C37.6659 187.808 39.2704 192.417 41.6671 196.467C43.3106 199.242 42.3922 202.827 39.6149 204.469C36.8376 206.114 33.2541 205.197 31.6116 202.416Z" fill="url(#paint15_linear_4929_362134)"/>
<path d="M59.1869 157.24C59.4083 160.776 59.0047 163.508 58.1524 167.21C55.4041 179.121 49.0614 182.048 48.4995 192.177C48.4384 193.23 48.2601 195.628 48.2491 200.438C48.2531 203.386 48.196 206.328 47.7944 209.255C47.4088 212.014 46.8219 215.344 45.1404 217.651C43.2004 220.286 41.4407 216.457 40.9609 214.75C40.391 212.687 40.1807 210.549 39.8572 208.444C39.3805 205.428 38.9779 202.413 38.7616 199.352C38.5082 195.985 38.398 192.579 38.5292 189.193C38.5973 187.469 38.6193 187.688 38.6083 186.916C38.5723 183.423 37.8301 180.243 36.6984 177.231C36.434 176.546 36.1586 175.878 35.8871 175.238C35.766 174.961 35.6308 174.685 35.5116 174.423C33.6337 170.421 31.5445 167.735 31.237 167.324C21.6533 146.526 37.8672 134.913 34.3067 99.1824C33.845 94.6595 33.4724 90.8506 33.0728 87.5826C32.9697 80.8553 32.0332 75.459 29.6526 72.3602C29.6385 72.3622 24.5577 65.7861 24.6008 59.7488C24.5978 59.5555 24.6098 59.3602 24.6078 59.1669C24.6338 58.8795 24.6599 58.592 24.701 58.3026C24.7941 57.7067 24.9624 57.1118 25.2057 56.5208C26.012 54.5839 27.7957 52.5277 29.6496 52.3054C29.8038 52.2493 29.9831 52.2493 30.1343 52.2683C33.5696 52.4205 35.8371 59.0968 37.0299 62.8276C42.7016 80.9033 44.3051 100.198 46.843 114.065C51.2598 138.501 58.4969 146.219 59.1869 157.24Z" fill="#808E35"/>
<path d="M59.1869 157.24C59.4083 160.776 59.0047 163.508 58.1524 167.21C55.4041 179.121 49.0614 182.048 48.4995 192.177C48.4384 193.23 48.2601 195.628 48.2491 200.438C48.2531 203.386 48.196 206.328 47.7944 209.255C47.4088 212.014 46.8219 215.344 45.1404 217.651C43.2004 220.286 41.4407 216.457 40.9609 214.75C40.391 212.687 40.1807 210.549 39.8572 208.444C39.3805 205.428 38.9779 202.413 38.7616 199.352C38.5082 195.985 38.398 192.579 38.5292 189.193C38.5973 187.469 38.6193 187.688 38.6083 186.916C38.5723 183.423 37.8301 180.243 36.6984 177.231C36.434 176.546 36.1586 175.878 35.8871 175.238C35.766 174.961 35.6308 174.685 35.5116 174.423C33.6167 170.498 31.4914 167.862 31.237 167.324C21.6533 146.526 37.8672 134.913 34.3067 99.1824C33.845 94.6595 33.4724 90.8506 33.0728 87.5826C32.9697 80.8553 32.0332 75.459 29.6526 72.3602C27.6124 68.1918 24.6999 63.8862 24.6008 59.7488C24.5978 59.5555 24.6098 59.3602 24.6078 59.1669C24.6338 58.8795 24.6599 58.592 24.701 58.3026C24.7941 57.7067 24.9624 57.1118 25.2057 56.5208C26.012 54.5839 27.7957 52.5277 29.6496 52.3054C29.8038 52.2493 29.9831 52.2493 30.1343 52.2683C33.5696 52.4205 35.8371 59.0968 37.0299 62.8276C42.7016 80.9033 44.3051 100.198 46.843 114.065C51.2598 138.501 58.4969 146.219 59.1869 157.24Z" fill="url(#paint16_linear_4929_362134)"/>
<path d="M59.1869 157.24C59.4083 160.776 59.0047 163.508 58.1524 167.21C55.4041 179.121 49.0614 182.048 48.4995 192.177C48.4384 193.23 48.2601 195.628 48.2491 200.438C48.2531 203.386 48.196 206.328 47.7944 209.255C47.4088 212.014 46.8219 215.344 45.1404 217.651C43.2004 220.286 41.4407 216.457 40.9609 214.75C40.391 212.687 40.1807 210.549 39.8572 208.444C39.3805 205.428 38.9779 202.413 38.7616 199.352C38.5082 195.985 38.398 192.579 38.5292 189.193C38.5973 187.469 38.6193 187.688 38.6083 186.916C38.5723 183.423 37.8301 180.243 36.6984 177.231C36.434 176.546 36.1586 175.878 35.8871 175.238C35.766 174.961 35.6308 174.685 35.5116 174.423C33.6167 170.498 31.4914 167.862 31.237 167.324C21.6533 146.526 37.8672 134.913 34.3067 99.1824C33.845 94.6595 33.4724 90.8506 33.0728 87.5826C32.9697 80.8553 32.0332 75.459 29.6526 72.3602C27.6124 68.1918 24.6999 63.8862 24.6008 59.7488C24.5978 59.5555 24.6098 59.3602 24.6078 59.1669C24.6338 58.8795 24.6599 58.592 24.701 58.3026C24.7941 57.7067 24.9624 57.1118 25.2057 56.5208C26.012 54.5839 27.7957 52.5277 29.6496 52.3054C29.8038 52.2493 29.9831 52.2493 30.1343 52.2683C33.5696 52.4205 35.8371 59.0968 37.0299 62.8276C42.7016 80.9033 44.3051 100.198 46.843 114.065C51.2598 138.501 58.4969 146.219 59.1869 157.24Z" fill="url(#paint17_linear_4929_362134)"/>
<path d="M10.0474 110.921C8.89763 107.018 7.95719 103.892 6.84548 100.936C7.90811 104.16 8.90564 107.376 9.9182 110.497C9.96327 110.637 10.0023 110.78 10.0474 110.921Z" fill="url(#paint18_linear_4929_362134)"/>
<path d="M56.3698 162.294C55.0257 170.968 48.9854 179.864 44.4214 179.328C42.5375 179.101 41.2115 177.152 38.6646 173.237C35.7971 168.833 33.115 163.985 32.5792 160.536C29.9812 144.165 37.035 129.408 37.7321 110.16C37.9565 103.608 39.0191 72.9641 26.589 60.2426C26.1694 59.8139 25.4923 59.1459 24.6991 58.3016C24.7932 57.6997 24.9545 57.1078 25.2039 56.5229C26.0081 54.5859 27.7898 52.5267 29.6417 52.3034C30.4429 54.2313 31.2872 56.4127 32.1315 58.7252C47.7225 101.251 38.274 115.454 51.2159 140.662C53.6656 145.42 57.801 152.978 56.3698 162.294Z" fill="#EBBB50"/>
<path d="M41.4885 135.812C46.1487 134.923 53.2816 144.617 54.2942 154.14C55.2336 162.968 51.0943 173.365 46.392 173.672C42.1505 173.948 38.2355 165.963 36.7553 161.143C33.4882 150.502 36.4027 136.781 41.4885 135.812Z" fill="#E76021"/>
<path d="M39.3613 146.099C40.6352 145.839 41.1991 150.239 46.327 155.371C48.7176 157.763 49.7653 157.979 50.4143 159.719C51.9016 163.715 49.0362 169.71 46.1647 169.943C42.8717 170.211 39.9802 162.869 38.9867 159.402C37.197 153.16 37.8189 146.412 39.3613 146.099Z" fill="url(#paint19_linear_4929_362134)"/>
<path d="M29.8676 189.91C28.4724 189.59 26.9701 189.684 25.5439 190.265C21.8603 191.767 20.0946 195.972 21.5979 199.654C24.5114 206.796 28.9351 213.448 34.3885 218.891C37.2039 221.707 41.7639 221.701 44.5732 218.883C47.3835 216.069 47.3805 211.508 44.5651 208.699C40.4588 204.599 37.1287 199.589 34.9324 194.21C34.0109 191.953 32.077 190.417 29.8676 189.91Z" fill="#808E35"/>
<path d="M9.29722 115.728C8.64622 115.579 7.96517 115.518 7.2671 115.558C3.29499 115.789 0.262338 119.196 0.494695 123.166C1.13167 134.091 3.27198 144.865 6.8605 155.191C8.1645 158.947 12.2668 160.937 16.0256 159.63C19.7823 158.327 21.7714 154.222 20.4654 150.465C17.3155 141.393 15.4337 131.926 14.8758 122.33C14.6835 119.057 12.3369 116.425 9.29722 115.728Z" fill="#808E35"/>
<path d="M11.8784 55.4252C11.8644 55.4222 11.8494 55.4182 11.8353 55.4152C7.95338 54.5499 4.10447 56.9966 3.24114 60.8796C0.979665 71.0352 0.313635 81.4352 1.26309 91.7941C1.62365 95.7542 5.12505 98.6707 9.09214 98.3091C13.0532 97.9455 15.9707 94.4412 15.6071 90.4801C14.7949 81.6105 15.3638 72.7038 17.2997 64.0094C18.1621 60.1425 15.7373 56.3096 11.8784 55.4252Z" fill="#808E35"/>
<path d="M19.7893 28.3967C20.3992 18.9722 21.8414 9.45655 24.1419 0.00201726C18.7016 8.06841 13.8842 16.7277 9.80392 25.8748C6.78528 33.5095 18.8228 36.5482 19.7893 28.3967Z" fill="#808E35"/>
<path d="M19.2296 156.235C18.5766 156.086 17.8905 156.026 17.1864 156.067C13.2173 156.307 10.1917 159.718 10.4301 163.69C11.043 173.862 14.2319 183.799 19.6552 192.425C21.7695 195.792 26.2173 196.81 29.5835 194.69C32.9517 192.574 33.9672 188.13 31.849 184.762C27.7116 178.175 25.2769 170.589 24.8102 162.823C24.6119 159.556 22.2672 156.931 19.2296 156.235Z" fill="#808E35"/>
<path d="M9.03677 92.2057C8.74832 92.1396 8.45389 92.0915 8.15043 92.0605C4.19535 91.6559 0.658894 94.5363 0.256275 98.4944C-0.331628 104.248 0.0930411 110.007 1.51923 115.609C2.49874 119.464 6.41877 121.791 10.2747 120.814C14.1296 119.832 16.4592 115.913 15.4797 112.058C14.4711 108.096 14.1697 104.024 14.5853 99.9546C14.9589 96.301 12.5291 93.0059 9.03677 92.2057Z" fill="#808E35"/>
<path d="M17.3223 52.3795C16.7054 47.6432 17.0148 42.6846 18.2678 37.9323C19.0069 35.1029 17.3133 32.2095 14.484 31.4704C5.7916 29.4142 4.92224 47.2737 4.60375 53.1807C4.88218 62.1505 18.1716 61.3192 17.3223 52.3795Z" fill="#808E35"/>
<path d="M29.8676 189.91C28.4724 189.59 26.9701 189.684 25.5439 190.265C21.8603 191.767 20.0946 195.972 21.5979 199.654C24.5114 206.796 28.9351 213.448 34.3885 218.891C37.2039 221.707 41.7639 221.701 44.5732 218.883C47.3835 216.069 47.3805 211.508 44.5651 208.699C40.4588 204.599 37.1287 199.589 34.9324 194.21C34.0109 191.953 32.077 190.417 29.8676 189.91Z" fill="url(#paint20_linear_4929_362134)"/>
<path d="M9.29722 115.728C8.64622 115.579 7.96517 115.518 7.2671 115.558C3.29499 115.789 0.262338 119.196 0.494695 123.166C1.13167 134.091 3.27198 144.865 6.8605 155.191C8.1645 158.947 12.2668 160.937 16.0256 159.63C19.7823 158.327 21.7714 154.222 20.4654 150.465C17.3155 141.393 15.4337 131.926 14.8758 122.33C14.6835 119.057 12.3369 116.425 9.29722 115.728Z" fill="url(#paint21_linear_4929_362134)"/>
<path d="M11.8784 55.4252C11.8644 55.4222 11.8494 55.4182 11.8353 55.4152C7.95338 54.5499 4.10447 56.9966 3.24114 60.8796C0.979665 71.0352 0.313635 81.4352 1.26309 91.7941C1.62365 95.7542 5.12505 98.6707 9.09214 98.3091C13.0532 97.9455 15.9707 94.4412 15.6071 90.4801C14.7949 81.6105 15.3638 72.7038 17.2997 64.0094C18.1621 60.1425 15.7373 56.3096 11.8784 55.4252Z" fill="url(#paint22_linear_4929_362134)"/>
<path d="M19.7893 28.3967C20.3992 18.9722 21.8414 9.45655 24.1419 0.00201726C18.7016 8.06841 13.8842 16.7277 9.80392 25.8748C6.78528 33.5095 18.8228 36.5482 19.7893 28.3967Z" fill="url(#paint23_linear_4929_362134)"/>
<path d="M19.2296 156.235C18.5766 156.086 17.8905 156.026 17.1864 156.067C13.2173 156.307 10.1917 159.718 10.4301 163.69C11.043 173.862 14.2319 183.799 19.6552 192.425C21.7695 195.792 26.2173 196.81 29.5835 194.69C32.9517 192.574 33.9672 188.13 31.849 184.762C27.7116 178.175 25.2769 170.589 24.8102 162.823C24.6119 159.556 22.2672 156.931 19.2296 156.235Z" fill="url(#paint24_linear_4929_362134)"/>
<path d="M9.03677 92.2057C8.74832 92.1396 8.45389 92.0915 8.15043 92.0605C4.19535 91.6559 0.658894 94.5363 0.256275 98.4944C-0.331628 104.248 0.0930411 110.007 1.51923 115.609C2.49874 119.464 6.41877 121.791 10.2747 120.814C14.1296 119.832 16.4592 115.913 15.4797 112.058C14.4711 108.096 14.1697 104.024 14.5853 99.9546C14.9589 96.301 12.5291 93.0059 9.03677 92.2057Z" fill="url(#paint25_linear_4929_362134)"/>
<path d="M17.3223 52.3795C16.7054 47.6432 17.0148 42.6846 18.2678 37.9323C19.0069 35.1029 17.3133 32.2095 14.484 31.4704C5.7916 29.4142 4.92224 47.2737 4.60375 53.1807C4.88218 62.1505 18.1716 61.3192 17.3223 52.3795Z" fill="url(#paint26_linear_4929_362134)"/>
<path d="M34.3886 218.892C28.9352 213.449 24.5114 206.796 21.5979 199.654C20.8858 197.911 20.9279 196.058 21.5388 194.424C20.8097 193.897 20.1617 193.233 19.6549 192.424C14.2326 183.798 11.0437 173.861 10.4297 163.69C10.3416 162.216 10.7062 160.822 11.3972 159.635C9.35009 158.952 7.62143 157.387 6.85926 155.19C3.27075 144.865 1.13045 134.091 0.494468 123.166C0.37228 121.083 1.16449 119.169 2.50555 117.773C2.0769 117.121 1.72237 116.407 1.51905 115.609C0.0938627 110.007 -0.331808 104.249 0.256095 98.4944C0.41534 96.93 1.07736 95.5458 2.04785 94.4541C1.62921 93.6489 1.35078 92.7536 1.26265 91.7931C0.313188 81.4342 0.979217 71.0342 3.24069 60.8785C3.60726 59.228 4.53267 57.8629 5.75154 56.8754C5.09052 55.9109 4.65085 54.6961 4.60378 53.1787C4.87219 48.18 5.55626 34.6673 11.0207 31.861C9.53737 30.593 8.75718 28.5198 9.80379 25.8728C13.8841 16.7257 18.7014 8.0664 24.1418 0C21.8413 9.45453 20.3981 18.9702 19.7891 28.3946C19.5067 30.7783 18.2688 32.1804 16.7464 32.8164C18.0875 34.1024 18.7716 36.0053 18.2678 37.9303C17.0149 42.6826 16.7064 47.6412 17.3223 52.3775C17.5417 54.683 16.8116 56.4387 15.6147 57.6366C17.116 59.3091 17.8251 61.6477 17.2993 64.0084C15.3633 72.7027 14.7944 81.6094 15.6067 90.479C15.796 92.5462 15.0789 94.4762 13.7989 95.9134C14.4249 97.1172 14.7323 98.5034 14.5841 99.9546C14.1695 104.024 14.4699 108.095 15.4785 112.058C16.1195 114.579 15.3263 117.112 13.6347 118.849C14.3057 119.869 14.7974 121.023 14.8736 122.33C15.4314 131.926 17.3133 141.393 20.4631 150.464C21.1863 152.546 20.8698 154.719 19.8302 156.478C22.5544 157.373 24.6235 159.787 24.8068 162.821C25.2735 170.587 27.7093 178.173 31.8457 184.76C33.0936 186.744 33.2278 189.094 32.4606 191.129C33.5172 191.891 34.4026 192.914 34.9304 194.21C37.1268 199.589 40.4579 204.599 44.5632 208.699C47.3785 211.507 47.3815 216.069 44.5712 218.882C41.7639 221.701 37.2039 221.708 34.3886 218.892Z" fill="url(#paint27_linear_4929_362134)"/>
<path d="M53.8331 195.807C54.9859 195.667 56.1897 195.869 57.2904 196.459C60.1348 197.981 61.2044 201.524 59.6801 204.367C56.7255 209.883 52.5942 214.875 47.7337 218.806C45.2249 220.839 41.5462 220.449 39.5181 217.939C37.489 215.431 37.8776 211.751 40.3854 209.723C44.0451 206.764 47.1558 203.002 49.3823 198.85C50.3167 197.105 52.0073 196.028 53.8331 195.807Z" fill="#808E35"/>
<path d="M76.701 137.7C77.2388 137.635 77.7937 137.643 78.3535 137.734C81.5384 138.256 83.6967 141.261 83.1739 144.445C81.7357 153.204 79.0987 161.716 75.3309 169.743C73.9618 172.663 70.4834 173.922 67.5609 172.55C64.6404 171.181 63.3835 167.701 64.7536 164.78C68.0617 157.728 70.3802 150.249 71.6422 142.555C72.0739 139.93 74.1901 138.004 76.701 137.7Z" fill="#808E35"/>
<path d="M79.7187 88.8315C79.7307 88.8305 79.7427 88.8285 79.7537 88.8275C82.9586 88.4579 85.8571 90.7574 86.2247 93.9624C87.1901 102.346 86.8486 110.793 85.2061 119.07C84.5801 122.235 81.5094 124.291 78.3396 123.664C75.1747 123.036 73.1175 119.962 73.7455 116.797C75.1517 109.711 75.4451 102.476 74.6188 95.2984C74.2503 92.1045 76.5308 89.2181 79.7187 88.8315Z" fill="#808E35"/>
<path d="M75.6217 66.356C75.9272 58.7012 75.5676 50.9022 74.511 43.0802C78.2177 50.0479 81.3725 57.4413 83.8904 65.1661C85.6801 71.581 75.7118 73.0142 75.6217 66.356Z" fill="#808E35"/>
<path d="M65.2637 169.54C65.8026 169.474 66.3614 169.483 66.9263 169.577C70.1082 170.106 72.2605 173.114 71.7327 176.298C70.3776 184.452 66.9644 192.2 61.8605 198.7C59.8705 201.238 56.1958 201.684 53.6589 199.689C51.121 197.697 50.6773 194.026 52.6704 191.487C56.5654 186.524 59.1714 180.61 60.205 174.383C60.6406 171.764 62.7539 169.844 65.2637 169.54Z" fill="#808E35"/>
<path d="M78.9006 118.744C79.139 118.715 79.3804 118.701 79.6278 118.702C82.8527 118.71 85.4627 121.333 85.4527 124.56C85.4407 129.253 84.6104 133.862 82.9869 138.26C81.8702 141.287 78.512 142.833 75.4834 141.72C72.4567 140.602 70.9083 137.243 72.0241 134.216C73.1728 131.104 73.7597 127.845 73.7687 124.527C73.7768 121.548 76.0152 119.094 78.9006 118.744Z" fill="#808E35"/>
<path d="M75.5833 85.913C76.4817 82.1432 76.6519 78.117 76.042 74.178C75.6845 71.8324 77.2959 69.642 79.6415 69.2845C86.8286 68.361 86.0193 82.8423 85.776 87.6347C84.7934 94.8478 74.1421 93.054 75.5833 85.913Z" fill="#808E35"/>
<path d="M53.8331 195.807C54.9859 195.667 56.1897 195.869 57.2904 196.459C60.1348 197.981 61.2044 201.524 59.6801 204.367C56.7255 209.883 52.5942 214.875 47.7337 218.806C45.2249 220.839 41.5462 220.449 39.5181 217.939C37.489 215.431 37.8776 211.751 40.3854 209.723C44.0451 206.764 47.1558 203.002 49.3823 198.85C50.3167 197.105 52.0073 196.028 53.8331 195.807Z" fill="url(#paint28_linear_4929_362134)"/>
<path d="M76.701 137.7C77.2388 137.635 77.7937 137.643 78.3535 137.734C81.5384 138.256 83.6967 141.261 83.1739 144.445C81.7357 153.204 79.0987 161.716 75.3309 169.743C73.9618 172.663 70.4834 173.922 67.5609 172.55C64.6404 171.181 63.3835 167.701 64.7536 164.78C68.0617 157.728 70.3802 150.249 71.6422 142.555C72.0739 139.93 74.1901 138.004 76.701 137.7Z" fill="url(#paint29_linear_4929_362134)"/>
<path d="M79.7187 88.8315C79.7307 88.8305 79.7427 88.8285 79.7537 88.8275C82.9586 88.4579 85.8571 90.7574 86.2247 93.9624C87.1901 102.346 86.8486 110.793 85.2061 119.07C84.5801 122.235 81.5094 124.291 78.3396 123.664C75.1747 123.036 73.1175 119.962 73.7455 116.797C75.1517 109.711 75.4451 102.476 74.6188 95.2984C74.2503 92.1045 76.5308 89.2181 79.7187 88.8315Z" fill="url(#paint30_linear_4929_362134)"/>
<path d="M75.6217 66.356C75.9272 58.7012 75.5676 50.9022 74.511 43.0802C78.2177 50.0479 81.3725 57.4413 83.8904 65.1661C85.6801 71.581 75.7118 73.0142 75.6217 66.356Z" fill="url(#paint31_linear_4929_362134)"/>
<path d="M65.2637 169.54C65.8026 169.474 66.3614 169.483 66.9263 169.577C70.1082 170.106 72.2605 173.114 71.7327 176.298C70.3776 184.452 66.9644 192.2 61.8605 198.7C59.8705 201.238 56.1958 201.684 53.6589 199.689C51.121 197.697 50.6773 194.026 52.6704 191.487C56.5654 186.524 59.1714 180.61 60.205 174.383C60.6406 171.764 62.7539 169.844 65.2637 169.54Z" fill="url(#paint32_linear_4929_362134)"/>
<path d="M78.9006 118.744C79.139 118.715 79.3804 118.701 79.6278 118.702C82.8527 118.71 85.4627 121.333 85.4527 124.56C85.4407 129.253 84.6104 133.862 82.9869 138.26C81.8702 141.287 78.512 142.833 75.4834 141.72C72.4567 140.602 70.9083 137.243 72.0241 134.216C73.1728 131.104 73.7597 127.845 73.7687 124.527C73.7768 121.548 76.0152 119.094 78.9006 118.744Z" fill="url(#paint33_linear_4929_362134)"/>
<path d="M75.5833 85.913C76.4817 82.1432 76.6519 78.117 76.042 74.178C75.6845 71.8324 77.2959 69.642 79.6415 69.2845C86.8286 68.361 86.0193 82.8423 85.776 87.6347C84.7934 94.8478 74.1421 93.054 75.5833 85.913Z" fill="url(#paint34_linear_4929_362134)"/>
<path d="M47.7345 218.806C52.5949 214.875 56.7253 209.883 59.6808 204.367C60.4019 203.021 60.5251 201.523 60.1716 200.153C60.8046 199.789 61.3835 199.308 61.8612 198.698C66.965 192.198 70.3783 184.45 71.7334 176.296C71.9287 175.114 71.7534 173.959 71.2957 172.944C73.0053 172.566 74.5327 171.449 75.3329 169.742C79.1007 161.715 81.7388 153.203 83.176 144.444C83.4504 142.773 82.9726 141.163 82.0092 139.923C82.4108 139.433 82.7563 138.887 82.9877 138.26C84.6111 133.862 85.4414 129.253 85.4534 124.56C85.4575 123.284 85.0408 122.113 84.3488 121.15C84.7544 120.535 85.0548 119.837 85.2071 119.07C86.8496 110.793 87.1911 102.346 86.2256 93.9624C86.0694 92.6003 85.4384 91.4205 84.538 90.5201C85.153 89.798 85.6107 88.8556 85.7769 87.6347C85.9823 83.5794 86.5742 72.6206 82.4028 69.8934C83.7068 68.996 84.511 67.3886 83.891 65.1651C81.3732 57.4413 78.2183 50.0469 74.5116 43.0792C75.5683 50.9012 75.9278 58.7002 75.6223 66.355C75.6484 68.302 76.5287 69.5379 77.7035 70.1798C76.5127 71.1033 75.8006 72.5815 76.043 74.177C76.6519 78.117 76.4817 82.1432 75.5843 85.912C75.2127 87.7539 75.6534 89.2311 76.5167 90.2988C75.1636 91.5207 74.3945 93.3474 74.6188 95.2964C75.4451 102.474 75.1516 109.709 73.7455 116.795C73.418 118.447 73.8336 120.065 74.744 121.332C74.1371 122.251 73.7715 123.343 73.7685 124.526C73.7595 127.844 73.1716 131.103 72.0238 134.215C71.2937 136.195 71.7193 138.306 72.9372 139.85C72.3092 140.616 71.8145 141.505 71.6432 142.554C70.3813 150.248 68.0627 157.727 64.7546 164.779C63.9945 166.398 64.0666 168.177 64.7566 169.685C62.4831 170.177 60.6093 171.948 60.2047 174.381C59.1711 180.607 56.5651 186.521 52.6701 191.485C51.4953 192.981 51.1888 194.864 51.6355 196.571C50.7181 197.097 49.9178 197.847 49.382 198.849C47.1556 203.002 44.0448 206.763 40.3852 209.722C37.8763 211.75 37.4877 215.43 39.5179 217.938C41.547 220.449 45.2246 220.839 47.7345 218.806Z" fill="url(#paint35_linear_4929_362134)"/>
<defs>
<linearGradient id="paint0_linear_4929_362134" x1="52.9131" y1="181.418" x2="49.8995" y2="208.672" gradientUnits="userSpaceOnUse">
<stop stop-color="#C8D34F"/>
<stop offset="1" stop-color="#C8D34F" stop-opacity="0"/>
</linearGradient>
<linearGradient id="paint1_linear_4929_362134" x1="61.8362" y1="119.595" x2="57.8314" y2="155.813" gradientUnits="userSpaceOnUse">
<stop stop-color="#C8D34F"/>
<stop offset="1" stop-color="#C8D34F" stop-opacity="0"/>
</linearGradient>
<linearGradient id="paint2_linear_4929_362134" x1="53.5779" y1="72.216" x2="49.8941" y2="105.531" gradientUnits="userSpaceOnUse">
<stop stop-color="#C8D34F"/>
<stop offset="1" stop-color="#C8D34F" stop-opacity="0"/>
</linearGradient>
<linearGradient id="paint3_linear_4929_362134" x1="37.5841" y1="30.8711" x2="34.9729" y2="54.486" gradientUnits="userSpaceOnUse">
<stop stop-color="#C8D34F"/>
<stop offset="1" stop-color="#C8D34F" stop-opacity="0"/>
</linearGradient>
<linearGradient id="paint4_linear_4929_362134" x1="59.1438" y1="153.283" x2="55.4874" y2="186.351" gradientUnits="userSpaceOnUse">
<stop stop-color="#C8D34F"/>
<stop offset="1" stop-color="#C8D34F" stop-opacity="0"/>
</linearGradient>
<linearGradient id="paint5_linear_4929_362134" x1="58.5701" y1="100.806" x2="56.0119" y2="123.941" gradientUnits="userSpaceOnUse">
<stop stop-color="#C8D34F"/>
<stop offset="1" stop-color="#C8D34F" stop-opacity="0"/>
</linearGradient>
<linearGradient id="paint6_linear_4929_362134" x1="46.3932" y1="53.5019" x2="43.9991" y2="75.1534" gradientUnits="userSpaceOnUse">
<stop stop-color="#C8D34F"/>
<stop offset="1" stop-color="#C8D34F" stop-opacity="0"/>
</linearGradient>
<linearGradient id="paint7_linear_4929_362134" x1="55.2829" y1="222.83" x2="42.6814" y2="-5.57147" gradientUnits="userSpaceOnUse">
<stop stop-color="#3F552B"/>
<stop offset="1" stop-color="#3F552B" stop-opacity="0"/>
</linearGradient>
<linearGradient id="paint8_linear_4929_362134" x1="33.3313" y1="177.976" x2="34.5296" y2="205.37" gradientUnits="userSpaceOnUse">
<stop stop-color="#C8D34F"/>
<stop offset="1" stop-color="#C8D34F" stop-opacity="0"/>
</linearGradient>
<linearGradient id="paint9_linear_4929_362134" x1="28.5306" y1="115.697" x2="30.123" y2="152.101" gradientUnits="userSpaceOnUse">
<stop stop-color="#C8D34F"/>
<stop offset="1" stop-color="#C8D34F" stop-opacity="0"/>
</linearGradient>
<linearGradient id="paint10_linear_4929_362134" x1="39.9145" y1="68.9708" x2="41.3793" y2="102.457" gradientUnits="userSpaceOnUse">
<stop stop-color="#C8D34F"/>
<stop offset="1" stop-color="#C8D34F" stop-opacity="0"/>
</linearGradient>
<linearGradient id="paint11_linear_4929_362134" x1="58.6171" y1="28.7786" x2="59.6554" y2="52.5146" gradientUnits="userSpaceOnUse">
<stop stop-color="#C8D34F"/>
<stop offset="1" stop-color="#C8D34F" stop-opacity="0"/>
</linearGradient>
<linearGradient id="paint12_linear_4929_362134" x1="28.9814" y1="149.49" x2="30.4353" y2="182.727" gradientUnits="userSpaceOnUse">
<stop stop-color="#C8D34F"/>
<stop offset="1" stop-color="#C8D34F" stop-opacity="0"/>
</linearGradient>
<linearGradient id="paint13_linear_4929_362134" x1="33.0366" y1="97.1661" x2="34.0539" y2="120.421" gradientUnits="userSpaceOnUse">
<stop stop-color="#C8D34F"/>
<stop offset="1" stop-color="#C8D34F" stop-opacity="0"/>
</linearGradient>
<linearGradient id="paint14_linear_4929_362134" x1="48.3257" y1="50.7749" x2="49.2776" y2="72.5375" gradientUnits="userSpaceOnUse">
<stop stop-color="#C8D34F"/>
<stop offset="1" stop-color="#C8D34F" stop-opacity="0"/>
</linearGradient>
<linearGradient id="paint15_linear_4929_362134" x1="30.8256" y1="218.981" x2="46.13" y2="71.9607" gradientUnits="userSpaceOnUse">
<stop stop-color="#3F552B"/>
<stop offset="1" stop-color="#3F552B" stop-opacity="0"/>
</linearGradient>
<linearGradient id="paint16_linear_4929_362134" x1="60.4241" y1="274.086" x2="41.279" y2="139.32" gradientUnits="userSpaceOnUse">
<stop stop-color="#3F552B"/>
<stop offset="1" stop-color="#3F552B" stop-opacity="0"/>
</linearGradient>
<linearGradient id="paint17_linear_4929_362134" x1="14.6209" y1="-74.1005" x2="53.4291" y2="233.426" gradientUnits="userSpaceOnUse">
<stop stop-color="#EBBB50"/>
<stop offset="1" stop-color="#EBBB50" stop-opacity="0"/>
</linearGradient>
<linearGradient id="paint18_linear_4929_362134" x1="-19.3085" y1="-5.87007" x2="39.7793" y2="231.97" gradientUnits="userSpaceOnUse">
<stop stop-color="#C8D34F"/>
<stop offset="1" stop-color="#C8D34F" stop-opacity="0"/>
</linearGradient>
<linearGradient id="paint19_linear_4929_362134" x1="7.76141" y1="192.014" x2="47.3516" y2="153.985" gradientUnits="userSpaceOnUse">
<stop stop-color="white"/>
<stop offset="1" stop-color="white" stop-opacity="0"/>
</linearGradient>
<linearGradient id="paint20_linear_4929_362134" x1="28.9607" y1="189.203" x2="38.8043" y2="221.543" gradientUnits="userSpaceOnUse">
<stop stop-color="#C8D34F"/>
<stop offset="1" stop-color="#C8D34F" stop-opacity="0"/>
</linearGradient>
<linearGradient id="paint21_linear_4929_362134" x1="4.10204" y1="116.316" x2="17.1834" y2="159.293" gradientUnits="userSpaceOnUse">
<stop stop-color="#C8D34F"/>
<stop offset="1" stop-color="#C8D34F" stop-opacity="0"/>
</linearGradient>
<linearGradient id="paint22_linear_4929_362134" x1="3.34475" y1="57.0284" x2="15.3776" y2="96.5607" gradientUnits="userSpaceOnUse">
<stop stop-color="#C8D34F"/>
<stop offset="1" stop-color="#C8D34F" stop-opacity="0"/>
</linearGradient>
<linearGradient id="paint23_linear_4929_362134" x1="13.3317" y1="3.29501" x2="21.861" y2="31.317" gradientUnits="userSpaceOnUse">
<stop stop-color="#C8D34F"/>
<stop offset="1" stop-color="#C8D34F" stop-opacity="0"/>
</linearGradient>
<linearGradient id="paint24_linear_4929_362134" x1="15.0183" y1="156.526" x2="26.9618" y2="195.765" gradientUnits="userSpaceOnUse">
<stop stop-color="#C8D34F"/>
<stop offset="1" stop-color="#C8D34F" stop-opacity="0"/>
</linearGradient>
<linearGradient id="paint25_linear_4929_362134" x1="3.7908" y1="92.8061" x2="12.1471" y2="120.26" gradientUnits="userSpaceOnUse">
<stop stop-color="#C8D34F"/>
<stop offset="1" stop-color="#C8D34F" stop-opacity="0"/>
</linearGradient>
<linearGradient id="paint26_linear_4929_362134" x1="7.79878" y1="32.7192" x2="15.619" y2="58.4115" gradientUnits="userSpaceOnUse">
<stop stop-color="#C8D34F"/>
<stop offset="1" stop-color="#C8D34F" stop-opacity="0"/>
</linearGradient>
<linearGradient id="paint27_linear_4929_362134" x1="146.651" y1="352.361" x2="-8.05552" y2="36.8664" gradientUnits="userSpaceOnUse">
<stop stop-color="#3F552B"/>
<stop offset="1" stop-color="#3F552B" stop-opacity="0"/>
</linearGradient>
<linearGradient id="paint28_linear_4929_362134" x1="54.6383" y1="195.307" x2="43.9633" y2="220.565" gradientUnits="userSpaceOnUse">
<stop stop-color="#C8D34F"/>
<stop offset="1" stop-color="#C8D34F" stop-opacity="0"/>
</linearGradient>
<linearGradient id="paint29_linear_4929_362134" x1="80.854" y1="138.608" x2="66.6678" y2="172.173" gradientUnits="userSpaceOnUse">
<stop stop-color="#C8D34F"/>
<stop offset="1" stop-color="#C8D34F" stop-opacity="0"/>
</linearGradient>
<linearGradient id="paint30_linear_4929_362134" x1="86.4769" y1="90.8435" x2="73.4278" y2="121.718" gradientUnits="userSpaceOnUse">
<stop stop-color="#C8D34F"/>
<stop offset="1" stop-color="#C8D34F" stop-opacity="0"/>
</linearGradient>
<linearGradient id="paint31_linear_4929_362134" x1="82.9627" y1="46.651" x2="73.713" y2="68.5362" gradientUnits="userSpaceOnUse">
<stop stop-color="#C8D34F"/>
<stop offset="1" stop-color="#C8D34F" stop-opacity="0"/>
</linearGradient>
<linearGradient id="paint32_linear_4929_362134" x1="68.6487" y1="170.124" x2="55.6965" y2="200.77" gradientUnits="userSpaceOnUse">
<stop stop-color="#C8D34F"/>
<stop offset="1" stop-color="#C8D34F" stop-opacity="0"/>
</linearGradient>
<linearGradient id="paint33_linear_4929_362134" x1="83.0926" y1="119.669" x2="74.0306" y2="141.11" gradientUnits="userSpaceOnUse">
<stop stop-color="#C8D34F"/>
<stop offset="1" stop-color="#C8D34F" stop-opacity="0"/>
</linearGradient>
<linearGradient id="paint34_linear_4929_362134" x1="84.9383" y1="70.8561" x2="76.4577" y2="90.9217" gradientUnits="userSpaceOnUse">
<stop stop-color="#C8D34F"/>
<stop offset="1" stop-color="#C8D34F" stop-opacity="0"/>
</linearGradient>
<linearGradient id="paint35_linear_4929_362134" x1="-125.186" y1="366.29" x2="117.04" y2="61.4982" gradientUnits="userSpaceOnUse">
<stop stop-color="#3F552B"/>
<stop offset="1" stop-color="#3F552B" stop-opacity="0"/>
</linearGradient>
</defs>
</svg>
