<svg width="260" height="592" viewBox="0 0 260 592" fill="none" xmlns="http://www.w3.org/2000/svg">
<path d="M28.0602 150.59C29.9102 151.09 27.7002 154.86 26.8202 156.14C25.9302 157.42 22.9902 157.97 21.7902 156.9C20.6002 155.83 17.8202 150.89 20.7502 150.45C23.7002 150.01 26.0902 150.07 28.0602 150.59Z" fill="url(#paint0_linear_3173_598498)"/>
<path d="M31.6902 147.63C27.3302 156.1 18.5902 153.55 15.7802 146.05C14.4002 142.38 14.1402 139.18 14.5602 136.68C15.1102 133.31 16.8702 131.2 18.7702 130.93C18.8702 130.91 18.9702 130.9 19.0702 130.9C22.4902 130.77 27.7202 130.43 30.0402 130.93C30.1902 130.96 30.3602 131.04 30.5302 131.16C31.4202 131.75 32.5002 133.38 33.1302 135.68C33.9902 138.78 34.0402 143.09 31.6902 147.63Z" fill="url(#paint1_linear_3173_598498)"/>
<path d="M33.1301 135.68C32.6101 135.52 31.1001 138.51 30.3301 138.96C29.5601 139.4 27.9701 138.26 27.5201 139.02C27.0801 139.79 25.9901 139.98 24.3901 139.98C22.8001 139.98 20.9501 139.15 19.8601 140.55C18.7801 141.96 16.8001 139.15 16.0301 138C15.6201 137.39 15.0201 136.95 14.5601 136.68C15.1101 133.31 16.8701 131.2 18.7701 130.93C22.0601 130.95 26.6601 131.54 29.5001 131.2C29.8701 131.16 30.2101 131.14 30.5301 131.16C31.4201 131.75 32.5001 133.38 33.1301 135.68Z" fill="#63554C"/>
<path d="M36.7401 133.5C36.0901 136.05 31.8601 132.83 31.8601 132.83C31.8601 132.83 32.1701 135.74 30.5401 136.93C28.9101 138.12 27.3701 133.88 27.3701 133.88C27.3701 133.88 27.0501 136.9 25.2301 137.69C23.4101 138.48 21.7401 134.21 21.7401 134.21C21.7401 134.21 21.0101 137.94 18.8801 138C16.7501 138.07 17.7101 134.05 17.7101 134.05C17.7101 134.05 14.2001 135.76 12.2801 135.17C12.1001 135.12 11.9301 135.04 11.7801 134.94C10.0501 133.78 10.8201 130.97 14.5301 129.62C15.3401 129.33 16.1401 129.08 16.9201 128.87C25.2701 126.65 31.9701 128.93 31.9701 128.93C31.9701 128.93 37.3801 130.95 36.7401 133.5Z" fill="#998370"/>
<path d="M23.6289 132.794C27.0217 132.632 29.7346 131.714 29.6884 130.743C29.6421 129.772 26.8542 129.116 23.4613 129.277C20.0685 129.439 17.3556 130.357 17.4019 131.328C17.4482 132.299 20.2361 132.955 23.6289 132.794Z" fill="#4C3C31"/>
<path d="M29.5701 131.12C29.6601 130.99 29.7001 130.87 29.6901 130.74C29.6501 129.77 26.8601 129.11 23.4601 129.28C20.0701 129.44 17.3501 130.35 17.4001 131.32C17.4101 131.54 17.5701 131.75 17.8501 131.94C17.8501 131.94 16.6101 130.91 17.5601 130.17C18.7201 129.27 20.3601 128.88 23.1001 128.77C25.8301 128.65 28.8201 129.21 29.5701 129.74C30.1101 130.13 30.2301 130.73 29.5701 131.12Z" fill="#7E6D5D"/>
<path d="M28.7801 145.17C28.7801 145.17 27.3901 146.36 27.7701 146.74C28.1501 147.12 29.7901 146.02 28.7801 145.17Z" fill="#63554C"/>
<path d="M16.3202 143.78C16.3202 143.78 15.5202 144.35 16.3202 144.51C17.1202 144.67 16.9302 144.26 16.3202 143.78Z" fill="#63554C"/>
<path d="M29.88 145.82C29.88 145.82 29.37 145.79 29.66 146.17C29.95 146.56 30.81 146.65 29.88 145.82Z" fill="#63554C"/>
<path d="M12.6501 131.62C14.5601 132.81 13.5301 133.51 13.0801 134.04C12.6701 134.51 13.1201 134.84 12.2801 135.17C12.1001 135.12 11.9301 135.04 11.7801 134.94C10.0501 133.78 10.8201 130.97 14.5301 129.62C15.3401 129.33 16.1401 129.08 16.9201 128.87C15.0501 129.6 11.7901 131.09 12.6501 131.62Z" fill="#B29C8D"/>
<path d="M31.5101 143.59C30.8101 143.47 31.3501 144.2 31.6101 144.29C31.8701 144.38 32.2501 143.71 31.5101 143.59Z" fill="#63554C"/>
<path d="M16.9602 131.35C16.9602 131.35 14.1302 130.66 11.7002 132.05L16.9602 131.35Z" fill="#776A64"/>
<path d="M17.1102 131.99C17.1102 131.99 14.0902 132.13 11.7002 134.2L17.1102 131.99Z" fill="#776A64"/>
<path d="M18.3302 132.67C18.3302 132.67 16.7102 132.63 14.4602 134.59L18.3302 132.67Z" fill="#776A64"/>
<path d="M19.74 132.95C19.74 132.95 18.15 134.13 17.72 135.68L19.74 132.95Z" fill="#776A64"/>
<path d="M20.2901 133.21C20.2901 133.21 19.01 135.25 18.8 137.38L20.2901 133.21Z" fill="#776A64"/>
<path d="M21.47 132.95C21.47 132.95 20.48 134.05 20.48 136.21L21.47 132.95Z" fill="#776A64"/>
<path d="M23.1001 132.95C23.1001 132.95 22.3901 133.13 22.6301 135.3L23.1001 132.95Z" fill="#776A64"/>
<path d="M24.4202 132.78C24.4202 132.78 25.3402 134.04 24.8002 137.04L24.4202 132.78Z" fill="#776A64"/>
<path d="M25.9001 132.89C25.9001 132.89 26.8501 133.03 26.7701 135.19L25.9001 132.89Z" fill="#776A64"/>
<path d="M27.76 132.72C27.76 132.72 28.79 133.21 29.01 135.68L27.76 132.72Z" fill="#776A64"/>
<path d="M28.78 132.21C28.78 132.21 30.52 133.47 30.71 135.94L28.78 132.21Z" fill="#776A64"/>
<path d="M29.6001 131.95C29.6001 131.95 30.9601 132.29 31.6501 133.96L29.6001 131.95Z" fill="#776A64"/>
<path d="M30.3801 131.15C30.3801 131.15 33.6701 131.87 34.7301 133.26L30.3801 131.15Z" fill="#776A64"/>
<path d="M30.1101 130.49C30.1101 130.49 34.2601 130.6 36.0301 132.21L30.1101 130.49Z" fill="#776A64"/>
<path d="M29.53 129.96C29.53 129.96 31.65 129.37 33.77 130.13L29.53 129.96Z" fill="#776A64"/>
<path d="M28.3301 129.54C28.3301 129.54 29.5901 128.75 30.7301 128.73L28.3301 129.54Z" fill="#776A64"/>
<path d="M27.5601 129.54C27.5601 129.54 27.6901 128.41 28.1101 128.26L27.5601 129.54Z" fill="#776A64"/>
<path d="M26.6801 129.17C26.6801 129.17 26.3901 128.75 26.4501 128.14L26.6801 129.17Z" fill="#776A64"/>
<path d="M25.2901 129.05C25.2901 129.05 25.0701 128.73 25.4501 128.1L25.2901 129.05Z" fill="#776A64"/>
<path d="M24.5001 129.13C24.5001 129.13 24.0301 128.72 24.3301 128L24.5001 129.13Z" fill="#776A64"/>
<path d="M23.5601 129.13C23.2601 128.71 23.2801 128.15 23.3601 128.26L23.5601 129.13Z" fill="#776A64"/>
<path d="M22.38 129.28C22.38 129.08 22 128.72 22.29 128.26L22.38 129.28Z" fill="#776A64"/>
<path d="M21.4702 129.28C21.5902 128.9 21.4702 128.57 21.1702 128.12L21.4702 129.28Z" fill="#776A64"/>
<path d="M20.9402 129.39C20.9402 129.39 20.5602 128.57 20.1702 128.41L20.9402 129.39Z" fill="#776A64"/>
<path d="M19.96 129.54C19.92 129.16 19.74 128.77 19.28 128.57L19.96 129.54Z" fill="#776A64"/>
<path d="M18.9202 129.74C18.8702 129.55 18.2102 128.91 17.7102 129L18.9202 129.74Z" fill="#776A64"/>
<path d="M17.71 130.28C17.71 130.28 16.95 129.59 15.04 129.94L17.71 130.28Z" fill="#776A64"/>
<path d="M28.64 137.39C28.64 137.39 28.16 137.74 28.38 138.01C28.61 138.28 28.68 138.52 28.78 138.14C28.88 137.76 29.14 137.41 28.64 137.39Z" fill="#4F433B"/>
<path d="M21.8702 136.85C21.8702 136.85 21.2902 137.08 21.4702 137.38C21.6502 137.68 21.9802 138 22.1802 137.68C22.3802 137.36 22.3202 136.95 21.8702 136.85Z" fill="#4F433B"/>
<path d="M29.5701 131.13C29.0001 131.94 26.5701 132.64 23.6301 132.79C21.0201 132.91 18.7801 132.55 17.8501 131.94C17.8501 131.94 25.1601 132.03 27.8401 131.62C28.7101 131.48 29.2601 131.31 29.5701 131.13Z" fill="#4C3C31"/>
<path d="M28.0303 148.14C28.0303 148.14 28.1903 149.43 28.7803 149.24C29.3703 149.04 30.1403 148.18 28.0303 148.14Z" fill="#63554C"/>
<path d="M29.1102 146.82C29.1102 146.82 28.3202 147.03 28.7902 147.28C29.2602 147.53 29.8602 147.73 29.1102 146.82Z" fill="#63554C"/>
<path d="M27.3302 149.97C27.3302 149.97 26.0202 150.23 26.5602 150.7C27.1102 151.18 28.3202 149.75 27.3302 149.97Z" fill="#63554C"/>
<defs>
<linearGradient id="paint0_linear_3173_598498" x1="24.1757" y1="153.639" x2="24.2884" y2="157.444" gradientUnits="userSpaceOnUse">
<stop stop-color="#52473A"/>
<stop offset="0.9111" stop-color="#63674D"/>
</linearGradient>
<linearGradient id="paint1_linear_3173_598498" x1="24.0069" y1="141.271" x2="23.8952" y2="152.889" gradientUnits="userSpaceOnUse">
<stop stop-color="#7B6A58"/>
<stop offset="1" stop-color="#634E42"/>
</linearGradient>
</defs>
</svg>
