<svg width="260" height="592" viewBox="0 0 260 592" fill="none" xmlns="http://www.w3.org/2000/svg">
<path d="M141 22.38C141.01 22.52 139.44 21.88 138.18 21.11C138.06 21.01 137.95 20.93 137.83 20.83C137.83 20.83 130.44 15.06 134 10.23C134.62 9.37 135.29 8.47 135.98 7.56C135.69 9.41 135.37 12.26 135.92 13.44C136.76 15.22 136.76 17.46 137.92 19.2C138.81 20.53 140.97 21.96 141 22.38Z" fill="#645F47"/>
<path d="M133.29 16.93C133.29 16.93 133.88 19.83 134.33 20.46C134.78 21.09 136.03 22.72 136.39 23.08C136.75 23.44 140.08 23.96 141.01 23.99C142.86 24.04 146.89 22.12 146.74 21.23C146.58 20.34 138.41 22.15 133.29 16.93Z" fill="#505423"/>
<path d="M138.49 6.95001C138.49 6.95001 138.52 11.87 142.29 13.02C146.06 14.17 148.78 11.68 148.76 9.92C148.7 4.66 148.22 0.420005 147.1 0.0900052C146.07 -0.209995 143.57 0.0100055 138.85 6.55001" fill="url(#paint0_linear_3173_598499)"/>
<path d="M146.46 21.52C147.16 20.95 153.72 12.5 148.64 3.91C148.64 3.91 144.64 10.48 143.67 11.12" fill="url(#paint1_linear_3173_598499)"/>
<path d="M142.64 1.38C142.64 1.38 142.2 9.06001 142.64 10.14C143.08 11.22 134.69 17.99 134.43 17.12C134.17 16.25 133.58 5.57 142.64 1.38Z" fill="url(#paint2_linear_3173_598499)"/>
<path d="M139.01 21.09C138.54 20.99 132.99 18.19 135.02 15.3C137.05 12.41 143.3 8.25 143.3 8.25C143.3 8.25 147.38 17.32 146.64 18.96C145.9 20.6 144.16 22.15 139.01 21.09Z" fill="url(#paint3_linear_3173_598499)"/>
<path d="M137.02 5.87C137.02 5.87 141.03 20.4 140.28 21.56C139.53 22.72 134.41 18.61 134.14 18.07C133.87 17.53 130.37 14.09 132.52 11.06C134.67 8.03 137.02 5.87 137.02 5.87Z" fill="url(#paint4_linear_3173_598499)"/>
<path d="M150.94 11.74C150.94 11.74 137.89 19.29 137.61 20.64C137.33 21.99 143.86 22.65 144.44 22.46C145.01 22.26 149.92 22.27 150.51 18.6C151.1 14.93 150.94 11.74 150.94 11.74Z" fill="url(#paint5_linear_3173_598499)"/>
<path d="M118 141.61C118.07 141.67 117.03 142.15 116.07 142.41C115.97 142.42 115.87 142.44 115.77 142.45C115.77 142.45 109.52 143.4 108.8 139.42C108.67 138.71 108.53 137.97 108.41 137.22C109.18 138.22 110.43 139.7 111.27 139.97C112.53 140.38 113.63 141.42 115.02 141.66C116.08 141.82 117.78 141.42 118 141.61Z" fill="#645F47"/>
<path d="M111.75 142.87C111.75 142.87 113.44 143.93 113.96 144C114.48 144.07 115.86 144.21 116.2 144.2C116.54 144.19 118.34 142.8 118.78 142.35C119.66 141.47 120.58 138.6 120.08 138.26C119.58 137.92 116.68 142.77 111.75 142.87Z" fill="#595226"/>
<path d="M109.27 135.69C109.27 135.69 111.7 137.95 114.01 136.63C116.32 135.31 116.36 132.83 115.48 132.02C112.87 129.61 110.57 127.89 109.89 128.28C109.27 128.64 108.22 129.98 109.24 135.32" fill="url(#paint6_linear_3173_598499)"/>
<path d="M120.1 138.53C120.15 137.92 119.04 130.79 112.47 129.31C112.47 129.31 113.84 134.31 113.71 135.09" fill="url(#paint7_linear_3173_598499)"/>
<path d="M108.46 131.08C108.46 131.08 112.02 134.85 112.76 135.13C113.49 135.42 112.93 142.66 112.38 142.39C111.83 142.11 106.31 137.46 108.46 131.08Z" fill="url(#paint8_linear_3173_598499)"/>
<path d="M116.44 141.98C116.17 142.17 112.23 143.59 111.75 141.26C111.27 138.93 112.13 133.93 112.13 133.93C112.13 133.93 118.47 136.13 118.93 137.25C119.39 138.37 119.35 139.95 116.44 141.98Z" fill="url(#paint9_linear_3173_598499)"/>
<path d="M108.05 135.92C108.05 135.92 117.03 140.68 117.26 141.59C117.49 142.5 113.09 143.1 112.71 142.99C112.33 142.88 109.01 143 108.52 140.54C108.03 138.08 108.05 135.92 108.05 135.92Z" fill="url(#paint10_linear_3173_598499)"/>
<path d="M117.38 131.81C117.38 131.81 115.04 141.7 115.58 142.47C116.12 143.24 119.46 140.33 119.63 139.96C119.8 139.59 122.07 137.19 120.55 135.19C119.01 133.2 117.38 131.81 117.38 131.81Z" fill="url(#paint11_linear_3173_598499)"/>
<path d="M134.32 278.89C134.31 278.97 133.51 278.48 132.88 277.95C132.82 277.88 132.77 277.83 132.72 277.76C132.72 277.76 129.17 273.95 131.55 271.61C131.97 271.19 132.41 270.76 132.87 270.32C132.55 271.31 132.12 272.84 132.32 273.54C132.63 274.59 132.43 275.82 132.91 276.88C133.28 277.68 134.35 278.65 134.32 278.89Z" fill="#645F47"/>
<path d="M130.57 275.22C130.57 275.22 130.64 276.86 130.83 277.25C131.02 277.64 131.57 278.64 131.73 278.87C131.89 279.1 133.68 279.68 134.18 279.77C135.19 279.96 137.57 279.26 137.57 278.76C137.56 278.26 132.92 278.53 130.57 275.22Z" fill="#595226"/>
<path d="M134.3 270.2C134.3 270.2 133.88 272.9 135.85 273.86C137.82 274.82 139.53 273.69 139.67 272.73C140.1 269.84 140.21 267.47 139.62 267.19C139.08 266.93 137.69 266.84 134.53 270.01" fill="url(#paint12_linear_3173_598499)"/>
<path d="M137.39 278.89C137.83 278.64 142.17 274.58 140.13 269.42C140.13 269.42 137.36 272.67 136.77 272.94" fill="url(#paint13_linear_3173_598499)"/>
<path d="M137.06 267.51C137.06 267.51 136.15 271.68 136.29 272.31C136.43 272.94 131.24 275.92 131.18 275.42C131.12 274.93 131.72 269.01 137.06 267.51Z" fill="url(#paint14_linear_3173_598499)"/>
<path d="M133.35 278C133.1 277.91 130.3 275.88 131.67 274.48C133.04 273.08 136.83 271.34 136.83 271.34C136.83 271.34 138.27 276.67 137.72 277.51C137.17 278.34 136.08 279.04 133.35 278Z" fill="url(#paint15_linear_3173_598499)"/>
<path d="M133.58 269.48C133.58 269.48 134.5 277.8 133.99 278.37C133.48 278.94 131.03 276.24 130.93 275.92C130.83 275.6 129.21 273.41 130.66 271.93C132.11 270.46 133.58 269.48 133.58 269.48Z" fill="url(#paint16_linear_3173_598499)"/>
<path d="M140.71 273.92C140.71 273.92 132.89 276.92 132.62 277.63C132.35 278.35 135.87 279.28 136.2 279.23C136.53 279.17 139.22 279.61 139.87 277.64C140.52 275.68 140.71 273.92 140.71 273.92Z" fill="url(#paint17_linear_3173_598499)"/>
<path d="M131.53 210.41C131.6 210.43 131.03 211.07 130.44 211.55C130.37 211.59 130.31 211.63 130.24 211.67C130.24 211.67 126.21 214.23 124.51 211.7C124.2 211.25 123.89 210.78 123.57 210.3C124.4 210.75 125.72 211.39 126.38 211.33C127.37 211.23 128.45 211.61 129.48 211.35C130.27 211.15 131.33 210.36 131.53 210.41Z" fill="#645F47"/>
<path d="M127.61 213.18C127.61 213.18 129.1 213.39 129.48 213.29C129.86 213.18 130.85 212.86 131.09 212.75C131.32 212.64 132.14 211.13 132.31 210.69C132.65 209.81 132.42 207.56 131.96 207.47C131.51 207.39 130.98 211.61 127.61 213.18Z" fill="#595226"/>
<path d="M123.71 208.99C123.71 208.99 126.07 209.82 127.26 208.2C128.45 206.59 127.72 204.86 126.88 204.57C124.35 203.7 122.23 203.21 121.89 203.69C121.57 204.13 121.25 205.37 123.58 208.74" fill="url(#paint18_linear_3173_598499)"/>
<path d="M132.05 207.65C131.9 207.22 128.97 202.63 123.98 203.6C123.98 203.6 126.45 206.64 126.59 207.21" fill="url(#paint19_linear_3173_598499)"/>
<path d="M121.75 206.05C121.75 206.05 125.35 207.57 125.95 207.54C126.55 207.51 128.35 212.69 127.89 212.66C127.44 212.64 122.21 211.11 121.75 206.05Z" fill="url(#paint20_linear_3173_598499)"/>
<path d="M130.58 211.15C130.45 211.36 128.17 213.54 127.13 212.08C126.09 210.62 125.17 206.91 125.17 206.91C125.17 206.91 130.21 206.5 130.87 207.14C131.52 207.76 131.97 208.86 130.58 211.15Z" fill="url(#paint21_linear_3173_598499)"/>
<path d="M122.95 209.51C122.95 209.51 130.6 210.07 131.02 210.62C131.44 211.17 128.61 212.93 128.3 212.97C128 213.01 125.75 214.1 124.67 212.55C123.59 211 122.95 209.51 122.95 209.51Z" fill="url(#paint22_linear_3173_598499)"/>
<path d="M128.13 203.84C128.13 203.84 129.52 211.38 130.12 211.74C130.72 212.1 132.15 209.09 132.15 208.78C132.15 208.47 132.99 206.12 131.33 205.21C129.68 204.31 128.13 203.84 128.13 203.84Z" fill="url(#paint23_linear_3173_598499)"/>
<path d="M141.3 373.46C141.3 373.54 140.47 373.11 139.81 372.62C139.75 372.56 139.69 372.51 139.63 372.45C139.63 372.45 135.87 368.9 138.07 366.43C138.46 365.99 138.87 365.53 139.29 365.07C139.03 366.07 138.71 367.62 138.96 368.3C139.33 369.32 139.21 370.55 139.76 371.57C140.19 372.33 141.31 373.23 141.3 373.46Z" fill="#645F47"/>
<path d="M137.34 370.07C137.34 370.07 137.51 371.69 137.73 372.06C137.95 372.43 138.55 373.39 138.73 373.61C138.91 373.83 140.71 374.28 141.22 374.35C142.23 374.48 144.55 373.63 144.51 373.13C144.47 372.63 139.89 373.2 137.34 370.07Z" fill="#595226"/>
<path d="M140.72 364.86C140.72 364.86 140.48 367.56 142.5 368.39C144.51 369.21 146.13 367.99 146.21 367.02C146.45 364.13 146.4 361.77 145.81 361.53C145.26 361.31 143.87 361.3 140.94 364.65" fill="url(#paint24_linear_3173_598499)"/>
<path d="M144.34 373.27C144.76 372.99 148.8 368.69 146.44 363.71C146.44 363.71 143.9 367.11 143.34 367.41" fill="url(#paint25_linear_3173_598499)"/>
<path d="M143.29 362.01C143.29 362.01 142.65 366.21 142.84 366.82C143.02 367.43 138.07 370.72 137.97 370.23C137.87 369.74 138.09 363.84 143.29 362.01Z" fill="url(#paint26_linear_3173_598499)"/>
<path d="M140.28 372.65C140.03 372.57 137.12 370.75 138.38 369.27C139.64 367.79 143.29 365.83 143.29 365.83C143.29 365.83 145.06 371.02 144.57 371.88C144.08 372.74 143.05 373.5 140.28 372.65Z" fill="url(#paint27_linear_3173_598499)"/>
<path d="M139.96 364.19C139.96 364.19 141.41 372.38 140.94 372.98C140.47 373.58 137.87 371.06 137.75 370.75C137.63 370.44 135.88 368.37 137.22 366.82C137.89 366.04 138.58 365.39 139.09 364.93C139.61 364.45 139.96 364.19 139.96 364.19Z" fill="url(#paint28_linear_3173_598499)"/>
<path d="M147.31 368.13C147.31 368.13 139.75 371.6 139.53 372.33C139.31 373.06 142.86 373.76 143.19 373.68C143.51 373.6 146.21 373.86 146.72 371.87C147.23 369.89 147.31 368.13 147.31 368.13Z" fill="url(#paint29_linear_3173_598499)"/>
<path d="M133.43 342.46C133.5 342.48 132.99 343.13 132.47 343.62C132.41 343.66 132.35 343.7 132.29 343.75C132.29 343.75 128.62 346.47 126.82 344.17C126.5 343.76 126.16 343.34 125.83 342.9C126.66 343.28 127.95 343.8 128.58 343.69C129.52 343.53 130.58 343.82 131.54 343.5C132.28 343.25 133.23 342.42 133.43 342.46Z" fill="#645F47"/>
<path d="M129.87 345.37C129.87 345.37 131.31 345.47 131.66 345.34C132.01 345.21 132.94 344.84 133.16 344.71C133.38 344.58 134.05 343.09 134.19 342.66C134.46 341.8 134.08 339.66 133.64 339.61C133.2 339.58 132.98 343.64 129.87 345.37Z" fill="#595226"/>
<path d="M125.87 341.63C125.87 341.63 128.18 342.26 129.21 340.64C130.24 339.02 129.43 337.42 128.6 337.2C126.12 336.54 124.07 336.22 123.77 336.7C123.5 337.14 123.27 338.35 125.73 341.41" fill="url(#paint30_linear_3173_598499)"/>
<path d="M133.73 339.79C133.55 339.39 130.44 335.21 125.75 336.48C125.75 336.48 128.31 339.21 128.49 339.75" fill="url(#paint31_linear_3173_598499)"/>
<path d="M123.79 338.96C123.79 338.96 127.33 340.16 127.9 340.1C128.46 340.04 130.55 344.85 130.11 344.86C129.67 344.87 124.58 343.76 123.79 338.96Z" fill="url(#paint32_linear_3173_598499)"/>
<path d="M132.56 343.23C132.45 343.44 130.42 345.68 129.33 344.35C128.24 343.03 127.1 339.55 127.1 339.55C127.1 339.55 131.88 338.82 132.56 339.38C133.24 339.94 133.73 340.95 132.56 343.23Z" fill="url(#paint33_linear_3173_598499)"/>
<path d="M125.17 342.18C125.17 342.18 132.51 342.19 132.95 342.69C133.4 343.19 130.8 345.06 130.51 345.12C130.22 345.18 128.15 346.37 127.01 344.97C125.88 343.56 125.17 342.18 125.17 342.18Z" fill="url(#paint34_linear_3173_598499)"/>
<path d="M129.73 336.42C129.73 336.42 131.58 343.52 132.17 343.83C132.76 344.14 133.93 341.16 133.91 340.87C133.89 340.58 134.53 338.28 132.89 337.52C131.25 336.76 129.73 336.42 129.73 336.42Z" fill="url(#paint35_linear_3173_598499)"/>
<defs>
<linearGradient id="paint0_linear_3173_598499" x1="138.146" y1="14.0599" x2="149.943" y2="2.26322" gradientUnits="userSpaceOnUse">
<stop offset="0.00349061" stop-color="#4D4336"/>
<stop offset="0.8194" stop-color="#63674D"/>
<stop offset="0.9834" stop-color="#92B08C"/>
</linearGradient>
<linearGradient id="paint1_linear_3173_598499" x1="156.09" y1="19.7473" x2="142.877" y2="8.8718" gradientUnits="userSpaceOnUse">
<stop stop-color="#7B6A58"/>
<stop offset="0.8194" stop-color="#63674D"/>
<stop offset="0.9869" stop-color="#92A788"/>
</linearGradient>
<linearGradient id="paint2_linear_3173_598499" x1="125.341" y1="8.7331" x2="144.665" y2="9.54201" gradientUnits="userSpaceOnUse">
<stop stop-color="#7B6A58"/>
<stop offset="0.8194" stop-color="#63674D"/>
<stop offset="0.9869" stop-color="#92A788"/>
</linearGradient>
<linearGradient id="paint3_linear_3173_598499" x1="136.202" y1="16.3158" x2="146.448" y2="14.1358" gradientUnits="userSpaceOnUse">
<stop stop-color="#7B6A58"/>
<stop offset="0.8194" stop-color="#63674D"/>
<stop offset="0.9869" stop-color="#92A788"/>
</linearGradient>
<linearGradient id="paint4_linear_3173_598499" x1="133.151" y1="14.9487" x2="139.368" y2="13.6259" gradientUnits="userSpaceOnUse">
<stop stop-color="#7B6A58"/>
<stop offset="0.8194" stop-color="#63674D"/>
<stop offset="0.9869" stop-color="#92A788"/>
</linearGradient>
<linearGradient id="paint5_linear_3173_598499" x1="147.334" y1="20.9515" x2="143.831" y2="15.6481" gradientUnits="userSpaceOnUse">
<stop stop-color="#7B6A58"/>
<stop offset="0.8194" stop-color="#63674D"/>
<stop offset="0.9869" stop-color="#92A788"/>
</linearGradient>
<linearGradient id="paint6_linear_3173_598499" x1="112.608" y1="139.137" x2="112.281" y2="127.891" gradientUnits="userSpaceOnUse">
<stop offset="0.00349061" stop-color="#4D4336"/>
<stop offset="0.8194" stop-color="#63674D"/>
<stop offset="0.9834" stop-color="#92B08C"/>
</linearGradient>
<linearGradient id="paint7_linear_3173_598499" x1="123.702" y1="132.968" x2="112.253" y2="134.415" gradientUnits="userSpaceOnUse">
<stop stop-color="#7B6A58"/>
<stop offset="0.8194" stop-color="#63674D"/>
<stop offset="0.9869" stop-color="#92A788"/>
</linearGradient>
<linearGradient id="paint8_linear_3173_598499" x1="104.068" y1="142.952" x2="113.409" y2="133.848" gradientUnits="userSpaceOnUse">
<stop offset="4.19417e-07" stop-color="#849C70"/>
<stop offset="0.8194" stop-color="#63674D"/>
<stop offset="0.9869" stop-color="#92A788"/>
</linearGradient>
<linearGradient id="paint9_linear_3173_598499" x1="112.814" y1="141.134" x2="116.487" y2="135.1" gradientUnits="userSpaceOnUse">
<stop stop-color="#7B6A58"/>
<stop offset="0.8194" stop-color="#63674D"/>
<stop offset="0.9869" stop-color="#92A788"/>
</linearGradient>
<linearGradient id="paint10_linear_3173_598499" x1="110.732" y1="141.998" x2="112.96" y2="138.336" gradientUnits="userSpaceOnUse">
<stop stop-color="#7B6A58"/>
<stop offset="0.8194" stop-color="#63674D"/>
<stop offset="0.9869" stop-color="#92A788"/>
</linearGradient>
<linearGradient id="paint11_linear_3173_598499" x1="120.199" y1="137.849" x2="115.976" y2="137.113" gradientUnits="userSpaceOnUse">
<stop stop-color="#7B6A58"/>
<stop offset="0.8194" stop-color="#63674D"/>
<stop offset="0.9869" stop-color="#92A788"/>
</linearGradient>
<linearGradient id="paint12_linear_3173_598499" x1="133.496" y1="274.093" x2="141.001" y2="268.656" gradientUnits="userSpaceOnUse">
<stop offset="0.00349061" stop-color="#4D4336"/>
<stop offset="0.8194" stop-color="#63674D"/>
<stop offset="0.9834" stop-color="#92B08C"/>
</linearGradient>
<linearGradient id="paint13_linear_3173_598499" x1="142.841" y1="278.786" x2="136.546" y2="271.662" gradientUnits="userSpaceOnUse">
<stop stop-color="#7B6A58"/>
<stop offset="0.8194" stop-color="#63674D"/>
<stop offset="0.9869" stop-color="#92A788"/>
</linearGradient>
<linearGradient id="paint14_linear_3173_598499" x1="126.938" y1="270.048" x2="137.468" y2="272.186" gradientUnits="userSpaceOnUse">
<stop offset="4.19417e-07" stop-color="#849C70"/>
<stop offset="0.8194" stop-color="#63674D"/>
<stop offset="0.9869" stop-color="#92A788"/>
</linearGradient>
<linearGradient id="paint15_linear_3173_598499" x1="132.232" y1="275.16" x2="138.043" y2="274.862" gradientUnits="userSpaceOnUse">
<stop stop-color="#7B6A58"/>
<stop offset="0.8194" stop-color="#63674D"/>
<stop offset="0.9869" stop-color="#92A788"/>
</linearGradient>
<linearGradient id="paint16_linear_3173_598499" x1="130.678" y1="274.143" x2="134.204" y2="273.962" gradientUnits="userSpaceOnUse">
<stop stop-color="#7B6A58"/>
<stop offset="0.8194" stop-color="#63674D"/>
<stop offset="0.9869" stop-color="#92A788"/>
</linearGradient>
<linearGradient id="paint17_linear_3173_598499" x1="137.919" y1="278.672" x2="136.461" y2="275.455" gradientUnits="userSpaceOnUse">
<stop stop-color="#7B6A58"/>
<stop offset="0.8194" stop-color="#63674D"/>
<stop offset="0.9869" stop-color="#92A788"/>
</linearGradient>
<linearGradient id="paint18_linear_3173_598499" x1="127.035" y1="210.355" x2="123.395" y2="202.693" gradientUnits="userSpaceOnUse">
<stop offset="0.00349061" stop-color="#4D4336"/>
<stop offset="0.8194" stop-color="#63674D"/>
<stop offset="0.9834" stop-color="#92B08C"/>
</linearGradient>
<linearGradient id="paint19_linear_3173_598499" x1="132.818" y1="202.728" x2="125.357" y2="207.204" gradientUnits="userSpaceOnUse">
<stop stop-color="#7B6A58"/>
<stop offset="0.8194" stop-color="#63674D"/>
<stop offset="0.9869" stop-color="#92A788"/>
</linearGradient>
<linearGradient id="paint20_linear_3173_598499" x1="122.301" y1="215.581" x2="125.982" y2="206.462" gradientUnits="userSpaceOnUse">
<stop offset="4.19417e-07" stop-color="#849C70"/>
<stop offset="0.8194" stop-color="#63674D"/>
<stop offset="0.9869" stop-color="#92A788"/>
</linearGradient>
<linearGradient id="paint21_linear_3173_598499" x1="127.785" y1="211.67" x2="128.487" y2="206.391" gradientUnits="userSpaceOnUse">
<stop stop-color="#7B6A58"/>
<stop offset="0.8194" stop-color="#63674D"/>
<stop offset="0.9869" stop-color="#92A788"/>
</linearGradient>
<linearGradient id="paint22_linear_3173_598499" x1="126.61" y1="212.899" x2="127.036" y2="209.695" gradientUnits="userSpaceOnUse">
<stop stop-color="#7B6A58"/>
<stop offset="0.8194" stop-color="#63674D"/>
<stop offset="0.9869" stop-color="#92A788"/>
</linearGradient>
<linearGradient id="paint23_linear_3173_598499" x1="131.915" y1="207.123" x2="128.777" y2="207.897" gradientUnits="userSpaceOnUse">
<stop stop-color="#7B6A58"/>
<stop offset="0.8194" stop-color="#63674D"/>
<stop offset="0.9869" stop-color="#92A788"/>
</linearGradient>
<linearGradient id="paint24_linear_3173_598499" x1="140.176" y1="368.738" x2="147.264" y2="362.867" gradientUnits="userSpaceOnUse">
<stop offset="0.00349061" stop-color="#4D4336"/>
<stop offset="0.8194" stop-color="#63674D"/>
<stop offset="0.9834" stop-color="#92B08C"/>
</linearGradient>
<linearGradient id="paint25_linear_3173_598499" x1="149.738" y1="372.788" x2="143.043" y2="366.133" gradientUnits="userSpaceOnUse">
<stop stop-color="#7B6A58"/>
<stop offset="0.8194" stop-color="#63674D"/>
<stop offset="0.9869" stop-color="#92A788"/>
</linearGradient>
<linearGradient id="paint26_linear_3173_598499" x1="133.418" y1="365.152" x2="143.99" y2="366.593" gradientUnits="userSpaceOnUse">
<stop offset="4.19417e-07" stop-color="#849C70"/>
<stop offset="0.8194" stop-color="#63674D"/>
<stop offset="0.9869" stop-color="#92A788"/>
</linearGradient>
<linearGradient id="paint27_linear_3173_598499" x1="138.992" y1="369.877" x2="144.732" y2="369.208" gradientUnits="userSpaceOnUse">
<stop stop-color="#7B6A58"/>
<stop offset="0.8194" stop-color="#63674D"/>
<stop offset="0.9869" stop-color="#92A788"/>
</linearGradient>
<linearGradient id="paint28_linear_3173_598499" x1="137.387" y1="368.969" x2="140.87" y2="368.563" gradientUnits="userSpaceOnUse">
<stop stop-color="#7B6A58"/>
<stop offset="0.8194" stop-color="#63674D"/>
<stop offset="0.9869" stop-color="#92A788"/>
</linearGradient>
<linearGradient id="paint29_linear_3173_598499" x1="144.864" y1="373.014" x2="143.213" y2="369.92" gradientUnits="userSpaceOnUse">
<stop stop-color="#7B6A58"/>
<stop offset="0.8194" stop-color="#63674D"/>
<stop offset="0.9869" stop-color="#92A788"/>
</linearGradient>
<linearGradient id="paint30_linear_3173_598499" x1="129.16" y1="342.713" x2="125.161" y2="335.648" gradientUnits="userSpaceOnUse">
<stop offset="0.00349061" stop-color="#4D4336"/>
<stop offset="0.8194" stop-color="#63674D"/>
<stop offset="0.9834" stop-color="#92B08C"/>
</linearGradient>
<linearGradient id="paint31_linear_3173_598499" x1="134.159" y1="335.037" x2="127.342" y2="339.82" gradientUnits="userSpaceOnUse">
<stop stop-color="#7B6A58"/>
<stop offset="0.8194" stop-color="#63674D"/>
<stop offset="0.9869" stop-color="#92A788"/>
</linearGradient>
<linearGradient id="paint32_linear_3173_598499" x1="124.998" y1="348.027" x2="127.889" y2="339.069" gradientUnits="userSpaceOnUse">
<stop offset="4.19417e-07" stop-color="#849C70"/>
<stop offset="0.8194" stop-color="#63674D"/>
<stop offset="0.9869" stop-color="#92A788"/>
</linearGradient>
<linearGradient id="paint33_linear_3173_598499" x1="129.966" y1="343.918" x2="130.275" y2="338.83" gradientUnits="userSpaceOnUse">
<stop stop-color="#7B6A58"/>
<stop offset="0.8194" stop-color="#63674D"/>
<stop offset="0.9869" stop-color="#92A788"/>
</linearGradient>
<linearGradient id="paint34_linear_3173_598499" x1="128.928" y1="345.171" x2="129.116" y2="342.084" gradientUnits="userSpaceOnUse">
<stop stop-color="#7B6A58"/>
<stop offset="0.8194" stop-color="#63674D"/>
<stop offset="0.9869" stop-color="#92A788"/>
</linearGradient>
<linearGradient id="paint35_linear_3173_598499" x1="133.566" y1="339.275" x2="130.624" y2="340.229" gradientUnits="userSpaceOnUse">
<stop stop-color="#7B6A58"/>
<stop offset="0.8194" stop-color="#63674D"/>
<stop offset="0.9869" stop-color="#92A788"/>
</linearGradient>
</defs>
</svg>
