<svg width="246" height="167" viewBox="0 0 246 167" fill="none" xmlns="http://www.w3.org/2000/svg">
<path d="M102.63 162.062C103.084 155.65 99.8806 149.31 97.0218 143.676C93.9048 137.958 88.982 132.696 82.3656 131.332C85.6678 131.828 88.7627 133.402 91.3653 135.516C96.6183 139.816 99.7793 146.025 102.472 152.134C103.766 155.24 104.772 158.63 104.628 162.191L102.63 162.062Z" fill="#808E35"/>
<path d="M105.135 145.966C103.363 139.2 101.535 132.318 97.3838 126.599C93.3098 120.884 87.4292 116.474 80.7948 114.12C87.6083 116.182 93.7663 120.381 98.1836 125.996C102.694 131.618 104.949 138.653 107.058 145.411L105.135 145.966Z" fill="#808E35"/>
<path d="M102.529 118.242C95.44 105.098 80.5456 96.518 65.5281 96.9043C80.8228 95.8523 96.3549 104.017 104.269 117.252C104.27 117.253 102.529 118.242 102.529 118.242Z" fill="#808E35"/>
<path d="M96.4781 99.9132C85.025 89.341 68.6754 86.7005 53.5878 85.5734C69.0057 86.0669 85.5247 88.0398 97.8065 98.4148L96.4781 99.9132Z" fill="#808E35"/>
<path d="M66.5132 76.3615C49.0673 75.0773 42.9905 78.9901 26.6517 68.0195C32.5534 71.4858 38.9645 74.5338 45.9012 74.823C52.7428 75.2134 59.6005 73.8862 66.7013 74.3686L66.5132 76.3615Z" fill="#808E35"/>
<path d="M32.4268 64.8654C22.8776 59.4702 12.5897 54.8658 4.39878 47.4226C8.6749 50.9069 13.4917 53.5956 18.4055 56.0279C23.3352 58.4393 28.3549 60.7274 33.3307 63.0797L32.4268 64.8654Z" fill="#808E35"/>
<path d="M127.617 161.558C128.093 154.539 132.122 148.742 135.949 143.175C139.857 137.848 145.608 133.152 152.415 132.697C145.706 133.496 140.356 138.32 136.765 143.755C133.439 149.125 129.708 155.173 129.618 161.599C129.619 161.599 127.617 161.558 127.617 161.558Z" fill="#808E35"/>
<path d="M126.617 144.632C129.292 138.077 132.136 131.258 137.106 126.04C141.984 120.819 148.476 117.157 155.439 115.68C145.164 118.304 136.541 125.854 132.325 135.537C130.853 138.706 129.672 142.016 128.487 145.348L126.617 144.632Z" fill="#808E35"/>
<path d="M131.783 116.812C140.79 104.296 156.959 97.476 172.109 99.8212C157.179 98.1626 141.611 105.45 133.433 117.946C133.434 117.945 131.783 116.812 131.783 116.812Z" fill="#808E35"/>
<path d="M139.819 98.5889C152.938 89.292 169.562 88.7265 184.967 89.5413C169.84 89.3841 153.321 90.6313 141.016 100.194C141.016 100.195 139.819 98.5889 139.819 98.5889Z" fill="#808E35"/>
<path d="M172.85 77.2653C190.346 78.2753 195.811 82.9969 213.293 74.3336C196.091 83.8798 190.336 79.4645 172.869 79.2663C172.869 79.2673 172.85 77.2653 172.85 77.2653Z" fill="#808E35"/>
<path d="M204.895 65.4139C215.129 61.4561 225.863 58.4412 235.052 52.2653C226.258 58.9888 215.619 62.7033 205.645 67.2697L204.895 65.4139Z" fill="#808E35"/>
<path d="M245.612 24.2392C244.928 23.6306 241.108 29.9218 233.544 31.1349C224.933 32.5163 219.363 26.065 215.897 28.8157C212.568 31.4592 215.977 38.7932 211.583 42.2015C210.203 43.2725 208.61 43.5229 207.587 43.5849C207.465 43.5199 207.367 43.4427 207.34 43.3376C207.223 42.8772 208.379 42.3877 209.247 41.627C210.736 40.3227 212.001 37.6421 211.086 35.7253C210.391 34.2719 208.131 33.4211 206.595 34.0147C204.35 34.8835 203.225 38.8864 204.243 41.3277C204.467 41.8663 204.894 42.5639 204.923 43.1344C204.06 42.8161 203.259 42.3417 202.621 41.674C200.129 39.0635 200.981 34.6793 202.621 32.1868C206.272 26.6405 215.022 28.6495 215.517 25.9529C215.975 23.4505 208.875 19.3896 202.094 19.0102C199.525 18.8661 195.203 19.1503 194.715 20.855C194.388 21.9951 196.042 22.8389 197.35 24.8078C200.281 29.221 199.895 36.9125 195.769 40.62C194.919 41.3838 193.841 42.0304 192.722 42.4849C192.315 42.4018 191.94 42.2606 191.875 42.0023C191.735 41.4518 193.117 40.8663 194.156 39.9564C195.938 38.3959 197.452 35.1898 196.356 32.8966C195.525 31.158 192.822 30.1399 190.985 30.8506C188.299 31.8896 186.953 36.6782 188.171 39.598C188.531 40.4589 189.323 41.66 188.831 42.3827C188.643 42.659 188.32 42.7681 187.99 42.8311C187.822 42.7631 187.585 42.65 187.336 42.4658C184.827 40.609 185.726 34.9475 186.859 31.4972C189.086 24.7197 193.108 23.7758 192.498 20.9371C191.542 16.4938 180.665 14.0514 179.165 16.3746C178.406 17.5487 180.621 18.9822 182.064 23.2263C183.922 28.6946 183.013 35.4531 179.691 40.3568C178.075 42.7421 175.65 45.0273 173.173 46.5678C172.513 46.4357 171.904 46.2094 171.798 45.791C171.573 44.9082 173.79 43.9693 175.455 42.5099C178.312 40.0075 180.74 34.8664 178.983 31.1909C177.649 28.4032 173.316 26.7707 170.37 27.9098C166.063 29.5764 163.905 37.2537 165.859 41.9353C166.435 43.3156 167.705 45.2425 166.917 46.4006C166.475 47.0513 165.556 47.2064 164.842 47.2354C162.286 44.2936 163.093 36.6442 164.933 31.3962C168.037 22.5396 173.946 20.845 173.103 16.6379C171.862 10.4429 157.468 6.20681 154.128 10.0495C152.674 11.7211 154.063 14.0624 155.709 21.1182C158.058 31.1849 160.619 42.1515 155.972 46.6819C155.447 47.1944 154.807 47.5938 154.127 47.9422C153.119 47.6619 151.947 47.1683 151.694 46.2474C151.331 44.9211 153.105 43.5339 154.044 42.4789C158.092 37.9355 157.535 27.3702 152.949 24.7767C150.534 23.4114 147.083 24.3023 145.011 25.8718C140.112 29.5834 140.185 39.1756 143.957 43.1655C145.161 44.4387 147.189 45.6409 146.914 46.877C146.751 47.6097 145.771 48.0271 144.893 48.2744C144.022 47.9311 143.203 47.5097 142.53 46.9441C136.074 41.5109 141.669 26.4194 142.267 24.8068C145.606 15.7991 150.02 14.1465 149.119 10.0485C147.309 1.80859 126.971 -2.89992 123.631 1.97178C121.313 5.35504 129.187 10.446 131.725 23.7528C133.077 30.8426 133.95 45.686 126.191 49.5797C125.902 49.7249 125.571 49.7878 125.265 49.901C125.278 49.8509 125.31 49.812 125.322 49.7619C124.315 49.4446 123.129 48.899 122.91 47.9541C122.575 46.5007 124.689 44.9041 125.41 44.2815C130.809 39.622 132.367 25.3583 126.671 20.8529C124.188 18.888 120.15 18.6398 117.364 20.1232C110.273 23.8998 109.934 39.634 115.303 44.5678C116.197 45.3896 118.465 47.0552 118.11 48.3945C117.942 49.0301 117.156 49.3925 116.368 49.6177C113.17 48.4506 110.28 46.3005 108.799 43.5188C107.768 41.585 106.995 38.563 110.38 27.7066C115.673 10.7362 121.469 5.5873 119.094 2.20003C115.783 -2.51953 101.226 2.77347 98.4349 3.78945C93.9455 5.42203 90.9417 6.56017 90.3521 8.99552C89.3362 13.1916 96.8793 15.4878 101.157 24.2813C103.709 29.5253 106.315 39.583 101.157 44.3106C100.291 45.1054 99.2177 45.7049 98.0585 46.1473C97.1677 45.851 96.2677 45.3837 96.0505 44.5909C95.6882 43.2646 97.462 41.8763 98.4019 40.8223C102.45 36.2789 101.892 25.7137 97.3068 23.1212C94.8915 21.7559 91.4403 22.6468 89.3683 24.2163C84.4695 27.9288 84.5424 37.5201 88.314 41.5099C89.5182 42.7832 91.5473 43.9853 91.271 45.2215C91.1439 45.7941 90.5182 46.1734 89.8326 46.4307C88.6024 46.0303 87.5054 45.4137 86.6616 44.5749C83.4104 41.3428 84.3182 35.2168 86.1349 22.964C87.4412 14.1505 88.6854 11.6431 86.9257 9.52301C83.3233 5.18483 71.2508 7.42507 70.0586 11.6311C69.1518 14.8302 75.2816 16.5479 77.9652 24.0181C80.3595 30.6835 79.2764 39.8893 74.9662 42.7471C73.9342 42.677 72.7162 42.4578 72.456 41.7461C72.1336 40.8663 73.4567 39.7281 74.1013 38.9954C77.1973 35.484 77.2344 27.152 73.2336 24.2873C70.6661 22.4485 66.0607 22.9479 64.0748 25.3152C61.4553 28.4362 62.5222 34.0197 64.6652 37.1567C65.9144 38.9855 67.8253 40.4478 67.3878 41.2466C67.1496 41.681 66.3338 41.7051 65.5631 41.631C64.1647 40.6761 62.9386 39.4469 62.1518 37.9855C57.5794 29.4853 68.5922 18.6268 65.3141 14.2666C61.5925 9.31683 42.2088 16.5908 42.5841 19.9701C42.8293 22.1822 51.3966 21.3915 52.9271 25.5986C54.0412 28.6615 50.8571 32.8065 46.8502 36.6112C46.7191 36.5341 46.6098 36.444 46.5638 36.3189C46.3836 35.8254 47.1254 35.1868 47.4868 34.7764C49.2225 32.8075 49.2434 28.136 47.0002 26.5294C45.5599 25.4984 42.9785 25.7787 41.8644 27.106C40.4821 28.7536 41.3567 32.0217 42.1956 33.7454C42.7681 34.9225 43.3967 35.5362 43.1955 36.411C43.0234 37.1567 42.3357 37.6722 41.5819 38.0436C38.7332 35.9125 42.8051 24.4735 38.4319 22.1733C36.49 21.1513 33.8305 22.4405 28.9438 24.8088C23.023 27.6785 22.5638 29.3362 19.72 30.3431C11.1848 33.3651 2.11794 23.1032 0.330211 24.7227C-1.57162 26.4464 4.74648 41.634 19.1604 55.141C46.1594 80.4414 71.9624 69.4809 89.6535 92.8014C97.2138 102.767 99.479 113.857 101.622 124.351C105.317 142.437 103.483 157.713 101.622 167C111.635 166.57 121.647 166.139 131.66 165.709C131.338 155.842 132.046 140.354 138.285 122.854C141.585 113.601 145.609 102.311 154.835 92.3179C173.593 72.0013 191.397 81.7367 217.12 61.8996C237.006 46.5688 247.074 25.5395 245.612 24.2392Z" fill="#808E35"/>
<path d="M245.612 24.2392C244.928 23.6306 241.108 29.9218 233.544 31.1349C224.933 32.5163 219.363 26.065 215.897 28.8157C212.568 31.4592 215.977 38.7932 211.583 42.2015C210.203 43.2725 208.61 43.5229 207.587 43.5849C207.465 43.5199 207.367 43.4427 207.34 43.3376C207.223 42.8772 208.379 42.3877 209.247 41.627C210.736 40.3227 212.001 37.6421 211.086 35.7253C210.391 34.2719 208.131 33.4211 206.595 34.0147C204.35 34.8835 203.225 38.8864 204.243 41.3277C204.467 41.8663 204.894 42.5639 204.923 43.1344C204.06 42.8161 203.259 42.3417 202.621 41.674C200.129 39.0635 200.981 34.6793 202.621 32.1868C206.272 26.6405 215.022 28.6495 215.517 25.9529C215.975 23.4505 208.875 19.3896 202.094 19.0102C199.525 18.8661 195.203 19.1503 194.715 20.855C194.388 21.9951 196.042 22.8389 197.35 24.8078C200.281 29.221 199.895 36.9125 195.769 40.62C194.919 41.3838 193.841 42.0304 192.722 42.4849C192.315 42.4018 191.94 42.2606 191.875 42.0023C191.735 41.4518 193.117 40.8663 194.156 39.9564C195.938 38.3959 197.452 35.1898 196.356 32.8966C195.525 31.158 192.822 30.1399 190.985 30.8506C188.299 31.8896 186.953 36.6782 188.171 39.598C188.531 40.4589 189.323 41.66 188.831 42.3827C188.643 42.659 188.32 42.7681 187.99 42.8311C187.822 42.7631 187.585 42.65 187.336 42.4658C184.827 40.609 185.726 34.9475 186.859 31.4972C189.086 24.7197 193.108 23.7758 192.498 20.9371C191.542 16.4938 180.665 14.0514 179.165 16.3746C178.406 17.5487 180.621 18.9822 182.064 23.2263C183.922 28.6946 183.013 35.4531 179.691 40.3568C178.075 42.7421 175.65 45.0273 173.173 46.5678C172.513 46.4357 171.904 46.2094 171.798 45.791C171.573 44.9082 173.79 43.9693 175.455 42.5099C178.312 40.0075 180.74 34.8664 178.983 31.1909C177.649 28.4032 173.316 26.7707 170.37 27.9098C166.063 29.5764 163.905 37.2537 165.859 41.9353C166.435 43.3156 167.705 45.2425 166.917 46.4006C166.475 47.0513 165.556 47.2064 164.842 47.2354C162.286 44.2936 163.093 36.6442 164.933 31.3962C168.037 22.5396 173.946 20.845 173.103 16.6379C171.862 10.4429 157.468 6.20681 154.128 10.0495C152.674 11.7211 154.063 14.0624 155.709 21.1182C158.058 31.1849 160.619 42.1515 155.972 46.6819C155.447 47.1944 154.807 47.5938 154.127 47.9422C153.119 47.6619 151.947 47.1683 151.694 46.2474C151.331 44.9211 153.105 43.5339 154.044 42.4789C158.092 37.9355 157.535 27.3702 152.949 24.7767C150.534 23.4114 147.083 24.3023 145.011 25.8718C140.112 29.5834 140.185 39.1756 143.957 43.1655C145.161 44.4387 147.189 45.6409 146.914 46.877C146.751 47.6097 145.771 48.0271 144.893 48.2744C144.022 47.9311 143.203 47.5097 142.53 46.9441C136.074 41.5109 141.669 26.4194 142.267 24.8068C145.606 15.7991 150.02 14.1465 149.119 10.0485C147.309 1.80859 126.971 -2.89992 123.631 1.97178C121.313 5.35504 129.187 10.446 131.725 23.7528C133.077 30.8426 133.95 45.686 126.191 49.5797C125.902 49.7249 125.571 49.7878 125.265 49.901C125.278 49.8509 125.31 49.812 125.322 49.7619C124.315 49.4446 123.129 48.899 122.91 47.9541C122.575 46.5007 124.689 44.9041 125.41 44.2815C130.809 39.622 132.367 25.3583 126.671 20.8529C124.188 18.888 120.15 18.6398 117.364 20.1232C110.273 23.8998 109.934 39.634 115.303 44.5678C116.197 45.3896 118.465 47.0552 118.11 48.3945C117.942 49.0301 117.156 49.3925 116.368 49.6177C113.17 48.4506 110.28 46.3005 108.799 43.5188C107.768 41.585 106.995 38.563 110.38 27.7066C115.673 10.7362 121.469 5.5873 119.094 2.20003C115.783 -2.51953 101.226 2.77347 98.4349 3.78945C93.9455 5.42203 90.9417 6.56017 90.3521 8.99552C89.3362 13.1916 96.8793 15.4878 101.157 24.2813C103.709 29.5253 106.315 39.583 101.157 44.3106C100.291 45.1054 99.2177 45.7049 98.0585 46.1473C97.1677 45.851 96.2677 45.3837 96.0505 44.5909C95.6882 43.2646 97.462 41.8763 98.4019 40.8223C102.45 36.2789 101.892 25.7137 97.3068 23.1212C94.8915 21.7559 91.4403 22.6468 89.3683 24.2163C84.4695 27.9288 84.5424 37.5201 88.314 41.5099C89.5182 42.7832 91.5473 43.9853 91.271 45.2215C91.1439 45.7941 90.5182 46.1734 89.8326 46.4307C88.6024 46.0303 87.5054 45.4137 86.6616 44.5749C83.4104 41.3428 84.3182 35.2168 86.1349 22.964C87.4412 14.1505 88.6854 11.6431 86.9257 9.52301C83.3233 5.18483 71.2508 7.42507 70.0586 11.6311C69.1518 14.8302 75.2816 16.5479 77.9652 24.0181C80.3595 30.6835 79.2764 39.8893 74.9662 42.7471C73.9342 42.677 72.7162 42.4578 72.456 41.7461C72.1336 40.8663 73.4567 39.7281 74.1013 38.9954C77.1973 35.484 77.2344 27.152 73.2336 24.2873C70.6661 22.4485 66.0607 22.9479 64.0748 25.3152C61.4553 28.4362 62.5222 34.0197 64.6652 37.1567C65.9144 38.9855 67.8253 40.4478 67.3878 41.2466C67.1496 41.681 66.3338 41.7051 65.5631 41.631C64.1647 40.6761 62.9386 39.4469 62.1518 37.9855C57.5794 29.4853 68.5922 18.6268 65.3141 14.2666C61.5925 9.31683 42.2088 16.5908 42.5841 19.9701C42.8293 22.1822 51.3966 21.3915 52.9271 25.5986C54.0412 28.6615 50.8571 32.8065 46.8502 36.6112C46.7191 36.5341 46.6098 36.444 46.5638 36.3189C46.3836 35.8254 47.1254 35.1868 47.4868 34.7764C49.2225 32.8075 49.2434 28.136 47.0002 26.5294C45.5599 25.4984 42.9785 25.7787 41.8644 27.106C40.4821 28.7536 41.3567 32.0217 42.1956 33.7454C42.7681 34.9225 43.3967 35.5362 43.1955 36.411C43.0234 37.1567 42.3357 37.6722 41.5819 38.0436C38.7332 35.9125 42.8051 24.4735 38.4319 22.1733C36.49 21.1513 33.8305 22.4405 28.9438 24.8088C23.023 27.6785 22.5638 29.3362 19.72 30.3431C11.1848 33.3651 2.11794 23.1032 0.330211 24.7227C-1.57162 26.4464 4.74648 41.634 19.1604 55.141C46.1594 80.4414 71.9624 69.4809 89.6535 92.8014C97.2138 102.767 99.479 113.857 101.622 124.351C105.317 142.437 103.483 157.713 101.622 167C111.635 166.57 121.647 166.139 131.66 165.709C131.338 155.842 132.046 140.354 138.285 122.854C141.585 113.601 145.609 102.311 154.835 92.3179C173.593 72.0013 191.397 81.7367 217.12 61.8996C237.006 46.5688 247.074 25.5395 245.612 24.2392Z" fill="url(#paint0_linear_4929_362142)"/>
<path d="M206.997 56.7675C181.775 69.65 170.751 64.7373 152.828 78.1722C130.442 94.9524 128.841 116.708 118.241 115.741C108.438 114.848 111.198 96.3668 93.7914 79.9609C84.5375 71.2405 81.3323 74.1764 37.0135 53.6356C32.1398 51.3764 22.6987 46.779 11.9253 38.459C7.9605 35.397 3.83947 31.9656 0.385137 28.0459C1.90761 33.5852 8.17586 44.842 19.1655 55.141C46.1645 80.4414 71.9672 69.4808 89.6583 92.8013C97.2186 102.767 99.4838 113.857 101.627 124.351C105.321 142.437 103.488 157.713 101.627 167C111.64 166.57 121.652 166.139 131.665 165.709C131.343 155.842 132.051 140.354 138.29 122.854C141.59 113.601 145.614 102.31 154.84 92.3178C173.598 72.0012 191.401 81.7367 217.125 61.8996C232.688 49.898 242.206 34.4451 244.918 27.6575C237.648 35.6062 225.221 47.4596 206.997 56.7675Z" fill="url(#paint1_linear_4929_362142)"/>
<path d="M70.5282 39.1235C68.4001 39.5079 65.4833 36.3529 64.9598 33.0637C64.8377 32.295 64.393 28.6834 66.9295 27.0188C68.8693 25.7466 71.6401 26.21 73.0665 27.5764C76.1905 30.5702 73.5711 38.574 70.5282 39.1235Z" fill="#EBBB50"/>
<path d="M96.6663 27.0189C100.225 29.3431 99.0097 34.8414 98.9456 35.1107C98.3721 37.536 96.3602 41.3307 93.2903 41.3027C90.5917 41.2786 88.7207 38.3168 88.0531 36.421C86.8479 32.9937 87.842 28.107 91.2473 26.5935C92.9199 25.8508 95.0618 25.9709 96.6663 27.0189Z" fill="#EBBB50"/>
<path d="M124.292 21.1052C128.636 23.4194 128.277 30.1339 128.222 31.1749C127.95 36.2658 124.883 42.638 121.028 42.704C118.338 42.7501 116.329 39.7071 115.756 38.8363C111.985 33.1238 113.22 23.4625 118.219 20.9861C120.096 20.0562 122.491 20.1453 124.292 21.1052Z" fill="#EBBB50"/>
<path d="M44.5356 28.3161C45.5506 28.238 46.4184 28.9938 46.8007 29.6754C47.6075 31.1138 46.964 33.487 45.5547 33.8654C44.5036 34.1477 43.2654 33.2559 42.7609 32.2049C42.2184 31.0728 42.4566 29.6084 43.3274 28.8457C43.4485 28.7386 43.885 28.3661 44.5356 28.3161Z" fill="#EBBB50"/>
<path d="M150.512 26.2182C153.702 26.7817 154.992 31.4682 155.138 32.0017C156.001 35.1347 155.658 39.9373 152.349 42.0033C152.079 42.1714 149.984 43.4347 147.586 42.7521C144.249 41.8021 142.583 37.7312 142.755 34.5872C143 30.1219 147.056 25.6076 150.512 26.2182Z" fill="#EBBB50"/>
<path d="M175.078 31.0248C176.963 31.9557 177.149 34.8574 177.171 35.3499C177.355 39.4528 173.686 44.0553 170.682 43.5128C168.325 43.0874 166.432 39.5049 166.985 36.4659C167.706 32.5041 172.533 29.7676 175.078 31.0248Z" fill="#EBBB50"/>
<path d="M193.008 32.9085C193.982 33.1037 194.613 34.2838 194.752 35.2107C195.095 37.4949 192.718 40.0174 191.263 39.6761C190.229 39.4328 189.612 37.7312 189.729 36.3969C189.894 34.5111 191.593 32.6243 193.008 32.9085Z" fill="#EBBB50"/>
<path d="M208.706 35.49C209.622 35.9255 209.905 37.9545 209.055 39.2577C208.468 40.1586 207.153 40.9954 206.195 40.5139C205.412 40.1196 205.204 39.0135 205.288 38.2818C205.492 36.4971 207.647 34.9866 208.706 35.49Z" fill="#EBBB50"/>
<path d="M120.536 22.5076C119.206 22.3074 117.892 23.6576 118.106 24.9509C118.258 25.8698 119.162 26.6295 120.19 26.6345C121.144 26.6395 122.04 25.9929 122.265 25.07C122.551 23.8949 121.65 22.6748 120.536 22.5076Z" fill="#1C150D"/>
<path d="M153.074 33.7314C151.744 33.5313 150.43 34.8815 150.644 36.1747C150.796 37.0936 151.7 37.8533 152.728 37.8584C153.682 37.8634 154.578 37.2167 154.802 36.2939C155.089 35.1187 154.188 33.8986 153.074 33.7314Z" fill="#1C150D"/>
<path d="M146.722 33.7314C145.392 33.5313 144.078 34.8815 144.292 36.1747C144.444 37.0936 145.348 37.8533 146.376 37.8584C147.33 37.8634 148.226 37.2167 148.451 36.2939C148.736 35.1187 147.836 33.8986 146.722 33.7314Z" fill="#1C150D"/>
<path d="M148.84 28.2011C147.509 28.0009 146.195 29.3512 146.409 30.6445C146.562 31.5634 147.465 32.3231 148.493 32.3281C149.447 32.3331 150.343 31.6864 150.568 30.7635C150.855 29.5884 149.954 28.3682 148.84 28.2011Z" fill="#1C150D"/>
<path d="M124.772 32.8996C123.441 32.6994 122.127 34.0497 122.341 35.343C122.493 36.2619 123.397 37.0216 124.425 37.0266C125.379 37.0316 126.275 36.385 126.5 35.4621C126.786 34.287 125.886 33.0667 124.772 32.8996Z" fill="#1C150D"/>
<path d="M120.536 34.5772C119.206 34.377 117.892 35.7274 118.106 37.0206C118.258 37.9395 119.162 38.6993 120.19 38.7043C121.144 38.7093 122.04 38.0625 122.265 37.1396C122.551 35.9645 121.65 34.7444 120.536 34.5772Z" fill="#1C150D"/>
<path d="M119.121 28.2011C117.79 28.0009 116.476 29.3512 116.69 30.6445C116.842 31.5634 117.746 32.3231 118.774 32.3281C119.728 32.3331 120.624 31.6864 120.849 30.7635C121.135 29.5884 120.235 28.3682 119.121 28.2011Z" fill="#1C150D"/>
<path d="M124.772 28.2011C123.441 28.0009 122.127 29.3512 122.341 30.6445C122.493 31.5634 123.397 32.3231 124.425 32.3281C125.379 32.3331 126.275 31.6864 126.5 30.7635C126.786 29.5884 125.886 28.3682 124.772 28.2011Z" fill="#1C150D"/>
<path d="M150.357 37.6532C149.027 37.453 147.712 38.8033 147.927 40.0966C148.079 41.0155 148.983 41.7752 150.011 41.7802C150.964 41.7852 151.86 41.1385 152.086 40.2156C152.371 39.0405 151.47 37.8204 150.357 37.6532Z" fill="#1C150D"/>
<path d="M44.9791 30.1979C44.0171 30.0538 43.0663 31.0297 43.2215 31.9646C43.3316 32.6293 43.9851 33.1787 44.7288 33.1827C45.4185 33.1867 46.0661 32.7184 46.2293 32.0517C46.4365 31.2009 45.7848 30.319 44.9791 30.1979Z" fill="#1C150D"/>
<path d="M70.7439 33.6132C69.795 33.4711 68.8562 34.4341 69.0093 35.357C69.1184 36.0136 69.7632 36.5551 70.4969 36.5591C71.1775 36.5631 71.8171 36.1016 71.9773 35.443C72.1815 34.6032 71.5387 33.7323 70.7439 33.6132Z" fill="#1C150D"/>
<path d="M68.7554 30.5423C67.8055 30.4001 66.8675 31.363 67.0206 32.2859C67.1297 32.9425 67.7744 33.4841 68.5081 33.4881C69.1888 33.4921 69.8284 33.0307 69.9886 32.372C70.1938 31.5322 69.5502 30.6614 68.7554 30.5423Z" fill="#1C150D"/>
<path d="M93.1688 35.0827C91.8386 34.8825 90.5243 36.2329 90.7385 37.5261C90.8907 38.445 91.7946 39.2047 92.8226 39.2098C93.7765 39.2148 94.6723 38.568 94.8976 37.6451C95.1828 36.47 94.2819 35.2499 93.1688 35.0827Z" fill="#1C150D"/>
<path d="M95.8325 31.1338C94.5023 30.9337 93.188 32.284 93.4022 33.5772C93.5544 34.4961 94.4583 35.2559 95.4863 35.2609C96.4402 35.2659 97.3361 34.6193 97.5613 33.6964C97.8475 32.5212 96.9466 31.301 95.8325 31.1338Z" fill="#1C150D"/>
<path d="M91.598 29.4663C90.2677 29.2662 88.9535 30.6164 89.1677 31.9096C89.3198 32.8285 90.2237 33.5882 91.2517 33.5933C92.2056 33.5983 93.1015 32.9516 93.3267 32.0288C93.612 30.8526 92.7111 29.6335 91.598 29.4663Z" fill="#1C150D"/>
<path d="M71.7378 30.253C70.7889 30.1109 69.8498 31.0738 70.003 31.9967C70.1121 32.6533 70.7568 33.1949 71.4905 33.1989C72.1711 33.2019 72.8108 32.7404 72.9709 32.0817C73.1761 31.2429 72.5326 30.3732 71.7378 30.253Z" fill="#1C150D"/>
<path d="M69.7503 27.182C68.8004 27.0398 67.8626 28.0028 68.0157 28.9257C68.1248 29.5824 68.7693 30.1239 69.503 30.1279C70.1837 30.1309 70.8233 29.6694 70.9834 29.0108C71.1876 28.172 70.5451 27.3011 69.7503 27.182Z" fill="#1C150D"/>
<path d="M173.784 33.0918C172.835 32.9486 171.896 33.9125 172.049 34.8354C172.158 35.492 172.803 36.0336 173.536 36.0376C174.217 36.0416 174.856 35.5802 175.017 34.9215C175.221 34.0817 174.578 33.2109 173.784 33.0918Z" fill="#1C150D"/>
<path d="M207.656 36.392C206.706 36.2488 205.768 37.2128 205.921 38.1357C206.03 38.7923 206.675 39.3338 207.409 39.3378C208.089 39.3418 208.729 38.8804 208.889 38.2217C209.093 37.3829 208.451 36.5121 207.656 36.392Z" fill="#1C150D"/>
<path d="M192.491 35.5611C191.541 35.419 190.603 36.3819 190.756 37.3048C190.865 37.9614 191.51 38.503 192.243 38.507C192.924 38.511 193.564 38.0496 193.724 37.3909C193.928 36.5511 193.285 35.6803 192.491 35.5611Z" fill="#1C150D"/>
<path d="M172.272 37.2387C171.322 37.0965 170.384 38.0595 170.537 38.9824C170.647 39.6391 171.291 40.1806 172.025 40.1846C172.706 40.1876 173.345 39.7261 173.505 39.0675C173.71 38.2287 173.067 37.3578 172.272 37.2387Z" fill="#1C150D"/>
<path d="M169.886 35.1648C168.937 35.0226 167.998 35.9855 168.151 36.9084C168.26 37.565 168.905 38.1066 169.638 38.1106C170.32 38.1146 170.959 37.6532 171.119 36.9945C171.323 36.1547 170.68 35.2839 169.886 35.1648Z" fill="#1C150D"/>
<defs>
<linearGradient id="paint0_linear_4929_362142" x1="111.757" y1="-162.986" x2="133.979" y2="213.303" gradientUnits="userSpaceOnUse">
<stop stop-color="#C8D34F"/>
<stop offset="1" stop-color="#C8D34F" stop-opacity="0"/>
</linearGradient>
<linearGradient id="paint1_linear_4929_362142" x1="113.664" y1="592.246" x2="122.549" y2="34.2502" gradientUnits="userSpaceOnUse">
<stop stop-color="#183022"/>
<stop offset="1" stop-color="#183022" stop-opacity="0"/>
</linearGradient>
</defs>
</svg>
