<svg width="85" height="84" viewBox="0 0 85 84" fill="none" xmlns="http://www.w3.org/2000/svg">
<path d="M21.9623 4.51003C5.38183 13.1866 -2.60782 32.6037 0.757161 48.7205C6.38701 75.6878 43.7412 93.1026 66.7273 78.9699C84.0219 68.3365 91.1884 41.0712 78.5083 20.7985C66.8668 2.18659 41.5086 -5.71826 21.9623 4.51003Z" fill="#EBBB50"/>
<path d="M78.5083 20.7985C66.8668 2.18659 41.5086 -5.71826 21.9623 4.51003C5.38183 13.1866 -2.60782 32.6037 0.757161 48.7205C6.38701 75.6878 43.7412 93.1026 66.7273 78.9699C84.0219 68.3365 91.1884 41.0712 78.5083 20.7985ZM66.9909 31.047C61.3004 35.3121 53.0048 35.005 46.2465 34.6736C42.7805 34.5039 39.5195 34.3261 36.2858 32.9431C32.937 31.5107 29.5155 29.1176 27.9931 25.7273C24.1927 17.2669 35.1838 12.328 41.5652 10.4136C49.2943 8.09421 58.4374 8.25382 65.6169 12.2502C69.4446 13.4523 71.3116 17.6356 71.5541 21.3511C71.8016 25.1363 70.0377 28.763 66.9909 31.047Z" fill="url(#paint0_linear_4929_362146)"/>
<path d="M8.26997 64.0482C9.32259 65.3726 14.9181 72.244 24.7272 76.6738C27.5699 77.9577 51.7803 88.4284 70.167 73.9664C84.5219 62.6754 84.733 44.518 84.7209 41.847C84.4411 34.6301 82.6066 27.3517 78.5083 20.7985C76.6192 17.778 74.2673 15.1566 71.7387 12.7311C71.765 12.824 71.8185 12.9048 71.8448 12.9967C73.7379 19.7236 72.9511 26.8607 69.6083 33.0077C65.8969 39.8327 59.088 44.6119 51.957 47.4405C35.1007 54.127 10.447 47.8557 1.50266 32.1137C0.855118 34.9039 0.388267 37.7143 0.224614 40.4974C0.121574 42.2552 0.139834 45.4101 0.758077 48.7205C2.16529 56.2515 6.25866 61.5167 8.26997 64.0482Z" fill="url(#paint1_linear_4929_362146)"/>
<defs>
<linearGradient id="paint0_linear_4929_362146" x1="-5.50477" y1="141.313" x2="56.7928" y2="13.5721" gradientUnits="userSpaceOnUse">
<stop stop-color="#7B3A14"/>
<stop offset="1" stop-color="#7B3A14" stop-opacity="0"/>
</linearGradient>
<linearGradient id="paint1_linear_4929_362146" x1="-62.0863" y1="148.03" x2="60.4648" y2="29.3086" gradientUnits="userSpaceOnUse">
<stop stop-color="#7B3A14"/>
<stop offset="1" stop-color="#7B3A14" stop-opacity="0"/>
</linearGradient>
</defs>
</svg>
