<svg width="234" height="316" viewBox="0 0 234 316" fill="none" xmlns="http://www.w3.org/2000/svg">
<path d="M88.5791 243.142C88.5791 249.632 88.7233 257.996 89.4442 263.044C104.583 271.264 150.549 266.072 151.299 263.044C162.112 219.347 137.457 202.474 130.104 202.041C122.75 201.609 116.695 216.751 115.83 212.425C115.138 208.964 121.02 181.275 124.048 167.863C136.592 80.4699 120.588 77.0087 114.965 78.7393C109.341 80.4699 108.044 86.5268 110.207 98.2081C112.369 109.889 100.258 164.402 100.69 170.459C101.123 176.516 88.5791 228 88.5791 243.142Z" fill="url(#paint0_radial_2885:502361)"/>
<path d="M111.162 213.828C116.412 220.233 125.78 198.699 125.78 185.432L103.287 179.515C104.016 183.632 106.962 208.704 111.162 213.828Z" fill="#B9C5FF"/>
<path d="M128.779 215.575C136.974 216.762 129.369 194.544 120.421 184.749L108.477 195.09C111.792 197.638 122.223 214.625 128.779 215.575Z" fill="#B9C5FF"/>
<path d="M101.556 168.728C103.978 173.227 108.909 204.925 111.072 220.212C111.793 224.106 114.705 247.814 118.858 252.66C124.048 258.717 135.295 249.199 135.295 236.652C135.295 226.615 126.644 181.419 123.183 167.43C117.993 146.231 108.736 99.592 113.235 82.6326C118.858 61.4333 116.262 42.8298 109.342 43.695C102.421 44.5603 98.5278 52.3478 92.9047 82.6326C87.2816 112.917 98.5278 163.103 101.556 168.728Z" fill="#CAD3FD"/>
<path d="M147.547 19.9812C137.845 23.1012 106.545 36.7361 112.111 111.599C115.039 150.989 120.416 175.762 136.324 185.192C144.604 190.099 163.393 188.457 169.807 187.763C189.277 185.656 227.225 153.198 212.627 101.183C192.682 30.1163 157.249 16.8611 147.547 19.9812Z" fill="url(#paint1_radial_2885:502361)"/>
<path d="M123.526 15.8995C113.566 19.1025 81.435 33.0996 87.1486 109.952C90.1549 150.389 95.6746 175.821 112.006 185.5C120.505 190.538 139.793 188.852 146.378 188.14C166.366 185.977 205.322 152.656 190.336 99.2589C169.861 26.304 133.486 12.6965 123.526 15.8995Z" fill="url(#paint2_radial_2885:502361)"/>
<path d="M16.7931 91.7209C1.90264 151.546 33.008 181.944 49.8124 187.949C56.6072 191.25 78.8742 189.937 83.0926 189.275C104.513 185.915 112.074 159.791 118.147 113.856C128.864 32.7929 91.2322 17.1561 80.7704 17.0815C70.3085 17.0069 35.4061 16.9395 16.7931 91.7209Z" fill="url(#paint3_radial_2885:502361)"/>
<path d="M39.7743 100.109C30.4205 161.046 50.2298 185.39 79.9319 189.605C97.3787 190.301 124.934 191.699 135.184 182.715C148.804 170.779 142.319 144.515 142.729 112.873C143.77 32.3804 106.771 15.7511 96.3461 16.6344C85.9213 17.5177 51.4666 23.9378 39.7743 100.109Z" fill="url(#paint4_radial_2885:502361)"/>
<path d="M175.09 224.409C168.602 218.785 146.109 219.218 133.565 219.218C121.021 219.218 131.925 278.819 132.203 306.651C137.624 313.678 166.006 313.966 175.569 309.207C175.569 309.207 178.55 225.275 175.09 224.409Z" fill="url(#paint5_radial_2885:502361)"/>
<path d="M68.6833 224.409C75.1714 218.785 96.7417 219.218 109.286 219.218C121.83 219.218 110.925 278.819 110.648 306.651C105.227 313.677 76.4692 313.533 67.2817 309.207C67.2817 309.207 65.2229 225.275 68.6833 224.409Z" fill="url(#paint6_radial_2885:502361)"/>
<path d="M144.812 219.651C143.946 218.353 99.3937 217.487 98.4787 220.083C97.5637 222.679 98.1901 282.154 98.4787 311.532C107.612 314.399 134.863 313.966 143.512 311.532C143.512 311.532 145.677 220.949 144.812 219.651Z" fill="url(#paint7_radial_2885:502361)"/>
<path d="M44.538 304.917L44.4925 304.909L44.4465 304.911C42.5373 304.958 38.0464 303.437 36.5878 296.444C36.1246 294.222 35.5709 288.91 34.9443 281.896C34.5341 277.303 34.0941 272 33.6287 266.39C33.3848 263.451 33.1339 260.427 32.8767 257.377C31.3825 239.662 29.6712 221.028 27.8684 213.053C26.3908 206.517 24.4317 194.423 22.4169 181.985C22.0604 179.784 21.7021 177.572 21.3444 175.378C20.1561 168.09 18.9752 161.006 17.8896 155.199C16.8073 149.409 15.8117 144.842 14.9885 142.617C14.1565 140.369 13.5084 136.247 13.0092 131.156C12.512 126.086 12.1672 120.112 11.9235 114.201C11.5632 105.462 11.4243 96.8827 11.3381 91.5607C11.3076 89.6784 11.2837 88.2036 11.259 87.2734C11.0998 81.292 12.2494 71.6767 14.367 62.5617C15.425 58.0077 16.7214 53.5925 18.21 49.8293C19.7028 46.0559 21.3726 42.9804 23.1588 41.0697C24.9962 39.1043 26.6526 37.5894 28.0718 36.5245C29.503 35.4507 30.6502 34.8672 31.4731 34.7059C31.8787 34.6263 32.1652 34.6573 32.3613 34.7416C32.5451 34.8206 32.6987 34.9669 32.8095 35.2303C33.0498 35.8017 33.0566 36.8553 32.6295 38.4989L32.6148 38.5555L32.6136 38.614C32.5872 39.8525 32.0223 41.7634 31.0756 44.4403C30.693 45.522 30.2454 46.7365 29.7537 48.0707C29.0553 49.9656 28.2679 52.1021 27.4511 54.4436C24.6457 62.4851 21.3708 73.2739 19.4425 86.9179C19.3132 87.5321 19.1928 88.0936 19.0816 88.6121C18.2527 92.4768 17.9358 93.9544 18.2999 97.0955C18.5019 98.8374 18.9166 101.124 19.5643 104.694C20.2107 108.258 21.0892 113.102 22.2198 119.96C24.4578 133.536 31.7339 158.692 38.5825 182.37L38.9302 183.572C42.4073 195.595 45.752 207.184 48.2509 216.638C49.5003 221.365 50.5369 225.553 51.2725 228.991C52.0101 232.439 52.4379 235.101 52.4832 236.791L52.4839 236.818L52.4874 236.844C53.965 247.924 56.0844 265.727 55.713 280.412C55.5271 287.763 54.7174 294.276 52.9238 298.766C52.028 301.008 50.9035 302.702 49.5299 303.755C48.173 304.795 46.5378 305.237 44.538 304.917Z" fill="url(#paint8_linear_2885:502361)"/>
<path d="M44.538 304.917L44.4925 304.909L44.4465 304.911C42.5373 304.958 38.0464 303.437 36.5878 296.444C36.1246 294.222 35.5709 288.91 34.9443 281.896C34.5341 277.303 34.0941 272 33.6287 266.39C33.3848 263.451 33.1339 260.427 32.8767 257.377C31.3825 239.662 29.6712 221.028 27.8684 213.053C26.3908 206.517 24.4317 194.423 22.4169 181.985C22.0604 179.784 21.7021 177.572 21.3444 175.378C20.1561 168.09 18.9752 161.006 17.8896 155.199C16.8073 149.409 15.8117 144.842 14.9885 142.617C14.1565 140.369 13.5084 136.247 13.0092 131.156C12.512 126.086 12.1672 120.112 11.9235 114.201C11.5632 105.462 11.4243 96.8827 11.3381 91.5607C11.3076 89.6784 11.2837 88.2036 11.259 87.2734C11.0998 81.292 12.2494 71.6767 14.367 62.5617C15.425 58.0077 16.7214 53.5925 18.21 49.8293C19.7028 46.0559 21.3726 42.9804 23.1588 41.0697C24.9962 39.1043 26.6526 37.5894 28.0718 36.5245C29.503 35.4507 30.6502 34.8672 31.4731 34.7059C31.8787 34.6263 32.1652 34.6573 32.3613 34.7416C32.5451 34.8206 32.6987 34.9669 32.8095 35.2303C33.0498 35.8017 33.0566 36.8553 32.6295 38.4989L32.6148 38.5555L32.6136 38.614C32.5872 39.8525 32.0223 41.7634 31.0756 44.4403C30.693 45.522 30.2454 46.7365 29.7537 48.0707C29.0553 49.9656 28.2679 52.1021 27.4511 54.4436C24.6457 62.4851 21.3708 73.2739 19.4425 86.9179C19.3132 87.5321 19.1928 88.0936 19.0816 88.6121C18.2527 92.4768 17.9358 93.9544 18.2999 97.0955C18.5019 98.8374 18.9166 101.124 19.5643 104.694C20.2107 108.258 21.0892 113.102 22.2198 119.96C24.4578 133.536 31.7339 158.692 38.5825 182.37L38.9302 183.572C42.4073 195.595 45.752 207.184 48.2509 216.638C49.5003 221.365 50.5369 225.553 51.2725 228.991C52.0101 232.439 52.4379 235.101 52.4832 236.791L52.4839 236.818L52.4874 236.844C53.965 247.924 56.0844 265.727 55.713 280.412C55.5271 287.763 54.7174 294.276 52.9238 298.766C52.028 301.008 50.9035 302.702 49.5299 303.755C48.173 304.795 46.5378 305.237 44.538 304.917Z" fill="url(#paint9_radial_2885:502361)" fill-opacity="0.2"/>
<path d="M44.538 304.917L44.4925 304.909L44.4465 304.911C42.5373 304.958 38.0464 303.437 36.5878 296.444C36.1246 294.222 35.5709 288.91 34.9443 281.896C34.5341 277.303 34.0941 272 33.6287 266.39C33.3848 263.451 33.1339 260.427 32.8767 257.377C31.3825 239.662 29.6712 221.028 27.8684 213.053C26.3908 206.517 24.4317 194.423 22.4169 181.985C22.0604 179.784 21.7021 177.572 21.3444 175.378C20.1561 168.09 18.9752 161.006 17.8896 155.199C16.8073 149.409 15.8117 144.842 14.9885 142.617C14.1565 140.369 13.5084 136.247 13.0092 131.156C12.512 126.086 12.1672 120.112 11.9235 114.201C11.5632 105.462 11.4243 96.8827 11.3381 91.5607C11.3076 89.6784 11.2837 88.2036 11.259 87.2734C11.0998 81.292 12.2494 71.6767 14.367 62.5617C15.425 58.0077 16.7214 53.5925 18.21 49.8293C19.7028 46.0559 21.3726 42.9804 23.1588 41.0697C24.9962 39.1043 26.6526 37.5894 28.0718 36.5245C29.503 35.4507 30.6502 34.8672 31.4731 34.7059C31.8787 34.6263 32.1652 34.6573 32.3613 34.7416C32.5451 34.8206 32.6987 34.9669 32.8095 35.2303C33.0498 35.8017 33.0566 36.8553 32.6295 38.4989L32.6148 38.5555L32.6136 38.614C32.5872 39.8525 32.0223 41.7634 31.0756 44.4403C30.693 45.522 30.2454 46.7365 29.7537 48.0707C29.0553 49.9656 28.2679 52.1021 27.4511 54.4436C24.6457 62.4851 21.3708 73.2739 19.4425 86.9179C19.3132 87.5321 19.1928 88.0936 19.0816 88.6121C18.2527 92.4768 17.9358 93.9544 18.2999 97.0955C18.5019 98.8374 18.9166 101.124 19.5643 104.694C20.2107 108.258 21.0892 113.102 22.2198 119.96C24.4578 133.536 31.7339 158.692 38.5825 182.37L38.9302 183.572C42.4073 195.595 45.752 207.184 48.2509 216.638C49.5003 221.365 50.5369 225.553 51.2725 228.991C52.0101 232.439 52.4379 235.101 52.4832 236.791L52.4839 236.818L52.4874 236.844C53.965 247.924 56.0844 265.727 55.713 280.412C55.5271 287.763 54.7174 294.276 52.9238 298.766C52.028 301.008 50.9035 302.702 49.5299 303.755C48.173 304.795 46.5378 305.237 44.538 304.917Z" stroke="#FFCFCF"/>
<path d="M40.281 315.362L40.303 315.364L40.3251 315.365C49.8986 315.651 56.3409 314.966 60.6315 313.191C62.7879 312.299 64.4121 311.127 65.6144 309.658C66.8157 308.19 67.5748 306.451 68.0396 304.455C68.9628 300.491 68.7411 295.422 68.4574 289.282L68.444 288.994C68.1617 282.889 67.8279 275.671 68.4358 267.257L68.4376 267.232L68.4369 267.207C68.1705 257.929 68.4634 251.594 68.678 246.952L68.6798 246.914L68.682 246.865C68.8944 242.272 69.0334 239.264 68.4236 236.711C64.2835 219.381 55.961 211.326 47.6838 208.229C39.4496 205.149 31.3419 207.013 27.6757 209.377C24.1398 211.658 18.8654 215.336 14.4907 224.05C10.1252 232.746 6.67404 246.418 6.67381 268.657C6.67359 290.063 12.4116 301.473 19.5613 307.669C26.56 313.735 34.8189 314.714 39.9899 315.327C40.088 315.339 40.1851 315.35 40.281 315.362Z" fill="url(#paint10_radial_2885:502361)" stroke="#FFCAE0"/>
<path d="M19.5047 45.6293C23.7303 34.9203 28.0746 23.9102 44.1971 19.7549C47.939 19.3496 52.7744 20.4245 55.3746 24.8436C57.9981 29.3022 58.4657 37.3488 52.9404 51.177C46.7044 66.7838 44.1332 78.7507 42.303 87.269C42.0951 88.2364 41.8968 89.1593 41.7038 90.038C40.7537 94.3633 39.9433 97.5529 38.7792 99.729C38.2026 100.807 37.551 101.612 36.7737 102.178C35.9998 102.742 35.0737 103.09 33.9151 103.212C29.1313 103.719 24.5308 102.005 20.8564 99.6282C17.1723 97.2449 14.4953 94.2443 13.536 92.2849C13.3137 91.8309 13.0917 91.0646 12.8929 90.0108C12.696 88.9674 12.5279 87.6762 12.3998 86.1947C12.1435 83.2322 12.0488 79.5309 12.1956 75.5701C12.49 67.6317 13.7521 58.7275 16.5779 52.6443C17.6329 50.3731 18.5659 48.0086 19.5047 45.6293Z" fill="url(#paint11_radial_2885:502361)" stroke="#FFCAE0"/>
<path d="M45.0016 308.92L44.955 308.91L44.9072 308.908C43.0121 308.851 38.5935 307.027 37.4943 299.66C37.1459 297.325 36.867 291.774 36.6033 284.456C36.4305 279.664 36.2648 274.132 36.0894 268.281C35.9975 265.214 35.903 262.06 35.8035 258.879C35.2254 240.397 34.4779 220.955 33.0894 212.576C30.9678 199.772 23.9837 166.318 20.1907 148.15C19.1774 143.296 18.3918 139.533 17.9876 137.547C16.4173 129.83 15.501 117.812 15.2382 106.797C15.1069 101.294 15.1391 96.0506 15.3331 91.7319C15.5278 87.3958 15.8842 84.0396 16.385 82.2791C16.7558 80.9756 17.183 79.0858 17.7046 76.7779C17.9444 75.7173 18.2041 74.5683 18.4874 73.3474C19.3908 69.4549 20.5421 64.7956 22.0727 59.827C25.1362 49.8819 29.7087 38.7342 36.8211 30.0335C40.3927 25.6643 43.1709 23.3497 45.3062 22.3801C46.3663 21.8987 47.2464 21.7587 47.9774 21.8427C48.7035 21.9261 49.321 22.2349 49.8549 22.7185C50.944 23.705 51.6749 25.4112 52.1389 27.3209C52.596 29.2022 52.7748 31.1979 52.8191 32.6953C52.6255 35.3786 51.5639 38.7099 50.1537 42.6462C49.8253 43.563 49.4785 44.5111 49.1209 45.4888C47.9478 48.6964 46.6584 52.2218 45.5184 56.0005L45.5153 56.0109L45.5126 56.0214C44.9442 58.2516 44.0321 60.9239 42.9745 64.0224C38.9939 75.6845 32.9525 93.3841 35.422 116.274C36.8912 129.891 41.7252 154.654 46.3846 178.523C46.6704 179.987 46.9555 181.447 47.2392 182.902C49.6948 195.494 52.0413 207.63 53.7522 217.523C55.4669 227.439 56.532 235.041 56.447 238.602L56.4464 238.627L56.4483 238.653C57.3522 250.242 58.5504 268.851 57.4215 284.083C56.8564 291.708 55.7113 298.431 53.686 302.998C52.6741 305.28 51.4618 306.978 50.035 307.995C48.6277 308.998 46.9768 309.363 45.0016 308.92Z" fill="url(#paint12_linear_2885:502361)" stroke="#FFCFCF"/>
<defs>
<radialGradient id="paint0_radial_2885:502361" cx="0" cy="0" r="1" gradientUnits="userSpaceOnUse" gradientTransform="translate(118.425 214.155) rotate(89.5624) scale(56.6484 345.281)">
<stop offset="0.746182" stop-color="#CAD3FD"/>
<stop offset="1" stop-color="#96A8FF"/>
</radialGradient>
<radialGradient id="paint1_radial_2885:502361" cx="0" cy="0" r="1" gradientUnits="userSpaceOnUse" gradientTransform="translate(199.561 72.315) rotate(96.1981) scale(106.705 64.104)">
<stop stop-color="#B592FF"/>
<stop offset="0.505703" stop-color="#9868FF"/>
<stop offset="1" stop-color="#9160F9"/>
</radialGradient>
<radialGradient id="paint2_radial_2885:502361" cx="0" cy="0" r="1" gradientUnits="userSpaceOnUse" gradientTransform="translate(166.006 71.7872) rotate(92.2766) scale(76.2049 45.7805)">
<stop stop-color="#AB84FF"/>
<stop offset="0.839996" stop-color="#9868FF"/>
<stop offset="1" stop-color="#9160F9"/>
</radialGradient>
<radialGradient id="paint3_radial_2885:502361" cx="0" cy="0" r="1" gradientUnits="userSpaceOnUse" gradientTransform="translate(36.9186 98.6734) rotate(71.4783) scale(92.5629 55.6106)">
<stop stop-color="#AF89FF"/>
<stop offset="0.879021" stop-color="#A175FF"/>
<stop offset="1" stop-color="#9664FF"/>
</radialGradient>
<radialGradient id="paint4_radial_2885:502361" cx="0" cy="0" r="1" gradientUnits="userSpaceOnUse" gradientTransform="translate(88.5247 82.5685) rotate(94.9314) scale(93.5495 56.2022)">
<stop stop-color="#CCB4FF"/>
<stop offset="0.493818" stop-color="#B18CFF"/>
<stop offset="0.879021" stop-color="#9868FF"/>
<stop offset="1" stop-color="#9664FF"/>
</radialGradient>
<radialGradient id="paint5_radial_2885:502361" cx="0" cy="0" r="1" gradientUnits="userSpaceOnUse" gradientTransform="translate(175.955 266.375) rotate(-178.919) scale(45.8584 200.221)">
<stop stop-color="#BAAAFF"/>
<stop offset="0.399034" stop-color="#A793FF"/>
<stop offset="1" stop-color="#8C72FF"/>
</radialGradient>
<radialGradient id="paint6_radial_2885:502361" cx="0" cy="0" r="1" gradientUnits="userSpaceOnUse" gradientTransform="translate(70.4135 263.347) scale(28.5485 79.188)">
<stop stop-color="#BDADFF"/>
<stop offset="0.578125" stop-color="#BBABFF"/>
<stop offset="1" stop-color="#9C85FF"/>
</radialGradient>
<radialGradient id="paint7_radial_2885:502361" cx="0" cy="0" r="1" gradientUnits="userSpaceOnUse" gradientTransform="translate(120.156 267.674) rotate(0.473728) scale(44.3716 78.7938)">
<stop stop-color="#BFB0FF"/>
<stop offset="0.705933" stop-color="#A28CFF"/>
<stop offset="0.981359" stop-color="#8C72FF"/>
</radialGradient>
<linearGradient id="paint8_linear_2885:502361" x1="17.7232" y1="33.649" x2="39.9743" y2="306.018" gradientUnits="userSpaceOnUse">
<stop stop-color="#FCE4EC"/>
<stop offset="0.415221" stop-color="#FFD8D8"/>
<stop offset="0.997702" stop-color="#FCE4EC"/>
<stop offset="1" stop-color="#FCE4EC" stop-opacity="0"/>
</linearGradient>
<radialGradient id="paint9_radial_2885:502361" cx="0" cy="0" r="1" gradientUnits="userSpaceOnUse" gradientTransform="translate(22.2374 73.3835) rotate(99.6885) scale(48.9254 11.2556)">
<stop stop-color="#7D4949"/>
<stop offset="1" stop-color="#FDDBDF"/>
</radialGradient>
<radialGradient id="paint10_radial_2885:502361" cx="0" cy="0" r="1" gradientUnits="userSpaceOnUse" gradientTransform="translate(31.833 252.335) rotate(73.9645) scale(44.4055 27.1247)">
<stop stop-color="white"/>
<stop offset="1" stop-color="#FFB3D3"/>
</radialGradient>
<radialGradient id="paint11_radial_2885:502361" cx="0" cy="0" r="1" gradientUnits="userSpaceOnUse" gradientTransform="translate(28.101 45.2352) rotate(64.995) scale(51.8281 29.23)">
<stop stop-color="#FFE2F1"/>
<stop offset="0.585241" stop-color="#FFC6DE"/>
<stop offset="1" stop-color="#FFB2D2"/>
</radialGradient>
<linearGradient id="paint12_linear_2885:502361" x1="33.343" y1="39.7533" x2="40.9332" y2="309.771" gradientUnits="userSpaceOnUse">
<stop stop-color="#FFDDE8"/>
<stop offset="0.432187" stop-color="#FFD8D8"/>
<stop offset="0.968904" stop-color="#FCE4EC"/>
</linearGradient>
</defs>
</svg>
