<svg width="140" height="140" viewBox="0 0 140 140" fill="none" xmlns="http://www.w3.org/2000/svg">
<g clip-path="url(#clip0_4819_341543)">
<path d="M115.321 60.7207C113.609 62.2638 111.798 63.5997 109.917 64.6976L109.909 64.7052C108.335 65.6189 106.554 66.4634 104.65 67.2312C102.77 67.976 100.774 68.6363 98.7468 69.1891C96.3823 69.8494 93.9871 70.3716 91.7071 70.7172C89.5345 71.0474 87.4771 71.2318 85.6577 71.2396C84.1915 71.2473 82.8865 71.1399 81.804 70.902C81.1976 70.7715 79.3705 70.311 77.0828 70.7563C73.0371 71.5473 70.4421 74.6028 69.1908 76.0845C66.6956 79.0248 65.6361 82.0342 64.9758 83.9688C63.5822 88.0522 64.201 88.3699 62.9564 91.4537C62.5687 92.4141 60.5594 97.19 56.1458 100.487C53.1456 102.729 50.7359 103.016 46.8836 104.121C36.1451 107.203 36.2763 110.315 24.6173 114.056C18.9234 115.884 11.5428 117.5 11.0369 116.26C10.7575 115.575 12.6315 114.17 13.8453 113.258C17.5295 110.494 21.0946 109.45 21.5491 109.314C30.8198 106.56 30.6881 100.106 41.7928 96.2513C45.7886 94.8639 49.3921 94.4538 52.0561 91.0544C53.2415 89.542 53.9164 87.8507 54.5498 86.2608C56.2942 81.8896 55.9435 79.9635 56.7313 77.3641C59.2927 68.918 70.167 65.6064 69.2598 61.7066C69.1969 61.4364 69.0673 60.4392 68.3849 58.6513C68.0241 57.7071 67.7401 56.7322 67.5329 55.7572C67.1261 53.8304 66.9804 51.8728 67.0112 49.9689C67.0574 47.4663 67.4106 45.0558 67.8714 42.9216C68.4012 40.488 69.0692 38.4229 69.576 36.995C69.7909 36.3808 69.9752 35.8895 70.1134 35.5364C70.5357 34.4079 71.0501 33.2794 71.6183 32.1586C72.601 30.2547 73.7987 28.3814 75.1499 26.5696C76.5395 24.7348 78.1056 22.9691 79.8176 21.3031C81.3454 19.8061 83.0037 18.4088 84.7464 17.1266C86.443 15.8752 88.2241 14.739 90.0666 13.7563C91.9244 12.7582 93.8436 11.9136 95.8012 11.2456C97.2675 10.7312 98.7492 10.3243 100.246 10.0402C104.499 9.19552 108.829 9.27203 112.959 10.5462C113.013 10.5692 113.074 10.5845 113.136 10.5999C114.133 10.9223 116.36 11.7052 118.839 13.2327C121.181 14.6835 123.744 16.8021 125.71 19.842C125.963 20.2335 126.201 20.6251 126.431 21.0396C127.214 22.4521 127.805 23.949 128.227 25.5074C128.972 28.2172 129.187 31.1037 128.964 34.0439C128.856 35.5486 128.626 37.084 128.288 38.604C127.858 40.5693 127.251 42.5422 126.491 44.4692C125.731 46.3961 124.825 48.2846 123.789 50.1041C122.714 51.9926 121.501 53.8044 120.165 55.4933C118.684 57.4042 117.049 59.1622 115.321 60.7207Z" fill="#B2946F" stroke="#761E19" stroke-width="0.498917" stroke-miterlimit="10"/>
<path d="M115.321 60.7207C113.609 62.2638 111.798 63.5997 109.917 64.6976L109.909 64.7052C108.335 65.6189 106.554 66.4634 104.65 67.2312C102.77 67.976 100.774 68.6363 98.7468 69.1891C96.3823 69.8494 93.9871 70.3716 91.7071 70.7172C89.5345 71.0474 87.4771 71.2318 85.6577 71.2396C84.1915 71.2473 82.8865 71.1399 81.804 70.902C81.1976 70.7715 79.3705 70.311 77.0828 70.7563C73.0371 71.5473 70.4421 74.6028 69.1908 76.0845C66.6956 79.0248 65.6361 82.0342 64.9758 83.9688C63.5822 88.0522 64.201 88.3699 62.9564 91.4537C62.5687 92.4141 60.5594 97.19 56.1458 100.487C53.1456 102.729 50.7359 103.016 46.8836 104.121C36.1451 107.203 36.2763 110.315 24.6173 114.056C18.9234 115.884 11.5428 117.5 11.0369 116.26C10.7575 115.575 12.6315 114.17 13.8453 113.258C17.5295 110.494 21.0946 109.45 21.5491 109.314C30.8198 106.56 30.6881 100.106 41.7928 96.2513C45.7886 94.8639 49.3921 94.4538 52.0561 91.0544C53.2415 89.542 53.9164 87.8507 54.5498 86.2608C56.2942 81.8896 55.9435 79.9635 56.7313 77.3641C59.2927 68.918 70.167 65.6064 69.2598 61.7066C69.1969 61.4364 69.0673 60.4392 68.3849 58.6513C68.0241 57.7071 67.7401 56.7322 67.5329 55.7572C67.1261 53.8304 66.9804 51.8728 67.0112 49.9689C67.0574 47.4663 67.4106 45.0558 67.8714 42.9216C68.4012 40.488 69.0692 38.4229 69.576 36.995C69.7909 36.3808 69.9752 35.8895 70.1134 35.5364C70.5357 34.4079 71.0501 33.2794 71.6183 32.1586C72.601 30.2547 73.7987 28.3814 75.1499 26.5696C76.5395 24.7348 78.1056 22.9691 79.8176 21.3031C81.3454 19.8061 83.0037 18.4088 84.7464 17.1266C86.443 15.8752 88.2241 14.739 90.0666 13.7563C91.9244 12.7582 93.8436 11.9136 95.8012 11.2456C97.2675 10.7312 98.7492 10.3243 100.246 10.0402C104.499 9.19552 108.829 9.27203 112.959 10.5462C113.013 10.5692 113.074 10.5845 113.136 10.5999C114.133 10.9223 116.36 11.7052 118.839 13.2327C121.181 14.6835 123.744 16.8021 125.71 19.842C125.963 20.2335 126.201 20.6251 126.431 21.0396C127.214 22.4521 127.805 23.949 128.227 25.5074C128.972 28.2172 129.187 31.1037 128.964 34.0439C128.856 35.5486 128.626 37.084 128.288 38.604C127.858 40.5693 127.251 42.5422 126.491 44.4692C125.731 46.3961 124.825 48.2846 123.789 50.1041C122.714 51.9926 121.501 53.8044 120.165 55.4933C118.684 57.4042 117.049 59.1622 115.321 60.7207Z" fill="url(#paint0_linear_4819_341543)"/>
<path d="M128.227 25.507C126.944 25.8371 125.394 26.0214 123.682 25.7989C123.191 25.7375 122.684 25.6455 122.193 25.5227C120.657 25.1389 119.145 24.4557 117.786 23.5269C116.857 22.8744 115.982 22.1068 115.245 21.2317L115.222 21.2087C115.03 20.986 114.854 20.7635 114.693 20.5255C113.748 19.2435 113.073 17.7542 112.758 16.1191C112.651 15.5664 112.597 15.0367 112.574 14.5224C112.521 13.0254 112.782 11.6896 113.135 10.5995C114.133 10.9219 116.359 11.7048 118.839 13.2323C118.754 13.6853 118.716 14.1843 118.754 14.714C118.8 15.2206 118.907 15.7426 119.13 16.2723C119.291 16.6638 119.491 17.0169 119.721 17.324C120.727 18.7288 122.193 19.2891 122.631 19.4656C123.705 19.8801 124.757 19.9492 125.709 19.8416C125.962 20.2331 126.2 20.6246 126.43 21.0392C127.213 22.4517 127.804 23.9486 128.227 25.507Z" fill="#B2946F" stroke="#761E19" stroke-width="0.498917" stroke-miterlimit="10"/>
<path d="M118.759 14.7157L112.579 14.5226" stroke="#761E19" stroke-width="0.498917" stroke-miterlimit="10"/>
<path d="M119.72 17.3329L114.561 20.6112" stroke="#761E19" stroke-width="0.498917" stroke-miterlimit="10"/>
<path d="M122.632 19.4629L122.197 25.5191" stroke="#761E19" stroke-width="0.498917" stroke-miterlimit="10"/>
<path d="M114.563 20.6095C113.256 21.6774 111.95 22.7454 110.643 23.8133C110.012 23.5907 109.099 23.3051 107.979 23.0772C101.668 21.794 96.4029 23.9254 94.7792 24.6079C87.9736 27.4663 82.4359 33.7255 80.6714 40.8681C79.297 46.4308 79.9867 53.4466 81.747 53.8418C82.3128 53.9685 82.8901 53.3896 83.2771 52.9919C85.647 50.5544 84.8465 46.9057 85.034 43.9839C85.4305 37.804 90.3907 32.658 94.2123 30.387C98.1928 28.0216 105.512 26.0559 108.942 29.5932C112.433 33.1934 110.202 40.7499 107.354 44.8893C105.648 47.3706 101.556 51.7695 95.6267 53.8979C93.0641 54.8177 89.4168 55.5786 88.5223 58.2525C88.3772 58.6878 88.107 59.4939 88.4877 60.0174C89.9308 61.998 99.7503 58.6174 106.786 52.5945C109.733 50.0733 113.831 46.5663 115.398 40.3565C116.885 34.4698 115.257 29.4724 114.435 27.3835C115.553 26.0953 116.671 24.8071 117.789 23.5188C116.716 22.5485 115.639 21.5798 114.563 20.6095Z" fill="#B2946F" stroke="#761E19" stroke-width="0.498917" stroke-miterlimit="10"/>
<path d="M100.246 10.0371C100.645 12.0714 100.645 12.0714 100.845 13.0894C101.2 13.735 101.692 14.6477 102.253 15.757C103.512 18.2442 103.618 18.7493 103.391 19.1739C102.985 19.9385 101.592 20.2825 100.959 19.8012C100.473 19.4327 100.603 18.7081 100.729 16.3014C100.802 14.9272 100.83 13.8087 100.845 13.0894C100.644 12.0722 100.644 12.0722 100.246 10.0371Z" fill="#761E19" stroke="#761E19" stroke-width="0.498917" stroke-miterlimit="10"/>
<path d="M105.007 42.2292C102.736 44.5608 98.6914 44.7375 96.3324 42.2296C93.9881 39.7363 94.3253 35.6715 96.9355 33.5127C99.5434 31.3561 103.534 31.8364 105.527 34.4488C107.307 36.7809 107.01 40.174 105.007 42.2292Z" fill="#761E19" stroke="#761E19" stroke-width="0.498917" stroke-miterlimit="10"/>
<path d="M100.824 32.2381C100.012 32.3924 99.5446 33.1532 99.3949 33.7313C99.3488 33.9094 99.1407 34.7162 99.652 35.3365C100.283 36.1011 101.406 35.8485 101.465 35.8339C102.253 35.6434 103.083 34.8995 103.022 33.9238C102.955 32.8345 101.815 32.0484 100.824 32.2381Z" fill="#B2946F" stroke="#761E19" stroke-width="0.498917" stroke-miterlimit="10"/>
<path d="M101.256 33.3632C101.02 33.3648 100.82 33.6289 100.853 33.8737C100.873 34.0242 100.983 34.1784 101.149 34.2229C101.365 34.2813 101.599 34.1316 101.659 33.9274C101.737 33.6641 101.512 33.3609 101.256 33.3632Z" fill="#761E19"/>
<path d="M97.4125 33.8469C96.6011 34.0013 96.1335 34.762 95.9838 35.3401C95.9377 35.5182 95.7296 36.3251 96.2409 36.9454C96.8719 37.71 97.9951 37.4573 98.0542 37.4427C98.8418 37.2523 99.6717 36.5083 99.6111 35.5326C99.5436 34.444 98.4036 33.6588 97.4125 33.8469Z" fill="#B2946F" stroke="#761E19" stroke-width="0.498917" stroke-miterlimit="10"/>
<path d="M97.8473 34.9704C97.6109 34.972 97.4112 35.2361 97.4442 35.481C97.4641 35.6314 97.5739 35.7857 97.7397 35.8302C97.9561 35.8885 98.1903 35.7388 98.2502 35.5346C98.3278 35.2728 98.1029 34.9681 97.8473 34.9704Z" fill="#761E19"/>
<path d="M100.585 35.9764C99.7734 36.1307 99.3059 36.8915 99.1561 37.4696C99.1101 37.6477 98.902 38.4545 99.4133 39.0748C100.044 39.8394 101.167 39.5868 101.227 39.5722C102.014 39.3818 102.844 38.6378 102.783 37.6621C102.717 36.5728 101.577 35.7875 100.585 35.9764Z" fill="#B2946F" stroke="#761E19" stroke-width="0.498917" stroke-miterlimit="10"/>
<path d="M101.018 37.1054C100.782 37.107 100.582 37.3711 100.615 37.616C100.635 37.7664 100.745 37.9207 100.911 37.9652C101.127 38.0235 101.362 37.8738 101.421 37.6696C101.5 37.407 101.274 37.1031 101.018 37.1054Z" fill="#761E19"/>
<path d="M104.04 34.3606C103.229 34.5149 102.761 35.2757 102.612 35.8538C102.566 36.0319 102.358 36.8387 102.869 37.4589C103.5 38.2235 104.623 37.9709 104.682 37.9563C105.47 37.7658 106.3 37.0219 106.239 36.0462C106.171 34.9577 105.031 34.1717 104.04 34.3606Z" fill="#B2946F" stroke="#761E19" stroke-width="0.498917" stroke-miterlimit="10"/>
<path d="M104.473 35.486C104.236 35.4876 104.037 35.7517 104.07 35.9966C104.09 36.1471 104.199 36.3013 104.365 36.3458C104.582 36.4042 104.816 36.2545 104.876 36.0503C104.953 35.7877 104.728 35.4837 104.473 35.486Z" fill="#761E19"/>
<path d="M105.782 39.1627C105.372 38.4458 104.5 38.25 103.906 38.2961C103.723 38.3107 102.892 38.3752 102.471 39.06C101.952 39.906 102.557 40.8847 102.59 40.9377C103.026 41.6209 103.999 42.1644 104.902 41.7898C105.91 41.3729 106.283 40.0386 105.782 39.1627Z" fill="#B2946F" stroke="#761E19" stroke-width="0.498917" stroke-miterlimit="10"/>
<path d="M104.859 39.939C104.78 39.7164 104.466 39.6134 104.245 39.724C104.11 39.7916 103.999 39.9451 104.01 40.1171C104.025 40.3412 104.243 40.5132 104.455 40.5039C104.729 40.4909 104.943 40.18 104.859 39.939Z" fill="#761E19"/>
<path d="M97.2311 41.6533C98.0563 41.6248 98.6359 40.9454 98.8724 40.3972C98.9453 40.2276 99.2755 39.463 98.8656 38.7721C98.3597 37.9192 97.2112 37.996 97.1498 38.0021C96.3422 38.0697 95.4079 38.677 95.3173 39.6504C95.2159 40.7359 96.2223 41.6871 97.2311 41.6533Z" fill="#B2946F" stroke="#761E19" stroke-width="0.498917" stroke-miterlimit="10"/>
<path d="M96.9766 40.4752C97.2108 40.5098 97.4488 40.2795 97.4534 40.0323C97.4572 39.8811 97.372 39.7114 97.2146 39.6415C97.0089 39.5509 96.7555 39.663 96.6649 39.855C96.549 40.1029 96.724 40.4376 96.9766 40.4752Z" fill="#761E19"/>
<path d="M101.887 43.7008C102.582 43.2548 102.732 42.3743 102.654 41.7824C102.63 41.5989 102.522 40.7737 101.816 40.3899C100.944 39.9163 99.9972 40.5703 99.9473 40.6064C99.2886 41.0778 98.7965 42.0781 99.2164 42.9601C99.6869 43.9435 101.038 44.2459 101.887 43.7008Z" fill="#B2946F" stroke="#761E19" stroke-width="0.498917" stroke-miterlimit="10"/>
<path d="M101.065 42.8203C101.284 42.7305 101.371 42.4104 101.249 42.1962C101.174 42.0649 101.015 41.9621 100.844 41.9828C100.62 42.0097 100.46 42.2362 100.48 42.4473C100.507 42.7199 100.83 42.9179 101.065 42.8203Z" fill="#761E19"/>
<path d="M71.404 37.7174C70.667 37.4257 70.4904 37.3566 69.5769 36.9959C70.4904 37.3566 70.667 37.4257 71.404 37.7174C72.0104 38.1089 72.9392 38.7306 74.06 39.529C76.0175 40.9183 76.5626 41.4174 77.1383 41.2101C77.883 40.926 78.336 39.5672 77.9061 38.8149C77.6682 38.3927 77.1845 38.2161 74.4132 37.9475C73.1773 37.8324 72.1409 37.7634 71.404 37.7174Z" fill="#761E19"/>
<path d="M71.404 37.7174C70.667 37.4257 70.4904 37.3566 69.5769 36.9959C70.4904 37.3566 70.667 37.4257 71.404 37.7174ZM71.404 37.7174C72.0104 38.1089 72.9392 38.7306 74.06 39.529C76.0175 40.9183 76.5626 41.4174 77.1383 41.2101C77.883 40.926 78.336 39.5672 77.9061 38.8149C77.6682 38.3927 77.1845 38.2161 74.4132 37.9475C73.1773 37.8324 72.1409 37.7634 71.404 37.7174Z" stroke="#761E19" stroke-width="0.498917" stroke-miterlimit="10"/>
<path d="M73.407 32.9496C72.6778 32.6349 72.5089 32.5581 71.6184 32.159C72.5089 32.5581 72.6778 32.6349 73.407 32.9496C73.9828 33.3718 74.8886 34.032 75.9787 34.8764C77.8748 36.3579 78.4045 36.8722 78.9803 36.6803C79.7403 36.4422 80.247 35.1065 79.8555 34.3311C79.6329 33.9089 79.1647 33.7016 76.401 33.3179C75.165 33.1414 74.1363 33.034 73.407 32.9496Z" fill="#761E19"/>
<path d="M73.407 32.9496C72.6778 32.6349 72.5089 32.5581 71.6184 32.159C72.5089 32.5581 72.6778 32.6349 73.407 32.9496ZM73.407 32.9496C73.9828 33.3718 74.8886 34.032 75.9787 34.8764C77.8748 36.3579 78.4045 36.8722 78.9803 36.6803C79.7403 36.4422 80.247 35.1065 79.8555 34.3311C79.6329 33.9089 79.1647 33.7016 76.401 33.3179C75.165 33.1414 74.1363 33.034 73.407 32.9496Z" stroke="#761E19" stroke-width="0.498917" stroke-miterlimit="10"/>
<path d="M76.5097 27.5282C75.934 27.1214 75.7498 26.9832 75.151 26.5687C75.7498 26.9832 75.934 27.1214 76.5097 27.5282C77.001 28.0502 77.7533 28.8792 78.6591 29.9232C80.2327 31.7425 80.6472 32.3566 81.246 32.2798C82.0367 32.1954 82.8044 30.9824 82.5665 30.1456C82.436 29.6927 82.0061 29.401 79.3731 28.4723C78.2062 28.0578 77.216 27.7431 76.5097 27.5282Z" fill="#761E19"/>
<path d="M76.5097 27.5282C75.934 27.1214 75.7498 26.9832 75.151 26.5687C75.7498 26.9832 75.934 27.1214 76.5097 27.5282ZM76.5097 27.5282C77.001 28.0502 77.7533 28.8792 78.6591 29.9232C80.2327 31.7425 80.6472 32.3566 81.246 32.2798C82.0367 32.1954 82.8044 30.9824 82.5665 30.1456C82.436 29.6927 82.0061 29.401 79.3731 28.4723C78.2062 28.0578 77.216 27.7431 76.5097 27.5282Z" stroke="#761E19" stroke-width="0.498917" stroke-miterlimit="10"/>
<path d="M81.2077 22.8295C80.6473 22.223 80.5322 22.0925 79.8183 21.3018C80.5322 22.0925 80.6473 22.223 81.2077 22.8295C81.5685 23.4513 82.1211 24.4185 82.7813 25.6314C83.9173 27.7501 84.186 28.4333 84.7924 28.5024C85.5831 28.5868 86.5966 27.5581 86.5505 26.6983C86.5199 26.2223 86.1667 25.8385 83.7947 24.3724C82.743 23.7199 81.8449 23.1902 81.2077 22.8295Z" fill="#761E19"/>
<path d="M81.2077 22.8295C80.6473 22.223 80.5322 22.0925 79.8183 21.3018C80.5322 22.0925 80.6473 22.223 81.2077 22.8295ZM81.2077 22.8295C81.5685 23.4513 82.1211 24.4185 82.7813 25.6314C83.9173 27.7501 84.186 28.4333 84.7924 28.5024C85.5831 28.5868 86.5966 27.5581 86.5505 26.6983C86.5199 26.2223 86.1667 25.8385 83.7947 24.3724C82.743 23.7199 81.8449 23.1902 81.2077 22.8295Z" stroke="#761E19" stroke-width="0.498917" stroke-miterlimit="10"/>
<path d="M85.9138 19.0441C85.4533 18.3072 85.3842 18.192 84.7471 17.125C85.3842 18.192 85.4533 18.3072 85.9138 19.0441C86.1364 19.7273 86.4972 20.779 86.8963 22.0994C87.6101 24.41 87.7406 25.124 88.324 25.3082C89.0763 25.5384 90.2739 24.74 90.3891 23.8879C90.4582 23.4042 90.1819 22.9744 88.1477 21.063C87.2419 20.2186 86.4589 19.5277 85.9138 19.0441Z" fill="#761E19"/>
<path d="M85.9138 19.0441C85.4533 18.3072 85.3842 18.192 84.7471 17.125C85.3842 18.192 85.4533 18.3072 85.9138 19.0441ZM85.9138 19.0441C86.1364 19.7273 86.4972 20.779 86.8963 22.0994C87.6101 24.41 87.7406 25.124 88.324 25.3082C89.0763 25.5384 90.2739 24.74 90.3891 23.8879C90.4582 23.4042 90.1819 22.9744 88.1477 21.063C87.2419 20.2186 86.4589 19.5277 85.9138 19.0441Z" stroke="#761E19" stroke-width="0.498917" stroke-miterlimit="10"/>
<path d="M90.9496 15.7921C90.6119 14.9938 90.5581 14.8632 90.0669 13.7578C90.5581 14.8632 90.6119 14.9938 90.9496 15.7921C91.0878 16.4984 91.2949 17.5961 91.5175 18.9549C91.9012 21.3347 91.9242 22.064 92.4846 22.3173C93.2062 22.655 94.4959 22.0254 94.7262 21.1963C94.8568 20.728 94.6495 20.2597 92.8917 18.1027C92.1087 17.1354 91.4332 16.3371 90.9496 15.7921Z" fill="#761E19"/>
<path d="M90.9496 15.7921C90.6119 14.9938 90.5581 14.8632 90.0669 13.7578C90.5581 14.8632 90.6119 14.9938 90.9496 15.7921ZM90.9496 15.7921C91.0878 16.4984 91.2949 17.5961 91.5175 18.9549C91.9012 21.3347 91.9242 22.064 92.4846 22.3173C93.2062 22.655 94.4959 22.0254 94.7262 21.1963C94.8568 20.728 94.6495 20.2597 92.8917 18.1027C92.1087 17.1354 91.4332 16.3371 90.9496 15.7921Z" stroke="#761E19" stroke-width="0.498917" stroke-miterlimit="10"/>
<path d="M95.7603 11.0312C96.1593 13.0656 96.1594 13.0655 96.3589 14.0835C96.7143 14.7291 97.2063 15.6418 97.7674 16.7511C99.0263 19.2383 99.1322 19.7434 98.9057 20.1679C98.4988 20.9326 97.1062 21.2765 96.4729 20.7952C95.9877 20.4268 96.1167 19.7022 96.2435 17.2955C96.3158 15.9213 96.3443 14.8028 96.3589 14.0835C96.1594 13.0655 96.1593 13.0656 95.7603 11.0312Z" fill="#761E19" stroke="#761E19" stroke-width="0.498917" stroke-miterlimit="10"/>
<path d="M69.3598 55.5556C68.5998 55.6401 68.3926 55.6632 67.5328 55.7553C68.3926 55.6632 68.5998 55.6401 69.3598 55.5556C70.0738 55.6247 71.1869 55.7552 72.5534 55.9394C74.9332 56.2617 75.6548 56.4459 76.0617 55.993C76.5914 55.4018 76.3612 53.9893 75.6319 53.521C75.2327 53.26 74.7107 53.3215 72.1389 54.3733C70.9797 54.8417 70.0277 55.2562 69.3598 55.5556Z" fill="#761E19"/>
<path d="M69.3598 55.5556C68.5998 55.6401 68.3926 55.6632 67.5328 55.7553C68.3926 55.6632 68.5998 55.6401 69.3598 55.5556ZM69.3598 55.5556C70.0738 55.6247 71.1869 55.7552 72.5534 55.9394C74.9332 56.2617 75.6548 56.4459 76.0617 55.993C76.5914 55.4018 76.3612 53.9893 75.6319 53.521C75.2327 53.26 74.7107 53.3215 72.1389 54.3733C70.9797 54.8417 70.0277 55.2562 69.3598 55.5556Z" stroke="#761E19" stroke-width="0.498917" stroke-miterlimit="10"/>
<path d="M68.9229 50.0069C68.1399 49.9916 67.948 49.9839 67.0114 49.9686C67.948 49.9839 68.1399 49.9916 68.9229 50.0069C69.6215 50.1681 70.7192 50.4367 72.0396 50.8051C74.358 51.4345 75.0412 51.7185 75.5018 51.3193C76.1083 50.8049 76.07 49.3694 75.4175 48.809C75.0413 48.4943 74.5347 48.4943 71.8325 49.2007C70.6349 49.5078 69.6292 49.7919 68.9229 50.0069Z" fill="#761E19"/>
<path d="M68.9229 50.0069C68.1399 49.9916 67.948 49.9839 67.0114 49.9686C67.948 49.9839 68.1399 49.9916 68.9229 50.0069ZM68.9229 50.0069C69.6215 50.1681 70.7192 50.4367 72.0396 50.8051C74.358 51.4345 75.0412 51.7185 75.5018 51.3193C76.1083 50.8049 76.07 49.3694 75.4175 48.809C75.0413 48.4943 74.5347 48.4943 71.8325 49.2007C70.6349 49.5078 69.6292 49.7919 68.9229 50.0069Z" stroke="#761E19" stroke-width="0.498917" stroke-miterlimit="10"/>
<path d="M69.9685 43.389C69.147 43.1971 68.9935 43.1664 67.8727 42.9208C68.9935 43.1664 69.147 43.1971 69.9685 43.389C70.621 43.6883 71.6342 44.1642 72.8702 44.7706C75.0196 45.8453 75.6414 46.2521 76.1711 45.9527C76.8621 45.5688 77.1001 44.1486 76.5628 43.4731C76.2634 43.0969 75.7568 42.9895 72.9778 43.1585C71.7341 43.2354 70.6977 43.3199 69.9685 43.389Z" fill="#761E19"/>
<path d="M69.9685 43.389C69.147 43.1971 68.9935 43.1664 67.8727 42.9208C68.9935 43.1664 69.147 43.1971 69.9685 43.389ZM69.9685 43.389C70.621 43.6883 71.6342 44.1642 72.8702 44.7706C75.0196 45.8453 75.6414 46.2521 76.1711 45.9527C76.8621 45.5688 77.1001 44.1486 76.5628 43.4731C76.2634 43.0969 75.7568 42.9895 72.9778 43.1585C71.7341 43.2354 70.6977 43.3199 69.9685 43.389Z" stroke="#761E19" stroke-width="0.498917" stroke-miterlimit="10"/>
<path d="M126.69 33.7685C127.55 33.876 127.688 33.8913 128.963 34.0448C127.688 33.8913 127.55 33.876 126.69 33.7685C126.015 33.4615 125.071 33.0239 123.927 32.5403C121.355 31.458 120.849 31.3813 120.434 31.6423C119.705 32.0953 119.459 33.5078 119.981 34.1065C120.38 34.5671 121.094 34.3906 123.489 34.0988C124.856 33.9298 125.969 33.83 126.69 33.7685Z" fill="#761E19"/>
<path d="M126.69 33.7685C127.55 33.876 127.688 33.8913 128.963 34.0448C127.688 33.8913 127.55 33.876 126.69 33.7685ZM126.69 33.7685C126.015 33.4615 125.071 33.0239 123.927 32.5403C121.355 31.458 120.849 31.3813 120.434 31.6423C119.705 32.0953 119.459 33.5078 119.981 34.1065C120.38 34.5671 121.094 34.3906 123.489 34.0988C124.856 33.9298 125.969 33.83 126.69 33.7685Z" stroke="#761E19" stroke-width="0.498917" stroke-miterlimit="10"/>
<path d="M104.095 66.0189C104.341 66.5563 104.449 66.7866 104.648 67.2319C104.449 66.7866 104.341 66.5563 104.095 66.0189C103.996 65.2897 103.85 64.2687 103.643 63.0327C103.198 60.2844 102.975 59.8161 102.545 59.6012C101.762 59.2328 100.434 59.778 100.211 60.538C100.042 61.1214 100.572 61.6357 102.1 63.5011C102.967 64.5681 103.65 65.4509 104.095 66.0189Z" fill="#761E19"/>
<path d="M104.095 66.0189C104.341 66.5563 104.449 66.7866 104.648 67.2319C104.449 66.7866 104.341 66.5563 104.095 66.0189ZM104.095 66.0189C103.996 65.2897 103.85 64.2687 103.643 63.0327C103.198 60.2844 102.975 59.8161 102.545 59.6012C101.762 59.2328 100.434 59.778 100.211 60.538C100.042 61.1214 100.572 61.6357 102.1 63.5011C102.967 64.5681 103.65 65.4509 104.095 66.0189Z" stroke="#761E19" stroke-width="0.498917" stroke-miterlimit="10"/>
<path d="M109.915 64.6985C109.225 63.4089 109.179 63.3167 108.749 62.503C108.626 61.7814 108.442 60.7527 108.181 59.5398C107.605 56.8146 107.375 56.354 106.937 56.1621C106.139 55.8244 104.834 56.4232 104.642 57.1986C104.496 57.7897 105.056 58.2734 106.653 60.0697C107.574 61.0983 108.288 61.9503 108.749 62.503C108.91 62.8101 109.073 63.1171 109.236 63.4265C109.463 63.8525 109.689 64.2771 109.915 64.6985Z" fill="#761E19" stroke="#761E19" stroke-width="0.498917" stroke-miterlimit="10"/>
<path d="M113.954 59.0333C114.492 59.6935 114.584 59.8163 115.321 60.7221C114.584 59.8163 114.492 59.6935 113.954 59.0333C113.686 58.3347 113.302 57.3828 112.81 56.2313C111.713 53.6749 111.39 53.2758 110.914 53.1683C110.078 52.9918 108.918 53.844 108.88 54.6347C108.849 55.2489 109.486 55.6097 111.413 57.0605C112.511 57.8818 113.394 58.5804 113.954 59.0333Z" fill="#761E19"/>
<path d="M113.954 59.0333C114.492 59.6935 114.584 59.8163 115.321 60.7221C114.584 59.8163 114.492 59.6935 113.954 59.0333ZM113.954 59.0333C113.686 58.3347 113.302 57.3828 112.81 56.2313C111.713 53.6749 111.39 53.2758 110.914 53.1683C110.078 52.9918 108.918 53.844 108.88 54.6347C108.849 55.2489 109.486 55.6097 111.413 57.0605C112.511 57.8818 113.394 58.5804 113.954 59.0333Z" stroke="#761E19" stroke-width="0.498917" stroke-miterlimit="10"/>
<path d="M118.316 54.0259C119.015 54.5862 119.115 54.6553 120.166 55.492C119.115 54.6553 119.015 54.5862 118.316 54.0259C117.917 53.4118 117.326 52.5597 116.605 51.5464C114.97 49.2819 114.57 48.9595 114.095 48.9595C113.227 48.9672 112.283 50.0497 112.421 50.8327C112.513 51.4315 113.227 51.6541 115.415 52.6443C116.666 53.22 117.672 53.7035 118.316 54.0259Z" fill="#761E19"/>
<path d="M118.316 54.0259C119.015 54.5862 119.115 54.6553 120.166 55.492C119.115 54.6553 119.015 54.5862 118.316 54.0259ZM118.316 54.0259C117.917 53.4118 117.326 52.5597 116.605 51.5464C114.97 49.2819 114.57 48.9595 114.095 48.9595C113.227 48.9672 112.283 50.0497 112.421 50.8327C112.513 51.4315 113.227 51.6541 115.415 52.6443C116.666 53.22 117.672 53.7035 118.316 54.0259Z" stroke="#761E19" stroke-width="0.498917" stroke-miterlimit="10"/>
<path d="M121.763 49.0753C122.546 49.4744 122.669 49.5358 123.79 50.1038C122.669 49.5358 122.546 49.4744 121.763 49.0753C121.249 48.5609 120.512 47.824 119.606 46.9796C117.564 45.0758 117.111 44.8379 116.635 44.93C115.791 45.1143 115.069 46.3579 115.361 47.0949C115.576 47.663 116.305 47.7474 118.646 48.2923C119.99 48.607 121.072 48.891 121.763 49.0753Z" fill="#761E19"/>
<path d="M121.763 49.0753C122.546 49.4744 122.669 49.5358 123.79 50.1038C122.669 49.5358 122.546 49.4744 121.763 49.0753ZM121.763 49.0753C121.249 48.5609 120.512 47.824 119.606 46.9796C117.564 45.0758 117.111 44.8379 116.635 44.93C115.791 45.1143 115.069 46.3579 115.361 47.0949C115.576 47.663 116.305 47.7474 118.646 48.2923C119.99 48.607 121.072 48.891 121.763 49.0753Z" stroke="#761E19" stroke-width="0.498917" stroke-miterlimit="10"/>
<path d="M124.673 43.8166C125.417 44.0853 125.601 44.1466 126.492 44.469C125.601 44.1466 125.417 44.0853 124.673 43.8166C124.089 43.3714 123.26 42.7573 122.239 42.0434C119.959 40.4391 119.476 40.2625 119.023 40.4237C118.209 40.7155 117.664 42.0436 118.055 42.7422C118.339 43.2719 119.084 43.2488 121.487 43.4713C122.853 43.5941 123.959 43.7322 124.673 43.8166Z" fill="#761E19"/>
<path d="M124.673 43.8166C125.417 44.0853 125.601 44.1466 126.492 44.469C125.601 44.1466 125.417 44.0853 124.673 43.8166ZM124.673 43.8166C124.089 43.3714 123.26 42.7573 122.239 42.0434C119.959 40.4391 119.476 40.2625 119.023 40.4237C118.209 40.7155 117.664 42.0436 118.055 42.7422C118.339 43.2719 119.084 43.2488 121.487 43.4713C122.853 43.5941 123.959 43.7322 124.673 43.8166Z" stroke="#761E19" stroke-width="0.498917" stroke-miterlimit="10"/>
<path d="M126.01 38.3039C126.877 38.419 127.008 38.4266 128.29 38.6031C127.008 38.4266 126.877 38.419 126.01 38.3039C125.334 37.9968 124.398 37.567 123.254 37.0834C120.682 36.0011 120.176 35.9244 119.761 36.1854C119.032 36.6384 118.778 38.0586 119.308 38.6497C119.707 39.1103 120.421 38.9337 122.816 38.6418C124.183 38.4728 125.288 38.3653 126.01 38.3039Z" fill="#761E19"/>
<path d="M126.01 38.3039C126.877 38.419 127.008 38.4266 128.29 38.6031C127.008 38.4266 126.877 38.419 126.01 38.3039ZM126.01 38.3039C125.334 37.9968 124.398 37.567 123.254 37.0834C120.682 36.0011 120.176 35.9244 119.761 36.1854C119.032 36.6384 118.778 38.0586 119.308 38.6497C119.707 39.1103 120.421 38.9337 122.816 38.6418C124.183 38.4728 125.288 38.3653 126.01 38.3039Z" stroke="#761E19" stroke-width="0.498917" stroke-miterlimit="10"/>
<path d="M85.735 69.5362C85.7119 70.1887 85.6965 70.4343 85.6658 71.0331C85.6658 71.0945 85.6658 71.156 85.6658 71.2174C85.6658 71.2327 85.6581 71.2404 85.6581 71.2404C85.6581 71.2404 85.6658 71.2327 85.6658 71.2174C85.6658 71.156 85.6658 71.0945 85.6658 71.0331C85.6965 70.4343 85.7119 70.1887 85.735 69.5362C85.9884 68.8529 86.3338 67.8779 86.7254 66.688C87.6007 64.0472 87.6238 63.5329 87.3398 63.1414C86.8178 62.4505 85.3976 62.3201 84.8449 62.8882C84.4149 63.3334 84.6452 64.0244 85.1364 66.3888C85.4203 67.7322 85.6122 68.8299 85.735 69.5362Z" fill="#761E19"/>
<path d="M85.735 69.5362C85.7119 70.1887 85.6965 70.4343 85.6658 71.0331C85.6658 71.0945 85.6658 71.156 85.6658 71.2174C85.6658 71.2327 85.6581 71.2404 85.6581 71.2404C85.6581 71.2404 85.6658 71.2327 85.6658 71.2174C85.6658 71.156 85.6658 71.0945 85.6658 71.0331C85.6965 70.4343 85.7119 70.1887 85.735 69.5362ZM85.735 69.5362C85.9884 68.8529 86.3338 67.8779 86.7254 66.688C87.6007 64.0472 87.6238 63.5329 87.3398 63.1414C86.8178 62.4505 85.3976 62.3201 84.8449 62.8882C84.4149 63.3334 84.6452 64.0244 85.1364 66.3888C85.4203 67.7322 85.6122 68.8299 85.735 69.5362Z" stroke="#761E19" stroke-width="0.498917" stroke-miterlimit="10"/>
<path d="M91.6059 69.6362C91.652 70.1275 91.6749 70.3808 91.7056 70.7186C91.6749 70.3808 91.652 70.1275 91.6059 69.6362C91.7672 68.9222 91.9821 67.9089 92.2125 66.6806C92.727 63.94 92.6887 63.4256 92.3509 63.0878C91.7445 62.466 90.3166 62.5276 89.8406 63.1571C89.4797 63.6561 89.8098 64.3086 90.6004 66.5886C91.0532 67.8859 91.391 68.9453 91.6059 69.6362Z" fill="#761E19"/>
<path d="M91.6059 69.6362C91.652 70.1275 91.6749 70.3808 91.7056 70.7186C91.6749 70.3808 91.652 70.1275 91.6059 69.6362ZM91.6059 69.6362C91.7672 68.9222 91.9821 67.9089 92.2125 66.6806C92.727 63.94 92.6887 63.4256 92.3509 63.0878C91.7445 62.466 90.3166 62.5276 89.8406 63.1571C89.4797 63.6561 89.8098 64.3086 90.6004 66.5886C91.0532 67.8859 91.391 68.9453 91.6059 69.6362Z" stroke="#761E19" stroke-width="0.498917" stroke-miterlimit="10"/>
<path d="M98.3468 67.8236C98.5156 68.4224 98.5924 68.668 98.746 69.19C98.5924 68.668 98.5156 68.4224 98.3468 67.8236C98.3621 67.0866 98.3853 66.0503 98.37 64.8066C98.3471 62.02 98.2012 61.521 97.8097 61.2523C97.0958 60.7533 95.6986 61.0912 95.3608 61.8128C95.0998 62.3656 95.545 62.949 96.7655 65.0293C97.4717 66.2115 98.009 67.1941 98.3468 67.8236Z" fill="#761E19"/>
<path d="M98.3468 67.8236C98.5156 68.4224 98.5924 68.668 98.746 69.19C98.5924 68.668 98.5156 68.4224 98.3468 67.8236ZM98.3468 67.8236C98.3621 67.0866 98.3853 66.0503 98.37 64.8066C98.3471 62.02 98.2012 61.521 97.8097 61.2523C97.0958 60.7533 95.6986 61.0912 95.3608 61.8128C95.0998 62.3656 95.545 62.949 96.7655 65.0293C97.4717 66.2115 98.009 67.1941 98.3468 67.8236Z" stroke="#761E19" stroke-width="0.498917" stroke-miterlimit="10"/>
</g>
<defs>
<linearGradient id="paint0_linear_4819_341543" x1="256.632" y1="-164.847" x2="59.0028" y2="91.1065" gradientUnits="userSpaceOnUse">
<stop stop-color="#7C1F1A"/>
<stop offset="1" stop-color="#7A1F1A" stop-opacity="0"/>
</linearGradient>
<clipPath id="clip0_4819_341543">
<rect width="140" height="140" fill="white"/>
</clipPath>
</defs>
</svg>
