<svg width="140" height="140" viewBox="0 0 140 140" fill="none" xmlns="http://www.w3.org/2000/svg">
<g clip-path="url(#clip0_4819_341536)">
<path d="M120.591 27.444L121.88 21.5794L121.512 27.5725L120.591 27.444Z" fill="#761E19"/>
<path d="M119.588 26.2145L119.532 20.4843L120.513 26.1303L119.588 26.2145Z" fill="#761E19"/>
<path d="M118.077 24.5669L117.246 19.4961L118.976 24.3351L118.077 24.5669Z" fill="#761E19"/>
<path d="M116.351 23.7686L114.856 18.1434L117.227 23.459L116.351 23.7686Z" fill="#761E19"/>
<path d="M114.438 22.7174L112.446 16.9425L115.291 22.3484L114.438 22.7174Z" fill="#761E19"/>
<path d="M112.381 21.8907L109.607 16.0266L113.191 21.4339L112.381 21.8907Z" fill="#761E19"/>
<path d="M110.292 21.4136L106.684 15.3066L111.059 20.8891L110.292 21.4136Z" fill="#761E19"/>
<path d="M108.212 21.0716L103.935 15.5391L108.908 20.4551L108.212 21.0716Z" fill="#761E19"/>
<path d="M105.407 20.9303L101.123 15.8906L106.072 20.2795L105.407 20.9303Z" fill="#761E19"/>
<path d="M102.705 21.2239C101.967 20.3455 101.195 19.4927 100.388 18.6688C99.5884 17.8372 98.7314 17.0631 97.8701 16.2871C98.8248 16.9404 99.7857 17.5987 100.698 18.3224C101.617 19.0383 102.51 19.792 103.375 20.5793L102.705 21.2239Z" fill="#761E19"/>
<path d="M100.282 22.1557L93.5654 17.5117L100.766 21.3628L100.282 22.1557Z" fill="#761E19"/>
<path d="M97.6607 23.6391L90.8315 18.7695L98.1575 22.8541L97.6607 23.6391Z" fill="#761E19"/>
<path d="M95.2569 25.0129L87.3091 20.8086L95.6486 24.1706L95.2569 25.0129Z" fill="#761E19"/>
<path d="M91.2682 26.8109L83.6572 23.084L91.6167 25.9495L91.2682 26.8109Z" fill="#761E19"/>
<path d="M89.1092 29.1859L80.833 25.3105L89.4603 28.3251L89.1092 29.1859Z" fill="#761E19"/>
<path d="M86.834 31.3424L78.5137 27.8223L87.1518 30.4687L86.834 31.3424Z" fill="#761E19"/>
<path d="M84.193 33.1592L76.5698 29.7422L84.5257 32.2908L84.193 33.1592Z" fill="#761E19"/>
<path d="M80.8154 35.354L73.043 32.3086L81.1064 34.471L80.8154 35.354Z" fill="#761E19"/>
<path d="M78.3631 37.8904L70.4375 34.6113L78.6715 37.0134L78.3631 37.8904Z" fill="#761E19"/>
<path d="M75.4971 39.9354L67.3296 36.9121L75.7737 39.0479L75.4971 39.9354Z" fill="#761E19"/>
<path d="M71.7433 42.6939L64.0635 39.623L72.0393 41.8123L71.7433 42.6939Z" fill="#761E19"/>
<path d="M68.7257 45.0746L61.9619 41.5488L69.1049 44.2255L68.7257 45.0746Z" fill="#761E19"/>
<path d="M65.9205 47.7982L59.4214 43.9297L66.346 46.9717L65.9205 47.7982Z" fill="#761E19"/>
<path d="M62.9973 50.1609L56.3711 46.1875L63.4263 49.3367L62.9973 50.1609Z" fill="#761E19"/>
<path d="M60.1673 52.4621L52.5415 49.418L60.4626 51.581L60.1673 52.4621Z" fill="#761E19"/>
<path d="M57.246 55.2075L49.126 52.1309L57.528 54.3221L57.246 55.2075Z" fill="#761E19"/>
<path d="M54.348 57.4819L46.6177 54.541L54.6296 56.5957L54.348 57.4819Z" fill="#761E19"/>
<path d="M51.7017 60.0611L43.6113 56.9707L51.9872 59.176L51.7017 60.0611Z" fill="#761E19"/>
<path d="M48.3411 62.9736L40.4634 59.8184L48.6389 62.0932L48.3411 62.9736Z" fill="#761E19"/>
<path d="M45.3239 65.071L38.4443 61.8301L45.6681 64.2078L45.3239 65.071Z" fill="#761E19"/>
<path d="M42.3713 67.9435L36.0039 64.3145L42.7801 67.1084L42.3713 67.9435Z" fill="#761E19"/>
<path d="M40.0474 70.1374L33.0518 66.6973L40.407 69.2803L40.0474 70.1374Z" fill="#761E19"/>
<path d="M37.6379 72.6891L30.6426 69.9004L37.9276 71.8059L37.6379 72.6891Z" fill="#761E19"/>
<path d="M34.3274 74.647C31.9323 74.4195 29.8099 73.4485 27.7363 72.5137C29.9162 73.166 32.1551 73.8164 34.3532 73.7175L34.3274 74.647Z" fill="#761E19"/>
<path d="M32.0192 76.8274C29.7163 76.4158 27.7964 75.286 25.625 74.8027C27.8419 74.9817 29.9965 75.8375 32.1186 75.9027L32.0192 76.8274Z" fill="#761E19"/>
<path d="M29.9198 79.3564L23.0674 77.1367L30.1489 78.4555L29.9198 79.3564Z" fill="#761E19"/>
<path d="M27.1322 82.284L20.4072 79.8555L27.3905 81.3909L27.1322 82.284Z" fill="#761E19"/>
<path d="M24.3677 84.1054L18.708 81.7598L24.6574 83.2221L24.3677 84.1054Z" fill="#761E19"/>
<path d="M21.8122 86.9892L16.2803 84.2754L22.1577 86.1262L21.8122 86.9892Z" fill="#761E19"/>
<path d="M19.5331 89.2954L13.8486 86.6816L19.8577 88.4242L19.5331 89.2954Z" fill="#761E19"/>
<path d="M16.7112 92.1441L12.04 89.5938L17.0832 91.2917L16.7112 92.1441Z" fill="#761E19"/>
<path d="M128.769 40.2148L134.622 41.5515L128.633 41.1351L128.769 40.2148Z" fill="#761E19"/>
<path d="M129.077 41.6484L135.012 44.1143L128.783 42.5307L129.077 41.6484Z" fill="#761E19"/>
<path d="M129.492 43.4142L135.316 46.5872L129.105 44.2591L129.492 43.4142Z" fill="#761E19"/>
<path d="M130.274 44.9132L135.939 49.2632L129.758 45.6859L130.274 44.9132Z" fill="#761E19"/>
<path d="M130.891 47.0623L136.412 51.9116L130.323 47.7981L130.891 47.0623Z" fill="#761E19"/>
<path d="M131.532 49.1606L137.466 56.211L130.852 49.7936L131.532 49.1606Z" fill="#761E19"/>
<path d="M132.24 52.1355L137.334 59.3854L131.509 52.7092L132.24 52.1355Z" fill="#761E19"/>
<path d="M132.051 54.3243L136.435 62.5618L131.253 54.8011L132.051 54.3243Z" fill="#761E19"/>
<path d="M131.421 57.1021L134.842 64.8088L130.593 57.5254L131.421 57.1021Z" fill="#761E19"/>
<path d="M130.376 59.6102L133.865 67.7156L129.544 60.027L130.376 59.6102Z" fill="#761E19"/>
<path d="M128.873 61.8545L131.247 71.0261L127.986 62.1318L128.873 61.8545Z" fill="#761E19"/>
<path d="M126.712 63.9587L128.781 73.3833L125.815 64.202L126.712 63.9587Z" fill="#761E19"/>
<path d="M124.743 65.994L125.707 76.1735L123.823 66.1238L124.743 65.994Z" fill="#761E19"/>
<path d="M121.899 69.3576L122.405 77.8027L120.973 69.4497L121.899 69.3576Z" fill="#761E19"/>
<path d="M119.012 70.7576L119.472 79.8839L118.087 70.8514L119.012 70.7576Z" fill="#761E19"/>
<path d="M116.304 72.3672L116.41 81.4012L115.377 72.4262L116.304 72.3672Z" fill="#761E19"/>
<path d="M113.23 72.4315L112.718 82.7074L112.3 72.4274L113.23 72.4315Z" fill="#761E19"/>
<path d="M109.836 74.6579L108.7 84.6651L108.908 74.5957L109.836 74.6579Z" fill="#761E19"/>
<path d="M106.516 75.8536L105.09 86.3892L105.591 75.7687L106.516 75.8536Z" fill="#761E19"/>
<path d="M103.469 77.6625L101.621 87.5783L102.548 77.5349L103.469 77.6625Z" fill="#761E19"/>
<path d="M99.412 79.9333L97.7389 89.4584L98.4904 79.817L99.412 79.9333Z" fill="#761E19"/>
<path d="M96.0059 81.661L94.523 90.1432L95.0834 81.5506L96.0059 81.661Z" fill="#761E19"/>
<path d="M92.3715 83.0485L91.3358 91.3499L91.4439 82.985L92.3715 83.0485Z" fill="#761E19"/>
<path d="M89.0152 84.7456L87.9384 92.184L88.0889 84.6695L89.0152 84.7456Z" fill="#761E19"/>
<path d="M85.7477 86.4869L84.0911 93.9767L84.8299 86.3417L85.7477 86.4869Z" fill="#761E19"/>
<path d="M82.0426 88.0254L80.3088 95.9654L81.1242 87.8793L82.0426 88.0254Z" fill="#761E19"/>
<path d="M78.7774 89.7306L77.1205 97.3279L77.8592 89.5866L78.7774 89.7306Z" fill="#761E19"/>
<path d="M75.3377 91.0858L73.6397 98.4278L74.4206 90.9326L75.3377 91.0858Z" fill="#761E19"/>
<path d="M71.3041 92.9288L69.8946 100.4L70.3813 92.8121L71.3041 92.9288Z" fill="#761E19"/>
<path d="M68.1548 94.7828L66.9286 101.728L67.2312 94.6816L68.1548 94.7828Z" fill="#761E19"/>
<path d="M64.3232 96.2371L63.3513 103.409L63.3964 96.171L64.3232 96.2371Z" fill="#761E19"/>
<path d="M61.3635 97.5177L59.7431 105.147L60.4443 97.3796L61.3635 97.5177Z" fill="#761E19"/>
<path d="M58.0482 98.684L56.7882 106.108L57.1238 98.5854L58.0482 98.684Z" fill="#761E19"/>
<path d="M54.8297 100.344L53.2145 107.686L53.9106 100.2L54.8297 100.344Z" fill="#761E19"/>
<path d="M51.7735 101.789L50.2591 108.667L50.8539 101.65L51.7735 101.789Z" fill="#761E19"/>
<path d="M48.7867 103.04L47.0768 110.037L47.872 102.877L48.7867 103.04Z" fill="#761E19"/>
<path d="M44.9791 104.347L43.5066 111.345L44.0583 104.215L44.9791 104.347Z" fill="#761E19"/>
<path d="M42.1826 106.084L41.0689 112.109L41.2578 105.985L42.1826 106.084Z" fill="#761E19"/>
<path d="M38.511 107.173L37.781 113.291L37.5827 107.132L38.511 107.173Z" fill="#761E19"/>
<path d="M35.4693 108.32L34.5869 114.515L34.5414 108.258L35.4693 108.32Z" fill="#761E19"/>
<path d="M33.2276 109.191L32.203 114.842L32.3029 109.099L33.2276 109.191Z" fill="#761E19"/>
<path d="M14.7594 95.6189L9.68359 93.2656L15.0797 94.7459L14.7594 95.6189Z" fill="#761E19"/>
<path d="M14.234 98.4882C12.0378 98.0772 9.81289 97.7783 7.57031 97.5938C9.81714 97.4677 12.078 97.4571 14.3413 97.5642L14.234 98.4882Z" fill="#761E19"/>
<path d="M14.7547 101.799L8.57812 102.412L14.6216 100.879L14.7547 101.799Z" fill="#761E19"/>
<path d="M16.8758 103.237L15.2017 103.898C14.6451 104.123 14.0751 104.328 13.5255 104.573L10.2672 106.164L13.3105 104.162C13.8296 103.845 14.3714 103.568 14.9035 103.268L16.5108 102.382L16.8758 103.237Z" fill="#761E19"/>
<path d="M17.6596 105.44L11.8337 108.46L17.1746 104.646L17.6596 105.44Z" fill="#761E19"/>
<path d="M19.6801 106.806L14.6377 111.507L19.0018 106.171L19.6801 106.806Z" fill="#761E19"/>
<path d="M21.5427 107.887L17.2012 112.919L20.7983 107.33L21.5427 107.887Z" fill="#761E19"/>
<path d="M23.5793 108.374L22.176 111.762C21.7103 112.891 21.2028 114.003 20.7198 115.123C21.0579 113.949 21.4187 112.786 21.7374 111.609L22.696 108.084L23.5793 108.374Z" fill="#761E19"/>
<path d="M25.6156 109.274L23.8826 115.916L24.7031 109.101L25.6156 109.274Z" fill="#761E19"/>
<path d="M27.7853 110.108L26.6332 115.675L26.8622 109.994L27.7853 110.108Z" fill="#761E19"/>
<path d="M30.4978 109.602L29.9406 115.134L29.5682 109.587L30.4978 109.602Z" fill="#761E19"/>
<path d="M131.565 58.0442C129.286 68.7101 116.638 73.0923 97.5553 81.2758C48.7142 102.207 32.7367 115.843 20.107 107.559C18.8533 106.726 15.4498 104.493 14.4741 100.591C12.7072 93.5705 20.1556 86.5972 39.7837 69.1137C56.7232 54.0198 63.9722 47.8164 74.7337 39.1449C88.5824 27.9932 96.3206 22.3769 102.441 20.6895C102.56 20.6532 102.691 20.6204 102.815 20.5922C105.226 19.9727 107.401 19.9839 109.62 20.5172C112.21 21.1366 115.608 22.6529 118.025 24.199C118.206 24.3089 118.379 24.4234 118.54 24.5345C120.169 25.6447 121.23 26.7389 121.051 27.5077C120.85 28.3861 119.081 28.6879 118.809 28.7376C118.752 28.7494 118.69 28.7531 118.632 28.7649C115.632 29.1655 114.408 26.3943 110.763 26.1048C110.55 26.0884 106.665 25.8299 105.084 28.278C104.444 29.2702 103.894 31.1441 104.732 32.2059C106.799 34.8559 115.045 29.5048 118.167 32.7371C118.801 33.3904 119.3 34.4768 118.966 35.1632C118.477 36.1754 116.537 35.6213 113.801 36.331C113.297 36.4612 108.785 37.6814 108.535 39.8331C108.327 41.649 111.158 44.1907 113.86 44.1661C118.006 44.134 120.294 38.0574 121.977 38.7603C123.041 39.2088 123.042 42.0743 122.561 44.1773C121.48 48.9237 117.924 49.8492 118.122 52.7945C118.3 55.4828 121.467 58.1417 123.506 57.6945C125.786 57.1829 127.271 52.6331 126.845 49.0142C126.485 45.937 124.818 44.1835 125.809 41.9583C125.908 41.7399 126.043 41.4902 126.204 41.2474C126.662 40.5535 127.325 39.8806 127.97 39.9378C130.435 40.1356 133.059 51.0947 131.565 58.0442Z" fill="#C4AB90" stroke="#9E6655" stroke-width="0.106804" stroke-miterlimit="10"/>
<path d="M131.565 58.0442C129.286 68.7101 116.638 73.0923 97.5553 81.2758C48.7142 102.207 32.7367 115.843 20.107 107.559C18.8533 106.726 15.4498 104.493 14.4741 100.591C12.7072 93.5705 20.1556 86.5972 39.7837 69.1137C56.7232 54.0198 63.9722 47.8164 74.7337 39.1449C88.5824 27.9932 96.3206 22.3769 102.441 20.6895C102.56 20.6532 102.691 20.6204 102.815 20.5922C105.141 20.0861 107.277 20.1412 109.493 20.6331C112.081 21.2109 115.477 22.6316 118.025 24.199C118.206 24.3089 118.379 24.4234 118.54 24.5345C120.169 25.6447 121.23 26.7389 121.051 27.5077C120.85 28.3861 119.081 28.6879 118.809 28.7376C118.752 28.7494 118.69 28.7531 118.632 28.7649C116.298 27.1389 111.1 24.0853 108.903 23.2924C102.115 20.8674 91.8947 28.4318 75.441 41.5598C64.6033 50.2109 57.4586 56.279 40.671 71.0597C21.8668 87.6274 14.2972 94.5955 15.7587 100.622C16.5413 103.874 19.5166 105.774 20.6383 106.49C28.7122 111.661 38.8185 106.782 60.9632 96.1115C70.232 91.6404 81.7675 86.0754 96.0364 79.9092C97.7534 79.1648 99.4267 78.4563 101.042 77.7596C116.704 71.0683 127.05 66.6409 129.06 57.8696C130.514 51.5014 128.172 42.7412 126.838 41.9549C126.819 41.9227 126.609 41.6895 126.204 41.2474C126.662 40.5535 127.325 39.8806 127.97 39.9378C130.435 40.1356 133.059 51.0947 131.565 58.0442Z" fill="#B2946F" stroke="#761E19" stroke-width="0.427214" stroke-miterlimit="10"/>
<path d="M85.4583 70.3604C85.4957 71.3157 85.3748 72.2293 85.108 73.1207C85.108 73.1207 85.1008 73.1249 85.1045 73.1313C84.781 74.3036 84.2156 75.403 83.4795 76.4055C83.1485 76.8715 82.7874 77.3021 82.3856 77.7123C81.5266 78.6172 80.5364 79.4101 79.4692 80.053C78.0954 80.9085 76.6021 81.5216 75.1497 81.8449C74.5751 81.9726 73.945 82.0692 73.2774 82.1175C71.685 82.2468 69.9056 82.119 68.2884 81.5788C68.1593 81.5374 68.0315 81.4963 67.9059 81.4443C66.5144 80.9155 65.2805 80.0649 64.4321 78.7609C64.4095 78.7385 64.3904 78.7055 64.3746 78.6781C62.1136 75.1076 64.2362 70.667 64.6364 69.8412C65.3116 68.4208 66.3439 66.9907 67.6142 65.7421C68.9542 64.4005 70.5555 63.2624 72.2813 62.5054C72.7229 62.3127 73.1688 62.1443 73.6224 62.0059C74.4908 61.7439 75.3878 61.5814 76.2779 61.5559C77.2911 61.5131 78.3102 61.6439 79.3068 61.9832C82.8773 63.1831 85.3324 66.6769 85.4583 70.3604Z" fill="#761E19" stroke="#761E19" stroke-width="0.427214" stroke-miterlimit="10"/>
<path d="M71.7484 74.5387C71.2765 74.0951 70.4445 73.7436 69.611 74.0456C68.611 74.4071 68.0156 75.5603 68.248 76.5597C68.4572 77.4555 69.3178 78.1728 70.366 78.0883C71.2779 78.0148 72.0919 77.3537 72.3337 76.5045C72.6453 75.41 71.8336 74.6194 71.7484 74.5387Z" fill="#B2946F" stroke="#761E19" stroke-width="0.427214" stroke-miterlimit="10"/>
<path d="M73.0009 72.4736C72.2564 73.2459 71.698 74.6268 72.2884 75.3744C72.6819 75.8718 73.4243 75.8823 73.9628 75.8891C74.2354 75.8928 76.3708 75.9213 77.0381 74.5227C77.5064 73.5416 76.9181 72.5598 76.8738 72.4887C76.7369 72.2683 76.3146 71.6801 75.519 71.5104C74.2247 71.2357 73.1436 72.3247 73.0009 72.4736Z" fill="#B2946F" stroke="#761E19" stroke-width="0.427214" stroke-miterlimit="10"/>
<path d="M74.5923 67.623C73.9432 68.1738 73.9289 68.9764 73.9229 69.2783C73.9188 69.5147 73.8998 70.5842 74.6475 70.9888C75.4401 71.419 76.7215 70.8981 77.2819 70.0002C77.7378 69.269 77.8275 68.1082 77.0191 67.4907C76.3129 66.9517 75.2411 67.0734 74.5923 67.623Z" fill="#B2946F" stroke="#761E19" stroke-width="0.427214" stroke-miterlimit="10"/>
<path d="M81.2953 70.7951C80.9194 70.0008 79.7927 69.6315 78.8357 69.8813C77.5903 70.2064 76.6148 71.5844 76.996 72.7298C77.2836 73.5943 78.2678 74.0942 79.1483 73.998C80.6363 73.8367 81.8534 71.9736 81.2953 70.7951Z" fill="#B2946F" stroke="#761E19" stroke-width="0.427214" stroke-miterlimit="10"/>
<path d="M82.3867 77.711C81.5277 78.6159 80.5375 79.4087 79.4704 80.0517C79.0813 79.9392 78.7162 79.7679 78.4072 79.5469C77.4471 78.8581 77.0545 77.6817 77.2032 76.6361C77.2451 76.3629 77.4269 75.077 78.3527 74.6671C79.5541 74.1248 80.9801 75.5387 81.1458 75.7103C81.648 76.2008 82.1406 76.9556 82.3867 77.711Z" fill="#B2946F" stroke="#761E19" stroke-width="0.427214" stroke-miterlimit="10"/>
<path d="M76.2409 76.8135C75.3976 76.2526 74.3128 76.718 74.1611 76.7862C74.0576 76.832 72.7056 77.4612 72.6937 78.6564C72.6856 79.5199 73.3815 80.123 74.0205 80.3466C74.8569 80.6388 75.9937 80.4215 76.612 79.5868C77.2931 78.6675 77.0721 77.3663 76.2409 76.8135Z" fill="#B2946F" stroke="#761E19" stroke-width="0.427214" stroke-miterlimit="10"/>
<path d="M73.3156 80.8458C73.3786 81.2357 73.3714 81.6842 73.2793 82.1196C71.6869 82.2489 69.9076 82.1211 68.2904 81.5808C68.3076 81.3132 68.4017 81.0635 68.5286 80.8389C68.5394 80.8241 68.5489 80.809 68.5596 80.7942C68.6188 80.6978 68.6809 80.6082 68.748 80.5254C68.9335 80.2852 69.135 80.0895 69.3077 79.9275C69.7246 79.5268 70.6957 78.6023 71.7389 78.8083C72.9907 79.0615 73.289 80.7012 73.3156 80.8458Z" fill="#B2946F" stroke="#761E19" stroke-width="0.427214" stroke-miterlimit="10"/>
<path d="M68.7478 80.5223C68.6807 80.6051 68.6186 80.6946 68.5594 80.7911C68.5487 80.8059 68.5392 80.821 68.5284 80.8358C68.3572 81.0506 68.145 81.2611 67.9077 81.4432C66.5161 80.9144 65.2822 80.0638 64.4338 78.7598C64.9728 78.191 65.6746 77.8395 65.8209 77.7637C66.022 77.6658 67.8255 76.7479 68.7953 77.5203C68.8141 77.5362 68.833 77.5522 68.8515 77.5673L68.8552 77.5737C69.5823 78.2382 69.3331 79.5897 68.7478 80.5223Z" fill="#B2946F" stroke="#761E19" stroke-width="0.427214" stroke-miterlimit="10"/>
<path d="M65.3492 72.2238C66.4806 71.9302 67.4975 73.1616 67.5605 73.239C67.7162 73.4325 68.4139 74.3565 68.0845 75.515C67.7492 76.693 66.4424 77.7985 65.3151 77.5637C64.1801 77.3269 63.8767 75.8661 63.8289 75.5975C63.5988 74.3251 64.1615 72.5316 65.3492 72.2238Z" fill="#B2946F" stroke="#761E19" stroke-width="0.427214" stroke-miterlimit="10"/>
<path d="M65.2751 69.8923C65.296 70.6832 66.3155 71.2389 66.4425 71.3063C66.6855 71.4354 67.3608 71.7926 67.9597 71.5768C69.2066 71.1263 69.7011 68.3407 68.7788 67.7471C67.8513 67.1501 65.2413 68.6086 65.2751 69.8923Z" fill="#B2946F" stroke="#761E19" stroke-width="0.427214" stroke-miterlimit="10"/>
<path d="M72.0991 68.3273C70.8305 67.9873 68.4156 70.4195 68.6992 72.1731C68.7218 72.3125 68.8563 73.0346 69.4564 73.3322C70.1592 73.6812 71.0372 73.2182 71.4252 73.0146C71.7143 72.8628 72.6344 72.3777 73.0167 71.3594C73.482 70.1128 72.9596 68.5572 72.0991 68.3273Z" fill="#B2946F" stroke="#761E19" stroke-width="0.427214" stroke-miterlimit="10"/>
<path d="M73.516 65.1851C73.5156 65.283 73.3797 67.1112 71.8705 67.814C70.6552 68.3826 69.4794 67.7646 69.2202 67.6298C68.5767 67.2906 67.8573 66.6228 67.6153 65.7406C68.9553 64.3991 70.5567 63.2609 72.2825 62.5039C73.153 63.121 73.5735 64.2287 73.516 65.1851Z" fill="#B2946F" stroke="#761E19" stroke-width="0.427214" stroke-miterlimit="10"/>
<path d="M77.5471 63.5859C77.5507 64.6315 76.7041 65.9372 75.5793 66.0359C74.393 66.1433 73.6375 64.8662 73.4317 63.9985C73.2919 63.3771 73.3443 62.5922 73.6234 62.0048C74.4919 61.7428 75.3888 61.5804 76.2789 61.5549C76.9782 62.0056 77.5464 62.7425 77.5471 63.5859Z" fill="#B2946F" stroke="#761E19" stroke-width="0.427214" stroke-miterlimit="10"/>
<path d="M82.2391 65.0511C82.0315 63.9944 80.5935 63.2605 79.2932 63.6001C78.3238 63.8527 77.5135 64.6802 77.33 65.675C77.1419 66.6896 77.6133 67.8388 78.5981 68.1763C80.0324 68.6676 81.4093 67.046 81.5413 66.886C81.7949 66.5797 82.3967 65.8522 82.2391 65.0511Z" fill="#B2946F" stroke="#761E19" stroke-width="0.427214" stroke-miterlimit="10"/>
<path d="M83.6441 66.4922C82.6353 66.3308 81.5003 67.3618 81.2068 68.4319C80.8683 69.6676 81.5893 71.1879 82.7207 71.2828C83.6831 71.3638 84.6252 70.3873 84.9271 69.4766C85.3288 68.2667 84.7686 66.6718 83.6441 66.4922Z" fill="#B2946F" stroke="#761E19" stroke-width="0.427214" stroke-miterlimit="10"/>
<path d="M85.1092 73.1201C85.1092 73.1201 85.1019 73.1243 85.1056 73.1307C84.782 74.303 84.2167 75.4024 83.4806 76.4049C82.4945 76.3795 81.3154 75.6572 81.2231 74.6885C81.1159 73.6941 82.2019 72.8534 82.426 72.68C82.6321 72.5256 83.6796 71.7168 84.3731 72.0089C84.7254 72.1598 84.9717 72.5865 85.1092 73.1201Z" fill="#B2946F" stroke="#761E19" stroke-width="0.427214" stroke-miterlimit="10"/>
<path d="M70.7198 64.7682C70.957 64.7719 71.1271 64.9624 71.1587 65.1492C71.2118 65.4642 70.8801 65.8157 70.6 65.7917C70.3133 65.7672 70.1085 65.353 70.2561 65.0585C70.3316 64.9065 70.5109 64.7654 70.7198 64.7682Z" fill="#761E19"/>
<path d="M67.2635 69.3473C67.0754 69.4602 67.0692 69.7192 67.1312 69.8766C67.2066 70.065 67.426 70.2163 67.603 70.1603C67.824 70.0896 67.9508 69.703 67.7925 69.4809C67.688 69.3351 67.446 69.2376 67.2635 69.3473Z" fill="#761E19"/>
<path d="M70.5859 70.7295C70.4768 70.9718 70.6285 71.2717 70.8801 71.3078C71.0838 71.3373 71.2992 71.1861 71.3684 70.9862C71.4362 70.7914 71.3635 70.5521 71.1597 70.4722C70.9404 70.3862 70.6765 70.5258 70.5859 70.7295Z" fill="#761E19"/>
<path d="M75.6587 68.6457C75.4823 68.6896 75.3594 68.8561 75.3364 69.0133C75.301 69.2495 75.4858 69.512 75.745 69.4998C75.9834 69.4889 76.1888 69.2479 76.1691 69.0092C76.148 68.7626 75.8922 68.5872 75.6587 68.6457Z" fill="#761E19"/>
<path d="M67.253 78.9055C67.0765 78.9494 66.9537 79.1159 66.9306 79.273C66.8952 79.5092 67.08 79.7717 67.3392 79.7595C67.5776 79.7485 67.783 79.5075 67.7633 79.2688C67.7423 79.0223 67.4865 78.8469 67.253 78.9055Z" fill="#761E19"/>
<path d="M65.7661 74.843C65.5897 74.8869 65.4668 75.0534 65.4438 75.2105C65.4084 75.4467 65.5932 75.7092 65.8524 75.697C66.0908 75.686 66.2962 75.4451 66.2765 75.2063C66.2562 74.9593 66 74.7852 65.7661 74.843Z" fill="#761E19"/>
<path d="M70.2236 75.5657C70.0472 75.6096 69.9243 75.776 69.9013 75.9332C69.8659 76.1694 70.0508 76.4319 70.3099 76.4197C70.5483 76.4087 70.7538 76.1678 70.734 75.929C70.7138 75.682 70.4571 75.5071 70.2236 75.5657Z" fill="#761E19"/>
<path d="M74.6758 73.341C74.4993 73.3849 74.3765 73.5514 74.3535 73.7086C74.3181 73.9448 74.5029 74.2074 74.7621 74.1952C75.0005 74.1842 75.2059 73.9432 75.1861 73.7045C75.1659 73.4575 74.9097 73.2833 74.6758 73.341Z" fill="#761E19"/>
<path d="M83.2647 68.0363C83.0882 68.0803 82.9654 68.2467 82.9423 68.4039C82.9069 68.6401 83.0918 68.9026 83.3509 68.8904C83.5893 68.8795 83.7948 68.6385 83.775 68.3998C83.754 68.1532 83.4981 67.9778 83.2647 68.0363Z" fill="#761E19"/>
<path d="M79.6265 65.343C79.4501 65.3869 79.3272 65.5534 79.3041 65.7105C79.2688 65.9467 79.4536 66.2093 79.7128 66.197C79.9512 66.1861 80.1566 65.9451 80.1369 65.7064C80.1158 65.4598 79.8605 65.2852 79.6265 65.343Z" fill="#761E19"/>
<path d="M75.3687 63.1985C75.1922 63.2424 75.0694 63.4088 75.0463 63.566C75.0109 63.8022 75.1958 64.0648 75.455 64.0526C75.6934 64.0416 75.8988 63.8006 75.8791 63.5619C75.858 63.3153 75.6026 63.1407 75.3687 63.1985Z" fill="#761E19"/>
<path d="M79.2984 77.2805C79.1219 77.3244 78.999 77.4908 78.976 77.648C78.9406 77.8841 79.1254 78.1467 79.3846 78.1345C79.623 78.1235 79.8284 77.8825 79.8087 77.6438C79.7877 77.3973 79.5319 77.2219 79.2984 77.2805Z" fill="#761E19"/>
<path d="M70.9829 80.3528C70.8065 80.3967 70.6836 80.5631 70.6606 80.7203C70.6252 80.9565 70.8101 81.2191 71.0692 81.2069C71.3076 81.1959 71.5131 80.9549 71.4933 80.7162C71.4722 80.4696 71.2156 80.2947 70.9829 80.3528Z" fill="#761E19"/>
<path d="M74.6275 78.2492C74.4511 78.2931 74.3282 78.4596 74.3051 78.6168C74.2697 78.853 74.4546 79.1156 74.7138 79.1033C74.9522 79.0924 75.1576 78.8514 75.1379 78.6126C75.1176 78.3656 74.861 78.1906 74.6275 78.2492Z" fill="#761E19"/>
<path d="M79.106 71.4602C78.9295 71.5041 78.8067 71.6705 78.7836 71.8277C78.7482 72.0639 78.9331 72.3265 79.1922 72.3143C79.4306 72.3033 79.636 72.0623 79.6163 71.8236C79.5952 71.577 79.3386 71.4021 79.106 71.4602Z" fill="#761E19"/>
<path d="M83.184 73.7962C83.0076 73.8401 82.8848 74.0065 82.8617 74.1637C82.8264 74.3998 83.0112 74.6623 83.2703 74.6501C83.5087 74.6392 83.7141 74.3982 83.6943 74.1595C83.6733 73.913 83.4174 73.7376 83.184 73.7962Z" fill="#761E19"/>
<path d="M42.1261 84.0918C41.9821 83.2883 41.9778 82.4963 42.1025 81.7008C42.1025 81.7008 42.1085 81.6963 42.1044 81.6911C42.2447 80.6494 42.6013 79.633 43.1167 78.672C43.3461 78.2271 43.6062 77.8076 43.9032 77.3999C44.5353 76.5036 45.2931 75.6818 46.1353 74.9765C47.2159 74.0445 48.4276 73.2988 49.6383 72.8059C50.1172 72.611 50.6471 72.4338 51.2159 72.2923C52.5701 71.942 54.1151 71.781 55.5694 71.9945C55.6849 72.0105 55.7999 72.0257 55.9143 72.0509C57.173 72.2882 58.3345 72.822 59.2175 73.799C59.2392 73.8144 59.2603 73.8398 59.2765 73.8605C61.6408 76.5426 60.3376 80.625 60.0917 81.3853C59.6774 82.6905 58.9591 84.0585 58.0133 85.3077C57.0189 86.6472 55.776 87.8522 54.3809 88.7543C54.024 88.9839 53.6601 89.1941 53.2864 89.3797C52.5705 89.733 51.8189 90.0059 51.0557 90.162C50.1896 90.3518 49.2975 90.3945 48.4013 90.2571C45.1909 89.7812 42.6681 87.1927 42.1261 84.0918Z" fill="#761E19" stroke="#761E19" stroke-width="0.427214" stroke-miterlimit="10"/>
<path d="M53.4244 78.4792C53.8825 78.7837 54.6388 78.9557 55.3209 78.5737C56.1384 78.1156 56.5146 77.0494 56.1964 76.2379C55.9115 75.5103 55.0866 75.0333 54.1954 75.2633C53.4198 75.4631 52.7978 76.1464 52.69 76.9022C52.5499 77.8773 53.3412 78.4242 53.4244 78.4792Z" fill="#B2946F" stroke="#761E19" stroke-width="0.427214" stroke-miterlimit="10"/>
<path d="M52.5893 80.4201C53.1384 79.6533 53.4561 78.3984 52.8604 77.8556C52.4634 77.4933 51.8245 77.597 51.3601 77.672C51.1254 77.7098 49.2863 78.0083 48.8766 79.2936C48.5893 80.196 49.2112 80.9384 49.2568 80.9915C49.4009 81.1574 49.833 81.5917 50.5366 81.6149C51.6826 81.6532 52.484 80.5668 52.5893 80.4201Z" fill="#B2946F" stroke="#761E19" stroke-width="0.427214" stroke-miterlimit="10"/>
<path d="M51.7914 84.7673C52.2856 84.2029 52.203 83.5206 52.1717 83.2638C52.1472 83.0633 52.038 82.1547 51.3478 81.9241C50.6156 81.6802 49.5745 82.3146 49.1984 83.1597C48.8928 83.8482 48.9519 84.8447 49.7198 85.2452C50.3914 85.596 51.2988 85.3308 51.7914 84.7673Z" fill="#B2946F" stroke="#761E19" stroke-width="0.427214" stroke-miterlimit="10"/>
<path d="M45.6544 83.0948C46.0712 83.7108 47.0839 83.8529 47.8767 83.4971C48.9088 83.0333 49.5862 81.719 49.1236 80.8063C48.7741 80.1171 47.8696 79.8428 47.1229 80.0571C45.863 80.4184 45.0356 82.181 45.6544 83.0948Z" fill="#B2946F" stroke="#761E19" stroke-width="0.427214" stroke-miterlimit="10"/>
<path d="M43.9038 77.4005C44.5359 76.5041 45.2936 75.6823 46.1359 74.9771C46.4833 75.0137 46.8186 75.1035 47.1094 75.2448C48.0162 75.6831 48.4927 76.62 48.4877 77.5279C48.4832 77.7655 48.4787 78.8824 47.7308 79.37C46.7615 80.0113 45.3689 79.029 45.2064 78.9092C44.7165 78.5683 44.2036 78.0035 43.9038 77.4005Z" fill="#B2946F" stroke="#761E19" stroke-width="0.427214" stroke-miterlimit="10"/>
<path d="M49.2932 77.2333C50.0841 77.5807 50.9627 77.0219 51.0849 76.9417C51.1683 76.8871 52.2572 76.15 52.126 75.1362C52.0316 74.4038 51.3617 73.9983 50.7864 73.9054C50.0328 73.7844 49.0808 74.1398 48.6478 74.9404C48.1706 75.8225 48.5138 76.891 49.2932 77.2333Z" fill="#B2946F" stroke="#761E19" stroke-width="0.427214" stroke-miterlimit="10"/>
<path d="M51.3332 73.3748C51.2327 73.0539 51.1869 72.6734 51.2147 72.2902C52.5689 71.9399 54.114 71.779 55.5683 71.9924C55.5845 72.2214 55.5335 72.4473 55.4503 72.6563C55.4432 72.6701 55.4358 72.6851 55.4287 72.6989C55.3896 72.7891 55.3463 72.8742 55.2983 72.9545C55.1668 73.1861 55.0175 73.3829 54.8873 73.546C54.5762 73.9479 53.8499 74.8782 52.9289 74.8614C51.8229 74.8365 51.3736 73.4932 51.3332 73.3748Z" fill="#B2946F" stroke="#761E19" stroke-width="0.427214" stroke-miterlimit="10"/>
<path d="M55.3 72.9576C55.3472 72.8777 55.3913 72.7922 55.4304 72.7019C55.4375 72.6882 55.4449 72.6732 55.452 72.6594C55.5744 72.4513 55.7313 72.2416 55.9144 72.0511C57.1731 72.2884 58.3346 72.8222 59.2175 73.7992C58.8211 74.362 58.2589 74.766 58.1417 74.853C57.9807 74.9663 56.5378 76.0162 55.6123 75.5082C55.5941 75.4972 55.5764 75.487 55.5583 75.4761L55.5542 75.4709C54.8512 75.0191 54.9059 73.8367 55.3 72.9576Z" fill="#B2946F" stroke="#761E19" stroke-width="0.427214" stroke-miterlimit="10"/>
<path d="M59.1993 79.4732C58.2608 79.8927 57.2416 79.0029 57.1782 78.9472C57.022 78.8066 56.3133 78.1294 56.4595 77.0981C56.609 76.05 57.6028 74.9158 58.5991 74.9439C59.6028 74.972 60.0359 76.1647 60.1083 76.3849C60.4575 77.4285 60.1836 79.0326 59.1993 79.4732Z" fill="#B2946F" stroke="#761E19" stroke-width="0.427214" stroke-miterlimit="10"/>
<path d="M59.5365 81.4378C59.4257 80.7718 58.4838 80.4547 58.3666 80.4172C58.1423 80.3449 57.5197 80.144 57.0306 80.4178C56.0115 80.9879 55.914 83.4219 56.7775 83.7854C57.6441 84.1503 59.7168 82.5199 59.5365 81.4378Z" fill="#B2946F" stroke="#761E19" stroke-width="0.427214" stroke-miterlimit="10"/>
<path d="M53.8524 83.7954C54.9835 83.8916 56.7733 81.4661 56.3239 80.024C56.2879 79.9096 56.087 79.318 55.5363 79.1562C54.8914 78.967 54.1903 79.491 53.881 79.7232C53.6503 79.8961 52.9158 80.4459 52.7074 81.3659C52.4522 82.4912 53.0847 83.7298 53.8524 83.7954Z" fill="#B2946F" stroke="#761E19" stroke-width="0.427214" stroke-miterlimit="10"/>
<path d="M53.0034 86.6684C52.9922 86.5858 52.8933 85.0165 54.1087 84.1935C55.0867 83.528 56.1707 83.8736 56.4093 83.9485C57.0029 84.1382 57.6997 84.5958 58.0118 85.3055C57.0173 86.6451 55.7744 87.85 54.3793 88.7521C53.5583 88.362 53.0672 87.4872 53.0034 86.6684Z" fill="#B2946F" stroke="#761E19" stroke-width="0.427214" stroke-miterlimit="10"/>
<path d="M49.7261 88.6318C49.6 87.746 50.174 86.5129 51.1296 86.2585C52.1371 85.9882 52.9374 86.956 53.2158 87.6595C53.4085 88.1644 53.4569 88.8375 53.2856 89.3775C52.5697 89.7308 51.8181 90.0037 51.0548 90.1598C50.4019 89.8841 49.8261 89.346 49.7261 88.6318Z" fill="#B2946F" stroke="#761E19" stroke-width="0.427214" stroke-miterlimit="10"/>
<path d="M45.5194 88.1014C45.8224 88.9645 47.1445 89.3692 48.2233 88.8859C49.027 88.5249 49.6265 87.7022 49.6671 86.8318C49.7091 85.9433 49.1694 85.0419 48.282 84.9048C46.9906 84.7057 45.9973 86.2872 45.9025 86.4428C45.7204 86.739 45.2893 87.4463 45.5194 88.1014Z" fill="#B2946F" stroke="#761E19" stroke-width="0.427214" stroke-miterlimit="10"/>
<path d="M44.1419 87.0935C45.0288 87.0774 45.8836 86.0332 46.0089 85.0827C46.1541 83.9844 45.3557 82.8061 44.3712 82.8968C43.5346 82.974 42.8389 83.9425 42.6865 84.7605C42.4846 85.8443 43.1538 87.1111 44.1419 87.0935Z" fill="#B2946F" stroke="#761E19" stroke-width="0.427214" stroke-miterlimit="10"/>
<path d="M42.1022 81.6991C42.1022 81.6991 42.1082 81.6946 42.1042 81.6894C42.2444 80.6476 42.601 79.6312 43.1164 78.6703C43.9679 78.5426 45.0664 78.9765 45.2602 79.7825C45.4698 80.6083 44.634 81.4848 44.4625 81.6655C44.3035 81.827 43.4975 82.6713 42.8675 82.5283C42.5445 82.454 42.2827 82.1306 42.1022 81.6991Z" fill="#B2946F" stroke="#761E19" stroke-width="0.427214" stroke-miterlimit="10"/>
<path d="M55.4583 86.5999C55.2541 86.633 55.0856 86.4973 55.0364 86.3433C54.9538 86.085 55.1969 85.7364 55.4409 85.7147C55.6898 85.6923 55.9152 86.0119 55.8233 86.284C55.7763 86.4238 55.6381 86.5712 55.4583 86.5999Z" fill="#761E19"/>
<path d="M57.8908 82.1996C58.0391 82.0753 58.0138 81.8548 57.9414 81.7313C57.8546 81.5828 57.6473 81.4878 57.5027 81.5627C57.3213 81.6556 57.2576 82.0026 57.4199 82.1666C57.5272 82.2742 57.7469 82.3202 57.8908 82.1996Z" fill="#761E19"/>
<path d="M54.8713 81.5325C54.9363 81.3104 54.7708 81.0796 54.5505 81.0865C54.3726 81.0926 54.2044 81.253 54.1686 81.4326C54.1325 81.6081 54.2235 81.7992 54.4081 81.8364C54.6063 81.8766 54.8167 81.7186 54.8713 81.5325Z" fill="#761E19"/>
<path d="M50.7551 84.0614C50.9016 83.9972 50.9878 83.8379 50.9896 83.7016C50.9922 83.4961 50.8019 83.3023 50.5813 83.3513C50.3778 83.3969 50.2291 83.6319 50.274 83.8304C50.3201 84.0367 50.5611 84.1455 50.7551 84.0614Z" fill="#761E19"/>
<path d="M56.7757 74.1025C56.9221 74.0383 57.0083 73.8791 57.0101 73.7428C57.0128 73.5373 56.8224 73.3433 56.6017 73.3924C56.3983 73.4379 56.2496 73.673 56.2945 73.8714C56.3406 74.0778 56.5817 74.1866 56.7757 74.1025Z" fill="#761E19"/>
<path d="M58.531 77.3173C58.6775 77.2532 58.7637 77.0939 58.7655 76.9576C58.7682 76.7521 58.5778 76.5581 58.3571 76.6072C58.1537 76.6527 58.005 76.8878 58.0498 77.0863C58.096 77.2926 58.3374 77.4022 58.531 77.3173Z" fill="#761E19"/>
<path d="M54.6127 77.378C54.7592 77.3139 54.8454 77.1546 54.8472 77.0183C54.8498 76.8128 54.6596 76.6189 54.4389 76.6679C54.2355 76.7134 54.0868 76.9485 54.1316 77.147C54.179 77.3536 54.4192 77.4629 54.6127 77.378Z" fill="#761E19"/>
<path d="M51.0464 79.9385C51.1929 79.8744 51.2791 79.7151 51.2809 79.5787C51.2835 79.3733 51.0932 79.1794 50.8725 79.2284C50.6691 79.2739 50.5204 79.509 50.5652 79.7075C50.6121 79.9134 50.8528 80.0235 51.0464 79.9385Z" fill="#761E19"/>
<path d="M44.2869 85.7254C44.4334 85.6612 44.5196 85.502 44.5215 85.3657C44.5241 85.1602 44.3338 84.9663 44.1131 85.0154C43.9097 85.0609 43.7609 85.296 43.8057 85.4944C43.8519 85.7007 44.0921 85.81 44.2869 85.7254Z" fill="#761E19"/>
<path d="M47.7312 87.4599C47.8777 87.3957 47.964 87.2363 47.9658 87.1C47.9685 86.8945 47.7782 86.7006 47.5574 86.7497C47.354 86.7953 47.2052 87.0304 47.25 87.2289C47.2962 87.4352 47.5372 87.544 47.7312 87.4599Z" fill="#761E19"/>
<path d="M51.6448 88.6318C51.7913 88.5676 51.8775 88.4084 51.8793 88.2721C51.8819 88.0666 51.6916 87.8726 51.4709 87.9216C51.2675 87.9672 51.1188 88.2022 51.1636 88.4007C51.2098 88.6071 51.4512 88.7167 51.6448 88.6318Z" fill="#761E19"/>
<path d="M46.6084 77.298C46.7549 77.2338 46.8411 77.0745 46.8429 76.9382C46.8455 76.7327 46.6552 76.5388 46.4345 76.5878C46.2311 76.6333 46.0824 76.8684 46.1272 77.0669C46.1742 77.2728 46.4144 77.3821 46.6084 77.298Z" fill="#761E19"/>
<path d="M53.3972 73.4385C53.5437 73.3743 53.6299 73.215 53.6317 73.0787C53.6344 72.8731 53.4441 72.6792 53.2234 72.7283C53.02 72.7738 52.8712 73.0089 52.9161 73.2074C52.9622 73.4137 53.2032 73.5226 53.3972 73.4385Z" fill="#761E19"/>
<path d="M50.511 75.7724C50.6575 75.7083 50.7437 75.549 50.7455 75.4127C50.7481 75.2072 50.5578 75.0133 50.3371 75.0623C50.1337 75.1078 49.985 75.3429 50.0298 75.5414C50.076 75.7477 50.317 75.8565 50.511 75.7724Z" fill="#761E19"/>
<path d="M47.4602 82.2001C47.6067 82.1359 47.6929 81.9766 47.6947 81.8404C47.6974 81.6349 47.507 81.441 47.2863 81.49C47.0829 81.5355 46.9342 81.7706 46.979 81.9691C47.0252 82.1754 47.2662 82.2842 47.4602 82.2001Z" fill="#761E19"/>
<path d="M43.679 80.8368C43.8255 80.7726 43.9117 80.6134 43.9135 80.4771C43.9162 80.2716 43.7259 80.0776 43.5052 80.1267C43.3017 80.1722 43.153 80.4073 43.1978 80.6058C43.244 80.8121 43.4846 80.9222 43.679 80.8368Z" fill="#761E19"/>
<path d="M38.3002 87.2981C38.2361 88.1725 38.8872 88.8615 39.4386 89.1733C39.6093 89.2701 40.3789 89.705 41.1548 89.3515C42.1131 88.9141 42.1618 87.6934 42.1629 87.6284C42.1837 86.7683 41.6484 85.7129 40.6324 85.5072C39.497 85.2771 38.3789 86.2297 38.3002 87.2981Z" fill="#B2946F" stroke="#761E19" stroke-width="0.427214" stroke-miterlimit="10"/>
<path d="M39.5722 87.1644C39.5098 87.4076 39.7255 87.6846 39.9853 87.7182C40.1444 87.739 40.3331 87.6698 40.4247 87.5107C40.5439 87.3044 40.4545 87.0232 40.2621 86.9056C40.014 86.7547 39.6397 86.9021 39.5722 87.1644Z" fill="#761E19"/>
<path d="M37.5954 94.0932C36.7702 93.8408 35.2603 95.4178 35.4784 96.595C35.4962 96.6889 35.597 97.174 35.9903 97.3849C36.4508 97.6321 37.008 97.3404 37.2534 97.2116C37.4371 97.1152 38.021 96.8103 38.2463 96.1371C38.5238 95.3145 38.1546 94.2642 37.5954 94.0932Z" fill="#B2946F" stroke="#761E19" stroke-width="0.427214" stroke-miterlimit="10"/>
<path d="M37.0016 95.2701C36.7736 95.1763 36.4363 95.4397 36.4657 95.6729C36.4844 95.8188 36.6454 95.947 36.8177 95.9591C36.9499 95.9687 37.1059 95.9098 37.1773 95.7752C37.2752 95.5877 37.164 95.3374 37.0016 95.2701Z" fill="#761E19"/>
<path d="M36.0648 90.4686C35.9101 89.7582 34.9677 89.2395 34.1356 89.4397C33.5157 89.5894 33.0085 90.1259 32.9104 90.7869C32.8093 91.4615 33.1367 92.2386 33.7787 92.4842C34.7134 92.8409 35.57 91.7849 35.6516 91.6809C35.8092 91.4815 36.1825 91.0072 36.0648 90.4686Z" fill="#B2946F" stroke="#761E19" stroke-width="0.427214" stroke-miterlimit="10"/>
<path d="M34.2335 90.5618C34.1073 90.6036 34.0573 90.8235 34.1057 90.9856C34.1486 91.1305 34.2917 91.2947 34.4298 91.2644C34.5638 91.2343 34.6313 91.0332 34.606 90.8835C34.571 90.689 34.3695 90.5166 34.2335 90.5618Z" fill="#761E19"/>
<path d="M43.059 82.2005C42.9949 83.0748 43.646 83.7638 44.1974 84.0756C44.3682 84.1724 45.1377 84.6073 45.9136 84.2538C46.8719 83.8165 46.9206 82.5957 46.9217 82.5307C46.9425 81.6706 46.4072 80.6152 45.3911 80.4096C44.2565 80.179 43.1377 81.132 43.059 82.2005Z" fill="#B2946F" stroke="#761E19" stroke-width="0.427214" stroke-miterlimit="10"/>
<path d="M44.332 82.0648C44.2696 82.308 44.4852 82.585 44.7451 82.6185C44.9041 82.6394 45.0928 82.5702 45.1845 82.411C45.3037 82.2048 45.2143 81.9236 45.0219 81.806C44.7738 81.6551 44.3995 81.8025 44.332 82.0648Z" fill="#761E19"/>
<path d="M42.3568 88.9955C41.5315 88.7431 40.0215 90.3201 40.2397 91.4974C40.2574 91.5913 40.3582 92.0763 40.7515 92.2872C41.212 92.5345 41.7693 92.2429 42.0147 92.114C42.1985 92.0176 42.7823 91.7127 43.0076 91.0394C43.2852 90.2168 42.9159 89.1665 42.3568 88.9955Z" fill="#B2946F" stroke="#761E19" stroke-width="0.427214" stroke-miterlimit="10"/>
<path d="M41.7629 90.1724C41.5349 90.0786 41.1975 90.3421 41.2269 90.5752C41.2457 90.7211 41.4067 90.8494 41.579 90.8615C41.7112 90.8711 41.8671 90.8122 41.9386 90.6775C42.036 90.4893 41.9248 90.2389 41.7629 90.1724Z" fill="#761E19"/>
<path d="M33.5942 96.1306C33.4395 95.4202 32.4971 94.9016 31.6649 95.1019C31.045 95.2515 30.5378 95.7879 30.4396 96.449C30.3385 97.1236 30.666 97.9007 31.308 98.1462C32.2427 98.5029 33.0993 97.4469 33.1809 97.3429C33.3384 97.1435 33.7111 96.6697 33.5942 96.1306Z" fill="#B2946F" stroke="#761E19" stroke-width="0.427214" stroke-miterlimit="10"/>
<path d="M31.7609 96.2239C31.6347 96.2657 31.5846 96.4857 31.6331 96.6477C31.6759 96.7926 31.8191 96.9569 31.9572 96.9265C32.0911 96.8964 32.1586 96.6953 32.1334 96.5456C32.0996 96.3515 31.8981 96.179 31.7609 96.2239Z" fill="#761E19"/>
<path d="M24.3217 101.083C24.2576 101.958 24.9087 102.647 25.4601 102.958C25.6309 103.055 26.4004 103.49 27.1763 103.137C28.1346 102.699 28.1833 101.479 28.1844 101.414C28.2052 100.553 27.6699 99.498 26.6538 99.2924C25.5192 99.0618 24.4004 100.015 24.3217 101.083Z" fill="#B2946F" stroke="#761E19" stroke-width="0.427214" stroke-miterlimit="10"/>
<path d="M25.5947 100.948C25.5323 101.191 25.7479 101.468 26.0077 101.501C26.1668 101.522 26.3555 101.453 26.4472 101.294C26.5664 101.088 26.477 100.806 26.2846 100.689C26.0365 100.538 25.663 100.685 25.5947 100.948Z" fill="#761E19"/>
<path d="M42.3568 88.9955C41.5315 88.7431 40.0215 90.3201 40.2397 91.4974C40.2574 91.5913 40.3582 92.0763 40.7515 92.2872C41.212 92.5345 41.7693 92.2429 42.0147 92.114C42.1985 92.0176 42.7823 91.7127 43.0076 91.0394C43.2852 90.2168 42.9159 89.1665 42.3568 88.9955Z" fill="#B2946F" stroke="#761E19" stroke-width="0.427214" stroke-miterlimit="10"/>
<path d="M41.7629 90.1724C41.5349 90.0786 41.1975 90.3421 41.2269 90.5752C41.2457 90.7211 41.4067 90.8494 41.579 90.8615C41.7112 90.8711 41.8671 90.8122 41.9386 90.6775C42.036 90.4893 41.9248 90.2389 41.7629 90.1724Z" fill="#761E19"/>
<path d="M64.9979 81.7069C64.8432 80.9964 63.9008 80.4778 63.0686 80.6781C62.4487 80.8277 61.9416 81.3641 61.8435 82.0252C61.7424 82.6997 62.0698 83.4769 62.7118 83.7225C63.6465 84.0792 64.5031 83.0232 64.5847 82.9191C64.7418 82.719 65.1157 82.2455 64.9979 81.7069Z" fill="#B2946F" stroke="#761E19" stroke-width="0.427214" stroke-miterlimit="10"/>
<path d="M63.1647 81.7981C63.0385 81.8399 62.9884 82.0599 63.0369 82.222C63.0798 82.3668 63.2229 82.5311 63.361 82.5007C63.495 82.4706 63.5625 82.2695 63.5372 82.1198C63.5022 81.9253 63.3007 81.7529 63.1647 81.7981Z" fill="#761E19"/>
<path d="M33.8666 99.9798C33.8025 100.854 34.4536 101.543 35.005 101.855C35.1758 101.952 35.9453 102.387 36.7212 102.033C37.6795 101.596 37.7282 100.375 37.7293 100.31C37.7501 99.4499 37.2149 98.3945 36.1988 98.1889C35.0642 97.9583 33.9453 98.9113 33.8666 99.9798Z" fill="#B2946F" stroke="#761E19" stroke-width="0.427214" stroke-miterlimit="10"/>
<path d="M35.1394 99.8437C35.077 100.087 35.2927 100.364 35.5525 100.398C35.7116 100.418 35.9003 100.349 35.9919 100.19C36.1111 99.9838 36.0218 99.7025 35.8294 99.5849C35.5804 99.4345 35.2074 99.5822 35.1394 99.8437Z" fill="#761E19"/>
<path d="M42.3568 88.9955C41.5315 88.7431 40.0215 90.3201 40.2397 91.4974C40.2574 91.5913 40.3582 92.0763 40.7515 92.2872C41.212 92.5345 41.7693 92.2429 42.0147 92.114C42.1985 92.0176 42.7823 91.7127 43.0076 91.0394C43.2852 90.2168 42.9159 89.1665 42.3568 88.9955Z" fill="#B2946F" stroke="#761E19" stroke-width="0.427214" stroke-miterlimit="10"/>
<path d="M41.7629 90.1724C41.5349 90.0786 41.1975 90.3421 41.2269 90.5752C41.2457 90.7211 41.4067 90.8494 41.579 90.8615C41.7112 90.8711 41.8671 90.8122 41.9386 90.6775C42.036 90.4893 41.9248 90.2389 41.7629 90.1724Z" fill="#761E19"/>
<path d="M23.2426 99.8886C23.0879 99.1781 22.1455 98.6594 21.3133 98.8597C20.6934 99.0093 20.1863 99.5458 20.0881 100.207C19.987 100.881 20.3144 101.659 20.9564 101.904C21.8912 102.261 22.7477 101.205 22.8294 101.101C22.9869 100.901 23.3595 100.428 23.2426 99.8886Z" fill="#B2946F" stroke="#761E19" stroke-width="0.427214" stroke-miterlimit="10"/>
<path d="M21.4103 99.9798C21.2841 100.022 21.234 100.242 21.2825 100.404C21.3253 100.548 21.4685 100.713 21.6066 100.682C21.7406 100.652 21.808 100.451 21.7828 100.302C21.7485 100.107 21.5471 99.9341 21.4103 99.9798Z" fill="#761E19"/>
<path d="M27.6881 99.5133C27.624 100.388 28.2752 101.077 28.8266 101.389C28.9973 101.485 29.7669 101.92 30.5428 101.567C31.5011 101.129 31.5498 99.9086 31.5509 99.8435C31.5717 98.9834 31.0365 97.928 30.0204 97.7224C28.8853 97.491 27.7668 98.4448 27.6881 99.5133Z" fill="#B2946F" stroke="#761E19" stroke-width="0.427214" stroke-miterlimit="10"/>
<path d="M28.9609 99.3773C28.8985 99.6205 29.1141 99.8975 29.374 99.931C29.5331 99.9519 29.7218 99.8827 29.8134 99.7235C29.9326 99.5173 29.8433 99.2361 29.6509 99.1185C29.4019 98.9681 29.0284 99.115 28.9609 99.3773Z" fill="#761E19"/>
<path d="M42.3568 88.9955C41.5315 88.7431 40.0215 90.3201 40.2397 91.4974C40.2574 91.5913 40.3582 92.0763 40.7515 92.2872C41.212 92.5345 41.7693 92.2429 42.0147 92.114C42.1985 92.0176 42.7823 91.7127 43.0076 91.0394C43.2852 90.2168 42.9159 89.1665 42.3568 88.9955Z" fill="#B2946F" stroke="#761E19" stroke-width="0.427214" stroke-miterlimit="10"/>
<path d="M41.7629 90.1724C41.5349 90.0786 41.1975 90.3421 41.2269 90.5752C41.2457 90.7211 41.4067 90.8494 41.579 90.8615C41.7112 90.8711 41.8671 90.8122 41.9386 90.6775C42.036 90.4893 41.9248 90.2389 41.7629 90.1724Z" fill="#761E19"/>
<path d="M27.0658 95.7929C26.9111 95.0824 25.9686 94.5637 25.1365 94.764C24.5166 94.9136 24.0095 95.4501 23.9113 96.1112C23.8103 96.7857 24.1377 97.5628 24.7796 97.8084C25.7144 98.1651 26.5709 97.1092 26.6525 97.0051C26.8101 96.8058 27.1827 96.3319 27.0658 95.7929Z" fill="#B2946F" stroke="#761E19" stroke-width="0.427214" stroke-miterlimit="10"/>
<path d="M25.2336 95.8841C25.1074 95.9258 25.0573 96.1458 25.1057 96.3078C25.1486 96.4527 25.2917 96.617 25.4299 96.5866C25.5638 96.5565 25.6314 96.3554 25.6061 96.2057C25.5724 96.0116 25.3704 95.8384 25.2336 95.8841Z" fill="#761E19"/>
<path d="M45.4672 95.9114C45.4031 96.7858 46.0542 97.4748 46.6056 97.7866C46.7764 97.8834 47.546 98.3182 48.3219 97.9647C49.2802 97.5274 49.3289 96.3066 49.3299 96.2416C49.3508 95.3815 48.8155 94.3261 47.7994 94.1205C46.664 93.8904 45.5451 94.8434 45.4672 95.9114Z" fill="#B2946F" stroke="#761E19" stroke-width="0.427214" stroke-miterlimit="10"/>
<path d="M46.7387 95.7757C46.6763 96.019 46.892 96.2959 47.1518 96.3294C47.311 96.3503 47.4997 96.2811 47.5913 96.1219C47.7105 95.9157 47.6212 95.6345 47.4288 95.5169C47.1806 95.366 46.8063 95.5134 46.7387 95.7757Z" fill="#761E19"/>
<path d="M42.3568 88.9955C41.5315 88.7431 40.0215 90.3201 40.2397 91.4974C40.2574 91.5913 40.3582 92.0763 40.7515 92.2872C41.212 92.5345 41.7693 92.2429 42.0147 92.114C42.1985 92.0176 42.7823 91.7127 43.0076 91.0394C43.2852 90.2168 42.9159 89.1665 42.3568 88.9955Z" fill="#B2946F" stroke="#761E19" stroke-width="0.427214" stroke-miterlimit="10"/>
<path d="M41.7629 90.1724C41.5349 90.0786 41.1975 90.3421 41.2269 90.5752C41.2457 90.7211 41.4067 90.8494 41.579 90.8615C41.7112 90.8711 41.8671 90.8122 41.9386 90.6775C42.036 90.4893 41.9248 90.2389 41.7629 90.1724Z" fill="#761E19"/>
<path d="M36.9457 93.324C36.791 92.6136 35.8486 92.0949 35.0164 92.2952C34.3965 92.4448 33.8894 92.9813 33.7912 93.6424C33.6902 94.3169 34.0175 95.0941 34.6595 95.3396C35.5943 95.6963 36.4509 94.6403 36.5325 94.5363C36.6892 94.3374 37.0626 93.863 36.9457 93.324Z" fill="#B2946F" stroke="#761E19" stroke-width="0.427214" stroke-miterlimit="10"/>
<path d="M35.1125 93.4173C34.9863 93.459 34.9361 93.679 34.9846 93.841C35.0275 93.9859 35.1706 94.1502 35.3088 94.1198C35.4427 94.0897 35.5102 93.8886 35.4849 93.739C35.4512 93.5448 35.2497 93.3724 35.1125 93.4173Z" fill="#761E19"/>
<path d="M62.2953 87.2669C62.2312 88.1412 62.8824 88.8302 63.4338 89.142C63.6045 89.2388 64.374 89.6737 65.15 89.3202C66.1082 88.8829 66.157 87.6621 66.1581 87.5971C66.1789 86.737 65.6436 85.6816 64.6276 85.4759C63.493 85.2454 62.374 86.1984 62.2953 87.2669Z" fill="#B2946F" stroke="#761E19" stroke-width="0.427214" stroke-miterlimit="10"/>
<path d="M63.5664 87.1312C63.5039 87.3744 63.7196 87.6514 63.9795 87.6849C64.1386 87.7058 64.3273 87.6366 64.4189 87.4774C64.5382 87.2711 64.4488 86.9899 64.2564 86.8723C64.0083 86.7215 63.6347 86.8684 63.5664 87.1312Z" fill="#761E19"/>
<path d="M42.3568 88.9955C41.5315 88.7431 40.0215 90.3201 40.2397 91.4974C40.2574 91.5913 40.3582 92.0763 40.7515 92.2872C41.212 92.5345 41.7693 92.2429 42.0147 92.114C42.1985 92.0176 42.7823 91.7127 43.0076 91.0394C43.2852 90.2168 42.9159 89.1665 42.3568 88.9955Z" fill="#B2946F" stroke="#761E19" stroke-width="0.427214" stroke-miterlimit="10"/>
<path d="M41.7629 90.1724C41.5349 90.0786 41.1975 90.3421 41.2269 90.5752C41.2457 90.7211 41.4067 90.8494 41.579 90.8615C41.7112 90.8711 41.8671 90.8122 41.9386 90.6775C42.036 90.4893 41.9248 90.2389 41.7629 90.1724Z" fill="#761E19"/>
<path d="M35.0297 95.3025C34.875 94.5921 33.9326 94.0734 33.1004 94.2737C32.4805 94.4234 31.9734 94.9598 31.8752 95.6209C31.7741 96.2954 32.1015 97.0726 32.7435 97.3181C33.6783 97.6748 34.5348 96.6188 34.6165 96.5148C34.7732 96.3159 35.1466 95.8416 35.0297 95.3025Z" fill="#B2946F" stroke="#761E19" stroke-width="0.427214" stroke-miterlimit="10"/>
<path d="M33.1965 95.3958C33.0703 95.4375 33.0202 95.6576 33.0686 95.8196C33.1115 95.9645 33.2546 96.1287 33.3928 96.0983C33.5268 96.0682 33.5942 95.8672 33.569 95.7175C33.5352 95.5233 33.3337 95.3509 33.1965 95.3958Z" fill="#761E19"/>
</g>
<defs>
<clipPath id="clip0_4819_341536">
<rect width="140" height="140" fill="white"/>
</clipPath>
</defs>
</svg>
