<svg width="460" height="551" viewBox="0 0 460 551" fill="none" xmlns="http://www.w3.org/2000/svg">
<g clip-path="url(#clip0_3224_577153)">
<path d="M265.401 128.632C250.849 139.061 236.696 150.621 223.295 162.752C209.893 174.923 197.152 187.894 185.882 201.996C174.752 216.088 164.603 231.472 159.709 248.577C157.297 257.124 156.586 265.922 158.178 274.629C159.629 283.407 162.752 291.864 167.166 299.641C175.913 315.325 189.305 328.026 203.607 339.015C218.02 350.035 233.724 359.283 249.137 369.092C252.98 371.564 256.814 374.086 260.497 376.848C264.16 379.601 267.823 382.593 270.736 386.227C276.791 393.263 281.395 401.49 284.518 410.197C290.853 427.653 292.305 446.439 291.534 464.795C291.914 446.429 290.043 427.723 283.407 410.628C280.144 402.1 275.44 394.143 269.405 387.428C266.492 383.965 262.959 381.202 259.286 378.56C255.613 375.928 251.759 373.515 247.886 371.143C232.342 361.715 216.359 352.787 201.496 341.928C186.743 331.089 172.65 318.397 163.052 302.063C158.228 293.976 154.675 284.998 152.913 275.62C150.962 266.222 151.542 256.183 153.964 246.985C156.346 237.717 160.25 229.02 164.804 220.822C169.378 212.625 174.652 204.899 180.277 197.502C191.577 182.719 204.288 169.208 217.67 156.516C231.101 143.825 245.044 131.905 259.916 120.735L265.401 128.632Z" fill="url(#paint0_linear_3224_577153)"/>
<path d="M243.332 550.84C243.332 550.53 243.252 549.759 243.112 548.618C243.262 550.57 243.332 551.38 243.332 550.84Z" fill="url(#paint1_linear_3224_577153)"/>
<path d="M317.106 227.138V227.268L317.206 227.108L317.106 227.138Z" fill="url(#paint2_linear_3224_577153)"/>
<path d="M287.57 313.123C293.506 316.796 300.031 318.377 306.387 320.089C312.752 321.77 319.138 323.332 325.023 326.124C328.006 327.425 330.738 329.217 333.37 331.109C335.873 333.17 338.305 335.372 340.276 337.995C344.28 343.199 347.843 348.864 351.016 354.669C357.311 366.289 361.985 379.14 362.486 392.552C362.266 379.13 357.832 366.109 351.736 354.279C348.654 348.344 345.221 342.629 341.237 337.224C339.265 334.481 336.803 332.149 334.241 329.958C331.559 327.936 328.756 326.024 325.714 324.623C319.698 321.62 313.233 319.899 306.917 318.087C300.642 316.276 294.196 314.484 288.912 311.041C283.707 307.378 279.614 302.173 276.211 296.628C274.769 294.266 273.448 291.804 272.217 289.292C270.646 283.547 269.605 277.772 269.485 272.167C269.405 267.943 269.895 263.87 271.106 260.337C272.157 256.944 274.239 254.161 277.081 251.289C282.836 245.674 280.594 246.885 288.651 242.541C296.778 238.188 308.539 231.942 317.116 227.258C325.664 222.494 341.357 213.736 349.424 205.829C353.398 201.856 357.221 196.962 359.703 190.826C360.944 187.784 361.795 184.461 362.145 181.108C362.336 179.286 362.356 178.015 362.396 176.694C362.436 175.353 362.516 174.022 362.456 172.65C362.426 167.216 361.925 161.531 360.354 155.706C358.813 149.901 356.06 143.945 352.097 138.871C348.113 133.817 343.169 129.843 338.395 126.901C333.591 123.878 328.957 121.716 324.743 119.624C316.235 115.571 300.832 100.888 301.082 106.263L298.66 121.796C299.121 128.732 296.859 129.713 298.24 135.618C305.946 137.41 310.39 140.312 314.794 142.174C323.642 145.797 330.628 148.97 334.661 153.574C336.703 155.886 338.275 158.638 339.416 162.001C340.557 165.354 341.207 169.258 341.457 173.371C341.568 174.382 341.558 175.443 341.588 176.504C341.618 177.575 341.648 178.696 341.618 179.256C341.568 180.667 341.317 182.049 340.847 183.46C339.926 186.282 338.054 189.265 335.482 192.147C330.298 197.953 322.871 203.117 315.155 207.951C307.378 212.805 308.909 211.554 300.622 216.629C292.375 221.783 274.059 232.963 266.572 241.08C266.452 241.22 266.342 241.37 266.212 241.51C262.679 243.752 259.636 246.265 256.694 249.217C253.05 252.92 249.898 257.334 247.876 262.379C245.814 267.393 245.013 273.048 245.684 278.383C246.274 283.497 247.365 288.201 248.516 292.935C250.909 302.303 253.591 311.341 255.172 320.539C256.734 329.707 257.184 339.045 255.883 348.253C255.352 352.877 254.201 357.351 253.13 362.075C252.05 366.74 251.039 371.424 250.088 376.128C248.216 385.536 246.685 395.024 245.694 404.572C243.652 423.669 244.043 442.976 246.755 461.882C244.813 442.866 245.234 423.679 248.026 404.873C249.397 395.465 251.289 386.146 253.531 376.918C254.662 372.304 255.863 367.7 257.124 363.116C258.345 358.582 259.776 353.838 260.537 348.994C262.308 339.326 262.238 329.347 260.987 319.639C259.726 309.93 257.334 300.522 255.392 291.314C254.472 286.74 253.611 282.066 253.301 277.682C252.94 273.518 253.731 269.415 255.432 265.682C255.793 264.871 256.223 264.08 256.674 263.299C256.343 266.542 256.313 269.745 256.543 272.838C257.414 283.517 260.627 293.216 264.49 302.393C268.424 311.551 273.228 320.159 278.563 328.346C289.272 344.67 301.993 359.483 316.536 372.224C318.357 373.816 320.209 375.367 322.101 376.878C323.972 378.39 325.594 379.701 327.135 381.352C330.208 384.535 332.72 388.268 334.451 392.402C338.014 400.679 338.455 410.257 337.204 419.506C335.923 428.804 333.07 437.932 329.427 446.699C325.754 455.457 321.36 463.954 316.185 471.961C321.8 464.264 326.695 456.007 330.898 447.38C335.062 438.742 338.505 429.644 340.386 420.046C342.218 410.508 342.438 400.209 338.955 390.59C337.254 385.806 334.611 381.332 331.299 377.479C329.697 375.547 327.725 373.746 325.984 372.174C324.252 370.623 322.551 369.022 320.879 367.39C307.568 354.309 296.088 339.276 286.79 323.172C282.916 316.436 279.483 309.46 276.621 302.333C279.704 306.437 283.247 310.21 287.57 313.123Z" fill="url(#paint3_linear_3224_577153)"/>
<path d="M288.251 101.609C284.057 94.3424 280.304 103.35 275.41 99.4468L260.297 105.502C264.02 108.024 267.303 111.027 268.664 113.169C269.335 114.23 269.415 114.7 269.475 114.74C269.505 114.8 269.545 114.84 269.505 115.07C269.435 115.361 269.094 116.091 268.674 116.842C266.782 120.085 263.43 124.078 260.017 127.792C253.06 135.348 245.254 142.775 237.477 150.221C221.853 165.134 205.809 180.047 191.006 196.682C183.65 205.049 176.514 213.786 170.559 223.885C167.606 228.94 164.944 234.384 163.242 240.54C162.371 243.773 161.991 246.605 161.581 249.447C161.19 252.31 160.92 255.152 160.69 257.985C159.179 280.645 161.371 302.854 165.414 324.653C169.458 345.581 175.463 366.189 184.501 385.526C186.142 391.811 187.654 398.147 188.855 404.533C190.546 413.741 191.807 423.069 191.807 432.417C191.797 437.081 191.387 441.755 190.216 446.239C189.575 448.451 188.724 450.603 187.523 452.544C186.252 454.506 184.961 456.458 183.61 458.359C178.175 465.936 172.13 473.232 164.704 478.917C172.3 473.453 178.576 466.306 184.261 458.85C185.682 456.978 187.033 455.047 188.364 453.115C189.695 451.103 190.646 448.861 191.377 446.579C192.718 441.975 193.268 437.191 193.429 432.447C193.699 422.929 192.698 413.46 191.257 404.102C190.826 401.38 190.346 398.667 189.835 395.965C191.036 398.117 192.268 400.259 193.569 402.361C196.491 407.045 199.864 411.609 203.267 415.812C206.53 419.846 209.152 424.37 210.714 429.284C212.295 434.178 212.675 439.453 211.915 444.618C210.383 455.037 204.588 464.575 197.692 472.722C190.686 480.879 182.469 488.045 173.511 494.071C182.759 488.506 191.367 481.76 198.883 473.833C206.28 465.906 212.835 456.438 215.097 445.198C216.208 439.623 216.088 433.708 214.587 428.143C213.126 422.568 210.433 417.394 207.11 412.82C200.675 404.222 195.62 394.894 191.407 385.046C184.11 367.781 179.316 349.465 176.204 330.918C181.418 340.487 188.094 349.104 195.53 356.831C199.374 360.905 203.447 364.778 207.641 368.481C211.855 372.164 216.349 375.517 220.642 378.99C222.784 380.732 224.756 382.644 226.477 384.785C228.059 387.017 229.5 389.399 230.471 392.022C232.563 397.186 233.834 402.681 235.065 408.146C234.034 402.631 232.963 397.106 231.041 391.791C230.151 389.109 228.769 386.607 227.218 384.235C225.516 381.953 223.545 379.901 221.433 378.05C217.199 374.366 212.895 370.903 208.862 367.1C204.848 363.277 200.975 359.323 197.312 355.14C196.571 354.309 195.881 353.438 195.16 352.587C195.35 352.647 195.54 352.717 195.721 352.767C198.233 353.438 200.765 353.798 203.297 354.009C208.362 354.379 213.426 354.269 218.44 353.788L218.42 353.458C213.406 353.618 208.372 353.398 203.437 352.727C200.975 352.367 198.543 351.847 196.231 351.076C194.76 350.586 193.328 349.905 192.147 349.034C186.913 342.479 182.309 335.452 178.696 327.916C176.974 324.343 175.463 320.67 174.222 316.916C171.96 297.659 171.349 278.132 173.561 259.306C173.902 256.724 174.272 254.152 174.752 251.619C175.243 249.087 175.743 246.525 176.414 244.533C177.825 240.239 180.147 235.896 182.889 231.722C188.404 223.335 195.42 215.488 202.757 207.961C217.56 192.908 233.964 179.086 250.388 164.934C258.615 157.818 266.883 150.731 275.03 142.745C279.103 138.651 283.137 134.627 287.11 128.702C288.101 127.131 289.102 125.49 290.013 123.228C290.943 120.926 291.564 118.263 291.694 115.591C291.984 110.156 290.263 105.252 288.251 101.609Z" fill="url(#paint4_linear_3224_577153)"/>
<path d="M115.05 351.016C116.041 348.043 117.022 345.071 117.883 342.068C118.754 339.065 119.534 336.043 120.195 332.99C120.855 329.947 121.356 326.875 121.636 323.802C121.896 320.749 121.946 317.617 121.186 314.834L123.378 314.284C124.068 317.617 123.778 320.86 123.338 324.002C122.867 327.145 122.167 330.238 121.316 333.27C120.465 336.303 119.504 339.296 118.453 342.248C117.412 345.211 116.261 348.123 115.09 351.026L115.05 351.016Z" fill="#CEC2B4"/>
<path d="M62.2944 307.118C61.3736 305.666 60.6729 304.065 60.2826 302.383C60.1025 301.533 60.0224 300.672 60.0624 299.801C60.1325 298.93 60.3527 298.07 60.723 297.269L60.9632 297.389C60.5929 298.15 60.3527 298.96 60.2626 299.811C60.2025 300.662 60.2626 301.513 60.4127 302.353C60.743 304.025 61.4036 305.646 62.2944 307.118Z" fill="#CEC2B4"/>
<path d="M261.848 131.174C261.788 131.214 261.718 131.254 261.658 131.304C261.027 131.775 260.407 132.235 259.776 132.716C258.976 133.306 258.175 133.917 257.364 134.517C257.304 134.567 257.244 134.607 257.184 134.647C256.794 134.948 256.413 135.228 256.023 135.508C255.833 135.668 255.633 135.818 255.443 135.969C255.222 136.149 254.992 136.319 254.762 136.509C253.971 137.11 253.201 137.71 252.42 138.311C252.03 138.621 251.649 138.921 251.259 139.221C250.859 139.532 250.468 139.832 250.098 140.132C249.207 140.823 248.336 141.533 247.446 142.224C247.406 142.264 247.365 142.294 247.315 142.324C246.855 142.704 246.375 143.075 245.914 143.445C245.464 143.815 245.013 144.196 244.573 144.556C244.163 144.896 243.732 145.237 243.322 145.577C243.202 145.667 243.092 145.757 242.972 145.867C242.822 145.987 242.671 146.107 242.521 146.237C241.711 146.888 240.9 147.559 240.099 148.239C239.959 148.359 239.799 148.489 239.659 148.61C239.619 148.64 239.579 148.66 239.539 148.7C239.499 148.74 239.449 148.77 239.409 148.8C238.568 149.47 237.747 150.191 236.906 150.902C236.876 150.902 236.876 150.902 236.866 150.912C236.856 150.912 236.856 150.922 236.836 150.942L236.796 150.972C236.736 151.052 236.666 151.072 236.606 151.142C236.566 151.172 236.546 151.192 236.516 151.232L236.506 151.242C236.496 151.242 236.496 151.252 236.496 151.252C236.466 151.262 236.446 151.292 236.416 151.332H236.376L236.256 151.452L236.246 151.462C235.795 151.892 235.365 152.323 234.905 152.753C234.504 153.143 234.094 153.534 233.684 153.934C233.283 154.325 232.883 154.705 232.473 155.095C232.062 155.486 231.662 155.876 231.251 156.276C230.08 157.397 231.432 159.309 232.853 158.528C233.964 157.918 235.085 157.297 236.206 156.667C238.318 155.476 240.459 154.264 242.621 153.003C243.902 152.273 245.204 151.512 246.485 150.741C247.055 150.401 247.596 150.061 248.126 149.72C248.617 149.41 249.107 149.08 249.567 148.75C249.647 148.7 249.738 148.65 249.808 148.579C250.258 148.269 250.708 147.939 251.139 147.609C251.619 147.258 252.08 146.898 252.52 146.538C252.97 146.167 253.411 145.817 253.821 145.457C254.672 144.726 255.463 143.975 256.193 143.235C256.563 142.855 256.924 142.484 257.274 142.114C257.975 141.353 258.615 140.613 259.236 139.852C259.506 139.512 259.776 139.161 260.037 138.821C260.097 138.751 260.157 138.691 260.187 138.611C260.417 138.311 260.637 138.01 260.847 137.7C261.468 136.849 262.008 136.009 262.519 135.158C262.799 134.677 263.089 134.207 263.339 133.717C263.47 133.506 263.58 133.286 263.7 133.076C263.73 133.036 263.74 132.986 263.75 132.946C264.26 131.775 262.969 130.594 261.848 131.174ZM261.848 131.174C261.788 131.214 261.718 131.254 261.658 131.304C261.027 131.775 260.407 132.235 259.776 132.716C258.976 133.306 258.175 133.917 257.364 134.517C257.304 134.567 257.244 134.607 257.184 134.647C256.794 134.948 256.413 135.228 256.023 135.508C255.833 135.668 255.633 135.818 255.443 135.969C255.222 136.149 254.992 136.319 254.762 136.509C253.971 137.11 253.201 137.71 252.42 138.311C252.03 138.621 251.649 138.921 251.259 139.221C250.859 139.532 250.468 139.832 250.098 140.132C249.207 140.823 248.336 141.533 247.446 142.224C247.406 142.264 247.365 142.294 247.315 142.324C246.855 142.704 246.375 143.075 245.914 143.445C245.464 143.815 245.013 144.196 244.573 144.556C244.163 144.896 243.732 145.237 243.322 145.577C243.202 145.667 243.092 145.757 242.972 145.867C242.822 145.987 242.671 146.107 242.521 146.237C241.711 146.888 240.9 147.559 240.099 148.239C239.959 148.359 239.799 148.489 239.659 148.61C239.619 148.64 239.579 148.66 239.539 148.7C239.499 148.74 239.449 148.77 239.409 148.8C238.568 149.47 237.747 150.191 236.906 150.902C236.876 150.902 236.876 150.902 236.866 150.912C236.856 150.912 236.856 150.922 236.836 150.942L236.796 150.972C236.736 151.052 236.666 151.072 236.606 151.142C236.566 151.172 236.546 151.192 236.516 151.232L236.506 151.242C236.496 151.242 236.496 151.252 236.496 151.252C236.466 151.262 236.446 151.292 236.416 151.332H236.376L236.256 151.452L236.246 151.462C235.795 151.892 235.365 152.323 234.905 152.753C234.504 153.143 234.094 153.534 233.684 153.934C233.283 154.325 232.883 154.705 232.473 155.095C232.062 155.486 231.662 155.876 231.251 156.276C230.08 157.397 231.432 159.309 232.853 158.528C233.964 157.918 235.085 157.297 236.206 156.667C238.318 155.476 240.459 154.264 242.621 153.003C243.902 152.273 245.204 151.512 246.485 150.741C247.055 150.401 247.596 150.061 248.126 149.72C248.617 149.41 249.107 149.08 249.567 148.75C249.647 148.7 249.738 148.65 249.808 148.579C250.258 148.269 250.708 147.939 251.139 147.609C251.619 147.258 252.08 146.898 252.52 146.538C252.97 146.167 253.411 145.817 253.821 145.457C254.672 144.726 255.463 143.975 256.193 143.235C256.563 142.855 256.924 142.484 257.274 142.114C257.975 141.353 258.615 140.613 259.236 139.852C259.506 139.512 259.776 139.161 260.037 138.821C260.097 138.751 260.157 138.691 260.187 138.611C260.417 138.311 260.637 138.01 260.847 137.7C261.468 136.849 262.008 136.009 262.519 135.158C262.799 134.677 263.089 134.207 263.339 133.717C263.47 133.506 263.58 133.286 263.7 133.076C263.73 133.036 263.74 132.986 263.75 132.946C264.26 131.775 262.969 130.594 261.848 131.174ZM261.848 131.174C261.788 131.214 261.718 131.254 261.658 131.304C261.027 131.775 260.407 132.235 259.776 132.716C258.976 133.306 258.175 133.917 257.364 134.517C257.304 134.567 257.244 134.607 257.184 134.647C256.794 134.948 256.413 135.228 256.023 135.508C255.833 135.668 255.633 135.818 255.443 135.969C255.222 136.149 254.992 136.319 254.762 136.509C253.971 137.11 253.201 137.71 252.42 138.311C252.03 138.621 251.649 138.921 251.259 139.221C250.859 139.532 250.468 139.832 250.098 140.132C249.207 140.823 248.336 141.533 247.446 142.224C247.406 142.264 247.365 142.294 247.315 142.324C246.855 142.704 246.375 143.075 245.914 143.445C245.464 143.815 245.013 144.196 244.573 144.556C244.163 144.896 243.732 145.237 243.322 145.577C243.202 145.667 243.092 145.757 242.972 145.867C242.822 145.987 242.671 146.107 242.521 146.237C241.711 146.888 240.9 147.559 240.099 148.239C239.959 148.359 239.799 148.489 239.659 148.61C239.619 148.64 239.579 148.66 239.539 148.7C239.499 148.74 239.449 148.77 239.409 148.8C238.568 149.47 237.747 150.191 236.906 150.902C236.876 150.902 236.876 150.902 236.866 150.912C236.856 150.912 236.856 150.922 236.836 150.942L236.796 150.972C236.736 151.052 236.666 151.072 236.606 151.142C236.566 151.172 236.546 151.192 236.516 151.232L236.506 151.242C236.496 151.242 236.496 151.252 236.496 151.252C236.466 151.262 236.446 151.292 236.416 151.332H236.376L236.256 151.452L236.246 151.462C235.795 151.892 235.365 152.323 234.905 152.753C234.504 153.143 234.094 153.534 233.684 153.934C233.283 154.325 232.883 154.705 232.473 155.095C232.062 155.486 231.662 155.876 231.251 156.276C230.08 157.397 231.432 159.309 232.853 158.528C233.964 157.918 235.085 157.297 236.206 156.667C238.318 155.476 240.459 154.264 242.621 153.003C243.902 152.273 245.204 151.512 246.485 150.741C247.055 150.401 247.596 150.061 248.126 149.72C248.617 149.41 249.107 149.08 249.567 148.75C249.647 148.7 249.738 148.65 249.808 148.579C250.258 148.269 250.708 147.939 251.139 147.609C251.619 147.258 252.08 146.898 252.52 146.538C252.97 146.167 253.411 145.817 253.821 145.457C254.672 144.726 255.463 143.975 256.193 143.235C256.563 142.855 256.924 142.484 257.274 142.114C257.975 141.353 258.615 140.613 259.236 139.852C259.506 139.512 259.776 139.161 260.037 138.821C260.097 138.751 260.157 138.691 260.187 138.611C260.417 138.311 260.637 138.01 260.847 137.7C261.468 136.849 262.008 136.009 262.519 135.158C262.799 134.677 263.089 134.207 263.339 133.717C263.47 133.506 263.58 133.286 263.7 133.076C263.73 133.036 263.74 132.986 263.75 132.946C264.26 131.775 262.969 130.594 261.848 131.174ZM261.848 131.174C261.788 131.214 261.718 131.254 261.658 131.304C261.027 131.775 260.407 132.235 259.776 132.716C258.976 133.306 258.175 133.917 257.364 134.517C257.304 134.567 257.244 134.607 257.184 134.647C256.794 134.948 256.413 135.228 256.023 135.508C255.833 135.668 255.633 135.818 255.443 135.969C255.222 136.149 254.992 136.319 254.762 136.509C253.971 137.11 253.201 137.71 252.42 138.311C252.03 138.621 251.649 138.921 251.259 139.221C250.859 139.532 250.468 139.832 250.098 140.132C249.207 140.823 248.336 141.533 247.446 142.224C247.406 142.264 247.365 142.294 247.315 142.324C246.855 142.704 246.375 143.075 245.914 143.445C245.464 143.815 245.013 144.196 244.573 144.556C244.163 144.896 243.732 145.237 243.322 145.577C243.202 145.667 243.092 145.757 242.972 145.867C242.822 145.987 242.671 146.107 242.521 146.237C241.711 146.888 240.9 147.559 240.099 148.239C239.959 148.359 239.799 148.489 239.659 148.61C239.619 148.64 239.579 148.66 239.539 148.7C239.499 148.74 239.449 148.77 239.409 148.8C238.568 149.47 237.747 150.191 236.906 150.902C236.876 150.902 236.876 150.902 236.866 150.912C236.856 150.912 236.856 150.922 236.836 150.942L236.796 150.972C236.736 151.052 236.666 151.072 236.606 151.142C236.566 151.172 236.546 151.192 236.516 151.232L236.506 151.242C236.496 151.242 236.496 151.252 236.496 151.252C236.466 151.262 236.446 151.292 236.416 151.332H236.376L236.256 151.452L236.246 151.462C235.795 151.892 235.365 152.323 234.905 152.753C234.504 153.143 234.094 153.534 233.684 153.934C233.283 154.325 232.883 154.705 232.473 155.095C232.062 155.486 231.662 155.876 231.251 156.276C230.08 157.397 231.432 159.309 232.853 158.528C233.964 157.918 235.085 157.297 236.206 156.667C238.318 155.476 240.459 154.264 242.621 153.003C243.902 152.273 245.204 151.512 246.485 150.741C247.055 150.401 247.596 150.061 248.126 149.72C248.617 149.41 249.107 149.08 249.567 148.75C249.647 148.7 249.738 148.65 249.808 148.579C250.258 148.269 250.708 147.939 251.139 147.609C251.619 147.258 252.08 146.898 252.52 146.538C252.97 146.167 253.411 145.817 253.821 145.457C254.672 144.726 255.463 143.975 256.193 143.235C256.563 142.855 256.924 142.484 257.274 142.114C257.975 141.353 258.615 140.613 259.236 139.852C259.506 139.512 259.776 139.161 260.037 138.821C260.097 138.751 260.157 138.691 260.187 138.611C260.417 138.311 260.637 138.01 260.847 137.7C261.468 136.849 262.008 136.009 262.519 135.158C262.799 134.677 263.089 134.207 263.339 133.717C263.47 133.506 263.58 133.286 263.7 133.076C263.73 133.036 263.74 132.986 263.75 132.946C264.26 131.775 262.969 130.594 261.848 131.174ZM261.848 131.174C261.788 131.214 261.718 131.254 261.658 131.304C261.027 131.775 260.407 132.235 259.776 132.716C258.976 133.306 258.175 133.917 257.364 134.517C257.304 134.567 257.244 134.607 257.184 134.647C256.794 134.948 256.413 135.228 256.023 135.508C255.833 135.668 255.633 135.818 255.443 135.969C255.222 136.149 254.992 136.319 254.762 136.509C253.971 137.11 253.201 137.71 252.42 138.311C252.03 138.621 251.649 138.921 251.259 139.221C250.859 139.532 250.468 139.832 250.098 140.132C249.207 140.823 248.336 141.533 247.446 142.224C247.406 142.264 247.365 142.294 247.315 142.324C246.855 142.704 246.375 143.075 245.914 143.445C245.464 143.815 245.013 144.196 244.573 144.556C244.163 144.896 243.732 145.237 243.322 145.577C243.202 145.667 243.092 145.757 242.972 145.867C242.822 145.987 242.671 146.107 242.521 146.237C241.711 146.888 240.9 147.559 240.099 148.239C239.959 148.359 239.799 148.489 239.659 148.61C239.619 148.64 239.579 148.66 239.539 148.7C239.499 148.74 239.449 148.77 239.409 148.8C238.568 149.47 237.747 150.191 236.906 150.902C236.876 150.902 236.876 150.902 236.866 150.912C236.856 150.912 236.856 150.922 236.836 150.942L236.796 150.972C236.736 151.052 236.666 151.072 236.606 151.142C236.566 151.172 236.546 151.192 236.516 151.232L236.506 151.242C236.496 151.242 236.496 151.252 236.496 151.252C236.466 151.262 236.446 151.292 236.416 151.332H236.376L236.256 151.452L236.246 151.462C235.795 151.892 235.365 152.323 234.905 152.753C234.504 153.143 234.094 153.534 233.684 153.934C233.283 154.325 232.883 154.705 232.473 155.095C232.062 155.486 231.662 155.876 231.251 156.276C230.08 157.397 231.432 159.309 232.853 158.528C233.964 157.918 235.085 157.297 236.206 156.667C238.318 155.476 240.459 154.264 242.621 153.003C243.902 152.273 245.204 151.512 246.485 150.741C247.055 150.401 247.596 150.061 248.126 149.72C248.617 149.41 249.107 149.08 249.567 148.75C249.647 148.7 249.738 148.65 249.808 148.579C250.258 148.269 250.708 147.939 251.139 147.609C251.619 147.258 252.08 146.898 252.52 146.538C252.97 146.167 253.411 145.817 253.821 145.457C254.672 144.726 255.463 143.975 256.193 143.235C256.563 142.855 256.924 142.484 257.274 142.114C257.975 141.353 258.615 140.613 259.236 139.852C259.506 139.512 259.776 139.161 260.037 138.821C260.097 138.751 260.157 138.691 260.187 138.611C260.417 138.311 260.637 138.01 260.847 137.7C261.468 136.849 262.008 136.009 262.519 135.158C262.799 134.677 263.089 134.207 263.339 133.717C263.47 133.506 263.58 133.286 263.7 133.076C263.73 133.036 263.74 132.986 263.75 132.946C264.26 131.775 262.969 130.594 261.848 131.174ZM261.848 131.174C261.788 131.214 261.718 131.254 261.658 131.304C261.027 131.775 260.407 132.235 259.776 132.716C258.976 133.306 258.175 133.917 257.364 134.517C257.304 134.567 257.244 134.607 257.184 134.647C256.794 134.948 256.413 135.228 256.023 135.508C255.833 135.668 255.633 135.818 255.443 135.969C255.222 136.149 254.992 136.319 254.762 136.509C253.971 137.11 253.201 137.71 252.42 138.311C252.03 138.621 251.649 138.921 251.259 139.221C250.859 139.532 250.468 139.832 250.098 140.132C249.207 140.823 248.336 141.533 247.446 142.224C247.406 142.264 247.365 142.294 247.315 142.324C246.855 142.704 246.375 143.075 245.914 143.445C245.464 143.815 245.013 144.196 244.573 144.556C244.163 144.896 243.732 145.237 243.322 145.577C243.202 145.667 243.092 145.757 242.972 145.867C242.822 145.987 242.671 146.107 242.521 146.237C241.711 146.888 240.9 147.559 240.099 148.239C239.959 148.359 239.799 148.489 239.659 148.61C239.619 148.64 239.579 148.66 239.539 148.7C239.499 148.74 239.449 148.77 239.409 148.8C238.568 149.47 237.747 150.191 236.906 150.902C236.876 150.902 236.876 150.902 236.866 150.912C236.856 150.912 236.856 150.922 236.836 150.942L236.796 150.972C236.736 151.052 236.666 151.072 236.606 151.142C236.566 151.172 236.546 151.192 236.516 151.232L236.506 151.242C236.496 151.242 236.496 151.252 236.496 151.252C236.466 151.262 236.446 151.292 236.416 151.332H236.376L236.256 151.452L236.246 151.462C235.795 151.892 235.365 152.323 234.905 152.753C234.504 153.143 234.094 153.534 233.684 153.934C233.283 154.325 232.883 154.705 232.473 155.095C232.062 155.486 231.662 155.876 231.251 156.276C230.08 157.397 231.432 159.309 232.853 158.528C233.964 157.918 235.085 157.297 236.206 156.667C238.318 155.476 240.459 154.264 242.621 153.003C243.902 152.273 245.204 151.512 246.485 150.741C247.055 150.401 247.596 150.061 248.126 149.72C248.617 149.41 249.107 149.08 249.567 148.75C249.647 148.7 249.738 148.65 249.808 148.579C250.258 148.269 250.708 147.939 251.139 147.609C251.619 147.258 252.08 146.898 252.52 146.538C252.97 146.167 253.411 145.817 253.821 145.457C254.672 144.726 255.463 143.975 256.193 143.235C256.563 142.855 256.924 142.484 257.274 142.114C257.975 141.353 258.615 140.613 259.236 139.852C259.506 139.512 259.776 139.161 260.037 138.821C260.097 138.751 260.157 138.691 260.187 138.611C260.417 138.311 260.637 138.01 260.847 137.7C261.468 136.849 262.008 136.009 262.519 135.158C262.799 134.677 263.089 134.207 263.339 133.717C263.47 133.506 263.58 133.286 263.7 133.076C263.73 133.036 263.74 132.986 263.75 132.946C264.26 131.775 262.969 130.594 261.848 131.174ZM261.848 131.174C261.788 131.214 261.718 131.254 261.658 131.304C261.027 131.775 260.407 132.235 259.776 132.716C258.976 133.306 258.175 133.917 257.364 134.517C257.304 134.567 257.244 134.607 257.184 134.647C256.794 134.948 256.413 135.228 256.023 135.508C255.833 135.668 255.633 135.818 255.443 135.969C255.222 136.149 254.992 136.319 254.762 136.509C253.971 137.11 253.201 137.71 252.42 138.311C252.03 138.621 251.649 138.921 251.259 139.221C250.859 139.532 250.468 139.832 250.098 140.132C249.207 140.823 248.336 141.533 247.446 142.224C247.406 142.264 247.365 142.294 247.315 142.324C246.855 142.704 246.375 143.075 245.914 143.445C245.464 143.815 245.013 144.196 244.573 144.556C244.163 144.896 243.732 145.237 243.322 145.577C243.202 145.667 243.092 145.757 242.972 145.867C242.822 145.987 242.671 146.107 242.521 146.237C241.711 146.888 240.9 147.559 240.099 148.239C239.959 148.359 239.799 148.489 239.659 148.61C239.619 148.64 239.579 148.66 239.539 148.7C239.499 148.74 239.449 148.77 239.409 148.8C238.568 149.47 237.747 150.191 236.906 150.902C236.876 150.902 236.876 150.902 236.866 150.912C236.856 150.912 236.856 150.922 236.836 150.942L236.796 150.972C236.736 151.052 236.666 151.072 236.606 151.142C236.566 151.172 236.546 151.192 236.516 151.232L236.506 151.242C236.496 151.242 236.496 151.252 236.496 151.252C236.466 151.262 236.446 151.292 236.416 151.332H236.406C236.286 151.462 236.176 151.572 236.056 151.682L236.006 151.732C235.815 151.912 235.635 152.083 235.435 152.273C235.255 152.433 235.075 152.603 234.905 152.753C234.504 153.143 234.094 153.534 233.684 153.934C233.283 154.325 232.883 154.705 232.473 155.095C232.062 155.486 231.662 155.876 231.251 156.276C230.08 157.397 231.432 159.309 232.853 158.528C233.964 157.918 235.085 157.297 236.206 156.667C238.318 155.476 240.459 154.264 242.621 153.003C243.902 152.273 245.204 151.512 246.485 150.741C247.055 150.401 247.596 150.061 248.126 149.72C248.617 149.41 249.107 149.08 249.567 148.75C249.647 148.7 249.738 148.65 249.808 148.579C250.258 148.269 250.708 147.939 251.139 147.609C251.619 147.258 252.08 146.898 252.52 146.538C252.97 146.167 253.411 145.817 253.821 145.457C254.672 144.726 255.463 143.975 256.193 143.235C256.563 142.855 256.924 142.484 257.274 142.114C257.975 141.353 258.615 140.613 259.236 139.852C259.506 139.512 259.776 139.161 260.037 138.821C260.097 138.751 260.157 138.691 260.187 138.611C260.417 138.311 260.637 138.01 260.847 137.7C261.468 136.849 262.008 136.009 262.519 135.158C262.799 134.677 263.089 134.207 263.339 133.717C263.47 133.506 263.58 133.286 263.7 133.076C263.73 133.036 263.74 132.986 263.75 132.946C264.26 131.775 262.969 130.594 261.848 131.174ZM261.848 131.174C261.788 131.214 261.718 131.254 261.658 131.304C261.027 131.775 260.407 132.235 259.776 132.716C258.976 133.306 258.175 133.917 257.364 134.517C257.304 134.567 257.244 134.607 257.184 134.647C256.604 135.088 256.013 135.528 255.443 135.969C255.222 136.149 254.992 136.319 254.762 136.509C253.971 137.11 253.201 137.71 252.42 138.311C252.03 138.621 251.649 138.921 251.259 139.221C250.859 139.532 250.468 139.832 250.098 140.132C249.207 140.823 248.336 141.533 247.446 142.224C247.406 142.264 247.365 142.294 247.315 142.324C246.855 142.704 246.375 143.075 245.914 143.445C245.464 143.815 245.013 144.196 244.573 144.556C244.163 144.896 243.732 145.237 243.322 145.577C243.202 145.667 243.092 145.757 242.972 145.867C242.822 145.987 242.671 146.107 242.521 146.237C241.711 146.888 240.9 147.559 240.099 148.239C239.959 148.359 239.799 148.489 239.659 148.61C239.619 148.64 239.579 148.66 239.539 148.7C239.499 148.74 239.449 148.77 239.409 148.8C238.568 149.49 237.737 150.191 236.906 150.902C236.846 150.952 236.766 151.002 236.696 151.082C236.666 151.092 236.656 151.112 236.636 151.132C236.626 151.142 236.626 151.142 236.606 151.162C236.546 151.212 236.476 151.282 236.416 151.332C236.296 151.452 236.186 151.572 236.056 151.682L236.006 151.732C235.815 151.912 235.635 152.083 235.435 152.273C234.855 152.823 234.274 153.384 233.684 153.934C233.283 154.325 232.883 154.705 232.473 155.095C232.062 155.486 231.662 155.876 231.251 156.276C228.729 158.668 226.187 161.09 223.645 163.533C226.637 161.921 229.72 160.26 232.853 158.518C233.964 157.908 235.085 157.287 236.206 156.657C238.318 155.476 240.459 154.264 242.621 152.993C243.902 152.263 245.204 151.502 246.485 150.731C247.055 150.391 247.596 150.051 248.126 149.71C248.617 149.4 249.107 149.07 249.567 148.74C249.647 148.69 249.738 148.64 249.808 148.569C250.258 148.259 250.708 147.929 251.139 147.599C251.619 147.248 252.08 146.888 252.52 146.528C252.97 146.157 253.411 145.807 253.821 145.447C254.662 144.726 255.443 143.986 256.193 143.225C256.563 142.845 256.924 142.474 257.274 142.104C257.985 141.343 258.625 140.603 259.236 139.842C259.506 139.502 259.776 139.151 260.037 138.811C260.097 138.741 260.157 138.681 260.187 138.601C260.417 138.301 260.637 138 260.847 137.69C261.468 136.839 262.008 135.999 262.519 135.148C262.799 134.667 263.089 134.197 263.339 133.707C263.47 133.496 263.58 133.276 263.7 133.066C263.73 133.026 263.74 132.976 263.75 132.936C264.641 131.284 265.361 129.663 265.992 128.122C264.611 129.143 263.229 130.153 261.848 131.174ZM453.995 352.637C454.056 352.887 454.136 353.138 454.226 353.388C454.866 355.56 455.807 357.682 456.898 359.663C457.448 360.684 458.029 361.635 458.63 362.636C459.06 363.367 459.54 364.097 459.871 364.858C459.57 364.057 459.08 363.297 458.7 362.566C458.149 361.615 457.549 360.614 457.038 359.593C455.997 357.582 455.116 355.49 454.496 353.318C453.255 349.104 453.155 344.64 453.815 340.377C455.247 332.61 456.508 324.813 457.268 316.936C457.679 312.372 458.019 307.808 457.979 303.174C457.979 300.862 457.889 298.54 457.629 296.198V295.998C458.439 282.947 454.256 271.046 438.952 266.002C421.107 260.157 393.303 261.288 367.1 263.67C365.618 263.8 365.008 261.788 366.299 261.037C368.901 259.536 371.614 258.175 374.366 256.944C381.172 253.791 388.408 251.519 395.715 249.527C395.805 249.497 395.935 249.457 396.035 249.437C397.436 249.307 398.807 249.197 400.169 249.197C402.481 249.197 404.763 249.437 407.045 249.828C411.518 250.718 416.002 252.44 419.525 255.523C416.153 252.28 411.679 250.328 407.175 249.207C405.033 248.747 402.881 248.446 400.689 248.316C406.404 246.955 412.139 245.744 417.904 244.773C425.371 243.552 432.897 242.521 440.454 241.961C432.897 242.261 425.331 242.992 417.774 243.953C410.247 244.903 402.751 246.205 395.314 247.916C387.888 249.648 380.531 251.699 373.425 254.642C367.19 257.204 361.105 260.347 355.64 264.581C355.45 264.741 355.199 264.831 354.959 264.851C347.363 265.651 340.086 266.442 333.4 267.123C332.239 267.243 331.459 265.942 332.109 264.951C355.89 228.98 380.552 187.193 379 171.319C376.128 141.623 350.996 125.65 328.686 106.303C328.246 105.922 327.826 105.542 327.395 105.152C317.997 96.4241 320.169 82.5019 306.937 82.3918C303.174 82.3618 295.698 85.1142 263.88 94.3122C259.766 95.5033 241.751 121.456 236.516 126.53C235.125 127.881 233.644 129.093 232.082 130.203C222.244 137.19 209.182 140.042 192.578 147.198C179.436 152.863 164.083 161.211 146.347 176.464C102.679 214.057 49.1028 210.854 34.0497 210.263C32.0679 210.163 21.3986 211.654 52.5658 215.348C58.3108 216.038 72.7934 215.648 90.0585 212.035C91.5698 211.725 92.3905 213.766 91.0793 214.587C91.0293 214.627 90.9793 214.657 90.9292 214.687C83.763 219.171 76.4266 223.375 68.9601 227.308C64.5763 229.64 60.0923 231.792 55.5684 233.864C55.4883 233.904 55.3983 233.944 55.3082 233.954C53.2364 234.514 51.0044 234.604 48.8626 234.124C47.7116 233.884 46.6406 233.523 45.5597 233.063C44.4888 232.673 43.4879 232.002 42.3069 231.812C43.4378 232.112 44.3787 232.833 45.4296 233.333C46.4705 233.874 47.5814 234.324 48.7324 234.654C49.9035 235.025 51.1646 235.215 52.4457 235.255C50.2938 236.186 48.182 237.167 46.0301 238.067C38.2433 241.36 30.1863 243.983 22.0792 246.365C30.2564 244.243 38.4035 241.861 46.3304 238.858C54.2473 235.846 62.0741 232.553 69.6907 228.809C70.9918 228.139 72.293 227.448 73.5941 226.818C71.2821 230.431 68.3896 233.664 65.447 236.836L60.6028 241.831C59.0314 243.522 57.2098 245.034 55.9387 246.985C57.2399 245.074 59.1115 243.582 60.6929 241.921L65.6572 237.027C68.88 233.694 72.1028 230.291 74.615 226.317V226.287C80.5402 223.305 86.4353 220.162 92.1703 216.829C97.1346 213.916 102.009 210.834 106.813 207.671C106.913 207.601 107.023 207.551 107.133 207.511C114.039 205.329 121.045 202.607 127.861 199.214C129.243 198.523 130.544 200.285 129.473 201.426C129.353 201.556 129.243 201.676 129.122 201.806C128.852 202.096 128.582 202.366 128.312 202.657C127.071 203.948 128.882 205.889 130.203 204.698C130.504 204.438 130.814 204.158 131.104 203.888C135.668 199.724 140.102 195.4 144.336 190.896C145.897 189.245 147.408 187.563 148.94 185.872C149 185.802 149.07 185.742 149.15 185.692C165.324 173.721 178.435 170.619 193.158 167.686C197.552 166.785 202.076 165.935 206.87 164.834C208.432 164.463 191.817 172.771 174.642 187.583C162.411 198.143 151.292 211.704 141.203 226.938C141.023 227.208 140.753 227.418 140.432 227.498C125.489 231.542 108.254 237.697 94.6424 244.703C87.6463 248.366 80.7604 252.43 74.605 257.534C68.3095 262.559 63.195 268.874 58.7612 275.46C49.8034 288.621 42.507 302.774 33.8695 316.025C29.5658 322.641 24.9718 329.157 19.467 334.812C14.0122 340.487 7.52656 345.371 0 347.823C7.59662 345.531 14.1723 340.707 19.7372 335.162C25.3821 329.537 30.0762 323.091 34.5401 316.546C43.4378 303.384 51.0044 289.362 60.0923 276.461C62.9949 272.317 66.1276 268.394 69.6206 264.841C70.6115 263.83 72.2629 264.751 71.9527 266.132C71.9427 266.252 71.9126 266.352 71.8926 266.472C71.0119 270.526 70.6515 274.699 70.4614 278.833C70.3613 280.715 70.3313 282.596 70.3313 284.528L70.1211 284.258C67.749 286.289 65.8574 288.762 64.256 291.404C62.6746 294.056 61.3334 296.869 60.2625 299.741C59.1515 302.624 58.2407 305.566 57.4901 308.569C56.8996 311.201 56.269 313.823 56.0989 316.536C56.309 313.853 56.9596 311.201 57.6202 308.609C58.3909 305.626 59.3517 302.684 60.4827 299.841C60.7129 299.281 60.9431 298.78 61.1533 298.22L61.1633 298.21V298.2C61.1633 298.2 61.1633 298.2 61.1633 298.19C61.1633 298.19 61.1733 298.16 61.2033 298.14C62.1842 295.888 63.2951 293.706 64.5963 291.624C65.5871 290.043 66.6981 288.511 67.9492 287.14C68.7899 286.199 70.3313 286.8 70.3513 288.051C70.3813 289.122 70.4013 290.183 70.4314 291.254C70.5314 295.387 70.8617 299.521 71.0219 303.615C70.9618 299.481 70.7216 295.387 70.7216 291.254C70.6816 287.12 70.7516 282.987 71.0419 278.883C71.3422 274.749 71.7925 270.656 72.7434 266.692C73.2939 264.4 74.0245 261.998 75.1455 259.967C75.3156 259.756 75.4757 259.556 75.6659 259.356C81.8413 254.442 88.7073 250.528 95.7534 246.985C108.164 240.85 121.366 236.196 134.727 232.643C135.928 232.312 136.889 233.674 136.239 234.745C118.874 262.859 104.941 295.708 94.3422 326.104C94.3122 326.194 94.2821 326.274 94.2221 326.364C91.4096 331.179 88.3069 335.833 85.0441 340.367C80.9705 345.911 76.5967 351.236 71.8726 356.26C67.1785 361.295 61.994 365.859 56.8495 370.413L41.366 384.105L57.1498 370.773C62.4244 366.339 67.729 361.915 72.5932 356.961C77.4575 352.027 81.9814 346.732 86.2151 341.247C86.3352 341.077 86.4553 340.917 86.5854 340.747C87.5262 339.496 89.4879 340.507 88.9975 342.028C86.5254 349.735 84.2634 357.191 82.2517 364.237C82.1716 364.508 82.0215 364.748 81.8013 364.928C81.4109 365.238 81.0406 365.558 80.6302 365.839L72.8435 371.624C70.2012 373.505 67.729 375.587 64.9266 377.209L48.5022 387.488L65.1568 377.529C67.9892 375.988 70.5314 373.936 73.1737 372.114L81.1107 366.489C81.3409 366.359 81.511 366.159 81.7312 366.029C72.2129 399.728 68.0193 424.019 69.1002 424.19C71.3021 424.56 75.2455 399.258 85.4344 363.487C85.5145 363.226 85.6646 362.986 85.8748 362.806C86.8056 361.995 87.7164 361.175 88.6873 360.404L96.0737 354.089C96.1037 354.078 96.1237 354.048 96.1538 354.018C98.4458 351.776 100.658 349.374 102.9 347.072L106.293 343.539C107.464 342.378 108.304 340.967 109.345 339.706C115.25 332.69 120.135 324.653 123.528 316.025V315.955C123.528 315.945 123.538 315.945 123.538 315.925C124.999 312.302 126.17 308.589 127.041 304.736C127.491 303.114 127.531 301.423 127.831 299.801C127.981 298.15 128.382 296.488 128.382 294.807C128.382 291.474 128.572 288.131 128.052 284.828C127.391 279.043 125.92 273.408 123.357 268.084C123.167 267.673 123.167 267.193 123.367 266.802C131.725 251.159 141.373 235.715 152.583 221.253C153.384 220.232 154.995 220.772 155.045 222.074C155.305 227.688 155.676 233.313 156.206 238.918C156.266 239.599 156.336 240.239 156.426 240.92V240.93C156.436 240.94 156.436 240.96 156.436 240.97V241.01C156.987 246.565 157.717 252.08 158.638 257.614V257.624C158.638 257.634 158.648 257.655 158.648 257.675V257.745C158.918 259.456 159.189 261.168 159.509 262.889C159.559 263.159 159.539 263.44 159.429 263.69C159.029 264.641 158.658 265.591 158.278 266.542V266.582C158.278 266.592 158.268 266.612 158.268 266.622V266.632C156.867 270.025 155.505 273.398 154.204 276.821V276.861C154.204 276.871 154.194 276.891 154.194 276.901C153.834 277.742 153.524 278.563 153.203 279.403C147.398 294.487 142.244 309.9 136.779 325.003C131.274 340.116 125.009 354.939 117.813 369.282C103.4 397.917 84.964 424.97 60.7429 446.139C85.4845 425.601 104.701 398.878 119.884 370.433C127.521 356.15 134.197 341.367 140.122 326.294C140.312 325.734 140.552 325.173 140.743 324.603C140.382 328.176 140.122 331.749 139.992 335.312C139.732 342.198 139.932 349.064 140.382 355.92L140.192 356.12C140.292 356.19 140.362 356.25 140.422 356.29C140.512 357.812 140.612 359.323 140.743 360.844C141.233 366.299 141.954 371.694 142.764 377.119C142.664 377.189 142.534 377.249 142.504 377.289C142.274 377.449 142.144 377.579 142.044 377.719C141.784 377.979 141.723 378.179 141.523 378.44C141.293 378.87 141.063 379.3 140.903 379.691C140.542 380.512 140.242 381.352 139.992 382.133C139.471 383.754 139.011 385.376 138.621 386.997C137.81 390.24 137.149 393.473 136.529 396.716L132.846 416.153L134.607 409.807C134.998 408.396 136.989 408.456 137.29 409.887C137.57 411.238 137.84 412.579 138.09 413.941C138.451 415.822 138.771 417.744 139.001 419.656C139.131 421.217 139.361 422.798 139.231 424.35C139.421 422.788 139.261 421.207 139.171 419.656C139.001 417.704 138.741 415.792 138.451 413.871C137.92 410.338 137.25 406.824 136.529 403.331C136.489 403.111 136.489 402.891 136.559 402.661L138.09 397.076C139.001 393.933 139.922 390.76 140.963 387.688C141.453 386.126 142.034 384.635 142.624 383.164C142.884 382.563 143.175 381.973 143.465 381.412C145.126 391.371 147.258 401.18 150.051 410.838L150.731 410.638C146.438 394.294 143.795 377.499 142.714 360.674C142.654 359.813 142.624 358.983 142.584 358.122C144.506 359.773 146.438 361.455 148.229 363.246C149.53 364.498 150.731 365.819 151.902 367.21C153.013 368.601 154.124 370.062 154.805 371.774C154.374 369.952 153.504 368.311 152.563 366.71C151.612 365.168 150.581 363.607 149.47 362.146C147.358 359.343 145.126 356.661 142.744 354.038C142.524 353.788 142.394 353.478 142.384 353.138C141.934 338.825 142.794 324.393 146.337 310.631L146.107 310.601C149.43 301.863 152.723 293.135 156.236 284.498V284.468C156.697 283.347 157.147 282.286 157.617 281.155C158.238 279.594 158.878 278.052 159.539 276.501V276.491C160.059 275.24 160.58 274.019 161.06 272.788V272.567L161.07 272.557C161.2 272.427 161.26 272.317 161.351 272.137C162.752 278.152 164.423 284.138 166.635 289.893C168.557 294.827 170.799 299.821 173.891 304.175C173.891 304.175 173.891 304.185 173.901 304.185C175.433 306.477 177.254 308.569 179.346 310.42C177.214 308.369 175.423 306.087 173.871 303.605L173.861 303.595C173.831 303.605 173.831 303.585 173.831 303.585C171.099 299.251 169.077 294.427 167.386 289.622C165.224 283.317 163.673 276.811 162.421 270.245C162.361 269.955 162.391 269.665 162.512 269.405C167.176 258.535 172.14 247.856 177.775 237.567C181.588 230.551 185.732 223.775 190.226 217.239C192.468 213.996 194.79 210.754 197.162 207.581L200.815 202.847C202.056 201.365 203.337 200.064 204.568 198.623C204.598 198.593 204.618 198.573 204.628 198.543C214.327 188.714 226.637 181.158 239.218 174.522C239.228 174.522 239.228 174.512 239.248 174.512C239.268 174.512 239.278 174.502 239.278 174.482C239.288 174.482 239.308 174.472 239.318 174.472C239.318 174.442 239.348 174.442 239.348 174.442C240.59 173.751 241.861 173.121 243.102 172.45C252.62 167.636 262.439 163.232 272.377 159.249C273.718 158.708 274.849 160.33 273.949 161.461C259.796 179.136 221.683 188.945 201.295 224.135C180.797 259.546 190.676 302.243 201.235 335.672C201.235 335.682 201.245 335.703 201.245 335.713V335.723C201.886 337.794 202.536 339.786 203.177 341.758C204.348 345.391 205.519 348.884 206.63 352.237V352.247C206.76 352.637 206.9 353.028 207.03 353.398C207.06 353.468 207.06 353.528 207.09 353.598C208.261 357.141 209.563 361.835 210.974 367.45V367.49C211.194 368.421 211.454 369.412 211.684 370.393V370.403C220.042 404.913 231.342 468.879 238.187 510.485C238.488 512.266 241.09 511.926 240.93 510.134C237.767 474.914 232.162 422.748 223.345 379.821C223.214 379.17 223.084 378.51 222.924 377.859C222.924 377.849 222.924 377.849 222.924 377.849C222.924 377.849 222.924 377.849 222.924 377.839C221.133 369.142 219.181 360.884 217.099 353.218V353.208C217.039 353.078 216.999 352.907 216.969 352.777C216.969 352.767 216.959 352.747 216.959 352.737C216.769 352.057 216.569 351.386 216.378 350.736V350.726C215.928 349.074 215.468 347.453 214.977 345.871C214.977 345.831 214.947 345.801 214.947 345.771C193.959 276.291 205.989 244.343 219.321 226.898C222.894 222.214 229.99 217.029 238.608 211.304C239.679 210.583 241.07 211.614 240.7 212.876C240.389 213.906 240.079 214.947 239.789 215.988C237.967 222.664 236.466 229.44 235.225 236.256C234.825 238.928 234.454 241.611 234.104 244.253C234.074 244.513 233.964 244.773 233.784 244.973C230.04 249.227 227.258 254.011 225.066 259.116C222.684 264.771 221.213 270.786 220.762 276.911C220.232 283.017 220.822 289.142 221.873 295.097L225.096 312.783C227.118 324.593 228.999 336.393 230.511 348.303C230.861 351.116 231.191 353.898 231.492 356.701V356.741C231.622 357.922 231.752 359.113 231.842 360.284C231.842 360.294 231.842 360.294 231.842 360.314C232.052 362.266 232.202 364.207 232.372 366.159C232.733 372.114 233.143 378.169 232.242 384.085C233.283 378.169 233.013 372.114 232.763 366.139C232.673 364.317 232.573 362.466 232.442 360.644C232.342 359.493 232.272 358.332 232.182 357.181V357.141C231.912 354.149 231.632 351.176 231.332 348.223C230.441 339.616 229.35 331.038 228.149 322.491C228.339 322.441 228.539 322.391 228.699 322.331C228.799 322.321 228.889 322.291 228.979 322.251C229.019 322.251 229.06 322.241 229.1 322.221C229.15 322.211 229.2 322.191 229.24 322.181C229.27 322.181 229.28 322.171 229.29 322.171C229.34 322.161 229.41 322.141 229.47 322.121C229.52 322.111 229.57 322.091 229.62 322.081C229.65 322.071 229.67 322.071 229.7 322.071C229.75 322.061 229.79 322.041 229.84 322.031C229.85 322.021 229.87 322.021 229.89 322.021L229.9 322.011C229.91 322.011 229.94 322.011 229.95 322.001C229.96 322.001 229.98 322.001 229.98 322.001C230.03 321.991 230.07 321.971 230.12 321.961C230.12 321.961 230.13 321.961 230.15 321.951C230.16 321.951 230.191 321.951 230.201 321.941C230.231 321.941 230.241 321.93 230.261 321.93C230.271 321.93 230.271 321.93 230.291 321.93L230.301 321.921C230.451 321.88 230.611 321.84 230.791 321.79C231.191 322.761 231.562 323.742 231.942 324.723C232.883 327.405 233.764 330.128 234.484 332.9C235.275 335.642 235.635 338.525 236.446 341.257C235.725 338.485 235.465 335.602 234.785 332.83C234.164 330.018 233.383 327.275 232.462 324.523C230.701 319.158 228.569 313.884 226.227 308.719C226.177 308.619 226.137 308.499 226.127 308.369C224.486 297.89 222.013 287.501 223.184 277.182C223.765 271.316 225.296 265.631 227.688 260.307C228.539 258.425 229.51 256.564 230.581 254.772C231.311 253.551 233.193 254.131 233.143 255.573C233.113 256.053 233.103 256.554 233.093 257.034C232.873 260.487 233.133 264.01 233.193 267.463C233.193 267.503 233.193 267.543 233.203 267.583C233.614 271.066 233.724 274.559 234.594 277.972C234.985 279.704 235.215 281.455 235.725 283.137L237.387 288.191C238.558 291.474 239.929 294.577 241.29 297.749C244.033 304.025 247.005 310.18 249.928 316.366C252.44 321.62 254.982 326.775 257.434 332.079L257.464 332.109V332.149C257.464 332.159 257.474 332.179 257.474 332.189V332.199C259.136 335.783 260.747 339.366 262.258 343.019V343.029C263.69 346.532 265.031 350.065 266.202 353.668C268.214 360.094 269.725 366.74 269.615 373.405C269.555 376.288 269.094 379.19 268.444 382.063V382.073C268.314 382.794 268.144 383.484 267.953 384.215C267.243 387.227 266.352 390.21 265.541 393.173C261.728 406.304 258.275 419.596 256.093 433.127C253.871 446.619 252.7 460.271 252.28 473.953C251.889 487.615 252.28 501.307 253 514.969C252.41 501.307 252.15 487.615 252.7 473.953C253.291 460.331 254.592 446.719 256.944 433.257C259.316 419.826 263.029 406.704 267.073 393.633C267.823 391.031 268.634 388.408 269.385 385.766C269.385 385.756 269.395 385.726 269.395 385.716C269.605 384.995 269.785 384.305 269.935 383.584C270.786 380.311 271.406 376.968 271.577 373.455C271.837 366.459 270.406 359.533 268.444 352.958C266.842 347.603 264.861 342.438 262.749 337.354V337.264C262.749 337.254 262.739 337.234 262.739 337.224V337.214C262.208 335.993 261.708 334.872 261.178 333.651C259.716 330.188 258.185 326.745 256.654 323.302V323.282L256.644 323.272L256.614 323.262C255.372 320.479 254.141 317.737 252.87 314.954C250.098 308.739 247.305 302.524 244.783 296.248C242.241 289.893 239.669 283.777 238.818 277.202C238.087 273.969 238.067 270.626 237.747 267.363V267.233C237.777 263.91 237.577 260.597 237.917 257.274C238.198 250.588 239.308 243.923 240.479 237.297C241.851 230.721 243.482 224.165 245.434 217.73C246.455 214.507 247.456 211.304 248.607 208.131L250.008 204.288C250.108 203.998 250.288 203.748 250.548 203.597C272.287 189.455 297.039 172.67 299.751 153.284C300.662 146.728 301.182 140.813 301.483 135.558V135.548C302.183 122.327 301.383 113.409 301.743 109.896C301.743 109.886 301.753 109.856 301.753 109.826C301.753 109.816 301.753 109.786 301.763 109.776C301.763 109.726 301.763 109.676 301.773 109.606C301.783 109.596 301.783 109.576 301.783 109.556C301.813 109.505 301.813 109.425 301.813 109.375C301.873 109.075 301.943 108.855 302.033 108.685C302.063 108.645 302.063 108.635 302.073 108.605C302.103 108.565 302.113 108.525 302.133 108.505C302.133 108.505 302.143 108.495 302.163 108.475C302.163 108.475 302.193 108.465 302.203 108.445C302.203 108.445 302.203 108.415 302.233 108.415V108.404C302.313 108.244 302.443 108.144 302.634 108.184H302.664C302.674 108.184 302.694 108.194 302.704 108.194C302.934 108.274 303.284 108.465 303.645 108.845C306.867 112.008 316.976 129.673 323.202 144.716V144.756C326.034 151.562 328.046 157.848 328.346 162.011C328.937 171.039 314.204 193.028 301.683 215.748C301.893 215.648 302.574 215.278 303.685 214.647C303.835 214.557 304.035 214.427 304.235 214.317C304.555 214.117 304.916 213.926 305.306 213.686C305.736 213.446 306.167 213.176 306.647 212.886C306.887 212.745 307.138 212.595 307.398 212.455C307.458 212.415 307.528 212.375 307.588 212.335C307.738 212.245 307.908 212.155 308.068 212.065C308.168 211.995 308.279 211.935 308.389 211.885C313.263 208.972 319.909 204.909 325.253 201.155C325.444 201.025 325.644 200.885 325.844 200.735C325.854 200.735 325.874 200.725 325.894 200.695C325.924 200.685 325.934 200.665 325.954 200.655C326.094 200.555 326.264 200.435 326.414 200.325C328.967 198.493 331.128 196.791 332.54 195.33C332.57 195.3 332.58 195.29 332.6 195.26C332.69 195.18 332.77 195.1 332.83 195.02C336.013 191.697 342.138 179.426 342.528 178.666C342.538 178.636 342.538 178.626 342.538 178.626C342.538 178.586 342.538 178.586 342.538 178.556C344.73 172.5 346.091 166.875 346.252 162.051C346.522 154.885 338.044 135.598 336.373 129.543C335.833 127.571 351.426 137.75 361.115 154.585C361.115 154.585 361.115 154.615 361.145 154.615L361.155 154.625C364.147 159.909 366.599 165.754 367.79 172.18C370.553 187.143 345.681 230.631 322.971 267.543C322.741 267.923 322.341 268.154 321.9 268.194C308.529 269.295 299.441 269.205 298.64 265.982C297.469 261.418 305.606 247.616 315.435 230.911C316.155 229.71 314.884 228.309 313.653 228.919H313.643C313.633 228.919 313.633 228.929 313.613 228.929C312.792 229.39 311.942 229.84 311.071 230.301C310.46 230.631 309.85 230.971 309.229 231.292C309.049 231.382 308.869 231.492 308.689 231.582C306.997 232.473 305.296 233.383 303.594 234.294L301.933 235.195C301.583 235.375 301.232 235.565 300.892 235.755C300.542 235.956 300.191 236.136 299.851 236.316C299.231 236.646 298.61 236.966 298.02 237.307C296.038 238.358 294.116 239.389 292.325 240.339C291.344 240.88 290.433 241.36 289.552 241.831C289.432 241.901 289.322 241.961 289.222 242.011C289.102 242.061 289.002 242.131 288.902 242.191C285.038 252.34 283.207 261.588 285.319 268.644C287.881 277.111 298.85 278.963 313.953 277.942C315.074 277.862 315.805 279.123 315.215 280.084C315.084 280.284 314.974 280.474 314.854 280.675C310.29 287.991 307.258 301.172 305.366 316.646V316.656C305.266 317.336 305.176 318.047 305.106 318.758V318.768C305.106 318.778 305.106 318.778 305.106 318.798C304.125 327.265 303.464 336.343 303.124 345.501V345.511C302.954 349.444 302.854 353.378 302.794 357.271V357.281C302.243 392.732 305.476 425.531 309.149 422.458C309.41 422.218 308.168 394.494 308.759 363.407V363.397C308.819 359.904 308.889 356.37 309.019 352.817C309.019 352.807 309.019 352.807 309.019 352.787C309.379 341.678 310.04 330.548 311.071 320.359V320.349C311.131 319.699 311.211 319.028 311.281 318.377V318.367C313.013 302.393 315.835 289.082 320.309 282.566C321.43 280.895 322.581 279.203 323.742 277.492C323.962 277.161 324.313 276.951 324.693 276.901C339.105 275.04 355.92 271.667 372.354 269.135C372.454 269.124 372.565 269.125 372.675 269.125C374.807 269.295 376.968 269.455 379.09 269.715C385.125 270.476 391.141 271.627 396.646 273.879C399.418 275 402.02 276.451 404.042 278.423C406.004 280.394 407.205 283.017 406.944 285.789C406.794 288.551 405.343 291.274 404.042 293.886C404.032 293.936 404.002 293.976 403.982 294.026L401.61 297.739C401.58 297.769 401.56 297.809 401.53 297.839L398.767 301.383C384.205 318.457 365.278 331.279 349.234 347.403L349.224 347.413C349.004 347.613 348.774 347.843 348.544 348.103C347.212 349.424 345.911 350.816 344.64 352.207C340.437 356.761 336.663 362.055 334.341 367.941C333.27 370.573 332.36 373.275 331.579 376.008C331.569 376.018 331.569 376.018 331.569 376.038C330.928 378.22 330.368 380.431 329.907 382.683C329.647 383.804 329.427 384.975 329.227 386.096C327.115 398.457 326.665 411.098 327.836 423.589C328.356 429.804 329.357 436.03 330.868 442.115C330.998 442.676 331.128 443.196 331.259 443.767V443.807C331.489 444.657 331.709 445.518 331.979 446.379C333.28 450.973 334.972 455.467 336.934 459.841C339.606 465.496 342.829 470.82 345.761 476.295L354.789 492.699L345.961 476.205C343.099 470.68 339.906 465.325 337.324 459.67C335.312 455.106 333.611 450.412 332.35 445.618C332.079 444.687 331.859 443.757 331.649 442.836C331.589 442.546 331.519 442.275 331.459 441.985C330.068 435.89 329.117 429.714 328.666 423.499C327.625 411.098 328.236 398.527 330.458 386.317C330.628 385.536 330.778 384.735 330.948 383.975V383.965C331.439 381.673 331.989 379.451 332.61 377.229V377.199C333.491 374.256 334.491 371.374 335.662 368.521C337.984 362.776 341.628 357.812 345.871 353.318C347.042 352.047 348.243 350.836 349.484 349.605V349.575C349.715 349.334 349.905 349.144 350.145 348.904L350.155 348.894C358.202 340.927 367.02 333.781 375.747 326.444C376.778 325.584 378.29 326.535 377.979 327.846C377.479 329.927 377.159 332.049 376.898 334.101C376.238 339.796 376.348 345.511 376.598 351.156C376.898 356.851 377.449 362.496 378.109 368.121L379.05 376.558C379.31 379.361 379.761 382.213 379.471 385.025C379.831 382.213 379.431 379.361 379.28 376.558L378.52 368.081C378.109 363.096 377.769 358.102 377.579 353.098C377.969 354.199 378.39 355.28 378.79 356.34C379.761 358.723 380.802 361.075 381.843 363.417C382.864 365.629 383.894 367.81 384.935 370.032V370.062C384.255 377.179 383.994 384.255 383.694 391.361C383.664 392.252 383.634 393.112 383.634 394.003H383.604C383.274 395.234 382.563 396.315 381.843 397.376C381.092 398.437 380.281 399.458 379.471 400.449C377.769 402.401 376.018 404.322 374.186 406.144C376.038 404.322 377.839 402.471 379.561 400.519C380.411 399.568 381.222 398.547 382.013 397.506C382.633 396.616 383.214 395.685 383.614 394.624C383.554 397.066 383.444 399.558 383.424 402C383.424 405.533 383.324 409.106 383.774 412.65C383.384 409.106 383.554 405.533 383.624 402C383.714 398.467 383.884 394.924 384.075 391.391C384.375 386.377 384.685 381.372 385.105 376.388C385.226 374.967 387.107 374.596 387.718 375.877C387.938 376.348 388.168 376.818 388.398 377.299C390.62 381.893 392.812 386.517 394.854 391.221C396.776 395.915 399.078 400.579 399.698 405.703C399.248 400.549 397.136 395.785 395.234 391.021C393.253 386.287 391.161 381.633 389.049 376.958L382.593 363.036C381.552 360.724 380.521 358.382 379.541 356.02C378.84 354.098 377.959 352.157 377.519 350.235C377.489 350.115 377.479 350.015 377.479 349.905C377.389 344.63 377.489 339.396 378.199 334.231C378.99 328.806 380.351 323.041 384.035 319.278C389.86 314.154 395.495 308.829 400.649 302.914L403.562 299.261C403.602 299.221 403.622 299.181 403.652 299.141L406.174 295.227C406.204 295.187 406.224 295.147 406.234 295.107C407.705 292.285 409.307 289.412 409.597 285.899C409.987 282.396 408.356 278.753 406.014 276.371C403.602 273.969 400.699 272.377 397.767 271.126C395.985 270.366 394.193 269.735 392.382 269.205C390.921 268.774 391.161 266.602 392.662 266.472C407.195 265.151 420.416 265.401 430.125 269.145C437.471 271.987 442.425 276.381 445.618 281.655C445.698 281.786 445.758 281.916 445.798 282.066C446.009 282.846 446.209 283.637 446.349 284.438C446.969 288.922 446.449 293.656 445.408 298.23C443.356 307.428 438.992 315.985 434.188 324.182C429.344 332.39 423.839 340.196 418.224 347.903C412.579 355.6 406.684 363.146 401.34 371.083C406.924 363.297 413.01 355.96 418.875 348.384C421.577 344.89 424.26 341.357 426.872 337.774C427.803 336.503 429.764 337.524 429.304 339.025C426.762 347.303 424.6 355.9 424.34 356.951L433.588 328.236C433.628 328.116 433.678 327.996 433.758 327.886C434.378 326.955 435.019 326.014 435.599 325.073C440.654 316.946 445.368 308.339 447.78 298.82C447.79 298.79 447.81 298.77 447.81 298.74C448.21 297.179 450.603 270.906 453.505 289.843C454.736 297.91 449.602 315.635 447.68 323.021C447.24 324.693 448.06 325.484 448.731 323.892C450.552 319.538 454.035 305.516 456.227 302.424C456.167 304.675 455.026 314.394 454.896 316.646C454.276 325.674 453.005 334.662 451.593 343.619C450.122 352.577 448.371 361.475 446.389 370.373C444.337 379.2 442.405 388.138 439.353 396.666C442.676 388.198 444.858 379.33 447.2 370.583C447.52 369.222 447.82 367.861 448.18 366.519C448.24 368.271 448.481 369.962 448.631 371.674L449.652 379.421L451.934 394.814C453.555 405.073 455.247 415.292 457.008 425.541C455.347 415.282 453.785 405.043 452.274 394.744L450.162 379.33L449.251 371.604C449.031 369.052 448.671 366.379 448.861 363.967H448.761C449.692 360.204 450.563 356.421 451.373 352.637C451.643 351.316 453.585 351.236 453.995 352.637ZM125.189 285.229C125.78 288.371 125.609 291.544 125.72 294.757C125.72 296.338 125.399 297.92 125.259 299.521C125.039 301.102 125.039 302.724 124.619 304.245C122.036 316.816 116.151 328.686 108.064 338.705C107.083 339.956 106.233 341.387 105.122 342.538L101.839 346.112C99.6768 348.454 97.555 350.886 95.293 353.168C95.263 353.178 95.243 353.208 95.2129 353.238L88.0167 359.643C87.3361 360.244 86.6855 360.834 85.9949 361.435C93.4714 335.532 104.211 304.415 119.824 273.628C120.375 272.557 121.936 272.638 122.367 273.759C123.748 277.402 124.699 281.315 125.189 285.229ZM280.314 137.54C280.224 140.052 280.034 142.724 279.724 145.477C279.674 145.997 279.323 146.448 278.843 146.638C273.999 148.559 269.205 150.571 264.47 152.703H264.44C255.893 156.466 247.556 160.58 239.278 165.004C225.126 172.841 211.064 181.328 199.434 193.639L199.374 193.709C198.002 195.32 196.591 196.932 195.33 198.573L191.717 203.507C189.375 206.8 187.053 210.153 184.811 213.596C180.377 220.402 176.264 227.518 172.55 234.745C168.517 242.581 164.894 250.588 161.501 258.655V258.685C161.24 259.246 161.01 259.746 160.79 260.307C160.36 257.334 159.999 254.352 159.709 251.389C159.259 247.185 158.898 242.952 158.598 238.748C158.538 237.637 158.468 236.506 158.408 235.395C158.408 235.385 158.408 235.385 158.408 235.365C158.058 228.599 157.868 221.763 157.948 215.007C157.958 214.677 158.078 214.367 158.278 214.107C164.994 205.979 172.19 198.213 179.987 190.926C184.451 186.763 189.755 182.919 195.791 179.156C195.801 179.156 195.801 179.146 195.821 179.146C203.257 174.492 211.764 169.958 220.982 165.004C220.992 165.004 220.993 164.994 221.013 164.994C221.833 164.533 222.724 164.083 223.595 163.593C223.605 163.593 223.625 163.583 223.625 163.583C223.635 163.573 223.655 163.553 223.665 163.553C226.657 161.941 229.74 160.28 232.873 158.538C233.984 157.928 235.105 157.307 236.226 156.677C238.338 155.496 240.479 154.284 242.641 153.013C243.922 152.283 245.224 151.522 246.505 150.751C247.075 150.411 247.616 150.071 248.146 149.731C248.637 149.42 249.127 149.09 249.587 148.76C249.667 148.71 249.758 148.66 249.828 148.59C250.278 148.279 250.728 147.949 251.159 147.619C251.639 147.268 252.1 146.908 252.54 146.548C252.99 146.177 253.431 145.827 253.841 145.467C254.682 144.746 255.463 144.006 256.213 143.245C256.584 142.865 256.944 142.494 257.294 142.124C258.005 141.363 258.645 140.623 259.256 139.862C259.526 139.522 259.796 139.171 260.057 138.831C260.117 138.761 260.177 138.701 260.207 138.621C260.437 138.321 260.657 138.02 260.867 137.71C261.488 136.859 262.028 136.019 262.539 135.168C262.819 134.687 263.109 134.217 263.359 133.727C263.49 133.516 263.6 133.296 263.72 133.086C263.75 133.046 263.76 132.996 263.77 132.956C264.661 131.304 265.381 129.683 266.012 128.142C266.052 128.012 266.112 127.881 266.142 127.771C266.142 127.761 266.152 127.761 266.152 127.741C268.974 120.635 269.765 114.84 272.818 113.179C277.912 110.406 281.095 120.845 280.324 137.5C280.314 137.53 280.314 137.53 280.314 137.54ZM261.848 131.174C261.788 131.214 261.718 131.254 261.658 131.304C261.027 131.775 260.407 132.235 259.776 132.716C258.976 133.306 258.175 133.917 257.364 134.517C257.304 134.567 257.244 134.607 257.184 134.647C256.604 135.088 256.013 135.528 255.443 135.969C255.222 136.149 254.992 136.319 254.762 136.509C253.971 137.11 253.201 137.71 252.42 138.311C252.03 138.621 251.649 138.921 251.259 139.221C250.859 139.532 250.468 139.832 250.098 140.132C249.207 140.823 248.336 141.533 247.446 142.224C247.406 142.264 247.365 142.294 247.315 142.324C246.855 142.704 246.375 143.075 245.914 143.445C245.464 143.815 245.013 144.196 244.573 144.556C244.163 144.896 243.732 145.237 243.322 145.577C243.202 145.667 243.092 145.757 242.972 145.867C242.822 145.987 242.671 146.107 242.521 146.237C241.711 146.888 240.9 147.559 240.099 148.239C239.959 148.359 239.799 148.489 239.659 148.61C239.619 148.64 239.579 148.66 239.539 148.7C239.499 148.74 239.449 148.77 239.409 148.8C238.568 149.49 237.737 150.191 236.906 150.902C236.846 150.952 236.766 151.002 236.696 151.082C236.666 151.092 236.656 151.112 236.636 151.132C236.626 151.142 236.626 151.142 236.606 151.162C236.576 151.192 236.546 151.212 236.506 151.242C236.496 151.242 236.496 151.252 236.496 151.252C236.466 151.262 236.446 151.292 236.416 151.332H236.406C236.286 151.462 236.176 151.572 236.056 151.682L236.006 151.732C235.815 151.912 235.635 152.083 235.435 152.273C234.855 152.823 234.274 153.384 233.684 153.934C233.283 154.325 232.883 154.705 232.473 155.095C232.062 155.486 231.662 155.876 231.251 156.276C228.729 158.668 226.187 161.09 223.645 163.533C226.637 161.921 229.72 160.26 232.853 158.518C233.964 157.908 235.085 157.287 236.206 156.657C238.318 155.476 240.459 154.264 242.621 152.993C243.902 152.263 245.204 151.502 246.485 150.731C247.055 150.391 247.596 150.051 248.126 149.71C248.617 149.4 249.107 149.07 249.567 148.74C249.647 148.69 249.738 148.64 249.808 148.569C250.258 148.259 250.708 147.929 251.139 147.599C251.619 147.248 252.08 146.888 252.52 146.528C252.97 146.157 253.411 145.807 253.821 145.447C254.662 144.726 255.443 143.986 256.193 143.225C256.563 142.845 256.924 142.474 257.274 142.104C257.985 141.343 258.625 140.603 259.236 139.842C259.506 139.502 259.776 139.151 260.037 138.811C260.097 138.741 260.157 138.681 260.187 138.601C260.417 138.301 260.637 138 260.847 137.69C261.468 136.839 262.008 135.999 262.519 135.148C262.799 134.667 263.089 134.197 263.339 133.707C263.47 133.496 263.58 133.276 263.7 133.066C263.73 133.026 263.74 132.976 263.75 132.936C264.641 131.284 265.361 129.663 265.992 128.122C264.611 129.143 263.229 130.153 261.848 131.174ZM261.848 131.174C261.788 131.214 261.718 131.254 261.658 131.304C261.027 131.775 260.407 132.235 259.776 132.716C258.976 133.306 258.175 133.917 257.364 134.517C257.304 134.567 257.244 134.607 257.184 134.647C256.794 134.948 256.413 135.228 256.023 135.508C255.833 135.668 255.633 135.818 255.443 135.969C255.222 136.149 254.992 136.319 254.762 136.509C253.971 137.11 253.201 137.71 252.42 138.311C252.03 138.621 251.649 138.921 251.259 139.221C250.859 139.532 250.468 139.832 250.098 140.132C249.207 140.823 248.336 141.533 247.446 142.224C247.406 142.264 247.365 142.294 247.315 142.324C246.855 142.704 246.375 143.075 245.914 143.445C245.464 143.815 245.013 144.196 244.573 144.556C244.163 144.896 243.732 145.237 243.322 145.577C243.202 145.667 243.092 145.757 242.972 145.867C242.822 145.987 242.671 146.107 242.521 146.237C241.711 146.888 240.9 147.559 240.099 148.239C239.959 148.359 239.799 148.489 239.659 148.61C239.619 148.64 239.579 148.66 239.539 148.7C239.499 148.74 239.449 148.77 239.409 148.8C238.568 149.47 237.747 150.191 236.906 150.902C236.876 150.902 236.876 150.902 236.866 150.912C236.856 150.912 236.856 150.922 236.836 150.942L236.796 150.972C236.736 151.052 236.666 151.072 236.606 151.142C236.566 151.172 236.546 151.192 236.516 151.232L236.506 151.242C236.496 151.242 236.496 151.252 236.496 151.252C236.466 151.262 236.446 151.292 236.416 151.332H236.376L236.256 151.452L236.246 151.462C235.795 151.892 235.365 152.323 234.905 152.753C234.504 153.143 234.094 153.534 233.684 153.934C233.283 154.325 232.883 154.705 232.473 155.095C232.062 155.486 231.662 155.876 231.251 156.276C230.08 157.397 231.432 159.309 232.853 158.528C233.964 157.918 235.085 157.297 236.206 156.667C238.318 155.476 240.459 154.264 242.621 153.003C243.902 152.273 245.204 151.512 246.485 150.741C247.055 150.401 247.596 150.061 248.126 149.72C248.617 149.41 249.107 149.08 249.567 148.75C249.647 148.7 249.738 148.65 249.808 148.579C250.258 148.269 250.708 147.939 251.139 147.609C251.619 147.258 252.08 146.898 252.52 146.538C252.97 146.167 253.411 145.817 253.821 145.457C254.672 144.726 255.463 143.975 256.193 143.235C256.563 142.855 256.924 142.484 257.274 142.114C257.975 141.353 258.615 140.613 259.236 139.852C259.506 139.512 259.776 139.161 260.037 138.821C260.097 138.751 260.157 138.691 260.187 138.611C260.417 138.311 260.637 138.01 260.847 137.7C261.468 136.849 262.008 136.009 262.519 135.158C262.799 134.677 263.089 134.207 263.339 133.717C263.47 133.506 263.58 133.286 263.7 133.076C263.73 133.036 263.74 132.986 263.75 132.946C264.26 131.775 262.969 130.594 261.848 131.174ZM261.848 131.174C261.788 131.214 261.718 131.254 261.658 131.304C261.027 131.775 260.407 132.235 259.776 132.716C258.976 133.306 258.175 133.917 257.364 134.517C257.304 134.567 257.244 134.607 257.184 134.647C256.794 134.948 256.413 135.228 256.023 135.508C255.833 135.668 255.633 135.818 255.443 135.969C255.222 136.149 254.992 136.319 254.762 136.509C253.971 137.11 253.201 137.71 252.42 138.311C252.03 138.621 251.649 138.921 251.259 139.221C250.859 139.532 250.468 139.832 250.098 140.132C249.207 140.823 248.336 141.533 247.446 142.224C247.406 142.264 247.365 142.294 247.315 142.324C246.855 142.704 246.375 143.075 245.914 143.445C245.464 143.815 245.013 144.196 244.573 144.556C244.163 144.896 243.732 145.237 243.322 145.577C243.202 145.667 243.092 145.757 242.972 145.867C242.822 145.987 242.671 146.107 242.521 146.237C241.711 146.888 240.9 147.559 240.099 148.239C239.959 148.359 239.799 148.489 239.659 148.61C239.619 148.64 239.579 148.66 239.539 148.7C239.499 148.74 239.449 148.77 239.409 148.8C238.568 149.47 237.747 150.191 236.906 150.902C236.876 150.902 236.876 150.902 236.866 150.912C236.856 150.912 236.856 150.922 236.836 150.942L236.796 150.972C236.736 151.052 236.666 151.072 236.606 151.142C236.566 151.172 236.546 151.192 236.516 151.232L236.506 151.242C236.496 151.242 236.496 151.252 236.496 151.252C236.466 151.262 236.446 151.292 236.416 151.332H236.376L236.256 151.452L236.246 151.462C235.795 151.892 235.365 152.323 234.905 152.753C234.504 153.143 234.094 153.534 233.684 153.934C233.283 154.325 232.883 154.705 232.473 155.095C232.062 155.486 231.662 155.876 231.251 156.276C230.08 157.397 231.432 159.309 232.853 158.528C233.964 157.918 235.085 157.297 236.206 156.667C238.318 155.476 240.459 154.264 242.621 153.003C243.902 152.273 245.204 151.512 246.485 150.741C247.055 150.401 247.596 150.061 248.126 149.72C248.617 149.41 249.107 149.08 249.567 148.75C249.647 148.7 249.738 148.65 249.808 148.579C250.258 148.269 250.708 147.939 251.139 147.609C251.619 147.258 252.08 146.898 252.52 146.538C252.97 146.167 253.411 145.817 253.821 145.457C254.672 144.726 255.463 143.975 256.193 143.235C256.563 142.855 256.924 142.484 257.274 142.114C257.975 141.353 258.615 140.613 259.236 139.852C259.506 139.512 259.776 139.161 260.037 138.821C260.097 138.751 260.157 138.691 260.187 138.611C260.417 138.311 260.637 138.01 260.847 137.7C261.468 136.849 262.008 136.009 262.519 135.158C262.799 134.677 263.089 134.207 263.339 133.717C263.47 133.506 263.58 133.286 263.7 133.076C263.73 133.036 263.74 132.986 263.75 132.946C264.26 131.775 262.969 130.594 261.848 131.174ZM261.848 131.174C261.788 131.214 261.718 131.254 261.658 131.304C261.027 131.775 260.407 132.235 259.776 132.716C258.976 133.306 258.175 133.917 257.364 134.517C257.304 134.567 257.244 134.607 257.184 134.647C256.794 134.948 256.413 135.228 256.023 135.508C255.833 135.668 255.633 135.818 255.443 135.969C255.222 136.149 254.992 136.319 254.762 136.509C253.971 137.11 253.201 137.71 252.42 138.311C252.03 138.621 251.649 138.921 251.259 139.221C250.859 139.532 250.468 139.832 250.098 140.132C249.207 140.823 248.336 141.533 247.446 142.224C247.406 142.264 247.365 142.294 247.315 142.324C246.855 142.704 246.375 143.075 245.914 143.445C245.464 143.815 245.013 144.196 244.573 144.556C244.163 144.896 243.732 145.237 243.322 145.577C243.202 145.667 243.092 145.757 242.972 145.867C242.822 145.987 242.671 146.107 242.521 146.237C241.711 146.888 240.9 147.559 240.099 148.239C239.959 148.359 239.799 148.489 239.659 148.61C239.619 148.64 239.579 148.66 239.539 148.7C239.499 148.74 239.449 148.77 239.409 148.8C238.568 149.47 237.747 150.191 236.906 150.902C236.876 150.902 236.876 150.902 236.866 150.912C236.856 150.912 236.856 150.922 236.836 150.942L236.796 150.972C236.736 151.052 236.666 151.072 236.606 151.142C236.566 151.172 236.546 151.192 236.516 151.232L236.506 151.242C236.496 151.242 236.496 151.252 236.496 151.252C236.466 151.262 236.446 151.292 236.416 151.332H236.376L236.256 151.452L236.246 151.462C235.795 151.892 235.365 152.323 234.905 152.753C234.504 153.143 234.094 153.534 233.684 153.934C233.283 154.325 232.883 154.705 232.473 155.095C232.062 155.486 231.662 155.876 231.251 156.276C230.08 157.397 231.432 159.309 232.853 158.528C233.964 157.918 235.085 157.297 236.206 156.667C238.318 155.476 240.459 154.264 242.621 153.003C243.902 152.273 245.204 151.512 246.485 150.741C247.055 150.401 247.596 150.061 248.126 149.72C248.617 149.41 249.107 149.08 249.567 148.75C249.647 148.7 249.738 148.65 249.808 148.579C250.258 148.269 250.708 147.939 251.139 147.609C251.619 147.258 252.08 146.898 252.52 146.538C252.97 146.167 253.411 145.817 253.821 145.457C254.672 144.726 255.463 143.975 256.193 143.235C256.563 142.855 256.924 142.484 257.274 142.114C257.975 141.353 258.615 140.613 259.236 139.852C259.506 139.512 259.776 139.161 260.037 138.821C260.097 138.751 260.157 138.691 260.187 138.611C260.417 138.311 260.637 138.01 260.847 137.7C261.468 136.849 262.008 136.009 262.519 135.158C262.799 134.677 263.089 134.207 263.339 133.717C263.47 133.506 263.58 133.286 263.7 133.076C263.73 133.036 263.74 132.986 263.75 132.946C264.26 131.775 262.969 130.594 261.848 131.174ZM261.848 131.174C261.788 131.214 261.718 131.254 261.658 131.304C261.027 131.775 260.407 132.235 259.776 132.716C258.976 133.306 258.175 133.917 257.364 134.517C257.304 134.567 257.244 134.607 257.184 134.647C256.794 134.948 256.413 135.228 256.023 135.508C255.833 135.668 255.633 135.818 255.443 135.969C255.222 136.149 254.992 136.319 254.762 136.509C253.971 137.11 253.201 137.71 252.42 138.311C252.03 138.621 251.649 138.921 251.259 139.221C250.859 139.532 250.468 139.832 250.098 140.132C249.207 140.823 248.336 141.533 247.446 142.224C247.406 142.264 247.365 142.294 247.315 142.324C246.855 142.704 246.375 143.075 245.914 143.445C245.464 143.815 245.013 144.196 244.573 144.556C244.163 144.896 243.732 145.237 243.322 145.577C243.202 145.667 243.092 145.757 242.972 145.867C242.822 145.987 242.671 146.107 242.521 146.237C241.711 146.888 240.9 147.559 240.099 148.239C239.959 148.359 239.799 148.489 239.659 148.61C239.619 148.64 239.579 148.66 239.539 148.7C239.499 148.74 239.449 148.77 239.409 148.8C238.568 149.47 237.747 150.191 236.906 150.902C236.876 150.902 236.876 150.902 236.866 150.912C236.856 150.912 236.856 150.922 236.836 150.942L236.796 150.972C236.736 151.052 236.666 151.072 236.606 151.142C236.566 151.172 236.546 151.192 236.516 151.232L236.506 151.242C236.496 151.242 236.496 151.252 236.496 151.252C236.466 151.262 236.446 151.292 236.416 151.332H236.376L236.256 151.452L236.246 151.462C235.795 151.892 235.365 152.323 234.905 152.753C234.504 153.143 234.094 153.534 233.684 153.934C233.283 154.325 232.883 154.705 232.473 155.095C232.062 155.486 231.662 155.876 231.251 156.276C230.08 157.397 231.432 159.309 232.853 158.528C233.964 157.918 235.085 157.297 236.206 156.667C238.318 155.476 240.459 154.264 242.621 153.003C243.902 152.273 245.204 151.512 246.485 150.741C247.055 150.401 247.596 150.061 248.126 149.72C248.617 149.41 249.107 149.08 249.567 148.75C249.647 148.7 249.738 148.65 249.808 148.579C250.258 148.269 250.708 147.939 251.139 147.609C251.619 147.258 252.08 146.898 252.52 146.538C252.97 146.167 253.411 145.817 253.821 145.457C254.672 144.726 255.463 143.975 256.193 143.235C256.563 142.855 256.924 142.484 257.274 142.114C257.975 141.353 258.615 140.613 259.236 139.852C259.506 139.512 259.776 139.161 260.037 138.821C260.097 138.751 260.157 138.691 260.187 138.611C260.417 138.311 260.637 138.01 260.847 137.7C261.468 136.849 262.008 136.009 262.519 135.158C262.799 134.677 263.089 134.207 263.339 133.717C263.47 133.506 263.58 133.286 263.7 133.076C263.73 133.036 263.74 132.986 263.75 132.946C264.26 131.775 262.969 130.594 261.848 131.174ZM261.848 131.174C261.788 131.214 261.718 131.254 261.658 131.304C261.027 131.775 260.407 132.235 259.776 132.716C258.976 133.306 258.175 133.917 257.364 134.517C257.304 134.567 257.244 134.607 257.184 134.647C256.794 134.948 256.413 135.228 256.023 135.508C255.833 135.668 255.633 135.818 255.443 135.969C255.222 136.149 254.992 136.319 254.762 136.509C253.971 137.11 253.201 137.71 252.42 138.311C252.03 138.621 251.649 138.921 251.259 139.221C250.859 139.532 250.468 139.832 250.098 140.132C249.207 140.823 248.336 141.533 247.446 142.224C247.406 142.264 247.365 142.294 247.315 142.324C246.855 142.704 246.375 143.075 245.914 143.445C245.464 143.815 245.013 144.196 244.573 144.556C244.163 144.896 243.732 145.237 243.322 145.577C243.202 145.667 243.092 145.757 242.972 145.867C242.822 145.987 242.671 146.107 242.521 146.237C241.711 146.888 240.9 147.559 240.099 148.239C239.959 148.359 239.799 148.489 239.659 148.61C239.619 148.64 239.579 148.66 239.539 148.7C239.499 148.74 239.449 148.77 239.409 148.8C238.568 149.47 237.747 150.191 236.906 150.902C236.876 150.902 236.876 150.902 236.866 150.912C236.856 150.912 236.856 150.922 236.836 150.942L236.796 150.972C236.736 151.052 236.666 151.072 236.606 151.142C236.566 151.172 236.546 151.192 236.516 151.232L236.506 151.242C236.496 151.242 236.496 151.252 236.496 151.252C236.466 151.262 236.446 151.292 236.416 151.332H236.376L236.256 151.452L236.246 151.462C235.795 151.892 235.365 152.323 234.905 152.753C234.504 153.143 234.094 153.534 233.684 153.934C233.283 154.325 232.883 154.705 232.473 155.095C232.062 155.486 231.662 155.876 231.251 156.276C230.08 157.397 231.432 159.309 232.853 158.528C233.964 157.918 235.085 157.297 236.206 156.667C238.318 155.476 240.459 154.264 242.621 153.003C243.902 152.273 245.204 151.512 246.485 150.741C247.055 150.401 247.596 150.061 248.126 149.72C248.617 149.41 249.107 149.08 249.567 148.75C249.647 148.7 249.738 148.65 249.808 148.579C250.258 148.269 250.708 147.939 251.139 147.609C251.619 147.258 252.08 146.898 252.52 146.538C252.97 146.167 253.411 145.817 253.821 145.457C254.672 144.726 255.463 143.975 256.193 143.235C256.563 142.855 256.924 142.484 257.274 142.114C257.975 141.353 258.615 140.613 259.236 139.852C259.506 139.512 259.776 139.161 260.037 138.821C260.097 138.751 260.157 138.691 260.187 138.611C260.417 138.311 260.637 138.01 260.847 137.7C261.468 136.849 262.008 136.009 262.519 135.158C262.799 134.677 263.089 134.207 263.339 133.717C263.47 133.506 263.58 133.286 263.7 133.076C263.73 133.036 263.74 132.986 263.75 132.946C264.26 131.775 262.969 130.594 261.848 131.174ZM261.848 131.174C261.788 131.214 261.718 131.254 261.658 131.304C261.027 131.775 260.407 132.235 259.776 132.716C258.976 133.306 258.175 133.917 257.364 134.517C257.304 134.567 257.244 134.607 257.184 134.647C256.794 134.948 256.413 135.228 256.023 135.508C255.833 135.668 255.633 135.818 255.443 135.969C255.222 136.149 254.992 136.319 254.762 136.509C253.971 137.11 253.201 137.71 252.42 138.311C252.03 138.621 251.649 138.921 251.259 139.221C250.859 139.532 250.468 139.832 250.098 140.132C249.207 140.823 248.336 141.533 247.446 142.224C247.406 142.264 247.365 142.294 247.315 142.324C246.855 142.704 246.375 143.075 245.914 143.445C245.464 143.815 245.013 144.196 244.573 144.556C244.163 144.896 243.732 145.237 243.322 145.577C243.202 145.667 243.092 145.757 242.972 145.867C242.822 145.987 242.671 146.107 242.521 146.237C241.711 146.888 240.9 147.559 240.099 148.239C239.959 148.359 239.799 148.489 239.659 148.61C239.619 148.64 239.579 148.66 239.539 148.7C239.499 148.74 239.449 148.77 239.409 148.8C238.568 149.47 237.747 150.191 236.906 150.902C236.876 150.902 236.876 150.902 236.866 150.912C236.856 150.912 236.856 150.922 236.836 150.942L236.796 150.972C236.736 151.052 236.666 151.072 236.606 151.142C236.566 151.172 236.546 151.192 236.516 151.232L236.506 151.242C236.496 151.242 236.496 151.252 236.496 151.252C236.466 151.262 236.446 151.292 236.416 151.332H236.376L236.256 151.452L236.246 151.462C235.795 151.892 235.365 152.323 234.905 152.753C234.504 153.143 234.094 153.534 233.684 153.934C233.283 154.325 232.883 154.705 232.473 155.095C232.062 155.486 231.662 155.876 231.251 156.276C230.08 157.397 231.432 159.309 232.853 158.528C233.964 157.918 235.085 157.297 236.206 156.667C238.318 155.476 240.459 154.264 242.621 153.003C243.902 152.273 245.204 151.512 246.485 150.741C247.055 150.401 247.596 150.061 248.126 149.72C248.617 149.41 249.107 149.08 249.567 148.75C249.647 148.7 249.738 148.65 249.808 148.579C250.258 148.269 250.708 147.939 251.139 147.609C251.619 147.258 252.08 146.898 252.52 146.538C252.97 146.167 253.411 145.817 253.821 145.457C254.672 144.726 255.463 143.975 256.193 143.235C256.563 142.855 256.924 142.484 257.274 142.114C257.975 141.353 258.615 140.613 259.236 139.852C259.506 139.512 259.776 139.161 260.037 138.821C260.097 138.751 260.157 138.691 260.187 138.611C260.417 138.311 260.637 138.01 260.847 137.7C261.468 136.849 262.008 136.009 262.519 135.158C262.799 134.677 263.089 134.207 263.339 133.717C263.47 133.506 263.58 133.286 263.7 133.076C263.73 133.036 263.74 132.986 263.75 132.946C264.26 131.775 262.969 130.594 261.848 131.174ZM261.848 131.174C261.788 131.214 261.718 131.254 261.658 131.304C261.027 131.775 260.407 132.235 259.776 132.716C258.976 133.306 258.175 133.917 257.364 134.517C257.304 134.567 257.244 134.607 257.184 134.647C256.794 134.948 256.413 135.228 256.023 135.508C255.833 135.668 255.633 135.818 255.443 135.969C255.222 136.149 254.992 136.319 254.762 136.509C253.971 137.11 253.201 137.71 252.42 138.311C252.03 138.621 251.649 138.921 251.259 139.221C250.859 139.532 250.468 139.832 250.098 140.132C249.207 140.823 248.336 141.533 247.446 142.224C247.406 142.264 247.365 142.294 247.315 142.324C246.855 142.704 246.375 143.075 245.914 143.445C245.464 143.815 245.013 144.196 244.573 144.556C244.163 144.896 243.732 145.237 243.322 145.577C243.202 145.667 243.092 145.757 242.972 145.867C242.822 145.987 242.671 146.107 242.521 146.237C241.711 146.888 240.9 147.559 240.099 148.239C239.959 148.359 239.799 148.489 239.659 148.61C239.619 148.64 239.579 148.66 239.539 148.7C239.499 148.74 239.449 148.77 239.409 148.8C238.568 149.47 237.747 150.191 236.906 150.902C236.876 150.902 236.876 150.902 236.866 150.912C236.856 150.912 236.856 150.922 236.836 150.942L236.796 150.972C236.736 151.052 236.666 151.072 236.606 151.142C236.566 151.172 236.546 151.192 236.516 151.232L236.506 151.242C236.496 151.242 236.496 151.252 236.496 151.252C236.466 151.262 236.446 151.292 236.416 151.332H236.376L236.256 151.452L236.246 151.462C235.795 151.892 235.365 152.323 234.905 152.753C234.504 153.143 234.094 153.534 233.684 153.934C233.283 154.325 232.883 154.705 232.473 155.095C232.062 155.486 231.662 155.876 231.251 156.276C230.08 157.397 231.432 159.309 232.853 158.528C233.964 157.918 235.085 157.297 236.206 156.667C238.318 155.476 240.459 154.264 242.621 153.003C243.902 152.273 245.204 151.512 246.485 150.741C247.055 150.401 247.596 150.061 248.126 149.72C248.617 149.41 249.107 149.08 249.567 148.75C249.647 148.7 249.738 148.65 249.808 148.579C250.258 148.269 250.708 147.939 251.139 147.609C251.619 147.258 252.08 146.898 252.52 146.538C252.97 146.167 253.411 145.817 253.821 145.457C254.672 144.726 255.463 143.975 256.193 143.235C256.563 142.855 256.924 142.484 257.274 142.114C257.975 141.353 258.615 140.613 259.236 139.852C259.506 139.512 259.776 139.161 260.037 138.821C260.097 138.751 260.157 138.691 260.187 138.611C260.417 138.311 260.637 138.01 260.847 137.7C261.468 136.849 262.008 136.009 262.519 135.158C262.799 134.677 263.089 134.207 263.339 133.717C263.47 133.506 263.58 133.286 263.7 133.076C263.73 133.036 263.74 132.986 263.75 132.946C264.26 131.775 262.969 130.594 261.848 131.174Z" fill="url(#paint5_linear_3224_577153)"/>
<path d="M261.588 95.9837C261.588 95.9837 318.347 91.1294 316.436 86.9458C311.151 75.3657 305.226 25.0919 305.226 14.5727C305.226 -7.59657 291.043 1.55139 280.134 3.60318C269.234 5.66498 276.921 83.8731 261.588 95.9837Z" fill="url(#paint6_linear_3224_577153)"/>
</g>
<defs>
<linearGradient id="paint0_linear_3224_577153" x1="277.627" y1="38.9376" x2="231.179" y2="306.644" gradientUnits="userSpaceOnUse">
<stop offset="0.4119" stop-color="#7B6A58"/>
<stop offset="1" stop-color="#CEC2B4"/>
</linearGradient>
<linearGradient id="paint1_linear_3224_577153" x1="243.109" y1="549.807" x2="243.334" y2="549.807" gradientUnits="userSpaceOnUse">
<stop stop-color="#7B6A58"/>
<stop offset="0.5341" stop-color="#C6B09E"/>
</linearGradient>
<linearGradient id="paint2_linear_3224_577153" x1="317.109" y1="227.19" x2="317.208" y2="227.19" gradientUnits="userSpaceOnUse">
<stop stop-color="#7B6A58"/>
<stop offset="0.5341" stop-color="#C6B09E"/>
</linearGradient>
<linearGradient id="paint3_linear_3224_577153" x1="377.877" y1="24.1151" x2="231.336" y2="634.135" gradientUnits="userSpaceOnUse">
<stop stop-color="#7B6A58"/>
<stop offset="0.3133" stop-color="#C3AE9C"/>
<stop offset="0.8204" stop-color="#C6B09E"/>
</linearGradient>
<linearGradient id="paint4_linear_3224_577153" x1="248.539" y1="42.634" x2="171.247" y2="537.633" gradientUnits="userSpaceOnUse">
<stop stop-color="#7B6A58"/>
<stop offset="0.3422" stop-color="#C6B09E"/>
</linearGradient>
<linearGradient id="paint5_linear_3224_577153" x1="231.803" y1="0.921165" x2="230.555" y2="238.146" gradientUnits="userSpaceOnUse">
<stop offset="0.4119" stop-color="#7B6A58"/>
<stop offset="1" stop-color="#CEC2B4"/>
</linearGradient>
<linearGradient id="paint6_linear_3224_577153" x1="289.736" y1="107.488" x2="284.468" y2="-11.5084" gradientUnits="userSpaceOnUse">
<stop offset="0.4119" stop-color="#7B6A58"/>
<stop offset="0.9679" stop-color="#5A7C2E"/>
<stop offset="1" stop-color="#CEC2B4"/>
</linearGradient>
<clipPath id="clip0_3224_577153">
<rect width="459.46" height="550.52" fill="white" transform="scale(1.00087)"/>
</clipPath>
</defs>
</svg>
