<svg width="252" height="518" viewBox="0 0 252 518" fill="none" xmlns="http://www.w3.org/2000/svg">
<path d="M123.353 297.483C122.483 297.524 121.682 288.732 119.091 273.7C117.137 262.364 116.161 256.696 115.028 254.818C107.579 242.473 80.3215 239.989 60.5698 248.575C31.3035 261.297 21.2316 297.861 24.4955 323.151C25.25 329 27.7445 348.329 42.186 360.266C49.2572 366.111 51.6836 363.976 62.9983 371.365C78.5815 381.543 76.9556 387.538 92.4817 398.074C94.3638 399.351 102.177 403.203 117.803 410.908C132.709 418.257 135.218 419.179 138.961 418.885C146.268 418.314 151.81 412.724 162.895 401.542C170.317 394.057 176.212 388.11 180.586 378.302C183.431 371.922 182.7 370.482 186.136 363.388C189.845 355.727 193.21 352.216 198.623 345.004C208.82 331.417 213.919 324.624 215.273 318.295C216.725 311.512 214.276 302.905 209.377 285.69C205.652 272.599 203.789 266.053 200.705 262.103C188.606 246.606 166.705 246.778 163.937 246.841C161.361 246.899 137.386 247.712 129.598 262.45C127.127 267.125 126.336 273.104 125.04 282.885C123.866 291.747 124.052 297.45 123.353 297.483Z" fill="#808E35"/>
<path d="M123.353 297.483C122.483 297.524 121.682 288.732 119.091 273.7C117.137 262.364 116.161 256.696 115.028 254.818C107.579 242.473 80.3215 239.989 60.5698 248.575C31.3035 261.297 21.2316 297.861 24.4955 323.151C25.25 329 27.7445 348.329 42.186 360.266C49.2572 366.111 51.6836 363.976 62.9983 371.365C78.5815 381.543 76.9556 387.538 92.4817 398.074C94.3638 399.351 102.177 403.203 117.803 410.908C132.709 418.257 135.218 419.179 138.961 418.885C146.268 418.314 151.81 412.724 162.895 401.542C170.317 394.057 176.212 388.11 180.586 378.302C183.431 371.922 182.7 370.482 186.136 363.388C189.845 355.727 193.21 352.216 198.623 345.004C208.82 331.417 213.919 324.624 215.273 318.295C216.725 311.512 214.276 302.905 209.377 285.69C205.652 272.599 203.789 266.053 200.705 262.103C188.606 246.606 166.705 246.778 163.937 246.841C161.361 246.899 137.386 247.712 129.598 262.45C127.127 267.125 126.336 273.104 125.04 282.885C123.866 291.747 124.052 297.45 123.353 297.483Z" fill="url(#paint0_linear_4929_362190)"/>
<path d="M209.376 285.69C205.65 272.599 203.788 266.053 200.704 262.103C188.605 246.606 166.703 246.778 163.936 246.841C162.036 246.884 148.493 247.345 138.391 253.498C138.357 253.831 138.308 254.162 138.279 254.496C137.578 262.553 138.325 270.636 138.04 278.705C137.894 282.795 137.469 286.887 136.531 290.878C135.644 294.648 134.24 298.146 132.497 301.592C131.437 303.69 130.187 305.818 129.756 308.158C129.286 310.701 130.205 313.177 131.398 315.388C132.325 317.108 133.463 318.684 134.54 320.308C135.622 321.938 136.598 323.64 137.434 325.41C138.851 328.407 139.863 331.581 140.426 334.848C141.533 341.277 140.942 347.797 140.319 354.242C139.99 357.638 139.659 361.035 139.503 364.444C139.418 366.323 139.384 368.205 139.422 370.087C139.452 371.586 139.494 373.078 139.869 374.539C141.04 379.111 144.939 381.631 149.264 382.828C154.065 384.156 159.137 384.224 164.083 384.34C168.432 384.442 172.78 384.621 177.126 384.845C178.368 382.84 179.523 380.688 180.587 378.303C183.432 371.923 182.701 370.483 186.137 363.389C189.846 355.728 193.211 352.217 198.624 345.005C208.821 331.418 213.919 324.625 215.274 318.296C216.724 311.512 214.275 302.905 209.376 285.69Z" fill="url(#paint1_linear_4929_362190)"/>
<path d="M27.4252 337.085C35.471 334.35 44.0791 333.346 52.249 331.001C54.9416 330.229 57.5981 329.306 60.1426 328.131C62.7871 326.909 65.2246 325.387 67.593 323.698C72.726 320.037 77.5769 316.007 82.5608 312.149C85.0193 310.246 87.5108 308.384 90.0783 306.629C92.5798 304.919 95.2273 303.437 97.7158 301.711C102.045 298.707 106.052 294.952 108.609 290.294C109.834 288.065 110.697 285.625 111.024 283.096C111.348 280.588 111.152 277.998 110.69 275.52C109.731 270.37 107.509 265.512 104.608 261.172C99.4559 253.465 91.7983 246.722 82.937 243.58C75.3435 243.92 67.4959 245.565 60.5698 248.576C31.3035 261.298 21.2316 297.862 24.4955 323.152C24.8307 325.747 25.5121 331.002 27.4252 337.085Z" fill="url(#paint2_linear_4929_362190)"/>
<path d="M184.421 401.908C184.424 401.918 184.448 402.012 184.448 402.012C184.483 402.002 184.519 401.995 184.554 401.985C186.901 403.345 189.171 404.857 191.336 406.564C194.713 409.086 198.084 411.773 201.894 413.872C203.49 414.785 205.19 415.516 206.94 416.101C213.503 423.508 221.439 429.651 230.204 434.109C222.045 429.611 214.74 423.644 208.693 416.63C210.521 417.125 212.387 417.472 214.251 417.669C218.512 418.164 222.74 418.242 226.916 418.834C235.28 419.952 243.497 422.322 251.211 425.848C243.622 422.059 235.453 419.388 227.047 417.969C222.843 417.225 218.572 416.996 214.428 416.367C210.291 415.779 206.326 414.547 202.764 412.354C197.575 409.168 193.03 404.897 188.016 401.317C190.26 401.063 192.549 401.139 194.781 401.571C203.507 403.236 210.799 410.949 220.17 410.021C221.986 409.853 223.764 409.283 225.29 408.308C223.719 409.212 221.94 409.689 220.151 409.772C206.987 409.9 201.003 397.188 185.684 399.735C184.484 398.966 183.254 398.243 181.972 397.599C174.334 393.483 165.996 390.961 157.661 389.061C153.487 388.106 149.293 387.302 145.113 386.532C139.282 385.355 133.224 384.471 129.855 379.518C127.915 376.395 127.835 372.115 127.601 368.387C127.345 362.267 127.914 356.106 129.271 350.143C130.471 344.874 130.477 345.718 130.627 343.696C131.402 333.291 124.654 325.437 123.534 324.173C119.611 319.742 115.122 317.51 112.239 316.395C111.894 316.798 111.548 317.202 111.203 317.606C110.986 317.293 110.761 316.983 110.523 316.677C109.203 317.53 107.881 318.382 106.56 319.234C109.08 328.551 108.784 335.813 108.008 340.798C106.309 351.71 103.385 355.643 103.034 364.23C102.858 368.539 103.569 372.461 103.399 376.012C103.328 377.784 103.019 379.419 102.36 380.835C101.398 383.091 98.6694 385.089 97.1175 387.384C90.2184 396.997 95.1864 409.426 93.7996 420.106C92.812 427.787 88.2813 434.583 86.2551 442.143C85.1334 446.054 84.9804 450.249 85.4567 454.198C85.6258 455.789 85.8798 457.388 86.163 458.989C79.0658 471.359 69.5783 483.157 68.0814 497.794C67.5531 502.802 68.2125 507.952 70.3587 512.525C68.3766 507.908 67.8912 502.795 68.5786 497.853C70.4738 484.076 79.3871 473.22 86.6804 461.802C88.0312 468.944 89.444 476.118 86.5413 483.046C83.5705 489.332 86.5803 494.433 90.6307 499.3C86.8815 494.445 84.0028 489.274 87.1516 483.287C87.9321 481.521 88.5785 479.498 88.8957 477.58C89.8903 471.692 88.7346 465.766 87.8741 459.9C88.2233 459.333 88.5735 458.768 88.9117 458.198C91.4862 453.796 93.7095 449.157 95.0823 444.208C96.4862 439.336 96.4432 434.041 96.8784 429.108C97.757 419.477 104.185 411.794 106.483 402.305C112.998 410.838 117.187 421.255 118.319 431.965C119.971 444.027 114.88 457.477 121.67 468.581C123.84 472.17 126.678 475.197 128.715 478.74C130.71 482.233 132.021 486.541 130.543 490.474C133.811 482.072 126.335 474.787 122.537 468.08C116.358 456.794 122.058 443.864 120.812 431.745C119.968 419.068 115.17 406.773 107.182 396.816L104.118 399.392C104.475 399.8 104.819 400.22 105.164 400.64C104.044 400.442 102.853 400.232 102.853 400.232C102.012 405.521 99.433 410.654 97.2847 415.859C97.4648 411.425 97.0455 407.072 97.0985 402.655C96.9475 385.656 107.109 389.726 108.204 376.325C108.531 372.016 107.964 368.091 108.277 364.539C108.565 360.919 109.501 357.282 110.612 353.592C113.761 343.973 117.433 332.256 113.7 322.355C115.876 325.089 118.327 328.169 118.327 328.169C120.998 331.518 123.558 334.586 124.462 337.786C125.424 340.87 124.553 344.711 123.699 348.976C122.145 357.206 121.919 365.585 123.186 373.869C122.312 374.299 119.91 375.483 119.91 375.483C120.62 376.875 121.348 378.257 122.087 379.633C122.03 379.714 121.969 379.804 121.904 379.897C120.784 379.71 118.608 379.346 118.608 379.346C117.016 390.147 123.718 399.772 127.583 409.149C129.511 413.725 130.665 418.463 130.385 423.444C129.758 435.859 123.606 449.686 131.856 461.024C136.13 467.422 142.513 472.114 146.548 478.623C149.219 482.871 151.006 488.037 149.704 493.06C151.183 488.056 149.534 482.736 146.976 478.365C144.41 473.889 140.746 470.208 137.458 466.367C123.598 451.313 131.177 440.92 132.882 423.584C132.962 422.843 132.998 422.106 133.011 421.373C133.434 422.212 133.854 423.046 134.242 423.884C135.589 426.729 136.719 429.682 137.627 432.709C139.457 438.758 140.381 445.102 140.38 451.47C140.715 445.111 140.126 438.677 138.592 432.445C137.833 429.328 136.841 426.261 135.617 423.281C134.532 420.593 133.227 418.045 132.467 415.418C131.037 407.946 127.123 400.846 124.488 393.963C123.253 390.687 122.361 387.268 122.285 383.829C123.445 384.609 124.605 385.394 125.766 386.18C130.329 394.015 135.367 401.564 140.889 408.738C146.141 415.913 152.502 422.32 158.271 429.039C159.038 431.187 159.787 433.344 160.362 435.542C160.992 437.836 161.497 440.164 161.752 442.512C162.008 444.855 162.063 447.232 161.636 449.521C161.208 451.801 160.287 453.992 158.697 455.69C157.124 457.413 155.058 458.822 153.642 460.93C152.959 461.988 152.513 463.245 152.507 464.515C152.484 465.801 152.925 467.019 153.468 468.106C155.825 472.359 158.545 476.369 161.767 479.974C158.679 476.274 156.091 472.148 153.919 467.891C153.428 466.814 153.071 465.677 153.132 464.533C153.179 463.383 153.611 462.293 154.263 461.349C155.618 459.458 157.676 458.145 159.422 456.378C161.215 454.593 162.323 452.202 162.859 449.772C163.402 447.326 163.426 444.822 163.245 442.37C163.062 439.911 162.623 437.491 162.059 435.114C161.945 434.609 161.819 434.108 161.69 433.608C167.945 444.155 166.591 457.834 173.025 468.517C174.615 470.969 176.458 473.384 179.114 474.776C182.14 476.357 185.549 476.198 188.799 476.696C192.014 477.109 195.221 477.635 198.341 478.501C204.549 480.161 210.725 483.329 214.109 489.023C210.865 483.219 204.682 479.845 198.479 478.019C195.349 477.065 192.128 476.451 188.903 475.952C185.706 475.379 182.307 475.422 179.593 473.898C177.19 472.568 175.487 470.202 174.072 467.891C167.475 456.068 170.047 440.892 161.744 429.659C155.674 421.921 148.892 415.014 143.293 406.941C139.529 401.784 136.015 396.451 132.749 390.974C149.409 402.588 165.441 415.39 176.227 432.777C181.822 441.302 184.344 451.658 191.32 459.307C194.764 463.051 199.394 466.02 204.552 466.418C199.444 465.853 194.979 462.785 191.692 458.973C185.029 451.155 182.826 440.679 177.518 432.009C174.057 425.992 169.961 420.479 165.443 415.329C172.115 419.636 177.807 425.325 182.576 431.681C185.696 435.397 190.885 436.12 194.566 439.132C198.381 441.873 201.623 445.429 203.976 449.518C201.696 445.388 198.508 441.759 194.713 438.93C191.94 436.698 188.535 435.473 185.511 433.682C182.568 431.702 180.949 428.364 178.576 425.795C174.214 420.68 169.008 416.311 163.238 412.855C162.35 411.895 161.44 410.957 160.524 410.022C162.012 409.927 163.509 409.915 165.006 410.012C167.542 410.166 170.065 410.633 172.53 411.347C177.454 412.796 182.103 415.361 186.058 418.803C182.45 415.001 177.994 411.925 173.023 409.929C170.536 408.942 167.933 408.197 165.263 407.776C162.814 407.38 160.317 407.24 157.818 407.338C150.764 400.501 143.033 394.293 135.142 388.386C141.946 390.732 150.37 390.918 156.939 392.484C166.567 394.281 176.01 397.063 184.421 401.908ZM87.4478 456.69C87.3468 455.805 87.2598 454.923 87.2007 454.041C86.8885 450.18 87.1766 446.376 88.3563 442.753C89.7391 438.331 91.9685 434.21 93.8416 429.932C93.7135 432.112 93.6855 434.292 93.6285 436.4C93.3933 443.591 90.8158 450.394 87.4478 456.69Z" fill="#71554A"/>
<path d="M70.0794 395.836C77.3437 384.84 82.0785 372.152 83.8265 359.081C84.4389 354.77 84.8801 350.547 85.6716 346.51C86.7202 340.58 89.1027 334.99 92.4967 330.105C89.9262 337.655 88.6634 345.615 88.8285 353.541C88.9266 359.834 90.2153 365.787 88.075 371.671C86.1849 377.269 82.2766 382.641 80.3385 389.108C79.6641 391.278 79.2009 393.507 78.9147 395.756C78.7096 396.666 78.4144 397.557 78.0182 398.396C76.7104 401.224 73.9717 403.046 72.1216 405.646C69.1949 409.696 68.1563 414.885 68.3524 419.783C68.5055 423.017 69.0588 426.178 68.8207 429.392C69.31 426.208 69.0048 422.95 69.1029 419.778C69.284 415.153 70.5857 410.368 73.5975 406.804C75.0833 405.072 77.0175 403.687 78.6085 401.962C78.6725 404.236 78.9156 406.497 79.3618 408.706C80.3784 414.607 82.7259 421.169 79.5401 426.615C77.9221 429.156 74.6652 431.376 74.444 434.797C73.9968 438.19 74.9884 441.311 75.0734 444.415C75.5937 450.941 69.4901 455.671 68.5505 461.905C69.8493 455.6 76.1831 451.171 75.9489 444.402C75.988 441.16 75.1844 437.968 75.7397 435.013C76.224 431.668 79.2058 430.279 81.0099 427.567C84.8292 421.847 82.786 414.478 81.9535 408.277C81.0099 402.168 81.6013 395.93 83.6625 390.211C85.6156 384.494 89.632 379.537 92.1825 373.186C94.8251 367.092 93.9685 359.831 94.0816 353.547C94.3828 341.355 98.3541 329.325 105.246 319.476C105.246 319.476 104.481 318.967 104.142 318.742C104.599 318.442 105.054 318.141 105.522 317.858L101.785 311.934C101.098 312.381 100.423 312.847 99.76 313.328C99.6019 312.922 99.4338 312.493 99.2667 312.065C100.037 311.78 100.813 311.513 101.594 311.271L99.823 305.862C92.4487 308.473 85.4265 312.839 80.6307 319.196C78.1012 322.652 76.3111 326.857 73.0672 329.391C68.6666 332.952 62.9633 334.937 57.9593 337.888C56.3343 338.842 54.7624 339.9 53.2535 341.044L53.0304 341.072C53.0374 341.115 53.0404 341.159 53.0464 341.203C49.7434 343.738 46.7876 346.74 44.5123 350.304C42.8233 352.951 41.7596 355.837 40.666 358.531C38.4037 365.049 34.6625 368.224 30.1569 371.252C29.9958 371.26 29.8827 371.265 29.8827 371.265C29.8867 371.32 29.8877 371.375 29.8917 371.43C27.6153 372.947 25.1518 374.443 22.5823 376.32C13.3749 383.208 4.97989 394.756 7.97566 406.776C6.0075 397.964 10.6994 389.219 16.7119 383.06C18.7641 380.987 21.0234 379.131 23.4139 377.475C25.5131 375.984 27.7744 374.732 30.0047 373.427C30.9873 397.334 19.2104 420.94 0 435.148C20.1449 421.075 32.6613 396.908 31.9149 372.273C34.1602 370.879 36.3154 369.344 38.1555 367.329C42.3129 362.905 43.5938 356.637 46.8908 351.867C48.7008 349.217 50.922 346.997 53.3985 345.078C53.5186 348.747 53.0403 352.46 51.9387 356.003C50.9851 359.172 49.1941 362.495 48.5738 365.985C45.9202 369.728 43.4087 373.563 40.9232 377.387C36.5967 383.569 34.4803 388.337 34.9806 394.131C34.8245 394.695 34.6745 395.261 34.5013 395.821C33.4667 399.227 31.8978 402.638 31.4425 406.358C30.4419 413.634 32.4432 420.985 30.2419 428.09C32.7534 421.196 31.1304 413.569 32.4312 406.515C32.9575 403.369 34.3403 400.463 35.514 397.398C35.9053 399.069 36.4875 400.844 37.273 402.773C38.6958 406.455 40.3858 410.151 41.2494 413.955C39.3913 423.651 35.7822 433.025 30.5901 441.455C27.9245 445.824 24.8117 449.921 21.3666 453.714C17.9146 457.502 14.1073 460.972 10.0059 464.06C14.1564 461.039 18.0266 457.627 21.5497 453.884C25.0668 450.136 28.2607 446.072 31.0133 441.721C35.9382 434.008 39.5514 425.452 41.6897 416.53C41.9028 418.412 41.8678 420.323 41.4395 422.278C39.9046 429.187 33.0045 444.268 30.466 451.202C33.3117 444.324 40.8302 429.642 42.7213 422.559C42.8274 422.174 42.9144 421.792 42.9925 421.411C44.0631 425.746 45.5509 430.029 46.3454 434.37L46.2103 434.352C45.7991 437.777 45.1427 441.18 44.1861 444.501C43.2516 447.829 42.0539 451.086 40.618 454.238C37.7263 460.536 33.877 466.395 29.3103 471.637C34.0021 466.507 38.0065 460.724 41.0703 454.451C42.5922 451.312 43.88 448.055 44.9056 444.713C45.679 442.249 46.2874 439.735 46.7557 437.192C46.9848 439.498 46.9507 441.825 46.4834 444.193C45.0746 450.945 40.3809 457.129 40.9762 464.315C41.1383 466.645 41.9288 468.991 43.5147 470.73C41.9598 468.962 41.2214 466.619 41.1013 464.306C40.6541 457.076 45.4118 451.155 46.9727 444.297C47.6621 441.151 47.5751 438.048 47.1228 434.969C47.1478 434.806 47.1789 434.644 47.2029 434.48L47.0448 434.459C46.1843 429.087 44.2572 423.789 43.3316 418.469C43.6098 409.538 37.3681 401.302 37.5202 392.35C37.5322 391.449 37.6523 390.572 37.8544 389.715C37.8634 389.678 37.8714 389.641 37.8804 389.605C38.806 385.819 41.3595 382.435 43.6388 379.231C45.3378 376.842 47.0668 374.428 48.8349 372.038C49.4603 374.595 50.5278 377.071 51.0631 379.492C52.8022 387.132 50.3458 395.501 44.7745 401.112C50.7871 395.813 53.8668 387.196 52.537 379.207C52.1178 376.485 51.1602 373.966 50.749 371.473C50.6399 370.89 50.5789 370.316 50.5549 369.747C53.3806 366.026 56.3213 362.407 59.4481 359.098C64.1849 353.992 69.8512 349.767 73.9997 343.904C76.1219 340.932 77.815 337.902 79.7131 335.28C81.3541 333.018 84.3098 329.782 86.1769 327.473C86.8793 326.647 87.5847 325.824 88.2982 325.015C84.0246 331.115 81.1149 338.149 80.0693 345.512C79.3639 349.915 79.0677 354.239 78.6145 358.429C78.4403 360.188 78.2032 361.94 77.916 363.683C75.2605 368.927 74.0928 374.563 70.6938 379.37C66.9415 384.865 61.5904 389.161 56.4143 393.323C63.2103 389.049 69.6712 384.409 74.2349 377.994C72.2958 383.475 69.7952 388.758 66.7534 393.725C62.617 401.312 54.7693 407.131 53.4866 416.12C51.7565 429.191 56.5954 441.924 56.6404 454.753C56.7054 458.965 56.1842 463.183 54.8524 467.162C53.5826 471.168 51.2542 474.791 49.214 478.571C44.8765 486.021 43.2325 495.081 45.2427 503.502C43.5407 495.066 45.4309 486.242 49.9766 479.002C52.1198 475.329 54.6103 471.75 56.0902 467.602C57.6221 463.502 58.3114 459.111 58.3914 454.765C58.5655 446.039 56.8606 437.515 56.2052 429.08C54.7353 413.658 58.5607 410.622 64.9164 402.806C65.0275 408.468 65.1785 416.124 65.1785 416.124C65.2406 419.302 65.4026 427.498 65.4626 430.577C65.4907 432.172 65.4967 433.735 65.3246 435.255C65.1545 437.594 64.0118 439.818 63.6116 442.205C63.1663 446.278 63.7918 450.332 63.6347 454.367C63.6036 460.772 63.1784 467.187 62.3579 473.56C63.5086 467.238 64.27 460.834 64.6352 454.398C64.8404 451.2 64.8543 447.912 64.9354 444.769C64.9434 441.47 66.8595 438.813 67.3067 435.533C67.786 432.642 67.733 428.706 67.8701 425.778C68.0622 419.815 68.5505 404.678 68.7737 397.742C69.2039 397.132 69.6371 396.504 70.0794 395.836ZM56.1983 356.163C55.4728 357.001 54.7633 357.848 54.0659 358.707C54.313 358.144 54.5553 357.572 54.7764 356.982C56.5194 352.409 57.3168 347.462 57.1247 342.514C60.4377 340.476 64.0279 338.808 67.617 337.292C69.6422 336.382 71.7854 335.33 73.7936 334.054C72.3408 336.435 70.9839 338.856 69.6681 340.931C66.2161 346.327 60.823 350.737 56.1983 356.163Z" fill="#71554A"/>
<path d="M104.814 435.689C108.682 441.094 111.262 447.583 112.133 454.424C112.26 447.529 110.652 440.484 107.38 434.13L104.814 435.689Z" fill="#71554A"/>
<path d="M184.421 401.908C184.424 401.918 184.448 402.012 184.448 402.012C184.483 402.002 184.519 401.995 184.554 401.985C186.901 403.345 189.171 404.857 191.336 406.564C194.713 409.086 198.084 411.773 201.894 413.872C203.49 414.785 205.19 415.516 206.94 416.101C213.503 423.508 221.439 429.651 230.204 434.109C222.045 429.611 214.74 423.644 208.693 416.63C210.521 417.125 212.387 417.472 214.251 417.669C218.512 418.164 222.74 418.242 226.916 418.834C235.28 419.952 243.497 422.322 251.211 425.848C243.622 422.059 235.453 419.388 227.047 417.969C222.843 417.225 218.572 416.996 214.428 416.367C210.291 415.779 206.326 414.547 202.764 412.354C197.575 409.168 193.03 404.897 188.016 401.317C190.26 401.063 192.549 401.139 194.781 401.571C203.507 403.236 210.799 410.949 220.17 410.021C221.986 409.853 223.764 409.283 225.29 408.308C223.719 409.212 221.94 409.689 220.151 409.772C206.987 409.9 201.003 397.188 185.684 399.735C184.484 398.966 183.254 398.243 181.972 397.599C174.334 393.483 165.996 390.961 157.661 389.061C153.487 388.106 149.293 387.302 145.113 386.532C139.282 385.355 133.224 384.471 129.855 379.518C127.915 376.395 127.835 372.115 127.601 368.387C127.345 362.267 127.914 356.106 129.271 350.143C130.474 344.86 130.482 345.705 130.627 343.696C131.358 333.643 124.973 325.914 123.534 324.173C119.786 319.637 115.466 317.012 112.291 315.517C111.927 316.214 111.565 316.909 111.202 317.606C110.985 317.293 110.76 316.983 110.522 316.677C108.396 317.365 106.269 318.053 104.143 318.74C108.378 328.271 108.623 335.691 108.007 340.798C106.764 351.094 103.4 355.25 103.033 364.23C102.857 368.539 103.568 372.461 103.398 376.012C103.327 377.784 103.018 379.419 102.359 380.835C101.397 383.091 98.6684 385.089 97.1165 387.384C90.2174 396.997 95.1854 409.426 93.7986 420.106C92.811 427.787 88.2803 434.583 86.2541 442.143C85.1325 446.054 84.9794 450.249 85.4557 454.198C85.6248 455.789 85.8789 457.388 86.162 458.989C79.0648 471.359 69.5773 483.157 68.0804 497.794C67.5521 502.802 68.2115 507.952 70.3578 512.525C68.3756 507.908 67.8903 502.795 68.5777 497.853C70.4728 484.076 79.3861 473.22 86.6794 461.802C88.0302 468.944 89.443 476.118 86.5403 483.046C83.5695 489.332 86.5794 494.433 90.6298 499.3C86.8805 494.445 84.0018 489.274 87.1506 483.287C87.9311 481.521 88.5775 479.498 88.8947 477.58C89.8893 471.692 88.7336 465.766 87.8731 459.9C88.2223 459.333 88.5725 458.768 88.9107 458.198C91.4852 453.796 93.7085 449.157 95.0814 444.208C96.4852 439.336 96.4421 434.041 96.8773 429.108C97.7559 419.477 104.184 411.794 106.482 402.305C112.997 410.838 117.186 421.255 118.318 431.965C119.97 444.027 114.879 457.477 121.669 468.581C123.839 472.17 126.677 475.197 128.714 478.74C130.709 482.233 132.02 486.541 130.542 490.474C133.81 482.072 126.334 474.787 122.536 468.08C116.357 456.794 122.057 443.864 120.811 431.745C119.967 419.068 115.169 406.773 107.18 396.816L104.117 399.392C104.474 399.8 104.818 400.22 105.163 400.64C104.043 400.442 102.852 400.232 102.852 400.232C102.011 405.521 99.4319 410.654 97.2836 415.859C97.4637 411.425 97.0445 407.072 97.0976 402.655C96.9465 385.656 107.108 389.726 108.203 376.325C108.53 372.016 107.963 368.091 108.276 364.539C108.564 360.919 109.5 357.282 110.611 353.592C113.76 343.973 117.433 332.256 113.699 322.355C115.875 325.089 118.326 328.169 118.326 328.169C120.997 331.518 123.557 334.586 124.461 337.786C125.423 340.87 124.552 344.711 123.698 348.976C122.144 357.206 121.918 365.585 123.185 373.869C122.311 374.299 119.909 375.483 119.909 375.483C120.619 376.875 121.347 378.257 122.086 379.633C122.029 379.714 121.968 379.804 121.903 379.897C120.782 379.71 118.607 379.346 118.607 379.346C117.015 390.147 123.717 399.772 127.582 409.149C129.51 413.725 130.664 418.463 130.384 423.444C129.757 435.859 123.605 449.686 131.855 461.024C136.129 467.422 142.512 472.114 146.547 478.623C149.218 482.871 151.005 488.037 149.703 493.06C151.183 488.056 149.532 482.736 146.975 478.365C144.408 473.889 140.745 470.208 137.457 466.367C123.597 451.313 131.176 440.92 132.881 423.584C132.961 422.843 132.997 422.106 133.01 421.373C133.433 422.212 133.853 423.046 134.241 423.884C135.588 426.729 136.718 429.682 137.625 432.709C139.456 438.758 140.38 445.102 140.379 451.47C140.714 445.111 140.125 438.677 138.591 432.445C137.832 429.328 136.84 426.261 135.616 423.281C134.531 420.593 133.226 418.045 132.466 415.418C131.036 407.946 127.122 400.846 124.487 393.963C123.252 390.687 122.36 387.268 122.284 383.829C123.444 384.609 124.604 385.394 125.764 386.18C130.328 394.015 135.366 401.564 140.888 408.738C146.139 415.913 152.501 422.32 158.27 429.039C159.037 431.187 159.786 433.344 160.361 435.542C160.991 437.836 161.496 440.164 161.751 442.512C162.007 444.855 162.062 447.232 161.635 449.521C161.207 451.801 160.286 453.992 158.696 455.69C157.123 457.413 155.057 458.822 153.641 460.93C152.958 461.988 152.512 463.245 152.506 464.515C152.483 465.801 152.924 467.019 153.467 468.106C155.824 472.359 158.544 476.369 161.766 479.974C158.678 476.274 156.09 472.148 153.918 467.891C153.427 466.814 153.07 465.677 153.131 464.533C153.178 463.383 153.61 462.293 154.262 461.349C155.617 459.458 157.675 458.145 159.421 456.378C161.214 454.593 162.322 452.202 162.858 449.772C163.401 447.326 163.425 444.822 163.244 442.37C163.061 439.911 162.622 437.491 162.058 435.114C161.944 434.609 161.818 434.108 161.689 433.608C167.944 444.155 166.59 457.834 173.024 468.517C174.614 470.969 176.457 473.384 179.113 474.776C182.139 476.357 185.548 476.198 188.798 476.696C192.013 477.109 195.22 477.635 198.34 478.501C204.548 480.161 210.724 483.329 214.108 489.023C210.864 483.219 204.681 479.845 198.478 478.019C195.348 477.065 192.127 476.451 188.902 475.952C185.705 475.379 182.306 475.422 179.592 473.898C177.189 472.568 175.486 470.202 174.071 467.891C167.474 456.068 170.046 440.892 161.743 429.659C155.673 421.921 148.891 415.014 143.292 406.941C139.528 401.784 136.013 396.451 132.748 390.974C149.408 402.588 165.44 415.39 176.226 432.777C181.821 441.302 184.343 451.658 191.319 459.307C194.763 463.051 199.393 466.02 204.551 466.418C199.443 465.853 194.978 462.785 191.691 458.973C185.029 451.155 182.825 440.679 177.517 432.009C174.056 425.992 169.96 420.479 165.442 415.329C172.114 419.636 177.806 425.325 182.575 431.681C185.695 435.397 190.884 436.12 194.565 439.132C198.38 441.873 201.622 445.429 203.975 449.518C201.695 445.388 198.508 441.759 194.712 438.93C191.939 436.698 188.534 435.473 185.51 433.682C182.567 431.702 180.948 428.364 178.575 425.795C174.213 420.68 169.007 416.311 163.237 412.855C162.349 411.895 161.439 410.957 160.523 410.022C162.011 409.927 163.508 409.915 165.005 410.012C167.541 410.166 170.064 410.633 172.529 411.347C177.453 412.796 182.102 415.361 186.057 418.803C182.449 415.001 177.993 411.925 173.022 409.929C170.535 408.942 167.932 408.197 165.262 407.776C162.813 407.38 160.316 407.24 157.817 407.338C150.763 400.501 143.032 394.293 135.141 388.386C141.945 390.732 150.369 390.918 156.938 392.484C166.567 394.281 176.01 397.063 184.421 401.908ZM87.4478 456.69C87.3468 455.805 87.2598 454.923 87.2007 454.041C86.8885 450.18 87.1766 446.376 88.3563 442.753C89.7391 438.331 91.9685 434.21 93.8416 429.932C93.7135 432.112 93.6855 434.292 93.6285 436.4C93.3933 443.591 90.8158 450.394 87.4478 456.69Z" fill="url(#paint3_linear_4929_362190)"/>
<path d="M70.0794 395.836C77.3437 384.84 82.0785 372.152 83.8265 359.081C84.4389 354.77 84.8801 350.547 85.6716 346.51C86.7202 340.58 89.1027 334.99 92.4967 330.105C89.9262 337.655 88.6634 345.615 88.8285 353.541C88.9266 359.834 90.2153 365.787 88.075 371.671C86.1849 377.269 82.2766 382.641 80.3385 389.108C79.6641 391.278 79.2009 393.507 78.9147 395.756C78.7096 396.666 78.4144 397.557 78.0182 398.396C76.7104 401.224 73.9717 403.046 72.1216 405.646C69.1949 409.696 68.1563 414.885 68.3524 419.783C68.5055 423.017 69.0588 426.178 68.8207 429.392C69.31 426.208 69.0048 422.95 69.1029 419.778C69.284 415.153 70.5857 410.368 73.5975 406.804C75.0833 405.072 77.0175 403.687 78.6085 401.962C78.6725 404.236 78.9156 406.497 79.3618 408.706C80.3784 414.607 82.7259 421.169 79.5401 426.615C77.9221 429.156 74.6652 431.376 74.444 434.797C73.9968 438.19 74.9884 441.311 75.0734 444.415C75.5937 450.941 69.4901 455.671 68.5505 461.905C69.8493 455.6 76.1831 451.171 75.9489 444.402C75.988 441.16 75.1844 437.968 75.7397 435.013C76.224 431.668 79.2058 430.279 81.0099 427.567C84.8292 421.847 82.786 414.478 81.9535 408.277C81.0099 402.168 81.6013 395.93 83.6625 390.211C85.6156 384.494 89.632 379.537 92.1825 373.186C94.8251 367.092 93.9685 359.831 94.0816 353.547C94.3828 341.355 98.3541 329.325 105.246 319.476C105.246 319.476 104.481 318.967 104.142 318.742C104.599 318.442 105.054 318.141 105.522 317.858L101.785 311.934C101.098 312.381 100.423 312.847 99.76 313.328C99.6019 312.922 99.4338 312.493 99.2667 312.065C100.037 311.78 100.813 311.513 101.594 311.271L99.823 305.862C92.4487 308.473 85.4265 312.839 80.6307 319.196C78.1012 322.652 76.3111 326.857 73.0672 329.391C68.6666 332.952 62.9633 334.937 57.9593 337.888C56.3343 338.842 54.7624 339.9 53.2535 341.044L53.0304 341.072C53.0374 341.115 53.0404 341.159 53.0464 341.203C49.7434 343.738 46.7876 346.74 44.5123 350.304C42.8233 352.951 41.7596 355.837 40.666 358.531C38.4037 365.049 34.6625 368.224 30.1569 371.252C29.9958 371.26 29.8827 371.265 29.8827 371.265C29.8867 371.32 29.8877 371.375 29.8917 371.43C27.6153 372.947 25.1518 374.443 22.5823 376.32C13.3749 383.208 4.97989 394.756 7.97566 406.776C6.0075 397.964 10.6994 389.219 16.7119 383.06C18.7641 380.987 21.0234 379.131 23.4139 377.475C25.5131 375.984 27.7744 374.732 30.0047 373.427C30.9873 397.334 19.2104 420.94 0 435.148C20.1449 421.075 32.6613 396.908 31.9149 372.273C34.1602 370.879 36.3154 369.344 38.1555 367.329C42.3129 362.905 43.5938 356.637 46.8908 351.867C48.7008 349.217 50.922 346.997 53.3985 345.078C53.5186 348.747 53.0403 352.46 51.9387 356.003C50.9851 359.172 49.1941 362.495 48.5738 365.985C45.9202 369.728 43.4087 373.563 40.9232 377.387C36.5967 383.569 34.4803 388.337 34.9806 394.131C34.8245 394.695 34.6745 395.261 34.5013 395.821C33.4667 399.227 31.8978 402.638 31.4425 406.358C30.4419 413.634 32.4432 420.985 30.2419 428.09C32.7534 421.196 31.1304 413.569 32.4312 406.515C32.9575 403.369 34.3403 400.463 35.514 397.398C35.9053 399.069 36.4875 400.844 37.273 402.773C38.6958 406.455 40.3858 410.151 41.2494 413.955C39.3913 423.651 35.7822 433.025 30.5901 441.455C27.9245 445.824 24.8117 449.921 21.3666 453.714C17.9146 457.502 14.1073 460.972 10.0059 464.06C14.1564 461.039 18.0266 457.627 21.5497 453.884C25.0668 450.136 28.2607 446.072 31.0133 441.721C35.9382 434.008 39.5514 425.452 41.6897 416.53C41.9028 418.412 41.8678 420.323 41.4395 422.278C39.9046 429.187 33.0045 444.268 30.466 451.202C33.3117 444.324 40.8302 429.642 42.7213 422.559C42.8274 422.174 42.9144 421.792 42.9925 421.411C44.0631 425.746 45.5509 430.029 46.3454 434.37L46.2103 434.352C45.7991 437.777 45.1427 441.18 44.1861 444.501C43.2516 447.829 42.0539 451.086 40.618 454.238C37.7263 460.536 33.877 466.395 29.3103 471.637C34.0021 466.507 38.0065 460.724 41.0703 454.451C42.5922 451.312 43.88 448.055 44.9056 444.713C45.679 442.249 46.2874 439.735 46.7557 437.192C46.9848 439.498 46.9507 441.825 46.4834 444.193C45.0746 450.945 40.3809 457.129 40.9762 464.315C41.1383 466.645 41.9288 468.991 43.5147 470.73C41.9598 468.962 41.2214 466.619 41.1013 464.306C40.6541 457.076 45.4118 451.155 46.9727 444.297C47.6621 441.151 47.5751 438.048 47.1228 434.969C47.1478 434.806 47.1789 434.644 47.2029 434.48L47.0448 434.459C46.1843 429.087 44.2572 423.789 43.3316 418.469C43.6098 409.538 37.3681 401.302 37.5202 392.35C37.5322 391.449 37.6523 390.572 37.8544 389.715C37.8634 389.678 37.8714 389.641 37.8804 389.605C38.806 385.819 41.3595 382.435 43.6388 379.231C45.3378 376.842 47.0668 374.428 48.8349 372.038C49.4603 374.595 50.5278 377.071 51.0631 379.492C52.8022 387.132 50.3458 395.501 44.7745 401.112C50.7871 395.813 53.8668 387.196 52.537 379.207C52.1178 376.485 51.1602 373.966 50.749 371.473C50.6399 370.89 50.5789 370.316 50.5549 369.747C53.3806 366.026 56.3213 362.407 59.4481 359.098C64.1849 353.992 69.8512 349.767 73.9997 343.904C76.1219 340.932 77.815 337.902 79.7131 335.28C81.3541 333.018 84.3098 329.782 86.1769 327.473C86.8793 326.647 87.5847 325.824 88.2982 325.015C84.0246 331.115 81.1149 338.149 80.0693 345.512C79.3639 349.915 79.0677 354.239 78.6145 358.429C78.4403 360.188 78.2032 361.94 77.916 363.683C75.2605 368.927 74.0928 374.563 70.6938 379.37C66.9415 384.865 61.5904 389.161 56.4143 393.323C63.2103 389.049 69.6712 384.409 74.2349 377.994C72.2958 383.475 69.7952 388.758 66.7534 393.725C62.617 401.312 54.7693 407.131 53.4866 416.12C51.7565 429.191 56.5954 441.924 56.6404 454.753C56.7054 458.965 56.1842 463.183 54.8524 467.162C53.5826 471.168 51.2542 474.791 49.214 478.571C44.8765 486.021 43.2325 495.081 45.2427 503.502C43.5407 495.066 45.4309 486.242 49.9766 479.002C52.1198 475.329 54.6103 471.75 56.0902 467.602C57.6221 463.502 58.3114 459.111 58.3914 454.765C58.5655 446.039 56.8606 437.515 56.2052 429.08C54.7353 413.658 58.5607 410.622 64.9164 402.806C65.0275 408.468 65.1785 416.124 65.1785 416.124C65.2406 419.302 65.4026 427.498 65.4626 430.577C65.4907 432.172 65.4967 433.735 65.3246 435.255C65.1545 437.594 64.0118 439.818 63.6116 442.205C63.1663 446.278 63.7918 450.332 63.6347 454.367C63.6036 460.772 63.1784 467.187 62.3579 473.56C63.5086 467.238 64.27 460.834 64.6352 454.398C64.8404 451.2 64.8543 447.912 64.9354 444.769C64.9434 441.47 66.8595 438.813 67.3067 435.533C67.786 432.642 67.733 428.706 67.8701 425.778C68.0622 419.815 68.5505 404.678 68.7737 397.742C69.2039 397.132 69.6371 396.504 70.0794 395.836ZM56.1983 356.163C55.4728 357.001 54.7633 357.848 54.0659 358.707C54.313 358.144 54.5553 357.572 54.7764 356.982C56.5194 352.409 57.3168 347.462 57.1247 342.514C60.4377 340.476 64.0279 338.808 67.617 337.292C69.6422 336.382 71.7854 335.33 73.7936 334.054C72.3408 336.435 70.9839 338.856 69.6681 340.931C66.2161 346.327 60.823 350.737 56.1983 356.163Z" fill="url(#paint4_linear_4929_362190)"/>
<path d="M104.814 435.689C108.682 441.094 111.262 447.583 112.133 454.424C112.26 447.529 110.652 440.484 107.38 434.13L104.814 435.689Z" fill="url(#paint5_linear_4929_362190)"/>
<path d="M244.286 105.206C239.844 89.0264 228.137 72.937 214.639 69.3749C188.463 62.4708 155.534 102.665 153.173 100.103C151.211 97.9818 181.239 78.12 181.109 53.3154C180.979 28.5607 150.831 -3.02787 116.861 0.234055C86.8434 3.11576 62.409 32.353 65.871 49.8233C67.602 58.5385 75.8268 61.9405 84.0317 82.6427C84.9722 85.0142 90.0053 97.9518 87.5238 99.4127C84.8523 100.964 78.7286 86.2649 66.5714 82.6427C49.7514 77.6298 21.4148 93.8293 16.9821 118.264C16.8421 119.024 16.7219 119.805 16.6419 120.605C15.231 132.372 18.563 147.861 29.5495 155.976C50.1317 171.165 78.7786 148.252 100.091 163.661C109.237 170.275 112.919 180.991 114.58 189.116C114.82 194.639 115.1 200.172 115.45 205.695C116.461 222.285 118.202 238.795 119.393 255.015C119.923 263.099 120.363 271.184 119.713 278.809C119.573 280.73 119.293 282.561 118.982 284.382C118.622 286.173 118.182 287.904 117.602 289.525C116.411 292.737 114.73 295.479 112.298 297.51C111.158 298.54 109.547 299.521 107.856 300.551C106.145 301.592 104.324 302.623 102.363 303.943C101.382 304.614 100.361 305.334 99.2507 306.435C98.6904 307.005 98.0901 307.656 97.5197 308.656C96.9494 309.617 96.409 311.148 96.5591 312.819C96.6091 313.619 96.8793 314.5 97.2395 315.26C97.4497 315.64 97.6797 316.011 97.9399 316.351C98.19 316.671 98.4402 316.911 98.7204 317.171C99.0006 317.452 99.2407 317.622 99.4808 317.782C99.711 317.942 99.9911 318.132 100.191 318.242C100.591 318.442 101.062 318.682 101.372 318.792C102.793 319.353 103.793 319.583 104.734 319.873C106.595 320.403 108.086 320.944 109.427 321.744C110.737 322.554 111.928 323.505 112.919 324.746C114.89 327.207 116.221 330.619 117.121 334.341C118.022 338.064 118.602 342.036 119.132 346.088C119.643 350.131 120.183 354.263 120.583 358.236C120.964 362.218 121.174 366.1 120.563 369.672C120.273 371.463 119.763 373.174 119.042 374.835C118.302 376.506 117.391 378.097 116.331 379.378C115.25 380.679 113.969 381.659 112.208 382.86C110.467 384.051 108.456 385.672 107.045 387.583C106.325 388.524 105.685 389.484 105.144 390.515C104.614 391.545 104.054 392.546 103.683 393.677C103.223 394.767 102.983 395.928 102.723 397.079C102.603 397.659 102.573 398.239 102.493 398.82L102.403 399.69L102.393 400.551C102.313 402.862 102.633 405.033 102.943 407.134L103.973 413.228C104.634 417.2 104.964 421.143 104.814 425.125L104.624 428.097C104.564 429.098 104.384 430.078 104.264 431.079C104.044 433.06 103.613 435.021 103.173 436.962C102.683 438.893 102.112 440.804 101.422 442.696C100.742 444.597 99.9311 446.468 99.2407 448.529C98.5503 450.57 98.1101 452.891 98.2802 455.153C98.4503 457.404 99.0206 459.505 99.8811 461.537C100.742 463.578 102.032 465.449 103.533 467C105.024 468.561 106.665 469.842 108.036 471.242C109.427 472.643 110.527 474.224 111.228 476.035C111.908 477.846 112.328 479.817 112.348 481.789C112.459 485.761 110.978 489.653 109.837 493.616C109.257 495.617 108.806 497.658 108.526 499.719C108.256 501.79 108.226 503.872 108.326 505.943C108.566 510.085 109.507 514.158 110.988 518C109.667 514.108 108.896 510.015 108.826 505.923C108.806 503.882 108.916 501.84 109.277 499.829C109.627 497.828 110.147 495.857 110.788 493.916C112.058 490.063 113.769 486.141 113.849 481.789C113.909 479.637 113.559 477.496 112.869 475.435C112.178 473.364 110.948 471.453 109.497 469.872C108.046 468.271 106.475 466.95 105.184 465.469C103.883 464.008 102.873 462.387 102.202 460.596C101.522 458.825 101.092 456.864 101.032 455.003C100.972 453.132 101.382 451.351 102.072 449.519C102.763 447.698 103.663 445.817 104.454 443.866C105.254 441.915 105.955 439.904 106.555 437.873C107.115 435.821 107.646 433.76 107.966 431.669C108.136 430.618 108.366 429.588 108.476 428.527L108.816 425.345C109.147 421.093 108.956 416.78 108.436 412.608C107.966 408.445 107.155 404.383 107.386 400.751C107.506 398.93 107.846 397.209 108.576 395.598C108.866 394.767 109.357 393.997 109.797 393.206C110.247 392.426 110.788 391.685 111.338 391.025C112.458 389.664 113.729 388.704 115.42 387.633C117.101 386.592 119.223 385.161 120.853 383.34C122.484 381.509 123.695 379.518 124.716 377.467C125.726 375.396 126.487 373.154 126.957 370.893C127.898 366.35 127.788 361.918 127.567 357.705C127.317 353.473 126.947 349.41 126.587 345.268C126.217 341.125 125.796 336.913 124.926 332.59C124.045 328.298 122.675 323.715 119.663 319.563C118.162 317.511 116.191 315.73 114.049 314.31C112.148 313.059 110.067 312.198 108.166 311.538C109.537 310.728 111.108 309.897 112.719 309.017C114.57 307.976 116.571 306.905 118.592 305.284C120.583 303.723 122.404 301.872 123.845 299.811C125.306 297.76 126.467 295.559 127.397 293.337C128.288 291.106 128.958 288.865 129.499 286.633C129.979 284.412 130.399 282.191 130.659 279.999C131.22 275.617 131.43 271.314 131.5 267.062C131.57 262.809 131.51 258.607 131.39 254.434C131.14 246.079 130.699 237.844 130.329 229.63C129.949 221.425 129.629 213.25 129.438 205.085C129.288 198.341 129.238 191.597 129.248 184.853C129.849 180.21 131.34 174.247 135.012 168.554C157.225 134.143 225.715 160.099 242.575 132.932C247.008 125.788 247.108 115.482 244.286 105.206ZM104.744 310.287C104.724 310.267 104.764 310.287 104.794 310.307C104.774 310.297 104.764 310.287 104.744 310.287Z" fill="#808E35"/>
<path d="M244.286 105.206C239.844 89.0264 228.137 72.937 214.639 69.3749C188.463 62.4708 155.534 102.665 153.173 100.103C151.211 97.9818 181.239 78.12 181.109 53.3154C180.979 28.5607 150.831 -3.02787 116.861 0.234055C86.8434 3.11576 62.409 32.353 65.871 49.8233C67.602 58.5385 75.8268 61.9405 84.0317 82.6427C84.9722 85.0142 90.0053 97.9518 87.5238 99.4127C84.8523 100.964 78.7286 86.2649 66.5714 82.6427C49.7514 77.6298 21.4148 93.8293 16.9821 118.264C16.8421 119.024 16.7219 119.805 16.6419 120.605C15.231 132.372 18.563 147.861 29.5495 155.976C50.1317 171.165 78.7786 148.252 100.091 163.661C109.237 170.275 112.919 180.991 114.58 189.116C114.82 194.639 115.1 200.172 115.45 205.695C116.461 222.285 118.202 238.795 119.393 255.015C119.923 263.099 120.363 271.184 119.713 278.809C119.573 280.73 119.293 282.561 118.982 284.382C118.622 286.173 118.182 287.904 117.602 289.525C116.411 292.737 114.73 295.479 112.298 297.51C111.158 298.54 109.547 299.521 107.856 300.551C106.145 301.592 104.324 302.623 102.363 303.943C101.382 304.614 100.361 305.334 99.2507 306.435C98.6904 307.005 98.0901 307.656 97.5197 308.656C96.9494 309.617 96.409 311.148 96.5591 312.819C96.6091 313.619 96.8793 314.5 97.2395 315.26C97.4497 315.64 97.6797 316.011 97.9399 316.351C98.19 316.671 98.4402 316.911 98.7204 317.171C99.0006 317.452 99.2407 317.622 99.4808 317.782C99.711 317.942 99.9911 318.132 100.191 318.242C100.591 318.442 101.062 318.682 101.372 318.792C102.793 319.353 103.793 319.583 104.734 319.873C106.595 320.403 108.086 320.944 109.427 321.744C110.737 322.554 111.928 323.505 112.919 324.746C114.89 327.207 116.221 330.619 117.121 334.341C118.022 338.064 118.602 342.036 119.132 346.088C119.643 350.131 120.183 354.263 120.583 358.236C120.964 362.218 121.174 366.1 120.563 369.672C120.273 371.463 119.763 373.174 119.042 374.835C118.302 376.506 117.391 378.097 116.331 379.378C115.25 380.679 113.969 381.659 112.208 382.86C110.467 384.051 108.456 385.672 107.045 387.583C106.325 388.524 105.685 389.484 105.144 390.515C104.614 391.545 104.054 392.546 103.683 393.677C103.223 394.767 102.983 395.928 102.723 397.079C102.603 397.659 102.573 398.239 102.493 398.82L102.403 399.69L102.393 400.551C102.313 402.862 102.633 405.033 102.943 407.134L103.973 413.228C104.634 417.2 104.964 421.143 104.814 425.125L104.624 428.097C104.564 429.098 104.384 430.078 104.264 431.079C104.044 433.06 103.613 435.021 103.173 436.962C102.683 438.893 102.112 440.804 101.422 442.696C100.742 444.597 99.9311 446.468 99.2407 448.529C98.5503 450.57 98.1101 452.891 98.2802 455.153C98.4503 457.404 99.0206 459.505 99.8811 461.537C100.742 463.578 102.032 465.449 103.533 467C105.024 468.561 106.665 469.842 108.036 471.242C109.427 472.643 110.527 474.224 111.228 476.035C111.908 477.846 112.328 479.817 112.348 481.789C112.459 485.761 110.978 489.653 109.837 493.616C109.257 495.617 108.806 497.658 108.526 499.719C108.256 501.79 108.226 503.872 108.326 505.943C108.566 510.085 109.507 514.158 110.988 518C109.667 514.108 108.896 510.015 108.826 505.923C108.806 503.882 108.916 501.84 109.277 499.829C109.627 497.828 110.147 495.857 110.788 493.916C112.058 490.063 113.769 486.141 113.849 481.789C113.909 479.637 113.559 477.496 112.869 475.435C112.178 473.364 110.948 471.453 109.497 469.872C108.046 468.271 106.475 466.95 105.184 465.469C103.883 464.008 102.873 462.387 102.202 460.596C101.522 458.825 101.092 456.864 101.032 455.003C100.972 453.132 101.382 451.351 102.072 449.519C102.763 447.698 103.663 445.817 104.454 443.866C105.254 441.915 105.955 439.904 106.555 437.873C107.115 435.821 107.646 433.76 107.966 431.669C108.136 430.618 108.366 429.588 108.476 428.527L108.816 425.345C109.147 421.093 108.956 416.78 108.436 412.608C107.966 408.445 107.155 404.383 107.386 400.751C107.506 398.93 107.846 397.209 108.576 395.598C108.866 394.767 109.357 393.997 109.797 393.206C110.247 392.426 110.788 391.685 111.338 391.025C112.458 389.664 113.729 388.704 115.42 387.633C117.101 386.592 119.223 385.161 120.853 383.34C122.484 381.509 123.695 379.518 124.716 377.467C125.726 375.396 126.487 373.154 126.957 370.893C127.898 366.35 127.788 361.918 127.567 357.705C127.317 353.473 126.947 349.41 126.587 345.268C126.217 341.125 125.796 336.913 124.926 332.59C124.045 328.298 122.675 323.715 119.663 319.563C118.162 317.511 116.191 315.73 114.049 314.31C112.148 313.059 110.067 312.198 108.166 311.538C109.537 310.728 111.108 309.897 112.719 309.017C114.57 307.976 116.571 306.905 118.592 305.284C120.583 303.723 122.404 301.872 123.845 299.811C125.306 297.76 126.467 295.559 127.397 293.337C128.288 291.106 128.958 288.865 129.499 286.633C129.979 284.412 130.399 282.191 130.659 279.999C131.22 275.617 131.43 271.314 131.5 267.062C131.57 262.809 131.51 258.607 131.39 254.434C131.14 246.079 130.699 237.844 130.329 229.63C129.949 221.425 129.629 213.25 129.438 205.085C129.288 198.341 129.238 191.597 129.248 184.853C129.849 180.21 131.34 174.247 135.012 168.554C157.225 134.143 225.715 160.099 242.575 132.932C247.008 125.788 247.108 115.482 244.286 105.206ZM104.744 310.287C104.724 310.267 104.764 310.287 104.794 310.307C104.774 310.297 104.764 310.287 104.744 310.287Z" fill="url(#paint6_linear_4929_362190)"/>
<path d="M244.286 105.206C239.844 89.0264 228.137 72.937 214.639 69.3749C188.463 62.4708 155.534 102.665 153.173 100.103C151.211 97.9818 181.239 78.12 181.109 53.3154C180.979 28.5607 150.831 -3.02787 116.861 0.234055C86.8434 3.11576 62.409 32.353 65.871 49.8233C67.602 58.5385 75.8268 61.9405 84.0317 82.6427C84.9722 85.0142 90.0053 97.9518 87.5238 99.4127C84.8523 100.964 78.7286 86.2649 66.5714 82.6427C49.7514 77.6298 21.4148 93.8293 16.9821 118.264C16.8421 119.024 16.7219 119.805 16.6419 120.605C15.231 132.372 18.563 147.861 29.5495 155.976C50.1317 171.165 78.7786 148.252 100.091 163.661C109.237 170.275 112.919 180.991 114.58 189.116C114.82 194.639 115.1 200.172 115.45 205.695C116.461 222.285 118.202 238.795 119.393 255.015C119.923 263.099 120.363 271.184 119.713 278.809C119.573 280.73 119.293 282.561 118.982 284.382C118.622 286.173 118.182 287.904 117.602 289.525C116.411 292.737 114.73 295.479 112.298 297.51C111.158 298.54 109.547 299.521 107.856 300.551C106.145 301.592 104.324 302.623 102.363 303.943C101.382 304.614 100.361 305.334 99.2507 306.435C98.6904 307.005 98.0901 307.656 97.5197 308.656C96.9494 309.617 96.409 311.148 96.5591 312.819C96.6091 313.619 96.8793 314.5 97.2395 315.26C97.4497 315.64 97.6797 316.011 97.9399 316.351C98.19 316.671 98.4402 316.911 98.7204 317.171C99.0006 317.452 99.2407 317.622 99.4808 317.782C99.711 317.942 99.9911 318.132 100.191 318.242C100.591 318.442 101.062 318.682 101.372 318.792C102.793 319.353 103.793 319.583 104.734 319.873C106.595 320.403 108.086 320.944 109.427 321.744C110.737 322.554 111.928 323.505 112.919 324.746C114.89 327.207 116.221 330.619 117.121 334.341C118.022 338.064 118.602 342.036 119.132 346.088C119.643 350.131 120.183 354.263 120.583 358.236C120.964 362.218 121.174 366.1 120.563 369.672C120.273 371.463 119.763 373.174 119.042 374.835C118.302 376.506 117.391 378.097 116.331 379.378C115.25 380.679 113.969 381.659 112.208 382.86C110.467 384.051 108.456 385.672 107.045 387.583C106.325 388.524 105.685 389.484 105.144 390.515C104.614 391.545 104.054 392.546 103.683 393.677C103.223 394.767 102.983 395.928 102.723 397.079C102.603 397.659 102.573 398.239 102.493 398.82L102.403 399.69L102.393 400.551C102.313 402.862 102.633 405.033 102.943 407.134L103.973 413.228C104.634 417.2 104.964 421.143 104.814 425.125L104.624 428.097C104.564 429.098 104.384 430.078 104.264 431.079C104.044 433.06 103.613 435.021 103.173 436.962C102.683 438.893 102.112 440.804 101.422 442.696C100.742 444.597 99.9311 446.468 99.2407 448.529C98.5503 450.57 98.1101 452.891 98.2802 455.153C98.4503 457.404 99.0206 459.505 99.8811 461.537C100.742 463.578 102.032 465.449 103.533 467C105.024 468.561 106.665 469.842 108.036 471.242C109.427 472.643 110.527 474.224 111.228 476.035C111.908 477.846 112.328 479.817 112.348 481.789C112.459 485.761 110.978 489.653 109.837 493.616C109.257 495.617 108.806 497.658 108.526 499.719C108.256 501.79 108.226 503.872 108.326 505.943C108.566 510.085 109.507 514.158 110.988 518C109.667 514.108 108.896 510.015 108.826 505.923C108.806 503.882 108.916 501.84 109.277 499.829C109.627 497.828 110.147 495.857 110.788 493.916C112.058 490.063 113.769 486.141 113.849 481.789C113.909 479.637 113.559 477.496 112.869 475.435C112.178 473.364 110.948 471.453 109.497 469.872C108.046 468.271 106.475 466.95 105.184 465.469C103.883 464.008 102.873 462.387 102.202 460.596C101.522 458.825 101.092 456.864 101.032 455.003C100.972 453.132 101.382 451.351 102.072 449.519C102.763 447.698 103.663 445.817 104.454 443.866C105.254 441.915 105.955 439.904 106.555 437.873C107.115 435.821 107.646 433.76 107.966 431.669C108.136 430.618 108.366 429.588 108.476 428.527L108.816 425.345C109.147 421.093 108.956 416.78 108.436 412.608C107.966 408.445 107.155 404.383 107.386 400.751C107.506 398.93 107.846 397.209 108.576 395.598C108.866 394.767 109.357 393.997 109.797 393.206C110.247 392.426 110.788 391.685 111.338 391.025C112.458 389.664 113.729 388.704 115.42 387.633C117.101 386.592 119.223 385.161 120.853 383.34C122.484 381.509 123.695 379.518 124.716 377.467C125.726 375.396 126.487 373.154 126.957 370.893C127.898 366.35 127.788 361.918 127.567 357.705C127.317 353.473 126.947 349.41 126.587 345.268C126.217 341.125 125.796 336.913 124.926 332.59C124.045 328.298 122.675 323.715 119.663 319.563C118.162 317.511 116.191 315.73 114.049 314.31C112.148 313.059 110.067 312.198 108.166 311.538C109.537 310.728 111.108 309.897 112.719 309.017C114.57 307.976 116.571 306.905 118.592 305.284C120.583 303.723 122.404 301.872 123.845 299.811C125.306 297.76 126.467 295.559 127.397 293.337C128.288 291.106 128.958 288.865 129.499 286.633C129.979 284.412 130.399 282.191 130.659 279.999C131.22 275.617 131.43 271.314 131.5 267.062C131.57 262.809 131.51 258.607 131.39 254.434C131.14 246.079 130.699 237.844 130.329 229.63C129.949 221.425 129.629 213.25 129.438 205.085C129.288 198.341 129.238 191.597 129.248 184.853C129.849 180.21 131.34 174.247 135.012 168.554C157.225 134.143 225.715 160.099 242.575 132.932C247.008 125.788 247.108 115.482 244.286 105.206ZM104.744 310.287C104.724 310.267 104.764 310.287 104.794 310.307C104.774 310.297 104.764 310.287 104.744 310.287Z" fill="url(#paint7_linear_4929_362190)"/>
<path d="M244.286 105.206C229.678 116.242 216.23 121.666 205.243 124.477C178.707 131.261 156.955 125.308 138.834 141.327C128.468 150.493 124.075 162.63 121.974 171.475C118.822 162.38 112.899 150.223 101.032 142.358C82.4507 130.031 65.8608 139.186 39.2251 130.601C37.4741 130.041 26.8977 126.629 16.6417 120.605C16.7217 119.805 16.8419 119.024 16.982 118.264C21.4146 93.8293 49.7513 77.6297 66.5712 82.6427C78.7284 86.2648 84.8521 100.964 87.5237 99.4126C90.0051 97.9518 84.972 85.0141 84.0315 82.6427C75.8266 61.9405 67.6019 58.5384 65.8708 49.8232C62.4088 32.3529 86.8432 3.11571 116.861 0.234003C120.363 -0.106198 123.815 -0.0662377 127.207 0.293975C156.724 3.41582 180.999 31.1122 181.109 53.3153C181.239 78.12 151.211 97.9817 153.172 100.103C155.534 102.664 188.463 62.4708 214.639 69.3748C228.137 72.9369 239.844 89.0264 244.286 105.206Z" fill="url(#paint8_linear_4929_362190)"/>
<path d="M244.286 105.206C229.678 116.243 216.23 121.666 205.243 124.477C178.708 131.261 156.955 125.308 138.834 141.327C128.468 150.493 124.075 162.63 121.974 171.475C116.991 112.991 118.632 65.4125 121.444 31.1822C122.634 16.6336 123.845 6.91791 127.207 0.293997C156.725 3.41584 180.999 31.1122 181.109 53.3153C181.239 78.12 151.211 97.9817 153.173 100.103C155.534 102.664 188.463 62.4708 214.639 69.3749C228.137 72.937 239.844 89.0264 244.286 105.206Z" fill="url(#paint9_linear_4929_362190)"/>
<defs>
<linearGradient id="paint0_linear_4929_362190" x1="97.9729" y1="549.137" x2="118.171" y2="330.147" gradientUnits="userSpaceOnUse">
<stop stop-color="#3F552B"/>
<stop offset="1" stop-color="#3F552B" stop-opacity="0"/>
</linearGradient>
<linearGradient id="paint1_linear_4929_362190" x1="288.618" y1="257.721" x2="141.129" y2="326.856" gradientUnits="userSpaceOnUse">
<stop stop-color="#C8D34F"/>
<stop offset="1" stop-color="#C8D34F" stop-opacity="0"/>
</linearGradient>
<linearGradient id="paint2_linear_4929_362190" x1="-48.245" y1="217.431" x2="103.853" y2="323.438" gradientUnits="userSpaceOnUse">
<stop stop-color="#C8D34F"/>
<stop offset="1" stop-color="#C8D34F" stop-opacity="0"/>
</linearGradient>
<linearGradient id="paint3_linear_4929_362190" x1="155.012" y1="570.521" x2="162.731" y2="388.217" gradientUnits="userSpaceOnUse">
<stop stop-color="#EBBB50"/>
<stop offset="1" stop-color="#EBBB50" stop-opacity="0"/>
</linearGradient>
<linearGradient id="paint4_linear_4929_362190" x1="44.7233" y1="566.322" x2="52.5098" y2="382.44" gradientUnits="userSpaceOnUse">
<stop stop-color="#EBBB50"/>
<stop offset="1" stop-color="#EBBB50" stop-opacity="0"/>
</linearGradient>
<linearGradient id="paint5_linear_4929_362190" x1="103.234" y1="568.8" x2="111.02" y2="384.917" gradientUnits="userSpaceOnUse">
<stop stop-color="#EBBB50"/>
<stop offset="1" stop-color="#EBBB50" stop-opacity="0"/>
</linearGradient>
<linearGradient id="paint6_linear_4929_362190" x1="156.244" y1="533.532" x2="128.483" y2="76.3903" gradientUnits="userSpaceOnUse">
<stop stop-color="#EBBB50"/>
<stop offset="1" stop-color="#EBBB50" stop-opacity="0"/>
</linearGradient>
<linearGradient id="paint7_linear_4929_362190" x1="199.711" y1="365.729" x2="167.762" y2="286.583" gradientUnits="userSpaceOnUse">
<stop stop-color="#71554A"/>
<stop offset="1" stop-color="#71554A" stop-opacity="0"/>
</linearGradient>
<linearGradient id="paint8_linear_4929_362190" x1="137.1" y1="220.553" x2="128.716" y2="84.5474" gradientUnits="userSpaceOnUse">
<stop stop-color="#3F552B"/>
<stop offset="1" stop-color="#3F552B" stop-opacity="0"/>
</linearGradient>
<linearGradient id="paint9_linear_4929_362190" x1="39.2901" y1="111.055" x2="174.071" y2="71.2839" gradientUnits="userSpaceOnUse">
<stop stop-color="#3F552B"/>
<stop offset="1" stop-color="#3F552B" stop-opacity="0"/>
</linearGradient>
</defs>
</svg>
