<svg width="233" height="366" viewBox="0 0 233 366" fill="none" xmlns="http://www.w3.org/2000/svg">
<path d="M127.01 143.065C122.915 143.63 118.529 140.201 116.527 136.356C112.679 128.967 118.056 120.856 120.72 112.454C126.416 94.4886 120.66 72.2052 110.656 60.8773C95.6836 43.9244 65.0404 44.5403 44.8219 53.3297C9.44204 68.7103 -2.73308 112.912 1.21248 143.484C2.12476 150.556 5.13999 173.92 22.5976 188.351C31.1466 195.417 34.0798 192.836 47.757 201.769C66.5956 214.073 64.6298 221.319 83.3993 234.056C85.6745 235.6 95.1198 240.257 114.009 249.571C132.029 258.456 135.062 259.569 139.587 259.216C148.42 258.525 155.12 251.766 168.52 238.249C177.491 229.2 184.618 222.011 189.905 210.155C193.345 202.441 192.461 200.701 196.615 192.124C201.099 182.864 205.167 178.62 211.71 169.9C224.036 153.476 230.2 145.263 231.837 137.612C233.592 129.413 230.631 119.007 224.709 98.1958C220.206 82.3705 217.954 74.4574 214.226 69.6817C199.602 50.9473 173.125 51.1556 169.779 51.2317C165.624 51.3258 137.731 51.9557 128.266 70.1013C122.26 81.6165 124.597 98.4172 129.524 109.518C132.824 116.951 137.099 121.41 136.234 129.226C135.634 134.651 132.489 142.309 127.01 143.065Z" fill="#808E35"/>
<path d="M127.01 143.065C122.915 143.63 118.529 140.201 116.527 136.356C112.679 128.967 118.056 120.856 120.72 112.454C126.416 94.4886 120.66 72.2052 110.656 60.8773C95.6836 43.9244 65.0404 44.5403 44.8219 53.3297C9.44204 68.7103 -2.73308 112.912 1.21248 143.484C2.12476 150.556 5.13999 173.92 22.5976 188.351C31.1466 195.417 34.0798 192.836 47.757 201.769C66.5956 214.073 64.6298 221.319 83.3993 234.056C85.6745 235.6 95.1198 240.257 114.009 249.571C132.029 258.456 135.062 259.569 139.587 259.216C148.42 258.525 155.12 251.766 168.52 238.249C177.491 229.2 184.618 222.011 189.905 210.155C193.345 202.441 192.461 200.701 196.615 192.124C201.099 182.864 205.167 178.62 211.71 169.9C224.036 153.476 230.2 145.263 231.837 137.612C233.592 129.413 230.631 119.007 224.709 98.1958C220.206 82.3705 217.954 74.4574 214.226 69.6817C199.602 50.9473 173.125 51.1556 169.779 51.2317C165.624 51.3258 137.731 51.9557 128.266 70.1013C122.26 81.6165 124.597 98.4172 129.524 109.518C132.824 116.951 137.099 121.41 136.234 129.226C135.634 134.651 132.489 142.309 127.01 143.065Z" fill="url(#paint0_linear_4950_385051)" stroke="#3F552B" stroke-miterlimit="10"/>
<path d="M130.949 195.833C128.04 196.727 126.017 200.307 126.849 203.8C127.619 207.031 130.606 209.237 133.684 208.663C136.695 208.102 138.724 205.079 138.653 202.11C138.556 198.059 134.563 194.723 130.949 195.833Z" fill="url(#paint1_linear_4950_385051)"/>
<path d="M127.606 202.669C126.826 199.658 128.72 196.573 131.443 195.803C134.824 194.846 138.562 197.721 138.653 201.212C138.72 203.77 136.821 206.375 134.002 206.859C131.121 207.355 128.327 205.453 127.606 202.669Z" fill="#808E35"/>
<path d="M127.606 202.669C126.826 199.658 128.72 196.573 131.443 195.803C134.824 194.846 138.562 197.721 138.653 201.212C138.72 203.77 136.821 206.375 134.002 206.859C131.121 207.355 128.327 205.453 127.606 202.669Z" fill="url(#paint2_linear_4950_385051)"/>
<path d="M136.388 197.973C135.461 196.742 133.835 196.786 133.599 196.796C132.389 196.848 131.241 197.529 131.306 197.849C131.38 198.214 132.94 197.68 134.591 198.531C136.052 199.284 136.48 200.552 136.823 200.391C137.153 200.234 137.086 198.9 136.388 197.973Z" fill="url(#paint3_linear_4950_385051)"/>
<path d="M128.864 199.29C129.121 199.272 128.898 201.211 130.266 202.907C131.249 204.127 132.955 205.1 134.635 204.928C136.419 204.745 137.471 203.343 137.543 203.43C137.638 203.544 136.057 206.225 133.358 206.337C131.532 206.413 129.934 205.286 129.129 203.959C127.864 201.873 128.572 199.311 128.864 199.29Z" fill="url(#paint4_linear_4950_385051)"/>
<path d="M134.099 199.949C133.178 199.278 131.616 199.769 131.345 200.72C131.105 201.551 131.876 202.633 132.828 202.873C133.438 203.013 134.34 202.863 134.72 202.142C135.121 201.371 134.71 200.39 134.099 199.949ZM134.5 201.932C134.169 202.533 133.398 202.653 132.878 202.533C132.056 202.342 131.396 201.441 131.606 200.76C131.836 199.979 133.168 199.579 133.969 200.129C134.49 200.49 134.84 201.291 134.5 201.932Z" fill="url(#paint5_linear_4950_385051)"/>
<path d="M134.5 201.932C134.17 202.533 133.399 202.653 132.878 202.533C132.057 202.342 131.396 201.441 131.606 200.76C131.836 199.979 133.168 199.578 133.969 200.129C134.49 200.49 134.841 201.291 134.5 201.932Z" fill="#3F552B"/>
<path d="M109.954 218.764C107.045 219.658 105.022 223.237 105.855 226.731C106.625 229.961 109.61 232.167 112.69 231.594C115.701 231.032 117.73 228.01 117.658 225.04C117.559 220.99 113.567 217.653 109.954 218.764Z" fill="url(#paint6_linear_4950_385051)"/>
<path d="M106.61 225.599C105.83 222.588 107.724 219.504 110.446 218.734C113.828 217.776 117.565 220.651 117.657 224.142C117.724 226.701 115.825 229.305 113.006 229.789C110.126 230.285 107.331 228.384 106.61 225.599Z" fill="#808E35"/>
<path d="M106.61 225.599C105.83 222.588 107.724 219.504 110.446 218.734C113.828 217.776 117.565 220.651 117.657 224.142C117.724 226.701 115.825 229.305 113.006 229.789C110.126 230.285 107.331 228.384 106.61 225.599Z" fill="url(#paint7_linear_4950_385051)"/>
<path d="M115.393 220.903C114.465 219.672 112.84 219.716 112.604 219.726C111.394 219.778 110.245 220.459 110.31 220.779C110.384 221.144 111.945 220.61 113.596 221.461C115.057 222.214 115.485 223.482 115.827 223.321C116.157 223.166 116.09 221.83 115.393 220.903Z" fill="url(#paint8_linear_4950_385051)"/>
<path d="M107.869 222.221C108.125 222.203 107.903 224.142 109.271 225.839C110.253 227.058 111.96 228.032 113.64 227.859C115.423 227.676 116.475 226.274 116.547 226.361C116.642 226.475 115.062 229.155 112.362 229.268C110.537 229.344 108.938 228.217 108.133 226.89C106.867 224.804 107.575 222.242 107.869 222.221Z" fill="url(#paint9_linear_4950_385051)"/>
<path d="M113.103 222.879C112.182 222.208 110.619 222.699 110.349 223.65C110.109 224.482 110.88 225.563 111.831 225.803C112.442 225.944 113.343 225.793 113.724 225.072C114.124 224.301 113.714 223.32 113.103 222.879ZM113.504 224.862C113.173 225.463 112.402 225.583 111.881 225.463C111.06 225.273 110.399 224.371 110.609 223.69C110.84 222.909 112.172 222.509 112.973 223.06C113.494 223.42 113.844 224.221 113.504 224.862Z" fill="url(#paint10_linear_4950_385051)"/>
<path d="M113.504 224.862C113.173 225.463 112.402 225.583 111.882 225.463C111.06 225.273 110.399 224.371 110.61 223.691C110.84 222.909 112.172 222.509 112.973 223.06C113.494 223.42 113.844 224.221 113.504 224.862Z" fill="#3F552B"/>
<path d="M81.8291 202.971C78.92 203.866 76.8971 207.445 77.7303 210.939C78.5003 214.169 81.4865 216.375 84.5648 215.802C87.5761 215.24 89.605 212.217 89.5339 209.248C89.4347 205.198 85.4421 201.861 81.8291 202.971Z" fill="url(#paint11_linear_4950_385051)"/>
<path d="M78.4855 209.807C77.7054 206.796 79.599 203.711 82.3218 202.941C85.7036 201.984 89.4409 204.859 89.532 208.35C89.5991 210.909 87.7004 213.513 84.8814 213.997C82.0014 214.493 79.2065 212.591 78.4855 209.807Z" fill="#808E35"/>
<path d="M78.4855 209.807C77.7054 206.796 79.599 203.711 82.3218 202.941C85.7036 201.984 89.4409 204.859 89.532 208.35C89.5991 210.909 87.7004 213.513 84.8814 213.997C82.0014 214.493 79.2065 212.591 78.4855 209.807Z" fill="url(#paint12_linear_4950_385051)"/>
<path d="M87.268 205.111C86.3407 203.88 84.7144 203.924 84.479 203.934C83.2693 203.986 82.1207 204.667 82.1858 204.987C82.2599 205.352 83.8201 204.818 85.4714 205.669C86.9325 206.422 87.3601 207.69 87.7026 207.529C88.032 207.374 87.965 206.038 87.268 205.111Z" fill="url(#paint13_linear_4950_385051)"/>
<path d="M79.7435 206.428C79.9998 206.41 79.7775 208.349 81.1455 210.045C82.1278 211.265 83.8342 212.239 85.5145 212.066C87.298 211.883 88.3496 210.481 88.4217 210.568C88.5168 210.682 86.9365 213.362 84.2367 213.475C82.4111 213.551 80.813 212.424 80.0079 211.097C78.7431 209.011 79.451 206.449 79.7435 206.428Z" fill="url(#paint14_linear_4950_385051)"/>
<path d="M84.9784 207.087C84.0571 206.416 82.4949 206.907 82.2245 207.858C81.9842 208.689 82.7553 209.771 83.7066 210.011C84.3175 210.152 85.2188 210.001 85.5993 209.28C85.9999 208.509 85.5893 207.528 84.9784 207.087ZM85.3789 209.07C85.0484 209.671 84.2773 209.791 83.7566 209.671C82.9355 209.481 82.2746 208.579 82.4849 207.898C82.7152 207.117 84.0471 206.717 84.8482 207.267C85.369 207.628 85.7194 208.429 85.3789 209.07Z" fill="url(#paint15_linear_4950_385051)"/>
<path d="M85.3791 209.07C85.0486 209.671 84.2776 209.791 83.7568 209.671C82.9357 209.481 82.2748 208.579 82.4851 207.898C82.7155 207.117 84.0473 206.717 84.8485 207.267C85.3692 207.628 85.7196 208.429 85.3791 209.07Z" fill="#3F552B"/>
<path d="M144.068 212.497C141.158 213.391 139.136 216.97 139.969 220.464C140.739 223.695 143.725 225.901 146.803 225.327C149.815 224.765 151.844 221.743 151.772 218.774C151.674 214.722 147.682 211.386 144.068 212.497Z" fill="url(#paint16_linear_4950_385051)"/>
<path d="M140.725 219.332C139.945 216.321 141.838 213.237 144.561 212.467C147.943 211.509 151.68 214.384 151.772 217.875C151.839 220.434 149.94 223.039 147.121 223.522C144.24 224.017 141.446 222.116 140.725 219.332Z" fill="#808E35"/>
<path d="M140.725 219.332C139.945 216.321 141.838 213.237 144.561 212.467C147.943 211.509 151.68 214.384 151.772 217.875C151.839 220.434 149.94 223.039 147.121 223.522C144.24 224.017 141.446 222.116 140.725 219.332Z" fill="url(#paint17_linear_4950_385051)"/>
<path d="M149.506 214.636C148.579 213.404 146.952 213.448 146.717 213.458C145.507 213.51 144.359 214.191 144.424 214.512C144.498 214.876 146.058 214.342 147.709 215.194C149.171 215.947 149.598 217.214 149.941 217.053C150.271 216.898 150.204 215.563 149.506 214.636Z" fill="url(#paint18_linear_4950_385051)"/>
<path d="M141.983 215.954C142.239 215.936 142.017 217.874 143.385 219.571C144.367 220.791 146.074 221.764 147.754 221.592C149.537 221.408 150.589 220.006 150.661 220.094C150.756 220.208 149.176 222.888 146.476 223.001C144.651 223.077 143.052 221.949 142.247 220.622C140.981 218.536 141.689 215.975 141.983 215.954Z" fill="url(#paint19_linear_4950_385051)"/>
<path d="M147.217 216.613C146.296 215.942 144.733 216.432 144.463 217.384C144.223 218.215 144.994 219.296 145.945 219.537C146.556 219.677 147.457 219.527 147.838 218.806C148.238 218.034 147.828 217.052 147.217 216.613ZM147.617 218.594C147.287 219.195 146.516 219.315 145.995 219.195C145.174 219.005 144.513 218.104 144.723 217.423C144.954 216.642 146.286 216.241 147.087 216.792C147.608 217.152 147.958 217.954 147.617 218.594Z" fill="url(#paint20_linear_4950_385051)"/>
<path d="M147.618 218.594C147.287 219.195 146.516 219.315 145.995 219.195C145.174 219.005 144.513 218.104 144.724 217.423C144.954 216.642 146.286 216.241 147.087 216.792C147.608 217.152 147.958 217.953 147.618 218.594Z" fill="#3F552B"/>
<path d="M167.041 202.34C164.132 203.235 162.109 206.814 162.943 210.308C163.713 213.538 166.699 215.744 169.777 215.171C172.788 214.609 174.817 211.586 174.746 208.617C174.647 204.567 170.654 201.23 167.041 202.34Z" fill="url(#paint21_linear_4950_385051)"/>
<path d="M163.699 209.176C162.919 206.165 164.812 203.081 167.535 202.31C170.917 201.353 174.654 204.228 174.745 207.719C174.812 210.278 172.914 212.882 170.095 213.366C167.214 213.862 164.419 211.961 163.699 209.176Z" fill="#808E35"/>
<path d="M163.699 209.176C162.919 206.165 164.812 203.081 167.535 202.31C170.917 201.353 174.654 204.228 174.745 207.719C174.812 210.278 172.914 212.882 170.095 213.366C167.214 213.862 164.419 211.961 163.699 209.176Z" fill="url(#paint22_linear_4950_385051)"/>
<path d="M172.48 204.481C171.552 203.249 169.926 203.293 169.691 203.303C168.481 203.355 167.333 204.036 167.398 204.356C167.472 204.721 169.032 204.187 170.683 205.038C172.144 205.791 172.572 207.059 172.914 206.898C173.244 206.743 173.178 205.407 172.48 204.481Z" fill="url(#paint23_linear_4950_385051)"/>
<path d="M164.957 205.798C165.213 205.78 164.991 207.719 166.359 209.415C167.341 210.635 169.047 211.608 170.728 211.436C172.511 211.253 173.563 209.851 173.635 209.938C173.73 210.052 172.15 212.732 169.45 212.845C167.624 212.921 166.026 211.794 165.221 210.467C163.955 208.381 164.663 205.819 164.957 205.798Z" fill="url(#paint24_linear_4950_385051)"/>
<path d="M170.191 206.456C169.269 205.785 167.707 206.276 167.437 207.227C167.197 208.059 167.968 209.14 168.919 209.38C169.53 209.521 170.431 209.37 170.812 208.649C171.212 207.878 170.802 206.897 170.191 206.456ZM170.591 208.439C170.261 209.04 169.49 209.16 168.969 209.04C168.148 208.85 167.487 207.948 167.697 207.267C167.928 206.486 169.259 206.086 170.061 206.637C170.581 206.997 170.932 207.798 170.591 208.439Z" fill="url(#paint25_linear_4950_385051)"/>
<path d="M170.592 208.439C170.261 209.04 169.49 209.16 168.969 209.04C168.148 208.85 167.487 207.948 167.697 207.267C167.928 206.486 169.26 206.086 170.061 206.637C170.581 206.997 170.932 207.798 170.592 208.439Z" fill="#3F552B"/>
<path d="M101.269 205.929C98.3594 206.823 96.3366 210.402 97.1698 213.896C97.9398 217.126 100.926 219.332 104.004 218.759C107.016 218.197 109.044 215.175 108.973 212.205C108.875 208.154 104.883 204.818 101.269 205.929Z" fill="url(#paint26_linear_4950_385051)"/>
<path d="M97.9259 212.764C97.1458 209.753 99.0395 206.669 101.762 205.899C105.144 204.941 108.881 207.816 108.972 211.307C109.04 213.866 107.141 216.47 104.322 216.954C101.441 217.449 98.6469 215.548 97.9259 212.764Z" fill="#808E35"/>
<path d="M97.9259 212.764C97.1458 209.753 99.0395 206.669 101.762 205.899C105.144 204.941 108.881 207.816 108.972 211.307C109.04 213.866 107.141 216.47 104.322 216.954C101.441 217.449 98.6469 215.548 97.9259 212.764Z" fill="url(#paint27_linear_4950_385051)"/>
<path d="M106.707 208.068C105.78 206.836 104.155 206.88 103.919 206.89C102.709 206.942 101.56 207.623 101.625 207.943C101.699 208.308 103.26 207.774 104.911 208.625C106.372 209.378 106.8 210.646 107.142 210.485C107.473 210.33 107.405 208.994 106.707 208.068Z" fill="url(#paint28_linear_4950_385051)"/>
<path d="M99.1837 209.385C99.44 209.367 99.2178 211.306 100.586 213.002C101.568 214.222 103.275 215.196 104.955 215.023C106.738 214.84 107.79 213.438 107.862 213.525C107.957 213.639 106.377 216.319 103.677 216.432C101.851 216.508 100.253 215.381 99.4481 214.054C98.1823 211.968 98.8903 209.406 99.1837 209.385Z" fill="url(#paint29_linear_4950_385051)"/>
<path d="M104.419 210.043C103.498 209.372 101.935 209.863 101.665 210.814C101.425 211.646 102.196 212.727 103.147 212.967C103.758 213.108 104.659 212.957 105.04 212.236C105.44 211.465 105.03 210.484 104.419 210.043ZM104.819 212.026C104.489 212.627 103.718 212.747 103.197 212.627C102.376 212.437 101.715 211.535 101.925 210.855C102.156 210.073 103.488 209.673 104.289 210.224C104.809 210.584 105.16 211.385 104.819 212.026Z" fill="url(#paint30_linear_4950_385051)"/>
<path d="M104.82 212.026C104.489 212.627 103.718 212.747 103.197 212.627C102.376 212.437 101.715 211.535 101.926 210.854C102.156 210.073 103.488 209.673 104.289 210.224C104.81 210.584 105.16 211.385 104.82 212.026Z" fill="#3F552B"/>
<path d="M127.884 221.076C124.975 221.97 122.952 225.549 123.784 229.043C124.555 232.274 127.541 234.48 130.619 233.906C133.63 233.344 135.659 230.322 135.588 227.353C135.491 223.302 131.497 219.965 127.884 221.076Z" fill="url(#paint31_linear_4950_385051)"/>
<path d="M124.542 227.912C123.761 224.9 125.655 221.816 128.378 221.046C131.76 220.088 135.497 222.964 135.588 226.454C135.655 229.013 133.756 231.618 130.937 232.101C128.056 232.597 125.263 230.695 124.542 227.912Z" fill="#808E35"/>
<path d="M124.542 227.912C123.761 224.9 125.655 221.816 128.378 221.046C131.76 220.088 135.497 222.964 135.588 226.454C135.655 229.013 133.756 231.618 130.937 232.101C128.056 232.597 125.263 230.695 124.542 227.912Z" fill="url(#paint32_linear_4950_385051)"/>
<path d="M133.323 223.216C132.396 221.984 130.77 222.028 130.534 222.038C129.324 222.09 128.176 222.771 128.241 223.092C128.315 223.456 129.875 222.922 131.527 223.774C132.988 224.527 133.415 225.794 133.758 225.633C134.087 225.478 134.021 224.142 133.323 223.216Z" fill="url(#paint33_linear_4950_385051)"/>
<path d="M125.799 224.533C126.056 224.515 125.833 226.453 127.201 228.15C128.184 229.369 129.89 230.343 131.57 230.171C133.354 229.987 134.405 228.585 134.478 228.673C134.573 228.787 132.992 231.467 130.293 231.58C128.467 231.656 126.869 230.528 126.064 229.201C124.798 227.115 125.506 224.554 125.799 224.533Z" fill="url(#paint34_linear_4950_385051)"/>
<path d="M131.034 225.192C130.112 224.521 128.55 225.011 128.28 225.963C128.039 226.794 128.81 227.875 129.762 228.116C130.373 228.256 131.274 228.106 131.654 227.385C132.055 226.614 131.644 225.632 131.034 225.192ZM131.434 227.174C131.104 227.775 130.332 227.895 129.812 227.775C128.991 227.585 128.33 226.684 128.54 226.003C128.77 225.222 130.102 224.821 130.903 225.372C131.424 225.732 131.775 226.534 131.434 227.174Z" fill="url(#paint35_linear_4950_385051)"/>
<path d="M131.434 227.174C131.104 227.775 130.333 227.895 129.812 227.775C128.991 227.585 128.33 226.684 128.54 226.003C128.771 225.222 130.102 224.821 130.904 225.372C131.424 225.732 131.775 226.534 131.434 227.174Z" fill="#3F552B"/>
<path opacity="0.46" d="M153.256 178.058C150.824 191.852 148.906 198.694 147.501 198.591C146.207 198.496 145.348 192.503 144.925 180.614C145.237 180.078 146.114 178.74 147.833 177.97C150.435 176.803 152.868 177.879 153.256 178.058Z" fill="url(#paint36_linear_4950_385051)"/>
<path d="M153.256 178.058C153.807 178.751 153.913 179.511 153.97 179.965C154.546 184.538 155.082 188.801 153.443 189.482C151.282 190.38 146.95 184.374 146.246 183.398C145.668 182.597 145.301 181.729 145.301 181.729C145.152 181.379 144.973 180.958 144.924 180.615C144.737 179.316 146.188 177.714 147.734 177.048C149.604 176.241 152.096 176.598 153.256 178.058Z" fill="#808E35"/>
<path d="M154.521 186.636V186.666C154.471 188.139 154.181 189.17 153.44 189.48C151.287 190.382 146.951 184.373 146.25 183.402C145.669 182.601 145.299 181.73 145.299 181.73C145.148 181.379 144.978 180.958 144.928 180.618C144.738 179.316 146.19 177.714 147.732 177.043C148.132 176.873 148.553 176.752 148.994 176.692C150.606 176.442 152.348 176.913 153.26 178.054C153.81 178.755 153.911 179.506 153.971 179.967C154.281 182.461 154.582 184.854 154.521 186.636Z" fill="url(#paint37_linear_4950_385051)"/>
<path d="M153.659 188.367C152.664 188.629 148.376 179.132 150.222 177.749C150.758 177.346 151.655 177.752 151.748 177.796C153.213 178.481 153.426 180.793 153.696 184.182C153.912 186.893 154.022 188.271 153.659 188.367Z" fill="url(#paint38_linear_4950_385051)"/>
<path d="M154.521 186.666C154.471 188.138 154.181 189.17 153.44 189.48C151.287 190.382 146.951 184.373 146.25 183.402C145.669 182.601 145.299 181.729 145.299 181.729C145.148 181.379 144.978 180.958 144.928 180.618C144.738 179.316 146.19 177.714 147.732 177.043C148.132 176.873 148.553 176.752 148.994 176.692C148.413 177.123 146.991 178.295 146.761 180.097C146.55 181.79 147.502 183.051 149.064 185.124C150.276 186.737 152.238 189.34 153.5 188.89C154.181 188.659 154.401 187.638 154.521 186.666Z" fill="url(#paint39_linear_4950_385051)"/>
<path opacity="0.46" d="M116.72 155.776C119.151 169.569 121.069 176.412 122.474 176.309C123.768 176.214 124.628 170.22 125.05 158.332C124.738 157.796 123.862 156.458 122.142 155.688C119.54 154.522 117.106 155.597 116.72 155.776Z" fill="url(#paint40_linear_4950_385051)"/>
<path d="M116.719 155.776C116.169 156.469 116.062 157.229 116.005 157.683C115.43 162.256 114.893 166.519 116.531 167.2C118.692 168.097 123.024 162.092 123.728 161.115C124.306 160.314 124.674 159.447 124.674 159.447C124.822 159.097 125.001 158.676 125.05 158.333C125.238 157.034 123.786 155.431 122.24 154.766C120.371 153.959 117.879 154.316 116.719 155.776Z" fill="#808E35"/>
<path d="M115.454 164.354V164.384C115.504 165.856 115.794 166.888 116.535 167.198C118.688 168.099 123.024 162.091 123.725 161.12C124.306 160.318 124.676 159.447 124.676 159.447C124.827 159.097 124.997 158.676 125.047 158.336C125.237 157.034 123.785 155.431 122.243 154.761C121.842 154.59 121.422 154.47 120.981 154.41C119.369 154.16 117.626 154.63 116.715 155.772C116.164 156.473 116.064 157.224 116.004 157.685C115.694 160.178 115.393 162.572 115.454 164.354Z" fill="url(#paint41_linear_4950_385051)"/>
<path d="M116.316 166.085C117.311 166.347 121.599 156.85 119.754 155.467C119.217 155.064 118.321 155.47 118.228 155.514C116.763 156.199 116.549 158.511 116.279 161.9C116.064 164.61 115.954 165.989 116.316 166.085Z" fill="url(#paint42_linear_4950_385051)"/>
<path d="M115.454 164.384C115.504 165.856 115.794 166.888 116.535 167.198C118.688 168.099 123.024 162.091 123.725 161.12C124.306 160.318 124.677 159.447 124.677 159.447C124.827 159.097 124.997 158.676 125.047 158.336C125.237 157.034 123.785 155.432 122.243 154.761C121.843 154.59 121.422 154.47 120.981 154.41C121.562 154.841 122.984 156.012 123.215 157.815C123.425 159.507 122.473 160.769 120.911 162.842C119.7 164.454 117.737 167.058 116.475 166.607C115.794 166.377 115.574 165.356 115.454 164.384Z" fill="url(#paint43_linear_4950_385051)"/>
<path opacity="0.46" d="M145.776 156.539C143.345 170.333 141.427 177.175 140.022 177.072C138.727 176.977 137.868 170.983 137.446 159.095C137.758 158.559 138.634 157.221 140.354 156.451C142.956 155.285 145.39 156.36 145.776 156.539Z" fill="url(#paint44_linear_4950_385051)"/>
<path d="M145.776 156.539C146.327 157.232 146.433 157.992 146.49 158.446C147.066 163.019 147.603 167.282 145.964 167.963C143.803 168.86 139.471 162.855 138.767 161.879C138.189 161.077 137.822 160.21 137.822 160.21C137.674 159.86 137.494 159.439 137.445 159.096C137.258 157.797 138.709 156.195 140.255 155.529C142.125 154.722 144.616 155.079 145.776 156.539Z" fill="#808E35"/>
<path d="M147.042 165.117V165.147C146.992 166.619 146.701 167.651 145.96 167.961C143.807 168.862 139.471 162.854 138.77 161.883C138.189 161.081 137.819 160.21 137.819 160.21C137.669 159.86 137.498 159.439 137.448 159.099C137.258 157.797 138.71 156.195 140.252 155.524C140.653 155.353 141.073 155.233 141.514 155.173C143.126 154.923 144.869 155.393 145.78 156.535C146.331 157.236 146.431 157.987 146.491 158.448C146.801 160.941 147.102 163.335 147.042 165.117Z" fill="url(#paint45_linear_4950_385051)"/>
<path d="M146.181 166.848C145.185 167.11 140.897 157.613 142.743 156.23C143.28 155.827 144.176 156.233 144.269 156.277C145.734 156.962 145.947 159.274 146.218 162.663C146.432 165.373 146.542 166.752 146.181 166.848Z" fill="url(#paint46_linear_4950_385051)"/>
<path d="M147.042 165.147C146.992 166.619 146.701 167.651 145.96 167.961C143.807 168.862 139.471 162.854 138.77 161.883C138.189 161.081 137.819 160.21 137.819 160.21C137.669 159.86 137.498 159.439 137.448 159.099C137.258 157.797 138.71 156.195 140.252 155.524C140.653 155.353 141.073 155.233 141.514 155.173C140.933 155.604 139.511 156.775 139.281 158.578C139.07 160.27 140.022 161.532 141.584 163.605C142.796 165.217 144.758 167.821 146.02 167.37C146.701 167.14 146.922 166.119 147.042 165.147Z" fill="url(#paint47_linear_4950_385051)"/>
<path opacity="0.46" d="M168.75 160.808C166.319 174.601 164.401 181.444 162.996 181.341C161.701 181.246 160.842 175.252 160.419 163.363C160.732 162.828 161.608 161.49 163.327 160.72C165.929 159.553 168.362 160.629 168.75 160.808Z" fill="url(#paint48_linear_4950_385051)"/>
<path d="M168.75 160.808C169.301 161.501 169.407 162.261 169.464 162.715C170.04 167.288 170.576 171.551 168.938 172.232C166.777 173.129 162.445 167.124 161.741 166.147C161.163 165.346 160.796 164.479 160.796 164.479C160.647 164.129 160.468 163.708 160.419 163.365C160.232 162.066 161.683 160.463 163.229 159.798C165.099 158.99 167.59 159.348 168.75 160.808Z" fill="#808E35"/>
<path d="M170.016 169.386V169.416C169.965 170.888 169.675 171.92 168.934 172.23C166.781 173.131 162.445 167.123 161.744 166.151C161.163 165.35 160.792 164.479 160.792 164.479C160.642 164.129 160.472 163.708 160.422 163.368C160.232 162.066 161.684 160.464 163.226 159.793C163.627 159.622 164.047 159.502 164.488 159.442C166.1 159.192 167.842 159.662 168.754 160.804C169.305 161.505 169.405 162.256 169.465 162.717C169.775 165.21 170.076 167.604 170.016 169.386Z" fill="url(#paint49_linear_4950_385051)"/>
<path d="M169.153 171.117C168.158 171.379 163.87 161.882 165.716 160.499C166.252 160.096 167.149 160.502 167.242 160.546C168.707 161.231 168.92 163.543 169.19 166.932C169.406 169.642 169.516 171.02 169.153 171.117Z" fill="url(#paint50_linear_4950_385051)"/>
<path d="M170.016 169.416C169.965 170.888 169.675 171.92 168.934 172.23C166.781 173.131 162.445 167.123 161.744 166.151C161.163 165.35 160.792 164.479 160.792 164.479C160.642 164.129 160.472 163.708 160.422 163.368C160.232 162.066 161.684 160.463 163.226 159.793C163.627 159.622 164.047 159.502 164.488 159.442C163.907 159.873 162.485 161.044 162.255 162.847C162.044 164.539 162.996 165.801 164.558 167.874C165.77 169.486 167.732 172.09 168.994 171.639C169.675 171.409 169.895 170.387 170.016 169.416Z" fill="url(#paint51_linear_4950_385051)"/>
<path opacity="0.46" d="M133.084 177.295C130.652 191.089 128.735 197.931 127.33 197.828C126.035 197.733 125.175 191.74 124.753 179.851C125.065 179.315 125.942 177.977 127.661 177.207C130.263 176.041 132.696 177.116 133.084 177.295Z" fill="url(#paint52_linear_4950_385051)"/>
<path d="M133.083 177.295C133.634 177.988 133.74 178.748 133.797 179.202C134.373 183.775 134.91 188.038 133.272 188.719C131.111 189.617 126.779 183.611 126.075 182.635C125.497 181.834 125.129 180.966 125.129 180.966C124.981 180.616 124.802 180.195 124.753 179.852C124.565 178.553 126.016 176.951 127.563 176.285C129.431 175.478 131.923 175.834 133.083 177.295Z" fill="#808E35"/>
<path d="M134.348 185.873V185.903C134.298 187.375 134.008 188.407 133.267 188.717C131.114 189.619 126.777 183.61 126.076 182.639C125.496 181.838 125.125 180.966 125.125 180.966C124.975 180.616 124.805 180.195 124.755 179.855C124.564 178.553 126.016 176.951 127.558 176.28C127.959 176.11 128.38 175.989 128.82 175.929C130.432 175.679 132.175 176.15 133.086 177.291C133.637 177.992 133.737 178.743 133.797 179.204C134.108 181.697 134.408 184.091 134.348 185.873Z" fill="url(#paint53_linear_4950_385051)"/>
<path d="M133.487 187.603C132.492 187.865 128.204 178.368 130.049 176.985C130.586 176.582 131.482 176.988 131.575 177.032C133.04 177.717 133.254 180.029 133.524 183.418C133.739 186.13 133.848 187.508 133.487 187.603Z" fill="url(#paint54_linear_4950_385051)"/>
<path d="M134.348 185.903C134.298 187.376 134.008 188.407 133.267 188.717C131.114 189.619 126.777 183.61 126.076 182.639C125.496 181.838 125.125 180.966 125.125 180.966C124.975 180.616 124.805 180.195 124.755 179.855C124.564 178.553 126.016 176.951 127.558 176.28C127.959 176.11 128.38 175.99 128.82 175.929C128.239 176.36 126.817 177.532 126.587 179.334C126.377 181.027 127.328 182.288 128.89 184.361C130.102 185.974 132.065 188.577 133.327 188.127C134.008 187.896 134.228 186.875 134.348 185.903Z" fill="url(#paint55_linear_4950_385051)"/>
<path opacity="0.46" d="M107.496 181.46C109.928 195.254 111.845 202.096 113.25 201.993C114.545 201.898 115.403 195.905 115.827 184.016C115.514 183.48 114.638 182.142 112.919 181.372C110.317 180.206 107.884 181.282 107.496 181.46Z" fill="url(#paint56_linear_4950_385051)"/>
<path d="M107.496 181.46C106.946 182.153 106.839 182.913 106.782 183.367C106.207 187.94 105.67 192.203 107.309 192.884C109.47 193.781 113.802 187.776 114.506 186.8C115.084 185.999 115.452 185.131 115.452 185.131C115.6 184.781 115.779 184.36 115.828 184.017C116.015 182.718 114.564 181.116 113.018 180.45C111.149 179.644 108.657 180 107.496 181.46Z" fill="#808E35"/>
<path d="M106.232 190.038V190.068C106.282 191.54 106.572 192.572 107.313 192.882C109.466 193.783 113.802 187.775 114.503 186.804C115.084 186.003 115.455 185.131 115.455 185.131C115.605 184.781 115.775 184.36 115.825 184.02C116.015 182.718 114.563 181.116 113.021 180.445C112.621 180.274 112.2 180.154 111.759 180.094C110.147 179.844 108.405 180.314 107.493 181.456C106.943 182.157 106.842 182.908 106.782 183.369C106.472 185.862 106.171 188.256 106.232 190.038Z" fill="url(#paint57_linear_4950_385051)"/>
<path d="M107.093 191.769C108.088 192.031 112.376 182.534 110.53 181.151C109.994 180.748 109.097 181.154 109.004 181.198C107.539 181.883 107.326 184.195 107.056 187.584C106.84 190.295 106.73 191.674 107.093 191.769Z" fill="url(#paint58_linear_4950_385051)"/>
<path d="M106.232 190.068C106.282 191.54 106.572 192.572 107.313 192.882C109.466 193.783 113.802 187.775 114.503 186.804C115.084 186.003 115.455 185.131 115.455 185.131C115.605 184.781 115.775 184.36 115.825 184.02C116.016 182.718 114.563 181.116 113.021 180.445C112.621 180.274 112.2 180.154 111.759 180.094C112.34 180.525 113.762 181.696 113.993 183.499C114.203 185.191 113.252 186.453 111.689 188.526C110.478 190.138 108.515 192.742 107.253 192.291C106.572 192.061 106.352 191.04 106.232 190.068Z" fill="url(#paint59_linear_4950_385051)"/>
<path opacity="0.46" d="M94.604 160.817C97.0354 174.611 98.953 181.453 100.358 181.35C101.653 181.255 102.511 175.261 102.935 163.373C102.622 162.837 101.746 161.499 100.027 160.729C97.425 159.563 94.9915 160.639 94.604 160.817Z" fill="url(#paint60_linear_4950_385051)"/>
<path d="M94.6042 160.817C94.0534 161.51 93.9472 162.27 93.8902 162.724C93.3143 167.297 92.7776 171.56 94.4169 172.241C96.5779 173.138 100.91 167.133 101.614 166.157C102.192 165.355 102.559 164.488 102.559 164.488C102.708 164.138 102.887 163.717 102.936 163.374C103.123 162.075 101.672 160.473 100.126 159.807C98.2554 159 95.7638 159.357 94.6042 160.817Z" fill="#808E35"/>
<path d="M93.3384 169.395V169.425C93.3885 170.897 93.679 171.929 94.42 172.239C96.573 173.14 100.909 167.132 101.61 166.161C102.191 165.359 102.561 164.488 102.561 164.488C102.712 164.138 102.882 163.717 102.932 163.377C103.122 162.075 101.67 160.472 100.128 159.802C99.7274 159.631 99.3068 159.511 98.8662 159.451C97.2539 159.201 95.5115 159.671 94.6002 160.813C94.0494 161.514 93.9493 162.265 93.8892 162.726C93.5788 165.219 93.2783 167.613 93.3384 169.395Z" fill="url(#paint61_linear_4950_385051)"/>
<path d="M94.2004 171.126C95.1958 171.388 99.4839 161.891 97.6383 160.508C97.1015 160.105 96.2052 160.511 96.1121 160.555C94.647 161.24 94.4338 163.552 94.1634 166.941C93.9481 169.652 93.8379 171.03 94.2004 171.126Z" fill="url(#paint62_linear_4950_385051)"/>
<path d="M93.3385 169.425C93.3886 170.897 93.6791 171.929 94.4201 172.239C96.5731 173.14 100.909 167.132 101.61 166.161C102.191 165.359 102.562 164.488 102.562 164.488C102.712 164.138 102.882 163.717 102.932 163.377C103.122 162.075 101.67 160.473 100.128 159.802C99.7275 159.631 99.3069 159.511 98.8663 159.451C99.4471 159.882 100.869 161.053 101.099 162.856C101.31 164.548 100.358 165.81 98.7963 167.883C97.5846 169.495 95.6217 172.099 94.36 171.648C93.679 171.418 93.4587 170.397 93.3385 169.425Z" fill="url(#paint63_linear_4950_385051)"/>
<path d="M124.072 338.155C123.104 338.155 122.253 337.452 122.096 336.464C120.629 327.195 122.454 317.882 124.218 308.876C126.069 299.431 127.816 290.511 126.105 281.632C125.724 279.658 125.178 277.733 124.601 275.694C123.72 272.578 122.808 269.356 122.546 265.98C122.291 262.696 122.667 259.461 123.03 256.333C123.263 254.336 123.482 252.449 123.552 250.542C123.671 247.319 123.292 241.441 119.412 238.29C118.554 237.593 118.423 236.331 119.12 235.473C119.818 234.614 121.082 234.486 121.937 235.181C125.812 238.33 127.807 243.838 127.555 250.691C127.479 252.756 127.24 254.809 127.009 256.796C126.651 259.871 126.314 262.775 126.538 265.672C126.769 268.65 127.588 271.542 128.455 274.604C129.029 276.633 129.624 278.732 130.036 280.874C131.895 290.518 129.99 300.242 128.147 309.647C126.372 318.71 124.695 327.27 126.051 335.838C126.224 336.931 125.478 337.956 124.385 338.13C124.281 338.147 124.176 338.155 124.072 338.155Z" fill="#808E35"/>
<path d="M124.072 338.155C123.104 338.155 122.253 337.452 122.096 336.464C120.629 327.195 122.454 317.882 124.218 308.876C126.069 299.431 127.816 290.511 126.105 281.632C125.724 279.658 125.178 277.733 124.601 275.694C123.72 272.578 122.808 269.356 122.546 265.98C122.291 262.696 122.667 259.461 123.03 256.333C123.263 254.336 123.482 252.449 123.552 250.542C123.671 247.319 123.292 241.441 119.412 238.29C118.554 237.593 118.423 236.331 119.12 235.473C119.818 234.614 121.082 234.486 121.937 235.181C125.812 238.33 127.807 243.838 127.555 250.691C127.479 252.756 127.24 254.809 127.009 256.796C126.651 259.871 126.314 262.775 126.538 265.672C126.769 268.65 127.588 271.542 128.455 274.604C129.029 276.633 129.624 278.732 130.036 280.874C131.895 290.518 129.99 300.242 128.147 309.647C126.372 318.71 124.695 327.27 126.051 335.838C126.224 336.931 125.478 337.956 124.385 338.13C124.281 338.147 124.176 338.155 124.072 338.155Z" fill="url(#paint64_linear_4950_385051)"/>
<path d="M165.159 366C164.156 366 163.29 365.247 163.173 364.226C162.258 356.263 162.621 348.045 162.972 340.096C163.581 326.281 164.159 313.234 158.591 301.466C157.081 298.276 155.182 295.338 153.171 292.229C151.344 289.404 149.454 286.482 147.903 283.375C141.488 270.517 141.382 255.889 141.281 241.744C141.258 238.447 141.233 235.039 141.126 231.737C141.09 230.631 141.957 229.707 143.063 229.671C144.134 229.623 145.093 230.503 145.129 231.609C145.237 234.96 145.262 238.394 145.286 241.716C145.386 255.405 145.487 269.561 151.488 281.588C152.938 284.494 154.766 287.321 156.534 290.054C158.527 293.136 160.589 296.324 162.211 299.754C168.203 312.419 167.578 326.579 166.974 340.274C166.63 348.066 166.274 356.122 167.153 363.77C167.279 364.869 166.491 365.862 165.392 365.989C165.313 365.996 165.236 366 165.159 366Z" fill="#808E35"/>
<path d="M165.159 366C164.156 366 163.29 365.247 163.173 364.226C162.258 356.263 162.621 348.045 162.972 340.096C163.581 326.281 164.159 313.234 158.591 301.466C157.081 298.276 155.182 295.338 153.171 292.229C151.344 289.404 149.454 286.482 147.903 283.375C141.488 270.517 141.382 255.889 141.281 241.744C141.258 238.447 141.233 235.039 141.126 231.737C141.09 230.631 141.957 229.707 143.063 229.671C144.134 229.623 145.093 230.503 145.129 231.609C145.237 234.96 145.262 238.394 145.286 241.716C145.386 255.405 145.487 269.561 151.488 281.588C152.938 284.494 154.766 287.321 156.534 290.054C158.527 293.136 160.589 296.324 162.211 299.754C168.203 312.419 167.578 326.579 166.974 340.274C166.63 348.066 166.274 356.122 167.153 363.77C167.279 364.869 166.491 365.862 165.392 365.989C165.313 365.996 165.236 366 165.159 366Z" fill="url(#paint65_linear_4950_385051)"/>
<path d="M173.56 340.921C173.517 340.921 173.474 340.92 173.43 340.917C172.326 340.846 171.49 339.894 171.56 338.79L173.539 307.951C173.757 304.568 173.98 301.07 175.119 297.665C176.155 294.562 177.86 291.836 179.51 289.199C180.127 288.213 180.744 287.226 181.323 286.223C183.997 281.59 185.45 277.142 185.643 273C185.87 268.172 184.331 263.698 181.423 260.724C179.372 258.627 176.642 257.206 173.751 255.701C169.888 253.688 165.893 251.608 163.382 247.717C161.108 244.192 160.637 239.967 160.478 236.298C160.233 230.68 160.591 225.019 161.545 219.476C161.732 218.385 162.766 217.645 163.858 217.841C164.948 218.029 165.679 219.064 165.492 220.155C164.588 225.417 164.247 230.79 164.48 236.124C164.616 239.256 164.992 242.824 166.749 245.544C168.686 248.545 172.045 250.294 175.602 252.148C178.645 253.731 181.79 255.369 184.288 257.923C187.972 261.689 189.925 267.252 189.647 273.187C189.423 277.973 187.79 283.032 184.794 288.225C184.191 289.27 183.55 290.295 182.908 291.323C181.311 293.874 179.804 296.283 178.919 298.935C177.946 301.847 177.739 305.081 177.539 308.209L175.559 339.047C175.489 340.106 174.608 340.921 173.56 340.921Z" fill="#808E35"/>
<path d="M173.56 340.921C173.517 340.921 173.474 340.92 173.43 340.917C172.326 340.846 171.49 339.894 171.56 338.79L173.539 307.951C173.757 304.568 173.98 301.07 175.119 297.665C176.155 294.562 177.86 291.836 179.51 289.199C180.127 288.213 180.744 287.226 181.323 286.223C183.997 281.59 185.45 277.142 185.643 273C185.87 268.172 184.331 263.698 181.423 260.724C179.372 258.627 176.642 257.206 173.751 255.701C169.888 253.688 165.893 251.608 163.382 247.717C161.108 244.192 160.637 239.967 160.478 236.298C160.233 230.68 160.591 225.019 161.545 219.476C161.732 218.385 162.766 217.645 163.858 217.841C164.948 218.029 165.679 219.064 165.492 220.155C164.588 225.417 164.247 230.79 164.48 236.124C164.616 239.256 164.992 242.824 166.749 245.544C168.686 248.545 172.045 250.294 175.602 252.148C178.645 253.731 181.79 255.369 184.288 257.923C187.972 261.689 189.925 267.252 189.647 273.187C189.423 277.973 187.79 283.032 184.794 288.225C184.191 289.27 183.55 290.295 182.908 291.323C181.311 293.874 179.804 296.283 178.919 298.935C177.946 301.847 177.739 305.081 177.539 308.209L175.559 339.047C175.489 340.106 174.608 340.921 173.56 340.921Z" fill="url(#paint66_linear_4950_385051)"/>
<path d="M81.6757 346.879C81.6487 346.879 81.6207 346.878 81.5937 346.877C80.4881 346.832 79.6289 345.9 79.674 344.795L81.0739 310.449C81.2061 307.22 81.3543 303.562 82.5399 300.158C83.7236 296.754 85.8066 293.893 87.8214 291.126C88.241 290.55 88.6606 289.975 89.0701 289.395C97.6172 277.313 102.429 262.508 102.618 247.71C102.636 246.329 102.615 244.944 102.596 243.559C102.537 239.548 102.477 235.401 103.329 231.314C105.579 220.533 113.749 212.115 120.313 205.352C121.085 204.557 122.352 204.539 123.145 205.309C123.939 206.08 123.958 207.347 123.188 208.141C116.985 214.534 109.264 222.489 107.251 232.131C106.488 235.785 106.543 239.533 106.601 243.499C106.622 244.921 106.642 246.343 106.624 247.76C106.424 263.362 101.35 278.969 92.3398 291.708C91.9192 292.302 91.4885 292.894 91.0589 293.484C89.1312 296.132 87.3106 298.631 86.3222 301.474C85.3329 304.319 85.2027 307.518 85.0755 310.612L83.6756 344.957C83.6315 346.035 82.7442 346.879 81.6757 346.879Z" fill="#808E35"/>
<path d="M81.6757 346.879C81.6487 346.879 81.6207 346.878 81.5937 346.877C80.4881 346.832 79.6289 345.9 79.674 344.795L81.0739 310.449C81.2061 307.22 81.3543 303.562 82.5399 300.158C83.7236 296.754 85.8066 293.893 87.8214 291.126C88.241 290.55 88.6606 289.975 89.0701 289.395C97.6172 277.313 102.429 262.508 102.618 247.71C102.636 246.329 102.615 244.944 102.596 243.559C102.537 239.548 102.477 235.401 103.329 231.314C105.579 220.533 113.749 212.115 120.313 205.352C121.085 204.557 122.352 204.539 123.145 205.309C123.939 206.08 123.958 207.347 123.188 208.141C116.985 214.534 109.264 222.489 107.251 232.131C106.488 235.785 106.543 239.533 106.601 243.499C106.622 244.921 106.642 246.343 106.624 247.76C106.424 263.362 101.35 278.969 92.3398 291.708C91.9192 292.302 91.4885 292.894 91.0589 293.484C89.1312 296.132 87.3106 298.631 86.3222 301.474C85.3329 304.319 85.2027 307.518 85.0755 310.612L83.6756 344.957C83.6315 346.035 82.7442 346.879 81.6757 346.879Z" fill="url(#paint67_linear_4950_385051)"/>
<path d="M75.3663 297.5C74.3879 297.5 73.5326 296.783 73.3864 295.786C71.7161 284.335 75.9981 273.466 80.14 262.955C83.4646 254.516 86.9025 245.79 87.1178 236.966C87.1709 234.753 87.0266 232.56 86.8754 230.236C86.6781 227.218 86.4738 224.097 86.7452 220.961C87.5203 212.018 92.3081 203.515 99.5493 198.214C100.445 197.56 101.695 197.755 102.349 198.647C103.002 199.541 102.808 200.794 101.916 201.447C95.5927 206.075 91.4128 213.499 90.7348 221.307C90.4895 224.139 90.6748 226.973 90.8721 229.974C91.0233 232.284 91.1805 234.67 91.1214 237.063C90.891 246.598 87.3201 255.659 83.8673 264.422C79.7364 274.908 75.8349 284.811 77.351 295.206C77.5102 296.302 76.7522 297.317 75.6587 297.479C75.5595 297.493 75.4624 297.5 75.3663 297.5Z" fill="#808E35"/>
<path d="M75.3663 297.5C74.3879 297.5 73.5326 296.783 73.3864 295.786C71.7161 284.335 75.9981 273.466 80.14 262.955C83.4646 254.516 86.9025 245.79 87.1178 236.966C87.1709 234.753 87.0266 232.56 86.8754 230.236C86.6781 227.218 86.4738 224.097 86.7452 220.961C87.5203 212.018 92.3081 203.515 99.5493 198.214C100.445 197.56 101.695 197.755 102.349 198.647C103.002 199.541 102.808 200.794 101.916 201.447C95.5927 206.075 91.4128 213.499 90.7348 221.307C90.4895 224.139 90.6748 226.973 90.8721 229.974C91.0233 232.284 91.1805 234.67 91.1214 237.063C90.891 246.598 87.3201 255.659 83.8673 264.422C79.7364 274.908 75.8349 284.811 77.351 295.206C77.5102 296.302 76.7522 297.317 75.6587 297.479C75.5595 297.493 75.4624 297.5 75.3663 297.5Z" fill="url(#paint68_linear_4950_385051)"/>
<path d="M112.335 342.191C111.423 342.191 110.599 341.564 110.385 340.637C109.238 335.644 109.364 330.545 109.487 325.614C109.587 321.633 109.681 317.874 109.164 314.142C108.874 312.043 108.396 309.994 107.891 307.824C107.312 305.341 106.713 302.773 106.426 300.138C105.602 292.594 107.367 285.214 109.076 278.077C110.252 273.159 111.47 268.074 111.778 263.08C111.931 260.612 111.869 258.053 111.806 255.578C111.755 253.489 111.702 251.33 111.773 249.178C112.17 237.197 116.495 225.428 123.95 216.039C124.638 215.171 125.897 215.028 126.765 215.716C127.63 216.404 127.775 217.664 127.087 218.531C120.162 227.252 116.146 238.183 115.777 249.312C115.71 251.346 115.761 253.447 115.811 255.479C115.874 258.04 115.939 260.687 115.776 263.328C115.446 268.668 114.187 273.925 112.97 279.009C111.267 286.126 109.657 292.849 110.407 299.703C110.668 302.099 111.214 304.438 111.79 306.914C112.294 309.076 112.815 311.312 113.131 313.591C113.693 317.647 113.59 321.748 113.491 325.712C113.369 330.611 113.254 335.237 114.289 339.738C114.536 340.815 113.863 341.89 112.786 342.138C112.636 342.175 112.483 342.191 112.335 342.191Z" fill="#808E35"/>
<path d="M112.335 342.191C111.423 342.191 110.599 341.564 110.385 340.637C109.238 335.644 109.364 330.545 109.487 325.614C109.587 321.633 109.681 317.874 109.164 314.142C108.874 312.043 108.396 309.994 107.891 307.824C107.312 305.341 106.713 302.773 106.426 300.138C105.602 292.594 107.367 285.214 109.076 278.077C110.252 273.159 111.47 268.074 111.778 263.08C111.931 260.612 111.869 258.053 111.806 255.578C111.755 253.489 111.702 251.33 111.773 249.178C112.17 237.197 116.495 225.428 123.95 216.039C124.638 215.171 125.897 215.028 126.765 215.716C127.63 216.404 127.775 217.664 127.087 218.531C120.162 227.252 116.146 238.183 115.777 249.312C115.71 251.346 115.761 253.447 115.811 255.479C115.874 258.04 115.939 260.687 115.776 263.328C115.446 268.668 114.187 273.925 112.97 279.009C111.267 286.126 109.657 292.849 110.407 299.703C110.668 302.099 111.214 304.438 111.79 306.914C112.294 309.076 112.815 311.312 113.131 313.591C113.693 317.647 113.59 321.748 113.491 325.712C113.369 330.611 113.254 335.237 114.289 339.738C114.536 340.815 113.863 341.89 112.786 342.138C112.636 342.175 112.483 342.191 112.335 342.191Z" fill="url(#paint69_linear_4950_385051)"/>
<path d="M117.381 328.135C117.367 328.135 117.354 328.135 117.34 328.135C116.234 328.113 115.356 327.197 115.377 326.092L116.594 265.471C116.698 260.323 116.805 255.001 118.488 249.866C120.283 244.386 123.684 239.771 126.975 235.308C129.367 232.063 131.84 228.707 133.574 225.134C136.613 218.87 137.553 211.728 138.46 204.821C138.605 203.723 139.601 202.957 140.707 203.096C141.803 203.241 142.576 204.246 142.432 205.343C141.527 212.229 140.501 220.034 137.179 226.882C135.283 230.787 132.699 234.294 130.199 237.685C126.955 242.088 123.89 246.245 122.294 251.114C120.798 255.68 120.697 260.698 120.601 265.552L119.384 326.172C119.36 327.265 118.469 328.135 117.381 328.135Z" fill="#808E35"/>
<path d="M117.381 328.135C117.367 328.135 117.354 328.135 117.34 328.135C116.234 328.113 115.356 327.197 115.377 326.092L116.594 265.471C116.698 260.323 116.805 255.001 118.488 249.866C120.283 244.386 123.684 239.771 126.975 235.308C129.367 232.063 131.84 228.707 133.574 225.134C136.613 218.87 137.553 211.728 138.46 204.821C138.605 203.723 139.601 202.957 140.707 203.096C141.803 203.241 142.576 204.246 142.432 205.343C141.527 212.229 140.501 220.034 137.179 226.882C135.283 230.787 132.699 234.294 130.199 237.685C126.955 242.088 123.89 246.245 122.294 251.114C120.798 255.68 120.697 260.698 120.601 265.552L119.384 326.172C119.36 327.265 118.469 328.135 117.381 328.135Z" fill="url(#paint70_linear_4950_385051)"/>
<path d="M144.977 326.151C143.938 326.151 143.06 325.349 142.983 324.295C142.058 311.826 141.012 297.693 146.552 285.134C147.181 283.707 147.889 282.32 148.575 280.98C149.4 279.367 150.18 277.842 150.834 276.252C155.524 264.858 153.241 252.077 150.021 237.757C149.779 236.679 150.457 235.607 151.537 235.364C152.611 235.12 153.687 235.799 153.93 236.879C157.301 251.874 159.673 265.301 154.538 277.777C153.821 279.518 152.968 281.189 152.142 282.804C151.452 284.155 150.8 285.43 150.217 286.752C145.08 298.395 146.087 311.999 146.976 324.001C147.058 325.104 146.23 326.065 145.127 326.146C145.078 326.149 145.027 326.151 144.977 326.151Z" fill="#808E35"/>
<path d="M144.977 326.151C143.938 326.151 143.06 325.349 142.983 324.295C142.058 311.826 141.012 297.693 146.552 285.134C147.181 283.707 147.889 282.32 148.575 280.98C149.4 279.367 150.18 277.842 150.834 276.252C155.524 264.858 153.241 252.077 150.021 237.757C149.779 236.679 150.457 235.607 151.537 235.364C152.611 235.12 153.687 235.799 153.93 236.879C157.301 251.874 159.673 265.301 154.538 277.777C153.821 279.518 152.968 281.189 152.142 282.804C151.452 284.155 150.8 285.43 150.217 286.752C145.08 298.395 146.087 311.999 146.976 324.001C147.058 325.104 146.23 326.065 145.127 326.146C145.078 326.149 145.027 326.151 144.977 326.151Z" fill="url(#paint71_linear_4950_385051)"/>
<path d="M77.7244 330.069C77.6773 330.069 77.6303 330.067 77.5822 330.064C76.4787 329.987 75.6464 329.031 75.7245 327.926C77.1275 307.842 78.5796 287.075 85.3251 267.54C86.3325 264.623 87.4742 261.678 88.5777 258.831C92.2579 249.337 96.0632 239.518 95.268 229.593C95.1789 228.489 96.0011 227.525 97.1036 227.437C98.2032 227.338 99.1716 228.17 99.2597 229.272C100.129 240.112 96.1544 250.364 92.312 260.28C91.2214 263.093 90.0938 266.002 89.1114 268.848C82.5392 287.883 81.1061 308.383 79.7201 328.207C79.647 329.261 78.7669 330.069 77.7244 330.069Z" fill="#808E35"/>
<path d="M77.7244 330.069C77.6773 330.069 77.6303 330.067 77.5822 330.064C76.4787 329.987 75.6464 329.031 75.7245 327.926C77.1275 307.842 78.5796 287.075 85.3251 267.54C86.3325 264.623 87.4742 261.678 88.5777 258.831C92.2579 249.337 96.0632 239.518 95.268 229.593C95.1789 228.489 96.0011 227.525 97.1036 227.437C98.2032 227.338 99.1716 228.17 99.2597 229.272C100.129 240.112 96.1544 250.364 92.312 260.28C91.2214 263.093 90.0938 266.002 89.1114 268.848C82.5392 287.883 81.1061 308.383 79.7201 328.207C79.647 329.261 78.7669 330.069 77.7244 330.069Z" fill="url(#paint72_linear_4950_385051)"/>
<path d="M151.117 347.071C150.976 347.071 150.833 347.056 150.689 347.025C149.608 346.79 148.922 345.722 149.159 344.642C151.378 334.451 148.996 324.247 146.475 313.443C145.217 308.055 143.916 302.484 143.247 296.929C141.509 282.508 144.014 267.938 146.438 253.847C149.032 238.753 151.716 223.146 148.97 208.144C148.772 207.055 149.492 206.012 150.58 205.812C151.673 205.622 152.712 206.334 152.911 207.422C155.783 223.123 153.039 239.086 150.384 254.525C148.011 268.332 145.557 282.61 147.224 296.449C147.868 301.787 149.143 307.249 150.375 312.533C152.887 323.294 155.484 334.421 153.071 345.495C152.868 346.432 152.039 347.071 151.117 347.071Z" fill="#808E35"/>
<path d="M151.117 347.071C150.976 347.071 150.833 347.056 150.689 347.025C149.608 346.79 148.922 345.722 149.159 344.642C151.378 334.451 148.996 324.247 146.475 313.443C145.217 308.055 143.916 302.484 143.247 296.929C141.509 282.508 144.014 267.938 146.438 253.847C149.032 238.753 151.716 223.146 148.97 208.144C148.772 207.055 149.492 206.012 150.58 205.812C151.673 205.622 152.712 206.334 152.911 207.422C155.783 223.123 153.039 239.086 150.384 254.525C148.011 268.332 145.557 282.61 147.224 296.449C147.868 301.787 149.143 307.249 150.375 312.533C152.887 323.294 155.484 334.421 153.071 345.495C152.868 346.432 152.039 347.071 151.117 347.071Z" fill="url(#paint73_linear_4950_385051)"/>
<path d="M130.307 331.639C129.226 331.639 128.335 330.777 128.307 329.69C127.984 317.636 128.973 305.522 131.249 293.684C131.448 292.646 131.657 291.608 131.866 290.572C132.477 287.548 133.108 284.422 133.456 281.35C134.188 274.859 133.705 268.115 133.238 261.595C132.761 254.928 132.267 248.032 133.024 241.207C133.147 240.108 134.139 239.322 135.236 239.437C136.336 239.559 137.128 240.549 137.007 241.649C136.289 248.111 136.77 254.819 137.234 261.309C137.714 268.01 138.21 274.94 137.436 281.8C137.071 285.044 136.421 288.258 135.793 291.365C135.586 292.389 135.379 293.414 135.182 294.439C132.962 305.994 131.996 317.818 132.311 329.583C132.341 330.688 131.468 331.609 130.363 331.639C130.343 331.639 130.326 331.639 130.307 331.639Z" fill="#808E35"/>
<path d="M130.307 331.639C129.226 331.639 128.335 330.777 128.307 329.69C127.984 317.636 128.973 305.522 131.249 293.684C131.448 292.646 131.657 291.608 131.866 290.572C132.477 287.548 133.108 284.422 133.456 281.35C134.188 274.859 133.705 268.115 133.238 261.595C132.761 254.928 132.267 248.032 133.024 241.207C133.147 240.108 134.139 239.322 135.236 239.437C136.336 239.559 137.128 240.549 137.007 241.649C136.289 248.111 136.77 254.819 137.234 261.309C137.714 268.01 138.21 274.94 137.436 281.8C137.071 285.044 136.421 288.258 135.793 291.365C135.586 292.389 135.379 293.414 135.182 294.439C132.962 305.994 131.996 317.818 132.311 329.583C132.341 330.688 131.468 331.609 130.363 331.639C130.343 331.639 130.326 331.639 130.307 331.639Z" fill="url(#paint74_linear_4950_385051)"/>
<path d="M196.573 167.295C196.573 212.279 162.494 248.812 120.371 248.812C95.1529 248.812 74.8424 235.453 61.6187 218.005C49.4867 202.192 43.2168 182.972 44.1712 167.295C44.9893 154.345 49.8962 142.895 54.5308 136.35C71.2984 112.36 82.7485 108.133 96.3797 91.6395C125.007 56.7423 111.239 7.25965 119.009 0.716435C119.417 0.306858 119.827 0.170636 120.371 0.0344438C125.007 -0.646515 129.232 8.75877 139.865 29.2066C174.216 95.3207 187.304 108.952 194.528 148.484C196.027 157.208 196.573 161.57 196.573 167.295Z" fill="url(#paint75_radial_4950_385051)"/>
<path d="M196.573 167.295C196.573 212.279 162.494 248.812 120.371 248.812C95.1529 248.812 74.8424 235.453 61.6187 218.005C49.4867 202.192 43.2168 182.972 44.1712 167.295C44.9893 154.345 49.8962 142.895 54.5308 136.35C71.2984 112.36 82.7485 108.133 96.3797 91.6395C125.007 56.7423 111.239 7.25965 119.009 0.716435C119.417 0.306858 119.827 0.170636 120.371 0.0344438C125.007 -0.646515 129.232 8.75877 139.865 29.2066C174.216 95.3207 187.304 108.952 194.528 148.484C196.027 157.208 196.573 161.57 196.573 167.295Z" fill="url(#paint76_linear_4950_385051)"/>
<path d="M176.936 221.943C162.984 238.422 142.822 248.799 120.376 248.799C95.1601 248.799 74.8365 235.465 61.6099 218.019C49.4858 202.184 43.223 182.963 44.1633 167.291C44.9965 154.334 49.8894 142.909 54.54 136.349C59.6472 129.01 64.2977 123.526 68.6539 118.956C65.4283 122.639 62.0135 126.94 58.3574 132.183C53.7068 138.742 48.8139 150.167 47.9807 163.124C47.0394 178.796 53.3032 198.017 65.4273 213.852C78.6529 231.298 98.9765 244.632 124.192 244.632C144.704 244.632 163.28 236.003 176.936 221.943Z" fill="url(#paint77_linear_4950_385051)"/>
<path d="M94.5674 93.7666C85.9112 103.714 78.0351 109.17 68.9213 118.66C78.3045 108.015 86.2076 102.45 94.5674 93.7666Z" fill="url(#paint78_linear_4950_385051)"/>
<path d="M155.405 150.528C148.452 194.968 109.057 225.774 67.481 219.231C65.4371 218.958 63.5284 218.55 61.6197 218.004C49.4876 202.191 43.2178 182.971 44.1722 167.294C44.9903 154.344 49.8972 142.894 54.5317 136.349C71.2993 112.359 82.7495 108.132 96.3807 91.6385C125.008 56.7413 111.24 7.25858 119.01 0.715363C119.554 2.21447 120.099 3.71358 120.645 5.34988C144.227 75.9613 155.269 91.5023 156.087 131.443C156.359 140.441 156.223 144.938 155.405 150.528Z" fill="url(#paint79_linear_4950_385051)"/>
<path d="M122.294 34.9197C126.904 35.0939 131.949 61.0105 129.941 88.9929C129.65 93.0416 123.784 165.972 92.2539 172.561C82.2758 174.646 69.2405 170.189 63.3652 161.039C57.0883 151.264 60.9647 139.213 61.7619 136.731C67.2165 119.77 81.6789 117.026 94.9847 104.286C122.971 77.4897 116.368 34.6944 122.294 34.9197Z" fill="url(#paint80_linear_4950_385051)"/>
<defs>
<linearGradient id="paint0_linear_4950_385051" x1="105.67" y1="52.174" x2="131.076" y2="245.899" gradientUnits="userSpaceOnUse">
<stop stop-color="#C8D34F"/>
<stop offset="1" stop-color="#C8D34F" stop-opacity="0"/>
</linearGradient>
<linearGradient id="paint1_linear_4950_385051" x1="136.403" y1="193.23" x2="127.185" y2="215.263" gradientUnits="userSpaceOnUse">
<stop stop-color="#3F552B"/>
<stop offset="1" stop-color="#3F552B" stop-opacity="0"/>
</linearGradient>
<linearGradient id="paint2_linear_4950_385051" x1="138.529" y1="185.368" x2="131.393" y2="206.063" gradientUnits="userSpaceOnUse">
<stop stop-color="#C8D34F"/>
<stop offset="1" stop-color="#C8D34F" stop-opacity="0"/>
</linearGradient>
<linearGradient id="paint3_linear_4950_385051" x1="135.408" y1="188.5" x2="133.626" y2="203.278" gradientUnits="userSpaceOnUse">
<stop stop-color="#C8D34F"/>
<stop offset="1" stop-color="#C8D34F" stop-opacity="0"/>
</linearGradient>
<linearGradient id="paint4_linear_4950_385051" x1="139.71" y1="223.957" x2="131.93" y2="199.491" gradientUnits="userSpaceOnUse">
<stop stop-color="#3F552B"/>
<stop offset="1" stop-color="#3F552B" stop-opacity="0"/>
</linearGradient>
<linearGradient id="paint5_linear_4950_385051" x1="130.149" y1="203.397" x2="133.057" y2="201.337" gradientUnits="userSpaceOnUse">
<stop stop-color="#C8D34F"/>
<stop offset="1" stop-color="#C8D34F" stop-opacity="0"/>
</linearGradient>
<linearGradient id="paint6_linear_4950_385051" x1="115.407" y1="216.161" x2="106.189" y2="238.194" gradientUnits="userSpaceOnUse">
<stop stop-color="#3F552B"/>
<stop offset="1" stop-color="#3F552B" stop-opacity="0"/>
</linearGradient>
<linearGradient id="paint7_linear_4950_385051" x1="117.533" y1="208.299" x2="110.397" y2="228.993" gradientUnits="userSpaceOnUse">
<stop stop-color="#C8D34F"/>
<stop offset="1" stop-color="#C8D34F" stop-opacity="0"/>
</linearGradient>
<linearGradient id="paint8_linear_4950_385051" x1="114.412" y1="211.431" x2="112.63" y2="226.209" gradientUnits="userSpaceOnUse">
<stop stop-color="#C8D34F"/>
<stop offset="1" stop-color="#C8D34F" stop-opacity="0"/>
</linearGradient>
<linearGradient id="paint9_linear_4950_385051" x1="118.714" y1="246.888" x2="110.934" y2="222.422" gradientUnits="userSpaceOnUse">
<stop stop-color="#3F552B"/>
<stop offset="1" stop-color="#3F552B" stop-opacity="0"/>
</linearGradient>
<linearGradient id="paint10_linear_4950_385051" x1="109.153" y1="226.328" x2="112.061" y2="224.267" gradientUnits="userSpaceOnUse">
<stop stop-color="#C8D34F"/>
<stop offset="1" stop-color="#C8D34F" stop-opacity="0"/>
</linearGradient>
<linearGradient id="paint11_linear_4950_385051" x1="87.282" y1="200.368" x2="78.0641" y2="222.401" gradientUnits="userSpaceOnUse">
<stop stop-color="#3F552B"/>
<stop offset="1" stop-color="#3F552B" stop-opacity="0"/>
</linearGradient>
<linearGradient id="paint12_linear_4950_385051" x1="89.4082" y1="192.506" x2="82.2722" y2="213.201" gradientUnits="userSpaceOnUse">
<stop stop-color="#C8D34F"/>
<stop offset="1" stop-color="#C8D34F" stop-opacity="0"/>
</linearGradient>
<linearGradient id="paint13_linear_4950_385051" x1="86.2874" y1="195.639" x2="84.5052" y2="210.417" gradientUnits="userSpaceOnUse">
<stop stop-color="#C8D34F"/>
<stop offset="1" stop-color="#C8D34F" stop-opacity="0"/>
</linearGradient>
<linearGradient id="paint14_linear_4950_385051" x1="90.5894" y1="231.095" x2="82.8089" y2="206.63" gradientUnits="userSpaceOnUse">
<stop stop-color="#3F552B"/>
<stop offset="1" stop-color="#3F552B" stop-opacity="0"/>
</linearGradient>
<linearGradient id="paint15_linear_4950_385051" x1="81.028" y1="210.535" x2="83.9366" y2="208.475" gradientUnits="userSpaceOnUse">
<stop stop-color="#C8D34F"/>
<stop offset="1" stop-color="#C8D34F" stop-opacity="0"/>
</linearGradient>
<linearGradient id="paint16_linear_4950_385051" x1="149.521" y1="209.893" x2="140.303" y2="231.926" gradientUnits="userSpaceOnUse">
<stop stop-color="#3F552B"/>
<stop offset="1" stop-color="#3F552B" stop-opacity="0"/>
</linearGradient>
<linearGradient id="paint17_linear_4950_385051" x1="151.647" y1="202.031" x2="144.511" y2="222.726" gradientUnits="userSpaceOnUse">
<stop stop-color="#C8D34F"/>
<stop offset="1" stop-color="#C8D34F" stop-opacity="0"/>
</linearGradient>
<linearGradient id="paint18_linear_4950_385051" x1="148.526" y1="205.164" x2="146.744" y2="219.942" gradientUnits="userSpaceOnUse">
<stop stop-color="#C8D34F"/>
<stop offset="1" stop-color="#C8D34F" stop-opacity="0"/>
</linearGradient>
<linearGradient id="paint19_linear_4950_385051" x1="152.828" y1="240.621" x2="145.047" y2="216.155" gradientUnits="userSpaceOnUse">
<stop stop-color="#3F552B"/>
<stop offset="1" stop-color="#3F552B" stop-opacity="0"/>
</linearGradient>
<linearGradient id="paint20_linear_4950_385051" x1="143.267" y1="220.06" x2="146.175" y2="218" gradientUnits="userSpaceOnUse">
<stop stop-color="#C8D34F"/>
<stop offset="1" stop-color="#C8D34F" stop-opacity="0"/>
</linearGradient>
<linearGradient id="paint21_linear_4950_385051" x1="172.495" y1="199.737" x2="163.277" y2="221.77" gradientUnits="userSpaceOnUse">
<stop stop-color="#3F552B"/>
<stop offset="1" stop-color="#3F552B" stop-opacity="0"/>
</linearGradient>
<linearGradient id="paint22_linear_4950_385051" x1="174.621" y1="191.876" x2="167.485" y2="212.57" gradientUnits="userSpaceOnUse">
<stop stop-color="#C8D34F"/>
<stop offset="1" stop-color="#C8D34F" stop-opacity="0"/>
</linearGradient>
<linearGradient id="paint23_linear_4950_385051" x1="171.5" y1="195.008" x2="169.717" y2="209.786" gradientUnits="userSpaceOnUse">
<stop stop-color="#C8D34F"/>
<stop offset="1" stop-color="#C8D34F" stop-opacity="0"/>
</linearGradient>
<linearGradient id="paint24_linear_4950_385051" x1="175.802" y1="230.465" x2="168.021" y2="205.999" gradientUnits="userSpaceOnUse">
<stop stop-color="#3F552B"/>
<stop offset="1" stop-color="#3F552B" stop-opacity="0"/>
</linearGradient>
<linearGradient id="paint25_linear_4950_385051" x1="166.241" y1="209.905" x2="169.149" y2="207.844" gradientUnits="userSpaceOnUse">
<stop stop-color="#C8D34F"/>
<stop offset="1" stop-color="#C8D34F" stop-opacity="0"/>
</linearGradient>
<linearGradient id="paint26_linear_4950_385051" x1="106.722" y1="203.325" x2="97.5042" y2="225.358" gradientUnits="userSpaceOnUse">
<stop stop-color="#3F552B"/>
<stop offset="1" stop-color="#3F552B" stop-opacity="0"/>
</linearGradient>
<linearGradient id="paint27_linear_4950_385051" x1="108.848" y1="195.463" x2="101.712" y2="216.157" gradientUnits="userSpaceOnUse">
<stop stop-color="#C8D34F"/>
<stop offset="1" stop-color="#C8D34F" stop-opacity="0"/>
</linearGradient>
<linearGradient id="paint28_linear_4950_385051" x1="105.728" y1="198.596" x2="103.945" y2="213.373" gradientUnits="userSpaceOnUse">
<stop stop-color="#C8D34F"/>
<stop offset="1" stop-color="#C8D34F" stop-opacity="0"/>
</linearGradient>
<linearGradient id="paint29_linear_4950_385051" x1="110.029" y1="234.052" x2="102.249" y2="209.586" gradientUnits="userSpaceOnUse">
<stop stop-color="#3F552B"/>
<stop offset="1" stop-color="#3F552B" stop-opacity="0"/>
</linearGradient>
<linearGradient id="paint30_linear_4950_385051" x1="100.468" y1="213.492" x2="103.377" y2="211.432" gradientUnits="userSpaceOnUse">
<stop stop-color="#C8D34F"/>
<stop offset="1" stop-color="#C8D34F" stop-opacity="0"/>
</linearGradient>
<linearGradient id="paint31_linear_4950_385051" x1="133.338" y1="218.472" x2="124.12" y2="240.506" gradientUnits="userSpaceOnUse">
<stop stop-color="#3F552B"/>
<stop offset="1" stop-color="#3F552B" stop-opacity="0"/>
</linearGradient>
<linearGradient id="paint32_linear_4950_385051" x1="135.464" y1="210.611" x2="128.328" y2="231.305" gradientUnits="userSpaceOnUse">
<stop stop-color="#C8D34F"/>
<stop offset="1" stop-color="#C8D34F" stop-opacity="0"/>
</linearGradient>
<linearGradient id="paint33_linear_4950_385051" x1="132.343" y1="213.743" x2="130.561" y2="228.521" gradientUnits="userSpaceOnUse">
<stop stop-color="#C8D34F"/>
<stop offset="1" stop-color="#C8D34F" stop-opacity="0"/>
</linearGradient>
<linearGradient id="paint34_linear_4950_385051" x1="136.645" y1="249.2" x2="128.864" y2="224.734" gradientUnits="userSpaceOnUse">
<stop stop-color="#3F552B"/>
<stop offset="1" stop-color="#3F552B" stop-opacity="0"/>
</linearGradient>
<linearGradient id="paint35_linear_4950_385051" x1="127.083" y1="228.64" x2="129.992" y2="226.579" gradientUnits="userSpaceOnUse">
<stop stop-color="#C8D34F"/>
<stop offset="1" stop-color="#C8D34F" stop-opacity="0"/>
</linearGradient>
<linearGradient id="paint36_linear_4950_385051" x1="149.139" y1="178.867" x2="145.888" y2="209.887" gradientUnits="userSpaceOnUse">
<stop stop-color="#3F552B"/>
<stop offset="1" stop-color="#3F552B" stop-opacity="0"/>
</linearGradient>
<linearGradient id="paint37_linear_4950_385051" x1="156.577" y1="176.576" x2="148.191" y2="185.573" gradientUnits="userSpaceOnUse">
<stop stop-color="#C8D34F"/>
<stop offset="1" stop-color="#C8D34F" stop-opacity="0"/>
</linearGradient>
<linearGradient id="paint38_linear_4950_385051" x1="156.458" y1="186.481" x2="143.21" y2="174.558" gradientUnits="userSpaceOnUse">
<stop stop-color="#C8D34F"/>
<stop offset="1" stop-color="#C8D34F" stop-opacity="0"/>
</linearGradient>
<linearGradient id="paint39_linear_4950_385051" x1="145.252" y1="199.953" x2="150.01" y2="182.761" gradientUnits="userSpaceOnUse">
<stop stop-color="#3F552B"/>
<stop offset="1" stop-color="#3F552B" stop-opacity="0"/>
</linearGradient>
<linearGradient id="paint40_linear_4950_385051" x1="120.836" y1="156.585" x2="124.086" y2="187.605" gradientUnits="userSpaceOnUse">
<stop stop-color="#3F552B"/>
<stop offset="1" stop-color="#3F552B" stop-opacity="0"/>
</linearGradient>
<linearGradient id="paint41_linear_4950_385051" x1="113.397" y1="154.294" x2="121.783" y2="163.292" gradientUnits="userSpaceOnUse">
<stop stop-color="#C8D34F"/>
<stop offset="1" stop-color="#C8D34F" stop-opacity="0"/>
</linearGradient>
<linearGradient id="paint42_linear_4950_385051" x1="113.518" y1="164.199" x2="126.765" y2="152.277" gradientUnits="userSpaceOnUse">
<stop stop-color="#C8D34F"/>
<stop offset="1" stop-color="#C8D34F" stop-opacity="0"/>
</linearGradient>
<linearGradient id="paint43_linear_4950_385051" x1="124.723" y1="177.672" x2="119.964" y2="160.479" gradientUnits="userSpaceOnUse">
<stop stop-color="#3F552B"/>
<stop offset="1" stop-color="#3F552B" stop-opacity="0"/>
</linearGradient>
<linearGradient id="paint44_linear_4950_385051" x1="141.66" y1="157.349" x2="138.409" y2="188.368" gradientUnits="userSpaceOnUse">
<stop stop-color="#3F552B"/>
<stop offset="1" stop-color="#3F552B" stop-opacity="0"/>
</linearGradient>
<linearGradient id="paint45_linear_4950_385051" x1="149.098" y1="155.057" x2="140.712" y2="164.055" gradientUnits="userSpaceOnUse">
<stop stop-color="#C8D34F"/>
<stop offset="1" stop-color="#C8D34F" stop-opacity="0"/>
</linearGradient>
<linearGradient id="paint46_linear_4950_385051" x1="148.978" y1="164.962" x2="135.731" y2="153.04" gradientUnits="userSpaceOnUse">
<stop stop-color="#C8D34F"/>
<stop offset="1" stop-color="#C8D34F" stop-opacity="0"/>
</linearGradient>
<linearGradient id="paint47_linear_4950_385051" x1="137.772" y1="178.435" x2="142.531" y2="161.242" gradientUnits="userSpaceOnUse">
<stop stop-color="#3F552B"/>
<stop offset="1" stop-color="#3F552B" stop-opacity="0"/>
</linearGradient>
<linearGradient id="paint48_linear_4950_385051" x1="164.634" y1="161.617" x2="161.383" y2="192.636" gradientUnits="userSpaceOnUse">
<stop stop-color="#3F552B"/>
<stop offset="1" stop-color="#3F552B" stop-opacity="0"/>
</linearGradient>
<linearGradient id="paint49_linear_4950_385051" x1="172.072" y1="159.326" x2="163.686" y2="168.323" gradientUnits="userSpaceOnUse">
<stop stop-color="#C8D34F"/>
<stop offset="1" stop-color="#C8D34F" stop-opacity="0"/>
</linearGradient>
<linearGradient id="paint50_linear_4950_385051" x1="171.952" y1="169.23" x2="158.705" y2="157.308" gradientUnits="userSpaceOnUse">
<stop stop-color="#C8D34F"/>
<stop offset="1" stop-color="#C8D34F" stop-opacity="0"/>
</linearGradient>
<linearGradient id="paint51_linear_4950_385051" x1="160.746" y1="182.703" x2="165.505" y2="165.511" gradientUnits="userSpaceOnUse">
<stop stop-color="#3F552B"/>
<stop offset="1" stop-color="#3F552B" stop-opacity="0"/>
</linearGradient>
<linearGradient id="paint52_linear_4950_385051" x1="128.967" y1="178.104" x2="125.716" y2="209.124" gradientUnits="userSpaceOnUse">
<stop stop-color="#3F552B"/>
<stop offset="1" stop-color="#3F552B" stop-opacity="0"/>
</linearGradient>
<linearGradient id="paint53_linear_4950_385051" x1="136.405" y1="175.813" x2="128.018" y2="184.81" gradientUnits="userSpaceOnUse">
<stop stop-color="#C8D34F"/>
<stop offset="1" stop-color="#C8D34F" stop-opacity="0"/>
</linearGradient>
<linearGradient id="paint54_linear_4950_385051" x1="136.285" y1="185.718" x2="123.038" y2="173.795" gradientUnits="userSpaceOnUse">
<stop stop-color="#C8D34F"/>
<stop offset="1" stop-color="#C8D34F" stop-opacity="0"/>
</linearGradient>
<linearGradient id="paint55_linear_4950_385051" x1="125.079" y1="199.19" x2="129.837" y2="181.998" gradientUnits="userSpaceOnUse">
<stop stop-color="#3F552B"/>
<stop offset="1" stop-color="#3F552B" stop-opacity="0"/>
</linearGradient>
<linearGradient id="paint56_linear_4950_385051" x1="111.613" y1="182.27" x2="114.864" y2="213.289" gradientUnits="userSpaceOnUse">
<stop stop-color="#3F552B"/>
<stop offset="1" stop-color="#3F552B" stop-opacity="0"/>
</linearGradient>
<linearGradient id="paint57_linear_4950_385051" x1="104.175" y1="179.978" x2="112.561" y2="188.976" gradientUnits="userSpaceOnUse">
<stop stop-color="#C8D34F"/>
<stop offset="1" stop-color="#C8D34F" stop-opacity="0"/>
</linearGradient>
<linearGradient id="paint58_linear_4950_385051" x1="104.295" y1="189.883" x2="117.542" y2="177.961" gradientUnits="userSpaceOnUse">
<stop stop-color="#C8D34F"/>
<stop offset="1" stop-color="#C8D34F" stop-opacity="0"/>
</linearGradient>
<linearGradient id="paint59_linear_4950_385051" x1="115.501" y1="203.356" x2="110.742" y2="186.163" gradientUnits="userSpaceOnUse">
<stop stop-color="#3F552B"/>
<stop offset="1" stop-color="#3F552B" stop-opacity="0"/>
</linearGradient>
<linearGradient id="paint60_linear_4950_385051" x1="98.7204" y1="161.627" x2="101.971" y2="192.646" gradientUnits="userSpaceOnUse">
<stop stop-color="#3F552B"/>
<stop offset="1" stop-color="#3F552B" stop-opacity="0"/>
</linearGradient>
<linearGradient id="paint61_linear_4950_385051" x1="91.2824" y1="159.335" x2="99.6684" y2="168.333" gradientUnits="userSpaceOnUse">
<stop stop-color="#C8D34F"/>
<stop offset="1" stop-color="#C8D34F" stop-opacity="0"/>
</linearGradient>
<linearGradient id="paint62_linear_4950_385051" x1="91.4021" y1="169.24" x2="104.649" y2="157.318" gradientUnits="userSpaceOnUse">
<stop stop-color="#C8D34F"/>
<stop offset="1" stop-color="#C8D34F" stop-opacity="0"/>
</linearGradient>
<linearGradient id="paint63_linear_4950_385051" x1="102.608" y1="182.713" x2="97.8495" y2="165.52" gradientUnits="userSpaceOnUse">
<stop stop-color="#3F552B"/>
<stop offset="1" stop-color="#3F552B" stop-opacity="0"/>
</linearGradient>
<linearGradient id="paint64_linear_4950_385051" x1="124.735" y1="164.121" x2="124.735" y2="307.681" gradientUnits="userSpaceOnUse">
<stop stop-color="#3F552B"/>
<stop offset="1" stop-color="#3F552B" stop-opacity="0"/>
</linearGradient>
<linearGradient id="paint65_linear_4950_385051" x1="153.465" y1="43.5446" x2="154.393" y2="328.571" gradientUnits="userSpaceOnUse">
<stop stop-color="#3F552B"/>
<stop offset="1" stop-color="#3F552B" stop-opacity="0"/>
</linearGradient>
<linearGradient id="paint66_linear_4950_385051" x1="174.356" y1="43.4766" x2="175.284" y2="328.503" gradientUnits="userSpaceOnUse">
<stop stop-color="#3F552B"/>
<stop offset="1" stop-color="#3F552B" stop-opacity="0"/>
</linearGradient>
<linearGradient id="paint67_linear_4950_385051" x1="100.957" y1="43.7157" x2="101.885" y2="328.742" gradientUnits="userSpaceOnUse">
<stop stop-color="#3F552B"/>
<stop offset="1" stop-color="#3F552B" stop-opacity="0"/>
</linearGradient>
<linearGradient id="paint68_linear_4950_385051" x1="87.2197" y1="43.7606" x2="88.1482" y2="328.787" gradientUnits="userSpaceOnUse">
<stop stop-color="#3F552B"/>
<stop offset="1" stop-color="#3F552B" stop-opacity="0"/>
</linearGradient>
<linearGradient id="paint69_linear_4950_385051" x1="116.174" y1="43.6661" x2="117.102" y2="328.693" gradientUnits="userSpaceOnUse">
<stop stop-color="#3F552B"/>
<stop offset="1" stop-color="#3F552B" stop-opacity="0"/>
</linearGradient>
<linearGradient id="paint70_linear_4950_385051" x1="132.702" y1="-73.1462" x2="128.967" y2="260.691" gradientUnits="userSpaceOnUse">
<stop stop-color="#3F552B"/>
<stop offset="1" stop-color="#3F552B" stop-opacity="0"/>
</linearGradient>
<linearGradient id="paint71_linear_4950_385051" x1="149.881" y1="164.121" x2="149.881" y2="307.681" gradientUnits="userSpaceOnUse">
<stop stop-color="#3F552B"/>
<stop offset="1" stop-color="#3F552B" stop-opacity="0"/>
</linearGradient>
<linearGradient id="paint72_linear_4950_385051" x1="87.5502" y1="164.121" x2="87.5502" y2="307.681" gradientUnits="userSpaceOnUse">
<stop stop-color="#3F552B"/>
<stop offset="1" stop-color="#3F552B" stop-opacity="0"/>
</linearGradient>
<linearGradient id="paint73_linear_4950_385051" x1="152.65" y1="-72.9233" x2="148.915" y2="260.914" gradientUnits="userSpaceOnUse">
<stop stop-color="#3F552B"/>
<stop offset="1" stop-color="#3F552B" stop-opacity="0"/>
</linearGradient>
<linearGradient id="paint74_linear_4950_385051" x1="133.043" y1="164.121" x2="133.043" y2="307.681" gradientUnits="userSpaceOnUse">
<stop stop-color="#3F552B"/>
<stop offset="1" stop-color="#3F552B" stop-opacity="0"/>
</linearGradient>
<radialGradient id="paint75_radial_4950_385051" cx="0" cy="0" r="1" gradientUnits="userSpaceOnUse" gradientTransform="translate(129.644 172.801) scale(134.693)">
<stop stop-color="#009FE3" stop-opacity="0"/>
<stop offset="1" stop-color="#009FE3"/>
</radialGradient>
<linearGradient id="paint76_linear_4950_385051" x1="-37.7703" y1="201.132" x2="181.992" y2="99.5433" gradientUnits="userSpaceOnUse">
<stop stop-color="white"/>
<stop offset="1" stop-color="white" stop-opacity="0"/>
</linearGradient>
<linearGradient id="paint77_linear_4950_385051" x1="237.877" y1="160.018" x2="39.5924" y2="193.734" gradientUnits="userSpaceOnUse">
<stop stop-color="white"/>
<stop offset="1" stop-color="white" stop-opacity="0"/>
</linearGradient>
<linearGradient id="paint78_linear_4950_385051" x1="50.7043" y1="120.562" x2="97.7664" y2="98.8072" gradientUnits="userSpaceOnUse">
<stop stop-color="white"/>
<stop offset="1" stop-color="white" stop-opacity="0"/>
</linearGradient>
<linearGradient id="paint79_linear_4950_385051" x1="-310.215" y1="-49.3393" x2="186.551" y2="147.492" gradientUnits="userSpaceOnUse">
<stop stop-color="white"/>
<stop offset="1" stop-color="white" stop-opacity="0"/>
</linearGradient>
<linearGradient id="paint80_linear_4950_385051" x1="64.4513" y1="158.87" x2="133.959" y2="75.5801" gradientUnits="userSpaceOnUse">
<stop stop-color="white"/>
<stop offset="1" stop-color="white" stop-opacity="0"/>
</linearGradient>
</defs>
</svg>
