<svg width="595" height="189" viewBox="0 0 595 189" fill="none" xmlns="http://www.w3.org/2000/svg">
<path d="M102.5 43.3C103.7 49.4 104.1 82.3 104.2 106.4C104.3 133.9 103.9 168.1 103.5 174.3C102.6 186 94.3002 184.2 87.8002 184.2L22.8002 184.1C14.9002 184.1 9.20019 170.3 8.60019 153.4C8.20019 141.7 7.2002 134.9 7.2002 106.6C7.2002 78.3 8.60019 57.2 8.60019 57.2C8.60019 48.2 14.6002 35.3 18.7002 35.3H92.6002C95.2002 35.1 101.8 37.5 102.5 43.3Z" fill="#703F3F"/>
<path d="M96.7003 62.2C98.5003 74.3 98.7003 93.7 98.8003 106.6C99.0003 125.9 97.4003 145.4 95.8003 155.2C94.5003 162.4 89.8003 170.1 86.3003 171.2C70.6003 175.9 43.4003 177 27.7003 174C22.2003 172.9 17.2003 166.6 14.3003 154C12.4003 145.1 11.7003 133.6 11.5003 112.7C11.4003 94.9 12.3003 81.4 13.2003 71.7C14.6003 56 20.7003 44.5 27.9003 44.2C43.9003 43.6 70.0003 44.2 84.3003 43.6C89.4003 43.3 95.3003 51.1 96.7003 62.2Z" fill="#F7BBB2"/>
<path d="M54.7 128.4H49.7C42.2 128.4 36 122.3 36 114.7V107.6C36 100.1 42.1 93.9 49.7 93.9H54.7C62.2 93.9 68.4 100 68.4 107.6V114.7C68.4 122.2 62.3 128.4 54.7 128.4Z" fill="#703535"/>
<path d="M199.7 43.2C201.9 56.5 199.7 72.5 200.6 115.6C201.7 164.6 200.5 184.9 194 184.9C194 184.9 161 185.5 150.3 185.5C139.2 185.5 105.7 184.6 105.7 184.6C97.7999 184.6 100.7 170.5 100.7 125.5C100.7 107.9 100.7 43.1 100.7 43.1C100.7 34.2 109.9 33.2 113.9 33.2H187.8C194.6 33.3 199 37.5 199.7 43.2Z" fill="#703F3F"/>
<path d="M192.3 60.4C194.1 72.5 194.3 91.9 194.4 104.8C194.6 124.1 193 143.6 191.4 153.4C190.1 160.6 185.4 168.3 181.9 169.4C166.2 174.1 139 175.2 123.3 172.2C117.8 171.1 112.8 164.8 109.9 152.2C108 143.3 107.3 131.8 107.1 110.9C107 93.1 107.9 79.6 108.8 69.9C110.2 54.2 116.3 42.7 123.5 42.4C139.5 41.8 165.6 42.4 179.9 41.8C185 41.5 190.9 49.3 192.3 60.4Z" fill="#F7BBB2"/>
<path d="M151.2 126.3H146.2C138.7 126.3 132.5 120.2 132.5 112.6V105.5C132.5 98 138.6 91.8 146.2 91.8H151.2C158.7 91.8 164.9 97.9 164.9 105.5V112.6C164.8 120.1 158.7 126.3 151.2 126.3Z" fill="#703535"/>
<path d="M295.2 41.2C296.5 55.4 296.1 84 296.1 110.4C296.1 133 302.5 164.8 296.5 178.4C293.9 188.4 258.2 185 248.7 184.6C238.9 184.2 201.6 185 201.6 185C193.7 185 197 162.9 198 125.6C198.4 108 196.2 43.2 196.2 43.2C196.2 34.3 207.1 33.3 211.2 33.3H282C284 33.3 286.1 33.6 288.1 34.4C291.6 35.8 295 37.3 295.2 41.2Z" fill="#703F3F"/>
<path d="M289.5 60.4C291.3 72.5 291.5 91.9 291.6 104.8C291.8 124.1 290.2 143.6 288.6 153.4C287.3 160.6 282.6 168.3 279.1 169.4C263.4 174.1 236.2 175.2 220.5 172.2C215 171.1 210 164.8 207.1 152.2C205.2 143.3 204.5 131.8 204.3 110.9C204.2 93.1 205.1 79.6 206 69.9C207.4 54.2 213.5 42.7 220.7 42.4C236.7 41.8 262.8 42.4 277.1 41.8C282.1 41.5 288 49.3 289.5 60.4Z" fill="#F7BBB2"/>
<path d="M248.7 129.4H243.7C236.2 129.4 230 123.3 230 115.7V108.6C230 101.1 236.1 94.9 243.7 94.9H248.7C256.2 94.9 262.4 101 262.4 108.6V115.7C262.3 123.3 256.2 129.4 248.7 129.4Z" fill="#703535"/>
<path d="M395 43.2C397.2 56.5 395 72.5 395.9 115.6C397 164.6 399.9 176.2 393.8 181.7C389.4 185.5 355.9 185.1 345.2 185.1C334.2 185.1 297.8 189.1 294.3 179.3C289.3 165.5 296.5 152.9 295.3 107.7C294.7 85.9 292.8 50.2 294.4 41C296.2 31.1 305.3 33.1 309.4 33.1H383.3C389.8 33.3 394.4 37.5 395 43.2Z" fill="#703F3F"/>
<path d="M387.6 60.4C389.4 72.5 389.6 91.9 389.7 104.8C389.9 124.1 388.3 143.6 386.7 153.4C385.4 160.6 380.7 168.3 377.2 169.4C361.5 174.1 334.3 175.2 318.6 172.2C313.1 171.1 308.1 164.8 305.2 152.2C303.3 143.3 302.6 131.8 302.4 110.9C302.3 93.1 303.2 79.6 304.1 69.9C305.5 54.2 311.6 42.7 318.8 42.4C334.8 41.8 360.9 42.4 375.2 41.8C380.3 41.5 386.1 49.3 387.6 60.4Z" fill="#F7BBB2"/>
<path d="M349.6 124.3H344.6C337.1 124.3 330.9 118.2 330.9 110.6V103.5C330.9 96 337 89.8 344.6 89.8H349.6C357.1 89.8 363.3 95.9 363.3 103.5V110.6C363.3 118.2 357.2 124.3 349.6 124.3Z" fill="#703535"/>
<path d="M489.8 53.4C491.9 66.7 491.6 83.8 491.6 110.3C491.6 132.9 493.5 152.4 492.3 163.6C490.4 180.5 489.2 186.1 482.7 186.1C482.7 186.1 449.3 185.8 440.1 185.4C430.1 184.8 397.4 188.9 394.3 182.1C391.7 176.1 392.4 162.6 393.4 125.2C393.8 107.7 388.3 58.1 393.4 40.9C395.2 34.9 402.6 33 406.6 33C406.6 33 462.4 29.5 480.5 33C487.5 34.5 488.9 47.9 489.8 53.4Z" fill="#703F3F"/>
<path d="M484.8 60.4C486.6 72.5 486.8 91.9 486.9 104.8C487.1 124.1 485.5 143.6 483.9 153.4C482.6 160.6 477.9 168.3 474.4 169.4C458.7 174.1 431.5 175.2 415.8 172.2C410.3 171.1 405.3 164.8 402.4 152.2C400.5 143.3 399.8 131.8 399.6 110.9C399.5 93.1 400.4 79.6 401.3 69.9C402.7 54.2 408.8 42.7 416 42.4C432 41.8 458.1 42.4 472.4 41.8C477.5 41.5 483.4 49.3 484.8 60.4Z" fill="#F7BBB2"/>
<path d="M446.8 127.4H441.8C434.3 127.4 428.1 121.3 428.1 113.7V106.6C428.1 99.1 434.2 92.9 441.8 92.9H446.8C454.3 92.9 460.5 99 460.5 106.6V113.7C460.5 121.2 454.4 127.4 446.8 127.4Z" fill="#703535"/>
<path d="M588.9 43.2C591.1 56.5 588.9 72.5 589.8 115.6C590.9 164.6 591.7 178.8 585.5 184.3C581.1 188.1 548.6 186.1 538 186.1C527 186.1 490.9 190.1 487.4 180.2C482.4 166.4 490.2 153 489.2 108C488.6 86.2 486.7 50.5 488.3 41.3C490.1 31.4 499.2 33.4 503.3 33.4H577.2C583.8 33.3 588.3 37.5 588.9 43.2Z" fill="#703F3F"/>
<path d="M581.6 60.4C583.4 72.5 583.6 91.9 583.7 104.8C583.9 124.1 582.3 143.6 580.7 153.4C579.4 160.6 574.7 168.3 571.2 169.4C555.5 174.1 528.3 175.2 512.6 172.2C507.1 171.1 502.1 164.8 499.2 152.2C497.3 143.3 496.6 131.8 496.4 110.9C496.3 93.1 497.2 79.6 498.1 69.9C499.5 54.2 505.6 42.7 512.8 42.4C528.8 41.8 554.9 42.4 569.2 41.8C574.3 41.5 580.1 49.3 581.6 60.4Z" fill="#F7BBB2"/>
<path d="M544.5 128.4H539.5C532 128.4 525.8 122.3 525.8 114.7V107.6C525.8 100.1 531.9 93.9 539.5 93.9H544.5C552 93.9 558.2 100 558.2 107.6V114.7C558.2 122.2 552.1 128.4 544.5 128.4Z" fill="#703535"/>
<g filter="url(#filter0_ii_3055:508997)">
<path d="M7.00001 174.521C7.00001 174.507 6.99998 174.498 7.00001 174.484C7.00108 174.047 7.08337 165 12.069 165C14.794 165 17.5279 174.5 24.9363 174.5C42.0529 174.5 68.0188 174.5 87.3236 174.5C89.1893 174.5 91.3213 172.998 93.4164 170.85C98.9107 165.217 108.808 165.018 114.356 170.597C116.625 172.879 118.919 174.5 120.857 174.5C144.459 174.5 157.692 174.5 181.294 174.5C184.664 174.5 188.666 171.73 192.135 168.571C196.821 164.302 204.348 163.982 209.212 168.048C213.243 171.418 217.902 174.5 221.456 174.5C244.145 174.5 256.866 174.5 279.554 174.5C283.175 174.5 287.714 171.424 291.598 168.058C296.322 163.963 303.728 163.963 308.453 168.058C312.336 171.424 316.876 174.5 320.496 174.5C343.337 174.5 356.143 174.5 378.984 174.5C381.449 174.5 384.354 172.988 387.17 170.925C393.206 166.501 403.036 167.852 409.41 171.775C412.035 173.39 415.15 174.5 418.756 174.5C441.14 174.5 453.69 174.5 476.074 174.5C479.17 174.5 482.986 171.918 486.391 168.896C491.275 164.563 499.086 164.563 503.97 168.896C507.375 171.918 511.191 174.5 514.286 174.5C537.432 174.5 550.409 174.5 573.554 174.5C575.411 174.5 577.084 173.909 578.573 172.962C584.085 169.455 593.044 168.073 594.22 174.5C594.497 176.013 594.616 177.796 594.646 179.575C594.729 184.665 590.371 188.5 585.28 188.5H17C11.4771 188.5 7.00001 184.023 7.00001 178.5V174.521Z" fill="#532222"/>
</g>
<path d="M545.103 7.55597C545.103 7.55597 548.047 9.17481 550.103 10.056C560.603 14.556 566.675 18.5623 568.403 37.556C569.403 39.056 570.503 40.656 571.603 42.156C571.603 40.256 571.403 38.456 571.203 36.556C569.83 17.2976 561.103 11.556 551.103 8.05596C548.809 7.25323 545.103 7.55597 545.103 7.55597Z" fill="#703F3F"/>
<path d="M529.502 7.55597C529.502 7.55597 532.446 9.17481 534.502 10.056C545.002 14.556 551.075 18.5623 552.802 37.556C553.802 39.056 554.902 40.656 556.002 42.156C556.002 40.256 555.802 38.456 555.602 36.556C554.23 17.2976 545.502 11.556 535.502 8.05596C533.209 7.25323 529.502 7.55597 529.502 7.55597Z" fill="#703F3F"/>
<path d="M513.902 7.55597C513.902 7.55597 516.846 9.17481 518.902 10.056C529.402 14.556 535.475 18.5623 537.202 37.556C538.202 39.056 539.302 40.656 540.402 42.156C540.402 40.256 540.202 38.456 540.002 36.556C538.63 17.2976 529.902 11.556 519.902 8.05596C517.609 7.25323 513.902 7.55597 513.902 7.55597Z" fill="#703F3F"/>
<path d="M498.302 7.55597C498.302 7.55597 501.246 9.17481 503.302 10.056C513.802 14.556 519.874 18.5623 521.602 37.556C522.602 39.056 523.702 40.656 524.802 42.156C524.802 40.256 524.602 38.456 524.402 36.556C523.03 17.2976 514.302 11.556 504.302 8.05596C502.009 7.25323 498.302 7.55597 498.302 7.55597Z" fill="#703F3F"/>
<path d="M482.702 7.55597C482.702 7.55597 485.646 9.17481 487.702 10.056C498.202 14.556 504.274 18.5623 506.002 37.556C507.002 39.056 508.102 40.656 509.202 42.156C509.202 40.256 509.002 38.456 508.802 36.556C507.43 17.2976 498.702 11.556 488.702 8.05596C486.409 7.25323 482.702 7.55597 482.702 7.55597Z" fill="#703F3F"/>
<path d="M448.602 7.55597C448.602 7.55597 451.546 9.17481 453.602 10.056C464.102 14.556 470.174 18.5623 471.902 37.556C472.902 39.056 474.002 40.656 475.102 42.156C475.102 40.256 474.902 38.456 474.702 36.556C473.33 17.2976 464.602 11.556 454.602 8.05596C452.309 7.25323 448.602 7.55597 448.602 7.55597Z" fill="#703F3F"/>
<path d="M433.002 7.55597C433.002 7.55597 435.946 9.17481 438.002 10.056C448.502 14.556 454.574 18.5623 456.302 37.556C457.302 39.056 458.402 40.656 459.502 42.156C459.502 40.256 459.302 38.456 459.102 36.556C457.73 17.2976 449.002 11.556 439.002 8.05596C436.708 7.25323 433.002 7.55597 433.002 7.55597Z" fill="#703F3F"/>
<path d="M417.402 7.55597C417.402 7.55597 420.346 9.17481 422.402 10.056C432.902 14.556 438.974 18.5623 440.702 37.556C441.702 39.056 442.802 40.656 443.902 42.156C443.902 40.256 443.702 38.456 443.502 36.556C442.13 17.2976 433.402 11.556 423.402 8.05596C421.108 7.25323 417.402 7.55597 417.402 7.55597Z" fill="#703F3F"/>
<path d="M401.802 7.55597C401.802 7.55597 404.746 9.17481 406.802 10.056C417.302 14.556 423.374 18.5623 425.102 37.556C426.102 39.056 427.202 40.656 428.302 42.156C428.302 40.256 428.102 38.456 427.902 36.556C426.53 17.2976 417.802 11.556 407.802 8.05596C405.508 7.25323 401.802 7.55597 401.802 7.55597Z" fill="#703F3F"/>
<path d="M386.202 7.55597C386.202 7.55597 389.146 9.17481 391.202 10.056C401.702 14.556 407.774 18.5623 409.502 37.556C410.502 39.056 411.602 40.656 412.702 42.156C412.702 40.256 412.502 38.456 412.302 36.556C410.929 17.2976 402.202 11.556 392.202 8.05596C389.908 7.25323 386.202 7.55597 386.202 7.55597Z" fill="#703F3F"/>
<path d="M352.102 7.55597C352.102 7.55597 355.046 9.17481 357.102 10.056C367.602 14.556 373.674 18.5623 375.402 37.556C376.402 39.056 377.502 40.656 378.602 42.156C378.602 40.256 378.402 38.456 378.202 36.556C376.829 17.2976 368.102 11.556 358.102 8.05596C355.808 7.25323 352.102 7.55597 352.102 7.55597Z" fill="#703F3F"/>
<path d="M336.501 7.55597C336.501 7.55597 339.445 9.17481 341.501 10.056C352.001 14.556 358.074 18.5623 359.801 37.556C360.801 39.056 361.901 40.656 363.001 42.156C363.001 40.256 362.801 38.456 362.601 36.556C361.229 17.2976 352.501 11.556 342.501 8.05596C340.208 7.25323 336.501 7.55597 336.501 7.55597Z" fill="#703F3F"/>
<path d="M320.901 7.55597C320.901 7.55597 323.845 9.17481 325.901 10.056C336.401 14.556 342.474 18.5623 344.201 37.556C345.201 39.056 346.301 40.656 347.401 42.156C347.401 40.256 347.201 38.456 347.001 36.556C345.629 17.2976 336.901 11.556 326.901 8.05596C324.608 7.25323 320.901 7.55597 320.901 7.55597Z" fill="#703F3F"/>
<path d="M305.301 7.55597C305.301 7.55597 308.245 9.17481 310.301 10.056C320.801 14.556 326.874 18.5623 328.601 37.556C329.601 39.056 330.701 40.656 331.801 42.156C331.801 40.256 331.601 38.456 331.401 36.556C330.029 17.2976 321.301 11.556 311.301 8.05596C309.008 7.25323 305.301 7.55597 305.301 7.55597Z" fill="#703F3F"/>
<path d="M289.701 7.55597C289.701 7.55597 292.645 9.17481 294.701 10.056C305.201 14.556 311.273 18.5623 313.001 37.556C314.001 39.056 315.101 40.656 316.201 42.156C316.201 40.256 316.001 38.456 315.801 36.556C314.429 17.2976 305.701 11.556 295.701 8.05596C293.408 7.25323 289.701 7.55597 289.701 7.55597Z" fill="#703F3F"/>
<path d="M255.602 7.55597C255.602 7.55597 258.546 9.17481 260.602 10.056C271.102 14.556 277.174 18.5623 278.902 37.556C279.902 39.056 281.002 40.656 282.102 42.156C282.102 40.256 281.902 38.456 281.702 36.556C280.329 17.2976 271.602 11.556 261.602 8.05596C259.308 7.25323 255.602 7.55597 255.602 7.55597Z" fill="#703F3F"/>
<path d="M240.001 7.55597C240.001 7.55597 242.945 9.17481 245.001 10.056C255.501 14.556 261.574 18.5623 263.301 37.556C264.301 39.056 265.401 40.656 266.501 42.156C266.501 40.256 266.301 38.456 266.101 36.556C264.729 17.2976 256.001 11.556 246.001 8.05596C243.708 7.25323 240.001 7.55597 240.001 7.55597Z" fill="#703F3F"/>
<path d="M224.401 7.55597C224.401 7.55597 227.345 9.17481 229.401 10.056C239.901 14.556 245.974 18.5623 247.701 37.556C248.701 39.056 249.801 40.656 250.901 42.156C250.901 40.256 250.701 38.456 250.501 36.556C249.129 17.2976 240.401 11.556 230.401 8.05596C228.108 7.25323 224.401 7.55597 224.401 7.55597Z" fill="#703F3F"/>
<path d="M208.801 7.55597C208.801 7.55597 211.745 9.17481 213.801 10.056C224.301 14.556 230.374 18.5623 232.101 37.556C233.101 39.056 234.201 40.656 235.301 42.156C235.301 40.256 235.101 38.456 234.901 36.556C233.529 17.2976 224.801 11.556 214.801 8.05596C212.508 7.25323 208.801 7.55597 208.801 7.55597Z" fill="#703F3F"/>
<path d="M193.201 7.55597C193.201 7.55597 196.145 9.17481 198.201 10.056C208.701 14.556 214.773 18.5623 216.501 37.556C217.501 39.056 218.601 40.656 219.701 42.156C219.701 40.256 219.501 38.456 219.301 36.556C217.929 17.2976 209.201 11.556 199.201 8.05596C196.908 7.25323 193.201 7.55597 193.201 7.55597Z" fill="#703F3F"/>
<path d="M159.101 7.55597C159.101 7.55597 162.045 9.17481 164.101 10.056C174.601 14.556 180.673 18.5623 182.401 37.556C183.401 39.056 184.501 40.656 185.601 42.156C185.601 40.256 185.401 38.456 185.201 36.556C183.829 17.2976 175.101 11.556 165.101 8.05596C162.808 7.25323 159.101 7.55597 159.101 7.55597Z" fill="#703F3F"/>
<path d="M143.501 7.55597C143.501 7.55597 146.445 9.17481 148.501 10.056C159.001 14.556 165.073 18.5623 166.801 37.556C167.801 39.056 168.901 40.656 170.001 42.156C170.001 40.256 169.801 38.456 169.601 36.556C168.229 17.2976 159.501 11.556 149.501 8.05596C147.207 7.25323 143.501 7.55597 143.501 7.55597Z" fill="#703F3F"/>
<path d="M127.901 7.55597C127.901 7.55597 130.845 9.17481 132.901 10.056C143.401 14.556 149.473 18.5623 151.201 37.556C152.201 39.056 153.301 40.656 154.401 42.156C154.401 40.256 154.201 38.456 154.001 36.556C152.629 17.2976 143.901 11.556 133.901 8.05596C131.607 7.25323 127.901 7.55597 127.901 7.55597Z" fill="#703F3F"/>
<path d="M112.301 7.55597C112.301 7.55597 115.245 9.17481 117.301 10.056C127.801 14.556 133.873 18.5623 135.601 37.556C136.601 39.056 137.701 40.656 138.801 42.156C138.801 40.256 138.601 38.456 138.401 36.556C137.029 17.2976 128.301 11.556 118.301 8.05596C116.007 7.25323 112.301 7.55597 112.301 7.55597Z" fill="#703F3F"/>
<path d="M96.7007 7.55597C96.7007 7.55597 99.6447 9.17481 101.701 10.056C112.201 14.556 118.273 18.5623 120.001 37.556C121.001 39.056 122.101 40.656 123.201 42.156C123.201 40.256 123.001 38.456 122.801 36.556C121.429 17.2976 112.701 11.556 102.701 8.05596C100.407 7.25323 96.7007 7.55597 96.7007 7.55597Z" fill="#703F3F"/>
<path d="M62.6006 7.55597C62.6006 7.55597 65.5446 9.17481 67.6006 10.056C78.1006 14.556 84.1728 18.5623 85.9006 37.556C86.9006 39.056 88.0006 40.656 89.1006 42.156C89.1006 40.256 88.9006 38.456 88.7006 36.556C87.3284 17.2976 78.6006 11.556 68.6006 8.05596C66.3071 7.25323 62.6006 7.55597 62.6006 7.55597Z" fill="#703F3F"/>
<path d="M47.0005 7.55597C47.0005 7.55597 49.9445 9.17481 52.0005 10.056C62.5005 14.556 68.5727 18.5623 70.3005 37.556C71.3005 39.056 72.4005 40.656 73.5005 42.156C73.5005 40.256 73.3005 38.456 73.1005 36.556C71.7283 17.2976 63.0005 11.556 53.0005 8.05596C50.707 7.25323 47.0005 7.55597 47.0005 7.55597Z" fill="#703F3F"/>
<path d="M31.4004 7.55597C31.4004 7.55597 34.3444 9.17481 36.4004 10.056C46.9004 14.556 52.9726 18.5623 54.7004 37.556C55.7004 39.056 56.8004 40.656 57.9004 42.156C57.9004 40.256 57.7004 38.456 57.5004 36.556C56.1282 17.2976 47.4004 11.556 37.4004 8.05596C35.1069 7.25323 31.4004 7.55597 31.4004 7.55597Z" fill="#703F3F"/>
<path d="M15.8003 7.55597C15.8003 7.55597 18.7443 9.17481 20.8003 10.056C31.3003 14.556 37.3725 18.5623 39.1003 37.556C40.1003 39.056 41.2003 40.656 42.3003 42.156C42.3003 40.256 42.1003 38.456 41.9003 36.556C40.5281 17.2976 31.8003 11.556 21.8003 8.05596C19.5068 7.25323 15.8003 7.55597 15.8003 7.55597Z" fill="#703F3F"/>
<path d="M0.200195 7.55597C0.200195 7.55597 3.14418 9.17481 5.2002 10.056C15.7002 14.556 21.7724 18.5623 23.5002 37.556C24.5002 39.056 25.6002 40.656 26.7002 42.156C26.7002 40.256 26.5002 38.456 26.3002 36.556C24.928 17.2976 16.2002 11.556 6.2002 8.05596C3.90667 7.25323 0.200195 7.55597 0.200195 7.55597Z" fill="#703F3F"/>
<defs>
<filter id="filter0_ii_3055:508997" x="7" y="164.986" width="587.647" height="23.5136" filterUnits="userSpaceOnUse" color-interpolation-filters="sRGB">
<feFlood flood-opacity="0" result="BackgroundImageFix"/>
<feBlend mode="normal" in="SourceGraphic" in2="BackgroundImageFix" result="shape"/>
<feColorMatrix in="SourceAlpha" type="matrix" values="0 0 0 0 0 0 0 0 0 0 0 0 0 0 0 0 0 0 127 0" result="hardAlpha"/>
<feOffset dy="4"/>
<feComposite in2="hardAlpha" operator="arithmetic" k2="-1" k3="1"/>
<feColorMatrix type="matrix" values="0 0 0 0 1 0 0 0 0 1 0 0 0 0 1 0 0 0 0.25 0"/>
<feBlend mode="normal" in2="shape" result="effect1_innerShadow_3055:508997"/>
<feColorMatrix in="SourceAlpha" type="matrix" values="0 0 0 0 0 0 0 0 0 0 0 0 0 0 0 0 0 0 127 0" result="hardAlpha"/>
<feOffset dy="-4"/>
<feComposite in2="hardAlpha" operator="arithmetic" k2="-1" k3="1"/>
<feColorMatrix type="matrix" values="0 0 0 0 0 0 0 0 0 0 0 0 0 0 0 0 0 0 0.25 0"/>
<feBlend mode="normal" in2="effect1_innerShadow_3055:508997" result="effect2_innerShadow_3055:508997"/>
</filter>
</defs>
</svg>
