<svg width="588" height="190" viewBox="0 0 588 190" fill="none" xmlns="http://www.w3.org/2000/svg">
<path d="M101.294 43.5291C102.48 49.6614 102.875 82.7354 102.974 106.963C103.073 134.608 102.678 168.989 102.282 175.222C101.393 186.984 93.1905 185.175 86.767 185.175L22.5317 185.074C14.7246 185.074 9.0917 171.201 8.49876 154.212C8.10347 142.45 7.11523 135.614 7.11523 107.164C7.11523 78.7143 8.49876 57.5026 8.49876 57.5026C8.49876 48.455 14.4282 35.4868 18.4799 35.4868H91.5105C94.0799 35.2857 100.602 37.6984 101.294 43.5291Z" fill="#703F3F"/>
<path d="M95.5621 62.5291C97.3409 74.6931 97.5386 94.1958 97.6374 107.164C97.8351 126.566 96.2539 146.169 94.6727 156.021C93.388 163.259 88.7433 171 85.2845 172.106C69.7692 176.831 42.8892 177.936 27.3739 174.921C21.9386 173.815 16.9974 167.481 14.1315 154.815C12.2539 145.868 11.5621 134.307 11.3645 113.296C11.2657 95.4021 12.1551 81.8307 13.0445 72.0794C14.428 56.2963 20.4562 44.7354 27.5715 44.4339C43.3833 43.8307 69.1762 44.4339 83.308 43.8307C88.348 43.5291 94.1786 51.3704 95.5621 62.5291Z" fill="#F7BBB2"/>
<path d="M54.0562 129.079H49.115C41.7032 129.079 35.5762 122.947 35.5762 115.307V108.169C35.5762 100.63 41.6044 94.3968 49.115 94.3968H54.0562C61.4679 94.3968 67.595 100.529 67.595 108.169V115.307C67.595 122.847 61.5668 129.079 54.0562 129.079Z" fill="#703535"/>
<path d="M197.35 43.4286C199.525 56.7989 197.35 72.8836 198.24 116.212C199.327 165.471 198.141 185.878 191.717 185.878C191.717 185.878 159.106 186.481 148.532 186.481C137.562 186.481 104.456 185.577 104.456 185.577C96.6492 185.577 99.5151 171.402 99.5151 126.164C99.5151 108.471 99.5151 43.328 99.5151 43.328C99.5151 34.381 108.607 33.3757 112.56 33.3757H185.59C192.31 33.4762 196.659 37.6984 197.35 43.4286Z" fill="#703F3F"/>
<path d="M190.038 60.7196C191.817 72.8836 192.014 92.3863 192.113 105.355C192.311 124.757 190.729 144.36 189.148 154.212C187.864 161.45 183.219 169.19 179.76 170.296C164.245 175.021 137.365 176.127 121.849 173.111C116.414 172.005 111.473 165.672 108.607 153.005C106.729 144.058 106.038 132.497 105.84 111.487C105.741 93.5926 106.631 80.0212 107.52 70.2698C108.904 54.4868 114.932 42.9259 122.047 42.6243C137.859 42.0212 163.652 42.6243 177.784 42.0212C182.824 41.7196 188.654 49.5608 190.038 60.7196Z" fill="#F7BBB2"/>
<path d="M149.421 126.968H144.48C137.068 126.968 130.941 120.836 130.941 113.196V106.058C130.941 98.5185 136.969 92.2857 144.48 92.2857H149.421C156.833 92.2857 162.96 98.418 162.96 106.058V113.196C162.861 120.735 156.833 126.968 149.421 126.968Z" fill="#703535"/>
<path d="M291.727 41.418C293.012 55.6931 292.616 84.4444 292.616 110.984C292.616 133.704 298.941 165.672 293.012 179.344C290.442 189.397 255.162 185.979 245.774 185.577C236.089 185.175 199.228 185.979 199.228 185.979C191.421 185.979 194.682 163.762 195.67 126.265C196.066 108.571 193.892 43.4286 193.892 43.4286C193.892 34.4815 204.663 33.4762 208.715 33.4762H278.682C280.659 33.4762 282.734 33.7778 284.71 34.582C288.169 35.9894 291.529 37.4974 291.727 41.418Z" fill="#703F3F"/>
<path d="M286.094 60.7196C287.873 72.8836 288.07 92.3862 288.169 105.355C288.367 124.757 286.786 144.36 285.204 154.212C283.92 161.45 279.275 169.19 275.816 170.296C260.301 175.021 233.421 176.127 217.906 173.111C212.47 172.005 207.529 165.672 204.663 153.005C202.786 144.058 202.094 132.497 201.896 111.487C201.797 93.5926 202.687 80.0212 203.576 70.2698C204.96 54.4868 210.988 42.9259 218.103 42.6243C233.915 42.0212 259.708 42.6243 273.84 42.0212C278.781 41.7196 284.612 49.5608 286.094 60.7196Z" fill="#F7BBB2"/>
<path d="M245.774 130.085H240.833C233.421 130.085 227.294 123.952 227.294 116.312V109.175C227.294 101.635 233.322 95.4021 240.833 95.4021H245.774C253.186 95.4021 259.313 101.534 259.313 109.175V116.312C259.214 123.952 253.186 130.085 245.774 130.085Z" fill="#703535"/>
<path d="M390.353 43.4286C392.527 56.7989 390.353 72.8836 391.242 116.212C392.329 165.471 395.195 177.132 389.167 182.661C384.819 186.481 351.713 186.079 341.139 186.079C330.268 186.079 294.296 190.101 290.837 180.249C285.896 166.376 293.012 153.709 291.826 108.27C291.233 86.3545 289.355 50.4656 290.936 41.2169C292.715 31.2646 301.708 33.2751 305.76 33.2751H378.79C385.214 33.4762 389.76 37.6984 390.353 43.4286Z" fill="#703F3F"/>
<path d="M383.04 60.7196C384.818 72.8836 385.016 92.3863 385.115 105.355C385.313 124.757 383.731 144.36 382.15 154.212C380.866 161.45 376.221 169.19 372.762 170.296C357.247 175.021 330.367 176.127 314.851 173.111C309.416 172.005 304.475 165.672 301.609 153.005C299.731 144.058 299.04 132.497 298.842 111.487C298.743 93.5926 299.633 80.0212 300.522 70.2698C301.906 54.4868 307.934 42.9259 315.049 42.6243C330.861 42.0212 356.654 42.6243 370.786 42.0212C375.826 41.7196 381.557 49.5608 383.04 60.7196Z" fill="#F7BBB2"/>
<path d="M345.487 124.958H340.546C333.134 124.958 327.007 118.825 327.007 111.185V104.048C327.007 96.5079 333.035 90.2751 340.546 90.2751H345.487C352.899 90.2751 359.026 96.4074 359.026 104.048V111.185C359.026 118.825 352.997 124.958 345.487 124.958Z" fill="#703535"/>
<path d="M484.038 53.6825C486.113 67.0529 485.817 84.2434 485.817 110.884C485.817 133.603 487.694 153.206 486.508 164.466C484.631 181.455 483.445 187.085 477.021 187.085C477.021 187.085 444.014 186.783 434.922 186.381C425.04 185.778 392.725 189.899 389.661 183.064C387.092 177.032 387.784 163.46 388.772 125.862C389.167 108.27 383.732 58.4074 388.772 41.1164C390.551 35.0846 397.864 33.1746 401.817 33.1746C401.817 33.1746 456.96 29.6561 474.847 33.1746C481.765 34.6825 483.148 48.1534 484.038 53.6825Z" fill="#703F3F"/>
<path d="M479.097 60.7196C480.876 72.8836 481.073 92.3863 481.172 105.355C481.37 124.757 479.789 144.36 478.207 154.212C476.923 161.45 472.278 169.19 468.819 170.296C453.304 175.021 426.424 176.127 410.909 173.111C405.473 172.005 400.532 165.672 397.666 153.005C395.789 144.058 395.097 132.497 394.899 111.487C394.8 93.5926 395.69 80.0212 396.579 70.2698C397.963 54.4868 403.991 42.9259 411.106 42.6243C426.918 42.0212 452.711 42.6243 466.843 42.0212C471.883 41.7196 477.713 49.5608 479.097 60.7196Z" fill="#F7BBB2"/>
<path d="M441.543 128.074H436.602C429.191 128.074 423.063 121.942 423.063 114.302V107.164C423.063 99.6244 429.092 93.3915 436.602 93.3915H441.543C448.955 93.3915 455.082 99.5238 455.082 107.164V114.302C455.082 121.841 449.054 128.074 441.543 128.074Z" fill="#703535"/>
<path d="M581.972 43.4286C584.146 56.7989 581.972 72.8836 582.861 116.212C583.948 165.471 584.739 179.746 578.612 185.275C574.264 189.095 542.146 187.085 531.671 187.085C520.8 187.085 485.125 191.106 481.666 181.153C476.725 167.28 484.433 153.81 483.445 108.571C482.852 86.6561 480.974 50.7672 482.555 41.5185C484.334 31.5661 493.327 33.5767 497.379 33.5767H570.409C576.932 33.4762 581.379 37.6984 581.972 43.4286Z" fill="#703F3F"/>
<path d="M574.758 60.7196C576.537 72.8836 576.734 92.3863 576.833 105.355C577.031 124.757 575.45 144.36 573.868 154.212C572.584 161.45 567.939 169.19 564.48 170.296C548.965 175.021 522.085 176.127 506.57 173.111C501.134 172.005 496.193 165.672 493.327 153.005C491.45 144.058 490.758 132.497 490.56 111.487C490.461 93.5926 491.351 80.0212 492.24 70.2698C493.624 54.4868 499.652 42.9259 506.767 42.6243C522.579 42.0212 548.372 42.6243 562.504 42.0212C567.544 41.7196 573.275 49.5608 574.758 60.7196Z" fill="#F7BBB2"/>
<path d="M538.094 129.079H533.153C525.741 129.079 519.614 122.947 519.614 115.307V108.169C519.614 100.63 525.643 94.3968 533.153 94.3968H538.094C545.506 94.3968 551.633 100.529 551.633 108.169V115.307C551.633 122.847 545.605 129.079 538.094 129.079Z" fill="#703535"/>
<g filter="url(#filter0_ii_3055:501997)">
<path d="M6.91749 175.444C6.91749 175.43 6.91746 175.421 6.91749 175.408C6.91846 174.978 6.99717 165.873 11.9268 165.873C14.6198 165.873 17.3215 175.423 24.6428 175.423C41.5579 175.423 67.2184 175.423 86.2961 175.423C88.0741 175.423 90.097 174.019 92.0958 171.982C97.6528 166.32 107.633 166.114 113.237 171.729C115.405 173.902 117.584 175.423 119.435 175.423C142.759 175.423 155.837 175.423 179.161 175.423C182.434 175.423 186.311 172.734 189.697 169.626C194.418 165.294 202.047 164.969 206.945 169.102C210.883 172.425 215.395 175.423 218.851 175.423C241.273 175.423 253.844 175.423 276.265 175.423C279.786 175.423 284.186 172.429 287.983 169.108C292.741 164.947 300.249 164.947 305.008 169.108C308.804 172.429 313.205 175.423 316.725 175.423C339.298 175.423 351.953 175.423 374.525 175.423C376.884 175.423 379.65 173.998 382.35 172.025C388.443 167.569 398.396 168.935 404.853 172.844C407.392 174.381 410.384 175.423 413.829 175.423C435.95 175.423 448.352 175.423 470.473 175.423C473.475 175.423 477.161 172.925 480.478 169.961C485.398 165.566 493.311 165.566 498.231 169.961C501.548 172.925 505.234 175.423 508.236 175.423C531.109 175.423 543.933 175.423 566.807 175.423C568.627 175.423 570.268 174.839 571.73 173.9C577.189 170.396 586.081 169.039 587.229 175.423C587.504 176.952 587.622 178.757 587.65 180.555C587.73 185.652 583.37 189.497 578.272 189.497H16.9175C11.3946 189.497 6.91749 185.02 6.91749 179.497V175.444Z" fill="#532222"/>
</g>
<path d="M39.5996 0.5C39.5996 0.5 37.9754 3.73628 36.5996 5.5C32.6992 10.5 30.8053 14.9352 29 20C27.1947 25.0648 26.2 36 26.2 36C25.2 37.5 24.1 39.1 23 40.6C23 38.7 23.2 36.9 23.4 35C23.4 35 24.1132 24.9903 26.2 19C28.3388 12.8604 30.3696 8.93722 34.5996 4C36.1806 2.15471 39.5996 0.5 39.5996 0.5Z" fill="#703F3F"/>
<path d="M55.1992 0.5C55.1992 0.5 53.5751 3.73628 52.1992 5.5C48.2988 10.5 46.4049 14.9352 44.5996 20C42.7943 25.0648 41.7996 36 41.7996 36C40.7996 37.5 39.6996 39.1 38.5996 40.6C38.5996 38.7 38.7996 36.9 38.9996 35C38.9996 35 39.7128 24.9903 41.7996 19C43.9384 12.8604 45.9692 8.93722 50.1992 4C51.7802 2.15471 55.1992 0.5 55.1992 0.5Z" fill="#703F3F"/>
<path d="M70.7988 0.5C70.7988 0.5 69.1747 3.73628 67.7988 5.5C63.8984 10.5 62.0045 14.9352 60.1992 20C58.3939 25.0648 57.3992 36 57.3992 36C56.3992 37.5 55.2992 39.1 54.1992 40.6C54.1992 38.7 54.3992 36.9 54.5992 35C54.5992 35 55.3124 24.9903 57.3992 19C59.538 12.8604 61.5688 8.93722 65.7988 4C67.3798 2.15471 70.7988 0.5 70.7988 0.5Z" fill="#703F3F"/>
<path d="M86.3984 0.5C86.3984 0.5 84.7743 3.73628 83.3984 5.5C79.498 10.5 77.6041 14.9352 75.7988 20C73.9935 25.0648 72.9988 36 72.9988 36C71.9988 37.5 70.8988 39.1 69.7988 40.6C69.7988 38.7 69.9988 36.9 70.1988 35C70.1988 35 70.912 24.9903 72.9988 19C75.1377 12.8604 77.1684 8.93722 81.3984 4C82.9794 2.15471 86.3984 0.5 86.3984 0.5Z" fill="#703F3F"/>
<path d="M101.998 0.5C101.998 0.5 100.374 3.73628 98.998 5.5C95.0977 10.5 93.2037 14.9352 91.3984 20C89.5932 25.0648 88.5984 36 88.5984 36C87.5984 37.5 86.4984 39.1 85.3984 40.6C85.3984 38.7 85.5984 36.9 85.7984 35C85.7984 35 86.5116 24.9903 88.5984 19C90.7373 12.8604 92.768 8.93722 96.998 4C98.579 2.15471 101.998 0.5 101.998 0.5Z" fill="#703F3F"/>
<path d="M136.098 0.5C136.098 0.5 134.473 3.73628 133.098 5.5C129.197 10.5 127.303 14.9352 125.498 20C123.693 25.0648 122.698 36 122.698 36C121.698 37.5 120.598 39.1 119.498 40.6C119.498 38.7 119.698 36.9 119.898 35C119.898 35 120.611 24.9903 122.698 19C124.837 12.8604 126.868 8.93722 131.098 4C132.679 2.15471 136.098 0.5 136.098 0.5Z" fill="#703F3F"/>
<path d="M151.697 0.5C151.697 0.5 150.073 3.73628 148.697 5.5C144.797 10.5 142.903 14.9352 141.098 20C139.292 25.0648 138.298 36 138.298 36C137.298 37.5 136.198 39.1 135.098 40.6C135.098 38.7 135.298 36.9 135.498 35C135.498 35 136.211 24.9903 138.298 19C140.436 12.8604 142.467 8.93722 146.697 4C148.278 2.15471 151.697 0.5 151.697 0.5Z" fill="#703F3F"/>
<path d="M167.297 0.5C167.297 0.5 165.673 3.73628 164.297 5.5C160.396 10.5 158.503 14.9352 156.697 20C154.892 25.0648 153.897 36 153.897 36C152.897 37.5 151.797 39.1 150.697 40.6C150.697 38.7 150.897 36.9 151.097 35C151.097 35 151.81 24.9903 153.897 19C156.036 12.8604 158.067 8.93722 162.297 4C163.878 2.15471 167.297 0.5 167.297 0.5Z" fill="#703F3F"/>
<path d="M182.896 0.5C182.896 0.5 181.272 3.73628 179.896 5.5C175.996 10.5 174.102 14.9352 172.297 20C170.492 25.0648 169.497 36 169.497 36C168.497 37.5 167.397 39.1 166.297 40.6C166.297 38.7 166.497 36.9 166.697 35C166.697 35 167.41 24.9903 169.497 19C171.636 12.8604 173.666 8.93722 177.896 4C179.477 2.15471 182.896 0.5 182.896 0.5Z" fill="#703F3F"/>
<path d="M198.496 0.5C198.496 0.5 196.872 3.73628 195.496 5.5C191.596 10.5 189.702 14.9352 187.896 20C186.091 25.0648 185.096 36 185.096 36C184.096 37.5 182.996 39.1 181.896 40.6C181.896 38.7 182.096 36.9 182.296 35C182.296 35 183.01 24.9903 185.096 19C187.235 12.8604 189.266 8.93722 193.496 4C195.077 2.15471 198.496 0.5 198.496 0.5Z" fill="#703F3F"/>
<path d="M232.596 0.5C232.596 0.5 230.972 3.73628 229.596 5.5C225.695 10.5 223.801 14.9352 221.996 20C220.191 25.0648 219.196 36 219.196 36C218.196 37.5 217.096 39.1 215.996 40.6C215.996 38.7 216.196 36.9 216.396 35C216.396 35 217.109 24.9903 219.196 19C221.335 12.8604 223.366 8.93722 227.596 4C229.177 2.15471 232.596 0.5 232.596 0.5Z" fill="#703F3F"/>
<path d="M248.195 0.5C248.195 0.5 246.571 3.73628 245.195 5.5C241.295 10.5 239.401 14.9352 237.596 20C235.79 25.0648 234.796 36 234.796 36C233.796 37.5 232.696 39.1 231.596 40.6C231.596 38.7 231.796 36.9 231.996 35C231.996 35 232.709 24.9903 234.796 19C236.935 12.8604 238.965 8.93722 243.195 4C244.776 2.15471 248.195 0.5 248.195 0.5Z" fill="#703F3F"/>
<path d="M263.795 0.5C263.795 0.5 262.171 3.73628 260.795 5.5C256.895 10.5 255.001 14.9352 253.195 20C251.39 25.0648 250.395 36 250.395 36C249.395 37.5 248.295 39.1 247.195 40.6C247.195 38.7 247.395 36.9 247.595 35C247.595 35 248.309 24.9903 250.395 19C252.534 12.8604 254.565 8.93722 258.795 4C260.376 2.15471 263.795 0.5 263.795 0.5Z" fill="#703F3F"/>
<path d="M279.395 0.5C279.395 0.5 277.77 3.73628 276.395 5.5C272.494 10.5 270.6 14.9352 268.795 20C266.99 25.0648 265.995 36 265.995 36C264.995 37.5 263.895 39.1 262.795 40.6C262.795 38.7 262.995 36.9 263.195 35C263.195 35 263.908 24.9903 265.995 19C268.134 12.8604 270.164 8.93722 274.395 4C275.976 2.15471 279.395 0.5 279.395 0.5Z" fill="#703F3F"/>
<path d="M294.994 0.5C294.994 0.5 293.37 3.73628 291.994 5.5C288.094 10.5 286.2 14.9352 284.395 20C282.589 25.0648 281.595 36 281.595 36C280.595 37.5 279.495 39.1 278.395 40.6C278.395 38.7 278.595 36.9 278.795 35C278.795 35 279.508 24.9903 281.595 19C283.733 12.8604 285.764 8.93722 289.994 4C291.575 2.15471 294.994 0.5 294.994 0.5Z" fill="#703F3F"/>
<path d="M329.094 0.5C329.094 0.5 327.47 3.73628 326.094 5.5C322.193 10.5 320.299 14.9352 318.494 20C316.689 25.0648 315.694 36 315.694 36C314.694 37.5 313.594 39.1 312.494 40.6C312.494 38.7 312.694 36.9 312.894 35C312.894 35 313.607 24.9903 315.694 19C317.833 12.8604 319.864 8.93722 324.094 4C325.675 2.15471 329.094 0.5 329.094 0.5Z" fill="#703F3F"/>
<path d="M344.693 0.5C344.693 0.5 343.069 3.73628 341.693 5.5C337.793 10.5 335.899 14.9352 334.094 20C332.288 25.0648 331.294 36 331.294 36C330.294 37.5 329.194 39.1 328.094 40.6C328.094 38.7 328.294 36.9 328.494 35C328.494 35 329.207 24.9903 331.294 19C333.433 12.8604 335.463 8.93722 339.693 4C341.274 2.15471 344.693 0.5 344.693 0.5Z" fill="#703F3F"/>
<path d="M360.293 0.5C360.293 0.5 358.669 3.73628 357.293 5.5C353.393 10.5 351.499 14.9352 349.693 20C347.888 25.0648 346.893 36 346.893 36C345.893 37.5 344.793 39.1 343.693 40.6C343.693 38.7 343.893 36.9 344.093 35C344.093 35 344.807 24.9903 346.893 19C349.032 12.8604 351.063 8.93722 355.293 4C356.874 2.15471 360.293 0.5 360.293 0.5Z" fill="#703F3F"/>
<path d="M375.893 0.5C375.893 0.5 374.268 3.73628 372.893 5.5C368.992 10.5 367.098 14.9352 365.293 20C363.488 25.0648 362.493 36 362.493 36C361.493 37.5 360.393 39.1 359.293 40.6C359.293 38.7 359.493 36.9 359.693 35C359.693 35 360.406 24.9903 362.493 19C364.632 12.8604 366.663 8.93722 370.893 4C372.474 2.15471 375.893 0.5 375.893 0.5Z" fill="#703F3F"/>
<path d="M391.492 0.5C391.492 0.5 389.868 3.73628 388.492 5.5C384.592 10.5 382.698 14.9352 380.893 20C379.087 25.0648 378.093 36 378.093 36C377.093 37.5 375.993 39.1 374.893 40.6C374.893 38.7 375.093 36.9 375.293 35C375.293 35 376.006 24.9903 378.093 19C380.231 12.8604 382.262 8.93722 386.492 4C388.073 2.15471 391.492 0.5 391.492 0.5Z" fill="#703F3F"/>
<path d="M425.592 0.5C425.592 0.5 423.968 3.73628 422.592 5.5C418.691 10.5 416.797 14.9352 414.992 20C413.187 25.0648 412.192 36 412.192 36C411.192 37.5 410.092 39.1 408.992 40.6C408.992 38.7 409.192 36.9 409.392 35C409.392 35 410.105 24.9903 412.192 19C414.331 12.8604 416.362 8.93722 420.592 4C422.173 2.15471 425.592 0.5 425.592 0.5Z" fill="#703F3F"/>
<path d="M441.191 0.5C441.191 0.5 439.567 3.73628 438.191 5.5C434.291 10.5 432.397 14.9352 430.592 20C428.787 25.0648 427.792 36 427.792 36C426.792 37.5 425.692 39.1 424.592 40.6C424.592 38.7 424.792 36.9 424.992 35C424.992 35 425.705 24.9903 427.792 19C429.931 12.8604 431.961 8.93722 436.191 4C437.772 2.15471 441.191 0.5 441.191 0.5Z" fill="#703F3F"/>
<path d="M456.791 0.5C456.791 0.5 455.167 3.73628 453.791 5.5C449.891 10.5 447.997 14.9352 446.191 20C444.386 25.0648 443.391 36 443.391 36C442.391 37.5 441.291 39.1 440.191 40.6C440.191 38.7 440.391 36.9 440.591 35C440.591 35 441.305 24.9903 443.391 19C445.53 12.8604 447.561 8.93722 451.791 4C453.372 2.15471 456.791 0.5 456.791 0.5Z" fill="#703F3F"/>
<path d="M472.391 0.5C472.391 0.5 470.766 3.73628 469.391 5.5C465.49 10.5 463.596 14.9352 461.791 20C459.986 25.0648 458.991 36 458.991 36C457.991 37.5 456.891 39.1 455.791 40.6C455.791 38.7 455.991 36.9 456.191 35C456.191 35 456.904 24.9903 458.991 19C461.13 12.8604 463.161 8.93722 467.391 4C468.972 2.15471 472.391 0.5 472.391 0.5Z" fill="#703F3F"/>
<path d="M487.99 0.5C487.99 0.5 486.366 3.73628 484.99 5.5C481.09 10.5 479.196 14.9352 477.391 20C475.585 25.0648 474.591 36 474.591 36C473.591 37.5 472.491 39.1 471.391 40.6C471.391 38.7 471.591 36.9 471.791 35C471.791 35 472.504 24.9903 474.591 19C476.729 12.8604 478.76 8.93722 482.99 4C484.571 2.15471 487.99 0.5 487.99 0.5Z" fill="#703F3F"/>
<path d="M522.09 0.5C522.09 0.5 520.466 3.73628 519.09 5.5C515.189 10.5 513.296 14.9352 511.49 20C509.685 25.0648 508.69 36 508.69 36C507.69 37.5 506.59 39.1 505.49 40.6C505.49 38.7 505.69 36.9 505.89 35C505.89 35 506.603 24.9903 508.69 19C510.829 12.8604 512.86 8.93722 517.09 4C518.671 2.15471 522.09 0.5 522.09 0.5Z" fill="#703F3F"/>
<path d="M537.689 0.5C537.689 0.5 536.065 3.73628 534.689 5.5C530.789 10.5 528.895 14.9352 527.09 20C525.285 25.0648 524.29 36 524.29 36C523.29 37.5 522.19 39.1 521.09 40.6C521.09 38.7 521.29 36.9 521.49 35C521.49 35 522.203 24.9903 524.29 19C526.429 12.8604 528.459 8.93722 532.689 4C534.27 2.15471 537.689 0.5 537.689 0.5Z" fill="#703F3F"/>
<path d="M553.289 0.5C553.289 0.5 551.665 3.73628 550.289 5.5C546.389 10.5 544.495 14.9352 542.689 20C540.884 25.0648 539.889 36 539.889 36C538.889 37.5 537.789 39.1 536.689 40.6C536.689 38.7 536.889 36.9 537.089 35C537.089 35 537.803 24.9903 539.889 19C542.028 12.8604 544.059 8.93722 548.289 4C549.87 2.15471 553.289 0.5 553.289 0.5Z" fill="#703F3F"/>
<path d="M568.889 0.5C568.889 0.5 567.265 3.73628 565.889 5.5C561.988 10.5 560.094 14.9352 558.289 20C556.484 25.0648 555.489 36 555.489 36C554.489 37.5 553.389 39.1 552.289 40.6C552.289 38.7 552.489 36.9 552.689 35C552.689 35 553.402 24.9903 555.489 19C557.628 12.8604 559.659 8.93722 563.889 4C565.47 2.15471 568.889 0.5 568.889 0.5Z" fill="#703F3F"/>
<path d="M584.488 0.5C584.488 0.5 582.864 3.73628 581.488 5.5C577.588 10.5 575.694 14.9352 573.889 20C572.083 25.0648 571.089 36 571.089 36C570.089 37.5 568.989 39.1 567.889 40.6C567.889 38.7 568.089 36.9 568.289 35C568.289 35 569.002 24.9903 571.089 19C573.227 12.8604 575.258 8.93722 579.488 4C581.069 2.15471 584.488 0.5 584.488 0.5Z" fill="#703F3F"/>
<defs>
<filter id="filter0_ii_3055:501997" x="6.91748" y="165.873" width="580.734" height="23.6243" filterUnits="userSpaceOnUse" color-interpolation-filters="sRGB">
<feFlood flood-opacity="0" result="BackgroundImageFix"/>
<feBlend mode="normal" in="SourceGraphic" in2="BackgroundImageFix" result="shape"/>
<feColorMatrix in="SourceAlpha" type="matrix" values="0 0 0 0 0 0 0 0 0 0 0 0 0 0 0 0 0 0 127 0" result="hardAlpha"/>
<feOffset dy="4"/>
<feComposite in2="hardAlpha" operator="arithmetic" k2="-1" k3="1"/>
<feColorMatrix type="matrix" values="0 0 0 0 1 0 0 0 0 1 0 0 0 0 1 0 0 0 0.25 0"/>
<feBlend mode="normal" in2="shape" result="effect1_innerShadow_3055:501997"/>
<feColorMatrix in="SourceAlpha" type="matrix" values="0 0 0 0 0 0 0 0 0 0 0 0 0 0 0 0 0 0 127 0" result="hardAlpha"/>
<feOffset dy="-4"/>
<feComposite in2="hardAlpha" operator="arithmetic" k2="-1" k3="1"/>
<feColorMatrix type="matrix" values="0 0 0 0 0 0 0 0 0 0 0 0 0 0 0 0 0 0 0.25 0"/>
<feBlend mode="normal" in2="effect1_innerShadow_3055:501997" result="effect2_innerShadow_3055:501997"/>
</filter>
</defs>
</svg>
