<svg width="320" height="60" viewBox="0 0 320 60" fill="none" xmlns="http://www.w3.org/2000/svg">
<mask id="path-1-outside-1_5002_352150" maskUnits="userSpaceOnUse" x="-0.500671" y="14" width="320" height="40" fill="black">
<rect fill="white" x="-0.500671" y="14" width="320" height="40"/>
<path fill-rule="evenodd" clip-rule="evenodd" d="M160.595 20.0038C104.012 19.8073 47.2063 27.1475 4.85264 42.5137C3.55471 42.9846 2.1208 42.3141 1.6499 41.0162C1.179 39.7183 1.84944 38.2843 3.14737 37.8134C46.2424 22.1783 103.684 14.8062 160.612 15.0039C215.008 15.1928 269.187 22.2941 310.197 35.8699L303.1 20.9051C302.508 19.6575 303.04 18.1666 304.288 17.575C305.535 16.9833 307.026 17.515 307.618 18.7626L317.259 39.0923C317.85 40.3399 317.319 41.8308 316.071 42.4224L295.741 52.0636C294.494 52.6552 293.003 52.1235 292.411 50.8759C291.82 49.6284 292.351 48.1375 293.599 47.5459L308.381 40.5357C268.064 27.232 214.556 20.1912 160.595 20.0038Z"/>
</mask>
<path fill-rule="evenodd" clip-rule="evenodd" d="M160.595 20.0038C104.012 19.8073 47.2063 27.1475 4.85264 42.5137C3.55471 42.9846 2.1208 42.3141 1.6499 41.0162C1.179 39.7183 1.84944 38.2843 3.14737 37.8134C46.2424 22.1783 103.684 14.8062 160.612 15.0039C215.008 15.1928 269.187 22.2941 310.197 35.8699L303.1 20.9051C302.508 19.6575 303.04 18.1666 304.288 17.575C305.535 16.9833 307.026 17.515 307.618 18.7626L317.259 39.0923C317.85 40.3399 317.319 41.8308 316.071 42.4224L295.741 52.0636C294.494 52.6552 293.003 52.1235 292.411 50.8759C291.82 49.6284 292.351 48.1375 293.599 47.5459L308.381 40.5357C268.064 27.232 214.556 20.1912 160.595 20.0038Z" fill="#00CC67"/>
<path d="M4.85264 42.5137L4.51159 41.5736L4.85264 42.5137ZM160.595 20.0038L160.598 19.0038L160.595 20.0038ZM1.6499 41.0162L2.58994 40.6751L2.58994 40.6751L1.6499 41.0162ZM3.14737 37.8134L2.80632 36.8734H2.80632L3.14737 37.8134ZM160.612 15.0039L160.609 16.0039L160.612 15.0039ZM310.197 35.8699L309.883 36.8193L312.102 37.5541L311.1 35.4414L310.197 35.8699ZM303.1 20.9051L302.196 21.3335V21.3336L303.1 20.9051ZM304.288 17.575L303.859 16.6714L303.859 16.6714L304.288 17.575ZM307.618 18.7626L306.714 19.1911V19.1911L307.618 18.7626ZM317.259 39.0923L316.355 39.5208V39.5208L317.259 39.0923ZM316.071 42.4224L315.643 41.5189L315.643 41.5189L316.071 42.4224ZM295.741 52.0636L296.17 52.9671V52.9671L295.741 52.0636ZM292.411 50.8759L293.315 50.4475L293.315 50.4474L292.411 50.8759ZM293.599 47.5459L293.171 46.6423L293.599 47.5459ZM308.381 40.5357L308.809 41.4393L311.066 40.3689L308.694 39.5861L308.381 40.5357ZM5.1937 43.4537C47.3991 28.1413 104.077 20.8076 160.591 21.0038L160.598 19.0038C103.946 18.8071 47.0135 26.1536 4.51159 41.5736L5.1937 43.4537ZM0.709856 41.3572C1.36911 43.1743 3.3766 44.113 5.1937 43.4537L4.51159 41.5736C3.73283 41.8562 2.87248 41.4539 2.58994 40.6751L0.709856 41.3572ZM2.80632 36.8734C0.989219 37.5327 0.0505997 39.5401 0.709856 41.3572L2.58994 40.6751C2.30741 39.8964 2.70967 39.036 3.48843 38.7535L2.80632 36.8734ZM160.615 14.0039C103.618 13.8059 46.0496 21.1844 2.80632 36.8734L3.48843 38.7535C46.4352 23.1721 103.749 15.8064 160.609 16.0039L160.615 14.0039ZM310.511 34.9206C269.371 21.3018 215.081 14.193 160.615 14.0039L160.609 16.0039C214.936 16.1925 269.003 23.2865 309.883 36.8193L310.511 34.9206ZM302.196 21.3336L309.293 36.2984L311.1 35.4414L304.004 20.4766L302.196 21.3336ZM303.859 16.6714C302.113 17.4997 301.368 19.587 302.196 21.3335L304.004 20.4766C303.649 19.728 303.968 18.8335 304.716 18.4785L303.859 16.6714ZM308.521 18.3341C307.693 16.5875 305.606 15.8431 303.859 16.6714L304.716 18.4785C305.465 18.1235 306.359 18.4426 306.714 19.1911L308.521 18.3341ZM318.162 38.6638L308.521 18.3341L306.714 19.1911L316.355 39.5208L318.162 38.6638ZM316.5 43.326C318.246 42.4977 318.991 40.4104 318.162 38.6638L316.355 39.5208C316.71 40.2693 316.391 41.1639 315.643 41.5189L316.5 43.326ZM296.17 52.9671L316.5 43.326L315.643 41.5189L295.313 51.16L296.17 52.9671ZM291.508 51.3044C292.336 53.051 294.423 53.7954 296.17 52.9671L295.313 51.16C294.564 51.515 293.67 51.196 293.315 50.4475L291.508 51.3044ZM293.171 46.6423C291.424 47.4706 290.68 49.5579 291.508 51.3045L293.315 50.4474C292.96 49.6989 293.279 48.8044 294.027 48.4494L293.171 46.6423ZM307.952 39.6322L293.171 46.6423L294.027 48.4494L308.809 41.4393L307.952 39.6322ZM160.591 21.0038C214.483 21.191 267.88 28.2244 308.068 41.4853L308.694 39.5861C268.248 26.2396 214.628 19.1915 160.598 19.0038L160.591 21.0038Z" fill="white" fill-opacity="0.5" mask="url(#path-1-outside-1_5002_352150)"/>
</svg>
