<svg width="120" height="120" viewBox="0 0 120 120" fill="none" xmlns="http://www.w3.org/2000/svg">
<mask id="path-1-outside-1_3874_257002" maskUnits="userSpaceOnUse" x="2.5" y="2.5" width="115" height="115" fill="black">
<rect fill="white" x="2.5" y="2.5" width="115" height="115"/>
<path fill-rule="evenodd" clip-rule="evenodd" d="M4.23223 4.23223C5.20854 3.25592 6.79146 3.25592 7.76777 4.23223L60 56.4645L112.232 4.23224C113.209 3.25593 114.791 3.25592 115.768 4.23224C116.744 5.20855 116.744 6.79146 115.768 7.76777L63.5355 60L115.768 112.232C116.744 113.209 116.744 114.791 115.768 115.768C114.791 116.744 113.208 116.744 112.232 115.768L60 63.5356L7.76784 115.768C6.79153 116.744 5.20862 116.744 4.23231 115.768C3.256 114.791 3.256 113.209 4.23231 112.232L56.4645 60L4.23223 7.76777C3.25592 6.79146 3.25592 5.20854 4.23223 4.23223Z"/>
</mask>
<path fill-rule="evenodd" clip-rule="evenodd" d="M4.23223 4.23223C5.20854 3.25592 6.79146 3.25592 7.76777 4.23223L60 56.4645L112.232 4.23224C113.209 3.25593 114.791 3.25592 115.768 4.23224C116.744 5.20855 116.744 6.79146 115.768 7.76777L63.5355 60L115.768 112.232C116.744 113.209 116.744 114.791 115.768 115.768C114.791 116.744 113.208 116.744 112.232 115.768L60 63.5356L7.76784 115.768C6.79153 116.744 5.20862 116.744 4.23231 115.768C3.256 114.791 3.256 113.209 4.23231 112.232L56.4645 60L4.23223 7.76777C3.25592 6.79146 3.25592 5.20854 4.23223 4.23223Z" fill="#00CC67"/>
<path d="M7.76777 4.23223L7.06066 4.93934L7.76777 4.23223ZM4.23223 4.23223L3.52513 3.52513L4.23223 4.23223ZM60 56.4645L59.2929 57.1716L60 57.8787L60.7071 57.1716L60 56.4645ZM112.232 4.23224L111.525 3.52513V3.52513L112.232 4.23224ZM115.768 4.23224L115.061 4.93934V4.93934L115.768 4.23224ZM115.768 7.76777L115.061 7.06066L115.768 7.76777ZM63.5355 60L62.8284 59.2929L62.1213 60L62.8284 60.7071L63.5355 60ZM115.768 112.232L115.061 112.939L115.768 112.232ZM115.768 115.768L116.475 116.475L115.768 115.768ZM112.232 115.768L111.525 116.475L112.232 115.768ZM60 63.5356L60.7071 62.8285L60 62.1214L59.2929 62.8285L60 63.5356ZM7.76784 115.768L8.47495 116.475H8.47495L7.76784 115.768ZM4.23231 112.232L4.93941 112.939H4.93941L4.23231 112.232ZM56.4645 60L57.1716 60.7071L57.8787 60L57.1716 59.2929L56.4645 60ZM4.23223 7.76777L4.93934 7.06066L4.23223 7.76777ZM8.47487 3.52513C7.10804 2.15829 4.89196 2.15829 3.52513 3.52513L4.93934 4.93934C5.52513 4.35355 6.47487 4.35355 7.06066 4.93934L8.47487 3.52513ZM60.7071 55.7574L8.47487 3.52513L7.06066 4.93934L59.2929 57.1716L60.7071 55.7574ZM111.525 3.52513L59.2929 55.7574L60.7071 57.1716L112.939 4.93934L111.525 3.52513ZM116.475 3.52513C115.108 2.15829 112.892 2.15829 111.525 3.52513L112.939 4.93934C113.525 4.35356 114.475 4.35356 115.061 4.93934L116.475 3.52513ZM116.475 8.47488C117.842 7.10804 117.842 4.89196 116.475 3.52513L115.061 4.93934C115.646 5.52513 115.646 6.47488 115.061 7.06066L116.475 8.47488ZM64.2426 60.7071L116.475 8.47488L115.061 7.06066L62.8284 59.2929L64.2426 60.7071ZM116.475 111.525L64.2426 59.2929L62.8284 60.7071L115.061 112.939L116.475 111.525ZM116.475 116.475C117.842 115.108 117.842 112.892 116.475 111.525L115.061 112.939C115.646 113.525 115.646 114.475 115.061 115.061L116.475 116.475ZM111.525 116.475C112.892 117.842 115.108 117.842 116.475 116.475L115.061 115.061C114.475 115.646 113.525 115.646 112.939 115.061L111.525 116.475ZM59.2929 64.2427L111.525 116.475L112.939 115.061L60.7071 62.8285L59.2929 64.2427ZM8.47495 116.475L60.7071 64.2427L59.2929 62.8285L7.06073 115.061L8.47495 116.475ZM3.5252 116.475C4.89204 117.842 7.10811 117.842 8.47495 116.475L7.06073 115.061C6.47495 115.646 5.5252 115.646 4.93941 115.061L3.5252 116.475ZM3.5252 111.525C2.15836 112.892 2.15837 115.108 3.5252 116.475L4.93941 115.061C4.35363 114.475 4.35363 113.525 4.93941 112.939L3.5252 111.525ZM55.7574 59.2929L3.5252 111.525L4.93941 112.939L57.1716 60.7071L55.7574 59.2929ZM3.52513 8.47487L55.7574 60.7071L57.1716 59.2929L4.93934 7.06066L3.52513 8.47487ZM3.52513 3.52513C2.15829 4.89196 2.15829 7.10804 3.52513 8.47487L4.93934 7.06066C4.35355 6.47487 4.35355 5.52513 4.93934 4.93934L3.52513 3.52513Z" fill="white" fill-opacity="0.5" mask="url(#path-1-outside-1_3874_257002)"/>
</svg>
