<svg width="579" height="341" viewBox="0 0 579 341" fill="none" xmlns="http://www.w3.org/2000/svg">
<path d="M187.007 95.1744C172.819 116.612 156.025 166.112 190.642 200.921C224.709 235.168 267.785 255.127 383.316 240.729C463.335 230.756 467.705 196.228 469.223 132.452C470.484 79.6155 357.157 142.829 317.055 118.727C283.393 98.4989 288.007 54.1322 270.625 44.55C253.231 34.9555 230.646 29.2111 187.007 95.1744Z" fill="#99D3FF" stroke="#297CD6" stroke-miterlimit="10" stroke-linecap="round" stroke-linejoin="round"/>
<path d="M317.042 118.728C283.379 98.5001 287.994 54.1335 270.612 44.5512C253.23 34.969 230.645 29.2246 186.994 95.1757C172.806 116.613 156.012 166.113 190.629 200.922C224.696 235.169 267.772 255.128 383.303 240.73C463.322 230.757 467.692 196.229 469.21 132.453C470.471 79.6168 357.156 142.83 317.042 118.728ZM448.609 189.873C401.554 228.227 375.628 223.558 342.393 225.232C303.357 227.2 261.48 230.561 213.385 194.42C203.96 187.343 194.204 179.863 189.001 169.291C184.166 159.465 180.188 146.167 181.461 135.301C185.255 103.035 215.136 56.309 239.973 45.529C258.493 37.499 275.557 49.9168 277.761 59.1935C284.371 86.9012 286.721 91.509 301.472 111.529C308.779 121.453 328.818 128.946 347.412 128.677C366.006 128.408 385.69 123.018 403.917 119.376C410.772 118.007 433.258 112.739 442.243 113.448C469.014 115.55 464.767 137.721 464.13 149.821C463.334 165.356 460.69 180.022 448.609 189.873Z" fill="#79C4FF"/>
<path d="M198.647 94.3799C197.815 98.0098 222.162 54.3765 256.559 64.6676C275.349 70.2899 285.473 100.772 285.106 98.9387C283.012 88.5254 282.78 90.371 279.316 74.2254C275.545 56.6499 271.873 50.9054 262.619 47.2632C243.719 39.8198 225.186 57.0654 214.646 70.461C203.421 84.7243 199.945 88.7454 198.647 94.3799Z" fill="#DDF8FF"/>
<path d="M383.23 213.498C403.672 206.788 421.703 189.53 436.49 169.155C451.277 148.781 439.036 124.984 418.043 122.662C399.779 120.645 471.389 97.3988 460.617 156.481C458.23 169.547 458.047 177.662 446.381 187.929C434.128 198.709 433.271 198.403 417.957 206.727C399.155 216.944 375.469 216.04 383.23 213.498Z" fill="#DDF8FF"/>
</svg>
