<svg width="386" height="602" viewBox="0 0 386 602" fill="none" xmlns="http://www.w3.org/2000/svg">
<path d="M145.124 440.252C146.093 450.197 147.068 460.152 148.052 470.116C149.481 484.606 150.925 499.075 152.382 513.523C139.643 518.726 119.967 524.358 97.5738 520.907C94.2773 520.398 91.1543 519.731 88.2081 518.948C88.001 495.225 87.7938 471.499 87.5867 447.776C106.766 445.269 125.945 442.762 145.124 440.252Z" fill="#7F8E35"/>
<path d="M136.88 441.33C139.628 440.97 142.379 440.611 145.127 440.252C146.096 450.197 147.071 460.152 148.055 470.116C149.484 484.606 150.928 499.075 152.385 513.523C149.697 514.619 146.681 515.734 143.415 516.779C141.739 491.584 140.768 466.296 136.88 441.33Z" fill="url(#paint0_linear_3316_579092)"/>
<path d="M117.968 489.276C118.925 474.146 120.418 459.052 121.323 443.919C121.335 443.709 121.296 443.539 121.244 443.377C122.813 443.173 124.379 442.966 125.948 442.762C126.359 449.143 126.774 455.522 127.136 461.907C128.239 481.338 129.071 500.787 129.65 520.24C125.719 520.971 121.561 521.501 117.228 521.766C117.14 518.628 117.07 515.488 117.091 512.353C117.143 504.653 117.484 496.958 117.968 489.276Z" fill="url(#paint1_linear_3316_579092)"/>
<path d="M94.6611 472.087C92.1292 486.376 89.8198 500.714 88.1715 515.132C87.9765 492.679 87.7785 470.229 87.5835 447.776C91.4742 447.267 95.3648 446.758 99.2525 446.25C97.7504 454.867 96.1875 463.472 94.6611 472.087Z" fill="url(#paint2_linear_3316_579092)"/>
<path d="M93.7622 496.02C96.3062 479.236 99.5175 462.561 102.421 445.835C105.809 445.39 109.2 444.948 112.588 444.507C110.343 451.918 108.268 459.378 106.479 466.914C102.266 484.682 99.2403 502.672 96.5165 520.714C94.5575 520.389 92.6807 519.996 90.8435 519.575C91.6265 511.713 92.574 503.86 93.7622 496.02Z" fill="url(#paint3_linear_3316_579092)"/>
<path d="M118.368 443.751C118.337 443.864 118.289 443.962 118.279 444.087C117.752 452.911 117.03 461.724 116.323 470.533C115.129 485.45 113.676 500.549 114.084 515.53C114.142 517.656 114.185 519.786 114.239 521.915C109.529 522.055 104.612 521.83 99.5481 521.166C103.506 495.161 108.186 469.266 115.879 444.077C116.71 443.968 117.539 443.858 118.368 443.751Z" fill="url(#paint4_linear_3316_579092)"/>
<path d="M128.977 442.363L133.857 441.723C134.823 447.937 135.676 454.169 136.328 460.426C138.318 479.461 139.153 498.594 140.432 517.69C137.983 518.403 135.375 519.048 132.678 519.63C131.904 493.857 130.637 468.096 128.977 442.363Z" fill="url(#paint5_linear_3316_579092)"/>
<path d="M107.409 493.12C106.824 486.94 106.428 480.738 106.415 474.527C106.409 471.718 106.616 469.236 108.365 467.396C110.468 465.184 113.274 465.599 119.303 465.139C130.152 464.307 131.222 462.184 133.952 463.57C138.711 465.982 138.33 473.881 139.354 483.823C140.146 491.497 141.983 502.438 146.733 515.664C137.114 519.058 124.729 522.058 110.781 521.949C109.669 512.341 108.32 502.755 107.409 493.12Z" fill="url(#paint6_linear_3316_579092)"/>
<path d="M189.546 546.183C191.56 545.888 193.573 545.595 195.59 545.294C194.588 540.706 193.385 536.164 191.937 531.72C188.397 520.842 182.492 508.701 174.863 496.605C164.483 480.146 151.538 464.779 136.359 450.886C135.259 449.877 133.525 449.969 132.532 451.084L132.038 451.635C131.063 452.725 131.161 454.385 132.239 455.372C147.022 468.9 159.621 483.854 169.711 499.855C177.078 511.531 182.761 523.2 186.145 533.606C187.483 537.724 188.604 541.934 189.546 546.183Z" fill="#E0C9AD"/>
<path d="M204.709 541.288C206.199 541.367 207.485 540.219 207.527 538.726C207.945 524.211 205.672 503.906 193.665 484.853C187.882 475.681 181.505 469.476 178.218 466.594C168.124 457.745 155.733 451.455 142.242 448.312C140.783 447.97 139.326 448.942 139.034 450.41L138.887 451.148C138.601 452.57 139.515 453.929 140.926 454.258C153.42 457.182 164.879 463 174.202 471.173C177.24 473.838 183.138 479.58 188.51 488.1C199.691 505.834 201.821 524.836 201.44 538.464C201.4 539.926 202.509 541.166 203.972 541.242L204.709 541.288Z" fill="#E0C9AD"/>
<path d="M230.229 533.972L230.966 533.883C232.468 533.707 233.525 532.339 233.306 530.843C231.344 517.587 225.18 494.933 205.94 474.938C186.493 454.727 163.831 447.739 150.517 445.327C149.03 445.056 147.629 446.07 147.403 447.566L147.293 448.3C147.077 449.725 148.016 451.066 149.435 451.322C161.951 453.588 183.263 460.155 201.553 479.16C219.647 497.964 225.442 519.268 227.282 531.733C227.487 533.161 228.794 534.142 230.229 533.972Z" fill="#E0C9AD"/>
<path d="M121.43 567.701L122.161 567.573C123.608 567.323 124.571 565.958 124.327 564.508C119.48 535.866 116.293 506.718 114.852 477.828C114.52 471.154 114.276 464.383 114.124 457.657C114.09 456.186 112.881 455.022 111.409 455.05L110.666 455.065C109.182 455.092 108 456.317 108.033 457.8C108.186 464.578 108.432 471.404 108.767 478.133C110.221 507.254 113.432 536.633 118.316 565.501C118.563 566.97 119.964 567.957 121.43 567.701Z" fill="#E0C9AD"/>
<path d="M85.7523 564.469C87.2178 564.454 88.3816 563.26 88.3786 561.794C88.2963 530.544 92.4186 499.891 100.645 470.639C101.763 466.667 102.966 462.674 104.24 458.738C104.691 457.34 103.941 455.848 102.546 455.385L101.839 455.15C100.428 454.681 98.899 455.445 98.442 456.859C97.1471 460.871 95.9162 464.943 94.7768 468.994C86.4043 498.782 82.2029 529.99 82.2851 561.797C82.2882 563.287 83.5191 564.493 85.0089 564.478L85.7523 564.469Z" fill="#E0C9AD"/>
<path d="M46.038 558.578C47.4882 558.55 48.6613 557.378 48.6613 555.928C48.6522 536.987 52.4819 503.684 75.7468 475.882C81.3041 469.241 87.7022 463.234 94.792 457.995C95.9619 457.13 96.2483 455.51 95.4105 454.322L94.9839 453.715C94.1217 452.488 92.3972 452.189 91.1907 453.082C83.7049 458.613 76.9472 464.959 71.0762 471.974C46.6047 501.219 42.5647 536.082 42.5708 555.906C42.5708 557.411 43.7956 558.62 45.3007 558.593L46.038 558.578Z" fill="#E0C9AD"/>
<path d="M21.4266 550.146C22.8464 550.49 24.2571 549.625 24.6227 548.212C30.4237 525.777 40.4841 505.256 54.5448 487.18C64.1755 474.8 75.5277 463.837 88.3179 454.568C89.5 453.712 89.7895 452.08 88.9516 450.885L88.525 450.276C87.6659 449.052 85.9567 448.753 84.7471 449.63C71.4877 459.241 59.7181 470.603 49.7339 483.439C35.1583 502.176 24.7323 523.441 18.7242 546.686C18.3494 548.133 19.2543 549.619 20.7076 549.973L21.4266 550.146Z" fill="#E0C9AD"/>
<path d="M2.77136 529.317C4.17591 529.664 5.59876 528.848 5.97961 527.453C9.42547 514.872 17.8741 493.455 37.8363 475.364C55.4069 459.445 74.4185 452.604 88.074 449.676C89.506 449.369 90.4444 447.998 90.1702 446.56L90.0331 445.829C89.7558 444.364 88.336 443.389 86.8797 443.7C72.4533 446.783 52.3388 454.002 33.7476 470.85C12.6702 489.949 3.74632 512.554 0.10546 525.842C-0.293663 527.298 0.586868 528.778 2.05235 529.141L2.77136 529.317Z" fill="#E0C9AD"/>
<path d="M141.374 555.157L142.111 555.063C143.583 554.874 144.628 553.53 144.433 552.059C143.357 543.902 142.151 535.674 140.844 527.562C137.011 503.797 132.112 479.891 126.271 456.463C125.912 455.022 124.443 454.148 123.002 454.513L122.28 454.696C120.854 455.056 119.995 456.493 120.351 457.919C126.155 481.188 131.021 504.93 134.826 528.534C136.127 536.591 137.322 544.764 138.391 552.866C138.586 554.322 139.914 555.343 141.374 555.157Z" fill="#E0C9AD"/>
<path d="M189.546 546.183C191.56 545.888 193.573 545.595 195.59 545.294C194.588 540.706 193.385 536.164 191.937 531.72C188.397 520.842 182.492 508.701 174.863 496.605C164.483 480.146 151.538 464.779 136.359 450.886C135.259 449.877 133.525 449.969 132.532 451.084L132.038 451.635C131.063 452.725 131.161 454.385 132.239 455.372C147.022 468.9 159.621 483.854 169.711 499.855C177.078 511.531 182.761 523.2 186.145 533.606C187.483 537.724 188.604 541.934 189.546 546.183Z" fill="url(#paint7_linear_3316_579092)"/>
<path d="M204.709 541.288C206.199 541.367 207.485 540.219 207.527 538.726C207.945 524.211 205.672 503.906 193.665 484.853C187.882 475.681 181.505 469.476 178.218 466.594C168.124 457.745 155.733 451.455 142.242 448.312C140.783 447.97 139.326 448.942 139.034 450.41L138.887 451.148C138.601 452.57 139.515 453.929 140.926 454.258C153.42 457.182 164.879 463 174.202 471.173C177.24 473.838 183.138 479.58 188.51 488.1C199.691 505.834 201.821 524.836 201.44 538.464C201.4 539.926 202.509 541.166 203.972 541.242L204.709 541.288Z" fill="url(#paint8_linear_3316_579092)"/>
<path d="M230.229 533.972L230.966 533.883C232.468 533.707 233.525 532.339 233.306 530.843C231.344 517.587 225.18 494.933 205.94 474.938C186.493 454.727 163.831 447.739 150.517 445.327C149.03 445.056 147.629 446.07 147.403 447.566L147.293 448.3C147.077 449.725 148.016 451.066 149.435 451.322C161.951 453.588 183.263 460.155 201.553 479.16C219.647 497.964 225.442 519.268 227.282 531.733C227.487 533.161 228.794 534.142 230.229 533.972Z" fill="url(#paint9_linear_3316_579092)"/>
<path d="M121.43 567.701L122.161 567.573C123.608 567.323 124.571 565.958 124.327 564.508C119.48 535.866 116.293 506.718 114.852 477.828C114.52 471.154 114.276 464.383 114.124 457.657C114.09 456.186 112.881 455.022 111.409 455.05L110.666 455.065C109.182 455.092 108 456.317 108.033 457.8C108.186 464.578 108.432 471.404 108.767 478.133C110.221 507.254 113.432 536.633 118.316 565.501C118.563 566.97 119.964 567.957 121.43 567.701Z" fill="url(#paint10_linear_3316_579092)"/>
<path d="M85.7523 564.469C87.2178 564.454 88.3816 563.26 88.3786 561.794C88.2963 530.544 92.4186 499.891 100.645 470.639C101.763 466.667 102.966 462.674 104.24 458.738C104.691 457.34 103.941 455.848 102.546 455.385L101.839 455.15C100.428 454.681 98.899 455.445 98.442 456.859C97.1471 460.871 95.9162 464.943 94.7768 468.994C86.4043 498.782 82.2029 529.99 82.2851 561.797C82.2882 563.287 83.5191 564.493 85.0089 564.478L85.7523 564.469Z" fill="url(#paint11_linear_3316_579092)"/>
<path d="M46.038 558.578C47.4882 558.55 48.6613 557.378 48.6613 555.928C48.6522 536.987 52.4819 503.684 75.7468 475.882C81.3041 469.241 87.7022 463.234 94.792 457.995C95.9619 457.13 96.2483 455.51 95.4105 454.322L94.9839 453.715C94.1217 452.488 92.3972 452.189 91.1907 453.082C83.7049 458.613 76.9472 464.959 71.0762 471.974C46.6047 501.219 42.5647 536.082 42.5708 555.906C42.5708 557.411 43.7956 558.62 45.3007 558.593L46.038 558.578Z" fill="url(#paint12_linear_3316_579092)"/>
<path d="M21.4266 550.146C22.8464 550.49 24.2571 549.625 24.6227 548.212C30.4237 525.777 40.4841 505.256 54.5448 487.18C64.1755 474.8 75.5277 463.837 88.3179 454.568C89.5 453.712 89.7895 452.08 88.9516 450.885L88.525 450.276C87.6659 449.052 85.9567 448.753 84.7471 449.63C71.4877 459.241 59.7181 470.603 49.7339 483.439C35.1583 502.176 24.7323 523.441 18.7242 546.686C18.3494 548.133 19.2543 549.619 20.7076 549.973L21.4266 550.146Z" fill="url(#paint13_linear_3316_579092)"/>
<path d="M2.77136 529.317C4.17591 529.664 5.59876 528.848 5.97961 527.453C9.42547 514.872 17.8741 493.455 37.8363 475.364C55.4069 459.445 74.4185 452.604 88.074 449.676C89.506 449.369 90.4444 447.998 90.1702 446.56L90.0331 445.829C89.7558 444.364 88.336 443.389 86.8797 443.7C72.4533 446.783 52.3388 454.002 33.7476 470.85C12.6702 489.949 3.74632 512.554 0.10546 525.842C-0.293663 527.298 0.586868 528.778 2.05235 529.141L2.77136 529.317Z" fill="url(#paint14_linear_3316_579092)"/>
<path d="M141.374 555.157L142.111 555.063C143.583 554.874 144.628 553.53 144.433 552.059C143.357 543.902 142.151 535.674 140.844 527.562C137.011 503.797 132.112 479.891 126.271 456.463C125.912 455.022 124.443 454.148 123.002 454.513L122.28 454.696C120.854 455.056 119.995 456.493 120.351 457.919C126.155 481.188 131.021 504.93 134.826 528.534C136.127 536.591 137.322 544.764 138.391 552.866C138.586 554.322 139.914 555.343 141.374 555.157Z" fill="url(#paint15_linear_3316_579092)"/>
<path d="M139.768 324.81C138.245 339.3 138.817 350.751 139.485 357.97C140.99 374.254 149.027 434.397 150.032 443.517C150.09 444.044 150.218 445.335 149.627 446.782C147.571 451.836 138.994 453.399 133.227 454.249C128.288 454.977 86.7883 460.871 84.0888 451.516C83.9396 450.995 84.0645 450.965 84.29 447.806C84.29 447.806 84.5641 444.014 84.5702 435.743C84.5763 429.852 83.6653 386.57 82.145 327.469C101.355 326.58 120.561 325.696 139.768 324.81Z" fill="#7F8E35"/>
<path d="M148.519 448.567C143.97 427.921 140.579 407.018 138.577 385.973C136.652 365.698 135.969 345.304 136.7 324.953C137.721 324.907 138.745 324.859 139.765 324.813C138.242 339.303 138.815 350.754 139.482 357.973C140.987 374.257 149.027 434.4 150.03 443.52C150.088 444.047 150.216 445.339 149.625 446.785C149.363 447.437 148.982 448.025 148.519 448.567Z" fill="url(#paint16_linear_3316_579092)"/>
<path d="M126.39 390.048C126.548 368.506 127.389 346.946 126.692 325.413C129.013 325.306 131.338 325.2 133.659 325.093C133.291 335.261 133.272 345.438 133.595 355.609C134.354 379.603 136.941 403.537 141.118 427.175C142.507 435.04 144.137 442.856 145.874 450.651C142.288 452.744 137.136 453.676 133.23 454.252C132.541 454.352 131.128 454.556 129.229 454.803C127.417 433.261 126.231 411.661 126.39 390.048Z" fill="url(#paint17_linear_3316_579092)"/>
<path d="M126.228 455.172C124.031 455.434 121.451 455.708 118.7 455.955C117.231 432.725 116.652 409.437 116.96 386.165C117.225 366 118.163 345.844 119.702 325.733C121.018 325.672 122.334 325.611 123.648 325.55C123.98 335.636 124.001 345.731 123.87 355.826C123.699 369.037 123.337 382.245 123.322 395.459C123.306 408.749 123.919 421.972 124.781 435.232C125.214 441.884 125.692 448.531 126.228 455.172Z" fill="url(#paint18_linear_3316_579092)"/>
<path d="M116.671 325.876C115.985 334.844 115.379 343.818 114.946 352.804C113.74 377.864 113.502 402.973 114.291 428.049C114.587 437.443 115.08 446.828 115.674 456.207C115.175 456.247 114.666 456.28 114.16 456.314C110.62 413.035 110.76 369.564 110.379 326.163C112.478 326.068 114.575 325.971 116.671 325.876Z" fill="url(#paint19_linear_3316_579092)"/>
<path d="M92.9154 456.085C91.2853 436.008 90.5663 415.913 91.7332 395.724C93.0585 372.802 95.828 349.837 95.2217 326.863L101.55 326.571C100.642 336.312 99.8375 346.066 99.2647 355.832C97.7505 381.675 97.4306 407.591 98.4178 433.462C98.7133 441.211 99.1672 448.948 99.6973 456.686C97.2508 456.6 94.9749 456.399 92.9154 456.085Z" fill="url(#paint20_linear_3316_579092)"/>
<path d="M84.29 447.806C84.29 447.806 84.5641 444.014 84.5702 435.744C84.5733 429.856 83.6654 386.57 82.145 327.47L92.2023 327.007C92.4948 338.125 91.9982 349.259 91.2487 360.352C90.3378 373.877 89.0612 387.378 88.4244 400.921C87.7815 414.561 87.9399 428.232 88.7473 441.86C89.0154 446.393 89.3658 450.919 89.7467 455.443C86.7273 454.629 84.6251 453.384 84.0889 451.519C83.9396 450.995 84.0645 450.965 84.29 447.806Z" fill="url(#paint21_linear_3316_579092)"/>
<path d="M102.775 456.737C101.251 434.653 100.642 412.508 101.004 390.375C101.352 369.021 102.601 347.693 104.59 326.434L107.336 326.306C107.439 337.814 107.512 349.322 107.613 360.831C107.887 392.739 108.551 424.704 111.144 456.506C108.341 456.658 105.507 456.746 102.775 456.737Z" fill="url(#paint22_linear_3316_579092)"/>
<path d="M139.604 443.779C137.437 446.238 134.382 447.508 131.246 448.217C129.272 448.665 127.255 448.845 125.241 448.997C122.679 449.189 120.114 449.582 117.536 449.491C115.004 449.399 112.302 448.717 110.65 446.664C110.644 446.655 110.638 446.646 110.632 446.637C110.19 439.496 109.742 432.356 109.331 425.216C108.612 412.73 108.161 400.202 107.055 387.743C106.114 377.13 104.715 366.515 103.591 355.881C103.283 352.984 105.334 350.327 108.219 349.922C113.734 349.146 119.276 348.53 124.833 348.073C127.749 347.833 130.32 349.992 130.649 352.895C134.531 386.896 137.66 412.069 138.958 421.884C139.4 425.213 140.243 431.357 142.172 439.231C141.587 440.882 140.783 442.442 139.604 443.779Z" fill="url(#paint23_linear_3316_579092)"/>
<path d="M155.035 353.035L155.696 352.904C157.168 352.612 158.112 351.473 157.664 350.416C155.708 345.789 152.107 341.262 146.711 336.638C145.276 335.41 143.701 334.204 141.785 333.354C140.249 332.672 138.199 333.299 137.727 334.606L137.526 335.161C137.215 336.023 137.754 336.86 138.744 337.336C139.92 337.902 141.011 338.758 142.041 339.639C146.879 343.784 150.093 347.787 151.818 351.817C152.235 352.795 153.67 353.306 155.035 353.035Z" fill="#E0C9AD"/>
<path d="M137.529 369.789L138.236 369.564C139.619 369.122 140.368 367.663 139.96 366.268C137.452 357.644 136.158 348.756 136.097 339.776C136.088 338.323 134.954 337.138 133.501 337.11L132.761 337.095C131.258 337.065 129.994 338.28 130.003 339.782C130.064 349.347 131.444 358.817 134.119 368.004C134.54 369.445 136.097 370.249 137.529 369.789Z" fill="#E0C9AD"/>
<path d="M123.215 379.36L123.946 379.232C125.378 378.982 126.32 377.642 126.11 376.204C124.403 364.541 124.784 352.441 127.225 340.912C127.526 339.489 126.67 338.094 125.256 337.753L124.534 337.579C123.075 337.229 121.579 338.14 121.268 339.611C118.669 351.866 118.264 364.726 120.083 377.124C120.302 378.614 121.734 379.616 123.215 379.36Z" fill="#E0C9AD"/>
<path d="M97.6256 398.526L98.366 398.477C99.8224 398.38 100.907 397.137 100.837 395.678C99.9382 377.194 102.644 358.36 108.713 340.875C109.191 339.498 108.499 337.997 107.128 337.494L106.431 337.238C105.026 336.723 103.448 337.448 102.957 338.862C96.6294 357.084 93.8081 376.722 94.7465 395.991C94.8226 397.484 96.1328 398.626 97.6256 398.526Z" fill="#E0C9AD"/>
<path d="M63.5263 458.821C70.607 417.369 81.9713 377.697 96.5651 343.495C97.537 341.219 97.4639 338.024 96.3823 336.282L95.8339 335.395C94.7249 333.607 92.9822 334.031 91.9828 336.367C76.8558 371.827 65.071 412.958 57.7284 455.93C57.2439 458.763 58.0422 461.638 59.4741 462.302L60.184 462.631C61.5794 463.28 63.0541 461.58 63.5263 458.821Z" fill="#E0C9AD"/>
<path d="M44.344 422.423C58.9897 398.276 73.9858 373.246 87.6534 344.826C88.9392 342.152 89.2195 338.213 88.2903 336.13L87.8302 335.097C86.9253 333.068 85.2069 333.559 83.9547 336.163C70.6679 363.785 55.9064 388.419 41.48 412.206C40.0907 414.5 39.5302 418.353 40.2248 420.83L40.5752 422.079C41.2637 424.561 42.9516 424.717 44.344 422.423Z" fill="#E0C9AD"/>
<path d="M35.6242 363.584C51.2967 354.738 68.4042 346.486 86.581 339.008C88.6558 338.155 89.1464 336.672 87.6657 335.667L86.9131 335.158C85.402 334.134 82.4162 333.997 80.2987 334.865C61.6344 342.545 44.0668 351.016 27.9709 360.099C26.1459 361.129 26.2251 362.67 28.1202 363.508L29.0647 363.925C30.9262 364.754 33.8358 364.595 35.6242 363.584Z" fill="#E0C9AD"/>
<path d="M155.035 353.035L155.696 352.904C157.168 352.612 158.112 351.473 157.664 350.416C155.708 345.789 152.107 341.262 146.711 336.638C145.276 335.41 143.701 334.204 141.785 333.354C140.249 332.672 138.199 333.299 137.727 334.606L137.526 335.161C137.215 336.023 137.754 336.86 138.744 337.336C139.92 337.902 141.011 338.758 142.041 339.639C146.879 343.784 150.093 347.787 151.818 351.817C152.235 352.795 153.67 353.306 155.035 353.035Z" fill="url(#paint24_linear_3316_579092)"/>
<path d="M137.529 369.789L138.236 369.564C139.619 369.122 140.368 367.663 139.96 366.268C137.452 357.644 136.158 348.756 136.097 339.776C136.088 338.323 134.954 337.138 133.501 337.11L132.761 337.095C131.258 337.065 129.994 338.28 130.003 339.782C130.064 349.347 131.444 358.817 134.119 368.004C134.54 369.445 136.097 370.249 137.529 369.789Z" fill="url(#paint25_linear_3316_579092)"/>
<path d="M123.215 379.36L123.946 379.232C125.378 378.982 126.32 377.642 126.11 376.204C124.403 364.541 124.784 352.441 127.225 340.912C127.526 339.489 126.67 338.094 125.256 337.753L124.534 337.579C123.075 337.229 121.579 338.14 121.268 339.611C118.669 351.866 118.264 364.726 120.083 377.124C120.302 378.614 121.734 379.616 123.215 379.36Z" fill="url(#paint26_linear_3316_579092)"/>
<path d="M97.6256 398.526L98.366 398.477C99.8224 398.38 100.907 397.137 100.837 395.678C99.9382 377.194 102.644 358.36 108.713 340.875C109.191 339.498 108.499 337.997 107.128 337.494L106.431 337.238C105.026 336.723 103.448 337.448 102.957 338.862C96.6294 357.084 93.8081 376.722 94.7465 395.991C94.8226 397.484 96.1328 398.626 97.6256 398.526Z" fill="url(#paint27_linear_3316_579092)"/>
<path d="M63.5263 458.821C70.607 417.369 81.9713 377.697 96.5651 343.495C97.537 341.219 97.4639 338.024 96.3823 336.282L95.8339 335.395C94.7249 333.607 92.9822 334.031 91.9828 336.367C76.8558 371.827 65.071 412.958 57.7284 455.93C57.2439 458.763 58.0422 461.638 59.4741 462.302L60.184 462.631C61.5794 463.28 63.0541 461.58 63.5263 458.821Z" fill="url(#paint28_linear_3316_579092)"/>
<path d="M44.344 422.423C58.9897 398.276 73.9858 373.246 87.6534 344.826C88.9392 342.152 89.2195 338.213 88.2903 336.13L87.8302 335.097C86.9253 333.068 85.2069 333.559 83.9547 336.163C70.6679 363.785 55.9064 388.419 41.48 412.206C40.0907 414.5 39.5302 418.353 40.2248 420.83L40.5752 422.079C41.2637 424.561 42.9516 424.717 44.344 422.423Z" fill="url(#paint29_linear_3316_579092)"/>
<path d="M44.4143 12.684C45.1425 19.1723 45.898 25.5661 46.6171 31.902C49.8131 60.1273 52.872 87.0183 55.7451 112.21C69.9247 236.991 79.327 321.097 79.6682 328.828C79.6987 329.376 79.7047 330.595 79.9759 332.136C80.3872 334.555 81.3896 337.793 83.8788 340.278C86.3649 342.734 89.3385 343.513 91.4713 343.973C109.545 347.967 130.262 343.026 137.709 337.546C140.201 335.728 141.782 333.473 141.782 333.473C141.782 333.473 143.028 331.725 143.976 329.05C144.375 327.99 144.704 326.781 144.905 325.49C145.694 320.503 135.926 220.584 127.069 132.634C125.774 119.831 124.522 107.302 123.307 95.3495C118.258 45.4755 114.145 5.73894 113.551 0.00614929C90.5084 4.24939 67.4629 8.46517 44.4143 12.684Z" fill="#7F8E35"/>
<path d="M44.4143 12.684C45.1425 19.1723 45.898 25.5661 46.6171 31.902C49.8131 60.1273 52.872 87.0183 55.7451 112.21C69.9247 236.991 79.327 321.097 79.6682 328.828C79.6987 329.376 79.7047 330.595 79.9759 332.136C80.3872 334.555 81.3896 337.793 83.8788 340.278C86.3649 342.734 89.3385 343.513 91.4713 343.973C109.545 347.967 130.262 343.026 137.709 337.546C140.201 335.728 141.782 333.473 141.782 333.473C141.782 333.473 143.028 331.725 143.976 329.05C144.375 327.99 144.704 326.781 144.905 325.49C145.694 320.503 135.926 220.584 127.069 132.634C125.774 119.831 124.522 107.302 123.307 95.3495C118.258 45.4755 114.145 5.73894 113.551 0.00614929C90.5084 4.24939 67.4629 8.46517 44.4143 12.684Z" fill="url(#paint30_linear_3316_579092)"/>
<path d="M86.2583 119.146C94.0367 133.862 101.818 150.076 109.206 167.768C114.27 179.894 118.7 191.634 122.582 202.883C122.027 192.697 121.134 177.79 119.733 159.677C119.035 150.673 118.377 144.572 118.139 140.365C116.04 103.117 113.56 65.8785 109.596 28.7768C108.618 19.6172 107.528 10.4666 106.358 1.33131C92.6778 3.83827 78.9948 6.34513 65.3149 8.85512C70.2903 36.7971 76.0304 64.599 81.3408 92.4801C83.0287 101.353 84.6984 110.242 86.2583 119.146Z" fill="url(#paint31_linear_3316_579092)"/>
<path d="M44.4143 12.6843C45.1425 19.1725 45.898 25.5663 46.6171 31.9023C49.8131 60.1276 52.872 87.0185 55.7451 112.21C69.9247 236.991 79.327 321.097 79.6682 328.828C79.6987 329.377 79.7047 330.595 79.9759 332.136C80.3872 334.555 81.3896 337.793 83.8788 340.279C86.3649 342.734 89.3385 343.514 91.4713 343.974C109.545 347.967 130.262 343.026 137.709 337.546C140.201 335.728 141.782 333.474 141.782 333.474C141.782 333.474 143.028 331.725 143.976 329.051C143.976 329.051 144.594 327.293 144.905 325.49C153.613 274.958 89.9539 142.135 89.9539 142.135C75.4545 111.869 57.82 68.7602 44.4143 12.6843Z" fill="#7F8E35"/>
<path d="M44.4143 12.6843C45.1425 19.1725 45.898 25.5663 46.6171 31.9023C49.8131 60.1275 52.872 87.0185 55.7451 112.21C69.9247 236.991 79.327 321.097 79.6682 328.828C79.6987 329.376 79.7047 330.595 79.9759 332.136C80.3872 334.555 81.3896 337.793 83.8788 340.278C85.3808 341.78 87.5257 343.148 91.4712 343.973C118.776 349.691 132.173 334.527 132.173 334.527C137.108 328.941 138.595 322.782 139.061 320.753C149.496 275.25 89.957 142.132 89.9539 142.132C77.0601 113.294 59.5536 69.6801 44.4143 12.6843Z" fill="url(#paint32_linear_3316_579092)"/>
<path d="M65.2326 125.954C68.8582 125.083 74.5435 155.428 99.3926 221.849C118.465 272.825 130.838 296.975 118.56 316.951C112.853 326.236 101.449 335.228 93.2625 332.629C79.9453 328.408 82.6599 295.912 78.9003 242.352C73.6325 167.302 60.9946 126.974 65.2326 125.954Z" fill="url(#paint33_linear_3316_579092)"/>
<path d="M205.937 474.938C186.49 454.727 163.828 447.739 150.514 445.326C150.337 445.296 150.173 445.335 150.002 445.339C150.118 444.528 150.069 443.858 150.032 443.517C149.782 441.236 149.091 435.768 148.174 428.591C147.945 426.797 147.702 424.896 147.446 422.913C145.791 410.016 143.674 393.594 142.004 380.006C141.62 376.871 141.258 373.886 140.932 371.129C140.715 369.292 140.511 367.556 140.328 365.948C139.963 362.728 139.673 360.005 139.485 357.97C139.149 354.36 138.842 349.694 138.805 344.116C138.793 342.027 138.833 339.77 138.909 337.433C140.021 337.997 141.063 338.798 142.041 339.635C146.879 343.781 150.093 347.784 151.818 351.814C152.235 352.792 153.67 353.303 155.035 353.032L155.696 352.901C157.171 352.609 158.112 351.47 157.664 350.413C155.708 345.786 152.107 341.259 146.711 336.635C145.292 335.42 143.729 334.232 141.843 333.382C141.995 333.162 143.095 331.536 143.978 329.044C143.978 329.044 144.097 328.694 144.243 328.206C144.515 327.356 144.755 326.455 144.908 325.483C146.8 314.511 145.273 299.655 141.733 283.127C138.26 244.84 132.498 186.507 127.072 132.628C125.777 119.825 124.525 107.296 123.309 95.3433C118.261 45.4693 114.148 5.73278 113.554 0C90.5082 4.24628 67.4626 8.46522 44.414 12.681C45.1422 19.1693 45.8978 25.563 46.6168 31.902C47.4151 38.9568 48.2073 45.9324 48.9872 52.8135C51.3302 73.4662 53.5908 93.3146 55.7449 112.207C57.9598 131.705 60.059 150.207 62.0242 167.582C62.8103 174.533 63.575 181.302 64.3184 187.881C68.404 224.069 71.8134 254.53 74.3757 277.811C74.8419 282.046 75.2775 286.039 75.6858 289.789C76.0941 293.539 76.4749 297.042 76.8222 300.292C77.3462 305.166 77.8002 309.464 78.1871 313.162C78.3151 314.395 78.437 315.559 78.5467 316.656C79.22 323.238 79.6009 327.375 79.6648 328.825C79.6801 329.099 79.6892 329.541 79.7288 330.107C79.7684 330.674 79.8385 331.362 79.9725 332.133C80.0761 332.736 80.2132 333.394 80.4052 334.076C80.4691 334.302 80.5728 334.539 80.6489 334.768C80.5362 334.807 80.4021 334.82 80.2925 334.865C61.6281 342.545 44.0607 351.016 27.9647 360.099C26.1397 361.129 26.2189 362.67 28.114 363.508L29.0584 363.925C30.917 364.748 33.8266 364.589 35.6181 363.581C49.7977 355.576 65.1989 348.094 81.4563 341.198C68.8245 366.782 55.0075 389.884 41.4678 412.206C40.0785 414.5 39.5179 418.353 40.2126 420.83L40.5629 422.078C41.2576 424.555 42.9455 424.713 44.3379 422.42C57.2804 401.079 70.4941 379.04 82.8243 354.595C82.8608 356.042 82.8944 357.48 82.9309 358.899C82.934 359.085 82.9401 359.265 82.9431 359.45C72.3435 388.644 63.8766 420.723 58.0848 453.98C50.0718 458.105 41.7634 463.579 33.7383 470.85C12.6609 489.949 3.73704 512.554 0.0961891 525.841C-0.302934 527.297 0.577504 528.778 2.04299 529.14L2.76506 529.317C4.16961 529.664 5.59246 528.848 5.97331 527.453C9.41917 514.872 17.8678 493.455 37.83 475.364C44.5389 469.287 51.4551 464.541 58.2036 460.822C58.5235 461.532 58.953 462.065 59.471 462.302L60.1809 462.631C61.5763 463.277 63.0509 461.578 63.5201 458.818C63.5658 458.547 63.6238 458.281 63.6695 458.013C70.6191 454.684 77.264 452.403 83.1838 450.846C70.5764 460.204 59.3095 471.121 49.7306 483.439C35.155 502.176 24.729 523.441 18.7208 546.686C18.3461 548.133 19.251 549.619 20.7043 549.973L21.4234 550.146C22.8432 550.49 24.2537 549.625 24.6193 548.212C30.4203 525.777 40.4807 505.256 54.5414 487.18C63.9985 475.023 75.1343 464.255 87.6442 455.092C87.6473 455.348 87.6473 455.604 87.6504 455.857C81.5721 460.712 75.9935 466.089 71.0699 471.974C46.5985 501.22 42.5586 536.082 42.5647 555.906C42.5647 557.411 43.7895 558.62 45.2946 558.593L46.035 558.578C47.4852 558.55 48.6582 557.378 48.6582 555.928C48.649 536.987 52.4787 503.684 75.7436 475.882C79.3784 471.538 83.4062 467.499 87.7204 463.734C87.8209 475.242 87.9215 486.751 88.022 498.259C84.1831 518.997 82.2271 540.249 82.2819 561.792C82.285 563.281 83.5159 564.487 85.0058 564.472L85.7491 564.463C87.2146 564.448 88.3785 563.254 88.3754 561.788C88.3389 547.569 89.2163 533.484 90.9103 519.588C92.717 520.008 94.5755 520.389 96.5072 520.709C96.5102 520.709 96.5103 520.709 96.5133 520.709C96.8698 520.77 97.2079 520.846 97.5705 520.901C102.625 521.68 107.527 521.976 112.256 521.939C113.849 536.521 115.872 551.072 118.313 565.496C118.56 566.961 119.961 567.948 121.427 567.692L122.158 567.564C123.605 567.314 124.568 565.949 124.324 564.499C121.926 550.326 119.94 536.027 118.365 521.698C122.493 521.403 126.444 520.855 130.195 520.139C130.32 520.115 130.442 520.093 130.567 520.069C131.481 519.892 132.386 519.703 133.275 519.508C133.793 522.512 134.342 525.518 134.826 528.519C136.127 536.576 137.321 544.749 138.391 552.851C138.583 554.31 139.911 555.331 141.374 555.145L142.111 555.05C143.582 554.862 144.627 553.518 144.432 552.047C143.357 543.889 142.15 535.662 140.843 527.55C140.331 524.382 139.753 521.205 139.204 518.034C139.616 517.918 140.021 517.799 140.426 517.684C140.429 517.684 140.432 517.684 140.435 517.681C141.233 517.449 142.016 517.212 142.784 516.971C142.939 516.922 143.092 516.873 143.244 516.825C143.299 516.806 143.354 516.791 143.409 516.773C144.545 516.408 145.654 516.039 146.724 515.661C146.727 515.661 146.73 515.658 146.733 515.658C147.175 515.503 147.604 515.347 148.034 515.189C148.11 515.162 148.18 515.134 148.256 515.107C149.694 514.577 151.08 514.044 152.378 513.514C150.968 499.517 149.572 485.499 148.186 471.459C156.266 480.46 163.468 489.949 169.708 499.843C177.075 511.518 182.757 523.188 186.142 533.594C187.483 537.712 188.604 541.922 189.546 546.171C191.559 545.875 193.573 545.583 195.59 545.281C194.588 540.694 193.384 536.152 191.937 531.708C188.397 520.83 182.492 508.689 174.863 496.593C167.051 484.207 157.783 472.437 147.205 461.449C147.022 459.582 146.839 457.715 146.657 455.845C156.915 459.064 166.326 464.261 174.202 471.167C177.24 473.832 183.138 479.574 188.51 488.094C199.691 505.828 201.821 524.83 201.44 538.458C201.4 539.92 202.509 541.16 203.972 541.236L204.712 541.276C206.202 541.355 207.488 540.207 207.53 538.714C207.948 524.199 205.675 503.894 193.668 484.841C187.885 475.669 181.508 469.464 178.221 466.582C171.631 460.804 164.05 456.143 155.833 452.71C168.477 455.915 186.084 463.076 201.547 479.147C219.641 497.951 225.436 519.256 227.276 531.72C227.487 533.149 228.794 534.13 230.229 533.959L230.966 533.871C232.468 533.694 233.525 532.326 233.306 530.831C231.344 517.586 225.177 494.932 205.937 474.938ZM83.4062 378.583C83.4672 381.172 83.525 383.7 83.5829 386.146C83.6134 387.526 83.6469 388.885 83.6774 390.219C83.7688 394.222 83.8541 398.008 83.9303 401.56C83.9821 403.927 84.0308 406.193 84.0765 408.347C84.1466 411.579 84.2075 414.567 84.2624 417.29C84.3904 423.644 84.4817 428.564 84.5304 431.823C84.5579 433.684 84.5701 435.006 84.5701 435.743C84.567 437.812 84.5488 439.6 84.5244 441.117C84.5031 442.353 84.4757 443.368 84.4482 444.251C78.6259 445.628 72.0176 447.669 65.0253 450.697C69.6746 425.624 75.8747 401.325 83.4062 378.583ZM147.327 449.667C147.366 449.637 147.397 449.6 147.433 449.57C147.452 449.625 147.482 449.673 147.504 449.728C147.446 449.707 147.388 449.685 147.327 449.667Z" fill="url(#paint34_linear_3316_579092)"/>
<path d="M220.241 535.284L220.985 535.163C222.423 534.928 223.383 533.594 223.172 532.153C222.493 527.453 222.048 522.686 221.847 517.949C221.615 512.424 221.71 506.84 222.133 501.311C222.243 499.855 221.192 498.582 219.742 498.445L219.001 498.375C217.512 498.232 216.174 499.334 216.058 500.827C215.616 506.602 215.516 512.439 215.76 518.211C215.97 523.158 216.436 528.135 217.146 533.046C217.362 534.52 218.767 535.525 220.241 535.284Z" fill="#E0C9AD"/>
<path d="M220.241 535.284L220.985 535.163C222.423 534.928 223.383 533.594 223.172 532.153C222.493 527.453 222.048 522.686 221.847 517.949C221.615 512.424 221.71 506.84 222.133 501.311C222.243 499.855 221.192 498.582 219.742 498.445L219.001 498.375C217.512 498.232 216.174 499.334 216.058 500.827C215.616 506.602 215.516 512.439 215.76 518.211C215.97 523.158 216.436 528.135 217.146 533.046C217.362 534.52 218.767 535.525 220.241 535.284Z" fill="url(#paint35_linear_3316_579092)"/>
<path d="M187.413 476.053C187.001 486.038 186.584 496.032 186.157 506.036C185.539 520.584 184.905 535.111 184.259 549.616C197.269 554.1 217.228 558.627 239.396 553.933C242.659 553.241 245.74 552.4 248.637 551.453C247.519 527.754 246.401 504.056 245.286 480.357C225.994 478.922 206.705 477.487 187.413 476.053Z" fill="#7F8E35"/>
<path d="M195.709 476.671C192.946 476.467 190.179 476.26 187.416 476.056C187.005 486.041 186.587 496.035 186.161 506.038C185.542 520.587 184.908 535.114 184.262 549.619C187.008 550.567 190.079 551.508 193.4 552.37C193.662 527.115 193.217 501.813 195.709 476.671Z" fill="url(#paint36_linear_3316_579092)"/>
<path d="M217.265 523.484C215.467 508.43 213.13 493.446 211.384 478.383C211.36 478.176 211.39 477.999 211.433 477.838C209.855 477.722 208.28 477.603 206.702 477.487C206.647 483.881 206.589 490.275 206.583 496.669C206.567 516.133 206.82 535.595 207.329 555.054C211.293 555.562 215.476 555.861 219.815 555.885C219.729 552.748 219.62 549.61 219.425 546.482C218.949 538.794 218.179 531.129 217.265 523.484Z" fill="url(#paint37_linear_3316_579092)"/>
<path d="M239.576 505.021C242.9 519.146 246.011 533.332 248.46 547.636C247.403 525.208 246.346 502.782 245.289 480.354C241.377 480.064 237.465 479.772 233.553 479.483C235.53 488.003 237.571 496.507 239.576 505.021Z" fill="url(#paint38_linear_3316_579092)"/>
<path d="M241.812 528.869C238.333 512.253 234.198 495.782 230.366 479.248C226.956 478.995 223.55 478.742 220.141 478.487C222.798 485.761 225.287 493.096 227.49 500.519C232.69 518.025 236.715 535.818 240.441 553.68C242.379 553.244 244.231 552.748 246.044 552.224C244.819 544.417 243.436 536.631 241.812 528.869Z" fill="url(#paint39_linear_3316_579092)"/>
<path d="M214.325 478.054C214.361 478.164 214.416 478.258 214.431 478.386C215.452 487.168 216.665 495.925 217.862 504.683C219.888 519.511 222.182 534.504 222.612 549.485C222.673 551.611 222.749 553.741 222.813 555.867C227.526 555.745 232.422 555.242 237.437 554.298C232.032 528.552 225.914 502.962 216.829 478.243C215.994 478.179 215.16 478.115 214.325 478.054Z" fill="url(#paint40_linear_3316_579092)"/>
<path d="M203.655 477.259L198.747 476.893C198.128 483.153 197.625 489.422 197.324 495.703C196.401 514.821 196.635 533.972 196.425 553.107C198.911 553.683 201.55 554.183 204.276 554.612C203.606 528.836 203.432 503.047 203.655 477.259Z" fill="url(#paint41_linear_3316_579092)"/>
<path d="M228.023 526.734C228.261 520.532 228.312 514.315 227.977 508.113C227.825 505.308 227.484 502.84 225.634 501.101C223.41 499.011 220.635 499.581 214.587 499.456C203.71 499.231 202.522 497.171 199.874 498.707C195.258 501.381 196.078 509.246 195.609 519.231C195.246 526.938 194.021 537.965 190.018 551.435C199.81 554.286 212.344 556.592 226.265 555.703C226.841 546.049 227.651 536.405 228.023 526.734Z" fill="url(#paint42_linear_3316_579092)"/>
<path d="M145.063 594.196L144.326 594.133C142.836 594.002 141.718 592.676 141.876 591.19C142.638 584.038 143.951 576.922 145.785 569.995C148.71 558.938 153.929 546.482 160.872 533.981C170.317 516.971 182.382 500.903 196.763 486.184C197.805 485.118 199.539 485.112 200.596 486.166L201.12 486.69C202.156 487.722 202.15 489.386 201.129 490.433C187.126 504.765 175.381 520.398 166.198 536.939C159.495 549.007 154.471 560.978 151.674 571.555C149.922 578.174 148.667 584.976 147.936 591.811C147.781 593.258 146.516 594.324 145.063 594.196Z" fill="#E0C9AD"/>
<path d="M133.565 580.257C132.081 580.419 130.734 579.344 130.61 577.857C129.385 563.388 130.518 542.988 141.444 523.295C146.705 513.816 152.726 507.263 155.846 504.202C165.431 494.802 177.45 487.832 190.746 483.939C192.184 483.519 193.692 484.405 194.067 485.855L194.256 486.583C194.622 487.988 193.787 489.395 192.394 489.803C180.083 493.422 168.968 499.868 160.114 508.549C157.229 511.379 151.662 517.44 146.775 526.25C136.602 544.581 135.536 563.671 136.679 577.257C136.8 578.716 135.762 580.014 134.308 580.172L133.565 580.257Z" fill="#E0C9AD"/>
<path d="M107.677 574.378L106.936 574.333C105.428 574.238 104.295 572.934 104.432 571.43C105.651 558.082 110.541 535.12 128.635 514.083C146.922 492.818 169.16 484.576 182.319 481.423C183.79 481.07 185.244 482.005 185.554 483.485L185.707 484.213C186.002 485.627 185.14 487.013 183.738 487.351C171.369 490.312 150.456 498.061 133.257 518.056C116.241 537.84 111.644 559.434 110.501 571.981C110.37 573.416 109.118 574.466 107.677 574.378Z" fill="#E0C9AD"/>
<path d="M218.188 601.982L217.451 601.897C215.991 601.726 214.952 600.419 215.117 598.96C218.356 570.092 219.912 540.813 219.736 511.887C219.696 505.204 219.559 498.43 219.337 491.707C219.288 490.236 220.43 489.008 221.902 488.953L222.645 488.926C224.126 488.871 225.378 490.028 225.427 491.509C225.652 498.283 225.79 505.116 225.829 511.851C226.006 541.008 224.44 570.519 221.174 599.615C221.009 601.093 219.666 602.153 218.188 601.982Z" fill="#E0C9AD"/>
<path d="M253.63 596.761C252.168 596.828 250.937 595.701 250.858 594.239C249.194 563.034 243.366 532.659 233.522 503.909C232.184 500.004 230.759 496.084 229.269 492.228C228.739 490.857 229.406 489.325 230.774 488.782L231.465 488.508C232.846 487.963 234.418 488.639 234.951 490.025C236.468 493.958 237.925 497.954 239.286 501.936C249.31 531.212 255.245 562.136 256.939 593.898C257.018 595.384 255.858 596.661 254.368 596.728L253.63 596.761Z" fill="#E0C9AD"/>
<path d="M292.952 588.664C291.502 588.716 290.268 587.614 290.185 586.167C289.137 567.256 283.455 534.218 258.67 507.757C252.75 501.439 246.029 495.797 238.656 490.96C237.44 490.162 237.062 488.56 237.833 487.326L238.226 486.696C239.021 485.422 240.725 485.03 241.977 485.852C249.761 490.957 256.86 496.915 263.115 503.593C289.183 531.428 295.161 566.011 296.261 585.804C296.343 587.306 295.191 588.582 293.686 588.637L292.952 588.664Z" fill="#E0C9AD"/>
<path d="M317.055 578.874C315.656 579.298 314.2 578.512 313.755 577.12C306.711 555.045 295.52 535.114 280.472 517.855C270.168 506.033 258.219 495.722 244.929 487.18C243.701 486.391 243.321 484.78 244.091 483.537L244.484 482.907C245.273 481.636 246.961 481.243 248.22 482.051C261.994 490.906 274.382 501.594 285.067 513.852C300.666 531.745 312.262 552.398 319.559 575.271C320.013 576.696 319.193 578.229 317.761 578.661L317.055 578.874Z" fill="#E0C9AD"/>
<path d="M334.519 557.034C333.135 557.457 331.67 556.723 331.213 555.352C327.069 542.982 317.439 522.07 296.498 505.125C278.066 490.211 258.703 484.442 244.905 482.279C243.458 482.053 242.446 480.735 242.635 479.285L242.733 478.547C242.928 477.07 244.289 476.016 245.764 476.248C260.34 478.52 280.826 484.606 300.331 500.388C322.441 518.281 332.614 540.353 336.989 553.415C337.468 554.847 336.673 556.373 335.228 556.817L334.519 557.034Z" fill="#E0C9AD"/>
<path d="M197.574 590.568L196.833 590.514C195.353 590.407 194.234 589.125 194.347 587.644C194.966 579.441 195.709 571.156 196.562 562.983C199.06 539.04 202.619 514.9 207.14 491.183C207.418 489.724 208.838 488.77 210.294 489.054L211.025 489.194C212.469 489.474 213.408 490.86 213.13 492.304C208.636 515.859 205.102 539.835 202.622 563.616C201.775 571.734 201.035 579.962 200.422 588.11C200.313 589.581 199.042 590.675 197.574 590.568Z" fill="#E0C9AD"/>
<path d="M117.719 575.131L116.969 575.051C115.522 574.896 114.489 573.617 114.617 572.167C115.031 567.436 115.211 562.651 115.147 557.911C115.071 552.382 114.663 546.811 113.935 541.316C113.743 539.869 114.721 538.538 116.165 538.318L116.899 538.205C118.377 537.98 119.778 539.007 119.973 540.49C120.738 546.232 121.162 552.053 121.244 557.829C121.311 562.782 121.122 567.777 120.686 572.718C120.552 574.205 119.206 575.289 117.719 575.131Z" fill="#E0C9AD"/>
<path d="M145.063 594.196L144.326 594.133C142.836 594.002 141.718 592.676 141.876 591.19C142.638 584.038 143.951 576.922 145.785 569.995C148.71 558.938 153.929 546.482 160.872 533.981C170.317 516.971 182.382 500.903 196.763 486.184C197.805 485.118 199.539 485.112 200.596 486.166L201.12 486.69C202.156 487.722 202.15 489.386 201.129 490.433C187.126 504.765 175.381 520.398 166.198 536.939C159.495 549.007 154.471 560.978 151.674 571.555C149.922 578.174 148.667 584.976 147.936 591.811C147.781 593.258 146.516 594.324 145.063 594.196Z" fill="url(#paint43_linear_3316_579092)"/>
<path d="M133.565 580.257C132.081 580.419 130.734 579.344 130.61 577.857C129.385 563.388 130.518 542.988 141.444 523.295C146.705 513.816 152.726 507.263 155.846 504.202C165.431 494.802 177.45 487.832 190.746 483.939C192.184 483.519 193.692 484.405 194.067 485.855L194.256 486.583C194.622 487.988 193.787 489.395 192.394 489.803C180.083 493.422 168.968 499.868 160.114 508.549C157.229 511.379 151.662 517.44 146.775 526.25C136.602 544.581 135.536 563.671 136.679 577.257C136.8 578.716 135.762 580.014 134.308 580.172L133.565 580.257Z" fill="url(#paint44_linear_3316_579092)"/>
<path d="M107.677 574.378L106.936 574.333C105.428 574.238 104.295 572.934 104.432 571.43C105.651 558.082 110.541 535.12 128.635 514.083C146.922 492.818 169.16 484.576 182.319 481.423C183.79 481.07 185.244 482.005 185.554 483.485L185.707 484.213C186.002 485.627 185.14 487.013 183.738 487.351C171.369 490.312 150.456 498.061 133.257 518.056C116.241 537.84 111.644 559.434 110.501 571.981C110.37 573.416 109.118 574.466 107.677 574.378Z" fill="url(#paint45_linear_3316_579092)"/>
<path d="M218.188 601.982L217.451 601.897C215.991 601.726 214.952 600.419 215.117 598.96C218.356 570.092 219.912 540.813 219.736 511.887C219.696 505.204 219.559 498.43 219.337 491.707C219.288 490.236 220.43 489.008 221.902 488.953L222.645 488.926C224.126 488.871 225.378 490.028 225.427 491.509C225.652 498.283 225.79 505.116 225.829 511.851C226.006 541.008 224.44 570.519 221.174 599.615C221.009 601.093 219.666 602.153 218.188 601.982Z" fill="url(#paint46_linear_3316_579092)"/>
<path d="M253.63 596.761C252.168 596.828 250.937 595.701 250.858 594.239C249.194 563.034 243.366 532.659 233.522 503.909C232.184 500.004 230.759 496.084 229.269 492.228C228.739 490.857 229.406 489.325 230.774 488.782L231.465 488.508C232.846 487.963 234.418 488.639 234.951 490.025C236.468 493.958 237.925 497.954 239.286 501.936C249.31 531.212 255.245 562.136 256.939 593.898C257.018 595.384 255.858 596.661 254.368 596.728L253.63 596.761Z" fill="url(#paint47_linear_3316_579092)"/>
<path d="M292.952 588.664C291.502 588.716 290.268 587.614 290.185 586.167C289.137 567.256 283.455 534.218 258.67 507.757C252.75 501.439 246.029 495.797 238.656 490.96C237.44 490.162 237.062 488.56 237.833 487.326L238.226 486.696C239.021 485.422 240.725 485.03 241.977 485.852C249.761 490.957 256.86 496.915 263.115 503.593C289.183 531.428 295.161 566.011 296.261 585.804C296.343 587.306 295.191 588.582 293.686 588.637L292.952 588.664Z" fill="url(#paint48_linear_3316_579092)"/>
<path d="M317.055 578.874C315.656 579.298 314.2 578.512 313.755 577.12C306.711 555.045 295.52 535.114 280.472 517.855C270.168 506.033 258.219 495.722 244.929 487.18C243.701 486.391 243.321 484.78 244.091 483.537L244.484 482.907C245.273 481.636 246.961 481.243 248.22 482.051C261.994 490.906 274.382 501.594 285.067 513.852C300.666 531.745 312.262 552.398 319.559 575.271C320.013 576.696 319.193 578.229 317.761 578.661L317.055 578.874Z" fill="url(#paint49_linear_3316_579092)"/>
<path d="M334.519 557.034C333.135 557.457 331.67 556.723 331.213 555.352C327.069 542.982 317.439 522.07 296.498 505.125C278.066 490.211 258.703 484.442 244.905 482.279C243.458 482.053 242.446 480.735 242.635 479.285L242.733 478.547C242.928 477.07 244.289 476.016 245.764 476.248C260.34 478.52 280.826 484.606 300.331 500.388C322.441 518.281 332.614 540.353 336.989 553.415C337.468 554.847 336.673 556.373 335.228 556.817L334.519 557.034Z" fill="url(#paint50_linear_3316_579092)"/>
<path d="M197.574 590.568L196.833 590.514C195.353 590.407 194.234 589.125 194.347 587.644C194.966 579.441 195.709 571.156 196.562 562.983C199.06 539.04 202.619 514.9 207.14 491.183C207.418 489.724 208.838 488.77 210.294 489.054L211.025 489.194C212.469 489.474 213.408 490.86 213.13 492.304C208.636 515.859 205.102 539.835 202.622 563.616C201.775 571.734 201.035 579.962 200.422 588.11C200.313 589.581 199.042 590.675 197.574 590.568Z" fill="url(#paint51_linear_3316_579092)"/>
<path d="M117.719 575.131L116.969 575.051C115.522 574.896 114.489 573.617 114.617 572.167C115.031 567.436 115.211 562.651 115.147 557.911C115.071 552.382 114.663 546.811 113.935 541.316C113.743 539.869 114.721 538.538 116.165 538.318L116.899 538.205C118.377 537.98 119.778 539.007 119.973 540.49C120.738 546.232 121.162 552.053 121.244 557.829C121.311 562.782 121.122 567.777 120.686 572.718C120.552 574.205 119.206 575.289 117.719 575.131Z" fill="url(#paint52_linear_3316_579092)"/>
<path d="M186.319 360.492C188.65 374.873 188.717 386.339 188.452 393.585C187.857 409.928 183.19 470.426 182.696 479.589C182.669 480.119 182.614 481.414 183.281 482.827C185.615 487.759 194.268 488.84 200.072 489.364C205.044 489.815 246.809 493.385 248.981 483.893C249.103 483.366 248.975 483.342 248.573 480.198C248.573 480.198 248.089 476.427 247.619 468.169C247.287 462.29 245.779 419.023 243.994 359.929C224.769 360.118 205.544 360.303 186.319 360.492Z" fill="#7F8E35"/>
<path d="M184.491 484.545C187.879 463.676 190.1 442.618 190.92 421.494C191.712 401.143 191.252 380.743 189.384 360.465C188.36 360.474 187.34 360.486 186.316 360.495C188.647 374.876 188.714 386.342 188.449 393.588C187.855 409.931 183.187 470.43 182.693 479.592C182.666 480.122 182.611 481.417 183.278 482.83C183.586 483.464 184 484.031 184.491 484.545Z" fill="url(#paint53_linear_3316_579092)"/>
<path d="M203.317 424.884C201.955 403.385 199.914 381.903 199.408 360.364C197.083 360.386 194.759 360.41 192.434 360.431C193.369 370.563 193.957 380.725 194.201 390.896C194.783 414.896 193.537 438.936 190.685 462.769C189.737 470.698 188.546 478.596 187.248 486.473C190.944 488.362 196.142 489.005 200.072 489.361C200.764 489.425 202.187 489.547 204.097 489.687C204.703 468.087 204.682 446.454 203.317 424.884Z" fill="url(#paint54_linear_3316_579092)"/>
<path d="M207.113 489.894C209.322 490.031 211.912 490.162 214.675 490.257C214.846 466.981 214.121 443.7 212.515 420.479C211.123 400.36 209.063 380.289 206.403 360.297C205.087 360.31 203.771 360.322 202.451 360.337C202.683 370.426 203.225 380.508 203.92 390.576C204.828 403.756 205.928 416.925 206.68 430.114C207.436 443.383 207.564 456.622 207.445 469.909C207.384 476.57 207.281 483.232 207.113 489.894Z" fill="url(#paint55_linear_3316_579092)"/>
<path d="M209.438 360.267C210.623 369.183 211.729 378.111 212.661 387.054C215.266 412.008 216.905 437.065 217.515 462.147C217.743 471.541 217.777 480.941 217.707 490.339C218.206 490.348 218.718 490.354 219.224 490.363C220.342 446.953 217.774 403.561 215.732 360.206C213.636 360.224 211.537 360.246 209.438 360.267Z" fill="url(#paint56_linear_3316_579092)"/>
<path d="M240.426 488.947C240.932 468.812 240.527 448.705 238.235 428.615C235.633 405.803 231.584 383.03 230.908 360.057L224.574 360.118C226.024 369.795 227.371 379.485 228.489 389.205C231.444 414.923 233.208 440.782 233.668 466.664C233.805 474.417 233.787 482.169 233.687 489.922C236.124 489.705 238.388 489.376 240.426 488.947Z" fill="url(#paint57_linear_3316_579092)"/>
<path d="M248.576 480.198C248.576 480.198 248.092 476.427 247.622 468.169C247.29 462.29 245.782 419.023 243.997 359.929L233.927 360.026C234.257 371.142 235.375 382.232 236.74 393.268C238.406 406.72 240.432 420.129 241.825 433.614C243.226 447.197 243.832 460.856 243.79 474.508C243.774 479.05 243.68 483.589 243.552 488.124C246.52 487.144 248.549 485.782 248.984 483.89C249.106 483.366 248.978 483.342 248.576 480.198Z" fill="url(#paint58_linear_3316_579092)"/>
<path d="M230.619 490.15C230.905 468.017 230.278 445.872 228.681 423.794C227.139 402.492 224.702 381.267 221.53 360.151L218.782 360.179C219.321 371.675 219.891 383.171 220.434 394.664C221.942 426.538 223.066 458.492 222.249 490.388C225.058 490.381 227.892 490.311 230.619 490.15Z" fill="url(#paint59_linear_3316_579092)"/>
<path d="M193.125 479.266C195.426 481.6 198.548 482.696 201.717 483.232C203.716 483.57 205.736 483.638 207.759 483.674C210.327 483.723 212.911 483.973 215.479 483.735C218.002 483.504 220.662 482.669 222.197 480.527C222.203 480.518 222.209 480.506 222.216 480.497C222.258 473.345 222.307 466.189 222.316 459.037C222.337 446.53 222.088 433.995 222.496 421.494C222.843 410.844 223.644 400.168 224.175 389.488C224.318 386.579 222.124 384.042 219.221 383.798C213.669 383.329 208.103 383.027 202.531 382.878C199.606 382.802 197.159 385.099 196.992 388.017C195.014 422.182 193.296 447.489 192.549 457.362C192.297 460.712 191.797 466.893 190.31 474.862C190.98 476.485 191.873 477.996 193.125 479.266Z" fill="url(#paint60_linear_3316_579092)"/>
<path d="M185.573 364.266C185.682 364.672 185.801 365.753 183.55 367.8C176.158 374.529 164.157 375.701 163.728 374.239C163.587 373.767 164.922 373.627 169.989 370.154C169.989 370.154 178.69 364.193 181.895 362.747C181.91 362.743 181.92 362.737 185.573 364.266Z" fill="#E0C9AD"/>
<path d="M172.651 396.936L171.984 396.808C170.497 396.522 169.492 395.05 169.879 393.585C171.573 387.167 174.918 380.761 180.046 374.084C181.411 372.311 182.916 370.56 184.78 369.259C186.273 368.22 188.357 368.912 188.903 370.648L189.134 371.385C189.494 372.531 189 373.706 188.04 374.425C186.898 375.281 185.856 376.524 184.878 377.794C180.28 383.777 177.291 389.446 175.795 395.038C175.433 396.397 174.028 397.201 172.651 396.936Z" fill="#E0C9AD"/>
<path d="M191.066 405.276L190.347 405.091C188.939 404.725 188.114 403.312 188.44 401.895C190.46 393.144 191.258 384.197 190.819 375.229C190.749 373.779 191.812 372.534 193.263 372.421L194.003 372.366C195.502 372.253 196.83 373.393 196.906 374.894C197.379 384.447 196.529 393.978 194.375 403.302C194.03 404.765 192.519 405.654 191.066 405.276Z" fill="#E0C9AD"/>
<path d="M205.888 414.031L205.151 413.946C203.707 413.778 202.692 412.493 202.823 411.043C203.874 399.303 202.817 387.243 199.74 375.866C199.359 374.462 200.136 373.021 201.528 372.604L202.238 372.39C203.676 371.958 205.218 372.787 205.611 374.236C208.889 386.327 210.014 399.145 208.889 411.625C208.755 413.123 207.381 414.208 205.888 414.031Z" fill="#E0C9AD"/>
<path d="M232.51 431.741L231.767 431.731C230.308 431.716 229.156 430.534 229.144 429.075C229.01 410.57 225.256 391.916 218.221 374.8C217.667 373.45 218.273 371.915 219.614 371.336L220.296 371.041C221.67 370.447 223.285 371.083 223.855 372.466C231.191 390.307 235.103 409.757 235.243 429.048C235.249 430.547 234.006 431.756 232.51 431.741Z" fill="#E0C9AD"/>
<path d="M257.984 435.375C253.283 413.979 244.201 393.366 231.584 375.458C230.743 374.267 230.999 372.634 232.178 371.775L232.779 371.34C233.988 370.459 235.707 370.724 236.566 371.949C249.645 390.518 259.06 411.887 263.938 434.068C264.258 435.53 263.298 436.977 261.829 437.273L261.101 437.419C259.672 437.711 258.298 436.798 257.984 435.375Z" fill="#E0C9AD"/>
<path d="M270.82 409.544C260.163 398.212 249.295 386.481 240.274 373.389C239.424 372.159 239.768 370.453 241.017 369.624L241.636 369.213C242.851 368.406 244.466 368.735 245.295 369.935C254.063 382.659 264.76 394.206 275.262 405.367C276.274 406.443 276.219 408.13 275.144 409.145L274.601 409.656C273.526 410.668 271.835 410.622 270.82 409.544Z" fill="#E0C9AD"/>
<path d="M272.871 390.496C263.676 381.577 253.686 373.417 243.11 366.185C241.904 365.36 241.578 363.733 242.388 362.515L242.8 361.896C243.628 360.657 245.319 360.315 246.553 361.156C257.412 368.58 267.673 376.963 277.115 386.119C278.187 387.158 278.19 388.885 277.139 389.942L276.615 390.469C275.582 391.511 273.922 391.514 272.871 390.496Z" fill="#E0C9AD"/>
<path d="M172.651 396.936L171.984 396.808C170.497 396.522 169.492 395.05 169.879 393.585C171.573 387.167 174.918 380.761 180.046 374.084C181.411 372.311 182.916 370.56 184.78 369.259C186.273 368.22 188.357 368.912 188.903 370.648L189.134 371.385C189.494 372.531 189 373.706 188.04 374.425C186.898 375.281 185.856 376.524 184.878 377.794C180.28 383.777 177.291 389.446 175.795 395.038C175.433 396.397 174.028 397.201 172.651 396.936Z" fill="url(#paint61_linear_3316_579092)"/>
<path d="M191.066 405.276L190.347 405.091C188.939 404.725 188.114 403.312 188.44 401.895C190.46 393.144 191.258 384.197 190.819 375.229C190.749 373.779 191.812 372.534 193.263 372.421L194.003 372.366C195.502 372.253 196.83 373.393 196.906 374.894C197.379 384.447 196.529 393.978 194.375 403.302C194.03 404.765 192.519 405.654 191.066 405.276Z" fill="url(#paint62_linear_3316_579092)"/>
<path d="M205.888 414.031L205.151 413.946C203.707 413.778 202.692 412.493 202.823 411.043C203.874 399.303 202.817 387.243 199.74 375.866C199.359 374.462 200.136 373.021 201.528 372.604L202.238 372.39C203.676 371.958 205.218 372.787 205.611 374.236C208.889 386.327 210.014 399.145 208.889 411.625C208.755 413.123 207.381 414.208 205.888 414.031Z" fill="url(#paint63_linear_3316_579092)"/>
<path d="M232.51 431.741L231.767 431.731C230.308 431.716 229.156 430.534 229.144 429.075C229.01 410.57 225.256 391.916 218.221 374.8C217.667 373.45 218.273 371.915 219.614 371.336L220.296 371.041C221.67 370.447 223.285 371.083 223.855 372.466C231.191 390.307 235.103 409.757 235.243 429.048C235.249 430.547 234.006 431.756 232.51 431.741Z" fill="url(#paint64_linear_3316_579092)"/>
<path d="M257.984 435.375C253.283 413.979 244.201 393.366 231.584 375.458C230.743 374.267 230.999 372.634 232.178 371.775L232.779 371.34C233.988 370.459 235.707 370.724 236.566 371.949C249.645 390.518 259.06 411.887 263.938 434.068C264.258 435.53 263.298 436.977 261.829 437.273L261.101 437.419C259.672 437.711 258.298 436.798 257.984 435.375Z" fill="url(#paint65_linear_3316_579092)"/>
<path d="M270.82 409.544C260.163 398.212 249.295 386.481 240.274 373.389C239.424 372.159 239.768 370.453 241.017 369.624L241.636 369.213C242.851 368.406 244.466 368.735 245.295 369.935C254.063 382.659 264.76 394.206 275.262 405.367C276.274 406.443 276.219 408.13 275.144 409.145L274.601 409.656C273.526 410.668 271.835 410.622 270.82 409.544Z" fill="url(#paint66_linear_3316_579092)"/>
<path d="M264.093 43.532C263.728 50.0507 263.332 56.4779 262.966 62.8442C261.351 91.2036 259.797 118.223 258.335 143.536C251.145 268.914 246.453 353.413 246.544 361.15C246.544 361.698 246.605 362.917 246.422 364.47C246.148 366.907 245.325 370.197 242.979 372.817C240.633 375.406 237.708 376.35 235.606 376.929C217.783 381.925 196.821 378.147 189.083 373.091C186.493 371.416 184.787 369.253 184.787 369.253C184.787 369.253 183.446 367.577 182.349 364.958C181.892 363.922 181.496 362.734 181.222 361.455C180.156 356.52 184.33 256.211 188.26 167.905C188.839 155.05 189.387 142.47 189.936 130.468C192.19 80.3899 194.079 40.4858 194.353 34.7287C217.6 37.6834 240.847 40.6077 264.093 43.532Z" fill="#7F8E35"/>
<path d="M264.093 43.532C263.728 50.0507 263.332 56.4779 262.966 62.8442C261.351 91.2036 259.797 118.223 258.335 143.536C251.145 268.914 246.453 353.413 246.544 361.15C246.544 361.698 246.605 362.917 246.422 364.47C246.148 366.907 245.325 370.197 242.979 372.817C240.633 375.406 237.708 376.35 235.606 376.929C217.783 381.925 196.821 378.147 189.083 373.091C186.493 371.416 184.787 369.253 184.787 369.253C184.787 369.253 183.446 367.577 182.349 364.958C181.892 363.922 181.496 362.734 181.222 361.455C180.156 356.52 184.33 256.211 188.26 167.905C188.839 155.05 189.387 142.47 189.936 130.468C192.19 80.3899 194.079 40.4858 194.353 34.7287C217.6 37.6834 240.847 40.6077 264.093 43.532Z" fill="url(#paint67_linear_3316_579092)"/>
<path d="M196.224 211.857C198.655 222.741 200.952 233.662 204.164 244.347C207.287 254.744 211.287 265.064 217.448 274.053C220.439 257.339 221.81 240.384 222.84 223.448C223.815 207.404 224.467 191.336 225.85 175.316C227.292 158.587 229.467 141.907 231.682 125.263C235.429 97.1288 239.606 69.0496 243.016 40.873C229.217 39.1337 215.415 37.3914 201.617 35.652C200.955 44.8391 200.38 54.0354 199.913 63.2377C198.028 100.504 197.631 137.822 197.616 175.128C197.61 187.388 196.845 199.621 196.224 211.857Z" fill="url(#paint68_linear_3316_579092)"/>
<path d="M347.239 56.6608C316.192 79.2934 285.299 107.744 258.335 143.536C253.186 150.359 248.189 157.487 243.345 164.859C240.542 169.123 237.891 173.388 235.332 177.622C240.725 269.462 244.807 339.462 246.422 364.471C246.148 366.907 245.325 370.197 242.979 372.817C240.633 375.406 237.708 376.35 235.606 376.929C217.783 381.925 196.821 378.148 189.082 373.091C186.493 371.416 184.786 369.253 184.786 369.253C184.786 369.253 183.446 367.577 182.349 364.958C185.061 340.954 191.794 271.747 200.538 180.12C194.597 176.038 190.758 171.865 188.26 167.905C186.615 165.316 185.548 162.818 184.878 160.503C182.319 151.638 184.177 141.434 189.935 130.468C201.056 109.328 226.679 85.3855 262.966 62.8443C272.045 57.209 281.825 51.665 292.184 46.2429C297.76 44.9026 306.23 43.5624 316.436 44.8113C331.274 46.6085 341.907 52.9445 347.239 56.6608Z" fill="#7F8E35"/>
<path d="M347.239 56.6608C316.192 79.2934 285.299 107.744 258.335 143.536C253.186 150.359 248.189 157.487 243.345 164.859C240.542 169.123 237.891 173.388 235.332 177.622C240.725 269.462 244.807 339.462 246.422 364.471C246.148 366.907 245.325 370.197 242.979 372.817C240.633 375.406 237.708 376.35 235.606 376.929C217.783 381.925 196.821 378.148 189.082 373.091C186.493 371.416 184.786 369.253 184.786 369.253C184.786 369.253 183.446 367.577 182.349 364.958C185.061 340.954 191.794 271.747 200.538 180.12C194.597 176.038 190.758 171.865 188.26 167.905C186.615 165.316 185.548 162.818 184.878 160.503C182.319 151.638 184.177 141.434 189.935 130.468C201.056 109.328 226.679 85.3855 262.966 62.8443C272.045 57.209 281.825 51.665 292.184 46.2429C297.76 44.9026 306.23 43.5624 316.436 44.8113C331.274 46.6085 341.907 52.9445 347.239 56.6608Z" fill="url(#paint69_linear_3316_579092)"/>
<path d="M316.436 44.8114C312.899 44.3788 309.59 44.2722 306.519 44.3514C301.078 46.176 296.081 48.9907 291.666 52.8045C286.374 57.3797 281.987 62.8748 277.557 68.2604C273.218 73.5332 268.828 78.8182 263.557 83.1955C258.164 87.6702 252.18 91.3346 246.102 94.7889C234.016 101.658 221.615 108.798 211.589 119.188C205.081 125.929 194.1 137.304 193.305 154.051C192.741 165.946 197.564 175.334 200.538 180.12C196.55 219.006 192.763 258.268 189.183 297.898C187.172 320.171 185.243 342.34 183.403 364.403C183.473 365.089 183.668 366.143 184.274 367.276C184.652 367.986 185.088 368.528 185.454 368.918C185.682 369.156 185.944 369.42 186.237 369.707C187.364 370.8 188.896 371.994 189.247 372.253C195.645 376.957 207.978 377.279 207.978 377.279C218.532 377.554 227.614 374.76 232.779 371.346C234.241 370.38 237.081 368.452 238.875 364.912C238.875 364.912 239.835 363.02 240.234 360.818C241.523 353.757 236.2 202.225 235.329 177.628C236.496 171.143 238.528 162.017 242.233 151.495C253.792 118.671 272.42 97.5975 282.916 86.662C296.986 72.001 312.948 58.8753 330.21 48.025C326.14 46.6116 321.558 45.4297 316.436 44.8114Z" fill="url(#paint70_linear_3316_579092)"/>
<path d="M292.187 46.2737C292.203 46.5417 304.216 42.7951 314.968 48.0009C327.919 54.2728 332.352 69.0892 335.085 78.8154C346.358 118.924 353.99 162.395 357.132 181.314C361.949 174.515 368.502 164.122 374.041 150.499C391.389 107.814 388.714 57.8458 373.398 51.8511C370.601 50.7575 365.239 50.2886 358.838 49.7281C352.205 49.1493 346.712 49.1676 343.004 49.2833C339.15 48.202 333.867 46.9255 327.508 46.0117C307.698 43.1666 292.172 45.9691 292.187 46.2737Z" fill="#7F8E35"/>
<path d="M359.752 158.471C362.393 137.904 362.582 117.157 359.998 96.574C358.746 86.595 356.297 76.9328 352.622 67.569C350.173 61.3245 347.278 55.2688 344.299 49.2619C343.875 49.271 343.391 49.2741 343.004 49.2863C339.15 48.2049 333.867 46.9286 327.508 46.0148C307.695 43.1697 292.169 45.972 292.184 46.2736C292.199 46.5417 304.213 42.795 314.965 48.0008C327.916 54.2727 332.349 69.0891 335.082 78.8153C345.764 116.819 353.171 157.807 356.589 178.1C357.82 171.585 358.908 165.044 359.752 158.471Z" fill="url(#paint71_linear_3316_579092)"/>
<path d="M223.319 244.637C221.917 216.96 220.778 194.504 215.769 193.961C205.16 192.813 200.435 292.509 188.446 340.781C187.346 345.204 184.028 357.891 190.606 366.475C193.199 369.859 198.771 374.486 203.713 373.706C221.96 370.825 225.875 295.074 223.319 244.637Z" fill="url(#paint72_linear_3316_579092)"/>
<defs>
<linearGradient id="paint0_linear_3316_579092" x1="243.252" y1="619.69" x2="88.2591" y2="398.196" gradientUnits="userSpaceOnUse">
<stop stop-color="white"/>
<stop offset="1" stop-color="white" stop-opacity="0"/>
</linearGradient>
<linearGradient id="paint1_linear_3316_579092" x1="226.27" y1="631.575" x2="71.2767" y2="410.079" gradientUnits="userSpaceOnUse">
<stop stop-color="white"/>
<stop offset="1" stop-color="white" stop-opacity="0"/>
</linearGradient>
<linearGradient id="paint2_linear_3316_579092" x1="208.3" y1="644.149" x2="53.3058" y2="422.655" gradientUnits="userSpaceOnUse">
<stop stop-color="white"/>
<stop offset="1" stop-color="white" stop-opacity="0"/>
</linearGradient>
<linearGradient id="paint3_linear_3316_579092" x1="213.035" y1="640.835" x2="58.0413" y2="419.34" gradientUnits="userSpaceOnUse">
<stop stop-color="white"/>
<stop offset="1" stop-color="white" stop-opacity="0"/>
</linearGradient>
<linearGradient id="paint4_linear_3316_579092" x1="217.703" y1="637.57" x2="62.7084" y2="416.075" gradientUnits="userSpaceOnUse">
<stop stop-color="white"/>
<stop offset="1" stop-color="white" stop-opacity="0"/>
</linearGradient>
<linearGradient id="paint5_linear_3316_579092" x1="234.856" y1="625.567" x2="79.8632" y2="404.071" gradientUnits="userSpaceOnUse">
<stop stop-color="white"/>
<stop offset="1" stop-color="white" stop-opacity="0"/>
</linearGradient>
<linearGradient id="paint6_linear_3316_579092" x1="213.729" y1="443.407" x2="102.612" y2="505.108" gradientUnits="userSpaceOnUse">
<stop stop-color="white"/>
<stop offset="1" stop-color="white" stop-opacity="0"/>
</linearGradient>
<linearGradient id="paint7_linear_3316_579092" x1="159.012" y1="398.849" x2="163.702" y2="503.481" gradientUnits="userSpaceOnUse">
<stop stop-color="white"/>
<stop offset="1" stop-color="white" stop-opacity="0"/>
</linearGradient>
<linearGradient id="paint8_linear_3316_579092" x1="169.029" y1="398.4" x2="173.719" y2="503.032" gradientUnits="userSpaceOnUse">
<stop stop-color="white"/>
<stop offset="1" stop-color="white" stop-opacity="0"/>
</linearGradient>
<linearGradient id="paint9_linear_3316_579092" x1="186.196" y1="397.631" x2="190.886" y2="502.263" gradientUnits="userSpaceOnUse">
<stop stop-color="white"/>
<stop offset="1" stop-color="white" stop-opacity="0"/>
</linearGradient>
<linearGradient id="paint10_linear_3316_579092" x1="111.202" y1="400.992" x2="115.891" y2="505.624" gradientUnits="userSpaceOnUse">
<stop stop-color="white"/>
<stop offset="1" stop-color="white" stop-opacity="0"/>
</linearGradient>
<linearGradient id="paint11_linear_3316_579092" x1="88.5375" y1="402.007" x2="93.2275" y2="506.64" gradientUnits="userSpaceOnUse">
<stop stop-color="white"/>
<stop offset="1" stop-color="white" stop-opacity="0"/>
</linearGradient>
<linearGradient id="paint12_linear_3316_579092" x1="64.6684" y1="403.077" x2="69.3581" y2="507.709" gradientUnits="userSpaceOnUse">
<stop stop-color="white"/>
<stop offset="1" stop-color="white" stop-opacity="0"/>
</linearGradient>
<linearGradient id="paint13_linear_3316_579092" x1="49.7729" y1="403.745" x2="54.4629" y2="508.377" gradientUnits="userSpaceOnUse">
<stop stop-color="white"/>
<stop offset="1" stop-color="white" stop-opacity="0"/>
</linearGradient>
<linearGradient id="paint14_linear_3316_579092" x1="41.453" y1="404.118" x2="46.1427" y2="508.75" gradientUnits="userSpaceOnUse">
<stop stop-color="white"/>
<stop offset="1" stop-color="white" stop-opacity="0"/>
</linearGradient>
<linearGradient id="paint15_linear_3316_579092" x1="127.721" y1="400.251" x2="132.41" y2="504.883" gradientUnits="userSpaceOnUse">
<stop stop-color="white"/>
<stop offset="1" stop-color="white" stop-opacity="0"/>
</linearGradient>
<linearGradient id="paint16_linear_3316_579092" x1="195.84" y1="588.73" x2="114.697" y2="270.978" gradientUnits="userSpaceOnUse">
<stop stop-color="white"/>
<stop offset="1" stop-color="white" stop-opacity="0"/>
</linearGradient>
<linearGradient id="paint17_linear_3316_579092" x1="183.136" y1="591.974" x2="101.993" y2="274.222" gradientUnits="userSpaceOnUse">
<stop stop-color="white"/>
<stop offset="1" stop-color="white" stop-opacity="0"/>
</linearGradient>
<linearGradient id="paint18_linear_3316_579092" x1="173.305" y1="594.485" x2="92.1614" y2="276.733" gradientUnits="userSpaceOnUse">
<stop stop-color="white"/>
<stop offset="1" stop-color="white" stop-opacity="0"/>
</linearGradient>
<linearGradient id="paint19_linear_3316_579092" x1="167.818" y1="595.886" x2="86.674" y2="278.134" gradientUnits="userSpaceOnUse">
<stop stop-color="white"/>
<stop offset="1" stop-color="white" stop-opacity="0"/>
</linearGradient>
<linearGradient id="paint20_linear_3316_579092" x1="150.692" y1="600.26" x2="69.5489" y2="282.507" gradientUnits="userSpaceOnUse">
<stop stop-color="white"/>
<stop offset="1" stop-color="white" stop-opacity="0"/>
</linearGradient>
<linearGradient id="paint21_linear_3316_579092" x1="142.66" y1="602.311" x2="61.517" y2="284.559" gradientUnits="userSpaceOnUse">
<stop stop-color="white"/>
<stop offset="1" stop-color="white" stop-opacity="0"/>
</linearGradient>
<linearGradient id="paint22_linear_3316_579092" x1="157.987" y1="598.397" x2="76.844" y2="280.645" gradientUnits="userSpaceOnUse">
<stop stop-color="white"/>
<stop offset="1" stop-color="white" stop-opacity="0"/>
</linearGradient>
<linearGradient id="paint23_linear_3316_579092" x1="227.8" y1="317.754" x2="68.2059" y2="438.665" gradientUnits="userSpaceOnUse">
<stop stop-color="white"/>
<stop offset="1" stop-color="white" stop-opacity="0"/>
</linearGradient>
<linearGradient id="paint24_linear_3316_579092" x1="116.98" y1="325.607" x2="144.578" y2="355.206" gradientUnits="userSpaceOnUse">
<stop stop-color="white"/>
<stop offset="1" stop-color="white" stop-opacity="0"/>
</linearGradient>
<linearGradient id="paint25_linear_3316_579092" x1="131.276" y1="330.567" x2="135.606" y2="360.152" gradientUnits="userSpaceOnUse">
<stop stop-color="white"/>
<stop offset="1" stop-color="white" stop-opacity="0"/>
</linearGradient>
<linearGradient id="paint26_linear_3316_579092" x1="127.292" y1="326.085" x2="122.752" y2="364.579" gradientUnits="userSpaceOnUse">
<stop stop-color="white"/>
<stop offset="1" stop-color="white" stop-opacity="0"/>
</linearGradient>
<linearGradient id="paint27_linear_3316_579092" x1="115.151" y1="313.515" x2="101.236" y2="368.977" gradientUnits="userSpaceOnUse">
<stop stop-color="white"/>
<stop offset="1" stop-color="white" stop-opacity="0"/>
</linearGradient>
<linearGradient id="paint28_linear_3316_579092" x1="136.821" y1="344.509" x2="70.3685" y2="358.279" gradientUnits="userSpaceOnUse">
<stop stop-color="white"/>
<stop offset="1" stop-color="white" stop-opacity="0"/>
</linearGradient>
<linearGradient id="paint29_linear_3316_579092" x1="159.951" y1="362.37" x2="62.0332" y2="353.148" gradientUnits="userSpaceOnUse">
<stop stop-color="white"/>
<stop offset="1" stop-color="white" stop-opacity="0"/>
</linearGradient>
<linearGradient id="paint30_linear_3316_579092" x1="533.001" y1="508.928" x2="-56.4604" y2="48.6982" gradientUnits="userSpaceOnUse">
<stop stop-color="white"/>
<stop offset="1" stop-color="white" stop-opacity="0"/>
</linearGradient>
<linearGradient id="paint31_linear_3316_579092" x1="510.771" y1="-372.429" x2="-5.51477" y2="220.124" gradientUnits="userSpaceOnUse">
<stop stop-color="white"/>
<stop offset="1" stop-color="white" stop-opacity="0"/>
</linearGradient>
<linearGradient id="paint32_linear_3316_579092" x1="-153.886" y1="512.401" x2="121.397" y2="127.285" gradientUnits="userSpaceOnUse">
<stop stop-color="white"/>
<stop offset="1" stop-color="white" stop-opacity="0"/>
</linearGradient>
<linearGradient id="paint33_linear_3316_579092" x1="-191.8" y1="446.102" x2="89.1497" y2="225.085" gradientUnits="userSpaceOnUse">
<stop stop-color="white"/>
<stop offset="1" stop-color="white" stop-opacity="0"/>
</linearGradient>
<linearGradient id="paint34_linear_3316_579092" x1="656.337" y1="516.204" x2="25.0918" y2="257.688" gradientUnits="userSpaceOnUse">
<stop stop-color="#EABA4E"/>
<stop offset="1" stop-color="#EABA4E" stop-opacity="0"/>
</linearGradient>
<linearGradient id="paint35_linear_3316_579092" x1="213.915" y1="396.388" x2="218.605" y2="501.02" gradientUnits="userSpaceOnUse">
<stop stop-color="white"/>
<stop offset="1" stop-color="white" stop-opacity="0"/>
</linearGradient>
<linearGradient id="paint36_linear_3316_579092" x1="99.4978" y1="660.859" x2="241.895" y2="431.054" gradientUnits="userSpaceOnUse">
<stop stop-color="white"/>
<stop offset="1" stop-color="white" stop-opacity="0"/>
</linearGradient>
<linearGradient id="paint37_linear_3316_579092" x1="117.119" y1="671.778" x2="259.517" y2="441.973" gradientUnits="userSpaceOnUse">
<stop stop-color="white"/>
<stop offset="1" stop-color="white" stop-opacity="0"/>
</linearGradient>
<linearGradient id="paint38_linear_3316_579092" x1="135.764" y1="683.331" x2="278.162" y2="453.526" gradientUnits="userSpaceOnUse">
<stop stop-color="white"/>
<stop offset="1" stop-color="white" stop-opacity="0"/>
</linearGradient>
<linearGradient id="paint39_linear_3316_579092" x1="130.85" y1="680.287" x2="273.248" y2="450.482" gradientUnits="userSpaceOnUse">
<stop stop-color="white"/>
<stop offset="1" stop-color="white" stop-opacity="0"/>
</linearGradient>
<linearGradient id="paint40_linear_3316_579092" x1="126.008" y1="677.286" x2="268.406" y2="447.481" gradientUnits="userSpaceOnUse">
<stop stop-color="white"/>
<stop offset="1" stop-color="white" stop-opacity="0"/>
</linearGradient>
<linearGradient id="paint41_linear_3316_579092" x1="108.213" y1="666.259" x2="250.612" y2="436.456" gradientUnits="userSpaceOnUse">
<stop stop-color="white"/>
<stop offset="1" stop-color="white" stop-opacity="0"/>
</linearGradient>
<linearGradient id="paint42_linear_3316_579092" x1="119.137" y1="483.196" x2="233.531" y2="538.603" gradientUnits="userSpaceOnUse">
<stop stop-color="white"/>
<stop offset="1" stop-color="white" stop-opacity="0"/>
</linearGradient>
<linearGradient id="paint43_linear_3316_579092" x1="170.725" y1="435.659" x2="171.88" y2="540.394" gradientUnits="userSpaceOnUse">
<stop stop-color="white"/>
<stop offset="1" stop-color="white" stop-opacity="0"/>
</linearGradient>
<linearGradient id="paint44_linear_3316_579092" x1="161.258" y1="435.764" x2="162.412" y2="540.499" gradientUnits="userSpaceOnUse">
<stop stop-color="white"/>
<stop offset="1" stop-color="white" stop-opacity="0"/>
</linearGradient>
<linearGradient id="paint45_linear_3316_579092" x1="144.074" y1="435.953" x2="145.229" y2="540.688" gradientUnits="userSpaceOnUse">
<stop stop-color="white"/>
<stop offset="1" stop-color="white" stop-opacity="0"/>
</linearGradient>
<linearGradient id="paint46_linear_3316_579092" x1="219.142" y1="435.125" x2="220.297" y2="539.86" gradientUnits="userSpaceOnUse">
<stop stop-color="white"/>
<stop offset="1" stop-color="white" stop-opacity="0"/>
</linearGradient>
<linearGradient id="paint47_linear_3316_579092" x1="241.828" y1="434.875" x2="242.983" y2="539.61" gradientUnits="userSpaceOnUse">
<stop stop-color="white"/>
<stop offset="1" stop-color="white" stop-opacity="0"/>
</linearGradient>
<linearGradient id="paint48_linear_3316_579092" x1="265.721" y1="434.611" x2="266.876" y2="539.347" gradientUnits="userSpaceOnUse">
<stop stop-color="white"/>
<stop offset="1" stop-color="white" stop-opacity="0"/>
</linearGradient>
<linearGradient id="paint49_linear_3316_579092" x1="280.632" y1="434.447" x2="281.786" y2="539.182" gradientUnits="userSpaceOnUse">
<stop stop-color="white"/>
<stop offset="1" stop-color="white" stop-opacity="0"/>
</linearGradient>
<linearGradient id="paint50_linear_3316_579092" x1="288.96" y1="434.355" x2="290.115" y2="539.09" gradientUnits="userSpaceOnUse">
<stop stop-color="white"/>
<stop offset="1" stop-color="white" stop-opacity="0"/>
</linearGradient>
<linearGradient id="paint51_linear_3316_579092" x1="202.607" y1="435.307" x2="203.762" y2="540.042" gradientUnits="userSpaceOnUse">
<stop stop-color="white"/>
<stop offset="1" stop-color="white" stop-opacity="0"/>
</linearGradient>
<linearGradient id="paint52_linear_3316_579092" x1="116.328" y1="436.258" x2="117.482" y2="540.994" gradientUnits="userSpaceOnUse">
<stop stop-color="white"/>
<stop offset="1" stop-color="white" stop-opacity="0"/>
</linearGradient>
<linearGradient id="paint53_linear_3316_579092" x1="145.111" y1="627.301" x2="208.402" y2="305.505" gradientUnits="userSpaceOnUse">
<stop stop-color="white"/>
<stop offset="1" stop-color="white" stop-opacity="0"/>
</linearGradient>
<linearGradient id="paint54_linear_3316_579092" x1="157.977" y1="629.831" x2="221.267" y2="308.035" gradientUnits="userSpaceOnUse">
<stop stop-color="white"/>
<stop offset="1" stop-color="white" stop-opacity="0"/>
</linearGradient>
<linearGradient id="paint55_linear_3316_579092" x1="167.933" y1="631.79" x2="231.223" y2="309.993" gradientUnits="userSpaceOnUse">
<stop stop-color="white"/>
<stop offset="1" stop-color="white" stop-opacity="0"/>
</linearGradient>
<linearGradient id="paint56_linear_3316_579092" x1="173.491" y1="632.882" x2="236.782" y2="311.086" gradientUnits="userSpaceOnUse">
<stop stop-color="white"/>
<stop offset="1" stop-color="white" stop-opacity="0"/>
</linearGradient>
<linearGradient id="paint57_linear_3316_579092" x1="190.833" y1="636.294" x2="254.124" y2="314.497" gradientUnits="userSpaceOnUse">
<stop stop-color="white"/>
<stop offset="1" stop-color="white" stop-opacity="0"/>
</linearGradient>
<linearGradient id="paint58_linear_3316_579092" x1="198.969" y1="637.894" x2="262.26" y2="316.097" gradientUnits="userSpaceOnUse">
<stop stop-color="white"/>
<stop offset="1" stop-color="white" stop-opacity="0"/>
</linearGradient>
<linearGradient id="paint59_linear_3316_579092" x1="183.446" y1="634.84" x2="246.738" y2="313.044" gradientUnits="userSpaceOnUse">
<stop stop-color="white"/>
<stop offset="1" stop-color="white" stop-opacity="0"/>
</linearGradient>
<linearGradient id="paint60_linear_3316_579092" x1="98.0742" y1="358.518" x2="264.176" y2="470.34" gradientUnits="userSpaceOnUse">
<stop stop-color="white"/>
<stop offset="1" stop-color="white" stop-opacity="0"/>
</linearGradient>
<linearGradient id="paint61_linear_3316_579092" x1="209.118" y1="356.88" x2="173.644" y2="388.257" gradientUnits="userSpaceOnUse">
<stop stop-color="white"/>
<stop offset="1" stop-color="white" stop-opacity="0"/>
</linearGradient>
<linearGradient id="paint62_linear_3316_579092" x1="195.167" y1="365.927" x2="192.495" y2="395.709" gradientUnits="userSpaceOnUse">
<stop stop-color="white"/>
<stop offset="1" stop-color="white" stop-opacity="0"/>
</linearGradient>
<linearGradient id="paint63_linear_3316_579092" x1="198.895" y1="361.229" x2="205.576" y2="399.412" gradientUnits="userSpaceOnUse">
<stop stop-color="white"/>
<stop offset="1" stop-color="white" stop-opacity="0"/>
</linearGradient>
<linearGradient id="paint64_linear_3316_579092" x1="210.316" y1="348.001" x2="227.305" y2="402.603" gradientUnits="userSpaceOnUse">
<stop stop-color="white"/>
<stop offset="1" stop-color="white" stop-opacity="0"/>
</linearGradient>
<linearGradient id="paint65_linear_3316_579092" x1="191.276" y1="374.785" x2="246.455" y2="403.622" gradientUnits="userSpaceOnUse">
<stop stop-color="white"/>
<stop offset="1" stop-color="white" stop-opacity="0"/>
</linearGradient>
<linearGradient id="paint66_linear_3316_579092" x1="166.187" y1="375.957" x2="262.616" y2="390.281" gradientUnits="userSpaceOnUse">
<stop stop-color="white"/>
<stop offset="1" stop-color="white" stop-opacity="0"/>
</linearGradient>
<linearGradient id="paint67_linear_3316_579092" x1="-195.992" y1="566.431" x2="366.885" y2="74.0092" gradientUnits="userSpaceOnUse">
<stop stop-color="white"/>
<stop offset="1" stop-color="white" stop-opacity="0"/>
</linearGradient>
<linearGradient id="paint68_linear_3316_579092" x1="-155.287" y1="-237.921" x2="290.729" y2="219.7" gradientUnits="userSpaceOnUse">
<stop stop-color="white"/>
<stop offset="1" stop-color="white" stop-opacity="0"/>
</linearGradient>
<linearGradient id="paint69_linear_3316_579092" x1="430.624" y1="-178.032" x2="240.163" y2="204.655" gradientUnits="userSpaceOnUse">
<stop stop-color="#2B4E2C"/>
<stop offset="1" stop-color="#2B4E2C" stop-opacity="0"/>
</linearGradient>
<linearGradient id="paint70_linear_3316_579092" x1="-211.626" y1="491.218" x2="296.152" y2="191.535" gradientUnits="userSpaceOnUse">
<stop stop-color="white"/>
<stop offset="1" stop-color="white" stop-opacity="0"/>
</linearGradient>
<linearGradient id="paint71_linear_3316_579092" x1="799.451" y1="138.847" x2="244.625" y2="106.075" gradientUnits="userSpaceOnUse">
<stop stop-color="white"/>
<stop offset="1" stop-color="white" stop-opacity="0"/>
</linearGradient>
<linearGradient id="paint72_linear_3316_579092" x1="-72.9277" y1="478.427" x2="273.063" y2="240.356" gradientUnits="userSpaceOnUse">
<stop stop-color="white"/>
<stop offset="1" stop-color="white" stop-opacity="0"/>
</linearGradient>
</defs>
</svg>
