<svg width="119" height="699" viewBox="0 0 119 699" fill="none" xmlns="http://www.w3.org/2000/svg">
<path d="M51.1217 1.85164C50.1094 10.5386 49.5921 20.9164 50.3972 32.5641C51.5986 49.9522 55.356 64.4842 59.1013 75.3671C56.4408 84.3942 53.7822 93.4235 51.1217 102.451C49.2681 98.9847 47.4146 95.5187 45.561 92.0528C42.8683 75.5201 40.9886 56.234 41.208 34.742C41.3267 23.0741 42.0512 12.1591 43.142 2.09537C45.8026 2.01284 48.4631 1.93215 51.1217 1.85164Z" fill="#7F8E35"/>
<path d="M51.1217 1.85164C50.1094 10.5386 49.5921 20.9164 50.3972 32.5641C51.5986 49.9522 55.356 64.4842 59.1013 75.3671C56.4408 84.3942 53.7822 93.4235 51.1217 102.451C49.2681 98.9847 47.4146 95.5187 45.561 92.0528C42.8683 75.5201 40.9886 56.234 41.208 34.742C41.3267 23.0741 42.0512 12.1591 43.142 2.09537C45.8026 2.01284 48.4631 1.93215 51.1217 1.85164Z" fill="url(#paint0_linear_3316_579090)"/>
<path opacity="0.6" d="M48.2217 1.94034C47.2598 6.54952 46.1186 13.1553 45.5612 21.1579C45.0037 29.1606 45.1244 37.2076 46.6338 51.4598C47.7971 62.4373 49.7895 77.1462 53.4181 94.6571C55.3119 88.2264 57.2077 81.7957 59.1015 75.365C55.3562 64.4842 51.5988 49.9502 50.3973 32.5621C49.5923 20.9144 50.1115 10.5367 51.1218 1.84968L48.2217 1.94034Z" fill="#7F8E35"/>
<path d="M60.0694 1.12721C63.4544 1.12721 66.8395 1.12721 70.2246 1.12721C69.176 34.9816 68.1295 68.8381 67.081 102.693C59.9084 105.836 52.7337 108.98 45.5611 112.124C50.1617 93.5246 54.2552 72.3866 56.9258 49.0086C58.8779 31.9123 59.8118 15.8806 60.0694 1.12721Z" fill="#7F8E35"/>
<path d="M60.0694 1.12721C63.4544 1.12721 66.8395 1.12721 70.2246 1.12721C69.176 34.9816 68.1295 68.8381 67.081 102.693C59.9084 105.836 52.7337 108.98 45.5611 112.124C50.1617 93.5246 54.2552 72.3866 56.9258 49.0086C58.8779 31.9123 59.8118 15.8806 60.0694 1.12721Z" fill="url(#paint1_linear_3316_579090)"/>
<path opacity="0.6" d="M67.6708 35.1691C63.1023 59.1651 58.3789 82.9777 53.5066 106.603C51.8845 103.822 49.5178 102.01 47.8534 102.427C45.8188 102.936 44.0739 106.966 45.5632 112.124C52.7358 108.98 59.9104 105.836 67.0831 102.693C67.878 77.0261 68.671 51.3616 69.4659 25.6951C68.8702 28.8511 68.2725 32.0091 67.6708 35.1691Z" fill="#7F8E35"/>
<path d="M72.4002 0.644099C75.7048 0.724608 79.0094 0.805108 82.314 0.885618C80.2994 28.8567 78.2848 56.8278 76.2683 84.7989C72.8832 88.5869 69.4982 92.3768 66.1131 96.1648C68.2102 64.3232 70.3052 32.4837 72.4002 0.644099Z" fill="#7F8E35"/>
<path d="M72.4002 0.644099C75.7048 0.724608 79.0094 0.805108 82.314 0.885618C80.2994 28.8567 78.2848 56.8278 76.2683 84.7989C72.8832 88.5869 69.4982 92.3768 66.1131 96.1648C68.2102 64.3232 70.3052 32.4837 72.4002 0.644099Z" fill="url(#paint2_linear_3316_579090)"/>
<path opacity="0.6" d="M67.7131 71.8548C67.1797 79.9581 66.6464 88.0615 66.1131 96.1628C69.4982 92.3748 72.8832 88.5849 76.2683 84.7969C78.2828 56.8257 80.2974 28.8545 82.314 0.88332C82.0523 0.877282 81.7927 0.871177 81.5311 0.865139C76.9264 24.529 72.3197 48.1909 67.7131 71.8548Z" fill="#7F8E35"/>
<path d="M35.1646 3.54448C34.1966 17.2291 34.3576 37.6906 40.7252 61.3403C48.0247 88.4459 60.3574 108.157 69.0153 119.861C59.007 122.739 48.9987 125.617 38.9904 128.497C39.083 124.75 39.085 119.136 38.5497 112.365C36.8692 91.1894 31.2825 76.0234 29.3605 70.2891C24.8323 56.7735 20.6362 35.861 22.8319 4.02949C26.9435 3.86847 31.053 3.7055 35.1646 3.54448Z" fill="#7F8E35"/>
<path d="M35.1646 3.54448C34.1966 17.2291 34.3576 37.6906 40.7252 61.3403C48.0247 88.4459 60.3574 108.157 69.0153 119.861C59.007 122.739 48.9987 125.617 38.9904 128.497C39.083 124.75 39.085 119.136 38.5497 112.365C36.8692 91.1894 31.2825 76.0234 29.3605 70.2891C24.8323 56.7735 20.6362 35.861 22.8319 4.02949C26.9435 3.86847 31.053 3.7055 35.1646 3.54448Z" fill="url(#paint3_linear_3316_579090)"/>
<path opacity="0.6" d="M69.0152 119.861C60.3574 108.157 48.0246 88.4459 40.7252 61.3403C34.3555 37.6906 34.1945 17.2291 35.1645 3.54448L31.387 3.69337C30.4593 29.0499 32.7233 43.8173 35.2289 52.8203C36.034 55.7106 37.9539 62.8419 41.2525 77.231C42.1843 81.2947 43.0054 85.3867 43.6071 89.5128C44.1968 93.5604 44.6395 97.6462 44.5389 101.742C44.3477 109.431 42.5143 117.099 39.0366 123.969C39.0447 125.678 39.0246 127.205 38.9944 128.497C48.9986 125.619 59.0069 122.739 69.0152 119.861Z" fill="#7F8E35"/>
<path d="M34.3857 130.327C40.8399 123.599 47.3705 115.739 53.5047 106.603C80.05 67.0748 84.4775 25.5499 84.7834 1.23588C89.7221 0.825284 94.6609 0.412643 99.5996 3.05304e-05C97.243 22.0859 93.1173 39.4901 89.7222 51.4499C82.9903 75.162 75.6224 89.8347 80.2572 109.073C82.463 118.225 86.5967 125.144 89.6879 129.504C84.4131 131.831 76.5059 134.566 66.5982 135.339C52.0799 136.472 40.5843 132.825 34.3857 130.327Z" fill="#7F8E35"/>
<path d="M34.3857 130.327C40.8399 123.599 47.3705 115.739 53.5047 106.603C80.05 67.0748 84.4775 25.5499 84.7834 1.23588C89.7221 0.825284 94.6609 0.412643 99.5996 3.05304e-05C97.243 22.0859 93.1173 39.4901 89.7222 51.4499C82.9903 75.162 75.6224 89.8347 80.2572 109.073C82.463 118.225 86.5967 125.144 89.6879 129.504C84.4131 131.831 76.5059 134.566 66.5982 135.339C52.0799 136.472 40.5843 132.825 34.3857 130.327Z" fill="url(#paint4_linear_3316_579090)"/>
<path opacity="0.6" d="M99.5996 3.05304e-05C97.255 0.195267 94.9104 0.390534 92.5638 0.585771C92.5577 1.08694 92.5578 1.58801 92.5457 2.08919C92.3142 11.8892 91.155 21.6592 89.231 31.2701C87.3272 40.7843 84.6747 50.1375 81.4989 59.3035C78.305 68.5179 74.5859 77.5431 70.5548 86.4193C68.5282 90.8796 66.423 95.3034 64.2596 99.6972C62.1645 103.958 59.9548 108.161 57.8597 112.422C55.8694 116.474 53.9937 120.594 52.5084 124.863C51.4055 128.033 50.4758 131.323 50.0874 134.671C54.9496 135.442 60.5022 135.814 66.5961 135.337C76.5038 134.564 84.413 131.829 89.6859 129.502C86.5946 125.142 82.4589 118.225 80.2551 109.071C75.6203 89.8327 82.9882 75.158 89.7201 51.4479C93.1172 39.4902 97.2429 22.0859 99.5996 3.05304e-05Z" fill="#7F8E35"/>
<path d="M13.2581 145.896C26.8447 128.091 49.7009 125.478 54.2392 124.959C58.8499 124.432 87.4358 121.165 104.647 139.855C113.375 149.335 115.072 160.003 117.209 173.452C120.528 194.326 116.563 205.793 114.198 233.124C112.731 250.085 113.409 255.459 113.023 280.415C112.214 332.435 108.525 356.394 106.044 415.49C103.709 471.086 96.5747 526.471 95.5745 582.105C95.5745 582.105 95.0935 608.893 77.4295 637.643C73.9358 643.331 69.9369 648.661 64.169 649.299C53.8065 650.448 43.6976 635.793 39.1432 625.581C31.9867 609.533 34.0415 594.355 34.6513 589.015C37.5734 563.431 30.8335 557.83 22.4594 503.274C11.6964 433.154 19.3621 419.818 8.3415 338.099C8.3415 338.099 -7.51116 220.536 4.49155 165.357C5.34284 161.45 7.3433 153.647 13.2581 145.896Z" fill="#9B2F2E"/>
<path d="M58.1416 645.686C57.5298 653.95 58.1999 660.498 58.9244 664.948C60.3815 673.893 62.4544 676.803 62.3276 684.552C62.1908 692.929 59.6147 698.812 60.1923 698.996C60.7236 699.165 63.5412 694.376 64.7185 688.346C66.6062 678.665 62.6577 673.997 62.6013 664.948C62.5731 660.371 63.5331 653.693 68.4457 645.481C65.0103 645.549 61.5749 645.62 58.1416 645.686Z" fill="#AF5D39"/>
<path d="M58.1416 645.686C57.5298 653.95 58.1999 660.498 58.9244 664.948C60.3815 673.892 62.4544 676.803 62.3277 684.552C62.1928 692.853 59.8442 698.903 60.1924 698.995C60.5144 699.082 62.9878 693.996 63.8572 687.472C65.3163 676.535 60.8686 672.073 61.4643 662.871C61.742 658.576 63.1649 652.551 68.4478 645.478C65.0104 645.549 61.575 645.619 58.1416 645.686Z" fill="url(#paint5_linear_3316_579090)"/>
<path d="M14.2946 145.896C27.6416 128.091 50.0934 125.478 54.5531 124.959C59.0813 124.432 87.1641 121.165 104.071 139.855C112.647 149.335 114.311 160.003 116.412 173.452C119.672 194.326 115.778 205.793 113.454 233.124C112.013 250.085 112.679 255.459 112.299 280.415C111.504 332.435 107.879 356.394 105.442 415.49C103.15 471.086 96.14 526.471 95.1579 582.105C95.1579 582.105 94.6849 608.893 77.3329 637.643C73.8996 643.331 69.9731 648.661 64.3058 649.299C54.1265 650.448 44.1947 635.793 39.7208 625.581C32.6911 609.533 34.7096 594.355 35.3073 589.015C38.1772 563.431 31.558 557.83 23.3308 503.274C12.757 433.154 20.2879 419.818 9.46247 338.099C9.46247 338.099 -6.11045 220.536 5.68094 165.357C6.51815 161.45 8.48237 153.647 14.2946 145.896Z" fill="#B05B3B"/>
<path d="M14.2946 145.896C27.6416 128.091 50.0934 125.478 54.5531 124.959C59.0813 124.432 87.1641 121.165 104.071 139.855C112.647 149.335 114.311 160.003 116.412 173.452C119.672 194.326 115.778 205.793 113.454 233.124C112.013 250.085 112.679 255.459 112.299 280.415C111.504 332.435 107.879 356.394 105.442 415.49C103.15 471.086 96.14 526.471 95.1579 582.105C95.1579 582.105 94.6849 608.893 77.3329 637.643C73.8996 643.331 69.9731 648.661 64.3058 649.299C54.1265 650.448 44.1947 635.793 39.7208 625.581C32.6911 609.533 34.7096 594.355 35.3073 589.015C38.1772 563.431 31.558 557.83 23.3308 503.274C12.757 433.154 20.2879 419.818 9.46247 338.099C9.46247 338.099 -6.11045 220.536 5.68094 165.357C6.51815 161.45 8.48237 153.647 14.2946 145.896Z" fill="url(#paint6_linear_3316_579090)"/>
<path d="M113.454 233.126C112.007 250.091 112.675 255.461 112.296 280.421C111.507 332.437 107.875 356.398 105.442 415.49C103.147 471.088 96.1418 526.477 95.1637 582.105C95.1637 582.105 94.6848 608.891 77.3308 637.645C73.8974 643.333 69.977 648.663 64.3077 649.301C54.1284 650.448 44.2006 635.797 39.7207 625.589C33.2847 610.878 34.4419 596.897 35.1402 590.559C35.1905 597.326 36.1384 605.999 39.6704 614.949C43.6129 624.928 52.3634 639.261 61.3352 638.132C66.3243 637.514 69.7879 632.293 72.8107 626.736C88.0978 598.632 88.5184 572.444 88.5184 572.444C89.3858 518.044 95.5542 463.903 97.5788 409.541C99.7242 351.767 102.918 328.345 103.616 277.487C103.956 253.086 103.367 247.827 104.635 231.25C106.679 204.523 110.113 193.316 107.239 172.907C105.393 159.753 103.926 149.323 96.3713 140.063C81.4725 121.789 56.7245 124.983 52.7337 125.493C48.8113 126.002 29.0241 128.556 17.269 145.962C12.1491 153.546 10.4143 161.172 9.67572 164.995C-0.712935 218.946 13.0084 333.886 13.0084 333.886C22.5478 413.776 15.9125 426.82 25.2325 495.372C32.2683 547.138 37.9658 553.814 35.9794 577.037C35.8104 559.971 30.1109 548.265 23.3367 503.286C12.7589 433.166 20.2938 419.824 9.46641 338.109C9.46641 338.109 -6.11053 220.544 5.68488 165.365C6.5241 161.452 8.48831 153.649 14.2965 145.904C27.6375 128.089 50.0912 125.485 54.551 124.965C59.0812 124.436 87.162 121.163 104.075 139.855C112.647 149.335 114.313 160.005 116.41 173.458C119.67 194.324 115.78 205.791 113.454 233.126Z" fill="url(#paint7_linear_3316_579090)"/>
<path d="M35.3094 589.021C35.2591 589.47 35.1987 589.979 35.1404 590.559C35.09 585.459 35.5489 581.447 35.7783 579.201C35.8487 578.462 35.9172 577.744 35.9775 577.035C36.0278 580.668 35.8085 584.541 35.3094 589.021Z" fill="url(#paint8_linear_3316_579090)"/>
<path d="M66.4793 505.663C66.6584 504.581 70.8304 505.647 72.9053 503.365C74.8333 501.244 72.7604 498.637 73.1348 492.524C73.5634 485.526 76.6023 483.676 74.946 481.112C73.6037 479.035 68.1075 474.836 67.8941 474.5C67.8036 474.357 67.8116 474.223 67.8116 474.22C67.8176 474.132 67.8519 474.051 67.9062 473.981C67.872 473.834 67.8599 473.685 67.9002 473.53C68.0028 473.138 68.3188 472.838 68.6448 472.618C68.6609 472.608 68.6831 472.608 68.6992 472.6C70.5044 472.53 73.1911 472.113 74.946 470.169C76.5258 468.418 76.2683 464.589 75.6886 457.001C75.1312 449.727 74.8192 446.054 73.0925 444.206C71.1504 442.127 68.5663 441.431 66.912 441.161C69.0614 439.955 71.9635 437.862 73.6339 434.368C74.8675 431.79 74.5254 430.336 75.1332 423.992C75.9966 414.973 77.025 414.369 76.2461 412.123C75.6726 410.469 73.495 406.111 62.5931 403.964C67.4775 401.134 73.2253 396.671 73.6741 390.448C73.6942 390.176 73.6902 390.092 73.6681 388.874C73.4447 376.055 73.332 369.646 73.5976 367.344C74.1792 362.294 75.0567 360.686 73.7747 358.772C72.1848 356.397 68.7978 355.829 66.0486 355.746C71.4563 355.587 73.8009 353.826 74.95 352.409C79.1079 347.271 72.3056 340.739 73.1227 326.479C73.5976 318.203 76.2441 314.193 73.4386 310.363C71.1947 307.3 67.0408 306.511 63.9898 306.307C70.3333 304.955 72.7161 302.397 73.7466 300.446C76.6305 294.984 72.1929 288.062 73.016 277.845C73.0824 277.03 73.1549 276.525 72.9295 275.83C71.6012 271.739 62.4603 268.991 61.5728 267.619C61.4702 267.462 61.1723 267 61.3293 266.777C61.3957 266.682 61.5225 266.662 61.5728 266.656C62.3637 266.552 69.2989 267.375 71.243 266.361C73.5876 265.137 71.6092 259.708 71.6495 250.794C71.6978 240.344 74.4731 236.328 71.6133 233.537C68.7293 230.719 62.3818 231.367 62.3194 229.771C62.3114 229.547 62.42 229.177 62.6716 228.919C63.3056 228.271 64.5976 228.603 64.98 228.684C64.98 228.684 66.9764 229.098 71.5891 226.619C75.7047 224.405 73.0865 212.985 73.1488 198.757C73.2112 184.78 75.8154 177.707 71.8266 175.137C68.1396 172.76 60.961 175.614 59.7695 172.855C59.7092 172.716 59.5522 172.337 59.6367 171.874C60.1056 169.342 66.751 170.508 70.1019 167.825C75.2902 163.67 74.0464 149.114 66.2338 141.556C61.6734 137.146 55.656 135.874 54.056 135.556C52.6009 135.267 49.6204 134.699 45.8368 135.252C36.5068 136.619 30.9361 143.545 29.0483 145.894C27.0861 148.333 25.8464 150.618 25.1078 152.165C24.8723 153.647 24.8381 155.165 25.0273 156.678C25.5586 160.915 27.7422 164.729 30.7147 167.732C30.9461 167.965 30.8857 168.346 30.6141 168.515C28.9336 169.566 26.6896 170.232 21.4289 172.023C20.0563 172.49 19.3721 172.724 19.0521 172.925C15.0774 175.411 17.6272 182.626 16.8786 193.181C16.3271 200.952 13.8175 212.914 16.0554 215.746C16.8745 216.782 17.8667 217.739 17.8667 217.739C17.8667 217.739 19.1749 218.994 20.6521 219.983C24.7918 222.758 29.6843 224.189 34.5224 225.168C34.9068 225.246 34.8283 225.675 34.8203 225.9C34.7398 228.291 24.3853 227.094 20.2475 232.611C19.3077 233.863 19.0038 236.536 18.394 241.884C17.585 248.972 18.0076 253.656 18.1303 254.904C18.6274 259.904 18.9917 262.305 20.1529 263.768C22.7833 267.079 27.0881 268.586 31.0689 269.492C31.5016 269.591 31.5358 270.189 31.1876 270.404C28.2071 272.254 27.5309 275.575 25.7055 278.167C23.0912 281.879 26.8225 284.145 26.3656 293.993C26.0456 300.881 23.9687 305.213 26.742 308.451C27.5027 309.341 28.3761 309.85 28.7907 310.087C32.8178 312.4 37.3762 310.725 38.4186 310.313C34.3694 312.166 28.5271 315.659 26.8909 321.628C26.0275 324.778 27.1364 325.694 28.036 333.679C29.32 345.081 27.7019 348.923 30.6503 352.202C32.7031 354.484 37.5231 357.103 38.1047 357.081C38.6521 357.061 38.7145 357.737 38.3562 358.011C34.8303 360.71 29.5494 361.481 27.4866 365.764C28.4747 375.433 29.1711 383.983 29.6903 391.811C30.0002 392.692 30.3243 393.568 30.6704 394.437C31.6505 396.895 32.7876 399.292 34.0253 401.629C34.7559 403.008 35.6776 404.411 37.0823 405.177C38.2999 405.84 39.7187 405.87 41.0671 405.749C42.2163 405.646 43.3554 405.445 44.4904 405.224C42.9227 405.562 40.2702 406.359 37.676 408.412C36.5872 409.275 35.414 410.203 34.5244 411.751C32.2181 415.758 34.9973 418.381 33.6812 424.483C33.5503 425.091 33.3189 426.585 33.2143 429.59C33.1861 430.405 33.2022 431.218 33.5262 431.977C33.5262 431.977 33.8744 432.832 34.6452 433.613C35.8346 434.815 39.4692 437.005 44.5407 439.378C41.1295 439.599 36.7784 440.423 35.0799 443.462C33.6832 445.96 35.253 447.848 36.0781 453.946C37.3862 463.615 34.8545 469.346 37.6458 470.837C38.789 471.449 44.0598 473.079 44.5911 473.277C44.903 473.393 44.9775 473.709 44.895 473.955C45.0097 474.212 44.9453 474.536 44.5911 474.593C43.9229 474.699 43.3051 474.895 42.7375 475.168C41.8359 475.603 40.1132 477.248 39.3424 478.709C37.4929 482.217 38.805 486.611 38.9499 493.903C39.0808 500.581 38.1288 504.392 39.9019 505.217C41.4656 505.945 46.0079 504.752 46.7103 505.058C46.9618 505.166 47.0302 505.346 47.0302 505.346C47.1148 505.565 46.9779 505.808 46.9296 505.891C46.5151 506.618 41.7635 510.293 40.5076 512.002C39.5235 513.34 39.0043 515.766 40.8961 520.524C41.3026 522.255 41.9587 525.286 42.4678 529.116C43.6009 537.65 43.2407 544.405 45.6517 545.087C46.0743 545.206 45.9616 544.964 48.9401 544.578C50.7112 544.348 51.8462 544.292 52.8022 544.96C53.1182 545.18 53.3174 545.32 53.416 545.574C53.9131 546.862 50.8078 548.505 49.1756 550.65C47.4549 552.911 48.3283 554.473 48.8053 565.486C49.0649 571.476 48.9744 574.876 50.846 575.687C52.2105 576.279 54.5289 575.453 55.0542 576.518C55.187 576.786 55.1448 577.053 55.1327 577.122C54.8751 578.505 51.7396 577.921 50.4757 579.579C49.5238 580.829 50.9003 581.687 50.8218 586.536C50.7997 587.848 50.8017 588.596 51.2807 589.259C51.971 590.211 53.253 590.44 54.3498 590.497C54.4847 590.503 54.7221 591.024 54.6014 591.426C54.3337 592.328 52.3876 591.835 51.2847 592.699C49.9162 593.769 50.9808 596.034 51.0312 600.536C51.0855 605.415 49.8941 608.062 51.2163 608.881C52.3413 609.579 54.3639 608.382 54.9536 609.279C55.0582 609.438 55.35 609.765 55.0542 610.062C53.9292 611.198 53.0437 612.411 52.5828 613.897C52.5768 613.969 52.5607 614.042 52.5305 614.112C52.5144 614.15 52.5023 614.188 52.4862 614.227C52.4379 614.41 52.3916 614.595 52.3574 614.786C52.3333 614.917 52.2689 615.002 52.1904 615.06C51.9167 615.966 51.7798 616.898 51.7194 617.842C51.6651 618.303 51.1761 623.017 54.4766 625.585C54.9013 625.915 55.8834 626.659 57.3002 626.828C61.2367 627.295 64.3138 622.817 65.3603 621.293C66.8134 619.18 68.7837 616.312 67.6546 613.484C66.8275 611.411 64.7727 610.451 63.9395 610.117C65.308 610.205 67.874 610.157 69.3754 608.47C70.4178 607.299 70.3393 606.021 70.5386 603.553C71.1544 595.939 73.0502 593.898 71.6012 592.467C69.8785 590.762 65.783 592.254 65.3221 590.839C65.2275 590.551 65.3302 590.285 65.4227 590.056C66.4652 587.459 71.2088 588.369 73.0402 585.861C73.7929 584.831 73.501 583.979 73.1851 580.026C73.1851 580.026 72.8349 575.659 72.8369 569.504C72.8389 562.618 73.6962 561.773 72.6175 558.979C71.6837 556.562 70.6976 556.304 69.0211 553.225C67.2642 549.998 66.5639 547.005 66.2439 545.041C67.3306 544.525 69.0594 543.539 70.4983 541.75C73.9217 537.493 71.7803 533.582 72.6155 522.448C73.167 515.105 74.4228 512.481 72.3519 509.854C70.2085 507.141 66.3062 506.7 66.4793 505.663Z" fill="url(#paint9_linear_3316_579090)"/>
<path d="M59.4637 227.005C59.351 227.567 53.257 226.295 45.9194 225.904C37.3782 225.449 25.1239 226.078 9.74822 231.244C14.377 228.072 24.4538 222.163 37.9719 222.118C49.4272 222.08 59.6126 226.267 59.4637 227.005Z" fill="url(#paint10_linear_3316_579090)"/>
<path opacity="0.58" d="M110.228 156.068C110.334 155.567 102.439 152.554 92.6703 152.113C82.5513 151.658 74.1169 154.132 74.1591 154.661C74.1994 155.16 81.7484 153.806 94.0409 154.45C104.228 154.985 110.137 156.497 110.228 156.068Z" fill="#9D3331"/>
<path d="M87.8886 175.801C87.7095 176.345 81.8108 174.358 74.5718 173.098C66.1453 171.631 53.9031 170.797 38.0223 174.098C42.9952 171.5 53.7018 166.83 67.1294 168.392C78.5082 169.717 88.1241 175.085 87.8886 175.801Z" fill="url(#paint11_linear_3316_579090)"/>
<path d="M57.6403 268.321C57.5759 268.889 51.3954 268.14 44.0517 268.371C35.5025 268.641 23.3469 270.304 8.46021 276.753C12.8032 273.2 22.3446 266.459 35.8104 265.272C47.2215 264.263 57.7248 267.572 57.6403 268.321Z" fill="url(#paint12_linear_3316_579090)"/>
<path d="M86.4618 306.615C86.335 307.173 80.2733 305.764 72.9457 305.204C64.4186 304.554 52.1523 304.9 36.6599 309.713C41.3591 306.647 51.5707 300.971 65.0848 301.237C76.5421 301.46 86.6289 305.881 86.4618 306.615Z" fill="url(#paint13_linear_3316_579090)"/>
<path d="M66.1331 358.562C66.0426 359.128 59.9024 358.105 52.5546 358.011C44.0034 357.902 31.7834 359.025 16.629 364.81C21.125 361.453 30.9542 355.14 44.4602 354.549C55.9055 354.045 66.2519 357.815 66.1331 358.562Z" fill="url(#paint14_linear_3316_579090)"/>
<path d="M73.6158 408.358C73.5011 408.706 69.7216 407.434 65.0827 406.625C59.6831 405.685 51.8403 405.151 41.6629 407.265C44.8488 405.6 51.7095 402.607 60.313 403.609C67.6044 404.459 73.7668 407.897 73.6158 408.358Z" fill="url(#paint15_linear_3316_579090)"/>
<path d="M46.98 439.267C46.9558 439.529 44.1142 439.257 40.7472 439.452C36.8288 439.678 31.2722 440.586 24.5222 443.722C26.4724 442.041 30.7691 438.835 36.9315 438.13C42.154 437.53 47.0102 438.923 46.98 439.267Z" fill="url(#paint16_linear_3316_579090)"/>
<path d="M83.5213 477.892C83.3825 478.31 78.8301 476.779 73.2454 475.807C66.7429 474.674 57.2961 474.032 45.0398 476.58C48.8777 474.575 57.1392 470.972 67.5017 472.176C76.2843 473.198 83.7045 477.34 83.5213 477.892Z" fill="url(#paint17_linear_3316_579090)"/>
<path d="M67.2362 505.72C67.2362 506.123 62.8569 506.098 57.7431 506.851C51.79 507.729 43.43 509.874 33.5485 515.582C36.2976 512.748 42.4197 507.268 51.7337 505.349C59.6288 503.725 67.2362 505.189 67.2362 505.72Z" fill="url(#paint18_linear_3316_579090)"/>
<path d="M84.089 548.042C83.9763 548.505 78.939 547.249 72.837 546.683C65.7348 546.025 55.5011 546.15 42.5183 549.956C46.4789 547.464 55.0684 542.867 66.3365 543.269C75.8859 543.61 84.2379 547.43 84.089 548.042Z" fill="url(#paint19_linear_3316_579090)"/>
<path d="M73.7687 592.948C73.656 593.288 69.961 592.045 65.4228 591.253C60.1439 590.334 52.4722 589.812 42.5202 591.879C45.6356 590.251 52.3454 587.324 60.7598 588.304C67.8901 589.136 73.9157 592.499 73.7687 592.948Z" fill="url(#paint20_linear_3316_579090)"/>
<path opacity="0.58" d="M96.6251 494.567C96.7499 494.211 91.2617 491.258 84.1575 490.012C76.7977 488.72 70.3938 489.731 70.3757 490.123C70.3576 490.494 76.0088 490.216 84.9383 491.852C92.3404 493.205 96.5184 494.871 96.6251 494.567Z" fill="#9D3331"/>
<path opacity="0.58" d="M85.8799 441.526C86.0188 441.145 80.1805 437.911 72.5913 436.48C64.7283 434.998 57.8576 435.994 57.8314 436.413C57.8072 436.81 63.8609 436.588 73.4023 438.458C81.3095 440.01 85.7612 441.85 85.8799 441.526Z" fill="#9D3331"/>
<path opacity="0.58" d="M104.309 405.141C104.466 404.654 96.9147 400.86 87.2405 399.437C77.2182 397.963 68.5784 399.574 68.5663 400.107C68.5562 400.608 76.2038 400.02 88.3675 401.9C98.4483 403.458 104.176 405.557 104.309 405.141Z" fill="#9D3331"/>
<path opacity="0.58" d="M100.042 343.805C100.227 343.328 92.926 339.077 83.3564 337.06C73.4447 334.973 64.7204 336.047 64.6781 336.579C64.6378 337.078 72.3056 336.963 84.3325 339.588C94.2965 341.764 99.8833 344.211 100.042 343.805Z" fill="#9D3331"/>
<path opacity="0.58" d="M109.825 294.605C110.012 294.128 102.721 289.857 93.1573 287.816C83.2497 285.703 74.5234 286.756 74.4791 287.287C74.4368 287.786 82.1065 287.692 94.1253 290.348C104.085 292.55 109.666 295.014 109.825 294.605Z" fill="#9D3331"/>
<path opacity="0.58" d="M104.16 209.778C104.339 209.299 96.9752 205.155 87.3774 203.281C77.4356 201.339 68.7294 202.544 68.6932 203.076C68.661 203.577 76.3247 203.347 88.3898 205.795C98.386 207.824 104.007 210.189 104.16 209.778Z" fill="#9D3331"/>
<path opacity="0.58" d="M82.958 616.153C83.123 615.813 78.0133 612.244 71.1023 610.183C63.9417 608.048 57.4634 608.309 57.401 608.698C57.3406 609.062 62.9857 609.442 71.6658 612.101C78.8585 614.303 82.8171 616.443 82.958 616.153Z" fill="#9D3331"/>
<path opacity="0.58" d="M95.6611 535.054C95.7557 534.688 90.032 532.218 82.8473 531.588C75.405 530.933 69.1098 532.491 69.1259 532.884C69.14 533.254 74.7449 532.491 83.7831 533.353C91.2738 534.065 95.5806 535.366 95.6611 535.054Z" fill="#9D3331"/>
<path d="M56.8998 505.663C56.9823 504.581 58.9204 505.647 59.8844 503.365C60.78 501.244 59.816 498.637 59.991 492.524C60.1903 485.526 61.6011 483.676 60.8323 481.112C60.2084 479.035 57.6565 474.836 57.5559 474.5C57.5136 474.357 57.5177 474.223 57.5177 474.22C57.5197 474.132 57.5358 474.051 57.5619 473.981C57.5458 473.834 57.5398 473.685 57.5579 473.53C57.6062 473.138 57.7531 472.838 57.904 472.618C57.9121 472.608 57.9222 472.608 57.9302 472.6C58.7674 472.53 60.0172 472.113 60.8323 470.169C61.5668 468.418 61.4461 464.589 61.1764 457.001C60.9188 449.727 60.7719 446.054 59.9709 444.206C59.0693 442.127 57.8678 441.431 57.099 441.161C58.0973 439.955 59.4456 437.862 60.2205 434.368C60.794 431.79 60.6351 430.336 60.9168 423.992C61.3173 414.973 61.7943 414.369 61.434 412.123C61.1684 410.469 60.1561 406.111 55.0926 403.964C57.3607 401.134 60.0313 396.671 60.2386 390.448C60.2486 390.176 60.2467 390.092 60.2366 388.874C60.1319 376.055 60.0796 369.646 60.2044 367.344C60.4741 362.294 60.8826 360.686 60.2869 358.772C59.5483 356.397 57.9745 355.829 56.6985 355.746C59.2102 355.587 60.301 353.826 60.8323 352.409C62.7643 347.271 59.6046 340.739 59.983 326.479C60.2024 318.203 61.432 314.193 60.1299 310.363C59.0874 307.3 57.1574 306.511 55.7406 306.307C58.6869 304.955 59.7938 302.397 60.2728 300.446C61.6111 294.984 59.5503 288.062 59.9347 277.845C59.9649 277.03 59.9991 276.525 59.8945 275.83C59.2786 271.739 55.0322 268.991 54.6176 267.619C54.5713 267.462 54.4324 267 54.5049 266.777C54.5351 266.682 54.5955 266.662 54.6176 266.656C54.9859 266.552 58.2059 267.375 59.1095 266.361C60.1983 265.137 59.2786 259.708 59.2987 250.794C59.3209 240.344 60.6109 236.328 59.2827 233.537C57.9423 230.719 54.994 231.367 54.9658 229.771C54.9618 229.547 55.0121 229.177 55.1288 228.919C55.4246 228.271 56.0223 228.603 56.2015 228.684C56.2015 228.684 57.1292 229.098 59.2706 226.619C61.1825 224.405 59.9669 212.985 59.9951 198.757C60.0232 184.78 61.2348 177.707 59.3813 175.137C57.6686 172.76 54.3338 175.614 53.7804 172.855C53.7522 172.716 53.6798 172.337 53.718 171.874C53.9354 169.342 57.0226 170.508 58.5803 167.825C60.9913 163.67 60.4137 149.114 56.7831 141.556C54.6659 137.146 51.8705 135.874 51.1259 135.556C50.4497 135.267 49.065 134.699 47.3081 135.252C42.9731 136.619 40.387 143.545 39.5096 145.894C38.5979 148.333 38.0223 150.618 37.6782 152.165C37.5695 153.647 37.5534 155.165 37.6399 156.678C37.8854 160.915 38.9018 164.729 40.2804 167.732C40.387 167.965 40.3609 168.346 40.2341 168.515C39.4532 169.566 38.4107 170.232 35.9675 172.023C35.3295 172.49 35.0116 172.724 34.8627 172.925C33.0172 175.411 34.2005 182.626 33.8524 193.181C33.5968 200.952 32.4315 212.914 33.47 215.746C33.8503 216.782 34.3112 217.739 34.3112 217.739C34.3112 217.739 34.919 218.994 35.6053 219.983C37.5293 222.758 39.8014 224.189 42.0494 225.168C42.2285 225.246 42.1923 225.675 42.1882 225.9C42.15 228.291 37.3401 227.094 35.4181 232.611C34.9814 233.863 34.8405 236.536 34.5567 241.884C34.1804 248.972 34.3776 253.656 34.434 254.904C34.6654 259.904 34.8345 262.305 35.3738 263.768C36.5954 267.079 38.5959 268.586 40.4434 269.492C40.6446 269.591 40.6607 270.189 40.4997 270.404C39.1151 272.254 38.8012 275.575 37.9539 278.167C36.7403 281.879 38.4731 284.145 38.2598 293.993C38.1109 300.881 37.1469 305.213 38.4349 308.451C38.7891 309.341 39.1936 309.85 39.3868 310.087C41.2585 312.4 43.3756 310.725 43.8586 310.313C41.9769 312.166 39.264 315.659 38.5033 321.628C38.1028 324.778 38.618 325.694 39.0346 333.679C39.6303 345.081 38.8796 348.923 40.2482 352.202C41.2021 354.484 43.44 357.103 43.7117 357.081C43.9653 357.061 43.9955 357.737 43.8285 358.011C42.1903 360.71 39.737 361.481 38.779 365.764C39.2379 375.433 39.5619 383.983 39.8034 391.811C39.9483 392.692 40.0972 393.568 40.2582 394.437C40.7131 396.895 41.2423 399.292 41.8179 401.629C42.158 403.008 42.5847 404.411 43.2388 405.177C43.8043 405.84 44.4624 405.87 45.0903 405.749C45.6236 405.646 46.1529 405.445 46.6802 405.224C45.9517 405.562 44.72 406.359 43.5145 408.412C43.0094 409.275 42.464 410.203 42.0494 411.751C40.9787 415.758 42.2687 418.381 41.659 424.483C41.5986 425.091 41.4899 426.585 41.4416 429.59C41.4275 430.405 41.4356 431.218 41.5865 431.977C41.5865 431.977 41.7475 432.832 42.1057 433.613C42.6572 434.815 44.3457 437.005 46.7023 439.378C45.1185 439.599 43.0979 440.423 42.307 443.462C41.6589 445.96 42.3875 447.848 42.7699 453.946C43.3777 463.615 42.2023 469.346 43.4984 470.837C44.0297 471.449 46.4769 473.079 46.7245 473.277C46.8694 473.393 46.9036 473.709 46.8653 473.955C46.9177 474.212 46.8875 474.536 46.7245 474.593C46.4145 474.699 46.1268 474.895 45.8631 475.168C45.4445 475.603 44.6435 477.248 44.2873 478.709C43.428 482.217 44.0377 486.611 44.1042 493.903C44.1645 500.581 43.7218 504.392 44.5469 505.217C45.2734 505.945 47.3826 504.752 47.7086 505.058C47.8253 505.166 47.8575 505.346 47.8575 505.346C47.8978 505.565 47.8334 505.808 47.8112 505.891C47.618 506.618 45.4103 510.293 44.8287 512.002C44.3718 513.34 44.1303 515.766 45.0078 520.524C45.197 522.255 45.5008 525.286 45.7383 529.116C46.2656 537.65 46.0986 544.405 47.2175 545.087C47.4148 545.206 47.3624 544.964 48.745 544.578C49.5682 544.348 50.0955 544.292 50.5382 544.96C50.6851 545.18 50.7777 545.32 50.824 545.574C51.0554 546.862 49.6124 548.505 48.8537 550.65C48.0548 552.911 48.4593 554.473 48.6807 565.486C48.8014 571.476 48.7591 574.876 49.6285 575.687C50.2625 576.279 51.3392 575.453 51.5847 576.518C51.6471 576.786 51.627 577.053 51.621 577.122C51.5022 578.505 50.0452 577.921 49.4575 579.579C49.0147 580.829 49.6547 581.687 49.6185 586.536C49.6084 587.848 49.6084 588.596 49.8318 589.259C50.1518 590.211 50.7475 590.44 51.2567 590.497C51.3191 590.503 51.4298 591.024 51.3734 591.426C51.2486 592.328 50.345 591.835 49.8338 592.699C49.1979 593.769 49.693 596.034 49.7171 600.536C49.7433 605.415 49.1898 608.062 49.8036 608.881C50.3269 609.579 51.2668 608.382 51.5405 609.279C51.5888 609.438 51.7256 609.765 51.5867 610.062C51.0635 611.198 50.6529 612.411 50.4376 613.897C50.4356 613.969 50.4275 614.042 50.4134 614.112C50.4054 614.15 50.4014 614.188 50.3933 614.227C50.3712 614.41 50.349 614.595 50.3329 614.786C50.3229 614.917 50.2927 615.002 50.2544 615.06C50.1277 615.966 50.0633 616.898 50.0351 617.842C50.0089 618.303 49.7835 623.017 51.3151 625.585C51.5123 625.915 51.9691 626.659 52.6272 626.828C54.4546 627.295 55.8855 622.817 56.3725 621.293C57.0467 619.18 57.9624 616.312 57.4372 613.484C57.0528 611.411 56.0988 610.451 55.7104 610.117C56.3464 610.205 57.5378 610.157 58.2361 608.47C58.7211 607.299 58.6849 606.021 58.7775 603.553C59.0633 595.939 59.9448 593.898 59.2706 592.467C58.4696 590.762 56.5678 592.254 56.3544 590.839C56.3101 590.551 56.3584 590.285 56.4007 590.056C56.8857 587.459 59.0894 588.369 59.9387 585.861C60.2889 584.831 60.1541 583.979 60.0051 580.026C60.0051 580.026 59.8421 575.659 59.8441 569.504C59.8461 562.618 60.2426 561.773 59.7415 558.979C59.3088 556.562 58.85 556.304 58.0711 553.225C57.256 549.998 56.93 547.005 56.7811 545.041C57.2862 544.525 58.0892 543.539 58.7574 541.75C60.3473 537.493 59.3531 533.582 59.7415 522.448C59.9971 515.105 60.5807 512.481 59.6187 509.854C58.6326 507.141 56.8193 506.7 56.8998 505.663Z" fill="url(#paint21_linear_3316_579090)"/>
<defs>
<linearGradient id="paint0_linear_3316_579090" x1="1.885" y1="-6.63852" x2="44.0751" y2="43.7257" gradientUnits="userSpaceOnUse">
<stop stop-color="#EABA4E"/>
<stop offset="1" stop-color="#EABA4E" stop-opacity="0"/>
</linearGradient>
<linearGradient id="paint1_linear_3316_579090" x1="-64.8742" y1="1.49152" x2="70.2944" y2="62.1814" gradientUnits="userSpaceOnUse">
<stop stop-color="#EABA4E"/>
<stop offset="1" stop-color="#EABA4E" stop-opacity="0"/>
</linearGradient>
<linearGradient id="paint2_linear_3316_579090" x1="-33.8229" y1="-90.5091" x2="83.4203" y2="60.3392" gradientUnits="userSpaceOnUse">
<stop stop-color="#EABA4E"/>
<stop offset="1" stop-color="#EABA4E" stop-opacity="0"/>
</linearGradient>
<linearGradient id="paint3_linear_3316_579090" x1="-99.2548" y1="-22.5213" x2="57.3801" y2="79.1852" gradientUnits="userSpaceOnUse">
<stop stop-color="#EABA4E"/>
<stop offset="1" stop-color="#EABA4E" stop-opacity="0"/>
</linearGradient>
<linearGradient id="paint4_linear_3316_579090" x1="-46.3866" y1="-80.7444" x2="70.8569" y2="70.1039" gradientUnits="userSpaceOnUse">
<stop stop-color="#EABA4E"/>
<stop offset="1" stop-color="#EABA4E" stop-opacity="0"/>
</linearGradient>
<linearGradient id="paint5_linear_3316_579090" x1="44.6137" y1="708.049" x2="72.598" y2="640.094" gradientUnits="userSpaceOnUse">
<stop stop-color="#EABA4E"/>
<stop offset="1" stop-color="#EABA4E" stop-opacity="0"/>
</linearGradient>
<linearGradient id="paint6_linear_3316_579090" x1="-278.02" y1="433.671" x2="242.143" y2="361.932" gradientUnits="userSpaceOnUse">
<stop stop-color="#EABA4E"/>
<stop offset="1" stop-color="#EABA4E" stop-opacity="0"/>
</linearGradient>
<linearGradient id="paint7_linear_3316_579090" x1="198.431" y1="389.061" x2="62.1191" y2="386.862" gradientUnits="userSpaceOnUse">
<stop stop-color="#EABA4E"/>
<stop offset="1" stop-color="#EABA4E" stop-opacity="0"/>
</linearGradient>
<linearGradient id="paint8_linear_3316_579090" x1="39.0347" y1="584.683" x2="33.7468" y2="583.336" gradientUnits="userSpaceOnUse">
<stop stop-color="#EABA4E"/>
<stop offset="1" stop-color="#EABA4E" stop-opacity="0"/>
</linearGradient>
<linearGradient id="paint9_linear_3316_579090" x1="-322.483" y1="400.66" x2="160.112" y2="375.337" gradientUnits="userSpaceOnUse">
<stop stop-color="#EABA4E"/>
<stop offset="1" stop-color="#EABA4E" stop-opacity="0"/>
</linearGradient>
<linearGradient id="paint10_linear_3316_579090" x1="-2.1344" y1="207.15" x2="46.9251" y2="236.603" gradientUnits="userSpaceOnUse">
<stop stop-color="#EABA4E"/>
<stop offset="1" stop-color="#EABA4E" stop-opacity="0"/>
</linearGradient>
<linearGradient id="paint11_linear_3316_579090" x1="29.3062" y1="148.644" x2="74.5186" y2="183.714" gradientUnits="userSpaceOnUse">
<stop stop-color="#EABA4E"/>
<stop offset="1" stop-color="#EABA4E" stop-opacity="0"/>
</linearGradient>
<linearGradient id="paint12_linear_3316_579090" x1="-5.39261" y1="253.643" x2="45.9815" y2="278.836" gradientUnits="userSpaceOnUse">
<stop stop-color="#EABA4E"/>
<stop offset="1" stop-color="#EABA4E" stop-opacity="0"/>
</linearGradient>
<linearGradient id="paint13_linear_3316_579090" x1="25.5336" y1="285.158" x2="73.9055" y2="315.721" gradientUnits="userSpaceOnUse">
<stop stop-color="#EABA4E"/>
<stop offset="1" stop-color="#EABA4E" stop-opacity="0"/>
</linearGradient>
<linearGradient id="paint14_linear_3316_579090" x1="3.85373" y1="341.053" x2="54.0645" y2="368.49" gradientUnits="userSpaceOnUse">
<stop stop-color="#EABA4E"/>
<stop offset="1" stop-color="#EABA4E" stop-opacity="0"/>
</linearGradient>
<linearGradient id="paint15_linear_3316_579090" x1="36.1307" y1="390.949" x2="65.1027" y2="413.42" gradientUnits="userSpaceOnUse">
<stop stop-color="#EABA4E"/>
<stop offset="1" stop-color="#EABA4E" stop-opacity="0"/>
</linearGradient>
<linearGradient id="paint16_linear_3316_579090" x1="17.8274" y1="433.292" x2="41.693" y2="444.237" gradientUnits="userSpaceOnUse">
<stop stop-color="#EABA4E"/>
<stop offset="1" stop-color="#EABA4E" stop-opacity="0"/>
</linearGradient>
<linearGradient id="paint17_linear_3316_579090" x1="38.3563" y1="456.934" x2="73.2453" y2="483.997" gradientUnits="userSpaceOnUse">
<stop stop-color="#EABA4E"/>
<stop offset="1" stop-color="#EABA4E" stop-opacity="0"/>
</linearGradient>
<linearGradient id="paint18_linear_3316_579090" x1="22.0226" y1="500.63" x2="59.9593" y2="514.088" gradientUnits="userSpaceOnUse">
<stop stop-color="#EABA4E"/>
<stop offset="1" stop-color="#EABA4E" stop-opacity="0"/>
</linearGradient>
<linearGradient id="paint19_linear_3316_579090" x1="33.467" y1="529.437" x2="73.3936" y2="555.577" gradientUnits="userSpaceOnUse">
<stop stop-color="#EABA4E"/>
<stop offset="1" stop-color="#EABA4E" stop-opacity="0"/>
</linearGradient>
<linearGradient id="paint20_linear_3316_579090" x1="37.1211" y1="575.926" x2="65.454" y2="597.902" gradientUnits="userSpaceOnUse">
<stop stop-color="#EABA4E"/>
<stop offset="1" stop-color="#EABA4E" stop-opacity="0"/>
</linearGradient>
<linearGradient id="paint21_linear_3316_579090" x1="-121.866" y1="597.786" x2="118.037" y2="294.783" gradientUnits="userSpaceOnUse">
<stop stop-color="#EABA4E"/>
<stop offset="1" stop-color="#EABA4E" stop-opacity="0"/>
</linearGradient>
</defs>
</svg>
