<svg width="1271" height="410" viewBox="0 0 1271 410" fill="none" xmlns="http://www.w3.org/2000/svg">
<g clip-path="url(#clip0_3303_577205)">
<path d="M1153.51 232.665C1151.55 234.198 1142.18 247.16 1133.25 259.822C1132.82 260.438 1132.38 261.055 1131.95 261.671C1123.42 273.8 1115.66 285.096 1115.66 285.096C1115.66 285.096 1119.02 351.172 1113.84 364.367C1112.79 367.066 1110.16 368.532 1106.66 369.165C1099.93 370.365 1089.91 368.482 1081.5 366.25C1072.82 363.95 1065.82 361.301 1065.82 361.301C1065.82 361.301 1063.62 345.44 1063.2 325.165C1062.79 304.905 1056.57 263.054 1056.57 256.89C1056.57 250.708 1068.9 227.05 1068.9 227.05L1077.71 42.8512C1077.76 38.8693 1083.06 36.2036 1089.71 35.6371C1094.73 35.1873 1100.51 35.9704 1105.34 38.2529C1111.81 41.3017 1116.61 47.0996 1115.64 56.4462C1113.01 82.0035 1109.59 217.654 1111.77 220.32C1113.76 222.685 1127.3 215.088 1130.04 213.522C1130.35 213.355 1130.52 213.239 1130.52 213.239C1130.52 213.239 1131.57 213.872 1133.23 214.905C1139.97 219.187 1156.7 230.199 1153.51 232.665Z" fill="url(#paint0_linear_3303_577205)"/>
<path d="M1061.34 270.551C1061.34 270.551 1043.82 246.76 1031.49 239.429C1019.2 232.082 999.768 223.002 999.768 223.002C999.768 223.002 1054.97 172.687 1056.59 181.134C1057.09 183.7 1058.65 188.381 1060.67 193.913C1063 200.327 1065.92 207.907 1068.38 214.655C1070.77 221.169 1072.72 226.9 1073.32 230.099C1075.1 239.396 1061.34 270.551 1061.34 270.551Z" fill="url(#paint1_linear_3303_577205)"/>
<path d="M1040.07 190.58C1041.04 191.247 1029.24 198.094 1018.15 202.359C1016.93 202.626 1015.86 202.909 1014.65 203.176C1014.65 203.176 941.615 222.019 928.302 175.652C925.853 167.439 923.37 158.825 921.004 149.979C931.351 160.875 947.964 176.919 958.211 179.135C973.657 182.483 987.987 193.479 1004.78 194.612C1017.55 195.479 1037.26 188.681 1040.07 190.58Z" fill="#645F47"/>
<path d="M1063.17 158.609C1062.55 170.838 1056.94 190.397 1050.34 198.461C1045.64 204.225 1025.98 222.935 1021.93 223.468C1017.86 223.985 1001.32 223.985 995.102 223.752C993.869 223.718 992.053 223.268 989.903 222.569C981.256 219.786 967.509 213.055 967.509 213.055C967.526 213.055 967.559 213.055 967.576 213.039C976.307 211.973 984.355 209.707 991.77 206.624C993.203 206.041 994.619 205.408 996.002 204.758C1001.27 202.276 1006.17 199.41 1010.75 196.312C1011.75 195.645 1012.71 194.962 1013.66 194.279C1015.46 192.979 1017.21 191.647 1018.91 190.28C1020.91 188.698 1022.85 187.065 1024.69 185.416C1036.58 174.836 1045.42 163.64 1051.54 156.343C1052.15 155.61 1052.74 154.927 1053.29 154.277C1056.94 150.029 1059.42 147.663 1060.84 148.412C1060.84 148.412 1060.85 148.412 1060.85 148.429C1062.77 149.462 1063.44 153.361 1063.17 158.609Z" fill="#505423"/>
<path d="M944.815 166.239C944.815 166.239 993.369 206.125 1028.84 186.265C1064.32 166.406 1057.3 125.137 1039.86 110.943C987.737 68.4915 936.467 43.7839 924.52 42.8842C914.922 42.1512 909.123 70.3075 943.165 160.108L944.815 166.239Z" fill="url(#paint2_linear_3303_577205)"/>
<path d="M914.239 77.2219C914.239 77.2219 960.827 118.757 970.075 120.14C1018.11 127.254 981.139 209.274 974.357 206.658C967.576 204.026 896.493 155.527 914.239 77.2219Z" fill="url(#paint3_linear_3303_577205)"/>
<path d="M1061.34 151.595C1061.15 144.331 1039.41 61.0777 959.694 51.4146C959.694 51.4146 983.838 180.184 983.172 189.514L1061.34 151.595Z" fill="url(#paint4_linear_3303_577205)"/>
<path d="M1024.46 199.71C1024.46 199.71 1024.44 199.727 1024.43 199.727C1021.55 201.36 1018 202.942 1014.13 204.409C1014 204.475 1013.85 204.525 1013.71 204.575C1013.41 204.692 1013.11 204.792 1012.81 204.908C1012.61 204.975 1012.43 205.058 1012.23 205.125C998.335 210.173 981.589 213.755 978.956 213.239C977.573 212.972 973.224 213.239 967.576 213.039C956.395 212.689 940.066 210.49 931.101 198.644C931.101 198.644 931.101 198.644 931.085 198.627V198.611C929.085 195.978 927.469 192.863 926.336 189.198C925.236 185.599 924.236 182.033 923.337 178.585C922.703 176.169 922.104 173.803 921.57 171.504C916.705 150.845 915.289 135.084 915.289 135.084C915.289 135.084 915.855 135.317 916.921 135.75C920.087 137.05 927.585 140.132 937.333 144.247C949.33 149.312 964.726 155.943 979.573 162.657C983.938 164.656 988.27 166.639 992.453 168.622C998.468 171.437 1004.2 174.22 1009.3 176.835C1009.8 177.085 1010.3 177.335 1010.8 177.602C1016.38 180.484 1021.15 183.15 1024.69 185.416C1025.63 186.015 1026.48 186.598 1027.23 187.132C1029.51 188.781 1030.94 190.164 1031.31 191.197C1032.31 193.979 1029.38 196.928 1024.46 199.71Z" fill="url(#paint5_linear_3303_577205)"/>
<path d="M1020.98 75.0725C1020.98 75.0725 1005.17 195.262 1012.41 203.659C1019.65 212.072 1055.9 173.636 1057.45 169.055C1059 164.456 1083.11 133.201 1062.57 111.426C1042.02 89.6505 1020.98 75.0725 1020.98 75.0725Z" fill="url(#paint6_linear_3303_577205)"/>
<path opacity="0.57" d="M1164.09 232.232C1161.01 229.583 1136.33 236.13 1127.09 238.58C1117.84 241.045 1109.46 245.294 1108.14 239.429C1106.82 233.565 1127.44 217.587 1128.99 215.438C1130.53 213.272 1164.09 232.232 1164.09 232.232Z" fill="#544A2E"/>
<path opacity="0.57" d="M1095.79 97.4309C1095.79 97.4309 1087.86 107.561 1092.26 108.01C1096.66 108.46 1102.86 99.1969 1095.79 97.4309Z" fill="#534B29"/>
<path d="M1098.99 117.34C1098.99 117.34 1091.04 124.521 1094.96 125.071C1098.89 125.621 1100.88 120.073 1098.99 117.34Z" fill="#575130"/>
<path d="M1088.31 158.225C1088.31 158.225 1097.36 171.87 1096.81 165.273C1096.24 158.659 1091.39 155.593 1088.31 158.225Z" fill="#4F431E"/>
<path d="M1098.99 307.121C1098.99 307.121 1094.44 315.485 1090.95 311.97C1087.43 308.438 1092.94 300.074 1098.99 307.121Z" fill="#544B29"/>
<path d="M1115.67 250.292C1115.67 250.292 1109.34 251.608 1108.07 248.526C1106.81 245.444 1115.27 245.011 1115.67 250.292Z" fill="#60594B"/>
<path d="M1153.51 232.665C1151.45 234.264 1141.25 248.459 1131.97 261.671C1123.44 273.8 1115.67 285.096 1115.67 285.096C1115.67 285.096 1119.04 351.171 1113.86 364.367C1112.81 367.066 1110.17 368.532 1106.67 369.165C1108.12 342.258 1100.24 279.764 1099.71 213.272C1099.11 139.482 1105.76 61.5274 1105.36 38.2859C1111.82 41.3348 1116.62 47.1327 1115.66 56.4792C1113.02 82.0366 1109.61 217.687 1111.79 220.353C1113.77 222.718 1127.32 215.121 1130.05 213.555C1130.37 213.389 1130.54 213.272 1130.54 213.272C1130.54 213.272 1157.48 229.599 1153.51 232.665Z" fill="url(#paint7_linear_3303_577205)"/>
<path d="M1168.99 229.983C1168.74 231.115 1157.89 222.852 1149.71 214.238C1149 213.205 1148.33 212.339 1147.63 211.306C1147.63 211.306 1102.28 151.061 1140 121.006C1146.65 115.608 1153.66 110.01 1160.93 104.428C1154.81 118.157 1146.36 139.632 1148.23 149.962C1151.05 165.523 1146.36 182.966 1151.76 198.894C1155.85 211.056 1169.68 226.65 1168.99 229.983Z" fill="#645F47"/>
<path d="M1120.45 171.554C1120.45 171.554 1118.95 195.312 1121.12 201.143C1123.3 206.974 1129.62 222.252 1131.67 225.801C1133.72 229.349 1158.51 240.345 1165.64 242.478C1179.92 246.76 1215.2 240.229 1215.91 233.015C1216.61 225.801 1149.4 222.769 1120.45 171.554Z" fill="#505423"/>
<path d="M1181.69 104.912C1181.69 104.912 1171.64 143.181 1198.57 159.958C1225.49 176.735 1251.77 163.09 1255.3 149.379C1265.83 108.377 1270.95 74.4394 1262.95 69.5579C1255.6 65.0762 1235.68 61.5774 1185.39 102.512" fill="url(#paint8_linear_3303_577205)"/>
<path d="M1213.15 234.681C1219.8 231.732 1288.4 179.768 1266.8 102.446C1266.8 102.446 1222.03 145.114 1213.15 148.062" fill="url(#paint9_linear_3303_577205)"/>
<path d="M1225.56 70.3577C1225.56 70.3577 1206.15 129.07 1207.28 138.366C1208.42 147.646 1129.17 182.717 1128.99 175.453C1128.82 168.155 1146.41 83.936 1225.56 70.3577Z" fill="url(#paint10_linear_3303_577205)"/>
<path d="M1156.26 215.804C1152.81 214.072 1115.57 180.75 1137.32 162.54C1159.06 144.33 1216.36 125.071 1216.36 125.071C1216.36 125.071 1229.09 204.025 1219.95 215.204C1210.8 226.384 1194.04 234.831 1156.26 215.804Z" fill="url(#paint11_linear_3303_577205)"/>
<path d="M1172.49 93.4658C1172.49 93.4658 1173.27 214.672 1165.06 222.119C1156.85 229.566 1125.64 186.948 1124.65 182.2C1123.69 177.452 1103.64 143.448 1126.72 124.388C1149.81 105.328 1172.49 93.4658 1172.49 93.4658Z" fill="url(#paint12_linear_3303_577205)"/>
<path d="M1268.42 168.122C1268.42 168.122 1151.33 199.527 1146.33 209.423C1141.33 219.32 1190.7 238.096 1195.55 237.78C1200.38 237.446 1238.51 247.759 1250.76 220.453C1263 193.146 1268.42 168.122 1268.42 168.122Z" fill="url(#paint13_linear_3303_577205)"/>
<path d="M1079.1 270.218C1079.1 270.218 1081.93 279.315 1076.95 279.365C1071.97 279.431 1069.82 269.635 1079.1 270.218Z" fill="#47350C"/>
<path d="M1108.07 319.017C1108.07 319.017 1102.19 331.795 1098.99 327.83C1095.79 323.865 1104.49 314.602 1108.07 319.017Z" fill="#544B29"/>
<path d="M815.963 339.709C812.314 334.544 814.08 314.868 814.08 314.868C814.08 314.868 816.13 310.47 814.814 308.704C813.497 306.938 808.948 307.821 806.816 308.704C804.683 309.587 800.8 311.936 796.718 306.355C792.636 300.773 789.153 291.543 786.554 285.496C783.438 278.265 779.189 269.918 777.74 265.52C776.29 261.138 762.976 264.12 762.976 264.12C762.976 264.12 751.896 306.738 746.681 307.221C741.465 307.704 734.067 301.34 730.468 302.523C726.869 303.706 720.92 301.64 723.453 306.055C725.986 310.47 737.283 318.383 734.284 326.614C731.268 334.844 723.936 348.939 725.403 351.571C726.869 354.22 727.752 369.781 727.752 369.781C727.752 369.781 726.985 371.831 729.418 372.13C731.851 372.43 813.581 376.296 817.946 373.18C819.862 371.814 819.129 360.851 817.946 352.621C816.763 344.391 817.946 352.621 812.064 347.923C806.182 343.224 807.365 325.014 807.365 325.014" fill="#EED774"/>
<path d="M759.011 52.7309C747.214 60.2115 736.133 69.0582 725.669 78.4048C715.205 87.8014 705.558 98.0809 696.943 109.144C688.378 120.223 680.764 132.102 675.282 144.914C669.733 157.676 666.217 171.287 665.484 185.049C665.101 191.93 665.501 198.811 666.517 205.608C667.5 212.439 669.35 218.953 671.616 225.684L674.832 235.731L678.331 245.66C680.58 252.308 683.346 258.755 685.862 265.286C691.278 278.182 697.41 290.76 704.375 302.689C707.807 308.687 711.673 314.385 715.755 319.8C717.804 322.499 719.937 325.098 722.137 327.547C723.253 328.747 724.37 329.963 725.519 331.029C726.086 331.596 726.669 332.112 727.235 332.595C727.519 332.845 727.802 333.112 728.069 333.295C728.319 333.478 728.652 333.761 728.668 333.745C731.884 336.211 732.501 340.842 730.018 344.058C727.552 347.273 722.92 347.89 719.704 345.407C719.021 344.841 718.721 344.524 718.304 344.124C717.888 343.724 717.555 343.358 717.205 342.991C716.505 342.258 715.822 341.509 715.205 340.759C713.905 339.276 712.772 337.777 711.589 336.277C709.307 333.262 707.207 330.213 705.224 327.097C701.309 320.866 697.776 314.485 694.544 308.021C688.029 295.109 682.763 281.747 677.864 268.352C675.598 261.588 673.182 254.874 671.183 248.043L668.05 237.846L665.201 227.567C663.268 220.819 661.369 213.639 660.552 206.441C659.669 199.227 659.452 191.93 660.052 184.699C661.202 170.238 665.284 156.16 671.366 143.164C677.448 130.169 685.229 118.074 694.144 106.961C703.025 95.7984 713.072 85.6688 723.603 76.139C734.217 66.6591 745.381 57.9123 757.345 50.0818C758.078 49.6153 759.044 49.8153 759.511 50.5317C759.977 51.2647 759.777 52.231 759.061 52.6975C759.061 52.6975 759.061 52.6975 759.044 52.6975L759.011 52.7309Z" fill="#DE714E"/>
<path d="M753.596 61.8775C744.015 70.0412 735.167 79.0379 726.919 88.5011C718.721 97.9976 711.106 108.027 704.674 118.723C701.459 124.071 698.493 129.569 695.91 135.217C693.361 140.882 691.194 146.696 689.512 152.628C687.795 158.542 686.696 164.607 686.246 170.688L686.062 172.97L686.029 175.253C686.029 176.785 685.946 178.268 686.029 179.851L686.329 189.231C687.495 214.172 690.911 239.063 699.092 262.271C703.158 273.867 708.39 285.013 714.705 295.475C721.02 305.955 728.385 315.785 736.5 324.981L736.517 324.998C738.783 327.564 738.549 331.496 735.967 333.761C733.401 336.027 729.468 335.794 727.202 333.212C727.152 333.162 727.086 333.078 727.036 333.028C718.871 322.999 711.473 312.286 705.241 300.907C698.993 289.544 693.944 277.532 690.161 265.186C682.563 240.446 680.13 214.722 679.964 189.364L680.031 179.851C680.014 178.285 680.164 176.619 680.23 175.003L680.364 172.554L680.664 170.138C681.397 163.674 682.83 157.326 684.863 151.212C686.862 145.097 689.362 139.166 692.211 133.451C695.11 127.753 698.359 122.255 701.842 116.941C708.823 106.311 716.921 96.4982 725.553 87.2682C734.234 78.0716 743.465 69.4081 753.396 61.6276C753.462 61.5776 753.579 61.5776 753.629 61.6609C753.679 61.7276 753.662 61.8275 753.596 61.8775Z" fill="#DE714E"/>
<path d="M677.431 282.914C680.247 288.911 683.513 294.843 686.945 300.574C690.411 306.305 694.044 311.92 698.076 317.184C702.108 322.433 706.324 327.547 711.023 331.996C715.722 336.427 720.77 340.376 726.169 343.208L726.269 343.258C728.835 344.608 729.818 347.773 728.468 350.339C727.119 352.905 723.953 353.888 721.387 352.538C721.27 352.488 721.154 352.405 721.054 352.355C714.672 348.39 709.323 343.475 704.541 338.227C699.759 332.979 695.71 327.247 691.911 321.45C688.112 315.635 684.796 309.571 681.68 303.439C678.597 297.275 675.748 291.077 673.265 284.596C672.816 283.43 673.399 282.131 674.565 281.697C675.665 281.281 676.898 281.781 677.398 282.83L677.431 282.914Z" fill="#DE714E"/>
<path d="M739.732 328.68C739.749 331.162 739.582 333.295 739.282 335.611C738.966 337.876 738.516 340.159 737.733 342.475C736.933 344.757 735.85 347.156 733.784 349.222C733.301 349.722 732.634 350.255 732.134 350.588C731.601 350.955 731.018 351.322 730.301 351.655C729.601 351.971 728.752 352.304 727.585 352.354C727.002 352.371 726.352 352.305 725.719 352.071C725.103 351.855 724.519 351.488 724.219 351.238L724.086 351.122C724.053 351.088 724.119 351.138 724.153 351.155L724.236 351.205C724.303 351.255 724.386 351.288 724.469 351.322C724.503 351.355 725.069 351.555 725.502 351.538C725.702 351.538 726.136 351.505 726.419 351.405C726.586 351.355 726.736 351.288 726.869 351.205C727.002 351.138 727.052 351.088 727.152 351.022C727.319 350.905 727.485 350.755 727.619 350.588C727.785 350.372 727.752 350.422 727.819 350.322C727.885 350.222 728.002 349.972 728.002 349.972C728.118 349.622 728.002 349.922 727.969 350.089C727.869 350.505 727.769 351.022 727.669 351.521C727.452 352.571 727.285 353.521 727.152 354.47C726.885 356.386 726.785 358.386 726.785 360.418C726.785 362.434 726.885 364.483 727.035 366.549L727.285 369.665C727.369 370.748 727.485 371.697 727.485 373.047C727.485 374.013 726.702 374.813 725.736 374.813C724.819 374.813 724.086 374.13 723.986 373.247L723.969 373.064C723.886 372.314 723.686 371.198 723.503 370.198L722.953 367.066C722.603 364.967 722.287 362.834 722.087 360.668C721.887 358.502 721.787 356.303 721.87 354.037C721.937 352.888 722.037 351.771 722.137 350.738C722.187 350.205 722.237 349.672 722.337 349.056C722.403 348.706 722.37 348.489 722.686 347.656C722.703 347.59 722.853 347.29 722.953 347.14C723.036 347.006 723.003 347.023 723.203 346.79C723.37 346.607 723.553 346.44 723.736 346.29C724.003 346.023 725.053 345.64 725.586 345.707C726.086 345.707 726.702 345.923 726.802 345.973C726.919 346.023 727.019 346.073 727.119 346.123L727.285 346.223L727.502 346.373L727.685 346.49C727.885 346.557 727.319 346.273 727.252 346.323C727.135 346.307 727.285 346.273 727.519 346.123C727.969 345.84 728.718 345.224 729.035 344.791C729.835 343.774 730.435 342.192 730.818 340.475C731.551 337.043 731.551 332.895 731.134 329.313L731.118 329.213C730.851 326.847 732.551 324.698 734.917 324.431C737.283 324.165 739.432 325.864 739.699 328.23C739.732 328.38 739.732 328.53 739.732 328.68Z" fill="#DE714E"/>
<path d="M719.071 113.092C717.438 130.969 714.989 148.446 713.156 165.823C712.206 174.486 711.373 183.133 710.973 191.647C710.823 195.895 710.64 200.127 710.773 204.242C710.74 206.358 710.99 208.291 711.173 210.223C711.273 211.206 711.323 212.173 711.456 213.156L712.023 216.188C712.656 220.203 713.756 224.335 714.722 228.433C715.972 232.532 716.955 236.68 718.371 240.779C720.904 249.042 723.853 257.273 726.802 265.52C732.784 282.014 739.132 298.541 745.164 315.352V315.368C745.331 315.818 745.098 316.318 744.631 316.484C744.265 316.618 743.865 316.484 743.631 316.185C732.867 301.773 723.753 286.346 715.622 270.318C711.623 262.271 707.84 254.074 704.608 245.56C702.925 241.345 701.492 236.964 700.076 232.615C698.859 228.133 697.46 223.735 696.676 218.987L695.993 215.488C695.827 214.289 695.71 213.039 695.577 211.806L695.21 208.107C695.06 206.858 695.16 205.725 695.127 204.525C695.027 199.777 695.293 195.146 695.693 190.547C696.46 181.367 698.109 172.421 700.059 163.607C702.025 154.794 704.491 146.13 707.34 137.617C710.223 129.103 713.422 120.706 717.421 112.592C717.638 112.159 718.154 111.976 718.588 112.193C718.921 112.376 719.104 112.726 719.071 113.092Z" fill="#EED774"/>
<path d="M772.157 42.1514C784.521 50.3151 796.235 59.3284 807.415 68.9916C818.546 78.7047 829.243 88.9676 838.974 100.147C848.722 111.293 857.519 123.355 864.818 136.35C872.066 149.346 877.714 163.457 880.297 178.335C882.946 193.163 882.28 208.774 878.198 223.368L875.282 234.098L873.815 239.463L872.199 244.794L868.95 255.44L865.351 266.003C860.352 280.014 855.003 293.976 848.288 307.471L845.756 312.536L843.023 317.517L841.673 320.016L840.224 322.482C839.241 324.115 838.308 325.781 837.258 327.397L834.092 332.229C832.959 333.811 831.842 335.411 830.659 336.977C829.426 338.526 828.26 340.109 826.91 341.642C826.26 342.408 825.577 343.191 824.844 343.958C824.478 344.341 824.144 344.724 823.711 345.124C823.261 345.54 822.978 345.857 822.262 346.457C819.046 348.922 814.413 348.323 811.947 345.107C809.481 341.892 810.081 337.26 813.297 334.794C813.314 334.811 813.68 334.511 813.93 334.311C814.197 334.128 814.497 333.828 814.797 333.578C815.38 333.078 815.98 332.529 816.58 331.929C817.779 330.812 818.929 329.513 820.095 328.28C821.245 326.997 822.345 325.631 823.478 324.315L826.71 320.133C830.893 314.418 834.908 308.471 838.424 302.173C845.606 289.678 851.904 276.499 857.336 262.971L861.352 252.774L865.051 242.445L866.9 237.28L868.6 232.049L871.982 221.586C876.281 207.924 877.331 193.363 875.248 179.118C873.216 164.856 868.2 151.028 861.485 138.116C854.737 125.188 846.222 113.175 836.825 101.946C827.41 90.717 817.079 80.2041 806.066 70.491C795.035 60.7946 783.488 51.5979 771.224 43.5675L771.191 43.5509C770.791 43.2843 770.691 42.7512 770.941 42.3513C771.191 41.9515 771.757 41.8848 772.157 42.1514Z" fill="#DE714E"/>
<path d="M788.57 62.677C798.501 70.4742 807.732 79.1377 816.413 88.3176C825.044 97.5476 833.142 107.361 840.124 117.99C843.623 123.305 846.872 128.786 849.755 134.501C852.604 140.215 855.104 146.146 857.103 152.261C859.136 158.375 860.569 164.723 861.302 171.187L861.602 173.603L861.735 176.052C861.802 177.668 861.952 179.334 861.935 180.9L862.002 190.414C861.835 215.771 859.402 241.495 851.804 266.236C848.022 278.581 842.973 290.594 836.725 301.956C830.493 313.335 823.095 324.048 814.93 334.078C812.764 336.743 808.848 337.143 806.199 334.977C803.55 332.812 803.133 328.896 805.299 326.247C805.349 326.197 805.399 326.131 805.449 326.081L805.483 326.047C813.597 316.851 820.979 307.021 827.277 296.541C833.592 286.062 838.824 274.933 842.89 263.337C851.071 240.112 854.487 215.238 855.653 190.297L855.953 180.917C856.037 179.334 855.953 177.852 855.953 176.319L855.92 174.036L855.737 171.754C855.287 165.673 854.187 159.608 852.471 153.694C850.788 147.763 848.622 141.948 846.072 136.283C843.49 130.635 840.524 125.137 837.308 119.789C830.876 109.077 823.261 99.0637 815.064 89.5672C806.816 80.104 797.968 71.1073 788.387 62.9436C788.32 62.8936 788.304 62.777 788.354 62.7103C788.404 62.6437 788.504 62.627 788.57 62.677Z" fill="#DE714E"/>
<path d="M868.7 285.629C866.334 292.26 863.635 298.641 860.702 304.972C857.736 311.286 854.57 317.534 850.988 323.582C847.372 329.613 843.523 335.561 839.008 341.142C834.475 346.69 829.427 351.988 823.411 356.52C821.095 358.269 817.813 357.803 816.063 355.487C814.314 353.171 814.78 349.889 817.096 348.139C817.196 348.073 817.296 347.99 817.396 347.94L817.513 347.873C822.795 344.457 827.677 340.092 832.209 335.294C836.725 330.463 840.807 325.098 844.673 319.567C848.539 314.035 852.038 308.204 855.37 302.256C858.669 296.325 861.802 290.194 864.518 284.013L864.535 283.963C865.034 282.83 866.367 282.314 867.5 282.813C868.567 283.296 869.083 284.529 868.7 285.629Z" fill="#DE714E"/>
<path d="M786.021 74.6395C792.502 83.4863 798.401 92.6829 804.1 102.013C809.798 111.343 815.18 120.873 820.212 130.619C825.261 140.349 829.976 150.295 834.225 160.525C838.408 170.804 842.223 181.267 844.673 192.663C845.256 195.529 845.739 198.461 846.039 201.526C846.189 203.059 846.272 204.642 846.306 206.258C846.289 207.074 846.306 207.941 846.256 208.707L846.089 210.99C845.556 217.037 844.473 222.702 843.023 228.217C840.191 239.229 836.275 249.642 831.943 259.805C827.577 269.951 822.628 279.764 817.33 289.378C811.964 298.941 806.332 308.354 799.834 317.267C799.551 317.651 799.001 317.734 798.618 317.451C798.301 317.217 798.184 316.818 798.301 316.484V316.468C801.7 306.055 805.399 295.842 808.948 285.612C812.564 275.416 816.013 265.203 819.346 255.057C822.678 244.911 825.711 234.714 828.027 224.618C829.11 219.57 830.11 214.555 830.426 209.773L830.543 207.991C830.593 207.408 830.576 206.908 830.593 206.358C830.576 205.258 830.526 204.125 830.426 202.959C830.226 200.627 829.843 198.178 829.377 195.729C828.41 190.797 827.144 185.766 825.611 180.751C824.111 175.736 822.478 170.688 820.695 165.69C817.196 155.643 813.264 145.647 809.282 135.634C801.25 115.641 792.736 95.6985 784.488 75.5059C784.304 75.056 784.521 74.5562 784.954 74.3729C785.354 74.1897 785.787 74.323 786.021 74.6395Z" fill="#EED774"/>
<path d="M774.04 117.407L774.624 209.473L775.074 255.49L775.407 278.465L775.64 289.927L775.79 295.625L776.023 301.19L776.04 301.423C776.223 305.755 772.841 309.42 768.509 309.587C764.176 309.77 760.511 306.388 760.344 302.056C760.344 301.906 760.344 301.74 760.344 301.59L760.461 295.642L760.661 289.844L761.11 278.298L762.16 255.257L764.46 209.24L769.375 117.274C769.442 115.974 770.558 114.975 771.858 115.041C773.074 115.125 774.04 116.157 774.04 117.407Z" fill="#EED774"/>
<path d="M788.47 132.235L771.691 171.554" stroke="#EED774" stroke-width="3.1067" stroke-miterlimit="10" stroke-linecap="round"/>
<path d="M795.185 157.292C795.185 157.292 775.207 155.676 774.624 171.571" stroke="#EED774" stroke-width="3.1067" stroke-miterlimit="10" stroke-linecap="round"/>
<path d="M744.381 145.897C744.381 145.897 745.997 160.891 749.963 164.407C753.929 167.922 768.109 182.9 768.109 182.9" stroke="#EED774" stroke-width="3.1067" stroke-miterlimit="10" stroke-linecap="round"/>
<path d="M729.768 164.39C729.768 164.39 742.015 164.373 745.981 164.39" stroke="#EED774" stroke-width="3.1067" stroke-miterlimit="10" stroke-linecap="round"/>
<path d="M737.883 186.082C740.266 186.865 747.747 211.973 753.479 217.254C759.211 222.536 764.926 225.368 764.926 225.368" stroke="#EED774" stroke-width="3.1067" stroke-miterlimit="10" stroke-linecap="round"/>
<path d="M735.367 214.322L751.413 218.137" stroke="#EED774" stroke-width="3.1067" stroke-miterlimit="10" stroke-linecap="round"/>
<path d="M740.266 235.747C740.266 235.747 761.86 256.889 766.692 270.551" stroke="#EED774" stroke-width="3.1067" stroke-miterlimit="10" stroke-linecap="round"/>
<path d="M795.185 242.361C795.185 242.361 777.273 260.421 774.624 270.551" stroke="#EED774" stroke-width="3.1067" stroke-miterlimit="10" stroke-linecap="round"/>
<path d="M792.253 189.497C792.253 189.497 787.854 226.5 774.624 231.782" stroke="#EED774" stroke-width="3.1067" stroke-miterlimit="10" stroke-linecap="round"/>
<path d="M806.582 213.272L782.422 223.901" stroke="#EED774" stroke-width="3.1067" stroke-miterlimit="10" stroke-linecap="round"/>
<path d="M751.946 123.572C756.124 123.572 759.511 120.185 759.511 116.008C759.511 111.83 756.124 108.444 751.946 108.444C747.768 108.444 744.381 111.83 744.381 116.008C744.381 120.185 747.768 123.572 751.946 123.572Z" fill="#E6BEBE" stroke="#513E17" stroke-width="0.5178" stroke-miterlimit="10"/>
<path d="M791.003 142.548C795.181 142.548 798.568 139.161 798.568 134.984C798.568 130.807 795.181 127.42 791.003 127.42C786.825 127.42 783.438 130.807 783.438 134.984C783.438 139.161 786.825 142.548 791.003 142.548Z" fill="#E6BEBE" stroke="#513E17" stroke-width="0.5178" stroke-miterlimit="10"/>
<path d="M802.067 178.018C806.245 178.018 809.631 174.632 809.631 170.454C809.631 166.277 806.245 162.89 802.067 162.89C797.889 162.89 794.502 166.277 794.502 170.454C794.502 174.632 797.889 178.018 802.067 178.018Z" fill="#E6BEBE" stroke="#513E17" stroke-width="0.5178" stroke-miterlimit="10"/>
<path d="M721.47 182.9C725.648 182.9 729.035 179.514 729.035 175.336C729.035 171.159 725.648 167.772 721.47 167.772C717.292 167.772 713.906 171.159 713.906 175.336C713.906 179.514 717.292 182.9 721.47 182.9Z" fill="#E6BEBE" stroke="#513E17" stroke-width="0.5178" stroke-miterlimit="10"/>
<path d="M776.49 111.16C780.668 111.16 784.055 107.773 784.055 103.596C784.055 99.4182 780.668 96.0317 776.49 96.0317C772.312 96.0317 768.925 99.4182 768.925 103.596C768.925 107.773 772.312 111.16 776.49 111.16Z" fill="#E6BEBE" stroke="#513E17" stroke-width="0.5178" stroke-miterlimit="10"/>
<path d="M792.586 129.553C796.764 129.553 800.151 126.166 800.151 121.989C800.151 117.812 796.764 114.425 792.586 114.425C788.408 114.425 785.021 117.812 785.021 121.989C785.021 126.166 788.408 129.553 792.586 129.553Z" fill="#E6BEBE" stroke="#513E17" stroke-width="0.5178" stroke-miterlimit="10"/>
<path d="M809.632 195.995C813.81 195.995 817.197 192.609 817.197 188.431C817.197 184.254 813.81 180.867 809.632 180.867C805.454 180.867 802.067 184.254 802.067 188.431C802.067 192.609 805.454 195.995 809.632 195.995Z" fill="#E6BEBE" stroke="#513E17" stroke-width="0.5178" stroke-miterlimit="10"/>
<path d="M729.768 150.112C733.946 150.112 737.333 146.725 737.333 142.548C737.333 138.37 733.946 134.984 729.768 134.984C725.59 134.984 722.204 138.37 722.204 142.548C722.204 146.725 725.59 150.112 729.768 150.112Z" fill="#E6BEBE" stroke="#513E17" stroke-width="0.5178" stroke-miterlimit="10"/>
<path d="M737.883 134.984C742.061 134.984 745.448 131.598 745.448 127.42C745.448 123.243 742.061 119.856 737.883 119.856C733.705 119.856 730.318 123.243 730.318 127.42C730.318 131.598 733.705 134.984 737.883 134.984Z" fill="#E6BEBE" stroke="#513E17" stroke-width="0.5178" stroke-miterlimit="10"/>
<path d="M759.511 132.468C763.689 132.468 767.075 129.082 767.075 124.904C767.075 120.727 763.689 117.341 759.511 117.341C755.333 117.341 751.946 120.727 751.946 124.904C751.946 129.082 755.333 132.468 759.511 132.468Z" fill="#E6BEBE" stroke="#513E17" stroke-width="0.5178" stroke-miterlimit="10"/>
<path d="M765.426 107.194C769.604 107.194 772.991 103.808 772.991 99.6303C772.991 95.4529 769.604 92.0664 765.426 92.0664C761.248 92.0664 757.861 95.4529 757.861 99.6303C757.861 103.808 761.248 107.194 765.426 107.194Z" fill="#E6BEBE" stroke="#513E17" stroke-width="0.5178" stroke-miterlimit="10"/>
<path d="M768.925 120.423C773.103 120.423 776.49 117.036 776.49 112.859C776.49 108.681 773.103 105.295 768.925 105.295C764.747 105.295 761.36 108.681 761.36 112.859C761.36 117.036 764.747 120.423 768.925 120.423Z" fill="#E6BEBE" stroke="#513E17" stroke-width="0.5178" stroke-miterlimit="10"/>
<path d="M782.422 121.922C786.6 121.922 789.986 118.536 789.986 114.358C789.986 110.181 786.6 106.794 782.422 106.794C778.244 106.794 774.857 110.181 774.857 114.358C774.857 118.536 778.244 121.922 782.422 121.922Z" fill="#E6BEBE" stroke="#513E17" stroke-width="0.5178" stroke-miterlimit="10"/>
<path d="M757.744 146.496C761.922 146.496 765.309 143.11 765.309 138.933C765.309 134.755 761.922 131.369 757.744 131.369C753.567 131.369 750.18 134.755 750.18 138.933C750.18 143.11 753.567 146.496 757.744 146.496Z" fill="#E6BEBE" stroke="#513E17" stroke-width="0.5178" stroke-miterlimit="10"/>
<path d="M727.052 168.505C731.23 168.505 734.617 165.119 734.617 160.941C734.617 156.764 731.23 153.377 727.052 153.377C722.874 153.377 719.487 156.764 719.487 160.941C719.487 165.119 722.874 168.505 727.052 168.505Z" fill="#E6BEBE" stroke="#513E17" stroke-width="0.5178" stroke-miterlimit="10"/>
<path d="M731.318 179.535C735.496 179.535 738.882 176.148 738.882 171.971C738.882 167.793 735.496 164.407 731.318 164.407C727.14 164.407 723.753 167.793 723.753 171.971C723.753 176.148 727.14 179.535 731.318 179.535Z" fill="#E6BEBE" stroke="#513E17" stroke-width="0.5178" stroke-miterlimit="10"/>
<path d="M751.413 195.478C755.591 195.478 758.978 192.092 758.978 187.914C758.978 183.737 755.591 180.351 751.413 180.351C747.235 180.351 743.848 183.737 743.848 187.914C743.848 192.092 747.235 195.478 751.413 195.478Z" fill="#E6BEBE" stroke="#513E17" stroke-width="0.5178" stroke-miterlimit="10"/>
<path d="M743.848 183.633C748.026 183.633 751.413 180.246 751.413 176.069C751.413 171.892 748.026 168.505 743.848 168.505C739.67 168.505 736.283 171.892 736.283 176.069C736.283 180.246 739.67 183.633 743.848 183.633Z" fill="#E6BEBE" stroke="#513E17" stroke-width="0.5178" stroke-miterlimit="10"/>
<path d="M789.986 181.934C794.164 181.934 797.551 178.547 797.551 174.37C797.551 170.192 794.164 166.806 789.986 166.806C785.808 166.806 782.422 170.192 782.422 174.37C782.422 178.547 785.808 181.934 789.986 181.934Z" fill="#E6BEBE" stroke="#513E17" stroke-width="0.5178" stroke-miterlimit="10"/>
<path d="M798.568 165.24C802.746 165.24 806.132 161.853 806.132 157.676C806.132 153.498 802.746 150.112 798.568 150.112C794.39 150.112 791.003 153.498 791.003 157.676C791.003 161.853 794.39 165.24 798.568 165.24Z" fill="#E6BEBE" stroke="#513E17" stroke-width="0.5178" stroke-miterlimit="10"/>
<path d="M800.151 147.396C804.329 147.396 807.716 144.01 807.716 139.832C807.716 135.655 804.329 132.269 800.151 132.269C795.973 132.269 792.586 135.655 792.586 139.832C792.586 144.01 795.973 147.396 800.151 147.396Z" fill="#E6BEBE" stroke="#513E17" stroke-width="0.5178" stroke-miterlimit="10"/>
<path d="M809.632 206.874C813.81 206.874 817.197 203.488 817.197 199.31C817.197 195.133 813.81 191.747 809.632 191.747C805.454 191.747 802.067 195.133 802.067 199.31C802.067 203.488 805.454 206.874 809.632 206.874Z" fill="#E6BEBE" stroke="#513E17" stroke-width="0.5178" stroke-miterlimit="10"/>
<path d="M807.715 220.053C811.893 220.053 815.28 216.666 815.28 212.489C815.28 208.312 811.893 204.925 807.715 204.925C803.537 204.925 800.15 208.312 800.15 212.489C800.15 216.666 803.537 220.053 807.715 220.053Z" fill="#E6BEBE" stroke="#513E17" stroke-width="0.5178" stroke-miterlimit="10"/>
<path d="M731.318 216.937C735.496 216.937 738.882 213.551 738.882 209.373C738.882 205.196 735.496 201.81 731.318 201.81C727.14 201.81 723.753 205.196 723.753 209.373C723.753 213.551 727.14 216.937 731.318 216.937Z" fill="#E6BEBE" stroke="#513E17" stroke-width="0.5178" stroke-miterlimit="10"/>
<path d="M742.698 235.164C746.876 235.164 750.263 231.777 750.263 227.6C750.263 223.423 746.876 220.036 742.698 220.036C738.52 220.036 735.133 223.423 735.133 227.6C735.133 231.777 738.52 235.164 742.698 235.164Z" fill="#E6BEBE" stroke="#513E17" stroke-width="0.5178" stroke-miterlimit="10"/>
<path d="M735.134 252.208C739.312 252.208 742.699 248.821 742.699 244.644C742.699 240.467 739.312 237.08 735.134 237.08C730.956 237.08 727.569 240.467 727.569 244.644C727.569 248.821 730.956 252.208 735.134 252.208Z" fill="#E6BEBE" stroke="#513E17" stroke-width="0.5178" stroke-miterlimit="10"/>
<path d="M731.318 240.495C735.496 240.495 738.882 237.109 738.882 232.932C738.882 228.754 735.496 225.368 731.318 225.368C727.14 225.368 723.753 228.754 723.753 232.932C723.753 237.109 727.14 240.495 731.318 240.495Z" fill="#E6BEBE" stroke="#513E17" stroke-width="0.5178" stroke-miterlimit="10"/>
<path d="M741.148 259.772C745.326 259.772 748.713 256.385 748.713 252.208C748.713 248.031 745.326 244.644 741.148 244.644C736.971 244.644 733.584 248.031 733.584 252.208C733.584 256.385 736.971 259.772 741.148 259.772Z" fill="#E6BEBE" stroke="#513E17" stroke-width="0.5178" stroke-miterlimit="10"/>
<path d="M730.318 198.028C734.496 198.028 737.883 194.641 737.883 190.464C737.883 186.286 734.496 182.9 730.318 182.9C726.14 182.9 722.753 186.286 722.753 190.464C722.753 194.641 726.14 198.028 730.318 198.028Z" fill="#E6BEBE" stroke="#513E17" stroke-width="0.5178" stroke-miterlimit="10"/>
<path d="M736.283 189.497C740.461 189.497 743.848 186.111 743.848 181.934C743.848 177.756 740.461 174.37 736.283 174.37C732.105 174.37 728.718 177.756 728.718 181.934C728.718 186.111 732.105 189.497 736.283 189.497Z" fill="#E6BEBE" stroke="#513E17" stroke-width="0.5178" stroke-miterlimit="10"/>
<path d="M722.753 208.59C726.931 208.59 730.318 205.204 730.318 201.027C730.318 196.849 726.931 193.463 722.753 193.463C718.575 193.463 715.188 196.849 715.188 201.027C715.188 205.204 718.575 208.59 722.753 208.59Z" fill="#E6BEBE" stroke="#513E17" stroke-width="0.5178" stroke-miterlimit="10"/>
<path d="M793.436 242.728C797.613 242.728 801 239.341 801 235.164C801 230.987 797.613 227.6 793.436 227.6C789.258 227.6 785.871 230.987 785.871 235.164C785.871 239.341 789.258 242.728 793.436 242.728Z" fill="#E6BEBE" stroke="#513E17" stroke-width="0.5178" stroke-miterlimit="10"/>
<path d="M802.75 262.771C806.928 262.771 810.315 259.384 810.315 255.207C810.315 251.03 806.928 247.643 802.75 247.643C798.572 247.643 795.185 251.03 795.185 255.207C795.185 259.384 798.572 262.771 802.75 262.771Z" fill="#E6BEBE" stroke="#513E17" stroke-width="0.5178" stroke-miterlimit="10"/>
<path d="M800.151 281.564C804.329 281.564 807.716 278.177 807.716 274C807.716 269.823 804.329 266.436 800.151 266.436C795.973 266.436 792.586 269.823 792.586 274C792.586 278.177 795.973 281.564 800.151 281.564Z" fill="#E6BEBE" stroke="#513E17" stroke-width="0.5178" stroke-miterlimit="10"/>
<path d="M796.035 272.617C800.213 272.617 803.6 269.231 803.6 265.053C803.6 260.876 800.213 257.489 796.035 257.489C791.857 257.489 788.47 260.876 788.47 265.053C788.47 269.231 791.857 272.617 796.035 272.617Z" fill="#E6BEBE" stroke="#513E17" stroke-width="0.5178" stroke-miterlimit="10"/>
<path d="M804.3 243.344C808.478 243.344 811.864 239.958 811.864 235.78C811.864 231.603 808.478 228.216 804.3 228.216C800.122 228.216 796.735 231.603 796.735 235.78C796.735 239.958 800.122 243.344 804.3 243.344Z" fill="#E6BEBE" stroke="#513E17" stroke-width="0.5178" stroke-miterlimit="10"/>
<path d="M745.998 150.112C750.176 150.112 753.562 146.725 753.562 142.548C753.562 138.37 750.176 134.984 745.998 134.984C741.82 134.984 738.433 138.37 738.433 142.548C738.433 146.725 741.82 150.112 745.998 150.112Z" fill="#E6BEBE" stroke="#513E17" stroke-width="0.5178" stroke-miterlimit="10"/>
<path d="M794.502 197.061C798.68 197.061 802.067 193.675 802.067 189.497C802.067 185.32 798.68 181.934 794.502 181.934C790.324 181.934 786.937 185.32 786.937 189.497C786.937 193.675 790.324 197.061 794.502 197.061Z" fill="#E6BEBE" stroke="#513E17" stroke-width="0.5178" stroke-miterlimit="10"/>
<path d="M812.397 330.462C811.898 334.061 811.798 338.209 812.447 341.675C812.781 343.408 813.347 345.007 814.114 346.04C814.33 346.307 814.447 346.49 814.763 346.756C815.063 347.04 815.363 347.24 815.597 347.406C815.83 347.573 816.03 347.639 815.93 347.639C815.897 347.606 815.363 347.806 815.43 347.839C815.463 347.823 815.48 347.806 815.83 347.573C815.913 347.523 815.996 347.456 816.246 347.339C816.346 347.29 816.463 347.24 816.58 347.206C816.813 347.123 817.08 347.073 817.329 347.04C817.696 346.94 818.779 347.14 819.229 347.473C819.429 347.606 819.629 347.756 819.796 347.939C819.879 348.023 819.962 348.123 820.045 348.206L820.145 348.356C820.262 348.522 820.395 348.756 820.462 348.906L820.579 349.205C820.662 349.439 820.662 349.489 820.712 349.639C820.762 349.872 820.795 350.039 820.829 350.222C820.929 350.855 820.979 351.388 821.029 351.921C821.129 352.971 821.229 354.054 821.312 355.187C821.445 357.402 821.428 359.585 821.345 361.751C821.262 363.917 821.095 366.049 820.879 368.165L820.229 374.363L820.212 374.53C820.112 375.496 819.246 376.196 818.279 376.096C817.379 375.996 816.713 375.246 816.713 374.363C816.696 372.047 816.78 370.081 816.78 367.965C816.78 365.883 816.746 363.833 816.646 361.784C816.53 359.735 816.346 357.719 816.046 355.753C815.88 354.787 815.713 353.804 815.497 352.754C815.397 352.254 815.297 351.738 815.197 351.338C815.18 351.255 815.147 351.155 815.13 351.138C815.13 351.155 815.113 351.071 815.147 351.205L815.197 351.321C815.23 351.421 815.33 351.588 815.413 351.705L815.497 351.821C815.563 351.904 815.63 351.988 815.697 352.054C815.847 352.204 816.013 352.338 816.196 352.454C816.396 352.588 816.763 352.754 817.08 352.804C817.246 352.837 817.413 352.854 817.579 352.854C817.696 352.854 817.796 352.854 817.913 352.854C818.129 352.837 818.363 352.787 818.563 352.704C818.646 352.671 818.729 352.654 818.796 352.604L819.046 352.471C819.162 352.388 818.979 352.538 818.796 352.671C818.413 352.954 817.813 353.304 817.163 353.471C816.53 353.654 815.863 353.704 815.313 353.637C814.18 353.537 813.364 353.204 812.681 352.871C811.998 352.538 811.398 352.171 810.881 351.788C810.348 351.421 809.698 350.872 809.215 350.372C807.182 348.239 806.166 345.79 805.432 343.491C804.716 341.158 804.316 338.859 804.049 336.577C803.8 334.261 803.7 332.112 803.766 329.629C803.85 327.247 805.832 325.364 808.215 325.447C810.598 325.531 812.481 327.513 812.397 329.896C812.397 330.046 812.381 330.196 812.364 330.346L812.397 330.462Z" fill="#DE714E"/>
<path d="M492.677 75.0725C492.677 75.0725 487.395 129.186 483.279 138.932C479.164 148.679 469.766 171.204 465.65 186.082C461.535 200.96 460.952 264.736 472.115 284.829C483.279 304.922 465.067 246.843 465.65 225.368C466.234 203.892 469.183 198.028 471.532 198.028C473.882 198.028 469.766 187.931 473.298 187.981C476.831 188.031 479.18 171.304 482.113 168.505C485.046 165.723 495.626 143.464 495.626 142.548C495.626 141.631 501.508 155.426 499.742 168.505C497.976 181.584 487.412 207.491 484.462 223.901C481.53 240.312 485.046 272.617 485.046 272.617C485.046 272.617 490.328 252.641 492.677 247.659C495.026 242.661 502.141 265.569 500.058 272.617C497.959 279.664 506.19 254.857 506.19 244.644C506.19 234.431 502.658 193.113 506.19 191.746C509.723 190.38 515.005 212.705 515.588 220.036C516.171 227.383 522.636 241.078 522.053 243.328C521.47 245.577 517.354 270.251 514.422 277.299C511.489 284.346 508.54 297.275 511.489 298.441C514.422 299.624 527.718 275.533 527.235 272.6C526.752 269.668 537.333 225.551 531.451 201.793C525.569 178.035 492.327 108.727 498.092 88.1677C503.841 67.6086 501.491 80.5372 501.491 80.5372C501.491 80.5372 503.258 92.866 506.19 99.6302C509.123 106.394 507.373 97.7142 512.655 105.278C517.937 112.842 518.537 119.956 522.053 121.989C525.585 124.005 525.586 118.173 531.451 131.369C537.333 144.564 536.733 157.126 542.031 165.24C547.313 173.353 554.362 195.778 553.195 202.776C552.012 209.773 556.561 240.162 549.596 255.207C542.631 270.251 524.652 307.254 524.652 307.254V343.674C524.652 343.674 524.419 377.745 522.07 377.745C519.72 377.745 461.568 375.746 458.336 374.396C455.103 373.047 461.568 308.437 465.084 304.322C468.616 300.207 454.886 293.743 454.703 291.393C454.52 289.044 452.354 285.512 458.436 288.461C464.517 291.393 455.703 280.231 452.77 270.551C449.838 260.871 436.908 218.12 439.84 205.725C442.773 193.313 443.956 167.705 446.305 165.24C448.655 162.774 459.819 130.835 462.168 127.437C464.517 124.038 466.867 133.934 468.633 129.569C470.399 125.204 472.749 97.5976 474.515 99.6468C476.281 101.696 478.047 103.762 476.281 101.696C474.465 99.6302 489.145 74.8726 492.677 75.0725Z" fill="url(#paint14_linear_3303_577205)"/>
<path d="M494.91 47.6157C480.73 66.7754 467.167 86.5182 454.753 106.794C448.588 116.957 442.673 127.287 437.591 137.883C435.058 143.181 432.725 148.562 430.943 153.977C430.543 155.326 430.109 156.692 429.743 158.025C429.476 159.358 429.026 160.724 428.876 162.041L428.576 164.006C428.51 164.64 428.51 165.256 428.476 165.889L428.427 166.822L428.443 167.922L428.476 170.138C429.126 193.779 431.576 217.52 436.341 240.562C438.791 252.058 441.84 263.403 446.005 274.183C450.204 284.879 455.553 295.175 462.868 303.056L462.918 303.122C465.251 305.638 465.101 309.57 462.601 311.902C460.085 314.235 456.153 314.085 453.82 311.586C453.787 311.553 453.737 311.503 453.704 311.469C444.906 301.49 439.457 289.894 435.158 278.281C430.943 266.602 428.06 254.657 425.794 242.678C421.428 218.686 419.512 194.512 419.412 170.271L419.429 167.988V166.855L419.512 165.556C419.579 164.69 419.629 163.807 419.729 162.957L420.162 160.491C420.412 158.825 420.928 157.326 421.295 155.743C421.745 154.21 422.261 152.727 422.745 151.211C424.844 145.297 427.443 139.732 430.193 134.284C435.725 123.405 441.973 113.058 448.472 102.912C461.552 82.6529 475.615 63.1767 490.378 44.167C491.344 42.9341 493.11 42.7175 494.343 43.6672C495.56 44.6168 495.793 46.3495 494.877 47.5824L494.91 47.6157Z" fill="#DE714E"/>
<path d="M410.148 200.793C411.831 211.706 413.764 222.635 415.98 233.448C418.212 244.244 420.678 255.057 423.978 265.353C424.378 266.652 424.811 267.919 425.277 269.168C425.761 270.401 426.144 271.717 426.694 272.883C427.227 274.083 427.693 275.233 428.26 276.449L430.076 280.164C432.509 285.112 434.992 289.977 437.641 294.692C442.94 304.105 448.971 312.835 456.753 318.983C459.452 321.116 459.902 325.014 457.786 327.713C455.653 330.412 451.754 330.862 449.055 328.746C448.938 328.663 448.838 328.58 448.738 328.48L448.705 328.446C444.139 324.298 440.24 319.583 436.974 314.651C433.675 309.737 430.959 304.605 428.46 299.49C425.977 294.359 423.728 289.177 421.578 284.013L419.979 280.131C419.445 278.798 418.946 277.348 418.446 275.982C417.912 274.583 417.579 273.2 417.146 271.817C416.713 270.434 416.346 269.051 416.013 267.669C413.214 256.623 411.431 245.577 409.848 234.514C408.282 223.451 407.032 212.389 406.015 201.276C405.915 200.143 406.749 199.127 407.898 199.027C408.998 198.927 409.964 199.693 410.131 200.76L410.148 200.793Z" fill="#DE714E"/>
<path d="M437.424 322.232C440.04 324.781 442.606 327.363 445.156 329.979C447.705 332.612 450.221 335.244 452.704 338.11C454.27 339.909 454.087 342.658 452.271 344.224C450.471 345.79 447.722 345.607 446.155 343.791C445.972 343.591 445.805 343.341 445.672 343.124C443.939 340.125 441.99 337.11 440.007 334.111C438.024 331.112 435.991 328.13 433.942 325.181L433.925 325.164C433.209 324.131 433.459 322.699 434.492 321.982C435.441 321.349 436.658 321.482 437.424 322.232Z" fill="#DE714E"/>
<path d="M455.07 373.047C455.07 373.047 450.204 331.062 460.185 308.154" stroke="#DE714E" stroke-width="7.4545" stroke-miterlimit="10" stroke-linecap="round"/>
<path d="M520.67 371.531C520.803 370.881 520.987 370.298 521.12 369.565C521.22 368.798 521.353 368.065 521.437 367.282L521.653 364.85L521.787 362.351C521.903 358.969 521.92 355.52 521.82 352.038C521.637 345.09 521.187 338.026 520.554 331.079V331.029C520.37 329.08 521.803 327.364 523.753 327.18C525.552 327.014 527.152 328.23 527.518 329.929C529.085 336.977 530.418 343.974 531.534 351.138C532.084 354.72 532.55 358.336 532.884 362.034L533.1 364.833L533.2 367.715C533.217 368.698 533.167 369.731 533.167 370.731C533.117 371.764 532.967 372.93 532.85 374.03C532.484 377.445 529.435 379.928 526.002 379.578C522.586 379.211 520.104 376.162 520.454 372.73C520.47 372.53 520.504 372.347 520.537 372.147L520.67 371.531Z" fill="#DE714E"/>
<path d="M508.806 44.2838C515.621 55.2464 522.07 66.3257 528.368 77.5549C534.65 88.7675 540.699 100.13 546.38 111.709C552.046 123.288 557.511 135.001 562.093 147.179C563.343 150.178 564.293 153.311 565.376 156.393C565.892 157.942 566.459 159.475 566.925 161.058L568.242 165.839L569.541 170.621L570.458 175.586C570.741 177.235 571.124 178.901 571.324 180.551C571.491 182.2 571.724 183.849 571.841 185.482C572.941 198.644 572.574 211.723 571.458 224.701C570.291 237.68 568.392 250.575 565.576 263.32C562.743 276.066 559.194 288.711 554.079 300.99C551.513 307.121 548.58 313.169 544.947 318.983C541.265 324.765 536.866 330.379 530.951 335.027C528.252 337.143 524.353 336.677 522.236 333.978C520.12 331.279 520.587 327.38 523.286 325.264C523.32 325.248 523.336 325.231 523.37 325.198L523.536 325.081C527.768 321.899 531.584 317.434 534.85 312.486C538.116 307.504 540.915 302.056 543.415 296.425C548.397 285.129 552.062 273.1 555.028 260.905C557.994 248.692 560.077 236.247 561.46 223.735C562.793 211.223 563.393 198.611 562.61 186.215C562.543 184.666 562.343 183.133 562.227 181.584C562.077 180.051 561.76 178.585 561.527 177.069L560.794 172.57L559.66 168.055L558.527 163.54C558.111 162.041 557.594 160.558 557.128 159.058C556.145 156.076 555.312 153.061 554.145 150.112C549.946 138.216 544.814 126.57 539.449 115.041C534.084 103.512 528.318 92.1329 522.303 80.8704C516.288 69.6245 510.073 58.4286 503.591 47.4993L503.574 47.4659C502.708 45.9998 503.191 44.1172 504.658 43.2508C506.057 42.4011 507.923 42.8676 508.806 44.2838Z" fill="#DE714E"/>
<path d="M569.491 285.629C564.959 296.425 560.127 307.021 554.795 317.484C552.112 322.715 549.313 327.88 546.147 332.961C544.564 335.494 542.898 338.009 540.982 340.475C539.999 341.708 538.982 342.924 537.799 344.124C536.6 345.307 535.25 346.523 533.3 347.573C531.201 348.706 528.585 347.923 527.452 345.823C526.319 343.724 527.102 341.108 529.201 339.975C529.285 339.925 529.368 339.892 529.468 339.842L529.601 339.775C530.234 339.492 531.184 338.859 532.084 338.059C533 337.26 533.917 336.31 534.817 335.327C536.616 333.311 538.316 331.095 539.982 328.813C543.281 324.231 546.364 319.366 549.33 314.451C555.245 304.572 560.76 294.359 565.942 284.029L565.959 284.013C566.442 283.046 567.625 282.663 568.575 283.146C569.491 283.596 569.875 284.696 569.491 285.629Z" fill="#DE714E"/>
<path d="M529.718 307.837C529.718 307.837 518.771 312.502 521.103 316.451C523.436 320.399 536.55 312.586 529.718 307.837Z" fill="#EED774"/>
<path d="M0.000144928 89.8337C0.000144928 89.8337 4.56567 91.9996 12.1638 96.498C27.7599 105.678 56.1861 124.671 84.6457 154.793C91.5273 162.091 123.619 204.742 109.64 270.551C109.64 270.551 41.7897 236.03 19.9618 174.519C13.3135 155.793 8.88127 140.415 5.91534 128.136C5.73205 127.387 5.56543 126.654 5.3988 125.937C4.3324 121.372 3.46595 117.257 2.78278 113.592C2.48286 112.042 2.23292 110.576 1.99965 109.193C1.24983 104.778 0.783283 101.163 0.50002 98.2973C-0.0998302 92.5827 0.000144928 89.8337 0.000144928 89.8337Z" fill="url(#paint15_linear_3303_577205)"/>
<path d="M108.806 272.567C106.924 274.65 96.2428 260.638 103.458 247.709C110.673 234.781 114.238 232.265 114.238 232.265C114.738 231.515 127.418 252.008 108.806 272.567Z" fill="url(#paint16_linear_3303_577205)"/>
<path d="M51.8205 122.788C54.1366 124.721 56.486 126.753 58.8687 128.853C77.7473 145.497 98.009 166.972 106.524 185.499C116.888 208.024 109.639 270.534 109.639 270.534C109.639 270.534 108.49 268.802 106.524 265.836C96.9092 251.341 67.9165 207.341 60.535 192.479C55.0697 181.45 40.7899 149.279 30.6757 126.22C24.344 111.876 20.5449 98.997 20.5449 98.997C23.5442 98.7304 36.1077 109.66 51.8205 122.788Z" fill="url(#paint17_linear_3303_577205)"/>
<path opacity="0.63" d="M21.4448 134.218C21.4448 134.218 59.3021 175.902 65.7505 183.233C72.1988 190.564 88.3782 217.737 90.0611 233.814C91.744 249.892 68.3331 229.099 68.3331 229.099L21.4448 134.218Z" fill="#8D694A"/>
<path d="M32.7587 218.837C31.4924 216.337 30.2593 213.705 29.043 210.956C43.4061 224.218 73.2986 251.541 78.6973 254.257C81.2633 255.556 80.2969 256.456 77.9808 257.106C61.5182 248.526 43.4227 237.263 37.0243 226.617C35.5747 224.218 34.175 221.619 32.7587 218.837Z" fill="url(#paint18_linear_3303_577205)"/>
<path d="M1.99976 109.193C13.3136 116.741 35.958 133.401 40.4235 148.329C44.5558 162.141 20.7118 140.682 5.39891 125.937C4.33251 121.372 3.46606 117.257 2.78289 113.592C2.48297 112.042 2.23303 110.576 1.99976 109.193Z" fill="#8B864B"/>
<path d="M2.78271 113.592C16.8126 126.787 72.0488 179.084 72.1154 184.799C72.1821 191.43 43.6892 210.323 39.0403 207.841C35.6579 206.025 16.346 155.793 5.91527 128.136C4.59893 122.688 3.58252 117.84 2.78271 113.592Z" fill="#726F3F"/>
<path d="M11.0139 121.705C14.2464 125.571 18.2954 130.419 22.7443 135.784C34.2581 149.662 48.3879 166.939 57.7856 179.118C61.3014 183.683 64.1507 187.515 65.9336 190.197C77.0475 206.791 109.256 271.601 109.256 271.601C109.256 271.601 94.4265 265.686 77.9806 257.089C75.8644 255.99 73.715 254.823 71.5488 253.64C57.0358 245.61 42.5894 235.864 37.0074 226.6C35.5745 224.218 34.1748 221.619 32.7585 218.837C31.4921 216.337 30.2591 213.705 29.0428 210.956C28.5929 209.94 28.143 208.907 27.7097 207.874C26.76 205.641 25.8102 203.326 24.8938 200.976V200.96C19.3785 186.882 14.4131 171.021 10.5973 156.643C4.64883 134.201 -1.01643 116.757 0.899762 114.025C0.899762 114.025 6.39839 116.174 11.0139 121.705Z" fill="url(#paint19_linear_3303_577205)"/>
<path d="M56.8194 129.286C60.0352 134.418 69.033 148.846 67.8333 148.546C66.3837 148.179 60.6851 143.847 58.9855 143.781C57.2859 143.714 72.5321 152.844 72.5321 152.844C72.5321 152.844 68.5165 151.878 69.4829 152.861C70.0827 153.461 75.7313 157.059 78.6973 159.325C79.0305 159.892 79.3971 160.508 79.747 161.124C79.6137 161.091 79.4637 161.041 79.2804 160.991C73.8485 159.308 74.315 160.091 75.2315 162.007C75.898 163.424 81.8298 167.039 84.7124 170.204C85.229 171.204 85.7622 172.22 86.262 173.237C85.9121 176.652 82.8296 170.888 80.1302 169.538C77.9974 168.472 85.0123 175.369 89.3446 179.551C89.9111 180.767 90.461 181.95 90.9609 183.083C89.1446 182.617 86.1287 181.3 83.5627 179.718C79.647 177.285 90.3443 187.731 94.1934 191.43C94.4767 192.43 94.5933 193.196 94.5266 193.663C94.0601 196.978 104.691 255.74 106.507 265.803C108.473 268.785 109.623 270.501 109.623 270.501C109.623 270.501 116.871 207.991 106.507 185.466C97.9924 166.939 77.7308 145.463 58.8522 128.82C56.4695 126.72 54.12 124.688 51.804 122.755C53.4202 124.871 55.1031 127.054 56.8194 129.286Z" fill="#605D36"/>
<path d="M91.744 251.075C91.744 251.075 80.6468 252.457 71.549 253.64C57.036 245.61 42.5896 235.864 37.0076 226.6C35.5747 224.218 34.175 221.619 32.7587 218.836C31.4924 216.337 30.2593 213.705 29.043 210.956C28.5931 209.94 28.1432 208.907 27.71 207.874C35.9246 214.838 46.372 222.818 47.2218 219.07C48.6381 212.822 52.4871 185.682 60.2685 186.132C68.0332 186.548 91.744 251.075 91.744 251.075Z" fill="#95894A"/>
<path d="M101.208 197.494C106.241 202.626 108.957 211.822 110.173 222.019C110.556 225.218 110.789 228.483 110.906 231.782C111.539 249.375 108.623 267.036 105.874 270.151C104.441 271.784 90.7444 264.453 77.8643 254.307C77.7143 254.174 77.5477 254.057 77.381 253.924C77.3311 253.907 77.2811 253.857 77.2311 253.807C71.4492 249.192 65.9006 244.044 61.735 238.912C60.4686 237.346 59.3189 235.764 58.3525 234.231C57.5027 232.898 56.8028 231.582 56.2363 230.299C47.8884 211.406 59.3689 182.283 59.3689 182.283C59.3689 182.283 86.2122 182.167 101.208 197.494Z" fill="url(#paint20_linear_3303_577205)"/>
<path d="M108.24 223.985C108.906 223.835 109.556 222.985 110.173 222.019C110.556 225.218 110.789 228.483 110.906 231.782C111.539 249.376 108.623 267.036 105.874 270.151C104.441 271.784 90.7442 264.453 77.8641 254.307C77.7141 254.174 77.5475 254.057 77.3809 253.924C77.3309 253.907 77.2809 253.857 77.2309 253.807C71.449 249.192 65.9004 244.044 61.7348 238.913C60.4684 237.347 59.3187 235.764 58.3523 234.231C58.6022 232.998 59.1854 232.232 60.3851 232.582C64.0342 233.681 65.6172 237.68 66.4836 237.513C67.3334 237.347 58.4189 224.585 61.5015 225.418C61.5015 225.418 73.0653 239.629 76.0979 240.979C79.1304 242.328 69.7161 230.166 72.6321 230.382C75.5647 230.582 79.3971 240.679 81.8964 239.246C84.4125 237.83 74.365 226.467 77.2976 226.667C80.2302 226.9 81.3466 231.932 82.8795 229.649C84.4125 227.384 79.4137 225.018 80.83 223.385C82.2463 221.752 86.7619 228.683 89.5279 230.616C92.2938 232.532 84.7457 221.236 87.6117 219.053C90.461 216.887 91.0275 225.134 94.21 224.335C97.4092 223.552 90.2943 213.789 93.4769 213.289C96.6927 212.789 101.625 221.852 103.108 221.702C104.607 221.536 102.841 217.87 104.774 217.97C106.724 218.104 106.124 224.501 108.24 223.985Z" fill="#C5BC63"/>
<path d="M110.922 231.782C111.556 249.375 108.64 267.036 105.89 270.151C104.457 271.784 90.7608 264.453 77.8806 254.307C77.8473 254.29 77.814 254.257 77.814 254.257C77.814 254.257 77.664 254.14 77.3974 253.924C77.3474 253.907 77.2974 253.857 77.2474 253.807C74.3148 251.541 61.1515 241.128 61.7513 238.913C61.9013 238.313 63.0177 238.296 65.5337 239.146C78.7637 243.611 84.229 250.092 83.5292 248.276C82.8461 246.476 78.6638 242.744 80.4467 242.511C82.1796 242.278 89.3944 250.675 89.8943 251.241C89.5611 250.675 86.7451 245.727 88.0781 244.927C89.4777 244.061 91.8105 250.425 93.5267 250.692C95.2596 250.958 89.961 242.061 91.8605 241.028C93.7767 239.995 97.5924 248.376 98.0089 249.359C98.4422 250.325 97.4091 241.478 99.1587 244.277C100.908 247.093 102.958 254.64 103.791 250.158C104.624 245.677 97.1925 234.564 102.658 236.463C108.106 238.363 106.124 237.296 106.074 233.964C106.007 230.616 105.357 232.198 108.14 231.848C109.023 231.748 109.989 231.698 110.922 231.782Z" fill="url(#paint21_linear_3303_577205)"/>
<path d="M109.19 269.968C109.24 270.235 109.29 270.501 109.29 270.734C109.406 271.751 109.19 272.434 108.69 272.584C108.673 272.584 108.673 272.584 108.656 272.584C98.3756 275.433 84.0792 265.303 76.7477 259.272C73.7984 256.856 71.9822 255.09 71.9822 255.09C71.9822 255.09 76.0312 253.474 90.7942 254.507C102.158 255.307 108.223 265.137 109.19 269.968Z" fill="url(#paint22_linear_3303_577205)"/>
<path d="M21.3115 203.792L21.8947 204.042L21.8281 204.258C21.4948 203.942 21.3115 203.792 21.3115 203.792Z" fill="url(#paint23_linear_3303_577205)"/>
<path d="M15.7463 172.703C15.7463 172.703 26.1771 213.172 38.1907 226.034L15.7463 172.703Z" fill="#95894A"/>
<path d="M26.7769 187.665C26.7769 187.665 30.5426 215.071 36.7244 222.019L26.7769 187.665Z" fill="#95894A"/>
<path d="M36.691 219.436C36.691 219.436 28.0265 200.143 31.4257 190.947L36.691 219.436Z" fill="#95894A"/>
<path d="M35.6746 199.544C35.6746 199.544 31.9755 208.44 38.7905 218.07L35.6746 199.544Z" fill="#95894A"/>
<path d="M41.6066 219.32C41.6066 219.32 36.1079 207.391 36.991 192.229L41.6066 219.32Z" fill="#95894A"/>
<path d="M41.5232 222.385C40.5734 221.636 37.7741 214.822 38.424 206.141L41.5232 222.385Z" fill="#95894A"/>
<path d="M109.19 269.968C109.24 270.235 109.29 270.501 109.29 270.734C109.106 271.301 108.89 271.934 108.656 272.584C98.3756 275.433 84.0792 265.303 76.7477 259.272C73.7984 256.856 71.9822 255.09 71.9822 255.09C71.9822 255.09 76.0312 253.474 90.7942 254.507C102.158 255.307 108.223 265.137 109.19 269.968Z" fill="#9F6538"/>
<path d="M33.7251 211.689C33.7251 211.689 39.5736 215.321 41.8231 218.803C44.0892 222.285 31.7422 216.154 33.7251 211.689Z" fill="#95894A"/>
<path d="M29.3761 208.057C29.3761 208.057 30.1259 208.024 30.6591 207.307C31.1923 206.591 33.1085 212.272 33.9582 210.09C34.808 207.924 36.7076 209.456 37.3907 210.873C38.0739 212.272 37.1741 214.071 38.5571 212.905C39.9568 211.739 41.4231 200.726 41.3231 198.644C41.2231 196.561 41.9396 214.788 42.5228 215.338C43.106 215.887 44.5056 201.426 45.2388 200.226C45.9719 199.027 45.1221 221.102 46.4551 220.736C47.7881 220.386 28.0764 214.971 29.3761 208.057Z" fill="#95894A"/>
<path d="M26.8269 140.715C38.3407 154.593 48.3882 166.939 57.7858 179.118C55.1365 179.801 55.6364 183.933 50.8709 178.268C49.038 176.102 46.7386 173.087 46.0721 176.269C45.139 180.784 45.9721 181.783 44.2559 180.351C42.523 178.901 37.9241 160.058 39.0572 167.422C40.1569 174.786 38.0074 168.205 37.0577 166.672C36.0912 165.139 32.5421 147.629 32.0256 154.527C31.509 161.441 30.4926 160.441 30.4926 160.441C30.4926 160.441 29.6762 149.628 29.3596 151.011C29.0263 152.361 28.4765 171.77 27.5267 170.521C26.5603 169.271 26.4103 145.014 25.6105 146.196C24.8107 147.379 24.5108 165.606 24.1275 159.991C23.811 156.076 27.2101 148.129 26.8269 140.715Z" fill="#B7993F"/>
<path d="M218.379 241.962C215.963 243.844 204.449 259.755 193.502 275.299C192.969 276.049 192.436 276.816 191.902 277.565C181.455 292.46 171.924 306.321 171.924 306.321C171.924 306.321 176.056 387.458 169.691 403.652C168.408 406.951 165.176 408.751 160.877 409.55C160.444 409.634 160.01 409.7 159.56 409.75C161.91 365.733 144.981 255.69 143.381 245.41C141.665 234.298 153.562 61.6942 157.711 2.71582C158.244 2.91575 158.727 3.13233 159.244 3.36558C167.209 7.13087 173.09 14.2449 171.907 25.6908C168.658 57.0626 164.459 223.568 167.159 226.85C169.591 229.749 186.221 220.436 189.553 218.504C189.936 218.27 190.153 218.154 190.153 218.154C190.153 218.154 191.436 218.937 193.485 220.22C201.75 225.418 222.295 238.929 218.379 241.962Z" fill="#704B2F"/>
<path d="M361.893 4.54834C361.893 4.54834 361.727 11.5458 360.311 23.708C357.495 48.6655 349.497 95.3818 327.402 148.446C322.037 161.291 286.129 226.034 194.868 245.494C194.868 245.494 200.267 140.049 265.884 77.6549C285.846 58.6785 302.825 44.3671 316.705 33.6877C317.538 33.0379 318.388 32.4048 319.204 31.7884C324.386 27.8565 329.102 24.4411 333.351 21.5088C335.15 20.2593 336.866 19.1097 338.483 18.0267C343.665 14.5947 347.98 11.9456 351.429 9.96303C358.361 5.96449 361.893 4.54834 361.893 4.54834Z" fill="url(#paint24_linear_3303_577205)"/>
<path d="M191.836 245.577C188.137 244.361 199.85 222.919 220.312 224.751C240.774 226.584 245.972 229.683 245.972 229.683C247.205 229.916 228.41 257.539 191.836 245.577Z" fill="url(#paint25_linear_3303_577205)"/>
<path d="M349.397 88.7841C348.247 92.816 346.997 96.9478 345.698 101.13C335.267 134.451 319.521 172.237 300.842 193.479C278.164 219.336 194.868 245.46 194.868 245.46C194.868 245.46 196.401 243.028 199.067 238.863C211.997 218.487 251.371 156.909 266.034 139.182C276.915 126.037 309.623 89.7671 333.117 63.9266C347.714 47.8158 361.893 35.7202 361.893 35.7202C363.926 39.3689 357.178 61.4608 349.397 88.7841Z" fill="url(#paint26_linear_3303_577205)"/>
<path opacity="0.63" d="M317.771 56.7627C317.771 56.7627 286.345 128.253 280.697 140.549C275.048 152.844 249.771 188.714 230.343 199.927C210.914 211.14 224.044 169.755 224.044 169.755L317.771 56.7627Z" fill="#8D694A"/>
<path d="M216.963 118.89C219.412 115.891 222.062 112.842 224.861 109.727C216.163 135.417 198.434 188.714 198.051 197.078C197.868 201.06 196.168 200.343 194.035 197.778C195.618 172.07 199.667 142.781 209.515 128.67C211.731 125.521 214.23 122.255 216.963 118.89Z" fill="url(#paint27_linear_3303_577205)"/>
<path d="M338.499 18.0103C335.333 36.6035 327.002 74.7062 310.623 88.7844C295.46 101.813 309.173 59.4951 319.221 31.7719C324.403 27.84 329.118 24.4246 333.367 21.4923C335.167 20.2261 336.883 19.0932 338.499 18.0103Z" fill="#8B864B"/>
<path d="M333.367 21.4753C324.569 46.6995 289.511 146.213 282.313 149.512C273.949 153.344 233.925 127.92 234.442 120.622C234.825 115.324 287.578 62.4937 316.721 33.6709C322.87 28.9226 328.435 24.8908 333.367 21.4753Z" fill="#726F3F"/>
<path d="M327.752 36.4867C324.686 42.7677 320.82 50.6315 316.538 59.295C305.457 81.7035 291.544 109.377 281.413 128.153C277.631 135.184 274.382 140.948 271.982 144.747C257.236 168.205 193.319 245.594 193.319 245.594C193.319 245.594 192.436 223.468 194.035 197.778C194.235 194.462 194.485 191.097 194.768 187.698C196.751 164.773 200.917 140.965 209.515 128.67C211.731 125.521 214.213 122.272 216.963 118.89C219.412 115.891 222.061 112.842 224.861 109.727C225.877 108.577 226.944 107.444 228.01 106.294C230.293 103.812 232.692 101.33 235.142 98.8305C235.142 98.8305 235.158 98.8305 235.158 98.8139C249.888 83.8693 267.167 68.6249 283.23 55.6796C308.307 35.487 327.202 18.4599 331.751 19.3429C331.751 19.3263 332.134 27.5066 327.752 36.4867Z" fill="url(#paint28_linear_3303_577205)"/>
<path d="M344.014 98.7972C339.332 105.778 326.119 125.304 325.836 123.621C325.486 121.572 327.752 111.926 326.885 109.727C326.019 107.527 323.053 132.002 323.053 132.002C323.053 132.002 322.003 126.37 321.32 128.153C320.887 129.253 319.537 138.433 318.338 143.481C317.804 144.231 317.238 145.03 316.655 145.83C316.621 145.63 316.588 145.413 316.555 145.164C315.622 137.333 314.888 138.383 312.972 140.615C311.556 142.265 310.323 151.811 307.94 157.242C306.957 158.475 305.974 159.708 304.974 160.924C300.459 162.407 306.024 155.26 306.191 151.078C306.324 147.763 301.558 160.558 298.709 168.405C297.493 169.821 296.293 171.171 295.143 172.454C294.71 169.888 294.66 165.323 295.227 161.174C296.093 154.843 288.912 174.303 286.379 181.25C285.262 182.167 284.363 182.75 283.729 182.933C279.264 184.199 210.814 230.866 199.101 238.863C196.435 243.028 194.902 245.46 194.902 245.46C194.902 245.46 278.181 219.32 300.875 193.479C319.554 172.237 335.3 134.434 345.731 101.13C347.047 96.9312 348.28 92.7994 349.43 88.7842C347.68 91.983 345.864 95.3651 344.014 98.7972Z" fill="#605D36"/>
<path d="M209.448 211.822C209.448 211.822 201.433 198.544 194.785 187.698C196.768 164.773 200.933 140.965 209.531 128.67C211.747 125.521 214.23 122.272 216.979 118.89C219.429 115.891 222.078 112.842 224.877 109.727C225.894 108.577 226.96 107.444 228.027 106.294C223.861 120.623 219.645 138.383 224.877 137.333C233.592 135.6 270.133 125.138 273.965 135.251C277.798 145.33 209.448 211.822 209.448 211.822Z" fill="#95894A"/>
<path d="M282.663 193.563C278.998 202.826 268.883 211.473 256.653 218.787C252.821 221.069 248.822 223.218 244.706 225.234C222.762 235.964 198.751 242.245 193.252 240.529C190.37 239.629 191.919 218.137 197.501 196.112C197.584 195.845 197.651 195.562 197.701 195.295C197.701 195.212 197.718 195.129 197.768 195.045C200.35 185.132 203.733 175.169 207.899 167.006C209.165 164.506 210.515 162.174 211.931 160.075C213.131 158.259 214.414 156.626 215.713 155.16C234.942 133.918 278.314 132.002 278.314 132.002C278.314 132.002 293.611 165.889 282.663 193.563Z" fill="url(#paint29_linear_3303_577205)"/>
<path d="M253.071 217.42C253.637 218.17 255.07 218.52 256.653 218.77C252.821 221.052 248.822 223.202 244.706 225.218C222.762 235.947 198.751 242.228 193.252 240.512C190.37 239.612 191.919 218.12 197.501 196.095C197.584 195.828 197.651 195.545 197.701 195.279C197.701 195.195 197.718 195.112 197.768 195.029C200.35 185.116 203.733 175.153 207.899 166.989C209.165 164.49 210.515 162.157 211.931 160.058C213.63 159.675 214.93 159.975 215.163 161.691C215.847 166.922 211.664 171.204 212.364 172.204C213.064 173.187 224.194 154.677 224.878 159.058C224.878 159.058 213.397 181.733 213.397 186.332C213.397 190.93 223.478 172.137 224.878 175.969C226.261 179.801 215.647 190.347 218.879 192.713C222.095 195.112 230.826 175.969 232.209 179.784C233.575 183.633 227.827 187.881 231.576 188.531C235.325 189.181 235.475 181.534 238.374 182.4C241.24 183.283 235.025 192.913 234.125 197.494C233.242 202.076 243.306 186.149 247.689 188.531C252.038 190.93 241.923 196.278 244.723 199.86C247.522 203.459 255.87 188.948 258.303 192.696C260.752 196.478 252.038 207.857 253.087 209.657C254.137 211.456 257.786 207.158 258.753 209.657C259.669 212.172 251.221 215.021 253.071 217.42Z" fill="#C5BC63"/>
<path d="M244.706 225.218C222.762 235.947 198.751 242.228 193.252 240.512C190.37 239.612 191.919 218.12 197.501 196.095C197.501 196.028 197.518 195.995 197.518 195.995C197.518 195.995 197.584 195.745 197.701 195.279C197.701 195.195 197.718 195.112 197.768 195.029C199.001 190.031 204.749 167.489 207.899 166.989C208.732 166.839 209.398 168.255 209.731 171.92C211.548 191.213 206.416 201.776 208.348 199.877C210.248 197.994 212.597 190.597 213.914 192.713C215.18 194.779 208.615 208.657 208.182 209.607C208.715 208.874 213.397 202.509 215.163 203.742C217.046 205.025 210.298 211.573 210.931 213.905C211.564 216.254 219.846 204.525 222.245 206.341C224.644 208.174 216.163 217.754 215.163 218.837C214.18 219.92 224.811 213.622 222.245 217.421C219.662 221.219 211.264 228.1 217.413 226.601C223.561 225.134 233.442 209.44 234.125 217.421C234.809 225.401 235.025 222.285 239.224 220.319C243.44 218.337 241.057 218.42 243.073 221.736C243.69 222.785 244.289 223.985 244.706 225.218Z" fill="url(#paint30_linear_3303_577205)"/>
<path d="M195.352 244.577C195.052 244.811 194.735 245.01 194.435 245.144C193.202 245.86 192.219 245.977 191.752 245.427C191.736 245.41 191.736 245.41 191.736 245.394C182.321 233.981 187.07 210.157 190.569 197.461C191.952 192.363 193.169 189.048 193.169 189.048C193.169 189.048 197.501 193.263 204.533 212.539C209.948 227.4 200.933 240.629 195.352 244.577Z" fill="url(#paint31_linear_3303_577205)"/>
<path d="M229.576 95.8984V96.7814L229.276 96.8148C229.46 96.2316 229.576 95.8984 229.576 95.8984Z" fill="url(#paint32_linear_3303_577205)"/>
<path d="M265.801 71.2908C265.801 71.2908 220.412 107.378 210.914 129.836L265.801 71.2908Z" fill="#95894A"/>
<path d="M253.071 93.7158C253.071 93.7158 220.479 113.958 215.163 125.737L253.071 93.7158Z" fill="#95894A"/>
<path d="M218.412 124.204C218.412 124.204 237.974 102.312 251.537 101.446L218.412 124.204Z" fill="#95894A"/>
<path d="M243.056 111.709C243.056 111.709 229.71 112.059 221.345 126.104L243.056 111.709Z" fill="#95894A"/>
<path d="M221.345 130.369C221.345 130.369 233.359 116.657 253.07 109.227L221.345 130.369Z" fill="#95894A"/>
<path d="M217.413 132.002C217.829 130.369 224.878 122.972 236.242 118.906L217.413 132.002Z" fill="#95894A"/>
<path d="M195.352 244.577C195.052 244.811 194.735 245.01 194.435 245.144C193.619 245.227 192.702 245.31 191.736 245.394C182.321 233.981 187.07 210.157 190.569 197.461C191.952 192.363 193.169 189.048 193.169 189.048C193.169 189.048 197.501 193.263 204.533 212.539C209.948 227.4 200.933 240.629 195.352 244.577Z" fill="#9F6538"/>
<path d="M226.56 116.074C226.56 116.074 225.261 125.537 222.128 130.369C218.996 135.201 219.779 116.091 226.56 116.074Z" fill="#95894A"/>
<path d="M228.693 108.527C228.693 108.527 229.16 109.443 230.359 109.726C231.559 110.01 225.461 115.624 228.693 115.491C231.926 115.341 231.043 118.623 229.643 120.273C228.243 121.922 225.461 121.805 227.727 122.905C229.993 124.005 244.773 119.656 247.339 118.357C249.905 117.057 227.227 128.253 226.86 129.303C226.494 130.369 245.606 123.971 247.538 124.204C249.471 124.438 221.012 135.85 222.228 137.316C223.478 138.816 219.212 110.793 228.693 108.527Z" fill="#95894A"/>
<path d="M312.589 67.2419C301.508 89.6504 291.544 109.377 281.413 128.153C279.064 125.187 274.099 128.153 278.564 118.906C280.28 115.374 282.796 110.743 278.381 111.709C272.132 113.075 271.349 114.691 272.182 111.709C273.049 108.71 294.31 92.2328 285.612 97.8307C276.898 103.395 284.029 96.9477 285.429 94.8652C286.812 92.7826 307.007 78.3879 297.959 81.6367C288.895 84.8855 289.595 83.0195 289.595 83.0195C289.595 83.0195 302.825 75.8888 300.909 76.2553C299.009 76.6052 274.115 86.8681 275.165 84.9521C276.215 83.0362 306.84 69.1246 304.908 68.7747C302.958 68.4248 279.681 78.3379 286.596 74.6892C291.428 72.1235 303.408 71.9236 312.589 67.2419Z" fill="#B7993F"/>
<path d="M195.352 244.577C195.052 244.811 194.735 245.01 194.435 245.144C193.202 245.86 192.219 245.977 191.752 245.427C191.736 245.41 191.736 245.41 191.736 245.394C182.321 233.981 187.07 210.157 190.569 197.461C191.769 204.109 193.685 216.304 193.085 224.635C192.536 232.515 195.102 240.129 195.352 244.577Z" fill="#925019"/>
<path d="M159.577 409.733C151.379 410.75 139.815 408.534 130.001 405.952C119.337 403.136 110.756 399.854 110.756 399.854C110.756 399.854 108.057 380.411 107.523 355.52C107.04 330.646 99.4087 279.281 99.4087 271.717C99.4087 264.137 114.538 235.114 114.538 235.114L125.352 9.0134C125.436 4.13185 131.917 0.849719 140.082 0.149975C145.73 -0.366503 152.146 0.416544 157.728 2.69904C153.579 61.6775 141.665 234.281 143.398 245.394C144.997 255.69 161.926 365.733 159.577 409.733Z" fill="#815F48"/>
</g>
<defs>
<linearGradient id="paint0_linear_3303_577205" x1="1056.59" y1="202.546" x2="1153.91" y2="202.546" gradientUnits="userSpaceOnUse">
<stop stop-color="#68371C"/>
<stop offset="0.7534" stop-color="#63674D"/>
<stop offset="0.9834" stop-color="#9A7221"/>
</linearGradient>
<linearGradient id="paint1_linear_3303_577205" x1="1178.47" y1="217.61" x2="1069.21" y2="224.66" gradientUnits="userSpaceOnUse">
<stop stop-color="#68371C"/>
<stop offset="0.7534" stop-color="#63674D"/>
<stop offset="0.9834" stop-color="#47350C"/>
</linearGradient>
<linearGradient id="paint2_linear_3303_577205" x1="1011.79" y1="226.718" x2="1016.53" y2="40.8465" gradientUnits="userSpaceOnUse">
<stop offset="0.00349061" stop-color="#4D4336"/>
<stop offset="0.8194" stop-color="#63674D"/>
<stop offset="0.9834" stop-color="#91AF8B"/>
</linearGradient>
<linearGradient id="paint3_linear_3303_577205" x1="873.283" y1="227.626" x2="979.992" y2="100.178" gradientUnits="userSpaceOnUse">
<stop stop-color="#7B6A58"/>
<stop offset="0.8194" stop-color="#63674D"/>
<stop offset="0.9869" stop-color="#91A687"/>
</linearGradient>
<linearGradient id="paint4_linear_3303_577205" x1="1104.69" y1="89.6742" x2="956.289" y2="123.929" gradientUnits="userSpaceOnUse">
<stop stop-color="#7B6A58"/>
<stop offset="0.8194" stop-color="#63674D"/>
<stop offset="0.9869" stop-color="#91A687"/>
</linearGradient>
<linearGradient id="paint5_linear_3303_577205" x1="945.782" y1="227.625" x2="973.217" y2="164.455" gradientUnits="userSpaceOnUse">
<stop stop-color="#7B6A58"/>
<stop offset="0.8194" stop-color="#63674D"/>
<stop offset="0.9869" stop-color="#91A687"/>
</linearGradient>
<linearGradient id="paint6_linear_3303_577205" x1="1120.34" y1="150.424" x2="1008.02" y2="138.936" gradientUnits="userSpaceOnUse">
<stop stop-color="#7B6A58"/>
<stop offset="0.8194" stop-color="#63674D"/>
<stop offset="0.9869" stop-color="#91A687"/>
</linearGradient>
<linearGradient id="paint7_linear_3303_577205" x1="1232.75" y1="195.555" x2="1148.98" y2="200.96" gradientUnits="userSpaceOnUse">
<stop stop-color="#68371C"/>
<stop offset="0.7534" stop-color="#63674D"/>
<stop offset="0.9834" stop-color="#47350C"/>
</linearGradient>
<linearGradient id="paint8_linear_3303_577205" x1="1164.25" y1="159.373" x2="1280.47" y2="92.3561" gradientUnits="userSpaceOnUse">
<stop offset="0.00349061" stop-color="#4D4336"/>
<stop offset="0.8194" stop-color="#63674D"/>
<stop offset="0.9834" stop-color="#91AF8B"/>
</linearGradient>
<linearGradient id="paint9_linear_3303_577205" x1="1291.74" y1="240.966" x2="1211.83" y2="128.943" gradientUnits="userSpaceOnUse">
<stop stop-color="#7B6A58"/>
<stop offset="0.8194" stop-color="#63674D"/>
<stop offset="0.9869" stop-color="#91A687"/>
</linearGradient>
<linearGradient id="paint10_linear_3303_577205" x1="1075.9" y1="91.2974" x2="1224.3" y2="137.895" gradientUnits="userSpaceOnUse">
<stop stop-color="#7B6A58"/>
<stop offset="0.8194" stop-color="#63674D"/>
<stop offset="0.9869" stop-color="#91A687"/>
</linearGradient>
<linearGradient id="paint11_linear_3303_577205" x1="1144.44" y1="172.836" x2="1228.56" y2="177.279" gradientUnits="userSpaceOnUse">
<stop stop-color="#7B6A58"/>
<stop offset="0.8194" stop-color="#63674D"/>
<stop offset="0.9869" stop-color="#91A687"/>
</linearGradient>
<linearGradient id="paint12_linear_3303_577205" x1="1123.6" y1="155.857" x2="1174.64" y2="158.552" gradientUnits="userSpaceOnUse">
<stop stop-color="#7B6A58"/>
<stop offset="0.8194" stop-color="#63674D"/>
<stop offset="0.9869" stop-color="#91A687"/>
</linearGradient>
<linearGradient id="paint13_linear_3303_577205" x1="1221.18" y1="231.932" x2="1205.04" y2="183.439" gradientUnits="userSpaceOnUse">
<stop stop-color="#7B6A58"/>
<stop offset="0.8194" stop-color="#63674D"/>
<stop offset="0.9869" stop-color="#91A687"/>
</linearGradient>
<linearGradient id="paint14_linear_3303_577205" x1="508.283" y1="-13.265" x2="495.95" y2="231.219" gradientUnits="userSpaceOnUse">
<stop stop-color="#BED591"/>
<stop offset="0.9834" stop-color="#EED774"/>
</linearGradient>
<linearGradient id="paint15_linear_3303_577205" x1="69.3029" y1="192.183" x2="-25.2656" y2="65.393" gradientUnits="userSpaceOnUse">
<stop stop-color="white"/>
<stop offset="0.5215" stop-color="#D0C560"/>
<stop offset="0.8144" stop-color="#8F1700"/>
</linearGradient>
<linearGradient id="paint16_linear_3303_577205" x1="116.852" y1="279.82" x2="114.592" y2="270.714" gradientUnits="userSpaceOnUse">
<stop offset="0.2222" stop-color="#68371C"/>
<stop offset="0.7534" stop-color="#D5DA61"/>
<stop offset="0.9834" stop-color="#9C4D00"/>
</linearGradient>
<linearGradient id="paint17_linear_3303_577205" x1="122.321" y1="246.827" x2="-0.806255" y2="73.3874" gradientUnits="userSpaceOnUse">
<stop stop-color="white"/>
<stop offset="0.5215" stop-color="#D0C560"/>
<stop offset="0.8144" stop-color="#8F1700"/>
</linearGradient>
<linearGradient id="paint18_linear_3303_577205" x1="60.8024" y1="293.92" x2="55.6696" y2="243.523" gradientUnits="userSpaceOnUse">
<stop offset="0.2222" stop-color="#68371C"/>
<stop offset="0.7499" stop-color="#D5DA61" stop-opacity="0.1"/>
<stop offset="0.9904" stop-color="#9C4D00" stop-opacity="0.3"/>
</linearGradient>
<linearGradient id="paint19_linear_3303_577205" x1="75.647" y1="259.662" x2="11.2166" y2="84.8677" gradientUnits="userSpaceOnUse">
<stop stop-color="white"/>
<stop offset="0.5215" stop-color="#D0C560"/>
<stop offset="0.8144" stop-color="#8F1700"/>
</linearGradient>
<linearGradient id="paint20_linear_3303_577205" x1="116.046" y1="279.103" x2="38.8234" y2="143.037" gradientUnits="userSpaceOnUse">
<stop stop-color="white"/>
<stop offset="0.5215" stop-color="#D0C560"/>
<stop offset="0.8144" stop-color="#8F1700"/>
</linearGradient>
<linearGradient id="paint21_linear_3303_577205" x1="109.764" y1="286.955" x2="82.0505" y2="226.167" gradientUnits="userSpaceOnUse">
<stop offset="0.2222" stop-color="#68371C"/>
<stop offset="0.7499" stop-color="#95894A" stop-opacity="0.1"/>
<stop offset="0.9904" stop-color="#9C4D00" stop-opacity="0.3"/>
</linearGradient>
<linearGradient id="paint22_linear_3303_577205" x1="119.296" y1="272.28" x2="109.86" y2="268.686" gradientUnits="userSpaceOnUse">
<stop offset="0.2222" stop-color="#68371C"/>
<stop offset="0.7534" stop-color="#D5DA61"/>
<stop offset="0.9834" stop-color="#9C4D00"/>
</linearGradient>
<linearGradient id="paint23_linear_3303_577205" x1="21.6773" y1="204.638" x2="21.6247" y2="204.121" gradientUnits="userSpaceOnUse">
<stop offset="0.2222" stop-color="#68371C"/>
<stop offset="0.7499" stop-color="#D5DA61" stop-opacity="0.1"/>
<stop offset="0.9904" stop-color="#9C4D00" stop-opacity="0.3"/>
</linearGradient>
<linearGradient id="paint24_linear_3303_577205" x1="271.381" y1="150.133" x2="378.569" y2="-41.2967" gradientUnits="userSpaceOnUse">
<stop stop-color="white"/>
<stop offset="0.5215" stop-color="#D0C560"/>
<stop offset="0.8144" stop-color="#8F1700"/>
</linearGradient>
<linearGradient id="paint25_linear_3303_577205" x1="187.215" y1="259.816" x2="197.472" y2="251.808" gradientUnits="userSpaceOnUse">
<stop offset="0.2222" stop-color="#68371C"/>
<stop offset="0.7534" stop-color="#D5DA61"/>
<stop offset="0.9834" stop-color="#9C4D00"/>
</linearGradient>
<linearGradient id="paint26_linear_3303_577205" x1="232.092" y1="248.158" x2="382.242" y2="-5.80728" gradientUnits="userSpaceOnUse">
<stop stop-color="white"/>
<stop offset="0.5215" stop-color="#D0C560"/>
<stop offset="0.8144" stop-color="#8F1700"/>
</linearGradient>
<linearGradient id="paint27_linear_3303_577205" x1="137.677" y1="196.83" x2="198.627" y2="161.855" gradientUnits="userSpaceOnUse">
<stop offset="0.2222" stop-color="#68371C"/>
<stop offset="0.7499" stop-color="#D5DA61" stop-opacity="0.1"/>
<stop offset="0.9904" stop-color="#9C4D00" stop-opacity="0.3"/>
</linearGradient>
<linearGradient id="paint28_linear_3303_577205" x1="189.467" y1="196.284" x2="374.506" y2="15.9033" gradientUnits="userSpaceOnUse">
<stop stop-color="white"/>
<stop offset="0.5215" stop-color="#D0C560"/>
<stop offset="0.8144" stop-color="#8F1700"/>
</linearGradient>
<linearGradient id="paint29_linear_3303_577205" x1="187.654" y1="258.439" x2="316.397" y2="83.7371" gradientUnits="userSpaceOnUse">
<stop stop-color="white"/>
<stop offset="0.5215" stop-color="#D0C560"/>
<stop offset="0.8144" stop-color="#8F1700"/>
</linearGradient>
<linearGradient id="paint30_linear_3303_577205" x1="174.157" y1="254.917" x2="235.509" y2="185.464" gradientUnits="userSpaceOnUse">
<stop offset="0.2222" stop-color="#68371C"/>
<stop offset="0.7499" stop-color="#95894A" stop-opacity="0.1"/>
<stop offset="0.9904" stop-color="#9C4D00" stop-opacity="0.3"/>
</linearGradient>
<linearGradient id="paint31_linear_3303_577205" x1="198.135" y1="258.702" x2="197.359" y2="244.719" gradientUnits="userSpaceOnUse">
<stop offset="0.2222" stop-color="#68371C"/>
<stop offset="0.7534" stop-color="#D5DA61"/>
<stop offset="0.9834" stop-color="#9C4D00"/>
</linearGradient>
<linearGradient id="paint32_linear_3303_577205" x1="228.7" y1="96.8403" x2="229.325" y2="96.4813" gradientUnits="userSpaceOnUse">
<stop offset="0.2222" stop-color="#68371C"/>
<stop offset="0.7499" stop-color="#D5DA61" stop-opacity="0.1"/>
<stop offset="0.9904" stop-color="#9C4D00" stop-opacity="0.3"/>
</linearGradient>
<clipPath id="clip0_3303_577205">
<rect width="1271" height="410" fill="white"/>
</clipPath>
</defs>
</svg>
