<svg width="543" height="501" viewBox="0 0 543 501" fill="none" xmlns="http://www.w3.org/2000/svg">
<path d="M360.538 106.262C364.097 103.121 369.439 97.6001 373.425 89.3111C379.32 77.0497 378.778 65.9487 378.468 60.8746C378.281 57.8168 375.755 25.1925 348.671 9.06566C323.488 -5.92911 294.578 0.911653 288.715 6.6767C283.065 12.2343 276.626 15.014 276.624 15.014C274.553 17.1533 270.553 21.8084 268.436 28.8063C267.266 32.6758 265.862 37.3591 268.297 41.0031C269.528 42.8442 271.887 44.6249 274.231 44.3993C276.084 44.222 277.141 42.8684 278.249 41.8834C281.983 38.5597 285.297 40.292 291.687 38.5819C294.819 37.7439 300.155 35.2924 310.697 29.7993C316.991 26.522 321.541 23.9557 322.208 23.583C335.265 16.2831 371.979 3.41947 387.914 19.5564C394.247 25.97 395.489 34.0274 395.733 35.8887C397.655 50.6075 387.183 61.5252 385.528 63.1951C385.107 68.4445 383.993 75.3436 381.151 82.98C376.883 94.4476 370.607 102.499 366.206 107.277C364.317 106.941 362.428 106.602 360.538 106.262Z" fill="#7F8E35"/>
<path d="M333.966 11.4568C320.338 11.2997 305.722 12.6211 293.315 18.7004C287.726 21.4399 282.543 25.2571 279.103 30.5246C276.358 34.7305 274.974 39.4461 274.523 44.3248C276.183 44.0347 277.206 42.8141 278.249 41.8855C281.983 38.5618 285.297 40.2942 291.69 38.584C294.821 37.746 300.157 35.2925 310.701 29.8014C316.993 26.5241 321.545 23.9578 322.212 23.5852C328.578 20.0238 340.578 15.1652 353.046 12.9676C346.725 12.0652 340.347 11.5314 333.966 11.4568Z" fill="url(#paint0_linear_3316_579095)"/>
<path d="M395.735 35.8908C395.493 34.0295 394.251 25.9722 387.916 19.5585C379.965 11.5072 366.843 10.6773 354.067 12.7722C376.069 29.7169 378.293 58.0365 378.466 60.8767C378.776 65.9508 379.318 77.0539 373.423 89.3131C370.055 96.317 365.729 101.325 362.319 104.61C362.476 104.725 362.637 104.836 362.744 105.001C362.931 105.206 363.058 105.446 363.125 105.722C363.263 106.072 363.374 106.433 363.489 106.794C364.395 106.957 365.302 107.12 366.208 107.281C370.609 102.501 376.885 94.4517 381.153 82.9841C383.995 75.3477 385.109 68.4486 385.532 63.1992C387.185 61.5273 397.659 50.6096 395.735 35.8908Z" fill="url(#paint1_linear_3316_579095)"/>
<path d="M360.567 110.556C365.636 105.668 371.755 100.434 379.026 95.336C383.304 92.3367 387.461 89.7463 391.403 87.5083C394.537 83.6529 399.651 78.1175 407.101 73.0836C415.854 67.1715 422.386 65.6326 430.42 62.1437C445.194 55.7281 450.811 48.8975 460.07 42.5261C470.52 35.3369 478.004 31.8037 485.203 30.2527C487.767 29.7007 487.404 30.009 494.462 29.2234C515.626 26.8706 520.403 24.1694 530.234 26.1374C534.496 26.9915 541.02 28.2967 542.478 32.5953C543.685 36.1567 540.917 40.3022 536.929 46.2748C533.995 50.6701 531.135 53.885 528.818 56.3143C524.687 60.6471 518.941 66.678 510.204 72.0724C504.164 75.803 498.756 77.9543 492.264 80.1641C468.348 88.304 447.252 91.257 446.223 91.392C424.559 94.2383 406.36 93.7467 393.739 92.7395C390.351 94.5645 386.7 96.7985 382.944 99.536C375.091 105.259 369.239 111.39 365.016 116.626C363.535 114.603 362.051 112.581 360.567 110.556Z" fill="#7F8E35"/>
<path d="M363.916 110.59C368.083 106.882 372.971 102.936 378.621 99.0242C384.011 95.2896 389.181 92.2177 393.92 89.6917C397.544 87.0428 403.093 83.3808 410.368 80.0874C418.648 76.3407 425.299 74.9689 428.876 73.9637C442.374 70.1727 455.45 65.3444 468.693 60.7557C483.056 55.7803 497.442 50.8089 511.425 44.8202C517.286 42.3083 523.143 39.7099 528.919 37.0107C533.084 35.0648 537.121 32.8732 540.68 30.0249C538.049 27.7185 533.495 26.7919 530.243 26.1413C520.412 24.1733 515.634 26.8765 494.47 29.2272C487.412 30.0108 487.773 29.7046 485.211 30.2566C478.012 31.8056 470.526 35.3407 460.079 42.5299C450.82 48.9013 445.202 55.7319 430.429 62.1476C422.394 65.6365 415.862 67.1734 407.109 73.0875C399.657 78.1213 394.545 83.6587 391.411 87.5122C387.469 89.7501 383.312 92.3386 379.034 95.3399C371.763 100.438 365.644 105.671 360.575 110.56C362.059 112.585 363.543 114.609 365.028 116.632C365.237 116.525 366.552 115.836 366.814 114.492C367.098 112.977 365.948 111.189 363.916 110.59Z" fill="url(#paint2_linear_3316_579095)"/>
<path d="M360.456 104.334C363.644 101.144 365.026 97.0343 363.817 93.6884C363.541 92.923 362.998 91.8353 361.856 90.7475C361.118 91.3317 359.926 92.222 358.353 93.1285C352.232 96.6576 346.788 96.7381 339.799 97.5942C329.146 98.8975 331.118 100.017 325.041 100.267C315.607 100.656 308.638 98.3133 297.764 94.4841C286.789 90.6186 282.701 87.5648 280.461 85.6552C276.858 82.5834 272.783 79.1066 272.858 74.5905C272.95 69.0168 279.311 65.1794 285.395 61.5093C297.386 54.2778 308.816 53.8911 311.243 53.8468C317.968 53.7259 323.632 55.0231 327.116 55.8228C330.012 56.4855 333.467 58.2038 338.198 59.2432C347.094 61.1991 353.606 68.5112 357.366 72.7312C360.832 76.623 364.405 80.569 366.121 86.8397C368.921 97.0685 365.086 106.02 363.507 109.247C362.49 107.61 361.473 105.972 360.456 104.334Z" fill="#7F8E35"/>
<path d="M364.488 107.031C364.734 105.754 365.072 103.826 365.344 101.459C365.982 95.932 366.301 93.1704 365.205 91.1379C364.319 89.4962 363.175 88.4004 356.766 86.2431C352.959 84.962 349.336 83.286 345.618 81.7712C336.901 78.222 327.785 75.99 318.403 75.142C303.388 73.7823 288.431 75.7806 273.55 77.8694C274.854 80.8587 277.784 83.3666 280.461 85.6508C282.701 87.5604 286.789 90.6162 297.764 94.4797C308.638 98.309 315.607 100.654 325.041 100.263C331.118 100.011 329.146 98.8931 339.799 97.5898C346.788 96.7338 352.234 96.6532 358.353 93.124C359.924 92.2176 361.118 91.3272 361.856 90.7431C362.998 91.8328 363.539 92.9206 363.817 93.684C365.026 97.0319 363.644 101.141 360.456 104.33C361.473 105.967 362.49 107.605 363.507 109.243C363.632 108.987 363.789 108.636 363.938 108.312C364.121 107.887 364.305 107.46 364.488 107.031Z" fill="url(#paint3_linear_3316_579095)"/>
<path d="M360.538 106.262C364.097 103.121 369.439 97.6001 373.425 89.3111C379.32 77.0497 378.778 65.9487 378.468 60.8746C378.281 57.8168 375.755 25.1925 348.671 9.06566C323.488 -5.92911 294.578 0.911653 288.715 6.6767C283.065 12.2343 276.626 15.014 276.624 15.014C274.553 17.1533 270.553 21.8084 268.436 28.8063C267.266 32.6758 265.862 37.3591 268.297 41.0031C269.528 42.8442 271.887 44.6249 274.231 44.3993C276.084 44.222 277.141 42.8684 278.249 41.8834C281.983 38.5597 285.297 40.292 291.687 38.5819C294.819 37.7439 300.155 35.2924 310.697 29.7993C316.991 26.522 321.541 23.9557 322.208 23.583C335.265 16.2831 371.979 3.41947 387.914 19.5564C394.247 25.97 395.489 34.0274 395.733 35.8887C397.655 50.6075 387.183 61.5252 385.528 63.1951C385.107 68.4445 383.993 75.3436 381.151 82.98C376.883 94.4476 370.607 102.499 366.206 107.277C364.317 106.941 362.428 106.602 360.538 106.262Z" fill="url(#paint4_linear_3316_579095)"/>
<path d="M360.567 110.556C365.636 105.668 371.755 100.434 379.026 95.336C383.304 92.3367 387.461 89.7463 391.403 87.5083C394.537 83.6529 399.651 78.1175 407.101 73.0836C415.854 67.1715 422.386 65.6326 430.42 62.1437C445.194 55.7281 450.811 48.8975 460.07 42.5261C470.52 35.3369 478.004 31.8037 485.203 30.2527C487.767 29.7007 487.404 30.009 494.462 29.2234C515.626 26.8706 520.403 24.1694 530.234 26.1374C534.496 26.9915 541.02 28.2967 542.478 32.5953C543.685 36.1567 540.917 40.3022 536.929 46.2748C533.995 50.6701 531.135 53.885 528.818 56.3143C524.687 60.6471 518.941 66.678 510.204 72.0724C504.164 75.803 498.756 77.9543 492.264 80.1641C468.348 88.304 447.252 91.257 446.223 91.392C424.559 94.2383 406.36 93.7467 393.739 92.7395C390.351 94.5645 386.7 96.7985 382.944 99.536C375.091 105.259 369.239 111.39 365.016 116.626C363.535 114.603 362.051 112.581 360.567 110.556Z" fill="url(#paint5_linear_3316_579095)"/>
<path d="M360.456 104.334C363.644 101.144 365.026 97.0343 363.817 93.6884C363.541 92.923 362.998 91.8353 361.856 90.7475C361.118 91.3317 359.926 92.222 358.353 93.1285C352.232 96.6576 346.788 96.7381 339.799 97.5942C329.146 98.8975 331.118 100.017 325.041 100.267C315.607 100.656 308.638 98.3133 297.764 94.4841C286.789 90.6186 282.701 87.5648 280.461 85.6552C276.858 82.5834 272.783 79.1066 272.858 74.5905C272.95 69.0168 279.311 65.1794 285.395 61.5093C297.386 54.2778 308.816 53.8911 311.243 53.8468C317.968 53.7259 323.632 55.0231 327.116 55.8228C330.012 56.4855 333.467 58.2038 338.198 59.2432C347.094 61.1991 353.606 68.5112 357.366 72.7312C360.832 76.623 364.405 80.569 366.121 86.8397C368.921 97.0685 365.086 106.02 363.507 109.247C362.49 107.61 361.473 105.972 360.456 104.334Z" fill="url(#paint6_linear_3316_579095)"/>
<path d="M180.723 272.165C187.747 198.575 161.088 146.339 129.824 140.689C129.021 140.544 119.609 141.378 109.361 144.744C108.569 145.004 105.931 145.987 100.652 147.951C94.0494 150.408 92.3536 151.099 90.2991 152.434C87.278 154.402 85.1913 156.657 83.8438 158.367C82.9375 158.5 81.6908 158.836 80.6676 159.785C79.8599 160.536 79.5215 161.362 79.3745 161.696C78.1862 164.404 75.8317 165.842 73.9585 167.949C71.6081 170.592 68.9313 175.509 69.9645 177.273C71.9867 180.728 88.3212 172.28 109.584 166.718C124.914 162.708 147.142 157.019 170.753 164.339C181.084 167.542 189.793 170.35 195.996 178.605C206.701 192.85 201.402 212.561 195.332 235.143C191.023 251.173 185.203 263.743 180.723 272.165Z" fill="#7F8E35"/>
<path d="M129.824 140.689C129.021 140.544 119.609 141.378 109.361 144.744C108.569 145.004 105.931 145.985 100.652 147.949C94.0495 150.406 92.3536 151.097 90.3012 152.432C87.2801 154.4 85.1934 156.655 83.846 158.365C82.9396 158.498 81.6929 158.834 80.6717 159.783C79.862 160.534 79.5257 161.36 79.3787 161.694C78.1903 164.402 75.8358 165.84 73.9627 167.947C71.6122 170.59 68.9354 175.507 69.9687 177.271C71.9909 180.724 88.3254 172.278 109.588 166.716C122.348 163.378 139.893 158.905 159.031 161.711C150.596 149.961 140.479 142.615 129.824 140.689Z" fill="url(#paint7_linear_3316_579095)"/>
<path d="M196 178.601C189.797 170.346 181.088 167.538 170.757 164.335C166.8 163.109 162.884 162.273 159.031 161.709C175.181 184.205 185.136 222.878 180.844 270.715L181.261 271.132C185.664 262.728 191.193 250.555 195.338 235.139C201.406 212.557 206.704 192.846 196 178.601Z" fill="url(#paint8_linear_3316_579095)"/>
<path d="M196 178.601C189.797 170.346 181.088 167.538 170.757 164.335C166.8 163.109 162.884 162.273 159.031 161.709C175.181 184.205 185.136 222.878 180.844 270.715L181.261 271.132C185.664 262.728 191.193 250.555 195.338 235.139C201.406 212.557 206.704 192.846 196 178.601Z" fill="url(#paint9_linear_3316_579095)"/>
<path d="M186.159 273.071C185.7 259.704 185.916 240.504 189.33 217.798C191.68 202.167 192.518 194.303 194.373 188.87C197.082 180.929 197.06 176.427 198.101 172.646C200.079 165.473 200.464 165.717 202.736 157.76C205.9 146.68 205.563 144.782 208.236 139.603C210.577 135.071 213.149 132.045 215.032 129.832C218.452 125.809 221.956 122.953 228.968 117.244C232.283 114.543 233.955 113.191 234.629 113.143C243.022 112.522 257.649 140.866 254.781 167.453C253.443 179.848 250.974 190.659 235.532 208.105C221.956 223.436 206.226 244.141 186.159 273.071Z" fill="#7F8E35"/>
<path d="M234.631 113.141C234.533 113.149 234.363 113.243 234.22 113.306C235.626 121.911 234.97 130.913 233.663 139.436C229.993 163.364 221.374 186.735 211.312 208.629C205.551 221.164 200.133 233.616 196.576 246.986C195.118 252.465 193.922 258.002 192.816 263.56C209.757 239.539 223.501 221.696 235.534 208.101C250.976 190.655 253.445 179.846 254.783 167.449C257.651 140.864 243.024 112.52 234.631 113.141Z" fill="url(#paint10_linear_3316_579095)"/>
<path d="M186.159 273.071C185.7 259.704 185.916 240.504 189.33 217.798C191.68 202.167 192.518 194.303 194.373 188.87C197.082 180.929 197.06 176.427 198.101 172.646C200.079 165.473 200.464 165.717 202.736 157.76C205.9 146.68 205.563 144.782 208.236 139.603C210.577 135.071 213.149 132.045 215.032 129.832C218.452 125.809 221.956 122.953 228.968 117.244C232.283 114.543 233.955 113.191 234.629 113.143C243.022 112.522 257.649 140.866 254.781 167.453C253.443 179.848 250.974 190.659 235.532 208.105C221.956 223.436 206.226 244.141 186.159 273.071Z" fill="url(#paint11_linear_3316_579095)"/>
<path d="M190.468 268.408C203.771 266.783 224.142 265.576 248.203 269.724C253.488 270.634 262.9 273.243 272.567 276.061C291.44 281.562 289.299 282.337 299.464 284.664C315.418 288.314 327.881 289.772 338.784 290.282C338.784 290.282 370.361 291.758 386.915 281.918C390.225 279.95 392.444 277.702 393.159 274.818C394.075 271.115 392.172 267.735 390.345 264.494C387.592 259.604 384.134 256.608 380.061 253.144C375.904 249.604 374.754 249.884 371.092 246.301C365.892 241.211 363.294 238.666 360.921 235.989C353.646 227.779 336.222 226.389 318.516 226.669C299.303 226.973 283.462 227.225 261.313 233.274C230.752 241.621 207.056 255.857 190.468 268.408Z" fill="#7F8E35"/>
<path d="M190.468 268.408C191.434 266.011 210.458 271.212 226.331 278.015C237.415 282.763 243.598 286.85 248.696 291.305C251.76 293.982 256.275 297.993 260.223 304.636C262.322 308.169 263.758 312.72 266.628 321.821C270.787 335.008 270.831 338.753 269.23 342.103C268.078 344.516 267.363 344.021 265.268 347.147C259.48 355.78 262.926 362.53 259.184 365.187C254.869 368.251 243.91 363.818 238.597 356.427C234.353 350.523 236.216 346.22 230.504 339.652C226.748 335.331 224.933 336.034 222.845 332.468C219.487 326.74 222.204 321.565 222.392 313.935C222.672 302.513 217.161 293.656 214.069 288.965C204.434 274.349 189.66 270.413 190.468 268.408Z" fill="#7F8E35"/>
<path d="M363.93 262.895C349.169 258.135 334.045 253.975 318.562 252.485C301.905 250.881 285.085 251.516 268.459 253.161C251.967 254.795 235.618 257.138 219.546 261.227C210.911 263.425 202.331 265.846 193.7 268.056C206.967 266.639 225.971 265.892 248.203 269.723C253.488 270.634 262.9 273.242 272.567 276.061C291.44 281.562 289.299 282.337 299.464 284.664C315.418 288.314 327.881 289.772 338.786 290.284C338.786 290.284 370.363 291.76 386.917 281.92C390.226 279.952 392.446 277.704 393.161 274.82C393.286 274.314 393.35 273.814 393.377 273.319C383.624 269.657 373.842 266.092 363.93 262.895Z" fill="url(#paint12_linear_3316_579095)"/>
<path d="M255.832 356.852C254.066 347.958 252.889 339.073 250.352 330.331C247.566 320.735 243.743 311.527 238.029 303.293C227.461 288.06 212.077 275.775 194.113 270.666C192.693 270.263 192.395 268.894 192.812 267.826C191.483 267.776 190.651 267.957 190.468 268.41C189.66 270.412 204.436 274.35 214.067 288.968C217.159 293.658 222.67 302.517 222.39 313.938C222.202 321.567 219.485 326.742 222.843 332.472C224.931 336.038 226.746 335.333 230.502 339.655C236.214 346.224 234.349 350.529 238.595 356.431C243.657 363.471 253.774 367.747 258.458 365.497C257.278 362.772 256.428 359.847 255.832 356.852Z" fill="url(#paint13_linear_3316_579095)"/>
<path d="M190.468 268.408C203.771 266.783 224.142 265.576 248.203 269.724C253.488 270.634 262.9 273.243 272.567 276.061C291.44 281.562 289.299 282.337 299.464 284.664C315.418 288.314 327.881 289.772 338.784 290.282C338.784 290.282 370.361 291.758 386.915 281.918C390.225 279.95 392.444 277.702 393.159 274.818C394.075 271.115 392.172 267.735 390.345 264.494C387.592 259.604 384.134 256.608 380.061 253.144C375.904 249.604 374.754 249.884 371.092 246.301C365.892 241.211 363.294 238.666 360.921 235.989C353.646 227.779 336.222 226.389 318.516 226.669C299.303 226.973 283.462 227.225 261.313 233.274C230.752 241.621 207.056 255.857 190.468 268.408Z" fill="url(#paint14_linear_3316_579095)"/>
<path d="M190.468 268.408C191.434 266.011 210.458 271.212 226.331 278.015C237.415 282.763 243.598 286.85 248.696 291.305C251.76 293.982 256.275 297.993 260.223 304.636C262.322 308.169 263.758 312.72 266.628 321.821C270.787 335.008 270.831 338.753 269.23 342.103C268.078 344.516 267.363 344.021 265.268 347.147C259.48 355.78 262.926 362.53 259.184 365.187C254.869 368.251 243.91 363.818 238.597 356.427C234.353 350.523 236.216 346.22 230.504 339.652C226.748 335.331 224.933 336.034 222.845 332.468C219.487 326.74 222.204 321.565 222.392 313.935C222.672 302.513 217.161 293.656 214.069 288.965C204.434 274.349 189.66 270.413 190.468 268.408Z" fill="url(#paint15_linear_3316_579095)"/>
<path d="M137.116 263.239C132.564 263.395 129.279 269.395 124.485 278.154C122.596 281.606 120.602 285.252 118.886 290.306C110.684 314.484 112.034 340.759 112.034 340.759C112.936 358.326 112.086 384.912 105.359 426.814C107.437 428 109.518 429.185 111.597 430.371C123.953 414.337 140.465 390.393 153.378 361.565C163.339 341.237 166.435 322.501 164.898 311.152C163.817 303.18 159.194 289.589 158.755 288.31C158.226 286.765 157.039 284.978 156.23 282.37C155.301 279.378 152.912 276.909 148.137 271.97C142.403 266.037 139.442 263.161 137.116 263.239Z" fill="#7F8E35"/>
<path d="M164.898 311.155C163.817 303.182 159.194 289.591 158.755 288.314C158.226 286.769 157.039 284.98 156.23 282.374C155.301 279.382 152.912 276.913 148.139 271.974C142.403 266.039 139.442 263.163 137.116 263.241C136.503 263.262 135.917 263.407 135.345 263.63C135.879 267.86 136.679 272.058 137.297 276.286C138.211 282.527 138.346 288.771 138.235 295.07C137.817 318.857 132.161 341.875 126.068 364.746C120.38 386.1 114.084 407.289 108.706 428.724C109.671 429.274 110.634 429.824 111.599 430.373C123.955 414.339 140.467 390.395 153.38 361.567C163.342 341.237 166.437 322.501 164.898 311.155Z" fill="url(#paint16_linear_3316_579095)"/>
<path d="M137.116 263.239C132.564 263.395 129.279 269.395 124.485 278.154C122.596 281.606 120.602 285.252 118.886 290.306C110.684 314.484 112.034 340.759 112.034 340.759C112.936 358.326 112.086 384.912 105.359 426.814C107.437 428 109.518 429.185 111.597 430.371C123.953 414.337 140.465 390.393 153.378 361.565C163.339 341.237 166.435 322.501 164.898 311.152C163.817 303.18 159.194 289.589 158.755 288.31C158.226 286.765 157.039 284.978 156.23 282.37C155.301 279.378 152.912 276.909 148.137 271.97C142.403 266.037 139.442 263.161 137.116 263.239Z" fill="url(#paint17_linear_3316_579095)"/>
<path d="M112.513 436.378C117.49 431.163 123.393 425.768 130.354 420.6C132.223 419.212 134.078 417.906 135.911 416.682C136.854 417.677 138.393 419.032 140.586 419.832C148.091 422.565 155.585 415.997 164.067 411.958C175.038 406.733 185.163 406.932 193.882 407.101C212.468 407.464 215.187 409.7 234.108 407.732C242.509 406.858 251.016 405.244 251.016 405.244C255.754 404.346 257.669 404.199 272.352 400.605C278.139 399.189 277.162 399.765 280.499 398.831C287.138 396.973 300.262 393.301 302.854 385.018C304.914 378.427 299.533 371.397 299.198 370.972C295.23 365.928 285.19 358.985 226.921 369.911C190.285 376.78 171.964 380.214 153.877 391.095C132.715 403.826 119.254 419.705 111.601 430.373C111.903 432.373 112.207 434.376 112.513 436.378Z" fill="#7F8E35"/>
<path d="M278.1 379.072C270.837 378.371 263.596 378.419 256.309 378.575C252.74 378.651 244.051 378.933 232.535 380.285C223.427 381.354 206.611 383.409 185.712 389.865C176.671 392.659 164.924 396.349 150.675 403.822C134.521 412.293 122.455 421.792 114.295 429.125C115.534 429.401 116.773 429.678 118.012 429.954C123.977 425.531 129.943 421.107 135.909 416.684C136.852 417.679 138.39 419.035 140.584 419.834C147.764 422.449 154.268 416.626 164.064 411.96C175.035 406.735 185.16 406.935 193.88 407.104C212.466 407.466 215.185 409.702 234.106 407.734C242.507 406.86 251.014 405.247 251.014 405.247C255.751 404.348 257.667 404.201 272.35 400.607C278.136 399.191 277.16 399.768 280.497 398.833C287.136 396.976 300.26 393.303 302.852 385.021C303.097 384.237 303.222 383.449 303.279 382.666C294.97 380.734 286.296 379.862 278.1 379.072Z" fill="url(#paint18_linear_3316_579095)"/>
<path d="M112.513 436.378C117.49 431.163 123.393 425.768 130.354 420.6C132.223 419.212 134.078 417.906 135.911 416.682C136.854 417.677 138.393 419.032 140.586 419.832C148.091 422.565 155.585 415.997 164.067 411.958C175.038 406.733 185.163 406.932 193.882 407.101C212.468 407.464 215.187 409.7 234.108 407.732C242.509 406.858 251.016 405.244 251.016 405.244C255.754 404.346 257.669 404.199 272.352 400.605C278.139 399.189 277.162 399.765 280.499 398.831C287.138 396.973 300.262 393.301 302.854 385.018C304.914 378.427 299.533 371.397 299.198 370.972C295.23 365.928 285.19 358.985 226.921 369.911C190.285 376.78 171.964 380.214 153.877 391.095C132.715 403.826 119.254 419.705 111.601 430.373C111.903 432.373 112.207 434.376 112.513 436.378Z" fill="url(#paint19_linear_3316_579095)"/>
<path d="M376.466 131.312C381.516 131.326 386.77 131.499 392.208 131.87C410.38 133.111 426.6 136.294 440.539 140.157C428.596 135.022 413.762 129.819 396.352 126.149C384.239 123.597 373.07 122.249 363.211 121.611C367.63 124.844 372.047 128.079 376.466 131.312Z" fill="#312B24"/>
<path d="M376.466 131.312C381.516 131.326 386.77 131.499 392.208 131.87C410.38 133.111 426.6 136.294 440.539 140.157C428.596 135.022 413.762 129.819 396.352 126.149C384.239 123.597 373.07 122.249 363.211 121.611C367.63 124.844 372.047 128.079 376.466 131.312Z" fill="url(#paint20_linear_3316_579095)"/>
<path d="M371.417 125.495C376.577 125.765 383.81 126.322 392.376 127.592C420.948 131.82 440.455 140.407 440.541 140.157C440.624 139.915 422.418 131.586 396.353 126.149C382.778 123.317 371.272 122.147 363.213 121.611C365.946 122.904 368.681 124.199 371.417 125.495Z" fill="url(#paint21_linear_3316_579095)"/>
<path d="M103.885 423.093C105.079 411.813 103.045 403.452 100.678 397.656C88.9981 369.027 48.6754 352.416 0 356.294C2.81172 350.871 6.13103 347.691 8.44325 345.876C10.5903 344.192 12.9025 342.977 17.5269 340.546C22.8019 337.774 25.4404 336.386 26.9067 335.959C34.7638 333.673 41.6541 336.275 50.2202 336.525C56.9514 336.723 57.0441 335.824 62.0854 336.467C69.1973 337.373 74.3273 339.839 77.4774 341.384C77.4774 341.384 87.8964 346.496 95.7012 355.172C106.648 367.337 111.921 393.712 103.885 423.093Z" fill="#7F8E35"/>
<path d="M103.885 423.093C105.079 411.813 103.045 403.452 100.678 397.656C88.9981 369.027 48.6754 352.416 0 356.294C2.81172 350.871 6.13103 347.691 8.44325 345.876C10.5903 344.192 12.9025 342.977 17.5269 340.546C22.8019 337.774 25.4404 336.386 26.9067 335.959C34.7638 333.673 41.6541 336.275 50.2202 336.525C56.9514 336.723 57.0441 335.824 62.0854 336.467C69.1973 337.373 74.3273 339.839 77.4774 341.384C77.4774 341.384 87.8964 346.496 95.7012 355.172C106.648 367.337 111.921 393.712 103.885 423.093Z" fill="url(#paint22_linear_3316_579095)"/>
<path d="M161.174 187.603C166.308 196.889 171.601 207.972 176.236 220.789C182.794 238.924 186.204 255.476 188.002 269.041C187.722 269.397 184.18 273.72 178.353 273.277C172.447 272.827 169.601 267.894 169.394 267.522C170.514 255.365 170.84 240.173 168.703 222.908C167.023 209.317 164.187 197.449 161.174 187.603Z" fill="#312B24"/>
<path d="M161.174 187.603C166.308 196.889 171.601 207.972 176.236 220.789C182.794 238.924 186.204 255.476 188.002 269.041C187.722 269.397 184.18 273.72 178.353 273.277C172.447 272.827 169.601 267.894 169.394 267.522C170.514 255.365 170.84 240.173 168.703 222.908C167.023 209.317 164.187 197.449 161.174 187.603Z" fill="url(#paint23_linear_3316_579095)"/>
<path d="M161.174 187.603C166.185 197.956 171.259 210.125 175.63 224.018C181.386 242.306 184.49 259.009 186.159 273.069C181.444 274.191 178.842 274.26 178.353 273.277C178.073 272.715 178.484 271.808 179.585 270.557C178.111 256.235 175.611 240.187 171.485 222.886C168.415 210.026 164.87 198.243 161.174 187.603Z" fill="url(#paint24_linear_3316_579095)"/>
<path d="M133.712 442.772C157.51 441.265 181.309 439.756 205.108 438.25C188.538 438.028 171.893 437.76 155.174 437.444C142.378 437.202 129.627 436.932 116.918 436.638C122.517 438.683 128.114 440.727 133.712 442.772Z" fill="#312B24"/>
<path d="M133.712 442.772C157.51 441.265 181.309 439.756 205.108 438.25C188.538 438.028 171.893 437.76 155.174 437.444C142.378 437.202 129.627 436.932 116.918 436.638C122.517 438.683 128.114 440.727 133.712 442.772Z" fill="url(#paint25_linear_3316_579095)"/>
<path d="M126.616 441.774C190.605 439.281 205.116 438.483 205.108 438.249C205.1 438.008 189.449 438.406 155.194 438.811C139.492 438.997 126.461 439.107 117.395 439.172C120.469 440.04 123.542 440.906 126.616 441.774Z" fill="url(#paint26_linear_3316_579095)"/>
<path d="M184.973 404.823C169.319 410.083 153.476 415.584 137.456 421.335C128.366 424.598 119.371 427.889 110.477 431.201C113.297 435.161 116.114 439.121 118.934 443.082C130.648 435.572 143.063 428.018 156.183 420.529C165.968 414.941 175.577 409.714 184.973 404.823Z" fill="#312B24"/>
<path d="M184.973 404.823C169.319 410.083 153.476 415.584 137.456 421.335C128.366 424.598 119.371 427.889 110.477 431.201C113.297 435.161 116.114 439.121 118.934 443.082C130.648 435.572 143.063 428.018 156.183 420.529C165.968 414.941 175.577 409.714 184.973 404.823Z" fill="url(#paint27_linear_3316_579095)"/>
<path d="M184.973 404.823C184.828 404.463 162.898 412.595 138.703 422.799C127.597 427.483 118.481 431.562 112.215 434.42C112.926 435.736 113.637 437.053 114.346 438.368C126.9 432.061 139.788 425.775 164.939 413.95C179.128 407.281 185.05 405.011 184.973 404.823Z" fill="url(#paint28_linear_3316_579095)"/>
<path d="M429.373 96.5929C429.504 97.0421 412.4 100.889 392.823 110.939C383.099 115.931 375.602 120.997 370.708 124.57C365.842 122.334 360.975 120.098 356.109 117.862C367.789 113.94 384.796 108.455 405.792 102.489C425.587 96.8627 429.313 96.3854 429.373 96.5929Z" fill="#312B24"/>
<path d="M429.373 96.5929C429.504 97.0421 412.4 100.889 392.823 110.939C383.099 115.931 375.602 120.997 370.708 124.57C365.842 122.334 360.975 120.098 356.109 117.862C367.789 113.94 384.796 108.455 405.792 102.489C425.587 96.8627 429.313 96.3854 429.373 96.5929Z" fill="url(#paint29_linear_3316_579095)"/>
<path d="M429.373 96.5928C429.417 96.7459 411.625 100.583 391.274 110.135C381.04 114.937 373.072 119.818 367.852 123.259C364.065 121.937 360.278 120.616 356.492 119.294C368.186 115.101 384.798 109.398 405.139 103.282C422.156 98.1619 429.345 96.4941 429.373 96.5928Z" fill="url(#paint30_linear_3316_579095)"/>
<path d="M376.454 131.322C372.506 131.407 366.565 131.789 359.562 133.445C359.562 133.445 349.672 135.695 340.208 140.491C296.874 162.395 219.119 266.263 219.119 266.263C181.09 317.115 161.567 343.221 138.689 378.196C128.757 393.35 120.692 406.211 114.962 415.507C115.43 418.563 116.404 422.554 118.57 426.798C123.111 435.883 130.199 440.721 133.722 442.758C124.978 444.881 106.134 450.696 89.4533 467.504C78.1642 478.836 72.2648 490.723 69.2496 498.406C68.019 499 65.302 500.231 61.5678 500.74C59.318 501.079 56.6453 501.123 53.7168 500.613C46.0772 499.256 41.4084 494.798 39.922 493.227C113.391 381.336 164.618 298.138 166.147 289.819C166.443 288.29 166.699 286.805 166.699 286.805C166.868 285.87 167.039 284.938 167.166 284.003L166.403 281.838C165.64 279.715 164.832 277.509 163.942 275.259C160.165 265.538 155.283 254.842 148.916 243.636C139.962 227.761 130.326 214.772 121.54 204.499C120.394 203.184 119.164 201.782 117.848 200.297C127.397 209.126 137.414 219.059 147.517 230.222C159.146 242.999 169.205 255.478 177.948 267.278H178.075L186.734 267.022C208.931 239.305 236.009 208.87 268.648 177.926C299.885 148.297 330.316 123.805 358.075 103.685C358.838 102.795 360.027 101.776 361.513 101.649C362.702 101.607 363.423 102.158 364.74 102.795C368.516 104.662 370.087 103.601 371.828 104.96C372.974 105.808 374.12 107.678 373.908 112.049C373.356 113.153 372.083 116.124 372.083 120.03C372.083 121.049 372.168 122.153 372.424 123.297C373.27 127.376 375.393 130.091 376.454 131.322Z" fill="#312B24"/>
<path d="M376.454 131.322C372.506 131.407 366.565 131.79 359.562 133.445C359.562 133.445 349.672 135.695 340.208 140.492C296.874 162.395 219.119 266.263 219.119 266.263C181.09 317.115 161.567 343.221 138.689 378.196C128.757 393.35 120.692 406.211 114.962 415.507C115.43 418.563 116.404 422.554 118.57 426.798C123.111 435.883 130.199 440.721 133.722 442.758C124.978 444.881 106.134 450.696 89.4533 467.504C78.1642 478.836 72.2648 490.723 69.2496 498.406C68.019 499 65.302 500.231 61.5678 500.74C59.318 501.079 56.6453 501.123 53.7168 500.613C46.0772 499.256 41.4084 494.798 39.922 493.227C100.743 400.565 146.368 327.598 161.096 300.515C161.138 300.388 161.223 300.261 161.307 300.132C164.236 294.742 165.891 291.219 166.145 289.817C166.441 288.288 166.697 286.803 166.697 286.803C166.995 286.124 167.291 285.147 167.164 284.001C167.08 283.238 166.782 282.517 166.401 281.836C165.638 279.713 164.83 277.507 163.94 275.257C160.163 265.536 155.281 254.84 148.914 243.634C139.96 227.759 130.324 214.77 121.538 204.497C120.392 203.182 119.162 201.78 117.846 200.295C127.395 209.124 137.412 219.057 147.514 230.22C159.144 242.997 169.203 255.476 177.946 267.276H178.073L186.732 267.02C208.929 239.303 236.007 208.868 268.646 177.924C299.883 148.295 330.314 123.803 358.073 103.683C358.836 102.793 360.025 101.774 361.511 101.647C362.7 101.605 363.421 102.157 364.738 102.793C368.684 104.703 370.023 103.452 371.826 104.959C374.295 107.021 373.965 111.282 373.906 112.047C373.66 115.205 372.112 116.146 372.081 120.028C372.069 121.545 372.293 122.681 372.422 123.295C373.27 127.376 375.393 130.091 376.454 131.322Z" fill="url(#paint31_linear_3316_579095)"/>
<path d="M148.918 243.638C155.285 254.844 160.165 265.54 163.944 275.261C164.818 277.469 165.607 279.632 166.359 281.717C167.724 280.498 169.025 279.205 170.234 277.801C173.134 274.429 175.338 270.531 177.396 266.553C168.778 254.965 158.91 242.742 147.516 230.224C137.416 219.061 127.399 209.128 117.848 200.299C119.164 201.784 120.394 203.186 121.54 204.501C130.328 214.774 139.962 227.763 148.918 243.638Z" fill="url(#paint32_linear_3316_579095)"/>
<path d="M372.198 112.367C371.918 113.362 371.666 113.507 371.211 115.054C370.968 115.882 370.49 117.506 370.458 119.347C370.406 122.187 371.431 124.377 372.081 125.728C373.461 128.593 375.078 129.995 374.806 130.279C374.541 130.555 372.732 129.509 371.213 128.049C368.591 125.527 368.76 123.625 366.863 122.364C365.866 121.702 364.154 121.12 361.09 121.859C361.09 121.859 350.905 124.236 341.142 129.203C296.493 151.913 216.361 259.686 216.361 259.686C177.144 312.448 157.07 339.531 133.47 375.823C123.24 391.571 114.922 404.9 109.023 414.535C109.49 417.677 110.507 421.837 112.715 426.292C117.426 435.673 124.727 440.725 128.334 442.846C119.379 445.012 99.9389 451.039 82.7081 468.485C71.1208 480.243 65.0523 492.595 61.9123 500.575C61.8277 500.618 61.7008 500.66 61.5719 500.745C59.3221 501.083 56.6493 501.127 53.7208 500.618C46.0812 499.26 41.4125 494.802 39.9261 493.231C100.747 400.569 146.373 327.602 161.1 300.519C161.142 300.392 161.227 300.265 161.311 300.136C163.773 296.613 166.32 293.09 168.909 289.525C170.564 287.275 172.22 285.025 173.831 282.775C172.373 279.564 170.034 274.566 166.927 268.571C165.988 266.763 150.004 236.187 134.868 219.401C130.479 214.533 127.5 211.189 121.54 204.503C118.346 200.92 117.824 200.324 117.848 200.301C117.971 200.189 133.081 215.84 148.342 232.821C156.701 242.119 166.782 253.683 177.946 267.284H178.073L186.732 267.028C208.929 239.311 236.007 208.876 268.646 177.932C299.883 148.303 330.314 123.811 358.073 103.692C358.836 102.801 360.025 101.782 361.511 101.655C362.651 101.558 363.374 102.088 364.738 102.801C369.346 105.214 370.291 104.225 371.493 105.803C373.32 108.192 372.307 111.977 372.198 112.367Z" fill="url(#paint33_linear_3316_579095)"/>
<path d="M134.868 219.401C148.959 235.107 159.188 246.313 166.699 262.315C168.075 265.238 169.835 269.371 171.515 274.564C171.631 274.369 171.766 274.177 171.881 273.98C173.575 271.081 174.985 268.015 176.101 264.849C167.783 253.764 158.356 242.135 147.514 230.224C137.414 219.061 127.397 209.128 117.846 200.299C119.162 201.784 120.392 203.186 121.538 204.501C127.611 211.294 132.237 216.472 134.868 219.401Z" fill="url(#paint34_linear_3316_579095)"/>
<defs>
<linearGradient id="paint0_linear_3316_579095" x1="310.745" y1="-5.81128" x2="315.034" y2="42.7969" gradientUnits="userSpaceOnUse">
<stop stop-color="#3E542A"/>
<stop offset="1" stop-color="#3E542A" stop-opacity="0"/>
</linearGradient>
<linearGradient id="paint1_linear_3316_579095" x1="337.301" y1="24.3774" x2="405.943" y2="93.7115" gradientUnits="userSpaceOnUse">
<stop stop-color="#3E542A"/>
<stop offset="1" stop-color="#3E542A" stop-opacity="0"/>
</linearGradient>
<linearGradient id="paint2_linear_3316_579095" x1="451.857" y1="128.365" x2="449.778" y2="30.6627" gradientUnits="userSpaceOnUse">
<stop stop-color="#3E542A"/>
<stop offset="1" stop-color="#3E542A" stop-opacity="0"/>
</linearGradient>
<linearGradient id="paint3_linear_3316_579095" x1="452.103" y1="54.9676" x2="243.456" y2="115.237" gradientUnits="userSpaceOnUse">
<stop stop-color="#3E542A"/>
<stop offset="1" stop-color="#3E542A" stop-opacity="0"/>
</linearGradient>
<linearGradient id="paint4_linear_3316_579095" x1="154.171" y1="127.234" x2="334.939" y2="53.4729" gradientUnits="userSpaceOnUse">
<stop stop-color="#EABA4E"/>
<stop offset="1" stop-color="#EABA4E" stop-opacity="0"/>
</linearGradient>
<linearGradient id="paint5_linear_3316_579095" x1="764.36" y1="-60.0359" x2="470.244" y2="62.6681" gradientUnits="userSpaceOnUse">
<stop stop-color="#EABA4E"/>
<stop offset="1" stop-color="#EABA4E" stop-opacity="0"/>
</linearGradient>
<linearGradient id="paint6_linear_3316_579095" x1="94.7832" y1="69.7845" x2="342.666" y2="81.7454" gradientUnits="userSpaceOnUse">
<stop stop-color="#EABA4E"/>
<stop offset="1" stop-color="#EABA4E" stop-opacity="0"/>
</linearGradient>
<linearGradient id="paint7_linear_3316_579095" x1="148.814" y1="189.649" x2="82.5369" y2="145.902" gradientUnits="userSpaceOnUse">
<stop stop-color="#3E542A"/>
<stop offset="1" stop-color="#3E542A" stop-opacity="0"/>
</linearGradient>
<linearGradient id="paint8_linear_3316_579095" x1="152.49" y1="273.441" x2="185.638" y2="173.369" gradientUnits="userSpaceOnUse">
<stop stop-color="#3E542A"/>
<stop offset="1" stop-color="#3E542A" stop-opacity="0"/>
</linearGradient>
<linearGradient id="paint9_linear_3316_579095" x1="119.943" y1="77.7629" x2="177.808" y2="201.252" gradientUnits="userSpaceOnUse">
<stop stop-color="#EABA4E"/>
<stop offset="1" stop-color="#EABA4E" stop-opacity="0"/>
</linearGradient>
<linearGradient id="paint10_linear_3316_579095" x1="73.0243" y1="199.577" x2="300.375" y2="181.439" gradientUnits="userSpaceOnUse">
<stop stop-color="#3E542A"/>
<stop offset="1" stop-color="#3E542A" stop-opacity="0"/>
</linearGradient>
<linearGradient id="paint11_linear_3316_579095" x1="233.461" y1="15.9981" x2="221.369" y2="195.626" gradientUnits="userSpaceOnUse">
<stop stop-color="#EABA4E"/>
<stop offset="1" stop-color="#EABA4E" stop-opacity="0"/>
</linearGradient>
<linearGradient id="paint12_linear_3316_579095" x1="201.071" y1="151.264" x2="348.584" y2="341.739" gradientUnits="userSpaceOnUse">
<stop stop-color="#3E542A"/>
<stop offset="1" stop-color="#3E542A" stop-opacity="0"/>
</linearGradient>
<linearGradient id="paint13_linear_3316_579095" x1="245.217" y1="249.488" x2="206.698" y2="374.664" gradientUnits="userSpaceOnUse">
<stop stop-color="#3E542A"/>
<stop offset="1" stop-color="#3E542A" stop-opacity="0"/>
</linearGradient>
<linearGradient id="paint14_linear_3316_579095" x1="659.479" y1="250.08" x2="289.037" y2="259.577" gradientUnits="userSpaceOnUse">
<stop stop-color="#EABA4E"/>
<stop offset="1" stop-color="#EABA4E" stop-opacity="0"/>
</linearGradient>
<linearGradient id="paint15_linear_3316_579095" x1="452.377" y1="518.99" x2="218.345" y2="300.526" gradientUnits="userSpaceOnUse">
<stop stop-color="#EABA4E"/>
<stop offset="1" stop-color="#EABA4E" stop-opacity="0"/>
</linearGradient>
<linearGradient id="paint16_linear_3316_579095" x1="105.361" y1="346.804" x2="165.272" y2="346.804" gradientUnits="userSpaceOnUse">
<stop stop-color="#3E542A"/>
<stop offset="1" stop-color="#3E542A" stop-opacity="0"/>
</linearGradient>
<linearGradient id="paint17_linear_3316_579095" x1="8.70275" y1="56.8316" x2="133.069" y2="359.944" gradientUnits="userSpaceOnUse">
<stop stop-color="#EABA4E"/>
<stop offset="1" stop-color="#EABA4E" stop-opacity="0"/>
</linearGradient>
<linearGradient id="paint18_linear_3316_579095" x1="136.428" y1="354.088" x2="262.44" y2="444.284" gradientUnits="userSpaceOnUse">
<stop stop-color="#3E542A"/>
<stop offset="1" stop-color="#3E542A" stop-opacity="0"/>
</linearGradient>
<linearGradient id="paint19_linear_3316_579095" x1="516.229" y1="353.661" x2="206.231" y2="397.694" gradientUnits="userSpaceOnUse">
<stop stop-color="#EABA4E"/>
<stop offset="1" stop-color="#EABA4E" stop-opacity="0"/>
</linearGradient>
<linearGradient id="paint20_linear_3316_579095" x1="548.594" y1="112.406" x2="306.825" y2="142.847" gradientUnits="userSpaceOnUse">
<stop stop-color="#E0C9AD"/>
<stop offset="1" stop-color="#E0C9AD" stop-opacity="0"/>
</linearGradient>
<linearGradient id="paint21_linear_3316_579095" x1="450.437" y1="133.593" x2="369.558" y2="129.086" gradientUnits="userSpaceOnUse">
<stop stop-color="#EABA4E"/>
<stop offset="1" stop-color="#EABA4E" stop-opacity="0"/>
</linearGradient>
<linearGradient id="paint22_linear_3316_579095" x1="55.5133" y1="415.063" x2="51.0509" y2="304.627" gradientUnits="userSpaceOnUse">
<stop stop-color="#3E542A"/>
<stop offset="1" stop-color="#3E542A" stop-opacity="0"/>
</linearGradient>
<linearGradient id="paint23_linear_3316_579095" x1="121.368" y1="133.005" x2="194.212" y2="288.778" gradientUnits="userSpaceOnUse">
<stop stop-color="#E0C9AD"/>
<stop offset="1" stop-color="#E0C9AD" stop-opacity="0"/>
</linearGradient>
<linearGradient id="paint24_linear_3316_579095" x1="84.1307" y1="98.8795" x2="208.211" y2="289.476" gradientUnits="userSpaceOnUse">
<stop stop-color="#EABA4E"/>
<stop offset="1" stop-color="#EABA4E" stop-opacity="0"/>
</linearGradient>
<linearGradient id="paint25_linear_3316_579095" x1="300.655" y1="302.586" x2="127.467" y2="469.807" gradientUnits="userSpaceOnUse">
<stop stop-color="#E0C9AD"/>
<stop offset="1" stop-color="#E0C9AD" stop-opacity="0"/>
</linearGradient>
<linearGradient id="paint26_linear_3316_579095" x1="209.267" y1="398.368" x2="150.25" y2="447.945" gradientUnits="userSpaceOnUse">
<stop stop-color="#EABA4E"/>
<stop offset="1" stop-color="#EABA4E" stop-opacity="0"/>
</linearGradient>
<linearGradient id="paint27_linear_3316_579095" x1="284.534" y1="285.889" x2="111.345" y2="453.11" gradientUnits="userSpaceOnUse">
<stop stop-color="#E0C9AD"/>
<stop offset="1" stop-color="#E0C9AD" stop-opacity="0"/>
</linearGradient>
<linearGradient id="paint28_linear_3316_579095" x1="194.327" y1="381.203" x2="136.045" y2="430.164" gradientUnits="userSpaceOnUse">
<stop stop-color="#EABA4E"/>
<stop offset="1" stop-color="#EABA4E" stop-opacity="0"/>
</linearGradient>
<linearGradient id="paint29_linear_3316_579095" x1="546.044" y1="92.1541" x2="304.275" y2="122.596" gradientUnits="userSpaceOnUse">
<stop stop-color="#E0C9AD"/>
<stop offset="1" stop-color="#E0C9AD" stop-opacity="0"/>
</linearGradient>
<linearGradient id="paint30_linear_3316_579095" x1="442.819" y1="86.4764" x2="380.718" y2="113.267" gradientUnits="userSpaceOnUse">
<stop stop-color="#EABA4E"/>
<stop offset="1" stop-color="#EABA4E" stop-opacity="0"/>
</linearGradient>
<linearGradient id="paint31_linear_3316_579095" x1="1370.01" y1="132.908" x2="-38.187" y2="337.428" gradientUnits="userSpaceOnUse">
<stop stop-color="#E0C9AD"/>
<stop offset="1" stop-color="#E0C9AD" stop-opacity="0"/>
</linearGradient>
<linearGradient id="paint32_linear_3316_579095" x1="31.629" y1="170.558" x2="167.759" y2="257.351" gradientUnits="userSpaceOnUse">
<stop stop-color="#E0C9AD"/>
<stop offset="1" stop-color="#E0C9AD" stop-opacity="0"/>
</linearGradient>
<linearGradient id="paint33_linear_3316_579095" x1="53.8831" y1="-163.874" x2="245.035" y2="418.891" gradientUnits="userSpaceOnUse">
<stop stop-color="#EABA4E"/>
<stop offset="1" stop-color="#EABA4E" stop-opacity="0"/>
</linearGradient>
<linearGradient id="paint34_linear_3316_579095" x1="12.4409" y1="161.238" x2="178.679" y2="256.999" gradientUnits="userSpaceOnUse">
<stop stop-color="#EABA4E"/>
<stop offset="1" stop-color="#EABA4E" stop-opacity="0"/>
</linearGradient>
</defs>
</svg>
