<svg width="643" height="545" viewBox="0 0 643 545" fill="none" xmlns="http://www.w3.org/2000/svg">
<path d="M267.227 267.199C268.74 262.218 271.245 251.452 268.012 238.568C266.722 233.435 262.289 219.066 249.58 209.938C242.421 204.796 239.6 206.318 233.111 200.526C223.682 192.11 227.173 186.697 220.17 181.31C208.041 171.978 190.682 182.914 182.132 172.68C179.47 169.495 179.239 166.144 177.033 166.013C172.134 165.724 167.59 181.954 167.23 183.27C165.449 189.774 158.767 214.194 171.544 229.549C176.776 235.836 181.072 235.556 188.014 244.845C193.302 251.919 194.68 257.256 196.25 260.141C200.707 268.334 216.589 274.892 267.227 267.199Z" fill="#7F8E35"/>
<path d="M353.375 195.094C354.854 174.614 347.083 163.53 344.123 159.839C333.237 146.268 316.813 144.654 288.514 141.87C279.055 140.941 248.136 137.902 245.31 146.575C245.051 147.37 244.824 148.898 251.299 158.553C259.883 171.352 264.175 177.751 268.837 179.943C278.564 184.515 284.405 178.21 294.931 184.221C300.446 187.371 298.847 189.103 303.913 191.923C313.198 197.087 320.775 192.498 338.135 193.207C344.405 193.464 349.628 194.316 353.375 195.094Z" fill="#7F8E35"/>
<path d="M267.227 267.199C268.74 262.218 271.245 251.452 268.012 238.568C266.722 233.435 262.289 219.066 249.58 209.938C242.421 204.796 239.6 206.318 233.111 200.526C223.682 192.11 227.173 186.697 220.17 181.31C208.041 171.978 190.682 182.914 182.132 172.68C179.47 169.495 179.239 166.144 177.033 166.013C172.134 165.724 167.59 181.954 167.23 183.27C165.449 189.774 158.767 214.194 171.544 229.549C176.776 235.836 181.072 235.556 188.014 244.845C193.302 251.919 194.68 257.256 196.25 260.141C200.707 268.334 216.589 274.892 267.227 267.199Z" fill="url(#paint0_linear_3316_579103)"/>
<path d="M353.375 195.094C354.854 174.614 347.083 163.53 344.123 159.839C333.237 146.268 316.813 144.654 288.514 141.87C279.055 140.941 248.136 137.902 245.31 146.575C245.051 147.37 244.824 148.898 251.299 158.553C259.883 171.352 264.175 177.751 268.837 179.943C278.564 184.515 284.405 178.21 294.931 184.221C300.446 187.371 298.847 189.103 303.913 191.923C313.198 197.087 320.775 192.498 338.135 193.207C344.405 193.464 349.628 194.316 353.375 195.094Z" fill="url(#paint1_linear_3316_579103)"/>
<path d="M269.652 266.732C268.877 266.265 268.092 265.77 267.298 265.245C264.976 263.709 262.903 262.127 261.06 260.568C258.076 256.112 255.802 251.069 254.488 245.682C254.707 250.063 255.549 254.47 256.995 258.73C245.144 253.317 233.731 246.889 222.996 239.46L223.024 239.162L222.569 239.154C218.068 236.022 213.671 232.734 209.423 229.263C208.148 228.218 206.91 227.13 205.695 226.015C206.319 212.993 201.363 200.858 202.687 188.133C200.741 200.16 204.457 212.3 203.66 224.071C197.207 217.714 191.877 210.278 188.802 201.635C184.7 190.641 180.86 179.488 176.876 168.422C180.516 179.621 183.987 190.842 187.764 202.025C189.71 207.595 192.32 213.047 195.867 217.857C199.366 222.692 203.542 226.995 207.97 230.939C211.21 233.759 214.562 236.447 217.963 239.067L201.312 238.769L222.364 242.412C228.11 246.936 235.473 251.999 244.496 256.672C253.822 261.499 262.47 264.643 269.652 266.732Z" fill="url(#paint2_linear_3316_579103)"/>
<path d="M276.288 149.34C284.765 149.576 293.134 150.93 301.126 153.486C293.818 155.072 286.713 157.428 280.015 160.588C288.142 157.571 296.625 155.659 305.163 154.893C305.67 155.086 306.197 155.225 306.7 155.428C316.306 159.308 325.138 164.953 332.726 171.908C334.12 173.218 335.432 174.606 336.744 175.995C327.655 174.508 318.351 174.878 309.612 177.152C319.928 175.538 330.47 176.546 340.124 179.808C341.096 180.945 342.07 182.116 343.04 183.324C346.455 187.566 349.465 191.766 352.121 195.843C352.54 195.593 352.958 195.346 353.377 195.096C352.521 193.283 350.544 189.178 348.099 184.992C345.952 181.315 344.302 179.05 343.726 178.269C343.511 177.977 343.332 177.739 343.209 177.578L343.276 177.369C343.185 177.345 343.094 177.329 343.004 177.305C340.694 174.24 338.543 171.04 336.75 167.611C335.549 165.375 334.512 163.051 333.73 160.63L331.148 153.395L332.939 160.892C333.468 163.427 334.261 165.896 335.235 168.301C335.565 169.142 335.999 169.941 336.362 170.771C335.879 170.33 335.43 169.851 334.937 169.42C326.804 162.475 317.485 156.988 307.491 153.355C297.5 149.697 286.826 148.147 276.316 148.232L260.579 148.26C255.464 148.179 249.796 147.888 245.83 144.213C249.665 148.038 255.438 148.56 260.563 148.813L276.288 149.34Z" fill="url(#paint3_linear_3316_579103)"/>
<path d="M267.227 267.199C268.74 262.218 271.245 251.452 268.012 238.568C266.722 233.435 262.289 219.066 249.58 209.938C242.421 204.796 239.6 206.318 233.111 200.526C223.682 192.11 227.173 186.697 220.17 181.31C208.041 171.978 190.682 182.914 182.132 172.68C179.47 169.495 179.239 166.144 177.033 166.013C172.134 165.724 167.59 181.954 167.23 183.27C165.449 189.774 158.767 214.194 171.544 229.549C176.776 235.836 181.072 235.556 188.014 244.845C193.302 251.919 194.68 257.256 196.25 260.141C200.707 268.334 216.589 274.892 267.227 267.199Z" fill="url(#paint4_linear_3316_579103)"/>
<path d="M353.375 195.094C354.854 174.614 347.083 163.53 344.123 159.839C333.237 146.268 316.813 144.654 288.514 141.87C279.055 140.941 248.136 137.902 245.31 146.575C245.051 147.37 244.824 148.898 251.299 158.553C259.883 171.352 264.175 177.751 268.837 179.943C278.564 184.515 284.405 178.21 294.931 184.221C300.446 187.371 298.847 189.103 303.913 191.923C313.198 197.087 320.775 192.498 338.135 193.207C344.405 193.464 349.628 194.316 353.375 195.094Z" fill="url(#paint5_linear_3316_579103)"/>
<path d="M391.007 112.322C391.063 110.014 391.119 107.706 391.173 105.398C391.64 104.011 392.105 102.627 392.572 101.24C393.341 98.5093 394.653 94.7823 396.562 90.4616C398.15 86.8695 400.073 83.2231 402.737 79.9268C405.416 76.6164 408.738 73.8916 412.237 71.8228C419.308 67.641 426.725 65.5562 433.963 63.4351C437.669 62.4088 441.619 61.5253 445.796 61.4187C449.965 61.2859 454.398 62.117 458.268 64.2039C462.135 66.2525 465.636 69.8607 466.882 74.4832C468.117 78.9567 467.431 83.9455 464.564 87.8274C461.632 91.7154 456.934 93.7459 452.203 93.446C447.241 93.1683 443.253 89.7996 441.013 86.306C436.319 79.2807 435.713 70.0157 438.735 62.5155C440.15 58.7503 442.15 55.3553 444.321 52.1979C446.496 49.0706 448.8 45.9836 451.658 43.2024C454.485 40.4515 458.042 38.0648 462.022 36.9801C465.966 35.8592 469.957 35.8029 473.758 35.99C481.315 36.5173 488.632 37.2337 496.081 37.8475C503.494 38.3385 510.977 39.548 518.114 39.0449C521.67 38.7531 525.173 37.8958 528.07 36.0001C530.978 34.1306 533.089 31.1824 534.934 28.0249C536.773 24.8695 538.55 21.4625 540.874 18.4479C543.15 15.4092 545.784 12.6482 548.681 10.2112C551.595 7.83658 554.681 5.50217 558.426 4.30881C562.215 3.07723 566.254 3.82988 569.761 5.09165C576.89 7.64941 583.051 11.9781 589.881 14.8538C596.557 17.6631 604.678 19.0597 611.341 15.3166C604.771 19.2368 596.499 18.0535 589.671 15.369C582.701 12.6281 576.401 8.45035 569.401 6.14213C565.946 4.99708 562.211 4.43359 558.847 5.62896C555.476 6.78206 552.522 9.09631 549.762 11.4729C547.021 13.8979 544.55 16.6207 542.435 19.595C540.276 22.5452 538.679 25.8113 536.854 29.1298C535.045 32.4039 532.811 35.7848 529.457 38.0729C526.141 40.361 522.195 41.3973 518.376 41.8058C510.633 42.5223 503.262 41.4617 495.831 41.1679C488.428 40.7433 480.907 40.1999 473.601 39.8719C469.985 39.7794 466.421 39.9605 463.204 40.9687C459.992 41.9367 457.211 43.8846 454.769 46.3599C452.34 48.8351 450.225 51.7894 448.231 54.82C446.259 57.8386 444.547 60.9639 443.424 64.2079C441.037 70.6013 441.86 77.8056 445.593 83.1808C447.418 85.813 449.909 87.5759 452.545 87.6282C455.241 87.765 458.161 86.3745 459.632 84.2192C461.179 82.0539 461.58 78.9165 460.747 76.2582C459.972 73.636 457.861 71.4525 455.165 70.0962C449.621 67.2225 442.76 68.2327 435.957 70.3598C428.997 72.5634 421.986 74.8314 416.298 78.4335C410.474 81.9613 406.82 87.1231 404.202 93.7298C402.82 96.9476 401.766 100.508 400.709 103.983C399.106 109.308 397.502 114.631 395.898 119.955C394.274 117.414 392.64 114.868 391.007 112.322Z" fill="#7F8E35"/>
<path d="M391.007 112.322C391.063 110.014 391.119 107.706 391.173 105.398C391.64 104.011 392.105 102.627 392.572 101.24C393.341 98.5093 394.653 94.7823 396.562 90.4616C398.15 86.8695 400.073 83.2231 402.737 79.9268C405.416 76.6164 408.738 73.8916 412.237 71.8228C419.308 67.641 426.725 65.5562 433.963 63.4351C437.669 62.4088 441.619 61.5253 445.796 61.4187C449.965 61.2859 454.398 62.117 458.268 64.2039C462.135 66.2525 465.636 69.8607 466.882 74.4832C468.117 78.9567 467.431 83.9455 464.564 87.8274C461.632 91.7154 456.934 93.7459 452.203 93.446C447.241 93.1683 443.253 89.7996 441.013 86.306C436.319 79.2807 435.713 70.0157 438.735 62.5155C440.15 58.7503 442.15 55.3553 444.321 52.1979C446.496 49.0706 448.8 45.9836 451.658 43.2024C454.485 40.4515 458.042 38.0648 462.022 36.9801C465.966 35.8592 469.957 35.8029 473.758 35.99C481.315 36.5173 488.632 37.2337 496.081 37.8475C503.494 38.3385 510.977 39.548 518.114 39.0449C521.67 38.7531 525.173 37.8958 528.07 36.0001C530.978 34.1306 533.089 31.1824 534.934 28.0249C536.773 24.8695 538.55 21.4625 540.874 18.4479C543.15 15.4092 545.784 12.6482 548.681 10.2112C551.595 7.83658 554.681 5.50217 558.426 4.30881C562.215 3.07723 566.254 3.82988 569.761 5.09165C576.89 7.64941 583.051 11.9781 589.881 14.8538C596.557 17.6631 604.678 19.0597 611.341 15.3166C604.771 19.2368 596.499 18.0535 589.671 15.369C582.701 12.6281 576.401 8.45035 569.401 6.14213C565.946 4.99708 562.211 4.43359 558.847 5.62896C555.476 6.78206 552.522 9.09631 549.762 11.4729C547.021 13.8979 544.55 16.6207 542.435 19.595C540.276 22.5452 538.679 25.8113 536.854 29.1298C535.045 32.4039 532.811 35.7848 529.457 38.0729C526.141 40.361 522.195 41.3973 518.376 41.8058C510.633 42.5223 503.262 41.4617 495.831 41.1679C488.428 40.7433 480.907 40.1999 473.601 39.8719C469.985 39.7794 466.421 39.9605 463.204 40.9687C459.992 41.9367 457.211 43.8846 454.769 46.3599C452.34 48.8351 450.225 51.7894 448.231 54.82C446.259 57.8386 444.547 60.9639 443.424 64.2079C441.037 70.6013 441.86 77.8056 445.593 83.1808C447.418 85.813 449.909 87.5759 452.545 87.6282C455.241 87.765 458.161 86.3745 459.632 84.2192C461.179 82.0539 461.58 78.9165 460.747 76.2582C459.972 73.636 457.861 71.4525 455.165 70.0962C449.621 67.2225 442.76 68.2327 435.957 70.3598C428.997 72.5634 421.986 74.8314 416.298 78.4335C410.474 81.9613 406.82 87.1231 404.202 93.7298C402.82 96.9476 401.766 100.508 400.709 103.983C399.106 109.308 397.502 114.631 395.898 119.955C394.274 117.414 392.64 114.868 391.007 112.322Z" fill="url(#paint6_linear_3316_579103)"/>
<path d="M391.007 112.322C391.063 110.014 391.119 107.706 391.173 105.398C391.64 104.011 392.105 102.627 392.572 101.24C393.341 98.5093 394.653 94.7823 396.562 90.4616C398.15 86.8695 400.073 83.2231 402.737 79.9268C405.416 76.6164 408.738 73.8916 412.237 71.8228C419.308 67.641 426.725 65.5562 433.963 63.4351C437.669 62.4088 441.619 61.5253 445.796 61.4187C449.965 61.2859 454.398 62.117 458.268 64.2039C462.135 66.2525 465.636 69.8607 466.882 74.4832C468.117 78.9567 467.431 83.9455 464.564 87.8274C461.632 91.7154 456.934 93.7459 452.203 93.446C447.241 93.1683 443.253 89.7996 441.013 86.306C436.319 79.2807 435.713 70.0157 438.735 62.5155C440.15 58.7503 442.15 55.3553 444.321 52.1979C446.496 49.0706 448.8 45.9836 451.658 43.2024C454.485 40.4515 458.042 38.0648 462.022 36.9801C465.966 35.8592 469.957 35.8029 473.758 35.99C481.315 36.5173 488.632 37.2337 496.081 37.8475C503.494 38.3385 510.977 39.548 518.114 39.0449C521.67 38.7531 525.173 37.8958 528.07 36.0001C530.978 34.1306 533.089 31.1824 534.934 28.0249C536.773 24.8695 538.55 21.4625 540.874 18.4479C543.15 15.4092 545.784 12.6482 548.681 10.2112C551.595 7.83658 554.681 5.50217 558.426 4.30881C562.215 3.07723 566.254 3.82988 569.761 5.09165C576.89 7.64941 583.051 11.9781 589.881 14.8538C596.557 17.6631 604.678 19.0597 611.341 15.3166C604.771 19.2368 596.499 18.0535 589.671 15.369C582.701 12.6281 576.401 8.45035 569.401 6.14213C565.946 4.99708 562.211 4.43359 558.847 5.62896C555.476 6.78206 552.522 9.09631 549.762 11.4729C547.021 13.8979 544.55 16.6207 542.435 19.595C540.276 22.5452 538.679 25.8113 536.854 29.1298C535.045 32.4039 532.811 35.7848 529.457 38.0729C526.141 40.361 522.195 41.3973 518.376 41.8058C510.633 42.5223 503.262 41.4617 495.831 41.1679C488.428 40.7433 480.907 40.1999 473.601 39.8719C469.985 39.7794 466.421 39.9605 463.204 40.9687C459.992 41.9367 457.211 43.8846 454.769 46.3599C452.34 48.8351 450.225 51.7894 448.231 54.82C446.259 57.8386 444.547 60.9639 443.424 64.2079C441.037 70.6013 441.86 77.8056 445.593 83.1808C447.418 85.813 449.909 87.5759 452.545 87.6282C455.241 87.765 458.161 86.3745 459.632 84.2192C461.179 82.0539 461.58 78.9165 460.747 76.2582C459.972 73.636 457.861 71.4525 455.165 70.0962C449.621 67.2225 442.76 68.2327 435.957 70.3598C428.997 72.5634 421.986 74.8314 416.298 78.4335C410.474 81.9613 406.82 87.1231 404.202 93.7298C402.82 96.9476 401.766 100.508 400.709 103.983C399.106 109.308 397.502 114.631 395.898 119.955C394.274 117.414 392.64 114.868 391.007 112.322Z" fill="url(#paint7_linear_3316_579103)"/>
<path d="M105.617 468.068C109.545 481.368 113.438 494.803 117.296 508.371C120.654 520.181 123.934 531.922 127.137 543.59C129.103 544.23 133.878 545.491 139.685 544.038C146.168 542.416 150.012 538.396 151.338 536.868C150.012 534.747 148.132 531.628 146.056 527.76C138.188 513.114 134.377 500.569 131.172 489.808C129.564 484.413 127.588 477.207 125.711 468.559C119.012 468.394 112.315 468.231 105.617 468.068Z" fill="#7F8E35"/>
<path d="M105.617 468.068C109.545 481.368 113.438 494.803 117.296 508.371C120.654 520.181 123.934 531.922 127.137 543.59C129.103 544.23 133.878 545.491 139.685 544.038C146.168 542.416 150.012 538.396 151.338 536.868C150.012 534.747 148.132 531.628 146.056 527.76C138.188 513.114 134.377 500.569 131.172 489.808C129.564 484.413 127.588 477.207 125.711 468.559C119.012 468.394 112.315 468.231 105.617 468.068Z" fill="url(#paint8_linear_3316_579103)"/>
<path d="M140.55 543.723C146.464 541.968 150.076 538.319 151.338 536.866C150.012 534.745 148.132 531.626 146.056 527.758C138.188 513.112 134.379 500.567 131.172 489.806C129.564 484.411 127.588 477.205 125.711 468.559C122.175 468.473 118.642 468.386 115.106 468.3C121.738 493.96 127.439 520.658 140.55 543.723Z" fill="url(#paint9_linear_3316_579103)"/>
<path d="M110.49 468.187C108.867 468.147 107.241 468.109 105.617 468.068C109.545 481.368 113.438 494.803 117.296 508.371C120.654 520.181 123.934 531.922 127.137 543.59C128.672 544.089 131.938 544.952 136.057 544.618C123.079 521.097 117.287 494.229 110.49 468.187Z" fill="url(#paint10_linear_3316_579103)"/>
<path d="M105.617 468.068C104.25 470.548 102.496 474.657 102.697 479.714C103.19 492.11 115.12 502.466 125.763 503.166C131.002 503.511 133.248 501.339 144.985 494.708C172.162 479.352 178.309 480.714 184.581 471.256C189.708 463.524 185.746 462.395 191.501 448.188C196.71 435.327 201.201 433.181 212.645 415.506C221.85 401.289 226.452 394.181 229.944 383.209C234.978 367.394 238.566 356.119 234.28 345.527C232.996 342.354 230.008 336.78 232.25 331.69C233.65 328.509 235.892 328.251 237.632 324.385C239.167 320.976 239.966 315.539 237.632 312.466C234.789 308.723 228.718 310.367 219.178 310.544C202.022 310.862 200.417 305.935 188.04 306.698C178.049 307.314 171.212 311.011 159.592 317.464C144.816 325.669 134.962 334.246 125.376 342.839C97.6244 367.718 83.7484 380.159 81.5511 385.131C67.7978 416.249 96.9925 456.789 105.617 468.068Z" fill="#7F8E35"/>
<path d="M105.617 468.068C104.25 470.548 102.496 474.657 102.697 479.714C103.19 492.11 115.12 502.466 125.763 503.166C131.002 503.511 133.248 501.339 144.985 494.708C172.162 479.352 178.309 480.714 184.581 471.256C189.708 463.524 185.746 462.395 191.501 448.188C196.71 435.327 201.201 433.181 212.645 415.506C221.85 401.289 226.452 394.181 229.944 383.209C234.978 367.394 238.566 356.119 234.28 345.527C232.996 342.354 230.008 336.78 232.25 331.69C233.65 328.509 235.892 328.251 237.632 324.385C239.167 320.976 239.966 315.539 237.632 312.466C234.789 308.723 228.718 310.367 219.178 310.544C202.022 310.862 200.417 305.935 188.04 306.698C178.049 307.314 171.212 311.011 159.592 317.464C144.816 325.669 134.962 334.246 125.376 342.839C97.6244 367.718 83.7484 380.159 81.5511 385.131C67.7978 416.249 96.9925 456.789 105.617 468.068Z" fill="url(#paint11_linear_3316_579103)"/>
<path d="M189.78 361.335C190.008 360.995 190.219 360.64 190.453 360.302C194.421 354.384 199.328 349.216 205.085 344.922C210.751 340.545 216.856 336.59 222.05 331.583C216.605 336.317 210.363 339.911 204.429 344.026C198.419 348.035 193.01 353.162 188.656 358.998C184.657 364.206 181.237 369.775 177.719 375.188C174.454 358.99 175.953 341.754 182.313 326.273C175.013 342.132 172.804 360.361 176.033 377.738C172.25 383.431 168.192 388.957 164.167 394.574C159.958 400.436 155.817 406.433 152.159 412.822C151.597 413.776 151.094 414.772 150.571 415.754C148.06 410.83 146.462 405.358 145.609 399.737C144.524 392.742 144.372 385.526 144.551 378.36C145.015 364.011 147.577 349.675 152.183 335.962C146.883 349.421 143.551 363.709 142.335 378.233C141.784 385.496 141.552 392.805 142.307 400.164C143.005 407.103 144.77 414.124 148.205 420.495C146.299 424.594 144.603 428.768 142.995 432.761C140.295 439.347 137.315 445.373 132.737 450.124C128.194 454.99 122.513 458.994 116.63 463.096C114.815 464.593 113 466.088 111.183 467.585C112.553 468.121 119.497 470.682 125.839 467.141C127.562 466.179 128.852 464.983 129.791 463.891C137.357 467.441 145.074 470.59 152.915 473.244C147.945 470.57 143.142 467.652 138.422 464.625C139.391 464.671 140.361 464.782 141.331 464.772C145.422 464.708 150.03 464.402 153.815 462.061C157.648 459.803 160.059 456.447 162.906 453.527L171.226 444.537L162.137 452.728C159.079 455.368 156.233 458.518 152.774 460.101C149.338 461.824 145.42 461.725 141.448 461.446C138.894 461.238 136.383 460.759 133.9 460.17C135.512 458.62 137.086 457.01 138.562 455.259C143.73 449.299 146.83 441.959 149.209 435.148C151.599 428.211 153.785 421.711 157.042 415.448C157.262 415.015 157.525 414.601 157.749 414.17C161.459 414.545 165.175 414.8 168.89 414.822C171.319 414.82 173.679 414.816 176.178 414.603C178.653 414.418 181.327 413.645 183.44 412.287C185.591 410.979 187.386 409.421 189.31 408.081L195.203 404.076C199.137 401.402 203.059 398.423 205.741 394.449C202.755 398.2 198.71 400.788 194.614 403.136L188.4 406.688C186.318 407.916 184.376 409.337 182.364 410.347C178.47 412.522 173.745 411.763 169.037 411.496C165.964 411.238 162.916 410.81 159.884 410.306C162.381 405.839 165.029 401.428 167.834 397.065C171.707 391.028 175.705 384.997 179.378 378.738C182.341 373.699 185.118 368.616 188.195 363.754C192.098 362.83 196.03 361.763 200.099 361.572C204.351 361.252 208.655 361.409 212.916 362.005C208.723 361.045 204.409 360.51 200.065 360.463C196.62 360.331 193.207 360.814 189.78 361.335Z" fill="url(#paint12_linear_3316_579103)"/>
<path d="M105.617 468.068C104.25 470.548 102.496 474.657 102.697 479.714C103.19 492.11 115.12 502.466 125.763 503.166C131.002 503.511 133.248 501.339 144.985 494.708C172.162 479.352 178.309 480.714 184.581 471.256C189.708 463.524 185.746 462.395 191.501 448.188C196.71 435.327 201.201 433.181 212.645 415.506C221.85 401.289 226.452 394.181 229.944 383.209C234.978 367.394 238.566 356.119 234.28 345.527C232.996 342.354 230.008 336.78 232.25 331.69C233.65 328.509 235.892 328.251 237.632 324.385C239.167 320.976 239.966 315.539 237.632 312.466C234.789 308.723 228.718 310.367 219.178 310.544C202.022 310.862 200.417 305.935 188.04 306.698C178.049 307.314 171.212 311.011 159.592 317.464C144.816 325.669 134.962 334.246 125.376 342.839C97.6244 367.718 83.7484 380.159 81.5511 385.131C67.7978 416.249 96.9925 456.789 105.617 468.068Z" fill="url(#paint13_linear_3316_579103)"/>
<path d="M106.361 466.84C105.452 468.998 103.122 473.638 98.1295 476.214C91.8615 479.448 85.3158 477.405 80.7944 475.92C73.5948 473.556 71.2728 470.563 60.4875 462.3C43.058 448.944 40.4662 450.121 38.0516 444.551C33.8019 434.745 40.414 427.824 34.969 421.221C30.6126 415.939 25.3266 419.094 19.9782 413.882C15.7627 409.773 16.634 405.462 14.7848 386.809C13.3622 372.465 12.5976 365.158 9.91938 358.565C5.27325 347.127 1.25684 348.147 0.1924 340.955C-1.66686 328.383 10.5149 324.65 12.3963 307.627C13.7666 295.223 8.45447 286.715 11.6559 284.952C14.6379 283.31 18.3202 291.21 29.8319 294.444C37.444 296.581 41.0298 294.587 45.8027 298.272C49.4145 301.059 49.4124 303.784 52.4609 308.336C56.781 314.786 62.0268 317.142 68.4859 321.014C74.5104 324.624 85.2072 333.827 106.601 352.228C112.855 357.607 115.98 360.296 119.881 363.888C138.293 380.839 147.498 389.315 152.408 398.844C160.954 415.43 163.902 445.08 146.205 459.974C131.431 472.403 110.321 467.78 106.361 466.84Z" fill="#7F8E35"/>
<path d="M88.7366 427.4C82.8671 417.664 82.692 416.412 77.567 408.608C73.7277 402.762 69.4761 397.121 65.8944 391.114C62.4737 385.379 59.6607 379.317 57.1998 373.115C54.7147 366.853 52.6643 360.433 50.2618 354.14C47.6943 347.413 45.016 340.726 42.0883 334.147C39.1666 327.585 36.1 320.964 32.3694 314.814C26.0834 304.45 17.6021 295.565 11.8372 284.888C11.7768 284.912 11.7165 284.918 11.6581 284.95C8.45675 286.713 13.7689 295.221 12.3986 307.626C10.5192 324.646 -1.66255 328.38 0.194691 340.953C1.25712 348.145 5.27541 347.125 9.92154 358.563C12.5997 365.156 13.3644 372.463 14.787 386.808C16.6362 405.46 15.7629 409.773 19.9805 413.88C25.3288 419.092 30.6149 415.937 34.9712 421.22C40.4162 427.822 33.8021 434.741 38.0539 444.549C40.4685 450.12 43.0601 448.942 60.4896 462.299C71.2729 470.562 73.597 473.554 80.7966 475.919C85.318 477.404 91.8636 479.446 98.1315 476.212C101.848 474.295 104.085 471.236 105.365 468.905C106.283 468.372 107.408 467.523 108.172 466.174C111.714 459.93 102.967 451.005 88.7366 427.4Z" fill="url(#paint14_linear_3316_579103)"/>
<path d="M146.198 459.974C131.872 472.049 111.589 468.044 106.8 466.937C106.699 466.675 106.599 466.414 106.498 466.152C105.633 463.918 104.788 461.685 103.922 459.431C99.6969 449.892 95.7933 442.527 93.2781 437.999C92.6342 436.832 91.9701 435.685 91.3262 434.558C91.3463 434.558 91.3464 434.558 91.3665 434.558C89.7769 431.68 88.1672 428.822 86.4971 425.985C78.8709 412.985 70.5002 400.387 62.1899 387.608C61.8075 387.025 61.4454 386.401 61.063 385.797C60.2723 384.475 59.4795 383.155 58.6887 381.833C55.9722 377.023 53.6381 371.932 52.2698 366.579C50.2375 359.133 48.9296 351.768 45.5692 345.066C42.3095 338.325 38.3053 331.805 34.6431 325.164L29.8138 316.631L29.7736 316.53C27.9426 312.586 26.1114 309.648 24.5218 307.092L23.8578 306.026L23.4352 305.342C20.7791 300.955 17.3785 294.454 14.4608 285.499C17.298 287.351 21.5236 292.1 29.8339 294.454C37.44 296.588 41.0217 294.595 45.8107 298.278C49.4125 301.055 49.4125 303.792 52.471 308.34C56.7771 314.78 62.0289 317.134 68.488 321.018C74.5044 324.62 85.2092 333.817 106.599 352.23C112.857 357.604 115.975 360.3 119.879 363.882C138.291 380.827 147.506 389.319 152.416 398.837C160.948 415.42 163.906 445.082 146.198 459.974Z" fill="url(#paint15_linear_3316_579103)"/>
<path d="M114.547 462.852L106.498 466.152L106.337 466.213C104.687 461.967 102.816 457.519 100.703 452.911C98.8317 448.846 96.9201 445.002 95.0086 441.4C91.2458 439.669 85.652 437.234 78.6898 434.839C63.2765 429.527 51.5857 427.856 51.5857 427.494C51.6461 427.152 63.5783 428.923 77.1001 431.579C83.0159 432.726 87.9055 433.793 91.3262 434.558C91.3464 434.558 91.3464 434.558 91.3665 434.558C89.7769 431.68 88.1672 428.822 86.4971 425.985C78.8709 412.985 70.5002 400.387 62.1899 387.608C61.8076 387.025 61.4454 386.401 61.0631 385.797L60.9424 385.938C60.057 385.254 59.1515 384.57 58.2259 383.926C51.143 378.895 43.0541 375.031 36.1322 369.376C28.2847 362.977 22.7713 354.444 17.3988 346.113C23.0732 354.263 28.9086 362.534 36.8365 368.511C42.853 373.059 49.7144 376.379 56.2741 380.324C57.079 380.827 57.8839 381.33 58.6888 381.833C55.9723 377.023 53.6382 371.932 52.2699 366.579C50.2376 359.133 48.9297 351.768 45.5693 345.066C42.3096 338.325 38.3054 331.805 34.6432 325.164L29.8139 316.631L29.7738 316.531L23.4354 305.342L23.858 306.026L24.5219 307.092L35.5889 324.6C39.5931 331.06 43.859 337.298 47.5614 344.06C51.0424 350.258 52.8333 357.181 54.8656 363.721C55.1674 351.023 52.8534 338.184 47.9235 326.311C54.1412 339.472 57.1595 354.203 56.6967 368.913C58.9504 374.709 62.1699 379.981 65.8723 385.133C83.5996 409.624 102.031 434.336 114.547 462.852Z" fill="url(#paint16_linear_3316_579103)"/>
<path d="M106.361 466.84C105.452 468.998 103.122 473.638 98.1295 476.214C91.8615 479.448 85.3158 477.405 80.7944 475.92C73.5948 473.556 71.2728 470.563 60.4875 462.3C43.058 448.944 40.4662 450.121 38.0516 444.551C33.8019 434.745 40.414 427.824 34.969 421.221C30.6126 415.939 25.3266 419.094 19.9782 413.882C15.7627 409.773 16.634 405.462 14.7848 386.809C13.3622 372.465 12.5976 365.158 9.91938 358.565C5.27325 347.127 1.25684 348.147 0.1924 340.955C-1.66686 328.383 10.5149 324.65 12.3963 307.627C13.7666 295.223 8.45447 286.715 11.6559 284.952C14.6379 283.31 18.3202 291.21 29.8319 294.444C37.444 296.581 41.0298 294.587 45.8027 298.272C49.4145 301.059 49.4124 303.784 52.4609 308.336C56.781 314.786 62.0268 317.142 68.4859 321.014C74.5104 324.624 85.2072 333.827 106.601 352.228C112.855 357.607 115.98 360.296 119.881 363.888C138.293 380.839 147.498 389.315 152.408 398.844C160.954 415.43 163.902 445.08 146.205 459.974C131.431 472.403 110.321 467.78 106.361 466.84Z" fill="url(#paint17_linear_3316_579103)"/>
<path d="M105.025 420.328C111.676 413.729 118.392 407.268 124.986 400.524C131.564 393.819 138.136 387.224 143.595 380.237C146.35 376.685 148.792 373.145 150.748 369.374C152.694 365.712 154.41 361.039 157.071 356.457C162.401 347.532 168.725 340.192 175.593 333.173C182.456 326.243 189.783 319.972 197.157 313.957C204.53 307.95 212.017 302.1 219.627 296.407C234.841 285.018 250.506 274.24 266.589 264.138C282.554 253.742 299.831 245.602 313.01 233.469C319.669 227.353 325.703 220.233 331.963 213.144L350.638 191.899C363.196 178.043 374.229 163.142 381.408 146.239C384.912 137.818 387.6 129.031 388.787 120.002C389.97 111.014 390.332 101.695 388.375 93.1161C387.381 88.8418 385.759 84.7868 383.392 81.247C381.012 77.7212 377.831 74.6946 374.217 72.1791C366.953 67.1984 358.152 63.9061 349.322 62.1433C340.473 60.3965 331.227 60.5032 322.824 63.3427C314.574 66.1379 307.294 72.2395 302.527 79.6371C300.167 83.2996 298.525 87.5498 298.752 91.4398C298.841 95.2814 301.712 98.5395 305.382 100.467C309.063 102.369 313.477 102.874 317.27 101.445C321.071 100.015 324.277 96.829 326.071 93.0094C327.961 89.21 328.041 84.8532 326.788 80.6855C325.52 76.5641 323.003 72.7708 319.743 69.8206C313.143 63.8699 303.805 61.4289 294.728 61.1069C290.249 60.9258 285.669 61.6381 282.864 64.6809C281.461 66.1258 280.626 68.0798 280.757 69.8849C280.914 71.6559 282.148 73.5033 283.761 74.2459C285.341 75.0448 287.204 74.5356 288.482 73.0807C289.78 71.6317 290.534 69.5429 290.667 67.4359C291.005 63.1435 289.331 58.6759 286.311 55.5406C283.315 52.3369 278.858 50.9141 274.322 50.3567C269.741 49.8033 265.04 49.6583 260.394 49.8555C255.736 50.0427 251.094 50.6122 246.516 51.5158C244.226 51.9646 241.956 52.5099 239.709 53.1438C237.471 53.7515 235.161 54.5786 232.612 54.6612C230.044 54.8201 227.414 53.6751 225.635 51.9485C223.804 50.244 222.454 48.1531 221.444 45.9334C219.45 41.4498 219.009 36.5375 219.138 31.7903C219.295 27.0189 220.048 22.3501 220.398 17.6773C220.649 13.081 221.038 8.10838 218.762 4.11578C217.645 2.13357 215.506 0.994493 213.239 0.759042C211.007 0.529629 208.604 1.19174 206.286 1.37889L192.264 3.15988L164.208 6.72181L192.215 2.74534L206.224 0.757077C208.588 0.537726 210.824 -0.162607 213.315 0.0346083C215.725 0.225786 218.207 1.4956 219.468 3.67705C222 8.03188 221.601 13.0951 221.434 17.7477C221.148 22.4809 220.468 27.1577 220.386 31.8205C220.323 36.453 220.842 41.1821 222.768 45.3317C224.643 49.3183 228.094 53.3712 232.549 52.9989C234.739 52.9043 236.932 52.1115 239.216 51.4454C241.496 50.7652 243.805 50.1755 246.134 49.6825C250.792 48.6904 255.526 48.0404 260.285 47.7788C265.052 47.5091 269.811 47.5815 274.598 48.0866C279.329 48.5918 284.482 50.0648 288.09 53.7958C291.651 57.4 293.671 62.4894 293.36 67.6251C293.213 70.2009 292.394 72.8331 290.573 74.9502C288.862 77.1316 285.283 78.2948 282.538 76.8941C279.86 75.6384 278.103 73.0847 277.749 70.1788C277.493 67.2406 278.753 64.5199 280.57 62.5619C284.317 58.4344 290.059 57.6597 294.804 57.7824C304.394 58.0018 314.54 60.3462 322.232 67.0314C325.999 70.3498 328.971 74.6342 330.555 79.5123C331.325 81.9533 331.728 84.5393 331.665 87.1393C331.617 89.8117 330.897 92.3957 329.84 94.7643C327.697 99.4753 323.846 103.538 318.82 105.533C313.743 107.517 307.998 106.901 303.302 104.551C300.947 103.347 298.75 101.731 297.032 99.5638C295.293 97.4448 294.12 94.5811 293.975 91.8161C293.611 86.2397 295.688 81.253 298.277 77.0068C303.593 68.5366 311.449 61.7025 321.035 58.2352C330.512 54.8785 340.76 54.6672 350.383 56.416C360.021 58.2211 369.335 61.4872 377.742 67.0314C381.897 69.8326 385.737 73.3382 388.705 77.5965C391.654 81.8607 393.634 86.6805 394.844 91.5666C397.208 101.419 396.902 111.272 395.794 120.938C394.657 130.641 391.92 140.096 388.318 149.115C380.992 167.152 369.436 183.133 356.922 197.348L338.561 218.867C332.446 225.989 326.385 233.398 319.246 240.166C312.075 246.992 303.931 252.528 295.865 257.583C287.746 262.62 279.812 267.42 271.958 272.556C256.251 282.744 240.978 293.589 226.167 305.02C211.478 316.535 196.622 328.279 183.925 341.307C177.691 347.813 171.796 355.038 167.57 362.387C165.514 365.987 164.031 370.242 161.666 374.965C159.346 379.605 156.459 383.896 153.493 387.83C147.438 395.797 140.736 402.667 134.224 409.517C127.733 416.354 120.96 423.073 114.322 429.853L105.025 420.328Z" fill="#7F8E35"/>
<path d="M105.025 420.328C111.676 413.729 118.392 407.268 124.986 400.524C131.564 393.819 138.136 387.224 143.595 380.237C146.35 376.685 148.792 373.145 150.748 369.374C152.694 365.712 154.41 361.039 157.071 356.457C162.401 347.532 168.725 340.192 175.593 333.173C182.456 326.243 189.783 319.972 197.157 313.957C204.53 307.95 212.017 302.1 219.627 296.407C234.841 285.018 250.506 274.24 266.589 264.138C282.554 253.742 299.831 245.602 313.01 233.469C319.669 227.353 325.703 220.233 331.963 213.144L350.638 191.899C363.196 178.043 374.229 163.142 381.408 146.239C384.912 137.818 387.6 129.031 388.787 120.002C389.97 111.014 390.332 101.695 388.375 93.1161C387.381 88.8418 385.759 84.7868 383.392 81.247C381.012 77.7212 377.831 74.6946 374.217 72.1791C366.953 67.1984 358.152 63.9061 349.322 62.1433C340.473 60.3965 331.227 60.5032 322.824 63.3427C314.574 66.1379 307.294 72.2395 302.527 79.6371C300.167 83.2996 298.525 87.5498 298.752 91.4398C298.841 95.2814 301.712 98.5395 305.382 100.467C309.063 102.369 313.477 102.874 317.27 101.445C321.071 100.015 324.277 96.829 326.071 93.0094C327.961 89.21 328.041 84.8532 326.788 80.6855C325.52 76.5641 323.003 72.7708 319.743 69.8206C313.143 63.8699 303.805 61.4289 294.728 61.1069C290.249 60.9258 285.669 61.6381 282.864 64.6809C281.461 66.1258 280.626 68.0798 280.757 69.8849C280.914 71.6559 282.148 73.5033 283.761 74.2459C285.341 75.0448 287.204 74.5356 288.482 73.0807C289.78 71.6317 290.534 69.5429 290.667 67.4359C291.005 63.1435 289.331 58.6759 286.311 55.5406C283.315 52.3369 278.858 50.9141 274.322 50.3567C269.741 49.8033 265.04 49.6583 260.394 49.8555C255.736 50.0427 251.094 50.6122 246.516 51.5158C244.226 51.9646 241.956 52.5099 239.709 53.1438C237.471 53.7515 235.161 54.5786 232.612 54.6612C230.044 54.8201 227.414 53.6751 225.635 51.9485C223.804 50.244 222.454 48.1531 221.444 45.9334C219.45 41.4498 219.009 36.5375 219.138 31.7903C219.295 27.0189 220.048 22.3501 220.398 17.6773C220.649 13.081 221.038 8.10838 218.762 4.11578C217.645 2.13357 215.506 0.994493 213.239 0.759042C211.007 0.529629 208.604 1.19174 206.286 1.37889L192.264 3.15988L164.208 6.72181L192.215 2.74534L206.224 0.757077C208.588 0.537726 210.824 -0.162607 213.315 0.0346083C215.725 0.225786 218.207 1.4956 219.468 3.67705C222 8.03188 221.601 13.0951 221.434 17.7477C221.148 22.4809 220.468 27.1577 220.386 31.8205C220.323 36.453 220.842 41.1821 222.768 45.3317C224.643 49.3183 228.094 53.3712 232.549 52.9989C234.739 52.9043 236.932 52.1115 239.216 51.4454C241.496 50.7652 243.805 50.1755 246.134 49.6825C250.792 48.6904 255.526 48.0404 260.285 47.7788C265.052 47.5091 269.811 47.5815 274.598 48.0866C279.329 48.5918 284.482 50.0648 288.09 53.7958C291.651 57.4 293.671 62.4894 293.36 67.6251C293.213 70.2009 292.394 72.8331 290.573 74.9502C288.862 77.1316 285.283 78.2948 282.538 76.8941C279.86 75.6384 278.103 73.0847 277.749 70.1788C277.493 67.2406 278.753 64.5199 280.57 62.5619C284.317 58.4344 290.059 57.6597 294.804 57.7824C304.394 58.0018 314.54 60.3462 322.232 67.0314C325.999 70.3498 328.971 74.6342 330.555 79.5123C331.325 81.9533 331.728 84.5393 331.665 87.1393C331.617 89.8117 330.897 92.3957 329.84 94.7643C327.697 99.4753 323.846 103.538 318.82 105.533C313.743 107.517 307.998 106.901 303.302 104.551C300.947 103.347 298.75 101.731 297.032 99.5638C295.293 97.4448 294.12 94.5811 293.975 91.8161C293.611 86.2397 295.688 81.253 298.277 77.0068C303.593 68.5366 311.449 61.7025 321.035 58.2352C330.512 54.8785 340.76 54.6672 350.383 56.416C360.021 58.2211 369.335 61.4872 377.742 67.0314C381.897 69.8326 385.737 73.3382 388.705 77.5965C391.654 81.8607 393.634 86.6805 394.844 91.5666C397.208 101.419 396.902 111.272 395.794 120.938C394.657 130.641 391.92 140.096 388.318 149.115C380.992 167.152 369.436 183.133 356.922 197.348L338.561 218.867C332.446 225.989 326.385 233.398 319.246 240.166C312.075 246.992 303.931 252.528 295.865 257.583C287.746 262.62 279.812 267.42 271.958 272.556C256.251 282.744 240.978 293.589 226.167 305.02C211.478 316.535 196.622 328.279 183.925 341.307C177.691 347.813 171.796 355.038 167.57 362.387C165.514 365.987 164.031 370.242 161.666 374.965C159.346 379.605 156.459 383.896 153.493 387.83C147.438 395.797 140.736 402.667 134.224 409.517C127.733 416.354 120.96 423.073 114.322 429.853L105.025 420.328Z" fill="url(#paint18_linear_3316_579103)"/>
<path d="M105.025 420.328C111.676 413.729 118.392 407.268 124.986 400.524C131.564 393.819 138.136 387.224 143.595 380.237C146.35 376.685 148.792 373.145 150.748 369.374C152.694 365.712 154.41 361.039 157.071 356.457C162.401 347.532 168.725 340.192 175.593 333.173C182.456 326.243 189.783 319.972 197.157 313.957C204.53 307.95 212.017 302.1 219.627 296.407C234.841 285.018 250.506 274.24 266.589 264.138C282.554 253.742 299.831 245.602 313.01 233.469C319.669 227.353 325.703 220.233 331.963 213.144L350.638 191.899C363.196 178.043 374.229 163.142 381.408 146.239C384.912 137.818 387.6 129.031 388.787 120.002C389.97 111.014 390.332 101.695 388.375 93.1161C387.381 88.8418 385.759 84.7868 383.392 81.247C381.012 77.7212 377.831 74.6946 374.217 72.1791C366.953 67.1984 358.152 63.9061 349.322 62.1433C340.473 60.3965 331.227 60.5032 322.824 63.3427C314.574 66.1379 307.294 72.2395 302.527 79.6371C300.167 83.2996 298.525 87.5498 298.752 91.4398C298.841 95.2814 301.712 98.5395 305.382 100.467C309.063 102.369 313.477 102.874 317.27 101.445C321.071 100.015 324.277 96.829 326.071 93.0094C327.961 89.21 328.041 84.8532 326.788 80.6855C325.52 76.5641 323.003 72.7708 319.743 69.8206C313.143 63.8699 303.805 61.4289 294.728 61.1069C290.249 60.9258 285.669 61.6381 282.864 64.6809C281.461 66.1258 280.626 68.0798 280.757 69.8849C280.914 71.6559 282.148 73.5033 283.761 74.2459C285.341 75.0448 287.204 74.5356 288.482 73.0807C289.78 71.6317 290.534 69.5429 290.667 67.4359C291.005 63.1435 289.331 58.6759 286.311 55.5406C283.315 52.3369 278.858 50.9141 274.322 50.3567C269.741 49.8033 265.04 49.6583 260.394 49.8555C255.736 50.0427 251.094 50.6122 246.516 51.5158C244.226 51.9646 241.956 52.5099 239.709 53.1438C237.471 53.7515 235.161 54.5786 232.612 54.6612C230.044 54.8201 227.414 53.6751 225.635 51.9485C223.804 50.244 222.454 48.1531 221.444 45.9334C219.45 41.4498 219.009 36.5375 219.138 31.7903C219.295 27.0189 220.048 22.3501 220.398 17.6773C220.649 13.081 221.038 8.10838 218.762 4.11578C217.645 2.13357 215.506 0.994493 213.239 0.759042C211.007 0.529629 208.604 1.19174 206.286 1.37889L192.264 3.15988L164.208 6.72181L192.215 2.74534L206.224 0.757077C208.588 0.537726 210.824 -0.162607 213.315 0.0346083C215.725 0.225786 218.207 1.4956 219.468 3.67705C222 8.03188 221.601 13.0951 221.434 17.7477C221.148 22.4809 220.468 27.1577 220.386 31.8205C220.323 36.453 220.842 41.1821 222.768 45.3317C224.643 49.3183 228.094 53.3712 232.549 52.9989C234.739 52.9043 236.932 52.1115 239.216 51.4454C241.496 50.7652 243.805 50.1755 246.134 49.6825C250.792 48.6904 255.526 48.0404 260.285 47.7788C265.052 47.5091 269.811 47.5815 274.598 48.0866C279.329 48.5918 284.482 50.0648 288.09 53.7958C291.651 57.4 293.671 62.4894 293.36 67.6251C293.213 70.2009 292.394 72.8331 290.573 74.9502C288.862 77.1316 285.283 78.2948 282.538 76.8941C279.86 75.6384 278.103 73.0847 277.749 70.1788C277.493 67.2406 278.753 64.5199 280.57 62.5619C284.317 58.4344 290.059 57.6597 294.804 57.7824C304.394 58.0018 314.54 60.3462 322.232 67.0314C325.999 70.3498 328.971 74.6342 330.555 79.5123C331.325 81.9533 331.728 84.5393 331.665 87.1393C331.617 89.8117 330.897 92.3957 329.84 94.7643C327.697 99.4753 323.846 103.538 318.82 105.533C313.743 107.517 307.998 106.901 303.302 104.551C300.947 103.347 298.75 101.731 297.032 99.5638C295.293 97.4448 294.12 94.5811 293.975 91.8161C293.611 86.2397 295.688 81.253 298.277 77.0068C303.593 68.5366 311.449 61.7025 321.035 58.2352C330.512 54.8785 340.76 54.6672 350.383 56.416C360.021 58.2211 369.335 61.4872 377.742 67.0314C381.897 69.8326 385.737 73.3382 388.705 77.5965C391.654 81.8607 393.634 86.6805 394.844 91.5666C397.208 101.419 396.902 111.272 395.794 120.938C394.657 130.641 391.92 140.096 388.318 149.115C380.992 167.152 369.436 183.133 356.922 197.348L338.561 218.867C332.446 225.989 326.385 233.398 319.246 240.166C312.075 246.992 303.931 252.528 295.865 257.583C287.746 262.62 279.812 267.42 271.958 272.556C256.251 282.744 240.978 293.589 226.167 305.02C211.478 316.535 196.622 328.279 183.925 341.307C177.691 347.813 171.796 355.038 167.57 362.387C165.514 365.987 164.031 370.242 161.666 374.965C159.346 379.605 156.459 383.896 153.493 387.83C147.438 395.797 140.736 402.667 134.224 409.517C127.733 416.354 120.96 423.073 114.322 429.853L105.025 420.328Z" fill="url(#paint19_linear_3316_579103)"/>
<path d="M393.584 92.8101C391.586 84.9537 389.322 81.269 387.771 79.0936C386.707 77.5843 383.91 73.9438 377.118 69.3717C373.346 66.8421 364.114 60.8049 350.266 58.4967C343.475 57.3879 333.267 55.6552 321.373 60.0503C320.973 60.1831 318.799 61.0263 315.825 62.7147C310.596 59.9557 304.762 58.5994 298.969 58.0681C299.8 59.1769 300.547 60.3582 301.368 61.5032C301.438 61.6019 301.444 61.7166 301.491 61.8232C305.191 62.4229 308.825 63.3868 312.141 64.9344C313.34 65.4676 314.538 66.0895 315.648 66.7978C316.846 65.9989 318.089 65.3328 319.333 64.7553C320.486 64.222 321.641 63.7349 322.84 63.3345C331.229 60.493 340.461 60.4045 349.336 62.1351C358.168 63.9101 366.957 67.1963 374.235 72.1669C377.831 74.6965 381.026 77.7151 383.378 81.267C385.775 84.7726 387.373 88.8578 388.393 93.118C389.902 99.5537 390.479 106.923 388.793 120.018C387.684 128.54 386.485 137.906 382.447 149.403C374.857 171.064 362.208 186.246 353.377 195.078C347.296 201.826 341.171 208.616 335.09 215.363C331.052 220.557 324.482 228.325 315.294 236.58C300.249 250.117 289.818 254.335 269.668 266.72C259.283 273.067 246.944 282.078 222.267 300.055C200.874 315.591 189.068 324.956 178.639 336.409C172.602 343.022 166.389 349.858 161.107 359.314C159.954 361.31 157.69 365.528 153.961 371.698C153.517 372.409 149.834 378.534 146.683 383.151C142.999 388.566 139.538 392.782 128.264 405.122C123.203 410.671 116.945 417.462 109.667 425.097C111.221 426.695 112.774 428.249 114.328 429.847C120.986 423.055 127.731 416.353 134.256 409.517C140.735 402.681 147.438 395.801 153.519 387.812C156.449 383.906 159.378 379.599 161.686 374.983C164.039 370.233 165.503 365.971 167.59 362.377C171.805 355.054 177.709 347.817 183.923 341.293C196.616 328.287 211.484 316.524 226.175 305.028C240.998 293.575 256.267 282.744 271.978 272.535C279.833 267.432 287.778 262.636 295.856 257.577C303.933 252.518 312.101 246.968 319.246 240.178C326.391 233.386 332.472 225.975 338.553 218.873L356.928 197.344C369.444 183.141 380.984 167.16 388.352 149.095C393.812 135.646 395.276 126.546 395.81 120.954C396.158 117.357 397.001 106.126 393.584 92.8101Z" fill="url(#paint20_linear_3316_579103)" fill-opacity="0.79"/>
<path d="M391.755 112.276C390.58 110.225 391.204 108.136 391.317 107.776C391.864 107.241 392.679 106.529 393.771 105.854C396.391 104.238 398.852 103.884 400.212 103.762C404.508 103.369 408.649 104.283 412.312 106.514C419.471 111.26 422.314 118.301 425.105 124.091C430.232 135.624 437.693 145.825 447.167 153.999C451.927 158.046 456.986 161.797 462.435 163.836C467.902 165.951 473.953 166.448 479.718 165.387C485.507 164.327 491.064 161.68 495.912 158.028C498.326 156.203 500.638 154.154 502.413 151.924C504.286 149.596 505.86 147.054 507.107 144.327C509.528 138.964 510.971 132.466 511.715 126.48C512.401 120.505 511.166 114.679 507.152 111.105C505.24 109.39 502.824 108.418 500.526 108.714C498.22 108.958 495.863 110.332 494.199 112.403C490.586 116.532 490.513 122.511 493.529 127.403C494.95 129.854 497.033 131.989 499.377 133.74C500.614 134.652 501.709 135.264 503.27 136.097C504.759 136.938 506.059 137.687 507.448 138.351C512.878 141.067 518.983 141.979 524.471 140.089C530.014 138.149 534.817 133.994 537.357 128.657C539.934 123.37 540.375 116.816 540.172 110.632C539.981 107.581 539.5 104.454 538.218 102.109C537.584 100.948 536.779 100.047 535.799 99.6039C534.867 99.1813 533.473 99.0566 532.529 99.3745C530.541 99.9903 528.901 102.651 528.237 105.426C527.505 108.231 527.547 111.308 528.272 114.099C529.791 119.659 534.92 123.998 540.675 125.6C546.444 127.297 552.915 126.168 558.092 122.952C563.354 119.78 566.99 114.415 568.384 108.362C569.781 102.53 569.36 95.3598 564.602 91.8602C563.459 91.007 562.159 90.4314 561 90.53C559.843 90.5863 558.722 91.3612 557.828 92.4358C556.08 94.6655 555.116 97.7827 555.512 100.654C556.37 106.549 560.748 112.131 566.288 114.624C569.051 115.876 572.246 116.333 574.932 115.198C577.661 114.129 579.522 111.475 580.295 108.533C581.961 102.504 579.329 96.1265 578.21 89.6888C577.057 83.1988 576.238 76.6867 576.614 70.0136C576.898 66.7233 577.721 63.2439 579.961 60.5593C582.156 57.8386 585.669 56.4581 589.027 56.4179C592.412 56.3273 595.724 57.2027 598.726 58.6315C601.668 60.0603 604.461 61.9761 607.632 61.8171C610.777 61.6601 613.556 59.5793 615.407 57.0176C617.323 54.4316 618.234 51.2641 618.735 48.0664C619.252 44.8627 619.428 41.5905 619.987 38.3566C620.265 36.7587 620.592 35.0764 621.556 33.6757C622.456 32.2188 624.452 31.5426 626.029 32.2167C627.607 32.8305 628.8 34.0158 630.04 35.0582C631.263 36.0825 632.561 37.294 634.249 37.1411C637.517 36.9177 640.392 35.008 643 33.1304C640.412 35.0442 637.581 37.0022 634.251 37.2799C632.509 37.461 631.124 36.2174 629.903 35.2172C628.649 34.1889 627.434 33.0358 625.933 32.4784C624.44 31.8787 622.667 32.5106 621.84 33.8729C620.953 35.2011 620.647 36.8271 620.395 38.423C619.886 41.6327 619.759 44.8989 619.283 48.1509C618.826 51.3808 617.934 54.6892 615.971 57.42C614.081 60.1126 611.174 62.4128 607.678 62.6483C604.137 62.8555 601.173 60.825 598.31 59.5089C595.414 58.1766 592.223 57.3939 589.07 57.5267C585.927 57.6192 582.84 58.9132 580.924 61.3522C578.965 63.7571 578.218 66.9709 577.995 70.1223C577.719 76.4976 578.614 83.0479 579.84 89.3688C580.955 95.6053 583.9 102.061 582.168 109.034C581.361 112.358 579.176 115.705 575.743 117.116C572.348 118.591 568.527 118.025 565.392 116.659C562.217 115.281 559.414 113.089 557.301 110.368C555.195 107.696 553.518 104.52 553.033 100.972C552.536 97.3661 553.561 93.7157 555.774 90.7876C556.913 89.3649 558.625 88.0065 560.786 87.8374C562.929 87.6624 564.781 88.582 566.243 89.6284C569.266 91.7656 571.059 95.3034 571.662 98.7285C572.318 102.196 572.089 105.701 571.354 109.056C569.944 115.755 565.815 122.096 559.863 125.773C554.032 129.52 546.564 130.979 539.709 129.08C532.97 127.28 526.662 122.344 524.533 115.16C523.573 111.65 523.481 107.994 524.332 104.464C525.201 101.079 526.877 97.1025 531.238 95.4242C533.411 94.7601 535.477 94.909 537.538 95.7542C539.58 96.6497 541.027 98.3441 541.965 100.008C543.842 103.421 544.307 106.945 544.6 110.358C544.828 113.817 544.693 117.132 544.345 120.543C543.971 123.972 543.111 127.441 541.618 130.681C538.616 137.208 532.888 142.341 526.143 144.8C519.197 147.348 511.401 146.151 505.19 143.118C503.622 142.396 502.079 141.534 500.717 140.79C499.389 140.111 497.612 139.154 496.214 138.131C493.31 136.028 490.69 133.44 488.774 130.265C486.857 127.109 485.597 123.407 485.674 119.474C485.744 115.48 487.265 111.735 489.686 108.72C492.068 105.703 495.644 103.319 499.844 102.79C504.089 102.212 508.258 103.951 511.192 106.533C514.154 109.147 516.154 112.53 517.227 116.222C518.263 119.859 518.356 123.562 518.068 127.057C517.768 130.581 517.096 133.873 516.363 137.155C515.605 140.462 514.611 143.828 513.178 147.056C511.758 150.286 509.916 153.363 507.733 156.152C505.468 159.058 502.866 161.395 500.115 163.544C494.608 167.814 488.137 171.066 481.082 172.473C474.031 173.873 466.59 173.362 459.825 170.861C452.97 168.359 447.346 164.21 442.13 159.92C431.675 151.196 423.23 139.912 417.582 127.663C414.853 121.837 411.893 116.331 407.849 113.874C405.933 112.699 403.345 112.198 401.166 112.453C398.908 112.731 397.454 113.717 396.848 115.079C394.729 115.107 392.767 114.041 391.755 112.276Z" fill="#7F8E35"/>
<path d="M391.755 112.276C390.58 110.225 391.204 108.136 391.317 107.776C391.864 107.241 392.679 106.529 393.771 105.854C396.391 104.238 398.852 103.884 400.212 103.762C404.508 103.369 408.649 104.283 412.312 106.514C419.471 111.26 422.314 118.301 425.105 124.091C430.232 135.624 437.693 145.825 447.167 153.999C451.927 158.046 456.986 161.797 462.435 163.836C467.902 165.951 473.953 166.448 479.718 165.387C485.507 164.327 491.064 161.68 495.912 158.028C498.326 156.203 500.638 154.154 502.413 151.924C504.286 149.596 505.86 147.054 507.107 144.327C509.528 138.964 510.971 132.466 511.715 126.48C512.401 120.505 511.166 114.679 507.152 111.105C505.24 109.39 502.824 108.418 500.526 108.714C498.22 108.958 495.863 110.332 494.199 112.403C490.586 116.532 490.513 122.511 493.529 127.403C494.95 129.854 497.033 131.989 499.377 133.74C500.614 134.652 501.709 135.264 503.27 136.097C504.759 136.938 506.059 137.687 507.448 138.351C512.878 141.067 518.983 141.979 524.471 140.089C530.014 138.149 534.817 133.994 537.357 128.657C539.934 123.37 540.375 116.816 540.172 110.632C539.981 107.581 539.5 104.454 538.218 102.109C537.584 100.948 536.779 100.047 535.799 99.6039C534.867 99.1813 533.473 99.0566 532.529 99.3745C530.541 99.9903 528.901 102.651 528.237 105.426C527.505 108.231 527.547 111.308 528.272 114.099C529.791 119.659 534.92 123.998 540.675 125.6C546.444 127.297 552.915 126.168 558.092 122.952C563.354 119.78 566.99 114.415 568.384 108.362C569.781 102.53 569.36 95.3598 564.602 91.8602C563.459 91.007 562.159 90.4314 561 90.53C559.843 90.5863 558.722 91.3612 557.828 92.4358C556.08 94.6655 555.116 97.7827 555.512 100.654C556.37 106.549 560.748 112.131 566.288 114.624C569.051 115.876 572.246 116.333 574.932 115.198C577.661 114.129 579.522 111.475 580.295 108.533C581.961 102.504 579.329 96.1265 578.21 89.6888C577.057 83.1988 576.238 76.6867 576.614 70.0136C576.898 66.7233 577.721 63.2439 579.961 60.5593C582.156 57.8386 585.669 56.4581 589.027 56.4179C592.412 56.3273 595.724 57.2027 598.726 58.6315C601.668 60.0603 604.461 61.9761 607.632 61.8171C610.777 61.6601 613.556 59.5793 615.407 57.0176C617.323 54.4316 618.234 51.2641 618.735 48.0664C619.252 44.8627 619.428 41.5905 619.987 38.3566C620.265 36.7587 620.592 35.0764 621.556 33.6757C622.456 32.2188 624.452 31.5426 626.029 32.2167C627.607 32.8305 628.8 34.0158 630.04 35.0582C631.263 36.0825 632.561 37.294 634.249 37.1411C637.517 36.9177 640.392 35.008 643 33.1304C640.412 35.0442 637.581 37.0022 634.251 37.2799C632.509 37.461 631.124 36.2174 629.903 35.2172C628.649 34.1889 627.434 33.0358 625.933 32.4784C624.44 31.8787 622.667 32.5106 621.84 33.8729C620.953 35.2011 620.647 36.8271 620.395 38.423C619.886 41.6327 619.759 44.8989 619.283 48.1509C618.826 51.3808 617.934 54.6892 615.971 57.42C614.081 60.1126 611.174 62.4128 607.678 62.6483C604.137 62.8555 601.173 60.825 598.31 59.5089C595.414 58.1766 592.223 57.3939 589.07 57.5267C585.927 57.6192 582.84 58.9132 580.924 61.3522C578.965 63.7571 578.218 66.9709 577.995 70.1223C577.719 76.4976 578.614 83.0479 579.84 89.3688C580.955 95.6053 583.9 102.061 582.168 109.034C581.361 112.358 579.176 115.705 575.743 117.116C572.348 118.591 568.527 118.025 565.392 116.659C562.217 115.281 559.414 113.089 557.301 110.368C555.195 107.696 553.518 104.52 553.033 100.972C552.536 97.3661 553.561 93.7157 555.774 90.7876C556.913 89.3649 558.625 88.0065 560.786 87.8374C562.929 87.6624 564.781 88.582 566.243 89.6284C569.266 91.7656 571.059 95.3034 571.662 98.7285C572.318 102.196 572.089 105.701 571.354 109.056C569.944 115.755 565.815 122.096 559.863 125.773C554.032 129.52 546.564 130.979 539.709 129.08C532.97 127.28 526.662 122.344 524.533 115.16C523.573 111.65 523.481 107.994 524.332 104.464C525.201 101.079 526.877 97.1025 531.238 95.4242C533.411 94.7601 535.477 94.909 537.538 95.7542C539.58 96.6497 541.027 98.3441 541.965 100.008C543.842 103.421 544.307 106.945 544.6 110.358C544.828 113.817 544.693 117.132 544.345 120.543C543.971 123.972 543.111 127.441 541.618 130.681C538.616 137.208 532.888 142.341 526.143 144.8C519.197 147.348 511.401 146.151 505.19 143.118C503.622 142.396 502.079 141.534 500.717 140.79C499.389 140.111 497.612 139.154 496.214 138.131C493.31 136.028 490.69 133.44 488.774 130.265C486.857 127.109 485.597 123.407 485.674 119.474C485.744 115.48 487.265 111.735 489.686 108.72C492.068 105.703 495.644 103.319 499.844 102.79C504.089 102.212 508.258 103.951 511.192 106.533C514.154 109.147 516.154 112.53 517.227 116.222C518.263 119.859 518.356 123.562 518.068 127.057C517.768 130.581 517.096 133.873 516.363 137.155C515.605 140.462 514.611 143.828 513.178 147.056C511.758 150.286 509.916 153.363 507.733 156.152C505.468 159.058 502.866 161.395 500.115 163.544C494.608 167.814 488.137 171.066 481.082 172.473C474.031 173.873 466.59 173.362 459.825 170.861C452.97 168.359 447.346 164.21 442.13 159.92C431.675 151.196 423.23 139.912 417.582 127.663C414.853 121.837 411.893 116.331 407.849 113.874C405.933 112.699 403.345 112.198 401.166 112.453C398.908 112.731 397.454 113.717 396.848 115.079C394.729 115.107 392.767 114.041 391.755 112.276Z" fill="url(#paint21_linear_3316_579103)"/>
<path d="M391.755 112.276C390.58 110.225 391.204 108.136 391.317 107.776C391.864 107.241 392.679 106.529 393.771 105.854C396.391 104.238 398.852 103.884 400.212 103.762C404.508 103.369 408.649 104.283 412.312 106.514C419.471 111.26 422.314 118.301 425.105 124.091C430.232 135.624 437.693 145.825 447.167 153.999C451.927 158.046 456.986 161.797 462.435 163.836C467.902 165.951 473.953 166.448 479.718 165.387C485.507 164.327 491.064 161.68 495.912 158.028C498.326 156.203 500.638 154.154 502.413 151.924C504.286 149.596 505.86 147.054 507.107 144.327C509.528 138.964 510.971 132.466 511.715 126.48C512.401 120.505 511.166 114.679 507.152 111.105C505.24 109.39 502.824 108.418 500.526 108.714C498.22 108.958 495.863 110.332 494.199 112.403C490.586 116.532 490.513 122.511 493.529 127.403C494.95 129.854 497.033 131.989 499.377 133.74C500.614 134.652 501.709 135.264 503.27 136.097C504.759 136.938 506.059 137.687 507.448 138.351C512.878 141.067 518.983 141.979 524.471 140.089C530.014 138.149 534.817 133.994 537.357 128.657C539.934 123.37 540.375 116.816 540.172 110.632C539.981 107.581 539.5 104.454 538.218 102.109C537.584 100.948 536.779 100.047 535.799 99.6039C534.867 99.1813 533.473 99.0566 532.529 99.3745C530.541 99.9903 528.901 102.651 528.237 105.426C527.505 108.231 527.547 111.308 528.272 114.099C529.791 119.659 534.92 123.998 540.675 125.6C546.444 127.297 552.915 126.168 558.092 122.952C563.354 119.78 566.99 114.415 568.384 108.362C569.781 102.53 569.36 95.3598 564.602 91.8602C563.459 91.007 562.159 90.4314 561 90.53C559.843 90.5863 558.722 91.3612 557.828 92.4358C556.08 94.6655 555.116 97.7827 555.512 100.654C556.37 106.549 560.748 112.131 566.288 114.624C569.051 115.876 572.246 116.333 574.932 115.198C577.661 114.129 579.522 111.475 580.295 108.533C581.961 102.504 579.329 96.1265 578.21 89.6888C577.057 83.1988 576.238 76.6867 576.614 70.0136C576.898 66.7233 577.721 63.2439 579.961 60.5593C582.156 57.8386 585.669 56.4581 589.027 56.4179C592.412 56.3273 595.724 57.2027 598.726 58.6315C601.668 60.0603 604.461 61.9761 607.632 61.8171C610.777 61.6601 613.556 59.5793 615.407 57.0176C617.323 54.4316 618.234 51.2641 618.735 48.0664C619.252 44.8627 619.428 41.5905 619.987 38.3566C620.265 36.7587 620.592 35.0764 621.556 33.6757C622.456 32.2188 624.452 31.5426 626.029 32.2167C627.607 32.8305 628.8 34.0158 630.04 35.0582C631.263 36.0825 632.561 37.294 634.249 37.1411C637.517 36.9177 640.392 35.008 643 33.1304C640.412 35.0442 637.581 37.0022 634.251 37.2799C632.509 37.461 631.124 36.2174 629.903 35.2172C628.649 34.1889 627.434 33.0358 625.933 32.4784C624.44 31.8787 622.667 32.5106 621.84 33.8729C620.953 35.2011 620.647 36.8271 620.395 38.423C619.886 41.6327 619.759 44.8989 619.283 48.1509C618.826 51.3808 617.934 54.6892 615.971 57.42C614.081 60.1126 611.174 62.4128 607.678 62.6483C604.137 62.8555 601.173 60.825 598.31 59.5089C595.414 58.1766 592.223 57.3939 589.07 57.5267C585.927 57.6192 582.84 58.9132 580.924 61.3522C578.965 63.7571 578.218 66.9709 577.995 70.1223C577.719 76.4976 578.614 83.0479 579.84 89.3688C580.955 95.6053 583.9 102.061 582.168 109.034C581.361 112.358 579.176 115.705 575.743 117.116C572.348 118.591 568.527 118.025 565.392 116.659C562.217 115.281 559.414 113.089 557.301 110.368C555.195 107.696 553.518 104.52 553.033 100.972C552.536 97.3661 553.561 93.7157 555.774 90.7876C556.913 89.3649 558.625 88.0065 560.786 87.8374C562.929 87.6624 564.781 88.582 566.243 89.6284C569.266 91.7656 571.059 95.3034 571.662 98.7285C572.318 102.196 572.089 105.701 571.354 109.056C569.944 115.755 565.815 122.096 559.863 125.773C554.032 129.52 546.564 130.979 539.709 129.08C532.97 127.28 526.662 122.344 524.533 115.16C523.573 111.65 523.481 107.994 524.332 104.464C525.201 101.079 526.877 97.1025 531.238 95.4242C533.411 94.7601 535.477 94.909 537.538 95.7542C539.58 96.6497 541.027 98.3441 541.965 100.008C543.842 103.421 544.307 106.945 544.6 110.358C544.828 113.817 544.693 117.132 544.345 120.543C543.971 123.972 543.111 127.441 541.618 130.681C538.616 137.208 532.888 142.341 526.143 144.8C519.197 147.348 511.401 146.151 505.19 143.118C503.622 142.396 502.079 141.534 500.717 140.79C499.389 140.111 497.612 139.154 496.214 138.131C493.31 136.028 490.69 133.44 488.774 130.265C486.857 127.109 485.597 123.407 485.674 119.474C485.744 115.48 487.265 111.735 489.686 108.72C492.068 105.703 495.644 103.319 499.844 102.79C504.089 102.212 508.258 103.951 511.192 106.533C514.154 109.147 516.154 112.53 517.227 116.222C518.263 119.859 518.356 123.562 518.068 127.057C517.768 130.581 517.096 133.873 516.363 137.155C515.605 140.462 514.611 143.828 513.178 147.056C511.758 150.286 509.916 153.363 507.733 156.152C505.468 159.058 502.866 161.395 500.115 163.544C494.608 167.814 488.137 171.066 481.082 172.473C474.031 173.873 466.59 173.362 459.825 170.861C452.97 168.359 447.346 164.21 442.13 159.92C431.675 151.196 423.23 139.912 417.582 127.663C414.853 121.837 411.893 116.331 407.849 113.874C405.933 112.699 403.345 112.198 401.166 112.453C398.908 112.731 397.454 113.717 396.848 115.079C394.729 115.107 392.767 114.041 391.755 112.276Z" fill="url(#paint22_linear_3316_579103)"/>
<path d="M271.227 267.096C272.457 271.195 274.093 277.524 275.016 285.381C277.878 309.727 270.324 318.338 276.194 330.09C278.163 334.032 286.16 339.047 302.076 348.916C319.198 359.532 327.758 364.84 335.8 367.35C347.702 371.063 371.271 375.421 377.761 365.78C380.121 362.272 378.356 359.684 377.368 343.817C376.151 324.26 378.628 324.888 376.976 319.108C372.909 304.879 359.281 305.939 331.486 283.811C317.49 272.668 316.111 268.551 306.781 265.377C293.422 260.837 280.254 263.842 271.227 267.096Z" fill="#7F8E35"/>
<path d="M353.375 195.094C367.194 190.287 377.807 190.508 384.761 191.496C399.003 193.519 402.556 199.411 418.982 202.192C435.106 204.921 436.482 200.055 448.497 202.621C470.421 207.302 490.666 228.806 486.996 241.979C485.39 247.743 479.279 251.649 470.313 257.38C467.009 259.491 461.419 263.011 454.058 265.082C454.058 265.082 440.452 268.907 422.405 263.798C402.23 258.086 375.126 233.69 353.375 195.094Z" fill="#7F8E35"/>
<path d="M271.227 267.096C272.457 271.195 274.093 277.524 275.016 285.381C277.878 309.727 270.324 318.338 276.194 330.09C278.163 334.032 286.16 339.047 302.076 348.916C319.198 359.532 327.758 364.84 335.8 367.35C347.702 371.063 371.271 375.421 377.761 365.78C380.121 362.272 378.356 359.684 377.368 343.817C376.151 324.26 378.628 324.888 376.976 319.108C372.909 304.879 359.281 305.939 331.486 283.811C317.49 272.668 316.111 268.551 306.781 265.377C293.422 260.837 280.254 263.842 271.227 267.096Z" fill="url(#paint23_linear_3316_579103)"/>
<path d="M353.375 195.094C367.194 190.287 377.807 190.508 384.761 191.496C399.003 193.519 402.556 199.411 418.982 202.192C435.106 204.921 436.482 200.055 448.497 202.621C470.421 207.302 490.666 228.806 486.996 241.979C485.39 247.743 479.279 251.649 470.313 257.38C467.009 259.491 461.419 263.011 454.058 265.082C454.058 265.082 440.452 268.907 422.405 263.798C402.23 258.086 375.126 233.69 353.375 195.094Z" fill="url(#paint24_linear_3316_579103)"/>
<path d="M326.373 330.625C325.444 329.168 324.665 327.619 323.846 326.093C333.659 332.929 345.378 336.904 357.236 337.369C344.62 336.513 332.394 331.706 322.606 323.872C321.282 321.245 320.035 318.569 318.799 315.874C316.471 310.817 314.119 305.667 310.962 300.91C310.354 299.964 309.618 299.111 308.962 298.199C313.928 297.936 318.946 298.294 323.778 299.594C326.57 300.341 329.293 301.385 331.866 302.739C334.492 304.027 336.742 305.905 339.086 307.668C336.867 305.768 334.712 303.727 332.138 302.256C329.619 300.721 326.91 299.477 324.095 298.531C318.759 296.728 313.079 296.034 307.427 296.123C305.3 293.392 302.889 290.584 300.153 287.779C290.301 277.675 279.809 271.231 271.225 267.096C274.473 269.289 278.055 272.022 281.717 275.401C284.323 277.806 286.584 280.184 288.534 282.432L291.738 302.071L295.358 322.755L293.388 301.86L292.007 285.127C294.003 286.753 295.961 288.421 297.843 290.176C301.831 293.927 305.557 297.97 308.662 302.464C311 305.742 312.958 309.298 314.827 312.938C315.326 326.628 317.834 340.216 322.276 353.12C318.419 340.864 316.367 328.092 316.021 315.295C316.28 315.81 316.54 316.321 316.799 316.836C319.286 321.815 321.787 326.876 324.985 331.547C328.184 336.222 332.112 340.341 336.43 343.929C345.139 351.075 355.26 356.086 365.532 360.352C355.407 355.752 345.485 350.405 337.15 343.086C333.017 339.409 329.323 335.26 326.373 330.625Z" fill="url(#paint25_linear_3316_579103)"/>
<path d="M446.613 244.664C458.187 245.056 469.592 243.022 480.75 240.462C469.522 242.662 458.059 244.314 446.678 243.555C441.025 243.128 435.353 242.034 430.397 239.44L429.329 238.864C434.486 239.607 439.711 239.824 444.895 239.436C448.233 239.19 451.547 238.675 454.803 237.928C458.052 237.154 461.175 235.934 464.359 234.962C461.143 235.848 458 236.975 454.744 237.657C451.485 238.311 448.179 238.729 444.861 238.88C438.651 239.172 432.429 238.58 426.375 237.268L415.261 231.273C407.667 227.027 399.8 223.165 392.624 218.545C404.49 220.656 416.684 220.584 428.401 218.293C414.972 220.201 401.233 219.207 388.334 215.516C387.574 214.963 386.761 214.466 386.024 213.886C378.97 208.326 374.245 204.643 372.325 203.092C368.764 200.212 362.989 196.865 353.375 195.097C362.586 197.948 368.4 202.082 372.084 205.491C375.436 208.592 378.026 212.019 383.912 216.458C387.419 219.105 390.566 220.952 392.751 222.133C399.313 228.14 404.052 236.26 406.017 245.161C405.011 237.957 402.172 230.953 397.832 224.944C403.291 227.82 408.842 230.442 414.251 233.252L418.598 235.419C425.151 240.277 430.077 247.397 432.136 255.416C430.63 248.473 426.952 242.024 421.815 237.023L429.651 240.929C434.985 243.499 440.862 244.412 446.613 244.664Z" fill="url(#paint26_linear_3316_579103)"/>
<path d="M83.9559 210.147C85.0163 209.982 88.2056 209.624 91.4331 211.467C96.2905 214.24 97.0692 219.614 97.1517 220.266C97.1497 273.214 100.957 332.686 111.499 396.996C115.603 422.035 120.416 445.906 125.711 468.557C123.087 469.143 119.569 469.66 115.418 469.537C111.466 469.421 108.132 468.759 105.617 468.066C98.3831 427.209 92.2681 382.233 88.3926 333.596C84.8834 289.567 83.6621 248.256 83.9559 210.147Z" fill="#7F8E35"/>
<path d="M83.9559 210.147C85.0163 209.982 88.2056 209.624 91.4331 211.467C96.2905 214.24 97.0692 219.614 97.1517 220.266C97.1497 273.214 100.957 332.686 111.499 396.996C115.603 422.035 120.416 445.906 125.711 468.557C123.087 469.143 119.569 469.66 115.418 469.537C111.466 469.421 108.132 468.759 105.617 468.066C98.3831 427.209 92.2681 382.233 88.3926 333.596C84.8834 289.567 83.6621 248.256 83.9559 210.147Z" fill="url(#paint27_linear_3316_579103)"/>
<path d="M95.5882 402.533C98.532 425.321 101.92 447.184 105.617 468.066C106.633 468.346 107.818 468.61 109.09 468.847C102.19 423.763 95.2923 378.68 88.3925 333.596C90.1511 355.656 92.5055 378.668 95.5882 402.533Z" fill="url(#paint28_linear_3316_579103)"/>
<path d="M111.498 396.996C100.957 332.686 97.1496 273.214 97.1516 220.266C97.0128 219.167 96.5902 217.02 95.0609 214.842C93.8053 213.057 92.3385 212.013 91.435 211.467C91.1211 238.101 91.7147 266.192 93.5256 295.586C97.4916 359.986 106.534 418.292 117.674 469.525C120.841 469.445 123.583 469.034 125.712 468.559C120.416 445.906 115.603 422.035 111.498 396.996Z" fill="url(#paint29_linear_3316_579103)"/>
<path d="M271.227 267.096C272.457 271.195 274.093 277.524 275.016 285.381C277.878 309.727 270.324 318.338 276.194 330.09C278.163 334.032 286.16 339.047 302.076 348.916C319.198 359.532 327.758 364.84 335.8 367.35C347.702 371.063 371.271 375.421 377.761 365.78C380.121 362.272 378.356 359.684 377.368 343.817C376.151 324.26 378.628 324.888 376.976 319.108C372.909 304.879 359.281 305.939 331.486 283.811C317.49 272.668 316.111 268.551 306.781 265.377C293.422 260.837 280.254 263.842 271.227 267.096Z" fill="url(#paint30_linear_3316_579103)"/>
<path d="M353.375 195.094C367.194 190.287 377.807 190.508 384.761 191.496C399.003 193.519 402.556 199.411 418.982 202.192C435.106 204.921 436.482 200.055 448.497 202.621C470.421 207.302 490.666 228.806 486.996 241.979C485.39 247.743 479.279 251.649 470.313 257.38C467.009 259.491 461.419 263.011 454.058 265.082C454.058 265.082 440.452 268.907 422.405 263.798C402.23 258.086 375.126 233.69 353.375 195.094Z" fill="url(#paint31_linear_3316_579103)"/>
<defs>
<linearGradient id="paint0_linear_3316_579103" x1="268.16" y1="363.38" x2="211.845" y2="214.929" gradientUnits="userSpaceOnUse">
<stop stop-color="#3E542A"/>
<stop offset="1" stop-color="#3E542A" stop-opacity="0"/>
</linearGradient>
<linearGradient id="paint1_linear_3316_579103" x1="357.463" y1="274.171" x2="289.818" y2="143.97" gradientUnits="userSpaceOnUse">
<stop stop-color="#3E542A"/>
<stop offset="1" stop-color="#3E542A" stop-opacity="0"/>
</linearGradient>
<linearGradient id="paint2_linear_3316_579103" x1="311.011" y1="343.589" x2="153.897" y2="152.006" gradientUnits="userSpaceOnUse">
<stop stop-color="#3E542A"/>
<stop offset="1" stop-color="#3E542A" stop-opacity="0"/>
</linearGradient>
<linearGradient id="paint3_linear_3316_579103" x1="393.386" y1="239.815" x2="243.85" y2="110.13" gradientUnits="userSpaceOnUse">
<stop stop-color="#3E542A"/>
<stop offset="1" stop-color="#3E542A" stop-opacity="0"/>
</linearGradient>
<linearGradient id="paint4_linear_3316_579103" x1="82.2502" y1="137.002" x2="236.431" y2="240.523" gradientUnits="userSpaceOnUse">
<stop stop-color="#C8D34F"/>
<stop offset="1" stop-color="#C8D34F" stop-opacity="0"/>
</linearGradient>
<linearGradient id="paint5_linear_3316_579103" x1="137.132" y1="55.262" x2="291.313" y2="158.783" gradientUnits="userSpaceOnUse">
<stop stop-color="#C8D34F"/>
<stop offset="1" stop-color="#C8D34F" stop-opacity="0"/>
</linearGradient>
<linearGradient id="paint6_linear_3316_579103" x1="503.764" y1="205.589" x2="500.305" y2="16.0431" gradientUnits="userSpaceOnUse">
<stop stop-color="#3E542A"/>
<stop offset="1" stop-color="#3E542A" stop-opacity="0"/>
</linearGradient>
<linearGradient id="paint7_linear_3316_579103" x1="608.697" y1="-32.6125" x2="275.965" y2="228.212" gradientUnits="userSpaceOnUse">
<stop stop-color="#C8D34F"/>
<stop offset="1" stop-color="#C8D34F" stop-opacity="0"/>
</linearGradient>
<linearGradient id="paint8_linear_3316_579103" x1="125.965" y1="465.88" x2="131.04" y2="539.774" gradientUnits="userSpaceOnUse">
<stop stop-color="#3E542A"/>
<stop offset="1" stop-color="#3E542A" stop-opacity="0"/>
</linearGradient>
<linearGradient id="paint9_linear_3316_579103" x1="137.648" y1="467.705" x2="129.971" y2="528.189" gradientUnits="userSpaceOnUse">
<stop stop-color="#3E542A"/>
<stop offset="1" stop-color="#3E542A" stop-opacity="0"/>
</linearGradient>
<linearGradient id="paint10_linear_3316_579103" x1="93.7797" y1="512.587" x2="127.043" y2="504.912" gradientUnits="userSpaceOnUse">
<stop stop-color="#3E542A"/>
<stop offset="1" stop-color="#3E542A" stop-opacity="0"/>
</linearGradient>
<linearGradient id="paint11_linear_3316_579103" x1="-1.92351" y1="415" x2="189.706" y2="402.931" gradientUnits="userSpaceOnUse">
<stop stop-color="#3E542A"/>
<stop offset="1" stop-color="#3E542A" stop-opacity="0"/>
</linearGradient>
<linearGradient id="paint12_linear_3316_579103" x1="42.2314" y1="568.793" x2="230.157" y2="289.172" gradientUnits="userSpaceOnUse">
<stop stop-color="#3E542A"/>
<stop offset="1" stop-color="#3E542A" stop-opacity="0"/>
</linearGradient>
<linearGradient id="paint13_linear_3316_579103" x1="324.499" y1="388.582" x2="147.015" y2="405.98" gradientUnits="userSpaceOnUse">
<stop stop-color="#C8D34F"/>
<stop offset="1" stop-color="#C8D34F" stop-opacity="0"/>
</linearGradient>
<linearGradient id="paint14_linear_3316_579103" x1="159.193" y1="369.558" x2="46.1407" y2="382.036" gradientUnits="userSpaceOnUse">
<stop stop-color="#3E542A"/>
<stop offset="1" stop-color="#3E542A" stop-opacity="0"/>
</linearGradient>
<linearGradient id="paint15_linear_3316_579103" x1="36.4329" y1="463.563" x2="78.2769" y2="379.884" gradientUnits="userSpaceOnUse">
<stop stop-color="#3E542A"/>
<stop offset="1" stop-color="#3E542A" stop-opacity="0"/>
</linearGradient>
<linearGradient id="paint16_linear_3316_579103" x1="159.166" y1="469.489" x2="-53.3694" y2="289.469" gradientUnits="userSpaceOnUse">
<stop stop-color="#3E542A"/>
<stop offset="1" stop-color="#3E542A" stop-opacity="0"/>
</linearGradient>
<linearGradient id="paint17_linear_3316_579103" x1="-239.663" y1="204.829" x2="86.1816" y2="401.256" gradientUnits="userSpaceOnUse">
<stop stop-color="#C8D34F"/>
<stop offset="1" stop-color="#C8D34F" stop-opacity="0"/>
</linearGradient>
<linearGradient id="paint18_linear_3316_579103" x1="18.2566" y1="457.883" x2="138.085" y2="282.721" gradientUnits="userSpaceOnUse">
<stop stop-color="#3E542A" stop-opacity="0.69"/>
<stop offset="1" stop-color="#3E542A" stop-opacity="0"/>
</linearGradient>
<linearGradient id="paint19_linear_3316_579103" x1="324.949" y1="-135.132" x2="226.154" y2="304.661" gradientUnits="userSpaceOnUse">
<stop stop-color="#C8D34F"/>
<stop offset="1" stop-color="#C8D34F" stop-opacity="0"/>
</linearGradient>
<linearGradient id="paint20_linear_3316_579103" x1="424.876" y1="454.647" x2="226.836" y2="226.878" gradientUnits="userSpaceOnUse">
<stop stop-color="#3E542A" stop-opacity="0.72"/>
<stop offset="1" stop-color="#3E542A" stop-opacity="0"/>
</linearGradient>
<linearGradient id="paint21_linear_3316_579103" x1="545.675" y1="295.63" x2="519.515" y2="91.0704" gradientUnits="userSpaceOnUse">
<stop stop-color="#3E542A"/>
<stop offset="1" stop-color="#3E542A" stop-opacity="0"/>
</linearGradient>
<linearGradient id="paint22_linear_3316_579103" x1="640.851" y1="35.8904" x2="293.901" y2="213.477" gradientUnits="userSpaceOnUse">
<stop stop-color="#C8D34F"/>
<stop offset="1" stop-color="#C8D34F" stop-opacity="0"/>
</linearGradient>
<linearGradient id="paint23_linear_3316_579103" x1="297.273" y1="454.652" x2="326.982" y2="305.342" gradientUnits="userSpaceOnUse">
<stop stop-color="#3E542A"/>
<stop offset="1" stop-color="#3E542A" stop-opacity="0"/>
</linearGradient>
<linearGradient id="paint24_linear_3316_579103" x1="519.481" y1="296.454" x2="421.603" y2="222.034" gradientUnits="userSpaceOnUse">
<stop stop-color="#3E542A"/>
<stop offset="1" stop-color="#3E542A" stop-opacity="0"/>
</linearGradient>
<linearGradient id="paint25_linear_3316_579103" x1="197.884" y1="212.808" x2="393.87" y2="386.306" gradientUnits="userSpaceOnUse">
<stop stop-color="#3E542A"/>
<stop offset="1" stop-color="#3E542A" stop-opacity="0"/>
</linearGradient>
<linearGradient id="paint26_linear_3316_579103" x1="237.515" y1="159.01" x2="509.234" y2="268.943" gradientUnits="userSpaceOnUse">
<stop stop-color="#3E542A"/>
<stop offset="1" stop-color="#3E542A" stop-opacity="0"/>
</linearGradient>
<linearGradient id="paint27_linear_3316_579103" x1="46.4732" y1="128.743" x2="127.767" y2="447.38" gradientUnits="userSpaceOnUse">
<stop stop-color="#C8D34F"/>
<stop offset="1" stop-color="#C8D34F" stop-opacity="0"/>
</linearGradient>
<linearGradient id="paint28_linear_3316_579103" x1="210.717" y1="764.587" x2="49.6728" y2="249.523" gradientUnits="userSpaceOnUse">
<stop stop-color="#3E542A"/>
<stop offset="1" stop-color="#3E542A" stop-opacity="0"/>
</linearGradient>
<linearGradient id="paint29_linear_3316_579103" x1="236.216" y1="756.613" x2="75.1696" y2="241.551" gradientUnits="userSpaceOnUse">
<stop stop-color="#3E542A"/>
<stop offset="1" stop-color="#3E542A" stop-opacity="0"/>
</linearGradient>
<linearGradient id="paint30_linear_3316_579103" x1="262.513" y1="187.483" x2="328.811" y2="329.002" gradientUnits="userSpaceOnUse">
<stop stop-color="#C8D34F"/>
<stop offset="1" stop-color="#C8D34F" stop-opacity="0"/>
</linearGradient>
<linearGradient id="paint31_linear_3316_579103" x1="305.178" y1="40.7529" x2="437.565" y2="240.38" gradientUnits="userSpaceOnUse">
<stop stop-color="#C8D34F"/>
<stop offset="1" stop-color="#C8D34F" stop-opacity="0"/>
</linearGradient>
</defs>
</svg>
