<svg width="593" height="427" viewBox="0 0 593 427" fill="none" xmlns="http://www.w3.org/2000/svg">
<path d="M143.799 74.8C174.199 48.7 204.199 38.9 223.699 32.7C316.699 3.20002 396.799 33.8 420.899 43.4C439.599 50.8 452.599 56.1 466.299 68.8C498.199 98.2 503.299 138.9 508.599 180.8C512.299 210.5 508.999 238.8 502.399 295.4C499.899 317.1 496.999 334.4 484.599 351.3C473.799 366 459.9 374.6 445.199 381.4C385.499 408.9 315.599 404.1 279.499 399.7C218.299 392.3 187.699 388.6 161.299 371.2C91.1995 324.7 59.9995 219.2 92.1995 143.1C107.699 106.3 135.799 81.7 143.799 74.8Z" fill="#F9F1F1"/>
<path d="M143.799 74.8C174.199 48.7 204.199 38.9 223.699 32.7C316.699 3.20002 396.799 33.8 420.899 43.4C439.599 50.8 452.599 56.1 466.299 68.8C498.199 98.2 503.299 138.9 508.599 180.8C512.299 210.5 508.999 238.8 502.399 295.4C499.899 317.1 496.999 334.4 484.599 351.3C473.799 366 459.9 374.6 445.199 381.4C385.499 408.9 315.599 404.1 279.499 399.7C218.299 392.3 187.699 388.6 161.299 371.2C91.1995 324.7 59.9995 219.2 92.1995 143.1C107.699 106.3 135.799 81.7 143.799 74.8Z" fill="url(#paint0_linear_3137_572743)"/>
<path d="M143.799 74.8C174.199 48.7 204.199 38.9 223.699 32.7C316.699 3.20002 396.799 33.8 420.899 43.4C439.599 50.8 452.599 56.1 466.299 68.8C498.199 98.2 503.299 138.9 508.599 180.8C512.299 210.5 508.999 238.8 502.399 295.4C499.899 317.1 496.999 334.4 484.599 351.3C473.799 366 459.9 374.6 445.199 381.4C385.499 408.9 315.599 404.1 279.499 399.7C218.299 392.3 187.699 388.6 161.299 371.2C91.1995 324.7 59.9995 219.2 92.1995 143.1C107.699 106.3 135.799 81.7 143.799 74.8Z" stroke="#7B4E4C" stroke-width="1.4936" stroke-miterlimit="10"/>
<path d="M250.403 282.819C271.127 294.613 325.213 301.016 369.525 257.209L370.536 258.219L369.525 257.209C386.374 240.697 396.484 202.112 364.639 167.572C359.248 161.675 344.252 144.658 319.484 137.244C287.808 127.809 232.88 131.684 212.325 173.975C194.633 210.368 209.629 259.399 250.403 282.819Z" stroke="#935B9B" stroke-width="2.5554"/>
<path d="M191.195 303.484L171 321.274L179.57 332L199.764 314.21L191.195 303.484Z" fill="#CE387A"/>
<path d="M217 313.205L200.059 292L189.843 300.999L206.785 322.204L217 313.205Z" fill="#CE387A"/>
<path d="M293.126 234.282C289.13 225.853 289.987 222.171 291.32 220.324C294.337 216.771 300.619 220.037 306.616 215.217C307.514 214.428 310.962 211.623 311.356 207.673C311.787 201.436 304.094 199.409 301.633 191.434C300.537 188.116 300.355 183.769 302.562 178" stroke="#324A9A" stroke-width="2" stroke-miterlimit="10"/>
<path d="M240 167.711C248.194 173.532 252.2 173.531 254.203 172.44C258.573 170.075 256.388 162.617 262.579 157.342C263.49 156.432 267.131 153.522 271.319 154.068C277.875 154.795 278.603 163.345 286.615 167.711C289.892 169.53 294.445 170.621 301 169.53" stroke="#E5231E" stroke-width="2" stroke-miterlimit="10"/>
<path d="M295.412 278.571C294.382 275.737 292.248 271.997 288.346 269.377C279.269 263.318 267.895 269.371 265.165 264.887C262.011 259.99 274.201 248.892 271.732 245.745C268.414 241.773 246.207 259.909 234.503 252.467C231.704 250.751 229.658 247.597 229.217 244.25C228.599 239.732 231.535 235.911 237.331 229.779C250.686 215.56 258.443 212.416 257.831 208.736C257.479 206.393 253.491 203.606 235.654 202.468" stroke="#E5231E" stroke-width="2" stroke-miterlimit="10"/>
<path d="M311.688 277.325C311.745 274.234 312.355 269.913 315.149 265.998C321.713 256.982 334.371 258.772 335.49 253.645C336.764 247.846 321.329 241.37 322.743 237.565C324.464 232.416 351.714 242.227 360.12 231.086C362.183 228.469 362.996 224.685 362.206 221.504C361.122 217 357.037 214.238 349.719 210.441C332.139 201.497 323.874 201.125 323.127 197.518C322.675 195.233 325.512 190.892 341.905 183.707" stroke="#324A9A" stroke-width="2" stroke-miterlimit="10"/>
<defs>
<linearGradient id="paint0_linear_3137_572743" x1="294.821" y1="20.1758" x2="294.821" y2="403.095" gradientUnits="userSpaceOnUse">
<stop stop-color="#F9F1F1"/>
<stop offset="1" stop-color="#FEF3E6"/>
</linearGradient>
</defs>
</svg>
