<svg width="593" height="427" viewBox="0 0 593 427" fill="none" xmlns="http://www.w3.org/2000/svg">
<path d="M143.799 74.8C174.199 48.7 204.199 38.9 223.699 32.7C316.699 3.20002 396.799 33.8 420.899 43.4C439.599 50.8 452.599 56.1 466.299 68.8C498.199 98.2 503.299 138.9 508.599 180.8C512.299 210.5 508.999 238.8 502.399 295.4C499.899 317.1 496.999 334.4 484.599 351.3C473.799 366 459.9 374.6 445.199 381.4C385.499 408.9 315.599 404.1 279.499 399.7C218.299 392.3 187.699 388.6 161.299 371.2C91.1995 324.7 59.9995 219.2 92.1995 143.1C107.699 106.3 135.799 81.7 143.799 74.8Z" fill="#F9F1F1"/>
<path d="M143.799 74.8C174.199 48.7 204.199 38.9 223.699 32.7C316.699 3.20002 396.799 33.8 420.899 43.4C439.599 50.8 452.599 56.1 466.299 68.8C498.199 98.2 503.299 138.9 508.599 180.8C512.299 210.5 508.999 238.8 502.399 295.4C499.899 317.1 496.999 334.4 484.599 351.3C473.799 366 459.9 374.6 445.199 381.4C385.499 408.9 315.599 404.1 279.499 399.7C218.299 392.3 187.699 388.6 161.299 371.2C91.1995 324.7 59.9995 219.2 92.1995 143.1C107.699 106.3 135.799 81.7 143.799 74.8Z" fill="url(#paint0_linear_3143_572186)"/>
<path d="M143.799 74.8C174.199 48.7 204.199 38.9 223.699 32.7C316.699 3.20002 396.799 33.8 420.899 43.4C439.599 50.8 452.599 56.1 466.299 68.8C498.199 98.2 503.299 138.9 508.599 180.8C512.299 210.5 508.999 238.8 502.399 295.4C499.899 317.1 496.999 334.4 484.599 351.3C473.799 366 459.9 374.6 445.199 381.4C385.499 408.9 315.599 404.1 279.499 399.7C218.299 392.3 187.699 388.6 161.299 371.2C91.1995 324.7 59.9995 219.2 92.1995 143.1C107.699 106.3 135.799 81.7 143.799 74.8Z" stroke="#7B4E4C" stroke-width="1.4936" stroke-miterlimit="10"/>
<path d="M250.403 284.819C271.127 296.613 325.213 303.016 369.525 259.209L370.536 260.219L369.525 259.209C386.374 242.697 396.484 204.112 364.639 169.572C359.248 163.675 344.252 146.658 319.484 139.244C287.808 129.809 232.88 133.684 212.325 175.975C194.633 212.368 209.629 261.399 250.403 284.819Z" stroke="#935B9B" stroke-width="2.5554"/>
<path d="M180.283 295.199L203.01 280.785L196.222 268.851L173.495 283.265L180.283 295.199Z" fill="#CE387A"/>
<path d="M156.313 281.564L169.732 305.156L181.229 297.865L167.81 274.272L156.313 281.564Z" fill="#CE387A"/>
<path d="M191.195 303.484L171 321.273L179.57 332L199.764 314.21L191.195 303.484Z" fill="#CE387A"/>
<path d="M217 313.205L200.059 292L189.843 300.999L206.785 322.204L217 313.205Z" fill="#CE387A"/>
<path d="M249.567 245.871C251.139 243.781 252.855 240.463 252.942 236.399C253.118 226.962 243.467 221.614 245.446 217.513C247.526 212.908 261.203 216.451 262.335 213.173C263.67 208.889 240.259 201.447 240.218 189.455C240.162 186.617 241.495 183.641 243.711 181.733C246.693 179.142 250.818 179.451 257.939 180.729C274.414 183.633 280.283 187.747 282.661 185.557C284.192 184.191 284.36 179.986 276.916 166.553" stroke="#324A9A" stroke-width="2" stroke-miterlimit="10"/>
<path d="M256.022 248.638C257.454 246.467 259.19 242.787 259.217 238.501C259.291 229.567 251.854 224.928 253.811 221.188C256.112 216.523 268.943 220.89 270.7 216.848C271.952 214.013 266.648 208.914 262.59 204.903C254.392 197.023 247.495 194.376 248.165 190.272C248.409 188.542 249.699 187.598 250.162 187.116C254.051 183.923 260.263 187.112 269.235 189.078C276.697 190.739 287.74 193.332 290.946 189.373C294.313 185.133 287.93 174.74 285.201 170.369" stroke="#324A9A" stroke-width="2" stroke-miterlimit="10"/>
<path fill-rule="evenodd" clip-rule="evenodd" d="M279.411 173.314C280.911 176.487 281.765 178.84 282.183 180.582C282.518 181.972 282.557 182.892 282.471 183.502L284.507 182.802C284.497 182.026 284.373 181.133 284.128 180.115C283.679 178.246 282.797 175.821 281.313 172.659L279.411 173.314Z" fill="#E5231E"/>
<path fill-rule="evenodd" clip-rule="evenodd" d="M272.157 185.23L272.577 183.269C269.336 182.333 265.168 181.21 259.813 180.197L259.394 182.153C264.761 183.166 268.915 184.29 272.157 185.23Z" fill="#E5231E"/>
<path fill-rule="evenodd" clip-rule="evenodd" d="M258.124 236.697C257.747 233.381 256.304 230.724 254.946 228.402C254.849 228.237 254.752 228.072 254.655 227.908L254.653 227.904L254.653 227.904C253.973 226.749 253.309 225.62 252.908 224.572C252.437 223.342 252.25 222.026 252.921 220.735C253.708 219.151 255.333 218.458 256.98 218.13C258.635 217.8 260.592 217.783 262.42 217.785C262.412 217.964 262.403 218.166 262.393 218.395C262.364 219.049 262.345 219.489 262.332 219.785C260.504 219.784 258.778 219.811 257.371 220.091C255.913 220.382 255.075 220.89 254.709 221.631L254.704 221.641L254.698 221.652C254.397 222.228 254.406 222.89 254.776 223.857C255.112 224.737 255.681 225.704 256.375 226.886L256.375 226.886L256.376 226.887C256.472 227.051 256.571 227.219 256.672 227.392C258.218 230.033 260.087 233.439 260.212 237.894L258.124 236.697Z" fill="#E5231E"/>
<path d="M295.999 246.407C303.103 240.95 306.669 240.819 308.488 241.726C312.457 243.69 310.757 250.408 316.442 254.906C317.282 255.687 320.62 258.161 324.331 257.537C330.143 256.674 330.511 249.03 337.501 244.876C340.359 243.148 344.376 242.025 350.248 242.783" stroke="#E5231E" stroke-width="2" stroke-miterlimit="10"/>
<path d="M297.049 239.712C304.616 233.589 308.218 234.43 309.539 235.031C312.841 236.532 316.305 242.411 317.739 246.092C318.087 246.729 318.808 248.65 320.645 250.043C321.143 250.35 322.812 251.587 324.259 251.209C326.355 250.807 326.565 247.715 328.565 244.719C330.871 241.225 334.39 239.796 338.551 238.182C343.673 236.207 348.375 236.034 351.299 236.088" stroke="#E5231E" stroke-width="2" stroke-miterlimit="10"/>
<path fill-rule="evenodd" clip-rule="evenodd" d="M296.715 247.117C303.718 241.764 306.8 242.002 308.041 242.62L308.043 242.622C308.78 242.986 309.285 243.577 309.71 244.428C310.099 245.207 310.385 246.125 310.724 247.211L310.724 247.211C310.77 247.359 310.817 247.511 310.866 247.665C311.085 248.361 311.325 249.098 311.623 249.853C311.908 249.778 312.321 249.67 312.917 249.513C313.166 249.447 313.384 249.39 313.573 249.34C313.263 248.585 313.012 247.821 312.774 247.066C312.728 246.918 312.682 246.77 312.635 246.621L312.635 246.621C312.305 245.558 311.966 244.47 311.499 243.534C310.949 242.433 310.178 241.447 308.932 240.83C306.54 239.638 302.515 240.14 295.388 245.614L295.848 246.213C296.245 246.626 296.522 246.915 296.715 247.117Z" fill="#324A9A"/>
<path fill-rule="evenodd" clip-rule="evenodd" d="M343.693 235.689C341.963 236.017 340.107 236.511 338.192 237.249L338.19 237.249C335.562 238.269 333.053 239.257 330.929 240.823L331.683 242.765C333.598 241.22 336.019 240.237 338.912 239.114C340.837 238.373 342.701 237.893 344.43 237.588L343.693 235.689Z" fill="#324A9A"/>
<defs>
<linearGradient id="paint0_linear_3143_572186" x1="294.821" y1="20.1758" x2="294.821" y2="403.095" gradientUnits="userSpaceOnUse">
<stop stop-color="#F9F1F1"/>
<stop offset="1" stop-color="#FEF3E6"/>
</linearGradient>
</defs>
</svg>
