<svg width="593" height="427" viewBox="0 0 593 427" fill="none" xmlns="http://www.w3.org/2000/svg">
<path d="M143.799 74.8C174.199 48.7 204.199 38.9 223.699 32.7C316.699 3.20002 396.799 33.8 420.899 43.4C439.599 50.8 452.599 56.1 466.299 68.8C498.199 98.2 503.299 138.9 508.599 180.8C512.299 210.5 508.999 238.8 502.399 295.4C499.899 317.1 496.999 334.4 484.599 351.3C473.799 366 459.9 374.6 445.199 381.4C385.499 408.9 315.599 404.1 279.499 399.7C218.299 392.3 187.699 388.6 161.299 371.2C91.1995 324.7 59.9995 219.2 92.1995 143.1C107.699 106.3 135.799 81.7 143.799 74.8Z" fill="#F9F1F1"/>
<path d="M143.799 74.8C174.199 48.7 204.199 38.9 223.699 32.7C316.699 3.20002 396.799 33.8 420.899 43.4C439.599 50.8 452.599 56.1 466.299 68.8C498.199 98.2 503.299 138.9 508.599 180.8C512.299 210.5 508.999 238.8 502.399 295.4C499.899 317.1 496.999 334.4 484.599 351.3C473.799 366 459.9 374.6 445.199 381.4C385.499 408.9 315.599 404.1 279.499 399.7C218.299 392.3 187.699 388.6 161.299 371.2C91.1995 324.7 59.9995 219.2 92.1995 143.1C107.699 106.3 135.799 81.7 143.799 74.8Z" fill="url(#paint0_linear_3143_572404)"/>
<path d="M143.799 74.8C174.199 48.7 204.199 38.9 223.699 32.7C316.699 3.20002 396.799 33.8 420.899 43.4C439.599 50.8 452.599 56.1 466.299 68.8C498.199 98.2 503.299 138.9 508.599 180.8C512.299 210.5 508.999 238.8 502.399 295.4C499.899 317.1 496.999 334.4 484.599 351.3C473.799 366 459.9 374.6 445.199 381.4C385.499 408.9 315.599 404.1 279.499 399.7C218.299 392.3 187.699 388.6 161.299 371.2C91.1995 324.7 59.9995 219.2 92.1995 143.1C107.699 106.3 135.799 81.7 143.799 74.8Z" stroke="#7B4E4C" stroke-width="1.4936" stroke-miterlimit="10"/>
<path d="M157.799 237.255L183.609 229.632L180.358 216.293L154.547 223.916L157.799 237.255Z" fill="#CE387A"/>
<path d="M138.494 217.564L144.922 243.934L157.978 240.078L151.55 213.708L138.494 217.564Z" fill="#CE387A"/>
<path d="M453.297 210.909L426.668 207.011L424.029 220.484L450.658 224.382L453.297 210.909Z" fill="#CE387A"/>
<path d="M462.572 236.879L467.789 210.243L454.319 208.271L449.102 234.907L462.572 236.879Z" fill="#CE387A"/>
<path d="M252.403 284.819C273.127 296.613 327.213 303.016 371.525 259.209L372.536 260.219L371.525 259.209C388.374 242.697 398.484 204.112 366.639 169.572C361.248 163.675 346.252 146.658 321.484 139.244C289.808 129.809 234.88 133.684 214.325 175.975C196.633 212.368 211.629 261.399 252.403 284.819Z" stroke="#935B9B" stroke-width="2.5554" stroke-dasharray="6.11 2.11"/>
<path d="M233.488 185.361C225.045 184.516 221.294 191.223 222.967 196.39C224.64 201.556 239.511 207.248 245.491 217.413C251.47 227.578 246.959 243.389 247.519 247.549C248.08 251.708 251.683 254.587 256.143 254.724C261.214 254.879 263.832 252.515 265.815 246.089C267.799 239.664 266.401 225.445 261.143 213.876C254.76 199.832 241.931 186.207 233.488 185.361Z" fill="#E5231E"/>
<path fill-rule="evenodd" clip-rule="evenodd" d="M266.378 233.465C263.988 234.169 259.877 235.232 256.815 235.24C254.265 235.246 251.073 234.524 248.579 233.824C248.462 236.738 248.149 239.493 247.885 241.815C247.709 243.37 247.554 244.731 247.495 245.817C249.917 246.5 253.532 247.404 256.313 247.606C259.179 247.814 263.111 247.419 265.479 247.121C265.593 246.79 265.705 246.446 265.815 246.089C266.717 243.166 266.92 238.631 266.378 233.465Z" fill="#324B9A"/>
<path d="M284.08 241.44C292.368 243.153 296.826 236.859 295.731 231.541C294.636 226.222 280.499 219.02 275.676 208.278C270.854 197.537 277.065 182.254 276.964 178.053C276.863 173.852 273.602 170.613 269.189 170.017C264.173 169.339 261.315 171.424 258.642 177.619C255.969 183.814 255.799 198.121 259.751 210.186C264.549 224.833 275.791 239.727 284.08 241.44Z" fill="#E5231E"/>
<path fill-rule="evenodd" clip-rule="evenodd" d="M258.235 178.674C260.509 178.514 264.754 178.323 267.73 178.843C270.535 179.333 274.057 180.777 276.391 181.835C276.744 180.207 276.982 178.902 276.962 178.052C276.96 177.961 276.956 177.871 276.951 177.782C274.61 176.763 271.174 175.389 268.45 174.806C266.069 174.296 262.845 174.092 260.516 174.012C259.866 175.012 259.248 176.209 258.64 177.618C258.498 177.948 258.363 178.3 258.235 178.674Z" fill="#324B9A"/>
<path fill-rule="evenodd" clip-rule="evenodd" d="M256.86 186.177C258.69 186.023 263.821 185.676 267.258 186.276C269.676 186.698 272.625 187.828 274.888 188.81C275.152 187.425 275.438 186.105 275.711 184.884C273.427 183.917 270.417 182.761 267.979 182.239C264.462 181.485 259.108 181.401 257.511 181.394C257.215 182.828 256.995 184.438 256.86 186.177Z" fill="#324B9A"/>
<path d="M320.431 239.58C312.211 235.749 309.925 236.313 309.108 232.999C308.29 229.685 311.173 226.63 316.562 228.816C321.951 231.001 324.509 231.542 329.573 237.324C334.637 243.106 338.233 252.767 336.492 255.54C334.752 258.313 331.324 259.159 329.363 256.127C327.403 253.095 328.65 243.412 320.431 239.58Z" fill="#324B9A"/>
<path fill-rule="evenodd" clip-rule="evenodd" d="M328.639 254.288C328.455 253.597 328.298 252.808 328.128 251.958C328.015 251.392 327.897 250.799 327.762 250.19C328.95 250.198 330.367 250.113 331.431 249.757C332.835 249.288 334.408 248.086 335.446 247.195C336.112 248.898 336.582 250.523 336.8 251.917C335.567 252.818 333.958 253.821 332.521 254.176C331.375 254.459 329.94 254.426 328.639 254.288Z" fill="#E5231E"/>
<path d="M334.14 229.407C332.289 220.715 333.398 218.688 330.292 217.121C327.185 215.554 323.45 217.55 324.338 223.17C325.225 228.79 325.152 231.34 329.702 237.514C334.252 243.688 343.018 249.403 346.199 248.42C349.38 247.438 351.044 244.398 348.491 241.818C345.939 239.237 335.99 238.099 334.14 229.407Z" fill="#324B9A"/>
<path fill-rule="evenodd" clip-rule="evenodd" d="M324.457 223.946C325.563 223.327 327.059 222.604 328.314 222.4C329.761 222.164 331.689 222.488 333.021 222.791C332.563 219.436 332.38 218.174 330.292 217.121C327.185 215.554 323.45 217.55 324.337 223.17C324.379 223.435 324.419 223.694 324.457 223.946Z" fill="#E5231E"/>
<defs>
<linearGradient id="paint0_linear_3143_572404" x1="294.821" y1="20.1758" x2="294.821" y2="403.095" gradientUnits="userSpaceOnUse">
<stop stop-color="#F9F1F1"/>
<stop offset="1" stop-color="#FEF3E6"/>
</linearGradient>
</defs>
</svg>
