<svg width="593" height="427" viewBox="0 0 593 427" fill="none" xmlns="http://www.w3.org/2000/svg">
<path d="M143.799 74.8C174.199 48.7 204.199 38.9 223.699 32.7C316.699 3.20002 396.799 33.8 420.899 43.4C439.599 50.8 452.599 56.1 466.299 68.8C498.199 98.2 503.299 138.9 508.599 180.8C512.299 210.5 508.999 238.8 502.399 295.4C499.899 317.1 496.999 334.4 484.599 351.3C473.799 366 459.9 374.6 445.199 381.4C385.499 408.9 315.599 404.1 279.499 399.7C218.299 392.3 187.699 388.6 161.299 371.2C91.1995 324.7 59.9995 219.2 92.1995 143.1C107.699 106.3 135.799 81.7 143.799 74.8Z" fill="#F9F1F1"/>
<path d="M143.799 74.8C174.199 48.7 204.199 38.9 223.699 32.7C316.699 3.20002 396.799 33.8 420.899 43.4C439.599 50.8 452.599 56.1 466.299 68.8C498.199 98.2 503.299 138.9 508.599 180.8C512.299 210.5 508.999 238.8 502.399 295.4C499.899 317.1 496.999 334.4 484.599 351.3C473.799 366 459.9 374.6 445.199 381.4C385.499 408.9 315.599 404.1 279.499 399.7C218.299 392.3 187.699 388.6 161.299 371.2C91.1995 324.7 59.9995 219.2 92.1995 143.1C107.699 106.3 135.799 81.7 143.799 74.8Z" fill="url(#paint0_linear_3137_573083)"/>
<path d="M143.799 74.8C174.199 48.7 204.199 38.9 223.699 32.7C316.699 3.20002 396.799 33.8 420.899 43.4C439.599 50.8 452.599 56.1 466.299 68.8C498.199 98.2 503.299 138.9 508.599 180.8C512.299 210.5 508.999 238.8 502.399 295.4C499.899 317.1 496.999 334.4 484.599 351.3C473.799 366 459.9 374.6 445.199 381.4C385.499 408.9 315.599 404.1 279.499 399.7C218.299 392.3 187.699 388.6 161.299 371.2C91.1995 324.7 59.9995 219.2 92.1995 143.1C107.699 106.3 135.799 81.7 143.799 74.8Z" stroke="#7B4E4C" stroke-width="1.4936" stroke-miterlimit="10"/>
<path d="M157.799 237.255L183.609 229.632L180.358 216.293L154.547 223.916L157.799 237.255Z" fill="#CE387A"/>
<path d="M138.494 217.564L144.922 243.934L157.978 240.078L151.55 213.708L138.494 217.564Z" fill="#CE387A"/>
<path d="M453.297 210.909L426.668 207.011L424.029 220.484L450.658 224.382L453.297 210.909Z" fill="#CE387A"/>
<path d="M462.572 236.879L467.789 210.243L454.319 208.271L449.102 234.907L462.572 236.879Z" fill="#CE387A"/>
<path d="M252.403 284.819C273.127 296.613 327.213 303.016 371.525 259.209L372.536 260.219L371.525 259.209C388.374 242.697 398.484 204.112 366.639 169.572C361.248 163.675 346.252 146.658 321.484 139.244C289.808 129.809 234.88 133.684 214.325 175.975C196.633 212.368 211.629 261.399 252.403 284.819Z" stroke="#935B9B" stroke-width="2.5554" stroke-dasharray="6.11 2.11"/>
<path d="M233.488 185.361C225.045 184.516 221.294 191.223 222.967 196.39C224.64 201.556 239.511 207.248 245.491 217.413C251.47 227.578 246.959 243.389 247.519 247.549C248.08 251.708 251.683 254.587 256.143 254.724C261.214 254.879 263.832 252.515 265.815 246.089C267.799 239.664 266.401 225.445 261.143 213.876C254.76 199.832 241.931 186.207 233.488 185.361Z" fill="#E5231E"/>
<path fill-rule="evenodd" clip-rule="evenodd" d="M266.378 233.465C263.988 234.169 259.877 235.232 256.815 235.24C254.265 235.246 251.073 234.524 248.579 233.824C248.462 236.738 248.149 239.493 247.885 241.815C247.709 243.37 247.554 244.731 247.495 245.817C249.917 246.5 253.532 247.404 256.313 247.606C259.179 247.814 263.111 247.419 265.479 247.121C265.593 246.79 265.705 246.446 265.815 246.089C266.717 243.166 266.92 238.631 266.378 233.465Z" fill="#324B9A"/>
<path d="M284.08 241.44C292.368 243.153 296.826 236.859 295.731 231.541C294.636 226.222 280.499 219.02 275.676 208.278C270.854 197.537 277.065 182.254 276.964 178.053C276.863 173.852 273.602 170.613 269.189 170.017C264.173 169.339 261.315 171.424 258.642 177.619C255.969 183.814 255.799 198.121 259.751 210.186C264.549 224.833 275.791 239.727 284.08 241.44Z" fill="#E5231E"/>
<path fill-rule="evenodd" clip-rule="evenodd" d="M258.235 178.674C260.509 178.514 264.754 178.323 267.73 178.843C270.535 179.333 274.057 180.777 276.391 181.835C276.744 180.207 276.982 178.902 276.962 178.052C276.96 177.961 276.956 177.871 276.951 177.782C274.61 176.763 271.174 175.389 268.45 174.806C266.069 174.296 262.845 174.092 260.516 174.012C259.866 175.012 259.248 176.209 258.64 177.618C258.498 177.948 258.363 178.3 258.235 178.674Z" fill="#324B9A"/>
<path fill-rule="evenodd" clip-rule="evenodd" d="M256.86 186.177C258.69 186.023 263.821 185.676 267.258 186.276C269.676 186.698 272.625 187.828 274.888 188.81C275.152 187.425 275.438 186.105 275.711 184.884C273.427 183.917 270.417 182.761 267.979 182.239C264.462 181.485 259.108 181.401 257.511 181.394C257.215 182.828 256.995 184.438 256.86 186.177Z" fill="#324B9A"/>
<path d="M322.233 224.52C317.502 231.422 309.879 229.945 306.918 225.371C303.958 220.796 309.012 205.944 304.903 194.919C300.794 183.894 285.586 177.15 282.7 174.06C279.815 170.969 279.871 166.409 282.611 162.961C285.726 159.042 289.241 158.586 295.517 161.213C301.793 163.841 311.988 174.014 317.651 185.396C324.528 199.214 326.963 217.617 322.233 224.52Z" fill="#324B9A"/>
<path fill-rule="evenodd" clip-rule="evenodd" d="M296.548 161.695C294.806 163.135 291.632 165.903 289.867 168.312C288.203 170.584 286.697 174.031 285.771 176.39C284.372 175.46 283.283 174.685 282.699 174.059C282.637 173.992 282.576 173.925 282.516 173.857C283.475 171.523 284.969 168.184 286.508 165.901C287.855 163.905 290.02 161.554 291.632 159.903C292.802 160.177 294.087 160.615 295.515 161.213C295.849 161.352 296.193 161.513 296.548 161.695Z" fill="#E5231E"/>
<path fill-rule="evenodd" clip-rule="evenodd" d="M302.817 166.149C301.397 167.291 297.479 170.551 295.44 173.334C294.006 175.292 292.689 178.123 291.76 180.377C290.595 179.561 289.462 178.808 288.406 178.116C289.361 175.858 290.703 172.967 292.081 170.923C294.069 167.975 297.843 164.254 298.983 163.155C300.205 163.984 301.496 164.992 302.817 166.149Z" fill="#E5231E"/>
<path d="M318.984 149.573C324.435 143.189 331.844 145.447 334.283 150.308C336.722 155.169 330.08 169.436 332.954 180.838C335.828 192.24 350.192 200.526 352.719 203.901C355.246 207.277 354.692 211.812 351.594 214.962C348.072 218.543 344.532 218.633 338.588 215.369C332.643 212.104 323.633 200.921 319.254 189.003C313.937 174.534 313.532 155.957 318.984 149.573Z" fill="#324B9A"/>
<path fill-rule="evenodd" clip-rule="evenodd" d="M329.295 206.673C331.502 205.545 335.195 203.497 337.394 201.407C339.225 199.668 341.002 196.965 342.295 194.755C344.431 196.771 346.594 198.538 348.418 200.027C349.64 201.025 350.709 201.899 351.516 202.639C350.262 204.788 348.31 207.911 346.46 209.959C344.554 212.069 341.46 214.474 339.555 215.88C339.239 215.72 338.916 215.549 338.587 215.368C335.882 213.883 332.544 210.759 329.295 206.673Z" fill="#E5231E"/>
<path d="M295.431 265.573C287.211 261.742 284.925 262.306 284.108 258.992C283.29 255.678 286.173 252.623 291.562 254.809C296.951 256.994 299.509 257.535 304.573 263.317C309.637 269.099 313.233 278.76 311.492 281.533C309.752 284.306 306.324 285.152 304.363 282.12C302.403 279.088 303.65 269.405 295.431 265.573Z" fill="#324B9A"/>
<path fill-rule="evenodd" clip-rule="evenodd" d="M303.639 280.281C303.455 279.59 303.298 278.801 303.128 277.951C303.015 277.385 302.897 276.792 302.762 276.183C303.95 276.191 305.367 276.106 306.431 275.75C307.835 275.281 309.408 274.079 310.446 273.188C311.112 274.891 311.582 276.516 311.8 277.91C310.567 278.81 308.958 279.814 307.521 280.169C306.375 280.452 304.94 280.419 303.639 280.281Z" fill="#E5231E"/>
<path d="M309.14 255.4C307.289 246.708 308.398 244.681 305.292 243.114C302.185 241.547 298.45 243.542 299.338 249.163C300.225 254.783 300.152 257.332 304.702 263.507C309.252 269.681 318.018 275.395 321.199 274.413C324.38 273.431 326.044 270.391 323.491 267.811C320.939 265.23 310.99 264.092 309.14 255.4Z" fill="#324B9A"/>
<path fill-rule="evenodd" clip-rule="evenodd" d="M299.457 249.939C300.563 249.32 302.059 248.597 303.314 248.392C304.761 248.157 306.689 248.481 308.021 248.784C307.563 245.429 307.38 244.167 305.292 243.114C302.185 241.547 298.45 243.543 299.337 249.163C299.379 249.428 299.419 249.687 299.457 249.939Z" fill="#E5231E"/>
<path d="M329.446 248.079C323.506 241.384 321.191 241.029 321.794 237.651C322.397 234.272 326.271 232.552 330.299 236.64C334.326 240.727 336.44 242.208 338.706 249.497C340.973 256.786 340.321 267.1 337.604 268.998C334.887 270.896 331.414 270.364 330.86 266.808C330.305 263.251 335.386 254.774 329.446 248.079Z" fill="#E5231E"/>
<path fill-rule="evenodd" clip-rule="evenodd" d="M330.855 237.202C329.685 237.694 328.196 238.429 327.272 239.289C326.208 240.28 325.307 241.985 324.749 243.212C322.301 240.828 321.387 239.923 321.792 237.651C322.395 234.273 326.27 232.553 330.297 236.64C330.487 236.833 330.673 237.02 330.855 237.202Z" fill="#324B9A"/>
<path d="M345.978 243.485C347.829 234.736 349.666 233.287 347.469 230.646C345.272 228.006 341.052 228.42 339.574 233.958C338.096 239.497 336.991 241.827 338.629 249.282C340.267 256.736 345.939 265.383 349.241 265.694C352.543 266.005 355.299 263.831 354.021 260.466C352.742 257.101 344.128 252.233 345.978 243.485Z" fill="#E5231E"/>
<path fill-rule="evenodd" clip-rule="evenodd" d="M352.968 258.789C352.517 258.228 351.971 257.628 351.384 256.983C350.992 256.552 350.582 256.102 350.169 255.629C349.458 256.564 348.534 257.622 347.604 258.24C346.375 259.056 344.449 259.562 343.099 259.837C344.08 261.387 345.115 262.735 346.115 263.748C347.591 263.325 349.378 262.671 350.533 261.76C351.454 261.034 352.294 259.891 352.968 258.789Z" fill="#324B9A"/>
<defs>
<linearGradient id="paint0_linear_3137_573083" x1="294.821" y1="20.1758" x2="294.821" y2="403.095" gradientUnits="userSpaceOnUse">
<stop stop-color="#F9F1F1"/>
<stop offset="1" stop-color="#FEF3E6"/>
</linearGradient>
</defs>
</svg>
