<svg width="593" height="427" viewBox="0 0 593 427" fill="none" xmlns="http://www.w3.org/2000/svg">
<path d="M143.799 74.8C174.199 48.7 204.199 38.9 223.699 32.7C316.699 3.20002 396.799 33.8 420.899 43.4C439.599 50.8 452.599 56.1 466.299 68.8C498.199 98.2 503.299 138.9 508.599 180.8C512.299 210.5 508.999 238.8 502.399 295.4C499.899 317.1 496.999 334.4 484.599 351.3C473.799 366 459.9 374.6 445.199 381.4C385.499 408.9 315.599 404.1 279.499 399.7C218.299 392.3 187.699 388.6 161.299 371.2C91.1995 324.7 59.9995 219.2 92.1995 143.1C107.699 106.3 135.799 81.7 143.799 74.8Z" fill="#F9F1F1"/>
<path d="M143.799 74.8C174.199 48.7 204.199 38.9 223.699 32.7C316.699 3.20002 396.799 33.8 420.899 43.4C439.599 50.8 452.599 56.1 466.299 68.8C498.199 98.2 503.299 138.9 508.599 180.8C512.299 210.5 508.999 238.8 502.399 295.4C499.899 317.1 496.999 334.4 484.599 351.3C473.799 366 459.9 374.6 445.199 381.4C385.499 408.9 315.599 404.1 279.499 399.7C218.299 392.3 187.699 388.6 161.299 371.2C91.1995 324.7 59.9995 219.2 92.1995 143.1C107.699 106.3 135.799 81.7 143.799 74.8Z" fill="url(#paint0_linear_3137_572919)"/>
<path d="M143.799 74.8C174.199 48.7 204.199 38.9 223.699 32.7C316.699 3.20002 396.799 33.8 420.899 43.4C439.599 50.8 452.599 56.1 466.299 68.8C498.199 98.2 503.299 138.9 508.599 180.8C512.299 210.5 508.999 238.8 502.399 295.4C499.899 317.1 496.999 334.4 484.599 351.3C473.799 366 459.9 374.6 445.199 381.4C385.499 408.9 315.599 404.1 279.499 399.7C218.299 392.3 187.699 388.6 161.299 371.2C91.1995 324.7 59.9995 219.2 92.1995 143.1C107.699 106.3 135.799 81.7 143.799 74.8Z" stroke="#7B4E4C" stroke-width="1.4936" stroke-miterlimit="10"/>
<path d="M250.403 284.819C271.127 296.613 325.213 303.016 369.525 259.209L370.536 260.219L369.525 259.209C386.374 242.697 396.484 204.112 364.639 169.572C359.248 163.675 344.252 146.658 319.484 139.244C287.808 129.809 232.88 133.684 212.325 175.975C194.633 212.368 209.629 261.399 250.403 284.819Z" stroke="#935B9B" stroke-width="2.5554"/>
<path d="M180.283 295.199L203.01 280.785L196.222 268.851L173.495 283.265L180.283 295.199Z" fill="#CE387A"/>
<path d="M156.313 281.564L169.732 305.156L181.229 297.865L167.81 274.272L156.313 281.564Z" fill="#CE387A"/>
<path d="M191.195 303.484L171 321.274L179.57 332L199.764 314.21L191.195 303.484Z" fill="#CE387A"/>
<path d="M217 313.205L200.059 292L189.843 300.999L206.785 322.204L217 313.205Z" fill="#CE387A"/>
<path d="M266.544 265.215C266.869 262.619 266.706 258.888 264.76 255.319C260.217 247.046 249.186 247.208 248.861 242.665C248.375 237.636 262.002 233.905 261.353 230.498C260.38 226.118 236.37 231.31 230.368 220.927C228.907 218.494 228.583 215.249 229.556 212.491C230.854 208.76 234.585 206.975 241.399 204.542C257.135 198.864 264.273 199.513 265.246 196.431C265.895 194.484 263.949 190.753 250.808 182.804" stroke="#E5231E" stroke-width="2" stroke-miterlimit="10"/>
<path d="M273.52 264.404C273.682 261.808 273.358 257.753 271.249 254.021C266.868 246.234 258.108 245.91 257.946 241.692C257.621 236.501 270.924 233.905 270.437 229.525C270.113 226.443 262.975 224.658 257.459 223.198C246.428 220.44 239.128 221.576 237.668 217.682C237.019 216.06 237.668 214.6 237.83 213.951C239.614 209.247 246.59 208.922 255.35 206.164C262.651 203.893 273.52 200.649 274.331 195.62C275.142 190.266 264.435 184.426 259.893 181.992" stroke="#E5231E" stroke-width="2" stroke-miterlimit="10"/>
<path d="M299.314 275.111C300.288 272.678 302.072 269.433 305.479 267.162C313.428 261.971 323 267.162 325.433 263.431C328.191 259.213 317.808 249.479 320.08 246.883C323 243.314 341.818 259.213 351.876 252.886C354.31 251.426 356.094 248.668 356.419 245.91C356.905 242.017 354.472 238.61 349.767 233.418C338.411 221.089 331.922 218.331 332.409 215.249C332.733 213.302 336.302 210.707 351.552 209.896" stroke="#324A9A" stroke-width="2" stroke-miterlimit="10"/>
<path d="M304.02 279.004C304.831 276.409 306.615 272.84 310.184 271.055C311.32 270.569 312.618 270.082 318.782 269.92C328.191 269.757 330.3 270.731 331.76 268.946C333.869 266.675 332.572 261.808 331.598 259.375C330.138 255.968 327.38 254.021 327.867 253.372C328.191 252.886 329.814 253.697 331.76 254.508C337.438 257.104 338.898 258.239 340.521 258.888C345.388 260.997 352.201 260.186 356.743 256.455C357.717 255.644 360.312 253.372 361.286 249.479C363.233 242.665 358.852 236.176 356.094 232.445C348.47 221.576 339.061 218.98 339.872 216.222C340.196 214.762 343.441 213.627 355.77 214.6" stroke="#324A9A" stroke-width="2" stroke-miterlimit="10"/>
<path d="M266.707 161.227C274.007 166.419 277.576 166.419 279.361 165.445C283.254 163.336 281.307 156.685 286.823 151.98C287.634 151.169 290.879 148.574 294.61 149.06C300.45 149.709 301.099 157.334 308.237 161.227C311.157 162.85 315.213 163.823 321.053 162.85" stroke="#E5231E" stroke-width="2" stroke-miterlimit="10"/>
<path d="M268.006 167.879C275.793 173.719 279.362 172.746 280.66 172.097C283.904 170.474 287.149 164.472 288.447 160.741C288.771 160.092 289.42 158.145 291.204 156.685C291.691 156.361 293.313 155.063 294.773 155.387C296.882 155.712 297.207 158.794 299.316 161.714C301.749 165.121 305.318 166.419 309.536 167.879C314.727 169.663 319.432 169.663 322.352 169.501" stroke="#E5231E" stroke-width="2" stroke-miterlimit="10"/>
<path d="M287.148 216.709C289.582 208.111 292.502 206.002 294.611 205.515C298.991 204.866 301.424 211.193 308.725 211.518C309.86 211.518 314.078 211.68 316.836 209.084C321.054 204.866 316.836 198.539 320.081 191.239C321.378 188.157 323.974 184.912 329.165 182.154" stroke="#324A9A" stroke-width="2" stroke-miterlimit="10"/>
<path d="M291.691 221.414C291.691 217.358 292.34 213.14 294.774 212.167C297.694 210.869 300.452 215.898 306.779 217.196C312.132 218.169 319.27 216.547 322.515 212.005C326.408 206.489 321.703 200.811 325.759 193.835C327.868 190.104 331.437 187.995 333.708 186.859" stroke="#324A9A" stroke-width="2" stroke-miterlimit="10"/>
<defs>
<linearGradient id="paint0_linear_3137_572919" x1="294.821" y1="20.1758" x2="294.821" y2="403.095" gradientUnits="userSpaceOnUse">
<stop stop-color="#F9F1F1"/>
<stop offset="1" stop-color="#FEF3E6"/>
</linearGradient>
</defs>
</svg>
