<svg width="593" height="427" viewBox="0 0 593 427" fill="none" xmlns="http://www.w3.org/2000/svg">
<path d="M550 196.5C547.5 180.2 539.6 128.5 497.7 99.4999C457.8 71.7999 392.469 69.1013 360.5 99.4999C332 126.6 325.5 211.5 301.5 208.5C286 206.5 293.5 127 256 93.6999C213 55.516 158.1 66.2999 116.3 86.0999C110.7 88.7999 87.1 100.5 68.3 126.6C31.3 177.7 30.4 259 73.9 306.1C101.8 336.3 139.4 343.1 155.8 346.1C164.8 347.7 206.7 355.4 251 338.4C297 313 285 243.7 301.5 241.5C329.4 237.7 314.5 313 351 336C390.3 352.8 462.8 365.4 505.1 338.7C550.5 309.9 556.5 238.9 550 196.5Z" fill="#F8EFEF" stroke="#7B4E4B" stroke-width="1.4936" stroke-miterlimit="10"/>
<path d="M76.7572 280.287L90.4404 295.387L98.4705 288.785L84.7873 273.684L76.7572 280.287Z" fill="#CE387A"/>
<path d="M83.8436 260.646L67.9688 273.698L74.8902 281.336L90.7651 268.284L83.8436 260.646Z" fill="#CE387A"/>
<path d="M522.419 293.469L525.514 273.328L515.326 271.257L512.231 291.398L522.419 293.469Z" fill="#CE387A"/>
<path d="M502.705 300.351L522.845 304.445L524.41 294.257L504.271 290.163L502.705 300.351Z" fill="#CE387A"/>
<path d="M141.403 283.819C162.127 295.613 216.213 302.016 260.525 258.209L261.536 259.219L260.525 258.209C277.374 241.697 287.484 203.112 255.639 168.572C250.248 162.675 235.252 145.658 210.484 138.244C178.808 128.809 123.88 132.684 103.325 174.975C85.6332 211.368 100.629 260.399 141.403 283.819Z" stroke="#935B9B" stroke-width="2.5554"/>
<path d="M465.266 148.2C443.921 137.57 389.564 134.171 347.744 180.364L346.678 179.41L347.744 180.364C331.835 197.783 323.876 236.868 357.584 269.593C363.293 275.182 379.208 291.344 404.348 297.375C436.498 305.043 491.127 298.133 509.31 254.769C524.96 217.452 507.274 169.327 465.266 148.2Z" stroke="#935B9B" stroke-width="2.5554"/>
<path d="M160.544 260.215C160.869 257.619 160.706 253.888 158.76 250.319C154.217 242.045 143.186 242.208 142.861 237.665C142.375 232.636 156.002 228.905 155.353 225.498C154.38 221.118 130.37 226.309 124.368 215.927C122.907 213.493 122.583 210.249 123.556 207.491C124.854 203.76 128.585 201.975 135.399 199.542C151.135 193.864 158.273 194.513 159.246 191.43C159.895 189.484 157.949 185.752 144.808 177.803" stroke="#E5231E" stroke-width="2" stroke-miterlimit="10"/>
<path fill-rule="evenodd" clip-rule="evenodd" d="M150.45 182.628C153.33 184.635 155.242 186.252 156.471 187.554C157.453 188.594 157.945 189.372 158.174 189.944L159.592 188.324C159.197 187.655 158.645 186.943 157.926 186.181C156.607 184.784 154.635 183.119 151.775 181.114L150.45 182.628Z" fill="#324A9A"/>
<path fill-rule="evenodd" clip-rule="evenodd" d="M149.899 196.25L149.288 194.34C146.011 195.14 141.837 196.24 136.688 198.025L137.297 199.931C142.457 198.14 146.619 197.049 149.899 196.25Z" fill="#324A9A"/>
<path d="M400.698 166.856C402.064 169.069 404.67 172.194 408.545 174.024C416.617 177.855 423.958 173.063 426.525 176.414C429.786 180.466 420.421 190.264 423.346 193.56C425.39 195.89 432.249 193.227 437.596 191.236C448.197 187.121 453.503 181.98 456.942 184.317C458.409 185.267 458.721 186.834 458.963 187.458C460.221 192.329 454.712 196.621 449.15 203.929C444.499 209.997 437.496 218.92 439.736 223.495C442.164 228.335 454.278 226.925 459.392 226.29" stroke="#E5231E" stroke-width="2" stroke-miterlimit="10"/>
<path fill-rule="evenodd" clip-rule="evenodd" d="M410.643 173.792C413.809 174.846 416.827 174.657 419.504 174.403C419.695 174.385 419.885 174.367 420.075 174.348L420.079 174.348L420.079 174.348C421.413 174.217 422.717 174.09 423.837 174.168C425.15 174.26 426.423 174.644 427.311 175.796C428.416 177.178 428.36 178.943 427.964 180.575C427.566 182.215 426.757 183.997 425.985 185.654C425.826 185.572 425.646 185.478 425.443 185.373C424.862 185.071 424.472 184.868 424.209 184.732C424.979 183.074 425.682 181.498 426.02 180.103C426.371 178.659 426.263 177.684 425.745 177.041L425.738 177.032L425.731 177.022C425.335 176.506 424.731 176.235 423.698 176.163C422.758 176.098 421.641 176.206 420.277 176.338L420.277 176.338L420.276 176.338C420.087 176.357 419.893 176.375 419.693 176.394C416.647 176.683 412.771 176.944 408.677 175.181L410.643 173.792Z" fill="#324A9A"/>
<path d="M376.84 218.302C385.574 220.289 387.952 222.951 388.414 224.931C389.435 229.239 383.177 232.218 383.342 239.466C383.277 240.611 383.503 244.76 386.351 247.219C390.725 251.142 396.844 246.547 404.503 249.278C407.658 250.375 411.086 252.752 414.25 257.756" stroke="#324A9A" stroke-width="2" stroke-miterlimit="10"/>
<path fill-rule="evenodd" clip-rule="evenodd" d="M376.75 219.308C385.34 221.283 387.124 223.808 387.44 225.158L387.44 225.161C387.63 225.961 387.497 226.726 387.113 227.596C386.761 228.393 386.237 229.199 385.617 230.153L385.617 230.153C385.533 230.284 385.446 230.416 385.358 230.552C384.962 231.165 384.548 231.82 384.157 232.532C384.397 232.703 384.743 232.951 385.245 233.31C385.455 233.46 385.637 233.591 385.797 233.705C386.18 232.985 386.607 232.304 387.038 231.639C387.122 231.509 387.206 231.379 387.292 231.248L387.292 231.248C387.899 230.315 388.521 229.36 388.943 228.404C389.44 227.277 389.707 226.055 389.387 224.701C388.778 222.1 385.823 219.32 377.06 217.327L376.893 218.063C376.828 218.632 376.782 219.03 376.75 219.308Z" fill="#E5231E"/>
<path d="M193.087 227.755C196.604 218.679 200.147 217.617 201.592 217.481C205.204 217.14 211.133 220.517 214.208 222.996C214.827 223.375 216.408 224.684 218.694 224.978C219.279 224.996 221.342 225.239 222.41 224.191C224.027 222.8 222.672 220.013 222.916 216.419C223.178 212.241 225.52 209.251 228.327 205.78C231.787 201.519 235.779 199.03 238.343 197.622" stroke="#324A9A" stroke-width="2" stroke-miterlimit="10"/>
<path fill-rule="evenodd" clip-rule="evenodd" d="M231.547 201.06C230.208 202.205 228.844 203.557 227.55 205.149L227.549 205.151C225.777 207.343 224.092 209.448 223.029 211.863L224.648 213.173C225.541 210.88 227.152 208.823 229.103 206.41C230.404 204.809 231.783 203.465 233.13 202.34L231.547 201.06Z" fill="#E5231E"/>
</svg>
