<svg width="150" height="140" viewBox="0 0 150 140" fill="none" xmlns="http://www.w3.org/2000/svg">
<path d="M80.6027 58.6773C80.9348 56.495 81.6929 29.2062 81.6929 29.2062C81.6929 29.2062 63.5919 27.8762 51.8792 35.8798C41.6001 42.9032 34.6441 54.2951 33.5376 66.8765C32.8384 74.8275 33.8221 82.1354 36.9085 89.6339C39.471 95.8588 43.6476 101.098 49.6938 104.349C53.8942 106.605 60.1045 108.62 64.8388 109.127C104.593 113.394 115.763 90.3484 116.488 72.6514C116.504 72.2265 116.587 68.8809 116.535 68.4685C115.396 59.3906 103.398 54.2826 80.6027 58.6773Z" fill="#6B609D"/>
<path d="M74.0677 109.875C74.0677 109.875 74.0689 109.875 74.0677 109.875C71.1304 109.875 68.0165 109.701 64.8135 109.356C60.1884 108.861 53.9266 106.886 49.5834 104.552C43.8004 101.443 39.4646 96.4529 36.694 89.7215C33.659 82.3472 32.5814 75.0819 33.3057 66.8551C34.3946 54.4855 41.2879 42.8329 51.7487 35.6854C60.7259 29.5508 73.5827 28.8889 78.6941 28.8889C80.5524 28.8889 81.699 28.9716 81.7103 28.9729L81.9309 28.9892L81.9258 29.2111C81.8958 30.2853 81.2153 54.6986 80.8695 58.3889C86.2716 57.3623 91.2401 56.8433 95.6385 56.8433C108.139 56.8433 115.841 61.0702 116.766 68.437C116.822 68.887 116.732 72.3404 116.721 72.6601C116.327 82.2958 112.985 91.0791 107.311 97.3943C99.8689 105.675 88.6825 109.875 74.0677 109.875ZM78.6941 29.3552C73.6266 29.3552 60.8813 30.0096 52.0106 36.0715C41.6651 43.1413 34.8445 54.6648 33.7681 66.8965C33.0513 75.0468 34.1177 82.2431 37.1238 89.5448C39.8531 96.1746 44.1186 101.086 49.8039 104.143C54.0983 106.451 60.2924 108.405 64.8624 108.895C68.049 109.237 71.1467 109.412 74.0677 109.412C88.546 109.412 99.6146 105.264 106.965 97.0834C112.567 90.8497 115.866 82.1704 116.256 72.6425C116.276 72.1035 116.351 68.8758 116.305 68.4972C115.412 61.3873 107.879 57.3097 95.6385 57.3097C91.185 57.3097 86.1413 57.8474 80.6464 58.9066L80.3244 58.9693L80.3732 58.6434C80.684 56.6039 81.3807 32.049 81.4547 29.4242C81.0399 29.4003 80.0625 29.3552 78.6941 29.3552Z" fill="#36277D"/>
<path opacity="0.6" d="M116.535 68.4672C115.396 59.3918 103.398 54.2826 80.6027 58.6773C80.9348 56.495 81.6929 29.2062 81.6929 29.2062C81.6929 29.2062 63.5919 27.8762 51.8792 35.8798C41.6001 42.9032 34.6441 54.2951 33.5376 66.8765C32.8384 74.8275 33.8221 82.1354 36.9085 89.6339C39.471 95.8588 43.6476 101.098 49.6938 104.349C53.8942 106.605 60.1045 108.62 64.8388 109.127C104.593 113.394 115.763 90.3484 116.488 72.6514C116.505 72.2252 116.587 68.8796 116.535 68.4672ZM90.7265 101.584C89.3268 103.82 87.5574 105.35 84.9848 106.096C82.7418 106.744 79.2281 107.163 77.5389 105.07C77.0615 104.483 76.653 103.572 75.9475 103.243C74.7883 102.7 73.6443 103.311 72.831 104.16C72.227 104.789 71.7007 105.492 71.3975 106.319C71.2534 106.717 71.1255 107.1 70.8812 107.448C70.3486 108.201 69.3148 108.325 68.484 108.186C67.078 107.953 65.7222 107.615 64.3037 107.435C61.4278 107.069 58.3226 106.662 55.9004 104.94C54.8829 104.217 54.2789 103.208 53.7539 102.1C53.2451 101.02 52.5221 98.9387 51.1311 98.7331C49.3467 98.4686 48.9645 100.788 47.0811 100.289C43.9559 99.4589 40.8432 94.7445 39.5099 91.9717C37.6152 88.0282 36.2518 83.8039 35.2694 79.547C34.7982 77.5075 34.3935 75.4254 34.2995 73.3321C33.8208 62.7299 36.8659 50.4945 45.1413 43.2993C48.8104 39.5363 53.7213 36.8526 58.8665 36.1092C59.7286 35.9851 63.7009 35.2581 63.4654 37.176C63.2335 39.0637 61.0607 40.7184 59.7925 41.943C54.7463 46.8217 53.7651 53.7686 51.477 60.0875C51.1687 60.9387 50.7702 61.8989 50.7702 62.8177C50.7677 63.818 51.2238 64.1326 51.8617 64.7355C52.606 65.4413 52.7288 66.2335 52.4043 67.1937C52.1562 67.9257 51.6273 68.5512 51.2264 69.1993C50.6487 70.1369 50.4557 70.983 50.3229 72.0698C50.0948 73.9914 49.9858 75.9231 49.9607 77.856C49.9332 79.9493 49.9695 82.0402 49.9845 84.1323C49.9946 85.5488 49.9144 87.0229 50.076 88.4331C50.2991 90.3785 51.7652 90.8548 53.4594 91.3688C55.3829 91.9529 57.3314 92.4606 59.3038 92.8504C63.5405 93.6903 67.8449 94.1315 72.1619 94.2456C74.3623 94.3045 76.589 94.3985 78.7795 94.1566C80.8859 93.9234 82.9585 93.5047 85.0475 93.1676C87.3068 92.8015 90.6049 92.3503 91.8129 94.9112C92.843 97.0961 91.9345 99.657 90.7265 101.584Z" fill="#463C79"/>
<path opacity="0.6" d="M61.9953 64.9742C61.2998 66.2151 60.6256 67.4686 59.9916 68.7409C58.1658 72.4024 56.6358 76.0627 55.6584 80.0451C55.191 81.9504 54.7925 83.8745 54.2787 85.7661C54.0344 86.6673 53.8151 87.531 53.691 88.3972C53.6772 88.8935 53.6697 89.3887 53.6547 89.8826C53.7424 89.9089 53.8313 89.9365 53.9191 89.9628C57.6997 91.0521 61.6156 91.7678 65.5315 92.1464C72.8985 92.8596 80.1877 92.2266 87.5209 91.4607C90.9331 91.1035 94.4204 90.7312 97.7336 89.7886C99.6997 89.2295 102.018 88.3596 104.039 89.1355C105.619 89.7434 106.297 91.8468 106.344 93.3936C106.404 95.4306 105.745 97.4262 104.822 99.2212C104.708 99.4406 104.592 99.6624 104.472 99.8818C112.945 92.3858 116.114 81.8025 116.49 72.6494C116.506 72.2244 116.539 68.8826 116.538 68.4664C116.511 57.126 84.7565 60.8501 61.9953 64.9742Z" fill="#2A2354"/>
<path d="M115.514 70.3878C115.119 70.0268 115.073 69.4451 115.218 68.955C115.369 68.4436 115.763 67.9234 116.221 67.7115C115.999 66.6912 115.672 65.7473 115.242 64.8799C113.574 61.5117 110.621 59.3331 107.256 57.8577C106.152 58.2388 104.775 58.1723 104.018 57.2046C103.873 57.0191 103.754 56.801 103.703 56.5729C101.503 55.9198 99.2612 55.4748 97.1836 55.1226C88.4746 53.6434 79.649 52.7748 70.8435 53.231C69.2182 55.0724 67.3361 56.707 65.9113 58.7214C63.667 61.8928 61.7222 65.2659 59.9904 68.7407C58.1647 72.4021 56.6346 76.0624 55.6572 80.0448C55.1898 81.9501 54.7913 83.8742 54.2776 85.7658C54.037 86.6583 53.8164 87.5144 53.6911 88.3731C53.6823 88.7128 53.6786 89.0512 53.6673 89.3909C55.5444 89.9537 57.4028 90.4163 59.1471 90.7961C60.1496 91.0155 61.1834 91.1972 62.2247 91.3614C62.7523 89.9425 63.9966 88.7729 65.6544 89.2016C67.0717 89.5664 67.6544 90.7259 67.6093 91.9819C70.7182 92.2088 73.8497 92.2351 76.8082 92.0822C80.1089 91.9117 84.58 91.3702 89.3304 90.3636C89.4796 88.4646 92.4594 88.1562 93.8466 89.2781C105.16 86.2208 116.491 80.4471 116.53 70.7124C116.157 70.7212 115.792 70.6422 115.514 70.3878Z" fill="#C56E9E"/>
<path d="M73.0405 92.6456C71.2147 92.6456 69.3764 92.5792 67.577 92.4476C67.3276 92.4288 67.1384 92.2169 67.1471 91.9675C67.1672 91.4009 67.0494 90.0421 65.5394 89.6535C65.3464 89.6034 65.156 89.5795 64.973 89.5795C63.8026 89.5795 63.0119 90.5848 62.6636 91.5262C62.5859 91.7331 62.3741 91.8584 62.1548 91.8233C60.933 91.6303 59.9481 91.4498 59.0521 91.253C57.1111 90.8293 55.2565 90.3542 53.5385 89.839C53.3368 89.7788 53.2014 89.5896 53.2064 89.379C53.2114 89.1985 53.2152 89.0167 53.219 88.8349L53.2302 88.3624C53.2315 88.3436 53.2327 88.326 53.2353 88.3072C53.3668 87.4022 53.6024 86.4959 53.8317 85.6473C54.1513 84.4715 54.4307 83.2619 54.7001 82.0911C54.8655 81.3728 55.0322 80.6533 55.2089 79.9363C56.0898 76.3425 57.4381 72.8252 59.5772 68.5357C61.4643 64.7501 63.4117 61.4521 65.5332 58.455C66.4705 57.1288 67.607 55.958 68.7085 54.8248C69.3075 54.2094 69.9253 53.5726 70.4967 52.9245C70.5794 52.8305 70.6959 52.7754 70.8212 52.7678C72.3876 52.6864 74.0041 52.6462 75.6256 52.6462C82.1843 52.6462 89.2618 53.3068 97.2641 54.6669C98.9107 54.9464 101.382 55.4014 103.838 56.1297C104.001 56.1786 104.124 56.3115 104.16 56.477C104.191 56.6161 104.27 56.7703 104.387 56.922C104.833 57.4923 105.511 57.6126 106.001 57.6126C106.363 57.6126 106.744 57.5462 107.107 57.4208C107.217 57.382 107.338 57.387 107.446 57.4346C111.427 59.1808 114.114 61.5486 115.661 64.6761C116.108 65.5799 116.45 66.5677 116.677 67.6156C116.723 67.8287 116.616 68.0456 116.416 68.1358C116.102 68.2812 115.785 68.6811 115.666 69.0885C115.573 69.3956 115.571 69.808 115.829 70.0449C115.98 70.184 116.197 70.2505 116.493 70.2505C116.617 70.2505 116.756 70.2994 116.844 70.3871C116.931 70.4749 117 70.5939 117 70.7168C116.955 81.8554 102.553 87.4097 93.9735 89.7287C93.8294 89.7663 93.6752 89.7337 93.5599 89.641C93.1376 89.2975 92.4785 89.0932 91.8006 89.0932C90.8558 89.0932 89.8696 89.4981 89.7994 90.4018C89.7831 90.6074 89.634 90.7779 89.4322 90.8205C83.5878 92.059 79.0328 92.435 76.8373 92.5491C75.5918 92.613 74.3161 92.6456 73.0405 92.6456ZM68.0682 91.55C70.9541 91.7443 73.9414 91.7682 76.786 91.6202C80.3836 91.4335 84.7895 90.8368 88.9247 89.9769C89.2242 88.7284 90.5387 88.1643 91.7968 88.1643C92.5988 88.1643 93.3657 88.3837 93.9421 88.7723C102.175 86.5197 115.646 81.2914 116.057 71.143C115.72 71.0803 115.432 70.9424 115.198 70.7306C114.716 70.2893 114.552 69.5585 114.771 68.8227C114.929 68.2875 115.274 67.7974 115.691 67.489C115.483 66.6354 115.192 65.8281 114.825 65.086C113.399 62.2042 110.913 60.0006 107.229 58.3535C106.823 58.475 106.4 58.539 105.997 58.539C105.012 58.539 104.179 58.1667 103.65 57.4898C103.512 57.313 103.407 57.1313 103.333 56.9483C101.003 56.2739 98.6738 55.8464 97.105 55.5807C87.2744 53.9085 78.8511 53.2993 71.0606 53.6841C70.5117 54.2971 69.9328 54.8925 69.3714 55.4704C68.2962 56.5772 67.1847 57.7217 66.2888 58.989C64.1948 61.9473 62.2701 65.2039 60.4042 68.9481C58.2978 73.1736 56.972 76.6296 56.1061 80.1557C55.9319 80.8677 55.7665 81.5822 55.6011 82.2979C55.3292 83.4775 55.0485 84.6959 54.7252 85.888C54.5046 86.7015 54.2791 87.5664 54.155 88.4125L54.1438 88.8525C54.1425 88.9177 54.1412 88.9816 54.14 89.0468C55.7402 89.5169 57.4557 89.9518 59.2451 90.3429C60.0346 90.5159 60.8967 90.6764 61.9355 90.8456C62.6924 89.1985 64.1999 88.3486 65.7687 88.7522C67.1321 89.1032 67.9667 90.1336 68.0682 91.55Z" fill="#601A5F"/>
<path d="M116.489 70.7152C116.128 70.7152 115.781 70.6312 115.514 70.388C115.119 70.027 115.073 69.4454 115.218 68.9552C115.368 68.4438 115.763 67.9236 116.221 67.7118C115.999 66.6914 115.672 65.7475 115.242 64.8801C113.574 61.5119 110.62 59.3333 107.256 57.8579C106.859 57.9946 106.425 58.0761 105.998 58.0761C105.24 58.0761 104.503 57.8254 104.018 57.2049C103.873 57.0193 103.754 56.8012 103.703 56.5731C101.503 55.92 99.2612 55.475 97.1835 55.1228C90.0459 53.9107 82.8255 53.1034 75.6027 53.1034C74.0137 53.1034 72.4248 53.1535 70.8371 53.2363C70.4036 53.7276 69.9562 54.2102 69.4988 54.6828C71.4963 54.5462 73.5338 54.4747 75.6027 54.4747C82.0486 54.4747 89.0321 55.1291 96.9542 56.4741C98.4178 56.7235 100.551 57.1134 102.707 57.7113C102.775 57.8279 102.853 57.9394 102.935 58.0485C103.638 58.9485 104.726 59.4449 105.997 59.4449C106.376 59.4449 106.763 59.3998 107.146 59.3133C110.471 60.8538 112.721 62.8782 114.013 65.4893C114.277 66.0245 114.498 66.5936 114.675 67.1941C114.326 67.5776 114.053 68.054 113.902 68.5654C113.587 69.6371 113.848 70.7227 114.588 71.3983C114.719 71.5199 114.89 71.649 115.104 71.7631C114.173 80.7695 101.898 85.6106 94.0721 87.7954C93.4079 87.4482 92.6135 87.2577 91.7952 87.2577C90.1386 87.2577 88.8141 88.0123 88.2489 89.1868C84.3004 89.9853 80.1477 90.5368 76.7367 90.7148C75.5287 90.7775 74.2869 90.8101 73.0464 90.8101C71.6454 90.8101 70.2344 90.7687 68.841 90.6898C68.4838 89.2884 67.4676 88.2555 65.9952 87.8744C65.6543 87.7867 65.3085 87.7428 64.9714 87.7428C63.5479 87.7428 62.2672 88.5262 61.4477 89.8474C60.7033 89.717 60.0492 89.5904 59.439 89.4601C57.3826 89.0088 55.4942 88.5225 53.7524 87.9897C53.7274 88.1238 53.7123 88.2592 53.6923 88.3933C53.681 88.7268 53.6797 89.0602 53.6685 89.3924C55.5456 89.9552 57.4039 90.4178 59.1483 90.7976C60.1507 91.0169 61.1845 91.1987 62.2259 91.3629C62.6782 90.1445 63.6594 89.1129 64.9726 89.1129C65.1907 89.1129 65.4188 89.1417 65.6543 89.2031C67.0716 89.5679 67.6543 90.7274 67.6092 91.9834C69.4274 92.1163 71.2532 92.1814 73.0476 92.1814C74.322 92.1814 75.5789 92.1489 76.8094 92.0837C80.1101 91.9132 84.5811 91.3717 89.3316 90.3651C89.4243 89.1956 90.5897 88.629 91.7952 88.629C92.5483 88.629 93.3152 88.8471 93.8478 89.2783C105.161 86.221 116.492 80.4474 116.531 70.7126C116.518 70.7152 116.505 70.7152 116.489 70.7152Z" fill="#DAC3A9"/>
<path d="M54.2245 77.9061C54.0641 77.7418 53.89 77.5739 53.6895 77.4573C53.5328 77.3658 53.3837 77.2116 53.192 77.1966C53.0817 77.1878 52.9802 77.2129 52.8875 77.253C52.8712 77.243 52.8562 77.2304 52.8374 77.2204C52.7534 77.1728 52.6281 77.2868 52.5955 77.3545C52.5629 77.4247 52.5529 77.4937 52.5567 77.5626C52.4614 77.7381 52.4364 77.9512 52.5303 78.148C52.692 78.4814 53.0291 78.7259 53.2922 78.9753C53.4852 79.1558 53.7584 79.2135 53.9952 79.152C54.227 79.147 54.4488 79.0041 54.5892 78.776C54.8298 78.3849 54.4601 78.148 54.2245 77.9061Z" fill="#992D6A"/>
<path d="M56.6519 87.365C56.6431 87.3237 56.6318 87.2798 56.6068 87.2384C56.3674 86.8223 55.9176 86.5202 55.5304 86.2657C55.0792 85.9711 54.4502 85.5725 54.1031 86.2394C53.8349 86.7521 54.4991 87.2134 54.875 87.4716C55.2597 87.7637 55.7258 87.9968 55.9063 88.0419C56.1744 88.1059 56.4752 87.9391 56.6043 87.7035C56.6794 87.5844 56.7058 87.4616 56.6519 87.365Z" fill="#992D6A"/>
<path d="M64.4373 80.8446C64.0927 80.6867 63.6579 80.6039 63.3484 80.8584C63.3283 80.876 63.307 80.8998 63.287 80.9261C63.1867 80.99 63.1053 81.1342 63.1203 81.2194C63.1629 81.4726 63.5125 81.6281 63.7155 81.7258C64.0276 81.8788 64.401 81.9364 64.6666 81.6619C64.9937 81.3247 64.8032 81.0101 64.4373 80.8446Z" fill="#992D6A"/>
<path d="M100.527 60.8145C100.35 60.4961 99.9815 59.6538 99.5028 60.0161C99.2033 60.2404 99.1281 60.6002 99.3098 60.9248C99.3549 61.0051 99.4088 61.0866 99.4714 61.1605C99.479 61.1755 99.4865 61.1906 99.4953 61.2069C99.6181 61.4375 99.7897 61.7509 100 61.9114C100.32 62.1533 100.668 61.6531 100.699 61.3811C100.723 61.1781 100.623 60.985 100.527 60.8145Z" fill="#992D6A"/>
<path d="M105.877 64.2628C105.714 63.364 105.058 62.5618 104.57 63.1622C104.108 63.7313 104.559 66.3775 105.442 65.7482C105.89 65.4285 105.981 64.8269 105.877 64.2628Z" fill="#992D6A"/>
<path d="M103.718 68.6904C103.563 68.2629 103.061 68.5362 102.875 68.7794C102.768 68.9173 102.706 69.0852 102.682 69.2557C102.702 69.1028 102.592 69.4525 102.6 69.4237C102.545 69.5766 102.524 69.7433 102.496 69.9025C102.442 70.2222 102.243 70.7499 102.524 71.0157C102.648 71.1322 102.853 71.0858 102.986 70.9981C103.01 70.9994 103.031 71.0019 103.056 70.9994C103.668 70.9279 103.741 69.875 103.781 69.4325C103.803 69.1893 103.805 68.9235 103.718 68.6904Z" fill="#992D6A"/>
<path d="M108.347 67.9182C108.329 67.8944 108.304 67.8768 108.269 67.8756C108.159 67.8681 108.065 67.9558 108.009 68.041C107.877 68.1438 107.762 68.2967 107.803 68.4509C107.747 68.6189 107.73 68.7906 107.831 68.9185C107.973 69.1002 108.292 68.8157 108.352 68.6891C108.445 68.4961 108.497 68.2942 108.49 68.0786C108.488 67.9733 108.423 67.927 108.347 67.9182Z" fill="#992D6A"/>
<path d="M106.697 74.9929C106.338 74.9578 106.011 75.2323 105.786 75.4768C105.435 75.8591 105.192 76.3104 104.981 76.7792C104.89 76.9283 104.812 77.0788 104.757 77.2242C104.647 77.5012 104.548 77.9537 104.808 78.1793C105.088 78.4225 105.533 78.1492 105.764 77.9687C106.414 77.4686 107.015 76.6037 107.094 75.7713C107.122 75.4805 107.07 75.0293 106.697 74.9929Z" fill="#992D6A"/>
<path d="M111.481 67.1171C111.258 66.6207 110.699 66.9905 110.523 67.3352C110.327 67.7175 110.34 68.1625 110.376 68.5799C110.396 68.7968 110.407 69.1227 110.521 69.3546C110.528 69.3784 110.529 69.401 110.535 69.4235C110.665 69.8861 111.087 69.8247 111.36 69.5188C111.653 69.1904 111.655 68.6702 111.665 68.2553C111.672 67.8792 111.637 67.4618 111.481 67.1171Z" fill="#992D6A"/>
<path d="M110.269 75.9429C110.163 76.0557 110.056 76.1923 109.98 76.3402C109.712 76.5934 109.539 77.0873 109.916 77.1675C110.215 77.2315 110.472 76.8817 110.598 76.6624C110.715 76.4606 110.806 76.2124 110.828 75.978C110.861 75.642 110.386 75.82 110.269 75.9429Z" fill="#992D6A"/>
<path d="M96.558 77.7856C96.0367 77.9022 95.5518 78.1153 95.0618 78.3209C94.7761 78.4412 94.5255 78.6092 94.3275 78.826C94.3012 78.8536 94.2774 78.8799 94.2536 78.9075C94.1671 79.0178 94.0869 79.1369 94.0318 79.2761C93.9654 79.4415 94.0656 79.6007 94.2361 79.6183C94.3338 79.6283 94.4265 79.617 94.5155 79.5957C95.0055 79.6333 95.7623 79.4202 95.939 79.345C96.3012 79.1921 96.83 78.8887 97.0179 78.5277C97.2122 78.1592 97.058 77.6753 96.558 77.7856Z" fill="#992D6A"/>
<path d="M100.298 80.9483C99.9626 81.0573 99.5917 81.2028 99.3374 81.461C99.0479 81.7004 98.8286 82.0238 99.1068 82.2895C99.4313 82.6004 99.9213 82.3923 100.285 82.2607C100.733 82.1003 101.228 81.6578 101.217 81.1413C101.208 80.6625 100.56 80.8643 100.298 80.9483Z" fill="#992D6A"/>
<path d="M78.9194 80.5523C78.3092 80.2904 77.7077 80.1976 77.0473 80.1675C76.6175 80.1487 76.011 80.0835 75.6351 80.3618C75.6075 80.3831 75.5862 80.4032 75.5611 80.4245C75.4634 80.4546 75.3719 80.4909 75.2892 80.5448C75.0649 80.694 74.7567 81.0086 74.8594 81.3132C74.9559 81.6015 75.3807 81.6391 75.6288 81.678C76.2416 81.7733 76.8468 81.688 77.4596 81.6354C77.9984 81.5902 79.0159 81.5 79.0397 80.7579C79.0435 80.6702 79.0022 80.5874 78.9194 80.5523Z" fill="#992D6A"/>
<path d="M70.778 82.8474C70.7742 82.8286 70.7755 82.8123 70.7692 82.7935C70.6627 82.4951 70.3144 82.4036 70.0387 82.3309C69.887 82.2921 69.7354 82.2632 69.5851 82.2532C69.5412 82.2269 69.4898 82.2194 69.4259 82.2269C69.4234 82.2281 69.4196 82.2294 69.4159 82.2294C69.2981 82.2206 69.1878 82.2494 69.0888 82.2983C69.075 82.3033 69.0625 82.3033 69.0487 82.3071C68.6966 82.4212 68.4422 82.8699 68.6928 83.1821C68.8996 83.4415 69.3094 83.5544 69.6189 83.6158C70.0086 83.6922 70.4484 83.6283 70.684 83.2685C70.7467 83.172 70.8494 82.9665 70.778 82.8474Z" fill="#992D6A"/>
<path d="M58.8487 78.7273C58.4778 78.4879 57.9089 78.1332 57.4553 78.3412C57.2811 78.4215 57.0154 78.6634 57.0981 78.8865C57.2297 79.2488 57.6094 79.4531 57.9277 79.6311C58.1432 79.7514 58.3575 79.8705 58.5806 79.9382C58.7748 80.0598 58.9916 80.1977 59.2196 80.2127C59.4765 80.229 59.7672 79.9445 59.7773 79.6925C59.7973 79.2651 59.1444 78.9178 58.8487 78.7273Z" fill="#992D6A"/>
<path d="M67.8546 85.9637C67.5251 85.3708 65.5038 85.0449 64.9775 85.6641C64.7683 85.7807 64.6091 85.9675 64.648 86.2182C64.7144 86.6406 65.4274 86.7697 65.7695 86.8161C66.1567 86.8675 66.5389 86.6933 66.9223 86.6858C67.2105 86.6807 67.4774 86.5993 67.6779 86.3887C67.7632 86.3009 67.9323 86.1041 67.8546 85.9637Z" fill="#992D6A"/>
<path d="M89.2488 82.395C88.7225 82.2985 88.1498 82.4113 87.6436 82.553C87.1449 82.6908 86.7401 82.7974 86.6474 83.389C86.6449 83.4467 86.6637 83.4994 86.7013 83.5445C86.7138 83.5533 86.7276 83.557 86.7414 83.5645C86.8103 83.7789 87.0759 83.8641 87.3253 83.8879C87.4945 83.9017 87.6799 83.8854 87.8441 83.8428C87.8679 83.8353 87.8804 83.8328 87.8955 83.8265C87.9055 83.8303 87.9343 83.8328 88.0082 83.829C88.1599 83.8228 88.309 83.8027 88.4594 83.7789C88.8779 83.7124 89.4982 83.478 89.6861 83.0569C89.8666 82.6583 89.6323 82.4652 89.2488 82.395Z" fill="#992D6A"/>
<path d="M85.8576 80.2225C85.2674 80.1962 84.5218 80.3967 84.1859 80.9144C84.0732 81.0047 83.9792 81.1112 83.9316 81.2353C83.7962 81.5813 84.1233 81.7793 84.4203 81.8169C84.835 81.8671 85.3112 81.5713 85.6734 81.4096C85.9967 81.2667 86.4678 81.046 86.4766 80.6274C86.4829 80.3077 86.0994 80.2313 85.8576 80.2225Z" fill="#992D6A"/>
<path d="M78.487 84.8992C78.3003 84.898 78.0898 84.9444 77.8805 85.0196C77.6036 84.9958 77.3216 85.0196 77.0247 85.1387C76.6387 85.2966 76.0109 85.6263 76.2214 86.1515C76.363 86.505 76.9457 86.5288 77.3254 86.5238C77.8166 86.6404 78.3154 86.5125 78.7953 86.332C79.289 86.1465 79.8491 85.9121 79.9018 85.3292C79.9481 84.7952 78.7477 84.903 78.487 84.8992Z" fill="#992D6A"/>
<path d="M95.3523 84.9545C95.3448 84.9244 95.3197 84.9081 95.2608 84.9206C94.9626 84.9946 94.6656 85.0309 94.4237 85.2353C94.3461 85.3005 94.2909 85.4058 94.311 85.5085C94.3862 85.8796 95.0302 85.6715 95.232 85.5336C95.3448 85.4571 95.445 85.3456 95.4839 85.2127C95.5114 85.1087 95.4726 84.9708 95.3523 84.9545Z" fill="#992D6A"/>
<path d="M94.1375 42.6626C92.9107 42.0083 92.4922 40.3462 93.1839 39.2167C92.1062 35.9789 90.5236 33.0106 88.2016 31.2482C85.233 28.9969 75.4676 26.99 67.8575 34.0272C68.2861 35.386 68.3312 36.8639 66.9365 37.4969C66.1972 37.8329 65.612 37.517 65.2248 36.9767C64.7962 37.5508 64.3777 38.1525 63.9767 38.8031C59.6711 45.7964 56.3729 54.3629 54.5233 63.4082C54.6324 63.4633 54.7326 63.5235 54.8103 63.5811C55.3053 63.9447 55.7376 64.4761 55.7113 65.133C55.6662 66.2235 54.8191 67.3116 53.764 67.6538C52.655 74.968 52.2327 82.3248 53.2865 89.4798L95.4909 54.497C95.4921 54.4945 95.5109 48.6757 94.1375 42.6626Z" fill="#C56E9E"/>
<path d="M53.2878 89.6526C53.2677 89.6526 53.2452 89.6488 53.2251 89.6413C53.1662 89.6175 53.1236 89.5661 53.1148 89.5034C52.1738 83.108 52.3292 75.9517 53.5923 67.626C53.601 67.5608 53.6474 67.5069 53.7101 67.4868C54.6925 67.1672 55.4957 66.1293 55.5358 65.124C55.5621 64.4859 55.0985 64.0083 54.7063 63.7188C54.6349 63.6661 54.5434 63.6122 54.4444 63.5621C54.3742 63.527 54.3354 63.4493 54.3529 63.3716C56.2112 54.2887 59.4868 45.761 63.8276 38.7101C64.1997 38.1071 64.6108 37.5067 65.0844 36.8699C65.1183 36.8261 65.1609 36.8135 65.226 36.7997C65.2824 36.801 65.3338 36.8273 65.3664 36.8724C65.5581 37.1394 65.8827 37.4578 66.3438 37.4578C66.5105 37.4578 66.6846 37.4165 66.8638 37.335C67.9415 36.8461 68.2184 35.7493 67.6909 34.0771C67.6696 34.0132 67.6884 33.9417 67.7385 33.8954C72.1406 29.8252 76.9701 28.9703 80.2469 28.9703C84.119 28.9703 87.0086 30.1211 88.3081 31.1063C90.4045 32.697 92.1012 35.4058 93.3493 39.1588C93.3656 39.2077 93.3606 39.2616 93.333 39.3042C93.0235 39.8107 92.9433 40.4575 93.1125 41.0792C93.2816 41.7009 93.6851 42.2211 94.2202 42.5069C94.2641 42.5308 94.2966 42.5734 94.3079 42.6223C95.6688 48.5852 95.6663 54.4353 95.6663 54.4942C95.6663 54.5469 95.6425 54.5945 95.6036 54.6284L53.3993 89.6124C53.368 89.6388 53.3279 89.6526 53.2878 89.6526ZM53.9218 67.7826C52.6988 75.8966 52.5334 82.8899 53.4168 89.1461L95.3167 54.4127C95.3129 53.6907 95.2327 48.2931 93.9859 42.7777C93.4019 42.4405 92.9633 41.8601 92.7766 41.1732C92.5899 40.4875 92.6701 39.7718 92.9934 39.1952C91.7691 35.5512 90.1226 32.9239 88.0963 31.3871C86.7417 30.3592 83.7882 29.3226 80.2457 29.3226C77.0515 29.3226 72.3536 30.1511 68.0543 34.0809C68.5893 35.8659 68.2285 37.1006 67.0079 37.6559C66.3488 37.9542 65.711 37.8076 65.2298 37.2623C64.8175 37.8213 64.4554 38.3578 64.1246 38.8943C59.8252 45.8776 56.5746 54.3187 54.7201 63.3151C54.7902 63.3553 54.8554 63.3979 54.913 63.4392C55.5659 63.9193 55.9105 64.5223 55.8854 65.139C55.8403 66.2634 55.0033 67.379 53.9218 67.7826Z" fill="#601A5F"/>
<path d="M80.8171 30.6542C83.9761 30.6542 86.3908 31.6307 87.5963 32.5457C89.2667 33.813 90.5373 35.8587 91.6852 39.1367C91.4195 39.8712 91.3882 40.6973 91.6037 41.492C91.823 42.2955 92.2817 43 92.8969 43.5014C93.8468 47.9701 93.947 52.4702 93.9495 54.0847L54.5158 86.6558C53.9795 81.3021 54.1975 75.5259 55.1812 68.7457C56.309 68.0488 57.111 66.7915 57.2325 65.4314C57.3252 64.386 56.9092 63.4359 56.0872 62.7489C57.8553 54.6463 61.0081 46.7667 65.2386 39.9C65.3639 39.6957 65.4942 39.4914 65.6308 39.2858C65.8776 39.3635 66.1358 39.4037 66.4002 39.4037C66.7886 39.4037 67.1796 39.3159 67.563 39.1429C68.9064 38.5325 69.9615 36.7462 69.6231 34.4523C73.3022 31.9641 77.1555 30.6542 80.8171 30.6542ZM80.8171 29.259C77.2294 29.259 72.8073 30.4022 68.0555 33.8469C68.4816 35.1969 68.3726 37.2426 66.9866 37.8719C66.7786 37.9659 66.5819 38.0085 66.4002 38.0085C65.9403 38.0085 65.5644 37.739 65.2874 37.3542C64.8626 37.9245 64.4478 38.5224 64.0506 39.1692C59.775 46.1112 56.3604 54.4269 54.5233 63.407C54.6298 63.4609 55.9606 63.9849 55.8441 65.3086C55.7476 66.3891 54.9606 67.4709 53.9106 67.8119C52.8103 75.0722 52.3981 82.2472 53.4444 89.3508L95.338 54.7491C95.338 54.7491 95.4996 48.6345 94.1375 42.664C92.9195 42.0147 92.4959 40.3413 93.1839 39.2181C92.1137 36.0029 90.7441 33.185 88.4384 31.4351C86.9886 30.3345 84.2932 29.259 80.8171 29.259Z" fill="#DAC3A9"/>
<path d="M93.3705 43.6127C91.8179 43.3445 91.021 40.6407 91.6613 39.594C90.6638 36.6006 89.7629 34.8758 87.6151 33.2487C84.8708 31.1667 76.5815 28.34 69.5454 34.8445C69.9426 36.0992 69.5441 38.5247 68.2547 39.1076C67.5693 39.4185 66.7059 39.4812 66.3487 38.981C65.9528 39.5113 65.1207 40.2897 64.7485 40.8926C60.7674 47.3569 57.7199 55.2766 56.0082 63.64C56.1097 63.6889 56.2011 63.744 56.2726 63.7979C56.73 64.1351 57.1309 64.6277 57.1059 65.2344C57.0645 66.241 56.2839 67.2463 55.3064 67.5647C54.2814 74.3249 53.8015 81.6754 54.7764 88.2902L94.492 55.5737C94.4933 55.5749 94.6387 49.172 93.3705 43.6127Z" fill="#C56E9E"/>
<path d="M56.7463 81.2295C56.7639 81.2258 56.7814 81.2283 56.8002 81.2195C57.0972 81.1129 57.1899 80.7645 57.2626 80.4887C57.3014 80.3383 57.329 80.1854 57.3415 80.0349C57.3653 79.9911 57.3741 79.9397 57.3653 79.8757C57.3641 79.8732 57.3641 79.8695 57.3641 79.867C57.3729 79.7466 57.344 79.6388 57.2939 79.5385C57.2889 79.5248 57.2889 79.5122 57.2851 79.4997C57.1711 79.1462 56.7238 78.8917 56.4117 79.1424C56.1536 79.3493 56.0396 79.7592 55.9782 80.0688C55.9005 80.4561 55.9631 80.8986 56.3253 81.1343C56.4205 81.1982 56.626 81.301 56.7463 81.2295Z" fill="#992D6A"/>
<path d="M61.1835 59.8844C60.8878 60.1188 60.7587 60.5876 60.6898 60.9373C60.6259 61.2645 60.6484 61.6242 60.8314 61.8975C60.9479 61.9953 61.087 62.0617 61.2474 62.0579C61.6735 62.0529 61.9918 61.7408 62.077 61.3271C62.1622 60.9135 62.186 60.298 61.9241 59.932C61.7098 59.759 61.4141 59.6988 61.1835 59.8844Z" fill="#992D6A"/>
<path d="M60.3088 69.0214C60.1422 69.1543 60.0695 69.4188 60.0306 69.6168C59.9805 69.8663 60.0206 70.1496 60.2524 70.3012C60.285 70.3225 60.3364 70.3501 60.3878 70.3652C60.5344 70.2787 60.6309 70.1345 60.671 69.9152C60.7111 69.6858 60.7925 69.2608 60.6935 69.0227C60.5757 68.9462 60.4279 68.9274 60.3088 69.0214Z" fill="#992D6A"/>
<path d="M63.8588 76.3164C63.563 76.5521 63.4352 77.0197 63.3663 77.3706C63.2786 77.8119 63.35 78.3145 63.761 78.5828C63.8174 78.6204 63.9076 78.6668 64.0004 78.6956C64.261 78.5414 64.4302 78.287 64.4978 77.9021C64.5705 77.4947 64.7134 76.7401 64.5392 76.3202C64.3312 76.1848 64.0693 76.151 63.8588 76.3164Z" fill="#992D6A"/>
<path d="M71.42 47.9762C71.4413 47.9762 71.4601 47.9837 71.4826 47.9812C71.841 47.9399 72.0353 47.5801 72.1894 47.2943C72.2721 47.1376 72.3423 46.9784 72.3949 46.8142C72.435 46.7729 72.4576 46.7177 72.4651 46.6437C72.4651 46.64 72.4651 46.6375 72.4651 46.6325C72.5064 46.5021 72.5039 46.3742 72.4738 46.2514C72.4738 46.2364 72.4763 46.2213 72.4763 46.205C72.4425 45.7851 72.014 45.3865 71.6029 45.5808C71.2621 45.74 71.0278 46.1649 70.8786 46.4896C70.6907 46.8995 70.6431 47.4046 70.9814 47.7606C71.0679 47.8546 71.2696 48.0226 71.42 47.9762Z" fill="#992D6A"/>
<path d="M66.0343 54.7237C65.8113 55.2251 65.8639 55.8444 66.31 55.7127C66.7323 55.5874 67.4052 54.1245 66.7536 54.1346C66.424 54.1408 66.1747 54.4091 66.0343 54.7237Z" fill="#992D6A"/>
<path d="M66.0232 44.8776C65.5909 45.2161 65.3478 45.7877 65.8026 45.8792C66.235 45.9657 67.5144 44.9867 66.9329 44.6934C66.6385 44.5442 66.2939 44.6633 66.0232 44.8776Z" fill="#992D6A"/>
<path d="M74.1481 36.8864C73.6568 37.1334 73.3085 37.6473 73.7358 37.8278C74.143 37.9971 75.5891 37.2876 75.0766 36.8852C74.8172 36.6821 74.4551 36.731 74.1481 36.8864Z" fill="#992D6A"/>
<path opacity="0.6" d="M93.0394 56.5292C93.0394 56.5292 91.1798 46.2605 79.0423 48.5607C66.9048 50.8609 63.9775 64.2233 65.178 79.6238C65.178 79.6238 79.1751 80.4825 95.1947 76.6342C103.793 74.5672 101.775 59.5514 93.0394 56.5292Z" fill="#AA487A"/>
<path d="M97.9547 60.8186C96.0888 56.6319 94.0124 52.6508 88.1968 50.4935C88.1968 50.4935 74.5556 46.041 69.0946 58.3179C66.2363 64.7458 66.1849 71.7216 66.3979 78.6861C69.141 79.0947 71.8689 79.1988 74.117 79.2389C79.3249 79.3354 84.5177 78.4805 89.5276 77.1192C93.5626 76.0224 97.0449 75.0998 98.6389 70.8667C99.8594 67.6327 99.3456 63.9348 97.9547 60.8186Z" fill="#C56E9E"/>
<path d="M74.9212 79.4783C74.653 79.4783 74.3836 79.477 74.1129 79.4708C71.9789 79.4332 69.1695 79.3354 66.3638 78.9155C66.2523 78.8992 66.1696 78.8052 66.1658 78.6936C65.9578 71.8946 65.9954 64.7145 68.8813 58.2238C72.098 50.9924 78.1091 49.4744 82.5839 49.4744C85.7843 49.4744 88.1677 50.2403 88.2679 50.2728C94.0735 52.4276 96.185 56.2809 98.1661 60.7246C99.73 64.2331 99.9819 67.9598 98.8566 70.9494C97.2313 75.2653 93.7264 76.2167 89.6689 77.3223L89.5887 77.3436C84.3006 78.7801 79.5025 79.4783 74.9212 79.4783ZM66.6257 78.4843C69.3399 78.8753 72.0503 78.9681 74.123 79.0057C74.3886 79.0107 74.6555 79.0132 74.9212 79.0132C79.4612 79.0132 84.2192 78.32 89.4684 76.8948L89.5486 76.8722C93.4833 75.8018 96.8817 74.8779 98.423 70.784C99.5057 67.9084 99.2576 64.3109 97.7426 60.9139C95.8053 56.568 93.744 52.7999 88.1163 50.7116C88.1013 50.7066 85.7078 49.9407 82.5851 49.9407C78.2469 49.9407 72.4225 51.411 69.3073 58.4131C66.4841 64.7596 66.4164 71.5285 66.6257 78.4843Z" fill="#C56E9E"/>
<g opacity="0.8">
<path opacity="0.8" d="M97.9544 60.8186C96.0886 56.6319 94.0122 52.6508 88.1966 50.4935C88.1966 50.4935 74.5553 46.041 69.0943 58.3179C66.236 64.7458 66.1847 71.7216 66.3977 78.6861C69.1407 79.0947 71.8687 79.1988 74.1168 79.2389C79.3246 79.3354 84.5175 78.4805 89.5273 77.1192C93.5623 76.0224 97.0447 75.0998 98.6386 70.8667C99.8591 67.6327 99.3454 63.9348 97.9544 60.8186ZM91.0198 70.3239C87.8369 73.3374 82.8834 74.2098 78.6643 73.5655C74.4927 72.9287 69.8437 70.4618 69.3186 65.8075C68.9966 62.9583 69.6081 59.7819 71.1845 57.3589C71.2296 57.2887 71.2797 57.2173 71.3249 57.1446C72.514 54.9021 74.6769 53.1334 77.1605 52.3148C81.7531 50.8043 87.1465 52.8751 90.4897 56.1744C92.3807 58.0396 93.9057 60.5165 93.927 63.2554C93.947 65.8213 92.9032 68.5402 91.0198 70.3239Z" fill="#A13C6E"/>
</g>
<path d="M89.4219 47.9873C89.4419 47.9823 89.4607 47.9848 89.482 47.9773C89.8204 47.8532 89.9256 47.4608 90.0083 47.145C90.0522 46.9732 90.0848 46.8015 90.0973 46.6298C90.1274 46.5809 90.1349 46.5207 90.1274 46.448C90.1249 46.4455 90.1249 46.4405 90.1249 46.4367C90.1349 46.3013 90.1023 46.1772 90.0447 46.0644C90.0396 46.0506 90.0396 46.0343 90.0346 46.0193C89.9043 45.6182 89.3955 45.3286 89.0397 45.6132C88.7452 45.8488 88.6174 46.3164 88.5459 46.6674C88.4595 47.1086 88.5309 47.6113 88.9419 47.8795C89.0497 47.9497 89.284 48.0675 89.4219 47.9873Z" fill="#992D6A"/>
<path d="M80.8808 38.5436C80.9008 38.5386 80.9196 38.5424 80.9409 38.5348C81.2793 38.412 81.3845 38.0171 81.4672 37.7013C81.5124 37.5308 81.5437 37.3578 81.5562 37.1861C81.5863 37.1359 81.5951 37.0783 81.5863 37.0043C81.585 37.0005 81.5825 36.998 81.5825 36.993C81.5925 36.8564 81.56 36.7335 81.5036 36.6207C81.4986 36.6057 81.4973 36.5894 81.4936 36.5756C81.3632 36.177 80.8545 35.8862 80.4986 36.1707C80.2054 36.4064 80.075 36.8739 80.0061 37.2249C79.9184 37.6662 79.9898 38.1688 80.4009 38.4371C80.5086 38.5073 80.7429 38.6251 80.8808 38.5436Z" fill="#992D6A"/>
<path d="M82.3068 42.956C81.397 42.8683 80.4484 43.282 80.8933 43.915C81.3143 44.5167 83.9822 44.8025 83.6188 43.7796C83.4333 43.2619 82.8782 43.0099 82.3068 42.956Z" fill="#992D6A"/>
<path d="M93.9769 50.3829C93.7827 49.8702 93.3102 49.4666 93.0859 49.874C92.8742 50.2601 93.4255 51.7743 93.8804 51.3067C94.111 51.0711 94.0984 50.7063 93.9769 50.3829Z" fill="#992D6A"/>
<path d="M77.9824 54.2387C75.7419 54.6336 73.8008 56.2519 72.7244 58.3126C71.5001 60.6567 70.9488 65.0126 72.9738 67.0922C74.2269 68.3795 78.1152 69.0777 79.7254 68.2843C81.3582 67.477 83.3331 65.2821 83.902 63.5347C85.0561 59.9898 84.6551 55.2641 80.3733 54.2976C79.5575 54.1121 78.7518 54.1021 77.9824 54.2387Z" fill="#F2ADDA"/>
<path opacity="0.7" d="M88.1587 97.1862C88.2941 96.6773 88.1036 95.7347 87.6763 95.405C87.1349 94.9851 86.3906 95.1819 85.9044 95.5943C85.6062 95.845 85.3944 96.1822 85.2616 96.5457C85.2428 96.5883 85.2189 96.6247 85.2027 96.6698C84.8919 97.5585 85.2515 98.8221 86.3054 98.9349C87.2615 99.0377 87.9444 97.9747 88.1587 97.1862Z" fill="#342D59"/>
<path opacity="0.7" d="M99.7689 100.555C99.8516 100.254 99.7376 99.6911 99.4832 99.4955C99.1611 99.2473 98.72 99.3626 98.4293 99.6083C98.2539 99.7575 98.1248 99.9581 98.0484 100.174C98.0371 100.2 98.0233 100.22 98.0145 100.248C97.8291 100.774 98.0409 101.527 98.6674 101.594C99.2351 101.655 99.6423 101.024 99.7689 100.555Z" fill="#342D59"/>
<path opacity="0.7" d="M111.774 87.1204C111.854 86.8183 111.741 86.2568 111.488 86.0612C111.166 85.8118 110.724 85.9283 110.433 86.1728C110.256 86.3219 110.131 86.5238 110.051 86.7394C110.041 86.7644 110.027 86.7845 110.017 86.8133C109.831 87.3398 110.044 88.0919 110.672 88.1596C111.241 88.2223 111.648 87.588 111.774 87.1204Z" fill="#342D59"/>
<path opacity="0.7" d="M62.6733 97.8056C62.5705 97.2879 61.9803 96.527 61.4515 96.4217C60.7811 96.2864 60.2009 96.7903 59.9453 97.3769C59.7899 97.7342 59.7498 98.129 59.7924 98.5164C59.7949 98.5627 59.7887 98.6054 59.7949 98.6542C59.9077 99.5881 60.7912 100.562 61.7861 100.195C62.6921 99.8614 62.8312 98.6054 62.6733 97.8056Z" fill="#342D59"/>
<path opacity="0.7" d="M45.7366 72.5123C45.7804 71.9871 45.4233 71.0921 44.9446 70.8439C44.3369 70.5305 43.6402 70.8552 43.2342 71.3478C42.986 71.6474 42.8382 72.0172 42.773 72.4008C42.763 72.4459 42.7454 72.4847 42.7379 72.5324C42.5888 73.46 43.169 74.6395 44.2266 74.563C45.1865 74.4929 45.6689 73.3246 45.7366 72.5123Z" fill="#342D59"/>
<path opacity="0.7" d="M58.6963 39.8358C58.8617 39.3958 58.7715 38.5435 58.4219 38.2138C57.977 37.7976 57.3016 37.9067 56.8329 38.2301C56.5485 38.4256 56.3317 38.7077 56.1838 39.021C56.1638 39.0561 56.1387 39.085 56.1212 39.1238C55.7678 39.8847 55.9796 41.0367 56.9044 41.226C57.7439 41.3977 58.4407 40.5127 58.6963 39.8358Z" fill="#342D59"/>
<path opacity="0.7" d="M42.7091 53.3776C42.7542 53.0505 42.5574 52.4764 42.2667 52.3071C41.8958 52.089 41.4484 52.2695 41.1778 52.5666C41.0124 52.7471 40.9071 52.9728 40.8532 53.2122C40.8444 53.241 40.8332 53.2648 40.8269 53.2937C40.7041 53.8715 41.0274 54.6299 41.6928 54.6174C42.2993 54.6036 42.6389 53.8866 42.7091 53.3776Z" fill="#433C62"/>
<path opacity="0.7" d="M75.0639 103.6C74.7957 103.32 74.3634 103.401 74.0464 103.529C73.411 103.786 72.8747 104.436 72.7782 105.115C72.7657 105.212 72.7657 105.304 72.7732 105.392C72.7607 105.452 72.7482 105.513 72.7419 105.572C72.6467 106.329 73.4349 106.485 73.98 106.275C74.7168 105.993 75.2368 105.374 75.3596 104.597C75.4135 104.256 75.2995 103.849 75.0639 103.6Z" fill="#342D59"/>
<path opacity="0.7" d="M41.7702 87.3311C41.4895 86.8498 41.1035 86.386 40.5233 86.8034C39.8554 87.2847 40.1274 88.1158 40.4206 88.7388C40.497 88.898 40.5948 89.0071 40.7038 89.0748C40.9983 89.4333 41.4506 89.6589 41.8479 89.2603C42.418 88.6899 42.1198 87.9316 41.7702 87.3311Z" fill="#342D59"/>
<path opacity="0.7" d="M51.5434 101.08C51.4332 100.677 51.1775 100.25 50.7502 100.16C50.4683 100.101 50.1187 100.369 49.9532 100.559C49.7791 100.761 49.7026 101.011 49.6938 101.274C49.6876 101.481 49.7615 101.773 49.9031 101.997C49.9445 102.104 49.9958 102.207 50.0572 102.298C50.3843 102.786 50.8617 102.887 51.3141 102.472C51.7138 102.106 51.6737 101.553 51.5434 101.08Z" fill="#342D59"/>
<path opacity="0.4" d="M51.7865 42.2188C51.3179 41.6635 50.5823 41.3589 49.551 41.4542C47.229 41.671 45.2767 44.2156 43.8306 45.8214C40.5174 49.5054 38.5839 54.5909 37.3108 59.3041C36.1078 63.7503 35.5076 68.0097 36.0902 72.6777C36.2895 74.2722 36.7343 75.8855 37.3158 77.3784C38.6378 80.7691 39.8608 76.5762 40.0237 75.1371C40.6615 69.4562 41.1841 63.546 43.9196 58.4103C45.1953 56.0187 46.9909 53.9566 48.635 51.8119C50.155 49.8263 52.1124 47.382 52.3868 44.8048C52.4971 43.7707 52.3103 42.838 51.7865 42.2188Z" fill="#8478B5"/>
</svg>
