<svg width="195" height="178" viewBox="0 0 195 178" fill="none" xmlns="http://www.w3.org/2000/svg">
<path d="M135.38 15.1603C113.593 5.39219 59.0724 4.19696 19.1064 52.1091L18.0019 51.1984L19.1064 52.1091C3.89635 70.1823 -2.47986 109.609 32.5718 140.982C38.5112 146.342 55.0892 161.866 80.4864 166.88C112.963 173.247 167.338 164.117 183.77 119.994C197.914 82.0242 178.266 34.5933 135.38 15.1603Z" stroke="#935B9B" stroke-width="2.5554"/>
<path d="M97.4517 67.6341C102.243 75.6522 101.742 79.4045 100.591 81.3735C97.9239 85.2041 91.3496 82.5507 85.8343 87.9297C85.0148 88.8026 81.8473 91.9285 81.8337 95.9041C82.0019 102.162 89.8639 103.444 93.0818 111.157C94.4925 114.359 95.0901 118.674 93.444 124.636" stroke="#324A9A" stroke-width="2" stroke-miterlimit="10"/>
<path d="M156.787 128.892C148.061 123.876 144.069 124.26 142.177 125.54C138.048 128.316 140.941 135.54 135.276 141.392C134.456 142.385 131.105 145.636 126.879 145.493C120.275 145.397 118.729 136.945 110.325 133.362C106.884 131.863 102.242 131.212 95.8132 132.928" stroke="#E5231E" stroke-width="2" stroke-miterlimit="10"/>
<path d="M90.9267 23.71C92.2254 26.4364 94.7109 29.9587 98.8516 32.1964C108.48 37.3653 119.235 30.2411 122.386 34.449C126 39.0271 114.914 51.2577 117.677 54.1574C121.365 57.7979 141.759 37.5921 154.139 43.8877C157.092 45.3296 159.434 48.2767 160.195 51.5706C161.244 56.0149 158.684 60.1048 153.495 66.7717C141.547 82.2253 134.118 86.1027 135.081 89.7117C135.656 92.0127 139.898 94.408 157.786 93.8319" stroke="#E5231E" stroke-width="2" stroke-miterlimit="10"/>
<path d="M74.8241 26.5129C75.0637 29.599 74.8702 33.965 72.4607 38.135C66.7825 47.7503 53.9952 47.1795 53.3709 52.3973C52.6578 58.2992 68.6622 63.274 67.6183 67.2023C66.3967 72.499 38.2956 65.3338 30.9852 77.2435C29.1798 80.0498 28.7333 83.8991 29.8256 86.9947C31.3374 91.3797 35.6737 93.7406 43.3317 96.8237C61.7118 104.052 69.9851 103.63 71.0751 107.154C71.7455 109.388 69.3338 113.987 53.6838 122.72" stroke="#324A9A" stroke-width="2" stroke-miterlimit="10"/>
</svg>
