<svg width="48" height="85" viewBox="0 0 48 85" fill="none" xmlns="http://www.w3.org/2000/svg">
<path d="M38.5442 84.2221C38.8687 81.6264 38.7065 77.8952 36.7597 74.3262C32.2174 66.0526 21.1859 66.2148 20.8615 61.6725C20.3748 56.6434 34.0019 52.9122 33.3529 49.5054C32.3796 45.1253 8.36994 50.3165 2.36753 39.934C0.907479 37.5006 0.583024 34.256 1.55639 31.4981C2.85421 27.7669 6.58544 25.9824 13.399 23.549C29.1351 17.8711 36.273 18.52 37.2464 15.4376C37.8953 13.4909 35.9486 9.75969 22.8082 1.81055" stroke="#E5231E" stroke-width="2" stroke-miterlimit="10"/>
<path fill-rule="evenodd" clip-rule="evenodd" d="M28.4497 6.63626C31.3294 8.64268 33.2416 10.2595 34.4709 11.5618C35.4523 12.6015 35.944 13.3797 36.1735 13.9519L37.5913 12.3315C37.1965 11.6632 36.6446 10.951 35.9254 10.189C34.6063 8.79162 32.6344 7.12647 29.7746 5.12207L28.4497 6.63626Z" fill="#324A9A"/>
<path fill-rule="evenodd" clip-rule="evenodd" d="M27.8999 20.2573L27.2888 18.3477C24.0117 19.1477 19.8372 20.2475 14.688 22.0326L15.2977 23.938C20.4574 22.147 24.6197 21.0559 27.8999 20.2573Z" fill="#324A9A"/>
</svg>
