<svg width="48" height="85" viewBox="0 0 48 85" fill="none" xmlns="http://www.w3.org/2000/svg">
<path d="M45.5203 83.4115C45.6825 80.8159 45.358 76.7602 43.2491 73.029C38.8689 65.2421 30.1086 64.9176 29.9464 60.6997C29.622 55.5084 42.9246 52.9128 42.438 48.5326C42.1135 45.4503 34.9755 43.6658 29.4598 42.2058C18.4283 39.4479 11.128 40.5835 9.66799 36.69C9.01908 35.0678 9.668 33.6077 9.83023 32.9588C11.6147 28.2542 18.5905 27.9297 27.3508 25.1719C34.6511 22.9007 45.5203 19.6561 46.3314 14.6271C47.1425 9.27359 36.4355 3.43341 31.8932 1" stroke="#E5231E" stroke-width="2" stroke-miterlimit="10"/>
<path fill-rule="evenodd" clip-rule="evenodd" d="M41.4022 72.0074C39.4255 69.3188 36.8518 67.7315 34.5185 66.3933C34.3525 66.298 34.1863 66.2034 34.0206 66.109L34.017 66.1069L34.0168 66.1068C32.8526 65.4435 31.7143 64.7949 30.8449 64.0849C29.8251 63.2521 29.0077 62.2032 28.9476 60.7499C28.8425 58.9841 29.9071 57.5749 31.1723 56.4708C32.4438 55.3613 34.1336 54.3729 35.7197 53.4648C35.802 53.6242 35.895 53.8042 35.9999 54.0074C36.3003 54.5891 36.5024 54.9803 36.6384 55.2435C35.0525 56.1524 33.5685 57.0343 32.4872 57.9778C31.3675 58.9549 30.8929 59.8129 30.9444 60.6371L30.9452 60.6491L30.9457 60.6611C30.9706 61.3106 31.3074 61.8805 32.11 62.5358C32.8395 63.1316 33.8138 63.6877 35.0043 64.3672L35.0043 64.3672L35.0048 64.3675C35.1702 64.4619 35.3398 64.5587 35.5135 64.6583C38.168 66.1808 41.4839 68.2052 43.809 72.0074L41.4022 72.0074Z" fill="#324A9A"/>
</svg>
