<svg width="593" height="427" viewBox="0 0 593 427" fill="none" xmlns="http://www.w3.org/2000/svg">
<path d="M447.878 161.632L470.564 143.72L557.99 153.923L562.673 170.256L447.878 161.632Z" fill="url(#paint0_linear_3033_498574)"/>
<path d="M447.878 161.632L470.564 143.72L557.99 153.923L562.673 170.256L447.878 161.632Z" fill="url(#paint1_linear_3033_498574)"/>
<path d="M442.903 169.592L467.619 152.676L554.342 161.884L553.678 182.529L442.903 169.592Z" fill="url(#paint2_linear_3033_498574)"/>
<path d="M437.265 166.606L460.282 149.689L541.075 158.897L540.452 179.542L437.265 166.606Z" fill="url(#paint3_linear_3033_498574)"/>
<path d="M497.296 187.503L496.765 174.899L518.191 178.468L514.914 189.825L497.296 187.503Z" fill="url(#paint4_linear_3033_498574)"/>
<path d="M578.686 109.634L582.971 114.238L544.922 116.892L543.728 110.364L578.686 109.634Z" fill="url(#paint5_linear_3033_498574)"/>
<path d="M581.498 54.1602H465.748V75.3891H581.498V54.1602Z" fill="url(#paint6_linear_3033_498574)"/>
<path d="M456.13 87.3305L459.778 70.082L576.855 72.4039V93.6328L456.13 87.3305Z" fill="url(#paint7_linear_3033_498574)"/>
<path d="M449.497 103.584L455.799 86.335L570.553 91.9739L570.885 112.871L449.497 103.584Z" fill="url(#paint8_linear_3033_498574)"/>
<path d="M446.512 110.549L446.247 102.92L585.186 112.792L584.151 134.1L446.512 110.549Z" fill="url(#paint9_linear_3033_498574)"/>
<path d="M443.567 122.159L447.653 110.218L570.925 123.406L570.275 144.051L443.567 122.159Z" fill="url(#paint10_linear_3033_498574)"/>
<path d="M448.542 141.729L469.874 125.476L556.332 134.021L555.682 154.666L448.542 141.729Z" fill="url(#paint11_linear_3033_498574)"/>
<path d="M560.603 48.5215H450.16V70.0821H560.603V48.5215Z" fill="url(#paint12_linear_3033_498574)"/>
<path d="M556.292 29.2822H489.628V50.8428H556.292V29.2822Z" fill="url(#paint13_linear_3033_498574)"/>
<path d="M550.322 10.375H483.99V31.9356H550.322V10.375Z" fill="url(#paint14_linear_3033_498574)"/>
<path d="M348.38 175.523L342.543 163.29L507.246 177.726L504.632 198.782L348.38 175.523Z" fill="url(#paint15_linear_3033_498574)"/>
<path d="M342.742 163.913L335.578 157.65L497.959 163.13L495.346 184.186L342.742 163.913Z" fill="url(#paint16_linear_3033_498574)"/>
<path d="M327.485 156.948L313.688 136.422L462.471 152.848L459.858 173.904L327.485 156.948Z" fill="url(#paint17_linear_3033_498574)"/>
<path d="M314.551 138.372L315.32 116.188L465.788 131.951L464.886 153.007L314.551 138.372Z" fill="url(#paint18_linear_3033_498574)"/>
<path d="M221.022 109.183C221.022 109.183 216.406 109.979 215.411 102.615C214.734 97.5999 218.462 94.9463 218.462 94.9463L463.467 110.377L462.564 131.765L221.022 109.183Z" fill="url(#paint19_linear_3033_498574)"/>
<path d="M242.58 33.5551C242.58 33.5551 240.285 32.1885 240.909 27.6774C241.532 23.1397 246.985 22.9805 246.985 22.9805L491.658 29.1236L490.424 51.1751L242.58 33.5551Z" fill="url(#paint20_linear_3033_498574)"/>
<path d="M248.882 23.9354L248.948 11.3573C248.948 11.3573 248.444 5.73159 249.598 3.62197C251.23 0.636663 253.963 1.08777 253.963 1.08777L500.958 1.92366L492.202 17.1687L491.751 29.6141L248.882 23.9354Z" fill="url(#paint21_linear_3033_498574)"/>
<path d="M228.65 41.5156C228.65 41.5156 224.127 39.7244 225.015 31.0604C225.374 27.6372 230.415 24.957 230.415 24.957L474.093 32.7587L471.864 55.1419L228.65 41.5156Z" fill="url(#paint22_linear_3033_498574)"/>
<path d="M218.701 53.4566L212.373 45.5489C212.373 45.5489 208.552 42.3247 208.791 36.8583C209.082 30.5692 215.145 28.2871 215.145 28.2871L458.823 36.0888L451.885 56.4818L457.589 65.4377L218.701 53.4566Z" fill="url(#paint23_linear_3033_498574)"/>
<path d="M457.828 163.914L460.946 146.042L485.024 146.214L482.411 167.27L457.828 163.914Z" fill="url(#paint24_linear_3033_498574)"/>
<path d="M217.706 63.7397C217.706 63.7397 215.835 62.4925 215.941 59.0428C216.074 54.7174 218.807 53.165 218.807 53.165L467.128 64.2837L464.899 86.6669L217.706 63.7397Z" fill="url(#paint25_linear_3033_498574)"/>
<path d="M211.736 78.9975C211.736 78.9975 206.734 77.392 206.721 71.501C206.721 64.6149 213.155 63.4473 213.155 63.4473L454.18 79.5414L451.951 101.924L211.736 78.9975Z" fill="url(#paint26_linear_3033_498574)"/>
<path d="M205.766 95.9151C205.766 95.9151 196.758 95.6497 196.904 86.7999C197.076 76.5968 204.545 77.0479 204.545 77.0479L443.912 95.4639L442.678 118.51L205.766 95.9151Z" fill="url(#paint27_linear_3033_498574)"/>
<path d="M562.709 170.137L556.684 150.475L554.465 151.155L560.49 170.818L562.709 170.137Z" fill="#D9A6BB"/>
<path d="M513.827 192.76L523.758 174.374L521.715 173.271L511.784 191.656L513.827 192.76Z" fill="#D9A6BB"/>
<path d="M468.62 168.791L482.425 153.104L480.682 151.57L466.877 167.257L468.62 168.791Z" fill="#D9A6BB"/>
<path d="M441.759 116.488L462.275 112.534L461.836 110.255L441.319 114.208L441.759 116.488Z" fill="#D9A6BB"/>
<path d="M450.955 56.1769L464.005 72.4976L465.819 71.0473L452.768 54.7266L450.955 56.1769Z" fill="#D9A6BB"/>
<path d="M491.641 13.0127L487.876 33.5671L490.159 33.9856L493.925 13.4311L491.641 13.0127Z" fill="#D9A6BB"/>
<path d="M541.894 16.4443L535.845 36.4471L538.067 37.1193L544.116 17.1165L541.894 16.4443Z" fill="#D9A6BB"/>
<path d="M578.861 55.2178L561.006 66.0739L562.212 68.058L580.067 57.2019L578.861 55.2178Z" fill="#D9A6BB"/>
<path d="M588.767 116.249L572.256 103.441L570.833 105.276L587.344 118.084L588.767 116.249Z" fill="#D9A6BB"/>
<path d="M441.908 118.484C447.22 118.484 451.527 113.363 451.527 107.047C451.527 100.73 447.22 95.6094 441.908 95.6094C436.597 95.6094 432.29 100.73 432.29 107.047C432.29 113.363 436.597 118.484 441.908 118.484Z" fill="#D9A6BB"/>
<path d="M453.185 102.23C458.497 102.23 462.803 97.11 462.803 90.7935C462.803 84.4769 458.497 79.3564 453.185 79.3564C447.873 79.3564 443.567 84.4769 443.567 90.7935C443.567 97.11 447.873 102.23 453.185 102.23Z" fill="#D9A6BB"/>
<path d="M464.461 86.6398C469.773 86.6398 474.08 81.5192 474.08 75.2027C474.08 68.8862 469.773 63.7656 464.461 63.7656C459.149 63.7656 454.843 68.8862 454.843 75.2027C454.843 81.5192 459.149 86.6398 464.461 86.6398Z" fill="#D9A6BB"/>
<path d="M456.661 58.7774C461.878 58.7774 466.107 53.6569 466.107 47.3403C466.107 41.0238 461.878 35.9033 456.661 35.9033C451.444 35.9033 447.215 41.0238 447.215 47.3403C447.215 53.6569 451.444 58.7774 456.661 58.7774Z" fill="#D9A6BB"/>
<path d="M473.748 55.129C478.694 55.129 482.703 50.0085 482.703 43.6919C482.703 37.3754 478.694 32.2549 473.748 32.2549C468.802 32.2549 464.793 37.3754 464.793 43.6919C464.793 50.0085 468.802 55.129 473.748 55.129Z" fill="#D9A6BB"/>
<path d="M490.663 51.1618C495.791 51.1618 499.949 46.261 499.949 40.2156C499.949 34.1702 495.791 29.2695 490.663 29.2695C485.534 29.2695 481.376 34.1702 481.376 40.2156C481.376 46.261 485.534 51.1618 490.663 51.1618Z" fill="#D9A6BB"/>
<path d="M500.612 24.2936C505.741 24.2936 509.899 19.3929 509.899 13.3475C509.899 7.30212 505.741 2.40137 500.612 2.40137C495.484 2.40137 491.326 7.30212 491.326 13.3475C491.326 19.3929 495.484 24.2936 500.612 24.2936Z" fill="#D9A6BB"/>
<path d="M514.874 35.24C520.003 35.24 524.16 30.3392 524.16 24.2938C524.16 18.2484 520.003 13.3477 514.874 13.3477C509.745 13.3477 505.587 18.2484 505.587 24.2938C505.587 30.3392 509.745 35.24 514.874 35.24Z" fill="#D9A6BB"/>
<path d="M529.135 45.5222C534.264 45.5222 538.422 40.6215 538.422 34.5761C538.422 28.5307 534.264 23.6299 529.135 23.6299C524.007 23.6299 519.849 28.5307 519.849 34.5761C519.849 40.6215 524.007 45.5222 529.135 45.5222Z" fill="#D9A6BB"/>
<path d="M549.698 31.9096C554.644 31.9096 558.653 27.0861 558.653 21.1359C558.653 15.1858 554.644 10.3623 549.698 10.3623C544.753 10.3623 540.744 15.1858 540.744 21.1359C540.744 27.0861 544.753 31.9096 549.698 31.9096Z" fill="#D9A6BB"/>
<path d="M555.164 50.8168C560.015 50.8168 563.947 45.9933 563.947 40.0431C563.947 34.093 560.015 29.2695 555.164 29.2695C550.314 29.2695 546.382 34.093 546.382 40.0431C546.382 45.9933 550.314 50.8168 555.164 50.8168Z" fill="#D9A6BB"/>
<path d="M559.807 70.0552C564.658 70.0552 568.59 65.2316 568.59 59.2815C568.59 53.3314 564.658 48.5078 559.807 48.5078C554.957 48.5078 551.025 53.3314 551.025 59.2815C551.025 65.2316 554.957 70.0552 559.807 70.0552Z" fill="#D9A6BB"/>
<path d="M582.36 75.3627C587.035 75.3627 590.824 70.5392 590.824 64.589C590.824 58.6389 587.035 53.8154 582.36 53.8154C577.686 53.8154 573.896 58.6389 573.896 64.589C573.896 70.5392 577.686 75.3627 582.36 75.3627Z" fill="#D9A6BB"/>
<path d="M576.722 93.6194C581.397 93.6194 585.186 88.9385 585.186 83.1642C585.186 77.39 581.397 72.709 576.722 72.709C572.048 72.709 568.258 77.39 568.258 83.1642C568.258 88.9385 572.048 93.6194 576.722 93.6194Z" fill="#D9A6BB"/>
<path d="M570.089 112.858C574.763 112.858 578.553 108.177 578.553 102.403C578.553 96.6282 574.763 91.9473 570.089 91.9473C565.414 91.9473 561.625 96.6282 561.625 102.403C561.625 108.177 565.414 112.858 570.089 112.858Z" fill="#D9A6BB"/>
<path d="M584.35 134.087C589.025 134.087 592.814 129.406 592.814 123.632C592.814 117.858 589.025 113.177 584.35 113.177C579.676 113.177 575.886 117.858 575.886 123.632C575.886 129.406 579.676 134.087 584.35 134.087Z" fill="#D9A6BB"/>
<path d="M570.089 144.37C574.763 144.37 578.553 139.689 578.553 133.915C578.553 128.14 574.763 123.459 570.089 123.459C565.414 123.459 561.625 128.14 561.625 133.915C561.625 139.689 565.414 144.37 570.089 144.37Z" fill="#D9A6BB"/>
<path d="M555.496 154.653C560.17 154.653 563.96 149.972 563.96 144.197C563.96 138.423 560.17 133.742 555.496 133.742C550.821 133.742 547.032 138.423 547.032 144.197C547.032 149.972 550.821 154.653 555.496 154.653Z" fill="#D9A6BB"/>
<path d="M554.501 182.847C559.175 182.847 562.965 178.166 562.965 172.392C562.965 166.618 559.175 161.937 554.501 161.937C549.826 161.937 546.037 166.618 546.037 172.392C546.037 178.166 549.826 182.847 554.501 182.847Z" fill="#D9A6BB"/>
<path d="M538.913 179.198C543.587 179.198 547.377 174.517 547.377 168.743C547.377 162.969 543.587 158.288 538.913 158.288C534.238 158.288 530.449 162.969 530.449 168.743C530.449 174.517 534.238 179.198 538.913 179.198Z" fill="#D9A6BB"/>
<path d="M530.452 166.432C530.889 160.675 527.465 155.721 522.804 155.367C518.143 155.013 514.01 159.393 513.573 165.151C513.136 170.908 516.56 175.863 521.221 176.217C525.882 176.57 530.015 172.19 530.452 166.432Z" fill="#D9A6BB"/>
<path d="M515.522 188.563C515.824 182.525 512.064 177.43 507.124 177.183C502.185 176.936 497.936 181.631 497.634 187.669C497.332 193.707 501.092 198.802 506.032 199.049C510.972 199.296 515.221 194.601 515.522 188.563Z" fill="#D9A6BB"/>
<path d="M505.24 172.973C505.542 166.934 501.782 161.839 496.842 161.593C491.903 161.346 487.654 166.041 487.352 172.079C487.05 178.117 490.81 183.212 495.75 183.459C500.69 183.705 504.939 179.011 505.24 172.973Z" fill="#D9A6BB"/>
<path d="M494.627 157.715C494.928 151.677 491.169 146.582 486.229 146.335C481.289 146.088 477.04 150.783 476.739 156.821C476.437 162.859 480.197 167.954 485.137 168.201C490.076 168.448 494.325 163.753 494.627 157.715Z" fill="#D9A6BB"/>
<path d="M471.087 163.424C471.398 157.203 467.349 151.945 462.043 151.68C456.738 151.414 452.185 156.243 451.874 162.464C451.563 168.685 455.612 173.943 460.918 174.208C466.224 174.473 470.777 169.645 471.087 163.424Z" fill="#D9A6BB"/>
<path d="M471.748 142.367C472.054 136.234 468.002 131.047 462.696 130.782C457.391 130.517 452.841 135.274 452.535 141.407C452.228 147.541 456.281 152.728 461.587 152.993C466.892 153.258 471.442 148.501 471.748 142.367Z" fill="#D9A6BB"/>
<path d="M471.747 121.802C472.053 115.669 468.001 110.482 462.695 110.217C457.39 109.952 452.84 114.709 452.534 120.842C452.227 126.976 456.28 132.162 461.586 132.428C466.891 132.693 471.441 127.936 471.747 121.802Z" fill="#D9A6BB"/>
<path d="M469.874 121.621C470.119 116.732 466.888 112.597 462.658 112.386C458.428 112.175 454.801 115.967 454.557 120.856C454.313 125.745 457.544 129.88 461.774 130.091C466.003 130.302 469.63 126.51 469.874 121.621Z" fill="#B62B6C"/>
<path d="M469.875 142.187C470.12 137.298 466.889 133.163 462.659 132.952C458.429 132.74 454.802 136.533 454.558 141.422C454.314 146.311 457.545 150.445 461.774 150.657C466.004 150.868 469.631 147.076 469.875 142.187Z" fill="#B62B6C"/>
<path d="M469.213 163.083C469.457 158.194 466.226 154.059 461.996 153.848C457.767 153.636 454.14 157.428 453.895 162.317C453.651 167.206 456.882 171.341 461.112 171.552C465.342 171.764 468.969 167.972 469.213 163.083Z" fill="#B62B6C"/>
<path d="M493.014 157.758C493.258 152.869 490.116 148.739 485.996 148.533C481.876 148.327 478.338 152.124 478.094 157.013C477.849 161.902 480.991 166.032 485.111 166.238C489.231 166.444 492.769 162.647 493.014 157.758Z" fill="#B62B6C"/>
<path d="M503.627 173.017C503.871 168.128 500.729 163.997 496.609 163.791C492.489 163.586 488.951 167.382 488.707 172.271C488.463 177.16 491.605 181.29 495.725 181.496C499.845 181.702 503.383 177.906 503.627 173.017Z" fill="#B62B6C"/>
<path d="M507.113 197.095C511.235 196.934 514.421 192.838 514.23 187.947C514.039 183.056 510.542 179.222 506.42 179.383C502.299 179.544 499.113 183.64 499.304 188.531C499.495 193.422 502.992 197.256 507.113 197.095Z" fill="#B62B6C"/>
<path d="M528.487 166.399C529.021 161.666 526.503 157.496 522.863 157.086C519.222 156.675 515.838 160.179 515.304 164.912C514.771 169.645 517.289 173.815 520.929 174.225C524.57 174.636 527.953 171.132 528.487 166.399Z" fill="#B62B6C"/>
<path d="M545.402 169.386C545.936 164.653 543.418 160.483 539.778 160.072C536.137 159.661 532.753 163.165 532.22 167.898C531.686 172.631 534.204 176.801 537.844 177.212C541.485 177.623 544.869 174.119 545.402 169.386Z" fill="#B62B6C"/>
<path d="M560.991 173.034C561.525 168.301 559.007 164.132 555.366 163.721C551.726 163.31 548.342 166.814 547.808 171.547C547.274 176.28 549.793 180.45 553.433 180.861C557.073 181.271 560.457 177.767 560.991 173.034Z" fill="#B62B6C"/>
<path d="M561.972 144.355C562.159 139.596 559.344 135.621 555.683 135.476C552.023 135.332 548.903 139.073 548.716 143.832C548.528 148.591 551.343 152.567 555.004 152.711C558.664 152.855 561.784 149.114 561.972 144.355Z" fill="#B62B6C"/>
<path d="M576.564 134.072C576.752 129.313 573.937 125.338 570.276 125.193C566.616 125.049 563.496 128.79 563.308 133.549C563.121 138.308 565.936 142.284 569.597 142.428C573.257 142.572 576.377 138.831 576.564 134.072Z" fill="#B62B6C"/>
<path d="M590.825 123.791C591.013 119.032 588.198 115.057 584.537 114.912C580.877 114.768 577.757 118.509 577.569 123.268C577.382 128.028 580.197 132.003 583.858 132.147C587.518 132.291 590.638 128.55 590.825 123.791Z" fill="#B62B6C"/>
<path d="M576.896 102.563C577.084 97.8032 574.269 93.8281 570.608 93.6837C566.948 93.5394 563.828 97.2805 563.641 102.04C563.453 106.799 566.268 110.774 569.929 110.919C573.589 111.063 576.709 107.322 576.896 102.563Z" fill="#B62B6C"/>
<path d="M583.198 83.3251C583.386 78.5659 580.571 74.5907 576.91 74.4464C573.25 74.302 570.13 78.0431 569.942 82.8023C569.755 87.5615 572.57 91.5367 576.231 91.681C579.891 91.8254 583.011 88.0843 583.198 83.3251Z" fill="#B62B6C"/>
<path d="M588.837 64.7509C589.024 59.9917 586.209 56.0166 582.548 55.8722C578.888 55.7279 575.768 59.4689 575.581 64.2282C575.393 68.9874 578.208 72.9625 581.869 73.1069C585.529 73.2512 588.649 69.5102 588.837 64.7509Z" fill="#B62B6C"/>
<path d="M566.948 59.4433C567.136 54.6841 564.32 50.7089 560.66 50.5646C556.999 50.4202 553.88 54.1613 553.692 58.9205C553.505 63.6798 556.32 67.6549 559.98 67.7992C563.641 67.9436 566.76 64.2025 566.948 59.4433Z" fill="#B62B6C"/>
<path d="M561.642 40.537C561.83 35.7778 559.014 31.8027 555.354 31.6583C551.693 31.514 548.574 35.255 548.386 40.0143C548.199 44.7735 551.014 48.7486 554.674 48.893C558.335 49.0373 561.454 45.2963 561.642 40.537Z" fill="#B62B6C"/>
<path d="M556.336 21.2997C556.524 16.5405 553.709 12.5653 550.048 12.421C546.388 12.2766 543.268 16.0177 543.08 20.7769C542.893 25.5361 545.708 29.5113 549.369 29.6556C553.029 29.8 556.149 26.0589 556.336 21.2997Z" fill="#B62B6C"/>
<path d="M535.774 34.8985C535.962 30.1392 533.146 26.1641 529.486 26.0197C525.825 25.8754 522.706 29.6165 522.518 34.3757C522.331 39.1349 525.146 43.1101 528.806 43.2544C532.467 43.3988 535.586 39.6577 535.774 34.8985Z" fill="#B62B6C"/>
<path d="M521.182 24.6152C521.369 19.856 518.554 15.8809 514.894 15.7365C511.233 15.5922 508.114 19.3333 507.926 24.0925C507.738 28.8517 510.554 32.8269 514.214 32.9712C517.875 33.1156 520.994 29.3745 521.182 24.6152Z" fill="#B62B6C"/>
<path d="M507.253 13.6699C507.441 8.91065 504.625 4.93551 500.965 4.79115C497.304 4.64679 494.185 8.38788 493.997 13.1471C493.809 17.9063 496.625 21.8815 500.285 22.0258C503.946 22.1702 507.065 18.4291 507.253 13.6699Z" fill="#B62B6C"/>
<path d="M497.979 40.2373C498.167 35.478 495.126 31.494 491.188 31.3387C487.249 31.1834 483.904 34.9156 483.716 39.6748C483.528 44.434 486.569 48.418 490.508 48.5734C494.447 48.7287 497.792 44.9965 497.979 40.2373Z" fill="#B62B6C"/>
<path d="M480.746 43.9043C480.948 38.779 477.847 34.4954 473.821 34.3366C469.794 34.1778 466.366 38.204 466.164 43.3293C465.962 48.4546 469.063 52.7382 473.089 52.897C477.116 53.0558 480.544 49.0297 480.746 43.9043Z" fill="#B62B6C"/>
<path d="M464.164 47.8838C464.366 42.7585 461.265 38.4748 457.239 38.3161C453.212 38.1573 449.784 42.1834 449.582 47.3087C449.38 52.4341 452.48 56.7177 456.507 56.8765C460.534 57.0353 463.962 53.0091 464.164 47.8838Z" fill="#B62B6C"/>
<path d="M472.454 75.4467C472.656 70.3214 469.336 66.0291 465.038 65.8597C460.741 65.6902 457.093 69.7077 456.891 74.833C456.689 79.9583 460.009 84.2506 464.307 84.4201C468.604 84.5896 472.252 80.5721 472.454 75.4467Z" fill="#B62B6C"/>
<path d="M460.846 91.0356C461.048 85.9103 457.728 81.618 453.431 81.4485C449.133 81.2791 445.486 85.2966 445.284 90.4219C445.082 95.5472 448.401 99.8395 452.699 100.009C456.996 100.178 460.644 96.1609 460.846 91.0356Z" fill="#B62B6C"/>
<path d="M449.901 107.288C450.103 102.163 446.783 97.87 442.486 97.7005C438.189 97.5311 434.541 101.549 434.339 106.674C434.137 111.8 437.457 116.092 441.754 116.261C446.052 116.431 449.699 112.413 449.901 107.288Z" fill="#B62B6C"/>
<path d="M26.3238 338.19L10.1255 316.138L84.1655 256.339L99.9791 275.737L26.3238 338.19Z" fill="url(#paint28_linear_3033_498574)"/>
<path d="M45.4408 375.101C39.922 374.531 28.3271 362.059 28.3271 362.059L103.243 301.755L116.324 317.69C116.31 317.677 69.4398 377.582 45.4408 375.101Z" fill="url(#paint29_linear_3033_498574)"/>
<path d="M39.6964 361.449L27.0005 344.903L101.133 285.224L114.201 301.145L39.6964 361.449Z" fill="url(#paint30_linear_3033_498574)"/>
<path d="M38.6217 346.217L25.9258 329.671L100.059 269.978L113.14 285.913L38.6217 346.217Z" fill="url(#paint31_linear_3033_498574)"/>
<path d="M18.1782 328.982L4.97803 310.725L79.1109 251.032L92.1916 266.967L18.1782 328.982Z" fill="url(#paint32_linear_3033_498574)"/>
<path d="M25.939 321.139L12.7256 302.882L86.8585 243.189L99.9392 259.124L25.939 321.139Z" fill="url(#paint33_linear_3033_498574)"/>
<path d="M34.1509 313.352L17.9526 291.314L91.9926 231.514L107.806 250.899L34.1509 313.352Z" fill="url(#paint34_linear_3033_498574)"/>
<path d="M86.3677 412.491L72.9819 395.587L93.7704 377.41L109.995 387.825L86.3677 412.491Z" fill="url(#paint35_linear_3033_498574)"/>
<path d="M75.3037 395.866L62.4883 379.705L122.771 330.295L147.394 333.028L75.3037 395.866Z" fill="url(#paint36_linear_3033_498574)"/>
<path d="M62.3691 381.151L49.5537 364.99L109.823 315.567L136.674 319.52L62.3691 381.151Z" fill="url(#paint37_linear_3033_498574)"/>
<path d="M96.3044 404.185L82.9053 387.295L123.846 353.143L144.608 359.949L96.3044 404.185Z" fill="url(#paint38_linear_3033_498574)"/>
<path d="M112.211 413.579L98.812 396.689L130.213 370.099L148.826 378.617L112.211 413.579Z" fill="url(#paint39_linear_3033_498574)"/>
<path d="M127.653 422.919L114.267 406.029L143.891 382.531L164.282 387.958L127.653 422.919Z" fill="url(#paint40_linear_3033_498574)"/>
<path d="M21.8532 287.903L9.07764 271.782L235.748 93.7382C235.748 93.7382 239.171 92.146 244.146 97.6125C250.925 105.056 247.449 109.023 247.449 109.023L21.8532 287.903Z" fill="url(#paint41_linear_3033_498574)"/>
<path d="M35.7697 292.11L22.9941 276.002L271.753 80.4443L283.414 95.7424L35.7697 292.11Z" fill="url(#paint42_linear_3033_498574)"/>
<path d="M55.9348 276.97L43.1592 260.849L272.589 79.3424C272.589 79.3424 275.932 79.1567 280.602 85.1804C285.908 92.0399 285.152 95.1977 285.152 95.1977L55.9348 276.97Z" fill="url(#paint43_linear_3033_498574)"/>
<path d="M67.6622 293.914L54.8867 277.793L284.993 94.4814C284.993 94.4814 287.819 92.6902 292.953 98.0107C297.49 102.708 297.211 107.219 297.211 107.219L67.6622 293.914Z" fill="url(#paint44_linear_3033_498574)"/>
<path d="M134.936 377.184L118.486 360.175L346.112 175.868C346.112 175.868 350.158 177.328 351.458 179.968C353.62 184.333 353.196 188.022 353.196 188.022L134.936 377.184Z" fill="url(#paint45_linear_3033_498574)"/>
<path d="M81.592 308.269L68.8164 292.148L299.095 105.308C299.095 105.308 301.881 104.06 307.135 109.713C311.34 114.25 310.756 116.811 310.756 116.811L81.592 308.269Z" fill="url(#paint46_linear_3033_498574)"/>
<path d="M137.987 365.03L122.267 347.861L349.574 164.231C349.574 164.231 352.599 164.735 354.92 168.079C358.277 172.935 357.958 175.35 357.958 175.35L137.987 365.03Z" fill="url(#paint47_linear_3033_498574)"/>
<path d="M118.128 339.409L103.468 320.927L330.829 137.31C330.829 137.31 335.047 136.421 339.651 142.312C346.284 150.804 344.533 153.577 344.533 153.577L118.128 339.409Z" fill="url(#paint48_linear_3033_498574)"/>
<path d="M138.12 350.224L123.461 331.741L343.989 153.949C343.989 153.949 347.359 154.201 351.989 160.013C356.725 165.97 355.915 169.513 355.915 169.513L138.12 350.224Z" fill="url(#paint49_linear_3033_498574)"/>
<path d="M150.232 400.722L136.077 375.924L352.917 187.093C352.917 187.093 357.215 189.946 362.336 196.261C367.868 203.094 367.258 208.362 367.258 208.362L150.232 400.722Z" fill="url(#paint50_linear_3033_498574)"/>
<path d="M109.597 323.316L95.6938 305.776L323.85 122.093C323.85 122.093 328.255 120.593 332.633 125.861C338.603 133.039 334.888 136.595 334.888 136.595L109.597 323.316Z" fill="url(#paint51_linear_3033_498574)"/>
<path d="M102.845 304.116L88.9414 286.576L316.315 103.516C316.315 103.516 320.72 102.03 326.026 109.009C329.953 114.171 327.207 119.425 327.207 119.425L102.845 304.116Z" fill="url(#paint52_linear_3033_498574)"/>
<path d="M58.5434 372.627L37.0371 374.119L37.2207 376.766L58.727 375.274L58.5434 372.627Z" fill="#D9A6BB"/>
<path d="M86.8055 411.817L87.6808 390.274L85.0296 390.166L84.1543 411.71L86.8055 411.817Z" fill="#D9A6BB"/>
<path d="M126.815 414.499L121.208 393.68L118.646 394.371L124.253 415.189L126.815 414.499Z" fill="#D9A6BB"/>
<path d="M145.559 385.125L130.813 369.396L128.877 371.211L143.623 386.94L145.559 385.125Z" fill="#D9A6BB"/>
<path d="M131.892 335.332L111.34 328.816L110.739 330.714L131.29 337.229L131.892 335.332Z" fill="#D9A6BB"/>
<path d="M89.8915 285.674L77.0361 297.171L78.8048 299.149L91.6602 287.652L89.8915 285.674Z" fill="#D9A6BB"/>
<path d="M41.8696 264.748L43.063 281.955L45.71 281.771L44.5165 264.564L41.8696 264.748Z" fill="#D9A6BB"/>
<path d="M11.8936 285.567L23.6453 298.191L25.5872 296.383L13.8355 283.759L11.8936 285.567Z" fill="#D9A6BB"/>
<path d="M12.498 326.265L26.2175 336.718L27.8254 334.607L14.1059 324.154L12.498 326.265Z" fill="#D9A6BB"/>
<path d="M42.9152 376.138C45.6723 374.014 44.9639 368.471 41.3329 363.757C37.702 359.043 32.5235 356.944 29.7665 359.068C27.0094 361.193 27.7178 366.736 31.3487 371.45C34.9797 376.163 40.1582 378.263 42.9152 376.138Z" fill="#D9A6BB"/>
<path d="M38.5485 346.847C41.3056 344.723 40.5972 339.179 36.9662 334.466C33.3353 329.752 28.1568 327.653 25.3998 329.777C22.6427 331.901 23.3511 337.445 26.982 342.158C30.613 346.872 35.7914 348.971 38.5485 346.847Z" fill="#D9A6BB"/>
<path d="M62.6012 382.088C65.3582 379.964 64.6498 374.421 61.0189 369.707C57.388 364.994 52.2095 362.894 49.4525 365.019C46.6954 367.143 47.4038 372.686 51.0347 377.4C54.6657 382.114 59.8441 384.213 62.6012 382.088Z" fill="#D9A6BB"/>
<path d="M73.9615 397.266C76.7186 395.142 76.0102 389.599 72.3793 384.885C68.7483 380.172 63.5698 378.072 60.8128 380.197C58.0557 382.321 58.7641 387.864 62.3951 392.578C66.026 397.292 71.2045 399.391 73.9615 397.266Z" fill="#D9A6BB"/>
<path d="M85.4087 413.762C88.1658 411.637 87.4574 406.094 83.8265 401.38C80.1956 396.667 75.0171 394.568 72.26 396.692C69.503 398.816 70.2114 404.359 73.8423 409.073C77.4732 413.787 82.6517 415.886 85.4087 413.762Z" fill="#D9A6BB"/>
<path d="M96.3776 404.017C99.1347 401.892 98.4263 396.349 94.7953 391.635C91.1644 386.922 85.9859 384.823 83.2289 386.947C80.4718 389.071 81.1802 394.614 84.8111 399.328C88.4421 404.042 93.6205 406.141 96.3776 404.017Z" fill="#D9A6BB"/>
<path d="M112.018 413.904C114.775 411.78 114.067 406.237 110.436 401.523C106.805 396.809 101.627 394.71 98.8695 396.835C96.1124 398.959 96.8208 404.502 100.452 409.216C104.083 413.929 109.261 416.029 112.018 413.904Z" fill="#D9A6BB"/>
<path d="M127.288 423.154C130.045 421.029 129.336 415.486 125.705 410.772C122.074 406.059 116.896 403.96 114.139 406.084C111.382 408.208 112.09 413.751 115.721 418.465C119.352 423.179 124.531 425.278 127.288 423.154Z" fill="#D9A6BB"/>
<path d="M125.055 403.707C127.812 401.582 126.829 395.681 122.858 390.526C118.887 385.372 113.433 382.915 110.676 385.039C107.919 387.163 108.903 393.064 112.874 398.219C116.844 403.374 122.298 405.831 125.055 403.707Z" fill="#D9A6BB"/>
<path d="M137.258 402.189C140.015 400.065 139.031 394.164 135.06 389.009C131.089 383.854 125.635 381.397 122.878 383.522C120.121 385.646 121.105 391.547 125.076 396.702C129.047 401.856 134.501 404.313 137.258 402.189Z" fill="#D9A6BB"/>
<path d="M150.117 400.639C152.874 398.514 151.89 392.613 147.919 387.459C143.948 382.304 138.494 379.847 135.737 381.971C132.98 384.095 133.964 389.996 137.935 395.151C141.906 400.306 147.359 402.763 150.117 400.639Z" fill="#D9A6BB"/>
<path d="M134.757 377.073C137.3 374.697 135.762 368.916 131.32 364.161C126.879 359.405 121.217 357.476 118.674 359.852C116.13 362.228 117.669 368.009 122.11 372.764C126.551 377.52 132.213 379.449 134.757 377.073Z" fill="#D9A6BB"/>
<path d="M138.235 364.865C140.779 362.489 139.24 356.708 134.799 351.953C130.358 347.197 124.696 345.269 122.152 347.644C119.609 350.02 121.147 355.801 125.589 360.557C130.03 365.312 135.692 367.241 138.235 364.865Z" fill="#D9A6BB"/>
<path d="M141.687 352.328C144.231 349.952 142.692 344.171 138.251 339.416C133.81 334.661 128.148 332.732 125.605 335.108C123.061 337.483 124.6 343.264 129.041 348.02C133.482 352.775 139.144 354.704 141.687 352.328Z" fill="#D9A6BB"/>
<path d="M118.545 338.827C121.355 336.476 120.248 330.524 116.074 325.533C111.899 320.543 106.238 318.402 103.428 320.753C100.618 323.104 101.724 329.055 105.899 334.046C110.073 339.037 115.735 341.177 118.545 338.827Z" fill="#D9A6BB"/>
<path d="M111.402 322.043C114.212 319.692 113.105 313.74 108.931 308.75C104.757 303.759 99.0945 301.618 96.2847 303.969C93.4748 306.32 94.581 312.271 98.7554 317.262C102.93 322.253 108.592 324.394 111.402 322.043Z" fill="#D9A6BB"/>
<path d="M103.515 304.294C106.325 301.943 105.219 295.991 101.044 291.001C96.8702 286.01 91.2083 283.869 88.3984 286.22C85.5886 288.571 86.6948 294.522 90.8692 299.513C95.0436 304.504 100.705 306.644 103.515 304.294Z" fill="#D9A6BB"/>
<path d="M86.0726 306.837C88.8825 304.487 87.9211 298.708 83.9253 293.931C79.9295 289.153 74.4125 287.186 71.6027 289.537C68.7928 291.888 69.7542 297.666 73.75 302.444C77.7457 307.221 83.2628 309.188 86.0726 306.837Z" fill="#D9A6BB"/>
<path d="M71.0151 293.026C73.9323 290.809 73.2432 284.992 69.476 280.032C65.7088 275.072 60.29 272.848 57.3728 275.065C54.4556 277.281 55.1447 283.098 58.9119 288.058C62.6791 293.018 68.0979 295.242 71.0151 293.026Z" fill="#D9A6BB"/>
<path d="M56.3901 278.738C59.3073 276.522 58.6182 270.704 54.851 265.744C51.0838 260.784 45.665 258.56 42.7478 260.777C39.8306 262.993 40.5197 268.81 44.2869 273.77C48.0541 278.73 53.4729 280.954 56.3901 278.738Z" fill="#D9A6BB"/>
<path d="M51.6543 296.687C54.5715 294.47 53.8824 288.653 50.1152 283.693C46.348 278.733 40.9292 276.509 38.012 278.726C35.0948 280.942 35.7839 286.759 39.5511 291.719C43.3183 296.679 48.7371 298.903 51.6543 296.687Z" fill="#D9A6BB"/>
<path d="M37.438 293.026C40.3552 290.81 39.6661 284.992 35.8989 280.033C32.1317 275.073 26.7129 272.849 23.7957 275.065C20.8785 277.281 21.5676 283.099 25.3348 288.058C29.102 293.018 34.5208 295.242 37.438 293.026Z" fill="#D9A6BB"/>
<path d="M23.2138 289.355C26.1311 287.139 25.4419 281.321 21.6748 276.361C17.9076 271.402 12.4887 269.178 9.57156 271.394C6.65438 273.61 7.34346 279.428 11.1106 284.387C14.8778 289.347 20.2966 291.571 23.2138 289.355Z" fill="#D9A6BB"/>
<path d="M33.6975 312.994C36.5447 310.831 35.7987 305.056 32.0315 300.097C28.2643 295.137 22.9024 292.869 20.0552 295.033C17.208 297.196 17.9538 302.97 21.721 307.93C25.4882 312.89 30.8503 315.157 33.6975 312.994Z" fill="#D9A6BB"/>
<path d="M26.5583 320.47C29.4055 318.307 28.6596 312.533 24.8924 307.573C21.1252 302.613 15.7632 300.346 12.916 302.509C10.0688 304.672 10.8147 310.447 14.5819 315.406C18.3491 320.366 23.7111 322.633 26.5583 320.47Z" fill="#D9A6BB"/>
<path d="M18.7975 328.32C21.6447 326.157 20.8989 320.383 17.1317 315.423C13.3645 310.463 8.00243 308.196 5.15525 310.359C2.30808 312.522 3.05392 318.296 6.82113 323.256C10.5883 328.216 15.9504 330.483 18.7975 328.32Z" fill="#D9A6BB"/>
<path d="M17.2195 326.043C19.314 324.452 18.7593 320.195 15.9804 316.536C13.2015 312.878 9.25082 311.203 7.15628 312.794C5.06174 314.386 5.61649 318.64 8.39536 322.299C11.1743 325.958 15.1249 327.634 17.2195 326.043Z" fill="#B62B6C"/>
<path d="M24.3064 317.907C26.4009 316.315 25.8461 312.06 23.0673 308.401C20.2884 304.742 16.3377 303.066 14.2432 304.658C12.1486 306.249 12.7034 310.505 15.4823 314.163C18.2611 317.822 22.2118 319.498 24.3064 317.907Z" fill="#B62B6C"/>
<path d="M31.7902 310.742C33.8848 309.151 33.33 304.895 30.5511 301.236C27.7723 297.578 23.8216 295.902 21.7271 297.493C19.6325 299.084 20.1873 303.34 22.9661 306.999C25.745 310.657 29.6957 312.333 31.7902 310.742Z" fill="#B62B6C"/>
<path d="M21.8098 286.827C23.9044 285.236 23.3496 280.98 20.5707 277.321C17.7919 273.662 13.8412 271.987 11.7466 273.578C9.65207 275.169 10.2069 279.425 12.9857 283.084C15.7646 286.742 19.7153 288.418 21.8098 286.827Z" fill="#B62B6C"/>
<path d="M35.7229 290.842C37.8175 289.251 37.2627 284.995 34.4838 281.336C31.705 277.678 27.7543 276.002 25.6597 277.593C23.5652 279.184 24.12 283.44 26.8988 287.099C29.6777 290.757 33.6284 292.433 35.7229 290.842Z" fill="#B62B6C"/>
<path d="M49.9368 294.522C52.0314 292.931 51.4766 288.675 48.6977 285.016C45.9189 281.358 41.9682 279.682 39.8736 281.273C37.7791 282.864 38.3337 287.12 41.1126 290.779C43.8915 294.438 47.8423 296.113 49.9368 294.522Z" fill="#B62B6C"/>
<path d="M55.0124 276.539C57.107 274.948 56.5522 270.692 53.7733 267.033C50.9945 263.375 47.0438 261.699 44.9492 263.29C42.8547 264.881 43.4095 269.137 46.1883 272.796C48.9672 276.454 52.9179 278.13 55.0124 276.539Z" fill="#B62B6C"/>
<path d="M69.2742 290.513C71.3687 288.922 70.8139 284.666 68.035 281.007C65.2561 277.349 61.3055 275.673 59.211 277.264C57.1165 278.855 57.6712 283.111 60.4501 286.77C63.229 290.429 67.1796 292.104 69.2742 290.513Z" fill="#B62B6C"/>
<path d="M84.19 304.209C86.199 302.511 85.4241 298.29 82.4592 294.78C79.4943 291.271 75.4621 289.803 73.453 291.501C71.444 293.198 72.2188 297.42 75.1838 300.929C78.1487 304.438 82.1809 305.907 84.19 304.209Z" fill="#B62B6C"/>
<path d="M101.301 301.69C103.31 299.992 102.535 295.771 99.57 292.262C96.6051 288.753 92.5729 287.284 90.5638 288.982C88.5548 290.68 89.3297 294.901 92.2946 298.41C95.2595 301.92 99.2917 303.388 101.301 301.69Z" fill="#B62B6C"/>
<path d="M109.179 319.429C111.188 317.731 110.413 313.51 107.448 310.001C104.483 306.491 100.451 305.023 98.4418 306.721C96.4327 308.419 97.2075 312.64 100.173 316.149C103.137 319.658 107.17 321.127 109.179 319.429Z" fill="#B62B6C"/>
<path d="M116.659 336.198C118.668 334.5 117.893 330.279 114.928 326.77C111.963 323.26 107.931 321.792 105.922 323.49C103.913 325.187 104.688 329.409 107.653 332.918C110.618 336.427 114.65 337.896 116.659 336.198Z" fill="#B62B6C"/>
<path d="M40.2208 361.362C42.9778 359.238 42.2695 353.694 38.6386 348.981C35.0077 344.267 29.8291 342.168 27.072 344.292C24.315 346.416 25.0234 351.96 28.6543 356.673C32.2852 361.387 37.4637 363.486 40.2208 361.362Z" fill="#D9A6BB"/>
<path d="M138.918 350.935C140.927 349.237 139.918 344.739 136.665 340.888C133.411 337.038 129.145 335.292 127.136 336.99C125.127 338.688 126.136 343.186 129.389 347.037C132.643 350.887 136.909 352.633 138.918 350.935Z" fill="#B62B6C"/>
<path d="M135.768 363.117C137.777 361.419 136.768 356.921 133.515 353.071C130.262 349.22 125.996 347.475 123.987 349.172C121.978 350.87 122.986 355.368 126.24 359.219C129.493 363.07 133.759 364.815 135.768 363.117Z" fill="#B62B6C"/>
<path d="M133.312 375.585C135.321 373.887 134.312 369.389 131.059 365.539C127.805 361.688 123.539 359.943 121.53 361.641C119.521 363.338 120.53 367.836 123.783 371.687C127.036 375.538 131.303 377.283 133.312 375.585Z" fill="#B62B6C"/>
<path d="M148.529 398.472C150.538 396.774 149.529 392.276 146.276 388.426C143.022 384.575 138.756 382.83 136.747 384.528C134.738 386.225 135.747 390.723 139 394.574C142.254 398.425 146.52 400.17 148.529 398.472Z" fill="#B62B6C"/>
<path d="M135.982 399.678C137.991 397.98 136.982 393.482 133.729 389.631C130.476 385.781 126.21 384.036 124.201 385.733C122.192 387.431 123.2 391.929 126.454 395.78C129.707 399.631 133.973 401.376 135.982 399.678Z" fill="#B62B6C"/>
<path d="M123.88 402.414C125.967 400.812 125.171 396.272 122.103 392.272C119.034 388.272 114.855 386.327 112.768 387.929C110.681 389.53 111.477 394.071 114.545 398.07C117.614 402.07 121.793 404.015 123.88 402.414Z" fill="#B62B6C"/>
<path d="M126.226 421.864C128.312 420.263 127.517 415.722 124.448 411.722C121.38 407.722 117.201 405.778 115.114 407.379C113.027 408.981 113.823 413.521 116.891 417.521C119.959 421.521 124.139 423.466 126.226 421.864Z" fill="#B62B6C"/>
<path d="M110.957 412.617C113.044 411.016 112.248 406.475 109.18 402.475C106.111 398.475 101.932 396.531 99.8451 398.132C97.7582 399.734 98.5538 404.274 101.622 408.274C104.691 412.274 108.87 414.219 110.957 412.617Z" fill="#B62B6C"/>
<path d="M95.2901 402.4C97.377 400.799 96.5813 396.258 93.513 392.259C90.4446 388.259 86.2654 386.314 84.1785 387.915C82.0916 389.517 82.8872 394.057 85.9556 398.057C89.024 402.057 93.2031 404.002 95.2901 402.4Z" fill="#B62B6C"/>
<path d="M84.3487 412.475C86.4356 410.873 85.64 406.333 82.5716 402.333C79.5032 398.333 75.324 396.388 73.2371 397.99C71.1502 399.591 71.9459 404.132 75.0142 408.131C78.0826 412.131 82.2618 414.076 84.3487 412.475Z" fill="#B62B6C"/>
<path d="M61.2991 380.649C63.386 379.047 62.7277 374.686 59.8288 370.907C56.9299 367.128 52.8881 365.362 50.8012 366.964C48.7143 368.565 49.3725 372.927 52.2714 376.706C55.1703 380.485 59.2121 382.25 61.2991 380.649Z" fill="#B62B6C"/>
<path d="M38.548 359.284C40.6349 357.683 39.9767 353.321 37.0778 349.542C34.1789 345.763 30.1371 343.998 28.0502 345.599C25.9633 347.2 26.6215 351.562 29.5204 355.341C32.4193 359.12 36.4611 360.885 38.548 359.284Z" fill="#B62B6C"/>
<path d="M37.2047 344.743C39.2917 343.142 38.6334 338.781 35.7345 335.002C32.8356 331.223 28.7938 329.457 26.7069 331.059C24.62 332.66 25.2782 337.021 28.1771 340.8C31.076 344.579 35.1178 346.345 37.2047 344.743Z" fill="#B62B6C"/>
<path d="M72.6857 396.156C74.7726 394.554 74.1144 390.193 71.2155 386.414C68.3166 382.635 64.2748 380.869 62.1879 382.471C60.1009 384.072 60.7592 388.434 63.6581 392.213C66.557 395.992 70.5988 397.757 72.6857 396.156Z" fill="#B62B6C"/>
<path d="M41.614 374.7C43.7009 373.098 43.0426 368.737 40.1437 364.958C37.2448 361.179 33.203 359.413 31.1161 361.015C29.0292 362.616 29.6874 366.978 32.5863 370.757C35.4852 374.536 39.527 376.301 41.614 374.7Z" fill="#B62B6C"/>
<defs>
<linearGradient id="paint0_linear_3033_498574" x1="505.28" y1="143.483" x2="505.28" y2="170.941" gradientUnits="userSpaceOnUse">
<stop stop-color="#CC3779"/>
<stop offset="1" stop-color="#9A265A"/>
</linearGradient>
<linearGradient id="paint1_linear_3033_498574" x1="505.28" y1="143.483" x2="505.28" y2="170.941" gradientUnits="userSpaceOnUse">
<stop stop-color="#CC3779"/>
<stop offset="1" stop-color="#9A265A"/>
</linearGradient>
<linearGradient id="paint2_linear_3033_498574" x1="498.628" y1="152.409" x2="498.628" y2="183.3" gradientUnits="userSpaceOnUse">
<stop stop-color="#CC3779"/>
<stop offset="1" stop-color="#9A265A"/>
</linearGradient>
<linearGradient id="paint3_linear_3033_498574" x1="489.176" y1="149.422" x2="489.176" y2="180.313" gradientUnits="userSpaceOnUse">
<stop stop-color="#CC3779"/>
<stop offset="1" stop-color="#9A265A"/>
</linearGradient>
<linearGradient id="paint4_linear_3033_498574" x1="507.482" y1="174.765" x2="507.482" y2="190.211" gradientUnits="userSpaceOnUse">
<stop stop-color="#CC3779"/>
<stop offset="1" stop-color="#9A265A"/>
</linearGradient>
<linearGradient id="paint5_linear_3033_498574" x1="564.502" y1="118.306" x2="561.954" y2="106.25" gradientUnits="userSpaceOnUse">
<stop stop-color="#CC3779"/>
<stop offset="1" stop-color="#9A265A"/>
</linearGradient>
<linearGradient id="paint6_linear_3033_498574" x1="523.62" y1="53.9705" x2="523.62" y2="75.9372" gradientUnits="userSpaceOnUse">
<stop stop-color="#CC3779"/>
<stop offset="1" stop-color="#9A265A"/>
</linearGradient>
<linearGradient id="paint7_linear_3033_498574" x1="516.489" y1="69.8716" x2="516.489" y2="94.2409" gradientUnits="userSpaceOnUse">
<stop stop-color="#CC3779"/>
<stop offset="1" stop-color="#9A265A"/>
</linearGradient>
<linearGradient id="paint8_linear_3033_498574" x1="510.188" y1="86.0979" x2="510.188" y2="113.557" gradientUnits="userSpaceOnUse">
<stop stop-color="#CC3779"/>
<stop offset="1" stop-color="#9A265A"/>
</linearGradient>
<linearGradient id="paint9_linear_3033_498574" x1="515.717" y1="102.642" x2="515.717" y2="134.905" gradientUnits="userSpaceOnUse">
<stop stop-color="#CC3779"/>
<stop offset="1" stop-color="#9A265A"/>
</linearGradient>
<linearGradient id="paint10_linear_3033_498574" x1="507.252" y1="109.915" x2="507.252" y2="144.925" gradientUnits="userSpaceOnUse">
<stop stop-color="#CC3779"/>
<stop offset="1" stop-color="#9A265A"/>
</linearGradient>
<linearGradient id="paint11_linear_3033_498574" x1="502.442" y1="125.215" x2="502.442" y2="155.419" gradientUnits="userSpaceOnUse">
<stop stop-color="#CC3779"/>
<stop offset="1" stop-color="#9A265A"/>
</linearGradient>
<linearGradient id="paint12_linear_3033_498574" x1="505.379" y1="48.3289" x2="505.379" y2="70.6388" gradientUnits="userSpaceOnUse">
<stop stop-color="#CC3779"/>
<stop offset="1" stop-color="#9A265A"/>
</linearGradient>
<linearGradient id="paint13_linear_3033_498574" x1="522.957" y1="29.0896" x2="522.957" y2="51.3996" gradientUnits="userSpaceOnUse">
<stop stop-color="#CC3779"/>
<stop offset="1" stop-color="#9A265A"/>
</linearGradient>
<linearGradient id="paint14_linear_3033_498574" x1="517.153" y1="10.1824" x2="517.153" y2="32.4924" gradientUnits="userSpaceOnUse">
<stop stop-color="#CC3779"/>
<stop offset="1" stop-color="#9A265A"/>
</linearGradient>
<linearGradient id="paint15_linear_3033_498574" x1="424.899" y1="162.973" x2="424.899" y2="199.699" gradientUnits="userSpaceOnUse">
<stop stop-color="#CC3779"/>
<stop offset="1" stop-color="#9A265A"/>
</linearGradient>
<linearGradient id="paint16_linear_3033_498574" x1="416.773" y1="157.413" x2="416.773" y2="184.871" gradientUnits="userSpaceOnUse">
<stop stop-color="#CC3779"/>
<stop offset="1" stop-color="#9A265A"/>
</linearGradient>
<linearGradient id="paint17_linear_3033_498574" x1="388.084" y1="136.087" x2="388.084" y2="174.872" gradientUnits="userSpaceOnUse">
<stop stop-color="#CC3779"/>
<stop offset="1" stop-color="#9A265A"/>
</linearGradient>
<linearGradient id="paint18_linear_3033_498574" x1="390.175" y1="115.859" x2="390.175" y2="153.958" gradientUnits="userSpaceOnUse">
<stop stop-color="#CC3779"/>
<stop offset="1" stop-color="#9A265A"/>
</linearGradient>
<linearGradient id="paint19_linear_3033_498574" x1="339.405" y1="94.6305" x2="339.405" y2="132.729" gradientUnits="userSpaceOnUse">
<stop stop-color="#CC3779"/>
<stop offset="1" stop-color="#9A265A"/>
</linearGradient>
<linearGradient id="paint20_linear_3033_498574" x1="366.236" y1="22.7285" x2="366.236" y2="51.9031" gradientUnits="userSpaceOnUse">
<stop stop-color="#CC3779"/>
<stop offset="1" stop-color="#9A265A"/>
</linearGradient>
<linearGradient id="paint21_linear_3033_498574" x1="374.897" y1="0.808219" x2="374.897" y2="30.3513" gradientUnits="userSpaceOnUse">
<stop stop-color="#CC3779"/>
<stop offset="1" stop-color="#9A265A"/>
</linearGradient>
<linearGradient id="paint22_linear_3033_498574" x1="349.493" y1="24.7006" x2="349.493" y2="55.9345" gradientUnits="userSpaceOnUse">
<stop stop-color="#CC3779"/>
<stop offset="1" stop-color="#9A265A"/>
</linearGradient>
<linearGradient id="paint23_linear_3033_498574" x1="333.81" y1="27.9552" x2="333.81" y2="66.397" gradientUnits="userSpaceOnUse">
<stop stop-color="#CC3779"/>
<stop offset="1" stop-color="#9A265A"/>
</linearGradient>
<linearGradient id="paint24_linear_3033_498574" x1="471.432" y1="145.852" x2="471.432" y2="167.819" gradientUnits="userSpaceOnUse">
<stop stop-color="#CC3779"/>
<stop offset="1" stop-color="#9A265A"/>
</linearGradient>
<linearGradient id="paint25_linear_3033_498574" x1="341.53" y1="52.8657" x2="341.53" y2="87.532" gradientUnits="userSpaceOnUse">
<stop stop-color="#CC3779"/>
<stop offset="1" stop-color="#9A265A"/>
</linearGradient>
<linearGradient id="paint26_linear_3033_498574" x1="330.458" y1="63.1035" x2="330.458" y2="102.918" gradientUnits="userSpaceOnUse">
<stop stop-color="#CC3779"/>
<stop offset="1" stop-color="#9A265A"/>
</linearGradient>
<linearGradient id="paint27_linear_3033_498574" x1="320.406" y1="76.6744" x2="320.406" y2="119.581" gradientUnits="userSpaceOnUse">
<stop stop-color="#CC3779"/>
<stop offset="1" stop-color="#9A265A"/>
</linearGradient>
<linearGradient id="paint28_linear_3033_498574" x1="47.8944" y1="287.69" x2="72.2363" y2="318.387" gradientUnits="userSpaceOnUse">
<stop stop-color="#CA3879"/>
<stop offset="1" stop-color="#892450"/>
</linearGradient>
<linearGradient id="paint29_linear_3033_498574" x1="66.9934" y1="333.137" x2="91.8725" y2="364.511" gradientUnits="userSpaceOnUse">
<stop stop-color="#CA3879"/>
<stop offset="1" stop-color="#892450"/>
</linearGradient>
<linearGradient id="paint30_linear_3033_498574" x1="64.8251" y1="315.987" x2="83.4395" y2="339.461" gradientUnits="userSpaceOnUse">
<stop stop-color="#CA3879"/>
<stop offset="1" stop-color="#892450"/>
</linearGradient>
<linearGradient id="paint31_linear_3033_498574" x1="63.7518" y1="300.751" x2="82.3662" y2="324.225" gradientUnits="userSpaceOnUse">
<stop stop-color="#CA3879"/>
<stop offset="1" stop-color="#892450"/>
</linearGradient>
<linearGradient id="paint32_linear_3033_498574" x1="42.6186" y1="282.103" x2="62.6649" y2="307.383" gradientUnits="userSpaceOnUse">
<stop stop-color="#CA3879"/>
<stop offset="1" stop-color="#892450"/>
</linearGradient>
<linearGradient id="paint33_linear_3033_498574" x1="50.3706" y1="274.261" x2="70.4169" y2="299.541" gradientUnits="userSpaceOnUse">
<stop stop-color="#CA3879"/>
<stop offset="1" stop-color="#892450"/>
</linearGradient>
<linearGradient id="paint34_linear_3033_498574" x1="55.7204" y1="262.858" x2="80.0623" y2="293.555" gradientUnits="userSpaceOnUse">
<stop stop-color="#CA3879"/>
<stop offset="1" stop-color="#892450"/>
</linearGradient>
<linearGradient id="paint35_linear_3033_498574" x1="86.4381" y1="385.328" x2="106.198" y2="410.247" gradientUnits="userSpaceOnUse">
<stop stop-color="#CA3879"/>
<stop offset="1" stop-color="#892450"/>
</linearGradient>
<linearGradient id="paint36_linear_3033_498574" x1="100.117" y1="350.26" x2="119.018" y2="374.095" gradientUnits="userSpaceOnUse">
<stop stop-color="#CA3879"/>
<stop offset="1" stop-color="#892450"/>
</linearGradient>
<linearGradient id="paint37_linear_3033_498574" x1="87.5702" y1="335.233" x2="106.471" y2="359.068" gradientUnits="userSpaceOnUse">
<stop stop-color="#CA3879"/>
<stop offset="1" stop-color="#892450"/>
</linearGradient>
<linearGradient id="paint38_linear_3033_498574" x1="108.713" y1="367.242" x2="128.473" y2="392.16" gradientUnits="userSpaceOnUse">
<stop stop-color="#CA3879"/>
<stop offset="1" stop-color="#892450"/>
</linearGradient>
<linearGradient id="paint39_linear_3033_498574" x1="118.778" y1="381.273" x2="138.538" y2="406.191" gradientUnits="userSpaceOnUse">
<stop stop-color="#CA3879"/>
<stop offset="1" stop-color="#892450"/>
</linearGradient>
<linearGradient id="paint40_linear_3033_498574" x1="134.99" y1="391.578" x2="153.604" y2="415.052" gradientUnits="userSpaceOnUse">
<stop stop-color="#CA3879"/>
<stop offset="1" stop-color="#892450"/>
</linearGradient>
<linearGradient id="paint41_linear_3033_498574" x1="124.584" y1="182.086" x2="142.34" y2="204.476" gradientUnits="userSpaceOnUse">
<stop stop-color="#CA3879"/>
<stop offset="1" stop-color="#892450"/>
</linearGradient>
<linearGradient id="paint42_linear_3033_498574" x1="147.887" y1="178.848" x2="165.642" y2="201.238" gradientUnits="userSpaceOnUse">
<stop stop-color="#CA3879"/>
<stop offset="1" stop-color="#892450"/>
</linearGradient>
<linearGradient id="paint43_linear_3033_498574" x1="159.734" y1="170.299" x2="177.489" y2="192.69" gradientUnits="userSpaceOnUse">
<stop stop-color="#CA3879"/>
<stop offset="1" stop-color="#892450"/>
</linearGradient>
<linearGradient id="paint44_linear_3033_498574" x1="172.316" y1="185.783" x2="190.644" y2="208.896" gradientUnits="userSpaceOnUse">
<stop stop-color="#CA3879"/>
<stop offset="1" stop-color="#892450"/>
</linearGradient>
<linearGradient id="paint45_linear_3033_498574" x1="233.256" y1="267.791" x2="256.167" y2="296.683" gradientUnits="userSpaceOnUse">
<stop stop-color="#CA3879"/>
<stop offset="1" stop-color="#892450"/>
</linearGradient>
<linearGradient id="paint46_linear_3033_498574" x1="185.425" y1="197.643" x2="206.045" y2="223.645" gradientUnits="userSpaceOnUse">
<stop stop-color="#CA3879"/>
<stop offset="1" stop-color="#892450"/>
</linearGradient>
<linearGradient id="paint47_linear_3033_498574" x1="236.983" y1="255.885" x2="259.32" y2="284.053" gradientUnits="userSpaceOnUse">
<stop stop-color="#CA3879"/>
<stop offset="1" stop-color="#892450"/>
</linearGradient>
<linearGradient id="paint48_linear_3033_498574" x1="219.013" y1="228.371" x2="241.636" y2="256.902" gradientUnits="userSpaceOnUse">
<stop stop-color="#CA3879"/>
<stop offset="1" stop-color="#892450"/>
</linearGradient>
<linearGradient id="paint49_linear_3033_498574" x1="235.172" y1="242.62" x2="257.51" y2="270.789" gradientUnits="userSpaceOnUse">
<stop stop-color="#CA3879"/>
<stop offset="1" stop-color="#892450"/>
</linearGradient>
<linearGradient id="paint50_linear_3033_498574" x1="241.222" y1="279.472" x2="277.019" y2="324.614" gradientUnits="userSpaceOnUse">
<stop stop-color="#CA3879"/>
<stop offset="1" stop-color="#892450"/>
</linearGradient>
<linearGradient id="paint51_linear_3033_498574" x1="211.991" y1="213.045" x2="233.183" y2="239.769" gradientUnits="userSpaceOnUse">
<stop stop-color="#CA3879"/>
<stop offset="1" stop-color="#892450"/>
</linearGradient>
<linearGradient id="paint52_linear_3033_498574" x1="204.71" y1="194.265" x2="225.902" y2="220.989" gradientUnits="userSpaceOnUse">
<stop stop-color="#CA3879"/>
<stop offset="1" stop-color="#892450"/>
</linearGradient>
</defs>
</svg>
