<svg width="69" height="79" viewBox="0 0 69 79" fill="none" xmlns="http://www.w3.org/2000/svg">
<path d="M56.389 72.2053C64.5405 73.8941 68.9413 67.5995 67.876 62.2922C66.8107 56.9849 52.9162 49.8299 48.1955 39.118C43.4748 28.4061 49.6206 13.1313 49.5308 8.93753C49.4409 4.74373 46.2391 1.51835 41.8991 0.934257C36.965 0.270231 34.1479 2.35928 31.504 8.55138C28.8601 14.7435 28.6599 29.028 32.5214 41.0633C37.2095 55.6749 48.2374 70.5165 56.389 72.2053Z" fill="#E5231E"/>
<path d="M31.0015 9.59334C33.2408 9.43187 37.4315 9.23856 40.368 9.75656C43.1311 10.244 46.5986 11.6813 48.8997 12.737C49.2476 11.111 49.4823 9.80892 49.462 8.96036C49.4599 8.86962 49.4562 8.77933 49.4512 8.6895C47.144 7.67371 43.7598 6.30562 41.0774 5.72494C38.7282 5.21637 35.548 5.01538 33.2519 4.93652C32.6103 5.93479 32.0011 7.12976 31.4014 8.53732C31.261 8.86686 31.1276 9.21938 31.0015 9.59334Z" fill="#324B9A"/>
<path d="M29.6465 17.0762C31.4449 16.9218 36.5102 16.5711 39.9021 17.1694C42.2835 17.5895 45.1881 18.7151 47.4182 19.694C47.6784 18.3103 47.9602 16.9931 48.2292 15.774C45.9789 14.8095 43.0137 13.6579 40.6115 13.1379C37.1407 12.3865 31.8562 12.3065 30.2886 12.2998C29.9964 13.7321 29.7799 15.3401 29.6465 17.0762Z" fill="#324B9A"/>
</svg>
