<svg width="593" height="427" viewBox="0 0 593 427" fill="none" xmlns="http://www.w3.org/2000/svg">
<path d="M550 196.5C547.5 180.2 539.6 128.5 497.7 99.5003C457.8 71.8003 392.4 68.3003 348.2 91.6003C332.5 99.9003 315.3 113.7 291.3 110.7C275.8 108.7 268 101 256 93.7003C216 69.2003 158.1 66.3003 116.3 86.1003C110.7 88.8003 87.1 100.5 68.3 126.6C31.3 177.7 30.4 259 73.9 306.1C101.8 336.3 139.4 343.1 155.8 346.1C164.8 347.7 206.7 355.4 251 338.4C267.6 332 273.5 326.4 290 324.2C317.9 320.4 340 331.3 351 336C390.3 352.8 462.8 365.4 505.1 338.7C550.5 309.9 556.5 238.9 550 196.5Z" fill="#F8EFEF"/>
<path d="M550 196.5C547.5 180.2 539.6 128.5 497.7 99.5003C457.8 71.8003 392.4 68.3003 348.2 91.6003C332.5 99.9003 315.3 113.7 291.3 110.7C275.8 108.7 268 101 256 93.7003C216 69.2003 158.1 66.3003 116.3 86.1003C110.7 88.8003 87.1 100.5 68.3 126.6C31.3 177.7 30.4 259 73.9 306.1C101.8 336.3 139.4 343.1 155.8 346.1C164.8 347.7 206.7 355.4 251 338.4C267.6 332 273.5 326.4 290 324.2C317.9 320.4 340 331.3 351 336C390.3 352.8 462.8 365.4 505.1 338.7C550.5 309.9 556.5 238.9 550 196.5Z" fill="url(#paint0_linear_4377_288652)"/>
<path d="M550 196.5C547.5 180.2 539.6 128.5 497.7 99.5003C457.8 71.8003 392.4 68.3003 348.2 91.6003C332.5 99.9003 315.3 113.7 291.3 110.7C275.8 108.7 268 101 256 93.7003C216 69.2003 158.1 66.3003 116.3 86.1003C110.7 88.8003 87.1 100.5 68.3 126.6C31.3 177.7 30.4 259 73.9 306.1C101.8 336.3 139.4 343.1 155.8 346.1C164.8 347.7 206.7 355.4 251 338.4C267.6 332 273.5 326.4 290 324.2C317.9 320.4 340 331.3 351 336C390.3 352.8 462.8 365.4 505.1 338.7C550.5 309.9 556.5 238.9 550 196.5Z" stroke="#7B4E4B" stroke-width="1.4936" stroke-miterlimit="10"/>
<defs>
<linearGradient id="paint0_linear_4377_288652" x1="296.539" y1="73.0547" x2="296.539" y2="354.146" gradientUnits="userSpaceOnUse">
<stop stop-color="#F9F1F1"/>
<stop offset="1" stop-color="#FEF3E6"/>
</linearGradient>
</defs>
</svg>
