<svg width="433" height="385" viewBox="0 0 433 385" fill="none" xmlns="http://www.w3.org/2000/svg">
<path d="M65.1454 55.4556C95.5918 29.3158 125.638 19.5008 145.167 13.2913C238.309 -16.2537 318.532 14.393 342.668 24.0077C361.397 31.419 374.417 36.7271 388.138 49.4464C420.086 78.8913 425.194 119.653 430.502 161.617C434.208 191.363 430.903 219.706 424.293 276.392C421.789 298.126 418.885 315.452 406.466 332.378C395.649 347.1 381.728 355.713 367.006 362.524C307.214 390.066 237.208 385.258 201.053 380.852C139.759 373.44 109.112 369.735 82.6721 352.308C12.4651 305.737 -18.7826 200.076 13.4666 123.86C28.9903 87.0037 57.1332 62.3661 65.1454 55.4556Z" fill="#F9F1F1"/>
<path d="M65.1454 55.4556C95.5918 29.3158 125.638 19.5008 145.167 13.2913C238.309 -16.2537 318.532 14.393 342.668 24.0077C361.397 31.419 374.417 36.7271 388.138 49.4464C420.086 78.8913 425.194 119.653 430.502 161.617C434.208 191.363 430.903 219.706 424.293 276.392C421.789 298.126 418.885 315.452 406.466 332.378C395.649 347.1 381.728 355.713 367.006 362.524C307.214 390.066 237.208 385.258 201.053 380.852C139.759 373.44 109.112 369.735 82.6721 352.308C12.4651 305.737 -18.7826 200.076 13.4666 123.86C28.9903 87.0037 57.1332 62.3661 65.1454 55.4556Z" fill="url(#paint0_linear_3819:257631)"/>
<path d="M65.1454 55.4556C95.5918 29.3158 125.638 19.5008 145.167 13.2913C238.309 -16.2537 318.532 14.393 342.668 24.0077C361.397 31.419 374.417 36.7271 388.138 49.4464C420.086 78.8913 425.194 119.653 430.502 161.617C434.208 191.363 430.903 219.706 424.293 276.392C421.789 298.126 418.885 315.452 406.466 332.378C395.649 347.1 381.728 355.713 367.006 362.524C307.214 390.066 237.208 385.258 201.053 380.852C139.759 373.44 109.112 369.735 82.6721 352.308C12.4651 305.737 -18.7826 200.076 13.4666 123.86C28.9903 87.0037 57.1332 62.3661 65.1454 55.4556Z" stroke="#7B4E4C" stroke-width="1.4936" stroke-miterlimit="10"/>
<defs>
<linearGradient id="paint0_linear_3819:257631" x1="216.398" y1="0.747966" x2="216.398" y2="384.252" gradientUnits="userSpaceOnUse">
<stop stop-color="#E7D2D2"/>
<stop offset="1" stop-color="#FEF3E6"/>
</linearGradient>
</defs>
</svg>
