<svg width="593" height="427" viewBox="0 0 593 427" fill="none" xmlns="http://www.w3.org/2000/svg">
<path d="M143.8 74.8C174.2 48.7 204.2 38.9 223.7 32.7C316.7 3.20002 396.8 33.8 420.9 43.4C439.6 50.8 452.6 56.1 466.3 68.8C498.2 98.2 503.3 138.9 508.6 180.8C512.3 210.5 509 238.8 502.4 295.4C499.9 317.1 497 334.4 484.6 351.3C473.8 366 459.9 374.6 445.2 381.4C385.5 408.9 315.6 404.1 279.5 399.7C218.3 392.3 187.7 388.6 161.3 371.2C91.2005 324.7 60.0005 219.2 92.2005 143.1C107.7 106.3 135.8 81.7 143.8 74.8Z" fill="#F9F1F1"/>
<path d="M143.8 74.8C174.2 48.7 204.2 38.9 223.7 32.7C316.7 3.20002 396.8 33.8 420.9 43.4C439.6 50.8 452.6 56.1 466.3 68.8C498.2 98.2 503.3 138.9 508.6 180.8C512.3 210.5 509 238.8 502.4 295.4C499.9 317.1 497 334.4 484.6 351.3C473.8 366 459.9 374.6 445.2 381.4C385.5 408.9 315.6 404.1 279.5 399.7C218.3 392.3 187.7 388.6 161.3 371.2C91.2005 324.7 60.0005 219.2 92.2005 143.1C107.7 106.3 135.8 81.7 143.8 74.8Z" fill="url(#paint0_linear_4377_288651)"/>
<path d="M143.8 74.8C174.2 48.7 204.2 38.9 223.7 32.7C316.7 3.20002 396.8 33.8 420.9 43.4C439.6 50.8 452.6 56.1 466.3 68.8C498.2 98.2 503.3 138.9 508.6 180.8C512.3 210.5 509 238.8 502.4 295.4C499.9 317.1 497 334.4 484.6 351.3C473.8 366 459.9 374.6 445.2 381.4C385.5 408.9 315.6 404.1 279.5 399.7C218.3 392.3 187.7 388.6 161.3 371.2C91.2005 324.7 60.0005 219.2 92.2005 143.1C107.7 106.3 135.8 81.7 143.8 74.8Z" stroke="#7B4E4C" stroke-width="1.4936" stroke-miterlimit="10"/>
<defs>
<linearGradient id="paint0_linear_4377_288651" x1="294.822" y1="20.1758" x2="294.822" y2="403.095" gradientUnits="userSpaceOnUse">
<stop stop-color="#F9F1F1"/>
<stop offset="1" stop-color="#FEF3E6"/>
</linearGradient>
</defs>
</svg>
