<svg width="68" height="83" viewBox="0 0 68 83" fill="none" xmlns="http://www.w3.org/2000/svg">
<path d="M63.4175 79.5165C53.9175 87.6165 31.7175 78.4165 14.3175 57.6165C-3.08248 36.8165 -7.38247 -11.2835 17.1175 2.41654C30.5175 9.91654 29.7175 30.8165 41.7175 41.7165C67.4175 65.1165 72.9175 71.5165 63.4175 79.5165Z" fill="#E59161"/>
<path opacity="0.3608" d="M54.9174 79.3162C54.1174 77.9162 53.7175 75.3162 53.1175 73.3162C52.8175 72.2162 52.0174 70.8162 50.9174 71.1162C50.1174 71.3162 49.7175 72.4162 50.1175 73.3162C50.4175 74.1162 51.1175 74.8162 51.6175 75.5162C52.1175 76.2162 52.6174 77.1162 52.4174 77.9162C52.2174 78.6162 51.5175 79.1162 50.8175 79.3162C50.1175 79.4162 49.3175 79.3162 48.6175 79.0162C46.9175 78.4162 45.1175 77.0162 45.3175 75.3162C45.4175 74.4162 46.0175 73.6162 46.6175 72.9162C47.1175 72.2162 47.7175 71.3162 47.5175 70.4162C47.4175 69.5162 46.3175 68.7162 45.5175 69.2162C45.2175 70.5162 45.0175 71.9162 44.7175 73.2162C44.3175 74.5162 43.6174 75.8162 42.4174 76.3162C41.2174 76.9162 39.5175 76.4162 39.0175 75.2162C38.7175 74.4162 38.9174 73.4162 39.4174 72.7162C39.9174 72.0162 40.5175 71.4162 41.1175 70.7162C43.7175 67.9162 45.5175 60.7162 44.2175 60.7162C43.2175 60.7162 41.9175 64.8162 40.8175 67.3162C39.7175 69.8162 37.9175 72.3162 35.2175 72.7162C34.3175 72.9162 33.3175 72.7162 32.5175 72.2162C31.7175 71.7162 31.2174 70.7162 31.4174 69.8162C31.7174 68.5162 33.1175 67.8162 34.2175 67.1162C35.3175 66.4162 36.4175 65.0162 35.7175 63.8162C34.1175 64.3162 33.0175 65.7162 31.7175 66.8162C30.4175 67.9162 28.5175 68.7162 27.1175 67.8162C25.9175 67.0162 25.6175 65.2162 26.1175 63.9162C26.6175 62.5162 27.7175 61.5162 28.8175 60.5162C30.5175 58.9162 32.2174 57.3162 33.9174 55.7162C34.7174 54.9162 35.6174 53.7162 34.9174 52.8162C34.5174 52.2162 33.5174 52.2162 32.9174 52.5162C32.3174 52.9162 31.8174 53.5162 31.4174 54.1162C29.8174 56.3162 28.0175 58.5162 26.2175 60.5162C25.2175 61.6162 23.9174 62.7162 22.4174 62.5162C20.8174 62.2162 19.8175 60.4162 19.7175 58.7162C19.5175 55.7162 20.9174 52.9162 22.9174 50.7162C24.9174 48.5162 27.4174 47.0162 29.9174 45.4162C29.5174 44.9162 28.8175 44.7162 28.1175 44.8162C27.5175 44.9162 26.9174 45.3162 26.4174 45.7162C24.2174 47.4162 22.1175 49.3162 20.2175 51.4162C19.5175 52.2162 18.8175 53.1162 17.8175 53.6162C16.8175 54.1162 15.5175 54.1162 14.8175 53.3162C14.0175 52.5162 14.1175 51.0162 14.7175 50.1162C15.3175 49.1162 16.3175 48.5162 17.3175 47.9162C18.3175 47.3162 19.3175 46.6162 19.8175 45.6162C20.1175 45.1162 20.1175 44.4162 19.7175 44.2162C19.5175 44.1162 19.2175 44.2162 18.9175 44.3162C16.6175 45.3162 15.4175 48.6162 12.9175 48.6162C11.7175 48.6162 10.5175 47.8162 10.1175 46.6162C9.71746 45.4162 10.2175 44.1162 11.3175 43.4162C12.3175 42.8162 13.6175 42.9162 14.7175 42.5162C15.8175 42.1162 16.8175 40.7162 16.1175 39.8162C15.6175 39.1162 14.6175 39.1162 13.8175 39.5162C13.1175 39.9162 12.5175 40.5162 11.8175 41.0162C10.8175 41.7162 9.51746 42.0162 8.41746 41.4162C7.31746 40.8162 6.71747 39.3162 6.71747 38.5162C6.71747 37.6162 6.81746 36.6162 7.31746 36.2162C7.81746 35.7162 8.51747 35.6162 9.21747 35.5162C12.2175 34.8162 15.0175 33.3162 17.1175 31.1162C17.5175 30.7162 17.9175 30.1162 18.0175 29.5162C18.1175 28.9162 17.7175 28.2162 17.1175 28.1162C16.7175 28.0162 16.2175 28.2162 15.9175 28.5162C14.4175 30.3162 12.7175 31.4162 10.9175 32.6162C9.91746 33.3162 7.51746 34.5162 6.41746 34.1162C4.01746 33.3162 3.91747 29.4162 4.21747 28.8162C4.61747 28.2162 5.21746 27.8162 5.91746 27.5162C6.81746 27.1162 7.81747 26.6162 8.71747 26.2162C9.11747 26.0162 9.51746 25.8162 9.81746 25.4162C10.1175 25.0162 10.2175 24.5162 10.0175 24.1162C9.61745 23.5162 8.81747 23.7162 8.21747 23.9162C7.11747 24.4162 6.01746 25.1162 5.11746 26.0162C4.91746 26.2162 4.61746 26.5162 4.31746 26.5162C4.01746 26.5162 3.71746 26.2162 3.61746 25.9162C2.81746 24.4162 3.01746 22.4162 4.11746 21.2162C4.91746 20.2162 6.11747 19.7162 7.21747 19.1162C8.31747 18.5162 9.51745 17.8162 10.0175 16.6162C10.2175 16.2162 10.3175 15.7162 10.1175 15.2162C10.0175 14.7162 9.51746 14.4162 9.11746 14.4162C8.51746 14.4162 8.11746 15.0162 7.81746 15.4162C7.21746 16.1162 6.51747 16.7162 5.71747 17.2162C5.21747 17.4162 4.61746 17.6162 4.11746 17.4162C3.51746 17.1162 3.41746 16.3162 3.41746 15.6162C3.31746 13.6162 3.51746 11.5162 4.11746 9.61621C4.71746 7.71621 5.81746 5.8162 7.41746 4.7162C9.01746 3.5162 11.2175 3.11621 13.1175 3.91621C13.8175 4.21621 14.5175 4.71621 14.5175 5.41621C14.5175 6.11621 14.0175 6.61621 13.5175 7.11621C9.51745 10.3162 10.1175 10.3162 10.1175 10.7162C10.1175 11.1162 12.5175 10.4162 13.4175 9.8162C14.4175 9.1162 15.1175 8.2162 16.1175 7.5162C17.1175 6.9162 18.6175 6.71621 19.4175 7.61621C20.4175 7.91621 21.1175 9.01621 21.1175 10.1162C21.1175 11.2162 20.6175 12.2162 19.9175 13.0162C19.2175 13.8162 18.3175 14.4162 17.5175 15.1162C15.9175 16.5162 14.5175 18.0162 13.3175 19.8162C13.1175 20.1162 12.9175 20.3162 12.9175 20.7162C12.9175 21.0162 13.0175 21.4162 13.3175 21.5162C13.6175 21.6162 13.9175 21.4162 14.2175 21.3162C15.7175 20.3162 16.8175 18.8162 18.1175 17.6162C19.4175 16.3162 20.9175 15.1162 22.7175 15.0162C24.5175 14.9162 26.5175 16.2162 26.6175 18.0162C26.7175 19.3162 25.7175 20.5162 24.6175 21.2162C23.5175 21.9162 22.2175 22.2162 21.0175 22.6162C20.4175 22.8162 19.7175 23.1162 19.3175 23.7162C18.9175 24.2162 18.9175 25.1162 19.4175 25.5162C20.0175 26.0162 20.9175 25.7162 21.6175 25.3162C22.6175 24.7162 23.6175 24.0162 24.7175 23.6162C25.8175 23.2162 27.2175 23.2162 28.1175 23.9162C28.9175 24.5162 29.3175 25.6162 29.3175 26.6162C29.4175 28.8162 28.0175 30.8162 26.3175 32.2162C24.6175 33.5162 22.5175 34.3162 20.5175 35.1162C19.8175 35.4162 19.1175 35.7162 18.7175 36.2162C18.3175 36.8162 18.4175 37.8162 19.0175 38.1162C19.6175 38.4162 20.3174 38.0162 20.9174 37.6162C22.6174 36.4162 24.2174 35.2162 25.9174 34.0162C26.7174 33.4162 27.6175 32.8162 28.5175 32.5162C29.5175 32.2162 30.6175 32.1162 31.5175 32.7162C32.6175 33.4162 33.1175 34.8162 32.8175 36.1162C32.5175 37.4162 31.7175 38.4162 30.6175 39.1162C29.5175 39.8162 28.3175 40.2162 27.1175 40.6162C26.4175 40.8162 25.6175 41.0162 25.2175 41.6162C24.7175 42.2162 24.7175 43.2162 25.3175 43.5162C25.9175 43.8162 26.6175 43.5162 27.2175 43.2162C28.1175 42.7162 29.0174 42.1162 29.9174 41.6162C30.9174 41.0162 34.4174 38.8162 36.4174 40.9162C37.2174 41.7162 37.5175 43.2162 36.7175 44.1162C34.7175 45.7162 32.8175 47.4162 30.8175 49.0162C28.9175 50.6162 26.8175 52.4162 26.7175 54.9162C26.7175 55.4162 26.8174 56.1162 27.4174 56.2162C27.9174 56.3162 28.3175 55.9162 28.5175 55.5162C30.4175 53.0162 32.5175 50.7162 34.8175 48.5162C35.9175 47.5162 37.1175 46.4162 38.6175 46.2162C39.9175 46.0162 41.3174 46.4162 42.4174 47.1162C43.5174 47.8162 44.5175 48.8162 45.5175 49.7162C46.0175 50.2162 46.5175 50.8162 46.5175 51.5162C46.4175 52.2162 45.8175 52.7162 45.1175 53.2162C42.2175 55.1162 39.4175 57.3162 36.7175 59.7162C36.4175 60.0162 36.1175 60.2162 36.0175 60.6162C35.9175 61.0162 35.9175 61.5162 36.3175 61.7162C36.8175 62.0162 37.4175 61.6162 37.8175 61.3162C39.6175 59.8162 41.2175 58.1162 43.2175 56.8162C45.2175 55.5162 47.5175 54.7162 49.8175 55.1162C52.6175 55.6162 54.7175 57.8162 56.7175 59.9162C57.1175 60.3162 57.6175 60.9162 57.6175 61.5162C57.6175 62.4162 56.5175 62.9162 55.6175 63.2162C54.1175 63.7162 52.6175 64.2162 51.1175 64.6162C50.5175 64.8162 50.0175 65.0162 49.6175 65.4162C49.2175 65.8162 49.0174 66.5162 49.4174 67.0162C49.9174 67.7162 51.0175 67.3162 51.7175 66.9162C53.2175 66.1162 54.7175 65.4162 56.3175 64.9162C57.9175 64.4162 59.8175 64.0162 61.3175 64.8162C63.1175 65.8162 63.8175 67.9162 64.3175 69.9162C64.5175 70.9162 64.7175 72.2162 63.8175 72.6162C63.1175 72.9162 62.3175 72.3162 61.6175 71.8162C60.1175 70.7162 58.2175 70.1162 56.3175 70.1162C55.9175 70.1162 55.5175 70.2162 55.3175 70.5162C55.1175 70.8162 55.3175 71.3162 55.6175 71.5162C55.9175 71.7162 56.3175 71.9162 56.6175 71.9162C58.2175 72.4162 59.7175 73.0162 61.2175 73.7162C61.8175 74.0162 62.4174 74.4162 62.9174 74.9162C63.3174 75.4162 63.6174 76.2162 63.4174 76.8162C63.2174 77.4162 62.7175 77.8162 62.2175 78.1162C59.5175 78.8162 55.3174 80.1162 54.9174 79.3162Z" fill="#FBDED3"/>
<path d="M57.3175 75.1169C57.5175 75.5169 58.0175 75.7169 58.4175 75.5169C58.8175 75.3169 59.0175 74.8169 58.8175 74.4169C58.6175 74.0169 58.1175 73.8169 57.7175 74.0169C57.3175 74.2169 57.1175 74.7169 57.3175 75.1169Z" fill="#AB2B2B"/>
<path d="M47.7174 59.1169C47.9174 59.5169 48.4174 59.7169 48.8174 59.5169C49.2174 59.3169 49.4174 58.8169 49.2174 58.4169C49.0174 58.0169 48.5174 57.8169 48.1174 58.0169C47.6174 58.2169 47.5174 58.7169 47.7174 59.1169Z" fill="#AB2B2B"/>
<path d="M38.4176 64.3162C38.6176 64.7162 39.1176 64.9162 39.5176 64.7162C39.9176 64.5162 40.1176 64.0162 39.9176 63.6162C39.7176 63.2162 39.2176 63.0162 38.8176 63.2162C38.4176 63.4162 38.2176 63.9162 38.4176 64.3162Z" fill="#AB2B2B"/>
<path d="M29.4176 63.5164C29.6176 63.9164 30.1176 64.1164 30.5176 63.9164C30.9176 63.7164 31.1176 63.2163 30.9176 62.8163C30.7176 62.4163 30.2176 62.2164 29.8176 62.4164C29.4176 62.6164 29.2176 63.1164 29.4176 63.5164Z" fill="#AB2B2B"/>
<path d="M22.6175 58.6169C22.8175 59.0169 23.3175 59.2169 23.7175 59.0169C24.1175 58.8169 24.3175 58.3169 24.1175 57.9169C23.9175 57.5169 23.4175 57.3169 23.0175 57.5169C22.6175 57.7169 22.4175 58.2169 22.6175 58.6169Z" fill="#AB2B2B"/>
<path d="M32.0175 42.7165C32.2175 43.1165 32.7175 43.3165 33.1175 43.1165C33.5175 42.9165 33.7175 42.4165 33.5175 42.0165C33.3175 41.6165 32.8175 41.4165 32.4175 41.6165C31.9175 41.8165 31.8175 42.3165 32.0175 42.7165Z" fill="#AB2B2B"/>
<path d="M20.7174 42.0163C20.9174 42.4163 21.4174 42.6164 21.8174 42.4164C22.2174 42.2164 22.4174 41.7163 22.2174 41.3163C22.0174 40.9163 21.5174 40.7164 21.1174 40.9164C20.6174 41.1164 20.5174 41.6163 20.7174 42.0163Z" fill="#AB2B2B"/>
<path d="M9.21743 37.5163C9.41743 37.9163 9.91742 38.1164 10.3174 37.9164C10.7174 37.7164 10.9174 37.2163 10.7174 36.8163C10.5174 36.4163 10.0174 36.2164 9.61742 36.4164C9.11742 36.6164 9.01743 37.1163 9.21743 37.5163Z" fill="#AB2B2B"/>
<path d="M8.21762 30.3162C8.41762 30.7162 8.91761 30.9162 9.31761 30.7162C9.71761 30.5162 9.91762 30.0162 9.71762 29.6162C9.51762 29.2162 9.01762 29.0162 8.61762 29.2162C8.21762 29.4162 8.01762 29.9162 8.21762 30.3162Z" fill="#AB2B2B"/>
<path d="M21.9176 16.7165C22.1176 17.1165 22.6176 17.3165 23.0176 17.1165C23.4176 16.9165 23.6176 16.4165 23.4176 16.0165C23.2176 15.6165 22.7176 15.4165 22.3176 15.6165C21.8176 15.8165 21.7176 16.3165 21.9176 16.7165Z" fill="#AB2B2B"/>
<path d="M23.6174 34.9168C23.6174 35.0168 23.6174 35.0168 23.6174 35.1168C23.5174 35.6168 23.5174 36.3168 24.0174 36.6168C24.2174 36.8168 24.6175 36.8168 24.8175 36.6168C24.9175 36.5168 24.9174 36.5168 24.9174 36.4168C24.9174 36.3168 25.0174 36.2168 25.1174 36.1168C25.2174 36.0168 25.3174 35.9168 25.4174 35.8168C25.4174 35.7168 25.5174 35.7168 25.5174 35.6168C25.7174 35.7168 25.9174 35.8168 26.2174 35.8168C26.4174 35.8168 26.6174 35.7168 26.7174 35.7168C26.7174 35.7168 26.8174 35.7168 26.9174 35.6168C27.0174 35.5168 27.0174 35.3168 27.1174 35.2168C27.3174 35.3168 27.5174 35.2168 27.6174 35.4168C27.6174 35.5168 27.6175 35.7168 27.8175 35.8168C28.1175 35.9168 28.4174 35.8168 28.6174 35.8168V35.9168C28.6174 36.0168 28.7175 36.0168 28.8175 36.0168C29.0175 36.0168 29.2175 36.1168 29.3175 36.1168C29.6175 36.0168 29.8174 35.9168 30.1174 35.8168C30.2174 35.9168 30.4174 36.0168 30.4174 36.2168C30.4174 36.6168 29.8174 36.7168 29.5174 36.7168C29.3174 36.7168 28.9174 36.7168 28.7174 36.6168C28.6174 36.6168 28.5174 36.5168 28.4174 36.5168C28.1174 36.4168 27.7174 36.3168 27.4174 36.3168C27.1174 36.2168 26.8174 36.3168 26.5174 36.2168C26.3174 36.2168 26.1174 36.2168 25.9174 36.3168C25.7174 36.4168 25.6174 36.5168 25.5174 36.7168C25.3174 37.0168 25.7174 37.3168 25.9174 37.4168C26.6174 37.9168 27.6174 37.8168 28.5174 37.8168C27.6174 37.7168 26.9174 37.8168 26.1174 37.4168C25.9174 37.3168 25.5174 36.9168 25.7174 36.6168C25.8174 36.5168 26.0174 36.3168 26.1174 36.2168C26.3174 36.1168 26.4174 36.2168 26.6174 36.2168C27.1174 36.2168 27.3174 36.2168 27.9174 36.4168C28.2174 36.5168 28.8174 36.6168 29.0174 36.6168C29.3174 36.6168 29.6174 36.7168 30.0174 36.6168C30.2174 36.6168 30.8174 36.4168 30.6174 36.0168C30.5174 35.9168 30.4174 35.7168 30.2174 35.7168C29.8174 35.6168 29.4174 35.8168 29.1174 36.0168C29.0174 36.0168 29.0174 36.0168 28.9174 36.0168C28.8174 36.0168 28.7174 35.9168 28.7174 35.8168C28.4174 35.7168 28.1174 35.8168 27.9174 35.8168C27.8174 35.8168 27.8175 35.7168 27.8175 35.7168C27.7175 35.6168 27.8174 35.5168 27.7174 35.4168C27.6174 35.3168 27.5174 35.3168 27.4174 35.3168C27.3174 35.3168 27.3174 35.3168 27.2174 35.3168C27.2174 35.3168 27.1174 35.3168 27.1174 35.2168C27.1174 35.2168 27.1174 35.2168 27.0174 35.1168C27.1174 35.0168 27.2174 35.0168 27.4174 34.9168C27.4174 34.9168 27.4174 34.9168 27.5174 34.9168C27.6174 34.9168 27.6174 34.9168 27.7174 34.9168C27.9174 34.7168 28.0174 34.7168 28.2174 34.6168C28.3174 34.6168 28.3174 34.5168 28.4174 34.5168C28.5174 34.6168 28.6174 34.6168 28.7174 34.6168C28.9174 34.6168 29.1175 34.5168 29.3175 34.5168C29.5175 34.6168 29.7174 34.6168 29.9174 34.6168C30.2174 34.6168 30.5175 34.5168 30.8175 34.5168C30.9175 34.5168 31.0174 34.6168 31.0174 34.6168C31.2174 34.9168 31.4174 35.3168 31.4174 35.7168C31.3174 35.8168 31.1174 35.9168 30.9174 36.0168C30.7174 35.9168 30.6174 35.6168 30.4174 35.4168C30.3174 35.2168 30.1174 35.0168 29.9174 34.9168H30.0174C30.2174 35.0168 30.2174 35.3168 30.5174 35.4168C30.6174 35.5168 30.6175 35.7168 30.8175 35.8168C30.9175 35.8168 31.0174 35.9168 31.2174 35.8168C31.4174 35.7168 31.5174 35.6168 31.7174 35.5168C31.8174 35.3168 31.7174 35.1168 31.6174 35.0168C31.5174 34.8168 31.4174 34.5168 31.2174 34.4168C31.0174 34.3168 30.8174 34.2168 30.6174 34.3168C30.3174 34.3168 30.0174 34.3168 29.7174 34.4168C29.7174 34.4168 29.5174 34.4168 29.4174 34.3168C29.3174 34.3168 29.1174 34.3168 29.0174 34.3168C28.9174 34.3168 28.7174 34.3168 28.6174 34.4168C28.6174 34.4168 28.6174 34.4168 28.6174 34.3168H28.5174C28.3174 34.3168 28.2174 34.4168 28.0174 34.5168C27.8174 34.6168 27.6174 34.6168 27.5174 34.8168C27.5174 34.8168 27.5174 34.8168 27.4174 34.8168H27.3175C27.2175 34.8168 27.1174 34.9168 27.0174 34.9168C27.0174 34.9168 26.9174 34.9168 26.9174 35.0168C26.8174 35.0168 26.7174 34.9168 26.5174 34.9168C26.2174 34.9168 25.9174 34.9168 25.5174 35.1168C25.4174 35.1168 25.4175 35.2168 25.3175 35.3168C25.2175 35.0168 25.0174 34.9168 24.7174 34.8168C24.6174 34.7168 24.5174 34.6168 24.4174 34.6168C24.2174 34.5168 24.0175 34.5168 23.8175 34.6168C23.8175 34.8168 23.7174 34.8168 23.6174 34.9168ZM25.7174 35.3168C26.0174 35.1168 26.3174 35.1168 26.6174 35.1168C26.7174 35.1168 26.7174 35.1168 26.9174 35.2168C26.8174 35.3168 26.8174 35.4168 26.7174 35.5168C26.7174 35.6168 26.7174 35.7168 26.6174 35.7168C26.5174 35.7168 26.5174 35.7168 26.4174 35.8168C26.3174 35.8168 26.1174 35.9168 26.0174 35.9168C25.8174 35.8168 25.6174 35.8168 25.4174 35.6168C25.5174 35.4168 25.6174 35.4168 25.7174 35.3168ZM24.5174 34.8168C24.7174 34.9168 25.0174 35.0168 25.1174 35.3168C25.1174 35.4168 25.2174 35.4168 25.2174 35.5168C25.1174 35.6168 25.1174 35.6168 25.1174 35.7168C25.0174 35.9168 24.9175 35.9168 24.8175 36.0168C24.7175 36.1168 24.7174 36.2168 24.6174 36.4168C24.6174 36.5168 24.6174 36.6168 24.5174 36.7168C24.5174 36.8168 24.4175 36.8168 24.3175 36.8168C24.3175 36.8168 24.3174 36.8168 24.2174 36.8168C23.7174 36.5168 23.6174 35.9168 23.7174 35.4168C23.7174 35.3168 23.7175 35.1168 23.8175 35.0168C23.9175 34.9168 24.0174 34.8168 24.1174 34.7168C24.2174 34.7168 24.4174 34.7168 24.5174 34.8168Z" fill="#AB2B2B"/>
</svg>
