<svg width="593" height="427" viewBox="0 0 593 427" fill="none" xmlns="http://www.w3.org/2000/svg">
<mask id="mask0_4377_288654" style="mask-type:alpha" maskUnits="userSpaceOnUse" x="40" y="72" width="512" height="282">
<path d="M549.2 196.2C546.7 179.9 538.8 128.2 496.9 99.1998C457 71.4998 391.6 67.8998 347.4 91.1998C331.7 99.4998 314.5 113.3 290.5 110.2C274.9 108.2 267.1 100.6 255.3 93.0998C215.4 68.5998 157.4 65.6998 115.6 85.5998C109.9 88.2998 86.3998 99.8998 67.4998 126.1C30.4998 177.3 29.6998 258.5 73.1998 305.6C101.1 335.8 138.7 342.7 155.2 345.6C164.2 347.2 206.1 354.9 250.4 337.9C267 331.5 272.9 325.9 289.5 323.7C317.4 319.9 339.4 330.7 350.4 335.4C389.7 352.2 462.1 364.8 504.5 338.1C549.7 309.6 555.6 238.6 549.2 196.2Z" fill="#F8EFEF"/>
</mask>
<g mask="url(#mask0_4377_288654)">
<path d="M542 225.9C542.1 225.5 542.1 225.5 542.2 225C548.3 221.8 558.9 214.8 559.9 217.4C562 213 561.9 211.7 561.4 211.2C560.4 210.4 557.8 212.7 553.5 214.9C549.4 216.9 545 218.9 543.1 218.9C546.1 210.1 558.2 180.7 559.2 181C560.1 181.4 558.1 177.6 558.3 174.7C558.4 174.3 542 214.2 537.3 217.9C531.2 218.3 515.8 215.2 506.9 212.6C506.8 212.2 506.8 212 506.7 211.6C505.6 207.9 504.6 204.5 503.5 201.4C503.5 200.8 503.6 200 503.9 199.5C504.5 198.4 505.3 197.6 506.1 196.8C507.3 195.5 508.6 194 509.7 192.3C509.9 191.9 510.1 191.5 510.3 191C510.4 190.9 510.4 190.6 510.3 190.5V190.4C510.3 187.9 509.4 158.1 510.3 154.7C510.9 152 511.9 145.2 513 143.7C518.4 145 552.1 166.3 558 174V171.9C558 171 558 166.9 556.9 167.2C556 167.6 521.2 143.7 513 136.8C513.1 136.5 513.1 136.3 513 136C512.9 135.4 512.9 134.9 512.9 134.2C519.8 131.2 546.8 119.4 548.3 119.4C549.3 119.4 544.7 110.6 544.7 113.8C544.7 116.5 520.1 128.8 510.6 130.2C510.2 129.8 509.9 129.4 509.5 129.1C508.4 127.7 506.9 126.2 505.3 124.6C498.9 117.3 491.3 107.7 491.6 105.4C491.7 105.3 491.7 105.1 491.7 105.1C493.3 102.2 508.4 86.7001 508.4 85.4001C508.4 84.1001 503.5 83.3001 503.8 84.5001C504 85.5001 492.8 99.0001 486.7 103.7C485.8 104.3 486 104.5 485.2 104.5C485 104.5 484.3 104.8 484.1 104.1C481.9 99.4001 473.1 80.2001 472.9 79.5001C472.7 78.6001 463.9 79.5001 466.8 79.5001C469 79.5001 478.4 98.4001 482.9 109.3C483 109.7 483 110.2 483 110.7C483.1 111.1 482.9 112.1 482.6 112.3C470.6 123.5 444.8 144.6 440.8 143.9C439.4 127.1 439.9 84.3001 440.6 78.0001C436 77.6001 432.9 72.4001 435.7 78.0001C437.6 81.8001 438 122.8 437.1 144.1C425.9 135.8 414.6 127.3 407.1 121.6C404.5 118.9 399.4 112.9 399.4 110.2C399.4 107.5 407.1 87.6001 411.4 77.9001C409.7 77.3001 407.9 76.4001 407.6 77.0001C407 77.9001 399.2 106.8 397 107.3C395.3 107.7 393.8 105.4 393.2 104.4C394.9 95.8001 397.2 78.7001 397.8 78.0001C398.7 77.1001 394 76.4001 394 77.1001C394 78.0001 391.8 100.2 390.8 102.2C389.7 104.3 371.8 106.2 371.5 104.6C371.3 103 371.6 81.3001 373.1 79.2001C374.6 77.1001 367.8 78.3001 368 79.2001C368.2 80.1001 371.2 101.3 369.6 106.1C368.5 109.5 365 104 361.7 103.2C360.3 96.0001 357.7 81.6001 358.5 80.6001C359.4 79.3001 354.4 80.2001 354.4 81.0001C354.4 81.8001 359.6 103.2 359.3 105.7C359.2 106.2 361.3 107.6 364.5 109.5C365.7 110.3 366.2 112.7 365.2 114.2C356.7 129.2 342.2 144.5 341.2 141C340.1 137.2 345.8 85.6001 346.6 82.7001C347 81.3001 344.6 82.1001 343 82.7001C343.6 84.8001 340 138.1 336 141C333.2 143.1 310.9 89.8001 312.5 86.0001C310.5 86.4001 306.8 87.4001 308.1 88.1001C309 88.6001 317 106.5 323.8 122.6C321.7 127.6 313.9 139.4 311.6 140.4C311.2 140.5 311 140.7 310.7 140.8C306.5 139.8 302.2 136.6 299.6 131.6C297.9 126.8 292.9 94.1001 293.7 89.7001C293.9 88.6001 288 91.7001 289.1 92.6001C292.3 95.5001 298.2 130.3 298 132.9C297.1 141 287.4 146.2 283.9 144.6C283.9 144.6 281.3 143.6 279 133.2C279 133.2 279 133.3 279 133.5C279 130.7 279.1 127.8 279.1 124.7C278.7 124.3 278.4 123.9 278 123.6C276.9 122.2 275.4 120.7 273.8 119.1C267.4 111.8 259.8 102.2 260.1 99.9001C260.2 99.8001 260.2 99.6001 260.2 99.6001C261.8 96.7001 276.9 81.2001 276.9 79.9001C276.9 78.6001 272 77.8001 272.3 79.0001C272.5 80.0001 261.3 93.5001 255.2 98.2001C254.3 98.8001 254.5 99.0001 253.7 99.0001C253.5 99.0001 252.8 99.3001 252.6 98.6001C250.4 93.9001 241.6 74.7001 241.4 74.0001C241.2 73.1001 232.4 74.0001 235.3 74.0001C237.5 74.0001 246.9 92.9001 251.4 103.8C251.5 104.2 251.5 104.7 251.5 105.2C251.6 105.6 251.4 106.6 251.1 106.8C239.1 118 213.3 139.1 209.3 138.4C207.9 121.6 208.4 78.8001 209.1 72.5001C204.5 72.1001 201.4 66.9001 204.2 72.5001C206.1 76.3001 206.5 117.3 205.6 138.6C194.4 130.3 183.1 121.8 175.6 116.1C173 113.4 167.9 107.4 167.9 104.7C167.9 102 175.6 82.1001 179.9 72.4001C178.2 71.8001 176.4 70.9001 176.1 71.5001C175.5 72.4001 167.7 101.3 165.5 101.8C163.8 102.2 162.3 99.9001 161.7 98.9001C163.4 90.3001 165.7 73.2001 166.3 72.5001C167.2 71.6001 162.5 70.9001 162.5 71.6001C162.5 72.5001 160.3 94.7001 159.3 96.7001C158.2 98.8001 140.3 100.7 140 99.1001C139.8 97.5001 140.1 75.8001 141.6 73.7001C143.1 71.6001 136.3 72.8001 136.5 73.7001C136.7 74.6001 139.7 95.8001 138.1 100.6C137 104 133.5 98.5001 130.2 97.7001C128.8 90.5001 126.2 76.1001 127 75.1001C127.9 73.8001 122.9 74.7001 122.9 75.5001C122.9 76.3001 128.1 97.7001 127.8 100.2C127.7 100.7 129.8 102.1 133 104C134.2 104.8 134.7 107.2 133.7 108.7C125.2 123.7 110.7 139 109.7 135.5C108.6 131.7 114.3 80.1001 115.1 77.2001C115.5 75.8001 113.1 76.6001 111.5 77.2001C112.1 79.3001 108.5 132.6 104.5 135.5C101.7 137.6 79.3998 84.3001 80.9998 80.5001C78.9998 80.9001 75.2998 81.9001 76.5998 82.6001C77.4998 83.1001 85.4998 101 92.2998 117.1C90.1998 122.1 82.3998 133.9 80.0998 134.9C79.6998 135 79.4998 135.2 79.1998 135.3C74.9998 134.3 70.6998 131.1 68.0998 126.1C66.3998 121.3 61.3998 88.6001 62.1998 84.2001C62.3998 83.1001 56.4998 86.2001 57.5998 87.1001C60.7998 90.0001 66.6998 124.8 66.4998 127.4C66.0998 129.9 53.7998 139.1 52.3998 139.1C50.9998 139.1 41.7998 126.5 40.8998 126.5C39.9998 126.5 38.9998 130.3 40.1998 129.9C41.0998 129.5 47.9998 138.7 51.3998 143.4C48.6998 148.6 42.6998 158.8 40.7998 158.4C38.7998 158 34.4998 155.5 32.5998 154.2C30.0998 156.6 27.1998 158.9 30.3998 158.9C33.5998 158.9 50.0998 165 58.6998 171.6C59.7998 172.5 71.6998 183.5 75.7998 189.9C54.9998 197.1 35.0998 213.9 17.0998 221.8C13.8998 223.2 15.3998 223.2 16.1998 229.9C21.5998 224.9 30.8998 218.5 36.9998 215.3C38.1998 216.1 62.0998 247.4 65.8998 251.8C63.7998 261.3 64.2998 272.8 60.6998 278.1C58.5998 281.3 58.7998 281.9 54.3998 281.9C51.6998 281.9 28.3998 282 22.7998 275.3C22.1998 274.5 25.0998 281.6 26.5998 284.1L53.8998 287.5C58.0998 290 67.4998 279.3 65.5998 301C65.0998 307.1 62.3998 327 58.9998 328.8C57.7998 329.4 63.8998 333 63.5998 330.9C62.8998 325.2 65.1998 312.1 67.2998 305.2C67.8998 303.4 69.1998 300.2 69.8998 299.6C72.0998 298.5 76.0998 294.3 78.3998 296.9C82.4998 301.4 84.6998 319.4 84.7998 320.6C84.9998 323 87.9998 332 85.8998 337L89.4998 336.1C87.5998 333.2 82.0998 293.7 82.0998 289.9C82.0998 287.5 85.2998 278.5 88.8998 268.9C110.4 274.7 145.4 283.2 148.9 286.8V286.9C148.9 287.2 149 287.3 149 287.5C135.5 307.3 115.4 337.9 110.6 340.1C108.9 341 117.6 344.1 117.6 341.7C117.6 332 150.6 291 152.2 289.7C153.6 292.2 151.1 338.4 151.1 346.7L155.7 346.3C154.1 343.4 154.1 291.3 156.6 288C156.6 287.4 156.5 286.6 156.5 285.9C158.7 282.5 170.3 275.4 177.3 273.7L175.9 271.2L154.6 279.5C154.1 261.3 154.5 241.6 156.2 235.8C166.6 255.5 194 300.5 194.6 305.1C194.7 305.7 194.8 306.1 195 306.4C194.9 312.6 194.8 318.6 194.6 324.8H194.5C194.4 336.8 194.1 348 193.5 348.8C192.9 349.6 195.1 350.1 197.2 350.3C196.3 343 196.3 332.6 197.4 325.2C197.5 324.7 197.8 324.2 197.8 323.6C199 311 199.8 311.1 204.7 310.1C205.8 309.8 206.9 309.6 207.8 309.2C207.9 309.2 208.2 309.1 208.5 309.1C210.5 308.1 210.7 309 211.3 310C211.9 310.9 212.2 312.4 212.3 313.7C212.7 317.4 212.8 320 212.8 323.7C212.7 324.1 212.7 324.5 212.7 324.6C212 333.3 211.5 341.9 211.3 350.6H211.7C210.5 351.2 214.4 350.9 216.6 350.6C215.9 343.9 214.7 330.4 215.5 328.1H215.6V328V327.9C215.6 327.9 215.6 327.8 215.5 327.8C214.8 320.6 215.4 313.7 216.4 306.7C216.5 306.6 216.6 306.6 216.8 306.6C217.4 306.5 217.9 306.6 218.4 306.9C218.5 307 218.8 307 218.9 307.2C219.1 307.3 219.5 307.6 219.8 307.7C220.4 308.1 220.9 308.3 221.5 308.6C223.5 309.7 225.5 311.3 227.3 313.1C225.3 321.8 224 330.8 223.2 340C223.1 340.6 223.1 351.6 223.2 352.2C223.4 352.8 223.7 352.6 225.5 353.8C224 344.1 225.1 331.8 226.9 321.9C227.3 320.1 228.9 316.7 229.7 314.7C232 316.6 234.1 319.4 236 322.3C237.6 324.4 239.2 326.8 240.4 329.6C242.7 335.3 247.8 348.2 250 356.5C251.6 353 252.1 355.6 252.6 352.3C248.9 345.7 240.6 326 236.9 319.5C235.4 316.8 233.9 314.2 232 312.2C231.8 311.9 231.5 311.7 231.3 311.6C231.7 311.1 232 310.6 232.4 310.1C235.6 305.6 240.1 303.8 241.3 303.2C252.7 297.6 262.4 289.2 272.9 282.3C272.9 282.3 260.2 342.1 260 346.4C260 346.7 260 347.4 260.4 347.7C260.8 348 261.6 347.7 263.2 346.9C263.3 346.4 276.4 297.6 276.4 297.6L278.7 288.3L276.6 251.2C276.6 251.2 288.2 221.7 293.2 220.8C293.3 220.8 296.3 220.3 296.3 220.3L300.9 223.2C300.9 223.2 300.9 223.1 300.9 222.9C297.2 241.2 296.7 251.7 297.3 258.2C298.4 262.1 298.8 266.7 295.4 279C294.5 282.4 291.6 292.5 292.4 289.2L278.6 288.4C278.6 288.4 277.6 292.1 276.3 297.7C283.8 292.5 291.1 290.9 294.7 293.9C296.7 295.5 297.5 299.6 296.9 307.3C296.4 313.4 293.7 333.3 290.3 335.1C289.1 335.7 295.2 339.3 294.9 337.2C294.2 331.5 296.5 318.4 298.6 311.5C299.2 309.7 300.5 306.5 301.2 305.9C303.4 304.8 307.4 300.6 309.7 303.2C313.8 307.7 316 325.7 316.1 326.9C316.3 329.3 319.3 338.3 317.2 343.3L320.8 342.4C318.9 339.5 313.4 300 313.4 296.2C313.4 293.8 316.6 284.8 320.2 275.2C341.7 281 376.7 289.5 380.2 293.1V293.2C380.2 293.5 380.3 293.6 380.3 293.8C366.8 313.6 346.7 344.2 341.9 346.4C340.2 347.3 348.9 350.4 348.9 348C348.9 338.3 381.9 297.3 383.5 296C384.9 298.5 382.4 344.7 382.4 353L387 352.6C385.4 349.7 385.4 297.6 387.9 294.3C387.9 293.7 387.8 292.9 387.8 292.2C390 288.8 401.6 281.7 408.6 280L407.2 277.5L385.9 285.8C385.4 267.6 385.8 247.9 387.5 242.1C397.9 261.8 425.3 306.8 425.9 311.4C426 312 426.1 312.4 426.3 312.7C426.2 318.9 426.1 324.9 425.9 331.1H425.8C425.7 343.1 425.4 354.3 424.8 355.1C424.2 355.9 426.4 356.4 428.5 356.6C427.6 349.3 427.6 338.9 428.7 331.5C428.8 331 429.1 330.5 429.1 329.9C430.3 317.3 431.1 317.4 436 316.4C437.1 316.1 438.2 315.9 439.1 315.5C439.2 315.5 439.5 315.4 439.8 315.4C441.8 314.4 442 315.3 442.6 316.3C443.2 317.2 443.5 318.7 443.6 320C444 323.7 444.1 326.3 444.1 330C444 330.4 444 330.8 444 330.9C443.3 339.6 442.8 348.2 442.6 356.9H443C441.8 357.5 445.7 357.2 447.9 356.9C447.2 350.2 446 336.7 446.8 334.4H446.9V334.3V334.2C446.9 334.2 446.9 334.1 446.8 334.1C446.1 326.9 446.7 320 447.7 313C447.8 312.9 447.9 312.9 448.1 312.9C448.7 312.8 449.2 312.9 449.7 313.2C449.8 313.3 450.1 313.3 450.2 313.5C450.4 313.6 450.8 313.9 451.1 314C451.7 314.4 452.2 314.6 452.8 314.9C454.8 316 456.8 317.6 458.6 319.4C456.6 328.1 455.3 337.1 454.5 346.3C454.4 346.9 454.4 357.9 454.5 358.5C454.7 359.1 455 358.9 456.8 360.1C455.3 350.4 456.4 338.1 458.2 328.2C458.6 326.4 460.2 323 461 321C463.3 322.9 465.4 325.7 467.3 328.6C468.9 330.7 470.5 333.1 471.7 335.9C474 341.6 479.1 354.5 481.3 362.8C482.9 359.3 483.4 361.9 483.9 358.6C480.2 352 471.9 332.3 468.2 325.8C466.7 323.1 465.2 320.5 463.3 318.5C463.1 318.2 462.8 318 462.6 317.9C463 317.4 463.3 316.9 463.7 316.4C466.3 314.3 477.4 305.2 486.1 301C487.7 303.9 491 345 491.5 352.6C491.6 354.4 492.1 354.2 494.7 353C493.6 349.6 487.3 303.5 490.1 299.4C497.5 294.7 510.9 288 516.3 286.4C520 290.4 528.3 294.9 531 298.6C533.2 301.5 543.2 315.5 546.6 323.3C547.7 320.4 548.8 319 547.7 318.6C546.6 318.2 534.7 299 528.9 289.2C526.9 285.4 524.5 278.7 530.3 276.6C531.4 276.2 553.2 288 555.1 289.2C556.3 290.1 554.2 285.4 555.3 285.8C554.4 285.4 528.8 275.1 530.9 269.4C532 266.2 555.5 272.3 556.9 273.6C558.1 274.7 558 265.5 556.9 267.8C556 269.4 535.4 266.9 530.2 264.4C529.2 262 527.9 255.3 530.2 247.6C531.2 244.4 534.8 238.8 538.9 230.1C545.5 236.7 558.6 247.6 558.8 247.6C559 247.6 560.7 242.9 560.2 241.8C560 240.8 543.3 227.6 542 225.9ZM489.5 115.2C492.3 116.6 496.5 119.7 502.2 126.1C504.2 128.8 506.3 131.9 508.4 135.6C507.3 140.8 506.7 153.6 506.7 159.2C506.7 164.5 506.9 185.8 505.8 191.5L500.5 193.4C500.3 193.3 499.9 193.3 499.4 193.1C496.2 192.7 486.9 180.9 482.7 175.1C481.5 173 486.9 125.2 489.5 115.2ZM482.7 181.1C484.6 182.1 492.6 190.7 496.7 195.1C498.4 198.4 499.9 202.2 500.9 206.1C501.3 208 501.6 210 502.3 211.8C502.4 212.1 502.4 212.3 502.5 212.4C498.4 213 497.4 215.4 494.1 215.8C493 215.9 491.8 215.9 490.6 215.2C489.5 214.4 488.6 212.8 488 211C487.6 209.6 487.6 208.1 487 206.5C484.7 197.6 480.7 180.1 482.7 181.1ZM484.3 208.7C484.2 209.3 484.1 210.3 483.9 211.9C483.5 215.4 482.3 218.5 481.6 221.7C480.7 225.1 480.1 228.5 479.1 231.9C478.7 233.2 478.5 234 478.2 234.8C478.1 235.2 478 235.9 478 236.8C478 241.5 470.6 254.7 467 260.8C468.1 251.8 470.7 231.4 471.2 228.5C473.4 216 479.4 185.2 480.2 187.7C481.3 191 483.9 206.8 484.3 208.7ZM484.3 117.6C484.7 117.7 484.9 117.6 485.3 117.5C485.7 126.7 481 163.8 478.1 171.8C475.4 171.8 461.3 162.1 444.2 149.7C456 138.8 480.6 116.9 484.3 117.6ZM442.9 151.4C456.6 161.4 470.1 171.8 474.5 178C474.6 179.3 474.1 180.7 473.5 181.8C472.8 183.3 471.6 184.3 470.7 185.3C464.6 190.9 457.7 194 450.8 194.6V194.5C448.9 195.4 447.3 193.5 446.6 190.7C446 188.3 446.7 186 446 184C446 183.9 446 183.9 445.9 183.7C442.7 172 442.1 163.8 441.3 154.2C441.2 153.9 442 152.7 442.9 151.4ZM408.4 127.5C408.5 127.5 421.6 136 436.2 146.3C436.8 148.1 437.3 150.6 437.4 151.6C437.8 153 437.8 154.5 438 156.1C438.5 163.4 439.1 170.9 439.9 178.3C440.3 181.3 440.5 182.8 440.8 183.5C440.9 186.2 441.2 188.2 439.8 189.6C439.3 190 438.7 190.4 438.2 190.5C437.6 189.9 436.8 189.4 436.1 188.9C436 188.8 436 188.5 436 188.4C436 188.5 435.9 188.7 435.9 188.8C433.9 187.5 414.6 179.1 404.3 174.8C396.6 171.4 388.5 168.7 380.6 169.1C380.8 168.1 381 167.2 381.1 167C393.8 140.1 395.6 136.7 401.1 128.3C403.7 124 407.7 127.5 408.4 127.5ZM370.5 113C373.5 106.4 381 105.8 388.4 105.8C391.1 105.8 396.1 112.5 397.1 113.5C398.7 114.9 401.3 119.6 400.3 124C400.1 124.9 398 128.7 397.6 129.6C392.9 140.3 384.4 155.5 378.3 165.6C377.7 166.5 377.4 166.2 376.7 166.7C376.5 166.8 375.2 167.3 374.5 167.3C367.8 166.7 350 153.5 342 147.1C348.8 139.3 363.9 121 370.5 113ZM338.7 150.4C338.8 150.3 339.1 150 339.4 149.8L373.1 171C373.1 171 374.1 172.4 374.3 172.6C374.7 173 375.2 174.4 375.9 177.4C378.9 191.2 384.1 225.7 382 230.9C376.4 226.7 317 193.9 317 192.3C317.1 190.7 336.5 151.7 338.7 150.4ZM380.4 238.2C380.8 241.9 344.4 234 336.9 232.6C336.8 232.5 336.5 232.5 336.3 232.5L323.6 221.3C323 220.4 322.6 219.7 322.2 218.8C320.6 212 316.9 201.6 316.8 199.4C326.2 196.7 370.3 228.3 380.4 238.2ZM313.1 145.7C313.1 145.6 313.1 145.6 313.1 145.6C313.1 145.6 313.1 145.6 313 145.6C312.9 144.5 312.5 143.6 313.1 142.1C315.2 140 323.1 126.8 325.3 126.4C329.9 137.1 333.3 146 333.7 147C334.8 150.4 315.5 191.2 314.9 186.9C314.3 183.7 312.2 158.5 313 147.1C313.1 147 313.1 146.7 313.1 146.6C313.2 146.4 313.2 146.1 313.1 145.7ZM284.7 152.2C285.4 149.4 287.2 147.5 288.5 146.4C290 145.8 292.5 144.4 294.7 141.9C296.4 139.9 297.4 137.9 297.9 136.5C298.1 136.4 298.5 136.5 298.8 136.6C299.4 136.7 300 137.2 300.5 137.7C302.5 139.3 304.5 141 306.3 142.5C307.3 143.4 308.3 144.1 309 145.4C309.6 146.7 310 148.3 310.1 149.9C310.1 150.3 310.2 150.8 310.2 151.4C310.8 158.7 310.6 164.1 310.6 167.8C310.2 180 310.2 191.4 310.2 191.4L307.2 193.3C307.2 193.3 301.6 187.6 297.9 183C294.7 179 292.3 174 287.5 164.3C284.9 158.2 283.9 155.4 284.7 152.2ZM257.6 109.6C260.4 111 264.6 114.1 270.3 120.5C272.3 123.2 274.4 126.3 276.5 130C275.4 135.2 274.8 148 274.8 153.6C274.8 158.9 275 180.2 273.9 185.9L268.6 187.8C268.4 187.7 268 187.7 267.5 187.5C264.3 187.1 255 175.3 250.8 169.5C249.6 167.3 255 119.5 257.6 109.6ZM211.1 205.5C211.1 205.4 211.1 205.4 211.1 205.4C211.5 202 212.3 200.1 213.9 198.8C214.1 198.7 214.5 198.4 214.6 198C214.6 198.1 214.6 198.1 214.7 198.3C215.6 196.8 216.9 195.6 218.7 194.6C218.8 194.6 218.8 194.6 218.8 194.6V194.5C222.3 192.6 226.8 191.6 229.6 190.5C233.6 189 237.6 187.6 240.7 183.4C241.9 181.8 242.9 179.7 244.3 178.4C243.4 194.6 233.1 239.1 228 256.8C227.5 257.4 216.9 260.2 207.6 262.7C209.5 250.1 210.6 237.3 211.1 224.3C211.2 219.6 211.3 215.1 211.5 210.5C211.3 209.2 211.1 206.9 211.1 205.5ZM239.4 222.8C241.6 210.3 247.6 179.5 248.4 182C249.5 185.3 252.1 201.1 252.5 203C252.4 203.6 252.3 204.6 252.1 206.2C251.7 209.7 250.5 212.8 249.8 216C248.9 219.4 248.3 222.8 247.3 226.2C246.9 227.5 246.7 228.3 246.4 229.1C246.3 229.5 246.2 230.2 246.2 231.1C246.2 235.8 238.8 249 235.2 255.1C236.2 246.2 238.8 225.9 239.4 222.8ZM250.8 175.4C252.7 176.4 260.7 185 264.8 189.4C266.5 192.7 268 196.5 269 200.4C269.4 202.3 269.7 204.3 270.4 206.1C270.5 206.4 270.5 206.6 270.6 206.7C266.5 207.3 265.5 209.7 262.2 210.1C261.1 210.2 259.9 210.2 258.7 209.5C257.6 208.7 256.7 207.1 256.1 205.3C255.7 203.9 255.7 202.4 255.1 200.8C252.8 191.9 248.8 174.4 250.8 175.4ZM252.4 111.9C252.8 112 253 111.9 253.4 111.8C253.8 121 249.1 158.1 246.2 166.1C243.5 166.1 229.4 156.4 212.3 144C224.1 133.1 248.7 111.3 252.4 111.9ZM211 145.7C224.7 155.7 238.2 166.1 242.6 172.3C242.7 173.6 242.2 175 241.6 176.1C240.9 177.6 239.7 178.6 238.8 179.6C232.7 185.2 225.8 188.3 218.9 188.9V188.8C217 189.7 215.4 187.8 214.7 185C214.1 182.6 214.8 180.3 214.1 178.3C214.1 178.2 214.1 178.2 214 178C210.8 166.3 210.2 158.1 209.4 148.5C209.3 148.2 210.2 147 211 145.7ZM176.5 121.9C176.6 121.9 189.7 130.4 204.3 140.7C204.9 142.5 205.4 145 205.5 146C205.9 147.4 205.9 148.9 206.1 150.5C206.6 157.8 207.2 165.3 208 172.7C208.4 175.7 208.6 177.2 208.9 177.9C209 180.6 209.3 182.6 207.9 184C207.4 184.4 206.8 184.8 206.3 184.9C205.7 184.3 204.9 183.8 204.2 183.3C204.1 183.2 204.1 182.9 204.1 182.8C204.1 182.9 204 183.1 204 183.2C202 181.9 182.7 173.5 172.4 169.2C164.7 165.8 156.6 163.1 148.7 163.5C148.9 162.5 149.1 161.6 149.2 161.4C161.9 134.5 163.7 131.1 169.2 122.7C171.8 118.3 175.8 121.9 176.5 121.9ZM138.6 107.4C141.6 100.8 149.1 100.2 156.5 100.2C159.2 100.2 164.2 106.9 165.2 107.9C166.8 109.3 169.4 114 168.4 118.4C168.2 119.3 166.1 123.1 165.7 124C161 134.7 152.5 149.9 146.4 160C145.8 160.9 145.5 160.6 144.8 161.1C144.6 161.2 143.3 161.7 142.6 161.7C135.9 161.1 118.1 147.9 110.1 141.5C116.9 133.6 132 115.3 138.6 107.4ZM106.8 144.7C106.9 144.6 107.2 144.3 107.5 144.1L141.2 165.3C141.2 165.3 142.2 166.7 142.4 166.9C142.8 167.3 143.3 168.7 144 171.7C147 185.5 152.2 220 150.1 225.2C144.5 221 85.0998 188.2 85.0998 186.6C85.1998 185 104.6 146 106.8 144.7ZM148.5 232.6C148.9 236.3 112.5 228.4 105 227C104.9 226.9 104.6 226.9 104.4 226.9L91.6998 215.7C91.0998 214.8 90.6998 214.1 90.2998 213.2C88.6998 206.4 84.9998 196 84.8998 193.8C94.2998 191 138.5 222.6 148.5 232.6ZM81.1998 140C81.1998 139.9 81.1998 139.9 81.1998 139.9C81.1998 139.9 81.1998 139.9 81.0998 139.9C80.9998 138.8 80.5998 137.9 81.1998 136.4C83.2998 134.3 91.1998 121.1 93.3998 120.8C97.9998 131.5 101.4 140.4 101.8 141.4C102.9 144.8 83.5998 185.6 82.9998 181.3C82.3998 178.1 80.2998 152.9 81.0998 141.5C81.1998 141.4 81.1998 141.1 81.1998 141C81.2998 140.8 81.2998 140.4 81.1998 140ZM48.4998 156.6C49.1998 151 56.6998 140.7 56.6998 140.7C61.2998 135.7 64.3998 132.6 66.1998 130.7C66.3998 130.6 66.7998 130.7 67.0998 130.8C67.6998 130.9 68.2998 131.4 68.7998 131.9C70.7998 133.5 72.7998 135.2 74.5998 136.7C75.5998 137.6 76.5998 138.3 77.2998 139.6C77.8998 140.9 78.2998 142.5 78.3998 144.1C78.2998 144.7 78.2998 145.2 78.4998 145.6C79.3998 147.2 81.6998 180.9 78.4998 185.5C77.2998 187.4 47.4998 164.2 48.4998 156.6ZM40.1998 212.7C55.9998 202.5 74.8998 191.8 76.3998 191.8C76.8998 192.6 76.9998 192.6 76.9998 192.6C76.9998 192.7 77.0998 192.9 77.0998 193.1C77.7998 196 71.8998 221.5 66.2998 246.1C61.7998 242.3 41.0998 217.7 40.1998 212.7ZM74.5998 292.1C69.1998 296.3 65.8998 295.5 65.8998 277.5C64.6998 270.4 74.0998 208.3 82.4998 196.1C82.8998 197.2 86.8998 206.6 86.4998 210.9L86.5998 211C86.4998 211.1 86.3998 211.1 86.3998 211.1C87.5998 214.5 89.0998 217.7 90.9998 220.2C92.5998 222.6 94.4998 224.5 95.7998 227.4C96.9998 230.2 97.7998 234 96.8998 237.1C96.2998 238.9 95.2998 240.1 94.5998 241.6C94.0998 242.5 93.6998 243.7 93.6998 244.8C91.8998 250.6 76.9998 290.1 74.5998 292.1ZM151.8 280.3C151.7 280.4 151.6 280.7 151.4 280.9C138.4 281.5 92.7998 267.4 90.7998 262.7C93.4998 255.5 95.8998 249.4 96.0998 248.9L109.2 230.1C119.7 231 144.7 236.8 149 239.7C154.5 243.3 151.8 259.1 151.8 280.3ZM212.1 305.2C208.4 306.2 204.4 307 200.6 306.1C200.2 306 199.7 306 199.4 305.7C200.9 291.6 203.4 281.1 206.7 267.8C205.5 268.1 204.4 268.3 203.1 268.7C201.1 280.1 199 291.3 197 302.6C197 302.5 196.9 302.5 196.8 302.6C186.3 285.4 158.4 234.4 155.5 229.1C154.6 224.4 147.8 189.2 147 172.9C146.9 171.8 147.1 170.4 147.4 169C147.6 168.7 147.9 168.5 148.1 168.4C149.2 167.6 150.4 167.5 151.7 167.5C164.1 167.4 176.2 173.3 188.3 180C193.6 182.9 199.5 184.7 203.4 189.5C203.4 189.6 203.3 189.8 203.3 189.9C203.4 189.9 203.5 189.9 203.7 189.9C203.8 190 203.9 190 204.1 190C205.8 190.4 207.3 193.5 207.3 196.3C207.4 199 207.4 201.1 207.2 203.6C207.1 203.9 207.1 204.2 207.1 204.7C207.1 205 207 205.1 207 205.3C207.1 205.3 207.1 205.3 207.1 205.3C207.5 209.1 208.6 226.5 207.7 236.6C206.8 245.6 205.5 254.4 203.9 263.2C194.6 265.6 182.3 268.8 178.2 269.4L180.1 272.8C184.8 271.3 197.3 269.3 205.4 267.5C212 266.1 222.6 262.8 224.8 263.3C225.9 263.6 225 266.8 224.6 268.3C223.3 272.3 214.1 300.3 212.1 305.2ZM225.5 307.4L217.6 301.8C220.6 291.7 227.4 267.9 227.6 267.5C228.5 266.6 228.6 263.7 229.2 267.9C228.3 280.5 226.5 305.2 225.5 307.4ZM272.1 251.1C263.3 271.7 263.8 282.5 252.6 291C246.8 295.4 240.7 297.1 236.3 297.8C233.2 298.1 231.6 298.1 231.6 298.1C231.6 298.1 228.3 283.5 232 270.7C233 267.4 234.6 263.5 237.6 259.2C238.2 257.6 239.1 255.4 240.2 253C241.1 250.9 241.9 248.8 242.9 246.7C245.5 240.9 248.5 234.5 250.4 230.3C252.6 226.8 253.9 220.1 256.3 217.3C258.5 214.8 261.5 214.6 264.2 214C264.9 213.9 265.8 213.4 266.8 213C283.2 208.2 288.2 210.2 289.9 212.7C293.5 218.2 282.6 226.7 272.1 251.1ZM285.7 207.3C283.2 206.7 279.8 206.2 275.1 206.9C275 206.5 275 206.3 274.9 205.9C273.8 202.2 272.8 198.8 271.7 195.7C271.7 195.1 271.8 194.3 272.1 193.8C272.7 192.7 273.5 191.9 274.3 191.1C275.5 189.8 276.8 188.3 277.9 186.6C278.1 186.2 278.3 185.8 278.5 185.3C278.6 185.2 278.6 184.9 278.5 184.8V184.7C278.5 183.4 278.3 175.4 278.1 167.2C278 160.5 278.2 156.2 278.5 149C278.5 147.7 278.5 146.3 278.6 144.8V144.9C278.6 144.9 280.1 146.3 282.7 148.8C282.6 153.8 283.2 165.2 289.9 177.1C295.5 186.9 302.9 192.6 307 195.4C305 203.1 303.3 209.9 302.1 216C301.9 216 294.1 209.5 285.7 207.3ZM306.4 297.7C305.4 298.5 303.2 300.4 301.2 299.6C299 298.7 297.6 294.2 297.6 282.9C296.4 275.8 305.8 213.7 314.2 201.5C314.6 202.6 318.6 212 318.2 216.3L318.3 216.4C318.2 216.5 318.1 216.5 318.1 216.5C319.3 219.9 320.8 223.1 322.7 225.6C324.3 228 326.2 229.9 327.5 232.8C328.7 235.6 329.5 239.4 328.6 242.5C328 244.3 327 245.5 326.3 247C325.8 247.9 325.4 249.1 325.4 250.2C323.5 258.2 316.5 289.5 306.4 297.7ZM383.6 285.8C383.5 285.9 383.4 286.2 383.2 286.4C370.2 287 324.6 272.9 322.6 268.2C325.3 261 327.7 254.9 327.9 254.4L341 235.6C351.5 236.5 376.5 242.3 380.8 245.2C386.4 248.8 383.7 264.6 383.6 285.8ZM444 310.9C440.3 311.9 436.3 312.7 432.5 311.8C432.1 311.7 431.6 311.7 431.3 311.4C432.8 297.3 435.3 286.8 438.6 273.5C437.4 273.8 436.3 274 435 274.4C433 285.8 430.9 297 428.9 308.4C428.9 308.3 428.8 308.3 428.7 308.4C418.2 291.2 390.3 240.2 387.4 234.9C386.5 230.2 379.7 195 378.9 178.7C378.8 177.6 379 176.2 379.3 174.8C379.5 174.5 379.8 174.3 380 174.2C381.1 173.4 382.3 173.3 383.6 173.3C396 173.2 408.1 179.1 420.2 185.8C425.5 188.7 431.4 190.5 435.3 195.3C435.3 195.4 435.2 195.6 435.2 195.7C435.3 195.7 435.4 195.7 435.6 195.7C435.7 195.8 435.8 195.8 436 195.8C437.7 196.2 439.2 199.3 439.2 202.1C439.3 204.8 439.3 206.9 439.1 209.4C439 209.7 439 210 439 210.5C439 210.8 438.9 210.9 438.9 211.1C439 211.1 439 211.1 439 211.1C439.4 214.9 440.5 232.3 439.6 242.4C438.7 251.4 437.4 260.2 435.8 269C426.5 271.4 414.2 274.6 410.1 275.2L412 278.6C416.7 277.1 429.2 275.1 437.3 273.3C443.9 271.9 454.5 268.6 456.7 269.1C457.8 269.4 456.9 272.6 456.5 274.1C455.1 277.9 446 306 444 310.9ZM457.4 312.9L449.5 307.3C452.5 297.2 459.3 273.4 459.5 273C460.4 272.1 460.5 269.2 461.1 273.4C460.2 286.2 458.4 310.9 457.4 312.9ZM459.8 262.5C459.3 263.1 448.7 265.9 439.4 268.4C441.3 255.8 442.4 243 442.9 230C443 225.3 443.1 220.8 443.3 216.2C443.3 214.8 443.2 212.5 443.2 211.2C443.2 211.1 443.2 211.1 443.2 211.1C443.6 207.7 444.4 205.8 446 204.5C446.2 204.4 446.6 204.1 446.7 203.7C446.7 203.8 446.7 203.8 446.8 204C447.7 202.5 449 201.3 450.8 200.3C450.9 200.3 450.9 200.3 450.9 200.3V200.2C454.4 198.3 458.9 197.3 461.7 196.2C465.7 194.7 469.7 193.3 472.8 189.1C474 187.5 475 185.4 476.4 184.1C475.3 200.2 464.9 244.8 459.8 262.5ZM515.7 282.2C514.6 283.5 473.3 306.3 462.7 309.3C462.6 296.3 462.9 276.2 465.4 272.4C467.3 265.7 514.2 268.6 515.1 270.3C515.7 273.8 516.7 280.8 515.7 282.2ZM523.6 257.8C523.8 259.8 518.4 262.8 517 265C516.1 266.3 478.9 264.6 469.3 264.9C470.2 261.7 478.2 244.3 482.2 236C484.4 232.5 485.7 225.8 488.1 223C490.3 220.5 493.3 220.3 496 219.7C496.7 219.6 497.6 219.1 498.6 218.7C498.7 218.8 499 218.7 499.3 218.3C502.1 216.7 525.3 221.3 536.4 224C532.6 235.2 523.5 256.7 523.6 257.8Z" fill="#718BC6"/>
<path d="M307.8 197.9C309.8 199.3 312.5 198.8 313.9 196.8C315.3 194.8 314.8 192.1 312.8 190.7C310.8 189.3 308.1 189.8 306.7 191.8C305.3 193.8 305.8 196.5 307.8 197.9Z" fill="url(#paint0_radial_4377_288654)"/>
<path d="M313.7 195.9C315.7 197.3 318.4 196.8 319.8 194.8C321.2 192.8 320.7 190.1 318.7 188.7C316.7 187.3 314 187.8 312.6 189.8C311.2 191.8 311.7 194.5 313.7 195.9Z" fill="url(#paint1_radial_4377_288654)"/>
<path d="M312.2 202.5C314.2 203.9 316.9 203.4 318.3 201.4C319.7 199.4 319.2 196.7 317.2 195.3C315.2 193.9 312.5 194.4 311.1 196.4C309.7 198.4 310.3 201.1 312.2 202.5Z" fill="url(#paint2_radial_4377_288654)"/>
<path d="M387.5 240.9C387.2 238.9 385.3 237.5 383.2 237.9C381.2 238.2 379.8 240.1 380.2 242.2C380.5 244.2 382.4 245.6 384.5 245.2C386.5 244.8 387.8 242.9 387.5 240.9Z" fill="url(#paint3_radial_4377_288654)"/>
<path d="M382.8 238.5C382.5 236.5 380.6 235.1 378.5 235.5C376.4 235.9 375.1 237.7 375.5 239.8C375.8 241.8 377.7 243.2 379.8 242.8C381.8 242.4 383.1 240.5 382.8 238.5Z" fill="url(#paint4_radial_4377_288654)"/>
<path d="M387.7 235.5C387.4 233.5 385.5 232.1 383.4 232.5C381.4 232.8 380 234.7 380.4 236.8C380.8 238.9 382.6 240.2 384.7 239.8C386.8 239.4 387.9 237.5 387.7 235.5Z" fill="url(#paint5_radial_4377_288654)"/>
<path d="M156.6 234.5C156.3 232.5 154.4 231.1 152.3 231.5C150.3 231.8 148.9 233.7 149.3 235.8C149.6 237.8 151.5 239.2 153.6 238.8C155.6 238.4 156.9 236.5 156.6 234.5Z" fill="url(#paint6_radial_4377_288654)"/>
<path d="M151.9 232.1C151.6 230.1 149.7 228.7 147.6 229.1C145.6 229.4 144.2 231.3 144.6 233.4C144.9 235.4 146.8 236.8 148.9 236.4C150.9 236 152.2 234.1 151.9 232.1Z" fill="url(#paint7_radial_4377_288654)"/>
<path d="M156.8 229.1C156.5 227.1 154.6 225.7 152.5 226.1C150.4 226.5 149.1 228.3 149.5 230.4C149.8 232.4 151.7 233.8 153.8 233.4C155.8 233 157.1 231.1 156.8 229.1Z" fill="url(#paint8_radial_4377_288654)"/>
<path d="M242.999 176.7C244.899 177.5 246.999 176.6 247.799 174.7C248.599 172.8 247.699 170.7 245.799 169.9C243.899 169.1 241.799 170 240.999 171.9C240.099 173.8 241.099 175.9 242.999 176.7Z" fill="url(#paint9_radial_4377_288654)"/>
<path d="M247.5 173.9C249.4 174.7 251.5 173.8 252.3 171.9C253.1 170 252.2 167.9 250.3 167.1C248.4 166.3 246.3 167.2 245.5 169.1C244.6 171 245.5 173.2 247.5 173.9Z" fill="url(#paint10_radial_4377_288654)"/>
<path d="M247.399 179.6C249.299 180.4 251.399 179.5 252.199 177.6C252.999 175.7 252.099 173.6 250.199 172.8C248.299 172 246.199 172.9 245.399 174.8C244.599 176.7 245.599 178.8 247.399 179.6Z" fill="url(#paint11_radial_4377_288654)"/>
<path d="M474.7 181.701C476.6 182.501 478.7 181.601 479.5 179.701C480.3 177.801 479.4 175.701 477.5 174.901C475.6 174.101 473.5 175.001 472.7 176.901C471.9 178.801 472.8 180.901 474.7 181.701Z" fill="url(#paint12_radial_4377_288654)"/>
<path d="M479.2 179C481.1 179.8 483.2 178.9 484 177C484.8 175.1 483.9 173 482 172.2C480.1 171.4 478 172.3 477.2 174.2C476.4 176.1 477.3 178.2 479.2 179Z" fill="url(#paint13_radial_4377_288654)"/>
<path d="M479.2 184.701C481.1 185.501 483.2 184.601 484 182.701C484.8 180.801 483.9 178.701 482 177.901C480.1 177.101 478 178.001 477.2 179.901C476.4 181.801 477.4 183.901 479.2 184.701Z" fill="url(#paint14_radial_4377_288654)"/>
<path d="M75.4997 192.701C77.3997 193.501 79.4997 192.601 80.2997 190.701C81.0997 188.801 80.1997 186.701 78.2997 185.901C76.3997 185.101 74.2997 186.001 73.4997 187.901C72.6997 189.801 73.5997 192.001 75.4997 192.701Z" fill="url(#paint15_radial_4377_288654)"/>
<path d="M79.9997 190C81.8997 190.8 83.9997 189.9 84.7997 188C85.5997 186.1 84.6997 184 82.7997 183.2C80.8997 182.4 78.7997 183.3 77.9997 185.2C77.1997 187.1 78.0997 189.2 79.9997 190Z" fill="url(#paint16_radial_4377_288654)"/>
<path d="M79.9995 195.701C81.8995 196.501 83.9995 195.601 84.7995 193.701C85.5995 191.801 84.6995 189.701 82.7995 188.901C80.8995 188.101 78.7995 189.001 77.9995 190.901C77.1995 192.801 78.1995 194.901 79.9995 195.701Z" fill="url(#paint17_radial_4377_288654)"/>
<path d="M446.999 202.301C448.299 200.201 447.699 197.501 445.599 196.201C443.499 194.901 440.799 195.501 439.499 197.601C438.199 199.701 438.799 202.401 440.899 203.701C442.999 205.001 445.699 204.401 446.999 202.301Z" fill="url(#paint18_radial_4377_288654)"/>
<path d="M444.7 196.4C446 194.3 445.4 191.6 443.3 190.3C441.2 189 438.5 189.6 437.2 191.7C435.9 193.8 436.5 196.5 438.6 197.8C440.7 199.1 443.3 198.5 444.7 196.4Z" fill="url(#paint19_radial_4377_288654)"/>
<path d="M451.4 197.6C452.7 195.5 452.1 192.8 450 191.5C447.9 190.2 445.2 190.8 443.9 192.9C442.6 195 443.2 197.7 445.3 199C447.4 200.4 450.1 199.6 451.4 197.6Z" fill="url(#paint20_radial_4377_288654)"/>
<path d="M465.399 273.501C466.699 271.401 466.099 268.701 463.999 267.401C461.899 266.101 459.199 266.701 457.899 268.801C456.599 270.901 457.199 273.601 459.299 274.901C461.399 276.201 464.099 275.601 465.399 273.501Z" fill="url(#paint21_radial_4377_288654)"/>
<path d="M463.1 267.6C464.4 265.5 463.8 262.8 461.7 261.5C459.6 260.2 456.9 260.8 455.6 262.9C454.3 265 454.9 267.7 457 269C459 270.4 461.7 269.7 463.1 267.6Z" fill="url(#paint22_radial_4377_288654)"/>
<path d="M469.8 268.801C471.1 266.701 470.5 264.001 468.4 262.701C466.3 261.401 463.6 262.001 462.3 264.101C461 266.201 461.6 268.901 463.7 270.201C465.8 271.501 468.5 270.801 469.8 268.801Z" fill="url(#paint23_radial_4377_288654)"/>
<path d="M273.299 281.001C274.599 278.901 273.999 276.201 271.899 274.901C269.799 273.601 267.099 274.201 265.799 276.301C264.499 278.401 265.099 281.101 267.199 282.401C269.299 283.701 271.999 283.101 273.299 281.001Z" fill="url(#paint24_radial_4377_288654)"/>
<path d="M270.999 275.1C272.299 273 271.699 270.3 269.599 269C267.499 267.7 264.799 268.3 263.499 270.4C262.199 272.5 262.799 275.2 264.899 276.5C266.999 277.8 269.699 277.2 270.999 275.1Z" fill="url(#paint25_radial_4377_288654)"/>
<path d="M277.799 276.301C279.099 274.201 278.499 271.501 276.399 270.201C274.299 268.901 271.599 269.501 270.299 271.601C268.999 273.701 269.599 276.401 271.699 277.701C273.699 279.001 276.399 278.301 277.799 276.301Z" fill="url(#paint26_radial_4377_288654)"/>
<path d="M231.5 265.601C232.6 263.801 232.1 261.501 230.3 260.301C228.5 259.201 226.2 259.701 225 261.501C223.9 263.301 224.4 265.601 226.2 266.801C228 268.001 230.4 267.401 231.5 265.601Z" fill="url(#paint27_radial_4377_288654)"/>
<path d="M229.5 260.601C230.6 258.801 230.1 256.501 228.3 255.301C226.5 254.201 224.2 254.701 223 256.501C221.9 258.301 222.4 260.601 224.2 261.801C226.1 262.901 228.4 262.401 229.5 260.601Z" fill="url(#paint28_radial_4377_288654)"/>
<path d="M235.3 261.601C236.4 259.801 235.9 257.501 234.1 256.301C232.3 255.201 230 255.701 228.8 257.501C227.7 259.301 228.2 261.601 230 262.801C231.9 264.001 234.2 263.301 235.3 261.601Z" fill="url(#paint29_radial_4377_288654)"/>
<path d="M207.7 195.301C209.8 194.901 211.1 192.901 210.7 190.801C210.3 188.701 208.3 187.401 206.2 187.801C204.1 188.201 202.8 190.201 203.2 192.301C203.6 194.401 205.6 195.701 207.7 195.301Z" fill="url(#paint30_radial_4377_288654)"/>
<path d="M209.999 190.301C212.099 189.901 213.399 187.901 212.999 185.801C212.599 183.701 210.599 182.401 208.499 182.801C206.399 183.201 205.099 185.201 205.499 187.301C205.899 189.401 207.899 190.701 209.999 190.301Z" fill="url(#paint31_radial_4377_288654)"/>
<path d="M213.2 195.301C215.3 194.901 216.6 192.901 216.2 190.801C215.8 188.701 213.8 187.401 211.7 187.801C209.6 188.201 208.3 190.201 208.7 192.301C209.1 194.401 211.2 195.601 213.2 195.301Z" fill="url(#paint32_radial_4377_288654)"/>
<path d="M377.1 175.401C378.9 175.001 380 173.401 379.6 171.601C379.2 169.801 377.6 168.701 375.8 169.101C374 169.501 372.9 171.101 373.3 172.901C373.6 174.601 375.3 175.701 377.1 175.401Z" fill="url(#paint33_radial_4377_288654)"/>
<path d="M379 171.2C380.8 170.8 381.9 169.2 381.5 167.4C381.1 165.6 379.5 164.5 377.7 164.9C375.9 165.3 374.8 166.9 375.2 168.7C375.6 170.5 377.3 171.6 379 171.2Z" fill="url(#paint34_radial_4377_288654)"/>
<path d="M381.8 175.401C383.6 175.001 384.7 173.401 384.3 171.601C383.9 169.801 382.3 168.701 380.5 169.101C378.7 169.501 377.6 171.101 378 172.901C378.3 174.601 380.1 175.701 381.8 175.401Z" fill="url(#paint35_radial_4377_288654)"/>
<path d="M521.7 273.5C523.5 273.1 524.6 271.5 524.2 269.7C523.8 267.9 522.2 266.8 520.4 267.2C518.6 267.6 517.5 269.2 517.9 271C518.2 272.7 519.9 273.8 521.7 273.5Z" fill="url(#paint36_radial_4377_288654)"/>
<path d="M523.6 269.3C525.4 268.9 526.5 267.3 526.1 265.5C525.7 263.7 524.1 262.6 522.3 263C520.5 263.4 519.4 265 519.8 266.8C520.2 268.6 521.9 269.7 523.6 269.3Z" fill="url(#paint37_radial_4377_288654)"/>
<path d="M526.4 273.5C528.2 273.1 529.3 271.5 528.9 269.7C528.5 267.9 526.9 266.8 525.1 267.2C523.3 267.6 522.2 269.2 522.6 271C522.9 272.7 524.7 273.8 526.4 273.5Z" fill="url(#paint38_radial_4377_288654)"/>
<path d="M105.8 144.1C107.6 143.7 108.7 142.1 108.3 140.3C107.9 138.5 106.3 137.4 104.5 137.8C102.7 138.2 101.6 139.8 102 141.6C102.3 143.4 104 144.5 105.8 144.1Z" fill="url(#paint39_radial_4377_288654)"/>
<path d="M107.7 140C109.5 139.6 110.6 138 110.2 136.2C109.8 134.4 108.2 133.3 106.4 133.7C104.6 134.1 103.5 135.7 103.9 137.5C104.3 139.2 106 140.3 107.7 140Z" fill="url(#paint40_radial_4377_288654)"/>
<path d="M110.5 144.1C112.3 143.7 113.4 142.1 113 140.3C112.6 138.5 111 137.4 109.2 137.8C107.4 138.2 106.3 139.8 106.7 141.6C107 143.4 108.8 144.4 110.5 144.1Z" fill="url(#paint41_radial_4377_288654)"/>
<path d="M106.1 234.1C105.3 232.5 103.4 231.8 101.8 232.6C100.2 233.4 99.4997 235.3 100.3 236.9C101.1 238.5 103 239.2 104.6 238.4C106.2 237.6 106.9 235.7 106.1 234.1Z" fill="url(#paint42_radial_4377_288654)"/>
<path d="M101.6 233.201C100.8 231.601 98.8997 230.901 97.2997 231.701C95.6997 232.501 94.9997 234.401 95.7997 236.001C96.5997 237.601 98.4997 238.301 100.1 237.501C101.7 236.801 102.4 234.801 101.6 233.201Z" fill="url(#paint43_radial_4377_288654)"/>
<path d="M104.899 229.5C104.099 227.9 102.199 227.2 100.599 228C98.9995 228.8 98.2995 230.7 99.0995 232.3C99.8995 233.9 101.799 234.6 103.399 233.8C105.099 233.1 105.599 231.1 104.899 229.5Z" fill="url(#paint44_radial_4377_288654)"/>
<path d="M389 289.6C388.2 288 386.3 287.3 384.7 288.1C383.1 288.9 382.4 290.8 383.2 292.4C384 294 385.9 294.7 387.5 293.9C389.1 293.1 389.8 291.2 389 289.6Z" fill="url(#paint45_radial_4377_288654)"/>
<path d="M384.5 288.8C383.7 287.2 381.8 286.5 380.2 287.3C378.6 288.1 377.9 290 378.7 291.6C379.5 293.2 381.4 293.9 383 293.1C384.6 292.3 385.3 290.4 384.5 288.8Z" fill="url(#paint46_radial_4377_288654)"/>
<path d="M387.799 285.1C386.999 283.5 385.099 282.8 383.499 283.6C381.899 284.4 381.199 286.3 381.999 287.9C382.799 289.5 384.699 290.2 386.299 289.4C387.899 288.6 388.499 286.7 387.799 285.1Z" fill="url(#paint47_radial_4377_288654)"/>
<path d="M341.6 144.9C340.8 143.3 338.9 142.6 337.3 143.4C335.7 144.2 335 146.1 335.8 147.7C336.6 149.3 338.5 150 340.1 149.2C341.7 148.5 342.4 146.6 341.6 144.9Z" fill="url(#paint48_radial_4377_288654)"/>
<path d="M337.1 144.1C336.3 142.5 334.4 141.8 332.8 142.6C331.2 143.4 330.5 145.3 331.3 146.9C332.1 148.5 334 149.2 335.6 148.4C337.2 147.6 337.9 145.7 337.1 144.1Z" fill="url(#paint49_radial_4377_288654)"/>
<path d="M340.399 140.4C339.599 138.8 337.699 138.1 336.099 138.9C334.499 139.7 333.799 141.6 334.599 143.2C335.399 144.8 337.299 145.5 338.899 144.7C340.599 143.9 341.099 142 340.399 140.4Z" fill="url(#paint50_radial_4377_288654)"/>
<path d="M494.6 110.5C493.8 108.9 491.9 108.2 490.3 109C488.7 109.8 488 111.7 488.8 113.3C489.6 114.9 491.5 115.6 493.1 114.8C494.7 114 495.3 112.1 494.6 110.5Z" fill="url(#paint51_radial_4377_288654)"/>
<path d="M490 109.6C489.2 108 487.3 107.3 485.7 108.1C484.1 108.9 483.4 110.8 484.2 112.4C485 114 486.9 114.7 488.5 113.9C490.2 113.2 490.8 111.3 490 109.6Z" fill="url(#paint52_radial_4377_288654)"/>
<path d="M493.399 106C492.599 104.4 490.699 103.7 489.099 104.5C487.499 105.3 486.799 107.2 487.599 108.8C488.399 110.4 490.299 111.1 491.899 110.3C493.499 109.5 494.099 107.5 493.399 106Z" fill="url(#paint53_radial_4377_288654)"/>
<path d="M443.4 148.999C443 148.099 441.9 147.699 440.9 148.099C440 148.499 439.6 149.599 440 150.599C440.4 151.499 441.5 151.899 442.5 151.499C443.5 151.099 443.8 149.999 443.4 148.999Z" fill="url(#paint54_radial_4377_288654)"/>
<path d="M440.8 148.6C440.4 147.7 439.3 147.3 438.3 147.7C437.4 148.1 437 149.2 437.4 150.2C437.8 151.1 438.9 151.5 439.9 151.1C440.9 150.6 441.2 149.5 440.8 148.6Z" fill="url(#paint55_radial_4377_288654)"/>
<path d="M442.7 146.4C442.3 145.5 441.2 145.1 440.2 145.5C439.3 145.9 438.9 147 439.3 148C439.7 148.9 440.8 149.3 441.8 148.9C442.8 148.5 443.1 147.4 442.7 146.4Z" fill="url(#paint56_radial_4377_288654)"/>
<path d="M260.399 104.801C259.799 103.601 258.399 103.101 257.199 103.701C255.999 104.301 255.499 105.701 256.099 106.901C256.699 108.101 258.099 108.601 259.299 108.001C260.499 107.401 260.899 106.001 260.399 104.801Z" fill="url(#paint57_radial_4377_288654)"/>
<path d="M257 104.1C256.4 102.9 255 102.4 253.8 103C252.6 103.6 252.1 105 252.7 106.2C253.3 107.4 254.7 107.9 255.9 107.3C257.1 106.7 257.6 105.3 257 104.1Z" fill="url(#paint58_radial_4377_288654)"/>
<path d="M259.5 101.4C258.9 100.2 257.5 99.7001 256.3 100.3C255.1 100.9 254.6 102.3 255.2 103.5C255.8 104.7 257.2 105.2 258.4 104.6C259.6 104 260 102.6 259.5 101.4Z" fill="url(#paint59_radial_4377_288654)"/>
</g>
<defs>
<radialGradient id="paint0_radial_4377_288654" cx="0" cy="0" r="1" gradientUnits="userSpaceOnUse" gradientTransform="translate(310.351 194.292) rotate(124.538) scale(4.38832)">
<stop stop-color="#6E97C9"/>
<stop offset="1" stop-color="#0075FF"/>
</radialGradient>
<radialGradient id="paint1_radial_4377_288654" cx="0" cy="0" r="1" gradientUnits="userSpaceOnUse" gradientTransform="translate(316.274 192.308) rotate(124.538) scale(4.37473)">
<stop stop-color="#6E97C9"/>
<stop offset="1" stop-color="#0075FF"/>
</radialGradient>
<radialGradient id="paint2_radial_4377_288654" cx="0" cy="0" r="1" gradientUnits="userSpaceOnUse" gradientTransform="translate(314.793 198.877) rotate(124.538) scale(4.38131)">
<stop stop-color="#6E97C9"/>
<stop offset="1" stop-color="#0075FF"/>
</radialGradient>
<radialGradient id="paint3_radial_4377_288654" cx="0" cy="0" r="1" gradientUnits="userSpaceOnUse" gradientTransform="translate(383.847 241.504) rotate(-9.90588) scale(3.70256)">
<stop stop-color="#6E97C9"/>
<stop offset="1" stop-color="#0075FF"/>
</radialGradient>
<radialGradient id="paint4_radial_4377_288654" cx="0" cy="0" r="1" gradientUnits="userSpaceOnUse" gradientTransform="translate(379.152 239.108) rotate(-9.90588) scale(3.69117)">
<stop stop-color="#6E97C9"/>
<stop offset="1" stop-color="#0075FF"/>
</radialGradient>
<radialGradient id="paint5_radial_4377_288654" cx="0" cy="0" r="1" gradientUnits="userSpaceOnUse" gradientTransform="translate(383.984 236.118) rotate(-9.90584) scale(3.69688)">
<stop stop-color="#6E97C9"/>
<stop offset="1" stop-color="#0075FF"/>
</radialGradient>
<radialGradient id="paint6_radial_4377_288654" cx="0" cy="0" r="1" gradientUnits="userSpaceOnUse" gradientTransform="translate(152.964 235.121) rotate(-9.90586) scale(3.70257)">
<stop stop-color="#6E97C9"/>
<stop offset="1" stop-color="#0075FF"/>
</radialGradient>
<radialGradient id="paint7_radial_4377_288654" cx="0" cy="0" r="1" gradientUnits="userSpaceOnUse" gradientTransform="translate(148.269 232.725) rotate(-9.90586) scale(3.69117)">
<stop stop-color="#6E97C9"/>
<stop offset="1" stop-color="#0075FF"/>
</radialGradient>
<radialGradient id="paint8_radial_4377_288654" cx="0" cy="0" r="1" gradientUnits="userSpaceOnUse" gradientTransform="translate(153.102 229.736) rotate(-9.90584) scale(3.69687)">
<stop stop-color="#6E97C9"/>
<stop offset="1" stop-color="#0075FF"/>
</radialGradient>
<radialGradient id="paint9_radial_4377_288654" cx="0" cy="0" r="1" gradientUnits="userSpaceOnUse" gradientTransform="translate(244.359 173.243) rotate(111.851) scale(3.70262)">
<stop stop-color="#6E97C9"/>
<stop offset="1" stop-color="#0075FF"/>
</radialGradient>
<radialGradient id="paint10_radial_4377_288654" cx="0" cy="0" r="1" gradientUnits="userSpaceOnUse" gradientTransform="translate(248.867 170.513) rotate(111.851) scale(3.69122)">
<stop stop-color="#6E97C9"/>
<stop offset="1" stop-color="#0075FF"/>
</radialGradient>
<radialGradient id="paint11_radial_4377_288654" cx="0" cy="0" r="1" gradientUnits="userSpaceOnUse" gradientTransform="translate(248.865 176.195) rotate(111.851) scale(3.69692)">
<stop stop-color="#6E97C9"/>
<stop offset="1" stop-color="#0075FF"/>
</radialGradient>
<radialGradient id="paint12_radial_4377_288654" cx="0" cy="0" r="1" gradientUnits="userSpaceOnUse" gradientTransform="translate(476.128 178.294) rotate(111.851) scale(3.70262)">
<stop stop-color="#6E97C9"/>
<stop offset="1" stop-color="#0075FF"/>
</radialGradient>
<radialGradient id="paint13_radial_4377_288654" cx="0" cy="0" r="1" gradientUnits="userSpaceOnUse" gradientTransform="translate(480.636 175.563) rotate(111.851) scale(3.69123)">
<stop stop-color="#6E97C9"/>
<stop offset="1" stop-color="#0075FF"/>
</radialGradient>
<radialGradient id="paint14_radial_4377_288654" cx="0" cy="0" r="1" gradientUnits="userSpaceOnUse" gradientTransform="translate(480.634 181.246) rotate(111.851) scale(3.69692)">
<stop stop-color="#6E97C9"/>
<stop offset="1" stop-color="#0075FF"/>
</radialGradient>
<radialGradient id="paint15_radial_4377_288654" cx="0" cy="0" r="1" gradientUnits="userSpaceOnUse" gradientTransform="translate(76.9122 189.32) rotate(111.851) scale(3.70262)">
<stop stop-color="#6E97C9"/>
<stop offset="1" stop-color="#0075FF"/>
</radialGradient>
<radialGradient id="paint16_radial_4377_288654" cx="0" cy="0" r="1" gradientUnits="userSpaceOnUse" gradientTransform="translate(81.4202 186.589) rotate(111.851) scale(3.69123)">
<stop stop-color="#6E97C9"/>
<stop offset="1" stop-color="#0075FF"/>
</radialGradient>
<radialGradient id="paint17_radial_4377_288654" cx="0" cy="0" r="1" gradientUnits="userSpaceOnUse" gradientTransform="translate(81.4182 192.271) rotate(111.851) scale(3.69692)">
<stop stop-color="#6E97C9"/>
<stop offset="1" stop-color="#0075FF"/>
</radialGradient>
<radialGradient id="paint18_radial_4377_288654" cx="0" cy="0" r="1" gradientUnits="userSpaceOnUse" gradientTransform="translate(443.197 199.965) rotate(31.7674) scale(4.4623)">
<stop stop-color="#6E97C9"/>
<stop offset="1" stop-color="#0075FF"/>
</radialGradient>
<radialGradient id="paint19_radial_4377_288654" cx="0" cy="0" r="1" gradientUnits="userSpaceOnUse" gradientTransform="translate(440.891 194.047) rotate(31.7674) scale(4.44783)">
<stop stop-color="#6E97C9"/>
<stop offset="1" stop-color="#0075FF"/>
</radialGradient>
<radialGradient id="paint20_radial_4377_288654" cx="0" cy="0" r="1" gradientUnits="userSpaceOnUse" gradientTransform="translate(447.636 195.229) rotate(31.7674) scale(4.45485)">
<stop stop-color="#6E97C9"/>
<stop offset="1" stop-color="#0075FF"/>
</radialGradient>
<radialGradient id="paint21_radial_4377_288654" cx="0" cy="0" r="1" gradientUnits="userSpaceOnUse" gradientTransform="translate(461.594 271.196) rotate(31.7674) scale(4.4623)">
<stop stop-color="#6E97C9"/>
<stop offset="1" stop-color="#0075FF"/>
</radialGradient>
<radialGradient id="paint22_radial_4377_288654" cx="0" cy="0" r="1" gradientUnits="userSpaceOnUse" gradientTransform="translate(459.287 265.278) rotate(31.7674) scale(4.44784)">
<stop stop-color="#6E97C9"/>
<stop offset="1" stop-color="#0075FF"/>
</radialGradient>
<radialGradient id="paint23_radial_4377_288654" cx="0" cy="0" r="1" gradientUnits="userSpaceOnUse" gradientTransform="translate(466.032 266.459) rotate(31.7674) scale(4.45484)">
<stop stop-color="#6E97C9"/>
<stop offset="1" stop-color="#0075FF"/>
</radialGradient>
<radialGradient id="paint24_radial_4377_288654" cx="0" cy="0" r="1" gradientUnits="userSpaceOnUse" gradientTransform="translate(269.526 278.611) rotate(31.7674) scale(4.46229)">
<stop stop-color="#6E97C9"/>
<stop offset="1" stop-color="#0075FF"/>
</radialGradient>
<radialGradient id="paint25_radial_4377_288654" cx="0" cy="0" r="1" gradientUnits="userSpaceOnUse" gradientTransform="translate(267.22 272.693) rotate(31.7674) scale(4.44784)">
<stop stop-color="#6E97C9"/>
<stop offset="1" stop-color="#0075FF"/>
</radialGradient>
<radialGradient id="paint26_radial_4377_288654" cx="0" cy="0" r="1" gradientUnits="userSpaceOnUse" gradientTransform="translate(273.964 273.874) rotate(31.7674) scale(4.45484)">
<stop stop-color="#6E97C9"/>
<stop offset="1" stop-color="#0075FF"/>
</radialGradient>
<radialGradient id="paint27_radial_4377_288654" cx="0" cy="0" r="1" gradientUnits="userSpaceOnUse" gradientTransform="translate(228.27 263.628) rotate(31.7674) scale(3.82658)">
<stop stop-color="#6E97C9"/>
<stop offset="1" stop-color="#0075FF"/>
</radialGradient>
<radialGradient id="paint28_radial_4377_288654" cx="0" cy="0" r="1" gradientUnits="userSpaceOnUse" gradientTransform="translate(226.292 258.553) rotate(31.7673) scale(3.81475)">
<stop stop-color="#6E97C9"/>
<stop offset="1" stop-color="#0075FF"/>
</radialGradient>
<radialGradient id="paint29_radial_4377_288654" cx="0" cy="0" r="1" gradientUnits="userSpaceOnUse" gradientTransform="translate(232.076 259.566) rotate(31.7674) scale(3.82044)">
<stop stop-color="#6E97C9"/>
<stop offset="1" stop-color="#0075FF"/>
</radialGradient>
<radialGradient id="paint30_radial_4377_288654" cx="0" cy="0" r="1" gradientUnits="userSpaceOnUse" gradientTransform="translate(206.864 191.491) rotate(78.2687) scale(3.82655)">
<stop stop-color="#6E97C9"/>
<stop offset="1" stop-color="#0075FF"/>
</radialGradient>
<radialGradient id="paint31_radial_4377_288654" cx="0" cy="0" r="1" gradientUnits="userSpaceOnUse" gradientTransform="translate(209.184 186.563) rotate(78.2687) scale(3.81472)">
<stop stop-color="#6E97C9"/>
<stop offset="1" stop-color="#0075FF"/>
</radialGradient>
<radialGradient id="paint32_radial_4377_288654" cx="0" cy="0" r="1" gradientUnits="userSpaceOnUse" gradientTransform="translate(212.431 191.456) rotate(78.2687) scale(3.82042)">
<stop stop-color="#6E97C9"/>
<stop offset="1" stop-color="#0075FF"/>
</radialGradient>
<radialGradient id="paint33_radial_4377_288654" cx="0" cy="0" r="1" gradientUnits="userSpaceOnUse" gradientTransform="translate(376.415 172.215) rotate(78.2686) scale(3.22895)">
<stop stop-color="#6E97C9"/>
<stop offset="1" stop-color="#0075FF"/>
</radialGradient>
<radialGradient id="paint34_radial_4377_288654" cx="0" cy="0" r="1" gradientUnits="userSpaceOnUse" gradientTransform="translate(378.372 168.057) rotate(78.2687) scale(3.21844)">
<stop stop-color="#6E97C9"/>
<stop offset="1" stop-color="#0075FF"/>
</radialGradient>
<radialGradient id="paint35_radial_4377_288654" cx="0" cy="0" r="1" gradientUnits="userSpaceOnUse" gradientTransform="translate(381.112 172.185) rotate(78.2687) scale(3.22369)">
<stop stop-color="#6E97C9"/>
<stop offset="1" stop-color="#0075FF"/>
</radialGradient>
<radialGradient id="paint36_radial_4377_288654" cx="0" cy="0" r="1" gradientUnits="userSpaceOnUse" gradientTransform="translate(521.029 270.289) rotate(78.2687) scale(3.22895)">
<stop stop-color="#6E97C9"/>
<stop offset="1" stop-color="#0075FF"/>
</radialGradient>
<radialGradient id="paint37_radial_4377_288654" cx="0" cy="0" r="1" gradientUnits="userSpaceOnUse" gradientTransform="translate(522.986 266.131) rotate(78.2687) scale(3.21843)">
<stop stop-color="#6E97C9"/>
<stop offset="1" stop-color="#0075FF"/>
</radialGradient>
<radialGradient id="paint38_radial_4377_288654" cx="0" cy="0" r="1" gradientUnits="userSpaceOnUse" gradientTransform="translate(525.726 270.26) rotate(78.2686) scale(3.22369)">
<stop stop-color="#6E97C9"/>
<stop offset="1" stop-color="#0075FF"/>
</radialGradient>
<radialGradient id="paint39_radial_4377_288654" cx="0" cy="0" r="1" gradientUnits="userSpaceOnUse" gradientTransform="translate(105.114 140.972) rotate(78.2687) scale(3.22896)">
<stop stop-color="#6E97C9"/>
<stop offset="1" stop-color="#0075FF"/>
</radialGradient>
<radialGradient id="paint40_radial_4377_288654" cx="0" cy="0" r="1" gradientUnits="userSpaceOnUse" gradientTransform="translate(107.071 136.814) rotate(78.2687) scale(3.21844)">
<stop stop-color="#6E97C9"/>
<stop offset="1" stop-color="#0075FF"/>
</radialGradient>
<radialGradient id="paint41_radial_4377_288654" cx="0" cy="0" r="1" gradientUnits="userSpaceOnUse" gradientTransform="translate(109.811 140.942) rotate(78.2687) scale(3.2237)">
<stop stop-color="#6E97C9"/>
<stop offset="1" stop-color="#0075FF"/>
</radialGradient>
<radialGradient id="paint42_radial_4377_288654" cx="0" cy="0" r="1" gradientUnits="userSpaceOnUse" gradientTransform="translate(103.195 235.481) rotate(-26.1147) scale(3.22899)">
<stop stop-color="#6E97C9"/>
<stop offset="1" stop-color="#0075FF"/>
</radialGradient>
<radialGradient id="paint43_radial_4377_288654" cx="0" cy="0" r="1" gradientUnits="userSpaceOnUse" gradientTransform="translate(98.6807 234.618) rotate(-26.1147) scale(3.21847)">
<stop stop-color="#6E97C9"/>
<stop offset="1" stop-color="#0075FF"/>
</radialGradient>
<radialGradient id="paint44_radial_4377_288654" cx="0" cy="0" r="1" gradientUnits="userSpaceOnUse" gradientTransform="translate(101.999 230.939) rotate(-26.1147) scale(3.22373)">
<stop stop-color="#6E97C9"/>
<stop offset="1" stop-color="#0075FF"/>
</radialGradient>
<radialGradient id="paint45_radial_4377_288654" cx="0" cy="0" r="1" gradientUnits="userSpaceOnUse" gradientTransform="translate(386.099 291.028) rotate(-26.1147) scale(3.22898)">
<stop stop-color="#6E97C9"/>
<stop offset="1" stop-color="#0075FF"/>
</radialGradient>
<radialGradient id="paint46_radial_4377_288654" cx="0" cy="0" r="1" gradientUnits="userSpaceOnUse" gradientTransform="translate(381.585 290.165) rotate(-26.1148) scale(3.21847)">
<stop stop-color="#6E97C9"/>
<stop offset="1" stop-color="#0075FF"/>
</radialGradient>
<radialGradient id="paint47_radial_4377_288654" cx="0" cy="0" r="1" gradientUnits="userSpaceOnUse" gradientTransform="translate(384.903 286.485) rotate(-26.1147) scale(3.22373)">
<stop stop-color="#6E97C9"/>
<stop offset="1" stop-color="#0075FF"/>
</radialGradient>
<radialGradient id="paint48_radial_4377_288654" cx="0" cy="0" r="1" gradientUnits="userSpaceOnUse" gradientTransform="translate(338.697 146.352) rotate(-26.1147) scale(3.229)">
<stop stop-color="#6E97C9"/>
<stop offset="1" stop-color="#0075FF"/>
</radialGradient>
<radialGradient id="paint49_radial_4377_288654" cx="0" cy="0" r="1" gradientUnits="userSpaceOnUse" gradientTransform="translate(334.182 145.488) rotate(-26.1146) scale(3.21848)">
<stop stop-color="#6E97C9"/>
<stop offset="1" stop-color="#0075FF"/>
</radialGradient>
<radialGradient id="paint50_radial_4377_288654" cx="0" cy="0" r="1" gradientUnits="userSpaceOnUse" gradientTransform="translate(337.501 141.809) rotate(-26.1148) scale(3.22373)">
<stop stop-color="#6E97C9"/>
<stop offset="1" stop-color="#0075FF"/>
</radialGradient>
<radialGradient id="paint51_radial_4377_288654" cx="0" cy="0" r="1" gradientUnits="userSpaceOnUse" gradientTransform="translate(491.658 111.898) rotate(-26.1147) scale(3.229)">
<stop stop-color="#6E97C9"/>
<stop offset="1" stop-color="#0075FF"/>
</radialGradient>
<radialGradient id="paint52_radial_4377_288654" cx="0" cy="0" r="1" gradientUnits="userSpaceOnUse" gradientTransform="translate(487.144 111.034) rotate(-26.1148) scale(3.21847)">
<stop stop-color="#6E97C9"/>
<stop offset="1" stop-color="#0075FF"/>
</radialGradient>
<radialGradient id="paint53_radial_4377_288654" cx="0" cy="0" r="1" gradientUnits="userSpaceOnUse" gradientTransform="translate(490.463 107.355) rotate(-26.1148) scale(3.22373)">
<stop stop-color="#6E97C9"/>
<stop offset="1" stop-color="#0075FF"/>
</radialGradient>
<radialGradient id="paint54_radial_4377_288654" cx="0" cy="0" r="1" gradientUnits="userSpaceOnUse" gradientTransform="translate(441.724 149.841) rotate(-26.1147) scale(1.84539)">
<stop stop-color="#6E97C9"/>
<stop offset="1" stop-color="#0075FF"/>
</radialGradient>
<radialGradient id="paint55_radial_4377_288654" cx="0" cy="0" r="1" gradientUnits="userSpaceOnUse" gradientTransform="translate(439.144 149.348) rotate(-26.1148) scale(1.83925)">
<stop stop-color="#6E97C9"/>
<stop offset="1" stop-color="#0075FF"/>
</radialGradient>
<radialGradient id="paint56_radial_4377_288654" cx="0" cy="0" r="1" gradientUnits="userSpaceOnUse" gradientTransform="translate(441.041 147.245) rotate(-26.1146) scale(1.84233)">
<stop stop-color="#6E97C9"/>
<stop offset="1" stop-color="#0075FF"/>
</radialGradient>
<radialGradient id="paint57_radial_4377_288654" cx="0" cy="0" r="1" gradientUnits="userSpaceOnUse" gradientTransform="translate(258.234 105.799) rotate(-26.1148) scale(2.37595)">
<stop stop-color="#6E97C9"/>
<stop offset="1" stop-color="#0075FF"/>
</radialGradient>
<radialGradient id="paint58_radial_4377_288654" cx="0" cy="0" r="1" gradientUnits="userSpaceOnUse" gradientTransform="translate(254.912 105.164) rotate(-26.1147) scale(2.36851)">
<stop stop-color="#6E97C9"/>
<stop offset="1" stop-color="#0075FF"/>
</radialGradient>
<radialGradient id="paint59_radial_4377_288654" cx="0" cy="0" r="1" gradientUnits="userSpaceOnUse" gradientTransform="translate(257.354 102.456) rotate(-26.1147) scale(2.37202)">
<stop stop-color="#6E97C9"/>
<stop offset="1" stop-color="#0075FF"/>
</radialGradient>
</defs>
</svg>
