<svg width="447" height="394" viewBox="0 0 447 394" fill="none" xmlns="http://www.w3.org/2000/svg">
<path d="M191.9 159C195.2 160.8 190.5 165.1 206.5 169.4C208.9 170.5 209.4 171.2 209.4 171.2C209.4 171.2 203 170.4 197.3 174.6C191.6 178.8 190.2 186.5 185.9 187.7C181.8 188.9 177.5 187.7 177.9 182.9C178.1 179.9 180.5 176.3 181.5 171.9C182.5 167.5 184.5 154.9 191.9 159Z" fill="#F9C78A"/>
<path d="M183 189C181.3 189 179.7 188.5 178.6 187.6C177.7 186.8 176.6 185.4 176.8 182.7C176.9 181 177.7 179.1 178.5 177.1C179.2 175.3 180 173.5 180.4 171.5C180.5 171.2 180.6 170.8 180.7 170.3C181.6 166.2 183.1 159.3 187 157.4C188.6 156.7 190.3 156.9 192.2 157.9C193.5 158.6 193.9 159.7 194.2 160.7C194.9 162.7 195.9 165.4 206.6 168.2C206.7 168.2 206.7 168.2 206.8 168.3C209.2 169.4 209.9 170.1 210 170.3C210.3 170.6 210.3 171.1 210.1 171.4C209.9 171.8 209.5 172 209.1 171.9C209 171.9 203 171.3 197.7 175.1C195.1 177 193.4 179.8 191.8 182.3C190.1 185.1 188.5 187.7 186 188.4C185.1 188.9 184 189 183 189ZM189.1 159.2C188.7 159.2 188.3 159.3 187.9 159.5C184.8 160.9 183.4 167.4 182.7 170.9C182.6 171.3 182.5 171.8 182.4 172.1C181.9 174.3 181.1 176.2 180.4 178C179.6 179.9 178.9 181.6 178.8 183C178.7 184.4 179.1 185.5 179.9 186.2C181.1 187.2 183.2 187.4 185.5 186.7C187.3 186.2 188.6 184 190.2 181.5C191.8 178.9 193.6 175.9 196.6 173.7C199.8 171.4 203.2 170.5 205.7 170.2C194.4 167.1 193.3 163.9 192.5 161.6C192.2 160.7 192 160.3 191.4 159.9C190.6 159.4 189.8 159.2 189.1 159.2Z" fill="#943020"/>
</svg>
