<svg width="447" height="394" viewBox="0 0 447 394" fill="none" xmlns="http://www.w3.org/2000/svg">
<path opacity="0.5" d="M286.8 198.3C286.9 201.1 287.8 206 291.5 212.5C295.2 219 300 226 300 226C300 226 301 227.3 303.3 226.3C305.6 225.3 311.3 226.5 312.5 229.6C313.7 232.8 310.8 239.4 300.5 238.4C290.2 237.4 289 230.2 289.5 227.7C290 225.2 294.5 224.9 294.5 224.9C294.5 224.9 291 220.2 286.2 215.1C281.4 209.9 271.7 206.9 268 206.8C264.3 206.6 260 202.5 255.3 197.8C255.3 197.8 256 191.8 262.3 192.5C268.6 193.2 269.6 189.4 276.3 190C283.4 190.6 286.5 192 286.8 198.3Z" fill="#FCF680"/>
<path opacity="0.22" d="M294.4 228.1C297 227.2 298.7 228.7 300.9 228.4C303.1 228.1 308 228.2 308.7 229.7C309.4 231.2 310.2 235.6 299.8 236.3C291.9 236.6 291.9 229 294.4 228.1Z" fill="#E6E6E4"/>
<path d="M286.8 197.4C286.9 200.2 287.7 206.1 291.4 212.6C295.1 219.1 300 225.1 300 225.1C300 225.1 301.7 226.3 304.2 225.9C307.1 225.3 310.8 226.2 312 229.4C313.2 232.6 311 239.7 299.9 239C289.5 238.4 288.2 231.5 289 229.1C289.9 226.4 294.8 225.1 294.8 225.1C294.8 225.1 290.2 220 285.7 215.6C280.6 210.7 273.6 208.9 268.9 207.8C265.3 207 262.8 204.2 256 198.7" stroke="#943020" stroke-width="2" stroke-miterlimit="10" stroke-linecap="round" stroke-linejoin="round"/>
</svg>
