<svg width="593" height="427" viewBox="0 0 593 427" fill="none" xmlns="http://www.w3.org/2000/svg">
<path d="M70.6885 56.1936C82.1025 68.1625 89.7898 84.2998 92.2006 101.362C92.9016 106.308 93.4428 111.897 97.0589 114.993C101.487 118.799 108.116 116.641 112.716 113.09C126.184 102.689 132.47 82.2491 147.955 76.0435C151.202 74.7434 154.757 74.1269 157.585 71.969C160.414 69.7977 162.173 65.2272 160.082 62.2115C157.868 59.0216 153.391 59.8124 149.824 60.7104C129.493 65.7768 107.649 63.3642 88.6583 53.9419C85.0545 52.1592 81.4015 50.0818 77.441 50.0013C73.4928 49.9209 68.0687 53.4593 70.6885 56.1936Z" fill="url(#paint0_linear_4841_343170)"/>
<path d="M96.4449 320.896C94.009 314.063 91.9892 307.072 90.3979 299.996C89.1982 294.667 88.2312 289.277 87.7048 283.838C87.2519 279.12 87.7416 273.266 92.0382 271.261C94.9148 269.917 98.3912 270.992 100.962 272.862C103.52 274.732 105.467 277.299 107.805 279.45C112.444 283.703 118.418 286.099 123.926 289.142C129.434 292.186 134.857 296.317 136.828 302.281C121.955 301.951 107.021 308.185 96.4449 320.896Z" fill="url(#paint1_linear_4841_343170)"/>
<path d="M70.8983 351.599C75.3907 342.346 79.8954 333.094 84.3879 323.842C85.4895 321.569 86.6402 319.234 88.5131 317.535C90.3859 315.836 93.1769 314.895 95.5027 315.873C97.6694 316.79 98.9179 319.149 99.2852 321.471C99.6524 323.793 99.2852 326.152 99.1383 328.499C98.5874 337.555 101.391 346.783 106.911 353.994C108.099 355.546 109.433 357.062 110.021 358.92C110.608 360.778 110.216 363.136 108.527 364.139C107.364 364.835 105.908 364.713 104.561 364.579C96.3963 363.747 88.2315 362.929 80.0668 362.097C76.8841 361.78 73.4934 361.364 71.0574 359.299C68.6337 357.245 67.9114 352.894 70.8983 351.599Z" fill="url(#paint2_linear_4841_343170)"/>
<path d="M461.863 62.7999C460.541 67.0044 462.977 71.5266 466.148 74.5821C469.318 77.6499 473.26 79.8621 476.222 83.1255C482.257 89.7866 483.175 99.4544 484.546 108.34C487.447 127.125 493.751 145.385 503.054 161.959C513.729 153.721 514.475 138.333 516.507 125.023C519.776 103.622 528.81 83.1255 542.397 66.2588C544.331 63.851 546.4 60.3677 544.392 58.0088C543.095 56.481 540.781 56.4688 538.786 56.5788C513.496 57.9355 488.194 59.2921 461.863 62.7999Z" fill="url(#paint3_linear_4841_343170)"/>
<path d="M519.691 256.119C521.674 261.521 519.972 267.73 516.667 272.448C513.374 277.166 508.674 280.698 504.047 284.145C494.474 291.282 484.89 298.42 475.317 305.57C473.616 306.841 471.792 308.271 471.253 310.337C470.506 313.209 472.661 316.179 475.366 317.426C478.071 318.66 481.156 318.611 484.131 318.624C503.116 318.672 522.09 322.021 539.937 328.511C543.597 329.844 547.821 331.274 551.211 329.355C555.973 326.666 555.496 319.662 553.672 314.505C551.065 307.122 547.062 300.327 543.096 293.58C535.457 280.588 527.807 267.596 520.168 254.604C519.666 255.3 519.177 256.009 519.691 256.119Z" fill="url(#paint4_linear_4841_343170)"/>
<path d="M11.0762 47.9141C11.0762 47.9141 10.4274 50.9941 11.1006 51.6174C16.5234 56.7385 25.6307 66.9318 36.1702 77.0885C45.6325 86.1941 46.1099 103.843 39.561 115.234C32.4 127.689 23.5375 137.063 18.0903 149.016C5.13926 177.47 3.5112 222.447 15.2748 251.414C22.803 269.967 38.7776 275.26 42.254 294.974C44.5064 307.722 33.8689 326.911 26.4509 341.541C22.3624 349.595 19.8407 356.403 18.788 359.446C18.4085 360.546 19.143 361.145 19.143 361.145L72.6362 359.373C72.6362 359.373 80.8254 348.165 82.2209 345.77C88.8188 334.366 96.7632 321.35 98.4648 308.296C100.35 293.801 96.5552 279.379 88.5985 267.12C79.3443 252.881 74.9498 242.37 70.4695 228.449C63.2963 206.143 65.3038 177.763 77.9366 153.38C87.2887 135.327 104.475 116.774 105.418 96.473C105.785 88.4552 99.5787 76.013 92.3565 66.5041C85.1343 56.983 77.8142 50.0896 77.8142 50.0896L11.0762 47.9141Z" fill="url(#paint5_diamond_4841_343170)"/>
<path d="M69.4291 357.086C71.0326 358.797 70.8123 358.687 72.4159 360.398C79.8217 349.753 87.2887 339.022 92.4299 327.105C97.5711 315.201 100.276 301.891 97.7548 289.167C94.7802 274.183 85.0119 261.606 78.2671 247.905C69.4413 229.987 65.818 210.847 67.7398 190.986C69.6616 171.125 77.1042 150.543 89.1983 134.642C95.5881 126.233 101.06 117.421 104.34 107.838C108.747 94.9317 104.94 82.7339 93.5561 67.6517C88.2802 60.6605 83.8367 55.4294 76.9083 49.7461C76.5288 50.6994 76.7492 52.2517 76.3697 53.205C87.9987 64.6694 99.1625 78.9694 99.9337 95.2617C100.362 104.477 96.8979 113.461 92.3075 121.466C87.7171 129.472 81.9761 136.756 77.2511 144.676C61.4602 171.113 57.8246 204.467 67.5562 233.666C75.0232 256.094 94.0213 277.018 94.364 296.513C94.5599 307.598 91.9892 320.481 86.4808 330.112C80.9478 339.755 75.3537 349.948 69.4291 357.086Z" fill="#8ACF60" stroke="#9FCBD6" stroke-miterlimit="10"/>
<path d="M72.1466 359.8C71.5468 358.786 70.9592 357.771 70.3594 356.744C53.0506 358.113 35.9989 359.763 18.6289 359.861C18.8003 361.34 19.0206 362.061 19.0206 362.061C19.0206 362.061 56.5516 361.377 72.1466 359.8Z" fill="#8ACF60" stroke="#9FCBD6" stroke-miterlimit="10"/>
<path d="M10.7093 51.1031L10.6113 47.9009L76.9821 49.8564L76.6149 53.4986L10.7093 51.1031Z" fill="#8ACF60" stroke="#9FCBD6" stroke-miterlimit="10"/>
<path d="M43.5395 153.538C39.9407 158.414 38.4717 164.794 39.5612 170.747C39.8917 172.543 40.6017 174.499 42.2664 175.269C43.6007 175.892 45.2043 175.562 46.5141 174.89C48.9256 173.656 50.676 171.394 51.7899 168.938C52.9039 166.481 53.4547 163.817 54.0056 161.164C54.5075 158.744 54.9726 156.129 53.8954 153.904C52.9406 151.949 50.7617 150.641 48.5828 150.727C46.3917 150.824 44.4086 152.34 43.5395 153.538Z" fill="url(#paint6_linear_4841_343170)"/>
<path d="M111.477 371.997C91.9889 371.606 72.489 371.203 53.0013 370.812C51.7894 366.962 48.6312 363.784 44.7998 362.525C51.5936 361.352 58.5465 361.132 65.4014 361.89C67.8496 362.158 70.4325 362.537 72.7216 361.621C76.1858 360.227 77.8873 356.365 80.7761 353.994C84.7667 350.718 90.7281 350.718 95.4409 352.821C100.166 354.911 103.863 358.748 107.168 362.733C109.396 365.422 111.624 368.575 111.477 371.997Z" fill="#85B767"/>
<path d="M20.3672 362.011L22.5461 364.566L73.3096 363.295L72.4037 359.86L20.3672 362.011Z" fill="#8ACF5F" stroke="#9FCBD6" stroke-miterlimit="10"/>
<path d="M111.612 372.205C111.612 372.205 113.742 368.33 113.889 368.367C111.22 364.456 108.527 360.508 105.173 357.159C101.807 353.81 97.7059 351.072 93.0666 350.058C84.9752 348.298 77.2389 352.466 72.2568 359.995C72.7587 361.156 72.9423 362.329 73.4442 363.49C75.2559 360.887 78.3896 357.66 80.9235 355.754C83.3227 353.945 85.4526 353.395 88.4395 353.04C92.8095 352.527 97.1673 354.495 100.485 357.379C103.802 360.264 106.238 363.991 108.637 367.658C109.531 369.051 110.424 370.432 111.612 372.205Z" fill="#8ACF5F" stroke="#9FCBD6" stroke-miterlimit="10"/>
<path d="M101.097 342.567C104.953 337.262 111.967 335.025 118.528 335.221C125.089 335.417 131.394 337.665 137.6 339.792C200.457 361.205 267.355 370.751 333.701 367.757C374.512 365.923 415.055 359.397 455.903 358.651C496.751 357.905 540.758 361.548 576.171 381.91C581.19 370.885 580.051 352.894 577.799 344.828C576.563 340.415 568.753 337.091 565.203 334.793C551.126 325.688 535.751 319.662 519.066 317.988C502.382 316.313 485.575 318.428 468.903 320.175C361.978 331.395 253.485 327.643 147.588 309.065C139.326 307.611 130.928 303.627 122.58 304.568C114.244 305.509 103.961 308.723 99.518 315.837C95.0745 322.938 97.8287 336.627 101.097 342.567Z" fill="url(#paint7_diamond_4841_343170)"/>
<path d="M114.33 369.04C114.33 369.04 117.524 367.255 117.733 365.789C110.939 356.182 103.619 346.404 100.791 336.284C97.9633 326.164 98.9181 314.81 107.989 309.517C115.603 305.069 127.868 306.23 137.122 308.503C168.9 316.313 188.596 318.635 238.16 323.096C275.507 326.457 315.486 329.611 354.143 329.489C373.839 329.427 395.016 327.912 411.554 326.409C425.459 325.15 439.218 321.923 453.185 321.874C477.337 321.789 503.569 319.21 518.895 319.906C531.148 320.456 561.274 330.796 576.318 343.459C576.318 343.459 581.802 343.789 580.051 342.065C567.516 329.464 537.918 316.863 516.08 315.066C498.391 313.6 478.806 315.47 450.492 316.203C417.417 317.059 384.036 323.695 350.593 325.052C340.544 325.455 235.809 318.146 198.817 314.15C177.383 311.827 164.971 308.503 138.126 303.993C131.026 302.795 119.336 301.255 110.425 303.675C101.513 306.095 94.6582 316.557 94.6093 325.663C94.5848 331.285 95.0744 334.805 96.9718 340.097C98.8691 345.39 101.758 350.266 104.635 355.106C107.413 359.8 111.526 365.214 114.33 369.04Z" fill="#8ACF5F" stroke="#9FCBD6" stroke-miterlimit="10"/>
<path d="M576.036 382.215L581.924 380.455L580.296 342.7L576.171 343.226L576.036 382.215Z" fill="#8ACF5F" stroke="#9FCBD6" stroke-miterlimit="10"/>
<path d="M175.951 328.303C174.409 329.208 174.605 331.725 175.315 333.363C176.257 335.539 178.559 336.749 180.689 337.8C183.651 339.254 186.736 340.745 190.041 340.819C193.346 340.892 196.932 339.108 197.851 335.942C198.548 333.547 198.108 330.699 196.565 328.731C194.986 326.714 187.164 321.764 175.951 328.303Z" fill="url(#paint8_linear_4841_343170)"/>
<path d="M434.591 333.473C432.939 335.82 433.588 339.474 435.962 341.112C438.594 342.921 442.854 342.261 445.963 341.552C449.342 340.782 455.058 339.12 453.541 336.321C449.452 328.829 436.244 331.114 434.591 333.473Z" fill="url(#paint9_linear_4841_343170)"/>
<path d="M577.745 380.492L582 379.636L581.34 339.425L577.026 342.689L577.745 380.492Z" fill="#8ACF5F" stroke="#9FCBD6" stroke-miterlimit="10"/>
<path d="M570.875 333.877C562.813 322.192 559.407 307.648 558.582 293.299C557.769 278.963 559.36 264.601 560.421 250.277C563.12 213.794 562.33 177.041 558.064 140.717C556.826 130.181 555.306 119.401 557.569 109.061C559.831 98.7091 566.078 92.3902 576.862 86.5602C576.862 86.5602 556.036 51.2136 555.942 53.1936C538.582 50.5414 523.355 67.958 516.071 84.5069C508.788 101.056 508.917 119.988 509.848 138.15C511.899 178.422 517.226 218.426 522.553 258.368C524.262 271.152 526.006 284.145 531.063 295.939C538.605 313.551 553.561 327.57 570.875 333.877Z" fill="url(#paint10_radial_4841_343170)"/>
<path d="M556.885 53.9143L555.73 49.4165C555.73 49.4165 544.816 52.7532 534.716 57.0921C526.43 60.6487 519.559 67.6521 515.753 74.1176C505.581 91.4365 505.876 106.238 505.723 123.055C505.287 171.736 513.384 220.075 520.856 268.145C522.753 280.38 524.757 292.895 530.638 303.688C540.585 321.923 558.888 333.375 577.015 342.615C577.015 342.615 582.519 340.061 581.269 339.425C563.438 329.452 542.871 316.998 533.113 298.579C527.079 287.188 525.134 274.012 523.449 261.142C520.149 235.891 517.461 210.554 514.786 185.218C512.417 162.839 510.048 140.362 510.791 117.873C511.286 102.913 513.36 87.4154 521.256 74.8876C529.153 62.3598 544.003 55.6009 556.885 53.9143Z" fill="#8ACF5F" stroke="#9FCBD6" stroke-miterlimit="10"/>
<path d="M540.809 257.292C541.022 258.148 543.52 260.152 544.369 260.079C545.135 260.006 545.689 259.297 546.089 258.612C548.871 253.858 549.012 247.869 547.916 242.43C547.716 241.428 547.468 240.413 546.903 239.582C546.337 238.751 545.406 238.103 544.428 238.177C542.778 238.299 541.87 240.193 541.352 241.831C540.456 244.691 539.454 247.686 539.631 250.692C539.819 253.675 540.597 256.437 540.809 257.292Z" fill="url(#paint11_linear_4841_343170)"/>
<path d="M524.451 146.376C524.722 149.798 527.739 153.611 530.992 152.963C534.256 152.316 535.435 147.659 534.916 144.261C534.398 140.863 534.056 137.624 531.605 135.302C530.956 134.691 529.377 133.481 528.552 133.2C527.715 132.919 525.83 133.933 525.217 134.569C524.604 135.204 524.498 136.182 524.451 137.074C524.262 140.203 524.215 143.344 524.451 146.376Z" fill="url(#paint12_linear_4841_343170)"/>
<path d="M10.9043 48.0964L11.0389 44.3931L76.8222 45.6153L77.0792 50.1131L10.9043 48.0964Z" fill="#8ACF5F" stroke="#9FCBD6" stroke-miterlimit="10"/>
<path d="M557.613 49.7096C557.613 49.7096 556.021 46.3485 554.748 47.5585C511.378 63.3618 464.434 54.6596 418.506 50.0518C338.131 41.9852 256.814 43.3907 176.77 54.2318C151.774 57.6174 127.916 61.1007 105.123 56.8963C96.9832 55.3929 85.8439 50.174 78.3524 46.2385C77.6546 45.8718 76.6876 45.6152 76.8222 45.6763C76.8222 45.6763 76.8835 50.1129 76.9691 50.0029C82.5143 54.3174 89.0633 57.7763 95.6122 60.3307C107.804 65.0852 121.196 65.8796 135.542 64.4496C152.545 62.7629 212.453 55.0507 253.264 52.6552C319.06 50.5652 385.271 48.5118 450.381 58.1429C471.081 61.1985 491.548 63.6185 513.337 61.5529C531.429 59.8418 556.364 50.1374 557.613 49.7096Z" fill="#8ACF5F" stroke="#9FCBD6" stroke-miterlimit="10"/>
<path d="M118.075 77.7111C133.07 67.2366 152.019 64.5355 170.209 62.5066C261.845 52.2766 354.559 51.7511 446.305 60.9422C459.513 62.2622 473.774 64.2911 483.163 73.6533C492.013 82.4777 494.363 95.7022 496.285 108.047C499.431 128.213 502.565 148.392 504.915 168.828C508.012 197.599 511.109 226.382 514.218 255.153C515.712 269.062 516.997 284.047 506.531 297.772C508.086 298.383 509.64 299.007 511.207 299.618C499.762 311.693 481.927 314.712 465.377 316.558C406.497 323.133 346.908 323.243 286.94 316.521C233.569 315.042 180.345 308.32 128.284 296.489C119.972 294.607 111.354 292.407 104.683 287.371C86.1379 263.037 69.6371 234.926 69.7595 204.358C69.8696 177.42 82.8451 152.377 96.1266 128.934C104.989 113.266 114.341 97.2177 118.075 77.7111Z" fill="#F2FFE9"/>
<path d="M117.616 77.2815C132.393 66.8112 151.068 64.1111 168.994 62.083C259.302 51.8571 350.672 51.3317 441.088 60.5192C454.105 61.8387 468.159 63.8668 477.412 73.2253C486.134 82.0462 488.45 95.2654 490.344 107.605C493.444 127.764 496.533 147.935 498.849 168.362C501.901 197.122 504.953 225.894 508.017 254.653C509.489 268.557 510.755 283.535 500.441 297.255C501.973 297.866 503.505 298.489 505.049 299.1C493.77 311.171 476.193 314.189 459.883 316.034C401.858 322.607 343.132 322.716 284.033 315.997C231.435 314.519 178.983 307.799 127.677 295.973C119.485 294.091 110.993 291.892 104.418 286.858C86.1417 262.534 69.88 234.434 70.0007 203.878C70.1092 176.951 82.8966 151.917 95.9856 128.485C104.72 112.822 113.936 96.7804 117.616 77.2815Z" fill="#F2FFE9"/>
<path d="M519.559 255.88C514.217 218.367 506.833 170.349 502.31 115.71C501.111 101.186 498.52 86.1615 490.329 74.0928C482.138 62.0363 471.881 58.8115 452.161 56.9181C426.342 54.4384 371.242 49.4302 310.287 50.0532C254.111 50.6273 193.009 56.3929 144.194 63.9541C135.905 65.2367 127.372 66.7026 120.342 71.2711C113.313 75.8274 108.985 85.3309 108.349 94.9076C107.53 107.086 91.4171 127.828 82.0647 145.039C74.1427 159.6 68.7881 175.846 67.3944 192.361C66.3308 205.102 67.5777 212.284 69.2404 222.081C73.6782 248.234 88.2263 272.396 104.327 291.5C109.107 297.18 118.411 300.136 127.139 302.555C143.472 307.502 160.368 310.593 177.398 311.765C177.398 311.765 231.544 319.51 267.29 321.379C337.708 326.338 409.617 330.369 474.619 316.468C489.962 313.182 506.931 308.821 515.342 295.592C522.616 284.11 521.479 269.342 519.559 255.88ZM503.153 300.002C493.568 307.075 481.184 308.528 469.448 310.556C438.542 315.87 398.981 319.266 377.978 318.545C296.264 315.735 187.166 307.295 127.103 295.226C122.689 294.334 116.014 292.636 112.408 289.937C108.801 287.237 102.004 281.142 99.6936 277.318C94.7546 269.158 90.488 262.318 85.7934 254.012C75.5242 235.847 71.0864 219.357 72.0155 198.518C72.9447 177.678 79.852 155.618 91.6983 138.443C96.5762 131.37 102.591 122.71 106.772 115.197C113.251 103.58 113.007 88.2992 118.508 81.141C125.513 72.0162 136.308 69.109 144.414 67.8142C154.903 66.1285 167.043 64.2595 175.209 63.49C209.025 60.3384 231.336 59.3856 263.635 57.9442C319.859 55.4279 375.717 55.7943 431.733 61.3279C448.983 63.0258 475.047 61.3279 485.365 77.0856C491.857 86.9921 494.29 101.687 496.209 113.658C500.28 139.054 503.508 168.199 506.393 195.855C508.997 220.786 513.826 253.682 513.752 269.354C513.655 281.252 512.726 292.929 503.153 300.002Z" fill="#8ACF60" stroke="#9FCBD6" stroke-miterlimit="10"/>
<path d="M135.019 250.274C153.285 262.104 200.956 268.526 240.013 224.586L240.904 225.6L240.013 224.586C254.864 208.023 263.774 169.322 235.706 134.677C230.954 128.762 217.737 111.693 195.906 104.257C167.987 94.7928 119.574 98.6798 101.456 141.099C85.8626 177.603 99.0798 226.783 135.019 250.274Z" stroke="#935B9B" stroke-width="2.5554"/>
<path d="M450.786 112.783C432.873 101.963 387.475 98.0674 352.994 143.853L352.096 142.891L352.994 143.853C339.876 161.118 333.592 200.11 362.025 233.127C366.841 238.766 380.272 255.065 401.31 261.324C428.213 269.282 473.745 262.877 488.524 219.702C501.243 182.547 486.041 134.284 450.786 112.783Z" stroke="#935B9B" stroke-width="2.5554"/>
<path d="M156.544 241.215C156.869 238.619 156.706 234.888 154.76 231.319C150.217 223.045 139.186 223.208 138.861 218.665C138.375 213.636 152.002 209.905 151.353 206.498C150.38 202.118 126.37 207.309 120.368 196.927C118.907 194.493 118.583 191.249 119.556 188.491C120.854 184.76 124.585 182.975 131.399 180.542C147.135 174.864 154.273 175.513 155.246 172.43C155.895 170.484 153.949 166.752 140.808 158.803" stroke="#E5231E" stroke-width="2" stroke-miterlimit="10"/>
<path fill-rule="evenodd" clip-rule="evenodd" d="M146.45 163.628C149.33 165.635 151.242 167.252 152.471 168.554C153.453 169.594 153.945 170.372 154.174 170.944L155.592 169.324C155.197 168.655 154.645 167.943 153.926 167.181C152.607 165.784 150.635 164.119 147.775 162.114L146.45 163.628Z" fill="#324A9A"/>
<path fill-rule="evenodd" clip-rule="evenodd" d="M145.899 177.25L145.288 175.34C142.011 176.14 137.837 177.24 132.688 179.025L133.297 180.931C138.457 179.14 142.619 178.049 145.899 177.25Z" fill="#324A9A"/>
<path d="M396.698 147.856C398.064 150.069 400.67 153.194 404.545 155.024C412.617 158.855 419.958 154.063 422.525 157.414C425.786 161.466 416.421 171.264 419.346 174.56C421.39 176.89 428.249 174.227 433.596 172.236C444.197 168.121 449.503 162.98 452.942 165.317C454.409 166.267 454.721 167.834 454.963 168.458C456.221 173.329 450.712 177.621 445.15 184.929C440.499 190.997 433.496 199.92 435.736 204.495C438.164 209.335 450.278 207.925 455.392 207.29" stroke="#E5231E" stroke-width="2" stroke-miterlimit="10"/>
<path d="M372.84 199.302C381.574 201.289 383.952 203.951 384.414 205.931C385.435 210.239 379.177 213.218 379.342 220.466C379.277 221.611 379.503 225.76 382.351 228.219C386.725 232.142 392.844 227.547 400.503 230.278C403.658 231.375 407.086 233.752 410.25 238.756" stroke="#324A9A" stroke-width="2" stroke-miterlimit="10"/>
<path fill-rule="evenodd" clip-rule="evenodd" d="M372.813 200.32C381.538 202.215 383.313 204.749 383.616 206.104L383.617 206.107C383.799 206.912 383.657 207.689 383.256 208.576C382.891 209.385 382.352 210.204 381.717 211.169L381.717 211.169L381.716 211.171C381.63 211.302 381.542 211.436 381.452 211.573C381.037 212.206 380.603 212.883 380.195 213.619C380.422 213.784 380.73 214.007 381.148 214.31C381.403 214.495 381.617 214.649 381.796 214.779C382.196 214.036 382.643 213.334 383.091 212.649C383.178 212.517 383.265 212.385 383.352 212.253L383.352 212.253C383.974 211.308 384.609 210.346 385.043 209.384C385.553 208.255 385.835 207.03 385.529 205.676C384.945 203.065 381.997 200.304 373.202 198.397L372.837 200.086C372.828 200.172 372.82 200.25 372.813 200.32Z" fill="#E5231E"/>
<path d="M189.087 208.755C192.604 199.679 196.147 198.617 197.592 198.481C201.204 198.14 207.133 201.517 210.208 203.996C210.827 204.375 212.408 205.684 214.694 205.978C215.279 205.996 217.342 206.239 218.41 205.191C220.027 203.8 218.672 201.013 218.916 197.419C219.178 193.241 221.52 190.251 224.327 186.78C227.787 182.519 231.779 180.03 234.343 178.622" stroke="#324A9A" stroke-width="2" stroke-miterlimit="10"/>
<path fill-rule="evenodd" clip-rule="evenodd" d="M227.853 182.147C226.538 183.272 225.196 184.583 223.91 186.107L223.909 186.108C222.007 188.37 220.201 190.536 219.061 193.016L220.611 194.354C221.569 192.005 223.295 189.888 225.395 187.392C226.686 185.862 228.039 184.558 229.361 183.448L227.853 182.147Z" fill="#E5231E"/>
<defs>
<linearGradient id="paint0_linear_4841_343170" x1="122.391" y1="84.1848" x2="69.7881" y2="53.6383" gradientUnits="userSpaceOnUse">
<stop stop-color="#3E930E"/>
<stop offset="0.1622" stop-color="#378B0C"/>
<stop offset="0.6676" stop-color="#257605"/>
<stop offset="1" stop-color="#1F6E03"/>
</linearGradient>
<linearGradient id="paint1_linear_4841_343170" x1="98.6526" y1="318.263" x2="112.676" y2="288.658" gradientUnits="userSpaceOnUse">
<stop stop-color="#1F6E03"/>
<stop offset="1" stop-color="#3E930E"/>
</linearGradient>
<linearGradient id="paint2_linear_4841_343170" x1="88.8808" y1="361.699" x2="97.8157" y2="313.42" gradientUnits="userSpaceOnUse">
<stop stop-color="#3E930E"/>
<stop offset="1" stop-color="#1F6E03"/>
</linearGradient>
<linearGradient id="paint3_linear_4841_343170" x1="506.17" y1="145.982" x2="503.156" y2="56.5421" gradientUnits="userSpaceOnUse">
<stop stop-color="#1F6E03"/>
<stop offset="0.3296" stop-color="#227204"/>
<stop offset="0.6572" stop-color="#2C7E08"/>
<stop offset="0.9832" stop-color="#3D920E"/>
<stop offset="1" stop-color="#3E930E"/>
</linearGradient>
<linearGradient id="paint4_linear_4841_343170" x1="542.383" y1="320.661" x2="506.239" y2="292.593" gradientUnits="userSpaceOnUse">
<stop stop-color="#1F6E03"/>
<stop offset="0.6226" stop-color="#35890B"/>
<stop offset="1" stop-color="#3E930E"/>
</linearGradient>
<radialGradient id="paint5_diamond_4841_343170" cx="0" cy="0" r="1" gradientUnits="userSpaceOnUse" gradientTransform="translate(56.3865 204.53) rotate(120.22) scale(250.303 78.3412)">
<stop stop-color="#85C259"/>
<stop offset="0.0001" stop-color="#A2DB7A"/>
<stop offset="1" stop-color="#7CB45B"/>
</radialGradient>
<linearGradient id="paint6_linear_4841_343170" x1="36.6559" y1="161.51" x2="53.6741" y2="164.411" gradientUnits="userSpaceOnUse">
<stop stop-color="#4BA00F"/>
<stop offset="0.2576" stop-color="#489D0E"/>
<stop offset="0.4447" stop-color="#40940C"/>
<stop offset="0.5832" stop-color="#358709"/>
<stop offset="0.5871" stop-color="#348609"/>
<stop offset="0.6795" stop-color="#287806"/>
<stop offset="0.7944" stop-color="#217004"/>
<stop offset="1" stop-color="#1F6E03"/>
</linearGradient>
<radialGradient id="paint7_diamond_4841_343170" cx="0" cy="0" r="1" gradientUnits="userSpaceOnUse" gradientTransform="translate(338.459 343.168) rotate(131.718) scale(127.72 794.539)">
<stop stop-color="#B0DF8C"/>
<stop offset="1" stop-color="#82B464"/>
</radialGradient>
<linearGradient id="paint8_linear_4841_343170" x1="184.461" y1="340.293" x2="188.037" y2="326.411" gradientUnits="userSpaceOnUse">
<stop stop-color="#4BA00F"/>
<stop offset="0.1971" stop-color="#479B0E"/>
<stop offset="0.4202" stop-color="#3B8E0B"/>
<stop offset="0.4992" stop-color="#358709"/>
<stop offset="0.512" stop-color="#338508"/>
<stop offset="0.6094" stop-color="#287805"/>
<stop offset="0.7363" stop-color="#217004"/>
<stop offset="1" stop-color="#1F6E03"/>
</linearGradient>
<linearGradient id="paint9_linear_4841_343170" x1="443.726" y1="342.73" x2="443.726" y2="330.932" gradientUnits="userSpaceOnUse">
<stop stop-color="#4BA00F"/>
<stop offset="0.4008" stop-color="#378909"/>
<stop offset="0.4319" stop-color="#358709"/>
<stop offset="0.4526" stop-color="#328308"/>
<stop offset="0.5474" stop-color="#277705"/>
<stop offset="0.6771" stop-color="#217003"/>
<stop offset="1" stop-color="#1F6E03"/>
</linearGradient>
<radialGradient id="paint10_radial_4841_343170" cx="0" cy="0" r="1" gradientUnits="userSpaceOnUse" gradientTransform="translate(543.131 193.401) rotate(90) scale(140.476 33.7312)">
<stop stop-color="#A2DB7A"/>
<stop offset="1" stop-color="#7FB75D"/>
</radialGradient>
<linearGradient id="paint11_linear_4841_343170" x1="548.98" y1="249.684" x2="539.118" y2="248.518" gradientUnits="userSpaceOnUse">
<stop stop-color="#4BA00F"/>
<stop offset="0.2191" stop-color="#489D0E"/>
<stop offset="0.3815" stop-color="#40940C"/>
<stop offset="0.5" stop-color="#358709"/>
<stop offset="0.6115" stop-color="#2C7C06"/>
<stop offset="0.7941" stop-color="#227204"/>
<stop offset="1" stop-color="#1F6E03"/>
</linearGradient>
<linearGradient id="paint12_linear_4841_343170" x1="535.177" y1="142.738" x2="523.138" y2="143.413" gradientUnits="userSpaceOnUse">
<stop stop-color="#4BA00F"/>
<stop offset="0.2131" stop-color="#489C0E"/>
<stop offset="0.4059" stop-color="#3E910C"/>
<stop offset="0.5204" stop-color="#358709"/>
<stop offset="0.5333" stop-color="#338508"/>
<stop offset="0.6254" stop-color="#277805"/>
<stop offset="0.7458" stop-color="#217004"/>
<stop offset="1" stop-color="#1F6E03"/>
</linearGradient>
</defs>
</svg>
