<svg width="593" height="427" viewBox="0 0 593 427" fill="none" xmlns="http://www.w3.org/2000/svg">
<path d="M70.6885 56.1936C82.1025 68.1625 89.7898 84.2998 92.2006 101.362C92.9016 106.308 93.4428 111.897 97.0589 114.993C101.487 118.799 108.116 116.641 112.716 113.09C126.184 102.689 132.47 82.2491 147.955 76.0435C151.202 74.7434 154.757 74.1269 157.585 71.969C160.414 69.7977 162.173 65.2272 160.082 62.2115C157.868 59.0216 153.391 59.8124 149.824 60.7104C129.493 65.7768 107.649 63.3642 88.6583 53.9419C85.0545 52.1592 81.4015 50.0818 77.441 50.0013C73.4928 49.9209 68.0687 53.4593 70.6885 56.1936Z" fill="url(#paint0_linear_4872_346882)"/>
<path d="M96.4449 320.896C94.009 314.063 91.9892 307.072 90.3979 299.996C89.1982 294.667 88.2312 289.277 87.7048 283.838C87.2519 279.12 87.7416 273.266 92.0382 271.261C94.9148 269.917 98.3912 270.992 100.962 272.862C103.52 274.732 105.467 277.299 107.805 279.45C112.444 283.703 118.418 286.099 123.926 289.142C129.434 292.186 134.857 296.317 136.828 302.281C121.955 301.951 107.021 308.185 96.4449 320.896Z" fill="url(#paint1_linear_4872_346882)"/>
<path d="M70.8983 351.599C75.3907 342.346 79.8954 333.094 84.3879 323.842C85.4895 321.569 86.6402 319.234 88.5131 317.535C90.3859 315.836 93.1769 314.895 95.5027 315.873C97.6694 316.79 98.9179 319.149 99.2852 321.471C99.6524 323.793 99.2852 326.152 99.1383 328.499C98.5874 337.555 101.391 346.783 106.911 353.994C108.099 355.546 109.433 357.062 110.021 358.92C110.608 360.778 110.216 363.136 108.527 364.139C107.364 364.835 105.908 364.713 104.561 364.579C96.3963 363.747 88.2315 362.929 80.0668 362.097C76.8841 361.78 73.4934 361.364 71.0574 359.299C68.6337 357.245 67.9114 352.894 70.8983 351.599Z" fill="url(#paint2_linear_4872_346882)"/>
<path d="M461.863 62.7999C460.541 67.0044 462.977 71.5266 466.148 74.5821C469.318 77.6499 473.26 79.8621 476.222 83.1255C482.257 89.7866 483.175 99.4544 484.546 108.34C487.447 127.125 493.751 145.385 503.054 161.959C513.729 153.721 514.475 138.333 516.507 125.023C519.776 103.622 528.81 83.1255 542.397 66.2588C544.331 63.851 546.4 60.3677 544.392 58.0088C543.095 56.481 540.781 56.4688 538.786 56.5788C513.496 57.9355 488.194 59.2921 461.863 62.7999Z" fill="url(#paint3_linear_4872_346882)"/>
<path d="M519.691 256.119C521.674 261.521 519.972 267.73 516.667 272.448C513.374 277.166 508.674 280.698 504.047 284.145C494.474 291.282 484.89 298.42 475.317 305.57C473.616 306.841 471.792 308.271 471.253 310.337C470.506 313.209 472.661 316.179 475.366 317.426C478.071 318.66 481.156 318.611 484.131 318.624C503.116 318.672 522.09 322.021 539.937 328.511C543.597 329.844 547.821 331.274 551.211 329.355C555.973 326.666 555.496 319.662 553.672 314.505C551.065 307.122 547.062 300.327 543.096 293.58C535.457 280.588 527.807 267.596 520.168 254.604C519.666 255.3 519.177 256.009 519.691 256.119Z" fill="url(#paint4_linear_4872_346882)"/>
<path d="M11.0762 47.9141C11.0762 47.9141 10.4274 50.9941 11.1006 51.6174C16.5234 56.7385 25.6307 66.9318 36.1702 77.0885C45.6325 86.1941 46.1099 103.843 39.561 115.234C32.4 127.689 23.5375 137.063 18.0903 149.016C5.13926 177.47 3.5112 222.447 15.2748 251.414C22.803 269.967 38.7776 275.26 42.254 294.974C44.5064 307.722 33.8689 326.911 26.4509 341.541C22.3624 349.595 19.8407 356.403 18.788 359.446C18.4085 360.546 19.143 361.145 19.143 361.145L72.6362 359.373C72.6362 359.373 80.8254 348.165 82.2209 345.77C88.8188 334.366 96.7632 321.35 98.4648 308.296C100.35 293.801 96.5552 279.379 88.5985 267.12C79.3443 252.881 74.9498 242.37 70.4695 228.449C63.2963 206.143 65.3038 177.763 77.9366 153.38C87.2887 135.327 104.475 116.774 105.418 96.473C105.785 88.4552 99.5787 76.013 92.3565 66.5041C85.1343 56.983 77.8142 50.0896 77.8142 50.0896L11.0762 47.9141Z" fill="url(#paint5_diamond_4872_346882)"/>
<path d="M69.4291 357.086C71.0326 358.797 70.8123 358.687 72.4159 360.398C79.8217 349.753 87.2887 339.022 92.4299 327.105C97.5711 315.201 100.276 301.891 97.7548 289.167C94.7802 274.183 85.0119 261.606 78.2671 247.905C69.4413 229.987 65.818 210.847 67.7398 190.986C69.6616 171.125 77.1042 150.543 89.1983 134.642C95.5881 126.233 101.06 117.421 104.34 107.838C108.747 94.9317 104.94 82.7339 93.5561 67.6517C88.2802 60.6605 83.8367 55.4294 76.9083 49.7461C76.5288 50.6994 76.7492 52.2517 76.3697 53.205C87.9987 64.6694 99.1625 78.9694 99.9337 95.2617C100.362 104.477 96.8979 113.461 92.3075 121.466C87.7171 129.472 81.9761 136.756 77.2511 144.676C61.4602 171.113 57.8246 204.467 67.5562 233.666C75.0232 256.094 94.0213 277.018 94.364 296.513C94.5599 307.598 91.9892 320.481 86.4808 330.112C80.9478 339.755 75.3537 349.948 69.4291 357.086Z" fill="#8ACF60" stroke="#9FCBD6" stroke-miterlimit="10"/>
<path d="M72.1466 359.8C71.5468 358.785 70.9592 357.771 70.3594 356.744C53.0506 358.113 35.9989 359.763 18.6289 359.861C18.8003 361.34 19.0206 362.061 19.0206 362.061C19.0206 362.061 56.5516 361.376 72.1466 359.8Z" fill="#8ACF60" stroke="#9FCBD6" stroke-miterlimit="10"/>
<path d="M10.7093 51.1031L10.6113 47.9009L76.9821 49.8564L76.6149 53.4986L10.7093 51.1031Z" fill="#8ACF60" stroke="#9FCBD6" stroke-miterlimit="10"/>
<path d="M43.5395 153.538C39.9407 158.414 38.4717 164.794 39.5612 170.747C39.8917 172.543 40.6017 174.499 42.2664 175.269C43.6007 175.892 45.2043 175.562 46.5141 174.89C48.9256 173.656 50.676 171.394 51.7899 168.938C52.9039 166.481 53.4547 163.817 54.0056 161.164C54.5075 158.744 54.9726 156.129 53.8954 153.904C52.9406 151.949 50.7617 150.641 48.5828 150.727C46.3917 150.824 44.4086 152.34 43.5395 153.538Z" fill="url(#paint6_linear_4872_346882)"/>
<path d="M111.477 371.997C91.9889 371.606 72.489 371.203 53.0013 370.811C51.7894 366.961 48.6312 363.784 44.7998 362.525C51.5936 361.351 58.5465 361.132 65.4014 361.889C67.8496 362.158 70.4325 362.537 72.7216 361.62C76.1858 360.227 77.8873 356.365 80.7761 353.994C84.7667 350.718 90.7281 350.718 95.4409 352.82C100.166 354.91 103.863 358.748 107.168 362.733C109.396 365.422 111.624 368.575 111.477 371.997Z" fill="#85B767"/>
<path d="M20.3672 362.011L22.5461 364.565L73.3096 363.294L72.4037 359.86L20.3672 362.011Z" fill="#8ACF5F" stroke="#9FCBD6" stroke-miterlimit="10"/>
<path d="M111.612 372.205C111.612 372.205 113.742 368.33 113.889 368.367C111.22 364.456 108.527 360.508 105.173 357.159C101.807 353.81 97.7059 351.072 93.0666 350.058C84.9752 348.298 77.2389 352.466 72.2568 359.995C72.7587 361.156 72.9423 362.329 73.4442 363.49C75.2559 360.887 78.3896 357.66 80.9235 355.754C83.3227 353.945 85.4526 353.395 88.4395 353.04C92.8095 352.527 97.1673 354.495 100.485 357.379C103.802 360.264 106.238 363.991 108.637 367.658C109.531 369.051 110.424 370.432 111.612 372.205Z" fill="#8ACF5F" stroke="#9FCBD6" stroke-miterlimit="10"/>
<path d="M101.097 342.566C104.953 337.262 111.967 335.025 118.528 335.221C125.089 335.416 131.394 337.665 137.6 339.792C200.457 361.205 267.355 370.751 333.701 367.756C374.512 365.923 415.055 359.396 455.903 358.651C496.751 357.905 540.758 361.547 576.171 381.91C581.19 370.885 580.051 352.894 577.799 344.827C576.563 340.415 568.753 337.091 565.203 334.793C551.126 325.687 535.751 319.662 519.066 317.987C502.382 316.313 485.575 318.427 468.903 320.175C361.978 331.395 253.485 327.643 147.588 309.065C139.326 307.611 130.928 303.626 122.58 304.567C114.244 305.509 103.961 308.723 99.518 315.836C95.0745 322.937 97.8287 336.626 101.097 342.566Z" fill="url(#paint7_diamond_4872_346882)"/>
<path d="M114.33 369.04C114.33 369.04 117.524 367.255 117.733 365.789C110.939 356.182 103.619 346.404 100.791 336.284C97.9633 326.164 98.9181 314.81 107.989 309.517C115.603 305.069 127.868 306.23 137.122 308.503C168.9 316.313 188.596 318.635 238.16 323.096C275.507 326.457 315.486 329.611 354.143 329.489C373.839 329.427 395.016 327.912 411.554 326.409C425.459 325.15 439.218 321.923 453.185 321.874C477.337 321.789 503.569 319.21 518.895 319.906C531.148 320.456 561.274 330.796 576.318 343.459C576.318 343.459 581.802 343.789 580.051 342.065C567.516 329.464 537.918 316.863 516.08 315.066C498.391 313.6 478.806 315.47 450.492 316.203C417.417 317.059 384.036 323.695 350.593 325.052C340.544 325.455 235.809 318.146 198.817 314.15C177.383 311.827 164.971 308.503 138.126 303.993C131.026 302.795 119.336 301.255 110.425 303.675C101.513 306.095 94.6582 316.557 94.6093 325.663C94.5848 331.285 95.0744 334.805 96.9718 340.097C98.8691 345.39 101.758 350.266 104.635 355.106C107.413 359.8 111.526 365.214 114.33 369.04Z" fill="#8ACF5F" stroke="#9FCBD6" stroke-miterlimit="10"/>
<path d="M576.036 382.215L581.924 380.455L580.296 342.701L576.171 343.226L576.036 382.215Z" fill="#8ACF5F" stroke="#9FCBD6" stroke-miterlimit="10"/>
<path d="M175.951 328.303C174.409 329.207 174.605 331.725 175.315 333.363C176.257 335.539 178.559 336.749 180.689 337.8C183.651 339.254 186.736 340.745 190.041 340.819C193.346 340.892 196.932 339.107 197.851 335.942C198.548 333.546 198.108 330.699 196.565 328.731C194.986 326.714 187.164 321.764 175.951 328.303Z" fill="url(#paint8_linear_4872_346882)"/>
<path d="M434.591 333.473C432.939 335.82 433.588 339.474 435.962 341.112C438.594 342.921 442.854 342.261 445.963 341.552C449.342 340.782 455.058 339.12 453.541 336.321C449.452 328.829 436.244 331.114 434.591 333.473Z" fill="url(#paint9_linear_4872_346882)"/>
<path d="M577.745 380.492L582 379.636L581.34 339.425L577.026 342.689L577.745 380.492Z" fill="#8ACF5F" stroke="#9FCBD6" stroke-miterlimit="10"/>
<path d="M570.875 333.877C562.813 322.192 559.407 307.648 558.582 293.299C557.769 278.963 559.36 264.601 560.421 250.277C563.12 213.794 562.33 177.041 558.064 140.717C556.826 130.181 555.306 119.401 557.569 109.061C559.831 98.7091 566.078 92.3902 576.862 86.5602C576.862 86.5602 556.036 51.2136 555.942 53.1936C538.582 50.5414 523.355 67.958 516.071 84.5069C508.788 101.056 508.917 119.988 509.848 138.15C511.899 178.422 517.226 218.426 522.553 258.368C524.262 271.152 526.006 284.145 531.063 295.939C538.605 313.551 553.561 327.57 570.875 333.877Z" fill="url(#paint10_radial_4872_346882)"/>
<path d="M556.885 53.9143L555.73 49.4165C555.73 49.4165 544.816 52.7532 534.716 57.0921C526.43 60.6487 519.559 67.6521 515.753 74.1176C505.581 91.4365 505.876 106.238 505.723 123.055C505.287 171.736 513.384 220.075 520.856 268.145C522.753 280.38 524.757 292.895 530.638 303.688C540.585 321.923 558.888 333.375 577.015 342.615C577.015 342.615 582.519 340.061 581.269 339.425C563.438 329.452 542.871 316.998 533.113 298.579C527.079 287.188 525.134 274.012 523.449 261.142C520.149 235.891 517.461 210.554 514.786 185.218C512.417 162.839 510.048 140.362 510.791 117.873C511.286 102.913 513.36 87.4154 521.256 74.8876C529.153 62.3598 544.003 55.6009 556.885 53.9143Z" fill="#8ACF5F" stroke="#9FCBD6" stroke-miterlimit="10"/>
<path d="M540.809 257.292C541.022 258.148 543.52 260.152 544.369 260.079C545.135 260.005 545.689 259.297 546.089 258.612C548.871 253.858 549.012 247.869 547.916 242.43C547.716 241.428 547.468 240.413 546.903 239.582C546.337 238.751 545.406 238.103 544.428 238.177C542.778 238.299 541.87 240.193 541.352 241.831C540.456 244.691 539.454 247.685 539.631 250.692C539.819 253.674 540.597 256.437 540.809 257.292Z" fill="url(#paint11_linear_4872_346882)"/>
<path d="M524.451 146.376C524.722 149.798 527.739 153.611 530.992 152.963C534.256 152.316 535.435 147.659 534.916 144.261C534.398 140.863 534.056 137.624 531.605 135.302C530.956 134.691 529.377 133.481 528.552 133.2C527.715 132.919 525.83 133.933 525.217 134.569C524.604 135.204 524.498 136.182 524.451 137.074C524.262 140.203 524.215 143.344 524.451 146.376Z" fill="url(#paint12_linear_4872_346882)"/>
<path d="M10.9043 48.0964L11.0389 44.3931L76.8222 45.6153L77.0792 50.1131L10.9043 48.0964Z" fill="#8ACF5F" stroke="#9FCBD6" stroke-miterlimit="10"/>
<path d="M557.613 49.7098C557.613 49.7098 556.021 46.3487 554.748 47.5587C511.378 63.3621 464.434 54.6598 418.506 50.0521C338.131 41.9854 256.814 43.391 176.77 54.2321C151.774 57.6176 127.916 61.101 105.123 56.8965C96.9832 55.3932 85.8439 50.1743 78.3524 46.2387C77.6546 45.8721 76.6876 45.6154 76.8222 45.6765C76.8222 45.6765 76.8835 50.1132 76.9691 50.0032C82.5143 54.3176 89.0633 57.7765 95.6122 60.331C107.804 65.0854 121.196 65.8798 135.542 64.4498C152.545 62.7632 212.453 55.051 253.264 52.6554C319.06 50.5654 385.271 48.5121 450.381 58.1432C471.081 61.1987 491.548 63.6187 513.337 61.5532C531.429 59.8421 556.364 50.1376 557.613 49.7098Z" fill="#8ACF5F" stroke="#9FCBD6" stroke-miterlimit="10"/>
<path d="M118.075 77.7111C133.07 67.2366 152.019 64.5355 170.209 62.5066C261.845 52.2766 354.559 51.7511 446.305 60.9422C459.513 62.2622 473.774 64.2911 483.163 73.6533C492.013 82.4777 494.363 95.7022 496.285 108.047C499.431 128.213 502.565 148.392 504.915 168.828C508.012 197.599 511.109 226.382 514.218 255.153C515.712 269.062 516.997 284.047 506.531 297.772C508.086 298.383 509.64 299.007 511.207 299.618C499.762 311.693 481.927 314.712 465.377 316.558C406.497 323.133 346.908 323.243 286.94 316.521C233.569 315.042 180.345 308.32 128.284 296.489C119.972 294.607 111.354 292.407 104.683 287.371C86.1379 263.037 69.6371 234.926 69.7595 204.358C69.8696 177.42 82.8451 152.377 96.1266 128.934C104.989 113.266 114.341 97.2177 118.075 77.7111Z" fill="#F2FFE9"/>
<path d="M117.616 77.2815C132.393 66.8112 151.068 64.1111 168.994 62.083C259.302 51.8571 350.672 51.3317 441.088 60.5192C454.105 61.8387 468.159 63.8668 477.412 73.2253C486.134 82.0462 488.45 95.2654 490.344 107.605C493.444 127.764 496.533 147.935 498.849 168.362C501.901 197.122 504.953 225.894 508.017 254.653C509.489 268.557 510.755 283.535 500.441 297.255C501.973 297.866 503.505 298.489 505.049 299.1C493.77 311.171 476.193 314.189 459.883 316.034C401.858 322.607 343.132 322.716 284.033 315.997C231.435 314.519 178.983 307.799 127.677 295.973C119.485 294.091 110.993 291.892 104.418 286.858C86.1417 262.534 69.88 234.434 70.0007 203.878C70.1092 176.951 82.8966 151.917 95.9856 128.485C104.72 112.822 113.936 96.7804 117.616 77.2815Z" fill="#F2FFE9"/>
<path d="M519.559 255.88C514.217 218.367 506.833 170.349 502.31 115.71C501.111 101.186 498.52 86.1615 490.329 74.0928C482.138 62.0363 471.881 58.8115 452.161 56.9181C426.342 54.4384 371.242 49.4302 310.287 50.0532C254.111 50.6273 193.009 56.3929 144.194 63.9541C135.905 65.2367 127.372 66.7026 120.342 71.2711C113.313 75.8274 108.985 85.3309 108.349 94.9076C107.53 107.086 91.4171 127.828 82.0647 145.039C74.1427 159.6 68.7881 175.846 67.3944 192.361C66.3308 205.102 67.5777 212.284 69.2404 222.081C73.6782 248.234 88.2263 272.396 104.327 291.5C109.107 297.18 118.411 300.136 127.139 302.555C143.472 307.502 160.368 310.593 177.398 311.765C177.398 311.765 231.544 319.51 267.29 321.379C337.708 326.338 409.617 330.369 474.619 316.468C489.962 313.182 506.931 308.821 515.342 295.592C522.616 284.11 521.479 269.342 519.559 255.88ZM503.153 300.002C493.568 307.075 481.184 308.528 469.448 310.556C438.542 315.87 398.981 319.266 377.978 318.545C296.264 315.735 187.166 307.295 127.103 295.226C122.689 294.334 116.014 292.636 112.408 289.937C108.801 287.237 102.004 281.142 99.6936 277.318C94.7546 269.158 90.488 262.318 85.7934 254.012C75.5242 235.847 71.0864 219.357 72.0155 198.518C72.9447 177.678 79.852 155.618 91.6983 138.443C96.5762 131.37 102.591 122.71 106.772 115.197C113.251 103.58 113.007 88.2992 118.508 81.141C125.513 72.0162 136.308 69.109 144.414 67.8142C154.903 66.1285 167.043 64.2595 175.209 63.49C209.025 60.3384 231.336 59.3856 263.635 57.9442C319.859 55.4279 375.717 55.7943 431.733 61.3279C448.983 63.0258 475.047 61.3279 485.365 77.0856C491.857 86.9921 494.29 101.687 496.209 113.658C500.28 139.054 503.508 168.199 506.393 195.855C508.997 220.786 513.826 253.682 513.752 269.354C513.655 281.252 512.726 292.929 503.153 300.002Z" fill="#8ACF60" stroke="#9FCBD6" stroke-miterlimit="10"/>
<path d="M273 75H332" stroke="#CE387A" stroke-width="3"/>
<path d="M268.5 85H323.5" stroke="#CE387A" stroke-width="3"/>
<path d="M273 96H326" stroke="#CE387A" stroke-width="3"/>
<path d="M265.5 107H324.5" stroke="#CE387A" stroke-width="3"/>
<path d="M272 117H325.5" stroke="#CE387A" stroke-width="3"/>
<path d="M272 128H328" stroke="#CE387A" stroke-width="3"/>
<path d="M264.5 139H322.5" stroke="#CE387A" stroke-width="3"/>
<path d="M268.5 149H326" stroke="#CE387A" stroke-width="3"/>
<path d="M270 171H326" stroke="#CE387A" stroke-width="3"/>
<path d="M272 181H326" stroke="#CE387A" stroke-width="3"/>
<path d="M267.5 192H322.5" stroke="#CE387A" stroke-width="3"/>
<path d="M268.5 203H326" stroke="#CE387A" stroke-width="3"/>
<path d="M272 213H325" stroke="#CE387A" stroke-width="3"/>
<path d="M269.5 224H322.5" stroke="#CE387A" stroke-width="3"/>
<path d="M266 235H322" stroke="#CE387A" stroke-width="3"/>
<path d="M272 245H326.5" stroke="#CE387A" stroke-width="3"/>
<path d="M276.5 256H322.5" stroke="#CE387A" stroke-width="3"/>
<path d="M268 267H322.5" stroke="#CE387A" stroke-width="3"/>
<path d="M272 277H326" stroke="#CE387A" stroke-width="3"/>
<path d="M272 288H323" stroke="#CE387A" stroke-width="3"/>
<path d="M268 299H322" stroke="#CE387A" stroke-width="3"/>
<circle cx="281" cy="75" r="4.75" fill="url(#paint13_radial_4872_346882)" stroke="#3F3F3F" stroke-width="0.5"/>
<circle cx="309" cy="75" r="4.75" fill="url(#paint14_radial_4872_346882)" stroke="#3F3F3F" stroke-width="0.5"/>
<circle cx="289" cy="85" r="4.75" fill="url(#paint15_radial_4872_346882)" stroke="#3F3F3F" stroke-width="0.5"/>
<circle cx="310" cy="86" r="4.75" fill="url(#paint16_radial_4872_346882)" stroke="#3F3F3F" stroke-width="0.5"/>
<circle cx="281" cy="96" r="4.75" fill="url(#paint17_radial_4872_346882)" stroke="#3F3F3F" stroke-width="0.5"/>
<circle cx="286" cy="107" r="4.75" fill="url(#paint18_radial_4872_346882)" stroke="#3F3F3F" stroke-width="0.5"/>
<circle cx="314" cy="106" r="4.75" fill="url(#paint19_radial_4872_346882)" stroke="#3F3F3F" stroke-width="0.5"/>
<circle cx="305" cy="117" r="4.75" fill="url(#paint20_radial_4872_346882)" stroke="#3F3F3F" stroke-width="0.5"/>
<path d="M295.469 118C295.469 120.623 293.342 122.75 290.719 122.75C288.095 122.75 285.969 120.623 285.969 118C285.969 115.377 288.095 113.25 290.719 113.25C293.342 113.25 295.469 115.377 295.469 118Z" fill="url(#paint21_radial_4872_346882)" stroke="#3F3F3F" stroke-width="0.5"/>
<circle cx="282" cy="127" r="4.75" fill="url(#paint22_radial_4872_346882)" stroke="#3F3F3F" stroke-width="0.5"/>
<circle cx="312" cy="129" r="4.75" fill="url(#paint23_radial_4872_346882)" stroke="#3F3F3F" stroke-width="0.5"/>
<circle cx="289" cy="140" r="4.75" fill="url(#paint24_radial_4872_346882)" stroke="#3F3F3F" stroke-width="0.5"/>
<path d="M307.75 140C307.75 142.623 305.623 144.75 303 144.75C300.377 144.75 298.25 142.623 298.25 140C298.25 137.377 300.377 135.25 303 135.25C305.623 135.25 307.75 137.377 307.75 140Z" fill="url(#paint25_radial_4872_346882)" stroke="#3F3F3F" stroke-width="0.5"/>
<circle cx="282" cy="151" r="4.75" fill="url(#paint26_radial_4872_346882)" stroke="#3F3F3F" stroke-width="0.5"/>
<circle cx="316" cy="149" r="4.75" fill="url(#paint27_radial_4872_346882)" stroke="#3F3F3F" stroke-width="0.5"/>
<circle cx="293" cy="161" r="4.75" fill="url(#paint28_radial_4872_346882)" stroke="#3F3F3F" stroke-width="0.5"/>
<circle cx="305" cy="160" r="4.75" fill="url(#paint29_radial_4872_346882)" stroke="#3F3F3F" stroke-width="0.5"/>
<circle cx="282" cy="172" r="4.75" fill="url(#paint30_radial_4872_346882)" stroke="#3F3F3F" stroke-width="0.5"/>
<circle cx="315" cy="171" r="4.75" fill="url(#paint31_radial_4872_346882)" stroke="#3F3F3F" stroke-width="0.5"/>
<circle cx="286" cy="182" r="4.75" fill="url(#paint32_radial_4872_346882)" stroke="#3F3F3F" stroke-width="0.5"/>
<circle cx="304" cy="181" r="4.75" fill="url(#paint33_radial_4872_346882)" stroke="#3F3F3F" stroke-width="0.5"/>
<circle cx="290" cy="193" r="4.75" fill="url(#paint34_radial_4872_346882)" stroke="#3F3F3F" stroke-width="0.5"/>
<circle cx="280" cy="204" r="4.75" fill="url(#paint35_radial_4872_346882)" stroke="#3F3F3F" stroke-width="0.5"/>
<circle cx="313" cy="192" r="4.75" fill="url(#paint36_radial_4872_346882)" stroke="#3F3F3F" stroke-width="0.5"/>
<circle cx="309" cy="204" r="4.75" fill="url(#paint37_radial_4872_346882)" stroke="#3F3F3F" stroke-width="0.5"/>
<circle cx="281" cy="215" r="4.75" fill="url(#paint38_radial_4872_346882)" stroke="#3F3F3F" stroke-width="0.5"/>
<circle cx="297" cy="215" r="4.75" fill="url(#paint39_radial_4872_346882)" stroke="#3F3F3F" stroke-width="0.5"/>
<circle cx="287" cy="225" r="4.75" fill="url(#paint40_radial_4872_346882)" stroke="#3F3F3F" stroke-width="0.5"/>
<circle cx="309" cy="225" r="4.75" fill="url(#paint41_radial_4872_346882)" stroke="#3F3F3F" stroke-width="0.5"/>
<circle cx="294" cy="236" r="4.75" fill="url(#paint42_radial_4872_346882)" stroke="#3F3F3F" stroke-width="0.5"/>
<circle cx="307" cy="236" r="4.75" fill="url(#paint43_radial_4872_346882)" stroke="#3F3F3F" stroke-width="0.5"/>
<circle cx="289" cy="246" r="4.75" fill="url(#paint44_radial_4872_346882)" stroke="#3F3F3F" stroke-width="0.5"/>
<circle cx="313" cy="245" r="4.75" fill="url(#paint45_radial_4872_346882)" stroke="#3F3F3F" stroke-width="0.5"/>
<circle cx="282" cy="256" r="4.75" fill="url(#paint46_radial_4872_346882)" stroke="#3F3F3F" stroke-width="0.5"/>
<circle cx="293" cy="268" r="4.75" fill="url(#paint47_radial_4872_346882)" stroke="#3F3F3F" stroke-width="0.5"/>
<circle cx="312" cy="267" r="4.75" fill="url(#paint48_radial_4872_346882)" stroke="#3F3F3F" stroke-width="0.5"/>
<circle cx="281" cy="276" r="4.75" fill="url(#paint49_radial_4872_346882)" stroke="#3F3F3F" stroke-width="0.5"/>
<circle cx="301" cy="278" r="4.75" fill="url(#paint50_radial_4872_346882)" stroke="#3F3F3F" stroke-width="0.5"/>
<circle cx="285" cy="288" r="4.75" fill="url(#paint51_radial_4872_346882)" stroke="#3F3F3F" stroke-width="0.5"/>
<circle cx="314" cy="289" r="4.75" fill="url(#paint52_radial_4872_346882)" stroke="#3F3F3F" stroke-width="0.5"/>
<circle cx="308" cy="299" r="4.75" fill="url(#paint53_radial_4872_346882)" stroke="#3F3F3F" stroke-width="0.5"/>
<circle cx="287" cy="298" r="4.75" fill="url(#paint54_radial_4872_346882)" stroke="#3F3F3F" stroke-width="0.5"/>
<circle cx="305" cy="257" r="4.75" fill="url(#paint55_radial_4872_346882)" stroke="#3F3F3F" stroke-width="0.5"/>
<circle cx="302" cy="96" r="4.75" fill="url(#paint56_radial_4872_346882)" stroke="#3F3F3F" stroke-width="0.5"/>
<path d="M135.019 250.274C153.285 262.104 200.956 268.526 240.013 224.586L240.904 225.6L240.013 224.586C254.864 208.023 263.774 169.322 235.706 134.677C230.954 128.762 217.737 111.693 195.906 104.257C167.987 94.7928 119.574 98.6798 101.456 141.099C85.8626 177.603 99.0798 226.783 135.019 250.274Z" stroke="#935B9B" stroke-width="2.5554"/>
<path d="M450.786 112.783C432.873 101.963 387.475 98.0674 352.994 143.853L352.096 142.891L352.994 143.853C339.876 161.118 333.592 200.11 362.025 233.127C366.841 238.766 380.272 255.065 401.31 261.324C428.213 269.282 473.745 262.877 488.524 219.702C501.243 182.547 486.041 134.284 450.786 112.783Z" stroke="#935B9B" stroke-width="2.5554"/>
<path d="M457.856 205.326C455.627 203.957 452.816 201.498 451.247 197.747C447.628 189.03 454.65 180.521 451.307 177.428C447.686 173.905 436.256 182.209 434.002 179.573C431.192 176.076 450.251 160.579 445.899 149.404C444.912 146.744 442.583 144.462 439.821 143.498C436.098 142.179 432.373 143.976 426.214 147.773C411.946 156.507 407.991 162.484 404.976 161.317C403.051 160.607 401.355 156.755 403.364 141.53" stroke="#324A9A" stroke-width="2" stroke-miterlimit="10"/>
<path fill-rule="evenodd" clip-rule="evenodd" d="M403.403 148.936C403.282 152.109 403.405 154.416 403.674 156.081C404.012 158.17 404.552 159.088 404.995 159.497L402.71 159.648C402.286 158.825 401.96 157.752 401.741 156.397C401.452 154.612 401.327 152.232 401.438 149.066L403.403 148.936Z" fill="#E5231E"/>
<path fill-rule="evenodd" clip-rule="evenodd" d="M414.404 156.71L413.338 155.053C415.987 153.042 419.445 150.516 424.085 147.674L425.149 149.327C420.497 152.173 417.055 154.695 414.404 156.71Z" fill="#E5231E"/>
<path d="M123.588 208.719C125.715 207.223 128.678 204.435 130.272 200.456C133.612 192.17 128.39 185.129 131.581 182.366C135.43 178.868 145.771 187.629 148.886 184.511C151.089 182.331 148.02 175.644 145.712 170.426C140.97 160.091 135.52 155.103 137.646 151.53C138.507 150.009 140.052 149.603 140.66 149.324C145.448 147.776 150.062 153.018 157.69 158.133C164.026 162.411 173.353 168.867 177.785 166.357C182.471 163.644 180.337 151.636 179.397 146.569" stroke="#324A9A" stroke-width="2" stroke-miterlimit="10"/>
<path d="M381.579 234.227C388.879 239.419 392.448 239.419 394.233 238.445C398.126 236.336 396.18 229.685 401.695 224.98C402.506 224.169 405.751 221.574 409.482 222.06C415.322 222.709 415.971 230.334 423.109 234.227C426.029 235.85 430.085 236.823 435.925 235.85" stroke="#E5231E" stroke-width="2" stroke-miterlimit="10"/>
<path fill-rule="evenodd" clip-rule="evenodd" d="M382.271 233.491C389.466 238.582 392.538 238.231 393.754 237.567L393.757 237.566C394.48 237.174 394.962 236.566 395.356 235.7C395.716 234.906 395.968 233.979 396.267 232.881L396.267 232.881C396.307 232.731 396.349 232.578 396.392 232.422C396.585 231.718 396.797 230.972 397.067 230.207C397.355 230.272 397.771 230.365 398.373 230.5C398.625 230.556 398.844 230.606 399.035 230.648C398.753 231.414 398.53 232.187 398.321 232.951C398.28 233.1 398.239 233.25 398.198 233.4L398.198 233.4C397.907 234.475 397.609 235.574 397.177 236.527C396.668 237.647 395.934 238.661 394.711 239.324C392.365 240.602 388.323 240.25 381 235.042L381.438 234.427C381.818 233.999 382.085 233.7 382.271 233.491Z" fill="#324A9A"/>
<path d="M165 221.543C172.787 227.383 176.356 226.41 177.654 225.761C180.898 224.139 184.143 218.136 185.441 214.405C185.765 213.756 186.414 211.81 188.199 210.349C188.685 210.025 190.307 208.727 191.768 209.052C193.876 209.376 194.201 212.458 196.31 215.379C198.743 218.785 202.312 220.083 206.53 221.543C211.722 223.328 216.426 223.328 219.346 223.165" stroke="#E5231E" stroke-width="2" stroke-miterlimit="10"/>
<path fill-rule="evenodd" clip-rule="evenodd" d="M211.76 223.844C210.018 223.581 208.145 223.156 206.205 222.489L206.203 222.488C203.539 221.566 200.995 220.671 198.815 219.184L199.497 217.216C201.467 218.69 203.923 219.583 206.856 220.598C208.806 221.268 210.687 221.678 212.426 221.92L211.76 223.844Z" fill="#324A9A"/>
<defs>
<linearGradient id="paint0_linear_4872_346882" x1="122.391" y1="84.1848" x2="69.7881" y2="53.6383" gradientUnits="userSpaceOnUse">
<stop stop-color="#3E930E"/>
<stop offset="0.1622" stop-color="#378B0C"/>
<stop offset="0.6676" stop-color="#257605"/>
<stop offset="1" stop-color="#1F6E03"/>
</linearGradient>
<linearGradient id="paint1_linear_4872_346882" x1="98.6526" y1="318.263" x2="112.676" y2="288.658" gradientUnits="userSpaceOnUse">
<stop stop-color="#1F6E03"/>
<stop offset="1" stop-color="#3E930E"/>
</linearGradient>
<linearGradient id="paint2_linear_4872_346882" x1="88.8808" y1="361.699" x2="97.8157" y2="313.42" gradientUnits="userSpaceOnUse">
<stop stop-color="#3E930E"/>
<stop offset="1" stop-color="#1F6E03"/>
</linearGradient>
<linearGradient id="paint3_linear_4872_346882" x1="506.17" y1="145.982" x2="503.156" y2="56.5421" gradientUnits="userSpaceOnUse">
<stop stop-color="#1F6E03"/>
<stop offset="0.3296" stop-color="#227204"/>
<stop offset="0.6572" stop-color="#2C7E08"/>
<stop offset="0.9832" stop-color="#3D920E"/>
<stop offset="1" stop-color="#3E930E"/>
</linearGradient>
<linearGradient id="paint4_linear_4872_346882" x1="542.383" y1="320.661" x2="506.239" y2="292.593" gradientUnits="userSpaceOnUse">
<stop stop-color="#1F6E03"/>
<stop offset="0.6226" stop-color="#35890B"/>
<stop offset="1" stop-color="#3E930E"/>
</linearGradient>
<radialGradient id="paint5_diamond_4872_346882" cx="0" cy="0" r="1" gradientUnits="userSpaceOnUse" gradientTransform="translate(56.3865 204.53) rotate(120.22) scale(250.303 78.3412)">
<stop stop-color="#85C259"/>
<stop offset="0.0001" stop-color="#A2DB7A"/>
<stop offset="1" stop-color="#7CB45B"/>
</radialGradient>
<linearGradient id="paint6_linear_4872_346882" x1="36.6559" y1="161.51" x2="53.6741" y2="164.411" gradientUnits="userSpaceOnUse">
<stop stop-color="#4BA00F"/>
<stop offset="0.2576" stop-color="#489D0E"/>
<stop offset="0.4447" stop-color="#40940C"/>
<stop offset="0.5832" stop-color="#358709"/>
<stop offset="0.5871" stop-color="#348609"/>
<stop offset="0.6795" stop-color="#287806"/>
<stop offset="0.7944" stop-color="#217004"/>
<stop offset="1" stop-color="#1F6E03"/>
</linearGradient>
<radialGradient id="paint7_diamond_4872_346882" cx="0" cy="0" r="1" gradientUnits="userSpaceOnUse" gradientTransform="translate(338.459 343.167) rotate(131.718) scale(127.72 794.539)">
<stop stop-color="#B0DF8C"/>
<stop offset="1" stop-color="#82B464"/>
</radialGradient>
<linearGradient id="paint8_linear_4872_346882" x1="184.461" y1="340.293" x2="188.037" y2="326.411" gradientUnits="userSpaceOnUse">
<stop stop-color="#4BA00F"/>
<stop offset="0.1971" stop-color="#479B0E"/>
<stop offset="0.4202" stop-color="#3B8E0B"/>
<stop offset="0.4992" stop-color="#358709"/>
<stop offset="0.512" stop-color="#338508"/>
<stop offset="0.6094" stop-color="#287805"/>
<stop offset="0.7363" stop-color="#217004"/>
<stop offset="1" stop-color="#1F6E03"/>
</linearGradient>
<linearGradient id="paint9_linear_4872_346882" x1="443.726" y1="342.73" x2="443.726" y2="330.932" gradientUnits="userSpaceOnUse">
<stop stop-color="#4BA00F"/>
<stop offset="0.4008" stop-color="#378909"/>
<stop offset="0.4319" stop-color="#358709"/>
<stop offset="0.4526" stop-color="#328308"/>
<stop offset="0.5474" stop-color="#277705"/>
<stop offset="0.6771" stop-color="#217003"/>
<stop offset="1" stop-color="#1F6E03"/>
</linearGradient>
<radialGradient id="paint10_radial_4872_346882" cx="0" cy="0" r="1" gradientUnits="userSpaceOnUse" gradientTransform="translate(543.131 193.401) rotate(90) scale(140.476 33.7312)">
<stop stop-color="#A2DB7A"/>
<stop offset="1" stop-color="#7FB75D"/>
</radialGradient>
<linearGradient id="paint11_linear_4872_346882" x1="548.98" y1="249.684" x2="539.118" y2="248.517" gradientUnits="userSpaceOnUse">
<stop stop-color="#4BA00F"/>
<stop offset="0.2191" stop-color="#489D0E"/>
<stop offset="0.3815" stop-color="#40940C"/>
<stop offset="0.5" stop-color="#358709"/>
<stop offset="0.6115" stop-color="#2C7C06"/>
<stop offset="0.7941" stop-color="#227204"/>
<stop offset="1" stop-color="#1F6E03"/>
</linearGradient>
<linearGradient id="paint12_linear_4872_346882" x1="535.177" y1="142.738" x2="523.138" y2="143.413" gradientUnits="userSpaceOnUse">
<stop stop-color="#4BA00F"/>
<stop offset="0.2131" stop-color="#489C0E"/>
<stop offset="0.4059" stop-color="#3E910C"/>
<stop offset="0.5204" stop-color="#358709"/>
<stop offset="0.5333" stop-color="#338508"/>
<stop offset="0.6254" stop-color="#277805"/>
<stop offset="0.7458" stop-color="#217004"/>
<stop offset="1" stop-color="#1F6E03"/>
</linearGradient>
<radialGradient id="paint13_radial_4872_346882" cx="0" cy="0" r="1" gradientUnits="userSpaceOnUse" gradientTransform="translate(280.167 76.25) rotate(77.4712) scale(3.84148)">
<stop stop-color="#F2F2F2"/>
<stop offset="1" stop-color="#C4C4C4"/>
</radialGradient>
<radialGradient id="paint14_radial_4872_346882" cx="0" cy="0" r="1" gradientUnits="userSpaceOnUse" gradientTransform="translate(308.167 76.25) rotate(77.4712) scale(3.84148)">
<stop stop-color="#F2F2F2"/>
<stop offset="1" stop-color="#C4C4C4"/>
</radialGradient>
<radialGradient id="paint15_radial_4872_346882" cx="0" cy="0" r="1" gradientUnits="userSpaceOnUse" gradientTransform="translate(288.167 86.25) rotate(77.4712) scale(3.84148)">
<stop stop-color="#F2F2F2"/>
<stop offset="1" stop-color="#C4C4C4"/>
</radialGradient>
<radialGradient id="paint16_radial_4872_346882" cx="0" cy="0" r="1" gradientUnits="userSpaceOnUse" gradientTransform="translate(309.167 87.25) rotate(77.4712) scale(3.84148)">
<stop stop-color="#F2F2F2"/>
<stop offset="1" stop-color="#C4C4C4"/>
</radialGradient>
<radialGradient id="paint17_radial_4872_346882" cx="0" cy="0" r="1" gradientUnits="userSpaceOnUse" gradientTransform="translate(280.167 97.25) rotate(77.4712) scale(3.84148)">
<stop stop-color="#F2F2F2"/>
<stop offset="1" stop-color="#C4C4C4"/>
</radialGradient>
<radialGradient id="paint18_radial_4872_346882" cx="0" cy="0" r="1" gradientUnits="userSpaceOnUse" gradientTransform="translate(285.167 108.25) rotate(77.4712) scale(3.84148)">
<stop stop-color="#F2F2F2"/>
<stop offset="1" stop-color="#C4C4C4"/>
</radialGradient>
<radialGradient id="paint19_radial_4872_346882" cx="0" cy="0" r="1" gradientUnits="userSpaceOnUse" gradientTransform="translate(313.167 107.25) rotate(77.4712) scale(3.84148)">
<stop stop-color="#F2F2F2"/>
<stop offset="1" stop-color="#C4C4C4"/>
</radialGradient>
<radialGradient id="paint20_radial_4872_346882" cx="0" cy="0" r="1" gradientUnits="userSpaceOnUse" gradientTransform="translate(304.167 118.25) rotate(77.4712) scale(3.84148)">
<stop stop-color="#F2F2F2"/>
<stop offset="1" stop-color="#C4C4C4"/>
</radialGradient>
<radialGradient id="paint21_radial_4872_346882" cx="0" cy="0" r="1" gradientUnits="userSpaceOnUse" gradientTransform="translate(291.167 116.25) rotate(77.4712) scale(3.84148)">
<stop stop-color="#F2F2F2"/>
<stop offset="1" stop-color="#C4C4C4"/>
</radialGradient>
<radialGradient id="paint22_radial_4872_346882" cx="0" cy="0" r="1" gradientUnits="userSpaceOnUse" gradientTransform="translate(281.167 128.25) rotate(77.4712) scale(3.84148)">
<stop stop-color="#F2F2F2"/>
<stop offset="1" stop-color="#C4C4C4"/>
</radialGradient>
<radialGradient id="paint23_radial_4872_346882" cx="0" cy="0" r="1" gradientUnits="userSpaceOnUse" gradientTransform="translate(311.167 130.25) rotate(77.4712) scale(3.84148)">
<stop stop-color="#F2F2F2"/>
<stop offset="1" stop-color="#C4C4C4"/>
</radialGradient>
<radialGradient id="paint24_radial_4872_346882" cx="0" cy="0" r="1" gradientUnits="userSpaceOnUse" gradientTransform="translate(288.167 141.25) rotate(77.4712) scale(3.84148)">
<stop stop-color="#F2F2F2"/>
<stop offset="1" stop-color="#C4C4C4"/>
</radialGradient>
<radialGradient id="paint25_radial_4872_346882" cx="0" cy="0" r="1" gradientUnits="userSpaceOnUse" gradientTransform="translate(302.167 136.25) rotate(77.4712) scale(3.84148)">
<stop stop-color="#F2F2F2"/>
<stop offset="1" stop-color="#C4C4C4"/>
</radialGradient>
<radialGradient id="paint26_radial_4872_346882" cx="0" cy="0" r="1" gradientUnits="userSpaceOnUse" gradientTransform="translate(281.167 152.25) rotate(77.4712) scale(3.84148)">
<stop stop-color="#F2F2F2"/>
<stop offset="1" stop-color="#C4C4C4"/>
</radialGradient>
<radialGradient id="paint27_radial_4872_346882" cx="0" cy="0" r="1" gradientUnits="userSpaceOnUse" gradientTransform="translate(315.167 150.25) rotate(77.4712) scale(3.84148)">
<stop stop-color="#F2F2F2"/>
<stop offset="1" stop-color="#C4C4C4"/>
</radialGradient>
<radialGradient id="paint28_radial_4872_346882" cx="0" cy="0" r="1" gradientUnits="userSpaceOnUse" gradientTransform="translate(292.167 162.25) rotate(77.4712) scale(3.84148)">
<stop stop-color="#F2F2F2"/>
<stop offset="1" stop-color="#C4C4C4"/>
</radialGradient>
<radialGradient id="paint29_radial_4872_346882" cx="0" cy="0" r="1" gradientUnits="userSpaceOnUse" gradientTransform="translate(304.167 161.25) rotate(77.4712) scale(3.84148)">
<stop stop-color="#F2F2F2"/>
<stop offset="1" stop-color="#C4C4C4"/>
</radialGradient>
<radialGradient id="paint30_radial_4872_346882" cx="0" cy="0" r="1" gradientUnits="userSpaceOnUse" gradientTransform="translate(281.167 173.25) rotate(77.4712) scale(3.84148)">
<stop stop-color="#F2F2F2"/>
<stop offset="1" stop-color="#C4C4C4"/>
</radialGradient>
<radialGradient id="paint31_radial_4872_346882" cx="0" cy="0" r="1" gradientUnits="userSpaceOnUse" gradientTransform="translate(314.167 172.25) rotate(77.4712) scale(3.84148)">
<stop stop-color="#F2F2F2"/>
<stop offset="1" stop-color="#C4C4C4"/>
</radialGradient>
<radialGradient id="paint32_radial_4872_346882" cx="0" cy="0" r="1" gradientUnits="userSpaceOnUse" gradientTransform="translate(285.167 183.25) rotate(77.4712) scale(3.84148)">
<stop stop-color="#F2F2F2"/>
<stop offset="1" stop-color="#C4C4C4"/>
</radialGradient>
<radialGradient id="paint33_radial_4872_346882" cx="0" cy="0" r="1" gradientUnits="userSpaceOnUse" gradientTransform="translate(303.167 182.25) rotate(77.4712) scale(3.84148)">
<stop stop-color="#F2F2F2"/>
<stop offset="1" stop-color="#C4C4C4"/>
</radialGradient>
<radialGradient id="paint34_radial_4872_346882" cx="0" cy="0" r="1" gradientUnits="userSpaceOnUse" gradientTransform="translate(289.167 194.25) rotate(77.4712) scale(3.84148)">
<stop stop-color="#F2F2F2"/>
<stop offset="1" stop-color="#C4C4C4"/>
</radialGradient>
<radialGradient id="paint35_radial_4872_346882" cx="0" cy="0" r="1" gradientUnits="userSpaceOnUse" gradientTransform="translate(279.167 205.25) rotate(77.4712) scale(3.84148)">
<stop stop-color="#F2F2F2"/>
<stop offset="1" stop-color="#C4C4C4"/>
</radialGradient>
<radialGradient id="paint36_radial_4872_346882" cx="0" cy="0" r="1" gradientUnits="userSpaceOnUse" gradientTransform="translate(312.167 193.25) rotate(77.4712) scale(3.84148)">
<stop stop-color="#F2F2F2"/>
<stop offset="1" stop-color="#C4C4C4"/>
</radialGradient>
<radialGradient id="paint37_radial_4872_346882" cx="0" cy="0" r="1" gradientUnits="userSpaceOnUse" gradientTransform="translate(308.167 205.25) rotate(77.4712) scale(3.84148)">
<stop stop-color="#F2F2F2"/>
<stop offset="1" stop-color="#C4C4C4"/>
</radialGradient>
<radialGradient id="paint38_radial_4872_346882" cx="0" cy="0" r="1" gradientUnits="userSpaceOnUse" gradientTransform="translate(280.167 216.25) rotate(77.4712) scale(3.84148)">
<stop stop-color="#F2F2F2"/>
<stop offset="1" stop-color="#C4C4C4"/>
</radialGradient>
<radialGradient id="paint39_radial_4872_346882" cx="0" cy="0" r="1" gradientUnits="userSpaceOnUse" gradientTransform="translate(296.167 216.25) rotate(77.4712) scale(3.84148)">
<stop stop-color="#F2F2F2"/>
<stop offset="1" stop-color="#C4C4C4"/>
</radialGradient>
<radialGradient id="paint40_radial_4872_346882" cx="0" cy="0" r="1" gradientUnits="userSpaceOnUse" gradientTransform="translate(286.167 226.25) rotate(77.4712) scale(3.84148)">
<stop stop-color="#F2F2F2"/>
<stop offset="1" stop-color="#C4C4C4"/>
</radialGradient>
<radialGradient id="paint41_radial_4872_346882" cx="0" cy="0" r="1" gradientUnits="userSpaceOnUse" gradientTransform="translate(308.167 226.25) rotate(77.4712) scale(3.84148)">
<stop stop-color="#F2F2F2"/>
<stop offset="1" stop-color="#C4C4C4"/>
</radialGradient>
<radialGradient id="paint42_radial_4872_346882" cx="0" cy="0" r="1" gradientUnits="userSpaceOnUse" gradientTransform="translate(293.167 237.25) rotate(77.4712) scale(3.84148)">
<stop stop-color="#F2F2F2"/>
<stop offset="1" stop-color="#C4C4C4"/>
</radialGradient>
<radialGradient id="paint43_radial_4872_346882" cx="0" cy="0" r="1" gradientUnits="userSpaceOnUse" gradientTransform="translate(306.167 237.25) rotate(77.4712) scale(3.84148)">
<stop stop-color="#F2F2F2"/>
<stop offset="1" stop-color="#C4C4C4"/>
</radialGradient>
<radialGradient id="paint44_radial_4872_346882" cx="0" cy="0" r="1" gradientUnits="userSpaceOnUse" gradientTransform="translate(288.167 247.25) rotate(77.4712) scale(3.84148)">
<stop stop-color="#F2F2F2"/>
<stop offset="1" stop-color="#C4C4C4"/>
</radialGradient>
<radialGradient id="paint45_radial_4872_346882" cx="0" cy="0" r="1" gradientUnits="userSpaceOnUse" gradientTransform="translate(312.167 246.25) rotate(77.4712) scale(3.84148)">
<stop stop-color="#F2F2F2"/>
<stop offset="1" stop-color="#C4C4C4"/>
</radialGradient>
<radialGradient id="paint46_radial_4872_346882" cx="0" cy="0" r="1" gradientUnits="userSpaceOnUse" gradientTransform="translate(281.167 257.25) rotate(77.4712) scale(3.84148)">
<stop stop-color="#F2F2F2"/>
<stop offset="1" stop-color="#C4C4C4"/>
</radialGradient>
<radialGradient id="paint47_radial_4872_346882" cx="0" cy="0" r="1" gradientUnits="userSpaceOnUse" gradientTransform="translate(292.167 269.25) rotate(77.4712) scale(3.84148)">
<stop stop-color="#F2F2F2"/>
<stop offset="1" stop-color="#C4C4C4"/>
</radialGradient>
<radialGradient id="paint48_radial_4872_346882" cx="0" cy="0" r="1" gradientUnits="userSpaceOnUse" gradientTransform="translate(311.167 268.25) rotate(77.4712) scale(3.84148)">
<stop stop-color="#F2F2F2"/>
<stop offset="1" stop-color="#C4C4C4"/>
</radialGradient>
<radialGradient id="paint49_radial_4872_346882" cx="0" cy="0" r="1" gradientUnits="userSpaceOnUse" gradientTransform="translate(280.167 277.25) rotate(77.4712) scale(3.84148)">
<stop stop-color="#F2F2F2"/>
<stop offset="1" stop-color="#C4C4C4"/>
</radialGradient>
<radialGradient id="paint50_radial_4872_346882" cx="0" cy="0" r="1" gradientUnits="userSpaceOnUse" gradientTransform="translate(300.167 279.25) rotate(77.4712) scale(3.84148)">
<stop stop-color="#F2F2F2"/>
<stop offset="1" stop-color="#C4C4C4"/>
</radialGradient>
<radialGradient id="paint51_radial_4872_346882" cx="0" cy="0" r="1" gradientUnits="userSpaceOnUse" gradientTransform="translate(284.167 289.25) rotate(77.4712) scale(3.84148)">
<stop stop-color="#F2F2F2"/>
<stop offset="1" stop-color="#C4C4C4"/>
</radialGradient>
<radialGradient id="paint52_radial_4872_346882" cx="0" cy="0" r="1" gradientUnits="userSpaceOnUse" gradientTransform="translate(313.167 290.25) rotate(77.4712) scale(3.84148)">
<stop stop-color="#F2F2F2"/>
<stop offset="1" stop-color="#C4C4C4"/>
</radialGradient>
<radialGradient id="paint53_radial_4872_346882" cx="0" cy="0" r="1" gradientUnits="userSpaceOnUse" gradientTransform="translate(307.167 300.25) rotate(77.4712) scale(3.84148)">
<stop stop-color="#F2F2F2"/>
<stop offset="1" stop-color="#C4C4C4"/>
</radialGradient>
<radialGradient id="paint54_radial_4872_346882" cx="0" cy="0" r="1" gradientUnits="userSpaceOnUse" gradientTransform="translate(286.167 299.25) rotate(77.4712) scale(3.84148)">
<stop stop-color="#F2F2F2"/>
<stop offset="1" stop-color="#C4C4C4"/>
</radialGradient>
<radialGradient id="paint55_radial_4872_346882" cx="0" cy="0" r="1" gradientUnits="userSpaceOnUse" gradientTransform="translate(304.167 258.25) rotate(77.4712) scale(3.84148)">
<stop stop-color="#F2F2F2"/>
<stop offset="1" stop-color="#C4C4C4"/>
</radialGradient>
<radialGradient id="paint56_radial_4872_346882" cx="0" cy="0" r="1" gradientUnits="userSpaceOnUse" gradientTransform="translate(301.167 97.25) rotate(77.4712) scale(3.84148)">
<stop stop-color="#F2F2F2"/>
<stop offset="1" stop-color="#C4C4C4"/>
</radialGradient>
</defs>
</svg>
