<svg width="150" height="140" viewBox="0 0 150 140" fill="none" xmlns="http://www.w3.org/2000/svg">
<g clip-path="url(#clip0)">
<path d="M7.41342 132.74C16.4213 125.173 22.2675 73.5369 57.842 44.6999C82.2029 24.9667 109.526 25.7939 143.549 8.90904C114.972 38.2821 112.222 78.7266 87.4055 97.0836C62.5885 115.441 26.8372 127.559 7.41342 132.74Z" fill="#FFD3CA"/>
<path d="M122.797 40.4692C122.597 40.617 122.307 40.6416 121.961 40.5164L90.6724 29.5064C89.9588 29.2251 89.3035 28.3771 89.1797 27.5643C89.0787 26.7822 89.5643 26.3755 90.2961 26.6433L121.585 37.6533C122.298 37.9346 122.954 38.7826 123.078 39.5954C123.119 39.9931 123.015 40.3081 122.797 40.4692Z" fill="#ED7C7C"/>
<path d="M88.6236 97.7059C88.5147 97.7865 88.383 97.8363 88.2058 97.8245C87.5607 97.8257 86.7875 97.1602 86.4457 96.3183L64.1911 39.7657C63.8492 38.9238 64.1118 38.2536 64.7388 38.2658C65.3839 38.2646 66.1571 38.9302 66.4989 39.7721L88.7535 96.3247C88.9906 96.9109 88.9323 97.4776 88.6236 97.7059Z" fill="#ED7C7C"/>
<path d="M107.243 74.8426C107.134 74.9232 106.984 74.9864 106.807 74.9747L35.7286 73.4329C35.0835 73.4342 34.2876 72.7378 33.9639 71.8825C33.622 71.0406 33.8846 70.3704 34.5525 70.4L105.631 71.9418C106.276 71.9405 107.072 72.6368 107.396 73.4921C107.614 74.0918 107.552 74.6143 107.243 74.8426Z" fill="#ED7C7C"/>
<path d="M51.6658 118.522C51.4662 118.67 51.1754 118.695 50.83 118.569C50.1164 118.288 49.461 117.44 49.3373 116.627L41.8197 59.6451C41.7187 58.8631 42.2042 58.4563 42.936 58.7242C43.6496 59.0054 44.305 59.8534 44.4287 60.6662L51.9464 117.648C51.9878 118.046 51.8837 118.361 51.6658 118.522Z" fill="#ED7C7C"/>
<path d="M75.7792 107.112C75.6522 107.206 75.4614 107.251 75.2433 107.222L22.1906 101.343C21.5182 101.269 20.7585 100.546 20.4757 99.7082C20.1929 98.8702 20.501 98.2615 21.1735 98.3352L74.2262 104.215C74.8987 104.288 75.6583 105.012 75.9411 105.85C76.1372 106.418 76.0697 106.897 75.7792 107.112Z" fill="#ED7C7C"/>
<path d="M117.474 50.4152C117.038 50.7374 116.334 50.3544 115.769 49.6294L97.5968 26.3363C97.0097 25.5806 96.8768 24.6794 97.3079 24.3129C97.739 23.9465 98.5526 24.249 99.1396 25.0047L117.312 48.2978C117.899 49.0535 118.032 49.9547 117.601 50.3212C117.583 50.3346 117.474 50.4152 117.474 50.4152Z" fill="#ED7C7C"/>
<path d="M81.2767 64.3488C84.1874 67.0983 92.5748 69.8425 101.105 63.5329C104.42 61.0803 107.366 54.5705 103.516 47.4699C101.102 43.0205 94.8483 36.937 87.9903 38.8684C85.3299 39.5988 78.9425 41.2773 77.1601 50.5445C76.2433 55.1732 78.0307 61.3238 81.2767 64.3488Z" fill="#5A5999"/>
<path d="M81.5438 64.0563C84.3862 66.7135 92.518 69.4087 100.821 63.2668C104.052 60.8771 106.924 54.5643 103.183 47.6693C100.831 43.3639 94.7705 37.4231 88.0998 39.3112C85.5188 40.0304 79.3186 41.6656 77.5414 50.6434C76.6697 55.096 78.3944 61.1026 81.5438 64.0563Z" fill="#949BD9" stroke="#5C629B" stroke-width="0.653809" stroke-miterlimit="10" stroke-linecap="round" stroke-linejoin="round"/>
<path d="M87.4038 57.5786C92.6159 58.8162 96.02 55.0606 95.2004 50.574C94.3581 46.0565 92.2026 43.5576 87.1437 45.4909C82.0621 47.3935 82.521 56.4307 87.4038 57.5786Z" fill="#406296" stroke="#2D3368" stroke-width="0.653809" stroke-miterlimit="10" stroke-linecap="round" stroke-linejoin="round"/>
<path opacity="0.5" d="M86.8932 56.7676C90.8108 57.6775 93.354 54.892 92.7293 51.4987C92.1274 48.1362 90.5065 46.2413 86.701 47.6759C82.9182 49.1413 83.2595 55.8857 86.8932 56.7676Z" fill="#6277C2"/>
<path d="M7.41342 132.74C16.4213 125.173 22.2675 73.5369 57.842 44.6999C82.2029 24.9667 109.526 25.7939 143.549 8.90904C114.972 38.2821 112.222 78.7266 87.4055 97.0836C62.5885 115.441 26.8372 127.559 7.41342 132.74Z" stroke="#B53E3E" stroke-width="2.8945" stroke-linecap="round" stroke-linejoin="round"/>
</g>
<defs>
<clipPath id="clip0">
<rect width="150" height="140" fill="white"/>
</clipPath>
</defs>
</svg>
