<svg width="390" height="324" viewBox="0 0 390 324" fill="none" xmlns="http://www.w3.org/2000/svg">
<g clip-path="url(#clip0_3305_592646)">
<path d="M384.941 145.346C378.711 159.94 359.793 198.162 337.202 233.408C315.525 267.254 290.472 298.367 270.033 303.213C244.212 309.352 181.847 329.695 125.241 322.465C90.4192 318.036 57.7902 303.159 37.2172 268.115C-0.107667 204.53 -5.28793 160.156 4.02309 125.112C5.96064 117.815 8.53059 110.922 11.5715 104.352C15.0429 96.8259 19.1333 89.7309 23.587 82.8917C28.8211 74.8677 35.2123 67.1265 42.3974 59.8431C72.3891 29.4975 97.9541 14.2574 133.032 13.7458C140.136 13.6381 167.571 6.50275 177.367 6.54314C227.367 6.7047 302.057 4.46984 305.353 28.8917C305.353 29.5648 261.96 65.5379 255.448 71.9597C253.873 73.5214 252.676 75.137 251.936 76.7526C251.936 76.7526 251.936 76.7526 251.922 76.766C250.536 79.8221 250.765 82.8782 253.174 85.6247C254.748 87.4287 257.264 89.0846 260.87 90.5117C272.872 95.2103 341.292 57.5544 362.457 75.2851C383.636 93.0024 397.145 116.724 384.941 145.346Z" fill="#FFB297"/>
<path d="M384.941 138.803C378.711 153.397 359.793 191.619 337.202 226.865C332.923 233.556 328.51 240.126 324.016 246.426C309.309 267.052 293.849 284.581 279.815 292.618C276.465 294.543 273.195 295.93 270.033 296.67C244.213 302.809 181.848 323.152 125.241 315.922C90.4192 311.493 57.7902 296.616 37.2172 261.572C34.58 257.076 32.0908 252.66 29.763 248.338C22.403 234.727 16.6172 222.032 12.1635 210.157C-1.89718 172.663 -2.54303 143.3 4.02313 118.569C5.96068 111.272 8.53063 104.379 11.5715 97.8086C15.043 90.2828 19.1334 83.1878 23.587 76.3486C28.8211 68.3247 35.2124 60.5835 42.3975 53.3C72.3892 22.941 87.2438 15.8729 134.754 13.5438C141.859 13.1938 167.572 -0.0402967 177.367 9.22577e-05C227.367 0.161648 302.729 3.87743 306.026 28.2993C306.026 28.9724 261.973 58.9814 255.448 65.4167C253.873 66.9784 252.676 68.594 251.936 70.2095L251.922 70.223C250.967 72.3501 250.779 74.5042 251.586 76.5371C251.747 76.9679 251.976 77.3988 252.245 77.8161C252.514 78.2335 252.824 78.6643 253.187 79.0682C254.761 80.8722 257.278 82.5281 260.884 83.9552C272.886 88.6538 341.306 50.9978 362.471 68.7286C372.858 77.4257 381.402 87.5768 385.963 99.0338C390.7 110.935 391.157 124.223 384.941 138.803Z" fill="url(#paint0_radial_3305_592646)"/>
<path opacity="0.24" d="M384.941 138.803C378.711 153.397 359.793 191.618 337.202 226.865C315.525 260.71 290.472 291.823 270.033 296.67C244.212 302.809 181.847 323.152 125.241 315.922C90.4191 311.493 57.7902 296.616 37.2171 261.572C34.5799 257.075 32.0907 252.66 29.7629 248.338C58.9473 227.053 113.899 218.948 155.031 141.819C168.083 117.343 245.921 75.4868 251.922 70.2228C250.536 73.2789 250.765 76.335 253.174 79.0814C254.748 80.8855 257.264 82.5414 260.87 83.9685C272.872 88.6671 341.292 51.0111 362.457 68.7419C383.636 86.4592 397.145 110.181 384.941 138.803Z" fill="#619B80"/>
<path opacity="0.42" d="M384.941 138.803C378.711 153.397 359.793 191.618 337.202 226.864C331.174 200.194 318.055 169.122 309.82 155.134C296.728 132.879 271.876 149.91 252.905 117.828C241.481 98.4948 246.904 86.2973 253.174 79.0946C254.748 80.8987 257.264 82.5546 260.87 83.9817C272.872 88.6803 341.292 51.0243 362.457 68.7551C383.636 86.4589 397.145 110.181 384.941 138.803Z" fill="#135639"/>
<path opacity="0.49" d="M384.941 138.803C378.711 153.397 359.793 191.618 337.202 226.864C332.923 233.555 328.509 240.125 324.015 246.426C309.309 267.051 293.849 284.58 279.815 292.618C276.465 294.543 273.195 295.929 270.033 296.67C244.212 302.809 181.847 323.152 125.241 315.922C149.958 303.711 171.446 277.754 183.771 256.106C190.714 243.908 194.751 233.071 194.778 226.851C194.872 204.987 150.847 152.508 157.399 140.069C162.674 130.025 227.245 86.5666 251.922 70.2226C250.967 72.3497 250.779 74.5038 251.586 76.5367C251.761 76.9675 251.976 77.3984 252.245 77.8157C252.514 78.2331 252.824 78.6639 253.187 79.0678C254.761 80.8718 257.277 82.5278 260.883 83.9548C272.885 88.6534 341.305 50.9975 362.47 68.7282C372.858 77.4253 381.402 87.5764 385.963 99.0334C390.7 110.935 391.157 124.223 384.941 138.803Z" fill="#34845F"/>
<path opacity="0.6" d="M306.026 28.2992C306.026 28.9723 261.973 58.9813 255.448 65.4166C253.873 66.9783 252.676 68.5939 251.936 70.2094C198.976 71.2865 180.838 21.3254 177.367 0C227.366 0.161556 302.716 3.8908 306.026 28.2992Z" fill="#135639"/>
<path opacity="0.61" d="M306.026 28.2991C306.026 28.9722 261.974 58.9812 255.448 65.4165C253.873 66.9782 252.676 68.5937 251.936 70.2093C251.936 70.2093 251.936 70.2093 251.922 70.2228C250.631 71.0709 167.558 125.515 160.763 136.016C153.915 146.598 98.9633 116.064 73.2369 111.258C53.3904 107.556 22.9412 108.525 4.03662 118.555C5.97418 111.258 8.54412 104.365 11.585 97.7949C20.4386 84.4935 31.27 68.6341 42.411 53.2863C72.4027 22.9273 97.9676 14.2437 133.045 13.7321C140.15 13.6244 167.585 -0.0539715 177.38 -0.0135826C227.367 0.161436 302.716 3.89068 306.026 28.2991Z" fill="#135639"/>
<path opacity="0.49" d="M211.678 274.2C201.775 266.378 161.544 277.916 167.598 298.851C173.667 319.772 232.587 290.706 211.678 274.2Z" fill="#5F8261"/>
<path opacity="0.49" d="M146.958 291.272C144.751 285.213 120.142 291.191 127.798 295.31C132.103 297.64 149.474 298.218 146.958 291.272Z" fill="#5F8261"/>
<path opacity="0.49" d="M246.244 190.716C246.244 190.716 240.445 198.552 246.244 204.233C252.043 209.901 247.24 215.138 254.223 212.957C261.193 210.763 256.591 190.299 246.244 190.716Z" fill="#5F8261"/>
<path opacity="0.61" d="M161.113 83.4437C161.113 83.4437 146.393 72.5252 135.723 83.4167C125.053 94.3083 115.217 85.2746 119.308 98.401C123.398 111.527 161.88 102.898 161.113 83.4437Z" fill="#135639"/>
<path d="M101.035 78.0718C101.035 78.0718 153.147 61.3239 140.863 48.9245C128.578 36.5251 91.7109 31.0053 86.5306 41.1698C81.3504 51.3344 70.8015 79.9971 76.0625 81.7607C81.3235 83.5243 91.2803 89.7712 101.035 78.0718Z" fill="#135639"/>
<path opacity="0.19" d="M390 117.114C390.027 123.94 388.587 131.156 385.371 138.682C379.141 153.276 360.223 191.497 337.632 226.743C333.353 233.434 328.94 240.004 324.446 246.305C308.851 266.096 297.374 279.922 280.245 292.496C276.895 294.422 273.626 295.808 270.464 296.549C244.643 302.688 182.278 323.03 125.672 315.801C90.8496 311.372 58.2207 296.495 37.6476 261.451C35.0104 256.954 32.5212 252.538 30.1934 248.217C22.8334 234.606 17.0477 221.91 12.594 210.036C14.397 209.766 16.3345 209.511 18.4067 209.282C41.3613 206.832 80.1662 208.312 118.796 235.521C138.683 249.523 161.584 255.231 184.215 255.998C230.367 257.533 275.281 238.429 290.633 226.743C313.52 209.336 380.796 132.933 381.563 111.81C381.738 106.721 383.582 102.265 386.394 98.9258C388.681 104.661 389.973 110.733 390 117.114Z" fill="#95D197"/>
<path opacity="0.59" d="M390 117.114C390.027 123.94 388.587 131.156 385.371 138.682C379.141 153.276 360.223 191.497 337.632 226.743C333.353 233.434 328.94 240.004 324.446 246.305C308.851 266.096 297.374 279.922 280.245 292.496C276.895 294.422 273.626 295.808 270.464 296.549C244.643 302.688 182.278 323.03 125.672 315.801C90.8496 311.372 58.2207 296.495 37.6476 261.451C35.0104 256.954 32.5212 252.538 30.1934 248.217C22.8334 234.606 17.0477 221.91 12.594 210.036C14.397 209.766 16.3345 209.511 18.4067 209.282C35.6832 244.959 58.6647 285.725 74.6361 292.793C103.753 305.677 164.45 317.08 209.646 306.134C254.855 295.202 264.53 293.062 281.026 285.388C297.522 277.714 362.793 181.952 370.651 165.271C376.195 153.532 384.295 133.62 390 117.114Z" fill="url(#paint1_linear_3305_592646)"/>
<path opacity="0.61" d="M96.1645 18.1748C86.84 25.5391 74.986 33.7784 65.8095 42.5428C51.4124 56.302 23.3717 84.0492 18.4605 96.2332C15.0698 104.634 3.06774 134.172 4.02306 141.375C4.96492 148.483 3.12156 178.734 3.98269 183.298C-1.77615 158.149 -0.901558 137.053 4.02306 118.555C5.96061 111.258 8.53056 104.365 11.5714 97.7949C15.0429 90.2691 19.1333 83.1741 23.587 76.3349C28.8211 68.3109 35.2123 60.5697 42.3974 53.2863C62.338 33.1187 75.578 23.2369 96.1645 18.1748Z" fill="url(#paint2_linear_3305_592646)"/>
</g>
<defs>
<radialGradient id="paint0_radial_3305_592646" cx="0" cy="0" r="1" gradientUnits="userSpaceOnUse" gradientTransform="translate(272.291 74.6391) scale(299.787 299.96)">
<stop stop-color="#F9EF91"/>
<stop offset="0.0284" stop-color="#E3E184"/>
<stop offset="0.0872" stop-color="#BCC76C"/>
<stop offset="0.152" stop-color="#99B056"/>
<stop offset="0.2223" stop-color="#7C9C44"/>
<stop offset="0.3002" stop-color="#658D36"/>
<stop offset="0.3885" stop-color="#52812B"/>
<stop offset="0.4936" stop-color="#467823"/>
<stop offset="0.632" stop-color="#3E731E"/>
<stop offset="0.9332" stop-color="#3C721D"/>
</radialGradient>
<linearGradient id="paint1_linear_3305_592646" x1="158.078" y1="82.063" x2="283.794" y2="325.063" gradientUnits="userSpaceOnUse">
<stop offset="0.3993" stop-color="#F9EF91" stop-opacity="0"/>
<stop offset="0.4035" stop-color="#F8EC90" stop-opacity="0.01"/>
<stop offset="0.4566" stop-color="#F1D086" stop-opacity="0.0954"/>
<stop offset="0.5155" stop-color="#ECB87D" stop-opacity="0.1934"/>
<stop offset="0.5831" stop-color="#E7A677" stop-opacity="0.3059"/>
<stop offset="0.6635" stop-color="#E49A72" stop-opacity="0.4398"/>
<stop offset="0.7694" stop-color="#E39270" stop-opacity="0.6162"/>
<stop offset="1" stop-color="#E2906F"/>
</linearGradient>
<linearGradient id="paint2_linear_3305_592646" x1="123.491" y1="-33.5745" x2="8.26382" y2="137.859" gradientUnits="userSpaceOnUse">
<stop offset="0.3993" stop-color="#F9EF91" stop-opacity="0"/>
<stop offset="0.4035" stop-color="#F8EC90" stop-opacity="0.01"/>
<stop offset="0.4566" stop-color="#F1D086" stop-opacity="0.0954"/>
<stop offset="0.5155" stop-color="#ECB87D" stop-opacity="0.1934"/>
<stop offset="0.5831" stop-color="#E7A677" stop-opacity="0.3059"/>
<stop offset="0.6635" stop-color="#E49A72" stop-opacity="0.4398"/>
<stop offset="0.7694" stop-color="#E39270" stop-opacity="0.6162"/>
<stop offset="1" stop-color="#E2906F"/>
</linearGradient>
<clipPath id="clip0_3305_592646">
<rect width="390" height="324" fill="white"/>
</clipPath>
</defs>
</svg>
