<svg width="140" height="140" viewBox="0 0 140 140" fill="none" xmlns="http://www.w3.org/2000/svg">
<g clip-path="url(#clip0_4819_341579)">
<path d="M100.48 18.7821L100.182 12.2266L101.488 18.6573L100.48 18.7821Z" fill="#951F1D"/>
<path d="M99.072 17.7678L97.3931 11.7353L100.025 17.4171L99.072 17.7678Z" fill="#951F1D"/>
<path d="M97.0094 16.4566L94.6987 11.3384L97.8936 15.9564L97.0094 16.4566Z" fill="#951F1D"/>
<path d="M94.9624 16.1021L91.7932 10.5867L95.7998 15.527L94.9624 16.1021Z" fill="#951F1D"/>
<path d="M92.6476 15.5344L88.912 10.0021L93.4439 14.9035L92.6476 15.5344Z" fill="#951F1D"/>
<path d="M90.2414 15.2404L85.6539 9.83537L90.9665 14.5288L90.2414 15.2404Z" fill="#951F1D"/>
<path d="M87.9008 15.3301L82.3657 9.9043L88.5631 14.5595L87.9008 15.3301Z" fill="#951F1D"/>
<path d="M85.6101 15.5568L79.5308 10.9277L86.1702 14.7093L85.6101 15.5568Z" fill="#951F1D"/>
<path d="M82.6079 16.2048L76.6597 12.0977L83.125 15.3297L82.6079 16.2048Z" fill="#951F1D"/>
<path d="M79.8381 17.2786C77.7784 15.8294 75.5983 14.5587 73.3384 13.4355C75.7454 14.253 78.1011 15.2339 80.3635 16.4088C80.363 16.4083 79.8381 17.2786 79.8381 17.2786Z" fill="#951F1D"/>
<path d="M77.5443 18.9466L69.1416 15.9453L77.8312 17.9719L77.5443 18.9466Z" fill="#951F1D"/>
<path d="M75.1964 21.2552L66.6099 18.0469L75.4987 20.2853L75.1964 21.2552Z" fill="#951F1D"/>
<path d="M73.0454 23.3825L63.4668 21.1914L73.2206 22.3812L73.0454 23.3825Z" fill="#951F1D"/>
<path d="M69.3455 26.4097L60.2573 24.6289L69.4703 25.4017L69.3455 26.4097Z" fill="#951F1D"/>
<path d="M67.7364 29.5243L57.9053 27.7754L67.8637 28.5167L67.7364 29.5243Z" fill="#951F1D"/>
<path d="M65.9459 32.4464L56.1675 31.084L66.034 31.4344L65.9459 32.4464Z" fill="#951F1D"/>
<path d="M63.6714 35.1135L54.6582 33.6641L63.7769 34.1035L63.6714 35.1135Z" fill="#951F1D"/>
<path d="M60.7271 38.3847L51.6611 37.3691L60.7842 37.3708L60.7271 38.3847Z" fill="#951F1D"/>
<path d="M58.8548 41.7554L49.561 40.5371L58.9323 40.7424L58.8548 41.7554Z" fill="#951F1D"/>
<path d="M56.4077 44.7263L46.9312 43.8457L56.4474 43.7114L56.4077 44.7263Z" fill="#951F1D"/>
<path d="M53.2269 48.7016L44.252 47.6328L53.2903 47.6882L53.2269 48.7016Z" fill="#951F1D"/>
<path d="M50.7143 52.0658L42.5762 50.2578L50.874 51.0626L50.7143 52.0658Z" fill="#951F1D"/>
<path d="M48.5193 55.733L40.5645 53.4883L48.7351 54.7404L48.5193 55.733Z" fill="#951F1D"/>
<path d="M46.1037 59.056L37.9849 56.7363L46.3233 58.0644L46.1037 59.056Z" fill="#951F1D"/>
<path d="M43.7666 62.2866L34.8555 61.2305L43.8286 61.2727L43.7666 62.2866Z" fill="#951F1D"/>
<path d="M41.4619 66.0113L32.0195 65.0605L41.5093 64.9964L41.4619 66.0113Z" fill="#951F1D"/>
<path d="M39.0442 69.2304L30.0527 68.3125L39.0906 68.2156L39.0442 69.2304Z" fill="#951F1D"/>
<path d="M36.9802 72.704L27.5654 71.7305L37.0305 71.6891L36.9802 72.704Z" fill="#951F1D"/>
<path d="M34.255 76.7277L25.0469 75.625L34.3208 75.7138L34.255 76.7277Z" fill="#951F1D"/>
<path d="M31.6617 79.795L23.4824 78.3203L31.7807 78.786L31.6617 79.795Z" fill="#951F1D"/>
<path d="M29.3601 83.6647L21.6123 81.6348L29.555 82.6678L29.3601 83.6647Z" fill="#951F1D"/>
<path d="M27.5256 86.6386L19.168 84.9863L27.6626 85.6319L27.5256 86.6386Z" fill="#951F1D"/>
<path d="M25.7043 90.0132L17.5312 89.0488L25.7609 88.9988L25.7043 90.0132Z" fill="#951F1D"/>
<path d="M22.7637 93.0098C20.1709 93.4471 17.6561 93.023 15.2021 92.623C17.6885 92.6946 20.2348 92.7477 22.5277 92.022L22.7637 93.0098Z" fill="#951F1D"/>
<path d="M20.9442 95.9679C18.3969 96.1847 16.0499 95.5356 13.6221 95.6406C16.0122 95.2028 18.529 95.4954 20.7876 94.9647L20.9442 95.9679Z" fill="#951F1D"/>
<path d="M19.444 99.2318L11.582 98.8281L19.4305 98.216L19.444 99.2318Z" fill="#951F1D"/>
<path d="M17.328 103.108L9.54102 102.447L17.3478 102.093L17.328 103.108Z" fill="#951F1D"/>
<path d="M14.9243 105.816L8.28613 104.941L14.9809 104.802L14.9243 105.816Z" fill="#951F1D"/>
<path d="M13.0398 109.581L6.43262 108.281L13.1602 108.572L13.0398 109.581Z" fill="#951F1D"/>
<path d="M11.2876 112.662L4.54688 111.512L11.3839 111.651L11.2876 112.662Z" fill="#951F1D"/>
<path d="M9.1167 116.466L3.46484 115.096L9.26909 115.462L9.1167 116.466Z" fill="#951F1D"/>
<path d="M112.72 29.9481L119.277 29.7026L112.837 30.9576L112.72 29.9481Z" fill="#951F1D"/>
<path d="M113.451 31.3747L120.413 32.2974L113.391 32.3891L113.451 31.3747Z" fill="#951F1D"/>
<path d="M114.39 33.1197L121.435 34.8213L114.221 34.1215L114.39 33.1197Z" fill="#951F1D"/>
<path d="M115.638 34.4802L122.848 37.4684L115.31 35.4423L115.638 34.4802Z" fill="#951F1D"/>
<path d="M116.896 36.5736L124.096 40.1312L116.504 37.5111L116.896 36.5736Z" fill="#951F1D"/>
<path d="M118.167 38.6086L126.425 44.3719L117.629 39.4701L118.167 38.6086Z" fill="#951F1D"/>
<path d="M119.758 41.5526L127.185 47.7639L119.148 42.3648L119.758 41.5526Z" fill="#951F1D"/>
<path d="M120.177 43.9144L127.134 51.37L119.47 44.6439L120.177 43.9144Z" fill="#951F1D"/>
<path d="M120.296 47.024L126.087 54.1907L119.542 47.7051L120.296 47.024Z" fill="#951F1D"/>
<path d="M119.903 49.9665L125.878 57.5347L119.143 50.6414L119.903 49.9665Z" fill="#951F1D"/>
<path d="M118.95 52.7586L124.05 61.7683L118.093 53.3018L118.95 52.7586Z" fill="#951F1D"/>
<path d="M117.266 55.5961L122.114 64.9594L116.388 56.107L117.266 55.5961Z" fill="#951F1D"/>
<path d="M115.761 58.2993L119.657 68.7714L114.825 58.6965L115.761 58.2993Z" fill="#951F1D"/>
<path d="M113.71 62.6545L116.632 71.4258L112.759 63.0135L113.71 62.6545Z" fill="#951F1D"/>
<path d="M111.062 64.9454L114.128 74.4486L110.112 65.3058L111.062 64.9454Z" fill="#951F1D"/>
<path d="M108.658 67.4144L111.323 76.9204L107.695 67.7385L108.658 67.4144Z" fill="#951F1D"/>
<path d="M105.428 68.3496L107.794 79.3417L104.446 68.6079L105.428 68.3496Z" fill="#951F1D"/>
<path d="M102.476 71.6618L104.107 82.5465L101.479 71.8582L102.476 71.6618Z" fill="#951F1D"/>
<path d="M99.3098 73.8621L100.782 85.3878L98.3085 74.0353L99.3098 73.8621Z" fill="#951F1D"/>
<path d="M96.604 76.6352L97.4569 87.6244L95.5954 76.7605L96.604 76.6352Z" fill="#951F1D"/>
<path d="M92.9616 80.1772L93.8891 90.705L91.955 80.3151L92.9616 80.1772Z" fill="#951F1D"/>
<path d="M89.8542 82.9686L90.6869 92.3422L88.8491 83.1128L89.8542 82.9686Z" fill="#951F1D"/>
<path d="M86.4117 85.4606L87.6658 94.5174L85.4143 85.656L86.4117 85.4606Z" fill="#951F1D"/>
<path d="M83.3486 88.2008L84.3158 96.3573L82.3492 88.3827L83.3486 88.2008Z" fill="#951F1D"/>
<path d="M80.3888 90.9606L80.7576 99.3353L79.3783 91.0675L80.3888 90.9606Z" fill="#951F1D"/>
<path d="M76.9155 93.638L77.3308 102.51L75.905 93.744L76.9155 93.638Z" fill="#951F1D"/>
<path d="M73.9509 96.3594L74.3502 104.848L72.9409 96.4678L73.9509 96.3594Z" fill="#951F1D"/>
<path d="M70.7035 98.764L70.9867 106.995L69.692 98.8622L70.7035 98.764Z" fill="#951F1D"/>
<path d="M66.9672 101.847L67.591 110.133L65.9601 101.986L66.9672 101.847Z" fill="#951F1D"/>
<path d="M64.1676 104.699L64.8364 112.377L63.1634 104.854L64.1676 104.699Z" fill="#951F1D"/>
<path d="M60.5349 107.32L61.5364 115.166L59.537 107.513L60.5349 107.32Z" fill="#951F1D"/>
<path d="M57.7714 109.51L58.2181 118.02L56.7619 109.623L57.7714 109.51Z" fill="#951F1D"/>
<path d="M54.6003 111.672L55.3697 119.866L53.5965 111.829L54.6003 111.672Z" fill="#951F1D"/>
<path d="M51.6714 114.335L52.0422 122.543L50.6613 114.444L51.6714 114.335Z" fill="#951F1D"/>
<path d="M48.8524 116.729L49.1975 124.416L47.8424 116.841L48.8524 116.729Z" fill="#951F1D"/>
<path d="M46.0566 118.893L46.2296 126.763L45.0452 118.98L46.0566 118.893Z" fill="#951F1D"/>
<path d="M42.4055 121.352L42.8304 129.155L41.3974 121.473L42.4055 121.352Z" fill="#951F1D"/>
<path d="M39.9447 123.973L40.4732 130.648L38.9414 124.13L39.9447 123.973Z" fill="#951F1D"/>
<path d="M36.3753 126.162L37.3354 132.828L35.3832 126.382L36.3753 126.162Z" fill="#951F1D"/>
<path d="M33.4901 128.237L34.3099 135.025L32.4932 128.433L33.4901 128.237Z" fill="#951F1D"/>
<path d="M31.3699 129.787L31.8859 136.042L30.3677 129.953L31.3699 129.787Z" fill="#951F1D"/>
<path d="M8.03845 120.687L2.01465 119.639L8.12846 119.675L8.03845 120.687Z" fill="#951F1D"/>
<path d="M8.29511 123.869C5.86102 124.056 3.42692 124.37 1.00781 124.811C3.34373 124.042 5.72753 123.392 8.14664 122.864L8.29511 123.869Z" fill="#951F1D"/>
<path d="M9.77816 127.213L3.43164 129.607L9.37813 126.279L9.77816 127.213Z" fill="#951F1D"/>
<path d="M12.4258 128.132C11.4936 128.833 10.1706 129.779 9.26798 130.49L6.27752 133.091L8.92407 130.117C9.73191 129.29 10.9587 128.153 11.7989 127.333L12.4258 128.132Z" fill="#951F1D"/>
<path d="M13.8783 130.234L8.58229 135.071L13.1416 129.534L13.8783 130.234Z" fill="#951F1D"/>
<path d="M16.3969 131.106L12.4025 137.494L15.5006 130.626L16.3969 131.106Z" fill="#951F1D"/>
<path d="M18.6684 131.718L15.5085 138.259L17.7252 131.341L18.6684 131.718Z" fill="#951F1D"/>
<path d="M20.9525 131.655C20.652 133.995 20.2122 137.291 19.8421 139.587C19.9172 137.276 19.938 133.944 19.9381 131.598L20.9525 131.655Z" fill="#951F1D"/>
<path d="M23.3614 132.031L23.4097 139.533L22.3485 132.107L23.3614 132.031Z" fill="#951F1D"/>
<path d="M25.8825 132.297L26.2418 138.501L24.8769 132.439L25.8825 132.297Z" fill="#951F1D"/>
<path d="M28.6038 130.996L29.5798 136.993L27.6184 131.242L28.6038 130.996Z" fill="#951F1D"/>
<path d="M120.716 47.9767C121.326 59.8802 109.214 68.0846 91.384 82.1218C45.7445 118.035 32.7346 136.95 17.0597 131.778C15.5011 131.253 11.2768 129.86 9.14322 126.017C5.29296 119.106 11.184 109.638 26.9599 85.6291C40.574 64.9036 46.4718 56.3047 55.3799 44.1064C66.8456 28.4169 73.4264 20.2988 79.4102 16.7859C79.5253 16.7143 79.6545 16.6422 79.7764 16.5774C82.1472 15.2408 84.4458 14.638 86.9385 14.5726C89.8481 14.4937 93.8635 15.1326 96.8524 16.0811C97.0749 16.1459 97.2906 16.2175 97.4914 16.2896C99.5244 17.0011 100.954 17.8558 100.983 18.7178C101.019 19.7017 99.237 20.5207 98.9642 20.6503C98.9066 20.6788 98.8423 20.7006 98.7848 20.7291C95.7319 22.0009 93.6558 19.4218 89.726 20.1475C89.4963 20.1905 85.3227 21.0169 84.345 24.0484C83.9497 25.2766 83.8998 27.4103 85.0844 28.294C88.0158 30.5065 95.2066 22.5253 99.4164 25.0536C100.271 25.5639 101.105 26.5696 100.946 27.3885C100.717 28.5954 98.5107 28.5597 95.8241 30.0825C95.3282 30.3626 90.9103 32.927 91.2552 35.2696C91.5492 37.2452 95.2559 39.1272 98.1012 38.3367C102.469 37.1297 103.166 30.0678 105.142 30.3338C106.392 30.506 107.203 33.5302 107.289 35.8869C107.49 41.203 103.999 43.1854 105.041 46.2387C105.989 49.0259 110.083 50.937 112.11 49.8877C114.372 48.7025 114.653 43.4797 113.18 39.7802C111.93 36.6341 109.674 35.2546 110.091 32.6251C110.135 32.3663 110.207 32.0649 110.307 31.7631C110.595 30.9011 111.104 30.0032 111.802 29.8809C114.46 29.3927 120.328 40.2188 120.716 47.9767Z" fill="#E2C148" stroke="#951F1D" stroke-width="0.314349" stroke-miterlimit="10"/>
<path d="M120.716 47.9767C121.326 59.8802 109.214 68.0845 91.384 82.1218C45.7445 118.035 32.7346 136.95 17.0597 131.778C15.5011 131.253 11.2768 129.86 9.14322 126.017C5.29296 119.106 11.184 109.638 26.9599 85.6291C40.574 64.9036 46.4718 56.3047 55.3799 44.1064C66.8456 28.4169 73.4265 20.2988 79.4102 16.7858C79.5254 16.7142 79.6545 16.6422 79.7764 16.5774C82.0896 15.3844 84.3598 14.8392 86.8384 14.7308C89.7335 14.6083 93.7203 15.1471 96.8524 16.081C97.0749 16.1459 97.2906 16.2175 97.4914 16.2895C99.5245 17.001 100.954 17.8557 100.983 18.7177C101.019 19.7016 99.2371 20.5206 98.9642 20.6503C98.9067 20.6788 98.8423 20.7006 98.7848 20.7291C95.8607 19.6732 89.5104 17.9204 86.9675 17.7052C79.1157 17.0659 70.4663 27.9423 56.8093 46.4558C47.815 58.6541 41.9888 67.0807 28.4469 87.4324C13.2814 110.241 7.26121 119.739 10.5078 125.686C12.253 128.897 15.9312 130.061 17.3176 130.499C27.3025 133.674 36.5917 125.664 56.9507 108.136C65.4708 100.794 76.0738 91.6554 89.3935 81.1094C90.9956 79.8381 92.5615 78.6166 94.0702 77.4242C108.711 65.9295 118.38 58.3295 118.022 48.5021C117.756 41.3686 112.807 32.7841 111.176 32.3319C111.148 32.3033 110.86 32.1166 110.307 31.7645C110.594 30.9025 111.104 30.0047 111.801 29.8823C114.46 29.3927 120.328 40.2187 120.716 47.9767Z" fill="#DAA93D" stroke="#951F1D" stroke-width="0.314349" stroke-miterlimit="10"/>
<path d="M75.5299 74.0267C75.839 75.0246 75.9706 76.023 75.9406 77.0389C75.9406 77.0389 75.9343 77.0451 75.9401 77.0509C75.9304 78.3802 75.644 79.7008 75.15 80.9667C74.9328 81.5525 74.6731 82.1093 74.3649 82.6554C73.7138 83.8532 72.8929 84.9711 71.9481 85.9516C70.7402 87.2427 69.3364 88.3137 67.8949 89.0654C67.3246 89.362 66.6875 89.6431 65.9958 89.883C64.3506 90.4698 62.437 90.8384 60.5771 90.7258C60.4295 90.7185 60.2825 90.7118 60.1354 90.6925C58.5169 90.528 56.9738 89.9795 55.7094 88.8428C55.6794 88.8254 55.6494 88.7954 55.6257 88.7717C52.2291 85.643 53.2146 80.3544 53.4033 79.3696C53.7148 77.6794 54.3998 75.8771 55.3877 74.1995C56.4229 72.4039 57.7914 70.75 59.3993 69.4632C59.811 69.1348 60.2337 68.8309 60.6739 68.5571C61.5166 68.0357 62.4173 67.61 63.35 67.3313C64.4074 66.9985 65.5205 66.849 66.6678 66.9254C70.7752 67.1812 74.3551 70.1739 75.5299 74.0267Z" fill="#761E19" stroke="#761E19" stroke-width="0.314349" stroke-miterlimit="10"/>
<path d="M62.2379 82.3142C61.6144 81.98 60.6373 81.8436 59.8415 82.3985C58.8881 83.0636 58.5857 84.4485 59.1144 85.4377C59.5879 86.3244 60.6991 86.8376 61.7822 86.452C62.724 86.1168 63.3964 85.1889 63.4114 84.2229C63.4313 82.9802 62.3511 82.3751 62.2379 82.3142Z" fill="#DAA93D" stroke="#951F1D" stroke-width="0.314349" stroke-miterlimit="10"/>
<path d="M62.9757 79.7797C62.4088 80.8052 62.2094 82.4218 63.0434 83.0429C63.5996 83.4569 64.3852 83.2576 64.9565 83.113C65.2453 83.0399 67.5072 82.4662 67.8163 80.8007C68.0335 79.6325 67.1343 78.7623 67.0676 78.7003C66.86 78.5064 66.2482 78.0048 65.3605 78.0517C63.918 78.1272 63.0845 79.5828 62.9757 79.7797Z" fill="#DAA93D" stroke="#951F1D" stroke-width="0.314349" stroke-miterlimit="10"/>
<path d="M63.2839 74.2096C62.7537 74.9749 62.966 75.8258 63.0458 76.1465C63.1082 76.3975 63.3907 77.5314 64.2938 77.7476C65.2525 77.9768 66.458 77.0655 66.7952 75.9582C67.07 75.0575 66.8359 73.8066 65.808 73.3843C64.9092 73.0148 63.8121 73.4463 63.2839 74.2096Z" fill="#DAA93D" stroke="#951F1D" stroke-width="0.314349" stroke-miterlimit="10"/>
<path d="M71.2589 75.6609C70.6378 74.9295 69.3439 74.8585 68.4045 75.3925C67.1821 76.0877 66.5421 77.8189 67.2681 78.9204C67.8166 79.7514 68.9965 80.0014 69.8991 79.6502C71.4233 79.0576 72.1814 76.7468 71.2589 75.6609Z" fill="#DAA93D" stroke="#951F1D" stroke-width="0.314349" stroke-miterlimit="10"/>
<path d="M74.3651 82.6539C73.714 83.8516 72.8931 84.9695 71.9483 85.95C71.5057 85.9409 71.0718 85.864 70.6829 85.7179C69.4746 85.2623 68.7272 84.1318 68.5889 82.9863C68.5565 82.686 68.3844 81.2774 69.2459 80.5822C70.361 79.6694 72.2663 80.7592 72.4898 80.8927C73.1588 81.2695 73.8921 81.9263 74.3651 82.6539Z" fill="#DAA93D" stroke="#951F1D" stroke-width="0.314349" stroke-miterlimit="10"/>
<path d="M67.6229 83.4445C66.5742 83.0913 65.5603 83.8895 65.42 84.0037C65.3237 84.0816 64.0747 85.1274 64.4003 86.3933C64.6358 87.3071 65.5408 87.7468 66.279 87.8019C67.2445 87.8744 68.3833 87.323 68.7998 86.267C69.2588 85.1036 68.6571 83.7927 67.6229 83.4445Z" fill="#DAA93D" stroke="#951F1D" stroke-width="0.314349" stroke-miterlimit="10"/>
<path d="M65.676 88.5254C65.8531 88.9191 65.9716 89.3946 65.9972 89.8798C64.352 90.4666 62.4384 90.8352 60.5785 90.7226C60.521 90.4357 60.5495 90.145 60.6211 89.8722C60.6279 89.8538 60.6346 89.8345 60.6414 89.8161C60.6762 89.698 60.7169 89.5858 60.7643 89.4794C60.892 89.1737 61.0487 88.9096 61.1856 88.6895C61.5121 88.1492 62.276 86.8977 63.435 86.8203C64.8286 86.7347 65.6074 88.3802 65.676 88.5254Z" fill="#DAA93D" stroke="#951F1D" stroke-width="0.314349" stroke-miterlimit="10"/>
<path d="M60.763 89.4827C60.7166 89.5891 60.6755 89.7009 60.6401 89.8194C60.6334 89.8378 60.6261 89.8566 60.6198 89.8755C60.4994 90.1507 60.3358 90.4332 60.1356 90.6925C58.517 90.5281 56.974 89.9796 55.7096 88.8429C56.1179 88.0902 56.7588 87.5199 56.8923 87.399C57.0766 87.2388 58.7218 85.76 59.964 86.3008C59.9882 86.3124 60.0124 86.3241 60.037 86.3352L60.0428 86.341C60.9977 86.8353 61.1176 88.3319 60.763 89.4827Z" fill="#DAA93D" stroke="#951F1D" stroke-width="0.314349" stroke-miterlimit="10"/>
<path d="M54.8258 81.6816C55.9365 81.0518 57.3595 82.0636 57.4471 82.128C57.6662 82.2881 58.6636 83.0669 58.6437 84.3831C58.6234 85.7211 57.5553 87.2584 56.3 87.3295C55.0351 87.4016 54.3018 85.9437 54.1751 85.6748C53.5724 84.3948 53.6595 82.3419 54.8258 81.6816Z" fill="#DAA93D" stroke="#951F1D" stroke-width="0.314349" stroke-miterlimit="10"/>
<path d="M54.0904 79.2412C54.3361 80.0693 55.5696 80.3682 55.7224 80.403C56.0161 80.4703 56.8292 80.6565 57.4005 80.2593C58.59 79.4307 58.324 76.3503 57.182 75.9852C56.0346 75.6176 53.6914 77.8959 54.0904 79.2412Z" fill="#DAA93D" stroke="#951F1D" stroke-width="0.314349" stroke-miterlimit="10"/>
<path d="M60.8527 75.6586C59.4175 75.6591 57.556 78.9098 58.3512 80.6802C58.4146 80.821 58.7604 81.5451 59.4787 81.6897C60.3194 81.859 61.1147 81.1227 61.4668 80.7977C61.729 80.5548 62.5635 79.7833 62.6786 78.6001C62.8175 77.1523 61.8254 75.6581 60.8527 75.6586Z" fill="#DAA93D" stroke="#951F1D" stroke-width="0.314349" stroke-miterlimit="10"/>
<path d="M61.4597 71.9419C61.4868 72.0454 61.8607 74.0137 60.4661 75.1819C59.3443 76.1257 57.928 75.8064 57.617 75.7373C56.8416 75.5617 55.8935 75.0596 55.3885 74.1977C56.4237 72.402 57.7922 70.7482 59.4001 69.4614C60.4933 69.8658 61.2498 70.9155 61.4597 71.9419Z" fill="#DAA93D" stroke="#951F1D" stroke-width="0.314349" stroke-miterlimit="10"/>
<path d="M65.2632 69.1135C65.5631 70.2164 65.0382 71.8345 63.8792 72.2563C62.6573 72.7052 61.4978 71.5709 61.0354 70.7138C60.7123 70.0975 60.5454 69.2544 60.6746 68.5544C61.5172 68.033 62.418 67.6073 63.3506 67.3286C64.2145 67.6062 65.0238 68.2239 65.2632 69.1135Z" fill="#DAA93D" stroke="#951F1D" stroke-width="0.314349" stroke-miterlimit="10"/>
<path d="M70.6312 69.3308C70.1136 68.2744 68.3881 67.9063 67.1116 68.6324C66.1596 69.1732 65.5384 70.2761 65.6255 71.3781C65.7145 72.5022 66.5363 73.5824 67.6721 73.6597C69.325 73.7724 70.3201 71.6716 70.4144 71.465C70.5953 71.0703 71.0239 70.1318 70.6312 69.3308Z" fill="#DAA93D" stroke="#951F1D" stroke-width="0.314349" stroke-miterlimit="10"/>
<path d="M72.5199 70.4581C71.4093 70.5732 70.5022 71.9823 70.4954 73.1945C70.4871 74.5949 71.6785 75.9953 72.8999 75.7751C73.939 75.5884 74.6573 74.2915 74.7188 73.2442C74.8001 71.854 73.7577 70.3298 72.5199 70.4581Z" fill="#DAA93D" stroke="#951F1D" stroke-width="0.314349" stroke-miterlimit="10"/>
<path d="M75.9398 77.0374C75.9398 77.0374 75.9335 77.0437 75.9393 77.0495C75.9296 78.3788 75.6432 79.6994 75.1493 80.9653C74.101 81.2173 72.6518 80.7888 72.2808 79.7928C71.8861 78.7731 72.7956 77.5783 72.9828 77.3321C73.1569 77.1106 74.0335 75.9602 74.848 76.0734C75.264 76.1324 75.6442 76.5126 75.9398 77.0374Z" fill="#DAA93D" stroke="#951F1D" stroke-width="0.314349" stroke-miterlimit="10"/>
<path d="M58.3886 72.2929C58.6406 72.2295 58.8733 72.3819 58.9598 72.571C59.1045 72.8888 58.8543 73.3537 58.552 73.4074C58.2429 73.463 57.9097 73.0834 57.9813 72.7312C58.0181 72.5483 58.1685 72.3485 58.3886 72.2929Z" fill="#761E19"/>
<path d="M56.0326 78.1042C55.8662 78.2764 55.9324 78.5527 56.0432 78.7002C56.1757 78.8782 56.451 78.9754 56.6217 78.8656C56.8351 78.7287 56.8597 78.2842 56.629 78.095C56.4776 77.9707 56.1946 77.9364 56.0326 78.1042Z" fill="#761E19"/>
<path d="M59.9338 78.6226C59.8874 78.9089 60.1326 79.1832 60.4074 79.1503C60.6304 79.1237 60.8156 78.9027 60.8325 78.6729C60.849 78.4475 60.7049 78.2163 60.4674 78.1897C60.2119 78.1606 59.9725 78.3826 59.9338 78.6226Z" fill="#761E19"/>
<path d="M64.7 74.989C64.5263 75.0853 64.4436 75.2958 64.4634 75.4685C64.4934 75.7277 64.7628 75.9526 65.0318 75.8665C65.2804 75.7872 65.4294 75.4747 65.3414 75.229C65.2495 74.9735 64.9297 74.8618 64.7 74.989Z" fill="#761E19"/>
<path d="M58.7292 88.1961C58.5555 88.2924 58.4728 88.5028 58.4927 88.6755C58.5227 88.9347 58.7921 89.1597 59.061 89.0736C59.3096 88.9943 59.4591 88.6823 59.3706 88.4361C59.2787 88.1807 58.9589 88.0689 58.7292 88.1961Z" fill="#761E19"/>
<path d="M56.01 84.3289C55.8363 84.4252 55.7536 84.6356 55.7734 84.8083C55.8034 85.0676 56.0728 85.2925 56.3418 85.2063C56.5904 85.127 56.7399 84.815 56.6514 84.5688C56.5595 84.3134 56.2402 84.2012 56.01 84.3289Z" fill="#761E19"/>
<path d="M60.9196 83.8308C60.746 83.9271 60.6633 84.1375 60.6831 84.3102C60.7131 84.5695 60.9825 84.7944 61.2515 84.7083C61.5001 84.629 61.6496 84.317 61.5611 84.0708C61.4701 83.8154 61.1499 83.7031 60.9196 83.8308Z" fill="#761E19"/>
<path d="M64.9904 80.2195C64.8168 80.3158 64.7341 80.5262 64.7539 80.6989C64.7839 80.9581 65.0533 81.1831 65.3222 81.097C65.5709 81.0177 65.7203 80.7056 65.6318 80.4594C65.5404 80.2045 65.2202 80.0923 64.9904 80.2195Z" fill="#761E19"/>
<path d="M72.5554 72.1941C72.3817 72.2904 72.299 72.5008 72.3188 72.6735C72.3488 72.9328 72.6183 73.1577 72.8872 73.0716C73.1359 72.9922 73.2854 72.6802 73.1969 72.434C73.1054 72.1791 72.7852 72.0669 72.5554 72.1941Z" fill="#761E19"/>
<path d="M67.9534 70.3796C67.7797 70.4759 67.697 70.6863 67.7168 70.859C67.7468 71.1183 68.0162 71.3433 68.2852 71.2572C68.5338 71.1778 68.6828 70.8653 68.5948 70.6196C68.5029 70.3641 68.1832 70.2524 67.9534 70.3796Z" fill="#761E19"/>
<path d="M62.8537 69.3211C62.6801 69.4173 62.5974 69.6278 62.6172 69.8005C62.6471 70.0597 62.9166 70.2846 63.1855 70.1985C63.4342 70.1191 63.5837 69.8071 63.4952 69.5609C63.4038 69.306 63.084 69.1933 62.8537 69.3211Z" fill="#761E19"/>
<path d="M70.9821 83.073C70.8085 83.1693 70.7258 83.3797 70.7456 83.5524C70.7756 83.8117 71.045 84.0366 71.3139 83.9505C71.5626 83.8712 71.712 83.5592 71.6235 83.313C71.5316 83.0576 71.2119 82.9458 70.9821 83.073Z" fill="#761E19"/>
<path d="M63.0735 88.6687C62.8998 88.765 62.8171 88.9754 62.8369 89.1481C62.8669 89.4074 63.1363 89.6323 63.4052 89.5462C63.6539 89.4668 63.8034 89.1548 63.7149 88.9086C63.623 88.6532 63.3037 88.541 63.0735 88.6687Z" fill="#761E19"/>
<path d="M66.3264 85.4168C66.1527 85.513 66.07 85.7235 66.0898 85.8962C66.1198 86.1554 66.3892 86.3803 66.6582 86.2942C66.9068 86.2149 67.0563 85.9028 66.9678 85.6566C66.8759 85.4012 66.5567 85.289 66.3264 85.4168Z" fill="#761E19"/>
<path d="M69.1335 76.9851C68.9599 77.0814 68.8771 77.2919 68.897 77.4645C68.927 77.7238 69.1964 77.9487 69.4654 77.8626C69.714 77.7833 69.8635 77.4713 69.775 77.2251C69.6831 76.9697 69.3633 76.8579 69.1335 76.9851Z" fill="#761E19"/>
<path d="M74.0988 78.2957C73.9252 78.392 73.8425 78.6024 73.8623 78.7751C73.8923 79.0343 74.1617 79.2593 74.4306 79.1732C74.6793 79.0938 74.8287 78.7818 74.7402 78.5356C74.6483 78.2802 74.3286 78.1685 74.0988 78.2957Z" fill="#761E19"/>
<path d="M33.6683 100.777C33.2886 99.9699 33.0603 99.1349 32.9674 98.2604C32.9674 98.2604 32.9723 98.2536 32.9664 98.2497C32.8194 97.1101 32.909 95.9361 33.1813 94.7766C33.2979 94.242 33.4537 93.7254 33.6525 93.2112C34.0666 92.0861 34.6345 91.0044 35.3238 90.021C36.2009 88.7318 37.2695 87.6014 38.4082 86.7384C38.8585 86.3973 39.3679 86.0602 39.9281 85.7496C41.2583 84.9969 42.844 84.3903 44.4393 84.2035C44.5656 84.1875 44.6918 84.1706 44.819 84.1653C46.2151 84.0598 47.5918 84.2949 48.7996 85.076C48.8272 85.0862 48.8562 85.1075 48.8789 85.1244C52.1334 87.2866 51.9122 91.9647 51.8672 92.8368C51.7994 94.3316 51.4274 95.9786 50.783 97.5653C50.112 99.2607 49.1412 100.885 47.9236 102.231C47.6121 102.574 47.2875 102.899 46.945 103.201C46.2891 103.775 45.5726 104.277 44.8117 104.658C43.9512 105.103 43.022 105.401 42.0366 105.51C38.5122 105.916 35.1174 103.897 33.6683 100.777Z" fill="#761E19" stroke="#761E19" stroke-width="0.314349" stroke-miterlimit="10"/>
<path d="M44.0069 91.6583C44.5758 91.8498 45.4233 91.8178 46.0357 91.2219C46.7691 90.5079 46.8648 89.2753 46.2999 88.5091C45.7939 87.8223 44.7883 87.5519 43.9122 88.0468C43.1499 88.4773 42.6864 89.3741 42.7861 90.2032C42.9137 91.2694 43.9034 91.6234 44.0069 91.6583Z" fill="#DAA93D" stroke="#951F1D" stroke-width="0.314349" stroke-miterlimit="10"/>
<path d="M43.6772 93.9413C44.04 92.9768 44.0207 91.5623 43.2385 91.1575C42.7171 90.8876 42.0718 91.1778 41.6026 91.3887C41.3655 91.4952 39.5085 92.3306 39.4393 93.8035C39.3909 94.8368 40.2572 95.4448 40.3211 95.4883C40.5204 95.6228 41.0989 95.9595 41.8487 95.7843C43.0682 95.4994 43.6076 94.1261 43.6772 93.9413Z" fill="#DAA93D" stroke="#951F1D" stroke-width="0.314349" stroke-miterlimit="10"/>
<path d="M44.0625 98.7589C44.4239 98.0231 44.1443 97.3266 44.0389 97.0644C43.9566 96.8593 43.5837 95.9311 42.7904 95.8837C41.9483 95.8329 41.0291 96.7975 40.8714 97.7959C40.7432 98.609 41.0881 99.6447 42.0115 99.8493C42.8184 100.029 43.7012 99.4927 44.0625 98.7589Z" fill="#DAA93D" stroke="#951F1D" stroke-width="0.314349" stroke-miterlimit="10"/>
<path d="M37.1106 98.7283C37.7244 99.2599 38.8337 99.124 39.5704 98.5236C40.5287 97.7424 40.8717 96.163 40.1253 95.3305C39.5618 94.7022 38.529 94.6679 37.802 95.1057C36.5743 95.8448 36.1993 97.9389 37.1106 98.7283Z" fill="#DAA93D" stroke="#951F1D" stroke-width="0.314349" stroke-miterlimit="10"/>
<path d="M33.6521 93.2134C34.0662 92.0883 34.6341 91.0067 35.3234 90.0232C35.7012 89.9637 36.0795 89.9637 36.4268 90.0295C37.508 90.236 38.2761 91.0903 38.5271 92.0505C38.5895 92.3025 38.9005 93.4832 38.2489 94.2084C37.4072 95.1594 35.6585 94.5166 35.4535 94.4363C34.8396 94.2152 34.1392 93.7644 33.6521 93.2134Z" fill="#DAA93D" stroke="#951F1D" stroke-width="0.314349" stroke-miterlimit="10"/>
<path d="M39.295 91.5079C40.2286 91.6511 40.9973 90.8127 41.1037 90.6937C41.1763 90.6125 42.1172 89.5265 41.692 88.4928C41.3853 87.7459 40.5635 87.5075 39.9293 87.5728C39.0992 87.658 38.1951 88.3028 37.9639 89.2702C37.7099 90.3359 38.3745 91.3672 39.295 91.5079Z" fill="#DAA93D" stroke="#951F1D" stroke-width="0.314349" stroke-miterlimit="10"/>
<path d="M40.357 86.8628C40.1606 86.5523 40.0039 86.1633 39.9256 85.7522C41.2558 84.9995 42.8415 84.3928 44.4368 84.2061C44.519 84.4431 44.5287 84.6956 44.5002 84.9408C44.4968 84.9578 44.4929 84.9752 44.4895 84.9921C44.474 85.0985 44.4518 85.2011 44.4247 85.2988C44.3516 85.5798 44.2491 85.8304 44.1581 86.0394C43.9434 86.5522 43.4393 87.7392 42.4622 87.9821C41.2872 88.267 40.4329 86.9765 40.357 86.8628Z" fill="#DAA93D" stroke="#951F1D" stroke-width="0.314349" stroke-miterlimit="10"/>
<path d="M44.4265 85.2984C44.4541 85.2002 44.4759 85.0982 44.4913 84.9917C44.4947 84.9748 44.4986 84.9574 44.502 84.9404C44.5721 84.6865 44.6786 84.4195 44.8184 84.1675C46.2144 84.062 47.5911 84.297 48.7989 85.0782C48.5396 85.7844 48.0607 86.3707 47.9611 86.4945C47.8232 86.6595 46.5964 88.1765 45.4766 87.9023C45.4548 87.896 45.4326 87.8902 45.4108 87.8839L45.405 87.8801C44.5358 87.601 44.2591 86.3375 44.4265 85.2984Z" fill="#DAA93D" stroke="#951F1D" stroke-width="0.314349" stroke-miterlimit="10"/>
<path d="M50.3841 91.0731C49.5124 91.7813 48.1841 91.1312 48.1019 91.0896C47.8973 90.9856 46.9569 90.4709 46.8206 89.341C46.6817 88.1921 47.4107 86.7134 48.4701 86.4618C49.5377 86.2078 50.3315 87.344 50.4713 87.5554C51.1335 88.5592 51.2984 90.3301 50.3841 91.0731Z" fill="#DAA93D" stroke="#951F1D" stroke-width="0.314349" stroke-miterlimit="10"/>
<path d="M51.2971 93.0532C50.9914 92.3808 49.9074 92.3136 49.7729 92.3068C49.5156 92.2943 48.8021 92.258 48.3624 92.6852C47.4471 93.5753 48.0328 96.1724 49.0467 96.3116C50.0664 96.4509 51.7929 94.144 51.2971 93.0532Z" fill="#DAA93D" stroke="#951F1D" stroke-width="0.314349" stroke-miterlimit="10"/>
<path d="M45.9628 97.1486C47.1838 96.93 48.3879 93.8635 47.5046 92.4685C47.4345 92.3577 47.0558 91.7903 46.4279 91.7758C45.6931 91.7589 45.1024 92.5102 44.8412 92.842C44.6467 93.0897 44.0271 93.8777 44.0672 94.9076C44.117 96.1686 45.1352 97.2972 45.9628 97.1486Z" fill="#DAA93D" stroke="#951F1D" stroke-width="0.314349" stroke-miterlimit="10"/>
<path d="M45.8806 100.423C45.8453 100.338 45.2977 98.71 46.3479 97.4973C47.192 96.5187 48.4342 96.5767 48.7071 96.5883C49.3867 96.6207 50.2521 96.9066 50.7827 97.5678C50.1117 99.2633 49.1409 100.887 47.9233 102.233C46.9452 102.053 46.1795 101.269 45.8806 100.423Z" fill="#DAA93D" stroke="#951F1D" stroke-width="0.314349" stroke-miterlimit="10"/>
<path d="M42.9759 103.422C42.5923 102.523 42.8497 101.058 43.7862 100.52C44.7725 99.9499 45.8918 100.745 46.3852 101.409C46.732 101.887 46.9724 102.583 46.9444 103.202C46.2884 103.777 45.572 104.279 44.8111 104.659C44.0435 104.553 43.2835 104.148 42.9759 103.422Z" fill="#DAA93D" stroke="#951F1D" stroke-width="0.314349" stroke-miterlimit="10"/>
<path d="M38.3843 104.052C38.9479 104.878 40.4585 104.93 41.4598 104.115C42.2063 103.507 42.6063 102.468 42.4032 101.537C42.1962 100.588 41.3714 99.7888 40.3962 99.8953C38.977 100.05 38.3757 102 38.3196 102.192C38.2122 102.557 37.9572 103.426 38.3843 104.052Z" fill="#DAA93D" stroke="#951F1D" stroke-width="0.314349" stroke-miterlimit="10"/>
<path d="M36.6447 103.378C37.5759 103.11 38.183 101.766 38.0476 100.727C37.8909 99.5266 36.714 98.5093 35.7011 98.8828C34.8396 99.2006 34.3795 100.42 34.4492 101.327C34.542 102.529 35.6067 103.676 36.6447 103.378Z" fill="#DAA93D" stroke="#951F1D" stroke-width="0.314349" stroke-miterlimit="10"/>
<path d="M32.9676 98.2613C32.9676 98.2613 32.9724 98.2546 32.9666 98.2507C32.8196 97.111 32.9091 95.937 33.1815 94.7775C34.0444 94.4021 35.3268 94.5487 35.7587 95.3454C36.2139 96.1585 35.5792 97.3195 35.4491 97.5589C35.3272 97.7747 34.7153 98.8935 34.009 98.9206C33.6477 98.9337 33.2796 98.6662 32.9676 98.2613Z" fill="#DAA93D" stroke="#951F1D" stroke-width="0.314349" stroke-miterlimit="10"/>
<path d="M48.4511 99.6532C48.2445 99.7456 48.0283 99.6504 47.933 99.5019C47.7729 99.2518 47.9311 98.8159 48.1821 98.7235C48.439 98.6292 48.7665 98.9035 48.7466 99.2164C48.7365 99.3775 48.632 99.572 48.4511 99.6532Z" fill="#761E19"/>
<path d="M49.7741 94.3234C49.8955 94.1507 49.8065 93.9243 49.6957 93.8145C49.5618 93.6824 49.317 93.6408 49.1845 93.7608C49.019 93.9107 49.05 94.2948 49.2681 94.422C49.4108 94.5048 49.6556 94.4912 49.7741 94.3234Z" fill="#761E19"/>
<path d="M46.3992 94.469C46.405 94.2165 46.165 94.0191 45.9343 94.0893C45.7476 94.1463 45.6165 94.3635 45.6286 94.5632C45.6407 94.7582 45.7906 94.9343 45.9957 94.9217C46.2163 94.9072 46.3943 94.6809 46.3992 94.469Z" fill="#761E19"/>
<path d="M42.7667 98.3053C42.9031 98.1969 42.9486 98.0034 42.9118 97.8592C42.8557 97.6416 42.6008 97.4902 42.3817 97.6048C42.1795 97.7103 42.089 98.0001 42.193 98.1979C42.3008 98.4016 42.5862 98.449 42.7667 98.3053Z" fill="#761E19"/>
<path d="M46.3062 86.0885C46.4427 85.9801 46.4882 85.7866 46.4514 85.6425C46.3953 85.4248 46.1404 85.2734 45.9212 85.3881C45.719 85.4935 45.6286 85.7833 45.7326 85.9811C45.8404 86.1848 46.1253 86.2326 46.3062 86.0885Z" fill="#761E19"/>
<path d="M49.0705 88.9869C49.2069 88.8785 49.2524 88.6851 49.2156 88.5409C49.1595 88.3232 48.9046 88.1718 48.6854 88.2865C48.4832 88.3919 48.3927 88.6817 48.4967 88.8796C48.6046 89.0832 48.8895 89.131 49.0705 88.9869Z" fill="#761E19"/>
<path d="M44.9509 90.1587C45.0874 90.0503 45.1328 89.8568 45.096 89.7127C45.0399 89.495 44.785 89.3436 44.5659 89.4582C44.3637 89.5637 44.2732 89.8534 44.3772 90.0513C44.4851 90.2559 44.77 90.3028 44.9509 90.1587Z" fill="#761E19"/>
<path d="M41.9109 93.8696C42.0473 93.7612 42.0928 93.5678 42.056 93.4236C41.9999 93.2059 41.745 93.0545 41.5259 93.1692C41.3237 93.2746 41.2332 93.5644 41.3372 93.7622C41.4446 93.9663 41.73 94.0137 41.9109 93.8696Z" fill="#761E19"/>
<path d="M36.4103 101.893C36.5467 101.785 36.5922 101.591 36.5555 101.447C36.4998 101.23 36.2444 101.078 36.0253 101.193C35.823 101.298 35.7326 101.588 35.8366 101.786C35.9444 101.989 36.2293 102.037 36.4103 101.893Z" fill="#761E19"/>
<path d="M40.5363 102.747C40.6727 102.638 40.7182 102.445 40.6814 102.301C40.6253 102.083 40.3704 101.932 40.1513 102.046C39.9491 102.152 39.8586 102.441 39.9626 102.639C40.0709 102.843 40.3553 102.891 40.5363 102.747Z" fill="#761E19"/>
<path d="M45.0022 102.877C45.1386 102.769 45.1841 102.576 45.1473 102.431C45.0912 102.214 44.8363 102.062 44.6172 102.177C44.415 102.282 44.3245 102.572 44.4285 102.77C44.5359 102.974 44.8213 103.022 45.0022 102.877Z" fill="#761E19"/>
<path d="M36.4788 92.3403C36.6152 92.2319 36.6607 92.0385 36.6239 91.8943C36.5678 91.6766 36.3129 91.5252 36.0938 91.6398C35.8916 91.7453 35.8011 92.0351 35.9051 92.2329C36.0125 92.4371 36.2979 92.4844 36.4788 92.3403Z" fill="#761E19"/>
<path d="M42.5559 86.3442C42.6923 86.2358 42.7378 86.0423 42.701 85.8982C42.6449 85.6805 42.39 85.5291 42.1709 85.6438C41.9687 85.7492 41.8783 86.039 41.9822 86.2368C42.0901 86.4414 42.375 86.4883 42.5559 86.3442Z" fill="#761E19"/>
<path d="M40.1671 89.6237C40.3035 89.5153 40.349 89.3218 40.3123 89.1777C40.2562 88.96 40.0012 88.8086 39.7821 88.9232C39.5799 89.0287 39.4894 89.3184 39.5934 89.5163C39.7013 89.7199 39.9862 89.7678 40.1671 89.6237Z" fill="#761E19"/>
<path d="M38.7645 97.2719C38.9009 97.1636 38.9463 96.9701 38.9096 96.8259C38.8535 96.6082 38.5986 96.4568 38.3794 96.5715C38.1772 96.6769 38.0867 96.9667 38.1907 97.1645C38.2981 97.3687 38.5836 97.4161 38.7645 97.2719Z" fill="#761E19"/>
<path d="M34.3869 96.9047C34.5233 96.7964 34.5688 96.6029 34.5321 96.4587C34.476 96.2411 34.221 96.0897 34.0019 96.2043C33.7997 96.3098 33.7093 96.5995 33.8133 96.7973C33.9211 97.0019 34.206 97.0489 34.3869 96.9047Z" fill="#761E19"/>
<path d="M30.5358 105.245C30.7152 106.186 31.5975 106.73 32.2674 106.902C32.475 106.956 33.4105 107.198 34.1298 106.604C35.0175 105.872 34.7238 104.57 34.7074 104.5C34.4864 103.586 33.6234 102.624 32.492 102.694C31.228 102.772 30.3162 104.095 30.5358 105.245Z" fill="#DAA93D" stroke="#951F1D" stroke-width="0.314349" stroke-miterlimit="10"/>
<path d="M31.8424 104.745C31.8448 105.019 32.151 105.251 32.4349 105.213C32.6091 105.19 32.7886 105.063 32.8399 104.87C32.9076 104.618 32.733 104.347 32.4969 104.277C32.1927 104.188 31.8404 104.449 31.8424 104.745Z" fill="#DAA93D" stroke="#951F1D" stroke-width="0.314349" stroke-miterlimit="10"/>
<path d="M31.7162 112.62C30.7739 112.588 29.6264 114.679 30.1895 115.861C30.234 115.954 30.4782 116.438 30.9527 116.549C31.509 116.68 32.0141 116.215 32.2376 116.009C32.4045 115.856 32.9346 115.369 32.9825 114.594C33.0411 113.647 32.3552 112.643 31.7162 112.62Z" fill="#DAA93D" stroke="#951F1D" stroke-width="0.314349" stroke-miterlimit="10"/>
<path d="M31.4198 114.029C31.1523 113.995 30.8708 114.368 30.9675 114.606C31.0284 114.755 31.235 114.845 31.4198 114.809C31.5615 114.781 31.71 114.675 31.7472 114.512C31.7985 114.287 31.6104 114.054 31.4198 114.029Z" fill="#DAA93D" stroke="#951F1D" stroke-width="0.314349" stroke-miterlimit="10"/>
<path d="M29.0734 109.224C28.7092 108.518 27.5676 108.237 26.7458 108.684C26.1329 109.018 25.7507 109.728 25.8329 110.453C25.9171 111.193 26.482 111.922 27.2294 111.999C28.3178 112.111 28.9225 110.755 28.98 110.621C29.0899 110.366 29.3501 109.759 29.0734 109.224Z" fill="#DAA93D" stroke="#951F1D" stroke-width="0.314349" stroke-miterlimit="10"/>
<path d="M27.1672 109.837C27.0463 109.917 27.0555 110.164 27.1512 110.321C27.2378 110.461 27.4357 110.594 27.5726 110.523C27.7056 110.454 27.7206 110.222 27.6504 110.071C27.56 109.876 27.2983 109.751 27.1672 109.837Z" fill="#DAA93D" stroke="#951F1D" stroke-width="0.314349" stroke-miterlimit="10"/>
<path d="M34.1198 98.5184C34.2992 99.4593 35.1815 100.003 35.8514 100.176C36.0589 100.229 36.9945 100.471 37.7138 99.8776C38.6015 99.1457 38.3079 97.843 38.2914 97.7734C38.0704 96.8596 37.2075 95.897 36.076 95.9672C34.8116 96.0456 33.9002 97.3681 34.1198 98.5184Z" fill="#DAA93D" stroke="#951F1D" stroke-width="0.314349" stroke-miterlimit="10"/>
<path d="M35.4246 98.0188C35.427 98.2931 35.7332 98.5247 36.0172 98.4865C36.1913 98.4633 36.3708 98.3371 36.422 98.1436C36.4898 97.892 36.3152 97.6207 36.0791 97.551C35.7749 97.4615 35.4222 97.7223 35.4246 98.0188Z" fill="#DAA93D" stroke="#951F1D" stroke-width="0.314349" stroke-miterlimit="10"/>
<path d="M35.2982 105.892C34.3559 105.859 33.2084 107.951 33.7714 109.132C33.8159 109.226 34.0602 109.709 34.5348 109.821C35.0906 109.952 35.596 109.486 35.8195 109.281C35.9864 109.128 36.5166 108.64 36.5645 107.866C36.6236 106.918 35.9377 105.914 35.2982 105.892Z" fill="#B2946F" stroke="#761E19" stroke-width="0.314349" stroke-miterlimit="10"/>
<path d="M35.0057 107.302C34.7382 107.268 34.4567 107.641 34.5535 107.879C34.6144 108.028 34.821 108.118 35.0057 108.082C35.1475 108.055 35.296 107.949 35.3332 107.786C35.3845 107.56 35.1968 107.327 35.0057 107.302Z" fill="#761E19"/>
<path d="M28.0676 115.902C27.7034 115.196 26.5618 114.915 25.7399 115.362C25.127 115.695 24.7449 116.406 24.8271 117.131C24.9112 117.871 25.4762 118.6 26.2235 118.677C27.3119 118.789 27.9166 117.432 27.9742 117.298C28.0835 117.043 28.3438 116.437 28.0676 115.902Z" fill="#DAA93D" stroke="#951F1D" stroke-width="0.314349" stroke-miterlimit="10"/>
<path d="M26.1594 116.517C26.0385 116.596 26.0477 116.843 26.1434 117C26.23 117.141 26.4279 117.274 26.5648 117.203C26.6978 117.134 26.7128 116.902 26.6427 116.751C26.5522 116.556 26.2905 116.43 26.1594 116.517Z" fill="#DAA93D" stroke="#951F1D" stroke-width="0.314349" stroke-miterlimit="10"/>
<path d="M19.677 123.752C19.8564 124.693 20.7388 125.237 21.4087 125.41C21.6162 125.463 22.5517 125.705 23.2711 125.112C24.1587 124.38 23.8651 123.077 23.8487 123.007C23.6277 122.094 22.7647 121.131 21.6333 121.201C20.3698 121.28 19.4579 122.603 19.677 123.752Z" fill="#DAA93D" stroke="#951F1D" stroke-width="0.314349" stroke-miterlimit="10"/>
<path d="M20.9842 123.249C20.9866 123.524 21.2928 123.755 21.5768 123.717C21.7509 123.694 21.9299 123.567 21.9816 123.374C22.0494 123.122 21.8748 122.851 21.6387 122.781C21.3344 122.692 20.9818 122.953 20.9842 123.249Z" fill="#DAA93D" stroke="#951F1D" stroke-width="0.314349" stroke-miterlimit="10"/>
<path d="M35.2982 105.892C34.3559 105.859 33.2084 107.951 33.7714 109.132C33.8159 109.226 34.0602 109.709 34.5348 109.821C35.0906 109.952 35.596 109.486 35.8195 109.281C35.9864 109.128 36.5166 108.64 36.5645 107.866C36.6236 106.918 35.9377 105.914 35.2982 105.892Z" fill="#B2946F" stroke="#761E19" stroke-width="0.314349" stroke-miterlimit="10"/>
<path d="M35.0057 107.302C34.7382 107.268 34.4567 107.641 34.5535 107.879C34.6144 108.028 34.821 108.118 35.0057 108.082C35.1475 108.055 35.296 107.949 35.3332 107.786C35.3845 107.56 35.1968 107.327 35.0057 107.302Z" fill="#761E19"/>
<path d="M57.1359 91.7925C56.7717 91.0868 55.6301 90.8053 54.8082 91.2528C54.1953 91.5861 53.8132 92.2962 53.8954 93.0218C53.9796 93.7619 54.5446 94.4904 55.2919 94.5672C56.3803 94.6795 56.985 93.323 57.0425 93.189C57.1519 92.9336 57.4121 92.328 57.1359 91.7925Z" fill="#DAA93D" stroke="#951F1D" stroke-width="0.314349" stroke-miterlimit="10"/>
<path d="M55.2277 92.4115C55.1068 92.4908 55.116 92.738 55.2118 92.8947C55.2983 93.0355 55.4962 93.1685 55.6331 93.0974C55.7661 93.0282 55.7811 92.7965 55.711 92.6451C55.6215 92.4502 55.3598 92.3249 55.2277 92.4115Z" fill="#DAA93D" stroke="#951F1D" stroke-width="0.314349" stroke-miterlimit="10"/>
<path d="M29.4409 119.887C29.6203 120.828 30.5026 121.372 31.1726 121.545C31.3801 121.598 32.3156 121.84 33.035 121.247C33.9226 120.515 33.629 119.212 33.6126 119.142C33.3916 118.229 32.5286 117.266 31.3972 117.336C30.1332 117.414 29.2218 118.738 29.4409 119.887Z" fill="#DAA93D" stroke="#951F1D" stroke-width="0.314349" stroke-miterlimit="10"/>
<path d="M30.7477 119.384C30.7501 119.658 31.0563 119.89 31.3402 119.852C31.5144 119.828 31.6934 119.702 31.7451 119.509C31.8128 119.257 31.6382 118.986 31.4021 118.916C31.0979 118.827 30.7457 119.088 30.7477 119.384Z" fill="#DAA93D" stroke="#951F1D" stroke-width="0.314349" stroke-miterlimit="10"/>
<path d="M35.2982 105.892C34.3559 105.859 33.2084 107.951 33.7714 109.132C33.8159 109.226 34.0602 109.709 34.5348 109.821C35.0906 109.952 35.596 109.486 35.8195 109.281C35.9864 109.128 36.5166 108.64 36.5645 107.866C36.6236 106.918 35.9377 105.914 35.2982 105.892Z" fill="#B2946F" stroke="#761E19" stroke-width="0.314349" stroke-miterlimit="10"/>
<path d="M35.0057 107.302C34.7382 107.268 34.4567 107.641 34.5535 107.879C34.6144 108.028 34.821 108.118 35.0057 108.082C35.1475 108.055 35.296 107.949 35.3332 107.786C35.3845 107.56 35.1968 107.327 35.0057 107.302Z" fill="#761E19"/>
<path d="M18.1994 122.796C17.8351 122.091 16.6936 121.809 15.8717 122.257C15.2588 122.59 14.8767 123.3 14.9589 124.026C15.043 124.766 15.608 125.494 16.3553 125.571C17.4437 125.683 18.0484 124.327 18.106 124.193C18.2158 123.938 18.476 123.331 18.1994 122.796Z" fill="#DAA93D" stroke="#951F1D" stroke-width="0.314349" stroke-miterlimit="10"/>
<path d="M16.2903 123.411C16.1693 123.491 16.1785 123.738 16.2742 123.895C16.3608 124.035 16.5587 124.168 16.6956 124.097C16.8286 124.028 16.8436 123.796 16.7735 123.645C16.6831 123.45 16.4213 123.325 16.2903 123.411Z" fill="#DAA93D" stroke="#951F1D" stroke-width="0.314349" stroke-miterlimit="10"/>
<path d="M22.7893 121.139C22.9688 122.08 23.851 122.624 24.521 122.796C24.7285 122.85 25.664 123.092 26.3833 122.498C27.271 121.766 26.9774 120.464 26.961 120.394C26.7399 119.48 25.877 118.518 24.7456 118.588C23.4816 118.667 22.5702 119.989 22.7893 121.139Z" fill="#DAA93D" stroke="#951F1D" stroke-width="0.314349" stroke-miterlimit="10"/>
<path d="M24.0955 120.64C24.0979 120.914 24.4042 121.146 24.6881 121.108C24.8622 121.084 25.0412 120.958 25.093 120.765C25.1607 120.513 24.9861 120.242 24.75 120.172C24.4462 120.082 24.0931 120.343 24.0955 120.64Z" fill="#DAA93D" stroke="#951F1D" stroke-width="0.314349" stroke-miterlimit="10"/>
<path d="M35.2982 105.892C34.3559 105.859 33.2084 107.951 33.7714 109.132C33.8159 109.226 34.0602 109.709 34.5348 109.821C35.0906 109.952 35.596 109.486 35.8195 109.281C35.9864 109.128 36.5166 108.64 36.5645 107.866C36.6236 106.918 35.9377 105.914 35.2982 105.892Z" fill="#B2946F" stroke="#761E19" stroke-width="0.314349" stroke-miterlimit="10"/>
<path d="M35.0057 107.302C34.7382 107.268 34.4567 107.641 34.5535 107.879C34.6144 108.028 34.821 108.118 35.0057 108.082C35.1475 108.055 35.296 107.949 35.3332 107.786C35.3845 107.56 35.1968 107.327 35.0057 107.302Z" fill="#761E19"/>
<path d="M21.0793 117.392C20.7151 116.686 19.5735 116.405 18.7516 116.852C18.1387 117.186 17.7565 117.896 17.8387 118.621C17.9229 119.361 18.4879 120.09 19.2352 120.167C20.3236 120.279 20.9283 118.923 20.9859 118.789C21.0952 118.533 21.3555 117.928 21.0793 117.392Z" fill="#DAA93D" stroke="#951F1D" stroke-width="0.314349" stroke-miterlimit="10"/>
<path d="M19.1711 118.005C19.0502 118.085 19.0594 118.332 19.1551 118.488C19.2417 118.629 19.4396 118.762 19.5765 118.691C19.7095 118.622 19.7245 118.39 19.6544 118.239C19.5644 118.044 19.3027 117.919 19.1711 118.005Z" fill="#DAA93D" stroke="#951F1D" stroke-width="0.314349" stroke-miterlimit="10"/>
<path d="M40.5364 112.309C40.7158 113.25 41.5981 113.794 42.2681 113.966C42.4756 114.02 43.4111 114.262 44.1304 113.668C45.0181 112.936 44.7245 111.634 44.7081 111.564C44.487 110.65 43.6241 109.688 42.4927 109.758C41.2287 109.837 40.3173 111.159 40.5364 112.309Z" fill="#DAA93D" stroke="#951F1D" stroke-width="0.314349" stroke-miterlimit="10"/>
<path d="M41.8416 111.806C41.844 112.08 42.1502 112.312 42.4341 112.274C42.6083 112.25 42.7878 112.124 42.839 111.931C42.9068 111.679 42.7321 111.408 42.4961 111.338C42.1923 111.248 41.8392 111.509 41.8416 111.806Z" fill="#DAA93D" stroke="#951F1D" stroke-width="0.314349" stroke-miterlimit="10"/>
<path d="M35.2982 105.892C34.3559 105.859 33.2084 107.951 33.7714 109.132C33.8159 109.226 34.0602 109.709 34.5348 109.821C35.0906 109.952 35.596 109.486 35.8195 109.281C35.9864 109.128 36.5166 108.64 36.5645 107.866C36.6236 106.918 35.9377 105.914 35.2982 105.892Z" fill="#B2946F" stroke="#761E19" stroke-width="0.314349" stroke-miterlimit="10"/>
<path d="M35.0057 107.302C34.7382 107.268 34.4567 107.641 34.5535 107.879C34.6144 108.028 34.821 108.118 35.0057 108.082C35.1475 108.055 35.296 107.949 35.3332 107.786C35.3845 107.56 35.1968 107.327 35.0057 107.302Z" fill="#761E19"/>
<path d="M30.8117 111.988C30.4475 111.282 29.3059 111.001 28.484 111.448C27.8711 111.781 27.489 112.491 27.5712 113.217C27.6554 113.957 28.2203 114.686 28.9677 114.763C30.0561 114.875 30.6607 113.518 30.7183 113.384C30.8276 113.129 31.0879 112.523 30.8117 111.988Z" fill="#DAA93D" stroke="#951F1D" stroke-width="0.314349" stroke-miterlimit="10"/>
<path d="M28.9036 112.603C28.7826 112.682 28.7918 112.929 28.8876 113.086C28.9741 113.227 29.172 113.36 29.3089 113.289C29.442 113.22 29.4569 112.988 29.3868 112.836C29.2968 112.642 29.0351 112.517 28.9036 112.603Z" fill="#DAA93D" stroke="#951F1D" stroke-width="0.314349" stroke-miterlimit="10"/>
<path d="M55.8564 98.4226C56.0359 99.3635 56.9182 99.9071 57.5881 100.08C57.7957 100.134 58.7312 100.375 59.4505 99.7818C60.3382 99.0499 60.0446 97.7472 60.0282 97.6775C59.8071 96.7638 58.9441 95.8012 57.8127 95.8714C56.5487 95.9493 55.6373 97.2728 55.8564 98.4226Z" fill="#DAA93D" stroke="#951F1D" stroke-width="0.314349" stroke-miterlimit="10"/>
<path d="M57.163 97.9208C57.1655 98.1951 57.4717 98.4268 57.7556 98.3886C57.9298 98.3653 58.1088 98.2386 58.1605 98.0456C58.2283 97.794 58.0537 97.5227 57.8176 97.453C57.5138 97.364 57.1611 97.6247 57.163 97.9208Z" fill="#DAA93D" stroke="#951F1D" stroke-width="0.314349" stroke-miterlimit="10"/>
<path d="M35.2982 105.892C34.3559 105.859 33.2084 107.951 33.7714 109.132C33.8159 109.226 34.0602 109.709 34.5348 109.821C35.0906 109.952 35.596 109.486 35.8195 109.281C35.9864 109.128 36.5166 108.64 36.5645 107.866C36.6236 106.918 35.9377 105.914 35.2982 105.892Z" fill="#DAA93D" stroke="#951F1D" stroke-width="0.314349" stroke-miterlimit="10"/>
<path d="M35.0057 107.302C34.7382 107.268 34.4567 107.641 34.5535 107.879C34.6144 108.028 34.821 108.118 35.0057 108.082C35.1475 108.055 35.296 107.949 35.3332 107.786C35.3845 107.56 35.1968 107.327 35.0057 107.302Z" fill="#DAA93D" stroke="#951F1D" stroke-width="0.314349" stroke-miterlimit="10"/>
<path d="M29.3488 114.621C28.9846 113.915 27.843 113.633 27.0212 114.081C26.4083 114.414 26.0261 115.124 26.1083 115.85C26.1924 116.59 26.7574 117.318 27.5048 117.395C28.5931 117.508 29.1979 116.151 29.2554 116.017C29.3648 115.762 29.625 115.156 29.3488 114.621Z" fill="#DAA93D" stroke="#951F1D" stroke-width="0.314349" stroke-miterlimit="10"/>
<path d="M27.4377 115.238C27.3168 115.317 27.326 115.564 27.4218 115.721C27.5083 115.862 27.7062 115.995 27.8431 115.924C27.9761 115.854 27.9911 115.623 27.921 115.471C27.8306 115.276 27.5688 115.151 27.4377 115.238Z" fill="#DAA93D" stroke="#951F1D" stroke-width="0.314349" stroke-miterlimit="10"/>
</g>
<defs>
<clipPath id="clip0_4819_341579">
<rect width="140" height="140" fill="white"/>
</clipPath>
</defs>
</svg>
