<svg width="140" height="140" viewBox="0 0 140 140" fill="none" xmlns="http://www.w3.org/2000/svg">
<path d="M92.174 67.0034C91.3189 67.8014 90.4113 68.4951 89.4666 69.0686L89.4628 69.0725C88.6723 69.5498 87.776 69.9939 86.8167 70.4001C85.8689 70.7944 84.8619 71.1469 83.8384 71.4451C82.6444 71.8008 81.4337 72.0867 80.2798 72.2819C79.1803 72.4685 78.138 72.5799 77.2149 72.5998C76.4709 72.6165 75.8078 72.5734 75.2564 72.4621C74.9476 72.4012 74.0165 72.1835 72.8596 72.4295C70.8137 72.8661 69.5239 74.4391 68.902 75.2019C67.6618 76.7157 67.1507 78.2519 66.8327 79.2393C66.1616 81.3234 66.4783 81.4793 65.8739 83.0549C65.6857 83.5456 64.7082 85.9865 62.4978 87.6982C60.9952 88.8619 59.7749 89.0283 57.8299 89.623C52.4082 91.2806 52.5022 92.8582 46.6193 94.8584C43.7461 95.8358 40.0154 96.72 39.7478 96.0953C39.6 95.7503 40.5385 95.0206 41.1463 94.5476C42.991 93.1131 44.7912 92.5517 45.0206 92.4792C49.7004 91.0004 49.5768 87.7271 55.1775 85.6741C57.1928 84.9352 59.0177 84.6956 60.3395 82.9474C60.9276 82.1697 61.2552 81.3057 61.5626 80.4934C62.4092 78.2601 62.2143 77.2858 62.5911 75.96C63.8168 71.6515 69.305 69.8767 68.8103 67.9058C68.776 67.7692 68.7014 67.2643 68.3394 66.3631C68.148 65.8871 67.9954 65.3949 67.8816 64.9021C67.6582 63.9279 67.567 62.9358 67.5659 61.9695C67.5673 60.6992 67.7253 59.473 67.9403 58.3861C68.1877 57.1467 68.5084 56.093 68.753 55.364C68.8566 55.0505 68.9458 54.7996 69.0128 54.6192C69.2171 54.0429 69.4682 53.4658 69.7466 52.8921C70.2285 51.9174 70.8197 50.9565 71.4894 50.0253C72.1783 49.0822 72.9575 48.1726 73.8115 47.3123C74.5735 46.5393 75.4026 45.8159 76.2756 45.1501C77.1255 44.5003 78.0192 43.9082 78.9454 43.3934C79.8793 42.8708 80.8458 42.4255 81.8332 42.0695C82.5727 41.7956 83.3209 41.5762 84.078 41.419C86.2286 40.9533 88.4262 40.9543 90.5331 41.5647C90.5606 41.576 90.5919 41.5832 90.6232 41.5905C91.1324 41.7453 92.2689 42.1232 93.5405 42.8766C94.7413 43.5923 96.061 44.645 97.0849 46.1703C97.2169 46.3668 97.3411 46.5634 97.4616 46.7717C97.8713 47.4816 98.1844 48.236 98.4123 49.023C98.814 50.3915 98.9484 51.8543 98.8613 53.3482C98.82 54.1126 98.7166 54.8937 98.5585 55.6679C98.3577 56.6688 98.0673 57.6753 97.6985 58.6597C97.3298 59.644 96.8868 60.6102 96.3769 61.5425C95.8481 62.5101 95.2486 63.4401 94.5856 64.3087C93.851 65.2912 93.0368 66.1976 92.174 67.0034Z" fill="#E2C148" stroke="#951F1D" stroke-width="0.253176" stroke-miterlimit="10"/>
<path d="M92.174 67.0034C91.3189 67.8014 90.4113 68.4951 89.4666 69.0686L89.4628 69.0725C88.6723 69.5498 87.776 69.9939 86.8167 70.4001C85.8689 70.7944 84.8619 71.1469 83.8384 71.4451C82.6444 71.8008 81.4337 72.0867 80.2798 72.2819C79.1803 72.4685 78.138 72.5799 77.2149 72.5998C76.4709 72.6165 75.8078 72.5734 75.2564 72.4621C74.9476 72.4012 74.0165 72.1835 72.8596 72.4295C70.8137 72.8661 69.5239 74.4391 68.902 75.2019C67.6618 76.7157 67.1507 78.2519 66.8327 79.2393C66.1616 81.3234 66.4783 81.4793 65.8739 83.0549C65.6857 83.5456 64.7082 85.9865 62.4978 87.6982C60.9952 88.8619 59.7749 89.0283 57.8299 89.623C52.4082 91.2806 52.5022 92.8582 46.6193 94.8584C43.7461 95.8358 40.0154 96.72 39.7478 96.0953C39.6 95.7503 40.5385 95.0206 41.1463 94.5476C42.991 93.1131 44.7912 92.5517 45.0206 92.4792C49.7004 91.0004 49.5768 87.7271 55.1775 85.6741C57.1928 84.9352 59.0177 84.6956 60.3395 82.9474C60.9276 82.1697 61.2552 81.3057 61.5626 80.4934C62.4092 78.2601 62.2143 77.2858 62.5911 75.96C63.8168 71.6515 69.305 69.8767 68.8103 67.9058C68.776 67.7692 68.7014 67.2643 68.3394 66.3631C68.148 65.8871 67.9954 65.3949 67.8816 64.9021C67.6582 63.9279 67.567 62.9358 67.5659 61.9695C67.5673 60.6992 67.7253 59.473 67.9403 58.3861C68.1877 57.1467 68.5084 56.093 68.753 55.364C68.8566 55.0505 68.9458 54.7996 69.0128 54.6192C69.2171 54.0429 69.4682 53.4658 69.7466 52.8921C70.2285 51.9174 70.8197 50.9565 71.4894 50.0253C72.1783 49.0822 72.9575 48.1726 73.8115 47.3123C74.5735 46.5393 75.4026 45.8159 76.2756 45.1501C77.1255 44.5003 78.0192 43.9082 78.9454 43.3934C79.8793 42.8708 80.8458 42.4255 81.8332 42.0695C82.5727 41.7956 83.3209 41.5762 84.078 41.419C86.2286 40.9533 88.4262 40.9543 90.5331 41.5647C90.5606 41.576 90.5919 41.5832 90.6232 41.5905C91.1324 41.7453 92.2689 42.1232 93.5405 42.8766C94.7413 43.5923 96.061 44.645 97.0849 46.1703C97.2169 46.3668 97.3411 46.5634 97.4616 46.7717C97.8713 47.4816 98.1844 48.236 98.4123 49.023C98.814 50.3915 98.9484 51.8543 98.8613 53.3482C98.82 54.1126 98.7166 54.8937 98.5585 55.6679C98.3577 56.6688 98.0673 57.6753 97.6985 58.6597C97.3298 59.644 96.8868 60.6102 96.3769 61.5425C95.8481 62.5101 95.2486 63.4401 94.5856 64.3087C93.851 65.2912 93.0368 66.1976 92.174 67.0034Z" fill="url(#paint0_linear_4819_341578)"/>
<path d="M98.4121 49.0209C97.7645 49.1996 96.9793 49.3067 96.1086 49.2087C95.8588 49.1819 95.6009 49.1396 95.3505 49.0816C94.5681 48.9003 93.7947 48.5668 93.097 48.1074C92.62 47.7844 92.1692 47.4025 91.7875 46.9649L91.7757 46.9535C91.6763 46.8422 91.5848 46.7307 91.5009 46.6114C91.0105 45.9692 90.6546 45.2194 90.4806 44.3924C90.4212 44.1129 90.3893 43.8446 90.3731 43.5838C90.3326 42.8247 90.4533 42.1446 90.623 41.5884C91.1322 41.7433 92.2687 42.1211 93.5403 42.8745C93.5014 43.1051 93.4863 43.3586 93.5105 43.6271C93.5383 43.8837 93.5974 44.1477 93.715 44.4145C93.8003 44.6118 93.9047 44.7892 94.0242 44.943C94.5468 45.647 95.2958 45.9185 95.5194 46.0043C96.0684 46.2052 96.6026 46.2311 97.0847 46.1682C97.2167 46.3647 97.3409 46.5613 97.4614 46.7696C97.8711 47.4795 98.1842 48.2339 98.4121 49.0209Z" fill="#E2C148" stroke="#951F1D" stroke-width="0.253176" stroke-miterlimit="10"/>
<path d="M93.5122 43.6277L90.3756 43.5837" stroke="#951F1D" stroke-width="0.253176" stroke-miterlimit="10"/>
<path d="M94.025 44.9475L91.4358 46.6563" stroke="#951F1D" stroke-width="0.253176" stroke-miterlimit="10"/>
<path d="M95.5205 46.0039L95.3532 49.0803" stroke="#951F1D" stroke-width="0.253176" stroke-miterlimit="10"/>
<path d="M91.4339 46.6556C90.7799 47.2089 90.1267 47.7622 89.4727 48.3155C89.1506 48.2081 88.6853 48.0712 88.115 47.9653C84.9009 47.3692 82.2483 48.4967 81.4304 48.8572C78.0023 50.367 75.2476 53.5913 74.4152 57.231C73.7668 60.0656 74.1786 63.6195 75.0752 63.8047C75.3634 63.864 75.6513 63.5652 75.8441 63.36C77.0252 62.1025 76.5869 60.2581 76.6563 58.7739C76.803 55.6347 79.2745 52.9803 81.1937 51.7946C83.1926 50.5596 86.8892 49.4983 88.6607 51.2632C90.4639 53.0595 89.3983 56.9128 87.9899 59.0385C87.1461 60.3124 85.1086 62.5803 82.1185 63.712C80.8263 64.2011 78.9823 64.619 78.552 65.9836C78.4822 66.2057 78.3522 66.6171 78.55 66.8794C79.2997 67.8718 84.2525 66.0707 87.7701 62.9536C89.243 61.6486 91.2911 59.8329 92.032 56.6687C92.7344 53.6687 91.8647 51.1471 91.4291 50.0944C91.985 49.431 92.5408 48.7675 93.0967 48.1041C92.5432 47.6208 91.9885 47.1378 91.4339 46.6556Z" fill="#E2C148" stroke="#951F1D" stroke-width="0.253176" stroke-miterlimit="10"/>
<path d="M84.0767 41.416C84.2971 42.4448 84.2971 42.4448 84.4073 42.9596C84.5933 43.284 84.851 43.7429 85.1455 44.3009C85.8062 45.5519 85.8644 45.8073 85.7532 46.0247C85.5535 46.4162 84.8499 46.6029 84.5243 46.3642C84.2749 46.1815 84.3339 45.8127 84.3771 44.5904C84.4016 43.8925 84.4062 43.3247 84.4073 42.9596C84.2971 42.4448 84.2971 42.4448 84.0767 41.416Z" fill="#951F1D" stroke="#951F1D" stroke-width="0.253176" stroke-miterlimit="10"/>
<path d="M86.7773 57.7092C85.6452 58.9121 83.5947 59.0371 82.3756 57.7852C81.1641 56.5405 81.2994 54.475 82.6048 53.3568C83.9091 52.2397 85.9381 52.4486 86.9727 53.7567C87.8965 54.9242 87.7755 56.6489 86.7773 57.7092Z" fill="#761E19" stroke="#761E19" stroke-width="0.253176" stroke-miterlimit="10"/>
<path d="M84.5649 52.6786C84.1545 52.764 83.924 53.1541 83.8531 53.4487C83.8313 53.5395 83.7328 53.9507 83.9977 54.261C84.3246 54.6434 84.8923 54.5054 84.9221 54.4975C85.3201 54.394 85.7346 54.0093 85.6953 53.5147C85.6514 52.9622 85.0661 52.5737 84.5649 52.6786Z" fill="#DAA93D" stroke="#951F1D" stroke-width="0.253176" stroke-miterlimit="10"/>
<path d="M84.797 53.2471C84.677 53.2499 84.5781 53.3857 84.597 53.5097C84.6084 53.5858 84.6655 53.6632 84.75 53.6843C84.8604 53.712 84.9779 53.634 85.0065 53.5299C85.0431 53.396 84.9267 53.2437 84.797 53.2471Z" fill="#761E19"/>
<path d="M82.85 53.5262C82.4397 53.6116 82.2092 54.0017 82.1383 54.2963C82.1165 54.3871 82.018 54.7983 82.2829 55.1086C82.6098 55.491 83.1775 55.353 83.2074 55.3451C83.6053 55.2416 84.0199 54.857 83.9805 54.3624C83.937 53.8103 83.3516 53.4217 82.85 53.5262Z" fill="#DAA93D" stroke="#951F1D" stroke-width="0.253176" stroke-miterlimit="10"/>
<path d="M83.0809 54.0946C82.9609 54.0974 82.8619 54.2332 82.8808 54.3571C82.8923 54.4333 82.9493 54.5106 83.0339 54.5318C83.1442 54.5595 83.2617 54.4815 83.2903 54.3774C83.3273 54.2439 83.2102 54.0916 83.0809 54.0946Z" fill="#761E19"/>
<path d="M84.477 54.577C84.0666 54.6624 83.8361 55.0525 83.7652 55.3472C83.7434 55.438 83.6449 55.8492 83.9098 56.1594C84.2367 56.5419 84.8044 56.4039 84.8342 56.396C85.2322 56.2925 85.6468 55.9078 85.6075 55.4132C85.564 54.861 84.9782 54.4721 84.477 54.577Z" fill="#DAA93D" stroke="#951F1D" stroke-width="0.253176" stroke-miterlimit="10"/>
<path d="M84.7086 55.1436C84.5887 55.1464 84.4897 55.2822 84.5086 55.4061C84.5201 55.4823 84.5771 55.5597 84.6616 55.5808C84.772 55.6085 84.8895 55.5305 84.9181 55.4264C84.9547 55.2925 84.8383 55.1402 84.7086 55.1436Z" fill="#761E19"/>
<path d="M86.2158 53.7254C85.8054 53.8108 85.5748 54.201 85.504 54.4956C85.4822 54.5864 85.3837 54.9976 85.6486 55.3078C85.9755 55.6903 86.5432 55.5523 86.5731 55.5444C86.971 55.4409 87.3856 55.0562 87.3462 54.5616C87.3023 54.0091 86.717 53.6206 86.2158 53.7254Z" fill="#DAA93D" stroke="#951F1D" stroke-width="0.253176" stroke-miterlimit="10"/>
<path d="M86.4466 54.2918C86.3266 54.2947 86.2277 54.4304 86.2466 54.5543C86.2581 54.6305 86.3151 54.7079 86.3996 54.729C86.51 54.7567 86.6275 54.6787 86.6561 54.5746C86.6927 54.4407 86.5759 54.2888 86.4466 54.2918Z" fill="#761E19"/>
<path d="M87.1421 56.148C86.9278 55.7878 86.484 55.6961 86.1829 55.7247C86.0899 55.7337 85.669 55.7737 85.4615 56.1249C85.2056 56.5587 85.5208 57.05 85.5384 57.0762C85.7656 57.4191 86.2643 57.6864 86.7191 57.4883C87.2265 57.2684 87.4038 56.5885 87.1421 56.148Z" fill="#DAA93D" stroke="#951F1D" stroke-width="0.253176" stroke-miterlimit="10"/>
<path d="M86.6795 56.5484C86.6378 56.4361 86.4772 56.3867 86.366 56.4447C86.298 56.4802 86.2433 56.559 86.2503 56.6462C86.26 56.7598 86.3722 56.8452 86.4796 56.8386C86.6182 56.83 86.7245 56.67 86.6795 56.5484Z" fill="#761E19"/>
<path d="M82.8247 57.4872C83.2432 57.4656 83.5313 57.1158 83.646 56.836C83.6815 56.7492 83.8423 56.3584 83.6282 56.0114C83.364 55.583 82.7819 55.632 82.7508 55.6357C82.3416 55.677 81.8729 55.9933 81.8355 56.488C81.7945 57.0397 82.3131 57.5139 82.8247 57.4872Z" fill="#DAA93D" stroke="#951F1D" stroke-width="0.253176" stroke-miterlimit="10"/>
<path d="M82.6835 56.8895C82.8026 56.905 82.9213 56.786 82.9214 56.6605C82.9221 56.5838 82.8773 56.4984 82.7969 56.4644C82.6917 56.4202 82.5641 56.4793 82.5198 56.5774C82.4624 56.7043 82.5546 56.873 82.6835 56.8895Z" fill="#761E19"/>
<path d="M85.2074 58.4852C85.556 58.2528 85.6243 57.8047 85.5797 57.5051C85.566 57.4122 85.5039 56.9944 85.1421 56.8058C84.6958 56.5731 84.2209 56.9133 84.1959 56.932C83.8658 57.1769 83.6249 57.6888 83.8458 58.1327C84.0932 58.6275 84.7814 58.7692 85.2074 58.4852Z" fill="#DAA93D" stroke="#951F1D" stroke-width="0.253176" stroke-miterlimit="10"/>
<path d="M84.7804 58.044C84.8906 57.9965 84.9314 57.8337 84.868 57.7257C84.8291 57.6597 84.7471 57.609 84.6605 57.621C84.5473 57.6366 84.4679 57.7529 84.4803 57.8598C84.4963 57.9979 84.6617 58.0955 84.7804 58.044Z" fill="#761E19"/>
<path d="M69.6857 55.7135C69.3091 55.5719 69.2189 55.5384 68.7522 55.3634C69.2189 55.5384 69.3091 55.5719 69.6857 55.7135C69.9968 55.9068 70.4736 56.2143 71.0494 56.6096C72.0549 57.2975 72.3358 57.5459 72.6262 57.4357C73.0015 57.285 73.2194 56.5916 72.9946 56.2136C72.8702 56.0014 72.6232 55.9161 71.2147 55.804C70.5865 55.7564 70.06 55.7304 69.6857 55.7135Z" fill="#951F1D"/>
<path d="M69.6857 55.7135C69.3091 55.5719 69.2189 55.5384 68.7522 55.3634C69.2189 55.5384 69.3091 55.5719 69.6857 55.7135ZM69.6857 55.7135C69.9968 55.9068 70.4736 56.2143 71.0494 56.6096C72.0549 57.2975 72.3358 57.5459 72.6262 57.4357C73.0015 57.285 73.2194 56.5916 72.9946 56.2136C72.8702 56.0014 72.6232 55.9161 71.2147 55.804C70.5865 55.7564 70.06 55.7304 69.6857 55.7135Z" stroke="#951F1D" stroke-width="0.253176" stroke-miterlimit="10"/>
<path d="M70.6606 53.2732C70.2878 53.1199 70.2014 53.0824 69.7461 52.8876C70.2014 53.0824 70.2878 53.1199 70.6606 53.2732C70.9565 53.4824 71.4219 53.8095 71.9825 54.2284C72.9576 54.9636 73.2309 55.2199 73.5214 55.1175C73.9049 54.9901 74.1503 54.3079 73.9448 53.9179C73.8281 53.7056 73.5887 53.6045 72.1831 53.4339C71.5544 53.3552 71.0314 53.3097 70.6606 53.2732Z" fill="#951F1D"/>
<path d="M70.6606 53.2732C70.2878 53.1199 70.2014 53.0824 69.7461 52.8876C70.2014 53.0824 70.2878 53.1199 70.6606 53.2732ZM70.6606 53.2732C70.9565 53.4824 71.4219 53.8095 71.9825 54.2284C72.9576 54.9636 73.2309 55.2199 73.5214 55.1175C73.9049 54.9901 74.1503 54.3079 73.9448 53.9179C73.8281 53.7056 73.5887 53.6045 72.1831 53.4339C71.5544 53.3552 71.0314 53.3097 70.6606 53.2732Z" stroke="#951F1D" stroke-width="0.253176" stroke-miterlimit="10"/>
<path d="M72.1883 50.4995C71.8925 50.2981 71.7978 50.2296 71.4903 50.0245C71.7978 50.2296 71.8925 50.2981 72.1883 50.4995C72.4421 50.7601 72.8312 51.1742 73.3 51.696C74.1145 52.6055 74.3302 52.9135 74.6334 52.8693C75.0339 52.8195 75.4128 52.1973 75.2847 51.7748C75.2145 51.5461 74.9938 51.4018 73.6495 50.9536C73.0538 50.7534 72.5485 50.6024 72.1883 50.4995Z" fill="#951F1D"/>
<path d="M72.1883 50.4995C71.8925 50.2981 71.7978 50.2296 71.4903 50.0245C71.7978 50.2296 71.8925 50.2981 72.1883 50.4995ZM72.1883 50.4995C72.4421 50.7601 72.8312 51.1742 73.3 51.696C74.1145 52.6055 74.3302 52.9135 74.6334 52.8693C75.0339 52.8195 75.4128 52.1973 75.2847 51.7748C75.2145 51.5461 74.9938 51.4018 73.6495 50.9536C73.0538 50.7534 72.5485 50.6024 72.1883 50.4995Z" stroke="#951F1D" stroke-width="0.253176" stroke-miterlimit="10"/>
<path d="M74.5296 48.0727C74.2399 47.7698 74.1804 47.7046 73.8112 47.3097C74.1804 47.7046 74.2399 47.7698 74.5296 48.0727C74.7181 48.385 75.0071 48.871 75.3528 49.4807C75.9479 50.5459 76.0902 50.8902 76.3986 50.9199C76.8005 50.9559 77.3057 50.425 77.2748 49.9891C77.255 49.7479 77.0724 49.5562 75.8559 48.833C75.3165 48.5111 74.8561 48.2502 74.5296 48.0727Z" fill="#951F1D"/>
<path d="M74.5296 48.0727C74.2399 47.7698 74.1804 47.7046 73.8112 47.3097C74.1804 47.7046 74.2399 47.7698 74.5296 48.0727ZM74.5296 48.0727C74.7181 48.385 75.0071 48.871 75.3528 49.4807C75.9479 50.5459 76.0902 50.8902 76.3986 50.9199C76.8005 50.9559 77.3057 50.425 77.2748 49.9891C77.255 49.7479 77.0724 49.5562 75.8559 48.833C75.3165 48.5111 74.8561 48.2502 74.5296 48.0727Z" stroke="#951F1D" stroke-width="0.253176" stroke-miterlimit="10"/>
<path d="M76.8839 46.1121C76.6437 45.7421 76.6076 45.6843 76.2749 45.1484C76.6076 45.6843 76.6437 45.7421 76.8839 46.1121C77.0028 46.4568 77.1951 46.9873 77.4093 47.6538C77.7919 48.82 77.8644 49.1811 78.162 49.2695C78.5458 49.3798 79.1465 48.9642 79.1974 48.5308C79.2282 48.2848 79.0842 48.0691 78.0351 47.117C77.5681 46.6964 77.1647 46.3527 76.8839 46.1121Z" fill="#951F1D"/>
<path d="M76.8839 46.1121C76.6437 45.7421 76.6076 45.6843 76.2749 45.1484C76.6076 45.6843 76.6437 45.7421 76.8839 46.1121ZM76.8839 46.1121C77.0028 46.4568 77.1951 46.9873 77.4093 47.6538C77.7919 48.82 77.8644 49.1811 78.162 49.2695C78.5458 49.3798 79.1465 48.9642 79.1974 48.5308C79.2282 48.2848 79.0842 48.0691 78.0351 47.117C77.5681 46.6964 77.1647 46.3527 76.8839 46.1121Z" stroke="#951F1D" stroke-width="0.253176" stroke-miterlimit="10"/>
<path d="M79.4112 44.4171C79.2327 44.015 79.2043 43.9492 78.9453 43.3926C79.2043 43.9492 79.2327 44.015 79.4112 44.4171C79.4875 44.7743 79.6023 45.3295 79.7272 46.017C79.9429 47.2212 79.961 47.5911 80.2476 47.7147C80.6167 47.8798 81.2656 47.5491 81.3751 47.1264C81.4372 46.8876 81.328 46.6518 80.417 45.5726C80.0112 45.0887 79.6614 44.6895 79.4112 44.4171Z" fill="#951F1D"/>
<path d="M79.4112 44.4171C79.2327 44.015 79.2043 43.9492 78.9453 43.3926C79.2043 43.9492 79.2327 44.015 79.4112 44.4171ZM79.4112 44.4171C79.4875 44.7743 79.6023 45.3295 79.7272 46.017C79.9429 47.2212 79.961 47.5911 80.2476 47.7147C80.6167 47.8798 81.2656 47.5491 81.3751 47.1264C81.4372 46.8876 81.328 46.6518 80.417 45.5726C80.0112 45.0887 79.6614 44.6895 79.4112 44.4171Z" stroke="#951F1D" stroke-width="0.253176" stroke-miterlimit="10"/>
<path d="M81.8101 41.957C82.0305 42.9858 82.0305 42.9858 82.1407 43.5006C82.3267 43.8251 82.5844 44.2839 82.8789 44.8419C83.5396 46.0929 83.5978 46.3483 83.4866 46.5657C83.2869 46.9573 82.5833 47.144 82.2577 46.9053C82.0083 46.7226 82.0673 46.3537 82.1105 45.1314C82.135 44.4335 82.1396 43.8657 82.1407 43.5006C82.0301 42.9862 82.0301 42.9862 81.8101 41.957Z" fill="#951F1D" stroke="#951F1D" stroke-width="0.253176" stroke-miterlimit="10"/>
<path d="M68.8068 64.7836C68.4219 64.8331 68.3169 64.8466 67.8815 64.9009C68.3166 64.847 68.4215 64.8335 68.8068 64.7836C69.1697 64.8124 69.7356 64.8689 70.4306 64.9504C71.641 65.0931 72.0088 65.1803 72.2113 64.9469C72.4748 64.6423 72.3456 63.9276 71.9714 63.6964C71.7666 63.5674 71.5022 63.6032 70.2065 64.1594C69.6221 64.4075 69.1431 64.6258 68.8068 64.7836Z" fill="#951F1D"/>
<path d="M68.8068 64.7836C68.4219 64.8331 68.3169 64.8466 67.8815 64.9009C68.3166 64.847 68.4215 64.8335 68.8068 64.7836ZM68.8068 64.7836C69.1697 64.8124 69.7356 64.8689 70.4306 64.9504C71.641 65.0931 72.0088 65.1803 72.2113 64.9469C72.4748 64.6423 72.3456 63.9276 71.9714 63.6964C71.7666 63.5674 71.5022 63.6032 70.2065 64.1594C69.6221 64.4075 69.1431 64.6258 68.8068 64.7836Z" stroke="#951F1D" stroke-width="0.253176" stroke-miterlimit="10"/>
<path d="M68.5351 61.9706C68.1377 61.9696 68.0402 61.9674 67.5648 61.9678C68.0402 61.9674 68.1377 61.9696 68.5351 61.9706C68.891 62.0463 69.4504 62.173 70.1236 62.3484C71.3055 62.6475 71.6547 62.7856 71.885 62.5791C72.1882 62.3128 72.1561 61.5847 71.82 61.306C71.6264 61.1496 71.3693 61.154 70.0044 61.5361C69.3994 61.7024 68.8916 61.8553 68.5351 61.9706Z" fill="#951F1D"/>
<path d="M68.5351 61.9706C68.1377 61.9696 68.0402 61.9674 67.5648 61.9678C68.0402 61.9674 68.1377 61.9696 68.5351 61.9706ZM68.5351 61.9706C68.891 62.0463 69.4504 62.173 70.1236 62.3484C71.3055 62.6475 71.6547 62.7856 71.885 62.5791C72.1882 62.3128 72.1561 61.5847 71.82 61.306C71.6264 61.1496 71.3693 61.154 70.0044 61.5361C69.3994 61.7024 68.8916 61.8553 68.5351 61.9706Z" stroke="#951F1D" stroke-width="0.253176" stroke-miterlimit="10"/>
<path d="M69.0073 58.6048C68.5889 58.5146 68.5107 58.5004 67.9398 58.3855C68.5107 58.5004 68.5889 58.5146 69.0073 58.6048C69.3411 58.751 69.8594 58.9836 70.4919 59.2805C71.592 59.8071 71.9112 60.0081 72.1773 59.8515C72.5245 59.6507 72.6328 58.928 72.3542 58.5899C72.199 58.4016 71.9409 58.3515 70.5323 58.4616C69.9019 58.5114 69.3768 58.5634 69.0073 58.6048Z" fill="#951F1D"/>
<path d="M69.0073 58.6048C68.5889 58.5146 68.5107 58.5004 67.9398 58.3855C68.5107 58.5004 68.5889 58.5146 69.0073 58.6048ZM69.0073 58.6048C69.3411 58.751 69.8594 58.9836 70.4919 59.2805C71.592 59.8071 71.9112 60.0081 72.1773 59.8515C72.5245 59.6507 72.6328 58.928 72.3542 58.5899C72.199 58.4016 71.9409 58.3515 70.5323 58.4616C69.9019 58.5114 69.3768 58.5634 69.0073 58.6048Z" stroke="#951F1D" stroke-width="0.253176" stroke-miterlimit="10"/>
<path d="M97.705 53.2288C98.1422 53.2758 98.2124 53.2824 98.8604 53.3491C98.2124 53.2824 98.1422 53.2758 97.705 53.2288C97.3595 53.0789 96.8765 52.8651 96.2919 52.6298C94.9774 52.103 94.7196 52.0685 94.5116 52.2046C94.1455 52.4408 94.0333 53.1597 94.3034 53.459C94.51 53.6892 94.8707 53.5933 96.0835 53.4243C96.7754 53.3267 97.3393 53.2663 97.705 53.2288Z" fill="#951F1D"/>
<path d="M97.705 53.2288C98.1422 53.2758 98.2124 53.2824 98.8604 53.3491C98.2124 53.2824 98.1422 53.2758 97.705 53.2288ZM97.705 53.2288C97.3595 53.0789 96.8765 52.8651 96.2919 52.6298C94.9774 52.103 94.7196 52.0685 94.5116 52.2046C94.1455 52.4408 94.0333 53.1597 94.3034 53.459C94.51 53.6892 94.8707 53.5933 96.0835 53.4243C96.7754 53.3267 97.3393 53.2663 97.705 53.2288Z" stroke="#951F1D" stroke-width="0.253176" stroke-miterlimit="10"/>
<path d="M86.5236 69.7872C86.6529 70.0577 86.7095 70.1736 86.8147 70.3978C86.7095 70.1736 86.6529 70.0577 86.5236 69.7872C86.4665 69.418 86.3835 68.9012 86.2675 68.2758C86.0174 66.8852 85.9004 66.6495 85.6804 66.5442C85.2798 66.3641 84.6107 66.6523 84.5044 67.0399C84.4238 67.3374 84.6971 67.5938 85.4887 68.527C85.9382 69.0608 86.2926 69.5028 86.5236 69.7872Z" fill="#951F1D"/>
<path d="M86.5236 69.7872C86.6529 70.0577 86.7095 70.1736 86.8147 70.3978C86.7095 70.1736 86.6529 70.0577 86.5236 69.7872ZM86.5236 69.7872C86.4665 69.418 86.3835 68.9012 86.2675 68.2758C86.0174 66.8852 85.9004 66.6495 85.6804 66.5442C85.2798 66.3641 84.6107 66.6523 84.5044 67.0399C84.4238 67.3374 84.6971 67.5938 85.4887 68.527C85.9382 69.0608 86.2926 69.5028 86.5236 69.7872Z" stroke="#951F1D" stroke-width="0.253176" stroke-miterlimit="10"/>
<path d="M89.4653 69.0649C89.1034 68.4166 89.0792 68.3702 88.8539 67.9611C88.7852 67.596 88.6827 67.0756 88.5396 66.4624C88.2235 65.0847 88.1026 64.853 87.8789 64.7594C87.4708 64.595 86.8138 64.9103 86.7233 65.3054C86.6545 65.6066 86.9431 65.8471 87.7691 66.7446C88.2456 67.2585 88.6153 67.6846 88.8539 67.9611C88.9384 68.1155 89.0237 68.2698 89.1094 68.4254C89.228 68.6396 89.3466 68.8523 89.4653 69.0649Z" fill="#951F1D" stroke="#951F1D" stroke-width="0.253176" stroke-miterlimit="10"/>
<path d="M91.4638 66.1594C91.7423 66.4897 91.7901 66.5512 92.172 67.0044C91.7901 66.5512 91.7423 66.4897 91.4638 66.1594C91.3213 65.8073 91.1182 65.3277 90.8588 64.7477C90.2793 63.4601 90.1121 63.2604 89.8697 63.21C89.4435 63.1277 88.8628 63.5703 88.8503 63.9718C88.8401 64.2837 89.1666 64.4612 90.1571 65.1806C90.7213 65.5878 91.1754 65.9345 91.4638 66.1594Z" fill="#951F1D"/>
<path d="M91.4638 66.1594C91.7423 66.4897 91.7901 66.5512 92.172 67.0044C91.7901 66.5512 91.7423 66.4897 91.4638 66.1594ZM91.4638 66.1594C91.3213 65.8073 91.1182 65.3277 90.8588 64.7477C90.2793 63.4601 90.1121 63.2604 89.8697 63.21C89.4435 63.1277 88.8628 63.5703 88.8503 63.9718C88.8401 64.2837 89.1666 64.4612 90.1571 65.1806C90.7213 65.5878 91.1754 65.9345 91.4638 66.1594Z" stroke="#951F1D" stroke-width="0.253176" stroke-miterlimit="10"/>
<path d="M93.6339 63.5788C93.9933 63.8571 94.0445 63.8913 94.5855 64.3066C94.0445 63.8913 93.9933 63.8571 93.6339 63.5788C93.4259 63.2707 93.1185 62.8435 92.7434 62.3356C91.8939 61.2008 91.6885 61.0407 91.447 61.0449C91.0068 61.0564 90.5372 61.6139 90.6142 62.01C90.6662 62.3131 91.0304 62.4198 92.1493 62.9031C92.7893 63.1843 93.3038 63.4209 93.6339 63.5788Z" fill="#951F1D"/>
<path d="M93.6339 63.5788C93.9933 63.8571 94.0445 63.8913 94.5855 64.3066C94.0445 63.8913 93.9933 63.8571 93.6339 63.5788ZM93.6339 63.5788C93.4259 63.2707 93.1185 62.8435 92.7434 62.3356C91.8939 61.2008 91.6885 61.0407 91.447 61.0449C91.0068 61.0564 90.5372 61.6139 90.6142 62.01C90.6662 62.3131 91.0304 62.4198 92.1493 62.9031C92.7893 63.1843 93.3038 63.4209 93.6339 63.5788Z" stroke="#951F1D" stroke-width="0.253176" stroke-miterlimit="10"/>
<path d="M95.3395 61.0355C95.7404 61.2312 95.8032 61.2612 96.3769 61.5397C95.8032 61.2612 95.7404 61.2312 95.3395 61.0355C95.074 60.779 94.6936 60.4115 94.2265 59.9909C93.1737 59.0427 92.9417 58.926 92.701 58.9769C92.2742 59.0778 91.9189 59.7151 92.0734 60.0865C92.1875 60.3729 92.5583 60.4094 93.7512 60.6654C94.4356 60.8134 94.9873 60.948 95.3395 61.0355Z" fill="#951F1D"/>
<path d="M95.3395 61.0355C95.7404 61.2312 95.8032 61.2612 96.3769 61.5397C95.8032 61.2612 95.7404 61.2312 95.3395 61.0355ZM95.3395 61.0355C95.074 60.779 94.6936 60.4115 94.2265 59.9909C93.1737 59.0427 92.9417 58.926 92.701 58.9769C92.2742 59.0778 91.9189 59.7151 92.0734 60.0865C92.1875 60.3729 92.5583 60.4094 93.7512 60.6654C94.4356 60.8134 94.9873 60.948 95.3395 61.0355Z" stroke="#951F1D" stroke-width="0.253176" stroke-miterlimit="10"/>
<path d="M96.7685 58.3432C97.1487 58.473 97.2427 58.5026 97.6974 58.6584C97.2427 58.5026 97.1487 58.473 96.7685 58.3432C96.4685 58.1224 96.0424 57.8181 95.5181 57.4648C94.3471 56.6706 94.1002 56.5853 93.8718 56.671C93.4614 56.8262 93.1965 57.5048 93.4013 57.8559C93.5501 58.1222 93.9277 58.1039 95.1489 58.1959C95.8433 58.2462 96.4055 58.3066 96.7685 58.3432Z" fill="#951F1D"/>
<path d="M96.7685 58.3432C97.1487 58.4731 97.2427 58.5026 97.6974 58.6584C97.2427 58.5026 97.1487 58.4731 96.7685 58.3432ZM96.7685 58.3432C96.4685 58.1224 96.0424 57.8181 95.5181 57.4648C94.3471 56.6706 94.1002 56.5853 93.8718 56.671C93.4614 56.8262 93.1965 57.5048 93.4013 57.8559C93.5501 58.1222 93.9277 58.1039 95.1489 58.1959C95.8433 58.2462 96.4055 58.3066 96.7685 58.3432Z" stroke="#951F1D" stroke-width="0.253176" stroke-miterlimit="10"/>
<path d="M97.3992 55.5335C97.8404 55.5844 97.9067 55.5871 98.5587 55.6655C97.9067 55.5871 97.8404 55.5844 97.3992 55.5335C97.0537 55.3836 96.5747 55.1737 95.99 54.9383C94.6756 54.4115 94.4178 54.377 94.2098 54.5131C93.8437 54.7493 93.7276 55.4722 94.0016 55.7675C94.2082 55.9977 94.5689 55.9019 95.7817 55.7329C96.4736 55.6352 97.0336 55.571 97.3992 55.5335Z" fill="#951F1D"/>
<path d="M97.3992 55.5335C97.8404 55.5844 97.9067 55.5871 98.5587 55.6655C97.9067 55.5871 97.8404 55.5844 97.3992 55.5335ZM97.3992 55.5335C97.0537 55.3836 96.5747 55.1737 95.99 54.9383C94.6756 54.4115 94.4178 54.377 94.2098 54.5131C93.8437 54.7493 93.7276 55.4722 94.0016 55.7675C94.2082 55.9977 94.5689 55.9019 95.7817 55.7329C96.4736 55.6352 97.0336 55.571 97.3992 55.5335Z" stroke="#951F1D" stroke-width="0.253176" stroke-miterlimit="10"/>
<path d="M77.2392 71.7332C77.2332 72.0645 77.2276 72.1892 77.2173 72.4933C77.2178 72.5245 77.2184 72.5556 77.2189 72.5868C77.219 72.5946 77.2152 72.5986 77.2152 72.5986C77.2152 72.5986 77.219 72.5946 77.2189 72.5868C77.2184 72.5556 77.2178 72.5245 77.2173 72.4933C77.2276 72.1892 77.2336 72.0641 77.2392 71.7332C77.3617 71.3843 77.5285 70.8865 77.7167 70.2793C78.1376 68.9316 78.1447 68.6705 77.9971 68.4743C77.7262 68.1283 77.0044 68.0745 76.7289 68.3676C76.5147 68.5973 76.6376 68.9458 76.9077 70.1413C77.0636 70.8205 77.1706 71.3759 77.2392 71.7332Z" fill="#951F1D"/>
<path d="M77.2392 71.7332C77.2332 72.0645 77.2276 72.1892 77.2173 72.4933C77.2178 72.5245 77.2184 72.5556 77.2189 72.5868C77.219 72.5946 77.2152 72.5986 77.2152 72.5986C77.2152 72.5986 77.219 72.5946 77.2189 72.5868C77.2184 72.5556 77.2178 72.5245 77.2173 72.4933C77.2276 72.1892 77.2336 72.0641 77.2392 71.7332ZM77.2392 71.7332C77.3617 71.3843 77.5285 70.8865 77.7167 70.2793C78.1376 68.9316 78.1447 68.6705 77.9971 68.4743C77.7262 68.1283 77.0044 68.0745 76.7289 68.3676C76.5147 68.5973 76.6376 68.9458 76.9077 70.1413C77.0636 70.8205 77.1706 71.3759 77.2392 71.7332Z" stroke="#951F1D" stroke-width="0.253176" stroke-miterlimit="10"/>
<path d="M80.219 71.7319C80.2467 71.9808 80.2606 72.1092 80.2792 72.2803C80.2606 72.1092 80.2467 71.9808 80.219 71.7319C80.2946 71.3682 80.3947 70.8522 80.5008 70.2269C80.7377 68.8318 80.7137 68.5711 80.5393 68.4027C80.2262 68.0924 79.5022 68.1361 79.2662 68.4597C79.0875 68.7161 79.2607 69.0443 79.6819 70.1943C79.9232 70.8486 80.1039 71.3832 80.219 71.7319Z" fill="#951F1D"/>
<path d="M80.219 71.7319C80.2467 71.9808 80.2606 72.1092 80.2792 72.2803C80.2606 72.1092 80.2467 71.9808 80.219 71.7319ZM80.219 71.7319C80.2946 71.3682 80.3947 70.8522 80.5008 70.2269C80.7377 68.8318 80.7137 68.5711 80.5393 68.4027C80.2262 68.0924 79.5022 68.1361 79.2662 68.4597C79.0875 68.7161 79.2607 69.0443 79.6819 70.1943C79.9232 70.8486 80.1039 71.3832 80.219 71.7319Z" stroke="#951F1D" stroke-width="0.253176" stroke-miterlimit="10"/>
<path d="M83.6238 70.7536C83.7147 71.0559 83.7559 71.1799 83.8384 71.4434C83.7559 71.1799 83.7147 71.0559 83.6238 70.7536C83.6251 70.3795 83.6277 69.8534 83.609 69.2225C83.5728 67.8087 83.4944 67.5568 83.2934 67.4239C82.9268 67.1769 82.2208 67.3606 82.0557 67.7297C81.9281 68.0124 82.1592 68.3046 82.7968 69.3495C83.1656 69.9432 83.4469 70.4371 83.6238 70.7536Z" fill="#951F1D"/>
<path d="M83.6238 70.7536C83.7147 71.0559 83.7559 71.1799 83.8384 71.4434C83.7559 71.1799 83.7147 71.0559 83.6238 70.7536ZM83.6238 70.7536C83.6251 70.3795 83.6277 69.8534 83.609 69.2225C83.5728 67.8087 83.4944 67.5568 83.2934 67.4239C82.9268 67.1769 82.2208 67.3606 82.0557 67.7297C81.9281 68.0124 82.1592 68.3046 82.7968 69.3495C83.1656 69.9432 83.4469 70.4371 83.6238 70.7536Z" stroke="#951F1D" stroke-width="0.253176" stroke-miterlimit="10"/>
<defs>
<linearGradient id="paint0_linear_4819_341578" x1="161.89" y1="-48.687" x2="63.8594" y2="82.9089" gradientUnits="userSpaceOnUse">
<stop stop-color="#7C1F1A"/>
<stop offset="1" stop-color="#7A1F1A" stop-opacity="0"/>
</linearGradient>
</defs>
</svg>
