<svg width="140" height="140" viewBox="0 0 140 140" fill="none" xmlns="http://www.w3.org/2000/svg">
<path d="M91.2269 63.4591C87.5474 65.4882 81.2767 64.1078 78.8524 60.2113C76.7354 56.8087 78.4573 52.9418 80.2127 49.0009C81.9722 45.0496 83.7582 41.0388 87.8795 40.3289C91.8542 39.6445 96.4613 42.295 97.7725 45.7889C98.4997 47.7256 97.6466 50.1185 95.9108 54.8253C94.0439 59.8885 93.1105 62.4206 91.2269 63.4591Z" fill="#E2C148" stroke="#951F1D" stroke-width="0.265419" stroke-miterlimit="10"/>
<path d="M89.0002 40.637C88.8165 40.6012 88.5641 40.5521 88.4122 40.7C88.3654 40.7445 88.3365 40.7895 88.3296 40.8421C88.6438 40.7716 88.976 40.7202 89.3202 40.704C89.218 40.6798 89.1094 40.6584 89.0002 40.637ZM96.2442 57.8181C96.3054 57.65 96.3667 57.4814 96.4221 57.311C96.7034 56.485 96.994 55.6013 97.3042 54.6448C97.5312 53.9344 97.742 53.2863 97.932 52.6793C98.263 51.6321 98.527 50.72 98.7078 49.8825C98.8094 49.4337 98.8845 49.0063 98.9302 48.5928C98.9567 48.4184 98.9683 48.2503 98.9821 48.077C98.9839 48.0718 98.9827 48.0585 98.9845 48.0533C98.9897 47.9875 98.9879 47.9257 98.9914 47.865C99.0035 47.679 99.0012 47.5 98.9931 47.3186C98.9943 47.1471 98.9856 46.9842 98.9683 46.8121C98.9556 46.6781 98.9371 46.5429 98.9169 46.4124C98.8834 46.1669 98.8279 45.9128 98.7632 45.6684C98.7453 45.5818 98.7147 45.4975 98.6841 45.4126C98.6558 45.304 98.6206 45.1989 98.5813 45.0862C98.4825 44.8171 98.3727 44.5433 98.248 44.277C97.7506 43.1929 97.0338 42.1711 96.1235 41.2937C95.6481 40.8259 95.1074 40.4025 94.5287 40.0329C94.3005 39.8827 94.0631 39.7412 93.8089 39.6118C93.6882 39.5558 93.5635 39.4922 93.4318 39.4316C92.9991 39.219 92.5359 39.0388 92.057 38.9019C91.8901 38.8534 91.6238 38.7754 91.2766 38.6986C90.9514 38.6299 90.5511 38.5641 90.0971 38.5282C89.9839 38.5179 89.8638 38.5109 89.7361 38.5074C89.4952 38.4936 89.2428 38.4942 88.9708 38.4999C88.6889 38.5144 88.3926 38.5357 88.0858 38.5843C87.9963 38.5947 87.9045 38.6102 87.8103 38.6316C87.4834 38.6847 87.1524 38.7674 86.8081 38.8702C86.6406 38.9262 86.4726 38.9817 86.3137 39.0469C86.1549 39.1122 85.996 39.1775 85.8406 39.2502C85.6904 39.3247 85.5408 39.3993 85.3958 39.4761C85.2491 39.5581 85.1065 39.6476 84.9649 39.7314C83.2384 40.8311 82.0451 42.5425 81.0244 44.4393C80.5502 45.3057 80.1094 46.2148 79.6814 47.1222C79.6 47.2955 79.5226 47.4578 79.4411 47.6311C79.4394 47.6363 79.4336 47.6345 79.4319 47.6397C79.0449 48.4518 78.6579 49.264 78.3061 50.0639C77.9 50.9794 77.5413 51.8816 77.2346 52.778C76.3439 55.4349 76.0499 57.9706 77.1462 60.3659L77.141 60.3641C77.2069 60.5045 77.2652 60.6489 77.3415 60.7933C79.0888 64.0884 82.6342 65.2898 83.6226 65.5809C83.7225 65.611 83.8784 65.6554 84.0794 65.7103C84.2158 65.7415 84.3683 65.7785 84.5444 65.8178C85.0112 65.92 85.6136 66.0216 86.305 66.0638C86.3472 66.0667 86.3911 66.0644 86.4327 66.0673C86.5164 66.073 86.6002 66.0788 86.692 66.0817C86.8122 66.0886 86.9422 66.0863 87.0698 66.0898C87.2252 66.0846 87.3915 66.084 87.5619 66.0719C87.5746 66.0702 87.5822 66.0667 87.5949 66.0655C87.7115 66.0649 87.8253 66.0569 87.9461 66.0453C87.99 66.043 88.0339 66.0401 88.0795 66.0326C88.2002 66.021 88.3232 66.0043 88.4538 65.9841C88.5306 65.9754 88.615 65.9627 88.6941 65.9483C89.4999 65.8108 90.3415 65.5573 91.1767 65.1356C92.6346 64.3871 93.6461 63.3283 94.49 61.8838C94.561 61.7561 94.6297 61.6337 94.6956 61.5037C94.7817 61.3507 94.8648 61.1901 94.9365 61.026C94.959 60.9972 94.9711 60.9648 94.9884 60.9342C95.071 60.7736 95.1415 60.6148 95.2206 60.4473C95.2478 60.3895 95.2715 60.3243 95.3004 60.2613C95.3119 60.229 95.3223 60.2018 95.3391 60.1712C95.3801 60.0753 95.4211 59.9795 95.4615 59.8842C95.4985 59.7992 95.5355 59.7143 95.5672 59.6277C95.7977 59.0634 96.0224 58.4627 96.2442 57.8181ZM91.0577 63.1984L91.056 63.2036C90.509 63.5085 89.8996 63.7482 89.263 63.9106C88.9246 63.9966 88.5867 64.0642 88.2435 64.1121C88.236 64.1156 88.236 64.1156 88.236 64.1156C88.0749 64.137 87.923 64.1491 87.7578 64.1629L87.7503 64.1664L87.7451 64.1647L87.7375 64.1681C86.3876 64.2802 84.9875 64.1098 83.7352 63.6489C83.5503 63.5819 82.8543 63.3168 82.0081 62.7698L81.9919 62.764C81.9867 62.7623 81.9867 62.7623 81.9809 62.76C80.8725 62.038 79.5318 60.8568 78.7549 59.0201C78.0283 57.2815 78.0751 55.5782 78.5718 53.7368C78.7197 53.1945 78.9005 52.6457 79.1182 52.0797C79.1853 51.8949 79.2615 51.7014 79.3435 51.5102C79.5584 50.9858 79.7975 50.4463 80.0534 49.8935C80.3694 49.2097 80.7079 48.4969 81.0677 47.7605C81.3352 47.1939 81.5847 46.6763 81.84 46.1911C81.8417 46.186 81.8417 46.186 81.8417 46.186C82.1346 45.6165 82.4263 45.1018 82.7399 44.6259C83.3684 43.674 84.0922 42.8989 85.1319 42.2191C85.3306 42.0943 85.6691 41.8731 86.1156 41.642C86.5251 41.4283 87.0224 41.2094 87.5845 41.0321L87.5897 41.0339C87.8311 40.9617 88.0703 40.8952 88.3296 40.8415C88.6438 40.771 88.976 40.7196 89.3202 40.7035C89.6298 40.6804 89.9383 40.6763 90.2612 40.7011C90.688 40.7271 91.1305 40.7953 91.5839 40.9172C91.9143 41.0061 92.2367 41.117 92.5434 41.2533C93.0436 41.4659 93.512 41.7339 93.9418 42.0562C94.937 42.7678 95.7307 43.7133 96.2586 44.7472C96.2586 44.7472 96.2586 44.7472 96.2638 44.7489C96.5053 45.2173 96.6953 45.7106 96.8172 46.2033C96.9425 46.7035 97.0026 47.1985 97.0211 47.6721C97.0858 49.6434 96.3638 51.2925 96.2124 51.6246C95.6758 52.8312 95.1167 53.2545 94.702 54.769C94.6575 54.9249 94.628 55.0739 94.5968 55.2102L94.5951 55.2155C94.397 56.2008 94.5246 56.6952 94.3277 57.847C94.2728 58.134 93.8736 60.3491 92.7317 61.8023C92.2852 62.3713 91.7197 62.8299 91.0629 63.1995C91.0635 63.2007 91.0635 63.2007 91.0577 63.1984ZM89.0002 40.637C88.8165 40.6012 88.5641 40.5521 88.4122 40.7C88.3654 40.7445 88.3365 40.7895 88.3296 40.8421C88.6438 40.7716 88.976 40.7202 89.3202 40.704C89.218 40.6798 89.1094 40.6584 89.0002 40.637ZM89.0002 40.637C88.8165 40.6012 88.5641 40.5521 88.4122 40.7C88.3654 40.7445 88.3365 40.7895 88.3296 40.8421C88.6438 40.7716 88.976 40.7202 89.3202 40.704C89.218 40.6798 89.1094 40.6584 89.0002 40.637Z" fill="#951F1D"/>
<path d="M88.6935 64.2223C88.5462 64.1876 88.3926 64.1374 88.2412 64.1137C88.5843 64.0663 88.9223 63.9982 89.2608 63.9121C89.2371 64.045 89.1915 64.1882 89.0782 64.2454C88.9679 64.2974 88.8062 64.2506 88.6935 64.2223Z" fill="url(#paint0_linear_4819_341568)"/>
<path opacity="0.71" d="M93.5101 45.6118C92.4657 44.3971 90.7346 43.9351 89.3321 44.095C85.9692 44.4791 84.7718 48.4102 84.5719 49.0658C84.2623 50.0829 83.5894 52.2917 84.8058 53.712C86.2898 55.4442 89.8508 55.145 91.9413 53.5947C94.3817 51.7845 95.414 47.8269 93.5101 45.6118Z" fill="#951F1D"/>
<path d="M92.4584 45.8513C91.8785 45.1767 90.9173 44.9203 90.1387 45.0092C88.2712 45.2223 87.6064 47.4051 87.4955 47.7695C87.3234 48.3344 86.9496 49.5606 87.6255 50.349C88.4497 51.3107 90.4264 51.1444 91.5874 50.2838C92.9431 49.2788 93.5161 47.0816 92.4584 45.8513Z" fill="#951F1D"/>
<path d="M82.4369 98.4492C78.9578 100.805 72.5872 100.003 69.8181 96.3439C67.3996 93.1487 68.7616 89.1407 70.1496 85.056C71.5411 80.9609 72.954 76.804 76.9933 75.721C80.8888 74.6767 85.7183 76.8964 87.3432 80.2557C88.2437 82.1178 87.6129 84.5789 86.3139 89.4244C84.9166 94.6366 84.2177 97.2432 82.4369 98.4492Z" fill="#E2C148" stroke="#951F1D" stroke-width="0.265419" stroke-miterlimit="10"/>
<path d="M78.1371 75.9276C77.9511 75.9085 77.6947 75.8831 77.5572 76.0437C77.5144 76.0922 77.4902 76.1396 77.4879 76.1927C77.7946 76.0939 78.1204 76.0125 78.4617 75.9645C78.3583 75.9495 78.2475 75.9386 78.1371 75.9276ZM86.9181 92.3762C86.9638 92.203 87.0094 92.0297 87.0493 91.8553C87.2543 91.0073 87.4623 90.1005 87.6846 89.1198C87.8458 88.392 87.9971 87.7266 88.1306 87.1051C88.3645 86.032 88.5441 85.0997 88.6481 84.2489C88.7082 83.7932 88.744 83.3606 88.7521 82.9447C88.7625 82.7686 88.759 82.5999 88.7567 82.4266C88.7584 82.4208 88.7555 82.4082 88.7567 82.403C88.7561 82.3371 88.7486 82.2753 88.7463 82.2152C88.7417 82.0287 88.7226 81.8508 88.6984 81.6711C88.6834 81.5002 88.6602 81.3385 88.6273 81.1686C88.6025 81.0364 88.5719 80.9029 88.5395 80.7753C88.4835 80.5338 88.4055 80.2861 88.3183 80.0481C88.2929 79.9638 88.2542 79.8818 88.216 79.8003C88.1779 79.6946 88.1329 79.5936 88.0838 79.485C87.9608 79.2256 87.8267 78.9634 87.6783 78.7098C87.0839 77.6759 86.277 76.7235 85.2904 75.9328C84.774 75.5105 84.1975 75.138 83.5876 74.8226C83.3467 74.6938 83.0972 74.5743 82.8326 74.4692C82.7073 74.4241 82.5773 74.3721 82.4404 74.3242C81.9899 74.1521 81.5122 74.0146 81.0229 73.9222C80.8525 73.8892 80.5799 73.8355 80.2275 73.7911C79.8971 73.7524 79.4928 73.7235 79.0376 73.7293C78.9244 73.7293 78.8037 73.7333 78.676 73.7419C78.4352 73.75 78.1839 73.7737 77.913 73.8043C77.634 73.8442 77.3406 73.8927 77.0396 73.9689C76.9513 73.9874 76.8612 74.0117 76.7699 74.0411C76.4493 74.1243 76.127 74.2364 75.7937 74.3698C75.632 74.4409 75.4697 74.5119 75.3177 74.591C75.1653 74.6707 75.0133 74.7499 74.8649 74.8365C74.7222 74.9243 74.5795 75.0126 74.4426 75.1016C74.304 75.1969 74.17 75.2986 74.0371 75.395C72.4181 76.6478 71.3859 78.4609 70.5425 80.4432C70.1492 81.3489 69.7934 82.2949 69.4497 83.2376C69.3844 83.4178 69.322 83.5864 69.2567 83.7661C69.255 83.7719 69.2498 83.7701 69.2481 83.7759C68.9368 84.6197 68.6254 85.4636 68.3481 86.2924C68.027 87.2414 67.7526 88.1725 67.5285 89.0932C66.8839 91.82 66.8221 94.3718 68.1327 96.6573L68.1269 96.6556C68.2049 96.7896 68.2765 96.9277 68.3661 97.0645C70.4062 100.186 74.047 101.06 75.0578 101.26C75.16 101.28 75.3189 101.31 75.5245 101.346C75.6632 101.365 75.818 101.388 75.997 101.411C76.4713 101.47 77.0801 101.517 77.7726 101.495C77.8148 101.494 77.8581 101.488 77.9003 101.487C77.9846 101.485 78.0684 101.484 78.1597 101.478C78.2804 101.474 78.4092 101.46 78.5368 101.451C78.6911 101.432 78.8568 101.416 79.0249 101.388C79.0376 101.386 79.0446 101.381 79.0573 101.379C79.174 101.368 79.286 101.35 79.4056 101.327C79.4489 101.321 79.4928 101.314 79.5373 101.302C79.6568 101.28 79.7776 101.252 79.9052 101.22C79.9809 101.204 80.0641 101.184 80.1415 101.163C80.9311 100.952 81.7467 100.623 82.5398 100.126C83.9232 99.2479 84.8335 98.1013 85.5428 96.5857C85.6017 96.4517 85.6595 96.3235 85.7126 96.1883C85.7848 96.0278 85.8524 95.8608 85.909 95.6904C85.9292 95.6598 85.9379 95.6264 85.9524 95.5946C86.0199 95.4271 86.0754 95.2625 86.1389 95.088C86.1609 95.028 86.1782 94.961 86.2013 94.8957C86.21 94.8622 86.2175 94.8345 86.2319 94.8021C86.2637 94.7028 86.296 94.604 86.3278 94.5047C86.3567 94.4169 86.3861 94.3291 86.4092 94.2395C86.5877 93.6568 86.7558 93.0382 86.9181 92.3762ZM82.2446 98.207L82.2429 98.2128C81.7259 98.5669 81.1408 98.8609 80.5215 99.0803C80.1923 99.197 79.8619 99.2952 79.5246 99.3738C79.5176 99.3778 79.5176 99.3778 79.5176 99.3778C79.3588 99.4136 79.2086 99.4402 79.0457 99.4691L79.0388 99.4731L79.033 99.4714L79.0261 99.4754C77.6924 99.7105 76.2818 99.6683 74.9931 99.3235C74.8031 99.2738 74.0857 99.0729 73.1927 98.6056L73.1759 98.6009C73.1701 98.5992 73.1701 98.5992 73.165 98.5981C71.9953 97.98 70.5524 96.9265 69.6108 95.1677C68.7282 93.5025 68.6202 91.8021 68.9466 89.9232C69.0442 89.3699 69.1741 88.8067 69.3393 88.2228C69.389 88.0328 69.4479 87.8335 69.5115 87.6348C69.6778 87.093 69.8667 86.5339 70.0712 85.9604C70.3236 85.2505 70.5957 84.5094 70.8862 83.7441C71.1005 83.1555 71.3015 82.6173 71.5124 82.1113C71.5141 82.1055 71.5141 82.1055 71.5141 82.1055C71.7538 81.5117 71.997 80.9722 72.2662 80.4697C72.8051 79.4647 73.4555 78.6261 74.4282 77.855C74.6148 77.7129 74.9319 77.4616 75.3553 77.1908C75.7435 76.9407 76.2188 76.6773 76.7624 76.4497L76.7681 76.4515C77.0021 76.3573 77.2343 76.2695 77.4873 76.1927C77.794 76.0939 78.1198 76.0125 78.4612 75.9645C78.7673 75.9137 79.0746 75.8808 79.3981 75.8762C79.8255 75.8629 80.272 75.8906 80.7347 75.9709C81.0714 76.0298 81.4024 76.1107 81.7207 76.2181C82.2382 76.3839 82.7292 76.6085 83.1867 76.8898C84.2426 77.5079 85.1194 78.3771 85.7392 79.3579C85.7392 79.3579 85.7392 79.3579 85.745 79.3596C86.028 79.8044 86.262 80.278 86.4289 80.7574C86.5999 81.2443 86.7044 81.7318 86.7662 82.2014C87.0106 84.1588 86.4422 85.8668 86.3214 86.211C85.8975 87.4609 85.3788 87.934 85.1038 89.4802C85.0738 89.6396 85.0582 89.7903 85.0397 89.929L85.038 89.9348C84.9305 90.934 85.1027 91.4151 85.012 92.5795C84.9831 92.8706 84.7884 95.1129 83.7834 96.6643C83.3906 97.2719 82.869 97.7796 82.2492 98.2082C82.2498 98.2087 82.2498 98.2088 82.2446 98.207ZM78.1371 75.9276C77.9511 75.9085 77.6947 75.8831 77.5572 76.0437C77.5144 76.0922 77.4902 76.1396 77.4879 76.1927C77.7946 76.0939 78.1204 76.0125 78.4617 75.9645C78.3583 75.9495 78.2475 75.9386 78.1371 75.9276ZM78.1371 75.9276C77.9511 75.9085 77.6947 75.8831 77.5572 76.0437C77.5144 76.0922 77.4902 76.1396 77.4879 76.1927C77.7946 76.0939 78.1204 76.0125 78.4617 75.9645C78.3583 75.9495 78.2475 75.9386 78.1371 75.9276Z" fill="#951F1D"/>
<path d="M79.9848 99.4405C79.8352 99.4191 79.6775 99.3833 79.5244 99.3735C79.8617 99.2949 80.1921 99.1968 80.5214 99.0801C80.5098 99.2147 80.4775 99.3614 80.37 99.4284C80.2649 99.4902 80.0997 99.459 79.9848 99.4405Z" fill="url(#paint1_linear_4819_341568)"/>
<path opacity="0.71" d="M83.0819 80.4677C81.9313 79.353 80.1649 79.0509 78.7832 79.3385C75.4694 80.0276 74.6353 84.0517 74.4961 84.7228C74.28 85.7637 73.8116 88.0249 75.1528 89.3286C76.7887 90.9181 80.3076 90.2955 82.2478 88.561C84.5132 86.5353 85.1804 82.5003 83.0819 80.4677Z" fill="#951F1D"/>
<path d="M82.0576 80.8029C81.4187 80.1843 80.4379 80.0163 79.6708 80.1757C77.8305 80.558 77.3679 82.7927 77.2905 83.1653C77.1709 83.7434 76.9104 84.9986 77.655 85.7223C78.563 86.6048 80.5171 86.2589 81.5943 85.296C82.8524 84.1715 83.2226 81.931 82.0576 80.8029Z" fill="#951F1D"/>
<path d="M63.5247 73.9058C62.8194 78.0477 57.8334 82.0931 53.2753 81.5618C49.2949 81.0979 47.3425 77.3419 45.3526 73.5142C43.3575 69.6761 41.3329 65.7808 43.3448 62.1148C45.2856 58.5793 50.2289 56.6271 53.779 57.7777C55.747 58.4153 57.0876 60.5732 59.6887 64.863C62.4867 69.4779 63.8857 71.7854 63.5247 73.9058Z" fill="#E2C148" stroke="#951F1D" stroke-width="0.265419" stroke-miterlimit="10"/>
<path d="M44.2863 61.4311C44.1436 61.5524 43.9483 61.7199 43.9691 61.9307C43.9749 61.9948 43.9922 62.0457 44.0292 62.0838C44.1701 61.7944 44.3365 61.5021 44.5381 61.2231C44.4549 61.2867 44.3706 61.3589 44.2863 61.4311ZM62.2394 66.4683C62.1458 66.3158 62.0522 66.1627 61.9535 66.0131C61.4827 65.2784 60.9721 64.501 60.4176 63.6623C60.0034 63.042 59.6274 62.4731 59.271 61.9469C58.6581 61.0354 58.1088 60.2609 57.5664 59.5978C57.2787 59.2391 56.9911 58.9139 56.6965 58.6205C56.5764 58.4911 56.4522 58.3773 56.3257 58.2584C56.3228 58.2532 56.3118 58.2468 56.3089 58.2416C56.261 58.1966 56.2113 58.1596 56.1662 58.1192C56.0282 57.9938 55.8867 57.8841 55.74 57.7773C55.606 57.6698 55.4737 57.5745 55.3281 57.4809C55.2155 57.4076 55.0976 57.3377 54.9833 57.2724C54.7701 57.1459 54.5373 57.031 54.3051 56.9293C54.2266 56.8895 54.1411 56.8606 54.0556 56.8317C53.9534 56.7861 53.8488 56.7485 53.7362 56.7087C53.4641 56.618 53.1817 56.5337 52.8957 56.4649C51.7382 56.179 50.4917 56.1022 49.2382 56.268C48.5763 56.3488 47.9079 56.5077 47.2581 56.7295C46.9982 56.8144 46.74 56.912 46.4807 57.0304C46.3611 57.0899 46.234 57.1477 46.1052 57.2135C45.6691 57.4197 45.2399 57.6698 44.8344 57.9586C44.6929 58.0591 44.4653 58.2185 44.1892 58.4421C43.9327 58.6535 43.6324 58.9261 43.321 59.2588C43.2425 59.3408 43.1622 59.4309 43.0802 59.5285C42.9196 59.7081 42.7631 59.9063 42.5973 60.1223C42.4332 60.3516 42.2651 60.5971 42.1121 60.8668C42.0641 60.9436 42.0196 61.025 41.9775 61.1117C41.8157 61.4005 41.6742 61.7106 41.5396 62.0439C41.479 62.2097 41.4178 62.376 41.3698 62.5406C41.3219 62.7058 41.2739 62.8705 41.2341 63.0374C41.1989 63.2014 41.1636 63.3649 41.1336 63.526C41.1064 63.6918 41.0874 63.8593 41.0648 64.0221C40.8494 66.0582 41.4449 68.0572 42.2934 70.0372C42.6758 70.9481 43.1125 71.8589 43.5555 72.7594C43.6405 72.9309 43.719 73.0927 43.8039 73.2642C43.8068 73.2688 43.8022 73.2723 43.8051 73.2769C44.199 74.0855 44.593 74.8942 44.9996 75.6676C45.4629 76.5559 45.9452 77.398 46.4552 78.1968C47.9784 80.5488 49.7789 82.3584 52.336 82.9926L52.3308 82.9955C52.4816 83.0319 52.6306 83.0758 52.7918 83.1058C56.458 83.792 59.6066 81.7669 60.4499 81.1755C60.5354 81.116 60.6671 81.0218 60.8358 80.8982C60.9449 80.811 61.0685 80.7146 61.2095 80.6014C61.5803 80.2999 62.0349 79.8921 62.4987 79.3774C62.527 79.3463 62.5525 79.3104 62.5808 79.2798C62.6374 79.218 62.6946 79.1556 62.7535 79.0858C62.8338 78.9957 62.9129 78.8928 62.9955 78.7952C63.0885 78.6705 63.1913 78.54 63.2878 78.399C63.2947 78.388 63.2964 78.38 63.3034 78.369C63.3756 78.2771 63.4403 78.1836 63.5067 78.0819C63.5321 78.0461 63.5575 78.0103 63.5801 77.9693C63.6465 77.8676 63.71 77.7608 63.7753 77.6464C63.8163 77.5805 63.859 77.5072 63.8972 77.4361C64.2917 76.7199 64.6175 75.9038 64.8081 74.9878C65.1304 73.3809 64.9323 71.9306 64.3281 70.3699C64.272 70.2348 64.2195 70.1042 64.1588 69.9725C64.093 69.8096 64.019 69.645 63.9353 69.4862C63.9272 69.4504 63.9087 69.4209 63.896 69.3886C63.8221 69.224 63.7412 69.0703 63.6598 68.9034C63.6315 68.8462 63.5951 68.7873 63.5639 68.7249C63.546 68.6955 63.531 68.6706 63.5177 68.6383C63.468 68.5464 63.4189 68.4552 63.3692 68.3634C63.3259 68.2813 63.2826 68.1999 63.2341 68.1207C62.9354 67.5928 62.6056 67.0436 62.2394 66.4683ZM63.2173 73.8765L63.2202 73.8816C63.1179 74.4997 62.9262 75.1258 62.6564 75.7248C62.5126 76.043 62.3555 76.3497 62.1787 76.6477C62.177 76.6558 62.177 76.6558 62.177 76.6558C62.0932 76.7956 62.0083 76.9221 61.9165 77.0596L61.9148 77.0676L61.9096 77.0705L61.9078 77.0786C61.1546 78.2044 60.149 79.1938 59.0082 79.8857C58.8406 79.9885 58.1995 80.368 57.2447 80.6892L57.2296 80.6984C57.2244 80.7013 57.2244 80.7013 57.2198 80.7042C55.9647 81.1212 54.2052 81.4343 52.284 80.8977C50.4715 80.383 49.1678 79.285 48.0368 77.7492C47.7046 77.2958 47.3881 76.8124 47.0808 76.2891C46.978 76.1216 46.8746 75.9414 46.7758 75.7583C46.4997 75.2638 46.2259 74.74 45.9533 74.1959C45.6148 73.5224 45.2682 72.8137 44.9164 72.0738C44.6398 71.5118 44.3902 70.9943 44.1702 70.4918C44.1673 70.4866 44.1673 70.4866 44.1673 70.4866C43.9039 69.9026 43.6826 69.3539 43.5065 68.8115C43.1535 67.7274 42.9976 66.6779 43.1137 65.4413C43.1402 65.2085 43.1778 64.806 43.2754 64.3127C43.3632 63.8593 43.5018 63.3337 43.7138 62.7838L43.7184 62.7809C43.8126 62.547 43.9091 62.3183 44.0286 62.0826C44.1696 61.7932 44.3359 61.501 44.5375 61.222C44.7125 60.9656 44.9014 60.7212 45.1221 60.4844C45.4086 60.1667 45.7372 59.8635 46.115 59.5845C46.3905 59.3818 46.6782 59.1987 46.9757 59.0433C47.4539 58.784 47.9553 58.5853 48.4746 58.4496C49.6512 58.1146 50.8856 58.0828 52.023 58.3138C52.023 58.3138 52.0229 58.3138 52.0281 58.3109C52.5451 58.4137 53.0488 58.5726 53.5109 58.784C53.9805 58.9977 54.4051 59.2588 54.7869 59.5395C56.3696 60.7172 57.2094 62.309 57.3752 62.6342C57.9846 63.805 57.9679 64.5067 58.8944 65.7746C58.9885 65.9063 59.0867 66.0224 59.1739 66.1315L59.1768 66.1367C59.8243 66.9055 60.2905 67.114 61.0685 67.985C61.2591 68.2068 62.7431 69.8986 63.1682 71.6978C63.3351 72.4013 63.3415 73.1296 63.2219 73.8736C63.2225 73.8736 63.2225 73.8736 63.2173 73.8765ZM44.2863 61.4311C44.1436 61.5524 43.9483 61.7199 43.9691 61.9307C43.9749 61.9948 43.9922 62.0457 44.0292 62.0838C44.1701 61.7944 44.3365 61.5021 44.5381 61.2231C44.4549 61.2867 44.3706 61.3589 44.2863 61.4311ZM44.2863 61.4311C44.1436 61.5524 43.9483 61.7199 43.9691 61.9307C43.9749 61.9948 43.9922 62.0457 44.0292 62.0838C44.1701 61.7944 44.3365 61.5021 44.5381 61.2231C44.4549 61.2867 44.3706 61.3589 44.2863 61.4311Z" fill="#951F1D"/>
<path d="M62.5445 76.3617C62.4255 76.4546 62.2909 76.5442 62.1777 76.6475C62.3545 76.3495 62.5116 76.0429 62.6554 75.7246C62.7444 75.8257 62.8281 75.951 62.8021 76.0746C62.7738 76.1936 62.6369 76.2912 62.5445 76.3617Z" fill="url(#paint2_linear_4819_341568)"/>
<path opacity="0.71" d="M50.9858 61.0007C49.3847 61.0608 47.9452 62.127 47.1966 63.3238C45.4019 66.1938 47.7309 69.5791 48.1197 70.144C48.7221 71.0196 50.031 72.9222 51.9002 72.8558C54.1801 72.7743 56.1642 69.8021 56.2538 67.2012C56.3577 64.1642 53.9052 60.891 50.9858 61.0007Z" fill="#951F1D"/>
<path d="M50.5183 61.9722C49.6294 62.0057 48.8299 62.5977 48.4146 63.2619C47.4182 64.8555 48.7115 66.735 48.927 67.0486C49.2614 67.535 49.9881 68.5914 51.0261 68.5544C52.2916 68.5093 53.3937 66.8592 53.4434 65.4146C53.5012 63.7286 52.1391 61.9115 50.5183 61.9722Z" fill="#951F1D"/>
<defs>
<linearGradient id="paint0_linear_4819_341568" x1="92.3291" y1="67.8397" x2="88.4599" y2="63.6887" gradientUnits="userSpaceOnUse">
<stop stop-color="#EEE197"/>
<stop offset="1" stop-color="#EEE197" stop-opacity="0"/>
</linearGradient>
<linearGradient id="paint1_linear_4819_341568" x1="83.9364" y1="102.707" x2="79.7046" y2="98.9264" gradientUnits="userSpaceOnUse">
<stop stop-color="#EEE197"/>
<stop offset="1" stop-color="#EEE197" stop-opacity="0"/>
</linearGradient>
<linearGradient id="paint2_linear_4819_341568" x1="67.6848" y1="75.7292" x2="62.0279" y2="76.1703" gradientUnits="userSpaceOnUse">
<stop stop-color="#EEE197"/>
<stop offset="1" stop-color="#EEE197" stop-opacity="0"/>
</linearGradient>
</defs>
</svg>
