<svg width="2080" height="223" viewBox="0 0 2080 223" fill="none" xmlns="http://www.w3.org/2000/svg">
<path d="M1397.1 223H0V86.0365C23.772 81.974 48.132 77.8511 72.9517 73.6988C139.148 62.5242 206.77 51.443 269.347 41.7895C398.155 21.9156 488.665 21.0324 535.925 22.6937C633.967 24.5344 702.878 38.4153 750.266 54.56C761.142 58.0727 769.787 61.3825 775.464 64.1375C785.841 68.5324 794.822 72.9529 802.547 77.2193C870.701 114.845 944.72 143.707 1016.98 171.367L1017.07 171.379C1021.13 172.941 1025.21 174.474 1029.29 175.976C1035.61 174.61 1041.92 173.171 1048.21 171.659C1107.22 157.489 1164.9 136.879 1220.04 110.129C1237.24 101.775 1254.22 92.8265 1271.19 83.8801L1271.19 83.8795L1271.2 83.8786C1281.36 78.5202 1291.53 73.1626 1301.74 67.9342C1298.65 72.779 1291.48 84.3559 1288.69 91.7147C1272.33 134.747 1379.88 215.963 1397.1 223Z" fill="black"/>
</svg>
