<svg width="581" height="341" viewBox="0 0 581 341" fill="none" xmlns="http://www.w3.org/2000/svg">
<path d="M400.214 228.157C397.371 229.367 380.087 235.083 381.451 237.854C382.475 239.932 392.998 237.813 402.416 233.76C410.8 230.152 418.367 224.808 416.837 222.627C414.263 218.926 407.254 225.159 400.214 228.157Z" fill="#319A81" stroke="#104469" stroke-width="1.03375" stroke-miterlimit="10"/>
<path d="M447.208 154.872C447.208 147.222 447.932 136.771 445.296 128.16C444.934 126.971 444.531 125.679 444.944 124.501C445.358 123.322 447.022 122.557 447.89 123.456C448.17 123.746 448.304 124.128 448.438 124.501C451.746 134.197 452.77 144.659 451.405 154.81C451.219 156.195 450.878 157.746 449.689 158.48C448.552 159.173 447.208 155.885 447.208 154.872Z" fill="#319A81" stroke="#104469" stroke-width="1.03375" stroke-miterlimit="10"/>
<path d="M445.213 183.373C446.567 181.13 447.25 178.473 447.126 175.858C447.074 174.772 446.898 173.666 447.177 172.612C447.456 171.557 448.397 170.575 449.483 170.699C450.237 170.782 450.857 171.402 451.157 172.105C451.457 172.808 451.488 173.594 451.478 174.359C451.447 178.866 450.341 183.352 448.283 187.363C447.746 188.407 447.002 189.524 445.844 189.73C444.407 189.979 443.084 188.531 443.063 187.084C443.042 185.616 444.417 184.696 445.213 183.373Z" fill="#319A81" stroke="#104469" stroke-width="1.03375" stroke-miterlimit="10"/>
<path d="M438.029 199.728C437.388 200.338 435.568 202.136 435.02 202.839C434.472 203.532 433.78 204.907 434.565 205.31C436.85 206.509 440.644 201.909 441.719 198.704C441.884 198.218 441.977 197.619 441.616 197.267C441.337 197.009 440.902 196.999 440.53 197.071C439.734 197.226 438.68 199.118 438.029 199.728Z" fill="#319A81" stroke="#104469" stroke-width="1.03375" stroke-miterlimit="10"/>
<path d="M435.423 211.325C436.726 209.826 437.625 206.984 439.589 207.242C440.571 207.376 440.695 208.927 440.509 209.899C440.313 210.871 439.755 211.729 439.197 212.556C436.147 217.104 432.767 221.932 427.619 223.803C426.823 224.092 425.965 224.299 425.138 224.113C424.321 223.916 423.711 223.203 423.577 222.366C423.122 219.585 430.751 216.722 435.423 211.325Z" fill="#319A81" stroke="#104469" stroke-width="1.03375" stroke-miterlimit="10"/>
<path d="M457.794 161.738C457.783 162.782 457.401 163.795 457.235 164.829C457.07 165.863 457.184 167.051 457.959 167.754C458.848 168.561 460.326 168.385 461.257 167.63C462.187 166.876 462.652 165.687 462.911 164.519C463.211 163.113 463.252 161.645 463.035 160.229C462.921 159.515 462.745 158.802 462.352 158.203C461.96 157.603 461.339 157.117 460.626 157.034C459.654 156.921 458.724 157.572 458.238 158.409C457.732 159.247 457.804 160.229 457.794 161.738Z" fill="#319A81" stroke="#104469" stroke-width="1.03375" stroke-miterlimit="10"/>
<path d="M448.283 210.634C447.405 211.802 446.784 213.156 446.485 214.582C446.34 215.254 446.309 216.05 446.805 216.516C447.187 216.867 447.777 216.908 448.263 216.733C448.748 216.557 449.152 216.216 449.524 215.854C450.506 214.893 451.343 213.797 452.005 212.598C452.553 211.605 452.956 210.303 452.253 209.414C451.757 208.783 450.826 208.607 450.072 208.866C449.338 209.124 448.883 209.838 448.283 210.634Z" fill="#319A81" stroke="#104469" stroke-width="1.03375" stroke-miterlimit="10"/>
<path d="M434.266 230.802C434.349 231.887 435.217 232.828 436.251 233.148C437.284 233.469 438.453 233.231 439.373 232.652C440.293 232.073 440.975 231.163 441.44 230.181C441.678 229.675 441.874 229.117 441.802 228.558C441.688 227.628 440.841 226.925 439.941 226.677C439.042 226.429 433.956 226.656 434.266 230.802Z" fill="#319A81" stroke="#104469" stroke-width="1.03375" stroke-miterlimit="10"/>
<path d="M461.588 187.302C461.732 186.051 461.784 184.749 462.373 183.643C462.963 182.537 464.327 181.71 465.485 182.206C466.539 182.661 466.932 183.932 467.077 185.069C467.335 186.992 467.232 189.008 466.415 190.765C465.599 192.523 463.914 194.952 462.094 194.29C459.158 193.226 461.443 188.553 461.588 187.302Z" fill="#319A81" stroke="#104469" stroke-width="1.03375" stroke-miterlimit="10"/>
<path d="M464.245 208.132C463.521 209.786 463.118 211.575 463.045 213.373C463.025 213.839 463.045 214.335 463.314 214.697C463.614 215.1 464.172 215.255 464.668 215.182C465.165 215.11 465.62 214.841 466.023 214.541C467.821 213.208 469.01 211.078 469.176 208.835C469.248 207.832 469.124 206.778 468.586 205.93C468.059 205.072 467.067 204.462 466.064 204.576C465.072 204.69 465.227 205.868 464.245 208.132Z" fill="#319A81" stroke="#104469" stroke-width="1.03375" stroke-miterlimit="10"/>
<path d="M475.637 168.414C475.585 169.324 475.533 170.233 475.709 171.122C475.885 172.011 476.309 172.89 477.043 173.428C477.777 173.965 478.841 174.079 479.586 173.562C480.216 173.118 480.495 172.342 480.713 171.608C481.033 170.502 481.281 169.365 481.209 168.218C481.136 167.07 480.723 165.912 479.875 165.137C479.038 164.351 477.735 164.031 476.691 164.496C475.647 164.961 475.751 166.243 475.637 168.414Z" fill="#319A81" stroke="#104469" stroke-width="1.03375" stroke-miterlimit="10"/>
<path d="M463.459 142.924C463.81 143.564 463.883 144.319 463.976 145.043C464.069 145.766 464.203 146.521 464.648 147.11C465.092 147.699 465.93 148.041 466.571 147.71C467.036 147.472 467.284 146.976 467.46 146.49C468.173 144.536 468.08 142.293 467.211 140.401C466.85 139.626 466.343 138.882 465.599 138.458C464.855 138.034 463.841 138.013 463.19 138.571C462.208 139.429 462.446 141.063 463.459 142.924Z" fill="#319A81" stroke="#104469" stroke-width="1.03375" stroke-miterlimit="10"/>
<path d="M456.088 226.76C454.517 227.494 453.007 228.362 451.581 229.344C450.837 229.861 450.03 230.636 450.258 231.515C450.392 232.042 450.899 232.414 451.426 232.549C451.953 232.683 452.511 232.632 453.059 232.58C454.31 232.456 455.581 232.321 456.708 231.774C457.835 231.226 458.796 230.151 458.848 228.9C458.9 227.649 457.649 226.036 456.088 226.76Z" fill="#319A81" stroke="#104469" stroke-width="1.03375" stroke-miterlimit="10"/>
<path d="M456.74 129.474C457.381 127.045 457.039 124.367 455.82 122.176C455.354 121.338 454.755 120.532 454.59 119.591C454.424 118.64 454.9 117.482 455.851 117.327C456.471 117.224 457.06 117.565 457.567 117.948C461.34 120.77 462.756 126.342 460.792 130.621C460.316 131.655 459.562 132.689 458.445 132.906C457.339 133.123 456.078 132.007 456.74 129.474Z" fill="#319A81" stroke="#104469" stroke-width="1.03375" stroke-miterlimit="10"/>
<path d="M477.436 150.18C476.319 150.852 475.895 152.465 476.505 153.612C477.125 154.76 478.686 155.297 479.875 154.77C481.064 154.243 481.746 152.764 481.374 151.514C481.002 150.263 479.42 148.981 477.436 150.18Z" fill="#319A81" stroke="#104469" stroke-width="1.03375" stroke-miterlimit="10"/>
<path d="M481.198 181.887C481.105 182.445 481.022 183.024 481.156 183.582C481.291 184.13 481.725 184.657 482.283 184.719C482.852 184.781 483.389 184.368 483.648 183.851C483.906 183.334 483.937 182.745 483.978 182.176C484.009 181.68 484.03 181.173 483.875 180.708C483.71 180.243 483.317 179.819 482.821 179.798C482.324 179.767 481.466 180.181 481.198 181.887Z" fill="#319A81" stroke="#104469" stroke-width="1.03375" stroke-miterlimit="10"/>
</svg>
