<svg width="581" height="341" viewBox="0 0 581 341" fill="none" xmlns="http://www.w3.org/2000/svg">
<ellipse rx="2.00592" ry="2.33958" transform="matrix(0.959129 0.28297 -0.216935 0.976186 205.432 134.851)" fill="black"/>
<ellipse rx="2.00592" ry="2.33958" transform="matrix(0.959129 0.28297 -0.216935 0.976186 172.432 119.851)" fill="black"/>
<ellipse rx="2.00592" ry="2.33958" transform="matrix(0.959129 0.28297 -0.216935 0.976186 127.432 177.851)" fill="black"/>
<ellipse rx="2.00592" ry="2.33958" transform="matrix(0.959129 0.28297 -0.216935 0.976186 100.432 159.851)" fill="black"/>
<ellipse rx="2.00592" ry="2.33958" transform="matrix(0.959129 0.28297 -0.216935 0.976186 110.432 233.851)" fill="black"/>
<ellipse rx="2.00592" ry="2.33958" transform="matrix(0.959129 0.28297 -0.216935 0.976186 67.4315 228.851)" fill="black"/>
<ellipse rx="2.00592" ry="2.33958" transform="matrix(0.959129 0.28297 -0.216935 0.976186 62.4315 285.851)" fill="black"/>
<ellipse rx="2.00592" ry="2.33958" transform="matrix(0.959129 0.28297 -0.216935 0.976186 59.4315 68.8515)" fill="black"/>
<ellipse rx="2.00592" ry="2.33958" transform="matrix(0.959129 0.28297 -0.216935 0.976186 206.432 183.851)" fill="black"/>
<ellipse rx="2.00592" ry="2.33958" transform="matrix(0.959129 0.28297 -0.216935 0.976186 238.432 212.851)" fill="black"/>
<ellipse rx="2.00592" ry="2.33958" transform="matrix(0.959129 0.28297 -0.216935 0.976186 488.432 203.851)" fill="black"/>
<ellipse rx="2.00592" ry="2.33958" transform="matrix(0.959129 0.28297 -0.216935 0.976186 510.432 187.851)" fill="black"/>
<ellipse rx="2.00592" ry="2.33958" transform="matrix(0.959129 0.28297 -0.216935 0.976186 32.4315 209.851)" fill="black"/>
<ellipse rx="2.00592" ry="2.33958" transform="matrix(0.959129 0.28297 -0.216935 0.976186 32.4315 159.851)" fill="black"/>
<ellipse rx="2.00592" ry="2.33958" transform="matrix(0.959129 0.28297 -0.216935 0.976186 105.432 55.8515)" fill="black"/>
<ellipse rx="2.00592" ry="2.33958" transform="matrix(0.959129 0.28297 -0.216935 0.976186 170.432 22.8515)" fill="black"/>
<ellipse rx="2.00592" ry="2.33958" transform="matrix(0.959129 0.28297 -0.216935 0.976186 263.432 20.8515)" fill="black"/>
<ellipse rx="2.00592" ry="2.33958" transform="matrix(0.959129 0.28297 -0.216935 0.976186 235.432 68.8515)" fill="black"/>
<ellipse rx="2.00592" ry="2.33958" transform="matrix(0.959129 0.28297 -0.216935 0.976186 193.432 272.851)" fill="black"/>
<ellipse rx="2.00592" ry="2.33958" transform="matrix(0.959129 0.28297 -0.216935 0.976186 167.432 311.851)" fill="black"/>
<ellipse rx="2.00592" ry="2.33958" transform="matrix(0.959129 0.28297 -0.216935 0.976186 216.432 312.851)" fill="black"/>
<ellipse rx="2.00592" ry="2.33958" transform="matrix(0.959129 0.28297 -0.216935 0.976186 346.432 324.851)" fill="black"/>
<ellipse rx="2.00592" ry="2.33958" transform="matrix(0.959129 0.28297 -0.216935 0.976186 417.432 238.851)" fill="black"/>
<ellipse rx="2.00592" ry="2.33958" transform="matrix(0.959129 0.28297 -0.216935 0.976186 418.432 302.851)" fill="black"/>
<ellipse rx="2.00592" ry="2.33958" transform="matrix(0.959129 0.28297 -0.216935 0.976186 393.432 327.851)" fill="black"/>
<ellipse rx="2.00592" ry="2.33958" transform="matrix(0.959129 0.28297 -0.216935 0.976186 369.432 256.851)" fill="black"/>
<ellipse rx="2.00592" ry="2.33958" transform="matrix(0.959129 0.28297 -0.216935 0.976186 497.432 302.851)" fill="black"/>
<ellipse rx="2.00592" ry="2.33958" transform="matrix(0.959129 0.28297 -0.216935 0.976186 525.432 296.851)" fill="black"/>
<ellipse rx="2.00592" ry="2.33958" transform="matrix(0.959129 0.28297 -0.216935 0.976186 546.432 221.851)" fill="black"/>
<ellipse rx="2.00592" ry="2.33958" transform="matrix(0.959129 0.28297 -0.216935 0.976186 566.432 182.851)" fill="black"/>
<ellipse rx="2.00592" ry="2.33958" transform="matrix(0.959129 0.28297 -0.216935 0.976186 557.432 116.851)" fill="black"/>
<ellipse rx="2.00592" ry="2.33958" transform="matrix(0.959129 0.28297 -0.216935 0.976186 551.432 73.8515)" fill="black"/>
<ellipse rx="2.00592" ry="2.33958" transform="matrix(0.959129 0.28297 -0.216935 0.976186 523.432 42.8515)" fill="black"/>
<ellipse rx="2.00592" ry="2.33958" transform="matrix(0.959129 0.28297 -0.216935 0.976186 492.432 28.8515)" fill="black"/>
<ellipse rx="2.00592" ry="2.33958" transform="matrix(0.959129 0.28297 -0.216935 0.976186 510.432 71.8515)" fill="black"/>
<ellipse rx="2.00592" ry="2.33958" transform="matrix(0.959129 0.28297 -0.216935 0.976186 498.432 117.851)" fill="black"/>
<path d="M461.355 87.4191C461.075 88.6804 459.987 89.4488 458.924 89.1354C457.861 88.8219 457.227 87.5452 457.508 86.2839C457.788 85.0225 458.877 84.2541 459.939 84.5676C461.002 84.8811 461.636 86.1578 461.355 87.4191Z" fill="black"/>
<ellipse rx="2.00592" ry="2.33958" transform="matrix(0.959129 0.28297 -0.216935 0.976186 422.432 70.8515)" fill="black"/>
<ellipse rx="2.00592" ry="2.33958" transform="matrix(0.959129 0.28297 -0.216935 0.976186 397.432 17.8515)" fill="black"/>
<ellipse rx="2.00592" ry="2.33958" transform="matrix(0.959129 0.28297 -0.216935 0.976186 366.432 48.8515)" fill="black"/>
<ellipse rx="2.00592" ry="2.33958" transform="matrix(0.959129 0.28297 -0.216935 0.976186 332.432 23.8515)" fill="black"/>
<ellipse rx="2.00592" ry="2.33958" transform="matrix(0.959129 0.28297 -0.216935 0.976186 316.432 51.8515)" fill="black"/>
<ellipse rx="2.00592" ry="2.33958" transform="matrix(0.959129 0.28297 -0.216935 0.976186 278.432 253.851)" fill="black"/>
<ellipse rx="2.00592" ry="2.33958" transform="matrix(0.959129 0.28297 -0.216935 0.976186 274.432 305.851)" fill="black"/>
<ellipse rx="2.00592" ry="2.33958" transform="matrix(0.959129 0.28297 -0.216935 0.976186 303.432 275.851)" fill="black"/>
<ellipse rx="2.00592" ry="2.33958" transform="matrix(0.959129 0.28297 -0.216935 0.976186 306.432 325.851)" fill="black"/>
</svg>
