<svg width="581" height="341" viewBox="0 0 581 341" fill="none" xmlns="http://www.w3.org/2000/svg">
<path d="M291.851 220.651L291.851 220.651C309.287 230.522 354.513 235.873 391.632 199.245L392.53 200.155L391.632 199.245C405.735 185.332 414.209 153.154 387.544 124.189L387.544 124.188C379.154 115.07 365.459 104.864 349.75 98.8209C334.046 92.7795 316.468 90.9447 300.175 98.3221L291.851 220.651ZM291.851 220.651C282.157 215.167 273.474 205.782 267.197 194.968M291.851 220.651L267.197 194.968M273.731 115.453C264.577 124.891 256.961 139.103 257.061 161.113L273.731 115.453ZM273.731 115.453C282.66 106.247 293.109 101.519 299.608 98.5786M273.731 115.453L299.608 98.5786M299.608 98.5786C299.8 98.4916 299.989 98.4062 300.174 98.3223L299.608 98.5786ZM267.197 194.968C260.921 184.154 257.115 172.021 257.061 161.114L267.197 194.968Z" fill="#C58BD2" fill-opacity="0.4" stroke="#905999" stroke-width="2.55536"/>
<path d="M293.432 216.832C310.051 226.183 352.602 231.082 387.456 196.902C400.977 183.647 408.908 153.248 383.712 126.027C367.905 108.97 332.262 87.9519 301.24 101.895C289.291 107.267 260.337 119.672 260.522 160.889C260.632 181.498 274.974 206.455 293.432 216.832Z" fill="#905999"/>
<path d="M294.457 215.242C310.599 224.328 351.966 229.086 385.848 195.878C398.98 182.994 406.699 153.461 382.21 127C366.862 110.42 332.21 89.9855 302.072 103.557C290.458 108.788 262.317 120.822 262.502 160.89C262.595 180.916 276.53 205.148 294.457 215.242Z" fill="#CC94D9" stroke="#925C9B" stroke-width="1.44297" stroke-miterlimit="10" stroke-linecap="round" stroke-linejoin="round"/>
<path opacity="0.5" d="M302.072 103.557C290.458 108.788 262.317 120.822 262.502 160.89C262.595 180.916 276.53 205.166 294.475 215.242C310.617 224.328 351.984 229.086 385.866 195.878C398.998 182.994 406.717 153.461 382.228 127C366.845 110.42 332.21 89.9855 302.072 103.557ZM369.43 131.753C389.34 154.449 383.069 179.812 372.394 190.875C344.858 219.382 311.216 215.296 298.097 207.501C283.511 198.839 272.175 178.035 272.101 160.838C271.953 126.443 294.826 116.106 304.265 111.635C328.782 99.9714 356.947 117.507 369.43 131.753Z" fill="#BE83CB"/>
<path opacity="0.5" d="M319.056 186.823C348.544 187.902 362.93 166.058 353.593 144.443C344.272 122.81 329.951 112.364 304.656 126.856C279.36 141.347 291.548 185.814 319.056 186.823Z" fill="#BE83CB"/>
<path d="M316.173 182.651C342.284 183.589 355.027 164.767 346.768 146.139C338.509 127.51 325.832 118.514 303.435 130.99C281.021 143.467 291.811 181.784 316.173 182.651Z" fill="#6C4096" stroke="#5E2D68" stroke-width="1.44297" stroke-miterlimit="10" stroke-linecap="round" stroke-linejoin="round"/>
<path opacity="0.5" d="M313.06 179.54C332.613 180.248 342.157 166.145 335.967 152.182C329.777 138.238 320.3 131.486 303.507 140.834C286.732 150.201 294.798 178.885 313.06 179.54Z" fill="#9862C2"/>
</svg>
