<svg width="120" height="120" viewBox="0 0 120 120" fill="none" xmlns="http://www.w3.org/2000/svg">
<mask id="path-1-outside-1_5025_350569" maskUnits="userSpaceOnUse" x="0" y="29.5" width="118" height="61" fill="black">
<rect fill="white" y="29.5" width="118" height="61"/>
<path fill-rule="evenodd" clip-rule="evenodd" d="M85.7322 31.2322C86.7086 30.2559 88.2915 30.2559 89.2678 31.2322L116.268 58.2322C117.244 59.2085 117.244 60.7915 116.268 61.7678L89.2678 88.7678C88.2915 89.7441 86.7086 89.7441 85.7323 88.7678C84.756 87.7915 84.756 86.2085 85.7323 85.2322L108.465 62.5H3.5C2.11929 62.5 1 61.3807 1 60C1 58.6193 2.11929 57.5 3.5 57.5H108.464L85.7322 34.7678C84.7559 33.7915 84.7559 32.2085 85.7322 31.2322Z"/>
</mask>
<path fill-rule="evenodd" clip-rule="evenodd" d="M85.7322 31.2322C86.7086 30.2559 88.2915 30.2559 89.2678 31.2322L116.268 58.2322C117.244 59.2085 117.244 60.7915 116.268 61.7678L89.2678 88.7678C88.2915 89.7441 86.7086 89.7441 85.7323 88.7678C84.756 87.7915 84.756 86.2085 85.7323 85.2322L108.465 62.5H3.5C2.11929 62.5 1 61.3807 1 60C1 58.6193 2.11929 57.5 3.5 57.5H108.464L85.7322 34.7678C84.7559 33.7915 84.7559 32.2085 85.7322 31.2322Z" fill="#E84461"/>
<path d="M89.2678 31.2322L88.5607 31.9393V31.9393L89.2678 31.2322ZM85.7322 31.2322L85.0251 30.5251V30.5251L85.7322 31.2322ZM116.268 58.2322L116.975 57.5251L116.268 58.2322ZM116.268 61.7678L116.975 62.4749L116.268 61.7678ZM89.2678 88.7678L89.9749 89.4749L89.2678 88.7678ZM85.7323 85.2322L86.4394 85.9393L85.7323 85.2322ZM108.465 62.5L109.172 63.2071L110.879 61.5H108.465V62.5ZM108.464 57.5V58.5H110.879L109.172 56.7929L108.464 57.5ZM85.7322 34.7678L85.0251 35.4749L85.7322 34.7678ZM89.9749 30.5251C88.6081 29.1583 86.392 29.1583 85.0251 30.5251L86.4394 31.9393C87.0251 31.3536 87.9749 31.3536 88.5607 31.9393L89.9749 30.5251ZM116.975 57.5251L89.9749 30.5251L88.5607 31.9393L115.561 58.9393L116.975 57.5251ZM116.975 62.4749C118.342 61.108 118.342 58.892 116.975 57.5251L115.561 58.9393C116.146 59.5251 116.146 60.4749 115.561 61.0607L116.975 62.4749ZM89.9749 89.4749L116.975 62.4749L115.561 61.0607L88.5607 88.0607L89.9749 89.4749ZM85.0252 89.4749C86.392 90.8417 88.6081 90.8417 89.9749 89.4749L88.5607 88.0607C87.9749 88.6464 87.0252 88.6464 86.4394 88.0607L85.0252 89.4749ZM85.0252 84.5251C83.6583 85.892 83.6583 88.108 85.0252 89.4749L86.4394 88.0607C85.8536 87.4749 85.8536 86.5251 86.4394 85.9393L85.0252 84.5251ZM107.757 61.7929L85.0252 84.5251L86.4394 85.9393L109.172 63.2071L107.757 61.7929ZM3.5 63.5H108.465V61.5H3.5V63.5ZM0 60C0 61.933 1.567 63.5 3.5 63.5V61.5C2.67157 61.5 2 60.8284 2 60H0ZM3.5 56.5C1.567 56.5 0 58.067 0 60H2C2 59.1716 2.67157 58.5 3.5 58.5V56.5ZM108.464 56.5H3.5V58.5H108.464V56.5ZM85.0251 35.4749L107.757 58.2071L109.172 56.7929L86.4394 34.0607L85.0251 35.4749ZM85.0251 30.5251C83.6583 31.892 83.6583 34.108 85.0251 35.4749L86.4394 34.0607C85.8536 33.4749 85.8536 32.5251 86.4394 31.9393L85.0251 30.5251Z" fill="white" fill-opacity="0.5" mask="url(#path-1-outside-1_5025_350569)"/>
</svg>
