<svg width="581" height="341" viewBox="0 0 581 341" fill="none" xmlns="http://www.w3.org/2000/svg">
<path d="M199.303 45.7516C201.005 32.68 224.723 23.8409 252.847 27.5201C280.971 31.1993 318.027 65.7181 289.335 72.553C273.653 76.2921 259.613 59.4664 242.586 59.5861C206.322 59.8553 197.585 58.8233 199.303 45.7516Z" fill="#E69264"/>
<path opacity="0.3608" d="M206.128 39.7693C207.726 40.3376 209.877 42.0127 211.744 43.1344C212.789 43.7625 214.343 44.286 215.03 43.284C215.552 42.5062 214.985 41.3995 214.163 40.9657C213.342 40.532 212.371 40.532 211.445 40.3974C210.519 40.2628 209.533 39.9039 209.115 39.0663C208.757 38.3484 208.966 37.4511 209.444 36.8229C209.922 36.1798 210.624 35.761 211.355 35.432C213.073 34.6543 215.448 34.4598 216.538 36.0003C217.106 36.793 217.15 37.825 217.255 38.7971C217.345 39.7693 217.539 40.8162 218.286 41.4593C219.017 42.0875 220.451 41.9229 220.66 40.9807C220.018 39.7244 219.152 38.5728 218.539 37.3015C217.942 36.0153 217.628 34.5047 218.166 33.1886C218.704 31.8874 220.347 30.99 221.601 31.6032C222.438 32.022 222.901 32.9493 223.05 33.8616C223.199 34.7739 223.095 35.7161 223.08 36.6434C223.02 40.7265 226.665 47.6511 227.725 46.6491C228.502 45.9162 226.59 41.7883 225.709 39.0514C224.827 36.3144 224.529 33.0689 226.276 30.7956C226.874 30.0178 227.725 29.3897 228.696 29.2401C229.667 29.0906 230.742 29.4794 231.25 30.3319C231.982 31.5583 231.324 33.0839 230.936 34.4449C230.533 35.8059 230.682 37.7053 232.056 38.0942C232.967 36.5686 232.848 34.6543 233.072 32.8745C233.296 31.0947 234.207 29.1055 235.969 28.8064C237.478 28.5522 238.927 29.7636 239.479 31.1844C240.032 32.6053 239.912 34.2056 239.793 35.7311C239.584 38.2138 239.375 40.7115 239.166 43.1942C239.061 44.3757 239.24 45.9611 240.405 46.1854C241.167 46.335 241.914 45.7068 242.168 44.974C242.422 44.2411 242.332 43.4335 242.242 42.6558C241.914 39.7543 241.779 36.8379 241.824 33.9064C241.854 32.3211 242.063 30.4965 243.393 29.614C244.856 28.6419 246.902 29.4346 248.172 30.646C250.427 32.7847 251.368 36.0452 251.338 39.171C251.323 42.2819 250.457 45.3329 249.591 48.3242C250.263 48.4887 250.965 48.0849 251.368 47.5315C251.771 46.9632 251.921 46.2752 252.055 45.6021C252.623 42.6707 252.877 39.6945 252.832 36.7032C252.817 35.5516 252.757 34.3551 253.16 33.2783C253.564 32.2015 254.564 31.2443 255.729 31.3041C256.939 31.3639 257.865 32.5454 258.059 33.7569C258.254 34.9534 257.91 36.1798 257.581 37.3464C257.253 38.5279 256.939 39.7543 257.193 40.9508C257.313 41.5191 257.776 42.1622 258.328 41.9828C258.597 41.893 258.776 41.6238 258.881 41.3546C259.956 38.9018 258.597 35.5367 260.509 33.6672C261.42 32.7698 262.943 32.5903 264.034 33.2334C265.124 33.8765 265.707 35.2974 265.363 36.5238C265.019 37.7352 263.959 38.6027 263.347 39.7094C262.734 40.8162 262.899 42.6109 264.138 42.8502C265.005 43.0147 265.811 42.252 266.11 41.4294C266.409 40.5918 266.394 39.6795 266.588 38.827C266.886 37.5857 267.753 36.4041 268.977 36.0452C270.202 35.6862 271.741 36.434 272.383 37.1071C273.025 37.7801 273.652 38.6027 273.593 39.3355C273.533 40.0684 273.055 40.6816 272.637 41.2798C270.77 43.9271 269.709 47.1426 269.62 50.3732C269.605 51.0312 269.635 51.7192 269.993 52.2726C270.352 52.826 271.143 53.1401 271.681 52.7811C272.054 52.5268 272.338 52.0632 272.323 51.6145C272.218 49.1468 272.786 47.0679 273.383 44.8543C273.727 43.5831 274.653 40.9657 275.848 40.4124C278.312 39.2907 281.075 42.252 281.24 42.9998C281.404 43.7476 281.105 44.5104 280.821 45.2133C280.403 46.2154 280 47.2324 279.582 48.2344C279.403 48.6831 279.208 49.1468 279.238 49.6403C279.253 50.1189 279.552 50.6274 280.015 50.7471C280.702 50.9116 281.284 50.2086 281.583 49.5655C282.151 48.3541 282.464 47.0379 282.509 45.7068C282.524 45.3479 282.539 44.9441 282.808 44.7347C283.077 44.5104 283.48 44.5851 283.809 44.7048C285.466 45.318 286.676 47.008 286.721 48.7878C286.751 50.1339 286.183 51.4051 285.72 52.6615C285.257 53.9178 284.884 55.3087 285.317 56.5949C285.466 57.0586 285.75 57.5072 286.168 57.7615C286.587 58.0158 287.184 58.0008 287.528 57.6718C287.976 57.238 287.886 56.5201 287.856 55.9069C287.796 54.9198 287.946 53.9178 288.304 53.0054C288.513 52.4521 288.857 51.8837 289.439 51.7491C290.126 51.5846 290.754 52.138 291.232 52.6465C292.695 54.2019 294.04 55.892 294.936 57.8213C295.832 59.7507 296.25 61.9642 295.787 64.0431C295.324 66.122 293.905 68.0364 291.919 68.8141C291.202 69.0833 290.306 69.173 289.753 68.6346C289.245 68.1261 289.29 67.3035 289.395 66.5856C290.216 61.2313 289.828 61.6052 289.544 61.351C289.215 61.0369 287.886 63.2504 287.617 64.417C287.333 65.6434 287.423 66.9296 287.08 68.1411C286.736 69.3525 285.735 70.534 284.451 70.4144C283.435 70.9079 282.151 70.5041 281.404 69.6666C280.657 68.829 280.373 67.6625 280.358 66.5407C280.344 65.419 280.582 64.2973 280.732 63.1906C281.045 60.9771 281.046 58.7336 280.762 56.5201C280.717 56.1761 280.657 55.8172 280.463 55.533C280.269 55.2489 279.881 55.0694 279.567 55.204C279.268 55.3386 279.134 55.6826 279.059 56.0116C278.596 57.8662 278.745 59.8105 278.671 61.7249C278.581 63.6393 278.208 65.6583 276.908 67.0493C275.609 68.4402 273.144 68.8739 271.815 67.5129C270.844 66.5258 270.77 64.9255 271.173 63.5944C271.576 62.2633 272.368 61.0967 273.01 59.8703C273.339 59.2422 273.622 58.5542 273.548 57.8512C273.473 57.1483 272.906 56.4603 272.204 56.4753C271.367 56.5052 270.874 57.4175 270.635 58.2102C270.262 59.4067 270.023 60.663 269.44 61.7697C268.858 62.8765 267.842 63.8636 266.588 63.9683C265.527 64.058 264.512 63.4897 263.78 62.7269C262.182 61.0519 261.793 58.5093 262.197 56.221C262.6 53.9327 263.675 51.8389 264.676 49.76C265.005 49.072 265.333 48.3391 265.243 47.5913C265.139 46.8435 264.422 46.1256 263.69 46.32C262.988 46.5145 262.734 47.352 262.585 48.0699C262.152 50.1937 261.704 52.3324 261.271 54.4562C261.047 55.5181 260.823 56.5949 260.315 57.5521C259.792 58.5093 258.941 59.3319 257.88 59.5413C256.551 59.8105 255.147 59.0029 254.46 57.8213C253.773 56.6398 253.728 55.1741 254.057 53.843C254.385 52.5119 255.057 51.3154 255.759 50.1488C256.163 49.4758 256.596 48.7729 256.581 47.9951C256.566 47.2174 255.879 46.3948 255.117 46.5593C254.43 46.7089 254.116 47.4866 253.907 48.1596C253.579 49.2215 253.25 50.2984 252.922 51.3603C252.563 52.5418 251.383 56.7295 248.366 56.55C247.126 56.4753 245.902 55.4882 245.887 54.2767C246.275 51.5846 246.649 48.8925 247.037 46.1854C247.41 43.5831 247.694 40.6666 246.081 38.5877C245.737 38.139 245.125 37.7352 244.632 38.0194C244.199 38.2736 244.199 38.8868 244.229 39.3804C244.498 42.7007 244.498 46.0209 244.244 49.3412C244.124 50.9415 243.915 52.6166 242.93 53.8879C242.063 55.0096 240.704 55.6527 239.315 55.9219C237.926 56.1911 236.492 56.1163 235.088 56.0565C234.341 56.0266 233.49 55.9368 233.042 55.3386C232.564 54.7104 232.743 53.828 232.937 53.0653C233.849 49.4309 234.506 45.7368 234.909 42.0127C234.954 41.5939 234.999 41.1452 234.849 40.7564C234.7 40.3675 234.312 40.0235 233.878 40.0833C233.281 40.1731 233.072 40.9059 232.997 41.5042C232.699 43.9719 232.609 46.4846 231.967 48.8925C231.324 51.3004 230.07 53.6635 227.979 54.9946C225.455 56.5949 222.229 56.4454 219.241 56.236C218.614 56.1911 217.897 56.1163 217.494 55.6377C216.852 54.8899 217.33 53.7383 217.823 52.8858C218.659 51.4351 219.48 49.9993 220.317 48.5485C220.616 48.0101 220.929 47.4567 220.959 46.8435C220.989 46.2303 220.601 45.5573 219.988 45.4676C219.092 45.3479 218.569 46.3948 218.271 47.2473C217.688 48.9523 216.956 50.5975 216.075 52.1679C215.194 53.7532 213.999 55.3536 212.252 55.8172C210.19 56.3556 208.129 55.1442 206.352 53.9776C205.486 53.4093 204.485 52.467 204.918 51.5098C205.277 50.7172 206.322 50.6274 207.173 50.5227C209.145 50.2984 211.027 49.401 212.446 48.0101C212.729 47.7259 213.028 47.367 212.939 46.9632C212.849 46.5743 212.416 46.35 212.027 46.3649C211.639 46.3799 211.266 46.5593 210.922 46.7388C209.384 47.5165 207.756 48.1297 206.098 48.5934C205.411 48.7878 204.679 48.9523 203.977 48.8476C203.26 48.7579 202.558 48.3541 202.26 47.696C202.006 47.1127 202.11 46.4397 202.274 45.8115C202.917 43.4933 205.321 39.4851 206.128 39.7693Z" fill="#FDDFD3"/>
<path d="M206.875 46.4403C207.345 46.4403 207.726 46.0587 207.726 45.5879C207.726 45.117 207.345 44.7354 206.875 44.7354C206.405 44.7354 206.023 45.117 206.023 45.5879C206.023 46.0587 206.405 46.4403 206.875 46.4403Z" fill="#AA2829"/>
<path d="M225.574 52.0029C226.045 52.0029 226.426 51.6212 226.426 51.1504C226.426 50.6795 226.045 50.2979 225.574 50.2979C225.104 50.2979 224.723 50.6795 224.723 51.1504C224.723 51.6212 225.104 52.0029 225.574 52.0029Z" fill="#AA2829"/>
<path d="M229.114 41.2948C229.584 41.2948 229.965 40.9132 229.965 40.4423C229.965 39.9715 229.584 39.5898 229.114 39.5898C228.644 39.5898 228.263 39.9715 228.263 40.4423C228.263 40.9132 228.644 41.2948 229.114 41.2948Z" fill="#AA2829"/>
<path d="M236.702 35.4618C237.172 35.4618 237.553 35.0802 237.553 34.6093C237.553 34.1385 237.172 33.7568 236.702 33.7568C236.232 33.7568 235.85 34.1385 235.85 34.6093C235.85 35.0802 236.232 35.4618 236.702 35.4618Z" fill="#AA2829"/>
<path d="M245.409 34.4296C245.879 34.4296 246.261 34.0479 246.261 33.5771C246.261 33.1063 245.879 32.7246 245.409 32.7246C244.939 32.7246 244.558 33.1063 244.558 33.5771C244.558 34.0479 244.939 34.4296 245.409 34.4296Z" fill="#AA2829"/>
<path d="M249.263 53.4989C249.733 53.4989 250.115 53.1173 250.115 52.6464C250.115 52.1756 249.733 51.7939 249.263 51.7939C248.793 51.7939 248.412 52.1756 248.412 52.6464C248.412 53.1173 248.793 53.4989 249.263 53.4989Z" fill="#AA2829"/>
<path d="M258.598 45.9911C259.068 45.9911 259.449 45.6095 259.449 45.1386C259.449 44.6678 259.068 44.2861 258.598 44.2861C258.128 44.2861 257.746 44.6678 257.746 45.1386C257.746 45.6095 258.128 45.9911 258.598 45.9911Z" fill="#AA2829"/>
<path d="M270.695 41.2343C271.165 41.2343 271.546 40.8526 271.546 40.3818C271.546 39.911 271.165 39.5293 270.695 39.5293C270.225 39.5293 269.844 39.911 269.844 40.3818C269.844 40.8526 270.225 41.2343 270.695 41.2343Z" fill="#AA2829"/>
<path d="M276.461 46.1405C276.931 46.1405 277.312 45.7589 277.312 45.288C277.312 44.8172 276.931 44.4355 276.461 44.4355C275.991 44.4355 275.609 44.8172 275.609 45.288C275.609 45.7589 275.991 46.1405 276.461 46.1405Z" fill="#AA2829"/>
<path d="M275.401 66.5556C275.871 66.5556 276.252 66.1739 276.252 65.7031C276.252 65.2323 275.871 64.8506 275.401 64.8506C274.93 64.8506 274.549 65.2323 274.549 65.7031C274.549 66.1739 274.93 66.5556 275.401 66.5556Z" fill="#AA2829"/>
<path d="M261.585 51.9575C261.57 51.8678 261.51 51.808 261.451 51.7482C261.152 51.2995 260.719 50.7461 260.106 50.8508C259.808 50.8658 259.449 51.105 259.479 51.4341C259.479 51.5238 259.539 51.5836 259.584 51.6584C259.643 51.7781 259.688 51.9127 259.718 52.0473C259.763 52.1969 259.688 52.3315 259.688 52.496C259.703 52.5558 259.718 52.6156 259.718 52.6904C259.703 52.6904 259.673 52.7054 259.658 52.7054C259.419 52.7652 259.18 52.8549 258.986 53.0344C258.837 53.169 258.777 53.3634 258.658 53.513C258.643 53.5429 258.568 53.6177 258.553 53.6775C258.568 53.8271 258.687 53.9467 258.673 54.0963C258.673 54.1112 258.673 54.1262 258.673 54.1411C258.434 54.2309 258.359 54.4702 258.12 54.3804C258 54.3057 257.881 54.1561 257.732 54.186C257.433 54.2758 257.239 54.6048 257.074 54.7992C257.059 54.7843 257.045 54.7543 257 54.7394C256.91 54.7095 256.806 54.7394 256.731 54.7992C256.567 54.889 256.402 54.9937 256.283 55.1432C256.148 55.4124 256.029 55.6966 255.85 55.9508C255.685 55.9808 255.491 55.9957 255.357 55.891C255.058 55.5321 255.491 55.0983 255.685 54.8441C255.82 54.7095 256.178 54.4702 256.372 54.3057C256.477 54.2309 256.582 54.201 256.716 54.1262C257.045 53.9617 257.358 53.7822 257.702 53.5728C257.941 53.4382 258.224 53.154 258.419 52.9895C258.583 52.8549 258.762 52.7054 258.852 52.496C258.897 52.3015 258.926 52.0922 258.897 51.8977C258.807 51.5537 258.359 51.5687 258.06 51.6136C257.179 51.7781 256.492 52.5259 255.76 53.1241C256.492 52.5707 256.985 51.9276 257.911 51.7482C258.195 51.7033 258.658 51.7033 258.717 52.0772C258.732 52.2716 258.717 52.481 258.658 52.6754C258.583 52.84 258.434 52.9447 258.299 53.0643C257.881 53.4681 257.747 53.513 257.149 53.8719C256.791 54.0215 256.298 54.3206 256.119 54.4851C255.82 54.6945 255.551 54.874 255.342 55.1881C255.163 55.3676 254.864 55.906 255.237 56.1004C255.402 56.1453 255.596 56.1602 255.76 56.0854C256.119 55.8611 256.253 55.4274 256.432 55.0684C256.477 54.9936 256.492 55.0086 256.567 54.9637C256.626 54.9189 256.806 54.859 256.88 54.9936C257.164 54.9039 257.298 54.5898 257.493 54.3804C257.552 54.3655 257.597 54.3655 257.657 54.3954C257.761 54.4403 257.836 54.5599 257.956 54.5898C258.075 54.6048 258.195 54.5151 258.299 54.4552C258.359 54.4104 258.419 54.3655 258.463 54.3206C258.493 54.3057 258.538 54.3057 258.568 54.3057C258.598 54.3057 258.628 54.3057 258.643 54.3057C258.628 54.4403 258.568 54.5749 258.508 54.7095C258.493 54.7394 258.493 54.7394 258.478 54.7544C258.434 54.7992 258.359 54.8441 258.344 54.9338C258.359 55.218 258.224 55.3376 258.165 55.5919C258.15 55.6667 258.135 55.7415 258.105 55.8162C258 55.8162 257.896 55.906 257.821 55.9808C257.687 56.1453 257.642 56.3547 257.478 56.4743C257.298 56.564 257.119 56.6687 256.97 56.8183C256.746 57.0576 256.552 57.2819 256.358 57.4913L256.343 57.5063C256.253 57.5362 256.163 57.5512 256.074 57.5512C255.685 57.5212 255.252 57.3119 255.013 57.0127C254.968 56.8632 255.103 56.594 255.163 56.4145C255.417 56.3547 255.685 56.5491 255.939 56.4893C256.178 56.5192 256.417 56.579 256.656 56.4743C256.656 56.4743 256.686 56.4594 256.671 56.4743C256.641 56.4743 256.611 56.4893 256.582 56.5042C256.313 56.5491 256.133 56.4145 255.835 56.4145C255.656 56.3846 255.491 56.2649 255.297 56.2948C255.178 56.3397 255.058 56.4145 254.998 56.5341C254.939 56.7136 254.849 56.908 254.819 57.1025C254.879 57.2819 255.088 57.3866 255.237 57.4764C255.461 57.596 255.73 57.7007 255.984 57.6858C256.193 57.6708 256.387 57.5661 256.522 57.3866C256.716 57.1922 256.94 56.9379 257.134 56.7286C257.149 56.6986 257.298 56.6388 257.388 56.594C257.508 56.5192 257.612 56.4294 257.717 56.3248C257.821 56.235 257.881 56.1004 257.956 55.9658C257.985 55.9658 258.015 55.9808 258.045 55.9808C258.105 55.9808 258.15 55.9359 258.195 55.906C258.344 55.8013 258.344 55.5769 258.389 55.4124C258.448 55.218 258.583 55.0535 258.553 54.8441C258.553 54.8142 258.568 54.7843 258.583 54.7544C258.613 54.7394 258.658 54.6796 258.673 54.6646C258.732 54.5749 258.732 54.4702 258.792 54.3804C258.807 54.3356 258.822 54.3057 258.837 54.2608C258.956 54.201 259.046 54.1411 259.165 54.0365C259.404 53.857 259.688 53.5728 259.852 53.1391C259.897 53.0493 259.882 52.9596 259.897 52.8848C259.897 52.8699 259.897 52.8699 259.897 52.8549C260.136 52.9895 260.42 52.8998 260.674 52.84C260.808 52.7951 260.958 52.84 261.092 52.7652C261.271 52.6754 261.51 52.5708 261.555 52.3464C261.57 52.1968 261.6 52.0772 261.585 51.9575ZM259.703 53.169C259.569 53.528 259.375 53.8121 259.136 53.9916C259.091 54.0215 259.031 54.0963 258.867 54.1112C258.882 53.9916 258.867 53.8869 258.822 53.7822C258.792 53.6925 258.732 53.6177 258.732 53.5279C258.777 53.4532 258.837 53.3933 258.867 53.3335C258.926 53.2288 259.046 53.0045 259.076 52.9895C259.27 52.8998 259.494 52.7951 259.718 52.81C259.733 52.9297 259.718 53.0643 259.703 53.169ZM260.988 52.6306C260.719 52.6605 260.435 52.825 260.166 52.7203C260.091 52.6754 260.017 52.6605 259.942 52.6605C259.942 52.5857 259.942 52.5109 259.927 52.4511C259.867 52.2866 259.942 52.152 259.927 51.9725C259.912 51.8229 259.867 51.6883 259.808 51.5537C259.763 51.464 259.688 51.3892 259.688 51.2845C259.673 51.1948 259.718 51.105 259.748 51.0452C259.778 51.0303 259.808 51.0303 259.838 51.0303C260.39 50.8807 260.898 51.2995 261.167 51.7781C261.241 51.8977 261.376 51.9875 261.406 52.137C261.391 52.2567 261.421 52.481 261.361 52.5708C261.256 52.6007 261.122 52.6455 260.988 52.6306Z" fill="#AA2829"/>
</svg>
