<svg width="581" height="341" viewBox="0 0 581 341" fill="none" xmlns="http://www.w3.org/2000/svg">
<path d="M58.0103 257.351C63.2676 245.266 88.509 243.352 114.497 254.689C140.485 266.025 166.548 309.488 137.095 308.082C120.994 307.319 112.152 287.248 95.7678 282.657C60.863 272.845 52.7529 269.435 58.0103 257.351Z" fill="#E69264"/>
<path opacity="0.3608" d="M66.24 253.507C67.6141 254.494 69.2122 256.708 70.7058 258.308C71.5273 259.19 72.8864 260.132 73.8124 259.355C74.5293 258.756 74.2754 257.53 73.6183 256.887C72.9461 256.244 72.0201 255.975 71.1688 255.586C70.3175 255.197 69.4661 254.584 69.3018 253.671C69.1674 252.894 69.6006 252.086 70.2279 251.593C70.8552 251.114 71.6617 250.905 72.4533 250.785C74.3202 250.516 76.6502 250.979 77.2775 252.774C77.6061 253.686 77.3671 254.703 77.1879 255.661C77.0087 256.618 76.9041 257.68 77.4418 258.502C77.9795 259.31 79.3835 259.549 79.8614 258.697C79.5926 257.306 79.0698 255.975 78.8458 254.569C78.6217 253.163 78.7412 251.622 79.6224 250.516C80.5036 249.409 82.3258 249.005 83.3713 249.947C84.0583 250.575 84.2525 251.593 84.133 252.52C84.0285 253.447 83.6551 254.315 83.3862 255.197C82.2063 259.1 83.7895 266.773 85.074 266.1C86.0299 265.606 85.3279 261.12 85.2383 258.248C85.1487 255.376 85.761 252.176 88.076 250.486C88.8676 249.902 89.8534 249.544 90.8392 249.663C91.81 249.783 92.736 250.471 92.9899 251.413C93.3484 252.789 92.3028 254.075 91.5411 255.272C90.7794 256.468 90.3911 258.338 91.6009 259.086C92.9003 257.874 93.3036 255.99 94.0205 254.359C94.7224 252.714 96.1563 251.054 97.9336 251.263C99.4571 251.443 100.503 252.998 100.652 254.524C100.801 256.049 100.234 257.545 99.696 258.966C98.7999 261.299 97.9187 263.632 97.0226 265.965C96.6044 267.072 96.3355 268.642 97.381 269.181C98.068 269.54 98.9493 269.136 99.4123 268.508C99.8603 267.88 99.9948 267.072 100.129 266.309C100.622 263.423 101.294 260.581 102.146 257.799C102.609 256.289 103.325 254.584 104.834 254.12C106.522 253.597 108.254 254.913 109.15 256.438C110.734 259.13 110.719 262.51 109.837 265.502C108.956 268.493 107.283 271.17 105.626 273.817C106.223 274.161 107.015 273.967 107.552 273.548C108.09 273.114 108.433 272.501 108.747 271.873C110.091 269.211 111.182 266.429 111.958 263.542C112.257 262.421 112.541 261.269 113.228 260.342C113.915 259.415 115.14 258.771 116.23 259.16C117.38 259.564 117.933 260.955 117.783 262.166C117.634 263.378 116.977 264.455 116.334 265.487C115.692 266.519 115.05 267.625 114.975 268.837C114.93 269.405 115.199 270.153 115.782 270.138C116.066 270.123 116.305 269.914 116.499 269.689C118.216 267.625 117.843 264.021 120.188 262.75C121.308 262.152 122.817 262.391 123.698 263.318C124.564 264.245 124.728 265.771 124.056 266.848C123.399 267.925 122.13 268.448 121.233 269.345C120.337 270.243 120.009 272.008 121.129 272.591C121.92 272.995 122.891 272.486 123.414 271.768C123.937 271.05 124.161 270.168 124.594 269.405C125.221 268.284 126.386 267.401 127.656 267.401C128.925 267.401 130.195 268.553 130.628 269.375C131.061 270.198 131.434 271.17 131.166 271.858C130.912 272.546 130.284 273.01 129.702 273.473C127.178 275.507 125.266 278.289 124.28 281.385C124.086 282.013 123.922 282.686 124.116 283.314C124.31 283.943 124.982 284.466 125.61 284.272C126.043 284.137 126.446 283.763 126.55 283.329C127.133 280.936 128.253 279.082 129.433 277.123C130.105 276.001 131.733 273.728 133.033 273.548C135.721 273.159 137.543 276.764 137.498 277.541C137.454 278.304 136.961 278.962 136.483 279.56C135.811 280.413 135.139 281.265 134.451 282.118C134.153 282.492 133.839 282.896 133.735 283.359C133.615 283.838 133.75 284.406 134.183 284.646C134.795 285.005 135.542 284.481 136.02 283.943C136.901 282.941 137.573 281.759 137.976 280.488C138.081 280.159 138.215 279.77 138.529 279.635C138.858 279.501 139.216 279.68 139.5 279.89C140.919 280.936 141.621 282.896 141.173 284.616C140.829 285.917 139.933 286.979 139.141 288.056C138.35 289.132 137.603 290.374 137.663 291.72C137.678 292.213 137.827 292.722 138.156 293.066C138.499 293.425 139.067 293.574 139.5 293.35C140.052 293.066 140.157 292.348 140.306 291.75C140.53 290.793 140.949 289.865 141.546 289.088C141.904 288.624 142.397 288.16 142.98 288.19C143.682 288.22 144.145 288.923 144.458 289.551C145.429 291.451 146.266 293.44 146.594 295.549C146.923 297.657 146.714 299.901 145.683 301.77C144.668 303.64 142.771 305.091 140.65 305.285C139.888 305.345 138.992 305.18 138.619 304.522C138.275 303.894 138.544 303.116 138.843 302.458C141.113 297.553 140.635 297.792 140.441 297.463C140.202 297.074 138.32 298.824 137.737 299.886C137.125 300.993 136.856 302.249 136.184 303.326C135.512 304.403 134.227 305.255 133.033 304.777C131.927 304.971 130.792 304.223 130.314 303.206C129.821 302.189 129.881 300.993 130.18 299.901C130.479 298.809 131.016 297.807 131.464 296.79C132.375 294.756 133.003 292.587 133.331 290.389C133.376 290.045 133.421 289.686 133.316 289.357C133.212 289.028 132.883 288.744 132.54 288.788C132.211 288.833 131.987 289.132 131.823 289.417C130.867 291.077 130.479 292.976 129.866 294.801C129.254 296.61 128.328 298.45 126.7 299.422C125.057 300.409 122.578 300.14 121.667 298.45C121.009 297.224 121.368 295.683 122.13 294.517C122.876 293.35 123.967 292.453 124.922 291.451C125.415 290.942 125.878 290.359 125.998 289.671C126.117 288.983 125.774 288.145 125.087 287.981C124.28 287.771 123.548 288.519 123.1 289.207C122.413 290.254 121.831 291.391 120.979 292.303C120.113 293.215 118.859 293.873 117.634 293.634C116.603 293.425 115.767 292.602 115.274 291.66C114.199 289.611 114.542 287.054 115.558 284.975C116.573 282.896 118.186 281.176 119.725 279.456C120.233 278.887 120.755 278.274 120.86 277.526C120.965 276.779 120.472 275.881 119.71 275.881C118.978 275.881 118.5 276.614 118.157 277.257C117.141 279.187 116.14 281.101 115.125 283.03C114.617 283.987 114.109 284.975 113.347 285.737C112.586 286.515 111.54 287.068 110.45 286.979C109.091 286.859 107.97 285.707 107.627 284.376C107.298 283.06 107.657 281.624 108.329 280.443C109.016 279.261 109.987 278.289 110.987 277.362C111.555 276.838 112.167 276.27 112.376 275.522C112.586 274.775 112.152 273.787 111.376 273.743C110.674 273.698 110.166 274.356 109.778 274.939C109.165 275.881 108.553 276.809 107.956 277.751C107.283 278.783 104.983 282.477 102.146 281.475C100.981 281.071 100.069 279.77 100.398 278.603C101.518 276.121 102.623 273.638 103.744 271.155C104.819 268.762 105.909 266.025 104.924 263.587C104.714 263.064 104.236 262.496 103.699 262.645C103.221 262.78 103.042 263.363 102.937 263.857C102.28 267.117 101.354 270.318 100.204 273.428C99.6512 274.924 98.9791 276.48 97.6797 277.437C96.5446 278.274 95.051 278.514 93.6471 278.394C92.2431 278.274 90.884 277.811 89.5547 277.347C88.8527 277.108 88.0611 276.779 87.7923 276.091C87.5085 275.358 87.9267 274.565 88.315 273.877C90.1969 270.647 91.8548 267.267 93.2737 263.797C93.438 263.408 93.5873 262.989 93.5575 262.57C93.5276 262.152 93.2438 261.703 92.8107 261.658C92.2132 261.583 91.81 262.226 91.571 262.78C90.6002 265.068 89.8086 267.446 88.5391 269.585C87.2695 271.723 85.4025 273.638 83.0278 274.341C80.1601 275.178 77.0983 274.146 74.2904 273.114C73.6929 272.89 73.0358 272.621 72.7669 272.052C72.3487 271.155 73.1254 270.183 73.8423 269.495C75.0372 268.328 76.232 267.177 77.4269 266.01C77.8749 265.576 78.323 265.128 78.5172 264.545C78.7114 263.961 78.5321 263.213 77.9646 262.959C77.1431 262.585 76.3366 263.468 75.8288 264.201C74.7982 265.681 73.6481 267.057 72.3637 268.313C71.0792 269.585 69.496 270.796 67.6888 270.751C65.5679 270.691 63.925 268.957 62.5359 267.341C61.8638 266.549 61.1619 265.367 61.834 264.574C62.3866 263.916 63.4321 264.126 64.2834 264.26C66.24 264.589 68.3011 264.245 70.0486 263.318C70.4071 263.124 70.7805 262.854 70.8104 262.451C70.8402 262.062 70.4818 261.718 70.1084 261.628C69.72 261.538 69.3317 261.613 68.9434 261.688C67.2407 262.002 65.5231 262.152 63.7906 262.137C63.0736 262.122 62.3418 262.092 61.6697 261.793C61.0125 261.508 60.43 260.925 60.3404 260.207C60.2508 259.579 60.5495 258.951 60.8781 258.413C62.1028 256.199 65.5231 252.998 66.24 253.507Z" fill="#FDDFD3"/>
<path d="M65.3288 260.147C65.7989 260.147 66.1801 259.766 66.1801 259.295C66.1801 258.824 65.7989 258.442 65.3288 258.442C64.8586 258.442 64.4774 258.824 64.4774 259.295C64.4774 259.766 64.8586 260.147 65.3288 260.147Z" fill="#AA2829"/>
<path d="M81.7728 270.676C82.243 270.676 82.6241 270.294 82.6241 269.823C82.6241 269.352 82.243 268.971 81.7728 268.971C81.3026 268.971 80.9214 269.352 80.9214 269.823C80.9214 270.294 81.3026 270.676 81.7728 270.676Z" fill="#AA2829"/>
<path d="M88.1205 261.388C88.5906 261.388 88.9718 261.006 88.9718 260.535C88.9718 260.064 88.5906 259.683 88.1205 259.683C87.6503 259.683 87.2691 260.064 87.2691 260.535C87.2691 261.006 87.6503 261.388 88.1205 261.388Z" fill="#AA2829"/>
<path d="M97.0374 257.889C97.5076 257.889 97.8887 257.507 97.8887 257.036C97.8887 256.565 97.5076 256.184 97.0374 256.184C96.5672 256.184 96.186 256.565 96.186 257.036C96.186 257.507 96.5672 257.889 97.0374 257.889Z" fill="#AA2829"/>
<path d="M105.685 259.31C106.155 259.31 106.536 258.928 106.536 258.457C106.536 257.986 106.155 257.604 105.685 257.604C105.215 257.604 104.834 257.986 104.834 258.457C104.834 258.928 105.215 259.31 105.685 259.31Z" fill="#AA2829"/>
<path d="M104.116 278.693C104.587 278.693 104.968 278.312 104.968 277.841C104.968 277.37 104.587 276.988 104.116 276.988C103.646 276.988 103.265 277.37 103.265 277.841C103.265 278.312 103.646 278.693 104.116 278.693Z" fill="#AA2829"/>
<path d="M115.169 274.071C115.639 274.071 116.02 273.69 116.02 273.219C116.02 272.748 115.639 272.366 115.169 272.366C114.699 272.366 114.318 272.748 114.318 273.219C114.318 273.69 114.699 274.071 115.169 274.071Z" fill="#AA2829"/>
<path d="M128.089 272.859C128.559 272.859 128.94 272.478 128.94 272.007C128.94 271.536 128.559 271.154 128.089 271.154C127.619 271.154 127.237 271.536 127.237 272.007C127.237 272.478 127.619 272.859 128.089 272.859Z" fill="#AA2829"/>
<path d="M132.271 279.158C132.741 279.158 133.122 278.776 133.122 278.306C133.122 277.835 132.741 277.453 132.271 277.453C131.8 277.453 131.419 277.835 131.419 278.306C131.419 278.776 131.8 279.158 132.271 279.158Z" fill="#AA2829"/>
<path d="M125.609 298.495C126.079 298.495 126.461 298.113 126.461 297.643C126.461 297.172 126.079 296.79 125.609 296.79C125.139 296.79 124.758 297.172 124.758 297.643C124.758 298.113 125.139 298.495 125.609 298.495Z" fill="#AA2829"/>
<path d="M116.14 280.593C116.14 280.504 116.11 280.429 116.08 280.354C115.916 279.83 115.662 279.187 115.035 279.128C114.736 279.053 114.333 279.187 114.273 279.516C114.243 279.606 114.288 279.681 114.303 279.756C114.333 279.89 114.333 280.025 114.318 280.16C114.318 280.324 114.213 280.429 114.169 280.578C114.169 280.638 114.169 280.713 114.154 280.773C114.139 280.773 114.109 280.773 114.094 280.773C113.84 280.758 113.586 280.788 113.362 280.907C113.183 280.997 113.078 281.162 112.914 281.281C112.884 281.311 112.795 281.356 112.765 281.416C112.75 281.565 112.809 281.715 112.765 281.85C112.765 281.865 112.75 281.879 112.75 281.894C112.496 281.909 112.361 282.134 112.152 281.969C112.048 281.865 111.988 281.7 111.824 281.67C111.525 281.67 111.226 281.939 111.032 282.089C111.017 282.059 111.017 282.029 110.972 282.014C110.898 281.954 110.793 281.969 110.703 281.984C110.524 282.029 110.33 282.089 110.166 282.194C109.957 282.418 109.763 282.657 109.524 282.852C109.359 282.837 109.18 282.792 109.076 282.657C108.896 282.223 109.419 281.939 109.688 281.745C109.852 281.655 110.27 281.521 110.494 281.431C110.614 281.386 110.718 281.386 110.868 281.356C111.226 281.281 111.57 281.206 111.973 281.102C112.242 281.042 112.6 280.848 112.824 280.743C113.019 280.653 113.243 280.563 113.377 280.384C113.467 280.204 113.571 280.01 113.586 279.816C113.601 279.457 113.153 279.352 112.869 279.307C111.988 279.217 111.107 279.741 110.24 280.115C111.092 279.786 111.749 279.307 112.69 279.382C112.974 279.427 113.422 279.546 113.377 279.92C113.332 280.115 113.258 280.309 113.153 280.474C113.033 280.608 112.854 280.668 112.705 280.743C112.182 281.012 112.063 281.027 111.376 281.191C110.987 281.236 110.435 281.386 110.226 281.491C109.867 281.61 109.568 281.715 109.285 281.954C109.061 282.074 108.627 282.508 108.941 282.792C109.09 282.882 109.27 282.956 109.434 282.926C109.837 282.807 110.091 282.433 110.36 282.134C110.42 282.074 110.435 282.104 110.524 282.074C110.599 282.044 110.778 282.044 110.823 282.194C111.122 282.194 111.346 281.924 111.585 281.775C111.644 281.775 111.689 281.79 111.734 281.835C111.824 281.909 111.868 282.044 111.973 282.104C112.093 282.149 112.227 282.104 112.346 282.074C112.406 282.044 112.496 282.014 112.541 281.999C112.57 281.999 112.615 281.999 112.645 282.014C112.675 282.029 112.69 282.029 112.72 282.044C112.66 282.179 112.57 282.283 112.481 282.403C112.451 282.433 112.466 282.433 112.436 282.448C112.376 282.478 112.302 282.493 112.257 282.582C112.197 282.852 112.018 282.941 111.898 283.166C111.868 283.24 111.824 283.3 111.779 283.36C111.674 283.33 111.555 283.39 111.45 283.435C111.286 283.555 111.167 283.749 110.972 283.809C110.778 283.839 110.569 283.899 110.39 283.988C110.106 284.153 109.867 284.317 109.613 284.467L109.598 284.482C109.509 284.482 109.404 284.467 109.314 284.452C108.956 284.317 108.598 283.988 108.448 283.629C108.448 283.48 108.657 283.24 108.747 283.106C109.016 283.121 109.21 283.375 109.479 283.39C109.703 283.48 109.912 283.614 110.166 283.584C110.166 283.584 110.196 283.584 110.181 283.584C110.151 283.584 110.121 283.584 110.076 283.584C109.807 283.555 109.673 283.375 109.374 283.3C109.21 283.226 109.076 283.061 108.896 283.031C108.777 283.031 108.627 283.076 108.553 283.181C108.433 283.345 108.314 283.495 108.224 283.674C108.224 283.869 108.403 284.018 108.523 284.153C108.717 284.332 108.926 284.512 109.195 284.557C109.404 284.602 109.613 284.542 109.792 284.422C110.031 284.287 110.315 284.108 110.569 283.958C110.584 283.943 110.763 283.914 110.853 283.899C111.002 283.854 111.107 283.794 111.241 283.734C111.376 283.674 111.465 283.555 111.57 283.45C111.6 283.465 111.615 283.48 111.644 283.48C111.704 283.495 111.749 283.465 111.809 283.45C111.988 283.39 112.048 283.181 112.137 283.031C112.242 282.867 112.421 282.732 112.451 282.523C112.466 282.493 112.481 282.463 112.511 282.448C112.541 282.433 112.615 282.403 112.63 282.388C112.705 282.328 112.75 282.223 112.809 282.149C112.839 282.119 112.854 282.074 112.884 282.044C113.004 282.014 113.123 281.984 113.258 281.924C113.526 281.82 113.885 281.625 114.169 281.251C114.228 281.177 114.243 281.087 114.288 281.012C114.288 280.997 114.303 280.997 114.303 280.982C114.497 281.177 114.781 281.177 115.05 281.177C115.199 281.177 115.334 281.251 115.468 281.221C115.662 281.191 115.931 281.147 116.036 280.952C116.065 280.833 116.11 280.713 116.14 280.593ZM114.004 281.236C113.78 281.55 113.496 281.76 113.243 281.865C113.183 281.879 113.108 281.939 112.959 281.909C113.004 281.805 113.019 281.685 113.019 281.58C113.019 281.491 112.974 281.386 113.004 281.311C113.063 281.251 113.138 281.206 113.198 281.162C113.287 281.087 113.467 280.907 113.496 280.892C113.706 280.862 113.945 280.833 114.154 280.892C114.094 281.012 114.034 281.132 114.004 281.236ZM115.378 281.087C115.11 281.042 114.796 281.117 114.572 280.937C114.512 280.877 114.452 280.847 114.378 280.818C114.408 280.743 114.422 280.668 114.422 280.608C114.408 280.429 114.527 280.324 114.557 280.16C114.587 280.01 114.572 279.86 114.557 279.726C114.542 279.621 114.482 279.531 114.512 279.427C114.512 279.337 114.587 279.262 114.632 279.217C114.661 279.217 114.691 279.217 114.721 279.217C115.289 279.232 115.662 279.771 115.797 280.294C115.841 280.429 115.931 280.548 115.931 280.698C115.886 280.818 115.841 281.027 115.767 281.102C115.647 281.132 115.498 281.132 115.378 281.087Z" fill="#AA2829"/>
</svg>
