<svg width="581" height="341" viewBox="0 0 581 341" fill="none" xmlns="http://www.w3.org/2000/svg">
<path d="M417.752 192.292C411.001 180.97 424.145 159.313 448.505 144.761C472.85 130.209 523.303 134.307 505.007 157.474C495.015 170.141 473.567 165.64 460.289 176.303C432.001 199.007 424.503 203.613 417.752 192.292Z" fill="#E69264"/>
<path opacity="0.3608" d="M419.425 183.363C421.024 182.824 423.757 182.809 425.923 182.525C427.132 182.376 428.686 181.822 428.581 180.596C428.506 179.669 427.371 179.16 426.46 179.325C425.549 179.489 424.787 180.087 423.981 180.551C423.174 181.015 422.174 181.359 421.337 180.955C420.62 180.611 420.217 179.788 420.202 178.996C420.187 178.203 420.471 177.425 420.844 176.722C421.711 175.047 423.458 173.417 425.265 173.955C426.206 174.225 426.878 175.002 427.551 175.705C428.223 176.408 429.029 177.111 430 177.156C430.971 177.201 431.986 176.184 431.568 175.301C430.284 174.703 428.895 174.359 427.625 173.716C426.356 173.073 425.176 172.086 424.787 170.725C424.399 169.364 425.131 167.644 426.505 167.345C427.416 167.15 428.357 167.584 429.044 168.212C429.731 168.84 430.224 169.648 430.792 170.381C433.271 173.611 440.425 176.797 440.634 175.361C440.784 174.299 436.736 172.25 434.346 170.65C431.957 169.05 429.716 166.687 429.686 163.815C429.671 162.828 429.955 161.811 430.627 161.093C431.299 160.375 432.39 160.016 433.301 160.36C434.63 160.869 435.063 162.469 435.601 163.785C436.124 165.101 437.423 166.507 438.737 165.954C438.513 164.174 437.229 162.768 436.303 161.228C435.377 159.687 434.869 157.563 436.064 156.247C437.094 155.111 438.976 155.156 440.291 155.933C441.605 156.711 442.501 158.027 443.338 159.313C444.712 161.392 446.086 163.471 447.46 165.565C448.117 166.552 449.222 167.689 450.283 167.15C450.97 166.791 451.164 165.849 450.91 165.101C450.656 164.369 450.089 163.8 449.536 163.247C447.49 161.168 445.563 158.969 443.801 156.636C442.845 155.38 441.874 153.809 442.367 152.299C442.919 150.624 444.995 149.981 446.758 150.145C449.864 150.429 452.598 152.404 454.524 154.871C456.436 157.324 457.646 160.256 458.826 163.142C459.453 162.858 459.752 162.11 459.722 161.407C459.692 160.719 459.379 160.076 459.065 159.463C457.691 156.816 456.048 154.318 454.181 152C453.449 151.102 452.672 150.205 452.314 149.098C451.955 147.992 452.165 146.616 453.106 145.957C454.106 145.255 455.555 145.614 456.451 146.436C457.347 147.259 457.84 148.425 458.303 149.547C458.766 150.669 459.289 151.835 460.23 152.613C460.678 152.987 461.44 153.196 461.753 152.718C461.918 152.478 461.873 152.164 461.798 151.88C461.126 149.293 457.975 147.483 458.318 144.836C458.482 143.579 459.558 142.488 460.827 142.308C462.097 142.129 463.411 142.891 463.904 144.073C464.397 145.24 464.083 146.571 464.292 147.827C464.501 149.068 465.741 150.385 466.861 149.801C467.653 149.397 467.802 148.306 467.518 147.453C467.25 146.616 466.652 145.913 466.279 145.12C465.741 143.953 465.681 142.503 466.443 141.456C467.19 140.424 468.848 140.05 469.774 140.184C470.7 140.304 471.686 140.573 472.104 141.186C472.507 141.8 472.522 142.577 472.567 143.31C472.746 146.541 473.896 149.726 475.823 152.329C476.211 152.852 476.674 153.376 477.286 153.585C477.914 153.795 478.72 153.555 478.929 152.927C479.064 152.493 479.004 151.955 478.705 151.611C477.092 149.741 476.256 147.752 475.36 145.658C474.852 144.447 473.956 141.815 474.553 140.648C475.808 138.24 479.796 138.853 480.393 139.332C480.991 139.811 481.229 140.603 481.439 141.336C481.737 142.383 482.036 143.43 482.335 144.477C482.469 144.94 482.604 145.419 482.932 145.793C483.246 146.167 483.783 146.376 484.232 146.182C484.874 145.883 484.889 144.97 484.739 144.282C484.441 142.981 483.873 141.755 483.082 140.678C482.872 140.394 482.633 140.065 482.708 139.721C482.783 139.377 483.141 139.182 483.47 139.078C485.158 138.524 487.144 139.108 488.279 140.469C489.131 141.501 489.474 142.847 489.892 144.133C490.31 145.404 490.878 146.735 491.998 147.468C492.401 147.737 492.894 147.917 493.387 147.857C493.88 147.797 494.328 147.423 494.403 146.93C494.492 146.316 493.97 145.808 493.566 145.344C492.909 144.611 492.416 143.729 492.118 142.787C491.938 142.218 491.864 141.56 492.222 141.097C492.655 140.543 493.492 140.588 494.194 140.678C496.3 140.992 498.406 141.471 500.302 142.443C502.199 143.4 503.902 144.881 504.828 146.81C505.754 148.739 505.829 151.117 504.738 152.957C504.35 153.615 503.693 154.243 502.931 154.153C502.214 154.064 501.736 153.391 501.393 152.763C498.734 148.051 498.659 148.59 498.271 148.56C497.823 148.53 498.152 151.073 498.659 152.164C499.197 153.301 500.063 154.258 500.541 155.425C501.019 156.591 500.96 158.132 499.884 158.85C499.391 159.867 498.137 160.345 497.031 160.151C495.926 159.956 494.97 159.224 494.268 158.341C493.566 157.459 493.059 156.442 492.491 155.47C491.371 153.54 489.982 151.775 488.384 150.22C488.13 149.981 487.876 149.741 487.532 149.637C487.204 149.532 486.786 149.637 486.621 149.936C486.457 150.22 486.576 150.579 486.711 150.893C487.502 152.643 488.817 154.064 489.937 155.619C491.057 157.175 491.998 158.999 491.849 160.899C491.685 162.798 490.027 164.668 488.13 164.428C486.756 164.249 485.71 163.052 485.202 161.766C484.695 160.48 484.605 159.059 484.336 157.698C484.202 157.01 484.008 156.292 483.515 155.784C483.022 155.275 482.156 155.081 481.603 155.544C480.961 156.083 481.14 157.1 481.439 157.878C481.887 159.044 482.484 160.181 482.708 161.407C482.947 162.634 482.753 164.054 481.827 164.907C481.05 165.625 479.9 165.819 478.855 165.685C476.57 165.356 474.688 163.606 473.582 161.557C472.477 159.523 472.029 157.205 471.521 154.946C471.357 154.213 471.163 153.421 470.625 152.897C470.087 152.374 469.072 152.254 468.624 152.867C468.191 153.451 468.519 154.273 468.833 154.931C469.804 156.875 470.774 158.82 471.76 160.764C472.253 161.736 472.746 162.723 472.925 163.785C473.104 164.862 472.955 166.044 472.238 166.866C471.357 167.898 469.759 168.137 468.489 167.644C467.22 167.15 466.279 166.029 465.711 164.787C465.144 163.546 464.935 162.17 464.755 160.824C464.666 160.046 464.561 159.224 464.068 158.625C463.575 158.027 462.53 157.803 462.037 158.401C461.589 158.939 461.828 159.747 462.082 160.405C462.485 161.452 462.888 162.484 463.292 163.531C463.74 164.683 465.398 168.706 462.933 170.426C461.918 171.144 460.334 171.129 459.588 170.186C458.214 167.838 456.854 165.475 455.48 163.127C454.166 160.854 452.583 158.386 450.029 157.758C449.476 157.623 448.744 157.683 448.55 158.207C448.371 158.67 448.744 159.164 449.088 159.523C451.343 161.961 453.419 164.578 455.271 167.33C456.167 168.661 457.034 170.112 457.049 171.712C457.064 173.133 456.391 174.479 455.465 175.556C454.539 176.633 453.374 177.455 452.224 178.278C451.612 178.711 450.895 179.175 450.163 178.981C449.401 178.786 448.998 177.979 448.685 177.261C447.146 173.836 445.384 170.53 443.397 167.36C443.173 167.001 442.934 166.627 442.561 166.403C442.202 166.178 441.68 166.163 441.381 166.477C440.963 166.911 441.261 167.629 441.575 168.137C442.86 170.261 444.338 172.295 445.339 174.569C446.325 176.842 446.803 179.474 445.981 181.822C444.995 184.649 442.367 186.534 439.902 188.224C439.38 188.583 438.782 188.956 438.155 188.837C437.184 188.642 436.841 187.446 436.706 186.474C436.467 184.828 436.213 183.168 435.974 181.523C435.885 180.91 435.78 180.282 435.422 179.788C435.063 179.295 434.346 178.996 433.809 179.31C433.032 179.758 433.271 180.925 433.57 181.777C434.167 183.467 434.615 185.217 434.899 186.997C435.183 188.792 435.242 190.781 434.152 192.232C432.868 193.922 430.508 194.251 428.387 194.445C427.356 194.535 425.982 194.415 425.728 193.398C425.519 192.561 426.281 191.843 426.893 191.23C428.297 189.824 429.223 187.954 429.477 185.98C429.537 185.576 429.522 185.113 429.223 184.858C428.925 184.604 428.447 184.709 428.148 184.948C427.849 185.202 427.685 185.576 427.506 185.935C426.774 187.506 425.893 188.986 424.862 190.392C424.429 190.975 423.966 191.544 423.354 191.918C422.741 192.292 421.935 192.411 421.292 192.082C420.725 191.783 420.396 191.185 420.142 190.587C419.201 188.298 418.604 183.647 419.425 183.363Z" fill="#FDDFD3"/>
<path d="M423.607 188.329C424.077 188.329 424.458 187.947 424.458 187.477C424.458 187.006 424.077 186.624 423.607 186.624C423.137 186.624 422.756 187.006 422.756 187.477C422.756 187.947 423.137 188.329 423.607 188.329Z" fill="#AA2829"/>
<path d="M441.725 181.075C442.195 181.075 442.576 180.693 442.576 180.223C442.576 179.752 442.195 179.37 441.725 179.37C441.255 179.37 440.873 179.752 440.873 180.223C440.873 180.693 441.255 181.075 441.725 181.075Z" fill="#AA2829"/>
<path d="M437.886 170.485C438.356 170.485 438.737 170.104 438.737 169.633C438.737 169.162 438.356 168.78 437.886 168.78C437.416 168.78 437.034 169.162 437.034 169.633C437.034 170.104 437.416 170.485 437.886 170.485Z" fill="#AA2829"/>
<path d="M440.231 161.198C440.701 161.198 441.082 160.817 441.082 160.346C441.082 159.875 440.701 159.493 440.231 159.493C439.761 159.493 439.38 159.875 439.38 160.346C439.38 160.817 439.761 161.198 440.231 161.198Z" fill="#AA2829"/>
<path d="M446.429 154.992C446.9 154.992 447.281 154.61 447.281 154.14C447.281 153.669 446.9 153.287 446.429 153.287C445.959 153.287 445.578 153.669 445.578 154.14C445.578 154.61 445.959 154.992 446.429 154.992Z" fill="#AA2829"/>
<path d="M461.245 167.554C461.716 167.554 462.097 167.172 462.097 166.701C462.097 166.23 461.716 165.849 461.245 165.849C460.775 165.849 460.394 166.23 460.394 166.701C460.394 167.172 460.775 167.554 461.245 167.554Z" fill="#AA2829"/>
<path d="M463.934 155.873C464.404 155.873 464.785 155.491 464.785 155.02C464.785 154.55 464.404 154.168 463.934 154.168C463.463 154.168 463.082 154.55 463.082 155.02C463.082 155.491 463.463 155.873 463.934 155.873Z" fill="#AA2829"/>
<path d="M470.476 144.643C470.946 144.643 471.327 144.261 471.327 143.79C471.327 143.319 470.946 142.938 470.476 142.938C470.006 142.938 469.625 143.319 469.625 143.79C469.625 144.261 470.006 144.643 470.476 144.643Z" fill="#AA2829"/>
<path d="M478.033 144.91C478.503 144.91 478.884 144.528 478.884 144.058C478.884 143.587 478.503 143.205 478.033 143.205C477.563 143.205 477.181 143.587 477.181 144.058C477.181 144.528 477.563 144.91 478.033 144.91Z" fill="#AA2829"/>
<path d="M489.833 161.602C490.303 161.602 490.684 161.221 490.684 160.75C490.684 160.279 490.303 159.897 489.833 159.897C489.362 159.897 488.981 160.279 488.981 160.75C488.981 161.221 489.362 161.602 489.833 161.602Z" fill="#AA2829"/>
<path d="M470.491 158.521C470.431 158.461 470.341 158.446 470.252 158.431C469.744 158.267 469.057 158.102 468.654 158.566C468.43 158.775 468.295 159.164 468.534 159.418C468.594 159.493 468.669 159.508 468.758 159.538C468.878 159.598 468.997 159.672 469.102 159.762C469.236 159.867 469.251 160.001 469.356 160.121C469.415 160.151 469.46 160.196 469.505 160.241C469.49 160.256 469.475 160.271 469.46 160.286C469.311 160.48 469.176 160.704 469.132 160.959C469.102 161.153 469.176 161.348 469.176 161.542C469.176 161.572 469.162 161.677 469.191 161.736C469.296 161.841 469.46 161.871 469.55 161.991C469.565 162.006 469.565 162.006 469.58 162.021C469.445 162.23 469.535 162.484 469.296 162.559C469.147 162.574 468.982 162.529 468.863 162.649C468.684 162.903 468.728 163.292 468.728 163.531C468.698 163.531 468.669 163.516 468.639 163.531C468.549 163.561 468.489 163.651 468.459 163.741C468.385 163.92 468.325 164.099 468.325 164.294C468.385 164.593 468.46 164.892 468.489 165.191C468.385 165.326 468.235 165.446 468.071 165.446C467.608 165.341 467.683 164.743 467.683 164.414C467.698 164.219 467.832 163.815 467.892 163.561C467.937 163.441 467.982 163.352 468.041 163.217C468.191 162.888 468.325 162.559 468.474 162.17C468.579 161.916 468.624 161.512 468.669 161.273C468.713 161.063 468.773 160.839 468.698 160.615C468.609 160.435 468.504 160.241 468.355 160.106C468.071 159.897 467.728 160.181 467.519 160.39C466.936 161.063 466.846 162.08 466.637 163.008C466.876 162.125 466.861 161.318 467.474 160.585C467.668 160.375 468.041 160.091 468.31 160.331C468.445 160.48 468.564 160.66 468.624 160.839C468.669 161.018 468.624 161.198 468.579 161.362C468.489 161.931 468.43 162.05 468.176 162.709C467.996 163.053 467.787 163.591 467.743 163.83C467.638 164.189 467.548 164.488 467.578 164.862C467.548 165.116 467.638 165.715 468.056 165.64C468.206 165.58 468.37 165.46 468.445 165.311C468.594 164.907 468.43 164.488 468.34 164.085C468.325 164.01 468.355 164.01 468.385 163.92C468.4 163.845 468.504 163.696 468.654 163.741C468.818 163.486 468.728 163.157 468.758 162.873C468.788 162.828 468.833 162.798 468.893 162.783C469.012 162.753 469.132 162.798 469.251 162.738C469.356 162.679 469.4 162.529 469.43 162.424C469.445 162.365 469.475 162.275 469.475 162.215C469.49 162.185 469.52 162.155 469.55 162.14C469.58 162.125 469.595 162.11 469.61 162.095C469.684 162.215 469.714 162.365 469.759 162.499C469.759 162.529 469.774 162.529 469.774 162.559C469.759 162.619 469.729 162.694 469.774 162.783C469.968 162.993 469.923 163.187 470.043 163.411C470.073 163.486 470.102 163.546 470.132 163.621C470.043 163.696 470.028 163.815 470.013 163.935C470.013 164.144 470.102 164.339 470.043 164.533C469.953 164.713 469.878 164.907 469.849 165.116C469.819 165.445 469.819 165.745 469.774 166.029C469.774 166.029 469.774 166.044 469.774 166.059C469.729 166.133 469.654 166.208 469.58 166.268C469.251 166.477 468.788 166.597 468.415 166.507C468.295 166.418 468.221 166.119 468.161 165.954C468.325 165.745 468.654 165.745 468.818 165.52C469.027 165.401 469.251 165.296 469.371 165.072C469.371 165.072 469.386 165.042 469.386 165.057C469.356 165.072 469.341 165.116 469.326 165.131C469.147 165.341 468.923 165.326 468.684 165.535C468.519 165.625 468.31 165.625 468.191 165.775C468.116 165.879 468.071 166.014 468.101 166.148C468.161 166.328 468.221 166.537 468.31 166.702C468.474 166.807 468.684 166.762 468.878 166.732C469.132 166.687 469.4 166.612 469.595 166.433C469.759 166.298 469.834 166.089 469.834 165.864C469.863 165.595 469.878 165.251 469.908 164.967C469.908 164.937 469.983 164.787 470.028 164.698C470.073 164.563 470.102 164.429 470.117 164.294C470.147 164.144 470.102 164.01 470.087 163.86C470.117 163.845 470.147 163.83 470.162 163.815C470.207 163.77 470.207 163.711 470.222 163.666C470.282 163.486 470.132 163.322 470.073 163.157C469.998 162.963 469.998 162.753 469.849 162.604C469.834 162.574 469.819 162.544 469.819 162.514C469.819 162.484 469.834 162.409 469.834 162.38C469.834 162.275 469.774 162.185 469.744 162.095C469.729 162.05 469.714 162.006 469.699 161.976C469.759 161.856 469.789 161.751 469.819 161.602C469.893 161.318 469.938 160.914 469.804 160.48C469.789 160.39 469.714 160.316 469.684 160.256C469.684 160.241 469.669 160.241 469.669 160.226C469.938 160.181 470.102 159.942 470.267 159.732C470.341 159.613 470.491 159.553 470.551 159.418C470.64 159.239 470.76 158.999 470.655 158.805C470.625 158.715 470.565 158.611 470.491 158.521ZM469.759 160.645C469.878 161.019 469.893 161.362 469.834 161.632C469.819 161.692 469.819 161.781 469.699 161.886C469.639 161.796 469.565 161.706 469.46 161.647C469.386 161.602 469.281 161.572 469.236 161.497C469.221 161.422 469.236 161.333 469.221 161.258C469.206 161.138 469.161 160.884 469.176 160.854C469.266 160.66 469.386 160.45 469.565 160.316C469.639 160.435 469.699 160.555 469.759 160.645ZM470.446 159.433C470.252 159.628 470.132 159.927 469.849 160.016C469.774 160.031 469.699 160.061 469.639 160.106C469.595 160.046 469.55 159.987 469.49 159.942C469.341 159.852 469.311 159.687 469.206 159.568C469.102 159.463 468.982 159.373 468.848 159.314C468.758 159.269 468.654 159.254 468.579 159.179C468.519 159.119 468.489 159.014 468.474 158.969C468.489 158.94 468.504 158.925 468.519 158.895C468.863 158.431 469.52 158.446 470.028 158.655C470.162 158.7 470.326 158.685 470.431 158.79C470.506 158.895 470.64 159.044 470.67 159.164C470.64 159.239 470.551 159.343 470.446 159.433Z" fill="#AA2829"/>
</svg>
