<svg width="581" height="341" viewBox="0 0 581 341" fill="none" xmlns="http://www.w3.org/2000/svg">
<path d="M516.209 295.759C503.812 296.252 491.834 275.598 490.773 248.871C489.713 222.13 515.821 182.167 526.724 207.772C532.683 221.756 519.315 237.504 522.138 253.313C528.172 286.979 528.605 295.265 516.209 295.759Z" fill="#E69264"/>
<path opacity="0.3608" d="M509.592 290.359C509.876 288.788 511.086 286.515 511.818 284.601C512.236 283.539 512.475 281.998 511.429 281.535C510.623 281.176 509.697 281.879 509.413 282.716C509.129 283.554 509.293 284.451 509.308 285.334C509.323 286.216 509.159 287.188 508.457 287.712C507.845 288.145 506.993 288.115 506.321 287.771C505.649 287.427 505.141 286.829 504.723 286.216C503.722 284.735 503.17 282.567 504.424 281.31C505.067 280.652 506.023 280.443 506.904 280.204C507.785 279.964 508.726 279.62 509.204 278.828C509.682 278.035 509.293 276.749 508.382 276.689C507.307 277.482 506.396 278.484 505.306 279.246C504.215 280.009 502.856 280.548 501.557 280.248C500.257 279.949 499.167 278.573 499.54 277.302C499.794 276.465 500.571 275.881 501.407 275.597C502.244 275.313 503.125 275.268 503.991 275.133C507.785 274.535 513.625 270.033 512.534 269.226C511.728 268.613 508.203 271.05 505.813 272.307C503.424 273.563 500.451 274.356 498.077 273.084C497.255 272.651 496.538 271.963 496.255 271.08C495.956 270.198 496.15 269.136 496.852 268.538C497.868 267.67 499.391 268.029 500.72 268.179C502.05 268.328 503.797 267.895 503.931 266.564C502.363 265.95 500.616 266.384 498.928 266.459C497.255 266.534 495.254 265.995 494.701 264.41C494.223 263.049 495.104 261.508 496.344 260.776C497.584 260.028 499.077 259.893 500.511 259.773C502.856 259.579 505.186 259.37 507.531 259.175C508.651 259.085 510.085 258.667 510.115 257.545C510.13 256.812 509.428 256.229 508.711 256.109C507.994 255.99 507.262 256.199 506.56 256.408C503.917 257.171 501.228 257.769 498.51 258.188C497.031 258.412 495.314 258.502 494.283 257.41C493.148 256.199 493.551 254.18 494.477 252.804C496.105 250.366 498.973 248.975 501.87 248.497C504.768 248.018 507.725 248.332 510.638 248.661C510.682 248.018 510.205 247.42 509.607 247.136C509.025 246.851 508.352 246.821 507.71 246.807C504.902 246.747 502.094 246.986 499.346 247.494C498.271 247.689 497.181 247.928 496.105 247.734C495.03 247.524 493.984 246.747 493.865 245.67C493.73 244.533 494.686 243.486 495.762 243.112C496.852 242.738 498.032 242.858 499.167 242.978C500.302 243.097 501.497 243.187 502.572 242.768C503.08 242.559 503.603 242.035 503.349 241.557C503.215 241.318 502.946 241.198 502.677 241.138C500.227 240.525 497.33 242.32 495.284 240.839C494.313 240.136 493.895 238.745 494.328 237.623C494.761 236.502 495.986 235.739 497.181 235.859C498.36 235.978 499.331 236.831 500.451 237.235C501.572 237.638 503.215 237.19 503.244 235.993C503.259 235.156 502.423 234.542 501.602 234.393C500.78 234.243 499.944 234.408 499.107 234.363C497.897 234.288 496.673 233.675 496.15 232.583C495.627 231.491 496.075 229.951 496.598 229.248C497.121 228.545 497.793 227.842 498.48 227.767C499.167 227.693 499.824 228.051 500.437 228.351C503.2 229.667 506.336 230.145 509.353 229.712C509.966 229.622 510.608 229.487 511.056 229.069C511.504 228.65 511.683 227.857 511.25 227.408C510.951 227.094 510.488 226.915 510.07 227.005C507.8 227.498 505.769 227.304 503.633 227.094C502.408 226.975 499.809 226.526 499.122 225.509C497.688 223.385 500.003 220.349 500.661 220.08C501.318 219.811 502.079 219.96 502.781 220.11C503.782 220.334 504.783 220.558 505.784 220.783C506.232 220.887 506.695 220.977 507.143 220.888C507.591 220.798 508.009 220.439 508.054 219.99C508.099 219.317 507.352 218.898 506.71 218.719C505.5 218.39 504.23 218.3 502.991 218.48C502.662 218.524 502.289 218.584 502.035 218.36C501.796 218.136 501.796 217.762 501.855 217.433C502.169 215.787 503.543 214.397 505.171 214.082C506.411 213.843 507.68 214.157 508.92 214.397C510.16 214.621 511.519 214.755 512.624 214.157C513.027 213.933 513.401 213.619 513.565 213.185C513.729 212.751 513.625 212.198 513.251 211.929C512.788 211.585 512.131 211.779 511.564 211.914C510.653 212.123 509.712 212.138 508.801 211.959C508.263 211.854 507.665 211.615 507.456 211.106C507.202 210.493 507.606 209.82 508.009 209.296C509.219 207.696 510.563 206.171 512.221 205.019C513.879 203.882 515.85 203.135 517.867 203.239C519.868 203.344 521.869 204.346 522.9 206.081C523.273 206.694 523.497 207.532 523.079 208.115C522.691 208.668 521.914 208.758 521.242 208.773C516.149 208.863 516.552 209.162 516.358 209.476C516.119 209.835 518.389 210.717 519.509 210.777C520.689 210.837 521.869 210.553 523.049 210.687C524.229 210.822 525.484 211.555 525.573 212.766C526.201 213.619 526.021 214.89 525.364 215.728C524.707 216.565 523.662 217.014 522.631 217.193C521.586 217.388 520.525 217.343 519.465 217.373C517.359 217.433 515.283 217.792 513.266 218.42C512.953 218.509 512.639 218.629 512.4 218.853C512.176 219.078 512.057 219.467 512.236 219.736C512.4 219.99 512.759 220.065 513.057 220.08C514.85 220.214 516.627 219.766 518.419 219.526C520.197 219.302 522.138 219.332 523.647 220.319C525.155 221.306 525.947 223.535 524.886 224.985C524.125 226.047 522.661 226.376 521.362 226.212C520.062 226.047 518.852 225.494 517.613 225.09C516.985 224.881 516.298 224.731 515.656 224.911C515.014 225.09 514.461 225.733 514.596 226.376C514.76 227.154 515.671 227.453 516.463 227.558C517.628 227.707 518.837 227.737 519.958 228.096C521.078 228.455 522.153 229.248 522.452 230.4C522.706 231.372 522.347 232.404 521.75 233.211C520.45 234.961 518.15 235.724 515.97 235.724C513.789 235.724 511.668 235.051 509.577 234.453C508.89 234.258 508.158 234.064 507.471 234.273C506.784 234.483 506.247 235.275 506.545 235.918C506.844 236.532 507.665 236.651 508.338 236.666C510.384 236.741 512.43 236.801 514.476 236.876C515.492 236.906 516.537 236.95 517.508 237.279C518.479 237.608 519.375 238.281 519.748 239.224C520.211 240.42 519.689 241.856 518.703 242.679C517.717 243.501 516.373 243.785 515.088 243.696C513.804 243.606 512.579 243.172 511.384 242.694C510.697 242.424 509.98 242.14 509.249 242.275C508.532 242.409 507.875 243.172 508.143 243.86C508.382 244.473 509.159 244.638 509.816 244.728C510.862 244.862 511.907 244.997 512.938 245.131C514.103 245.281 518.165 245.715 518.479 248.541C518.613 249.708 517.881 251.009 516.776 251.204C514.222 251.278 511.653 251.353 509.099 251.428C506.635 251.503 503.872 251.697 502.214 253.522C501.855 253.911 501.572 254.554 501.915 254.958C502.229 255.317 502.796 255.227 503.244 255.107C506.276 254.329 509.368 253.791 512.475 253.507C513.968 253.357 515.566 253.297 516.896 254C518.076 254.629 518.882 255.795 519.36 257.036C519.823 258.278 519.987 259.624 520.152 260.94C520.241 261.643 520.286 262.451 519.808 262.959C519.3 263.498 518.464 263.468 517.717 263.408C514.207 263.139 510.667 263.109 507.143 263.333C506.739 263.363 506.321 263.393 505.978 263.587C505.634 263.782 505.38 264.215 505.5 264.589C505.679 265.128 506.396 265.218 506.963 265.188C509.308 265.068 511.638 264.769 513.968 264.963C516.298 265.173 518.688 265.965 520.256 267.7C522.153 269.794 522.527 272.815 522.81 275.627C522.87 276.225 522.915 276.898 522.527 277.362C521.929 278.08 520.794 277.826 519.913 277.496C518.434 276.958 516.97 276.42 515.492 275.866C514.954 275.672 514.387 275.462 513.804 275.537C513.236 275.612 512.669 276.076 512.684 276.659C512.714 277.511 513.774 277.826 514.611 277.96C516.283 278.229 517.926 278.648 519.524 279.216C521.137 279.785 522.81 280.637 523.512 282.193C524.334 284.017 523.542 286.126 522.751 287.966C522.362 288.863 521.645 289.94 520.689 289.701C519.898 289.491 519.644 288.534 519.42 287.756C518.897 285.962 517.762 284.346 516.253 283.255C515.955 283.03 515.566 282.821 515.208 282.97C514.864 283.105 514.73 283.554 514.805 283.913C514.879 284.272 515.118 284.586 515.327 284.885C516.298 286.201 517.12 287.607 517.822 289.073C518.106 289.686 518.374 290.329 518.404 291.002C518.434 291.675 518.18 292.408 517.613 292.782C517.105 293.111 516.463 293.111 515.865 293.066C513.55 292.767 509.443 291.166 509.592 290.359Z" fill="#FDDFD3"/>
<path d="M514.864 289.552C515.31 289.552 515.671 289.19 515.671 288.744C515.671 288.298 515.31 287.937 514.864 287.937C514.419 287.937 514.058 288.298 514.058 288.744C514.058 289.19 514.419 289.552 514.864 289.552Z" fill="#AA2829"/>
<path d="M517.03 271.275C517.476 271.275 517.837 270.914 517.837 270.468C517.837 270.022 517.476 269.66 517.03 269.66C516.585 269.66 516.224 270.022 516.224 270.468C516.224 270.914 516.585 271.275 517.03 271.275Z" fill="#AA2829"/>
<path d="M506.545 269.69C506.991 269.69 507.352 269.329 507.352 268.883C507.352 268.437 506.991 268.075 506.545 268.075C506.1 268.075 505.739 268.437 505.739 268.883C505.739 269.329 506.1 269.69 506.545 269.69Z" fill="#AA2829"/>
<path d="M499.929 263.559C500.374 263.559 500.735 263.197 500.735 262.751C500.735 262.305 500.374 261.943 499.929 261.943C499.483 261.943 499.122 262.305 499.122 262.751C499.122 263.197 499.483 263.559 499.929 263.559Z" fill="#AA2829"/>
<path d="M497.584 255.631C498.029 255.631 498.39 255.269 498.39 254.823C498.39 254.377 498.029 254.016 497.584 254.016C497.138 254.016 496.777 254.377 496.777 254.823C496.777 255.269 497.138 255.631 497.584 255.631Z" fill="#AA2829"/>
<path d="M514.656 249.007C515.101 249.007 515.462 248.645 515.462 248.199C515.462 247.753 515.101 247.392 514.656 247.392C514.21 247.392 513.849 247.753 513.849 248.199C513.849 248.645 514.21 249.007 514.656 249.007Z" fill="#AA2829"/>
<path d="M506.202 241.512C506.647 241.512 507.009 241.15 507.009 240.704C507.009 240.258 506.647 239.896 506.202 239.896C505.757 239.896 505.396 240.258 505.396 240.704C505.396 241.15 505.757 241.512 506.202 241.512Z" fill="#AA2829"/>
<path d="M499.869 231.028C500.314 231.028 500.675 230.667 500.675 230.221C500.675 229.775 500.314 229.413 499.869 229.413C499.423 229.413 499.062 229.775 499.062 230.221C499.062 230.667 499.423 231.028 499.869 231.028Z" fill="#AA2829"/>
<path d="M503.498 224.897C503.944 224.897 504.305 224.535 504.305 224.089C504.305 223.643 503.944 223.281 503.498 223.281C503.053 223.281 502.692 223.643 502.692 224.089C502.692 224.535 503.053 224.897 503.498 224.897Z" fill="#AA2829"/>
<path d="M522.601 222.623C523.047 222.623 523.408 222.261 523.408 221.815C523.408 221.369 523.047 221.008 522.601 221.008C522.156 221.008 521.795 221.369 521.795 221.815C521.795 222.261 522.156 222.623 522.601 222.623Z" fill="#AA2829"/>
<path d="M512.042 236.847C511.967 236.877 511.907 236.952 511.862 237.012C511.489 237.356 511.056 237.849 511.25 238.403C511.31 238.687 511.594 238.971 511.892 238.881C511.967 238.866 512.027 238.806 512.086 238.747C512.191 238.672 512.296 238.612 512.415 238.567C512.549 238.507 512.684 238.552 512.833 238.522C512.893 238.492 512.938 238.477 512.998 238.462C513.012 238.477 513.012 238.492 513.027 238.522C513.117 238.747 513.251 238.956 513.431 239.091C513.58 239.21 513.759 239.225 513.924 239.315C513.953 239.33 514.028 239.39 514.088 239.39C514.222 239.345 514.312 239.225 514.461 239.21C514.476 239.21 514.491 239.21 514.506 239.195C514.626 239.405 514.865 239.435 514.82 239.674C514.775 239.808 514.655 239.928 514.7 240.078C514.835 240.332 515.178 240.467 515.372 240.586C515.357 240.601 515.328 240.616 515.328 240.661C515.313 240.751 515.357 240.84 515.417 240.9C515.537 241.035 515.656 241.184 515.805 241.259C516.074 241.334 516.358 241.409 516.627 241.528C516.687 241.678 516.717 241.843 516.657 241.992C516.373 242.321 515.91 241.992 515.626 241.857C515.477 241.753 515.208 241.454 515.029 241.304C514.954 241.214 514.894 241.125 514.805 241.02C514.596 240.751 514.387 240.482 514.133 240.197C513.968 239.988 513.655 239.779 513.475 239.629C513.326 239.494 513.162 239.345 512.953 239.3C512.759 239.3 512.564 239.285 512.385 239.36C512.072 239.494 512.161 239.913 512.251 240.182C512.549 240.975 513.341 241.499 514.013 242.082C513.386 241.484 512.714 241.14 512.385 240.302C512.296 240.033 512.221 239.614 512.549 239.494C512.729 239.45 512.923 239.435 513.117 239.464C513.281 239.509 513.401 239.629 513.535 239.734C513.968 240.063 514.043 240.167 514.461 240.676C514.655 240.975 515.014 241.394 515.193 241.528C515.432 241.783 515.656 241.992 515.97 242.142C516.164 242.276 516.702 242.471 516.821 242.097C516.836 241.932 516.821 241.753 516.717 241.618C516.448 241.319 516.029 241.259 515.656 241.155C515.581 241.125 515.596 241.11 515.537 241.05C515.477 241.005 515.402 240.855 515.507 240.751C515.372 240.496 515.074 240.422 514.835 240.272C514.805 240.227 514.805 240.182 514.82 240.123C514.85 240.018 514.939 239.928 514.954 239.808C514.954 239.689 514.85 239.599 514.775 239.509C514.73 239.464 514.67 239.405 514.626 239.375C514.611 239.345 514.596 239.315 514.596 239.285C514.596 239.255 514.596 239.24 514.596 239.21C514.73 239.21 514.865 239.24 514.999 239.27C515.029 239.285 515.029 239.27 515.044 239.285C515.089 239.33 515.148 239.375 515.238 239.39C515.492 239.33 515.641 239.435 515.88 239.45C515.955 239.45 516.03 239.464 516.089 239.464C516.104 239.569 516.209 239.644 516.283 239.704C516.463 239.794 516.657 239.808 516.791 239.958C516.896 240.123 517.03 240.257 517.18 240.377C517.448 240.556 517.672 240.691 517.896 240.84C517.896 240.84 517.911 240.84 517.911 240.855C517.956 240.93 517.986 241.02 518.001 241.11C518.031 241.469 517.911 241.917 517.672 242.186C517.538 242.246 517.269 242.172 517.105 242.142C517.015 241.902 517.15 241.633 517.045 241.409C517.03 241.184 517.06 240.945 516.926 240.751C516.926 240.751 516.911 240.721 516.911 240.736C516.926 240.766 516.941 240.796 516.956 240.826C517.045 241.065 516.941 241.244 517 241.528C517 241.708 516.911 241.872 516.97 242.052C517.03 242.157 517.12 242.261 517.239 242.291C517.419 242.321 517.613 242.366 517.792 242.366C517.956 242.276 518.001 242.082 518.076 241.917C518.15 241.678 518.21 241.424 518.15 241.184C518.106 240.99 517.971 240.826 517.792 240.736C517.583 240.586 517.314 240.422 517.09 240.272C517.06 240.257 516.97 240.138 516.911 240.048C516.821 239.943 516.717 239.868 516.612 239.794C516.507 239.704 516.373 239.674 516.239 239.629C516.239 239.599 516.239 239.569 516.239 239.554C516.224 239.509 516.179 239.464 516.149 239.435C516.015 239.315 515.82 239.345 515.656 239.33C515.477 239.3 515.298 239.21 515.103 239.27C515.074 239.27 515.044 239.27 515.014 239.255C514.984 239.24 514.939 239.195 514.909 239.18C514.82 239.135 514.73 239.15 514.626 239.121C514.581 239.106 514.551 239.106 514.506 239.106C514.431 239.016 514.357 238.926 514.252 238.836C514.043 238.642 513.744 238.433 513.311 238.343C513.222 238.313 513.132 238.343 513.072 238.343C513.057 238.343 513.057 238.343 513.042 238.343C513.117 238.103 512.998 237.849 512.908 237.625C512.848 237.505 512.863 237.356 512.774 237.251C512.669 237.101 512.52 236.892 512.311 236.892C512.281 236.832 512.161 236.832 512.042 236.847ZM513.475 238.403C513.834 238.462 514.133 238.612 514.327 238.791C514.372 238.836 514.446 238.866 514.476 239.016C514.372 239.031 514.267 239.061 514.177 239.106C514.103 239.15 514.043 239.225 513.953 239.225C513.879 239.195 513.819 239.15 513.744 239.121C513.64 239.076 513.416 239.001 513.386 238.971C513.281 238.806 513.147 238.612 513.117 238.403C513.251 238.418 513.371 238.418 513.475 238.403ZM512.774 237.296C512.848 237.535 513.042 237.774 512.983 238.044C512.953 238.118 512.953 238.193 512.953 238.268C512.878 238.268 512.803 238.283 512.759 238.313C512.624 238.403 512.475 238.343 512.311 238.388C512.176 238.418 512.057 238.492 511.937 238.567C511.862 238.627 511.803 238.702 511.698 238.717C511.623 238.747 511.519 238.717 511.474 238.702C511.459 238.672 511.444 238.657 511.444 238.627C511.22 238.133 511.534 237.595 511.922 237.266C512.027 237.176 512.086 237.042 512.221 236.997C512.34 236.982 512.535 236.937 512.639 236.967C512.699 237.057 512.759 237.176 512.774 237.296Z" fill="#AA2829"/>
</svg>
