<svg width="581" height="341" viewBox="0 0 581 341" fill="none" xmlns="http://www.w3.org/2000/svg">
<path d="M415.139 275.672C418.41 288.071 400.308 304.762 373.647 311.806C346.987 318.851 300.955 301.442 324.255 284.721C336.995 275.583 355.814 285.543 371.093 279.172C403.638 265.562 411.868 263.274 415.139 275.672Z" fill="#E69264"/>
<path opacity="0.3608" d="M411.181 283.57C409.538 283.644 406.984 282.927 404.893 282.612C403.728 282.433 402.13 282.538 401.891 283.689C401.712 284.572 402.623 285.364 403.534 285.454C404.43 285.544 405.311 285.185 406.178 284.976C407.044 284.766 408.089 284.706 408.761 285.305C409.344 285.813 409.493 286.696 409.299 287.443C409.105 288.191 408.627 288.834 408.089 289.403C406.835 290.734 404.774 291.781 403.22 290.808C402.414 290.3 401.996 289.388 401.547 288.55C401.099 287.713 400.547 286.845 399.651 286.546C398.754 286.247 397.53 286.92 397.679 287.862C398.725 288.759 399.919 289.462 400.935 290.405C401.951 291.347 402.787 292.588 402.787 293.964C402.787 295.34 401.637 296.746 400.263 296.656C399.367 296.596 398.605 295.923 398.127 295.161C397.649 294.383 397.41 293.501 397.082 292.663C395.633 288.969 389.808 284.078 389.226 285.364C388.792 286.322 392.033 289.328 393.826 291.452C395.633 293.575 397.082 296.402 396.335 299.094C396.081 300.021 395.543 300.889 394.722 301.382C393.9 301.876 392.78 301.921 392.018 301.338C390.913 300.5 390.928 298.885 390.794 297.524C390.659 296.163 389.823 294.488 388.449 294.652C388.18 296.372 389.001 298.032 389.45 299.722C389.898 301.412 389.808 303.536 388.344 304.448C387.075 305.226 385.342 304.688 384.312 303.596C383.281 302.519 382.818 301.038 382.37 299.618C381.638 297.299 380.921 294.981 380.189 292.678C379.846 291.571 379.099 290.225 377.979 290.45C377.232 290.599 376.799 291.437 376.844 292.184C376.889 292.932 377.262 293.635 377.62 294.293C378.98 296.791 380.174 299.363 381.205 302.011C381.758 303.446 382.236 305.166 381.369 306.438C380.413 307.858 378.278 307.888 376.694 307.275C373.872 306.183 371.84 303.581 370.705 300.769C369.57 297.958 369.241 294.891 368.913 291.885C368.256 291.99 367.763 292.603 367.613 293.261C367.464 293.919 367.584 294.592 367.703 295.25C368.271 298.092 369.137 300.874 370.272 303.536C370.705 304.568 371.198 305.615 371.228 306.752C371.258 307.873 370.705 309.1 369.645 309.474C368.525 309.863 367.27 309.13 366.643 308.128C366.015 307.126 365.881 305.899 365.747 304.718C365.612 303.536 365.433 302.31 364.776 301.338C364.462 300.874 363.805 300.47 363.387 300.829C363.178 301.009 363.118 301.323 363.118 301.607C363.043 304.209 365.508 306.737 364.477 309.13C363.984 310.266 362.685 310.999 361.46 310.82C360.235 310.64 359.205 309.578 359.055 308.337C358.906 307.111 359.563 305.944 359.698 304.733C359.847 303.506 359.025 301.951 357.831 302.19C356.994 302.355 356.546 303.342 356.576 304.194C356.606 305.047 356.964 305.869 357.099 306.707C357.293 307.933 356.949 309.324 355.964 310.087C354.978 310.85 353.335 310.745 352.513 310.386C351.692 310.027 350.826 309.504 350.602 308.831C350.378 308.158 350.587 307.425 350.751 306.722C351.453 303.656 351.229 300.365 350.124 297.419C349.9 296.821 349.616 296.208 349.093 295.849C348.57 295.49 347.749 295.49 347.391 296.013C347.137 296.387 347.062 296.896 347.241 297.299C348.242 299.483 348.496 301.562 348.78 303.775C348.944 305.047 349.063 307.754 348.182 308.681C346.375 310.595 342.805 308.95 342.372 308.337C341.954 307.724 341.939 306.931 341.939 306.183C341.939 305.121 341.939 304.06 341.939 302.998C341.939 302.519 341.939 302.041 341.745 301.607C341.551 301.173 341.103 300.829 340.64 300.889C339.953 300.994 339.699 301.831 339.669 302.534C339.609 303.82 339.803 305.136 340.251 306.348C340.371 306.662 340.505 307.036 340.341 307.335C340.177 307.634 339.788 307.709 339.445 307.724C337.727 307.784 336.024 306.707 335.322 305.121C334.8 303.925 334.845 302.579 334.8 301.263C334.755 299.962 334.576 298.571 333.724 297.584C333.411 297.225 333.007 296.926 332.529 296.851C332.052 296.776 331.529 297 331.335 297.434C331.096 297.987 331.424 298.601 331.693 299.139C332.111 300.006 332.335 300.964 332.365 301.921C332.38 302.489 332.276 303.147 331.813 303.476C331.26 303.865 330.483 303.611 329.871 303.327C327.989 302.474 326.152 301.442 324.628 300.036C323.105 298.63 321.925 296.791 321.582 294.742C321.238 292.693 321.806 290.45 323.314 289.029C323.852 288.52 324.643 288.101 325.315 288.4C325.958 288.67 326.227 289.432 326.391 290.106C327.616 295.221 327.825 294.742 328.183 294.877C328.601 295.026 328.975 292.558 328.781 291.407C328.586 290.195 328.019 289.074 327.899 287.862C327.765 286.651 328.228 285.215 329.438 284.841C330.17 284.018 331.469 283.914 332.455 284.392C333.441 284.871 334.128 285.813 334.546 286.83C334.964 287.832 335.173 288.924 335.442 289.986C335.98 292.095 336.801 294.114 337.876 295.998C338.041 296.282 338.22 296.582 338.504 296.761C338.788 296.94 339.191 296.97 339.43 296.731C339.654 296.507 339.639 296.133 339.594 295.819C339.325 293.979 338.474 292.289 337.847 290.539C337.219 288.789 336.816 286.83 337.473 285.095C338.13 283.36 340.191 282.059 341.894 282.807C343.134 283.345 343.791 284.751 343.91 286.082C344.03 287.413 343.746 288.774 343.627 290.106C343.567 290.793 343.552 291.511 343.881 292.125C344.209 292.723 344.971 293.142 345.598 292.872C346.345 292.543 346.45 291.541 346.375 290.734C346.27 289.522 346.016 288.296 346.136 287.084C346.255 285.873 346.808 284.602 347.898 284.048C348.809 283.585 349.945 283.704 350.885 284.123C352.947 285.035 354.231 287.189 354.709 289.388C355.187 291.586 354.993 293.874 354.858 296.118C354.814 296.851 354.784 297.643 355.142 298.272C355.501 298.9 356.427 299.289 357.009 298.84C357.562 298.406 357.487 297.554 357.368 296.851C356.979 294.772 356.591 292.693 356.203 290.614C356.008 289.582 355.814 288.52 355.934 287.473C356.053 286.426 356.516 285.364 357.397 284.781C358.503 284.048 360.056 284.258 361.116 285.065C362.162 285.873 362.759 287.174 362.939 288.49C363.133 289.806 362.968 291.137 362.759 292.454C362.64 293.201 362.52 294.009 362.819 294.697C363.118 295.4 364.029 295.879 364.656 295.445C365.224 295.056 365.209 294.248 365.149 293.56C365.045 292.484 364.955 291.392 364.85 290.315C364.746 289.118 364.268 284.916 367.031 283.959C368.166 283.57 369.645 284.003 370.093 285.08C370.735 287.653 371.377 290.21 372.034 292.783C372.662 295.265 373.468 298.002 375.679 299.274C376.157 299.543 376.859 299.692 377.187 299.259C377.486 298.87 377.262 298.316 377.038 297.883C375.589 294.996 374.35 292.005 373.364 288.924C372.886 287.443 372.468 285.843 372.871 284.347C373.229 283.016 374.23 281.939 375.38 281.177C376.53 280.429 377.844 279.965 379.144 279.502C379.831 279.262 380.623 279.023 381.25 279.397C381.907 279.786 382.071 280.638 382.176 281.401C382.684 285.005 383.46 288.58 384.461 292.08C384.58 292.484 384.7 292.887 384.984 293.186C385.268 293.486 385.745 293.65 386.104 293.441C386.612 293.142 386.522 292.394 386.373 291.84C385.731 289.507 384.894 287.219 384.58 284.811C384.267 282.418 384.536 279.831 385.925 277.856C387.612 275.478 390.555 274.431 393.333 273.519C393.915 273.325 394.587 273.13 395.14 273.414C395.991 273.848 395.991 275.06 395.857 276.017C395.648 277.617 395.424 279.232 395.215 280.833C395.14 281.431 395.065 282.044 395.26 282.598C395.454 283.151 396.051 283.63 396.634 283.48C397.485 283.271 397.575 282.119 397.515 281.237C397.41 279.487 397.455 277.737 397.679 276.002C397.888 274.252 398.366 272.368 399.77 271.321C401.428 270.079 403.728 270.408 405.759 270.797C406.745 270.992 407.985 271.47 407.955 272.487C407.925 273.325 407.014 273.803 406.282 274.207C404.594 275.134 403.22 276.645 402.459 278.41C402.309 278.769 402.175 279.202 402.399 279.532C402.623 279.846 403.086 279.89 403.429 279.726C403.773 279.576 404.042 279.262 404.281 278.978C405.386 277.707 406.611 276.555 407.94 275.538C408.493 275.104 409.075 274.701 409.762 274.521C410.434 274.342 411.226 274.431 411.719 274.925C412.167 275.359 412.316 276.002 412.391 276.63C412.719 279.023 412.032 283.525 411.181 283.57Z" fill="#FDDFD3"/>
<path d="M408.388 279.426C408.85 279.426 409.224 279.051 409.224 278.589C409.224 278.126 408.85 277.751 408.388 277.751C407.926 277.751 407.552 278.126 407.552 278.589C407.552 279.051 407.926 279.426 408.388 279.426Z" fill="#AA2829"/>
<path d="M389.509 281.326C389.971 281.326 390.346 280.951 390.346 280.488C390.346 280.025 389.971 279.65 389.509 279.65C389.048 279.65 388.673 280.025 388.673 280.488C388.673 280.951 389.048 281.326 389.509 281.326Z" fill="#AA2829"/>
<path d="M390.256 292.259C390.718 292.259 391.092 291.884 391.092 291.422C391.092 290.959 390.718 290.584 390.256 290.584C389.794 290.584 389.419 290.959 389.419 291.422C389.419 291.884 389.794 292.259 390.256 292.259Z" fill="#AA2829"/>
<path d="M385.566 300.304C386.028 300.304 386.402 299.929 386.402 299.466C386.402 299.004 386.028 298.629 385.566 298.629C385.104 298.629 384.729 299.004 384.729 299.466C384.729 299.929 385.104 300.304 385.566 300.304Z" fill="#AA2829"/>
<path d="M378.113 304.449C378.575 304.449 378.95 304.074 378.95 303.611C378.95 303.148 378.575 302.773 378.113 302.773C377.652 302.773 377.277 303.148 377.277 303.611C377.277 304.074 377.652 304.449 378.113 304.449Z" fill="#AA2829"/>
<path d="M367.629 288.713C368.091 288.713 368.465 288.338 368.465 287.876C368.465 287.413 368.091 287.038 367.629 287.038C367.167 287.038 366.792 287.413 366.792 287.876C366.792 288.338 367.167 288.713 367.629 288.713Z" fill="#AA2829"/>
<path d="M361.998 298.914C362.46 298.914 362.834 298.539 362.834 298.077C362.834 297.614 362.46 297.239 361.998 297.239C361.536 297.239 361.161 297.614 361.161 298.077C361.161 298.539 361.536 298.914 361.998 298.914Z" fill="#AA2829"/>
<path d="M352.857 307.649C353.319 307.649 353.693 307.274 353.693 306.811C353.693 306.349 353.319 305.974 352.857 305.974C352.395 305.974 352.02 306.349 352.02 306.811C352.02 307.274 352.395 307.649 352.857 307.649Z" fill="#AA2829"/>
<path d="M345.867 305.36C346.329 305.36 346.703 304.985 346.703 304.522C346.703 304.06 346.329 303.685 345.867 303.685C345.405 303.685 345.03 304.06 345.03 304.522C345.03 304.985 345.405 305.36 345.867 305.36Z" fill="#AA2829"/>
<path d="M339.325 286.59C339.787 286.59 340.161 286.215 340.161 285.753C340.161 285.29 339.787 284.915 339.325 284.915C338.863 284.915 338.489 285.29 338.489 285.753C338.489 286.215 338.863 286.59 339.325 286.59Z" fill="#AA2829"/>
<path d="M356.8 293.036C356.845 293.111 356.919 293.141 356.994 293.186C357.427 293.485 358.01 293.814 358.532 293.5C358.801 293.365 359.025 293.036 358.876 292.737C358.846 292.662 358.771 292.618 358.697 292.573C358.592 292.483 358.503 292.393 358.443 292.274C358.353 292.154 358.368 292.004 358.293 291.87C358.249 291.825 358.219 291.765 358.189 291.72C358.204 291.705 358.219 291.705 358.234 291.69C358.428 291.541 358.607 291.376 358.712 291.152C358.786 290.987 358.771 290.778 358.831 290.598C358.831 290.569 358.876 290.479 358.861 290.404C358.786 290.284 358.652 290.21 358.592 290.075C358.592 290.06 358.577 290.045 358.577 290.045C358.756 289.881 358.742 289.626 358.995 289.626C359.13 289.641 359.279 289.746 359.429 289.656C359.653 289.477 359.712 289.088 359.787 288.864C359.817 288.879 359.832 288.893 359.877 288.879C359.981 288.879 360.041 288.804 360.101 288.729C360.22 288.579 360.325 288.43 360.384 288.25C360.399 287.951 360.414 287.652 360.474 287.368C360.609 287.278 360.773 287.203 360.937 287.233C361.34 287.443 361.116 287.996 361.027 288.31C360.952 288.475 360.728 288.834 360.594 289.043C360.534 289.148 360.444 289.223 360.355 289.327C360.116 289.596 359.907 289.866 359.668 290.195C359.503 290.404 359.354 290.763 359.234 290.972C359.145 291.167 359.025 291.361 359.025 291.571C359.055 291.765 359.1 291.974 359.205 292.139C359.414 292.423 359.817 292.229 360.056 292.094C360.788 291.63 361.131 290.703 361.579 289.881C361.131 290.643 360.922 291.406 360.145 291.915C359.907 292.064 359.488 292.229 359.294 291.93C359.205 291.765 359.145 291.556 359.13 291.376C359.13 291.197 359.234 291.047 359.309 290.898C359.548 290.389 359.638 290.299 360.056 289.746C360.325 289.477 360.653 289.028 360.758 288.819C360.952 288.52 361.116 288.25 361.191 287.891C361.281 287.667 361.355 287.069 360.952 287.039C360.788 287.054 360.608 287.114 360.489 287.248C360.25 287.577 360.28 288.026 360.25 288.415C360.235 288.49 360.22 288.49 360.16 288.564C360.116 288.639 359.981 288.744 359.862 288.654C359.638 288.834 359.638 289.178 359.533 289.432C359.488 289.477 359.443 289.477 359.384 289.477C359.264 289.477 359.16 289.402 359.04 289.417C358.921 289.447 358.846 289.566 358.786 289.671C358.756 289.731 358.712 289.806 358.682 289.851C358.652 289.881 358.622 289.896 358.592 289.896C358.562 289.91 358.547 289.91 358.518 289.925C358.488 289.791 358.488 289.656 358.488 289.507C358.488 289.477 358.488 289.477 358.488 289.447C358.517 289.387 358.562 289.327 358.547 289.237C358.428 288.998 358.503 288.819 358.473 288.579C358.458 288.505 358.443 288.43 358.443 288.355C358.547 288.31 358.592 288.205 358.637 288.101C358.697 287.906 358.667 287.697 358.771 287.532C358.906 287.383 359.025 287.218 359.1 287.039C359.219 286.74 359.309 286.471 359.414 286.201V286.186C359.488 286.127 359.563 286.082 359.638 286.037C359.996 285.932 360.459 285.947 360.788 286.127C360.877 286.246 360.862 286.545 360.877 286.71C360.668 286.859 360.355 286.785 360.145 286.934C359.921 286.994 359.668 287.024 359.503 287.203C359.503 287.203 359.473 287.218 359.488 287.218C359.518 287.203 359.533 287.174 359.563 287.159C359.787 287.024 359.996 287.084 360.265 286.964C360.444 286.919 360.638 286.979 360.788 286.874C360.877 286.8 360.967 286.68 360.967 286.56C360.952 286.366 360.967 286.171 360.922 285.992C360.803 285.842 360.579 285.842 360.414 285.813C360.16 285.783 359.892 285.783 359.653 285.902C359.458 285.992 359.339 286.171 359.279 286.366C359.175 286.605 359.07 286.919 358.966 287.188C358.966 287.218 358.846 287.338 358.786 287.413C358.697 287.532 358.652 287.637 358.592 287.772C358.532 287.906 358.518 288.041 358.518 288.176C358.488 288.176 358.458 288.191 358.443 288.191C358.398 288.22 358.368 288.265 358.338 288.31C358.234 288.475 358.323 288.654 358.338 288.834C358.353 289.028 358.308 289.223 358.413 289.402C358.428 289.432 358.428 289.462 358.413 289.492C358.398 289.522 358.368 289.581 358.353 289.611C358.338 289.701 358.368 289.806 358.353 289.91C358.353 289.955 358.353 290 358.368 290.03C358.293 290.12 358.219 290.225 358.159 290.344C358.01 290.598 357.86 290.942 357.875 291.406C357.86 291.496 357.92 291.586 357.935 291.66C357.935 291.675 357.935 291.675 357.95 291.69C357.681 291.66 357.472 291.84 357.263 291.989C357.158 292.079 357.009 292.094 356.919 292.214C356.785 292.363 356.621 292.543 356.651 292.752C356.725 292.812 356.755 292.932 356.8 293.036ZM358.054 291.242C358.04 290.868 358.114 290.539 358.264 290.299C358.293 290.254 358.323 290.165 358.458 290.09C358.488 290.195 358.547 290.299 358.607 290.374C358.667 290.434 358.756 290.494 358.786 290.569C358.771 290.643 358.742 290.718 358.742 290.793C358.727 290.913 358.697 291.152 358.682 291.182C358.547 291.331 358.368 291.511 358.174 291.586C358.114 291.481 358.084 291.346 358.054 291.242ZM357.099 292.199C357.323 292.064 357.517 291.825 357.801 291.825C357.875 291.84 357.95 291.825 358.025 291.795C358.054 291.87 358.069 291.93 358.114 291.989C358.234 292.109 358.204 292.274 358.279 292.423C358.338 292.543 358.443 292.662 358.547 292.752C358.622 292.812 358.727 292.857 358.756 292.962C358.801 293.036 358.801 293.141 358.801 293.186C358.786 293.201 358.756 293.216 358.742 293.231C358.293 293.56 357.681 293.38 357.263 293.051C357.158 292.976 356.994 292.932 356.919 292.812C356.875 292.692 356.785 292.513 356.8 292.393C356.86 292.333 356.964 292.244 357.099 292.199Z" fill="#AA2829"/>
</svg>
