<svg width="360" height="378" viewBox="0 0 360 378" fill="none" xmlns="http://www.w3.org/2000/svg">
<path d="M159 206.5C150.616 205.907 137.5 207.5 137.5 207.5C137.5 207.5 138.685 204.791 138.5 203C138.373 201.772 137.5 199.5 137.5 199.5C137.5 199.5 153.945 198.851 164.5 198.5C180.307 197.974 204.5 198 204.5 198C204.5 198 206 199.5 206 202C206 205.5 204 206.5 204 206.5C204 206.5 181.455 205.075 180 207.5C177 212.5 175.905 217.975 174.5 225L174.5 225C172.5 235 171 251 171 251C171 251 168.679 248.426 166 248C163.654 247.627 160 248.5 160 248.5C160 248.5 160.599 242.341 161 240C162.372 232 163.597 229.057 166 219C166.358 217.5 168.694 210.316 167.5 208C167.242 207.5 162.334 206.736 159 206.5Z" fill="#48A5D5"/>
<path d="M183.5 201C191.22 199.58 203.5 199 203.5 199L178 200L176.5 202.5C176.5 202.5 180.75 201.506 183.5 201Z" fill="#69BDDC"/>
<mask id="mask0_4109_264650" style="mask-type:alpha" maskUnits="userSpaceOnUse" x="137" y="197" width="69" height="55">
<path d="M159 206.5C150.616 205.907 137.5 207.5 137.5 207.5C137.5 207.5 138.685 204.791 138.5 203C138.373 201.772 137.5 199.5 137.5 199.5C137.5 199.5 153.945 198.851 164.5 198.5C180.307 197.974 204.5 198 204.5 198C204.5 198 206 199.5 206 202C206 205.5 204 206.5 204 206.5C204 206.5 181.455 205.075 180 207.5C177 212.5 175.905 217.975 174.5 225L174.5 225C172.5 235 171 251.5 171 251.5C171 251.5 168.679 247.426 166 247C163.654 246.627 160 249 160 249C160 249 160.599 242.341 161 240C162.372 232 163.597 228.056 166 218C166.561 215.651 168.694 210.316 167.5 208C167.242 207.5 162.334 206.736 159 206.5Z" fill="#48A5D5"/>
</mask>
<g mask="url(#mask0_4109_264650)">
<path d="M141.5 203C141.686 201.157 143 198.5 143 198.5L180.5 197.5C180.5 197.5 174.758 198.742 171 202.5C166.5 207 167 210.5 167 210.5L142 207.5C142 207.5 141.323 204.759 141.5 203Z" fill="#3583BF"/>
<path d="M178.5 205.5C184.5 201.5 208.656 202.221 207.5 204C201 214 186.58 201.793 181.5 211C173.5 225.5 172 251 172 251C172 251 165.361 251.888 165.5 248C166 234 177 206.5 178.5 205.5Z" fill="#3583BF"/>
</g>
<path d="M137.503 199.6C137.717 199.634 137.939 199.776 138.158 200.019C138.378 200.263 138.587 200.599 138.771 201.005C139.138 201.816 139.395 202.882 139.43 203.969C139.465 205.051 139.21 205.953 138.827 206.561C138.44 207.176 137.94 207.471 137.497 207.4C137.069 207.331 136.722 206.921 136.469 206.201C136.217 205.488 136.076 204.518 136.041 203.423C136.005 202.333 136.146 201.329 136.416 200.62C136.551 200.266 136.716 199.99 136.903 199.814C137.089 199.638 137.291 199.566 137.503 199.6Z" fill="#3C98C3" stroke="#326B9C" stroke-width="0.2"/>
<g filter="url(#filter0_f_4109_264650)">
<path d="M138 200.5C138 200.5 139 201.5 139 203.5C139 207.426 137.5 207 137.5 207" stroke="#70C0DD" stroke-width="0.2"/>
</g>
<ellipse rx="3.09988" ry="1.13534" transform="matrix(-0.0356417 -0.999365 0.987714 0.156275 137.568 203.652)" fill="url(#paint0_linear_4109_264650)"/>
<path d="M171 251C169.5 253.5 167.538 253 164.5 253C161.462 253 159 250.5 160 248.5C161 247 162.962 246.5 166 246.5C169.038 246.5 171 249.5 171 251Z" fill="url(#paint1_linear_4109_264650)"/>
<path d="M170.85 250.985C170.73 251.57 170.47 251.97 170.109 252.248C169.741 252.532 169.257 252.698 168.678 252.789C168.1 252.881 167.44 252.897 166.728 252.889C166.436 252.886 166.133 252.879 165.824 252.871C165.389 252.861 164.943 252.85 164.5 252.85C163.021 252.85 161.684 252.241 160.842 251.394C160.001 250.549 159.675 249.495 160.13 248.575C161.085 247.152 162.969 246.65 166 246.65C167.467 246.65 168.679 247.374 169.529 248.29C170.378 249.204 170.843 250.286 170.85 250.985Z" stroke="#3671A0" stroke-width="0.3"/>
<defs>
<filter id="filter0_f_4109_264650" x="137.073" y="200.029" width="2.4272" height="7.48439" filterUnits="userSpaceOnUse" color-interpolation-filters="sRGB">
<feFlood flood-opacity="0" result="BackgroundImageFix"/>
<feBlend mode="normal" in="SourceGraphic" in2="BackgroundImageFix" result="shape"/>
<feGaussianBlur stdDeviation="0.2" result="effect1_foregroundBlur_4109_264650"/>
</filter>
<linearGradient id="paint0_linear_4109_264650" x1="3.09988" y1="0" x2="3.09988" y2="2.27068" gradientUnits="userSpaceOnUse">
<stop stop-color="#1C56A3"/>
<stop offset="1" stop-color="#103668"/>
</linearGradient>
<linearGradient id="paint1_linear_4109_264650" x1="165.387" y1="246.5" x2="165.387" y2="253.041" gradientUnits="userSpaceOnUse">
<stop stop-color="#133E77"/>
<stop offset="1" stop-color="#48A5D5"/>
<stop offset="1" stop-color="#1A5198"/>
</linearGradient>
</defs>
</svg>
