<svg width="360" height="378" viewBox="0 0 360 378" fill="none" xmlns="http://www.w3.org/2000/svg">
<path d="M190 224.5C166.52 232.273 127 232 127 232C127 232 127.822 234.422 127.5 236C127.219 237.38 126.5 239 126.5 239C126.5 239 134.339 241.098 140 240.5C164 237.964 169 237 169 237L127.5 245C127.5 245 128.877 247.325 129 249C129.109 250.483 128.5 253 128.5 253C128.5 253 148.609 249.768 158.5 247.5C173.924 243.964 178.862 240.961 195.5 237C206 234.5 222.5 234 222.5 234C222.5 234 220.887 231.339 221 229.5C221.103 227.823 222.5 225.5 222.5 225.5L204 228L220.5 221C220.5 221 217.786 219.485 217 218C216.178 216.447 216.5 214 216.5 214C216.5 214 200.54 221.011 190 224.5Z" fill="#952822"/>
<path d="M209 217.5L216 214.5C216 214.5 215.646 215.439 216 216.5C216.5 218 217.5 219.5 217.5 219.5C217.5 219.5 212.45 220.3 210.5 219C209.811 218.54 209 217.5 209 217.5Z" fill="#CC394C"/>
<path d="M215.5 215L209.5 217.5H210L215.5 215.5V215Z" fill="#D88395"/>
<path d="M136.5 232L128 232.5C128 232.5 128.318 233.949 128.318 234.73C128.318 235.73 128 237 128 237C128 237 133.706 237.453 135 235.5C135.458 234.809 136.5 232 136.5 232Z" fill="#CC394C"/>
<path d="M128.5 233L135.5 232.5L135.5 233L128.77 233.439L128.5 233Z" fill="#D88395"/>
<path d="M134.139 244.226L128.197 245.195C128.197 245.195 129 246 129.39 247.609C129.762 249.145 129.776 249.808 129.776 249.808C129.776 249.808 133.534 249.289 134.413 247.715C134.817 246.992 134.139 244.226 134.139 244.226Z" fill="#CC394C"/>
<path d="M128.695 245.156L134.139 244.226L134.178 244.724L129.233 245.615L128.695 245.156Z" fill="#D88395"/>
<path d="M213 227L221.5 226C221.5 226 221.189 226.742 221 227.5C220.5 229.5 221 232 221 232C221 232 217.096 230.548 215 229.5C214 229 213 227 213 227Z" fill="#CC394C"/>
<path d="M221 226.5L213.638 227.157L214 227.5L220.5 227L221 226.5Z" fill="#D88395"/>
<path d="M126.997 232.126C127.193 232.208 127.346 232.361 127.466 232.58C127.588 232.803 127.676 233.097 127.733 233.454C127.845 234.167 127.825 235.094 127.728 236.122C127.632 237.144 127.406 237.94 127.098 238.432C126.789 238.925 126.413 239.094 126.016 238.927C125.613 238.758 125.224 238.26 124.957 237.524C124.691 236.792 124.555 235.848 124.651 234.832C124.746 233.822 125.125 233.053 125.588 232.584C126.056 232.11 126.593 231.956 126.997 232.126Z" fill="#952822" stroke="#69231F" stroke-width="0.2"/>
<g filter="url(#filter0_f_4109_264598)">
<path d="M126.812 232.568C126.812 232.568 127.623 233.729 127.386 235.588C126.922 239.237 125.58 238.493 125.58 238.493" stroke="#AD5754" stroke-width="0.2"/>
</g>
<path d="M126.506 232.527C127.07 232.761 127.152 233.922 127.006 235.527C126.861 237.131 126.339 238.536 125.776 238.302C125.212 238.067 124.874 236.577 125.019 234.973C125.164 233.368 125.943 232.292 126.506 232.527Z" fill="url(#paint0_linear_4109_264598)"/>
<path d="M127.063 245.125C127.368 245.032 127.637 245.117 127.879 245.317C128.131 245.525 128.37 245.869 128.587 246.316C129.02 247.207 129.336 248.446 129.501 249.615C129.665 250.775 129.545 251.669 129.253 252.239C128.959 252.81 128.501 253.045 127.992 252.928C127.488 252.811 126.995 252.362 126.578 251.627C126.161 250.893 125.835 249.894 125.67 248.73C125.505 247.563 125.536 246.761 125.763 246.203C125.99 245.647 126.415 245.323 127.063 245.125Z" fill="#952822" stroke="#69231F" stroke-width="0.2"/>
<g filter="url(#filter1_f_4109_264598)">
<path d="M127.509 245.792C127.509 245.792 128.728 246.945 128.958 249.075C129.41 253.256 127.706 252.67 127.706 252.67" stroke="#AD5754" stroke-width="0.2"/>
</g>
<path d="M127.155 245.802C127.85 245.961 128.251 247.249 128.516 249.076C128.78 250.903 128.569 252.577 127.874 252.419C127.179 252.26 126.401 250.65 126.137 248.823C125.873 246.996 126.46 245.644 127.155 245.802Z" fill="url(#paint1_linear_4109_264598)"/>
<path d="M220.441 220.942C220.088 221.059 219.744 221.028 219.41 220.893C219.071 220.756 218.73 220.507 218.395 220.172C217.723 219.5 217.105 218.514 216.606 217.517C215.622 215.549 216.117 214.577 216.599 214.095C216.722 213.973 216.902 213.823 217.136 213.731C217.369 213.639 217.65 213.607 217.977 213.706C218.305 213.806 218.702 214.045 219.166 214.532C219.63 215.019 220.153 215.746 220.731 216.808C221.267 217.856 221.554 218.772 221.526 219.485C221.499 220.195 221.16 220.702 220.441 220.942Z" fill="#952822" stroke="#69231F" stroke-width="0.2"/>
<g filter="url(#filter2_f_4109_264598)">
<path d="M219.951 220.184C219.951 220.184 218.422 219.492 217.509 217.554C215.717 213.75 217.519 213.747 217.519 213.747" stroke="#AD5754" stroke-width="0.2"/>
</g>
<path d="M220.283 220.058C219.574 220.135 218.774 219.049 217.927 217.408C217.081 215.767 216.734 214.116 217.443 214.039C218.151 213.962 219.412 215.23 220.258 216.871C221.105 218.512 220.991 219.982 220.283 220.058Z" fill="url(#paint2_linear_4109_264598)"/>
<path d="M222.668 233.901C222.316 233.951 222.046 233.815 221.833 233.558C221.612 233.291 221.44 232.88 221.316 232.363C221.07 231.331 221.036 229.945 221.146 228.661C221.256 227.384 221.582 226.514 222.013 226.021C222.443 225.528 222.972 225.413 223.498 225.626C224.022 225.839 224.463 226.345 224.75 227.127C225.038 227.912 225.166 228.967 225.056 230.246C224.946 231.529 224.716 232.388 224.333 232.953C223.952 233.515 223.413 233.794 222.668 233.901Z" fill="#952822" stroke="#69231F" stroke-width="0.2"/>
<g filter="url(#filter3_f_4109_264598)">
<path d="M222.351 233.101C222.351 233.101 221.326 231.661 221.602 229.333C222.145 224.764 223.833 225.673 223.833 225.673" stroke="#AD5754" stroke-width="0.2"/>
</g>
<path d="M222.735 233.148C222.027 232.863 221.913 231.413 222.078 229.404C222.244 227.396 222.883 225.631 223.59 225.916C224.298 226.2 224.737 228.059 224.571 230.067C224.405 232.075 223.442 233.433 222.735 233.148Z" fill="url(#paint3_linear_4109_264598)"/>
<defs>
<filter id="filter0_f_4109_264598" x="125.132" y="232.111" width="2.79744" height="6.94471" filterUnits="userSpaceOnUse" color-interpolation-filters="sRGB">
<feFlood flood-opacity="0" result="BackgroundImageFix"/>
<feBlend mode="normal" in="SourceGraphic" in2="BackgroundImageFix" result="shape"/>
<feGaussianBlur stdDeviation="0.2" result="effect1_foregroundBlur_4109_264598"/>
</filter>
<filter id="filter1_f_4109_264598" x="127.041" y="245.32" width="2.49409" height="7.87837" filterUnits="userSpaceOnUse" color-interpolation-filters="sRGB">
<feFlood flood-opacity="0" result="BackgroundImageFix"/>
<feBlend mode="normal" in="SourceGraphic" in2="BackgroundImageFix" result="shape"/>
<feGaussianBlur stdDeviation="0.2" result="effect1_foregroundBlur_4109_264598"/>
</filter>
<filter id="filter2_f_4109_264598" x="216.215" y="213.247" width="4.17659" height="7.42781" filterUnits="userSpaceOnUse" color-interpolation-filters="sRGB">
<feFlood flood-opacity="0" result="BackgroundImageFix"/>
<feBlend mode="normal" in="SourceGraphic" in2="BackgroundImageFix" result="shape"/>
<feGaussianBlur stdDeviation="0.2" result="effect1_foregroundBlur_4109_264598"/>
</filter>
<filter id="filter3_f_4109_264598" x="221.055" y="225.099" width="3.2248" height="8.45936" filterUnits="userSpaceOnUse" color-interpolation-filters="sRGB">
<feFlood flood-opacity="0" result="BackgroundImageFix"/>
<feBlend mode="normal" in="SourceGraphic" in2="BackgroundImageFix" result="shape"/>
<feGaussianBlur stdDeviation="0.2" result="effect1_foregroundBlur_4109_264598"/>
</filter>
<linearGradient id="paint0_linear_4109_264598" x1="125.019" y1="234.973" x2="127.119" y2="235.163" gradientUnits="userSpaceOnUse">
<stop stop-color="#7B2924"/>
<stop offset="1" stop-color="#5A1C19"/>
</linearGradient>
<linearGradient id="paint1_linear_4109_264598" x1="126.137" y1="248.823" x2="128.52" y2="248.478" gradientUnits="userSpaceOnUse">
<stop stop-color="#7B2924"/>
<stop offset="1" stop-color="#5A1C19"/>
</linearGradient>
<linearGradient id="paint2_linear_4109_264598" x1="220.258" y1="216.871" x2="218.118" y2="217.975" gradientUnits="userSpaceOnUse">
<stop stop-color="#7B2924"/>
<stop offset="1" stop-color="#5A1C19"/>
</linearGradient>
<linearGradient id="paint3_linear_4109_264598" x1="224.571" y1="230.067" x2="221.942" y2="229.85" gradientUnits="userSpaceOnUse">
<stop stop-color="#7B2924"/>
<stop offset="1" stop-color="#5A1C19"/>
</linearGradient>
</defs>
</svg>
