<svg width="360" height="378" viewBox="0 0 360 378" fill="none" xmlns="http://www.w3.org/2000/svg">
<path d="M144 219.5C140 226 138.935 231.63 139 231.5C140 229.5 146.5 222 151 220.5C155.5 219 159.34 217.96 161.5 218.5C161.787 218.572 158.5 217 157 214.5C154.852 210.921 154.404 208.131 155 204C155.487 200.625 156.531 197.231 158.5 196C162.5 193.5 168.525 193.354 171 193C174.5 192.5 178.5 192.5 186 190C189.964 188.679 195 184 195 184C195 184 194.384 182.207 194 181.5C193.403 180.401 191.5 179.5 191.5 179.5C191.5 179.5 182.494 184.38 175.5 186C170.294 187.206 164.516 188.5 156.5 188.5C154.5 188.5 151.5 183 151.5 183C151.5 183 150.287 186.375 148.5 187.5C147.137 188.358 144.5 188.5 144.5 188.5C144.5 188.5 146.334 192.276 145.5 194.5C144 198.5 142.926 198.886 142.5 204C142 210 144.832 218.148 144 219.5Z" fill="#46A2D3"/>
<mask id="mask0_4109_264870" style="mask-type:alpha" maskUnits="userSpaceOnUse" x="138" y="179" width="57" height="53">
<path d="M144 219.5C140 226 138.935 231.63 139 231.5C140 229.5 146.5 222 151 220.5C155.5 219 159.34 217.96 161.5 218.5C161.787 218.572 158.5 217 157 214.5C154.852 210.921 154.404 208.131 155 204C155.487 200.625 156.531 197.231 158.5 196C162.5 193.5 168.525 193.354 171 193C174.5 192.5 178.5 192.5 186 190C189.964 188.679 195 184 195 184C195 184 194.384 182.207 194 181.5C193.403 180.401 191.5 179.5 191.5 179.5C191.5 179.5 182.494 184.38 175.5 186C170.294 187.206 164.516 188.5 156.5 188.5C154.5 188.5 151.5 183 151.5 183C151.5 183 150.287 186.375 148.5 187.5C147.137 188.358 144.5 188.5 144.5 188.5C144.5 188.5 146.334 192.276 145.5 194.5C144 198.5 142.926 198.886 142.5 204C142 210 144.832 218.148 144 219.5Z" fill="#CE394E"/>
</mask>
<g mask="url(#mask0_4109_264870)">
<path d="M144 223.5C142.363 225.546 141.325 226.901 141 229.5C140.879 230.469 141 232 141 232C141 232 146.676 223.168 152.5 221C157.079 219.296 165 220.5 165 220.5L158 213.5L159 198.5L177 194L188 190L196.5 184.5L196 179.5C196 179.5 194.565 180.845 193.5 181.5C187 185.5 184.092 186.378 177.5 188.5C169.475 191.083 160.5 190 156 193C154.044 194.304 152.973 195.359 152 197.5C149.5 203 153 214 151 217C148.834 220.249 146 221 144 223.5Z" fill="#3C8AC3"/>
</g>
<mask id="mask1_4109_264870" style="mask-type:alpha" maskUnits="userSpaceOnUse" x="138" y="179" width="57" height="53">
<path d="M144 219.5C140 226 138.935 231.63 139 231.5C140 229.5 146.5 222 151 220.5C155.5 219 159.34 217.96 161.5 218.5C161.787 218.572 158.5 217 157 214.5C154.852 210.921 154.404 208.131 155 204C155.487 200.625 156.531 197.231 158.5 196C162.5 193.5 168.525 193.354 171 193C174.5 192.5 178.5 192.5 186 190C189.964 188.679 195 184 195 184C195 184 194.384 182.207 194 181.5C193.403 180.401 191.5 179.5 191.5 179.5C191.5 179.5 182.494 184.38 175.5 186C170.294 187.206 164.516 188.5 156.5 188.5C154.5 188.5 151.5 183 151.5 183C151.5 183 150.287 186.375 148.5 187.5C147.137 188.358 144.5 188.5 144.5 188.5C144.5 188.5 146.334 192.276 145.5 194.5C144 198.5 142.926 198.886 142.5 204C142 210 144.832 218.148 144 219.5Z" fill="#46A2D3"/>
</mask>
<g mask="url(#mask1_4109_264870)">
<path d="M155.5 189.5C151.969 189.686 149.5 186.5 149.5 186.5C151 185 151.5 182.5 151.5 182.5L157 187.5L192.5 178.5C192.5 178.5 193.199 178.976 192.5 179.5C190.5 181 181.795 185.016 173 187C167.207 188.307 165 189 155.5 189.5Z" fill="#3C8AC3"/>
</g>
<path d="M145.5 215.5C145.5 218 144.5 220 144.5 220C144.5 220 144.789 218.635 144.5 215.5C144.177 211.995 142.449 207.477 143 204C143.951 198 146.09 197.811 146.5 194.5C146.716 192.756 146.5 190 146.5 190C146.5 190 147 191 147.5 193C148 195 147.5 196.5 146.5 198C145.356 199.715 144.756 200.5 144.5 203.5C144.215 206.83 145.5 210.89 145.5 215.5Z" fill="#70C0DD"/>
<path d="M151.482 183.162C151.618 183.348 151.665 183.596 151.62 183.897C151.575 184.198 151.439 184.544 151.22 184.915C150.78 185.656 150.017 186.477 149.03 187.196C148.044 187.916 147.03 188.394 146.19 188.586C145.77 188.682 145.398 188.706 145.098 188.657C144.798 188.608 144.576 188.488 144.441 188.302C144.305 188.116 144.258 187.868 144.303 187.567C144.348 187.266 144.484 186.92 144.703 186.549C145.143 185.808 145.906 184.987 146.893 184.268C147.879 183.548 148.893 183.071 149.733 182.878C150.153 182.782 150.525 182.758 150.825 182.807C151.125 182.856 151.347 182.976 151.482 183.162Z" fill="#3C98C3" stroke="#326B9C" stroke-width="0.2"/>
<g filter="url(#filter0_f_4109_264870)">
<path d="M151 183.5C151 183.5 150.892 184.412 150.5 185C148.5 188 145.5 188 145.5 188" stroke="#70C0DD" stroke-width="0.2"/>
</g>
<ellipse cx="147.872" cy="185.577" rx="3.46773" ry="1.19619" transform="rotate(-36.302 147.872 185.577)" fill="url(#paint0_linear_4109_264870)"/>
<defs>
<filter id="filter0_f_4109_264870" x="145.1" y="183.088" width="6.39937" height="5.41176" filterUnits="userSpaceOnUse" color-interpolation-filters="sRGB">
<feFlood flood-opacity="0" result="BackgroundImageFix"/>
<feBlend mode="normal" in="SourceGraphic" in2="BackgroundImageFix" result="shape"/>
<feGaussianBlur stdDeviation="0.2" result="effect1_foregroundBlur_4109_264870"/>
</filter>
<linearGradient id="paint0_linear_4109_264870" x1="147.872" y1="184.38" x2="147.872" y2="186.773" gradientUnits="userSpaceOnUse">
<stop stop-color="#1C56A3"/>
<stop offset="1" stop-color="#103668"/>
</linearGradient>
</defs>
</svg>
