<svg width="86" height="88" viewBox="0 0 86 88" fill="none" xmlns="http://www.w3.org/2000/svg">
<rect x="7" width="71.5434" height="87.7493" fill="url(#paint0_radial_2644_460677)"/>
<circle cx="42.5736" cy="69.7767" r="10.6722" fill="url(#paint1_radial_2644_460677)"/>
<path d="M42.0694 73.8145H41.0494L39.1594 70.7145L37.2394 73.8145H36.2894L38.6594 70.0945L36.4394 66.6745H37.4394L39.1894 69.4745L40.9494 66.6745H41.8994L39.6894 70.0745L42.0694 73.8145ZM48.7187 73.8145H47.8187V67.4645H45.5587C45.4987 67.9578 45.4321 68.4778 45.3587 69.0245C45.2854 69.5645 45.2121 70.0811 45.1387 70.5745C45.0654 71.0678 44.9921 71.4878 44.9187 71.8345C44.8321 72.2811 44.7254 72.6611 44.5987 72.9745C44.4721 73.2878 44.3021 73.5245 44.0887 73.6845C43.8821 73.8445 43.6087 73.9245 43.2687 73.9245C43.1554 73.9245 43.0387 73.9111 42.9187 73.8845C42.8054 73.8645 42.7054 73.8378 42.6187 73.8045V73.0545C42.6921 73.0878 42.7754 73.1178 42.8687 73.1445C42.9621 73.1645 43.0621 73.1745 43.1687 73.1745C43.3687 73.1745 43.5254 73.0945 43.6387 72.9345C43.7587 72.7678 43.8521 72.5645 43.9187 72.3245C43.9854 72.0778 44.0421 71.8345 44.0887 71.5945C44.1421 71.3411 44.2054 70.9711 44.2787 70.4845C44.3587 69.9911 44.4421 69.4178 44.5287 68.7645C44.6221 68.1111 44.7154 67.4145 44.8087 66.6745H48.7187V73.8145Z" fill="black"/>
<path d="M16.0196 39.6307C16.6382 39.6414 17.1262 39.7427 17.4836 39.9347C17.8409 40.1267 18.0942 40.3827 18.2436 40.7027C18.3929 41.0174 18.4676 41.3694 18.4676 41.7587C18.4676 42.0147 18.4276 42.2707 18.3476 42.5267C18.2729 42.7774 18.1422 43.0067 17.9556 43.2147C17.7689 43.4174 17.5182 43.5827 17.2036 43.7107C16.8889 43.8387 16.4942 43.9081 16.0196 43.9187V44.7988H15.3076V43.9187C14.8222 43.9081 14.4196 43.8387 14.0996 43.7107C13.7849 43.5774 13.5369 43.4067 13.3556 43.1987C13.1742 42.9854 13.0462 42.7534 12.9716 42.5027C12.8969 42.2521 12.8596 42.0041 12.8596 41.7587C12.8596 41.3801 12.9342 41.0334 13.0836 40.7188C13.2382 40.3987 13.4942 40.1401 13.8516 39.9427C14.2089 39.7454 14.6942 39.6414 15.3076 39.6307V38.9267H16.0196V39.6307ZM15.3076 40.2387C14.8809 40.2494 14.5396 40.3187 14.2836 40.4467C14.0329 40.5747 13.8542 40.7507 13.7476 40.9747C13.6409 41.1934 13.5876 41.4521 13.5876 41.7507C13.5876 42.2201 13.7236 42.5961 13.9956 42.8787C14.2729 43.1561 14.7102 43.3054 15.3076 43.3267L15.3076 40.2387ZM16.0196 43.3267C16.6382 43.3054 17.0782 43.1534 17.3396 42.8707C17.6062 42.5827 17.7396 42.2094 17.7396 41.7507C17.7396 41.4467 17.6862 41.1854 17.5796 40.9667C17.4729 40.7427 17.2942 40.5694 17.0436 40.4467C16.7929 40.3187 16.4516 40.2494 16.0196 40.2387V43.3267ZM23.6892 42.5667C23.6892 43.2761 23.5079 43.8254 23.1453 44.2147C22.7879 44.6041 22.3026 44.7988 21.6893 44.7988C21.3106 44.7988 20.9719 44.7134 20.6733 44.5427C20.3799 44.3667 20.1479 44.1134 19.9773 43.7827C19.8066 43.4467 19.7213 43.0414 19.7213 42.5667C19.7213 41.8574 19.8999 41.3107 20.2573 40.9267C20.6146 40.5427 21.0999 40.3507 21.7133 40.3507C22.1026 40.3507 22.4439 40.4387 22.7373 40.6147C23.0359 40.7854 23.2679 41.0361 23.4333 41.3667C23.6039 41.6921 23.6892 42.0921 23.6892 42.5667ZM20.4493 42.5667C20.4493 43.0734 20.5479 43.4761 20.7453 43.7747C20.9479 44.0681 21.2679 44.2147 21.7053 44.2147C22.1373 44.2147 22.4546 44.0681 22.6573 43.7747C22.8599 43.4761 22.9613 43.0734 22.9613 42.5667C22.9613 42.0601 22.8599 41.6627 22.6573 41.3747C22.4546 41.0867 22.1346 40.9427 21.6973 40.9427C21.2599 40.9427 20.9426 41.0867 20.7453 41.3747C20.5479 41.6627 20.4493 42.0601 20.4493 42.5667ZM28.0869 41.0227H26.6869V44.7187H25.9909V41.0227L24.6069 41.0227V40.4307H28.0869V41.0227ZM32.9814 42.5667C32.9814 43.2761 32.8001 43.8254 32.4374 44.2147C32.0801 44.6041 31.5948 44.7988 30.9814 44.7988C30.6028 44.7988 30.2641 44.7134 29.9654 44.5427C29.6721 44.3667 29.4401 44.1134 29.2694 43.7827C29.0988 43.4467 29.0134 43.0414 29.0134 42.5667C29.0134 41.8574 29.1921 41.3107 29.5494 40.9267C29.9068 40.5427 30.3921 40.3507 31.0054 40.3507C31.3948 40.3507 31.7361 40.4387 32.0294 40.6147C32.3281 40.7854 32.5601 41.0361 32.7254 41.3667C32.8961 41.6921 32.9814 42.0921 32.9814 42.5667ZM29.7414 42.5667C29.7414 43.0734 29.8401 43.4761 30.0374 43.7747C30.2401 44.0681 30.5601 44.2147 30.9974 44.2147C31.4294 44.2147 31.7468 44.0681 31.9494 43.7747C32.1521 43.4761 32.2534 43.0734 32.2534 42.5667C32.2534 42.0601 32.1521 41.6627 31.9494 41.3747C31.7468 41.0867 31.4268 40.9427 30.9894 40.9427C30.5521 40.9427 30.2348 41.0867 30.0374 41.3747C29.8401 41.6627 29.7414 42.0601 29.7414 42.5667ZM36.2172 44.7988C35.8385 44.7988 35.4999 44.7214 35.2012 44.5667C34.9079 44.4121 34.6759 44.1721 34.5052 43.8467C34.3399 43.5214 34.2572 43.1054 34.2572 42.5987C34.2572 42.0707 34.3452 41.6414 34.5212 41.3107C34.6972 40.9801 34.9345 40.7374 35.2332 40.5827C35.5372 40.4281 35.8812 40.3507 36.2652 40.3507C36.4839 40.3507 36.6945 40.3747 36.8972 40.4227C37.0999 40.4654 37.2652 40.5187 37.3932 40.5827L37.1772 41.1667C37.0492 41.1187 36.8999 41.0734 36.7292 41.0307C36.5585 40.9881 36.3985 40.9667 36.2492 40.9667C35.4065 40.9667 34.9852 41.5081 34.9852 42.5907C34.9852 43.1081 35.0865 43.5054 35.2892 43.7827C35.4972 44.0547 35.8039 44.1908 36.2092 44.1908C36.4439 44.1908 36.6492 44.1667 36.8252 44.1187C37.0065 44.0707 37.1719 44.0121 37.3212 43.9427V44.5667C37.1772 44.6414 37.0172 44.6974 36.8412 44.7348C36.6705 44.7774 36.4625 44.7988 36.2172 44.7988ZM39.4049 43.0467C39.4049 43.1107 39.4023 43.2067 39.3969 43.3347C39.3916 43.4627 39.3836 43.5907 39.3729 43.7187C39.3676 43.8467 39.3623 43.9481 39.3569 44.0227L41.6529 40.4307H42.5169V44.7187H41.8609V42.1907C41.8609 42.1054 41.8609 41.9934 41.8609 41.8547C41.8663 41.7161 41.8716 41.5801 41.8769 41.4467C41.8823 41.3081 41.8876 41.2041 41.8929 41.1347L39.6129 44.7187H38.7409V40.4307H39.4049V43.0467ZM46.0016 44.7988C45.6229 44.7988 45.2842 44.7214 44.9856 44.5667C44.6922 44.4121 44.4602 44.1721 44.2896 43.8467C44.1242 43.5214 44.0416 43.1054 44.0416 42.5987C44.0416 42.0707 44.1296 41.6414 44.3056 41.3107C44.4816 40.9801 44.7189 40.7374 45.0176 40.5827C45.3216 40.4281 45.6656 40.3507 46.0496 40.3507C46.2682 40.3507 46.4789 40.3747 46.6816 40.4227C46.8842 40.4654 47.0496 40.5187 47.1776 40.5827L46.9616 41.1667C46.8336 41.1187 46.6842 41.0734 46.5136 41.0307C46.3429 40.9881 46.1829 40.9667 46.0336 40.9667C45.1909 40.9667 44.7696 41.5081 44.7696 42.5907C44.7696 43.1081 44.8709 43.5054 45.0736 43.7827C45.2816 44.0547 45.5882 44.1908 45.9936 44.1908C46.2282 44.1908 46.4336 44.1667 46.6096 44.1187C46.7909 44.0707 46.9562 44.0121 47.1056 43.9427V44.5667C46.9616 44.6414 46.8016 44.6974 46.6256 44.7348C46.4549 44.7774 46.2469 44.7988 46.0016 44.7988ZM51.4853 41.0227H50.0853V44.7187H49.3893V41.0227H48.0053V40.4307H51.4853V41.0227ZM54.3079 40.3507C54.6759 40.3507 54.9905 40.4307 55.2519 40.5907C55.5185 40.7507 55.7212 40.9774 55.8599 41.2707C56.0039 41.5587 56.0759 41.8974 56.0759 42.2867V42.7107H53.1399C53.1505 43.1961 53.2732 43.5667 53.5079 43.8227C53.7479 44.0734 54.0812 44.1987 54.5079 44.1987C54.7799 44.1987 55.0199 44.1747 55.2279 44.1267C55.4412 44.0734 55.6599 43.9987 55.8839 43.9027V44.5187C55.6652 44.6147 55.4492 44.6841 55.2359 44.7268C55.0225 44.7748 54.7692 44.7988 54.4759 44.7988C54.0705 44.7988 53.7105 44.7161 53.3959 44.5507C53.0865 44.3854 52.8439 44.1401 52.6679 43.8147C52.4972 43.4841 52.4119 43.0814 52.4119 42.6068C52.4119 42.1374 52.4892 41.7347 52.6439 41.3987C52.8039 41.0627 53.0252 40.8041 53.3079 40.6227C53.5959 40.4414 53.9292 40.3507 54.3079 40.3507ZM54.2999 40.9267C53.9639 40.9267 53.6972 41.0361 53.4999 41.2547C53.3079 41.4681 53.1932 41.7667 53.1559 42.1507H55.3399C55.3345 41.7881 55.2492 41.4947 55.0839 41.2707C54.9185 41.0414 54.6572 40.9267 54.2999 40.9267ZM62.1675 40.4307V44.7187H61.5355V41.9827C61.5355 41.8707 61.5382 41.7534 61.5435 41.6307C61.5542 41.5081 61.5648 41.3881 61.5755 41.2707H61.5515L60.1515 44.7187H59.5595L58.1995 41.2707H58.1755C58.1915 41.5107 58.1995 41.7561 58.1995 42.0067V44.7187H57.5675V40.4307H58.5035L59.8555 43.8787L61.2315 40.4307H62.1675ZM65.5602 40.3587C66.0829 40.3587 66.4696 40.4734 66.7202 40.7027C66.9709 40.9321 67.0962 41.2974 67.0962 41.7987V44.7187H66.5842L66.4482 44.1107H66.4162C66.2296 44.3454 66.0322 44.5187 65.8242 44.6307C65.6216 44.7428 65.3389 44.7988 64.9762 44.7988C64.5869 44.7988 64.2642 44.6974 64.0082 44.4947C63.7522 44.2867 63.6242 43.9641 63.6242 43.5267C63.6242 43.1001 63.7922 42.7721 64.1282 42.5427C64.4642 42.3081 64.9816 42.1801 65.6802 42.1587L66.4082 42.1347V41.8787C66.4082 41.5214 66.3309 41.2734 66.1762 41.1347C66.0216 40.9961 65.8029 40.9267 65.5202 40.9267C65.2962 40.9267 65.0829 40.9614 64.8802 41.0307C64.6776 41.0947 64.4882 41.1694 64.3122 41.2547L64.0962 40.7267C64.2829 40.6254 64.5042 40.5401 64.7602 40.4707C65.0162 40.3961 65.2829 40.3587 65.5602 40.3587ZM65.7682 42.6467C65.2349 42.6681 64.8642 42.7534 64.6562 42.9027C64.4536 43.0521 64.3522 43.2627 64.3522 43.5347C64.3522 43.7747 64.4242 43.9507 64.5682 44.0627C64.7176 44.1747 64.9069 44.2307 65.1362 44.2307C65.4989 44.2307 65.8002 44.1321 66.0402 43.9347C66.2802 43.7321 66.4002 43.4227 66.4002 43.0067V42.6227L65.7682 42.6467ZM70.7442 44.7187V44.3507L71.4882 44.1747V39.6627L70.7442 39.4867V39.1187H73.2002V39.4867L72.4642 39.6627V44.1747L73.2002 44.3507V44.7187H70.7442Z" fill="black"/>
<defs>
<radialGradient id="paint0_radial_2644_460677" cx="0" cy="0" r="1" gradientUnits="userSpaceOnUse" gradientTransform="translate(43 7.31421) rotate(90) scale(153.5 30.9709)">
<stop stop-color="#D4FFD3"/>
<stop offset="1" stop-color="#87FF85"/>
</radialGradient>
<radialGradient id="paint1_radial_2644_460677" cx="0" cy="0" r="1" gradientUnits="userSpaceOnUse" gradientTransform="translate(35.103 62.9465) rotate(42.0318) scale(20.4026)">
<stop stop-color="#038B00"/>
<stop offset="1" stop-color="#04BB00"/>
</radialGradient>
</defs>
</svg>
