<svg width="579" height="341" viewBox="0 0 579 341" fill="none" xmlns="http://www.w3.org/2000/svg">
<path d="M398.142 134.429C396.043 135.322 383.283 139.542 384.29 141.588C385.046 143.122 392.815 141.557 399.768 138.565C405.957 135.902 411.544 131.956 410.414 130.346C408.514 127.614 403.34 132.216 398.142 134.429Z" fill="#319A81" stroke="#104469" stroke-width="0.763197" stroke-miterlimit="10"/>
<path d="M432.837 80.3262C432.837 74.6785 433.371 66.9626 431.425 60.6052C431.158 59.7275 430.861 58.7735 431.166 57.9035C431.471 57.0334 432.7 56.4686 433.341 57.1326C433.547 57.3463 433.646 57.6287 433.745 57.9035C436.188 65.0622 436.943 72.7858 435.936 80.2804C435.798 81.3031 435.547 82.4479 434.669 82.9897C433.829 83.5011 432.837 81.0741 432.837 80.3262Z" fill="#319A81" stroke="#104469" stroke-width="0.763197" stroke-miterlimit="10"/>
<path d="M431.364 101.368C432.364 99.7114 432.868 97.75 432.776 95.8191C432.738 95.0178 432.608 94.2012 432.814 93.4227C433.02 92.6442 433.715 91.9192 434.516 92.0108C435.073 92.0718 435.531 92.5297 435.753 93.0487C435.974 93.5677 435.997 94.1477 435.989 94.7125C435.966 98.04 435.15 101.352 433.631 104.314C433.234 105.084 432.684 105.909 431.83 106.061C430.769 106.244 429.792 105.176 429.777 104.107C429.761 103.024 430.776 102.344 431.364 101.368Z" fill="#319A81" stroke="#104469" stroke-width="0.763197" stroke-miterlimit="10"/>
<path d="M426.06 113.441C425.587 113.891 424.243 115.219 423.839 115.738C423.434 116.25 422.923 117.265 423.503 117.562C425.19 118.448 427.991 115.051 428.784 112.686C428.906 112.327 428.975 111.884 428.708 111.625C428.502 111.434 428.181 111.426 427.907 111.48C427.319 111.594 426.541 112.991 426.06 113.441Z" fill="#319A81" stroke="#104469" stroke-width="0.763197" stroke-miterlimit="10"/>
<path d="M424.137 122.004C425.098 120.898 425.762 118.799 427.212 118.99C427.937 119.089 428.029 120.234 427.891 120.951C427.746 121.669 427.334 122.302 426.922 122.913C424.671 126.271 422.175 129.835 418.374 131.216C417.787 131.43 417.153 131.582 416.543 131.445C415.94 131.3 415.49 130.773 415.39 130.155C415.055 128.102 420.687 125.988 424.137 122.004Z" fill="#319A81" stroke="#104469" stroke-width="0.763197" stroke-miterlimit="10"/>
<path d="M440.652 85.3937C440.645 86.1645 440.362 86.9125 440.24 87.6757C440.118 88.4389 440.202 89.3165 440.775 89.8355C441.431 90.4308 442.522 90.3011 443.209 89.7439C443.896 89.1868 444.239 88.3091 444.43 87.4467C444.652 86.4088 444.682 85.325 444.522 84.2794C444.438 83.7528 444.308 83.2262 444.018 82.7836C443.728 82.3409 443.27 81.9822 442.744 81.9212C442.026 81.8372 441.339 82.318 440.981 82.9362C440.607 83.5544 440.66 84.2794 440.652 85.3937Z" fill="#319A81" stroke="#104469" stroke-width="0.763197" stroke-miterlimit="10"/>
<path d="M433.631 121.493C432.982 122.356 432.524 123.356 432.303 124.409C432.196 124.905 432.173 125.493 432.539 125.836C432.822 126.095 433.257 126.126 433.615 125.996C433.974 125.866 434.272 125.615 434.547 125.348C435.272 124.638 435.89 123.829 436.378 122.943C436.783 122.211 437.08 121.249 436.561 120.593C436.195 120.127 435.508 119.997 434.951 120.188C434.409 120.379 434.073 120.906 433.631 121.493Z" fill="#319A81" stroke="#104469" stroke-width="0.763197" stroke-miterlimit="10"/>
<path d="M423.282 136.382C423.343 137.183 423.984 137.878 424.747 138.114C425.51 138.351 426.373 138.175 427.052 137.748C427.731 137.321 428.235 136.649 428.578 135.924C428.754 135.55 428.899 135.138 428.846 134.726C428.762 134.039 428.136 133.52 427.472 133.337C426.808 133.154 423.053 133.321 423.282 136.382Z" fill="#319A81" stroke="#104469" stroke-width="0.763197" stroke-miterlimit="10"/>
<path d="M443.453 104.268C443.56 103.344 443.598 102.383 444.033 101.566C444.468 100.749 445.476 100.139 446.33 100.505C447.109 100.841 447.399 101.78 447.506 102.619C447.696 104.039 447.62 105.527 447.017 106.825C446.414 108.122 445.17 109.915 443.827 109.427C441.66 108.641 443.346 105.191 443.453 104.268Z" fill="#319A81" stroke="#104469" stroke-width="0.763197" stroke-miterlimit="10"/>
<path d="M445.414 119.645C444.88 120.866 444.582 122.187 444.529 123.515C444.514 123.858 444.529 124.224 444.727 124.492C444.949 124.789 445.361 124.904 445.727 124.85C446.094 124.797 446.429 124.598 446.727 124.377C448.055 123.393 448.933 121.82 449.055 120.164C449.108 119.424 449.017 118.645 448.62 118.02C448.231 117.386 447.498 116.936 446.758 117.02C446.025 117.104 446.139 117.974 445.414 119.645Z" fill="#319A81" stroke="#104469" stroke-width="0.763197" stroke-miterlimit="10"/>
<path d="M453.825 90.3243C453.787 90.9959 453.749 91.6675 453.878 92.3238C454.008 92.9802 454.321 93.6289 454.863 94.0258C455.405 94.4226 456.191 94.5066 456.74 94.125C457.206 93.7968 457.412 93.2244 457.572 92.6825C457.809 91.8659 457.992 91.0264 457.939 90.1793C457.885 89.3321 457.58 88.4773 456.954 87.9049C456.336 87.3249 455.374 87.0883 454.603 87.4317C453.833 87.7752 453.909 88.7215 453.825 90.3243Z" fill="#319A81" stroke="#104469" stroke-width="0.763197" stroke-miterlimit="10"/>
<path d="M444.835 71.5036C445.094 71.9768 445.148 72.5339 445.216 73.0682C445.285 73.6024 445.384 74.1595 445.712 74.5946C446.04 75.0296 446.659 75.2814 447.132 75.0372C447.475 74.8617 447.658 74.4953 447.788 74.1366C448.315 72.6942 448.246 71.0381 447.605 69.6414C447.338 69.069 446.964 68.5195 446.414 68.2066C445.865 67.8937 445.117 67.8784 444.636 68.2906C443.911 68.924 444.087 70.1299 444.835 71.5036Z" fill="#319A81" stroke="#104469" stroke-width="0.763197" stroke-miterlimit="10"/>
<path d="M439.393 133.398C438.233 133.94 437.119 134.581 436.065 135.306C435.516 135.688 434.921 136.26 435.088 136.909C435.188 137.298 435.562 137.573 435.951 137.672C436.34 137.771 436.752 137.733 437.157 137.695C438.08 137.604 439.019 137.504 439.851 137.1C440.683 136.695 441.392 135.902 441.431 134.978C441.469 134.055 440.545 132.864 439.393 133.398Z" fill="#319A81" stroke="#104469" stroke-width="0.763197" stroke-miterlimit="10"/>
<path d="M439.874 61.5742C440.347 59.7806 440.095 57.804 439.194 56.186C438.851 55.5678 438.408 54.9725 438.286 54.278C438.164 53.5759 438.515 52.7211 439.217 52.6066C439.675 52.5303 440.11 52.7821 440.484 53.0645C443.27 55.148 444.315 59.2617 442.865 62.4213C442.514 63.1845 441.957 63.9477 441.133 64.108C440.316 64.2683 439.385 63.444 439.874 61.5742Z" fill="#319A81" stroke="#104469" stroke-width="0.763197" stroke-miterlimit="10"/>
<path d="M455.153 76.8614C454.329 77.3575 454.016 78.5481 454.466 79.3952C454.924 80.2424 456.076 80.6392 456.954 80.25C457.832 79.8608 458.335 78.7694 458.061 77.8459C457.786 76.9224 456.618 75.9761 455.153 76.8614Z" fill="#319A81" stroke="#104469" stroke-width="0.763197" stroke-miterlimit="10"/>
<path d="M457.931 100.268C457.862 100.681 457.801 101.108 457.9 101.52C458 101.925 458.32 102.314 458.732 102.36C459.152 102.405 459.549 102.1 459.74 101.718C459.93 101.337 459.953 100.902 459.984 100.482C460.007 100.116 460.022 99.7418 459.908 99.3984C459.785 99.0549 459.495 98.742 459.129 98.7268C458.763 98.7039 458.129 99.0091 457.931 100.268Z" fill="#319A81" stroke="#104469" stroke-width="0.763197" stroke-miterlimit="10"/>
</svg>
