<svg width="579" height="341" viewBox="0 0 579 341" fill="none" xmlns="http://www.w3.org/2000/svg">
<path fill-rule="evenodd" clip-rule="evenodd" d="M339.227 22.3262C296.19 27.7499 274.626 54.8688 271.246 66.6596V68.5461C271.246 117.596 304.688 137.719 321.409 141.649C322.597 141.806 324.754 141.696 323.877 139.998C274.939 119.17 275.856 83.3516 276.145 72.0595C276.164 71.3338 276.18 70.7094 276.18 70.1969C276.18 63.4054 282.393 55.1046 285.5 51.8032C287.693 49.9167 287.145 51.5674 286.596 52.2748C277.824 61.9433 278.647 86.704 280.017 89.5338C286.868 114.543 307.42 128.751 310.374 130.793C310.567 130.927 310.685 131.008 310.719 131.037C316.64 135.565 321.958 136.697 323.877 136.697C324.151 136.461 324.425 135.518 322.78 135.046C291.859 118.256 283.581 92.678 283.307 81.9877C281.991 66.1408 290.068 54.3186 294.272 50.3883C302.166 45.2947 300.851 48.5018 297.835 50.3883C291.695 54.5387 287.784 67.8387 286.596 73.9699C285.408 80.1011 289.063 94.6431 292.353 101.796C293.449 102.032 294.546 101.089 294.272 100.145C294.272 100.059 294.123 99.2825 293.885 98.0434C292.832 92.5602 290.037 78.0092 290.708 73.9699C291.366 70.0082 293.358 71.8476 294.272 73.2625C291.805 80.8086 298.109 103.211 300.028 103.683C303.043 104.862 304.022 102.739 303.043 101.796C297.561 96.5139 297.835 83.2453 298.658 77.2713C298.877 75.1962 299.805 76.0923 299.754 76.7997C298.015 101.017 314.071 112.334 318.518 115.467C318.976 115.791 319.311 116.027 319.491 116.181C321.409 117.832 321.135 118.539 319.491 119.718C318.359 120.529 311.519 114.086 307.004 109.832C304.955 107.903 303.386 106.424 303.043 106.277C301.947 105.805 301.399 106.041 301.673 106.984C312.364 128.208 337.583 130.566 339.227 130.566C340.872 130.566 341.146 130.094 340.598 128.915C340.05 127.736 324.973 123.491 323.877 123.255C322.78 123.02 323.602 120.426 324.973 120.426C337.692 124.01 347.268 124.592 350.466 124.435C354.194 124.623 353.756 127.029 352.111 127.264C350.192 127.264 346.135 127.359 345.258 127.736C344.161 128.208 344.71 129.623 345.806 130.094C346.712 130.484 350.192 130.373 353.321 130.273C355.876 130.192 358.197 130.118 358.69 130.33C362.856 131.462 360.791 132.845 359.238 133.396C344.561 136.293 331.785 134.649 328.324 134.204C327.842 134.142 327.541 134.103 327.44 134.103C326.618 134.103 326.618 136.461 328.262 136.461C343.065 139.055 357.685 136.697 362.802 135.046C370.477 132.452 369.929 135.518 369.38 136.461C368.832 137.404 365.543 138.584 364.446 138.584C362.527 139.527 330.73 142.121 329.085 142.121C327.44 142.121 326.618 143.771 330.181 144.479C338.405 146.837 366.639 141.413 371.573 139.998C375.707 138.813 375.8 138.124 375.883 137.516C375.899 137.398 375.915 137.283 375.959 137.169C376.091 136.828 374.822 135.883 373.594 134.971C372.275 133.99 371.006 133.046 371.573 132.924C385.279 129.151 395.97 122.548 398.711 119.718C401.452 116.888 397.066 117.36 396.518 117.832C388.295 123.491 371.573 129.858 366.639 130.566C361.705 131.273 363.624 128.443 364.446 128.208C383.086 123.963 391.31 117.124 392.681 115.002C394.051 112.88 391.31 112.408 390.488 113.115C380.071 125.142 357.319 126.557 356.223 126.085C355.126 125.614 355.674 124.199 356.771 124.199C383.086 121.841 392.772 109.342 395.97 102.504C397.944 100.24 400.904 102.032 399.534 103.919C398.528 105.098 396.134 107.927 394.599 109.814C393.014 111.762 394.61 111.94 395.831 112.076C396.087 112.104 396.328 112.131 396.518 112.172C397.615 112.408 399.808 109.578 401.452 106.984C402.84 104.796 405.008 105.964 406.311 106.666C406.552 106.796 406.763 106.91 406.935 106.984C407.942 107.418 403.625 111.635 401.43 113.78C401.236 113.969 401.059 114.142 400.904 114.294C398.985 116.181 403.097 117.124 404.742 116.653C405.643 116.394 407.859 114.014 409.815 111.914C411.43 110.179 412.868 108.635 413.239 108.635C417.9 107.692 413.239 114.059 410.772 116.181C406.494 120.782 401.751 122.989 398.807 124.359C397.225 125.096 396.162 125.591 395.97 126.085C395.148 130.094 401.452 127.029 406.935 124.199C410.838 122.184 414.463 117.779 418.304 113.112C419.859 111.222 421.449 109.29 423.108 107.456C428.864 101.089 429.413 74.9132 429.138 72.555C429.063 71.9096 429.009 71.2642 428.958 70.6623C428.823 69.065 428.714 67.7742 428.316 67.6029C427.768 67.3671 426.671 67.1312 426.397 68.5461C424.643 100.994 421.189 104.39 418.448 105.333C417.077 105.805 415.981 105.333 415.432 105.098C413.788 104.626 414.61 100.853 415.158 100.381C415.707 99.9097 417.625 95.665 415.158 94.9575C412.691 94.2501 412.965 98.9664 413.239 99.438C413.514 99.9097 411.321 102.975 410.224 103.919C409.307 104.708 406.47 101.865 405.247 100.639C405.009 100.4 404.831 100.223 404.742 100.145C404.344 99.8031 405.246 98.9633 406.295 97.9874C406.691 97.6192 407.108 97.2316 407.483 96.8441C408.854 95.4292 409.402 93.7785 406.935 93.3068C405.168 92.9691 403.542 95.8957 402.459 97.8448C402.03 98.6178 401.686 99.2371 401.452 99.438C400.794 100.004 399.534 98.1018 398.985 97.0799C399.442 94.4073 400.356 88.2604 400.356 85.0533C400.356 81.7653 400.54 81.8086 401.06 81.9304C401.174 81.9572 401.304 81.9877 401.452 81.9877C401.876 81.9877 402.009 83.676 402.15 85.4749C402.283 87.1693 402.424 88.9619 402.823 89.5338C403.645 90.7129 405.838 89.7696 405.838 89.0621C405.838 89.0143 405.84 88.9288 405.841 88.8097C405.865 87.1678 405.983 79.1545 404.194 75.8564C402.658 73.0266 400.995 74.6774 400.356 75.8564C399.618 75.063 399.128 70.7452 398.72 67.1434C398.521 65.3932 398.342 63.812 398.163 62.8866C397.615 60.0568 401.452 61.4717 401.452 62.8866C400.63 68.3103 402.549 71.8476 403.645 71.8476C405.582 72.0558 405.167 64.3547 405.043 62.0653C405.027 61.7624 405.016 61.5543 405.016 61.4717C408.25 53.9817 407.872 78.923 407.774 85.3646C407.764 86.0213 407.757 86.4858 407.757 86.704C407.757 87.2174 407.718 87.6302 407.685 87.9765C407.568 89.2207 407.532 89.606 409.676 90.7128C411.869 91.8447 411.503 72.6336 411.047 62.8866C410.59 61.5503 409.95 58.5947 411.047 57.4628C415.158 54.8688 414.884 82.6951 414.61 85.7607C414.557 86.3519 414.464 86.8992 414.378 87.3976C414.021 89.4838 413.811 90.7128 417.351 90.7128C435.169 16.195 360.334 18.7889 357.319 19.2606C354.304 19.7322 352.659 20.6755 355.949 22.3262C400.151 16.8626 410.688 46.0324 412.649 51.4613C412.804 51.8904 412.905 52.1712 412.965 52.2748C413.788 53.6897 410.772 54.1614 409.676 52.2748C397.889 34.3528 383.36 25.6276 380.345 25.6276C377.33 25.6276 377.878 28.4574 380.345 27.9858C383.909 26.335 403.919 48.266 405.016 52.2748C405.893 55.4819 404.468 56.2837 403.645 56.2837C402.914 54.7902 401.069 51.8975 399.534 52.2748C397.998 52.6521 400.173 55.8907 401.452 57.4628C399.442 58.1702 395.422 59.1607 395.422 57.4628C387.303 41.7039 381.082 39.6801 377.718 38.5859C376.652 38.2392 375.873 37.9858 375.411 37.4184C373.925 35.5922 374.576 35.3217 375.964 34.745C376.368 34.577 376.835 34.383 377.33 34.117C380.787 31.9357 392.386 44.5952 396.641 49.2394C397.446 50.1181 397.988 50.7099 398.163 50.8599C399.259 51.8032 400.356 49.9167 399.534 48.9734C386.65 25.6276 354.304 23.7411 352.659 24.9202C348.365 26.0444 357.676 28.5905 364.831 30.5472C368.182 31.4636 371.061 32.2508 371.847 32.7021C373.821 33.834 371.025 35.8463 369.38 36.7109C366.639 36.2393 360.389 35.2961 357.319 35.2961C353.481 35.2961 336.212 35.2961 337.583 34.117C338.568 33.2688 345.795 33.0308 350.489 32.8762C352.32 32.8159 353.765 32.7683 354.304 32.7021C356.223 32.4663 355.126 30.3439 352.385 30.3439C330.799 29.0484 318.406 37.243 315.207 39.3588C314.912 39.5537 314.695 39.697 314.556 39.7766C312.912 40.7198 314.831 43.7854 317.572 42.3705C324.809 38.4088 331.735 36.0035 334.293 35.2961C334.202 35.9249 331.826 38.2202 323.054 42.3705C310.719 46.1436 302.13 63.8298 299.754 71.8476C295.061 69.4253 300.909 60.0364 304.446 54.358C306.074 51.7442 307.212 49.9167 306.607 49.9167C302.889 49.9167 296.138 63.8823 295.042 66.546C292.088 59.8642 301.17 50.406 306.73 44.6167C309.024 42.2272 310.719 40.4628 310.719 39.7766C310.719 34.5646 302.121 40.9953 296.938 44.8715C295.321 46.0813 294.036 47.0422 293.449 47.3227C290.982 48.5017 287.967 49.9166 290.708 47.3227C313.078 28.4883 336.687 26.3603 342.703 25.818C343.617 25.7356 344.125 25.6898 344.161 25.6276C344.201 25.5588 344.323 25.4598 344.473 25.338C345.35 24.6254 347.187 23.1318 339.227 22.3262ZM307.547 73.8589C308.018 61.6319 323.365 38.1413 349.329 40.4333C381.91 43.3093 394.756 67.5727 395.29 82.5138C395.823 97.4549 382.009 113.62 354.701 118.924C329.765 123.767 306.353 104.897 307.547 73.8589Z" fill="#319A81"/>
<path d="M271.246 66.6596L270.733 66.5125L270.712 66.5846V66.6596H271.246ZM339.227 22.3262L339.281 21.7953L339.221 21.7892L339.161 21.7968L339.227 22.3262ZM321.409 141.649L321.287 142.169L321.313 142.175L321.339 142.178L321.409 141.649ZM323.877 139.998L324.351 139.753L324.262 139.583L324.086 139.507L323.877 139.998ZM276.145 72.0595L276.679 72.0731L276.145 72.0595ZM285.5 51.8032L285.152 51.3987L285.13 51.417L285.111 51.4375L285.5 51.8032ZM286.596 52.2748L286.991 52.6334L287.005 52.6181L287.018 52.6017L286.596 52.2748ZM280.017 89.5338L280.532 89.3928L280.519 89.3454L280.498 89.3012L280.017 89.5338ZM310.374 130.793L310.677 130.354H310.677L310.374 130.793ZM310.719 131.037L310.371 131.442L310.382 131.452L310.395 131.461L310.719 131.037ZM323.877 136.697V137.231H324.074L324.225 137.102L323.877 136.697ZM322.78 135.046L322.525 135.515L322.577 135.543L322.633 135.559L322.78 135.046ZM283.307 81.9877L283.84 81.974L283.84 81.9587L283.839 81.9435L283.307 81.9877ZM294.272 50.3883L293.982 49.9399L293.942 49.9659L293.907 49.9985L294.272 50.3883ZM297.835 50.3883L297.552 49.9359L297.544 49.9409L297.536 49.9462L297.835 50.3883ZM286.596 73.9699L286.072 73.8684L286.596 73.9699ZM292.353 101.796L291.868 102.019L291.98 102.262L292.241 102.318L292.353 101.796ZM294.272 100.145H293.738V100.221L293.759 100.294L294.272 100.145ZM293.885 98.0434L293.361 98.144L293.885 98.0434ZM290.708 73.9699L291.234 74.0573L290.708 73.9699ZM294.272 73.2625L294.779 73.4283L294.858 73.1866L294.72 72.973L294.272 73.2625ZM300.028 103.683L300.222 103.186L300.19 103.173L300.156 103.165L300.028 103.683ZM303.043 101.796L303.414 101.412L303.043 101.796ZM298.658 77.2713L299.186 77.3441L299.187 77.3358L299.188 77.3274L298.658 77.2713ZM299.754 76.7997L300.286 76.8379L299.754 76.7997ZM318.518 115.467L318.825 115.031L318.518 115.467ZM319.491 116.181L319.839 115.776V115.776L319.491 116.181ZM319.491 119.718L319.802 120.152V120.152L319.491 119.718ZM307.004 109.832L307.369 109.444L307.004 109.832ZM303.043 106.277L302.833 106.767L303.043 106.277ZM301.673 106.984L301.16 107.133L301.174 107.18L301.196 107.224L301.673 106.984ZM323.877 123.255L323.764 123.777L323.877 123.255ZM324.973 120.426L325.118 119.912L325.047 119.892H324.973V120.426ZM350.466 124.435L350.493 123.902L350.467 123.9L350.44 123.902L350.466 124.435ZM352.111 127.264V127.798H352.149L352.187 127.793L352.111 127.264ZM345.258 127.736L345.469 128.226L345.258 127.736ZM345.806 130.094L346.017 129.604L345.806 130.094ZM353.321 130.273L353.338 130.807L353.321 130.273ZM358.69 130.33L358.479 130.82L358.513 130.835L358.55 130.845L358.69 130.33ZM359.238 133.396L359.341 133.919L359.379 133.912L359.416 133.899L359.238 133.396ZM328.324 134.204L328.392 133.675H328.392L328.324 134.204ZM328.262 136.461L328.355 135.936L328.309 135.928H328.262V136.461ZM362.802 135.046L362.965 135.554L362.972 135.552L362.802 135.046ZM369.38 136.461L368.919 136.193L368.919 136.193L369.38 136.461ZM364.446 138.584V138.05H364.322L364.211 138.105L364.446 138.584ZM329.085 142.121L329.085 141.587L329.085 142.121ZM330.181 144.479L330.328 143.966L330.307 143.96L330.285 143.956L330.181 144.479ZM371.573 139.998L371.426 139.485L371.573 139.998ZM375.883 137.516L375.354 137.444V137.444L375.883 137.516ZM375.959 137.169L376.457 137.361L376.457 137.361L375.959 137.169ZM373.594 134.971L373.275 135.399L373.594 134.971ZM371.573 132.924L371.686 133.446L371.7 133.442L371.715 133.438L371.573 132.924ZM398.711 119.718L399.094 120.09L398.711 119.718ZM396.518 117.832L396.821 118.271L396.844 118.255L396.866 118.236L396.518 117.832ZM366.639 130.566L366.563 130.038H366.563L366.639 130.566ZM364.446 128.208L364.328 127.687L364.313 127.691L364.299 127.695L364.446 128.208ZM390.488 113.115L390.14 112.711L390.11 112.736L390.084 112.766L390.488 113.115ZM356.223 126.085L356.433 125.595L356.223 126.085ZM356.771 124.199V124.732H356.795L356.819 124.73L356.771 124.199ZM395.97 102.504L395.568 102.153L395.518 102.21L395.487 102.278L395.97 102.504ZM399.534 103.919L399.94 104.265L399.953 104.249L399.965 104.232L399.534 103.919ZM394.599 109.814L395.013 110.151H395.013L394.599 109.814ZM395.831 112.076L395.772 112.606H395.772L395.831 112.076ZM396.518 112.172L396.63 111.65H396.63L396.518 112.172ZM401.452 106.984L401.002 106.698V106.698L401.452 106.984ZM406.311 106.666L406.564 106.197H406.564L406.311 106.666ZM406.935 106.984L406.724 107.474L406.935 106.984ZM401.43 113.78L401.057 113.398L401.43 113.78ZM400.904 114.294L401.278 114.675L401.278 114.675L400.904 114.294ZM404.742 116.653L404.889 117.166L404.742 116.653ZM409.815 111.914L410.205 112.277L409.815 111.914ZM413.239 108.635V109.168H413.293L413.345 109.158L413.239 108.635ZM410.772 116.181L410.424 115.776L410.402 115.796L410.382 115.818L410.772 116.181ZM398.807 124.359L398.582 123.875L398.807 124.359ZM395.97 126.085L395.472 125.892L395.456 125.934L395.447 125.978L395.97 126.085ZM406.935 124.199L406.69 123.725V123.725L406.935 124.199ZM418.304 113.112L417.892 112.772L418.304 113.112ZM423.108 107.456L422.712 107.098L423.108 107.456ZM429.138 72.555L429.668 72.4934L429.138 72.555ZM428.958 70.6623L428.426 70.7072L428.958 70.6623ZM428.316 67.6029L428.105 68.0931V68.0931L428.316 67.6029ZM426.397 68.5461L425.873 68.4446L425.866 68.4807L425.864 68.5173L426.397 68.5461ZM418.448 105.333L418.274 104.829L418.448 105.333ZM415.432 105.098L415.643 104.607L415.612 104.594L415.58 104.585L415.432 105.098ZM413.239 99.438L412.778 99.7062V99.7062L413.239 99.438ZM410.224 103.919L410.572 104.323V104.323L410.224 103.919ZM405.247 100.639L404.87 101.016V101.016L405.247 100.639ZM404.742 100.145L405.09 99.741L404.742 100.145ZM406.295 97.9874L405.932 97.5967L406.295 97.9874ZM407.483 96.8441L407.866 97.2153V97.2153L407.483 96.8441ZM406.935 93.3068L406.835 93.8309H406.835L406.935 93.3068ZM402.459 97.8448L402.926 98.1039L402.459 97.8448ZM401.452 99.438L401.8 99.8426L401.452 99.438ZM398.985 97.0799L398.459 96.99L398.428 97.1706L398.515 97.3322L398.985 97.0799ZM401.06 81.9304L401.182 81.4109L401.06 81.9304ZM402.15 85.4749L401.618 85.5167L402.15 85.4749ZM402.823 89.5338L403.261 89.2285L402.823 89.5338ZM405.841 88.8097L405.308 88.8019V88.8019L405.841 88.8097ZM404.194 75.8564L403.725 76.1109L404.194 75.8564ZM400.356 75.8564L399.965 76.2198L400.471 76.7636L400.825 76.1109L400.356 75.8564ZM398.72 67.1434L398.19 67.2036V67.2036L398.72 67.1434ZM398.163 62.8866L398.687 62.7851L398.163 62.8866ZM401.452 62.8866L401.98 62.9665L401.986 62.9268V62.8866H401.452ZM403.645 71.8476L403.702 71.317L403.674 71.314H403.645V71.8476ZM405.043 62.0653L404.511 62.094L405.043 62.0653ZM405.016 61.4717L404.526 61.2601L404.482 61.3614V61.4717H405.016ZM407.774 85.3646L407.241 85.3565V85.3565L407.774 85.3646ZM407.685 87.9765L408.217 88.0266L407.685 87.9765ZM409.676 90.7128L409.921 90.2386L409.676 90.7128ZM411.047 62.8866L411.58 62.8616L411.576 62.7858L411.551 62.7139L411.047 62.8866ZM411.047 57.4628L410.762 57.0115L410.708 57.0456L410.663 57.0915L411.047 57.4628ZM414.61 85.7607L414.079 85.7132L414.61 85.7607ZM414.378 87.3976L414.904 87.4876L414.378 87.3976ZM417.351 90.7128V91.2464H417.772L417.87 90.8369L417.351 90.7128ZM357.319 19.2606L357.237 18.7334V18.7334L357.319 19.2606ZM355.949 22.3262L355.709 22.8031L355.854 22.8756L356.014 22.8558L355.949 22.3262ZM412.649 51.4613L412.147 51.6426V51.6426L412.649 51.4613ZM412.965 52.2748L413.427 52.0067L413.427 52.0067L412.965 52.2748ZM409.676 52.2748L410.137 52.0067L410.13 51.9939L410.122 51.9816L409.676 52.2748ZM380.345 27.9858L380.445 28.5099L380.51 28.4975L380.569 28.4699L380.345 27.9858ZM405.016 52.2748L404.501 52.4156L405.016 52.2748ZM403.645 56.2837L403.166 56.5183L403.312 56.8173H403.645V56.2837ZM399.534 52.2748L399.406 51.7566V51.7566L399.534 52.2748ZM401.452 57.4628L401.629 57.9661L402.345 57.7143L401.866 57.126L401.452 57.4628ZM395.422 57.4628H395.955V57.3334L395.896 57.2184L395.422 57.4628ZM377.718 38.5859L377.553 39.0933H377.553L377.718 38.5859ZM375.411 37.4184L375.825 37.0816V37.0816L375.411 37.4184ZM375.964 34.745L375.759 34.2522L375.964 34.745ZM377.33 34.117L377.583 34.587L377.599 34.5782L377.615 34.5683L377.33 34.117ZM396.641 49.2394L396.248 49.5999V49.5999L396.641 49.2394ZM398.163 50.8599L398.511 50.4554L398.511 50.4554L398.163 50.8599ZM399.534 48.9734L399.066 49.2312L399.094 49.2811L399.131 49.3241L399.534 48.9734ZM352.659 24.9202L352.794 25.4364L352.89 25.4114L352.97 25.3538L352.659 24.9202ZM364.831 30.5472L364.69 31.0619L364.831 30.5472ZM371.847 32.7021L371.582 33.165L371.847 32.7021ZM369.38 36.7109L369.29 37.2368L369.468 37.2675L369.629 37.1833L369.38 36.7109ZM337.583 34.117L337.235 33.7125L337.583 34.117ZM350.489 32.8762L350.506 33.4095L350.489 32.8762ZM354.304 32.7021L354.239 32.1725L354.304 32.7021ZM352.385 30.3439L352.353 30.8766L352.369 30.8775H352.385V30.3439ZM315.207 39.3588L315.501 39.8039V39.8039L315.207 39.3588ZM314.556 39.7766L314.822 40.2394L314.556 39.7766ZM317.572 42.3705L317.817 42.8448L317.828 42.8386L317.572 42.3705ZM334.293 35.2961L334.821 35.3728L334.939 34.5639L334.151 34.7817L334.293 35.2961ZM323.054 42.3705L323.21 42.8808L323.247 42.8695L323.282 42.8529L323.054 42.3705ZM299.754 71.8476L299.509 72.3217L300.082 72.6176L300.266 71.9992L299.754 71.8476ZM304.446 54.358L304.899 54.6401L304.446 54.358ZM295.042 66.546L294.554 66.7618L295.06 67.9056L295.536 66.749L295.042 66.546ZM306.73 44.6167L306.345 44.2471L306.73 44.6167ZM296.938 44.8715L297.258 45.2988H297.258L296.938 44.8715ZM293.449 47.3227L293.679 47.8041V47.8041L293.449 47.3227ZM290.708 47.3227L290.364 46.9145L290.353 46.9244L290.341 46.9351L290.708 47.3227ZM342.703 25.818L342.751 26.3494L342.703 25.818ZM344.161 25.6276L344.623 25.8958L344.623 25.8957L344.161 25.6276ZM344.473 25.338L344.136 24.9239L344.136 24.924L344.473 25.338ZM349.329 40.4333L349.376 39.9017L349.329 40.4333ZM307.547 73.8589L308.08 73.8795L307.547 73.8589ZM395.29 82.5138L395.823 82.4948L395.29 82.5138ZM354.701 118.924L354.6 118.4L354.701 118.924ZM295.042 66.546L295.53 66.3302L295.025 65.1864L294.549 66.343L295.042 66.546ZM295.094 66.6596L295.564 66.9119L295.69 66.6767L295.578 66.4346L295.094 66.6596ZM271.759 66.8067C273.409 61.05 279.561 51.4091 290.698 42.5224C301.818 33.6491 317.877 25.5547 339.294 22.8556L339.161 21.7968C317.54 24.5215 301.299 32.6983 290.033 41.6882C278.783 50.6645 272.463 60.4784 270.733 66.5125L271.759 66.8067ZM271.779 68.5461V66.6596H270.712V68.5461H271.779ZM321.532 141.13C304.995 137.243 271.779 117.295 271.779 68.5461H270.712C270.712 117.897 304.381 138.195 321.287 142.169L321.532 141.13ZM323.402 140.243C323.585 140.596 323.55 140.752 323.532 140.799C323.512 140.849 323.446 140.938 323.227 141.021C322.776 141.193 322.048 141.195 321.479 141.12L321.339 142.178C321.959 142.26 322.903 142.286 323.607 142.018C323.967 141.881 324.35 141.633 324.524 141.191C324.701 140.744 324.607 140.25 324.351 139.753L323.402 140.243ZM275.612 72.0458C275.467 77.7049 275.16 89.5862 281.064 102.672C286.975 115.774 299.085 130.027 323.668 140.489L324.086 139.507C299.73 129.142 287.829 115.071 282.037 102.233C276.238 89.3802 276.534 77.7062 276.679 72.0731L275.612 72.0458ZM275.646 70.1969C275.646 70.7011 275.63 71.3178 275.612 72.0458L276.679 72.0731C276.697 71.3498 276.713 70.7178 276.713 70.1969H275.646ZM285.111 51.4375C283.533 53.1144 281.178 56.0472 279.214 59.4229C277.257 62.7857 275.646 66.6586 275.646 70.1969H276.713C276.713 66.9436 278.209 63.2704 280.136 59.9596C282.055 56.6617 284.36 53.7934 285.888 52.1689L285.111 51.4375ZM287.018 52.6017C287.185 52.386 287.345 52.1092 287.457 51.8437C287.513 51.7102 287.562 51.5669 287.591 51.4256C287.618 51.2951 287.64 51.1147 287.593 50.9328C287.537 50.7175 287.378 50.4957 287.09 50.4205C286.859 50.3603 286.636 50.4216 286.475 50.4862C286.139 50.6206 285.706 50.9216 285.152 51.3987L285.848 52.2077C286.112 51.9801 286.329 51.812 286.503 51.6917C286.679 51.5694 286.799 51.506 286.872 51.4769C286.907 51.4627 286.921 51.4611 286.916 51.4617C286.912 51.4623 286.876 51.4676 286.82 51.4532C286.759 51.4372 286.693 51.4014 286.639 51.3421C286.588 51.2862 286.567 51.2306 286.559 51.1997C286.547 51.1505 286.56 51.1433 286.546 51.2089C286.535 51.2639 286.511 51.3398 286.473 51.4311C286.395 51.6151 286.281 51.81 286.175 51.948L287.018 52.6017ZM280.498 89.3012C280.367 89.0312 280.212 88.4115 280.075 87.4423C279.942 86.4964 279.833 85.2767 279.767 83.8532C279.635 81.0069 279.677 77.3691 280.035 73.5181C280.392 69.666 281.064 65.6137 282.185 61.933C283.309 58.2466 284.872 54.9692 286.991 52.6334L286.201 51.9163C283.934 54.4147 282.311 57.8581 281.165 61.622C280.016 65.3916 279.334 69.5192 278.972 73.4195C278.61 77.321 278.567 81.0082 278.701 83.9025C278.768 85.3494 278.879 86.6039 279.018 87.5915C279.155 88.5558 279.325 89.3289 279.537 89.7664L280.498 89.3012ZM310.677 130.354C307.735 128.32 287.329 114.205 280.532 89.3928L279.503 89.6747C286.407 114.881 307.105 129.182 310.07 131.232L310.677 130.354ZM311.067 130.633C311.005 130.58 310.849 130.473 310.677 130.354L310.07 131.232C310.168 131.299 310.243 131.352 310.299 131.391C310.327 131.411 310.348 131.425 310.362 131.436C310.38 131.449 310.379 131.449 310.371 131.442L311.067 130.633ZM323.877 136.163C322.094 136.163 316.887 135.082 311.043 130.614L310.395 131.461C316.393 136.048 321.822 137.231 323.877 137.231V136.163ZM322.633 135.559C323.373 135.771 323.513 136.04 323.539 136.121C323.574 136.231 323.513 136.306 323.529 136.292L324.225 137.102C324.515 136.852 324.727 136.338 324.557 135.799C324.377 135.232 323.832 134.793 322.927 134.533L322.633 135.559ZM282.773 82.0013C283.052 92.8792 291.434 118.633 322.525 135.515L323.035 134.577C292.284 117.88 284.11 92.4767 283.84 81.974L282.773 82.0013ZM293.907 49.9985C289.612 54.0147 281.443 65.9884 282.775 82.0318L283.839 81.9435C282.539 66.2932 290.525 54.6224 294.636 50.7781L293.907 49.9985ZM298.118 50.8407C298.91 50.3453 299.6 49.7582 300.063 49.2268C300.292 48.964 300.485 48.6926 300.601 48.4348C300.699 48.218 300.827 47.815 300.582 47.4645C300.33 47.1053 299.892 47.091 299.606 47.122C299.278 47.1575 298.868 47.28 298.38 47.4806C297.396 47.885 295.966 48.66 293.982 49.9399L294.561 50.8367C296.524 49.5698 297.891 48.8356 298.786 48.4677C299.237 48.2822 299.539 48.2027 299.721 48.183C299.946 48.1586 299.819 48.2358 299.708 48.077C299.602 47.9269 299.701 47.8335 299.628 47.9976C299.572 48.1208 299.453 48.3019 299.258 48.5255C298.874 48.9668 298.268 49.4881 297.552 49.9359L298.118 50.8407ZM287.12 74.0714C287.709 71.0341 288.974 66.2111 290.852 61.639C292.742 57.0387 295.205 52.8099 298.134 50.8304L297.536 49.9462C294.325 52.1171 291.763 56.6134 289.865 61.2335C287.956 65.8819 286.672 70.7745 286.072 73.8684L287.12 74.0714ZM292.838 101.573C291.213 98.0406 289.487 92.6552 288.316 87.3841C287.732 84.7511 287.288 82.1571 287.063 79.8469C286.838 77.5282 286.838 75.5295 287.12 74.0714L286.072 73.8684C285.761 75.4759 285.772 77.5942 286.001 79.9501C286.231 82.3144 286.683 84.9526 287.275 87.6156C288.457 92.9366 290.203 98.3987 291.868 102.019L292.838 101.573ZM293.759 100.294C293.822 100.512 293.744 100.78 293.478 101.008C293.215 101.235 292.834 101.354 292.465 101.275L292.241 102.318C292.968 102.474 293.684 102.24 294.174 101.818C294.663 101.397 294.995 100.722 294.784 99.9966L293.759 100.294ZM293.361 98.144C293.48 98.7642 293.576 99.2663 293.643 99.6242C293.676 99.8034 293.702 99.9439 293.719 100.044C293.727 100.094 293.733 100.131 293.736 100.156C293.742 100.195 293.738 100.179 293.738 100.145H294.805C294.805 100.09 294.797 100.031 294.793 100.006C294.788 99.9671 294.78 99.9195 294.771 99.8654C294.752 99.7567 294.726 99.6093 294.692 99.4288C294.625 99.0672 294.528 98.5616 294.409 97.9427L293.361 98.144ZM290.182 73.8825C290.001 74.9677 290.058 76.6971 290.242 78.7129C290.427 80.7465 290.749 83.1276 291.123 85.5467C291.871 90.3856 292.834 95.4031 293.361 98.144L294.409 97.9427C293.882 95.2004 292.922 90.2008 292.177 85.3837C291.805 82.9747 291.487 80.618 291.305 78.6159C291.12 76.596 291.079 74.9918 291.234 74.0573L290.182 73.8825ZM294.72 72.973C294.475 72.593 294.153 72.1776 293.79 71.8323C293.437 71.4967 292.993 71.1774 292.5 71.0771C292.244 71.0249 291.97 71.0314 291.699 71.1314C291.429 71.231 291.195 71.4109 290.999 71.6533C290.619 72.1231 290.351 72.8604 290.182 73.8825L291.234 74.0573C291.394 73.0985 291.622 72.5801 291.829 72.3248C291.926 72.2046 292.009 72.1547 292.068 72.1327C292.127 72.111 292.196 72.1043 292.287 72.1228C292.49 72.164 292.756 72.3223 293.054 72.6057C293.342 72.8794 293.612 73.2245 293.823 73.5519L294.72 72.973ZM300.156 103.165C300.223 103.181 300.182 103.197 300.039 103.016C299.917 102.861 299.77 102.625 299.602 102.303C299.266 101.661 298.882 100.743 298.474 99.611C297.661 97.351 296.776 94.292 296.025 91.0067C295.275 87.7215 294.663 84.2243 294.392 81.0868C294.119 77.9303 294.197 75.2066 294.779 73.4283L293.764 73.0966C293.112 75.0914 293.054 77.9978 293.329 81.1788C293.606 84.3789 294.227 87.9267 294.985 91.2443C295.742 94.5619 296.639 97.6636 297.47 99.9725C297.885 101.125 298.288 102.094 298.656 102.797C298.839 103.147 299.021 103.448 299.201 103.676C299.36 103.879 299.593 104.125 299.901 104.201L300.156 103.165ZM302.673 102.18C302.938 102.435 302.955 102.859 302.656 103.159C302.367 103.448 301.628 103.736 300.222 103.186L299.834 104.18C301.443 104.809 302.701 104.625 303.412 103.912C304.111 103.21 304.128 102.1 303.414 101.412L302.673 102.18ZM298.129 77.1986C297.713 80.2203 297.436 85.0755 297.956 89.8509C298.472 94.5967 299.788 99.401 302.673 102.18L303.414 101.412C300.816 98.9091 299.528 94.438 299.017 89.7355C298.508 85.0625 298.78 80.2964 299.186 77.3441L298.129 77.1986ZM300.286 76.8379C300.307 76.5459 300.229 76.2554 300.102 76.0255C299.986 75.8142 299.763 75.5425 299.417 75.4698C299.227 75.4299 299.029 75.4588 298.851 75.5594C298.683 75.6547 298.56 75.7983 298.47 75.9499C298.294 76.2449 298.185 76.6686 298.127 77.2153L299.188 77.3274C299.24 76.8365 299.329 76.594 299.387 76.4955C299.414 76.4503 299.417 76.4654 299.377 76.4878C299.328 76.5157 299.261 76.5276 299.198 76.5143C299.145 76.5032 299.123 76.481 299.129 76.4861C299.133 76.4902 299.149 76.5069 299.168 76.5407C299.208 76.613 299.226 76.6998 299.222 76.7615L300.286 76.8379ZM318.825 115.031C314.405 111.916 298.568 100.754 300.286 76.8379L299.222 76.7615C297.461 101.281 313.738 112.751 318.21 115.904L318.825 115.031ZM319.839 115.776C319.634 115.601 319.271 115.345 318.825 115.031L318.21 115.904C318.682 116.236 318.988 116.453 319.143 116.586L319.839 115.776ZM319.802 120.152C320.221 119.851 320.587 119.558 320.855 119.253C321.126 118.944 321.332 118.586 321.359 118.161C321.387 117.735 321.23 117.337 320.971 116.961C320.714 116.589 320.332 116.201 319.839 115.776L319.143 116.586C319.609 116.987 319.912 117.306 320.092 117.567C320.27 117.825 320.301 117.987 320.294 118.092C320.288 118.197 320.236 118.34 320.054 118.548C319.868 118.759 319.583 118.996 319.18 119.285L319.802 120.152ZM306.638 110.22C308.893 112.345 311.743 115.03 314.172 117.082C315.384 118.106 316.508 118.987 317.41 119.564C317.858 119.85 318.276 120.077 318.638 120.204C318.818 120.268 319.009 120.315 319.196 120.321C319.385 120.327 319.606 120.292 319.802 120.152L319.18 119.285C319.234 119.246 319.269 119.256 319.231 119.254C319.191 119.253 319.114 119.241 318.991 119.197C318.745 119.111 318.407 118.935 317.984 118.664C317.144 118.127 316.064 117.284 314.86 116.267C312.458 114.237 309.63 111.573 307.369 109.444L306.638 110.22ZM302.833 106.767C302.816 106.76 302.836 106.767 302.913 106.823C302.98 106.872 303.067 106.942 303.177 107.033C303.395 107.215 303.681 107.468 304.025 107.781C304.712 108.406 305.612 109.255 306.638 110.22L307.369 109.444C306.347 108.48 305.438 107.625 304.743 106.991C304.396 106.675 304.097 106.41 303.86 106.213C303.742 106.115 303.635 106.03 303.543 105.962C303.46 105.902 303.357 105.831 303.254 105.787L302.833 106.767ZM302.185 106.835C302.129 106.641 302.134 106.544 302.14 106.516C302.141 106.513 302.123 106.557 302.08 106.579C302.064 106.586 302.104 106.562 302.251 106.584C302.391 106.604 302.584 106.66 302.833 106.767L303.254 105.787C302.954 105.658 302.668 105.566 302.405 105.528C302.15 105.49 301.864 105.495 301.609 105.621C301.325 105.76 301.154 106.011 301.094 106.303C301.04 106.569 301.08 106.856 301.16 107.133L302.185 106.835ZM339.227 130.032C338.476 130.032 331.829 129.457 324.046 126.241C316.273 123.029 307.419 117.205 302.149 106.744L301.196 107.224C306.618 117.987 315.718 123.954 323.638 127.227C331.549 130.496 338.334 131.099 339.227 131.099V130.032ZM340.114 129.14C340.242 129.415 340.301 129.607 340.317 129.735C340.324 129.796 340.32 129.829 340.317 129.844C340.315 129.851 340.314 129.854 340.314 129.855C340.314 129.855 340.314 129.855 340.313 129.856C340.313 129.856 340.271 129.908 340.082 129.956C339.895 130.003 339.619 130.032 339.227 130.032V131.099C339.657 131.099 340.033 131.069 340.343 130.991C340.65 130.914 340.952 130.774 341.157 130.509C341.371 130.233 341.413 129.908 341.376 129.606C341.34 129.314 341.228 129.004 341.082 128.69L340.114 129.14ZM323.764 123.777C324.286 123.889 328.307 125.002 332.284 126.241C334.268 126.859 336.227 127.504 337.72 128.066C338.468 128.347 339.088 128.604 339.532 128.822C339.755 128.932 339.92 129.025 340.031 129.101C340.168 129.194 340.147 129.21 340.114 129.14L341.082 128.69C340.981 128.473 340.777 128.317 340.632 128.219C340.462 128.103 340.246 127.984 340.002 127.864C339.512 127.623 338.856 127.353 338.096 127.067C336.574 126.494 334.592 125.842 332.601 125.222C328.629 123.985 324.564 122.857 323.989 122.734L323.764 123.777ZM324.973 119.892C324.453 119.892 324.017 120.139 323.696 120.453C323.376 120.766 323.139 121.171 322.997 121.574C322.856 121.971 322.789 122.419 322.869 122.819C322.954 123.24 323.226 123.661 323.764 123.777L323.989 122.734C323.979 122.732 323.942 122.74 323.916 122.608C323.885 122.456 323.903 122.211 324.003 121.93C324.1 121.655 324.257 121.397 324.442 121.216C324.626 121.036 324.808 120.959 324.973 120.959V119.892ZM350.44 123.902C347.311 124.055 337.794 123.484 325.118 119.912L324.828 120.939C337.59 124.536 347.225 125.128 350.492 124.968L350.44 123.902ZM352.187 127.793C353.226 127.643 354.063 126.754 353.823 125.712C353.586 124.683 352.408 123.999 350.493 123.902L350.439 124.967C352.252 125.059 352.719 125.672 352.783 125.952C352.845 126.218 352.64 126.649 352.035 126.736L352.187 127.793ZM345.469 128.226C345.606 128.167 345.948 128.096 346.49 128.033C347.008 127.973 347.645 127.927 348.321 127.892C349.673 127.821 351.158 127.798 352.111 127.798V126.731C351.145 126.731 349.641 126.754 348.266 126.826C347.579 126.861 346.917 126.909 346.367 126.973C345.843 127.034 345.349 127.116 345.047 127.246L345.469 128.226ZM346.017 129.604C345.603 129.426 345.311 129.072 345.222 128.766C345.179 128.619 345.191 128.512 345.22 128.442C345.245 128.38 345.305 128.297 345.469 128.226L345.047 127.246C344.663 127.411 344.38 127.681 344.234 128.032C344.092 128.375 344.103 128.739 344.197 129.064C344.382 129.701 344.913 130.291 345.595 130.584L346.017 129.604ZM353.304 129.74C351.737 129.79 350.096 129.842 348.733 129.833C348.052 129.829 347.45 129.81 346.968 129.769C346.465 129.726 346.156 129.664 346.017 129.604L345.595 130.584C345.909 130.719 346.375 130.789 346.877 130.832C347.4 130.877 348.033 130.896 348.727 130.901C350.113 130.909 351.777 130.856 353.338 130.807L353.304 129.74ZM358.901 129.84C358.681 129.745 358.353 129.709 358.038 129.688C357.693 129.665 357.263 129.657 356.778 129.658C355.807 129.66 354.579 129.699 353.304 129.74L353.338 130.807C354.619 130.766 355.829 130.727 356.78 130.725C357.256 130.724 357.658 130.732 357.967 130.753C358.122 130.763 358.246 130.776 358.34 130.79C358.442 130.806 358.479 130.82 358.479 130.82L358.901 129.84ZM359.416 133.899C359.831 133.752 360.292 133.545 360.684 133.291C361.054 133.052 361.459 132.709 361.614 132.253C361.698 132.006 361.705 131.734 361.603 131.464C361.505 131.203 361.32 130.982 361.087 130.794C360.631 130.426 359.892 130.104 358.83 129.815L358.55 130.845C359.571 131.122 360.136 131.398 360.416 131.624C360.551 131.733 360.593 131.809 360.605 131.841C360.613 131.862 360.614 131.878 360.604 131.909C360.569 132.009 360.427 132.186 360.103 132.396C359.801 132.591 359.422 132.764 359.06 132.893L359.416 133.899ZM328.256 134.733C331.73 135.18 344.577 136.834 359.341 133.919L359.135 132.872C344.546 135.753 331.84 134.118 328.392 133.675L328.256 134.733ZM327.44 134.637C327.439 134.637 327.456 134.637 327.504 134.641C327.547 134.645 327.604 134.652 327.677 134.66C327.821 134.677 328.014 134.702 328.256 134.733L328.392 133.675C328.152 133.644 327.953 133.618 327.801 133.6C327.663 133.584 327.528 133.569 327.44 133.569V134.637ZM328.262 135.928C327.991 135.928 327.82 135.835 327.704 135.718C327.578 135.59 327.489 135.402 327.452 135.19C327.414 134.975 327.439 134.784 327.485 134.673C327.533 134.554 327.541 134.637 327.44 134.637V133.569C326.928 133.569 326.628 133.947 326.496 134.27C326.362 134.601 326.335 135 326.4 135.374C326.466 135.752 326.634 136.154 326.945 136.468C327.265 136.792 327.711 136.995 328.262 136.995V135.928ZM362.638 134.538C357.598 136.164 343.066 138.514 328.355 135.936L328.17 136.987C343.063 139.597 357.771 137.23 362.965 135.554L362.638 134.538ZM369.842 136.729C370.014 136.433 370.186 135.977 370.197 135.489C370.208 134.983 370.042 134.407 369.493 133.999C368.97 133.611 368.187 133.442 367.112 133.508C366.027 133.574 364.572 133.885 362.631 134.541L362.972 135.552C364.868 134.911 366.223 134.632 367.177 134.573C368.141 134.514 368.625 134.684 368.857 134.856C369.061 135.007 369.135 135.212 369.13 135.465C369.123 135.736 369.021 136.017 368.919 136.193L369.842 136.729ZM364.446 139.117C364.792 139.117 365.258 139.028 365.74 138.9C366.233 138.769 366.785 138.585 367.318 138.371C367.849 138.158 368.374 137.91 368.808 137.647C369.22 137.399 369.632 137.09 369.842 136.729L368.919 136.193C368.854 136.304 368.649 136.497 368.256 136.734C367.886 136.958 367.417 137.181 366.92 137.381C366.425 137.58 365.914 137.75 365.466 137.869C365.005 137.991 364.649 138.05 364.446 138.05V139.117ZM329.085 142.654C329.939 142.654 338.333 142.002 346.711 141.237C350.91 140.854 355.121 140.441 358.404 140.064C360.044 139.876 361.458 139.697 362.524 139.534C363.056 139.453 363.508 139.375 363.86 139.301C364.192 139.232 364.493 139.155 364.682 139.062L364.211 138.105C364.16 138.13 363.988 138.184 363.642 138.256C363.317 138.324 362.887 138.399 362.363 138.479C361.316 138.639 359.918 138.816 358.282 139.004C355.011 139.379 350.81 139.791 346.614 140.174C338.202 140.942 329.876 141.587 329.085 141.587L329.085 142.654ZM330.285 143.956C329.429 143.786 328.884 143.567 328.562 143.362C328.233 143.152 328.213 143.008 328.212 142.998C328.212 142.992 328.212 142.98 328.226 142.956C328.243 142.928 328.28 142.884 328.354 142.836C328.503 142.738 328.756 142.654 329.085 142.654L329.085 141.587C328.591 141.587 328.124 141.71 327.768 141.944C327.415 142.176 327.113 142.566 327.148 143.071C327.181 143.562 327.521 143.964 327.988 144.262C328.464 144.565 329.151 144.818 330.077 145.002L330.285 143.956ZM371.426 139.485C368.994 140.183 360.73 141.888 352.036 143.125C347.692 143.743 343.255 144.242 339.397 144.44C335.518 144.639 332.291 144.529 330.328 143.966L330.034 144.992C332.184 145.608 335.57 145.705 339.452 145.506C343.354 145.305 347.826 144.802 352.186 144.182C360.898 142.943 369.218 141.229 371.72 140.511L371.426 139.485ZM375.354 137.444C375.333 137.6 375.32 137.674 375.28 137.754C375.242 137.828 375.159 137.947 374.935 138.108C374.466 138.446 373.487 138.894 371.426 139.485L371.72 140.511C373.793 139.917 374.928 139.429 375.559 138.974C375.886 138.738 376.1 138.497 376.233 138.234C376.362 137.976 376.392 137.737 376.412 137.588L375.354 137.444ZM375.462 136.976C375.391 137.158 375.369 137.335 375.354 137.444L376.412 137.588C376.429 137.462 376.439 137.409 376.457 137.361L375.462 136.976ZM373.275 135.399C373.895 135.859 374.501 136.311 374.938 136.688C375.158 136.878 375.312 137.031 375.4 137.141C375.445 137.198 375.454 137.221 375.452 137.214C375.451 137.213 375.409 137.112 375.462 136.976L376.457 137.361C376.543 137.139 376.49 136.935 376.44 136.813C376.389 136.686 376.311 136.572 376.236 136.478C376.085 136.287 375.869 136.083 375.635 135.88C375.163 135.472 374.521 134.995 373.912 134.542L373.275 135.399ZM371.461 132.402C371.322 132.432 371.071 132.522 370.953 132.795C370.842 133.052 370.933 133.287 370.986 133.394C371.095 133.616 371.315 133.836 371.517 134.02C371.953 134.416 372.625 134.915 373.275 135.399L373.912 134.542C373.244 134.045 372.622 133.582 372.235 133.231C372.14 133.144 372.067 133.072 372.014 133.012C371.957 132.948 371.942 132.919 371.942 132.921C371.944 132.923 371.957 132.951 371.964 132.998C371.971 133.048 371.972 133.129 371.933 133.218C371.893 133.31 371.83 133.371 371.776 133.405C371.728 133.436 371.691 133.444 371.686 133.446L371.461 132.402ZM398.328 119.347C397.018 120.699 393.722 123.025 389.007 125.495C384.307 127.955 378.244 130.534 371.432 132.409L371.715 133.438C378.609 131.541 384.743 128.932 389.502 126.44C394.243 123.957 397.663 121.567 399.094 120.09L398.328 119.347ZM396.866 118.236C396.847 118.253 396.886 118.219 397.042 118.17C397.178 118.128 397.355 118.087 397.556 118.057C397.966 117.996 398.41 117.989 398.736 118.059C398.899 118.094 398.994 118.14 399.041 118.176C399.074 118.202 399.07 118.209 399.071 118.216C399.074 118.243 399.071 118.344 398.959 118.548C398.848 118.749 398.652 119.013 398.328 119.347L399.094 120.09C399.456 119.716 399.722 119.376 399.894 119.063C400.065 118.752 400.165 118.43 400.133 118.111C400.062 117.392 399.419 117.114 398.96 117.015C398.464 116.908 397.88 116.93 397.399 117.002C397.154 117.038 396.921 117.09 396.722 117.152C396.544 117.208 396.326 117.293 396.17 117.427L396.866 118.236ZM366.715 131.094C369.254 130.73 374.723 128.937 380.548 126.55C386.384 124.157 392.662 121.133 396.821 118.271L396.216 117.392C392.151 120.189 385.956 123.179 380.143 125.562C374.317 127.95 368.958 129.694 366.563 130.038L366.715 131.094ZM364.299 127.695C364.1 127.752 363.916 127.869 363.766 127.991C363.609 128.119 363.456 128.277 363.323 128.452C363.07 128.786 362.824 129.264 362.851 129.769C362.865 130.035 362.956 130.304 363.152 130.536C363.344 130.764 363.61 130.927 363.928 131.034C364.549 131.244 365.454 131.275 366.715 131.094L366.563 130.038C365.357 130.211 364.652 130.153 364.27 130.023C364.087 129.961 364.005 129.892 363.968 129.849C363.936 129.811 363.92 129.77 363.917 129.712C363.909 129.569 363.989 129.339 364.173 129.098C364.258 128.986 364.352 128.89 364.438 128.82C364.481 128.785 364.518 128.76 364.548 128.743C364.579 128.725 364.594 128.72 364.593 128.721L364.299 127.695ZM392.232 114.712C391.935 115.172 391.216 115.955 389.978 116.947C388.75 117.932 387.037 119.101 384.782 120.341C380.273 122.821 373.604 125.575 364.328 127.687L364.565 128.728C373.928 126.596 380.692 123.808 385.297 121.276C387.599 120.011 389.364 118.808 390.646 117.78C391.918 116.761 392.74 115.893 393.129 115.291L392.232 114.712ZM390.836 113.52C390.921 113.447 391.117 113.364 391.403 113.346C391.68 113.328 391.963 113.377 392.176 113.479C392.385 113.579 392.482 113.704 392.512 113.833C392.544 113.972 392.532 114.249 392.232 114.712L393.129 115.291C393.515 114.694 393.674 114.116 393.551 113.591C393.427 113.057 393.045 112.711 392.637 112.516C392.233 112.323 391.762 112.254 391.336 112.281C390.921 112.307 390.466 112.43 390.14 112.711L390.836 113.52ZM356.012 126.575C356.114 126.619 356.228 126.64 356.312 126.652C356.409 126.666 356.521 126.675 356.644 126.682C356.892 126.696 357.213 126.699 357.595 126.69C358.359 126.673 359.393 126.608 360.629 126.48C363.102 126.223 366.399 125.711 369.991 124.805C377.153 122.998 385.575 119.603 390.891 113.465L390.084 112.766C384.984 118.655 376.822 121.98 369.73 123.77C366.194 124.662 362.947 125.166 360.519 125.418C359.305 125.544 358.3 125.607 357.57 125.623C357.205 125.632 356.914 125.628 356.703 125.617C356.597 125.611 356.518 125.603 356.463 125.595C356.397 125.586 356.4 125.581 356.433 125.595L356.012 126.575ZM356.771 123.665C355.981 123.665 355.374 124.178 355.168 124.797C355.064 125.11 355.057 125.468 355.201 125.803C355.348 126.143 355.629 126.411 356.012 126.575L356.433 125.595C356.268 125.524 356.207 125.438 356.182 125.381C356.154 125.317 356.148 125.232 356.181 125.133C356.249 124.927 356.465 124.732 356.771 124.732V123.665ZM395.487 102.278C392.369 108.943 382.85 121.326 356.723 123.667L356.819 124.73C383.322 122.355 393.174 109.741 396.453 102.73L395.487 102.278ZM399.965 104.232C400.39 103.647 400.513 103.013 400.345 102.434C400.18 101.869 399.76 101.431 399.241 101.176C398.189 100.659 396.699 100.855 395.568 102.153L396.372 102.854C397.215 101.888 398.191 101.849 398.77 102.134C399.068 102.28 399.253 102.502 399.32 102.732C399.383 102.949 399.362 103.247 399.102 103.605L399.965 104.232ZM395.013 110.151C396.544 108.269 398.935 105.443 399.94 104.265L399.127 103.572C398.122 104.752 395.725 107.586 394.185 109.477L395.013 110.151ZM395.89 111.545C395.578 111.511 395.28 111.477 395.017 111.418C394.742 111.357 394.585 111.284 394.511 111.221C394.482 111.196 394.476 111.181 394.474 111.175C394.472 111.168 394.463 111.138 394.476 111.067C394.506 110.907 394.636 110.615 395.013 110.151L394.185 109.477C393.77 109.988 393.505 110.448 393.427 110.873C393.385 111.095 393.394 111.316 393.466 111.525C393.539 111.735 393.666 111.901 393.814 112.029C394.094 112.27 394.465 112.389 394.784 112.46C395.114 112.534 395.473 112.573 395.772 112.606L395.89 111.545ZM396.63 111.65C396.408 111.603 396.137 111.573 395.89 111.545L395.772 112.606C396.038 112.636 396.248 112.66 396.406 112.694L396.63 111.65ZM401.002 106.698C400.187 107.984 399.245 109.313 398.381 110.285C397.947 110.773 397.55 111.151 397.212 111.39C396.846 111.649 396.669 111.659 396.63 111.65L396.406 112.694C396.915 112.803 397.424 112.548 397.829 112.261C398.262 111.955 398.721 111.508 399.179 110.994C400.096 109.961 401.073 108.579 401.903 107.27L401.002 106.698ZM406.564 106.197C405.93 105.855 404.973 105.332 403.978 105.212C403.466 105.15 402.923 105.19 402.396 105.425C401.867 105.662 401.395 106.077 401.002 106.698L401.903 107.27C402.203 106.797 402.523 106.537 402.832 106.4C403.142 106.261 403.482 106.227 403.849 106.271C404.61 106.363 405.389 106.776 406.057 107.136L406.564 106.197ZM407.146 106.494C407.001 106.432 406.813 106.331 406.564 106.197L406.057 107.136C406.291 107.262 406.526 107.389 406.724 107.474L407.146 106.494ZM401.803 114.162C402.897 113.092 404.539 111.489 405.782 110.096C406.399 109.404 406.94 108.738 407.265 108.204C407.421 107.946 407.561 107.664 407.604 107.397C407.627 107.259 407.63 107.08 407.555 106.902C407.473 106.707 407.323 106.57 407.146 106.494L406.724 107.474C406.673 107.452 406.607 107.399 406.571 107.315C406.542 107.247 406.554 107.206 406.551 107.228C406.542 107.283 406.493 107.419 406.352 107.65C406.082 108.096 405.596 108.7 404.985 109.385C403.772 110.746 402.158 112.323 401.057 113.398L401.803 114.162ZM401.278 114.675C401.433 114.523 401.609 114.351 401.803 114.162L401.057 113.398C400.864 113.587 400.686 113.76 400.53 113.914L401.278 114.675ZM404.595 116.14C404.27 116.233 403.776 116.265 403.225 116.217C402.68 116.169 402.127 116.046 401.691 115.865C401.228 115.673 401.015 115.465 400.957 115.324C400.932 115.262 400.876 115.071 401.278 114.675L400.53 113.914C399.973 114.461 399.711 115.096 399.969 115.727C400.194 116.278 400.751 116.63 401.282 116.851C401.84 117.082 402.503 117.225 403.132 117.28C403.754 117.335 404.392 117.308 404.889 117.166L404.595 116.14ZM409.424 111.55C408.444 112.603 407.41 113.713 406.51 114.592C406.059 115.032 405.651 115.406 405.306 115.682C404.942 115.974 404.707 116.107 404.595 116.14L404.889 117.166C405.227 117.069 405.607 116.808 405.973 116.515C406.358 116.207 406.795 115.806 407.255 115.356C408.177 114.455 409.23 113.325 410.205 112.277L409.424 111.55ZM413.239 108.101C413.041 108.101 412.873 108.191 412.783 108.244C412.671 108.309 412.555 108.395 412.439 108.488C412.205 108.677 411.925 108.94 411.618 109.245C411 109.857 410.229 110.685 409.424 111.55L410.205 112.277C411.016 111.407 411.77 110.596 412.369 110.003C412.669 109.705 412.919 109.473 413.11 109.318C413.207 109.24 413.276 109.192 413.321 109.165C413.387 109.127 413.345 109.168 413.239 109.168V108.101ZM411.12 116.586C412.399 115.485 414.227 113.31 415.154 111.502C415.387 111.046 415.573 110.594 415.676 110.175C415.776 109.765 415.81 109.327 415.669 108.936C415.514 108.508 415.178 108.217 414.717 108.087C414.286 107.967 413.752 107.987 413.134 108.112L413.345 109.158C413.891 109.047 414.232 109.06 414.429 109.115C414.595 109.162 414.64 109.229 414.665 109.299C414.704 109.406 414.717 109.603 414.639 109.922C414.563 110.231 414.416 110.601 414.204 111.015C413.348 112.685 411.613 114.754 410.424 115.776L411.12 116.586ZM399.032 124.843C401.983 123.47 406.809 121.227 411.163 116.544L410.382 115.818C406.179 120.337 401.52 122.508 398.582 123.875L399.032 124.843ZM396.468 126.278C396.467 126.279 396.472 126.265 396.497 126.235C396.521 126.206 396.558 126.167 396.615 126.119C396.731 126.021 396.9 125.908 397.131 125.777C397.595 125.512 398.233 125.215 399.032 124.843L398.582 123.875C397.799 124.24 397.114 124.558 396.603 124.849C396.347 124.995 396.115 125.145 395.928 125.302C395.746 125.455 395.567 125.649 395.472 125.892L396.468 126.278ZM406.69 123.725C403.936 125.146 401.039 126.592 398.941 127.194C398.421 127.343 397.968 127.434 397.59 127.464C397.207 127.495 396.941 127.458 396.769 127.387C396.619 127.325 396.534 127.236 396.483 127.093C396.424 126.926 396.4 126.644 396.493 126.192L395.447 125.978C395.334 126.529 395.328 127.028 395.477 127.45C395.635 127.895 395.95 128.203 396.361 128.373C396.751 128.534 397.207 128.565 397.674 128.528C398.148 128.491 398.676 128.38 399.235 128.219C401.455 127.583 404.451 126.081 407.179 124.673L406.69 123.725ZM417.892 112.772C415.968 115.11 414.116 117.361 412.259 119.279C410.401 121.199 408.566 122.756 406.69 123.725L407.179 124.673C409.206 123.627 411.135 121.975 413.026 120.021C414.918 118.066 416.799 115.781 418.716 113.451L417.892 112.772ZM422.712 107.098C421.044 108.943 419.446 110.885 417.892 112.772L418.716 113.451C420.272 111.56 421.855 109.637 423.504 107.814L422.712 107.098ZM428.608 72.6166C428.671 73.1585 428.691 75.1945 428.588 78.0887C428.486 80.9636 428.264 84.6427 427.854 88.4449C427.444 92.2495 426.848 96.1648 426 99.5172C425.146 102.894 424.057 105.611 422.712 107.098L423.504 107.814C425.037 106.117 426.175 103.175 427.034 99.7789C427.9 96.359 428.503 92.3892 428.915 88.5592C429.328 84.7269 429.551 81.022 429.655 78.1267C429.757 75.2509 429.743 73.1306 429.668 72.4934L428.608 72.6166ZM428.426 70.7072C428.477 71.3079 428.532 71.9615 428.608 72.6166L429.668 72.4934C429.595 71.8577 429.541 71.2206 429.49 70.6174L428.426 70.7072ZM428.105 68.0931C428 68.0476 428.013 67.9839 428.07 68.1275C428.118 68.2456 428.165 68.4296 428.21 68.6886C428.299 69.2043 428.358 69.8996 428.426 70.7072L429.49 70.6174C429.423 69.8277 429.36 69.0789 429.262 68.5071C429.212 68.2223 429.15 67.9516 429.061 67.7296C428.982 67.5331 428.832 67.2438 428.527 67.1127L428.105 68.0931ZM426.921 68.6476C426.977 68.3602 427.065 68.2032 427.139 68.1179C427.209 68.0375 427.286 67.996 427.376 67.975C427.585 67.926 427.865 67.9899 428.105 68.0931L428.527 67.1127C428.218 66.98 427.677 66.8082 427.132 66.936C426.844 67.0034 426.562 67.1536 426.332 67.4194C426.106 67.6805 425.955 68.0246 425.873 68.4446L426.921 68.6476ZM418.621 105.838C419.389 105.574 420.212 105.13 421.023 104.076C421.817 103.042 422.584 101.443 423.306 98.8999C424.749 93.816 426.053 84.8043 426.93 68.575L425.864 68.5173C424.987 84.7363 423.687 93.6466 422.279 98.6085C421.575 101.088 420.855 102.543 420.177 103.425C419.514 104.287 418.877 104.621 418.274 104.829L418.621 105.838ZM415.222 105.588C415.783 105.829 417.046 106.38 418.621 105.838L418.274 104.829C417.108 105.23 416.179 104.838 415.643 104.607L415.222 105.588ZM414.81 99.9768C414.655 100.11 414.544 100.304 414.464 100.469C414.377 100.65 414.297 100.865 414.228 101.097C414.088 101.562 413.978 102.133 413.941 102.705C413.904 103.271 413.936 103.88 414.114 104.4C414.294 104.929 414.65 105.428 415.285 105.611L415.58 104.585C415.392 104.531 415.235 104.382 415.124 104.056C415.01 103.721 414.974 103.269 415.006 102.774C415.037 102.285 415.132 101.795 415.25 101.405C415.308 101.209 415.37 101.049 415.426 100.931C415.49 100.798 415.524 100.77 415.506 100.786L414.81 99.9768ZM415.011 95.4705C415.442 95.5939 415.658 95.8489 415.767 96.197C415.887 96.5796 415.878 97.0895 415.766 97.654C415.655 98.2093 415.456 98.7661 415.252 99.2115C415.15 99.4336 415.049 99.6212 414.963 99.7621C414.919 99.8325 414.882 99.8873 414.851 99.927C414.818 99.9702 414.805 99.9817 414.81 99.9768L415.506 100.786C415.641 100.67 415.767 100.491 415.871 100.322C415.985 100.137 416.105 99.9105 416.221 99.6572C416.454 99.152 416.683 98.515 416.812 97.8617C416.94 97.2177 416.982 96.5043 416.785 95.8773C416.578 95.2158 416.108 94.6749 415.305 94.4446L415.011 95.4705ZM413.701 99.1699C413.719 99.2012 413.716 99.2087 413.704 99.1616C413.693 99.1236 413.681 99.0676 413.668 98.993C413.643 98.8443 413.622 98.6449 413.61 98.412C413.585 97.9444 413.602 97.3749 413.696 96.8496C413.793 96.3093 413.958 95.8901 414.175 95.651C414.275 95.5398 414.381 95.474 414.497 95.4424C414.614 95.4106 414.778 95.4037 415.011 95.4705L415.305 94.4446C414.922 94.3346 414.555 94.3203 414.216 94.4128C413.875 94.5056 413.6 94.6958 413.384 94.9347C412.966 95.3956 412.755 96.0524 412.646 96.6617C412.534 97.286 412.517 97.9398 412.544 98.467C412.557 98.7316 412.583 98.9725 412.616 99.1692C412.632 99.2673 412.651 99.3603 412.674 99.4428C412.694 99.5164 412.726 99.6159 412.778 99.7062L413.701 99.1699ZM410.572 104.323C411.173 103.806 412.026 102.759 412.685 101.805C413.017 101.323 413.316 100.843 413.515 100.443C413.614 100.245 413.699 100.048 413.748 99.8684C413.773 99.7788 413.793 99.6761 413.796 99.5697C413.799 99.4681 413.787 99.3174 413.701 99.1699L412.778 99.7062C412.727 99.6176 412.729 99.5462 412.729 99.5418C412.73 99.5325 412.73 99.5449 412.719 99.5862C412.696 99.6685 412.646 99.7952 412.561 99.9659C412.392 100.303 412.125 100.737 411.807 101.198C411.164 102.13 410.372 103.087 409.876 103.514L410.572 104.323ZM404.87 101.016C405.477 101.625 406.515 102.666 407.521 103.455C408.021 103.846 408.544 104.201 409.024 104.403C409.464 104.589 410.091 104.737 410.572 104.323L409.876 103.514C409.876 103.515 409.876 103.514 409.876 103.514C409.876 103.514 409.875 103.515 409.872 103.516C409.866 103.518 409.847 103.522 409.812 103.521C409.735 103.519 409.613 103.493 409.439 103.42C409.091 103.273 408.656 102.988 408.179 102.615C407.233 101.873 406.241 100.879 405.625 100.263L404.87 101.016ZM404.394 100.55C404.463 100.61 404.621 100.767 404.87 101.016L405.625 100.263C405.397 100.034 405.199 99.8351 405.09 99.741L404.394 100.55ZM405.932 97.5967C405.418 98.0745 404.898 98.5566 404.563 98.9658C404.4 99.1655 404.237 99.3975 404.16 99.6399C404.12 99.7673 404.094 99.9263 404.128 100.098C404.164 100.279 404.259 100.434 404.394 100.55L405.09 99.741C405.125 99.7714 405.162 99.8248 405.175 99.8912C405.186 99.9474 405.173 99.977 405.178 99.9622C405.191 99.9204 405.245 99.8172 405.389 99.6422C405.667 99.3019 406.123 98.8762 406.659 98.378L405.932 97.5967ZM407.1 96.4728C406.736 96.8486 406.329 97.2267 405.932 97.5967L406.659 98.378C407.052 98.0117 407.479 97.6146 407.866 97.2153L407.1 96.4728ZM406.835 93.8309C407.4 93.9391 407.725 94.1033 407.9 94.2587C408.057 94.3983 408.114 94.5465 408.114 94.7217C408.114 94.9196 408.039 95.1806 407.859 95.4968C407.681 95.8083 407.421 96.1413 407.1 96.4728L407.866 97.2153C408.23 96.8394 408.552 96.4354 408.786 96.0248C409.017 95.6188 409.182 95.1723 409.182 94.7217C409.182 94.2484 408.999 93.8071 408.608 93.4604C408.235 93.1293 407.703 92.9103 407.035 92.7827L406.835 93.8309ZM402.926 98.1039C403.473 97.1199 404.127 95.9453 404.854 95.056C405.217 94.6121 405.576 94.2672 405.922 94.0537C406.263 93.8437 406.561 93.7786 406.835 93.8309L407.035 92.7827C406.425 92.6662 405.857 92.8403 405.363 93.145C404.874 93.4461 404.427 93.8913 404.028 94.3806C403.229 95.3573 402.529 96.6205 401.993 97.5856L402.926 98.1039ZM401.8 99.8426C401.99 99.6793 402.174 99.4021 402.338 99.1341C402.514 98.8461 402.713 98.4872 402.926 98.1039L401.993 97.5856C401.776 97.9754 401.589 98.3127 401.427 98.5779C401.253 98.8629 401.148 98.9959 401.104 99.0335L401.8 99.8426ZM398.515 97.3322C398.799 97.8613 399.273 98.631 399.776 99.2058C400.023 99.4875 400.311 99.7639 400.619 99.9249C400.777 100.007 400.968 100.075 401.181 100.075C401.406 100.074 401.621 99.9966 401.8 99.8426L401.104 99.0335C401.119 99.021 401.15 99.0076 401.179 99.0075C401.194 99.0075 401.176 99.0116 401.114 98.9792C400.983 98.9108 400.799 98.7538 400.579 98.503C400.15 98.0127 399.72 97.3203 399.455 96.8276L398.515 97.3322ZM399.822 85.0533C399.822 88.2083 398.917 94.3119 398.459 96.99L399.511 97.1698C399.967 94.5027 400.889 88.3125 400.889 85.0533H399.822ZM401.182 81.4109C401.125 81.3975 401.034 81.3754 400.943 81.3648C400.848 81.3537 400.711 81.3487 400.562 81.3984C400.217 81.5134 400.072 81.8181 400 82.0652C399.927 82.3193 399.886 82.6696 399.86 83.1314C399.834 83.6028 399.822 84.2283 399.822 85.0533H400.889C400.889 84.2342 400.901 83.6322 400.926 83.1908C400.951 82.7398 400.988 82.492 401.026 82.3611C401.066 82.2233 401.063 82.3561 400.9 82.4107C400.841 82.4303 400.803 82.423 400.819 82.4247C400.837 82.4269 400.866 82.4329 400.939 82.45L401.182 81.4109ZM401.452 81.454C401.374 81.454 401.3 81.4385 401.182 81.4109L400.939 82.45C401.049 82.4758 401.235 82.5213 401.452 82.5213V81.454ZM402.682 85.433C402.612 84.5418 402.542 83.6452 402.434 82.9722C402.38 82.6399 402.313 82.3251 402.216 82.0822C402.168 81.9623 402.1 81.8242 401.996 81.708C401.886 81.5856 401.704 81.454 401.452 81.454V82.5213C401.307 82.5213 401.221 82.4425 401.2 82.4194C401.185 82.4026 401.198 82.4105 401.224 82.4769C401.276 82.6068 401.33 82.8265 401.38 83.1412C401.48 83.762 401.547 84.609 401.618 85.5167L402.682 85.433ZM403.261 89.2285C403.216 89.1652 403.152 89.0208 403.085 88.7625C403.021 88.5156 402.965 88.2076 402.915 87.8517C402.816 87.1393 402.749 86.2848 402.682 85.433L401.618 85.5167C401.684 86.3594 401.754 87.2484 401.858 87.9988C401.911 88.3744 401.973 88.7276 402.052 89.0307C402.127 89.3222 402.23 89.6164 402.385 89.839L403.261 89.2285ZM405.305 89.0621C405.305 88.9803 405.342 89.0336 405.156 89.1785C405 89.2995 404.766 89.4181 404.499 89.4905C403.932 89.6445 403.479 89.5409 403.261 89.2285L402.385 89.839C402.99 90.7057 404.044 90.72 404.779 90.5203C405.163 90.4159 405.529 90.2397 405.81 90.0217C406.06 89.8276 406.372 89.4977 406.372 89.0621H405.305ZM405.308 88.8019C405.306 88.9185 405.305 89.0093 405.305 89.0621H406.372C406.372 89.0193 406.373 88.939 406.375 88.8175L405.308 88.8019ZM403.725 76.1109C404.133 76.8648 404.449 77.9219 404.685 79.1423C404.92 80.3552 405.07 81.6949 405.165 82.993C405.355 85.589 405.32 87.9831 405.308 88.8019L406.375 88.8175C406.387 87.9945 406.423 85.5609 406.23 82.9153C406.133 81.5926 405.979 80.2079 405.733 78.9395C405.489 77.6785 405.148 76.4972 404.663 75.602L403.725 76.1109ZM400.825 76.1109C400.965 75.8518 401.161 75.5693 401.391 75.3339C401.624 75.0953 401.865 74.9324 402.092 74.8642C402.3 74.802 402.517 74.8104 402.766 74.9566C403.033 75.1141 403.366 75.4504 403.725 76.1109L404.663 75.602C404.253 74.8475 403.803 74.3291 403.307 74.037C402.792 73.7337 402.266 73.6979 401.786 73.842C401.325 73.9802 400.934 74.2742 400.628 74.5883C400.318 74.9056 400.066 75.2716 399.887 75.602L400.825 76.1109ZM398.19 67.2036C398.394 69.0008 398.619 70.9946 398.888 72.6389C399.022 73.4605 399.168 74.2081 399.332 74.8071C399.413 75.1064 399.502 75.3788 399.599 75.6094C399.693 75.8319 399.81 76.0531 399.965 76.2198L400.747 75.4931C400.717 75.4614 400.658 75.3741 400.582 75.1946C400.51 75.0231 400.436 74.7998 400.361 74.5265C400.212 73.9801 400.073 73.2745 399.941 72.4671C399.678 70.8537 399.455 68.8878 399.25 67.0833L398.19 67.2036ZM397.639 62.9881C397.813 63.8875 397.99 65.4419 398.19 67.2036L399.25 67.0833C399.053 65.3445 398.871 63.7365 398.687 62.7851L397.639 62.9881ZM401.986 62.8866C401.986 62.2966 401.6 61.8066 401.199 61.4787C400.782 61.1371 400.239 60.8773 399.706 60.7714C399.19 60.6689 398.561 60.6908 398.098 61.0892C397.608 61.5105 397.484 62.1893 397.639 62.9881L398.687 62.7851C398.567 62.1689 398.718 61.9634 398.794 61.8983C398.896 61.8103 399.123 61.7438 399.498 61.8182C399.856 61.8892 400.238 62.0715 400.523 62.3047C400.825 62.5516 400.919 62.7691 400.919 62.8866H401.986ZM403.645 71.314C403.651 71.314 403.606 71.3147 403.505 71.2455C403.407 71.1782 403.284 71.0624 403.147 70.8842C402.872 70.5281 402.58 69.9749 402.336 69.2342C401.85 67.7579 401.58 65.6027 401.98 62.9665L400.925 62.8066C400.502 65.5942 400.78 67.9195 401.322 69.5677C401.593 70.3893 401.934 71.0594 402.302 71.5361C402.486 71.7743 402.686 71.9772 402.9 72.1244C403.111 72.2699 403.365 72.3812 403.645 72.3812V71.314ZM404.511 62.094C404.573 63.2422 404.705 65.7114 404.584 67.8631C404.523 68.9456 404.4 69.9052 404.19 70.5673C404.083 70.9013 403.97 71.1121 403.868 71.2261C403.783 71.3218 403.738 71.3208 403.702 71.317L403.588 72.3781C404.037 72.4264 404.403 72.2303 404.665 71.9358C404.911 71.6595 405.081 71.2849 405.207 70.8905C405.459 70.0957 405.588 69.0259 405.65 67.923C405.774 65.7038 405.638 63.1778 405.576 62.0365L404.511 62.094ZM404.482 61.4717C404.482 61.5731 404.495 61.8028 404.511 62.094L405.576 62.0365C405.559 61.7221 405.55 61.5355 405.55 61.4717H404.482ZM408.308 85.3727C408.356 82.1551 408.476 74.2921 408.177 68.1678C408.029 65.1261 407.776 62.4437 407.336 60.9852C407.225 60.6192 407.091 60.2863 406.917 60.0374C406.747 59.7952 406.455 59.5198 406.027 59.5515C405.642 59.5802 405.356 59.8516 405.158 60.1095C404.944 60.3874 404.735 60.7749 404.526 61.2601L405.506 61.6832C405.701 61.2321 405.868 60.9368 406.004 60.7604C406.155 60.5639 406.193 60.6094 406.106 60.6158C405.978 60.6254 405.96 60.5313 406.042 60.6493C406.12 60.7605 406.215 60.9665 406.314 61.2933C406.71 62.6061 406.962 65.1573 407.111 68.2198C407.408 74.3041 407.289 82.1325 407.241 85.3565L408.308 85.3727ZM408.291 86.704C408.291 86.491 408.298 86.0324 408.308 85.3727L407.241 85.3565C407.231 86.0103 407.223 86.4806 407.223 86.704H408.291ZM408.217 88.0266C408.249 87.6794 408.291 87.2447 408.291 86.704H407.223C407.223 87.1901 407.187 87.581 407.154 87.9263L408.217 88.0266ZM409.921 90.2386C408.833 89.6775 408.441 89.362 408.285 89.113C408.154 88.9039 408.154 88.6939 408.217 88.0266L407.154 87.9263C407.1 88.5033 407.023 89.1081 407.38 89.6793C407.713 90.2107 408.374 90.6413 409.431 91.187L409.921 90.2386ZM410.514 62.9115C410.742 67.779 410.947 75.0052 410.821 80.8679C410.759 83.8037 410.613 86.3755 410.352 88.1346C410.219 89.0243 410.064 89.6568 409.898 90.0204C409.812 90.2087 409.753 90.2556 409.755 90.2542C409.765 90.2475 409.797 90.23 409.845 90.2274C409.867 90.2262 409.886 90.2286 409.901 90.232C409.914 90.2353 409.921 90.2389 409.921 90.2386L409.431 91.187C409.569 91.2579 409.729 91.3025 409.903 91.2931C410.078 91.2835 410.233 91.2213 410.36 91.1336C410.597 90.9704 410.756 90.7111 410.869 90.4635C411.101 89.955 411.273 89.1962 411.407 88.2917C411.679 86.4624 411.826 83.8345 411.888 80.8907C412.014 74.9941 411.808 67.7412 411.58 62.8616L410.514 62.9115ZM410.663 57.0915C410.291 57.4758 410.094 57.9843 409.996 58.5C409.897 59.0189 409.89 59.5868 409.932 60.1386C410.016 61.2414 410.302 62.3595 410.542 63.0592L411.551 62.7139C411.334 62.0773 411.072 61.0495 410.996 60.0574C410.958 59.5618 410.969 59.0951 411.044 58.6997C411.12 58.3012 411.254 58.0157 411.43 57.8341L410.663 57.0915ZM415.142 85.8082C415.282 84.2395 415.418 76.4879 415.006 69.4582C414.8 65.9458 414.455 62.5752 413.896 60.2348C413.619 59.079 413.274 58.1013 412.82 57.4899C412.589 57.1795 412.292 56.9111 411.91 56.8052C411.508 56.6939 411.114 56.7891 410.762 57.0115L411.331 57.9141C411.493 57.8122 411.578 57.8208 411.625 57.8336C411.69 57.8519 411.808 57.9183 411.963 58.1265C412.28 58.5524 412.586 59.3469 412.858 60.483C413.394 62.7263 413.735 66.0175 413.94 69.5206C414.351 76.5219 414.212 84.2163 414.079 85.7132L415.142 85.8082ZM414.904 87.4876C414.989 86.9912 415.087 86.4238 415.142 85.8082L414.079 85.7132C414.028 86.28 413.938 86.8072 413.852 87.3076L414.904 87.4876ZM417.351 90.1792C416.489 90.1792 415.9 90.1033 415.502 89.9789C415.115 89.8577 414.946 89.7031 414.859 89.5603C414.765 89.4049 414.715 89.1777 414.728 88.8148C414.741 88.4493 414.813 88.0199 414.904 87.4876L413.852 87.3076C413.765 87.8184 413.677 88.3249 413.661 88.7767C413.645 89.2309 413.697 89.7021 413.947 90.1147C414.206 90.54 414.626 90.823 415.184 90.9975C415.731 91.1687 416.444 91.2464 417.351 91.2464V90.1792ZM357.402 19.7878C358.088 19.6805 363.276 19.4248 370.414 20.2768C377.538 21.1272 386.551 23.0756 394.905 27.3409C403.253 31.6032 410.929 38.1705 415.425 48.262C419.922 58.3557 421.267 72.0399 416.832 90.5887L417.87 90.8369C422.344 72.1268 421.017 58.1911 416.4 47.8277C411.781 37.4622 403.9 30.7354 395.39 26.3904C386.886 22.0484 377.738 20.0763 370.54 19.2171C363.355 18.3594 358.058 18.6049 357.237 18.7334L357.402 19.7878ZM356.188 21.8493C355.381 21.4443 354.954 21.1182 354.768 20.8846C354.681 20.7745 354.674 20.7193 354.674 20.7137C354.673 20.7113 354.673 20.7112 354.674 20.7093C354.675 20.7063 354.68 20.6938 354.696 20.672C354.782 20.5581 355.032 20.3865 355.543 20.2112C356.029 20.0448 356.663 19.9033 357.402 19.7878L357.237 18.7334C356.468 18.8537 355.765 19.0069 355.197 19.2016C354.655 19.3874 354.134 19.6432 353.843 20.0305C353.684 20.2424 353.587 20.503 353.61 20.7966C353.632 21.0794 353.76 21.3318 353.934 21.5496C354.27 21.9719 354.871 22.3827 355.709 22.8031L356.188 21.8493ZM413.151 51.28C412.163 48.5449 409.001 39.7868 400.489 32.4059C391.959 25.0091 378.119 19.0482 355.883 21.7966L356.014 22.8558C377.981 20.1406 391.511 26.0328 399.79 33.2122C408.087 40.4075 411.174 48.9488 412.147 51.6426L413.151 51.28ZM413.427 52.0067C413.428 52.0092 413.421 51.9958 413.403 51.9541C413.386 51.9158 413.366 51.865 413.341 51.7997C413.291 51.6685 413.229 51.4964 413.151 51.28L412.147 51.6426C412.224 51.8553 412.29 52.0381 412.344 52.1806C412.394 52.3101 412.449 52.4475 412.504 52.543L413.427 52.0067ZM409.215 52.543C409.884 53.6952 411.128 54.1162 412.08 54.045C412.548 54.01 413.044 53.8482 413.357 53.4854C413.521 53.2948 413.627 53.0546 413.638 52.7801C413.649 52.5112 413.568 52.2493 413.427 52.0067L412.504 52.543C412.569 52.6541 412.573 52.7164 412.572 52.7367C412.571 52.7516 412.568 52.7656 412.548 52.7887C412.493 52.8533 412.32 52.9568 412 52.9807C411.376 53.0274 410.564 52.741 410.137 52.0067L409.215 52.543ZM380.345 26.1612C380.62 26.1612 381.102 26.2675 381.796 26.5353C382.475 26.7975 383.313 27.1964 384.283 27.7371C386.222 28.8179 388.664 30.4507 391.386 32.6458C396.829 37.0355 403.369 43.6568 409.23 52.5681L410.122 51.9816C404.195 42.9708 397.578 36.2686 392.056 31.8151C389.296 29.5887 386.803 27.92 384.802 26.8048C383.802 26.2475 382.918 25.8247 382.18 25.5397C381.456 25.2604 380.824 25.094 380.345 25.094V26.1612ZM380.245 27.4616C379.184 27.6644 378.843 27.1445 378.82 26.9275C378.807 26.8059 378.849 26.6414 379.052 26.4848C379.265 26.3208 379.668 26.1612 380.345 26.1612V25.094C379.515 25.094 378.856 25.2881 378.4 25.64C377.935 25.9992 377.703 26.5127 377.759 27.0396C377.873 28.1195 379.039 28.7788 380.445 28.5099L380.245 27.4616ZM405.531 52.1341C405.368 51.5387 404.887 50.692 404.23 49.7147C403.559 48.7175 402.664 47.5256 401.615 46.2219C399.518 43.6136 396.792 40.5358 393.989 37.6371C391.189 34.7403 388.3 32.0093 385.879 30.1017C384.671 29.1497 383.561 28.3877 382.624 27.9147C382.156 27.6785 381.711 27.5039 381.306 27.4199C380.905 27.337 380.488 27.3313 380.121 27.5016L380.569 28.4699C380.647 28.4339 380.804 28.406 381.089 28.465C381.369 28.5229 381.72 28.6542 382.143 28.8674C382.987 29.2935 384.033 30.0053 385.219 30.9399C387.586 32.8053 390.437 35.4981 393.222 38.3788C396.005 41.2576 398.709 44.311 400.784 46.8907C401.821 48.181 402.697 49.3472 403.344 50.3102C404.005 51.2932 404.39 52.0087 404.501 52.4156L405.531 52.1341ZM403.645 56.8173C404.218 56.8173 404.971 56.5388 405.429 55.7501C405.88 54.9738 405.988 53.8052 405.531 52.1341L404.501 52.4156C404.921 53.9515 404.754 54.7874 404.507 55.2138C404.266 55.6278 403.895 55.7501 403.645 55.7501V56.8173ZM399.661 52.793C399.856 52.7451 400.111 52.7874 400.445 52.9889C400.778 53.1898 401.133 53.5166 401.487 53.9264C402.193 54.744 402.814 55.7981 403.166 56.5183L404.125 56.0491C403.746 55.2758 403.078 54.1368 402.295 53.229C401.904 52.7761 401.464 52.3572 400.996 52.0751C400.53 51.7937 399.979 51.6159 399.406 51.7566L399.661 52.793ZM401.866 57.126C401.238 56.3542 400.404 55.188 399.918 54.1876C399.669 53.6761 399.545 53.2733 399.539 53.0124C399.537 52.8901 399.562 52.8453 399.567 52.8371C399.569 52.8336 399.573 52.8295 399.581 52.8237C399.592 52.8171 399.615 52.8043 399.661 52.793L399.406 51.7566C399.108 51.83 398.85 51.9886 398.678 52.2461C398.514 52.4933 398.467 52.7757 398.472 53.0347C398.483 53.5363 398.694 54.1122 398.958 54.6539C399.495 55.7602 400.387 56.9992 401.038 57.7996L401.866 57.126ZM394.888 57.4628C394.888 57.7888 394.988 58.0849 395.192 58.3248C395.388 58.5558 395.649 58.6978 395.914 58.7853C396.431 58.9559 397.087 58.9597 397.736 58.8958C399.052 58.7661 400.605 58.3266 401.629 57.9661L401.275 56.9594C400.289 57.3064 398.827 57.7159 397.631 57.8337C397.023 57.8936 396.549 57.8709 396.249 57.7719C396.105 57.7245 396.037 57.6708 396.005 57.6338C395.981 57.6056 395.955 57.5613 395.955 57.4628H394.888ZM377.553 39.0933C379.208 39.6318 381.525 40.3841 384.436 42.9269C387.36 45.4816 390.908 49.8657 394.947 57.7072L395.896 57.2184C391.817 49.301 388.195 44.7937 385.138 42.1232C382.067 39.4409 379.591 38.6342 377.883 38.0784L377.553 39.0933ZM374.997 37.7552C375.298 38.1254 375.688 38.3732 376.115 38.5696C376.535 38.763 377.029 38.9229 377.553 39.0933L377.883 38.0784C377.341 37.9022 376.912 37.762 376.561 37.6002C376.216 37.4413 375.985 37.2787 375.825 37.0816L374.997 37.7552ZM375.759 34.2522C375.423 34.3918 375.086 34.5311 374.816 34.6875C374.548 34.8423 374.258 35.0626 374.116 35.4111C373.966 35.7777 374.028 36.1594 374.186 36.5236C374.341 36.8821 374.616 37.2863 374.997 37.7552L375.825 37.0816C375.463 36.6374 375.262 36.323 375.165 36.0991C375.07 35.8809 375.103 35.8166 375.104 35.8151C375.112 35.7957 375.152 35.7261 375.351 35.6109C375.547 35.4973 375.811 35.3865 376.169 35.2377L375.759 34.2522ZM377.077 33.647C376.609 33.8988 376.165 34.0837 375.759 34.2522L376.169 35.2377C376.572 35.0703 377.061 34.8671 377.583 34.587L377.077 33.647ZM397.035 48.879C394.91 46.5594 390.929 42.2145 387.043 38.7218C385.103 36.978 383.164 35.4257 381.476 34.4451C380.633 33.9556 379.826 33.5925 379.094 33.4292C378.364 33.2663 377.642 33.2889 377.045 33.6657L377.615 34.5683C377.882 34.3997 378.279 34.3408 378.862 34.4708C379.443 34.6005 380.142 34.9048 380.94 35.368C382.532 36.2927 384.406 37.7866 386.33 39.5155C390.171 42.9683 394.118 47.2753 396.248 49.5999L397.035 48.879ZM398.511 50.4554C398.451 50.4039 398.295 50.2439 398.029 49.9589C397.773 49.6846 397.438 49.319 397.035 48.879L396.248 49.5999C396.65 50.0385 396.988 50.4082 397.248 50.6869C397.498 50.955 397.7 51.1659 397.815 51.2645L398.511 50.4554ZM399.131 49.3241C399.339 49.5626 399.342 49.9947 399.121 50.3321C399.019 50.4889 398.907 50.5585 398.83 50.5771C398.778 50.5897 398.675 50.5969 398.511 50.4554L397.815 51.2645C398.199 51.5946 398.645 51.7197 399.081 51.6145C399.492 51.5151 399.809 51.231 400.014 50.9161C400.411 50.3102 400.55 49.3275 399.936 48.6227L399.131 49.3241ZM352.97 25.3538C352.945 25.3721 352.954 25.3584 353.044 25.3336C353.123 25.3116 353.236 25.2889 353.387 25.2682C353.689 25.2269 354.104 25.1988 354.625 25.1912C355.665 25.1759 357.091 25.2424 358.808 25.4285C362.239 25.8008 366.803 26.6484 371.716 28.2571C381.551 31.4774 392.715 37.7226 399.066 49.2312L400.001 48.7156C393.468 36.8784 382.018 30.5074 372.048 27.2428C367.058 25.609 362.421 24.747 358.923 24.3675C357.174 24.1779 355.703 24.108 354.609 24.1241C354.063 24.1321 353.602 24.1616 353.243 24.2108C353.063 24.2354 352.9 24.2661 352.76 24.3048C352.63 24.3406 352.476 24.3945 352.348 24.4865L352.97 25.3538ZM364.972 30.0325C361.384 29.0513 357.297 27.933 354.641 26.9227C353.98 26.671 353.418 26.4302 352.982 26.2046C352.531 25.9719 352.264 25.7804 352.142 25.6435C352.083 25.5775 352.095 25.5653 352.102 25.605C352.112 25.6679 352.086 25.7204 352.075 25.7343C352.075 25.7352 352.083 25.7239 352.112 25.7032C352.14 25.6827 352.182 25.6566 352.243 25.6268C352.367 25.5664 352.546 25.5013 352.794 25.4364L352.524 24.4039C352.235 24.4796 351.984 24.566 351.776 24.6675C351.573 24.7665 351.377 24.8959 351.236 25.0746C351.083 25.2695 351.006 25.5122 351.048 25.7735C351.086 26.0115 351.213 26.2058 351.345 26.3535C351.604 26.6439 352.019 26.9085 352.492 27.1528C352.979 27.4042 353.581 27.6612 354.262 27.9202C356.977 28.9532 361.123 30.0864 364.69 31.0619L364.972 30.0325ZM372.113 32.2392C371.87 32.0998 371.501 31.9524 371.067 31.8002C370.622 31.6446 370.075 31.4725 369.453 31.2876C368.209 30.9178 366.645 30.4902 364.972 30.0325L364.69 31.0619C366.368 31.5207 367.919 31.9448 369.149 32.3106C369.764 32.4934 370.293 32.66 370.714 32.8075C371.145 32.9584 371.432 33.0787 371.582 33.165L372.113 32.2392ZM369.629 37.1833C370.472 36.7401 371.65 35.9842 372.373 35.1579C372.727 34.7526 373.044 34.2495 373.059 33.6996C373.077 33.0844 372.721 32.5877 372.113 32.2392L371.582 33.165C371.961 33.3824 371.996 33.5618 371.993 33.6692C371.988 33.842 371.873 34.1082 371.569 34.4556C370.976 35.1345 369.934 35.8171 369.132 36.2386L369.629 37.1833ZM357.319 35.8297C360.336 35.8297 366.541 36.7638 369.29 37.2368L369.471 36.1851C366.738 35.7148 360.443 34.7624 357.319 34.7624V35.8297ZM337.235 33.7125C337.149 33.7858 337.028 33.9162 336.986 34.1124C336.938 34.3373 337.017 34.5306 337.12 34.6591C337.212 34.7727 337.327 34.8449 337.414 34.8908C337.507 34.94 337.611 34.98 337.715 35.0138C338.12 35.1449 338.745 35.2459 339.489 35.3289C340.998 35.4973 343.166 35.6083 345.481 35.682C350.116 35.8297 355.401 35.8297 357.319 35.8297V34.7624C355.4 34.7624 350.131 34.7624 345.515 34.6153C343.204 34.5417 341.071 34.4316 339.608 34.2683C338.866 34.1855 338.336 34.0931 338.044 33.9985C337.974 33.9759 337.932 33.9575 337.91 33.9461C337.883 33.9315 337.913 33.9412 337.952 33.9899C338.003 34.0537 338.063 34.18 338.029 34.3358C338.015 34.401 337.989 34.4481 337.97 34.4764C337.95 34.504 337.934 34.5184 337.931 34.5215L337.235 33.7125ZM350.471 32.3429C348.127 32.4201 345.136 32.5185 342.606 32.7043C341.343 32.7971 340.182 32.9126 339.27 33.0603C338.814 33.134 338.409 33.2176 338.078 33.3143C337.767 33.4051 337.45 33.5268 337.235 33.7125L337.931 34.5215C337.961 34.4951 338.086 34.4238 338.377 34.3387C338.649 34.2594 339.006 34.184 339.44 34.1138C340.307 33.9735 341.431 33.8607 342.684 33.7687C345.188 33.5847 348.157 33.4869 350.506 33.4095L350.471 32.3429ZM354.239 32.1725C353.731 32.2348 352.322 32.2819 350.471 32.3429L350.506 33.4095C352.318 33.3498 353.799 33.3017 354.369 33.2317L354.239 32.1725ZM352.385 30.8775C353.641 30.8775 354.402 31.3651 354.649 31.7325C354.708 31.8197 354.729 31.8858 354.734 31.9252C354.739 31.9603 354.732 31.9749 354.728 31.9824C354.721 31.996 354.636 32.1236 354.239 32.1725L354.369 33.2317C354.931 33.1626 355.428 32.9365 355.669 32.4859C355.918 32.0208 355.79 31.5168 355.535 31.1366C355.028 30.3839 353.87 29.8103 352.385 29.8103V30.8775ZM315.501 39.8039C318.654 37.7189 330.931 29.5908 352.353 30.8766L352.417 29.8113C330.668 28.5059 318.159 36.7671 314.912 38.9137L315.501 39.8039ZM314.822 40.2394C314.979 40.1492 315.214 39.9934 315.501 39.8039L314.912 38.9137C314.61 39.1139 314.411 39.2448 314.291 39.3137L314.822 40.2394ZM317.327 41.8964C316.175 42.491 315.277 42.1296 314.822 41.6072C314.583 41.334 314.477 41.0315 314.482 40.7903C314.486 40.5717 314.58 40.3784 314.822 40.2394L314.291 39.3137C313.711 39.6463 313.427 40.19 313.415 40.7673C313.403 41.3219 313.639 41.8742 314.017 42.3085C314.795 43.201 316.227 43.665 317.817 42.8447L317.327 41.8964ZM334.151 34.7817C331.556 35.4994 324.591 37.9196 317.316 41.9025L317.828 42.8386C325.026 38.898 331.914 36.5076 334.435 35.8104L334.151 34.7817ZM323.282 42.8529C327.683 40.7708 330.498 39.1455 332.231 37.9523C333.097 37.3563 333.704 36.8608 334.107 36.4625C334.308 36.2637 334.467 36.0808 334.582 35.9143C334.69 35.7586 334.792 35.5727 334.821 35.3728L333.765 35.2193C333.771 35.1767 333.779 35.2 333.705 35.3064C333.639 35.402 333.528 35.5341 333.357 35.7037C333.014 36.0423 332.462 36.498 331.626 37.0732C329.956 38.2224 327.197 39.8199 322.826 41.8882L323.282 42.8529ZM300.266 71.9992C301.439 68.0403 304.157 61.6644 308.111 55.8162C312.075 49.9545 317.219 44.7135 323.21 42.8808L322.898 41.8603C316.554 43.8006 311.236 49.2893 307.227 55.2184C303.209 61.161 300.445 67.6371 299.242 71.696L300.266 71.9992ZM303.993 54.0759C302.231 56.9043 299.856 60.7146 298.517 64.129C297.849 65.8323 297.416 67.4934 297.477 68.9144C297.54 70.3685 298.128 71.6088 299.509 72.3217L299.999 71.3734C299.034 70.8752 298.593 70.0336 298.543 68.8685C298.491 67.6704 298.861 66.1752 299.511 64.5186C300.807 61.2134 303.123 57.4901 304.899 54.6401L303.993 54.0759ZM306.607 50.4503C306.58 50.4503 306.513 50.4454 306.435 50.4009C306.35 50.3523 306.294 50.2798 306.264 50.2103C306.219 50.1046 306.251 50.0459 306.232 50.1274C306.202 50.2629 306.097 50.5171 305.891 50.9086C305.49 51.6708 304.812 52.7612 303.993 54.0759L304.899 54.6401C305.708 53.3411 306.412 52.2108 306.836 51.4057C307.042 51.0136 307.21 50.6475 307.274 50.3587C307.303 50.2281 307.338 50.0062 307.245 49.7903C307.192 49.6657 307.099 49.5514 306.965 49.4748C306.839 49.4022 306.709 49.3831 306.607 49.3831V50.4503ZM295.536 66.749C296.074 65.4419 298.023 61.3083 300.299 57.5065C301.437 55.6047 302.645 53.8065 303.788 52.4903C304.36 51.8316 304.902 51.3097 305.397 50.9564C305.901 50.5974 306.303 50.4503 306.607 50.4503V49.3831C305.982 49.3831 305.359 49.6724 304.778 50.0876C304.188 50.5084 303.583 51.0984 302.982 51.7906C301.779 53.1761 300.534 55.0358 299.383 56.9584C297.08 60.8053 295.107 64.9864 294.549 66.343L295.536 66.749ZM306.345 44.2471C303.572 47.1349 299.876 50.9814 297.248 54.9522C294.646 58.8843 292.954 63.1427 294.554 66.7618L295.53 66.3302C294.176 63.2675 295.548 59.4559 298.138 55.5411C300.703 51.665 304.328 47.8877 307.115 44.9863L306.345 44.2471ZM310.185 39.7766C310.185 39.7606 310.188 39.7873 310.151 39.8734C310.116 39.9542 310.059 40.0607 309.971 40.1953C309.796 40.4648 309.53 40.8034 309.18 41.2098C308.482 42.0218 307.496 43.0481 306.345 44.2471L307.115 44.9863C308.258 43.7958 309.267 42.7451 309.989 41.906C310.35 41.4869 310.651 41.1063 310.865 40.7773C310.973 40.6126 311.065 40.4501 311.132 40.2937C311.197 40.1426 311.252 39.9641 311.252 39.7766H310.185ZM297.258 45.2988C299.861 43.3518 303.267 40.8063 306.016 39.3904C306.7 39.0382 307.33 38.7628 307.888 38.5844C308.451 38.4042 308.907 38.3336 309.253 38.3607C309.585 38.3867 309.786 38.4978 309.918 38.6676C310.062 38.8534 310.185 39.1883 310.185 39.7766H311.252C311.252 39.0618 311.106 38.4575 310.76 38.0125C310.402 37.5516 309.891 37.3403 309.336 37.2968C308.795 37.2544 308.189 37.3673 307.562 37.568C306.93 37.7704 306.243 38.0734 305.528 38.4416C302.682 39.9071 299.198 42.515 296.619 44.4442L297.258 45.2988ZM293.679 47.8041C294.022 47.6404 294.527 47.3018 295.118 46.8797C295.72 46.4491 296.451 45.9025 297.258 45.2988L296.619 44.4442C295.808 45.0503 295.088 45.589 294.497 46.0115C293.894 46.4424 293.464 46.7244 293.219 46.8412L293.679 47.8041ZM290.341 46.9351C289.992 47.2659 289.723 47.5428 289.53 47.7714C289.352 47.9826 289.188 48.208 289.122 48.4292C289.087 48.5454 289.055 48.7394 289.151 48.9401C289.255 49.1569 289.444 49.2521 289.583 49.289C289.713 49.3238 289.841 49.3211 289.937 49.3121C290.04 49.3025 290.148 49.2816 290.253 49.2558C290.663 49.1551 291.223 48.931 291.809 48.6734C292.405 48.4115 293.063 48.0985 293.679 47.8041L293.219 46.8412C292.602 47.1364 291.958 47.4423 291.38 47.6964C290.792 47.9546 290.308 48.1432 289.998 48.2194C289.924 48.2377 289.871 48.2464 289.838 48.2494C289.799 48.2531 289.814 48.2462 289.858 48.258C289.91 48.2718 290.04 48.3251 290.114 48.4791C290.18 48.6169 290.147 48.7271 290.144 48.7364C290.142 48.7439 290.174 48.6634 290.345 48.4601C290.502 48.2743 290.739 48.028 291.075 47.7103L290.341 46.9351ZM342.655 25.2865C336.608 25.8316 312.862 27.972 290.364 46.9145L291.052 47.7309C313.293 29.0046 336.765 26.8889 342.751 26.3494L342.655 25.2865ZM343.7 25.3594C343.758 25.259 343.834 25.2072 343.863 25.1888C343.897 25.1669 343.925 25.1559 343.934 25.1523C343.953 25.145 343.958 25.1453 343.935 25.1502C343.893 25.1592 343.818 25.171 343.698 25.1854C343.462 25.2137 343.116 25.245 342.655 25.2865L342.751 26.3494C343.204 26.3086 343.57 26.2757 343.825 26.245C343.951 26.2299 344.067 26.2135 344.158 26.1938C344.203 26.1844 344.26 26.1703 344.318 26.1483C344.346 26.1372 344.389 26.1188 344.435 26.0893C344.476 26.0635 344.56 26.004 344.623 25.8958L343.7 25.3594ZM344.136 24.924C344.065 24.9822 343.986 25.0463 343.92 25.1054C343.866 25.1532 343.767 25.2445 343.7 25.3595L344.623 25.8957C344.605 25.9269 344.59 25.9407 344.597 25.9336C344.601 25.9291 344.612 25.9183 344.632 25.8999C344.675 25.8618 344.731 25.8156 344.81 25.7521L344.136 24.924ZM339.174 22.8571C341.15 23.0571 342.493 23.2976 343.383 23.5498C344.303 23.8105 344.639 24.0573 344.738 24.1889C344.758 24.2148 344.763 24.2298 344.764 24.2337C344.765 24.237 344.766 24.239 344.765 24.2432C344.764 24.2557 344.756 24.2998 344.701 24.3809C344.582 24.5562 344.37 24.7337 344.136 24.9239L344.81 25.7521C345.014 25.586 345.361 25.3096 345.584 24.9792C345.701 24.8075 345.809 24.5859 345.829 24.3254C345.851 24.0498 345.769 23.7822 345.589 23.545C345.263 23.1134 344.62 22.7913 343.674 22.523C342.697 22.2463 341.284 21.998 339.281 21.7953L339.174 22.8571ZM349.376 39.9017C336.208 38.7394 325.732 44.1197 318.501 51.3234C311.29 58.508 307.256 67.5584 307.014 73.8384L308.08 73.8795C308.309 67.9324 312.184 59.124 319.255 52.0795C326.306 45.0541 336.486 39.8352 349.282 40.9648L349.376 39.9017ZM395.823 82.4948C395.281 67.3175 382.257 42.8042 349.376 39.9017L349.282 40.9648C381.564 43.8144 394.231 67.828 394.756 82.5328L395.823 82.4948ZM354.803 119.448C382.24 114.119 396.37 97.811 395.823 82.4948L394.756 82.5328C395.277 97.0987 381.779 113.121 354.6 118.4L354.803 119.448ZM307.014 73.8384C305.808 105.189 329.499 124.362 354.803 119.448L354.6 118.4C330.032 123.172 306.899 104.606 308.08 73.8795L307.014 73.8384ZM294.554 66.7618C294.573 66.8028 294.591 66.8438 294.61 66.8846L295.578 66.4346C295.562 66.3999 295.546 66.3651 295.53 66.3302L294.554 66.7618ZM294.624 66.4073C294.559 66.5281 294.518 66.5986 294.497 66.632C294.481 66.6567 294.492 66.6355 294.522 66.6043C294.531 66.5943 294.551 66.5743 294.58 66.5525C294.603 66.5351 294.668 66.4893 294.764 66.4647C294.878 66.4358 295.059 66.4342 295.222 66.5611C295.359 66.6684 295.399 66.8054 295.411 66.8578C295.434 66.9601 295.419 67.0414 295.419 67.0415C295.417 67.0523 295.416 67.0602 295.415 67.0641C295.414 67.0683 295.413 67.0707 295.413 67.0709C295.413 67.0712 295.414 67.0674 295.417 67.0585C295.42 67.05 295.424 67.0386 295.429 67.0241C295.45 66.9642 295.485 66.8728 295.536 66.749L294.549 66.343C294.495 66.4735 294.452 66.5849 294.422 66.6708C294.407 66.7126 294.392 66.7573 294.381 66.7992C294.376 66.8195 294.369 66.8492 294.364 66.8829C294.362 66.8973 294.346 66.9891 294.371 67.098C294.384 67.1536 294.425 67.2929 294.564 67.4016C294.728 67.5297 294.911 67.5285 295.027 67.499C295.127 67.4737 295.194 67.4262 295.221 67.4061C295.254 67.3816 295.278 67.358 295.292 67.3432C295.34 67.2932 295.376 67.2369 295.394 67.2095C295.44 67.1386 295.497 67.0369 295.564 66.9119L294.624 66.4073Z" fill="#104469"/>
</svg>
