<svg width="579" height="341" viewBox="0 0 579 341" fill="none" xmlns="http://www.w3.org/2000/svg">
<circle cx="275.163" cy="59.2535" r="0.832599" fill="black"/>
<circle cx="273.498" cy="64.2491" r="0.832599" fill="black"/>
<circle cx="279.326" cy="55.0904" r="0.832599" fill="black"/>
<circle cx="284.322" cy="49.2623" r="0.832599" fill="black"/>
<circle cx="285.154" cy="56.7559" r="0.832599" fill="black"/>
<circle cx="276.828" cy="63.4166" r="0.832599" fill="black"/>
<circle cx="274.33" cy="72.5753" r="0.832599" fill="black"/>
<circle cx="271.833" cy="81.7335" r="0.832599" fill="black"/>
<circle cx="275.996" cy="80.901" r="0.832599" fill="black"/>
<circle cx="281.824" cy="65.0816" r="0.832599" fill="black"/>
<circle cx="286.819" cy="61.7515" r="0.832599" fill="black"/>
<circle cx="292.648" cy="51.7603" r="0.832599" fill="black"/>
<circle cx="307.634" cy="44.2667" r="0.832599" fill="black"/>
<circle cx="295.145" cy="60.086" r="0.832599" fill="black"/>
<circle cx="290.982" cy="63.4166" r="0.832599" fill="black"/>
<circle cx="287.652" cy="70.0772" r="0.832599" fill="black"/>
<circle cx="285.987" cy="78.4034" r="0.832599" fill="black"/>
<circle cx="298.476" cy="66.7467" r="0.832599" fill="black"/>
<circle cx="293.48" cy="78.4034" r="0.832599" fill="black"/>
<circle cx="298.476" cy="83.399" r="0.832599" fill="black"/>
<circle cx="295.978" cy="90.8922" r="0.832599" fill="black"/>
<circle cx="292.648" cy="90.8922" r="0.832599" fill="black"/>
<circle cx="304.304" cy="84.2315" r="0.832599" fill="black"/>
<circle cx="306.802" cy="76.7379" r="0.832599" fill="black"/>
<circle cx="288.485" cy="87.5621" r="0.832599" fill="black"/>
<circle cx="303.471" cy="56.7559" r="0.832599" fill="black"/>
<circle cx="304.304" cy="67.5797" r="0.832599" fill="black"/>
<circle cx="310.132" cy="66.7467" r="0.832599" fill="black"/>
<circle cx="311.797" cy="62.5841" r="0.832599" fill="black"/>
<circle cx="309.3" cy="58.421" r="0.832599" fill="black"/>
<circle cx="303.471" cy="61.7515" r="0.832599" fill="black"/>
<circle cx="310.965" cy="50.9273" r="0.832599" fill="black"/>
<circle cx="318.458" cy="48.4298" r="0.832599" fill="black"/>
<circle cx="305.137" cy="35.9405" r="0.832599" fill="black"/>
<circle cx="308.467" cy="30.1124" r="0.832599" fill="black"/>
<circle cx="315.96" cy="38.4386" r="0.832599" fill="black"/>
<circle cx="325.119" cy="36.7735" r="0.832599" fill="black"/>
<circle cx="330.115" cy="31.7779" r="0.832599" fill="black"/>
<circle cx="316.793" cy="31.7779" r="0.832599" fill="black"/>
<circle cx="321.789" cy="27.6148" r="0.832599" fill="black"/>
<circle cx="329.282" cy="44.2667" r="0.832599" fill="black"/>
<circle cx="331.78" cy="37.606" r="0.832599" fill="black"/>
<circle cx="343.436" cy="38.4386" r="0.832599" fill="black"/>
<circle cx="340.938" cy="30.9449" r="0.832599" fill="black"/>
<circle cx="352.595" cy="32.6104" r="0.832599" fill="black"/>
<circle cx="360.088" cy="35.108" r="0.832599" fill="black"/>
<circle cx="349.264" cy="40.9361" r="0.832599" fill="black"/>
<circle cx="323.454" cy="24.2843" r="0.832599" fill="black"/>
<circle cx="332.612" cy="24.2843" r="0.832599" fill="black"/>
<circle cx="345.934" cy="23.4517" r="0.832599" fill="black"/>
<circle cx="338.441" cy="26.7823" r="0.832599" fill="black"/>
<circle cx="351.762" cy="26.7823" r="0.832599" fill="black"/>
<circle cx="362.586" cy="40.9361" r="0.832599" fill="black"/>
<circle cx="372.577" cy="40.9361" r="0.832599" fill="black"/>
<circle cx="374.242" cy="48.4298" r="0.832599" fill="black"/>
<circle cx="363.418" cy="29.2799" r="0.832599" fill="black"/>
<circle cx="373.41" cy="27.6148" r="0.832599" fill="black"/>
<circle cx="385.066" cy="38.4386" r="0.832599" fill="black"/>
<circle cx="385.066" cy="30.1124" r="0.832599" fill="black"/>
<circle cx="397.555" cy="36.7735" r="0.832599" fill="black"/>
<circle cx="397.555" cy="30.9449" r="0.832599" fill="black"/>
<circle cx="409.211" cy="37.606" r="0.832599" fill="black"/>
<circle cx="410.044" cy="46.7647" r="0.832599" fill="black"/>
<circle cx="417.537" cy="50.0948" r="0.832599" fill="black"/>
<circle cx="411.709" cy="52.5929" r="0.832599" fill="black"/>
<circle cx="405.048" cy="53.4254" r="0.832599" fill="black"/>
<circle cx="399.22" cy="57.5885" r="0.832599" fill="black"/>
<circle cx="391.727" cy="67.5797" r="0.832599" fill="black"/>
<circle cx="397.555" cy="66.7467" r="0.832599" fill="black"/>
<circle cx="400.885" cy="66.7467" r="0.832599" fill="black"/>
<circle cx="419.203" cy="55.0904" r="0.832599" fill="black"/>
<circle cx="419.203" cy="63.4166" r="0.832599" fill="black"/>
<circle cx="413.374" cy="62.5841" r="0.832599" fill="black"/>
<circle cx="410.044" cy="60.086" r="0.832599" fill="black"/>
<circle cx="411.709" cy="72.5753" r="0.832599" fill="black"/>
<circle cx="420.035" cy="72.5753" r="0.832599" fill="black"/>
<circle cx="415.04" cy="82.5665" r="0.832599" fill="black"/>
<circle cx="417.537" cy="87.5621" r="0.832599" fill="black"/>
<circle cx="425.863" cy="73.4078" r="0.832599" fill="black"/>
<circle cx="424.198" cy="87.5621" r="0.832599" fill="black"/>
<circle cx="428.361" cy="83.399" r="0.832599" fill="black"/>
<circle cx="422.533" cy="100.883" r="0.832599" fill="black"/>
<circle cx="420.868" cy="106.712" r="0.832599" fill="black"/>
<circle cx="415.872" cy="99.2183" r="0.832599" fill="black"/>
<circle cx="410.877" cy="103.381" r="0.832599" fill="black"/>
<circle cx="406.714" cy="95.0553" r="0.832599" fill="black"/>
<circle cx="408.379" cy="86.7291" r="0.832599" fill="black"/>
<circle cx="404.216" cy="78.4034" r="0.832599" fill="black"/>
<circle cx="398.388" cy="86.7291" r="0.832599" fill="black"/>
<circle cx="399.22" cy="94.2222" r="0.832599" fill="black"/>
<circle cx="399.22" cy="105.046" r="0.832599" fill="black"/>
<circle cx="400.053" cy="110.042" r="0.832599" fill="black"/>
<circle cx="405.048" cy="110.875" r="0.832599" fill="black"/>
<circle cx="404.216" cy="121.699" r="0.832599" fill="black"/>
<circle cx="394.225" cy="123.364" r="0.832599" fill="black"/>
<circle cx="388.396" cy="111.708" r="0.832599" fill="black"/>
<circle cx="391.727" cy="103.381" r="0.832599" fill="black"/>
<circle cx="378.405" cy="114.205" r="0.832599" fill="black"/>
<circle cx="375.908" cy="119.201" r="0.832599" fill="black"/>
<circle cx="383.401" cy="120.033" r="0.832599" fill="black"/>
<circle cx="388.396" cy="117.536" r="0.832599" fill="black"/>
<circle cx="389.229" cy="122.531" r="0.832599" fill="black"/>
<circle cx="396.723" cy="118.368" r="0.832599" fill="black"/>
<circle cx="383.401" cy="128.359" r="0.832599" fill="black"/>
<circle cx="377.573" cy="127.527" r="0.832599" fill="black"/>
<circle cx="378.405" cy="124.196" r="0.832599" fill="black"/>
<circle cx="371.744" cy="125.029" r="0.832599" fill="black"/>
<circle cx="370.079" cy="120.033" r="0.832599" fill="black"/>
<circle cx="365.084" cy="117.536" r="0.832599" fill="black"/>
<circle cx="355.925" cy="120.033" r="0.832599" fill="black"/>
<circle cx="346.767" cy="122.531" r="0.832599" fill="black"/>
<circle cx="353.427" cy="127.527" r="0.832599" fill="black"/>
<circle cx="344.269" cy="129.192" r="0.832599" fill="black"/>
<circle cx="355.092" cy="134.187" r="0.832599" fill="black"/>
<circle cx="340.106" cy="135.02" r="0.832599" fill="black"/>
<circle cx="329.282" cy="136.685" r="0.832599" fill="black"/>
<circle cx="346.767" cy="137.518" r="0.832599" fill="black"/>
<circle cx="360.088" cy="139.183" r="0.832599" fill="black"/>
<circle cx="352.595" cy="143.346" r="0.832599" fill="black"/>
<circle cx="342.604" cy="140.848" r="0.832599" fill="black"/>
<circle cx="336.775" cy="143.346" r="0.832599" fill="black"/>
<circle cx="375.075" cy="137.518" r="0.832599" fill="black"/>
<circle cx="340.106" cy="119.201" r="0.832599" fill="black"/>
<circle cx="333.445" cy="121.699" r="0.832599" fill="black"/>
<circle cx="327.617" cy="124.196" r="0.832599" fill="black"/>
<circle cx="331.78" cy="129.192" r="0.832599" fill="black"/>
<circle cx="320.123" cy="119.201" r="0.832599" fill="black"/>
<circle cx="329.282" cy="115.871" r="0.832599" fill="black"/>
<circle cx="322.621" cy="111.708" r="0.832599" fill="black"/>
<circle cx="318.458" cy="105.879" r="0.832599" fill="black"/>
<circle cx="312.63" cy="110.042" r="0.832599" fill="black"/>
<circle cx="309.3" cy="101.716" r="0.832599" fill="black"/>
<circle cx="310.132" cy="93.3902" r="0.832599" fill="black"/>
<circle cx="305.969" cy="103.381" r="0.832599" fill="black"/>
<circle cx="305.969" cy="109.21" r="0.832599" fill="black"/>
<circle cx="310.132" cy="116.703" r="0.832599" fill="black"/>
<circle cx="320.956" cy="133.355" r="0.832599" fill="black"/>
<circle cx="315.128" cy="131.69" r="0.832599" fill="black"/>
<circle cx="308.467" cy="125.029" r="0.832599" fill="black"/>
<circle cx="299.308" cy="121.699" r="0.832599" fill="black"/>
<circle cx="298.476" cy="115.871" r="0.832599" fill="black"/>
<circle cx="292.648" cy="110.875" r="0.832599" fill="black"/>
<circle cx="285.987" cy="97.5533" r="0.832599" fill="black"/>
<circle cx="288.485" cy="105.046" r="0.832599" fill="black"/>
<circle cx="280.159" cy="87.5621" r="0.832599" fill="black"/>
<circle cx="282.656" cy="81.7335" r="0.832599" fill="black"/>
<circle cx="272.665" cy="90.8922" r="0.832599" fill="black"/>
<circle cx="280.159" cy="98.3853" r="0.832599" fill="black"/>
<circle cx="280.159" cy="106.712" r="0.832599" fill="black"/>
<circle cx="286.819" cy="112.54" r="0.832599" fill="black"/>
<circle cx="293.48" cy="124.196" r="0.832599" fill="black"/>
<circle cx="302.639" cy="129.192" r="0.832599" fill="black"/>
<circle cx="311.797" cy="138.35" r="0.832599" fill="black"/>
<circle cx="414.207" cy="112.54" r="0.832599" fill="black"/>
<circle cx="400.053" cy="44.2667" r="0.832599" fill="black"/>
<circle cx="394.225" cy="43.4342" r="0.832599" fill="black"/>
<circle cx="389.229" cy="47.5972" r="0.832599" fill="black"/>
<circle cx="383.401" cy="56.7559" r="0.832599" fill="black"/>
<circle cx="390.062" cy="55.9229" r="0.832599" fill="black"/>
<circle cx="381.736" cy="42.6016" r="0.832599" fill="black"/>
<circle cx="376.74" cy="34.2755" r="0.832599" fill="black"/>
<circle cx="286.819" cy="44.2667" r="0.832599" fill="black"/>
<circle cx="296.811" cy="41.7691" r="0.832599" fill="black"/>
<circle cx="296.811" cy="36.7735" r="0.832599" fill="black"/>
<circle cx="303.471" cy="40.9361" r="0.832599" fill="black"/>
<circle cx="385.066" cy="24.2843" r="0.832599" fill="black"/>
</svg>
