<svg width="1347" height="500" viewBox="0 0 1347 500" fill="none" xmlns="http://www.w3.org/2000/svg">
<path d="M523.263 386.75C529.569 387.353 543.841 385.729 551.209 377.793C553.997 374.822 553.2 369.16 542.049 366.004C538.53 364.983 533.287 364.148 527.91 364.009C522.467 363.916 517.024 364.565 512.908 366.7L523.263 386.75ZM523.263 386.75C519.745 386.425 516.161 385.404 513.107 384.012C510.054 382.619 507.664 380.856 506.469 379.139L523.263 386.75ZM506.668 370.924C504.943 372.92 504.08 375.658 506.469 379.139L506.668 370.924ZM506.668 370.924C508.394 368.975 511.049 367.629 512.709 366.793L506.668 370.924ZM506.668 370.924L512.709 366.793L506.668 370.924ZM512.643 366.793C512.709 366.747 512.775 366.747 512.775 366.747L512.643 366.793Z" fill="#8B92D2" fill-opacity="0.4" stroke="#5A5999" stroke-width="2"/>
<path d="M523.33 386.147C529.37 386.704 542.845 385.126 549.815 377.7C552.47 374.822 551.674 369.485 541.12 366.468C534.482 364.612 521.405 363.173 513.439 367.164C510.386 368.696 502.885 372.316 507.333 378.953C509.523 382.248 516.559 385.451 523.33 386.147Z" fill="#5A5999"/>
<path d="M523.396 385.822C529.304 386.379 542.381 384.847 549.152 377.607C551.807 374.776 550.944 369.624 540.721 366.7C534.283 364.89 521.604 363.498 513.838 367.397C510.917 368.882 503.549 372.409 507.864 378.86C510.054 382.063 516.891 385.172 523.396 385.822Z" fill="#949BD9" stroke="#5C629B" stroke-width="1.1294" stroke-miterlimit="10" stroke-linecap="round" stroke-linejoin="round"/>
<path d="M526.582 379.324C534.614 378.025 536.473 374.265 532.025 371.713C527.512 369.16 522.732 368.417 517.223 371.666C511.647 375.008 519.015 380.531 526.582 379.324Z" fill="#406296" stroke="#2D3368" stroke-width="1.1294" stroke-miterlimit="10" stroke-linecap="round" stroke-linejoin="round"/>
<path opacity="0.5" d="M525.255 379.046C531.296 378.071 532.69 375.286 529.304 373.337C525.919 371.434 522.334 370.877 518.219 373.291C514.103 375.751 519.679 379.928 525.255 379.046Z" fill="#6277C2"/>
</svg>
