<svg width="1347" height="500" viewBox="0 0 1347 500" fill="none" xmlns="http://www.w3.org/2000/svg">
<path d="M880.263 386.714C886.568 387.503 900.839 385.381 908.207 375.015C910.995 371.135 910.198 363.74 899.047 359.618C895.529 358.284 890.285 357.193 884.909 357.011C879.466 356.89 874.023 357.739 869.908 360.527L880.263 386.714ZM880.263 386.714C876.745 386.29 873.16 384.957 870.107 383.138C867.054 381.319 864.664 379.016 863.469 376.773L880.263 386.714ZM863.668 366.043C861.943 368.65 861.08 372.227 863.469 376.773L863.668 366.043ZM863.668 366.043C865.394 363.497 868.049 361.739 869.709 360.648L863.668 366.043ZM863.668 366.043L869.709 360.648L863.668 366.043ZM869.642 360.648C869.709 360.588 869.775 360.588 869.775 360.588L869.642 360.648Z" fill="#8B92D2" fill-opacity="0.4" stroke="#5A5999" stroke-width="2"/>
<path d="M880.329 385.927C886.369 386.654 899.844 384.593 906.813 374.894C909.468 371.136 908.672 364.164 898.118 360.224C891.48 357.799 878.404 355.92 870.439 361.133C867.386 363.134 859.885 367.862 864.332 376.531C866.523 380.835 873.559 385.017 880.329 385.927Z" fill="#5A5999"/>
<path d="M880.396 385.502C886.303 386.229 899.379 384.229 906.15 374.772C908.805 371.075 907.942 364.346 897.72 360.527C891.282 358.163 878.604 356.344 870.838 361.436C867.917 363.376 860.549 367.983 864.864 376.409C867.054 380.592 873.891 384.653 880.396 385.502Z" fill="#949BD9" stroke="#5C629B" stroke-width="1.1294" stroke-miterlimit="10" stroke-linecap="round" stroke-linejoin="round"/>
<path d="M883.582 377.015C891.613 375.318 893.472 370.408 889.025 367.074C884.511 363.74 879.732 362.77 874.223 367.013C868.647 371.378 876.015 378.591 883.582 377.015Z" fill="#406296" stroke="#2D3368" stroke-width="1.1294" stroke-miterlimit="10" stroke-linecap="round" stroke-linejoin="round"/>
<path opacity="0.5" d="M882.254 376.652C888.294 375.379 889.688 371.742 886.303 369.196C882.918 366.71 879.333 365.983 875.218 369.135C871.103 372.348 876.678 377.804 882.254 376.652Z" fill="#6277C2"/>
</svg>
