<svg width="1347" height="500" viewBox="0 0 1347 500" fill="none" xmlns="http://www.w3.org/2000/svg">
<path d="M1105.03 144.387C1111.6 145.113 1126.47 143.158 1134.15 133.604C1137.05 130.029 1136.22 123.212 1124.6 119.413C1120.94 118.184 1115.47 117.178 1109.87 117.011C1104.2 116.899 1098.53 117.681 1094.24 120.251L1105.03 144.387ZM1105.03 144.387C1101.36 143.996 1097.63 142.767 1094.45 141.091C1091.27 139.415 1088.78 137.292 1087.53 135.224L1105.03 144.387ZM1087.74 125.335C1085.94 127.738 1085.04 131.034 1087.53 135.224L1087.74 125.335ZM1087.74 125.335C1089.54 122.989 1092.3 121.369 1094.03 120.363L1087.74 125.335ZM1087.74 125.335L1094.03 120.363L1087.74 125.335ZM1093.96 120.363C1094.03 120.307 1094.1 120.307 1094.1 120.307L1093.96 120.363Z" fill="#8B92D2" fill-opacity="0.4" stroke="#5A5999" stroke-width="2"/>
<path d="M1105.1 143.661C1111.39 144.331 1125.43 142.432 1132.7 133.493C1135.46 130.029 1134.63 123.604 1123.64 119.972C1116.72 117.737 1103.09 116.005 1094.79 120.81C1091.61 122.654 1083.8 127.012 1088.43 135.001C1090.71 138.968 1098.04 142.823 1105.1 143.661Z" fill="#5A5999"/>
<path d="M1105.17 143.27C1111.32 143.94 1124.95 142.097 1132.01 133.381C1134.77 129.973 1133.87 123.771 1123.22 120.251C1116.51 118.072 1103.3 116.396 1095.21 121.089C1092.17 122.877 1084.49 127.123 1088.98 134.889C1091.27 138.744 1098.39 142.488 1105.17 143.27Z" fill="#949BD9" stroke="#5C629B" stroke-width="1.1294" stroke-miterlimit="10" stroke-linecap="round" stroke-linejoin="round"/>
<path d="M1108.49 135.448C1116.86 133.884 1118.79 129.358 1114.16 126.285C1109.46 123.212 1104.48 122.319 1098.74 126.229C1092.93 130.252 1100.6 136.901 1108.49 135.448Z" fill="#406296" stroke="#2D3368" stroke-width="1.1294" stroke-miterlimit="10" stroke-linecap="round" stroke-linejoin="round"/>
<path opacity="0.5" d="M1107.11 135.113C1113.4 133.939 1114.85 130.587 1111.32 128.241C1107.8 125.95 1104.06 125.28 1099.77 128.185C1095.49 131.146 1101.3 136.174 1107.11 135.113Z" fill="#6277C2"/>
</svg>
