<svg width="1347" height="500" viewBox="0 0 1347 500" fill="none" xmlns="http://www.w3.org/2000/svg">
<path d="M313.727 143.345C319.503 143.964 332.575 142.297 339.323 134.153C341.877 131.105 341.147 125.295 330.933 122.057C327.711 121.009 322.908 120.152 317.983 120.009C312.998 119.914 308.013 120.58 304.243 122.771L313.727 143.345ZM313.727 143.345C310.505 143.012 307.222 141.964 304.426 140.535C301.629 139.106 299.44 137.297 298.346 135.535L313.727 143.345ZM298.528 127.105C296.947 129.153 296.157 131.963 298.346 135.535L298.528 127.105ZM298.528 127.105C300.109 125.105 302.541 123.724 304.061 122.866L298.528 127.105ZM298.528 127.105L304.061 122.866L298.528 127.105ZM304 122.866C304.061 122.819 304.122 122.819 304.122 122.819L304 122.866Z" fill="#8B92D2" fill-opacity="0.4" stroke="#5A5999" stroke-width="2"/>
<path d="M313.789 142.726C319.321 143.297 331.663 141.678 338.047 134.058C340.479 131.105 339.749 125.629 330.083 122.533C324.003 120.628 312.026 119.151 304.73 123.247C301.933 124.819 295.063 128.534 299.137 135.344C301.143 138.725 307.588 142.012 313.789 142.726Z" fill="#5A5999"/>
<path d="M313.849 142.392C319.26 142.964 331.237 141.392 337.438 133.963C339.87 131.058 339.08 125.771 329.717 122.771C323.82 120.914 312.208 119.485 305.094 123.485C302.419 125.009 295.671 128.629 299.623 135.249C301.629 138.535 307.891 141.726 313.849 142.392Z" fill="#949BD9" stroke="#5C629B" stroke-width="1.1294" stroke-miterlimit="10" stroke-linecap="round" stroke-linejoin="round"/>
<path d="M316.768 135.725C324.124 134.391 325.826 130.534 321.753 127.914C317.619 125.295 313.241 124.533 308.195 127.867C303.088 131.296 309.837 136.963 316.768 135.725Z" fill="#406296" stroke="#2D3368" stroke-width="1.1294" stroke-miterlimit="10" stroke-linecap="round" stroke-linejoin="round"/>
<path opacity="0.5" d="M315.552 135.439C321.084 134.439 322.361 131.582 319.26 129.581C316.16 127.629 312.877 127.057 309.107 129.534C305.338 132.058 310.445 136.344 315.552 135.439Z" fill="#6277C2"/>
</svg>
