<svg width="1112" height="482" viewBox="0 0 1112 482" fill="none" xmlns="http://www.w3.org/2000/svg">
<path d="M383.541 410.263C396.349 402.463 404.447 392.388 401.629 387.761C398.811 383.133 386.143 385.705 373.335 393.506C360.527 401.306 352.429 411.38 355.247 416.008C358.065 420.635 370.733 418.063 383.541 410.263Z" fill="#9CC09B" stroke="#50844E" stroke-width="1.73365" stroke-miterlimit="10"/>
<path d="M360.364 403.955L363.789 401.901C363.789 401.901 363.409 401.47 364.966 400.49C366.778 399.351 366.869 399.972 366.869 399.972L370.241 397.937C370.241 397.937 369.512 397.547 371.569 396.233C373.681 394.884 373.823 395.693 373.823 395.693L377.03 393.729C377.03 393.729 376.504 393.366 378.086 392.419C379.669 391.473 379.763 392.016 379.763 392.016L388.429 386.712L389.211 386.606L379.892 392.212C379.892 392.212 380.322 392.463 378.9 393.369C377.294 394.393 377.162 393.906 377.162 393.906L373.933 395.916C373.933 395.916 374.335 396.247 372.579 397.395C370.456 398.783 370.377 398.096 370.377 398.096L367.098 400.133C367.098 400.133 367.476 400.589 365.903 401.594C364.117 402.733 363.943 402.087 363.943 402.087L359.607 404.681L360.364 403.955Z" fill="#50844E" stroke="black" stroke-width="0.0541765" stroke-miterlimit="10"/>
<path d="M354.705 415.125L359.599 411.949C359.599 411.949 359.037 411.746 360.852 410.546C362.595 409.392 362.742 409.942 362.742 409.942L367.347 406.918C367.347 406.918 366.782 406.559 368.856 405.21C370.794 403.95 371.131 404.476 371.131 404.476L377.982 400.098C378.134 400.027 378.266 400.226 378.142 400.339L371.266 404.669C371.266 404.669 371.464 405.03 369.668 406.264C367.683 407.628 367.485 407.092 367.485 407.092L362.86 410.162C362.86 410.162 363.117 410.509 361.584 411.545C359.81 412.744 359.74 412.104 359.74 412.104L354.843 415.331L354.705 415.125Z" fill="#50844E" stroke="black" stroke-width="0.0541765" stroke-miterlimit="10"/>
<path d="M357.376 407.334C357.376 407.334 365.7 402.524 368.426 400.843C371.191 399.138 379.343 393.789 379.343 393.789C379.436 393.769 379.513 393.863 379.474 393.95L379.463 393.976C379.463 393.976 371.015 399.513 368.147 401.275C365.47 402.92 357.298 407.62 357.298 407.62L357.376 407.334Z" fill="#50844E" stroke="black" stroke-width="0.0541765" stroke-miterlimit="10"/>
<path d="M361.103 418.279L379.219 406.077L389.919 398.588C390.012 398.568 390.089 398.661 390.051 398.748L390.039 398.774L379.092 406.516L361.386 418.346L361.103 418.279Z" fill="#50844E" stroke="black" stroke-width="0.0541765" stroke-miterlimit="10"/>
<path d="M396.146 385.363L395.759 385.37L393.437 386.793C393.437 386.793 393.206 386.124 391.431 387.392C390.104 388.34 390.499 388.692 390.499 388.692L388.375 390.154C388.375 390.154 388.137 389.392 386.582 390.507C385.069 391.592 385.733 392.003 385.733 392.003L383.52 393.374C383.52 393.374 383.449 392.781 381.591 393.964C380.168 394.87 380.6 395.359 380.6 395.359C380.6 395.359 379.953 395.636 379.914 395.944C379.877 396.241 380.303 396.704 380.381 396.786L377.912 398.496C377.912 398.496 377.72 397.853 375.925 399.084C374.343 400.169 374.739 400.611 374.739 400.611L370.108 403.515C370.108 403.515 369.952 402.975 367.985 404.234C366.169 405.397 366.413 406.047 366.413 406.047L361.98 408.931C361.98 408.931 361.946 408.465 360.33 409.571C358.901 410.55 359.234 410.764 359.234 410.764L354.58 413.662L354.603 413.973L359.37 410.956C359.37 410.956 359.437 411.351 361.029 410.324C362.621 409.296 362.118 409.104 362.118 409.104L366.553 406.204C366.553 406.204 366.642 406.649 368.765 405.192C370.833 403.773 370.292 403.718 370.292 403.718L374.976 400.763C374.976 400.763 375.081 401.385 376.903 400.152C378.47 399.093 378.072 398.676 378.072 398.676L380.192 397.179L380.587 396.927C380.635 396.894 380.649 396.84 380.638 396.792L380.659 396.792C380.659 396.792 380.644 396.777 380.62 396.753C380.611 396.739 380.6 396.728 380.587 396.719C380.428 396.554 380.069 396.154 380.14 395.979C380.187 395.862 380.759 395.527 380.759 395.527C380.759 395.527 381.01 396.126 382.718 394.99C384.205 394 383.688 393.543 383.688 393.543L385.869 392.16C385.869 392.16 386.038 392.805 387.595 391.655C388.884 390.703 388.5 390.369 388.5 390.369L390.636 388.866C390.636 388.866 390.661 389.485 392.286 388.37C393.894 387.266 393.573 386.985 393.573 386.985L396.146 385.363Z" fill="#50844E" stroke="black" stroke-width="0.0541765" stroke-miterlimit="10"/>
<path d="M399.462 385.991L399.212 385.87L395.378 388.517C395.378 388.517 395.38 388.189 394.014 389.028C392.363 390.042 392.732 390.289 392.732 390.289C392.732 390.289 385.179 395.379 385.127 395.416C384.153 396.101 383.857 395.961 383.77 395.846L383.787 395.825C383.787 395.825 383.308 395.548 384.645 394.68C384.683 394.655 385.993 393.796 386.094 393.724C386.275 393.594 386.511 393.456 386.511 393.456C386.511 393.456 386.658 394.045 388.366 392.908C389.854 391.917 389.442 391.471 389.442 391.471L392.241 389.539C392.241 389.539 392.325 389.962 393.883 388.812C395.173 387.86 394.873 387.746 394.873 387.746L398.344 385.537L398.007 385.469L394.749 387.531C394.749 387.531 394.617 386.902 393.061 388.018C391.546 389.104 392.105 389.382 392.105 389.382L389.274 391.301C389.274 391.301 389.265 390.77 387.406 391.953C385.982 392.86 386.352 393.287 386.352 393.287L385.343 393.912C385.343 393.912 383.662 394.942 383.501 395.427C383.442 395.603 383.47 395.742 383.515 395.839L383.512 395.841C383.512 395.841 383.61 396.167 384.005 396.198C384.521 396.239 386.103 395.062 386.103 395.062L392.83 390.48C392.83 390.48 392.89 391.117 394.464 390.119C396.081 389.094 395.536 388.72 395.536 388.72L399.462 385.991Z" fill="#50844E" stroke="black" stroke-width="0.0541765" stroke-miterlimit="10"/>
<path d="M383.328 405.497C382.805 405.455 381.207 406.62 381.207 406.62L378.933 408.111C378.933 408.111 378.444 407.858 377.001 408.803C375.292 409.924 375.909 410.084 375.909 410.084L371.453 413.151C371.453 413.151 371.419 412.602 369.907 413.584C368.267 414.65 368.718 414.957 368.718 414.957L363.792 418.14L364.349 418.077L368.942 415.194C368.942 415.194 368.968 415.579 370.339 414.684C371.993 413.604 371.588 413.246 371.588 413.246L376.005 410.311C376.005 410.311 376.232 410.744 377.757 409.738C379.46 408.616 379.068 408.319 379.068 408.319C379.068 408.319 382.146 406.309 382.207 406.267C383.121 405.642 383.457 405.699 383.579 405.799C383.619 405.884 383.687 405.988 383.69 406.003C383.779 406.505 383.434 406.639 383.25 406.834L382.087 407.64L379.764 409.111C379.764 409.111 379.275 408.858 377.833 409.804C376.123 410.924 376.741 411.084 376.741 411.084L372.285 414.152C372.285 414.152 372.25 413.602 370.738 414.585C369.098 415.65 369.549 415.958 369.549 415.958L367.199 417.476L367.886 417.379L369.774 416.195C369.774 416.195 369.799 416.58 371.171 415.685C372.825 414.605 372.419 414.246 372.419 414.246L376.836 411.311C376.836 411.311 377.063 411.744 378.589 410.739C380.292 409.616 379.899 409.32 379.899 409.32C379.899 409.32 382.977 407.309 383.038 407.268C383.059 407.254 383.4 407.009 383.621 406.78C383.869 406.523 383.899 406.296 383.902 406.275C383.902 406.275 383.973 406.127 383.818 405.846C383.817 405.844 383.815 405.841 383.813 405.838C383.785 405.765 383.667 405.525 383.328 405.497Z" fill="#50844E" stroke="black" stroke-width="0.0541765" stroke-miterlimit="10"/>
<path d="M401.279 393.553L395.186 397.928C395.186 397.928 395.164 397.397 393.334 398.626C391.933 399.567 392.314 399.985 392.314 399.985L391.32 400.634C391.32 400.634 389.665 401.705 389.516 402.194C389.45 402.409 389.509 402.565 389.571 402.659C389.594 402.719 389.7 402.934 390.026 402.931C390.519 402.925 392.078 401.719 392.078 401.719L399.966 395.96L400.038 395.673C400.038 395.673 392.669 400.988 391.129 402.123C390.09 402.888 389.85 402.702 389.797 402.603L389.812 402.584C389.812 402.584 389.326 402.319 390.641 401.419C390.679 401.393 391.967 400.503 392.066 400.428C392.244 400.294 392.477 400.15 392.477 400.15C392.477 400.15 392.637 400.735 394.318 399.556C395.781 398.529 395.358 398.093 395.358 398.093L401.184 393.886L401.279 393.553Z" fill="#50844E" stroke="black" stroke-width="0.0541765" stroke-miterlimit="10"/>
<path d="M387.869 395.752C387.869 395.752 387.98 396.073 388.364 396.134C388.663 396.182 389.204 395.843 389.649 395.541C390.095 395.239 390.447 394.974 390.447 394.974L390.771 394.729C390.771 394.729 391.038 395.065 392.412 394.083C394.205 392.801 393.705 392.76 393.705 392.76L401.418 387.311L401.192 387.132L393.613 392.546C393.613 392.546 393.407 392.103 391.932 393.113C390.238 394.273 390.677 394.523 390.677 394.523C390.677 394.523 389.592 395.35 389.533 395.391C389.044 395.735 388.697 395.922 388.469 395.923C388.021 395.926 387.963 395.49 387.963 395.49L387.869 395.752Z" fill="#50844E" stroke="black" stroke-width="0.0541765" stroke-miterlimit="10"/>
<path d="M393.705 392.76L401.418 387.311L401.192 387.132L393.613 392.546C393.613 392.546 393.407 392.103 391.932 393.113C390.238 394.273 390.677 394.523 390.677 394.523C390.677 394.523 389.592 395.35 389.533 395.391C389.044 395.735 388.697 395.922 388.469 395.923C388.021 395.926 387.963 395.49 387.963 395.49L387.958 395.505C387.963 395.316 388.132 394.984 388.916 394.475C388.976 394.436 390.121 393.667 390.121 393.667C390.121 393.667 390.19 394.129 391.899 392.992C393.387 392.001 393.051 391.681 393.051 391.681L396.512 389.334C396.512 389.334 396.596 389.758 398.154 388.608C399.444 387.655 399.144 387.542 399.144 387.542L400.679 386.565L400.421 386.44L399.019 387.326C399.019 387.326 398.887 386.698 397.331 387.813C395.817 388.899 396.375 389.177 396.375 389.177L392.884 391.512C392.884 391.512 392.955 391.03 391.095 392.214C389.671 393.12 389.962 393.498 389.962 393.498L389.613 393.707C389.613 393.707 387.932 394.737 387.771 395.222C387.648 395.594 388.01 395.976 388.01 395.976L388.011 395.961C388.088 396.036 388.201 396.108 388.363 396.134C388.662 396.181 389.203 395.842 389.649 395.54C390.094 395.238 390.446 394.973 390.446 394.973L390.77 394.729C390.77 394.729 391.037 395.064 392.411 394.083C394.204 392.801 393.705 392.76 393.705 392.76Z" fill="#50844E" stroke="black" stroke-width="0.0541765" stroke-miterlimit="10"/>
<path d="M402.196 390.235L399.552 392.201C399.552 392.201 399.429 391.659 397.903 392.815C396.418 393.941 396.958 394.12 396.958 394.12L394.734 395.688C394.734 395.688 394.711 395.156 392.884 396.388C391.484 397.332 391.865 397.749 391.865 397.749L391.522 397.968C391.522 397.968 389.869 399.042 389.72 399.531C389.645 399.781 389.737 399.951 389.807 400.038C389.843 400.115 389.973 400.344 390.292 400.395C390.591 400.442 391.131 400.103 391.577 399.801C392.022 399.499 392.374 399.234 392.374 399.234L397.638 395.302C397.638 395.302 397.863 395.671 399.279 394.656C400.331 393.902 400.009 393.503 400.009 393.503L401.97 392.05L401.938 391.803L399.864 393.352C399.864 393.352 399.654 393.142 398.783 393.72C397.072 394.854 397.544 395.095 397.544 395.095C397.544 395.095 391.519 399.61 391.461 399.651C390.971 399.994 390.624 400.181 390.396 400.183C390.175 400.184 390.048 400.078 389.977 399.97L390.017 399.92C390.017 399.92 389.531 399.656 390.845 398.753C390.904 398.713 392.028 397.913 392.028 397.913C392.028 397.913 392.19 398.498 393.869 397.316C395.33 396.287 394.906 395.852 394.906 395.852L397.098 394.273C397.098 394.273 397.226 394.748 398.753 393.557C400.018 392.572 399.683 392.412 399.683 392.412L402.313 390.44L402.196 390.235Z" fill="#50844E" stroke="black" stroke-width="0.0541765" stroke-miterlimit="10"/>
<path d="M401.902 387.959L401.187 388.514C401.187 388.514 401.055 387.885 399.499 389.001C397.985 390.087 398.543 390.364 398.543 390.364L394.223 393.488C394.223 393.488 394.204 392.948 392.404 394.221C390.976 395.231 391.272 395.467 391.272 395.467C391.272 395.467 389.654 396.331 389.472 396.88C389.349 397.252 389.608 397.455 389.608 397.455L389.631 397.428C389.707 397.516 389.831 397.613 390.024 397.643C390.323 397.691 390.863 397.352 391.309 397.05C391.754 396.748 392.106 396.483 392.106 396.483L396.323 393.324C396.323 393.324 396.537 393.679 397.963 392.678C399.564 391.555 399.257 391.355 399.257 391.355L402.236 389.122L402.184 388.862L399.103 391.111C399.103 391.111 398.958 390.698 397.483 391.708C395.79 392.868 396.229 393.118 396.229 393.118C396.229 393.118 391.251 396.859 391.193 396.9C390.703 397.244 390.356 397.43 390.128 397.432C389.948 397.433 389.831 397.364 389.756 397.28L389.758 397.277C389.758 397.277 389.753 397.275 389.746 397.269C389.721 397.24 389.701 397.209 389.685 397.179C389.638 397.036 389.711 396.719 390.615 396.132C390.675 396.093 391.459 395.642 391.459 395.642C391.459 395.642 391.52 396.172 393.229 395.035C394.717 394.044 394.39 393.657 394.39 393.657L398.668 390.568C398.668 390.568 398.763 390.945 400.321 389.795C401.611 388.843 401.311 388.729 401.311 388.729L401.947 388.201L401.902 387.959Z" fill="#50844E" stroke="black" stroke-width="0.0541765" stroke-miterlimit="10"/>
<path d="M379.172 403.712C378.649 403.669 377.016 404.849 377.016 404.849L376.423 405.267C376.423 405.267 375.934 405.014 374.491 405.959C372.782 407.08 373.399 407.24 373.399 407.24L368.52 410.565C368.52 410.565 368.485 410.016 366.973 410.998C365.333 412.064 365.784 412.371 365.784 412.371L357.457 417.752L357.613 417.876L366.008 412.608C366.008 412.608 366.034 412.994 367.406 412.098C369.06 411.018 368.654 410.66 368.654 410.66L373.494 407.467C373.494 407.467 373.726 407.908 375.247 406.895C376.816 405.849 376.593 405.545 376.532 405.494C376.536 405.491 376.54 405.489 376.545 405.486C376.653 405.419 377.978 404.522 378.016 404.496C379.361 403.577 379.48 404.139 379.48 404.139L379.484 404.137C379.569 404.331 379.579 404.758 378.581 405.366C378.227 405.581 377.179 406.307 377.179 406.307C377.179 406.307 377.083 405.769 375.321 406.906C373.786 407.897 374.145 408.356 374.145 408.356L369.231 411.444C369.231 411.444 368.838 411.23 367.558 412.046C366.417 412.774 366.429 413.279 366.429 413.279L365.476 413.96C365.476 413.96 365.206 413.405 363.558 414.494C362.192 415.398 362.387 415.793 362.387 415.793L358.936 418.163L359.132 418.306L362.527 415.989C362.527 415.989 362.874 416.575 364.503 415.492C366.004 414.494 365.574 414.125 365.574 414.125L366.57 413.493C366.57 413.493 366.866 413.899 368.226 413.091C369.741 412.192 369.461 411.548 369.461 411.548L374.338 408.567C374.338 408.567 374.342 409.179 376.049 408.055C377.49 407.107 377.281 406.514 377.281 406.514L378.838 405.436C378.838 405.436 379.741 404.754 379.746 404.432C379.749 404.294 379.701 404.16 379.662 404.074L379.664 404.073C379.664 404.073 379.572 403.744 379.172 403.712Z" fill="#50844E" stroke="black" stroke-width="0.0541765" stroke-miterlimit="10"/>
<path d="M375.503 403.826L375.503 403.825C375.501 403.823 375.5 403.822 375.499 403.82C375.482 403.795 375.469 403.78 375.465 403.775C375.392 403.688 375.268 403.597 375.067 403.581C374.473 403.532 371.608 405.532 371.608 405.532C371.608 405.532 371.48 405.196 369.3 406.639C367.595 407.766 367.952 408.087 367.952 408.087C367.952 408.087 364.296 410.511 363.063 411.295C361.119 412.531 355.219 416.125 355.219 416.125L355.303 416.294C355.303 416.294 361.259 412.673 363.225 411.434C364.44 410.669 368.047 408.314 368.047 408.314C368.047 408.314 368.419 408.733 370.162 407.546C372.413 406.011 371.843 405.629 371.843 405.629C371.843 405.629 373.666 404.468 373.728 404.427C375.184 403.479 375.333 404.012 375.333 404.012L375.335 404.011C375.402 404.175 375.375 404.546 374.395 405.16C374.332 405.199 367.91 409.333 367.91 409.333C367.91 409.333 367.829 408.737 366.067 409.874C364.532 410.864 364.89 411.323 364.89 411.323L360.612 414.081C360.612 414.081 360.341 413.526 358.693 414.616C357.327 415.519 357.522 415.914 357.522 415.914L355.944 416.921L356.097 417.115L357.663 416.11C357.663 416.11 358.01 416.696 359.638 415.613C361.14 414.615 360.71 414.246 360.71 414.246L365.083 411.535C365.083 411.535 365.087 412.147 366.795 411.023C368.236 410.074 368.094 409.542 368.094 409.542L373.697 405.973C373.697 405.973 375.437 404.957 375.576 404.414C375.63 404.201 375.599 404.037 375.556 403.928C375.549 403.91 375.533 403.871 375.503 403.826Z" fill="#50844E" stroke="black" stroke-width="0.0541765" stroke-miterlimit="10"/>
<path d="M364.12 405.588C363.861 405.559 363.41 405.81 362.868 406.107C362.185 406.481 361.429 406.888 361.429 406.888C361.429 406.888 361.235 406.349 360.067 407.041C358.813 407.784 359.192 408.163 359.192 408.163L355.557 410.21L355.46 410.499L359.343 408.315C359.343 408.315 359.443 408.694 360.569 408.004C361.6 407.372 361.497 407.097 361.497 407.097C361.497 407.097 363.148 406.206 363.198 406.177C364.305 405.53 364.355 406.037 364.355 406.037L364.36 406.036C364.35 406.082 364.258 406.329 363.41 406.811C363.355 406.842 361.538 407.882 361.538 407.882C361.538 407.882 361.345 407.659 360.188 408.301C358.923 409.004 359.21 409.274 359.21 409.274L354.893 411.671L354.924 411.95L359.263 409.483C359.263 409.483 359.392 410.008 360.778 409.213C362.068 408.473 361.689 408.042 361.689 408.042C361.689 408.042 363.581 406.979 363.973 406.752C364.612 406.382 364.582 406.026 364.576 405.986L364.58 405.986C364.58 405.985 364.574 405.638 364.12 405.588Z" fill="#50844E" stroke="black" stroke-width="0.0541765" stroke-miterlimit="10"/>
<path d="M383.541 410.263C396.349 402.463 404.447 392.388 401.629 387.761C398.811 383.133 386.143 385.705 373.335 393.506C360.527 401.306 352.429 411.38 355.247 416.008C358.065 420.635 370.733 418.063 383.541 410.263Z" stroke="#50844E" stroke-width="1.73365" stroke-miterlimit="10"/>
</svg>
