<svg width="1112" height="482" viewBox="0 0 1112 482" fill="none" xmlns="http://www.w3.org/2000/svg">
<path d="M470.06 206.754C483.85 212.648 496.754 213.388 498.884 208.406C501.014 203.424 491.562 194.607 477.772 188.712C463.983 182.818 451.078 182.078 448.949 187.06C446.819 192.042 456.271 200.859 470.06 206.754Z" fill="#9CC09B" stroke="#50844E" stroke-width="1.73365" stroke-miterlimit="10"/>
<path d="M461.732 184.224L465.393 185.818C465.393 185.818 465.523 185.258 467.225 185.957C469.205 186.77 468.752 187.204 468.752 187.204L472.367 188.768C472.367 188.768 472.261 187.948 474.525 188.858C476.851 189.794 476.274 190.379 476.274 190.379L479.736 191.849C479.736 191.849 479.725 191.21 481.416 191.948C483.105 192.686 482.718 193.078 482.718 193.078L492.069 197.051L492.609 197.626L482.633 193.297C482.633 193.297 482.678 193.793 481.115 193.162C479.348 192.449 479.668 192.059 479.668 192.059L476.156 190.598C476.156 190.598 476.121 191.118 474.166 190.355C471.803 189.434 472.316 188.97 472.316 188.97L468.753 187.485C468.753 187.485 468.602 188.057 466.871 187.36C464.906 186.569 465.331 186.051 465.331 186.051L460.7 184.029L461.732 184.224Z" fill="#50844E" stroke="black" stroke-width="0.0541765" stroke-miterlimit="10"/>
<path d="M449.352 186.105L454.78 188.244C454.78 188.244 454.619 187.669 456.65 188.449C458.601 189.198 458.239 189.637 458.239 189.637L463.375 191.628C463.375 191.628 463.34 190.959 465.642 191.864C467.794 192.71 467.561 193.29 467.561 193.29L475.105 196.323C475.251 196.406 475.165 196.629 475.001 196.593L467.483 193.512C467.483 193.512 467.304 193.882 465.256 193.137C462.993 192.314 463.314 191.842 463.314 191.842L458.128 189.86C458.128 189.86 457.996 190.272 456.262 189.625C454.255 188.877 454.735 188.449 454.735 188.449L449.264 186.337L449.352 186.105Z" fill="#50844E" stroke="black" stroke-width="0.0541765" stroke-miterlimit="10"/>
<path d="M457.244 183.754C457.244 183.754 465.995 187.735 468.948 188.978C471.941 190.238 481.03 193.767 481.03 193.767C481.1 193.831 481.069 193.948 480.976 193.967L480.948 193.972C480.948 193.972 471.534 190.312 468.433 189.002C465.539 187.778 456.966 183.857 456.966 183.857L457.244 183.754Z" fill="#50844E" stroke="black" stroke-width="0.0541765" stroke-miterlimit="10"/>
<path d="M450.5 193.146L470.957 200.804L483.268 205.163C483.339 205.227 483.307 205.344 483.214 205.363L483.187 205.369L470.525 200.955L450.61 193.415L450.5 193.146Z" fill="#50844E" stroke="black" stroke-width="0.0541765" stroke-miterlimit="10"/>
<path d="M497.65 202.55L497.42 202.239L494.913 201.174C494.913 201.174 495.323 200.598 493.26 199.89C491.718 199.361 491.661 199.886 491.661 199.886L489.237 199.007C489.237 199.007 489.718 198.37 487.908 197.753C486.145 197.151 486.196 197.931 486.196 197.931L483.795 196.925C483.795 196.925 484.237 196.523 482.194 195.698C480.63 195.066 480.483 195.701 480.483 195.701C480.483 195.701 479.881 195.336 479.608 195.483C479.345 195.626 479.216 196.242 479.194 196.353L476.368 195.336C476.368 195.336 476.78 194.807 474.735 194.06C472.933 193.403 472.804 193.981 472.804 193.981L467.749 191.9C467.749 191.9 468.099 191.458 465.931 190.589C463.929 189.787 463.543 190.362 463.543 190.362L458.62 188.429C458.62 188.429 458.979 188.131 457.14 187.459C455.513 186.864 455.533 187.259 455.533 187.259L450.47 185.154L450.23 185.354L455.455 187.481C455.455 187.481 455.172 187.765 456.933 188.464C458.695 189.164 458.559 188.642 458.559 188.642L463.496 190.567C463.496 190.567 463.185 190.898 465.605 191.78C467.961 192.639 467.691 192.167 467.691 192.167L472.818 194.263C472.818 194.263 472.373 194.71 474.434 195.477C476.206 196.137 476.315 195.571 476.315 195.571L478.765 196.427L479.199 196.602C479.254 196.622 479.307 196.602 479.339 196.565L479.352 196.582C479.352 196.582 479.354 196.562 479.36 196.528C479.366 196.513 479.369 196.497 479.369 196.481C479.411 196.256 479.527 195.731 479.711 195.687C479.834 195.658 480.438 195.929 480.438 195.929C480.438 195.929 480.097 196.481 482.014 197.211C483.684 197.847 483.755 197.16 483.755 197.16L486.148 198.133C486.148 198.133 485.721 198.644 487.562 199.244C489.085 199.74 489.134 199.234 489.134 199.234L491.598 200.099C491.598 200.099 491.109 200.479 492.961 201.153C494.793 201.821 494.836 201.397 494.836 201.397L497.65 202.55Z" fill="#50844E" stroke="black" stroke-width="0.0541765" stroke-miterlimit="10"/>
<path d="M499.065 205.613L499.018 205.339L494.637 203.757C494.637 203.757 494.904 203.567 493.428 202.943C491.644 202.188 491.657 202.632 491.657 202.632C491.657 202.632 483.127 199.44 483.066 199.419C481.943 199.024 481.885 198.703 481.928 198.565L481.955 198.567C481.955 198.567 481.902 198.016 483.386 198.6C483.428 198.616 484.887 199.183 485.005 199.224C485.216 199.296 485.465 199.408 485.465 199.408C485.465 199.408 485.071 199.869 486.99 200.599C488.66 201.235 488.784 200.64 488.784 200.64L491.983 201.796C491.983 201.796 491.687 202.111 493.528 202.711C495.052 203.207 494.971 202.897 494.971 202.897L498.785 204.439L498.645 204.126L495.074 202.671C495.074 202.671 495.509 202.198 493.697 201.58C491.933 200.978 492.031 201.594 492.031 201.594L488.824 200.405C488.824 200.405 489.252 200.089 487.208 199.263C485.643 198.63 485.51 199.18 485.51 199.18L484.416 198.721C484.416 198.721 482.601 197.951 482.113 198.102C481.935 198.157 481.838 198.26 481.785 198.354L481.782 198.351C481.782 198.351 481.573 198.621 481.778 198.961C482.045 199.404 483.922 200.008 483.922 200.008L491.559 202.822C491.559 202.822 491.075 203.241 492.802 203.943C494.575 204.663 494.563 204.002 494.563 204.002L499.065 205.613Z" fill="#50844E" stroke="black" stroke-width="0.0541765" stroke-miterlimit="10"/>
<path d="M473.815 203.811C473.546 203.361 471.669 202.737 471.669 202.737L469.135 201.752C469.135 201.752 469.057 201.207 467.449 200.582C465.544 199.841 465.773 200.437 465.773 200.437L460.687 198.592C460.687 198.592 461.114 198.245 459.436 197.584C457.616 196.869 457.628 197.414 457.628 197.414L452.177 195.254L452.551 195.67L457.566 197.735C457.566 197.735 457.267 197.979 458.793 198.575C460.632 199.294 460.689 198.756 460.689 198.756L465.643 200.646C465.643 200.646 465.423 201.083 467.127 201.74C469.03 202.475 469.044 201.983 469.044 201.983C469.044 201.983 472.468 203.321 472.537 203.346C473.577 203.727 473.726 204.034 473.715 204.191C473.67 204.273 473.625 204.389 473.614 204.4C473.258 204.764 472.948 204.561 472.682 204.524L471.35 204.046L468.803 203.01C468.803 203.01 468.725 202.465 467.118 201.84C465.213 201.099 465.441 201.695 465.441 201.695L460.356 199.85C460.356 199.85 460.783 199.502 459.105 198.842C457.285 198.126 457.296 198.672 457.296 198.672L454.695 197.641L455.174 198.144L457.234 198.993C457.234 198.993 456.935 199.237 458.461 199.833C460.301 200.553 460.357 200.014 460.357 200.014L465.312 201.904C465.312 201.904 465.091 202.341 466.796 202.998C468.699 203.733 468.712 203.241 468.712 203.241C468.712 203.241 472.137 204.579 472.206 204.604C472.229 204.613 472.627 204.748 472.942 204.795C473.295 204.847 473.497 204.74 473.516 204.731C473.516 204.731 473.678 204.702 473.817 204.413C473.818 204.41 473.819 204.407 473.82 204.404C473.863 204.339 473.99 204.104 473.815 203.811Z" fill="#50844E" stroke="black" stroke-width="0.0541765" stroke-miterlimit="10"/>
<path d="M493.966 211.485L486.865 209.067C486.865 209.067 487.284 208.741 485.221 207.965C483.641 207.371 483.521 207.924 483.521 207.924L482.416 207.492C482.416 207.492 480.583 206.767 480.098 206.93C479.886 207.001 479.793 207.14 479.752 207.245C479.717 207.298 479.603 207.509 479.795 207.773C480.086 208.171 481.974 208.74 481.974 208.74L491.243 211.814L491.519 211.707C491.519 211.707 482.912 208.796 481.094 208.201C479.867 207.8 479.88 207.497 479.929 207.396L479.953 207.397C479.953 207.397 479.886 206.848 481.383 207.395C481.426 207.411 482.899 207.942 483.018 207.98C483.23 208.047 483.483 208.152 483.483 208.152C483.483 208.152 483.1 208.623 485.036 209.306C486.722 209.901 486.83 209.302 486.83 209.302L493.639 211.601L493.966 211.485Z" fill="#50844E" stroke="black" stroke-width="0.0541765" stroke-miterlimit="10"/>
<path d="M484.386 201.847C484.386 201.847 484.189 202.124 484.362 202.472C484.497 202.743 485.087 202.986 485.592 203.173C486.097 203.361 486.516 203.493 486.516 203.493L486.904 203.615C486.904 203.615 486.786 204.027 488.383 204.575C490.468 205.29 490.211 204.859 490.211 204.859L499.127 207.972L499.142 207.684L490.332 204.66C490.332 204.66 490.573 204.234 488.894 203.621C486.966 202.916 487.017 203.418 487.017 203.418C487.017 203.418 485.714 203.016 485.646 202.992C485.082 202.793 484.729 202.619 484.595 202.434C484.333 202.072 484.653 201.771 484.653 201.771L484.386 201.847Z" fill="#50844E" stroke="black" stroke-width="0.0541765" stroke-miterlimit="10"/>
<path d="M490.211 204.859L499.126 207.972L499.141 207.684L490.332 204.66C490.332 204.66 490.572 204.234 488.893 203.621C486.965 202.916 487.016 203.419 487.016 203.419C487.016 203.419 485.713 203.016 485.645 202.992C485.082 202.793 484.728 202.619 484.594 202.434C484.332 202.072 484.652 201.771 484.652 201.771L484.638 201.775C484.794 201.67 485.163 201.614 486.033 201.957C486.099 201.983 487.391 202.468 487.391 202.468C487.391 202.468 487.054 202.794 488.973 203.524C490.644 204.16 490.709 203.701 490.709 203.701L494.63 205.154C494.63 205.154 494.333 205.468 496.175 206.068C497.699 206.565 497.618 206.255 497.618 206.255L499.305 206.937L499.256 206.654L497.721 206.029C497.721 206.029 498.156 205.556 496.344 204.937C494.58 204.336 494.678 204.951 494.678 204.951L490.75 203.465C490.75 203.465 491.183 203.244 489.139 202.418C487.574 201.785 487.436 202.241 487.436 202.241L487.063 202.079C487.063 202.079 485.248 201.309 484.76 201.459C484.385 201.575 484.285 202.092 484.285 202.092L484.298 202.084C484.281 202.19 484.288 202.324 484.362 202.471C484.497 202.742 485.087 202.985 485.591 203.172C486.096 203.36 486.516 203.492 486.516 203.492L486.904 203.614C486.904 203.614 486.785 204.026 488.382 204.574C490.467 205.29 490.211 204.859 490.211 204.859Z" fill="#50844E" stroke="black" stroke-width="0.0541765" stroke-miterlimit="10"/>
<path d="M497.199 210.304L494.063 209.294C494.063 209.294 494.433 208.879 492.606 208.309C490.827 207.753 490.994 208.297 490.994 208.297L488.427 207.398C488.427 207.398 488.846 207.071 486.781 206.298C485.2 205.707 485.082 206.26 485.082 206.26L484.705 206.108C484.705 206.108 482.87 205.386 482.386 205.549C482.138 205.633 482.053 205.807 482.024 205.915C481.981 205.988 481.871 206.228 482.014 206.516C482.149 206.787 482.74 207.03 483.244 207.217C483.749 207.405 484.169 207.537 484.169 207.537L490.428 209.538C490.428 209.538 490.258 209.934 491.906 210.498C493.131 210.916 493.269 210.422 493.269 210.422L495.591 211.175L495.773 211.005L493.308 210.216C493.308 210.216 493.356 209.924 492.38 209.55C490.463 208.817 490.541 209.341 490.541 209.341C490.541 209.341 483.367 207.06 483.299 207.036C482.735 206.837 482.382 206.663 482.248 206.478C482.118 206.299 482.131 206.134 482.177 206.014L482.241 206.017C482.241 206.017 482.174 205.468 483.672 206.013C483.739 206.037 485.043 206.488 485.043 206.488C485.043 206.488 484.661 206.96 486.598 207.639C488.285 208.231 488.393 207.633 488.393 207.633L490.951 208.5C490.951 208.5 490.638 208.88 492.495 209.432C494.032 209.889 493.967 209.523 493.967 209.523L497.1 210.519L497.199 210.304Z" fill="#50844E" stroke="black" stroke-width="0.0541765" stroke-miterlimit="10"/>
<path d="M498.88 208.742L498.014 208.483C498.014 208.483 498.448 208.01 496.637 207.392C494.873 206.79 494.971 207.406 494.971 207.406L489.919 205.704C489.919 205.704 490.347 205.375 488.266 204.649C486.615 204.073 486.594 204.451 486.594 204.451C486.594 204.451 484.951 203.636 484.399 203.806C484.024 203.922 484.009 204.252 484.009 204.252L484.045 204.255C484.017 204.368 484.01 204.525 484.097 204.699C484.232 204.97 484.822 205.213 485.327 205.4C485.832 205.588 486.252 205.72 486.252 205.72L491.272 207.318C491.272 207.318 491.108 207.698 492.751 208.277C494.595 208.928 494.579 208.562 494.579 208.562L498.128 209.69L498.309 209.496L494.689 208.295C494.689 208.295 494.941 207.937 493.262 207.324C491.334 206.619 491.385 207.121 491.385 207.121C491.385 207.121 485.449 205.243 485.381 205.219C484.817 205.02 484.464 204.846 484.33 204.661C484.224 204.516 484.213 204.38 484.237 204.27L484.241 204.27C484.241 204.27 484.241 204.265 484.241 204.256C484.25 204.219 484.263 204.184 484.278 204.154C484.368 204.032 484.668 203.908 485.671 204.303C485.738 204.329 486.56 204.705 486.56 204.705C486.56 204.705 486.164 205.063 488.083 205.793C489.754 206.428 489.879 205.937 489.879 205.937L494.878 207.625C494.878 207.625 494.626 207.922 496.468 208.522C497.992 209.018 497.91 208.709 497.91 208.709L498.709 208.919L498.88 208.742Z" fill="#50844E" stroke="black" stroke-width="0.0541765" stroke-miterlimit="10"/>
<path d="M472.854 199.391C472.586 198.941 470.676 198.298 470.676 198.298L469.992 198.058C469.992 198.058 469.914 197.512 468.306 196.887C466.401 196.147 466.629 196.742 466.629 196.742L461.088 194.702C461.088 194.702 461.515 194.355 459.837 193.695C458.017 192.979 458.029 193.525 458.029 193.525L448.812 189.872L448.801 190.071L457.966 193.845C457.966 193.845 457.668 194.089 459.193 194.686C461.033 195.405 461.089 194.867 461.089 194.867L466.5 196.951C466.5 196.951 466.276 197.397 467.983 198.046C469.747 198.715 469.864 198.357 469.87 198.278C469.875 198.28 469.879 198.282 469.884 198.284C470.001 198.333 471.501 198.891 471.544 198.907C473.074 199.467 472.686 199.891 472.686 199.891L472.689 199.893C472.582 200.075 472.239 200.331 471.165 199.871C470.784 199.708 469.584 199.277 469.584 199.277C469.584 199.277 469.967 198.887 468.017 198.113C466.319 197.439 466.154 197.997 466.154 197.997L460.786 195.792C460.786 195.792 460.732 195.347 459.324 194.779C458.069 194.274 457.665 194.576 457.665 194.576L456.557 194.197C456.557 194.197 456.851 193.654 455.008 192.946C453.478 192.359 453.27 192.747 453.27 192.747L449.336 191.314L449.334 191.557L453.193 192.975C453.193 192.975 452.917 193.598 454.745 194.295C456.429 194.937 456.48 194.372 456.48 194.372L457.572 194.816C457.572 194.816 457.414 195.293 458.862 195.931C460.473 196.641 460.835 196.039 460.835 196.039L466.094 198.277C466.094 198.277 465.598 198.636 467.505 199.373C469.114 199.995 469.475 199.48 469.475 199.48L471.257 200.122C471.257 200.122 472.336 200.46 472.602 200.277C472.715 200.199 472.797 200.083 472.845 200.001L472.846 200.002C472.846 200.002 473.061 199.737 472.854 199.391Z" fill="#50844E" stroke="black" stroke-width="0.0541765" stroke-miterlimit="10"/>
<path d="M470.631 196.471L470.631 196.471C470.632 196.469 470.632 196.467 470.633 196.465C470.644 196.437 470.649 196.417 470.65 196.411C470.678 196.301 470.681 196.148 470.577 195.974C470.271 195.462 466.98 194.292 466.98 194.292C466.98 194.292 467.179 193.993 464.738 193.056C462.829 192.323 462.776 192.801 462.776 192.801C462.776 192.801 458.68 191.233 457.324 190.684C455.19 189.82 448.837 187.106 448.837 187.106L448.748 187.272C448.748 187.272 455.155 190.017 457.305 190.897C458.634 191.441 462.647 193.01 462.647 193.01C462.647 193.01 462.521 193.556 464.5 194.285C467.057 195.226 467.036 194.54 467.036 194.54C467.036 194.54 469.041 195.349 469.11 195.376C470.728 196.01 470.38 196.441 470.38 196.441L470.382 196.442C470.288 196.592 469.969 196.786 468.901 196.344C468.833 196.316 461.738 193.49 461.738 193.49C461.738 193.49 462.176 193.078 460.226 192.304C458.528 191.63 458.363 192.188 458.363 192.188L453.632 190.308C453.632 190.308 453.927 189.765 452.084 189.057C450.554 188.469 450.346 188.857 450.346 188.857L448.61 188.158L448.541 188.395L450.269 189.085C450.269 189.085 449.993 189.708 451.82 190.405C453.505 191.047 453.556 190.483 453.556 190.483L458.303 192.468C458.303 192.468 457.807 192.827 459.714 193.564C461.323 194.186 461.674 193.761 461.674 193.761L467.833 196.249C467.833 196.249 469.672 197.075 470.194 196.873C470.4 196.793 470.515 196.672 470.578 196.574C470.589 196.557 470.611 196.522 470.631 196.471Z" fill="#50844E" stroke="black" stroke-width="0.0541765" stroke-miterlimit="10"/>
<path d="M462.583 188.229C462.457 188.002 461.99 187.78 461.434 187.511C460.733 187.173 459.962 186.794 459.962 186.794C459.962 186.794 460.288 186.323 459.047 185.775C457.713 185.185 457.625 185.714 457.625 185.714L453.847 183.944L453.555 184.033L457.588 185.925C457.588 185.925 457.338 186.227 458.554 186.743C459.667 187.214 459.832 186.971 459.832 186.971C459.832 186.971 461.516 187.797 461.569 187.821C462.738 188.346 462.354 188.681 462.354 188.681L462.358 188.685C462.315 188.703 462.06 188.772 461.176 188.362C461.118 188.335 459.216 187.46 459.216 187.46C459.216 187.46 459.286 187.174 458.091 186.605C456.784 185.983 456.731 186.374 456.731 186.374L452.272 184.253L452.063 184.44L456.591 186.539C456.591 186.539 456.239 186.949 457.692 187.615C459.043 188.235 459.173 187.676 459.173 187.676C459.173 187.676 461.138 188.599 461.55 188.786C462.223 189.091 462.495 188.859 462.524 188.832L462.527 188.835C462.528 188.835 462.806 188.628 462.583 188.229Z" fill="#50844E" stroke="black" stroke-width="0.0541765" stroke-miterlimit="10"/>
<path d="M470.06 206.754C483.85 212.648 496.754 213.388 498.884 208.406C501.014 203.424 491.562 194.607 477.772 188.712C463.983 182.818 451.078 182.078 448.949 187.06C446.819 192.042 456.271 200.859 470.06 206.754Z" stroke="#50844E" stroke-width="1.73365" stroke-miterlimit="10"/>
</svg>
