<svg width="1112" height="482" viewBox="0 0 1112 482" fill="none" xmlns="http://www.w3.org/2000/svg">
<path d="M776.591 249.57C764.678 240.462 752.352 236.568 749.062 240.872C745.771 245.176 752.761 256.049 764.674 265.157C776.587 274.266 788.913 278.16 792.204 273.856C795.494 269.552 788.504 258.679 776.591 249.57Z" fill="#9CC09B" stroke="#50844E" stroke-width="1.73365" stroke-miterlimit="10"/>
<path d="M779.115 273.458L775.96 271.011C775.96 271.011 775.695 271.522 774.218 270.425C772.499 269.15 773.045 268.84 773.045 268.84L769.926 266.435C769.926 266.435 769.827 267.256 767.857 265.816C765.833 264.336 766.536 263.911 766.536 263.911L763.543 261.634C763.543 261.634 763.396 262.256 761.939 261.124C760.483 259.993 760.955 259.708 760.955 259.708L752.87 253.555L752.488 252.865L761.092 259.517C761.092 259.517 761.17 259.025 762.53 260.021C764.067 261.147 763.66 261.447 763.66 261.447L766.704 263.727C766.704 263.727 766.866 263.232 768.574 264.453C770.636 265.928 770.025 266.251 770.025 266.251L773.113 268.568C773.113 268.568 773.4 268.05 774.907 269.152C776.616 270.403 776.077 270.8 776.077 270.8L780.067 273.9L779.115 273.458Z" fill="#50844E" stroke="black" stroke-width="0.0541765" stroke-miterlimit="10"/>
<path d="M791.577 274.682L786.843 271.273C786.843 271.273 786.858 271.87 785.081 270.614C783.374 269.408 783.833 269.071 783.833 269.071L779.345 265.876C779.345 265.876 779.215 266.533 777.206 265.089C775.329 263.74 775.698 263.235 775.698 263.235L769.133 258.438C769.012 258.322 769.15 258.126 769.3 258.202L775.828 263.04C775.828 263.04 776.092 262.724 777.894 263.951C779.885 265.306 779.457 265.685 779.457 265.685L783.995 268.882C783.995 268.882 784.225 268.516 785.746 269.569C787.507 270.788 786.936 271.086 786.936 271.086L791.72 274.479L791.577 274.682Z" fill="#50844E" stroke="black" stroke-width="0.0541765" stroke-miterlimit="10"/>
<path d="M783.348 275.018C783.348 275.018 775.847 269.005 773.292 267.073C770.7 265.115 762.76 259.457 762.76 259.457C762.708 259.377 762.768 259.272 762.862 259.276L762.89 259.277C762.89 259.277 771.114 265.143 773.797 267.177C776.3 269.075 783.643 274.986 783.643 274.986L783.348 275.018Z" fill="#50844E" stroke="black" stroke-width="0.0541765" stroke-miterlimit="10"/>
<path d="M792.197 267.576L774.257 255.116L763.397 247.86C763.345 247.781 763.405 247.675 763.5 247.68L763.527 247.681L774.713 255.076L792.157 267.288L792.197 267.576Z" fill="#50844E" stroke="black" stroke-width="0.0541765" stroke-miterlimit="10"/>
<path d="M748.815 246.852L748.962 247.21L751.13 248.859C751.13 248.859 750.59 249.316 752.416 250.51C753.779 251.403 753.964 250.908 753.964 250.908L756.097 252.357C756.097 252.357 755.474 252.855 757.077 253.9C758.637 254.917 758.779 254.149 758.779 254.149L760.858 255.714C760.858 255.714 760.332 255.995 762.108 257.298C763.468 258.296 763.767 257.716 763.767 257.716C763.767 257.716 764.261 258.218 764.561 258.143C764.852 258.07 765.129 257.505 765.177 257.402L767.666 259.084C767.666 259.084 767.136 259.495 768.934 260.722C770.519 261.803 770.787 261.274 770.787 261.274L775.173 264.536C775.173 264.536 774.726 264.878 776.613 266.254C778.355 267.525 778.872 267.062 778.872 267.062L783.167 270.148C783.167 270.148 782.745 270.349 784.362 271.453C785.792 272.43 785.87 272.042 785.87 272.042L790.259 275.329L790.541 275.194L786.001 271.846C786.001 271.846 786.345 271.641 784.81 270.529C783.275 269.417 783.278 269.956 783.278 269.956L778.967 266.875C778.967 266.875 779.35 266.631 777.222 265.18C775.15 263.768 775.295 264.292 775.295 264.292L770.843 260.998C770.843 260.998 771.384 260.674 769.575 259.423C768.02 258.347 767.776 258.868 767.776 258.868L765.611 257.436L765.233 257.159C765.185 257.127 765.129 257.133 765.089 257.161L765.081 257.141C765.081 257.141 765.073 257.16 765.059 257.192C765.05 257.205 765.043 257.219 765.039 257.235C764.943 257.443 764.701 257.923 764.512 257.92C764.386 257.918 763.867 257.507 763.867 257.507C763.867 257.507 764.334 257.055 762.655 255.876C761.193 254.849 760.956 255.496 760.956 255.496L758.876 253.965C758.876 253.965 759.415 253.574 757.779 252.54C756.425 251.684 756.253 252.163 756.253 252.163L754.077 250.717C754.077 250.717 754.645 250.47 753.017 249.36C751.405 248.261 751.259 248.662 751.259 248.662L748.815 246.852Z" fill="#50844E" stroke="black" stroke-width="0.0541765" stroke-miterlimit="10"/>
<path d="M748.198 243.535L748.176 243.811L752.033 246.424C752.033 246.424 751.727 246.541 753.004 247.51C754.547 248.681 754.644 248.247 754.644 248.247C754.644 248.247 762.125 253.441 762.179 253.477C763.17 254.136 763.147 254.462 763.072 254.585L763.046 254.577C763.046 254.577 762.962 255.124 761.668 254.192C761.631 254.166 760.356 253.257 760.252 253.189C760.065 253.067 759.851 252.897 759.851 252.897C759.851 252.897 760.347 252.547 758.667 251.367C757.204 250.34 756.938 250.886 756.938 250.886L754.122 248.977C754.122 248.977 754.487 248.746 752.85 247.711C751.495 246.854 751.497 247.174 751.497 247.174L748.18 244.741L748.239 245.079L751.342 247.368C751.342 247.368 750.804 247.72 752.408 248.765C753.969 249.782 754.025 249.161 754.025 249.161L756.841 251.103C756.841 251.103 756.349 251.305 758.126 252.608C759.487 253.607 759.751 253.106 759.751 253.106L760.699 253.821C760.699 253.821 762.269 255.014 762.779 254.988C762.965 254.979 763.084 254.903 763.158 254.825L763.161 254.828C763.161 254.828 763.429 254.618 763.315 254.238C763.166 253.743 761.495 252.695 761.495 252.695L754.786 248.087C754.786 248.087 755.358 247.801 753.857 246.695C752.316 245.56 752.165 246.204 752.165 246.204L748.198 243.535Z" fill="#50844E" stroke="black" stroke-width="0.0541765" stroke-miterlimit="10"/>
<path d="M772.227 251.498C772.377 252 774.043 253.068 774.043 253.068L776.256 254.646C776.256 254.646 776.198 255.194 777.602 256.195C779.266 257.382 779.191 256.748 779.191 256.748L783.666 259.789C783.666 259.789 783.166 260.02 784.63 261.073C786.218 262.215 786.341 261.684 786.341 261.684L791.092 265.12L790.832 264.624L786.48 261.389C786.48 261.389 786.83 261.225 785.498 260.272C783.892 259.122 783.705 259.629 783.705 259.629L779.368 256.578C779.368 256.578 779.689 256.209 778.199 255.152C776.535 253.972 776.401 254.445 776.401 254.445C776.401 254.445 773.412 252.305 773.351 252.264C772.437 251.638 772.368 251.304 772.418 251.155C772.481 251.086 772.554 250.985 772.567 250.977C773.002 250.712 773.252 250.985 773.501 251.086L774.674 251.877L776.887 253.509C776.887 253.509 776.829 254.056 778.233 255.058C779.897 256.245 779.822 255.611 779.822 255.611L784.296 258.652C784.296 258.652 783.797 258.883 785.261 259.936C786.849 261.078 786.972 260.546 786.972 260.546L789.239 262.186L788.899 261.581L787.111 260.251C787.111 260.251 787.461 260.088 786.129 259.134C784.523 257.984 784.336 258.492 784.336 258.492L779.999 255.44C779.999 255.44 780.32 255.071 778.83 254.014C777.166 252.834 777.032 253.307 777.032 253.307C777.032 253.307 774.043 251.167 773.982 251.126C773.962 251.112 773.61 250.883 773.316 250.76C772.986 250.622 772.764 250.676 772.744 250.68C772.744 250.68 772.58 250.668 772.374 250.915C772.372 250.916 772.37 250.919 772.369 250.922C772.311 250.975 772.13 251.171 772.227 251.498Z" fill="#50844E" stroke="black" stroke-width="0.0541765" stroke-miterlimit="10"/>
<path d="M754.586 239.098L760.872 243.19C760.872 243.19 760.385 243.403 762.194 244.663C763.579 245.628 763.831 245.121 763.831 245.121L764.796 245.812C764.796 245.812 766.395 246.966 766.904 246.928C767.128 246.911 767.252 246.8 767.318 246.708C767.364 246.665 767.527 246.488 767.406 246.185C767.222 245.728 765.532 244.712 765.532 244.712L757.305 239.45L757.012 239.486C757.012 239.486 764.637 244.427 766.253 245.451C767.343 246.141 767.256 246.432 767.183 246.518L767.16 246.511C767.16 246.511 767.089 247.06 765.773 246.16C765.736 246.135 764.439 245.257 764.333 245.192C764.144 245.074 763.925 244.91 763.925 244.91C763.925 244.91 764.412 244.548 762.704 243.409C761.216 242.418 760.964 242.971 760.964 242.971L754.931 239.066L754.586 239.098Z" fill="#50844E" stroke="black" stroke-width="0.0541765" stroke-miterlimit="10"/>
<path d="M761.498 250.799C761.498 250.799 761.757 250.579 761.675 250.199C761.61 249.903 761.098 249.523 760.656 249.216C760.212 248.91 759.838 248.679 759.838 248.679L759.492 248.465C759.492 248.465 759.708 248.095 758.296 247.171C756.451 245.964 756.593 246.445 756.593 246.445L748.719 241.233L748.634 241.508L756.427 246.608C756.427 246.608 756.089 246.961 757.566 247.97C759.261 249.127 759.335 248.628 759.335 248.628C759.335 248.628 760.499 249.339 760.558 249.379C761.056 249.71 761.356 249.966 761.44 250.178C761.605 250.594 761.22 250.806 761.22 250.806L761.498 250.799Z" fill="#50844E" stroke="black" stroke-width="0.0541765" stroke-miterlimit="10"/>
<path d="M756.593 246.445L748.718 241.233L748.633 241.508L756.427 246.608C756.427 246.608 756.089 246.961 757.565 247.97C759.26 249.127 759.334 248.628 759.334 248.628C759.334 248.628 760.498 249.339 760.558 249.379C761.055 249.71 761.355 249.966 761.44 250.178C761.605 250.594 761.22 250.807 761.22 250.807L761.235 250.806C761.057 250.869 760.686 250.833 759.928 250.287C759.87 250.245 758.738 249.457 758.738 249.457C758.738 249.457 759.144 249.224 757.464 248.044C756.001 247.016 755.825 247.445 755.825 247.445L752.383 245.071C752.383 245.071 752.747 244.839 751.11 243.804C749.755 242.948 749.758 243.268 749.758 243.268L748.291 242.192L748.268 242.478L749.602 243.462C749.602 243.462 749.064 243.814 750.668 244.859C752.229 245.877 752.286 245.256 752.286 245.256L755.727 247.663C755.727 247.663 755.253 247.772 757.03 249.075C758.391 250.074 758.638 249.666 758.638 249.666L758.959 249.915C758.959 249.915 760.529 251.108 761.039 251.082C761.431 251.063 761.655 250.586 761.655 250.586L761.641 250.591C761.683 250.492 761.709 250.36 761.674 250.2C761.61 249.904 761.098 249.523 760.655 249.217C760.212 248.911 759.837 248.68 759.837 248.68L759.492 248.466C759.492 248.466 759.708 248.096 758.295 247.172C756.45 245.964 756.593 246.445 756.593 246.445Z" fill="#50844E" stroke="black" stroke-width="0.0541765" stroke-miterlimit="10"/>
<path d="M751.161 239.447L753.952 241.198C753.952 241.198 753.491 241.509 755.122 242.512C756.709 243.488 756.681 242.92 756.681 242.92L758.948 244.424C758.948 244.424 758.461 244.638 760.272 245.894C761.659 246.857 761.91 246.35 761.91 246.35L762.238 246.59C762.238 246.59 763.838 247.742 764.347 247.703C764.608 247.683 764.734 247.535 764.788 247.438C764.848 247.377 765.014 247.172 764.946 246.857C764.881 246.561 764.369 246.181 763.926 245.875C763.484 245.569 763.109 245.337 763.109 245.337L757.535 241.857C757.535 241.857 757.798 241.515 756.339 240.563C755.254 239.856 754.999 240.3 754.999 240.3L752.934 238.999L752.716 239.119L754.911 240.49C754.911 240.49 754.792 240.761 755.646 241.364C757.323 242.547 757.377 242.02 757.377 242.02C757.377 242.02 763.769 245.998 763.828 246.037C764.326 246.369 764.626 246.625 764.71 246.837C764.792 247.043 764.738 247.199 764.664 247.304L764.603 247.285C764.603 247.285 764.533 247.834 763.215 246.937C763.156 246.897 762.003 246.139 762.003 246.139C762.003 246.139 762.49 245.776 760.78 244.64C759.29 243.651 759.038 244.204 759.038 244.204L756.772 242.734C756.772 242.734 757.169 242.442 755.505 241.45C754.128 240.629 754.101 241 754.101 241L751.31 239.263L751.161 239.447Z" fill="#50844E" stroke="black" stroke-width="0.0541765" stroke-miterlimit="10"/>
<path d="M749.146 240.547L749.923 241.011C749.923 241.011 749.385 241.363 750.989 242.408C752.55 243.426 752.606 242.805 752.606 242.805L757.083 245.698C757.083 245.698 756.588 245.912 758.426 247.128C759.885 248.093 759.998 247.731 759.998 247.731C759.998 247.731 761.389 248.925 761.967 248.896C762.359 248.876 762.454 248.56 762.454 248.56L762.42 248.549C762.475 248.447 762.52 248.296 762.479 248.105C762.415 247.809 761.903 247.429 761.46 247.123C761.016 246.817 760.642 246.586 760.642 246.586L756.169 243.801C756.169 243.801 756.422 243.472 754.973 242.506C753.345 241.422 753.271 241.781 753.271 241.781L750.109 239.813L749.886 239.956L753.098 242.012C753.098 242.012 752.766 242.297 754.243 243.305C755.938 244.463 756.012 243.963 756.012 243.963C756.012 243.963 761.303 247.246 761.362 247.285C761.86 247.617 762.16 247.873 762.244 248.085C762.31 248.252 762.288 248.386 762.237 248.487L762.234 248.486C762.234 248.486 762.233 248.491 762.231 248.499C762.212 248.534 762.191 248.563 762.169 248.589C762.052 248.685 761.73 248.732 760.855 248.102C760.797 248.06 760.094 247.493 760.094 247.493C760.094 247.493 760.565 247.244 758.885 246.064C757.422 245.037 757.18 245.482 757.18 245.482L752.751 242.615C752.751 242.615 753.068 242.39 751.431 241.354C750.076 240.498 750.078 240.818 750.078 240.818L749.356 240.417L749.146 240.547Z" fill="#50844E" stroke="black" stroke-width="0.0541765" stroke-miterlimit="10"/>
<path d="M772.069 256.018C772.218 256.521 773.91 257.614 773.91 257.614L774.515 258.016C774.515 258.016 774.456 258.563 775.86 259.565C777.525 260.752 777.45 260.118 777.45 260.118L782.318 263.46C782.318 263.46 781.819 263.691 783.282 264.744C784.87 265.886 784.993 265.355 784.993 265.355L793.027 271.165L793.086 270.974L785.133 265.06C785.133 265.06 785.482 264.896 784.151 263.943C782.545 262.793 782.357 263.3 782.357 263.3L777.627 259.948C777.627 259.948 777.954 259.571 776.458 258.522C774.914 257.438 774.712 257.757 774.687 257.832C774.683 257.829 774.679 257.826 774.675 257.823C774.573 257.746 773.257 256.837 773.219 256.81C771.875 255.891 772.355 255.576 772.355 255.576L772.352 255.573C772.501 255.423 772.896 255.259 773.824 255.969C774.153 256.221 775.21 256.934 775.21 256.934C775.21 256.934 774.743 257.218 776.442 258.448C777.922 259.519 778.219 259.019 778.219 259.019L782.879 262.479C782.879 262.479 782.822 262.923 784.047 263.82C785.138 264.619 785.605 264.425 785.605 264.425L786.586 265.065C786.586 265.065 786.167 265.519 787.779 266.659C789.116 267.605 789.414 267.28 789.414 267.28L792.874 269.637L792.936 269.403L789.545 267.078C789.545 267.078 789.966 266.542 788.366 265.417C786.891 264.38 786.703 264.915 786.703 264.915L785.754 264.216C785.754 264.216 786.025 263.792 784.779 262.818C783.391 261.733 782.893 262.227 782.893 262.227L778.346 258.763C778.346 258.763 778.915 258.537 777.249 257.353C775.843 256.354 775.366 256.764 775.366 256.764L773.797 255.703C773.797 255.703 772.834 255.11 772.532 255.221C772.402 255.269 772.295 255.362 772.228 255.43L772.227 255.428C772.227 255.428 771.954 255.633 772.069 256.018Z" fill="#50844E" stroke="black" stroke-width="0.0541765" stroke-miterlimit="10"/>
<path d="M773.505 259.396L773.505 259.396C773.504 259.398 773.503 259.4 773.501 259.402C773.484 259.426 773.475 259.444 773.472 259.45C773.417 259.549 773.377 259.697 773.435 259.891C773.605 260.462 776.507 262.407 776.507 262.407C776.507 262.407 776.241 262.648 778.376 264.157C780.045 265.337 780.215 264.888 780.215 264.888C780.215 264.888 783.799 267.416 784.977 268.281C786.833 269.644 792.322 273.84 792.322 273.84L792.449 273.7C792.449 273.7 786.915 269.463 785.048 268.08C783.894 267.225 780.391 264.717 780.391 264.717C780.391 264.717 780.647 264.218 778.909 263.025C776.662 261.483 776.513 262.153 776.513 262.153C776.513 262.153 774.77 260.875 774.71 260.832C773.298 259.819 773.74 259.487 773.74 259.487L773.739 259.485C773.868 259.364 774.224 259.254 775.151 259.945C775.21 259.989 781.39 264.475 781.39 264.475C781.39 264.475 780.864 264.767 782.563 265.997C784.043 267.068 784.34 266.568 784.34 266.568L788.462 269.555C788.462 269.555 788.043 270.009 789.656 271.149C790.993 272.095 791.291 271.77 791.291 271.77L792.801 272.875L792.926 272.663L791.422 271.568C791.422 271.568 791.843 271.032 790.243 269.907C788.768 268.87 788.58 269.404 788.58 269.404L784.468 266.312C784.468 266.312 785.037 266.086 783.37 264.902C781.964 263.903 781.519 264.228 781.519 264.228L776.162 260.301C776.162 260.301 774.583 259.047 774.028 259.115C773.808 259.141 773.667 259.23 773.581 259.31C773.567 259.323 773.537 259.352 773.505 259.396Z" fill="#50844E" stroke="black" stroke-width="0.0541765" stroke-miterlimit="10"/>
<path d="M779.275 269.366C779.342 269.617 779.74 269.947 780.213 270.344C780.809 270.845 781.463 271.402 781.463 271.402C781.463 271.402 781.031 271.778 782.098 272.615C783.246 273.515 783.461 273.024 783.461 273.024L786.687 275.67L786.992 275.655L783.549 272.829C783.549 272.829 783.866 272.597 782.814 271.798C781.852 271.067 781.632 271.263 781.632 271.263C781.632 271.263 780.204 270.047 780.158 270.011C779.154 269.214 779.609 268.984 779.609 268.984L779.605 268.979C779.652 268.972 779.916 268.969 780.672 269.583C780.722 269.623 782.35 270.94 782.35 270.94C782.35 270.94 782.211 271.201 783.23 272.046C784.343 272.97 784.491 272.605 784.491 272.605L788.29 275.759L788.538 275.629L784.667 272.48C784.667 272.48 785.109 272.169 783.865 271.165C782.708 270.232 782.444 270.741 782.444 270.741C782.444 270.741 780.767 269.363 780.414 269.08C779.837 268.619 779.516 268.776 779.481 268.796L779.479 268.793C779.479 268.792 779.157 268.924 779.275 269.366Z" fill="#50844E" stroke="black" stroke-width="0.0541765" stroke-miterlimit="10"/>
<path d="M776.591 249.57C764.678 240.462 752.352 236.568 749.062 240.872C745.771 245.176 752.761 256.049 764.674 265.157C776.587 274.266 788.913 278.16 792.204 273.856C795.494 269.552 788.504 258.679 776.591 249.57Z" stroke="#50844E" stroke-width="1.73365" stroke-miterlimit="10"/>
</svg>
