<svg width="1112" height="482" viewBox="0 0 1112 482" fill="none" xmlns="http://www.w3.org/2000/svg">
<path d="M799.041 212.22C813.42 207.961 823.828 200.297 822.289 195.102C820.751 189.907 807.847 189.149 793.468 193.408C779.09 197.667 768.681 205.332 770.22 210.527C771.759 215.721 784.663 216.48 799.041 212.22Z" fill="#9CC09B" stroke="#50844E" stroke-width="1.73365" stroke-miterlimit="10"/>
<path d="M778.253 200.186L782.089 199.078C782.089 199.078 781.832 198.564 783.588 198.016C785.632 197.378 785.56 198.002 785.56 198.002L789.342 196.899C789.342 196.899 788.737 196.335 791.061 195.592C793.449 194.828 793.378 195.647 793.378 195.647L796.981 194.57C796.981 194.57 796.566 194.085 798.338 193.575C800.11 193.065 800.062 193.614 800.062 193.614L809.797 190.707L810.58 190.805L800.136 193.837C800.136 193.837 800.488 194.19 798.882 194.701C797.066 195.28 797.064 194.775 797.064 194.775L793.427 195.891C793.427 195.891 793.732 196.313 791.74 196.974C789.333 197.772 789.432 197.088 789.432 197.088L785.74 198.217C785.74 198.217 785.989 198.755 784.211 199.322C782.193 199.967 782.19 199.297 782.19 199.297L777.335 200.695L778.253 200.186Z" fill="#50844E" stroke="black" stroke-width="0.0541765" stroke-miterlimit="10"/>
<path d="M769.921 209.534L775.465 207.718C775.465 207.718 774.974 207.378 777.035 206.682C779.016 206.014 779.017 206.583 779.017 206.583L784.243 204.839C784.243 204.839 783.789 204.347 786.139 203.574C788.335 202.852 788.526 203.448 788.526 203.448L796.27 200.971C796.435 200.941 796.512 201.167 796.363 201.244L788.607 203.669C788.607 203.669 788.706 204.068 786.654 204.801C784.386 205.612 784.332 205.042 784.332 205.042L779.075 206.826C779.075 206.826 779.235 207.227 777.488 207.835C775.465 208.54 775.561 207.903 775.561 207.903L770.001 209.769L769.921 209.534Z" fill="#50844E" stroke="black" stroke-width="0.0541765" stroke-miterlimit="10"/>
<path d="M774.498 202.687C774.498 202.687 783.776 200.17 786.842 199.243C789.952 198.303 799.201 195.221 799.201 195.221C799.296 195.225 799.346 195.336 799.287 195.41L799.27 195.432C799.27 195.432 789.685 198.62 786.461 199.59C783.452 200.494 774.349 202.944 774.349 202.944L774.498 202.687Z" fill="#50844E" stroke="black" stroke-width="0.0541765" stroke-miterlimit="10"/>
<path d="M775.298 214.222L795.935 207.067L808.197 202.568C808.292 202.573 808.342 202.683 808.282 202.757L808.265 202.779L795.699 207.459L775.554 214.359L775.298 214.222Z" fill="#50844E" stroke="black" stroke-width="0.0541765" stroke-miterlimit="10"/>
<path d="M817.603 191.38L817.227 191.287L814.617 192.068C814.617 192.068 814.566 191.362 812.525 192.133C811 192.709 811.291 193.151 811.291 193.151L808.864 194.02C808.864 194.02 808.829 193.223 807.04 193.902C805.299 194.564 805.836 195.131 805.836 195.131L803.346 195.889C803.346 195.889 803.429 195.298 801.33 195.965C799.722 196.477 800.015 197.06 800.015 197.06C800.015 197.06 799.318 197.162 799.202 197.45C799.09 197.728 799.383 198.285 799.438 198.384L796.613 199.404C796.613 199.404 796.592 198.734 794.542 199.464C792.735 200.107 793.004 200.635 793.004 200.635L787.784 202.257C787.784 202.257 787.771 201.694 785.548 202.408C783.494 203.068 783.564 203.758 783.564 203.758L778.54 205.41C778.54 205.41 778.626 204.951 776.781 205.607C775.149 206.187 775.416 206.478 775.416 206.478L770.175 208.088L770.118 208.395L775.498 206.699C775.498 206.699 775.461 207.098 777.264 206.513C779.066 205.928 778.629 205.613 778.629 205.613L783.659 203.945C783.659 203.945 783.63 204.398 786.056 203.534C788.418 202.692 787.909 202.5 787.909 202.5L793.194 200.843C793.194 200.843 793.137 201.471 795.214 200.747C796.999 200.124 796.722 199.62 796.722 199.62L799.155 198.715L799.601 198.573C799.655 198.553 799.683 198.504 799.684 198.455L799.705 198.46C799.705 198.46 799.694 198.443 799.677 198.412C799.672 198.397 799.665 198.383 799.654 198.371C799.542 198.171 799.297 197.693 799.411 197.542C799.487 197.441 800.125 197.264 800.125 197.264C800.125 197.264 800.215 197.907 802.157 197.246C803.848 196.67 803.465 196.096 803.465 196.096L805.928 195.318C805.928 195.318 805.926 195.984 807.725 195.271C809.215 194.681 808.929 194.26 808.929 194.26L811.379 193.354C811.379 193.354 811.244 193.959 813.101 193.297C814.938 192.642 814.7 192.288 814.7 192.288L817.603 191.38Z" fill="#50844E" stroke="black" stroke-width="0.0541765" stroke-miterlimit="10"/>
<path d="M820.647 192.835L820.436 192.655L816.053 194.232C816.053 194.232 816.138 193.915 814.603 194.376C812.747 194.933 813.041 195.267 813.041 195.267C813.041 195.267 804.437 198.252 804.376 198.274C803.26 198.687 803.01 198.476 802.955 198.343L802.977 198.327C802.977 198.327 802.584 197.936 804.099 197.439C804.142 197.426 805.628 196.931 805.744 196.887C805.953 196.808 806.216 196.735 806.216 196.735C806.216 196.735 806.207 197.341 808.15 196.68C809.842 196.103 809.558 195.566 809.558 195.566L812.759 194.415C812.759 194.415 812.731 194.847 814.532 194.134C816.023 193.543 815.762 193.357 815.762 193.357L819.683 192.111L819.375 191.959L815.697 193.117C815.697 193.117 815.73 192.475 813.941 193.155C812.199 193.817 812.667 194.229 812.667 194.229L809.439 195.359C809.439 195.359 809.567 194.843 807.466 195.511C805.857 196.023 806.106 196.531 806.106 196.531L804.97 196.876C804.97 196.876 803.081 197.441 802.802 197.868C802.699 198.024 802.691 198.166 802.71 198.271L802.706 198.271C802.706 198.271 802.717 198.612 803.092 198.744C803.58 198.915 805.411 198.182 805.411 198.182L813.087 195.476C813.087 195.476 812.981 196.107 814.759 195.546C816.584 194.969 816.153 194.468 816.153 194.468L820.647 192.835Z" fill="#50844E" stroke="black" stroke-width="0.0541765" stroke-miterlimit="10"/>
<path d="M800.055 207.559C799.56 207.384 797.717 208.101 797.717 208.101L795.137 208.96C795.137 208.96 794.729 208.59 793.093 209.134C791.153 209.779 791.709 210.092 791.709 210.092L786.616 211.916C786.616 211.916 786.723 211.376 785.01 211.938C783.152 212.549 783.509 212.961 783.509 212.961L777.933 214.776L778.487 214.857L783.665 213.248C783.665 213.248 783.591 213.627 785.147 213.112C787.022 212.492 786.722 212.042 786.722 212.042L791.743 210.336C791.743 210.336 791.852 210.813 793.584 210.232C795.518 209.583 795.214 209.196 795.214 209.196C795.214 209.196 798.704 208.041 798.774 208.016C799.818 207.646 800.128 207.787 800.22 207.915C800.238 208.007 800.277 208.125 800.275 208.14C800.233 208.648 799.865 208.689 799.637 208.831L798.306 209.312L795.685 210.14C795.685 210.14 795.276 209.77 793.64 210.314C791.7 210.959 792.257 211.272 792.257 211.272L787.163 213.096C787.163 213.096 787.271 212.556 785.558 213.118C783.699 213.729 784.056 214.141 784.056 214.141L781.396 215.007L782.085 215.089L784.213 214.428C784.213 214.428 784.139 214.807 785.694 214.293C787.569 213.673 787.27 213.222 787.27 213.222L792.291 211.516C792.291 211.516 792.399 211.993 794.131 211.412C796.065 210.763 795.762 210.376 795.762 210.376C795.762 210.376 799.252 209.221 799.321 209.196C799.345 209.188 799.737 209.038 800.01 208.873C800.315 208.688 800.403 208.477 800.411 208.458C800.411 208.458 800.518 208.333 800.44 208.021C800.439 208.019 800.438 208.016 800.436 208.013C800.428 207.935 800.376 207.673 800.055 207.559Z" fill="#50844E" stroke="black" stroke-width="0.0541765" stroke-miterlimit="10"/>
<path d="M820.468 200.611L813.457 203.28C813.457 203.28 813.572 202.76 811.488 203.48C809.893 204.03 810.154 204.533 810.154 204.533L809.027 204.905C809.027 204.905 807.153 205.517 806.883 205.951C806.765 206.142 806.782 206.308 806.818 206.415C806.825 206.478 806.872 206.713 807.188 206.794C807.666 206.915 809.482 206.148 809.482 206.148L818.581 202.601L818.725 202.343C818.725 202.343 810.24 205.593 808.461 206.295C807.261 206.769 807.077 206.527 807.05 206.418L807.07 206.404C807.07 206.404 806.668 206.023 808.17 205.49C808.213 205.475 809.686 204.944 809.801 204.897C810.008 204.813 810.269 204.733 810.269 204.733C810.269 204.733 810.275 205.34 812.201 204.63C813.879 204.013 813.581 203.483 813.581 203.483L820.29 200.908L820.468 200.611Z" fill="#50844E" stroke="black" stroke-width="0.0541765" stroke-miterlimit="10"/>
<path d="M806.941 199.302C806.941 199.302 806.966 199.641 807.321 199.798C807.598 199.921 808.207 199.731 808.716 199.554C809.224 199.376 809.631 199.21 809.631 199.21L810.008 199.056C810.008 199.056 810.18 199.449 811.759 198.852C813.821 198.072 813.348 197.905 813.348 197.905L822.2 194.613L822.027 194.382L813.314 197.674C813.314 197.674 813.228 197.193 811.544 197.792C809.61 198.479 809.969 198.833 809.969 198.833C809.969 198.833 808.709 199.355 808.642 199.38C808.081 199.586 807.697 199.678 807.476 199.621C807.043 199.509 807.098 199.073 807.098 199.073L806.941 199.302Z" fill="#50844E" stroke="black" stroke-width="0.0541765" stroke-miterlimit="10"/>
<path d="M813.349 197.905L822.2 194.613L822.028 194.382L813.315 197.674C813.315 197.674 813.229 197.193 811.544 197.792C809.61 198.479 809.97 198.833 809.97 198.833C809.97 198.833 808.71 199.355 808.642 199.38C808.081 199.586 807.698 199.678 807.477 199.621C807.044 199.509 807.099 199.073 807.099 199.073L807.09 199.085C807.144 198.905 807.392 198.627 808.28 198.336C808.348 198.313 809.652 197.863 809.652 197.863C809.652 197.863 809.601 198.328 811.544 197.666C813.236 197.09 812.994 196.694 812.994 196.694L816.94 195.312C816.94 195.312 816.912 195.743 818.713 195.03C820.204 194.44 819.943 194.253 819.943 194.253L821.677 193.702L821.46 193.515L819.878 194.013C819.878 194.013 819.911 193.372 818.121 194.052C816.379 194.714 816.848 195.125 816.848 195.125L812.875 196.487C812.875 196.487 813.067 196.04 810.966 196.708C809.357 197.219 809.541 197.659 809.541 197.659L809.151 197.772C809.151 197.772 807.262 198.337 806.982 198.764C806.768 199.093 807.02 199.555 807.02 199.555L807.025 199.54C807.08 199.632 807.171 199.731 807.321 199.798C807.598 199.92 808.208 199.731 808.716 199.553C809.224 199.375 809.632 199.209 809.632 199.209L810.008 199.056C810.008 199.056 810.18 199.449 811.759 198.852C813.821 198.072 813.349 197.905 813.349 197.905Z" fill="#50844E" stroke="black" stroke-width="0.0541765" stroke-miterlimit="10"/>
<path d="M822.203 197.639L819.144 198.862C819.144 198.862 819.164 198.306 817.393 199.033C815.669 199.741 816.145 200.053 816.145 200.053L813.594 200.998C813.594 200.998 813.708 200.479 811.626 201.201C810.031 201.755 810.292 202.256 810.292 202.256L809.905 202.38C809.905 202.38 808.032 202.994 807.763 203.429C807.626 203.651 807.672 203.84 807.717 203.941C807.732 204.025 807.799 204.28 808.094 204.41C808.371 204.533 808.98 204.343 809.488 204.166C809.996 203.988 810.404 203.822 810.404 203.822L816.5 201.369C816.5 201.369 816.622 201.783 818.251 201.165C819.461 200.705 819.252 200.237 819.252 200.237L821.52 199.336L821.552 199.088L819.151 200.054C819.151 200.054 819.002 199.798 818.012 200.133C816.067 200.791 816.462 201.145 816.462 201.145C816.462 201.145 809.482 203.966 809.415 203.991C808.854 204.197 808.47 204.289 808.249 204.232C808.035 204.177 807.94 204.042 807.899 203.92L807.95 203.882C807.95 203.882 807.548 203.501 809.049 202.965C809.117 202.941 810.408 202.457 810.408 202.457C810.408 202.457 810.415 203.063 812.34 202.351C814.017 201.73 813.718 201.201 813.718 201.201L816.241 200.236C816.241 200.236 816.243 200.728 818.025 199.969C819.499 199.34 819.216 199.099 819.216 199.099L822.264 197.867L822.203 197.639Z" fill="#50844E" stroke="black" stroke-width="0.0541765" stroke-miterlimit="10"/>
<path d="M822.501 195.363L821.669 195.716C821.669 195.716 821.702 195.075 819.912 195.755C818.17 196.417 818.639 196.828 818.639 196.828L813.663 198.741C813.663 198.741 813.782 198.214 811.717 198.984C810.077 199.594 810.303 199.898 810.303 199.898C810.303 199.898 808.518 200.319 808.201 200.802C807.987 201.131 808.186 201.394 808.186 201.394L808.215 201.373C808.265 201.478 808.36 201.603 808.539 201.682C808.816 201.805 809.425 201.615 809.933 201.437C810.441 201.259 810.849 201.093 810.849 201.093L815.734 199.12C815.734 199.12 815.851 199.518 817.485 198.916C819.32 198.24 819.075 197.968 819.075 197.968L822.527 196.573L822.543 196.308L818.989 197.693C818.989 197.693 818.955 197.257 817.27 197.856C815.336 198.543 815.696 198.897 815.696 198.897C815.696 198.897 809.926 201.238 809.859 201.263C809.298 201.47 808.915 201.561 808.694 201.504C808.52 201.46 808.425 201.362 808.373 201.262L808.376 201.26C808.376 201.26 808.372 201.256 808.367 201.249C808.35 201.214 808.338 201.18 808.33 201.147C808.321 200.996 808.474 200.708 809.498 200.372C809.566 200.35 810.439 200.115 810.439 200.115C810.439 200.115 810.362 200.643 812.305 199.981C813.997 199.405 813.781 198.947 813.781 198.947L818.707 197.057C818.707 197.057 818.702 197.446 820.503 196.733C821.994 196.143 821.733 195.956 821.733 195.956L822.483 195.609L822.501 195.363Z" fill="#50844E" stroke="black" stroke-width="0.0541765" stroke-miterlimit="10"/>
<path d="M796.496 204.768C796.001 204.593 794.121 205.316 794.121 205.316L793.44 205.568C793.44 205.568 793.032 205.198 791.396 205.742C789.456 206.388 790.012 206.701 790.012 206.701L784.444 208.665C784.444 208.665 784.551 208.125 782.838 208.688C780.979 209.298 781.337 209.71 781.337 209.71L771.909 212.778L772.028 212.939L781.493 209.997C781.493 209.997 781.419 210.376 782.974 209.861C784.849 209.241 784.549 208.791 784.549 208.791L790.045 206.944C790.045 206.944 790.157 207.43 791.886 206.84C793.671 206.231 793.533 205.88 793.487 205.815C793.492 205.814 793.497 205.812 793.502 205.811C793.623 205.774 795.134 205.246 795.178 205.231C796.713 204.687 796.684 205.26 796.684 205.26L796.689 205.26C796.721 205.469 796.621 205.884 795.501 206.216C795.103 206.333 793.904 206.767 793.904 206.767C793.904 206.767 793.95 206.222 791.955 206.87C790.218 207.435 790.447 207.97 790.447 207.97L784.906 209.697C784.906 209.697 784.581 209.389 783.134 209.85C781.846 210.261 781.727 210.752 781.727 210.752L780.632 211.168C780.632 211.168 780.512 210.562 778.641 211.192C777.089 211.716 777.176 212.148 777.176 212.148L773.233 213.554L773.386 213.743L777.262 212.373C777.262 212.373 777.447 213.028 779.299 212.399C781.006 211.818 780.685 211.351 780.685 211.351L781.809 210.996C781.809 210.996 781.991 211.464 783.513 211.032C785.207 210.55 785.102 209.856 785.102 209.856L790.579 208.224C790.579 208.224 790.427 208.817 792.365 208.168C794 207.62 793.95 206.993 793.95 206.993L795.732 206.35C795.732 206.35 796.779 205.922 796.866 205.612C796.904 205.479 796.893 205.338 796.877 205.244L796.879 205.244C796.879 205.244 796.875 204.903 796.496 204.768Z" fill="#50844E" stroke="black" stroke-width="0.0541765" stroke-miterlimit="10"/>
<path d="M792.919 203.939L792.919 203.939C792.918 203.936 792.918 203.934 792.917 203.932C792.907 203.904 792.898 203.886 792.895 203.88C792.847 203.777 792.751 203.658 792.561 203.591C791.999 203.392 788.718 204.59 788.718 204.59C788.718 204.59 788.68 204.233 786.202 205.069C784.265 205.723 784.529 206.124 784.529 206.124C784.529 206.124 780.374 207.531 778.981 207.973C776.786 208.669 770.162 210.633 770.162 210.633L770.2 210.817C770.2 210.817 776.885 208.843 779.102 208.149C780.472 207.72 784.563 206.368 784.563 206.368C784.563 206.368 784.815 206.869 786.804 206.167C789.373 205.26 788.919 204.745 788.919 204.745C788.919 204.745 790.979 204.089 791.049 204.066C792.7 203.522 792.707 204.075 792.707 204.075L792.71 204.075C792.732 204.251 792.611 204.603 791.506 204.945C791.436 204.967 784.17 207.318 784.17 207.318C784.17 207.318 784.244 206.721 782.249 207.368C780.511 207.933 780.74 208.468 780.74 208.468L775.898 210.039C775.898 210.039 775.778 209.433 773.907 210.063C772.355 210.587 772.442 211.019 772.442 211.019L770.659 211.588L770.757 211.814L772.528 211.244C772.528 211.244 772.713 211.899 774.565 211.27C776.272 210.689 775.951 210.222 775.951 210.222L780.873 208.722C780.873 208.722 780.72 209.315 782.658 208.666C784.294 208.118 784.293 207.567 784.293 207.567L790.623 205.552C790.623 205.552 792.566 205.015 792.839 204.527C792.947 204.334 792.958 204.168 792.944 204.051C792.942 204.032 792.936 203.99 792.919 203.939Z" fill="#50844E" stroke="black" stroke-width="0.0541765" stroke-miterlimit="10"/>
<path d="M781.465 202.727C781.222 202.633 780.721 202.76 780.122 202.908C779.366 203.094 778.531 203.294 778.531 203.294C778.531 203.294 778.481 202.724 777.176 203.093C775.773 203.49 776.042 203.953 776.042 203.953L772.004 205.001L771.836 205.256L776.149 204.14C776.149 204.14 776.149 204.532 777.414 204.153C778.572 203.806 778.543 203.513 778.543 203.513C778.543 203.513 780.367 203.075 780.423 203.06C781.658 202.718 781.577 203.221 781.577 203.221L781.583 203.221C781.561 203.263 781.408 203.478 780.466 203.727C780.404 203.744 778.381 204.283 778.381 204.283C778.381 204.283 778.253 204.018 776.969 204.342C775.566 204.697 775.775 205.032 775.775 205.032L770.988 206.244L770.947 206.521L775.772 205.248C775.772 205.248 775.763 205.788 777.307 205.375C778.742 204.99 778.486 204.477 778.486 204.477C778.486 204.477 780.588 203.933 781.025 203.815C781.738 203.62 781.799 203.268 781.804 203.229L781.808 203.229C781.808 203.229 781.891 202.891 781.465 202.727Z" fill="#50844E" stroke="black" stroke-width="0.0541765" stroke-miterlimit="10"/>
<path d="M799.041 212.22C813.42 207.961 823.828 200.297 822.289 195.102C820.751 189.907 807.847 189.149 793.468 193.408C779.09 197.667 768.681 205.332 770.22 210.527C771.759 215.721 784.663 216.48 799.041 212.22Z" stroke="#50844E" stroke-width="1.73365" stroke-miterlimit="10"/>
</svg>
