<svg width="1112" height="482" viewBox="0 0 1112 482" fill="none" xmlns="http://www.w3.org/2000/svg">
<path d="M785.062 130.166C798.852 136.061 811.756 136.8 813.886 131.818C816.016 126.836 806.564 118.019 792.774 112.125C778.985 106.231 766.08 105.491 763.951 110.473C761.821 115.455 771.273 124.272 785.062 130.166Z" fill="#9CC09B" stroke="#50844E" stroke-width="1.73365" stroke-miterlimit="10"/>
<path d="M776.734 107.636L780.395 109.231C780.395 109.231 780.525 108.671 782.227 109.369C784.207 110.183 783.754 110.617 783.754 110.617L787.369 112.18C787.369 112.18 787.263 111.36 789.527 112.271C791.853 113.206 791.276 113.792 791.276 113.792L794.738 115.261C794.738 115.261 794.727 114.623 796.417 115.361C798.107 116.099 797.72 116.491 797.72 116.491L807.071 120.464L807.611 121.039L797.635 116.71C797.635 116.71 797.68 117.206 796.117 116.575C794.35 115.862 794.67 115.472 794.67 115.472L791.158 114.011C791.158 114.011 791.123 114.531 789.168 113.768C786.805 112.847 787.318 112.383 787.318 112.383L783.755 110.897C783.755 110.897 783.604 111.47 781.873 110.773C779.908 109.981 780.332 109.464 780.332 109.464L775.702 107.442L776.734 107.636Z" fill="#50844E" stroke="black" stroke-width="0.0541765" stroke-miterlimit="10"/>
<path d="M764.354 109.518L769.782 111.657C769.782 111.657 769.621 111.082 771.652 111.861C773.603 112.61 773.241 113.049 773.241 113.049L778.377 115.041C778.377 115.041 778.342 114.372 780.644 115.277C782.796 116.122 782.563 116.702 782.563 116.702L790.107 119.736C790.253 119.818 790.167 120.042 790.003 120.006L782.485 116.924C782.485 116.924 782.306 117.295 780.258 116.55C777.994 115.727 778.316 115.254 778.316 115.254L773.13 113.273C773.13 113.273 772.998 113.684 771.264 113.038C769.257 112.29 769.737 111.861 769.737 111.861L764.266 109.75L764.354 109.518Z" fill="#50844E" stroke="black" stroke-width="0.0541765" stroke-miterlimit="10"/>
<path d="M772.246 107.167C772.246 107.167 780.997 111.148 783.95 112.39C786.943 113.651 796.032 117.179 796.032 117.179C796.102 117.243 796.071 117.36 795.977 117.379L795.95 117.385C795.95 117.385 786.536 113.725 783.435 112.414C780.541 111.191 771.968 107.27 771.968 107.27L772.246 107.167Z" fill="#50844E" stroke="black" stroke-width="0.0541765" stroke-miterlimit="10"/>
<path d="M765.502 116.559L785.958 124.217L798.27 128.576C798.341 128.64 798.309 128.756 798.216 128.776L798.189 128.781L785.527 124.368L765.612 116.827L765.502 116.559Z" fill="#50844E" stroke="black" stroke-width="0.0541765" stroke-miterlimit="10"/>
<path d="M812.652 125.962L812.422 125.651L809.915 124.587C809.915 124.587 810.325 124.011 808.261 123.303C806.72 122.773 806.663 123.299 806.663 123.299L804.238 122.419C804.238 122.419 804.72 121.783 802.909 121.165C801.147 120.564 801.198 121.343 801.198 121.343L798.797 120.338C798.797 120.338 799.239 119.936 797.196 119.111C795.632 118.478 795.485 119.114 795.485 119.114C795.485 119.114 794.883 118.749 794.61 118.896C794.347 119.038 794.218 119.654 794.196 119.765L791.37 118.749C791.37 118.749 791.782 118.219 789.737 117.473C787.935 116.815 787.806 117.394 787.806 117.394L782.751 115.312C782.751 115.312 783.101 114.871 780.933 114.002C778.931 113.199 778.544 113.775 778.544 113.775L773.622 111.842C773.622 111.842 773.981 111.544 772.142 110.871C770.515 110.277 770.535 110.672 770.535 110.672L765.472 108.567L765.232 108.766L770.457 110.894C770.457 110.894 770.174 111.178 771.935 111.877C773.697 112.576 773.561 112.055 773.561 112.055L778.498 113.98C778.498 113.98 778.187 114.311 780.607 115.193C782.963 116.052 782.693 115.579 782.693 115.579L787.82 117.676C787.82 117.676 787.375 118.122 789.436 118.89C791.208 119.55 791.316 118.984 791.316 118.984L793.767 119.84L794.201 120.015C794.256 120.034 794.309 120.015 794.34 119.978L794.353 119.995C794.353 119.995 794.356 119.975 794.362 119.94C794.368 119.926 794.371 119.91 794.371 119.894C794.413 119.668 794.529 119.144 794.713 119.1C794.836 119.071 795.44 119.342 795.44 119.342C795.44 119.342 795.099 119.894 797.016 120.624C798.686 121.259 798.757 120.573 798.757 120.573L801.15 121.546C801.15 121.546 800.723 122.057 802.564 122.656C804.087 123.153 804.136 122.646 804.136 122.646L806.6 123.511C806.6 123.511 806.111 123.891 807.962 124.566C809.795 125.234 809.838 124.81 809.838 124.81L812.652 125.962Z" fill="#50844E" stroke="black" stroke-width="0.0541765" stroke-miterlimit="10"/>
<path d="M814.067 129.025L814.02 128.752L809.639 127.169C809.639 127.169 809.906 126.98 808.43 126.355C806.646 125.6 806.659 126.045 806.659 126.045C806.659 126.045 798.129 122.853 798.068 122.832C796.945 122.437 796.887 122.115 796.93 121.977L796.957 121.979C796.957 121.979 796.904 121.428 798.388 122.012C798.43 122.029 799.889 122.596 800.007 122.637C800.218 122.709 800.467 122.821 800.467 122.821C800.467 122.821 800.073 123.282 801.992 124.012C803.662 124.648 803.786 124.053 803.786 124.053L806.985 125.209C806.985 125.209 806.688 125.523 808.53 126.123C810.054 126.62 809.973 126.31 809.973 126.31L813.787 127.852L813.647 127.538L810.076 126.084C810.076 126.084 810.511 125.611 808.699 124.993C806.935 124.391 807.033 125.007 807.033 125.007L803.826 123.818C803.826 123.818 804.254 123.502 802.21 122.676C800.645 122.043 800.512 122.593 800.512 122.593L799.418 122.134C799.418 122.134 797.603 121.364 797.115 121.514C796.937 121.569 796.84 121.673 796.787 121.766L796.784 121.764C796.784 121.764 796.575 122.033 796.78 122.374C797.047 122.817 798.924 123.421 798.924 123.421L806.561 126.235C806.561 126.235 806.077 126.654 807.804 127.355C809.577 128.076 809.565 127.415 809.565 127.415L814.067 129.025Z" fill="#50844E" stroke="black" stroke-width="0.0541765" stroke-miterlimit="10"/>
<path d="M788.817 127.224C788.548 126.774 786.671 126.15 786.671 126.15L784.137 125.165C784.137 125.165 784.059 124.62 782.451 123.995C780.546 123.254 780.775 123.85 780.775 123.85L775.689 122.005C775.689 122.005 776.116 121.657 774.438 120.997C772.618 120.281 772.63 120.827 772.63 120.827L767.179 118.666L767.553 119.083L772.567 121.147C772.567 121.147 772.269 121.392 773.794 121.988C775.634 122.707 775.691 122.169 775.691 122.169L780.645 124.059C780.645 124.059 780.425 124.496 782.129 125.153C784.032 125.887 784.046 125.396 784.046 125.396C784.046 125.396 787.47 126.733 787.539 126.759C788.579 127.14 788.728 127.446 788.717 127.604C788.672 127.686 788.627 127.802 788.616 127.812C788.259 128.176 787.95 127.974 787.684 127.937L786.352 127.459L783.805 126.423C783.805 126.423 783.727 125.877 782.12 125.252C780.215 124.512 780.443 125.108 780.443 125.108L775.358 123.262C775.358 123.262 775.785 122.915 774.107 122.255C772.287 121.539 772.298 122.085 772.298 122.085L769.697 121.054L770.176 121.557L772.236 122.405C772.236 122.405 771.937 122.65 773.463 123.246C775.303 123.965 775.359 123.427 775.359 123.427L780.314 125.317C780.314 125.317 780.093 125.754 781.798 126.411C783.701 127.145 783.714 126.654 783.714 126.654C783.714 126.654 787.139 127.991 787.208 128.017C787.231 128.025 787.629 128.161 787.944 128.207C788.297 128.26 788.499 128.153 788.517 128.143C788.517 128.143 788.68 128.115 788.819 127.825C788.82 127.823 788.821 127.82 788.822 127.817C788.865 127.752 788.992 127.516 788.817 127.224Z" fill="#50844E" stroke="black" stroke-width="0.0541765" stroke-miterlimit="10"/>
<path d="M808.968 134.898L801.867 132.48C801.867 132.48 802.286 132.153 800.223 131.378C798.643 130.784 798.523 131.337 798.523 131.337L797.418 130.905C797.418 130.905 795.585 130.18 795.1 130.342C794.888 130.414 794.795 130.552 794.754 130.658C794.719 130.711 794.605 130.922 794.797 131.186C795.088 131.584 796.976 132.153 796.976 132.153L806.245 135.227L806.521 135.12C806.521 135.12 797.914 132.208 796.095 131.614C794.869 131.213 794.881 130.91 794.931 130.809L794.955 130.81C794.955 130.81 794.888 130.26 796.385 130.808C796.428 130.824 797.901 131.355 798.019 131.392C798.232 131.459 798.484 131.565 798.484 131.565C798.484 131.565 798.102 132.036 800.038 132.719C801.724 133.313 801.832 132.715 801.832 132.715L808.641 135.014L808.968 134.898Z" fill="#50844E" stroke="black" stroke-width="0.0541765" stroke-miterlimit="10"/>
<path d="M799.388 125.26C799.388 125.26 799.191 125.536 799.364 125.885C799.499 126.156 800.089 126.398 800.594 126.586C801.099 126.773 801.518 126.906 801.518 126.906L801.906 127.028C801.906 127.028 801.788 127.44 803.385 127.988C805.47 128.702 805.213 128.272 805.213 128.272L814.129 131.385L814.144 131.097L805.334 128.073C805.334 128.073 805.575 127.647 803.896 127.033C801.968 126.329 802.019 126.831 802.019 126.831C802.019 126.831 800.716 126.428 800.648 126.405C800.084 126.206 799.73 126.032 799.597 125.847C799.335 125.485 799.655 125.184 799.655 125.184L799.388 125.26Z" fill="#50844E" stroke="black" stroke-width="0.0541765" stroke-miterlimit="10"/>
<path d="M805.213 128.272L814.128 131.385L814.143 131.097L805.334 128.073C805.334 128.073 805.574 127.647 803.895 127.034C801.967 126.329 802.018 126.831 802.018 126.831C802.018 126.831 800.715 126.428 800.647 126.405C800.084 126.206 799.73 126.032 799.596 125.847C799.334 125.485 799.654 125.184 799.654 125.184L799.64 125.188C799.796 125.083 800.165 125.027 801.035 125.37C801.101 125.396 802.393 125.881 802.393 125.881C802.393 125.881 802.056 126.206 803.975 126.937C805.646 127.572 805.711 127.113 805.711 127.113L809.632 128.567C809.632 128.567 809.335 128.881 811.177 129.481C812.701 129.978 812.62 129.668 812.62 129.668L814.307 130.35L814.258 130.067L812.723 129.441C812.723 129.441 813.158 128.968 811.346 128.35C809.582 127.748 809.68 128.364 809.68 128.364L805.752 126.878C805.752 126.878 806.185 126.656 804.141 125.83C802.576 125.198 802.438 125.653 802.438 125.653L802.065 125.491C802.065 125.491 800.25 124.721 799.762 124.872C799.387 124.988 799.287 125.504 799.287 125.504L799.3 125.497C799.283 125.602 799.29 125.737 799.364 125.884C799.499 126.155 800.089 126.397 800.593 126.585C801.098 126.772 801.518 126.905 801.518 126.905L801.906 127.027C801.906 127.027 801.787 127.439 803.384 127.987C805.469 128.702 805.213 128.272 805.213 128.272Z" fill="#50844E" stroke="black" stroke-width="0.0541765" stroke-miterlimit="10"/>
<path d="M812.201 133.717L809.065 132.707C809.065 132.707 809.435 132.292 807.608 131.722C805.829 131.166 805.996 131.71 805.996 131.71L803.429 130.811C803.429 130.811 803.848 130.484 801.783 129.711C800.202 129.12 800.083 129.673 800.083 129.673L799.707 129.521C799.707 129.521 797.872 128.799 797.388 128.962C797.14 129.046 797.055 129.22 797.026 129.327C796.983 129.401 796.873 129.64 797.016 129.929C797.151 130.2 797.741 130.442 798.246 130.63C798.751 130.818 799.171 130.95 799.171 130.95L805.43 132.95C805.43 132.95 805.26 133.347 806.908 133.91C808.133 134.329 808.271 133.835 808.271 133.835L810.593 134.588L810.775 134.418L808.309 133.629C808.309 133.629 808.358 133.337 807.382 132.963C805.465 132.229 805.543 132.754 805.543 132.754C805.543 132.754 798.369 130.472 798.301 130.448C797.737 130.25 797.383 130.075 797.25 129.891C797.12 129.711 797.133 129.547 797.179 129.427L797.243 129.43C797.243 129.43 797.176 128.88 798.674 129.425C798.741 129.45 800.045 129.901 800.045 129.901C800.045 129.901 799.663 130.372 801.6 131.052C803.287 131.644 803.395 131.046 803.395 131.046L805.953 131.913C805.953 131.913 805.64 132.293 807.497 132.845C809.034 133.301 808.969 132.936 808.969 132.936L812.102 133.932L812.201 133.717Z" fill="#50844E" stroke="black" stroke-width="0.0541765" stroke-miterlimit="10"/>
<path d="M813.882 132.155L813.015 131.896C813.015 131.896 813.45 131.423 811.639 130.804C809.875 130.203 809.973 130.818 809.973 130.818L804.921 129.116C804.921 129.116 805.349 128.787 803.268 128.062C801.617 127.486 801.596 127.864 801.596 127.864C801.596 127.864 799.953 127.049 799.4 127.219C799.026 127.335 799.011 127.665 799.011 127.665L799.047 127.667C799.019 127.78 799.012 127.937 799.099 128.112C799.234 128.383 799.824 128.626 800.329 128.813C800.834 129 801.254 129.133 801.254 129.133L806.274 130.73C806.274 130.73 806.11 131.111 807.753 131.69C809.597 132.34 809.581 131.975 809.581 131.975L813.13 133.103L813.311 132.909L809.691 131.708C809.691 131.708 809.943 131.35 808.264 130.736C806.336 130.032 806.387 130.534 806.387 130.534C806.387 130.534 800.451 128.656 800.383 128.632C799.819 128.433 799.466 128.259 799.332 128.074C799.226 127.928 799.215 127.793 799.239 127.683L799.243 127.683C799.243 127.683 799.242 127.678 799.243 127.669C799.252 127.631 799.265 127.597 799.28 127.566C799.37 127.445 799.67 127.32 800.673 127.715C800.74 127.742 801.562 128.118 801.562 128.118C801.562 128.118 801.166 128.475 803.085 129.205C804.755 129.841 804.881 129.35 804.881 129.35L809.88 131.038C809.88 131.038 809.628 131.334 811.47 131.935C812.994 132.431 812.912 132.121 812.912 132.121L813.711 132.332L813.882 132.155Z" fill="#50844E" stroke="black" stroke-width="0.0541765" stroke-miterlimit="10"/>
<path d="M787.856 122.804C787.588 122.354 785.678 121.71 785.678 121.71L784.994 121.47C784.994 121.47 784.915 120.925 783.308 120.3C781.403 119.559 781.631 120.155 781.631 120.155L776.09 118.115C776.09 118.115 776.517 117.768 774.839 117.108C773.019 116.392 773.031 116.937 773.031 116.937L763.814 113.284L763.803 113.484L772.968 117.258C772.968 117.258 772.669 117.502 774.195 118.099C776.035 118.818 776.091 118.279 776.091 118.279L781.502 120.364C781.502 120.364 781.278 120.809 782.985 121.458C784.749 122.128 784.866 121.77 784.872 121.691C784.877 121.693 784.881 121.695 784.886 121.697C785.003 121.746 786.503 122.303 786.546 122.319C788.076 122.88 787.688 123.303 787.688 123.303L787.691 123.306C787.583 123.487 787.241 123.744 786.167 123.284C785.786 123.121 784.586 122.69 784.586 122.69C784.586 122.69 784.969 122.299 783.019 121.526C781.321 120.852 781.156 121.41 781.156 121.41L775.788 119.204C775.788 119.204 775.734 118.76 774.326 118.192C773.071 117.686 772.667 117.989 772.667 117.989L771.559 117.61C771.559 117.61 771.853 117.067 770.01 116.359C768.48 115.771 768.272 116.16 768.272 116.16L764.338 114.727L764.336 114.97L768.195 116.388C768.195 116.388 767.919 117.011 769.747 117.707C771.431 118.35 771.482 117.785 771.482 117.785L772.574 118.229C772.574 118.229 772.415 118.706 773.863 119.343C775.475 120.054 775.837 119.452 775.837 119.452L781.096 121.69C781.096 121.69 780.6 122.049 782.507 122.786C784.116 123.408 784.477 122.893 784.477 122.893L786.259 123.535C786.259 123.535 787.338 123.873 787.604 123.69C787.717 123.612 787.799 123.496 787.847 123.413L787.848 123.415C787.848 123.415 788.063 123.149 787.856 122.804Z" fill="#50844E" stroke="black" stroke-width="0.0541765" stroke-miterlimit="10"/>
<path d="M785.633 119.884L785.633 119.884C785.634 119.881 785.634 119.88 785.635 119.877C785.646 119.849 785.651 119.83 785.652 119.823C785.68 119.714 785.682 119.56 785.579 119.387C785.273 118.875 781.982 117.705 781.982 117.705C781.982 117.705 782.181 117.406 779.74 116.469C777.831 115.736 777.778 116.213 777.778 116.213C777.778 116.213 773.682 114.645 772.326 114.097C770.192 113.233 763.839 110.518 763.839 110.518L763.75 110.685C763.75 110.685 770.157 113.429 772.307 114.31C773.636 114.854 777.648 116.422 777.648 116.422C777.648 116.422 777.523 116.969 779.502 117.697C782.059 118.639 782.038 117.952 782.038 117.952C782.038 117.952 784.043 118.762 784.112 118.789C785.73 119.423 785.382 119.853 785.382 119.853L785.384 119.855C785.29 120.005 784.971 120.198 783.903 119.757C783.835 119.729 776.74 116.903 776.74 116.903C776.74 116.903 777.178 116.49 775.228 115.716C773.53 115.043 773.365 115.601 773.365 115.601L768.634 113.72C768.634 113.72 768.929 113.178 767.085 112.469C765.556 111.882 765.348 112.27 765.348 112.27L763.612 111.571L763.543 111.808L765.271 112.498C765.271 112.498 764.995 113.121 766.822 113.818C768.507 114.46 768.558 113.896 768.558 113.896L773.305 115.881C773.305 115.881 772.809 116.24 774.716 116.977C776.325 117.598 776.676 117.174 776.676 117.174L782.835 119.661C782.835 119.661 784.674 120.487 785.196 120.285C785.402 120.206 785.517 120.085 785.58 119.986C785.591 119.97 785.613 119.935 785.633 119.884Z" fill="#50844E" stroke="black" stroke-width="0.0541765" stroke-miterlimit="10"/>
<path d="M777.585 111.642C777.459 111.415 776.992 111.193 776.436 110.924C775.735 110.586 774.964 110.207 774.964 110.207C774.964 110.207 775.29 109.736 774.049 109.187C772.715 108.598 772.627 109.126 772.627 109.126L768.849 107.356L768.557 107.446L772.59 109.338C772.59 109.338 772.34 109.64 773.556 110.155C774.669 110.627 774.834 110.383 774.834 110.383C774.834 110.383 776.518 111.21 776.571 111.234C777.74 111.759 777.356 112.094 777.356 112.094L777.36 112.098C777.317 112.116 777.062 112.184 776.178 111.775C776.12 111.748 774.218 110.873 774.218 110.873C774.218 110.873 774.288 110.586 773.093 110.018C771.786 109.396 771.733 109.786 771.733 109.786L767.274 107.665L767.065 107.853L771.593 109.951C771.593 109.951 771.241 110.361 772.694 111.028C774.045 111.648 774.175 111.089 774.175 111.089C774.175 111.089 776.14 112.011 776.552 112.199C777.225 112.504 777.497 112.272 777.526 112.245L777.529 112.247C777.529 112.247 777.808 112.041 777.585 111.642Z" fill="#50844E" stroke="black" stroke-width="0.0541765" stroke-miterlimit="10"/>
<path d="M785.062 130.166C798.852 136.061 811.756 136.8 813.886 131.818C816.016 126.836 806.564 118.019 792.774 112.125C778.985 106.231 766.08 105.491 763.951 110.473C761.821 115.455 771.273 124.272 785.062 130.166Z" stroke="#50844E" stroke-width="1.73365" stroke-miterlimit="10"/>
</svg>
