<svg width="1112" height="482" viewBox="0 0 1112 482" fill="none" xmlns="http://www.w3.org/2000/svg">
<path d="M979.06 119.754C992.85 125.648 1005.75 126.388 1007.88 121.406C1010.01 116.424 1000.56 107.607 986.772 101.712C972.983 95.8181 960.078 95.0785 957.949 100.06C955.819 105.042 965.271 113.859 979.06 119.754Z" fill="#9CC09B" stroke="#50844E" stroke-width="1.73365" stroke-miterlimit="10"/>
<path d="M970.732 97.2235L974.393 98.8184C974.393 98.8184 974.523 98.2579 976.225 98.9567C978.205 99.77 977.752 100.204 977.752 100.204L981.367 101.768C981.367 101.768 981.261 100.948 983.525 101.858C985.851 102.794 985.274 103.379 985.274 103.379L988.736 104.849C988.736 104.849 988.725 104.21 990.416 104.948C992.105 105.686 991.718 106.078 991.718 106.078L1001.07 110.051L1001.61 110.626L991.633 106.297C991.633 106.297 991.678 106.793 990.115 106.162C988.348 105.449 988.668 105.059 988.668 105.059L985.156 103.598C985.156 103.598 985.121 104.118 983.166 103.355C980.803 102.434 981.316 101.97 981.316 101.97L977.753 100.485C977.753 100.485 977.602 101.057 975.871 100.36C973.906 99.5687 974.331 99.0515 974.331 99.0515L969.7 97.0294L970.732 97.2235Z" fill="#50844E" stroke="black" stroke-width="0.0541765" stroke-miterlimit="10"/>
<path d="M958.352 99.1052L963.78 101.244C963.78 101.244 963.619 100.669 965.65 101.449C967.601 102.198 967.239 102.637 967.239 102.637L972.375 104.628C972.375 104.628 972.34 103.959 974.642 104.864C976.794 105.71 976.561 106.29 976.561 106.29L984.105 109.323C984.251 109.406 984.165 109.629 984.001 109.593L976.483 106.512C976.483 106.512 976.304 106.882 974.256 106.137C971.993 105.314 972.314 104.842 972.314 104.842L967.128 102.86C967.128 102.86 966.996 103.272 965.262 102.625C963.255 101.877 963.735 101.449 963.735 101.449L958.264 99.3375L958.352 99.1052Z" fill="#50844E" stroke="black" stroke-width="0.0541765" stroke-miterlimit="10"/>
<path d="M966.244 96.7538C966.244 96.7538 974.995 100.735 977.948 101.978C980.941 103.238 990.03 106.767 990.03 106.767C990.1 106.831 990.069 106.948 989.976 106.967L989.948 106.972C989.948 106.972 980.534 103.312 977.433 102.002C974.539 100.778 965.966 96.8569 965.966 96.8569L966.244 96.7538Z" fill="#50844E" stroke="black" stroke-width="0.0541765" stroke-miterlimit="10"/>
<path d="M959.5 106.146L979.957 113.804L992.268 118.163C992.339 118.227 992.307 118.344 992.214 118.363L992.187 118.369L979.525 113.955L959.61 106.415L959.5 106.146Z" fill="#50844E" stroke="black" stroke-width="0.0541765" stroke-miterlimit="10"/>
<path d="M1006.65 115.55L1006.42 115.239L1003.91 114.174C1003.91 114.174 1004.32 113.598 1002.26 112.89C1000.72 112.361 1000.66 112.886 1000.66 112.886L998.237 112.007C998.237 112.007 998.718 111.37 996.908 110.753C995.145 110.151 995.196 110.931 995.196 110.931L992.795 109.925C992.795 109.925 993.237 109.523 991.194 108.698C989.63 108.066 989.483 108.701 989.483 108.701C989.483 108.701 988.881 108.336 988.608 108.483C988.345 108.626 988.216 109.242 988.194 109.353L985.368 108.336C985.368 108.336 985.78 107.807 983.735 107.06C981.933 106.403 981.804 106.981 981.804 106.981L976.749 104.9C976.749 104.9 977.099 104.458 974.931 103.589C972.929 102.787 972.543 103.362 972.543 103.362L967.62 101.429C967.62 101.429 967.979 101.131 966.14 100.459C964.513 99.864 964.533 100.259 964.533 100.259L959.47 98.154L959.23 98.3537L964.455 100.481C964.455 100.481 964.172 100.765 965.933 101.464C967.695 102.164 967.559 101.642 967.559 101.642L972.496 103.567C972.496 103.567 972.185 103.898 974.605 104.78C976.961 105.639 976.691 105.167 976.691 105.167L981.818 107.263C981.818 107.263 981.373 107.71 983.434 108.477C985.206 109.137 985.315 108.571 985.315 108.571L987.765 109.427L988.199 109.602C988.254 109.622 988.307 109.602 988.339 109.565L988.352 109.582C988.352 109.582 988.354 109.562 988.36 109.528C988.366 109.513 988.369 109.497 988.369 109.481C988.411 109.256 988.527 108.731 988.711 108.687C988.834 108.658 989.438 108.929 989.438 108.929C989.438 108.929 989.097 109.481 991.014 110.211C992.684 110.847 992.755 110.16 992.755 110.16L995.148 111.133C995.148 111.133 994.721 111.644 996.562 112.244C998.085 112.74 998.134 112.234 998.134 112.234L1000.6 113.099C1000.6 113.099 1000.11 113.479 1001.96 114.153C1003.79 114.821 1003.84 114.397 1003.84 114.397L1006.65 115.55Z" fill="#50844E" stroke="black" stroke-width="0.0541765" stroke-miterlimit="10"/>
<path d="M1008.07 118.613L1008.02 118.339L1003.64 116.757C1003.64 116.757 1003.9 116.567 1002.43 115.943C1000.64 115.188 1000.66 115.632 1000.66 115.632C1000.66 115.632 992.127 112.44 992.066 112.419C990.943 112.024 990.885 111.703 990.928 111.565L990.955 111.567C990.955 111.567 990.902 111.016 992.386 111.6C992.428 111.616 993.887 112.183 994.005 112.224C994.216 112.296 994.465 112.408 994.465 112.408C994.465 112.408 994.071 112.869 995.99 113.599C997.66 114.235 997.784 113.64 997.784 113.64L1000.98 114.796C1000.98 114.796 1000.69 115.111 1002.53 115.711C1004.05 116.207 1003.97 115.897 1003.97 115.897L1007.78 117.439L1007.65 117.126L1004.07 115.671C1004.07 115.671 1004.51 115.198 1002.7 114.58C1000.93 113.978 1001.03 114.594 1001.03 114.594L997.824 113.405C997.824 113.405 998.252 113.089 996.208 112.263C994.643 111.63 994.51 112.18 994.51 112.18L993.416 111.721C993.416 111.721 991.601 110.951 991.113 111.102C990.935 111.157 990.838 111.26 990.785 111.354L990.782 111.351C990.782 111.351 990.573 111.621 990.778 111.961C991.045 112.404 992.922 113.008 992.922 113.008L1000.56 115.822C1000.56 115.822 1000.07 116.241 1001.8 116.943C1003.58 117.663 1003.56 117.002 1003.56 117.002L1008.07 118.613Z" fill="#50844E" stroke="black" stroke-width="0.0541765" stroke-miterlimit="10"/>
<path d="M982.815 116.811C982.546 116.361 980.669 115.737 980.669 115.737L978.135 114.752C978.135 114.752 978.057 114.207 976.449 113.582C974.544 112.841 974.773 113.437 974.773 113.437L969.687 111.592C969.687 111.592 970.114 111.245 968.436 110.584C966.616 109.869 966.628 110.414 966.628 110.414L961.177 108.254L961.551 108.67L966.566 110.735C966.566 110.735 966.267 110.979 967.793 111.575C969.632 112.294 969.689 111.756 969.689 111.756L974.643 113.646C974.643 113.646 974.423 114.083 976.127 114.74C978.03 115.475 978.044 114.983 978.044 114.983C978.044 114.983 981.468 116.321 981.537 116.346C982.577 116.727 982.726 117.034 982.715 117.191C982.67 117.273 982.625 117.389 982.614 117.4C982.258 117.764 981.948 117.561 981.682 117.524L980.35 117.046L977.803 116.01C977.803 116.01 977.725 115.465 976.118 114.84C974.213 114.099 974.441 114.695 974.441 114.695L969.356 112.85C969.356 112.85 969.783 112.502 968.105 111.842C966.285 111.126 966.296 111.672 966.296 111.672L963.695 110.641L964.174 111.144L966.234 111.993C966.234 111.993 965.935 112.237 967.461 112.833C969.301 113.553 969.357 113.014 969.357 113.014L974.312 114.904C974.312 114.904 974.091 115.341 975.796 115.998C977.699 116.733 977.712 116.241 977.712 116.241C977.712 116.241 981.137 117.579 981.206 117.604C981.229 117.613 981.627 117.748 981.942 117.795C982.295 117.847 982.497 117.74 982.516 117.731C982.516 117.731 982.678 117.702 982.817 117.413C982.818 117.41 982.819 117.407 982.82 117.404C982.863 117.339 982.99 117.104 982.815 116.811Z" fill="#50844E" stroke="black" stroke-width="0.0541765" stroke-miterlimit="10"/>
<path d="M1002.97 124.485L995.865 122.067C995.865 122.067 996.284 121.741 994.221 120.965C992.641 120.371 992.521 120.924 992.521 120.924L991.416 120.492C991.416 120.492 989.583 119.767 989.098 119.93C988.886 120.001 988.793 120.14 988.752 120.245C988.717 120.298 988.603 120.509 988.795 120.773C989.086 121.171 990.974 121.74 990.974 121.74L1000.24 124.814L1000.52 124.707C1000.52 124.707 991.912 121.796 990.094 121.201C988.867 120.8 988.88 120.497 988.929 120.396L988.953 120.397C988.953 120.397 988.886 119.848 990.383 120.395C990.426 120.411 991.899 120.942 992.018 120.98C992.23 121.047 992.483 121.152 992.483 121.152C992.483 121.152 992.1 121.623 994.036 122.306C995.722 122.901 995.83 122.302 995.83 122.302L1002.64 124.601L1002.97 124.485Z" fill="#50844E" stroke="black" stroke-width="0.0541765" stroke-miterlimit="10"/>
<path d="M993.386 114.847C993.386 114.847 993.189 115.124 993.362 115.472C993.497 115.743 994.087 115.986 994.592 116.173C995.097 116.361 995.516 116.493 995.516 116.493L995.904 116.615C995.904 116.615 995.786 117.027 997.383 117.575C999.468 118.29 999.211 117.859 999.211 117.859L1008.13 120.972L1008.14 120.684L999.332 117.66C999.332 117.66 999.573 117.234 997.894 116.621C995.966 115.916 996.017 116.418 996.017 116.418C996.017 116.418 994.714 116.016 994.646 115.992C994.082 115.793 993.729 115.619 993.595 115.434C993.333 115.072 993.653 114.771 993.653 114.771L993.386 114.847Z" fill="#50844E" stroke="black" stroke-width="0.0541765" stroke-miterlimit="10"/>
<path d="M999.211 117.859L1008.13 120.972L1008.14 120.684L999.332 117.66C999.332 117.66 999.572 117.234 997.893 116.621C995.965 115.916 996.016 116.419 996.016 116.419C996.016 116.419 994.713 116.016 994.645 115.992C994.082 115.793 993.728 115.619 993.594 115.434C993.332 115.072 993.652 114.771 993.652 114.771L993.638 114.775C993.794 114.67 994.163 114.614 995.033 114.957C995.099 114.983 996.391 115.468 996.391 115.468C996.391 115.468 996.054 115.794 997.973 116.524C999.644 117.16 999.709 116.701 999.709 116.701L1003.63 118.154C1003.63 118.154 1003.33 118.468 1005.17 119.068C1006.7 119.565 1006.62 119.255 1006.62 119.255L1008.3 119.937L1008.26 119.654L1006.72 119.029C1006.72 119.029 1007.16 118.556 1005.34 117.937C1003.58 117.336 1003.68 117.951 1003.68 117.951L999.75 116.465C999.75 116.465 1000.18 116.244 998.139 115.418C996.574 114.785 996.436 115.241 996.436 115.241L996.063 115.079C996.063 115.079 994.248 114.309 993.76 114.459C993.385 114.575 993.285 115.092 993.285 115.092L993.298 115.084C993.281 115.19 993.288 115.324 993.362 115.471C993.497 115.742 994.087 115.985 994.591 116.172C995.096 116.36 995.516 116.492 995.516 116.492L995.904 116.614C995.904 116.614 995.785 117.026 997.382 117.574C999.467 118.29 999.211 117.859 999.211 117.859Z" fill="#50844E" stroke="black" stroke-width="0.0541765" stroke-miterlimit="10"/>
<path d="M1006.2 123.304L1003.06 122.294C1003.06 122.294 1003.43 121.879 1001.61 121.309C999.827 120.753 999.994 121.297 999.994 121.297L997.427 120.398C997.427 120.398 997.846 120.071 995.781 119.298C994.2 118.707 994.082 119.26 994.082 119.26L993.705 119.108C993.705 119.108 991.87 118.386 991.386 118.549C991.138 118.633 991.053 118.807 991.024 118.915C990.981 118.988 990.871 119.228 991.014 119.516C991.149 119.787 991.74 120.03 992.244 120.217C992.749 120.405 993.169 120.537 993.169 120.537L999.428 122.538C999.428 122.538 999.258 122.934 1000.91 123.498C1002.13 123.916 1002.27 123.422 1002.27 123.422L1004.59 124.175L1004.77 124.005L1002.31 123.216C1002.31 123.216 1002.36 122.924 1001.38 122.55C999.463 121.817 999.541 122.341 999.541 122.341C999.541 122.341 992.367 120.06 992.299 120.036C991.735 119.837 991.382 119.663 991.248 119.478C991.118 119.299 991.131 119.134 991.177 119.014L991.241 119.017C991.241 119.017 991.174 118.468 992.672 119.013C992.739 119.037 994.043 119.488 994.043 119.488C994.043 119.488 993.661 119.96 995.598 120.639C997.285 121.231 997.393 120.633 997.393 120.633L999.951 121.5C999.951 121.5 999.638 121.88 1001.5 122.432C1003.03 122.889 1002.97 122.523 1002.97 122.523L1006.1 123.519L1006.2 123.304Z" fill="#50844E" stroke="black" stroke-width="0.0541765" stroke-miterlimit="10"/>
<path d="M1007.88 121.742L1007.01 121.483C1007.01 121.483 1007.45 121.01 1005.64 120.392C1003.87 119.79 1003.97 120.406 1003.97 120.406L998.919 118.704C998.919 118.704 999.347 118.375 997.266 117.649C995.615 117.073 995.594 117.451 995.594 117.451C995.594 117.451 993.951 116.636 993.399 116.806C993.024 116.922 993.009 117.252 993.009 117.252L993.045 117.255C993.017 117.368 993.01 117.525 993.097 117.699C993.232 117.97 993.822 118.213 994.327 118.4C994.832 118.588 995.252 118.72 995.252 118.72L1000.27 120.318C1000.27 120.318 1000.11 120.698 1001.75 121.277C1003.6 121.928 1003.58 121.562 1003.58 121.562L1007.13 122.69L1007.31 122.496L1003.69 121.295C1003.69 121.295 1003.94 120.937 1002.26 120.324C1000.33 119.619 1000.38 120.121 1000.38 120.121C1000.38 120.121 994.449 118.243 994.381 118.219C993.817 118.02 993.464 117.846 993.33 117.661C993.224 117.516 993.213 117.38 993.237 117.27L993.241 117.27C993.241 117.27 993.241 117.265 993.241 117.256C993.25 117.219 993.263 117.184 993.278 117.154C993.368 117.032 993.668 116.908 994.671 117.303C994.738 117.329 995.56 117.705 995.56 117.705C995.56 117.705 995.164 118.063 997.083 118.793C998.754 119.428 998.879 118.937 998.879 118.937L1003.88 120.625C1003.88 120.625 1003.63 120.922 1005.47 121.522C1006.99 122.018 1006.91 121.709 1006.91 121.709L1007.71 121.919L1007.88 121.742Z" fill="#50844E" stroke="black" stroke-width="0.0541765" stroke-miterlimit="10"/>
<path d="M981.854 112.391C981.586 111.941 979.676 111.298 979.676 111.298L978.992 111.058C978.992 111.058 978.914 110.512 977.306 109.887C975.401 109.147 975.629 109.742 975.629 109.742L970.088 107.702C970.088 107.702 970.515 107.355 968.837 106.695C967.017 105.979 967.029 106.525 967.029 106.525L957.812 102.872L957.801 103.071L966.966 106.845C966.966 106.845 966.668 107.089 968.193 107.686C970.033 108.405 970.089 107.867 970.089 107.867L975.5 109.951C975.5 109.951 975.276 110.397 976.983 111.046C978.747 111.715 978.864 111.357 978.87 111.278C978.875 111.28 978.879 111.282 978.884 111.284C979.001 111.333 980.501 111.891 980.544 111.907C982.074 112.467 981.686 112.891 981.686 112.891L981.689 112.893C981.582 113.075 981.239 113.331 980.165 112.871C979.784 112.708 978.584 112.277 978.584 112.277C978.584 112.277 978.967 111.887 977.017 111.113C975.319 110.439 975.154 110.997 975.154 110.997L969.786 108.792C969.786 108.792 969.732 108.347 968.324 107.779C967.069 107.274 966.665 107.576 966.665 107.576L965.557 107.197C965.557 107.197 965.851 106.654 964.008 105.946C962.478 105.359 962.27 105.747 962.27 105.747L958.336 104.314L958.334 104.557L962.193 105.975C962.193 105.975 961.917 106.598 963.745 107.295C965.429 107.937 965.48 107.372 965.48 107.372L966.572 107.816C966.572 107.816 966.414 108.293 967.862 108.931C969.473 109.641 969.835 109.039 969.835 109.039L975.094 111.277C975.094 111.277 974.598 111.636 976.505 112.373C978.114 112.995 978.475 112.48 978.475 112.48L980.257 113.122C980.257 113.122 981.336 113.46 981.602 113.277C981.715 113.199 981.797 113.083 981.845 113.001L981.846 113.002C981.846 113.002 982.061 112.737 981.854 112.391Z" fill="#50844E" stroke="black" stroke-width="0.0541765" stroke-miterlimit="10"/>
<path d="M979.631 109.471L979.631 109.471C979.632 109.469 979.632 109.467 979.633 109.465C979.644 109.437 979.649 109.417 979.65 109.411C979.678 109.301 979.681 109.148 979.577 108.974C979.271 108.462 975.98 107.292 975.98 107.292C975.98 107.292 976.179 106.993 973.738 106.056C971.829 105.323 971.776 105.801 971.776 105.801C971.776 105.801 967.68 104.233 966.324 103.684C964.19 102.82 957.837 100.106 957.837 100.106L957.748 100.272C957.748 100.272 964.155 103.017 966.305 103.897C967.634 104.441 971.647 106.01 971.647 106.01C971.647 106.01 971.521 106.556 973.5 107.285C976.057 108.226 976.036 107.54 976.036 107.54C976.036 107.54 978.041 108.349 978.11 108.376C979.728 109.01 979.38 109.441 979.38 109.441L979.382 109.442C979.288 109.592 978.969 109.786 977.901 109.344C977.833 109.316 970.738 106.49 970.738 106.49C970.738 106.49 971.176 106.078 969.226 105.304C967.528 104.63 967.363 105.188 967.363 105.188L962.632 103.308C962.632 103.308 962.927 102.765 961.084 102.057C959.554 101.469 959.346 101.857 959.346 101.857L957.61 101.158L957.541 101.395L959.269 102.085C959.269 102.085 958.993 102.708 960.82 103.405C962.505 104.047 962.556 103.483 962.556 103.483L967.303 105.468C967.303 105.468 966.807 105.827 968.714 106.564C970.323 107.186 970.674 106.761 970.674 106.761L976.833 109.249C976.833 109.249 978.672 110.075 979.194 109.873C979.4 109.793 979.515 109.672 979.578 109.574C979.589 109.557 979.611 109.522 979.631 109.471Z" fill="#50844E" stroke="black" stroke-width="0.0541765" stroke-miterlimit="10"/>
<path d="M971.583 101.229C971.457 101.002 970.99 100.78 970.434 100.511C969.733 100.173 968.962 99.794 968.962 99.794C968.962 99.794 969.288 99.3232 968.047 98.7745C966.713 98.185 966.625 98.7138 966.625 98.7138L962.847 96.9437L962.555 97.0334L966.588 98.9251C966.588 98.9251 966.338 99.2272 967.554 99.7427C968.667 100.214 968.832 99.9707 968.832 99.9707C968.832 99.9707 970.516 100.797 970.569 100.821C971.738 101.346 971.354 101.681 971.354 101.681L971.358 101.685C971.315 101.703 971.06 101.772 970.176 101.362C970.118 101.335 968.216 100.46 968.216 100.46C968.216 100.46 968.286 100.174 967.091 99.6049C965.784 98.9832 965.731 99.3738 965.731 99.3738L961.272 97.2526L961.063 97.4398L965.591 99.5386C965.591 99.5386 965.239 99.9486 966.692 100.615C968.043 101.235 968.173 100.676 968.173 100.676C968.173 100.676 970.138 101.599 970.55 101.786C971.223 102.091 971.495 101.859 971.524 101.832L971.527 101.835C971.528 101.835 971.806 101.628 971.583 101.229Z" fill="#50844E" stroke="black" stroke-width="0.0541765" stroke-miterlimit="10"/>
<path d="M979.06 119.754C992.85 125.648 1005.75 126.388 1007.88 121.406C1010.01 116.424 1000.56 107.607 986.772 101.712C972.983 95.8181 960.078 95.0785 957.949 100.06C955.819 105.042 965.271 113.859 979.06 119.754Z" stroke="#50844E" stroke-width="1.73365" stroke-miterlimit="10"/>
</svg>
