<svg width="497" height="460" viewBox="0 0 497 460" fill="none" xmlns="http://www.w3.org/2000/svg">
<path d="M357.089 82.7201C363.366 76.3991 361.574 66.851 350.146 54.3866C338.911 42.1295 311.983 32.9662 277.862 32.0632C242.822 31.1306 200.899 16.1053 231.394 48.8798C243.814 62.2324 266.626 78.2643 280.586 87.5164C292.31 95.2733 304.33 97.0201 311.835 96.8129C319.578 96.6056 337.756 102.157 357.089 82.7201Z" fill="#79C4FF" stroke="#297CD6" stroke-width="1.48033" stroke-miterlimit="10" stroke-linecap="round" stroke-linejoin="round"/>
<path d="M347.289 79.923C352.737 74.4458 352.382 65.8747 342.478 55.0831C332.738 44.4543 312.931 36.1052 283.354 35.3207C252.992 34.5213 200.233 15.0253 232.741 47.785C249.38 64.5572 270.105 75.7781 282.199 83.7867C292.369 90.4926 330.547 96.7691 347.289 79.923Z" fill="#99D3FF"/>
<path d="M260.364 61.8925C251.127 55.0978 252.119 54.3576 244.584 47.9182C232.09 37.2598 244.273 31.1905 261.193 35.3206C274.753 38.6365 205.784 16.0911 227.886 41.3011C232.46 46.5119 234.281 49.5021 244.984 56.4597C256.234 63.7725 266.019 66.0522 260.364 61.8925Z" fill="#DDF8FF"/>
</svg>
