<svg width="497" height="460" viewBox="0 0 497 460" fill="none" xmlns="http://www.w3.org/2000/svg">
<path d="M435.857 143.785C432.615 135.643 424.251 133.556 410.514 139.019C396.998 144.407 381.188 165.161 369.923 195.641C358.347 226.935 333.093 258.97 369.361 244.181C384.134 238.156 404.296 223.797 416.183 214.782C426.161 207.217 432.171 196.737 434.554 190.164C437.559 181.859 445.82 168.832 435.857 143.785Z" fill="#79C4FF" stroke="#297CD6" stroke-width="1.48033" stroke-miterlimit="10" stroke-linecap="round" stroke-linejoin="round"/>
<path d="M430.543 151.556C427.745 144.51 420.61 141.49 408.708 146.227C396.998 150.89 384.045 165.545 374.275 191.955C364.253 219.074 331.997 259.161 368.857 242.537C387.731 234.025 403.319 219.666 413.608 211.85C422.253 205.307 439.173 173.243 430.543 151.556Z" fill="#99D3FF"/>
<path d="M388.945 223.086C380.522 228.785 380.226 227.601 372.632 231.909C360.049 239.044 358.835 225.676 367.436 211.998C374.334 201.029 334.587 254.587 362.062 244.417C367.747 242.315 370.767 241.827 379.767 234.869C389.212 227.556 394.097 219.607 388.945 223.086Z" fill="#DDF8FF"/>
</svg>
