<svg width="499" height="530" viewBox="0 0 499 530" fill="none" xmlns="http://www.w3.org/2000/svg">
<path d="M248.318 467.244C258.376 475.178 269.48 481.851 281.361 486.742C293.203 491.722 305.75 495.022 318.518 496.597C331.295 498.216 344.268 497.775 357.047 496.084C369.843 494.41 382.471 491.631 395.075 488.844C382.509 491.797 369.917 494.74 357.116 496.585C344.334 498.448 331.293 499.066 318.401 497.604C305.521 496.186 292.818 493.027 280.786 488.15C268.713 483.361 257.379 476.758 247.064 468.837L248.318 467.244Z" fill="#574B1E"/>
<path d="M248.318 467.244C258.376 475.178 269.48 481.851 281.361 486.742C293.203 491.722 305.75 495.022 318.518 496.597C331.295 498.216 344.268 497.775 357.047 496.084C369.843 494.41 382.471 491.631 395.075 488.844C382.509 491.797 369.917 494.74 357.116 496.585C344.334 498.448 331.293 499.066 318.401 497.604C305.521 496.186 292.818 493.027 280.786 488.15C268.713 483.361 257.379 476.758 247.064 468.837L248.318 467.244Z" fill="url(#paint0_linear_3316_579098)"/>
<path d="M280.143 500.766L256.892 514.551C249.146 519.132 241.217 523.619 232.646 526.464C241.102 523.296 248.8 518.55 256.36 513.689L279.076 499.044L280.143 500.766Z" fill="#574B1E"/>
<path d="M280.143 500.766L256.892 514.551C249.146 519.132 241.217 523.619 232.646 526.464C241.102 523.296 248.8 518.55 256.36 513.689L279.076 499.044L280.143 500.766Z" fill="url(#paint1_linear_3316_579098)"/>
<path d="M290.047 450.814C288.549 459.157 289.298 467.86 291.769 476.017C294.241 484.187 298.385 491.861 303.779 498.52C314.646 511.909 329.958 521.146 346.11 527.06C329.849 521.46 314.283 512.519 302.998 499.166C297.392 492.515 293.015 484.791 290.317 476.47C287.623 468.166 286.659 459.199 288.048 450.478L290.047 450.814Z" fill="#574B1E"/>
<path d="M138.134 475.737C135.387 484.722 135.846 494.952 139.708 504.048C134.642 495.564 132.544 485.073 134.183 474.835L138.134 475.737Z" fill="#574B1E"/>
<path d="M105.467 421.988C105.87 423.835 106.754 426.61 108.971 428.966C115.241 435.633 124.639 430.947 136.209 435.142C147.299 439.161 155.778 449.668 154.004 453.665C153.591 454.596 152.329 455.832 137.661 455.844C123.154 455.856 115.899 455.862 110.422 453.665C106.677 452.163 98.1604 448.009 91.0348 436.749C95.8449 431.827 100.657 426.908 105.467 421.988Z" fill="#574B1E"/>
<path d="M105.467 421.988C105.87 423.835 106.754 426.61 108.971 428.966C115.241 435.633 124.639 430.947 136.209 435.142C147.299 439.161 155.778 449.668 154.004 453.665C153.591 454.598 152.329 455.832 137.661 455.844C123.154 455.856 115.899 455.862 110.422 453.665C106.677 452.163 98.1604 448.009 91.0348 436.749C95.8449 431.827 100.657 426.908 105.467 421.988Z" fill="url(#paint2_linear_3316_579098)"/>
<path d="M116.308 432.596C113.535 432.151 111.073 431.205 108.969 428.968C106.752 426.612 105.868 423.837 105.466 421.99C102.764 424.753 100.062 427.518 97.3595 430.281C97.2327 431.964 97.3212 434.058 98.5555 434.84C100.394 436.006 103.815 433.643 104.282 434.382C104.537 434.787 103.522 435.512 102.832 437.403C102.316 438.813 102.127 440.478 102.536 440.659C103.114 440.915 104.263 437.933 105.641 438.074C106.823 438.196 107.002 440.492 108.351 442.496C110.062 445.039 112.829 445.877 115.716 446.753C115.724 446.755 115.736 446.757 115.744 446.759C115.029 442.115 115.156 437.182 116.308 432.596Z" fill="url(#paint3_linear_3316_579098)"/>
<path d="M136.209 435.142C130.195 432.963 124.774 433.176 120.067 432.953C120.075 433.804 120.101 434.656 120.111 435.51C120.78 434.946 122.135 435.389 122.137 436.44C122.143 438.786 122.201 441.132 122.223 443.476C122.362 444.859 122.447 446.239 122.374 447.61C127.738 447.699 134.64 446.708 142.372 444.33C147.525 449.712 152.792 454.761 153.845 453.949C153.867 453.931 153.927 453.842 154.006 453.665C155.776 449.668 147.299 439.161 136.209 435.142Z" fill="url(#paint4_linear_3316_579098)"/>
<path d="M344.292 451.158C342.057 458.412 338.679 461.414 335.98 462.81C327.786 467.047 321.039 458.967 301.731 456.416C289.238 454.765 286.302 457.387 279.356 453.676C271.445 449.449 264.37 440.234 266.57 434.95C269.317 428.353 287.378 425.826 298.993 432.667C305.247 436.35 307.901 441.728 314.692 442.175C319.317 442.479 323.229 440.323 325.704 438.575C331.899 442.769 338.097 446.964 344.292 451.158Z" fill="#574B1E"/>
<path d="M344.292 451.158C342.057 458.412 338.679 461.414 335.98 462.81C327.786 467.047 321.039 458.967 301.731 456.416C289.238 454.765 286.302 457.387 279.356 453.676C271.445 449.449 264.37 440.234 266.57 434.95C269.317 428.353 287.378 425.826 298.993 432.667C305.247 436.35 307.901 441.728 314.692 442.175C319.317 442.479 323.229 440.323 325.704 438.575C331.899 442.769 338.097 446.964 344.292 451.158Z" fill="url(#paint5_linear_3316_579098)"/>
<path d="M318.337 444.001C319.251 446.011 320.549 448.69 322.555 449.97C322.682 449.362 322.8 448.752 322.943 448.146C323.135 447.332 324.401 446.885 324.965 447.612C326.185 449.189 327.387 450.778 328.77 452.216C329.491 452.965 330.309 453.855 331.277 454.289C331.374 454.332 331.644 454.402 331.73 454.436C331.76 454.418 331.785 454.416 331.825 454.36C331.736 454.481 331.99 454.066 331.964 454.114C332.878 452.419 332.9 450.065 333.025 448.19C333.123 446.682 333.144 445.17 333.218 443.659C330.713 441.964 328.211 440.268 325.706 438.573C323.759 439.948 320.914 441.557 317.541 442.042C317.795 442.707 318.051 443.375 318.337 444.001Z" fill="url(#paint6_linear_3316_579098)"/>
<path d="M312.775 424.445C313.732 426.243 315.123 429.426 315.381 433.587C315.449 434.674 316.053 444.4 311.461 447.485C303.983 452.509 290.726 434.551 278.679 439.29C272.706 441.639 270.334 449.575 269.059 453.544C266.16 462.576 269.277 466.728 267.179 472.417C265.258 477.628 259.171 483.552 240.909 486.685C240.083 485.874 220.662 466.182 227.369 441.783C228.176 438.849 232.928 421.581 250.173 415.055C269.037 407.918 285.118 419.9 286.055 420.623C290.603 417.222 295.154 413.823 299.702 410.422C304.059 415.097 308.418 419.771 312.775 424.445Z" fill="#574B1E"/>
<path d="M312.775 424.445C313.732 426.243 315.123 429.426 315.381 433.587C315.449 434.674 316.053 444.4 311.461 447.485C303.983 452.509 290.726 434.551 278.679 439.29C272.706 441.639 270.334 449.575 269.059 453.544C266.16 462.576 269.277 466.728 267.179 472.417C265.258 477.628 259.171 483.552 240.909 486.685C240.083 485.874 220.662 466.182 227.369 441.783C228.176 438.849 232.928 421.581 250.173 415.055C269.037 407.918 285.118 419.9 286.055 420.623C290.603 417.222 295.154 413.823 299.702 410.422C304.059 415.097 308.418 419.771 312.775 424.445Z" fill="url(#paint7_linear_3316_579098)"/>
<path d="M259.735 473.474C259.39 470.883 259.263 468.265 259.501 465.657C259.721 463.247 260.532 460.919 260.697 458.512C260.854 456.233 259.412 454.479 259.259 452.304C259.149 450.732 260.292 449.465 259.074 448.039C257.194 445.838 253.449 446.253 252.589 442.979C252.454 442.464 252.677 441.882 253.145 441.614C255.969 439.987 259.404 439.127 261.899 436.974C264.225 434.969 265.227 431.821 267.688 429.943C269.617 428.471 272.015 428.463 274.322 428.756C278.166 429.244 281.786 430.839 285.491 431.892C290.414 433.291 296.013 434.832 301.158 434.463C303.203 434.316 304.277 433.485 304.897 431.535C305.615 429.278 305.698 426.836 305.706 424.486C305.716 421.781 305.479 419.089 305.273 416.396C303.417 414.405 301.558 412.411 299.702 410.42C295.154 413.819 290.603 417.22 286.055 420.619C285.118 419.896 269.037 407.915 250.173 415.051C232.925 421.576 228.174 438.845 227.368 441.779C220.661 466.176 240.081 485.87 240.909 486.682C247.364 483.323 253.819 479.962 260.274 476.603C260.067 475.568 259.873 474.527 259.735 473.474Z" fill="url(#paint8_linear_3316_579098)"/>
<path d="M117.449 420.607C117.121 425.986 117.168 434.356 119.699 444.101C122.201 453.732 125.681 467.131 135.15 470.695C139.491 472.328 140.536 470.182 159.225 467.101C175.039 464.495 178.321 465.367 180.785 466.74C186.491 469.922 185.885 474.713 191.565 480.756C195.328 484.759 201.62 489.068 212.767 490.818C214.752 492.016 217.917 493.581 222.023 494.169C230.123 495.329 236.455 491.911 240.196 489.892C254.61 482.113 260.816 467.065 262.644 462.095C259.278 461.217 254.035 459.624 248.035 456.749C229.95 448.086 228.824 439.211 216.677 436.791C204.701 434.407 199.752 441.829 191.378 437.147C183.491 432.739 185.962 425.081 178.989 421.817C167.905 416.626 152.989 432.015 146.649 426.489C144.885 424.951 144.523 422.514 144.438 421.032C141.436 412.323 132.961 407.965 126.389 410.007C119.618 412.113 117.554 420.176 117.449 420.607Z" fill="#574B1E"/>
<path d="M117.449 420.607C117.121 425.986 117.168 434.356 119.699 444.101C122.201 453.732 125.681 467.131 135.15 470.695C139.491 472.328 140.536 470.182 159.225 467.101C175.039 464.495 178.321 465.367 180.785 466.74C186.491 469.922 185.885 474.713 191.565 480.756C195.328 484.759 201.62 489.068 212.767 490.818C214.752 492.016 217.917 493.581 222.023 494.169C230.123 495.329 236.455 491.911 240.196 489.892C254.61 482.113 260.816 467.065 262.644 462.095C259.278 461.217 254.035 459.624 248.035 456.749C229.95 448.086 228.824 439.211 216.677 436.791C204.701 434.407 199.752 441.829 191.378 437.147C183.491 432.739 185.962 425.081 178.989 421.817C167.905 416.626 152.989 432.015 146.649 426.489C144.885 424.951 144.523 422.514 144.438 421.032C141.436 412.323 132.961 407.965 126.389 410.007C119.618 412.113 117.554 420.176 117.449 420.607Z" fill="url(#paint9_linear_3316_579098)"/>
<path d="M262.632 462.107C261.519 463.025 260.383 463.945 259.246 464.888C256.755 465.854 254.262 466.823 251.772 467.791C250.974 467.936 250.151 468.106 249.329 468.275C241.638 466.871 233.946 465.47 226.255 464.09C224.248 462.687 221.344 460.921 217.595 459.495C209.13 456.301 200.132 456.253 199.818 457.608C199.577 458.601 204.316 459.882 215.515 465.711C219.047 467.55 221.924 469.147 223.883 470.282C227.197 476.257 230.536 482.231 233.872 488.208C232.905 488.063 231.502 487.797 229.929 487.096C224.825 484.775 223.98 480.54 220.666 476.307C214.061 467.816 202.138 465.011 199.961 464.551C196.961 463.899 194.156 464.165 191.18 461.793C188.617 459.785 186.511 457.101 184.262 454.753C179.933 450.254 174.95 446.31 168.468 445.947C161.454 445.56 155.045 449.672 148.271 450.907C144.571 451.583 140.918 451.1 137.749 448.972C135.999 447.798 134.753 446.199 132.307 442.925C131.203 441.447 130.489 440.297 130.785 439.107C131.028 438.12 131.856 437.554 132.685 437.006C136.338 434.59 139.668 432.737 139.602 432.574C139.533 432.409 136.086 434.312 131.606 434.3C129.21 434.294 126.711 433.74 126.703 433.227C126.697 432.737 128.95 432.51 133.764 431.348C138.071 430.311 140.952 429.616 140.908 429.062C140.852 428.344 135.842 427.478 130.716 428.015C127.784 428.323 126.701 428.891 125.574 428.11C123.806 426.886 123.987 423.78 124.241 420.204C124.412 417.78 124.893 414.234 126.333 410.027C126.357 410.027 126.357 410.027 126.381 410.003C132.961 407.971 141.426 412.325 144.426 421.034C144.522 422.51 144.885 424.953 146.651 426.501C147.158 427.421 148.078 428.775 149.578 429.961C152.675 432.355 156.132 432.331 157.245 432.282C158.963 429.912 161.526 426.839 165.251 423.936C166.461 422.991 167.669 422.17 168.855 421.469C168.855 421.469 168.855 421.445 168.879 421.445C172.363 420.551 175.846 420.355 178.989 421.831C184.6 424.467 184.093 429.934 187.794 434.266C187.866 435.597 188.084 437.073 188.567 438.644C189.608 441.958 191.348 444.231 192.437 445.466C193.186 444.499 194.082 443.507 195.171 442.516C198.679 439.346 202.524 437.87 205.305 437.194C205.691 437.073 206.078 437 206.418 436.928C209.297 436.324 212.561 435.983 216.675 436.807C228.818 439.225 229.954 448.079 248.023 456.764C254.047 459.616 259.272 461.213 262.632 462.107Z" fill="url(#paint10_linear_3316_579098)"/>
<path d="M458.953 247.749C460.273 248.385 451.799 271.192 440.437 293.763C422.722 328.957 400.79 358.008 378.157 381.864C383.581 370.454 389.005 359.045 394.427 347.633C401.215 338.695 411.228 325.046 422.481 307.793C445.324 272.773 457.523 247.06 458.953 247.749Z" fill="#7F8E35"/>
<path d="M458.953 247.749C460.273 248.385 451.799 271.192 440.437 293.763C422.722 328.957 400.79 358.008 378.157 381.864C383.581 370.454 389.005 359.045 394.427 347.633C401.215 338.695 411.228 325.046 422.481 307.793C445.324 272.773 457.523 247.06 458.953 247.749Z" fill="url(#paint11_linear_3316_579098)"/>
<path d="M458.953 247.749C460.273 248.385 451.799 271.192 440.437 293.763C422.722 328.957 400.79 358.008 378.157 381.864C383.581 370.454 389.005 359.045 394.427 347.633C401.215 338.695 411.228 325.046 422.481 307.793C445.324 272.773 457.523 247.06 458.953 247.749Z" fill="url(#paint12_linear_3316_579098)"/>
<path d="M123.899 4.39937C120.661 75.005 118.486 147.63 117.574 222.171C116.912 276.208 116.938 329.234 117.574 381.207C124.803 380.003 132.031 378.797 139.259 377.592C139.769 317.71 140.663 257.163 141.969 195.965C143.355 131.054 145.173 66.89 147.392 3.49332C139.561 3.79537 131.729 4.09732 123.899 4.39937Z" fill="#7F8E35"/>
<path d="M123.899 4.39937C120.661 75.005 118.486 147.63 117.574 222.171C116.912 276.208 116.938 329.234 117.574 381.207C124.803 380.003 132.031 378.797 139.259 377.592C139.769 317.71 140.663 257.163 141.969 195.965C143.355 131.054 145.173 66.89 147.392 3.49332C139.561 3.79537 131.729 4.09732 123.899 4.39937Z" fill="url(#paint13_linear_3316_579098)"/>
<path d="M123.899 4.39937C120.661 75.005 118.486 147.63 117.574 222.171C116.912 276.208 116.938 329.234 117.574 381.207C124.803 380.003 132.031 378.797 139.259 377.592C139.769 317.71 140.663 257.163 141.969 195.965C143.355 131.054 145.173 66.89 147.392 3.49332C139.561 3.79537 131.729 4.09732 123.899 4.39937Z" fill="url(#paint14_linear_3316_579098)"/>
<path d="M197.084 3.49527C205.216 3.79732 213.347 4.09731 221.479 4.39936C196.442 71.3743 172.55 151.237 156.307 242.624C147.807 290.457 142.431 335.652 139.257 377.595C133.879 365.043 128.501 352.492 123.123 339.941C129.073 274.081 140.612 199.271 161.663 118.436C172.397 77.222 184.451 38.8696 197.084 3.49527Z" fill="#7F8E35"/>
<path d="M197.084 3.49527C205.216 3.79732 213.347 4.09731 221.479 4.39936C196.442 71.3743 172.55 151.237 156.307 242.624C147.807 290.457 142.431 335.652 139.257 377.595C133.879 365.043 128.501 352.492 123.123 339.941C129.073 274.081 140.612 199.271 161.663 118.436C172.397 77.222 184.451 38.8696 197.084 3.49527Z" fill="url(#paint15_linear_3316_579098)"/>
<path d="M197.084 3.49527C205.216 3.79732 213.347 4.09731 221.479 4.39936C196.442 71.3743 172.55 151.237 156.307 242.624C147.807 290.457 142.431 335.652 139.257 377.595C133.879 365.043 128.501 352.492 123.123 339.941C129.073 274.081 140.612 199.271 161.663 118.436C172.397 77.222 184.451 38.8696 197.084 3.49527Z" fill="url(#paint16_linear_3316_579098)"/>
<path d="M353.059 67.9294C339.45 63.5114 319.788 59.4598 298 64.1054C281.075 67.7139 242.121 80.992 184.137 195.564C163.016 237.298 137.129 296.895 117.482 372.987C120.329 382.826 123.176 392.667 126.023 402.506C133.449 387.653 140.874 372.8 148.3 357.947C153.714 335.138 160.328 311.492 168.388 287.191C215.34 145.651 235.698 68.9 287.158 55.3641C299.315 52.1684 320.831 50.3782 353.059 67.9294Z" fill="#7F8E35"/>
<path d="M353.059 67.9294C339.45 63.5114 319.788 59.4598 298 64.1054C281.075 67.7139 242.121 80.992 184.137 195.564C163.016 237.298 137.129 296.895 117.482 372.987C120.329 382.826 123.176 392.667 126.023 402.506C133.449 387.653 140.874 372.8 148.3 357.947C153.714 335.138 160.328 311.492 168.388 287.191C215.34 145.651 235.698 68.9 287.158 55.3641C299.315 52.1684 320.831 50.3782 353.059 67.9294Z" fill="url(#paint17_linear_3316_579098)"/>
<path d="M353.059 67.9294C339.45 63.5114 319.788 59.4598 298 64.1054C281.075 67.7139 242.121 80.992 184.137 195.564C163.016 237.298 137.129 296.895 117.482 372.987C120.329 382.826 123.176 392.667 126.023 402.506C133.449 387.653 140.874 372.8 148.3 357.947C153.714 335.138 160.328 311.492 168.388 287.191C215.34 145.651 235.698 68.9 287.158 55.3641C299.315 52.1684 320.831 50.3782 353.059 67.9294Z" fill="url(#paint18_linear_3316_579098)"/>
<path d="M383.285 210.178C357.41 199.846 335.223 197.689 318.028 198.383C232.334 201.843 152.75 280.862 111.025 395.329C110.539 397.389 110.177 400.438 111.453 403.469C112.811 406.69 114.703 406.767 116.165 409.894C118.553 414.997 115.903 419.9 117.449 420.605C118.804 421.221 120.133 417.147 123.874 416.32C128.161 415.371 130.565 419.805 137.582 421.032C140.481 421.539 142.938 421.283 144.436 421.032C146.125 414.842 148.658 406.09 152.147 395.754C162.269 365.758 183.447 303 223.525 263.562C277.566 210.383 356.117 209.298 383.285 210.178Z" fill="#7F8E35"/>
<path d="M383.285 210.178C357.41 199.846 335.223 197.689 318.028 198.383C232.334 201.843 152.75 280.862 111.025 395.329C110.539 397.389 110.177 400.438 111.453 403.469C112.811 406.69 114.703 406.767 116.165 409.894C118.553 414.997 115.903 419.9 117.449 420.605C118.804 421.221 120.133 417.147 123.874 416.32C128.161 415.371 130.565 419.805 137.582 421.032C140.481 421.539 142.938 421.283 144.436 421.032C146.125 414.842 148.658 406.09 152.147 395.754C162.269 365.758 183.447 303 223.525 263.562C277.566 210.383 356.117 209.298 383.285 210.178Z" fill="url(#paint19_linear_3316_579098)"/>
<path d="M383.285 210.178C357.41 199.846 335.223 197.689 318.028 198.383C232.334 201.843 152.75 280.862 111.025 395.329C110.539 397.389 110.177 400.438 111.453 403.469C112.811 406.69 114.703 406.767 116.165 409.894C118.553 414.997 115.903 419.9 117.449 420.605C118.804 421.221 120.133 417.147 123.874 416.32C128.161 415.371 130.565 419.805 137.582 421.032C140.481 421.539 142.938 421.283 144.436 421.032C146.125 414.842 148.658 406.09 152.147 395.754C162.269 365.758 183.447 303 223.525 263.562C277.566 210.383 356.117 209.298 383.285 210.178Z" fill="url(#paint20_linear_3316_579098)"/>
<path d="M73.6911 191.579C81.6704 202.276 89.9476 216.16 108.155 276.695C126.83 338.785 127.374 354.935 127.418 362.468C127.591 391.956 120.901 420.734 117.452 420.607C116.9 420.587 116.666 419.836 113.108 412.123C108.705 402.575 108.483 402.474 107.928 400.986C104.555 391.934 107.861 382.627 108.705 379.747C113.247 364.236 105.592 332.903 98.4343 292.899C84.4147 214.543 89.3518 198.168 70.0931 178.367C60.4869 168.49 49.9243 162.967 42.4101 159.827C50.6914 166.235 62.4923 176.567 73.6911 191.579Z" fill="#7F8E35"/>
<path d="M73.6911 191.579C81.6704 202.276 89.9476 216.16 108.155 276.695C126.83 338.785 127.374 354.935 127.418 362.468C127.591 391.956 120.901 420.734 117.452 420.607C116.9 420.587 116.666 419.836 113.108 412.123C108.705 402.575 108.483 402.474 107.928 400.986C104.555 391.934 107.861 382.627 108.705 379.747C113.247 364.236 105.592 332.903 98.4343 292.899C84.4147 214.543 89.3518 198.168 70.0931 178.367C60.4869 168.49 49.9243 162.967 42.4101 159.827C50.6914 166.235 62.4923 176.567 73.6911 191.579Z" fill="url(#paint21_linear_3316_579098)"/>
<path d="M73.6911 191.579C81.6704 202.276 89.9476 216.16 108.155 276.695C126.83 338.785 127.374 354.935 127.418 362.468C127.591 391.956 120.901 420.734 117.452 420.607C116.9 420.587 116.666 419.836 113.108 412.123C108.705 402.575 108.483 402.474 107.928 400.986C104.555 391.934 107.861 382.627 108.705 379.747C113.247 364.236 105.592 332.903 98.4343 292.899C84.4147 214.543 89.3518 198.168 70.0931 178.367C60.4869 168.49 49.9243 162.967 42.4101 159.827C50.6914 166.235 62.4923 176.567 73.6911 191.579Z" fill="url(#paint22_linear_3316_579098)"/>
<path d="M439.156 5.80737C406.635 58.6242 368.689 133.438 343.855 228.458C328.518 287.138 321.574 340.543 318.848 385.517C311.899 383.191 304.951 380.863 298 378.537C298.113 332.523 303.143 269.811 323.884 198.744C349.034 112.563 387.416 47.9193 416.827 6.30465C424.269 6.13751 431.713 5.97249 439.156 5.80737Z" fill="#7F8E35"/>
<path d="M439.156 5.80737C406.635 58.6242 368.689 133.438 343.855 228.458C328.518 287.138 321.574 340.543 318.848 385.517C311.899 383.191 304.951 380.863 298 378.537C298.113 332.523 303.143 269.811 323.884 198.744C349.034 112.563 387.416 47.9193 416.827 6.30465C424.269 6.13751 431.713 5.97249 439.156 5.80737Z" fill="#7F8E35"/>
<path d="M439.156 5.80737C406.635 58.6242 368.689 133.438 343.855 228.458C328.518 287.138 321.574 340.543 318.848 385.517C311.899 383.191 304.951 380.863 298 378.537C298.113 332.523 303.143 269.811 323.884 198.744C349.034 112.563 387.416 47.9193 416.827 6.30465C424.269 6.13751 431.713 5.97249 439.156 5.80737Z" fill="url(#paint23_linear_3316_579098)"/>
<path d="M299.718 0C291.1 1.38138 282.483 2.76077 273.867 4.14215C288.547 71.3225 300.342 151.656 302.388 242.566C303.487 291.45 301.623 336.961 298.003 378.537C305.287 366.989 312.572 355.438 319.857 343.89C324.337 277.914 324.705 202.22 316.627 119.081C312.506 76.6909 306.632 36.9208 299.718 0Z" fill="#7F8E35"/>
<path d="M299.718 0C291.1 1.38138 282.483 2.76077 273.867 4.14215C288.547 71.3225 300.342 151.656 302.388 242.566C303.487 291.452 301.623 336.961 298.003 378.539C304.583 371.473 311.163 364.407 317.743 357.341C318.447 352.857 319.152 348.374 319.857 343.89C324.337 277.914 324.705 202.22 316.627 119.081C312.506 76.6909 306.632 36.9208 299.718 0Z" fill="url(#paint24_linear_3316_579098)"/>
<path d="M299.718 0C291.1 1.38138 282.483 2.76077 273.867 4.14215C288.547 71.3225 300.342 151.656 302.388 242.566C303.487 291.452 301.623 336.961 298.003 378.539C302.491 368.397 306.981 358.251 311.469 348.109C314.265 346.703 317.06 345.297 319.857 343.892C324.337 277.916 324.705 202.222 316.627 119.083C312.506 76.6909 306.632 36.9208 299.718 0Z" fill="url(#paint25_linear_3316_579098)"/>
<path d="M239.002 3.99705C240.464 10.614 242.671 20.5676 245.373 32.6396C263.369 113.012 276.849 168.641 282.308 191.716C292.23 233.661 305.74 295.258 320.235 377.416C315.876 386.685 311.519 395.953 307.16 405.224C302.162 389.389 297.165 373.553 292.166 357.718C289.983 334 287.116 309.637 283.451 284.684C267.901 178.762 241.326 84.7154 211.146 3.68905C220.432 3.78973 229.716 3.89435 239.002 3.99705Z" fill="#7F8E35"/>
<path d="M239.002 3.99705C240.464 10.614 242.671 20.5676 245.373 32.6396C263.369 113.012 276.849 168.641 282.308 191.716C292.23 233.661 305.74 295.258 320.235 377.416C315.876 386.685 311.519 395.953 307.16 405.224C302.162 389.389 297.165 373.553 292.166 357.718C289.983 334 287.116 309.637 283.451 284.684C267.901 178.762 241.326 84.7154 211.146 3.68905C220.432 3.78973 229.716 3.89435 239.002 3.99705Z" fill="url(#paint26_linear_3316_579098)"/>
<path d="M239.002 3.99705C240.464 10.614 242.671 20.5676 245.373 32.6396C263.369 113.012 276.849 168.641 282.308 191.716C292.23 233.661 305.74 295.258 320.235 377.416C315.876 386.685 311.519 395.953 307.16 405.224C302.162 389.389 297.165 373.553 292.166 357.718C289.983 334 287.116 309.637 283.451 284.684C267.901 178.762 241.326 84.7154 211.146 3.68905C220.432 3.78973 229.716 3.89435 239.002 3.99705Z" fill="url(#paint27_linear_3316_579098)"/>
<path d="M133.02 101.034C155.329 121.424 178.594 145.419 201.407 173.5C267.668 255.062 303.26 338.066 323.094 400.492C323.249 402.603 323.129 405.671 321.391 408.464C319.545 411.432 317.664 411.211 315.727 414.071C312.566 418.734 314.412 423.994 312.773 424.445C311.34 424.842 310.665 420.609 307.101 419.203C303.016 417.592 299.948 421.593 292.822 421.702C289.878 421.746 287.492 421.108 286.053 420.625C285.356 414.248 284.231 405.206 282.412 394.449C279.324 376.185 269.627 326.322 232.71 252.676C213.314 213.973 182.049 160.041 133.02 101.034Z" fill="#7F8E35"/>
<path d="M133.02 101.034C155.329 121.424 178.594 145.419 201.407 173.5C267.668 255.062 303.26 338.066 323.094 400.492C323.249 402.603 323.129 405.671 321.391 408.464C319.545 411.432 317.664 411.211 315.727 414.071C312.566 418.734 314.412 423.994 312.773 424.445C311.34 424.842 310.665 420.609 307.101 419.203C303.016 417.592 299.948 421.593 292.822 421.702C289.878 421.746 287.492 421.108 286.053 420.625C285.356 414.248 284.231 405.206 282.412 394.449C279.324 376.185 269.627 326.322 232.71 252.676C213.314 213.973 182.049 160.041 133.02 101.034Z" fill="url(#paint28_linear_3316_579098)"/>
<path d="M133.02 101.034C155.329 121.424 178.594 145.419 201.407 173.5C267.668 255.062 303.26 338.066 323.094 400.492C323.249 402.603 323.129 405.671 321.391 408.464C319.545 411.432 317.664 411.211 315.727 414.071C312.566 418.734 314.412 423.994 312.773 424.445C311.34 424.842 310.665 420.609 307.101 419.203C303.016 417.592 299.948 421.593 292.822 421.702C289.878 421.746 287.492 421.108 286.053 420.625C285.356 414.248 284.231 405.206 282.412 394.449C279.324 376.185 269.627 326.322 232.71 252.676C213.314 213.973 182.049 160.041 133.02 101.034Z" fill="url(#paint29_linear_3316_579098)"/>
<path d="M427.883 178.718C417.822 189.265 404.954 204.07 391.916 223.18C370.219 254.918 359.214 282.229 351.643 301.315C348.232 309.903 325.69 368.708 327.842 385.472C328.204 388.448 330.018 398.148 325.255 406.565C324.481 407.945 324.238 408.017 318.385 416.749C314.056 423.231 313.402 424.344 312.894 424.441C312.846 424.441 312.797 424.441 312.797 424.441C312.773 424.441 312.773 424.441 312.773 424.441H312.749C310.983 424.441 306.074 423.909 292.818 421.706C297.171 408.209 303.654 388.734 312.071 365.464C318.31 348.265 323.849 332.251 330.598 315.463C330.623 315.414 330.647 315.39 330.647 315.366C334.202 306.512 338.097 297.44 342.595 287.885C343.223 286.554 343.901 285.177 344.578 283.773C364.219 243.133 375.102 225.186 383.206 214.855C383.472 214.541 383.714 214.203 383.979 213.889C384.39 213.381 384.801 212.896 385.214 212.413C385.818 211.664 386.448 210.961 387.076 210.26C388.793 208.349 390.414 206.704 392.011 205.155C405.413 192.097 418.692 183.75 427.883 178.718Z" fill="#7F8E35"/>
<path d="M427.883 178.718C417.822 189.265 404.954 204.07 391.916 223.18C370.219 254.918 359.214 282.229 351.643 301.315C348.232 309.903 325.69 368.708 327.842 385.472C328.204 388.448 330.018 398.148 325.255 406.565C324.481 407.945 324.238 408.017 318.385 416.749C314.056 423.231 313.402 424.344 312.894 424.441C312.846 424.441 312.797 424.441 312.797 424.441C312.773 424.441 312.773 424.441 312.773 424.441H312.749C310.983 424.441 306.074 423.909 292.818 421.706C297.171 408.209 303.654 388.734 312.071 365.464C318.31 348.265 323.849 332.251 330.598 315.463C330.623 315.414 330.647 315.39 330.647 315.366C337.299 300.561 342.305 289.047 344.58 283.773C348.885 273.832 364.777 237.787 383.208 214.855C383.474 214.541 383.716 214.203 383.981 213.889C384.392 213.381 384.803 212.896 385.216 212.413C385.82 211.664 386.45 210.961 387.078 210.26C388.796 208.349 390.416 206.704 392.013 205.155C405.413 192.097 418.692 183.75 427.883 178.718Z" fill="url(#paint30_linear_3316_579098)"/>
<path d="M427.883 178.718C417.822 189.265 404.954 204.07 391.916 223.18C370.219 254.918 359.214 282.229 351.643 301.315C348.232 309.903 325.69 368.708 327.842 385.472C328.204 388.448 330.018 398.148 325.255 406.565C324.481 407.945 324.238 408.017 318.385 416.749C314.056 423.231 313.402 424.344 312.894 424.441C312.846 424.441 312.797 424.441 312.797 424.441C312.773 424.441 312.773 424.441 312.773 424.441H312.749C310.983 424.441 306.074 423.909 292.818 421.706C293.18 420.544 293.567 419.36 293.98 418.126C298.236 420.738 303.847 421.513 307.113 419.191C315.167 413.482 306.896 390.331 305.009 385.349C307.186 379.109 309.532 372.456 312.072 365.464C317.152 351.433 316.184 354.385 317.829 349.474C322.037 336.942 324.31 328.016 330.6 315.463C330.625 315.439 330.625 315.39 330.649 315.366C334.205 306.512 338.099 297.44 342.597 287.885C343.225 286.554 343.903 285.177 344.58 283.773C364.221 243.133 375.104 225.186 383.208 214.855C383.474 214.541 383.716 214.203 383.981 213.889C384.392 213.381 384.803 212.896 385.216 212.413C385.82 211.664 386.45 210.961 387.078 210.26C388.796 208.349 390.416 206.704 392.013 205.155C405.413 192.097 418.692 183.75 427.883 178.718Z" fill="url(#paint31_linear_3316_579098)"/>
<path d="M65.2486 3.90066C71.7984 3.90066 78.348 3.90066 84.8977 3.90066C81.7628 20.141 76.7615 45.8113 70.4192 77.3355C51.6658 170.53 46.7207 187.933 45.5992 217.999C44.6167 244.283 46.4569 282.958 61.1109 330.736C62.4901 318.671 63.8694 306.602 65.2486 294.537C65.2486 197.657 65.2486 100.779 65.2486 3.90066Z" fill="#7F8E35"/>
<path d="M65.2486 3.90066C71.7984 3.90066 78.348 3.90066 84.8977 3.90066C81.7628 20.141 76.7615 45.8113 70.4192 77.3355C51.6658 170.53 46.7207 187.933 45.5992 217.999C44.6167 244.283 46.4569 282.958 61.1109 330.736C62.4901 318.671 63.8694 306.602 65.2486 294.537C65.2486 197.657 65.2486 100.779 65.2486 3.90066Z" fill="url(#paint32_linear_3316_579098)"/>
<path d="M65.2486 3.90066C71.7984 3.90066 78.348 3.90066 84.8977 3.90066C81.7628 20.141 76.7615 45.8113 70.4192 77.3355C51.6658 170.53 46.7207 187.933 45.5992 217.999C44.6167 244.283 46.4569 282.958 61.1109 330.736C62.4901 318.671 63.8694 306.602 65.2486 294.537C65.2486 197.657 65.2486 100.779 65.2486 3.90066Z" fill="url(#paint33_linear_3316_579098)"/>
<path d="M26.8296 2.64956C30.7619 13.8617 35.8258 30.9519 38.3849 52.2728C40.8293 72.6391 39.919 87.9652 39.7439 91.6986C38.5982 116.233 43.8836 182.856 66.9317 349.331C43.4165 293.395 35.411 246.915 32.4915 214.531C29.8438 185.159 31.4243 167.89 30.2283 103.255C29.4371 60.4403 27.9592 25.5048 26.8296 2.64956Z" fill="#7F8E35"/>
<path d="M26.8296 2.64956C30.7619 13.8617 35.8258 30.9519 38.3849 52.2728C40.8293 72.6391 39.919 87.9652 39.7439 91.6986C38.5982 116.233 43.8836 182.856 66.9317 349.331C43.4165 293.395 35.411 246.915 32.4915 214.531C29.8438 185.159 31.4243 167.89 30.2283 103.255C29.4371 60.4403 27.9592 25.5048 26.8296 2.64956Z" fill="url(#paint34_linear_3316_579098)"/>
<path d="M26.8296 2.64956C30.7619 13.8617 35.8258 30.9519 38.3849 52.2728C40.8293 72.6391 39.919 87.9652 39.7439 91.6986C38.5982 116.233 43.8836 182.856 66.9317 349.331C43.4165 293.395 35.411 246.915 32.4915 214.531C29.8438 185.159 31.4243 167.89 30.2283 103.255C29.4371 60.4403 27.9592 25.5048 26.8296 2.64956Z" fill="url(#paint35_linear_3316_579098)"/>
<path d="M104.255 39.1882C102.636 46.0145 99.9324 55.9058 95.4404 67.3959C87.0563 88.8415 77.3714 103.229 76.0485 105.301C65.2524 122.22 57.7403 186.549 62.8283 361.82C68.8224 372.597 71.7981 381.852 73.4049 388.265C75.4143 396.278 77.5125 408.728 83.0998 425.289C84.773 430.244 86.9112 436.026 91.0327 436.749C94.7677 437.405 98.6115 433.638 99.6464 432.554C99.733 432.464 99.7934 432.399 99.8477 432.341C102.564 429.405 104.958 424.776 105.465 421.989C106.679 415.319 98.4221 411.86 89.2709 393.555L89.269 393.553C78.8634 372.923 77.7781 352.794 76.9284 333.61C69.7706 171.988 72.7083 143.867 85.7435 121.167C88.3428 116.64 95.9417 104.323 100.728 85.9076C105.582 67.2408 105.354 50.7285 104.255 39.1882Z" fill="#7F8E35"/>
<path d="M104.255 39.1882C102.636 46.0145 99.9324 55.9058 95.4404 67.3959C87.0563 88.8415 77.3714 103.229 76.0485 105.301C65.2524 122.22 57.7403 186.549 62.8283 361.82C68.8224 372.597 71.7981 381.852 73.4049 388.265C75.4143 396.278 77.5125 408.728 83.0998 425.289C84.773 430.244 86.9112 436.026 91.0327 436.749C94.7677 437.405 98.6115 433.638 99.6464 432.554C99.733 432.464 99.7934 432.399 99.8477 432.341C102.564 429.405 104.958 424.776 105.465 421.989C106.679 415.319 98.4221 411.86 89.2709 393.555L89.269 393.553C78.8634 372.923 77.7781 352.794 76.9284 333.61C69.7706 171.988 72.7083 143.867 85.7435 121.167C88.3428 116.64 95.9417 104.323 100.728 85.9076C105.582 67.2408 105.354 50.7285 104.255 39.1882Z" fill="url(#paint36_linear_3316_579098)"/>
<path d="M104.255 39.1882C102.636 46.0145 99.9324 55.9058 95.4404 67.3959C87.0563 88.8415 77.3714 103.229 76.0485 105.301C65.2524 122.22 57.7403 186.549 62.8283 361.82C68.8224 372.597 71.7981 381.852 73.4049 388.265C75.4143 396.278 77.5125 408.728 83.0998 425.289C84.773 430.244 86.9112 436.026 91.0327 436.749C94.7677 437.405 98.6115 433.638 99.6464 432.554C99.733 432.464 99.7934 432.399 99.8477 432.341C102.564 429.405 104.958 424.776 105.465 421.989C106.679 415.319 98.4221 411.86 89.2709 393.555L89.269 393.553C78.8634 372.923 77.7781 352.794 76.9284 333.61C69.7706 171.988 72.7083 143.867 85.7435 121.167C88.3428 116.64 95.9417 104.323 100.728 85.9076C105.582 67.2408 105.354 50.7285 104.255 39.1882Z" fill="url(#paint37_linear_3316_579098)"/>
<path d="M13.4702 158.19C15.2562 158.569 8.30168 179.972 10.8266 207.556C13.5528 237.354 25.6717 256.118 35.7894 275.668C47.6849 298.659 62.194 333.137 71.3472 381.167C66.3236 371.497 59.0892 357.476 50.5018 340.475C38.2015 316.125 32.0525 303.949 27.6048 294.281C9.30238 254.491 0.151226 234.595 0.00222971 210.981C-0.183009 181.607 11.5554 157.786 13.4702 158.19Z" fill="#7F8E35"/>
<path d="M13.4702 158.19C15.2562 158.569 8.30168 179.972 10.8266 207.556C13.5528 237.354 25.6717 256.118 35.7894 275.668C47.6849 298.659 62.194 333.137 71.3472 381.167C66.3236 371.497 59.0892 357.476 50.5018 340.475C38.2015 316.125 32.0525 303.949 27.6048 294.281C9.30238 254.491 0.151226 234.595 0.00222971 210.981C-0.183009 181.607 11.5554 157.786 13.4702 158.19Z" fill="url(#paint38_linear_3316_579098)"/>
<path d="M13.4702 158.19C15.2562 158.569 8.30168 179.972 10.8266 207.556C13.5528 237.354 25.6717 256.118 35.7894 275.668C47.6849 298.659 62.194 333.137 71.3472 381.167C66.3236 371.497 59.0892 357.476 50.5018 340.475C38.2015 316.125 32.0525 303.949 27.6048 294.281C9.30238 254.491 0.151226 234.595 0.00222971 210.981C-0.183009 181.607 11.5554 157.786 13.4702 158.19Z" fill="url(#paint39_linear_3316_579098)"/>
<path d="M439.156 5.80737C431.713 5.97249 424.269 6.13756 416.827 6.30268C420.115 40.209 421.794 77.6816 420.614 118.165C418.075 205.282 403.055 280.203 386.061 339.436C396.181 316.284 406.301 293.135 416.42 269.984C427.704 221.998 437.064 164.983 439.903 100.551C441.395 66.6727 440.9 34.9695 439.156 5.80737Z" fill="#7F8E35"/>
<path d="M439.156 5.80737C431.713 5.97249 424.269 6.13756 416.827 6.30268C420.115 40.209 421.794 77.6816 420.614 118.165C418.075 205.282 403.055 280.203 386.061 339.436C396.181 316.284 406.301 293.135 416.42 269.984C427.704 221.998 437.064 164.983 439.903 100.551C441.395 66.6727 440.9 34.9695 439.156 5.80737Z" fill="url(#paint40_linear_3316_579098)"/>
<path d="M439.156 5.80737C431.713 5.97249 424.269 6.13756 416.827 6.30268C420.115 40.209 421.794 77.6816 420.614 118.165C418.075 205.282 403.055 280.203 386.061 339.436C396.181 316.284 406.301 293.135 416.42 269.984C427.704 221.998 437.064 164.983 439.903 100.551C441.395 66.6727 440.9 34.9695 439.156 5.80737Z" fill="url(#paint41_linear_3316_579098)"/>
<path d="M449.129 6.60681C455.558 6.04701 461.989 5.4892 468.418 4.9294C470.721 46.7455 468.806 101.038 453.321 161.781C447.071 186.295 439.488 208.422 431.515 228.045C440.022 186.489 446.809 138.626 449.127 85.4525C450.343 57.5691 450.2 31.216 449.129 6.60681Z" fill="#7F8E35"/>
<path d="M449.129 6.60681C455.558 6.04701 461.989 5.4892 468.418 4.9294C470.721 46.7455 468.806 101.038 453.321 161.781C447.071 186.295 439.488 208.422 431.515 228.045C440.022 186.489 446.809 138.626 449.127 85.4525C450.343 57.5691 450.2 31.216 449.129 6.60681Z" fill="url(#paint42_linear_3316_579098)"/>
<path d="M350.164 26.7372C355.61 63.0358 360.204 92.1516 363.164 110.659C375.682 188.931 381.853 220.644 387.903 273.338C391.181 301.896 393.08 324.909 394.089 338.286C382.522 355.221 370.956 372.154 359.389 389.089C367.008 365.072 370.61 345.464 372.442 333.336C384.901 250.92 361.264 212.252 370.103 132.419C370.892 125.295 372.37 113.674 371.206 97.669C368.927 66.3603 358.25 41.8539 350.164 26.7372Z" fill="#7F8E35"/>
<path d="M350.164 26.7372C355.61 63.0358 360.204 92.1516 363.164 110.659C375.682 188.931 381.853 220.644 387.903 273.338C391.181 301.896 393.08 324.909 394.089 338.286C382.522 355.221 370.956 372.154 359.389 389.089C367.008 365.072 370.61 345.464 372.442 333.336C384.901 250.92 361.264 212.252 370.103 132.419C370.892 125.295 372.37 113.674 371.206 97.669C368.927 66.3603 358.25 41.8539 350.164 26.7372Z" fill="url(#paint43_linear_3316_579098)"/>
<path d="M498.61 4.92948C491.341 4.64958 484.072 4.36969 476.804 4.08979C446.179 135.557 418.627 234.525 403.838 282.563C380.19 359.373 378.791 339.679 359.387 389.089C355.428 399.169 352.569 407.417 344.29 414.252C338.98 418.636 334.209 420.156 330.033 426.833C328.263 429.664 323.71 436.944 326.678 443.609C329.823 450.675 340.132 454.167 344.29 451.158C347.089 449.135 345.903 445.039 346.807 439.415C348.864 426.604 359.681 418.787 362.741 415.929C404.696 376.745 470.933 117.325 470.933 117.325C478.324 88.3862 487.88 50.1567 498.61 4.92948Z" fill="#7F8E35"/>
<path d="M498.61 4.92948C491.341 4.64958 484.072 4.36969 476.804 4.08979C446.179 135.557 418.627 234.525 403.838 282.563C380.19 359.373 378.791 339.679 359.387 389.089C355.428 399.169 352.569 407.417 344.29 414.252C338.98 418.636 334.209 420.156 330.033 426.833C328.263 429.664 323.71 436.944 326.678 443.609C329.823 450.675 340.132 454.167 344.29 451.158C347.089 449.135 345.903 445.039 346.807 439.415C348.864 426.604 359.681 418.787 362.741 415.929C404.696 376.745 470.933 117.325 470.933 117.325C478.324 88.3862 487.88 50.1567 498.61 4.92948Z" fill="url(#paint44_linear_3316_579098)"/>
<path d="M498.61 4.92948C491.341 4.64958 484.072 4.36969 476.804 4.08979C446.179 135.557 418.627 234.525 403.838 282.563C380.19 359.373 378.791 339.679 359.387 389.089C355.428 399.169 352.569 407.417 344.29 414.252C338.98 418.636 334.209 420.156 330.033 426.833C328.263 429.664 323.71 436.944 326.678 443.609C329.823 450.675 340.132 454.167 344.29 451.158C347.089 449.135 345.903 445.039 346.807 439.415C348.864 426.604 359.681 418.787 362.741 415.929C404.696 376.745 470.933 117.325 470.933 117.325C478.324 88.3862 487.88 50.1567 498.61 4.92948Z" fill="url(#paint45_linear_3316_579098)"/>
<path d="M113.942 449.868C115.529 453.128 118.466 458.102 123.641 462.727C125.997 464.835 129.885 467.943 135.46 470.16C137.64 471.026 139.845 471.69 142.358 472.365C144.821 473.031 147.516 474.084 149.781 475.61C154.37 478.645 157.497 482.817 160.707 486.551C163.884 490.338 167.289 493.77 171.682 495.804C180.549 499.944 191.011 499.174 200.839 498.307C191.084 499.801 180.72 501.416 170.877 497.662C160.777 493.881 155.641 483.502 147.661 479.064C143.884 476.712 138.903 476.716 133.722 474.918C130.46 473.786 125.052 471.416 119.745 467.395C116.235 464.737 109.514 458.796 104.803 447.747C105.781 447.564 107.489 447.375 109.528 447.834C111.639 448.311 113.135 449.266 113.942 449.868Z" fill="#574B1E"/>
<path d="M336.85 456.08C335.902 460.526 334.233 464.934 331.653 468.816C330.351 470.773 328.935 472.523 327.131 474.209C325.243 475.973 323.026 477.092 321.23 478.013C313.933 481.659 306.979 485.947 300.05 490.439C296.571 492.67 293.162 495.028 289.371 497.066C287.563 498.073 285.193 498.947 283.286 499.334C282.336 499.585 281.472 499.883 280.767 500.34C280.188 500.725 279.481 501.551 278.99 502.298C276.932 505.405 277.173 509.853 277.353 513.856C277.632 517.954 278.331 522.04 279.213 526.082C278.007 522.123 276.97 518.095 276.346 513.967C276.034 511.903 275.82 509.815 275.83 507.684C275.812 505.608 276.112 503.244 277.25 501.263C277.834 500.256 278.377 499.378 279.435 498.492C280.415 497.735 281.51 497.284 282.527 496.917C284.633 496.277 286.107 495.548 287.855 494.432C291.197 492.272 294.417 489.65 297.707 487.133C304.274 482.066 311.054 477.076 318.244 472.717C320.038 471.609 321.478 470.683 322.525 469.503C323.65 468.264 324.747 466.692 325.599 465.123C327.351 461.941 328.388 458.379 328.865 454.684C329.068 454.491 330.685 453.005 333.031 453.329C335.596 453.679 336.752 455.884 336.85 456.08Z" fill="#574B1E"/>
<path d="M257.435 434.556C250.994 433.295 244.072 434.952 237.138 436.356C230.268 437.763 222.548 438.97 215.529 436.134C208.556 433.347 203.613 427.552 199.844 421.584C197.935 418.563 196.284 415.407 194.913 412.129L190.59 402.415L195.366 411.902C196.882 415.096 198.672 418.148 200.69 421.026C204.67 426.735 209.759 432.024 216.238 434.235C222.715 436.499 229.716 435.114 236.469 433.39C243.244 431.719 250.406 429.483 258.118 430.561C258.212 430.685 258.951 431.71 258.597 432.987C258.333 433.933 257.632 434.427 257.435 434.556Z" fill="#574B1E"/>
<path d="M161.274 436.835C163.886 433.617 167.47 431.727 170.792 429.896L180.863 424.387C187.624 420.851 194.098 416.61 201.514 414.187C208.994 411.795 216.838 412.387 224.431 412.415C228.244 412.421 232.086 412.333 235.825 411.61C237.665 411.209 239.516 410.498 240.851 409.129C242.163 407.796 242.979 405.792 242.449 403.913C243.023 405.78 242.252 407.83 240.943 409.216C239.612 410.643 237.74 411.408 235.881 411.855C232.116 412.671 228.262 412.842 224.435 412.921C216.814 413.054 209.016 412.665 201.83 415.15C194.69 417.649 188.297 422.019 181.608 425.712L171.662 431.443C168.364 433.34 165.056 435.247 162.867 438.09C162.404 438.438 161.774 438.382 161.427 438.007C161.15 437.707 161.087 437.24 161.274 436.835Z" fill="#574B1E"/>
<path d="M161.274 436.835C163.886 433.617 167.47 431.727 170.792 429.896L180.863 424.387C187.624 420.851 194.098 416.61 201.514 414.187C208.994 411.795 216.838 412.387 224.431 412.415C228.244 412.421 232.086 412.333 235.825 411.61C237.665 411.209 239.516 410.498 240.851 409.129C242.163 407.796 242.979 405.792 242.449 403.913C243.023 405.78 242.252 407.83 240.943 409.216C239.612 410.643 237.74 411.408 235.881 411.855C232.116 412.671 228.262 412.842 224.435 412.921C216.814 413.054 209.016 412.665 201.83 415.15C194.69 417.649 188.297 422.019 181.608 425.712L171.662 431.443C168.364 433.34 165.056 435.247 162.867 438.09C162.404 438.438 161.774 438.382 161.427 438.007C161.15 437.707 161.087 437.24 161.274 436.835Z" fill="url(#paint46_linear_3316_579098)"/>
<path d="M180.473 499.311C183.835 504.75 188.43 507.725 191.875 506.736C192.532 506.547 193.329 506.162 194.15 505.351C193.353 506.44 192.526 506.945 191.857 507.197C188.42 508.486 183.203 505.298 179.112 499.086C179.192 499.038 179.44 498.901 179.774 498.937C180.183 498.981 180.423 499.251 180.473 499.311Z" fill="#574B1E"/>
<path d="M155.743 428.065C158.266 425.176 161.76 420.756 165.086 414.848C168.736 408.364 170.617 402.872 170.756 402.929C170.899 402.987 169.062 408.788 165.849 415.349C162.839 421.497 159.652 426.205 157.324 429.332C156.954 429.67 156.39 429.69 155.997 429.384C155.6 429.072 155.492 428.508 155.743 428.065Z" fill="#574B1E"/>
<path d="M155.743 428.065C158.266 425.176 161.76 420.756 165.086 414.848C168.736 408.364 170.617 402.872 170.756 402.929C170.899 402.987 169.062 408.788 165.849 415.349C162.839 421.497 159.652 426.205 157.324 429.332C156.954 429.67 156.39 429.69 155.997 429.384C155.6 429.072 155.492 428.508 155.743 428.065Z" fill="url(#paint47_linear_3316_579098)"/>
<path d="M262.276 447.258C264.871 455.287 270.849 461.948 276.845 468.1L285.88 477.449C288.972 480.399 291.588 484.245 295.812 485.602C291.509 484.396 288.728 480.637 285.529 477.816L276.11 468.8C272.927 465.834 269.881 462.727 267.104 459.318C264.335 455.921 261.869 452.151 260.353 447.902C260.403 447.784 260.568 447.435 260.959 447.23C261.585 446.898 262.221 447.228 262.276 447.258Z" fill="#574B1E"/>
<path d="M262.276 447.258C264.871 455.287 270.849 461.948 276.845 468.1L285.88 477.449C288.972 480.399 291.588 484.245 295.812 485.602C291.509 484.396 288.728 480.637 285.529 477.816L276.11 468.8C272.927 465.834 269.881 462.727 267.104 459.318C264.335 455.921 261.869 452.151 260.353 447.902C260.403 447.784 260.568 447.435 260.959 447.23C261.585 446.898 262.221 447.228 262.276 447.258Z" fill="#574B1E"/>
<path d="M266.856 417.035C263.637 407.317 261.923 397.16 261.758 387.027C262.598 397.125 264.978 407.043 268.759 416.334C268.666 416.787 268.334 417.147 267.901 417.262C267.345 417.409 266.905 417.073 266.856 417.035Z" fill="#574B1E"/>
<path d="M266.856 417.035C263.637 407.317 261.923 397.16 261.758 387.027C262.598 397.125 264.978 407.043 268.759 416.334C268.666 416.787 268.334 417.147 267.901 417.262C267.345 417.409 266.905 417.073 266.856 417.035Z" fill="url(#paint48_linear_3316_579098)"/>
<path d="M337.382 458.436C342.941 465.697 349.64 472.149 357.196 477.477C349.271 472.715 342.029 466.716 335.819 459.727C335.678 459.235 335.87 458.72 336.27 458.464C336.596 458.255 337.023 458.247 337.382 458.436Z" fill="#574B1E"/>
<path d="M320.473 445.096C319.462 435.355 322.935 425.46 329.507 418.629C323.437 425.911 320.878 435.788 322.48 444.816C322.374 445.238 322.029 445.561 321.602 445.633C321.155 445.71 320.702 445.494 320.473 445.096Z" fill="#574B1E"/>
<path d="M99.2556 439.944C98.8147 443.702 98.3738 447.546 97.2402 451.265C96.1228 454.968 94.2462 458.553 91.3468 461.207C88.4092 463.917 84.6139 465.003 81.1024 466.323C77.5205 467.578 73.8782 468.651 70.1956 469.537C73.8359 468.488 77.4178 467.256 80.9252 465.848C84.3783 464.378 88.0691 463.104 90.6503 460.47C93.2537 457.864 94.8745 454.417 95.7786 450.852C96.7007 447.266 96.9684 443.522 97.2402 439.753C97.4315 439.388 97.798 439.153 98.1926 439.147C98.6638 439.141 99.1026 439.463 99.2556 439.944Z" fill="#574B1E"/>
<path d="M99.2556 439.944C98.8147 443.702 98.3738 447.546 97.2402 451.265C96.1228 454.968 94.2462 458.553 91.3468 461.207C88.4092 463.917 84.6139 465.003 81.1024 466.323C77.5205 467.578 73.8782 468.651 70.1956 469.537C73.8359 468.488 77.4178 467.256 80.9252 465.848C84.3783 464.378 88.0691 463.104 90.6503 460.47C93.2537 457.864 94.8745 454.417 95.7786 450.852C96.7007 447.266 96.9684 443.522 97.2402 439.753C97.4315 439.388 97.798 439.153 98.1926 439.147C98.6638 439.141 99.1026 439.463 99.2556 439.944Z" fill="url(#paint49_linear_3316_579098)"/>
<path d="M99.8037 418.056C100.39 420.8 97.8747 423.448 96.9948 424.377C95.8391 425.595 94.0108 427.522 92.0799 427.186C90.1651 426.851 89.092 424.457 88.5846 423.253C75.3421 391.848 74.0576 367.965 74.0576 367.965C73.3529 354.846 73.6347 343.421 74.2911 343.388C75.0965 343.348 73.3749 360.613 80.8166 381.268C84.3341 391.028 93.4512 411.411 98.062 415.372C98.3439 415.609 99.4815 416.542 99.8037 418.056Z" fill="url(#paint50_linear_3316_579098)"/>
<path d="M368.534 394.584C369.648 395.456 362.754 408.992 352.674 420.094C349.64 423.434 347.377 425.392 344.997 429.719C340.428 438.032 341.479 444.103 338.82 444.679C335.989 445.291 330.719 439.286 331.178 433.642C331.603 428.422 336.77 425.391 341.791 421.755C360.15 408.454 367.376 393.678 368.534 394.584Z" fill="url(#paint51_linear_3316_579098)"/>
<path d="M307.114 419.193C303.848 421.515 298.236 420.742 293.98 418.128C296.883 409.226 300.56 398.122 305.01 385.349C306.896 390.335 315.169 413.485 307.114 419.193Z" fill="url(#paint52_linear_3316_579098)"/>
<path d="M304.246 384.256C299.796 397.029 296.12 408.132 293.216 417.035C292.006 416.31 290.919 415.438 290.023 414.472C285.718 409.804 286.226 403.223 286.371 398.529C287.192 370.299 276.189 354.381 280.228 352.494C284.339 350.559 297.304 366.5 303.98 383.555C304.053 383.725 304.125 383.942 304.246 384.256Z" fill="url(#paint53_linear_3316_579098)"/>
<path d="M167.848 342.927C169.485 343.96 166.171 349.437 154.467 380.474C146.204 402.387 142.928 412.72 138.311 412.532C134.33 412.369 131.878 404.491 131.735 404.01C129.307 395.939 132.856 387.993 139.259 377.593C148.026 363.35 164.435 340.775 167.848 342.927Z" fill="url(#paint54_linear_3316_579098)"/>
<path d="M210.665 474.497C209.461 480.131 208.831 485.981 210.071 491.41C210.703 494.102 211.869 496.631 213.635 498.724C215.314 500.796 218.026 502.342 220.182 504.763C222.291 507.143 223.919 509.813 225.057 512.723C226.205 515.643 226.541 518.643 228.011 521.1C229.452 523.593 231.695 525.62 234.271 527.054C236.852 528.508 239.741 529.398 242.673 530C239.709 529.595 236.743 528.903 233.993 527.592C231.25 526.295 228.736 524.344 226.986 521.742C225.184 519.104 224.626 515.995 223.386 513.429C222.17 510.834 220.448 508.417 218.445 506.446C216.492 504.473 213.739 503.182 211.402 500.761C209.122 498.415 207.516 495.451 206.571 492.372C204.713 486.15 205.035 479.731 205.905 473.627C206.024 473.504 206.926 472.616 208.269 472.745C209.31 472.844 210.226 473.518 210.665 474.497Z" fill="#574B1E"/>
<path d="M113.942 449.868C115.529 453.128 118.466 458.102 123.641 462.727C125.997 464.835 129.885 467.943 135.46 470.16C137.64 471.026 139.845 471.69 142.358 472.365C144.821 473.031 147.516 474.084 149.781 475.61C154.37 478.645 157.497 482.817 160.707 486.551C163.884 490.338 167.289 493.77 171.682 495.804C180.549 499.944 191.011 499.174 200.839 498.307C191.084 499.801 180.72 501.416 170.877 497.662C160.777 493.881 155.641 483.502 147.661 479.064C143.884 476.712 138.903 476.716 133.722 474.918C130.46 473.786 125.052 471.416 119.745 467.395C116.235 464.737 109.514 458.796 104.803 447.747C105.781 447.564 107.489 447.375 109.528 447.834C111.639 448.311 113.135 449.266 113.942 449.868Z" fill="url(#paint55_linear_3316_579098)"/>
<path d="M336.85 456.08C335.902 460.526 334.233 464.934 331.653 468.816C330.351 470.773 328.935 472.523 327.131 474.209C325.243 475.973 323.026 477.092 321.23 478.013C313.933 481.659 306.979 485.947 300.05 490.439C296.571 492.67 293.162 495.028 289.371 497.066C287.563 498.073 285.193 498.947 283.286 499.334C282.336 499.585 281.472 499.883 280.767 500.34C280.188 500.725 279.481 501.551 278.99 502.298C276.932 505.405 277.173 509.853 277.353 513.856C277.632 517.954 278.331 522.04 279.213 526.082C278.007 522.123 276.97 518.095 276.346 513.967C276.034 511.903 275.82 509.815 275.83 507.684C275.812 505.608 276.112 503.244 277.25 501.263C277.834 500.256 278.377 499.378 279.435 498.492C280.415 497.735 281.51 497.284 282.527 496.917C284.633 496.277 286.107 495.548 287.855 494.432C291.197 492.272 294.417 489.65 297.707 487.133C304.274 482.066 311.054 477.076 318.244 472.717C320.038 471.609 321.478 470.683 322.525 469.503C323.65 468.264 324.747 466.692 325.599 465.123C327.351 461.941 328.388 458.379 328.865 454.684C329.068 454.491 330.685 453.005 333.031 453.329C335.596 453.679 336.752 455.884 336.85 456.08Z" fill="url(#paint56_linear_3316_579098)"/>
<path d="M257.435 434.556C250.994 433.295 244.072 434.952 237.138 436.356C230.268 437.763 222.548 438.97 215.529 436.134C208.556 433.347 203.613 427.552 199.844 421.584C197.935 418.563 196.284 415.407 194.913 412.129L190.59 402.415L195.366 411.902C196.882 415.096 198.672 418.148 200.69 421.026C204.67 426.735 209.759 432.024 216.238 434.235C222.715 436.499 229.716 435.114 236.469 433.39C243.244 431.719 250.406 429.483 258.118 430.561C258.212 430.685 258.951 431.71 258.597 432.987C258.333 433.933 257.632 434.427 257.435 434.556Z" fill="url(#paint57_linear_3316_579098)"/>
<path d="M210.665 474.497C209.461 480.131 208.831 485.981 210.071 491.41C210.703 494.102 211.869 496.631 213.635 498.724C215.314 500.796 218.026 502.342 220.182 504.763C222.291 507.143 223.919 509.813 225.057 512.723C226.205 515.643 226.541 518.643 228.011 521.1C229.452 523.593 231.695 525.62 234.271 527.054C236.852 528.508 239.741 529.398 242.673 530C239.709 529.595 236.743 528.903 233.993 527.592C231.25 526.295 228.736 524.344 226.986 521.742C225.184 519.104 224.626 515.995 223.386 513.429C222.17 510.834 220.448 508.417 218.445 506.446C216.492 504.473 213.739 503.182 211.402 500.761C209.122 498.415 207.516 495.451 206.571 492.372C204.713 486.15 205.035 479.731 205.905 473.627C206.024 473.504 206.926 472.616 208.269 472.745C209.31 472.844 210.226 473.518 210.665 474.497Z" fill="url(#paint58_linear_3316_579098)"/>
<path d="M121.668 466.932C120.585 471.489 118.784 474.239 117.266 475.943C116.469 476.837 115.535 478.245 113.471 480.18C112.273 481.301 111.29 482.596 110.566 484.05L110.481 484.207C110.022 485.252 109.43 487.119 109.259 488.611C109.043 490.081 109.331 491.696 109.726 493.329C110.533 496.581 111.759 499.795 113.094 502.944C115.802 509.245 119.08 515.322 122.596 521.251C118.706 515.558 115.031 509.694 111.886 503.508C110.33 500.405 108.874 497.244 107.797 493.861C107.282 492.185 106.794 490.367 106.937 488.385C107.117 486.45 107.354 484.934 108.218 482.795L108.135 482.951C108.886 481.144 110 479.475 111.325 478.063C112.67 476.728 113.562 475.613 114.435 474.135C116.111 471.275 117.172 467.993 117.917 464.642C118.162 464.578 119.084 464.369 120.057 464.854C121.311 465.478 121.627 466.753 121.668 466.932Z" fill="#574B1E"/>
<path d="M121.668 466.932C120.585 471.489 118.784 474.239 117.266 475.943C116.469 476.837 115.535 478.245 113.471 480.18C112.273 481.301 111.29 482.596 110.566 484.05L110.481 484.207C110.022 485.252 109.43 487.119 109.259 488.611C109.043 490.081 109.331 491.696 109.726 493.329C110.533 496.581 111.759 499.795 113.094 502.944C115.802 509.245 119.08 515.322 122.596 521.251C118.706 515.558 115.031 509.694 111.886 503.508C110.33 500.405 108.874 497.244 107.797 493.861C107.282 492.185 106.794 490.367 106.937 488.385C107.117 486.45 107.354 484.934 108.218 482.795L108.135 482.951C108.886 481.144 110 479.475 111.325 478.063C112.67 476.728 113.562 475.613 114.435 474.135C116.111 471.275 117.172 467.993 117.917 464.642C118.162 464.578 119.084 464.369 120.057 464.854C121.311 465.478 121.627 466.753 121.668 466.932Z" fill="url(#paint59_linear_3316_579098)"/>
<path d="M163.401 491.642C163.427 493.694 163.596 496.414 164.178 499.557C164.288 500.158 165.064 504.269 166.475 507.755C169.368 514.893 175.061 519.712 178.202 522.02C173.394 518.494 168.323 514.843 165.291 509.193C163.735 506.289 163.036 502.091 162.605 500.204C161.774 496.559 161.357 493.456 161.133 491.227C161.23 491.158 161.687 490.856 162.307 490.953C162.986 491.058 163.34 491.557 163.401 491.642Z" fill="#574B1E"/>
<path d="M163.401 491.642C163.427 493.694 163.596 496.414 164.178 499.557C164.288 500.158 165.064 504.269 166.475 507.755C169.368 514.893 175.061 519.712 178.202 522.02C173.394 518.494 168.323 514.843 165.291 509.193C163.735 506.289 163.036 502.091 162.605 500.204C161.774 496.559 161.357 493.456 161.133 491.227C161.23 491.158 161.687 490.856 162.307 490.953C162.986 491.058 163.34 491.557 163.401 491.642Z" fill="url(#paint60_linear_3316_579098)"/>
<defs>
<linearGradient id="paint0_linear_3316_579098" x1="348.551" y1="312.502" x2="311.703" y2="535.489" gradientUnits="userSpaceOnUse">
<stop stop-color="#EABA4E"/>
<stop offset="1" stop-color="#EABA4E" stop-opacity="0"/>
</linearGradient>
<linearGradient id="paint1_linear_3316_579098" x1="259.21" y1="622.224" x2="254.491" y2="440.212" gradientUnits="userSpaceOnUse">
<stop stop-color="#EABA4E"/>
<stop offset="1" stop-color="#EABA4E" stop-opacity="0"/>
</linearGradient>
<linearGradient id="paint2_linear_3316_579098" x1="270.292" y1="332.728" x2="98.079" y2="461.623" gradientUnits="userSpaceOnUse">
<stop stop-color="#EABA4E"/>
<stop offset="1" stop-color="#EABA4E" stop-opacity="0"/>
</linearGradient>
<linearGradient id="paint3_linear_3316_579098" x1="202.561" y1="344.698" x2="89.4408" y2="454.987" gradientUnits="userSpaceOnUse">
<stop stop-color="#E0C9AD"/>
<stop offset="1" stop-color="#E0C9AD" stop-opacity="0"/>
</linearGradient>
<linearGradient id="paint4_linear_3316_579098" x1="219.941" y1="362.523" x2="106.823" y2="472.814" gradientUnits="userSpaceOnUse">
<stop stop-color="#E0C9AD"/>
<stop offset="1" stop-color="#E0C9AD" stop-opacity="0"/>
</linearGradient>
<linearGradient id="paint5_linear_3316_579098" x1="418.923" y1="351.306" x2="304.435" y2="445.995" gradientUnits="userSpaceOnUse">
<stop stop-color="#EABA4E"/>
<stop offset="1" stop-color="#EABA4E" stop-opacity="0"/>
</linearGradient>
<linearGradient id="paint6_linear_3316_579098" x1="304.476" y1="363.061" x2="328.818" y2="455.967" gradientUnits="userSpaceOnUse">
<stop stop-color="#E0C9AD"/>
<stop offset="1" stop-color="#E0C9AD" stop-opacity="0"/>
</linearGradient>
<linearGradient id="paint7_linear_3316_579098" x1="158.383" y1="377.125" x2="295.233" y2="464.444" gradientUnits="userSpaceOnUse">
<stop stop-color="#EABA4E"/>
<stop offset="1" stop-color="#EABA4E" stop-opacity="0"/>
</linearGradient>
<linearGradient id="paint8_linear_3316_579098" x1="206.246" y1="324.057" x2="280.454" y2="468.361" gradientUnits="userSpaceOnUse">
<stop stop-color="#E0C9AD"/>
<stop offset="1" stop-color="#E0C9AD" stop-opacity="0"/>
</linearGradient>
<linearGradient id="paint9_linear_3316_579098" x1="386.963" y1="375.69" x2="120.242" y2="473.326" gradientUnits="userSpaceOnUse">
<stop stop-color="#EABA4E"/>
<stop offset="1" stop-color="#EABA4E" stop-opacity="0"/>
</linearGradient>
<linearGradient id="paint10_linear_3316_579098" x1="518.641" y1="203.305" x2="63.8804" y2="533.44" gradientUnits="userSpaceOnUse">
<stop stop-color="#E0C9AD"/>
<stop offset="1" stop-color="#E0C9AD" stop-opacity="0"/>
</linearGradient>
<linearGradient id="paint11_linear_3316_579098" x1="225.051" y1="388.122" x2="449.782" y2="302.963" gradientUnits="userSpaceOnUse">
<stop stop-color="#C8D34F"/>
<stop offset="1" stop-color="#C8D34F" stop-opacity="0"/>
</linearGradient>
<linearGradient id="paint12_linear_3316_579098" x1="500.973" y1="210.05" x2="402.981" y2="336.163" gradientUnits="userSpaceOnUse">
<stop stop-color="#3E542A"/>
<stop offset="1" stop-color="#3E542A" stop-opacity="0"/>
</linearGradient>
<linearGradient id="paint13_linear_3316_579098" x1="172.314" y1="573.808" x2="123.033" y2="101.95" gradientUnits="userSpaceOnUse">
<stop stop-color="#C8D34F"/>
<stop offset="1" stop-color="#C8D34F" stop-opacity="0"/>
</linearGradient>
<linearGradient id="paint14_linear_3316_579098" x1="62.3891" y1="-45.994" x2="143.892" y2="231.085" gradientUnits="userSpaceOnUse">
<stop stop-color="#3E542A"/>
<stop offset="1" stop-color="#3E542A" stop-opacity="0"/>
</linearGradient>
<linearGradient id="paint15_linear_3316_579098" x1="247.259" y1="215.123" x2="147.376" y2="179.103" gradientUnits="userSpaceOnUse">
<stop stop-color="#C8D34F"/>
<stop offset="1" stop-color="#C8D34F" stop-opacity="0"/>
</linearGradient>
<linearGradient id="paint16_linear_3316_579098" x1="201.076" y1="-13.766" x2="165.618" y2="201.378" gradientUnits="userSpaceOnUse">
<stop stop-color="#3E542A"/>
<stop offset="1" stop-color="#3E542A" stop-opacity="0"/>
</linearGradient>
<linearGradient id="paint17_linear_3316_579098" x1="277.537" y1="256.625" x2="180.792" y2="202.136" gradientUnits="userSpaceOnUse">
<stop stop-color="#C8D34F"/>
<stop offset="1" stop-color="#C8D34F" stop-opacity="0"/>
</linearGradient>
<linearGradient id="paint18_linear_3316_579098" x1="364.568" y1="-27.8183" x2="174.064" y2="279.808" gradientUnits="userSpaceOnUse">
<stop stop-color="#3E542A"/>
<stop offset="1" stop-color="#3E542A" stop-opacity="0"/>
</linearGradient>
<linearGradient id="paint19_linear_3316_579098" x1="214.36" y1="449.96" x2="250.608" y2="287.285" gradientUnits="userSpaceOnUse">
<stop stop-color="#C8D34F"/>
<stop offset="1" stop-color="#C8D34F" stop-opacity="0"/>
</linearGradient>
<linearGradient id="paint20_linear_3316_579098" x1="348.437" y1="207.5" x2="157.132" y2="346.925" gradientUnits="userSpaceOnUse">
<stop stop-color="#3E542A"/>
<stop offset="1" stop-color="#3E542A" stop-opacity="0"/>
</linearGradient>
<linearGradient id="paint21_linear_3316_579098" x1="154.016" y1="430.875" x2="90.108" y2="287.985" gradientUnits="userSpaceOnUse">
<stop stop-color="#C8D34F"/>
<stop offset="1" stop-color="#C8D34F" stop-opacity="0"/>
</linearGradient>
<linearGradient id="paint22_linear_3316_579098" x1="1.00136" y1="180.007" x2="75.6504" y2="275.974" gradientUnits="userSpaceOnUse">
<stop stop-color="#3E542A"/>
<stop offset="1" stop-color="#3E542A" stop-opacity="0"/>
</linearGradient>
<linearGradient id="paint23_linear_3316_579098" x1="499.766" y1="-5.21371" x2="284.477" y2="322.366" gradientUnits="userSpaceOnUse">
<stop stop-color="#3E542A"/>
<stop offset="1" stop-color="#3E542A" stop-opacity="0"/>
</linearGradient>
<linearGradient id="paint24_linear_3316_579098" x1="94.1454" y1="387.318" x2="284.751" y2="192.59" gradientUnits="userSpaceOnUse">
<stop stop-color="#C8D34F"/>
<stop offset="1" stop-color="#C8D34F" stop-opacity="0"/>
</linearGradient>
<linearGradient id="paint25_linear_3316_579098" x1="243.393" y1="-7.19649" x2="299.558" y2="191.701" gradientUnits="userSpaceOnUse">
<stop stop-color="#3E542A"/>
<stop offset="1" stop-color="#3E542A" stop-opacity="0"/>
</linearGradient>
<linearGradient id="paint26_linear_3316_579098" x1="157.917" y1="330.827" x2="272.834" y2="187.406" gradientUnits="userSpaceOnUse">
<stop stop-color="#C8D34F"/>
<stop offset="1" stop-color="#C8D34F" stop-opacity="0"/>
</linearGradient>
<linearGradient id="paint27_linear_3316_579098" x1="66.9317" y1="-55.2203" x2="294.697" y2="231.796" gradientUnits="userSpaceOnUse">
<stop stop-color="#3E542A"/>
<stop offset="1" stop-color="#3E542A" stop-opacity="0"/>
</linearGradient>
<linearGradient id="paint28_linear_3316_579098" x1="304.244" y1="399.772" x2="222.878" y2="238.579" gradientUnits="userSpaceOnUse">
<stop stop-color="#C8D34F"/>
<stop offset="1" stop-color="#C8D34F" stop-opacity="0"/>
</linearGradient>
<linearGradient id="paint29_linear_3316_579098" x1="-42.1726" y1="38.1161" x2="242.958" y2="290.344" gradientUnits="userSpaceOnUse">
<stop stop-color="#3E542A"/>
<stop offset="1" stop-color="#3E542A" stop-opacity="0"/>
</linearGradient>
<linearGradient id="paint30_linear_3316_579098" x1="401.45" y1="346.887" x2="329.679" y2="265.399" gradientUnits="userSpaceOnUse">
<stop stop-color="#C8D34F"/>
<stop offset="1" stop-color="#C8D34F" stop-opacity="0"/>
</linearGradient>
<linearGradient id="paint31_linear_3316_579098" x1="431.508" y1="191.943" x2="330.1" y2="347.258" gradientUnits="userSpaceOnUse">
<stop stop-color="#3E542A"/>
<stop offset="1" stop-color="#3E542A" stop-opacity="0"/>
</linearGradient>
<linearGradient id="paint32_linear_3316_579098" x1="60.1812" y1="503.521" x2="63.8137" y2="219.482" gradientUnits="userSpaceOnUse">
<stop stop-color="#C8D34F"/>
<stop offset="1" stop-color="#C8D34F" stop-opacity="0"/>
</linearGradient>
<linearGradient id="paint33_linear_3316_579098" x1="63.9526" y1="-46.9028" x2="65.4695" y2="163.135" gradientUnits="userSpaceOnUse">
<stop stop-color="#3E542A"/>
<stop offset="1" stop-color="#3E542A" stop-opacity="0"/>
</linearGradient>
<linearGradient id="paint34_linear_3316_579098" x1="157.781" y1="433.878" x2="40.3326" y2="160.822" gradientUnits="userSpaceOnUse">
<stop stop-color="#C8D34F"/>
<stop offset="1" stop-color="#C8D34F" stop-opacity="0"/>
</linearGradient>
<linearGradient id="paint35_linear_3316_579098" x1="19.9277" y1="-42.648" x2="54.2999" y2="331.851" gradientUnits="userSpaceOnUse">
<stop stop-color="#3E542A"/>
<stop offset="1" stop-color="#3E542A" stop-opacity="0"/>
</linearGradient>
<linearGradient id="paint36_linear_3316_579098" x1="182.421" y1="277.628" x2="81.0011" y2="230.304" gradientUnits="userSpaceOnUse">
<stop stop-color="#C8D34F"/>
<stop offset="1" stop-color="#C8D34F" stop-opacity="0"/>
</linearGradient>
<linearGradient id="paint37_linear_3316_579098" x1="173.605" y1="49.0076" x2="65.923" y2="327.281" gradientUnits="userSpaceOnUse">
<stop stop-color="#3E542A"/>
<stop offset="1" stop-color="#3E542A" stop-opacity="0"/>
</linearGradient>
<linearGradient id="paint38_linear_3316_579098" x1="31.8719" y1="407.413" x2="37.4327" y2="242.692" gradientUnits="userSpaceOnUse">
<stop stop-color="#C8D34F"/>
<stop offset="1" stop-color="#C8D34F" stop-opacity="0"/>
</linearGradient>
<linearGradient id="paint39_linear_3316_579098" x1="-132.072" y1="-0.799249" x2="86.2789" y2="337.536" gradientUnits="userSpaceOnUse">
<stop stop-color="#3E542A"/>
<stop offset="1" stop-color="#3E542A" stop-opacity="0"/>
</linearGradient>
<linearGradient id="paint40_linear_3316_579098" x1="514.859" y1="365.99" x2="475.49" y2="291.554" gradientUnits="userSpaceOnUse">
<stop stop-color="#C8D34F"/>
<stop offset="1" stop-color="#C8D34F" stop-opacity="0"/>
</linearGradient>
<linearGradient id="paint41_linear_3316_579098" x1="312.083" y1="-180.153" x2="420.753" y2="201.123" gradientUnits="userSpaceOnUse">
<stop stop-color="#3E542A"/>
<stop offset="1" stop-color="#3E542A" stop-opacity="0"/>
</linearGradient>
<linearGradient id="paint42_linear_3316_579098" x1="413.991" y1="27.3392" x2="492.574" y2="222.028" gradientUnits="userSpaceOnUse">
<stop stop-color="#3E542A"/>
<stop offset="1" stop-color="#3E542A" stop-opacity="0"/>
</linearGradient>
<linearGradient id="paint43_linear_3316_579098" x1="306.865" y1="395.076" x2="359.837" y2="222.581" gradientUnits="userSpaceOnUse">
<stop stop-color="#C8D34F"/>
<stop offset="1" stop-color="#C8D34F" stop-opacity="0"/>
</linearGradient>
<linearGradient id="paint44_linear_3316_579098" x1="362.443" y1="381.72" x2="477.56" y2="69.1588" gradientUnits="userSpaceOnUse">
<stop stop-color="#C8D34F"/>
<stop offset="1" stop-color="#C8D34F" stop-opacity="0"/>
</linearGradient>
<linearGradient id="paint45_linear_3316_579098" x1="516.499" y1="-23.9368" x2="437.843" y2="176.486" gradientUnits="userSpaceOnUse">
<stop stop-color="#3E542A"/>
<stop offset="1" stop-color="#3E542A" stop-opacity="0"/>
</linearGradient>
<linearGradient id="paint46_linear_3316_579098" x1="205.263" y1="368.916" x2="200.059" y2="450.092" gradientUnits="userSpaceOnUse">
<stop stop-color="#EABA4E"/>
<stop offset="1" stop-color="#EABA4E" stop-opacity="0"/>
</linearGradient>
<linearGradient id="paint47_linear_3316_579098" x1="88.3298" y1="349.261" x2="184.073" y2="434.589" gradientUnits="userSpaceOnUse">
<stop stop-color="#EABA4E"/>
<stop offset="1" stop-color="#EABA4E" stop-opacity="0"/>
</linearGradient>
<linearGradient id="paint48_linear_3316_579098" x1="303.061" y1="346.168" x2="244.086" y2="432.887" gradientUnits="userSpaceOnUse">
<stop stop-color="#EABA4E"/>
<stop offset="1" stop-color="#EABA4E" stop-opacity="0"/>
</linearGradient>
<linearGradient id="paint49_linear_3316_579098" x1="19.9554" y1="369.998" x2="100.092" y2="474.753" gradientUnits="userSpaceOnUse">
<stop stop-color="#EABA4E"/>
<stop offset="1" stop-color="#EABA4E" stop-opacity="0"/>
</linearGradient>
<linearGradient id="paint50_linear_3316_579098" x1="162.367" y1="378.651" x2="61.3503" y2="387.169" gradientUnits="userSpaceOnUse">
<stop stop-color="white"/>
<stop offset="1" stop-color="white" stop-opacity="0"/>
</linearGradient>
<linearGradient id="paint51_linear_3316_579098" x1="210.42" y1="443.711" x2="389.671" y2="413.549" gradientUnits="userSpaceOnUse">
<stop stop-color="white"/>
<stop offset="1" stop-color="white" stop-opacity="0"/>
</linearGradient>
<linearGradient id="paint52_linear_3316_579098" x1="237.13" y1="547.381" x2="327.48" y2="358.486" gradientUnits="userSpaceOnUse">
<stop stop-color="white"/>
<stop offset="1" stop-color="white" stop-opacity="0"/>
</linearGradient>
<linearGradient id="paint53_linear_3316_579098" x1="214.061" y1="536.346" x2="304.412" y2="347.452" gradientUnits="userSpaceOnUse">
<stop stop-color="white"/>
<stop offset="1" stop-color="white" stop-opacity="0"/>
</linearGradient>
<linearGradient id="paint54_linear_3316_579098" x1="210.124" y1="490.576" x2="138.501" y2="351.931" gradientUnits="userSpaceOnUse">
<stop stop-color="white"/>
<stop offset="1" stop-color="white" stop-opacity="0"/>
</linearGradient>
<linearGradient id="paint55_linear_3316_579098" x1="222.134" y1="515.925" x2="80.6279" y2="441.157" gradientUnits="userSpaceOnUse">
<stop stop-color="#EABA4E"/>
<stop offset="1" stop-color="#EABA4E" stop-opacity="0"/>
</linearGradient>
<linearGradient id="paint56_linear_3316_579098" x1="176.812" y1="574.228" x2="347.664" y2="461.601" gradientUnits="userSpaceOnUse">
<stop stop-color="#EABA4E"/>
<stop offset="1" stop-color="#EABA4E" stop-opacity="0"/>
</linearGradient>
<linearGradient id="paint57_linear_3316_579098" x1="206.173" y1="351.6" x2="237.313" y2="462.111" gradientUnits="userSpaceOnUse">
<stop stop-color="#EABA4E"/>
<stop offset="1" stop-color="#EABA4E" stop-opacity="0"/>
</linearGradient>
<linearGradient id="paint58_linear_3316_579098" x1="326.284" y1="473.377" x2="180" y2="513.856" gradientUnits="userSpaceOnUse">
<stop stop-color="#EABA4E"/>
<stop offset="1" stop-color="#EABA4E" stop-opacity="0"/>
</linearGradient>
<linearGradient id="paint59_linear_3316_579098" x1="64.3469" y1="487.284" x2="130.597" y2="493.874" gradientUnits="userSpaceOnUse">
<stop stop-color="#EABA4E"/>
<stop offset="1" stop-color="#EABA4E" stop-opacity="0"/>
</linearGradient>
<linearGradient id="paint60_linear_3316_579098" x1="277.318" y1="541.011" x2="115.243" y2="488.744" gradientUnits="userSpaceOnUse">
<stop stop-color="#EABA4E"/>
<stop offset="1" stop-color="#EABA4E" stop-opacity="0"/>
</linearGradient>
</defs>
</svg>
