<svg width="1112" height="482" viewBox="0 0 1112 482" fill="none" xmlns="http://www.w3.org/2000/svg">
<path d="M329.999 304.331C314.536 304.331 302 294.183 302 281.665C302 269.148 313.64 258.959 329.999 259C345.462 259.038 357.998 269.148 357.998 281.665C358.167 295.494 345.462 304.331 329.999 304.331Z" fill="#945159"/>
<path d="M330.147 302.61C344.69 302.61 356.479 293.258 356.479 281.722C356.479 270.186 344.69 260.834 330.147 260.834C315.605 260.834 303.815 270.186 303.815 281.722C303.815 293.258 315.605 302.61 330.147 302.61Z" fill="#C7A393"/>
<path d="M320.426 275.695C320.533 275.905 320.54 275.905 320.436 275.674C320.331 275.396 320.177 275.089 320.022 274.845C319.55 274.119 318.752 274.071 318.181 274.332C317.942 274.439 317.72 274.594 317.511 274.769C317.344 274.802 317.176 274.885 317.016 275.005C316.476 275.423 316.061 276.147 315.794 276.979C315.109 278.319 314.764 280.354 315.45 281.925C316.696 284.769 318.685 283.123 319.874 281.399C320.581 280.365 320.935 278.864 320.925 277.348C320.927 276.788 320.672 276.113 320.426 275.695Z" fill="#BA7766"/>
<path d="M318.988 287.231C318.927 287.197 318.872 287.161 318.81 287.116C318.084 286.648 317.2 287.834 316.89 288.649C316.84 288.763 316.799 288.895 316.749 289.007C316.496 289.69 316.24 290.59 316.491 291.412C316.797 292.438 317.627 292.237 318.126 291.862C318.893 291.258 320.502 288.216 318.988 287.231Z" fill="#BA7766"/>
<path d="M344.041 275.032C343.852 274.938 343.659 274.883 343.461 274.859C342.393 274 340.973 276.268 340.676 277.488C340.676 277.498 340.676 277.498 340.677 277.508C340.622 277.651 340.56 277.854 340.455 278.178C340.218 278.899 340.177 279.635 340.194 280.456C340.264 283.241 342.525 282.276 343.351 281.313C344.091 280.444 344.716 279.15 344.87 277.701C344.977 276.713 344.803 275.39 344.041 275.032Z" fill="#BA7766"/>
<path d="M343.04 287.338C342.193 287.679 341.562 288.687 341.216 289.873C340.652 290.994 340.191 292.534 340.955 293.594C341.937 294.955 343.57 292.999 343.997 291.769C344.31 290.843 344.65 289.778 344.501 288.672C344.342 287.526 343.771 287.044 343.04 287.338Z" fill="#BA7766"/>
<path d="M327.107 274.513C326.312 273.128 324.363 276.574 325.325 277.5C325.585 277.747 325.576 277.629 325.643 278.009C325.767 278.692 326.423 278.484 326.674 278.296C327.202 277.88 327.587 277.058 327.587 276.127C327.58 275.445 327.4 275.034 327.107 274.513Z" fill="#BA7766"/>
<path d="M335.954 281.497C335.958 281.447 335.941 281.409 335.937 281.369C335.923 281.271 335.903 281.184 335.891 281.096C335.868 280.977 335.848 280.87 335.815 280.774C335.799 280.736 335.777 280.709 335.762 280.679C335.713 280.573 335.665 280.459 335.602 280.375C335.595 280.365 335.581 280.358 335.567 280.347C335.373 280.105 335.125 279.926 334.876 279.737C334.112 279.183 333.112 280.327 332.673 281.063C332.257 281.748 331.531 283.487 332.014 284.528C332.327 285.227 332.62 286.067 333.282 285.967C334.254 285.824 335.029 284.962 335.533 283.746C335.775 283.164 335.98 282.276 335.941 281.498C335.949 281.497 335.949 281.497 335.954 281.497Z" fill="#BA7766"/>
<path d="M327.403 285.423C326.507 286.115 325.566 287.782 325.696 289.473L325.727 289.867C325.856 291.55 327.006 291.602 327.766 291.008C328.669 290.316 329.609 288.641 329.482 286.958L329.452 286.574C329.322 284.881 328.172 284.829 327.403 285.423Z" fill="#BA7766"/>
<path d="M335.884 270.278C335.867 270.23 335.844 270.192 335.822 270.144C335.791 270.087 335.774 270.019 335.736 269.964C335.736 269.974 335.731 269.974 335.726 269.984C335.535 269.693 335.265 269.496 334.874 269.496C333.69 269.497 332.546 271.049 332.107 272.636C332.102 272.646 332.102 272.656 332.092 272.677C331.651 273.72 331.213 275.654 332.001 276.753C332.997 278.131 334.576 276.566 335.201 275.469C335.973 274.102 336.712 272.008 335.884 270.278Z" fill="#BA7766"/>
</svg>
