<svg width="1112" height="482" viewBox="0 0 1112 482" fill="none" xmlns="http://www.w3.org/2000/svg">
<path d="M391.314 191.009C406.089 186.447 421.061 192.444 424.754 204.404C428.447 216.364 420.331 229.534 404.688 234.322C389.902 238.848 374.941 232.886 371.248 220.926C367.007 207.763 376.539 195.571 391.314 191.009Z" fill="#945159"/>
<path d="M391.68 192.696C377.785 196.987 369.28 209.401 372.683 220.423C376.087 231.446 390.11 236.903 404.006 232.613C417.901 228.322 426.406 215.908 423.003 204.886C419.599 193.863 405.576 188.406 391.68 192.696Z" fill="#C7A393"/>
<path d="M408.91 215.545C408.746 215.376 408.739 215.378 408.906 215.568C409.088 215.804 409.327 216.05 409.547 216.238C410.211 216.793 410.989 216.603 411.457 216.185C411.654 216.012 411.821 215.799 411.968 215.57C412.118 215.489 412.254 215.361 412.372 215.198C412.765 214.64 412.947 213.825 412.957 212.952C413.216 211.47 412.945 209.423 411.826 208.124C409.797 205.774 408.382 207.935 407.755 209.933C407.384 211.129 407.488 212.667 407.945 214.113C408.109 214.649 408.551 215.218 408.91 215.545Z" fill="#BA7766"/>
<path d="M406.881 204.098C406.948 204.113 407.012 204.131 407.084 204.156C407.916 204.389 408.411 202.995 408.466 202.125C408.481 202.001 408.481 201.863 408.496 201.741C408.536 201.014 408.515 200.078 408.032 199.367C407.437 198.477 406.704 198.914 406.338 199.42C405.783 200.223 405.144 203.604 406.881 204.098Z" fill="#BA7766"/>
<path d="M386.541 223.146C386.75 223.18 386.95 223.176 387.146 223.141C388.421 223.646 389.108 221.06 389.032 219.807C389.029 219.797 389.029 219.797 389.025 219.788C389.035 219.635 389.034 219.423 389.039 219.083C389.053 218.324 388.876 217.608 388.617 216.829C387.728 214.188 385.852 215.777 385.348 216.942C384.897 217.99 384.682 219.411 384.961 220.841C385.151 221.816 385.707 223.029 386.541 223.146Z" fill="#BA7766"/>
<path d="M383.868 211.092C384.576 210.517 384.882 209.367 384.863 208.133C385.071 206.894 385.057 205.287 384.014 204.499C382.674 203.489 381.691 205.84 381.646 207.141C381.62 208.118 381.609 209.236 382.079 210.249C382.568 211.297 383.256 211.589 383.868 211.092Z" fill="#BA7766"/>
<path d="M402.875 218.646C404.043 219.735 404.889 215.867 403.697 215.266C403.375 215.106 403.419 215.217 403.242 214.873C402.922 214.257 402.358 214.65 402.173 214.903C401.791 215.457 401.665 216.356 401.94 217.246C402.148 217.895 402.442 218.234 402.875 218.646Z" fill="#BA7766"/>
<path d="M392.361 214.583C392.372 214.632 392.4 214.663 392.415 214.7C392.457 214.79 392.503 214.867 392.54 214.948C392.596 215.054 392.648 215.15 392.707 215.233C392.733 215.264 392.763 215.284 392.786 215.307C392.864 215.395 392.943 215.489 393.029 215.551C393.039 215.559 393.054 215.561 393.07 215.567C393.327 215.742 393.617 215.84 393.911 215.947C394.804 216.251 395.422 214.863 395.624 214.03C395.82 213.252 396 211.376 395.231 210.524C394.726 209.949 394.199 209.233 393.595 209.524C392.709 209.947 392.223 210.999 392.1 212.31C392.04 212.937 392.106 213.846 392.374 214.578C392.366 214.582 392.366 214.582 392.361 214.583Z" fill="#BA7766"/>
<path d="M399.373 208.309C400.026 207.383 400.433 205.513 399.809 203.935L399.663 203.568C399.044 201.998 397.93 202.288 397.379 203.079C396.72 204.007 396.316 205.885 396.934 207.456L397.076 207.813C397.7 209.393 398.814 209.103 399.373 208.309Z" fill="#BA7766"/>
<path d="M395.738 225.281C395.769 225.322 395.801 225.352 395.837 225.391C395.883 225.436 395.92 225.497 395.972 225.539C395.969 225.529 395.974 225.527 395.976 225.516C396.244 225.737 396.561 225.847 396.934 225.731C398.064 225.381 398.7 223.56 398.651 221.915C398.653 221.903 398.65 221.894 398.654 221.871C398.767 220.745 398.616 218.767 397.538 217.949C396.18 216.926 395.132 218.888 394.859 220.12C394.524 221.655 394.437 223.873 395.738 225.281Z" fill="#BA7766"/>
</svg>
