<svg width="400" height="400" viewBox="0 0 400 400" fill="none" xmlns="http://www.w3.org/2000/svg">
<path d="M266.717 153.017L268.855 144.918L271.362 138.299L269.183 133.612L266.141 132.543L257.796 141.135L258.001 151.084L266.717 153.017Z" fill="#D15D1E"/>
<path d="M262.647 201.528L256.028 205.598L256.645 212.546L263.141 217.397L272.802 212.916L280.695 206.05L284.518 206.215L284.189 208.311L286.738 208.27L288.917 210.737L286.327 216.328L283.655 222.7L277.899 223.934L275.351 226.524L268.362 233.101L245.792 241.118L239.214 239.638L234.239 260.605L222.235 274.541L210.436 279.064L176.725 284.901L160.363 283.175L151.894 277.173L146.262 247.737L147.372 224.468L170.887 196.595L189.757 179.493L201.309 179.164L208.997 179.081L215.739 174.148L228.402 169.749L233.212 160.705L241.146 150.838L248.916 147.385L264.826 149.44L281.928 162.76L287.848 182L288.177 185.495L289.657 189.565L281.558 200.624L278.023 201.364L275.844 204.447L272.144 203.46L262.647 201.528Z" fill="#D15D1E"/>
<path d="M210.065 227.016L223.221 232.895L228.689 241.405L230.004 254.849L227.908 265.579L221.371 277.378L215.78 283.298L223.468 283.215L236.335 285.23L241.145 287.285L242.05 295.096L238.884 296.289L237.61 299.084L222.193 296.7L196.992 291.479L181.246 288.601L179.808 281.53L174.34 278.118L172.819 263.4L182.768 248.723L195.512 232.813L210.065 227.016Z" fill="#D15D1E"/>
<path d="M172.819 263.401L178.78 254.644L179.973 255.959L179.849 267.471L186.55 276.597L199.172 280.297L212.204 278.899L222.112 267.265L227.086 251.807L225.894 237.048L228.689 241.406L230.005 254.849L227.908 265.579L221.372 277.378L215.78 283.298L220.508 283.257L217.589 285.313L210.313 285.436L193.745 284.984L190.538 289.177L189.223 290.041L181.247 288.602L179.808 281.531L174.34 278.118L172.819 263.401Z" fill="#B75120"/>
<path d="M240.159 295.836L238.885 296.33L237.569 299.125L236.541 298.961L236.336 293.37C236.336 293.37 232.019 290.985 231.814 289.67L237.528 291.396C237.528 291.396 239.173 293.945 240.159 295.836Z" fill="#7D3616"/>
<path d="M212.45 230.799L221.248 237.254L222.563 250.697L218.329 264.099L212.779 261.55L214.999 241.817L210.312 233.43L208.175 230.964L212.45 230.799Z" fill="#EA773D"/>
<path d="M221.988 207.982L227.744 217.397L236.048 227.222L247.354 231.128L260.715 230.224L273.747 223.317L276.419 219.864L282.01 219.494L286.779 215.341L286.327 216.328L283.655 222.7L277.899 223.934L275.35 226.524L268.362 233.101L245.792 241.118L239.214 239.638L239.049 240.255L235.637 237.829L228.525 231.58L224.784 222.906L220.426 209.874L221.988 207.982Z" fill="#B75120"/>
<path d="M254.753 202.844L258.289 204.2L256.028 205.598L256.644 212.546L263.14 217.397L269.8 214.314L267.374 217.603L258.001 220.398L245.421 218.877L245.585 212.505L251.752 205.804L254.753 202.844Z" fill="#C1501F"/>
<path d="M189.757 179.493L201.309 179.164L208.997 179.082L215.451 174.354C215.205 175.176 215.04 175.834 214.999 176.163C214.752 177.848 206.941 181.302 205.626 181.507C204.31 181.713 196.088 185.125 196.088 185.125L183.755 195.978L163.322 217.521L153.045 242.352L159.17 274.007L170.681 284.203L160.28 283.134L151.852 277.132L146.22 247.696L147.289 224.427L170.805 196.554L189.757 179.493Z" fill="#7D3616"/>
<path d="M258.083 197.828L249.203 189.195L244.763 179.534L245.873 158.814L247.97 153.634L244.557 153.51L239.213 179.534L240.035 190.757L249.08 195.567L258.083 197.828Z" fill="#C1501F"/>
<path d="M281.558 200.623L278.023 201.363L275.844 204.446L272.144 203.46L263.963 201.774L265.977 196.512L273.706 193.429L279.791 187.139L285.094 180.725L287.725 181.548L287.848 182L288.177 185.494L289.657 189.564L281.558 200.623Z" fill="#EA773D"/>
<path d="M280.695 206.049L281.188 206.091L278.064 208.352L280.695 206.049Z" fill="#EA773D"/>
<path d="M152.593 275.569L146.097 278.817L137.094 276.556L129.324 257.891L122.171 224.797L132.161 201.61L145.316 180.232L145.974 164.98L140.876 162.061L135.162 171.393L123.322 176.368L107.165 167.858L107.001 136.284L137.464 104.793L170.682 99.7778L192.882 110.467L206.366 141.588L205.832 158.526L198.267 176.984L185.852 188.249L163.487 211.189L150.537 231.333L149.674 255.959L152.593 275.569Z" fill="#A84A20"/>
<path d="M140.876 162.061L135.161 171.393L123.28 176.368L117.237 173.202L121.759 172.298L129.611 168.392L133.393 157.909L129.858 145L141.986 132.831L160.486 134.435C160.486 134.435 165.501 151.413 165.583 153.551C165.666 155.689 156.292 177.683 156.292 177.683C156.292 177.683 139.93 197.746 139.272 199.349C138.615 200.952 126.24 222.906 126.24 222.906C126.24 222.906 125.541 233.225 125.253 239.35L122.088 224.838L132.078 201.692L145.233 180.273L145.891 165.021L140.876 162.061Z" fill="#7D3616"/>
<path d="M152.592 275.569L150.249 276.761L143.794 263.564C143.794 263.564 139.601 246.709 139.437 244.982C139.272 243.255 140.752 217.479 140.752 217.479L149.673 201.404L172.161 180.191L191.689 167.035L200.815 152.235C200.815 152.235 200.24 134.229 199.623 132.42C199.048 130.611 191.812 114.166 191.812 114.166L187.125 107.753L192.799 110.508L206.283 141.588L205.79 158.566L198.225 176.984L185.81 188.249L163.487 211.189L150.537 231.333L149.673 255.918L152.592 275.569Z" fill="#7D3616"/>
<path d="M170.681 99.7778L180.178 104.341L168.173 104.917L147.988 108.576L133.517 116.551L119.58 134.846L116.908 146.357L109.097 155.36L109.59 169.132L107.164 167.858L107 136.284L137.463 104.793L170.681 99.7778Z" fill="#D15D1E"/>
<path d="M276.049 170.16L274.199 164.322L270.499 162.061L264.003 162.718L263.921 167.405L266.47 171.64L271.157 172.996L275.268 171.311L276.049 170.16Z" fill="#EA773D"/>
<path d="M270.952 163.295L273.377 165.104L274.405 167.817L274.898 169.831L274.446 170.695L270.623 171.722L267.211 170.859L265.073 168.105L264.538 165.638L264.662 163.747L268.485 162.719L270.952 163.295Z" fill="#605252"/>
<path d="M269.142 163.418L271.157 164.075L272.555 165.226L273.007 166.583L272.719 168.474L271.445 170.283L269.718 170.653L267.375 169.954L265.812 168.145L265.936 165.473L267.046 163.829L269.142 163.418Z" fill="#332929"/>
<path d="M270.417 165.432V166.706L269.471 166.665L268.937 165.309L270.417 165.432Z" fill="#605252"/>
<path d="M289.657 189.565L287.232 192.854L285.916 190.428L286.409 188.62L284.025 187.592L284.313 185.742H285.793L288.424 186.153L289.657 189.565Z" fill="#A84A20"/>
<path d="M281.559 200.624L278.845 201.199L272.679 200.089L267.745 197.417L267.129 196.06L268.28 195.567L271.692 198.034L277.119 200.377L281.559 200.624Z" fill="#A84A20"/>
<path d="M247.683 150.674L240.735 151.373L241.146 150.838L248.916 147.385L264.826 149.44L281.928 162.76L284.724 171.846L278.392 162.843L267.868 156.429L256.933 150.838L247.683 150.674Z" fill="#EA773D"/>
<path d="M261.948 151.29L259.563 153.551L255.863 153.263L248.957 151.002L247.6 145L249.286 135.996L251.465 129.378L256.028 129.83L263.346 138.792L262.03 145.246L261.948 151.29Z" fill="#D15D1E"/>
<path d="M259.112 136.079L261.126 139.903L259.81 148.371L260.468 152.729L259.564 153.551L255.864 153.264L253.397 152.441L253.356 145.329L254.63 140.601L259.112 136.079Z" fill="#EA773D"/>
<path d="M249.697 151.249L248.957 151.002L247.6 145L249.286 135.996L251.465 129.378L256.028 129.83L263.305 138.792L261.989 145.246L261.907 151.331L259.522 153.551L259.194 153.51C258.741 151.002 258.412 147.836 258.495 147.302C258.618 146.439 259.687 139.655 259.687 139.655L256.891 133.406L253.808 130.899L251.424 133.119L249.656 140.642L249.204 145.493L249.697 151.249Z" fill="#A84A20"/>
</svg>
