<svg width="400" height="400" viewBox="0 0 400 400" fill="none" xmlns="http://www.w3.org/2000/svg">
<path d="M133.924 174.193L115.642 185.149L108.572 192.58L106.916 194.937L99.4417 199.63L96.9574 201.965L93.2204 205.108C93.2204 205.108 79.5039 217.253 79.1005 218.421C78.6759 219.588 79.9286 220.374 79.9286 220.374C79.9286 220.374 74.5355 225.066 73.2827 226.234C72.0512 227.402 63.3245 237.976 63.3245 237.976L52.9416 251.671L46.6991 266.534L45.043 284.922L46.6991 289.232C46.6991 289.232 56.254 288.064 57.5067 287.279C58.7595 286.493 76.2129 283.754 76.2129 283.754L89.908 273.584C89.908 273.584 106.533 256.746 106.937 255.578C107.362 254.389 114.007 248.529 114.411 247.361C114.835 246.193 118.976 243.836 118.976 242.265C118.976 240.694 119.804 228.167 119.804 228.167L123.541 215.639C123.541 215.639 129.359 206.233 129.359 204.683C129.359 203.175 133.924 174.193 133.924 174.193Z" fill="#D8650F"/>
<path d="M74.5137 278.68L76.998 275.155L68.6959 273.584L63.7062 264.984L57.0603 265.367L51.2425 268.106L47.7602 263.902L46.6562 266.534L45 284.922L46.6562 289.232C46.6562 289.232 56.2109 288.065 57.4637 287.279C58.7164 286.493 76.1698 283.754 76.1698 283.754L79.7158 281.121L74.5137 278.68Z" fill="#D6C9C3"/>
<path d="M304.253 107.882C304.571 106.99 310.495 96.7347 310.495 96.7347L315.167 95.2697L316.101 98.497L316.398 104.081L316.717 111.704L304.253 107.882Z" fill="#66524A"/>
<path d="M130.165 198.674L121.884 201.2L114.835 225.448L105.705 239.547L91.16 255.981L78.6963 268.126L68.7381 273.604L59.1833 279.083L45.4882 280.378L45.0635 284.964L46.7196 289.274C46.7196 289.274 56.2744 288.107 57.5272 287.321C58.7799 286.535 76.2333 283.796 76.2333 283.796L89.9286 273.626C89.9286 273.626 106.554 256.788 106.957 255.62C107.382 254.431 114.028 248.571 114.431 247.403C114.856 246.235 118.996 243.878 118.996 242.307C118.996 240.736 119.824 228.209 119.824 228.209L123.561 215.681C123.561 215.681 129.379 206.275 129.379 204.725C129.358 204.3 129.676 201.922 130.165 198.674Z" fill="#000F45" fill-opacity="0.1"/>
<path d="M188.768 221.541L189.596 238.379L184.606 250.503L176.708 258.72L169.637 264.198L168.406 268.509L169.637 276.344L175.052 287.3L176.708 288.85L181.273 290.039L185.435 294.731L184.606 297.852H173.799L166.728 297.47L165.9 291.992L163.841 289.635L163.416 285.728L158.851 277.511L152.205 266.152L153.861 260.695L160.932 257.17L165.497 242.286L169.637 214.11L188.768 221.541Z" fill="#D8650F"/>
<path d="M176.708 288.85L175.052 287.3L169.637 276.344L168.406 268.509L169.191 265.727L166.325 264.602L162.588 266.938L156.77 265.77L152.566 264.92L152.205 266.152L158.851 277.512L163.416 285.729L163.841 289.636L165.9 291.992L166.728 297.471L173.799 297.853H184.606L185.435 294.731L181.273 290.039L176.708 288.85Z" fill="#44352E"/>
<path d="M283.891 218.42L281.811 242.69L280.154 260.695L279.73 270.462L282.638 280.633L288.053 282.607L291.79 286.896L291.365 290.803L280.558 290.421L275.165 285.346L270.175 267.341V222.327L283.891 218.42Z" fill="#D8650F"/>
<path d="M291.79 286.897L288.053 282.608L282.638 280.633L279.73 270.462L280.154 260.695L281.811 242.69L282.405 235.916L275.589 234.069L270.175 237.636V267.341L275.165 285.347L280.558 290.421L291.365 290.804L291.79 286.897Z" fill="#66524A"/>
<path d="M353.683 138.606L351.199 145.655L344.553 150.348L331.261 149.18H320.879L312.98 155.062L304.253 180.881L298.032 202.793L289.73 215.703L280.175 226.659L274.782 230.184L273.126 259.527L272.298 278.319L271.47 283.393L274.379 292.396L279.793 293.564L283.53 300.21L281.449 301.781L265.248 300.21L261.087 285.347L260.365 276.344L259.431 267.553L256.522 259.527L252.36 229.016L246.967 225.088L234.503 227.827L212.081 227.444L183.417 223.538L175.518 234.494L170.953 245.854L160.146 254.856L141.461 263.859L136.471 268.169L139.38 292.438L144.37 293.988L148.935 297.513L150.187 304.541L146.026 304.945H135.643L128.997 299.467L126.088 297.11L125.26 282.247L119.018 261.502L128.997 249.76L130.25 239.186L124.432 220.416L119.442 202.411C119.442 202.411 122.351 188.334 122.776 187.145C123.2 185.977 133.583 172.282 133.583 172.282L156.027 163.279L195.074 160.136L228.303 156.994L236.605 152.684L249.069 151.516L255.715 148.777L266.522 133.51L283.148 113.551L297.692 106.12L312.64 107.288L328.841 118.626L332.578 125.272L338.82 130.368L353.683 138.606Z" fill="#D8650F"/>
<path d="M279.729 293.563L274.336 292.396L271.427 283.372L272.255 278.297L273.083 259.506L274.527 234.175L268.922 232.901L267.265 229.376L257.711 226.255L252.657 231.542L256.479 259.506L259.367 267.532L260.301 276.344L261.044 285.346L265.185 300.209L281.385 301.78L283.466 300.209L279.729 293.563Z" fill="#44352E"/>
<path d="M160.082 254.814L162.588 252.733L158.851 252.86L139.741 255.981L131.418 254.432L129.04 248.89L128.934 249.718L118.954 261.481L125.197 282.204L126.025 297.067L128.934 299.424L135.579 304.902H145.962L150.124 304.52L148.871 297.471L144.306 293.946L139.316 292.396L136.408 268.127L141.397 263.816L160.082 254.814Z" fill="#44352E"/>
<path d="M342.472 141.324L332.918 137.035L325.422 133.892L314.211 135.463L300.092 140.942L290.94 143.681L288.881 148.373L291.365 158.947L293.446 179.288L291.365 193.769L281.81 212.157L277.649 222.327L277.075 228.655L280.154 226.637L289.709 215.681L298.011 202.772L304.253 180.859L312.98 155.04L320.857 149.159H331.24L344.532 150.348L351.178 145.634L352.027 143.256L342.472 141.324Z" fill="#D6C9C3"/>
<path d="M267.265 296.281L264.356 283.372L263.953 268.509L260.619 256.767V223.898L262.297 214.896L254.802 210.203L226.965 215.681L197.898 214.11L177.132 206.678L171.717 209.035L174.626 218.038L163.415 239.95L146.79 254.028L133.095 267.341L136.004 284.943L138.679 287.087L136.407 268.126L141.397 263.816L160.082 254.813L170.889 245.811L175.454 234.472L183.353 223.516L212.017 227.423L234.439 227.805L246.924 225.066L252.317 228.994L256.479 259.506L259.367 267.532L260.301 276.344L261.044 285.346L265.184 300.209L268.263 300.507L267.265 296.281Z" fill="#000F45" fill-opacity="0.1"/>
<path d="M302.576 110.027L310.05 108.859C310.05 108.859 310.835 108.179 311.812 107.245L297.586 106.12L283.042 113.551L266.416 133.51L255.609 148.777L248.963 151.516L236.499 152.684L228.197 156.994L194.968 160.136L155.92 163.279L139.231 169.967L148.85 169.139L184.585 164.043L217.411 162.472L232.38 164.425L248.177 162.472L258.136 158.162L264.781 147.206C264.781 147.206 280.154 127.247 280.557 126.079C280.961 124.911 290.537 113.955 290.537 113.955L302.576 110.027Z" fill="#FF7E27"/>
<path d="M323.257 123.977L329.945 127.289L334.319 129.646L331.665 126.886L325.89 123.425L323.257 123.977Z" fill="#66524A"/>
<path d="M253.549 221.945L251.49 218.42L231.127 220.374H207.028L188.768 219.206L182.101 218.803L183.353 223.516L212.018 227.423L234.44 227.805L246.925 225.066L250.916 227.975L253.549 221.945Z" fill="#D6C9C3"/>
<path d="M298.011 91.1506L293.339 93.2102L285.547 111.98L287.118 115.505L296.758 121.386L298.626 117.564L302.066 114.04L305.166 113.742L304.869 105.525L298.011 91.1506Z" fill="#FF7E27"/>
<path d="M296.461 94.9725L298.733 92.6369L298.011 91.1506L293.339 93.2102L285.547 111.98L287.118 115.505L296.758 121.386L297.777 119.327L296.461 112.277V102.298V94.9725Z" fill="#D8650F"/>
<path d="M302.683 107.882L302.364 102.892L298.627 96.7346L298.309 101.13L298.627 109.347L299.646 116.524L302.067 114.039L303.128 113.933L303.298 113.445L302.683 107.882Z" fill="#D6C9C3"/>
<path d="M298.011 91.1506L293.34 93.2102L288.711 104.357L293.042 102.595L296.461 103.805V102.298V94.9725L298.733 92.6369L298.011 91.1506Z" fill="#44352E"/>
<path d="M348.248 147.715L344.744 147.354L339.139 146.462L330.412 144.127L322.322 144.848V145.74L326.675 145.443L330.731 145.294L337.27 146.908L342.876 148.225L346.655 148.84L348.248 147.715Z" fill="#66524A"/>
<path d="M350.669 141.324L351.943 143.489L353.684 138.606L351.921 137.629L349.416 138.096V139.859L351.454 140.156V141.324H350.669Z" fill="#66524A"/>
<path d="M326.824 121.811L326.527 122.851L326.824 124.316L327.758 125.335L324.34 124.911L321.219 124.741L323.576 123L326.824 121.811Z" fill="#44352E"/>
</svg>
