<svg width="400" height="400" viewBox="0 0 400 400" fill="none" xmlns="http://www.w3.org/2000/svg">
<path d="M204.948 110.425C207.266 108.433 214.03 108.969 217.108 108.816C220.452 108.624 220.414 110.195 221.668 111.536C221.744 111.613 222.922 111.115 224.708 112.801C228.052 115.943 230.37 118.74 232.764 123.453C232.992 123.874 236.374 127.054 239.756 129.43C243.594 132.074 245.646 136.327 250.092 141.423C252.182 143.799 253.55 148.358 254.006 150.772C254.728 154.719 257.768 158.665 258.604 160.198C260.162 162.995 259.098 164.106 259.82 167.401C260.352 169.7 261.15 170.811 261.606 174.26C261.606 174.298 262.632 175.141 262.746 175.256C264.76 177.21 267.192 177.555 267.458 187.747C267.496 189.012 273.462 188.169 277.642 193.878C286.382 205.947 287.94 210.2 291.018 215.833C291.588 216.867 293.906 218.093 293.906 224.109C293.906 224.952 299.568 228.477 301.24 232.654C301.848 234.225 303.482 235.221 304.128 235.834C306.18 237.673 306.902 241.122 307.396 242.501C307.776 243.612 309.41 244.493 309.904 247.827C310.36 251.199 312.336 256.026 311.804 258.479C311.006 262.119 306.636 263.651 300.936 263.92C300.556 263.958 298.276 265.107 295.16 265.414C290.562 265.874 287.332 266.142 284.71 265.835C277.528 265.031 276.692 266.793 272.056 266.947C268.028 267.062 260.694 268.479 251.954 268.747C246.102 268.939 241.314 271.659 238.654 272.771C234.056 274.725 226.646 276.755 224.366 277.637C223.302 278.058 221.136 279.668 217.944 281.928C216.804 282.733 213.346 283.576 208.406 283.691C201.452 283.806 197.766 287.101 194.08 287.292C174.624 288.289 162.54 289.515 151.976 289.591C147.568 289.63 136.168 288.902 133.28 289.323C125.338 290.549 122.032 289.285 119.866 288.174C117.7 287.062 112.532 288.595 110.138 288.174C98.89 286.22 96.952 284.725 93.456 281.928C91.594 280.434 86.3499 278.327 86.0079 275.951C85.7799 274.38 90.5679 257.904 91.9359 255.298C95.8119 247.903 97.256 249.666 99.156 247.904C99.764 247.329 96.9138 239.129 104.476 236.677C105.198 236.447 106.148 219.511 117.168 218.515C117.928 218.438 120.778 207.672 127.998 202.882C128.644 202.461 131.532 178.819 139.778 178.628C140.842 178.59 145.25 162.42 151.824 163.148C153.23 163.302 161.742 152.611 165.808 150.159C166.986 149.431 178.234 140.733 181.844 137.017C184.694 134.066 189.254 127.246 191.876 124.142C194.954 120.579 199.628 114.985 204.948 110.425Z" fill="#84847B"/>
<path opacity="0.4784" d="M106.794 251.392C107.022 251.468 109.188 250.663 111.506 251.008C115.116 251.506 117.928 252.618 119.904 253.154C123.02 253.997 133.85 252.234 138.334 253.729C138.866 253.92 140.766 254.227 144.566 255.07C144.756 255.108 148.024 253.192 150.608 253.652C151.558 253.844 160.032 253.575 161.324 253.231C161.932 253.077 163.908 254.15 165.96 254.38C169 254.763 176.638 253.69 178.234 253.461C178.614 253.422 179.906 251.813 182.414 251.545C187.468 251.008 198.526 250.778 204.948 249.361C207.646 248.786 212.928 244.839 215.74 243.613C224.024 239.935 241.618 233.421 250.662 233.958C252.334 234.034 257.844 235.222 262.214 233.383C264.836 232.272 270.84 230.049 273.652 230.241C275.666 230.394 280.378 231.85 282.696 230.318C287.294 227.252 292.652 224.187 294.286 225.03C296.946 226.371 300.024 229.513 301.468 232.847C301.62 233.191 304.432 235.72 305.154 236.87C305.99 238.249 306.94 241.161 307.738 242.655C308.536 244.188 309.182 244.303 309.448 245.567C310.132 248.671 309.98 248.096 311.158 253.039C311.424 254.074 312.564 257.599 311.614 259.323C310.056 262.158 307.662 262.963 305.99 263.231C302.798 263.768 299.72 264.764 294.172 265.607C293.944 265.645 290.98 265.683 288.548 265.837C287.712 265.875 284.406 266.028 281.366 265.607C280.378 265.492 275.134 266.871 267.04 267.446C264.342 267.638 262.556 267.982 257.388 268.404C254.386 268.634 250.852 268.749 248.534 269.208C248.42 269.247 248.268 269.247 248.154 269.285C243.632 270.32 238.616 273.04 235.614 273.96C233.448 274.649 226 277.102 224.632 277.6C221.896 278.558 219.578 281.585 215.968 282.734C214.106 283.309 210.382 283.577 205.936 283.884C205.214 283.922 205.328 283.96 202.63 284.612C200.73 285.071 199.476 285.799 198.336 286.221C194.916 287.485 192.332 287.524 188.76 287.677C184.01 287.868 178.234 288.137 167.708 288.98C160.792 289.516 153.002 289.861 140.234 289.248C138.372 289.171 134.306 288.711 129.062 289.938C128.416 290.091 122.83 289.976 119.79 288.137C119.372 287.907 116.674 287.907 114.736 288.022C99.6121 288.865 93.2662 281.699 92.4682 281.24C90.7202 280.167 88.5922 279.86 86.3882 276.948C84.9062 274.994 88.5541 265.722 90.3021 259.553C90.3021 259.553 91.5181 255.032 93.8361 251.851C95.7741 249.207 98.7761 247.866 99.3081 247.751C99.3461 247.675 103.83 250.204 106.794 251.392Z" fill="#F7F7F7"/>
<path opacity="0.4196" d="M133.28 289.323C127.77 290.664 122.032 289.285 119.866 288.174C117.7 287.062 112.532 288.595 110.138 288.174C98.89 286.219 96.952 284.725 93.456 281.928C91.594 280.434 86.3499 278.326 86.0079 275.951C85.7799 274.38 90.5679 257.904 91.9359 255.298C95.8119 247.903 97.256 249.666 99.156 247.903C99.764 247.329 96.9138 239.129 104.476 236.677C105.198 236.447 106.148 219.511 117.168 218.515C117.928 218.438 120.778 207.671 127.998 202.882C128.644 202.46 131.532 178.819 139.778 178.628C140.842 178.589 145.25 162.42 151.824 163.148C153.23 163.301 161.742 152.611 165.808 150.159C166.986 149.431 178.234 140.733 181.844 137.017C184.694 134.066 189.254 127.246 191.876 124.142C194.954 120.541 199.666 114.946 204.948 110.387C206.354 109.161 209.432 108.892 212.32 108.816C214.144 108.777 204.72 124.104 203.086 133.108C202.098 138.396 195.524 144.028 194.346 152.688C193.852 156.404 188.912 160.658 190.888 167.325C191.04 167.899 191.078 168.436 191.04 168.934C190.774 171.922 191.838 169.202 190.964 169.739C186.024 172.651 187.164 185.333 186.518 186.099C184.846 188.092 185.378 197.786 184.39 198.437C178.956 201.924 178.12 210.545 177.512 210.737C171.66 212.691 171.356 219.511 170.976 219.818C163.604 225.603 167.822 240.01 167.1 240.393C162.388 242.731 160.602 246.945 161.172 251.582C161.286 252.425 161.096 253.038 160.906 253.306C154.94 260.433 157.904 269.973 156.802 271.085C152.698 275.108 156.422 279.744 152.546 289.63C152.508 289.706 136.32 288.595 133.28 289.323Z" fill="#595953"/>
<path opacity="0.4196" d="M300.213 245.797C298.465 246.946 296.604 247.329 294.324 247.713C292.956 247.942 287.18 247.713 286.268 247.674C283.684 247.329 281.252 246.295 278.63 246.142C276.274 245.912 273.842 246.18 271.524 246.64C270.156 247.138 269.51 247.674 268.028 247.827C265.748 248.326 263.62 249.475 261.264 249.36C261.112 249.36 261.036 249.36 260.922 249.36C261.112 249.399 261.302 249.437 261.492 249.437C262.366 249.552 263.24 249.667 264.114 249.552C266.698 248.977 269.282 249.169 271.866 248.249C272.588 248.096 276.578 248.402 276.996 248.249C280.492 248.67 283.721 250.471 287.293 250.433C291.131 250.28 295.084 250.127 298.618 248.402C299.72 247.981 300.935 246.87 301.581 246.333C303.443 244.992 305.343 243.689 306.749 241.85C304.849 243.651 302.417 244.532 300.213 245.797Z" fill="#595953"/>
<path opacity="0.4196" d="M250.472 247.903C249.104 247.826 246.52 247.673 245.76 248.056C247.166 247.903 248.648 248.209 249.94 248.363C252.485 248.554 255.069 248.248 257.577 248.899C255.297 248.018 252.865 247.865 250.472 247.903Z" fill="#595953"/>
<path opacity="0.4196" d="M239.261 251.697C237.931 252.693 236.601 254.303 235.499 255.299C234.549 256.065 233.41 256.525 232.346 256.946C230.712 257.904 229.648 257.904 227.9 258.402C227.558 258.556 226.304 259.054 226.456 259.054C227.064 258.939 227.633 258.747 228.241 258.671C229.647 258.594 231.054 258.594 232.346 257.981C233.828 257.521 235.385 257.023 236.563 255.95C238.197 254.188 239.794 252.348 241.542 250.663C242.568 249.475 244.088 248.823 245.684 249.092C243.138 248.172 241.085 250.164 239.261 251.697Z" fill="#595953"/>
<path opacity="0.4196" d="M214.752 264.11C212.13 265.106 209.28 265.336 206.582 265.949C204.074 266.447 203.086 266.601 200.464 266.716C197.842 266.869 194.194 267.942 192.712 268.057C188.57 268.67 184.39 268.095 180.286 268.747C176.942 269.398 173.826 271.007 170.482 271.62C169.076 271.812 167.024 271.429 165.504 271.544C166.948 271.658 168.316 272.157 169.722 272.31C172.648 272.616 175.84 271.314 178.272 271.16C181.16 270.471 184.846 271.122 188.266 271.275C192.104 271.735 198.108 269.973 200.578 269.513C205.062 269.13 209.318 267.559 213.574 266.179C217.108 264.57 220.376 262.463 223.796 260.662C220.68 261.773 217.602 262.999 214.752 264.11Z" fill="#595953"/>
<path opacity="0.4196" d="M158.663 270.548C156.877 270.624 155.091 271.199 153.647 271.237C150.949 271.161 148.289 271.199 145.591 271.314C143.577 271.276 141.488 271.084 139.55 271.62C137.916 272.004 136.814 273.46 135.218 273.843C130.62 273.958 126.554 273.076 122.412 271.007C121.5 270.663 119.79 269.82 119.372 269.666C119.942 270.088 120.511 270.509 121.119 270.892C123.589 272.578 126.136 274.226 129.062 274.954C131.418 275.49 133.963 276.257 136.357 275.72C138.105 274.992 139.169 273.919 140.613 273.689C143.881 273.536 147.568 273.46 150.95 272.961C153.268 273.038 155.471 272.348 157.675 271.659C160.069 271.046 162.844 271.582 165.466 271.62C163.224 271.237 160.981 270.663 158.663 270.548Z" fill="#595953"/>
<path opacity="0.4196" d="M109.112 268.057C107.098 268.21 104.97 268.363 103.64 267.673C102.538 267.252 101.74 265.988 100.524 264.915C99.5357 264.11 98.2057 264.11 96.9897 263.842C95.8497 263.574 94.7476 263.229 93.7976 262.731C92.5436 262.156 91.1756 261.275 90.2256 260.432C90.7196 261.006 91.2518 261.581 91.8218 262.079C93.9118 263.957 96.7617 264.915 99.0797 265.489C100.372 266.026 100.676 267.328 101.892 268.171C103.564 269.819 107.098 269.513 108.428 269.244C108.884 269.168 109.568 269.091 109.948 269.129C112.608 269.666 115.61 269.742 118.384 270.049C115.268 269.436 112.19 268.478 109.112 268.057Z" fill="#595953"/>
<path opacity="0.4196" d="M283.684 228.746C282.088 230.087 279.731 230.317 277.832 230.278C279.238 230.623 280.72 230.738 282.163 230.47C283.759 229.972 285.127 228.899 286.495 227.941C288.661 226.217 291.169 225.412 293.753 224.531C289.953 224.799 286.571 226.332 283.684 228.746Z" fill="#595953"/>
<path opacity="0.4196" d="M266.736 231.006C265.596 231.543 261.834 232.462 261.15 232.501C255.944 233.19 250.7 232.003 245.494 232.386C243.594 232.654 241.96 233.689 240.136 234.187C238.92 234.493 237.096 235.298 236.298 235.566C237.248 235.451 238.122 235.183 239.034 234.991C241.694 234.532 244.886 233.612 246.976 234.187C253.056 235.413 259.668 235.949 265.33 232.922C266.774 232.309 267.838 231.313 269.13 230.547C270.118 230.125 271.258 230.087 272.322 229.934C270.346 229.665 268.446 229.934 266.736 231.006Z" fill="#595953"/>
<path opacity="0.4196" d="M216.652 241.963C213.384 243.879 208.71 246.983 206.05 248.209C201.452 250.086 196.778 248.975 191.8 250.508C191.116 250.738 189.862 250.738 189.444 250.776C190.09 250.891 190.736 250.968 191.382 250.968C194.84 250.431 198.26 251.466 201.718 251.313C205.898 251.581 210.268 248.401 212.852 246.331C214.486 245.182 215.93 243.611 217.374 242.615C218.97 241.734 220.946 241.197 222.77 240.546C220.718 240.929 218.552 241.12 216.652 241.963Z" fill="#595953"/>
<path opacity="0.4196" d="M171.356 253.575C174.814 254.073 178.69 253.882 181.236 251.123C178.31 253.307 174.852 253.345 171.356 253.575Z" fill="#595953"/>
<path opacity="0.4196" d="M157.371 252.117C156.307 252.002 154.787 252.385 153.989 252.5C152.089 253.037 149.999 251.696 147.719 252.155C146.769 252.27 145.363 253.113 144.831 253.381C144.489 253.573 143.159 253.918 142.475 254.071C139.359 254.761 135.331 253.496 131.569 252.5C130.695 252.232 129.669 251.887 128.947 251.657C129.973 252.194 130.999 252.768 132.101 253.228C136.205 255.106 140.955 256.868 145.401 255.067C146.579 254.569 147.643 253.765 148.403 253.726C149.277 253.573 150.265 253.803 151.405 253.956C152.849 254.148 154.293 253.803 155.661 253.305C157.903 252.577 160.639 253.305 163.109 252.538C161.133 252.768 159.271 252.27 157.371 252.117Z" fill="#595953"/>
<path opacity="0.4196" d="M116.255 251.162C115.001 250.625 113.861 249.514 112.417 249.552C111.163 249.667 110.137 250.395 109.035 250.893C107.895 251.161 106.755 250.702 105.615 250.51C105.159 250.395 104.703 250.242 104.285 250.089C104.969 250.548 105.729 250.855 106.489 251.123C107.363 251.468 108.275 251.775 109.225 251.621C110.327 251.315 111.125 250.74 112.265 250.548C113.025 250.472 113.481 250.778 114.127 251.085C116.635 252.426 119.485 252.962 122.259 253.575C120.245 252.771 118.117 251.966 116.255 251.162Z" fill="#595953"/>
<path opacity="0.4196" d="M100.333 247.558C100.675 247.788 101.017 248.018 101.397 248.171C101.055 247.942 100.675 247.673 100.333 247.558Z" fill="#595953"/>
<path opacity="0.4196" d="M102.918 248.784C101.702 248.669 100.6 248.363 99.6882 247.711C99.3842 247.443 99.1181 247.175 98.8521 246.907C98.8141 246.868 98.7762 246.83 98.7382 246.792C98.5862 246.638 98.3582 246.6 98.2822 246.868C98.2822 246.945 98.3581 247.06 98.3961 247.136C98.6241 247.52 99.0421 247.826 99.3461 248.133C99.8021 248.439 100.296 248.592 100.828 248.707C100.904 248.746 100.98 248.784 101.056 248.822C101.018 248.784 100.98 248.746 100.942 248.707C101.626 248.899 102.31 248.899 102.918 248.784Z" fill="#595953"/>
<path opacity="0.4196" d="M261.948 188.131C260.01 187.25 257.844 185.181 255.374 185.526C253.93 185.602 251.346 187.403 250.89 187.633C246.634 189.127 242.758 189.741 238.464 189.97C237.666 190.047 236.526 190.085 235.956 190.162C237.932 190.507 239.87 190.737 241.846 190.928C244.924 191.12 248.116 190.698 251.08 189.894C252.562 189.434 253.739 188.246 255.145 187.633C255.905 187.173 258.148 187.633 259.668 188.553C262.062 189.74 264.949 189.741 267.115 188.055C265.443 188.936 263.429 188.936 261.948 188.131Z" fill="#595953"/>
<path opacity="0.4196" d="M223.719 192.115C221.211 192.46 218.628 190.85 216.272 192.383C215.892 192.689 215.854 192.69 216.31 192.46C216.956 192.153 217.678 192.076 218.4 192.191C219.844 192.46 221.25 192.996 222.732 193.073C226.152 193.264 229.952 191.004 233.448 190.391C229.686 190.582 226.797 191.617 223.719 192.115Z" fill="#595953"/>
<path opacity="0.4196" d="M207.38 201.694C204.454 203.955 199.59 204.721 195.41 205.717C191.952 206.637 188.988 208.783 185.72 209.855C185.416 209.97 185.226 210.009 184.998 210.085C185.53 210.009 186.1 209.932 186.632 209.855C189.33 209.396 191.914 208.284 194.612 207.71C196.854 207.212 199.172 207.058 201.414 206.407C204.188 205.526 207.076 204.185 208.786 201.732C209.774 200.046 209.964 198.054 210.496 196.215C209.508 198.092 209.09 200.315 207.38 201.694Z" fill="#595953"/>
<path opacity="0.4196" d="M166.15 211.849C164.402 212.883 162.084 211.887 160.07 212.155C160.222 212.194 160.412 212.194 160.564 212.232C162.122 212.462 163.642 213.151 165.238 213.037C166.682 212.73 167.974 211.849 169.456 211.695C172.61 211.006 175.878 211.044 179.184 210.584C174.852 210.431 170.14 209.665 166.15 211.849Z" fill="#595953"/>
<path opacity="0.4196" d="M139.892 212.116C138.144 211.886 136.358 212.384 134.61 212.116C132.33 211.925 129.86 210.584 128.34 209.319C129.86 211.312 132.064 212.806 134.534 213.304C136.13 213.725 138.866 213.419 139.93 213.572C144.528 214.223 148.86 215.296 153.914 213.917C149.012 214.492 144.68 212.844 139.892 212.116Z" fill="#595953"/>
<path opacity="0.4196" d="M261.15 195.333C260.314 195.448 259.06 196.023 258.414 196.061C254.196 195.946 249.142 196.559 244.734 195.869C244.468 195.831 244.24 195.793 244.012 195.755C244.202 195.831 244.354 195.87 244.544 195.946C248.496 197.364 254.462 197.594 258.68 197.326C259.668 197.134 260.466 196.598 261.302 196.368C263.658 195.946 266.242 195.41 268.75 194.873C266.204 194.95 263.658 195.18 261.15 195.333Z" fill="#595953"/>
<path opacity="0.4196" d="M234.094 197.634C232.46 197.864 230.218 199.013 229.154 199.511C232.574 198.362 236.184 197.978 239.604 196.829C237.628 197.174 235.918 197.365 234.094 197.634Z" fill="#595953"/>
<path opacity="0.4196" d="M213.84 204.798C215.512 202.997 217.678 202.001 219.958 201.388C217.564 201.465 214.828 202.921 213.84 204.798Z" fill="#595953"/>
<path opacity="0.4196" d="M196.549 213.649C199.475 213.841 202.287 213.381 203.921 210.661C202.135 212.96 198.791 213.343 196.549 213.649Z" fill="#595953"/>
<path opacity="0.4196" d="M181.616 219.32C185.796 219.32 189.178 217.25 193.054 216.331C189.254 216.561 184.732 218.706 181.616 219.32Z" fill="#595953"/>
<path opacity="0.4196" d="M164.44 220.162C162.274 220.086 160.222 220.622 158.094 220.622C160.602 221.044 163.148 220.814 165.694 221.005C168.012 220.737 170.33 220.086 172.458 219.128C169.722 219.741 167.176 220.277 164.44 220.162Z" fill="#595953"/>
<path opacity="0.4196" d="M144.908 222.04C142.818 221.772 140.69 220.814 138.562 221.388C137.726 221.618 138.182 221.504 138.714 221.465C140.31 221.35 141.83 222.002 143.388 222.346C145.478 222.998 147.568 222.117 149.544 221.388C148.024 221.657 146.466 222.117 144.908 222.04Z" fill="#595953"/>
<path opacity="0.4196" d="M118.232 219.895C120.474 221.849 123.552 221.351 126.212 220.738C123.59 220.891 120.36 221.16 118.232 219.895Z" fill="#595953"/>
<path opacity="0.4196" d="M117.966 218.017C118.118 218.515 118.536 218.898 118.878 219.281C118.612 218.86 118.194 218.438 117.966 218.017Z" fill="#595953"/>
<path opacity="0.4196" d="M118.878 239.857C118.308 239.665 117.662 239.205 116.864 238.86C113.368 237.136 109.302 238.056 105.654 237.021C105.388 236.945 105.046 236.715 104.932 236.638C105.16 236.906 105.464 237.136 105.768 237.289C108.808 238.707 112.342 238.516 115.42 239.78C116.256 240.087 117.852 241.466 119.182 241.619C124.958 242.424 130.506 240.508 136.206 241.428C130.734 239.473 124.122 240.853 118.878 239.857Z" fill="#595953"/>
<path opacity="0.4196" d="M104.134 234.877C104.134 234.149 103.716 233.344 104.058 232.616C104.552 231.85 105.388 231.275 105.654 230.317C105.844 229.704 105.996 228.899 106.186 228.44C105.882 228.861 105.692 229.359 105.502 229.857C105.122 231.007 103.83 231.505 103.412 232.616C103.146 233.536 103.678 234.494 103.716 235.413C103.792 236.601 104.818 237.252 105.882 237.521C104.742 237.022 104.058 236.141 104.134 234.877Z" fill="#595953"/>
<path opacity="0.4196" d="M289.118 218.516C287.826 218.745 286.382 218.324 285.166 218.554C286.534 218.592 287.864 219.244 289.232 218.899C290.22 218.592 290.714 217.634 291.284 216.868C290.6 217.443 290.031 218.286 289.118 218.516Z" fill="#595953"/>
<path opacity="0.4196" d="M277.49 219.741C276.046 219.702 274.754 219.319 273.196 219.051C270.574 218.63 268.142 220.124 265.634 220.507C265.216 220.545 264.874 220.584 265.482 220.622C267.876 220.737 270.308 219.779 272.474 219.971C274.26 220.354 276.084 220.852 277.946 220.66C279.884 220.354 281.746 219.664 283.684 219.357C281.594 219.319 279.542 219.741 277.49 219.741Z" fill="#595953"/>
<path opacity="0.4196" d="M257.73 221.196C255.83 220.813 254.043 220.008 252.105 219.893C249.977 219.625 247.812 220.161 245.684 220.161C243.404 220.2 241.085 219.855 238.843 220.353C237.475 220.698 236.412 221.656 235.196 222.346C234.056 222.997 232.726 223.342 231.434 223.993C230.94 224.223 230.18 224.568 229.914 224.759C231.358 224.3 232.802 223.955 234.284 223.61C236.07 223.227 237.704 221.886 239.148 221.694C242.15 221.503 245.722 222.346 248.914 221.771C249.902 221.656 250.206 221.579 251.346 221.541C253.36 221.541 254.651 221.733 256.437 222.154C258.869 222.384 261.492 221.886 263.468 220.43C261.796 221.349 259.364 221.388 257.73 221.196Z" fill="#595953"/>
<path opacity="0.4196" d="M219.881 230.66C217.981 232.385 215.587 233.687 213.535 235.105C215.891 234.109 218.437 233.113 220.337 231.312C221.021 230.545 221.363 229.473 222.085 228.706C222.807 227.978 223.681 227.404 224.479 226.752C222.351 227.672 221.135 228.745 219.881 230.66Z" fill="#595953"/>
<path opacity="0.4196" d="M200.312 237.137C199.134 237.06 197.766 236.677 196.322 236.983C195.448 237.175 194.726 237.711 193.89 238.056C193.51 238.248 191.838 238.784 190.964 238.976C189.634 239.32 184.922 239.512 184.58 239.78C188.152 239.934 191.952 240.508 195.258 238.784C195.942 238.439 196.208 238.286 196.93 238.133C197.348 237.979 199.21 238.171 200.312 238.171C203.086 238.171 205.784 237.481 208.368 236.6C205.708 237.022 203.01 237.366 200.312 237.137Z" fill="#595953"/>
<path opacity="0.4196" d="M170.216 241.198C167.252 240.892 164.288 240.509 161.324 240.356C159.728 240.47 158.208 241.16 156.65 241.39C155.32 241.697 150.342 242.003 149.582 242.31C152.394 242.386 155.244 242.731 158.018 242.348C159.576 242.195 160.754 241.62 162.084 241.773C164.896 242.041 167.746 242.08 170.558 242.156C172.686 242.195 174.928 242.195 176.828 241.16C174.662 241.888 172.382 241.467 170.216 241.198Z" fill="#595953"/>
<path opacity="0.4196" d="M254.765 180.889C254.157 181.119 253.245 181.348 252.333 181.272C252.295 181.272 251.725 181.195 251.307 181.004C250.129 180.505 249.712 180.046 248.724 179.279C246.634 178.398 244.354 177.862 242.074 177.9C240.174 178.092 238.349 178.858 236.449 179.126C234.967 179.356 232.08 179.241 230.37 179.126C232.08 179.586 233.828 179.969 235.614 180.084C238.198 180.314 240.136 179.394 242.568 179.548C243.708 179.586 246.748 180.544 247.736 180.889C248.876 181.962 251.497 183.609 253.815 182.728C255.373 182.268 256.665 181.234 257.881 180.199C259.325 178.973 260.731 177.632 261.453 175.793C259.895 178.207 257.311 179.663 254.765 180.889Z" fill="#595953"/>
<path opacity="0.4196" d="M218.703 181.195C216.803 181.809 214.219 183.571 212.737 183.801C214.675 183.839 216.347 182.728 218.133 182.153C220.983 181.195 223.947 180.697 226.873 180.084C224.137 180.161 221.325 180.353 218.703 181.195Z" fill="#595953"/>
<path opacity="0.4196" d="M206.164 184.949C205.556 185.792 205.366 186.903 204.72 187.708C203.01 190.505 201.528 192.267 198.83 194.298C197.196 195.333 195.676 195.678 193.852 196.521C192.902 197.019 189.824 198.015 192.066 197.479C194.65 196.789 197.424 196.559 199.78 195.218C202.782 193.34 204.226 190.773 205.518 187.746C205.974 186.903 205.974 185.907 206.43 185.064C206.772 184.566 207.38 184.336 207.836 183.953C207.304 184.259 206.62 184.451 206.164 184.949Z" fill="#595953"/>
<path opacity="0.4196" d="M182.072 198.169C181.084 198.284 179.222 198.169 177.93 198.093C176.03 198.016 174.206 199.357 172.762 200.009C170.368 200.737 167.784 201.005 165.466 201.733C165.694 201.694 165.884 201.694 166.112 201.656C168.506 201.35 171.014 201.464 173.37 200.813C174.662 200.315 175.498 199.702 176.752 199.434C177.93 199.127 179.146 199.395 180.362 199.319C181.844 199.357 183.44 198.821 184.58 198.246C186.138 197.633 187.696 197.403 189.368 197.518C186.86 196.79 184.466 197.556 182.072 198.169Z" fill="#595953"/>
<path opacity="0.4196" d="M149.886 203.571C148.822 203.878 146.808 204.146 146.2 204.108C147.416 204.376 148.632 204.261 149.848 204.069C152.964 203.801 156.156 203.724 159.158 202.766C156.08 203.226 152.964 202.996 149.886 203.571Z" fill="#595953"/>
<path opacity="0.4196" d="M136.585 203.151C137.497 203.379 138.41 203.492 139.322 203.53C138.448 203.302 137.421 203.189 136.585 203.151Z" fill="#595953"/>
<path opacity="0.4196" d="M132.862 203.496C133.09 203.496 133.318 203.496 133.508 203.496C133.052 203.381 132.634 203.342 132.178 203.381C131.912 203.342 131.646 203.266 131.38 203.227C129.86 203.151 128.378 203.687 127.124 204.492C128.226 204.032 129.404 203.764 130.582 203.687C130.468 203.726 130.316 203.764 130.202 203.84C130.43 203.764 130.658 203.726 130.924 203.687C132.026 203.649 133.166 203.726 134.268 203.955C134.42 203.955 134.723 204.032 134.647 203.994C134.039 203.802 133.432 203.649 132.862 203.496Z" fill="#595953"/>
<path opacity="0.4196" d="M134.686 203.84C136.472 203.992 138.41 204.182 140.12 203.954C138.334 203.802 136.51 203.612 134.686 203.84Z" fill="#595953"/>
<path opacity="0.4196" d="M146.656 177.478C145.516 177.401 144.375 177.095 143.197 177.21C142.171 177.401 141.26 177.9 140.31 178.206C141.716 177.976 143.122 177.363 144.528 177.823C147.53 178.704 150.532 178.091 153.078 176.367C151.026 177.133 148.898 177.9 146.656 177.478Z" fill="#595953"/>
<path opacity="0.4196" d="M200.805 165.18C199.665 164.911 198.868 165.754 198.032 166.367C196.36 167.478 194.687 167.938 192.635 168.436C191.153 168.896 188.493 167.364 186.251 167.785C184.237 167.9 181.425 169.701 180.437 170.084C180.133 170.084 178.423 169.356 177.473 169.662C174.053 169.969 171.887 171.463 168.695 172C166.339 172.46 164.629 172.46 162.387 173.073C160.373 173.724 158.549 174.873 156.688 175.87C158.625 175.257 161.057 174.222 162.767 173.992C165.693 173.762 168.657 174.107 171.545 173.494C172.799 173.226 173.977 172.498 174.775 172.306C175.839 172.115 177.321 171.846 178.157 171.617C179.031 171.77 179.753 172.115 180.171 172.191C181.159 172.421 182.033 171.732 182.869 171.387C183.401 171.195 185.035 170.429 185.643 170.199C187.353 169.662 188.455 169.969 190.393 170.237C191.837 170.505 193.13 169.854 194.46 169.356C196.588 168.705 198.298 167.249 199.932 165.793C201.11 165.448 202.553 165.716 203.617 165.793C202.705 165.524 201.755 165.256 200.805 165.18Z" fill="#595953"/>
<path opacity="0.4196" d="M214.486 162.305C212.852 162.19 211.256 162.688 209.774 163.301C208.558 163.761 207.342 164.642 207.38 166.06C207.57 164.719 208.824 164.068 210.002 163.723C211.408 163.263 212.776 162.688 214.258 162.497C214.676 162.458 215.208 162.497 215.588 162.497C215.208 162.42 214.866 162.343 214.486 162.305Z" fill="#595953"/>
<path opacity="0.4196" d="M215.512 162.304C218.438 162.611 221.592 161.653 224.024 160.657C221.212 161.116 218.4 161.998 215.512 162.304Z" fill="#595953"/>
<path opacity="0.4196" d="M252.676 155.217C251.992 155.064 251.232 155.141 250.548 155.102C246.634 157.976 242.15 158.972 237.4 158.972C233.182 158.244 227.254 158.781 222.732 160.39C227.292 159.624 232.384 159.777 236.526 160.467C240.972 160.85 245.874 159.547 249.37 156.673C249.826 156.29 250.206 155.792 250.7 155.409C251.232 155.37 251.764 155.294 252.296 155.256C252.562 155.256 253.398 155.371 252.676 155.217Z" fill="#595953"/>
<path opacity="0.4196" d="M193.206 150.619C191.8 151.5 190.584 152.803 189.178 153.454C185.34 154.987 181.806 154.604 177.74 155.906C175.194 156.788 172.876 158.972 170.748 160.083C167.822 161.117 164.212 162.267 160.868 162.19C164.478 162.842 168.278 162.382 171.736 161.194C173.902 160.198 176.448 158.129 178.158 157.516C181.92 156.213 186.138 156.251 189.634 154.144C191.154 153.109 192.218 151.538 193.586 150.312C193.472 150.427 193.358 150.542 193.206 150.619Z" fill="#595953"/>
<path opacity="0.4196" d="M199.362 146.021C198.032 146.29 197.044 147.286 195.98 148.052C197.12 147.554 198.146 146.711 199.4 146.481C200.73 146.251 202.174 146.366 203.504 145.907C202.136 146.098 200.73 145.792 199.362 146.021Z" fill="#595953"/>
<path opacity="0.4196" d="M223.15 142.075C222.162 142.535 221.212 143.301 220.414 143.569C217.678 144.22 214.448 144.221 211.37 144.68C209.052 145.025 206.81 145.906 204.53 146.481C206.924 146.328 209.128 145.753 211.408 145.638C214.486 145.485 217.754 145.6 220.718 144.68C222.086 144.106 222.77 143.186 224.024 142.573C225.696 141.807 227.444 141.807 229.154 141.577C227.102 141.462 225.012 141.232 223.15 142.075Z" fill="#595953"/>
<path opacity="0.4196" d="M236.26 141.92C234.246 141.92 232.384 141.307 230.446 140.541C234.512 143.299 240.478 143.453 244.734 142.035C241.922 142.456 239.072 142.15 236.26 141.92Z" fill="#595953"/>
<path opacity="0.4196" d="M179.107 141.078C176.181 143.147 173.825 145.944 170.899 147.974C174.129 146.48 176.903 144.028 179.525 142.074C182.223 140.541 185.947 140.196 189.025 138.932C185.681 139.622 182.147 139.507 179.107 141.078Z" fill="#595953"/>
<path opacity="0.4196" d="M200.084 133.147C197.272 134.067 194.916 135.906 192.218 137.094C195.106 136.404 198.488 134.565 200.996 134.22C205.974 133.837 212.434 133.569 217.754 131.998C211.864 132.611 205.86 131.845 200.084 133.147Z" fill="#595953"/>
<path opacity="0.4196" d="M229.876 127.245C227.976 127.82 226.418 129.161 224.404 129.353C226.494 129.506 228.242 128.318 230.142 127.705C231.396 127.475 232.65 127.858 233.79 128.165C232.612 127.552 231.244 126.977 229.876 127.245Z" fill="#595953"/>
<path opacity="0.4196" d="M232.46 127.169C234.55 127.821 236.716 128.165 238.882 128.357C236.754 127.706 234.512 127.361 232.46 127.169Z" fill="#595953"/>
</svg>
