<svg width="400" height="400" viewBox="0 0 400 400" fill="none" xmlns="http://www.w3.org/2000/svg">
<path d="M206.977 245.92C206.977 245.92 206.434 284.837 207.311 298.507C207.311 298.507 202.569 306.007 191.805 299.935C191.805 299.935 195.015 264.823 194.473 247.46C194.473 247.46 199.023 239.106 206.977 245.92Z" fill="#40313C"/>
<path d="M198.548 243.733C195.899 244.843 194.473 247.46 194.473 247.46C195.015 264.823 191.805 299.936 191.805 299.936C193.842 301.082 195.659 301.747 197.272 302.066L198.548 243.733Z" fill="#40313C"/>
<path d="M126.133 246.41C125.976 246.177 126.097 245.692 126.37 245.751C127.519 246.021 128.662 246.305 129.806 246.619C135.222 246.488 140.576 244.92 145.317 241.193C146.536 240.231 147.893 239.133 149.29 237.924C144.33 239.157 139.2 239.119 135.176 238.182C134.858 238.093 134.731 237.407 135.13 237.34C137.509 236.813 139.883 236.29 142.24 235.682C138.45 235.122 135.044 233.254 132.902 229.158C132.73 228.844 133.048 228.523 133.272 228.574C135.939 229.34 138.771 229.624 141.668 229.573C148.408 227.057 156.241 220.452 160.265 215.522C160.963 214.681 161.611 213.794 162.234 212.875C156.769 212.007 150.439 209.789 147.513 204.277C146.981 203.278 147.553 201.56 148.6 202.083C149.182 202.364 149.778 202.624 150.366 202.862C150.908 202.962 151.445 203.045 151.979 203.082C156.34 202.951 161.093 201.424 165.298 198.996C163.461 198.865 161.705 198.254 160.095 197.059C159.305 196.812 158.536 196.386 157.832 195.671C157.659 195.502 157.711 195.023 157.964 195.049C157.913 194.985 157.848 194.937 157.791 194.867C157.63 194.658 157.781 194.246 158.01 194.283C160.009 194.573 161.856 194.492 163.596 194.12C165.559 193.107 167.415 191.51 169.152 189.768C164.567 190.39 159.941 190.157 156.537 188.008C156.324 188.046 156.092 188.097 155.885 188.11C155.332 188.161 155.07 187.537 155.121 186.928C154.862 186.695 154.574 186.462 154.336 186.191C154.064 185.889 154.18 185.331 154.555 185.318C155.485 185.254 156.537 185.216 157.622 185.179C163.269 182.947 168.375 178.805 173.359 174.694C177.149 171.557 179.706 167.95 181.917 163.889C175.935 165.108 169.529 164.29 165.451 162.385C165.198 162.278 165.174 161.927 165.3 161.694C165.311 161.681 165.311 161.657 165.325 161.643C165.365 161.582 165.43 161.536 165.492 161.512H165.503H165.508C165.532 161.488 165.554 161.461 165.589 161.461C165.64 161.461 165.686 161.448 165.735 161.448C170.169 160.668 174.514 155.826 178.077 152.584C179.139 151.617 180.11 150.572 181.062 149.535C174.611 154.256 166.937 157.506 162.541 152.702C162.358 152.507 162.358 152.016 162.652 151.973C185.116 147.341 197.245 121.876 204.962 95.9214C205.312 94.7398 206.798 94.6085 206.955 96.0339C207.017 96.6314 207.041 97.2289 207.082 97.8264C207.751 97.5504 208.651 98.0327 208.837 99.0455C211.227 111.775 213.504 133.071 225.384 136.937C225.643 137.02 225.511 137.51 225.263 137.446C223.324 136.982 221.382 135.836 219.505 134.201C224.246 141.168 231.056 149.444 238.258 150.106C238.865 150.17 238.808 151.363 238.201 151.352C233.009 151.288 228.354 149.886 224.074 147.191C227.434 152.56 231.617 157.166 236.421 160.02C237.206 160.496 236.85 162.069 235.976 161.753C230.819 159.824 225.91 156.555 221.902 151.821C222.288 152.662 222.676 153.519 223.127 154.347C223.548 155.033 223.966 155.725 224.362 156.435C228.85 163.613 235.272 168.334 242.393 169.384C243.188 169.515 243.08 170.911 242.322 170.994C239.787 171.289 237.303 171.12 234.924 170.509C239.053 174.25 243.992 177.117 248.512 176.104C249.079 175.972 249.246 177.028 248.698 177.248C241.883 179.812 236.097 177.58 230.218 173.226C237.246 183.461 246.026 190.846 257.639 190.738C258.141 190.738 258.389 191.373 258.343 191.933C259.142 191.858 259.568 193.321 258.772 193.849C252.051 198.275 244.796 199.103 237.651 197.589C238.333 198.313 239.018 199.028 239.712 199.69C246.168 205.882 253.335 210.394 261.294 211.911C261.699 211.98 261.917 212.363 261.976 212.765C262.745 212.797 263.514 212.835 264.274 212.872C265.399 212.91 265.529 215.115 264.425 215.455C256.242 217.931 247.342 217.982 239.043 215.335C239.62 216.447 240.221 217.516 240.82 218.59C240.96 218.722 241.092 218.885 241.225 219.019C245.788 223.544 251.458 224.857 256.269 228.737C256.698 229.077 256.356 230.007 255.894 229.774C252.013 227.882 248.021 226.612 244.286 224.38C245.875 226.869 247.544 229.297 249.34 231.679C254.608 238.664 262.456 248.626 270.017 250.04C270.588 250.153 270.858 250.689 270.882 251.246C271.964 250.807 273.008 250.298 274 249.588C274.553 249.172 275.214 250.102 274.826 250.788C270.915 257.91 260.555 257.055 254.745 256.345C251.776 256.005 247.924 254.995 244.143 253.347C246.87 256.112 250.166 258.054 253.227 259.935C253.78 260.286 253.526 261.481 252.914 261.173C251.638 260.576 250.379 259.978 249.119 259.357C254.422 264.284 260.733 267.282 267.155 268.477C267.247 268.491 267.322 268.541 267.387 268.576C267.948 268.407 268.501 268.273 269.032 268.054C269.623 267.834 269.857 268.927 269.375 269.305C256.485 279.462 238.835 275.792 226.347 264.332C228.028 266.821 229.87 269.085 232.308 270.133C232.613 270.272 232.677 270.717 232.58 271.076C234.77 271.963 236.974 272.893 239.175 274.01C240.105 274.5 239.919 276.657 238.822 276.438C230.735 274.841 222.415 273.721 215.224 268.327C212.457 266.253 209.881 263.708 207.492 260.841C208.989 264.161 210.69 267.379 212.527 270.296C212.684 270.521 212.417 270.87 212.244 270.623C208.565 265.393 204.309 259.844 201.992 253.199C202.054 255.161 202.124 257.098 202.27 259.027C202.634 264.281 202.483 270.511 203.875 275.736C204.592 277.539 205.302 279.355 206.213 281.027C206.31 281.234 206.202 281.611 205.976 281.48C203.424 280.084 201.979 278.072 200.242 275.232C197.361 270.524 193.704 266.864 190.931 261.974C190.394 261.05 189.863 260.026 189.343 258.952C189.828 261.688 190.516 264.281 191.503 266.527C191.635 266.853 191.266 267.097 191.123 266.797C189.183 262.832 188.072 259.003 187.357 254.577C182.91 262.553 177.286 268.097 171.463 274.49C171.245 274.723 170.983 274.332 171.175 274.074C171.641 273.426 172.051 272.735 172.496 272.051C171.595 273.126 170.684 274.171 169.759 275.232C169.516 275.513 169.211 275.125 169.349 274.779C171.439 269.675 173.2 264.603 174.657 259.391C161.743 264.967 144.654 269.913 134.167 259C133.666 258.478 133.822 257.052 134.623 257.208C135.721 257.427 136.881 257.623 138.084 257.792C141.277 257.829 144.287 257.157 147.213 255.876C139.936 256.273 132.867 254.574 127.756 248.516C127.214 248.127 126.688 247.712 126.173 247.208C125.981 247.04 126.041 246.648 126.259 246.56C126.208 246.512 126.168 246.472 126.133 246.41Z" fill="#4B5E48"/>
<path d="M248.698 177.253C241.883 179.817 236.097 177.585 230.217 173.232C232.925 177.173 235.906 180.68 239.199 183.515C240.812 184.916 242.508 186.135 244.288 187.175C243.272 186.966 242.284 186.722 241.359 186.489C238.403 185.747 235.463 184.648 232.707 183.062C230.004 181.489 224.408 176.436 222.051 174.022C223.574 180.522 229.19 189.56 228.664 189.107C222.525 183.788 220.573 180.519 217.455 174.354C217.091 182.933 217.94 191.596 216.975 200.183C216.883 201.019 217.328 202.863 216.859 202.252C214.803 199.537 206.92 177.277 205.741 174.769C203.934 180.948 198.372 192.231 198.238 191.703C197.072 186.786 197.944 181.463 198.37 176.326C194.712 180.128 184.782 184.718 185.521 183.863C192.207 176.227 198.688 165.936 199.969 154.069C200.066 153.094 201.952 164.926 202.394 170.726C205.714 165.043 207.141 149.707 207.475 150.497C210.593 157.764 212.166 165.909 214.863 173.422C215.936 167.658 214.186 153.729 214.712 154.337C216.473 156.386 217.916 158.763 219.475 161.07C220.804 163.055 222.409 164.652 224.055 166.169C222.142 162.289 219.162 153.094 219.434 153.584C221.97 158.399 226.236 161.742 230.824 163.95C231.847 164.818 232.915 165.598 234.023 166.276C236.639 167.873 239.452 168.961 242.387 169.387C243.183 169.518 243.075 170.914 242.317 170.997C239.782 171.292 237.297 171.123 234.919 170.512C239.048 174.252 243.986 177.119 248.507 176.106C249.079 175.975 249.246 177.034 248.698 177.253Z" fill="#556A52"/>
<path d="M238.199 151.355C238.042 151.355 237.891 151.317 237.732 151.317C237.495 151.21 237.246 151.135 237.015 151.009C236.899 151.047 236.766 151.073 236.629 151.047C229.438 149.927 223.041 144.013 216.969 138.928C218.078 140.913 219.596 142.599 220.861 144.195C221.382 144.844 220.913 146.283 220.163 146.125C215.61 145.117 211.405 141.071 208.182 136.514C208.471 138.826 208.978 141.085 209.078 143.44C209.123 144.439 208.039 144.868 207.6 144.169C205.677 141.012 204.73 137.267 203.419 133.708C201.941 137.462 200.889 141.353 198.764 144.67C198.319 145.361 197.499 145.109 197.488 144.128C197.464 141.205 197.777 138.328 197.99 135.41C195.247 137.007 192.787 139.482 190.697 142.261C190.079 143.078 189.194 141.776 189.796 140.959C194.162 135.177 196.247 127.444 199.497 120.668C199.781 120.071 200.59 120.191 200.657 120.931C200.865 122.836 201.021 124.703 201.442 126.506C202.858 123.629 203.314 120.617 203.462 117.064C203.503 116.261 204.287 115.883 204.687 116.48C206.286 118.876 207.424 121.692 208.897 124.175C208.417 118.482 207.268 112.949 206.893 107.228C206.629 103.263 206.518 99.252 206.621 95.2544C206.788 95.4125 206.909 95.6831 206.95 96.0341C207.012 96.6316 207.036 97.2291 207.076 97.8266C207.354 97.7194 207.683 97.7516 207.972 97.8882C208.371 98.0704 208.73 98.4616 208.832 99.0457C211.222 111.775 213.498 133.071 225.379 136.937C225.638 137.02 225.506 137.51 225.258 137.446C223.318 136.983 221.377 135.836 219.499 134.201C222.064 137.947 225.228 142.09 228.729 145.214C231.68 147.847 234.878 149.763 238.153 150.093C238.188 150.093 238.217 150.106 238.25 150.106C238.406 150.13 238.517 150.213 238.579 150.353C238.787 150.72 238.649 151.355 238.199 151.355Z" fill="#556A52"/>
<path d="M161.53 226.157C164.464 225.265 167.248 224.592 169.966 223.705C172.79 220.683 175.978 218.438 178.826 215.426C181.796 212.289 183.633 207.656 186.624 204.752C187.166 204.229 187.986 204.583 187.951 205.569C187.87 207.554 187.859 207.554 187.541 209.51C187.247 211.303 186.125 216.838 188.736 212.495C189.92 210.534 190.637 208.264 192.102 206.592C192.447 206.214 192.892 206.373 193.129 206.839C194.551 209.73 193.615 212.899 193.24 216.066C195.02 212.615 195.84 208.487 197.785 205.092C198.079 204.583 198.656 204.569 198.893 205.156C200.59 209.256 200.239 213.95 199.98 218.531C201.215 214.413 202.014 210.108 203.163 205.877C203.341 205.204 204.047 205.116 204.295 205.751C206.442 211.214 207.057 217.374 208.562 223.143C209.024 216.894 208.694 210.678 208.597 204.398C208.592 203.688 209.396 203.273 209.717 203.846C214.447 212.508 218.253 221.875 221.344 231.725C221.077 223.603 220.206 215.557 218.838 207.643C218.701 206.825 219.507 206.265 219.931 206.887C223.297 211.884 226.382 217.02 230.379 221.213C233.47 224.469 236.685 227.556 239.881 230.656C238.096 227.689 236.168 224.935 234.7 221.567C232.362 216.179 229.255 211.12 227.453 205.376C227.302 204.885 227.701 204.205 228.081 204.61C231.639 208.476 234.884 212.744 238.743 216.093C239.137 216.425 239.563 216.728 239.973 217.05C240.256 217.559 240.534 218.081 240.823 218.596C240.963 218.727 241.095 218.89 241.227 219.024C241.424 219.207 241.626 219.365 241.815 219.547C246.274 223.633 251.668 225.021 256.272 228.745C256.701 229.085 256.358 230.015 255.897 229.782C252.016 227.89 248.024 226.62 244.289 224.388C245.877 226.878 247.547 229.305 249.343 231.687C253.715 237.488 259.865 245.314 266.154 248.621C267.443 249.306 268.73 249.816 270.019 250.046C270.106 250.07 270.17 250.11 270.243 250.148C261.793 252.833 251.93 249.191 244.693 244.328C241.333 242.083 238.139 239.331 235.261 236.151C234.164 234.945 233.125 233.648 232.103 232.327C231.469 231.548 230.873 230.693 230.342 229.793L229.851 231.818C230.129 233.158 230.493 234.466 230.93 235.722C232.321 240.014 233.897 244.184 235.96 247.975C238.379 252.439 241.551 256.077 244.081 260.426C244.577 261.281 243.741 262.269 243.14 261.551C237.624 255.051 230.22 252.436 223.798 247.878C218.844 244.339 214.569 238.953 211.82 232.453C212.589 238.23 214.731 243.674 215.418 249.513C215.524 250.381 214.696 251.072 214.224 250.343C211.729 246.49 210.251 241.928 208.557 237.413C206.952 233.131 205.582 227.756 203.187 224.048C201.339 230.109 200.808 237.381 196.868 241.794C196.463 242.246 195.781 242.04 195.684 241.303C195.147 237.292 196.954 230.39 195.319 226.631C193.828 230.768 191.889 235.168 188.401 236.451C188.056 236.577 187.576 236.218 187.546 235.722C187.258 231.869 188.736 228.694 189.672 225.233C188.32 226.993 186.923 228.641 185.248 229.954C184.787 230.305 184.404 229.651 184.498 229.099C184.798 227.025 185.389 225.246 186.082 223.336C187.433 219.563 186.902 220.552 184.873 222.639C182.263 225.324 179.884 227.467 176.528 227.882C176.31 227.906 176.032 227.606 176.221 227.298C177.683 224.908 179.142 222.639 180.234 220.008C174.697 224.898 168.291 227.998 161.592 227.022C161.22 226.961 161.149 226.277 161.53 226.157Z" fill="#556A52"/>
<path opacity="0.4" d="M222.782 188.63C223.383 189.289 223.987 189.913 224.594 190.548C226.218 192.038 227.904 193.313 229.619 194.559C227.626 192.911 225.646 191.253 223.82 189.109C223.763 189.034 223.861 188.903 223.925 188.978C226.679 191.706 229.746 193.573 232.802 195.636C236.025 197.817 238.617 201.006 241.632 203.65C244.844 206.48 248.413 208.39 252.102 209.856C253.807 210.528 255.684 210.893 257.467 211.426C259.228 211.79 261.024 212.074 262.842 212.219C263.02 212.232 263.034 212.589 262.872 212.621C262.23 212.803 261.585 212.915 260.938 213.036C261.1 213.307 260.914 213.759 260.639 213.759C258.883 213.81 257.081 213.684 255.285 213.382C242.589 212.607 229.7 202.024 222.347 189.294C222.142 188.925 222.466 188.303 222.782 188.63Z" fill="#64781C"/>
</svg>
