<svg width="579" height="340" viewBox="0 0 579 340" fill="none" xmlns="http://www.w3.org/2000/svg">
<path d="M63.8268 11.8085C75.2038 22.7397 82.8662 37.4778 85.2691 53.0605C85.9679 57.5774 86.5074 62.6819 90.1117 65.5096C94.5253 68.986 101.133 67.0152 105.718 63.7714C119.143 54.2724 125.408 35.6049 140.843 29.9374C144.079 28.75 147.622 28.1869 150.442 26.2161C153.262 24.2331 155.015 20.0589 152.931 17.3047C150.724 14.3914 146.261 15.1136 142.706 15.9337C122.441 20.5608 100.667 18.3574 81.7383 9.75206C78.1462 8.12401 74.505 6.22666 70.5574 6.15322C66.622 6.07977 61.2154 9.31139 63.8268 11.8085Z" fill="url(#paint0_linear_4847_341527)"/>
<path d="M89.2416 277.436C86.8019 270.594 84.779 263.592 83.1853 256.504C81.9838 251.167 81.0153 245.769 80.4881 240.322C80.0345 235.597 80.5249 229.733 84.8281 227.726C87.7091 226.379 91.1909 227.457 93.7654 229.329C96.3277 231.202 98.2771 233.773 100.619 235.927C105.265 240.187 111.248 242.586 116.765 245.634C122.282 248.682 127.713 252.82 129.687 258.793C114.791 258.463 99.834 264.706 89.2416 277.436Z" fill="url(#paint1_linear_4847_341527)"/>
<path d="M63.6558 308.186C68.1551 298.92 72.6667 289.653 77.1661 280.387C78.2694 278.11 79.4218 275.772 81.2976 274.071C83.1733 272.369 85.9686 271.427 88.2979 272.406C90.4679 273.324 91.7184 275.687 92.0862 278.012C92.454 280.338 92.0862 282.701 91.9391 285.051C91.3874 294.121 94.1949 303.363 99.724 310.586C100.913 312.14 102.25 313.658 102.838 315.519C103.426 317.379 103.034 319.742 101.342 320.746C100.178 321.443 98.7187 321.321 97.3702 321.186C89.1929 320.354 81.0156 319.534 72.8384 318.701C69.6508 318.383 66.2549 317.967 63.8152 315.898C61.3877 313.842 60.6644 309.484 63.6558 308.186Z" fill="url(#paint2_linear_4847_341527)"/>
<path d="M454.695 16.5341C453.371 20.7449 456.336 27.6847 459.511 30.7449C462.686 33.8174 466.634 36.033 469.601 39.3013C475.645 45.9726 476.564 55.6552 477.938 64.5544C480.843 83.3687 487.157 101.657 496.474 118.255C507.165 110.005 507.913 94.5937 509.948 81.2633C513.221 59.8294 522.269 39.3013 535.877 22.4088C537.814 19.9973 539.886 16.5087 537.876 14.1462C536.576 12.6161 534.259 12.6038 532.261 12.714C506.932 14.0727 481.066 13.0209 454.695 16.5341Z" fill="url(#paint3_linear_4847_341527)"/>
<path d="M513.135 212.559C515.121 217.97 513.417 224.188 510.107 228.913C506.809 233.638 502.101 237.176 497.467 240.628C487.88 247.777 478.28 254.925 468.693 262.086C466.989 263.359 465.162 264.792 464.623 266.86C463.875 269.737 466.033 272.711 468.742 273.96C471.452 275.196 474.541 275.147 477.52 275.16C496.535 275.209 515.538 278.563 533.413 285.063C537.078 286.397 541.308 287.829 544.704 285.907C549.473 283.214 548.995 276.2 547.168 271.034C544.557 263.641 540.548 256.835 536.576 250.078C528.926 237.066 521.263 224.054 513.613 211.042C513.11 211.739 512.62 212.449 513.135 212.559Z" fill="url(#paint4_linear_4847_341527)"/>
<path d="M3.74203 4.03547C3.74203 4.03547 3.09226 7.1202 3.76655 7.74449C9.19762 12.8734 18.3189 23.0824 28.8746 33.2546C38.3514 42.3741 38.8295 60.0501 32.2705 71.4586C25.0985 83.9321 16.2225 93.321 10.7669 105.293C-2.20396 133.79 -3.83451 178.836 7.94713 207.847C15.4869 226.429 31.4859 231.729 34.9677 251.474C37.2235 264.241 26.5697 283.46 19.1403 298.112C15.0455 306.179 12.52 312.997 11.4657 316.045C11.0856 317.147 11.8212 317.747 11.8212 317.747L65.3964 315.972C65.3964 315.972 73.5982 304.747 74.9958 302.347C81.6038 290.927 89.5604 277.89 91.2645 264.817C93.1525 250.299 89.352 235.855 81.3831 223.577C72.1148 209.316 67.7135 198.789 63.2264 184.847C56.0422 162.507 58.0528 134.083 70.7049 109.663C80.0713 91.5827 97.2841 73.001 98.2281 52.6688C98.5959 44.6387 92.3802 32.1774 85.1469 22.654C77.9136 13.1183 70.5823 6.21437 70.5823 6.21437L3.74203 4.03547Z" fill="url(#paint5_diamond_4847_341527)"/>
<path d="M62.1843 313.682C63.7904 315.396 63.5697 315.286 65.1757 316.999C72.5929 306.338 80.0713 295.59 85.2204 283.655C90.3695 271.732 93.079 258.402 90.5534 245.659C87.5743 230.652 77.791 218.056 71.0359 204.334C62.1966 186.389 58.5677 167.219 60.4925 147.328C62.4173 127.436 69.8712 106.822 81.9839 90.8969C88.3835 82.4751 93.8636 73.6494 97.1492 64.0525C101.563 51.1261 97.7499 38.9096 86.3483 23.8043C81.0644 16.8025 76.6141 11.5633 69.6751 5.87129C69.295 6.82608 69.5157 8.38068 69.1356 9.33548C80.7824 20.8175 91.9633 35.1394 92.7357 51.4566C93.1648 60.6863 89.6953 69.6834 85.0978 77.7012C80.5004 85.719 74.7506 93.0146 70.0183 100.947C54.2032 127.424 50.5621 160.829 60.3086 190.073C67.7871 212.535 86.8142 233.492 87.1575 253.016C87.3536 264.119 84.7791 277.021 79.2622 286.666C73.7208 296.325 68.1181 306.534 62.1843 313.682Z" fill="#8ACF60" stroke="#9FCBD6" stroke-miterlimit="10"/>
<path d="M64.9061 316.4C64.3053 315.384 63.7169 314.368 63.1161 313.34C45.7808 314.711 28.703 316.363 11.3064 316.461C11.478 317.942 11.6987 318.665 11.6987 318.665C11.6987 318.665 49.2871 317.979 64.9061 316.4Z" fill="#8ACF60" stroke="#9FCBD6" stroke-miterlimit="10"/>
<path d="M3.37457 7.22988L3.2765 4.02276L69.749 5.9813L69.3812 9.6291L3.37457 7.22988Z" fill="#8ACF60" stroke="#9FCBD6" stroke-miterlimit="10"/>
<path d="M36.2551 109.822C32.6508 114.706 31.1796 121.096 32.2707 127.057C32.6017 128.857 33.3128 130.815 34.9801 131.586C36.3164 132.211 37.9225 131.88 39.2343 131.207C41.6494 129.971 43.4026 127.706 44.5182 125.246C45.6338 122.785 46.1855 120.117 46.7372 117.46C47.2399 115.037 47.7057 112.417 46.6269 110.189C45.6706 108.231 43.4884 106.921 41.3062 107.007C39.1117 107.104 37.1256 108.622 36.2551 109.822Z" fill="url(#paint6_linear_4847_341527)"/>
<path d="M104.296 328.616C84.7788 328.224 65.249 327.82 45.7314 327.429C44.5177 323.573 41.3547 320.39 37.5174 319.129C44.3215 317.954 51.2851 317.734 58.1505 318.493C60.6025 318.762 63.1893 319.141 65.4819 318.223C68.9514 316.828 70.6555 312.96 73.5488 310.585C77.5455 307.305 83.516 307.304 88.236 309.41C92.9683 311.503 96.6707 315.347 99.9809 319.337C102.212 322.03 104.443 325.188 104.296 328.616Z" fill="#85B767"/>
<path d="M13.0473 318.615L15.2295 321.173L66.0708 319.9L65.1636 316.461L13.0473 318.615Z" fill="#8ACF5F" stroke="#9FCBD6" stroke-miterlimit="10"/>
<path d="M104.432 328.824C104.432 328.824 106.565 324.943 106.712 324.98C104.039 321.063 101.342 317.109 97.983 313.755C94.6115 310.401 90.5045 307.659 85.8581 306.643C77.7544 304.881 70.0062 309.055 65.0165 316.595C65.5191 317.758 65.703 318.933 66.2057 320.096C68.0201 317.489 71.1586 314.257 73.6964 312.348C76.0993 310.536 78.2325 309.985 81.2239 309.63C85.6006 309.116 89.9651 311.087 93.2875 313.976C96.6099 316.864 99.0496 320.598 101.452 324.27C102.347 325.666 103.242 327.049 104.432 328.824Z" fill="#8ACF5F" stroke="#9FCBD6" stroke-miterlimit="10"/>
<path d="M93.9009 299.14C97.7627 293.827 104.788 291.587 111.359 291.783C117.93 291.979 124.244 294.231 130.46 296.361C262.402 322.502 284.436 276.714 306.469 278.435C347.344 276.599 348.033 318.997 449.25 315.249C490.161 314.502 534.235 318.15 569.702 338.543C574.729 327.502 573.589 309.483 571.333 301.404C570.095 296.985 562.273 293.656 558.718 291.355C544.619 282.235 529.221 276.2 512.511 274.523C495.801 272.846 478.968 274.964 462.27 276.714C407.058 282.508 345.529 260.908 304.967 240.877C263.404 257.903 191.841 274.601 140.464 265.587C132.188 264.131 123.778 260.14 115.417 261.083C107.068 262.025 96.7697 265.245 92.3194 272.369C87.8691 279.481 90.6275 293.191 93.9009 299.14Z" fill="url(#paint7_diamond_4847_341527)"/>
<path d="M107.154 325.653C107.154 325.653 110.353 323.866 110.562 322.397C103.758 312.776 96.4263 302.983 93.5943 292.848C90.7623 282.712 88.3594 272.718 97.4439 267.418C105.069 262.962 120.713 262.747 129.981 265.024C161.808 272.846 228.851 274.047 250.383 267.418C269.913 261.405 288.179 242.379 304.466 242.379C314.982 242.379 347.532 278.435 401.615 279.436C455.698 280.438 469.719 278.435 476.229 278.435C490.887 278.435 496.99 275.747 512.339 276.445C524.611 276.996 554.782 287.351 569.85 300.033C569.85 300.033 575.342 300.364 573.589 298.638C561.035 286.017 531.391 273.397 509.519 271.597C491.804 270.128 472.188 272.001 443.831 272.736C410.706 273.593 331.951 225.497 298.457 226.856C288.392 227.26 240.368 260.189 197.302 265.024C172.264 267.835 157.872 265.024 130.987 260.507C123.876 259.307 112.168 257.765 103.243 260.189C94.3176 262.612 87.4522 273.091 87.4031 282.21C87.3786 287.841 87.869 291.366 89.7693 296.667C91.6695 301.967 94.5628 306.851 97.4439 311.699C100.227 316.399 104.346 321.822 107.154 325.653Z" fill="#8ACF5F" stroke="#9FCBD6" stroke-miterlimit="10"/>
<path d="M569.568 338.849L575.465 337.087L573.834 299.274L569.702 299.801L569.568 338.849Z" fill="#8ACF5F" stroke="#9FCBD6" stroke-miterlimit="10"/>
<path d="M168.87 284.854C167.325 285.76 167.521 288.282 168.232 289.922C169.176 292.101 171.481 293.313 173.614 294.366C176.581 295.822 179.671 297.316 182.981 297.389C186.291 297.463 189.883 295.675 190.803 292.505C191.501 290.106 191.06 287.254 189.515 285.283C187.934 283.263 180.1 278.306 168.87 284.854Z" fill="url(#paint8_linear_4847_341527)"/>
<path d="M427.906 290.032C426.251 292.383 426.901 296.043 429.279 297.683C431.915 299.495 436.182 298.834 439.296 298.124C442.679 297.353 448.405 295.688 446.884 292.885C442.79 285.381 429.561 287.67 427.906 290.032Z" fill="url(#paint9_linear_4847_341527)"/>
<path d="M574.066 337.123L578.492 336.267L577.806 295.994L573.318 299.262L574.066 337.123Z" fill="#8ACF5F" stroke="#9FCBD6" stroke-miterlimit="10"/>
<path d="M566.919 290.437C558.534 278.735 554.99 264.168 554.132 249.797C553.286 235.438 561.758 220.671 562.861 206.324C565.669 169.785 564.796 133.037 560.358 96.6567C559.07 86.105 550.724 75.6328 553.078 65.2769C555.432 54.9089 561.929 48.5803 573.147 42.7414C573.147 42.7414 551.484 7.34052 551.386 9.32356C533.327 6.66727 517.488 24.1106 509.911 40.6849C502.335 57.2591 509.78 78.6291 515.789 96.6567C534.318 140.223 536.321 171.772 528.309 212.334C525.638 225.854 520.246 240.629 525.506 252.441C533.352 270.08 548.91 284.121 566.919 290.437Z" fill="url(#paint10_radial_4847_341527)"/>
<path d="M552.367 10.0454L551.165 5.5407C551.165 5.5407 539.813 8.88248 529.306 13.228C520.688 16.7901 513.54 23.8042 509.58 30.2797C499 47.6251 497.261 55.5937 501.768 74.6228C512.284 106.672 523.342 137.444 525.805 165.261C527.364 182.868 525.064 200.816 521.298 222.349C518.709 237.147 518.947 249.393 525.064 260.201C535.412 278.465 554.451 289.935 573.307 299.189C573.307 299.189 579.032 296.63 577.732 295.994C559.183 286.005 537.79 273.532 527.639 255.085C521.362 243.676 524.398 228.95 527.639 216.34C533.817 192.303 534.597 174.612 531.814 149.237C529.35 126.824 513.786 95.655 508.779 71.6182C505.392 55.363 507.092 43.5978 515.306 31.0508C523.52 18.5039 538.967 11.7346 552.367 10.0454Z" fill="#8ACF5F" stroke="#9FCBD6" stroke-miterlimit="10"/>
<path d="M539.07 213.957C539.291 214.814 541.89 216.822 542.772 216.748C543.569 216.675 544.146 215.965 544.562 215.279C547.456 210.518 547.603 204.52 546.463 199.072C546.254 198.069 545.997 197.053 545.408 196.22C544.82 195.388 543.851 194.739 542.834 194.812C541.117 194.935 540.173 196.832 539.634 198.473C538.702 201.337 537.66 204.336 537.844 207.347C538.04 210.334 538.849 213.1 539.07 213.957Z" fill="url(#paint11_linear_4847_341527)"/>
<path d="M525.97 100.887C526.252 104.314 529.391 108.133 532.775 107.485C536.171 106.836 537.397 102.172 536.857 98.7691C536.318 95.3662 535.962 92.1223 533.412 89.7965C532.738 89.1845 531.095 87.9726 530.237 87.6911C529.366 87.4095 527.405 88.4255 526.767 89.0621C526.13 89.6986 526.019 90.6779 525.97 91.5715C525.774 94.7051 525.725 97.8511 525.97 100.887Z" fill="url(#paint12_linear_4847_341527)"/>
<path d="M3.56991 4.21857L3.70477 0.509569L69.5888 1.73366L69.8462 6.23833L3.56991 4.21857Z" fill="#8ACF5F" stroke="#9FCBD6" stroke-miterlimit="10"/>
<path d="M551.116 5.83447C551.116 5.83447 549.522 2.46821 548.247 3.68007C504.811 19.5076 451.69 1.01049 402.115 3.68007C303.464 6.12826 314.463 50.8301 298.456 50.0856C267.909 48.6648 289.442 1.90191 164.752 6.01815C133.203 7.05961 123.188 16.4719 97.9334 13.0321C89.7807 11.5265 78.6243 6.29963 71.1213 2.35804C70.4225 1.99081 69.454 1.73375 69.5889 1.79496C69.5889 1.79496 69.6502 6.23842 69.736 6.12826C75.2897 10.4493 81.8486 13.9135 88.4076 16.4719C100.618 21.2336 114.031 22.0292 128.399 20.5971C276.923 -2.49487 283.55 71.5595 300.459 73.6216C320.991 76.1254 303.464 3.68007 443.72 14.2807C464.452 17.341 484.95 19.7647 506.772 17.6959C524.892 15.9822 549.865 6.2629 551.116 5.83447Z" fill="#8ACF5F" stroke="#9FCBD6" stroke-miterlimit="10"/>
<path d="M110.905 33.8785C125.923 23.388 144.789 18.8711 163.119 18.6508C293.449 17.0839 277.425 77.1266 301.962 77.1266C319.99 77.1266 301.962 3.32474 439.638 17.0839C452.866 18.4059 467.149 20.4379 476.552 29.8145C485.416 38.6525 494.835 51.2426 496.76 63.6059C506.275 86.1404 512.935 103.231 515.288 123.698C518.39 152.513 522.8 179.283 519.795 209.329C521.291 223.259 510.438 240.53 499.956 254.277C501.513 254.889 503.07 255.513 504.639 256.125C493.176 268.219 475.314 271.243 458.739 273.091C305.968 273.091 313.48 208.178 301.962 212.834C278.426 222.349 289.443 291.107 121.129 252.991C112.805 251.106 104.174 248.903 97.4924 243.86C78.9188 219.488 62.3927 191.334 62.5153 160.719C62.6256 133.74 75.6209 108.658 88.9228 85.1803C97.7989 69.4874 107.165 53.4151 110.905 33.8785Z" fill="#C6F2A7"/>
<path d="M523.301 214.337C530.311 170.77 521.798 123.198 502.269 65.6096C496.259 50.5866 484.722 38.5682 478.733 32.0583C467.215 19.5391 457.214 13.7962 446.124 12.8974C299.458 1.01079 320.49 71.6188 301.461 73.6219C280.93 71.6188 290.945 2.01232 136.209 17.5361C127.84 18.3757 120.419 22.7024 113.369 27.2805C106.32 31.8464 101.98 41.3699 101.342 50.9668C100.521 63.171 84.3627 83.9561 74.984 101.204C67.0396 115.795 61.6698 132.075 60.2722 148.625C59.2056 161.392 60.4561 168.59 62.1235 178.407C66.5738 204.615 81.1629 228.828 97.309 247.973C102.103 253.665 111.432 256.627 120.186 259.051C139.714 262.411 163.751 266.417 217.833 266.417C271.916 266.417 285.898 221.366 300.46 226.856C331.007 238.374 321.492 278.936 468.645 272.993C484.031 269.7 503.348 264.651 511.783 251.394C519.078 239.887 520.797 227.858 523.301 214.337ZM497.259 256.492C487.648 263.58 475.229 265.036 463.459 267.068C325.498 272.993 323.525 213.557 302.463 212.835C272.918 222.85 283.935 280.438 120.149 251.706C115.723 250.813 109.029 249.111 105.413 246.406C101.796 243.701 94.9796 237.592 92.6625 233.761C87.7096 225.584 83.4309 218.729 78.7232 210.405C68.425 192.203 63.9747 175.678 64.9064 154.795C65.8382 133.911 72.7649 111.804 84.6447 94.5935C89.5363 87.506 95.5681 78.8272 99.7609 71.299C106.259 59.6578 106.013 44.3444 111.53 37.1712C118.555 28.0272 128.196 25.5483 136.209 23.0445C148.227 19.9482 158.256 18.9448 168.391 19.483C301.461 26.5499 279.928 82.1349 301.461 82.1349C317.001 82.1349 308.472 12.8974 425.638 17.3164C442.936 19.0179 461.206 27.0506 474.226 38.5682C482.739 47.582 489.617 53.0905 496.76 67.1119C510.281 93.6525 516.902 142.055 519.795 169.769C522.407 194.753 518.794 208.328 515.288 224.853C512.284 234.368 506.859 249.405 497.259 256.492Z" fill="#8ACF60" stroke="#9FCBD6" stroke-miterlimit="10"/>
<defs>
<linearGradient id="paint0_linear_4847_341527" x1="115.362" y1="37.3728" x2="65.3403" y2="5.67074" gradientUnits="userSpaceOnUse">
<stop stop-color="#3E930E"/>
<stop offset="0.1622" stop-color="#378B0C"/>
<stop offset="0.6676" stop-color="#257605"/>
<stop offset="1" stop-color="#1F6E03"/>
</linearGradient>
<linearGradient id="paint1_linear_4847_341527" x1="91.4526" y1="274.8" x2="105.497" y2="245.15" gradientUnits="userSpaceOnUse">
<stop stop-color="#1F6E03"/>
<stop offset="1" stop-color="#3E930E"/>
</linearGradient>
<linearGradient id="paint2_linear_4847_341527" x1="81.6659" y1="318.302" x2="90.6145" y2="269.949" gradientUnits="userSpaceOnUse">
<stop stop-color="#3E930E"/>
<stop offset="1" stop-color="#1F6E03"/>
</linearGradient>
<linearGradient id="paint3_linear_4847_341527" x1="499.595" y1="102.254" x2="496.576" y2="12.6772" gradientUnits="userSpaceOnUse">
<stop stop-color="#1F6E03"/>
<stop offset="0.3296" stop-color="#227204"/>
<stop offset="0.6572" stop-color="#2C7E08"/>
<stop offset="0.9832" stop-color="#3D920E"/>
<stop offset="1" stop-color="#3E930E"/>
</linearGradient>
<linearGradient id="paint4_linear_4847_341527" x1="535.862" y1="277.2" x2="499.662" y2="249.089" gradientUnits="userSpaceOnUse">
<stop stop-color="#1F6E03"/>
<stop offset="0.6226" stop-color="#35890B"/>
<stop offset="1" stop-color="#3E930E"/>
</linearGradient>
<radialGradient id="paint5_diamond_4847_341527" cx="0" cy="0" r="1" gradientUnits="userSpaceOnUse" gradientTransform="translate(49.1218 160.891) rotate(120.22) scale(250.686 78.4613)">
<stop stop-color="#85C259"/>
<stop offset="0.0001" stop-color="#A2DB7A"/>
<stop offset="1" stop-color="#7CB45B"/>
</radialGradient>
<linearGradient id="paint6_linear_4847_341527" x1="29.361" y1="117.806" x2="46.4052" y2="120.712" gradientUnits="userSpaceOnUse">
<stop stop-color="#4BA00F"/>
<stop offset="0.2576" stop-color="#489D0E"/>
<stop offset="0.4447" stop-color="#40940C"/>
<stop offset="0.5832" stop-color="#358709"/>
<stop offset="0.5871" stop-color="#348609"/>
<stop offset="0.6795" stop-color="#287806"/>
<stop offset="0.7944" stop-color="#217004"/>
<stop offset="1" stop-color="#1F6E03"/>
</linearGradient>
<radialGradient id="paint7_diamond_4847_341527" cx="0" cy="0" r="1" gradientUnits="userSpaceOnUse" gradientTransform="translate(331.626 299.742) rotate(131.718) scale(127.916 795.757)">
<stop stop-color="#B0DF8C"/>
<stop offset="1" stop-color="#82B464"/>
</radialGradient>
<linearGradient id="paint8_linear_4847_341527" x1="177.393" y1="296.863" x2="180.974" y2="282.959" gradientUnits="userSpaceOnUse">
<stop stop-color="#4BA00F"/>
<stop offset="0.1971" stop-color="#479B0E"/>
<stop offset="0.4202" stop-color="#3B8E0B"/>
<stop offset="0.4992" stop-color="#358709"/>
<stop offset="0.512" stop-color="#338508"/>
<stop offset="0.6094" stop-color="#287805"/>
<stop offset="0.7363" stop-color="#217004"/>
<stop offset="1" stop-color="#1F6E03"/>
</linearGradient>
<linearGradient id="paint9_linear_4847_341527" x1="437.054" y1="299.304" x2="437.054" y2="287.488" gradientUnits="userSpaceOnUse">
<stop stop-color="#4BA00F"/>
<stop offset="0.4008" stop-color="#378909"/>
<stop offset="0.4319" stop-color="#358709"/>
<stop offset="0.4526" stop-color="#328308"/>
<stop offset="0.5474" stop-color="#277705"/>
<stop offset="0.6771" stop-color="#217003"/>
<stop offset="1" stop-color="#1F6E03"/>
</linearGradient>
<radialGradient id="paint10_radial_4847_341527" cx="0" cy="0" r="1" gradientUnits="userSpaceOnUse" gradientTransform="translate(538.059 149.745) rotate(90) scale(140.692 35.088)">
<stop stop-color="#A2DB7A"/>
<stop offset="1" stop-color="#7FB75D"/>
</radialGradient>
<linearGradient id="paint11_linear_4847_341527" x1="547.57" y1="206.338" x2="537.322" y2="205.078" gradientUnits="userSpaceOnUse">
<stop stop-color="#4BA00F"/>
<stop offset="0.2191" stop-color="#489D0E"/>
<stop offset="0.3815" stop-color="#40940C"/>
<stop offset="0.5" stop-color="#358709"/>
<stop offset="0.6115" stop-color="#2C7C06"/>
<stop offset="0.7941" stop-color="#227204"/>
<stop offset="1" stop-color="#1F6E03"/>
</linearGradient>
<linearGradient id="paint12_linear_4847_341527" x1="537.128" y1="97.2442" x2="524.608" y2="97.973" gradientUnits="userSpaceOnUse">
<stop stop-color="#4BA00F"/>
<stop offset="0.2131" stop-color="#489C0E"/>
<stop offset="0.4059" stop-color="#3E910C"/>
<stop offset="0.5204" stop-color="#358709"/>
<stop offset="0.5333" stop-color="#338508"/>
<stop offset="0.6254" stop-color="#277805"/>
<stop offset="0.7458" stop-color="#217004"/>
<stop offset="1" stop-color="#1F6E03"/>
</linearGradient>
</defs>
</svg>
