<svg width="285" height="302" viewBox="0 0 285 302" fill="none" xmlns="http://www.w3.org/2000/svg">
<g clip-path="url(#clip0_3138_571770)">
<path d="M75.6238 4.40134C75.6238 4.40134 112.335 -1.29046 125.35 17.1754C138.364 35.6412 140.194 49.4756 139.784 59.6188C139.374 69.762 127.06 108.144 126.6 119.488C126.14 130.831 129.541 150.267 129.891 156.479C130.241 162.691 127.32 175.735 128.23 182.948C129.131 190.16 137.313 239.606 134.502 249.919C131.692 260.232 121.538 274.777 120.818 277.738C120.098 280.699 108.414 297.634 98.361 297.794C88.3078 297.954 53.0367 297.404 38.292 277.538C23.5473 257.671 13.4942 239.916 9.23282 212.237C4.97147 184.558 2.93083 131.241 3.65106 128.281C4.37129 125.32 8.16248 75.8339 12.7739 65.2506C17.3854 54.6672 40.8228 7.18222 75.6238 4.40134Z" fill="#F3F9B2"/>
<path d="M75.4138 10.7934C75.4138 10.7934 110.515 5.35168 122.949 22.9973C135.383 40.6428 137.143 53.877 136.753 63.5801C136.363 73.2832 124.589 109.975 124.149 120.818C123.709 131.662 126.96 150.237 127.3 156.179C127.63 162.121 124.839 174.585 125.71 181.487C126.58 188.39 134.392 235.654 131.702 245.518C129.021 255.381 119.308 269.285 118.617 272.116C117.927 274.947 106.764 291.142 97.1507 291.292C87.5377 291.442 53.827 290.922 39.7225 271.926C25.6181 252.93 16.015 235.965 11.9338 209.496C7.85246 183.028 5.91185 132.062 6.59206 129.231C7.28228 126.4 10.9034 79.085 15.3148 68.9718C19.7262 58.8586 42.1433 13.4542 75.4138 10.7934Z" stroke="#CFD6BA" stroke-width="6.6613" stroke-miterlimit="10"/>
<path d="M75.6238 4.40134C75.6238 4.40134 112.335 -1.29046 125.35 17.1754C138.364 35.6412 140.194 49.4756 139.784 59.6188C139.374 69.762 127.06 108.144 126.6 119.488C126.14 130.831 129.541 150.267 129.891 156.479C130.241 162.691 127.32 175.736 128.23 182.948C129.131 190.16 137.313 239.606 134.502 249.919C131.692 260.232 121.538 274.777 120.818 277.738C120.098 280.699 108.414 297.634 98.361 297.794C88.3078 297.954 53.0367 297.404 38.292 277.538C23.5473 257.671 13.4942 239.916 9.23282 212.237C4.97147 184.558 2.93083 131.241 3.65106 128.281C4.37129 125.32 8.16248 75.8339 12.7739 65.2506C17.3854 54.6672 40.8228 7.18222 75.6238 4.40134Z" stroke="url(#paint0_linear_3138_571770)" stroke-width="7" stroke-miterlimit="10"/>
<path d="M88.6979 51.4161C88.6979 51.4161 86.9674 58.6984 86.1371 69.0417C85.3068 79.385 86.8473 81.9358 83.2062 81.3356C79.565 80.7354 63.2299 73.5331 67.9414 64.5403C72.6428 55.5474 81.4356 48.5252 88.6979 51.4161Z" fill="url(#paint1_linear_3138_571770)" stroke="#728477" stroke-width="1.1061" stroke-miterlimit="10"/>
<path d="M124.199 126.57C124.199 126.57 119.498 119.148 114.296 98.5911C112.345 90.8786 113.266 82.1559 115.306 73.4731C118.317 60.6591 118.617 52.4665 112.185 42.9835C105.713 33.4505 90.1584 45.0341 89.8883 51.8063C89.6182 58.5784 84.9967 64.4303 77.5044 69.2418C70.4421 73.7732 54.137 74.9736 54.137 74.9736C54.137 74.9736 56.6778 53.3668 69.6419 47.9651C82.8061 42.4833 86.2471 37.7318 93.4594 33.4505C104.353 26.9784 113.536 28.0388 121.038 36.1713C128.871 44.664 130.661 57.348 124.849 75.4938C122.719 82.1259 122.849 94.1497 122.999 96.1203C124.959 122.799 128.27 126.57 124.199 126.57Z" fill="url(#paint2_linear_3138_571770)" stroke="#728477" stroke-width="1.1061" stroke-miterlimit="10"/>
<path d="M209.806 4.38133C209.806 4.38133 173.115 -1.46052 160.03 16.9553C146.946 35.3711 145.056 49.1955 145.426 59.3387C145.796 69.4819 157.95 107.914 158.37 119.268C158.79 130.621 155.299 150.037 154.929 156.249C154.559 162.461 157.42 175.515 156.489 182.728C155.559 189.94 147.186 239.346 149.947 249.679C152.718 260.002 162.811 274.587 163.522 277.548C164.232 280.509 175.845 297.494 185.899 297.694C195.952 297.894 231.223 297.484 246.048 277.678C260.872 257.861 270.995 240.156 275.367 212.487C279.748 184.818 281.989 131.522 281.289 128.561C280.579 125.6 276.987 76.094 272.416 65.5007C267.844 54.9073 244.597 7.30225 209.806 4.38133Z" fill="#F3F9B2"/>
<path d="M209.996 10.7733C209.996 10.7733 174.925 5.19153 162.411 22.7971C149.897 40.4027 148.097 53.6168 148.447 63.3199C148.797 73.023 160.421 109.765 160.821 120.608C161.221 131.451 157.89 150.017 157.53 155.959C157.169 161.901 159.91 174.375 159.02 181.267C158.13 188.159 150.127 235.404 152.768 245.267C155.409 255.141 165.062 269.085 165.742 271.916C166.412 274.747 177.526 290.992 187.139 291.182C196.752 291.372 230.463 290.982 244.647 272.046C258.832 253.11 268.495 236.175 272.686 209.726C276.877 183.278 279.018 132.322 278.348 129.481C277.678 126.65 274.237 79.325 269.865 69.1918C265.494 59.0586 243.257 13.5742 209.996 10.7733Z" stroke="#CFD6BA" stroke-width="6.6613" stroke-miterlimit="10"/>
<path d="M209.806 4.38133C209.806 4.38133 173.115 -1.46052 160.03 16.9553C146.946 35.3711 145.056 49.1955 145.426 59.3387C145.796 69.4819 157.95 107.914 158.37 119.268C158.79 130.621 153.418 150.508 153.048 156.719C152.678 162.931 153.978 180.837 153.048 188.049C152.118 195.262 147.687 241.006 150.457 251.329C153.228 261.653 162.821 274.577 163.532 277.538C164.242 280.499 175.855 297.484 185.909 297.684C195.962 297.884 231.233 297.474 246.058 277.668C260.882 257.851 272.296 241.926 276.667 214.268C281.049 186.599 282.009 131.522 281.299 128.551C280.589 125.59 276.997 76.084 272.426 65.4906C267.854 54.8973 244.597 7.30225 209.806 4.38133Z" stroke="url(#paint3_linear_3138_571770)" stroke-width="7" stroke-miterlimit="10"/>
</g>
<defs>
<linearGradient id="paint0_linear_3138_571770" x1="-0.672837" y1="146.966" x2="142.284" y2="152.732" gradientUnits="userSpaceOnUse">
<stop offset="0.0305" stop-color="#96B087"/>
<stop offset="0.4034" stop-color="#6B877A"/>
</linearGradient>
<linearGradient id="paint1_linear_3138_571770" x1="67.0979" y1="65.9099" x2="88.5398" y2="66.1265" gradientUnits="userSpaceOnUse">
<stop offset="0.6341" stop-color="#7DB183"/>
<stop offset="1" stop-color="#D7FF8E"/>
</linearGradient>
<linearGradient id="paint2_linear_3138_571770" x1="54.1083" y1="75.4208" x2="127.998" y2="78.401" gradientUnits="userSpaceOnUse">
<stop offset="0.6341" stop-color="#7DB183"/>
<stop offset="1" stop-color="#D7FF8E"/>
</linearGradient>
<linearGradient id="paint3_linear_3138_571770" x1="285.558" y1="147.242" x2="142.817" y2="152.427" gradientUnits="userSpaceOnUse">
<stop offset="0.0305" stop-color="#96B087"/>
<stop offset="0.4034" stop-color="#6B877A"/>
</linearGradient>
<clipPath id="clip0_3138_571770">
<rect width="284.91" height="301.22" fill="white" transform="scale(1.00032)"/>
</clipPath>
</defs>
</svg>
