<svg width="359" height="243" viewBox="0 0 359 243" fill="none" xmlns="http://www.w3.org/2000/svg">
<g clip-path="url(#clip0_3173_598786)">
<path d="M207.131 18.4845C210.224 14.4313 212.295 3.55282 208.262 1.36112C204.229 -0.830592 202.438 10.7084 202.318 14.9217C202.197 19.135 204.699 21.6769 207.131 18.4845Z" fill="url(#paint0_radial_3173_598786)" stroke="url(#paint1_linear_3173_598786)" stroke-width="2.1636" stroke-miterlimit="10"/>
<path d="M82.4739 81.5536C82.524 80.6228 74.928 81.1633 75.3183 82.7145C75.6986 84.2757 82.3238 84.3657 82.4739 81.5536Z" fill="url(#paint2_linear_3173_598786)"/>
<path d="M238.466 177.849C231.981 177.198 227.477 201.677 217.98 220.772C210.784 240.688 185.104 253.828 174.276 229.889C163.928 212.336 165.169 161.876 165.709 162.627C165.709 162.627 249.154 178.94 238.466 177.849Z" fill="url(#paint3_linear_3173_598786)"/>
<path d="M185.405 188.477L179.35 190.999C178.759 182.052 27.3413 157.253 49.0383 102.37C77.9508 56.1038 90.6707 74.0978 113.969 59.7466C137.217 45.3754 160.425 11.6091 172.074 31.985C185.395 56.2339 241.128 190.889 185.405 188.477Z" fill="url(#paint4_linear_3173_598786)"/>
<path d="M166.079 57.635C168.971 61.428 171.573 65.4211 174.075 69.4842C176.597 73.5374 178.939 77.6906 181.231 81.8739C185.784 90.2604 189.908 98.8771 193.771 107.614L196.593 114.199C197.534 116.391 198.374 118.623 199.275 120.844C201.096 125.258 202.698 129.761 204.359 134.245C205.21 136.476 205.96 138.748 206.731 141.01L209.033 147.795C210.494 152.349 211.875 156.922 213.306 161.486L209.633 162.507C208.372 157.933 207.151 153.35 205.85 148.786L203.789 141.971C203.098 139.699 202.437 137.417 201.657 135.175C200.156 130.672 198.705 126.148 197.043 121.695C196.223 119.463 195.462 117.211 194.591 115L191.999 108.365C188.447 99.5577 184.624 90.8409 180.37 82.3343C178.229 78.0909 176.027 73.8677 173.645 69.7544C171.303 65.5912 168.831 61.518 166.079 57.635Z" fill="url(#paint5_linear_3173_598786)"/>
<path d="M356.418 143.061C380.266 189.227 231.25 203.118 214.017 210.524C150.047 204.049 226.056 81.6136 245.752 54.5525C260.383 36.2082 278.107 73.147 298.903 90.8908C319.679 108.705 334.991 92.8724 356.418 143.061Z" fill="url(#paint6_linear_3173_598786)"/>
<path d="M152.589 53.4817C161.606 66.8622 170.373 80.4027 178.839 94.1434C183.072 101.019 187.196 107.964 191.159 115.01L194.091 120.324L196.903 125.728C197.824 127.539 198.675 129.401 199.555 131.232C200.416 133.084 201.146 135.025 201.957 136.917C202.337 137.817 201.917 138.848 201.026 139.229C200.126 139.609 199.095 139.189 198.715 138.298C198.705 138.278 198.705 138.268 198.695 138.248L198.635 138.088C197.924 136.246 197.303 134.385 196.533 132.553C195.732 130.732 194.982 128.891 194.131 127.069L191.559 121.635L188.847 116.261C185.164 109.115 181.311 102.05 177.338 95.0341C169.372 81.0332 161.105 67.1824 152.589 53.4817Z" fill="url(#paint7_linear_3173_598786)"/>
<path d="M151.738 67.4726C159.054 78.8815 166.15 90.4305 173.005 102.14C176.418 108.004 179.75 113.919 182.943 119.924L185.285 124.457C186.055 125.978 186.776 127.529 187.526 129.061C188.287 130.592 188.917 132.203 189.628 133.764C190.328 135.336 190.859 137.027 191.479 138.658C191.83 139.569 191.369 140.59 190.459 140.93C189.548 141.28 188.527 140.82 188.187 139.909C188.177 139.879 188.167 139.849 188.157 139.819L188.097 139.639L187.356 137.297C187.106 136.516 186.876 135.736 186.556 134.955C185.935 133.404 185.395 131.833 184.714 130.302C184.044 128.76 183.403 127.209 182.703 125.678L180.581 121.094C177.669 115.01 174.606 108.975 171.464 102.98C165.139 91.031 158.544 79.1918 151.738 67.4726Z" fill="url(#paint8_linear_3173_598786)"/>
<path d="M157.243 70.7452C160.595 75.2187 163.808 79.8023 166.93 84.4359C170.043 89.0795 173.085 93.7932 175.957 98.6069C178.819 103.431 181.602 108.304 184.114 113.348C186.616 118.392 188.927 123.556 190.779 128.961C191.099 129.881 190.609 130.882 189.678 131.202C188.757 131.523 187.756 131.032 187.436 130.101C187.426 130.071 187.416 130.051 187.406 130.021L187.396 129.991C185.895 124.727 183.903 119.563 181.702 114.469C179.49 109.385 176.988 104.401 174.406 99.4776C171.804 94.5538 169.032 89.71 166.17 84.9162C163.317 80.1225 160.355 75.3788 157.243 70.7452Z" fill="url(#paint9_linear_3173_598786)"/>
<path d="M253.868 79.6921C250.865 83.395 248.153 87.308 245.541 91.2811C242.909 95.2442 240.447 99.3174 238.045 103.421C233.262 111.647 228.908 120.104 224.805 128.67L221.803 135.135C220.802 137.287 219.901 139.489 218.94 141.66C216.999 145.994 215.278 150.427 213.496 154.821C212.585 157.012 211.775 159.244 210.944 161.466L208.452 168.141C206.871 172.615 205.36 177.118 203.809 181.602L200.206 180.351C201.917 175.887 203.588 171.404 205.33 166.96L208.052 160.325C208.963 158.113 209.843 155.902 210.844 153.72C212.786 149.356 214.667 144.963 216.759 140.67C217.79 138.518 218.78 136.336 219.851 134.215L223.084 127.82C227.487 119.343 232.141 111.007 237.215 102.92C239.767 98.8871 242.369 94.894 245.141 91.0109C247.893 87.1279 250.745 83.2949 253.868 79.6921Z" fill="url(#paint10_linear_3173_598786)"/>
<path d="M267.578 76.3996C258.241 89.5499 249.134 102.86 240.347 116.361C235.954 123.116 231.68 129.931 227.557 136.837L224.515 142.041L221.613 147.305C220.662 149.066 219.791 150.858 218.88 152.629C218 154.41 217.259 156.222 216.448 158.013L216.378 158.173C215.938 159.134 214.807 159.554 213.856 159.114C212.896 158.674 212.475 157.543 212.916 156.592C212.926 156.572 212.936 156.552 212.946 156.532C213.866 154.691 214.727 152.789 215.708 150.998C216.709 149.226 217.669 147.415 218.71 145.674L221.863 140.46L225.135 135.336C229.549 128.55 234.112 121.885 238.776 115.3C248.113 102.13 257.731 89.1696 267.578 76.3996Z" fill="url(#paint11_linear_3173_598786)"/>
<path d="M267.558 90.4206C260.042 101.699 252.747 113.118 245.711 124.677C242.208 130.462 238.786 136.296 235.513 142.201L233.111 146.644C232.331 148.136 231.59 149.637 230.83 151.138C230.049 152.629 229.418 154.16 228.708 155.671C228.338 156.422 228.057 157.193 227.767 157.953L226.887 160.235L226.816 160.415C226.436 161.396 225.335 161.886 224.355 161.506C223.374 161.126 222.883 160.025 223.264 159.044C223.274 159.014 223.294 158.974 223.304 158.944C224.024 157.353 224.665 155.691 225.465 154.17C226.266 152.649 227.007 151.078 227.867 149.607C228.718 148.126 229.539 146.624 230.399 145.153L233.031 140.77C236.604 134.985 240.317 129.291 244.1 123.656C251.696 112.398 259.522 101.329 267.558 90.4206Z" fill="url(#paint12_linear_3173_598786)"/>
<path d="M261.854 93.3327C258.101 98.787 254.458 104.321 250.885 109.896C247.312 115.47 243.82 121.094 240.457 126.789C237.084 132.473 233.812 138.218 230.8 144.082C227.797 149.937 224.905 155.871 222.753 161.976L222.743 161.996C222.393 162.987 221.302 163.507 220.311 163.157C219.321 162.807 218.8 161.716 219.151 160.725C219.161 160.695 219.171 160.665 219.181 160.635C221.753 154.35 224.965 148.486 228.288 142.711C231.62 136.937 235.183 131.322 238.836 125.788C242.479 120.244 246.242 114.779 250.095 109.375C253.938 103.961 257.841 98.6069 261.854 93.3327Z" fill="url(#paint13_linear_3173_598786)"/>
<path d="M241.068 179.94C243.76 174.246 246.572 168.672 249.465 163.107C252.357 157.553 255.359 152.059 258.492 146.634C261.624 141.21 264.867 135.856 268.389 130.672C271.912 125.498 275.585 120.404 279.898 115.86C279.928 115.83 279.978 115.83 280.018 115.86C280.048 115.89 280.048 115.94 280.028 115.98C275.955 120.704 272.552 125.948 269.3 131.262C266.057 136.577 263.085 142.061 260.243 147.595C257.391 153.129 254.679 158.734 252.067 164.388C249.465 170.043 246.933 175.747 244.561 181.461L244.551 181.481C244.15 182.452 243.029 182.913 242.059 182.512C241.088 182.112 240.628 180.991 241.028 180.02C241.038 180 241.058 179.96 241.068 179.94Z" fill="url(#paint14_linear_3173_598786)"/>
<path d="M290.116 126.168C283.09 135.306 276.165 144.523 269.36 153.81C265.967 158.464 262.594 163.127 259.312 167.841C256.069 172.555 252.767 177.338 250.085 182.192L250.045 182.262C249.534 183.183 248.373 183.523 247.453 183.013C246.532 182.502 246.192 181.341 246.702 180.421C246.722 180.391 246.742 180.361 246.752 180.331C249.925 175.257 253.457 170.733 257 166.14C260.563 161.586 264.186 157.102 267.839 152.629C275.164 143.712 282.58 134.895 290.096 126.158H290.106C290.126 126.168 290.126 126.168 290.116 126.168Z" fill="url(#paint15_linear_3173_598786)"/>
<path d="M311.703 116.691C306.909 121.255 302.235 125.938 297.642 130.692C293.038 135.436 288.565 140.299 284.201 145.253C279.828 150.197 275.625 155.281 271.692 160.535C267.799 165.789 264.006 171.224 261.424 177.018L261.414 177.038C260.983 177.999 259.852 178.429 258.892 177.999C257.931 177.568 257.5 176.438 257.931 175.477C257.941 175.447 257.961 175.417 257.971 175.387C261.103 169.212 265.226 163.918 269.45 158.754C273.703 153.61 278.177 148.696 282.81 143.942C287.434 139.179 292.157 134.525 296.981 130.001C301.805 125.478 306.699 121.014 311.703 116.691Z" fill="url(#paint16_linear_3173_598786)"/>
<path d="M319.809 127.299C314.355 130.882 309.041 134.685 303.847 138.618C298.663 142.571 293.599 146.674 288.765 151.018C283.941 155.361 279.307 159.925 275.244 164.899C273.223 167.381 271.321 169.963 269.77 172.695C268.229 175.417 266.978 178.289 266.528 181.171V181.201C266.357 182.242 265.387 182.953 264.346 182.783C263.305 182.612 262.594 181.642 262.765 180.601C262.765 180.571 262.775 180.531 262.785 180.511C263.535 176.958 265.126 173.836 266.928 170.973C268.749 168.101 270.861 165.509 273.083 163.047C277.526 158.113 282.46 153.73 287.534 149.577C292.628 145.433 297.902 141.56 303.296 137.848C308.69 134.155 314.185 130.622 319.809 127.299Z" fill="url(#paint17_linear_3173_598786)"/>
<path d="M340.475 130.872C334.13 134.195 327.995 137.887 322.001 141.801C316.016 145.714 310.212 149.887 304.587 154.28C301.755 156.452 299.033 158.754 296.301 161.046C294.94 162.196 293.639 163.407 292.298 164.588L290.306 166.37C289.646 166.97 289.025 167.601 288.375 168.211L284.532 171.914L280.849 175.767L279.007 177.688L277.256 179.69L273.763 183.693L273.703 183.763C273.013 184.554 271.802 184.644 271.011 183.943C270.22 183.253 270.13 182.042 270.831 181.251C270.851 181.231 270.871 181.211 270.891 181.191L274.644 177.258L276.515 175.297L278.477 173.415L282.39 169.672L286.453 166.089C287.134 165.499 287.794 164.889 288.485 164.308L290.576 162.597C291.977 161.466 293.348 160.295 294.78 159.194C297.642 157.012 300.484 154.801 303.436 152.749C309.291 148.576 315.306 144.643 321.49 140.99C327.685 137.347 333.99 133.914 340.475 130.872Z" fill="url(#paint18_linear_3173_598786)"/>
<path d="M342.677 142.301C337.393 145.523 332.189 148.866 327.035 152.279C321.881 155.691 316.787 159.194 311.783 162.807C306.769 166.41 301.855 170.133 297.121 174.056C292.418 177.979 287.774 182.052 283.871 186.595L283.861 186.605C283.171 187.406 281.97 187.496 281.169 186.816C280.368 186.125 280.278 184.924 280.959 184.124C280.979 184.104 281.009 184.074 281.029 184.054C285.442 179.42 290.366 175.557 295.35 171.814C300.344 168.081 305.488 164.598 310.702 161.236C315.906 157.863 321.19 154.621 326.524 151.478C331.869 148.326 337.243 145.253 342.677 142.301Z" fill="url(#paint19_linear_3173_598786)"/>
<path d="M249.915 69.7944C249.915 69.7944 221.312 112.848 216.899 128.4L249.915 69.7944Z" fill="url(#paint20_linear_3173_598786)"/>
<path d="M354.206 128.11C342.777 134.275 331.428 140.57 320.179 147.035C314.565 150.277 308.971 153.56 303.476 156.962C300.734 158.664 298.002 160.395 295.35 162.196C294.029 163.097 292.708 164.008 291.467 164.969C290.826 165.439 290.246 165.929 289.655 166.42L288.855 167.16C288.595 167.41 288.445 167.631 288.224 167.851L288.004 168.081C287.274 168.832 286.073 168.852 285.322 168.121C284.592 167.41 284.562 166.25 285.232 165.499C286.653 163.918 287.984 163.067 289.375 162.076C290.756 161.126 292.147 160.255 293.549 159.394C296.351 157.683 299.193 156.082 302.035 154.49C307.74 151.338 313.494 148.326 319.279 145.353C330.838 139.439 342.497 133.704 354.206 128.11Z" fill="url(#paint21_linear_3173_598786)"/>
<path d="M258.121 83.6252C254.378 89.2096 250.735 94.864 247.163 100.548C243.59 106.243 240.097 111.977 236.715 117.782C233.332 123.576 230.049 129.431 226.997 135.396C223.965 141.35 221.032 147.385 218.831 153.59V153.6C218.5 154.52 217.5 155.001 216.579 154.671C215.658 154.34 215.178 153.34 215.508 152.419C215.518 152.399 215.528 152.369 215.538 152.349C218.13 145.974 221.353 140.019 224.685 134.135C228.018 128.26 231.571 122.526 235.223 116.861C238.866 111.197 242.609 105.602 246.432 100.068C250.245 94.5337 254.128 89.0395 258.121 83.6252Z" fill="url(#paint22_linear_3173_598786)"/>
<path d="M269.04 74.7283C265.587 80.2726 262.234 85.877 258.942 91.5114C255.649 97.1458 252.427 102.82 249.314 108.555C246.192 114.279 243.159 120.044 240.337 125.898C237.525 131.753 234.813 137.667 232.681 143.712V143.722C232.331 144.713 231.24 145.233 230.249 144.883C229.259 144.533 228.738 143.442 229.088 142.451C229.098 142.421 229.108 142.391 229.118 142.361C231.64 136.196 234.673 130.352 237.795 124.587C240.928 118.823 244.26 113.178 247.663 107.594C251.066 102 254.568 96.4852 258.131 91.011C261.704 85.5367 265.327 80.1025 269.04 74.7283Z" fill="url(#paint23_linear_3173_598786)"/>
<path d="M315.486 138.478C306.499 145.694 297.592 152.999 288.775 160.415C284.372 164.128 279.998 167.871 275.695 171.664C271.432 175.477 267.088 179.34 263.335 183.423L263.285 183.483C262.575 184.264 261.364 184.314 260.593 183.593C259.813 182.883 259.763 181.672 260.483 180.901C260.503 180.881 260.533 180.851 260.553 180.821C264.836 176.648 269.34 173.085 273.864 169.462C278.397 165.879 282.991 162.387 287.594 158.904C296.821 151.979 306.119 145.163 315.486 138.448H315.496C315.486 138.468 315.486 138.478 315.486 138.478Z" fill="url(#paint24_linear_3173_598786)"/>
<path d="M285.883 118.042C278.927 128.921 272.052 139.849 265.277 150.828C261.904 156.322 258.542 161.836 255.269 167.381C253.638 170.163 252.006 172.935 250.445 175.737C248.864 178.529 247.353 181.361 246.032 184.164L246.002 184.234C245.551 185.184 244.411 185.595 243.46 185.144C242.509 184.694 242.099 183.553 242.549 182.602C242.559 182.572 242.579 182.542 242.589 182.522C244.17 179.56 245.842 176.778 247.573 174.036C249.284 171.274 251.066 168.571 252.837 165.869C256.39 160.465 260.023 155.121 263.676 149.787C270.981 139.138 278.387 128.55 285.873 118.032H285.883C285.883 118.032 285.883 118.042 285.883 118.042Z" fill="url(#paint25_linear_3173_598786)"/>
<path d="M236.904 178.589C239.897 172.184 242.999 165.889 246.182 159.604C249.354 153.329 252.657 147.115 256.059 140.95C259.452 134.785 263.015 128.71 266.788 122.776C270.581 116.861 274.534 110.986 279.307 105.812C279.337 105.782 279.387 105.772 279.427 105.812C279.457 105.842 279.457 105.893 279.437 105.933C274.904 111.287 271.231 117.291 267.708 123.336C264.206 129.401 260.933 135.596 257.821 141.881C254.698 148.155 251.686 154.48 248.804 160.865C245.911 167.24 243.089 173.665 240.407 180.11L240.397 180.12C239.997 181.091 238.876 181.551 237.905 181.151C236.934 180.751 236.474 179.63 236.874 178.659C236.874 178.639 236.894 178.609 236.904 178.589Z" fill="url(#paint26_linear_3173_598786)"/>
<path d="M233.382 149.136C236.234 142.431 239.216 135.816 242.279 129.231C245.341 122.646 248.533 116.121 251.836 109.666C255.129 103.201 258.631 96.8255 262.354 90.5907C266.097 84.3858 270.04 78.221 274.954 72.8569C274.984 72.8268 275.034 72.8168 275.074 72.8469C275.104 72.8769 275.104 72.9269 275.084 72.967C270.42 78.5113 266.768 84.7962 263.295 91.1211C259.852 97.4761 256.64 103.951 253.637 110.526C250.615 117.091 247.713 123.716 244.941 130.392C242.168 137.067 239.476 143.792 236.934 150.527L236.924 150.547C236.554 151.528 235.453 152.029 234.472 151.658C233.492 151.288 232.991 150.187 233.362 149.206C233.362 149.186 233.372 149.156 233.382 149.136Z" fill="url(#paint27_linear_3173_598786)"/>
<path d="M163.928 149.427C161.926 143.572 159.755 137.717 157.513 131.913C155.271 126.108 152.909 120.344 150.407 114.639C147.915 108.935 145.293 103.281 142.391 97.7763C139.489 92.282 136.416 86.8278 132.643 81.8539C132.613 81.8139 132.623 81.7638 132.653 81.7338C132.694 81.7038 132.744 81.7138 132.764 81.7438C136.787 86.5475 140.129 91.8617 143.322 97.2459C146.504 102.64 149.417 108.184 152.199 113.799C154.991 119.403 157.643 125.078 160.175 130.802C162.717 136.526 165.169 142.271 167.501 148.126C167.891 149.106 167.411 150.217 166.43 150.597C165.449 150.988 164.338 150.507 163.958 149.527C163.948 149.497 163.938 149.477 163.928 149.447V149.427Z" fill="url(#paint28_linear_3173_598786)"/>
<path d="M120.444 89.5598C127.389 98.757 134.244 108.024 141 117.381C144.362 122.065 147.705 126.769 150.968 131.543C154.21 136.346 157.453 141.08 160.305 146.344C160.805 147.275 160.465 148.426 159.534 148.926C158.603 149.426 157.453 149.086 156.952 148.155C156.932 148.125 156.922 148.095 156.912 148.065L156.872 147.985C154.5 142.971 151.508 137.988 148.566 133.084C145.583 128.17 142.511 123.306 139.419 118.452C133.204 108.755 126.869 99.1272 120.434 89.5698V89.5598C120.444 89.5598 120.444 89.5598 120.444 89.5598Z" fill="url(#paint29_linear_3173_598786)"/>
<path d="M106.032 90.921C110.756 95.5546 115.36 100.318 119.893 105.142C124.437 109.966 128.85 114.91 133.163 119.944C137.487 124.977 141.65 130.162 145.573 135.556C149.456 140.98 153.249 146.514 155.981 152.879C156.402 153.85 155.951 154.971 154.98 155.381C154.01 155.792 152.889 155.351 152.479 154.38C152.469 154.35 152.459 154.33 152.449 154.3L152.439 154.27C150.217 148.326 146.784 142.661 143.221 137.177C139.629 131.683 135.745 126.349 131.692 121.145C127.649 115.93 123.476 110.796 119.183 105.773C114.889 100.749 110.526 95.7747 106.032 90.921Z" fill="url(#paint30_linear_3173_598786)"/>
<path d="M97.2755 101.009C102.68 104.672 107.944 108.545 113.098 112.578C118.242 116.621 123.266 120.814 128.09 125.268C132.893 129.731 137.537 134.415 141.67 139.619C143.732 142.221 145.683 144.943 147.315 147.915C148.936 150.888 150.327 154.1 150.857 157.693C151.007 158.734 150.287 159.705 149.246 159.855C148.205 160.005 147.234 159.284 147.084 158.243C147.084 158.213 147.074 158.183 147.074 158.153V158.113C146.794 155.211 145.733 152.259 144.362 149.447C142.991 146.624 141.25 143.932 139.388 141.32C135.645 136.096 131.302 131.252 126.769 126.619C122.215 121.985 117.421 117.562 112.497 113.298C107.554 109.055 102.49 104.932 97.2755 101.009Z" fill="url(#paint31_linear_3173_598786)"/>
<path d="M76.4194 103.281C82.7043 106.713 88.7891 110.536 94.7237 114.569C100.658 118.603 106.413 122.916 111.997 127.439C114.809 129.681 117.511 132.053 120.234 134.415C121.585 135.606 122.886 136.857 124.207 138.068L126.188 139.909C126.839 140.53 127.469 141.18 128.11 141.811L131.943 145.634L135.616 149.617L137.457 151.608L139.198 153.69L142.691 157.853C143.372 158.664 143.262 159.865 142.461 160.535C141.65 161.216 140.449 161.106 139.779 160.305C139.759 160.285 139.749 160.265 139.729 160.245L139.669 160.165L136.436 155.952L134.815 153.84L133.104 151.808L129.671 147.735L126.068 143.802C125.468 143.152 124.877 142.481 124.257 141.841L122.385 139.939C121.124 138.678 119.903 137.387 118.612 136.156C116.03 133.704 113.458 131.232 110.766 128.891C105.432 124.157 99.8977 119.623 94.1632 115.34C88.4388 111.067 82.5442 106.993 76.4194 103.281Z" fill="url(#paint32_linear_3173_598786)"/>
<path d="M73.507 114.549C78.7511 117.832 83.9251 121.245 89.0491 124.717C94.1731 128.19 99.2371 131.763 104.231 135.446C109.225 139.129 114.139 142.921 118.882 146.965C123.616 151.018 128.29 155.181 132.403 160.085C133.083 160.895 132.973 162.096 132.173 162.767C131.362 163.447 130.161 163.337 129.491 162.537C129.471 162.517 129.451 162.487 129.431 162.467L129.421 162.447C125.818 157.663 121.434 153.32 116.991 149.106C112.517 144.893 107.844 140.87 103.07 136.957C98.3063 133.034 93.4425 129.221 88.5087 125.498C83.5648 121.755 78.5809 118.092 73.507 114.549Z" fill="url(#paint33_linear_3173_598786)"/>
<path d="M170.633 47.9975C170.633 47.9975 196.483 92.7624 199.906 108.555L170.633 47.9975Z" fill="url(#paint34_linear_3173_598786)"/>
<path d="M65.4211 124.947C76.7599 131.272 88.0287 137.727 99.2074 144.363C104.792 147.685 110.346 151.058 115.84 154.561C118.583 156.322 121.315 158.103 124.007 159.985C125.348 160.926 126.689 161.886 128.01 162.917C129.341 163.988 130.612 164.919 131.933 166.59C132.583 167.411 132.443 168.601 131.613 169.252C130.812 169.882 129.661 169.762 129.001 169.002L128.79 168.752C128.59 168.511 128.45 168.281 128.21 168.021L127.459 167.23C126.899 166.71 126.349 166.18 125.738 165.669C124.557 164.638 123.296 163.648 122.035 162.657C119.493 160.695 116.881 158.794 114.249 156.922C108.975 153.179 103.601 149.557 98.1966 145.964C87.3782 138.818 76.4397 131.823 65.4211 124.947Z" fill="url(#paint35_linear_3173_598786)"/>
<path d="M172.724 33.1659C151.578 39.0104 132.313 65.3209 123.386 77.2602C97.5557 99.1373 57.5645 73.7075 54.1218 132.223C45.4751 122.986 42.4527 112.968 49.0579 102.36C77.9504 56.1037 90.6703 74.0978 113.968 59.7466C137.677 45.0852 161.245 10.3881 172.724 33.1659Z" fill="url(#paint36_linear_3173_598786)"/>
<path d="M222.363 47.9875C220.232 53.0614 227.097 65.9415 237.445 68.0231C252.937 69.8045 228.448 37.3292 222.363 47.9875Z" fill="url(#paint37_radial_3173_598786)" stroke="url(#paint38_linear_3173_598786)" stroke-width="3.3947" stroke-miterlimit="10"/>
<path d="M217.98 220.772C217.019 222.754 215.988 224.655 214.897 226.437C190.779 213.006 195.743 219.471 174.276 229.889C172.585 226.567 171.223 222.814 170.153 218.781C172.484 211.545 177.468 204.219 177.688 204.129C204.079 199.516 198.345 196.703 217.98 220.772Z" fill="#253A0D"/>
<path d="M162.206 57.9352C165.849 63.5896 169.382 69.314 172.855 75.0785C176.327 80.843 179.72 86.6576 182.993 92.5421C186.275 98.4267 189.468 104.361 192.42 110.446C195.372 116.531 198.215 122.676 200.406 129.191C200.717 130.111 200.216 131.112 199.295 131.422C198.375 131.733 197.374 131.232 197.064 130.312C197.054 130.292 197.054 130.262 197.044 130.242L197.034 130.221C195.222 123.897 192.68 117.682 190.028 111.547C187.366 105.412 184.454 99.3574 181.441 93.3628C178.439 87.3581 175.307 81.4135 172.094 75.5089C168.872 69.6143 165.599 63.7397 162.206 57.9352Z" fill="url(#paint39_linear_3173_598786)"/>
<path d="M150.687 75.9293C154 80.5929 157.182 85.3466 160.285 90.1604C163.377 94.9741 166.399 99.8379 169.272 104.812C172.124 109.786 174.916 114.8 177.448 119.984C179.97 125.158 182.312 130.442 184.203 135.966C184.514 136.887 184.023 137.888 183.103 138.208C182.182 138.528 181.181 138.028 180.861 137.107C180.851 137.077 180.841 137.057 180.831 137.027L180.821 136.997C179.28 131.603 177.248 126.309 175.036 121.084C172.814 115.86 170.303 110.736 167.721 105.652C165.129 100.568 162.366 95.5746 159.534 90.6207C156.682 85.6569 153.76 80.743 150.687 75.9293Z" fill="url(#paint40_linear_3173_598786)"/>
<path d="M100.898 112.428C109.825 119.713 118.682 127.099 127.459 134.585C131.833 138.338 136.196 142.121 140.499 145.984C144.783 149.887 149.056 153.72 153.069 158.153C153.78 158.934 153.72 160.145 152.939 160.845C152.158 161.546 150.947 161.496 150.247 160.715C150.227 160.695 150.207 160.665 150.187 160.635L150.137 160.565C146.654 156.252 142.561 152.129 138.538 148.055C134.475 143.992 130.341 139.989 126.188 136.006C117.852 128.06 109.425 120.204 100.908 112.438V112.428C100.898 112.418 100.898 112.418 100.898 112.428Z" fill="url(#paint41_linear_3173_598786)"/>
<path d="M131.723 93.8832C138.057 103.511 144.292 113.208 150.407 122.986C153.459 127.88 156.482 132.794 159.434 137.767C162.356 142.771 165.279 147.715 167.781 153.149C168.221 154.11 167.801 155.241 166.84 155.681C165.879 156.122 164.748 155.701 164.308 154.741C164.298 154.711 164.278 154.681 164.268 154.651L164.238 154.571C162.206 149.417 159.534 144.242 156.932 139.159C154.28 134.065 151.538 129.001 148.766 123.957C143.201 113.879 137.507 103.851 131.713 93.8932V93.8832C131.723 93.8832 131.723 93.8832 131.723 93.8832Z" fill="url(#paint42_linear_3173_598786)"/>
<path d="M169.672 150.037C167.71 144.162 165.589 138.288 163.397 132.473C161.195 126.649 158.884 120.864 156.432 115.14C153.98 109.415 151.408 103.741 148.545 98.2066C145.683 92.6823 142.661 87.2181 138.928 82.2142C138.898 82.1741 138.908 82.1241 138.948 82.0941C138.988 82.064 139.038 82.074 139.058 82.1041C143.041 86.9378 146.344 92.282 149.496 97.6862C152.639 103.1 155.501 108.675 158.243 114.309C160.995 119.934 163.597 125.628 166.089 131.372C168.581 137.117 170.993 142.881 173.275 148.756C173.655 149.737 173.165 150.838 172.184 151.228C171.203 151.608 170.102 151.118 169.712 150.137C169.702 150.107 169.692 150.087 169.682 150.057L169.672 150.037Z" fill="url(#paint43_linear_3173_598786)"/>
<path d="M175.527 141.61C173.565 135.736 171.443 129.861 169.252 124.047C167.05 118.222 164.738 112.438 162.286 106.713C159.834 100.989 157.262 95.3143 154.4 89.78C151.538 84.2557 148.516 78.7914 144.783 73.7875C144.753 73.7475 144.763 73.6975 144.803 73.6674C144.843 73.6374 144.893 73.6474 144.913 73.6775C148.896 78.5112 152.198 83.8554 155.351 89.2596C158.493 94.6738 161.356 100.248 164.098 105.883C166.85 111.507 169.452 117.201 171.944 122.946C174.436 128.69 176.848 134.455 179.129 140.329C179.51 141.31 179.019 142.411 178.039 142.801C177.058 143.182 175.957 142.691 175.567 141.71C175.557 141.68 175.547 141.66 175.537 141.63L175.527 141.61Z" fill="url(#paint44_linear_3173_598786)"/>
<path d="M216.308 119.483C217.439 143.232 240.087 141.75 246.031 162.016C254.988 186.535 246.872 221.613 193.701 210.624C187.736 209.603 182.182 208.452 177.098 207.061L177.088 207.021C151.147 199.996 137.247 187.376 147.425 161.486C160.124 129.171 183.933 139.679 193.941 117.742C203.899 95.7847 202.447 59.9167 203.238 54.7927C204.029 49.6687 225.325 49.1283 226.046 58.6557C226.806 68.2232 215.297 94.9941 216.308 119.483Z" fill="url(#paint45_linear_3173_598786)" stroke="url(#paint46_linear_3173_598786)" stroke-width="4.0218" stroke-miterlimit="10"/>
<path d="M210.864 60.6273C210.864 60.6273 204.979 118.192 201.627 127.229L210.864 60.6273Z" fill="url(#paint47_linear_3173_598786)"/>
<path d="M217.059 59.7266C217.059 59.7266 207.742 112.938 209.093 128.64L217.059 59.7266Z" fill="url(#paint48_linear_3173_598786)"/>
<path d="M210.154 44.4847C202.658 43.2137 186.745 48.8181 186.555 56.374C185.675 67.0123 225.576 50.6896 210.154 44.4847Z" fill="url(#paint49_radial_3173_598786)" stroke="url(#paint50_linear_3173_598786)" stroke-width="3.3947" stroke-miterlimit="10"/>
<path d="M197.394 130.262C197.394 130.262 203.208 154.36 184.604 154.11C165.999 153.86 156.882 152.239 167.951 145.794C179.019 139.349 189.468 127.98 197.394 130.262Z" fill="url(#paint51_linear_3173_598786)"/>
<path d="M248.373 161.676C238.135 188.597 204.849 225.036 177.018 207.722C171.103 201.998 154.56 171.994 157.813 169.662C162.146 166.58 175.196 183.613 195.162 179.39C224.425 173.195 228.308 159.725 240.107 148.486C243.359 151.748 246.312 155.842 248.373 161.676Z" fill="#DBBB75"/>
<path d="M184.654 213.406C187.106 189.258 154.07 53.0013 94.5634 27.5615" stroke="url(#paint52_linear_3173_598786)" stroke-width="4.0218" stroke-miterlimit="10" stroke-linecap="round" stroke-linejoin="round"/>
<path d="M214.777 47.5571C208.633 50.2792 203.479 62.6889 210.524 68.8337C221.653 77.2803 229.559 43.1537 214.777 47.5571Z" fill="url(#paint53_radial_3173_598786)" stroke="url(#paint54_linear_3173_598786)" stroke-width="3.3947" stroke-miterlimit="10"/>
<path d="M324.823 42.5132C327.735 38.3299 337.463 33.0258 340.785 36.1983C345.819 40.1814 320.57 52.7212 324.823 42.5132Z" fill="url(#paint55_radial_3173_598786)" stroke="url(#paint56_linear_3173_598786)" stroke-width="2.1636" stroke-miterlimit="10"/>
<path d="M200.106 200.146C203.448 176.107 267.828 51.5602 331.668 40.9419" stroke="url(#paint57_linear_3173_598786)" stroke-width="4.0218" stroke-miterlimit="10" stroke-linecap="round" stroke-linejoin="round"/>
<path d="M205.61 19.7754C205.61 19.7754 179.44 89.6599 194.001 206.061" stroke="url(#paint58_linear_3173_598786)" stroke-width="4.0218" stroke-miterlimit="10" stroke-linecap="round" stroke-linejoin="round"/>
<path d="M189.648 215.368C214.047 205.63 124.467 111.047 77.3502 132.263C30.2334 153.48 -5.84468 163.868 0.780485 179.76C7.40565 195.652 154.901 229.239 189.648 215.368Z" fill="url(#paint59_linear_3173_598786)"/>
<path d="M70.2447 151.288C80.5627 154.601 90.7507 158.313 100.849 162.277C110.936 166.26 120.924 170.543 130.712 175.267C140.499 179.99 150.117 185.144 159.284 191.129C163.858 194.141 168.311 197.354 172.534 200.937C176.748 204.519 180.711 208.503 184.003 213.176C184.754 214.237 184.494 215.698 183.433 216.449C182.372 217.199 180.911 216.939 180.16 215.878C180.15 215.858 180.13 215.838 180.12 215.818L180.1 215.788C177.308 211.485 173.715 207.582 169.802 204.009C165.889 200.436 161.656 197.144 157.293 194.031C148.526 187.846 139.198 182.392 129.651 177.348C120.104 172.304 110.316 167.681 100.398 163.347C90.4805 159.044 80.4326 154.971 70.2447 151.288Z" fill="url(#paint60_linear_3173_598786)"/>
<path d="M42.5933 177.889C53.9921 178.059 65.381 178.929 76.7499 180.09C88.0987 181.341 99.4376 182.963 110.676 185.274C113.489 185.825 116.291 186.455 119.093 187.096C121.885 187.796 124.677 188.457 127.449 189.247C130.232 189.978 132.994 190.849 135.756 191.689C138.498 192.61 141.25 193.501 143.962 194.562C149.386 196.653 154.741 199.035 159.885 201.977L163.688 204.329C164.929 205.17 166.14 206.071 167.36 206.941C168.551 207.872 169.702 208.893 170.863 209.874C171.454 210.364 171.934 210.994 172.254 211.755C172.424 212.125 172.514 212.566 172.585 213.016C172.635 213.486 172.665 213.957 172.535 214.557C172.304 215.598 171.424 216.319 170.423 216.409H170.363C168.031 216.609 167 215.908 166.11 214.938C165.119 214.067 164.168 213.156 163.137 212.315C162.066 211.515 161.016 210.684 159.925 209.894L156.522 207.662C151.858 204.82 146.844 202.418 141.7 200.276C139.148 199.165 136.516 198.204 133.894 197.204C131.242 196.293 128.6 195.342 125.908 194.522C120.544 192.82 115.11 191.309 109.636 189.908C104.161 188.507 98.6369 187.246 93.0826 186.105C87.5383 184.934 81.9639 183.863 76.3696 182.893C65.1608 180.901 53.9021 179.26 42.5933 177.889Z" fill="url(#paint61_linear_3173_598786)"/>
<path d="M56.4437 105.532C56.4437 105.532 49.098 119.103 55.0526 112.788C61.0073 106.473 60.9072 100.849 56.4437 105.532Z" fill="url(#paint62_linear_3173_598786)"/>
<path d="M61.6081 91.5814C65.4811 92.2119 75.5789 87.1579 73.047 84.8762C70.515 82.5944 59.6365 91.2611 61.6081 91.5814Z" fill="url(#paint63_linear_3173_598786)"/>
<path d="M60.637 97.7562C59.9865 98.3466 62.9588 98.2366 64.3299 96.215C65.701 94.1934 63.7695 94.964 60.637 97.7562Z" fill="url(#paint64_linear_3173_598786)"/>
<path d="M115.18 72.0962C115.18 72.0962 112.938 76.8299 116.12 74.358C119.303 71.886 121.615 64.7405 115.18 72.0962Z" fill="url(#paint65_linear_3173_598786)"/>
<path d="M124.397 65.2509C124.397 65.2509 127.879 67.953 125.067 70.6251C122.265 73.2872 117.852 70.0947 124.397 65.2509Z" fill="url(#paint66_linear_3173_598786)"/>
<path d="M177.008 140.349C177.008 140.349 176.317 142.751 179.52 141.941C183.533 140.56 182.622 136.747 177.008 140.349Z" fill="#FFC984"/>
<path d="M177.508 146.004C177.508 146.004 182.932 146.965 181.231 144.453C179.53 141.931 174.055 146.024 177.508 146.004Z" fill="#FFC984"/>
<path d="M212.886 70.0746C212.886 70.0746 204.259 121.054 205.43 136.356L212.886 70.0746Z" fill="url(#paint67_linear_3173_598786)"/>
<path d="M208.122 56.354C208.122 56.354 202.238 113.919 198.885 122.956L208.122 56.354Z" fill="url(#paint68_linear_3173_598786)"/>
<path d="M221.392 57.9153C221.392 57.9153 212.075 111.127 213.426 126.829L221.392 57.9153Z" fill="url(#paint69_linear_3173_598786)"/>
<path d="M193.39 229.429C193.39 229.429 193.811 232.461 194.691 232.541C195.572 232.641 198.575 227.407 193.39 229.429Z" fill="#515B2E"/>
<path d="M197.884 233.312C197.884 233.312 197.224 237.845 199.045 236.104C200.866 234.353 200.816 230.77 197.884 233.312Z" fill="#515B2E"/>
<path d="M206.671 231.21C206.671 231.21 202.788 234.913 203.939 235.393C205.1 235.864 209.363 233.942 206.671 231.21Z" fill="#495329"/>
<path d="M201.577 229.709C201.257 230.69 203.439 232.381 204.189 230.39C204.93 228.398 202.918 225.536 201.577 229.709Z" fill="#515B2E"/>
<path d="M187.796 239.086C187.796 239.086 188.457 241.458 190.408 239.847C192.36 238.236 189.868 236.374 187.796 239.086Z" fill="#515B2E"/>
</g>
<defs>
<radialGradient id="paint0_radial_3173_598786" cx="0" cy="0" r="1" gradientUnits="userSpaceOnUse" gradientTransform="translate(206.483 10.5226) rotate(97.6838) scale(7.25681 6.89915)">
<stop offset="0.0069808" stop-color="#FFEDBC"/>
<stop offset="0.9516" stop-color="#FFC882"/>
</radialGradient>
<linearGradient id="paint1_linear_3173_598786" x1="207.848" y1="0.40563" x2="206.959" y2="20.7202" gradientUnits="userSpaceOnUse">
<stop offset="0.0069808" stop-color="#FFEDBC"/>
<stop offset="0.9516" stop-color="#FFC882"/>
</linearGradient>
<linearGradient id="paint2_linear_3173_598786" x1="75.4751" y1="80.9573" x2="81.5222" y2="83.2615" gradientUnits="userSpaceOnUse">
<stop offset="0.0069808" stop-color="#FBC2D5"/>
<stop offset="0.9446" stop-color="#DD8EA5"/>
</linearGradient>
<linearGradient id="paint3_linear_3173_598786" x1="215.191" y1="252.775" x2="200.818" y2="178.686" gradientUnits="userSpaceOnUse">
<stop offset="0.017" stop-color="#685203"/>
<stop offset="0.986" stop-color="#759443"/>
</linearGradient>
<linearGradient id="paint4_linear_3173_598786" x1="119.471" y1="50.1891" x2="126.881" y2="119.343" gradientUnits="userSpaceOnUse">
<stop stop-color="#FBC2D5"/>
<stop offset="0.9031" stop-color="#C46084"/>
</linearGradient>
<linearGradient id="paint5_linear_3173_598786" x1="186.332" y1="110.95" x2="194.756" y2="107.435" gradientUnits="userSpaceOnUse">
<stop stop-color="#FBC2D5"/>
<stop offset="0.9031" stop-color="#C46084"/>
</linearGradient>
<linearGradient id="paint6_linear_3173_598786" x1="275.935" y1="46.2346" x2="274.291" y2="146.233" gradientUnits="userSpaceOnUse">
<stop offset="0.0069808" stop-color="#FBC2D5"/>
<stop offset="1" stop-color="#BC6186"/>
</linearGradient>
<linearGradient id="paint7_linear_3173_598786" x1="167.897" y1="99.6789" x2="185.656" y2="93.071" gradientUnits="userSpaceOnUse">
<stop stop-color="#FBC2D5"/>
<stop offset="0.8089" stop-color="#C46084"/>
</linearGradient>
<linearGradient id="paint8_linear_3173_598786" x1="155.415" y1="64.0313" x2="187.894" y2="141.864" gradientUnits="userSpaceOnUse">
<stop stop-color="#FBC2D5"/>
<stop offset="0.5646" stop-color="#C46084"/>
</linearGradient>
<linearGradient id="paint9_linear_3173_598786" x1="168.766" y1="102.932" x2="178.699" y2="98.7871" gradientUnits="userSpaceOnUse">
<stop stop-color="#FBC2D5"/>
<stop offset="0.8089" stop-color="#C46084"/>
</linearGradient>
<linearGradient id="paint10_linear_3173_598786" x1="230.303" y1="131.637" x2="222.116" y2="127.6" gradientUnits="userSpaceOnUse">
<stop stop-color="#FBC2D5"/>
<stop offset="0.9031" stop-color="#C46084"/>
</linearGradient>
<linearGradient id="paint11_linear_3173_598786" x1="249.508" y1="121.673" x2="231.937" y2="113.848" gradientUnits="userSpaceOnUse">
<stop stop-color="#FBC2D5"/>
<stop offset="0.774" stop-color="#C46084"/>
</linearGradient>
<linearGradient id="paint12_linear_3173_598786" x1="253.995" y1="129.2" x2="237.858" y2="122.702" gradientUnits="userSpaceOnUse">
<stop offset="4.19417e-07" stop-color="#C46084" stop-opacity="0.6"/>
<stop offset="0.6972" stop-color="#C66487"/>
</linearGradient>
<linearGradient id="paint13_linear_3173_598786" x1="245.654" y1="130.502" x2="235.888" y2="125.687" gradientUnits="userSpaceOnUse">
<stop offset="2.09709e-07" stop-color="#C46084" stop-opacity="0.7"/>
<stop offset="0.6972" stop-color="#C66487"/>
</linearGradient>
<linearGradient id="paint14_linear_3173_598786" x1="264.776" y1="151.032" x2="256.832" y2="147.114" gradientUnits="userSpaceOnUse">
<stop offset="2.09709e-07" stop-color="#C46084"/>
<stop offset="0.6972" stop-color="#C66487"/>
</linearGradient>
<linearGradient id="paint15_linear_3173_598786" x1="276.38" y1="158.33" x2="261.283" y2="150.887" gradientUnits="userSpaceOnUse">
<stop offset="2.09709e-07" stop-color="#C46084"/>
<stop offset="0.6972" stop-color="#C66487"/>
</linearGradient>
<linearGradient id="paint16_linear_3173_598786" x1="296.09" y1="152.665" x2="274.427" y2="141.983" gradientUnits="userSpaceOnUse">
<stop offset="2.09709e-07" stop-color="#C46084"/>
<stop offset="0.6972" stop-color="#C66487"/>
</linearGradient>
<linearGradient id="paint17_linear_3173_598786" x1="305.073" y1="161.506" x2="277.785" y2="148.05" gradientUnits="userSpaceOnUse">
<stop offset="2.09709e-07" stop-color="#C46084"/>
<stop offset="0.6972" stop-color="#C66487"/>
</linearGradient>
<linearGradient id="paint18_linear_3173_598786" x1="324.859" y1="166.864" x2="287.085" y2="148.238" gradientUnits="userSpaceOnUse">
<stop offset="2.09709e-07" stop-color="#C46084"/>
<stop offset="0.6972" stop-color="#C66487"/>
</linearGradient>
<linearGradient id="paint19_linear_3173_598786" x1="329.534" y1="173.271" x2="294.736" y2="156.113" gradientUnits="userSpaceOnUse">
<stop offset="2.09709e-07" stop-color="#C46084"/>
<stop offset="0.6972" stop-color="#C66487"/>
</linearGradient>
<linearGradient id="paint20_linear_3173_598786" x1="258.214" y1="53.4182" x2="203.547" y2="150.357" gradientUnits="userSpaceOnUse">
<stop stop-color="#FBC2D5"/>
<stop offset="0.6065" stop-color="#C46084"/>
</linearGradient>
<linearGradient id="paint21_linear_3173_598786" x1="341.224" y1="158.75" x2="298.812" y2="137.838" gradientUnits="userSpaceOnUse">
<stop offset="2.09709e-07" stop-color="#C46084"/>
<stop offset="0.6972" stop-color="#C66487"/>
</linearGradient>
<linearGradient id="paint22_linear_3173_598786" x1="241.542" y1="121.223" x2="232.514" y2="116.772" gradientUnits="userSpaceOnUse">
<stop stop-color="#FBC2D5"/>
<stop offset="0.8089" stop-color="#C46084"/>
</linearGradient>
<linearGradient id="paint23_linear_3173_598786" x1="253.042" y1="111.49" x2="245.491" y2="107.767" gradientUnits="userSpaceOnUse">
<stop stop-color="#FBC2D5"/>
<stop offset="0.7984" stop-color="#C46084"/>
</linearGradient>
<linearGradient id="paint24_linear_3173_598786" x1="294.519" y1="166.469" x2="281.614" y2="155.662" gradientUnits="userSpaceOnUse">
<stop offset="2.09709e-07" stop-color="#C46084"/>
<stop offset="0.6972" stop-color="#C66487"/>
</linearGradient>
<linearGradient id="paint25_linear_3173_598786" x1="272.675" y1="154.906" x2="256.757" y2="148.315" gradientUnits="userSpaceOnUse">
<stop offset="2.09709e-07" stop-color="#C46084"/>
<stop offset="0.6972" stop-color="#C66487"/>
</linearGradient>
<linearGradient id="paint26_linear_3173_598786" x1="262.426" y1="145.302" x2="254.442" y2="141.443" gradientUnits="userSpaceOnUse">
<stop offset="2.09709e-07" stop-color="#C46084"/>
<stop offset="0.6972" stop-color="#C66487"/>
</linearGradient>
<linearGradient id="paint27_linear_3173_598786" x1="257.477" y1="113.572" x2="250.54" y2="110.22" gradientUnits="userSpaceOnUse">
<stop stop-color="#FBC2D5"/>
<stop offset="0.5716" stop-color="#C76588"/>
<stop offset="0.8054" stop-color="#C46084"/>
</linearGradient>
<linearGradient id="paint28_linear_3173_598786" x1="145.661" y1="117.79" x2="153.835" y2="114.379" gradientUnits="userSpaceOnUse">
<stop offset="2.09709e-07" stop-color="#C46084"/>
<stop offset="0.6972" stop-color="#C66487"/>
</linearGradient>
<linearGradient id="paint29_linear_3173_598786" x1="132.13" y1="122.53" x2="147.664" y2="116.048" gradientUnits="userSpaceOnUse">
<stop offset="2.09709e-07" stop-color="#C46084"/>
<stop offset="0.6972" stop-color="#C66487"/>
</linearGradient>
<linearGradient id="paint30_linear_3173_598786" x1="119.355" y1="127.81" x2="141.646" y2="118.508" gradientUnits="userSpaceOnUse">
<stop offset="2.09709e-07" stop-color="#C46084"/>
<stop offset="0.6972" stop-color="#C66487"/>
</linearGradient>
<linearGradient id="paint31_linear_3173_598786" x1="109.836" y1="136.07" x2="137.914" y2="124.353" gradientUnits="userSpaceOnUse">
<stop offset="2.09709e-07" stop-color="#C46084"/>
<stop offset="0.6972" stop-color="#C66487"/>
</linearGradient>
<linearGradient id="paint32_linear_3173_598786" x1="89.7527" y1="140.177" x2="128.62" y2="123.957" gradientUnits="userSpaceOnUse">
<stop offset="2.09709e-07" stop-color="#C46084"/>
<stop offset="0.6972" stop-color="#C66487"/>
</linearGradient>
<linearGradient id="paint33_linear_3173_598786" x1="84.685" y1="146.278" x2="120.491" y2="131.337" gradientUnits="userSpaceOnUse">
<stop offset="2.09709e-07" stop-color="#C46084"/>
<stop offset="0.6972" stop-color="#D57E9D"/>
</linearGradient>
<linearGradient id="paint34_linear_3173_598786" x1="163.386" y1="31.1251" x2="211.868" y2="131.305" gradientUnits="userSpaceOnUse">
<stop stop-color="#FBC2D5"/>
<stop offset="0.9031" stop-color="#C46084"/>
</linearGradient>
<linearGradient id="paint35_linear_3173_598786" x1="76.4628" y1="156.349" x2="120.103" y2="138.138" gradientUnits="userSpaceOnUse">
<stop offset="2.09709e-07" stop-color="#C46084"/>
<stop offset="0.6972" stop-color="#D57E9D"/>
</linearGradient>
<linearGradient id="paint36_linear_3173_598786" x1="50.8722" y1="109.529" x2="138.83" y2="61.2241" gradientUnits="userSpaceOnUse">
<stop offset="0.0069808" stop-color="#FBC2D5"/>
<stop offset="0.9446" stop-color="#DD8EA5"/>
</linearGradient>
<radialGradient id="paint37_radial_3173_598786" cx="0" cy="0" r="1" gradientUnits="userSpaceOnUse" gradientTransform="translate(232.012 57.1423) rotate(-22.6494) scale(10.6652)">
<stop offset="0.0069808" stop-color="#FFEDBC"/>
<stop offset="0.9516" stop-color="#FFC882"/>
</radialGradient>
<linearGradient id="paint38_linear_3173_598786" x1="223.571" y1="60.6647" x2="240.454" y2="53.6198" gradientUnits="userSpaceOnUse">
<stop offset="0.0069808" stop-color="#FFEDBC"/>
<stop offset="0.9516" stop-color="#FFC882"/>
</linearGradient>
<linearGradient id="paint39_linear_3173_598786" x1="176.389" y1="96.5016" x2="185.678" y2="92.6253" gradientUnits="userSpaceOnUse">
<stop stop-color="#FBC2D5"/>
<stop offset="0.8089" stop-color="#C46084"/>
</linearGradient>
<linearGradient id="paint40_linear_3173_598786" x1="162.53" y1="108.883" x2="171.819" y2="105.006" gradientUnits="userSpaceOnUse">
<stop stop-color="#FBC2D5"/>
<stop offset="0.6518" stop-color="#C46084"/>
</linearGradient>
<linearGradient id="paint41_linear_3173_598786" x1="120.059" y1="141.686" x2="133.616" y2="131.709" gradientUnits="userSpaceOnUse">
<stop offset="0.1326" stop-color="#CF6C96"/>
<stop offset="0.6972" stop-color="#C66487"/>
</linearGradient>
<linearGradient id="paint42_linear_3173_598786" x1="141.226" y1="127.546" x2="157.151" y2="122.094" gradientUnits="userSpaceOnUse">
<stop offset="2.09709e-07" stop-color="#C46084"/>
<stop offset="0.6972" stop-color="#C66487"/>
</linearGradient>
<linearGradient id="paint43_linear_3173_598786" x1="151.651" y1="118.25" x2="159.853" y2="114.904" gradientUnits="userSpaceOnUse">
<stop offset="2.09709e-07" stop-color="#C46084"/>
<stop offset="0.6972" stop-color="#C66487"/>
</linearGradient>
<linearGradient id="paint44_linear_3173_598786" x1="157.514" y1="109.831" x2="165.715" y2="106.484" gradientUnits="userSpaceOnUse">
<stop offset="2.09709e-07" stop-color="#C46084"/>
<stop offset="0.6972" stop-color="#C66487"/>
</linearGradient>
<linearGradient id="paint45_linear_3173_598786" x1="157.25" y1="91.2079" x2="215.712" y2="155.11" gradientUnits="userSpaceOnUse">
<stop offset="0.0929" stop-color="#FFEDBC"/>
<stop offset="0.9516" stop-color="#FFC882"/>
</linearGradient>
<linearGradient id="paint46_linear_3173_598786" x1="135.012" y1="165.597" x2="252.693" y2="116.492" gradientUnits="userSpaceOnUse">
<stop offset="0.0069808" stop-color="#FFEDBC"/>
<stop offset="0.9516" stop-color="#FFC882"/>
</linearGradient>
<linearGradient id="paint47_linear_3173_598786" x1="190.486" y1="100.511" x2="222.023" y2="87.3521" gradientUnits="userSpaceOnUse">
<stop offset="0.0484" stop-color="#FFC882"/>
<stop offset="0.3237" stop-color="#FFCA85"/>
<stop offset="0.9071" stop-color="#FFEDBC"/>
</linearGradient>
<linearGradient id="paint48_linear_3173_598786" x1="197.446" y1="100.703" x2="228.724" y2="87.6514" gradientUnits="userSpaceOnUse">
<stop offset="0.0484" stop-color="#FFC882"/>
<stop offset="0.3237" stop-color="#FFCA85"/>
<stop offset="0.9071" stop-color="#FFEDBC"/>
</linearGradient>
<radialGradient id="paint49_radial_3173_598786" cx="0" cy="0" r="1" gradientUnits="userSpaceOnUse" gradientTransform="translate(199.872 51.8679) rotate(-22.6494) scale(11.0442)">
<stop offset="0.0069808" stop-color="#FFEDBC"/>
<stop offset="0.9516" stop-color="#FFC882"/>
</radialGradient>
<linearGradient id="paint50_linear_3173_598786" x1="185.007" y1="58.0705" x2="214.737" y2="45.6653" gradientUnits="userSpaceOnUse">
<stop offset="0.0069808" stop-color="#FFEDBC"/>
<stop offset="0.9516" stop-color="#FFC882"/>
</linearGradient>
<linearGradient id="paint51_linear_3173_598786" x1="183.797" y1="158.457" x2="179.985" y2="138.809" gradientUnits="userSpaceOnUse">
<stop offset="0.0484" stop-color="#FFC882"/>
<stop offset="0.9071" stop-color="#FFEDBC"/>
</linearGradient>
<linearGradient id="paint52_linear_3173_598786" x1="132.419" y1="123.487" x2="161.248" y2="111.458" gradientUnits="userSpaceOnUse">
<stop offset="0.0069808" stop-color="#FFEDBC"/>
<stop offset="0.9516" stop-color="#FFC882"/>
</linearGradient>
<radialGradient id="paint53_radial_3173_598786" cx="0" cy="0" r="1" gradientUnits="userSpaceOnUse" gradientTransform="translate(215.338 58.6876) rotate(-22.6494) scale(9.93547)">
<stop offset="0.0069808" stop-color="#FFEDBC"/>
<stop offset="0.9516" stop-color="#FFC882"/>
</radialGradient>
<linearGradient id="paint54_linear_3173_598786" x1="205.141" y1="62.9415" x2="225.535" y2="54.4319" gradientUnits="userSpaceOnUse">
<stop offset="0.0069808" stop-color="#FFEDBC"/>
<stop offset="0.9516" stop-color="#FFC882"/>
</linearGradient>
<radialGradient id="paint55_radial_3173_598786" cx="0" cy="0" r="1" gradientUnits="userSpaceOnUse" gradientTransform="translate(332.752 40.6791) rotate(154.509) scale(7.20872 6.85433)">
<stop offset="0.0069808" stop-color="#FFEDBC"/>
<stop offset="0.9516" stop-color="#FFC882"/>
</radialGradient>
<linearGradient id="paint56_linear_3173_598786" x1="341.877" y1="36.3283" x2="322.994" y2="43.3208" gradientUnits="userSpaceOnUse">
<stop offset="0.0069808" stop-color="#FFEDBC"/>
<stop offset="0.9516" stop-color="#FFC882"/>
</linearGradient>
<linearGradient id="paint57_linear_3173_598786" x1="272.149" y1="125.168" x2="246.99" y2="106.65" gradientUnits="userSpaceOnUse">
<stop offset="0.0069808" stop-color="#FFEDBC"/>
<stop offset="0.9516" stop-color="#FFC882"/>
</linearGradient>
<linearGradient id="paint58_linear_3173_598786" x1="159.903" y1="129.57" x2="239.714" y2="96.2672" gradientUnits="userSpaceOnUse">
<stop stop-color="#FFC882"/>
<stop offset="1" stop-color="#FFCD89"/>
</linearGradient>
<linearGradient id="paint59_linear_3173_598786" x1="1.35797" y1="137.153" x2="183.444" y2="206.535" gradientUnits="userSpaceOnUse">
<stop offset="0.0069808" stop-color="#FBC2D5"/>
<stop offset="0.9446" stop-color="#DD8EA5"/>
</linearGradient>
<linearGradient id="paint60_linear_3173_598786" x1="88.0649" y1="200.084" x2="165.154" y2="167.915" gradientUnits="userSpaceOnUse">
<stop stop-color="#F8BCD0"/>
<stop offset="0.9913" stop-color="#DF92A9"/>
</linearGradient>
<linearGradient id="paint61_linear_3173_598786" x1="55.7196" y1="218.397" x2="158.527" y2="175.496" gradientUnits="userSpaceOnUse">
<stop stop-color="#F8BCD0"/>
<stop offset="0.9913" stop-color="#DF92A9"/>
</linearGradient>
<linearGradient id="paint62_linear_3173_598786" x1="54.4069" y1="108.515" x2="57.796" y2="109.807" gradientUnits="userSpaceOnUse">
<stop offset="0.0069808" stop-color="#FBC2D5"/>
<stop offset="0.9446" stop-color="#DD8EA5"/>
</linearGradient>
<linearGradient id="paint63_linear_3173_598786" x1="62.6103" y1="86.3869" x2="71.4316" y2="89.7481" gradientUnits="userSpaceOnUse">
<stop offset="0.0069808" stop-color="#FBC2D5"/>
<stop offset="0.9446" stop-color="#DD8EA5"/>
</linearGradient>
<linearGradient id="paint64_linear_3173_598786" x1="61.0869" y1="95.9547" x2="63.9571" y2="97.0484" gradientUnits="userSpaceOnUse">
<stop offset="0.0069808" stop-color="#FBC2D5"/>
<stop offset="0.9446" stop-color="#DD8EA5"/>
</linearGradient>
<linearGradient id="paint65_linear_3173_598786" x1="115.241" y1="71.3463" x2="118.061" y2="72.4209" gradientUnits="userSpaceOnUse">
<stop offset="0.0069808" stop-color="#FBC2D5"/>
<stop offset="0.9446" stop-color="#DD8EA5"/>
</linearGradient>
<linearGradient id="paint66_linear_3173_598786" x1="121.361" y1="67.6281" x2="125.724" y2="69.2908" gradientUnits="userSpaceOnUse">
<stop offset="0.0069808" stop-color="#FBC2D5"/>
<stop offset="0.9446" stop-color="#DD8EA5"/>
</linearGradient>
<linearGradient id="paint67_linear_3173_598786" x1="194.952" y1="108.563" x2="223.351" y2="97.8583" gradientUnits="userSpaceOnUse">
<stop offset="0.0484" stop-color="#FFC882" stop-opacity="0.5"/>
<stop offset="0.3237" stop-color="#FFCA85"/>
<stop offset="0.9071" stop-color="#FFEDBC"/>
</linearGradient>
<linearGradient id="paint68_linear_3173_598786" x1="187.745" y1="96.2361" x2="219.282" y2="83.0768" gradientUnits="userSpaceOnUse">
<stop offset="0.0484" stop-color="#FFC882" stop-opacity="0.5"/>
<stop offset="0.3237" stop-color="#FFCA85"/>
<stop offset="0.9071" stop-color="#FFEDBC"/>
</linearGradient>
<linearGradient id="paint69_linear_3173_598786" x1="201.776" y1="98.896" x2="233.053" y2="85.8449" gradientUnits="userSpaceOnUse">
<stop offset="0.0484" stop-color="#FFC882" stop-opacity="0.6"/>
<stop offset="0.3237" stop-color="#FFCA85"/>
<stop offset="0.9071" stop-color="#FFEDBC"/>
</linearGradient>
<clipPath id="clip0_3173_598786">
<rect width="358.72" height="242.59" fill="white" transform="scale(1.00078)"/>
</clipPath>
</defs>
</svg>
