<svg width="120" height="120" viewBox="0 0 120 120" fill="none" xmlns="http://www.w3.org/2000/svg">
<g clip-path="url(#clip0_4923_349491)">
<path d="M24.9131 40.6155C20.6787 39.9577 17.5542 36.5455 17.8831 32.311C18.212 28.0766 15.8687 24.1299 18.0475 23.0199C20.2264 21.9099 27.7909 29.4744 28.1198 33.7088" stroke="#D87290" stroke-width="1.64444" stroke-miterlimit="10" stroke-linecap="round" stroke-linejoin="round"/>
<path d="M5.71445 46.2066C5.71445 46.2066 4.56334 44.7677 4.85112 44.0688C5.34445 42.8766 9.00334 43.6166 12.0456 41.0266C15.0878 38.4366 17.7189 33.5854 17.7189 33.5854" stroke="#D87290" stroke-width="1.64444" stroke-miterlimit="10" stroke-linecap="round" stroke-linejoin="round"/>
<path d="M4.64542 44.5211C4.64542 44.5211 2.21987 42.9589 1.35653 44.6855C0.945421 45.5078 0.863197 48.4266 1.84986 51.14C3.37098 55.3333 5.50875 56.6078 6.98875 56.0322C9.78431 54.9222 9.86653 52.4966 13.4021 52.3322C17.6776 52.1266 21.3776 46.2478 29.0243 47.3578C36.671 48.4678 47.1543 44.6444 53.3621 40.2455C59.5699 35.8055 65.3254 35.3533 68.2443 41.7255C71.1632 48.0978 65.2021 52.0444 68.121 54.7578C69.601 56.1144 67.3399 50.2355 71.6154 49.7422" stroke="#D87290" stroke-width="1.64444" stroke-miterlimit="10" stroke-linecap="round" stroke-linejoin="round"/>
<path d="M26.3931 29.3511C29.5586 28.6111 31.0797 31.8588 43.1664 27.46C55.2531 23.0611 80.0431 24.13 93.8975 27.5422C107.752 30.9544 108.451 26.5144 108.533 24.0477C110.712 27.2544 110.26 30.4611 107.505 31.7766C104.998 32.9688 103.641 33.7088 100.27 32.5988C96.8986 31.4888 94.5142 30.2555 95.2131 33.5855C95.8708 36.9155 97.2275 37.5322 95.542 39.3411C93.8564 41.1911 98.3786 44.9733 96.1175 46.4533C93.8564 47.9333 93.1986 48.6733 93.9797 50.5233C94.7608 52.3733 94.3086 55.1688 89.1286 56.4022" stroke="#D87290" stroke-width="1.64444" stroke-miterlimit="10" stroke-linecap="round" stroke-linejoin="round"/>
<path d="M7.93433 55.9088C9.86655 57.3066 13.4432 58.4988 17.9243 58.3755C22.4054 58.2933 31.2032 58.7455 33.2177 66.1044C35.2321 73.4633 35.2732 77.451 37.2877 79.9999C38.3977 81.4388 39.4254 87.9344 37.7399 90.6477" stroke="#D87290" stroke-width="1.64444" stroke-miterlimit="10" stroke-linecap="round" stroke-linejoin="round"/>
<path d="M41.1521 91.5111C39.8366 90.9766 38.151 90.8944 37.4521 91.2644C36.7121 91.6344 35.3144 94.3477 35.5199 96.1155C37.6577 97.76 40.9466 97.6366 42.3032 96.4855C42.8377 93.8544 41.1521 91.5111 41.1521 91.5111Z" stroke="#D87290" stroke-width="1.64444" stroke-miterlimit="10" stroke-linecap="round" stroke-linejoin="round"/>
<path d="M38.2332 93.8544L37.4932 96.8555" stroke="#D87290" stroke-width="1.64444" stroke-miterlimit="10" stroke-linecap="round" stroke-linejoin="round"/>
<path d="M97.0633 91.7578C95.7477 91.2233 94.0622 91.1411 93.3633 91.5111C92.6233 91.8811 91.2255 94.5944 91.431 96.3622C93.5688 98.0067 96.8577 97.8833 98.2144 96.7322C98.7488 94.1011 97.0633 91.7578 97.0633 91.7578Z" stroke="#D87290" stroke-width="1.64444" stroke-miterlimit="10" stroke-linecap="round" stroke-linejoin="round"/>
<path d="M94.1443 94.1011L93.4043 97.1022" stroke="#D87290" stroke-width="1.64444" stroke-miterlimit="10" stroke-linecap="round" stroke-linejoin="round"/>
<path d="M90.2798 88.0988C88.9643 87.5644 87.2787 87.4822 86.5798 87.8522C85.8398 88.2222 84.442 90.9355 84.6476 92.7033C86.7854 94.3477 90.0743 94.2244 91.4309 93.0733C91.9654 90.401 90.2798 88.0988 90.2798 88.0988Z" stroke="#D87290" stroke-width="1.64444" stroke-miterlimit="10" stroke-linecap="round" stroke-linejoin="round"/>
<path d="M87.3608 90.4011L86.6208 93.4434" stroke="#D87290" stroke-width="1.64444" stroke-miterlimit="10" stroke-linecap="round" stroke-linejoin="round"/>
<path d="M32.3543 88.2633C31.0387 87.7288 29.3532 87.6466 28.6543 88.0166C27.9143 88.3866 26.5165 91.0999 26.7221 92.8677C28.8598 94.5121 32.1487 94.3888 33.5054 93.2377C34.0398 90.6066 32.3543 88.2633 32.3543 88.2633Z" stroke="#D87290" stroke-width="1.64444" stroke-miterlimit="10" stroke-linecap="round" stroke-linejoin="round"/>
<path d="M29.4353 90.6066L28.6953 93.6077" stroke="#D87290" stroke-width="1.64444" stroke-miterlimit="10" stroke-linecap="round" stroke-linejoin="round"/>
<path d="M9.86646 54.3466C17.1842 55.8266 23.1865 49.4544 28.8187 50.8933C34.4509 52.3733 40.412 50.4 44.7287 48.55C49.0453 46.7 50.4842 44.48 53.0742 46.7C55.6642 48.92 52.8687 59.7322 61.1731 61.5411C69.4776 63.35 74.2465 56.4022 74.2465 56.4022" stroke="#D87290" stroke-width="1.64444" stroke-miterlimit="10" stroke-linecap="round" stroke-linejoin="round"/>
<path d="M71.9854 51.6333C73.9176 51.51 74.5753 52.62 73.9998 54.2233C73.4242 55.8266 75.1098 58.4166 77.4942 55.2099C79.8787 52.0033 76.5898 49.3311 74.5753 48.5911" stroke="#D87290" stroke-width="1.64444" stroke-miterlimit="10" stroke-linecap="round" stroke-linejoin="round"/>
<path d="M73.8764 44.0277C72.5197 40.5744 74.082 36.9155 77.1653 36.4222C80.2486 35.9289 80.7831 37.2855 84.3597 35.1889C87.9364 33.0922 93.2808 35.9289 93.0342 37.5322C92.8286 39.1355 88.1831 40.7389 85.1408 40.2455" stroke="#D87290" stroke-width="1.64444" stroke-miterlimit="10" stroke-linecap="round" stroke-linejoin="round"/>
<path d="M90.2389 39.9576C94.5144 43.1643 93.9389 47.4399 88.1011 49.2899" stroke="#D87290" stroke-width="1.64444" stroke-miterlimit="10" stroke-linecap="round" stroke-linejoin="round"/>
<path d="M91.3899 55.6622C92.6232 53.1956 91.7187 49.5367 89.8276 48.6733" stroke="#D87290" stroke-width="1.64444" stroke-miterlimit="10" stroke-linecap="round" stroke-linejoin="round"/>
<path d="M70.5054 49.66C70.7109 46.5766 71.3276 43.4522 73.3009 43.1233" stroke="#D87290" stroke-width="1.64444" stroke-miterlimit="10" stroke-linecap="round" stroke-linejoin="round"/>
<path d="M42.3442 93.2377C44.7287 89.4143 42.5498 80.8221 44.8109 77.0399C47.072 73.2577 46.1676 67.5843 53.6087 67.7077C61.0498 67.831 65.3253 70.6677 74.3698 68.201C83.3731 65.7343 85.8809 66.8443 87.772 69.5577C89.7042 72.271 95.2131 77.1632 94.3087 83.4121C93.4042 89.661 93.3631 91.511 93.3631 91.511" stroke="#D87290" stroke-width="1.64444" stroke-miterlimit="10" stroke-linecap="round" stroke-linejoin="round"/>
<path d="M97.9266 93.1144C99.2832 87.9755 102.202 83.4121 100.311 74.2033C98.3788 64.9944 108.657 57.5121 109.561 48.9199C110.465 40.3277 107.752 36.9977 105.162 36.9977C102.572 36.9977 99.4065 35.5177 99.4065 35.5177C99.4065 35.5177 99.6121 38.601 98.5021 39.9577C97.3921 41.3144 101.421 45.0966 98.9543 46.9466C96.4877 48.7966 97.8443 50.7699 98.0499 52.7021C98.2554 54.6344 94.3499 59.8144 87.8954 59.8144C81.4821 59.8144 82.0166 56.731 82.921 55.4977C83.8254 54.2644 87.1965 54.7577 87.0732 53.401C86.9499 52.0444 83.0032 54.511 82.3454 50.9344C81.6877 47.3577 85.2643 46.2888 87.5254 45.9188C89.7865 45.5488 89.4577 42.8355 86.1688 43.3288C82.8799 43.8221 79.5088 42.8766 78.851 39.7521C78.3988 37.6555 75.3565 40.2455 76.8365 43.0821C78.3165 45.9188 80.5365 44.9321 80.9065 46.7821C81.2354 48.6321 81.3588 50.9755 78.0699 51.551" stroke="#D87290" stroke-width="1.64444" stroke-miterlimit="10" stroke-linecap="round" stroke-linejoin="round"/>
<path d="M29.271 87.7288C31.0799 84.8922 32.3132 79.1366 32.1077 74.5733C31.9021 70.0511 31.7788 63.3088 31.7788 63.3088" stroke="#D87290" stroke-width="1.64444" stroke-miterlimit="10" stroke-linecap="round" stroke-linejoin="round"/>
<path d="M33.5466 90.5244C33.5466 90.5244 36.0133 88.7978 38.0689 82.0555" stroke="#D87290" stroke-width="1.64444" stroke-miterlimit="10" stroke-linecap="round" stroke-linejoin="round"/>
<path d="M86.5798 87.8522C86.5798 87.8522 89.0054 78.3966 87.5665 69.311" stroke="#D87290" stroke-width="1.64444" stroke-miterlimit="10" stroke-linecap="round" stroke-linejoin="round"/>
<path d="M90.8142 88.8799L94.1442 80.6166" stroke="#D87290" stroke-width="1.64444" stroke-miterlimit="10" stroke-linecap="round" stroke-linejoin="round"/>
</g>
<defs>
<clipPath id="clip0_4923_349491">
<rect width="111" height="76.4667" fill="white" transform="translate(0 22.0333)"/>
</clipPath>
</defs>
</svg>
