<svg width="120" height="120" viewBox="0 0 120 120" fill="none" xmlns="http://www.w3.org/2000/svg">
<g clip-path="url(#clip0_4923_349483)">
<path d="M68.7377 34.6475C68.6024 35.504 68.4221 36.3606 68.1516 37.3073" stroke="#4F6690" stroke-width="1.80328" stroke-linecap="round" stroke-linejoin="round"/>
<path d="M66.4386 42.4467C66.2132 43.0778 65.9427 43.7089 65.6722 44.3852C62.4263 52.7704 55.7542 68.504 55.3034 80.0901C55.3034 80.4958 55.2583 80.8565 55.2583 81.2171" stroke="#4F6690" stroke-width="1.80328" stroke-linecap="round" stroke-linejoin="round" stroke-dasharray="5.41 5.41"/>
<path d="M55.1681 83.9221C55.123 84.8688 55.0329 85.7705 54.9878 86.627" stroke="#4F6690" stroke-width="1.80328" stroke-linecap="round" stroke-linejoin="round"/>
<path d="M54.7624 88.1146C54.1313 92.3523 52.5534 95.1925 48.0001 97.4015C41.0575 100.738 20.5001 99.4302 15.3608 86.0408C10.2215 72.6515 13.828 63.7703 20.3649 56.963C26.9018 50.1556 28.9756 46.3236 31.7256 39.381C34.4756 32.4384 38.8034 27.4343 43.0862 24.9097C49.3977 21.213 61.1641 19.6351 65.9428 25.4056C68.0165 27.8851 68.5575 32.4834 68.5575 35.008C68.5575 35.008 69.0534 29.6884 71.2174 27.3892C74.7338 23.6023 80.9551 19.1392 88.5739 25.9466C100.07 36.2252 105.705 69.0449 99.078 82.5244C92.451 96.0039 76.2665 101.865 65.8526 99.2498C56.4756 96.9056 55.4387 92.8482 54.9428 86.8974L54.7624 88.1146Z" stroke="#4F6690" stroke-width="1.80328" stroke-miterlimit="10" stroke-linecap="round" stroke-linejoin="round"/>
<path d="M36.5945 58.3606C40.9674 57.2786 50.2994 64.627 46.783 73.1024C43.3117 81.5778 27.5781 81.4876 25.8199 74.0942C24.1068 66.6556 28.4346 60.3892 36.5945 58.3606Z" stroke="#4F6690" stroke-width="2.2541" stroke-miterlimit="10" stroke-linecap="round" stroke-linejoin="round"/>
<path d="M39.0739 66.836C40.6969 65.7991 44.3485 66.3401 44.3034 69.2254C44.2583 72.1106 40.4714 73.3278 39.119 72.5614C37.7665 71.795 36.3239 68.6393 39.0739 66.836Z" stroke="#4F6690" stroke-width="2.2541" stroke-miterlimit="10" stroke-linecap="round" stroke-linejoin="round"/>
<path d="M88.8895 80.045C86.5002 83.2909 75.9961 82.9753 73.6067 74.6351C71.2625 66.295 82.0821 57.5491 87.4469 62.1925C92.8116 66.836 93.3977 73.9138 88.8895 80.045Z" stroke="#4F6690" stroke-width="2.2541" stroke-miterlimit="10" stroke-linecap="round" stroke-linejoin="round"/>
<path d="M83.164 74.2295C82.623 75.9426 79.8279 77.5655 78.205 75.3565C76.582 73.1475 78.5205 70.0819 79.873 69.9467C81.2255 69.7663 84.0206 71.3442 83.164 74.2295Z" stroke="#4F6690" stroke-width="2.2541" stroke-miterlimit="10" stroke-linecap="round" stroke-linejoin="round"/>
<path d="M69.2789 19.6351L66.1682 24.8196" stroke="#4F6690" stroke-width="1.80328" stroke-miterlimit="10" stroke-linecap="round" stroke-linejoin="round"/>
<path d="M60.8486 16.254L60.3076 21.8442" stroke="#4F6690" stroke-width="1.80328" stroke-miterlimit="10" stroke-linecap="round" stroke-linejoin="round"/>
<path d="M52.3279 16.254L52.418 21.6188" stroke="#4F6690" stroke-width="1.80328" stroke-miterlimit="10" stroke-linecap="round" stroke-linejoin="round"/>
<path d="M41.283 18.0573L43.8977 23.9179" stroke="#4F6690" stroke-width="1.80328" stroke-miterlimit="10" stroke-linecap="round" stroke-linejoin="round"/>
<path d="M31.0044 25.9917L36.0987 31.4466" stroke="#4F6690" stroke-width="1.80328" stroke-miterlimit="10" stroke-linecap="round" stroke-linejoin="round"/>
<path d="M26.947 36.7212L31.5003 38.9302" stroke="#4F6690" stroke-width="1.80328" stroke-miterlimit="10" stroke-linecap="round" stroke-linejoin="round"/>
<path d="M23.2952 43.4384L27.578 47.0449" stroke="#4F6690" stroke-width="1.80328" stroke-miterlimit="10" stroke-linecap="round" stroke-linejoin="round"/>
<path d="M18.4714 50.7417L23.1149 53.8974" stroke="#4F6690" stroke-width="1.80328" stroke-miterlimit="10" stroke-linecap="round" stroke-linejoin="round"/>
<path d="M11.2583 58.4958L16.3526 60.9754" stroke="#4F6690" stroke-width="1.80328" stroke-miterlimit="10" stroke-linecap="round" stroke-linejoin="round"/>
<path d="M5.26245 73.5081L12.5657 72.922" stroke="#4F6690" stroke-width="1.80328" stroke-miterlimit="10" stroke-linecap="round" stroke-linejoin="round"/>
<path d="M6.70508 86.6721L13.9182 83.1106" stroke="#4F6690" stroke-width="1.80328" stroke-miterlimit="10" stroke-linecap="round" stroke-linejoin="round"/>
<path d="M13.4673 97.131L18.2911 91.3154" stroke="#4F6690" stroke-width="1.80328" stroke-miterlimit="10" stroke-linecap="round" stroke-linejoin="round"/>
<path d="M21.8977 100.873L24.242 95.7786" stroke="#4F6690" stroke-width="1.80328" stroke-miterlimit="10" stroke-linecap="round" stroke-linejoin="round"/>
<path d="M30.283 104.705L31.3198 98.213" stroke="#4F6690" stroke-width="1.80328" stroke-miterlimit="10" stroke-linecap="round" stroke-linejoin="round"/>
<path d="M41.869 105.877L40.0657 99.1146" stroke="#4F6690" stroke-width="1.80328" stroke-miterlimit="10" stroke-linecap="round" stroke-linejoin="round"/>
<path d="M53.2298 102.586L49.5781 96.6802" stroke="#4F6690" stroke-width="1.80328" stroke-miterlimit="10" stroke-linecap="round" stroke-linejoin="round"/>
<path d="M59.1355 104.119L61.2093 97.8073" stroke="#4F6690" stroke-width="1.80328" stroke-miterlimit="10" stroke-linecap="round" stroke-linejoin="round"/>
<path d="M66.7993 105.561C66.9796 105.561 68.2419 99.9261 68.2419 99.9261" stroke="#4F6690" stroke-width="1.80328" stroke-miterlimit="10" stroke-linecap="round" stroke-linejoin="round"/>
<path d="M76.3115 105.201L75.7705 99.4303" stroke="#4F6690" stroke-width="1.80328" stroke-miterlimit="10" stroke-linecap="round" stroke-linejoin="round"/>
<path d="M84.4263 103.848L82.2173 97.8524" stroke="#4F6690" stroke-width="1.80328" stroke-miterlimit="10" stroke-linecap="round" stroke-linejoin="round"/>
<path d="M95.5166 98.3483L90.6477 92.9835" stroke="#4F6690" stroke-width="1.80328" stroke-miterlimit="10" stroke-linecap="round" stroke-linejoin="round"/>
<path d="M104.488 91.3154L97.1396 86.0859" stroke="#4F6690" stroke-width="1.80328" stroke-miterlimit="10" stroke-linecap="round" stroke-linejoin="round"/>
<path d="M111.746 81.9835L100.971 79.1433" stroke="#4F6690" stroke-width="1.80328" stroke-miterlimit="10" stroke-linecap="round" stroke-linejoin="round"/>
<path d="M110.168 70.0368L102.955 69.045" stroke="#4F6690" stroke-width="1.80328" stroke-miterlimit="10" stroke-linecap="round" stroke-linejoin="round"/>
<path d="M111.34 60.299L102.639 60.0736" stroke="#4F6690" stroke-width="1.80328" stroke-miterlimit="10" stroke-linecap="round" stroke-linejoin="round"/>
<path d="M112.738 51.3278L101.558 53.2663" stroke="#4F6690" stroke-width="1.80328" stroke-miterlimit="10" stroke-linecap="round" stroke-linejoin="round"/>
<path d="M107.012 43.7089L99.4387 45.8728" stroke="#4F6690" stroke-width="1.80328" stroke-miterlimit="10" stroke-linecap="round" stroke-linejoin="round"/>
<path d="M105.39 34.2867L97.0945 39.1105" stroke="#4F6690" stroke-width="1.80328" stroke-miterlimit="10" stroke-linecap="round" stroke-linejoin="round"/>
<path d="M99.7091 29.5081L94.5247 33.34" stroke="#4F6690" stroke-width="1.80328" stroke-miterlimit="10" stroke-linecap="round" stroke-linejoin="round"/>
<path d="M94.7501 21.0327L90.2419 27.4344" stroke="#4F6690" stroke-width="1.80328" stroke-miterlimit="10" stroke-linecap="round" stroke-linejoin="round"/>
<path d="M83.9306 14.9917L83.4797 22.5204" stroke="#4F6690" stroke-width="1.80328" stroke-miterlimit="10" stroke-linecap="round" stroke-linejoin="round"/>
<path d="M73.291 19.2294L74.6885 23.8728" stroke="#4F6690" stroke-width="1.80328" stroke-miterlimit="10" stroke-linecap="round" stroke-linejoin="round"/>
<path d="M68.287 35.9098C66.123 30.9057 60.3075 21.9344 46.4222 28.1106C32.537 34.2868 35.828 47.9467 26.6763 56.1967C12.5657 68.8196 16.1722 85.2295 25.6845 90.7295C36.1435 96.7254 46.1517 95.4631 55.1681 85.9959C59.3157 93.0286 68.0616 97.1762 79.2419 93.8852C90.4222 90.5942 95.2911 82.2991 96.5534 73.2827C97.8607 64.2663 96.5534 50.3811 93.5329 42.2213C90.6476 34.377 86.6804 26.3073 77.9345 28.6065C72.164 30.0491 68.287 35.9098 68.287 35.9098Z" stroke="#4F6690" stroke-width="1.80328" stroke-miterlimit="10" stroke-linecap="round" stroke-linejoin="round"/>
</g>
<defs>
<clipPath id="clip0_4923_349483">
<rect width="110" height="92.8689" fill="white" transform="translate(4 14)"/>
</clipPath>
</defs>
</svg>
