<svg width="120" height="120" viewBox="0 0 120 120" fill="none" xmlns="http://www.w3.org/2000/svg">
<g clip-path="url(#clip0_4923_349482)">
<g clip-path="url(#clip1_4923_349482)">
<path d="M56.9483 16.5871C76.8693 17.6983 98.9264 39.6097 94.478 70.5516C90.0295 101.494 42.603 105.002 25.062 74.5123C8.91244 46.437 34.2851 15.3315 56.9483 16.5871Z" stroke="#4F6690" stroke-width="2.39691" stroke-miterlimit="10" stroke-linecap="round" stroke-linejoin="round"/>
<path d="M47.7587 23.2815C53.4114 20.1764 67.4956 21.2822 79.0372 36.2247" stroke="#4F6690" stroke-width="2.39691" stroke-miterlimit="10" stroke-linecap="round" stroke-linejoin="round"/>
<path d="M33.4424 38.8494C39.952 35.1802 52.4215 36.8396 52.7947 48.1396C53.168 59.4396 42.1256 68.534 32.1205 63.0126C24.5828 58.8597 24.2738 44.0281 33.4424 38.8494Z" stroke="#4F6690" stroke-width="2.39691" stroke-miterlimit="10" stroke-linecap="round" stroke-linejoin="round"/>
<path d="M45.2474 45.7604C48.4158 46.8657 49.4156 51.2763 45.8419 52.0604C42.2682 52.8445 40.2419 51.376 40.2736 49.1023C40.3052 46.8286 42.3053 44.7339 45.2474 45.7604Z" stroke="#4F6690" stroke-width="2.39691" stroke-miterlimit="10" stroke-linecap="round" stroke-linejoin="round"/>
<path d="M74.1037 59.5341C93.3303 51.721 111.128 47.4206 122.866 48.2663C110.724 41.5932 98.6517 43.017 98.6517 43.017C98.6517 43.017 108.93 38.7332 116.493 34.5176C95.5994 33.5748 81.0938 40.9532 67.5609 48.1633C67.5472 48.057 64.4901 56.3832 74.1037 59.5341Z" fill="#4F6690"/>
<path d="M30.3502 82.3483C28.2996 83.7145 25.0596 85.5797 23.0543 86.9617C28.3058 87.6261 34.0962 93.1495 34.0962 93.1495C34.0962 93.1495 15.3709 93.2677 8.1487 94.7591C10.3595 88.4223 14.0915 74.0866 14.0915 74.0866C18.2851 77.7836 18.3934 81.9847 18.3934 81.9847C18.3934 81.9847 20.8661 79.6995 25.9252 75.6765L30.3502 82.3483Z" fill="#4F6690"/>
<path d="M59.1372 33.5978C59.1372 33.5978 67.4465 40.0507 68.5619 49.2234" stroke="#4F6690" stroke-width="2.39691" stroke-miterlimit="10" stroke-linecap="round" stroke-linejoin="round"/>
<path d="M72.1266 39.2971C72.1266 39.2971 74.4254 44.0593 70.8 47.4655" stroke="#4F6690" stroke-width="2.39691" stroke-miterlimit="10" stroke-linecap="round" stroke-linejoin="round"/>
<path d="M55.7672 48.0596C55.7672 48.0596 64.0936 46.7505 69.1302 54.1433" stroke="#4F6690" stroke-width="2.39691" stroke-miterlimit="10" stroke-linecap="round" stroke-linejoin="round"/>
<path d="M77.6716 73.3194C77.6716 73.3194 81.035 65.8616 75.9248 57.2246" stroke="#4F6690" stroke-width="2.39691" stroke-miterlimit="10" stroke-linecap="round" stroke-linejoin="round"/>
<path d="M69.8507 68.8139C69.8507 68.8139 72.3603 64.9677 72.7037 57.7256" stroke="#4F6690" stroke-width="2.39691" stroke-miterlimit="10" stroke-linecap="round" stroke-linejoin="round"/>
<path d="M87.4256 65.2988C87.4256 65.2988 85.6322 56.905 78.4691 56.3353" stroke="#4F6690" stroke-width="2.39691" stroke-miterlimit="10" stroke-linecap="round" stroke-linejoin="round"/>
<path d="M63.2573 61.081L69.4618 55.376" stroke="#4F6690" stroke-width="2.39691" stroke-miterlimit="10" stroke-linecap="round" stroke-linejoin="round"/>
<path d="M34.2146 75.9284C34.2146 75.9284 45.7455 93.812 74.2289 89.7361" stroke="#4F6690" stroke-width="2.39691" stroke-miterlimit="10" stroke-linecap="round" stroke-linejoin="round"/>
</g>
</g>
<defs>
<clipPath id="clip0_4923_349482">
<rect width="120" height="120" fill="white"/>
</clipPath>
<clipPath id="clip1_4923_349482">
<rect width="98.2732" height="93" fill="white" transform="translate(33.7866 5.40942) rotate(19.2327)"/>
</clipPath>
</defs>
</svg>
