<svg width="140" height="140" viewBox="0 0 140 140" fill="none" xmlns="http://www.w3.org/2000/svg">
<path d="M71.0053 36.0478C50.5266 36.1887 34.1642 53.0982 33.3655 72.622C32.4749 94.3939 51.1744 113.638 73.3709 112.423C94.4792 111.268 110.789 92.0475 109.075 71.1159C107.496 51.8338 91.0152 35.9105 71.0053 36.0478Z" fill="#C2AFB7" stroke="#48343D" stroke-width="0.190502" stroke-miterlimit="10"/>
<path d="M71.0192 35.8055C51.6483 35.9386 36.1712 51.9336 35.4156 70.4011C34.5731 90.9952 52.2613 109.198 73.2568 108.049C93.2232 106.957 108.651 88.7761 107.029 68.9766C105.536 50.7376 89.9466 35.6754 71.0192 35.8055Z" fill="url(#paint0_radial_4823_341795)"/>
<path d="M71.0192 35.8055C51.6483 35.9386 36.1712 51.9336 35.4156 70.4011C34.5731 90.9952 52.2613 109.198 73.2568 108.049C93.2232 106.957 108.651 88.7761 107.029 68.9766C105.536 50.7376 89.9466 35.6754 71.0192 35.8055Z" fill="url(#paint1_radial_4823_341795)"/>
<path d="M66.6759 48.7555C66.5027 47.2208 66.2499 45.8208 65.9656 44.5717C65.2664 45.6794 64.5668 46.7867 63.8676 47.894C64.3683 46.5811 64.9473 44.5361 64.8118 42.0533C64.6141 38.4317 62.9969 35.7341 61.456 33.2285C59.4322 29.9373 57.4698 28.1269 57.602 28.0059C57.74 27.8794 59.925 29.8121 61.9313 32.365C62.8742 33.5643 63.5676 34.6339 64.0326 35.402L64.5022 36.2001L64.7363 36.6005L64.9543 37.0097L65.3903 37.8297L65.7919 38.668C67.923 43.1502 69.0176 48.1606 69.008 53.2008V53.205C68.9509 53.2821 68.5422 53.8169 67.8352 53.8504C67.3714 53.8724 67.032 53.6668 66.9109 53.5851C66.9329 52.1478 66.8757 50.5244 66.6759 48.7555Z" fill="#C2AFB7" stroke="#48343D" stroke-width="0.190502" stroke-miterlimit="10"/>
<path d="M74.3185 48.7555C74.4917 47.2208 74.7445 45.8208 75.0289 44.5717C75.728 45.6794 76.4276 46.7867 77.1268 47.894C76.6261 46.5811 76.0472 44.5361 76.1827 42.0533C76.3804 38.4317 77.9975 35.7341 79.5385 33.2285C81.5622 29.9373 83.5246 28.1269 83.3924 28.0059C83.2544 27.8794 81.0694 29.8121 79.0631 32.365C78.1202 33.5643 77.4269 34.6339 76.9619 35.402L76.4923 36.2001L76.2581 36.6005L76.0401 37.0097L75.6041 37.8297L75.2025 38.668C73.0714 43.1502 71.9769 48.1606 71.9864 53.2008V53.205C72.0436 53.2821 72.4522 53.8169 73.1593 53.8504C73.623 53.8724 73.9625 53.6668 74.0835 53.5851C74.0615 52.1478 74.1187 50.5244 74.3185 48.7555Z" fill="#C2AFB7" stroke="#48343D" stroke-width="0.190502" stroke-miterlimit="10"/>
<path d="M48.989 56.0826C47.6731 55.2746 46.414 54.6122 45.2552 54.0683C45.6974 55.3012 46.1401 56.5341 46.5823 57.767C45.8558 56.5643 44.6008 54.8493 42.5609 53.4282C39.5852 51.3554 36.4644 50.9702 33.5421 50.6427C29.7031 50.2128 27.0693 50.646 27.0547 50.4674C27.0398 50.2808 29.9078 49.7477 33.1542 49.7365C34.6794 49.7315 35.9492 49.8426 36.8407 49.9488L37.7587 50.0698L38.2183 50.1316L38.675 50.2116L39.5897 50.3724L40.4974 50.5714C45.3406 51.6497 49.9629 53.8701 53.9284 56.9797L53.9317 56.9822C53.9574 57.0746 54.1273 57.7259 53.7187 58.3042C53.4505 58.6831 53.08 58.8245 52.9408 58.8697C51.8201 57.968 50.5054 57.0141 48.989 56.0826Z" fill="#C2AFB7" stroke="#48343D" stroke-width="0.190502" stroke-miterlimit="10"/>
<path d="M46.9343 61.1256C45.6184 60.3176 44.3593 59.6551 43.2005 59.1112C43.6427 60.3441 44.0854 61.577 44.5276 62.8099C43.8011 61.6073 42.5461 59.8922 40.5062 58.4711C37.5305 56.3983 34.4097 56.0132 31.4874 55.6857C27.6484 55.2558 25.0141 55.689 25.0001 55.5103C24.9851 55.3238 27.8531 54.7907 31.0991 54.7795C32.6242 54.7745 33.8941 54.8856 34.7856 54.9917L35.7036 55.1128L36.1632 55.1745L36.6199 55.2545L37.5346 55.4154L38.4423 55.6144C43.2855 56.6926 47.9078 58.913 51.8732 62.0227L51.8766 62.0251C51.9022 62.1176 52.0722 62.7689 51.6635 63.3472C51.3954 63.7261 51.0249 63.8675 50.8856 63.9127C49.7654 63.011 48.4512 62.0571 46.9343 61.1256Z" fill="#C2AFB7" stroke="#48343D" stroke-width="0.190502" stroke-miterlimit="10"/>
<path d="M91.6128 55.3404C92.9286 54.5324 94.1877 53.8699 95.3465 53.326C94.9043 54.5589 94.4617 55.7919 94.0195 57.0248C94.746 55.8221 96.0009 54.1071 98.0408 52.686C101.017 50.6132 104.137 50.228 107.06 49.9005C110.899 49.4706 113.533 49.9038 113.547 49.7252C113.562 49.5386 110.694 49.0055 107.448 48.9943C105.922 48.9893 104.653 49.1004 103.761 49.2066L102.843 49.3276L102.383 49.3894L101.927 49.4694L101.012 49.6302L100.104 49.8292C95.2611 50.9075 90.6388 53.1279 86.6734 56.2375L86.6701 56.24C86.6444 56.3325 86.4744 56.9837 86.8831 57.562C87.1512 57.9409 87.5218 58.0823 87.661 58.1275C88.7817 57.2254 90.0959 56.2715 91.6128 55.3404Z" fill="#C2AFB7" stroke="#48343D" stroke-width="0.190502" stroke-miterlimit="10"/>
<path d="M93.6675 60.3814C94.9833 59.5734 96.2424 58.9109 97.4012 58.367C96.959 59.5999 96.5164 60.8328 96.0742 62.0657C96.8007 60.8631 98.0556 59.1481 100.096 57.727C103.071 55.6542 106.192 55.269 109.114 54.9415C112.953 54.5116 115.587 54.9449 115.602 54.7662C115.617 54.5796 112.749 54.0465 109.502 54.0353C107.977 54.0303 106.707 54.1414 105.816 54.2476L104.898 54.3686L104.438 54.4304L103.981 54.5104L103.067 54.6712L102.159 54.8702C97.3158 55.9485 92.6935 58.1689 88.7281 61.2785L88.7248 61.281C88.6991 61.3734 88.5291 62.0247 88.9378 62.603C89.2059 62.9819 89.5764 63.1233 89.7157 63.1684C90.8364 62.2664 92.1506 61.3125 93.6675 60.3814Z" fill="#C2AFB7" stroke="#48343D" stroke-width="0.190502" stroke-miterlimit="10"/>
<path d="M66.6759 48.7555C66.5027 47.2208 66.2499 45.8208 65.9656 44.5717C65.2664 45.6794 64.5668 46.7867 63.8676 47.894C64.3683 46.5811 64.9473 44.5361 64.8118 42.0533C64.6141 38.4317 62.9969 35.7341 61.456 33.2285C59.4322 29.9373 57.4698 28.1269 57.602 28.0059C57.74 27.8794 59.925 29.8121 61.9313 32.365C62.8742 33.5643 63.5676 34.6339 64.0326 35.402L64.5022 36.2001L64.7363 36.6005L64.9543 37.0097L65.3903 37.8297L65.7919 38.668C67.923 43.1502 69.0176 48.1606 69.008 53.2008V53.205C68.9509 53.2821 68.5422 53.8169 67.8352 53.8504C67.3714 53.8724 67.032 53.6668 66.9109 53.5851C66.9329 52.1478 66.8757 50.5244 66.6759 48.7555Z" fill="url(#paint2_linear_4823_341795)"/>
<path d="M74.3185 48.7555C74.4917 47.2208 74.7445 45.8208 75.0289 44.5717C75.728 45.6794 76.4276 46.7867 77.1268 47.894C76.6261 46.5811 76.0472 44.5361 76.1827 42.0533C76.3804 38.4317 77.9975 35.7341 79.5385 33.2285C81.5622 29.9373 83.5246 28.1269 83.3924 28.0059C83.2544 27.8794 81.0694 29.8121 79.0631 32.365C78.1202 33.5643 77.4269 34.6339 76.9619 35.402L76.4923 36.2001L76.2581 36.6005L76.0401 37.0097L75.6041 37.8297L75.2025 38.668C73.0714 43.1502 71.9769 48.1606 71.9864 53.2008V53.205C72.0436 53.2821 72.4522 53.8169 73.1593 53.8504C73.623 53.8724 73.9625 53.6668 74.0835 53.5851C74.0615 52.1478 74.1187 50.5244 74.3185 48.7555Z" fill="url(#paint3_linear_4823_341795)"/>
<path d="M48.989 56.0826C47.6731 55.2746 46.414 54.6122 45.2552 54.0683C45.6974 55.3012 46.1401 56.5341 46.5823 57.767C45.8558 56.5643 44.6008 54.8493 42.5609 53.4282C39.5852 51.3554 36.4644 50.9702 33.5421 50.6427C29.7031 50.2128 27.0693 50.646 27.0547 50.4674C27.0398 50.2808 29.9078 49.7477 33.1542 49.7365C34.6794 49.7315 35.9492 49.8426 36.8407 49.9488L37.7587 50.0698L38.2183 50.1316L38.675 50.2116L39.5897 50.3724L40.4974 50.5714C45.3406 51.6497 49.9629 53.8701 53.9284 56.9797L53.9317 56.9822C53.9574 57.0746 54.1273 57.7259 53.7187 58.3042C53.4505 58.6831 53.08 58.8245 52.9408 58.8697C51.8201 57.968 50.5054 57.0141 48.989 56.0826Z" fill="url(#paint4_linear_4823_341795)"/>
<path d="M46.9343 61.1256C45.6184 60.3176 44.3593 59.6551 43.2005 59.1112C43.6427 60.3441 44.0854 61.577 44.5276 62.8099C43.8011 61.6073 42.5461 59.8922 40.5062 58.4711C37.5305 56.3983 34.4097 56.0132 31.4874 55.6857C27.6484 55.2558 25.0141 55.689 25.0001 55.5103C24.9851 55.3238 27.8531 54.7907 31.0991 54.7795C32.6242 54.7745 33.8941 54.8856 34.7856 54.9917L35.7036 55.1128L36.1632 55.1745L36.6199 55.2545L37.5346 55.4154L38.4423 55.6144C43.2855 56.6926 47.9078 58.913 51.8732 62.0227L51.8766 62.0251C51.9022 62.1176 52.0722 62.7689 51.6635 63.3472C51.3954 63.7261 51.0249 63.8675 50.8856 63.9127C49.7654 63.011 48.4512 62.0571 46.9343 61.1256Z" fill="url(#paint5_linear_4823_341795)"/>
<path d="M91.6128 55.3404C92.9286 54.5324 94.1877 53.8699 95.3465 53.326C94.9043 54.5589 94.4617 55.7919 94.0195 57.0248C94.746 55.8221 96.0009 54.1071 98.0408 52.686C101.017 50.6132 104.137 50.228 107.06 49.9005C110.899 49.4706 113.533 49.9038 113.547 49.7252C113.562 49.5386 110.694 49.0055 107.448 48.9943C105.922 48.9893 104.653 49.1004 103.761 49.2066L102.843 49.3276L102.383 49.3894L101.927 49.4694L101.012 49.6302L100.104 49.8292C95.2611 50.9075 90.6388 53.1279 86.6734 56.2375L86.6701 56.24C86.6444 56.3325 86.4744 56.9837 86.8831 57.562C87.1512 57.9409 87.5218 58.0823 87.661 58.1275C88.7817 57.2254 90.0959 56.2715 91.6128 55.3404Z" fill="url(#paint6_linear_4823_341795)"/>
<path d="M93.6675 60.3814C94.9833 59.5734 96.2424 58.9109 97.4012 58.367C96.959 59.5999 96.5164 60.8328 96.0742 62.0657C96.8007 60.8631 98.0556 59.1481 100.096 57.727C103.071 55.6542 106.192 55.269 109.114 54.9415C112.953 54.5116 115.587 54.9449 115.602 54.7662C115.617 54.5796 112.749 54.0465 109.502 54.0353C107.977 54.0303 106.707 54.1414 105.816 54.2476L104.898 54.3686L104.438 54.4304L103.981 54.5104L103.067 54.6712L102.159 54.8702C97.3158 55.9485 92.6935 58.1689 88.7281 61.2785L88.7248 61.281C88.6991 61.3734 88.5291 62.0247 88.9378 62.603C89.2059 62.9819 89.5764 63.1233 89.7157 63.1684C90.8364 62.2664 92.1506 61.3125 93.6675 60.3814Z" fill="url(#paint7_linear_4823_341795)"/>
<defs>
<radialGradient id="paint0_radial_4823_341795" cx="0" cy="0" r="1" gradientUnits="userSpaceOnUse" gradientTransform="translate(71.2668 71.9529) scale(87.8674 87.8914)">
<stop stop-color="#624352" stop-opacity="0"/>
<stop offset="0.3205" stop-color="#624352" stop-opacity="0.035"/>
<stop offset="1" stop-color="#624352"/>
</radialGradient>
<radialGradient id="paint1_radial_4823_341795" cx="0" cy="0" r="1" gradientUnits="userSpaceOnUse" gradientTransform="translate(71.2668 71.9529) scale(36.0093 36.0191)">
<stop stop-color="white"/>
<stop offset="1" stop-color="white" stop-opacity="0"/>
</radialGradient>
<linearGradient id="paint2_linear_4823_341795" x1="62.8047" y1="66.1147" x2="63.3332" y2="39.0362" gradientUnits="userSpaceOnUse">
<stop offset="0.0012" stop-color="#624352"/>
<stop offset="1" stop-color="#624352" stop-opacity="0"/>
</linearGradient>
<linearGradient id="paint3_linear_4823_341795" x1="77.1854" y1="66.3954" x2="77.7138" y2="39.3168" gradientUnits="userSpaceOnUse">
<stop offset="0.0012" stop-color="#624352"/>
<stop offset="1" stop-color="#624352" stop-opacity="0"/>
</linearGradient>
<linearGradient id="paint4_linear_4823_341795" x1="40.7152" y1="67.7345" x2="40.4509" y2="48.9777" gradientUnits="userSpaceOnUse">
<stop offset="0.0012" stop-color="#624352"/>
<stop offset="1" stop-color="#624352" stop-opacity="0"/>
</linearGradient>
<linearGradient id="paint5_linear_4823_341795" x1="39.021" y1="77.1854" x2="38.2282" y2="51.1636" gradientUnits="userSpaceOnUse">
<stop offset="0.0012" stop-color="#624352"/>
<stop offset="1" stop-color="#624352" stop-opacity="0"/>
</linearGradient>
<linearGradient id="paint6_linear_4823_341795" x1="74.6602" y1="71.4637" x2="102.661" y2="51.129" gradientUnits="userSpaceOnUse">
<stop offset="0.0012" stop-color="#624352"/>
<stop offset="1" stop-color="#624352" stop-opacity="0"/>
</linearGradient>
<linearGradient id="paint7_linear_4823_341795" x1="77.7666" y1="75.7404" x2="105.767" y2="55.4057" gradientUnits="userSpaceOnUse">
<stop offset="0.0012" stop-color="#624352"/>
<stop offset="1" stop-color="#624352" stop-opacity="0"/>
</linearGradient>
</defs>
</svg>
