<svg width="135" height="85" viewBox="0 0 135 85" fill="none" xmlns="http://www.w3.org/2000/svg">
<g filter="url(#filter0_ii)">
<path d="M135 0H0V85H135V0Z" fill="url(#paint0_linear)"/>
</g>
<path d="M19.1538 23.81C18.4205 23.81 17.7531 23.898 17.1518 24.074C16.5505 24.2353 16.0078 24.426 15.5238 24.646L14.7098 22.996C15.3111 22.7027 16.0005 22.4753 16.7778 22.314C17.5551 22.1527 18.3545 22.072 19.1758 22.072C20.8625 22.072 22.2485 22.4093 23.3338 23.084C24.4338 23.7587 25.2551 24.69 25.7978 25.878C26.3405 27.0513 26.6118 28.386 26.6118 29.882C26.6118 31.598 26.3331 33.0793 25.7758 34.326C25.2185 35.5727 24.3751 36.5333 23.2458 37.208C22.1311 37.8827 20.7231 38.22 19.0218 38.22C18.1125 38.22 17.3425 38.1687 16.7118 38.066C16.0811 37.9633 15.4578 37.802 14.8418 37.582V35.866C15.4578 36.0273 16.0811 36.174 16.7118 36.306C17.3425 36.4233 18.0098 36.482 18.7138 36.482C20.6058 36.482 22.0285 35.9833 22.9818 34.986C23.9498 33.974 24.4631 32.5293 24.5218 30.652H16.8878V28.914H24.4998C24.3531 27.3007 23.8031 26.0467 22.8498 25.152C21.9111 24.2573 20.6791 23.81 19.1538 23.81ZM37.9817 27.836H34.1317V38H32.2177V27.836H28.4117V26.208H37.9817V27.836ZM42.1306 33.402C42.1306 33.578 42.1232 33.842 42.1086 34.194C42.0939 34.546 42.0719 34.898 42.0426 35.25C42.0279 35.602 42.0132 35.8807 41.9986 36.086L48.3126 26.208H50.6886V38H48.8846V31.048C48.8846 30.8133 48.8846 30.5053 48.8846 30.124C48.8992 29.7427 48.9139 29.3687 48.9286 29.002C48.9432 28.6207 48.9579 28.3347 48.9726 28.144L42.7026 38H40.3046V26.208H42.1306V33.402ZM63.4173 38H61.4593V27.814H57.9833C57.7926 30.2927 57.5286 32.2947 57.1913 33.82C56.854 35.3307 56.4066 36.4307 55.8493 37.12C55.292 37.8093 54.588 38.154 53.7373 38.154C53.5466 38.154 53.356 38.1393 53.1653 38.11C52.9893 38.0953 52.8426 38.0587 52.7253 38V36.548C52.8133 36.5773 52.9086 36.5993 53.0113 36.614C53.114 36.6287 53.2166 36.636 53.3193 36.636C54.1113 36.636 54.742 35.7927 55.2113 34.106C55.6953 32.4193 56.062 29.7867 56.3113 26.208H63.4173V38ZM77.412 32.082C77.412 34.0327 76.9134 35.5433 75.916 36.614C74.9334 37.6847 73.5987 38.22 71.912 38.22C70.8707 38.22 69.9394 37.9853 69.118 37.516C68.3114 37.032 67.6734 36.3353 67.204 35.426C66.7347 34.502 66.5 33.3873 66.5 32.082C66.5 30.1313 66.9914 28.628 67.974 27.572C68.9567 26.516 70.2914 25.988 71.978 25.988C73.0487 25.988 73.9874 26.23 74.794 26.714C75.6154 27.1833 76.2534 27.8727 76.708 28.782C77.1774 29.6767 77.412 30.7767 77.412 32.082ZM68.502 32.082C68.502 33.4753 68.7734 34.5827 69.316 35.404C69.8734 36.2107 70.7534 36.614 71.956 36.614C73.144 36.614 74.0167 36.2107 74.574 35.404C75.1314 34.5827 75.41 33.4753 75.41 32.082C75.41 30.6887 75.1314 29.596 74.574 28.804C74.0167 28.012 73.1367 27.616 71.934 27.616C70.7314 27.616 69.8587 28.012 69.316 28.804C68.7734 29.596 68.502 30.6887 68.502 32.082ZM89.9624 29.178C89.9624 29.9113 89.7424 30.4833 89.3024 30.894C88.8624 31.3047 88.2977 31.5833 87.6084 31.73V31.818C88.3417 31.9207 88.9797 32.1847 89.5224 32.61C90.065 33.0207 90.3364 33.666 90.3364 34.546C90.3364 35.5433 89.9624 36.372 89.2144 37.032C88.481 37.6773 87.2637 38 85.5624 38H80.4804V26.208H85.5404C86.3764 26.208 87.1244 26.3033 87.7844 26.494C88.459 26.67 88.987 26.978 89.3684 27.418C89.7644 27.8433 89.9624 28.43 89.9624 29.178ZM88.0044 29.42C88.0044 28.8627 87.799 28.4593 87.3884 28.21C86.9924 27.946 86.3397 27.814 85.4304 27.814H82.4164V31.048H85.0784C87.029 31.048 88.0044 30.5053 88.0044 29.42ZM88.3344 34.546C88.3344 33.8713 88.0777 33.3873 87.5644 33.094C87.051 32.8007 86.2957 32.654 85.2984 32.654H82.4164V36.438H85.3424C86.3104 36.438 87.051 36.2987 87.5644 36.02C88.0777 35.7267 88.3344 35.2353 88.3344 34.546ZM93.1561 38V26.208H95.0921V31.048H98.1501C99.6755 31.048 100.805 31.3267 101.538 31.884C102.271 32.4413 102.638 33.2773 102.638 34.392C102.638 35.492 102.279 36.372 101.56 37.032C100.841 37.6773 99.6755 38 98.0621 38H93.1561ZM104.596 38V26.208H106.532V38H104.596ZM97.8861 36.438C98.7221 36.438 99.4041 36.2987 99.9321 36.02C100.46 35.7267 100.724 35.2207 100.724 34.502C100.724 33.7833 100.482 33.2993 99.9981 33.05C99.5141 32.786 98.8175 32.654 97.9081 32.654H95.0921V36.438H97.8861ZM119.827 21.324C119.725 22.424 119.351 23.26 118.705 23.832C118.075 24.3893 117.063 24.668 115.669 24.668C114.232 24.668 113.213 24.3893 112.611 23.832C112.025 23.2747 111.695 22.4387 111.621 21.324H113.425C113.499 22.116 113.704 22.6513 114.041 22.93C114.393 23.194 114.951 23.326 115.713 23.326C116.388 23.326 116.916 23.1867 117.297 22.908C117.693 22.6147 117.928 22.0867 118.001 21.324H119.827ZM112.105 33.402C112.105 33.578 112.098 33.842 112.083 34.194C112.069 34.546 112.047 34.898 112.017 35.25C112.003 35.602 111.988 35.8807 111.973 36.086L118.287 26.208H120.663V38H118.859V31.048C118.859 30.8133 118.859 30.5053 118.859 30.124C118.874 29.7427 118.889 29.3687 118.903 29.002C118.918 28.6207 118.933 28.3347 118.947 28.144L112.677 38H110.279V26.208H112.105V33.402ZM45.9906 64.22C44.9493 64.22 44.018 64.0073 43.1966 63.582C42.39 63.1567 41.752 62.4967 41.2826 61.602C40.828 60.7073 40.6006 59.5633 40.6006 58.17C40.6006 56.718 40.8426 55.5373 41.3266 54.628C41.8106 53.7187 42.4633 53.0513 43.2846 52.626C44.1206 52.2007 45.0666 51.988 46.1226 51.988C46.724 51.988 47.3033 52.054 47.8606 52.186C48.418 52.3033 48.8726 52.45 49.2246 52.626L48.6306 54.232C48.2786 54.1 47.868 53.9753 47.3986 53.858C46.9293 53.7407 46.4893 53.682 46.0786 53.682C43.7613 53.682 42.6026 55.1707 42.6026 58.148C42.6026 59.5707 42.8813 60.6633 43.4386 61.426C44.0106 62.174 44.854 62.548 45.9686 62.548C46.614 62.548 47.1786 62.482 47.6626 62.35C48.1613 62.218 48.616 62.0567 49.0266 61.866V63.582C48.6306 63.7873 48.1906 63.9413 47.7066 64.044C47.2373 64.1613 46.6653 64.22 45.9906 64.22ZM61.7969 52.208V64H59.8609V53.858H53.7669V64H51.8309V52.208H61.7969ZM67.3855 59.402C67.3855 59.578 67.3781 59.842 67.3635 60.194C67.3488 60.546 67.3268 60.898 67.2975 61.25C67.2828 61.602 67.2681 61.8807 67.2535 62.086L73.5675 52.208H75.9435V64H74.1395V57.048C74.1395 56.8133 74.1395 56.5053 74.1395 56.124C74.1541 55.7427 74.1688 55.3687 74.1835 55.002C74.1981 54.6207 74.2128 54.3347 74.2275 54.144L67.9575 64H65.5595V52.208H67.3855V59.402ZM85.3062 51.988C86.7582 51.988 87.9242 52.494 88.8042 53.506C89.6988 54.518 90.1462 56.0433 90.1462 58.082C90.1462 60.0913 89.6988 61.6167 88.8042 62.658C87.9242 63.6993 86.7508 64.22 85.2842 64.22C84.3748 64.22 83.6195 64.0513 83.0182 63.714C82.4315 63.362 81.9695 62.9587 81.6322 62.504H81.5002C81.5295 62.7533 81.5588 63.0687 81.5882 63.45C81.6175 63.8313 81.6322 64.1613 81.6322 64.44V69.28H79.6962V52.208H81.2802L81.5442 53.814H81.6322C81.9842 53.3007 82.4462 52.868 83.0182 52.516C83.5902 52.164 84.3528 51.988 85.3062 51.988ZM84.9542 53.616C83.7515 53.616 82.9008 53.9533 82.4022 54.628C81.9182 55.3027 81.6615 56.3293 81.6322 57.708V58.082C81.6322 59.534 81.8668 60.656 82.3362 61.448C82.8202 62.2253 83.7075 62.614 84.9982 62.614C85.7168 62.614 86.3035 62.416 86.7582 62.02C87.2275 61.624 87.5722 61.0887 87.7922 60.414C88.0268 59.7247 88.1442 58.94 88.1442 58.06C88.1442 56.7107 87.8802 55.6327 87.3522 54.826C86.8388 54.0193 86.0395 53.616 84.9542 53.616ZM101.156 53.836H97.3065V64H95.3925V53.836H91.5865V52.208H101.156V53.836Z" fill="white"/>
<defs>
<filter id="filter0_ii" x="-5" y="-10" width="145" height="105" filterUnits="userSpaceOnUse" color-interpolation-filters="sRGB">
<feFlood flood-opacity="0" result="BackgroundImageFix"/>
<feBlend mode="normal" in="SourceGraphic" in2="BackgroundImageFix" result="shape"/>
<feColorMatrix in="SourceAlpha" type="matrix" values="0 0 0 0 0 0 0 0 0 0 0 0 0 0 0 0 0 0 127 0" result="hardAlpha"/>
<feOffset dx="-5" dy="-10"/>
<feGaussianBlur stdDeviation="5"/>
<feComposite in2="hardAlpha" operator="arithmetic" k2="-1" k3="1"/>
<feColorMatrix type="matrix" values="0 0 0 0 0 0 0 0 0 0 0 0 0 0 0 0 0 0 0.15 0"/>
<feBlend mode="normal" in2="shape" result="effect1_innerShadow"/>
<feColorMatrix in="SourceAlpha" type="matrix" values="0 0 0 0 0 0 0 0 0 0 0 0 0 0 0 0 0 0 127 0" result="hardAlpha"/>
<feOffset dx="5" dy="10"/>
<feGaussianBlur stdDeviation="5"/>
<feComposite in2="hardAlpha" operator="arithmetic" k2="-1" k3="1"/>
<feColorMatrix type="matrix" values="0 0 0 0 1 0 0 0 0 1 0 0 0 0 1 0 0 0 0.45 0"/>
<feBlend mode="normal" in2="effect1_innerShadow" result="effect2_innerShadow"/>
</filter>
<linearGradient id="paint0_linear" x1="26.5019" y1="-6.6102" x2="70.041" y2="121.893" gradientUnits="userSpaceOnUse">
<stop stop-color="#FFD9B5"/>
<stop offset="0.293016" stop-color="#FFC581"/>
<stop offset="0.366836" stop-color="#FFC46B"/>
<stop offset="0.629744" stop-color="#FFB155"/>
<stop offset="0.87591" stop-color="#FFA031"/>
<stop offset="0.932832" stop-color="#FF7F0A"/>
<stop offset="1" stop-color="#FF7A00"/>
</linearGradient>
</defs>
</svg>
