<svg width="94" height="96" viewBox="0 0 94 96" fill="none" xmlns="http://www.w3.org/2000/svg">
<path d="M47 93C72.9574 93 94 72.1813 94 46.5C94 20.8188 72.9574 0 47 0C21.0426 0 0 20.8188 0 46.5C0 72.1813 21.0426 93 47 93Z" fill="url(#paint0_radial)"/>
<path d="M38.15 62H33.65V45.35H15.35V62H10.85V26.3H15.35V41.4H33.65V26.3H38.15V62Z" fill="white"/>
<path d="M86 44.1C86 47.8 85.3667 51.0333 84.1 53.8C82.8667 56.5333 81.0333 58.6667 78.6 60.2C76.1667 61.7333 73.15 62.5 69.55 62.5C65.85 62.5 62.7667 61.7333 60.3 60.2C57.8667 58.6667 56.05 56.5167 54.85 53.75C53.65 50.9833 53.05 47.75 53.05 44.05C53.05 40.3833 53.65 37.1833 54.85 34.45C56.05 31.7167 57.8667 29.5833 60.3 28.05C62.7667 26.5167 65.8667 25.75 69.6 25.75C73.1667 25.75 76.1667 26.5167 78.6 28.05C81.0333 29.55 82.8667 31.6833 84.1 34.45C85.3667 37.1833 86 40.4 86 44.1ZM57.8 44.1C57.8 48.6 58.75 52.15 60.65 54.75C62.55 57.3167 65.5167 58.6 69.55 58.6C73.6167 58.6 76.5833 57.3167 78.45 54.75C80.3167 52.15 81.25 48.6 81.25 44.1C81.25 39.6 80.3167 36.0833 78.45 33.55C76.5833 30.9833 73.6333 29.7 69.6 29.7C65.5667 29.7 62.5833 30.9833 60.65 33.55C58.75 36.0833 57.8 39.6 57.8 44.1Z" fill="white"/>
<path d="M53.17 57.71C53.17 58.77 52.91 59.71 52.39 60.53C51.89 61.33 51.25 62.08 50.47 62.78C49.71 63.46 48.87 64.12 47.95 64.76C47.03 65.38 46.15 66.03 45.31 66.71C44.47 67.37 43.73 68.09 43.09 68.87C42.45 69.65 42.04 70.54 41.86 71.54H51.4L50.98 74H38.92C38.88 73.84 38.85 73.66 38.83 73.46C38.83 73.26 38.83 73.07 38.83 72.89C38.83 71.51 39.11 70.29 39.67 69.23C40.23 68.15 40.93 67.19 41.77 66.35C42.63 65.49 43.55 64.72 44.53 64.04C45.53 63.34 46.45 62.67 47.29 62.03C48.15 61.37 48.86 60.72 49.42 60.08C49.98 59.42 50.26 58.7 50.26 57.92C50.26 57.02 49.96 56.32 49.36 55.82C48.78 55.3 48.04 55.04 47.14 55.04C46.28 55.04 45.5 55.2 44.8 55.52C44.12 55.84 43.44 56.29 42.76 56.87L41.5 54.83C42.32 54.17 43.2 53.64 44.14 53.24C45.1 52.84 46.21 52.64 47.47 52.64C48.31 52.64 49.08 52.77 49.78 53.03C50.48 53.27 51.08 53.62 51.58 54.08C52.08 54.52 52.47 55.05 52.75 55.67C53.03 56.29 53.17 56.97 53.17 57.71Z" fill="white"/>
<defs>
<radialGradient id="paint0_radial" cx="0" cy="0" r="1" gradientUnits="userSpaceOnUse" gradientTransform="translate(25.5569 18.0597) rotate(9.37998) scale(91.6688 90.6936)">
<stop stop-color="#96FFF9"/>
<stop offset="0.2384" stop-color="#58E1FF"/>
<stop offset="0.3536" stop-color="#00D1FF"/>
<stop offset="0.4242" stop-color="#00C2FF"/>
<stop offset="0.8182" stop-color="#0085FF"/>
<stop offset="1" stop-color="#005F94"/>
</radialGradient>
</defs>
</svg>
