<svg width="898" height="624" viewBox="0 0 898 624" fill="none" xmlns="http://www.w3.org/2000/svg">
<path d="M508.275 319.731C505.781 310.361 518.197 295.392 536.719 286.984C555.353 278.658 587.963 287.322 571.808 302.953C563.143 311.449 549.581 305.718 538.947 312.246C516.557 326.357 510.85 328.991 508.275 319.731Z" fill="#E69264"/>
<path opacity="0.3608" d="M510.923 313.128C511.968 312.872 513.787 313.188 515.356 313.148C516.156 313.225 517.282 312.858 517.44 311.948C517.546 311.341 516.852 310.658 516.275 310.745C515.697 310.833 515.067 311.223 514.407 311.421C513.859 311.701 513.089 311.817 512.535 311.408C512.092 311.081 511.976 310.311 512.192 309.786C512.298 309.18 512.707 308.626 512.923 308.101C513.823 306.882 515.247 305.879 516.325 306.504C516.961 306.802 517.159 307.461 517.549 308.092C517.828 308.64 518.329 309.352 518.936 309.458C519.542 309.563 520.336 308.951 520.331 308.262C519.556 307.69 518.699 307.229 518.005 306.546C517.312 305.863 516.7 305.069 516.637 303.996C516.574 302.922 517.362 301.622 518.354 301.669C518.932 301.582 519.596 302.072 519.876 302.621C520.155 303.169 520.353 303.829 520.743 304.459C521.837 307.149 525.964 310.366 526.396 309.316C526.666 308.488 524.311 306.579 523.087 304.991C521.864 303.404 520.693 301.513 521.145 299.279C521.332 298.561 521.712 297.815 522.231 297.342C522.751 296.87 523.603 296.643 524.075 297.163C524.85 297.735 524.942 299.001 525.005 300.074C525.15 301.037 525.738 302.327 526.672 301.989C526.854 300.583 526.184 299.404 525.9 298.167C525.615 296.93 525.657 295.25 526.586 294.224C527.462 293.501 528.675 293.712 529.479 294.476C530.172 295.159 530.539 296.285 530.905 297.411C531.469 299.197 532.033 300.982 532.569 302.575C532.795 303.427 533.436 304.414 534.177 304.105C534.726 303.825 535.024 303.189 534.937 302.612C534.85 302.034 534.57 301.486 534.402 301.019C533.453 299.291 532.556 297.261 531.771 295.312C531.404 294.186 530.927 292.978 531.552 291.899C532.148 290.627 533.607 290.506 534.82 290.716C536.861 291.196 538.335 293.139 539.231 295.17C540.046 297.312 540.394 299.622 540.631 301.851C541.097 301.682 541.425 301.239 541.53 300.632C541.554 300.136 541.467 299.558 541.491 299.063C541.061 296.863 540.357 294.803 539.572 292.854C539.263 292.113 538.955 291.372 538.81 290.409C538.776 289.528 539.127 288.589 539.839 288.088C540.662 287.669 541.519 288.13 542.02 288.842C542.521 289.554 542.555 290.435 542.7 291.398C542.845 292.36 542.99 293.323 543.462 293.842C543.712 294.198 544.126 294.333 544.482 294.082C544.564 293.971 544.617 293.668 544.669 293.365C544.654 291.299 543.017 289.578 543.608 287.618C543.958 286.679 544.834 285.956 545.633 286.032C546.432 286.108 547.236 286.873 547.463 287.725C547.608 288.688 547.146 289.545 547.099 290.537C547.051 291.528 547.61 292.625 548.462 292.398C549.011 292.119 549.39 291.372 549.193 290.713C549.188 290.024 548.908 289.476 548.71 288.817C548.565 287.854 548.806 286.833 549.378 286.057C549.95 285.282 551.216 285.189 551.741 285.405C552.266 285.622 552.901 285.919 553.07 286.386C553.239 286.853 553.133 287.46 553.028 288.066C552.605 290.493 552.708 293.136 553.633 295.359C553.802 295.826 553.971 296.293 554.385 296.427C554.717 296.672 555.294 296.585 555.621 296.142C555.867 295.809 555.809 295.424 555.669 295.15C554.941 293.586 554.681 291.853 554.449 290.313C554.304 289.351 554.178 287.204 554.75 286.428C555.977 284.766 558.571 285.654 558.822 286.01C559.183 286.448 559.188 287.136 559.165 287.632C559.199 288.513 559.204 289.202 559.156 290.193C559.103 290.497 559.161 290.882 559.412 291.238C559.552 291.512 559.884 291.757 560.269 291.699C560.736 291.53 560.923 290.813 560.947 290.317C560.994 289.325 560.739 288.281 560.512 287.429C560.483 287.236 560.343 286.962 560.396 286.659C560.56 286.437 560.834 286.297 561.027 286.268C562.182 286.094 563.453 286.69 564.012 287.787C564.349 288.72 564.412 289.794 564.365 290.785C564.317 291.777 564.573 292.822 565.184 293.615C565.406 293.779 565.738 294.024 566.041 294.077C566.345 294.129 566.783 293.768 566.835 293.465C566.97 293.05 566.801 292.584 566.633 292.117C566.353 291.568 566.126 290.716 566.121 290.028C566.145 289.532 566.169 289.036 566.414 288.704C566.852 288.342 567.266 288.477 567.791 288.693C569.144 289.178 570.415 289.774 571.551 290.784C572.577 291.712 573.468 293.054 573.811 294.676C574.153 296.298 573.726 298.036 572.634 299.284C572.307 299.727 571.676 300.118 571.262 299.983C570.848 299.849 570.569 299.301 570.4 298.834C569.517 294.93 569.383 295.345 569.079 295.292C568.776 295.239 568.57 297.141 568.715 298.104C568.86 299.066 569.279 299.889 569.313 300.77C569.458 301.733 569.136 302.864 568.313 303.284C567.823 303.949 566.889 304.286 566.143 303.907C565.507 303.609 564.925 303.008 564.698 302.156C564.389 301.415 564.163 300.563 564.047 299.793C563.704 298.171 563.087 296.689 562.196 295.346C562.167 295.154 561.946 294.99 561.724 294.827C561.503 294.663 561.31 294.692 561.147 294.914C560.983 295.136 560.93 295.439 561.041 295.521C561.244 296.868 561.832 298.158 562.42 299.448C562.897 300.656 563.24 302.278 562.754 303.631C562.379 305.066 560.984 306.261 559.742 305.858C558.803 305.507 558.355 304.492 558.21 303.529C558.065 302.566 558.276 301.353 558.324 300.361C558.348 299.865 558.343 299.177 558.092 298.821C557.842 298.465 557.206 298.167 556.85 298.418C556.302 298.698 556.225 299.497 556.312 300.074C556.346 300.955 556.602 302 556.554 302.991C556.506 303.983 556.074 305.033 555.362 305.534C554.731 305.925 553.961 306.041 553.244 305.854C551.699 305.398 550.86 303.752 550.407 302.049C549.953 300.345 550.078 298.554 550.202 296.763C550.197 296.075 550.221 295.579 549.941 295.03C549.691 294.674 549.055 294.376 548.617 294.738C548.179 295.099 548.295 295.869 548.464 296.336C548.807 297.958 549.038 299.499 549.381 301.121C549.497 301.891 549.724 302.743 549.647 303.542C549.57 304.341 549.22 305.28 548.7 305.752C547.906 306.364 546.833 306.428 546.057 305.856C545.282 305.284 544.863 304.461 544.689 303.306C544.433 302.261 544.674 301.24 544.803 300.138C544.909 299.531 545.014 298.925 544.735 298.376C544.455 297.827 543.93 297.611 543.382 297.891C542.944 298.252 543.031 298.83 543.118 299.408C543.234 300.178 543.268 301.059 543.384 301.829C543.529 302.792 543.911 305.983 541.909 307.073C541.086 307.492 540.065 307.253 539.757 306.511C539.275 304.615 538.763 302.526 538.281 300.63C537.799 298.734 537.206 296.756 535.602 295.915C535.27 295.67 534.774 295.646 534.64 296.06C534.394 296.393 534.645 296.749 534.703 297.134C535.71 299.246 536.635 301.469 537.479 303.803C537.845 304.929 538.13 306.166 537.919 307.38C537.789 308.482 536.943 309.398 536.178 310.202C535.384 310.814 534.508 311.537 533.493 311.986C533.026 312.155 532.396 312.545 532.063 312.3C531.539 312.084 531.533 311.396 531.365 310.929C531.041 308.123 530.443 305.456 529.541 302.737C529.401 302.463 529.343 302.078 529.122 301.914C528.982 301.64 528.679 301.587 528.323 301.838C527.967 302.089 528.054 302.666 528.222 303.133C528.786 304.918 529.351 306.704 529.611 308.437C529.901 310.362 529.806 312.346 528.772 313.978C527.603 316.025 525.52 317.226 523.681 318.094C523.215 318.263 522.859 318.514 522.445 318.379C521.809 318.082 521.775 317.201 521.851 316.401C521.952 315.106 522.052 313.811 522.263 312.598C522.287 312.102 522.311 311.606 522.253 311.221C522.084 310.754 521.752 310.509 521.285 310.678C520.737 310.958 520.689 311.95 520.776 312.527C520.786 313.904 520.879 315.17 520.807 316.658C520.736 318.145 520.361 319.58 519.433 320.606C518.23 321.772 516.742 321.702 515.255 321.631C514.567 321.636 513.628 321.286 513.704 320.486C513.699 319.798 514.33 319.408 514.849 318.935C515.999 318.073 516.98 316.743 517.437 315.197C517.49 314.894 517.624 314.48 517.403 314.316C517.263 314.042 516.878 314.1 516.714 314.322C516.44 314.462 516.277 314.683 516.224 314.987C515.488 315.984 514.588 317.202 513.742 318.118C513.304 318.479 512.977 318.923 512.51 319.091C511.961 319.371 511.547 319.237 511.023 319.021C510.69 318.775 510.522 318.309 510.545 317.813C509.905 316.826 510.346 313.216 510.923 313.128Z" fill="#FDDFD3"/>
<path d="M512.466 316.834C512.524 317.219 512.856 317.464 513.212 317.214C513.486 317.074 513.732 316.741 513.674 316.356C513.616 315.971 513.284 315.726 512.928 315.977C512.572 316.227 512.326 316.56 512.466 316.834Z" fill="#AA2829"/>
<path d="M525.629 313.37C525.686 313.755 526.019 314.001 526.375 313.75C526.731 313.499 526.894 313.278 526.836 312.893C526.778 312.508 526.446 312.262 526.09 312.513C525.816 312.653 525.6 313.178 525.629 313.37Z" fill="#AA2829"/>
<path d="M524.96 305.004C525.018 305.389 525.35 305.635 525.706 305.384C525.981 305.244 526.226 304.912 526.168 304.527C526.11 304.142 525.778 303.896 525.422 304.147C525.147 304.287 524.902 304.619 524.96 305.004Z" fill="#AA2829"/>
<path d="M528.157 298.122C528.215 298.507 528.548 298.752 528.904 298.501C529.178 298.361 529.423 298.029 529.365 297.644C529.307 297.259 528.975 297.014 528.619 297.264C528.263 297.515 528.099 297.737 528.157 298.122Z" fill="#AA2829"/>
<path d="M533.358 294.088C533.416 294.473 533.749 294.718 534.105 294.468C534.379 294.328 534.624 293.996 534.566 293.61C534.508 293.225 534.176 292.98 533.82 293.231C533.464 293.481 533.108 293.732 533.358 294.088Z" fill="#AA2829"/>
<path d="M540.96 305.346C541.018 305.731 541.35 305.976 541.707 305.725C541.981 305.585 542.226 305.253 542.168 304.868C542.11 304.483 541.778 304.238 541.422 304.488C541.037 304.546 540.902 304.96 540.96 305.346Z" fill="#AA2829"/>
<path d="M544.585 296.725C544.643 297.11 544.975 297.355 545.331 297.104C545.606 296.965 545.851 296.632 545.793 296.247C545.735 295.862 545.403 295.617 545.047 295.867C544.772 296.007 544.638 296.421 544.585 296.725Z" fill="#AA2829"/>
<path d="M550.997 288.964C551.055 289.349 551.388 289.594 551.744 289.343C552.018 289.203 552.263 288.871 552.205 288.486C552.147 288.101 551.815 287.856 551.459 288.106C550.992 288.275 550.939 288.579 550.997 288.964Z" fill="#AA2829"/>
<path d="M555.878 290C555.936 290.385 556.268 290.63 556.624 290.379C556.899 290.239 557.144 289.907 557.086 289.522C557.028 289.137 556.696 288.892 556.34 289.142C555.984 289.393 555.82 289.614 555.878 290Z" fill="#AA2829"/>
<path d="M560.829 303.922C560.887 304.307 561.219 304.552 561.575 304.301C561.849 304.161 562.095 303.829 562.037 303.444C561.979 303.059 561.646 302.814 561.29 303.064C560.934 303.315 560.8 303.729 560.829 303.922Z" fill="#AA2829"/>
<path d="M548.904 299.912C548.904 299.912 548.904 299.912 548.794 299.831C548.461 299.585 548.047 299.451 547.691 299.702C547.417 299.842 547.364 300.145 547.393 300.337C547.504 300.419 547.504 300.419 547.504 300.419C547.504 300.419 547.615 300.501 547.644 300.693C547.755 300.775 547.673 300.886 547.784 300.968L547.894 301.049C547.812 301.16 547.649 301.382 547.567 301.493C547.485 301.603 547.514 301.796 547.543 301.988L547.462 302.099C547.572 302.181 547.572 302.181 547.601 302.374C547.52 302.484 547.549 302.677 547.356 302.706C547.356 302.706 547.163 302.735 547.053 302.653C546.778 302.793 546.836 303.178 546.755 303.289C546.755 303.289 546.673 303.4 546.48 303.429C546.399 303.54 546.317 303.65 546.346 303.843C546.293 304.146 546.322 304.339 546.351 304.531C546.269 304.642 546.077 304.671 545.995 304.782C545.692 304.729 545.908 304.204 545.879 304.012C545.961 303.901 546.014 303.598 546.177 303.376C546.259 303.265 546.259 303.265 546.341 303.155C546.504 302.933 546.668 302.711 546.913 302.379C546.995 302.268 547.129 301.854 547.211 301.743C547.293 301.632 547.456 301.411 547.427 301.218C547.317 301.137 547.288 300.944 547.369 300.833C547.23 300.559 546.874 300.81 546.792 300.92C546.272 301.393 546.003 302.221 545.787 302.746C546.085 302.11 546.191 301.504 546.71 301.031C546.984 300.891 547.148 300.67 547.288 300.944C547.398 301.026 547.427 301.218 547.346 301.329C547.264 301.44 547.293 301.632 547.211 301.743C547.077 302.157 546.995 302.268 546.668 302.711C546.504 302.933 546.259 303.265 546.095 303.487C545.932 303.709 545.768 303.93 545.908 304.204C545.826 304.315 545.802 304.811 546.106 304.864C546.187 304.753 546.38 304.724 546.462 304.613C546.707 304.281 546.649 303.896 546.62 303.703C546.702 303.592 546.702 303.592 546.702 303.592C546.784 303.482 546.784 303.482 546.976 303.452C547.25 303.313 547.111 303.038 547.274 302.817L547.356 302.706C547.356 302.706 547.467 302.788 547.549 302.677C547.63 302.566 547.63 302.566 547.712 302.455C547.794 302.344 547.794 302.344 547.794 302.344C547.794 302.344 547.794 302.344 547.876 302.234C547.986 302.315 547.905 302.426 547.823 302.537C547.741 302.648 547.741 302.648 547.741 302.648C547.77 302.84 547.688 302.951 547.91 303.115C547.828 303.225 548.021 303.196 547.939 303.307C547.857 303.418 547.857 303.418 547.775 303.529C547.693 303.64 547.722 303.832 547.641 303.943C547.559 304.054 547.477 304.164 547.395 304.275C547.343 304.579 547.179 304.8 547.208 304.993C547.126 305.104 547.126 305.104 546.934 305.133C546.659 305.272 546.356 305.22 546.053 305.167C545.942 305.085 545.913 304.893 545.884 304.7C546.158 304.56 546.158 304.56 546.433 304.421C546.625 304.392 546.707 304.281 546.9 304.252C546.9 304.252 546.9 304.252 546.818 304.362C546.543 304.502 546.543 304.502 546.269 304.642C546.077 304.671 546.077 304.671 545.913 304.893C545.831 305.004 545.831 305.004 545.75 305.114C545.779 305.307 545.697 305.418 545.726 305.61C545.837 305.692 546.029 305.663 546.029 305.663C546.222 305.634 546.414 305.605 546.607 305.576C546.688 305.465 546.77 305.354 546.852 305.243C546.934 305.133 547.068 304.718 547.039 304.526C547.039 304.526 547.121 304.415 547.203 304.304C547.285 304.194 547.285 304.194 547.448 303.972C547.53 303.861 547.501 303.669 547.501 303.669L547.583 303.558C547.664 303.447 547.635 303.254 547.525 303.173C547.496 302.98 547.578 302.869 547.549 302.677C547.549 302.677 547.549 302.677 547.63 302.566L547.712 302.455C547.794 302.344 547.683 302.263 547.765 302.152L547.847 302.041C547.928 301.93 547.928 301.93 548.01 301.82C548.174 301.598 548.227 301.295 548.279 300.991C548.361 300.88 548.169 300.91 548.25 300.799C548.443 300.77 548.606 300.548 548.688 300.437C548.77 300.327 548.962 300.297 548.852 300.216C548.933 300.105 549.097 299.883 549.068 299.691C549.015 299.994 549.015 299.994 548.904 299.912ZM548.145 301.405C548.092 301.709 548.121 301.901 548.068 302.205C547.986 302.315 547.986 302.315 547.986 302.315C548.068 302.205 547.876 302.234 547.957 302.123L547.847 302.041L547.928 301.93C548.01 301.82 547.981 301.627 547.981 301.627C548.063 301.516 548.227 301.295 548.308 301.184C548.034 301.324 548.145 301.405 548.145 301.405ZM548.717 300.63C548.443 300.77 548.39 301.073 548.198 301.102C548.198 301.102 548.198 301.102 548.005 301.131L547.894 301.049C547.783 300.968 547.865 300.857 547.755 300.775C547.644 300.693 547.726 300.583 547.615 300.501C547.615 300.501 547.504 300.419 547.393 300.337C547.393 300.337 547.283 300.256 547.364 300.145C547.364 300.145 547.364 300.145 547.446 300.034C547.802 299.783 548.187 299.725 548.519 299.971C548.519 299.971 548.712 299.941 548.741 300.134C548.77 300.327 548.77 300.327 548.881 300.408C548.991 300.49 548.799 300.519 548.717 300.63Z" fill="#AA2829"/>
</svg>
