<svg width="898" height="624" viewBox="0 0 898 624" fill="none" xmlns="http://www.w3.org/2000/svg">
<path d="M718.623 325.369C723.391 332.988 713.919 348.185 696.75 358.627C679.468 369.152 643.926 367.238 656.96 350.973C663.986 342.116 679.199 344.792 688.54 337.182C708.573 320.963 713.855 317.75 718.623 325.369Z" fill="#E69264"/>
<path opacity="0.3608" d="M717.297 331.576C716.231 332.017 714.327 332.033 712.786 332.303C711.973 332.381 710.907 332.822 710.873 333.718C710.981 334.335 711.735 334.647 712.352 334.54C712.968 334.432 713.531 334.015 714.093 333.599C714.656 333.183 715.385 332.992 715.943 333.275C716.501 333.559 716.722 334.092 716.747 334.597C716.772 335.101 716.488 335.659 716.317 336.134C715.638 337.333 714.371 338.445 713.113 338.156C712.443 337.956 711.914 337.476 711.385 336.997C710.968 336.434 710.327 336.038 709.627 336.033C708.927 336.029 708.223 336.724 708.527 337.37C709.477 337.712 710.426 338.055 711.376 338.397C712.213 338.822 713.021 339.444 713.379 340.398C713.737 341.352 713.058 342.552 712.133 342.714C711.517 342.821 710.846 342.621 710.317 342.142C709.872 341.775 709.455 341.212 709.039 340.649C707.26 338.482 702.262 336.433 702.116 337.412C701.999 338.195 704.819 339.418 706.548 340.577C708.193 341.624 709.863 343.175 709.767 345.162C709.762 345.862 709.562 346.532 709.083 347.061C708.604 347.59 707.762 347.864 707.204 347.581C706.254 347.239 705.926 346.088 705.651 345.247C705.376 344.405 704.318 343.446 703.56 343.833C703.776 345.066 704.638 345.996 705.275 347.092C705.913 348.188 706.212 349.534 705.45 350.621C704.716 351.512 703.429 351.42 702.396 350.965C701.476 350.427 700.893 349.639 700.226 348.739C699.339 347.305 698.257 345.842 697.34 344.604C696.953 343.845 696.062 343.112 695.387 343.611C694.937 343.944 694.653 344.502 694.874 345.036C695.095 345.569 695.457 345.823 695.79 346.274C697.181 347.683 698.572 349.092 699.822 350.78C700.488 351.68 701.238 352.693 700.783 353.726C700.412 354.871 698.954 355.254 697.638 355.357C695.455 355.231 693.56 353.846 692.198 352.241C690.949 350.553 690.037 348.616 689.238 346.594C688.704 346.815 688.533 347.29 688.558 347.794C688.583 348.298 688.833 348.636 689.054 349.169C689.995 350.911 691.132 352.682 692.41 354.175C692.91 354.85 693.439 355.329 693.713 356.171C693.988 357.013 693.759 357.879 693.084 358.379C692.409 358.878 691.43 358.732 690.622 358.111C690.01 357.519 689.623 356.76 689.348 355.918C688.961 355.16 688.686 354.318 687.961 353.809C687.599 353.555 687.124 353.384 686.87 353.746C686.841 353.942 686.811 354.138 686.782 354.334C687.219 356.1 689.452 357.235 689.16 359.193C689.043 359.976 688.309 360.867 687.385 361.029C686.46 361.191 685.539 360.653 685.152 359.895C684.765 359.136 685.107 358.186 684.832 357.345C684.753 356.532 683.891 355.603 683.02 356.073C682.487 356.293 682.37 357.076 682.591 357.61C682.811 358.143 683.144 358.593 683.448 359.239C683.836 359.998 683.885 361.006 683.377 361.731C682.869 362.455 681.635 362.671 681.019 362.779C680.402 362.887 679.648 362.574 679.315 362.124C678.982 361.674 679.041 361.282 678.932 360.665C678.862 358.453 678.092 356.236 676.647 354.519C676.397 354.181 676.064 353.731 675.56 353.756C675.085 353.585 674.552 353.805 674.381 354.28C674.239 354.559 674.376 354.98 674.543 355.205C675.655 356.472 676.263 357.764 676.842 359.252C677.229 360.01 677.749 361.89 677.436 362.644C676.586 364.318 673.733 363.991 673.37 363.737C672.925 363.37 672.787 362.949 672.679 362.332C672.488 361.603 672.296 360.874 672.105 360.145C672.051 359.836 671.884 359.611 671.634 359.273C671.468 359.048 670.993 358.877 670.768 359.044C670.235 359.264 670.343 359.881 670.368 360.385C670.53 361.31 670.917 362.069 671.5 362.856C671.667 363.081 671.833 363.307 671.804 363.502C671.775 363.698 671.55 363.865 671.242 363.919C670.092 364.247 668.638 363.929 667.859 363.112C667.276 362.325 667.002 361.483 666.727 360.641C666.452 359.799 666.094 358.845 665.257 358.42C664.978 358.278 664.699 358.136 664.195 358.161C663.803 358.102 663.436 358.548 663.491 358.856C663.432 359.247 663.765 359.698 664.128 359.952C664.544 360.515 664.96 361.077 665.069 361.694C665.206 362.115 665.231 362.619 665.006 362.786C664.752 363.148 664.164 363.06 663.66 363.085C662.177 362.963 660.724 362.645 659.328 361.936C658.016 361.34 656.763 360.351 656.155 359.059C655.547 357.768 655.389 356.143 656.293 354.777C656.464 354.302 657.026 353.886 657.531 353.861C658.035 353.836 658.368 354.286 658.701 354.737C660.529 357.912 660.587 357.521 660.866 357.663C661.175 357.609 660.933 355.871 660.63 355.225C660.242 354.467 659.547 353.762 659.355 353.033C658.968 352.274 659.031 351.183 659.902 350.713C660.297 350.071 661.168 349.601 661.951 349.718C662.735 349.835 663.459 350.344 663.876 350.907C664.405 351.386 664.792 352.145 665.179 352.903C665.983 354.225 666.899 355.463 667.957 356.421C668.123 356.647 668.319 356.676 668.598 356.818C668.794 356.847 669.102 356.793 669.131 356.597C669.161 356.401 669.107 356.093 669.023 355.98C668.499 354.801 667.637 353.872 666.804 352.746C666.054 351.733 665.334 350.525 665.538 349.154C665.63 347.867 666.73 346.53 668.213 346.652C669.192 346.798 669.971 347.615 670.246 348.457C670.52 349.299 670.57 350.307 670.732 351.232C670.757 351.736 670.978 352.27 671.34 352.524C671.703 352.778 672.373 352.979 672.711 352.729C673.161 352.396 673.082 351.584 672.861 351.05C672.586 350.208 672.199 349.45 671.924 348.608C671.762 347.683 671.908 346.704 672.583 346.205C673.062 345.676 673.987 345.514 674.687 345.519C676.366 345.67 677.59 346.854 678.477 348.287C679.168 349.692 679.634 351.263 679.905 352.804C680.013 353.421 680.15 353.842 680.596 354.209C680.958 354.463 681.629 354.664 681.996 354.218C682.362 353.773 681.946 353.21 681.809 352.789C681.117 351.385 680.51 350.093 679.789 348.884C679.485 348.238 679.098 347.479 678.99 346.863C678.882 346.246 678.915 345.35 679.507 344.738C680.211 344.043 681.248 343.798 682.198 344.14C683.148 344.482 683.731 345.27 684.201 346.141C684.672 347.012 684.722 348.021 684.801 348.833C684.825 349.337 684.934 349.954 685.267 350.404C685.6 350.854 686.3 350.859 686.75 350.526C687.004 350.163 686.896 349.547 686.758 349.126C686.454 348.48 686.263 347.751 685.876 346.992C685.488 346.234 684.498 343.483 686.185 342.235C686.86 341.735 688.064 341.715 688.564 342.39C689.534 343.937 690.475 345.679 691.445 347.225C692.415 348.771 693.469 350.43 695.314 350.806C695.706 350.865 696.21 350.84 696.268 350.448C696.41 350.169 696.16 349.832 695.91 349.494C694.353 347.86 692.908 346.143 691.688 344.259C691.021 343.358 690.467 342.375 690.418 341.367C690.368 340.358 690.906 339.438 691.526 338.63C692.231 337.935 692.935 337.239 693.918 336.686C694.368 336.353 694.818 336.02 695.405 336.108C695.993 336.196 696.213 336.729 696.434 337.262C697.483 339.621 698.757 341.813 700.115 344.118C700.281 344.343 700.448 344.568 700.727 344.71C701.006 344.852 701.398 344.911 701.539 344.632C701.877 344.382 701.656 343.848 701.406 343.511C700.519 342.077 699.437 340.614 698.745 339.21C698.084 337.609 697.73 335.955 698.384 334.252C699.068 332.352 700.98 330.937 702.751 329.801C703.201 329.468 703.538 329.218 704.013 329.389C704.684 329.589 704.959 330.431 704.984 330.935C705.117 332.056 705.362 333.094 705.466 334.41C705.52 334.719 705.545 335.223 705.795 335.56C706.045 335.898 706.519 336.069 706.857 335.819C707.39 335.599 707.228 334.674 707.007 334.14C706.679 332.99 706.266 331.728 706.133 330.607C705.917 329.373 705.926 327.974 706.659 327.083C707.534 325.912 709.271 325.672 710.7 325.485C711.429 325.294 712.408 325.441 712.6 326.17C712.708 326.786 712.145 327.203 711.779 327.648C710.737 328.593 710.141 329.905 709.937 331.276C709.991 331.584 709.849 331.863 710.128 332.005C710.407 332.147 710.715 332.093 710.94 331.926C711.165 331.76 711.307 331.481 711.336 331.285C711.791 330.252 712.47 329.053 713.203 328.162C713.457 327.799 713.824 327.354 714.274 327.021C714.724 326.688 715.228 326.663 715.703 326.834C716.065 327.089 716.315 327.426 716.453 327.847C717.598 328.219 717.914 331.468 717.297 331.576Z" fill="#FDDFD3"/>
<path d="M715.048 328.537C714.994 328.229 714.52 328.058 714.182 328.308C713.874 328.362 713.703 328.837 713.953 329.174C714.007 329.483 714.482 329.654 714.819 329.404C715.044 329.237 715.103 328.846 715.048 328.537Z" fill="#AA2829"/>
<path d="M702.138 333.912C702.084 333.604 701.609 333.433 701.272 333.683C700.934 333.933 700.793 334.212 701.042 334.549C701.096 334.858 701.571 335.029 701.909 334.779C702.246 334.529 702.305 334.138 702.138 333.912Z" fill="#AA2829"/>
<path d="M704.865 341.125C704.811 340.817 704.336 340.646 703.998 340.896C703.69 340.95 703.519 341.424 703.769 341.762C703.823 342.07 704.298 342.242 704.636 341.992C704.777 341.713 704.919 341.434 704.865 341.125Z" fill="#AA2829"/>
<path d="M703.005 347.553C702.95 347.244 702.476 347.073 702.138 347.323C701.83 347.377 701.659 347.852 701.909 348.189C701.963 348.498 702.438 348.669 702.775 348.419C703.113 348.169 703.254 347.89 703.005 347.553Z" fill="#AA2829"/>
<path d="M698.638 352.004C698.584 351.695 698.109 351.524 697.772 351.774C697.464 351.828 697.293 352.303 697.543 352.641C697.597 352.949 698.072 353.12 698.409 352.87C698.746 352.62 698.917 352.146 698.638 352.004Z" fill="#AA2829"/>
<path d="M688.276 343.648C688.222 343.339 687.747 343.168 687.41 343.418C687.101 343.472 686.93 343.947 687.18 344.285C687.234 344.593 687.709 344.764 688.047 344.514C688.301 344.152 688.443 343.873 688.276 343.648Z" fill="#AA2829"/>
<path d="M686.379 351.671C686.324 351.362 685.85 351.191 685.512 351.441C685.204 351.495 685.033 351.97 685.283 352.307C685.337 352.616 685.812 352.787 686.149 352.537C686.374 352.371 686.545 351.896 686.379 351.671Z" fill="#AA2829"/>
<path d="M681.711 359.479C681.657 359.171 681.182 359 680.844 359.25C680.536 359.304 680.365 359.778 680.615 360.116C680.669 360.424 681.144 360.596 681.481 360.346C681.706 360.179 681.765 359.788 681.711 359.479Z" fill="#AA2829"/>
<path d="M676.308 359.472C676.254 359.164 675.779 358.993 675.442 359.242C675.134 359.296 674.963 359.771 675.213 360.109C675.267 360.417 675.741 360.588 676.079 360.338C676.416 360.089 676.475 359.697 676.308 359.472Z" fill="#AA2829"/>
<path d="M668.091 348.135C668.037 347.826 667.563 347.655 667.225 347.905C666.917 347.959 666.746 348.434 666.996 348.771C667.05 349.08 667.525 349.251 667.862 349.001C668.2 348.751 668.258 348.36 668.091 348.135Z" fill="#AA2829"/>
<path d="M681.268 349.705C681.268 349.705 681.268 349.705 681.464 349.734C681.855 349.793 682.33 349.964 682.584 349.602C682.809 349.435 682.755 349.127 682.672 349.014C682.589 348.902 682.589 348.902 682.476 348.985C682.476 348.985 682.28 348.956 682.197 348.843C682.114 348.731 682.114 348.731 682.031 348.618L681.947 348.506C681.977 348.31 682.089 348.227 682.118 348.031C682.147 347.835 682.064 347.723 682.064 347.723C682.064 347.723 682.064 347.723 682.093 347.527C682.01 347.414 681.898 347.497 681.814 347.385C681.843 347.189 681.76 347.077 682.068 347.023C682.068 347.023 682.264 347.052 682.377 346.969C682.602 346.802 682.435 346.577 682.464 346.381C682.464 346.381 682.577 346.298 682.689 346.215C682.719 346.019 682.719 346.019 682.748 345.823C682.694 345.515 682.61 345.402 682.64 345.207C682.752 345.123 682.865 345.04 682.977 344.957C683.285 344.903 683.31 345.407 683.281 345.603C683.252 345.799 683.223 345.994 683.081 346.273L683.052 346.469C683.022 346.665 682.881 346.944 682.739 347.223C682.71 347.419 682.681 347.615 682.539 347.894C682.51 348.089 682.397 348.173 682.564 348.398C682.647 348.51 682.73 348.623 682.814 348.735C683.093 348.877 683.318 348.711 683.347 348.515C683.714 348.069 683.83 347.286 683.918 346.699C683.718 347.369 683.743 347.874 683.264 348.402C683.039 348.569 682.814 348.735 682.73 348.623C682.647 348.51 682.564 348.398 682.481 348.285C682.51 348.089 682.51 348.089 682.539 347.894C682.597 347.502 682.597 347.502 682.768 347.027C682.91 346.748 683.052 346.469 683.081 346.273C683.11 346.078 683.252 345.799 683.281 345.603C683.31 345.407 683.173 344.986 682.865 345.04C682.752 345.123 682.64 345.207 682.527 345.29C682.385 345.569 682.439 345.877 682.606 346.102C682.606 346.102 682.577 346.298 682.381 346.269C682.156 346.435 682.323 346.66 682.293 346.856L682.181 346.939C682.181 346.939 681.985 346.91 681.873 346.993C681.76 347.077 681.843 347.189 681.731 347.272C681.731 347.272 681.731 347.272 681.702 347.468C681.702 347.468 681.702 347.468 681.589 347.551C681.506 347.439 681.506 347.439 681.535 347.243C681.535 347.243 681.535 347.243 681.564 347.047C681.398 346.822 681.51 346.739 681.315 346.71L681.231 346.597C681.344 346.514 681.26 346.401 681.26 346.401C681.29 346.206 681.206 346.093 681.319 346.01C681.348 345.814 681.348 345.814 681.573 345.647C681.602 345.452 681.548 345.143 681.661 345.06C681.661 345.06 681.773 344.977 681.886 344.894C682.111 344.727 682.419 344.673 682.811 344.732C682.894 344.844 682.977 344.957 683.06 345.069C682.835 345.236 682.752 345.123 682.61 345.402C682.498 345.486 682.302 345.456 682.16 345.735C682.385 345.569 682.469 345.681 682.61 345.402C682.723 345.319 682.919 345.348 682.948 345.153C683.06 345.069 682.977 344.957 682.977 344.957C682.894 344.844 682.923 344.648 682.84 344.536C682.756 344.423 682.531 344.59 682.448 344.477C682.336 344.561 682.14 344.531 681.915 344.698C681.802 344.781 681.773 344.977 681.661 345.06C681.548 345.143 681.686 345.564 681.573 345.647L681.544 345.843C681.544 345.843 681.515 346.039 681.402 346.122C681.402 346.122 681.373 346.318 681.456 346.431C681.456 346.431 681.456 346.431 681.344 346.514C681.315 346.71 681.398 346.822 681.398 346.822C681.481 346.935 681.452 347.131 681.535 347.243C681.535 347.243 681.618 347.356 681.589 347.551L681.56 347.747C681.531 347.943 681.502 348.139 681.556 348.447L681.639 348.56C681.527 348.643 681.302 348.809 681.189 348.893C681.077 348.976 680.964 349.059 681.047 349.172C681.018 349.368 680.906 349.451 680.989 349.563C681.101 349.48 681.185 349.593 681.268 349.705ZM681.697 348.168C681.643 347.86 681.56 347.747 681.702 347.468C681.702 347.468 681.702 347.468 681.731 347.272C681.731 347.272 681.814 347.385 681.898 347.497L682.093 347.527C682.093 347.527 682.093 347.527 682.064 347.723L682.118 348.031C682.089 348.227 681.977 348.31 681.864 348.393C681.781 348.281 681.781 348.281 681.697 348.168ZM681.272 349.005C681.497 348.839 681.527 348.643 681.639 348.56C681.639 348.56 681.639 348.56 681.752 348.476L681.835 348.589C681.918 348.702 682.001 348.814 682.001 348.814C682.001 348.814 682.168 349.039 682.28 348.956L682.476 348.985L682.56 349.098C682.305 349.46 681.801 349.485 681.439 349.23C681.439 349.23 681.243 349.201 681.16 349.088C681.077 348.976 680.993 348.863 680.993 348.863C681.047 349.172 681.16 349.089 681.272 349.005Z" fill="#AA2829"/>
</svg>
