<svg width="216" height="216" viewBox="0 0 216 216" fill="none" xmlns="http://www.w3.org/2000/svg">
<g filter="url(#filter0_d_4818_340929)">
<g clip-path="url(#clip0_4818_340929)">
<rect x="28" y="28" width="160" height="160" rx="16" fill="white"/>
<path d="M54.1708 161C53.8934 160.573 53.5734 160.125 53.2108 159.656C52.8481 159.187 52.4641 158.733 52.0588 158.296C51.6641 157.859 51.2534 157.443 50.8268 157.048C50.4001 156.653 49.9788 156.312 49.5628 156.024V161H47.5468V149.912H49.5628V154.488C49.9148 154.136 50.2828 153.763 50.6668 153.368C51.0508 152.963 51.4294 152.557 51.8028 152.152C52.1868 151.736 52.5494 151.336 52.8908 150.952C53.2321 150.568 53.5414 150.221 53.8188 149.912H56.2348C55.8828 150.317 55.5094 150.739 55.1148 151.176C54.7201 151.613 54.3148 152.056 53.8988 152.504C53.4828 152.941 53.0614 153.379 52.6348 153.816C52.2188 154.253 51.8081 154.669 51.4028 155.064C51.8508 155.405 52.3041 155.805 52.7628 156.264C53.2321 156.712 53.6908 157.197 54.1388 157.72C54.5868 158.232 55.0134 158.771 55.4188 159.336C55.8348 159.891 56.2134 160.445 56.5548 161H54.1708ZM65.0656 156.808C65.0656 157.469 64.9696 158.072 64.7776 158.616C64.5856 159.16 64.3136 159.624 63.9616 160.008C63.6096 160.392 63.183 160.691 62.6816 160.904C62.191 161.117 61.647 161.224 61.0496 161.224C60.4523 161.224 59.9083 161.117 59.4176 160.904C58.927 160.691 58.5056 160.392 58.1536 160.008C57.8016 159.624 57.5243 159.16 57.3216 158.616C57.1296 158.072 57.0336 157.469 57.0336 156.808C57.0336 156.147 57.1296 155.549 57.3216 155.016C57.5243 154.472 57.8016 154.008 58.1536 153.624C58.5163 153.24 58.943 152.947 59.4336 152.744C59.9243 152.531 60.463 152.424 61.0496 152.424C61.6363 152.424 62.175 152.531 62.6656 152.744C63.167 152.947 63.5936 153.24 63.9456 153.624C64.2976 154.008 64.5696 154.472 64.7616 155.016C64.9643 155.549 65.0656 156.147 65.0656 156.808ZM63.0816 156.808C63.0816 155.976 62.9003 155.32 62.5376 154.84C62.1856 154.349 61.6896 154.104 61.0496 154.104C60.4096 154.104 59.9083 154.349 59.5456 154.84C59.1936 155.32 59.0176 155.976 59.0176 156.808C59.0176 157.651 59.1936 158.317 59.5456 158.808C59.9083 159.299 60.4096 159.544 61.0496 159.544C61.6896 159.544 62.1856 159.299 62.5376 158.808C62.9003 158.317 63.0816 157.651 63.0816 156.808ZM74.0841 161H72.1481V157.496H68.9961V161H67.0601V152.632H68.9961V155.896H72.1481V152.632H74.0841V161ZM79.6165 155.72C79.7765 155.677 80.0112 155.64 80.3205 155.608C80.6298 155.576 80.9392 155.56 81.2485 155.56C81.7285 155.56 82.1765 155.613 82.5925 155.72C83.0192 155.827 83.3872 155.997 83.6965 156.232C84.0058 156.456 84.2512 156.749 84.4325 157.112C84.6138 157.464 84.7045 157.885 84.7045 158.376C84.7045 158.877 84.6192 159.304 84.4485 159.656C84.2778 160.008 84.0325 160.296 83.7125 160.52C83.3925 160.744 83.0085 160.909 82.5605 161.016C82.1232 161.123 81.6325 161.176 81.0885 161.176C80.4592 161.176 79.8725 161.144 79.3285 161.08C78.7845 161.016 78.2352 160.92 77.6805 160.792V154.248H75.6165V152.632H79.6165V155.72ZM81.0405 159.656C81.5845 159.656 82.0058 159.555 82.3045 159.352C82.6138 159.139 82.7685 158.803 82.7685 158.344C82.7685 158.109 82.7152 157.912 82.6085 157.752C82.5125 157.592 82.3792 157.464 82.2085 157.368C82.0485 157.261 81.8565 157.187 81.6325 157.144C81.4085 157.101 81.1738 157.08 80.9285 157.08C80.7045 157.08 80.4698 157.091 80.2245 157.112C79.9792 157.123 79.7765 157.149 79.6165 157.192V159.576C79.7552 159.597 79.9578 159.619 80.2245 159.64C80.5018 159.651 80.7738 159.656 81.0405 159.656ZM94.0344 161.224C93.5224 161.224 93.0424 161.139 92.5944 160.968C92.157 160.787 91.7677 160.536 91.4264 160.216C91.085 159.885 90.8024 159.491 90.5784 159.032C90.365 158.573 90.2264 158.061 90.1624 157.496H88.4024V161H86.4664V152.632H88.4024V155.928H90.1944C90.269 155.395 90.4184 154.915 90.6424 154.488C90.877 154.051 91.1597 153.683 91.4904 153.384C91.8317 153.075 92.2157 152.84 92.6424 152.68C93.0797 152.509 93.5437 152.424 94.0344 152.424C94.589 152.424 95.1064 152.531 95.5864 152.744C96.0664 152.947 96.4824 153.24 96.8344 153.624C97.1864 154.008 97.4584 154.472 97.6504 155.016C97.853 155.549 97.9544 156.147 97.9544 156.808C97.9544 157.48 97.853 158.088 97.6504 158.632C97.4584 159.176 97.1864 159.64 96.8344 160.024C96.4824 160.408 96.0664 160.707 95.5864 160.92C95.1064 161.123 94.589 161.224 94.0344 161.224ZM94.0344 154.104C93.437 154.104 92.9624 154.349 92.6104 154.84C92.269 155.32 92.0984 155.976 92.0984 156.808C92.0984 157.64 92.269 158.307 92.6104 158.808C92.9624 159.299 93.437 159.544 94.0344 159.544C94.6317 159.544 95.101 159.299 95.4424 158.808C95.7944 158.307 95.9704 157.64 95.9704 156.808C95.9704 155.976 95.7944 155.32 95.4424 154.84C95.101 154.349 94.6317 154.104 94.0344 154.104ZM105.503 154.232H101.887V161H99.9508V152.632H105.503V154.232ZM114.263 152.632V161H112.343C112.343 160.392 112.343 159.789 112.343 159.192C112.354 158.595 112.359 158.04 112.359 157.528C112.37 157.016 112.375 156.573 112.375 156.2C112.386 155.816 112.391 155.533 112.391 155.352C112.071 155.768 111.74 156.227 111.399 156.728C111.058 157.229 110.716 157.731 110.375 158.232C110.044 158.733 109.73 159.224 109.431 159.704C109.132 160.184 108.871 160.616 108.647 161H106.935V152.632H108.839C108.839 153.251 108.834 153.843 108.823 154.408C108.823 154.963 108.823 155.469 108.823 155.928C108.823 156.387 108.818 156.787 108.807 157.128C108.807 157.469 108.807 157.731 108.807 157.912C109.106 157.453 109.415 156.984 109.735 156.504C110.055 156.013 110.375 155.539 110.695 155.08C111.026 154.611 111.351 154.168 111.671 153.752C111.991 153.336 112.3 152.963 112.599 152.632H114.263ZM122.284 156.856C122.284 155.992 122.087 155.32 121.692 154.84C121.308 154.36 120.684 154.12 119.82 154.12C119.639 154.12 119.447 154.131 119.244 154.152C119.052 154.163 118.86 154.195 118.668 154.248V159.032C118.839 159.149 119.063 159.261 119.34 159.368C119.628 159.464 119.932 159.512 120.252 159.512C120.956 159.512 121.468 159.272 121.788 158.792C122.119 158.312 122.284 157.667 122.284 156.856ZM124.268 156.824C124.268 157.464 124.183 158.051 124.012 158.584C123.852 159.117 123.617 159.576 123.308 159.96C122.999 160.344 122.609 160.643 122.14 160.856C121.681 161.069 121.159 161.176 120.572 161.176C120.177 161.176 119.815 161.128 119.484 161.032C119.153 160.936 118.881 160.829 118.668 160.712V163.96H116.732V152.904C117.127 152.797 117.612 152.696 118.188 152.6C118.764 152.504 119.372 152.456 120.012 152.456C120.673 152.456 121.265 152.557 121.788 152.76C122.311 152.963 122.753 153.256 123.116 153.64C123.489 154.013 123.772 154.472 123.964 155.016C124.167 155.549 124.268 156.152 124.268 156.824ZM133.831 156.808C133.831 157.469 133.735 158.072 133.543 158.616C133.351 159.16 133.079 159.624 132.727 160.008C132.375 160.392 131.949 160.691 131.447 160.904C130.957 161.117 130.413 161.224 129.815 161.224C129.218 161.224 128.674 161.117 128.183 160.904C127.693 160.691 127.271 160.392 126.919 160.008C126.567 159.624 126.29 159.16 126.087 158.616C125.895 158.072 125.799 157.469 125.799 156.808C125.799 156.147 125.895 155.549 126.087 155.016C126.29 154.472 126.567 154.008 126.919 153.624C127.282 153.24 127.709 152.947 128.199 152.744C128.69 152.531 129.229 152.424 129.815 152.424C130.402 152.424 130.941 152.531 131.431 152.744C131.933 152.947 132.359 153.24 132.711 153.624C133.063 154.008 133.335 154.472 133.527 155.016C133.73 155.549 133.831 156.147 133.831 156.808ZM131.847 156.808C131.847 155.976 131.666 155.32 131.303 154.84C130.951 154.349 130.455 154.104 129.815 154.104C129.175 154.104 128.674 154.349 128.311 154.84C127.959 155.32 127.783 155.976 127.783 156.808C127.783 157.651 127.959 158.317 128.311 158.808C128.674 159.299 129.175 159.544 129.815 159.544C130.455 159.544 130.951 159.299 131.303 158.808C131.666 158.317 131.847 157.651 131.847 156.808ZM139.154 161.16C138.844 161.16 138.53 161.149 138.21 161.128C137.89 161.107 137.58 161.08 137.282 161.048C136.994 161.016 136.722 160.984 136.466 160.952C136.21 160.909 135.996 160.867 135.826 160.824V152.744C135.996 152.701 136.21 152.664 136.466 152.632C136.722 152.589 136.994 152.557 137.282 152.536C137.58 152.504 137.89 152.483 138.21 152.472C138.53 152.451 138.844 152.44 139.154 152.44C140.284 152.44 141.164 152.648 141.794 153.064C142.423 153.469 142.738 154.04 142.738 154.776C142.738 155.16 142.642 155.501 142.45 155.8C142.258 156.099 142.007 156.323 141.698 156.472C142.082 156.621 142.412 156.856 142.69 157.176C142.967 157.496 143.106 157.949 143.106 158.536C143.106 159.379 142.775 160.029 142.114 160.488C141.452 160.936 140.466 161.16 139.154 161.16ZM139.202 155.992C139.682 155.992 140.076 155.923 140.386 155.784C140.706 155.645 140.866 155.368 140.866 154.952C140.866 154.749 140.812 154.584 140.706 154.456C140.61 154.328 140.476 154.227 140.306 154.152C140.135 154.077 139.938 154.029 139.714 154.008C139.49 153.976 139.255 153.96 139.01 153.96C138.818 153.96 138.594 153.965 138.338 153.976C138.092 153.987 137.895 154.003 137.746 154.024V155.992H139.202ZM137.746 159.56C137.874 159.581 138.082 159.603 138.37 159.624C138.668 159.635 138.946 159.64 139.202 159.64C139.778 159.64 140.252 159.56 140.626 159.4C141.01 159.24 141.202 158.936 141.202 158.488C141.202 158.051 141.026 157.752 140.674 157.592C140.332 157.421 139.884 157.336 139.33 157.336H137.746V159.56ZM147.879 159.64C148.476 159.64 148.93 159.608 149.239 159.544V157.4C149.132 157.368 148.978 157.336 148.775 157.304C148.572 157.272 148.348 157.256 148.103 157.256C147.89 157.256 147.671 157.272 147.447 157.304C147.234 157.336 147.036 157.395 146.855 157.48C146.684 157.565 146.546 157.688 146.439 157.848C146.332 157.997 146.279 158.189 146.279 158.424C146.279 158.883 146.423 159.203 146.711 159.384C146.999 159.555 147.388 159.64 147.879 159.64ZM147.719 152.424C148.359 152.424 148.898 152.504 149.335 152.664C149.772 152.824 150.119 153.048 150.375 153.336C150.642 153.624 150.828 153.976 150.935 154.392C151.052 154.797 151.111 155.245 151.111 155.736V160.808C150.812 160.872 150.359 160.947 149.751 161.032C149.154 161.128 148.476 161.176 147.719 161.176C147.218 161.176 146.759 161.128 146.343 161.032C145.927 160.936 145.57 160.781 145.271 160.568C144.983 160.355 144.754 160.077 144.583 159.736C144.423 159.395 144.343 158.973 144.343 158.472C144.343 157.992 144.434 157.587 144.615 157.256C144.807 156.925 145.063 156.659 145.383 156.456C145.703 156.243 146.071 156.093 146.487 156.008C146.914 155.912 147.356 155.864 147.815 155.864C148.028 155.864 148.252 155.88 148.487 155.912C148.722 155.933 148.972 155.976 149.239 156.04V155.72C149.239 155.496 149.212 155.283 149.159 155.08C149.106 154.877 149.01 154.701 148.871 154.552C148.743 154.392 148.567 154.269 148.343 154.184C148.13 154.099 147.858 154.056 147.527 154.056C147.079 154.056 146.668 154.088 146.295 154.152C145.922 154.216 145.618 154.291 145.383 154.376L145.143 152.808C145.388 152.723 145.746 152.637 146.215 152.552C146.684 152.467 147.186 152.424 147.719 152.424ZM159.786 154.248H157.082V161H155.146V154.248H152.458V152.632H159.786V154.248ZM163.168 155.72C163.328 155.677 163.563 155.64 163.872 155.608C164.181 155.576 164.491 155.56 164.8 155.56C165.28 155.56 165.728 155.613 166.144 155.72C166.571 155.827 166.939 155.997 167.248 156.232C167.557 156.456 167.803 156.749 167.984 157.112C168.165 157.464 168.256 157.885 168.256 158.376C168.256 158.877 168.171 159.304 168 159.656C167.829 160.008 167.584 160.296 167.264 160.52C166.944 160.744 166.56 160.909 166.112 161.016C165.675 161.123 165.184 161.176 164.64 161.176C164.011 161.176 163.424 161.144 162.88 161.08C162.336 161.016 161.787 160.92 161.232 160.792V152.632H163.168V155.72ZM164.592 159.656C165.136 159.656 165.557 159.555 165.856 159.352C166.165 159.139 166.32 158.803 166.32 158.344C166.32 158.109 166.267 157.912 166.16 157.752C166.064 157.592 165.931 157.464 165.76 157.368C165.6 157.261 165.408 157.187 165.184 157.144C164.96 157.101 164.725 157.08 164.48 157.08C164.256 157.08 164.021 157.091 163.776 157.112C163.531 157.123 163.328 157.149 163.168 157.192V159.576C163.307 159.597 163.509 159.619 163.776 159.64C164.053 159.651 164.325 159.656 164.592 159.656Z" fill="#4F6690"/>
</g>
</g>
<g clip-path="url(#clip1_4818_340929)">
<path d="M117.738 64.6475C117.602 65.5041 117.422 66.3606 117.152 67.3074" stroke="#4F6690" stroke-width="1.80328" stroke-linecap="round" stroke-linejoin="round"/>
<path d="M115.439 72.4467C115.213 73.0779 114.943 73.709 114.672 74.3852C111.426 82.7705 104.754 98.5041 104.303 110.09C104.303 110.496 104.258 110.857 104.258 111.217" stroke="#4F6690" stroke-width="1.80328" stroke-linecap="round" stroke-linejoin="round" stroke-dasharray="5.41 5.41"/>
<path d="M104.168 113.922C104.123 114.869 104.033 115.77 103.988 116.627" stroke="#4F6690" stroke-width="1.80328" stroke-linecap="round" stroke-linejoin="round"/>
<path d="M103.762 118.115C103.131 122.352 101.553 125.193 97.0001 127.402C90.0575 130.738 69.5001 129.43 64.3608 116.041C59.2215 102.652 62.828 93.7705 69.3649 86.9631C75.9018 80.1557 77.9756 76.3238 80.7256 69.3811C83.4756 62.4385 87.8034 57.4344 92.0862 54.9098C98.3977 51.2131 110.164 49.6352 114.943 55.4057C117.017 57.8852 117.558 62.4836 117.558 65.0082C117.558 65.0082 118.053 59.6885 120.217 57.3893C123.734 53.6024 129.955 49.1393 137.574 55.9467C149.07 66.2254 154.705 99.0451 148.078 112.525C141.451 126.004 125.267 131.865 114.853 129.25C105.476 126.906 104.439 122.848 103.943 116.898L103.762 118.115Z" stroke="#4F6690" stroke-width="1.80328" stroke-miterlimit="10" stroke-linecap="round" stroke-linejoin="round"/>
<path d="M85.5945 88.3607C89.9674 87.2787 99.2994 94.6271 95.783 103.102C92.3117 111.578 76.5781 111.488 74.8199 104.094C73.1068 96.6558 77.4346 90.3894 85.5945 88.3607Z" stroke="#4F6690" stroke-width="2.2541" stroke-miterlimit="10" stroke-linecap="round" stroke-linejoin="round"/>
<path d="M88.0739 96.836C89.6969 95.7991 93.3485 96.3401 93.3034 99.2254C93.2583 102.111 89.4714 103.328 88.119 102.561C86.7665 101.795 85.3239 98.6393 88.0739 96.836Z" stroke="#4F6690" stroke-width="2.2541" stroke-miterlimit="10" stroke-linecap="round" stroke-linejoin="round"/>
<path d="M137.89 110.045C135.5 113.291 124.996 112.975 122.607 104.635C120.262 96.295 131.082 87.5491 136.447 92.1926C141.812 96.836 142.398 103.914 137.89 110.045Z" stroke="#4F6690" stroke-width="2.2541" stroke-miterlimit="10" stroke-linecap="round" stroke-linejoin="round"/>
<path d="M132.164 104.229C131.623 105.943 128.828 107.566 127.205 105.357C125.582 103.147 127.521 100.082 128.873 99.9467C130.225 99.7663 133.021 101.344 132.164 104.229Z" stroke="#4F6690" stroke-width="2.2541" stroke-miterlimit="10" stroke-linecap="round" stroke-linejoin="round"/>
<path d="M118.279 49.6352L115.168 54.8196" stroke="#4F6690" stroke-width="1.80328" stroke-miterlimit="10" stroke-linecap="round" stroke-linejoin="round"/>
<path d="M109.849 46.2541L109.308 51.8443" stroke="#4F6690" stroke-width="1.80328" stroke-miterlimit="10" stroke-linecap="round" stroke-linejoin="round"/>
<path d="M101.328 46.2541L101.418 51.6188" stroke="#4F6690" stroke-width="1.80328" stroke-miterlimit="10" stroke-linecap="round" stroke-linejoin="round"/>
<path d="M90.283 48.0574L92.8977 53.918" stroke="#4F6690" stroke-width="1.80328" stroke-miterlimit="10" stroke-linecap="round" stroke-linejoin="round"/>
<path d="M80.0044 55.9918L85.0987 61.4467" stroke="#4F6690" stroke-width="1.80328" stroke-miterlimit="10" stroke-linecap="round" stroke-linejoin="round"/>
<path d="M75.947 66.7213L80.5003 68.9303" stroke="#4F6690" stroke-width="1.80328" stroke-miterlimit="10" stroke-linecap="round" stroke-linejoin="round"/>
<path d="M72.2952 73.4385L76.578 77.0451" stroke="#4F6690" stroke-width="1.80328" stroke-miterlimit="10" stroke-linecap="round" stroke-linejoin="round"/>
<path d="M67.4714 80.7418L72.1149 83.8975" stroke="#4F6690" stroke-width="1.80328" stroke-miterlimit="10" stroke-linecap="round" stroke-linejoin="round"/>
<path d="M60.2583 88.4959L65.3526 90.9754" stroke="#4F6690" stroke-width="1.80328" stroke-miterlimit="10" stroke-linecap="round" stroke-linejoin="round"/>
<path d="M54.2625 103.508L61.5657 102.922" stroke="#4F6690" stroke-width="1.80328" stroke-miterlimit="10" stroke-linecap="round" stroke-linejoin="round"/>
<path d="M55.7051 116.672L62.9182 113.111" stroke="#4F6690" stroke-width="1.80328" stroke-miterlimit="10" stroke-linecap="round" stroke-linejoin="round"/>
<path d="M62.4673 127.131L67.2911 121.316" stroke="#4F6690" stroke-width="1.80328" stroke-miterlimit="10" stroke-linecap="round" stroke-linejoin="round"/>
<path d="M70.8977 130.873L73.242 125.779" stroke="#4F6690" stroke-width="1.80328" stroke-miterlimit="10" stroke-linecap="round" stroke-linejoin="round"/>
<path d="M79.283 134.705L80.3198 128.213" stroke="#4F6690" stroke-width="1.80328" stroke-miterlimit="10" stroke-linecap="round" stroke-linejoin="round"/>
<path d="M90.869 135.877L89.0657 129.115" stroke="#4F6690" stroke-width="1.80328" stroke-miterlimit="10" stroke-linecap="round" stroke-linejoin="round"/>
<path d="M102.23 132.586L98.5781 126.68" stroke="#4F6690" stroke-width="1.80328" stroke-miterlimit="10" stroke-linecap="round" stroke-linejoin="round"/>
<path d="M108.135 134.119L110.209 127.807" stroke="#4F6690" stroke-width="1.80328" stroke-miterlimit="10" stroke-linecap="round" stroke-linejoin="round"/>
<path d="M115.799 135.561C115.98 135.561 117.242 129.926 117.242 129.926" stroke="#4F6690" stroke-width="1.80328" stroke-miterlimit="10" stroke-linecap="round" stroke-linejoin="round"/>
<path d="M125.311 135.201L124.771 129.43" stroke="#4F6690" stroke-width="1.80328" stroke-miterlimit="10" stroke-linecap="round" stroke-linejoin="round"/>
<path d="M133.426 133.848L131.217 127.852" stroke="#4F6690" stroke-width="1.80328" stroke-miterlimit="10" stroke-linecap="round" stroke-linejoin="round"/>
<path d="M144.517 128.348L139.648 122.984" stroke="#4F6690" stroke-width="1.80328" stroke-miterlimit="10" stroke-linecap="round" stroke-linejoin="round"/>
<path d="M153.488 121.316L146.14 116.086" stroke="#4F6690" stroke-width="1.80328" stroke-miterlimit="10" stroke-linecap="round" stroke-linejoin="round"/>
<path d="M160.746 111.984L149.971 109.143" stroke="#4F6690" stroke-width="1.80328" stroke-miterlimit="10" stroke-linecap="round" stroke-linejoin="round"/>
<path d="M159.168 100.037L151.955 99.0451" stroke="#4F6690" stroke-width="1.80328" stroke-miterlimit="10" stroke-linecap="round" stroke-linejoin="round"/>
<path d="M160.34 90.2991L151.639 90.0737" stroke="#4F6690" stroke-width="1.80328" stroke-miterlimit="10" stroke-linecap="round" stroke-linejoin="round"/>
<path d="M161.738 81.3279L150.558 83.2664" stroke="#4F6690" stroke-width="1.80328" stroke-miterlimit="10" stroke-linecap="round" stroke-linejoin="round"/>
<path d="M156.012 73.709L148.439 75.8729" stroke="#4F6690" stroke-width="1.80328" stroke-miterlimit="10" stroke-linecap="round" stroke-linejoin="round"/>
<path d="M154.39 64.2869L146.094 69.1106" stroke="#4F6690" stroke-width="1.80328" stroke-miterlimit="10" stroke-linecap="round" stroke-linejoin="round"/>
<path d="M148.709 59.5082L143.525 63.3401" stroke="#4F6690" stroke-width="1.80328" stroke-miterlimit="10" stroke-linecap="round" stroke-linejoin="round"/>
<path d="M143.75 51.0328L139.242 57.4344" stroke="#4F6690" stroke-width="1.80328" stroke-miterlimit="10" stroke-linecap="round" stroke-linejoin="round"/>
<path d="M132.931 44.9918L132.48 52.5205" stroke="#4F6690" stroke-width="1.80328" stroke-miterlimit="10" stroke-linecap="round" stroke-linejoin="round"/>
<path d="M122.291 49.2295L123.689 53.8729" stroke="#4F6690" stroke-width="1.80328" stroke-miterlimit="10" stroke-linecap="round" stroke-linejoin="round"/>
<path d="M117.287 65.9098C115.123 60.9057 109.307 51.9344 95.4222 58.1106C81.537 64.2869 84.828 77.9467 75.6763 86.1967C61.5657 98.8197 65.1722 115.229 74.6845 120.729C85.1435 126.725 95.1517 125.463 104.168 115.996C108.316 123.029 117.062 127.176 128.242 123.885C139.422 120.594 144.291 112.299 145.553 103.283C146.861 94.2664 145.553 80.3811 142.533 72.2213C139.648 64.377 135.68 56.3074 126.935 58.6065C121.164 60.0492 117.287 65.9098 117.287 65.9098Z" stroke="#4F6690" stroke-width="1.80328" stroke-miterlimit="10" stroke-linecap="round" stroke-linejoin="round"/>
</g>
<defs>
<filter id="filter0_d_4818_340929" x="12" y="24" width="192" height="192" filterUnits="userSpaceOnUse" color-interpolation-filters="sRGB">
<feFlood flood-opacity="0" result="BackgroundImageFix"/>
<feColorMatrix in="SourceAlpha" type="matrix" values="0 0 0 0 0 0 0 0 0 0 0 0 0 0 0 0 0 0 127 0" result="hardAlpha"/>
<feOffset dy="12"/>
<feGaussianBlur stdDeviation="8"/>
<feColorMatrix type="matrix" values="0 0 0 0 0 0 0 0 0 0 0 0 0 0 0 0 0 0 0.04 0"/>
<feBlend mode="normal" in2="BackgroundImageFix" result="effect1_dropShadow_4818_340929"/>
<feBlend mode="normal" in="SourceGraphic" in2="effect1_dropShadow_4818_340929" result="shape"/>
</filter>
<clipPath id="clip0_4818_340929">
<rect x="28" y="28" width="160" height="160" rx="16" fill="white"/>
</clipPath>
<clipPath id="clip1_4818_340929">
<rect width="110" height="92.8689" fill="white" transform="translate(53 44)"/>
</clipPath>
</defs>
</svg>
