<svg width="216" height="216" viewBox="0 0 216 216" fill="none" xmlns="http://www.w3.org/2000/svg">
<g filter="url(#filter0_d_4761_353004)">
<g clip-path="url(#clip0_4761_353004)">
<rect x="28" y="28" width="160" height="160" rx="16" fill="white"/>
<path d="M62.9994 146.448C62.9994 147.056 63.0741 147.611 63.2234 148.112C63.3728 148.603 63.5861 149.024 63.8634 149.376C64.1514 149.717 64.4981 149.984 64.9034 150.176C65.3088 150.368 65.7674 150.464 66.2794 150.464C66.7808 150.464 67.2341 150.368 67.6394 150.176C68.0448 149.984 68.3861 149.717 68.6634 149.376C68.9514 149.024 69.1701 148.603 69.3194 148.112C69.4688 147.611 69.5434 147.056 69.5434 146.448C69.5434 145.84 69.4688 145.291 69.3194 144.8C69.1701 144.299 68.9514 143.877 68.6634 143.536C68.3861 143.184 68.0448 142.912 67.6394 142.72C67.2341 142.528 66.7808 142.432 66.2794 142.432C65.7674 142.432 65.3088 142.528 64.9034 142.72C64.4981 142.912 64.1514 143.184 63.8634 143.536C63.5861 143.888 63.3728 144.309 63.2234 144.8C63.0741 145.291 62.9994 145.84 62.9994 146.448ZM71.6554 146.448C71.6554 147.397 71.5114 148.235 71.2234 148.96C70.9461 149.685 70.5621 150.293 70.0714 150.784C69.5914 151.264 69.0261 151.627 68.3754 151.872C67.7248 152.117 67.0314 152.24 66.2954 152.24C65.5594 152.24 64.8608 152.117 64.1994 151.872C63.5488 151.627 62.9781 151.264 62.4874 150.784C62.0074 150.293 61.6234 149.685 61.3354 148.96C61.0474 148.235 60.9034 147.397 60.9034 146.448C60.9034 145.499 61.0474 144.667 61.3354 143.952C61.6234 143.227 62.0128 142.619 62.5034 142.128C63.0048 141.637 63.5808 141.269 64.2314 141.024C64.8821 140.779 65.5701 140.656 66.2954 140.656C67.0208 140.656 67.7088 140.779 68.3594 141.024C69.0101 141.269 69.5754 141.637 70.0554 142.128C70.5461 142.619 70.9354 143.227 71.2234 143.952C71.5114 144.667 71.6554 145.499 71.6554 146.448ZM80.9551 141.28C80.8484 141.301 80.7311 141.323 80.6031 141.344C80.4857 141.365 80.3417 141.387 80.1711 141.408C80.0004 141.429 79.7977 141.456 79.5631 141.488C79.3391 141.509 79.0777 141.536 78.7791 141.568C78.3204 141.621 77.9097 141.712 77.5471 141.84C77.1844 141.957 76.8697 142.133 76.6031 142.368C76.3364 142.592 76.1177 142.88 75.9471 143.232C75.7764 143.584 75.6537 144.011 75.5791 144.512C75.9097 144.299 76.2671 144.133 76.6511 144.016C77.0457 143.899 77.4297 143.84 77.8031 143.84C78.9124 143.84 79.7924 144.192 80.4431 144.896C81.0937 145.6 81.4191 146.619 81.4191 147.952C81.4191 148.592 81.3284 149.173 81.1471 149.696C80.9657 150.219 80.7044 150.667 80.3631 151.04C80.0217 151.413 79.6111 151.707 79.1311 151.92C78.6511 152.123 78.1071 152.224 77.4991 152.224C76.7417 152.224 76.1071 152.101 75.5951 151.856C75.0831 151.6 74.6724 151.243 74.3631 150.784C74.0537 150.315 73.8297 149.755 73.6911 149.104C73.5524 148.453 73.4831 147.728 73.4831 146.928C73.4831 145.883 73.5684 144.96 73.7391 144.16C73.9204 143.349 74.2084 142.656 74.6031 142.08C75.0084 141.504 75.5311 141.04 76.1711 140.688C76.8217 140.325 77.6111 140.075 78.5391 139.936C79.0191 139.861 79.4191 139.803 79.7391 139.76C80.0697 139.717 80.4004 139.659 80.7311 139.584L80.9551 141.28ZM75.5151 146.208C75.4937 146.347 75.4831 146.517 75.4831 146.72C75.4831 146.912 75.4831 147.093 75.4831 147.264C75.4831 147.744 75.5151 148.187 75.5791 148.592C75.6431 148.997 75.7551 149.344 75.9151 149.632C76.0751 149.92 76.2831 150.144 76.5391 150.304C76.7951 150.464 77.1151 150.544 77.4991 150.544C77.8297 150.544 78.1177 150.48 78.3631 150.352C78.6084 150.224 78.8111 150.043 78.9711 149.808C79.1311 149.573 79.2484 149.301 79.3231 148.992C79.4084 148.672 79.4511 148.325 79.4511 147.952C79.4511 147.632 79.4137 147.328 79.3391 147.04C79.2751 146.741 79.1631 146.48 79.0031 146.256C78.8537 146.021 78.6511 145.835 78.3951 145.696C78.1391 145.557 77.8244 145.488 77.4511 145.488C77.0884 145.488 76.7257 145.552 76.3631 145.68C76.0111 145.808 75.7284 145.984 75.5151 146.208ZM85.3793 146.512C85.3473 146.96 85.3153 147.429 85.2833 147.92C85.2513 148.4 85.2246 148.88 85.2033 149.36C85.182 149.84 85.1606 150.304 85.1393 150.752C85.118 151.2 85.102 151.616 85.0913 152H83.2193C83.2406 151.381 83.2726 150.715 83.3153 150C83.358 149.275 83.406 148.544 83.4593 147.808C83.5233 147.061 83.5873 146.331 83.6513 145.616C83.7153 144.901 83.7846 144.24 83.8593 143.632H85.5393C85.9446 144.283 86.3553 145.051 86.7713 145.936C87.1873 146.811 87.6513 147.808 88.1633 148.928C88.6966 147.787 89.182 146.757 89.6193 145.84C90.0566 144.912 90.446 144.176 90.7873 143.632H92.4833C92.558 144.24 92.6273 144.901 92.6913 145.616C92.766 146.331 92.83 147.061 92.8833 147.808C92.9366 148.544 92.9846 149.275 93.0273 150C93.07 150.715 93.102 151.381 93.1233 152H91.2033C91.182 151.125 91.1446 150.224 91.0913 149.296C91.0486 148.357 90.9953 147.429 90.9313 146.512C90.7713 146.832 90.5953 147.189 90.4033 147.584C90.222 147.979 90.0406 148.379 89.8593 148.784C89.678 149.189 89.502 149.584 89.3313 149.968C89.1606 150.341 89.0113 150.672 88.8833 150.96H87.4433C87.3153 150.672 87.1606 150.336 86.9793 149.952C86.8086 149.568 86.6326 149.173 86.4513 148.768C86.27 148.363 86.0833 147.968 85.8913 147.584C85.71 147.189 85.5393 146.832 85.3793 146.512ZM94.9164 147.856C94.9164 147.12 95.0231 146.475 95.2364 145.92C95.4604 145.365 95.7538 144.907 96.1164 144.544C96.4791 144.171 96.8951 143.893 97.3644 143.712C97.8338 143.52 98.3138 143.424 98.8044 143.424C99.9564 143.424 100.852 143.781 101.492 144.496C102.143 145.211 102.468 146.277 102.468 147.696C102.468 147.803 102.463 147.925 102.452 148.064C102.452 148.192 102.447 148.309 102.436 148.416H96.9164C96.9698 149.088 97.2044 149.611 97.6204 149.984C98.0471 150.347 98.6604 150.528 99.4604 150.528C99.9298 150.528 100.356 150.485 100.74 150.4C101.135 150.315 101.444 150.224 101.668 150.128L101.924 151.712C101.818 151.765 101.668 151.824 101.476 151.888C101.295 151.941 101.082 151.989 100.836 152.032C100.602 152.085 100.346 152.128 100.068 152.16C99.7911 152.192 99.5084 152.208 99.2204 152.208C98.4844 152.208 97.8444 152.101 97.3004 151.888C96.7564 151.664 96.3084 151.36 95.9564 150.976C95.6044 150.581 95.3431 150.123 95.1724 149.6C95.0018 149.067 94.9164 148.485 94.9164 147.856ZM100.532 146.992C100.532 146.725 100.495 146.475 100.42 146.24C100.346 145.995 100.234 145.787 100.084 145.616C99.9458 145.435 99.7698 145.296 99.5564 145.2C99.3538 145.093 99.1084 145.04 98.8204 145.04C98.5218 145.04 98.2604 145.099 98.0364 145.216C97.8124 145.323 97.6204 145.467 97.4604 145.648C97.3111 145.829 97.1938 146.037 97.1084 146.272C97.0231 146.507 96.9644 146.747 96.9324 146.992H100.532ZM111.545 152H109.609V148.496H106.457V152H104.521V143.632H106.457V146.896H109.609V143.632H111.545V152ZM117.701 148.896C117.573 148.896 117.445 148.896 117.317 148.896C117.189 148.896 117.067 148.891 116.949 148.88C116.608 149.392 116.293 149.92 116.005 150.464C115.717 150.997 115.451 151.509 115.205 152H113.221C113.509 151.339 113.829 150.704 114.181 150.096C114.533 149.488 114.864 148.971 115.173 148.544C114.651 148.32 114.267 148.021 114.021 147.648C113.787 147.264 113.669 146.816 113.669 146.304C113.669 145.835 113.755 145.424 113.925 145.072C114.107 144.709 114.357 144.411 114.677 144.176C114.997 143.931 115.381 143.749 115.829 143.632C116.277 143.504 116.773 143.44 117.317 143.44C117.947 143.44 118.555 143.477 119.141 143.552C119.739 143.627 120.224 143.712 120.597 143.808V152H118.661V148.896H117.701ZM118.661 145.04C118.544 145.019 118.363 145.003 118.117 144.992C117.872 144.971 117.621 144.96 117.365 144.96C116.181 144.96 115.589 145.397 115.589 146.272C115.589 146.507 115.632 146.704 115.717 146.864C115.813 147.013 115.941 147.136 116.101 147.232C116.261 147.328 116.448 147.397 116.661 147.44C116.875 147.472 117.104 147.488 117.349 147.488H118.661V145.04ZM129.372 145.248H126.668V152H124.732V145.248H122.044V143.632H129.372V145.248ZM132.754 146.72C132.914 146.677 133.149 146.64 133.458 146.608C133.767 146.576 134.077 146.56 134.386 146.56C134.866 146.56 135.314 146.613 135.73 146.72C136.157 146.827 136.525 146.997 136.834 147.232C137.143 147.456 137.389 147.749 137.57 148.112C137.751 148.464 137.842 148.885 137.842 149.376C137.842 149.877 137.757 150.304 137.586 150.656C137.415 151.008 137.17 151.296 136.85 151.52C136.53 151.744 136.146 151.909 135.698 152.016C135.261 152.123 134.77 152.176 134.226 152.176C133.597 152.176 133.01 152.144 132.466 152.08C131.922 152.016 131.373 151.92 130.818 151.792V143.632H132.754V146.72ZM134.178 150.656C134.722 150.656 135.143 150.555 135.442 150.352C135.751 150.139 135.906 149.803 135.906 149.344C135.906 149.109 135.853 148.912 135.746 148.752C135.65 148.592 135.517 148.464 135.346 148.368C135.186 148.261 134.994 148.187 134.77 148.144C134.546 148.101 134.311 148.08 134.066 148.08C133.842 148.08 133.607 148.091 133.362 148.112C133.117 148.123 132.914 148.149 132.754 148.192V150.576C132.893 150.597 133.095 150.619 133.362 150.64C133.639 150.651 133.911 150.656 134.178 150.656ZM139.135 147.824C139.135 147.205 139.231 146.629 139.423 146.096C139.615 145.552 139.887 145.083 140.239 144.688C140.602 144.293 141.039 143.984 141.551 143.76C142.063 143.536 142.639 143.424 143.279 143.424C144.069 143.424 144.815 143.568 145.519 143.856L145.103 145.44C144.879 145.344 144.623 145.264 144.335 145.2C144.058 145.136 143.759 145.104 143.439 145.104C142.682 145.104 142.106 145.344 141.711 145.824C141.317 146.293 141.119 146.96 141.119 147.824C141.119 148.656 141.306 149.317 141.679 149.808C142.053 150.288 142.682 150.528 143.567 150.528C143.898 150.528 144.223 150.496 144.543 150.432C144.863 150.368 145.141 150.288 145.375 150.192L145.647 151.792C145.434 151.899 145.109 151.995 144.671 152.08C144.245 152.165 143.802 152.208 143.343 152.208C142.629 152.208 142.005 152.101 141.471 151.888C140.949 151.664 140.511 151.36 140.159 150.976C139.818 150.581 139.562 150.117 139.391 149.584C139.221 149.04 139.135 148.453 139.135 147.824ZM150.842 148.896C150.714 148.896 150.586 148.896 150.458 148.896C150.33 148.896 150.207 148.891 150.09 148.88C149.749 149.392 149.434 149.92 149.146 150.464C148.858 150.997 148.591 151.509 148.346 152H146.362C146.65 151.339 146.97 150.704 147.322 150.096C147.674 149.488 148.005 148.971 148.314 148.544C147.791 148.32 147.407 148.021 147.162 147.648C146.927 147.264 146.81 146.816 146.81 146.304C146.81 145.835 146.895 145.424 147.066 145.072C147.247 144.709 147.498 144.411 147.818 144.176C148.138 143.931 148.522 143.749 148.97 143.632C149.418 143.504 149.914 143.44 150.458 143.44C151.087 143.44 151.695 143.477 152.282 143.552C152.879 143.627 153.365 143.712 153.738 143.808V152H151.802V148.896H150.842ZM151.802 145.04C151.685 145.019 151.503 145.003 151.258 144.992C151.013 144.971 150.762 144.96 150.506 144.96C149.322 144.96 148.73 145.397 148.73 146.272C148.73 146.507 148.773 146.704 148.858 146.864C148.954 147.013 149.082 147.136 149.242 147.232C149.402 147.328 149.589 147.397 149.802 147.44C150.015 147.472 150.245 147.488 150.49 147.488H151.802V145.04ZM46.9496 164.512C46.9176 164.96 46.8856 165.429 46.8536 165.92C46.8216 166.4 46.795 166.88 46.7736 167.36C46.7523 167.84 46.731 168.304 46.7096 168.752C46.6883 169.2 46.6723 169.616 46.6616 170H44.7896C44.811 169.381 44.843 168.715 44.8856 168C44.9283 167.275 44.9763 166.544 45.0296 165.808C45.0936 165.061 45.1576 164.331 45.2216 163.616C45.2856 162.901 45.355 162.24 45.4296 161.632H47.1096C47.515 162.283 47.9256 163.051 48.3416 163.936C48.7576 164.811 49.2216 165.808 49.7336 166.928C50.267 165.787 50.7523 164.757 51.1896 163.84C51.627 162.912 52.0163 162.176 52.3576 161.632H54.0536C54.1283 162.24 54.1976 162.901 54.2616 163.616C54.3363 164.331 54.4003 165.061 54.4536 165.808C54.507 166.544 54.555 167.275 54.5976 168C54.6403 168.715 54.6723 169.381 54.6936 170H52.7736C52.7523 169.125 52.715 168.224 52.6616 167.296C52.619 166.357 52.5656 165.429 52.5016 164.512C52.3416 164.832 52.1656 165.189 51.9736 165.584C51.7923 165.979 51.611 166.379 51.4296 166.784C51.2483 167.189 51.0723 167.584 50.9016 167.968C50.731 168.341 50.5816 168.672 50.4536 168.96H49.0136C48.8856 168.672 48.731 168.336 48.5496 167.952C48.379 167.568 48.203 167.173 48.0216 166.768C47.8403 166.363 47.6536 165.968 47.4616 165.584C47.2803 165.189 47.1096 164.832 46.9496 164.512ZM59.8948 168.64C60.4921 168.64 60.9454 168.608 61.2548 168.544V166.4C61.1481 166.368 60.9934 166.336 60.7908 166.304C60.5881 166.272 60.3641 166.256 60.1188 166.256C59.9054 166.256 59.6868 166.272 59.4628 166.304C59.2494 166.336 59.0521 166.395 58.8708 166.48C58.7001 166.565 58.5614 166.688 58.4548 166.848C58.3481 166.997 58.2948 167.189 58.2948 167.424C58.2948 167.883 58.4388 168.203 58.7268 168.384C59.0148 168.555 59.4041 168.64 59.8948 168.64ZM59.7348 161.424C60.3748 161.424 60.9134 161.504 61.3508 161.664C61.7881 161.824 62.1348 162.048 62.3908 162.336C62.6574 162.624 62.8441 162.976 62.9508 163.392C63.0681 163.797 63.1268 164.245 63.1268 164.736V169.808C62.8281 169.872 62.3748 169.947 61.7668 170.032C61.1694 170.128 60.4921 170.176 59.7348 170.176C59.2334 170.176 58.7748 170.128 58.3588 170.032C57.9428 169.936 57.5854 169.781 57.2868 169.568C56.9988 169.355 56.7694 169.077 56.5988 168.736C56.4388 168.395 56.3588 167.973 56.3588 167.472C56.3588 166.992 56.4494 166.587 56.6308 166.256C56.8228 165.925 57.0788 165.659 57.3988 165.456C57.7188 165.243 58.0868 165.093 58.5028 165.008C58.9294 164.912 59.3721 164.864 59.8307 164.864C60.0441 164.864 60.2681 164.88 60.5028 164.912C60.7374 164.933 60.9881 164.976 61.2548 165.04V164.72C61.2548 164.496 61.2281 164.283 61.1748 164.08C61.1214 163.877 61.0254 163.701 60.8868 163.552C60.7588 163.392 60.5828 163.269 60.3588 163.184C60.1454 163.099 59.8734 163.056 59.5428 163.056C59.0948 163.056 58.6841 163.088 58.3108 163.152C57.9374 163.216 57.6334 163.291 57.3988 163.376L57.1588 161.808C57.4041 161.723 57.7614 161.637 58.2308 161.552C58.7001 161.467 59.2014 161.424 59.7348 161.424ZM68.7776 163.232C68.767 163.701 68.751 164.192 68.7296 164.704C68.7083 165.205 68.655 165.701 68.5696 166.192C68.495 166.683 68.3723 167.152 68.2016 167.6C68.031 168.048 67.791 168.453 67.4816 168.816C67.183 169.168 66.8043 169.467 66.3456 169.712C65.8976 169.947 65.3483 170.096 64.6976 170.16L64.4256 168.544C64.9696 168.437 65.391 168.267 65.6896 168.032C65.9883 167.787 66.2176 167.477 66.3776 167.104C66.5056 166.827 66.6016 166.512 66.6656 166.16C66.7403 165.808 66.7936 165.44 66.8256 165.056C66.8683 164.661 66.895 164.261 66.9056 163.856C66.9163 163.451 66.9216 163.056 66.9216 162.672V161.632H72.8416V170H70.9056V163.232H68.7776ZM85.5021 170H83.5661V161.632H85.5021V170ZM77.2461 164.72C77.4061 164.677 77.6355 164.64 77.9341 164.608C78.2435 164.576 78.5421 164.56 78.8301 164.56C79.2888 164.56 79.7208 164.613 80.1261 164.72C80.5421 164.827 80.8995 164.997 81.1981 165.232C81.5075 165.456 81.7475 165.749 81.9181 166.112C82.0995 166.464 82.1901 166.885 82.1901 167.376C82.1901 167.877 82.1048 168.304 81.9341 168.656C81.7635 169.008 81.5235 169.296 81.2141 169.52C80.9048 169.744 80.5315 169.909 80.0941 170.016C79.6675 170.123 79.1928 170.176 78.6701 170.176C78.0621 170.176 77.4861 170.144 76.9421 170.08C76.4088 170.016 75.8648 169.92 75.3101 169.792V161.632H77.2461V164.72ZM78.6221 168.656C79.1235 168.656 79.5181 168.555 79.8061 168.352C80.1048 168.139 80.2541 167.803 80.2541 167.344C80.2541 167.109 80.2061 166.912 80.1101 166.752C80.0141 166.592 79.8808 166.464 79.7101 166.368C79.5501 166.261 79.3635 166.187 79.1501 166.144C78.9475 166.101 78.7341 166.08 78.5101 166.08C78.3075 166.08 78.0835 166.091 77.8381 166.112C77.6035 166.123 77.4061 166.149 77.2461 166.192V168.576C77.3848 168.597 77.5875 168.619 77.8541 168.64C78.1208 168.651 78.3768 168.656 78.6221 168.656ZM89.9184 164.512C89.8864 164.96 89.8544 165.429 89.8224 165.92C89.7904 166.4 89.7637 166.88 89.7424 167.36C89.721 167.84 89.6997 168.304 89.6784 168.752C89.657 169.2 89.641 169.616 89.6304 170H87.7584C87.7797 169.381 87.8117 168.715 87.8544 168C87.897 167.275 87.945 166.544 87.9984 165.808C88.0624 165.061 88.1264 164.331 88.1904 163.616C88.2544 162.901 88.3237 162.24 88.3984 161.632H90.0784C90.4837 162.283 90.8944 163.051 91.3104 163.936C91.7264 164.811 92.1904 165.808 92.7024 166.928C93.2357 165.787 93.721 164.757 94.1584 163.84C94.5957 162.912 94.985 162.176 95.3264 161.632H97.0224C97.097 162.24 97.1664 162.901 97.2304 163.616C97.305 164.331 97.369 165.061 97.4224 165.808C97.4757 166.544 97.5237 167.275 97.5664 168C97.609 168.715 97.641 169.381 97.6624 170H95.7424C95.721 169.125 95.6837 168.224 95.6304 167.296C95.5877 166.357 95.5344 165.429 95.4704 164.512C95.3104 164.832 95.1344 165.189 94.9424 165.584C94.761 165.979 94.5797 166.379 94.3984 166.784C94.217 167.189 94.041 167.584 93.8704 167.968C93.6997 168.341 93.5504 168.672 93.4224 168.96H91.9824C91.8544 168.672 91.6997 168.336 91.5184 167.952C91.3477 167.568 91.1717 167.173 90.9904 166.768C90.809 166.363 90.6224 165.968 90.4304 165.584C90.249 165.189 90.0784 164.832 89.9184 164.512ZM107.248 161.632V170H105.328C105.328 169.392 105.328 168.789 105.328 168.192C105.338 167.595 105.344 167.04 105.344 166.528C105.354 166.016 105.36 165.573 105.36 165.2C105.37 164.816 105.376 164.533 105.376 164.352C105.056 164.768 104.725 165.227 104.384 165.728C104.042 166.229 103.701 166.731 103.36 167.232C103.029 167.733 102.714 168.224 102.416 168.704C102.117 169.184 101.856 169.616 101.632 170H99.9195V161.632H101.824C101.824 162.251 101.818 162.843 101.808 163.408C101.808 163.963 101.808 164.469 101.808 164.928C101.808 165.387 101.802 165.787 101.792 166.128C101.792 166.469 101.792 166.731 101.792 166.912C102.09 166.453 102.4 165.984 102.72 165.504C103.04 165.013 103.36 164.539 103.68 164.08C104.01 163.611 104.336 163.168 104.656 162.752C104.976 162.336 105.285 161.963 105.584 161.632H107.248ZM117.147 166.896C117.019 166.896 116.891 166.896 116.763 166.896C116.635 166.896 116.512 166.891 116.395 166.88C116.053 167.392 115.739 167.92 115.451 168.464C115.163 168.997 114.896 169.509 114.651 170H112.667C112.955 169.339 113.275 168.704 113.627 168.096C113.979 167.488 114.309 166.971 114.619 166.544C114.096 166.32 113.712 166.021 113.467 165.648C113.232 165.264 113.115 164.816 113.115 164.304C113.115 163.835 113.2 163.424 113.371 163.072C113.552 162.709 113.803 162.411 114.123 162.176C114.443 161.931 114.827 161.749 115.275 161.632C115.723 161.504 116.219 161.44 116.763 161.44C117.392 161.44 118 161.477 118.587 161.552C119.184 161.627 119.669 161.712 120.043 161.808V170H118.107V166.896H117.147ZM118.107 163.04C117.989 163.019 117.808 163.003 117.563 162.992C117.317 162.971 117.067 162.96 116.811 162.96C115.627 162.96 115.035 163.397 115.035 164.272C115.035 164.507 115.077 164.704 115.163 164.864C115.259 165.013 115.387 165.136 115.547 165.232C115.707 165.328 115.893 165.397 116.107 165.44C116.32 165.472 116.549 165.488 116.795 165.488H118.107V163.04ZM121.489 168.416H122.449C122.78 167.979 123.036 167.493 123.217 166.96C123.409 166.416 123.548 165.851 123.633 165.264C123.719 164.667 123.772 164.059 123.793 163.44C123.815 162.821 123.831 162.219 123.841 161.632H129.841V168.416H131.121V172.368H129.393V170H123.201V172.368H121.489V168.416ZM127.905 168.416V163.232H125.633C125.612 163.669 125.585 164.117 125.553 164.576C125.521 165.024 125.463 165.472 125.377 165.92C125.292 166.357 125.175 166.789 125.025 167.216C124.887 167.632 124.7 168.032 124.465 168.416H127.905ZM138.19 165.856C138.19 164.992 137.993 164.32 137.598 163.84C137.214 163.36 136.59 163.12 135.726 163.12C135.545 163.12 135.353 163.131 135.15 163.152C134.958 163.163 134.766 163.195 134.574 163.248V168.032C134.745 168.149 134.969 168.261 135.246 168.368C135.534 168.464 135.838 168.512 136.158 168.512C136.862 168.512 137.374 168.272 137.694 167.792C138.025 167.312 138.19 166.667 138.19 165.856ZM140.174 165.824C140.174 166.464 140.089 167.051 139.918 167.584C139.758 168.117 139.524 168.576 139.214 168.96C138.905 169.344 138.516 169.643 138.046 169.856C137.588 170.069 137.065 170.176 136.478 170.176C136.084 170.176 135.721 170.128 135.39 170.032C135.06 169.936 134.788 169.829 134.574 169.712V172.96H132.638V161.904C133.033 161.797 133.518 161.696 134.094 161.6C134.67 161.504 135.278 161.456 135.918 161.456C136.58 161.456 137.172 161.557 137.694 161.76C138.217 161.963 138.66 162.256 139.022 162.64C139.396 163.013 139.678 163.472 139.87 164.016C140.073 164.549 140.174 165.152 140.174 165.824ZM145.114 168.64C145.711 168.64 146.164 168.608 146.474 168.544V166.4C146.367 166.368 146.212 166.336 146.01 166.304C145.807 166.272 145.583 166.256 145.338 166.256C145.124 166.256 144.906 166.272 144.682 166.304C144.468 166.336 144.271 166.395 144.09 166.48C143.919 166.565 143.78 166.688 143.674 166.848C143.567 166.997 143.514 167.189 143.514 167.424C143.514 167.883 143.658 168.203 143.946 168.384C144.234 168.555 144.623 168.64 145.114 168.64ZM144.954 161.424C145.594 161.424 146.132 161.504 146.57 161.664C147.007 161.824 147.354 162.048 147.61 162.336C147.876 162.624 148.063 162.976 148.17 163.392C148.287 163.797 148.346 164.245 148.346 164.736V169.808C148.047 169.872 147.594 169.947 146.986 170.032C146.388 170.128 145.711 170.176 144.954 170.176C144.452 170.176 143.994 170.128 143.578 170.032C143.162 169.936 142.804 169.781 142.506 169.568C142.218 169.355 141.988 169.077 141.818 168.736C141.658 168.395 141.578 167.973 141.578 167.472C141.578 166.992 141.668 166.587 141.85 166.256C142.042 165.925 142.298 165.659 142.618 165.456C142.938 165.243 143.306 165.093 143.722 165.008C144.148 164.912 144.591 164.864 145.049 164.864C145.263 164.864 145.487 164.88 145.722 164.912C145.956 164.933 146.207 164.976 146.474 165.04V164.72C146.474 164.496 146.447 164.283 146.394 164.08C146.34 163.877 146.244 163.701 146.106 163.552C145.978 163.392 145.802 163.269 145.578 163.184C145.364 163.099 145.092 163.056 144.762 163.056C144.314 163.056 143.903 163.088 143.53 163.152C143.156 163.216 142.852 163.291 142.618 163.376L142.378 161.808C142.623 161.723 142.98 161.637 143.45 161.552C143.919 161.467 144.42 161.424 144.954 161.424ZM152.668 164.512C152.636 164.96 152.604 165.429 152.572 165.92C152.54 166.4 152.514 166.88 152.492 167.36C152.471 167.84 152.45 168.304 152.428 168.752C152.407 169.2 152.391 169.616 152.38 170H150.508C150.53 169.381 150.562 168.715 150.604 168C150.647 167.275 150.695 166.544 150.748 165.808C150.812 165.061 150.876 164.331 150.94 163.616C151.004 162.901 151.074 162.24 151.148 161.632H152.828C153.234 162.283 153.644 163.051 154.06 163.936C154.476 164.811 154.94 165.808 155.452 166.928C155.986 165.787 156.471 164.757 156.908 163.84C157.346 162.912 157.735 162.176 158.076 161.632H159.772C159.847 162.24 159.916 162.901 159.98 163.616C160.055 164.331 160.119 165.061 160.172 165.808C160.226 166.544 160.274 167.275 160.316 168C160.359 168.715 160.391 169.381 160.412 170H158.492C158.471 169.125 158.434 168.224 158.38 167.296C158.338 166.357 158.284 165.429 158.22 164.512C158.06 164.832 157.884 165.189 157.692 165.584C157.511 165.979 157.33 166.379 157.148 166.784C156.967 167.189 156.791 167.584 156.62 167.968C156.45 168.341 156.3 168.672 156.172 168.96H154.732C154.604 168.672 154.45 168.336 154.268 167.952C154.098 167.568 153.922 167.173 153.74 166.768C153.559 166.363 153.372 165.968 153.18 165.584C152.999 165.189 152.828 164.832 152.668 164.512ZM169.998 161.632V170H168.078C168.078 169.392 168.078 168.789 168.078 168.192C168.088 167.595 168.094 167.04 168.094 166.528C168.104 166.016 168.11 165.573 168.11 165.2C168.12 164.816 168.126 164.533 168.126 164.352C167.806 164.768 167.475 165.227 167.134 165.728C166.792 166.229 166.451 166.731 166.11 167.232C165.779 167.733 165.464 168.224 165.166 168.704C164.867 169.184 164.606 169.616 164.382 170H162.67V161.632H164.574C164.574 162.251 164.568 162.843 164.558 163.408C164.558 163.963 164.558 164.469 164.558 164.928C164.558 165.387 164.552 165.787 164.542 166.128C164.542 166.469 164.542 166.731 164.542 166.912C164.84 166.453 165.15 165.984 165.47 165.504C165.79 165.013 166.11 164.539 166.43 164.08C166.76 163.611 167.086 163.168 167.406 162.752C167.726 162.336 168.035 161.963 168.334 161.632H169.998Z" fill="#4F6690"/>
</g>
</g>
<g clip-path="url(#clip1_4761_353004)">
<path d="M96.8018 76.2793H123.937" stroke="#4F6691" stroke-width="3.5" stroke-miterlimit="10" stroke-linecap="round" stroke-linejoin="round"/>
<path d="M100.766 82.3694L95.2163 76.4234V76.2793L101.162 70.7297" stroke="#4F6691" stroke-width="3.5" stroke-miterlimit="10" stroke-linecap="round" stroke-linejoin="round"/>
<path d="M122.748 88.5316H95.6125" stroke="#4F6691" stroke-width="3.5" stroke-miterlimit="10" stroke-linecap="round" stroke-linejoin="round"/>
<path d="M118.784 82.4415L124.333 88.4235V88.5676L118.351 94.0811" stroke="#4F6691" stroke-width="3.5" stroke-miterlimit="10" stroke-linecap="round" stroke-linejoin="round"/>
<path d="M102.784 92.6396C103.144 98.8018 103.072 104.676 98.2432 108.928C89.2342 116.856 58.9279 114.261 66.8919 77.5766C71.9369 54.3333 89.4144 46.7658 99.6847 49.2883C107.721 51.2703 107.793 62.1531 105.126 72.027" stroke="#4F6691" stroke-width="2" stroke-miterlimit="10" stroke-linecap="round" stroke-linejoin="round"/>
<path d="M100.658 92.5315C100.874 97.3603 100.478 101.865 96.6577 105.252C88.8379 112.135 62.4595 109.901 69.4144 78.009C73.8108 57.7928 88.982 51.2342 97.919 53.4324C103.541 54.8018 104.694 61.2162 103.685 68.1712" stroke="#4F6691" stroke-width="2" stroke-miterlimit="10" stroke-linecap="round" stroke-linejoin="round"/>
<path d="M83.4324 81.8649C86.9279 81 94.3874 86.8739 91.5766 93.6487C88.8018 100.423 76.2252 100.351 74.8198 94.4415C73.4144 88.4955 76.8739 83.4865 83.4324 81.8649Z" stroke="#4F6691" stroke-width="2" stroke-miterlimit="10" stroke-linecap="round" stroke-linejoin="round"/>
<path d="M85.4143 88.6396C86.7116 87.8108 89.6305 88.2432 89.5945 90.5495C89.5584 92.8558 86.5314 93.8288 85.4503 93.2162C84.4053 92.6036 83.2161 90.0811 85.4143 88.6396Z" stroke="#4F6691" stroke-width="2" stroke-miterlimit="10" stroke-linecap="round" stroke-linejoin="round"/>
<path d="M89.2341 43.8829L90.2431 49.1802" stroke="#4F6691" stroke-width="2" stroke-miterlimit="10" stroke-linecap="round" stroke-linejoin="round"/>
<path d="M100.766 42.5495L98.8198 48.7838" stroke="#4F6691" stroke-width="2" stroke-miterlimit="10" stroke-linecap="round" stroke-linejoin="round"/>
<path d="M109.522 50.4775L105.054 52.8198" stroke="#4F6691" stroke-width="2" stroke-miterlimit="10" stroke-linecap="round" stroke-linejoin="round"/>
<path d="M112.405 58.5856L106.892 59.6667" stroke="#4F6691" stroke-width="2" stroke-miterlimit="10" stroke-linecap="round" stroke-linejoin="round"/>
<path d="M109.883 67.054L106.64 66.5856" stroke="#4F6691" stroke-width="2" stroke-miterlimit="10" stroke-linecap="round" stroke-linejoin="round"/>
<path d="M76.1892 49.2883L79.973 54.6216" stroke="#4F6691" stroke-width="2" stroke-miterlimit="10" stroke-linecap="round" stroke-linejoin="round"/>
<path d="M67.9729 56.8559L73.5585 61.2162" stroke="#4F6691" stroke-width="2" stroke-miterlimit="10" stroke-linecap="round" stroke-linejoin="round"/>
<path d="M63.1082 67.955L68.91 70.009" stroke="#4F6691" stroke-width="2" stroke-miterlimit="10" stroke-linecap="round" stroke-linejoin="round"/>
<path d="M59.8647 77.5045L66.4954 78.6937" stroke="#4F6691" stroke-width="2" stroke-miterlimit="10" stroke-linecap="round" stroke-linejoin="round"/>
<path d="M58.2432 88.8559L65.1981 88.1351" stroke="#4F6691" stroke-width="2" stroke-miterlimit="10" stroke-linecap="round" stroke-linejoin="round"/>
<path d="M59.3242 99.3784L66.1711 96.4955" stroke="#4F6691" stroke-width="2" stroke-miterlimit="10" stroke-linecap="round" stroke-linejoin="round"/>
<path d="M64.5496 108.135L69.2342 103.991" stroke="#4F6691" stroke-width="2" stroke-miterlimit="10" stroke-linecap="round" stroke-linejoin="round"/>
<path d="M70.6755 114.153L73.8107 108.712" stroke="#4F6691" stroke-width="2" stroke-miterlimit="10" stroke-linecap="round" stroke-linejoin="round"/>
<path d="M79.6846 120.027L81.0539 112.351" stroke="#4F6691" stroke-width="2" stroke-miterlimit="10" stroke-linecap="round" stroke-linejoin="round"/>
<path d="M90.9639 119.198L89.054 113.072" stroke="#4F6691" stroke-width="2" stroke-miterlimit="10" stroke-linecap="round" stroke-linejoin="round"/>
<path d="M100.874 115.342L97.2703 110.189" stroke="#4F6691" stroke-width="2" stroke-miterlimit="10" stroke-linecap="round" stroke-linejoin="round"/>
<path d="M108.081 109.216L101.054 106.153" stroke="#4F6691" stroke-width="2" stroke-miterlimit="10" stroke-linecap="round" stroke-linejoin="round"/>
<path d="M108.513 98.1171L103.216 97.1442" stroke="#4F6691" stroke-width="2" stroke-miterlimit="10" stroke-linecap="round" stroke-linejoin="round"/>
<path d="M112.333 71.7027C114.315 56.5315 121.09 50.045 127.613 49.2883C137.631 48.1351 150.135 59.1982 150.315 77.7568C150.495 95.6306 143.865 108.459 134.099 110.369C125.126 112.135 115.901 106.73 112.802 92.3514" stroke="#4F6691" stroke-width="2" stroke-miterlimit="10" stroke-linecap="round" stroke-linejoin="round"/>
<path d="M111.865 84.964C111.793 83.8108 111.757 82.5856 111.757 81.3604C111.757 80.5676 111.793 80.2072 111.829 79.4504" stroke="#4F6691" stroke-width="2" stroke-miterlimit="10" stroke-linecap="round" stroke-linejoin="round"/>
<path d="M115.324 71.7027C117.234 59.6667 122.784 54.4775 128.117 53.8649C136.658 52.8558 147.288 62.2973 147.432 78.0811C147.576 93.2883 141.955 104.207 133.631 105.829C127.901 106.946 122.063 104.676 118.387 98.2613" stroke="#4F6691" stroke-width="2" stroke-miterlimit="10" stroke-linecap="round" stroke-linejoin="round"/>
<path d="M143.468 86.0811C143.144 89.6486 135.18 94.8018 129.703 89.973C124.225 85.1441 128.369 73.2883 134.423 73.8648C140.477 74.4414 144.081 79.3784 143.468 86.0811Z" stroke="#4F6691" stroke-width="2" stroke-miterlimit="10" stroke-linecap="round" stroke-linejoin="round"/>
<path d="M136.405 85.7567C136.766 87.2702 135.396 89.8648 133.234 89.1081C131.072 88.3513 131.108 85.1441 132.045 84.3153C132.982 83.5225 135.793 83.1982 136.405 85.7567Z" stroke="#4F6691" stroke-width="2" stroke-miterlimit="10" stroke-linecap="round" stroke-linejoin="round"/>
<path d="M113.847 45.7928L119.685 53.1081" stroke="#4F6691" stroke-width="2" stroke-miterlimit="10" stroke-linecap="round" stroke-linejoin="round"/>
<path d="M125.991 42.009L126.64 49.1081" stroke="#4F6691" stroke-width="2" stroke-miterlimit="10" stroke-linecap="round" stroke-linejoin="round"/>
<path d="M110.495 62.009L113.811 63.4504" stroke="#4F6691" stroke-width="2" stroke-miterlimit="10" stroke-linecap="round" stroke-linejoin="round"/>
<path d="M112.225 53.9009L116.405 57.4324" stroke="#4F6691" stroke-width="2" stroke-miterlimit="10" stroke-linecap="round" stroke-linejoin="round"/>
<path d="M138.784 44.1712L136.009 50.6577" stroke="#4F6691" stroke-width="2" stroke-miterlimit="10" stroke-linecap="round" stroke-linejoin="round"/>
<path d="M150.856 51.2703L143.937 57.2883" stroke="#4F6691" stroke-width="2" stroke-miterlimit="10" stroke-linecap="round" stroke-linejoin="round"/>
<path d="M156.009 63.1622L148.802 65.8649" stroke="#4F6691" stroke-width="2" stroke-miterlimit="10" stroke-linecap="round" stroke-linejoin="round"/>
<path d="M158.423 74.6937L150.423 74.4415" stroke="#4F6691" stroke-width="2" stroke-miterlimit="10" stroke-linecap="round" stroke-linejoin="round"/>
<path d="M156.369 86.1532L150.423 84.7838" stroke="#4F6691" stroke-width="2" stroke-miterlimit="10" stroke-linecap="round" stroke-linejoin="round"/>
<path d="M109.342 102.622L114.82 99.8469" stroke="#4F6691" stroke-width="2" stroke-miterlimit="10" stroke-linecap="round" stroke-linejoin="round"/>
<path d="M107.973 81.7207L111.504 81.9009" stroke="#4F6691" stroke-width="2" stroke-miterlimit="10" stroke-linecap="round" stroke-linejoin="round"/>
<path d="M115.541 113L120.225 107.054" stroke="#4F6691" stroke-width="2" stroke-miterlimit="10" stroke-linecap="round" stroke-linejoin="round"/>
<path d="M126.099 117.577L126.82 110.477" stroke="#4F6691" stroke-width="2" stroke-miterlimit="10" stroke-linecap="round" stroke-linejoin="round"/>
<path d="M140.045 117.504L136.117 110.045" stroke="#4F6691" stroke-width="2" stroke-miterlimit="10" stroke-linecap="round" stroke-linejoin="round"/>
<path d="M148.874 111.018L142.748 105.505" stroke="#4F6691" stroke-width="2" stroke-miterlimit="10" stroke-linecap="round" stroke-linejoin="round"/>
<path d="M155.468 101.108L147.541 97.2162" stroke="#4F6691" stroke-width="2" stroke-miterlimit="10" stroke-linecap="round" stroke-linejoin="round"/>
</g>
<defs>
<filter id="filter0_d_4761_353004" x="12" y="24" width="192" height="192" filterUnits="userSpaceOnUse" color-interpolation-filters="sRGB">
<feFlood flood-opacity="0" result="BackgroundImageFix"/>
<feColorMatrix in="SourceAlpha" type="matrix" values="0 0 0 0 0 0 0 0 0 0 0 0 0 0 0 0 0 0 127 0" result="hardAlpha"/>
<feOffset dy="12"/>
<feGaussianBlur stdDeviation="8"/>
<feColorMatrix type="matrix" values="0 0 0 0 0 0 0 0 0 0 0 0 0 0 0 0 0 0 0.04 0"/>
<feBlend mode="normal" in2="BackgroundImageFix" result="effect1_dropShadow_4761_353004"/>
<feBlend mode="normal" in="SourceGraphic" in2="effect1_dropShadow_4761_353004" result="shape"/>
</filter>
<clipPath id="clip0_4761_353004">
<rect x="28" y="28" width="160" height="160" rx="16" fill="white"/>
</clipPath>
<clipPath id="clip1_4761_353004">
<rect width="102.342" height="80" fill="white" transform="translate(57.1621 41)"/>
</clipPath>
</defs>
</svg>
