<svg width="216" height="216" viewBox="0 0 216 216" fill="none" xmlns="http://www.w3.org/2000/svg">
<g filter="url(#filter0_d_4818_340928)">
<g clip-path="url(#clip0_4818_340928)">
<rect x="28" y="28" width="160" height="160" rx="16" fill="white"/>
<path d="M92.1966 140.912V142.656H88.7886V152H86.7566V142.656H83.3486V140.912H92.1966ZM94.5118 146.992C94.7571 146.747 95.0238 146.475 95.3118 146.176C95.5998 145.867 95.8824 145.557 96.1598 145.248C96.4478 144.939 96.7198 144.645 96.9758 144.368C97.2318 144.08 97.4451 143.835 97.6158 143.632H99.8878C99.6531 143.909 99.3811 144.213 99.0718 144.544C98.7731 144.875 98.4584 145.216 98.1278 145.568C97.8078 145.909 97.4878 146.245 97.1678 146.576C96.8584 146.896 96.5758 147.184 96.3198 147.44C96.6504 147.717 96.9918 148.043 97.3438 148.416C97.7064 148.779 98.0584 149.168 98.3998 149.584C98.7518 149.989 99.0771 150.405 99.3758 150.832C99.6744 151.248 99.9251 151.637 100.128 152H97.8878C97.6851 151.68 97.4451 151.344 97.1678 150.992C96.9011 150.64 96.6184 150.299 96.3198 149.968C96.0211 149.627 95.7171 149.307 95.4078 149.008C95.0984 148.709 94.7998 148.453 94.5118 148.24V152H92.5758V143.632H94.5118V146.992ZM104.473 150.64C105.07 150.64 105.524 150.608 105.833 150.544V148.4C105.726 148.368 105.572 148.336 105.369 148.304C105.166 148.272 104.942 148.256 104.697 148.256C104.484 148.256 104.265 148.272 104.041 148.304C103.828 148.336 103.63 148.395 103.449 148.48C103.278 148.565 103.14 148.688 103.033 148.848C102.926 148.997 102.873 149.189 102.873 149.424C102.873 149.883 103.017 150.203 103.305 150.384C103.593 150.555 103.982 150.64 104.473 150.64ZM104.313 143.424C104.953 143.424 105.492 143.504 105.929 143.664C106.366 143.824 106.713 144.048 106.969 144.336C107.236 144.624 107.422 144.976 107.529 145.392C107.646 145.797 107.705 146.245 107.705 146.736V151.808C107.406 151.872 106.953 151.947 106.345 152.032C105.748 152.128 105.07 152.176 104.313 152.176C103.812 152.176 103.353 152.128 102.937 152.032C102.521 151.936 102.164 151.781 101.865 151.568C101.577 151.355 101.348 151.077 101.177 150.736C101.017 150.395 100.937 149.973 100.937 149.472C100.937 148.992 101.028 148.587 101.209 148.256C101.401 147.925 101.657 147.659 101.977 147.456C102.297 147.243 102.665 147.093 103.081 147.008C103.508 146.912 103.95 146.864 104.409 146.864C104.622 146.864 104.846 146.88 105.081 146.912C105.316 146.933 105.566 146.976 105.833 147.04V146.72C105.833 146.496 105.806 146.283 105.753 146.08C105.7 145.877 105.604 145.701 105.465 145.552C105.337 145.392 105.161 145.269 104.937 145.184C104.724 145.099 104.452 145.056 104.121 145.056C103.673 145.056 103.262 145.088 102.889 145.152C102.516 145.216 102.212 145.291 101.977 145.376L101.737 143.808C101.982 143.723 102.34 143.637 102.809 143.552C103.278 143.467 103.78 143.424 104.313 143.424ZM117.1 152H115.164V148.496H112.012V152H110.076V143.632H112.012V146.896H115.164V143.632H117.1V152ZM126.888 143.632V152H124.968C124.968 151.392 124.968 150.789 124.968 150.192C124.979 149.595 124.984 149.04 124.984 148.528C124.995 148.016 125 147.573 125 147.2C125.011 146.816 125.016 146.533 125.016 146.352C124.696 146.768 124.365 147.227 124.024 147.728C123.683 148.229 123.341 148.731 123 149.232C122.669 149.733 122.355 150.224 122.056 150.704C121.757 151.184 121.496 151.616 121.272 152H119.56V143.632H121.464C121.464 144.251 121.459 144.843 121.448 145.408C121.448 145.963 121.448 146.469 121.448 146.928C121.448 147.387 121.443 147.787 121.432 148.128C121.432 148.469 121.432 148.731 121.432 148.912C121.731 148.453 122.04 147.984 122.36 147.504C122.68 147.013 123 146.539 123.32 146.08C123.651 145.611 123.976 145.168 124.296 144.752C124.616 144.336 124.925 143.963 125.224 143.632H126.888ZM56.6688 163.248H53.9648V170H52.0288V163.248H49.3408V161.632H56.6688V163.248ZM65.6828 165.808C65.6828 166.469 65.5868 167.072 65.3948 167.616C65.2028 168.16 64.9308 168.624 64.5788 169.008C64.2268 169.392 63.8001 169.691 63.2988 169.904C62.8081 170.117 62.2641 170.224 61.6668 170.224C61.0695 170.224 60.5255 170.117 60.0348 169.904C59.5441 169.691 59.1228 169.392 58.7708 169.008C58.4188 168.624 58.1415 168.16 57.9388 167.616C57.7468 167.072 57.6508 166.469 57.6508 165.808C57.6508 165.147 57.7468 164.549 57.9388 164.016C58.1415 163.472 58.4188 163.008 58.7708 162.624C59.1335 162.24 59.5601 161.947 60.0508 161.744C60.5415 161.531 61.0801 161.424 61.6668 161.424C62.2535 161.424 62.7921 161.531 63.2828 161.744C63.7841 161.947 64.2108 162.24 64.5628 162.624C64.9148 163.008 65.1868 163.472 65.3788 164.016C65.5815 164.549 65.6828 165.147 65.6828 165.808ZM63.6988 165.808C63.6988 164.976 63.5175 164.32 63.1548 163.84C62.8028 163.349 62.3068 163.104 61.6668 163.104C61.0268 163.104 60.5255 163.349 60.1628 163.84C59.8108 164.32 59.6348 164.976 59.6348 165.808C59.6348 166.651 59.8108 167.317 60.1628 167.808C60.5255 168.299 61.0268 168.544 61.6668 168.544C62.3068 168.544 62.8028 168.299 63.1548 167.808C63.5175 167.317 63.6988 166.651 63.6988 165.808ZM70.9573 163.232C70.9466 163.701 70.9306 164.192 70.9093 164.704C70.888 165.205 70.8346 165.701 70.7493 166.192C70.6746 166.683 70.552 167.152 70.3813 167.6C70.2106 168.048 69.9706 168.453 69.6613 168.816C69.3626 169.168 68.984 169.467 68.5253 169.712C68.0773 169.947 67.528 170.096 66.8773 170.16L66.6053 168.544C67.1493 168.437 67.5706 168.267 67.8693 168.032C68.168 167.787 68.3973 167.477 68.5573 167.104C68.6853 166.827 68.7813 166.512 68.8453 166.16C68.92 165.808 68.9733 165.44 69.0053 165.056C69.048 164.661 69.0746 164.261 69.0853 163.856C69.096 163.451 69.1013 163.056 69.1013 162.672V161.632H75.0213V170H73.0853V163.232H70.9573ZM77.0258 165.824C77.0258 165.205 77.1218 164.629 77.3138 164.096C77.5058 163.552 77.7778 163.083 78.1298 162.688C78.4925 162.293 78.9298 161.984 79.4418 161.76C79.9538 161.536 80.5298 161.424 81.1698 161.424C81.9591 161.424 82.7058 161.568 83.4098 161.856L82.9938 163.44C82.7698 163.344 82.5138 163.264 82.2258 163.2C81.9485 163.136 81.6498 163.104 81.3298 163.104C80.5725 163.104 79.9965 163.344 79.6018 163.824C79.2071 164.293 79.0098 164.96 79.0098 165.824C79.0098 166.656 79.1965 167.317 79.5698 167.808C79.9431 168.288 80.5725 168.528 81.4578 168.528C81.7885 168.528 82.1138 168.496 82.4338 168.432C82.7538 168.368 83.0311 168.288 83.2658 168.192L83.5378 169.792C83.3245 169.899 82.9991 169.995 82.5618 170.08C82.1351 170.165 81.6925 170.208 81.2338 170.208C80.5191 170.208 79.8951 170.101 79.3618 169.888C78.8391 169.664 78.4018 169.36 78.0498 168.976C77.7085 168.581 77.4525 168.117 77.2818 167.584C77.1111 167.04 77.0258 166.453 77.0258 165.824ZM91.5438 163.248H88.8398V170H86.9038V163.248H84.2158V161.632H91.5438V163.248ZM100.558 165.808C100.558 166.469 100.462 167.072 100.27 167.616C100.078 168.16 99.8058 168.624 99.4538 169.008C99.1018 169.392 98.6751 169.691 98.1738 169.904C97.6831 170.117 97.1391 170.224 96.5418 170.224C95.9445 170.224 95.4005 170.117 94.9098 169.904C94.4191 169.691 93.9978 169.392 93.6458 169.008C93.2938 168.624 93.0165 168.16 92.8138 167.616C92.6218 167.072 92.5258 166.469 92.5258 165.808C92.5258 165.147 92.6218 164.549 92.8138 164.016C93.0165 163.472 93.2938 163.008 93.6458 162.624C94.0085 162.24 94.4351 161.947 94.9258 161.744C95.4165 161.531 95.9551 161.424 96.5418 161.424C97.1285 161.424 97.6671 161.531 98.1578 161.744C98.6591 161.947 99.0858 162.24 99.4378 162.624C99.7898 163.008 100.062 163.472 100.254 164.016C100.456 164.549 100.558 165.147 100.558 165.808ZM98.5738 165.808C98.5738 164.976 98.3925 164.32 98.0298 163.84C97.6778 163.349 97.1818 163.104 96.5418 163.104C95.9018 163.104 95.4005 163.349 95.0378 163.84C94.6858 164.32 94.5098 164.976 94.5098 165.808C94.5098 166.651 94.6858 167.317 95.0378 167.808C95.4005 168.299 95.9018 168.544 96.5418 168.544C97.1818 168.544 97.6778 168.299 98.0298 167.808C98.3925 167.317 98.5738 166.651 98.5738 165.808ZM109.88 161.632V170H107.96C107.96 169.392 107.96 168.789 107.96 168.192C107.971 167.595 107.976 167.04 107.976 166.528C107.987 166.016 107.992 165.573 107.992 165.2C108.003 164.816 108.008 164.533 108.008 164.352C107.688 164.768 107.358 165.227 107.016 165.728C106.675 166.229 106.334 166.731 105.992 167.232C105.662 167.733 105.347 168.224 105.048 168.704C104.75 169.184 104.488 169.616 104.264 170H102.552V161.632H104.456C104.456 162.251 104.451 162.843 104.44 163.408C104.44 163.963 104.44 164.469 104.44 164.928C104.44 165.387 104.435 165.787 104.424 166.128C104.424 166.469 104.424 166.731 104.424 166.912C104.723 166.453 105.032 165.984 105.352 165.504C105.672 165.013 105.992 164.539 106.312 164.08C106.643 163.611 106.968 163.168 107.288 162.752C107.608 162.336 107.918 161.963 108.216 161.632H109.88ZM106.232 160.384C105.891 160.384 105.571 160.336 105.272 160.24C104.984 160.144 104.723 160.005 104.488 159.824C104.254 159.643 104.062 159.424 103.912 159.168C103.763 158.901 103.672 158.603 103.64 158.272L105.032 157.904C105.214 158.661 105.614 159.04 106.232 159.04C106.862 159.04 107.262 158.667 107.432 157.92L108.808 158.288C108.766 158.619 108.67 158.917 108.52 159.184C108.382 159.44 108.195 159.659 107.96 159.84C107.736 160.011 107.475 160.144 107.176 160.24C106.878 160.336 106.563 160.384 106.232 160.384ZM118.02 164.992C118.265 164.747 118.532 164.475 118.82 164.176C119.108 163.867 119.39 163.557 119.668 163.248C119.956 162.939 120.228 162.645 120.484 162.368C120.74 162.08 120.953 161.835 121.124 161.632H123.396C123.161 161.909 122.889 162.213 122.58 162.544C122.281 162.875 121.966 163.216 121.636 163.568C121.316 163.909 120.996 164.245 120.676 164.576C120.366 164.896 120.084 165.184 119.828 165.44C120.158 165.717 120.5 166.043 120.852 166.416C121.214 166.779 121.566 167.168 121.908 167.584C122.26 167.989 122.585 168.405 122.884 168.832C123.182 169.248 123.433 169.637 123.636 170H121.396C121.193 169.68 120.953 169.344 120.676 168.992C120.409 168.64 120.126 168.299 119.828 167.968C119.529 167.627 119.225 167.307 118.916 167.008C118.606 166.709 118.308 166.453 118.02 166.24V170H116.084V161.632H118.02V164.992ZM132.365 161.632V170H130.445C130.445 169.392 130.445 168.789 130.445 168.192C130.455 167.595 130.461 167.04 130.461 166.528C130.471 166.016 130.477 165.573 130.477 165.2C130.487 164.816 130.493 164.533 130.493 164.352C130.173 164.768 129.842 165.227 129.501 165.728C129.159 166.229 128.818 166.731 128.477 167.232C128.146 167.733 127.831 168.224 127.533 168.704C127.234 169.184 126.973 169.616 126.749 170H125.037V161.632H126.941C126.941 162.251 126.935 162.843 126.925 163.408C126.925 163.963 126.925 164.469 126.925 164.928C126.925 165.387 126.919 165.787 126.909 166.128C126.909 166.469 126.909 166.731 126.909 166.912C127.207 166.453 127.517 165.984 127.837 165.504C128.157 165.013 128.477 164.539 128.797 164.08C129.127 163.611 129.453 163.168 129.773 162.752C130.093 162.336 130.402 161.963 130.701 161.632H132.365ZM134.834 161.632H136.77V168.416H139.394V161.632H141.33V168.416H143.954V161.632H145.89V170H134.834V161.632ZM150.285 164.992C150.531 164.747 150.797 164.475 151.085 164.176C151.373 163.867 151.656 163.557 151.933 163.248C152.221 162.939 152.493 162.645 152.749 162.368C153.005 162.08 153.219 161.835 153.389 161.632H155.661C155.427 161.909 155.155 162.213 154.845 162.544C154.547 162.875 154.232 163.216 153.901 163.568C153.581 163.909 153.261 164.245 152.941 164.576C152.632 164.896 152.349 165.184 152.093 165.44C152.424 165.717 152.765 166.043 153.117 166.416C153.48 166.779 153.832 167.168 154.173 167.584C154.525 167.989 154.851 168.405 155.149 168.832C155.448 169.248 155.699 169.637 155.901 170H153.661C153.459 169.68 153.219 169.344 152.941 168.992C152.675 168.64 152.392 168.299 152.093 167.968C151.795 167.627 151.491 167.307 151.181 167.008C150.872 166.709 150.573 166.453 150.285 166.24V170H148.349V161.632H150.285V164.992ZM164.63 161.632V170H162.71C162.71 169.392 162.71 168.789 162.71 168.192C162.721 167.595 162.726 167.04 162.726 166.528C162.737 166.016 162.742 165.573 162.742 165.2C162.753 164.816 162.758 164.533 162.758 164.352C162.438 164.768 162.108 165.227 161.766 165.728C161.425 166.229 161.084 166.731 160.742 167.232C160.412 167.733 160.097 168.224 159.798 168.704C159.5 169.184 159.238 169.616 159.014 170H157.302V161.632H159.206C159.206 162.251 159.201 162.843 159.19 163.408C159.19 163.963 159.19 164.469 159.19 164.928C159.19 165.387 159.185 165.787 159.174 166.128C159.174 166.469 159.174 166.731 159.174 166.912C159.473 166.453 159.782 165.984 160.102 165.504C160.422 165.013 160.742 164.539 161.062 164.08C161.393 163.611 161.718 163.168 162.038 162.752C162.358 162.336 162.668 161.963 162.966 161.632H164.63Z" fill="#90439C"/>
</g>
</g>
<path d="M126.459 52.486C126.459 52.486 137.052 46.5298 148.311 53.0532C151.64 66.8942 159.266 73.2474 153.94 89.3573C148.613 105.467 145.768 124.413 145.768 129.575C142.197 132.979 130.999 129.689 130.999 129.689C130.999 129.689 133.299 119.422 127.67 99.738C121.919 80.1111 118.409 68.1988 126.459 52.486Z" stroke="#90439C" stroke-width="2.26901" stroke-miterlimit="10" stroke-linecap="round" stroke-linejoin="round"/>
<path d="M82.8174 50.3304C82.8174 50.3304 90.8678 45.055 100.553 51.1245C102.671 66.5538 96.8603 85.5567 98.1314 97.8661C99.4026 110.175 100.553 129.689 100.553 129.689C100.553 129.689 89.4151 135.532 79.3066 129.689C86.6308 105.581 88.3256 100.589 84.0885 79.9977C79.9119 59.4064 82.8174 50.3304 82.8174 50.3304Z" stroke="#90439C" stroke-width="2.26901" stroke-miterlimit="10" stroke-linecap="round" stroke-linejoin="round"/>
<path d="M79.0038 129.859C74.7667 132.866 65.5056 129.859 65.5056 129.859C65.5056 129.859 66.232 116.982 61.2686 96.3912C56.3051 75.8 62.4186 62.4696 69.198 50.7275C69.198 50.7275 75.6747 47.0971 81.7277 50.614" stroke="#90439C" stroke-width="2.26901" stroke-miterlimit="10" stroke-linecap="round" stroke-linejoin="round"/>
<path d="M126.459 52.486C126.459 52.486 118.167 45.055 110.843 51.5217C111.872 65.476 116.714 79.1468 112.356 92.7041C106.545 110.799 109.693 130.88 109.693 130.88C109.693 130.88 121.799 135.872 130.939 129.689" stroke="#90439C" stroke-width="2.26901" stroke-miterlimit="10" stroke-linecap="round" stroke-linejoin="round"/>
<path d="M100.552 51.1246C100.552 51.1246 105.879 48.4018 110.782 51.5216" stroke="#90439C" stroke-width="2.26901" stroke-miterlimit="10" stroke-linecap="round" stroke-linejoin="round"/>
<path d="M100.552 129.689C100.552 129.689 103.337 132.525 109.753 130.88" stroke="#90439C" stroke-width="2.26901" stroke-miterlimit="10" stroke-linecap="round" stroke-linejoin="round"/>
<path d="M72.164 107.453C75.1905 106.488 77.6722 116.642 72.7087 117.55C67.8058 118.401 67.8058 108.814 72.164 107.453Z" fill="#90439C"/>
<path d="M91.9574 110.175C95.5287 109.949 96.0129 120.896 91.9574 121.407C87.9019 121.918 88.144 110.402 91.9574 110.175Z" fill="#90439C"/>
<path d="M104.669 108.984C107.15 108.587 107.635 118.968 104.79 118.798C102.005 118.684 101.461 109.495 104.669 108.984Z" fill="#90439C"/>
<path d="M119.801 104.049C123.554 102.461 127.973 114.146 122.888 115.905C117.804 117.663 115.443 105.921 119.801 104.049Z" fill="#90439C"/>
<path d="M138.505 110.062C141.895 109.892 142.863 121.18 138.263 121.01C133.602 120.896 133.784 110.289 138.505 110.062Z" fill="#90439C"/>
<path d="M71.4982 39.6661C68.7139 42.0485 72.8904 46.9836 70.9535 49.6497" stroke="#90439C" stroke-width="1.70175" stroke-miterlimit="10" stroke-linecap="round" stroke-linejoin="round"/>
<path d="M67.927 41.8784C68.835 43.9772 70.3482 47.8913 69.1981 50.5006" stroke="#90439C" stroke-width="1.70175" stroke-miterlimit="10" stroke-linecap="round" stroke-linejoin="round"/>
<path d="M74.1009 40.9708C74.9483 42.2754 73.3745 45.1684 74.1009 49.0257" stroke="#90439C" stroke-width="1.70175" stroke-miterlimit="10" stroke-linecap="round" stroke-linejoin="round"/>
<path d="M99.0997 41.8216C99.9471 43.1263 98.3733 46.0193 99.0997 49.8766" stroke="#90439C" stroke-width="1.70175" stroke-miterlimit="10" stroke-linecap="round" stroke-linejoin="round"/>
<path d="M76.9459 41.0842C75.6748 43.2398 75.6143 47.3807 75.8564 48.969" stroke="#90439C" stroke-width="1.70175" stroke-miterlimit="10" stroke-linecap="round" stroke-linejoin="round"/>
<path d="M78.1565 42.9561C79.0039 44.2608 77.0064 46.5866 77.9749 48.969" stroke="#90439C" stroke-width="1.70175" stroke-miterlimit="10" stroke-linecap="round" stroke-linejoin="round"/>
<path d="M108.058 43.7503C108.906 45.055 106.908 47.3807 107.877 49.7632" stroke="#90439C" stroke-width="1.70175" stroke-miterlimit="10" stroke-linecap="round" stroke-linejoin="round"/>
<path d="M84.3305 43.0696C85.178 44.3743 83.1805 46.7 84.1489 49.0825" stroke="#90439C" stroke-width="1.70175" stroke-miterlimit="10" stroke-linecap="round" stroke-linejoin="round"/>
<path d="M80.5777 40.0632C79.4881 41.6515 82.2725 43.6936 79.7908 49.4795" stroke="#90439C" stroke-width="1.70175" stroke-miterlimit="10" stroke-linecap="round" stroke-linejoin="round"/>
<path d="M101.884 40.2901C99.0999 42.6725 103.276 47.6076 101.339 50.2737" stroke="#90439C" stroke-width="1.70175" stroke-miterlimit="10" stroke-linecap="round" stroke-linejoin="round"/>
<path d="M103.761 41.3111C104.608 42.6158 103.034 45.5088 103.761 49.3661" stroke="#90439C" stroke-width="1.70175" stroke-miterlimit="10" stroke-linecap="round" stroke-linejoin="round"/>
<path d="M106.666 41.3678C105.395 43.5234 105.335 47.6643 105.577 49.2526" stroke="#90439C" stroke-width="1.70175" stroke-miterlimit="10" stroke-linecap="round" stroke-linejoin="round"/>
<path d="M113.385 39.8363C110.601 42.2187 114.777 47.1538 112.84 49.8199" stroke="#90439C" stroke-width="1.70175" stroke-miterlimit="10" stroke-linecap="round" stroke-linejoin="round"/>
<path d="M115.867 40.5737C116.714 41.8784 115.14 44.7714 115.867 48.6287" stroke="#90439C" stroke-width="1.70175" stroke-miterlimit="10" stroke-linecap="round" stroke-linejoin="round"/>
<path d="M147.645 44.0906C148.492 45.3953 146.918 48.2883 147.645 52.1456" stroke="#90439C" stroke-width="1.70175" stroke-miterlimit="10" stroke-linecap="round" stroke-linejoin="round"/>
<path d="M119.075 40.517C117.803 42.6725 117.743 46.8135 117.985 48.4018" stroke="#90439C" stroke-width="1.70175" stroke-miterlimit="10" stroke-linecap="round" stroke-linejoin="round"/>
<path d="M120.588 42.8994C121.436 44.2041 119.438 46.5298 120.407 48.9123" stroke="#90439C" stroke-width="1.70175" stroke-miterlimit="10" stroke-linecap="round" stroke-linejoin="round"/>
<path d="M128.396 44.9415C129.244 46.2462 127.246 48.5719 128.215 50.9544" stroke="#90439C" stroke-width="1.70175" stroke-miterlimit="10" stroke-linecap="round" stroke-linejoin="round"/>
<path d="M122.888 40.0632C121.799 41.6515 124.583 43.6936 122.101 49.4795" stroke="#90439C" stroke-width="1.70175" stroke-miterlimit="10" stroke-linecap="round" stroke-linejoin="round"/>
<path d="M110.54 40.9708C109.451 42.5591 112.235 44.6012 109.753 50.3871" stroke="#90439C" stroke-width="1.70175" stroke-miterlimit="10" stroke-linecap="round" stroke-linejoin="round"/>
<path d="M83.3621 44.1474C81.2436 45.5088 83.1806 47.3807 81.062 49.9333" stroke="#90439C" stroke-width="1.70175" stroke-miterlimit="10" stroke-linecap="round" stroke-linejoin="round"/>
<path d="M95.1653 38.248C92.2599 40.5737 96.3154 45.6222 94.2574 48.1749" stroke="#90439C" stroke-width="1.70175" stroke-miterlimit="10" stroke-linecap="round" stroke-linejoin="round"/>
<path d="M96.7391 40.6871C97.5866 42.0485 95.8917 44.8848 96.497 48.7421" stroke="#90439C" stroke-width="1.70175" stroke-miterlimit="10" stroke-linecap="round" stroke-linejoin="round"/>
<path d="M89.9598 42.0486C90.6862 43.41 88.5071 45.6222 89.1729 48.0047" stroke="#90439C" stroke-width="1.70175" stroke-miterlimit="10" stroke-linecap="round" stroke-linejoin="round"/>
<path d="M92.6232 40.3468C90.2625 42.786 93.7732 44.0339 92.0179 47.8345" stroke="#90439C" stroke-width="1.70175" stroke-miterlimit="10" stroke-linecap="round" stroke-linejoin="round"/>
<path d="M125.672 43.2398C123.312 45.6789 126.823 46.9269 125.067 50.7275" stroke="#90439C" stroke-width="1.70175" stroke-miterlimit="10" stroke-linecap="round" stroke-linejoin="round"/>
<path d="M131.241 40.517C128.457 42.8994 132.633 47.8345 130.696 50.5006" stroke="#90439C" stroke-width="1.70175" stroke-miterlimit="10" stroke-linecap="round" stroke-linejoin="round"/>
<path d="M133.662 41.6515C134.51 42.9562 132.936 45.8491 133.662 49.7064" stroke="#90439C" stroke-width="1.70175" stroke-miterlimit="10" stroke-linecap="round" stroke-linejoin="round"/>
<path d="M136.931 41.5948C135.66 43.7503 135.599 47.8912 135.842 49.4795" stroke="#90439C" stroke-width="1.70175" stroke-miterlimit="10" stroke-linecap="round" stroke-linejoin="round"/>
<path d="M139.231 43.807C140.079 45.1117 138.081 47.4374 139.05 49.8199" stroke="#90439C" stroke-width="1.70175" stroke-miterlimit="10" stroke-linecap="round" stroke-linejoin="round"/>
<path d="M141.773 40.4603C140.684 42.0486 143.468 44.0907 140.987 49.8766" stroke="#90439C" stroke-width="1.70175" stroke-miterlimit="10" stroke-linecap="round" stroke-linejoin="round"/>
<path d="M145.042 43.1831C142.681 45.6222 146.192 46.8702 144.437 50.6708" stroke="#90439C" stroke-width="1.70175" stroke-miterlimit="10" stroke-linecap="round" stroke-linejoin="round"/>
<path d="M87.7808 39.0421C89.3546 41.538 88.6282 42.6158 87.236 44.3176C85.9649 45.7924 86.3886 48.6287 86.3886 48.6287" stroke="#90439C" stroke-width="1.70175" stroke-miterlimit="10" stroke-linecap="round" stroke-linejoin="round"/>
<defs>
<filter id="filter0_d_4818_340928" x="12" y="24" width="192" height="192" filterUnits="userSpaceOnUse" color-interpolation-filters="sRGB">
<feFlood flood-opacity="0" result="BackgroundImageFix"/>
<feColorMatrix in="SourceAlpha" type="matrix" values="0 0 0 0 0 0 0 0 0 0 0 0 0 0 0 0 0 0 127 0" result="hardAlpha"/>
<feOffset dy="12"/>
<feGaussianBlur stdDeviation="8"/>
<feColorMatrix type="matrix" values="0 0 0 0 0 0 0 0 0 0 0 0 0 0 0 0 0 0 0.04 0"/>
<feBlend mode="normal" in2="BackgroundImageFix" result="effect1_dropShadow_4818_340928"/>
<feBlend mode="normal" in="SourceGraphic" in2="effect1_dropShadow_4818_340928" result="shape"/>
</filter>
<clipPath id="clip0_4818_340928">
<rect x="28" y="28" width="160" height="160" rx="16" fill="white"/>
</clipPath>
</defs>
</svg>
