<svg width="216" height="216" viewBox="0 0 216 216" fill="none" xmlns="http://www.w3.org/2000/svg">
<g filter="url(#filter0_d_4818_340927)">
<g clip-path="url(#clip0_4818_340927)">
<rect x="28" y="28" width="160" height="160" rx="16" fill="white"/>
<path d="M75.4454 152.128C74.8588 152.128 74.2668 152.107 73.6694 152.064C73.0721 152.032 72.5494 151.957 72.1014 151.84V141.072C72.3361 141.029 72.5868 140.992 72.8534 140.96C73.1201 140.917 73.3921 140.885 73.6694 140.864C73.9468 140.843 74.2188 140.827 74.4854 140.816C74.7628 140.805 75.0241 140.8 75.2694 140.8C75.9414 140.8 76.5654 140.853 77.1414 140.96C77.7174 141.056 78.2134 141.221 78.6294 141.456C79.0561 141.691 79.3868 142 79.6214 142.384C79.8561 142.768 79.9734 143.243 79.9734 143.808C79.9734 144.331 79.8454 144.779 79.5894 145.152C79.3441 145.525 78.9974 145.824 78.5494 146.048C79.2214 146.272 79.7174 146.603 80.0374 147.04C80.3574 147.477 80.5174 148.032 80.5174 148.704C80.5174 149.845 80.1014 150.704 79.2694 151.28C78.4374 151.845 77.1628 152.128 75.4454 152.128ZM74.0854 147.008V150.384C74.3094 150.405 74.5494 150.421 74.8054 150.432C75.0614 150.443 75.2961 150.448 75.5094 150.448C75.9254 150.448 76.3094 150.421 76.6614 150.368C77.0241 150.315 77.3334 150.224 77.5894 150.096C77.8561 149.957 78.0641 149.776 78.2134 149.552C78.3734 149.328 78.4534 149.04 78.4534 148.688C78.4534 148.059 78.2241 147.621 77.7654 147.376C77.3068 147.131 76.6721 147.008 75.8614 147.008H74.0854ZM74.0854 145.424H75.5094C76.2774 145.424 76.8801 145.317 77.3174 145.104C77.7548 144.88 77.9734 144.485 77.9734 143.92C77.9734 143.387 77.7441 143.008 77.2854 142.784C76.8374 142.56 76.2508 142.448 75.5254 142.448C75.2161 142.448 74.9388 142.453 74.6934 142.464C74.4588 142.475 74.2561 142.491 74.0854 142.512V145.424ZM92.7131 152H90.7771V143.632H92.7131V152ZM84.4571 146.72C84.6171 146.677 84.8464 146.64 85.1451 146.608C85.4544 146.576 85.7531 146.56 86.0411 146.56C86.4997 146.56 86.9317 146.613 87.3371 146.72C87.7531 146.827 88.1104 146.997 88.4091 147.232C88.7184 147.456 88.9584 147.749 89.1291 148.112C89.3104 148.464 89.4011 148.885 89.4011 149.376C89.4011 149.877 89.3157 150.304 89.1451 150.656C88.9744 151.008 88.7344 151.296 88.4251 151.52C88.1157 151.744 87.7424 151.909 87.3051 152.016C86.8784 152.123 86.4037 152.176 85.8811 152.176C85.2731 152.176 84.6971 152.144 84.1531 152.08C83.6197 152.016 83.0757 151.92 82.5211 151.792V143.632H84.4571V146.72ZM85.8331 150.656C86.3344 150.656 86.7291 150.555 87.0171 150.352C87.3157 150.139 87.4651 149.803 87.4651 149.344C87.4651 149.109 87.4171 148.912 87.3211 148.752C87.2251 148.592 87.0917 148.464 86.9211 148.368C86.7611 148.261 86.5744 148.187 86.3611 148.144C86.1584 148.101 85.9451 148.08 85.7211 148.08C85.5184 148.08 85.2944 148.091 85.0491 148.112C84.8144 148.123 84.6171 148.149 84.4571 148.192V150.576C84.5957 150.597 84.7984 150.619 85.0651 150.64C85.3317 150.651 85.5877 150.656 85.8331 150.656ZM98.1853 146.368L99.9613 143.632H101.993L99.2413 147.584C99.8173 148.331 100.367 149.088 100.889 149.856C101.423 150.613 101.86 151.328 102.201 152H100.105C100.009 151.797 99.8813 151.568 99.7213 151.312C99.572 151.045 99.4066 150.773 99.2253 150.496C99.0546 150.208 98.8733 149.925 98.6813 149.648C98.4893 149.371 98.3026 149.109 98.1213 148.864C97.748 149.344 97.38 149.877 97.0173 150.464C96.6653 151.04 96.372 151.552 96.1373 152H94.1533C94.3133 151.68 94.5053 151.339 94.7293 150.976C94.9533 150.613 95.1933 150.245 95.4493 149.872C95.7053 149.488 95.9666 149.109 96.2333 148.736C96.5106 148.352 96.7826 147.989 97.0493 147.648L94.2813 143.632H96.4093L98.1853 146.368ZM110.933 147.808C110.933 148.469 110.837 149.072 110.645 149.616C110.453 150.16 110.181 150.624 109.829 151.008C109.477 151.392 109.05 151.691 108.549 151.904C108.058 152.117 107.514 152.224 106.917 152.224C106.319 152.224 105.775 152.117 105.285 151.904C104.794 151.691 104.373 151.392 104.021 151.008C103.669 150.624 103.391 150.16 103.189 149.616C102.997 149.072 102.901 148.469 102.901 147.808C102.901 147.147 102.997 146.549 103.189 146.016C103.391 145.472 103.669 145.008 104.021 144.624C104.383 144.24 104.81 143.947 105.301 143.744C105.791 143.531 106.33 143.424 106.917 143.424C107.503 143.424 108.042 143.531 108.533 143.744C109.034 143.947 109.461 144.24 109.813 144.624C110.165 145.008 110.437 145.472 110.629 146.016C110.831 146.549 110.933 147.147 110.933 147.808ZM108.949 147.808C108.949 146.976 108.767 146.32 108.405 145.84C108.053 145.349 107.557 145.104 106.917 145.104C106.277 145.104 105.775 145.349 105.413 145.84C105.061 146.32 104.885 146.976 104.885 147.808C104.885 148.651 105.061 149.317 105.413 149.808C105.775 150.299 106.277 150.544 106.917 150.544C107.557 150.544 108.053 150.299 108.405 149.808C108.767 149.317 108.949 148.651 108.949 147.808ZM111.903 150.416H112.863C113.194 149.979 113.45 149.493 113.631 148.96C113.823 148.416 113.962 147.851 114.047 147.264C114.133 146.667 114.186 146.059 114.207 145.44C114.229 144.821 114.245 144.219 114.255 143.632H120.255V150.416H121.535V154.368H119.807V152H113.615V154.368H111.903V150.416ZM118.319 150.416V145.232H116.047C116.026 145.669 115.999 146.117 115.967 146.576C115.935 147.024 115.877 147.472 115.791 147.92C115.706 148.357 115.589 148.789 115.439 149.216C115.301 149.632 115.114 150.032 114.879 150.416H118.319ZM130.115 152.16C129.805 152.16 129.491 152.149 129.171 152.128C128.851 152.107 128.541 152.08 128.243 152.048C127.955 152.016 127.683 151.984 127.427 151.952C127.171 151.909 126.957 151.867 126.787 151.824V143.744C126.957 143.701 127.171 143.664 127.427 143.632C127.683 143.589 127.955 143.557 128.243 143.536C128.541 143.504 128.851 143.483 129.171 143.472C129.491 143.451 129.805 143.44 130.115 143.44C131.245 143.44 132.125 143.648 132.755 144.064C133.384 144.469 133.699 145.04 133.699 145.776C133.699 146.16 133.603 146.501 133.411 146.8C133.219 147.099 132.968 147.323 132.659 147.472C133.043 147.621 133.373 147.856 133.651 148.176C133.928 148.496 134.067 148.949 134.067 149.536C134.067 150.379 133.736 151.029 133.075 151.488C132.413 151.936 131.427 152.16 130.115 152.16ZM130.163 146.992C130.643 146.992 131.037 146.923 131.347 146.784C131.667 146.645 131.827 146.368 131.827 145.952C131.827 145.749 131.773 145.584 131.667 145.456C131.571 145.328 131.437 145.227 131.267 145.152C131.096 145.077 130.899 145.029 130.675 145.008C130.451 144.976 130.216 144.96 129.971 144.96C129.779 144.96 129.555 144.965 129.299 144.976C129.053 144.987 128.856 145.003 128.707 145.024V146.992H130.163ZM128.707 150.56C128.835 150.581 129.043 150.603 129.331 150.624C129.629 150.635 129.907 150.64 130.163 150.64C130.739 150.64 131.213 150.56 131.587 150.4C131.971 150.24 132.163 149.936 132.163 149.488C132.163 149.051 131.987 148.752 131.635 148.592C131.293 148.421 130.845 148.336 130.291 148.336H128.707V150.56ZM143.464 147.808C143.464 148.469 143.368 149.072 143.176 149.616C142.984 150.16 142.712 150.624 142.36 151.008C142.008 151.392 141.581 151.691 141.08 151.904C140.589 152.117 140.045 152.224 139.448 152.224C138.851 152.224 138.307 152.117 137.816 151.904C137.325 151.691 136.904 151.392 136.552 151.008C136.2 150.624 135.923 150.16 135.72 149.616C135.528 149.072 135.432 148.469 135.432 147.808C135.432 147.147 135.528 146.549 135.72 146.016C135.923 145.472 136.2 145.008 136.552 144.624C136.915 144.24 137.341 143.947 137.832 143.744C138.323 143.531 138.861 143.424 139.448 143.424C140.035 143.424 140.573 143.531 141.064 143.744C141.565 143.947 141.992 144.24 142.344 144.624C142.696 145.008 142.968 145.472 143.16 146.016C143.363 146.549 143.464 147.147 143.464 147.808ZM141.48 147.808C141.48 146.976 141.299 146.32 140.936 145.84C140.584 145.349 140.088 145.104 139.448 145.104C138.808 145.104 138.307 145.349 137.944 145.84C137.592 146.32 137.416 146.976 137.416 147.808C137.416 148.651 137.592 149.317 137.944 149.808C138.307 150.299 138.808 150.544 139.448 150.544C140.088 150.544 140.584 150.299 140.936 149.808C141.299 149.317 141.48 148.651 141.48 147.808ZM53.5913 170.16C53.2819 170.16 52.9673 170.149 52.6473 170.128C52.3273 170.107 52.0179 170.08 51.7193 170.048C51.4313 170.016 51.1593 169.984 50.9033 169.952C50.6473 169.909 50.4339 169.867 50.2633 169.824V161.744C50.4339 161.701 50.6473 161.664 50.9033 161.632C51.1593 161.589 51.4313 161.557 51.7193 161.536C52.0179 161.504 52.3273 161.483 52.6473 161.472C52.9673 161.451 53.2819 161.44 53.5913 161.44C54.7219 161.44 55.6019 161.648 56.2313 162.064C56.8606 162.469 57.1753 163.04 57.1753 163.776C57.1753 164.16 57.0793 164.501 56.8873 164.8C56.6953 165.099 56.4446 165.323 56.1353 165.472C56.5193 165.621 56.8499 165.856 57.1273 166.176C57.4046 166.496 57.5433 166.949 57.5433 167.536C57.5433 168.379 57.2126 169.029 56.5513 169.488C55.8899 169.936 54.9033 170.16 53.5913 170.16ZM53.6393 164.992C54.1193 164.992 54.5139 164.923 54.8233 164.784C55.1433 164.645 55.3033 164.368 55.3033 163.952C55.3033 163.749 55.2499 163.584 55.1433 163.456C55.0473 163.328 54.9139 163.227 54.7433 163.152C54.5726 163.077 54.3753 163.029 54.1513 163.008C53.9273 162.976 53.6926 162.96 53.4473 162.96C53.2553 162.96 53.0313 162.965 52.7753 162.976C52.5299 162.987 52.3326 163.003 52.1833 163.024V164.992H53.6393ZM52.1833 168.56C52.3113 168.581 52.5193 168.603 52.8073 168.624C53.1059 168.635 53.3833 168.64 53.6393 168.64C54.2153 168.64 54.6899 168.56 55.0633 168.4C55.4473 168.24 55.6393 167.936 55.6393 167.488C55.6393 167.051 55.4633 166.752 55.1113 166.592C54.7699 166.421 54.3219 166.336 53.7673 166.336H52.1833V168.56ZM66.3966 170H64.4606V166.496H61.3086V170H59.3726V161.632H61.3086V164.896H64.4606V161.632H66.3966V170ZM68.393 165.856C68.393 165.12 68.4997 164.475 68.713 163.92C68.937 163.365 69.2303 162.907 69.593 162.544C69.9557 162.171 70.3717 161.893 70.841 161.712C71.3103 161.52 71.7903 161.424 72.281 161.424C73.433 161.424 74.329 161.781 74.969 162.496C75.6197 163.211 75.945 164.277 75.945 165.696C75.945 165.803 75.9397 165.925 75.929 166.064C75.929 166.192 75.9237 166.309 75.913 166.416H70.393C70.4463 167.088 70.681 167.611 71.097 167.984C71.5237 168.347 72.137 168.528 72.937 168.528C73.4063 168.528 73.833 168.485 74.217 168.4C74.6117 168.315 74.921 168.224 75.145 168.128L75.401 169.712C75.2943 169.765 75.145 169.824 74.953 169.888C74.7717 169.941 74.5583 169.989 74.313 170.032C74.0783 170.085 73.8223 170.128 73.545 170.16C73.2677 170.192 72.985 170.208 72.697 170.208C71.961 170.208 71.321 170.101 70.777 169.888C70.233 169.664 69.785 169.36 69.433 168.976C69.081 168.581 68.8197 168.123 68.649 167.6C68.4783 167.067 68.393 166.485 68.393 165.856ZM74.009 164.992C74.009 164.725 73.9717 164.475 73.897 164.24C73.8223 163.995 73.7103 163.787 73.561 163.616C73.4223 163.435 73.2463 163.296 73.033 163.2C72.8303 163.093 72.585 163.04 72.297 163.04C71.9983 163.04 71.737 163.099 71.513 163.216C71.289 163.323 71.097 163.467 70.937 163.648C70.7877 163.829 70.6703 164.037 70.585 164.272C70.4997 164.507 70.441 164.747 70.409 164.992H74.009ZM77.9976 161.632H79.9336V168.416H82.5576V161.632H84.4936V168.416H87.1176V161.632H89.0536V170H77.9976V161.632ZM99.0813 170.224C98.5693 170.224 98.0893 170.139 97.6413 169.968C97.2039 169.787 96.8146 169.536 96.4733 169.216C96.1319 168.885 95.8493 168.491 95.6253 168.032C95.4119 167.573 95.2733 167.061 95.2093 166.496H93.4493V170H91.5133V161.632H93.4493V164.928H95.2413C95.3159 164.395 95.4653 163.915 95.6893 163.488C95.9239 163.051 96.2066 162.683 96.5373 162.384C96.8786 162.075 97.2626 161.84 97.6893 161.68C98.1266 161.509 98.5906 161.424 99.0813 161.424C99.6359 161.424 100.153 161.531 100.633 161.744C101.113 161.947 101.529 162.24 101.881 162.624C102.233 163.008 102.505 163.472 102.697 164.016C102.9 164.549 103.001 165.147 103.001 165.808C103.001 166.48 102.9 167.088 102.697 167.632C102.505 168.176 102.233 168.64 101.881 169.024C101.529 169.408 101.113 169.707 100.633 169.92C100.153 170.123 99.6359 170.224 99.0813 170.224ZM99.0813 163.104C98.4839 163.104 98.0093 163.349 97.6573 163.84C97.3159 164.32 97.1453 164.976 97.1453 165.808C97.1453 166.64 97.3159 167.307 97.6573 167.808C98.0093 168.299 98.4839 168.544 99.0813 168.544C99.6786 168.544 100.148 168.299 100.489 167.808C100.841 167.307 101.017 166.64 101.017 165.808C101.017 164.976 100.841 164.32 100.489 163.84C100.148 163.349 99.6786 163.104 99.0813 163.104ZM112.566 170.224C112.054 170.224 111.574 170.139 111.126 169.968C110.688 169.787 110.299 169.536 109.958 169.216C109.616 168.885 109.334 168.491 109.11 168.032C108.896 167.573 108.758 167.061 108.694 166.496H106.934V170H104.998V161.632H106.934V164.928H108.726C108.8 164.395 108.95 163.915 109.174 163.488C109.408 163.051 109.691 162.683 110.022 162.384C110.363 162.075 110.747 161.84 111.174 161.68C111.611 161.509 112.075 161.424 112.566 161.424C113.12 161.424 113.638 161.531 114.118 161.744C114.598 161.947 115.014 162.24 115.366 162.624C115.718 163.008 115.99 163.472 116.182 164.016C116.384 164.549 116.486 165.147 116.486 165.808C116.486 166.48 116.384 167.088 116.182 167.632C115.99 168.176 115.718 168.64 115.366 169.024C115.014 169.408 114.598 169.707 114.118 169.92C113.638 170.123 113.12 170.224 112.566 170.224ZM112.566 163.104C111.968 163.104 111.494 163.349 111.142 163.84C110.8 164.32 110.63 164.976 110.63 165.808C110.63 166.64 110.8 167.307 111.142 167.808C111.494 168.299 111.968 168.544 112.566 168.544C113.163 168.544 113.632 168.299 113.974 167.808C114.326 167.307 114.502 166.64 114.502 165.808C114.502 164.976 114.326 164.32 113.974 163.84C113.632 163.349 113.163 163.104 112.566 163.104ZM121.752 165.824C121.752 165.205 121.848 164.629 122.04 164.096C122.232 163.552 122.504 163.083 122.856 162.688C123.219 162.293 123.656 161.984 124.168 161.76C124.68 161.536 125.256 161.424 125.896 161.424C126.686 161.424 127.432 161.568 128.136 161.856L127.72 163.44C127.496 163.344 127.24 163.264 126.952 163.2C126.675 163.136 126.376 163.104 126.056 163.104C125.299 163.104 124.723 163.344 124.328 163.824C123.934 164.293 123.736 164.96 123.736 165.824C123.736 166.656 123.923 167.317 124.296 167.808C124.67 168.288 125.299 168.528 126.184 168.528C126.515 168.528 126.84 168.496 127.16 168.432C127.48 168.368 127.758 168.288 127.992 168.192L128.264 169.792C128.051 169.899 127.726 169.995 127.288 170.08C126.862 170.165 126.419 170.208 125.96 170.208C125.246 170.208 124.622 170.101 124.088 169.888C123.566 169.664 123.128 169.36 122.776 168.976C122.435 168.581 122.179 168.117 122.008 167.584C121.838 167.04 121.752 166.453 121.752 165.824ZM135.315 165.856C135.315 164.992 135.118 164.32 134.723 163.84C134.339 163.36 133.715 163.12 132.851 163.12C132.67 163.12 132.478 163.131 132.275 163.152C132.083 163.163 131.891 163.195 131.699 163.248V168.032C131.87 168.149 132.094 168.261 132.371 168.368C132.659 168.464 132.963 168.512 133.283 168.512C133.987 168.512 134.499 168.272 134.819 167.792C135.15 167.312 135.315 166.667 135.315 165.856ZM137.299 165.824C137.299 166.464 137.214 167.051 137.043 167.584C136.883 168.117 136.649 168.576 136.339 168.96C136.03 169.344 135.641 169.643 135.171 169.856C134.713 170.069 134.19 170.176 133.603 170.176C133.209 170.176 132.846 170.128 132.515 170.032C132.185 169.936 131.913 169.829 131.699 169.712V172.96H129.763V161.904C130.158 161.797 130.643 161.696 131.219 161.6C131.795 161.504 132.403 161.456 133.043 161.456C133.705 161.456 134.297 161.557 134.819 161.76C135.342 161.963 135.785 162.256 136.147 162.64C136.521 163.013 136.803 163.472 136.995 164.016C137.198 164.549 137.299 165.152 137.299 165.824ZM138.831 165.856C138.831 165.12 138.937 164.475 139.151 163.92C139.375 163.365 139.668 162.907 140.031 162.544C140.393 162.171 140.809 161.893 141.279 161.712C141.748 161.52 142.228 161.424 142.719 161.424C143.871 161.424 144.767 161.781 145.407 162.496C146.057 163.211 146.383 164.277 146.383 165.696C146.383 165.803 146.377 165.925 146.367 166.064C146.367 166.192 146.361 166.309 146.351 166.416H140.831C140.884 167.088 141.119 167.611 141.535 167.984C141.961 168.347 142.575 168.528 143.375 168.528C143.844 168.528 144.271 168.485 144.655 168.4C145.049 168.315 145.359 168.224 145.583 168.128L145.839 169.712C145.732 169.765 145.583 169.824 145.391 169.888C145.209 169.941 144.996 169.989 144.751 170.032C144.516 170.085 144.26 170.128 143.983 170.16C143.705 170.192 143.423 170.208 143.135 170.208C142.399 170.208 141.759 170.101 141.215 169.888C140.671 169.664 140.223 169.36 139.871 168.976C139.519 168.581 139.257 168.123 139.087 167.6C138.916 167.067 138.831 166.485 138.831 165.856ZM144.447 164.992C144.447 164.725 144.409 164.475 144.335 164.24C144.26 163.995 144.148 163.787 143.999 163.616C143.86 163.435 143.684 163.296 143.471 163.2C143.268 163.093 143.023 163.04 142.735 163.04C142.436 163.04 142.175 163.099 141.951 163.216C141.727 163.323 141.535 163.467 141.375 163.648C141.225 163.829 141.108 164.037 141.023 164.272C140.937 164.507 140.879 164.747 140.847 164.992H144.447ZM147.411 168.416H148.371C148.702 167.979 148.958 167.493 149.139 166.96C149.331 166.416 149.47 165.851 149.555 165.264C149.64 164.667 149.694 164.059 149.715 163.44C149.736 162.821 149.752 162.219 149.763 161.632H155.763V168.416H157.043V172.368H155.315V170H149.123V172.368H147.411V168.416ZM153.827 168.416V163.232H151.555C151.534 163.669 151.507 164.117 151.475 164.576C151.443 165.024 151.384 165.472 151.299 165.92C151.214 166.357 151.096 166.789 150.947 167.216C150.808 167.632 150.622 168.032 150.387 168.416H153.827ZM165.736 161.632C164.872 164.811 163.869 167.691 162.728 170.272C162.515 170.752 162.296 171.163 162.072 171.504C161.848 171.845 161.597 172.128 161.32 172.352C161.043 172.576 160.733 172.736 160.392 172.832C160.051 172.939 159.656 172.992 159.208 172.992C158.909 172.992 158.611 172.96 158.312 172.896C158.024 172.832 157.805 172.763 157.656 172.688L158.008 171.136C158.392 171.285 158.771 171.36 159.144 171.36C159.645 171.36 160.035 171.237 160.312 170.992C160.6 170.757 160.851 170.389 161.064 169.888C160.456 168.715 159.869 167.435 159.304 166.048C158.749 164.661 158.253 163.189 157.816 161.632H159.88C159.987 162.08 160.115 162.565 160.264 163.088C160.424 163.611 160.595 164.144 160.776 164.688C160.957 165.221 161.149 165.755 161.352 166.288C161.555 166.821 161.757 167.317 161.96 167.776C162.301 166.827 162.621 165.819 162.92 164.752C163.219 163.675 163.491 162.635 163.736 161.632H165.736Z" fill="#4F6690"/>
</g>
</g>
<g clip-path="url(#clip1_4818_340927)">
<path d="M102.363 61.0989C104.121 60.8791 105.879 60.7912 107.681 60.7912C109.879 60.7912 112.033 60.967 114.143 61.2747" stroke="#4F6690" stroke-width="2.1978" stroke-miterlimit="10" stroke-linecap="round" stroke-linejoin="round"/>
<path d="M126.582 65.0549C137.615 70.4615 145 80.3956 145 91.7802C145 108.923 128.297 122.769 107.681 122.769C87.0658 122.769 70.3625 108.879 70.3625 91.7802C70.3625 80.6593 77.3955 70.945 87.945 65.4505" stroke="#4F6690" stroke-width="2.1978" stroke-miterlimit="10" stroke-linecap="round" stroke-linejoin="round"/>
<path d="M114.626 95.4286C114.626 95.4286 107.373 60.7033 138.582 47.1209" stroke="#4F6690" stroke-width="3.95604" stroke-miterlimit="10" stroke-linecap="round" stroke-linejoin="round"/>
<path d="M125 46.1099L139.11 47.077L135.989 60.5715" stroke="#4F6690" stroke-width="3.95604" stroke-miterlimit="10" stroke-linecap="round" stroke-linejoin="round"/>
<path d="M102.143 95.4286C102.143 95.4286 109.395 60.7033 78.1865 47.1209" stroke="#4F6690" stroke-width="3.95604" stroke-miterlimit="10" stroke-linecap="round" stroke-linejoin="round"/>
<path d="M91.813 46.1099L77.6592 47.0769L80.7801 60.5714" stroke="#4F6690" stroke-width="3.95604" stroke-miterlimit="10" stroke-linecap="round" stroke-linejoin="round"/>
</g>
<defs>
<filter id="filter0_d_4818_340927" x="12" y="24" width="192" height="192" filterUnits="userSpaceOnUse" color-interpolation-filters="sRGB">
<feFlood flood-opacity="0" result="BackgroundImageFix"/>
<feColorMatrix in="SourceAlpha" type="matrix" values="0 0 0 0 0 0 0 0 0 0 0 0 0 0 0 0 0 0 127 0" result="hardAlpha"/>
<feOffset dy="12"/>
<feGaussianBlur stdDeviation="8"/>
<feColorMatrix type="matrix" values="0 0 0 0 0 0 0 0 0 0 0 0 0 0 0 0 0 0 0.04 0"/>
<feBlend mode="normal" in2="BackgroundImageFix" result="effect1_dropShadow_4818_340927"/>
<feBlend mode="normal" in="SourceGraphic" in2="effect1_dropShadow_4818_340927" result="shape"/>
</filter>
<clipPath id="clip0_4818_340927">
<rect x="28" y="28" width="160" height="160" rx="16" fill="white"/>
</clipPath>
<clipPath id="clip1_4818_340927">
<rect width="77.3626" height="80" fill="white" transform="translate(69 44)"/>
</clipPath>
</defs>
</svg>
