<svg width="973" height="508" viewBox="0 0 973 508" fill="none" xmlns="http://www.w3.org/2000/svg">
<path fill-rule="evenodd" clip-rule="evenodd" d="M754.521 265.425C630.601 228.125 624.221 200.995 565.111 158.105C473.331 91.4955 369.531 37.0355 254.931 25.7955C223.881 22.7455 191.191 23.2955 159.311 28.1255C121.361 33.8955 45.4707 41.8155 27.4307 94.8955C12.3307 139.335 48.8707 180.985 71.2607 206.185C99.6907 238.205 130.371 269.175 163.881 295.905C180.281 308.995 196.821 322.225 214.101 334.135C229.491 344.745 245.671 354.325 261.971 363.455C271.191 368.625 280.061 374.205 289.741 378.495C298.551 382.405 325.761 388.735 328.301 388.875C349.371 390.035 457.641 446.865 769.391 483.965C959.961 506.655 1061.51 357.845 754.521 265.425Z" fill="#B7D9D1"/>
<g style="mix-blend-mode:multiply" opacity="0.2">
<path fill-rule="evenodd" clip-rule="evenodd" d="M754.521 265.425C630.601 228.125 624.221 200.995 565.111 158.105C473.331 91.4955 369.531 37.0355 254.931 25.7955C223.881 22.7455 191.191 23.2955 159.311 28.1255C121.361 33.8955 45.4707 41.8155 27.4307 94.8955C12.3307 139.335 48.8707 180.985 71.2607 206.185C99.6907 238.205 130.371 269.175 163.881 295.905C180.281 308.995 196.821 322.225 214.101 334.135C229.491 344.745 245.671 354.325 261.971 363.455C271.191 368.625 279.831 374.765 289.741 378.495C396.991 418.935 356.241 398.195 495.361 443.385C562.281 465.125 593.201 467.075 769.391 483.965C960.431 502.305 1061.51 357.845 754.521 265.425ZM783.011 426.245C767.421 442.025 743.571 442.405 722.891 440.575C681.671 436.915 640.941 429.075 600.791 419.125C561.441 409.375 514.051 404.435 473.301 399.035C435.361 394.005 379.851 380.975 356.011 374.225C329.431 366.695 235.101 333.865 208.921 306.615C201.941 299.345 180.801 283.555 169.531 272.285C142.991 245.745 170.381 280.715 64.3707 165.105C51.4207 150.975 41.0007 128.515 44.3007 108.825C46.7407 94.2954 56.4507 82.9855 68.7107 75.3655C83.8207 65.9955 101.301 60.8655 118.621 57.4355C138.361 53.5055 158.491 51.5955 178.591 50.8355C225.701 49.0455 273.351 52.9955 319.391 63.1655C353.141 70.6255 386.281 81.5155 417.021 97.4555C447.671 113.345 475.431 133.705 500.321 157.605C524.611 180.925 545.901 206.945 569.061 231.325C591.281 254.715 615.421 276.425 642.851 293.555C668.721 309.705 696.911 321.755 723.041 337.525C737.531 346.275 751.851 355.645 764.681 366.745C774.421 375.175 784.941 385.215 789.421 397.645C793.221 408.155 790.871 418.285 783.011 426.245Z" fill="#B7D9D1" fill-opacity="0.3"/>
</g>
<g style="mix-blend-mode:multiply" opacity="0.2">
<path fill-rule="evenodd" clip-rule="evenodd" d="M754.521 265.425C630.601 228.125 624.221 200.995 565.111 158.105C542.581 141.755 519.331 126.145 495.361 111.715C506.121 123.045 516.581 134.695 527.141 146.185C542.461 162.845 558.151 179.305 575.641 193.705C593.981 208.805 613.841 222.115 634.291 234.165C665.501 252.565 698.131 269.155 731.851 282.435C765.411 295.645 799.891 306.555 832.951 321.015C859.331 332.555 886.361 345.815 906.941 366.425C921.321 380.835 931.991 400.835 926.281 421.595C919.351 446.775 897.601 459.875 873.951 467.025C845.741 475.555 816.821 481.725 787.361 483.405C782.021 483.715 776.691 483.915 771.341 484.075C961.701 493.575 1060.46 357.525 754.521 265.425Z" fill="#B7D9D1" fill-opacity="0.5"/>
</g>
<path d="M298.371 388.575C295.651 387.445 293.111 386.245 290.861 385.195C289.631 384.615 288.491 384.075 287.471 383.625C280.041 380.325 273.071 376.305 266.331 372.405C263.971 371.045 261.611 369.685 259.231 368.345C239.401 357.235 224.501 348.105 210.921 338.745C193.821 326.965 177.321 313.795 161.361 301.055L160.391 300.285C130.271 276.255 99.7406 246.685 67.0707 209.905C45.6807 185.825 5.85065 140.985 22.1306 93.0854C40.1906 39.9155 109.761 29.7254 151.331 23.6354C153.831 23.2654 156.221 22.9154 158.461 22.5754C189.591 17.8454 223.141 17.0255 255.471 20.1955C303.931 24.9555 353.711 37.8354 403.431 58.4954C456.951 80.7354 510.911 111.825 568.391 153.545C582.981 164.135 594.191 173.605 605.041 182.765C628.441 202.525 648.651 219.595 692.871 237.965C710.701 245.375 731.391 252.595 756.121 260.035C782.601 268.015 806.981 276.605 828.571 285.575C951.961 336.865 960.451 388.035 954.531 413.975C943.331 463.075 865.341 494.865 769.091 489.575C687.091 485.065 619.691 473.905 538.321 455.735C538.281 455.725 453.371 435.055 424.311 427.355C407.091 422.785 362.701 408.845 342.731 402.885C330.051 399.105 307.311 392.295 298.371 388.575ZM399.131 68.8654C350.441 48.6354 301.741 36.0155 254.391 31.3755C222.961 28.2855 190.371 29.0854 160.161 33.6754C157.891 34.0154 155.491 34.3654 152.971 34.7354C113.941 40.4554 48.6106 50.0254 32.7507 96.7054C18.5707 138.435 54.1706 178.515 75.4506 202.475C107.691 238.775 137.771 267.905 167.381 291.535L168.361 292.315C184.171 304.925 200.511 317.965 217.281 329.525C230.571 338.675 245.191 347.635 264.711 358.575C267.141 359.935 269.541 361.325 271.931 362.705C278.721 366.625 285.131 370.325 292.011 373.385C293.091 373.865 294.311 374.435 295.621 375.055C297.761 376.065 300.181 377.195 302.671 378.235C320.581 385.675 327.411 387.515 327.841 387.635C386.131 404.505 422.401 418.825 545.601 446.375C545.601 446.375 688.971 473.945 769.711 478.385C859.021 483.295 933.791 454.535 943.611 411.485C947.741 393.375 944.401 345.865 824.291 295.955C803.041 287.125 779.021 278.655 752.901 270.805C727.811 263.245 706.771 255.905 688.581 248.345C642.761 229.305 621.931 211.715 597.821 191.355C587.131 182.335 576.081 172.995 561.821 162.655C505.051 121.435 451.841 90.7654 399.131 68.8654Z" fill="#2B895F"/>
</svg>
