<svg width="120" height="324" viewBox="0 0 120 324" fill="none" xmlns="http://www.w3.org/2000/svg">
<path d="M45.0905 76.26C45.1805 76.3 45.2705 76.32 45.3705 76.34C45.5905 76.37 45.7805 76.38 45.9805 76.36C46.2405 76.37 46.5705 76.37 46.8005 76.25C46.9805 76.25 47.1705 76.28 47.3505 76.3C47.9105 76.51 48.5705 76.51 49.1505 76.25C49.1905 76.34 49.2305 76.42 49.2905 76.51C49.4205 76.71 49.6805 76.92 49.9405 76.97C50.2505 77.1 50.6405 77.11 51.0605 77.11C51.1505 77.03 51.2405 76.94 51.3405 76.86C51.4005 76.81 51.4605 76.76 51.5205 76.71C51.2805 76.71 51.0305 76.72 50.7805 76.71C50.3905 76.62 50.0605 76.52 49.8205 76.22C49.2305 74.87 50.3705 74.16 51.3205 73.39C51.5405 73.23 51.7105 73.1 51.7805 73.03C52.0505 72.76 52.2805 72.44 52.3705 72.09C52.5605 72.08 52.9105 71.88 52.9605 71.84C52.9705 71.83 52.9905 71.82 53.0005 71.81C53.1205 71.67 53.2305 71.53 53.3005 71.37C53.1805 71.48 53.0305 71.58 52.9405 71.65C52.8205 71.73 52.7105 71.8 52.5805 71.86C52.5205 71.88 52.4705 71.87 52.4105 71.87C52.4305 71.7 52.4105 71.53 52.3505 71.36C52.3405 71.25 52.3105 71.13 52.2905 71.02C52.2905 71.41 52.2005 71.8 52.0105 72.14C51.9105 72.43 51.7405 72.7 51.5105 72.95C50.7705 72.09 50.9705 70.68 51.6605 69.85C51.5805 69.9 51.5005 69.96 51.4205 70.02C50.7505 70.89 50.5205 72.3 51.3405 73.12C51.2405 73.21 51.1305 73.31 51.0105 73.4C50.8805 73.5 50.7505 73.6 50.6305 73.7C50.4105 73.84 50.1905 73.97 50.0005 74.09C49.9205 74.14 49.6905 74.31 49.4905 74.5C49.5805 73.94 49.5305 73.39 49.4105 72.84C49.3305 72.46 49.1905 72.11 49.0005 71.8C49.0205 71.79 49.0405 71.77 49.0405 71.75C49.0705 71.69 49.0905 71.63 49.1105 71.56C49.1105 71.55 49.1105 71.55 49.1105 71.55C49.1605 71.19 49.1605 70.77 48.9905 70.44C49.0805 70.84 48.9905 71.25 48.9105 71.66C48.6305 71.26 48.2505 70.95 47.7705 70.78C47.6805 70.78 47.5805 70.78 47.5105 70.79C47.5405 70.81 47.5605 70.83 47.5805 70.85C48.6605 71.23 49.1405 72.34 49.2205 73.46C48.8405 73.42 48.4205 73.55 48.0205 73.43C47.8805 73.39 47.7605 73.32 47.6405 73.24C47.3605 73.14 47.1205 72.97 46.9905 72.74C47.0005 72.79 47.0005 72.85 47.0205 72.9C47.2205 73.17 47.4505 73.4 47.7505 73.57C48.2205 73.84 48.7305 73.68 49.2305 73.66C49.2405 74 49.2105 74.34 49.1505 74.65C49.0705 75.07 48.9905 75.48 49.0405 75.88C48.6405 76.02 48.2205 76.09 47.8105 76.05C47.4705 76.08 47.1205 76.06 46.8505 75.84C46.4805 75.55 46.2305 75.16 46.0105 74.76C46.0905 75.03 46.1505 75.31 46.3205 75.55C46.4505 75.74 46.5905 75.88 46.7505 75.99C46.7405 75.99 46.7305 75.99 46.7205 75.99C46.0605 76.05 45.1605 76.28 44.6405 75.72C44.7505 75.92 44.9105 76.11 45.0905 76.26Z" fill="#F29F93"/>
<path d="M54.3005 88.33C54.1705 88.14 54.0205 87.97 53.8605 87.8C54.1405 87.96 54.4405 88.1 54.7905 88.23C55.6405 88.55 56.4005 89.06 57.0405 89.69C57.0005 89.59 56.9705 89.5 56.9505 89.47C56.8505 89.29 56.7405 89.1201 56.6105 88.9501C56.2705 88.64 55.8905 88.39 55.4605 88.18C55.0705 87.99 54.6306 87.87 54.2206 87.73C52.7006 87.22 51.7605 85.68 51.2705 84.23C51.1305 83.8 51.0206 83.18 51.1306 82.73C51.2106 82.43 51.2305 82.16 50.9505 81.96C51.3505 81.28 51.9606 80.75 52.4706 80.15C52.8906 79.65 53.5106 78.99 53.4706 78.29C53.4406 77.69 53.0505 77.4401 52.5105 77.2701C52.3005 77.2101 52.0805 77.18 51.8605 77.17C51.7005 77.3 51.5405 77.43 51.3905 77.56C51.6205 77.56 51.8505 77.57 52.0905 77.61C53.8605 77.87 52.4405 79.71 51.8005 80.47C51.3705 80.98 50.9305 81.49 50.4805 81.99C50.3005 82.07 50.1805 82.22 50.1105 82.4C50.0905 82.42 50.0805 82.4301 50.0605 82.4501C49.4505 82.4401 48.8805 82.37 48.3705 81.89C47.8805 81.43 47.6105 80.81 47.2605 80.25C47.1805 80.09 47.0905 79.94 46.9905 79.79C46.7205 79.4 46.3706 79.1001 45.9706 78.8801C45.9706 78.6901 45.9406 78.51 45.8806 78.33C45.7406 78.21 45.6005 78.09 45.4605 77.96C45.5305 78.07 45.5905 78.18 45.6405 78.3C45.7005 78.44 45.7105 78.62 45.7605 78.78C45.3205 78.58 44.8505 78.49 44.3705 78.49C44.3105 78.5 44.2605 78.51 44.2005 78.54C44.1305 78.57 44.0605 78.61 44.0005 78.64C45.3805 78.64 46.4105 79.3 47.0605 80.5C46.5505 80.55 46.0505 80.5701 45.6005 80.3801C45.7005 80.5001 45.8105 80.6101 45.9305 80.7001C46.3405 80.8401 46.7906 80.8601 47.1606 80.7001C47.1706 80.7101 47.1705 80.73 47.1805 80.74C47.5705 81.56 47.7405 82.06 48.4205 82.57C47.8605 82.69 47.3405 82.8701 47.0905 82.9501C46.5205 83.1401 45.9905 83.25 45.3905 83.24C45.3705 83.24 45.3505 83.24 45.3405 83.24C45.2905 83.23 45.2505 83.23 45.2005 83.23C44.9005 83.18 44.6705 83.04 44.4805 82.85C44.4105 82.78 44.3405 82.71 44.2705 82.62C43.9605 82.22 43.6805 81.38 43.1705 81.24C43.1305 81.23 43.0905 81.22 43.0505 81.21C43.5605 81.6 43.7605 82.57 44.0505 83.01C44.1205 83.12 44.2105 83.21 44.3005 83.28C44.2605 83.3 44.2105 83.32 44.1705 83.34C44.0605 83.37 43.9505 83.4101 43.8405 83.4501C43.6505 83.5201 43.4105 83.67 43.1805 83.76C42.6105 83.89 41.9705 83.76 41.6105 83.32C41.6105 83.43 41.6205 83.5301 41.6405 83.6301C41.8505 83.8901 42.1605 84.04 42.5405 84.08C43.0805 84.14 43.4905 83.8701 43.9205 83.6301C44.1505 83.5601 44.3705 83.51 44.6105 83.47C44.6205 83.47 44.6305 83.47 44.6405 83.47C44.8305 83.55 45.0505 83.59 45.2605 83.61C46.8105 83.79 48.5205 82.24 50.0005 82.97C50.1705 84.1 48.6205 84.94 47.7705 85.25C46.6605 85.65 45.4305 85.71 44.2605 85.79C43.6305 85.83 42.9905 85.88 42.3605 85.99C41.5105 86.14 41.0305 86.63 40.5805 87.33C40.8705 87.1 41.1306 86.81 41.4706 86.65C41.4406 87.27 41.4005 87.8501 41.0505 88.3801C41.4105 88.0101 41.6405 87.69 41.7005 87.17C41.7705 86.58 41.9105 86.34 42.5405 86.2701C43.6805 86.1501 44.8006 86.21 45.9406 86C45.0106 86.42 44.0705 86.91 43.5905 87.86C43.3505 88.33 43.2005 88.8 42.8605 89.23C42.5405 89.64 41.9305 89.73 41.4605 89.9C40.8705 90.12 40.4705 90.37 40.1705 90.94C40.7605 90.31 41.5805 90.12 42.3705 89.85C41.6305 90.69 40.5805 92.02 41.5505 93.12C41.3705 92.37 41.3905 91.6101 41.8305 90.9501C42.2405 90.3301 42.8105 89.75 43.3005 89.18C43.3705 89.9 43.6205 90.69 44.2705 91.11C43.8605 90.34 43.4605 89.51 43.6805 88.62C43.8805 87.76 44.5605 87.1 45.3105 86.68C45.7305 86.44 46.1905 86.27 46.6505 86.11C46.6605 86.81 46.8805 87.48 46.8505 88.18C46.8305 88.74 46.7006 89.1 46.3806 89.54C47.0406 89.44 47.0806 88.05 47.1306 87.58C47.4406 87.88 47.7905 88.18 48.0605 88.5201C48.3805 88.92 48.3805 89.24 48.4205 89.73C49.0405 88.43 47.4905 87.98 47.1005 86.96C46.7605 86.08 47.3605 85.7801 48.0705 85.5201C48.8605 85.2301 49.5506 84.7 49.9706 83.97C50.1206 83.72 50.4305 83.17 50.7805 83.46C51.0105 83.65 51.0505 84.1201 51.1405 84.3801C51.3605 85.0701 51.6405 85.74 51.7605 86.46C52.0305 88.1 51.3005 89.7 50.4205 91.05C50.1905 91.24 49.9505 91.31 49.5905 91.31C49.5405 91.31 49.4906 91.32 49.4406 91.32C47.5806 91.06 45.6605 92.9601 44.4505 94.2001C44.4205 94.26 44.4006 94.33 44.3806 94.39C44.8206 93.99 45.2805 93.58 45.7705 93.2001C45.6605 93.51 45.7005 93.91 45.6505 94.24C45.7205 94.12 45.8006 94.0001 45.8806 93.8801C45.8906 93.8301 45.9005 93.79 45.9005 93.74C45.9305 93.59 45.9505 93.44 45.9805 93.29C46.0105 93.16 46.0805 93.05 46.1105 92.93C47.2605 92.08 48.5405 91.46 50.0205 91.64C49.5705 92.36 49.2605 93.14 49.1705 93.93C49.1705 93.93 49.1706 93.93 49.1606 93.94C48.5106 94.73 47.4905 95.09 46.8605 95.89C46.6205 96.19 46.4005 96.54 46.2405 96.91C46.2305 96.99 46.2206 97.07 46.2206 97.15C46.2206 97.18 46.2305 97.2701 46.2505 97.3801C46.6405 96.5501 47.1005 95.9 47.9005 95.32C48.3605 94.99 48.8205 94.7 49.1405 94.25C49.1105 95.17 49.3905 96.08 50.1405 96.86C50.0305 96.66 49.9305 96.46 49.8505 96.26C49.3305 95.38 49.2505 94.34 49.4805 93.31C49.7505 92.12 50.7405 91.11 51.3305 90.03C51.5805 90.61 52.1205 91.05 52.4605 91.58C52.9505 92.34 53.1706 93.23 53.1606 94.12C53.2306 93.89 53.2905 93.65 53.3305 93.42C53.3105 92.91 53.2105 92.42 53.0105 91.92C52.8005 91.38 52.4405 90.99 52.0905 90.59C51.9805 90.4001 51.8705 90.22 51.7905 90.01C51.6905 89.79 51.6906 89.55 51.6606 89.31C51.9606 88.53 52.1205 87.7 52.1005 86.86C52.1505 86.84 52.2105 86.85 52.3005 86.89C52.4505 86.97 52.6005 87.09 52.7405 87.19C53.0505 87.41 53.3105 87.7 53.6205 87.92C54.3205 88.7 54.8205 89.7401 54.9005 90.7701C55.0005 90.3 54.9005 89.79 54.7905 89.32C54.6805 88.95 54.5005 88.62 54.3005 88.33Z" fill="#F29F93"/>
<path d="M44.9205 76.13C45.0105 76.17 45.1105 76.19 45.2005 76.21C45.4105 76.25 45.6105 76.25 45.8105 76.24C46.0705 76.25 46.4005 76.25 46.6305 76.13C46.8105 76.13 47.0005 76.16 47.1805 76.18C47.7405 76.39 48.4105 76.39 48.9805 76.13C49.0205 76.22 49.0605 76.3 49.1105 76.39C49.2405 76.59 49.5105 76.8 49.7605 76.85C50.0805 76.98 50.4605 76.99 50.8805 76.99C50.9705 76.91 51.0605 76.82 51.1605 76.74C51.2205 76.69 51.2805 76.64 51.3405 76.59C51.1005 76.59 50.8505 76.6 50.6105 76.59C50.2205 76.5 49.8905 76.4 49.6505 76.1C49.0605 74.75 50.2005 74.04 51.1505 73.27C51.3705 73.11 51.5405 72.99 51.6105 72.92C51.8805 72.65 52.1005 72.33 52.2005 71.98C52.3905 71.97 52.7405 71.77 52.8005 71.73C52.8105 71.72 52.8205 71.71 52.8405 71.7C52.9605 71.56 53.0705 71.42 53.1405 71.26C53.0205 71.37 52.8705 71.48 52.7805 71.54C52.6605 71.62 52.5505 71.7 52.4205 71.75C52.3605 71.77 52.3105 71.76 52.2505 71.76C52.2705 71.59 52.2505 71.42 52.1905 71.25C52.1805 71.14 52.1505 71.02 52.1205 70.91C52.1205 71.3 52.0305 71.69 51.8405 72.03C51.7405 72.32 51.5705 72.59 51.3505 72.84C50.6105 71.98 50.8105 70.57 51.5005 69.74C51.4205 69.79 51.3305 69.85 51.2605 69.91C50.5905 70.79 50.3605 72.19 51.1805 73.01C51.0805 73.1 50.9705 73.2 50.8505 73.29C50.7205 73.39 50.5905 73.49 50.4705 73.59C50.2505 73.73 50.0305 73.86 49.8405 73.98C49.7605 74.03 49.5305 74.2 49.3305 74.39C49.4205 73.83 49.3705 73.28 49.2505 72.73C49.1705 72.35 49.0305 72 48.8405 71.69C48.8605 71.68 48.8805 71.66 48.8805 71.64C48.9105 71.58 48.9305 71.52 48.9505 71.45V71.44C49.0005 71.08 49.0005 70.66 48.8305 70.33C48.9205 70.73 48.8305 71.14 48.7505 71.55C48.4705 71.15 48.0805 70.84 47.6105 70.67C47.5205 70.67 47.4305 70.67 47.3405 70.68C47.3705 70.7 47.3905 70.72 47.4105 70.74C48.4905 71.12 48.9805 72.23 49.0505 73.35C48.6705 73.31 48.2505 73.44 47.8505 73.32C47.7205 73.28 47.5905 73.21 47.4705 73.13C47.1905 73.03 46.9505 72.86 46.8205 72.63C46.8305 72.69 46.8305 72.74 46.8505 72.8C47.0505 73.07 47.2805 73.3 47.5805 73.47C48.0505 73.74 48.5505 73.58 49.0605 73.57C49.0705 73.91 49.0405 74.25 48.9805 74.56C48.9005 74.98 48.8205 75.39 48.8705 75.79C48.4805 75.93 48.0505 76 47.6405 75.96C47.3005 75.99 46.9605 75.97 46.6805 75.75C46.3105 75.46 46.0705 75.07 45.8405 74.67C45.9205 74.94 45.9805 75.22 46.1505 75.46C46.2805 75.65 46.4205 75.79 46.5705 75.9C46.5605 75.9 46.5505 75.9 46.5505 75.9C45.8805 75.96 44.9905 76.19 44.4705 75.63C44.5905 75.79 44.7405 75.97 44.9205 76.13Z" fill="#8C1126"/>
<path d="M54.2105 88.23C54.0805 88.04 53.9305 87.87 53.7705 87.7C54.0505 87.86 54.3405 88 54.7005 88.13C55.5405 88.45 56.3105 88.96 56.9505 89.59C56.9105 89.49 56.8805 89.4 56.8605 89.37C56.7605 89.19 56.6505 89.01 56.5205 88.85C56.1905 88.54 55.8105 88.29 55.3705 88.08C54.9805 87.89 54.5405 87.77 54.1305 87.63C52.6105 87.12 51.6705 85.58 51.1805 84.14C51.0405 83.71 50.9305 83.08 51.0405 82.64C51.1205 82.34 51.1505 82.07 50.8605 81.87C51.2605 81.19 51.8705 80.66 52.3705 80.06C52.7905 79.56 53.4105 78.9 53.3805 78.2C53.3505 77.6 52.9605 77.35 52.4205 77.18C52.2105 77.12 51.9905 77.09 51.7705 77.08C51.6105 77.21 51.4505 77.34 51.3005 77.47C51.5305 77.47 51.7605 77.48 52.0005 77.52C53.7705 77.78 52.3405 79.62 51.7105 80.38C51.2805 80.89 50.8405 81.4 50.3905 81.9C50.2105 81.98 50.0905 82.13 50.0205 82.31C50.0005 82.33 49.9905 82.34 49.9805 82.36C49.3705 82.34 48.8005 82.28 48.2905 81.8C47.8005 81.34 47.5305 80.72 47.1805 80.16C47.1005 80 47.0105 79.85 46.9105 79.7C46.6405 79.31 46.2905 79.01 45.8905 78.79C45.8905 78.6 45.8605 78.41 45.8005 78.24C45.6605 78.12 45.5205 78 45.3805 77.87C45.4505 77.98 45.5105 78.09 45.5605 78.2C45.6205 78.34 45.6305 78.52 45.6805 78.68C45.2405 78.48 44.7605 78.39 44.2905 78.38C44.2305 78.39 44.1805 78.4 44.1205 78.43C44.0505 78.46 43.9905 78.5 43.9205 78.53C45.3005 78.53 46.3305 79.19 46.9805 80.4C46.4705 80.45 45.9705 80.47 45.5205 80.28C45.6205 80.4 45.7205 80.51 45.8505 80.59C46.2605 80.73 46.7205 80.76 47.0805 80.59C47.0905 80.61 47.0905 80.62 47.1005 80.63C47.4905 81.45 47.6605 81.95 48.3405 82.46C47.7905 82.58 47.2605 82.76 47.0105 82.84C46.4405 83.03 45.9205 83.14 45.3105 83.13C45.2905 83.13 45.2705 83.13 45.2605 83.13C45.2205 83.12 45.1705 83.12 45.1205 83.12C44.8305 83.07 44.5905 82.93 44.4105 82.73C44.3405 82.66 44.2705 82.59 44.2005 82.5C43.8905 82.1 43.6105 81.26 43.1005 81.12C43.0605 81.11 43.0305 81.1 42.9805 81.09C43.4905 81.48 43.6905 82.45 43.9805 82.89C44.0505 83 44.1305 83.09 44.2305 83.16C44.1805 83.18 44.1405 83.2 44.1005 83.22C43.9905 83.25 43.8805 83.29 43.7705 83.33C43.5805 83.4 43.3405 83.55 43.1105 83.64C42.5405 83.77 41.9005 83.64 41.5305 83.2C41.5305 83.31 41.5405 83.41 41.5705 83.51C41.7805 83.77 42.0805 83.92 42.4705 83.96C43.0105 84.02 43.4205 83.76 43.8505 83.52C44.0705 83.45 44.3005 83.4 44.5405 83.36C44.5505 83.36 44.5605 83.36 44.5705 83.36C44.7705 83.44 44.9805 83.48 45.1905 83.5C46.7405 83.68 48.4505 82.13 49.9305 82.86C50.1005 83.99 48.5505 84.83 47.6905 85.14C46.5805 85.54 45.3505 85.6 44.1805 85.68C43.5505 85.72 42.9105 85.77 42.2805 85.88C41.4305 86.03 40.9505 86.52 40.5005 87.22C40.7805 86.99 41.0505 86.7 41.3905 86.54C41.3605 87.15 41.3205 87.74 40.9705 88.27C41.3305 87.91 41.5605 87.58 41.6205 87.05C41.6905 86.46 41.8305 86.22 42.4605 86.15C43.6005 86.03 44.7205 86.09 45.8605 85.88C44.9305 86.3 43.9905 86.79 43.5105 87.74C43.2705 88.21 43.1205 88.68 42.7805 89.11C42.4605 89.52 41.8405 89.61 41.3805 89.78C40.7905 90 40.3905 90.25 40.0805 90.82C40.6705 90.19 41.4905 90 42.2805 89.73C41.5405 90.57 40.4905 91.9 41.4605 93C41.2805 92.25 41.3005 91.49 41.7405 90.83C42.1505 90.21 42.7205 89.63 43.2105 89.06C43.2805 89.78 43.5305 90.57 44.1805 90.99C43.7705 90.22 43.3705 89.39 43.5905 88.5C43.7905 87.64 44.4705 86.98 45.2205 86.56C45.6405 86.32 46.1005 86.15 46.5605 85.99C46.5705 86.69 46.7905 87.36 46.7605 88.06C46.7405 88.62 46.6205 88.98 46.2905 89.42C46.9505 89.32 46.9905 87.93 47.0405 87.46C47.3505 87.76 47.7005 88.06 47.9705 88.4C48.2905 88.8 48.2905 89.12 48.3305 89.61C48.9505 88.3 47.4005 87.86 47.0105 86.84C46.6705 85.96 47.2705 85.66 47.9805 85.4C48.7705 85.11 49.4605 84.58 49.8805 83.85C50.0305 83.6 50.3405 83.05 50.6905 83.34C50.9205 83.53 50.9605 84 51.0505 84.26C51.2605 84.95 51.5505 85.62 51.6705 86.34C51.9405 87.98 51.2005 89.58 50.3305 90.93C50.1005 91.12 49.8605 91.19 49.5005 91.19C49.4505 91.19 49.4005 91.2 49.3605 91.2C47.5005 90.95 45.5805 92.84 44.3705 94.08C44.3405 94.14 44.3205 94.21 44.3005 94.27C44.7405 93.87 45.2005 93.46 45.6905 93.08C45.5805 93.39 45.6205 93.79 45.5705 94.12C45.6405 94 45.7205 93.88 45.8005 93.76C45.8105 93.71 45.8205 93.67 45.8205 93.62C45.8505 93.47 45.8705 93.32 45.9005 93.18C45.9305 93.05 46.0005 92.94 46.0305 92.82C47.1805 91.97 48.4605 91.35 49.9405 91.53C49.5005 92.25 49.1905 93.03 49.0905 93.82C48.4405 94.61 47.4205 94.97 46.7905 95.77C46.5505 96.07 46.3305 96.42 46.1705 96.79C46.1605 96.87 46.1505 96.95 46.1505 97.03C46.1505 97.06 46.1605 97.15 46.1705 97.26C46.5605 96.43 47.0305 95.78 47.8305 95.2C48.2905 94.87 48.7505 94.58 49.0705 94.13C49.0305 95.05 49.3205 95.95 50.0705 96.74C49.9605 96.54 49.8605 96.34 49.7805 96.14C49.2605 95.26 49.1805 94.22 49.4105 93.19C49.6805 92 50.6705 90.99 51.2605 89.91C51.5105 90.49 52.0505 90.93 52.3905 91.46C52.8805 92.22 53.1005 93.11 53.1005 94C53.1705 93.77 53.2305 93.53 53.2705 93.3C53.2505 92.79 53.1505 92.3 52.9505 91.8C52.7405 91.26 52.3805 90.86 52.0305 90.46C51.9205 90.27 51.8105 90.09 51.7305 89.89C51.6305 89.66 51.6305 89.42 51.6005 89.19C51.9005 88.41 52.0605 87.58 52.0405 86.74C52.0905 86.72 52.1505 86.73 52.2405 86.77C52.3905 86.85 52.5305 86.97 52.6805 87.07C52.9905 87.29 53.2505 87.58 53.5605 87.8C54.2605 88.58 54.7605 89.62 54.8405 90.65C54.9405 90.17 54.8405 89.67 54.7305 89.19C54.6005 88.85 54.4205 88.52 54.2105 88.23Z" fill="#8C1126"/>
<path d="M44.9205 76.13C45.0105 76.17 45.1105 76.19 45.2005 76.21C45.4105 76.25 45.6105 76.25 45.8105 76.24C46.0705 76.25 46.4005 76.25 46.6305 76.13C46.8105 76.13 47.0005 76.16 47.1805 76.18C47.7405 76.39 48.4105 76.39 48.9805 76.13C49.0205 76.22 49.0605 76.3 49.1105 76.39C49.2405 76.59 49.5105 76.8 49.7605 76.85C50.0805 76.98 50.4605 76.99 50.8805 76.99C50.9705 76.91 51.0605 76.82 51.1605 76.74C51.2205 76.69 51.2805 76.64 51.3405 76.59C51.1005 76.59 50.8505 76.6 50.6105 76.59C50.2205 76.5 49.8905 76.4 49.6505 76.1C49.0605 74.75 50.2005 74.04 51.1505 73.27C51.3705 73.11 51.5405 72.99 51.6105 72.92C51.8805 72.65 52.1005 72.33 52.2005 71.98C52.3905 71.97 52.7405 71.77 52.8005 71.73C52.8105 71.72 52.8205 71.71 52.8405 71.7C52.9605 71.56 53.0705 71.42 53.1405 71.26C53.0205 71.37 52.8705 71.48 52.7805 71.54C52.6605 71.62 52.5505 71.7 52.4205 71.75C52.3605 71.77 52.3105 71.76 52.2505 71.76C52.2705 71.59 52.2505 71.42 52.1905 71.25C52.1805 71.14 52.1505 71.02 52.1205 70.91C52.1205 71.3 52.0305 71.69 51.8405 72.03C51.7405 72.32 51.5705 72.59 51.3505 72.84C50.6105 71.98 50.8105 70.57 51.5005 69.74C51.4205 69.79 51.3305 69.85 51.2605 69.91C50.5905 70.79 50.3605 72.19 51.1805 73.01C51.0805 73.1 50.9705 73.2 50.8505 73.29C50.7205 73.39 50.5905 73.49 50.4705 73.59C50.2505 73.73 50.0305 73.86 49.8405 73.98C49.7605 74.03 49.5305 74.2 49.3305 74.39C49.4205 73.83 49.3705 73.28 49.2505 72.73C49.1705 72.35 49.0305 72 48.8405 71.69C48.8605 71.68 48.8805 71.66 48.8805 71.64C48.9105 71.58 48.9305 71.52 48.9505 71.45V71.44C49.0005 71.08 49.0005 70.66 48.8305 70.33C48.9205 70.73 48.8305 71.14 48.7505 71.55C48.4705 71.15 48.0805 70.84 47.6105 70.67C47.5205 70.67 47.4305 70.67 47.3405 70.68C47.3705 70.7 47.3905 70.72 47.4105 70.74C48.4905 71.12 48.9805 72.23 49.0505 73.35C48.6705 73.31 48.2505 73.44 47.8505 73.32C47.7205 73.28 47.5905 73.21 47.4705 73.13C47.1905 73.03 46.9505 72.86 46.8205 72.63C46.8305 72.69 46.8305 72.74 46.8505 72.8C47.0505 73.07 47.2805 73.3 47.5805 73.47C48.0505 73.74 48.5505 73.58 49.0605 73.57C49.0705 73.91 49.0405 74.25 48.9805 74.56C48.9005 74.98 48.8205 75.39 48.8705 75.79C48.4805 75.93 48.0505 76 47.6405 75.96C47.3005 75.99 46.9605 75.97 46.6805 75.75C46.3105 75.46 46.0705 75.07 45.8405 74.67C45.9205 74.94 45.9805 75.22 46.1505 75.46C46.2805 75.65 46.4205 75.79 46.5705 75.9C46.5605 75.9 46.5505 75.9 46.5505 75.9C45.8805 75.96 44.9905 76.19 44.4705 75.63C44.5905 75.79 44.7405 75.97 44.9205 76.13Z" fill="#801B25"/>
<path d="M54.2105 88.23C54.0805 88.04 53.9305 87.87 53.7705 87.7C54.0505 87.86 54.3405 88 54.7005 88.13C55.5405 88.45 56.3105 88.96 56.9505 89.59C56.9105 89.49 56.8805 89.4 56.8605 89.37C56.7605 89.19 56.6505 89.01 56.5205 88.85C56.1905 88.54 55.8105 88.29 55.3705 88.08C54.9805 87.89 54.5405 87.77 54.1305 87.63C52.6105 87.12 51.6705 85.58 51.1805 84.14C51.0405 83.71 50.9305 83.08 51.0405 82.64C51.1205 82.34 51.1505 82.07 50.8605 81.87C51.2605 81.19 51.8705 80.66 52.3705 80.06C52.7905 79.56 53.4105 78.9 53.3805 78.2C53.3505 77.6 52.9605 77.35 52.4205 77.18C52.2105 77.12 51.9905 77.09 51.7705 77.08C51.6105 77.21 51.4505 77.34 51.3005 77.47C51.5305 77.47 51.7605 77.48 52.0005 77.52C53.7705 77.78 52.3405 79.62 51.7105 80.38C51.2805 80.89 50.8405 81.4 50.3905 81.9C50.2105 81.98 50.0905 82.13 50.0205 82.31C50.0005 82.33 49.9905 82.34 49.9805 82.36C49.3705 82.34 48.8005 82.28 48.2905 81.8C47.8005 81.34 47.5305 80.72 47.1805 80.16C47.1005 80 47.0105 79.85 46.9105 79.7C46.6405 79.31 46.2905 79.01 45.8905 78.79C45.8905 78.6 45.8605 78.41 45.8005 78.24C45.6605 78.12 45.5205 78 45.3805 77.87C45.4505 77.98 45.5105 78.09 45.5605 78.2C45.6205 78.34 45.6305 78.52 45.6805 78.68C45.2405 78.48 44.7605 78.39 44.2905 78.38C44.2305 78.39 44.1805 78.4 44.1205 78.43C44.0505 78.46 43.9905 78.5 43.9205 78.53C45.3005 78.53 46.3305 79.19 46.9805 80.4C46.4705 80.45 45.9705 80.47 45.5205 80.28C45.6205 80.4 45.7205 80.51 45.8505 80.59C46.2605 80.73 46.7205 80.76 47.0805 80.59C47.0905 80.61 47.0905 80.62 47.1005 80.63C47.4905 81.45 47.6605 81.95 48.3405 82.46C47.7905 82.58 47.2605 82.76 47.0105 82.84C46.4405 83.03 45.9205 83.14 45.3105 83.13C45.2905 83.13 45.2705 83.13 45.2605 83.13C45.2205 83.12 45.1705 83.12 45.1205 83.12C44.8305 83.07 44.5905 82.93 44.4105 82.73C44.3405 82.66 44.2705 82.59 44.2005 82.5C43.8905 82.1 43.6105 81.26 43.1005 81.12C43.0605 81.11 43.0305 81.1 42.9805 81.09C43.4905 81.48 43.6905 82.45 43.9805 82.89C44.0505 83 44.1305 83.09 44.2305 83.16C44.1805 83.18 44.1405 83.2 44.1005 83.22C43.9905 83.25 43.8805 83.29 43.7705 83.33C43.5805 83.4 43.3405 83.55 43.1105 83.64C42.5405 83.77 41.9005 83.64 41.5305 83.2C41.5305 83.31 41.5405 83.41 41.5705 83.51C41.7805 83.77 42.0805 83.92 42.4705 83.96C43.0105 84.02 43.4205 83.76 43.8505 83.52C44.0705 83.45 44.3005 83.4 44.5405 83.36C44.5505 83.36 44.5605 83.36 44.5705 83.36C44.7705 83.44 44.9805 83.48 45.1905 83.5C46.7405 83.68 48.4505 82.13 49.9305 82.86C50.1005 83.99 48.5505 84.83 47.6905 85.14C46.5805 85.54 45.3505 85.6 44.1805 85.68C43.5505 85.72 42.9105 85.77 42.2805 85.88C41.4305 86.03 40.9505 86.52 40.5005 87.22C40.7805 86.99 41.0505 86.7 41.3905 86.54C41.3605 87.15 41.3205 87.74 40.9705 88.27C41.3305 87.91 41.5605 87.58 41.6205 87.05C41.6905 86.46 41.8305 86.22 42.4605 86.15C43.6005 86.03 44.7205 86.09 45.8605 85.88C44.9305 86.3 43.9905 86.79 43.5105 87.74C43.2705 88.21 43.1205 88.68 42.7805 89.11C42.4605 89.52 41.8405 89.61 41.3805 89.78C40.7905 90 40.3905 90.25 40.0805 90.82C40.6705 90.19 41.4905 90 42.2805 89.73C41.5405 90.57 40.4905 91.9 41.4605 93C41.2805 92.25 41.3005 91.49 41.7405 90.83C42.1505 90.21 42.7205 89.63 43.2105 89.06C43.2805 89.78 43.5305 90.57 44.1805 90.99C43.7705 90.22 43.3705 89.39 43.5905 88.5C43.7905 87.64 44.4705 86.98 45.2205 86.56C45.6405 86.32 46.1005 86.15 46.5605 85.99C46.5705 86.69 46.7905 87.36 46.7605 88.06C46.7405 88.62 46.6205 88.98 46.2905 89.42C46.9505 89.32 46.9905 87.93 47.0405 87.46C47.3505 87.76 47.7005 88.06 47.9705 88.4C48.2905 88.8 48.2905 89.12 48.3305 89.61C48.9505 88.3 47.4005 87.86 47.0105 86.84C46.6705 85.96 47.2705 85.66 47.9805 85.4C48.7705 85.11 49.4605 84.58 49.8805 83.85C50.0305 83.6 50.3405 83.05 50.6905 83.34C50.9205 83.53 50.9605 84 51.0505 84.26C51.2605 84.95 51.5505 85.62 51.6705 86.34C51.9405 87.98 51.2005 89.58 50.3305 90.93C50.1005 91.12 49.8605 91.19 49.5005 91.19C49.4505 91.19 49.4005 91.2 49.3605 91.2C47.5005 90.95 45.5805 92.84 44.3705 94.08C44.3405 94.14 44.3205 94.21 44.3005 94.27C44.7405 93.87 45.2005 93.46 45.6905 93.08C45.5805 93.39 45.6205 93.79 45.5705 94.12C45.6405 94 45.7205 93.88 45.8005 93.76C45.8105 93.71 45.8205 93.67 45.8205 93.62C45.8505 93.47 45.8705 93.32 45.9005 93.18C45.9305 93.05 46.0005 92.94 46.0305 92.82C47.1805 91.97 48.4605 91.35 49.9405 91.53C49.5005 92.25 49.1905 93.03 49.0905 93.82C48.4405 94.61 47.4205 94.97 46.7905 95.77C46.5505 96.07 46.3305 96.42 46.1705 96.79C46.1605 96.87 46.1505 96.95 46.1505 97.03C46.1505 97.06 46.1605 97.15 46.1705 97.26C46.5605 96.43 47.0305 95.78 47.8305 95.2C48.2905 94.87 48.7505 94.58 49.0705 94.13C49.0305 95.05 49.3205 95.95 50.0705 96.74C49.9605 96.54 49.8605 96.34 49.7805 96.14C49.2605 95.26 49.1805 94.22 49.4105 93.19C49.6805 92 50.6705 90.99 51.2605 89.91C51.5105 90.49 52.0505 90.93 52.3905 91.46C52.8805 92.22 53.1005 93.11 53.1005 94C53.1705 93.77 53.2305 93.53 53.2705 93.3C53.2505 92.79 53.1505 92.3 52.9505 91.8C52.7405 91.26 52.3805 90.86 52.0305 90.46C51.9205 90.27 51.8105 90.09 51.7305 89.89C51.6305 89.66 51.6305 89.42 51.6005 89.19C51.9005 88.41 52.0605 87.58 52.0405 86.74C52.0905 86.72 52.1505 86.73 52.2405 86.77C52.3905 86.85 52.5305 86.97 52.6805 87.07C52.9905 87.29 53.2505 87.58 53.5605 87.8C54.2605 88.58 54.7605 89.62 54.8405 90.65C54.9405 90.17 54.8405 89.67 54.7305 89.19C54.6005 88.85 54.4205 88.52 54.2105 88.23Z" fill="#801B25"/>
<path d="M81.7705 90.17C81.4605 89.6 81.0705 89.36 80.4705 89.14C80.0005 88.96 79.3905 88.87 79.0705 88.47C78.7305 88.04 78.5705 87.58 78.3405 87.1C77.8705 86.15 76.9205 85.65 75.9905 85.24C77.1305 85.45 78.2505 85.39 79.3905 85.51C80.0205 85.57 80.1705 85.81 80.2305 86.41C80.2905 86.93 80.5205 87.26 80.8805 87.62C80.5305 87.09 80.4905 86.5 80.4605 85.89C80.7905 86.05 81.0705 86.34 81.3505 86.57C80.9005 85.87 80.4205 85.38 79.5705 85.23C78.9405 85.12 78.3105 85.07 77.6705 85.03C76.5005 84.95 75.2705 84.89 74.1605 84.49C73.3005 84.18 71.7505 83.35 71.9205 82.21C73.4005 81.48 75.1105 83.03 76.6605 82.85C76.8705 82.83 77.0905 82.78 77.2805 82.71C77.2905 82.71 77.3005 82.71 77.3105 82.71C77.5505 82.75 77.7705 82.8 78.0005 82.87C78.4305 83.11 78.8405 83.38 79.3805 83.32C79.7705 83.27 80.0705 83.13 80.2805 82.87C80.3005 82.77 80.3105 82.66 80.3105 82.56C79.9405 83 79.3005 83.13 78.7305 83C78.4905 82.91 78.2605 82.76 78.0705 82.69C77.9605 82.65 77.8505 82.61 77.7405 82.58C77.7005 82.56 77.6505 82.54 77.6105 82.52C77.7005 82.45 77.7905 82.36 77.8605 82.25C78.1405 81.81 78.3405 80.84 78.8605 80.45C78.8205 80.46 78.7805 80.47 78.7405 80.48C78.2305 80.63 77.9505 81.46 77.6405 81.86C77.5705 81.95 77.5005 82.02 77.4305 82.09C77.2405 82.29 77.0105 82.43 76.7105 82.48C76.6605 82.48 76.6205 82.49 76.5705 82.49C76.5505 82.49 76.5305 82.49 76.5205 82.49C75.9105 82.5 75.3905 82.4 74.8205 82.2C74.5705 82.12 74.0505 81.94 73.4905 81.82C74.1805 81.31 74.3505 80.82 74.7305 79.99C74.7405 79.98 74.7505 79.96 74.7505 79.95C75.1205 80.12 75.5705 80.09 75.9805 79.95C76.1005 79.87 76.2105 79.76 76.3105 79.64C75.8605 79.83 75.3605 79.81 74.8505 79.76C75.5005 78.56 76.5305 77.89 77.9105 77.89C77.8405 77.85 77.7805 77.82 77.7105 77.79C77.6605 77.77 77.6005 77.75 77.5405 77.74C77.0605 77.74 76.5805 77.84 76.1505 78.03C76.2005 77.87 76.2105 77.69 76.2705 77.55C76.3205 77.43 76.3805 77.32 76.4505 77.21C76.3205 77.34 76.1705 77.46 76.0305 77.58C75.9705 77.75 75.9405 77.94 75.9405 78.13C75.5405 78.35 75.1905 78.65 74.9205 79.04C74.8205 79.19 74.7305 79.35 74.6505 79.5C74.3005 80.06 74.0305 80.68 73.5405 81.14C73.0305 81.62 72.4605 81.69 71.8505 81.7C71.8405 81.68 71.8205 81.66 71.8005 81.65C71.7305 81.47 71.6105 81.32 71.4305 81.24C70.9805 80.74 70.5405 80.24 70.1105 79.72C69.4805 78.97 68.0505 77.12 69.8205 76.86C70.3305 76.79 70.8405 76.82 71.2905 76.79C71.2305 76.66 71.1805 76.54 71.1205 76.41V76.4C71.1105 76.4 71.1005 76.41 71.0805 76.41C70.5205 76.43 69.9105 76.36 69.4005 76.51C68.8605 76.67 68.4705 76.93 68.4405 77.53C68.4105 78.23 69.0205 78.89 69.4405 79.39C69.9505 79.99 70.5605 80.52 70.9505 81.2C70.6705 81.4 70.7005 81.67 70.7805 81.97C70.8905 82.41 70.7905 83.04 70.6405 83.47C70.1505 84.92 69.2105 86.45 67.6905 86.96C67.2805 87.1 66.8405 87.22 66.4505 87.41C66.0205 87.62 65.6405 87.87 65.3005 88.18C65.1705 88.34 65.0605 88.51 64.9605 88.7C64.9405 88.74 64.9105 88.82 64.8705 88.92C65.5105 88.29 66.2705 87.78 67.1205 87.46C67.4805 87.33 67.7705 87.19 68.0505 87.03C67.8905 87.2 67.7505 87.37 67.6105 87.56C67.4005 87.85 67.2305 88.18 67.0905 88.53C66.9705 89 66.8805 89.51 66.9805 89.99C67.0705 88.96 67.5605 87.92 68.2705 87.14C68.5805 86.92 68.8405 86.63 69.1505 86.41C69.2905 86.31 69.4305 86.19 69.5905 86.11C69.6805 86.06 69.7405 86.06 69.7905 86.08C69.7705 86.92 69.9305 87.75 70.2305 88.53C70.2005 88.76 70.2005 89 70.1005 89.23C70.0105 89.43 69.9105 89.62 69.8005 89.8C69.4405 90.2 69.0905 90.6 68.8805 91.13C68.6805 91.63 68.5805 92.12 68.5605 92.63C68.6005 92.87 68.6605 93.1 68.7305 93.33C68.7205 92.44 68.9405 91.55 69.4305 90.79C69.7705 90.26 70.3105 89.82 70.5605 89.24C70.8305 89.73 71.1805 90.2 71.5005 90.68C71.6205 90.83 71.7205 90.99 71.8105 91.17C71.9905 91.46 72.1505 91.76 72.2705 92.07C72.2705 92.08 72.2805 92.08 72.2805 92.09C72.3905 92.26 72.5005 92.42 72.6205 92.57C72.4705 91.98 72.2205 91.4 71.8805 90.86C73.3505 90.68 74.6405 91.31 75.7905 92.15C75.8205 92.28 75.8905 92.38 75.9205 92.51C75.9605 92.66 75.9705 92.81 76.0005 92.96C76.0105 93.01 76.0205 93.05 76.0305 93.1C76.1105 93.22 76.1805 93.34 76.2505 93.46C76.2105 93.13 76.2405 92.73 76.1305 92.42C76.6105 92.8 77.0805 93.21 77.5205 93.61C77.5005 93.54 77.4805 93.48 77.4505 93.42C76.2405 92.18 74.3305 90.28 72.4605 90.54C72.4105 90.54 72.3605 90.53 72.3105 90.53C71.9505 90.53 71.7105 90.46 71.4805 90.27C70.6105 88.92 69.8705 87.32 70.1405 85.68C70.2605 84.96 70.5405 84.29 70.7605 83.6C70.8405 83.33 70.8905 82.87 71.1205 82.68C71.4705 82.39 71.7805 82.93 71.9305 83.19C72.3505 83.92 73.0405 84.45 73.8305 84.74C74.5405 85 75.1405 85.29 74.8005 86.18C74.4105 87.2 72.8605 87.64 73.4805 88.95C73.5205 88.47 73.5205 88.14 73.8405 87.74C74.1105 87.4 74.4605 87.1 74.7705 86.8C74.8305 87.27 74.8605 88.66 75.5205 88.76C75.1905 88.32 75.0705 87.96 75.0505 87.4C75.0205 86.69 75.2405 86.03 75.2505 85.33C75.7105 85.49 76.1605 85.66 76.5905 85.9C77.3405 86.32 78.0205 86.98 78.2205 87.84C78.4305 88.73 78.0305 89.56 77.6305 90.33C78.2705 89.91 78.5305 89.12 78.6005 88.4C79.0905 88.97 79.6505 89.54 80.0705 90.17C80.5105 90.83 80.5305 91.59 80.3505 92.34C81.3205 91.23 80.2705 89.91 79.5305 89.07C80.3705 89.35 81.1805 89.54 81.7705 90.17Z" fill="#F29F93"/>
<path d="M68.7605 70.8C68.8105 70.84 69.1605 71.04 69.3505 71.05C69.4505 71.4 69.6705 71.72 69.9405 71.99C70.0105 72.06 70.1805 72.19 70.4005 72.35C71.3605 73.13 72.5005 73.83 71.9005 75.18C71.7205 75.41 71.4805 75.52 71.2005 75.6C71.2905 75.77 71.3705 75.92 71.4205 76.01C71.5505 75.99 71.6805 75.96 71.7905 75.91C72.0505 75.86 72.3105 75.65 72.4405 75.45C72.4905 75.37 72.5405 75.28 72.5705 75.19C73.1505 75.45 73.8105 75.46 74.3705 75.24C74.5505 75.22 74.7305 75.19 74.9205 75.19C75.1505 75.31 75.4905 75.31 75.7405 75.3C75.9405 75.32 76.1305 75.31 76.3505 75.28C76.4405 75.26 76.5405 75.24 76.6305 75.2C76.8105 75.05 76.9705 74.86 77.0605 74.65C76.5405 75.21 75.6405 74.98 74.9805 74.92C74.9705 74.92 74.9605 74.92 74.9605 74.92C75.1205 74.81 75.2505 74.67 75.3905 74.48C75.5605 74.24 75.6205 73.96 75.7005 73.69C75.4805 74.1 75.2305 74.48 74.8605 74.77C74.5805 74.99 74.2405 75.02 73.9005 74.98C73.4905 75.02 73.0705 74.94 72.6705 74.81C72.7205 74.41 72.6405 74 72.5605 73.58C72.5005 73.27 72.4705 72.93 72.4805 72.59C72.9805 72.61 73.4805 72.76 73.9605 72.5C74.2605 72.33 74.4905 72.09 74.6905 71.83C74.7005 71.78 74.7105 71.72 74.7205 71.67C74.6005 71.9 74.3505 72.07 74.0705 72.17C73.9505 72.25 73.8205 72.32 73.6905 72.36C73.2905 72.48 72.8805 72.35 72.4905 72.39C72.5705 71.27 73.0605 70.16 74.1305 69.78C74.1605 69.76 74.1805 69.74 74.2005 69.72C74.1205 69.71 74.0305 69.71 73.9405 69.71C73.4605 69.88 73.0805 70.19 72.8005 70.59C72.7205 70.19 72.6305 69.78 72.7205 69.37C72.5505 69.7 72.5505 70.12 72.6005 70.48C72.6005 70.49 72.6005 70.49 72.6005 70.49C72.6205 70.55 72.6405 70.62 72.6705 70.68C72.6805 70.7 72.6905 70.71 72.7105 70.73C72.5205 71.04 72.3805 71.39 72.3005 71.77C72.1805 72.32 72.1405 72.87 72.2205 73.43C72.0205 73.24 71.7905 73.07 71.7105 73.02C71.5205 72.9 71.3005 72.77 71.0805 72.63C70.9505 72.53 70.8205 72.43 70.6905 72.33C70.5705 72.24 70.4605 72.15 70.3605 72.05C71.1905 71.23 70.9505 69.83 70.2905 68.95C70.2105 68.89 70.1305 68.83 70.0505 68.78C70.7405 69.61 70.9405 71.02 70.2005 71.88C69.9705 71.63 69.8105 71.37 69.7005 71.07C69.5105 70.73 69.4205 70.34 69.4205 69.95C69.3905 70.06 69.3705 70.18 69.3505 70.29C69.2905 70.46 69.2705 70.63 69.2905 70.8C69.2405 70.8 69.1805 70.82 69.1205 70.79C68.9905 70.74 68.8705 70.67 68.7605 70.58C68.6705 70.52 68.5205 70.42 68.4005 70.3C68.4705 70.46 68.5805 70.61 68.7005 70.74C68.7405 70.78 68.7505 70.79 68.7605 70.8Z" fill="#F29F93"/>
<path d="M81.6405 90.17C81.3305 89.6 80.9305 89.36 80.3405 89.14C79.8705 88.96 79.2605 88.87 78.9405 88.47C78.6005 88.04 78.4405 87.58 78.2105 87.1C77.7405 86.15 76.7905 85.65 75.8605 85.24C77.0005 85.45 78.1205 85.39 79.2605 85.51C79.8905 85.57 80.0405 85.81 80.1005 86.41C80.1605 86.93 80.3805 87.26 80.7505 87.62C80.4005 87.09 80.3605 86.5 80.3305 85.89C80.6705 86.05 80.9405 86.34 81.2205 86.57C80.7605 85.87 80.2905 85.38 79.4405 85.23C78.8105 85.12 78.1805 85.07 77.5405 85.03C76.3705 84.95 75.1405 84.89 74.0305 84.49C73.1705 84.18 71.6205 83.35 71.7905 82.21C73.2705 81.48 74.9805 83.03 76.5305 82.85C76.7405 82.83 76.9605 82.78 77.1505 82.71C77.1605 82.71 77.1705 82.71 77.1805 82.71C77.4205 82.75 77.6405 82.8 77.8705 82.87C78.3005 83.11 78.7105 83.38 79.2505 83.32C79.6405 83.27 79.9405 83.13 80.1505 82.87C80.1705 82.77 80.1805 82.66 80.1905 82.56C79.8205 83 79.1805 83.13 78.6105 83C78.3705 82.91 78.1405 82.76 77.9505 82.69C77.8405 82.65 77.7305 82.61 77.6205 82.58C77.5805 82.56 77.5305 82.54 77.4905 82.52C77.5805 82.45 77.6705 82.36 77.7405 82.25C78.0205 81.81 78.2205 80.84 78.7405 80.45C78.7005 80.46 78.6605 80.47 78.6205 80.48C78.1105 80.63 77.8305 81.46 77.5205 81.86C77.4605 81.95 77.3805 82.02 77.3105 82.09C77.1205 82.29 76.8905 82.43 76.6005 82.48C76.5505 82.48 76.5105 82.49 76.4605 82.49C76.4405 82.49 76.4305 82.49 76.4105 82.49C75.8105 82.5 75.2905 82.4 74.7105 82.2C74.4605 82.12 73.9405 81.94 73.3805 81.82C74.0605 81.31 74.2405 80.82 74.6205 79.99C74.6305 79.98 74.6305 79.96 74.6405 79.95C75.0105 80.12 75.4605 80.09 75.8705 79.95C75.9905 79.87 76.1005 79.76 76.2005 79.64C75.7505 79.83 75.2505 79.81 74.7405 79.76C75.3905 78.56 76.4205 77.89 77.8005 77.89C77.7305 77.85 77.6705 77.82 77.6005 77.79C77.5505 77.77 77.4905 77.75 77.4305 77.74C76.9505 77.74 76.4705 77.84 76.0405 78.03C76.0905 77.87 76.1005 77.69 76.1605 77.55C76.2105 77.43 76.2705 77.32 76.3405 77.21C76.2105 77.34 76.0705 77.46 75.9205 77.58C75.8605 77.75 75.8305 77.94 75.8305 78.13C75.4305 78.35 75.0805 78.65 74.8105 79.04C74.7105 79.19 74.6205 79.35 74.5405 79.5C74.1905 80.06 73.9205 80.68 73.4305 81.14C72.9205 81.62 72.3505 81.69 71.7405 81.7C71.7305 81.68 71.7105 81.66 71.6905 81.65C71.6205 81.47 71.5005 81.32 71.3205 81.24C70.8705 80.74 70.4305 80.24 70.0005 79.72C69.3705 78.97 67.9405 77.12 69.7105 76.86C70.2205 76.79 70.7305 76.82 71.1805 76.79C71.1205 76.66 71.0605 76.54 71.0105 76.41C71.0105 76.41 71.0105 76.4 71.0005 76.4C70.9905 76.4 70.9805 76.41 70.9605 76.41C70.4005 76.43 69.7905 76.36 69.2805 76.51C68.7405 76.67 68.3405 76.93 68.3205 77.53C68.2905 78.23 68.9005 78.89 69.3205 79.39C69.8305 79.99 70.4405 80.52 70.8305 81.2C70.5505 81.4 70.5805 81.67 70.6505 81.97C70.7705 82.41 70.6605 83.04 70.5205 83.47C70.0305 84.92 69.0805 86.45 67.5705 86.96C67.1605 87.1 66.7205 87.22 66.3305 87.41C65.8905 87.62 65.5205 87.87 65.1805 88.18C65.0505 88.34 64.9405 88.51 64.8405 88.7C64.8205 88.74 64.7905 88.82 64.7505 88.92C65.3905 88.29 66.1505 87.78 67.0005 87.46C67.3605 87.33 67.6505 87.19 67.9305 87.03C67.7705 87.2 67.6305 87.37 67.4905 87.56C67.2905 87.85 67.1105 88.18 66.9705 88.53C66.8505 89 66.7605 89.51 66.8605 89.99C66.9505 88.96 67.4405 87.92 68.1505 87.14C68.4605 86.92 68.7205 86.63 69.0305 86.41C69.1705 86.31 69.3105 86.19 69.4705 86.11C69.5605 86.06 69.6205 86.06 69.6705 86.08C69.6505 86.92 69.8105 87.75 70.1105 88.53C70.0805 88.76 70.0805 89 69.9805 89.23C69.8905 89.43 69.7905 89.62 69.6805 89.8C69.3205 90.2 68.9705 90.6 68.7605 91.13C68.5605 91.63 68.4605 92.12 68.4405 92.63C68.4805 92.87 68.5405 93.1 68.6105 93.33C68.6005 92.44 68.8305 91.55 69.3205 90.79C69.6605 90.26 70.2005 89.82 70.4505 89.24C70.7205 89.73 71.0705 90.2 71.3905 90.68C71.5105 90.83 71.6105 90.99 71.7105 91.17C71.8905 91.46 72.0505 91.76 72.1705 92.07C72.1705 92.08 72.1805 92.08 72.1805 92.09C72.2805 92.26 72.4005 92.42 72.5205 92.57C72.3705 91.98 72.1105 91.4 71.7805 90.86C73.2505 90.68 74.5405 91.31 75.6805 92.15C75.7105 92.28 75.7805 92.38 75.8105 92.51C75.8505 92.66 75.8705 92.81 75.8905 92.96C75.9005 93.01 75.9105 93.05 75.9205 93.1C75.9905 93.22 76.0705 93.34 76.1405 93.46C76.1005 93.13 76.1305 92.73 76.0205 92.42C76.5005 92.8 76.9705 93.21 77.4105 93.61C77.3905 93.54 77.3705 93.48 77.3405 93.42C76.1305 92.18 74.2205 90.28 72.3505 90.54C72.3005 90.54 72.2505 90.53 72.2005 90.53C71.8405 90.53 71.6005 90.46 71.3705 90.27C70.5005 88.92 69.7605 87.32 70.0305 85.68C70.1505 84.96 70.4405 84.29 70.6505 83.6C70.7305 83.33 70.7805 82.87 71.0105 82.68C71.3605 82.39 71.6705 82.93 71.8205 83.19C72.2405 83.92 72.9305 84.45 73.7205 84.74C74.4305 85 75.0305 85.29 74.6905 86.18C74.3005 87.2 72.7505 87.64 73.3705 88.95C73.4105 88.47 73.4105 88.14 73.7305 87.74C74.0005 87.4 74.3505 87.1 74.6605 86.8C74.7205 87.27 74.7505 88.66 75.4105 88.76C75.0805 88.32 74.9605 87.96 74.9405 87.4C74.9105 86.69 75.1305 86.03 75.1405 85.33C75.6005 85.49 76.0505 85.66 76.4805 85.9C77.2305 86.32 77.9105 86.98 78.1105 87.84C78.3205 88.73 77.9205 89.56 77.5205 90.33C78.1605 89.91 78.4205 89.12 78.4805 88.4C78.9705 88.97 79.5405 89.54 79.9505 90.17C80.3905 90.83 80.4105 91.59 80.2305 92.34C81.1905 91.23 80.1505 89.91 79.4105 89.07C80.2405 89.35 81.0505 89.54 81.6405 90.17Z" fill="#801B25"/>
<path d="M68.6305 70.8C68.6805 70.84 69.0305 71.04 69.2205 71.05C69.3105 71.4 69.5405 71.72 69.8105 71.99C69.8805 72.06 70.0505 72.19 70.2705 72.35C71.2305 73.13 72.3705 73.83 71.7805 75.18C71.5905 75.41 71.3605 75.52 71.0805 75.6C71.1705 75.77 71.2505 75.92 71.3005 76.01C71.4305 75.99 71.5605 75.96 71.6705 75.91C71.9305 75.86 72.1905 75.65 72.3305 75.45C72.3805 75.37 72.4305 75.28 72.4605 75.19C73.0405 75.45 73.7005 75.46 74.2605 75.24C74.4405 75.22 74.6205 75.19 74.8005 75.19C75.0405 75.31 75.3705 75.31 75.6305 75.3C75.8305 75.32 76.0205 75.31 76.2405 75.28C76.3405 75.26 76.4305 75.24 76.5205 75.2C76.7005 75.05 76.8605 74.86 76.9505 74.65C76.4305 75.21 75.5305 74.98 74.8705 74.92C74.8605 74.92 74.8505 74.92 74.8505 74.92C75.0005 74.81 75.1405 74.67 75.2705 74.48C75.4405 74.24 75.5005 73.96 75.5805 73.69C75.3605 74.1 75.1105 74.48 74.7405 74.77C74.4605 74.99 74.1205 75.02 73.7805 74.98C73.3705 75.02 72.9505 74.94 72.5505 74.81C72.6005 74.41 72.5205 74 72.4405 73.58C72.3805 73.27 72.3505 72.93 72.3605 72.59C72.8605 72.61 73.3605 72.76 73.8405 72.5C74.1405 72.33 74.3705 72.09 74.5705 71.83C74.5805 71.78 74.5905 71.72 74.6005 71.67C74.4805 71.9 74.2305 72.07 73.9505 72.17C73.8305 72.25 73.7005 72.32 73.5705 72.36C73.1705 72.48 72.7605 72.35 72.3705 72.39C72.4505 71.27 72.9305 70.16 74.0105 69.78C74.0405 69.76 74.0605 69.74 74.0805 69.72C74.0005 69.71 73.9105 69.71 73.8105 69.71C73.3305 69.88 72.9505 70.19 72.6705 70.59C72.5905 70.19 72.5005 69.78 72.5905 69.37C72.4205 69.7 72.4205 70.12 72.4705 70.48C72.4705 70.49 72.4705 70.49 72.4705 70.49C72.4905 70.55 72.5105 70.62 72.5405 70.68C72.5505 70.7 72.5605 70.71 72.5805 70.73C72.3905 71.04 72.2505 71.39 72.1705 71.77C72.0505 72.32 72.0105 72.87 72.0905 73.43C71.8905 73.24 71.6605 73.07 71.5805 73.02C71.3905 72.9 71.1705 72.77 70.9505 72.63C70.8205 72.53 70.6905 72.43 70.5705 72.33C70.4505 72.24 70.3405 72.15 70.2405 72.05C71.0605 71.23 70.8305 69.83 70.1605 68.95C70.0805 68.89 70.0005 68.83 69.9205 68.78C70.6105 69.61 70.8105 71.02 70.0705 71.88C69.8405 71.63 69.6805 71.37 69.5705 71.07C69.3805 70.73 69.2905 70.34 69.2905 69.95C69.2605 70.06 69.2405 70.18 69.2305 70.29C69.1705 70.46 69.1505 70.63 69.1705 70.8C69.1205 70.8 69.0605 70.82 69.0005 70.79C68.8705 70.74 68.7505 70.67 68.6405 70.58C68.5505 70.52 68.4005 70.42 68.2805 70.3C68.3505 70.46 68.4605 70.61 68.5805 70.74C68.6105 70.78 68.6205 70.79 68.6305 70.8Z" fill="#801B25"/>
</svg>
