<svg width="120" height="324" viewBox="0 0 120 324" fill="none" xmlns="http://www.w3.org/2000/svg">
<path d="M119.824 174.073C118.916 173.254 117.603 171.205 116.488 167.727C115.373 164.248 110.626 162.609 109.313 159.95C108.001 157.292 106.994 149.106 106.886 140.3C106.787 131.505 105.07 121.37 103.55 116.972C102.03 112.574 100.52 107.756 101.024 102.239C101.527 96.7119 101.33 91.1847 100.619 88.3261C99.9086 85.4575 99.6125 85.6674 100.718 79.8303C101.833 73.9932 99.6027 67.5464 96.1684 61.4095C92.7341 55.2725 85.3524 55.1626 83.4379 53.7333C81.5135 52.304 77.7831 51.4844 74.2403 49.4354C70.7073 47.3864 68.3783 46.7767 68.3783 45.3475C68.3783 43.9182 68.2796 40.1301 69.6908 37.0616C71.1021 33.9931 71.1021 30.9246 71.1021 30.9246C72.612 31.7442 72.7205 30.3149 74.033 27.5463C75.3456 24.7877 75.7502 22.9386 75.4443 21.5093C75.1383 20.08 73.8258 20.2799 73.8258 20.2799C73.8258 20.2799 76.1548 11.3743 71.6054 5.64719C67.9737 1.06947 62.4769 0.209896 60.4143 0.0599706V0C60.4143 0 60.2663 2.28992e-07 59.9998 0.00999526C59.7334 2.28992e-07 59.5854 0 59.5854 0V0.0399801C57.5129 0.199901 52.026 1.05947 48.3943 5.6272C43.8449 11.3544 46.1739 20.2599 46.1739 20.2599C46.1739 20.2599 44.8614 20.05 44.5554 21.4893C44.2495 22.9186 44.6541 24.7677 45.9666 27.5263C47.2792 30.2949 47.3778 31.7242 48.8976 30.9046C48.8976 30.9046 48.8976 33.9731 50.3088 37.0416C51.7201 40.1101 51.6214 43.8982 51.6214 45.3275C51.6214 46.7568 49.2924 47.3764 45.7594 49.4154C42.2264 51.4644 38.4862 52.284 36.5618 53.7133C34.6374 55.1426 27.2656 55.2425 23.8313 61.3895C20.397 67.5264 18.1766 73.9732 19.2818 79.8103C20.397 85.6474 20.0911 85.4375 19.3805 88.3061C18.67 91.1747 18.4726 96.7019 18.9759 102.219C19.4792 107.746 17.9693 112.554 16.4495 116.952C14.9298 121.35 13.2126 131.485 13.1139 140.28C13.0153 149.086 11.9988 157.272 10.6863 159.931C9.37373 162.589 4.62692 164.228 3.51176 167.707C2.3966 171.185 1.08407 173.234 0.17616 174.053C-0.731755 174.873 2.10054 176.412 3.41307 174.053C4.7256 171.705 5.63352 170.475 6.44274 170.885C7.25197 171.295 6.13682 175.593 5.13022 180.1C4.12361 184.598 3.10714 187.567 4.92297 187.567C6.7388 187.567 7.95265 180.71 8.45595 179.281C8.95925 177.852 8.86056 182.759 7.54803 186.237C6.2355 189.716 6.54143 190.845 7.54803 191.045C8.55463 191.245 9.5711 188.176 9.5711 188.176C9.5711 188.176 11.5448 189.746 13.6271 184.298C13.6271 184.298 15.7193 185.808 17.6535 179.611C19.5976 173.414 21.0878 165.248 20.3378 161.47C19.5878 157.692 28.8446 141.21 29.8906 127.147C30.9367 113.084 32.8808 102.199 33.621 101.44C34.371 100.68 38.6935 114.743 36.9072 122.159C35.1111 129.566 34.9631 133.194 34.8151 134.563C34.667 135.922 32.2788 141.52 31.5288 147.717C30.7788 153.913 28.0945 160.57 30.4827 182.04C32.871 203.509 36.7493 210.615 37.2033 215.003C37.6474 219.391 37.6474 230.885 37.4993 233.154C37.3513 235.423 36.6013 238.601 36.4533 241.02C36.3052 243.439 32.7229 251.905 36.7493 268.696C40.7757 285.478 41.6738 295.153 41.6738 296.972C41.6738 298.781 40.7757 299.091 41.6738 301.51C42.5718 303.929 39.2856 309.046 36.848 311.115C34.4105 313.184 33.4828 314.793 33.1473 315.863C32.8216 316.932 32.9499 318.072 33.8085 318.072C33.8085 318.072 33.4137 318.941 34.0749 319.881C34.7361 320.82 35.5256 320.481 35.5256 320.481C35.5256 320.481 35.4565 321.55 36.5125 321.82C37.5684 322.09 38.0323 321.75 38.0323 321.75C38.0323 321.75 38.6244 322.949 39.8185 322.889C41.0027 322.82 41.2692 321.89 41.3975 321.22C41.5257 320.551 41.9304 319.151 42.5817 319.081C43.2429 319.011 43.6376 319.611 43.3712 320.221C43.1047 320.821 42.9764 321.22 42.5817 322.16C42.187 323.099 43.1146 324.369 45.6212 323.899C48.1279 323.429 47.0719 321.02 48.5917 319.351C50.1115 317.682 50.7727 316.343 50.7036 313.934C50.6345 311.525 53.2793 311.995 52.8846 307.787C52.4898 303.579 51.6312 302.37 52.4207 300.101C53.2102 297.832 51.8878 295.153 51.7595 294.084C51.6312 293.014 51.8187 282.919 52.2727 280.051C52.7168 277.182 54.3648 267.347 54.0589 263.419C53.7629 259.491 56.003 256.462 53.7629 246.637C51.5227 236.812 55.105 238.022 54.957 227.887C54.8089 217.752 57.4932 214.433 56.9011 205.058C56.2991 195.683 58.0952 190.545 58.3913 185.398C58.5985 181.79 59.2498 180.49 59.6248 180.041C60.1281 180.46 60.8781 181.64 61.0755 184.948C61.3716 190.096 62.7137 195.683 62.1216 205.058C61.5196 214.433 63.3157 217.762 63.1677 227.887C63.0196 238.022 66.602 236.812 64.3618 246.637C62.1216 256.462 63.4637 259.491 63.1677 263.419C62.8716 267.347 65.4079 277.182 65.8519 280.051C66.296 282.919 66.4934 293.014 66.3651 294.084C66.2368 295.153 64.9144 297.822 65.7039 300.101C66.4934 302.37 65.6348 303.579 65.2401 307.787C64.8453 311.995 67.4803 311.535 67.4211 313.934C67.352 316.343 68.0132 317.672 69.5329 319.351C71.0527 321.02 69.9968 323.429 72.5034 323.899C75.01 324.369 75.9377 323.099 75.5429 322.16C75.1482 321.22 75.01 320.821 74.7534 320.221C74.487 319.621 74.8817 319.021 75.5429 319.081C76.2041 319.151 76.5989 320.551 76.7272 321.22C76.8555 321.89 77.1219 322.82 78.316 322.889C79.5003 322.959 80.0924 321.75 80.0924 321.75C80.0924 321.75 80.5562 322.09 81.6122 321.82C82.6681 321.55 82.599 320.481 82.599 320.481C82.599 320.481 83.3885 320.82 84.0497 319.881C84.7109 318.941 84.3162 318.072 84.3162 318.072C85.1747 318.072 85.303 316.932 84.9774 315.863C84.6418 314.793 83.724 313.184 81.2865 311.115C78.8391 309.046 75.5627 303.929 76.4607 301.51C77.3588 299.091 76.4607 298.791 76.4607 296.972C76.4607 295.153 77.3588 285.478 81.3852 268.696C85.4116 251.915 82.7273 243.449 82.5793 241.02C82.4313 238.601 81.6812 235.423 81.5332 233.154C81.3852 230.885 82.2734 219.391 82.7273 215.003C83.1714 210.615 87.0596 203.509 89.4479 182.04C91.8361 160.57 87.3557 153.913 86.6057 147.717C85.8557 141.52 85.2635 135.922 85.1155 134.563C84.9675 133.204 84.8195 129.576 83.0234 122.159C81.2273 114.753 85.5596 100.69 86.3096 101.44C87.0596 102.199 88.9939 113.084 90.04 127.147C91.086 141.21 100.343 157.692 99.5928 161.47C98.8428 165.248 100.343 173.414 102.277 179.611C104.221 185.808 106.303 184.298 106.303 184.298C108.396 189.746 110.369 188.176 110.369 188.176C110.369 188.176 111.376 191.245 112.392 191.045C113.399 190.845 113.705 189.716 112.392 186.237C111.08 182.759 110.981 177.842 111.485 179.281C111.988 180.71 113.202 187.567 115.017 187.567C116.833 187.567 115.827 184.598 114.81 180.1C113.804 175.593 112.688 171.295 113.498 170.885C114.307 170.475 115.215 171.705 116.527 174.053C117.909 176.432 120.731 174.893 119.824 174.073Z" fill="#FCD4C5"/>
</svg>
