<svg width="120" height="324" viewBox="0 0 120 324" fill="none" xmlns="http://www.w3.org/2000/svg">
<path fill-rule="evenodd" clip-rule="evenodd" d="M59.9864 149C65.1594 149 67.3004 152.837 68.3083 153.505C68.4746 153.907 68.6403 154.31 68.8048 154.713C67.9894 154.469 67.3598 154.397 67.0047 154.573C66.716 155.222 66.4577 155.824 66.3133 156.518C65.4741 160.544 63.8824 160.783 63.6235 162.807C63.4709 164.003 64.0196 165.157 64.2899 166.867C64.5316 168.401 63.8563 169.323 63.5986 170.498C63.3705 171.537 63.8723 172.716 62.3614 178.279C62.6602 178.719 62.675 179.301 62.4868 179.788L62.1797 180.271C61.3969 179.168 58.6893 179.243 57.8821 180.236L57.4854 179.788C57.2971 179.301 57.3126 178.719 57.6107 178.279C56.0998 172.716 56.6017 171.537 56.3736 170.498C56.1158 169.323 55.4405 168.401 55.6823 166.867C55.9525 165.157 56.5019 164.003 56.3487 162.807C56.0897 160.783 54.4986 160.544 53.6588 156.518C53.5145 155.824 53.2561 155.222 52.9681 154.573C52.6123 154.397 51.9828 154.469 51.1667 154.713C51.333 154.31 51.4981 153.907 51.6644 153.505C52.6717 152.837 54.8128 149 59.9864 149V149.06V149Z" fill="#9D3331"/>
<path fill-rule="evenodd" clip-rule="evenodd" d="M59.9863 149.4C64.6123 149.4 66.5265 153.317 67.4281 154H52.5446C53.4455 153.317 55.3597 149.4 59.9863 149.4V149.462V149.4Z" fill="url(#paint0_linear_4047_260436)"/>
<path fill-rule="evenodd" clip-rule="evenodd" d="M40.0647 158.032C40.1372 158.088 40.1888 158.224 40.285 158.224C40.566 158.224 40.5523 158.01 40.7192 157.928C40.9294 157.823 40.8433 158.204 40.8053 158.282C40.7352 158.43 40.6693 158.603 40.6972 158.774C40.7174 158.892 40.8986 158.918 41.0007 158.918C41.4159 158.918 40.9514 157.913 41.189 157.913C41.4462 157.947 41.5857 158.361 41.6647 158.579C41.7134 158.711 41.8845 158.913 41.9973 158.731C42.1559 158.476 41.7449 158.276 41.7449 158.036C41.7449 157.832 42.1185 157.74 42.1642 157.921C42.2568 158.095 42.2075 158.222 42.3875 158.304C42.5277 158.367 42.5283 158.098 42.5182 158.029C42.4772 157.781 42.1986 157.717 42.1131 157.545C42.0163 157.35 42.438 157.364 42.438 157.479C42.571 157.587 42.6025 157.627 42.6625 157.762C42.7159 157.883 42.8769 158.213 42.9802 157.913C43.0515 157.706 42.9375 157.539 42.8359 157.385C42.7047 157.189 42.3952 157.086 42.3952 156.829C42.3952 156.718 42.4701 156.659 42.5758 156.655C42.6476 156.652 42.7011 156.617 42.7629 156.67L42.8935 156.8C43.0479 157.04 43.2107 157.859 43.4565 157.928C43.6893 157.993 43.6632 157.574 43.5147 157.465C43.2522 157.273 43.551 157.182 43.5724 157.248C43.6745 157.322 43.6953 157.378 43.8176 157.378C43.9531 157.378 43.9139 157.081 43.8681 157.017L43.7963 156.843L43.7167 156.706C43.5961 156.449 43.6608 156.232 43.934 156.163C44.2916 155.879 44.4335 155.514 44.1431 155.136C44.0754 155.048 43.6383 154.747 43.5231 154.818C42.9303 154.447 41.7087 154.504 41.2608 155.064C40.879 155.543 40.6836 156.119 40.5024 156.663C40.1948 156.882 40.3688 157.207 40.2779 157.494C40.2381 157.623 40.1924 157.991 40.0647 158.032Z" fill="#620B0B"/>
<path fill-rule="evenodd" clip-rule="evenodd" d="M79.9348 158.032C79.8629 158.088 79.8107 158.224 79.7145 158.224C79.4341 158.224 79.4466 158.01 79.2809 157.928C79.0695 157.823 79.158 158.204 79.1948 158.282C79.2643 158.43 79.3308 158.603 79.3029 158.774C79.2833 158.892 79.101 158.918 78.9988 158.918C78.5837 158.918 79.0487 157.913 78.8123 157.913C78.5534 157.947 78.4144 158.361 78.3342 158.579C78.2867 158.711 78.115 158.913 78.0022 158.731C77.8448 158.476 78.2552 158.276 78.2552 158.036C78.2552 157.832 77.8816 157.74 77.8365 157.921C77.7427 158.095 77.7925 158.222 77.6126 158.304C77.4724 158.367 77.4712 158.098 77.4819 158.029C77.5235 157.781 77.802 157.717 77.8864 157.545C77.9838 157.35 77.5615 157.364 77.5615 157.479C77.4297 157.587 77.3982 157.627 77.3376 157.762C77.2836 157.883 77.1232 158.213 77.0199 157.913C76.9492 157.706 77.062 157.539 77.1648 157.385C77.2948 157.189 77.6061 157.086 77.6061 156.829C77.6061 156.718 77.5306 156.659 77.4249 156.655C77.3531 156.652 77.2996 156.617 77.2366 156.67L77.1072 156.8C76.9528 157.04 76.79 157.859 76.543 157.928C76.3113 157.993 76.3369 157.574 76.4853 157.465C76.7472 157.273 76.4491 157.182 76.4271 157.248C76.3262 157.322 76.3042 157.378 76.1824 157.378C76.0476 157.378 76.0874 157.081 76.1314 157.017L76.2044 156.843L76.2834 156.706C76.404 156.449 76.3392 156.232 76.0666 156.163C75.7091 155.879 75.5666 155.514 75.8576 155.136C75.9247 155.048 76.3624 154.747 76.477 154.818C77.0697 154.447 78.2914 154.504 78.7393 155.064C79.1217 155.543 79.3165 156.119 79.4977 156.663C79.8053 156.882 79.6325 157.207 79.7216 157.494C79.762 157.623 79.8077 157.991 79.9348 158.032Z" fill="#620B0B"/>
<path fill-rule="evenodd" clip-rule="evenodd" d="M51.6644 153.505C49.0049 155.058 48.2571 152.733 46.947 151.777C46.0757 151.142 44.8605 150.301 43.1073 150.291C41.6855 150.282 40.8843 149.235 38.9956 149.878C37.6385 150.339 38.0204 152.903 38.1469 153.508C38.4629 155.025 39.1358 155.324 39.8705 156.061C40.5636 156.755 40.1864 157.177 40.0647 158.032C40.3919 158.455 40.2559 157.182 40.5475 157.182C40.6034 157.182 40.6574 157.307 40.6865 157.336C41.0061 157.656 41.1801 157.087 41.0892 156.849C41.0648 156.783 40.9924 156.69 40.9924 156.612C40.9924 156.501 41.1129 156.515 41.2145 156.515C41.3089 156.69 41.3 156.751 41.3125 156.947C41.3476 157.552 42.0056 156.891 41.6041 156.64C41.5162 156.586 41.2982 156.343 41.2982 156.195C41.2982 155.875 41.575 155.942 41.6451 156.153C41.7187 156.328 41.7413 156.403 41.8399 156.501C42.065 156.725 42.2414 156.466 42.1178 156.181C42.0394 156 41.638 155.889 41.7562 155.666C41.9735 155.258 42.2087 155.956 42.2152 155.958C42.4362 156.47 42.9666 155.951 42.549 155.694C42.3916 155.598 41.9332 155.22 42.2432 155.026C42.4421 154.901 42.7165 155.435 42.7854 155.499C43.1525 155.848 43.39 155.334 43.216 155.277C43.061 155.158 42.8751 155.089 42.729 154.97C42.5098 154.791 42.9185 154.751 43.0634 154.859C43.5177 155.458 43.6763 154.85 43.4845 154.796C42.1345 154.426 42.4225 153.835 41.8001 153.446C41.2917 153.129 40.5927 153.147 40.25 152.738C39.4868 151.829 40.3563 150.893 41.4331 151.277C41.809 151.411 42.334 151.634 42.6827 151.724C43.5706 151.955 44.1954 151.756 45.0156 151.997C45.5768 152.161 46.2729 152.605 46.8009 153.043C47.5825 153.69 47.5842 154.355 48.9401 154.892C49.8334 155.246 51.3877 154.654 52.0285 154.405C52.0136 154.342 51.9709 154.119 51.9317 154.04L51.9068 154.016C51.8652 153.965 51.8473 153.854 51.785 153.773C51.7511 153.728 51.6823 153.626 51.6644 153.505Z" fill="#9D3331"/>
<path fill-rule="evenodd" clip-rule="evenodd" d="M68.3362 153.505C70.9952 155.058 71.7429 152.733 73.0537 151.777C73.9238 151.142 75.1395 150.301 76.8921 150.291C78.3146 150.282 79.1157 149.235 81.0044 149.878C82.3603 150.339 81.9802 152.903 81.8537 153.508C81.5383 155.025 80.8642 155.324 80.1302 156.061C79.4365 156.755 79.813 157.177 79.9348 158.032C79.6081 158.455 79.7435 157.182 79.4525 157.182C79.3967 157.182 79.342 157.307 79.3141 157.336C78.994 157.656 78.8188 157.087 78.9108 156.849C78.9364 156.783 79.0082 156.69 79.0082 156.612C79.0082 156.501 78.8865 156.515 78.7855 156.515C78.6917 156.69 78.6994 156.751 78.6881 156.947C78.6519 157.552 77.9944 156.891 78.3971 156.64C78.4838 156.586 78.7018 156.343 78.7018 156.195C78.7018 155.875 78.4244 155.942 78.3537 156.153C78.2807 156.328 78.2587 156.403 78.1601 156.501C77.9339 156.725 77.7575 156.466 77.8816 156.181C77.9606 156 78.3621 155.889 78.2439 155.666C78.0271 155.258 77.7913 155.956 77.7842 155.958C77.5639 156.47 77.0341 155.951 77.4516 155.694C77.6078 155.598 78.0663 155.22 77.7563 155.026C77.5579 154.901 77.2835 155.435 77.2146 155.499C76.847 155.848 76.6106 155.334 76.7834 155.277C76.9385 155.158 77.1244 155.089 77.2705 154.97C77.4908 154.791 77.0828 154.751 76.9367 154.859C76.4817 155.458 76.3226 154.85 76.5168 154.796C77.8656 154.426 77.5781 153.835 78.2005 153.446C78.7077 153.129 79.4074 153.147 79.7506 152.738C80.5126 151.829 79.6437 150.893 78.5664 151.277C78.1904 151.411 77.666 151.634 77.3168 151.724C76.4295 151.955 75.8041 151.756 74.9839 151.997C74.4238 152.161 73.7277 152.605 73.1992 153.043C72.417 153.69 72.4158 154.355 71.0599 154.892C70.1654 155.246 68.6112 154.654 67.9709 154.405C67.9858 154.342 68.0292 154.119 68.0695 154.04L68.0927 154.016C68.1354 153.965 68.1533 153.854 68.2145 153.773C68.2495 153.728 68.3178 153.626 68.3362 153.505Z" fill="#9D3331"/>
<path fill-rule="evenodd" clip-rule="evenodd" d="M42.6678 154.888C42.4035 154.787 42.2004 154.637 42.0251 154.492L40.864 153.526C39.1957 152.139 38.3298 149.518 41.8844 150.804C42.5632 151.049 43.3543 151.319 44.3295 151.363C44.845 151.387 46.043 151.973 46.451 152.297C47.8912 153.444 48.2678 155.073 50.4676 154.549C51.0782 154.403 52.4281 154.181 52.4513 154.016C52.519 153.532 50.1505 155.237 47.5966 152.92C44.7643 150.352 44.3343 151.108 42.5614 150.645C41.6741 150.423 40.7583 150.044 40.0373 150.06C38.5608 150.092 37.7638 151.105 38.7384 153.777C39.1821 154.994 40.4002 155.272 40.8997 156.71C40.9585 156.881 41.0268 157.018 41.101 157.128C41.1206 157.027 41.1176 156.922 41.0891 156.849C41.0648 156.783 40.9923 156.69 40.9923 156.612C40.9923 156.501 41.1129 156.515 41.2144 156.515C41.3089 156.69 41.3 156.751 41.3125 156.947C41.3475 157.552 42.0055 156.891 41.604 156.64C41.5161 156.586 41.2982 156.343 41.2982 156.195C41.2982 155.875 41.5749 155.942 41.645 156.153C41.7187 156.328 41.7412 156.403 41.8398 156.501C42.0649 156.725 42.2413 156.466 42.1178 156.181C42.0394 156 41.6379 155.889 41.7561 155.666C41.9735 155.258 42.2086 155.956 42.2152 155.958C42.4361 156.47 42.9665 155.951 42.549 155.694C42.3916 155.598 41.9331 155.22 42.2431 155.026C42.4421 154.901 42.7165 155.435 42.7853 155.499C43.1524 155.848 43.39 155.334 43.2159 155.277C43.0609 155.158 42.875 155.089 42.7289 154.97L42.6678 154.888Z" fill="url(#paint1_linear_4047_260436)"/>
<path fill-rule="evenodd" clip-rule="evenodd" d="M77.3334 154.888C77.5965 154.787 77.8008 154.637 77.9748 154.492L79.1359 153.526C80.8036 152.139 81.6702 149.518 78.115 150.804C77.4373 151.049 76.6451 151.319 75.671 151.363C75.1549 151.387 73.9564 151.973 73.549 152.297C72.1099 153.444 71.7316 155.073 69.5324 154.549C68.9218 154.403 67.5718 154.181 67.5487 154.016C67.4804 153.532 69.8489 155.237 72.4033 152.92C75.2345 150.352 75.6651 151.108 77.4374 150.645C78.3259 150.423 79.2411 150.044 79.9615 150.06C81.4386 150.092 82.2362 151.105 81.2622 153.777C80.8179 154.994 79.5998 155.272 79.1009 156.71C79.0409 156.881 78.9732 157.018 78.8978 157.128C78.8794 157.027 78.8829 156.922 78.9108 156.849C78.9364 156.783 79.0082 156.69 79.0082 156.612C79.0082 156.501 78.8865 156.515 78.7855 156.515C78.6917 156.69 78.6994 156.751 78.6881 156.947C78.6519 157.552 77.9944 156.891 78.3971 156.64C78.4838 156.586 78.7018 156.343 78.7018 156.195C78.7018 155.875 78.4244 155.942 78.3538 156.153C78.2807 156.328 78.2587 156.403 78.1601 156.501C77.9339 156.725 77.7575 156.466 77.8816 156.181C77.9606 156 78.3621 155.889 78.2439 155.666C78.0271 155.258 77.7913 155.956 77.7842 155.958C77.5639 156.47 77.0341 155.951 77.4516 155.694C77.6078 155.598 78.0663 155.22 77.7563 155.026C77.5579 154.901 77.2835 155.435 77.2146 155.499C76.847 155.848 76.6106 155.334 76.7834 155.277C76.9385 155.158 77.1244 155.089 77.2705 154.97L77.3334 154.888Z" fill="url(#paint2_linear_4047_260436)"/>
<path fill-rule="evenodd" clip-rule="evenodd" d="M59.9863 150.649C64.4532 150.649 67.1436 153.522 68.5138 154.003C68.6563 154.384 68.4763 154.279 68.6195 154.659C67.9151 154.43 67.0242 154.165 66.7178 154.332C66.4695 154.946 65.5739 157.108 65.4485 157.766C64.3629 161.093 62.6601 160.88 63.1264 163.717C62.9951 164.848 63.7114 165.921 63.7019 167.559C63.6941 168.819 63.3277 169.883 63.1056 170.996C62.9084 171.979 63.3413 173.095 62.0371 178.36C62.2949 178.776 62.2949 179.751 62.1327 180.212C61.6855 179.91 60.9782 179.753 59.9905 179.728L59.9899 179.565L59.9905 179.728C59.0016 179.753 58.3287 179.935 57.8821 180.236C57.7199 179.775 57.6772 178.776 57.935 178.36C56.6307 173.095 57.0637 171.979 56.8665 170.996C56.6444 169.883 56.313 168.958 56.2702 167.559C56.2197 165.921 56.9776 164.848 56.8457 163.717C57.423 161.378 56.4169 160.955 54.5229 157.766C54.3982 157.108 53.7627 155.017 53.5144 154.403C53.2068 154.237 51.7951 154.325 51.0901 154.555C51.2338 154.174 51.1697 154.363 51.3128 153.982C52.8202 153.701 55.5195 150.649 59.9863 150.649V151.369V150.649Z" fill="url(#paint3_linear_4047_260436)"/>
<path fill-rule="evenodd" clip-rule="evenodd" d="M59.7268 154.319C61.9932 154.319 64.313 154.376 65.9956 154.151C66.0817 154.05 66.1411 153.946 66.1761 153.84C64.4389 154.028 62.0829 153.805 59.7494 153.805C57.4135 153.805 55.4732 154.044 53.8031 153.882C53.8524 154.007 53.9362 154.13 54.0585 154.246C55.6223 154.414 57.4604 154.319 59.7268 154.319Z" fill="url(#paint4_linear_4047_260436)"/>
<path fill-rule="evenodd" clip-rule="evenodd" d="M59.8855 155.268C61.979 155.26 64.1225 155.304 65.6773 155.089C65.7082 154.996 65.7153 154.901 65.6999 154.803C64.0494 154.977 61.827 154.773 59.6247 154.773C57.47 154.783 55.6812 155.012 54.1423 154.872C54.2332 154.986 54.3573 155.098 54.5153 155.204C56.0054 155.358 57.7474 155.269 59.8855 155.268Z" fill="url(#paint5_linear_4047_260436)"/>
<path fill-rule="evenodd" clip-rule="evenodd" d="M60.0451 156.217C61.9658 156.201 63.9317 156.233 65.3577 156.026C65.3345 155.942 65.2899 155.856 65.2234 155.766C63.6591 155.926 61.5709 155.74 59.4999 155.741C57.5257 155.76 55.8889 155.98 54.4807 155.861C54.6137 155.965 54.7777 156.066 54.9725 156.162C56.3878 156.302 58.0347 156.219 60.0451 156.217Z" fill="url(#paint6_linear_4047_260436)"/>
<path fill-rule="evenodd" clip-rule="evenodd" d="M60.2032 157.166C61.9529 157.143 63.7411 157.162 65.0388 156.964C64.9616 156.888 64.8648 156.81 64.7484 156.73C63.269 156.876 61.3144 156.707 59.3753 156.708C57.5823 156.738 56.0963 156.949 54.8199 156.852C54.9952 156.944 55.1983 157.034 55.4293 157.121C56.771 157.246 58.3217 157.169 60.2032 157.166Z" fill="url(#paint7_linear_4047_260436)"/>
<path fill-rule="evenodd" clip-rule="evenodd" d="M60.3617 158.114C61.9392 158.083 63.5511 158.091 64.7193 157.902C64.588 157.835 64.4383 157.764 64.272 157.693C62.8787 157.825 61.0578 157.674 59.2511 157.677C57.6392 157.715 56.3041 157.918 55.1584 157.841C55.3764 157.922 55.6187 158.003 55.8872 158.079C57.1534 158.19 58.6103 158.119 60.3617 158.114Z" fill="url(#paint8_linear_4047_260436)"/>
<path fill-rule="evenodd" clip-rule="evenodd" d="M60.5209 159.063C61.9255 159.024 63.3604 159.019 64.3997 158.84C64.215 158.781 64.0125 158.719 63.7963 158.656C62.4903 158.775 60.8018 158.642 59.1264 158.644C57.695 158.692 56.5108 158.886 55.4969 158.831C55.7577 158.902 56.0386 158.971 56.3433 159.036C57.5365 159.134 58.8971 159.069 60.5209 159.063Z" fill="url(#paint9_linear_4047_260436)"/>
<path fill-rule="evenodd" clip-rule="evenodd" d="M60.6806 160.012C61.9124 159.966 63.1697 159.948 64.0814 159.777C63.8408 159.727 63.5872 159.674 63.3206 159.62C62.1001 159.724 60.5452 159.608 59.0022 159.612C57.7514 159.669 56.7186 159.854 55.8367 159.821C56.1384 159.881 56.4597 159.939 56.8012 159.995C57.9189 160.078 59.184 160.019 60.6806 160.012Z" fill="url(#paint10_linear_4047_260436)"/>
<path fill-rule="evenodd" clip-rule="evenodd" d="M60.8392 160.961C61.8987 160.907 62.9791 160.877 63.7612 160.716C63.4678 160.674 63.1626 160.629 62.8448 160.583C61.7098 160.674 60.2892 160.576 58.8781 160.579C57.8078 160.647 56.9265 160.823 56.1752 160.811C56.519 160.86 56.8801 160.908 57.2579 160.953C58.3014 161.022 59.4714 160.969 60.8392 160.961Z" fill="url(#paint11_linear_4047_260436)"/>
<path fill-rule="evenodd" clip-rule="evenodd" d="M60.9983 161.91C61.885 161.848 62.789 161.805 63.4423 161.653C63.0943 161.619 62.7361 161.583 62.3685 161.547C61.3196 161.623 60.0326 161.542 58.7533 161.547C57.8648 161.624 57.1337 161.791 56.5137 161.801C56.9009 161.839 57.3006 161.875 57.7152 161.911C58.6844 161.966 59.7582 161.919 60.9983 161.91Z" fill="url(#paint12_linear_4047_260436)"/>
<path fill-rule="evenodd" clip-rule="evenodd" d="M61.1569 162.858C61.872 162.789 62.5983 162.734 63.1233 162.591C62.7213 162.566 62.3109 162.538 61.8928 162.51C60.93 162.573 59.776 162.51 58.6292 162.515C57.9207 162.601 57.3416 162.759 56.8528 162.79C57.2816 162.817 57.7211 162.844 58.1719 162.869C59.0669 162.91 60.0469 162.869 61.1569 162.858Z" fill="url(#paint13_linear_4047_260436)"/>
<path fill-rule="evenodd" clip-rule="evenodd" d="M61.3155 163.807C61.859 163.73 62.4077 163.663 62.8045 163.53C62.3478 163.511 61.8851 163.493 61.4165 163.474C60.5399 163.522 59.5202 163.477 58.5052 163.482C57.9778 163.578 57.5489 163.728 57.1914 163.78C57.6624 163.796 58.1417 163.812 58.6293 163.827C59.4501 163.853 60.3338 163.819 61.3155 163.807Z" fill="url(#paint14_linear_4047_260436)"/>
<path fill-rule="evenodd" clip-rule="evenodd" d="M61.4747 164.757C61.8459 164.671 62.2171 164.591 62.485 164.467C61.9748 164.458 61.4593 164.447 60.9408 164.438C60.1497 164.471 59.2636 164.444 58.3804 164.45C58.0336 164.556 57.7568 164.696 57.5311 164.77C58.0437 164.776 58.5628 164.781 59.086 164.785C59.832 164.798 60.6201 164.77 61.4747 164.757Z" fill="url(#paint15_linear_4047_260436)"/>
<path fill-rule="evenodd" clip-rule="evenodd" d="M61.6339 165.705C61.8316 165.612 62.027 165.52 62.166 165.404C61.6012 165.404 61.034 165.402 60.465 165.4C59.7595 165.422 59.0076 165.411 58.2563 165.417C58.0906 165.533 57.9647 165.665 57.8696 165.759C58.4249 165.754 58.9832 165.749 59.5433 165.743C60.2156 165.741 60.9081 165.719 61.6339 165.705Z" fill="url(#paint16_linear_4047_260436)"/>
<path fill-rule="evenodd" clip-rule="evenodd" d="M61.793 166.654C61.8185 166.553 61.8357 166.449 61.8464 166.343L58.1321 166.385C58.1463 166.51 58.1719 166.633 58.2087 166.749L61.793 166.654Z" fill="url(#paint17_linear_4047_260436)"/>
<path fill-rule="evenodd" clip-rule="evenodd" d="M59.8176 179.119C60.6295 179.119 61.3701 179.256 61.929 179.481C61.9569 179.582 61.9771 179.686 61.9884 179.792C61.4123 179.605 60.6734 179.493 59.8681 179.493C59.1245 179.493 58.4391 179.588 57.885 179.751C57.9016 179.625 57.9295 179.503 57.9699 179.386C58.489 179.218 59.1275 179.119 59.8176 179.119Z" fill="url(#paint18_linear_4047_260436)"/>
<path fill-rule="evenodd" clip-rule="evenodd" d="M59.8147 178.265C60.6723 178.265 61.4545 178.402 62.0437 178.628C62.0734 178.728 62.0948 178.832 62.1066 178.939C61.4991 178.751 60.7187 178.638 59.8682 178.638C59.0836 178.638 58.3596 178.734 57.774 178.896C57.7919 178.771 57.8215 178.648 57.8637 178.532C58.4119 178.364 59.0854 178.265 59.8147 178.265Z" fill="url(#paint19_linear_4047_260436)"/>
<path fill-rule="evenodd" clip-rule="evenodd" d="M59.8118 177.41C60.7157 177.41 61.5383 177.548 62.1589 177.773C62.1904 177.874 62.2118 177.978 62.2254 178.084C61.5846 177.897 60.7638 177.785 59.8682 177.785C59.0415 177.785 58.2795 177.88 57.6636 178.041C57.682 177.917 57.7129 177.794 57.758 177.678C58.3341 177.51 59.0439 177.41 59.8118 177.41Z" fill="url(#paint20_linear_4047_260436)"/>
<path fill-rule="evenodd" clip-rule="evenodd" d="M59.8088 176.556C60.7578 176.556 61.622 176.693 62.2741 176.919C62.3068 177.02 62.3299 177.124 62.343 177.229C61.6707 177.042 60.8089 176.93 59.8681 176.93C59.0004 176.93 58.1992 177.026 57.5519 177.188C57.5721 177.062 57.6047 176.94 57.6511 176.824C58.2569 176.655 59.0028 176.556 59.8088 176.556Z" fill="url(#paint21_linear_4047_260436)"/>
<path fill-rule="evenodd" clip-rule="evenodd" d="M59.8057 175.702C60.7999 175.702 61.7056 175.84 62.3886 176.065C62.4237 176.165 62.448 176.27 62.4617 176.375C61.7567 176.188 60.8528 176.076 59.8675 176.076C58.9594 176.076 58.1196 176.172 57.4419 176.333C57.4621 176.208 57.4965 176.085 57.5452 175.969C58.1801 175.802 58.9606 175.702 59.8057 175.702Z" fill="url(#paint22_linear_4047_260436)"/>
<path fill-rule="evenodd" clip-rule="evenodd" d="M59.8028 174.848C60.8421 174.848 61.7894 174.986 62.5039 175.211C62.5401 175.311 62.5657 175.416 62.5793 175.521C61.8429 175.334 60.898 175.222 59.8675 175.222C58.9173 175.222 58.04 175.317 57.3303 175.479C57.3517 175.354 57.388 175.231 57.4396 175.115C58.103 174.947 58.9196 174.848 59.8028 174.848Z" fill="url(#paint23_linear_4047_260436)"/>
<path fill-rule="evenodd" clip-rule="evenodd" d="M59.8004 173.994C60.8849 173.994 61.8738 174.131 62.6186 174.356C62.6566 174.457 62.6827 174.561 62.6981 174.667C61.9296 174.48 60.9431 174.367 59.8676 174.367C58.8757 174.367 57.9605 174.463 57.2205 174.625C57.2424 174.5 57.2793 174.377 57.3333 174.261C58.0258 174.093 58.8781 173.994 59.8004 173.994Z" fill="url(#paint24_linear_4047_260436)"/>
<path fill-rule="evenodd" clip-rule="evenodd" d="M59.7974 173.139C60.9276 173.139 61.9569 173.277 62.7337 173.502C62.7729 173.603 62.8008 173.707 62.8169 173.813C62.0157 173.626 60.9888 173.513 59.8675 173.513C58.8341 173.513 57.8797 173.609 57.1094 173.77C57.1319 173.646 57.1717 173.523 57.2275 173.407C57.9486 173.239 58.8365 173.139 59.7974 173.139Z" fill="url(#paint25_linear_4047_260436)"/>
<path fill-rule="evenodd" clip-rule="evenodd" d="M59.7945 172.285C60.9692 172.285 62.0412 172.423 62.849 172.649C62.8899 172.748 62.9185 172.853 62.9351 172.959C62.1018 172.772 61.0328 172.659 59.8675 172.659C58.7919 172.659 57.7995 172.755 56.9989 172.916C57.0227 172.791 57.0625 172.669 57.1213 172.552C57.8714 172.384 58.7949 172.285 59.7945 172.285Z" fill="url(#paint26_linear_4047_260436)"/>
<path fill-rule="evenodd" clip-rule="evenodd" d="M59.7916 171.431C61.0127 171.431 62.1251 171.568 62.9637 171.793C63.0058 171.894 63.0361 171.998 63.0528 172.104C62.1874 171.917 61.078 171.805 59.867 171.805C58.751 171.805 57.7206 171.9 56.8879 172.062C56.9123 171.937 56.9545 171.815 57.0156 171.698C57.7948 171.53 58.7534 171.431 59.7916 171.431Z" fill="url(#paint27_linear_4047_260436)"/>
<path fill-rule="evenodd" clip-rule="evenodd" d="M59.7886 170.577C61.0554 170.577 62.2082 170.714 63.0783 170.94C63.1223 171.04 63.1537 171.144 63.1716 171.25C62.2742 171.063 61.1225 170.95 59.867 170.95C58.7089 170.95 57.6404 171.046 56.7775 171.208C56.803 171.083 56.8464 170.96 56.9087 170.844C57.7176 170.676 58.7125 170.577 59.7886 170.577Z" fill="url(#paint28_linear_4047_260436)"/>
<path fill-rule="evenodd" clip-rule="evenodd" d="M59.7855 169.723C61.0969 169.723 62.293 169.86 63.1934 170.085C63.2397 170.186 63.2706 170.29 63.2896 170.396C62.3595 170.209 61.1675 170.096 59.8668 170.096C58.6671 170.096 57.5607 170.192 56.6663 170.354C56.6924 170.228 56.7375 170.106 56.8028 169.99C57.6403 169.822 58.6701 169.723 59.7855 169.723Z" fill="url(#paint29_linear_4047_260436)"/>
<path fill-rule="evenodd" clip-rule="evenodd" d="M59.7827 168.868C61.1397 168.868 62.3763 169.005 63.3087 169.231C63.3562 169.332 63.3895 169.436 63.4079 169.542C62.4464 169.354 61.2128 169.242 59.867 169.242C58.6263 169.242 57.4806 169.338 56.5559 169.5C56.5826 169.374 56.6296 169.252 56.6973 169.136C57.5632 168.967 58.6293 168.868 59.7827 168.868Z" fill="url(#paint30_linear_4047_260436)"/>
<path fill-rule="evenodd" clip-rule="evenodd" d="M59.7796 168.014C61.1819 168.014 62.46 168.151 63.4233 168.377C63.472 168.477 63.507 168.582 63.5266 168.688C62.5324 168.5 61.2573 168.388 59.8669 168.388C58.5847 168.388 57.4004 168.483 56.4448 168.645C56.4727 168.52 56.5208 168.397 56.5909 168.282C57.4865 168.113 58.5877 168.014 59.7796 168.014Z" fill="url(#paint31_linear_4047_260436)"/>
<path fill-rule="evenodd" clip-rule="evenodd" d="M59.7767 167.16C61.224 167.16 62.5443 167.297 63.5379 167.522C63.5884 167.623 63.6241 167.727 63.6443 167.834C62.6186 167.647 61.3024 167.534 59.867 167.534C58.5431 167.534 57.3214 167.629 56.3344 167.791C56.3629 167.666 56.4127 167.543 56.4852 167.427C57.4093 167.259 58.5461 167.16 59.7767 167.16Z" fill="url(#paint32_linear_4047_260436)"/>
<path fill-rule="evenodd" clip-rule="evenodd" d="M53.161 154.975C51.1138 155.518 49.8779 156.917 48.5398 155.895C48.7215 156.347 49.2905 157.305 49.4728 157.757C50.5882 156.406 52.231 156.142 53.5031 155.678C53.3891 155.443 53.2751 155.209 53.161 154.975Z" fill="url(#paint33_linear_4047_260436)"/>
<path fill-rule="evenodd" clip-rule="evenodd" d="M66.8401 154.975C68.8873 155.518 70.1215 156.917 71.4602 155.895C71.2778 156.347 70.7094 157.305 70.5277 157.757C69.4117 156.406 67.769 156.142 66.4968 155.678C66.6103 155.443 66.7249 155.209 66.8401 154.975Z" fill="url(#paint34_linear_4047_260436)"/>
<path fill-rule="evenodd" clip-rule="evenodd" d="M46.3143 154.361C45.3011 154.05 44.3502 154.571 43.7195 155.083C43.1428 155.552 43.068 156.584 43.868 157.017C44.1216 157.659 45.3961 157.747 45.8451 158.311C46.3018 158.883 48.4215 158.364 48.8367 158.24C49.0784 158.167 49.6818 157.639 49.7192 157.355C49.803 156.715 49.3005 156.566 49.1787 156.201C48.8016 155.914 48.5908 155.713 48.3146 155.354C48.02 154.971 47.9868 154.858 47.4499 154.65C47.1458 154.534 46.6219 154.456 46.3143 154.361Z" fill="#B36B6D"/>
<path fill-rule="evenodd" clip-rule="evenodd" d="M73.6849 154.361C74.6987 154.05 75.6502 154.571 76.2797 155.083C76.8576 155.552 76.933 156.584 76.1312 157.017C75.8782 157.659 74.6037 157.747 74.1535 158.311C73.6986 158.883 71.5783 158.364 71.1631 158.24C70.922 158.167 70.3174 157.639 70.2806 157.355C70.1969 156.715 70.6993 156.566 70.821 156.201C71.1988 155.914 71.409 155.713 71.6864 155.354C71.9798 154.971 72.0136 154.858 72.5505 154.65C72.8534 154.534 73.3773 154.456 73.6849 154.361Z" fill="#B36B6D"/>
<path fill-rule="evenodd" clip-rule="evenodd" d="M46.1836 154.428C45.2506 154.14 44.3758 154.62 43.7943 155.092C43.264 155.524 43.195 156.474 43.9321 156.872C44.1649 157.464 45.3379 157.545 45.7524 158.064C46.1717 158.591 48.1245 158.113 48.5064 157.998C48.7297 157.931 49.285 157.445 49.3195 157.184C49.3967 156.594 48.9334 156.458 48.8212 156.122C48.4737 155.857 48.2795 155.672 48.0253 155.341C47.7539 154.989 47.7248 154.885 47.2295 154.693C46.9504 154.586 46.4675 154.515 46.1836 154.428Z" fill="url(#paint35_radial_4047_260436)"/>
<path fill-rule="evenodd" clip-rule="evenodd" d="M73.8162 154.428C74.7487 154.14 75.6247 154.62 76.2056 155.092C76.7359 155.524 76.8054 156.474 76.069 156.872C75.8344 157.464 74.6614 157.545 74.2474 158.064C73.8275 158.591 71.8753 158.113 71.494 157.998C71.2701 157.931 70.7142 157.445 70.6804 157.184C70.6038 156.594 71.067 156.458 71.1781 156.122C71.5249 155.857 71.7197 155.672 71.9751 155.341C72.2453 154.989 72.2756 154.885 72.7709 154.693C73.0507 154.586 73.5318 154.515 73.8162 154.428Z" fill="url(#paint36_radial_4047_260436)"/>
<path fill-rule="evenodd" clip-rule="evenodd" d="M45.3316 155.031C45.6422 155.167 45.739 155.628 45.5489 156.062C45.3595 156.496 44.9538 156.739 44.6444 156.603C44.3344 156.467 44.237 156.006 44.4276 155.571C44.6165 155.137 45.0222 154.896 45.3316 155.031Z" fill="url(#paint37_radial_4047_260436)"/>
<path fill-rule="evenodd" clip-rule="evenodd" d="M74.6673 155.031C74.3579 155.167 74.2605 155.628 74.4506 156.062C74.6406 156.496 75.0457 156.739 75.3551 156.603C75.6651 156.467 75.7625 156.006 75.5736 155.571C75.383 155.137 74.9774 154.896 74.6673 155.031Z" fill="url(#paint38_radial_4047_260436)"/>
<path fill-rule="evenodd" clip-rule="evenodd" d="M45.1242 156.435C45.4081 156.327 45.7377 156.499 45.8589 156.82C45.9812 157.14 45.85 157.487 45.5655 157.595C45.2816 157.703 44.9526 157.531 44.8308 157.211C44.7085 156.89 44.8397 156.543 45.1242 156.435Z" fill="url(#paint39_radial_4047_260436)"/>
<path fill-rule="evenodd" clip-rule="evenodd" d="M74.8764 156.435C74.5919 156.327 74.2629 156.499 74.1411 156.82C74.0188 157.14 74.15 157.487 74.4345 157.595C74.7184 157.703 75.048 157.531 75.1698 157.211C75.2915 156.89 75.1591 156.543 74.8764 156.435Z" fill="url(#paint40_radial_4047_260436)"/>
<path fill-rule="evenodd" clip-rule="evenodd" d="M46.6012 156.121C46.9338 156.121 47.2047 155.858 47.2047 155.535C47.2047 155.213 46.9338 154.95 46.6012 154.95C46.2686 154.95 45.9978 155.213 45.9978 155.535C45.9978 155.858 46.2686 156.121 46.6012 156.121Z" fill="url(#paint41_radial_4047_260436)"/>
<path fill-rule="evenodd" clip-rule="evenodd" d="M73.3987 156.121C73.7313 156.121 74.0015 155.858 74.0015 155.535C74.0015 155.213 73.7313 154.95 73.3987 154.95C73.0667 154.95 72.7953 155.213 72.7953 155.535C72.7953 155.858 73.0667 156.121 73.3987 156.121Z" fill="url(#paint42_radial_4047_260436)"/>
<path fill-rule="evenodd" clip-rule="evenodd" d="M45.673 156.717C45.8815 156.717 46.0514 156.553 46.0514 156.351C46.0514 156.148 45.8815 155.984 45.673 155.984C45.4652 155.984 45.2953 156.148 45.2953 156.351C45.2953 156.553 45.4652 156.717 45.673 156.717Z" fill="url(#paint43_radial_4047_260436)"/>
<path fill-rule="evenodd" clip-rule="evenodd" d="M74.3263 156.717C74.5354 156.717 74.7046 156.553 74.7046 156.351C74.7046 156.148 74.5354 155.984 74.3263 155.984C74.1172 155.984 73.948 156.148 73.948 156.351C73.948 156.553 74.1172 156.717 74.3263 156.717Z" fill="url(#paint44_radial_4047_260436)"/>
<path fill-rule="evenodd" clip-rule="evenodd" d="M47.7124 156.197C47.9209 156.197 48.0913 156.031 48.0913 155.829C48.0913 155.628 47.9209 155.462 47.7124 155.462C47.5046 155.462 47.3341 155.628 47.3341 155.829C47.3341 156.031 47.5046 156.197 47.7124 156.197Z" fill="url(#paint45_radial_4047_260436)"/>
<path fill-rule="evenodd" clip-rule="evenodd" d="M72.287 156.197C72.4961 156.197 72.6654 156.031 72.6654 155.829C72.6654 155.628 72.4961 155.462 72.287 155.462C72.0786 155.462 71.9093 155.628 71.9093 155.829C71.9093 156.031 72.0786 156.197 72.287 156.197Z" fill="url(#paint46_radial_4047_260436)"/>
<path fill-rule="evenodd" clip-rule="evenodd" d="M44.1116 156.64C44.3195 156.64 44.4893 156.475 44.4893 156.272C44.4893 156.071 44.3195 155.905 44.1116 155.905C43.9037 155.905 43.7333 156.071 43.7333 156.272C43.7333 156.475 43.9037 156.64 44.1116 156.64Z" fill="url(#paint47_radial_4047_260436)"/>
<path fill-rule="evenodd" clip-rule="evenodd" d="M75.889 156.64C76.0968 156.64 76.2661 156.475 76.2661 156.272C76.2661 156.071 76.0968 155.905 75.889 155.905C75.6799 155.905 75.5106 156.071 75.5106 156.272C75.5106 156.475 75.6799 156.64 75.889 156.64Z" fill="url(#paint48_radial_4047_260436)"/>
<path fill-rule="evenodd" clip-rule="evenodd" d="M48.0219 156.808C48.2102 156.998 48.1455 157.366 47.8794 157.63C47.6121 157.892 47.2439 157.95 47.0562 157.76C46.8685 157.57 46.9327 157.202 47.1993 156.939C47.4666 156.676 47.8348 156.618 48.0219 156.808Z" fill="url(#paint49_radial_4047_260436)"/>
<path fill-rule="evenodd" clip-rule="evenodd" d="M71.9775 156.808C71.7898 156.998 71.8534 157.366 72.1212 157.63C72.3879 157.892 72.7567 157.95 72.9438 157.76C73.1315 157.57 73.0679 157.202 72.8001 156.939C72.534 156.676 72.164 156.618 71.9775 156.808Z" fill="url(#paint50_radial_4047_260436)"/>
<path fill-rule="evenodd" clip-rule="evenodd" d="M46.5217 157.662C46.8174 157.662 47.0574 157.497 47.0574 157.295C47.0574 157.093 46.8174 156.928 46.5217 156.928C46.2265 156.928 45.986 157.093 45.986 157.295C45.986 157.497 46.2265 157.662 46.5217 157.662Z" fill="url(#paint51_radial_4047_260436)"/>
<path fill-rule="evenodd" clip-rule="evenodd" d="M73.4783 157.662C73.7729 157.662 74.0146 157.497 74.0146 157.295C74.0146 157.093 73.7729 156.928 73.4783 156.928C73.1826 156.928 72.9426 157.093 72.9426 157.295C72.9426 157.497 73.1826 157.662 73.4783 157.662Z" fill="url(#paint52_radial_4047_260436)"/>
<path fill-rule="evenodd" clip-rule="evenodd" d="M45.7947 155.554C46.0032 155.554 46.173 155.389 46.173 155.187C46.173 154.984 46.0032 154.819 45.7947 154.819C45.5868 154.819 45.417 154.984 45.417 155.187C45.417 155.389 45.5868 155.554 45.7947 155.554Z" fill="url(#paint53_radial_4047_260436)"/>
<path fill-rule="evenodd" clip-rule="evenodd" d="M74.2047 155.554C74.4137 155.554 74.583 155.389 74.583 155.187C74.583 154.984 74.4137 154.819 74.2047 154.819C73.9968 154.819 73.8275 154.984 73.8275 155.187C73.8275 155.389 73.9968 155.554 74.2047 155.554Z" fill="url(#paint54_radial_4047_260436)"/>
<path fill-rule="evenodd" clip-rule="evenodd" d="M42.6731 156.049C42.4011 155.759 41.8719 154.892 41.0951 154.457C40.1781 153.943 39.3531 152.962 38.8982 152.758C38.4914 152.576 39.2041 154.06 40.3866 154.993C41.2525 155.678 41.5328 156.817 41.5328 157.001C41.5328 157.065 41.5382 157.121 41.5477 157.172C41.7057 157.087 41.844 156.79 41.6041 156.64C41.5162 156.586 41.2982 156.343 41.2982 156.195C41.2982 155.875 41.575 155.942 41.6451 156.153C41.7187 156.328 41.7413 156.403 41.8399 156.501C42.065 156.725 42.2413 156.466 42.1178 156.181C42.0394 156 41.6379 155.889 41.7561 155.666C41.9735 155.258 42.2087 155.956 42.2152 155.958C42.3471 156.262 42.5876 156.202 42.6731 156.049Z" fill="url(#paint55_linear_4047_260436)"/>
<path fill-rule="evenodd" clip-rule="evenodd" d="M77.3263 156.049C77.5989 155.759 78.1275 154.892 78.9049 154.457C79.8213 153.943 80.6463 152.962 81.1018 152.758C81.508 152.576 80.7959 154.06 79.6134 154.993C78.7469 155.678 78.4678 156.817 78.4678 157.001C78.4678 157.065 78.4619 157.121 78.4512 157.172C78.2938 157.087 78.1566 156.79 78.3971 156.64C78.4838 156.586 78.7018 156.343 78.7018 156.195C78.7018 155.875 78.4244 155.942 78.3538 156.153C78.2807 156.328 78.2587 156.403 78.1602 156.501C77.9339 156.725 77.7575 156.466 77.8816 156.181C77.9606 156 78.3621 155.889 78.2439 155.666C78.0271 155.258 77.7913 155.956 77.7842 155.958C77.6535 156.262 77.4118 156.202 77.3263 156.049Z" fill="url(#paint56_linear_4047_260436)"/>
<path fill-rule="evenodd" clip-rule="evenodd" d="M68.7245 153.843C66.4807 153.371 65.0761 150.377 59.9863 150.377C54.8958 150.377 53.4829 153.465 51.2385 153.938C51.2326 154 51.2356 153.969 51.2296 154.032C53.0238 153.815 53.3837 153.514 54.7016 153.416C58.0466 153.167 61.9248 153.167 65.2697 153.416C66.5876 153.514 66.9475 153.815 68.7423 154.032C68.7364 153.969 68.7305 153.906 68.7245 153.843Z" fill="#E7BDBD"/>
<path fill-rule="evenodd" clip-rule="evenodd" d="M51.1435 154.238C53.2116 153.87 56.1182 152.932 57.3838 155.233C58.1125 156.556 58.7308 158.58 59.4245 160.245C60.0101 161.65 59.7725 162.764 59.5451 163.883C59.3235 164.966 59.2344 166.178 59.4073 167.71C59.4785 168.34 59.5451 168.491 59.0818 168.499C58.1381 168.516 57.5988 168.207 57.0583 167.83C55.9715 167.071 56.8802 168.573 57.018 168.883C56.8374 169.209 57.4028 169.665 57.4028 170.06C57.6546 170.297 57.3131 171.006 57.6089 171.281C57.6142 171.591 57.3796 172.168 57.5935 172.426C57.5846 172.722 57.3511 172.888 57.5988 173.168C57.6083 173.409 57.6261 173.647 57.6499 173.883C57.3565 174.137 57.7633 174.756 57.8215 175.086C57.6404 175.278 57.9997 176.008 58.0555 176.277C57.8233 176.549 58.1684 176.816 58.2218 177.077C58.0181 177.254 58.0965 177.653 58.3525 177.741C58.4059 178.026 58.4558 178.315 58.4986 178.608C58.5443 178.92 58.1927 178.865 57.9848 178.934L58.0531 180.14C58.0531 180.14 57.9557 180.233 57.8595 180.271C57.6327 179.5 57.6083 178.86 57.8815 178.264C57.2799 175.895 56.8849 173.35 56.7162 170.61C56.4983 169.684 56.2471 168.764 56.0641 167.83C55.8729 166.854 56.5315 165.332 56.7323 163.746C57.0055 161.595 55.4043 160.201 54.6975 158.34C54.2646 157.204 54.046 156.271 53.4337 154.961C53.1029 154.253 52.0718 154.459 50.9398 154.775C51.0194 154.552 51.0646 154.462 51.1435 154.238Z" fill="#EAC1C1"/>
<path fill-rule="evenodd" clip-rule="evenodd" d="M68.8956 154.238C66.8281 153.87 63.9209 152.932 62.6553 155.233C61.9272 156.556 61.3089 158.58 60.6152 160.245C60.029 161.65 60.2666 162.764 60.4947 163.883C60.7156 164.966 60.8047 166.178 60.6324 167.71C60.5612 168.34 60.4946 168.491 60.9579 168.499C61.9016 168.516 62.4415 168.207 62.9808 167.83C64.0676 167.071 63.1601 168.573 63.0212 168.883C63.2017 169.209 62.6363 169.665 62.6363 170.06C62.3851 170.297 62.7254 171.006 62.4302 171.281C62.4249 171.591 62.6589 172.168 62.4463 172.426C62.4546 172.722 62.6886 172.888 62.4415 173.168C62.4314 173.409 62.413 173.647 62.3892 173.883C62.6826 174.137 62.2764 174.756 62.2182 175.086C62.3993 175.278 62.04 176.008 61.9836 176.277C62.2164 176.549 61.8714 176.816 61.8173 177.077C62.0216 177.254 61.9426 177.653 61.6866 177.741C61.6326 178.026 61.5833 178.315 61.5405 178.608C61.4954 178.92 61.8458 178.865 62.0549 178.934L62.0008 180.115C62.0008 180.115 62.094 180.169 62.1796 180.271C62.4064 179.5 62.4314 178.86 62.1582 178.264C62.7592 175.895 63.1548 173.35 63.3235 170.61C63.5408 169.684 63.7921 168.764 63.9756 167.83C64.1656 166.854 63.5076 165.332 63.3068 163.746C63.0336 161.595 64.6348 160.201 65.3428 158.34C65.7751 157.204 65.9931 156.271 66.606 154.961C66.9362 154.253 67.9673 154.459 69.0993 154.775C69.0191 154.552 68.9751 154.462 68.8956 154.238Z" fill="#EAC1C1"/>
<path fill-rule="evenodd" clip-rule="evenodd" d="M56.0314 167.366C56.057 166.405 56.5606 165.099 56.7323 163.746C56.9081 162.365 56.4561 161.466 55.7897 160.433C55.3722 159.785 54.9713 159.062 54.6975 158.341C54.264 157.204 54.046 156.271 53.4337 154.961C53.2478 154.564 52.6853 154.439 52.1223 154.498C52.6165 154.336 53.1379 154.226 53.6112 154.115C55.3556 153.703 56.5363 154.353 57.0067 155.602C57.7111 157.472 58.5366 159.183 59.1869 160.565C59.5724 161.384 59.5932 162.658 59.1869 163.965C58.732 165.429 58.8389 166.617 59.0474 167.815C59.061 167.891 59.0438 167.963 58.9975 168.025C58.9512 168.088 58.8882 168.124 58.8104 168.134C58.1446 168.213 57.4794 167.641 56.8142 167.267C56.5808 167.161 56.3147 167.218 56.0314 167.366Z" fill="url(#paint57_linear_4047_260436)"/>
<path fill-rule="evenodd" clip-rule="evenodd" d="M67.3954 153.425C65.4925 153.039 64.3017 150.595 59.9863 150.595C55.6697 150.595 54.4724 153.116 52.5695 153.501L52.5618 153.578C54.0834 153.401 54.3881 153.155 55.5052 153.075C58.3417 152.872 61.6302 152.872 64.4662 153.075C65.5833 153.155 65.8886 153.401 67.4096 153.578L67.3954 153.425Z" fill="#C58081"/>
<path fill-rule="evenodd" clip-rule="evenodd" d="M53.4069 154.162C53.5334 154.466 54.5151 156.144 54.6357 156.789C54.9807 158.637 56.1323 160.127 56.8302 161.829C57.6367 163.799 56.2292 165.589 56.2511 167.269L56.2826 167.259C56.4673 166.454 57.1117 165.195 57.2917 164.233C57.6979 162.06 56.5998 160.524 55.7214 158.545C55.5087 158.066 53.8636 154.654 53.4775 154.146L53.4069 154.162Z" fill="url(#paint58_radial_4047_260436)"/>
<path fill-rule="evenodd" clip-rule="evenodd" d="M53.9319 154.05C55.1072 155.709 55.95 158.633 56.9971 160.534C57.3338 161.145 57.7929 163.31 57.5981 164.094C57.4312 164.759 57.2323 165.32 56.9739 165.897C56.9103 166.039 56.7506 166.832 56.7078 167.231L56.8141 167.267C57.0119 166.823 57.3077 165.969 57.4128 165.759C58.0465 164.492 57.8048 163.642 57.8048 162.152C57.8048 160.796 56.5712 159.86 56.5332 158.794C56.0569 157.817 55.7873 156.741 55.2884 155.841C55.0787 155.465 54.9754 154.949 54.6873 154.661C54.6339 154.608 54.3844 154.25 54.1688 154.017C54.091 154.026 54.0121 154.036 53.9319 154.05Z" fill="url(#paint59_radial_4047_260436)"/>
<path fill-rule="evenodd" clip-rule="evenodd" d="M54.7651 153.995C56.0373 155.571 56.8534 159.053 57.8357 161.02C58.3666 162.081 58.1279 163.773 57.9978 164.904C57.961 165.229 57.2691 166.832 57.2441 167.528C57.3024 167.565 57.3594 167.601 57.4176 167.637C57.4692 167.222 57.9022 166.305 57.9521 166.129C58.2407 165.09 58.552 164.052 58.552 162.8C58.552 161.247 55.8627 154.729 54.8388 154L54.7651 153.995Z" fill="url(#paint60_radial_4047_260436)"/>
<path fill-rule="evenodd" clip-rule="evenodd" d="M55.7761 154.231C56.1253 154.996 57.1778 156.977 57.2971 157.621C57.5691 159.088 58.8336 160.501 58.8544 161.846C58.8716 163.011 58.7439 164.335 58.4119 165.459C58.2913 165.866 58.0092 167.736 58.0502 167.987L58.1144 168.015C58.2415 167.626 58.5022 166.687 58.5331 166.381C58.6946 164.781 59.2493 163.543 59.2333 162.517C59.2107 161.045 57.0293 155.961 55.9757 154.335C55.9115 154.297 55.845 154.263 55.7761 154.231Z" fill="url(#paint61_radial_4047_260436)"/>
<path fill-rule="evenodd" clip-rule="evenodd" d="M53.5328 153.353C55.3271 152.385 58.3133 152.583 60.3884 152.583C61.4248 152.583 62.6827 152.658 63.6947 152.822C64.0505 152.881 65.0263 152.881 65.2995 153.061C65.5168 153.204 66.6441 153.084 66.6298 153.393C66.7902 152.802 60.686 151.954 59.5023 152.255C58.5021 152.509 55.5415 152.155 54.1957 152.703C54.0294 152.817 53.866 152.924 53.7045 153.022C53.619 153.118 53.5602 153.227 53.5328 153.353Z" fill="url(#paint62_radial_4047_260436)"/>
<path fill-rule="evenodd" clip-rule="evenodd" d="M55.7203 151.693C57.1172 151.416 59.2933 151.627 60.3409 151.627C61.7628 151.627 63.1448 151.973 64.5334 152.105C64.7122 152.122 64.8784 152.151 65.0578 152.161L65.1035 152.192C64.6866 152.204 64.066 152.212 63.8629 152.195C62.5076 152.082 60.7377 151.478 59.3337 151.926C58.8045 152.095 55.9632 152.243 55.0486 152.114C55.2606 151.973 55.4833 151.831 55.7203 151.693Z" fill="url(#paint63_radial_4047_260436)"/>
<path fill-rule="evenodd" clip-rule="evenodd" d="M57.2732 150.995L60.8195 150.88C61.2281 150.867 61.8719 150.873 62.521 150.93C63.1838 151.121 63.7427 151.377 64.2369 151.654C63.757 151.603 63.0229 151.433 62.856 151.418C61.4502 151.293 60.0533 151.149 58.5674 151.149C58.4325 151.149 57.4585 151.225 56.5997 151.249C56.8112 151.157 57.0345 151.072 57.2732 150.995Z" fill="url(#paint64_radial_4047_260436)"/>
<path fill-rule="evenodd" clip-rule="evenodd" d="M63.9852 167.366C63.9597 166.405 63.456 165.099 63.2838 163.746C63.1092 162.365 63.5605 161.466 64.2275 160.433C64.645 159.785 65.0459 159.062 65.3197 158.341C65.7527 157.204 65.97 156.271 66.583 154.961C66.7689 154.564 67.2885 154.453 67.8527 154.512C67.3586 154.351 66.8793 154.226 66.406 154.115C64.6605 153.703 63.4804 154.353 63.0094 155.602C62.3056 157.472 61.4801 159.183 60.8303 160.565C60.4443 161.384 60.4229 162.658 60.8303 163.965C61.2847 165.429 61.1778 166.617 60.9687 167.815C60.9556 167.891 60.9728 167.963 61.0192 168.025C61.0655 168.088 61.1296 168.124 61.2069 168.134C61.872 168.213 62.5372 167.641 63.2024 167.267C63.4358 167.161 63.7019 167.218 63.9852 167.366Z" fill="#C58081"/>
<path fill-rule="evenodd" clip-rule="evenodd" d="M66.6286 154.179C66.5021 154.482 65.5192 156.161 65.3992 156.805C65.0541 158.654 63.9025 160.144 63.2053 161.845C62.3987 163.815 63.8063 165.606 63.7843 167.285L63.7529 167.275C63.567 166.471 62.9232 165.213 62.7438 164.25C62.337 162.077 63.4357 160.54 64.3135 158.563C64.5267 158.083 66.1707 154.671 66.5573 154.163L66.6286 154.179Z" fill="url(#paint65_radial_4047_260436)"/>
<path fill-rule="evenodd" clip-rule="evenodd" d="M66.1037 154.067C64.9278 155.726 64.085 158.65 63.0385 160.55C62.7012 161.162 62.2421 163.327 62.4375 164.111C62.6032 164.776 62.8027 165.337 63.0611 165.915C63.124 166.055 63.2844 166.848 63.3272 167.247L63.2208 167.284C63.0231 166.84 62.7273 165.986 62.6222 165.776C61.9885 164.508 62.229 163.658 62.229 162.169C62.229 160.812 63.4637 159.877 63.5023 158.81C63.9787 157.833 64.2483 156.758 64.7478 155.857C64.9563 155.481 65.0602 154.967 65.3477 154.678C65.4011 154.624 65.6506 154.267 65.8661 154.033C65.9439 154.042 66.0229 154.053 66.1037 154.067Z" fill="url(#paint66_radial_4047_260436)"/>
<path fill-rule="evenodd" clip-rule="evenodd" d="M65.2698 154.012C63.9983 155.587 63.1822 159.07 62.1987 161.036C61.6684 162.097 61.9071 163.79 62.0372 164.92C62.0746 165.245 62.7665 166.848 62.7908 167.545C62.7326 167.582 62.675 167.618 62.618 167.654C62.5664 167.238 62.1328 166.321 62.0829 166.146C61.7948 165.107 61.4836 164.068 61.4836 162.816C61.4836 161.263 64.1729 154.745 65.1962 154.017L65.2698 154.012Z" fill="url(#paint67_radial_4047_260436)"/>
<path fill-rule="evenodd" clip-rule="evenodd" d="M64.2584 154.247C63.9098 155.013 62.8568 156.994 62.738 157.638C62.466 159.104 61.2021 160.517 61.1813 161.864C61.1629 163.028 61.2906 164.352 61.6232 165.475C61.7444 165.883 62.0265 167.752 61.9843 168.005L61.9214 168.031C61.7931 167.644 61.5329 166.704 61.5026 166.398C61.3405 164.798 60.7858 163.559 60.8012 162.534C60.8238 161.062 63.0059 155.978 64.0595 154.352C64.1236 154.314 64.1901 154.279 64.2584 154.247Z" fill="url(#paint68_radial_4047_260436)"/>
<defs>
<linearGradient id="paint0_linear_4047_260436" x1="59.9863" y1="148.091" x2="59.9863" y2="155.308" gradientUnits="userSpaceOnUse">
<stop stop-color="#CE5454"/>
<stop offset="0.35" stop-color="#CE5454"/>
<stop offset="0.62" stop-color="#BD3B3A"/>
<stop offset="1" stop-color="#BD3B3A"/>
</linearGradient>
<linearGradient id="paint1_linear_4047_260436" x1="42.9006" y1="153.627" x2="48.3227" y2="153.627" gradientUnits="userSpaceOnUse">
<stop stop-color="#CE5454"/>
<stop offset="0.58" stop-color="#CE5454"/>
<stop offset="1" stop-color="#BD3B3A"/>
</linearGradient>
<linearGradient id="paint2_linear_4047_260436" x1="77.5603" y1="153.627" x2="72.138" y2="153.627" gradientUnits="userSpaceOnUse">
<stop stop-color="#CE5454"/>
<stop offset="0.58" stop-color="#CE5454"/>
<stop offset="1" stop-color="#BD3B3A"/>
</linearGradient>
<linearGradient id="paint3_linear_4047_260436" x1="49.711" y1="165.443" x2="69.7342" y2="165.443" gradientUnits="userSpaceOnUse">
<stop stop-color="#8E2C30"/>
<stop offset="1" stop-color="#BD282F"/>
</linearGradient>
<linearGradient id="paint4_linear_4047_260436" x1="66.3187" y1="154.076" x2="53.661" y2="154.076" gradientUnits="userSpaceOnUse">
<stop stop-color="#D98F8D"/>
<stop offset="1" stop-color="#BF2730"/>
</linearGradient>
<linearGradient id="paint5_linear_4047_260436" x1="65.8205" y1="155.034" x2="54.0374" y2="155.034" gradientUnits="userSpaceOnUse">
<stop stop-color="#D98F8D"/>
<stop offset="1" stop-color="#BF2730"/>
</linearGradient>
<linearGradient id="paint6_linear_4047_260436" x1="65.4776" y1="155.992" x2="54.36" y2="155.992" gradientUnits="userSpaceOnUse">
<stop stop-color="#D98F8D"/>
<stop offset="1" stop-color="#BF2730"/>
</linearGradient>
<linearGradient id="paint7_linear_4047_260436" x1="65.2158" y1="156.95" x2="54.6433" y2="156.95" gradientUnits="userSpaceOnUse">
<stop stop-color="#D98F8D"/>
<stop offset="1" stop-color="#BF2730"/>
</linearGradient>
<linearGradient id="paint8_linear_4047_260436" x1="64.9592" y1="157.909" x2="54.9196" y2="157.909" gradientUnits="userSpaceOnUse">
<stop stop-color="#D98F8D"/>
<stop offset="1" stop-color="#BF2730"/>
</linearGradient>
<linearGradient id="paint9_linear_4047_260436" x1="64.6807" y1="158.867" x2="55.2157" y2="158.867" gradientUnits="userSpaceOnUse">
<stop stop-color="#D98F8D"/>
<stop offset="1" stop-color="#BF2730"/>
</linearGradient>
<linearGradient id="paint10_linear_4047_260436" x1="64.3671" y1="159.825" x2="55.5503" y2="159.825" gradientUnits="userSpaceOnUse">
<stop stop-color="#D98F8D"/>
<stop offset="1" stop-color="#BF2730"/>
</linearGradient>
<linearGradient id="paint11_linear_4047_260436" x1="64.3106" y1="160.783" x2="55.6265" y2="160.783" gradientUnits="userSpaceOnUse">
<stop stop-color="#D98F8D"/>
<stop offset="1" stop-color="#BF2730"/>
</linearGradient>
<linearGradient id="paint12_linear_4047_260436" x1="64.1496" y1="161.742" x2="55.8055" y2="161.742" gradientUnits="userSpaceOnUse">
<stop stop-color="#D98F8D"/>
<stop offset="1" stop-color="#BF2730"/>
</linearGradient>
<linearGradient id="paint13_linear_4047_260436" x1="63.8622" y1="162.699" x2="56.1132" y2="162.699" gradientUnits="userSpaceOnUse">
<stop stop-color="#D98F8D"/>
<stop offset="1" stop-color="#BF2730"/>
</linearGradient>
<linearGradient id="paint14_linear_4047_260436" x1="63.4697" y1="163.655" x2="56.5262" y2="163.655" gradientUnits="userSpaceOnUse">
<stop stop-color="#D98F8D"/>
<stop offset="1" stop-color="#BF2730"/>
</linearGradient>
<linearGradient id="paint15_linear_4047_260436" x1="62.9797" y1="164.613" x2="57.0372" y2="164.613" gradientUnits="userSpaceOnUse">
<stop stop-color="#D98F8D"/>
<stop offset="1" stop-color="#BF2730"/>
</linearGradient>
<linearGradient id="paint16_linear_4047_260436" x1="62.4232" y1="165.58" x2="57.6118" y2="165.58" gradientUnits="userSpaceOnUse">
<stop stop-color="#D98F8D"/>
<stop offset="1" stop-color="#BF2730"/>
</linearGradient>
<linearGradient id="paint17_linear_4047_260436" x1="61.8743" y1="166.546" x2="58.1043" y2="166.546" gradientUnits="userSpaceOnUse">
<stop stop-color="#D98F8D"/>
<stop offset="1" stop-color="#BF2730"/>
</linearGradient>
<linearGradient id="paint18_linear_4047_260436" x1="62.0864" y1="179.456" x2="57.7863" y2="179.456" gradientUnits="userSpaceOnUse">
<stop stop-color="#D98F8D"/>
<stop offset="1" stop-color="#BF2730"/>
</linearGradient>
<linearGradient id="paint19_linear_4047_260436" x1="62.2106" y1="178.602" x2="57.6705" y2="178.602" gradientUnits="userSpaceOnUse">
<stop stop-color="#D98F8D"/>
<stop offset="1" stop-color="#BF2730"/>
</linearGradient>
<linearGradient id="paint20_linear_4047_260436" x1="62.3341" y1="177.747" x2="57.554" y2="177.747" gradientUnits="userSpaceOnUse">
<stop stop-color="#D98F8D"/>
<stop offset="1" stop-color="#BF2730"/>
</linearGradient>
<linearGradient id="paint21_linear_4047_260436" x1="62.4576" y1="176.893" x2="57.4374" y2="176.893" gradientUnits="userSpaceOnUse">
<stop stop-color="#D98F8D"/>
<stop offset="1" stop-color="#BF2730"/>
</linearGradient>
<linearGradient id="paint22_linear_4047_260436" x1="62.5816" y1="176.039" x2="57.3213" y2="176.039" gradientUnits="userSpaceOnUse">
<stop stop-color="#D98F8D"/>
<stop offset="1" stop-color="#BF2730"/>
</linearGradient>
<linearGradient id="paint23_linear_4047_260436" x1="62.7052" y1="175.184" x2="57.2049" y2="175.184" gradientUnits="userSpaceOnUse">
<stop stop-color="#D98F8D"/>
<stop offset="1" stop-color="#BF2730"/>
</linearGradient>
<linearGradient id="paint24_linear_4047_260436" x1="62.8294" y1="174.33" x2="57.0889" y2="174.33" gradientUnits="userSpaceOnUse">
<stop stop-color="#D98F8D"/>
<stop offset="1" stop-color="#BF2730"/>
</linearGradient>
<linearGradient id="paint25_linear_4047_260436" x1="62.9529" y1="173.476" x2="56.9724" y2="173.476" gradientUnits="userSpaceOnUse">
<stop stop-color="#D98F8D"/>
<stop offset="1" stop-color="#BF2730"/>
</linearGradient>
<linearGradient id="paint26_linear_4047_260436" x1="63.077" y1="172.622" x2="56.8564" y2="172.622" gradientUnits="userSpaceOnUse">
<stop stop-color="#D98F8D"/>
<stop offset="1" stop-color="#BF2730"/>
</linearGradient>
<linearGradient id="paint27_linear_4047_260436" x1="63.2001" y1="171.768" x2="56.74" y2="171.768" gradientUnits="userSpaceOnUse">
<stop stop-color="#D98F8D"/>
<stop offset="1" stop-color="#BF2730"/>
</linearGradient>
<linearGradient id="paint28_linear_4047_260436" x1="63.3248" y1="170.914" x2="56.6241" y2="170.914" gradientUnits="userSpaceOnUse">
<stop stop-color="#D98F8D"/>
<stop offset="1" stop-color="#BF2730"/>
</linearGradient>
<linearGradient id="paint29_linear_4047_260436" x1="63.4476" y1="170.06" x2="56.5074" y2="170.06" gradientUnits="userSpaceOnUse">
<stop stop-color="#D98F8D"/>
<stop offset="1" stop-color="#BF2730"/>
</linearGradient>
<linearGradient id="paint30_linear_4047_260436" x1="63.5718" y1="169.205" x2="56.3916" y2="169.205" gradientUnits="userSpaceOnUse">
<stop stop-color="#D98F8D"/>
<stop offset="1" stop-color="#BF2730"/>
</linearGradient>
<linearGradient id="paint31_linear_4047_260436" x1="63.6959" y1="168.351" x2="56.275" y2="168.351" gradientUnits="userSpaceOnUse">
<stop stop-color="#D98F8D"/>
<stop offset="1" stop-color="#BF2730"/>
</linearGradient>
<linearGradient id="paint32_linear_4047_260436" x1="63.8189" y1="167.497" x2="56.1584" y2="167.497" gradientUnits="userSpaceOnUse">
<stop stop-color="#D98F8D"/>
<stop offset="1" stop-color="#BF2730"/>
</linearGradient>
<linearGradient id="paint33_linear_4047_260436" x1="48.2951" y1="156.366" x2="53.7466" y2="156.366" gradientUnits="userSpaceOnUse">
<stop stop-color="#CB7978"/>
<stop offset="1" stop-color="#B43536"/>
</linearGradient>
<linearGradient id="paint34_linear_4047_260436" x1="71.7037" y1="156.366" x2="66.2528" y2="156.366" gradientUnits="userSpaceOnUse">
<stop stop-color="#CB7978"/>
<stop offset="1" stop-color="#B43536"/>
</linearGradient>
<radialGradient id="paint35_radial_4047_260436" cx="0" cy="0" r="1" gradientUnits="userSpaceOnUse" gradientTransform="translate(46.0013 155.888) scale(1.94209)">
<stop stop-color="#E5CDC8"/>
<stop offset="1" stop-color="#D98F8D"/>
</radialGradient>
<radialGradient id="paint36_radial_4047_260436" cx="0" cy="0" r="1" gradientUnits="userSpaceOnUse" gradientTransform="translate(73.9986 155.888) scale(1.68159)">
<stop stop-color="#E5CDC8"/>
<stop offset="1" stop-color="#D98F8D"/>
</radialGradient>
<radialGradient id="paint37_radial_4047_260436" cx="0" cy="0" r="1" gradientUnits="userSpaceOnUse" gradientTransform="translate(45.0014 155.619) scale(0.552026)">
<stop stop-color="#E5CDC8"/>
<stop offset="1" stop-color="#D98F8D"/>
</radialGradient>
<radialGradient id="paint38_radial_4047_260436" cx="0" cy="0" r="1" gradientUnits="userSpaceOnUse" gradientTransform="translate(74.9981 155.619) scale(0.558554)">
<stop stop-color="#E5CDC8"/>
<stop offset="1" stop-color="#D98F8D"/>
</radialGradient>
<radialGradient id="paint39_radial_4047_260436" cx="0" cy="0" r="1" gradientUnits="userSpaceOnUse" gradientTransform="translate(45.2329 156.905) scale(0.514357)">
<stop stop-color="#E5CDC8"/>
<stop offset="1" stop-color="#D98F8D"/>
</radialGradient>
<radialGradient id="paint40_radial_4047_260436" cx="0" cy="0" r="1" gradientUnits="userSpaceOnUse" gradientTransform="translate(74.7671 156.905) scale(0.443218)">
<stop stop-color="#E5CDC8"/>
<stop offset="1" stop-color="#D98F8D"/>
</radialGradient>
<radialGradient id="paint41_radial_4047_260436" cx="0" cy="0" r="1" gradientUnits="userSpaceOnUse" gradientTransform="translate(46.5288 155.406) scale(0.516826)">
<stop stop-color="#E5CDC8"/>
<stop offset="1" stop-color="#D98F8D"/>
</radialGradient>
<radialGradient id="paint42_radial_4047_260436" cx="0" cy="0" r="1" gradientUnits="userSpaceOnUse" gradientTransform="translate(73.4712 155.406) scale(0.467752)">
<stop stop-color="#E5CDC8"/>
<stop offset="1" stop-color="#D98F8D"/>
</radialGradient>
<radialGradient id="paint43_radial_4047_260436" cx="0" cy="0" r="1" gradientUnits="userSpaceOnUse" gradientTransform="translate(45.6279 156.27) scale(0.323859)">
<stop stop-color="#E5CDC8"/>
<stop offset="1" stop-color="#D98F8D"/>
</radialGradient>
<radialGradient id="paint44_radial_4047_260436" cx="0" cy="0" r="1" gradientUnits="userSpaceOnUse" gradientTransform="translate(74.3715 156.27) scale(0.293214)">
<stop stop-color="#E5CDC8"/>
<stop offset="1" stop-color="#D98F8D"/>
</radialGradient>
<radialGradient id="paint45_radial_4047_260436" cx="0" cy="0" r="1" gradientUnits="userSpaceOnUse" gradientTransform="translate(47.6673 155.749) scale(0.324167)">
<stop stop-color="#E5CDC8"/>
<stop offset="1" stop-color="#D98F8D"/>
</radialGradient>
<radialGradient id="paint46_radial_4047_260436" cx="0" cy="0" r="1" gradientUnits="userSpaceOnUse" gradientTransform="translate(72.3328 155.749) scale(0.293342)">
<stop stop-color="#E5CDC8"/>
<stop offset="1" stop-color="#D98F8D"/>
</radialGradient>
<radialGradient id="paint47_radial_4047_260436" cx="0" cy="0" r="1" gradientUnits="userSpaceOnUse" gradientTransform="translate(44.0659 156.192) scale(0.323735)">
<stop stop-color="#E5CDC8"/>
<stop offset="1" stop-color="#D98F8D"/>
</radialGradient>
<radialGradient id="paint48_radial_4047_260436" cx="0" cy="0" r="1" gradientUnits="userSpaceOnUse" gradientTransform="translate(75.9335 156.192) scale(0.292921)">
<stop stop-color="#E5CDC8"/>
<stop offset="1" stop-color="#D98F8D"/>
</radialGradient>
<radialGradient id="paint49_radial_4047_260436" cx="0" cy="0" r="1" gradientUnits="userSpaceOnUse" gradientTransform="translate(47.6103 157.143) scale(0.461825)">
<stop stop-color="#E5CDC8"/>
<stop offset="1" stop-color="#D98F8D"/>
</radialGradient>
<radialGradient id="paint50_radial_4047_260436" cx="0" cy="0" r="1" gradientUnits="userSpaceOnUse" gradientTransform="translate(72.3897 157.143) scale(0.50787)">
<stop stop-color="#E5CDC8"/>
<stop offset="1" stop-color="#D98F8D"/>
</radialGradient>
<radialGradient id="paint51_radial_4047_260436" cx="0" cy="0" r="1" gradientUnits="userSpaceOnUse" gradientTransform="translate(46.4575 157.215) scale(0.356786)">
<stop stop-color="#E5CDC8"/>
<stop offset="1" stop-color="#D98F8D"/>
</radialGradient>
<radialGradient id="paint52_radial_4047_260436" cx="0" cy="0" r="1" gradientUnits="userSpaceOnUse" gradientTransform="translate(73.5431 157.215) scale(0.309813)">
<stop stop-color="#E5CDC8"/>
<stop offset="1" stop-color="#D98F8D"/>
</radialGradient>
<radialGradient id="paint53_radial_4047_260436" cx="0" cy="0" r="1" gradientUnits="userSpaceOnUse" gradientTransform="translate(45.7496 155.106) scale(0.323957)">
<stop stop-color="#E5CDC8"/>
<stop offset="1" stop-color="#D98F8D"/>
</radialGradient>
<radialGradient id="paint54_radial_4047_260436" cx="0" cy="0" r="1" gradientUnits="userSpaceOnUse" gradientTransform="translate(74.2504 155.106) scale(0.293165)">
<stop stop-color="#E5CDC8"/>
<stop offset="1" stop-color="#D98F8D"/>
</radialGradient>
<linearGradient id="paint55_linear_4047_260436" x1="42.103" y1="156.823" x2="39.1944" y2="151.982" gradientUnits="userSpaceOnUse">
<stop stop-color="#D98F8D"/>
<stop offset="1" stop-color="#CE5454"/>
</linearGradient>
<linearGradient id="paint56_linear_4047_260436" x1="77.6173" y1="157.192" x2="80.6094" y2="152.404" gradientUnits="userSpaceOnUse">
<stop stop-color="#D98F8D"/>
<stop offset="1" stop-color="#CE5454"/>
</linearGradient>
<linearGradient id="paint57_linear_4047_260436" x1="63.162" y1="159.647" x2="49.927" y2="162.46" gradientUnits="userSpaceOnUse">
<stop stop-color="#D98F8D"/>
<stop offset="0.43" stop-color="#D98F8D"/>
<stop offset="0.83" stop-color="#BD3B3A"/>
<stop offset="1" stop-color="#BD3B3A"/>
</linearGradient>
<radialGradient id="paint58_radial_4047_260436" cx="0" cy="0" r="1" gradientUnits="userSpaceOnUse" gradientTransform="translate(55.3133 159.002) scale(5.21705)">
<stop stop-color="#E5CDC8"/>
<stop offset="1" stop-color="#D98F8D"/>
</radialGradient>
<radialGradient id="paint59_radial_4047_260436" cx="0" cy="0" r="1" gradientUnits="userSpaceOnUse" gradientTransform="translate(55.7736 158.919) scale(5.26521)">
<stop stop-color="#E5CDC8"/>
<stop offset="1" stop-color="#D98F8D"/>
</radialGradient>
<radialGradient id="paint60_radial_4047_260436" cx="0" cy="0" r="1" gradientUnits="userSpaceOnUse" gradientTransform="translate(56.5451 159.043) scale(5.38303)">
<stop stop-color="#E5CDC8"/>
<stop offset="1" stop-color="#D98F8D"/>
</radialGradient>
<radialGradient id="paint61_radial_4047_260436" cx="0" cy="0" r="1" gradientUnits="userSpaceOnUse" gradientTransform="translate(57.4011 159.331) scale(5.38774)">
<stop stop-color="#E5CDC8"/>
<stop offset="1" stop-color="#D98F8D"/>
</radialGradient>
<radialGradient id="paint62_radial_4047_260436" cx="0" cy="0" r="1" gradientUnits="userSpaceOnUse" gradientTransform="translate(59.6899 152.648) scale(4.17116)">
<stop stop-color="#E5CDC8"/>
<stop offset="1" stop-color="#D98F8D"/>
</radialGradient>
<radialGradient id="paint63_radial_4047_260436" cx="0" cy="0" r="1" gradientUnits="userSpaceOnUse" gradientTransform="translate(59.4726 151.838) scale(3.35881)">
<stop stop-color="#E5CDC8"/>
<stop offset="1" stop-color="#D98F8D"/>
</radialGradient>
<radialGradient id="paint64_radial_4047_260436" cx="0" cy="0" r="1" gradientUnits="userSpaceOnUse" gradientTransform="translate(60.1127 151.085) scale(2.49636)">
<stop stop-color="#E5CDC8"/>
<stop offset="1" stop-color="#D98F8D"/>
</radialGradient>
<radialGradient id="paint65_radial_4047_260436" cx="0" cy="0" r="1" gradientUnits="userSpaceOnUse" gradientTransform="translate(64.7215 159.018) scale(5.19437)">
<stop stop-color="#E5CDC8"/>
<stop offset="1" stop-color="#D98F8D"/>
</radialGradient>
<radialGradient id="paint66_radial_4047_260436" cx="0" cy="0" r="1" gradientUnits="userSpaceOnUse" gradientTransform="translate(64.2614 158.936) scale(5.2326)">
<stop stop-color="#E5CDC8"/>
<stop offset="1" stop-color="#D98F8D"/>
</radialGradient>
<radialGradient id="paint67_radial_4047_260436" cx="0" cy="0" r="1" gradientUnits="userSpaceOnUse" gradientTransform="translate(63.4905 159.06) scale(5.35352)">
<stop stop-color="#E5CDC8"/>
<stop offset="1" stop-color="#D98F8D"/>
</radialGradient>
<radialGradient id="paint68_radial_4047_260436" cx="0" cy="0" r="1" gradientUnits="userSpaceOnUse" gradientTransform="translate(62.634 159.347) scale(5.36293)">
<stop stop-color="#E5CDC8"/>
<stop offset="1" stop-color="#D98F8D"/>
</radialGradient>
</defs>
</svg>
