<svg width="120" height="324" viewBox="0 0 120 324" fill="none" xmlns="http://www.w3.org/2000/svg">
<path d="M68.9946 125.313C68.9946 125.313 64.6646 128.783 63.9846 134.363C63.3146 139.943 64.8546 146.013 66.6846 151.883C68.5146 157.753 74.3846 165.553 67.2646 168.253V169.123C67.2646 169.123 71.3346 168.083 71.9846 164.403C72.6346 160.723 69.6046 156.383 67.9446 152.413C66.2846 148.443 62.0246 133.353 68.7346 127.863L68.9946 125.313Z" fill="#EA9553"/>
<path d="M67.2646 169.193C67.2546 169.193 67.2346 169.183 67.2246 169.173C67.2046 169.163 67.1946 169.143 67.1946 169.113V168.243C67.1946 168.213 67.2146 168.183 67.2446 168.173C68.8046 167.583 69.7946 166.733 70.2846 165.573C71.3346 163.083 69.7946 159.563 68.3146 156.163C67.6946 154.733 67.0446 153.243 66.6246 151.893C64.8246 146.103 63.2446 139.973 63.9246 134.343C64.5946 128.793 68.9146 125.283 68.9546 125.243C68.9746 125.223 69.0046 125.223 69.0346 125.233C69.0646 125.243 69.0746 125.273 69.0746 125.303L68.8046 127.853C68.8046 127.873 68.7946 127.893 68.7746 127.903C65.2046 130.823 64.8946 136.463 65.2646 140.683C65.7146 145.823 67.2546 150.573 68.0046 152.373C68.4346 153.413 68.9746 154.493 69.4946 155.543C70.9846 158.553 72.5346 161.653 72.0446 164.403C71.3946 168.083 67.3146 169.173 67.2746 169.183C67.2746 169.193 67.2746 169.193 67.2646 169.193ZM67.3346 168.303V169.023C67.9346 168.843 71.3246 167.683 71.9146 164.393C72.3846 161.693 70.8546 158.613 69.3746 155.623C68.8546 154.573 68.3146 153.483 67.8746 152.443C67.1246 150.643 65.5746 145.863 65.1246 140.713C64.7546 136.463 65.0646 130.793 68.6646 127.823L68.9046 125.483C68.1646 126.133 64.6546 129.433 64.0646 134.373C63.3846 139.973 64.9546 146.093 66.7546 151.863C67.1746 153.203 67.8146 154.683 68.4446 156.113C69.9446 159.543 71.4946 163.093 70.4146 165.643C69.9146 166.833 68.9046 167.703 67.3346 168.303Z" fill="#F07F33"/>
<path opacity="0.8" d="M67.9446 152.423C66.2846 148.453 62.0246 133.363 68.7346 127.873L68.9946 125.323C68.9946 125.323 67.1546 126.803 65.6746 129.383C66.0246 129.183 66.3946 129.063 66.6346 129.223C66.6346 129.223 64.5146 132.253 64.3246 137.843C64.1346 143.423 67.4046 152.963 68.1746 154.593C68.9446 156.233 73.0346 164.123 70.2946 165.953C70.2346 165.993 70.1746 166.023 70.1246 166.063C69.6046 166.963 68.6946 167.723 67.2546 168.263V169.133C67.2546 169.133 71.3246 168.093 71.9746 164.413C72.6346 160.723 69.6046 156.393 67.9446 152.423Z" fill="#EA9553"/>
<path opacity="0.7" d="M65.1546 130.753C65.1546 130.753 63.1346 135.523 64.3846 142.453C64.3846 142.453 63.5646 135.813 65.1546 130.753Z" fill="white"/>
<path opacity="0.7" d="M68.3346 155.793C68.3346 155.793 71.7046 162.823 70.5446 165.373C70.5446 165.373 71.7446 163.683 70.3046 160.033C68.8646 156.363 68.3346 155.793 68.3346 155.793Z" fill="white"/>
<path d="M50.2746 125.313C50.2746 125.313 54.6046 128.783 55.2846 134.363C55.9546 139.943 54.4146 146.013 52.5846 151.883C50.7546 157.753 44.8846 165.553 52.0046 168.253V169.123C52.0046 169.123 47.9346 168.083 47.2846 164.403C46.6346 160.723 49.6646 156.383 51.3346 152.413C52.9946 148.443 57.2546 133.353 50.5346 127.863L50.2746 125.313Z" fill="#EA9553"/>
<path d="M52.0146 169.193C52.0146 169.193 52.0046 169.193 51.9946 169.193C51.9546 169.183 47.8746 168.103 47.2246 164.413C46.7446 161.673 48.2846 158.563 49.7746 155.553C50.2946 154.503 50.8346 153.423 51.2746 152.383C52.0246 150.583 53.5646 145.833 54.0146 140.693C54.3846 136.473 54.0746 130.823 50.5046 127.913C50.4946 127.903 50.4846 127.883 50.4746 127.863L50.2146 125.313C50.2146 125.283 50.2246 125.253 50.2546 125.243C50.2846 125.233 50.3146 125.233 50.3346 125.253C50.3746 125.283 54.6946 128.803 55.3646 134.353C56.0446 139.983 54.4746 146.113 52.6646 151.903C52.2446 153.253 51.5946 154.733 50.9746 156.173C49.4946 159.573 47.9546 163.093 49.0046 165.583C49.4946 166.743 50.4846 167.593 52.0446 168.183C52.0746 168.193 52.0946 168.223 52.0946 168.253V169.123C52.0946 169.143 52.0846 169.163 52.0646 169.183C52.0446 169.193 52.0246 169.193 52.0146 169.193ZM50.6146 127.823C54.2146 130.793 54.5246 136.463 54.1546 140.713C53.7046 145.863 52.1546 150.643 51.4046 152.443C50.9646 153.483 50.4346 154.573 49.9046 155.623C48.4246 158.603 46.8846 161.693 47.3646 164.393C47.9446 167.683 51.3346 168.843 51.9346 169.023V168.303C50.3646 167.703 49.3546 166.833 48.8546 165.643C47.7746 163.093 49.3246 159.543 50.8246 156.113C51.4446 154.683 52.0946 153.203 52.5146 151.863C54.3146 146.093 55.8846 139.973 55.2046 134.373C54.6046 129.443 51.0946 126.133 50.3546 125.483L50.6146 127.823Z" fill="#F07F33"/>
<path opacity="0.8" d="M50.2746 125.313L50.5346 127.863C51.2046 128.413 51.7646 129.053 52.2346 129.773C52.2846 129.633 52.3746 129.563 52.5346 129.593C53.2546 129.733 54.7946 132.193 54.7946 138.303C54.7946 144.413 53.3546 148.513 51.9546 151.883C50.5546 155.253 47.3346 160.793 48.1546 164.493C48.1546 164.493 48.2946 165.313 48.6346 165.893C48.8446 166.263 48.7346 166.683 48.3946 166.803C49.8146 168.553 52.0046 169.113 52.0046 169.113V168.243C44.8846 165.543 50.7546 157.743 52.5846 151.873C54.4146 146.003 55.9546 139.933 55.2846 134.353C54.6146 128.783 50.2746 125.313 50.2746 125.313Z" fill="#EA9553"/>
<path opacity="0.7" d="M48.8046 158.083C48.8046 158.083 46.7446 162.493 47.5046 164.723C47.5046 164.723 47.8646 165.693 48.2246 166.133C48.2346 166.143 46.4646 163.793 48.8046 158.083Z" fill="white"/>
<path opacity="0.7" d="M52.9647 130.823C52.9647 130.823 55.4247 134.403 54.0447 142.743L52.9247 148.733C52.9247 148.733 54.4447 143.463 54.6547 138.873C54.9147 133.393 52.9647 130.823 52.9647 130.823Z" fill="white"/>
<path d="M67.1745 166.733C64.8545 163.683 60.4745 163.673 60.4745 163.673H58.7945C58.7945 163.673 54.4145 163.683 52.0945 166.733C49.7745 169.783 52.3045 171.583 55.4545 172.693C55.4545 172.693 58.0445 173.253 58.6045 174.733L59.2445 180.053C59.3545 180.103 59.5145 180.103 59.6045 180.113C59.7545 180.123 59.8945 180.113 60.0245 180.063L60.6645 174.733C61.2145 173.253 63.8145 172.693 63.8145 172.693C66.9645 171.573 69.4945 169.783 67.1745 166.733Z" fill="#CE8453"/>
<path d="M59.7145 180.173C59.6745 180.173 59.6445 180.173 59.6145 180.173H59.5645C59.4645 180.163 59.3345 180.163 59.2245 180.113C59.2045 180.103 59.1845 180.083 59.1845 180.053L58.5445 174.743C58.0045 173.323 55.4745 172.763 55.4545 172.763C52.9845 171.893 51.6045 170.863 51.2345 169.623C50.9645 168.743 51.2445 167.753 52.0545 166.683C54.3645 163.633 58.7645 163.593 58.8045 163.593H60.4845C60.5345 163.593 64.9245 163.633 67.2345 166.683C68.0445 167.743 68.3145 168.733 68.0545 169.623C67.6845 170.863 66.3045 171.883 63.8445 172.753C63.8145 172.763 61.2845 173.323 60.7445 174.743L60.1045 180.063C60.1045 180.093 60.0845 180.113 60.0545 180.123C59.9445 180.163 59.8345 180.173 59.7145 180.173ZM59.3145 179.993C59.3945 180.013 59.4845 180.023 59.5645 180.033H59.6145C59.6445 180.033 59.6745 180.033 59.7045 180.033C59.7945 180.033 59.8745 180.023 59.9545 179.993L60.5845 174.713C60.5845 174.713 60.5845 174.703 60.5845 174.693C61.1445 173.193 63.6745 172.633 63.7845 172.613C66.1645 171.773 67.5445 170.753 67.8945 169.583C68.1445 168.743 67.8745 167.803 67.1045 166.773C64.8345 163.783 60.5145 163.743 60.4645 163.743H58.7945C58.7545 163.743 54.4245 163.783 52.1545 166.773C51.3745 167.793 51.1145 168.743 51.3645 169.583C51.7145 170.753 53.1045 171.783 55.4845 172.623C55.5845 172.643 58.1145 173.203 58.6745 174.703C58.6745 174.703 58.6745 174.713 58.6745 174.723L59.3145 179.993Z" fill="#944A24"/>
<path opacity="0.6" d="M67.1745 166.733C66.5245 165.873 65.7045 165.253 64.8645 164.813C65.5745 165.683 65.8345 166.863 65.3445 167.933C64.1245 170.643 60.8945 171.263 58.2245 171.213C56.3245 171.173 53.2945 171.003 52.2845 169.073C51.9545 168.443 51.9145 167.553 52.1145 166.723C52.1045 166.733 52.1045 166.743 52.0945 166.743C49.7745 169.793 52.3045 171.593 55.4545 172.703C55.4545 172.703 58.0445 173.263 58.6045 174.743L59.2445 180.063C59.3545 180.113 59.5145 180.113 59.6045 180.123C59.7545 180.133 59.8945 180.123 60.0245 180.073L60.6645 174.743C61.2145 173.263 63.8145 172.703 63.8145 172.703C66.9645 171.573 69.4945 169.783 67.1745 166.733Z" fill="#CE8453"/>
<g opacity="0.8">
<path opacity="0.8" d="M59.1644 179.983C59.1544 179.823 59.1244 179.493 59.0844 179.033C59.0344 178.353 58.9444 177.383 58.8244 176.213C58.7844 175.923 58.7544 175.623 58.7144 175.303C58.6944 175.143 58.6744 174.983 58.6544 174.823C58.6444 174.663 58.5944 174.493 58.5144 174.343C58.3544 174.043 58.0644 173.813 57.7744 173.623C57.4744 173.433 57.1444 173.283 56.8144 173.133C56.1344 172.843 55.4244 172.603 54.7044 172.323C53.9944 172.043 53.2744 171.733 52.6444 171.263C52.3344 171.033 52.0544 170.753 51.8344 170.443C51.6144 170.133 51.4544 169.773 51.3744 169.403C51.2944 169.033 51.2944 168.643 51.3744 168.283C51.4944 167.933 51.6344 167.583 51.8244 167.273C51.8644 167.193 51.9144 167.113 51.9644 167.043C52.0144 166.963 52.0644 166.893 52.1144 166.813C52.2244 166.673 52.3244 166.523 52.4444 166.393C52.6744 166.123 52.9244 165.893 53.1844 165.683C53.4444 165.473 53.7144 165.293 53.9844 165.123C54.2544 164.963 54.5244 164.823 54.7944 164.703C55.3244 164.463 55.8344 164.293 56.2944 164.173C56.7544 164.053 57.1644 163.973 57.4944 163.923C58.1644 163.823 58.5644 163.813 58.5644 163.813C58.5644 163.813 58.1744 163.813 57.4944 163.903C57.1544 163.953 56.7444 164.023 56.2844 164.143C55.8244 164.263 55.3044 164.423 54.7744 164.663C54.5044 164.783 54.2344 164.923 53.9644 165.083C53.6944 165.243 53.4244 165.423 53.1644 165.643C52.9044 165.853 52.6444 166.093 52.4144 166.363C52.2944 166.493 52.1944 166.643 52.0844 166.783C52.0344 166.863 51.9844 166.933 51.9344 167.013C51.8844 167.093 51.8344 167.163 51.7944 167.253C51.6044 167.573 51.4644 167.913 51.3344 168.273C51.2544 168.653 51.2544 169.043 51.3344 169.423C51.4144 169.803 51.5744 170.173 51.7944 170.493C52.0144 170.813 52.2944 171.103 52.6144 171.333C53.2444 171.803 53.9744 172.113 54.6944 172.393C55.4144 172.673 56.1344 172.913 56.8044 173.193C57.1344 173.333 57.4644 173.483 57.7644 173.673C58.0544 173.863 58.3344 174.083 58.4844 174.373C58.5644 174.523 58.6144 174.673 58.6244 174.833C58.6444 174.993 58.6644 175.153 58.6844 175.313C58.7244 175.623 58.7644 175.933 58.8044 176.223C58.8644 176.803 58.9244 177.343 58.9744 177.813C59.0244 178.283 59.0644 178.703 59.0944 179.043C59.1244 179.493 59.1544 179.813 59.1644 179.983Z" fill="#EA9553"/>
<path opacity="0.8" d="M59.1344 179.083C59.1744 179.563 59.2044 179.883 59.2144 180.023C59.2044 179.883 59.1844 179.553 59.1444 179.083C59.1144 178.753 59.0944 178.363 59.0544 177.913C59.0144 177.463 58.9744 176.953 58.9244 176.393C58.9044 176.113 58.8644 175.823 58.8344 175.523C58.8144 175.373 58.8044 175.223 58.7844 175.063C58.7744 174.983 58.7644 174.903 58.7544 174.823L58.7444 174.703L58.7144 174.583C58.6344 174.263 58.4244 173.983 58.1644 173.773C57.9044 173.553 57.6044 173.383 57.2944 173.223C56.6644 172.913 55.9844 172.663 55.3144 172.373C54.6444 172.083 53.9644 171.763 53.3844 171.303C53.0944 171.073 52.8444 170.803 52.6344 170.503C52.4344 170.193 52.2844 169.853 52.2044 169.503C52.1244 169.153 52.1044 168.783 52.1544 168.433C52.1644 168.253 52.2444 168.093 52.2944 167.923C52.3544 167.753 52.4244 167.593 52.4944 167.443C52.7944 166.813 53.1944 166.263 53.6544 165.823C53.7644 165.703 53.8944 165.613 54.0044 165.503C54.1244 165.413 54.2444 165.313 54.3644 165.223C54.6044 165.043 54.8644 164.903 55.1044 164.773C55.6044 164.513 56.0744 164.333 56.5144 164.193C56.9444 164.063 57.3344 163.973 57.6544 163.923C58.2944 163.813 58.6744 163.813 58.6744 163.813C58.6744 163.813 58.3044 163.813 57.6544 163.913C57.3344 163.963 56.9444 164.043 56.5144 164.173C56.0744 164.303 55.5944 164.483 55.0944 164.743C54.8444 164.873 54.5944 165.023 54.3444 165.193C54.2144 165.273 54.1044 165.373 53.9744 165.463C53.8544 165.563 53.7344 165.663 53.6244 165.783C53.3844 166.003 53.1744 166.253 52.9744 166.523C52.7744 166.793 52.5944 167.093 52.4444 167.413C52.3744 167.573 52.3044 167.733 52.2344 167.903C52.1844 168.073 52.1044 168.233 52.0844 168.423C52.0344 168.783 52.0544 169.153 52.1344 169.513C52.2144 169.873 52.3644 170.223 52.5644 170.543C52.7744 170.853 53.0244 171.133 53.3244 171.373C53.9144 171.833 54.6044 172.153 55.2744 172.443C55.9544 172.733 56.6344 172.973 57.2544 173.283C57.5644 173.443 57.8644 173.603 58.1244 173.823C58.3844 174.033 58.5944 174.303 58.6644 174.603L58.6944 174.723L58.7044 174.843C58.7144 174.923 58.7244 175.003 58.7344 175.073C58.7544 175.223 58.7744 175.383 58.7844 175.523C58.8244 175.823 58.8544 176.113 58.8844 176.393C58.9344 176.953 58.9844 177.463 59.0344 177.903C59.0744 178.363 59.1044 178.753 59.1344 179.083Z" fill="#EA9553"/>
<path opacity="0.8" d="M59.1044 178.013C59.1444 178.443 59.1644 178.823 59.1944 179.133C59.2344 179.613 59.2544 179.933 59.2644 180.053C59.2544 179.933 59.2344 179.613 59.2044 179.133C59.1644 178.513 59.1044 177.633 59.0144 176.563C58.9744 176.033 58.9044 175.463 58.8544 174.853C58.8444 174.703 58.8144 174.543 58.7544 174.393C58.6944 174.243 58.6044 174.113 58.5044 173.983C58.2944 173.733 58.0244 173.533 57.7444 173.363C57.1744 173.013 56.5344 172.753 55.9044 172.463C55.2744 172.163 54.6344 171.843 54.1044 171.383C53.5644 170.933 53.1744 170.303 53.0144 169.633C52.9344 169.303 52.9044 168.953 52.9244 168.613C52.9344 168.443 52.9544 168.283 53.0144 168.123C53.0444 168.043 53.0644 167.963 53.0844 167.883C53.1144 167.803 53.1444 167.723 53.1744 167.653C53.4044 167.033 53.7444 166.483 54.1344 166.013C54.5344 165.553 54.9744 165.183 55.4244 164.903C55.8744 164.623 56.3244 164.423 56.7244 164.273C57.1344 164.123 57.4944 164.033 57.8044 163.973C58.1044 163.913 58.3544 163.883 58.5144 163.863C58.6844 163.843 58.7744 163.843 58.7744 163.843C58.7744 163.843 58.6844 163.843 58.5144 163.853C58.3444 163.863 58.1044 163.893 57.8044 163.953C57.5044 164.013 57.1344 164.103 56.7244 164.243C56.3144 164.383 55.8644 164.583 55.4144 164.863C54.9644 165.143 54.5044 165.513 54.1044 165.983C53.7144 166.453 53.3644 167.003 53.1244 167.633C53.0944 167.713 53.0644 167.793 53.0344 167.863C53.0144 167.943 52.9844 168.023 52.9644 168.103C52.9044 168.263 52.8844 168.443 52.8744 168.613C52.8544 168.953 52.8744 169.313 52.9544 169.653C53.1144 170.343 53.5044 170.983 54.0544 171.443C54.6044 171.903 55.2444 172.233 55.8744 172.523C56.5044 172.823 57.1444 173.073 57.7144 173.413C57.9944 173.583 58.2644 173.783 58.4644 174.023C58.5644 174.143 58.6444 174.273 58.7044 174.423C58.7544 174.573 58.7944 174.713 58.8044 174.863C58.8644 175.473 58.9344 176.043 58.9744 176.573C59.0244 177.093 59.0644 177.583 59.1044 178.013Z" fill="#EA9553"/>
<path opacity="0.8" d="M59.1645 178.113C59.1945 178.523 59.2145 178.883 59.2445 179.173C59.2745 179.653 59.2945 179.963 59.3045 180.063C59.3045 179.963 59.2845 179.653 59.2545 179.173C59.2345 178.873 59.2145 178.523 59.1945 178.103C59.1645 177.693 59.1345 177.233 59.0945 176.723C59.0545 176.223 59.0145 175.673 58.9645 175.093C58.9545 174.943 58.9445 174.803 58.9245 174.653C58.9045 174.503 58.8545 174.353 58.7845 174.213C58.6445 173.933 58.4245 173.703 58.1745 173.503C57.6645 173.113 57.0645 172.833 56.4845 172.523C55.8945 172.213 55.3045 171.883 54.8145 171.423C54.3145 170.973 53.9745 170.363 53.8245 169.723C53.7445 169.403 53.7145 169.073 53.7145 168.753C53.7145 168.593 53.7245 168.433 53.7545 168.273C53.7945 168.123 53.8345 167.963 53.8745 167.813C54.0645 167.213 54.3245 166.653 54.6545 166.173C54.8145 165.933 54.9945 165.723 55.1845 165.523C55.3745 165.333 55.5645 165.143 55.7745 164.993C56.1745 164.683 56.5845 164.453 56.9545 164.293C57.3345 164.133 57.6745 164.023 57.9645 163.953C58.2545 163.883 58.4845 163.853 58.6345 163.833C58.7945 163.813 58.8745 163.813 58.8745 163.813C58.8745 163.813 58.7945 163.813 58.6345 163.833C58.4745 163.843 58.2445 163.883 57.9545 163.943C57.6645 164.013 57.3245 164.113 56.9445 164.273C56.5645 164.433 56.1545 164.653 55.7445 164.963C55.5345 165.113 55.3445 165.293 55.1545 165.493C54.9645 165.693 54.7845 165.913 54.6145 166.153C54.2845 166.633 54.0145 167.193 53.8245 167.803C53.7745 167.953 53.7345 168.113 53.6945 168.263C53.6645 168.423 53.6545 168.583 53.6545 168.753C53.6445 169.083 53.6845 169.413 53.7645 169.743C53.9145 170.393 54.2645 171.013 54.7645 171.483C55.2645 171.943 55.8745 172.273 56.4645 172.583C57.0545 172.893 57.6545 173.173 58.1545 173.553C58.4045 173.743 58.6145 173.973 58.7545 174.243C58.8245 174.373 58.8745 174.523 58.8845 174.663C58.9045 174.803 58.9145 174.953 58.9245 175.103C58.9745 175.683 59.0145 176.223 59.0545 176.733C59.0945 177.233 59.1345 177.703 59.1645 178.113Z" fill="#EA9553"/>
<path opacity="0.8" d="M59.0244 175.343C59.0644 175.893 59.1044 176.413 59.1344 176.893C59.1644 177.373 59.2044 177.813 59.2244 178.203C59.2544 178.593 59.2744 178.933 59.2844 179.213C59.3144 179.683 59.3344 179.983 59.3344 180.073C59.3344 179.993 59.3144 179.693 59.2944 179.213C59.2844 178.933 59.2644 178.593 59.2444 178.193C59.2344 177.803 59.1944 177.363 59.1644 176.883C59.1344 176.403 59.0944 175.883 59.0544 175.333C59.0444 175.193 59.0344 175.053 59.0244 174.913C59.0144 174.773 59.0044 174.623 58.9644 174.483C58.9044 174.193 58.7444 173.923 58.5344 173.703C58.1244 173.253 57.5644 172.943 57.0244 172.613C56.4844 172.293 55.9344 171.953 55.4844 171.493C55.0344 171.043 54.7344 170.453 54.5944 169.843C54.5244 169.543 54.4844 169.223 54.4744 168.913C54.4744 168.603 54.4744 168.303 54.5744 168.013C54.6144 167.863 54.6544 167.723 54.6844 167.583C54.6944 167.513 54.7244 167.443 54.7544 167.373C54.7844 167.303 54.8044 167.233 54.8344 167.173C54.8844 167.033 54.9344 166.903 54.9944 166.773C55.0544 166.643 55.1144 166.523 55.1844 166.403C55.2144 166.343 55.2444 166.283 55.2744 166.223C55.3144 166.163 55.3544 166.113 55.3844 166.053C55.4544 165.943 55.5244 165.823 55.6044 165.723C55.7744 165.523 55.9144 165.323 56.1044 165.163C56.4444 164.823 56.8144 164.573 57.1544 164.383C57.2444 164.343 57.3244 164.293 57.4044 164.253C57.4844 164.213 57.5744 164.183 57.6444 164.153C57.7944 164.083 57.9544 164.043 58.0844 163.993C58.3544 163.913 58.5744 163.873 58.7244 163.853C58.8744 163.833 58.9544 163.833 58.9544 163.833C58.9544 163.833 58.8744 163.833 58.7244 163.853C58.5744 163.873 58.3544 163.913 58.0844 163.983C57.9544 164.023 57.7944 164.063 57.6444 164.133C57.5644 164.163 57.4844 164.193 57.3944 164.233C57.3144 164.273 57.2244 164.313 57.1344 164.363C56.7944 164.553 56.4144 164.793 56.0744 165.143C55.8844 165.303 55.7444 165.513 55.5744 165.703C55.4944 165.803 55.4244 165.923 55.3544 166.033C55.3144 166.093 55.2844 166.143 55.2444 166.203C55.2044 166.263 55.1844 166.323 55.1444 166.383C55.0844 166.503 55.0144 166.633 54.9544 166.763C54.8944 166.893 54.8544 167.033 54.7944 167.163C54.7644 167.233 54.7444 167.303 54.7144 167.373C54.6844 167.443 54.6644 167.513 54.6444 167.583C54.6044 167.723 54.5644 167.873 54.5244 168.013C54.4244 168.303 54.4144 168.623 54.4144 168.933C54.4144 169.243 54.4544 169.563 54.5244 169.873C54.6644 170.493 54.9744 171.093 55.4244 171.563C55.8744 172.033 56.4344 172.363 56.9844 172.693C57.5244 173.013 58.0844 173.323 58.4844 173.763C58.6844 173.983 58.8344 174.243 58.9044 174.523C58.9444 174.663 58.9544 174.803 58.9644 174.943C59.0044 175.063 59.0144 175.203 59.0244 175.343Z" fill="#EA9553"/>
<path opacity="0.8" d="M59.1244 175.563C59.1544 176.083 59.1844 176.583 59.2144 177.043C59.2444 177.503 59.2744 177.923 59.2944 178.293C59.3144 178.663 59.3344 178.993 59.3444 179.253C59.3644 179.713 59.3844 180.003 59.3844 180.073C59.3844 180.003 59.3744 179.713 59.3544 179.253C59.3444 178.983 59.3344 178.663 59.3144 178.293C59.3044 177.923 59.2744 177.503 59.2544 177.043C59.2244 176.583 59.2044 176.093 59.1744 175.563C59.1644 175.303 59.1444 175.033 59.1244 174.753C59.0844 174.483 59.0344 174.193 58.8744 173.943C58.7244 173.693 58.5344 173.463 58.3044 173.273C58.0844 173.083 57.8444 172.903 57.5944 172.733C57.1044 172.383 56.5944 172.033 56.2044 171.573C56.1144 171.453 56.0144 171.343 55.9344 171.213C55.8944 171.153 55.8444 171.083 55.8144 171.023L55.7044 170.823C55.5744 170.553 55.4844 170.263 55.4144 169.973C55.3444 169.683 55.3144 169.383 55.2944 169.093C55.2844 168.803 55.2844 168.503 55.3344 168.223C55.3644 168.083 55.3944 167.943 55.4244 167.803C55.4544 167.663 55.4744 167.533 55.5244 167.393C55.5644 167.263 55.6044 167.133 55.6444 167.003C55.6644 166.943 55.6844 166.873 55.7044 166.813C55.7344 166.753 55.7544 166.693 55.7844 166.633C55.8344 166.513 55.8844 166.393 55.9344 166.273C55.9944 166.163 56.0544 166.053 56.1144 165.943C56.2244 165.723 56.3744 165.533 56.5044 165.343C56.5744 165.253 56.6544 165.173 56.7244 165.093C56.7644 165.053 56.7944 165.013 56.8344 164.973C56.8744 164.933 56.9144 164.903 56.9544 164.863C57.0344 164.793 57.1044 164.723 57.1744 164.653C57.2544 164.593 57.3344 164.533 57.4044 164.483C57.7144 164.273 58.0044 164.123 58.2544 164.033C58.3744 163.983 58.4944 163.953 58.5944 163.923C58.6944 163.903 58.7844 163.883 58.8544 163.873C58.9944 163.853 59.0744 163.843 59.0744 163.843C59.0744 163.843 58.9944 163.843 58.8544 163.863C58.7844 163.873 58.6944 163.893 58.5944 163.913C58.4944 163.943 58.3744 163.973 58.2544 164.023C58.0044 164.113 57.7044 164.263 57.3944 164.463C57.0844 164.663 56.7744 164.973 56.4844 165.323C56.3544 165.513 56.1944 165.703 56.0844 165.923C56.0244 166.033 55.9644 166.143 55.9044 166.253C55.8544 166.373 55.8044 166.493 55.7544 166.613C55.7244 166.673 55.7044 166.733 55.6744 166.793C55.6444 166.853 55.6344 166.923 55.6044 166.983C55.5644 167.113 55.5244 167.243 55.4844 167.373C55.4344 167.503 55.4144 167.643 55.3844 167.783C55.3544 167.923 55.3244 168.063 55.2944 168.203C55.2444 168.493 55.2444 168.783 55.2544 169.083C55.2644 169.383 55.3044 169.683 55.3744 169.973C55.4444 170.273 55.5344 170.563 55.6644 170.843L55.7744 171.053C55.8144 171.123 55.8544 171.183 55.8944 171.253C55.9744 171.383 56.0744 171.503 56.1744 171.623C56.5844 172.093 57.0944 172.443 57.5844 172.793C58.0744 173.133 58.5744 173.493 58.8544 173.983C59.0044 174.223 59.0644 174.503 59.0944 174.773C59.0944 175.033 59.1144 175.303 59.1244 175.563Z" fill="#EA9553"/>
<path opacity="0.8" d="M59.1244 174.403C59.1344 174.473 59.1444 174.533 59.1544 174.603C59.1744 174.733 59.1744 174.863 59.1844 175.003C59.1944 175.263 59.2144 175.523 59.2244 175.773C59.2444 176.273 59.2744 176.753 59.2944 177.183C59.3744 178.833 59.4344 179.963 59.4444 180.083C59.4444 179.953 59.3944 178.823 59.3344 177.173C59.3144 176.733 59.2944 176.263 59.2744 175.763C59.2644 175.513 59.2544 175.253 59.2444 174.993C59.2344 174.863 59.2344 174.733 59.2144 174.593C59.2044 174.523 59.2044 174.453 59.1844 174.393C59.1644 174.323 59.1444 174.263 59.1344 174.193C59.0444 173.933 58.9144 173.673 58.7344 173.453C58.5544 173.233 58.3444 173.033 58.1244 172.843C57.9044 172.653 57.6844 172.463 57.4744 172.273C57.2644 172.073 57.0644 171.863 56.8944 171.633C56.7344 171.403 56.5744 171.153 56.4744 170.883L56.3944 170.683C56.3744 170.613 56.3444 170.553 56.3244 170.483C56.2844 170.343 56.2544 170.203 56.2144 170.073C56.1044 169.513 56.0644 168.943 56.1044 168.403C56.1144 168.263 56.1444 168.133 56.1644 168.003C56.1844 167.873 56.2144 167.743 56.2344 167.613C56.2844 167.353 56.3544 167.113 56.4144 166.863C56.4544 166.743 56.4944 166.633 56.5344 166.513C56.5744 166.403 56.6044 166.283 56.6644 166.173C56.7644 165.963 56.8444 165.743 56.9644 165.563C57.1744 165.173 57.4244 164.863 57.6744 164.613C57.9244 164.363 58.1944 164.193 58.4144 164.073C58.6444 163.953 58.8344 163.903 58.9644 163.873C59.0944 163.843 59.1744 163.843 59.1744 163.843C59.1744 163.843 59.1044 163.843 58.9644 163.873C58.8344 163.903 58.6344 163.953 58.4044 164.073C58.1844 164.193 57.9044 164.353 57.6544 164.603C57.4044 164.853 57.1344 165.163 56.9244 165.553C56.8044 165.743 56.7244 165.953 56.6244 166.163C56.5744 166.273 56.5444 166.383 56.4944 166.503C56.4544 166.623 56.4144 166.733 56.3744 166.853C56.3144 167.093 56.2344 167.343 56.1844 167.603C56.1644 167.733 56.1344 167.863 56.1144 167.993C56.0944 168.123 56.0544 168.263 56.0544 168.393C56.0144 168.943 56.0444 169.513 56.1544 170.083C56.1944 170.223 56.2244 170.363 56.2644 170.503C56.2844 170.573 56.3044 170.643 56.3344 170.713L56.4144 170.913C56.5144 171.193 56.6644 171.443 56.8444 171.683C57.0244 171.923 57.2244 172.133 57.4344 172.333C57.6444 172.533 57.8744 172.713 58.0844 172.903C58.3044 173.093 58.5044 173.283 58.6844 173.503C58.8644 173.713 58.9944 173.963 59.0744 174.223C59.0844 174.273 59.1044 174.343 59.1244 174.403Z" fill="#EA9553"/>
<path opacity="0.8" d="M59.2344 174.453C59.2744 174.713 59.2744 174.963 59.2844 175.213C59.2944 175.463 59.3044 175.713 59.3144 175.953C59.3344 176.433 59.3444 176.883 59.3644 177.303C59.4344 178.903 59.4744 179.993 59.4844 180.083C59.4844 179.993 59.4544 178.903 59.4044 177.303C59.3944 176.883 59.3744 176.433 59.3644 175.953C59.3544 175.713 59.3444 175.463 59.3444 175.213C59.3344 174.963 59.3344 174.703 59.3044 174.443C59.2644 174.183 59.1944 173.923 59.0644 173.673C58.9444 173.433 58.7744 173.203 58.6044 172.993C58.2444 172.573 57.8444 172.183 57.5644 171.703C57.4844 171.583 57.4344 171.463 57.3644 171.343C57.3144 171.213 57.2544 171.083 57.2144 170.953C57.1744 170.823 57.1344 170.693 57.0944 170.553C57.0644 170.423 57.0344 170.283 57.0144 170.153C56.9244 169.613 56.8944 169.073 56.9044 168.553C56.9044 168.293 56.9544 168.043 56.9844 167.793C57.0044 167.673 57.0144 167.543 57.0444 167.423C57.0644 167.303 57.0944 167.183 57.1144 167.063C57.2044 166.593 57.3344 166.163 57.4844 165.763C57.6444 165.383 57.8144 165.033 58.0144 164.753C58.0644 164.683 58.1044 164.613 58.1644 164.553C58.2144 164.493 58.2644 164.433 58.3144 164.383C58.3644 164.333 58.4144 164.283 58.4644 164.233C58.5144 164.183 58.5644 164.153 58.6144 164.113C58.8144 163.963 58.9844 163.883 59.1144 163.853C59.2344 163.813 59.3144 163.813 59.3144 163.813C59.3144 163.813 59.2444 163.813 59.1144 163.853C58.9844 163.893 58.8144 163.973 58.6144 164.113C58.5644 164.153 58.5044 164.183 58.4644 164.233C58.4144 164.273 58.3644 164.323 58.3044 164.373C58.2544 164.423 58.2044 164.483 58.1544 164.543C58.1044 164.603 58.0544 164.673 58.0044 164.743C57.7944 165.013 57.6244 165.363 57.4644 165.753C57.3144 166.143 57.1844 166.583 57.0844 167.053C57.0644 167.173 57.0344 167.293 57.0144 167.413C56.9944 167.533 56.9744 167.663 56.9544 167.783C56.9244 168.033 56.8744 168.283 56.8744 168.553C56.8544 169.083 56.8844 169.623 56.9844 170.173C57.0144 170.303 57.0344 170.443 57.0644 170.583C57.1044 170.713 57.1444 170.853 57.1844 170.983C57.2244 171.123 57.2844 171.243 57.3344 171.373C57.4044 171.503 57.4544 171.633 57.5344 171.743C57.8244 172.233 58.2344 172.623 58.5844 173.033C58.7644 173.243 58.9244 173.463 59.0444 173.703C59.1244 173.943 59.1944 174.203 59.2344 174.453Z" fill="#EA9553"/>
<path opacity="0.8" d="M59.3544 174.673C59.3744 175.173 59.3844 175.663 59.3944 176.123C59.4044 176.583 59.4244 177.023 59.4344 177.423C59.4844 178.993 59.5144 180.043 59.5144 180.103C59.5144 180.043 59.4944 178.993 59.4644 177.423C59.4544 177.023 59.4444 176.583 59.4344 176.123C59.4244 175.663 59.4144 175.173 59.3944 174.673C59.3844 174.423 59.3544 174.163 59.2844 173.913C59.2144 173.663 59.1144 173.413 58.9844 173.183C58.8544 172.953 58.7044 172.723 58.5644 172.503C58.4244 172.273 58.2844 172.043 58.1844 171.803C58.0644 171.563 57.9844 171.313 57.9144 171.053C57.8544 170.793 57.7944 170.533 57.7644 170.273C57.6944 169.753 57.6644 169.233 57.6644 168.733C57.6644 168.483 57.6744 168.233 57.7044 167.993C57.7344 167.753 57.7444 167.513 57.7844 167.283C57.8144 167.053 57.8444 166.833 57.8844 166.623C57.9244 166.413 57.9644 166.203 58.0144 166.013C58.0344 165.913 58.0644 165.823 58.0844 165.723C58.1144 165.633 58.1444 165.543 58.1644 165.453C58.2144 165.283 58.2844 165.123 58.3444 164.963C58.4744 164.663 58.6144 164.413 58.7644 164.233C58.9144 164.053 59.0644 163.943 59.1744 163.883C59.2844 163.823 59.3544 163.823 59.3544 163.823C59.3544 163.823 59.2844 163.823 59.1744 163.883C59.0644 163.933 58.9044 164.053 58.7544 164.223C58.6044 164.403 58.4544 164.653 58.3144 164.943C58.2544 165.093 58.1744 165.253 58.1244 165.433C58.0944 165.523 58.0644 165.613 58.0344 165.703C58.0044 165.793 57.9844 165.893 57.9644 165.993C57.9144 166.183 57.8744 166.393 57.8344 166.603C57.7844 166.813 57.7644 167.043 57.7244 167.273C57.6844 167.503 57.6744 167.733 57.6444 167.973C57.6144 168.213 57.6044 168.463 57.6044 168.713C57.5944 169.213 57.6244 169.743 57.6944 170.263C57.7244 170.523 57.7844 170.783 57.8444 171.053C57.9144 171.313 57.9944 171.573 58.1144 171.813C58.2244 172.063 58.3644 172.293 58.5044 172.523C58.6444 172.753 58.7944 172.963 58.9244 173.193C59.0544 173.423 59.1544 173.663 59.2244 173.913C59.3044 174.173 59.3444 174.423 59.3544 174.673Z" fill="#EA9553"/>
<path opacity="0.8" d="M59.3444 173.733C59.3644 173.853 59.3844 173.983 59.4044 174.103C59.4244 174.223 59.4244 174.353 59.4344 174.473C59.4444 174.593 59.4544 174.713 59.4544 174.843C59.4744 175.813 59.4844 176.723 59.5044 177.503C59.5444 179.043 59.5644 180.073 59.5644 180.103C59.5644 180.073 59.5544 179.043 59.5444 177.503C59.5344 176.723 59.5244 175.813 59.5144 174.843C59.5144 174.723 59.5044 174.593 59.4944 174.473C59.4844 174.353 59.4844 174.223 59.4644 174.103C59.4444 173.983 59.4244 173.853 59.4044 173.723C59.3844 173.593 59.3444 173.473 59.3144 173.353C59.1644 172.863 58.9444 172.383 58.8144 171.893C58.7344 171.643 58.6944 171.393 58.6444 171.133C58.6044 170.883 58.5844 170.623 58.5544 170.373C58.5244 170.123 58.5144 169.863 58.5044 169.613C58.4944 169.363 58.4844 169.113 58.4844 168.873C58.4744 168.383 58.5144 167.913 58.5344 167.473C58.5544 167.253 58.5744 167.033 58.5844 166.823C58.6044 166.613 58.6344 166.413 58.6544 166.223C58.7144 165.843 58.7644 165.483 58.8344 165.173C58.8944 164.863 58.9844 164.603 59.0644 164.393C59.1444 164.183 59.2444 164.033 59.3344 163.943C59.3744 163.903 59.4144 163.873 59.4444 163.853C59.4744 163.843 59.4844 163.833 59.4844 163.833C59.4844 163.833 59.4644 163.833 59.4444 163.853C59.4144 163.863 59.3744 163.893 59.3344 163.933C59.2544 164.023 59.1444 164.173 59.0644 164.383C58.9744 164.593 58.8844 164.853 58.8144 165.163C58.7344 165.473 58.6744 165.823 58.6144 166.213C58.5944 166.403 58.5644 166.603 58.5444 166.813C58.5244 167.023 58.5044 167.243 58.4844 167.463C58.4544 167.913 58.4144 168.383 58.4244 168.873C58.4244 169.113 58.4244 169.363 58.4444 169.613C58.4544 169.863 58.4544 170.113 58.4944 170.373C58.5244 170.633 58.5344 170.883 58.5844 171.143C58.6344 171.393 58.6744 171.653 58.7544 171.903C58.8944 172.413 59.1244 172.883 59.2644 173.363C59.2844 173.483 59.3244 173.603 59.3444 173.733Z" fill="#EA9553"/>
<path opacity="0.8" d="M59.5744 163.833C59.5744 163.833 59.5344 163.883 59.5044 164.003C59.4744 164.113 59.4444 164.293 59.4244 164.513C59.3744 164.953 59.3344 165.593 59.3044 166.353C59.2944 166.733 59.2744 167.153 59.2744 167.593C59.2744 167.813 59.2644 168.033 59.2644 168.263C59.2644 168.493 59.2644 168.723 59.2644 168.963C59.2644 169.443 59.2844 169.933 59.3044 170.433C59.3144 170.683 59.3144 170.933 59.3344 171.183C59.3544 171.433 59.3744 171.693 59.3944 171.943C59.4144 172.193 59.4544 172.453 59.4744 172.703C59.5044 172.953 59.5244 173.203 59.5544 173.453L59.5744 173.643L59.5844 173.833C59.5944 173.953 59.5944 174.083 59.5944 174.203C59.6044 174.453 59.6144 174.693 59.6144 174.933C59.6144 175.893 59.6144 176.783 59.6144 177.543C59.6144 179.073 59.6044 180.093 59.6044 180.093C59.6044 180.093 59.5944 179.073 59.5744 177.543C59.5644 176.783 59.5644 175.883 59.5544 174.933C59.5544 174.693 59.5444 174.453 59.5344 174.203C59.5344 174.083 59.5244 173.953 59.5244 173.833L59.5144 173.643L59.4944 173.453C59.4644 173.203 59.4444 172.953 59.4144 172.703C59.3844 172.453 59.3444 172.203 59.3244 171.943C59.3044 171.693 59.2844 171.433 59.2644 171.183C59.2444 170.933 59.2544 170.673 59.2444 170.423C59.2344 169.923 59.2144 169.423 59.2144 168.943C59.2144 168.703 59.2144 168.473 59.2144 168.243C59.2244 168.013 59.2244 167.783 59.2244 167.573C59.2344 167.133 59.2544 166.723 59.2644 166.333C59.2844 165.953 59.3044 165.603 59.3244 165.293C59.3544 164.983 59.3744 164.713 59.4044 164.493C59.4344 164.273 59.4644 164.103 59.4944 163.983C59.5344 163.883 59.5744 163.823 59.5744 163.833Z" fill="#EA9553"/>
<path opacity="0.8" d="M59.6744 163.833C59.6744 163.833 59.7144 163.883 59.7444 164.003C59.7744 164.123 59.8044 164.293 59.8344 164.513C59.8644 164.733 59.8944 165.003 59.9144 165.313C59.9344 165.623 59.9644 165.973 59.9744 166.353C59.9944 166.733 60.0044 167.153 60.0144 167.593C60.0244 167.813 60.0244 168.033 60.0344 168.263C60.0344 168.493 60.0344 168.723 60.0344 168.963C60.0344 169.443 60.0144 169.933 60.0044 170.443C59.9944 170.693 60.0044 170.943 59.9744 171.203C59.9544 171.453 59.9344 171.713 59.9144 171.963C59.8944 172.213 59.8544 172.473 59.8244 172.723C59.7944 172.973 59.7644 173.223 59.7444 173.473L59.7244 173.663L59.7144 173.853C59.7144 173.973 59.7044 174.103 59.6944 174.223C59.6844 174.473 59.6744 174.713 59.6744 174.953C59.6644 175.903 59.6644 176.803 59.6544 177.563C59.6344 179.093 59.6244 180.113 59.6244 180.113C59.6244 180.113 59.6244 179.093 59.6144 177.563C59.6144 176.793 59.6144 175.903 59.6144 174.953C59.6144 174.713 59.6244 174.473 59.6344 174.223C59.6344 174.103 59.6444 173.973 59.6444 173.853L59.6544 173.663L59.6744 173.473C59.7044 173.223 59.7244 172.973 59.7544 172.723C59.7844 172.473 59.8244 172.223 59.8444 171.963C59.8644 171.713 59.8844 171.453 59.9044 171.203C59.9244 170.953 59.9244 170.703 59.9344 170.453C59.9444 169.953 59.9744 169.453 59.9744 168.983C59.9744 168.743 59.9744 168.513 59.9744 168.283C59.9744 168.053 59.9644 167.833 59.9644 167.613C59.9544 167.173 59.9444 166.763 59.9244 166.373C59.8944 165.613 59.8544 164.973 59.8044 164.533C59.7744 164.313 59.7544 164.133 59.7244 164.023C59.7244 163.883 59.6844 163.823 59.6744 163.833Z" fill="#EA9553"/>
<path opacity="0.8" d="M59.7745 163.833C59.7745 163.833 59.7945 163.833 59.8145 163.853C59.8445 163.863 59.8845 163.893 59.9245 163.933C60.0045 164.023 60.1145 164.173 60.1945 164.383C60.2845 164.593 60.3745 164.853 60.4445 165.163C60.5245 165.473 60.5844 165.823 60.6444 166.213C60.6644 166.403 60.6944 166.603 60.7144 166.813C60.7344 167.023 60.7545 167.243 60.7745 167.463C60.8045 167.913 60.8444 168.383 60.8344 168.873C60.8344 169.113 60.8245 169.363 60.8145 169.613C60.8045 169.863 60.7945 170.113 60.7645 170.373C60.7345 170.633 60.7145 170.883 60.6745 171.143C60.6245 171.393 60.5844 171.653 60.5044 171.903C60.3644 172.413 60.1345 172.883 59.9945 173.363C59.9645 173.483 59.9244 173.603 59.9044 173.733C59.8844 173.853 59.8645 173.983 59.8445 174.103C59.8245 174.223 59.8245 174.353 59.8145 174.473C59.8045 174.593 59.7944 174.713 59.7944 174.843C59.7744 175.813 59.7645 176.723 59.7445 177.503C59.7045 179.063 59.6844 180.103 59.6844 180.103C59.6844 180.103 59.6945 179.063 59.7045 177.503C59.7145 176.723 59.7245 175.813 59.7345 174.843C59.7345 174.723 59.7444 174.593 59.7544 174.473C59.7644 174.353 59.7644 174.223 59.7844 174.103C59.8044 173.983 59.8245 173.853 59.8445 173.723C59.8645 173.593 59.9044 173.473 59.9344 173.353C60.0844 172.863 60.3044 172.383 60.4344 171.893C60.5144 171.643 60.5545 171.393 60.6045 171.133C60.6445 170.883 60.6645 170.623 60.6945 170.373C60.7345 170.123 60.7345 169.863 60.7445 169.613C60.7545 169.363 60.7645 169.113 60.7645 168.873C60.7745 168.383 60.7344 167.913 60.7144 167.473C60.6944 167.253 60.6745 167.033 60.6645 166.823C60.6445 166.613 60.6145 166.413 60.5945 166.223C60.5345 165.843 60.4845 165.483 60.4145 165.173C60.3445 164.863 60.2644 164.603 60.1844 164.393C60.0944 164.183 60.0045 164.033 59.9145 163.943C59.8745 163.903 59.8345 163.873 59.8045 163.853C59.7945 163.833 59.7745 163.833 59.7745 163.833Z" fill="#EA9553"/>
<path opacity="0.8" d="M59.8844 163.833C59.8844 163.833 59.9544 163.833 60.0644 163.893C60.1744 163.943 60.3344 164.063 60.4844 164.233C60.6344 164.413 60.7844 164.663 60.9244 164.953C60.9844 165.103 61.0644 165.263 61.1144 165.443C61.1444 165.533 61.1744 165.623 61.2044 165.713C61.2244 165.803 61.2544 165.903 61.2744 166.003C61.3244 166.193 61.3644 166.403 61.4044 166.613C61.4544 166.823 61.4744 167.053 61.5144 167.283C61.5544 167.513 61.5744 167.743 61.5944 167.983C61.6244 168.223 61.6344 168.473 61.6344 168.723C61.6444 169.223 61.6144 169.753 61.5444 170.273C61.5144 170.533 61.4544 170.793 61.3944 171.063C61.3244 171.323 61.2444 171.583 61.1244 171.823C61.0144 172.073 60.8744 172.303 60.7344 172.533C60.5844 172.763 60.4344 172.973 60.3144 173.203C60.1844 173.433 60.0844 173.673 60.0144 173.923C59.9444 174.173 59.9144 174.423 59.8944 174.673C59.8744 175.173 59.8644 175.663 59.8544 176.123C59.8444 176.583 59.8244 177.023 59.8144 177.423C59.7644 179.033 59.7244 180.103 59.7244 180.103C59.7244 180.103 59.7444 179.033 59.7744 177.423C59.7844 177.023 59.7944 176.583 59.8044 176.123C59.8144 175.663 59.8244 175.173 59.8444 174.673C59.8544 174.423 59.8944 174.163 59.9544 173.913C60.0244 173.663 60.1244 173.413 60.2544 173.183C60.3844 172.953 60.5344 172.723 60.6744 172.503C60.8144 172.273 60.9444 172.043 61.0544 171.803C61.1744 171.563 61.2544 171.313 61.3244 171.053C61.3844 170.793 61.4444 170.533 61.4744 170.273C61.5444 169.753 61.5744 169.233 61.5744 168.733C61.5744 168.483 61.5644 168.233 61.5344 167.993C61.5044 167.753 61.4944 167.513 61.4544 167.283C61.4144 167.053 61.3944 166.833 61.3544 166.623C61.3144 166.413 61.2744 166.203 61.2244 166.013C61.2044 165.913 61.1744 165.823 61.1544 165.723C61.1244 165.633 61.0944 165.543 61.0644 165.453C61.0144 165.283 60.9444 165.123 60.8844 164.963C60.7544 164.663 60.6144 164.413 60.4644 164.233C60.3144 164.053 60.1644 163.943 60.0544 163.883C59.9444 163.833 59.8844 163.833 59.8844 163.833Z" fill="#EA9553"/>
<path opacity="0.8" d="M59.9844 163.833C59.9844 163.833 60.0544 163.833 60.1844 163.873C60.3144 163.913 60.4844 163.993 60.6844 164.133C60.7344 164.173 60.7844 164.203 60.8344 164.253C60.8844 164.293 60.9344 164.343 60.9944 164.393C61.0444 164.443 61.0944 164.503 61.1444 164.563C61.2044 164.623 61.2444 164.693 61.2944 164.763C61.5044 165.033 61.6744 165.383 61.8344 165.773C61.9844 166.163 62.1144 166.603 62.2144 167.073C62.2444 167.193 62.2644 167.313 62.2844 167.433C62.3144 167.553 62.3244 167.683 62.3444 167.803C62.3744 168.053 62.4244 168.303 62.4244 168.573C62.4444 169.103 62.4144 169.643 62.3244 170.193C62.2944 170.323 62.2744 170.463 62.2444 170.603C62.2044 170.733 62.1644 170.873 62.1244 171.003C62.0844 171.143 62.0244 171.263 61.9744 171.393C61.9144 171.513 61.8544 171.643 61.7744 171.763C61.4844 172.253 61.0744 172.643 60.7144 173.053C60.5344 173.263 60.3744 173.483 60.2544 173.723C60.1244 173.963 60.0644 174.213 60.0144 174.473C59.9744 174.733 59.9744 174.983 59.9644 175.233C59.9544 175.483 59.9444 175.733 59.9344 175.973C59.9144 176.453 59.8944 176.903 59.8844 177.323C59.8144 178.993 59.7644 180.113 59.7644 180.113C59.7644 180.113 59.7944 178.993 59.8444 177.323C59.8544 176.903 59.8744 176.453 59.8844 175.973C59.8944 175.733 59.9044 175.483 59.9044 175.233C59.9144 174.983 59.9144 174.723 59.9444 174.463C59.9844 174.203 60.0544 173.943 60.1844 173.693C60.3044 173.453 60.4644 173.223 60.6444 173.013C61.0044 172.593 61.4044 172.203 61.6844 171.723C61.7644 171.603 61.8144 171.483 61.8844 171.363C61.9344 171.233 62.0044 171.103 62.0344 170.973C62.0744 170.843 62.1144 170.713 62.1544 170.573C62.1844 170.443 62.2144 170.303 62.2344 170.173C62.3244 169.633 62.3544 169.093 62.3444 168.573C62.3444 168.313 62.2944 168.063 62.2644 167.813C62.2444 167.693 62.2344 167.563 62.2144 167.443C62.1944 167.323 62.1644 167.203 62.1444 167.083C62.0544 166.613 61.9144 166.183 61.7744 165.783C61.6144 165.403 61.4544 165.053 61.2544 164.773C61.2044 164.703 61.1644 164.633 61.1044 164.573C61.0544 164.513 61.0044 164.453 60.9544 164.403C60.9044 164.353 60.8544 164.303 60.8044 164.253C60.7544 164.203 60.7044 164.173 60.6544 164.133C60.4544 163.983 60.2844 163.903 60.1544 163.873C60.0544 163.833 59.9844 163.833 59.9844 163.833Z" fill="#EA9553"/>
<path opacity="0.8" d="M63.2045 168.383C63.1945 168.243 63.1644 168.113 63.1444 167.983C63.1244 167.853 63.0944 167.723 63.0744 167.593C63.0244 167.333 62.9445 167.083 62.8845 166.843C62.8445 166.723 62.8045 166.603 62.7645 166.493C62.7245 166.383 62.6945 166.263 62.6345 166.153C62.5345 165.943 62.4444 165.723 62.3344 165.543C62.1244 165.153 61.8645 164.843 61.6045 164.593C61.3545 164.343 61.0745 164.183 60.8545 164.063C60.6245 163.943 60.4244 163.893 60.2944 163.863C60.1544 163.833 60.0844 163.833 60.0844 163.833C60.0844 163.833 60.1544 163.833 60.2944 163.863C60.4244 163.893 60.6245 163.953 60.8445 164.063C61.0645 164.183 61.3344 164.343 61.5844 164.603C61.8344 164.853 62.0944 165.163 62.2944 165.553C62.4144 165.733 62.4945 165.953 62.5945 166.163C62.6445 166.273 62.6744 166.383 62.7144 166.503C62.7544 166.623 62.7944 166.733 62.8344 166.853C62.8944 167.093 62.9645 167.343 63.0145 167.603C63.0345 167.733 63.0644 167.863 63.0844 167.993C63.1044 168.123 63.1444 168.253 63.1444 168.393C63.1844 168.933 63.1544 169.503 63.0344 170.063C62.9944 170.203 62.9645 170.343 62.9245 170.473C62.9045 170.543 62.8845 170.613 62.8545 170.673L62.7745 170.873C62.6745 171.143 62.5145 171.393 62.3545 171.623C62.1845 171.853 61.9845 172.063 61.7745 172.263C61.5645 172.463 61.3445 172.643 61.1245 172.833C60.9145 173.023 60.7045 173.223 60.5245 173.443C60.3445 173.663 60.2145 173.913 60.1245 174.183C60.1045 174.253 60.0844 174.313 60.0744 174.383C60.0644 174.453 60.0544 174.513 60.0444 174.583C60.0244 174.713 60.0245 174.853 60.0145 174.983C60.0045 175.243 59.9945 175.503 59.9845 175.753C59.9645 176.253 59.9445 176.733 59.9245 177.163C59.8545 178.903 59.8145 180.063 59.8145 180.083C59.8145 180.063 59.8744 178.903 59.9644 177.173C59.9844 176.733 60.0044 176.263 60.0344 175.763C60.0444 175.513 60.0544 175.253 60.0744 174.993C60.0844 174.863 60.0845 174.733 60.1045 174.593C60.1145 174.523 60.1245 174.463 60.1345 174.393C60.1545 174.333 60.1744 174.263 60.1844 174.203C60.2744 173.943 60.3944 173.703 60.5844 173.483C60.7644 173.273 60.9644 173.073 61.1844 172.883C61.4044 172.693 61.6245 172.513 61.8445 172.313C62.0545 172.113 62.2644 171.903 62.4344 171.663C62.6044 171.423 62.7544 171.173 62.8644 170.893L62.9445 170.693C62.9745 170.623 62.9945 170.553 63.0145 170.483C63.0545 170.343 63.0845 170.203 63.1245 170.063C63.2145 169.503 63.2445 168.933 63.2045 168.383Z" fill="#EA9553"/>
<path opacity="0.8" d="M63.9744 168.193C63.9444 168.053 63.9144 167.913 63.8844 167.773C63.8544 167.633 63.8344 167.493 63.7844 167.363C63.7444 167.233 63.7044 167.103 63.6544 166.973C63.6344 166.913 63.6144 166.843 63.5944 166.783C63.5644 166.723 63.5444 166.663 63.5144 166.603C63.4644 166.483 63.4144 166.363 63.3644 166.243C63.3044 166.133 63.2444 166.023 63.1844 165.913C63.0744 165.693 62.9144 165.503 62.7844 165.313C62.4944 164.963 62.1844 164.653 61.8744 164.453C61.5644 164.243 61.2744 164.093 61.0144 164.013C60.8944 163.963 60.7744 163.943 60.6744 163.903C60.5744 163.883 60.4844 163.863 60.4144 163.853C60.2744 163.833 60.1944 163.833 60.1944 163.833C60.1944 163.833 60.2744 163.833 60.4144 163.863C60.4844 163.873 60.5744 163.893 60.6744 163.913C60.7744 163.943 60.8944 163.973 61.0144 164.023C61.2644 164.113 61.5544 164.263 61.8644 164.473C61.9344 164.533 62.0144 164.583 62.0944 164.643C62.1744 164.713 62.2444 164.783 62.3244 164.853C62.3644 164.893 62.4044 164.923 62.4444 164.963C62.4844 165.003 62.5144 165.043 62.5544 165.083C62.6244 165.163 62.7044 165.243 62.7744 165.333C62.9044 165.523 63.0544 165.713 63.1644 165.933C63.2244 166.043 63.2844 166.153 63.3444 166.263C63.3944 166.383 63.4444 166.503 63.4944 166.623C63.5244 166.683 63.5444 166.743 63.5744 166.803C63.6044 166.863 63.6144 166.933 63.6344 166.993C63.6744 167.123 63.7144 167.253 63.7544 167.383C63.8044 167.513 63.8244 167.653 63.8544 167.793C63.8844 167.933 63.9144 168.073 63.9444 168.213C63.9944 168.493 63.9944 168.783 63.9844 169.083C63.9744 169.373 63.9344 169.673 63.8644 169.963C63.7944 170.253 63.7044 170.543 63.5744 170.813L63.4744 171.013C63.4444 171.073 63.3944 171.143 63.3544 171.203C63.2744 171.333 63.1744 171.443 63.0844 171.563C62.6844 172.023 62.1844 172.383 61.6944 172.723C61.4444 172.893 61.2044 173.073 60.9844 173.263C60.7544 173.453 60.5644 173.683 60.4144 173.933C60.2544 174.183 60.2044 174.473 60.1644 174.743C60.1444 175.023 60.1344 175.293 60.1244 175.553C60.0944 176.083 60.0644 176.573 60.0344 177.033C60.0044 177.493 59.9844 177.913 59.9744 178.283C59.9644 178.653 59.9444 178.983 59.9344 179.243C59.9144 179.753 59.9044 180.043 59.9044 180.083C59.9044 180.053 59.9244 179.753 59.9544 179.253C59.9644 178.983 59.9844 178.663 60.0044 178.293C60.0244 177.923 60.0544 177.503 60.0844 177.043C60.1144 176.583 60.1444 176.083 60.1744 175.563C60.1944 175.303 60.2044 175.033 60.2244 174.753C60.2644 174.483 60.3144 174.203 60.4644 173.963C60.7544 173.463 61.2444 173.113 61.7344 172.773C62.2244 172.433 62.7344 172.073 63.1444 171.603C63.2344 171.483 63.3444 171.363 63.4144 171.233C63.4544 171.163 63.4944 171.103 63.5344 171.033L63.6444 170.823C63.7744 170.543 63.8744 170.253 63.9344 169.953C64.0044 169.653 64.0344 169.353 64.0444 169.063C64.0244 168.773 64.0244 168.483 63.9744 168.193Z" fill="#EA9553"/>
<path opacity="0.8" d="M64.7044 168.003C64.6644 167.853 64.6244 167.713 64.5944 167.573C64.5744 167.503 64.5544 167.433 64.5244 167.363C64.4944 167.293 64.4744 167.223 64.4444 167.153C64.3944 167.013 64.3444 166.883 64.2844 166.753C64.2244 166.623 64.1544 166.503 64.0944 166.373C64.0644 166.313 64.0344 166.253 63.9944 166.193C63.9544 166.133 63.9144 166.083 63.8844 166.023C63.8044 165.913 63.7444 165.793 63.6644 165.693C63.4944 165.493 63.3444 165.293 63.1644 165.133C62.8244 164.783 62.4444 164.543 62.1044 164.353C62.0144 164.313 61.9344 164.263 61.8444 164.223C61.7644 164.183 61.6744 164.153 61.6044 164.123C61.4444 164.053 61.2944 164.013 61.1644 163.973C60.8944 163.903 60.6744 163.863 60.5244 163.843C60.3744 163.823 60.2944 163.823 60.2944 163.823C60.2944 163.823 60.3744 163.823 60.5244 163.843C60.6744 163.863 60.8944 163.903 61.1644 163.983C61.2944 164.033 61.4444 164.063 61.6044 164.143C61.6844 164.183 61.7644 164.203 61.8444 164.243C61.9244 164.283 62.0144 164.333 62.0944 164.373C62.4344 164.563 62.8044 164.813 63.1444 165.153C63.3244 165.313 63.4744 165.513 63.6444 165.713C63.7244 165.813 63.7844 165.933 63.8644 166.043C63.9044 166.093 63.9344 166.153 63.9744 166.213C64.0144 166.273 64.0344 166.333 64.0644 166.393C64.1244 166.513 64.1844 166.643 64.2544 166.763C64.3144 166.893 64.3544 167.023 64.4144 167.163C64.4444 167.233 64.4644 167.293 64.4944 167.363C64.5244 167.433 64.5444 167.503 64.5644 167.573C64.6044 167.713 64.6344 167.863 64.6744 168.003C64.7744 168.293 64.7744 168.593 64.7744 168.903C64.7644 169.213 64.7344 169.523 64.6544 169.833C64.5144 170.443 64.2044 171.033 63.7544 171.483C63.3144 171.943 62.7544 172.283 62.2144 172.603C61.6744 172.933 61.1144 173.233 60.7044 173.693C60.4944 173.913 60.3444 174.183 60.2744 174.473C60.2344 174.613 60.2344 174.763 60.2244 174.903C60.2144 175.043 60.2044 175.183 60.1944 175.323C60.1544 175.873 60.1244 176.393 60.0944 176.883C60.0644 177.363 60.0244 177.803 60.0144 178.193C59.9944 178.583 59.9744 178.923 59.9644 179.213C59.9444 179.703 59.9244 180.013 59.9244 180.083C59.9244 180.013 59.9444 179.703 59.9744 179.213C59.9944 178.933 60.0144 178.593 60.0344 178.203C60.0544 177.813 60.0944 177.373 60.1244 176.893C60.1644 176.413 60.1944 175.893 60.2344 175.343C60.2444 175.203 60.2544 175.063 60.2644 174.923C60.2744 174.783 60.2844 174.643 60.3244 174.503C60.3944 174.223 60.5444 173.963 60.7444 173.743C61.1544 173.303 61.7044 173.003 62.2444 172.673C62.7844 172.353 63.3444 172.013 63.8044 171.543C64.2644 171.073 64.5644 170.473 64.7044 169.853C64.7744 169.543 64.8144 169.223 64.8144 168.913C64.8144 168.613 64.8044 168.293 64.7044 168.003Z" fill="#EA9553"/>
<path opacity="0.8" d="M65.5645 168.273C65.5245 168.113 65.4844 167.963 65.4344 167.813C65.2444 167.203 64.9744 166.643 64.6444 166.163C64.4744 165.923 64.2945 165.703 64.1045 165.503C63.9145 165.303 63.7145 165.123 63.5145 164.973C63.1144 164.663 62.6945 164.443 62.3145 164.283C61.9345 164.123 61.5844 164.023 61.2944 163.953C61.0044 163.893 60.7744 163.853 60.6144 163.843C60.4544 163.823 60.3745 163.823 60.3745 163.823C60.3745 163.823 60.4544 163.823 60.6144 163.843C60.7744 163.863 61.0044 163.893 61.2844 163.963C61.5744 164.033 61.9144 164.143 62.2944 164.303C62.6744 164.473 63.0744 164.693 63.4744 165.003C63.6744 165.153 63.8645 165.333 64.0545 165.533C64.2345 165.733 64.4244 165.953 64.5844 166.183C64.9144 166.663 65.1745 167.223 65.3545 167.823C65.4045 167.973 65.4345 168.133 65.4845 168.283C65.5045 168.443 65.5245 168.603 65.5245 168.763C65.5345 169.083 65.4945 169.413 65.4145 169.733C65.2645 170.373 64.9145 170.983 64.4245 171.433C63.9345 171.893 63.3344 172.223 62.7544 172.533C62.1644 172.843 61.5645 173.123 61.0645 173.513C60.8145 173.713 60.5945 173.943 60.4545 174.223C60.3845 174.363 60.3345 174.513 60.3145 174.663C60.2945 174.813 60.2845 174.963 60.2745 175.103C60.2245 175.683 60.1844 176.233 60.1444 176.733C60.1044 177.243 60.0644 177.703 60.0444 178.113C60.0244 178.523 60.0045 178.883 59.9845 179.183C59.9545 179.683 59.9344 180.003 59.9344 180.083C59.9344 180.003 59.9645 179.683 59.9945 179.183C60.0145 178.893 60.0445 178.533 60.0645 178.123C60.1045 177.713 60.1344 177.253 60.1844 176.743C60.2244 176.243 60.2744 175.693 60.3244 175.113C60.3344 174.973 60.3444 174.823 60.3644 174.673C60.3844 174.533 60.4344 174.383 60.5044 174.253C60.6344 173.983 60.8545 173.753 61.1045 173.563C61.6045 173.183 62.2044 172.903 62.7944 172.593C63.3844 172.283 63.9845 171.953 64.4845 171.493C64.9845 171.033 65.3345 170.413 65.4845 169.753C65.5645 169.423 65.5945 169.093 65.5945 168.763C65.6045 168.593 65.5845 168.433 65.5645 168.273Z" fill="#EA9553"/>
<path opacity="0.8" d="M66.3944 168.603C66.3844 168.433 66.3544 168.253 66.3044 168.093C66.2744 168.013 66.2544 167.933 66.2244 167.853C66.1944 167.773 66.1644 167.693 66.1344 167.623C65.9044 167.003 65.5544 166.443 65.1544 165.973C64.7544 165.513 64.3044 165.133 63.8444 164.853C63.3944 164.573 62.9444 164.373 62.5344 164.233C62.1244 164.093 61.7544 164.003 61.4544 163.943C61.1544 163.883 60.9044 163.863 60.7444 163.843C60.5744 163.833 60.4944 163.833 60.4944 163.833C60.4944 163.833 60.5844 163.833 60.7444 163.853C60.9144 163.873 61.1544 163.903 61.4544 163.963C61.7544 164.023 62.1244 164.113 62.5344 164.263C62.9444 164.413 63.3844 164.613 63.8344 164.893C64.2844 165.173 64.7244 165.543 65.1244 166.003C65.5144 166.463 65.8544 167.023 66.0844 167.643C66.1144 167.723 66.1444 167.803 66.1744 167.873C66.1944 167.953 66.2244 168.033 66.2444 168.113C66.3044 168.273 66.3244 168.433 66.3344 168.603C66.3544 168.943 66.3344 169.293 66.2444 169.623C66.0844 170.293 65.7044 170.923 65.1544 171.373C64.6144 171.833 63.9844 172.153 63.3544 172.453C62.7244 172.743 62.0844 173.013 61.5144 173.353C61.2244 173.523 60.9644 173.723 60.7544 173.973C60.6544 174.103 60.5644 174.233 60.5044 174.383C60.4444 174.533 60.4144 174.693 60.4044 174.843C60.3444 175.453 60.2744 176.023 60.2344 176.553C60.1444 177.613 60.0944 178.503 60.0444 179.123C60.0144 179.633 59.9944 179.953 59.9844 180.063C59.9944 179.963 60.0144 179.633 60.0544 179.123C60.0744 178.813 60.1144 178.433 60.1444 178.003C60.1844 177.573 60.2244 177.083 60.2644 176.553C60.3044 176.023 60.3744 175.453 60.4344 174.843C60.4444 174.693 60.4744 174.543 60.5344 174.403C60.5944 174.263 60.6744 174.133 60.7744 174.003C60.9844 173.763 61.2444 173.563 61.5244 173.393C62.0944 173.053 62.7344 172.793 63.3644 172.503C63.9944 172.213 64.6444 171.893 65.1844 171.423C65.7344 170.963 66.1244 170.323 66.2844 169.633C66.3944 169.303 66.4144 168.943 66.3944 168.603Z" fill="#EA9553"/>
<path opacity="0.8" d="M67.1644 168.443C67.1444 168.263 67.0644 168.093 67.0144 167.923C66.9544 167.753 66.8844 167.593 66.8044 167.433C66.6544 167.123 66.4744 166.823 66.2744 166.543C66.0744 166.273 65.8644 166.023 65.6244 165.803C65.5144 165.683 65.3844 165.593 65.2644 165.483C65.1444 165.393 65.0244 165.293 64.8944 165.213C64.6444 165.033 64.3944 164.893 64.1444 164.763C63.6444 164.503 63.1644 164.323 62.7244 164.193C62.2844 164.063 61.9044 163.983 61.5744 163.933C60.9344 163.833 60.5544 163.833 60.5544 163.833C60.5544 163.833 60.9344 163.833 61.5744 163.943C61.8944 164.003 62.2844 164.083 62.7144 164.213C63.1444 164.343 63.6244 164.533 64.1244 164.793C64.3644 164.923 64.6244 165.073 64.8644 165.243C64.9844 165.323 65.1044 165.423 65.2344 165.523C65.3444 165.623 65.4744 165.723 65.5844 165.843C66.0444 166.283 66.4444 166.833 66.7444 167.463C66.8144 167.623 66.8844 167.783 66.9444 167.943C66.9944 168.113 67.0744 168.273 67.0844 168.453C67.1244 168.803 67.1144 169.173 67.0344 169.523C66.9544 169.873 66.8144 170.223 66.6044 170.523C66.4044 170.823 66.1444 171.103 65.8544 171.323C65.2744 171.783 64.5944 172.103 63.9244 172.393C63.2544 172.683 62.5744 172.933 61.9444 173.243C61.6344 173.403 61.3244 173.573 61.0644 173.793C60.8044 174.003 60.5844 174.283 60.5144 174.603L60.4944 174.723L60.4844 174.843C60.4744 174.923 60.4644 175.003 60.4544 175.083C60.4344 175.233 60.4244 175.393 60.4044 175.543C60.3744 175.843 60.3344 176.133 60.3144 176.413C60.2644 176.963 60.2244 177.483 60.1844 177.933C60.1544 178.383 60.1244 178.783 60.0944 179.103C60.0544 179.613 60.0344 179.953 60.0244 180.073C60.0344 179.953 60.0644 179.613 60.1044 179.103C60.1344 178.783 60.1644 178.383 60.2044 177.933C60.2444 177.483 60.2944 176.973 60.3444 176.423C60.3644 176.143 60.4044 175.853 60.4444 175.553C60.4644 175.403 60.4844 175.253 60.4944 175.103C60.5044 175.023 60.5144 174.943 60.5244 174.873L60.5344 174.753L60.5644 174.633C60.6444 174.323 60.8444 174.063 61.1044 173.853C61.3644 173.643 61.6644 173.473 61.9744 173.313C62.5944 173.003 63.2744 172.763 63.9544 172.473C64.6244 172.183 65.3144 171.873 65.9044 171.403C66.1944 171.163 66.4544 170.893 66.6644 170.573C66.8744 170.263 67.0144 169.913 67.0944 169.543C67.1944 169.173 67.2144 168.803 67.1644 168.443Z" fill="#EA9553"/>
<path opacity="0.8" d="M67.9244 168.273C67.7944 167.913 67.6544 167.563 67.4644 167.253C67.4244 167.173 67.3744 167.093 67.3244 167.013C67.2744 166.933 67.2244 166.863 67.1744 166.783C67.0644 166.643 66.9644 166.493 66.8444 166.363C66.6144 166.093 66.3544 165.863 66.1044 165.643C65.8444 165.433 65.5744 165.253 65.3044 165.083C65.0344 164.923 64.7644 164.783 64.4944 164.663C63.9544 164.423 63.4444 164.263 62.9844 164.143C62.5244 164.023 62.1144 163.953 61.7744 163.903C61.0944 163.813 60.7044 163.813 60.7044 163.813C60.7044 163.813 61.0944 163.813 61.7744 163.923C62.1144 163.973 62.5144 164.053 62.9744 164.173C63.4344 164.293 63.9444 164.463 64.4744 164.703C64.7444 164.823 65.0144 164.963 65.2844 165.123C65.5544 165.293 65.8244 165.463 66.0844 165.683C66.3344 165.893 66.5944 166.123 66.8244 166.393C66.9444 166.523 67.0444 166.673 67.1544 166.813C67.2044 166.893 67.2544 166.963 67.3044 167.043C67.3544 167.123 67.4044 167.193 67.4444 167.273C67.6344 167.583 67.7644 167.933 67.8944 168.283C67.9744 168.643 67.9644 169.033 67.8944 169.403C67.8144 169.773 67.6644 170.133 67.4444 170.443C67.2244 170.753 66.9444 171.033 66.6344 171.263C66.0144 171.723 65.2944 172.033 64.5844 172.323C63.8744 172.603 63.1544 172.843 62.4744 173.133C62.1344 173.273 61.8144 173.433 61.5144 173.623C61.2144 173.813 60.9344 174.043 60.7744 174.343C60.6944 174.493 60.6444 174.663 60.6344 174.823C60.6144 174.983 60.5944 175.143 60.5744 175.303C60.5344 175.613 60.4944 175.913 60.4644 176.213C60.3444 177.373 60.2644 178.353 60.2044 179.033C60.1644 179.543 60.1344 179.893 60.1244 180.033C60.1344 179.893 60.1644 179.543 60.2144 179.033C60.2444 178.693 60.2844 178.283 60.3344 177.803C60.3844 177.333 60.4444 176.793 60.5044 176.213C60.5444 175.923 60.5844 175.623 60.6244 175.303C60.6444 175.143 60.6644 174.983 60.6844 174.823C60.6944 174.663 60.7444 174.503 60.8244 174.363C60.9844 174.073 61.2544 173.853 61.5444 173.663C61.8444 173.483 62.1644 173.323 62.5044 173.183C63.1744 172.903 63.8944 172.663 64.6144 172.383C65.3244 172.103 66.0544 171.793 66.6944 171.323C67.0044 171.083 67.2844 170.803 67.5144 170.483C67.7344 170.163 67.8944 169.793 67.9744 169.413C68.0044 169.043 68.0144 168.653 67.9244 168.273Z" fill="#EA9553"/>
</g>
<g opacity="0.6">
<path opacity="0.6" d="M57.5745 173.553C58.0345 173.853 58.4345 174.233 58.6145 174.723L58.6845 175.293C58.7945 175.143 58.9345 175.003 59.1045 174.903C59.6945 174.563 60.4045 174.973 60.5645 175.643L60.6745 174.723C60.9545 173.983 61.7345 173.473 62.4445 173.153C61.9145 173.343 60.5645 173.803 59.5845 173.833C58.4945 173.873 57.7445 173.623 57.5745 173.553Z" fill="#CE8453"/>
</g>
<path d="M52.2344 167.043C52.2344 167.043 54.6144 163.073 62.0944 164.043C62.0944 164.043 54.4044 164.293 52.5644 168.843C52.5644 168.843 52.1644 167.903 52.2344 167.043Z" fill="#CE8453"/>
<path d="M58.8445 175.363L59.3445 179.933C59.3445 179.933 59.5645 180.003 59.6145 179.933C59.6645 179.863 59.2345 175.003 59.2345 175.003C59.2345 175.003 58.9645 175.023 58.8445 175.363Z" fill="#CE8453"/>
</svg>
