<svg width="120" height="324" viewBox="0 0 120 324" fill="none" xmlns="http://www.w3.org/2000/svg">
<mask id="mask0_2749_486231" style="mask-type:alpha" maskUnits="userSpaceOnUse" x="80" y="73" width="31" height="76">
<rect x="80.7885" y="76.2401" width="18.2688" height="72.8034" transform="rotate(-9.64275 80.7885 76.2401)" fill="url(#paint0_linear_2749_486231)"/>
</mask>
<g mask="url(#mask0_2749_486231)">
<path d="M95.1062 74.7444C96.0362 76.5344 97.1162 78.0744 98.5462 79.1444C98.5462 79.1444 96.9162 77.4944 95.4562 74.6744C95.3462 74.7044 95.2262 74.7244 95.1062 74.7444Z" fill="#9A200B"/>
<path d="M96.5263 78.9044C96.3463 78.7544 96.2163 78.5344 96.1063 78.2644C95.7363 77.3844 95.6463 75.8044 95.5663 75.5344L96.0763 75.9344C96.0763 75.9344 96.0763 75.8044 96.0763 75.9344C96.0163 77.7244 96.5263 78.9044 96.5263 78.9044Z" fill="#9A200B"/>
<path d="M103.826 144.775C103.826 144.765 103.956 142.865 103.776 141.375C103.736 141.045 103.736 140.765 103.746 140.545C103.796 139.965 103.956 139.675 104.026 139.575L104.056 139.535L103.846 139.285C103.816 139.315 103.486 139.685 103.426 140.555C103.406 140.815 103.416 141.115 103.456 141.465C103.626 142.905 103.826 144.775 103.826 144.775Z" fill="#9A200B"/>
<path d="M105.146 139.304C104.656 137.774 103.556 137.574 103.526 137.574L103.446 137.924C103.446 137.924 103.666 137.964 103.966 138.174C104.266 138.384 104.616 138.764 104.846 139.454C105.076 140.174 105.356 141.824 105.626 141.944C105.626 141.934 105.386 140.034 105.146 139.304Z" fill="#9A200B"/>
<path d="M101.906 136.285C102.936 137.465 103.956 139.065 104.036 140.575C104.106 141.705 104.346 143.375 104.646 145.095C104.806 145.055 104.956 145.025 105.116 144.985C104.886 143.245 104.756 141.595 104.686 140.445C104.436 136.875 99.6462 133.385 99.6462 133.385L99.4962 133.985C99.8262 134.275 100.876 135.095 101.906 136.285Z" fill="#EC412F"/>
<path d="M101.866 136.325C102.896 137.505 103.906 139.095 103.986 140.575C104.056 141.705 104.296 143.375 104.596 145.095C104.636 145.085 104.666 145.075 104.706 145.065C104.406 143.345 104.166 141.675 104.096 140.545C104.006 139.005 102.976 137.415 101.946 136.225C100.946 135.065 99.9063 134.245 99.5563 133.945L99.6763 133.475C100.236 133.905 104.406 137.155 104.636 140.445C104.706 141.595 104.836 143.245 105.066 144.985C105.106 144.975 105.136 144.965 105.176 144.965C104.946 143.225 104.816 141.585 104.746 140.425C104.486 136.805 99.6863 133.335 99.6863 133.325L99.6263 133.275L99.4463 133.995L99.4663 134.015C99.7863 134.325 100.846 135.145 101.866 136.325Z" fill="#A92714"/>
<path d="M104.526 143.304C104.506 143.774 104.626 144.464 104.766 145.054C104.816 145.044 104.856 145.034 104.906 145.024C104.766 144.014 104.636 142.664 104.636 141.604C104.636 140.464 104.466 139.674 103.976 138.724C104.016 139.124 104.056 139.524 104.096 139.934C104.496 141.314 104.556 142.624 104.526 143.304Z" fill="#F4523D"/>
<path d="M102.356 136.314C101.586 135.374 100.836 134.634 100.836 134.634C100.796 134.594 100.766 134.574 100.756 134.574C100.716 134.574 101.296 135.254 102.406 136.684C102.386 136.554 102.366 136.434 102.356 136.314Z" fill="#F4523D"/>
<path d="M103.636 128.865C103.736 128.265 103.776 127.645 103.776 127.035C103.756 124.715 103.076 122.375 102.406 120.615C101.736 118.845 101.076 117.675 101.066 117.675L101.366 117.495C101.366 117.505 104.066 122.275 104.116 127.035C104.116 127.665 104.076 128.305 103.976 128.925C103.116 134.115 102.716 140.725 102.736 143.785C102.726 143.785 102.446 136.405 103.636 128.865Z" fill="#9A200B"/>
<path d="M97.0762 104.275C97.0762 103.755 97.0362 103.265 96.9162 102.835C96.8562 102.585 96.8262 102.305 96.8262 101.995C96.8262 100.605 97.4162 98.8645 97.4162 98.8645L97.0962 98.7445C97.0962 98.7545 96.4862 100.515 96.4762 101.995C96.4762 102.325 96.5062 102.645 96.5862 102.935C96.6962 103.305 96.7262 103.775 96.7262 104.275C96.7262 105.615 96.6062 107.845 96.6062 107.845C96.7662 107.225 97.0762 105.665 97.0762 104.275Z" fill="#9A200B"/>
<path d="M96.9863 104.044C96.9463 104.084 95.9863 105.414 95.2063 105.774L96.7063 103.824L96.9863 104.044Z" fill="#9A200B"/>
<path d="M88.6162 91.0944C88.6162 91.8844 88.4362 92.6444 88.1162 93.4644C88.1162 93.4644 89.1562 90.0344 86.7262 87.1344C86.3962 86.5744 86.2662 85.9544 86.2662 85.3444C86.2862 82.6644 88.6562 79.9444 88.6662 79.9244L89.0262 80.3144C89.0062 80.3344 88.4462 80.9944 87.8862 81.9544C87.3162 82.9244 86.7562 84.2044 86.7662 85.3544C86.7662 85.8744 86.8862 86.3744 87.1462 86.8344C88.1362 88.5244 88.6162 89.8244 88.6162 91.0944Z" fill="#EC412F"/>
<path d="M88.6462 91.0945C88.6462 91.8945 88.4662 92.6645 88.1462 93.4845L88.0762 93.4545C88.0962 93.3645 88.2962 92.6745 88.2962 91.6845C88.2962 90.4445 87.9962 88.7345 86.6962 87.1845C86.3562 86.6145 86.2162 85.9845 86.2162 85.3645V85.3545C86.2262 84.0045 86.8362 82.6445 87.4262 81.6245C87.7262 81.1145 88.0262 80.6845 88.2562 80.3845C88.3662 80.2345 88.4562 80.1145 88.5262 80.0345L88.6062 79.9345L88.6262 79.9045L88.6462 79.8445L89.0262 80.2545L89.0662 80.2045V80.2945L89.0862 80.3145L89.0662 80.3345V80.4245L89.0262 80.3745C88.8962 80.5245 88.4062 81.1345 87.9162 81.9745C87.3562 82.9345 86.8062 84.2045 86.8062 85.3345V85.3445C86.8062 85.8645 86.9162 86.3545 87.1762 86.8045C88.1762 88.5045 88.6462 89.8045 88.6462 91.0945ZM88.5662 91.0945C88.5662 89.8345 88.1062 88.5445 87.1062 86.8545C86.8262 86.3845 86.7162 85.8745 86.7162 85.3445V85.3345C86.7162 84.1745 87.2762 82.9045 87.8462 81.9245C88.3462 81.0745 88.8362 80.4645 88.9662 80.3145L88.6662 79.9945C88.3562 80.3945 86.3262 82.8845 86.3062 85.3545C86.3062 85.9645 86.4362 86.5645 86.7662 87.1145C88.0762 88.6845 88.3762 90.4145 88.3762 91.6745C88.3762 92.1445 88.3362 92.5545 88.2862 92.8645C88.4662 92.2545 88.5662 91.6845 88.5662 91.0945Z" fill="#A92714"/>
<path d="M86.9062 86.7045C86.8862 86.7745 86.8562 86.8345 86.8162 86.8945C86.9262 87.0345 87.0662 87.1645 87.2762 87.4745C87.8162 88.2745 88.2562 89.8345 88.3262 90.3245C88.3262 90.3645 88.3362 90.3845 88.3362 90.3845C88.3362 90.3845 88.2862 90.0245 88.1762 89.5245C87.9362 88.9045 87.7162 88.2645 87.5262 87.6145C87.4162 87.4145 87.3062 87.2345 87.1762 87.0845C87.0762 86.9845 86.9862 86.8545 86.9062 86.7045ZM86.7862 83.5245C86.5862 84.0945 86.4662 84.7045 86.5062 85.2745C86.5662 86.0745 86.6162 86.4445 86.7062 86.6745C86.7362 86.5945 86.7662 86.5145 86.7962 86.4345C86.5562 85.7645 86.5562 84.8745 86.8262 83.8445C86.7962 83.7345 86.7962 83.6245 86.7862 83.5245ZM87.9862 81.2045C87.9862 81.2045 87.6462 81.6745 87.2862 82.3545C87.2862 82.3945 87.2862 82.4345 87.2962 82.4745C87.4862 82.0645 87.7162 81.6345 87.9862 81.2045Z" fill="#F4523D"/>
<path d="M103.056 117.084C103.056 117.074 102.106 115.664 101.536 114.364C101.086 113.334 99.8363 112.804 99.6063 112.714L99.5663 112.694L99.6963 112.294L99.7463 112.314C100.026 112.424 101.386 112.964 101.956 114.214C102.486 115.464 103.056 117.084 103.056 117.084Z" fill="#9A200B"/>
<path d="M97.6862 113.064C97.4462 112.414 97.5562 111.744 97.7562 111.164C98.0362 110.344 98.5062 109.724 98.5062 109.714L98.8762 109.984C98.8762 109.984 98.7662 110.134 98.6262 110.374C98.4862 110.614 98.3162 110.944 98.1862 111.324C98.0062 111.854 97.9262 112.444 98.1162 112.944C98.6562 114.394 98.5962 115.834 98.4162 116.384C98.4062 116.384 98.1962 114.394 97.6862 113.064Z" fill="#9A200B"/>
<path d="M104.236 121.794C101.276 118.324 99.7063 116.724 99.1763 112.534C98.9363 110.634 97.6163 108.604 96.3163 107.064C95.0263 105.524 92.7863 103.314 92.7863 103.314L94.3863 103.864C94.4063 103.904 99.3463 108.364 99.6562 112.154C100.106 117.514 104.236 121.794 104.236 121.794Z" fill="#EC412F"/>
<path d="M104.236 121.795L104.296 121.755L104.186 121.845C104.186 121.845 103.886 121.525 103.426 120.965C100.946 118.075 99.5862 116.385 99.1062 112.545C98.8662 110.675 97.5462 108.645 96.2662 107.105C94.9862 105.565 92.7462 103.365 92.7462 103.365L92.8162 103.245L94.4462 103.805L94.4562 103.825L94.4962 103.865C94.5262 103.905 94.5862 103.955 94.6562 104.025C94.7962 104.155 94.9962 104.345 95.2262 104.595C95.6962 105.075 96.3262 105.755 96.9662 106.555C98.2462 108.155 99.5662 110.225 99.7362 112.145C100.056 116.015 102.306 119.325 103.516 120.845C103.766 121.135 104.016 121.435 104.286 121.745L104.236 121.795ZM96.3762 107.015C97.6762 108.555 99.0062 110.605 99.2462 112.525C99.6362 115.625 100.596 117.295 102.276 119.375C101.116 117.605 99.8262 115.035 99.5862 112.155C99.2962 108.585 94.8262 104.385 94.3562 103.925L93.0562 103.475C93.6562 104.075 95.3262 105.765 96.3762 107.015Z" fill="#A92714"/>
<path d="M94.8263 105.044C94.8263 105.044 96.7463 107.104 97.9463 108.794C99.1363 110.484 99.1563 112.484 99.4163 113.134C99.6763 113.784 100.326 116.414 100.796 116.934C100.836 116.974 100.856 116.994 100.866 116.994C100.896 116.994 100.876 116.884 100.816 116.704C100.216 115.354 99.7263 113.804 99.5963 112.154C99.5763 111.854 99.5163 111.554 99.4363 111.244C98.5263 108.894 95.5063 105.204 94.8263 105.044Z" fill="#F4523D"/>
<path d="M99.4263 111.245C99.5063 111.545 99.5663 111.855 99.5863 112.155C99.7263 113.805 100.206 115.345 100.806 116.705C100.566 115.935 99.7163 113.835 99.6763 112.315C99.6763 112.005 99.5863 111.645 99.4263 111.245Z" fill="#BD3B27"/>
<path d="M97.9263 135.614C97.9263 135.614 97.1262 132.654 96.5162 129.964C95.9562 127.444 96.3563 121.864 96.3263 121.564L96.6663 121.594C96.6563 121.674 96.2563 127.264 96.8463 129.884C97.4463 132.564 97.9263 135.614 97.9263 135.614Z" fill="#9A200B"/>
<path d="M96.0662 139.555C97.0062 141.855 98.4462 143.975 99.8762 146.235C100.176 146.155 100.476 146.075 100.776 146.005C99.8562 144.405 98.7462 142.455 97.3762 139.765C95.4962 136.085 94.5762 130.515 93.9062 126.595C92.8662 120.445 93.2062 115.175 93.4462 112.955C93.5262 112.215 93.5862 111.835 93.5862 111.835L92.2362 111.395C92.2262 111.475 91.1162 118.315 92.5662 126.905C93.2562 130.995 93.9762 134.435 96.0662 139.555Z" fill="#EC412F"/>
<path d="M95.9662 139.604C96.9062 141.914 98.3462 144.024 99.7562 146.264C99.8362 146.244 99.9062 146.224 99.9862 146.204C98.5462 143.924 97.0962 141.804 96.1562 139.504C94.0762 134.394 93.3662 130.974 92.6662 126.874C91.3362 118.964 92.1762 112.544 92.3262 111.544L93.4562 111.914C93.4462 111.954 93.4362 112.014 93.4362 112.084C93.4062 112.274 93.3762 112.554 93.3362 112.924C93.1062 115.154 92.7562 120.434 93.7962 126.594V126.604C93.8162 126.704 93.8362 126.824 93.8462 126.934C94.5062 130.824 95.4262 136.204 97.2662 139.814C98.6362 142.484 99.7362 144.434 100.656 146.034C100.736 146.014 100.806 145.994 100.886 145.974C99.9662 144.364 98.8462 142.404 97.4662 139.694C95.6562 136.144 94.7262 130.784 94.0762 126.894C94.0562 126.784 94.0362 126.674 94.0162 126.564V126.554C92.9762 120.424 93.3162 115.174 93.5562 112.964C93.6362 112.254 93.6962 111.874 93.6962 111.854L93.5962 111.824L93.6862 111.884C93.6762 111.884 93.6862 111.914 93.6062 111.944L93.5862 111.824L93.6162 111.704L92.1562 111.224L92.1362 111.354C92.1262 111.434 91.0062 118.294 92.4662 126.914C93.1562 131.014 93.8762 134.474 95.9662 139.604Z" fill="#A92714"/>
<path d="M92.2263 119.924C92.0163 116.984 92.0263 114.104 92.4463 111.744C92.4263 111.684 92.4063 111.624 92.3863 111.564L92.3363 111.554C92.2263 112.274 91.7663 115.794 92.0063 120.654C92.0563 120.394 92.1363 120.154 92.2263 119.924Z" fill="#CD332A"/>
<path d="M92.8363 119.404C92.9363 120.544 93.0963 122.354 93.3263 124.444C93.3463 124.124 93.3563 123.804 93.3763 123.484C93.2063 121.864 93.1263 120.334 93.0963 118.964C93.0063 119.104 92.9163 119.254 92.8363 119.404Z" fill="#CD332A"/>
<path d="M93.0863 118.395C93.0763 116.535 93.1563 114.965 93.2563 113.825C93.1463 113.555 93.0363 113.275 92.9263 113.005C92.7763 114.845 92.6363 117.245 92.7863 118.845C92.8863 118.685 92.9863 118.535 93.0863 118.395Z" fill="#CD332A"/>
<path d="M92.2362 121.284C92.2062 121.634 92.1662 121.984 92.1162 122.314C92.2262 123.754 92.4062 125.284 92.6762 126.874C92.9062 128.254 93.1462 129.564 93.4362 130.874C93.3862 130.254 93.3562 129.644 93.3362 129.024C93.3162 128.884 93.2862 128.754 93.2662 128.604C92.9062 126.404 92.7362 125.054 92.6362 124.024C92.5062 122.964 92.3862 121.894 92.2962 120.814C92.2562 120.974 92.2362 121.124 92.2362 121.284Z" fill="#CD332A"/>
<path d="M95.6962 136.924C95.7462 136.974 95.7962 137.084 95.8362 137.264C95.8462 137.284 95.8462 137.304 95.8562 137.324C95.9262 137.484 95.9962 137.654 96.0662 137.824C96.2162 137.964 96.3962 138.124 96.5862 138.284C96.0062 136.834 95.5362 135.204 95.1362 133.564C95.2262 134.534 95.3462 135.504 95.5162 136.424C95.5762 136.594 95.6362 136.764 95.6962 136.924Z" fill="#CD332A"/>
<path d="M99.8563 145.684C98.7263 144.134 97.3163 141.664 96.1763 139.094C96.2063 139.194 96.2363 139.284 96.2763 139.384C96.5163 140.034 96.7463 140.654 96.9563 141.224C97.8263 142.894 98.9063 144.514 99.9763 146.214C100.036 146.204 100.096 146.184 100.146 146.174C100.066 146.004 99.9563 145.834 99.8563 145.684Z" fill="#CD332A"/>
<path d="M100.396 145.754C100.386 145.674 100.376 145.594 100.366 145.514C99.5162 144.024 98.4962 142.204 97.2762 139.814C97.0862 139.444 96.9062 139.044 96.7262 138.634L96.2762 138.304C97.3762 140.644 98.9862 143.374 100.396 145.754Z" fill="#CD332A"/>
<path d="M92.0363 122.724C92.1563 124.044 92.3263 125.444 92.5663 126.894C92.8463 128.534 93.1263 130.064 93.4963 131.644C93.4763 131.394 93.4563 131.134 93.4363 130.884C93.1463 129.564 92.9063 128.264 92.6763 126.884C92.4063 125.294 92.2262 123.764 92.1162 122.324C92.0862 122.454 92.0563 122.584 92.0363 122.724Z" fill="#931B0F"/>
<path d="M91.9962 120.635C91.7562 115.775 92.2162 112.255 92.3262 111.535L92.3762 111.545C92.3562 111.495 92.3362 111.455 92.3162 111.405L92.2362 111.375C92.2262 111.435 91.5762 115.425 91.9162 121.125C91.9362 120.965 91.9662 120.805 91.9962 120.635Z" fill="#931B0F"/>
<path d="M93.0962 118.964C93.1262 120.344 93.2062 121.864 93.3762 123.484C93.3862 123.264 93.4062 123.054 93.4262 122.844C93.2962 121.394 93.2262 120.034 93.2062 118.804C93.1662 118.854 93.1262 118.914 93.0962 118.964Z" fill="#931B0F"/>
<path d="M93.1963 118.254C93.1863 116.574 93.2563 115.144 93.3463 114.064C93.3163 113.984 93.2863 113.904 93.2563 113.834C93.1563 114.974 93.0763 116.534 93.0863 118.404C93.1263 118.344 93.1563 118.294 93.1963 118.254Z" fill="#931B0F"/>
<path d="M97.2762 139.815C98.4962 142.205 99.5162 144.025 100.366 145.515C100.356 145.425 100.356 145.335 100.346 145.245C99.5162 143.785 98.5362 142.035 97.3762 139.755C97.2162 139.445 97.0562 139.105 96.9162 138.765L96.7362 138.635C96.9062 139.045 97.0862 139.445 97.2762 139.815Z" fill="#931B0F"/>
<path d="M96.5863 138.284C96.6463 138.334 96.7063 138.394 96.7663 138.444C96.0663 136.734 95.5163 134.774 95.0763 132.804C95.0963 133.054 95.1163 133.304 95.1363 133.564C95.5363 135.204 96.0063 136.834 96.5863 138.284Z" fill="#931B0F"/>
<path d="M96.9662 141.214C97.0662 141.494 97.1762 141.754 97.2762 142.014C98.0662 143.414 98.9762 144.794 99.8762 146.224C99.9162 146.214 99.9562 146.204 99.9862 146.194C98.9162 144.504 97.8262 142.884 96.9662 141.214Z" fill="#931B0F"/>
<path d="M92.6662 119.724C92.5362 119.994 92.4262 120.264 92.3562 120.554C92.3862 120.844 92.4062 121.124 92.4262 121.374C92.5062 122.294 92.5362 122.994 92.6362 124.024C92.8362 125.594 93.0762 127.114 93.3162 128.514C93.3062 128.064 93.2862 127.614 93.2762 127.144C93.2662 126.344 93.2762 125.554 93.3062 124.794C93.1662 124.004 93.0362 123.214 92.9262 122.464C92.7962 121.564 92.7162 120.624 92.6662 119.724ZM92.5562 114.334C92.4162 114.334 92.2062 114.884 92.1462 115.564C92.0762 116.394 92.1662 118.154 92.2962 119.764C92.3962 119.524 92.5162 119.304 92.6462 119.084C92.5662 116.924 92.6762 115.164 92.6762 115.164C92.7062 114.574 92.6462 114.334 92.5562 114.334Z" fill="#F4523D"/>
<path d="M92.6362 124.025C92.7362 125.045 92.9062 126.395 93.2662 128.605C93.2962 128.755 93.3162 128.885 93.3362 129.025C93.3362 128.855 93.3262 128.685 93.3162 128.515C93.0762 127.125 92.8362 125.605 92.6362 124.025Z" fill="#DB4739"/>
<path d="M96.1162 138.884C96.7562 140.294 98.0062 142.694 99.8562 145.684C99.9762 145.854 100.096 146.004 100.206 146.144C100.246 146.134 100.276 146.124 100.316 146.114C100.216 145.964 100.116 145.804 100.026 145.654C98.8062 143.714 96.9562 140.384 96.1362 138.184L95.8462 137.974C95.9362 138.284 96.0162 138.594 96.1162 138.884Z" fill="#F4523D"/>
<path d="M95.6963 136.924C95.7463 137.054 95.7963 137.174 95.8463 137.304C95.8463 137.314 95.8563 137.324 95.8563 137.324C95.8463 137.304 95.8463 137.284 95.8363 137.264C95.7963 137.084 95.7463 136.974 95.6963 136.924Z" fill="#DB4739"/>
<path d="M96.8562 96.7945C94.4962 91.4145 96.1762 85.9945 95.3562 81.4245C94.8862 78.8145 94.3162 76.8345 93.6462 75.0245C93.2162 75.1045 92.7762 75.1945 92.3462 75.2745C93.3162 77.5745 94.1962 80.0845 94.3762 82.3245C95.0962 91.1545 94.0462 92.5045 96.5662 97.8645C100.256 105.675 100.426 112.195 100.396 113.925C100.576 109.305 101.036 106.325 96.8562 96.7945Z" fill="#EC412F"/>
<path d="M95.4562 81.4045C94.9862 78.8045 94.4162 76.8145 93.7562 75.0145C93.6862 75.0245 93.6162 75.0445 93.5362 75.0545C94.2062 76.8545 94.7762 78.8445 95.2462 81.4545C96.0662 85.9845 94.3762 91.4245 96.7562 96.8445C100.056 104.365 100.456 107.775 100.396 111.165C100.126 108.155 99.2662 103.305 96.6762 97.8145C94.1562 92.4845 95.2162 91.1645 94.4962 82.3045C94.3162 80.0545 93.4362 77.5445 92.4662 75.2545C92.3862 75.2645 92.3162 75.2845 92.2462 75.2945C93.2262 77.5945 94.1062 80.1145 94.2862 82.3345C95.0062 91.1445 93.9462 92.5245 96.4862 97.9045C98.6362 102.465 99.5962 106.575 100.006 109.555C100.306 111.685 100.326 113.225 100.316 113.925C100.306 114.065 100.306 114.195 100.306 114.335V114.355H100.516C100.516 114.355 100.526 114.185 100.536 113.865C100.706 109.265 101.146 106.225 96.9762 96.7245C94.6062 91.4045 96.2862 86.0145 95.4562 81.4045Z" fill="#A92714"/>
<path d="M93.9362 76.7744C94.1962 77.4144 94.4062 78.1544 94.5962 78.9344C94.6762 79.0844 94.7462 79.2444 94.8262 79.4144C94.4462 77.7544 94.0162 76.3544 93.5362 75.0544C93.4462 75.0744 93.3462 75.0944 93.2562 75.1144C93.5262 75.7544 93.7562 76.3244 93.9362 76.7744Z" fill="#CD332A"/>
<path d="M95.2463 81.4544C95.2363 81.4244 95.2363 81.3844 95.2263 81.3544C95.1263 81.0744 95.0263 80.8044 94.9263 80.5444C95.3563 83.0844 95.4563 85.8244 95.2863 87.6644C95.2763 88.0344 95.2763 88.4144 95.2663 88.8044C95.2163 90.7344 95.4263 92.4144 95.7563 93.8544C96.1763 95.5344 96.7763 97.2644 97.5163 98.8344C99.0163 101.994 99.6363 105.564 99.5363 105.564C99.5263 105.564 99.5063 105.514 99.4763 105.404C99.3863 105.114 99.2063 104.534 98.9663 103.804C99.8463 106.764 100.236 109.314 100.396 111.164C100.456 107.774 100.056 104.364 96.7563 96.8444C94.3763 91.4244 96.0763 85.9844 95.2463 81.4544Z" fill="#CD332A"/>
<path d="M96.3463 96.4945C96.2863 96.3645 96.2363 96.2445 96.1763 96.1245C95.8163 95.3745 95.5763 94.5545 95.4163 93.7145C95.3563 93.5645 95.2963 93.4045 95.2363 93.2345C94.6263 91.6945 95.1763 84.1545 94.4163 79.8545C94.4063 79.8345 94.4063 79.8145 94.3963 79.8045C94.3463 79.6645 94.3363 79.5645 94.3463 79.5045C94.3163 79.3845 94.2963 79.2645 94.2563 79.1445C94.1463 78.9245 94.0263 78.7245 93.9163 78.5345C93.7463 78.2345 93.5662 77.9645 93.4062 77.7145C93.9463 79.2745 94.3663 80.8545 94.4863 82.3245C95.2063 91.1745 94.1463 92.4945 96.6663 97.8345C97.1663 98.8945 97.6063 99.9345 97.9863 100.944C97.5663 99.7345 97.1463 98.5545 96.8363 97.8045C96.6463 97.3145 96.4863 96.8845 96.3463 96.4945Z" fill="#CD332A"/>
<path d="M94.8263 79.4144C94.9063 79.5844 94.9863 79.7644 95.0563 79.9544C94.6463 78.0444 94.1763 76.4844 93.6463 75.0444C93.6063 75.0544 93.5763 75.0544 93.5363 75.0644C94.0163 76.3544 94.4463 77.7544 94.8263 79.4144Z" fill="#931B0F"/>
<path d="M95.4462 82.0445C95.3762 81.8045 95.3062 81.5745 95.2262 81.3545C95.2362 81.3845 95.2362 81.4245 95.2462 81.4545C96.0662 85.9845 94.3762 91.4245 96.7562 96.8445C100.056 104.365 100.456 107.775 100.396 111.165C100.236 109.315 99.8362 106.765 98.9662 103.805C98.6962 102.965 98.3462 101.935 97.9962 100.925C97.6162 99.9145 97.1762 98.8845 96.6762 97.8145C94.1562 92.4845 95.2162 91.1645 94.4962 82.3045C94.3762 80.8345 93.9562 79.2545 93.4162 77.6945C93.4062 77.6745 93.3862 77.6545 93.3762 77.6445C93.3862 77.7645 93.3862 77.8845 93.3962 77.9945C93.8962 79.4645 94.2662 80.9445 94.3762 82.3145C95.0962 91.1445 94.0462 92.4945 96.5662 97.8545C100.246 105.645 100.426 112.155 100.396 113.895C100.566 109.275 101.016 106.295 96.8462 96.7745C94.5962 91.6545 96.0362 86.4845 95.4462 82.0445Z" fill="#931B0F"/>
<path d="M94.4062 79.4244C94.3762 79.4244 94.3462 79.4444 94.3462 79.4944C94.3662 79.6144 94.3862 79.7144 94.4062 79.8244C94.4062 79.8344 94.4062 79.8344 94.4062 79.8444C94.9762 81.5344 95.1662 85.4744 95.1162 87.7544C95.0862 89.3944 94.9962 91.6144 95.4062 93.7144C95.7462 94.6544 95.9762 95.4744 96.3362 96.4944C97.5162 99.0644 98.5262 102.074 98.6762 102.554C98.6962 102.604 98.6962 102.634 98.7062 102.634C98.7262 102.634 98.2462 100.834 97.5562 99.0744C97.0862 97.8744 96.2662 96.1544 95.7362 93.8544C95.2162 91.7344 94.9962 89.7044 95.2062 88.2044C95.2362 88.0344 95.2462 87.8544 95.2662 87.6644C95.3062 84.1544 95.0762 81.6244 94.8862 80.4844C94.7462 80.1144 94.5762 79.7544 94.4062 79.4244Z" fill="#F4523D"/>
<path d="M95.4163 93.7144C95.5763 94.5544 95.8163 95.3744 96.1763 96.1244C96.2363 96.2444 96.2863 96.3644 96.3463 96.4944C95.9863 95.4644 95.7563 94.6544 95.4163 93.7144ZM95.2863 87.6644C95.2663 87.8544 95.2463 88.0344 95.2263 88.2044C95.0163 89.6944 95.2363 91.7344 95.7563 93.8544C95.4263 92.4144 95.2163 90.7344 95.2663 88.8044C95.2663 88.4144 95.2763 88.0344 95.2863 87.6644Z" fill="#DB4739"/>
<path d="M94.3463 79.4945C94.3363 79.5545 94.3463 79.6545 94.3963 79.7945C94.4063 79.8045 94.4063 79.8245 94.4163 79.8445C94.4163 79.8345 94.4163 79.8345 94.4163 79.8245C94.3963 79.7145 94.3663 79.6145 94.3463 79.4945Z" fill="#DB4739"/>
<path d="M89.6763 97.4044C89.8263 100.204 90.3263 105.184 91.9963 110.184C94.4463 117.484 97.7363 121.474 100.056 141.494C100.206 142.784 100.356 144.344 100.516 146.074C100.686 146.034 100.866 145.984 101.036 145.944C100.986 145.254 100.936 144.564 100.886 143.844C99.8163 128.384 95.8663 117.034 93.4863 109.904C91.9363 105.274 91.4963 99.9444 91.3563 97.3144C91.3163 96.6544 91.3063 96.1344 91.2963 95.7744C91.2863 95.4144 91.2963 95.2444 91.2963 95.2444V95.1844L91.2863 95.1244C90.8363 88.0644 90.4463 81.5244 89.6263 75.7844C89.0663 75.8844 88.5163 75.9744 87.9563 76.0744C88.7563 81.6344 89.1663 88.1344 89.6063 95.1944C89.6163 95.4044 89.6163 96.2044 89.6763 97.4044Z" fill="#EC412F"/>
<path d="M91.1962 95.1745V95.2945C91.1962 95.3745 91.1962 95.5245 91.1962 95.7645C91.2062 96.1245 91.2162 96.6545 91.2562 97.3145C91.3962 99.9545 91.8362 105.285 93.3962 109.935C95.7862 117.065 99.7162 128.405 100.786 143.845C100.836 144.565 100.886 145.274 100.936 145.965C101.006 145.945 101.066 145.934 101.136 145.914C101.086 145.234 101.036 144.545 100.986 143.825C99.9162 128.354 95.9662 116.985 93.5862 109.854C92.0362 105.244 91.5962 99.9245 91.4562 97.2945C91.4162 96.6345 91.4062 96.1145 91.3962 95.7545C91.3962 95.4145 91.3962 95.2345 91.3962 95.2245V95.1545V95.0945C90.9462 88.0345 90.5562 81.4845 89.7262 75.7345C89.6562 75.7445 89.5962 75.7545 89.5262 75.7745C90.3462 81.5045 90.7462 88.0545 91.1862 95.1145L91.1962 95.1745Z" fill="#A92714"/>
<path d="M89.5762 97.4044C89.7362 100.204 90.2262 105.204 91.9062 110.214C94.3562 117.534 97.6462 121.494 99.9662 141.504C100.116 142.794 100.266 144.364 100.426 146.094C100.496 146.074 100.556 146.064 100.626 146.044C100.466 144.324 100.316 142.754 100.166 141.474C97.8462 121.444 94.5462 117.434 92.0962 110.144C90.4362 105.164 89.9362 100.184 89.7762 97.3944C89.7162 96.1944 89.7162 95.4044 89.7162 95.1744C89.2762 88.1044 88.8662 81.6144 88.0662 76.0444C87.9962 76.0544 87.9362 76.0644 87.8662 76.0744C88.6662 81.6244 89.0762 88.1244 89.5162 95.1844C89.5162 95.4044 89.5162 96.2044 89.5762 97.4044Z" fill="#A92714"/>
<path d="M97.5362 123.564C96.9662 121.324 96.3862 119.244 95.8062 117.334C95.7862 117.424 95.7662 117.514 95.7462 117.614C96.3862 119.694 97.0162 121.734 97.5362 123.564Z" fill="#CD332A"/>
<path d="M90.2662 82.1644C90.0762 80.0944 89.8562 78.0944 89.5862 76.1844C89.5562 76.2344 89.5262 76.2844 89.4962 76.3344C89.4162 76.4644 89.3362 76.5944 89.2562 76.7144C89.2662 76.8444 89.2762 76.9644 89.2962 77.0944C89.5662 79.0344 89.8062 81.2544 90.0062 83.5644C90.0962 83.3344 90.1762 83.1044 90.2562 82.8844C90.2562 82.6444 90.2562 82.4044 90.2662 82.1644Z" fill="#CD332A"/>
<path d="M90.9962 94.2444C91.0162 93.8644 91.0362 93.6144 91.0462 93.5144C91.0462 93.1644 91.0362 92.8244 91.0362 92.4744C90.9562 91.2444 90.8762 90.0344 90.7962 88.8344C90.5062 87.7044 90.2662 86.5444 90.2662 85.6844C90.2662 85.1044 90.2662 84.5244 90.2662 83.9244C90.2062 84.1044 90.1462 84.2844 90.0962 84.4644C90.1362 85.0044 90.1862 85.5344 90.2262 86.0844C90.4862 88.8644 90.7662 91.7044 90.9962 94.2444Z" fill="#CD332A"/>
<path d="M99.2162 131.674C99.2762 131.904 99.3362 132.134 99.4062 132.364C99.2762 131.604 99.1462 130.874 98.9962 130.144C99.0762 130.654 99.1462 131.164 99.2162 131.674Z" fill="#CD332A"/>
<path d="M88.2863 77.6845C88.5563 79.8345 88.7762 82.0945 88.9762 84.4745C89.0662 84.4545 89.1263 84.4345 89.1263 84.4345L89.1663 84.6645C89.1663 84.6645 89.1063 84.6845 88.9963 84.7145C89.0563 85.4645 89.1163 86.2145 89.1663 86.9845C89.2163 86.6345 89.2663 86.2945 89.3363 85.9545C89.0463 83.1645 88.6963 80.2745 88.3563 77.6345C88.3463 77.6445 88.3163 77.6645 88.2863 77.6845Z" fill="#CD332A"/>
<path d="M97.6962 126.125C97.0562 123.495 96.3262 120.915 95.5762 118.505C95.5462 118.665 95.5162 118.835 95.4862 119.005C96.2262 121.085 96.9762 123.495 97.7062 126.585C97.7062 126.475 97.6962 126.365 97.6962 126.255V126.125Z" fill="#CD332A"/>
<path d="M100.626 146.044C100.736 146.014 100.836 145.984 100.946 145.964C100.896 145.274 100.846 144.564 100.796 143.844C100.656 141.844 100.476 139.904 100.246 138.044C100.146 137.744 100.036 137.454 99.9262 137.174C99.9262 137.174 99.9162 137.154 99.9162 137.144C99.7762 136.774 99.6262 136.414 99.4662 136.064C99.7062 137.724 99.9462 139.534 100.166 141.474C100.316 142.754 100.466 144.324 100.626 146.044Z" fill="#CD332A"/>
<path d="M90.3463 99.9945C90.2863 98.9445 90.2363 97.8345 90.1763 96.6445C90.0463 95.3945 89.8763 94.1045 89.6863 92.8545C89.6363 92.7645 89.5963 92.6845 89.5563 92.5945C89.6063 93.4445 89.6663 94.3045 89.7163 95.1745C89.7163 95.4045 89.7163 96.1945 89.7763 97.3945C89.8263 98.2345 89.8963 99.2645 90.0263 100.434C90.0863 100.344 90.1463 100.254 90.2063 100.174C90.2563 100.114 90.3063 100.054 90.3463 99.9945Z" fill="#CD332A"/>
<path d="M89.9163 92.1245C89.8063 90.6445 89.6563 89.0245 89.4963 87.3445C89.4563 87.7245 89.4363 88.0945 89.4363 88.4745C89.4363 89.0545 89.4863 89.6145 89.5963 90.1745C89.7063 90.8345 89.8163 91.4845 89.9163 92.1245Z" fill="#CD332A"/>
<path d="M90.6663 103.384C90.6563 103.824 90.6563 104.074 90.6563 104.074C90.6563 103.814 90.6563 103.514 90.6463 103.194C90.5663 102.574 90.4963 101.944 90.4463 101.304C90.3663 101.444 90.2763 101.584 90.2063 101.724C90.5363 104.224 91.1163 107.184 92.1063 110.144C92.8263 112.294 93.6163 114.154 94.4363 116.224C94.4963 115.974 94.5463 115.744 94.6063 115.534C93.8963 113.474 93.1763 111.584 92.4863 109.954C91.4863 107.594 90.9663 105.524 90.6663 103.384Z" fill="#CD332A"/>
<path d="M92.6963 107.514C92.2563 106.124 91.9263 104.764 91.6763 103.464C92.0863 105.844 93.4063 110.144 94.8163 114.654C94.8363 114.574 94.8663 114.494 94.8763 114.414C94.3463 112.764 93.8463 111.274 93.3863 109.924C93.1363 109.134 92.8963 108.334 92.6963 107.514Z" fill="#CD332A"/>
<path d="M90.9863 89.5545C90.9163 89.3145 90.8463 89.0745 90.7863 88.8245C90.8663 90.0145 90.9463 91.2345 91.0263 92.4645C91.0163 91.4845 91.0063 90.5145 90.9863 89.5545Z" fill="#931B0F"/>
<path d="M100.946 145.964C101.006 145.954 101.066 145.934 101.116 145.924C101.066 145.224 101.016 144.524 100.966 143.794C100.846 142.134 100.696 140.514 100.526 138.944C100.436 138.634 100.336 138.334 100.246 138.054C100.476 139.914 100.656 141.854 100.796 143.854C100.846 144.564 100.896 145.264 100.946 145.964Z" fill="#931B0F"/>
<path d="M90.4563 83.3445C90.5063 84.8845 90.6563 86.4945 90.9063 87.9845C90.7863 86.3345 90.6663 84.7145 90.5263 83.1445C90.5063 83.2145 90.4863 83.2845 90.4563 83.3445Z" fill="#931B0F"/>
<path d="M90.2663 82.1645C90.2763 81.7045 90.2863 81.2245 90.3063 80.7545C90.1363 79.0945 89.9563 77.4945 89.7363 75.9545C89.6863 76.0245 89.6363 76.1045 89.5863 76.1845C89.8563 78.0945 90.0763 80.0945 90.2663 82.1645Z" fill="#931B0F"/>
<path d="M88.2862 77.6844C88.2762 77.6944 88.2762 77.6944 88.2662 77.7044C88.5362 79.8444 88.7562 82.1044 88.9562 84.4744C88.9662 84.4744 88.9762 84.4744 88.9762 84.4644C88.7862 82.0944 88.5662 79.8344 88.2862 77.6844Z" fill="#931B0F"/>
<path d="M95.8063 117.344C96.3863 119.254 96.9763 121.334 97.5363 123.574C97.6163 123.874 97.7063 124.164 97.7863 124.454C97.7963 124.304 97.8163 124.144 97.8363 123.994C97.2063 121.444 96.5363 119.104 95.8863 116.974C95.8563 117.094 95.8263 117.214 95.8063 117.344Z" fill="#931B0F"/>
<path d="M98.5262 126.944C98.5362 127.114 98.5462 127.294 98.5562 127.474C98.6862 128.064 98.7862 128.584 98.8562 129.044C98.9062 129.404 98.9562 129.774 99.0062 130.144C99.1462 130.874 99.2862 131.604 99.4162 132.364C99.5362 132.764 99.6662 133.174 99.8062 133.594C99.4162 131.254 98.9862 129.034 98.5262 126.944Z" fill="#931B0F"/>
<path d="M100.596 146.044C100.606 146.044 100.616 146.045 100.626 146.035C100.466 144.314 100.316 142.744 100.166 141.464C99.9463 139.514 99.7063 137.714 99.4663 136.054C99.4563 136.024 99.4463 136.004 99.4263 135.974C99.6763 137.644 99.9063 139.464 100.136 141.434C100.286 142.734 100.436 144.314 100.596 146.044Z" fill="#931B0F"/>
<path d="M88.9762 84.7245C89.0362 85.5145 89.0962 86.3045 89.1562 87.1145C89.1662 87.0745 89.1662 87.0245 89.1762 86.9845C89.1162 86.2145 89.0662 85.4645 89.0062 84.7145C88.9962 84.7145 88.9862 84.7145 88.9762 84.7245Z" fill="#931B0F"/>
<path d="M95.4862 119.005C95.4862 119.015 95.4862 119.025 95.4762 119.035C96.2262 121.135 96.9762 123.555 97.7062 126.675C97.7062 126.645 97.7062 126.605 97.7062 126.575C96.9862 123.485 96.2362 121.085 95.4862 119.005Z" fill="#931B0F"/>
<path d="M89.7162 95.1744C89.6562 94.3044 89.6062 93.4444 89.5562 92.5944C89.5462 92.5744 89.5362 92.5544 89.5262 92.5344C89.5862 93.3944 89.6362 94.2544 89.6962 95.1344C89.6962 95.3544 89.6962 96.1544 89.7662 97.3544C89.8062 98.2044 89.8862 99.2644 90.0262 100.474C90.0362 100.464 90.0362 100.454 90.0462 100.444C89.9162 99.2744 89.8362 98.2444 89.7962 97.4044C89.7162 96.1944 89.7162 95.4044 89.7162 95.1744Z" fill="#931B0F"/>
<path d="M93.4463 109.615C93.1663 108.915 92.9163 108.205 92.6963 107.515C92.8963 108.325 93.1263 109.135 93.3963 109.925C93.8463 111.275 94.3563 112.765 94.8863 114.415C94.9163 114.305 94.9563 114.195 94.9863 114.095C94.5363 112.715 94.1063 111.445 93.7163 110.275C93.6163 110.065 93.5263 109.845 93.4463 109.615Z" fill="#931B0F"/>
<path d="M90.1963 101.724C90.1863 101.734 90.1863 101.744 90.1763 101.754C90.5163 104.244 91.0963 107.184 92.0763 110.124C92.8063 112.294 93.6063 114.164 94.4263 116.244C94.4263 116.234 94.4263 116.224 94.4363 116.214C93.6163 114.144 92.8163 112.284 92.1063 110.134C91.1063 107.184 90.5263 104.224 90.1963 101.724Z" fill="#931B0F"/>
<path d="M98.9862 133.174C99.0162 133.324 99.0362 133.474 99.0662 133.634C99.0762 133.654 99.0862 133.674 99.0962 133.684C99.0762 133.554 99.0562 133.414 99.0362 133.284C99.0162 133.254 99.0062 133.214 98.9862 133.174Z" fill="#931B0F"/>
<path d="M90.4363 82.0745C90.4363 82.1945 90.4363 82.3045 90.4363 82.4245C90.4463 82.4045 90.4563 82.3845 90.4663 82.3645C90.4563 82.2645 90.4463 82.1745 90.4363 82.0745Z" fill="#931B0F"/>
<path d="M89.2963 77.0845C89.2763 76.9645 89.2663 76.8445 89.2463 76.7245C89.0663 76.9645 88.8763 77.1745 88.6863 77.3545C89.0063 79.9045 89.2763 82.5845 89.5163 85.2245C89.6463 84.6845 89.8063 84.1645 89.9763 83.6645C89.7263 81.2745 89.4963 78.9945 89.2963 77.0845Z" fill="#F4523D"/>
<path d="M90.7163 94.7245C90.5263 94.3945 90.3463 94.0645 90.1663 93.7345C90.1763 93.9345 90.1963 94.1445 90.2063 94.3445C90.4263 96.2945 90.5463 98.1145 90.6063 99.6445C90.7363 99.4645 90.8763 99.3045 90.9963 99.1545C90.9063 97.9445 90.8063 96.4845 90.7163 94.7245Z" fill="#F4523D"/>
<path d="M90.6062 92.5744C90.5062 90.4944 90.3762 88.2844 90.2162 86.0844C90.1662 85.5744 90.1162 85.0644 90.0562 84.5544C89.8762 85.1544 89.7262 85.7944 89.6162 86.4344C89.7962 88.5844 89.9562 90.6844 90.0862 92.6444C90.2662 93.0044 90.4662 93.3744 90.6562 93.7344C90.6362 93.3644 90.6262 92.9744 90.6062 92.5744Z" fill="#F4523D"/>
<path d="M91.0963 100.334C91.0363 100.424 90.9663 100.514 90.9063 100.594C90.8263 100.704 90.7463 100.824 90.6663 100.944C91.1163 105.354 91.7863 106.604 92.0263 106.604C92.1263 106.604 92.1463 106.424 92.0863 106.164C91.8863 105.394 91.5063 104.954 91.0963 100.334Z" fill="#F4523D"/>
<path d="M90.0863 84.4645C90.0763 84.4945 90.0663 84.5245 90.0563 84.5545C90.1063 85.0545 90.1563 85.5645 90.2163 86.0845C90.1663 85.5445 90.1263 85.0045 90.0863 84.4645ZM89.2963 77.0845C89.4963 78.9845 89.7263 81.2745 89.9663 83.6745C89.9863 83.6345 89.9963 83.6045 90.0063 83.5645C89.8063 81.2445 89.5663 79.0245 89.2963 77.0845Z" fill="#DB4739"/>
<path d="M98.2263 133.594C99.3363 135.404 100.416 137.794 101.046 140.794C101.406 142.514 101.896 144.124 102.426 145.604C102.536 145.574 102.636 145.554 102.746 145.524C102.206 144.064 101.776 142.614 101.606 141.334C101.176 138.154 99.9863 135.234 98.8363 133.344C96.8863 130.154 94.8363 128.624 94.8063 128.604L94.4163 129.094C94.4263 129.104 94.5363 129.184 94.7363 129.354C95.3663 129.894 96.8163 131.284 98.2263 133.594Z" fill="#EC412F"/>
<path d="M94.3962 129.165L94.4162 129.155C94.4662 129.195 94.5562 129.265 94.6962 129.385C95.3162 129.925 96.7662 131.315 98.1662 133.605C99.2762 135.415 100.356 137.805 100.986 140.785C101.346 142.505 101.836 144.125 102.376 145.605C102.416 145.595 102.446 145.585 102.486 145.575C101.946 144.105 101.466 142.495 101.106 140.785C100.476 137.785 99.3862 135.385 98.2762 133.565C96.8662 131.255 95.4062 129.855 94.7762 129.315C94.6462 129.205 94.5562 129.125 94.5062 129.085L94.8262 128.685C95.1462 128.935 97.0062 130.455 98.7862 133.365C99.9262 135.245 101.116 138.155 101.556 141.335C101.726 142.625 102.156 144.075 102.696 145.545C102.736 145.535 102.766 145.525 102.806 145.515C102.266 144.055 101.846 142.615 101.676 141.335C101.246 138.145 100.046 135.225 98.8862 133.325C96.9362 130.125 94.8762 128.595 94.8462 128.565L94.7962 128.525L94.3462 129.095L94.3862 129.125L94.3962 129.165Z" fill="#A92714"/>
<path d="M89.4163 75.8145C89.3463 75.9245 89.2763 76.0345 89.2063 76.1545C88.5763 77.5445 86.9463 78.4145 86.9463 78.4145C86.9663 78.4045 88.6363 77.8845 89.5063 76.3345C89.6463 76.0745 89.7863 75.8845 89.9263 75.7245C89.7563 75.7545 89.5863 75.7845 89.4163 75.8145Z" fill="#2050AE"/>
<path d="M88.9263 77.0544L88.5163 77.2044C88.4963 77.4844 88.0763 78.8444 88.0763 79.7444C88.0763 79.7344 88.4263 77.9644 88.9263 77.0544Z" fill="#2050AE"/>
<path d="M96.9762 132.374C96.9162 129.554 94.6562 124.364 94.6562 124.354L94.3662 124.494C94.3662 124.504 96.6162 129.714 96.6562 132.384C96.7162 135.224 98.7362 136.594 98.7462 136.604C98.7462 136.594 96.8062 134.774 96.9762 132.374Z" fill="#2050AE"/>
<path d="M96.8562 147.035C96.8862 147.025 96.9262 147.015 96.9562 147.005C96.6362 145.945 96.0962 144.245 95.5162 142.685C94.6262 140.255 94.3062 134.845 94.3062 134.765L93.9862 134.785C94.0462 135.075 94.3762 140.475 95.2262 142.815C95.7962 144.375 96.4462 146.015 96.8562 147.035Z" fill="#2050AE"/>
<path d="M99.1863 140.474C98.2363 139.804 95.4063 137.224 95.4063 137.214L95.1963 137.474L99.1863 140.474Z" fill="#2050AE"/>
<path d="M103.276 125.475C102.836 124.345 102.876 122.625 101.776 121.385C100.676 120.145 99.5362 119.765 99.3262 119.755L99.2762 119.765L99.3362 120.115L99.3262 120.075V120.115C99.3762 120.105 100.006 120.155 101.536 121.645C103.196 123.185 102.076 125.655 104.526 127.445C104.526 127.445 103.896 127.025 103.276 125.475Z" fill="#2050AE"/>
<path d="M92.2362 121.285C92.3162 120.085 93.0262 118.955 93.7362 118.125C94.4362 117.295 95.1162 116.785 95.1162 116.785L94.9262 116.505C94.9162 116.515 92.1062 118.615 91.9162 121.255C91.7462 123.745 90.9362 126.025 90.9362 126.025C90.9262 126.035 92.0562 123.835 92.2362 121.285Z" fill="#2050AE"/>
<path d="M91.6663 120.334C91.3863 121.294 90.5663 121.584 90.5663 121.584C90.5663 121.584 90.6963 121.464 90.8563 121.234C91.0263 121.004 91.2263 120.664 91.3563 120.224C91.6663 119.194 92.7063 119.074 92.7163 119.074L92.7563 119.414C92.7463 119.414 91.8863 119.534 91.6663 120.334Z" fill="#2050AE"/>
<path d="M101.836 145.745C101.926 145.725 102.016 145.705 102.116 145.675C102.026 142.785 101.546 138.605 99.9062 134.055C98.8062 131.015 98.4662 128.365 98.4662 126.245C98.4662 123.545 99.0162 121.695 99.2862 120.945C99.3662 120.705 99.4262 120.595 99.4262 120.585L98.8062 120.275C98.7862 120.315 97.7662 122.515 97.7662 126.245C97.7662 128.445 98.3062 131.635 99.6962 134.775C101.046 137.875 101.606 142.485 101.836 145.745Z" fill="#4768C8"/>
<path d="M101.776 145.754C101.816 145.744 101.856 145.734 101.886 145.724C101.656 142.454 101.106 137.854 99.7363 134.744C98.3563 131.614 97.8163 128.434 97.8163 126.244C97.8163 122.844 98.6663 120.714 98.8263 120.354L99.3463 120.614C99.3263 120.674 99.2763 120.774 99.2263 120.934C98.9563 121.684 98.3963 123.544 98.3963 126.254C98.3963 128.384 98.7463 131.034 99.8463 134.084C101.486 138.624 101.966 142.814 102.056 145.694C102.096 145.684 102.136 145.674 102.176 145.664C102.086 142.774 101.596 138.584 99.9563 134.034C98.8563 131.004 98.5163 128.364 98.5163 126.244C98.5163 123.554 99.0663 121.704 99.3363 120.964C99.3963 120.794 99.4463 120.694 99.4663 120.644H99.4863V120.594L99.5063 120.554L98.7763 120.194L98.7463 120.254C98.7263 120.294 97.7063 122.504 97.7063 126.244C97.7063 128.464 98.2463 131.644 99.6363 134.794C100.996 137.884 101.556 142.494 101.776 145.754Z" fill="#364D9E"/>
<path d="M97.0263 91.7244C96.6163 88.7844 96.4063 85.8844 96.1963 84.3244C95.4063 78.4544 92.5763 76.0644 92.5663 76.0544L92.3263 76.3044C92.3263 76.3144 93.0963 77.0944 93.9363 78.5244C94.7763 79.9544 95.6863 82.0344 95.9663 84.5944C96.1063 85.8844 96.2263 87.1744 96.3663 88.4144C96.7663 92.1644 97.2663 95.6144 98.5963 98.1844C98.5863 98.1844 97.5663 95.5644 97.0263 91.7244Z" fill="#2050AE"/>
<path d="M97.6863 89.3845C97.3463 86.7045 96.2463 85.5645 96.2463 85.5645L96.0863 85.7945C96.2163 85.9145 97.1863 87.0045 97.5263 89.4245C97.6963 90.9745 98.6963 91.3745 98.7163 91.3945C98.7163 91.3845 97.8463 90.6545 97.6863 89.3845Z" fill="#2050AE"/>
<path d="M97.1562 97.1845C97.0562 96.9645 96.9962 96.6845 96.9562 96.3645C96.8462 95.3245 97.0562 93.6645 97.0562 93.3545L97.3562 93.9645C97.3562 93.9645 97.3862 93.8245 97.3562 93.9645C96.9962 95.7845 97.1562 97.1845 97.1562 97.1845Z" fill="#2050AE"/>
<path d="M90.5763 77.7844C90.4463 78.7344 90.3663 79.6744 90.3163 80.5944C90.3563 81.0044 90.3963 81.4144 90.4363 81.8244C90.4463 80.7244 90.5163 79.6944 90.6363 78.7944C90.6263 78.4644 90.5963 78.1244 90.5763 77.7844Z" fill="#F2D7D3"/>
<path d="M90.3163 80.6045C90.3163 80.6545 90.3163 80.7145 90.3063 80.7645C90.3463 81.2045 90.3863 81.6445 90.4263 82.0845C90.4263 82.0045 90.4263 81.9245 90.4263 81.8445C90.3963 81.4145 90.3563 81.0045 90.3163 80.6045Z" fill="#AB5C59"/>
<path d="M90.2662 82.1644C90.2562 82.4044 90.2562 82.6444 90.2562 82.8744C90.2762 82.8244 90.2962 82.7744 90.3162 82.7244C90.2962 82.5444 90.2862 82.3544 90.2662 82.1644Z" fill="#BD6868"/>
<path d="M90.3162 80.7545C90.2962 81.2245 90.2762 81.6945 90.2762 82.1645C90.2962 82.3445 90.3062 82.5345 90.3262 82.7245C90.3662 82.6245 90.4062 82.5245 90.4462 82.4245C90.4462 82.3045 90.4462 82.1945 90.4462 82.0745C90.3962 81.6345 90.3562 81.1945 90.3162 80.7545Z" fill="#9E5454"/>
<path d="M90.9463 88.2445C90.9563 88.3645 90.9663 88.4945 90.9763 88.6245C90.9763 88.5345 90.9763 88.4545 90.9663 88.3745C90.9663 88.3245 90.9563 88.2845 90.9463 88.2445Z" fill="#F2D7D3"/>
<path d="M90.9062 87.9845C90.9362 88.3545 90.9563 88.7145 90.9863 89.0845C90.9863 88.9245 90.9762 88.7645 90.9762 88.6145C90.9662 88.4945 90.9563 88.3645 90.9463 88.2345C90.9363 88.1545 90.9262 88.0745 90.9062 87.9845Z" fill="#AB5C59"/>
<path d="M90.3862 83.5344C90.3362 83.6644 90.2962 83.7944 90.2562 83.9244C90.2562 84.5144 90.2562 85.1044 90.2562 85.6844C90.2562 86.5444 90.4862 87.7044 90.7862 88.8344C90.6662 87.0244 90.5362 85.2544 90.3862 83.5344Z" fill="#BD6868"/>
<path d="M90.4562 83.3445C90.4362 83.4045 90.4062 83.4745 90.3862 83.5345C90.5362 85.2545 90.6662 87.0145 90.7862 88.8245C90.8562 89.0745 90.9162 89.3145 90.9862 89.5545C90.9862 89.4045 90.9862 89.2445 90.9762 89.0945C90.9562 88.7245 90.9262 88.3545 90.8962 87.9945C90.6662 86.4945 90.5162 84.8845 90.4562 83.3445Z" fill="#9E5454"/>
<path d="M89.1562 95.2345C89.1562 94.7545 89.1063 94.2845 88.9863 93.8945C88.9163 93.6645 88.8863 93.3945 88.8863 93.1045C88.8863 91.8045 89.5063 90.1845 89.5063 90.1845L89.1763 90.0745C89.1763 90.0845 88.5363 91.7245 88.5363 93.1045C88.5363 93.4145 88.5663 93.7145 88.6463 93.9845C88.7563 94.3245 88.7962 94.7645 88.7962 95.2345C88.7962 96.4845 88.6763 98.5645 88.6763 98.5645C88.8363 97.9845 89.1562 96.5245 89.1562 95.2345Z" fill="#2050AE"/>
<path d="M89.0662 95.0145C89.0262 95.0545 88.0262 96.2945 87.2162 96.6245L88.7862 94.8145L89.0662 95.0145Z" fill="#2050AE"/>
<path d="M89.5863 90.1745C89.4763 89.6145 89.4263 89.0445 89.4263 88.4745C89.4263 86.3145 90.1063 84.1245 90.7963 82.4845C91.4763 80.8345 92.1563 79.7345 92.1563 79.7345L91.8563 79.5745C91.8563 79.5845 89.0763 84.0545 89.0763 88.4845C89.0763 89.0745 89.1263 89.6645 89.2363 90.2445C90.1763 95.0745 90.6463 101.234 90.6463 104.084C90.6563 104.074 90.8863 97.1945 89.5863 90.1745Z" fill="#2050AE"/>
<path d="M91.9063 111.354C91.9063 112.284 91.6463 113.184 91.1963 114.144C91.1963 114.144 92.6763 110.104 89.2163 106.684C88.7463 106.024 88.5463 105.294 88.5563 104.574C88.5863 101.414 91.9663 98.2144 91.9763 98.1744L92.4863 98.6344C92.4663 98.6544 91.6663 99.4344 90.8663 100.564C90.0463 101.714 89.2563 103.214 89.2663 104.564C89.2663 105.184 89.4263 105.774 89.8063 106.314C91.2363 108.324 91.8963 109.854 91.9063 111.354Z" fill="#4768C8"/>
<path d="M91.9562 111.354C91.9562 112.294 91.6962 113.204 91.2362 114.164L91.1262 114.124V114.114C91.1662 114.014 91.4362 113.194 91.4362 112.024C91.4362 110.564 91.0162 108.554 89.1562 106.724C88.6762 106.044 88.4762 105.314 88.4762 104.574V104.564C88.4962 102.964 89.3562 101.374 90.2062 100.164C90.6262 99.5645 91.0562 99.0545 91.3762 98.7045C91.5362 98.5245 91.6662 98.3845 91.7662 98.2845L91.8762 98.1745L91.9062 98.1445L91.9262 98.0645L92.4662 98.5545L92.5262 98.5045V98.6145L92.5562 98.6345L92.5262 98.6545V98.7645L92.4662 98.7145C92.2862 98.8845 91.5962 99.6145 90.8862 100.594C90.0762 101.734 89.2962 103.224 89.2962 104.554V104.574C89.2962 105.184 89.4562 105.754 89.8262 106.294C91.2862 108.294 91.9562 109.844 91.9562 111.354ZM91.8462 111.354C91.8462 109.864 91.1862 108.344 89.7562 106.344C89.3562 105.794 89.2062 105.194 89.1962 104.564V104.544C89.1962 103.174 89.9962 101.674 90.8062 100.524C91.5162 99.5245 92.2162 98.7945 92.3962 98.6245L91.9662 98.2445C91.5262 98.7145 88.6362 101.654 88.6062 104.564V104.574C88.6062 105.284 88.7962 106.004 89.2562 106.654C91.1262 108.504 91.5562 110.544 91.5562 112.024C91.5562 112.584 91.4962 113.064 91.4262 113.424C91.6962 112.724 91.8462 112.054 91.8462 111.354Z" fill="#364D9E"/>
<path d="M91.0062 99.6844C91.0062 99.6844 88.6962 102.334 88.8862 104.484C89.0762 106.634 89.2262 106.144 89.9962 107.084C90.7662 108.024 91.3962 109.864 91.4862 110.454C91.4962 110.504 91.4962 110.524 91.4962 110.524C91.5062 110.524 91.0362 107.754 89.8462 106.634C88.5562 105.434 88.7462 102.694 91.0062 99.6844Z" fill="#5680D8"/>
<path d="M94.9262 139.045C95.5962 141.605 96.9562 144.025 98.1562 146.685C98.4262 146.615 98.6962 146.535 98.9662 146.465C98.2362 144.725 97.3162 142.575 96.1762 139.415C94.8862 135.835 94.8062 130.685 94.7462 127.065C94.6362 121.385 95.7562 116.695 96.3262 114.725C96.5062 114.075 96.6262 113.735 96.6262 113.735L95.3762 113.135C95.3562 113.205 93.2462 119.195 93.3862 127.135C93.4662 130.935 93.6562 134.135 94.9262 139.045Z" fill="#4768C8"/>
<path d="M94.8263 139.074C95.4963 141.644 96.8663 144.074 98.0563 146.714C98.1263 146.694 98.1963 146.674 98.2663 146.654C97.0663 143.984 95.6963 141.554 95.0363 139.014C93.7563 134.114 93.5763 130.934 93.5063 127.144C93.3763 119.834 95.1563 114.184 95.4563 113.304L96.5063 113.804C96.4863 113.844 96.4763 113.894 96.4563 113.954C96.3963 114.124 96.3263 114.374 96.2363 114.694C95.6763 116.664 94.5463 121.364 94.6463 127.054V127.064C94.6463 127.164 94.6463 127.264 94.6563 127.364C94.7263 130.964 94.8263 135.934 96.0863 139.444C97.2163 142.604 98.1463 144.744 98.8763 146.474C98.9463 146.454 99.0163 146.434 99.0863 146.424C98.3563 144.674 97.4263 142.534 96.2863 139.364C95.0363 135.914 94.9363 130.954 94.8663 127.354C94.8663 127.254 94.8663 127.154 94.8563 127.054V127.044C94.7563 121.384 95.8763 116.704 96.4363 114.754C96.6163 114.124 96.7263 113.784 96.7363 113.774L96.6363 113.734L96.7163 113.804C96.7063 113.804 96.7163 113.834 96.6363 113.844V113.724L96.6863 113.624L95.3263 112.974L95.2863 113.094C95.2663 113.164 93.1463 119.174 93.2863 127.134C93.3563 130.934 93.5463 134.154 94.8263 139.074Z" fill="#364D9E"/>
<path d="M94.4463 126.284C94.4963 128.504 94.5563 130.574 94.4663 131.404C94.4563 131.514 94.4463 131.624 94.4263 131.714C94.4963 133.554 94.6563 135.274 94.9663 136.624C95.0063 136.674 95.0363 136.784 95.0563 136.944C95.0563 136.964 95.0663 136.984 95.0663 137.004C95.8163 139.834 97.5363 143.604 98.7863 146.514C98.8163 146.504 98.8463 146.504 98.8663 146.494C98.1363 144.764 97.2163 142.614 96.0763 139.464C94.8063 135.954 94.7163 130.974 94.6463 127.384C94.6463 127.284 94.6463 127.184 94.6363 127.084V127.074C94.5463 121.894 95.4663 117.544 96.0563 115.314C95.9663 115.134 95.8763 114.954 95.7963 114.784C95.3763 116.414 94.8963 118.544 94.8063 119.974C94.7363 121.084 94.5463 123.514 94.4463 126.284Z" fill="#4158B9"/>
<path d="M95.0362 139.005C95.6962 141.545 97.0662 143.975 98.2662 146.645C98.3162 146.635 98.3762 146.615 98.4262 146.605C98.3662 146.475 98.3062 146.345 98.2462 146.215C98.0662 145.835 97.8962 145.465 97.7262 145.105C96.2562 142.475 94.3962 137.375 94.1262 133.745C94.0862 133.185 94.0362 132.465 93.9962 131.635C93.9062 131.125 93.8362 130.225 93.8262 128.785C93.8062 126.755 93.8362 125.525 93.8862 124.585C93.9862 120.885 94.3662 116.905 95.3762 113.915C95.3562 113.865 95.3262 113.805 95.2962 113.755C94.7862 115.435 93.3762 120.635 93.4962 127.145C93.5662 130.925 93.7562 134.105 95.0362 139.005Z" fill="#4158B9"/>
<path d="M94.9263 139.045C95.5963 141.605 96.9563 144.025 98.1563 146.685C98.1963 146.675 98.2263 146.665 98.2663 146.655C97.0663 143.985 95.6963 141.555 95.0363 139.015C93.7563 134.115 93.5763 130.934 93.5063 127.144C93.3963 120.634 94.7963 115.435 95.3063 113.755C95.2863 113.705 95.2663 113.655 95.2363 113.615C94.7563 115.165 93.2763 120.464 93.3963 127.144C93.4663 130.934 93.6563 134.135 94.9263 139.045Z" fill="#303F92"/>
<path d="M94.6463 127.064V127.074C94.6463 127.174 94.6463 127.274 94.6563 127.374C94.7263 130.974 94.8263 135.944 96.0863 139.454C97.2163 142.614 98.1463 144.754 98.8763 146.484C98.9163 146.474 98.9463 146.464 98.9763 146.454C98.2463 144.714 97.3263 142.564 96.1863 139.404C94.8963 135.824 94.8163 130.674 94.7563 127.054C94.6663 121.974 95.5463 117.694 96.1363 115.434C96.1163 115.384 96.0863 115.334 96.0663 115.284C95.4763 117.534 94.5563 121.884 94.6463 127.064Z" fill="#303F92"/>
<path d="M95.2462 115.844C95.1062 115.844 94.8262 116.304 94.6662 116.894C94.3962 117.894 94.1862 120.494 94.0762 122.164C94.0162 123.004 93.9462 123.644 93.8862 124.584C93.8162 127.224 93.8962 129.724 93.9962 131.634C94.0662 132.024 94.1362 132.184 94.2162 132.184C94.2962 132.184 94.3762 132.004 94.4262 131.714C94.3662 129.924 94.3862 128.034 94.4462 126.284C94.4262 125.254 94.4062 124.194 94.4062 123.214C94.4062 120.134 95.2362 116.604 95.2362 116.604C95.3662 116.064 95.3362 115.844 95.2462 115.844Z" fill="#5680D8"/>
<path d="M94.4462 126.284C94.3862 128.034 94.3563 129.924 94.4263 131.714C94.4463 131.624 94.4563 131.514 94.4663 131.404C94.5563 130.574 94.4962 128.504 94.4462 126.284ZM93.8862 124.584C93.8362 125.524 93.7963 126.754 93.8263 128.784C93.8363 130.224 93.9063 131.124 93.9963 131.634C93.8963 129.734 93.8162 127.234 93.8862 124.584Z" fill="#5275CD"/>
<path d="M97.7263 145.104C97.8263 145.284 97.9263 145.454 98.0263 145.604C98.2063 145.894 98.3763 146.224 98.5363 146.574C98.5563 146.574 98.5663 146.564 98.5863 146.564C98.3463 146.044 98.1163 145.554 97.9063 145.114C96.8663 142.914 95.3063 138.964 95.0563 137.004C95.0563 136.994 95.0563 136.994 95.0463 136.984C95.0163 136.864 94.9863 136.744 94.9563 136.624C94.9363 136.594 94.9163 136.584 94.8863 136.584C94.7963 136.584 94.7063 136.844 94.7563 137.264C94.8463 137.884 95.7663 140.864 97.7263 145.104Z" fill="#5680D8"/>
<path d="M98.4262 146.604C98.4662 146.594 98.4962 146.584 98.5362 146.574C98.3762 146.224 98.1962 145.894 98.0262 145.604C97.9262 145.444 97.8262 145.284 97.7262 145.104C97.8962 145.464 98.0662 145.834 98.2462 146.214C98.3162 146.344 98.3662 146.474 98.4262 146.604Z" fill="#5275CD"/>
<path d="M94.9662 136.625C94.9962 136.745 95.0262 136.865 95.0562 136.985C95.0662 136.995 95.0662 137.005 95.0662 137.005C95.0662 136.985 95.0562 136.965 95.0562 136.945C95.0362 136.775 95.0062 136.675 94.9662 136.625Z" fill="#5275CD"/>
<path d="M91.0662 95.8644C91.0662 98.8444 91.4162 104.164 93.5462 109.574C96.6762 117.474 101.376 121.904 103.246 143.314C103.296 143.944 103.356 144.634 103.396 145.374C103.696 145.304 103.986 145.234 104.286 145.174C103.806 129.044 98.8362 116.974 95.8362 109.364C93.8462 104.354 93.6262 98.6744 93.6262 95.8644C93.6262 95.1644 93.6462 94.6044 93.6662 94.2244C93.6862 93.8444 93.7062 93.6644 93.7062 93.6644V93.6044V93.5444C93.6262 86.9244 93.5762 80.7344 93.0262 75.1544C92.1762 75.3144 91.3362 75.4744 90.4862 75.6244C90.9862 80.9844 91.0562 87.0244 91.1362 93.5144C91.1362 93.7344 91.0662 94.5844 91.0662 95.8644Z" fill="#4768C8"/>
<path d="M93.6163 93.6045V93.6445V93.6845C93.6063 93.7545 93.5963 93.9345 93.5763 94.2145C93.5563 94.5945 93.5363 95.1645 93.5363 95.8645V95.9045C93.5363 98.7245 93.7663 104.405 95.7563 109.415C98.7563 117.025 103.716 129.085 104.196 145.205C104.266 145.185 104.346 145.175 104.416 145.155C103.936 129.005 98.9663 116.925 95.9663 109.325C94.0063 104.365 93.7663 98.7145 93.7663 95.9045V95.8745C93.7663 95.1745 93.7863 94.6145 93.8063 94.2345C93.8163 94.0445 93.8263 93.9045 93.8363 93.8145V93.7845L93.8463 93.6145V93.5445C93.7663 86.9245 93.7063 80.7245 93.1663 75.1345C93.0963 75.1445 93.0163 75.1645 92.9463 75.1845C93.4863 80.7545 93.5463 86.9345 93.6263 93.5545V93.6045H93.6163Z" fill="#364D9E"/>
<path d="M90.9562 95.8645C90.9562 98.8545 91.3062 104.194 93.4462 109.614C96.5962 117.544 101.266 121.924 103.146 143.314C103.206 143.944 103.256 144.644 103.296 145.394C103.376 145.374 103.446 145.364 103.516 145.344C103.466 144.614 103.416 143.924 103.366 143.294C101.496 121.884 96.7762 117.404 93.6462 109.524C91.5262 104.144 91.1762 98.8345 91.1762 95.8645C91.1762 94.5945 91.2462 93.7445 91.2562 93.5145C91.1762 87.0145 91.1162 80.9645 90.6062 75.5945C90.5362 75.6045 90.4562 75.6245 90.3862 75.6345C90.8862 80.9845 90.9562 87.0145 91.0262 93.5045C91.0162 93.7345 90.9562 94.5745 90.9562 95.8645Z" fill="#364D9E"/>
<path d="M91.2662 93.5145C91.2562 93.6645 91.2262 94.0845 91.1962 94.7145C91.3462 94.9845 91.4962 95.2445 91.6462 95.5145C91.6562 95.1745 91.6662 94.8245 91.6862 94.4745C91.9362 89.5845 91.9362 82.3745 91.1362 75.4945C90.9662 75.5245 90.7962 75.5545 90.6162 75.5845C91.1262 80.9645 91.1962 87.0145 91.2662 93.5145Z" fill="#4158B9"/>
<path d="M92.8362 77.1444C92.8562 77.6744 92.8662 78.1744 92.8862 78.6744C93.1762 83.9744 93.5562 88.1844 93.2062 90.3944C93.0562 91.3444 92.8162 92.7044 92.6962 94.3844C92.7162 95.1844 92.7362 95.8544 92.6262 96.3344C92.6262 96.6444 92.6362 96.9544 92.6362 97.2744C92.9662 97.8544 93.2962 98.4444 93.6262 99.0544C93.5462 97.8144 93.5262 96.7244 93.5262 95.8944V95.8544C93.5262 95.1544 93.5462 94.5844 93.5662 94.2044C93.5862 93.9244 93.5962 93.7444 93.6062 93.6744V93.6344V93.5944V93.5344C93.5262 86.9244 93.4662 80.7344 92.9262 75.1644C92.8462 75.1744 92.7762 75.1944 92.6962 75.2044C92.7762 75.8644 92.8162 76.5044 92.8362 77.1444Z" fill="#4158B9"/>
<path d="M99.0963 119.214C99.8363 121.164 100.726 124.314 101.536 127.754C102.106 129.984 102.536 132.084 102.856 133.994C103.476 137.314 103.926 140.444 104.006 142.594C104.036 143.414 104.066 144.304 104.096 145.214C104.126 145.214 104.156 145.204 104.176 145.194C103.706 129.074 98.7463 117.014 95.7363 109.404C94.4563 106.184 93.9063 102.684 93.6763 99.8445C93.3563 99.2645 93.0163 98.6745 92.6663 98.0745C92.7763 99.7745 93.0663 101.664 93.6363 103.694C95.3863 109.844 97.2063 114.254 99.0963 119.214Z" fill="#4158B9"/>
<path d="M103.366 143.294C103.426 143.914 103.476 144.604 103.516 145.344C103.596 145.324 103.666 145.314 103.746 145.294C103.466 141.954 102.686 135.604 101.506 129.734C100.436 125.104 99.2063 121.384 98.1963 118.784C95.1863 112.794 91.6263 105.464 91.6363 96.3144C91.4863 96.0544 91.3363 95.8044 91.1763 95.5344C91.1763 95.6344 91.1763 95.7444 91.1763 95.8544C91.1763 98.8244 91.5263 104.134 93.6463 109.514C96.7763 117.404 101.496 121.884 103.366 143.294Z" fill="#4158B9"/>
<path d="M91.1562 93.5045C91.1462 93.6445 91.1162 93.9945 91.0962 94.5245C91.1362 94.5845 91.1662 94.6545 91.2062 94.7145C91.2262 94.0845 91.2562 93.6645 91.2762 93.5145C91.1962 87.0145 91.1362 80.9645 90.6262 75.5945C90.5862 75.6045 90.5562 75.6045 90.5162 75.6145C91.0062 80.9745 91.0762 87.0145 91.1562 93.5045Z" fill="#303F92"/>
<path d="M104.186 145.194C104.226 145.184 104.266 145.174 104.296 145.164C103.816 129.034 98.8463 116.964 95.8463 109.354C94.6163 106.244 94.0563 102.864 93.8163 100.084C93.7663 100.004 93.7263 99.9245 93.6763 99.8345C93.9063 102.674 94.4663 106.174 95.7363 109.394C98.7563 117.014 103.716 129.074 104.186 145.194Z" fill="#303F92"/>
<path d="M93.6063 93.6444V93.6844C93.5963 93.7544 93.5863 93.9344 93.5663 94.2144C93.5463 94.5944 93.5263 95.1644 93.5263 95.8644V95.9044C93.5263 96.7344 93.5463 97.8244 93.6263 99.0644C93.6663 99.1444 93.7163 99.2244 93.7563 99.3044C93.6563 97.9444 93.6363 96.7644 93.6363 95.8744C93.6363 95.1744 93.6563 94.6144 93.6763 94.2344C93.6963 93.8544 93.7163 93.6744 93.7163 93.6744V93.6144V93.5544C93.6363 86.9344 93.5863 80.7444 93.0363 75.1644C92.9963 75.1744 92.9563 75.1844 92.9263 75.1844C93.4663 80.7544 93.5263 86.9344 93.6063 93.5544V93.6144V93.6444Z" fill="#303F92"/>
<path d="M103.256 143.314C103.306 143.944 103.366 144.634 103.406 145.374C103.446 145.364 103.476 145.354 103.516 145.344C103.466 144.614 103.416 143.924 103.366 143.294C101.496 121.884 96.7763 117.404 93.6463 109.524C91.5263 104.144 91.1763 98.8345 91.1763 95.8645C91.1763 95.7545 91.1763 95.6445 91.1763 95.5445C91.1363 95.4845 91.0963 95.4245 91.0663 95.3545C91.0663 95.5145 91.0663 95.6845 91.0663 95.8645C91.0663 98.8445 91.4163 104.164 93.5463 109.574C96.6863 117.474 101.386 121.904 103.256 143.314Z" fill="#303F92"/>
<path d="M92.8263 77.5645C92.7863 76.8345 92.7163 76.0445 92.6163 75.2345C92.2963 75.2945 91.9863 75.3545 91.6663 75.4045C92.4963 80.2145 92.4863 86.1645 92.3863 88.0945C92.3063 89.5845 91.7263 93.5445 91.7263 95.6545C91.9463 96.0445 92.1663 96.4345 92.3963 96.8345C92.5063 96.7045 92.5863 96.5445 92.6263 96.3345C92.6263 95.6445 92.6463 94.9945 92.6963 94.3845C92.6763 93.5145 92.6563 92.4945 92.8463 91.4245C93.2663 88.8745 93.1063 85.3045 92.8963 78.6745C92.8563 78.3045 92.8463 77.9345 92.8263 77.5645Z" fill="#5680D8"/>
<path d="M92.7062 75.2145C92.6762 75.2245 92.6462 75.2245 92.6062 75.2345C92.7062 76.0445 92.7762 76.8345 92.8162 77.5645C92.8362 77.9445 92.8562 78.3145 92.8762 78.6745C92.8562 78.1845 92.8462 77.6745 92.8262 77.1445C92.8162 76.5045 92.7762 75.8645 92.7062 75.2145Z" fill="#5275CD"/>
<path d="M92.6262 96.3345C92.7362 95.8545 92.7162 95.1845 92.6962 94.3845C92.6462 94.9945 92.6262 95.6445 92.6262 96.3345Z" fill="#5275CD"/>
<path d="M94.4363 107.714C94.5263 108.664 94.6563 109.224 94.8863 109.784C94.5863 108.564 94.4363 107.714 94.4363 107.714Z" fill="#5680D8"/>
<path d="M98.2062 118.784C98.2762 118.924 98.3462 119.064 98.4162 119.204C99.6262 121.614 100.666 125.544 101.506 129.734C102.526 134.144 103.386 139.394 103.756 145.284C103.776 145.284 103.786 145.274 103.806 145.274C103.836 143.894 103.826 139.764 102.846 133.994C102.456 131.924 102.006 129.784 101.526 127.754C101.106 126.104 100.606 124.374 100.016 122.584C96.8262 112.884 95.4862 111.344 94.8662 109.784C95.2562 111.394 95.9062 113.674 96.8162 115.564C97.1762 116.284 97.6562 117.374 98.2062 118.784Z" fill="#5680D8"/>
<path d="M101.536 127.755C102.016 129.795 102.476 131.935 102.856 133.995C102.536 132.085 102.106 129.995 101.536 127.755ZM98.2063 118.785C99.2063 121.385 100.446 125.105 101.516 129.735C100.676 125.545 99.6363 121.615 98.4263 119.205C98.3463 119.075 98.2763 118.935 98.2063 118.785Z" fill="#5275CD"/>
<path d="M90.6262 83.9045C90.6262 80.8945 91.0462 77.8645 91.4962 75.4445C91.2462 75.4845 90.9962 75.5345 90.7562 75.5845C90.3362 78.0645 89.9762 81.0045 89.9362 83.9145C89.8362 91.2045 94.2762 97.4345 96.9362 103.114C99.5762 108.784 100.496 112.024 100.496 112.024C97.7962 101.394 91.6962 94.6245 90.8062 87.1945C90.6762 86.1145 90.6262 85.0045 90.6262 83.9045Z" fill="#4768C8"/>
<path d="M90.6862 83.9044C90.6862 80.8844 91.1062 77.8444 91.5562 75.4244C91.5162 75.4344 91.4762 75.4444 91.4362 75.4444C90.9762 77.8644 90.5662 80.8944 90.5662 83.8944C90.5662 85.0044 90.6262 86.1044 90.7562 87.1744C91.5862 94.1144 96.9262 100.464 99.8362 109.864C99.2762 108.344 98.3662 106.034 96.9862 103.074C94.3562 97.4444 89.9962 91.2944 89.9962 84.1444V83.9044C90.0362 81.0344 90.3962 78.0844 90.8162 75.5644C90.7762 75.5744 90.7362 75.5844 90.6962 75.5844C90.2762 78.0844 89.9262 81.0244 89.8762 83.8944V84.1444C89.8762 91.3544 94.2662 97.5144 96.8762 103.134C99.5162 108.804 100.436 112.024 100.436 112.034L100.546 112.004C97.8462 101.364 91.7462 94.5844 90.8662 87.1744C90.7362 86.1044 90.6762 85.0044 90.6862 83.9044Z" fill="#364D9E"/>
<path d="M100.436 112.035L100.496 112.015L100.436 112.035Z" fill="#364D9E"/>
<path d="M98.8162 138.344C97.9362 137.534 95.3462 134.474 95.3462 134.464L95.1462 134.764L98.8162 138.344Z" fill="#9A200B"/>
<path d="M103.216 135.694C101.046 133.864 98.7162 128.454 98.7162 128.454C98.7262 128.454 101.366 133.704 103.426 135.424C105.616 137.264 105.386 139.884 105.386 139.904C105.386 139.904 105.216 137.074 103.216 135.694Z" fill="#9A200B"/>
<path d="M88.3862 84.9444C87.9562 85.1544 87.4562 85.4944 87.1862 86.0144C87.1362 86.1044 87.1062 86.1944 87.0662 86.2944C86.9762 86.5744 86.8662 86.8144 86.7462 87.0344C86.2862 87.9044 85.7462 88.3044 85.7262 88.3044C85.7262 88.3044 86.5662 87.2144 86.8462 86.2144C86.8862 86.1044 86.9262 85.9944 86.9762 85.9044C87.6062 84.7244 89.1062 84.4344 89.1162 84.4244L89.1562 84.6544C89.1662 84.6644 88.8162 84.7444 88.3862 84.9444Z" fill="#9A200B"/>
<path d="M97.2862 109.514C97.2862 109.504 97.0162 108.794 96.6562 108.344C96.3562 107.994 96.3362 106.724 96.3462 106.714H96.1162C96.1262 106.724 96.0962 107.994 96.4862 108.494C97.0262 109.014 97.2862 109.514 97.2862 109.514Z" fill="#9A200B"/>
<path d="M96.4862 109.664C96.4862 109.454 96.4662 109.234 96.4062 109.024C96.3562 108.834 96.3362 108.694 96.3362 108.594C96.3362 108.454 96.3662 108.384 96.3962 108.344L96.4262 108.314L96.3262 108.104C96.2962 108.114 96.1162 108.244 96.1162 108.604C96.1162 108.734 96.1362 108.894 96.1962 109.104C96.4462 109.844 96.3462 110.744 96.3462 110.744C96.3362 110.724 96.4862 110.224 96.4862 109.664Z" fill="#9A200B"/>
<path d="M105.756 132.854C105.756 132.844 105.816 131.835 105.526 130.925C105.226 129.985 104.916 130.174 104.866 128.244C104.836 127.024 104.516 126.575 104.226 126.425C104.046 126.335 103.906 126.354 103.886 126.364L103.936 126.595C103.936 126.605 104.006 126.574 104.116 126.634C104.296 126.724 104.606 127.064 104.636 128.254C104.686 130.214 105.056 130.164 105.316 131.004C105.586 131.854 105.756 132.854 105.756 132.854Z" fill="#9A200B"/>
<path d="M105.076 132.184C105.056 131.774 105.116 131.514 105.206 131.354C105.266 131.234 105.336 131.164 105.376 131.114C105.426 131.074 105.456 131.064 105.456 131.064L105.386 130.844C105.366 130.854 105.156 130.934 105.006 131.244C104.906 131.454 104.836 131.754 104.856 132.194C104.906 133.204 104.226 135.224 104.056 135.554C104.056 135.554 105.126 133.304 105.076 132.184Z" fill="#9A200B"/>
<path d="M98.2563 83.3345C97.8163 82.2145 97.8663 80.4945 96.7763 79.2545C95.7063 78.0145 94.5763 77.6345 94.3763 77.6345H94.3263L94.3863 77.9845L94.3763 77.9445V77.9845C94.4263 77.9845 95.0463 78.0345 96.5463 79.5045C98.1763 81.0445 97.0763 83.5045 99.4863 85.2745C99.4863 85.2945 98.8663 84.8745 98.2563 83.3345Z" fill="#9A200B"/>
<path d="M87.3962 84.0544C87.0862 81.2544 87.1262 78.4044 87.2462 76.1844C87.0762 76.2144 86.8962 76.2445 86.7162 76.2645C86.6062 78.4145 86.5962 81.1844 86.8862 84.1044C87.5162 90.4744 91.4262 95.5044 93.9462 100.224C96.4562 104.924 97.4562 107.674 97.4562 107.674C94.4162 98.6544 89.2362 93.2844 87.8462 86.8844C87.6462 85.9744 87.5062 85.0144 87.3962 84.0544Z" fill="#EC412F"/>
<path d="M87.4362 84.0444C87.1262 81.2544 87.1562 78.3944 87.2762 76.1744C87.2462 76.1744 87.2162 76.1844 87.1862 76.1844C87.0662 78.3944 87.0262 81.2544 87.3462 84.0544C87.4462 85.0244 87.5962 85.9844 87.8062 86.8944C89.0962 92.8744 93.6762 97.9244 96.7562 105.864C96.1962 104.584 95.2962 102.664 93.9762 100.194C91.4762 95.5144 87.6362 90.5544 86.9362 84.3144C86.9262 84.2444 86.9162 84.1744 86.9162 84.1044C86.6262 81.1744 86.6462 78.4044 86.7462 76.2544C86.7162 76.2544 86.6862 76.2644 86.6562 76.2644C86.5562 78.4144 86.5362 81.1844 86.8262 84.1044C86.8362 84.1744 86.8362 84.2444 86.8462 84.3144C87.5462 90.6044 91.4062 95.5744 93.8962 100.244C96.4062 104.944 97.4062 107.674 97.4062 107.684L97.4862 107.644C94.4462 98.6044 89.2562 93.2444 87.8762 86.8644C87.6962 85.9644 87.5462 85.0044 87.4362 84.0444Z" fill="#A92714"/>
<path d="M97.4163 107.694L97.4563 107.674L97.4163 107.694Z" fill="#A92714"/>
<path d="M88.4163 89.0445C88.1763 88.3345 87.9663 87.6245 87.8163 86.9045C87.7263 86.5145 87.6563 86.1145 87.5863 85.7145C87.1363 83.4445 86.8763 81.0945 86.9163 79.3645C86.9463 78.0945 86.9763 77.0345 87.0063 76.2345C86.9663 76.2445 86.9163 76.2445 86.8763 76.2545C86.8563 76.5845 86.8363 76.9745 86.8063 77.4145C86.6363 80.3445 87.0162 83.0745 87.2962 85.6445C87.5263 87.6845 89.2463 91.5345 89.3263 91.5345C89.3463 91.5345 89.2563 91.2745 88.9963 90.6545C88.7863 90.1545 88.5963 89.6145 88.4163 89.0445Z" fill="#F4523D"/>
<path d="M87.5863 85.7045C87.6463 86.1045 87.7263 86.5045 87.8163 86.8945C87.9663 87.6245 88.1763 88.3345 88.4163 89.0345C88.0963 88.0145 87.8163 86.8745 87.5863 85.7045Z" fill="#BD3B27"/>
</g>
<defs>
<linearGradient id="paint0_linear_2749_486231" x1="89.9229" y1="76.2401" x2="89.9229" y2="149.043" gradientUnits="userSpaceOnUse">
<stop offset="0.0364583" stop-opacity="0"/>
<stop offset="0.286458"/>
<stop offset="0.712914"/>
<stop offset="0.96875" stop-opacity="0"/>
</linearGradient>
</defs>
</svg>
