<svg width="120" height="324" viewBox="0 0 120 324" fill="none" xmlns="http://www.w3.org/2000/svg">
<path d="M72.8254 104.75C72.2754 104.77 71.7355 104.85 71.1755 105C70.5955 105.15 70.0455 105.37 69.5255 105.68C68.8755 106.06 68.3755 106.56 67.8655 107.1C67.7655 107.21 67.6155 107.41 67.4655 107.46C67.4055 107.48 67.3355 107.49 67.2755 107.5C67.2355 107.5 67.1855 107.49 67.1455 107.48L67.1555 107.47C67.1555 107.47 66.5855 107.39 66.3555 106.32L66.0855 98.2598L63.6555 98.3198L63.9355 106.57C63.9355 106.57 63.9355 108.97 65.3755 110.32C65.4955 110.47 65.6255 110.6 65.7755 110.69C66.1555 110.91 66.3655 111.45 66.3955 112.13C66.4855 114.77 64.5755 117.08 62.0555 117.68C57.1055 118.85 49.4054 119.96 48.5754 126.3C48.3454 128.06 48.6755 130.06 49.8755 131.42C51.3755 133.12 54.1655 133.67 56.3455 133.62C56.4155 133.62 56.4855 133.62 56.5455 133.62C58.0555 133.57 59.5355 133.16 60.9955 132.81C62.0455 132.56 63.4955 132.07 64.4655 132.78C65.1455 133.28 65.0755 134.28 64.9455 135.05C64.9355 135.11 64.9255 135.16 64.9155 135.22C66.3355 135.14 67.7455 135.01 69.1655 134.9C69.9455 134.65 69.2355 132.61 69.0655 132.18C68.6455 131.1 68.3154 130.47 67.3254 129.84C65.7654 128.84 63.8255 128.82 62.0455 129.15C60.2155 129.49 58.5355 130.5 56.6555 130.59C55.6355 130.64 54.5955 130.32 53.7955 129.66C53.5755 129.48 53.3455 129.23 53.3155 128.66C53.2955 128.15 53.0955 127.86 52.9055 127.69C52.8155 127.62 52.7355 127.57 52.6755 127.54L52.7054 127.52C53.2854 127.18 53.1954 126.02 53.2654 125.59C53.7054 126.05 54.5155 126.09 54.8855 126.1C56.4055 126.16 56.2755 124.81 56.4655 125.42C56.9555 127 59.5255 127.57 60.9055 127.8C65.1055 128.5 69.6255 127.26 73.1155 124.87C75.0555 123.54 76.7755 121.75 77.7855 119.61C79.2855 116.42 80.2855 111.99 78.5855 108.68C77.7055 106.97 76.2054 105.33 74.2654 104.89C73.7954 104.78 73.3054 104.74 72.8254 104.75Z" fill="#F4B6B0"/>
<path d="M64.8755 135.24L64.8855 135.2C64.8955 135.14 64.9054 135.09 64.9154 135.03C65.0354 134.31 65.1255 133.29 64.4455 132.8C64.0855 132.54 63.6455 132.42 63.0655 132.44C62.4955 132.46 61.8955 132.61 61.3655 132.75C61.2455 132.78 61.1255 132.81 61.0055 132.84C60.8355 132.88 60.6655 132.92 60.4955 132.96C59.2155 133.27 57.8854 133.6 56.5454 133.65C56.4854 133.65 56.4254 133.65 56.3554 133.65H56.3354C55.1354 133.67 53.8954 133.51 52.8354 133.2C51.5454 132.82 50.5354 132.22 49.8354 131.43C48.7554 130.2 48.2654 128.28 48.5254 126.28C48.8654 123.72 50.3254 121.78 53.0254 120.36C55.3354 119.14 58.1355 118.51 60.6155 117.96C61.1155 117.85 61.5854 117.74 62.0454 117.63C63.2654 117.34 64.3855 116.63 65.1755 115.63C65.9855 114.62 66.4054 113.37 66.3554 112.11C66.3354 111.42 66.1155 110.9 65.7555 110.7C65.6055 110.61 65.4654 110.48 65.3454 110.32C63.9154 108.97 63.9054 106.57 63.9054 106.54L63.6255 98.2598L66.1255 98.1998L66.3954 106.3C66.6154 107.33 67.1554 107.42 67.1654 107.42L67.2154 107.43L67.2054 107.44C67.2354 107.44 67.2554 107.44 67.2754 107.44C67.3354 107.44 67.3954 107.43 67.4654 107.41C67.5754 107.37 67.6854 107.24 67.7754 107.14C67.7954 107.11 67.8154 107.09 67.8454 107.06C68.3154 106.56 68.8354 106.03 69.5154 105.63C70.0254 105.33 70.5855 105.1 71.1755 104.95C71.7555 104.8 72.2854 104.72 72.7954 104.7H72.8254C73.3254 104.69 73.8054 104.73 74.2954 104.84C76.7354 105.39 78.1455 107.68 78.6355 108.64C79.4155 110.17 79.6855 112.03 79.4355 114.17C79.1755 116.4 78.4254 118.35 77.8354 119.6C76.8954 121.6 75.2754 123.42 73.1454 124.88C70.3654 126.78 67.0554 127.89 63.8254 128C62.8354 128.03 61.8554 127.97 60.9154 127.82C58.3054 127.39 56.8055 126.58 56.4455 125.41C56.4155 125.32 56.4054 125.29 56.3954 125.28C56.3754 125.29 56.3554 125.34 56.3354 125.38C56.1954 125.61 55.9154 126.09 55.0754 126.12C55.0254 126.12 54.9654 126.12 54.9054 126.12C54.5654 126.11 53.7755 126.08 53.3055 125.65C53.2955 125.73 53.2954 125.83 53.2854 125.95C53.2554 126.46 53.2054 127.24 52.7654 127.52C52.8154 127.55 52.8855 127.59 52.9455 127.64C53.1255 127.79 53.3555 128.08 53.3755 128.63C53.4055 129.2 53.6354 129.43 53.8454 129.6C54.6254 130.24 55.6355 130.57 56.6755 130.52C57.7555 130.46 58.7954 130.1 59.7954 129.75C60.5254 129.49 61.2855 129.23 62.0655 129.08C62.6255 128.98 63.1755 128.91 63.6855 128.9C65.1255 128.85 66.3655 129.15 67.3655 129.78C67.8455 130.09 68.1854 130.4 68.4554 130.79C68.7154 131.16 68.8955 131.58 69.1155 132.14C69.1855 132.33 69.8054 133.97 69.4854 134.64C69.4254 134.77 69.3255 134.86 69.1955 134.9H69.1855C68.7155 134.93 68.2554 134.97 67.7954 135.01C66.8554 135.09 65.8855 135.17 64.9355 135.22L64.8755 135.24ZM63.0754 132.37C63.6654 132.35 64.1255 132.47 64.4955 132.74C65.2055 133.26 65.1154 134.31 64.9854 135.05C64.9754 135.09 64.9754 135.13 64.9654 135.17C65.9054 135.12 66.8554 135.04 67.7754 134.97C68.2354 134.93 68.7054 134.89 69.1654 134.86C69.2754 134.83 69.3554 134.75 69.4154 134.64C69.7254 134 69.1154 132.37 69.0454 132.19C68.5954 131.04 68.2655 130.46 67.3155 129.86C66.3255 129.23 65.1055 128.94 63.6755 128.99C63.1655 129.01 62.6255 129.07 62.0655 129.17C61.2955 129.31 60.5455 129.58 59.8055 129.84C58.8055 130.19 57.7654 130.56 56.6654 130.62C55.6054 130.67 54.5754 130.34 53.7854 129.68C53.5454 129.48 53.3254 129.22 53.2854 128.65C53.2754 128.13 53.0655 127.85 52.8855 127.71C52.8055 127.64 52.7254 127.6 52.6654 127.56L52.6155 127.53L52.6955 127.48C53.1255 127.23 53.1754 126.46 53.2054 125.95C53.2154 125.8 53.2254 125.67 53.2354 125.57L53.2455 125.5L53.2954 125.55C53.7254 126.01 54.5454 126.04 54.8954 126.05C54.9554 126.05 55.0155 126.05 55.0655 126.05C55.8655 126.02 56.1354 125.57 56.2654 125.35C56.3154 125.26 56.3455 125.21 56.3855 125.21C56.4355 125.21 56.4655 125.27 56.5055 125.4C56.8555 126.52 58.3754 127.34 60.9154 127.76C61.8554 127.91 62.8255 127.98 63.8155 127.94C67.0355 127.83 70.3254 126.73 73.0954 124.84C75.2054 123.39 76.8155 121.58 77.7555 119.59C78.4755 118.07 80.6455 112.78 78.5555 108.69C77.5255 106.68 75.9555 105.31 74.2555 104.92C73.7755 104.81 73.3055 104.77 72.8055 104.78H72.7754C72.2654 104.8 71.7454 104.88 71.1654 105.03C70.5754 105.18 70.0254 105.41 69.5154 105.7C68.8454 106.1 68.3255 106.62 67.8655 107.12C67.8455 107.14 67.8254 107.17 67.7954 107.2C67.6954 107.31 67.5754 107.45 67.4554 107.49C67.3954 107.51 67.3255 107.53 67.2555 107.53C67.2155 107.53 67.1655 107.53 67.1155 107.52L67.0754 107.51V107.5C66.9254 107.46 66.4954 107.25 66.2954 106.33L66.0555 98.2898L63.6955 98.3498L63.9754 106.56C63.9754 106.58 63.9854 108.96 65.3954 110.29C65.5254 110.45 65.6554 110.57 65.7954 110.65C66.1754 110.87 66.4055 111.39 66.4255 112.12C66.4655 113.39 66.0454 114.66 65.2254 115.68C64.4254 116.69 63.2955 117.41 62.0655 117.7C61.6055 117.81 61.1355 117.91 60.6355 118.03C58.1655 118.58 55.3755 119.21 53.0655 120.43C50.3955 121.84 48.9354 123.76 48.6054 126.3C48.3454 128.28 48.8354 130.18 49.9054 131.39C50.5954 132.17 51.5855 132.75 52.8655 133.13C53.9155 133.44 55.1454 133.6 56.3454 133.58H56.3655C56.4255 133.58 56.4855 133.58 56.5555 133.58C57.8855 133.53 59.2055 133.21 60.4854 132.9C60.6554 132.86 60.8255 132.82 60.9955 132.78C61.1155 132.75 61.2254 132.72 61.3554 132.69C61.8854 132.54 62.4954 132.38 63.0754 132.37Z" fill="#BC546A"/>
<path opacity="0.8" d="M78.6055 108.68C77.7255 106.97 76.2255 105.33 74.2855 104.89C73.7855 104.78 73.3054 104.74 72.8254 104.75C72.2754 104.77 71.7355 104.85 71.1755 105C70.5955 105.15 70.0455 105.37 69.5255 105.68C68.8755 106.06 68.3755 106.56 67.8655 107.1C67.7655 107.21 67.6155 107.41 67.4655 107.46C67.4055 107.48 67.3355 107.49 67.2755 107.5C67.2355 107.5 67.1854 107.49 67.1454 107.48L67.1555 107.47C67.1555 107.47 66.5855 107.39 66.3555 106.32L66.0854 98.2598L65.1655 98.2798L65.4355 106.28C65.4355 106.28 65.4755 107.46 66.2455 107.9C66.2455 107.9 66.7255 108.31 66.6155 108.77C66.5055 109.24 64.9755 110.14 63.9255 106.56C63.9255 106.56 63.9255 108.96 65.3655 110.31C65.4855 110.46 65.6154 110.59 65.7654 110.68C66.1454 110.9 66.3555 111.44 66.3855 112.12C66.4255 113.37 66.0155 114.55 65.3155 115.51C65.6555 115.22 66.4954 114.4 66.8254 113.04C67.2454 111.31 66.8755 107.97 70.6255 107.23C74.3755 106.48 76.9555 111.35 74.6255 117.23C74.6255 117.23 73.1554 121.17 68.0854 123.48C63.0054 125.79 56.9255 124.22 56.8155 121.58C56.6955 118.94 59.6555 118.25 60.0255 118.18C60.0755 118.17 60.1255 118.14 60.1755 118.11C56.7855 118.88 52.7755 119.86 50.4455 122.33C51.5355 121.39 53.0155 120.32 54.0955 120.24C56.0355 120.09 56.2655 123.49 54.9655 124.15C53.6655 124.81 51.9755 123.21 51.9455 123.04C51.9455 123.04 52.9554 127.58 49.5154 128.12C49.8554 128.07 51.2355 127.96 51.6955 129.13C52.2155 130.46 54.8055 132.68 58.2855 131.56C58.2855 131.56 56.7254 132.09 56.3254 132.81C56.3254 132.81 55.1355 131.75 53.4355 132.26C53.4355 132.26 52.7754 130.7 49.6454 131.11C49.7254 131.22 49.8054 131.32 49.8954 131.42C51.3954 133.12 54.1855 133.67 56.3655 133.62C56.4355 133.62 56.5055 133.62 56.5655 133.62C58.0755 133.57 59.5554 133.16 61.0154 132.81C62.0654 132.56 63.5155 132.07 64.4855 132.78C65.1655 133.28 65.0955 134.28 64.9655 135.05C64.9555 135.11 64.9455 135.16 64.9355 135.22C66.3555 135.14 67.7655 135.01 69.1855 134.9C69.9655 134.65 69.2554 132.61 69.0854 132.18C68.6654 131.1 68.3355 130.47 67.3455 129.84C65.7855 128.84 63.8455 128.82 62.0655 129.15C60.2355 129.49 58.5555 130.5 56.6755 130.59C55.6555 130.64 54.6155 130.32 53.8155 129.66C53.5955 129.48 53.3654 129.23 53.3354 128.66C53.3154 128.15 53.1155 127.86 52.9255 127.69C52.8355 127.62 52.7555 127.57 52.6955 127.54L52.7255 127.52C53.3055 127.18 53.2155 126.02 53.2855 125.59C53.7255 126.05 54.5355 126.09 54.9055 126.1C56.4255 126.16 56.2955 124.81 56.4855 125.42C56.9755 127 59.5455 127.57 60.9255 127.8C65.1255 128.5 69.6455 127.26 73.1355 124.87C75.0755 123.54 76.7955 121.75 77.8055 119.61C79.3055 116.42 80.3055 111.99 78.6055 108.68Z" fill="#F4B6B0"/>
<path d="M63.8855 98.4999L64.1454 106.09C64.1454 106.09 64.2555 107.63 65.3055 108.67C65.3055 108.67 64.3854 107.32 64.3354 105.75L64.1155 98.4899L63.8855 98.4999Z" fill="#F4B6B0"/>
<path d="M69.3055 108.12C69.3055 108.12 67.9054 108.51 67.3354 111.54C66.7654 114.57 65.7955 117.79 59.9955 118.35C59.9955 118.35 62.5655 118.66 64.5955 117.12C64.5955 117.12 65.9855 116.14 66.6255 114.74C67.7855 112.22 67.4155 109.79 69.3055 108.12Z" fill="#F4B6B0"/>
<path d="M52.2855 121.14C52.2855 121.14 46.7755 124.87 49.6555 130.72C49.6555 130.71 47.0155 125.85 52.2855 121.14Z" fill="#F4B6B0"/>
<g opacity="0.2">
<path opacity="0.2" d="M62.4055 131.34C62.4055 131.34 59.2955 130.51 58.0255 133.01C57.9455 133.17 57.8655 133.33 57.7855 133.5C58.8755 133.34 59.9355 133.06 61.0055 132.8C62.0555 132.55 63.5055 132.06 64.4755 132.77C65.1555 133.27 65.0854 134.27 64.9554 135.04C64.9454 135.1 64.9355 135.15 64.9255 135.21C66.3455 135.13 67.7555 135 69.1755 134.89C69.9555 134.64 69.2454 132.6 69.0754 132.17C68.6554 131.09 68.3254 130.46 67.3354 129.83C66.5054 129.3 65.5755 129.05 64.6155 128.97C64.3855 129.26 64.1255 129.68 64.0555 130.19C64.0555 130.19 62.6655 130.4 62.4055 131.34Z" fill="#F4B6B0"/>
</g>
</svg>
