<svg width="1387" height="4556" viewBox="0 0 1387 4556" fill="none" xmlns="http://www.w3.org/2000/svg">
<path d="M983.992 3968.83C990.879 3944.23 1000.46 3927.63 994.227 3921.21C992.226 3919.15 989.957 3919.45 972.688 3921.25C947.634 3923.85 944.818 3923.7 941.769 3926.75C935.446 3933.06 937.891 3943.34 939.353 3963.71C941.275 3990.56 942.773 4011.49 937.949 4032.4C931.309 4061.18 917.07 4070.94 922.877 4085.95C926.735 4093.41 932.566 4099.68 939.736 4104.07C948.909 4111.27 957.593 4118.08 963.861 4115.48C971.559 4112.28 971.707 4096.5 973.625 4066.99C977.069 4013.93 978.793 3987.4 983.992 3968.83Z" fill="#FFEECC" stroke="#282724" stroke-miterlimit="10"/>
<path opacity="0.1" d="M994.848 3935.23C989.271 3935.24 983.704 3935.72 978.205 3936.66C971.851 3937.17 965.685 3939.06 960.14 3942.2C948.475 3951.17 960.282 3973.64 960.14 4006.07C959.855 4046.32 941.363 4053.86 948.333 4082.31C951.371 4094.28 957.059 4105.41 964.977 4114.88C964.628 4115.13 964.244 4115.32 963.839 4115.45C957.579 4118.15 948.903 4111.32 939.798 4104.07C932.616 4099.7 926.763 4093.46 922.871 4086.01C917.038 4070.93 931.263 4061.12 937.949 4032.38C942.785 4011.47 941.221 3990.56 939.371 3963.68C937.949 3943.34 935.389 3933.1 941.79 3926.7C944.776 3923.72 947.622 3923.86 972.658 3921.3C990.011 3919.45 992.288 3919.16 994.279 3921.15C996.982 3923.99 996.698 3928.69 994.848 3935.23Z" fill="#282724"/>
<path d="M925.326 4101.32C919.096 4099.93 915.98 4099.23 913.195 4100.95C902.779 4107.37 920.455 4131.7 912.932 4162.22C907.48 4184.34 890.546 4202.6 893.774 4217.22C894.336 4220.92 896.239 4224.29 899.121 4226.67C903.348 4229.71 906.624 4227.36 911.365 4229.35C920.079 4233.02 918.868 4245.08 924.491 4246.38C929.396 4247.5 936.196 4239.66 940.041 4231.96C948.342 4215.35 940.059 4205.05 941.254 4184.5C943.163 4151.69 966.247 4144.13 959.428 4125.7C954.199 4111.58 936.08 4103.73 925.326 4101.32Z" fill="#FFEECC" stroke="#282724" stroke-miterlimit="10"/>
<path opacity="0.1" d="M960.567 4134.8C953.455 4127.69 945.205 4123.13 940.083 4125.41C933.681 4128.11 936.81 4138.78 932.401 4162.82C926.426 4195.53 915.189 4206.34 922.017 4216.3C924.556 4219.28 927.797 4221.58 931.447 4223C935.098 4224.41 939.043 4224.9 942.927 4224.41C942.246 4227.01 941.293 4229.54 940.083 4231.95C936.241 4239.63 929.414 4247.45 924.434 4246.31C918.887 4245.03 920.025 4233.08 911.348 4229.39C906.653 4227.4 903.382 4229.67 899.115 4226.68C896.283 4224.21 894.377 4220.85 893.709 4217.15C890.579 4202.65 907.507 4184.3 912.913 4162.25C920.452 4131.67 902.813 4107.35 913.197 4100.94C916.042 4099.24 919.029 4099.95 925.288 4101.37C936.099 4103.79 954.165 4111.61 959.428 4125.69C960.548 4128.59 960.939 4131.72 960.567 4134.8Z" fill="#282724"/>
<path d="M906.395 4226.88C903.286 4226.36 900.096 4226.65 897.137 4227.74C894.178 4228.83 891.553 4230.67 889.52 4233.07C885.333 4240.29 894.539 4246.6 895.531 4263.81C896.292 4272.99 894.434 4282.21 890.173 4290.38C885.078 4299.54 880.277 4299.58 878.006 4307.24C875.174 4316.8 878.765 4329.81 885.602 4331.65C891.724 4333.3 899.472 4325.73 902.995 4318.92C907.243 4310.71 903.297 4307.56 905.927 4296.26C908.493 4285.23 913.036 4284.84 921.316 4266.37C924.917 4260.59 926.843 4253.93 926.879 4247.12C926.067 4242 923.642 4237.28 919.957 4233.64C916.272 4230 911.521 4227.63 906.395 4226.88Z" fill="#FFEECC" stroke="#282724" stroke-miterlimit="10"/>
<path d="M1309.42 3875.2C1302.42 3884.53 1317.82 3899.24 1327.26 3932.9C1332.69 3952.23 1337.12 3968.06 1332.58 3986.93C1328.17 4005.25 1317.39 4017.7 1322.42 4023.23C1325.49 4026.61 1330.28 4022.82 1341.92 4025.75C1353.28 4028.62 1354.93 4033.8 1362.08 4033.83C1366.56 4033.25 1370.83 4031.57 1374.51 4028.95C1378.19 4026.32 1381.17 4022.83 1383.18 4018.78C1391.2 4004.13 1381.54 3989.41 1374.99 3965.75C1360.31 3912.67 1379.42 3879.98 1361.57 3870.05C1354.11 3865.89 1343.09 3867.33 1330.12 3869.02C1318.25 3870.57 1312.31 3871.35 1309.42 3875.2Z" fill="#FFEECC" stroke="#282724" stroke-miterlimit="10"/>
<path opacity="0.1" d="M1383.19 4018.73C1381.18 4022.77 1378.21 4026.26 1374.54 4028.88C1370.87 4031.51 1366.61 4033.2 1362.13 4033.81C1354.88 4033.81 1353.32 4028.69 1341.94 4025.7C1330.27 4022.85 1325.43 4026.55 1322.45 4023.28C1317.33 4017.73 1328.14 4005.22 1332.55 3986.87C1337.1 3968.09 1332.69 3952.16 1327.28 3932.96C1317.75 3899.25 1302.39 3884.45 1309.36 3875.21C1312.35 3871.37 1318.18 3870.51 1330.13 3868.95C1333.4 3868.52 1336.67 3868.1 1339.8 3867.81H1340.09C1344.9 3867.17 1349.78 3867.17 1354.59 3867.81C1357.03 3868.16 1359.39 3868.93 1361.56 3870.09C1369.1 3874.36 1370.1 3882.61 1369.67 3894.7C1366.74 3890.93 1363.12 3887.74 1359 3885.31C1346.49 3877.63 1328.42 3875.92 1325.29 3881.61C1321.73 3888.3 1343.5 3896.54 1351.04 3918.88C1362.84 3953.44 1326.71 3981.32 1341.22 4005.22C1344.05 4009.86 1348.16 4013.59 1353.06 4015.96C1357.95 4018.33 1363.42 4019.24 1368.82 4018.59C1372.82 4017.16 1376.43 4014.8 1379.35 4011.71C1382.27 4008.62 1384.41 4004.88 1385.6 4000.81C1386.96 4006.88 1386.1 4013.23 1383.19 4018.73Z" fill="#282724"/>
<path d="M1357.21 4077.24C1352.88 4085.68 1353.74 4094.12 1355.65 4110.66C1358.51 4135.59 1364.53 4143.76 1358.8 4153.9C1357.6 4156.22 1355.93 4158.27 1353.89 4159.91C1351.85 4161.54 1349.5 4162.74 1346.98 4163.43C1332.36 4165.83 1312.9 4140.59 1316.72 4123.13C1317.83 4118.07 1319.88 4118.27 1321.87 4111.82C1324.68 4102.69 1322.62 4095.7 1318.33 4078.66C1311.11 4049.95 1310.78 4045.12 1313.23 4039.77C1314.52 4036.86 1316.38 4034.23 1318.7 4032.04C1321.01 4029.85 1323.74 4028.14 1326.72 4027C1338.86 4023.37 1346.32 4036.24 1364.84 4034.23C1369.04 4033.77 1371.66 4032.79 1373.71 4034.52C1378.34 4038.44 1374.18 4051.42 1370.21 4059.33C1365.08 4069.54 1361.15 4069.55 1357.21 4077.24Z" fill="#FFEECC" stroke="#282724" stroke-miterlimit="10"/>
<path opacity="0.1" d="M1333.26 4044.9C1328.14 4050.45 1343.93 4063.68 1346.2 4086.58C1348.76 4112.61 1331.27 4124.84 1338.24 4135.51C1341.15 4138.61 1344.75 4140.98 1348.76 4142.42C1352.77 4143.85 1357.06 4144.31 1361.28 4143.76C1361.45 4147.28 1360.61 4150.79 1358.86 4153.86C1357.63 4156.18 1355.94 4158.23 1353.88 4159.86C1351.82 4161.5 1349.45 4162.7 1346.91 4163.38C1332.4 4165.8 1312.92 4140.63 1316.76 4123.13C1317.9 4118.01 1319.89 4118.29 1321.88 4111.75C1324.72 4102.65 1322.59 4095.68 1318.32 4078.61C1311.07 4050.02 1310.78 4045.18 1313.2 4039.78C1315.84 4033.9 1320.7 4029.3 1326.72 4026.98C1338.81 4023.42 1346.35 4036.22 1364.84 4034.23C1368.96 4033.8 1371.67 4032.81 1373.66 4034.52C1377.07 4037.36 1375.93 4044.76 1373.51 4051.58C1369.82 4050.3 1364.84 4049.17 1357.73 4047.32C1343.22 4043.76 1335.96 4042.06 1333.26 4044.9Z" fill="#282724"/>
<path d="M1269.43 4058.72C1271.58 4048.25 1276.61 4025.2 1265.78 4017.77C1262.46 4015.49 1259.46 4015.91 1239.76 4017.36C1209.55 4019.58 1206.15 4019.37 1202.52 4022.51C1192.69 4031.05 1197.7 4050.07 1200.36 4061.35C1207.08 4089.83 1231.03 4191.3 1196.01 4220.05C1187.14 4227.33 1172.13 4231.87 1168.71 4246.03C1167.9 4248.66 1167.71 4251.45 1168.14 4254.17C1168.57 4256.89 1169.62 4259.47 1171.21 4261.73C1176.18 4267.04 1183.23 4263.51 1193.8 4267.11C1208.03 4271.94 1209.68 4283.21 1216.26 4283.54C1228.85 4284.17 1240.26 4243.8 1245.09 4225.78C1270.05 4132.65 1253.9 4134.38 1269.43 4058.72Z" fill="#FFEECC" stroke="#282724" stroke-miterlimit="10"/>
<path opacity="0.1" d="M1231.98 4034.38C1224.3 4042.48 1227.71 4054.86 1231.41 4076.76C1241.51 4137.64 1250.61 4191.98 1226.15 4221.28C1217.75 4231.38 1204.38 4239.49 1206.8 4248.45C1208.51 4254.56 1216.61 4258.12 1223.02 4258.83C1227.23 4259.29 1231.49 4258.65 1235.39 4256.98C1229.99 4271.35 1223.3 4283.86 1216.33 4283.58C1215.26 4283.55 1214.22 4283.21 1213.34 4282.58C1213.34 4282.57 1213.34 4282.55 1213.33 4282.53C1213.33 4282.51 1213.32 4282.5 1213.3 4282.48C1213.29 4282.47 1213.27 4282.46 1213.26 4282.45C1213.24 4282.45 1213.22 4282.44 1213.2 4282.44C1210.19 4279.62 1207.34 4276.63 1204.67 4273.48C1201.57 4270.58 1197.88 4268.4 1193.86 4267.08C1183.19 4263.52 1176.22 4267.08 1171.24 4261.68C1169.67 4259.42 1168.63 4256.85 1168.18 4254.14C1167.74 4251.44 1167.91 4248.66 1168.68 4246.03C1172.09 4231.81 1187.17 4227.4 1195.99 4220C1230.98 4191.27 1207.08 4089.85 1200.4 4061.4C1197.7 4050.02 1192.72 4031.11 1202.53 4022.57C1205.66 4019.58 1208.79 4019.58 1230.98 4017.88H1231.55C1233.97 4017.73 1236.81 4017.59 1239.8 4017.31C1241.37 4017.17 1242.93 4017.02 1244.35 4017.02C1244.64 4017.02 1244.78 4016.88 1245.06 4016.88C1260 4015.89 1262.7 4015.74 1265.83 4017.73C1267.66 4019.14 1269.16 4020.92 1270.24 4022.96C1271.32 4024.99 1271.95 4027.24 1272.09 4029.54C1256.73 4024.7 1239.8 4025.98 1231.98 4034.38Z" fill="#282724"/>
<path d="M1144.42 4400.49C1147.91 4403.22 1153.27 4398.26 1159.88 4401.9C1169.2 4407.03 1165.16 4420.53 1174.42 4425.54C1176.75 4426.68 1179.3 4427.28 1181.89 4427.31C1184.48 4427.34 1187.04 4426.79 1189.39 4425.71C1201.11 4419.79 1191.97 4399.19 1195 4372.33C1199.65 4331 1227.81 4322.01 1219.35 4294.91C1217.61 4288.95 1214.54 4283.47 1210.36 4278.87C1206.19 4274.28 1201.02 4270.7 1195.25 4268.4C1184.92 4264.92 1170.13 4265.5 1163.52 4272.99C1154.71 4282.96 1168.8 4295.72 1170.58 4319.18C1173.73 4360.64 1135.28 4393.35 1144.42 4400.49Z" fill="#FFEECC" stroke="#282724" stroke-miterlimit="10"/>
<path opacity="0.1" d="M1220.74 4303.63C1216.06 4295.4 1209.35 4288.5 1201.25 4283.58C1192.72 4278.6 1181.34 4275.33 1179.2 4278.46C1177.5 4281.02 1184.75 4286.14 1189.59 4295.81C1200.68 4318.57 1188.31 4347.73 1185.46 4354.41C1178.49 4370.91 1171.52 4374.47 1172.09 4386.7C1172.38 4394.81 1176.07 4406.47 1183.76 4408.89C1185.76 4409.36 1187.84 4409.39 1189.86 4408.98C1191.87 4408.56 1193.77 4407.7 1195.42 4406.47C1195.99 4416 1195.42 4422.69 1189.45 4425.67C1187.37 4426.66 1185.11 4427.21 1182.8 4427.28C1180.5 4427.35 1178.21 4426.95 1176.07 4426.1C1175.47 4426.04 1174.89 4425.85 1174.37 4425.53C1165.12 4420.55 1169.25 4407.04 1159.86 4401.92C1159.06 4401.48 1158.22 4401.12 1157.35 4400.85C1156.51 4400.77 1155.74 4400.5 1154.88 4400.5C1154.02 4400.5 1153.17 4400.64 1152.32 4400.64C1149.19 4401.07 1146.49 4402.06 1144.35 4400.5C1135.25 4393.39 1173.8 4360.67 1170.53 4319.14C1168.82 4295.67 1154.74 4283.01 1163.56 4273.05C1170.1 4265.51 1184.89 4264.95 1195.28 4268.36C1198.69 4269.49 1201.87 4271.22 1204.67 4273.48C1208.01 4275.95 1210.89 4278.98 1213.2 4282.44C1213.22 4282.44 1213.24 4282.44 1213.26 4282.45C1213.27 4282.46 1213.29 4282.47 1213.3 4282.48C1213.32 4282.49 1213.33 4282.51 1213.33 4282.53C1213.34 4282.55 1213.34 4282.56 1213.34 4282.58C1215.91 4286.41 1217.92 4290.57 1219.32 4294.96C1220.24 4297.76 1220.72 4300.69 1220.74 4303.63Z" fill="#282724"/>
<path d="M1121.26 4492.9C1126.74 4496.29 1138.31 4492.53 1144.47 4485.8C1153.24 4476.23 1145.01 4467.3 1153.12 4454.74C1160.04 4444.02 1168.67 4446.48 1173.53 4436.81C1179.24 4425.43 1175.36 4405.95 1161.81 4401.46C1156.85 4400.07 1151.58 4400.27 1146.73 4402.02C1141.88 4403.76 1137.7 4406.98 1134.77 4411.22C1130.13 4419.44 1138.3 4424.21 1136.45 4437.25C1134.51 4450.97 1124.59 4451.86 1119.71 4469.13C1118.57 4473.16 1114.22 4488.53 1121.26 4492.9Z" fill="#FFEECC" stroke="#282724" stroke-miterlimit="10"/>
<path d="M1177.59 4049.52C1179.81 4038.51 1185 4014.23 1174.2 4006.49C1169.05 4002.8 1164.35 4005.94 1148.17 4006.24C1122.13 4006.73 1113.66 3999.05 1106.86 4004.13C1097.29 4011.29 1104.02 4034.06 1108.44 4052.76C1114.21 4077.14 1139.9 4187.76 1103.03 4219.62C1094.1 4227.34 1079.05 4232.21 1075.53 4247.12C1074.7 4249.88 1074.49 4252.78 1074.9 4255.63C1075.32 4258.48 1076.35 4261.2 1077.93 4263.61C1082.46 4268.7 1088.88 4267.25 1100.51 4269.11C1120.75 4272.36 1124.69 4280.93 1132.43 4279.08C1145.57 4275.94 1148.94 4247.8 1152.11 4225.32C1167.44 4116.54 1175.04 4062.14 1177.59 4049.52Z" fill="#FFEECC" stroke="#282724" stroke-miterlimit="10"/>
<path opacity="0.1" d="M1180.2 4017.88C1177.01 4019.05 1173.73 4019.96 1170.38 4020.58C1154.17 4023.71 1148.48 4019.87 1143.93 4021.71C1117.89 4032.24 1175.51 4212.74 1129.42 4241.9C1123.16 4245.88 1112.63 4248.44 1112.77 4253.7C1112.92 4259.82 1127.99 4267.93 1142.36 4269.35C1141.53 4271.6 1140.2 4273.64 1138.48 4275.31C1136.75 4276.98 1134.68 4278.25 1132.4 4279.02C1124.72 4280.87 1120.74 4272.34 1100.54 4269.07C1088.88 4267.22 1082.47 4268.64 1077.92 4263.66C1076.36 4261.24 1075.34 4258.52 1074.92 4255.67C1074.5 4252.83 1074.7 4249.92 1075.5 4247.16C1079.06 4232.22 1094.13 4227.39 1103.1 4219.57C1139.94 4187.7 1114.2 4077.18 1108.51 4052.72C1103.95 4034.09 1097.27 4011.33 1106.8 4004.07C1113.63 3999.1 1122.16 4006.78 1148.19 4006.21C1164.41 4005.92 1169.1 4002.79 1174.22 4006.49C1175.94 4007.88 1177.35 4009.61 1178.38 4011.57C1179.41 4013.53 1180.03 4015.67 1180.2 4017.88Z" fill="#282724"/>
<path d="M1046.72 4448.05C1049.43 4452.9 1054.62 4451.34 1066.37 4459.82C1074.89 4465.97 1076.75 4470.09 1081.36 4469.9C1088 4469.64 1092.69 4460.74 1094.37 4457.47C1105.96 4434.86 1097.26 4409.68 1098.82 4384.11C1101.91 4333.52 1143.08 4315.16 1130.61 4290.6C1123.12 4275.82 1101.59 4269.41 1100.51 4269.1C1093.33 4267.05 1083.95 4264.37 1077.6 4268.7C1067.46 4275.61 1074.62 4293.8 1075.1 4325.64C1075.54 4355.19 1076.01 4387.43 1059.09 4416.42C1052.31 4428.05 1042.23 4439.99 1046.72 4448.05Z" fill="#FFEECC" stroke="#282724" stroke-miterlimit="10"/>
<path opacity="0.1" d="M1129.56 4312.59C1126.2 4302.03 1119.26 4292.97 1109.93 4286.99C1107.94 4285.85 1099.4 4281.02 1094.71 4284.29C1088.31 4288.7 1093.43 4304.77 1095.42 4316.15C1103.67 4362.66 1068.11 4380.59 1073.23 4427.1C1074.69 4441.49 1079.3 4455.38 1086.74 4467.78C1085.19 4469.01 1083.31 4469.76 1081.34 4469.91C1076.78 4470.05 1074.93 4465.93 1066.4 4459.81C1066.26 4459.81 1066.12 4459.67 1065.97 4459.53C1064.8 4458.64 1063.56 4457.83 1062.27 4457.11C1053.31 4451.56 1049.19 4452.27 1046.77 4448.01C1042.22 4440.04 1052.32 4428.09 1059.15 4416.43C1076.07 4387.41 1075.5 4355.27 1075.08 4325.68C1074.65 4293.82 1067.4 4275.61 1077.64 4268.64C1083.9 4264.38 1093.29 4267.08 1100.54 4269.07C1101.54 4269.36 1123.16 4275.76 1130.55 4290.55C1132.25 4294.01 1133.05 4297.85 1132.88 4301.7C1132.7 4305.55 1131.56 4309.3 1129.56 4312.59Z" fill="#282724"/>
<path d="M1029.56 4555.5C1036.2 4555.64 1041.69 4542.41 1046.3 4531.31C1052.54 4516.3 1050.01 4515.01 1054.74 4506.84C1063.35 4491.98 1073.72 4492.8 1075.76 4482.37C1076.35 4477.3 1075.38 4472.17 1072.98 4467.67C1070.59 4463.16 1066.88 4459.49 1062.35 4457.13C1058.5 4454.95 1054.12 4453.86 1049.7 4454C1045.27 4454.13 1040.97 4455.47 1037.26 4457.89C1028.5 4464.73 1034.48 4474.79 1028.97 4499.04C1023.7 4522.28 1014.36 4530 1019.15 4543.62C1020.84 4548.43 1024.8 4555.4 1029.56 4555.5Z" fill="#FFEECC" stroke="#282724" stroke-miterlimit="10"/>
<path d="M1070.5 4016.79C1074.97 4002.51 1082.53 3982.38 1073.71 3973.74C1070.81 3970.9 1067.76 3970.9 1048.02 3969.53C1017.73 3967.43 1014.39 3966.71 1010.28 3969.45C999.691 3976.5 1000.9 3995.15 1001.67 4009.45C1006.25 4094.66 1008.54 4137.26 997.407 4165.58C990.432 4183.31 978.816 4201.12 985.136 4207.52C989.805 4212.24 998.677 4205.07 1015.94 4207.59C1035.39 4210.42 1042.06 4222.14 1049.16 4219.22C1058.6 4215.34 1055 4191.24 1054.27 4164.62C1053.6 4140.56 1051.83 4076.42 1070.5 4016.79Z" fill="#FFEECC" stroke="#282724" stroke-miterlimit="10"/>
<path opacity="0.1" d="M1055.16 4206.34C1054.59 4213.03 1052.88 4217.72 1049.18 4219.29C1042.07 4222.13 1035.39 4210.47 1015.9 4207.62C998.687 4205.06 989.867 4212.17 985.173 4207.48C978.772 4201.08 990.436 4183.3 997.406 4165.52C1008.5 4137.21 1006.23 4094.69 1001.67 4009.48C1000.96 3995.12 999.682 3976.48 1010.21 3969.51C1014.33 3966.67 1017.75 3967.38 1048.05 3969.51C1067.82 3970.94 1070.81 3970.94 1073.65 3973.78C1075.24 3975.66 1076.42 3977.83 1077.13 3980.18C1077.84 3982.53 1078.06 3985 1077.78 3987.44C1063.84 3980.47 1046.34 3977.62 1037.09 3985.3C1024.43 3995.83 1037.66 4018.59 1038.52 4056.71C1040.22 4127.26 997.548 4157.41 1015.61 4185.72C1020.23 4191.91 1026.18 4196.98 1033.03 4200.55C1039.88 4204.12 1047.44 4206.1 1055.16 4206.34Z" fill="#282724"/>
<path d="M963.526 4336.77C967.47 4341.8 973.9 4336.7 985.219 4343C1000.25 4351.35 1002.36 4367.81 1008.23 4366.99C1011.94 4366.48 1014.27 4359.48 1016.3 4348.48C1018.73 4332.59 1019.66 4316.5 1019.1 4300.43C1021.65 4262.67 1056.42 4253.35 1050.08 4231.08C1047.27 4224.28 1042.55 4218.44 1036.49 4214.27C1030.44 4210.1 1023.3 4207.78 1015.94 4207.59C1014.53 4207.51 995.591 4206.8 986.534 4219.43C977.351 4232.24 989.105 4243.72 987.59 4267.99C985.279 4304.85 955.168 4326.11 963.526 4336.77Z" fill="#FFEECC" stroke="#282724" stroke-miterlimit="10"/>
<path opacity="0.1" d="M1045.77 4250.15C1042.05 4241.21 1035.3 4233.86 1026.71 4229.39C1024.86 4228.53 1016.04 4224.41 1011.49 4228.11C1006.23 4232.23 1011.92 4242.33 1012.2 4255.84C1012.63 4286.71 983.042 4299.79 990.012 4319.57C991.861 4324.83 993.568 4323.12 1002.53 4334.93C1007.44 4341.22 1011.55 4348.1 1014.76 4355.41C1013.06 4362.38 1011.06 4366.65 1008.22 4366.93C1003.95 4367.5 1001.68 4358.97 994.991 4351.15C992.239 4347.87 988.913 4345.12 985.175 4343.04C981.415 4340.83 977.159 4339.61 972.801 4339.48H972.658C968.533 4339.2 965.687 4339.48 963.554 4336.78C955.161 4326.11 985.318 4304.92 987.594 4267.94C989.158 4243.76 977.353 4232.23 986.455 4219.43C990.145 4215.36 994.714 4212.18 999.816 4210.13C1004.92 4208.09 1010.42 4207.23 1015.9 4207.63C1023.26 4207.78 1030.42 4210.08 1036.49 4214.25C1042.55 4218.42 1047.27 4224.28 1050.04 4231.1C1050.92 4234.38 1050.99 4237.83 1050.24 4241.15C1049.5 4244.46 1047.97 4247.55 1045.77 4250.15Z" fill="#282724"/>
<path d="M929.483 4436.78C934.288 4441.29 946.476 4438.7 953.854 4432.1C964.349 4422.7 957.84 4411.69 968.23 4398.91C977.105 4387.98 985.215 4391.89 991.839 4381.85C999.63 4370.04 999.413 4347.95 986.799 4341.12C981.908 4338.97 976.444 4338.5 971.258 4339.79C966.073 4341.07 961.458 4344.03 958.134 4348.22C952 4356.69 959.211 4363.08 954.946 4377.26C950.457 4392.18 940.447 4391.81 932.375 4410.25C930.493 4414.55 923.307 4430.98 929.483 4436.78Z" fill="#FFEECC" stroke="#282724" stroke-miterlimit="10"/>
<path opacity="0.1" d="M926.857 4247.17C927.177 4251.4 926.289 4255.65 924.297 4259.4C919.034 4249.88 912.348 4243.61 909.503 4244.75C906.516 4245.89 910.925 4254.99 908.081 4268.93C904.098 4288.7 891.011 4291.97 890.727 4306.48C890.799 4313.62 893.251 4320.53 897.696 4326.11C896.357 4328.03 894.531 4329.55 892.405 4330.53C890.28 4331.5 887.932 4331.89 885.606 4331.66C878.777 4329.81 875.221 4316.86 878.066 4307.19C880.342 4299.65 885.036 4299.51 890.158 4290.41C894.401 4282.22 896.274 4273.01 895.563 4263.81C894.567 4246.6 885.321 4240.34 889.588 4233.09C890.741 4231.39 892.26 4229.97 894.032 4228.94C895.804 4227.9 897.786 4227.28 899.831 4227.11C901.991 4226.75 904.189 4226.65 906.373 4226.83C911.348 4227.57 915.968 4229.85 919.588 4233.34C923.209 4236.83 925.65 4241.37 926.573 4246.31C926.731 4246.57 926.828 4246.87 926.857 4247.17Z" fill="#282724"/>
<path opacity="0.1" d="M1176.07 4426.1C1175.98 4429.8 1175.11 4433.43 1173.51 4436.77C1173.26 4437.3 1172.93 4437.78 1172.52 4438.19C1172.05 4433.75 1170.59 4429.47 1168.25 4425.67C1166.26 4422.4 1162.28 4417.28 1159.71 4418.13C1156.87 4419.13 1159.43 4426.38 1157.02 4436.06C1154.74 4444.88 1150.76 4446.3 1139.8 4463.08C1132.69 4474.18 1129.14 4479.72 1130.27 4483C1131.18 4484.76 1132.47 4486.3 1134.04 4487.5C1135.62 4488.71 1137.44 4489.55 1139.38 4489.97C1136.84 4491.9 1133.87 4493.19 1130.72 4493.71C1127.57 4494.23 1124.34 4493.97 1121.31 4492.95C1114.2 4488.54 1118.61 4473.18 1119.75 4469.06C1124.58 4451.85 1134.54 4450.99 1136.39 4437.19C1138.24 4424.25 1130.13 4419.41 1134.83 4411.16C1136.79 4408.23 1139.38 4405.77 1142.4 4403.95C1145.42 4402.13 1148.81 4401 1152.32 4400.64C1153.36 4400.52 1154.41 4400.47 1155.45 4400.5C1156.05 4400.67 1156.67 4400.77 1157.3 4400.78C1158.84 4400.8 1160.38 4401.04 1161.85 4401.49C1166.51 4403.58 1170.38 4407.08 1172.94 4411.5C1175.49 4415.92 1176.59 4421.03 1176.07 4426.1Z" fill="#282724"/>
<path opacity="0.1" d="M1075.79 4482.43C1075.66 4483.02 1075.47 4483.6 1075.22 4484.14C1068.25 4474.75 1059.15 4468.78 1054.45 4470.77C1049.19 4473.19 1054.02 4483.71 1047.62 4500.64C1040.51 4519.27 1028.56 4521.84 1029.56 4531.93C1030.66 4537.97 1034.08 4543.33 1039.08 4546.87C1036.24 4551.99 1033.11 4555.69 1029.56 4555.55C1024.86 4555.4 1020.88 4548.43 1019.17 4543.6C1014.34 4529.94 1023.73 4522.26 1028.99 4499.08C1034.54 4474.75 1028.56 4464.8 1037.24 4457.83C1040.95 4455.45 1045.25 4454.12 1049.66 4454C1054.07 4453.87 1058.43 4454.95 1062.27 4457.12C1063.56 4457.84 1064.79 4458.65 1065.97 4459.53C1066.11 4459.68 1066.26 4459.82 1066.4 4459.82C1069.78 4462.46 1072.41 4465.93 1074.06 4469.9C1075.7 4473.86 1076.3 4478.18 1075.79 4482.43Z" fill="#282724"/>
<path opacity="0.1" d="M994.992 4375.32C992.858 4365.79 989.302 4358.82 985.176 4358.4C980.767 4358.11 978.491 4365.79 969.814 4380.01C949.472 4413.44 932.118 4419.13 935.105 4429.94C936.298 4433.51 938.784 4436.51 942.075 4438.33C939.994 4439.11 937.757 4439.37 935.554 4439.1C933.35 4438.83 931.245 4438.03 929.416 4436.77C923.298 4430.94 930.553 4414.58 932.402 4410.31C940.51 4391.82 950.468 4392.25 954.878 4377.31C959.145 4363.09 952.033 4356.69 958.149 4348.15C961.74 4343.56 966.913 4340.47 972.659 4339.48H972.802C977.503 4338.37 982.445 4338.98 986.741 4341.18C990.601 4343.4 993.531 4346.94 994.992 4351.14C997.837 4358.95 997.837 4367.51 994.992 4375.32Z" fill="#282724"/>
</svg>
