<svg width="1387" height="4556" viewBox="0 0 1387 4556" fill="none" xmlns="http://www.w3.org/2000/svg">
<path d="M984.089 3969.22C990.976 3944.62 1000.56 3928.02 994.325 3921.6C992.324 3919.54 990.054 3919.84 972.784 3921.63C947.728 3924.24 944.912 3924.09 941.862 3927.13C935.539 3933.45 937.984 3943.73 939.445 3964.1C941.368 3990.95 942.866 4011.89 938.042 4032.8C931.401 4061.59 917.161 4071.34 922.968 4086.35C926.827 4093.82 932.658 4100.09 939.829 4104.47C949.003 4111.68 957.687 4118.49 963.956 4115.89C971.655 4112.69 971.803 4096.91 973.721 4067.39C977.165 4014.33 978.89 3987.79 984.089 3969.22Z" fill="black"/>
<path d="M994.947 3935.62C989.368 3935.63 983.801 3936.11 978.302 3937.04C971.947 3937.55 965.78 3939.45 960.234 3942.59C948.569 3951.55 960.377 3974.03 960.234 4006.46C959.949 4046.72 941.456 4054.26 948.426 4082.71C951.465 4094.68 957.154 4105.81 965.072 4115.29C964.723 4115.53 964.339 4115.73 963.934 4115.86C957.674 4118.56 948.996 4111.73 939.891 4104.48C932.708 4100.11 926.854 4093.86 922.962 4086.41C917.129 4071.33 931.355 4061.52 938.042 4032.78C942.878 4011.87 941.314 3990.96 939.464 3964.07C938.042 3943.73 935.481 3933.49 941.883 3927.09C944.87 3924.1 947.716 3924.24 972.754 3921.68C990.109 3919.83 992.386 3919.55 994.378 3921.54C997.08 3924.38 996.796 3929.08 994.947 3935.62Z" fill="black"/>
<path d="M925.417 4101.73C919.186 4100.33 916.07 4099.64 913.285 4101.35C902.869 4107.78 920.546 4132.11 913.022 4162.63C907.57 4184.75 890.634 4203.02 893.862 4217.64C894.424 4221.34 896.327 4224.7 899.21 4227.09C903.437 4230.12 906.713 4227.77 911.455 4229.77C920.17 4233.43 918.959 4245.5 924.583 4246.8C929.488 4247.92 936.289 4240.08 940.134 4232.38C948.435 4215.77 940.151 4205.46 941.347 4184.91C943.256 4152.1 966.343 4144.54 959.522 4126.11C954.293 4111.99 936.172 4104.13 925.417 4101.73Z" fill="black"/>
<path d="M960.662 4135.2C953.549 4128.09 945.298 4123.54 940.175 4125.82C933.773 4128.52 936.902 4139.19 932.492 4163.23C926.518 4195.95 915.279 4206.76 922.107 4216.72C924.647 4219.69 927.888 4222 931.539 4223.41C935.189 4224.83 939.135 4225.31 943.02 4224.82C942.339 4227.43 941.385 4229.96 940.175 4232.36C936.333 4240.05 929.505 4247.87 924.525 4246.73C918.977 4245.45 920.115 4233.5 911.438 4229.8C906.742 4227.81 903.471 4230.09 899.203 4227.1C896.371 4224.63 894.464 4221.27 893.797 4217.57C890.667 4203.06 907.596 4184.71 913.002 4162.66C920.543 4132.08 902.901 4107.75 913.287 4101.35C916.133 4099.64 919.12 4100.35 925.378 4101.78C936.191 4104.19 954.259 4112.02 959.523 4126.1C960.643 4129 961.034 4132.12 960.662 4135.2Z" fill="black"/>
<path d="M906.484 4227.3C903.375 4226.77 900.184 4227.07 897.225 4228.16C894.266 4229.25 891.641 4231.08 889.608 4233.49C885.42 4240.71 894.627 4247.02 895.619 4264.23C896.38 4273.42 894.522 4282.63 890.26 4290.81C885.165 4299.96 880.364 4300 878.093 4307.67C875.261 4317.22 878.851 4330.23 885.689 4332.08C891.812 4333.73 899.561 4326.16 903.084 4319.35C907.332 4311.13 903.386 4307.99 906.016 4296.68C908.583 4285.66 913.126 4285.26 921.406 4266.79C925.008 4261.01 926.935 4254.35 926.971 4247.54C926.158 4242.42 923.733 4237.7 920.048 4234.06C916.363 4230.42 911.611 4228.05 906.484 4227.3Z" fill="black"/>
<path d="M1309.55 3875.58C1302.55 3884.91 1317.95 3899.63 1327.39 3933.29C1332.82 3952.62 1337.26 3968.45 1332.71 3987.33C1328.3 4005.65 1317.52 4018.09 1322.55 4023.63C1325.62 4027.01 1330.41 4023.22 1342.06 4026.15C1353.41 4029.02 1355.07 4034.2 1362.21 4034.23C1366.7 4033.65 1370.97 4031.97 1374.65 4029.34C1378.33 4026.72 1381.3 4023.23 1383.31 4019.18C1391.34 4004.53 1381.67 3989.81 1375.13 3966.14C1360.44 3913.05 1379.56 3880.36 1361.71 3870.43C1354.25 3866.28 1343.23 3867.71 1330.25 3869.41C1318.38 3870.95 1312.44 3871.73 1309.55 3875.58Z" fill="black"/>
<path d="M1383.32 4019.13C1381.31 4023.17 1378.34 4026.65 1374.67 4029.28C1371 4031.91 1366.74 4033.6 1362.27 4034.2C1355.01 4034.2 1353.45 4029.08 1342.07 4026.1C1330.4 4023.25 1325.57 4026.95 1322.58 4023.68C1317.46 4018.13 1328.27 4005.61 1332.68 3987.26C1337.23 3968.48 1332.82 3952.55 1327.41 3933.35C1317.88 3899.63 1302.52 3884.84 1309.49 3875.59C1312.48 3871.75 1318.31 3870.9 1330.26 3869.33C1333.53 3868.91 1336.8 3868.48 1339.93 3868.19H1340.22C1345.03 3867.55 1349.91 3867.55 1354.73 3868.19C1357.17 3868.54 1359.53 3869.31 1361.7 3870.47C1369.24 3874.74 1370.24 3882.99 1369.81 3895.08C1366.87 3891.31 1363.25 3888.12 1359.14 3885.69C1346.62 3878.01 1328.55 3876.3 1325.42 3881.99C1321.87 3888.68 1343.63 3896.93 1351.17 3919.26C1362.98 3953.83 1326.85 3981.71 1341.36 4005.61C1344.19 4010.25 1348.29 4013.98 1353.19 4016.35C1358.08 4018.73 1363.56 4019.64 1368.95 4018.98C1372.96 4017.56 1376.57 4015.2 1379.48 4012.11C1382.4 4009.02 1384.55 4005.28 1385.74 4001.2C1387.1 4007.27 1386.24 4013.63 1383.32 4019.13Z" fill="black"/>
<path d="M1357.34 4077.64C1353.01 4086.09 1353.88 4094.53 1355.78 4111.07C1358.65 4135.99 1364.67 4144.17 1358.94 4154.31C1357.73 4156.63 1356.06 4158.68 1354.02 4160.32C1351.99 4161.96 1349.63 4163.15 1347.11 4163.84C1332.49 4166.24 1313.03 4141 1316.85 4123.54C1317.96 4118.48 1320.01 4118.68 1322 4112.23C1324.82 4103.1 1322.75 4096.1 1318.46 4079.06C1311.24 4050.35 1310.91 4045.52 1313.36 4040.17C1314.65 4037.26 1316.51 4034.63 1318.83 4032.44C1321.14 4030.25 1323.87 4028.53 1326.85 4027.4C1338.99 4023.77 1346.46 4036.64 1364.97 4034.63C1369.17 4034.17 1371.8 4033.18 1373.84 4034.91C1378.48 4038.83 1374.31 4051.82 1370.34 4059.73C1365.21 4069.95 1361.29 4069.95 1357.34 4077.64Z" fill="black"/>
<path d="M1333.39 4045.3C1328.27 4050.85 1344.06 4064.08 1346.34 4086.98C1348.9 4113.01 1331.4 4125.25 1338.37 4135.91C1341.28 4139.02 1344.89 4141.39 1348.89 4142.83C1352.9 4144.26 1357.19 4144.72 1361.42 4144.17C1361.58 4147.69 1360.74 4151.2 1359 4154.27C1357.77 4156.59 1356.07 4158.64 1354.01 4160.28C1351.96 4161.91 1349.59 4163.11 1347.05 4163.8C1332.54 4166.21 1313.05 4141.03 1316.89 4123.54C1318.03 4118.42 1320.02 4118.7 1322.01 4112.16C1324.85 4103.05 1322.72 4096.08 1318.45 4079.01C1311.2 4050.42 1310.91 4045.58 1313.33 4040.18C1315.97 4034.29 1320.83 4029.69 1326.85 4027.37C1338.94 4023.82 1346.48 4036.62 1364.97 4034.63C1369.1 4034.2 1371.8 4033.21 1373.79 4034.91C1377.21 4037.76 1376.07 4045.16 1373.65 4051.98C1369.95 4050.7 1364.97 4049.56 1357.86 4047.72C1343.35 4044.16 1336.09 4042.45 1333.39 4045.3Z" fill="black"/>
<path d="M1269.56 4059.12C1271.71 4048.65 1276.74 4025.6 1265.91 4018.16C1262.59 4015.89 1259.58 4016.31 1239.89 4017.76C1209.67 4019.98 1206.27 4019.77 1202.64 4022.91C1192.81 4031.45 1197.82 4050.47 1200.48 4061.75C1207.2 4090.23 1231.15 4191.71 1196.13 4220.46C1187.26 4227.75 1172.25 4232.29 1168.83 4246.45C1168.02 4249.08 1167.82 4251.87 1168.26 4254.59C1168.69 4257.31 1169.74 4259.89 1171.33 4262.15C1176.3 4267.46 1183.34 4263.93 1193.92 4267.53C1208.15 4272.37 1209.8 4283.64 1216.38 4283.96C1228.97 4284.59 1240.38 4244.22 1245.21 4226.2C1270.17 4133.06 1254.02 4134.78 1269.56 4059.12Z" fill="black"/>
<path d="M1232.1 4034.77C1224.42 4042.88 1227.83 4055.26 1231.53 4077.17C1241.63 4138.05 1250.74 4192.39 1226.27 4221.69C1217.87 4231.79 1204.5 4239.9 1206.92 4248.87C1208.63 4254.98 1216.73 4258.54 1223.14 4259.25C1227.35 4259.71 1231.61 4259.07 1235.51 4257.4C1230.11 4271.77 1223.42 4284.29 1216.45 4284C1215.38 4283.98 1214.34 4283.63 1213.46 4283.01C1213.46 4282.99 1213.46 4282.97 1213.45 4282.95C1213.45 4282.93 1213.43 4282.92 1213.42 4282.9C1213.41 4282.89 1213.39 4282.88 1213.37 4282.87C1213.36 4282.87 1213.34 4282.86 1213.32 4282.86C1210.31 4280.04 1207.46 4277.05 1204.78 4273.9C1201.69 4271 1198 4268.82 1193.97 4267.5C1183.3 4263.94 1176.33 4267.5 1171.35 4262.09C1169.79 4259.84 1168.74 4257.27 1168.3 4254.56C1167.85 4251.85 1168.02 4249.08 1168.79 4246.45C1172.21 4232.22 1187.29 4227.81 1196.11 4220.41C1231.1 4191.68 1207.2 4090.25 1200.52 4061.8C1197.81 4050.42 1192.83 4031.5 1202.65 4022.97C1205.78 4019.98 1208.91 4019.98 1231.1 4018.27H1231.67C1234.09 4018.13 1236.94 4017.99 1239.92 4017.7C1241.49 4017.56 1243.05 4017.42 1244.48 4017.42C1244.76 4017.42 1244.9 4017.28 1245.19 4017.28C1260.12 4016.28 1262.83 4016.14 1265.96 4018.13C1267.78 4019.54 1269.28 4021.32 1270.36 4023.36C1271.44 4025.39 1272.07 4027.63 1272.22 4029.93C1256.85 4025.1 1239.92 4026.38 1232.1 4034.77Z" fill="black"/>
<path d="M1144.53 4400.93C1148.02 4403.65 1153.38 4398.7 1160 4402.34C1169.32 4407.47 1165.27 4420.96 1174.54 4425.98C1176.87 4427.11 1179.42 4427.72 1182.01 4427.75C1184.6 4427.78 1187.16 4427.23 1189.51 4426.15C1201.23 4420.23 1192.09 4399.62 1195.11 4372.76C1199.77 4331.43 1227.93 4322.43 1219.47 4295.33C1217.73 4289.37 1214.66 4283.89 1210.48 4279.3C1206.3 4274.7 1201.14 4271.12 1195.37 4268.82C1185.04 4265.34 1170.25 4265.92 1163.63 4273.41C1154.82 4283.39 1168.91 4296.14 1170.7 4319.61C1173.85 4361.07 1135.39 4393.78 1144.53 4400.93Z" fill="black"/>
<path d="M1220.86 4304.06C1216.18 4295.82 1209.47 4288.92 1201.37 4284C1192.83 4279.02 1181.45 4275.75 1179.32 4278.88C1177.61 4281.44 1184.87 4286.56 1189.7 4296.23C1200.8 4318.99 1188.42 4348.16 1185.58 4354.84C1178.61 4371.34 1171.64 4374.9 1172.21 4387.13C1172.49 4395.24 1176.19 4406.91 1183.87 4409.32C1185.87 4409.8 1187.96 4409.83 1189.97 4409.41C1191.99 4408.99 1193.89 4408.14 1195.54 4406.91C1196.11 4416.44 1195.54 4423.12 1189.56 4426.11C1187.48 4427.1 1185.22 4427.64 1182.92 4427.72C1180.62 4427.79 1178.33 4427.39 1176.19 4426.54C1175.59 4426.48 1175 4426.28 1174.48 4425.97C1165.24 4420.99 1169.36 4407.48 1159.97 4402.35C1159.18 4401.91 1158.34 4401.55 1157.47 4401.28C1156.62 4401.21 1155.85 4400.93 1154.99 4400.93C1154.14 4400.93 1153.29 4401.07 1152.43 4401.07C1149.3 4401.5 1146.6 4402.5 1144.47 4400.93C1135.36 4393.82 1173.91 4361.1 1170.64 4319.56C1168.93 4296.09 1154.85 4283.43 1163.67 4273.47C1170.22 4265.93 1185.01 4265.37 1195.4 4268.78C1198.81 4269.91 1201.99 4271.64 1204.78 4273.9C1208.12 4276.37 1211.01 4279.41 1213.32 4282.86C1213.34 4282.86 1213.36 4282.86 1213.38 4282.87C1213.39 4282.88 1213.41 4282.89 1213.42 4282.9C1213.44 4282.92 1213.45 4282.93 1213.45 4282.95C1213.46 4282.97 1213.46 4282.99 1213.46 4283C1216.03 4286.83 1218.04 4290.99 1219.44 4295.38C1220.36 4298.18 1220.84 4301.11 1220.86 4304.06Z" fill="black"/>
<path d="M1121.37 4493.34C1126.85 4496.74 1138.42 4492.97 1144.58 4486.24C1153.36 4476.67 1145.12 4467.74 1153.23 4455.18C1160.16 4444.46 1168.79 4446.91 1173.64 4437.24C1179.35 4425.86 1175.47 4406.39 1161.92 4401.9C1156.96 4400.51 1151.69 4400.7 1146.84 4402.45C1141.99 4404.2 1137.81 4407.41 1134.88 4411.65C1130.24 4419.88 1138.41 4424.65 1136.56 4437.68C1134.62 4451.41 1124.7 4452.3 1119.82 4469.57C1118.68 4473.6 1114.33 4488.97 1121.37 4493.34Z" fill="black"/>
<path d="M1177.7 4049.92C1179.92 4038.9 1185.11 4014.63 1174.32 4006.89C1169.17 4003.19 1164.46 4006.33 1148.28 4006.64C1122.24 4007.12 1113.77 3999.44 1106.97 4004.53C1097.39 4011.69 1104.12 4034.46 1108.55 4053.16C1114.31 4077.54 1140.01 4188.18 1103.14 4220.04C1094.21 4227.76 1079.16 4232.63 1075.64 4247.54C1074.81 4250.3 1074.6 4253.2 1075.01 4256.05C1075.42 4258.9 1076.46 4261.62 1078.03 4264.03C1082.57 4269.12 1088.98 4267.67 1100.62 4269.54C1120.86 4272.78 1124.8 4281.35 1132.54 4279.5C1145.68 4276.36 1149.06 4248.22 1152.22 4225.74C1167.56 4116.95 1175.16 4062.54 1177.7 4049.92Z" fill="black"/>
<path d="M1180.32 4018.27C1177.13 4019.45 1173.84 4020.36 1170.5 4020.98C1154.28 4024.1 1148.59 4020.26 1144.04 4022.11C1118 4032.64 1175.62 4213.16 1129.53 4242.32C1123.27 4246.3 1112.74 4248.86 1112.88 4254.12C1113.03 4260.24 1128.11 4268.35 1142.47 4269.77C1141.64 4272.02 1140.31 4274.06 1138.59 4275.73C1136.86 4277.41 1134.79 4278.67 1132.52 4279.45C1124.83 4281.29 1120.85 4272.76 1100.65 4269.49C1088.98 4267.64 1082.58 4269.06 1078.03 4264.08C1076.47 4261.66 1075.44 4258.94 1075.03 4256.09C1074.61 4253.25 1074.81 4250.34 1075.61 4247.58C1079.17 4232.64 1094.24 4227.81 1103.21 4219.98C1140.06 4188.12 1114.31 4077.59 1108.62 4053.12C1104.06 4034.48 1097.38 4011.73 1106.91 4004.47C1113.74 3999.49 1122.27 4007.17 1148.3 4006.6C1164.52 4006.32 1169.22 4003.19 1174.34 4006.89C1176.05 4008.28 1177.47 4010.01 1178.5 4011.96C1179.53 4013.92 1180.14 4016.07 1180.32 4018.27Z" fill="black"/>
<path d="M1046.82 4448.49C1049.53 4453.34 1054.72 4451.78 1066.48 4460.26C1075 4466.41 1076.85 4470.53 1081.47 4470.34C1088.11 4470.08 1092.8 4461.18 1094.48 4457.91C1106.07 4435.29 1097.37 4410.12 1098.93 4384.55C1102.01 4333.94 1143.19 4315.58 1130.73 4291.02C1123.23 4276.24 1101.7 4269.83 1100.62 4269.52C1093.44 4267.47 1084.06 4264.8 1077.7 4269.12C1067.56 4276.03 1074.73 4294.22 1075.2 4326.06C1075.64 4355.62 1076.12 4387.87 1059.2 4416.86C1052.41 4428.48 1042.33 4440.43 1046.82 4448.49Z" fill="black"/>
<path d="M1129.67 4313.02C1126.31 4302.46 1119.37 4293.4 1110.04 4287.41C1108.05 4286.28 1099.51 4281.44 1094.82 4284.71C1088.41 4289.12 1093.53 4305.2 1095.53 4316.58C1103.78 4363.09 1068.21 4381.02 1073.33 4427.53C1074.79 4441.93 1079.41 4455.82 1086.85 4468.22C1085.3 4469.46 1083.42 4470.2 1081.44 4470.35C1076.89 4470.5 1075.04 4466.37 1066.5 4460.25C1066.36 4460.25 1066.22 4460.11 1066.08 4459.97C1064.9 4459.08 1063.66 4458.27 1062.38 4457.55C1053.42 4452 1049.29 4452.71 1046.87 4448.45C1042.32 4440.48 1052.42 4428.53 1059.25 4416.87C1076.18 4387.85 1075.61 4355.7 1075.18 4326.11C1074.76 4294.24 1067.5 4276.03 1077.74 4269.07C1084 4264.8 1093.39 4267.5 1100.65 4269.49C1101.64 4269.78 1123.27 4276.18 1130.66 4290.97C1132.36 4294.43 1133.16 4298.27 1132.99 4302.12C1132.81 4305.98 1131.67 4309.72 1129.67 4313.02Z" fill="black"/>
<path d="M1029.67 4555.95C1036.3 4556.09 1041.79 4542.86 1046.41 4531.75C1052.65 4516.74 1050.12 4515.45 1054.85 4507.28C1063.46 4492.42 1073.82 4493.25 1075.87 4482.81C1076.45 4477.74 1075.48 4472.61 1073.09 4468.11C1070.69 4463.6 1066.98 4459.93 1062.45 4457.57C1058.6 4455.39 1054.23 4454.3 1049.8 4454.44C1045.38 4454.57 1041.07 4455.91 1037.36 4458.32C1028.6 4465.17 1034.58 4475.24 1029.07 4499.48C1023.8 4522.73 1014.46 4530.44 1019.25 4544.07C1020.94 4548.88 1024.9 4555.85 1029.67 4555.95Z" fill="black"/>
<path d="M1070.61 4017.19C1075.07 4002.91 1082.64 3982.77 1073.82 3974.14C1070.91 3971.29 1067.86 3971.29 1048.12 3969.92C1017.83 3967.82 1014.49 3967.1 1010.38 3969.84C999.79 3976.89 1001 3995.54 1001.77 4009.84C1006.35 4095.06 1008.64 4137.67 997.506 4165.99C990.53 4183.72 978.913 4201.53 985.234 4207.93C989.903 4212.66 998.776 4205.49 1016.04 4208C1035.49 4210.84 1042.16 4222.55 1049.26 4219.64C1058.71 4215.76 1055.11 4191.66 1054.37 4165.03C1053.7 4140.97 1051.93 4076.82 1070.61 4017.19Z" fill="black"/>
<path d="M1055.26 4206.76C1054.69 4213.44 1052.99 4218.14 1049.29 4219.7C1042.17 4222.55 1035.49 4210.88 1016 4208.04C998.785 4205.48 989.965 4212.59 985.27 4207.89C978.868 4201.49 990.534 4183.71 997.504 4165.93C1008.6 4137.62 1006.32 4095.09 1001.77 4009.88C1001.06 3995.51 999.78 3976.88 1010.31 3969.91C1014.43 3967.06 1017.85 3967.77 1048.15 3969.91C1067.92 3971.33 1070.91 3971.33 1073.76 3974.17C1075.34 3976.05 1076.52 3978.23 1077.23 3980.57C1077.94 3982.92 1078.16 3985.39 1077.88 3987.83C1063.94 3980.86 1046.44 3978.02 1037.2 3985.7C1024.53 3996.22 1037.76 4018.98 1038.62 4057.11C1040.32 4127.67 997.646 4157.82 1015.71 4186.13C1020.33 4192.32 1026.28 4197.39 1033.13 4200.96C1039.98 4204.54 1047.54 4206.52 1055.26 4206.76Z" fill="black"/>
<path d="M963.621 4337.2C967.566 4342.22 973.997 4337.13 985.317 4343.43C1000.35 4351.78 1002.45 4368.24 1008.33 4367.42C1012.04 4366.91 1014.37 4359.91 1016.4 4348.91C1018.83 4333.01 1019.76 4316.92 1019.2 4300.85C1021.75 4263.09 1056.52 4253.77 1050.18 4231.49C1047.38 4224.69 1042.66 4218.85 1036.6 4214.68C1030.54 4210.51 1023.4 4208.19 1016.04 4208C1014.63 4207.93 995.69 4207.22 986.632 4219.85C977.447 4232.66 989.203 4244.14 987.687 4268.41C985.377 4305.28 955.262 4326.54 963.621 4337.2Z" fill="black"/>
<path d="M1045.88 4250.57C1042.15 4241.63 1035.4 4234.28 1026.81 4229.8C1024.96 4228.95 1016.14 4224.82 1011.59 4228.52C1006.33 4232.65 1012.02 4242.75 1012.3 4256.26C1012.73 4287.13 983.139 4300.22 990.109 4319.99C991.959 4325.26 993.666 4323.55 1002.63 4335.36C1007.54 4341.65 1011.65 4348.53 1014.86 4355.84C1013.16 4362.81 1011.16 4367.08 1008.32 4367.36C1004.05 4367.93 1001.77 4359.4 995.089 4351.58C992.338 4348.3 989.011 4345.55 985.273 4343.47C981.512 4341.26 977.256 4340.04 972.897 4339.91H972.754C968.629 4339.63 965.783 4339.91 963.649 4337.21C955.255 4326.54 985.415 4305.34 987.691 4268.36C989.256 4244.17 977.449 4232.65 986.552 4219.85C990.243 4215.77 994.812 4212.59 999.915 4210.55C1005.02 4208.5 1010.52 4207.64 1016 4208.04C1023.36 4208.19 1030.52 4210.49 1036.59 4214.67C1042.66 4218.84 1047.37 4224.69 1050.15 4231.51C1051.02 4234.8 1051.09 4238.25 1050.35 4241.56C1049.6 4244.88 1048.07 4247.97 1045.88 4250.57Z" fill="black"/>
<path d="M929.575 4437.21C934.38 4441.72 946.569 4439.14 953.948 4432.53C964.444 4423.14 957.935 4412.13 968.326 4399.34C977.201 4388.42 985.312 4392.32 991.936 4382.28C999.729 4370.47 999.511 4348.38 986.897 4341.55C982.005 4339.4 976.54 4338.93 971.354 4340.22C966.168 4341.5 961.553 4344.46 958.228 4348.64C952.094 4357.12 959.306 4363.51 955.04 4377.69C950.55 4392.61 940.54 4392.24 932.467 4410.69C930.585 4414.99 923.398 4431.41 929.575 4437.21Z" fill="black"/>
<path d="M926.948 4247.59C927.268 4251.82 926.38 4256.07 924.388 4259.82C919.124 4250.29 912.438 4244.03 909.593 4245.17C906.605 4246.3 911.015 4255.41 908.17 4269.35C904.187 4289.12 891.099 4292.39 890.814 4306.91C890.886 4314.04 893.339 4320.95 897.785 4326.54C896.445 4328.45 894.619 4329.98 892.493 4330.95C890.367 4331.93 888.02 4332.32 885.693 4332.08C878.864 4330.23 875.307 4317.29 878.153 4307.62C880.429 4300.08 885.123 4299.93 890.245 4290.83C894.49 4282.64 896.362 4273.43 895.651 4264.23C894.655 4247.02 885.408 4240.76 889.675 4233.5C890.829 4231.81 892.347 4230.39 894.12 4229.35C895.893 4228.32 897.874 4227.7 899.919 4227.53C902.08 4227.16 904.278 4227.07 906.462 4227.24C911.438 4227.99 916.058 4230.27 919.679 4233.76C923.3 4237.25 925.741 4241.79 926.665 4246.73C926.822 4246.99 926.919 4247.28 926.948 4247.59Z" fill="black"/>
<path d="M1176.19 4426.54C1176.1 4430.23 1175.23 4433.87 1173.63 4437.21C1173.38 4437.73 1173.04 4438.22 1172.63 4438.63C1172.16 4434.19 1170.71 4429.91 1168.36 4426.11C1166.37 4422.84 1162.39 4417.72 1159.83 4418.57C1156.98 4419.57 1159.54 4426.82 1157.13 4436.5C1154.85 4445.32 1150.87 4446.74 1139.92 4463.52C1132.8 4474.62 1129.25 4480.17 1130.38 4483.44C1131.29 4485.2 1132.58 4486.74 1134.15 4487.95C1135.73 4489.15 1137.55 4489.99 1139.49 4490.41C1136.95 4492.35 1133.98 4493.63 1130.83 4494.15C1127.68 4494.67 1124.45 4494.41 1121.42 4493.4C1114.31 4488.99 1118.72 4473.62 1119.86 4469.5C1124.7 4452.29 1134.65 4451.43 1136.5 4437.63C1138.35 4424.69 1130.24 4419.85 1134.94 4411.6C1136.9 4408.67 1139.49 4406.21 1142.51 4404.39C1145.54 4402.57 1148.93 4401.44 1152.44 4401.07C1153.47 4400.96 1154.52 4400.91 1155.57 4400.93C1156.17 4401.11 1156.79 4401.2 1157.42 4401.22C1158.96 4401.23 1160.49 4401.47 1161.97 4401.93C1166.62 4404.02 1170.5 4407.52 1173.05 4411.94C1175.6 4416.35 1176.7 4421.46 1176.19 4426.54Z" fill="black"/>
<path d="M1075.9 4482.88C1075.77 4483.46 1075.58 4484.04 1075.33 4484.58C1068.35 4475.19 1059.25 4469.22 1054.56 4471.21C1049.29 4473.63 1054.13 4484.16 1047.73 4501.08C1040.61 4519.72 1028.66 4522.28 1029.66 4532.38C1030.76 4538.41 1034.18 4543.78 1039.19 4547.32C1036.34 4552.44 1033.21 4556.14 1029.66 4555.99C1024.96 4555.85 1020.98 4548.88 1019.27 4544.04C1014.44 4530.39 1023.83 4522.71 1029.09 4499.52C1034.64 4475.19 1028.66 4465.24 1037.34 4458.27C1041.06 4455.89 1045.35 4454.56 1049.76 4454.44C1054.17 4454.31 1058.53 4455.39 1062.38 4457.56C1063.66 4458.28 1064.9 4459.09 1066.08 4459.97C1066.22 4460.12 1066.36 4460.26 1066.5 4460.26C1069.88 4462.9 1072.52 4466.37 1074.16 4470.34C1075.81 4474.3 1076.41 4478.62 1075.9 4482.88Z" fill="black"/>
<path d="M995.09 4375.75C992.955 4366.22 989.399 4359.25 985.273 4358.83C980.863 4358.54 978.587 4366.22 969.909 4380.45C949.565 4413.88 932.209 4419.56 935.197 4430.38C936.39 4433.95 938.876 4436.94 942.167 4438.77C940.086 4439.55 937.849 4439.81 935.646 4439.54C933.442 4439.26 931.336 4438.46 929.507 4437.21C923.389 4431.37 930.644 4415.01 932.494 4410.75C940.602 4392.25 950.562 4392.68 954.972 4377.74C959.239 4363.52 952.126 4357.12 958.243 4348.58C961.835 4343.99 967.008 4340.9 972.754 4339.91H972.897C977.599 4338.8 982.541 4339.41 986.838 4341.61C990.698 4343.83 993.628 4347.37 995.09 4351.57C997.935 4359.38 997.935 4367.94 995.09 4375.75Z" fill="black"/>
</svg>
