<svg width="1387" height="4556" viewBox="0 0 1387 4556" fill="none" xmlns="http://www.w3.org/2000/svg">
<path d="M727.401 192.19C780.805 182.065 845.227 208.98 852.932 246.649C862.884 295.31 774.411 343.404 732.886 359.665C707.151 369.744 679.314 380.188 657.195 366.591C629.295 349.445 626.94 304.181 634.099 275.581C645.245 231.06 686.184 200.001 727.401 192.19Z" fill="black"/>
<path d="M996.671 1929.65C1035.15 1931.01 1061.4 1981.99 1069.9 2012.99C1078.82 2045.51 1081 2102.6 1049.29 2122.38C1011.18 2146.14 930.72 2111.94 916.244 2051.3C902.5 1993.72 952.014 1928.07 996.671 1929.65Z" fill="black"/>
<path d="M909.17 1945.3C856.252 1924.66 785.121 1937.96 763.163 1978.97C732.238 2036.74 797.702 2151.66 879.497 2152.14C929.5 2152.44 988.566 2109.99 991.531 2052.42C994.324 1998.17 945.793 1959.58 909.17 1945.3Z" fill="black"/>
<path d="M727.401 192.19C780.805 182.065 845.227 208.98 852.932 246.649C862.884 295.31 774.411 343.404 732.886 359.665C707.151 369.744 679.314 380.188 657.195 366.591C629.295 349.445 626.94 304.181 634.099 275.581C645.245 231.06 686.184 200.001 727.401 192.19Z" stroke="black" stroke-miterlimit="10"/>
<path d="M996.671 1929.65C1035.15 1931.01 1061.4 1981.99 1069.9 2012.99C1078.82 2045.51 1081 2102.6 1049.29 2122.38C1011.18 2146.14 930.72 2111.94 916.244 2051.3C902.5 1993.72 952.014 1928.07 996.671 1929.65Z" stroke="black" stroke-miterlimit="10"/>
<path d="M909.17 1945.3C856.252 1924.66 785.121 1937.96 763.163 1978.97C732.238 2036.74 797.702 2151.66 879.497 2152.14C929.5 2152.44 988.566 2109.99 991.531 2052.42C994.324 1998.17 945.793 1959.58 909.17 1945.3Z" stroke="black" stroke-miterlimit="10"/>
</svg>
