<svg width="1387" height="4556" viewBox="0 0 1387 4556" fill="none" xmlns="http://www.w3.org/2000/svg">
<path d="M57.7164 184.342C47.5499 185.907 38.7103 179.017 31.4625 173.205C27.7454 170.223 -6.89695 141.807 1.23103 117.121C4.50212 107.189 14.0946 99.6854 35.4823 92.2273C70.0081 80.6099 106.809 77.4049 142.824 82.8792C242.285 101.586 309.318 18.7101 501.35 2.53364C635.01 -8.72643 739.487 19.887 741.435 42.2942C740.612 52.3528 736.618 61.8907 730.028 69.5343C727.962 72.7168 725.274 75.448 722.124 77.5633C718.975 79.6786 715.429 81.1342 711.702 81.8423C706.281 81.6102 701.013 79.978 696.41 77.1049C691.808 74.2317 688.028 70.2154 685.44 65.4474C685.361 65.2788 681.14 56.4677 645.302 43.8099C567.189 16.2233 425.151 56.8572 425.15 56.858C292.331 101.128 314.924 109.891 243.442 119.392C146.321 132.3 97.4625 139.551 80.8592 163.059C75.875 170.104 69.6888 182.498 57.7164 184.342Z" fill="black"/>
<path d="M715.597 51.7748C632.379 -15.6584 494.472 21.2233 393.785 49.5045C253.117 89.0147 247.62 121.277 178.095 112.831C142.814 108.544 81.7062 92.6405 63.3662 119.255C53.7713 133.177 59.8136 153.03 47.7628 159.635C37.1958 165.428 20.8857 156.557 7.44815 146.835C14.0755 156.786 22.1724 165.676 31.4629 173.203C38.7133 179.015 47.5503 185.905 57.7168 184.34C69.6883 182.497 75.8764 170.102 80.8589 163.049C97.4622 139.545 146.319 132.293 243.441 119.382C314.924 109.881 292.331 101.118 425.149 56.8479C425.149 56.8479 567.189 16.215 645.302 43.7999C681.141 56.4568 685.361 65.2713 685.439 65.4374C688.028 70.2053 691.808 74.2215 696.41 77.0946C701.013 79.9678 706.281 81.5999 711.702 81.8322C715.429 81.1241 718.974 79.6685 722.124 77.5532C725.273 75.4379 727.962 72.7068 730.027 69.5243C730.702 68.7116 731.16 67.8172 731.774 66.9742C726.761 61.5191 721.353 56.439 715.597 51.7748Z" fill="black"/>
</svg>
