<svg width="1387" height="4556" viewBox="0 0 1387 4556" fill="none" xmlns="http://www.w3.org/2000/svg">
<path d="M1078.74 3434.61C1074.92 3445.4 1067.74 3454.67 1058.25 3461.07C1048.29 3467.33 1031.37 3472.31 1022.26 3465.62C1006.9 3454.38 1019.13 3413.7 1021.26 3405.87C1043.17 3327.07 995.8 3156.65 970.904 3038.29C904.892 2723.48 961.799 2603.99 897.642 2418.49C873.742 2349.36 864.921 2273.54 828.076 2210.38C810.151 2179.65 784.827 2143.8 797.917 2113.08C807.306 2091.17 835.9 2074.95 857.951 2079.08C878.722 2082.92 879.006 2101.7 907.743 2113.36C931.928 2123.32 942.74 2114.5 957.392 2124.46C978.02 2138.68 978.589 2171.4 978.874 2186.05C979.87 2245.37 993.812 2305.26 984.423 2363.73C959.669 2516.08 983.427 2789.06 995.376 2927.33C995.803 2931.46 996.088 2935.58 996.515 2939.71C996.515 2939.99 996.657 2940.28 996.657 2940.56C1010.52 3081.51 1040.5 3220.4 1086 3354.52C1091.45 3381.35 1088.93 3409.19 1078.74 3434.61Z" fill="#FFEECC" stroke="#282724" stroke-miterlimit="10"/>
<path opacity="0.05" d="M1078.74 3434.61C1074.92 3445.4 1067.74 3454.67 1058.25 3461.07C1048.29 3467.33 1031.37 3472.31 1022.26 3465.62C1006.9 3454.38 1019.13 3413.7 1021.26 3405.87C1043.17 3327.07 995.8 3156.65 970.904 3038.29C904.892 2723.48 961.799 2603.99 897.642 2418.49C873.742 2349.36 864.921 2273.54 828.076 2210.38C810.151 2179.65 784.827 2143.8 797.917 2113.08C807.306 2091.17 835.9 2074.95 857.951 2079.08C878.722 2082.92 879.006 2101.7 907.743 2113.36C931.928 2123.32 942.74 2114.5 957.392 2124.46C978.02 2138.68 978.589 2171.4 978.874 2186.05C979.87 2245.37 993.812 2305.26 984.423 2363.73C959.669 2516.08 983.427 2789.06 995.376 2927.33C995.803 2931.46 996.088 2935.58 996.515 2939.71C996.515 2939.99 996.657 2940.28 996.657 2940.56C1010.52 3081.51 1040.5 3220.4 1086 3354.52C1091.45 3381.35 1088.93 3409.19 1078.74 3434.61Z" fill="#282724"/>
<path opacity="0.1" d="M996.511 2939.71C972.469 2770.29 960.091 2637.42 953.262 2544.39C940.743 2376.24 941.739 2281.08 876.582 2212.8C861.645 2197.15 815.552 2154.04 826.083 2134.7C831.204 2125.31 849.414 2122.32 862.503 2124.6C884.268 2128.16 884.411 2146.93 901.2 2145.22C921.686 2143.23 935.344 2124.74 956.682 2125.59C957.214 2125.57 957.74 2125.47 958.246 2125.31C966.224 2145.17 973.11 2165.44 978.875 2186.05C979.871 2245.37 993.812 2305.26 984.423 2363.73C959.67 2516.08 983.428 2789.06 995.377 2927.33C995.8 2931.46 996.085 2935.58 996.511 2939.71Z" fill="#282724"/>
<path opacity="0.1" d="M985.118 2270.57C982.693 2242.41 979.339 2214.17 978.867 2186.05C973.102 2165.44 966.215 2145.17 958.238 2125.31C957.731 2125.47 957.206 2125.57 956.674 2125.6C937.172 2124.82 924.027 2140.05 906.281 2144.23C939.413 2181.66 966.059 2224.36 985.118 2270.57Z" fill="#282724"/>
<path opacity="0.1" d="M1056 3426.59C1056.41 3417.61 1056.84 3404.39 1056.68 3388.42C1055.59 3314.55 1043.3 3241.28 1020.24 3171.09C994.404 3086.67 982.62 3018.75 962.12 2900.61C944.302 2797.93 956.808 2811.91 928.06 2486.27C928.06 2486.27 910.029 2282.02 841.346 2212.58C830.612 2201.95 821.206 2190.05 813.336 2177.16C809.782 2171.36 806.592 2165.36 803.493 2159.3C803.697 2160.99 803.307 2162.69 802.391 2164.12C810.05 2180 818.607 2195.43 828.02 2210.34C864.955 2273.48 873.714 2349.32 897.628 2418.45C961.8 2603.95 904.943 2723.47 970.968 3038.23C995.818 3156.7 1043.16 3327.06 1021.33 3405.88C1019.16 3413.72 1006.97 3454.37 1022.3 3465.65C1031.39 3472.33 1048.27 3467.31 1058.25 3461.07C1067.66 3455.2 1082.26 3443.16 1078.8 3434.56C1075.44 3426.21 1057.31 3426.55 1056 3426.59Z" fill="#282724"/>
</svg>
