<svg width="1387" height="4556" viewBox="0 0 1387 4556" fill="none" xmlns="http://www.w3.org/2000/svg">
<path d="M871.89 176.154C869.691 178.105 867.129 179.603 864.351 180.564C861.075 181.236 857.713 181.381 854.392 180.991L851.405 181.418C838.317 185.116 819.537 214.42 797.772 250.123C773.872 289.811 746.273 337.466 718.816 367.624C702.741 385.121 686.807 396.643 671.585 396.928C661.109 396.301 651.277 391.665 644.128 383.983C642.848 382.987 641.568 381.849 640.003 380.711C637.755 378.61 634.995 377.137 631.999 376.438C629.003 375.739 625.876 375.839 622.931 376.728C622.219 377.013 621.509 377.297 620.94 377.581C620.27 377.925 619.648 378.355 619.091 378.861H618.809C603.729 388.962 598.465 422.248 594.909 475.31C594.909 475.732 594.767 476.305 594.767 476.732C593.771 491.811 592.917 508.455 591.921 526.663C591.779 528.655 591.779 530.646 591.637 532.78C591.495 536.194 591.352 539.324 591.21 542.453C589.36 579.866 589.076 598.358 585.804 611.73C585.633 612.601 585.395 613.457 585.092 614.291C584.874 615.258 584.589 616.208 584.239 617.136C583.923 618.248 583.543 619.34 583.101 620.408C581.592 624.131 579.734 627.703 577.552 631.076C565.887 649.57 549.384 662.088 545.971 688.974C544.121 703.769 548.104 709.032 549.527 723.968C552.799 758.963 538.572 787.7 519.651 822.263C484.228 887.131 466.303 924.971 454.78 946.451C453.926 948.015 453.215 949.438 452.361 950.861C451.082 953.137 449.943 955.27 448.805 957.12C446.499 961.253 443.679 965.077 440.412 968.501C438.644 970.451 436.519 972.044 434.152 973.195C431.844 974.161 429.393 974.738 426.896 974.902C385.923 978.459 346.66 908.895 342.535 901.216C324.61 868.781 329.305 851.711 305.688 810.031C293.963 790.108 280.439 771.299 265.287 753.84C219.477 695.374 234.985 658.958 191.594 529.223C162.572 442.73 151.049 445.006 144.221 394.224C142.886 384.181 142.6 374.027 143.367 363.924C143.368 362.019 143.51 360.117 143.794 358.234C144.221 351.405 145.217 344.862 146.212 338.46C151.477 306.173 159.584 279.281 142.514 253.822C124.731 227.363 100.119 227.789 99.8346 211.146C99.1231 184.686 160.581 149.835 218.909 153.822C264.856 156.809 265.713 180.993 316.216 183.695C318.919 183.837 321.48 183.98 324.04 183.98C326.601 184.122 329.163 184.122 331.723 184.122C370.275 184.122 381.941 175.303 412.671 181.988C438.562 187.678 449.374 199.201 455.633 193.511C464.881 184.975 457.909 144.007 456.346 127.931C455.932 125.77 455.932 123.55 456.346 121.389C457.465 120.048 458.703 118.81 460.044 117.69C480.103 100.904 525.058 111.715 525.058 111.715C530.003 112.478 534.862 113.717 539.569 115.413C560.005 123.296 577.193 137.827 588.364 156.667C599.595 157.416 610.865 157.32 622.081 156.382C644.131 154.533 663.476 152.826 682.685 140.735C702.602 128.216 713.84 109.724 713.84 99.4806V99.0591C713.545 93.6038 712.243 88.2502 709.999 83.2688C709.999 83.1263 709.858 83.1262 709.858 82.9837C709.038 81.2689 708.037 79.6474 706.87 78.1474C715.832 73.0261 724.653 67.7632 733.473 62.642C733.615 62.4995 733.615 62.357 733.758 62.2145C737.152 55.9285 739.733 49.2369 741.44 42.3002C742.293 38.8852 742.15 38.3161 742.862 37.6055C747.414 32.4842 788.956 62.357 794.646 66.3411C798.771 69.3278 803.181 72.4579 807.875 76.0137C826.512 90.2395 836.186 96.9246 841.451 101.473C870.611 126.507 879.857 168.472 871.89 176.154Z" fill="#F4D58C" stroke="#282724" stroke-miterlimit="10"/>
<path opacity="0.16" d="M730.698 200.016C720.025 198.546 709.177 198.959 698.647 201.234C679.327 205.754 661.69 215.67 647.79 229.827C610.049 271.452 620.965 354.475 657.232 373.268C662.673 375.973 668.65 377.43 674.726 377.533C733.644 380.458 815.363 304.107 797.775 250.123C789.388 224.394 758.625 204.305 730.698 200.016Z" fill="#282724"/>
<path opacity="0.1" d="M864.351 180.564C861.075 181.237 857.713 181.381 854.392 180.991L851.404 181.418C838.317 185.116 819.537 214.42 797.772 250.123C792.508 248.699 787.244 247.276 781.98 245.855C754.097 238.458 723.653 230.065 701.033 211.146C704.306 209.581 707.862 210.861 712.272 213.279C713.335 213.864 714.531 214.168 715.745 214.16C716.959 214.153 718.15 213.834 719.206 213.235C720.262 212.636 721.147 211.776 721.776 210.738C722.405 209.7 722.757 208.517 722.799 207.304C722.938 206.037 722.685 204.758 722.075 203.639C721.464 202.52 720.526 201.614 719.385 201.045C718.258 200.362 717.067 199.79 715.829 199.339C711.391 197.09 706.42 196.105 701.46 196.493C701.246 196.388 701.054 196.245 700.891 196.071C700.322 195.929 699.753 195.644 699.184 195.501C694.232 193.877 689.134 192.734 683.962 192.087C683.962 192.087 678.982 191.234 673.292 190.523C671.158 190.238 668.882 190.096 666.748 189.954C662.91 190.058 659.153 191.082 655.793 192.941C629.76 205.459 583.666 256.955 594.334 308.593C600.272 330.219 611.13 350.18 626.06 366.916C630.449 371.769 635.103 376.376 640.001 380.715C637.754 378.615 634.994 377.141 631.998 376.442C629.001 375.743 625.874 375.843 622.929 376.732C622.218 377.017 621.507 377.301 620.938 377.585C620.268 377.929 619.646 378.36 619.089 378.866H618.809C603.729 388.967 598.465 422.253 594.909 475.314C594.909 475.736 594.766 476.309 594.766 476.737C593.912 484.134 593.059 499.213 591.921 526.667C591.779 528.659 591.779 530.651 591.637 532.784C591.495 536.198 591.352 539.328 591.209 542.458C590.214 575.033 590.925 594.664 585.804 611.735C585.633 612.605 585.395 613.462 585.092 614.296C584.874 615.262 584.589 616.213 584.239 617.141C583.923 618.252 583.543 619.345 583.101 620.412C581.592 624.136 579.734 627.708 577.552 631.081C565.886 649.575 549.384 662.093 545.971 688.979C544.121 703.773 548.104 709.036 549.527 723.973C552.799 758.968 538.572 787.704 519.651 822.268C484.228 887.135 466.303 924.975 454.78 946.455C453.926 948.02 453.215 949.442 452.361 950.865C451.081 953.141 449.943 955.275 448.805 957.125C446.499 961.257 443.679 965.081 440.411 968.505C438.644 970.455 436.519 972.049 434.152 973.2C431.844 974.166 429.393 974.742 426.896 974.907C385.923 978.463 346.66 908.899 342.535 901.22C324.61 868.786 329.305 851.715 305.688 810.035C293.963 790.112 280.439 771.304 265.287 753.845C219.477 695.379 234.985 658.962 191.594 529.228C162.572 442.735 151.049 445.011 144.221 394.229C142.886 384.186 142.6 374.031 143.367 363.929C143.368 362.024 143.51 360.122 143.794 358.238C144.221 351.41 145.217 344.866 146.212 338.465C151.477 306.177 159.584 279.286 142.514 253.827C124.731 227.367 100.119 227.794 99.8346 211.151C99.1231 184.691 160.581 149.84 218.909 153.826C264.856 156.814 265.713 180.997 316.216 183.7C318.919 183.842 321.48 183.984 324.04 183.984C326.601 184.127 329.162 184.127 331.723 184.127C358.723 185.214 385.765 184.501 412.67 181.992C438.562 187.683 449.374 199.206 455.633 193.515C464.881 184.98 457.909 144.011 456.345 127.936V121.393C458.703 130.659 460.461 140.067 461.609 149.559C462.457 163.464 464.263 177.294 467.014 190.951C468.437 196.641 470.001 201.193 470.998 204.181C478.813 211.389 488.459 216.31 498.882 218.407C505.052 220.216 511.645 219.966 517.661 217.694C522.607 215.46 526.769 211.793 529.609 207.168C520.363 189.244 511.116 171.178 501.868 153.254L507.417 154.961C526.478 160.39 543.225 171.937 555.075 187.822C555.644 188.676 556.213 189.671 556.782 190.524C559.929 196.764 563.898 202.554 568.585 207.738C570.308 209.143 572.368 210.074 574.561 210.44C576.655 210.719 578.784 210.574 580.82 210.013C582.002 209.713 583.147 209.283 584.235 208.732C585.479 208.179 586.669 207.513 587.792 206.742C589.043 206.051 590.192 205.189 591.205 204.181C594.385 201.575 597.04 198.389 599.03 194.792C600.25 192.685 601.07 190.37 601.448 187.964C601.566 187.259 601.614 186.545 601.59 185.83C601.59 178.149 596.47 170.182 588.36 156.668C599.59 157.417 610.861 157.321 622.077 156.383C644.127 154.534 663.471 152.827 682.68 140.736C702.598 128.217 713.836 109.725 713.836 99.4818V99.0604C714.45 96.3101 714.422 93.4555 713.756 90.7174C713.09 87.9793 711.803 85.431 709.995 83.2699C709.995 83.1274 709.853 83.1274 709.853 82.985C710.421 82.5584 711.133 82.2744 711.702 81.847C717.17 80.3207 722.163 77.4334 726.213 73.4548C726.355 73.3124 726.498 73.3122 726.498 73.1698H726.64C729.551 70.1156 731.867 66.5459 733.469 62.6432C733.612 62.5008 733.612 62.3582 733.754 62.2158C755.807 75.7233 862.644 142.013 864.351 180.564Z" fill="#282724"/>
<path opacity="0.1" d="M362.501 901.186C338.329 864.222 336.529 824.282 319.394 785.44C303.993 750.532 271.58 723.006 254.084 688.439C233.069 646.918 226.021 602.524 214.639 558.019C204.536 518.513 184.588 487.753 167.416 451.426C157.522 431.785 151.513 410.419 149.717 388.501C148.345 375.988 153.389 352.875 148.209 341.697C147.688 340.571 146.866 339.529 146.22 338.438C142.711 356.826 142.036 375.642 144.218 394.234C151.047 445.018 162.569 442.742 191.59 529.232C234.981 658.967 219.474 695.384 265.284 753.85C280.436 771.309 293.96 790.118 305.685 810.04C329.302 851.721 324.607 868.79 342.532 901.225C346.657 908.906 385.922 978.469 426.893 974.912C437.653 973.98 443.009 968.44 454.81 946.428C436.715 948.429 418.425 945.236 402.078 937.224C385.732 929.212 372.004 916.712 362.501 901.186Z" fill="#282724"/>
<path opacity="0.16" d="M864.35 180.564C861.025 180.388 857.69 180.531 854.392 180.991L851.404 181.418C828.074 185.543 815.127 201.617 803.602 209.726C779.275 226.654 744.99 216.839 722.797 207.308C715.399 204.036 709.282 200.906 705.299 198.631C703.023 197.492 703.023 197.35 701.458 196.496C700.726 196.105 699.965 195.773 699.181 195.5C691.035 191.915 682.184 190.214 673.289 190.522C667.389 190.729 661.526 191.539 655.79 192.94C645.564 195.294 635.705 199.026 626.485 204.036C621.221 206.739 565.88 236.754 568.157 295.502C568.967 312.614 574.271 329.21 583.536 343.62C592.801 358.029 605.7 369.743 620.933 377.582C625.116 379.768 629.441 381.669 633.879 383.272C629.327 382.134 624.348 380.712 619.084 378.863H618.942C614.674 377.44 610.122 375.733 605.569 373.742C593.225 368.489 581.49 361.906 570.572 354.111C573.132 415.422 573.417 463.646 572.137 501.627C572.137 502.339 571.995 503.192 571.995 503.904C569.576 568.771 562.605 603.339 554.354 622.258C548.187 636.003 542.866 650.113 538.42 664.508C530.238 690.078 524.522 716.372 521.349 743.031C510.536 823.116 452.639 911.032 445.949 908.33C438.978 905.485 491.331 799.221 476.251 790.687C465.581 784.57 430.869 833.647 421.907 828.099C413.798 822.836 440.401 780.3 457.188 714.297C470.066 663.894 472.918 611.453 465.581 559.951C460.603 527.233 448.937 482.281 437.413 482.708C426.601 483.134 427.887 523.108 400.283 576.31C380.224 615.288 351.913 647.153 346.223 644.024C340.533 640.894 363.01 610.024 370.55 554.688C380.082 483.707 358.173 424.527 344.09 404.464C341.45 401.13 339.206 397.502 337.402 393.652C325.879 367.621 331.143 353.253 325.738 344.576C308.808 317.547 188.027 383.98 161.994 354.249C142.504 332.058 193.006 275.299 165.407 233.049C152.177 212.707 131.406 211.711 132.545 199.619C132.971 194.071 137.809 188.95 145.491 184.54C168.915 173.154 194.899 168.056 220.889 169.746C258.02 171.738 260.724 189.519 305.82 198.054C340.818 204.598 352.625 196.348 378.374 194.783C379.508 194.664 380.649 194.617 381.789 194.641C385.3 194.516 388.816 194.611 392.316 194.925C393.028 194.925 393.738 195.067 394.592 195.067C395.303 195.067 396.157 195.21 397.01 195.21C398.576 195.351 400.567 195.494 402.559 195.636C405.12 195.779 407.68 196.064 410.668 196.348C420.895 197.319 443.852 200.995 466.008 203.603C468.308 203.872 470.134 204.077 470.987 204.172C479.671 224.119 490.934 235.764 498.653 233.895C500.335 233.488 502.935 232.178 505.409 227.381C497.203 216.83 489.922 205.59 483.648 193.787C475.218 177.92 465.793 159.638 471.698 151.964C473.121 150.114 476.678 147.839 486.352 149.546C527.893 157.654 546.244 173.872 555.061 187.812C558.481 194.981 562.886 201.637 568.15 207.586H568.292C570.11 209.039 572.261 210.017 574.551 210.43C583.514 211.853 594.325 203.46 599.02 194.783C599.707 193.558 600.279 192.272 600.728 190.941C604 180.842 598.309 168.75 588.35 156.659C632.021 161.353 646.679 161.069 664.603 156.516C684.097 152.693 701.567 141.99 713.826 126.358C717.594 119.993 720.05 112.938 721.052 105.61C722.054 98.2809 721.58 90.8259 719.659 83.6828C721.936 80.2686 724.069 76.8545 726.203 73.4412C726.346 73.2987 726.488 73.2987 726.488 73.1562C728.906 69.5996 731.183 66.0437 733.459 62.6296C733.601 62.4871 733.601 62.3446 733.743 62.2021C755.806 75.7231 862.643 142.013 864.35 180.564Z" fill="#282724"/>
<path opacity="0.1" d="M639.435 187.108C641.427 190.948 598.32 204.605 572.286 247.708C565.884 258.377 548.672 287.681 556.353 322.533C558.947 333.901 563.784 344.637 570.578 354.114C574.797 403.177 575.32 452.488 572.143 501.63C572.143 502.341 572.002 503.194 572.002 503.906C568.303 557.393 559.482 622.545 550.093 622.545C540.561 622.403 551.8 556.824 511.966 482.995C492.904 447.574 476.401 437.047 455.059 388.396C434.147 340.884 443.678 337.9 431.159 323.671C387.91 274.593 274.956 333.629 238.11 283.983C230.712 274.025 235.976 272.461 226.018 253.255C206.954 216.416 172.669 196.07 145.497 184.55C168.921 173.164 194.905 168.065 220.895 169.755C258.026 171.747 260.73 189.529 305.826 198.063C340.823 204.607 352.631 196.357 378.38 194.792C379.514 194.674 380.655 194.626 381.795 194.65C385.306 194.525 388.822 194.62 392.322 194.934C393.034 194.934 393.744 195.076 394.598 195.076C395.309 195.076 396.163 195.219 397.016 195.219C398.582 195.361 400.573 195.503 402.565 195.646C404.841 195.93 407.544 196.215 410.674 196.357C417.653 196.674 424.299 197.047 426.072 197.089C441.206 198.288 456.225 200.659 470.993 204.181C470.993 204.181 481.574 236.262 499.303 240.456C512.534 243.585 523.63 233.769 540.986 222.817C549.768 217.265 558.838 212.184 568.159 207.595H568.301C570.119 209.049 572.27 210.026 574.56 210.44C583.523 211.863 594.334 203.469 599.029 194.792C621.794 186.823 638.297 184.689 639.435 187.108Z" fill="#282724"/>
</svg>
