<svg width="1387" height="4556" viewBox="0 0 1387 4556" fill="none" xmlns="http://www.w3.org/2000/svg">
<path d="M1204.22 3489.38C1195.96 3492.08 1190.42 3474.3 1167.51 3464.06C1153.71 3457.8 1140.77 3457.94 1115.59 3458.65C1075.18 3459.65 1065.37 3467.05 1058.26 3461.07C1038.34 3444.43 1082.16 3361.92 1083.01 3360.21C1101.36 3325.79 1109.9 3281.55 1111.61 3222.23C1114.31 3134.03 1101.79 3012.26 1083.87 2838.57C1052.42 2531.31 991.394 2258.04 971.478 2212.52C964.076 2191.43 958.368 2169.79 954.407 2147.79C950.708 2131.01 948.716 2120.05 954.407 2109.81C960.666 2098.29 973.043 2094.31 988.264 2089.47C1013.31 2082.23 1039.9 2082.23 1064.94 2089.47C1083.72 2093.74 1087.71 2097.86 1089.84 2100.99C1091.82 2105.05 1092.91 2109.49 1093.03 2114C1093.15 2118.52 1092.31 2123 1090.55 2127.17C1089.13 2132.14 1087.14 2137.55 1085.14 2143.24C1080.48 2155.28 1074.96 2166.97 1068.64 2178.23C1057.26 2201.71 1059.11 2224.47 1061.24 2248.36C1067.36 2313.8 1125.69 2649.23 1153 2813.68C1157.27 2839.71 1160.83 2861.48 1163.25 2877.12C1195.12 3083.68 1191.27 3252.96 1205.07 3337.03C1205.78 3341.44 1206.5 3345.57 1207.35 3349.55C1212.19 3373.02 1212.61 3393.93 1213.18 3435.75C1213.75 3468.89 1212.04 3486.96 1204.22 3489.38Z" fill="#FFEECC" stroke="#282724" stroke-miterlimit="10"/>
<path opacity="0.1" d="M1204.22 3489.38C1195.97 3492.08 1190.42 3474.3 1167.51 3464.06C1153.71 3457.8 1140.77 3457.94 1115.59 3458.65C1075.18 3459.65 1065.37 3467.05 1058.26 3461.07C1038.34 3444.43 1082.16 3361.92 1083.01 3360.21C1101.36 3325.79 1109.9 3281.55 1111.61 3222.23C1120.57 3145.41 1112.89 3051.67 1101.79 2916.38C1083.15 2688.78 986.274 2227.59 967.069 2163.01C965.505 2157.46 959.387 2137.97 968.918 2126.88C975.89 2118.63 988.836 2117.92 1005.91 2117.2C1019.71 2116.49 1031.23 2115.92 1034.22 2121.61C1038.91 2130.43 1019.85 2149.07 1017.43 2151.49C968.065 2203.13 1103.93 2619.22 1129.25 2916.38C1152.01 3182.11 1163.39 3314.98 1153.72 3350.11C1151.58 3358.08 1140.06 3396.49 1158.84 3426.93C1168.8 3443.29 1188.29 3458.51 1199.95 3453.82C1211.19 3449.26 1218.87 3424.51 1205.07 3337.03C1205.79 3341.43 1206.5 3345.56 1207.35 3349.54C1212.19 3373.01 1212.61 3393.93 1213.18 3435.75C1213.75 3468.9 1212.04 3486.96 1204.22 3489.38Z" fill="#282724"/>
<path opacity="0.05" d="M1153 2813.67C1145.46 2786.79 1136.64 2754.36 1126.25 2716.66C1035.63 2384.07 993.24 2169.69 1047.58 2134.84C1055.97 2129.6 1065.48 2126.43 1075.33 2125.6C1080.45 2125.32 1085.59 2125.85 1090.55 2127.16C1089.12 2132.14 1087.13 2137.55 1085.14 2143.24C1080.47 2155.27 1074.96 2166.97 1068.64 2178.23C1057.26 2201.7 1059.11 2224.46 1061.24 2248.36C1067.36 2313.8 1125.69 2649.23 1153 2813.67Z" fill="#282724"/>
</svg>
