<svg width="1387" height="4556" viewBox="0 0 1387 4556" fill="none" xmlns="http://www.w3.org/2000/svg">
<path d="M1046.73 1964.7C1032.51 1983.34 1007.61 1971.25 932.918 1979.93C892.373 1984.62 883.269 1990.17 853.677 1987.89C828.924 1985.9 818.681 1976.51 802.748 1982.63C801.759 1983.02 800.806 1983.49 799.902 1984.05C792.105 1987.98 785.59 1994.05 781.123 2001.55C780.982 2001.69 780.982 2001.69 780.839 2001.69C774.722 2010.94 770.454 2019.47 761.349 2019.9C746.839 2020.61 730.905 2000.13 727.348 1980.36C721.658 1949.49 746.128 1921.32 750.395 1916.06C821.241 1828 794.781 1234.8 786.956 1035.08C778.563 820.99 777.43 696.234 772.588 616.43C772.66 616.102 772.66 615.762 772.588 615.434C768.889 552.558 762.914 517.706 749.825 488.687C747.871 484.445 745.686 480.313 743.281 476.31C741.432 473.038 739.156 469.056 736.452 464.787L733.037 459.666C731.046 456.821 727.916 452.411 724.075 446.579C720.234 440.747 715.681 433.634 710.986 425.384C709.421 422.681 707.857 419.836 706.15 416.848C703.589 411.869 700.886 406.606 698.326 401.2C694.04 392.053 690.334 382.646 687.229 373.034C686.626 371.56 686.15 370.037 685.806 368.482C684.811 365.352 684.241 363.361 684.241 363.361C677.57 342.064 676.106 319.478 679.973 297.498C680.711 293.055 681.805 288.678 683.245 284.41C686.801 273.884 698.326 238.888 725.924 229.928C756.369 219.97 786.386 247.993 807.87 231.919C809.336 230.791 810.672 229.503 811.853 228.078C812.465 227.438 812.991 226.721 813.418 225.944C813.922 225.232 814.351 224.469 814.699 223.668C817.97 217.267 818.255 210.723 825.51 206.171C845.142 194.08 886.969 215.703 908.307 241.734C917.548 253.014 923.983 266.323 927.086 280.57V280.854C934.768 313.43 928.509 351.98 922.533 393.377C922.533 393.377 903.186 529.655 893.797 717.571C890.369 788.231 893.082 859.055 901.906 929.245C922.533 1169.37 933.63 1381.04 949.563 1537.95V1538.23C959.095 1632.26 970.476 1706.52 986.41 1755.45V1755.74C986.979 1757.59 987.69 1759.44 988.258 1761.14C988.427 1761.46 988.57 1761.8 988.686 1762.14C989.397 1764.27 990.108 1766.26 990.962 1768.4C992.385 1772.38 993.95 1776.08 995.515 1779.49C995.657 1779.64 995.657 1779.78 995.8 1780.06C997.364 1783.48 999.071 1786.75 1000.64 1789.88C1002.49 1793.15 1004.34 1796.28 1006.33 1799.12C1007.61 1800.97 1008.89 1802.82 1010.03 1804.53C1019.39 1818.35 1027.35 1833.08 1033.78 1848.49C1034.21 1849.62 1034.64 1850.76 1035.06 1851.9C1035.49 1853.04 1035.92 1854.18 1036.34 1855.6C1037.2 1858.01 1038.05 1860.86 1038.9 1864.13C1043.76 1881.46 1047.47 1899.09 1050 1916.91C1054.98 1946.78 1052.28 1957.31 1046.73 1964.7Z" fill="#FFEECC" stroke="#282724" stroke-miterlimit="10"/>
<path opacity="0.1" d="M1042.46 1924.16C1039.77 1941.09 1038.34 1949.48 1032.79 1956.31C1012.16 1981.06 976.881 1953.47 924.386 1974.8C908.304 1982.43 890.93 1986.97 873.171 1988.18C866.676 1988.51 860.164 1988.42 853.681 1987.89C832.2 1986.18 818.97 1975.37 802.752 1982.63C801.762 1983.02 800.81 1983.49 799.906 1984.05C792.881 1989 786.564 1994.89 781.127 2001.55C780.986 2001.69 780.986 2001.69 780.843 2001.69C778.216 2004.2 774.794 2005.71 771.17 2005.96C759.077 2006.81 746.985 1995.72 741.437 1985.33C727.352 1958.87 747.127 1922.74 750.399 1916.05C821.245 1828 794.785 1234.8 786.96 1035.08C778.567 820.988 777.434 696.232 772.592 616.427C772.664 616.1 772.664 615.76 772.592 615.432C771.454 560.522 764.767 514.716 749.829 488.685L748.549 486.55C747.98 485.697 746.272 481.855 743.284 476.308C741.436 473.036 739.159 469.054 736.456 464.785L733.041 459.664C731.05 456.819 727.92 452.409 724.079 446.577C720.238 440.745 715.685 433.632 710.99 425.381C709.425 422.679 707.861 419.834 706.153 416.846C703.593 411.867 700.89 406.604 698.33 401.198C694.044 392.051 690.338 382.644 687.233 373.032C686.664 371.325 686.237 369.76 685.81 368.48C684.815 365.35 684.245 363.359 684.245 363.359C677.574 342.062 676.11 319.476 679.977 297.496C680.715 293.053 681.809 288.676 683.249 284.408C686.805 273.882 698.33 238.886 725.928 229.926C756.372 219.968 786.39 247.991 807.873 231.917C809.34 230.789 810.676 229.5 811.857 228.076C812.469 227.436 812.995 226.719 813.422 225.942C813.932 225.233 814.361 224.47 814.703 223.666C822.106 235.999 828.436 248.944 833.623 262.36C854.561 316.566 850.118 361.909 847.391 410.814C845.188 450.311 843.26 507.327 845.16 579.933C836.208 494.068 826.847 411.576 816.994 328.612C813.643 300.404 808.941 264.954 783.263 251.263C759.657 238.677 723.02 247.07 704.165 270.182C686.524 291.805 691.503 321.109 694.063 335.192C704.449 391.951 751.822 409.448 776.149 454.685C809.012 515.711 817.264 596.085 818.117 630.652C822.384 805.198 892.235 1787.6 815.699 1878.21C806.153 1891.74 800.139 1907.44 798.2 1923.88C798.154 1927.69 798.978 1931.45 800.609 1934.89C802.241 1938.34 804.637 1941.36 807.615 1943.73C810.593 1946.11 814.074 1947.77 817.793 1948.59C821.511 1949.42 825.368 1949.38 829.07 1948.49C838.728 1946.85 847.522 1941.92 853.966 1934.55C879.858 1910.51 883.558 1886.46 891.24 1887.46C900.486 1888.46 894.797 1921.89 915.709 1936.25C925.525 1942.94 936.764 1942.65 952.129 1942.23C966.641 1942.57 980.981 1939.03 993.669 1931.98C1004.22 1926.29 1012.87 1917.64 1018.57 1907.09C1031.94 1879.64 1015.01 1844.5 1007.04 1828.14C999.076 1811.78 992.105 1804.53 988.121 1785.75C986.046 1775.89 985.471 1765.77 986.415 1755.73C986.983 1757.58 987.695 1759.43 988.263 1761.14C988.431 1761.46 988.574 1761.79 988.69 1762.13C989.402 1764.27 990.113 1766.26 990.967 1768.39C992.39 1772.23 993.955 1775.93 995.519 1779.49C995.662 1779.63 995.662 1779.77 995.804 1780.06C997.369 1783.47 999.076 1786.74 1000.64 1789.87C1002.49 1793.15 1004.34 1796.28 1006.33 1799.12C1007.61 1800.97 1008.89 1802.82 1010.03 1804.53C1020.3 1817.78 1028.32 1832.63 1033.79 1848.48C1034.22 1849.62 1034.64 1850.76 1035.07 1851.9C1035.5 1853.03 1035.92 1854.17 1036.35 1855.6C1037.2 1858.01 1038.06 1860.86 1038.91 1864.13C1044.36 1883.66 1045.57 1904.13 1042.46 1924.16Z" fill="#282724"/>
<path opacity="0.1" d="M736.457 464.785L733.042 459.664C731.051 456.819 727.921 452.409 724.08 446.577C720.239 440.745 715.686 433.632 710.991 425.381C709.426 422.678 707.862 419.833 706.155 416.846C703.594 411.867 700.891 406.604 698.331 401.198C692.553 389.015 687.84 376.354 684.246 363.358C677.715 342.036 676.254 319.483 679.978 297.496C679.14 325.85 685.245 353.98 697.761 379.436C706.317 395.049 715.769 410.153 726.071 424.674C736.172 439.468 744.992 451.417 751.394 459.952C768.445 494.645 780.149 531.719 786.106 569.913C789.789 592.625 791.502 615.612 791.227 638.619C790.942 666.784 788.098 769.065 783.119 928.246C777.997 777.6 776.575 681.863 772.591 616.427C772.663 616.099 772.663 615.76 772.591 615.432C771.453 560.522 764.767 514.716 749.829 488.684L748.548 486.55C747.695 485.128 743.711 476.307 736.457 464.785Z" fill="#282724"/>
<path opacity="0.1" d="M1042.46 1924.45C1039.76 1941.23 1038.34 1949.48 1032.79 1956.31C1012.16 1981.06 976.88 1953.47 924.385 1974.81C908.303 1982.44 890.929 1986.97 873.17 1988.18C866.674 1988.52 860.163 1988.42 853.68 1987.89C832.199 1986.19 818.969 1975.37 802.751 1982.63C801.761 1983.02 800.809 1983.49 799.905 1984.05C792.88 1989.01 786.562 1994.89 781.126 2001.55C780.984 2001.69 780.985 2001.69 780.842 2001.69C778.215 2004.2 774.793 2005.71 771.169 2005.96C759.076 2006.81 746.984 1995.72 741.436 1985.33C727.351 1958.87 747.126 1922.74 750.398 1916.06C749.402 1920.89 742.004 1959.58 760.214 1971.1C765.478 1974.52 770.884 1974.23 797.056 1968.69C861.213 1955.17 868.899 1948.2 873.309 1943.23C886.255 1928.43 886.967 1910.22 891.092 1910.93C897.209 1911.93 889.101 1946.64 904.75 1957.02C913.997 1963 922.106 1954.89 948.567 1950.91C984.987 1945.22 993.807 1956.88 1014.43 1947.78C1025.73 1942.71 1035.42 1934.64 1042.46 1924.45Z" fill="#282724"/>
<path opacity="0.05" d="M964.504 1865.41C962.512 1869.4 949.424 1893.86 936.194 1892.16C917.7 1889.88 910.444 1838.38 907.884 1820.6C888.678 1686.6 904.328 1295.26 905.323 1196.25C907.884 928.675 826.225 532.641 882.703 437.189C892.698 420.826 901.083 403.533 907.742 385.552C919.767 351.916 926.299 316.563 927.089 280.851C934.772 313.427 928.513 351.977 922.537 393.374C922.537 393.374 903.189 529.651 893.801 717.568C890.373 788.228 893.086 859.051 901.91 929.241C922.537 1169.36 933.634 1381.04 949.567 1537.94V1538.23C947.291 1668.67 954.689 1729.56 964.362 1758.15C967.776 1768.11 987.408 1821.17 964.504 1865.41Z" fill="#282724"/>
</svg>
