<svg width="1387" height="4556" viewBox="0 0 1387 4556" fill="none" xmlns="http://www.w3.org/2000/svg">
<path d="M1026.59 3609.25C1023.59 3605.6 1019.67 3602.82 1015.24 3601.2C1010.8 3599.58 1006.01 3599.17 1001.36 3600.03C990.444 3603.49 985.205 3618.5 982.088 3629.32C966.66 3682.86 982.496 3705.61 971.932 3757.12C966.305 3788.7 956.752 3819.44 943.495 3848.65C938.219 3858.87 935.316 3870.15 935.001 3881.65C934.302 3887.69 934.844 3893.81 936.595 3899.63C938.346 3905.45 941.269 3910.85 945.183 3915.5C949.315 3919.06 954.238 3921.59 959.543 3922.88C964.849 3924.16 970.383 3924.16 975.688 3922.87C983.155 3921.35 989.881 3917.33 994.758 3911.48C1000.93 3903.07 1004.18 3892.87 1004 3882.44C1004.17 3879.32 1004.09 3876.19 1003.77 3873.08C1002.32 3835.53 1002.8 3797.93 1005.21 3760.43C1011.37 3671.16 1046.56 3631.75 1026.59 3609.25Z" fill="black"/>
<path d="M1032.51 3623.38C1023.97 3616.69 1014.15 3612.14 1007.61 3615.27C994.522 3621.39 1000.5 3655.24 1002.2 3680C1010.45 3800.2 933.495 3881.71 960.237 3902.62C969.768 3910.16 987.267 3905.61 996.657 3899.92C998.659 3898.7 1000.56 3897.32 1002.35 3895.79C1001.05 3901.51 998.473 3906.87 994.808 3911.44C989.933 3917.3 983.209 3921.31 975.745 3922.82C970.436 3924.11 964.897 3924.12 959.582 3922.86C954.266 3921.6 949.324 3919.1 945.158 3915.57C941.273 3910.9 938.374 3905.49 936.638 3899.68C934.902 3893.86 934.364 3887.74 935.057 3881.71C935.345 3870.22 938.214 3858.94 943.451 3848.71C956.784 3819.5 966.345 3788.72 971.903 3757.1C982.431 3705.6 966.64 3682.84 982.146 3629.35C985.276 3618.54 990.398 3603.46 1001.35 3600.05C1005.99 3599.2 1010.78 3599.61 1015.21 3601.23C1019.63 3602.86 1023.55 3605.65 1026.53 3609.3C1030.1 3613.15 1032.22 3618.13 1032.51 3623.38Z" fill="black"/>
<path d="M1317.97 3712.75C1291.51 3642.84 1305.77 3612.96 1276.76 3593.11C1264.09 3584.45 1241.49 3576.55 1224.14 3586.89C1217.89 3590.62 1212.84 3596.05 1209.58 3602.56C1206.32 3609.07 1204.98 3616.37 1205.74 3623.61C1209.04 3642.46 1230.52 3644.05 1253.57 3662.86C1291.25 3693.61 1319.1 3758.98 1306.4 3809.51C1301.98 3827.07 1291.56 3847.23 1301.08 3857.94C1304.97 3862.33 1311.22 3863.41 1323.71 3865.59C1342.17 3868.82 1354.76 3871.01 1361.51 3865.21C1370.78 3857.23 1366.01 3836.75 1355.92 3806.46C1339.63 3757.58 1329.31 3742.71 1317.97 3712.75Z" fill="black"/>
<path d="M1361.56 3865.21C1359.61 3866.82 1357.24 3867.86 1354.73 3868.2C1349.93 3868.99 1345.03 3868.99 1340.22 3868.2H1339.94C1335.1 3867.63 1329.69 3866.63 1323.72 3865.64C1311.2 3863.36 1304.94 3862.37 1301.1 3857.96C1291.57 3847.29 1301.95 3827.09 1306.36 3809.45C1319.17 3758.95 1291.28 3693.65 1253.59 3662.93C1245.29 3656.46 1236.44 3650.75 1227.12 3645.86C1224.71 3644.58 1222.43 3643.44 1220.44 3642.16C1220.44 3642.16 1220.44 3642.02 1220.15 3642.02C1216.39 3639.8 1213.02 3636.96 1210.2 3633.62L1210.05 3633.48C1207.88 3630.59 1206.41 3627.23 1205.79 3623.66C1205.19 3620.37 1205.24 3616.99 1205.93 3613.71C1206.88 3608.19 1209 3602.94 1212.14 3598.31C1215.28 3593.67 1219.37 3589.76 1224.14 3586.82C1241.5 3576.58 1264.11 3584.4 1276.78 3593.08C1289.86 3602.04 1294.13 3613.14 1297.4 3629.07C1285.45 3618.12 1278.06 3608.87 1263.12 3606.17C1254.73 3604.6 1242.49 3604.74 1240.5 3609.72C1237.51 3616.84 1256.29 3628.35 1271.23 3642.44C1306.65 3675.59 1338.66 3739.89 1325.71 3791.24C1320.74 3811.15 1309.64 3826.23 1317.61 3837.47C1321.37 3841.73 1326.3 3844.79 1331.79 3846.26C1337.29 3847.73 1343.09 3847.54 1348.48 3845.72C1354.78 3843.11 1360.11 3838.58 1363.7 3832.78C1367.68 3848.71 1367.82 3859.8 1361.56 3865.21Z" fill="black"/>
<path d="M1231.62 3673.56C1227.03 3643.15 1224.74 3627.94 1215.6 3619.79C1193.79 3600.34 1146.02 3611.25 1141.92 3626.86C1139.89 3634.61 1149.7 3639.51 1162.25 3658.83C1167.64 3667.13 1173.45 3677.95 1183.89 3712.65C1199.89 3766.06 1210.33 3820.98 1215.03 3876.54C1217.29 3903.88 1216.63 3914.29 1213.4 3925.7C1207.23 3947.43 1197.05 3953.84 1196.57 3974.11C1195.88 3980.52 1196.59 3987 1198.65 3993.1C1200.71 3999.21 1204.08 4004.8 1208.51 4009.47C1213.34 4013.27 1218.94 4015.95 1224.93 4017.34C1230.91 4018.73 1237.12 4018.79 1243.13 4017.52C1247.5 4016.82 1261.05 4014.66 1264.59 4005.88C1266.44 4001.29 1263.82 3999.21 1264.3 3991.73C1264.97 3981.36 1270.51 3977.24 1273.07 3969.96C1277.68 3956.8 1269.16 3943.02 1265.57 3936.01C1257.32 3919.94 1259.25 3908.79 1237.77 3727.3C1234.73 3701.56 1234.79 3694.55 1231.62 3673.56Z" fill="black"/>
<path d="M1273.07 3969.91C1270.51 3977.3 1264.96 3981.43 1264.25 3991.67C1263.83 3999.21 1266.39 4001.34 1264.54 4005.9C1261.41 4013.58 1250.74 4016.28 1245.19 4017.28C1244.9 4017.28 1244.77 4017.42 1244.48 4017.42C1244.05 4017.4 1243.61 4017.44 1243.2 4017.56C1239.39 4018.21 1235.53 4018.44 1231.67 4018.27H1231.1C1222.78 4018 1214.8 4014.89 1208.49 4009.45C1204.06 4004.79 1200.7 3999.22 1198.64 3993.13C1196.58 3987.04 1195.86 3980.57 1196.53 3974.17C1197.1 3953.83 1207.2 3947.43 1213.46 3925.67C1216.59 3914.29 1217.31 3903.9 1215.03 3876.59C1210.34 3821.03 1199.9 3766.11 1183.87 3712.71C1173.49 3678 1167.66 3667.19 1162.25 3658.8C1149.73 3639.45 1139.91 3634.62 1141.91 3626.79C1145.46 3613.28 1182.02 3603.32 1205.92 3613.7C1209.45 3615.21 1212.72 3617.28 1215.6 3619.82C1222.16 3627.02 1226.2 3636.16 1227.12 3645.85C1227.41 3647.7 1227.83 3649.69 1228.26 3651.83C1225.93 3648.39 1223.31 3645.16 1220.43 3642.16C1220.43 3642.16 1220.43 3642.01 1220.15 3642.01C1216.38 3639.79 1213.02 3636.96 1210.19 3633.62L1210.05 3633.48C1208.55 3632.46 1206.98 3631.56 1205.35 3630.78C1194.4 3625.37 1177.76 3621.67 1173.49 3627.65C1167.8 3635.75 1189.14 3656.24 1202.79 3677.15C1260.98 3766.63 1227.83 3941.6 1222.57 3964.36C1221.2 3968.84 1220.74 3973.55 1221.2 3978.22C1221.66 3982.88 1223.05 3987.41 1225.27 3991.53C1231.82 4001.35 1246.61 4006.33 1251.87 4001.92C1258.42 3996.37 1247.18 3978.59 1256 3970.05C1259.7 3966.5 1262.69 3968.63 1265.96 3965.36C1271.79 3959.38 1267.52 3947.86 1264.11 3933.07C1264.52 3934.09 1265 3935.09 1265.53 3936.05C1269.09 3943.02 1277.62 3956.82 1273.07 3969.91Z" fill="black"/>
<path d="M1153.23 3667.89C1153.29 3656.29 1148.84 3645.12 1140.83 3636.74C1125.8 3623.6 1099.45 3627.76 1089.81 3629.28C1086.63 3629.38 1083.52 3630.29 1080.78 3631.92C1069.38 3641.22 1082.47 3672.47 1092.31 3701.32C1109.25 3754.5 1119.71 3809.53 1123.45 3865.21C1125.71 3892.56 1125.06 3902.97 1121.82 3914.37C1115.65 3936.1 1105.47 3942.52 1104.99 3962.78C1104.3 3969.19 1105.01 3975.67 1107.07 3981.77C1109.13 3987.88 1112.5 3993.47 1116.93 3998.15C1121.76 4001.94 1127.36 4004.63 1133.35 4006.02C1139.33 4007.41 1145.54 4007.47 1151.55 4006.19C1155.92 4005.5 1169.47 4003.34 1173.01 3994.55C1174.86 3989.96 1172.24 3987.88 1172.72 3980.4C1173.39 3970.04 1178.93 3965.92 1181.49 3958.63C1186.1 3945.48 1177.58 3931.69 1173.98 3924.69C1167.39 3911.83 1165.76 3885.57 1162.63 3833.01C1160.78 3802 1158.14 3727.47 1153.23 3667.89Z" fill="black"/>
<path d="M1181.45 3958.67C1178.89 3965.92 1173.35 3970.05 1172.78 3980.43C1172.21 3987.83 1174.91 3989.96 1173.06 3994.52C1169.51 4003.34 1155.99 4005.47 1151.58 4006.18C1145.56 4007.44 1139.34 4007.38 1133.35 4006C1127.36 4004.63 1121.73 4001.97 1116.87 3998.22C1112.45 3993.52 1109.11 3987.92 1107.07 3981.8C1105.03 3975.69 1104.35 3969.2 1105.06 3962.79C1105.49 3942.45 1115.59 3936.05 1121.85 3914.43C1125.12 3902.91 1125.69 3892.52 1123.41 3865.21C1119.64 3809.53 1109.18 3754.51 1092.26 3701.33C1082.44 3672.45 1069.35 3641.16 1080.73 3631.91C1083.51 3630.32 1086.64 3629.44 1089.84 3629.35C1099.51 3627.78 1125.83 3623.66 1140.77 3636.75C1148.77 3645.15 1153.25 3656.3 1153.29 3667.9V3668.18C1150.4 3664.8 1147.1 3661.79 1143.47 3659.22C1141.91 3658.08 1125.54 3646.56 1119 3651.54C1110.47 3657.94 1125.4 3686.39 1135.79 3716.69C1145.03 3743.29 1181.88 3850.84 1145.75 3929.64C1138.92 3944.44 1126.11 3966.06 1135.08 3980.29C1137.85 3984.63 1141.96 3987.95 1146.78 3989.75C1151.61 3991.54 1156.89 3991.72 1161.82 3990.25C1169.93 3986.4 1169.22 3975.45 1175.91 3952.83C1177.61 3947.28 1179.18 3942.73 1180.74 3938.75C1183.19 3945.13 1183.44 3952.14 1181.45 3958.67Z" fill="black"/>
<path d="M1092.42 3628.29C1090.34 3624.65 1087.64 3621.39 1084.45 3618.67C1082.42 3616.81 1064.9 3601.06 1048.27 3607.15C1044.04 3608.78 1040.31 3611.5 1037.47 3615.04C1026.5 3628.54 1031.1 3649.38 1032.6 3656.48C1043.32 3712.43 1047.52 3769.45 1045.11 3826.37C1043.25 3858.1 1037.95 3870.49 1036.02 3874.71C1026.61 3895.25 1015.57 3900.03 1012.02 3919.99C1010.36 3926.22 1010.07 3932.73 1011.18 3939.08C1012.28 3945.43 1014.76 3951.46 1018.42 3956.76C1022.62 3961.25 1027.75 3964.75 1033.45 3967.04C1039.15 3969.32 1045.29 3970.33 1051.42 3969.99C1055.84 3969.96 1069.56 3969.89 1074.4 3961.75C1076.93 3957.5 1074.66 3955.04 1076.27 3947.72C1078.51 3937.58 1084.61 3934.35 1088.24 3927.54C1094.81 3915.24 1088.49 3900.32 1086 3892.85C1080.3 3875.7 1083.9 3864.97 1090.32 3682.33C1091.18 3657.63 1100.74 3643.41 1092.42 3628.29Z" fill="black"/>
<path d="M1095.39 3646.57C1091.24 3641 1086.3 3636.06 1080.73 3631.91C1072.91 3626.08 1069.07 3626.23 1066.93 3627.08C1037.91 3639.31 1106.34 3871.33 1056.97 3907.32C1053.13 3910.02 1037.91 3919.41 1038.62 3930.93C1039.19 3939.89 1049.01 3946.15 1052.28 3948.29C1059.31 3952.72 1067.32 3955.36 1075.61 3955.97C1075.81 3958 1075.36 3960.04 1074.33 3961.8C1069.5 3969.91 1055.84 3969.91 1051.43 3970.05C1045.3 3970.36 1039.17 3969.33 1033.48 3967.05C1027.78 3964.77 1022.65 3961.28 1018.42 3956.82C1014.74 3951.51 1012.26 3945.47 1011.16 3939.11C1010.05 3932.75 1010.35 3926.22 1012.02 3919.98C1015.58 3900.07 1026.67 3895.23 1036.06 3874.75C1042.07 3859.33 1045.16 3842.93 1045.17 3826.38C1047.52 3769.47 1043.32 3712.48 1032.65 3656.53C1031.09 3649.42 1026.53 3628.5 1037.49 3614.99C1040.31 3611.45 1044.05 3608.75 1048.3 3607.17C1064.94 3601.05 1082.44 3616.84 1084.43 3618.69C1087.6 3621.4 1090.29 3624.62 1092.4 3628.22C1095.4 3633.83 1096.45 3640.29 1095.39 3646.57Z" fill="black"/>
</svg>
