<svg width="1387" height="4556" viewBox="0 0 1387 4556" fill="none" xmlns="http://www.w3.org/2000/svg">
<path d="M1012.17 3487.88C1002.57 3478.31 975.291 3489.1 974.18 3500.13C973.157 3510.27 993.697 3526.49 1006.64 3519.44C1011.52 3515.96 1014.84 3510.7 1015.87 3504.79C1016.9 3498.89 1015.57 3492.81 1012.17 3487.88Z" fill="#FFEECC" stroke="#282724" stroke-miterlimit="10"/>
<path opacity="0.1" d="M1012.16 3487.96C1002.63 3478.28 975.32 3489.09 974.178 3500.19C973.324 3509.15 989.4 3522.95 1002.06 3520.82C1003.67 3520.69 1005.22 3520.21 1006.61 3519.39C1011.5 3515.94 1014.82 3510.7 1015.86 3504.82C1016.9 3498.93 1015.57 3492.87 1012.16 3487.96ZM996.655 3504.03C995.233 3504.03 995.09 3499.91 991.106 3497.91C987.408 3495.92 983.568 3497.63 982.998 3496.21C982.429 3494.93 985.131 3492.93 985.416 3492.79C988.261 3490.52 994.379 3488.67 997.651 3492.08C998.996 3493.84 999.639 3496.04 999.455 3498.25C999.271 3500.45 998.273 3502.51 996.655 3504.03V3504.03Z" fill="#282724"/>
<path d="M1065.93 3496.57C1066.23 3491.43 1065.17 3486.29 1062.85 3481.69C1060.53 3477.09 1057.03 3473.18 1052.72 3470.36C1040.32 3463.57 1023.82 3470.65 1015.91 3479.83C1011.19 3485.3 1013.85 3486.5 1005.56 3510.91C1001.1 3524.04 998.636 3528.69 1001.19 3532.48C1005.19 3538.42 1017.59 3536.46 1021.31 3535.88C1039.23 3533.05 1065.3 3518.84 1065.93 3496.57Z" fill="#FFEECC" stroke="#282724" stroke-miterlimit="10"/>
<path opacity="0.1" d="M1065.79 3492.22C1065.65 3491.37 1065.51 3490.37 1065.37 3489.37C1065.37 3489.09 1065.23 3488.95 1065.23 3488.66C1064.56 3484.89 1063.1 3481.31 1060.94 3478.15C1058.78 3474.98 1055.98 3472.31 1052.71 3470.31C1040.33 3463.63 1023.83 3470.6 1015.87 3479.84C1013.78 3482.07 1012.48 3484.92 1012.17 3487.95C1010.41 3495.7 1008.23 3503.35 1005.63 3510.85C1004.2 3514.98 1003.07 3518.25 1002.07 3520.81C1000.08 3526.79 999.509 3529.77 1001.22 3532.48C1005.2 3538.45 1017.58 3536.46 1021.27 3535.89C1029.26 3534.49 1036.93 3531.64 1043.9 3527.5H1044.04C1045.89 3526.36 1047.59 3525.22 1049.3 3523.94C1049.37 3523.81 1049.47 3523.7 1049.6 3523.63C1049.72 3523.55 1049.87 3523.51 1050.01 3523.52C1054.53 3520.53 1058.31 3516.56 1061.07 3511.91C1063.83 3507.25 1065.5 3502.02 1065.95 3496.63C1065.94 3495.21 1065.94 3493.78 1065.79 3492.22ZM1059.54 3500.9C1057.4 3509.72 1048.72 3515.55 1046.87 3514.27C1045.17 3512.99 1052.85 3504.88 1050.43 3496.49C1047.02 3484.96 1027.53 3483.68 1028.1 3479.7C1028.52 3476.71 1040.33 3473.44 1049.29 3478.42C1053.2 3480.56 1056.31 3483.9 1058.16 3487.95C1060.01 3492.01 1060.49 3496.55 1059.54 3500.9Z" fill="#282724"/>
<path d="M1071.57 3509.69C1076.41 3513.1 1080.69 3508.53 1107.23 3501.68C1113.38 3500.09 1115.32 3499.77 1117.12 3497.66C1123.79 3489.79 1118.38 3468.75 1105.34 3462.74C1098.2 3460.4 1090.45 3460.75 1083.56 3463.74C1076.71 3465.63 1067.81 3468.09 1064.78 3475.31C1063.69 3479.94 1063.88 3484.77 1065.3 3489.31C1067.39 3501.42 1068.43 3507.48 1071.57 3509.69Z" fill="#FFEECC" stroke="#282724" stroke-miterlimit="10"/>
<path opacity="0.1" d="M1112.74 3468.61C1110.75 3466.13 1108.22 3464.13 1105.34 3462.77C1098.21 3460.42 1090.46 3460.77 1083.58 3463.77C1076.75 3465.62 1067.79 3468.04 1064.8 3475.29C1063.73 3479.71 1063.88 3484.33 1065.23 3488.66C1065.23 3488.95 1065.37 3489.09 1065.37 3489.37C1065.51 3490.37 1065.65 3491.37 1065.79 3492.22C1066.18 3498.05 1067.83 3503.73 1070.63 3508.86C1070.91 3509.15 1071.34 3509.43 1071.62 3509.72C1075.75 3512.56 1079.3 3509.86 1096.23 3504.74C1096.38 3504.74 1096.66 3504.6 1096.8 3504.6C1096.94 3504.6 1096.95 3504.6 1097.09 3504.45C1099.08 3503.89 1101.21 3503.32 1103.49 3502.6C1103.77 3502.6 1103.92 3502.46 1104.06 3502.46C1105.05 3502.18 1106.05 3501.89 1107.19 3501.61C1113.31 3500.04 1115.3 3499.76 1117.15 3497.63C1122.42 3491.51 1120.28 3477.28 1112.74 3468.61ZM1092.25 3483.97C1084 3482.55 1079.17 3488.24 1076.18 3485.68C1073.19 3483.12 1074.9 3474.58 1079.59 3469.6C1082.14 3467.02 1085.41 3465.28 1088.97 3464.62C1092.53 3463.96 1096.21 3464.41 1099.51 3465.9C1111.18 3471.45 1110.61 3490.8 1107.05 3492.5C1104.35 3493.79 1101.36 3485.53 1092.26 3483.97H1092.25Z" fill="#282724"/>
<path d="M1145.15 3534.17C1151.97 3534.91 1153.32 3511.64 1169.19 3504.8C1182.05 3499.25 1193.16 3509.35 1197.49 3504.2C1202.66 3498.03 1193.19 3475.8 1176.22 3466.68C1169.66 3463.16 1159.11 3462.93 1138.02 3462.46C1119.92 3462.05 1116.71 3463.48 1114.53 3465.79C1107.83 3472.86 1110.76 3488.22 1117.11 3497.66C1121.88 3504.75 1125.17 3503.45 1131.95 3511.72C1141.83 3523.78 1140.69 3533.68 1145.15 3534.17Z" fill="#FFEECC" stroke="#282724" stroke-miterlimit="10"/>
<path opacity="0.1" d="M1176.19 3466.61C1169.65 3463.2 1159.12 3462.91 1138.06 3462.49C1119.85 3462.06 1116.72 3463.48 1114.59 3465.76C1113.8 3466.58 1113.17 3467.55 1112.74 3468.6C1111.03 3473.43 1110.54 3478.61 1111.31 3483.67C1112.08 3488.73 1114.09 3493.52 1117.15 3497.62C1121.42 3504.03 1124.55 3503.6 1130.1 3509.72C1130.21 3509.73 1130.31 3509.78 1130.38 3509.86C1138.86 3513.26 1146.2 3518.98 1151.58 3526.36C1151.14 3527.33 1150.76 3528.33 1150.44 3529.35C1150.87 3528.49 1151.29 3527.64 1151.72 3526.64C1152.01 3525.93 1152.43 3525.22 1152.72 3524.37C1152.87 3524.21 1152.97 3524.01 1153 3523.8C1153.24 3523.55 1153.43 3523.26 1153.57 3522.95C1156.36 3515.15 1161.93 3508.67 1169.22 3504.74C1182.02 3499.19 1193.12 3509.29 1197.53 3504.17C1202.65 3498.05 1193.26 3475.86 1176.19 3466.61ZM1188.28 3488.95C1187.29 3491.65 1182.45 3490.37 1163.67 3493.07C1154.57 3494.35 1153.14 3494.92 1150.01 3494.07C1141.05 3491.51 1133.23 3480.7 1135.65 3474.58C1138.63 3466.9 1157.84 3465.76 1171.49 3471.88C1181.03 3476.14 1189.99 3484.82 1188.28 3488.95Z" fill="#282724"/>
<path d="M1216.88 3537.57C1220.31 3528.36 1207.22 3510.68 1190.78 3507.2C1170.85 3502.98 1148.8 3519.82 1149.01 3536.98C1149.02 3541.88 1150.52 3546.67 1153.3 3550.71C1156.07 3554.75 1160.01 3557.85 1164.58 3559.62C1170.75 3561.2 1173.52 3557.48 1191.34 3549.74C1210.33 3541.49 1215.14 3542.24 1216.88 3537.57Z" fill="#FFEECC" stroke="#282724" stroke-miterlimit="10"/>
<path opacity="0.1" d="M1190.84 3507.16C1183.78 3506.02 1176.53 3506.91 1169.94 3509.7C1163.35 3512.49 1157.68 3517.08 1153.57 3522.95C1153.43 3523.26 1153.24 3523.55 1153 3523.8C1152.97 3524.01 1152.87 3524.21 1152.72 3524.37C1152.3 3525.08 1152.01 3525.65 1151.58 3526.36C1151.14 3527.33 1150.76 3528.33 1150.44 3529.35C1150.87 3528.49 1151.29 3527.64 1151.72 3526.65C1155.31 3531.27 1157.17 3537.01 1156.99 3542.86C1156.83 3545.92 1155.62 3548.84 1153.57 3551.11C1155.98 3555.07 1159.71 3558.04 1164.1 3559.51C1164.24 3559.51 1164.38 3559.65 1164.52 3559.65C1165.3 3559.64 1166.07 3559.78 1166.8 3560.07C1170.19 3559.78 1173.46 3558.66 1176.32 3556.8H1176.47C1179.88 3555.1 1184.58 3552.82 1191.4 3549.69C1196.52 3547.41 1200.65 3545.85 1203.92 3544.71C1212.74 3541.44 1215.59 3541.01 1216.87 3537.6C1220.29 3528.35 1207.2 3510.71 1190.84 3507.16ZM1211.04 3529.77C1209.62 3533.33 1202.51 3534.18 1198.1 3533.9C1190.13 3533.19 1189.28 3528.64 1180.32 3526.65C1172.21 3524.94 1167.23 3527.5 1165.95 3524.94C1164.67 3522.52 1167.94 3517.82 1171.35 3515.12C1175.53 3512.41 1180.39 3510.93 1185.38 3510.85C1190.36 3510.78 1195.26 3512.11 1199.52 3514.7C1205.64 3518.25 1212.89 3525.36 1211.04 3529.77Z" fill="#282724"/>
<path d="M1065.62 3512.24C1062.52 3516.89 1064.84 3523.43 1066.85 3528.87C1076.21 3554.23 1097.7 3556.91 1098.89 3571.89C1099.9 3584.67 1084.64 3587.31 1083.64 3601.61C1082.14 3623.05 1114.1 3650.39 1131.85 3643.76C1146.34 3638.35 1156.46 3608.39 1150.8 3588.75C1149.48 3585.97 1148.75 3582.96 1148.63 3579.9C1148.52 3576.83 1149.04 3573.77 1150.15 3570.91C1153.51 3565.27 1159.38 3566.38 1162.52 3562.58C1172.81 3550.15 1143.99 3496.62 1117.11 3497.66C1110.67 3497.92 1110.98 3501.04 1096.81 3504.56C1078.95 3508.99 1069.63 3506.21 1065.62 3512.24Z" fill="#FFEECC" stroke="#282724" stroke-miterlimit="10"/>
<path opacity="0.1" d="M1153 3523.8C1143.75 3509.58 1130.24 3497.2 1117.15 3497.63C1112.03 3497.91 1111.18 3499.9 1104.06 3502.46C1103.92 3502.46 1103.78 3502.61 1103.49 3502.61C1101.42 3503.4 1099.27 3504.02 1097.09 3504.45C1096.95 3504.6 1096.95 3504.6 1096.81 3504.6C1096.66 3504.6 1096.38 3504.74 1096.24 3504.74C1083.86 3507.73 1075.75 3507.3 1070.63 3508.86C1069.62 3509.07 1068.65 3509.48 1067.8 3510.07C1066.94 3510.66 1066.21 3511.41 1065.65 3512.28C1064.71 3514.06 1064.17 3516.03 1064.07 3518.05C1063.97 3520.06 1064.32 3522.08 1065.08 3523.94C1065.65 3525.65 1066.22 3527.36 1066.79 3528.92C1069.43 3536.17 1073.66 3542.73 1079.17 3548.13L1079.31 3548.27C1088.41 3557.52 1098.09 3562.07 1098.94 3571.88C1099.94 3584.69 1084.57 3587.25 1083.58 3601.61C1082.15 3623.09 1114.16 3650.41 1131.8 3643.72C1142.75 3639.6 1151.15 3621.81 1152.29 3604.74V3604.6C1152.77 3599.3 1152.28 3593.95 1150.86 3588.81C1149.53 3586.03 1148.78 3583 1148.66 3579.92C1148.54 3576.84 1149.05 3573.77 1150.15 3570.89C1153.57 3565.34 1159.4 3566.34 1162.53 3562.64C1163.23 3561.76 1163.71 3560.74 1163.95 3559.65C1163.97 3559.65 1163.99 3559.65 1164.01 3559.64C1164.02 3559.63 1164.04 3559.62 1164.05 3559.61C1164.07 3559.59 1164.08 3559.58 1164.08 3559.56C1164.09 3559.54 1164.09 3559.53 1164.09 3559.51C1166.37 3551.68 1161.54 3537.03 1153 3523.8ZM1153.57 3551.11C1148.61 3555.74 1144.85 3561.5 1142.62 3567.9C1137.07 3585.54 1145.75 3598.77 1137.78 3604.74C1136.46 3605.9 1134.82 3606.66 1133.08 3606.91C1131.34 3607.16 1129.56 3606.9 1127.96 3606.16C1120.71 3601.04 1138.21 3580.27 1130.67 3563.06C1123.69 3547.13 1102.36 3550.83 1094.39 3531.34C1093.05 3528.68 1092.29 3525.78 1092.17 3522.81C1092.05 3519.84 1092.56 3516.88 1093.68 3514.12C1099.08 3504.88 1116.44 3505.45 1127.25 3508.72C1128.22 3508.99 1129.17 3509.32 1130.1 3509.72C1130.21 3509.73 1130.31 3509.78 1130.38 3509.86C1138.86 3513.26 1146.2 3518.98 1151.58 3526.36C1151.53 3526.46 1151.5 3526.56 1151.46 3526.67L1151.6 3526.91L1151.72 3526.64C1155.31 3531.27 1157.17 3537.01 1156.98 3542.86C1156.83 3545.92 1155.62 3548.84 1153.57 3551.11V3551.11Z" fill="#282724"/>
<path d="M1037.55 3536.49C1035.39 3543.6 1040.18 3548.46 1036.7 3552.86C1033.31 3557.14 1025.45 3556.77 1018.9 3556.47C1009.48 3556.04 1007.42 3553.49 1004.3 3555.01C997.568 3558.29 994.849 3576.3 1002.08 3588.52C1006.07 3595.25 1010.73 3596.28 1062.14 3607.7C1066.37 3608.97 1070.92 3608.66 1074.93 3606.82C1078.42 3604.93 1079.4 3602.3 1083.83 3593.6C1091.88 3577.8 1094.13 3575.74 1093.54 3570.77C1092.7 3566.45 1090.56 3562.49 1087.4 3559.42C1068.27 3535.74 1070.7 3523.56 1060.59 3521.72C1055.67 3521.39 1050.78 3522.65 1046.63 3525.31C1042.48 3527.96 1039.3 3531.88 1037.55 3536.49Z" fill="#FFEECC" stroke="#282724" stroke-miterlimit="10"/>
<path opacity="0.1" d="M1093.54 3570.75C1092.7 3566.42 1090.56 3562.45 1087.42 3559.37C1084.49 3555.84 1081.78 3552.14 1079.31 3548.27L1079.17 3548.13C1071.06 3535.47 1069.35 3527.5 1065.09 3523.94C1063.87 3522.69 1062.27 3521.89 1060.54 3521.67C1056.92 3521.16 1053.24 3521.81 1050.01 3523.52C1049.86 3523.51 1049.72 3523.55 1049.59 3523.63C1049.47 3523.7 1049.37 3523.81 1049.3 3523.94C1047.59 3525.22 1045.89 3526.36 1044.04 3527.5H1043.89C1040.97 3529.84 1038.76 3532.94 1037.49 3536.46C1035.36 3543.58 1040.19 3548.41 1036.64 3552.82C1033.37 3557.09 1025.4 3556.8 1018.86 3556.52C1009.47 3556.09 1007.47 3553.53 1004.34 3554.96C997.516 3558.23 994.813 3576.29 1002.07 3588.53C1006.05 3595.21 1010.75 3596.35 1062.1 3607.73C1066.34 3608.97 1070.87 3608.67 1074.91 3606.88C1078.46 3604.89 1079.46 3602.33 1083.87 3593.65C1091.83 3577.86 1094.1 3575.72 1093.54 3570.75ZM1075.47 3591.09C1062.53 3600.76 1041.33 3591.09 1041.19 3585.97C1041.19 3582.55 1050.43 3583.55 1054.84 3576.15C1062.1 3564.2 1046.88 3546.42 1053.56 3540.16C1054.73 3539.35 1056.07 3538.82 1057.47 3538.6C1058.88 3538.38 1060.31 3538.47 1061.67 3538.88C1069.07 3539.88 1073.34 3546.85 1077.61 3553.67C1080.72 3557.68 1082.86 3562.36 1083.86 3567.33C1084.64 3571.68 1084.27 3576.15 1082.8 3580.32C1081.33 3584.48 1078.8 3588.19 1075.47 3591.09H1075.47Z" fill="#282724"/>
<path d="M1164.58 3559.62C1176.95 3560.3 1182.7 3579.58 1189.26 3601.74C1190.03 3603.79 1190.04 3606.04 1189.29 3608.09C1186.29 3614.88 1172.54 3614.52 1169.87 3614.45C1164.82 3615.02 1159.74 3613.77 1155.54 3610.91C1152.85 3608.58 1152.4 3606.23 1149.41 3591.33C1146.38 3576.29 1146.08 3574.92 1146.97 3572.37C1148.32 3568.74 1150.71 3565.59 1153.84 3563.32C1156.98 3561.06 1160.71 3559.77 1164.58 3559.62Z" fill="#FFEECC" stroke="#282724" stroke-miterlimit="10"/>
<path opacity="0.1" d="M1189.28 3601.76C1184.58 3585.82 1180.32 3571.46 1173.63 3564.34V3564.2C1171.81 3562.19 1169.43 3560.75 1166.8 3560.08C1166.08 3559.78 1165.3 3559.64 1164.52 3559.65H1163.96C1160.21 3559.89 1156.62 3561.22 1153.61 3563.47C1150.61 3565.72 1148.32 3568.79 1147.03 3572.31C1146.03 3574.87 1146.32 3576.29 1149.44 3591.37C1150.73 3597.77 1151.44 3601.76 1152.29 3604.6V3604.74C1152.63 3607.1 1153.79 3609.27 1155.56 3610.86C1159.77 3613.74 1164.87 3615 1169.93 3614.42C1172.49 3614.56 1186.29 3614.84 1189.28 3608.16C1189.67 3607.31 1189.86 3606.39 1189.85 3605.46C1189.91 3604.2 1189.72 3602.94 1189.28 3601.76ZM1177.19 3595.35C1176.05 3595.78 1175.05 3589.38 1167.94 3582.7C1160.26 3575.58 1153.29 3575.44 1153.29 3572.17C1153.14 3568.61 1160.83 3563.77 1166.66 3565.34C1177.75 3568.33 1179.46 3594.64 1177.19 3595.36V3595.35Z" fill="#282724"/>
<path d="M1194.58 3609.62C1204.93 3611.94 1209.89 3589.32 1232.59 3583.69C1243.8 3580.91 1250.65 3584.38 1253.35 3580.03C1257.18 3573.85 1248.32 3558.74 1236.37 3551.22C1214.05 3537.17 1177.79 3547.03 1173.74 3561.71C1173.4 3562.91 1173.06 3564.96 1178.1 3578.21C1185.78 3598.41 1189.63 3608.51 1194.58 3609.62Z" fill="#FFEECC" stroke="#282724" stroke-miterlimit="10"/>
<path opacity="0.1" d="M1236.37 3551.26C1226.57 3545.56 1215.17 3543.27 1203.93 3544.71C1193.6 3545.23 1183.83 3549.53 1176.47 3556.8H1176.33C1175.13 3558.2 1174.25 3559.86 1173.77 3561.64C1173.55 3562.47 1173.5 3563.35 1173.63 3564.2V3564.34C1174.65 3569.07 1176.12 3573.7 1178.04 3578.14C1181.12 3587.59 1185.08 3596.73 1189.85 3605.46C1190.82 3607.39 1192.5 3608.87 1194.54 3609.58C1204.93 3612 1209.91 3589.38 1232.53 3583.69C1243.76 3580.85 1250.59 3584.4 1253.3 3579.99C1257.14 3573.87 1248.32 3558.79 1236.37 3551.26ZM1248.6 3571.74C1247.61 3574.16 1244.33 3573.59 1232.53 3576.15C1218.01 3579.28 1211.76 3582.69 1209.91 3580.28C1208.2 3578 1213.32 3574.3 1212.32 3569.32C1210.48 3560.22 1191.41 3559.51 1191.41 3555.67C1191.55 3551.82 1211.19 3544.85 1228.68 3551.82C1240.21 3556.52 1250.45 3566.9 1248.6 3571.74V3571.74Z" fill="#282724"/>
</svg>
