<svg width="670" height="925" viewBox="0 0 670 925" fill="none" xmlns="http://www.w3.org/2000/svg">
<path d="M281.952 138.025C284.11 157.248 271.393 174.771 261.258 191.624C241.071 225.15 229.301 263.057 227.127 301.454C226.473 312.88 226.702 324.518 230.2 335.486C233.698 346.455 240.809 356.769 251.385 362.523C267.731 371.415 289.602 367.541 304.396 356.508C319.172 345.474 327.754 328.621 332.495 311.523C337.382 293.918 338.673 275.447 336.32 257.401C334.195 241.202 329.16 225.346 328.245 209.049C327.231 191.101 331.105 172.172 323.275 155.744C318.077 144.825 307.763 136.129 295.601 132.402C291.842 131.258 287.445 130.636 284.175 132.712C280.906 134.788 280.612 140.477 281.952 138.025Z" fill="#5AB9D6" stroke="#2F6170" stroke-width="1.63462" stroke-miterlimit="10"/>
<path d="M321.771 137.175C327.313 145.887 337.17 156.708 335.502 166.729C333.851 176.732 334.734 190.643 334.342 200.778C333.851 213.184 339.196 222.077 341.093 234.369C345.653 264.005 344.525 293.232 339.916 322.867C338.657 330.958 337.513 339.213 338.886 347.288C340.259 355.363 344.493 363.389 351.914 367.737C360.528 372.788 381.141 381.664 391.537 380.814C403.404 379.85 426.534 366.217 431.912 355.608C436.571 346.455 437.241 324.714 435.247 314.645C432.746 302.026 423.167 281.446 418.181 266.097C412.885 249.783 392.207 234.941 387.009 218.595C380.438 197.933 370.777 176.553 361.82 156.692C356.899 145.773 334.946 138.875 321.771 137.175Z" fill="#5AB9D6" stroke="#2F6170" stroke-width="1.63462" stroke-miterlimit="10"/>
<path d="M349.053 138.335C349.723 140.182 350.394 142.029 351.064 143.893C356.442 142.291 361.901 146.263 365.285 150.742C368.669 155.204 371.202 160.566 375.877 163.672C378.64 165.503 381.925 166.402 384.655 168.265C389.003 171.273 391.341 176.356 393.482 181.195C397.438 190.169 401.394 199.159 405.349 208.133C408.39 215.031 412.133 222.616 419.227 225.182C422.905 226.506 426.992 226.245 430.719 227.405C438.875 229.939 443.583 238.782 444.597 247.266C445.61 255.75 443.812 264.299 443.42 272.831C443.027 281.364 444.351 290.649 450.318 296.778C455.973 302.565 465.307 305.033 468.38 312.52C472.369 322.213 463.002 332.92 464.931 343.218C466.288 350.41 473.284 355.674 480.558 356.491C487.832 357.292 495.122 354.317 500.925 349.871C506.728 345.425 511.305 339.573 516.83 334.048C518.497 331.923 520.099 328.604 518.04 326.872C515.849 325.025 512.727 327.542 511.027 329.847C505.976 336.696 500.664 343.97 492.834 347.321C485.004 350.672 473.954 348.056 471.421 339.932C468.723 331.318 476.586 322.556 475.638 313.582C474.984 307.469 470.358 302.549 465.536 298.724C460.714 294.899 455.32 291.531 451.903 286.415C447.588 279.926 447.179 271.605 447.784 263.841C448.389 256.077 449.876 248.263 448.863 240.531C447.849 232.8 443.599 224.872 436.293 222.175C432.5 220.785 428.299 220.916 424.474 219.641C415.893 216.78 411.152 207.643 408.684 198.93C406.216 190.234 405.022 180.868 399.857 173.447C396.473 168.608 391.651 164.996 386.895 161.481C380.242 156.545 373.589 151.608 366.936 146.672C361.738 142.814 356.425 138.907 349.053 138.335Z" fill="#5AB9D6" stroke="#2F6170" stroke-width="1.63462" stroke-miterlimit="10"/>
<path d="M317.227 140.411C323.275 139.954 327.542 146.77 327.64 152.834C327.738 158.899 325.237 164.702 324.73 170.75C323.112 189.842 341.158 206.237 340.259 225.379C339.605 239.306 328.866 252.726 333.148 265.999C335.143 272.161 340.112 276.934 342.645 282.901C346.176 291.188 344.607 300.865 340.978 309.104C337.349 317.342 331.824 324.583 327.117 332.266C322.409 339.949 318.404 348.465 318.371 357.472C318.339 366.479 323.21 375.992 331.694 379.033C330.958 380.7 334.554 381.599 334.685 379.784C326.185 372.2 322.115 359.989 324.321 348.825C326.544 337.611 334.325 328.457 340.749 318.993C347.173 309.529 352.584 297.907 349.315 286.938C346.258 276.738 336.14 269.039 335.731 258.414C335.388 249.783 341.616 242.395 343.953 234.075C347.222 222.485 342.694 210.242 337.921 199.192C333.148 188.142 327.918 176.422 329.748 164.522C330.598 159.013 332.952 153.701 332.723 148.143C332.494 142.585 328.228 136.456 317.227 140.411Z" fill="#5AB9D6" stroke="#2F6170" stroke-width="1.63462" stroke-miterlimit="10"/>
<path d="M275.332 138.989C275.332 138.989 273.011 135.769 271 133.562C259.705 153.979 235.987 163.247 215.195 173.823C134.935 214.656 77.4291 299.966 76.0234 390.001C75.6147 416.253 80.4695 444.205 98.1724 463.591C103.027 445.365 95.8839 426.436 92.3532 407.916C82.6763 357.178 100.968 304.053 131.895 262.681C162.821 221.308 205.354 190.153 249.047 162.626C261.618 154.731 275.61 145.168 275.332 138.989Z" fill="#5AB9D6" stroke="#2F6170" stroke-width="1.63462" stroke-miterlimit="10"/>
<path d="M361.967 130.505C368.358 139.103 379.343 142.994 389.951 144.449C400.56 145.903 411.397 145.364 421.924 147.342C432.451 149.32 443.158 154.453 448.176 163.901C453.407 173.757 451.478 186.278 456.889 196.037C462.12 205.485 472.843 210.128 481.686 216.306C506.483 233.65 517.419 264.38 526.932 293.101C537.753 325.777 548.721 360.022 543.245 393.989C539.11 353.369 529.253 313.337 514.068 275.43C505.796 254.785 495.269 233.911 477.24 220.867C467.481 213.805 455.352 208.771 449.664 198.162C444.564 188.632 445.888 176.585 440.412 167.252C433.432 155.352 417.952 151.821 404.172 151.069C390.393 150.317 375.616 150.938 364.01 143.484C360.479 141.212 357.161 137.812 356.981 133.611C356.801 129.459 361.444 125.258 361.967 130.505Z" fill="#5AB9D6" stroke="#2F6170" stroke-width="1.63462" stroke-miterlimit="10"/>
<path d="M275.594 128.822C278.928 131.208 280.187 135.736 279.697 139.806C279.19 143.877 277.212 147.604 275.087 151.102C262.974 171.126 245.222 187.684 224.397 198.358C219.984 200.614 215.374 202.674 211.631 205.91C207.872 209.147 205.011 213.887 205.436 218.824C205.943 224.708 210.781 229.236 212.841 234.778C216.192 243.784 211.68 253.886 205.567 261.307C199.453 268.712 191.64 274.76 186.605 282.95C181.571 291.139 180.148 302.81 186.867 309.692C189.221 312.095 192.473 313.844 193.765 316.95C195.726 321.657 192.294 326.692 189.4 330.893C181.718 342.025 176.634 354.938 174.672 368.309C173.986 372.984 174.509 379.065 178.988 380.553C182.797 381.811 186.752 378.444 188.125 374.684C189.498 370.908 189.221 366.756 190.022 362.817C191.46 355.657 196.298 349.74 200.385 343.676C204.488 337.628 208.117 330.452 206.678 323.292C205.109 315.462 197.949 309.839 195.628 302.189C192.098 290.583 200.548 279.043 208.509 269.889C216.486 260.735 225.1 249.44 221.978 237.72C219.984 230.282 213.347 223.564 215.178 216.078C216.649 210.062 222.894 206.777 228.304 203.785C252.137 190.627 271.262 169.115 281.511 143.893C282.508 141.457 283.44 138.842 283.047 136.243C282.688 133.628 280.514 131.094 275.594 128.822Z" fill="#5AB9D6" stroke="#2F6170" stroke-width="1.63462" stroke-miterlimit="10"/>
<path d="M276.967 91.7979C275.316 92.4027 274.106 93.8084 273.419 95.345C272.733 96.8815 272.504 98.5488 272.292 100.2C271.769 104.041 271.458 108.487 274.4 111.233C276.084 112.803 278.47 113.424 280.759 114.012C285.712 115.255 290.681 116.513 295.634 117.756C300.44 118.965 305.311 120.191 310.28 120.224C315.249 120.257 320.431 118.982 324.044 115.778C306.847 110.514 290.73 102.096 276.967 91.7979Z" fill="#E78F6D" stroke="#D1502F" stroke-width="1.63462" stroke-miterlimit="10"/>
<path d="M278.896 72.5747C276.182 75.7949 276.084 80.2411 276.084 84.3276C276.084 86.9757 276.117 89.7218 277.359 92.092C278.879 95.0343 281.985 96.9305 284.944 98.6795C294.441 104.27 304.069 109.779 314.514 113.587C324.975 117.38 336.401 119.406 347.484 117.739C350.426 117.298 353.516 116.497 355.51 114.421C358.518 111.315 358.044 106.558 357.406 102.406C357.063 100.216 356.556 97.7641 354.562 96.5545C352.339 95.1978 349.429 96.0641 346.879 96.718C334.734 99.8891 321.526 97.5516 310.117 92.5497C298.723 87.5641 288.818 80.0449 278.896 72.5747Z" fill="#E78F6D" stroke="#D1502F" stroke-width="1.63462" stroke-miterlimit="10"/>
<path d="M283.162 51.3574C279.827 54.3651 279.288 59.0728 278.928 63.3882C278.667 66.5757 278.421 69.894 279.795 72.8363C281.789 77.1353 286.644 79.4891 290.975 81.843C299.9 86.6815 308.122 92.9093 317.865 96.0968C329.748 99.9872 342.923 98.9901 355.036 95.7863C355.739 91.4055 356.033 86.9757 355.919 82.5459C355.886 81.1891 355.722 79.669 354.627 78.7699C353.597 77.9363 352.094 77.9363 350.72 77.9853C342.449 78.2632 334.096 78.6718 325.94 77.2988C308.907 74.4218 294.146 63.9603 283.162 51.3574Z" fill="#E78F6D" stroke="#D1502F" stroke-width="1.63462" stroke-miterlimit="10"/>
<path d="M286.219 26.74C284.993 26.8217 283.963 27.6554 283.374 28.6688C282.786 29.6823 282.606 30.8265 282.459 31.9544C282.018 35.0602 281.74 38.1823 281.593 41.3044C281.445 44.59 281.478 47.9736 282.72 51.0631C284.175 54.7246 287.183 57.6342 290.338 60.2006C295.895 64.6958 302.172 68.4063 308.776 71.4467C315.87 74.7159 323.406 77.2333 331.236 78.3285C339.049 79.4236 347.173 79.064 354.676 76.7265C354.496 72.9015 354.3 69.0929 354.12 65.2679C354.055 63.8458 353.843 62.1948 352.535 61.4756C351.293 60.7727 349.707 61.2958 348.301 61.639C345.195 62.3583 341.91 62.0477 338.755 61.5083C316.998 57.8304 298.184 43.9035 286.219 26.74Z" fill="#E78F6D" stroke="#D1502F" stroke-width="1.63462" stroke-miterlimit="10"/>
<path d="M285.189 13.2871C282.949 15.5102 283.015 19.0083 283.881 21.9506C285.32 26.8054 288.523 31.039 291.94 34.9458C298.74 42.6775 306.749 49.5756 316.05 54.5448C325.351 59.514 335.993 62.489 346.716 62.2765C349.086 62.2275 351.75 61.8842 353.205 60.1188C354.349 58.7294 354.415 56.8333 354.317 55.0842C354.186 52.5833 353.826 50.0823 353.271 47.6304C352.944 46.1919 352.486 44.6881 351.358 43.6583C349.151 41.615 345.539 42.2525 342.433 42.3506C337.121 42.514 331.972 40.6996 327.117 38.689C311.637 32.2813 297.252 23.5688 285.189 13.2871Z" fill="#E78F6D" stroke="#D1502F" stroke-width="1.63462" stroke-miterlimit="10"/>
<path d="M304.559 26.2335C314.988 35.371 328.653 41.2066 342.874 42.6123C344.82 42.8085 346.961 42.8575 348.481 41.6969C350.116 40.4546 350.394 38.2479 350.475 36.27C350.557 34.145 350.557 32.02 350.475 29.895C350.426 28.7508 350.295 27.4921 349.429 26.6912C348.579 25.9066 347.288 25.7921 346.095 25.7104C340.455 25.3508 334.832 24.9912 329.193 24.6316C325.596 24.4027 321.968 24.1739 318.371 24.4517C313.745 24.8114 309.185 25.9883 304.559 26.2335Z" fill="#E78F6D" stroke="#D1502F" stroke-width="1.63462" stroke-miterlimit="10"/>
<path d="M266.26 132.63C286.693 146.917 314.628 142.683 340.161 142.683C346.536 142.683 356.033 142.324 361.525 139.283C367.018 136.243 369.388 128.854 367.018 123.329C364.582 117.625 356.769 115.058 350.279 114.029C331.285 111.021 312.34 111.004 293.084 111.429C287.657 111.544 280.334 111.675 274.989 112.443C271.115 112.999 267.502 115.81 265.034 118.638C262.566 121.466 263.007 130.358 266.26 132.63Z" fill="#6B6666" stroke="#211F1F" stroke-width="1.63462" stroke-miterlimit="10"/>
<path d="M285.221 15.9026C289.095 25.2036 300.783 28.5709 311.424 29.6007C322.066 30.6305 336.025 30.3853 346.389 27.9498C348.841 27.3776 352.371 24.893 352.371 22.0161C352.371 18.044 348.841 14.3334 345.555 11.7998C335.568 4.13341 324.387 5.03245 311.457 5.03245C291.956 5.03245 282.132 8.46514 285.221 15.9026Z" fill="#6B6666" stroke="#302E2E" stroke-width="1.63462" stroke-miterlimit="10"/>
<path d="M287.673 16.017C291.302 24.7295 302.238 27.868 312.193 28.8487C322.147 29.8295 335.224 29.5843 344.918 27.2958C347.206 26.7564 350.508 24.4353 350.508 21.7382C350.508 18.0112 347.206 14.5458 344.133 12.1757C334.783 4.99969 324.321 5.83335 312.209 5.83335C293.983 5.83335 284.78 9.05354 287.673 16.017Z" fill="#7D7777"/>
</svg>
