<svg width="670" height="925" viewBox="0 0 670 925" fill="none" xmlns="http://www.w3.org/2000/svg">
<path d="M444.508 776.757C488.707 734.599 506.297 681.3 483.797 657.711C461.297 634.122 407.227 649.176 363.029 691.335C318.83 733.493 301.24 786.792 323.74 810.381C346.24 833.969 400.31 818.916 444.508 776.757Z" fill="#B7CA92" stroke="#3B481C" stroke-width="1.63462" stroke-miterlimit="10"/>
<path d="M439.588 771.82C480.085 733.552 496.749 685.424 476.809 664.323C456.869 643.221 407.876 657.138 367.379 695.406C326.882 733.673 310.218 781.802 330.158 802.903C350.098 824.004 399.092 810.088 439.588 771.82Z" fill="#B7CA92" stroke="#3B481C" stroke-width="1.63462" stroke-miterlimit="10"/>
<path d="M433.229 765.726C469.49 732.167 485.569 690.574 469.142 672.824C452.716 655.075 410.004 667.89 373.743 701.449C337.482 735.007 321.403 776.601 337.829 794.35C354.256 812.1 396.968 799.284 433.229 765.726Z" fill="#B7CA92" stroke="#3B481C" stroke-width="1.63462" stroke-miterlimit="10"/>
<path d="M427.71 759.142C457.299 731.983 470.809 698.552 457.886 684.472C444.962 670.393 410.499 680.996 380.91 708.155C351.321 735.314 337.811 768.745 350.734 782.824C363.657 796.904 398.12 786.301 427.71 759.142Z" fill="#B7CA92" stroke="#3B481C" stroke-width="1.63462" stroke-miterlimit="10"/>
<path opacity="0.2902" d="M421.57 754.541C447.997 730.935 461.336 702.749 451.364 691.586C441.393 680.423 411.886 690.51 385.459 714.116C359.033 737.722 345.693 765.908 355.665 777.071C365.637 788.234 395.143 778.147 421.57 754.541Z" fill="#B7CA92"/>
</svg>
