<svg width="670" height="925" viewBox="0 0 670 925" fill="none" xmlns="http://www.w3.org/2000/svg">
<path d="M500.189 438.256C496.814 433.712 490.637 431.495 485.143 432.789C481.679 433.618 479.744 437.859 480.799 441.272C481.855 444.685 485.205 447.023 488.731 447.595C492.257 448.168 495.846 447.214 499.105 445.747C501.927 444.454 501.997 440.696 500.189 438.256Z" fill="#E2C2C6" stroke="#7F2135" stroke-width="0.23248" stroke-miterlimit="10"/>
<path d="M495.18 479.413C494.445 476.846 494.022 473.98 491.583 472.918C489.144 471.857 486.046 472.644 484.388 474.713C482.728 476.81 482.666 480.011 484.258 482.146C485.631 484.006 487.442 485.692 489.675 486.368C491.908 487.043 494.583 486.541 496.044 484.729C497.502 482.944 495.559 480.712 495.18 479.413Z" fill="#E2C2C6" stroke="#7F2135" stroke-width="0.23248" stroke-miterlimit="10"/>
<path d="M488.693 515.49C490.13 512.921 490.033 509.646 489.446 506.761C488.859 503.876 486.702 501.09 483.786 500.783C480.87 500.475 477.906 503.733 479.16 506.388C482.641 513.65 484.526 521.706 484.601 529.776C484.629 531.955 487.574 533.214 489.503 532.181C491.431 531.147 492.19 528.668 491.939 526.491C491.688 524.314 490.636 522.324 489.694 520.347C488.752 518.37 488.167 516.434 488.693 515.49Z" fill="#E2C2C6" stroke="#7F2135" stroke-width="0.23248" stroke-miterlimit="10"/>
<path d="M494.43 548.173C494.065 546.987 492.623 546.459 491.523 545.858C490.419 545.285 489.116 544.995 487.929 545.389C487.03 545.704 486.257 546.368 485.72 547.171C484.752 548.567 484.375 550.392 484.741 552.052C485.076 553.737 486.127 555.252 487.556 556.142C488.568 556.788 489.892 557.136 491.009 556.622C491.979 556.176 492.594 555.187 493.12 554.243C493.873 553.018 494.678 548.927 494.43 548.173Z" fill="#E2C2C6" stroke="#7F2135" stroke-width="0.23248" stroke-miterlimit="10"/>
<path d="M465.599 429.148C465.688 428.377 466.085 427.586 465.896 426.811C465.313 424.373 461.334 424.111 459.224 425.514C457.114 426.917 456.499 430.082 457.875 432.165C459.247 434.276 462.4 434.945 464.507 433.569C465.137 433.167 465.711 432.536 465.824 431.796C466.02 430.814 465.536 429.698 465.599 429.148Z" fill="#E2C2C6" stroke="#7F2135" stroke-width="0.23248" stroke-miterlimit="10"/>
<path d="M454.335 438.257C456.202 438.723 458.103 439.137 459.543 440.418C460.983 441.7 462.048 443.329 463.059 444.951C469.563 455.462 474.165 467.01 478.716 478.524C479.233 479.839 479.759 481.322 479.191 482.624C478.55 484.084 476.621 484.643 475.096 484.105C473.598 483.571 472.531 482.193 471.92 480.728C471.34 479.238 471.132 477.652 470.87 476.06C468.923 464.901 462.48 454.592 453.303 447.958C451.527 446.694 449.608 445.469 448.543 443.589C447.451 441.706 447.637 438.882 449.513 437.815C451.271 436.817 453.389 438.009 454.335 438.257Z" fill="#E2C2C6" stroke="#7F2135" stroke-width="0.23248" stroke-miterlimit="10"/>
<path d="M418.851 436.438C422.896 433.946 427.021 431.24 431.4 433.111C435.779 434.981 438.894 438.882 441.71 442.72C450.736 455.028 458.637 468.154 465.244 481.885C467.692 486.993 470.01 492.252 470.816 497.84C471.261 500.988 471.227 504.192 471.556 507.382C472.095 512.382 473.514 517.231 474.42 522.189C476.527 533.896 475.475 546.189 471.405 557.381C469.934 561.453 467.813 565.616 464.038 567.693C460.24 569.739 454.459 568.433 453.294 564.282C452.541 561.629 453.869 558.797 455.695 556.719C457.52 554.642 459.818 553.065 461.671 550.99C466.565 545.472 467.373 537.475 467.302 530.102C466.965 504.455 458.426 478.953 443.203 458.318C439.226 452.951 434.357 447.594 427.848 446.092C425.757 445.629 423.592 445.575 421.541 445.004C419.491 444.434 417.434 443.193 416.691 441.183C415.92 439.17 417.384 437.33 418.851 436.438Z" fill="#E2C2C6" stroke="#7F2135" stroke-width="0.23248" stroke-miterlimit="10"/>
<path d="M405.174 455.146C407.484 452.008 411.043 449.627 414.919 449.571C417.845 449.545 420.599 450.782 423.242 452.006C428.001 454.199 432.861 456.487 436.496 460.225C440.232 464.058 442.35 469.127 444.398 474.077C446.646 479.468 448.894 484.859 451.111 490.275C453.619 496.31 456.124 502.372 457.307 508.784C458.587 515.822 458.203 523.031 457.83 530.157C457.397 538.28 457.622 546.982 453.555 554.018C450.012 560.138 444.772 565.031 441.415 564.925C433.707 564.652 444.936 550.042 447.525 542.78C451.537 531.609 452.081 519.37 450.085 507.675C448.088 495.981 443.609 484.81 437.869 474.442C436.137 471.342 434.268 468.226 431.648 465.832C429.027 463.439 425.512 461.807 421.961 462.18C415.99 462.777 412.082 468.437 407.491 472.289C405.796 473.712 403.393 474.998 401.427 473.935C399.879 473.115 399.197 471.056 399.616 469.347C400.364 466.476 402.864 458.283 405.174 455.146Z" fill="#E2C2C6" stroke="#7F2135" stroke-width="0.23248" stroke-miterlimit="10"/>
<path d="M428.927 486.107C429.486 484.637 428.674 482.981 427.582 481.824C426.49 480.666 425.143 479.786 424.263 478.485C423.382 477.185 423.136 475.204 424.341 474.17C425.209 473.405 426.571 473.423 427.626 473.934C428.68 474.446 429.468 475.346 430.228 476.242C435.125 482.077 439.155 488.678 442.105 495.712C442.692 497.146 443.173 499.014 442.024 500.054C440.874 501.093 438.956 500.343 438.041 499.094C437.127 497.845 436.892 496.256 436.278 494.819C435.576 493.176 433.78 491.602 432.188 492.368C431.157 492.863 430.727 494.18 430.903 495.316C431.079 496.452 431.743 497.449 432.384 498.416C434.518 501.646 436.656 504.849 438.79 508.079C439.738 509.527 440.737 511.008 441.041 512.717C441.346 514.426 440.813 516.401 439.318 517.289C437.139 518.573 434.405 516.92 432.791 514.977C427.283 508.402 426.868 498.2 420.195 492.802C416.118 489.516 410.369 488.66 406.734 484.923C405.414 483.571 404.411 481.643 405.004 479.87C405.548 478.287 407.247 477.31 408.931 477.197C410.615 477.084 412.243 477.689 413.777 478.396C417.137 479.926 420.244 481.957 422.968 484.418C423.951 485.312 424.928 486.261 426.148 486.792C427.367 487.322 428.935 487.252 428.927 486.107Z" fill="#E2C2C6" stroke="#7F2135" stroke-width="0.23248" stroke-miterlimit="10"/>
<path d="M427.738 522.848C427.713 521.367 427.918 519.828 427.352 518.452C426.787 517.076 425.673 515.86 424.242 515.473C422.68 515.014 420.946 515.568 419.687 516.595C418.427 517.622 417.566 519.057 416.946 520.576C415.953 522.916 415.42 525.617 416.198 528.049C417.004 530.485 419.418 532.492 421.933 532.168C423.489 531.956 424.858 530.942 425.835 529.715C427.431 527.695 427.787 525.086 427.738 522.848Z" fill="#E2C2C6" stroke="#7F2135" stroke-width="0.23248" stroke-miterlimit="10"/>
<path d="M439.367 536.488C440.461 534.717 442.534 533.644 442.878 531.619C443.225 529.567 442.37 527.32 440.633 526.2C438.896 525.08 436.333 525.343 435.034 526.951C433.898 528.355 433.869 530.304 433.746 532.103C433.469 536.451 432.293 540.863 429.64 544.324C428.82 545.401 427.814 546.401 427.388 547.691C426.433 550.427 428.811 553.713 431.71 553.684C433.83 553.649 435.706 552.107 436.727 550.244C437.749 548.38 438.082 546.215 438.404 544.132C438.776 541.385 438.242 538.283 439.367 536.488Z" fill="#E2C2C6" stroke="#7F2135" stroke-width="0.23248" stroke-miterlimit="10"/>
<path d="M425.485 565.939C428.738 566.704 431.45 569.275 432.797 572.331C434.14 575.415 434.294 578.919 433.637 582.219C433.01 585.494 431.368 588.876 428.296 590.169C425.955 591.155 423.168 590.695 421.008 589.387C418.848 588.079 417.225 585.967 416.037 583.711C414.848 581.454 414.037 578.822 414.6 576.348C415.156 573.93 416.939 571.987 418.651 570.175C420.868 567.836 423.532 565.492 425.485 565.939Z" fill="#E2C2C6" stroke="#7F2135" stroke-width="0.23248" stroke-miterlimit="10"/>
</svg>
