<svg width="670" height="925" viewBox="0 0 670 925" fill="none" xmlns="http://www.w3.org/2000/svg">
<path d="M218.005 613.091C236.077 623.307 282.396 628.677 320.331 591.295C335.041 576.802 343.677 543.554 316.245 513.797C299.046 495.13 260.259 472.147 226.515 487.405C213.517 493.287 182.005 506.834 182.21 551.92C182.322 574.473 197.933 601.75 218.005 613.091Z" fill="#C58BD2" fill-opacity="0.4"/>
<path d="M220.237 608.117C237.023 617.549 280.003 622.491 315.207 588.014C328.864 574.644 336.875 543.981 311.425 516.524C295.459 499.319 259.458 478.119 228.124 492.183C216.055 497.602 186.81 510.114 186.997 551.689C187.108 572.476 201.594 597.65 220.237 608.117Z" fill="#905999"/>
<path d="M221.273 606.512C237.577 615.677 279.36 620.476 313.582 586.98C326.846 573.985 334.643 544.195 309.908 517.505C294.406 500.781 259.405 480.169 228.964 493.859C217.234 499.135 188.81 511.273 188.997 551.689C189.09 571.888 203.165 596.331 221.273 606.512Z" fill="#CC94D9" stroke="#925C9B" stroke-width="1.45748" stroke-miterlimit="10" stroke-linecap="round" stroke-linejoin="round"/>
<path opacity="0.5" d="M228.964 493.859C217.234 499.135 188.81 511.273 188.997 551.689C189.09 571.888 203.165 596.349 221.291 606.512C237.595 615.677 279.378 620.476 313.6 586.98C326.864 573.985 334.661 544.195 309.926 517.505C294.388 500.781 259.405 480.169 228.964 493.859ZM296.999 522.299C317.109 545.192 310.776 570.774 299.993 581.934C272.18 610.688 238.2 606.567 224.949 598.704C210.217 589.967 198.767 568.983 198.692 551.636C198.542 516.943 221.646 506.516 231.18 502.006C255.943 490.242 284.39 507.929 296.999 522.299Z" fill="#BE83CB"/>
<path opacity="0.5" d="M246.119 577.847C275.903 578.936 290.435 556.902 281.003 535.1C271.589 513.279 257.124 502.743 231.574 517.36C206.024 531.977 218.335 576.83 246.119 577.847Z" fill="#BE83CB"/>
<path d="M243.207 573.639C269.58 574.585 282.452 555.6 274.11 536.81C265.768 518.02 252.963 508.946 230.341 521.531C207.702 534.115 218.601 572.765 243.207 573.639Z" fill="#6C4096" stroke="#5E2D68" stroke-width="1.45748" stroke-miterlimit="10" stroke-linecap="round" stroke-linejoin="round"/>
<path opacity="0.5" d="M240.063 570.502C259.812 571.216 269.452 556.99 263.2 542.907C256.948 528.841 247.376 522.031 230.414 531.46C213.47 540.908 221.617 569.841 240.063 570.502Z" fill="#9862C2"/>
</svg>
