<svg width="293" height="185" viewBox="0 0 293 185" fill="none" xmlns="http://www.w3.org/2000/svg">
<path d="M252.504 117.991C255.37 121.285 258.204 122.978 260.065 123.876C268.598 127.996 281.631 127.469 289.091 122.129C289.957 121.508 291.256 120.459 292.062 120.899C293.748 121.82 293.317 129.305 289.471 133.337C282.835 140.294 267.096 135.853 266.649 138.331C266.508 139.104 268.036 139.559 268.048 140.692C268.067 142.783 262.891 144.646 256.705 146.157C255.304 136.767 253.903 127.379 252.504 117.991Z" fill="#9B8973"/>
<path d="M252.504 117.991C255.37 121.285 258.204 122.978 260.065 123.876C268.598 127.996 281.631 127.469 289.091 122.129C289.957 121.508 291.256 120.459 292.062 120.899C293.748 121.82 293.317 129.305 289.471 133.337C282.835 140.294 267.096 135.853 266.649 138.331C266.508 139.104 268.036 139.559 268.048 140.692C268.067 142.783 262.891 144.646 256.705 146.157C255.304 136.767 253.903 127.379 252.504 117.991Z" fill="url(#paint0_linear_4172_276541)"/>
<path d="M291.372 126.958C290.74 128.438 289.113 132.253 285.7 134.328C281.391 136.949 274.663 136.543 270.035 136.262C268.921 136.195 266.207 135.988 265.516 137.279C265.198 137.872 265.207 138.968 265.691 139.755C266.043 140.325 266.409 140.354 266.528 140.698C266.72 141.256 266.127 142.275 263.139 144.267C266.095 143.181 268.062 141.979 268.049 140.69C268.037 139.557 266.511 139.101 266.649 138.329C267.098 135.852 282.835 140.292 289.472 133.335C292.672 129.98 293.507 124.238 292.724 121.873C292.572 123.146 292.227 124.952 291.372 126.958Z" fill="url(#paint1_linear_4172_276541)"/>
<path d="M261.326 159.606C260.167 162.483 257.182 168.155 258.402 172.505C258.577 173.144 258.846 173.753 259.227 174.321C260.464 176.18 261.931 176.174 261.959 177.049C262.086 181.272 228.523 190.486 206.503 179.991C202.825 178.242 193.916 173.997 193.274 167.385C193.02 164.746 194.163 162.594 192.856 161.077C190.663 158.536 184.292 160.94 181.511 161.709C171.628 164.449 166.521 157.98 138.874 145.528C123.043 138.394 115.062 136.141 108.334 126.932C103.663 120.542 104.728 117.824 105.058 117.154C105.103 117.066 105.14 116.984 105.191 116.906C105.318 116.685 105.46 116.488 105.626 116.306C105.665 116.262 105.702 116.224 105.741 116.179C105.911 116.01 106.092 115.855 106.295 115.717C106.367 115.662 106.443 115.611 106.525 115.563C106.607 115.514 106.685 115.463 106.773 115.42C106.855 115.375 106.943 115.332 107.031 115.287C107.119 115.242 107.206 115.205 107.3 115.166C107.388 115.127 107.487 115.09 107.581 115.057C107.675 115.018 107.774 114.985 107.872 114.951C108.168 114.852 108.486 114.764 108.816 114.688C109.031 114.639 109.255 114.588 109.487 114.545C110.323 114.391 111.242 114.282 112.213 114.176C112.438 114.155 112.664 114.131 112.894 114.11C113.334 114.061 113.784 114.016 114.247 113.973C114.455 113.952 114.664 113.928 114.879 113.907C114.955 113.895 115.039 113.891 115.121 113.879C115.17 113.874 115.226 113.868 115.275 113.864C115.456 113.842 115.644 113.819 115.831 113.797C116.046 113.77 116.266 113.743 116.479 113.715C116.5 113.71 116.524 113.71 116.545 113.704C117.513 113.577 118.491 113.413 119.48 113.186C119.722 113.132 119.964 113.077 120.206 113.011C120.212 113.005 120.218 113.005 120.218 113.005C120.465 112.944 120.713 112.878 120.959 112.802C121.619 112.608 122.284 112.384 122.938 112.12C123.014 112.087 123.086 112.054 123.162 112.021C123.525 111.866 123.888 111.702 124.245 111.521C124.366 111.46 124.487 111.4 124.602 111.333C125.316 110.954 126.015 110.513 126.69 110.007C129.258 108.082 132.275 104.458 133.621 96.9722C210.419 71.8427 233.4 72.8365 237.589 80.5824C237.755 80.885 237.886 81.1935 237.995 81.5176C238.028 81.6172 238.061 81.7148 238.094 81.8203C238.171 82.0839 238.237 82.3592 238.297 82.656C238.346 82.9137 238.397 83.189 238.446 83.4858C238.452 83.5014 238.457 83.519 238.457 83.5346C238.485 83.6772 238.506 83.8256 238.53 83.974C238.551 84.1224 238.575 84.2707 238.596 84.425C238.623 84.5909 238.651 84.7667 238.678 84.9483C238.717 85.206 238.76 85.4754 238.811 85.7625C238.855 86.0436 238.91 86.3463 238.965 86.6646C239.025 86.9828 239.086 87.3187 239.158 87.6721C239.17 87.7268 239.179 87.7776 239.191 87.8322C239.246 88.1232 239.312 88.4199 239.378 88.7343C239.417 88.9276 239.46 89.1131 239.505 89.2888C239.55 89.4762 239.593 89.6676 239.642 89.8668C239.845 90.7298 240.098 91.6827 240.395 92.7273C240.44 92.8874 240.489 93.0416 240.532 93.1939C240.692 93.7445 240.856 94.2776 241.021 94.795C241.103 95.0528 241.187 95.3066 241.269 95.5546C241.345 95.8026 241.429 96.0447 241.517 96.2868C241.593 96.5289 241.683 96.7652 241.765 96.9956C241.847 97.226 241.931 97.4583 242.013 97.6829C242.095 97.9094 242.182 98.1339 242.266 98.3487C242.342 98.5518 242.421 98.7451 242.497 98.9423C242.694 99.4324 242.887 99.9108 243.084 100.368C243.15 100.516 243.217 100.664 243.281 100.813C243.357 100.983 243.435 101.155 243.505 101.324C243.566 101.451 243.621 101.578 243.681 101.699C243.736 101.826 243.796 101.947 243.851 102.068C244.099 102.586 244.346 103.08 244.592 103.57C244.702 103.785 244.813 103.999 244.928 104.214C244.977 104.314 245.033 104.411 245.088 104.511C245.324 104.962 245.566 105.401 245.814 105.843C245.874 105.948 245.935 106.057 245.995 106.167C246.28 106.672 246.567 107.174 246.864 107.68C247.018 107.949 247.178 108.219 247.336 108.488C248.05 109.709 248.791 110.964 249.556 112.327C249.671 112.53 249.787 112.739 249.902 112.948C250.737 114.45 251.599 116.099 252.501 117.997C254.881 123.015 257.328 128.176 259.264 133.307C259.264 133.303 259.262 133.298 259.262 133.294C259.399 133.651 259.531 134.008 259.664 134.366C259.664 134.372 259.664 134.381 259.67 134.387C259.912 135.063 260.148 135.74 260.378 136.416C260.39 136.465 260.411 136.519 260.427 136.57C260.663 137.297 260.893 138.023 261.102 138.743C261.211 139.106 261.311 139.47 261.41 139.833C261.51 140.19 261.607 140.553 261.695 140.911C261.883 141.631 262.046 142.352 262.191 143.06C262.263 143.402 262.324 143.736 262.388 144.072C262.394 144.111 262.4 144.148 262.409 144.193C262.47 144.529 262.525 144.865 262.575 145.2C262.63 145.552 262.681 145.905 262.724 146.257C262.768 146.608 262.806 146.962 262.845 147.313C262.917 148.018 262.96 148.715 262.981 149.408C263.063 151.779 262.876 154.094 262.349 156.344C262.095 157.445 261.754 158.534 261.326 159.606Z" fill="#9B8973"/>
<path d="M261.326 159.606C260.167 162.483 257.182 168.155 258.402 172.505C258.577 173.144 258.846 173.753 259.227 174.321C260.464 176.18 261.931 176.174 261.959 177.049C262.086 181.272 228.523 190.486 206.503 179.991C202.825 178.242 193.916 173.997 193.274 167.385C193.02 164.746 194.163 162.594 192.856 161.077C190.663 158.536 184.292 160.94 181.511 161.709C171.628 164.449 166.521 157.98 138.874 145.528C123.043 138.394 115.062 136.141 108.334 126.932C103.663 120.542 104.728 117.824 105.058 117.154C105.103 117.066 105.14 116.984 105.191 116.906C105.318 116.685 105.46 116.488 105.626 116.306C105.665 116.262 105.702 116.224 105.741 116.179C105.911 116.01 106.092 115.855 106.295 115.717C106.367 115.662 106.443 115.611 106.525 115.563C106.607 115.514 106.685 115.463 106.773 115.42C106.855 115.375 106.943 115.332 107.031 115.287C107.119 115.242 107.206 115.205 107.3 115.166C107.388 115.127 107.487 115.09 107.581 115.057C107.675 115.018 107.774 114.985 107.872 114.951C108.168 114.852 108.486 114.764 108.816 114.688C109.031 114.639 109.255 114.588 109.487 114.545C110.323 114.391 111.242 114.282 112.213 114.176C112.438 114.155 112.664 114.131 112.894 114.11C113.334 114.061 113.784 114.016 114.247 113.973C114.455 113.952 114.664 113.928 114.879 113.907C114.955 113.895 115.039 113.891 115.121 113.879C115.17 113.874 115.226 113.868 115.275 113.864C115.456 113.842 115.644 113.819 115.831 113.797C116.046 113.77 116.266 113.743 116.479 113.715C116.5 113.71 116.524 113.71 116.545 113.704C117.513 113.577 118.491 113.413 119.48 113.186C119.722 113.132 119.964 113.077 120.206 113.011C120.212 113.005 120.218 113.005 120.218 113.005C120.465 112.944 120.713 112.878 120.959 112.802C121.619 112.608 122.284 112.384 122.938 112.12C123.014 112.087 123.086 112.054 123.162 112.021C123.525 111.866 123.888 111.702 124.245 111.521C124.366 111.46 124.487 111.4 124.602 111.333C125.316 110.954 126.015 110.513 126.69 110.007C129.258 108.082 132.275 104.458 133.621 96.9722C210.419 71.8427 233.4 72.8365 237.589 80.5824C237.755 80.885 237.886 81.1935 237.995 81.5176C238.028 81.6172 238.061 81.7148 238.094 81.8203C238.171 82.0839 238.237 82.3592 238.297 82.656C238.346 82.9137 238.397 83.189 238.446 83.4858C238.452 83.5014 238.457 83.519 238.457 83.5346C238.485 83.6772 238.506 83.8256 238.53 83.974C238.551 84.1224 238.575 84.2707 238.596 84.425C238.623 84.5909 238.651 84.7667 238.678 84.9483C238.717 85.206 238.76 85.4754 238.811 85.7625C238.855 86.0436 238.91 86.3463 238.965 86.6646C239.025 86.9828 239.086 87.3187 239.158 87.6721C239.17 87.7268 239.179 87.7776 239.191 87.8322C239.246 88.1232 239.312 88.4199 239.378 88.7343C239.417 88.9276 239.46 89.1131 239.505 89.2888C239.55 89.4762 239.593 89.6676 239.642 89.8668C239.845 90.7298 240.098 91.6827 240.395 92.7273C240.44 92.8874 240.489 93.0416 240.532 93.1939C240.692 93.7445 240.856 94.2776 241.021 94.795C241.103 95.0528 241.187 95.3066 241.269 95.5546C241.345 95.8026 241.429 96.0447 241.517 96.2868C241.593 96.5289 241.683 96.7652 241.765 96.9956C241.847 97.226 241.931 97.4583 242.013 97.6829C242.095 97.9094 242.182 98.1339 242.266 98.3487C242.342 98.5518 242.421 98.7451 242.497 98.9423C242.694 99.4324 242.887 99.9108 243.084 100.368C243.15 100.516 243.217 100.664 243.281 100.813C243.357 100.983 243.435 101.155 243.505 101.324C243.566 101.451 243.621 101.578 243.681 101.699C243.736 101.826 243.796 101.947 243.851 102.068C244.099 102.586 244.346 103.08 244.592 103.57C244.702 103.785 244.813 103.999 244.928 104.214C244.977 104.314 245.033 104.411 245.088 104.511C245.324 104.962 245.566 105.401 245.814 105.843C245.874 105.948 245.935 106.057 245.995 106.167C246.28 106.672 246.567 107.174 246.864 107.68C247.018 107.949 247.178 108.219 247.336 108.488C248.05 109.709 248.791 110.964 249.556 112.327C249.671 112.53 249.787 112.739 249.902 112.948C250.737 114.45 251.599 116.099 252.501 117.997C254.881 123.015 257.328 128.176 259.264 133.307C259.264 133.303 259.262 133.298 259.262 133.294C259.399 133.651 259.531 134.008 259.664 134.366C259.664 134.372 259.664 134.381 259.67 134.387C259.912 135.063 260.148 135.74 260.378 136.416C260.39 136.465 260.411 136.519 260.427 136.57C260.663 137.297 260.893 138.023 261.102 138.743C261.211 139.106 261.311 139.47 261.41 139.833C261.51 140.19 261.607 140.553 261.695 140.911C261.883 141.631 262.046 142.352 262.191 143.06C262.263 143.402 262.324 143.736 262.388 144.072C262.394 144.111 262.4 144.148 262.409 144.193C262.47 144.529 262.525 144.865 262.575 145.2C262.63 145.552 262.681 145.905 262.724 146.257C262.768 146.608 262.806 146.962 262.845 147.313C262.917 148.018 262.96 148.715 262.981 149.408C263.063 151.779 262.876 154.094 262.349 156.344C262.095 157.445 261.754 158.534 261.326 159.606Z" fill="url(#paint2_radial_4172_276541)"/>
<path d="M261.326 159.606C260.167 162.483 257.182 168.155 258.402 172.505C258.577 173.144 258.846 173.753 259.227 174.321C260.464 176.18 261.931 176.174 261.959 177.049C262.086 181.272 228.523 190.486 206.503 179.991C202.825 178.242 193.916 173.997 193.274 167.385C193.02 164.746 194.163 162.594 192.856 161.077C190.663 158.536 184.292 160.94 181.511 161.709C171.628 164.449 166.521 157.98 138.874 145.528C123.043 138.394 115.062 136.141 108.334 126.932C103.663 120.542 104.728 117.824 105.058 117.154C105.103 117.066 105.14 116.984 105.191 116.906C105.318 116.685 105.46 116.488 105.626 116.306C105.665 116.262 105.702 116.224 105.741 116.179C105.911 116.01 106.092 115.855 106.295 115.717C106.367 115.662 106.443 115.611 106.525 115.563C106.607 115.514 106.685 115.463 106.773 115.42C106.855 115.375 106.943 115.332 107.031 115.287C107.119 115.242 107.206 115.205 107.3 115.166C107.388 115.127 107.487 115.09 107.581 115.057C107.675 115.018 107.774 114.985 107.872 114.951C108.174 114.852 108.486 114.764 108.816 114.688C109.031 114.639 109.255 114.588 109.487 114.545C110.323 114.391 111.242 114.282 112.213 114.176C112.438 114.155 112.664 114.131 112.894 114.11C113.334 114.061 113.784 114.016 114.247 113.973C114.455 113.952 114.664 113.928 114.879 113.907C114.955 113.895 115.039 113.891 115.121 113.879C115.17 113.874 115.226 113.868 115.275 113.864C115.456 113.842 115.644 113.819 115.831 113.797C116.046 113.77 116.266 113.743 116.479 113.715C116.5 113.71 116.524 113.71 116.545 113.704C117.507 113.571 118.491 113.407 119.48 113.186C119.722 113.132 119.964 113.071 120.206 113.011C120.212 113.005 120.218 113.005 120.218 113.005C120.465 112.938 120.713 112.872 120.959 112.802C121.619 112.608 122.284 112.384 122.938 112.12C123.014 112.087 123.086 112.054 123.162 112.021C123.525 111.866 123.888 111.702 124.245 111.521C124.366 111.46 124.481 111.4 124.602 111.333C125.316 110.954 126.015 110.513 126.69 110.007C129.258 108.082 132.275 104.458 133.621 96.9722C210.419 71.8427 233.4 72.8365 237.589 80.5824C237.755 80.885 237.886 81.1935 237.995 81.5176C238.028 81.6172 238.061 81.7148 238.094 81.8203C238.171 82.0839 238.237 82.3592 238.297 82.656C238.346 82.9137 238.397 83.189 238.446 83.4858C238.452 83.5014 238.457 83.519 238.457 83.5346C238.485 83.6772 238.506 83.8256 238.53 83.974C238.551 84.1224 238.575 84.2707 238.596 84.425C238.623 84.5909 238.651 84.7667 238.678 84.9483C238.717 85.206 238.76 85.4754 238.811 85.7625C238.855 86.0475 238.91 86.3502 238.965 86.6646C239.025 86.9828 239.086 87.3187 239.158 87.6721C239.17 87.7268 239.179 87.7776 239.191 87.8322C239.257 88.1505 239.318 88.4473 239.378 88.7343C239.417 88.9276 239.46 89.1131 239.505 89.2888C239.527 89.404 239.554 89.5192 239.581 89.6305C239.597 89.7067 239.62 89.7906 239.642 89.8668C239.845 90.7298 240.098 91.6827 240.395 92.7273C240.44 92.8874 240.489 93.0416 240.532 93.1939C240.692 93.7445 240.856 94.2776 241.021 94.795C241.103 95.0489 241.187 95.3008 241.269 95.5546C241.345 95.8026 241.429 96.0447 241.517 96.2868C241.599 96.5289 241.683 96.7652 241.765 96.9956C241.847 97.226 241.931 97.4583 242.013 97.6829C242.095 97.9094 242.182 98.1281 242.266 98.3487C242.342 98.5459 242.421 98.7451 242.497 98.9423C242.694 99.4324 242.887 99.9108 243.084 100.368C243.15 100.522 243.217 100.67 243.281 100.813C243.357 100.989 243.435 101.158 243.505 101.324C243.566 101.451 243.621 101.578 243.681 101.699C243.736 101.826 243.796 101.947 243.851 102.068C244.099 102.586 244.346 103.08 244.592 103.57C244.702 103.785 244.813 103.999 244.928 104.214C244.977 104.314 245.033 104.411 245.088 104.511C245.324 104.962 245.566 105.401 245.814 105.843C245.874 105.948 245.935 106.057 245.995 106.167C246.28 106.672 246.567 107.174 246.864 107.68C247.018 107.949 247.178 108.219 247.336 108.488C248.05 109.709 248.791 110.964 249.556 112.327C249.671 112.53 249.787 112.739 249.902 112.948C250.737 114.45 251.599 116.099 252.501 117.997C254.881 123.015 257.328 128.176 259.264 133.307C259.264 133.303 259.262 133.298 259.262 133.294C259.399 133.651 259.531 134.008 259.664 134.366C259.664 134.372 259.664 134.381 259.67 134.387C259.912 135.063 260.148 135.74 260.378 136.416C260.39 136.465 260.411 136.519 260.427 136.57C260.663 137.297 260.893 138.023 261.102 138.743C261.211 139.106 261.311 139.47 261.41 139.833C261.51 140.19 261.607 140.553 261.695 140.911C261.883 141.631 262.046 142.352 262.191 143.06C262.263 143.402 262.324 143.736 262.388 144.072C262.394 144.111 262.4 144.148 262.409 144.193C262.47 144.529 262.525 144.865 262.575 145.2C262.63 145.552 262.681 145.905 262.724 146.257C262.768 146.608 262.806 146.962 262.845 147.313C262.917 148.018 262.96 148.715 262.981 149.408C263.063 151.779 262.876 154.094 262.349 156.344C262.095 157.445 261.754 158.534 261.326 159.606Z" fill="url(#paint3_linear_4172_276541)"/>
<path opacity="0.7" d="M262.348 156.336L262.354 156.342C262.097 157.447 261.755 158.536 261.326 159.608C260.167 162.484 257.181 168.156 258.401 172.507C255.917 173.751 253.279 174.668 251.255 175.367C242.918 178.255 234.217 178.437 233.891 177.05C233.528 175.527 243.911 174.696 251.815 165.841C257.219 159.78 258.852 152.899 259.279 150.986C260.846 144.033 259.905 137.593 259.472 134.606C259.396 134.061 259.318 133.604 259.263 133.291C259.4 133.649 259.533 134.006 259.665 134.363C259.665 134.369 259.665 134.379 259.671 134.385C259.913 135.061 260.149 135.738 260.38 136.414C260.391 136.462 260.413 136.517 260.428 136.568C260.664 137.294 260.895 138.021 261.103 138.741C261.213 139.104 261.312 139.467 261.412 139.831C261.511 140.188 261.609 140.551 261.697 140.908C261.878 141.629 262.042 142.344 262.192 143.058C262.265 143.4 262.325 143.734 262.389 144.07C262.395 144.109 262.401 144.146 262.411 144.191C262.471 144.527 262.526 144.862 262.577 145.198C262.631 145.55 262.682 145.903 262.725 146.255C262.77 146.606 262.807 146.959 262.846 147.311C262.912 148.016 262.955 148.709 262.983 149.406C263.063 151.771 262.875 154.086 262.348 156.336Z" fill="url(#paint4_linear_4172_276541)"/>
<path opacity="0.7" d="M224.053 136.291C216.416 131.956 215.996 133.46 212.367 131.248C203.861 126.063 204.244 119.636 200.138 119.241C192.631 118.523 180.145 138.945 186.446 148.68C188.343 151.611 191.414 152.759 193.89 153.682C203.014 157.09 206.31 151.773 219.75 152.568C226.685 152.978 230.847 154.69 234.106 151.857C235.979 150.226 236.656 147.874 236.926 146.054C236.299 145.312 235.653 144.587 234.964 143.904C231.794 140.756 227.915 138.482 224.053 136.291Z" fill="url(#paint5_linear_4172_276541)"/>
<path opacity="0.7" d="M244.594 103.566C243.203 104.462 241.406 105.524 239.236 106.548C232.365 109.799 226.324 110.574 222.866 110.925C210.417 112.196 202.842 110.783 190.354 110.798C184.879 110.81 176.602 110.843 166.268 112.003C147.617 114.104 142.314 117.624 129.599 116.674C123.778 116.238 118.836 115.051 115.121 113.879C118.875 113.462 123.074 112.72 126.692 110.007C129.26 108.082 132.276 104.458 133.623 96.9722C210.421 71.8427 233.401 72.8365 237.591 80.5824C237.757 80.885 237.887 81.1935 237.997 81.5176C238.03 81.6172 238.063 81.7148 238.096 81.8203C238.172 82.0839 238.239 82.3592 238.299 82.656C238.348 82.9137 238.399 83.189 238.447 83.4858C238.453 83.5014 238.459 83.519 238.459 83.5346C238.486 83.6772 238.508 83.8256 238.531 83.974C238.553 84.1224 238.576 84.2707 238.598 84.425C238.625 84.5909 238.652 84.7667 238.68 84.9483C238.724 85.206 238.762 85.4754 238.812 85.7625C238.906 86.3346 239.021 86.9672 239.158 87.6702C239.234 88.049 239.306 88.4024 239.378 88.7324C239.445 89.0506 239.515 89.3533 239.581 89.6286C239.889 90.9973 240.153 91.9267 240.395 92.7253C240.44 92.8854 240.489 93.0397 240.531 93.192C241.829 97.6029 243.166 100.778 244.594 103.566Z" fill="url(#paint6_linear_4172_276541)"/>
<path d="M199.785 117.569C197.109 122.952 197.133 126.684 197.685 129.128C198.065 130.815 198.94 132.961 197.896 135.013C197.053 136.671 195.759 136.693 195.166 138.167C194.067 140.895 197.045 144.425 197.265 144.683C200.151 148.027 205.377 149.337 209.869 148.467C215.859 147.305 217.391 142.872 221.001 143.843C223.576 144.536 223.323 146.932 227.512 149.308C229.227 150.28 231.758 151.716 234.443 150.989C238.506 149.89 239.866 144.673 239.979 144.21C237.846 140.84 234.556 136.269 229.762 131.573C226.507 128.384 222.95 124.901 217.354 122.043C214.06 120.359 208.077 117.884 199.785 117.569Z" fill="#9B8973"/>
<path d="M199.785 117.569C197.109 122.952 197.133 126.684 197.685 129.128C198.065 130.815 198.94 132.961 197.896 135.013C197.053 136.671 195.759 136.693 195.166 138.167C194.067 140.895 197.045 144.425 197.265 144.683C200.151 148.027 205.377 149.337 209.869 148.467C215.859 147.305 217.391 142.872 221.001 143.843C223.576 144.536 223.323 146.932 227.512 149.308C229.227 150.28 231.758 151.716 234.443 150.989C238.506 149.89 239.866 144.673 239.979 144.21C237.846 140.84 234.556 136.269 229.762 131.573C226.507 128.384 222.95 124.901 217.354 122.043C214.06 120.359 208.077 117.884 199.785 117.569Z" fill="url(#paint7_linear_4172_276541)"/>
<path d="M234.4 149.887C231.177 150.463 228.476 148.704 227.875 148.313C224.724 146.259 224.318 143.52 221.159 142.905C220.999 142.873 220.507 142.783 219.85 142.793C217.412 142.826 216.226 144.158 213.717 145.459C211.467 146.624 209.375 147.708 208.239 146.915C207.603 146.47 207.709 145.746 206.634 141.315C206.587 141.124 206.323 140.083 205.556 139.037C205.125 138.449 204.856 138.296 204.76 138.248C203.949 137.824 202.994 138.187 202.298 138.462C200.895 139.017 200.887 139.548 199.56 140.036C198.866 140.292 198.192 140.54 197.396 140.319C196.452 140.058 195.556 139.206 195.414 138.207C195.39 138.041 195.388 137.875 195.396 137.711C195.31 137.847 195.23 137.998 195.162 138.168C194.063 140.895 197.041 144.426 197.262 144.683C200.148 148.028 205.373 149.338 209.865 148.467C215.855 147.306 217.387 142.873 220.997 143.844C223.573 144.537 223.319 146.933 227.508 149.309C229.224 150.281 231.754 151.716 234.439 150.99C236.236 150.504 237.503 149.211 238.367 147.882C237.63 148.546 236.283 149.551 234.4 149.887Z" fill="url(#paint8_linear_4172_276541)"/>
<path d="M10.0967 8.93799C9.28495 8.56115 7.78444 7.9949 5.85267 8.02028C3.99701 8.04371 0.589997 8.62947 0.0729076 10.1232C-1.22665 13.8721 15.25 24.5077 17.3593 22.3228C18.1808 21.4715 17.1623 18.324 10.0967 8.93799Z" fill="#B58D57"/>
<path opacity="0.7" d="M10.0967 8.93728C9.51716 8.66782 8.58057 8.3066 7.39224 8.12891C7.39419 8.14258 7.39993 8.15427 7.40189 8.16794C7.66921 9.41758 7.87417 11.0343 6.94146 12.0672C6.84975 12.1688 6.64284 12.1785 6.55308 12.0672C5.37061 10.5911 3.73358 9.67728 2.21939 8.59751C1.1774 8.93335 0.312915 9.42931 0.0729076 10.1225C-1.22665 13.8714 15.25 24.507 17.3593 22.3221C18.1808 21.4707 17.1623 18.3232 10.0967 8.93728Z" fill="url(#paint9_linear_4172_276541)"/>
<path opacity="0.7" d="M10.1162 8.9635C10.1513 9.44383 10.163 9.92807 10.1533 10.4123C10.1376 11.207 10.0655 12.0017 9.97378 12.7925C9.91719 13.2748 9.86448 13.7961 9.62447 14.2296C9.05469 15.2547 7.65562 14.8447 6.78925 14.5147C4.25259 13.5501 2.34032 11.4511 0.783201 9.27401C0.439775 9.51613 0.186082 9.79729 0.0729076 10.1234C-1.22665 13.8723 15.25 24.5079 17.3593 22.323C18.1789 21.4716 17.1642 18.328 10.1162 8.9635Z" fill="url(#paint10_linear_4172_276541)"/>
<path d="M10.0966 8.93788C10.6001 10.0411 11.2986 11.7964 11.7533 14.036C12.405 17.2499 11.9913 18.6968 12.5181 20.9188C13.2264 23.9082 15.0392 25.7924 16.85 27.6746C23.3907 34.4734 35.4633 36.7658 37.3599 37.1075C37.4028 31.6267 37.4458 26.1439 37.4867 20.663C35.0145 17.1289 32.5402 13.5967 30.068 10.0625C28.2396 9.09406 25.0414 7.69797 20.8267 7.35041C15.9426 6.95014 12.1026 8.151 10.0966 8.93788Z" fill="#B58D57"/>
<path opacity="0.7" d="M10.0966 8.93788C10.6001 10.0411 11.2986 11.7964 11.7533 14.036C12.405 17.2499 11.9913 18.6968 12.5181 20.9188C13.2264 23.9082 15.0392 25.7924 16.85 27.6746C23.3907 34.4734 35.4633 36.7658 37.3599 37.1075C37.4028 31.6267 37.4458 26.1439 37.4867 20.663C35.0145 17.1289 32.5402 13.5967 30.068 10.0625C28.2396 9.09406 25.0414 7.69797 20.8267 7.35041C15.9426 6.95014 12.1026 8.151 10.0966 8.93788Z" fill="url(#paint11_linear_4172_276541)"/>
<path opacity="0.7" d="M37.4887 20.6663C37.4438 26.1452 37.4009 31.628 37.356 37.1128C35.4593 36.7671 23.3887 34.4787 16.848 27.674C15.0392 25.7937 13.2265 23.9115 12.5162 20.9201C11.9894 18.6981 12.4069 17.2513 11.7513 14.0393C11.2947 11.7958 10.5962 10.0404 10.0966 8.94116C11.3494 8.44521 13.3182 7.79113 15.8139 7.47286C17.3086 7.27565 18.9964 7.20339 20.8267 7.35178C22.3721 7.4787 23.7732 7.74818 25.0259 8.08792C27.1977 8.66588 28.907 9.45272 30.0661 10.0678C32.5403 13.6 35.0144 17.1302 37.4887 20.6663Z" fill="url(#paint12_linear_4172_276541)"/>
<path opacity="0.7" d="M31.2957 11.8225C31.5104 13.781 31.4576 15.7764 31.1785 17.6841C30.9756 19.0646 30.6069 20.4099 30.1191 21.7142C29.639 22.9932 29.0439 24.2506 28.1873 25.3245C27.4263 26.2793 26.4038 27.0584 25.1589 27.1892C24.4584 27.2634 23.7774 27.0896 23.1159 26.8787C22.3686 26.6405 21.6388 26.3262 20.9617 25.9278C19.6426 25.1546 18.5401 24.0651 17.705 22.7862C16.7079 21.2593 16.1693 19.4902 15.4298 17.8364C15.0337 16.9499 14.6063 16.0791 14.1283 15.2356C13.6483 14.3882 13.0902 13.5974 12.5594 12.7832C11.8296 11.6663 11.1917 10.4342 10.3097 9.42086C10.7819 10.5221 11.3574 12.0959 11.7516 14.0387C12.4053 17.2507 11.9878 18.6975 12.5165 20.9195C13.2249 23.9108 15.0395 25.7931 16.8483 27.6734C23.389 34.4781 35.4597 36.7646 37.3563 37.1121C37.4012 31.6293 37.4441 26.1446 37.489 20.6657C35.4245 17.7154 33.3602 14.769 31.2957 11.8225Z" fill="url(#paint13_linear_4172_276541)"/>
<path d="M68.2801 56.7391C66.0751 57.1746 52.4942 59.627 41.0382 50.6608C38.9328 49.0109 31.3911 43.1044 29.8847 35.177C29.7091 34.2534 29.6154 33.3006 29.6212 32.3282C29.6544 27.8783 31.7598 24.6507 31.2427 17.1255C31.034 14.1284 30.4955 11.6857 30.0662 10.069C31.6428 9.57887 33.9629 9.00291 36.8098 8.78813C38.5035 8.66707 40.3826 8.66704 42.41 8.89354C45.0598 9.18447 47.3955 9.80151 49.3858 10.522C52.0298 11.4729 54.0533 12.6171 55.3665 13.4489C58.4944 16.3758 61.6223 19.3007 64.7541 22.2276C65.9326 33.7302 67.1034 45.2327 68.2801 56.7391Z" fill="#B58D57"/>
<path opacity="0.7" d="M68.2801 56.7391C66.0751 57.1746 52.4942 59.627 41.0382 50.6608C38.9328 49.0109 31.3911 43.1044 29.8847 35.177C29.7091 34.2534 29.6154 33.3006 29.6212 32.3282C29.6544 27.8783 31.7598 24.6507 31.2427 17.1255C31.034 14.1284 30.4955 11.6857 30.0662 10.069C31.6428 9.57887 33.9629 9.00291 36.8098 8.78813C38.5035 8.66707 40.3826 8.66704 42.41 8.89354C45.0598 9.18447 47.3955 9.80151 49.3858 10.522C52.0298 11.4729 54.0533 12.6171 55.3665 13.4489C58.4944 16.3758 61.6223 19.3007 64.7541 22.2276C65.9326 33.7302 67.1034 45.2327 68.2801 56.7391Z" fill="url(#paint14_linear_4172_276541)"/>
<path opacity="0.7" d="M68.2801 56.7391C66.0751 57.1746 52.4942 59.627 41.0382 50.6608C38.9328 49.0109 31.3911 43.1044 29.8847 35.177C29.7091 34.2534 29.6154 33.3006 29.6212 32.3282C29.6544 27.8783 31.7598 24.6507 31.2427 17.1255C31.034 14.1284 30.4955 11.6857 30.0662 10.069C31.6428 9.57887 33.9629 9.00291 36.8098 8.78813C38.5035 8.66707 40.3826 8.66704 42.41 8.89354C45.0598 9.18447 47.3955 9.80151 49.3858 10.522C52.0298 11.4729 54.0533 12.6171 55.3665 13.4489C58.4944 16.3758 61.6223 19.3007 64.7541 22.2276C65.9326 33.7302 67.1034 45.2327 68.2801 56.7391Z" fill="url(#paint15_linear_4172_276541)"/>
<path opacity="0.41" d="M58.3188 51.0585C57.6261 50.6426 56.8826 50.3106 56.2094 49.8616C55.6025 49.4574 55.1577 48.9868 55.1128 48.2234C55.0563 47.2569 55.786 46.5285 56.4221 45.9037C57.1792 45.1598 57.8895 44.3924 57.5792 43.2463C57.5012 42.9592 57.3704 42.6937 57.2182 42.4399C57.2436 42.5707 57.267 42.7015 57.2787 42.8343C57.31 43.1877 56.7597 43.1838 56.7285 42.8343C56.6934 42.4496 56.5626 42.0708 56.4065 41.7213C55.9987 40.8192 55.384 39.9894 54.6367 39.3411C54.0279 38.812 53.1693 38.2907 52.3303 38.5113C51.8561 38.6363 51.3117 39.0014 51.1712 39.4895C51.0366 39.9562 51.2044 40.4697 51.2825 40.9305C51.4347 41.8287 51.2396 42.9065 50.5547 43.5685C50.0298 44.0761 49.339 43.8672 48.7321 43.6505C47.7916 43.3146 46.8394 42.967 45.8696 42.723C45.6706 42.6722 45.4169 42.6078 45.2569 42.6624C45.2374 42.6683 45.2023 42.6937 45.173 42.7484C45.1301 42.8265 45.1086 42.8831 45.0793 42.9768C44.9817 43.2853 44.9193 43.6055 44.8393 43.9199C44.7183 44.3905 44.5524 44.8493 44.4549 45.3238C44.4159 45.5093 44.4256 45.7827 44.3241 45.9506C44.2597 46.056 44.1681 46.0833 44.0529 46.099C43.9924 46.1068 43.9496 46.099 43.9496 46.099C43.5573 46.1673 43.2665 46.4993 42.9211 46.6652C42.568 46.8351 42.1543 46.8214 41.807 46.9893C41.4343 47.1709 41.4538 47.741 41.528 48.0906C41.5806 48.3463 41.7115 48.5631 41.9515 48.6783C42.5447 48.9614 43.3583 48.7252 43.9515 48.5592C44.7398 48.3405 45.5008 48.0379 46.2657 47.7508C46.9038 47.5126 47.4853 47.3115 48.1721 47.3057C48.7302 47.2998 49.9888 47.2275 50.1995 47.9558C50.3576 48.5006 49.7799 49.0532 49.4541 49.4105C48.9604 49.9514 46.9565 51.9547 48.5077 52.3842C49.1965 52.5756 49.9868 52.4565 50.6776 52.3316C51.3956 52.2027 52.1098 52.0191 52.7967 51.7712C52.9918 51.7009 53.1966 51.9196 53.1342 52.109C52.4922 54.1142 55.103 54.5223 56.5177 54.4715C57.2416 54.4462 58.03 54.3407 58.6798 53.999C59.193 53.7296 59.7646 53.0774 59.6788 52.4565C59.5832 51.8044 58.8281 51.365 58.3188 51.0585Z" fill="#7A7165"/>
<path opacity="0.41" d="M45.095 37.7006C45.3916 37.0211 45.138 36.2031 44.9936 35.5177C44.8355 34.7718 44.373 34.1294 44.014 33.4655C43.6706 32.8309 43.3037 32.1144 43.3116 31.3724C43.3174 30.6285 43.8052 30.0095 44.4862 29.7361C45.9126 29.1581 46.8414 30.7866 47.7897 31.5872C48.3302 31.0698 48.8512 30.5191 49.2473 29.8845C49.503 29.4765 49.7254 29.0117 49.7332 28.5197C49.7469 27.7836 49.2454 27.2212 48.7166 26.7741C48.0474 26.2098 47.2805 25.7685 46.5683 25.2628C45.8346 24.7395 45.1068 24.1499 44.6463 23.361C44.137 22.4921 44.0784 21.4944 44.3242 20.5317C44.3515 20.4224 44.4726 20.3189 44.5897 20.3306C45.3761 20.4029 46.1273 20.686 46.8883 20.8852C47.3058 20.9945 48.2698 21.3245 48.6054 20.8949C48.781 20.6704 48.7245 20.2916 48.6757 20.0358C48.5703 19.4754 48.3732 18.8916 48.1176 18.3839C47.6746 17.5014 46.9137 17.0445 45.9673 16.8609C45.0795 16.6891 44.1662 16.7087 43.2803 16.5134C42.3496 16.3064 41.4695 15.7968 40.97 14.9591C39.8109 13.0183 41.6667 10.5405 40.1525 8.73438C38.9759 8.69338 37.8539 8.71292 36.8099 8.78712C36.7807 8.78907 36.7533 8.79297 36.7241 8.79492C36.7241 8.89841 36.7299 9.00187 36.7397 9.10341C36.7514 9.23423 36.683 9.31625 36.5894 9.34944C36.9972 9.97817 37.1377 10.7182 36.5894 11.3918C36.004 12.1103 34.9561 12.2021 34.0995 12.2724C33.1356 12.3505 31.9708 12.2998 31.1337 12.868C30.9795 12.9715 30.8644 13.1042 30.7629 13.2428C30.9229 14.1508 31.0653 15.1583 31.1668 16.2478C31.3151 16.2654 31.4614 16.2712 31.598 16.2712C32.4078 16.2791 33.2097 16.1327 34.0137 16.0585C34.9074 15.9784 36.0021 16.0331 36.7104 16.654C37.3933 17.2515 37.0558 18.1106 36.4918 18.6495C35.7621 19.3485 34.763 19.7371 33.7718 19.903C34.0586 20.4927 34.7396 20.9164 35.2469 21.264C35.846 21.674 36.5855 22.0606 37.0148 22.6659C37.3602 23.1521 37.2099 23.8492 36.7748 24.2397C36.2733 24.6907 35.5221 24.5501 34.9211 24.4447C34.644 24.3978 34.3473 24.3217 34.0644 24.3568C33.678 24.4057 33.2625 24.5442 32.9015 24.6868C32.3415 24.9094 31.7874 25.2648 31.4888 25.8037C31.0108 26.6628 31.4771 27.6313 32.3123 28.0394C33.7016 28.7208 35.3425 27.8714 36.4274 27.0006C36.5503 26.901 36.6948 26.8951 36.8158 27.0006C37.089 27.2349 37.3485 27.4848 37.5729 27.7679C38.1817 28.5333 38.3437 29.4471 37.6685 30.2242C37.0148 30.9779 35.9845 31.388 35.0908 31.7746C34.6166 31.9796 34.1367 32.1769 33.6703 32.4034C33.323 32.5713 32.9405 32.7509 32.6712 33.0321C32.1073 33.6198 32.2068 34.6371 32.4976 35.3556C32.6634 35.7637 32.9249 36.1562 33.1981 36.5018C33.3054 36.6385 33.4381 36.8044 33.6079 36.8181C33.8128 36.8357 34.0469 36.7322 34.244 36.6912C34.6401 36.6072 35.044 36.5779 35.4362 36.4803C36.205 36.2889 36.9172 35.8808 37.6997 35.7559C38.5485 35.6211 39.3095 35.959 39.9768 36.4666C40.2715 36.6912 40.3339 36.9958 40.3418 37.3512C40.3457 37.5191 40.3105 37.7299 40.373 37.8901C40.4276 38.0287 40.5837 38.1361 40.7046 38.2161C41.3681 38.6594 42.2656 38.7999 43.0481 38.7921C43.8579 38.7843 44.7438 38.507 45.095 37.7006Z" fill="#7A7165"/>
<path opacity="0.41" d="M30.9383 12.3414C31.752 11.8474 32.7803 11.8181 33.7032 11.7517C34.4798 11.6951 35.6233 11.7126 36.1677 11.0449C36.796 10.2756 36.0819 9.44183 35.4692 8.91854C33.233 9.188 31.3871 9.65658 30.0661 10.0666C30.2476 10.7539 30.4505 11.5994 30.6378 12.564C30.7315 12.482 30.831 12.4078 30.9383 12.3414Z" fill="#7A7165"/>
<path opacity="0.7" d="M64.756 22.2225C61.63 19.3034 58.508 16.3824 55.3879 13.4633C55.6338 15.4822 55.5557 17.5461 55.466 19.5689C55.3313 22.6774 55.386 25.7996 55.1303 28.9022C54.9411 31.1848 54.5313 33.477 53.9634 35.6971C53.5029 37.4974 52.8688 39.3308 51.7019 40.8011C50.5585 42.2402 48.816 43.1168 46.9584 42.9743C44.8256 42.8103 43.0071 41.6212 41.6529 40.0122C40.2772 38.3799 39.3249 36.4274 38.5815 34.4377C37.5395 31.6456 36.9014 28.6894 36.1326 25.8133C35.3424 22.8571 34.4604 19.9262 33.2292 17.1204C32.2008 14.7734 30.9969 12.4694 30.2573 10.0092C30.1949 10.0287 30.1267 10.0483 30.0662 10.0658C30.4955 11.6826 31.034 14.1252 31.2427 17.1224C31.7598 24.6475 29.6544 27.8752 29.6212 32.325C29.6154 33.2994 29.7091 34.2502 29.8847 35.1738C31.3911 43.0993 38.9328 49.0078 41.0382 50.6577C52.4922 59.6238 66.0751 57.1694 68.2801 56.736C67.1034 45.2315 65.9326 33.7289 64.756 22.2225Z" fill="url(#paint16_linear_4172_276541)"/>
<path d="M55.3705 13.4481C56.5042 15.7853 58.0379 19.4542 58.9277 24.1306C61.6302 38.3179 55.3471 45.6575 57.3472 56.9668C58.7111 64.6794 63.1132 69.637 68.0226 75.1647C85.3286 94.6552 111.837 96.6155 119.419 96.924C123.373 73.3195 127.326 49.713 131.279 26.1085C124.294 22.2834 117.31 18.4603 110.325 14.6352C106.42 11.9036 98.5934 7.23894 87.6974 5.97563C71.4315 4.08751 59.2184 11.0386 55.3705 13.4481Z" fill="#B58D57"/>
<path opacity="0.7" d="M55.3705 13.4481C56.5042 15.7853 58.0379 19.4542 58.9277 24.1306C61.6302 38.3179 55.3471 45.6575 57.3472 56.9668C58.7111 64.6794 63.1132 69.637 68.0226 75.1647C85.3286 94.6552 111.837 96.6155 119.419 96.924C123.373 73.3195 127.326 49.713 131.279 26.1085C124.294 22.2834 117.31 18.4603 110.325 14.6352C106.42 11.9036 98.5934 7.23894 87.6974 5.97563C71.4315 4.08751 59.2184 11.0386 55.3705 13.4481Z" fill="url(#paint17_linear_4172_276541)"/>
<path opacity="0.7" d="M131.275 26.1063C127.324 49.7128 123.371 73.3154 119.414 96.9218C111.833 96.6133 85.3227 94.6549 68.0207 75.1625C63.1113 69.6348 58.7091 64.6791 57.3471 56.9626C55.3471 45.6534 61.6283 38.3176 58.9297 24.1264C58.0399 19.4519 56.5062 15.7831 55.3686 13.4459C58.2272 11.6534 65.6967 7.36752 76.0132 6.04759C79.5918 5.59069 83.5099 5.49308 87.6993 5.97537C93.7229 6.67439 98.808 8.41212 102.81 10.2866C106.047 11.8037 108.576 13.4107 110.324 14.631C117.31 18.4561 124.296 22.2832 131.275 26.1063Z" fill="url(#paint18_linear_4172_276541)"/>
<path opacity="0.41" d="M74.4189 60.5418C75.4258 60.9069 76.4716 60.741 77.3478 60.1376C79.3127 58.7825 80.0425 55.9318 79.5839 53.6864C79.3224 52.4094 78.6668 51.1793 77.6678 50.326C76.8814 49.6524 75.8765 49.2325 74.9282 48.8498C73.853 48.4144 72.7564 48.0318 71.7008 47.5514C70.7915 47.1375 69.849 46.6396 69.1816 45.8761C67.3552 43.781 69.1486 41.0825 70.5808 39.3389C70.6764 39.2237 70.8715 39.2432 70.9691 39.3389C71.3066 39.6708 71.7145 39.9169 72.1418 40.1141C73.9097 40.9283 77.0102 41.0943 77.701 38.7747C77.9761 37.8511 77.9702 36.5214 76.9458 36.0801C76.1204 35.7248 75.1429 35.8185 74.2707 35.6915C73.8414 35.6291 73.4043 35.5236 73.0316 35.2932C72.5906 35.0218 72.3603 34.6255 72.1574 34.1607C71.7984 33.3348 71.3046 32.1047 71.8861 31.2592C72.3095 30.6422 73.1409 30.5505 73.8277 30.5505C74.5809 30.5505 75.3302 30.693 76.0814 30.6696C76.4053 30.6598 76.5029 30.6286 76.7195 30.3903C77.061 30.0116 77.3595 29.5976 77.6288 29.1641C78.2571 28.1546 78.7625 26.9968 78.8698 25.7998C78.9791 24.5658 78.5908 23.4021 77.6151 22.6074C77.0922 22.1817 76.4834 21.8518 75.7965 21.8674C75.2716 21.8791 74.776 22.0763 74.3214 22.3282C73.457 22.8066 72.694 23.5544 71.732 23.8356C70.5476 24.1812 69.769 23.3631 69.0899 22.5118C68.686 22.0041 68.3719 21.4378 68.3387 20.7779C68.3114 20.2429 68.4929 19.7196 68.7564 19.2607C69.0237 18.796 69.3748 18.384 69.7202 17.976C69.9914 17.6557 70.3213 17.316 70.4696 16.9157C70.5379 16.7341 70.5145 16.5857 70.4891 16.3983C70.4403 16.0214 70.3524 15.6446 70.212 15.2912C69.9758 14.7035 69.5856 14.2075 69.1173 13.7877C68.3251 13.0789 67.3144 12.5947 66.688 11.7102C66.0168 10.7612 65.927 9.51156 66.1241 8.35955C60.9512 10.1208 57.2028 12.2979 55.3686 13.4499C56.5062 15.7871 58.0399 19.456 58.9297 24.1304C61.6283 38.3217 55.3451 45.6574 57.3471 56.9667C57.5832 58.3042 57.9169 59.5538 58.3209 60.741C58.9901 61.071 59.6828 61.3424 60.4048 61.4947C61.3161 61.688 62.2409 61.6099 63.0488 61.1256C63.8 60.6746 64.3795 59.9834 64.9395 59.3234C65.5796 58.5697 66.2138 57.8024 66.9806 57.1717C67.8665 56.4414 68.885 55.924 70.0051 55.6702C70.1163 55.6448 70.2626 55.6838 70.3153 55.7971C70.5573 56.3087 70.8169 56.8105 71.1057 57.2967C71.8784 58.5932 72.9379 60.0048 74.4189 60.5418Z" fill="#7A7165"/>
<path opacity="0.41" d="M108.42 83.2262C107.692 83.1988 106.956 83.0914 106.342 82.7341C106.178 82.6404 106.02 82.5193 105.868 82.3885C105.07 82.2108 104.26 82.1327 103.473 82.2694C101.803 82.5583 100.654 83.9154 100.601 85.5985C100.548 87.309 101.327 89.0956 102.451 90.3628C103.294 91.3137 104.338 92.0263 105.446 92.6336C106.847 93.4029 108.334 94.0121 109.842 94.5354C112.941 95.6132 116.178 96.3727 119.437 96.7808C121.813 82.6052 124.186 68.4296 126.561 54.256C126.497 53.9416 126.44 53.6273 126.385 53.3129C125.87 50.304 125.704 47.2443 125.142 44.2413C124.66 41.6678 123.886 38.7995 121.77 37.0695C120.719 36.2084 119.39 35.7672 118.048 35.6481C117.097 35.5641 116.106 35.5524 115.162 35.6969C114.535 35.7925 113.883 35.9624 113.368 36.3491C112.56 36.9543 112.377 37.9853 112.235 38.9225C112.057 40.0823 111.899 41.246 111.329 42.2926C110.972 42.9487 110.459 43.5306 109.917 44.0402C109.353 44.5713 108.685 44.9911 107.936 45.2039C106.496 45.6159 104.982 45.2156 103.639 44.6591C102.082 44.0148 100.63 43.1498 99.1005 42.4469C97.7307 41.8181 96.1599 41.2382 94.6301 41.5214C93.7774 41.6795 92.8993 41.906 92.0993 42.2458C91.7325 42.402 91.2447 42.6226 91.0515 42.9721C91.0027 43.06 90.9833 43.1771 90.993 43.2396C91.0145 43.3822 91.069 43.4759 91.1646 43.6087C91.391 43.9172 91.7442 44.171 92.0662 44.3897C93.0067 45.0223 94.0408 45.5124 95.0418 46.0357C95.8887 46.477 96.8605 46.9222 97.5298 47.6231C98.1776 48.3007 98.1659 49.6713 97.6098 50.4075C96.9795 51.2393 95.7678 51.2959 94.8155 51.3135C93.6311 51.3369 92.4018 51.21 91.2369 51.4892C90.7393 51.6083 90.2573 51.8172 89.908 52.2038C89.7441 52.3854 89.5685 52.6373 89.5119 52.8795C89.4553 53.1235 89.5997 53.3793 89.7207 53.5823C90.1324 54.2716 90.7296 54.8476 91.2623 55.4412C91.6838 55.9117 92.193 56.4194 92.3432 57.054C92.7257 58.6649 93.0106 60.4222 92.8194 62.076C92.7315 62.8434 92.554 63.6576 91.8476 64.0754C91.2876 64.4073 90.7373 64.3741 90.2378 63.9641C89.8241 63.6224 89.5608 63.2495 88.991 63.5189C88.2807 63.8548 87.5607 64.1731 86.7802 64.298C86.3782 64.3625 85.9587 64.3488 85.5723 64.4737C84.9908 64.6631 84.5206 65.1747 84.1089 65.6023C83.5703 66.1608 83.0669 66.6821 83.1137 67.5022C83.141 67.9962 83.3517 68.4491 83.4395 68.9314C83.7205 70.4661 81.6405 70.2221 80.6941 70.1577C79.5058 70.0776 78.8111 69.2595 78.1906 68.3339C77.9213 67.9317 77.6501 67.5022 77.2598 67.2015C76.8286 66.8715 76.296 66.7973 75.7691 66.8832C74.8052 67.0375 73.9173 67.5373 73.1739 68.1543C72.567 68.6581 72.0597 69.3044 71.9797 70.1147C71.8938 70.9816 72.2256 71.8564 72.5885 72.6257C72.8617 73.2056 73.2129 73.7503 73.6754 74.1994C74.4559 74.957 75.4919 75.3202 76.5651 75.3827C78.774 75.5135 80.8834 74.6739 83.0161 74.2522C83.781 74.0999 84.6649 73.9456 85.4162 74.2385C86.1928 74.5431 86.4953 75.3007 86.548 76.0856C86.5909 76.7104 86.4797 77.3216 86.3899 77.9366C86.3138 78.4541 86.0172 78.7587 85.5626 79.0028C84.7762 79.4284 83.1586 79.7389 83.4591 80.9534C83.6113 81.5704 83.9644 82.0976 84.6298 82.1835C85.3225 82.2733 86.0601 81.998 86.6865 81.7344C88.0329 81.1701 89.2251 80.2915 90.5734 79.7428C90.7081 79.6881 90.8797 79.8033 90.911 79.9341C90.9597 80.1333 90.9949 80.3344 91.0222 80.5375C91.151 81.4786 91.1295 82.4315 91.19 83.3785C91.2407 84.1771 91.3071 85.1357 91.8144 85.7977C92.3861 86.5416 93.4067 86.4518 94.2204 86.2448C95.4439 85.9324 96.759 85.3584 97.6331 84.4153C98.9522 82.9919 98.4897 81.0354 97.8009 79.4264C96.9697 77.4836 95.7736 75.7185 94.9736 73.7621C94.3258 72.1766 94.0175 70.3314 95.3327 68.9939C95.4478 68.8768 95.6058 68.9022 95.7209 68.9939C95.9473 69.1697 96.1248 69.402 96.2751 69.6441C97.0575 70.8957 97.2878 72.4187 97.8791 73.7582C98.0781 74.2092 98.32 74.7481 98.8352 74.8828C99.284 75 99.7991 75.0684 100.232 74.8614C101.06 74.465 101.171 73.2837 101.212 72.4871C101.274 71.2667 101.142 70.0425 101.044 68.828C100.968 67.8966 100.8 66.8149 101.075 65.8991C101.222 65.411 101.608 64.9892 101.975 64.6514C102.455 64.2102 103.013 63.8684 103.614 63.6205C104.765 63.146 106.131 63.0112 107.298 63.5013C108.631 64.0617 109.257 65.3192 109.399 66.6996C109.534 68.0059 108.648 68.9256 107.842 69.8335C107.399 70.3314 106.958 70.8508 106.691 71.4678C106.404 72.1278 106.4 72.8248 106.574 73.5082C106.681 73.5414 106.789 73.5688 106.898 73.5903C109.099 74.0413 111.602 73.7835 113.597 74.9902C114.533 75.5565 115.017 76.48 114.836 77.5754C114.604 78.9696 113.548 80.2544 112.038 80.0708C110.642 79.899 109.507 78.95 108.18 78.5673C107.552 78.3857 106.968 78.4639 106.426 78.8485C105.768 79.3171 105.263 80.186 105.518 81.0041C105.639 81.3868 105.909 81.6465 106.186 81.914C106.978 82.0995 107.752 82.3592 108.512 82.6599C109.671 82.7068 110.83 82.5896 111.987 82.5642C113.017 82.5427 114.239 82.5291 115.14 83.109C116.137 83.7514 116.213 84.9385 116.02 86.0085C115.993 86.1628 115.817 86.2292 115.682 86.1999C114.976 86.0554 114.297 85.7977 113.634 85.5243C111.891 84.8058 110.213 83.9349 108.461 83.2378C108.453 83.2378 108.437 83.232 108.42 83.2262Z" fill="#7A7165"/>
<path opacity="0.41" d="M115.431 84.2509C115.06 83.3664 113.971 83.1907 113.124 83.138C112.022 83.0696 110.918 83.1692 109.813 83.2121C110.221 83.3937 110.625 83.5773 111.027 83.7608C112.484 84.4286 113.967 85.2233 115.538 85.6041C115.601 85.1511 115.608 84.6727 115.431 84.2509Z" fill="#7A7165"/>
<path opacity="0.41" d="M82.8133 11.3872C83.7655 11.8734 84.8484 12.0394 85.7968 12.5431C86.9441 13.1523 87.7832 14.361 88.0974 15.6145C88.3335 16.5576 87.9998 17.3542 87.7071 18.2349C87.2876 19.5021 87.2857 20.8845 87.8827 22.099C88.4193 23.1885 89.3266 24.0555 89.7168 25.2231C90.0525 26.2287 90.1735 27.4744 89.953 28.517C89.6369 30.0205 88.3919 30.6531 87.0182 30.9929C85.8728 31.276 84.3489 31.4478 83.822 32.6838C83.4454 33.5644 83.5957 34.6696 83.7557 35.5814C83.8708 36.2433 84.0524 37.0732 84.6007 37.5262C85.51 38.274 86.8738 37.2255 87.5919 36.6202C88.9422 35.4819 90.0779 34.078 91.1102 32.6526C91.8751 31.5943 92.6848 30.4755 93.2058 29.2688C93.2565 29.1536 93.4087 29.1223 93.516 29.1419C95.0029 29.4269 95.9103 30.7371 96.6284 31.9575C96.9484 32.5042 97.2469 33.0646 97.602 33.5898C97.8693 33.9862 98.1991 34.4216 98.6537 34.6129C99.1318 34.8141 99.6372 34.6364 100.059 34.3865C100.863 33.912 101.62 33.168 102.074 32.3558C103.054 30.6024 102.186 28.6791 101.247 27.1151C100.277 25.4984 98.9699 23.9774 98.4079 22.1517C98.3611 21.9994 98.4644 21.8647 98.5991 21.8139C99.122 21.6167 99.6587 21.4683 100.213 21.3941C102.084 21.1442 103.711 21.9487 104.991 23.2725C106.234 24.5592 107.115 26.133 108.277 27.4841C108.761 28.0465 109.308 28.5873 109.985 28.9076C110.674 29.2317 111.38 29.1966 112.102 29.0208C113.382 28.7104 114.563 28.027 115.128 26.791C115.685 25.5765 115.581 24.1336 115.327 22.8585C114.978 21.113 114.307 19.4357 113.548 17.8307C113.232 17.1629 112.894 16.5068 112.547 15.8547C111.803 15.4486 111.06 15.0405 110.317 14.6343C108.568 13.414 106.039 11.807 102.802 10.2899C98.8002 8.41346 93.717 6.67566 87.6915 5.9786C85.7773 5.75796 83.9215 5.66232 82.1244 5.66427C81.5 6.42382 81.0512 7.31419 81.0219 8.32366C80.9907 9.63774 81.6425 10.7898 82.8133 11.3872Z" fill="#7A7165"/>
<path opacity="0.7" d="M113.489 16.3679C114.453 18.998 115.089 21.7569 115.476 24.5198C116.184 29.5594 116.133 34.6907 115.595 39.7439C115.066 44.6898 114.077 49.5966 112.615 54.353C111.273 58.719 109.614 63.1962 106.703 66.7791C105.481 68.2826 104.01 69.5928 102.307 70.5241C100.654 71.4262 98.8314 71.9417 96.966 72.1565C94.8664 72.3986 92.7414 72.2599 90.6555 71.9612C88.1774 71.6058 85.6446 71.0904 83.2874 70.2313C78.7156 68.5638 75.0121 65.3655 72.3115 61.3549C70.9319 59.3067 69.8099 57.0925 68.8518 54.8197C67.7533 52.213 66.7602 49.5146 66.1397 46.7537C65.4313 43.6081 65.1229 40.3883 64.8224 37.1842C64.6702 35.5655 64.5239 33.9448 64.3327 32.33C64.1395 30.7016 63.9405 29.0459 63.5347 27.4545C62.1727 22.1319 59.238 17.4457 56.0125 13.0563C55.7803 13.1969 55.5657 13.3297 55.3725 13.4508C56.5101 15.788 58.0438 19.4569 58.9336 24.1313C61.6322 38.3225 55.349 45.6583 57.351 56.9675C58.715 64.684 63.1171 69.6397 68.0246 75.1674C85.3286 94.6598 111.839 96.6182 119.417 96.9267C123.375 73.3202 127.328 49.7176 131.279 26.1111C125.351 22.8621 119.419 19.613 113.489 16.3679Z" fill="url(#paint19_linear_4172_276541)"/>
<path d="M275.98 82.2857C274.123 83.59 271.654 85.2457 268.659 87.0323C267.373 87.8016 265.988 88.5944 264.515 89.4027C240.104 102.702 216.661 104.297 206.399 104.439C196.032 104.582 190.608 103.373 186.36 102.13C180.682 100.474 177.093 98.7575 166.599 100.128C155.028 101.636 142.981 105.865 127.111 101.388C123.856 100.47 121.257 99.4135 119.548 98.654C117.218 72.5228 117.663 56.6719 119.025 46.2804C119.548 42.2601 121.052 32.6281 116.254 22.9434C114.369 19.132 112.037 16.3866 110.324 14.6332C114.986 11.9934 119.526 9.82601 123.889 8.04918C131.909 4.77669 139.324 2.82414 145.732 1.66432C152.564 0.42054 158.259 0.0807919 162.338 0.0144048C211.851 -0.815434 244.188 34.4576 250.674 41.5356C264.63 56.7539 272.066 72.3022 275.98 82.2857Z" fill="#B58D57"/>
<path opacity="0.7" d="M275.98 82.2857C274.123 83.59 271.654 85.2457 268.659 87.0323C267.373 87.8016 265.988 88.5944 264.515 89.4027C240.104 102.702 216.661 104.297 206.399 104.439C196.032 104.582 190.608 103.373 186.36 102.13C180.682 100.474 177.093 98.7575 166.599 100.128C155.028 101.636 142.981 105.865 127.111 101.388C123.856 100.47 121.257 99.4135 119.548 98.654C117.218 72.5228 117.663 56.6719 119.025 46.2804C119.548 42.2601 121.052 32.6281 116.254 22.9434C114.369 19.132 112.037 16.3866 110.324 14.6332C114.986 11.9934 119.526 9.82601 123.889 8.04918C131.909 4.77669 139.324 2.82414 145.732 1.66432C152.564 0.42054 158.259 0.0807919 162.338 0.0144048C211.851 -0.815434 244.188 34.4576 250.674 41.5356C264.63 56.7539 272.066 72.3022 275.98 82.2857Z" fill="url(#paint20_linear_4172_276541)"/>
<path opacity="0.7" d="M275.98 82.2857C274.123 83.59 271.654 85.2457 268.659 87.0323C267.373 87.8016 265.988 88.5944 264.514 89.4027C255.983 94.0498 247.568 97.2735 239.79 99.4955C225.323 103.637 213.071 104.348 206.398 104.439C196.03 104.582 190.606 103.373 186.358 102.13C180.68 100.474 177.091 98.7575 166.597 100.128C163.639 100.513 160.656 101.075 157.582 101.624C148.622 103.231 138.926 104.721 127.109 101.388C123.854 100.47 121.255 99.4135 119.546 98.654C117.216 72.5228 117.661 56.6719 119.023 46.2804C119.546 42.2601 121.05 32.6281 116.252 22.9434C114.367 19.132 112.036 16.3866 110.322 14.6332C114.984 11.9934 119.524 9.82601 123.888 8.04918C124.97 7.60985 126.036 7.19205 127.092 6.80154C133.886 4.26516 140.185 2.66989 145.73 1.66432C148.725 1.11956 151.502 0.746588 154.019 0.498613C157.247 0.174487 160.043 0.053456 162.336 0.0144048C211.849 -0.815434 244.186 34.4576 250.672 41.5356C264.63 56.7539 272.066 72.3022 275.98 82.2857Z" fill="url(#paint21_linear_4172_276541)"/>
<path opacity="0.41" d="M243.216 84.0854C243.134 81.9747 242.883 79.8425 242.276 77.8138C241.819 76.283 241.089 74.4398 239.567 73.6822C237.616 72.7118 235.033 73.6392 233.13 74.2953C231.216 74.9533 229.274 75.9413 227.245 76.1678C227.155 76.1775 227.048 76.1092 227.007 76.0311C226.082 74.2406 226.24 72.415 226.8 70.5425C227.302 68.8691 227.955 67.1879 227.735 65.4072C227.588 64.224 227.069 63.1774 226.404 62.2031C225.905 61.4728 225.261 60.6039 224.398 60.2759C223.065 59.7682 222.123 61.3166 221.602 62.2948C220.81 63.7827 220.295 65.4033 219.731 66.9868C219.651 67.2114 219.362 67.2582 219.229 67.0532C218.298 65.6142 218.008 63.8666 217.155 62.3866C216.351 60.9905 215.145 60.3559 213.555 60.4614C211.565 60.5942 207.65 62.0957 208.364 64.7453C208.683 65.9266 209.832 66.6725 210.841 67.225C212.086 67.9065 213.416 68.4161 214.698 69.0253C215.859 69.5759 217.087 70.2125 217.932 71.2103C218.897 72.3466 219.387 74.0102 219.584 75.4609C220.035 78.7939 218.827 82.1778 216.371 84.4701C216.3 84.5345 216.197 84.5716 216.103 84.5404C215.132 84.2202 214.226 83.7359 213.485 83.0252C212.062 81.6623 211.453 79.7156 210.96 77.8626C210.419 75.8339 209.978 73.7193 208.817 71.9327C207.414 69.7771 205.01 68.5841 202.516 68.1974C199.894 67.7913 196.704 68.1389 194.555 69.8278C193.498 70.6596 193.025 71.7706 192.754 73.0613C192.411 74.6936 192.409 76.3845 192.475 78.0442C192.6 81.2367 193.203 84.5209 192.647 87.6977C192.26 89.906 191.228 93.0106 188.844 93.7975C187.87 94.1197 186.865 93.8307 186.071 93.2215C185.568 92.8368 185.154 92.3565 184.787 91.841C184.346 91.2201 183.847 90.5191 183.835 89.7342C183.823 88.9747 184.089 88.2346 183.981 87.4751C183.864 86.655 183.21 85.8115 182.479 85.4054C181.675 84.9621 181.066 86.0126 180.549 86.4812C178.83 88.0394 175.987 87.9085 174.201 86.489C172.677 85.2804 172.264 83.1658 173.255 81.4827C174.172 79.9245 175.733 79.1962 177.466 79.0791C179.103 78.9678 180.746 79.1259 182.383 79.1142C183.671 79.1044 185.406 79.1142 186.413 78.1633C187.71 76.9371 186.772 74.6663 186.171 73.3444C184.92 70.5854 182.044 68.3497 178.935 68.2599C177.528 68.2189 176.248 68.6758 175.528 69.9274C174.941 70.9486 174.617 72.1377 173.772 72.9948C172.502 74.2855 170.01 74.4906 168.623 73.28C167.349 72.167 166.945 70.2749 166.543 68.7129C166.207 67.4066 165.92 65.4697 164.749 64.5852C163.553 65.7196 162.944 67.1509 162.845 68.8086C162.759 70.2515 162.97 71.6906 162.919 73.1335C162.878 74.2953 162.632 75.4532 161.93 76.4021C161.374 77.1538 160.5 77.6146 159.639 77.929C157.793 78.6046 155.089 78.8096 153.789 77.023C153.169 76.1697 153.463 75.3906 153.881 74.5198C154.109 74.0434 154.376 73.5104 154.246 72.9675C154.115 72.4267 153.68 72.0362 153.172 71.8565C152.095 71.4758 150.829 71.55 149.711 71.6457C148.743 71.7296 147.734 71.8683 146.805 72.1865C146.993 73.1374 147.317 74.0531 147.726 74.9318C149.59 78.9287 153.079 82.5897 153.317 87.1861C153.42 89.1679 152.772 91.14 151.28 92.4912C150.121 93.5397 148.368 94.1099 147.143 92.8348C146.565 92.2335 146.089 91.3021 146.087 90.4547C146.085 89.6424 146.452 88.8751 146.78 88.1507C147.04 87.5805 147.531 86.7487 147.283 86.0985C146.954 85.2336 145.385 84.9816 144.596 85.1261C142.95 85.4268 142.37 87.4634 141.796 88.7833C141.496 89.4784 141.176 90.0114 140.593 90.5015C140.031 90.974 139.437 91.4349 138.778 91.7629C138.007 92.1456 137.078 92.3272 136.393 91.6809C135.72 91.0443 135.49 89.9958 135.301 89.127C134.782 86.7565 134.705 83.814 133.045 81.8868C132.428 81.1702 131.297 80.4497 130.301 80.6313C129.626 80.7543 129.42 81.4924 129.347 82.0841C129.215 83.1931 129.414 84.3471 129.646 85.4288C129.964 86.9147 130.422 88.3693 130.945 89.7947C132.12 93.0047 133.628 96.1308 135.488 99.001C136.298 100.253 137.184 101.471 138.229 102.537C138.493 102.807 138.772 103.074 139.071 103.324C145.787 103.631 151.84 102.656 157.584 101.625C160.657 101.075 163.641 100.514 166.599 100.13C177.093 98.7609 180.682 100.475 186.36 102.131C190.608 103.375 196.034 104.583 206.399 104.441C207.397 104.427 208.52 104.398 209.756 104.347C208.926 104.066 208.144 103.672 207.498 103.062C207.151 102.734 206.716 102.307 206.579 101.836C206.456 101.414 206.466 100.94 206.472 100.506C206.491 99.1924 206.671 97.8764 206.889 96.5838C207.096 95.3556 207.322 94.0825 207.783 92.9208C208.427 91.2982 210.242 90.8393 211.836 90.9584C214.117 91.1264 216.322 92.0402 218.437 92.8466C220.689 93.7057 222.976 94.6762 225.374 95.0452C227.296 95.342 229.313 95.0588 230.4 93.2664C230.673 92.8173 230.997 92.2628 230.898 91.72C230.785 91.101 230.353 90.5465 230.022 90.0291C229.343 88.9727 228.669 87.7504 229.304 86.5066C230.547 84.0718 233.755 85.3839 235.602 86.2137C236.999 86.8405 238.342 87.5746 239.704 88.2717C240.717 88.7891 241.77 89.3613 242.886 89.6327C243.285 87.8305 243.286 85.913 243.216 84.0854Z" fill="#7A7165"/>
<path opacity="0.41" d="M270.304 73.9779C270.117 73.314 269.74 72.7146 269.373 72.1367C268.636 70.9788 267.769 69.7916 267.658 68.3741C267.596 67.5716 267.937 66.8413 268.396 66.1677C264.153 58.5253 258.419 49.9789 250.674 41.5322C245.782 36.1919 226.178 14.8133 195.589 4.98602C195.572 4.99383 195.552 5.00164 195.535 5.0114C194.504 5.50931 193.488 6.31572 193.32 7.52045C193.023 9.63117 195.115 11.5154 196.885 12.2164C198.655 12.9173 200.667 12.9681 202.534 13.1966C204.737 13.466 207.112 13.716 209.129 14.7098C209.847 15.0632 210.556 15.5748 210.883 16.3304C211.2 17.0626 211.061 17.8066 210.554 18.4119C209.984 19.0933 209.123 19.4994 208.312 19.8099C207.233 20.2238 206.091 20.4796 204.954 20.6749C202.784 21.0459 200.54 21.2391 198.339 21.1435C195.808 21.0341 193.63 19.8275 191.275 19.0503C190.397 18.7614 189.308 18.4705 188.473 19.0309C188.013 19.3394 187.714 19.845 187.501 20.3449C187.267 20.8935 187.08 21.4579 187.127 22.0573C187.22 23.2366 187.671 24.4257 188.13 25.5035C188.623 26.6653 189.215 27.8603 190.042 28.8249C190.358 29.1939 190.701 29.5259 191.179 29.6586C191.796 29.8285 192.434 29.6996 193.021 29.479C194.352 28.9791 195.478 28.0517 196.743 27.419C197.925 26.8255 199.187 26.6224 200.466 27.0715C201.41 27.4034 201.97 28.1434 201.974 29.151C201.978 30.1721 201.57 31.166 201.252 32.1208C201.11 32.5484 201.008 32.9741 200.899 33.4095C200.817 33.7356 200.524 33.8859 200.288 34.1046C199.874 34.4892 199.66 34.9462 199.804 35.5163C199.945 36.0748 200.253 36.7054 200.776 36.9905C201.73 37.5138 203.037 37.0491 203.982 36.7327C204.995 36.393 206.037 35.8737 207.116 35.7956C207.769 35.7487 208.478 36.0416 209.075 36.2817C209.6 36.4926 210.14 36.7582 210.536 37.1741C212.167 38.8904 209.332 40.6554 208.021 41.2861C206.801 41.8719 205.49 42.2936 204.155 42.5123C202.854 42.7251 201.545 42.6959 200.231 42.6412C199.191 42.5982 198.075 42.5417 197.143 43.0845C195.98 43.762 195.185 45.1971 194.811 46.4487C194.393 47.8448 194.37 49.485 194.99 50.8264C195.556 52.0526 196.721 52.7106 198.001 52.9937C200.507 53.5482 203.022 52.3084 205.036 50.9279C207.293 49.3776 209.25 47.4211 211.122 45.4334C211.871 44.6367 212.603 43.8245 213.356 43.0317C214.304 42.0301 215.336 40.9659 216.589 40.347C217.358 39.9682 218.285 39.8217 218.936 40.4973C219.627 41.2139 219.787 42.3601 219.9 43.3032C219.982 44.0002 220.017 44.7012 220.033 45.4021C220.049 46.0992 220.117 46.7884 219.82 47.4367C219.539 48.0478 218.973 48.6336 218.901 49.3248C218.856 49.7466 219.145 50.1078 219.395 50.4183C219.631 50.7092 219.92 50.9884 220.273 51.1309C221.5 51.621 222.657 50.2016 223.282 49.3444C223.549 48.9773 223.875 48.5595 224.051 48.1494C224.168 47.8761 224.22 47.5636 224.273 47.2727C224.619 45.3963 224.71 43.4808 225.251 41.6415C225.713 40.0599 226.654 38.2206 228.56 38.287C229.68 38.3261 230.711 38.8376 231.089 39.9428C231.434 40.9484 231.298 42.1296 230.974 43.1547C232.016 42.8638 233.122 42.7173 234.194 42.8423C235.161 42.9556 236.131 43.3148 236.742 44.1134C237.316 44.8613 237.632 46.1246 237.239 47.0189C236.925 47.7354 236.176 48.0869 235.563 48.5087C234.656 49.1315 234.312 49.9614 234.4 51.0587C234.408 51.1524 234.373 51.2188 234.32 51.2638C234.316 51.3204 234.314 51.377 234.313 51.4317C234.219 53.1929 234.108 54.9814 234.359 56.7367C234.599 58.412 235.218 60.351 236.646 61.3936C237.589 62.0809 238.898 62.1102 239.77 62.8834C240.672 63.684 240.871 65.0527 240.98 66.1833C241.103 67.4563 240.988 68.8016 241.286 70.0513C241.429 70.6468 241.856 71.0959 242.404 71.3693C242.916 71.6251 243.413 71.5079 243.88 71.217C244.957 70.5414 245.708 69.448 246.877 68.8954C247.499 68.6006 248.204 68.4307 248.857 68.2198C249.361 68.0577 249.88 67.9015 250.411 67.88C251.572 67.8332 252.418 68.6474 253.088 69.5046C253.556 70.104 254.028 70.7347 254.376 71.4142C254.58 71.8144 254.77 72.2694 254.752 72.7302C254.721 73.5015 254.083 73.9037 253.435 74.1634C252.612 74.4914 251.734 74.6711 250.959 75.1143C248.754 76.3718 249.488 78.998 250.674 80.7299C251.384 81.7687 252.323 82.6863 253.4 83.3404C254.303 83.8891 255.427 84.3304 256.501 84.0941C258.782 83.5923 259.166 80.4838 259.279 78.5937C259.353 77.348 259.32 76.0984 259.279 74.8527C259.248 73.9096 259.18 72.9489 259.279 72.0097C259.301 71.8067 259.498 71.6602 259.693 71.7715C260.92 72.4744 261.642 73.6108 262.183 74.8839C262.63 75.9344 262.977 77.1293 263.956 77.8127C266.115 79.324 269.305 78.5957 270.173 75.9773C270.38 75.3212 270.493 74.6496 270.304 73.9779Z" fill="#7A7165"/>
<path opacity="0.41" d="M191.484 58.9555C191.343 58.1549 190.895 57.4676 190.303 56.9228C190.054 56.6944 189.855 56.5499 189.517 56.5031C189.177 56.4542 188.824 56.4718 188.483 56.4933C187.581 56.546 186.686 56.6807 185.784 56.7471C184.998 56.8038 184.12 56.8584 183.366 56.5734C182.662 56.3059 182.321 55.724 182.338 54.9761C182.358 54.2029 182.84 53.6406 183.515 53.3165C184.209 52.9826 184.972 52.8537 185.7 52.6155C185.985 52.5218 186.29 52.4144 186.52 52.2152C186.693 52.0649 186.768 51.8228 186.861 51.6158C186.961 51.3971 187.052 51.1765 187.136 50.95C187.314 50.4638 187.575 49.7277 187.355 49.2415C187.211 48.9213 186.855 48.8529 186.479 48.8607C185.888 48.8744 185.298 49.0638 184.746 49.261C184.063 49.505 183.402 49.8058 182.75 50.126C181.649 50.6669 180.586 51.278 179.523 51.8872C179.413 51.9497 179.281 51.9282 179.189 51.8443C178.742 51.4264 178.338 50.9636 177.989 50.4599C176.738 48.6538 176.287 46.3282 176.834 44.1941C177.085 43.208 177.552 42.2786 178.215 41.5054C178.877 40.7322 179.716 40.2226 180.629 39.795C181.495 39.3908 182.406 39.1018 183.32 38.8245C184.087 38.5922 184.887 38.3852 185.597 38.0084C186.104 37.7389 186.567 37.3504 186.609 36.7392C186.674 35.8 186.034 34.8433 185.536 34.1072C184.929 33.207 184.299 32.342 183.407 31.7055C182.711 31.2076 181.934 30.8522 181.134 30.5613C179.731 30.0497 178.164 29.7041 177.052 28.638C175.552 27.201 175.46 24.893 175.474 22.9502C175.489 20.8669 175.895 18.7542 177.015 16.9715C178.695 14.2945 181.577 12.754 184.43 11.4457C184.268 11.4672 184.106 11.4809 183.946 11.5121C183.601 11.5785 183.452 11.0494 183.8 10.981C184.488 10.8482 185.193 10.8131 185.897 10.7818C186.176 10.6569 186.453 10.5339 186.725 10.4089C186.957 10.3035 187.164 10.5221 187.14 10.7076C187.23 10.6998 187.32 10.6979 187.408 10.6881C187.96 10.6315 188.545 10.5593 189.062 10.3425C189.47 10.1727 189.642 9.9227 189.774 9.51267C190.713 6.61897 185.757 6.48425 184.046 6.45887C182.405 6.43544 180.756 6.54868 179.128 6.76151C178.543 6.83766 177.958 6.92945 177.38 7.05051C177.183 7.09151 176.984 7.13643 176.791 7.19501C176.756 7.20477 176.72 7.21839 176.687 7.23011C176.808 8.14781 176.886 9.07143 176.894 9.9989C176.906 11.1665 176.828 12.3634 176.519 13.4939C176.383 13.9938 176.196 14.4898 175.928 14.9349C175.618 15.4485 175.2 15.8156 174.713 16.1592C173.952 16.6942 172.974 17.1511 172.032 16.8407C171.261 16.5868 170.718 15.9405 170.242 15.3177C169.729 14.646 169.261 13.902 168.593 13.367C168.189 13.0429 167.588 12.8672 167.101 12.7051C166.591 12.5353 166.064 12.4025 165.53 12.3419C164.622 12.2385 163.657 12.3185 162.874 12.8262C162.023 13.3768 161.617 14.3531 161.477 15.3235C161.219 17.0984 161.764 18.8499 162.254 20.5349C162.648 21.89 163.206 23.4501 162.878 24.8755C162.519 26.4453 160.913 26.9452 159.489 27.0779C158.193 27.199 156.856 27.1092 155.58 26.8592C154.689 26.6835 153.766 26.4043 153.046 25.8302C151.957 24.9633 151.871 23.6278 152.084 22.3488C152.318 20.943 152.852 19.5743 152.852 18.1352C152.852 17.4596 152.706 16.7957 152.337 16.2236C151.871 15.4973 151.09 14.9779 150.325 14.6109C149.697 14.3082 148.952 14.1344 148.284 14.4195C147.693 14.6733 147.268 15.2103 146.94 15.7453C146.103 17.116 145.687 18.7054 145.082 20.1815C144.809 20.8473 144.515 21.521 144.07 22.0931C143.596 22.7023 142.893 23.1747 142.245 23.5828C141.311 24.1725 140.142 24.6841 139.022 24.3717C138.087 24.1101 137.435 23.3251 136.981 22.5089C135.845 20.4685 135.511 18.0864 134.692 15.919C134.403 15.1536 134.005 14.2281 133.342 13.7986C133.041 13.6033 132.748 13.5369 132.376 13.5857C132.013 13.6345 131.617 13.8279 131.267 14.0446C132.208 16.3701 133.593 18.4984 134.877 20.6443C136.227 22.8995 137.601 25.2328 138.294 27.7887C138.883 29.9619 138.93 32.4924 137.554 34.3903C136.323 36.089 134.358 37.0848 132.92 38.5883C131.755 39.8067 130.842 41.3004 129.985 42.7434C128.949 44.4928 128.024 46.3165 127.291 48.2125C126.58 50.0479 126.005 51.9926 125.907 53.9706C125.825 55.6342 126.112 57.4012 127.216 58.7095C127.81 59.4143 128.582 59.9415 129.423 60.3086C130.14 60.6191 130.953 60.8045 131.724 60.5976C133.183 60.2051 133.941 58.6216 134.385 57.3095C134.926 55.7181 135.176 54.037 135.344 52.3695C135.494 50.8797 135.486 49.3899 135.599 47.9001C135.71 46.4356 135.956 44.6822 137.146 43.6727C137.779 43.1377 138.585 42.9132 139.402 42.9015C140.417 42.8859 141.59 43.0596 142.495 43.538C143.17 43.8953 143.656 44.5006 143.791 45.2582C143.925 46.0197 143.773 46.8027 143.588 47.5428C143.387 48.3414 143.117 49.1224 142.952 49.9288C142.764 50.8367 142.663 51.7759 142.61 52.6995C142.507 54.5134 142.563 56.7296 143.75 58.2213C144.314 58.9321 145.151 59.3636 146.054 59.4417C146.924 59.5178 148.148 59.4065 148.827 58.7817C149.33 58.317 149.385 57.6219 149.321 56.9776C149.242 56.1848 148.991 55.4096 148.764 54.6501C148.521 53.8261 148.308 53.0236 148.214 52.1684C148.111 51.2409 148.05 50.3095 148.04 49.3762C148.021 47.4471 148.199 45.434 148.928 43.6317C149.611 41.9467 150.817 40.5486 152.573 39.9531C153.59 39.6075 154.788 39.4747 155.855 39.5841C156.521 39.6524 157.235 39.8535 157.617 40.451C157.957 40.9841 157.928 41.6538 157.838 42.2532C157.725 43.0089 157.491 43.7431 157.286 44.4772C157.02 45.4301 156.79 46.4005 156.595 47.3709C156.388 48.398 156.265 49.4485 156.31 50.497C156.371 51.9399 156.806 53.5273 158.115 54.322C159.553 55.1948 161.417 54.8785 162.929 54.404C164.187 54.0116 165.345 53.3985 166.545 52.8654C167.596 52.3988 168.673 51.9614 169.791 51.6842C171.099 51.36 172.57 51.2565 173.715 52.0922C174.798 52.883 175.417 54.1795 176.022 55.3373C176.935 57.0849 177.878 58.809 179.099 60.3652C180.537 62.1967 182.33 63.7861 184.709 64.1512C186.465 64.4207 188.34 63.9326 189.72 62.8059C190.85 61.8941 191.747 60.457 191.484 58.9555Z" fill="#7A7165"/>
<path opacity="0.41" d="M136.606 4.25745C137.697 5.46999 138.757 6.72155 139.964 7.82084C141.01 8.77369 142.224 9.6641 143.644 9.92184C145.11 10.1874 146.802 9.62701 147.74 8.45938C148.273 7.79551 148.622 7.00467 149.092 6.29784C149.619 5.50706 150.281 4.8569 151.13 4.41953C151.301 4.33166 151.465 4.41559 151.534 4.58351C152.107 5.98741 153.058 7.20387 153.969 8.40665C154.363 7.9146 154.65 7.32296 154.95 6.78015C155.319 6.11627 155.694 5.42315 156.224 4.87448C156.985 4.08955 158.424 3.7986 159.382 4.38437C160.234 4.90571 160.705 5.84878 161.725 6.11628C162.32 6.27249 162.991 6.26856 163.604 6.23927C164.108 6.21584 164.666 6.15536 165.118 5.90933C166.379 5.22398 164.806 3.6346 164.234 3.05664C164.069 2.88872 164.19 2.58603 164.43 2.58799C166.381 2.5958 168.322 2.98045 170.27 3.07613C171.921 3.15814 173.977 3.23237 175.396 2.2307C175.958 1.83433 176.362 1.33834 176.635 0.785763C172.045 0.213662 167.278 -0.0694377 162.336 0.0145225C160.043 0.0535738 157.247 0.174605 154.019 0.49873C151.502 0.746706 148.726 1.11968 145.73 1.66444C142.768 2.2014 139.584 2.91603 136.23 3.8435C136.358 3.98017 136.483 4.11882 136.606 4.25745Z" fill="#7A7165"/>
<path opacity="0.7" d="M149.857 97.3456C145.457 95.9046 141.11 94.0984 137.297 91.4351C135.687 90.3105 134.126 89.0745 132.932 87.5007C131.884 86.1203 131.103 84.5563 130.499 82.9376C129.113 79.2199 128.619 75.1996 128.37 71.2613C128.093 66.8837 128.165 62.4943 128.241 58.1108C128.311 54.0787 128.43 50.0291 128.157 46.0029C127.882 41.9768 126.809 38.0794 125.665 34.2231C124.239 29.4178 122.496 24.679 120.192 20.2213C118.721 17.3764 116.998 14.6116 114.908 12.1689C113.394 12.9422 111.866 13.7583 110.324 14.6331C112.039 16.3884 114.369 19.1318 116.254 22.9432C121.052 32.6299 119.546 42.2599 119.025 46.2802C117.661 56.6698 117.216 72.5226 119.548 98.6538C121.257 99.4133 123.856 100.47 127.111 101.387C138.928 104.72 148.624 103.231 157.584 101.624C159.202 101.335 160.794 101.044 162.371 100.774C158.174 99.7257 153.969 98.6909 149.857 97.3456Z" fill="url(#paint22_linear_4172_276541)"/>
<path d="M239.79 99.4953C225.323 103.637 213.071 104.347 206.398 104.439C196.03 104.582 190.606 103.373 186.358 102.129C180.68 100.474 177.091 98.7573 166.597 100.128C163.639 100.513 160.656 101.075 157.582 101.624C161.561 86.7724 163.013 70.0038 157.994 53.0907C151.514 31.2338 136.388 16.4099 127.092 6.80133C133.886 4.26495 140.185 2.66969 145.73 1.66412C148.726 1.11935 151.502 0.746382 154.019 0.498407C161.149 3.50731 168.625 7.34021 175.665 11.8291C210.378 33.9614 229.325 68.8713 239.79 99.4953Z" fill="url(#paint23_linear_4172_276541)"/>
<path d="M134.944 73.0358C134.68 75.2383 167.891 86.9614 205.767 80.6058C231.479 76.2907 251.016 65.042 263.373 56.2535C249.816 61.418 229.487 67.9474 204.148 71.3995C163.302 76.9662 135.186 71.0266 134.944 73.0358Z" fill="url(#paint24_linear_4172_276541)"/>
<path d="M134.118 79.4895C133.546 81.8229 167.583 100.48 206.056 92.8217C224.08 89.2328 237.747 80.9305 246.629 74.2098C236.623 77.6229 222.166 81.6881 204.434 83.6153C162.738 88.1472 134.627 77.4062 134.118 79.4895Z" fill="url(#paint25_linear_4172_276541)"/>
<path d="M212.011 25.6553C211.941 26.7956 195.935 23.9156 172.25 28.7755C150.985 33.1395 138.064 40.7603 137.556 39.6981C137.032 38.595 150.097 28.5705 167.961 24.0952C191.082 18.3039 212.093 24.3451 212.011 25.6553Z" fill="url(#paint26_linear_4172_276541)"/>
<path d="M168.141 19.1257C168.031 18.2939 159.022 17.673 149.843 20.8244C142.068 23.4935 136.085 28.2149 136.45 28.9412C136.785 29.6051 142.329 26.7133 154.37 23.0894C163.984 20.1957 168.217 19.7017 168.141 19.1257Z" fill="url(#paint27_linear_4172_276541)"/>
<path d="M99.8087 40.9633C94.6144 59.7021 83.7477 74.6412 81.131 73.5907C78.1631 72.3977 89.2386 51.9367 83.9838 26.7077C82.2959 18.6162 79.2852 11.714 76.0129 6.04958C79.5915 5.59268 83.5096 5.49501 87.699 5.9773C93.7226 6.67631 98.8077 8.41411 102.81 10.2886C103.43 19.243 102.919 29.7478 99.8087 40.9633Z" fill="url(#paint28_linear_4172_276541)"/>
<path d="M112.566 27.3832C112.947 26.8326 105.475 18.4014 94.3451 14.92C81.8237 11.0012 70.2194 15.0841 64.8124 17.4388C72.3795 15.6854 82.5926 14.5959 93.508 17.8508C104.87 21.2385 112.205 27.9046 112.566 27.3832Z" fill="url(#paint29_linear_4172_276541)"/>
<path d="M98.5286 25.2474C98.6866 24.8745 93.4142 21.3774 86.3974 19.8056C77.8605 17.894 70.3482 19.6416 70.3618 20.0848C70.3755 20.4909 76.7288 19.667 86.1183 21.6195C93.7517 23.207 98.3842 25.5871 98.5286 25.2474Z" fill="url(#paint30_linear_4172_276541)"/>
<path d="M49.1029 25.3361C48.1897 33.5857 46.0803 41.1714 45.0246 41.0621C43.8929 40.941 45.3486 32.1017 42.369 21.4603C40.9563 16.4227 38.8957 12.1875 36.8117 8.7881C38.5054 8.66704 40.3845 8.66708 42.4119 8.89357C45.0617 9.18451 47.3974 9.80148 49.3877 10.522C49.7078 14.9894 49.6961 19.9724 49.1029 25.3361Z" fill="url(#paint31_linear_4172_276541)"/>
<path d="M25.0769 11.6845C25.0223 17.2064 24.3569 24.1419 23.3228 24.1868C22.554 24.22 22.6846 20.3695 20.3938 15.0078C18.8777 11.4541 17.1391 9.20479 15.8161 7.47286C17.3108 7.27565 18.9987 7.20339 20.829 7.35178C22.3744 7.4787 23.7754 7.74818 25.0281 8.08792C25.071 9.24384 25.0887 10.4427 25.0769 11.6845Z" fill="url(#paint32_linear_4172_276541)"/>
<path d="M54.0512 20.9975C54.2834 20.5718 51.2042 17.8871 47.2958 16.3953C41.198 14.0698 34.9579 15.3624 34.9345 15.9638C34.913 16.4851 39.5727 16.2782 47.2919 18.7442C51.5009 20.0876 53.8619 21.347 54.0512 20.9975Z" fill="url(#paint33_linear_4172_276541)"/>
<path d="M51.7529 24.4485C51.9227 24.101 49.5051 22.1914 46.4767 21.1136C42.0063 19.5242 37.5184 20.2154 37.4852 20.6644C37.4618 20.9944 39.854 21.0765 45.0698 22.5214C49.5207 23.7534 51.6027 24.7531 51.7529 24.4485Z" fill="url(#paint34_linear_4172_276541)"/>
<path d="M246.572 113.387C250.493 114.959 252.311 119.241 255.948 127.805C258.423 133.629 260.073 137.653 258.235 139.934C256.19 142.47 251.006 141.383 249.339 141.035C238.529 138.77 226.679 127.478 229.421 119.795C231.333 114.431 240.338 110.888 246.572 113.387Z" fill="url(#paint35_linear_4172_276541)"/>
<defs>
<linearGradient id="paint0_linear_4172_276541" x1="314.701" y1="129.553" x2="261.868" y2="131.765" gradientUnits="userSpaceOnUse">
<stop stop-color="#E5C498"/>
<stop offset="1" stop-color="#E5C498" stop-opacity="0"/>
</linearGradient>
<linearGradient id="paint1_linear_4172_276541" x1="334.375" y1="152.551" x2="241.694" y2="120.604" gradientUnits="userSpaceOnUse">
<stop stop-color="#E5C498"/>
<stop offset="1" stop-color="#E5C498" stop-opacity="0"/>
</linearGradient>
<radialGradient id="paint2_radial_4172_276541" cx="0" cy="0" r="1" gradientUnits="userSpaceOnUse" gradientTransform="translate(203.828 103.202) scale(155.771 155.873)">
<stop offset="0.2976" stop-color="#E5C498" stop-opacity="0"/>
<stop offset="1" stop-color="#E5C498"/>
</radialGradient>
<linearGradient id="paint3_linear_4172_276541" x1="152.193" y1="221.919" x2="186.032" y2="141.278" gradientUnits="userSpaceOnUse">
<stop stop-color="#E5C498"/>
<stop offset="1" stop-color="#E5C498" stop-opacity="0"/>
</linearGradient>
<linearGradient id="paint4_linear_4172_276541" x1="295.026" y1="145.248" x2="233.696" y2="159.438" gradientUnits="userSpaceOnUse">
<stop offset="0.0012" stop-color="#4F4942"/>
<stop offset="1" stop-color="#4F4942" stop-opacity="0"/>
</linearGradient>
<linearGradient id="paint5_linear_4172_276541" x1="250.016" y1="124.661" x2="190.428" y2="144.449" gradientUnits="userSpaceOnUse">
<stop offset="0.0012" stop-color="#4F4942"/>
<stop offset="1" stop-color="#4F4942" stop-opacity="0"/>
</linearGradient>
<linearGradient id="paint6_linear_4172_276541" x1="174.503" y1="27.8512" x2="184.954" y2="185.468" gradientUnits="userSpaceOnUse">
<stop offset="0.0012" stop-color="#4F4942"/>
<stop offset="1" stop-color="#4F4942" stop-opacity="0"/>
</linearGradient>
<linearGradient id="paint7_linear_4172_276541" x1="183.151" y1="181.511" x2="220.859" y2="130.387" gradientUnits="userSpaceOnUse">
<stop stop-color="#E5C498"/>
<stop offset="1" stop-color="#E5C498" stop-opacity="0"/>
</linearGradient>
<linearGradient id="paint8_linear_4172_276541" x1="186.535" y1="184.008" x2="224.244" y2="132.884" gradientUnits="userSpaceOnUse">
<stop stop-color="#E5C498"/>
<stop offset="1" stop-color="#E5C498" stop-opacity="0"/>
</linearGradient>
<linearGradient id="paint9_linear_4172_276541" x1="13.9358" y1="35.2267" x2="6.44976" y2="7.29683" gradientUnits="userSpaceOnUse">
<stop offset="0.0012" stop-color="#4F4942"/>
<stop offset="1" stop-color="#4F4942" stop-opacity="0"/>
</linearGradient>
<linearGradient id="paint10_linear_4172_276541" x1="4.68711" y1="24.2273" x2="13.9822" y2="5.83298" gradientUnits="userSpaceOnUse">
<stop offset="0.0012" stop-color="#4F4942"/>
<stop offset="1" stop-color="#4F4942" stop-opacity="0"/>
</linearGradient>
<linearGradient id="paint11_linear_4172_276541" x1="38.9151" y1="45.6322" x2="22.3893" y2="16.6712" gradientUnits="userSpaceOnUse">
<stop offset="0.0012" stop-color="#4F4942"/>
<stop offset="1" stop-color="#4F4942" stop-opacity="0"/>
</linearGradient>
<linearGradient id="paint12_linear_4172_276541" x1="-27.2793" y1="19.113" x2="21.3662" y2="21.7972" gradientUnits="userSpaceOnUse">
<stop offset="0.0012" stop-color="#4F4942"/>
<stop offset="1" stop-color="#4F4942" stop-opacity="0"/>
</linearGradient>
<linearGradient id="paint13_linear_4172_276541" x1="8.57383" y1="39.2574" x2="31.9415" y2="14.8017" gradientUnits="userSpaceOnUse">
<stop offset="0.0012" stop-color="#4F4942"/>
<stop offset="1" stop-color="#4F4942" stop-opacity="0"/>
</linearGradient>
<linearGradient id="paint14_linear_4172_276541" x1="71.3367" y1="73.5755" x2="45.3503" y2="26.0104" gradientUnits="userSpaceOnUse">
<stop offset="0.0012" stop-color="#4F4942"/>
<stop offset="1" stop-color="#4F4942" stop-opacity="0"/>
</linearGradient>
<linearGradient id="paint15_linear_4172_276541" x1="7.64765" y1="32.5285" x2="42.6677" y2="32.9476" gradientUnits="userSpaceOnUse">
<stop offset="0.0012" stop-color="#4F4942"/>
<stop offset="1" stop-color="#4F4942" stop-opacity="0"/>
</linearGradient>
<linearGradient id="paint16_linear_4172_276541" x1="17.3803" y1="67.8849" x2="61.3293" y2="20.2813" gradientUnits="userSpaceOnUse">
<stop offset="0.0012" stop-color="#4F4942"/>
<stop offset="1" stop-color="#4F4942" stop-opacity="0"/>
</linearGradient>
<linearGradient id="paint17_linear_4172_276541" x1="-8.46396" y1="72.4744" x2="101.29" y2="50.745" gradientUnits="userSpaceOnUse">
<stop offset="0.0012" stop-color="#4F4942"/>
<stop offset="1" stop-color="#4F4942" stop-opacity="0"/>
</linearGradient>
<linearGradient id="paint18_linear_4172_276541" x1="130.308" y1="95.2655" x2="96.26" y2="46.495" gradientUnits="userSpaceOnUse">
<stop offset="0.0012" stop-color="#4F4942"/>
<stop offset="1" stop-color="#4F4942" stop-opacity="0"/>
</linearGradient>
<linearGradient id="paint19_linear_4172_276541" x1="105.209" y1="121.213" x2="87.7074" y2="-6.46586" gradientUnits="userSpaceOnUse">
<stop offset="0.0012" stop-color="#4F4942"/>
<stop offset="1" stop-color="#4F4942" stop-opacity="0"/>
</linearGradient>
<linearGradient id="paint20_linear_4172_276541" x1="100.583" y1="121.701" x2="176.71" y2="61.5472" gradientUnits="userSpaceOnUse">
<stop offset="0.0012" stop-color="#4F4942"/>
<stop offset="1" stop-color="#4F4942" stop-opacity="0"/>
</linearGradient>
<linearGradient id="paint21_linear_4172_276541" x1="353.627" y1="-22.8237" x2="207.906" y2="42.6257" gradientUnits="userSpaceOnUse">
<stop offset="0.0012" stop-color="#4F4942"/>
<stop offset="1" stop-color="#4F4942" stop-opacity="0"/>
</linearGradient>
<linearGradient id="paint22_linear_4172_276541" x1="48.1067" y1="136.12" x2="169.037" y2="28.7945" gradientUnits="userSpaceOnUse">
<stop offset="0.0012" stop-color="#4F4942"/>
<stop offset="1" stop-color="#4F4942" stop-opacity="0"/>
</linearGradient>
<linearGradient id="paint23_linear_4172_276541" x1="368.425" y1="267.937" x2="137.631" y2="23.2941" gradientUnits="userSpaceOnUse">
<stop stop-color="#E5C498"/>
<stop offset="1" stop-color="#E5C498" stop-opacity="0"/>
</linearGradient>
<linearGradient id="paint24_linear_4172_276541" x1="290.779" y1="121.427" x2="159.757" y2="40.5576" gradientUnits="userSpaceOnUse">
<stop stop-color="#E5C498"/>
<stop offset="1" stop-color="#E5C498" stop-opacity="0"/>
</linearGradient>
<linearGradient id="paint25_linear_4172_276541" x1="301.776" y1="131.432" x2="144.846" y2="55.6451" gradientUnits="userSpaceOnUse">
<stop stop-color="#E5C498"/>
<stop offset="1" stop-color="#E5C498" stop-opacity="0"/>
</linearGradient>
<linearGradient id="paint26_linear_4172_276541" x1="224.643" y1="57.023" x2="135.42" y2="13.3351" gradientUnits="userSpaceOnUse">
<stop stop-color="#E5C498"/>
<stop offset="1" stop-color="#E5C498" stop-opacity="0"/>
</linearGradient>
<linearGradient id="paint27_linear_4172_276541" x1="221.046" y1="45.0149" x2="130.072" y2="17.2124" gradientUnits="userSpaceOnUse">
<stop stop-color="#E5C498"/>
<stop offset="1" stop-color="#E5C498" stop-opacity="0"/>
</linearGradient>
<linearGradient id="paint28_linear_4172_276541" x1="210.056" y1="-48.2348" x2="56.1856" y2="55.01" gradientUnits="userSpaceOnUse">
<stop stop-color="#E5C498"/>
<stop offset="1" stop-color="#E5C498" stop-opacity="0"/>
</linearGradient>
<linearGradient id="paint29_linear_4172_276541" x1="114.399" y1="-18.138" x2="75.1205" y2="43.731" gradientUnits="userSpaceOnUse">
<stop stop-color="#E5C498"/>
<stop offset="1" stop-color="#E5C498" stop-opacity="0"/>
</linearGradient>
<linearGradient id="paint30_linear_4172_276541" x1="105.151" y1="0.365563" x2="70.8226" y2="37.2706" gradientUnits="userSpaceOnUse">
<stop stop-color="#E5C498"/>
<stop offset="1" stop-color="#E5C498" stop-opacity="0"/>
</linearGradient>
<linearGradient id="paint31_linear_4172_276541" x1="7.52684" y1="-57.3915" x2="58.2516" y2="48.9859" gradientUnits="userSpaceOnUse">
<stop stop-color="#E5C498"/>
<stop offset="1" stop-color="#E5C498" stop-opacity="0"/>
</linearGradient>
<linearGradient id="paint32_linear_4172_276541" x1="49.2849" y1="-5.8124" x2="12.5787" y2="20.9189" gradientUnits="userSpaceOnUse">
<stop stop-color="#E5C498"/>
<stop offset="1" stop-color="#E5C498" stop-opacity="0"/>
</linearGradient>
<linearGradient id="paint33_linear_4172_276541" x1="75.4544" y1="-4.12437" x2="33.2126" y2="26.638" gradientUnits="userSpaceOnUse">
<stop stop-color="#E5C498"/>
<stop offset="1" stop-color="#E5C498" stop-opacity="0"/>
</linearGradient>
<linearGradient id="paint34_linear_4172_276541" x1="67.6803" y1="5.72337" x2="36.2154" y2="28.6373" gradientUnits="userSpaceOnUse">
<stop stop-color="#E5C498"/>
<stop offset="1" stop-color="#E5C498" stop-opacity="0"/>
</linearGradient>
<linearGradient id="paint35_linear_4172_276541" x1="326.969" y1="62.1461" x2="233.472" y2="137.4" gradientUnits="userSpaceOnUse">
<stop stop-color="#E5C498"/>
<stop offset="1" stop-color="#E5C498" stop-opacity="0"/>
</linearGradient>
</defs>
</svg>
