<svg width="700" height="600" viewBox="0 0 700 600" fill="none" xmlns="http://www.w3.org/2000/svg">
<g clip-path="url(#clip0_2939:503492)">
<rect x="346.982" y="183.128" width="273.14" height="14.8985" rx="7.44927" fill="url(#paint0_linear_2939:503492)"/>
<rect x="384.849" y="131.604" width="273.14" height="14.8985" rx="7.44927" fill="url(#paint1_linear_2939:503492)"/>
<rect x="384.849" y="60.8359" width="273.14" height="14.8985" rx="7.44927" fill="url(#paint2_linear_2939:503492)"/>
<rect x="348.223" y="0.620605" width="273.761" height="14.8985" rx="7.44927" fill="url(#paint3_linear_2939:503492)"/>
<path d="M402.231 100.006C402.231 155.231 379.774 200 352.071 200C349.976 200 346.534 200 345.882 200C321.1 193.921 301.911 151.054 301.911 100.006C301.851 46.2601 319.514 2.79595 346.208 0.0115114C347.511 0.0115195 350.944 -0.0143916 352.071 0.0115137C379.774 0.0115137 402.231 44.7805 402.231 100.006Z" fill="#FFB6B6"/>
<ellipse cx="346.859" cy="100.006" rx="50.16" ry="99.9942" fill="#FFACAC"/>
<rect x="346.982" y="383.128" width="273.14" height="14.8985" rx="7.44927" fill="url(#paint4_linear_2939:503492)"/>
<rect x="384.849" y="331.604" width="273.14" height="14.8985" rx="7.44927" fill="url(#paint5_linear_2939:503492)"/>
<rect x="384.849" y="260.836" width="273.14" height="14.8985" rx="7.44927" fill="url(#paint6_linear_2939:503492)"/>
<rect x="348.223" y="200.621" width="273.761" height="14.8985" rx="7.44927" fill="url(#paint7_linear_2939:503492)"/>
<path d="M402.231 300.006C402.231 355.231 379.774 400 352.071 400C349.976 400 346.534 400 345.882 400C321.1 393.921 301.911 351.054 301.911 300.006C301.851 246.26 319.514 202.796 346.208 200.012C347.511 200.012 350.944 199.986 352.071 200.012C379.774 200.012 402.231 244.78 402.231 300.006Z" fill="#FFB6B6"/>
<ellipse cx="346.859" cy="300.006" rx="50.16" ry="99.9942" fill="#FFACAC"/>
<rect x="345.982" y="583.128" width="273.14" height="14.8985" rx="7.44927" fill="url(#paint8_linear_2939:503492)"/>
<rect x="383.849" y="531.604" width="273.14" height="14.8985" rx="7.44927" fill="url(#paint9_linear_2939:503492)"/>
<rect x="383.849" y="460.836" width="273.14" height="14.8985" rx="7.44927" fill="url(#paint10_linear_2939:503492)"/>
<rect x="347.223" y="400.621" width="273.761" height="14.8985" rx="7.44927" fill="url(#paint11_linear_2939:503492)"/>
<path d="M401.231 500.006C401.231 555.231 378.774 600 351.071 600C348.976 600 345.534 600 344.882 600C320.1 593.921 300.911 551.054 300.911 500.006C300.851 446.26 318.514 402.796 345.208 400.012C346.511 400.012 349.944 399.986 351.071 400.012C378.774 400.012 401.231 444.78 401.231 500.006Z" fill="#FFB6B6"/>
<ellipse cx="345.859" cy="500.006" rx="50.16" ry="99.9942" fill="#FFACAC"/>
</g>
<defs>
<linearGradient id="paint0_linear_2939:503492" x1="483.552" y1="183.128" x2="483.552" y2="198.026" gradientUnits="userSpaceOnUse">
<stop stop-color="#AD8AD9"/>
<stop offset="1" stop-color="#8B79AA"/>
</linearGradient>
<linearGradient id="paint1_linear_2939:503492" x1="521.419" y1="131.604" x2="521.419" y2="146.502" gradientUnits="userSpaceOnUse">
<stop stop-color="#AD8AD9"/>
<stop offset="1" stop-color="#8B79AA"/>
</linearGradient>
<linearGradient id="paint2_linear_2939:503492" x1="521.419" y1="60.8359" x2="521.419" y2="75.7345" gradientUnits="userSpaceOnUse">
<stop stop-color="#AD8AD9"/>
<stop offset="1" stop-color="#8B79AA"/>
</linearGradient>
<linearGradient id="paint3_linear_2939:503492" x1="485.104" y1="0.620605" x2="485.104" y2="15.5192" gradientUnits="userSpaceOnUse">
<stop stop-color="#AD8AD9"/>
<stop offset="1" stop-color="#8B79AA"/>
</linearGradient>
<linearGradient id="paint4_linear_2939:503492" x1="483.552" y1="383.128" x2="483.552" y2="398.026" gradientUnits="userSpaceOnUse">
<stop stop-color="#AD8AD9"/>
<stop offset="1" stop-color="#8B79AA"/>
</linearGradient>
<linearGradient id="paint5_linear_2939:503492" x1="521.419" y1="331.604" x2="521.419" y2="346.502" gradientUnits="userSpaceOnUse">
<stop stop-color="#AD8AD9"/>
<stop offset="1" stop-color="#8B79AA"/>
</linearGradient>
<linearGradient id="paint6_linear_2939:503492" x1="521.419" y1="260.836" x2="521.419" y2="275.734" gradientUnits="userSpaceOnUse">
<stop stop-color="#AD8AD9"/>
<stop offset="1" stop-color="#8B79AA"/>
</linearGradient>
<linearGradient id="paint7_linear_2939:503492" x1="485.104" y1="200.621" x2="485.104" y2="215.519" gradientUnits="userSpaceOnUse">
<stop stop-color="#AD8AD9"/>
<stop offset="1" stop-color="#8B79AA"/>
</linearGradient>
<linearGradient id="paint8_linear_2939:503492" x1="482.552" y1="583.128" x2="482.552" y2="598.026" gradientUnits="userSpaceOnUse">
<stop stop-color="#AD8AD9"/>
<stop offset="1" stop-color="#8B79AA"/>
</linearGradient>
<linearGradient id="paint9_linear_2939:503492" x1="520.419" y1="531.604" x2="520.419" y2="546.502" gradientUnits="userSpaceOnUse">
<stop stop-color="#AD8AD9"/>
<stop offset="1" stop-color="#8B79AA"/>
</linearGradient>
<linearGradient id="paint10_linear_2939:503492" x1="520.419" y1="460.836" x2="520.419" y2="475.734" gradientUnits="userSpaceOnUse">
<stop stop-color="#AD8AD9"/>
<stop offset="1" stop-color="#8B79AA"/>
</linearGradient>
<linearGradient id="paint11_linear_2939:503492" x1="484.104" y1="400.621" x2="484.104" y2="415.519" gradientUnits="userSpaceOnUse">
<stop stop-color="#AD8AD9"/>
<stop offset="1" stop-color="#8B79AA"/>
</linearGradient>
<clipPath id="clip0_2939:503492">
<rect width="700" height="600" fill="white"/>
</clipPath>
</defs>
</svg>
