<svg width="700" height="600" viewBox="0 0 700 600" fill="none" xmlns="http://www.w3.org/2000/svg">
<g clip-path="url(#clip0_2939:503498)">
<path d="M402.3 100.28C402.3 155.194 379.875 198.958 352.328 198.958C350.245 198.958 346.768 198.958 346.12 198.958C321.477 192.913 302.977 150.395 302.977 99.6341C302.917 46.1909 320.481 2.97141 347.024 0.202643C348.32 0.202651 351.208 0.284706 352.328 0.310466C379.875 0.310466 402.3 45.3651 402.3 100.28Z" fill="#FFB6B6"/>
<ellipse cx="347.888" cy="99.6204" rx="49.8777" ry="99.4315" fill="url(#paint0_radial_2939:503498)"/>
<rect x="47.8394" y="162.643" width="277.485" height="14.8985" rx="7.44927" fill="url(#paint1_linear_2939:503498)"/>
<circle cx="55.2886" cy="170.092" r="7.44927" fill="url(#paint2_radial_2939:503498)"/>
<rect x="35.4238" y="112.981" width="277.485" height="14.8985" rx="7.44927" fill="url(#paint3_linear_2939:503498)"/>
<circle cx="42.8731" cy="120.43" r="7.44927" fill="url(#paint4_radial_2939:503498)"/>
<rect x="34.8027" y="75.1133" width="277.485" height="14.8985" rx="7.44927" fill="url(#paint5_linear_2939:503498)"/>
<circle cx="42.252" cy="82.5626" r="7.44927" fill="url(#paint6_radial_2939:503498)"/>
<rect x="47.8394" y="21.7271" width="277.485" height="14.8985" rx="7.44927" fill="url(#paint7_linear_2939:503498)"/>
<circle cx="55.2886" cy="29.1763" r="7.44927" fill="url(#paint8_radial_2939:503498)"/>
<path d="M402.3 300.28C402.3 355.194 379.875 398.958 352.328 398.958C350.245 398.958 346.768 398.958 346.12 398.958C321.477 392.913 302.977 350.395 302.977 299.634C302.917 246.191 320.481 202.971 347.024 200.203C348.32 200.203 351.208 200.285 352.328 200.31C379.875 200.31 402.3 245.365 402.3 300.28Z" fill="#FFB6B6"/>
<ellipse cx="347.888" cy="299.62" rx="49.8777" ry="99.4315" fill="url(#paint9_radial_2939:503498)"/>
<rect x="47.8394" y="362.643" width="277.485" height="14.8985" rx="7.44927" fill="url(#paint10_linear_2939:503498)"/>
<circle cx="55.2886" cy="370.092" r="7.44927" fill="url(#paint11_radial_2939:503498)"/>
<rect x="35.4238" y="312.981" width="277.485" height="14.8985" rx="7.44927" fill="url(#paint12_linear_2939:503498)"/>
<circle cx="42.8731" cy="320.43" r="7.44927" fill="url(#paint13_radial_2939:503498)"/>
<rect x="34.8027" y="275.113" width="277.485" height="14.8985" rx="7.44927" fill="url(#paint14_linear_2939:503498)"/>
<circle cx="42.252" cy="282.563" r="7.44927" fill="url(#paint15_radial_2939:503498)"/>
<rect x="47.8394" y="221.727" width="277.485" height="14.8985" rx="7.44927" fill="url(#paint16_linear_2939:503498)"/>
<circle cx="55.2886" cy="229.176" r="7.44927" fill="url(#paint17_radial_2939:503498)"/>
<path d="M402.3 500.28C402.3 555.194 379.875 598.958 352.328 598.958C350.245 598.958 346.768 598.958 346.12 598.958C321.477 592.913 302.977 550.395 302.977 499.634C302.917 446.191 320.481 402.971 347.024 400.203C348.32 400.203 351.208 400.285 352.328 400.31C379.875 400.31 402.3 445.365 402.3 500.28Z" fill="#FFB6B6"/>
<ellipse cx="347.888" cy="499.62" rx="49.8777" ry="99.4315" fill="url(#paint18_radial_2939:503498)"/>
<rect x="47.8394" y="562.643" width="277.485" height="14.8985" rx="7.44927" fill="url(#paint19_linear_2939:503498)"/>
<circle cx="55.2886" cy="570.092" r="7.44927" fill="url(#paint20_radial_2939:503498)"/>
<rect x="35.4238" y="512.981" width="277.485" height="14.8985" rx="7.44927" fill="url(#paint21_linear_2939:503498)"/>
<circle cx="42.8731" cy="520.43" r="7.44927" fill="url(#paint22_radial_2939:503498)"/>
<rect x="34.8027" y="475.113" width="277.485" height="14.8985" rx="7.44927" fill="url(#paint23_linear_2939:503498)"/>
<circle cx="42.252" cy="482.563" r="7.44927" fill="url(#paint24_radial_2939:503498)"/>
<rect x="47.8394" y="421.727" width="277.485" height="14.8985" rx="7.44927" fill="url(#paint25_linear_2939:503498)"/>
<circle cx="55.2886" cy="429.176" r="7.44927" fill="url(#paint26_radial_2939:503498)"/>
</g>
<defs>
<radialGradient id="paint0_radial_2939:503498" cx="0" cy="0" r="1" gradientUnits="userSpaceOnUse" gradientTransform="translate(347.888 99.6204) rotate(90) scale(99.4315 49.8777)">
<stop stop-color="#FFB1B1"/>
<stop offset="1" stop-color="#FFA8A8"/>
</radialGradient>
<linearGradient id="paint1_linear_2939:503498" x1="186.582" y1="162.643" x2="186.582" y2="177.541" gradientUnits="userSpaceOnUse">
<stop stop-color="#C19BF2"/>
<stop offset="1" stop-color="#AA93CF"/>
</linearGradient>
<radialGradient id="paint2_radial_2939:503498" cx="0" cy="0" r="1" gradientUnits="userSpaceOnUse" gradientTransform="translate(55.2886 170.092) rotate(90) scale(7.44927)">
<stop stop-color="#D0BAED"/>
<stop offset="1" stop-color="#BC99EA"/>
</radialGradient>
<linearGradient id="paint3_linear_2939:503498" x1="174.167" y1="112.981" x2="174.167" y2="127.88" gradientUnits="userSpaceOnUse">
<stop stop-color="#C19BF2"/>
<stop offset="1" stop-color="#AA93CF"/>
</linearGradient>
<radialGradient id="paint4_radial_2939:503498" cx="0" cy="0" r="1" gradientUnits="userSpaceOnUse" gradientTransform="translate(42.8731 120.43) rotate(90) scale(7.44927)">
<stop stop-color="#D0BAED"/>
<stop offset="1" stop-color="#BC99EA"/>
</radialGradient>
<linearGradient id="paint5_linear_2939:503498" x1="173.545" y1="75.1133" x2="173.545" y2="90.0118" gradientUnits="userSpaceOnUse">
<stop stop-color="#C19BF2"/>
<stop offset="1" stop-color="#AA93CF"/>
</linearGradient>
<radialGradient id="paint6_radial_2939:503498" cx="0" cy="0" r="1" gradientUnits="userSpaceOnUse" gradientTransform="translate(42.252 82.5626) rotate(90) scale(7.44927)">
<stop stop-color="#D0BAED"/>
<stop offset="1" stop-color="#BC99EA"/>
</radialGradient>
<linearGradient id="paint7_linear_2939:503498" x1="186.582" y1="21.7271" x2="186.582" y2="36.6256" gradientUnits="userSpaceOnUse">
<stop stop-color="#C19BF2"/>
<stop offset="1" stop-color="#AA93CF"/>
</linearGradient>
<radialGradient id="paint8_radial_2939:503498" cx="0" cy="0" r="1" gradientUnits="userSpaceOnUse" gradientTransform="translate(55.2886 29.1763) rotate(90) scale(7.44927)">
<stop stop-color="#D0BAED"/>
<stop offset="1" stop-color="#BC99EA"/>
</radialGradient>
<radialGradient id="paint9_radial_2939:503498" cx="0" cy="0" r="1" gradientUnits="userSpaceOnUse" gradientTransform="translate(347.888 299.62) rotate(90) scale(99.4315 49.8777)">
<stop stop-color="#FFB1B1"/>
<stop offset="1" stop-color="#FFA8A8"/>
</radialGradient>
<linearGradient id="paint10_linear_2939:503498" x1="186.582" y1="362.643" x2="186.582" y2="377.541" gradientUnits="userSpaceOnUse">
<stop stop-color="#C19BF2"/>
<stop offset="1" stop-color="#AA93CF"/>
</linearGradient>
<radialGradient id="paint11_radial_2939:503498" cx="0" cy="0" r="1" gradientUnits="userSpaceOnUse" gradientTransform="translate(55.2886 370.092) rotate(90) scale(7.44927)">
<stop stop-color="#D0BAED"/>
<stop offset="1" stop-color="#BC99EA"/>
</radialGradient>
<linearGradient id="paint12_linear_2939:503498" x1="174.167" y1="312.981" x2="174.167" y2="327.88" gradientUnits="userSpaceOnUse">
<stop stop-color="#C19BF2"/>
<stop offset="1" stop-color="#AA93CF"/>
</linearGradient>
<radialGradient id="paint13_radial_2939:503498" cx="0" cy="0" r="1" gradientUnits="userSpaceOnUse" gradientTransform="translate(42.8731 320.43) rotate(90) scale(7.44927)">
<stop stop-color="#D0BAED"/>
<stop offset="1" stop-color="#BC99EA"/>
</radialGradient>
<linearGradient id="paint14_linear_2939:503498" x1="173.545" y1="275.113" x2="173.545" y2="290.012" gradientUnits="userSpaceOnUse">
<stop stop-color="#C19BF2"/>
<stop offset="1" stop-color="#AA93CF"/>
</linearGradient>
<radialGradient id="paint15_radial_2939:503498" cx="0" cy="0" r="1" gradientUnits="userSpaceOnUse" gradientTransform="translate(42.252 282.563) rotate(90) scale(7.44927)">
<stop stop-color="#D0BAED"/>
<stop offset="1" stop-color="#BC99EA"/>
</radialGradient>
<linearGradient id="paint16_linear_2939:503498" x1="186.582" y1="221.727" x2="186.582" y2="236.626" gradientUnits="userSpaceOnUse">
<stop stop-color="#C19BF2"/>
<stop offset="1" stop-color="#AA93CF"/>
</linearGradient>
<radialGradient id="paint17_radial_2939:503498" cx="0" cy="0" r="1" gradientUnits="userSpaceOnUse" gradientTransform="translate(55.2886 229.176) rotate(90) scale(7.44927)">
<stop stop-color="#D0BAED"/>
<stop offset="1" stop-color="#BC99EA"/>
</radialGradient>
<radialGradient id="paint18_radial_2939:503498" cx="0" cy="0" r="1" gradientUnits="userSpaceOnUse" gradientTransform="translate(347.888 499.62) rotate(90) scale(99.4315 49.8777)">
<stop stop-color="#FFB1B1"/>
<stop offset="1" stop-color="#FFA8A8"/>
</radialGradient>
<linearGradient id="paint19_linear_2939:503498" x1="186.582" y1="562.643" x2="186.582" y2="577.541" gradientUnits="userSpaceOnUse">
<stop stop-color="#C19BF2"/>
<stop offset="1" stop-color="#AA93CF"/>
</linearGradient>
<radialGradient id="paint20_radial_2939:503498" cx="0" cy="0" r="1" gradientUnits="userSpaceOnUse" gradientTransform="translate(55.2886 570.092) rotate(90) scale(7.44927)">
<stop stop-color="#D0BAED"/>
<stop offset="1" stop-color="#BC99EA"/>
</radialGradient>
<linearGradient id="paint21_linear_2939:503498" x1="174.167" y1="512.981" x2="174.167" y2="527.88" gradientUnits="userSpaceOnUse">
<stop stop-color="#C19BF2"/>
<stop offset="1" stop-color="#AA93CF"/>
</linearGradient>
<radialGradient id="paint22_radial_2939:503498" cx="0" cy="0" r="1" gradientUnits="userSpaceOnUse" gradientTransform="translate(42.8731 520.43) rotate(90) scale(7.44927)">
<stop stop-color="#D0BAED"/>
<stop offset="1" stop-color="#BC99EA"/>
</radialGradient>
<linearGradient id="paint23_linear_2939:503498" x1="173.545" y1="475.113" x2="173.545" y2="490.012" gradientUnits="userSpaceOnUse">
<stop stop-color="#C19BF2"/>
<stop offset="1" stop-color="#AA93CF"/>
</linearGradient>
<radialGradient id="paint24_radial_2939:503498" cx="0" cy="0" r="1" gradientUnits="userSpaceOnUse" gradientTransform="translate(42.252 482.563) rotate(90) scale(7.44927)">
<stop stop-color="#D0BAED"/>
<stop offset="1" stop-color="#BC99EA"/>
</radialGradient>
<linearGradient id="paint25_linear_2939:503498" x1="186.582" y1="421.727" x2="186.582" y2="436.626" gradientUnits="userSpaceOnUse">
<stop stop-color="#C19BF2"/>
<stop offset="1" stop-color="#AA93CF"/>
</linearGradient>
<radialGradient id="paint26_radial_2939:503498" cx="0" cy="0" r="1" gradientUnits="userSpaceOnUse" gradientTransform="translate(55.2886 429.176) rotate(90) scale(7.44927)">
<stop stop-color="#D0BAED"/>
<stop offset="1" stop-color="#BC99EA"/>
</radialGradient>
<clipPath id="clip0_2939:503498">
<rect width="700" height="600" fill="white"/>
</clipPath>
</defs>
</svg>
