<svg width="500" height="500" viewBox="0 0 500 500" fill="none" xmlns="http://www.w3.org/2000/svg">
<path d="M159.834 204.447C174.509 198.453 179.581 196.511 187.983 190.148C190.953 187.897 193.875 185.441 197.39 184.198C201.94 182.59 207.742 182.805 212.461 183.813C216.277 184.629 219.259 186.085 222.942 187.387C224.605 187.975 226.362 188.701 227.316 190.184C228.661 192.282 227.873 195.146 226.374 197.135C224.876 199.123 222.781 200.579 221.134 202.446C218.862 205.023 217.501 208.31 215.171 210.833C210.896 215.457 204.188 216.717 197.97 217.729C186.081 219.662 159.827 224.97 158.175 224.978C156.524 224.985 153.86 223.201 153.264 221.663C152.793 220.455 153.28 219.105 153.766 217.901C154.633 215.74 155.5 213.578 156.367 211.417C157.375 208.891 157.924 205.227 159.834 204.447Z" fill="#C2BB8A"/>
<path d="M171.791 201.449C170.673 202.073 169.453 202.563 168.398 203.293C168.143 203.575 168.523 204.023 168.849 203.826C171.14 202.508 173.395 201.124 175.494 199.508C175.549 199.464 175.603 199.425 175.658 199.382C174.372 200.069 173.089 200.775 171.791 201.449Z" fill="#B3AC7F"/>
<path d="M178.722 199.077C177.479 200.187 176.419 201.01 175.356 201.724C175.031 201.924 174.693 202.101 174.352 202.27C174.266 202.317 174.203 202.399 174.176 202.493C174.074 202.807 174.442 203.101 174.725 202.933C177.396 201.528 179.342 199.088 181.307 196.86C181.401 196.747 181.495 196.633 181.589 196.519C180.644 197.386 179.679 198.225 178.722 199.077Z" fill="#B3AC7F"/>
<path d="M188.513 191.953C186.559 194.208 184.845 196.676 183.033 198.715C182.264 199.614 181.283 200.32 180.487 201.167C180.299 201.54 180.825 201.908 181.115 201.606C182.727 200.249 184.206 198.739 185.367 196.97C186.732 194.954 188.121 192.953 189.435 190.905C189.494 190.815 189.548 190.725 189.607 190.635C189.243 191.078 188.878 191.513 188.513 191.953Z" fill="#B3AC7F"/>
<path d="M196.358 186.85C193.165 190.294 190.439 194.973 187.685 198.304C187.081 199.1 186.367 199.818 185.681 200.532C185.492 200.9 186.018 201.273 186.308 200.971C188.152 199.237 189.584 197.111 191.082 195.083C193.193 192.18 194.922 189.023 197.135 186.195C197.323 185.947 197.511 185.696 197.704 185.453C197.249 185.9 196.797 186.371 196.358 186.85Z" fill="#B3AC7F"/>
<path d="M200.614 186.779C199.383 187.936 198.221 189.191 197.28 190.599C195.836 192.784 194.75 195.185 193.236 197.323C192.655 198.209 192.004 198.774 191.176 199.645C190.988 200.014 191.514 200.386 191.804 200.084C194.554 197.656 195.966 194.169 197.723 191.031C198.551 189.548 199.622 188.159 200.665 186.916C200.916 186.629 201.183 186.359 201.454 186.088C201.167 186.312 200.881 186.535 200.614 186.779Z" fill="#B3AC7F"/>
<path d="M208.734 185.273C207.597 185.814 206.604 186.595 205.62 187.371C204.247 188.442 202.921 189.58 201.775 190.898C199.7 193.314 197.849 195.911 195.927 198.449C195.789 198.661 195.519 198.845 195.593 199.123C195.668 199.449 196.142 199.524 196.307 199.229C199.053 195.691 201.246 192.329 204.423 189.223C205.851 187.909 207.193 186.489 208.75 185.477C209.181 185.19 209.625 184.92 210.072 184.653C209.621 184.845 209.173 185.049 208.734 185.273Z" fill="#B3AC7F"/>
<path d="M212.276 187.85C209.401 189.18 206.635 190.827 204.282 192.961C202.532 194.542 201.054 196.386 199.524 198.174C199.159 198.528 199.696 199.096 200.069 198.739C201.524 197.033 202.94 195.28 204.584 193.746C207.255 191.345 209.668 189.698 212.9 187.795C213.39 187.509 213.873 187.215 214.355 186.917C213.665 187.234 212.971 187.544 212.276 187.85Z" fill="#B3AC7F"/>
<path d="M215.532 190.34C212.971 191.419 210.55 192.819 208.232 194.345C207.067 195.13 205.89 195.918 204.898 196.919C204.706 197.146 204.302 197.366 204.447 197.711C204.533 197.966 204.894 198.04 205.082 197.848C206.447 196.397 207.75 195.636 209.381 194.487C211.468 193.074 213.559 191.65 215.771 190.434C216.199 190.207 216.627 189.987 217.062 189.771C216.548 189.948 216.038 190.136 215.532 190.34Z" fill="#B3AC7F"/>
<path d="M219.329 192.094C218.709 192.287 218.105 192.53 217.505 192.781C215.642 193.573 213.814 194.452 211.97 195.295C211.378 195.503 210.793 195.739 210.225 196.009C210.056 196.115 209.821 196.174 209.64 196.28C209.554 196.307 209.468 196.335 209.373 196.362C209.275 196.386 209.189 196.453 209.134 196.539C208.95 196.821 209.24 197.217 209.566 197.123C211.276 196.519 212.876 195.668 214.453 194.774C214.712 194.683 214.971 194.601 215.23 194.515C215.081 194.534 214.928 194.562 214.779 194.585C216.242 193.75 217.693 192.883 219.2 192.153C219.251 192.13 219.29 192.114 219.329 192.094Z" fill="#B3AC7F"/>
<path d="M218.788 194.789C216.987 195.546 214.955 196.299 212.939 197.017C212.339 197.076 212.378 197.911 212.994 197.821C216.423 196.648 219.667 194.989 222.722 193.047C222.801 193 222.879 192.949 222.958 192.902C221.569 193.538 220.184 194.173 218.788 194.789Z" fill="#B3AC7F"/>
<path d="M219.172 197.166C217.419 197.927 215.324 198.563 213.312 198.88C212.508 199.018 211.939 199.049 211.26 199.092C211.166 199.092 211.076 199.096 210.986 199.092C210.931 199.092 210.88 199.1 210.841 199.12C210.684 199.131 210.519 199.143 210.342 199.159C209.95 199.292 210.068 199.92 210.48 199.912C214.12 199.857 217.599 198.488 220.667 196.59C220.824 196.495 220.985 196.401 221.138 196.307C220.486 196.605 219.831 196.888 219.172 197.166Z" fill="#B3AC7F"/>
<path d="M169.327 221.726C167.817 221.742 166.307 221.832 164.808 222.028C163.91 222.177 162.882 222.146 162.117 222.683C161.882 222.946 162.235 223.362 162.537 223.177C162.945 222.958 163.435 222.852 164.071 222.734C165.577 222.444 167.076 222.118 168.586 221.875C168.731 221.844 169.555 221.714 169.327 221.726Z" fill="#B3AC7F"/>
<path d="M174.576 219.427C173.281 219.376 171.987 219.439 170.692 219.471C170.045 219.526 169.339 219.482 168.739 219.741C168.409 219.961 168.672 220.51 169.053 220.396C169.978 220.169 170.728 220.188 171.822 220.079C173.615 219.886 175.415 219.749 177.22 219.82C177.412 219.828 177.604 219.839 177.796 219.851C176.737 219.631 175.654 219.506 174.576 219.427Z" fill="#B3AC7F"/>
<path d="M182.927 217.874C179.946 217.407 176.921 217.164 173.905 217.113C173.395 217.105 173.375 217.885 173.893 217.897C177.439 217.972 180.993 217.952 184.527 218.246C184.708 218.262 184.888 218.282 185.065 218.301C184.359 218.129 183.645 217.995 182.927 217.874Z" fill="#B3AC7F"/>
<path d="M188.948 216.089C186.944 215.438 184.841 215.077 182.739 214.912C180.926 214.798 179.091 214.869 177.298 215.116C176.906 215.249 177.02 215.877 177.435 215.869C181.374 215.434 185.465 215.559 189.211 216.383C189.737 216.509 190.262 216.634 190.784 216.767C190.18 216.528 189.564 216.301 188.948 216.089Z" fill="#B3AC7F"/>
<path d="M195.201 215.382C193.149 214.217 190.992 213.194 188.682 212.664C187.607 212.417 186.505 212.401 185.41 212.382C185.116 212.409 184.759 212.264 184.516 212.472C184.265 212.699 184.441 213.15 184.782 213.147C185.94 213.198 187.105 213.15 188.254 213.327C189.721 213.554 192.239 214.308 193.95 215.057C194.797 215.41 195.652 215.759 196.503 216.108C196.068 215.865 195.636 215.622 195.201 215.382Z" fill="#B3AC7F"/>
<path d="M200.022 213.751C198.053 212.684 196.013 211.766 193.812 211.307C192.11 210.829 190.396 210.762 188.948 210.378C188.45 210.138 188.132 210.938 188.666 211.103C189.356 211.362 190.105 211.39 190.827 211.503C191.769 211.645 193.659 211.998 194.958 212.284C196.833 212.645 198.578 213.433 200.359 214.1C200.779 214.265 201.199 214.43 201.614 214.606C201.089 214.312 200.559 214.022 200.022 213.751Z" fill="#B3AC7F"/>
<path d="M206.31 211.413C203.976 209.413 200.897 208.636 197.923 208.169C196.288 208.032 194.573 207.914 192.981 208.389C192.49 208.518 192.675 209.272 193.177 209.15C195.197 208.573 197.582 208.86 199.661 209.244C202.093 209.656 204.364 210.288 206.341 211.68C206.73 211.963 207.083 212.288 207.463 212.625C207.098 212.202 206.73 211.778 206.31 211.413Z" fill="#B3AC7F"/>
<path d="M209.848 208.565C207.208 207.757 204.608 206.76 201.873 206.293C200.752 206.14 199.614 206.042 198.48 206.105C198.167 206.172 197.692 206.042 197.535 206.392C197.409 206.631 197.617 206.945 197.884 206.941C202.093 206.545 205.839 208.047 210.064 208.753C210.413 208.8 210.766 208.824 211.119 208.835C210.692 208.773 210.264 208.686 209.848 208.565Z" fill="#B3AC7F"/>
<path d="M217.387 202.544C216.293 202.944 215.214 203.411 214.073 203.678C212.096 204.078 210.374 204.164 208.256 204.294C206.059 204.474 203.85 204.117 201.662 204.38C201.061 204.376 201.116 205.274 201.72 205.161C203.317 204.914 205.741 205.223 207.702 205.102C209.872 205.012 212.057 204.804 214.155 204.227C215.489 203.811 216.717 203.125 217.956 202.497C218.345 202.293 218.729 202.085 219.11 201.87C218.541 202.097 217.964 202.325 217.387 202.544Z" fill="#B3AC7F"/>
<path d="M115.528 221.098C121.64 217.155 128.496 214.535 135.381 212.189C160.38 203.669 178.365 201.147 204.972 196.907C222.55 194.106 207.969 201.375 204.957 203.057C181.017 216.422 159.05 223.392 135.314 237.118C129.818 240.295 119.8 244.473 118.439 250.674C117.05 257.009 118.266 260.148 123.326 268.35C126.837 274.042 132.046 282.071 138.276 283.727C143.132 285.021 156.116 283.393 176.549 281.487C184.786 280.718 195.095 280.228 215.509 280.228C224.076 280.228 242.575 277.38 261.988 274.049C285.069 270.095 310.103 268.75 327.602 265.019C339.123 262.564 350.977 262.278 362.753 262.003C374.301 261.732 386.202 261.52 396.966 265.702C405.666 269.083 412.955 275.148 419.404 276.121C430.301 277.764 413.437 289.736 407.93 292.89C406.835 293.517 403.933 294.686 402.717 294.341C400.112 293.604 400.32 291.658 400.857 289.865C400.861 289.85 400.846 289.834 400.83 289.838L382.684 294.227C372.018 296.809 361.368 299.609 350.491 301.053C318.909 305.242 311.637 303.148 302.344 303.834C284.645 305.14 260.129 309.934 246.525 312.291C204.07 319.65 160.274 318.411 117.96 310.404C118.713 310.083 119.831 310.326 120.651 310.389C123.578 310.616 124.001 311.009 124.205 309.973C124.35 309.243 123.825 308.773 123.338 308.369C121.879 307.153 108.322 298.025 100.54 284.895C95.9582 277.164 93.3614 267.448 93.3614 258.461C93.3653 237.73 109.421 225.04 115.528 221.098Z" fill="#D4D6D4"/>
<path opacity="0.2588" d="M204.972 196.907C178.365 201.147 160.38 203.67 135.381 212.19C128.496 214.535 121.64 217.156 115.528 221.098C111.766 223.526 104.235 229.269 99.0021 238.165C99.7082 238.291 100.348 238.754 100.618 239.64C100.701 239.903 100.787 240.166 100.869 240.429C100.932 240.617 101.003 240.801 101.073 240.982C103.458 244.002 105.937 246.936 108.577 249.733C108.758 249.188 107.561 244.34 111.79 239.001C125.531 221.647 148.145 213.81 183.672 203.101C193.381 200.175 203.54 199.017 213.473 196.958C213.261 196.173 211.021 195.942 204.972 196.907Z" fill="black"/>
<path opacity="0.2588" d="M414.19 282.676C414.32 282.562 414.453 282.452 414.579 282.331C414.743 282.174 414.928 282.048 415.124 281.954C416.265 279.985 417.23 277.965 417.846 275.796C411.786 274.199 404.98 268.817 396.974 265.706C386.206 261.525 374.305 261.737 362.761 262.007C350.985 262.282 339.127 262.568 327.61 265.024C310.111 268.754 285.077 270.096 261.996 274.054C242.583 277.38 224.083 280.232 215.516 280.232C195.099 280.232 184.794 280.722 176.557 281.491C156.124 283.398 143.14 285.025 138.283 283.731C136.377 283.225 131.093 280.538 130.234 280.197C107.499 271.135 99.9827 251.306 96.9192 242.182C94.7774 246.893 93.3692 252.33 93.3692 258.469C93.3692 262.243 94.4047 267.013 96.3465 269.649C99.0845 273.367 107.691 281.366 109.248 282.613C109.444 282.77 117.372 288.615 122.691 291.412C124.162 292.184 142.559 302.921 216.226 294.558C219.302 294.208 236.973 291.937 238.789 291.678C247.27 290.466 290.392 282.338 290.839 282.197C298.123 279.871 306.847 279.396 313.92 277.137C318.07 275.811 338.942 272.187 351.212 271.198C357.151 270.72 364.369 269.715 370.3 270.931C373.136 271.512 375.811 272.457 378.475 273.583C379.914 274.191 381.35 274.811 382.774 275.458C382.837 275.478 382.907 275.497 382.99 275.517C383.3 275.607 384.092 275.741 384.17 275.713C385.433 275.313 387.838 274.403 389.129 274.085C392.777 273.183 395.15 273.638 398.814 274.391C404.317 275.521 409.169 278.839 413.563 282.174C413.771 282.338 413.979 282.507 414.19 282.676Z" fill="black"/>
<path d="M187.921 205.557C171.834 211.288 156.12 218.023 140.888 225.75C134.243 229.12 127.32 232.45 121.385 237.004C111.166 244.846 111.747 251.55 111.672 251.895C114.12 253.538 116.026 255.103 118.027 256.767C117.772 254.896 117.929 253.001 118.439 250.675C119.796 244.473 129.814 240.295 135.314 237.118C159.05 223.393 181.017 216.422 204.957 203.058C206.557 202.163 211.429 199.688 213.002 197.99C211.405 198.3 209.809 198.606 208.212 198.912C201.391 200.959 194.624 203.168 187.921 205.557Z" fill="#E6E6E6"/>
<path d="M391.337 286.803C385.284 287.223 379.036 283.014 372.273 280.315C362.031 282.519 352.146 283.39 341.814 285.124C248.066 300.869 233.78 305.659 187.901 305.659C153.554 308.676 121.722 294.738 121.294 294.55C110.966 290.016 102.026 282.46 95.5384 273.219C96.7466 277.357 98.4294 281.343 100.54 284.904C108.322 298.033 121.879 307.161 123.338 308.377C123.825 308.781 124.35 309.252 124.205 309.982C124.001 311.013 123.577 310.625 120.651 310.398C119.831 310.335 118.717 310.092 117.96 310.413C160.274 318.419 204.074 319.659 246.525 312.3C260.125 309.943 284.641 305.149 302.344 303.843C311.637 303.156 318.913 305.255 350.491 301.062C361.368 299.618 372.018 296.817 382.684 294.236L400.881 289.239C400.798 289.196 395.836 286.493 391.337 286.803Z" fill="#E6E6E6"/>
<path d="M145.113 284.127C144.399 283.613 141.131 280.263 148.004 277.216C161.553 271.198 176.682 267.876 191.376 269.845C200.559 271.073 209.26 274.572 217.846 278.043C218.729 278.4 221.063 280.169 219.714 280.236C215.509 280.44 203.599 280.479 186.187 281.326C173.54 281.931 157.351 284.127 145.113 284.127Z" fill="#C2BB8A"/>
<path d="M219.306 279.769C219.431 279.934 219.537 280.115 219.631 280.299H220.427C220.443 280.217 220.435 280.126 220.384 280.044C219.223 277.577 216.211 277.263 213.983 276.204C210.123 274.643 206.286 272.975 202.226 272.01C197.421 270.83 192.585 269.504 187.626 269.221C182.174 269.147 176.663 268.825 171.261 269.735C163.435 271.461 155.421 272.999 148.29 276.82C146.341 277.824 144.144 278.95 143.187 281.033C142.9 281.805 143.297 282.582 143.791 283.174C144.152 283.633 144.548 284.104 145.011 284.453C145.101 284.5 145.223 284.504 145.313 284.457C145.999 284.073 145.093 283.539 144.826 283.198C144.403 282.79 144.065 282.198 143.952 281.994C143.685 281.409 144.05 280.974 144.434 280.476C145.603 279.044 147.039 278.342 148.765 277.455C154.915 274.129 161.811 272.658 168.782 271.073C173.085 269.92 177.216 269.912 181.762 269.896C185.19 269.982 188.905 269.873 191.965 270.508C196.303 271.316 200.61 272.316 204.843 273.564C207.73 274.446 210.503 275.655 213.304 276.78C215.485 277.765 218.313 278.33 219.306 279.769Z" fill="#B3AC7F"/>
<path d="M217.533 280.436C217.846 280.42 218.16 280.405 218.47 280.389C218.466 280.303 218.439 280.212 218.364 280.146C217.36 279.138 215.94 278.749 214.626 278.31C212.669 277.729 210.703 277.168 208.801 276.427C208.73 276.4 208.66 276.376 208.585 276.349C209.119 276.627 209.648 276.91 210.189 277.172C212.241 278.184 214.751 278.938 216.532 279.797C216.964 280.012 217.305 280.244 217.533 280.436Z" fill="#B3AC7F"/>
<path d="M212.794 280.467C213.277 280.479 213.759 280.487 214.241 280.487C210.617 278.004 206.314 276.705 202.536 274.477C202.336 274.364 202.14 274.242 201.948 274.12C202.305 274.415 202.678 274.689 203.054 274.96C205.961 277.019 209.232 278.478 212.331 280.212C212.476 280.287 212.633 280.377 212.794 280.467Z" fill="#B3AC7F"/>
<path d="M207.683 280.53C208.31 280.51 208.938 280.589 209.542 280.765C205.69 278.298 201.395 276.541 197.845 273.603C197.609 273.422 197.382 273.238 197.151 273.053C197.48 273.399 197.821 273.736 198.166 274.066C200.599 276.47 203.525 278.267 206.522 279.879C206.918 280.075 207.302 280.303 207.683 280.53Z" fill="#B3AC7F"/>
<path d="M202.776 280.757C203.231 280.73 203.69 280.73 204.145 280.754C202.462 279.538 200.63 278.529 198.9 277.388C196.727 275.948 194.554 274.297 192.53 272.751C192.208 272.492 191.886 272.23 191.569 271.959C191.835 272.249 192.106 272.536 192.385 272.818C195.323 275.756 198.618 278.294 202.207 280.389C202.399 280.51 202.591 280.632 202.776 280.757Z" fill="#B3AC7F"/>
<path d="M197.731 280.856C198.221 280.833 198.708 280.825 199.198 280.825C197.951 280.028 196.633 279.334 195.413 278.495C192.596 276.628 189.878 274.584 187.454 272.544C187.136 272.269 186.826 271.987 186.524 271.697C186.783 272.022 187.058 272.336 187.336 272.642C190.129 275.604 193.298 278.22 196.801 280.303C197.1 280.476 197.413 280.664 197.731 280.856Z" fill="#B3AC7F"/>
<path d="M192.467 281.009C192.942 280.966 193.424 280.981 193.899 281.036C189.713 278.428 186.316 275.866 182.919 272.218C182.601 271.869 182.288 271.516 181.986 271.155C182.26 271.575 182.543 271.991 182.841 272.395C184.355 274.544 186.242 276.392 188.262 278.063C189.58 279.102 190.949 280.114 192.369 281.024C192.4 281.02 192.432 281.013 192.467 281.009Z" fill="#B3AC7F"/>
<path d="M188.019 281.236C186.277 280.146 184.508 278.797 183.229 277.781C181.24 276.157 179.318 274.442 177.604 272.524C177.239 272.128 176.874 271.736 176.525 271.324C176.827 271.783 177.149 272.23 177.478 272.673C179.02 274.835 180.868 276.753 182.884 278.475C184.123 279.467 185.394 280.456 186.724 281.342C187.144 281.248 187.583 281.209 188.019 281.236Z" fill="#B3AC7F"/>
<path d="M183.653 281.46C181.68 280.334 179.781 279.067 177.937 277.737C176.031 276.364 174.36 275.109 172.752 273.344C172.477 273.053 172.206 272.759 171.944 272.453C172.246 272.908 172.575 273.347 172.901 273.783C174.446 275.866 176.474 277.529 178.53 279.086C179.699 279.949 180.919 280.746 182.166 281.491C182.66 281.44 183.159 281.432 183.653 281.46Z" fill="#B3AC7F"/>
<path d="M179.204 281.833C175.129 280.095 171.563 276.972 168.323 273.76C167.817 273.25 167.331 272.716 166.852 272.179C167.26 272.775 167.684 273.364 168.135 273.928C170.178 276.506 172.563 278.832 175.317 280.648C176.019 281.107 176.753 281.515 177.502 281.895C178.071 281.829 178.64 281.809 179.204 281.833Z" fill="#B3AC7F"/>
<path d="M173.018 282.41C169.653 280.138 166.358 277.922 163.639 274.941C163.384 274.67 163.129 274.4 162.878 274.125C163.173 274.537 163.471 274.945 163.777 275.345C165.275 277.393 167.17 279.103 169.162 280.66C169.959 281.292 170.798 281.868 171.642 282.433C172.101 282.394 172.56 282.386 173.018 282.41Z" fill="#B3AC7F"/>
<path d="M167.331 282.813C166.232 282.001 165.154 281.13 164.396 280.534C162.525 278.985 160.588 277.482 158.913 275.713C158.642 275.415 158.379 275.113 158.128 274.799C158.438 275.305 158.779 275.792 159.14 276.258C161.176 278.741 163.839 281.099 166.119 282.876C166.523 282.829 166.927 282.809 167.331 282.813Z" fill="#B3AC7F"/>
<path d="M159.328 283.476C159.776 283.433 160.219 283.409 160.666 283.409C160.093 283.111 159.532 282.789 158.999 282.421C157.52 281.405 156.131 280.036 154.708 278.667C154.355 278.317 154.001 277.961 153.664 277.596C154.013 278.086 154.386 278.557 154.766 279.024C156.026 280.518 157.312 282.032 158.901 283.185C159.042 283.284 159.187 283.382 159.328 283.476Z" fill="#B3AC7F"/>
<path d="M155.002 283.876C153.366 282.935 151.809 281.864 150.479 280.75C150.095 280.44 149.714 280.122 149.322 279.82C149.687 280.189 150.044 280.565 150.408 280.93C151.522 282.036 152.683 283.103 153.978 283.998C154.315 283.939 154.66 283.9 155.002 283.876Z" fill="#B3AC7F"/>
<path d="M149.063 284.049C149.239 284.018 149.416 283.998 149.596 283.986C148.91 283.355 148.243 282.641 147.592 281.974C147.49 281.868 147.384 281.762 147.282 281.656C147.753 282.343 148.243 283.017 148.761 283.672C148.859 283.802 148.961 283.927 149.063 284.049Z" fill="#B3AC7F"/>
<path d="M100.234 237.283C102.14 233.588 104.596 230.493 107.734 227.665C115.281 220.863 123.828 216.646 132.435 213.555C140.362 210.707 147.737 208.561 155.425 206.243C152.832 204.737 150.506 204.219 147.517 204.427C144.524 204.635 140.629 205.235 137.738 206.027C131.631 207.702 127.975 209.726 119.412 211.048C115.873 211.594 112.421 212.982 109.538 215.1C106.906 217.038 104.898 219.863 101.928 221.224C100.555 221.851 99.9788 221.942 98.0371 222.279C96.3347 222.577 95.9738 226.045 95.86 227.767C95.6168 231.634 97.3349 235.577 100.234 237.283Z" fill="#C2BB8A"/>
<path d="M98.0489 222.275C96.8172 228.257 98.1822 234.286 101.717 239.268C105.251 244.25 110.511 248.482 114.732 252.899C122.601 261.137 129.948 271.786 134.404 282.272C123.609 278.416 113.767 271.798 106.761 262.725C99.7552 253.652 95.0245 241.17 94.0282 229.751C93.8948 228.222 93.8242 226.637 94.3459 225.193C94.8598 223.742 96.1032 222.455 98.0489 222.275Z" fill="#C2BB8A"/>
<path d="M155.833 206.354C153.068 204.424 149.514 204.294 146.254 204.416C140.017 204.616 134.114 206.805 128.269 208.793C123.319 210.661 117.854 210.676 113.026 212.897C110.668 213.909 108.573 215.438 106.632 217.102C104.47 219.153 102.642 220.993 99.924 221.644C98.0058 222.134 96.068 222.927 94.597 224.284C94.04 224.916 93.7929 225.735 93.6242 226.551C93.534 226.645 93.483 226.783 93.4634 226.944C93.3143 227.089 93.3065 227.351 93.4477 227.504C93.4477 227.591 93.4477 227.673 93.4437 227.74C93.636 229.501 94.5264 231.149 95.7267 232.435C97.6841 234.785 99.7082 237.084 101.63 239.465C103.27 241.438 104.792 243.513 106.565 245.372C110.927 249.903 115.587 254.171 119.643 258.988C122.02 262.145 124.817 266.088 127.143 269.712C128.873 272.23 130.532 274.804 131.933 277.522C132.666 278.981 133.133 280.197 133.498 281.915C133.545 282.119 133.772 282.257 133.976 282.198C134.18 282.147 134.314 281.923 134.259 281.719C133.278 277.208 130.485 273.364 127.99 269.567C125.194 265.342 122.393 261.086 119.157 257.183C115.191 252.79 110.888 248.718 106.785 244.454C105.149 242.677 103.709 240.732 102.168 238.876C100.242 236.495 98.2176 234.193 96.2563 231.843C95.0952 230.572 94.2518 228.96 94.2322 227.379C94.2322 227.367 94.2361 227.355 94.2361 227.344C94.291 227.265 94.3224 227.171 94.3224 227.077C94.4244 226.516 94.5539 225.959 94.7853 225.437C95.3737 224.147 97.8567 223.033 99.7945 222.495C102.803 221.887 105.039 219.742 107.169 217.686C109.209 215.921 111.26 214.47 113.9 213.371C116.548 212.187 120.357 211.598 123.53 210.959C125.841 210.465 128.077 209.688 130.317 208.954C135.612 207.036 141.092 205.357 146.486 205.196C149.275 205.055 152.185 205.33 154.355 206.365C154.735 206.554 155.08 206.797 155.429 207.032C155.52 207.087 155.629 207.103 155.731 207.075C156.045 206.997 156.135 206.514 155.833 206.354Z" fill="#B3AC7F"/>
<path d="M131.474 281.104C131.521 281.123 131.564 281.143 131.611 281.163C131.858 281.265 132.105 281.367 132.352 281.461C132.019 279.829 131.027 278.436 130.254 276.989C128.477 273.494 126.363 270.187 124.244 266.888C121.997 263.413 119.945 259.568 116.493 257.132C116.066 256.823 115.634 256.521 115.199 256.226C115.771 256.728 116.336 257.234 116.889 257.756C119.157 259.925 120.643 262.734 122.405 265.433C124.825 269.32 127.41 273.113 129.477 277.205C130.136 278.432 131.078 279.903 131.407 280.923C131.438 280.982 131.458 281.041 131.474 281.104Z" fill="#B3AC7F"/>
<path d="M130.328 280.817C130.328 280.817 130.332 280.817 130.328 280.817C130.321 280.778 130.313 280.742 130.289 280.707C128.681 278.35 127.335 275.827 125.931 273.344C124.166 270.245 122.248 267.237 120.322 264.236C117.878 260.58 115.724 256.661 112.68 253.453C112.496 253.264 112.312 253.08 112.123 252.896C112.524 253.39 112.873 253.857 113.234 254.355C114.775 256.551 116.019 258.94 117.45 261.208C120.13 265.413 122.891 269.571 125.354 273.909C126.547 276 127.673 278.146 128.995 280.158C129.438 280.381 129.885 280.601 130.328 280.817Z" fill="#B3AC7F"/>
<path d="M126.292 278.836C126.284 278.805 126.272 278.773 126.257 278.742C125.904 277.957 125.374 277.275 124.919 276.553C124.138 275.329 123.424 274.066 122.707 272.807C120.867 269.61 119.274 266.276 117.442 263.075C115.222 259.301 112.527 255.842 110.095 252.205C109.636 251.546 109.177 250.883 108.703 250.236C109.091 250.942 109.472 251.652 109.864 252.358C111.672 255.822 113.932 259.003 116.05 262.275C117.599 264.754 118.851 267.402 120.251 269.967C121.702 272.732 123.287 275.419 124.946 278.059C125.413 278.283 125.864 278.546 126.292 278.836Z" fill="#B3AC7F"/>
<path d="M77 301.983C77.0235 302.015 77.051 302.042 77.0785 302.066C77.0902 302.081 77.1334 302.12 77.1255 302.081C77.0863 302.046 77.0392 302.018 77 301.983Z" fill="#B3AC7F"/>
<path d="M121.769 276.298C121.781 276.302 121.793 276.302 121.804 276.302C121.82 276.302 121.832 276.306 121.848 276.306C121.887 276.306 121.922 276.314 121.957 276.318C120.867 273.952 119.482 271.72 118.25 269.43C116.277 265.785 114.234 262.184 112.057 258.658C109.734 254.9 107.961 250.844 105.894 246.949C105.761 246.694 105.62 246.447 105.463 246.204C105.71 246.725 105.902 247.274 106.114 247.816C107.22 250.644 108.287 253.504 109.719 256.191C112.076 260.364 114.697 264.385 116.909 268.641C118.156 270.881 119.431 273.109 120.616 275.384C121.024 275.659 121.404 275.969 121.769 276.298Z" fill="#B3AC7F"/>
<path d="M116.407 272.489C115.375 270.01 114.01 267.68 112.833 265.267C109.938 258.116 106.514 251.197 103.293 244.187C103.003 243.536 102.705 242.885 102.423 242.23C102.56 242.712 102.717 243.191 102.866 243.669C105.235 251.185 109.189 258.05 112.029 265.381C113.002 267.444 114.163 269.414 115.116 271.485C115.567 271.799 116.003 272.128 116.407 272.489Z" fill="#B3AC7F"/>
<path d="M110.558 267.147C110.99 267.484 111.382 267.869 111.707 268.3C111.5 267.315 111.096 266.362 110.719 265.436C109.487 262.467 107.883 259.674 106.279 256.897C103.76 252.735 102.328 249.087 101.277 244.384C101.05 243.442 100.83 242.497 100.606 241.555C100.65 241.971 100.697 242.391 100.744 242.807C101.611 253.01 105.6 256.163 109.558 264.73C109.942 265.633 110.284 266.354 110.558 267.147Z" fill="#B3AC7F"/>
<path d="M101.152 254.01C102.003 255.5 102.854 256.987 103.717 258.47C103.745 258.376 103.741 258.278 103.686 258.184C102.509 255.281 101.12 252.088 100.097 248.671C99.2453 245.737 98.6608 242.728 98.092 239.731C98.0214 239.343 97.9547 238.955 97.892 238.566C97.9155 239.17 97.9508 239.778 97.994 240.383C98.2646 243.497 98.6294 246.643 99.5709 249.636C100.038 251.111 100.587 252.582 101.152 254.01Z" fill="#B3AC7F"/>
<path d="M96.0915 240.943C96.1307 241.006 96.1661 241.077 96.1857 241.151C96.2602 241.434 96.3308 241.712 96.4014 241.994C96.5112 242.253 96.6132 242.516 96.6956 242.787C96.4446 240.939 96.5975 238.597 96.5819 236.597C96.4446 237.013 96.221 238.986 96.0915 239.935C96.0719 240.202 96.0562 240.472 96.0405 240.739C96.0601 240.814 96.0758 240.88 96.0915 240.943Z" fill="#B3AC7F"/>
<path d="M94.9343 233.384C94.8087 233.726 94.7028 234.071 94.6048 234.42C94.6283 234.514 94.6518 234.608 94.6636 234.702C94.6675 234.718 94.6793 234.734 94.6832 234.753C94.695 234.832 94.7068 234.91 94.7185 234.989C94.7303 235.044 94.7381 235.102 94.746 235.157C94.848 234.447 94.9382 233.737 95.0676 233.039C95.1186 232.757 94.9696 233.286 94.9343 233.384Z" fill="#B3AC7F"/>
<path d="M98.8334 234.479C98.296 232.223 97.9783 230.297 97.9038 228.022C97.8802 227.583 97.8489 227.143 97.8332 226.704C97.7586 227.335 97.7116 227.971 97.6684 228.606C97.4723 230.638 97.7037 232.67 98.147 234.655C98.2686 235.094 98.9472 234.926 98.8334 234.479Z" fill="#B3AC7F"/>
<path d="M101.924 234.4C101.956 234.369 101.991 234.338 102.023 234.306C101.626 231.219 101.713 227.748 102.058 224.46C102.097 224.049 102.14 223.637 102.183 223.225C102.05 223.786 101.924 224.347 101.811 224.912C101.364 227.108 101.05 229.344 101.054 231.588C101.065 232.816 101.195 234.043 101.371 235.26C101.485 234.938 101.693 234.644 101.924 234.4Z" fill="#B3AC7F"/>
<path d="M105.741 229.787C106.251 226.186 106.318 222.479 106.926 218.96C106.973 218.678 107.024 218.395 107.075 218.109C106.91 218.639 106.749 219.168 106.608 219.702C105.796 222.828 105.423 226.045 105.039 229.246C104.964 229.822 104.929 230.05 104.839 230.564C105.117 230.277 105.416 230.018 105.741 229.787Z" fill="#B3AC7F"/>
<path d="M112.123 217.054C111.233 219.424 110.154 221.73 109.491 224.178C109.279 224.962 109.103 225.759 108.985 226.563C108.997 226.555 109.001 226.547 109.013 226.539C109.303 226.335 109.593 226.131 109.883 225.931C110.433 222.891 111.719 219.749 112.457 216.623C112.559 216.18 112.645 215.732 112.727 215.285C112.539 215.881 112.339 216.47 112.123 217.054Z" fill="#B3AC7F"/>
<path d="M117.678 213.956C116.144 216.443 115.156 219.224 114.375 222.024C114.312 222.252 114.253 222.479 114.191 222.707C114.469 222.421 114.803 222.197 115.163 222.032C115.901 219.196 116.666 216.341 117.909 213.767C118.023 213.52 118.141 213.269 118.262 213.026C118.058 213.332 117.866 213.646 117.678 213.956Z" fill="#B3AC7F"/>
<path d="M121.769 218.172C122.185 217.235 122.593 216.376 123.115 215.171C123.57 214.155 124.048 213.151 124.48 212.124C124.193 212.61 123.887 213.085 123.593 213.567C122.64 215.117 121.753 216.709 120.945 218.341C120.898 218.455 120.843 218.568 120.785 218.682C121.102 218.478 121.428 218.306 121.769 218.172Z" fill="#B3AC7F"/>
<path d="M127.881 215.325C128.147 215.246 128.418 215.172 128.685 215.093C128.724 215.011 128.767 214.928 128.81 214.842C129.591 213.34 130.469 211.888 131.34 210.437C130.909 210.853 129.861 212.234 129.234 213.112C128.759 213.826 128.245 214.544 127.877 215.325C127.877 215.325 127.877 215.325 127.881 215.325Z" fill="#B3AC7F"/>
<path d="M137.334 209.264C135.93 210.449 134.706 211.826 133.549 213.25C133.8 213.179 134.047 213.105 134.294 213.034C134.447 212.971 134.604 212.912 134.765 212.865C136.134 211.124 137.526 209.508 139.186 207.84C139.343 207.672 139.5 207.503 139.66 207.334C138.88 207.974 138.107 208.617 137.334 209.264Z" fill="#B3AC7F"/>
<path d="M144.211 208.393C143.485 209.044 142.779 209.731 142.155 210.484C142.52 210.342 142.885 210.209 143.25 210.076C144.03 209.142 144.932 208.189 145.827 207.177C145.991 206.993 146.152 206.808 146.313 206.624C145.607 207.204 144.897 207.785 144.211 208.393Z" fill="#B3AC7F"/>
<path d="M148.576 208.534C148.906 208.436 149.232 208.322 149.557 208.209C150.118 207.699 150.683 207.193 151.236 206.671C151.291 206.624 151.338 206.573 151.393 206.53C150.628 207.001 149.898 207.534 149.161 208.048C148.926 208.22 148.694 208.405 148.467 208.589C148.506 208.57 148.537 208.546 148.576 208.534Z" fill="#B3AC7F"/>
<path d="M392.53 276.09C392.53 278.267 390.764 280.032 388.591 280.032C386.414 280.032 384.649 278.267 384.649 276.09C384.649 273.913 386.414 272.148 388.591 272.148C390.768 272.148 392.53 273.913 392.53 276.09Z" fill="#707468"/>
<g opacity="0.5">
<g opacity="0.5">
<path opacity="0.5" d="M394.103 274.481C394.252 274.991 394.334 275.529 394.334 276.086C394.334 279.259 391.761 281.828 388.591 281.828C386.261 281.828 384.261 280.44 383.358 278.447C384.053 280.836 386.257 282.585 388.87 282.585C392.043 282.585 394.612 280.012 394.612 276.843C394.616 276.003 394.428 275.203 394.103 274.481Z" fill="#645638"/>
</g>
</g>
<path d="M390.576 276.09C390.576 277.184 389.69 278.075 388.591 278.075C387.497 278.075 386.606 277.188 386.606 276.09C386.606 274.991 387.493 274.105 388.591 274.105C389.686 274.105 390.576 274.991 390.576 276.09Z" fill="black"/>
<path d="M388.87 275.666C388.87 276.117 388.505 276.482 388.054 276.482C387.603 276.482 387.238 276.117 387.238 275.666C387.238 275.215 387.603 274.85 388.054 274.85C388.505 274.85 388.87 275.215 388.87 275.666Z" fill="white"/>
<g opacity="0.5">
<g opacity="0.5">
<path opacity="0.5" d="M391.266 274.431C391.266 274.431 391.329 274.502 391.423 274.643C391.521 274.784 391.643 275.008 391.737 275.31C391.933 275.898 391.973 276.879 391.408 277.749C390.839 278.612 389.921 278.969 389.305 279.024C388.991 279.056 388.74 279.036 388.568 279.001C388.399 278.969 388.309 278.942 388.309 278.942C388.309 278.942 388.411 278.926 388.568 278.899C388.729 278.867 388.96 278.809 389.223 278.699C389.748 278.491 390.403 278.052 390.847 277.381C391.286 276.71 391.423 275.933 391.404 275.364C391.396 275.082 391.361 274.843 391.321 274.682C391.29 274.533 391.266 274.431 391.266 274.431Z" fill="white"/>
</g>
</g>
<g opacity="0.5">
<g opacity="0.5">
<path opacity="0.5" d="M391.466 272.049C391.466 272.049 391.392 272.006 391.282 271.94C391.168 271.865 390.992 271.775 390.78 271.669C390.348 271.457 389.733 271.233 389.034 271.104C388.332 270.979 387.677 270.971 387.199 271.018C386.959 271.041 386.767 271.065 386.634 271.096C386.508 271.12 386.422 271.135 386.422 271.135C386.422 271.135 386.496 271.096 386.61 271.037C386.728 270.975 386.92 270.896 387.155 270.822C387.63 270.669 388.34 270.571 389.105 270.708C389.87 270.849 390.498 271.194 390.886 271.5C391.082 271.653 391.231 271.791 391.321 271.896C391.412 271.987 391.466 272.049 391.466 272.049Z" fill="white"/>
</g>
</g>
<g opacity="0.5">
<g opacity="0.5">
<path opacity="0.5" d="M385.508 271.955C385.508 271.955 385.308 272.32 384.994 272.72C384.68 273.116 384.37 273.395 384.37 273.395C384.37 273.395 384.57 273.03 384.884 272.63C385.198 272.234 385.508 271.955 385.508 271.955Z" fill="white"/>
</g>
</g>
<path d="M419.407 276.125C419.062 276.074 417.846 275.78 417.846 275.78C417.846 275.78 416.948 277.737 413.359 282.154C409.483 286.92 400.838 289.842 400.838 289.842C400.857 289.838 398.994 293.275 402.626 294.345C404.09 294.777 406.843 293.522 407.938 292.894C413.441 289.74 430.308 277.768 419.407 276.125Z" fill="#F0EFEE"/>
<path d="M324.221 292.078C324.354 291.619 324.491 291.145 324.789 290.776C325.088 290.407 325.597 290.16 326.052 290.305C326.61 290.486 326.849 291.16 326.821 291.741C326.766 292.976 325.778 294.11 324.558 294.33C323.911 294.447 323.079 294.192 322.961 293.545C322.891 293.149 323.126 292.753 323.444 292.51C323.77 292.27 324.193 292.168 324.221 292.078Z" fill="#9D9F9D"/>
<path d="M330.497 290.886C330.63 290.38 330.767 289.858 331.066 289.45C331.368 289.042 331.874 288.772 332.329 288.933C332.886 289.133 333.125 289.874 333.098 290.513C333.043 291.875 332.054 293.122 330.834 293.365C330.187 293.495 329.355 293.216 329.238 292.498C329.167 292.063 329.402 291.624 329.72 291.361C330.046 291.102 330.469 290.992 330.497 290.886Z" fill="#9D9F9D"/>
<path d="M336.381 289.799C336.514 289.293 336.651 288.771 336.95 288.363C337.252 287.955 337.758 287.685 338.213 287.846C338.77 288.046 339.009 288.787 338.982 289.426C338.927 290.788 337.938 292.035 336.718 292.278C336.071 292.408 335.239 292.129 335.122 291.411C335.051 290.976 335.286 290.537 335.604 290.274C335.93 290.011 336.353 289.901 336.381 289.799Z" fill="#9D9F9D"/>
<path d="M343.834 287.544C343.967 287.038 344.105 286.517 344.403 286.109C344.705 285.701 345.211 285.43 345.666 285.591C346.223 285.791 346.462 286.532 346.435 287.172C346.38 288.533 345.391 289.78 344.171 290.023C343.524 290.153 342.692 289.874 342.575 289.156C342.504 288.721 342.739 288.282 343.057 288.019C343.383 287.756 343.806 287.646 343.834 287.544Z" fill="#9D9F9D"/>
<path d="M351.189 285.771C351.314 285.143 351.448 284.496 351.738 283.99C352.028 283.484 352.515 283.147 352.954 283.347C353.487 283.594 353.719 284.512 353.695 285.312C353.64 287.002 352.691 288.548 351.518 288.85C350.895 289.011 350.094 288.662 349.984 287.775C349.918 287.238 350.141 286.689 350.451 286.363C350.761 286.038 351.165 285.896 351.189 285.771Z" fill="#9D9F9D"/>
<path d="M364.722 282.813C364.847 282.154 364.981 281.475 365.271 280.942C365.561 280.408 366.048 280.055 366.487 280.267C367.021 280.526 367.252 281.491 367.228 282.331C367.173 284.107 366.224 285.731 365.051 286.049C364.428 286.218 363.627 285.853 363.518 284.919C363.451 284.355 363.674 283.778 363.984 283.437C364.294 283.095 364.698 282.946 364.722 282.813Z" fill="#9D9F9D"/>
<path d="M357.665 284.68C357.771 284.052 357.885 283.405 358.128 282.899C358.371 282.393 358.783 282.056 359.152 282.256C359.603 282.503 359.795 283.421 359.775 284.221C359.728 285.912 358.928 287.457 357.944 287.759C357.418 287.92 356.747 287.571 356.653 286.684C356.594 286.147 356.786 285.598 357.045 285.272C357.3 284.943 357.642 284.809 357.665 284.68Z" fill="#9D9F9D"/>
<path opacity="0.5098" d="M96.1346 255.523C106.969 267.832 114.995 285.214 146.752 288.191C159.693 289.403 171.536 288.124 184.441 286.579C241.265 279.777 277.302 274.744 334.125 267.942C358.626 265.012 361.415 264.279 371.422 272.022C374.23 274.195 364.13 277.184 361.372 277.768C309.907 288.666 257.767 296.385 205.353 300.877C184.198 302.689 162.929 302.513 141.912 299.48C128.139 297.495 118.502 291.251 112.013 286.838C102.972 280.695 93.581 261.952 96.1346 255.523Z" fill="#6E6E6E"/>
<path opacity="0.5882" d="M147.207 293.255C183.704 296.174 281.844 278.836 350.357 268.029C352.64 267.668 361.262 270.657 365.122 273.097C367.072 274.329 355.778 275.964 353.519 276.408C313.5 284.253 273.917 290.156 233.808 295.754C204.423 299.853 188.623 297.939 166.621 298.971C159.544 299.3 152.421 299.324 145.446 298.088C128.975 295.17 112.676 281.593 119.372 283.908C126.166 286.257 137.66 292.49 147.207 293.255Z" fill="#6B6B6B"/>
<path d="M421.788 278.031C421.255 276.462 419.329 276.438 417.956 276.642C420.467 276.987 421.608 277.497 421.51 280.153C421.463 280.474 421.322 280.863 421.118 281.157C421.224 281.075 421.314 280.977 421.396 280.875C422.067 280.106 422.043 278.964 421.788 278.031Z" fill="#FFFCFC"/>
<path d="M404.486 292.914C403.466 293.204 402.826 293.278 401.967 292.619C401.61 292.36 401.069 291.756 401.065 291.152C400.885 292.039 401.469 292.874 402.132 293.4C403.999 294.734 407.004 292.992 408.553 291.772C409.107 291.348 409.656 290.913 410.197 290.466C408.165 291.36 406.478 292.349 404.486 292.914Z" fill="#FFFCFC"/>
<path d="M367.699 280.444C368.503 281.986 367.342 284.175 366.522 285.54C366.271 286.042 364.914 287.352 366.114 286.407C367.797 285.202 369.268 282.237 367.699 280.444Z" fill="#FFFCFC"/>
<path d="M359.866 282.351C360.085 282.888 360.313 283.449 360.317 283.978C360.36 284.645 360.176 285.23 359.924 285.908C359.713 286.477 358.818 287.85 358.002 288.47C360.391 287.474 361.847 284.449 359.866 282.351Z" fill="#FFFCFC"/>
<path d="M354.452 285.065C354.374 284.461 354.17 283.723 353.57 283.449C354.684 284.665 353.621 286.948 352.844 288.046C352.491 288.548 352.099 288.98 351.656 289.446C351.867 289.325 352.075 289.199 352.275 289.062C353.586 288.191 354.617 286.697 354.452 285.065Z" fill="#FFFCFC"/>
<path d="M347.019 286.438C346.909 286.085 346.646 285.618 346.211 285.74C346.584 285.736 346.705 286.132 346.744 286.438C346.803 286.854 346.709 287.254 346.568 287.685C346.38 288.207 346.113 288.78 345.779 289.199C345.477 289.576 345.128 289.906 344.775 290.231C344.971 290.133 345.168 290.031 345.356 289.917C346.54 289.258 347.392 287.791 347.019 286.438Z" fill="#FFFCFC"/>
<path d="M339.166 287.924C339.55 288.693 339.307 289.721 339.013 290.345C338.53 291.282 337.969 292.098 337.263 292.835C338.903 291.957 340.547 289.658 339.166 287.924Z" fill="#FFFCFC"/>
<path d="M334.066 289.851C334.019 289.446 333.796 288.944 333.329 288.937C334.063 289.227 333.737 290.349 333.56 290.886C333.302 291.569 332.843 292.404 332.352 293.012C332.215 293.271 331.195 294.036 331.862 293.655C333.203 292.949 334.278 291.416 334.066 289.851Z" fill="#FFFCFC"/>
<path d="M327.057 290.282C327.421 291.557 326.645 292.903 325.994 293.805C325.821 294.099 324.938 294.691 325.519 294.397C326.955 293.75 327.963 291.702 327.057 290.282Z" fill="#FFFCFC"/>
<path d="M376.643 293.957C374.191 294.525 371.771 295.216 369.347 295.883C367.989 296.259 366.624 296.612 365.267 297.001C365.349 297.001 365.432 296.997 365.518 296.997C369.876 296.942 374.242 296.295 378.33 294.745C380.161 294.035 382.111 293.608 383.857 292.69C381.464 293.18 379.004 293.294 376.643 293.957Z" fill="#FFFCFC"/>
<path d="M332.67 301.186C329.908 301.833 328.108 302.088 325.284 302.124C331.332 303.795 337.467 301.504 343.214 299.699C339.664 299.903 336.138 300.425 332.67 301.186Z" fill="#FFFCFC"/>
<path d="M242.088 311.193C239.711 311.719 237.342 312.264 234.965 312.778C233.368 313.123 231.752 313.406 230.226 314.01C232.093 313.735 234.008 313.829 235.898 313.704C238.632 313.547 241.355 313.217 244.05 312.739C249.2 311.77 254.147 309.961 259.132 308.385C254.998 308.459 247.329 310.087 242.088 311.193Z" fill="#FFFCFC"/>
<path d="M277.525 305.764C281.46 305.686 285.398 305.502 289.293 304.901C293.334 304.293 297.311 303.336 301.265 302.316C293.232 302.32 285.265 303.654 277.525 305.764Z" fill="#FFFCFC"/>
<path d="M179.157 315.756C181.707 316.238 184.292 316.583 186.893 316.615C190.207 316.611 193.502 316.203 196.801 315.913C190.968 314.865 185.03 315.383 179.157 315.756Z" fill="#FFFCFC"/>
<path d="M111.543 296.648C109.115 293.526 105.718 289.544 103.831 287.002C102.47 285.269 101.536 283.248 100.159 281.53C100.701 282.448 101.014 283.292 101.403 284.241C103.552 289.254 107.44 293.188 111.382 296.844C111.739 297.186 112.096 297.523 112.461 297.848C112.151 297.452 111.849 297.048 111.543 296.648Z" fill="#FFFCFC"/>
<path d="M142.253 312.931C139.319 312.515 136.385 312.025 133.408 312.15C136.652 312.566 139.774 313.582 142.998 314.068C146.819 314.621 150.695 314.594 154.547 314.543C150.467 313.907 146.356 313.441 142.253 312.931Z" fill="#FFFCFC"/>
<path d="M116.705 254.515C116.823 254.581 116.929 254.676 117.015 254.789C117.223 255.068 117.431 255.346 117.639 255.621C117.454 254.519 117.419 253.448 117.541 252.177C117.686 250.039 118.435 247.783 120.173 246.14C117.454 247.827 116.36 251.243 116.674 254.311C116.685 254.381 116.697 254.448 116.705 254.515Z" fill="#FFFCFC"/>
<path d="M128.304 240.119C131.917 238.601 135.542 237.004 138.672 234.604C135.102 236.22 131.493 237.808 128.304 240.119Z" fill="#FFFCFC"/>
<path d="M163.228 222.047C162.875 222.188 162.51 222.333 162.227 222.447C160.811 223.012 159.376 223.522 157.971 224.114C155.194 225.26 152.562 226.715 149.855 228.009C154.586 226.754 159.109 224.687 163.247 222.086C163.404 221.98 163.479 221.945 163.228 222.047Z" fill="#FFFCFC"/>
<path d="M175.039 216.756C178.875 215.03 184.002 213.135 187.003 211.091C182.829 212.547 178.616 214.084 175.039 216.756Z" fill="#FFFCFC"/>
<path opacity="0.7804" d="M107.346 239.966C111.307 231.662 119.157 224.342 127.492 220.443C144.885 212.3 160.313 207.4 179.942 203.591C182.582 203.078 199.273 198.731 199.598 199.661C199.845 200.363 184.959 205.808 184.292 206.141C171.049 212.712 159.787 213.453 147.513 219.541C135.914 225.295 123.354 231.536 115.156 241.559C110.213 247.6 111.256 247.258 107.703 243.971C106.636 242.987 106.412 241.923 107.346 239.966Z" fill="#787878"/>
<path opacity="0.651" d="M229.705 289.764C228.383 290.608 227.331 291.941 226.778 293.491C226.225 295.04 226.166 296.79 226.621 298.374C226.696 298.633 226.794 298.9 226.998 299.057C227.437 299.39 228.034 298.994 228.406 298.574C230.407 296.272 230.881 292.569 229.705 289.764Z" fill="#FFFCFC"/>
<path opacity="0.651" d="M237.836 299.237C236.048 301.104 234.957 303.619 234.812 306.2C234.784 306.71 234.816 307.282 235.188 307.632C235.479 307.906 235.926 307.969 236.314 307.867C236.703 307.765 237.036 307.522 237.322 307.243C238.358 306.235 238.852 304.752 238.837 303.305C238.821 301.865 238.334 300.457 237.836 299.237Z" fill="#FFFCFC"/>
<path opacity="0.651" d="M270.116 284.641C268.327 286.508 267.236 289.023 267.091 291.604C267.064 292.114 267.095 292.686 267.468 293.036C267.758 293.31 268.205 293.373 268.594 293.271C268.982 293.169 269.315 292.926 269.602 292.647C270.637 291.639 271.132 290.156 271.116 288.709C271.1 287.265 270.614 285.857 270.116 284.641Z" fill="#FFFCFC"/>
<path opacity="0.651" d="M305.231 280.302C303.442 282.17 302.352 284.684 302.207 287.265C302.179 287.775 302.211 288.348 302.583 288.697C302.874 288.972 303.321 289.034 303.709 288.932C304.098 288.83 304.431 288.587 304.717 288.309C305.753 287.3 306.247 285.818 306.231 284.37C306.216 282.927 305.729 281.519 305.231 280.302Z" fill="#FFFCFC"/>
<path opacity="0.651" d="M330.336 274.026C328.547 275.894 327.457 278.408 327.312 280.989C327.284 281.499 327.316 282.072 327.688 282.421C327.979 282.695 328.426 282.758 328.814 282.656C329.202 282.554 329.536 282.311 329.822 282.032C330.858 281.024 331.352 279.542 331.336 278.094C331.321 276.651 330.834 275.242 330.336 274.026Z" fill="#FFFCFC"/>
<path opacity="0.651" d="M250.408 303.925C249.745 304.058 249.137 304.438 248.726 304.972C248.58 305.16 248.451 305.403 248.533 305.627C248.612 305.843 248.843 305.949 249.055 306.035C249.467 306.204 249.883 306.372 250.326 306.423C250.765 306.478 251.24 306.404 251.589 306.125C251.938 305.851 252.119 305.341 251.934 304.937C251.66 304.336 250.836 304.266 250.408 303.925Z" fill="#FFFCFC"/>
<path opacity="0.651" d="M253.633 291.844C252.785 292.044 252.04 292.624 251.624 293.389C251.208 294.154 251.122 295.088 251.369 295.923C251.479 296.288 251.66 296.649 251.969 296.868C252.334 297.131 252.828 297.159 253.256 297.017C254.217 296.696 254.747 295.594 254.707 294.578C254.668 293.562 254.174 292.624 253.633 291.844Z" fill="#FFFCFC"/>
<path opacity="0.651" d="M289.572 288.979C288.093 289.917 287.042 291.427 286.418 293.063C285.794 294.699 285.567 296.456 285.477 298.206C285.445 298.825 285.504 299.578 286.053 299.869C286.398 300.049 286.834 299.967 287.155 299.755C287.477 299.543 287.713 299.218 287.924 298.896C289.811 295.989 290.431 292.298 289.572 288.979Z" fill="#FFFCFC"/>
<path opacity="0.651" d="M318.572 283.484C317.093 284.421 316.042 285.931 315.418 287.567C314.795 289.203 314.567 290.96 314.477 292.71C314.445 293.329 314.504 294.083 315.053 294.373C315.399 294.553 315.834 294.471 316.156 294.259C316.481 294.047 316.713 293.722 316.925 293.4C318.807 290.497 319.427 286.802 318.572 283.484Z" fill="#FFFCFC"/>
<path opacity="0.651" d="M270.08 298.621C268.786 298.861 267.652 299.83 267.213 301.073C266.966 301.775 266.97 302.65 267.515 303.156C267.927 303.54 268.547 303.611 269.108 303.56C269.837 303.497 270.618 303.207 270.963 302.56C271.308 301.905 271.104 301.104 270.853 300.41C270.598 299.72 270.296 298.982 270.08 298.621Z" fill="#FFFCFC"/>
<path opacity="0.651" d="M131.007 224.157C130.552 225.648 130.634 227.338 131.238 228.825C131.356 229.119 131.525 229.433 131.815 229.539C132.043 229.621 132.294 229.547 132.47 229.394C132.647 229.241 132.76 229.021 132.839 228.794C133.121 227.97 132.992 227.013 132.604 226.201C132.215 225.389 131.588 224.718 131.007 224.157Z" fill="#FFFCFC"/>
<path opacity="0.651" d="M162.588 210.056C162.29 211.476 162.471 213.12 163.086 214.602C163.208 214.897 163.373 215.211 163.628 215.332C163.828 215.426 164.04 215.371 164.185 215.234C164.33 215.097 164.412 214.893 164.463 214.677C164.655 213.896 164.483 212.959 164.095 212.147C163.714 211.335 163.13 210.641 162.588 210.056Z" fill="#FFFCFC"/>
<path opacity="0.651" d="M120.482 242.297C119.965 242.63 119.553 243.085 119.345 243.548C119.27 243.713 119.231 243.897 119.357 243.991C119.478 244.081 119.702 244.05 119.902 244.019C120.29 243.952 120.686 243.881 121.071 243.74C121.455 243.599 121.832 243.371 122.052 243.077C122.271 242.783 122.291 242.43 122.028 242.273C121.64 242.038 120.93 242.324 120.482 242.297Z" fill="#FFFCFC"/>
<path opacity="0.651" d="M119.192 234.607C118.823 234.917 118.604 235.419 118.596 235.949C118.588 236.478 118.792 237.024 119.133 237.435C119.282 237.616 119.471 237.777 119.682 237.828C119.933 237.89 120.188 237.792 120.365 237.612C120.761 237.208 120.734 236.463 120.447 235.902C120.161 235.341 119.671 234.925 119.192 234.607Z" fill="#FFFCFC"/>
<path opacity="0.651" d="M154.194 217.858C153.354 218.999 153.009 220.27 153.033 221.424C153.052 222.577 153.417 223.628 153.884 224.613C154.049 224.962 154.323 225.346 154.829 225.268C155.147 225.217 155.453 224.985 155.637 224.734C155.822 224.483 155.9 224.205 155.963 223.938C156.512 221.553 155.857 219.29 154.194 217.858Z" fill="#FFFCFC"/>
<path opacity="0.651" d="M173.022 209.008C172.183 210.15 171.838 211.421 171.861 212.574C171.881 213.727 172.246 214.779 172.713 215.763C172.877 216.112 173.152 216.497 173.658 216.418C173.976 216.367 174.282 216.136 174.466 215.885C174.65 215.63 174.729 215.355 174.792 215.088C175.341 212.703 174.69 210.436 173.022 209.008Z" fill="#FFFCFC"/>
<path opacity="0.651" d="M144.505 216.426C143.65 217.556 143.293 218.807 143.297 219.933C143.301 221.063 143.65 222.087 144.097 223.044C144.258 223.385 144.524 223.754 145.03 223.671C145.348 223.62 145.658 223.389 145.842 223.138C146.027 222.887 146.113 222.616 146.176 222.353C146.76 220.015 146.141 217.803 144.505 216.426Z" fill="#FFFCFC"/>
<path opacity="0.651" d="M141.724 227.676C140.998 228.178 140.563 229.049 140.621 229.873C140.653 230.34 140.888 230.83 141.351 230.959C141.704 231.057 142.096 230.924 142.426 230.736C142.853 230.492 143.253 230.108 143.289 229.645C143.328 229.178 142.995 228.786 142.657 228.464C142.32 228.143 141.947 227.817 141.724 227.676Z" fill="#FFFCFC"/>
<path opacity="0.651" d="M345.003 275.885C343.708 276.125 342.575 277.094 342.135 278.337C341.888 279.039 341.892 279.914 342.437 280.42C342.849 280.804 343.469 280.875 344.03 280.824C344.76 280.761 345.54 280.471 345.885 279.824C346.231 279.169 346.027 278.369 345.776 277.674C345.525 276.98 345.219 276.246 345.003 275.885Z" fill="#FFFCFC"/>
<path opacity="0.651" d="M307.212 296.146C305.918 296.385 304.784 297.354 304.345 298.597C304.098 299.299 304.101 300.174 304.647 300.68C305.059 301.065 305.678 301.135 306.239 301.084C306.969 301.021 307.749 300.731 308.095 300.084C308.44 299.429 308.236 298.629 307.985 297.934C307.734 297.24 307.428 296.502 307.212 296.146Z" fill="#FFFCFC"/>
<path opacity="0.651" d="M137.271 302.23C136.051 304.022 135.31 306.443 135.212 308.922C135.192 309.412 135.216 309.961 135.471 310.299C135.671 310.561 135.973 310.624 136.236 310.526C136.499 310.428 136.726 310.193 136.922 309.926C137.628 308.957 137.966 307.533 137.954 306.145C137.938 304.752 137.609 303.399 137.271 302.23Z" fill="#FFFCFC"/>
<path opacity="0.651" d="M170.375 294.898C168.586 296.766 167.495 299.28 167.35 301.861C167.323 302.371 167.354 302.944 167.727 303.293C168.017 303.567 168.464 303.63 168.853 303.528C169.241 303.426 169.574 303.183 169.861 302.905C170.896 301.896 171.391 300.414 171.375 298.966C171.359 297.527 170.873 296.118 170.375 294.898Z" fill="#FFFCFC"/>
<path opacity="0.651" d="M205.627 292.003C203.839 294.196 202.748 297.154 202.603 300.182C202.576 300.782 202.607 301.457 202.98 301.865C203.27 302.187 203.717 302.261 204.105 302.143C204.494 302.026 204.827 301.735 205.113 301.41C206.149 300.225 206.643 298.484 206.628 296.785C206.612 295.087 206.126 293.435 205.627 292.003Z" fill="#FFFCFC"/>
<path opacity="0.651" d="M128.367 291.844C127.496 293.503 126.967 295.747 126.896 298.045C126.884 298.5 126.9 299.01 127.08 299.32C127.222 299.563 127.437 299.622 127.626 299.532C127.814 299.442 127.975 299.226 128.116 298.975C128.622 298.077 128.861 296.755 128.854 295.468C128.846 294.181 128.606 292.926 128.367 291.844Z" fill="#FFFCFC"/>
<path opacity="0.651" d="M154.731 313.394C154.068 313.528 153.46 313.908 153.048 314.442C152.903 314.63 152.774 314.873 152.856 315.097C152.934 315.312 153.166 315.418 153.378 315.505C153.79 315.673 154.205 315.842 154.649 315.893C155.088 315.948 155.563 315.873 155.912 315.595C156.261 315.316 156.441 314.81 156.257 314.406C155.982 313.806 155.155 313.736 154.731 313.394Z" fill="#FFFCFC"/>
<path opacity="0.651" d="M155.241 299.602C154.394 299.802 153.648 300.382 153.233 301.147C152.817 301.912 152.731 302.846 152.978 303.681C153.088 304.046 153.268 304.407 153.578 304.626C153.943 304.889 154.437 304.917 154.865 304.776C155.826 304.454 156.355 303.352 156.316 302.336C156.273 301.324 155.782 300.382 155.241 299.602Z" fill="#FFFCFC"/>
<path opacity="0.651" d="M193.895 298.445C192.416 299.382 191.365 300.893 190.741 302.528C190.117 304.164 189.89 305.921 189.8 307.671C189.768 308.291 189.827 309.044 190.376 309.334C190.721 309.515 191.157 309.432 191.478 309.22C191.804 309.009 192.035 308.683 192.247 308.361C194.13 305.459 194.75 301.763 193.895 298.445Z" fill="#FFFCFC"/>
<path opacity="0.651" d="M174.403 308.09C173.109 308.33 171.975 309.299 171.536 310.542C171.289 311.244 171.292 312.119 171.838 312.625C172.25 313.009 172.869 313.08 173.43 313.029C174.16 312.966 174.94 312.676 175.286 312.029C175.631 311.374 175.427 310.573 175.176 309.879C174.917 309.189 174.615 308.451 174.403 308.09Z" fill="#FFFCFC"/>
<path opacity="0.651" d="M211.535 305.611C210.24 305.85 209.107 306.819 208.668 308.062C208.42 308.765 208.424 309.639 208.97 310.145C209.381 310.53 210.001 310.6 210.562 310.549C211.292 310.487 212.072 310.196 212.418 309.549C212.763 308.894 212.559 308.094 212.308 307.4C212.049 306.709 211.747 305.972 211.535 305.611Z" fill="#FFFCFC"/>
<path opacity="0.651" d="M117.964 289.524C117.093 289.763 116.332 290.732 116.038 291.976C115.873 292.678 115.873 293.553 116.242 294.059C116.521 294.443 116.933 294.514 117.313 294.463C117.803 294.4 118.329 294.11 118.557 293.463C118.788 292.807 118.651 292.007 118.482 291.313C118.309 290.623 118.105 289.885 117.964 289.524Z" fill="#FFFCFC"/>
<path d="M415.144 277.746C413.437 280.57 410.691 282.292 408.428 283.971C407.341 284.74 405.78 285.822 404.988 286.493C403.956 287.281 402.779 287.842 401.673 288.505C402.575 288.144 403.525 287.901 404.399 287.462C405.431 287.003 406.341 286.324 407.33 285.783C410.789 283.728 414.52 281.119 415.708 277.067C415.803 276.714 415.901 276.361 415.999 276.008C415.705 276.581 415.461 277.181 415.144 277.746Z" fill="#F0EFEE"/>
<path d="M412.233 278.444C411.276 279.522 410.252 280.554 409.122 281.452C411.645 280.197 413.845 278 414.775 275.313C414.081 276.518 413.202 277.424 412.233 278.444Z" fill="#F0EFEE"/>
<path d="M408.836 279.926C410.531 278.474 412.496 277.031 413.308 274.873C412.021 276.721 410.134 278.074 408.836 279.926Z" fill="#F0EFEE"/>
</svg>
