<svg width="500" height="500" viewBox="0 0 500 500" fill="none" xmlns="http://www.w3.org/2000/svg">
<path d="M187.706 283.085C187.365 283.341 187.166 283.739 187.024 284.137C185.632 287.519 186.427 291.356 186.797 294.994C187.223 299.172 187.024 303.435 186.228 307.556C186.115 308.21 186.001 308.977 186.513 309.375C186.797 309.602 187.166 309.631 187.507 309.631C190.378 309.659 193.135 308.437 195.693 307.158C206.607 301.758 216.782 294.937 226.189 287.178C228.974 284.876 231.987 281.692 231.134 278.197C230.594 275.923 228.548 274.331 226.445 273.308C218.771 269.556 211.723 272.171 204.503 275.411C202.343 276.378 200.24 277.316 198.166 278.481C196.517 279.419 194.954 280.499 193.22 281.238C191.685 281.977 189.014 282.033 187.706 283.085Z" fill="#EF7625"/>
<path d="M223.944 278.083C219.624 276.065 214.622 276.605 209.847 276.463C207.573 276.377 205.214 276.15 202.94 276.178C201.349 276.917 199.757 277.656 198.222 278.538C197.114 279.163 196.062 279.845 194.982 280.442C195.494 281.976 197.853 282.573 198.734 284.108C199.587 285.586 198.961 287.746 200.212 288.883C200.439 289.082 200.723 289.252 200.922 289.48C201.917 290.73 199.672 292.748 200.638 294.027C201.207 294.795 202.4 294.539 203.253 294.169C205.242 293.317 207.147 292.265 208.88 290.986C204.049 295.932 198.535 300.223 192.51 303.634C190.719 304.657 188.531 305.623 186.655 304.827C186.541 305.765 186.399 306.675 186.2 307.613C186.086 308.266 185.973 309.034 186.484 309.432C186.768 309.659 187.138 309.688 187.479 309.688C190.35 309.716 193.106 308.494 195.664 307.215C206.578 301.815 216.753 294.994 226.161 287.234C227.44 286.183 228.747 284.961 229.742 283.597C228.406 281.209 226.445 279.248 223.944 278.083Z" fill="#B75B1D"/>
<path d="M111.821 231.301C111.366 231.301 110.854 231.358 110.57 231.727C110.343 232.011 110.371 232.409 110.4 232.75C110.741 235.962 112.844 238.662 114.464 241.476C116.709 245.426 118.074 249.917 118.358 254.465C118.443 255.8 118.443 257.136 118.102 258.415C117.505 260.689 115.857 262.536 114.322 264.327C111.792 267.226 109.291 270.238 107.558 273.706C105.852 277.173 104.971 281.181 105.852 284.932C111.11 284.336 116.397 283.739 121.655 283.142C126.657 282.573 131.659 282.005 136.548 280.783C145.841 278.424 154.368 273.677 162.411 268.448C166.817 265.577 170.369 261.797 167.669 256.426C165.907 252.93 163.321 251.878 159.938 250.429C155.164 248.382 151.242 245 146.865 242.3C141.806 239.174 136.434 236.474 130.806 234.513C124.724 232.381 118.301 231.159 111.821 231.301Z" fill="#EF7625"/>
<path d="M147.007 242.272C141.948 239.145 136.576 236.445 130.949 234.484C124.866 232.381 118.415 231.159 111.963 231.301C111.508 231.301 110.997 231.358 110.712 231.727C110.485 232.011 110.513 232.409 110.542 232.75C110.599 233.319 110.741 233.887 110.883 234.456C111.394 234.712 111.963 234.91 112.531 235.053C118.841 236.843 125.492 237.412 131.631 239.714C135.098 241.021 138.679 243.238 139.589 246.819C140.726 251.253 137.343 255.63 137.201 260.206C137.088 263.645 138.764 267.283 137.23 270.352C136.178 272.399 133.99 273.535 131.915 274.53C123.758 278.452 115.402 282.374 106.421 283.483C106.222 283.511 105.994 283.54 105.795 283.597C105.852 284.051 105.938 284.506 106.023 284.932C111.281 284.336 116.567 283.739 121.825 283.142C126.827 282.573 131.83 282.005 136.718 280.783C143.88 278.964 150.588 275.724 156.954 271.944C157.494 270.665 157.864 269.301 158.176 267.936C159.2 263.673 159.939 259.325 160.706 255.005C160.962 253.612 161.189 252.191 161.019 250.798C160.706 250.656 160.393 250.542 160.081 250.4C155.334 248.382 151.384 244.972 147.007 242.272Z" fill="#B75B1D"/>
<path d="M191.458 253.072C187.337 249.405 183.216 245.767 179.095 242.101C178.555 241.618 177.986 241.106 177.787 240.424C177.475 239.373 178.128 238.293 178.754 237.383C184.665 228.913 192.481 221.808 201.462 216.692C203.935 215.271 206.578 214.021 209.42 213.679C213.2 213.253 216.98 214.56 220.391 216.209C229.145 220.444 236.506 226.981 243.782 233.461C241.338 230.619 238.723 226.981 240.03 223.456C240.286 222.774 240.684 222.121 240.769 221.41C240.911 220.131 240.002 218.852 240.229 217.573C240.343 216.948 240.712 216.408 241.082 215.896C243.611 212.457 246.738 209.445 250.262 207.029C251.427 206.233 252.65 205.466 253.417 204.272C254.127 203.163 254.383 201.742 255.435 200.947C256.373 200.236 257.652 200.264 258.789 199.952C261.943 199.042 263.535 195.49 266.377 193.841C269.077 192.278 272.601 192.619 275.302 191.027C276.694 190.203 277.746 188.953 279.138 188.129C280.474 187.333 282.066 187.02 283.601 186.736C287.636 185.94 291.701 185.144 295.737 184.377C296.561 184.206 297.385 184.064 298.209 184.235C298.92 184.377 299.517 184.775 300.142 185.173C302.274 186.537 304.462 187.958 305.883 190.033C306.906 191.511 307.532 193.301 308.924 194.466C310.317 195.603 312.932 195.518 313.415 193.784C319.213 206.517 325.096 219.648 325.522 233.631C313.898 230.988 301.734 233.205 290.138 235.99C261.46 242.84 233.493 253.043 204.304 257.307C201.207 257.761 197.995 258.159 194.954 257.42C191.913 256.681 188.985 254.606 188.104 251.594L191.458 253.072Z" fill="#CEB284"/>
<path d="M183.983 240.14C185.319 241.276 186.655 242.442 188.303 243.067C189.952 243.692 191.941 243.664 193.277 242.527C194.783 241.276 195.068 239.031 194.897 237.07C196.972 237.553 199.274 236.274 199.984 234.285C202.002 234.597 204.475 234.711 205.612 233.034C206.806 231.272 205.64 228.828 206.152 226.753C206.635 224.82 208.596 223.541 210.557 223.314C212.518 223.087 214.508 223.684 216.327 224.451C217.606 224.991 218.97 225.588 220.277 225.161C220.846 224.963 221.357 224.593 221.926 224.366C223.034 223.939 224.256 224.11 225.422 224.366C229.713 225.304 233.778 227.265 237.217 230.022C239.604 231.954 241.764 234.285 244.606 235.478C245.942 236.018 247.903 236.019 248.33 234.654C248.557 233.915 248.187 233.119 247.761 232.466C246.766 230.903 245.459 229.51 244.635 227.833C243.81 226.156 243.526 224.025 244.606 222.518C245.317 222.746 246.027 223.001 246.71 223.229C246.454 221.722 247.79 220.358 249.211 219.847C250.66 219.335 252.223 219.42 253.73 219.193C257.14 218.71 260.295 216.55 262 213.565C263.421 211.064 264.473 207.569 267.315 207.199C270.129 206.858 273.454 209.899 275.387 207.824C275.898 207.256 276.097 206.488 276.353 205.778C277.405 202.765 279.821 200.463 282.151 198.275C282.691 197.763 283.26 197.251 283.97 197.053C285.278 196.683 286.926 197.45 287.892 196.513C288.319 196.115 288.461 195.461 288.972 195.148C289.939 194.551 291.047 195.717 292.127 196.058C293.832 196.598 295.595 195.035 297.328 195.347C298.636 195.575 299.517 196.768 300.17 197.934C300.824 199.099 301.393 200.378 302.529 201.088C303.666 201.799 305.514 201.486 305.826 200.207C308.583 200.577 309.208 204.925 311.909 205.551C312.733 205.749 313.585 205.551 314.41 205.75C315.546 206.034 316.314 207.029 316.939 208.023C319.128 211.377 320.634 215.185 321.373 219.108C321.884 221.808 321.913 224.934 320.037 226.952C318.843 228.231 317.11 228.828 315.433 229.226C308.896 230.761 302.075 230.05 295.367 229.993C284.453 229.908 273.454 231.727 263.478 236.104C255.179 239.77 247.704 245.113 239.377 248.751C230.623 252.56 221.187 254.322 211.723 255.175C206.948 255.601 202.144 255.8 197.341 255.914C193.618 255.999 191.629 256.056 190.264 252.418C188.9 248.581 187.138 242.868 183.983 240.14Z" fill="#AA926F"/>
<path d="M182.363 239.089C188.19 243.181 193.334 248.127 197.91 253.584C197.995 253.669 198.137 253.555 198.08 253.47C193.732 247.729 188.417 242.954 182.448 238.975C182.335 238.89 182.278 239.032 182.363 239.089Z" fill="#77643A"/>
<path d="M245.743 216.55C247.136 219.449 248.472 222.177 249.466 225.247C250.49 228.316 251.399 231.585 252.849 234.484C252.991 234.797 253.445 234.569 253.389 234.256C252.593 230.761 251.086 227.322 249.779 223.996C248.813 221.41 247.79 218.454 245.743 216.55C245.743 216.493 245.743 216.521 245.743 216.55Z" fill="#77643A"/>
<path d="M185.774 233.205C189.866 236.36 194.243 239.06 198.251 242.357C202.287 245.654 205.896 249.32 209.648 252.93C209.904 253.186 210.216 252.816 210.017 252.56C206.777 248.411 202.77 244.801 198.705 241.504C194.783 238.321 190.549 235.109 185.887 233.091C185.802 233.006 185.688 233.12 185.774 233.205Z" fill="#77643A"/>
<path d="M193.618 227.038C203.082 233.546 211.808 240.652 219.283 249.434C219.425 249.604 219.624 249.377 219.51 249.206C212.518 240.282 203.765 232.21 193.703 226.895C193.618 226.839 193.533 226.981 193.618 227.038Z" fill="#77643A"/>
<path d="M202.031 223.059C207.118 226.952 211.723 231.358 215.929 236.189C220.022 240.907 223.603 246.08 227.724 250.77C227.951 251.025 228.406 250.684 228.207 250.4C224.796 245.028 220.704 239.969 216.44 235.251C212.206 230.562 207.545 226.128 202.173 222.774C202.002 222.661 201.86 222.916 202.031 223.059Z" fill="#77643A"/>
<path d="M206.862 217.175C214.337 220.643 221.585 224.537 228.065 229.681C231.22 232.182 234.204 234.825 236.989 237.753C239.831 240.708 242.304 243.977 245.004 247.046C245.26 247.331 245.686 246.961 245.516 246.649C241.65 239.6 235.17 233.489 228.861 228.658C222.267 223.656 214.849 219.421 206.862 217.147C206.862 217.119 206.834 217.147 206.862 217.175Z" fill="#77643A"/>
<path d="M251.399 210.298C253.303 214.078 255.321 217.801 256.97 221.695C258.703 225.73 260.068 229.908 261.659 234.001C261.801 234.342 262.285 234.2 262.199 233.859C261.318 229.681 259.755 225.645 258.021 221.78C256.202 217.744 254.184 213.765 251.626 210.155C251.513 210.013 251.314 210.127 251.399 210.298Z" fill="#77643A"/>
<path d="M261.261 202.254C264.018 208.166 266.434 213.964 268.196 220.245C269.02 223.201 269.759 226.214 270.555 229.169C271.351 232.097 272.09 235.28 273.454 238.008C273.625 238.349 274.108 238.094 274.051 237.753C273.454 234.569 272.346 231.415 271.521 228.288C270.669 225.133 269.816 221.979 268.878 218.852C267.145 213.111 265.212 206.887 261.432 202.112C261.347 202.027 261.204 202.169 261.261 202.254Z" fill="#77643A"/>
<path d="M273.511 197.65C274.079 200.264 274.364 202.908 274.847 205.551C275.33 208.279 275.898 211.008 276.467 213.708C277.518 219.023 278.542 224.366 279.963 229.595C280.105 230.107 280.986 230.022 280.929 229.453C280.219 224.138 279.053 218.88 277.831 213.651C277.234 211.065 276.637 208.478 275.955 205.892C275.216 203.107 274.25 200.378 273.568 197.593C273.539 197.621 273.511 197.621 273.511 197.65Z" fill="#77643A"/>
<path d="M282.379 190.26C282.89 197.82 284.396 205.409 285.59 212.912C286.812 220.586 287.608 228.43 289.37 235.99C289.456 236.331 289.995 236.246 289.967 235.905C289.74 228.288 288.319 220.671 287.125 213.168C285.931 205.522 284.738 197.649 282.435 190.26C282.435 190.203 282.379 190.231 282.379 190.26Z" fill="#77643A"/>
<path d="M293.207 189.066C294.685 196.257 296.248 203.362 297.271 210.638C297.811 214.361 298.238 218.113 298.607 221.865C298.977 225.389 299.176 228.97 299.858 232.437C299.943 232.921 300.682 232.807 300.71 232.324C300.739 228.629 300.227 224.877 299.829 221.211C299.431 217.687 299.005 214.134 298.494 210.61C297.414 203.362 296.049 195.83 293.321 189.009C293.236 189.009 293.207 189.038 293.207 189.066Z" fill="#77643A"/>
<path d="M306.338 197.024C306.935 202.368 308.129 207.654 308.953 212.969C309.379 215.669 309.777 218.397 310.203 221.097C310.658 223.883 310.914 226.782 311.596 229.51C311.71 229.937 312.363 229.851 312.335 229.397C312.278 226.753 311.738 224.053 311.34 221.439C310.942 218.738 310.459 216.038 309.948 213.338C308.924 207.881 308.015 202.282 306.338 196.968C306.366 196.996 306.338 196.996 306.338 197.024Z" fill="#77643A"/>
<path d="M313.557 200.293C314.637 204.499 315.603 208.734 316.456 212.997C317.28 217.232 317.678 221.609 318.616 225.815C318.701 226.128 319.213 226.071 319.184 225.73C319.042 221.523 318.019 217.232 317.138 213.111C316.2 208.762 315.035 204.471 313.671 200.236C313.642 200.207 313.529 200.236 313.557 200.293Z" fill="#77643A"/>
<path d="M143.397 265.492C143.823 267.879 144.676 270.323 146.438 272C150.559 275.951 157.182 274.217 162.838 273.478C181.169 271.119 198.137 282.09 215.275 288.939C241.764 299.512 271.351 300.479 299.517 295.988C327.683 291.469 354.711 281.72 381.286 271.346C387.254 269.016 394.303 265.094 393.99 258.67C393.052 258.187 391.773 258.5 391.176 259.381C392.882 257.988 392.967 255.26 391.915 253.356C390.864 251.423 388.959 250.116 387.027 249.064C378.642 244.374 368.951 242.499 360.509 237.923C354.285 234.541 348.913 229.766 342.916 225.986C320.606 211.888 291.729 212.855 266.264 219.818C240.798 226.781 217.066 239.088 191.771 246.648C181.795 249.632 168.778 253.356 158.688 249.32C148.2 245.057 141.663 255.828 143.397 265.492Z" fill="#EFAB50"/>
<path d="M392.91 258.472C393.564 256.625 392.54 254.408 391.972 253.356C390.92 251.423 389.016 250.116 387.084 249.065C378.699 244.375 369.007 242.499 360.566 237.923C354.342 234.541 348.97 229.766 342.973 225.986C321.913 212.685 294.998 212.799 270.64 218.71C268.452 219.392 266.235 220.074 264.018 220.7C261.744 221.353 259.442 221.979 257.14 222.547C235.085 229.681 214.053 239.998 191.827 246.62C183.585 249.093 173.24 252.049 164.202 250.713C164.173 250.855 164.145 251.026 164.145 251.196C164.173 251.594 164.315 251.992 164.486 252.361C166.333 256.767 168.181 261.144 170.057 265.549C170.284 266.117 170.568 266.714 171.051 267.055C172.444 267.993 174.234 266.316 174.519 264.639C174.803 262.991 174.348 261.2 175.03 259.666C175.656 258.245 177.105 257.42 178.469 256.681C183.159 254.095 187.848 251.509 192.538 248.922C195.664 255.658 198.791 262.366 201.917 269.102C202.23 269.755 202.542 270.437 203.139 270.864C204.788 272.086 207.203 270.352 207.715 268.363C208.227 266.373 207.687 264.27 207.886 262.224C208.539 255.545 216.44 252.134 219.226 246.023C220.05 244.233 220.391 242.243 221.272 240.51C222.182 238.776 223.887 237.213 225.848 237.355C228.292 237.554 229.742 240.311 229.827 242.755C229.912 245.199 229.06 247.615 229.088 250.059C229.116 253.953 231.22 257.449 233.266 260.746C235.966 265.094 238.666 269.443 241.366 273.791C242.162 275.042 243.867 276.434 244.862 275.326C243.413 266.942 244.976 258.103 249.211 250.741C250.802 247.984 252.735 245.427 253.815 242.442C254.866 239.486 255.009 236.275 255.89 233.262C256.771 230.249 258.675 227.208 261.716 226.384C263.45 236.928 265.695 247.359 268.424 257.705C270.64 266.089 273.284 274.53 278.371 281.55C284.595 270.864 278.314 257.165 280.503 245C281.497 239.515 284.197 234.456 287.494 229.965C289.512 227.237 291.9 224.366 291.957 220.956C296.675 221.581 299.858 226.384 300.568 231.102C301.307 235.792 300.256 240.566 299.943 245.313C299.318 255.033 301.904 264.952 307.191 273.109C309.265 270.352 310.715 267.141 311.368 263.758C312.761 256.539 310.573 249.036 311.624 241.732C312.733 234.143 317.564 227.18 324.272 223.513C326.631 225.332 327.427 228.573 327.285 231.528C327.142 234.484 326.261 237.355 325.892 240.311C325.238 245.881 326.631 251.651 329.729 256.312C332.798 253.1 332.4 248.041 332.4 243.579C332.4 239.117 333.822 233.717 338.142 232.608C339.989 232.125 341.95 232.637 343.769 233.262C354.512 237.014 363.209 245.625 374.265 248.411C379.154 249.633 385.122 250.201 387.481 254.663C387.851 255.346 388.107 256.17 387.879 256.937C387.453 258.301 385.805 258.756 384.412 258.984C380.547 259.666 376.681 260.348 372.816 261.03C370.514 261.428 368.126 261.883 366.336 263.389C363.607 265.719 361.646 271.66 365.426 266.26C367.728 262.963 377.79 260.092 384.327 260.263C387.425 260.348 392.37 259.183 392.91 258.472Z" fill="#9B844B"/>
<path d="M279.877 298.234C277.774 298.83 275.387 299.541 274.534 301.559C274.051 302.696 274.193 303.975 274.108 305.197C273.966 306.959 273.284 308.664 272.204 310.057C271.408 311.052 270.356 312.046 270.413 313.297C270.47 314.889 272.26 315.827 273.824 316.111C280.616 317.418 287.239 313.297 292.298 308.607C297.243 304.032 301.478 298.688 304.86 292.862C308.668 286.268 299.488 289.736 296.93 291.327C291.758 294.51 285.675 296.614 279.877 298.234Z" fill="#EF7625"/>
<path d="M296.902 291.327C293.633 293.345 289.995 294.937 286.301 296.216C285.306 297.637 284.197 298.973 282.918 300.166C285.675 298.888 288.29 297.353 290.763 295.591C287.722 299.655 284.368 303.463 280.702 306.988C286.358 303.833 291.53 299.769 295.879 294.965C291.871 302.327 285.619 308.437 278.172 312.303C276.438 313.212 274.477 314.008 272.573 313.496C271.55 313.24 270.896 312.757 270.555 312.217C270.413 312.53 270.356 312.871 270.356 313.24C270.413 314.832 272.204 315.77 273.767 316.054C280.56 317.362 287.182 313.24 292.241 308.551C297.186 303.975 301.421 298.632 304.803 292.805C308.668 286.24 299.488 289.707 296.902 291.327Z" fill="#B75B1D"/>
<path d="M393.08 262.906C381.826 264.753 371.338 272.228 359.884 273.393C347.009 274.7 333.623 267.936 321.373 272.171C313.557 274.871 307.674 281.664 299.858 284.364C290.507 287.575 280.361 284.449 270.498 283.682C261.261 282.971 252.024 284.392 242.787 284.364C228.093 284.307 213.627 280.612 199.956 275.24C189.326 271.062 178.327 265.776 167.044 267.453C161.36 268.306 155.931 270.949 150.19 270.977C148.257 271.006 146.239 270.551 144.42 269.727C144.847 270.551 145.415 271.318 146.097 271.972C150.218 275.923 156.841 274.189 162.496 273.45C180.828 271.091 197.796 282.062 214.934 288.911C241.423 299.484 271.01 300.45 299.176 295.96C327.341 291.441 354.541 282.09 381.115 271.716C385.662 269.954 390.977 266.913 393.08 262.906Z" fill="#FFDE8A"/>
<path d="M189.071 285.131C193.845 284.336 198.904 282.971 203.168 280.669C203.338 280.584 203.224 280.271 203.026 280.357C198.364 282.062 193.874 283.853 189.042 285.103C189.071 285.103 189.071 285.131 189.071 285.131Z" fill="#FFDE8A"/>
<path d="M189.497 291.071C193.362 290.076 197.114 288.598 200.809 287.092C204.361 285.642 207.942 284.25 211.239 282.289C211.467 282.146 211.325 281.749 211.04 281.834C207.431 283.056 203.992 284.761 200.468 286.268C196.773 287.802 193.05 289.28 189.497 291.071C189.468 291.071 189.468 291.099 189.497 291.071Z" fill="#FFDE8A"/>
<path d="M191.572 299.257C195.664 297.608 199.643 295.676 203.423 293.374C205.356 292.208 207.232 290.958 209.051 289.679C210.785 288.457 212.717 287.206 214.167 285.643C214.309 285.472 214.138 285.216 213.939 285.33C212.12 286.41 210.5 287.917 208.767 289.167C206.948 290.475 205.072 291.725 203.139 292.89C199.388 295.192 195.522 297.267 191.515 299.115C191.458 299.143 191.515 299.285 191.572 299.257Z" fill="#FFDE8A"/>
<path d="M188.929 306.959C200.326 302.525 210.245 295.278 219.482 287.405C220.05 286.922 219.226 286.069 218.657 286.581C213.968 290.617 209.392 294.738 204.248 298.205C199.359 301.445 194.158 304.316 188.929 306.959C188.9 306.931 188.9 306.959 188.929 306.959Z" fill="#FFDE8A"/>
<path d="M278.172 301.076C283.771 299.285 288.944 296.131 292.752 291.612C292.866 291.469 292.696 291.299 292.553 291.413C288.461 295.647 283.714 299.03 278.144 300.991C278.115 301.048 278.115 301.104 278.172 301.076Z" fill="#FFDE8A"/>
<path d="M276.552 307.471C280.332 305.424 283.857 302.838 287.182 300.11C290.592 297.296 294.117 294.255 296.874 290.759C297.044 290.56 296.788 290.276 296.589 290.475C293.491 293.487 290.621 296.642 287.324 299.427C283.885 302.326 280.219 304.884 276.552 307.471C276.524 307.442 276.552 307.471 276.552 307.471Z" fill="#FFDE8A"/>
<path d="M274.136 314.263C280.616 313.24 286.073 309.943 291.047 305.765C293.633 303.577 296.049 301.189 298.494 298.83C301.279 296.159 304.007 293.544 306.423 290.531C306.622 290.275 306.309 289.963 306.082 290.19C300.881 294.595 296.618 299.995 291.473 304.514C286.5 308.891 280.673 312.728 274.136 314.263C274.108 314.235 274.108 314.263 274.136 314.263Z" fill="#FFDE8A"/>
<path d="M116.567 238.577C126.117 240.282 135.354 243.92 143.34 249.434C143.624 249.633 143.937 249.15 143.624 248.951C135.354 243.636 126.287 240.027 116.567 238.549C116.567 238.549 116.539 238.577 116.567 238.577Z" fill="#B75B1D"/>
<path d="M122.337 244.233C125.804 245.228 129.272 246.279 132.711 247.473C136.32 248.752 139.532 250.542 142.942 252.219C143.283 252.39 143.539 251.935 143.227 251.708C140.413 249.576 136.718 248.269 133.393 247.103C129.783 245.853 126.06 245 122.337 244.119C122.308 244.148 122.28 244.233 122.337 244.233Z" fill="#B75B1D"/>
<path d="M122.507 252.361C125.861 253.299 129.243 254.152 132.682 254.777C135.865 255.345 139.276 256.028 142.516 255.999C142.829 255.999 142.914 255.516 142.601 255.459C139.304 254.834 135.865 254.635 132.54 254.123C129.186 253.612 125.861 252.986 122.564 252.219C122.479 252.191 122.422 252.333 122.507 252.361Z" fill="#B75B1D"/>
<path d="M121.626 259.097C124.98 259.296 128.362 259.268 131.716 258.955C134.814 258.671 138.168 258.358 141.095 257.25C141.351 257.164 141.351 256.681 141.038 256.738C137.827 257.164 134.672 258.074 131.432 258.472C128.192 258.87 124.923 259.012 121.655 258.926C121.513 258.898 121.513 259.069 121.626 259.097Z" fill="#B75B1D"/>
<path d="M114.89 267.481C119.694 267.026 124.44 265.975 129.13 264.838C131.517 264.27 133.904 263.644 136.263 262.962C138.509 262.308 140.981 261.797 143.056 260.745C143.397 260.575 143.141 260.092 142.8 260.148C140.527 260.603 138.281 261.598 136.064 262.28C133.705 262.991 131.346 263.673 128.959 264.298C124.298 265.492 119.551 266.344 114.862 267.396C114.833 267.424 114.833 267.481 114.89 267.481Z" fill="#B75B1D"/>
<path d="M110.94 273.621C116.198 273.536 121.427 272.996 126.6 271.944C131.716 270.921 137.002 269.585 141.749 267.396C142.175 267.197 141.862 266.459 141.408 266.629C136.548 268.334 131.801 270.125 126.742 271.29C121.541 272.484 116.255 273.223 110.94 273.536C110.883 273.536 110.883 273.621 110.94 273.621Z" fill="#B75B1D"/>
<path d="M109.206 280.158C114.237 279.135 119.267 277.998 124.269 276.861C126.714 276.293 129.158 275.752 131.631 275.184C134.132 274.616 136.86 274.275 139.276 273.365C139.475 273.308 139.447 272.967 139.219 272.996C136.832 273.223 134.444 274.019 132.114 274.559C129.556 275.156 126.998 275.752 124.44 276.349C119.324 277.543 114.237 278.737 109.149 280.044C109.121 280.044 109.149 280.158 109.206 280.158Z" fill="#B75B1D"/>
<path d="M164.344 251.991C173.325 253.214 183.5 250.286 191.657 247.842C213.883 241.191 234.915 230.874 256.97 223.769C259.272 223.172 261.574 222.575 263.848 221.921C266.065 221.296 268.253 220.614 270.47 219.932C294.827 214.02 321.742 213.907 342.803 227.208C348.8 230.988 354.171 235.763 360.396 239.145C368.837 243.721 378.529 245.597 386.913 250.286C388.846 251.366 390.75 252.645 391.801 254.578C392.171 255.231 392.967 256.311 393.137 257.477C393.478 255.743 392.313 253.839 391.801 252.872C390.75 250.94 388.846 249.632 386.913 248.581C378.529 243.891 368.837 242.015 360.396 237.439C354.171 234.057 348.8 229.283 342.803 225.502C321.742 212.201 294.827 212.315 270.47 218.227C268.281 218.909 266.065 219.591 263.848 220.216C261.574 220.87 259.272 221.495 256.97 222.064C234.915 229.197 213.883 239.514 191.657 246.136C183.415 248.609 170.795 251.565 161.757 250.229C161.729 250.371 163.406 251.025 163.406 251.196C163.434 251.594 164.145 251.537 164.315 251.906C164.315 251.935 164.315 251.963 164.344 251.991Z" fill="#77643A"/>
<path d="M343.854 240.054C342.149 241.987 341.41 244.801 342.092 247.302C342.774 249.803 344.878 251.878 347.407 252.418C348.572 252.674 349.766 252.588 350.931 252.446C351.841 252.333 352.779 252.134 353.518 251.65C354.399 251.082 354.939 250.144 355.394 249.178C356.445 246.932 356.928 244.318 356.246 241.959C354.598 236.161 347.464 235.99 343.854 240.054Z" fill="#77643A"/>
<path d="M344.025 245.142C344.11 246.99 344.991 248.865 346.554 249.888C348.118 250.883 350.363 250.855 351.727 249.576C352.153 249.15 352.494 248.638 352.807 248.126C353.404 247.103 353.972 246.023 354.37 244.915C354.768 243.835 355.052 242.584 354.541 241.533C354.2 240.822 353.546 240.31 352.864 239.941C348.544 237.554 343.769 240.026 344.025 245.142Z" fill="#EF7625"/>
<path d="M345.332 242.499C344.991 243.55 344.963 244.687 345.105 245.767C345.19 246.478 345.332 247.217 345.673 247.842C346.1 248.638 346.81 249.234 347.634 249.632C348.118 249.86 348.686 250.03 349.198 249.945C349.965 249.803 350.533 249.121 351.045 248.496C351.727 247.614 352.438 246.733 352.949 245.71C353.461 244.715 353.802 243.607 353.717 242.47C353.688 242.015 353.603 241.561 353.347 241.191C353.12 240.822 352.807 240.537 352.466 240.31C352.011 239.997 351.471 239.799 350.931 239.713C350.335 239.6 349.738 239.628 349.141 239.742C347.322 240.026 345.958 240.594 345.332 242.499Z" fill="#423721"/>
<path d="M348.061 242.555C348.345 242.754 348.743 242.783 349.084 242.925C349.539 243.124 349.88 243.579 350.022 244.09C350.164 244.573 350.164 245.113 350.164 245.625C351.301 245.54 352.324 244.573 352.494 243.437C352.637 242.3 351.926 241.078 350.846 240.708C350.192 240.481 348.913 240.253 348.288 240.651C347.634 240.992 347.407 242.101 348.061 242.555Z" fill="white"/>
<path d="M322.879 253.896C321.6 255.033 320.264 256.141 319.355 257.591C318.446 259.04 318.076 260.973 318.929 262.451C319.781 263.957 321.6 264.639 323.277 265.094C325.295 265.662 327.37 266.089 329.388 266.686C335.328 268.419 340.899 271.489 345.531 275.582C343.258 271.83 339.79 268.903 335.925 266.828C332.059 264.753 327.825 263.474 323.561 262.508C322.794 262.337 321.998 262.138 321.487 261.57C320.634 260.603 321.003 259.125 321.543 257.96C323.391 254.038 326.745 251.082 329.7 247.927C332.486 244.943 335.555 241.021 335.527 236.729C331.605 242.811 328.308 248.979 322.879 253.896Z" fill="#77643A"/>
<path d="M317.621 270.608C319.327 272.257 321.771 272.825 324.101 273.365C327.086 274.047 330.07 274.758 332.855 276.037C335.641 277.287 338.227 279.135 339.904 281.693C336.664 276.264 331.463 271.461 325.153 271.034C324.073 270.949 322.965 271.006 321.913 270.779C319.554 270.239 317.735 268.249 316.769 266.032C315.802 263.815 315.575 261.428 315.291 259.041C315.092 263.02 314.324 267.453 317.621 270.608Z" fill="#77643A"/>
<path opacity="0.41" d="M275.898 222.86C267.486 223.314 259.386 226.242 251.655 229.624C243.924 233.006 236.392 236.928 228.378 239.543C220.988 241.959 213.229 243.266 206.152 246.45C205.271 246.847 204.248 247.586 204.504 248.524C204.674 249.15 205.385 249.491 206.01 249.604C207.573 249.945 209.221 249.69 210.813 249.405C215.076 248.581 219.254 247.302 223.404 246.052C242.162 240.367 260.949 234.711 279.707 229.027C280.673 228.743 281.696 228.43 282.492 227.805C284.254 226.441 283.942 223.826 281.867 222.888C280.304 222.206 277.575 222.774 275.898 222.86Z" fill="white"/>
<path opacity="0.41" d="M184.779 251.281C183.102 251.366 181.34 251.423 179.805 252.162C178.867 252.617 177.986 253.697 178.498 254.578C178.754 255.032 179.265 255.231 179.748 255.374C181.994 255.97 184.324 255.288 186.569 254.748C190.207 253.867 193.902 253.27 197.625 252.986C198.336 252.929 199.075 252.872 199.7 252.588C200.354 252.304 200.922 251.707 200.979 250.997C201.15 248.41 195.039 250.315 193.703 250.485C190.747 250.855 187.763 251.11 184.779 251.281Z" fill="white"/>
</svg>
