<svg width="433" height="344" viewBox="0 0 433 344" fill="none" xmlns="http://www.w3.org/2000/svg">
<path d="M432.193 173.881C429.235 173.344 426.545 172 423.946 170.477C421.973 169.312 420.001 167.969 418.029 166.625C418.298 166.625 418.567 166.535 418.836 166.535C419.105 166.446 419.463 166.356 419.732 166.267C420.27 165.998 420.808 165.639 421.256 165.281C422.153 164.564 422.87 163.848 423.856 163.489C424.842 163.131 425.918 163.042 426.994 163.131V163.042C425.918 162.862 424.752 162.683 423.677 163.042C422.511 163.31 421.525 163.937 420.629 164.564C419.732 165.102 418.836 165.46 417.85 165.46C417.043 165.46 416.146 165.281 415.25 165.012C413.009 163.669 410.678 162.325 408.168 161.339C407.45 161.071 406.733 160.802 405.926 160.533C407.002 160.085 408.078 159.548 409.064 159.01C409.871 158.562 410.588 158.025 411.305 157.487H411.395C412.919 156.95 414.443 156.681 416.057 156.502C417.67 156.323 419.194 156.412 420.808 156.771C422.422 157.039 423.946 157.577 425.47 158.114V158.025C422.511 156.681 419.374 155.606 416.057 155.606C415.339 155.606 414.533 155.696 413.815 155.785C414.443 155.337 414.981 154.889 415.519 154.442C417.581 152.829 419.553 151.306 421.794 150.052C424.035 148.798 426.456 147.902 429.056 147.633V147.544C426.456 147.544 423.856 148.081 421.346 149.156C418.925 150.142 416.594 151.485 414.353 152.829C412.112 154.173 409.961 155.517 407.719 156.502C405.478 157.577 403.147 158.204 400.906 158.294C399.741 158.383 398.575 158.294 397.499 158.114C396.334 157.935 394.9 157.577 393.645 157.398C391.045 156.95 388.445 156.681 385.845 156.323C384.411 156.144 382.887 155.964 381.452 155.785C382.528 155.158 383.694 154.531 384.769 153.814C384.949 153.725 385.128 153.635 385.307 153.546C387.549 152.471 389.79 151.396 392.031 150.231C394.272 149.067 396.424 147.992 398.665 146.827C399.651 146.379 400.547 145.842 401.444 145.304C402.52 144.946 403.506 144.498 404.582 144.05C406.644 143.154 408.705 142.169 410.767 141.273C411.753 140.825 412.74 140.287 413.815 139.839C414.802 139.392 415.877 138.944 416.863 138.585C418.925 137.869 421.077 137.331 423.408 137.242V137.152C421.167 136.794 418.836 137.062 416.594 137.6C415.519 137.869 414.353 138.227 413.367 138.585C412.291 139.033 411.216 139.481 410.229 139.929C409.064 140.467 407.899 141.004 406.823 141.542C408.168 140.287 409.423 138.854 410.409 137.331C411.753 135.181 412.74 132.942 413.995 130.881C415.25 128.821 416.774 126.939 418.656 125.417C420.539 123.804 422.691 122.639 424.842 121.475V121.385C422.601 122.371 420.36 123.446 418.298 124.879C416.236 126.312 414.443 128.104 413.009 130.164C411.574 132.225 410.409 134.375 408.974 136.346C407.54 138.227 405.837 139.929 403.864 141.273C401.982 142.617 399.83 143.781 397.679 144.946C396.065 145.842 394.451 146.648 392.748 147.364L393.286 146.827C395.438 144.767 397.141 142.169 398.217 139.481C400.547 134.106 401.265 128.642 403.506 123.714C405.568 118.698 409.064 114.308 413.457 110.904L413.367 110.814C408.705 113.86 404.671 117.981 402.072 123.087C400.727 125.596 399.741 128.283 398.844 130.881C397.858 133.479 396.962 136.077 395.706 138.406C394.451 140.735 392.838 142.796 390.865 144.319L390.148 144.946C389.879 145.125 389.61 145.304 389.341 145.483C388.804 145.842 388.266 146.289 387.638 146.558L385.935 147.633L384.232 148.619C381.901 149.873 378.315 151.396 375.805 152.112C369.529 153.904 361.192 153.635 361.192 153.635L264.193 153.187C264.193 153.187 234.161 154.889 223.851 149.425C217.307 145.931 216.321 145.662 216.321 145.662L220.265 177.644C220.265 177.644 226.361 173.702 230.844 171.821C241.781 167.252 265.807 165.102 265.807 165.102L361.013 161.071L368.722 160.712C369.35 160.623 374.012 160.712 377.418 160.712C379.928 160.712 383.335 160.533 385.845 160.623C388.804 160.712 390.597 161.16 393.107 161.429C394.362 161.519 395.617 161.698 396.962 161.877C397.051 161.877 397.141 161.877 397.231 161.877C397.858 162.146 398.486 162.414 399.023 162.862C400.368 163.848 401.085 165.281 401.623 167.162C402.161 168.954 402.609 171.104 403.596 173.164C404.492 175.135 406.016 176.927 407.899 178.002C408.974 179.167 409.692 180.6 410.05 182.212C410.409 184.004 410.409 185.885 410.409 187.767C410.319 189.648 410.14 191.619 410.319 193.5C410.409 194.485 410.588 195.471 411.126 196.367C411.574 197.262 412.381 197.979 413.277 198.337V198.248C412.471 197.71 411.843 196.994 411.485 196.187C411.126 195.381 411.036 194.396 411.036 193.5C411.036 191.619 411.305 189.737 411.485 187.856C411.664 185.975 411.843 184.004 411.574 181.944C411.395 181.137 411.216 180.242 410.767 179.435L411.126 179.614L411.753 179.973L412.381 180.331C412.829 180.6 413.277 180.779 413.636 181.137C415.25 182.302 416.594 183.646 417.76 185.348C418.925 186.96 419.911 188.842 421.256 190.454C421.884 191.26 422.691 192.067 423.497 192.694C423.946 192.962 424.394 193.231 424.842 193.589L426.276 194.306V194.217C424.484 193.231 422.96 191.708 421.973 190.096C420.898 188.394 420.091 186.512 419.015 184.721C417.939 182.929 416.505 181.317 414.891 179.973C415.07 179.973 415.339 180.062 415.519 180.152C416.774 180.51 417.939 181.048 419.015 181.675C420.18 182.302 421.256 183.019 422.422 183.646C423.587 184.273 424.752 184.9 425.918 185.437V185.348C424.752 184.721 423.677 184.004 422.601 183.198C421.525 182.392 420.539 181.585 419.463 180.779C418.298 180.062 417.132 179.435 415.788 178.987C414.533 178.539 413.277 178.271 411.933 178.002L410.588 177.285C410.14 177.017 409.781 176.837 409.333 176.569C407.809 175.494 406.733 173.971 406.106 172.269C405.478 170.477 405.299 168.506 404.761 166.446C404.492 165.371 404.133 164.296 403.506 163.221C403.327 162.952 403.237 162.773 403.058 162.504C404.582 162.862 406.016 163.31 407.45 163.758C410.229 164.744 412.919 165.908 415.519 167.342C417.76 168.506 420.001 169.85 422.332 171.014C423.049 171.552 423.677 172.269 423.946 173.075C424.215 173.971 424.125 175.046 424.215 176.121C424.215 177.196 424.394 178.36 424.932 179.435C425.47 180.421 426.366 181.137 427.263 181.764L427.352 181.675C426.545 180.958 425.828 180.152 425.38 179.256C424.932 178.271 424.932 177.285 425.021 176.21C425.111 175.135 425.201 174.06 424.932 172.806C424.842 172.537 424.752 172.358 424.663 172.089C427.083 173.164 429.593 174.06 432.193 174.239V173.881Z" fill="#5B9ED9"/>
</svg>
