<svg width="433" height="344" viewBox="0 0 433 344" fill="none" xmlns="http://www.w3.org/2000/svg">
<path fill-rule="evenodd" clip-rule="evenodd" d="M143.305 140.111C125.273 142.384 116.238 153.746 114.822 158.686V159.477C114.822 180.028 128.834 188.459 135.84 190.106C136.337 190.172 137.241 190.126 136.873 189.414C116.369 180.688 116.753 165.68 116.875 160.949C116.882 160.645 116.889 160.383 116.889 160.168C116.889 157.323 119.492 153.845 120.794 152.462C121.713 151.671 121.483 152.363 121.253 152.659C117.578 156.71 117.923 167.085 118.497 168.27C121.367 178.749 129.978 184.702 131.216 185.557C131.297 185.613 131.346 185.648 131.36 185.66C133.841 187.557 136.069 188.031 136.873 188.031C136.988 187.932 137.103 187.537 136.414 187.339C123.459 180.305 119.99 169.588 119.875 165.109C119.324 158.469 122.708 153.516 124.469 151.869C127.777 149.735 127.226 151.078 125.962 151.869C123.39 153.608 121.751 159.18 121.253 161.749C120.756 164.318 122.287 170.411 123.665 173.408C124.125 173.507 124.584 173.112 124.469 172.716C124.469 172.68 124.407 172.355 124.307 171.836C123.866 169.538 122.695 163.442 122.976 161.749C123.252 160.089 124.086 160.86 124.469 161.453C123.436 164.615 126.077 174.001 126.881 174.198C128.145 174.693 128.555 173.803 128.145 173.408C125.848 171.195 125.962 165.635 126.307 163.132C126.399 162.263 127.521 162.704 127.5 163C126.777 173.069 133.178 177.41 135.056 178.684C135.266 178.827 135.419 178.931 135.5 179C136.304 179.692 135.725 180.423 135.036 180.917C134.562 181.257 131.696 178.557 129.804 176.775C128.946 175.967 128.288 175.347 128.145 175.285C127.685 175.088 127.455 175.187 127.57 175.582C132.05 184.474 142.616 185.462 143.305 185.462C143.994 185.462 144.109 185.264 143.879 184.77C143.65 184.276 137.333 182.498 136.873 182.399C136.414 182.3 136.926 180.5 137.5 180.5C142.5 182.399 146.674 182.959 148.014 182.893C149.576 182.972 149.392 183.98 148.703 184.079C147.899 184.079 146.199 184.118 145.832 184.276C145.372 184.474 145.602 185.067 146.062 185.264C146.441 185.428 147.899 185.381 149.21 185.34C150.281 185.305 151.253 185.274 151.46 185.363C153.205 185.838 152.34 186.417 151.689 186.648C145.54 187.862 140.187 187.173 138.737 186.986C138.535 186.96 138.409 186.944 138.366 186.944C138.022 186.944 138.022 187.932 138.711 187.932C144.913 189.019 151.038 188.031 153.182 187.339C156.398 186.253 156.169 187.537 155.939 187.932C155.709 188.327 154.331 188.821 153.871 188.821C153.068 189.217 139.745 190.303 139.056 190.303C138.366 190.303 138.022 190.995 139.515 191.292C142.961 192.28 154.79 190.007 156.858 189.414C158.589 188.918 158.629 188.629 158.663 188.374C158.67 188.325 158.677 188.277 158.695 188.229C158.751 188.086 158.219 187.69 157.704 187.308C157.152 186.897 156.62 186.501 156.858 186.45C162.6 184.869 167.079 182.103 168.228 180.917C169.377 179.731 167.539 179.929 167.309 180.127C163.864 182.498 156.858 185.166 154.79 185.462C152.723 185.759 153.527 184.573 153.871 184.474C161.681 182.696 165.127 179.83 165.701 178.941C166.276 178.052 165.127 177.854 164.782 178.151C160.418 183.19 150.885 183.782 150.426 183.585C149.967 183.387 150.196 182.794 150.656 182.794C161.5 180 164.604 176.069 166.5 173.5C167.327 172.551 169.147 173.507 168.573 174.297C168.151 174.791 167.148 175.977 166.505 176.767C165.841 177.584 166.51 177.658 167.021 177.715C167.129 177.727 167.229 177.738 167.309 177.755C167.769 177.854 168.687 176.669 169.377 175.582C169.958 174.665 170.866 175.154 171.412 175.449C171.513 175.503 171.602 175.551 171.674 175.582C172.096 175.763 170.287 177.531 169.367 178.429C169.286 178.508 169.212 178.581 169.147 178.645C168.343 179.435 170.066 179.83 170.755 179.633C171.132 179.524 172.061 178.527 172.88 177.647C173.557 176.92 174.159 176.273 174.315 176.273C176.268 175.878 174.315 178.546 173.282 179.435C171.489 181.363 169.502 182.288 168.268 182.862C167.605 183.17 167.16 183.378 167.079 183.585C166.735 185.264 169.377 183.98 171.674 182.794C173.309 181.95 174.828 180.105 176.437 178.149C177.089 177.358 177.755 176.548 178.45 175.779C180.862 173.112 181.091 162.144 180.977 161.156C180.945 160.886 180.922 160.616 180.901 160.363C180.845 159.694 180.799 159.153 180.632 159.082C180.402 158.983 179.943 158.884 179.828 159.477C179.093 173.072 177.646 174.495 176.497 174.89C175.923 175.088 175.464 174.89 175.234 174.791C174.545 174.594 174.889 173.013 175.119 172.815C175.349 172.618 176.153 170.839 175.119 170.543C174.085 170.246 174.2 172.222 174.315 172.42C174.43 172.618 173.511 173.902 173.052 174.297C172.667 174.628 171.479 173.437 170.967 172.923C170.867 172.823 170.792 172.749 170.755 172.716C170.588 172.573 170.966 172.221 171.406 171.812C171.571 171.658 171.746 171.496 171.903 171.333C172.478 170.74 172.707 170.049 171.674 169.851C170.933 169.71 170.252 170.936 169.798 171.752C169.619 172.076 169.474 172.336 169.377 172.42C169.101 172.657 167.73 171.428 167.5 171C168 169.851 168.917 167.737 168.917 166.393C168.917 165.015 168.994 165.034 169.212 165.085C169.26 165.096 169.315 165.109 169.377 165.109C169.554 165.109 169.61 165.816 169.669 166.57C169.725 167.28 169.784 168.031 169.951 168.27C170.295 168.764 171.214 168.369 171.214 168.073C171.214 168.053 171.215 168.017 171.215 167.967C171.225 167.279 171.275 163.922 170.525 162.54C169.882 161.354 169.185 162.046 168.917 162.54C168.608 162.207 168.403 160.398 168.232 158.889C168.149 158.156 168.073 157.493 167.998 157.105C167.769 155.92 169.377 156.513 169.377 157.105C169.032 159.378 169.836 160.86 170.295 160.86C171.107 160.947 170.933 157.721 170.881 156.761C170.874 156.634 170.87 156.547 170.87 156.513C172.225 153.374 172.066 163.824 172.025 166.523C172.021 166.799 172.018 166.993 172.018 167.085C172.018 167.3 172.002 167.473 171.988 167.618C171.939 168.139 171.924 168.301 172.822 168.764C173.741 169.239 173.588 161.189 173.396 157.105C173.205 156.546 172.937 155.307 173.396 154.833C175.119 153.746 175.004 165.405 174.889 166.689C174.867 166.937 174.828 167.166 174.792 167.375C174.643 168.249 174.555 168.764 176.038 168.764C183.503 137.542 152.149 138.629 150.885 138.827C149.622 139.024 148.933 139.42 150.311 140.111C168.831 137.822 173.246 150.044 174.068 152.318C174.133 152.498 174.175 152.616 174.2 152.659C174.545 153.252 173.282 153.45 172.822 152.659C167.883 145.15 161.796 141.494 160.533 141.494C159.27 141.494 159.499 142.68 160.533 142.482C162.026 141.791 170.41 150.98 170.87 152.659C171.237 154.003 170.64 154.339 170.295 154.339C169.989 153.713 169.216 152.501 168.573 152.659C167.929 152.817 168.841 154.174 169.377 154.833C168.534 155.129 166.85 155.544 166.85 154.833C163.476 149.92 160.775 148.518 159.141 147.669C158.668 147.423 158.285 147.224 158 147C157.04 146.244 158.244 145.6 159.154 145.113C159.193 145.092 159.232 145.072 159.27 145.051C160.718 144.137 165.578 149.442 167.361 151.387C167.698 151.756 167.925 152.004 167.998 152.066C168.458 152.462 168.917 151.671 168.573 151.276C163.175 141.494 149.622 140.704 148.933 141.198C147.134 141.669 151.035 142.736 154.033 143.556C155.437 143.94 156.643 144.269 156.972 144.459C157.799 144.933 156.189 146.138 155.5 146.5C154.351 146.302 152.286 146 151 146C150.739 146 150.353 146.013 149.887 146.029C147.478 146.111 142.938 146.265 142.616 145.051C142.473 144.513 145.889 144.499 148.03 144.49C148.802 144.487 149.409 144.485 149.622 144.459C150.426 144.36 149.967 143.471 148.818 143.471C139.774 142.928 134.581 146.361 133.241 147.248C133.117 147.329 133.026 147.389 132.968 147.423C132.279 147.818 133.083 149.102 134.232 148.51C137.264 146.85 140.166 145.842 141.238 145.545C141.417 146.538 140.87 146.746 139.337 147.331C138.624 147.603 137.696 147.957 136.529 148.51C132.5 151.671 128.995 157.641 128 161C126.054 159.996 127.867 156.068 128.988 153.64C129.521 152.486 129.897 151.671 129.638 151.671C128.08 151.671 125.251 157.523 124.792 158.639C123.554 155.839 127.36 151.876 129.689 149.451C130.651 148.449 131.36 147.71 131.36 147.423C131.36 145.239 127.758 147.933 125.587 149.557C124.909 150.064 124.371 150.467 124.125 150.584C123.091 151.078 121.828 151.671 122.976 150.584C132.349 142.693 142.241 141.801 144.762 141.574C145.144 141.54 145.357 141.521 145.372 141.494C145.389 141.466 145.44 141.424 145.503 141.373C145.87 141.075 146.64 140.449 143.305 140.111ZM130 162.5C130.522 157.581 136 147.335 147.016 147.493C162.667 147.716 167.276 156.74 167.5 163C167.75 170 160.524 178.695 150 181C138.406 183.54 129.699 172.975 130 162.5Z" fill="#71EDE5"/>
</svg>
