<svg width="433" height="344" viewBox="0 0 433 344" fill="none" xmlns="http://www.w3.org/2000/svg">
<path d="M111.532 108.358C113.733 107.096 116.449 107.164 118.676 108.38C135.027 117.314 145.771 117.002 153.388 115.831C162.096 114.476 174.099 105.455 180.848 98.9855C183.304 96.631 187.063 95.8407 190.254 97.0194C193.066 98.058 195.99 98.9783 198.366 99.889C200.84 100.837 201.948 103.42 201.712 106.058C200.787 116.407 203.115 122.08 205.653 128.104C208.425 134.866 213.718 143.852 225.849 149.601C228.164 150.698 229.89 152.795 230.122 155.347C230.421 158.628 230.74 162.87 231.038 166.501C231.278 169.429 229.688 172.191 227.167 173.699C211.22 183.236 202.595 199.278 202.28 215.747C202.238 217.93 201.364 220.043 199.735 221.498C197.639 223.37 195.108 225.644 192.911 227.385C191.178 228.757 188.854 228.908 186.788 228.123C167.22 220.685 148.551 219.942 135.797 229.882C133.771 231.461 131.133 232.222 128.74 231.29C125.03 229.844 121.218 227.934 118.693 226.261C117.103 225.207 116.457 223.329 116.439 221.422C116.331 209.613 111.246 197.374 95.5067 190.549C93.1081 189.509 91.279 187.4 90.8339 184.824C90.209 181.206 89.452 176.945 89.0158 173.464C88.6964 170.915 90.089 168.567 92.1751 167.067C107.602 155.974 110.054 136.293 104.351 119.154C103.438 116.409 103.992 113.295 106.349 111.617C108.062 110.398 109.849 109.323 111.532 108.358Z" fill="#5B9ED9"/>
<path d="M115.108 106.335C133.486 117.354 145.23 117.085 153.388 115.831C164.325 114.129 180.462 100.333 184.854 94.6896C191.229 86.5 203.775 92.0001 202.246 101.767C200.184 114.935 202.784 121.296 205.653 128.104C208.701 135.54 214.797 145.663 229.678 151.217C241 155.442 241 166.741 231.471 171.373C211.569 181.048 201.35 200.129 202.336 219.21C202.79 228 197.456 232.5 190.054 229.423C167.642 220.106 146.037 219.21 132.679 232.648C125 240.373 115.676 236 116.363 224.406C117.17 210.79 111.881 195.919 91.5307 189.021C81.3641 184.722 79.9494 174.897 88.6619 169.313C108.743 157.935 110.895 133.927 102.647 114.667C98.0794 104 106 100.875 115.108 106.335Z" fill="#5B9ED9"/>
</svg>
