<svg width="433" height="344" viewBox="0 0 433 344" fill="none" xmlns="http://www.w3.org/2000/svg">
<path d="M211.501 180.145C210.718 180.78 209.556 180.89 208.665 180.425C208.105 180.129 207.958 179.312 208.29 178.77C208.623 178.228 209.303 177.972 209.937 178.029C210.57 178.085 211.147 178.408 211.644 178.805C212.073 179.152 211.92 179.804 211.501 180.145Z" fill="#DBD0FA" stroke="#D28596" stroke-width="0.489947" stroke-miterlimit="10"/>
<path d="M212.451 172.825C212.211 173.236 212.012 173.711 211.545 173.787C211.077 173.863 210.578 173.59 210.383 173.16C210.189 172.725 210.32 172.171 210.688 171.872C211.007 171.612 211.394 171.401 211.808 171.383C212.223 171.365 212.662 171.569 212.834 171.947C213.007 172.319 212.574 172.618 212.451 172.825Z" fill="#DBD0FA" stroke="#D28596" stroke-width="0.489947" stroke-miterlimit="10"/>
<path d="M212.923 166.317C213.057 166.823 212.896 167.384 212.668 167.856C212.439 168.327 211.945 168.713 211.428 168.637C210.912 168.562 210.545 167.869 210.878 167.467C211.798 166.367 212.478 165.061 212.847 163.672C212.948 163.298 213.511 163.21 213.798 163.474C214.085 163.737 214.107 164.198 213.967 164.562C213.828 164.927 213.559 165.224 213.309 165.523C213.06 165.823 212.874 166.131 212.923 166.317Z" fill="#DBD0FA" stroke="#D28596" stroke-width="0.489947" stroke-miterlimit="10"/>
<path d="M215.352 160.932C215.237 161.121 214.965 161.148 214.749 161.203C214.534 161.254 214.296 161.246 214.109 161.126C213.968 161.032 213.864 160.883 213.806 160.721C213.701 160.438 213.717 160.106 213.853 159.836C213.985 159.56 214.233 159.345 214.518 159.255C214.721 159.188 214.965 159.186 215.135 159.324C215.283 159.444 215.345 159.642 215.394 159.828C215.47 160.072 215.428 160.813 215.352 160.932Z" fill="#DBD0FA" stroke="#D28596" stroke-width="0.489947" stroke-miterlimit="10"/>
<path d="M205.135 180.191C205.116 180.328 205.15 180.482 205.083 180.607C204.875 181.002 204.178 180.872 203.876 180.537C203.574 180.202 203.607 179.629 203.936 179.33C204.266 179.027 204.839 179.05 205.142 179.38C205.233 179.478 205.304 179.612 205.291 179.744C205.281 179.922 205.148 180.093 205.135 180.191Z" fill="#DBD0FA" stroke="#D28596" stroke-width="0.489947" stroke-miterlimit="10"/>
<path d="M203.594 178.124C203.937 178.126 204.283 178.138 204.588 177.98C204.892 177.823 205.148 177.589 205.394 177.354C206.978 175.827 208.281 174.038 209.573 172.253C209.72 172.049 209.876 171.816 209.836 171.567C209.79 171.287 209.482 171.105 209.195 171.131C208.913 171.157 208.668 171.348 208.498 171.573C208.333 171.805 208.227 172.069 208.112 172.332C207.284 174.171 205.719 175.665 203.844 176.405C203.482 176.545 203.097 176.671 202.831 176.949C202.559 177.225 202.467 177.721 202.743 177.987C203.002 178.237 203.42 178.125 203.594 178.124Z" fill="#DBD0FA" stroke="#D28596" stroke-width="0.489947" stroke-miterlimit="10"/>
<path d="M197.396 176.873C197.983 177.481 198.575 178.13 199.413 178C200.25 177.871 200.959 177.335 201.614 176.797C203.713 175.072 205.654 173.156 207.398 171.079C208.045 170.306 208.677 169.501 209.062 168.573C209.278 168.05 209.413 167.495 209.611 166.96C209.924 166.121 210.382 165.347 210.757 164.532C211.636 162.606 211.997 160.439 211.788 158.329C211.714 157.562 211.532 156.75 210.973 156.226C210.408 155.706 209.354 155.676 208.97 156.341C208.723 156.765 208.827 157.312 209.05 157.751C209.273 158.19 209.6 158.563 209.828 159.002C210.429 160.17 210.216 161.585 209.878 162.853C208.69 167.262 206.093 171.284 202.559 174.173C201.637 174.923 200.561 175.633 199.373 175.605C198.992 175.592 198.616 175.506 198.237 175.514C197.859 175.522 197.449 175.646 197.232 175.96C197.011 176.273 197.182 176.655 197.396 176.873Z" fill="#DBD0FA" stroke="#D28596" stroke-width="0.489947" stroke-miterlimit="10"/>
<path d="M195.862 173.044C196.122 173.687 196.631 174.254 197.297 174.435C197.8 174.568 198.329 174.476 198.839 174.382C199.756 174.213 200.695 174.033 201.487 173.548C202.3 173.052 202.888 172.271 203.46 171.507C204.085 170.677 204.71 169.846 205.331 169.009C206.03 168.079 206.729 167.144 207.216 166.09C207.746 164.933 207.998 163.672 208.248 162.427C208.531 161.006 208.953 159.515 208.562 158.123C208.221 156.911 207.533 155.836 206.95 155.706C205.609 155.414 206.901 158.428 207.027 159.795C207.227 161.899 206.781 164.034 205.921 165.963C205.062 167.892 203.797 169.621 202.35 171.157C201.915 171.615 201.455 172.07 200.898 172.367C200.341 172.665 199.663 172.791 199.067 172.57C198.063 172.204 197.639 171.056 197.017 170.189C196.788 169.869 196.43 169.541 196.044 169.638C195.741 169.711 195.533 170.036 195.53 170.349C195.532 170.877 195.602 172.401 195.862 173.044Z" fill="#DBD0FA" stroke="#D28596" stroke-width="0.489947" stroke-miterlimit="10"/>
<path d="M201.322 168.751C201.354 169.029 201.141 169.279 200.902 169.43C200.662 169.582 200.391 169.674 200.182 169.86C199.973 170.045 199.843 170.376 200.006 170.607C200.121 170.777 200.357 170.835 200.562 170.793C200.766 170.751 200.941 170.631 201.112 170.509C202.214 169.719 203.199 168.758 204.018 167.675C204.182 167.453 204.348 167.152 204.195 166.922C204.043 166.692 203.679 166.737 203.466 166.912C203.254 167.087 203.143 167.351 202.974 167.572C202.78 167.824 202.401 168.017 202.161 167.814C202.005 167.684 201.989 167.437 202.069 167.249C202.149 167.061 202.308 166.918 202.461 166.78C202.971 166.317 203.481 165.859 203.992 165.396C204.219 165.188 204.456 164.976 204.584 164.695C204.712 164.413 204.707 164.049 204.489 163.83C204.169 163.513 203.625 163.677 203.261 163.941C202.022 164.833 201.501 166.574 200.112 167.211C199.264 167.598 198.235 167.492 197.444 167.977C197.156 168.152 196.898 168.44 196.923 168.772C196.947 169.069 197.197 169.312 197.482 169.406C197.767 169.5 198.075 169.467 198.37 169.413C199.017 169.297 199.642 169.084 200.221 168.779C200.429 168.668 200.64 168.548 200.873 168.51C201.107 168.472 201.374 168.554 201.322 168.751Z" fill="#DBD0FA" stroke="#D28596" stroke-width="0.489947" stroke-miterlimit="10"/>
<path d="M202.737 162.361C202.667 162.615 202.635 162.89 202.477 163.102C202.318 163.314 202.073 163.475 201.809 163.479C201.52 163.489 201.245 163.317 201.073 163.085C200.901 162.852 200.816 162.566 200.776 162.277C200.708 161.83 200.735 161.34 200.976 160.955C201.223 160.57 201.727 160.331 202.147 160.498C202.406 160.603 202.597 160.838 202.711 161.093C202.898 161.511 202.844 161.977 202.737 162.361Z" fill="#DBD0FA" stroke="#D28596" stroke-width="0.489947" stroke-miterlimit="10"/>
<path d="M205.343 160.521C205.454 160.875 205.764 161.151 205.734 161.515C205.703 161.885 205.457 162.234 205.108 162.351C204.759 162.468 204.329 162.309 204.176 161.975C204.042 161.683 204.123 161.345 204.181 161.029C204.325 160.267 204.316 159.454 204.012 158.741C203.918 158.519 203.788 158.302 203.772 158.061C203.728 157.547 204.282 157.085 204.781 157.217C205.145 157.317 205.4 157.666 205.494 158.032C205.588 158.398 205.55 158.787 205.514 159.16C205.457 159.65 205.228 160.162 205.343 160.521Z" fill="#DBD0FA" stroke="#D28596" stroke-width="0.489947" stroke-miterlimit="10"/>
<path d="M204.248 154.829C204.842 154.841 205.423 154.517 205.79 154.049C206.158 153.576 206.339 152.979 206.371 152.381C206.407 151.788 206.273 151.132 205.8 150.774C205.44 150.501 204.939 150.457 204.509 150.588C204.079 150.718 203.706 151.011 203.402 151.348C203.097 151.684 202.842 152.103 202.83 152.554C202.819 152.996 203.041 153.409 203.256 153.797C203.535 154.299 203.891 154.82 204.248 154.829Z" fill="#DBD0FA" stroke="#D28596" stroke-width="0.489947" stroke-miterlimit="10"/>
</svg>
