<svg width="433" height="344" viewBox="0 0 433 344" fill="none" xmlns="http://www.w3.org/2000/svg">
<path d="M173.546 129.465C174.968 127.083 180.456 127.479 185.784 130.689C191.116 133.902 195.689 143.879 189.372 142.655C185.92 141.988 184.497 137.477 181.076 135.989C173.789 132.822 172.123 131.848 173.546 129.465Z" fill="#E69264"/>
<path opacity="0.3608" d="M175.412 128.917C175.682 129.169 175.976 129.683 176.259 130.067C176.415 130.281 176.686 130.523 176.903 130.387C177.072 130.283 177.05 130.018 176.918 129.862C176.793 129.704 176.594 129.616 176.423 129.51C176.249 129.401 176.078 129.246 176.069 129.047C176.056 128.879 176.17 128.723 176.32 128.639C176.467 128.559 176.648 128.538 176.82 128.539C177.228 128.538 177.722 128.712 177.813 129.11C177.86 129.311 177.785 129.519 177.723 129.715C177.662 129.91 177.613 130.13 177.71 130.322C177.804 130.512 178.106 130.603 178.225 130.44C178.199 130.139 178.12 129.841 178.107 129.538C178.094 129.235 178.153 128.915 178.371 128.71C178.59 128.505 178.987 128.476 179.191 128.711C179.325 128.864 179.34 129.088 179.294 129.277C179.248 129.466 179.149 129.643 179.067 129.819C178.72 130.604 178.877 132.27 179.169 132.173C179.385 132.1 179.345 131.131 179.391 130.524C179.437 129.918 179.649 129.263 180.187 128.979C180.373 128.882 180.592 128.838 180.801 128.894C181.009 128.95 181.191 129.124 181.223 129.331C181.265 129.632 181.012 129.874 180.819 130.1C180.625 130.327 180.498 130.709 180.742 130.907C181.051 130.691 181.185 130.308 181.373 129.987C181.564 129.662 181.912 129.361 182.289 129.458C182.613 129.542 182.802 129.901 182.798 130.231C182.79 130.558 182.636 130.853 182.482 131.138C182.234 131.601 181.986 132.065 181.74 132.525C181.622 132.748 181.525 133.065 181.739 133.216C181.881 133.314 182.08 133.257 182.192 133.138C182.304 133.018 182.349 132.855 182.399 132.695C182.575 132.103 182.787 131.525 183.039 130.961C183.177 130.656 183.369 130.321 183.705 130.268C184.079 130.209 184.422 130.546 184.578 130.894C184.855 131.51 184.771 132.226 184.511 132.827C184.251 133.427 183.825 133.941 183.404 134.447C183.524 134.536 183.7 134.523 183.826 134.45C183.952 134.377 184.043 134.255 184.121 134.135C184.477 133.619 184.774 133.063 185.015 132.483C185.107 132.259 185.195 132.022 185.364 131.849C185.533 131.676 185.815 131.577 186.041 131.693C186.281 131.813 186.366 132.126 186.303 132.374C186.245 132.625 186.073 132.828 185.913 133.028C185.75 133.227 185.583 133.439 185.538 133.693C185.516 133.813 185.558 133.979 185.683 133.992C185.745 134 185.803 133.963 185.849 133.918C186.265 133.538 186.274 132.767 186.813 132.575C187.068 132.484 187.389 132.582 187.556 132.804C187.723 133.026 187.719 133.356 187.55 133.561C187.382 133.767 187.096 133.837 186.885 133.998C186.669 134.156 186.553 134.52 186.785 134.677C186.947 134.788 187.171 134.71 187.299 134.574C187.427 134.439 187.499 134.261 187.611 134.115C187.774 133.901 188.043 133.745 188.322 133.789C188.596 133.829 188.843 134.109 188.916 134.296C188.988 134.483 189.044 134.696 188.974 134.837C188.902 134.972 188.754 135.052 188.62 135.13C188.027 135.481 187.55 136.003 187.261 136.623C187.203 136.745 187.152 136.883 187.178 137.023C187.203 137.163 187.336 137.293 187.473 137.27C187.572 137.255 187.664 137.192 187.696 137.1C187.88 136.616 188.163 136.261 188.465 135.885C188.638 135.672 189.041 135.245 189.326 135.245C189.914 135.25 190.22 136.067 190.194 136.227C190.168 136.386 190.043 136.508 189.926 136.619C189.76 136.778 189.594 136.937 189.429 137.096C189.355 137.166 189.279 137.239 189.242 137.338C189.208 137.433 189.22 137.559 189.307 137.621C189.431 137.713 189.604 137.629 189.718 137.532C189.931 137.351 190.104 137.121 190.221 136.866C190.253 136.801 190.288 136.722 190.363 136.701C190.435 136.685 190.509 136.733 190.564 136.785C190.847 137.051 190.947 137.486 190.808 137.834C190.703 138.097 190.486 138.292 190.29 138.496C190.095 138.701 189.903 138.934 189.883 139.22C189.877 139.323 189.893 139.435 189.959 139.521C190.025 139.608 190.143 139.658 190.241 139.626C190.364 139.584 190.41 139.437 190.452 139.314C190.519 139.118 190.637 138.938 190.783 138.792C190.869 138.704 190.989 138.622 191.111 138.649C191.26 138.677 191.344 138.839 191.396 138.98C191.561 139.41 191.69 139.859 191.711 140.312C191.733 140.765 191.631 141.234 191.366 141.596C191.101 141.958 190.66 142.204 190.197 142.179C190.032 142.167 189.842 142.107 189.781 141.954C189.721 141.808 189.798 141.655 189.878 141.525C190.486 140.564 190.379 140.6 190.341 140.522C190.3 140.431 189.851 140.741 189.701 140.943C189.545 141.157 189.455 141.413 189.286 141.619C189.118 141.825 188.821 141.962 188.571 141.825C188.327 141.831 188.103 141.636 188.024 141.407C187.945 141.179 187.983 140.925 188.076 140.708C188.169 140.49 188.307 140.296 188.429 140.093C188.675 139.692 188.86 139.256 188.985 138.802C189.002 138.734 189.022 138.661 189.005 138.585C188.989 138.516 188.925 138.442 188.853 138.443C188.782 138.439 188.726 138.499 188.686 138.553C188.437 138.872 188.311 139.26 188.135 139.622C187.96 139.983 187.717 140.344 187.338 140.497C186.963 140.652 186.431 140.518 186.277 140.133C186.163 139.855 186.28 139.541 186.471 139.318C186.662 139.095 186.918 138.942 187.149 138.761C187.266 138.666 187.381 138.559 187.424 138.417C187.468 138.274 187.412 138.087 187.27 138.031C187.098 137.961 186.926 138.095 186.811 138.229C186.637 138.425 186.486 138.647 186.276 138.815C186.068 138.979 185.779 139.078 185.52 138.989C185.303 138.911 185.142 138.714 185.06 138.499C184.88 138.033 185.01 137.503 185.282 137.097C185.549 136.689 185.942 136.379 186.315 136.066C186.437 135.964 186.563 135.849 186.608 135.696C186.649 135.541 186.563 135.34 186.401 135.314C186.243 135.291 186.123 135.432 186.035 135.556C185.773 135.931 185.507 136.302 185.245 136.677C185.112 136.863 184.976 137.052 184.796 137.191C184.616 137.33 184.373 137.411 184.142 137.362C183.852 137.295 183.639 137.016 183.599 136.727C183.559 136.439 183.672 136.149 183.845 135.919C184.021 135.692 184.253 135.517 184.494 135.354C184.628 135.26 184.775 135.164 184.836 135.011C184.897 134.858 184.83 134.637 184.663 134.603C184.513 134.568 184.386 134.694 184.291 134.804C184.136 134.98 183.985 135.16 183.83 135.337C183.66 135.536 183.076 136.24 182.487 135.939C182.243 135.817 182.078 135.516 182.176 135.28C182.475 134.791 182.778 134.304 183.074 133.818C183.36 133.347 183.664 132.807 183.509 132.261C183.475 132.142 183.389 132.01 183.269 132.023C183.162 132.033 183.11 132.154 183.073 132.253C182.851 132.916 182.575 133.566 182.253 134.185C182.096 134.483 181.914 134.787 181.613 134.948C181.347 135.09 181.022 135.091 180.718 135.02C180.419 134.948 180.136 134.81 179.858 134.671C179.712 134.596 179.549 134.505 179.506 134.349C179.462 134.186 179.569 134.031 179.672 133.9C180.156 133.281 180.595 132.62 180.984 131.933C181.029 131.856 181.073 131.772 181.076 131.683C181.078 131.593 181.028 131.491 180.94 131.465C180.812 131.429 180.708 131.554 180.643 131.661C180.379 132.115 180.15 132.592 179.827 133C179.503 133.409 179.052 133.756 178.525 133.828C177.888 133.914 177.252 133.599 176.671 133.293C176.547 133.228 176.413 133.151 176.37 133.021C176.303 132.816 176.494 132.636 176.662 132.516C176.949 132.308 177.234 132.104 177.521 131.896C177.626 131.82 177.737 131.737 177.79 131.622C177.843 131.507 177.824 131.339 177.709 131.269C177.542 131.165 177.347 131.326 177.219 131.462C176.965 131.74 176.681 131.993 176.376 132.221C176.066 132.446 175.696 132.654 175.309 132.588C174.854 132.508 174.542 132.09 174.279 131.708C174.15 131.522 174.032 131.252 174.196 131.102C174.331 130.982 174.55 131.056 174.729 131.115C175.141 131.245 175.597 131.239 175.996 131.099C176.075 131.071 176.167 131.024 176.178 130.94C176.192 130.858 176.124 130.776 176.044 130.745C175.964 130.714 175.878 130.716 175.792 130.719C175.421 130.733 175.041 130.708 174.672 130.649C174.517 130.622 174.358 130.592 174.226 130.512C174.091 130.428 173.98 130.291 173.977 130.134C173.972 129.997 174.051 129.877 174.136 129.773C174.457 129.351 175.273 128.788 175.412 128.917Z" fill="#FDDFD3"/>
<path d="M174.92 130.008C174.866 130.09 174.892 130.203 174.978 130.26C175.064 130.316 175.178 130.295 175.232 130.212C175.286 130.13 175.26 130.017 175.174 129.96C175.088 129.904 174.974 129.925 174.92 130.008Z" fill="#AA2829"/>
<path d="M178.213 132.746C178.159 132.829 178.185 132.942 178.271 132.998C178.357 133.055 178.471 133.034 178.525 132.951C178.58 132.868 178.554 132.755 178.468 132.699C178.381 132.642 178.267 132.663 178.213 132.746Z" fill="#AA2829"/>
<path d="M179.806 130.99C179.752 131.072 179.778 131.185 179.864 131.242C179.95 131.298 180.064 131.277 180.118 131.194C180.172 131.112 180.146 130.999 180.06 130.942C179.974 130.886 179.86 130.907 179.806 130.99Z" fill="#AA2829"/>
<path d="M181.809 130.53C181.755 130.613 181.781 130.726 181.867 130.782C181.953 130.839 182.067 130.818 182.121 130.735C182.176 130.652 182.15 130.539 182.064 130.483C181.977 130.426 181.863 130.448 181.809 130.53Z" fill="#AA2829"/>
<path d="M183.638 131.103C183.584 131.186 183.609 131.298 183.696 131.355C183.782 131.411 183.896 131.39 183.95 131.308C184.004 131.225 183.978 131.112 183.892 131.055C183.806 130.999 183.692 131.02 183.638 131.103Z" fill="#AA2829"/>
<path d="M182.837 135.141C182.783 135.224 182.809 135.337 182.895 135.393C182.981 135.45 183.095 135.428 183.149 135.346C183.203 135.263 183.178 135.15 183.091 135.093C183.005 135.037 182.891 135.058 182.837 135.141Z" fill="#AA2829"/>
<path d="M185.329 134.515C185.275 134.597 185.3 134.71 185.387 134.767C185.473 134.823 185.587 134.802 185.641 134.719C185.695 134.637 185.669 134.524 185.583 134.467C185.497 134.411 185.383 134.432 185.329 134.515Z" fill="#AA2829"/>
<path d="M188.142 134.667C188.088 134.75 188.114 134.863 188.2 134.919C188.286 134.976 188.4 134.954 188.454 134.872C188.509 134.789 188.483 134.676 188.397 134.62C188.31 134.563 188.196 134.584 188.142 134.667Z" fill="#AA2829"/>
<path d="M188.892 136.128C188.837 136.211 188.863 136.324 188.949 136.38C189.036 136.437 189.15 136.415 189.204 136.333C189.258 136.25 189.232 136.137 189.146 136.081C189.06 136.024 188.946 136.045 188.892 136.128Z" fill="#AA2829"/>
<path d="M186.994 139.993C186.939 140.075 186.965 140.188 187.051 140.245C187.138 140.301 187.251 140.28 187.306 140.197C187.36 140.115 187.334 140.002 187.248 139.945C187.162 139.889 187.048 139.91 186.994 139.993Z" fill="#AA2829"/>
<path d="M185.517 136.202C185.519 136.182 185.512 136.167 185.508 136.148C185.488 136.034 185.442 135.891 185.315 135.856C185.253 135.831 185.16 135.845 185.143 135.914C185.137 135.932 185.141 135.95 185.145 135.969C185.149 135.998 185.146 136.028 185.139 136.056C185.133 136.09 185.111 136.107 185.095 136.14C185.092 136.154 185.091 136.164 185.087 136.177C185.083 136.175 185.077 136.176 185.073 136.174C185.018 136.164 184.964 136.161 184.914 136.177C184.874 136.188 184.845 136.223 184.81 136.242C184.801 136.247 184.782 136.251 184.772 136.266C184.763 136.297 184.777 136.327 184.763 136.356C184.761 136.36 184.761 136.36 184.758 136.364C184.705 136.361 184.667 136.4 184.626 136.362C184.607 136.339 184.594 136.299 184.562 136.289C184.497 136.278 184.425 136.327 184.381 136.352C184.38 136.346 184.378 136.339 184.37 136.334C184.353 136.318 184.33 136.319 184.311 136.322C184.269 136.327 184.227 136.331 184.192 136.351C184.142 136.393 184.096 136.438 184.037 136.469C184.002 136.462 183.962 136.447 183.944 136.414C183.912 136.318 184.038 136.271 184.097 136.241C184.134 136.227 184.227 136.213 184.28 136.2C184.305 136.195 184.332 136.197 184.362 136.195C184.441 136.193 184.519 136.185 184.605 136.172C184.664 136.168 184.746 136.136 184.793 136.124C184.84 136.112 184.887 136.1 184.919 136.067C184.941 136.034 184.97 135.999 184.976 135.955C184.986 135.881 184.894 135.842 184.833 135.824C184.644 135.78 184.443 135.857 184.247 135.91C184.436 135.868 184.59 135.787 184.793 135.835C184.853 135.853 184.945 135.892 184.927 135.971C184.913 136.01 184.892 136.05 184.866 136.081C184.838 136.106 184.798 136.116 184.76 136.124C184.643 136.165 184.612 136.161 184.463 136.176C184.38 136.175 184.254 136.188 184.207 136.2C184.131 136.215 184.061 136.228 183.994 136.27C183.942 136.289 183.837 136.365 183.896 136.436C183.925 136.46 183.963 136.479 184.002 136.478C184.093 136.468 184.159 136.393 184.222 136.339C184.236 136.326 184.237 136.333 184.257 136.329C184.276 136.326 184.31 136.332 184.318 136.364C184.383 136.375 184.434 136.322 184.492 136.302C184.506 136.306 184.514 136.311 184.526 136.318C184.543 136.335 184.55 136.366 184.574 136.382C184.597 136.397 184.629 136.391 184.654 136.386C184.667 136.384 184.686 136.38 184.701 136.374C184.708 136.373 184.715 136.378 184.726 136.38C184.73 136.382 184.737 136.387 184.741 136.39C184.724 136.416 184.702 136.433 184.68 136.457C184.674 136.458 184.676 136.465 184.672 136.462C184.659 136.464 184.64 136.468 184.63 136.483C184.61 136.539 184.569 136.55 184.54 136.595C184.53 136.61 184.523 136.621 184.509 136.634C184.487 136.625 184.459 136.633 184.437 136.641C184.396 136.661 184.371 136.699 184.329 136.703C184.286 136.702 184.241 136.71 184.198 136.725C184.131 136.75 184.074 136.777 184.02 136.801C184.02 136.801 184.018 136.804 184.014 136.802C183.993 136.799 183.975 136.793 183.957 136.786C183.882 136.747 183.813 136.665 183.788 136.584C183.793 136.55 183.841 136.512 183.867 136.481C183.926 136.493 183.96 136.552 184.019 136.564C184.064 136.589 184.106 136.627 184.162 136.626C184.162 136.626 184.169 136.625 184.166 136.629C184.162 136.626 184.152 136.625 184.146 136.626C184.089 136.61 184.066 136.568 184.004 136.544C183.969 136.521 183.948 136.485 183.905 136.474C183.878 136.472 183.846 136.478 183.826 136.492C183.796 136.52 183.767 136.549 183.742 136.586C183.738 136.626 183.774 136.666 183.793 136.695C183.83 136.741 183.87 136.783 183.928 136.805C183.972 136.823 184.02 136.817 184.058 136.793C184.11 136.774 184.179 136.745 184.234 136.721C184.236 136.718 184.276 136.717 184.299 136.716C184.331 136.71 184.356 136.705 184.386 136.693C184.414 136.684 184.439 136.663 184.462 136.646C184.466 136.648 184.474 136.654 184.477 136.656C184.488 136.657 184.5 136.655 184.513 136.653C184.551 136.646 184.568 136.603 184.592 136.576C184.618 136.544 184.659 136.524 184.672 136.478C184.675 136.475 184.679 136.467 184.686 136.466C184.692 136.465 184.707 136.459 184.714 136.458C184.731 136.448 184.744 136.429 184.76 136.413C184.765 136.405 184.773 136.4 184.778 136.393C184.808 136.391 184.831 136.39 184.861 136.377C184.921 136.363 185.001 136.335 185.074 136.265C185.088 136.253 185.096 136.232 185.104 136.22L185.106 136.217C185.143 136.262 185.205 136.271 185.264 136.283C185.294 136.287 185.322 136.305 185.355 136.305C185.401 136.303 185.457 136.302 185.482 136.265C185.498 136.249 185.51 136.23 185.517 136.202ZM185.042 136.271C184.986 136.331 184.922 136.369 184.859 136.381C184.846 136.384 184.828 136.393 184.796 136.383C184.808 136.364 184.813 136.34 184.817 136.317C184.819 136.296 184.811 136.275 184.821 136.26C184.835 136.248 184.85 136.241 184.865 136.235C184.885 136.222 184.928 136.191 184.936 136.186C184.982 136.184 185.036 136.187 185.08 136.205C185.065 136.228 185.051 136.25 185.042 136.271ZM185.343 136.281C185.286 136.265 185.217 136.268 185.171 136.227C185.158 136.214 185.149 136.202 185.131 136.196C185.138 136.184 185.144 136.167 185.148 136.153C185.149 136.117 185.174 136.095 185.19 136.063C185.199 136.032 185.202 136.001 185.202 135.969C185.2 135.946 185.191 135.925 185.2 135.903C185.202 135.883 185.222 135.87 185.231 135.865C185.237 135.864 185.241 135.866 185.251 135.867C185.376 135.89 185.44 136.013 185.458 136.131C185.461 136.16 185.481 136.189 185.475 136.223C185.465 136.248 185.448 136.291 185.428 136.305C185.397 136.3 185.366 136.296 185.343 136.281Z" fill="#AA2829"/>
<path d="M171.521 194.821C174.161 195.677 174.998 201.115 173.057 207.024C171.114 212.938 162.408 219.621 162.193 213.19C162.074 209.676 166.153 207.283 166.841 203.616C168.303 195.806 168.882 193.965 171.521 194.821Z" fill="#E69264"/>
<path opacity="0.3608" d="M172.473 196.518C172.287 196.837 171.852 197.238 171.54 197.6C171.366 197.8 171.191 198.118 171.372 198.299C171.51 198.44 171.765 198.361 171.887 198.197C172.013 198.04 172.054 197.826 172.119 197.636C172.187 197.442 172.3 197.24 172.492 197.187C172.653 197.138 172.831 197.213 172.946 197.341C173.057 197.467 173.117 197.638 173.155 197.807C173.246 198.204 173.187 198.724 172.82 198.902C172.634 198.992 172.414 198.965 172.21 198.949C172.006 198.933 171.781 198.934 171.615 199.072C171.451 199.205 171.429 199.52 171.615 199.599C171.903 199.507 172.175 199.364 172.468 199.284C172.761 199.203 173.086 199.19 173.334 199.357C173.583 199.524 173.699 199.905 173.515 200.156C173.397 200.321 173.182 200.385 172.987 200.382C172.792 200.38 172.598 200.323 172.408 200.282C171.566 200.119 169.976 200.643 170.136 200.907C170.255 201.1 171.191 200.845 171.793 200.755C172.395 200.665 173.079 200.725 173.477 201.187C173.613 201.347 173.705 201.55 173.696 201.766C173.688 201.982 173.56 202.198 173.364 202.275C173.08 202.383 172.788 202.19 172.524 202.053C172.26 201.915 171.859 201.875 171.721 202.157C172 202.41 172.403 202.456 172.758 202.567C173.117 202.681 173.489 202.953 173.478 203.343C173.469 203.678 173.161 203.941 172.839 204.011C172.518 204.076 172.196 203.991 171.884 203.905C171.377 203.767 170.869 203.628 170.366 203.491C170.123 203.426 169.792 203.402 169.693 203.644C169.628 203.805 169.728 203.986 169.87 204.068C170.011 204.151 170.18 204.159 170.347 204.171C170.963 204.211 171.575 204.288 172.18 204.408C172.508 204.476 172.878 204.588 173.004 204.904C173.146 205.255 172.894 205.664 172.588 205.894C172.05 206.302 171.333 206.379 170.69 206.26C170.046 206.14 169.451 205.839 168.864 205.542C168.804 205.679 168.856 205.847 168.955 205.954C169.054 206.06 169.193 206.122 169.327 206.172C169.91 206.403 170.518 206.569 171.138 206.675C171.376 206.714 171.627 206.747 171.833 206.873C172.039 207 172.199 207.253 172.136 207.498C172.073 207.759 171.787 207.911 171.531 207.906C171.273 207.905 171.037 207.782 170.806 207.671C170.576 207.556 170.332 207.441 170.074 207.455C169.953 207.459 169.8 207.537 169.816 207.662C169.821 207.724 169.87 207.772 169.924 207.807C170.388 208.128 171.141 207.965 171.449 208.448C171.594 208.676 171.57 209.01 171.391 209.223C171.212 209.435 170.889 209.504 170.652 209.386C170.414 209.268 170.282 209.005 170.078 208.835C169.875 208.66 169.495 208.628 169.393 208.889C169.321 209.071 169.447 209.272 169.608 209.367C169.768 209.462 169.958 209.492 170.125 209.569C170.37 209.68 170.582 209.908 170.602 210.189C170.623 210.466 170.406 210.768 170.24 210.881C170.074 210.994 169.878 211.095 169.725 211.058C169.577 211.018 169.466 210.893 169.361 210.779C168.887 210.279 168.271 209.931 167.603 209.787C167.47 209.758 167.325 209.739 167.194 209.795C167.063 209.851 166.966 210.009 167.019 210.138C167.056 210.231 167.138 210.307 167.234 210.317C167.747 210.389 168.157 210.585 168.59 210.796C168.836 210.917 169.342 211.215 169.406 211.492C169.532 212.067 168.804 212.548 168.643 212.558C168.481 212.568 168.335 212.473 168.201 212.384C168.009 212.258 167.817 212.132 167.625 212.006C167.54 211.949 167.452 211.892 167.347 211.878C167.247 211.865 167.127 211.905 167.085 212.004C167.023 212.146 167.144 212.295 167.264 212.384C167.488 212.552 167.751 212.67 168.026 212.727C168.096 212.743 168.181 212.76 168.217 212.828C168.25 212.895 168.219 212.978 168.18 213.043C167.984 213.379 167.582 213.573 167.212 213.515C166.932 213.471 166.694 213.303 166.451 213.158C166.209 213.013 165.939 212.878 165.655 212.922C165.553 212.939 165.448 212.979 165.378 213.063C165.309 213.147 165.286 213.273 165.339 213.362C165.408 213.472 165.561 213.484 165.69 213.497C165.897 213.519 166.098 213.594 166.273 213.704C166.378 213.768 166.484 213.867 166.486 213.992C166.492 214.143 166.352 214.261 166.226 214.344C165.844 214.6 165.435 214.826 164.999 214.948C164.562 215.069 164.082 215.075 163.67 214.898C163.258 214.72 162.92 214.345 162.841 213.888C162.816 213.724 162.832 213.526 162.967 213.432C163.097 213.341 163.263 213.383 163.407 213.431C164.48 213.81 164.42 213.713 164.488 213.658C164.568 213.598 164.165 213.23 163.935 213.129C163.692 213.024 163.422 212.994 163.184 212.875C162.946 212.757 162.745 212.499 162.824 212.224C162.763 211.987 162.903 211.726 163.108 211.598C163.314 211.47 163.569 211.451 163.802 211.492C164.035 211.534 164.254 211.625 164.48 211.699C164.926 211.85 165.392 211.933 165.862 211.953C165.933 211.955 166.008 211.958 166.078 211.924C166.142 211.893 166.2 211.815 166.183 211.744C166.171 211.675 166.1 211.634 166.039 211.606C165.672 211.435 165.266 211.398 164.874 211.308C164.482 211.217 164.077 211.062 163.843 210.726C163.608 210.395 163.62 209.847 163.961 209.61C164.207 209.437 164.539 209.481 164.799 209.617C165.059 209.754 165.266 209.97 165.494 210.154C165.612 210.248 165.741 210.336 165.89 210.346C166.039 210.357 166.209 210.26 166.231 210.109C166.261 209.926 166.092 209.789 165.937 209.706C165.706 209.581 165.456 209.483 165.246 209.315C165.04 209.149 164.878 208.89 164.908 208.617C164.936 208.389 165.091 208.188 165.282 208.06C165.697 207.78 166.243 207.789 166.699 207.963C167.156 208.133 167.546 208.447 167.934 208.741C168.061 208.837 168.201 208.934 168.36 208.944C168.521 208.949 168.698 208.82 168.687 208.657C168.674 208.498 168.51 208.412 168.369 208.354C167.945 208.182 167.524 208.006 167.1 207.834C166.889 207.745 166.674 207.656 166.499 207.511C166.323 207.366 166.19 207.147 166.186 206.912C166.187 206.613 166.412 206.343 166.684 206.24C166.956 206.137 167.265 206.182 167.527 206.3C167.787 206.421 168.009 206.608 168.222 206.807C168.344 206.917 168.471 207.038 168.633 207.064C168.796 207.089 168.996 206.975 168.992 206.804C168.992 206.65 168.842 206.554 168.714 206.486C168.507 206.375 168.298 206.267 168.091 206.156C167.859 206.035 167.043 205.622 167.204 204.98C167.269 204.716 167.526 204.487 167.777 204.531C168.321 204.713 168.864 204.899 169.403 205.08C169.926 205.254 170.52 205.43 171.018 205.157C171.126 205.097 171.235 204.984 171.196 204.87C171.163 204.768 171.033 204.744 170.928 204.73C170.232 204.661 169.538 204.537 168.863 204.361C168.536 204.275 168.2 204.165 167.975 203.908C167.778 203.68 167.704 203.364 167.706 203.051C167.71 202.744 167.781 202.437 167.855 202.135C167.895 201.976 167.947 201.796 168.09 201.72C168.239 201.641 168.414 201.711 168.564 201.782C169.276 202.116 170.018 202.396 170.774 202.622C170.86 202.649 170.951 202.673 171.039 202.656C171.127 202.639 171.215 202.567 171.221 202.475C171.227 202.342 171.082 202.269 170.963 202.229C170.462 202.073 169.947 201.957 169.476 201.732C169.005 201.507 168.566 201.145 168.379 200.647C168.153 200.046 168.318 199.356 168.487 198.722C168.523 198.586 168.568 198.438 168.685 198.367C168.87 198.256 169.088 198.402 169.243 198.539C169.509 198.773 169.772 199.005 170.039 199.238C170.136 199.324 170.242 199.413 170.366 199.439C170.49 199.465 170.649 199.41 170.692 199.281C170.756 199.096 170.555 198.942 170.394 198.847C170.067 198.661 169.757 198.441 169.466 198.194C169.178 197.943 168.893 197.628 168.871 197.236C168.847 196.774 169.185 196.377 169.499 196.036C169.651 195.869 169.889 195.693 170.071 195.82C170.218 195.925 170.195 196.155 170.178 196.343C170.142 196.773 170.25 197.216 170.476 197.573C170.521 197.645 170.587 197.724 170.671 197.716C170.754 197.712 170.819 197.626 170.831 197.541C170.844 197.456 170.822 197.373 170.8 197.291C170.704 196.932 170.643 196.555 170.619 196.183C170.611 196.026 170.604 195.864 170.653 195.718C170.704 195.568 170.813 195.429 170.966 195.391C171.098 195.356 171.233 195.405 171.354 195.465C171.836 195.684 172.567 196.354 172.473 196.518Z" fill="#FDDFD3"/>
<path d="M171.299 196.282C171.207 196.247 171.102 196.298 171.066 196.394C171.03 196.491 171.077 196.597 171.169 196.632C171.262 196.666 171.366 196.616 171.402 196.519C171.438 196.422 171.392 196.316 171.299 196.282Z" fill="#AA2829"/>
<path d="M169.364 200.103C169.272 200.068 169.167 200.119 169.131 200.215C169.096 200.312 169.142 200.418 169.234 200.453C169.327 200.487 169.431 200.437 169.467 200.34C169.503 200.243 169.457 200.137 169.364 200.103Z" fill="#AA2829"/>
<path d="M171.432 201.263C171.339 201.229 171.235 201.279 171.199 201.376C171.163 201.473 171.209 201.579 171.302 201.613C171.395 201.648 171.499 201.597 171.535 201.501C171.571 201.404 171.524 201.298 171.432 201.263Z" fill="#AA2829"/>
<path d="M172.326 203.114C172.233 203.08 172.129 203.13 172.093 203.227C172.057 203.323 172.103 203.43 172.196 203.464C172.289 203.498 172.393 203.448 172.429 203.351C172.465 203.255 172.419 203.148 172.326 203.114Z" fill="#AA2829"/>
<path d="M172.176 205.024C172.083 204.99 171.979 205.04 171.943 205.137C171.907 205.233 171.953 205.34 172.046 205.374C172.138 205.409 172.243 205.358 172.279 205.262C172.314 205.165 172.268 205.059 172.176 205.024Z" fill="#AA2829"/>
<path d="M168.061 205.144C167.968 205.11 167.864 205.16 167.828 205.257C167.792 205.353 167.838 205.46 167.931 205.494C168.024 205.528 168.128 205.478 168.164 205.381C168.2 205.285 168.154 205.179 168.061 205.144Z" fill="#AA2829"/>
<path d="M169.227 207.433C169.134 207.399 169.03 207.449 168.994 207.546C168.958 207.643 169.004 207.749 169.097 207.783C169.19 207.818 169.294 207.767 169.33 207.671C169.366 207.574 169.32 207.468 169.227 207.433Z" fill="#AA2829"/>
<path d="M169.706 210.21C169.613 210.176 169.509 210.226 169.473 210.323C169.437 210.419 169.483 210.526 169.576 210.56C169.668 210.594 169.773 210.544 169.809 210.447C169.844 210.351 169.798 210.244 169.706 210.21Z" fill="#AA2829"/>
<path d="M168.448 211.266C168.356 211.232 168.251 211.282 168.216 211.379C168.18 211.476 168.226 211.582 168.319 211.616C168.411 211.651 168.516 211.6 168.551 211.504C168.587 211.407 168.541 211.301 168.448 211.266Z" fill="#AA2829"/>
<path d="M164.258 210.278C164.165 210.243 164.061 210.294 164.025 210.39C163.989 210.487 164.035 210.593 164.128 210.628C164.221 210.662 164.325 210.612 164.361 210.515C164.397 210.419 164.351 210.312 164.258 210.278Z" fill="#AA2829"/>
<path d="M167.623 207.993C167.644 207.991 167.657 207.981 167.674 207.972C167.782 207.928 167.91 207.851 167.916 207.719C167.927 207.653 167.892 207.566 167.821 207.564C167.803 207.562 167.785 207.571 167.768 207.579C167.74 207.589 167.71 207.593 167.682 207.592C167.648 207.594 167.626 207.576 167.59 207.568C167.576 207.568 167.566 207.569 167.552 207.569C167.554 207.564 167.551 207.558 167.553 207.554C167.549 207.498 167.54 207.445 167.514 207.4C167.494 207.363 167.454 207.343 167.427 207.313C167.42 207.306 167.412 207.288 167.396 207.282C167.363 207.28 167.337 207.3 167.306 207.293C167.301 207.291 167.301 207.291 167.297 207.29C167.288 207.237 167.241 207.209 167.269 207.16C167.287 207.137 167.324 207.116 167.327 207.082C167.323 207.016 167.258 206.957 167.224 206.919C167.23 206.917 167.236 206.914 167.239 206.905C167.252 206.885 167.246 206.863 167.238 206.845C167.224 206.805 167.21 206.765 167.183 206.735C167.131 206.696 167.077 206.661 167.034 206.61C167.033 206.574 167.039 206.532 167.067 206.507C167.153 206.455 167.226 206.567 167.27 206.618C167.291 206.65 167.325 206.738 167.35 206.787C167.36 206.811 167.365 206.837 167.374 206.865C167.393 206.942 167.418 207.016 167.45 207.098C167.467 207.154 167.516 207.227 167.539 207.27C167.561 207.313 167.583 207.356 167.622 207.381C167.66 207.395 167.7 207.415 167.744 207.411C167.819 207.404 167.836 207.306 167.84 207.243C167.841 207.049 167.721 206.87 167.625 206.69C167.708 206.865 167.822 206.997 167.821 207.205C167.816 207.269 167.799 207.367 167.718 207.366C167.677 207.361 167.633 207.35 167.597 207.332C167.567 207.31 167.547 207.273 167.532 207.238C167.465 207.133 167.462 207.102 167.415 206.96C167.397 206.879 167.356 206.759 167.333 206.716C167.303 206.645 167.274 206.58 167.218 206.524C167.188 206.478 167.091 206.392 167.035 206.466C167.017 206.499 167.007 206.54 167.017 206.578C167.047 206.664 167.134 206.712 167.202 206.762C167.217 206.772 167.211 206.775 167.219 206.793C167.227 206.811 167.228 206.846 167.199 206.86C167.203 206.926 167.265 206.964 167.298 207.017C167.298 207.031 167.294 207.04 167.289 207.053C167.277 207.073 167.248 207.087 167.238 207.114C167.229 207.14 167.241 207.17 167.252 207.193C167.257 207.205 167.265 207.223 167.274 207.236C167.277 207.242 167.273 207.251 167.274 207.261C167.273 207.266 167.269 207.275 167.268 207.279C167.238 207.268 167.216 207.25 167.189 207.235C167.186 207.229 167.18 207.232 167.182 207.227C167.177 207.215 167.169 207.197 167.152 207.191C167.093 207.184 167.073 207.147 167.023 207.128C167.006 207.122 166.993 207.117 166.978 207.107C166.982 207.083 166.968 207.058 166.956 207.039C166.926 207.003 166.884 206.987 166.87 206.947C166.862 206.904 166.844 206.863 166.82 206.824C166.78 206.764 166.741 206.715 166.707 206.667C166.707 206.667 166.702 206.666 166.704 206.661C166.702 206.641 166.704 206.622 166.707 206.603C166.728 206.521 166.793 206.436 166.866 206.393C166.9 206.391 166.948 206.429 166.984 206.447C166.986 206.507 166.935 206.553 166.937 206.613C166.923 206.663 166.895 206.713 166.908 206.767C166.908 206.767 166.911 206.773 166.907 206.772C166.908 206.767 166.907 206.757 166.905 206.751C166.908 206.692 166.943 206.661 166.953 206.595C166.968 206.555 166.998 206.527 167 206.483C166.995 206.456 166.982 206.426 166.965 206.41C166.93 206.387 166.896 206.364 166.854 206.349C166.813 206.354 166.783 206.397 166.759 206.423C166.723 206.469 166.691 206.517 166.682 206.579C166.674 206.626 166.691 206.671 166.722 206.703C166.753 206.749 166.797 206.81 166.832 206.858C166.836 206.86 166.845 206.898 166.852 206.92C166.864 206.95 166.875 206.974 166.893 207.001C166.908 207.026 166.934 207.046 166.956 207.064C166.954 207.068 166.951 207.077 166.949 207.081C166.95 207.091 166.956 207.103 166.961 207.115C166.976 207.151 167.021 207.158 167.053 207.174C167.089 207.193 167.119 207.229 167.166 207.231C167.17 207.233 167.179 207.236 167.181 207.242C167.184 207.248 167.193 207.261 167.196 207.267C167.209 207.282 167.23 207.29 167.25 207.302C167.258 207.305 167.265 207.313 167.273 207.316C167.282 207.344 167.288 207.366 167.307 207.393C167.334 207.448 167.379 207.519 167.463 207.576C167.478 207.586 167.501 207.59 167.514 207.594L167.518 207.596C167.482 207.642 167.487 207.704 167.489 207.764C167.492 207.795 167.48 207.826 167.487 207.858C167.5 207.903 167.513 207.957 167.555 207.973C167.574 207.985 167.595 207.993 167.623 207.993ZM167.45 207.546C167.38 207.505 167.328 207.451 167.302 207.391C167.297 207.38 167.284 207.365 167.287 207.331C167.308 207.339 167.332 207.338 167.356 207.337C167.376 207.334 167.395 207.321 167.412 207.328C167.427 207.338 167.437 207.352 167.446 207.365C167.464 207.382 167.503 207.416 167.51 207.424C167.522 207.468 167.531 207.521 167.523 207.568C167.498 207.559 167.473 207.549 167.45 207.546ZM167.508 207.841C167.511 207.782 167.492 207.716 167.522 207.662C167.533 207.646 167.542 207.635 167.544 207.616C167.557 207.62 167.575 207.622 167.589 207.622C167.625 207.616 167.651 207.635 167.687 207.644C167.719 207.646 167.749 207.642 167.781 207.634C167.803 207.627 167.822 207.614 167.844 207.617C167.864 207.615 167.882 207.632 167.889 207.639C167.891 207.645 167.89 207.649 167.891 207.66C167.896 207.786 167.791 207.876 167.68 207.92C167.652 207.929 167.628 207.955 167.594 207.958C167.567 207.953 167.522 207.946 167.504 207.929C167.501 207.898 167.498 207.867 167.508 207.841Z" fill="#AA2829"/>
<path d="M138.044 209.91C136.586 212.259 131.126 211.769 125.874 208.479C120.618 205.186 116.236 195.166 122.508 196.495C125.935 197.22 127.274 201.738 130.656 203.281C137.86 206.562 139.503 207.562 138.044 209.91Z" fill="#E69264"/>
<path opacity="0.3608" d="M136.176 210.425C135.911 210.169 135.627 209.652 135.351 209.264C135.2 209.048 134.935 208.802 134.716 208.934C134.546 209.034 134.563 209.299 134.691 209.457C134.814 209.616 135.011 209.707 135.178 209.816C135.35 209.927 135.518 210.085 135.524 210.283C135.533 210.452 135.417 210.605 135.267 210.686C135.118 210.763 134.938 210.78 134.766 210.777C134.36 210.77 133.871 210.588 133.787 210.191C133.744 209.989 133.822 209.783 133.887 209.59C133.951 209.396 134.004 209.178 133.91 208.985C133.821 208.794 133.521 208.698 133.4 208.859C133.421 209.159 133.494 209.457 133.501 209.759C133.509 210.061 133.445 210.379 133.224 210.58C133.003 210.78 132.606 210.801 132.408 210.564C132.277 210.41 132.266 210.186 132.315 209.998C132.364 209.81 132.466 209.637 132.55 209.462C132.91 208.687 132.782 207.023 132.489 207.115C132.273 207.184 132.296 208.15 132.24 208.754C132.183 209.358 131.961 210.006 131.42 210.28C131.233 210.373 131.014 210.414 130.807 210.354C130.601 210.294 130.422 210.118 130.395 209.911C130.357 209.61 130.614 209.374 130.81 209.152C131.007 208.929 131.141 208.551 130.901 208.35C130.589 208.559 130.449 208.938 130.256 209.255C130.061 209.575 129.708 209.87 129.334 209.766C129.013 209.677 128.831 209.316 128.841 208.988C128.854 208.662 129.013 208.371 129.171 208.089C129.426 207.632 129.682 207.174 129.935 206.72C130.056 206.5 130.158 206.186 129.947 206.032C129.808 205.932 129.608 205.985 129.495 206.102C129.381 206.219 129.333 206.38 129.281 206.539C129.096 207.126 128.875 207.699 128.614 208.255C128.47 208.557 128.273 208.887 127.938 208.934C127.564 208.987 127.229 208.646 127.079 208.295C126.814 207.677 126.91 206.965 127.18 206.371C127.449 205.777 127.882 205.273 128.31 204.777C128.192 204.686 128.017 204.696 127.89 204.766C127.764 204.836 127.67 204.956 127.59 205.075C127.227 205.583 126.921 206.131 126.671 206.705C126.576 206.927 126.484 207.161 126.313 207.331C126.141 207.5 125.858 207.593 125.636 207.474C125.399 207.351 125.32 207.038 125.386 206.791C125.449 206.543 125.624 206.343 125.786 206.146C125.952 205.951 126.122 205.743 126.171 205.49C126.195 205.372 126.157 205.205 126.032 205.19C125.971 205.181 125.913 205.217 125.866 205.261C125.444 205.632 125.422 206.4 124.881 206.583C124.626 206.668 124.309 206.565 124.146 206.341C123.984 206.117 123.993 205.789 124.165 205.587C124.336 205.385 124.622 205.32 124.835 205.164C125.053 205.009 125.174 204.649 124.946 204.489C124.787 204.375 124.563 204.449 124.433 204.582C124.303 204.715 124.228 204.89 124.114 205.034C123.948 205.245 123.677 205.395 123.4 205.347C123.127 205.301 122.886 205.019 122.817 204.831C122.748 204.644 122.696 204.43 122.769 204.291C122.843 204.158 122.991 204.08 123.126 204.005C123.723 203.666 124.207 203.154 124.505 202.542C124.565 202.421 124.619 202.284 124.596 202.144C124.573 202.005 124.443 201.873 124.306 201.893C124.207 201.906 124.114 201.968 124.081 202.058C123.889 202.538 123.601 202.887 123.294 203.255C123.118 203.465 122.709 203.883 122.425 203.879C121.84 203.863 121.548 203.044 121.577 202.885C121.606 202.727 121.732 202.608 121.851 202.5C122.019 202.344 122.187 202.188 122.355 202.033C122.429 201.965 122.506 201.893 122.545 201.795C122.581 201.701 122.571 201.575 122.485 201.511C122.363 201.417 122.189 201.499 122.074 201.593C121.858 201.77 121.682 201.996 121.561 202.248C121.529 202.312 121.492 202.39 121.417 202.409C121.345 202.425 121.272 202.375 121.218 202.322C120.941 202.052 120.849 201.617 120.993 201.273C121.103 201.013 121.323 200.822 121.52 200.622C121.718 200.422 121.914 200.194 121.939 199.909C121.947 199.806 121.933 199.694 121.869 199.607C121.804 199.52 121.688 199.468 121.589 199.497C121.466 199.538 121.418 199.683 121.374 199.805C121.303 199.999 121.183 200.176 121.035 200.319C120.948 200.405 120.827 200.485 120.706 200.456C120.558 200.426 120.477 200.263 120.428 200.121C120.271 199.69 120.15 199.241 120.136 198.789C120.123 198.337 120.232 197.872 120.503 197.516C120.773 197.16 121.216 196.922 121.677 196.955C121.842 196.97 122.029 197.033 122.088 197.186C122.145 197.333 122.065 197.484 121.984 197.612C121.361 198.559 121.469 198.525 121.506 198.604C121.545 198.695 121.997 198.393 122.15 198.195C122.309 197.985 122.404 197.731 122.575 197.529C122.746 197.327 123.044 197.195 123.291 197.336C123.534 197.334 123.754 197.532 123.828 197.761C123.903 197.99 123.861 198.242 123.765 198.458C123.669 198.673 123.528 198.863 123.403 199.064C123.15 199.459 122.958 199.89 122.826 200.34C122.808 200.409 122.787 200.481 122.803 200.556C122.818 200.626 122.879 200.7 122.952 200.701C123.022 200.705 123.079 200.647 123.12 200.594C123.373 200.281 123.506 199.896 123.687 199.539C123.868 199.182 124.116 198.826 124.496 198.681C124.873 198.532 125.4 198.675 125.547 199.062C125.656 199.341 125.534 199.652 125.34 199.871C125.146 200.089 124.887 200.237 124.655 200.414C124.536 200.506 124.42 200.61 124.374 200.752C124.328 200.893 124.381 201.08 124.522 201.138C124.692 201.211 124.865 201.08 124.982 200.95C125.158 200.757 125.313 200.538 125.525 200.375C125.735 200.215 126.024 200.121 126.281 200.215C126.496 200.296 126.653 200.495 126.731 200.71C126.902 201.178 126.763 201.704 126.486 202.103C126.212 202.505 125.815 202.807 125.439 203.113C125.315 203.212 125.187 203.325 125.14 203.476C125.097 203.63 125.179 203.832 125.34 203.861C125.497 203.886 125.619 203.748 125.708 203.625C125.976 203.257 126.247 202.891 126.515 202.523C126.651 202.34 126.789 202.153 126.971 202.018C127.153 201.883 127.397 201.806 127.625 201.859C127.913 201.931 128.121 202.213 128.155 202.501C128.19 202.789 128.073 203.076 127.897 203.302C127.717 203.525 127.483 203.695 127.24 203.854C127.105 203.945 126.957 204.039 126.893 204.19C126.83 204.341 126.893 204.562 127.059 204.599C127.208 204.636 127.337 204.513 127.432 204.406C127.59 204.232 127.744 204.056 127.901 203.883C128.074 203.687 128.668 202.996 129.25 203.306C129.49 203.432 129.65 203.735 129.548 203.967C129.242 204.45 128.932 204.93 128.628 205.409C128.335 205.873 128.023 206.406 128.168 206.953C128.199 207.071 128.283 207.204 128.403 207.194C128.51 207.185 128.563 207.065 128.602 206.967C128.835 206.311 129.12 205.669 129.452 205.058C129.614 204.763 129.8 204.463 130.103 204.308C130.37 204.171 130.694 204.176 130.996 204.252C131.292 204.329 131.572 204.472 131.846 204.615C131.991 204.692 132.152 204.785 132.191 204.942C132.232 205.105 132.123 205.257 132.019 205.386C131.525 205.994 131.077 206.645 130.677 207.323C130.631 207.399 130.586 207.482 130.582 207.571C130.577 207.66 130.625 207.763 130.713 207.79C130.84 207.828 130.946 207.705 131.012 207.599C131.283 207.152 131.519 206.681 131.849 206.28C132.179 205.878 132.634 205.54 133.16 205.477C133.796 205.403 134.424 205.728 134.997 206.042C135.12 206.11 135.252 206.189 135.292 206.319C135.355 206.524 135.162 206.7 134.993 206.817C134.703 207.019 134.416 207.218 134.126 207.42C134.02 207.494 133.909 207.574 133.854 207.688C133.799 207.802 133.814 207.969 133.928 208.041C134.092 208.148 134.289 207.99 134.419 207.857C134.678 207.585 134.964 207.338 135.273 207.116C135.585 206.897 135.958 206.697 136.341 206.769C136.794 206.856 137.097 207.278 137.353 207.663C137.478 207.851 137.591 208.122 137.425 208.268C137.288 208.386 137.071 208.308 136.894 208.247C136.486 208.11 136.032 208.108 135.632 208.241C135.552 208.267 135.46 208.312 135.448 208.396C135.432 208.477 135.499 208.56 135.578 208.593C135.657 208.625 135.743 208.624 135.828 208.622C136.198 208.615 136.577 208.646 136.942 208.712C137.097 208.741 137.255 208.773 137.384 208.856C137.517 208.941 137.626 209.08 137.626 209.237C137.628 209.373 137.548 209.491 137.461 209.594C137.134 210.008 136.312 210.555 136.176 210.425Z" fill="#FDDFD3"/>
<path d="M136.685 209.346C136.74 209.265 136.716 209.152 136.631 209.094C136.547 209.036 136.433 209.055 136.377 209.137C136.322 209.218 136.346 209.331 136.431 209.389C136.515 209.447 136.629 209.428 136.685 209.346Z" fill="#AA2829"/>
<path d="M133.451 206.561C133.507 206.48 133.483 206.367 133.398 206.309C133.313 206.251 133.2 206.27 133.144 206.352C133.089 206.433 133.112 206.546 133.197 206.604C133.282 206.662 133.396 206.643 133.451 206.561Z" fill="#AA2829"/>
<path d="M131.835 208.284C131.89 208.202 131.866 208.089 131.781 208.031C131.696 207.973 131.583 207.993 131.527 208.074C131.472 208.156 131.495 208.269 131.58 208.326C131.665 208.384 131.779 208.365 131.835 208.284Z" fill="#AA2829"/>
<path d="M129.831 208.706C129.886 208.625 129.863 208.512 129.778 208.454C129.693 208.396 129.579 208.415 129.524 208.497C129.468 208.578 129.492 208.691 129.577 208.749C129.662 208.807 129.775 208.788 129.831 208.706Z" fill="#AA2829"/>
<path d="M128.019 208.104C128.075 208.023 128.051 207.91 127.966 207.852C127.881 207.794 127.767 207.813 127.712 207.895C127.656 207.976 127.68 208.089 127.765 208.147C127.85 208.205 127.964 208.186 128.019 208.104Z" fill="#AA2829"/>
<path d="M128.887 204.095C128.942 204.013 128.919 203.9 128.834 203.843C128.749 203.785 128.635 203.804 128.58 203.885C128.524 203.967 128.548 204.08 128.633 204.138C128.718 204.195 128.832 204.176 128.887 204.095Z" fill="#AA2829"/>
<path d="M126.394 204.676C126.449 204.594 126.426 204.481 126.341 204.423C126.256 204.366 126.142 204.385 126.087 204.466C126.031 204.548 126.055 204.661 126.14 204.718C126.225 204.776 126.338 204.757 126.394 204.676Z" fill="#AA2829"/>
<path d="M123.594 204.475C123.65 204.393 123.626 204.28 123.541 204.223C123.456 204.165 123.342 204.184 123.287 204.266C123.231 204.347 123.255 204.46 123.34 204.518C123.425 204.576 123.539 204.556 123.594 204.475Z" fill="#AA2829"/>
<path d="M122.873 203.006C122.928 202.925 122.904 202.812 122.82 202.754C122.735 202.696 122.621 202.716 122.565 202.797C122.51 202.879 122.534 202.991 122.619 203.049C122.704 203.107 122.817 203.088 122.873 203.006Z" fill="#AA2829"/>
<path d="M124.831 199.189C124.886 199.108 124.862 198.995 124.777 198.937C124.693 198.879 124.579 198.898 124.523 198.98C124.468 199.061 124.492 199.174 124.577 199.232C124.661 199.29 124.775 199.271 124.831 199.189Z" fill="#AA2829"/>
<path d="M126.236 202.991C126.233 203.011 126.24 203.026 126.244 203.045C126.261 203.159 126.305 203.302 126.431 203.34C126.492 203.365 126.585 203.353 126.604 203.285C126.61 203.267 126.606 203.248 126.602 203.229C126.599 203.2 126.603 203.17 126.61 203.143C126.616 203.109 126.639 203.093 126.655 203.06C126.659 203.047 126.66 203.037 126.664 203.023C126.667 203.026 126.674 203.025 126.678 203.027C126.732 203.038 126.786 203.042 126.835 203.027C126.876 203.017 126.905 202.982 126.941 202.963C126.949 202.959 126.968 202.955 126.979 202.941C126.988 202.909 126.975 202.879 126.989 202.851C126.992 202.847 126.992 202.847 126.994 202.843C127.048 202.847 127.085 202.808 127.127 202.847C127.145 202.87 127.156 202.911 127.188 202.921C127.253 202.933 127.325 202.885 127.37 202.861C127.371 202.868 127.372 202.874 127.38 202.879C127.397 202.896 127.42 202.896 127.439 202.892C127.481 202.888 127.523 202.885 127.558 202.866C127.609 202.824 127.655 202.781 127.715 202.751C127.749 202.758 127.789 202.774 127.806 202.808C127.836 202.904 127.71 202.948 127.651 202.977C127.614 202.99 127.521 203.002 127.468 203.015C127.443 203.019 127.416 203.017 127.387 203.019C127.308 203.019 127.23 203.025 127.144 203.037C127.085 203.04 127.003 203.07 126.956 203.082C126.909 203.093 126.862 203.104 126.829 203.136C126.806 203.169 126.777 203.203 126.77 203.247C126.759 203.32 126.85 203.361 126.91 203.38C127.098 203.427 127.299 203.353 127.496 203.304C127.307 203.342 127.152 203.421 126.951 203.37C126.891 203.35 126.8 203.31 126.82 203.232C126.834 203.193 126.856 203.154 126.882 203.123C126.91 203.099 126.951 203.089 126.989 203.082C127.105 203.043 127.136 203.048 127.285 203.036C127.368 203.038 127.494 203.027 127.541 203.016C127.617 203.003 127.687 202.991 127.754 202.95C127.806 202.932 127.912 202.858 127.854 202.786C127.826 202.762 127.789 202.742 127.749 202.742C127.659 202.751 127.592 202.824 127.528 202.877C127.514 202.889 127.513 202.883 127.494 202.886C127.474 202.89 127.44 202.882 127.433 202.851C127.368 202.839 127.317 202.89 127.258 202.91C127.244 202.906 127.237 202.9 127.225 202.892C127.208 202.876 127.202 202.844 127.179 202.828C127.156 202.813 127.124 202.818 127.098 202.822C127.086 202.825 127.067 202.828 127.051 202.834C127.045 202.835 127.037 202.829 127.027 202.828C127.023 202.825 127.016 202.82 127.012 202.817C127.029 202.792 127.052 202.775 127.073 202.751C127.08 202.75 127.079 202.744 127.082 202.747C127.095 202.745 127.114 202.741 127.124 202.727C127.145 202.671 127.186 202.661 127.216 202.616C127.226 202.602 127.234 202.591 127.248 202.578C127.269 202.588 127.297 202.58 127.319 202.573C127.361 202.553 127.386 202.516 127.428 202.512C127.471 202.515 127.515 202.507 127.559 202.493C127.626 202.469 127.683 202.443 127.737 202.421C127.737 202.421 127.74 202.417 127.744 202.42C127.764 202.423 127.782 202.43 127.8 202.436C127.874 202.476 127.941 202.559 127.965 202.64C127.959 202.674 127.911 202.712 127.884 202.742C127.826 202.729 127.793 202.669 127.734 202.656C127.69 202.631 127.649 202.592 127.593 202.592C127.593 202.592 127.586 202.593 127.589 202.589C127.593 202.592 127.603 202.594 127.609 202.593C127.665 202.609 127.687 202.651 127.749 202.677C127.783 202.7 127.804 202.736 127.846 202.749C127.873 202.751 127.905 202.745 127.925 202.732C127.955 202.704 127.985 202.676 128.011 202.639C128.015 202.599 127.981 202.559 127.961 202.53C127.925 202.484 127.886 202.441 127.829 202.418C127.786 202.4 127.737 202.404 127.699 202.427C127.647 202.446 127.577 202.474 127.523 202.496C127.52 202.5 127.481 202.5 127.458 202.5C127.426 202.506 127.401 202.51 127.37 202.522C127.343 202.53 127.317 202.55 127.295 202.567C127.291 202.565 127.283 202.559 127.279 202.557C127.269 202.555 127.256 202.557 127.244 202.56C127.205 202.566 127.188 202.608 127.164 202.635C127.138 202.666 127.096 202.686 127.082 202.73C127.08 202.734 127.075 202.741 127.068 202.743C127.062 202.744 127.047 202.749 127.04 202.751C127.023 202.76 127.01 202.778 126.994 202.794C126.989 202.802 126.98 202.806 126.975 202.814C126.946 202.815 126.923 202.816 126.892 202.828C126.832 202.841 126.753 202.868 126.678 202.936C126.664 202.948 126.655 202.969 126.648 202.98L126.645 202.984C126.609 202.937 126.548 202.928 126.489 202.915C126.459 202.911 126.432 202.892 126.399 202.891C126.353 202.893 126.297 202.892 126.272 202.929C126.256 202.945 126.243 202.963 126.236 202.991ZM126.71 202.93C126.767 202.872 126.831 202.835 126.895 202.824C126.907 202.822 126.925 202.812 126.957 202.823C126.944 202.842 126.94 202.865 126.935 202.889C126.932 202.909 126.94 202.931 126.93 202.945C126.916 202.958 126.901 202.963 126.886 202.969C126.866 202.982 126.823 203.013 126.814 203.017C126.768 203.018 126.714 203.014 126.671 202.996C126.686 202.974 126.701 202.951 126.71 202.93ZM126.411 202.915C126.467 202.932 126.535 202.93 126.58 202.972C126.593 202.986 126.602 202.997 126.62 203.004C126.613 203.015 126.606 203.033 126.603 203.046C126.601 203.083 126.575 203.103 126.559 203.135C126.549 203.166 126.546 203.196 126.546 203.229C126.547 203.252 126.555 203.273 126.546 203.294C126.544 203.314 126.524 203.327 126.515 203.332C126.509 203.333 126.505 203.331 126.495 203.329C126.371 203.304 126.309 203.181 126.294 203.063C126.291 203.034 126.271 203.004 126.277 202.971C126.289 202.946 126.306 202.904 126.326 202.891C126.357 202.895 126.388 202.9 126.411 202.915Z" fill="#AA2829"/>
</svg>
