<svg width="433" height="344" viewBox="0 0 433 344" fill="none" xmlns="http://www.w3.org/2000/svg">
<mask id="mask0" style="mask-type:alpha" maskUnits="userSpaceOnUse" x="0" y="0" width="433" height="344">
<path fill-rule="evenodd" clip-rule="evenodd" d="M88.4357 70.4807L88.4357 70.4805C88.3576 70.0981 88.2818 69.7267 88.2818 69.3176C88.2818 69.182 88.2591 69.0239 88.2365 68.8657L88.2365 68.8655C88.2138 68.7074 88.1912 68.5493 88.1912 68.4138C88.0099 66.1545 88.1005 63.8951 88.5537 61.6357C89.0976 59.1956 90.0041 56.8458 91.3638 54.8576C91.3984 54.8231 91.4198 54.7886 91.4381 54.7591C91.4676 54.7114 91.489 54.6768 91.5451 54.6768C92.2746 53.7222 93.1647 52.7904 94.0769 51.8355C94.9781 50.892 95.901 49.9259 96.7119 48.8928C98.3435 46.7238 99.7938 44.3741 100.882 41.934C101.341 40.9031 101.736 39.8401 102.128 38.7856L102.128 38.7855C102.663 37.3439 103.192 35.9185 103.873 34.6136C105.051 32.3542 106.774 30.2756 108.949 28.7392L108.858 28.5585C106.502 29.8237 104.507 31.7216 103.057 34.0714C102.168 35.512 101.483 37.0205 100.815 38.4929C100.393 39.422 99.9778 40.3368 99.5219 41.211C98.3435 43.5607 96.9838 45.7297 95.3522 47.718C94.5906 48.646 93.7896 49.4952 92.9675 50.3668C92.0282 51.3626 91.0615 52.3875 90.0947 53.5923C90.0601 53.6269 90.0387 53.6614 90.0204 53.6909C89.9909 53.7386 89.9695 53.7731 89.9134 53.7731C89.2789 54.7672 88.8257 55.7613 88.3724 56.7555C88.3724 56.6651 88.3724 56.5747 88.4631 56.394C88.9163 54.225 89.6415 52.056 90.6386 50.0677V49.9773C90.8234 49.4859 91.0269 48.9944 91.2321 48.4987L91.2322 48.4985C91.9326 46.8067 92.6533 45.0659 92.7234 43.1088C92.7691 42.4722 92.7458 41.8813 92.723 41.3016C92.7005 40.7293 92.6784 40.1679 92.7234 39.5842C92.7234 38.4997 92.9047 37.3249 93.1767 36.15L92.9954 36.0596C92.4515 37.0537 91.9983 38.2286 91.817 39.4035C91.7314 39.9583 91.666 40.5131 91.6017 41.0585L91.6017 41.0586L91.6016 41.0588L91.6016 41.0589C91.5298 41.6682 91.4594 42.2655 91.3638 42.8377C91.0012 45.0067 90.276 47.0853 88.9163 49.0736C87.8286 51.2426 87.1034 53.5923 86.7408 55.9421C86.4689 57.7496 86.2876 59.4667 86.3782 61.2742C85.7437 59.8282 84.9279 58.4726 84.0214 57.2073C83.9761 57.1621 83.9535 57.117 83.9308 57.0718C83.9081 57.0266 83.8855 56.9814 83.8401 56.9362C82.2085 53.8635 81.2114 50.4292 80.6675 46.9046C80.5769 46.046 80.5089 45.1875 80.4409 44.3289C80.3729 43.4703 80.305 42.6118 80.2143 41.7532C80.1237 40.0361 80.305 38.319 80.5769 36.6019C80.9395 34.8847 81.4834 33.1676 82.2085 31.5409C82.843 29.9141 83.6589 28.2874 84.4747 26.6606C84.6203 26.3338 84.7807 26.007 84.9438 25.6744C85.1868 25.1791 85.4362 24.6708 85.6531 24.1301C86.0157 23.2264 86.2876 22.2322 86.3782 21.3285C86.6502 19.4306 86.3782 17.5327 86.1063 15.7252C85.8344 13.9177 85.6531 12.1102 85.7437 10.3027C85.8344 6.68774 87.194 3.2535 89.0976 0.090377L88.9163 0C86.8315 2.98237 85.2905 6.507 84.8372 10.2124C84.6156 12.0243 84.7625 13.8579 84.9068 15.6603C85.0577 17.5436 85.2058 19.3929 84.9279 21.1477C84.656 22.8649 83.9308 24.3109 82.9337 25.9376C82.0272 27.5644 81.2114 29.1911 80.4862 30.9082C79.9424 32.2639 79.3985 33.7099 79.1266 35.2462L79.1265 35.246C78.8546 34.4327 78.5826 33.6194 78.2201 32.8965C77.5856 31.812 76.8604 30.7275 75.9539 29.9141C75.682 29.6129 75.4101 29.3417 75.1449 29.0773C74.6144 28.5485 74.1108 28.0464 73.6878 27.3836C72.3281 25.5761 71.6029 23.4071 71.2404 21.1477C71.0204 19.777 70.9005 18.3729 70.7795 16.9558C70.701 16.0372 70.6221 15.113 70.5152 14.1889C70.1526 11.8391 69.5181 9.57975 68.249 7.5915L68.0677 7.68187C69.3368 9.67012 69.79 11.9295 69.9713 14.2792C70.0489 15.2849 70.0767 16.274 70.1044 17.2608C70.1414 18.5795 70.1783 19.894 70.3339 21.2381C70.5152 23.5879 71.1497 26.028 72.4188 28.1066C72.9392 29.1444 73.7917 30.0994 74.4996 30.8925L74.5943 30.9986C75.3194 31.812 75.8633 32.7157 76.3165 33.7099C77.5815 36.4214 77.7432 39.5729 77.9101 42.8267C77.9824 44.2362 78.0557 45.6649 78.2201 47.0853C78.2201 47.2112 78.2396 47.337 78.2605 47.4719L78.2606 47.472C78.2847 47.6277 78.3107 47.7954 78.3107 47.9891C78.492 49.4351 76.8604 50.4292 75.5914 49.6158C73.8694 48.4412 72.238 47.3568 70.6067 46.2725L70.6058 46.272C68.521 44.826 66.5268 43.38 64.9858 41.5725C63.5762 40.0109 62.7755 38.1796 61.8823 36.1367C61.7416 35.8149 61.5986 35.4879 61.4506 35.1558C59.2751 30.4564 55.8305 26.3895 52.386 22.6841C49.1227 19.1595 45.8595 15.2734 43.3214 10.845L43.1401 10.9354C45.4063 15.5445 48.5789 19.6114 51.8421 23.4975C55.1054 27.3836 58.1873 31.4505 60.0909 36.0596L60.1908 36.337L60.2494 36.5003C61.0265 38.6647 61.9238 41.1637 63.5355 43.1088C64.6232 44.5548 65.9829 45.8201 67.3426 46.9046C65.9829 46.6335 64.7139 46.3623 63.4448 46.0008C61.9945 45.549 60.4535 45.0067 59.0938 44.3741C57.7341 43.6511 56.5557 42.7473 55.468 41.6628C54.6762 40.8734 53.9324 39.9883 53.1668 39.077L53.1668 39.077L53.1667 39.0769L53.1667 39.0769L53.166 39.0761C52.8801 38.7358 52.5911 38.3918 52.2954 38.0479C51.2076 36.7826 49.9386 35.6077 48.3069 34.9751C46.7659 34.2521 45.0437 34.1617 43.412 34.1617V34.3425C45.0437 34.5232 46.5847 34.8847 47.9444 35.6077C49.304 36.4211 50.3011 37.596 51.2076 38.8612C51.4694 39.2267 51.7312 39.6072 51.9974 39.9941L51.9981 39.9951L51.9984 39.9956C52.6535 40.9477 53.3351 41.9384 54.1083 42.8377C55.196 44.103 56.4651 45.2778 57.9154 46.272C59.4564 47.1757 60.9067 47.8083 62.5383 48.441C64.0793 49.0736 65.8016 49.4351 67.4332 49.7062C69.0649 49.9773 70.4245 50.2485 71.7842 50.8811C72.4188 51.1522 73.0533 51.5137 73.6878 51.8752C73.7784 51.8752 73.8691 51.9656 73.8691 52.056C76.3165 53.9538 78.5827 55.8517 80.305 58.2015C81.6646 60.0993 82.7524 62.178 83.2963 64.5277C83.5712 65.3499 83.6898 66.2241 83.8101 67.1109L83.8102 67.1119C83.8485 67.3944 83.887 67.6782 83.9308 67.962C84.0214 68.5042 84.1121 69.1368 84.1121 69.8598C84.1573 70.1754 84.2025 70.5133 84.2477 70.8514L84.2481 70.854L84.2484 70.8565C84.2936 71.1946 84.3388 71.5326 84.384 71.8481C84.656 73.9267 85.1998 76.0053 85.8344 78.0839L85.8328 78.0828C84.8362 77.3602 83.8397 76.6376 82.9337 76.0053C80.8488 74.6497 78.8546 73.2037 76.8604 71.6673C76.8258 71.6328 76.7912 71.6115 76.7616 71.5933C76.7137 71.5638 76.6791 71.5424 76.6791 71.4866C75.4101 70.2213 74.2317 68.8657 73.1439 67.3293C71.626 65.2895 70.2041 63.2018 68.7734 61.101L68.7732 61.1007L68.773 61.1005L68.7728 61.1002L68.7727 61.0999L68.7725 61.0997L68.7723 61.0995C68.2384 60.3154 67.7032 59.5296 67.1613 58.7437C66.1642 57.2073 64.8951 55.8517 63.5355 54.6768C62.1758 53.502 60.5441 52.5078 58.9125 51.7848C58.4034 51.5592 57.8943 51.3512 57.3879 51.1444C56.2715 50.6883 55.1684 50.2376 54.1083 49.6158C52.6579 48.8025 51.2982 47.6276 50.2105 46.272L50.0292 46.3623C50.9357 47.8987 52.1141 49.2543 53.655 50.3388C54.5569 51.0132 55.5289 51.5478 56.4838 52.0731L56.4839 52.0731C57.0645 52.3924 57.6389 52.7083 58.1873 53.0501C61.1787 54.6768 63.5354 57.117 65.439 59.9186C65.6629 60.2534 65.8923 60.5938 66.1245 60.9383C66.8325 61.9885 67.5665 63.0774 68.249 64.1662C66.98 63.0817 65.711 62.0876 64.3513 61.1838C62.0851 59.7378 59.3657 58.563 56.5557 58.3822C54.1351 58.2265 51.849 58.4732 49.5815 58.7179L49.5798 58.718C49.2156 58.7573 48.8519 58.7966 48.4882 58.8341C45.8595 59.1052 43.2308 59.286 40.602 59.1956V59.3763C43.2308 59.8282 45.8595 60.009 48.5789 59.9186C49.2975 59.9186 50.0162 59.8983 50.733 59.8781H50.7331H50.7332H50.7333C52.6384 59.8244 54.5303 59.771 56.3744 60.0993C61.3599 60.732 65.439 64.347 68.9742 67.962C70.7871 69.8598 72.6907 71.8481 74.6849 73.6556C76.6791 75.4631 78.764 77.1802 80.8488 78.8069C83.0243 80.3433 85.0185 81.8797 86.7408 83.6872C87.5566 84.5006 88.2818 85.3139 89.007 86.2177C89.0976 86.4888 89.1883 86.6696 89.3696 86.9407C90.0211 88.2399 90.5064 89.622 90.994 91.0107L90.994 91.0108C91.3882 92.1336 91.7839 93.2606 92.2702 94.3514C92.2702 94.4073 92.3048 94.4631 92.3527 94.5403C92.3823 94.588 92.4169 94.6439 92.4515 94.7129H92.2702L91.2731 94.8033C90.9558 94.8259 90.6215 94.8485 90.2872 94.8711C89.2845 94.9389 88.2818 95.0067 87.7379 95.0744C86.8315 95.2552 85.925 95.3456 85.0185 95.3456C81.3021 95.5263 77.4949 94.8937 73.7785 93.5381C70.1526 92.1824 66.5268 90.1942 63.3542 87.7541C62.0962 86.8482 60.8921 85.835 59.6588 84.7971L59.6582 84.7966L59.6581 84.7965L59.6581 84.7965L59.6572 84.7958L59.6546 84.7936C59.2896 84.4865 58.9221 84.1772 58.5499 83.868C58.0953 83.468 57.6486 83.0603 57.1959 82.647L57.1958 82.6469C56.1138 81.6591 54.997 80.6397 53.655 79.6203C50.8282 77.4893 47.6342 76.4041 44.5917 75.3703C43.6342 75.045 42.6917 74.7247 41.7804 74.3786C39.8769 73.6556 37.9733 72.7518 36.251 71.577C34.5287 70.4021 33.0784 68.9561 31.7187 67.3293L31.5374 67.4197C32.6252 69.2272 33.9849 70.854 35.6165 72.2999C37.2481 73.7459 39.061 74.9208 40.9646 75.9149H41.0553C42.5962 76.7283 42.2337 78.9877 40.5114 79.2588H40.3301L32.7158 80.253C32.443 80.2821 32.1692 80.3133 31.8947 80.3446C29.6158 80.6045 27.2957 80.8691 25.1922 79.9818L25.1016 80.1626C27.3202 81.2686 29.8601 81.1732 32.2677 81.0829C32.4176 81.0772 32.567 81.0716 32.7158 81.0663C33.324 81.023 33.9373 80.9745 34.5534 80.9258L34.5536 80.9258L34.5538 80.9258C36.5087 80.7712 38.4909 80.6144 40.4207 80.6144C42.9588 80.6144 45.4969 80.8856 47.8537 81.3374C49.576 81.6989 51.2076 82.2412 52.5673 83.1449C52.6126 83.1901 52.6806 83.2353 52.7486 83.2805C52.8166 83.3257 52.8846 83.3709 52.9299 83.4161C53.8363 84.4102 54.8334 85.4947 55.8305 86.5792C57.2809 88.1156 58.8219 89.6519 60.4535 91.0979C62.0851 92.5439 63.7167 93.9899 65.5297 95.2552C65.5643 95.2897 65.5989 95.311 65.6285 95.3293C65.6763 95.3587 65.711 95.3801 65.711 95.4359C65.6203 95.4359 65.6203 95.4359 65.5297 95.5263C64.4419 95.8878 63.4448 96.2493 62.4477 96.7012C61.017 97.3315 59.6595 97.9861 58.335 98.6249L58.3344 98.6252C56.0507 99.7265 53.8649 100.781 51.5702 101.581C48.035 103.118 44.1372 103.479 40.1488 103.299C36.1604 103.118 32.2626 102.033 28.4555 100.858L28.3648 101.039C31.9907 102.756 35.7978 104.473 39.8769 105.196C40.5567 105.4 41.2366 105.451 41.9164 105.501C42.143 105.518 42.3696 105.535 42.5962 105.558C43.7746 105.648 44.953 105.739 46.1314 105.739H47.7631L49.304 105.558L50.9357 105.468H50.9357C51.4796 105.377 52.0234 105.287 52.4766 105.196C52.6579 105.196 52.8392 105.106 53.0205 105.016C52.5219 105.811 52.0781 106.634 51.6439 107.439C51.2888 108.097 50.9401 108.744 50.5731 109.354C49.7573 110.89 48.6695 112.155 47.0379 113.149L47.1285 113.33C48.9415 113.059 50.6637 111.794 51.9328 110.348C52.5114 109.688 53.0336 109.029 53.5421 108.387C54.1489 107.621 54.7363 106.879 55.3773 106.191C56.2838 105.196 57.2809 104.383 58.278 103.57C58.3686 103.524 58.4366 103.479 58.5046 103.434C58.5726 103.389 58.6406 103.344 58.7312 103.299C59.9465 102.837 61.1249 102.412 62.2664 102.001L62.2667 102.001C62.913 101.768 63.5474 101.539 64.17 101.31C67.5239 100.226 70.6058 99.8643 73.6878 100.407C73.8205 100.407 73.9046 100.455 74.0113 100.516L74.0116 100.517C74.0506 100.539 74.0926 100.563 74.141 100.587C77.223 102.033 80.6675 103.118 84.1121 103.75C84.8977 103.931 85.6832 104.032 86.4688 104.132L86.4697 104.132C86.8622 104.182 87.2547 104.232 87.6473 104.293C88.9021 104.376 89.5393 104.536 90.2001 104.703L90.3667 104.745L90.9105 104.835L91.4544 105.106L92.5422 105.558C92.9388 105.706 93.3084 105.936 93.6657 106.157C93.9615 106.341 94.2489 106.52 94.5364 106.642C97.0745 108.45 99.7938 110.438 101.607 113.421C101.958 114.017 102.378 114.585 102.798 115.154L102.798 115.154L102.798 115.154L102.924 115.325C110.843 134.471 108.515 158.065 88.6619 169.313C88.4677 169.437 88.2784 169.564 88.0942 169.692C83.8899 170.828 79.7328 171.861 77.7987 172.237C77.161 171.692 76.3411 170.15 75.6123 168.607C75.2306 167.751 74.8488 166.622 74.4671 165.493C74.12 164.466 73.773 163.439 73.4259 162.618C72.8293 161.232 72.3292 159.749 71.8203 158.24L71.8202 158.24C71.6297 157.675 71.438 157.107 71.2395 156.539C70.6019 154.452 69.6909 152.274 68.6888 150.278C67.7778 148.191 66.4113 146.285 64.7715 144.833L64.6804 145.015C66.3202 146.557 67.2312 148.553 67.8689 150.64C68.3062 152.383 68.5102 154.125 68.7143 155.867C68.7653 156.303 68.8163 156.738 68.871 157.174C69.1443 158.807 69.5087 160.44 69.8731 162.074C69.6453 161.892 69.4175 161.733 69.1898 161.575C68.9621 161.416 68.7343 161.257 68.5066 161.076C67.4134 160.259 66.2291 159.533 65.0448 158.807L61.583 156.902C57.3925 154.361 54.5684 149.915 52.1998 145.287C52.0716 145.05 51.9432 144.813 51.8143 144.574C49.4694 140.235 46.9615 135.594 42.8166 132.583L42.7255 132.765C46.4077 136.091 48.3191 140.701 50.1998 145.236C50.3199 145.526 50.4398 145.815 50.56 146.103C51.5621 148.553 52.6553 151.003 54.1129 153.363C55.5705 155.722 57.3925 157.9 59.67 159.624L61.3097 160.985L62.7673 162.164C63.0569 162.424 63.3556 162.684 63.6577 162.946C64.3061 163.509 64.97 164.086 65.5914 164.705C67.0148 166.052 68.1047 167.565 69.2518 169.158C69.573 169.604 69.8987 170.056 70.2375 170.513C70.6019 171.057 71.6039 172.872 71.7861 173.779C71.7861 173.779 69.5087 174.051 65.7736 175.231C64.0685 175.748 61.1566 176.445 59.7386 176.785C59.4142 176.862 59.168 176.921 59.0323 176.955C57.7569 176.229 56.4815 175.14 55.2972 173.961C53.4753 172.146 51.7446 170.15 50.0138 168.154L50.0138 168.154L50.0137 168.154L50.0136 168.153L50.0135 168.153L50.0134 168.153C49.7857 167.926 49.5807 167.677 49.3757 167.427C49.1708 167.178 48.9658 166.928 48.7381 166.701C48.2826 166.066 47.8271 165.25 47.4627 164.524C46.7339 162.981 46.3695 161.166 46.0051 159.261C45.6407 157.355 45.003 155.268 44.092 153.544C43.3055 151.977 42.2474 150.614 41.2108 149.277C41.0467 149.066 40.8832 148.855 40.7213 148.644L40.5391 148.735C41.7234 150.278 42.5433 152.002 43.181 153.816C43.7276 155.631 43.8187 157.537 43.9098 159.442C43.9098 160.168 44.0009 160.985 44.092 161.801L44.092 161.801C39.9925 158.172 34.9821 156.176 30.0627 154.724C25.0523 153.272 19.9507 151.729 15.9424 148.191L15.8513 148.281C17.5821 150.278 19.7685 151.911 22.1371 153.181C24.0454 154.278 26.072 155.08 28.0739 155.872L28.0741 155.872C28.5569 156.063 29.0382 156.254 29.5161 156.448L30.0147 156.641C34.7661 158.478 39.4687 160.297 42.7255 163.979C44.3653 165.885 45.8229 168.153 47.1894 170.331C48.5559 172.6 49.9223 174.868 51.5621 177.137C51.7443 177.363 51.9493 177.613 52.1542 177.862L52.1548 177.863C52.3596 178.112 52.5644 178.362 52.7464 178.588C51.471 178.861 50.1045 179.133 48.8292 179.314C44.8208 179.949 41.0857 179.859 37.8062 178.498C34.5266 177.227 31.7025 174.505 28.6962 171.42C28.1531 170.879 27.61 170.33 27.0634 169.777C24.493 167.177 21.8465 164.5 18.7664 162.255C15.1225 159.533 11.023 157.537 6.74134 156.357L6.65024 156.539C10.4764 158.716 13.8471 161.439 16.6711 164.614C19.1595 167.413 21.1527 170.563 23.2117 173.818L23.2122 173.819L23.2146 173.822C23.4915 174.26 23.7696 174.699 24.0502 175.14C24.196 175.348 24.3418 175.556 24.4881 175.766C25.6219 177.388 26.7884 179.058 28.2407 180.585C26.5099 180.222 24.779 179.677 23.0481 179.042C21.5269 178.486 20.0621 177.818 18.5909 177.147C17.419 176.613 16.2431 176.077 15.0314 175.594C12.2984 174.596 9.38321 173.598 6.37694 173.688V173.87C9.29212 174.414 11.8429 175.594 14.3937 176.955C15.0285 177.271 15.669 177.587 16.3123 177.905C18.2539 178.863 20.2212 179.835 22.1371 180.857C22.3783 180.986 22.6202 181.115 22.8631 181.245L22.8779 181.253L22.9041 181.267L22.9201 181.276C25.2284 182.511 27.6176 183.79 30.1538 184.849C32.7957 186.029 35.6198 186.846 38.626 187.481C41.4501 188.479 44.4564 189.114 47.2805 189.568C45.914 190.294 44.4564 191.02 42.9988 191.473L41.0857 192.018L39.1726 192.381L34.9821 192.925C34.0711 193.107 33.1601 193.288 32.2491 193.56C30.1538 193.379 28.1496 193.47 26.1455 193.833C24.1413 194.196 22.046 194.649 20.1329 195.284C16.2157 196.646 12.5717 198.642 9.47431 201.183L9.56541 201.364C12.9361 199.186 16.6712 197.734 20.4973 196.736C22.4104 196.192 24.4146 195.829 26.3277 195.738H26.5099C23.868 196.918 21.4083 198.279 19.0397 199.912C16.58 201.546 14.3026 203.27 12.1162 205.084C7.83453 208.895 3.82616 212.888 0 216.79L0.182199 216.881C4.28166 212.979 8.47222 209.168 13.0272 205.81C17.491 202.362 22.2282 199.277 27.4208 197.281C29.9716 196.373 32.7046 195.647 35.3465 195.466L39.6281 195.375C39.9923 195.33 40.3792 195.285 40.766 195.239L40.7668 195.239C41.154 195.194 41.5412 195.148 41.9056 195.103C42.7255 195.012 43.4543 194.831 44.1831 194.649C47.1894 193.833 49.9223 192.562 52.4731 190.929C52.7009 190.793 52.9058 190.634 53.1108 190.475C53.3158 190.316 53.5208 190.158 53.7485 190.022C54.3862 190.022 55.0239 190.112 55.6616 190.203L61.6741 190.929C60.672 192.29 59.6699 193.56 58.5768 194.831C56.7548 197.009 54.7506 199.368 52.6553 201.273C50.56 203.179 48.1915 204.812 45.5496 206.083C42.631 207.692 39.5037 209.004 36.3553 210.325C34.0004 211.313 31.6338 212.306 29.3339 213.432C26.601 214.703 23.9591 216.155 21.4994 217.879C19.0397 219.603 16.8533 221.69 14.8492 223.868L15.0314 223.958C17.1266 221.871 19.313 219.875 21.8638 218.332C24.4146 216.79 27.0564 215.429 29.7894 214.34C32.0157 213.453 34.2874 212.671 36.5736 211.885L36.5743 211.884L36.5748 211.884C39.9012 210.74 43.2584 209.584 46.5517 208.079C49.2846 206.808 51.9265 205.175 54.2951 203.179L56.4815 201.273C56.1171 203.542 56.2993 205.81 56.5726 207.897C56.6155 208.282 56.6606 208.664 56.7055 209.044L56.7056 209.045C56.9468 211.088 57.1817 213.077 57.0281 215.066C56.937 217.425 56.2082 219.784 55.0239 221.871L55.2061 221.962C56.6637 219.966 57.5747 217.606 57.9391 215.156C58.1352 213.398 58.0967 211.593 58.0594 209.841V209.841C58.0447 209.153 58.0302 208.472 58.0302 207.807C58.0302 205.357 58.4857 203.088 59.2145 201.001C59.9433 199.096 61.0364 197.462 62.4029 195.829C63.1544 195.127 63.9301 193.991 64.705 192.857L64.7051 192.856L64.7052 192.856C65.4333 191.79 66.1607 190.725 66.8668 190.022C66.8668 190.022 72.4238 190.022 76.5233 189.568C80.2168 189.135 83.3922 189.161 86.919 189.19H86.9216H86.9241H86.9266C87.8337 189.197 88.7642 189.205 89.7327 189.205C90.5842 189.205 91.3347 189.199 92.0251 189.191C111.081 195.851 116.673 209.607 116.434 222.6C116.417 222.677 116.4 222.753 116.383 222.829L116.383 222.829C116.338 223.033 116.293 223.237 116.248 223.464C116.234 223.529 116.219 223.594 116.205 223.66L116.165 223.842C116.011 224.553 115.846 225.31 115.617 226.001C115.166 227.633 114.535 229.264 113.813 230.805C112.371 233.886 110.477 236.605 108.133 238.599C107.817 238.78 107.502 239.007 107.186 239.233L107.186 239.233L107.186 239.233C106.87 239.46 106.555 239.686 106.239 239.868L105.247 240.411L104.706 240.683L104.165 240.865C103.444 241.136 102.903 241.318 101.55 241.59C100.378 241.771 99.2061 242.043 98.124 242.405C94.6976 243.312 91.5418 244.671 88.6564 246.393C88.608 246.417 88.5662 246.441 88.5273 246.464C88.4212 246.526 88.3375 246.574 88.2055 246.574C85.3201 247.39 82.2544 247.299 78.9182 246.574C78.1245 246.375 77.3309 246.158 76.5295 245.939L76.5293 245.939L76.5291 245.939L76.5289 245.939C75.5096 245.66 74.4779 245.378 73.4179 245.124C73.2859 245.124 73.2022 245.076 73.0961 245.014L73.0958 245.014C73.057 244.991 73.0153 244.967 72.9671 244.943C71.8851 244.308 70.8932 243.583 69.9014 242.677C69.2759 242.093 68.6947 241.465 68.1029 240.825L68.1027 240.825L68.1026 240.825C67.5001 240.174 66.8867 239.511 66.2045 238.871C64.852 237.602 63.0486 236.514 61.2452 236.424V236.605C62.9584 237.33 64.0405 238.508 65.0323 239.958C65.3549 240.412 65.666 240.878 65.9821 241.351C66.5494 242.2 67.1327 243.073 67.8275 243.946C67.7374 243.946 67.6473 243.923 67.5572 243.901L67.557 243.901L67.5568 243.901C67.4667 243.878 67.3766 243.855 67.2865 243.855C67.0715 243.855 66.8359 243.835 66.5896 243.813L66.5892 243.813C66.3193 243.789 66.0365 243.765 65.7536 243.765H64.2208H62.6879L62.5594 243.786L62.4858 243.799C62.0309 243.877 61.6274 243.946 61.1551 243.946C59.9829 244.037 58.9009 244.218 57.7287 244.49C57.513 244.533 57.2974 244.571 57.0829 244.609L57.0823 244.609C56.4004 244.73 55.731 244.848 55.1138 245.124C51.2366 246.212 47.72 248.205 44.2936 250.199L44.3838 250.381C44.7372 250.242 45.0899 250.102 45.442 249.963C48.7728 248.646 52.0581 247.346 55.5646 246.937C59.3517 246.393 63.1388 246.393 66.7455 247.571C68.9385 248.109 71.0363 248.901 73.2084 249.722L73.2096 249.723L73.2099 249.723L73.2104 249.723L73.2112 249.723C74.6998 250.286 76.2233 250.862 77.8362 251.377C78.828 251.74 79.8199 252.102 80.9019 252.284H81.0822C81.0822 252.34 81.0478 252.361 81.0002 252.391C80.9708 252.409 80.9363 252.43 80.9019 252.465C79.2789 253.915 77.746 255.365 76.3033 256.996C74.8606 258.628 73.5081 260.259 72.2458 261.89C71.6124 262.654 71.0234 263.463 70.4478 264.254L70.4476 264.254L70.4472 264.254L70.4464 264.256C70.203 264.59 69.962 264.921 69.721 265.244C69.6309 265.425 69.5407 265.516 69.4505 265.606C68.1882 266.603 66.6553 267.419 65.0323 267.872C62.8683 268.506 60.3435 269.05 57.909 269.231C56.6829 269.277 55.4339 269.3 54.1736 269.323H54.1723H54.1711H54.1698H54.1686H54.1674L54.1647 269.323H54.1622L54.1445 269.323H54.1424C52.9105 269.345 51.6678 269.368 50.425 269.413C50.2492 269.425 50.0729 269.437 49.8963 269.45H49.896C47.5376 269.613 45.1284 269.779 43.0312 271.044L43.1214 271.225C45.3756 270.138 47.9905 270.228 50.425 270.319L57.909 270.591H58.0893C59.8025 270.591 60.3435 272.856 58.9009 273.763H58.8107C57.0975 274.85 55.3843 276.21 53.9416 277.75C52.4989 279.291 51.3267 281.104 50.425 282.916L50.6054 283.007C51.6874 281.285 53.0399 279.654 54.5728 278.385C56.1056 277.025 57.8188 276.028 59.6222 275.122C60.5258 274.668 61.4633 274.242 62.4135 273.811C65.2562 272.52 68.2125 271.178 70.7129 268.869C71.6846 267.944 72.4823 267.047 73.254 266.18L73.2542 266.18C73.843 265.519 74.4166 264.874 75.041 264.247C76.3935 262.797 77.8362 261.347 79.2789 259.987C82.2544 257.268 85.5005 255.003 88.9269 253.371C92.3533 251.649 96.0502 250.743 99.6569 250.562C100.559 250.471 101.46 250.471 102.362 250.562C102.837 250.621 103.663 250.603 104.533 250.583C104.984 250.572 105.447 250.562 105.879 250.562H106.87H107.051C107.051 250.668 107.02 250.743 106.994 250.805C106.976 250.849 106.961 250.887 106.961 250.924C106.621 251.948 106.361 253.018 106.1 254.09C105.737 255.582 105.374 257.075 104.796 258.446C104.751 258.582 104.706 258.695 104.661 258.809L104.661 258.809C104.616 258.922 104.571 259.036 104.526 259.172C103.895 260.078 103.264 260.984 102.542 261.89C101.009 263.794 99.2061 265.516 97.3125 267.237L97.3119 267.238L97.3114 267.239C95.4182 269.051 93.5251 270.863 91.7221 272.856C89.9187 274.76 88.2957 276.844 86.6727 278.929C83.5168 282.826 80.0002 286.723 75.1311 287.81C73.0219 288.36 70.8451 288.501 68.6005 288.647C68.2543 288.67 67.9064 288.692 67.557 288.716C65.0323 288.898 62.4174 289.26 59.8927 289.985V290.166C62.4174 289.895 65.0323 289.713 67.557 289.804C68.1122 289.804 68.6717 289.813 69.2356 289.822H69.2371H69.2386H69.2401H69.2405C71.2394 289.853 73.2931 289.885 75.4016 289.532C78.1067 289.079 80.6314 287.72 82.7053 286.088C83.9676 285.091 85.1398 284.004 86.2218 282.826C85.9587 283.325 85.7051 283.815 85.4548 284.299C84.9331 285.307 84.4259 286.286 83.8775 287.266C82.3446 290.257 80.2707 292.795 77.4755 294.698C77.0009 295.048 76.504 295.386 76.0006 295.73L76.0001 295.73L75.9995 295.73C75.0686 296.365 74.1151 297.015 73.2376 297.779C71.8851 298.867 70.8031 300.408 70.0817 301.948L70.2621 302.039C71.2539 300.589 72.4261 299.32 73.7786 298.414C74.6268 297.789 75.5459 297.306 76.4914 296.809L76.4928 296.809L76.4966 296.807L76.5001 296.805C77.0595 296.511 77.6282 296.212 78.1969 295.876C79.7297 295.06 81.1724 293.882 82.4348 292.613C83.607 291.254 84.689 289.804 85.5907 288.263C86.2477 287.116 86.8783 285.956 87.5078 284.797L87.508 284.797C88.5197 282.935 89.5285 281.079 90.6401 279.291C91.5418 277.75 92.6238 276.3 93.7058 274.941L93.8861 274.76C95.6895 273.128 97.4929 271.497 99.3864 269.956C99.7567 269.625 100.146 269.295 100.545 268.955L100.548 268.953L100.55 268.951L100.55 268.951L100.551 268.951L100.555 268.947C101.027 268.545 101.514 268.131 102.001 267.691C101.641 269.775 101.28 271.86 101.19 273.944C101.1 274.669 101.1 275.303 101.1 275.938V277.841C101.1 279.019 101.1 280.197 100.829 281.285C100.559 283.551 99.6569 285.726 98.4847 287.72C97.042 290.167 94.9682 292.251 92.8041 294.335L92.6238 294.517C91.9926 294.97 91.4516 295.332 90.8204 295.695C89.6699 296.356 88.4445 296.715 87.076 297.117L87.0756 297.117L87.075 297.117C86.9422 297.156 86.8082 297.195 86.6727 297.236C85.1398 297.689 83.5168 298.232 82.0741 298.957C80.5412 299.682 79.1887 300.498 77.746 301.495C76.3935 302.583 75.2213 303.851 74.3196 305.211C73.7594 306.056 73.2687 306.935 72.7828 307.806C72.4867 308.337 72.1924 308.865 71.8851 309.38C71.1637 310.649 70.2621 311.917 68.9997 312.824C67.7373 313.639 66.2045 314.183 64.6716 314.455V314.636C66.2947 314.546 67.9177 314.274 69.3604 313.458C70.8932 312.642 71.9753 311.283 72.9671 310.014C73.4054 309.453 73.8086 308.875 74.2076 308.302L74.2085 308.301L74.2091 308.3L74.2094 308.3L74.2096 308.299L74.2098 308.299L74.21 308.299C74.713 307.577 75.2097 306.864 75.7623 306.208C76.7542 305.03 77.8362 304.033 79.0985 303.217C80.3609 302.492 81.7134 301.767 83.1561 301.223C84.3283 300.679 85.5907 300.317 86.853 299.954C85.6808 301.133 84.4185 302.492 83.5168 304.033C82.2423 306.034 81.6011 308.39 81.0338 310.474C80.9589 310.749 80.8853 311.019 80.8117 311.283C79.4592 315.996 76.7542 320.165 73.959 324.333C71.1637 328.502 68.4587 332.762 66.6553 337.475L66.8357 337.565C68.8194 332.943 71.7047 328.865 74.6803 324.877C77.6558 320.89 80.6314 316.721 82.3446 311.827C82.5209 311.348 82.6869 310.877 82.85 310.413L82.8506 310.412C83.5211 308.506 84.1423 306.741 85.23 305.211C86.5825 303.217 88.3859 301.586 90.2794 300.045C91.8123 298.867 93.3451 297.598 94.878 296.329C95.96 295.423 97.6732 296.239 97.6732 297.689V298.595C97.6464 299.996 97.6993 301.389 97.7513 302.759C97.8743 305.999 97.9925 309.115 97.042 311.917C96.6813 312.914 96.2305 313.821 95.5993 314.727C95.4382 314.997 95.2531 315.283 95.0606 315.58L95.0601 315.581C94.6066 316.281 94.1124 317.045 93.796 317.808C92.8041 319.983 92.4434 322.43 92.4434 324.787C92.4434 325.976 92.5124 327.143 92.5807 328.298C92.6476 329.431 92.7139 330.553 92.7139 331.674C92.8041 333.94 92.4434 336.206 91.4516 338.29L91.6319 338.381C92.7139 336.296 93.1648 333.94 93.255 331.674C93.2937 330.663 93.2825 329.667 93.2714 328.682V328.681C93.2568 327.372 93.2422 326.079 93.3451 324.787C93.4353 322.521 94.0665 320.346 95.1485 318.443C95.5678 317.74 96.0953 317.092 96.6473 316.415C96.8075 316.218 96.9699 316.018 97.1322 315.814C97.8535 314.817 98.5749 313.821 99.0257 312.642C99.3864 311.917 99.5667 311.102 99.7471 310.286C100.198 311.645 100.739 313.096 101.46 314.364C102.362 315.996 103.354 317.536 104.346 319.077C105.428 320.618 106.239 321.887 106.69 323.608C107.168 325.338 107.19 327.22 107.212 329.147C107.232 330.855 107.253 332.599 107.592 334.303C108.313 337.928 110.207 341.19 112.461 344L112.551 343.909C110.387 341.009 108.764 337.746 108.313 334.212C108.043 332.399 108.043 330.677 108.133 328.865C108.223 327.052 108.223 325.24 107.862 323.337L107.813 323.173L107.779 323.055C107.534 322.227 107.275 321.35 106.87 320.618C106.54 320.019 106.16 319.421 105.804 318.858L105.802 318.856L105.798 318.849C105.671 318.648 105.546 318.452 105.428 318.261L105.427 318.261C104.526 316.72 103.624 315.18 102.813 313.639C102.001 312.099 101.28 310.467 100.829 308.836C100.378 307.205 100.108 305.573 100.018 303.851C99.9274 302.129 99.9274 300.498 99.9274 298.776C100.108 295.242 100.829 291.798 102.091 288.626C102.091 288.581 102.114 288.535 102.137 288.49C102.159 288.445 102.182 288.399 102.182 288.354C102.903 287.085 103.624 285.635 104.075 284.185C104.165 285.907 104.436 287.629 104.887 289.351C105.428 291.617 106.329 293.882 107.592 295.876C109.034 297.689 109.936 299.682 110.477 301.767C110.628 302.372 110.75 302.978 110.876 303.599C110.976 304.093 111.079 304.598 111.198 305.12C111.469 306.208 112.01 307.295 112.641 308.292L112.821 308.202C112.461 307.114 112.19 306.026 112.1 304.939C112.069 304.564 112.049 304.178 112.028 303.785C111.988 303.039 111.948 302.267 111.83 301.495C111.623 299.626 110.785 298.022 109.959 296.439C109.704 295.95 109.449 295.462 109.215 294.97C109.125 294.97 109.125 294.879 109.125 294.879C107.952 292.976 107.051 290.982 106.42 288.898C106.42 288.852 106.397 288.807 106.374 288.762C106.352 288.716 106.329 288.671 106.329 288.626C106.87 289.623 107.411 290.529 108.133 291.435L108.313 291.617C109.257 292.565 110.201 293.391 111.115 294.191C112.123 295.072 113.096 295.923 113.994 296.873C115.797 298.686 117.33 300.679 118.682 302.854C119.178 303.652 119.638 304.474 120.101 305.302L120.101 305.303C120.901 306.733 121.712 308.184 122.74 309.561C124.273 311.736 126.527 313.367 128.871 314.455L128.962 314.274C126.798 313.005 124.904 311.192 123.551 309.017C122.707 307.659 122.003 306.23 121.286 304.774C120.855 303.899 120.419 303.014 119.945 302.129C118.682 299.864 117.059 297.689 115.256 295.695C114.338 294.726 113.327 293.828 112.341 292.952C111.39 292.107 110.462 291.284 109.666 290.438L109.485 290.257C108.043 288.354 106.87 286.179 106.149 283.822C105.608 281.647 105.338 279.472 105.247 277.207C105.338 276.935 105.337 276.572 105.337 276.3C105.337 275.666 105.338 275.122 105.428 274.488C105.879 269.684 107.321 265.153 109.125 260.078C109.666 258.9 110.207 257.903 111.018 256.906C111.075 256.834 111.134 256.76 111.195 256.685L111.2 256.678C111.523 256.276 111.888 255.821 112.19 255.365V255.546C112.19 256.271 112.28 257.268 112.371 258.084C112.551 258.9 112.731 259.715 113.002 260.531C113.453 262.072 114.084 263.612 114.715 265.062C115.292 266.3 115.886 267.521 116.475 268.732L116.475 268.733C117.266 270.361 118.049 271.971 118.773 273.581C120.035 276.391 121.207 279.2 121.748 282.191C121.781 282.49 121.826 282.777 121.87 283.057C121.946 283.539 122.019 283.998 122.019 284.457C122.019 284.695 122.028 284.934 122.038 285.175C122.058 285.669 122.079 286.175 122.019 286.723C121.928 288.354 121.928 289.894 121.928 291.525V291.526C122.019 294.698 122.74 298.051 124.453 300.77C126.166 303.58 128.421 305.755 130.765 307.839L130.855 307.748C129.773 306.57 128.781 305.483 127.789 304.214C126.798 303.036 125.896 301.767 125.174 300.408C123.642 297.779 123.281 294.698 123.371 291.617C123.371 290.076 123.461 288.535 123.642 286.994C123.732 286.269 123.732 285.363 123.732 284.548C123.732 283.732 123.642 282.916 123.551 282.101C123.101 278.838 122.019 275.757 120.756 272.856C120.006 271.133 119.224 269.441 118.448 267.763C117.918 266.617 117.391 265.477 116.879 264.337C115.707 261.528 114.715 258.718 114.895 255.909C116.158 260.622 118.141 264.972 120.846 268.959C122.199 270.863 123.822 272.766 125.625 274.306C127.248 275.757 128.601 277.569 129.412 279.654C129.792 280.532 130.108 281.474 130.427 282.426C130.866 283.735 131.311 285.063 131.937 286.269C133.019 288.354 134.552 290.257 136.175 291.888L136.265 291.798C134.732 289.985 133.38 288.082 132.568 285.907C132.018 284.634 131.702 283.293 131.376 281.906C131.168 281.021 130.956 280.118 130.675 279.2C129.953 276.844 128.511 274.669 126.798 272.947C125.175 271.316 123.822 269.503 122.65 267.6C121.478 265.697 120.396 263.612 119.584 261.528C118.773 259.443 118.051 257.268 117.691 255.093C117.33 253.371 117.24 251.649 117.24 249.927C117.311 249.749 117.368 249.584 117.422 249.428L117.422 249.428C117.505 249.188 117.581 248.969 117.691 248.749C119.494 246.755 121.297 244.852 123.191 242.949L123.281 242.858C124.273 242.043 125.265 241.227 126.166 240.321C127.97 238.599 129.593 236.696 131.126 234.792C131.791 233.974 132.397 233.157 132.991 232.339C146.04 219.55 166.758 220.14 188.403 228.751C189.724 229.4 190.91 230.091 191.398 230.677C194.088 233.902 196.419 237.306 197.763 240.71C197.839 240.937 197.922 241.171 198.006 241.409L198.006 241.409L198.006 241.409L198.006 241.41C198.22 242.015 198.441 242.64 198.57 243.219L198.839 244.473L199.018 245.1V245.727C199.018 246.016 199.028 246.278 199.037 246.547V246.547V246.547V246.548V246.548C199.058 247.112 199.079 247.713 199.018 248.683C198.929 249.938 198.839 251.192 198.929 252.446C199.018 256.208 199.467 260.15 200.453 263.913C200.542 264.092 200.542 264.271 200.542 264.45C200.632 267.765 199.736 270.721 198.032 273.498C197.435 274.513 196.757 275.529 196.08 276.544C195.741 277.051 195.403 277.559 195.074 278.067C195.011 278.192 194.905 278.273 194.817 278.341C194.778 278.371 194.743 278.398 194.715 278.425C193.729 279.142 192.743 279.679 191.578 280.127C190.71 280.433 189.814 280.681 188.888 280.937C188.188 281.131 187.471 281.329 186.737 281.56C185.033 282.188 183.509 283.262 182.882 284.965L183.061 285.054C184.227 283.89 185.751 283.442 187.454 283.352C188.079 283.279 188.734 283.235 189.401 283.191C190.36 283.128 191.343 283.063 192.295 282.904C192.205 282.994 192.116 283.173 192.026 283.352L192.026 283.353C191.847 283.8 191.667 284.248 191.488 284.785L191.129 286.308L190.681 287.831L190.412 289.444C190.233 290.608 190.143 291.862 190.054 293.117L190.042 293.24C189.957 294.177 189.878 295.039 189.964 295.983C189.964 300.122 191 304.42 192.02 308.651L192.02 308.652C192.082 308.908 192.144 309.165 192.205 309.421H192.385L192.368 309.282C191.836 304.851 191.314 300.51 191.847 296.521C192.295 292.49 193.281 288.727 195.522 285.95C196.696 284.051 198.113 282.396 199.601 280.659C200.5 279.61 201.424 278.531 202.335 277.35C202.963 276.544 203.501 275.738 204.039 274.842C204.039 274.797 204.061 274.774 204.084 274.752C204.106 274.73 204.128 274.707 204.128 274.663C204.128 274.752 204.128 274.842 204.218 274.931C205.294 277.35 206.37 279.679 207.625 282.008C208.88 284.337 210.135 286.577 211.48 288.817C212.376 290.34 213.273 291.773 214.169 293.206L214.438 293.744C215.155 295.535 215.424 297.417 215.514 299.298C215.603 301.896 215.424 304.583 214.976 307.092C214.528 309.18 214.018 311.207 213.497 313.275L213.495 313.285L213.482 313.337L213.479 313.348C213.381 313.739 213.282 314.132 213.183 314.527C213.122 314.869 213.056 315.212 212.989 315.557L212.989 315.56C212.567 317.751 212.128 320.037 212.824 322.59H213.004C212.506 320.021 213.235 317.683 213.915 315.503C213.97 315.326 214.025 315.15 214.079 314.975L216.41 307.808C216.462 307.757 216.484 307.735 216.493 307.709C216.5 307.689 216.5 307.667 216.5 307.629C217.038 306.017 219.458 306.733 219.996 308.615V308.704C220.713 311.123 221.61 313.452 222.775 315.781C223.941 318.021 225.465 320.171 227.078 322.142L227.168 322.052C225.734 319.902 224.479 317.752 223.582 315.512C222.686 313.273 222.148 310.944 221.699 308.704C221.52 307.71 221.363 306.697 221.204 305.669C220.645 302.068 220.056 298.273 218.382 294.371C217.709 292.87 217.006 291.549 216.325 290.269C215.827 289.333 215.34 288.419 214.886 287.473C214.621 286.922 214.357 286.376 214.093 285.833L214.092 285.831L214.091 285.828C213.285 284.167 212.491 282.531 211.748 280.844C209.776 276.454 208.432 271.975 207.625 267.675C206.908 263.375 206.908 259.254 207.714 255.671C207.85 254.994 208.087 254.318 208.311 253.68C208.384 253.473 208.455 253.27 208.521 253.073C208.677 252.71 208.833 252.046 209.006 251.308C209.132 250.772 209.267 250.196 209.418 249.669L209.687 248.683V248.504L209.956 248.773C210.921 249.701 211.934 250.568 212.941 251.43L212.941 251.43C214.364 252.649 215.778 253.859 217.038 255.223C217.307 255.402 217.486 255.581 217.755 255.85C218.562 256.925 219.279 258.089 219.996 259.253L219.996 259.254C221.43 261.852 222.686 264.54 223.941 267.406C225.285 270.273 226.63 273.14 228.154 276.006C229.678 278.873 231.292 281.56 232.995 284.338C236.133 289.623 239.091 295.356 238.912 300.642C238.912 302.609 238.527 304.529 238.146 306.436C238.006 307.133 237.866 307.829 237.746 308.525C237.209 311.212 236.94 313.9 236.94 316.767L237.119 316.856C237.477 314.169 238.105 311.66 238.822 309.152C238.854 309.046 238.885 308.94 238.918 308.833L238.978 308.635L239.026 308.476C239.082 308.291 239.139 308.106 239.196 307.92L239.197 307.916L239.201 307.905C239.827 305.867 240.482 303.736 240.705 301.358C240.974 298.402 240.257 295.177 239.181 292.221C238.553 290.429 237.746 288.638 236.85 286.935C237.477 287.741 238.127 288.547 238.776 289.353L238.777 289.354C239.427 290.16 240.077 290.967 240.705 291.773C243.305 294.998 245.367 298.492 246.532 302.254C246.723 302.827 246.906 303.409 247.091 303.996C247.512 305.336 247.943 306.707 248.504 308.077C249.311 310.048 250.476 311.929 251.911 313.542L252 313.452C250.835 311.75 249.939 309.869 249.311 307.987C248.941 306.692 248.655 305.353 248.367 304.002C248.237 303.391 248.106 302.778 247.966 302.165C247.518 300.194 246.801 298.133 245.815 296.163C244.739 294.192 243.574 292.31 242.229 290.608C242.016 290.34 241.805 290.072 241.593 289.805C241.312 289.45 241.032 289.096 240.752 288.744L240.75 288.741C238.583 286.008 236.477 283.351 234.429 280.575C233.085 278.783 231.919 276.992 230.844 275.11C230.824 275.09 230.808 275.07 230.795 275.05C230.779 275.026 230.766 275.001 230.754 274.976C230.731 274.931 230.709 274.886 230.664 274.842C229.409 272.154 228.333 269.467 227.258 266.779L227.257 266.778C226.719 265.524 226.182 264.27 225.644 262.927C227.616 264.54 229.678 265.973 231.74 267.317C232.053 267.496 232.389 267.697 232.725 267.898L232.726 267.899L232.731 267.902L232.731 267.902C233.065 268.102 233.4 268.303 233.712 268.481C234.429 268.84 235.057 269.198 235.595 269.556C235.801 269.683 236.007 269.807 236.212 269.93L236.351 270.013L236.353 270.014L236.354 270.015C237.263 270.558 238.16 271.095 239.001 271.796C241.243 273.319 243.215 275.469 244.918 277.708C247.07 280.485 248.594 283.71 250.118 287.025C250.118 287.07 250.14 287.115 250.163 287.159C250.185 287.204 250.207 287.249 250.207 287.294L250.208 287.295C250.477 288.101 250.745 288.907 250.925 289.712C251.283 291.325 251.373 292.848 251.373 294.64L251.382 294.812C251.469 296.469 251.564 298.286 251.911 300.104C252.269 301.985 252.718 303.777 253.345 305.748C254.062 307.629 255.048 309.51 256.214 311.212C257.052 312.437 257.937 313.568 258.801 314.673L258.801 314.674C259.139 315.106 259.473 315.533 259.8 315.96C260.965 317.483 262.041 319.096 262.579 320.798C263.117 322.5 263.206 324.202 263.117 325.904L263.296 325.994C263.565 324.381 263.744 322.59 263.296 320.708C262.848 318.737 261.862 316.946 260.786 315.244C260.517 314.841 260.243 314.438 259.968 314.034C259.144 312.825 258.321 311.616 257.648 310.406C256.752 308.794 255.945 307.181 255.497 305.479C255.049 303.867 254.78 302.075 254.6 300.373C254.421 298.94 254.331 297.506 254.331 296.073C255.228 298.044 256.214 299.925 257.559 301.717C259.192 304.165 261.495 306.167 263.519 307.927L263.526 307.933C263.721 308.103 263.914 308.27 264.103 308.435C268.496 312.467 272.082 317.483 275.488 322.59C278.895 327.696 282.481 332.712 286.784 337.192L286.874 337.102C282.75 332.533 279.343 327.427 276.116 322.231C272.888 317.035 269.392 311.84 264.91 307.36C264.436 306.868 263.97 306.395 263.514 305.934L263.514 305.933C261.816 304.211 260.265 302.638 258.993 300.731C257.379 298.402 256.214 295.625 255.138 292.938C254.565 291.621 254.029 290.23 253.482 288.814L253.482 288.813L253.482 288.813C253.173 288.013 252.862 287.206 252.538 286.398C251.911 284.785 253.256 283.531 254.69 284.427C254.824 284.517 254.981 284.606 255.138 284.696C255.295 284.785 255.452 284.875 255.586 284.965C256.989 285.785 258.408 286.526 259.805 287.257L259.806 287.258L259.807 287.258L259.808 287.259L259.809 287.259L259.81 287.259C263.143 289.003 266.355 290.682 268.944 293.206C269.84 294.102 270.647 295.177 271.364 296.252C271.566 296.543 271.767 296.844 271.971 297.15L271.972 297.152C272.586 298.072 273.225 299.029 273.964 299.835C275.936 302.075 278.357 303.867 280.688 305.121C282.048 305.905 283.438 306.597 284.823 307.287L284.824 307.287L284.824 307.288L284.824 307.288L284.825 307.288L284.825 307.288C285.814 307.78 286.8 308.272 287.77 308.794C290.101 310.048 292.342 311.66 294.135 313.81L294.225 313.721C292.432 311.481 290.19 309.779 287.86 308.346C286.739 307.629 285.574 306.98 284.408 306.33C283.243 305.681 282.077 305.031 280.957 304.315C278.716 302.881 276.654 301.09 275.04 298.94C274.233 297.865 273.606 296.79 272.888 295.535C272.171 294.281 271.275 293.027 270.199 291.863C269.482 291.056 268.765 290.429 267.958 289.802C269.571 290.16 271.095 290.34 272.619 290.429C274.502 290.519 276.385 290.429 278.178 290.34C280.06 290.16 281.674 290.071 283.467 290.608C285.37 291.131 287.298 292.184 289.264 293.257L289.265 293.258L289.265 293.258L289.266 293.258L289.266 293.258C291.005 294.208 292.774 295.174 294.583 295.804C298.438 297.237 302.293 297.237 305.7 296.61L305.61 296.431C302.024 296.879 298.259 296.521 294.583 294.998C292.701 294.281 290.908 293.207 289.116 292.132L289.115 292.132L289.115 292.131C287.322 291.056 285.439 289.981 283.467 289.265C282.481 288.906 281.495 288.727 280.509 288.638C279.848 288.577 279.227 288.598 278.619 288.618C278.321 288.628 278.025 288.638 277.729 288.638C275.936 288.638 274.144 288.637 272.351 288.548C270.558 288.458 268.675 288.19 266.882 287.742C265.179 287.294 263.386 286.577 261.593 285.681C261.034 285.374 260.484 285.076 259.94 284.781L259.929 284.774C258.731 284.125 257.562 283.491 256.393 282.815C252.897 280.665 249.58 277.977 246.711 274.931C246.711 274.842 246.622 274.752 246.532 274.663C245.456 273.229 244.201 271.706 242.856 270.452C244.649 271.348 246.442 272.065 248.325 272.602C250.745 273.319 253.256 273.767 255.676 273.677C257.828 273.319 260.158 273.587 262.4 274.215C263.052 274.365 263.704 274.6 264.372 274.84C264.898 275.029 265.433 275.221 265.986 275.379C267.151 275.738 268.406 275.917 269.571 275.827V275.648C268.406 275.379 267.241 275.021 266.075 274.483C265.608 274.268 265.14 274.038 264.667 273.805C263.96 273.457 263.241 273.103 262.489 272.781C260.585 271.994 258.776 271.879 257.029 271.769H257.028C256.391 271.728 255.761 271.689 255.138 271.617H255.049C252.807 271.617 250.566 271.348 248.235 270.81C248.19 270.81 248.123 270.788 248.056 270.766C247.989 270.743 247.921 270.721 247.877 270.721C248.952 270.721 250.118 270.721 251.194 270.542C251.283 270.452 251.373 270.452 251.463 270.452C252.783 270.088 253.941 269.609 255.066 269.143L255.067 269.143L255.067 269.143C256.158 268.691 257.218 268.252 258.365 267.944C260.696 267.317 263.117 266.869 265.717 266.869C266.625 266.836 267.569 266.851 268.527 266.866C270.215 266.892 271.947 266.918 273.606 266.69C276.205 266.331 278.536 265.167 280.24 263.465L280.15 263.285C278.178 264.719 275.847 265.525 273.337 265.615C271.845 265.668 270.258 265.531 268.651 265.393H268.651H268.65H268.65H268.649H268.649H268.648H268.648H268.648H268.648H268.647C267.552 265.298 266.448 265.203 265.358 265.167C262.669 265.167 260.069 265.435 257.559 266.062C256.232 266.406 254.959 266.911 253.726 267.401L253.725 267.401C252.708 267.805 251.718 268.198 250.745 268.481C250.656 268.571 250.566 268.571 250.476 268.571C248.146 268.929 245.635 268.84 243.036 268.213C240.705 267.585 238.374 266.6 236.133 265.346C235.998 265.256 235.842 265.167 235.685 265.077L235.685 265.077L235.684 265.077C235.527 264.987 235.371 264.898 235.236 264.808C234.923 264.629 234.631 264.428 234.34 264.226C234.048 264.024 233.757 263.823 233.443 263.644C229.093 260.773 225.194 257.151 220.782 253.053L220.776 253.048C220.371 252.672 219.962 252.292 219.548 251.908C218.562 250.744 217.665 249.579 216.858 248.235C216.584 247.852 216.344 247.435 216.095 247.005L216.095 247.004C215.938 246.731 215.777 246.453 215.603 246.175C215.603 246.175 215.693 246.265 215.783 246.265C216.589 246.713 217.576 247.16 218.472 247.519C219.369 247.877 220.265 248.146 221.162 248.325C222.954 248.773 224.568 249.042 226.271 249.221C228.208 249.49 230.144 249.662 232.081 249.834C233.372 249.948 234.663 250.063 235.953 250.206C239.181 250.565 242.408 251.012 245.546 252.177C246.353 252.446 247.159 252.715 247.877 253.162C248.069 253.269 248.257 253.371 248.441 253.472C249.031 253.792 249.593 254.097 250.207 254.506C251.821 255.492 253.435 256.388 255.049 257.283C258.276 259.075 261.862 260.24 265.089 260.15C268.316 260.15 271.185 259.165 273.964 258.09L273.875 257.91C272.44 258.269 271.006 258.627 269.482 258.896C268.047 259.165 266.523 259.344 264.91 259.254C261.772 259.165 258.545 257.821 255.497 255.94C253.883 255.044 252.359 254.059 250.835 253.073L250.835 253.073C250.42 252.762 249.945 252.481 249.463 252.196C249.111 251.987 248.755 251.777 248.415 251.55C247.943 251.236 247.44 251.013 246.943 250.793C246.59 250.637 246.239 250.482 245.904 250.296C242.498 248.952 239.091 248.235 235.774 247.788C234.143 247.567 232.533 247.412 230.934 247.258C229.283 247.098 227.643 246.94 226.003 246.713C222.865 246.265 219.727 245.638 216.948 243.846C221.968 245.279 226.989 245.817 231.74 245.458C234.161 245.279 236.491 244.742 238.553 243.846C240.525 242.95 242.677 242.681 245.008 243.129C245.936 243.272 246.906 243.485 247.891 243.702L247.892 243.702C249.38 244.03 250.902 244.365 252.359 244.473C254.869 244.652 257.11 244.294 259.262 243.577L259.172 243.398C257.021 243.935 254.69 244.115 252.269 243.667C250.771 243.445 249.273 242.983 247.753 242.514L247.752 242.514L247.752 242.514L247.752 242.514L247.752 242.514L247.752 242.514C246.817 242.225 245.874 241.935 244.918 241.696C242.318 240.979 239.808 241.158 237.567 241.875C235.505 242.502 233.354 242.86 231.023 242.86C228.692 242.95 226.361 242.771 224.03 242.413C221.699 242.054 219.279 241.517 216.948 240.621C215.065 239.994 213.273 239.098 211.569 238.113L210.493 237.038C209.274 234.815 208.111 232.477 206.96 230.163L206.96 230.162L206.955 230.151C206.669 229.578 206.385 229.006 206.101 228.438C206.049 228.386 206.027 228.364 206.018 228.338C206.015 228.329 206.013 228.32 206.012 228.309C206.011 228.295 206.011 228.279 206.011 228.258C205.6 227.162 205.136 226.119 204.66 225.047L204.66 225.047C204.513 224.717 204.366 224.385 204.218 224.048C203.745 223.035 203.297 221.92 202.842 220.785C202.68 220.381 202.517 219.975 202.351 219.571C202.347 219.451 202.342 219.331 202.336 219.21C201.394 200.997 210.663 182.783 228.816 172.75C229.51 172.409 230.194 172.093 230.844 171.821C241.781 167.252 265.807 165.102 265.807 165.102L361.013 161.071L368.722 160.712C369.129 160.654 371.231 160.672 373.587 160.691C374.866 160.701 376.22 160.712 377.418 160.712C378.395 160.712 379.508 160.685 380.651 160.657C382.444 160.614 384.312 160.568 385.845 160.623C387.77 160.681 389.201 160.891 390.657 161.105C391.44 161.219 392.229 161.335 393.107 161.429C394.213 161.508 395.319 161.657 396.487 161.813C396.644 161.835 396.802 161.856 396.962 161.877H397.23C397.858 162.146 398.486 162.414 399.023 162.862C400.368 163.848 401.085 165.281 401.623 167.162C401.758 167.611 401.887 168.082 402.02 168.568C402.419 170.025 402.856 171.62 403.596 173.164C404.492 175.135 406.016 176.927 407.899 178.002C408.974 179.167 409.692 180.6 410.05 182.212C410.409 184.004 410.409 185.885 410.409 187.767C410.391 188.13 410.371 188.496 410.35 188.865C410.263 190.405 410.174 191.982 410.319 193.5C410.409 194.485 410.588 195.471 411.126 196.367C411.574 197.262 412.381 197.979 413.277 198.337V198.248C412.471 197.71 411.843 196.994 411.485 196.187C411.126 195.381 411.036 194.396 411.036 193.5C411.036 192.089 411.188 190.678 411.339 189.267C411.389 188.797 411.44 188.326 411.485 187.856C411.664 185.975 411.843 184.004 411.574 181.944C411.563 181.892 411.551 181.84 411.54 181.788C411.371 181.023 411.187 180.19 410.767 179.435L411.126 179.614L411.753 179.973L412.381 180.331C412.508 180.407 412.634 180.476 412.758 180.543C413.075 180.715 413.379 180.88 413.636 181.137C415.25 182.302 416.594 183.646 417.76 185.348C418.224 185.99 418.659 186.674 419.101 187.368C419.767 188.416 420.447 189.484 421.256 190.454C421.884 191.26 422.691 192.067 423.497 192.694L423.498 192.694C423.946 192.962 424.394 193.231 424.842 193.589L426.276 194.306V194.217C424.483 193.231 422.96 191.708 421.973 190.096C421.399 189.186 420.901 188.226 420.397 187.255C419.959 186.409 419.516 185.555 419.015 184.721C417.939 182.929 416.505 181.317 414.891 179.973C415.07 179.973 415.339 180.062 415.519 180.152C416.774 180.51 417.939 181.048 419.015 181.675C419.598 181.988 420.158 182.324 420.718 182.66C421.279 182.996 421.839 183.332 422.422 183.646C423.587 184.273 424.752 184.9 425.918 185.437V185.348C424.752 184.721 423.677 184.004 422.601 183.198C422.063 182.795 421.548 182.392 421.032 181.988C420.517 181.585 420.001 181.182 419.463 180.779C418.298 180.062 417.132 179.435 415.788 178.987C414.533 178.539 413.277 178.271 411.933 178.002L410.588 177.285C410.364 177.151 410.162 177.039 409.96 176.927C409.759 176.815 409.557 176.703 409.333 176.569C407.809 175.494 406.733 173.971 406.106 172.269C405.738 171.219 405.524 170.108 405.302 168.954C405.145 168.137 404.984 167.299 404.761 166.446C404.492 165.371 404.133 164.296 403.506 163.221C403.416 163.086 403.349 162.974 403.282 162.863C403.215 162.751 403.147 162.638 403.058 162.504C404.582 162.862 406.016 163.31 407.45 163.758C410.229 164.744 412.919 165.908 415.519 167.342C416.503 167.853 417.487 168.399 418.478 168.949C419.745 169.651 421.024 170.361 422.332 171.014C423.049 171.552 423.677 172.269 423.946 173.075C424.126 173.675 424.145 174.355 424.165 175.062C424.175 175.411 424.185 175.766 424.215 176.121C424.215 177.196 424.394 178.36 424.932 179.435C425.47 180.421 426.366 181.137 427.263 181.764L427.352 181.675C426.545 180.958 425.828 180.152 425.38 179.256C424.932 178.271 424.932 177.285 425.021 176.21C425.111 175.135 425.201 174.06 424.932 172.806C424.887 172.672 424.842 172.56 424.797 172.448C424.752 172.336 424.708 172.224 424.663 172.089C427.083 173.164 429.593 174.06 432.193 174.239V173.881C429.235 173.344 426.545 172 423.946 170.477C421.973 169.312 420.001 167.969 418.029 166.625C418.163 166.625 418.298 166.602 418.432 166.58C418.567 166.558 418.701 166.535 418.836 166.535C418.97 166.491 419.127 166.446 419.284 166.401C419.441 166.356 419.598 166.311 419.732 166.267C420.27 165.998 420.808 165.639 421.256 165.281C421.439 165.135 421.615 164.988 421.787 164.845C422.457 164.287 423.071 163.775 423.856 163.489C424.842 163.131 425.918 163.042 426.994 163.131V163.042C425.918 162.862 424.752 162.683 423.677 163.042C422.511 163.31 421.525 163.937 420.629 164.564C419.732 165.102 418.836 165.46 417.85 165.46C417.043 165.46 416.146 165.281 415.25 165.012C413.009 163.669 410.678 162.325 408.168 161.339C407.45 161.071 406.733 160.802 405.926 160.533C407.002 160.085 408.078 159.548 409.064 159.01C409.871 158.562 410.588 158.025 411.305 157.488L411.305 157.487H411.395C412.919 156.95 414.443 156.681 416.057 156.502C417.67 156.323 419.194 156.412 420.808 156.771C422.422 157.039 423.945 157.577 425.469 158.114L425.47 158.114V158.025C422.511 156.681 419.374 155.606 416.057 155.606C415.339 155.606 414.533 155.696 413.815 155.785C414.443 155.338 414.98 154.89 415.518 154.442L415.519 154.442C417.581 152.829 419.553 151.306 421.794 150.052C424.035 148.798 426.456 147.902 429.056 147.633V147.544C426.456 147.544 423.856 148.081 421.346 149.156C418.925 150.142 416.594 151.485 414.353 152.829C414.094 152.985 413.836 153.14 413.578 153.295C411.613 154.479 409.701 155.631 407.719 156.502C405.478 157.577 403.147 158.204 400.906 158.294C399.741 158.383 398.575 158.294 397.499 158.114C396.957 158.031 396.355 157.909 395.741 157.784C395.036 157.64 394.315 157.493 393.645 157.398C391.911 157.099 390.178 156.88 388.445 156.661C387.579 156.552 386.712 156.442 385.845 156.323C385.129 156.233 384.389 156.144 383.65 156.054C382.91 155.965 382.17 155.875 381.452 155.785C381.739 155.618 382.032 155.451 382.328 155.282C383.143 154.818 383.98 154.34 384.769 153.814L385.307 153.546L385.308 153.545C387.549 152.47 389.79 151.396 392.031 150.231C393.152 149.649 394.25 149.089 395.348 148.529C396.446 147.969 397.544 147.409 398.665 146.827C399.651 146.379 400.547 145.842 401.444 145.304C402.273 145.028 403.048 144.699 403.852 144.357C404.092 144.256 404.335 144.153 404.582 144.05C405.613 143.602 406.644 143.132 407.674 142.661C408.705 142.191 409.736 141.721 410.767 141.273C411.163 141.093 411.559 140.899 411.961 140.702C412.56 140.408 413.171 140.108 413.815 139.839C414.802 139.392 415.877 138.944 416.863 138.585C418.925 137.869 421.077 137.331 423.408 137.242V137.152C421.167 136.794 418.836 137.062 416.594 137.6C415.519 137.869 414.353 138.227 413.367 138.585C412.291 139.033 411.216 139.481 410.229 139.929L410.228 139.93C409.063 140.467 407.898 141.004 406.823 141.542C408.168 140.287 409.423 138.854 410.409 137.331C411.118 136.197 411.728 135.037 412.33 133.892C412.869 132.868 413.402 131.854 413.995 130.881C415.25 128.821 416.774 126.939 418.656 125.417C420.539 123.804 422.691 122.639 424.842 121.475V121.385C422.601 122.371 420.36 123.446 418.298 124.879C416.236 126.312 414.443 128.104 413.009 130.164C412.348 131.113 411.745 132.081 411.146 133.041C410.444 134.167 409.748 135.282 408.974 136.346C407.54 138.227 405.837 139.929 403.864 141.273C401.982 142.617 399.83 143.781 397.679 144.946C396.065 145.842 394.451 146.648 392.748 147.364L393.286 146.827C395.438 144.767 397.141 142.169 398.217 139.481C399.369 136.824 400.127 134.144 400.87 131.519C401.629 128.834 402.373 126.206 403.506 123.714C405.568 118.698 409.064 114.308 413.457 110.904L413.367 110.814C408.705 113.86 404.671 117.981 402.072 123.087C400.727 125.596 399.741 128.283 398.844 130.881C398.683 131.305 398.524 131.73 398.366 132.153C397.556 134.321 396.757 136.457 395.706 138.406C394.451 140.735 392.838 142.796 390.865 144.319L390.148 144.946L389.341 145.483C389.197 145.58 389.052 145.683 388.905 145.787C388.507 146.07 388.097 146.362 387.638 146.558L385.935 147.633L384.232 148.619C381.901 149.873 378.315 151.396 375.805 152.112C369.529 153.904 361.192 153.635 361.192 153.635L264.193 153.187C264.193 153.187 243.771 154.345 230.827 151.687C230.458 151.522 230.075 151.365 229.678 151.217C214.797 145.663 208.701 135.54 205.653 128.104C202.86 121.476 200.322 115.272 202.092 102.798C202.855 99.6358 203.62 96.7889 204.841 93.5363C206.292 89.6422 207.561 84.299 207.561 84.299C208.359 83.8375 209.508 83.4148 210.673 82.9861C212.023 82.4893 213.395 81.9843 214.271 81.401C216.175 80.4954 218.079 79.7709 220.074 79.5897C222.25 79.3181 224.608 79.4992 226.875 80.1331C227.638 80.309 228.401 80.5133 229.167 80.7185C230.768 81.1472 232.382 81.5795 234.038 81.7632C236.486 82.0349 239.025 81.6727 241.292 80.7671L241.201 80.5859C238.844 81.2199 236.486 81.3104 234.129 80.8576C232.317 80.5096 230.612 79.894 228.849 79.2577C228.319 79.0662 227.783 78.8727 227.237 78.6841L227.024 78.6064C225.088 77.9024 222.986 77.1381 220.8 76.9634C221.616 76.4201 222.432 75.8767 223.157 75.3333C225.696 73.5221 227.872 71.3486 229.776 68.9939C231.791 66.4418 233.566 63.7302 235.332 61.0319L235.333 61.0314C236.826 58.7508 238.312 56.4798 239.932 54.3228C241.655 51.9682 243.65 49.7042 245.735 47.7118C247.821 45.6288 250.269 43.9987 252.808 42.4592L252.717 42.278C250.087 43.727 247.549 45.2666 245.372 47.259C243.106 49.2513 241.02 51.4248 239.206 53.6889C237.557 55.6496 236.01 57.7122 234.47 59.7664L234.47 59.7666C232.452 62.4563 230.446 65.1316 228.235 67.5449C226.331 69.7184 224.245 71.7108 221.888 73.2504C219.53 74.7899 216.81 76.1484 214.18 77.4162C213.323 77.8446 212.433 78.2412 211.531 78.6437L211.531 78.6438L211.53 78.6439L211.53 78.6439C210.907 78.9221 210.277 79.2031 209.647 79.4992L210.372 73.5221L210.644 71.6202C210.825 71.4391 211.029 71.258 211.233 71.0769C211.437 70.8958 211.641 70.7146 211.823 70.5335C213.999 68.4506 215.903 66.0959 217.445 63.4696C217.537 63.2856 217.629 63.1074 217.72 62.932C217.986 62.4172 218.239 61.9271 218.442 61.3867C218.714 60.6622 218.986 59.9377 219.258 59.3038L220.437 55.2285C221.253 52.6927 222.613 50.2475 224.155 48.074C227.328 43.6365 231.499 39.7423 235.852 36.2104C240.204 32.5879 244.919 29.5087 249.725 26.5202L250.269 26.1579C245.191 28.6031 240.295 31.5011 235.58 34.7614C233.222 36.3915 231.046 38.2027 228.96 40.1951C226.875 42.0969 224.88 44.1798 223.066 46.4439V46.2628C223.61 44.4515 224.517 42.6403 225.424 40.9196C227.328 37.4782 229.686 34.218 232.497 31.5011L232.406 31.32C229.142 33.6746 226.331 36.7537 224.155 40.1951C223.066 41.9158 222.16 43.727 221.344 45.6288C220.528 47.4401 219.984 49.3419 219.621 51.4248L219.621 51.4252C219.167 52.2402 218.714 53.0551 218.351 53.87L216.719 57.8548L215.903 59.5755L214.906 61.2961C214.09 62.564 213.092 63.8319 212.004 65.0092C212.276 62.2018 212.367 59.1226 212.004 56.1341C212.186 53.055 212.004 50.157 211.46 47.3495C211.14 45.2364 210.638 43.1686 210.147 41.146L210.146 41.1443C209.943 40.307 209.742 39.4774 209.556 38.6555C209.115 36.9497 208.741 35.2105 208.374 33.4988L208.373 33.4983L208.373 33.4973L208.373 33.4961C208.136 32.3916 207.901 31.2985 207.652 30.2332C207.017 27.4258 206.382 24.6184 206.564 21.8109H206.382C205.566 24.6184 205.838 27.6975 206.11 30.5955C206.296 32.0785 206.576 33.5378 206.855 34.9855C207.12 36.3668 207.384 37.7376 207.561 39.1083C207.833 40.9196 207.833 42.7308 207.833 44.5421C206.473 42.5497 205.022 40.829 203.571 39.1989C203.158 38.7619 202.748 38.3313 202.342 37.9049C199.719 35.1503 197.259 32.5672 195.139 29.5087C192.781 26.0674 190.968 22.0826 189.698 17.9167H189.517C189.698 22.2637 190.605 26.7919 192.328 30.9577C193.767 34.5142 195.777 37.7545 197.721 40.8901C198.103 41.5072 198.484 42.1202 198.856 42.7308C201.123 46.3533 203.027 49.7947 203.571 53.2361C204.115 56.768 203.299 60.2999 201.667 64.1036C201.538 64.383 201.409 64.6676 201.279 64.9549L201.278 64.9556L201.278 64.9563L201.278 64.9567C200.859 65.879 200.428 66.8288 199.944 67.7261C199.708 67.372 199.433 67.0565 199.17 66.7543L199.17 66.7539C199.029 66.5924 198.892 66.4347 198.766 66.2771C197.473 64.7274 196.134 63.3619 194.814 62.0165L194.814 62.0162L194.813 62.0156C194.282 61.4742 193.755 60.9361 193.235 60.3905C191.421 58.4887 189.608 56.5869 188.157 54.5945C185.369 50.5922 184.757 45.5867 184.151 40.6221C184.126 40.4193 184.101 40.2166 184.076 40.014C184.016 39.5762 183.958 39.1385 183.9 38.7007C183.61 36.5122 183.321 34.3236 182.716 32.135C182.082 29.5087 180.993 27.0635 179.452 24.89L179.271 24.9806C181.719 29.6899 181.991 34.9425 182.263 40.1951C182.535 45.2666 183.26 50.6098 185.799 55.5001C185.437 55.3643 185.051 55.2285 184.666 55.0926C184.28 54.9568 183.895 54.8209 183.532 54.6851C181.719 54.1417 179.905 53.5983 178.273 52.6021C176.641 51.606 175.19 50.3381 173.921 48.8891L173.739 48.9796L173.74 48.9798C174.918 50.5193 176.097 52.0588 177.638 53.3266C179.089 54.6851 180.903 55.7718 182.716 56.5869C184.53 57.402 186.071 58.217 187.522 59.3038C188.157 59.8471 188.791 60.3905 189.336 61.0244L189.336 61.0249C189.698 61.5681 190.061 62.1113 190.424 62.564C191.965 64.7375 193.507 66.911 194.776 68.9939C195.683 70.4429 196.317 71.8919 196.771 73.3409C196.638 73.573 196.311 74.2053 195.896 75.0071C195.178 76.396 194.196 78.2934 193.507 79.4992C191.512 82.85 189.698 84.6612 189.698 84.6612C188.882 84.299 187.341 82.85 186.887 82.3972C185.358 80.5308 184.625 79.2208 183.495 77.2015L183.495 77.201L183.495 77.2008L183.26 76.7823C182.626 75.6955 182.082 74.6088 181.537 73.4315L180.812 71.7108L179.905 69.809C178.727 67.2732 177.094 64.9186 175.19 62.9263C173.286 60.9339 171.201 59.3038 169.024 57.7642C164.763 54.6851 160.501 51.606 157.962 46.9873L157.781 47.0778C159.603 51.6274 163.316 55.0436 166.848 58.2927L166.848 58.2931L166.85 58.2948C167.184 58.6022 167.517 58.908 167.846 59.2132C171.745 62.6546 175.372 66.3676 176.913 71.0769L177.911 74.8805C178.075 75.3402 178.227 75.8117 178.381 76.2866L178.381 76.287L178.381 76.2877C178.651 77.1222 178.924 77.9669 179.271 78.7747C179.361 79.0464 179.475 79.2954 179.588 79.5445C179.701 79.7935 179.815 80.0426 179.905 80.3142C178.364 79.4992 176.913 78.7747 175.372 78.2313C174.833 78.0206 174.294 77.8221 173.758 77.6247C172.22 77.0583 170.708 76.5014 169.296 75.6956C167.483 74.6088 165.669 73.1598 164.581 71.258L164.4 71.3486C165.397 73.3409 166.939 75.0616 168.662 76.5106C170.385 77.9596 172.289 79.3181 174.102 80.4954C174.304 80.62 174.504 80.7436 174.704 80.8666C176.388 81.9048 177.993 82.8937 179.452 84.0273C179.936 84.3895 180.429 84.7517 180.923 85.114L180.923 85.1141L180.923 85.1142C181.91 85.8387 182.898 86.5631 183.804 87.2875C185.164 88.3743 186.434 89.5516 186.797 90.2761C186.122 91.7816 185.569 92.9058 185.077 93.9065C184.859 94.3511 184.652 94.7713 184.452 95.1898C179.549 101.107 164.014 114.178 153.388 115.831C145.343 117.068 133.812 117.347 115.87 106.788C114.731 105.624 113.604 104.552 112.212 103.479C111.706 103.066 110.872 102.466 110.174 101.964C109.498 101.478 108.949 101.084 108.949 101.039C107.793 100.087 106.832 99.0511 105.865 98.0091L105.865 98.009L105.865 98.0089L105.865 98.0089C105.088 97.1721 104.308 96.3313 103.42 95.5263L102.876 94.4418C102.695 92.7247 102.695 90.9172 102.876 89.2001C103.057 86.9407 103.601 84.6813 104.235 82.5123C104.87 80.3433 105.776 78.1743 106.774 76.0957C107.771 74.0171 108.949 72.1192 110.49 70.3117C112.122 68.4138 113.391 66.0641 113.844 63.624C114.061 62.6501 114.206 61.6906 114.348 60.7512C114.561 59.337 114.768 57.9684 115.204 56.6651C115.838 54.4057 117.017 52.3271 118.376 50.4292L118.286 50.3388C116.745 52.1463 115.385 54.1346 114.478 56.4843C113.902 57.9209 113.546 59.4305 113.199 60.8971C113.001 61.7371 112.806 62.5629 112.575 63.3528C111.94 65.6122 110.762 67.5101 109.221 69.1368C107.499 70.854 106.048 72.9326 104.779 75.0112C102.423 79.2588 100.791 83.8679 99.8845 88.7482C99.4313 85.9466 100.247 82.9642 101.154 80.0722C101.611 78.7048 102.106 77.3374 102.604 75.9612L102.605 75.9604C103.193 74.3354 103.786 72.6983 104.326 71.0347C105.323 67.9619 106.139 64.7988 106.32 61.455V61.4548C106.32 60.6414 106.32 59.8281 106.23 58.9245L106.207 58.721V58.7208L106.207 58.7202C106.123 57.9623 106.033 57.1473 105.867 56.4843L105.867 56.484L105.867 56.4838C105.595 54.9476 105.323 53.4114 105.142 51.7848C104.779 48.7121 104.87 45.549 106.139 42.657C106.683 41.211 107.499 39.8554 108.405 38.4997C109.221 37.1442 110.218 35.8789 111.215 34.6137L111.215 34.6136L111.125 34.5232C108.949 36.873 106.864 39.3131 105.414 42.2051C103.873 45.0971 103.51 48.5313 103.692 51.7848C103.782 53.4116 103.964 55.0383 104.235 56.5747L104.263 56.8185C104.344 57.5342 104.417 58.1841 104.417 58.8341C104.478 59.3193 104.457 59.8452 104.437 60.3572V60.3573V60.3576V60.3578V60.358C104.427 60.6086 104.417 60.8559 104.417 61.0935C104.145 64.1662 103.238 67.1486 102.151 70.0406C101.679 71.452 101.146 72.8431 100.61 74.2428L100.61 74.2431L100.61 74.2434C100.013 75.8011 99.4125 77.3693 98.8874 78.9877C98.3435 80.5241 97.8903 82.0604 97.5277 83.7776C97.3628 84.5175 97.2729 85.3322 97.1897 86.0856L97.1897 86.0858L97.1651 86.3081C97.1651 86.5061 97.1597 86.7148 97.1542 86.9289C97.1371 87.5947 97.1186 88.3136 97.2557 88.9289V89.1097C97.0291 88.8837 96.8025 88.6352 96.5759 88.3867C96.3493 88.1382 96.1227 87.8896 95.8961 87.6637C94.9896 86.7599 94.2644 85.7658 93.6299 84.6813C91.3638 80.4337 89.4602 75.9149 88.5537 71.1251C88.5217 70.9017 88.4784 70.6897 88.4358 70.4809L88.4358 70.4808L88.4357 70.4807Z" fill="#5B9ED9"/>
</mask>
<g mask="url(#mask0)">
<path d="M284.844 170.145C284.651 169.95 274.382 173.669 271.863 173.708C273.994 169.558 287.225 151.304 288 151.5C288.581 151.657 285.306 151.87 285.5 150.5C285.539 150.304 271.127 171.516 267.794 173.277C263.454 173.434 252.527 172.024 246.171 170.811C246.133 170.654 246.055 170.498 246.016 170.341C245.28 168.658 244.544 167.092 243.691 165.565C243.691 165.252 243.808 164.939 243.963 164.704C244.35 164.156 244.931 163.843 245.513 163.49C246.443 162.903 247.256 162.199 248.031 161.416C248.186 161.259 248.342 161.063 248.419 160.828C248.458 160.75 248.458 160.672 248.419 160.593V160.554C248.419 159.38 247.838 145.483 248.419 143.917C248.884 142.664 249.582 139.532 250.357 138.828C254.232 139.415 278.063 149.397 282.326 152.921V151.942C282.326 151.55 282.326 149.593 281.551 149.789C280.892 149.945 256.169 138.867 250.357 135.618C250.395 135.5 250.395 135.383 250.357 135.265C250.318 134.991 250.279 134.717 250.24 134.443C255.123 133.034 274.304 127.514 275.351 127.514C276.048 127.514 272.832 123.404 272.832 124.97C272.832 126.222 255.394 132.016 248.613 132.603C248.38 132.447 248.109 132.251 247.838 132.094C247.063 131.429 246.016 130.724 244.893 129.98C240.32 126.575 234.973 122.112 235.166 121.016C235.205 120.938 235.205 120.898 235.205 120.898C236.368 119.528 247.024 112.286 247.024 111.699C247.024 111.112 243.536 110.72 243.73 111.307C243.885 111.777 235.903 118.119 231.679 120.272C231.098 120.585 231.175 120.624 230.633 120.624C230.478 120.624 230.013 120.742 229.819 120.429C228.269 118.236 221.991 109.311 221.836 108.959C221.642 108.567 215.442 108.959 217.574 108.959C219.201 108.959 225.828 117.806 228.966 122.817C229.083 123.012 229.044 123.247 229.083 123.443C229.121 123.6 229.005 124.108 228.85 124.187C220.286 129.432 201.996 139.219 199.167 138.906C198.199 131.077 193.612 76.936 194 73.9999C183.526 44.8242 188.536 71.4554 190.512 73.9999C191.869 75.7615 197.152 129.08 196.455 139.023C188.433 135.148 180.49 131.194 175.142 128.532C173.321 127.279 169.717 124.5 169.717 123.247C169.717 121.995 180.4 98.0018 183.5 93.4999C182.221 93.2259 181.097 92.7953 180.787 93.1084C180.4 93.4999 169.523 121.681 167.973 121.877C166.733 122.034 165.648 121.016 165.261 120.507C166.539 116.514 168.089 108.489 168.554 108.176C169.136 107.784 165.842 107.393 165.842 107.784C165.842 108.176 164.292 118.55 163.517 119.528C162.742 120.507 150.032 121.407 149.761 120.624C149.489 119.841 149.799 109.741 150.846 108.802C151.892 107.823 147.048 108.41 147.242 108.802C147.436 109.193 149.489 119.137 148.404 121.329C147.629 122.895 145.111 120.35 142.785 119.959C141.817 116.631 139.995 109.859 140.46 109.389C141.042 108.802 137.554 109.193 137.554 109.585C137.554 109.976 141.235 119.959 141.042 121.133C141.003 121.368 142.437 121.995 144.762 122.895C145.653 123.247 145.963 124.382 145.304 125.087C139.259 132.134 128.952 139.18 128.254 137.575C127.479 135.813 131.548 111.738 132.129 110.368C132.4 109.741 130.695 110.094 129.61 110.368C129.998 111.347 127.479 136.205 124.573 137.575C122.527 137.93 92.4901 93.8831 88.5737 87.5C87.1399 87.6957 84.5436 88.1655 85.4736 88.4787C86.1324 88.7136 109.228 120.272 115.931 128.963C114.42 131.272 108.956 136.792 107.251 137.262C107.019 137.34 106.825 137.379 106.67 137.458C103.686 136.988 100.586 135.5 98.765 133.151C97.525 130.92 94.0375 115.653 94.58 113.578C94.735 113.03 90.55 114.517 91.2862 114.948C93.6112 116.318 97.7963 132.564 97.5638 133.739C97.3313 134.913 88.5737 139.219 87.5662 139.219C86.5587 139.219 80.0099 133.347 79.4286 133.347C78.8473 133.347 78.1111 135.109 78.8861 134.913C79.5061 134.756 84.4274 139.023 86.8299 141.177C84.8924 143.604 80.6686 148.38 79.2736 148.223C77.8786 148.066 74.8173 146.853 73.461 146.266C71.7173 147.362 69.586 148.419 71.911 148.419C74.236 148.419 85.8224 151.198 91.9837 154.369C92.7975 154.8 101.245 159.889 104.074 162.903C89.3487 166.231 47.3686 184.238 34.581 187.957C32.256 188.623 33.341 188.623 33.9998 191.676C37.836 189.328 72.2985 176.213 76.5611 174.647C77.4911 175 94.3475 189.602 97.0988 191.676C95.6263 196.061 95.9363 201.463 93.4175 203.93C91.945 205.378 92.0612 205.691 88.9612 205.691C87.0624 205.691 70.5548 205.769 66.486 202.638C66.0597 202.285 68.1522 205.574 69.1985 206.748L88.5737 208.314C91.5575 209.488 98.2225 204.517 96.905 214.578C96.5563 217.357 94.58 226.713 92.255 227.496C91.325 227.809 95.7425 229.453 95.5488 228.475C95.045 225.813 96.6338 219.706 98.1838 216.457C98.5713 215.634 99.5013 214.108 100.044 213.912C101.594 213.364 104.423 211.446 106.128 212.698C108.995 214.773 110.584 223.151 110.661 223.777C110.816 224.873 102.986 229.062 101.436 231.411L103.955 231.019C102.599 229.649 108.724 211.211 108.724 209.488C108.724 208.392 111.01 204.204 113.568 199.702C128.874 202.403 153.674 206.396 156.116 208.04V208.079C156.116 208.197 156.154 208.275 156.154 208.353C146.544 217.592 102.059 237.121 98.6488 238.217C97.37 238.648 103.686 240.057 103.686 239C103.686 234.498 126 233 158.518 209.449C159.487 210.624 157.743 232.155 157.743 236.069L161.037 235.874C159.874 234.503 159.874 210.232 161.657 208.666C161.657 208.353 161.618 208.001 161.618 207.688C163.207 206.122 171.5 202.794 176.343 202.011L175.375 200.837L160.301 204.752C159.952 196.257 160.223 187.096 161.424 184.395C168.787 193.595 188.278 214.578 188.743 216.691C188.821 216.965 188.898 217.161 189.015 217.279C188.898 220.136 188.821 222.994 188.705 225.852H188.666C188.55 231.411 188.356 236.696 187.968 237.009C187.503 237.361 189.092 237.596 190.603 237.713C190.022 234.308 189.945 229.453 190.797 226.008C190.913 225.774 191.068 225.539 191.107 225.265C191.998 219.393 192.541 219.471 196.029 219.001C196.842 218.884 197.579 218.766 198.199 218.61C198.315 218.61 198.509 218.571 198.741 218.531C200.136 218.062 200.33 218.492 200.756 218.962C201.182 219.393 201.337 220.058 201.454 220.645C201.764 222.368 201.802 223.581 201.802 225.265C201.764 225.46 201.686 225.617 201.686 225.695C201.182 229.727 193.896 246.929 193.741 251H194.012C193.082 251.313 195.95 251.117 197.5 251C195.5 242.5 203.778 229.55 203.5 224.5C202.996 221.173 203.507 220.606 204.244 217.357C204.321 217.318 204.399 217.279 204.476 217.279C204.864 217.2 205.212 217.279 205.6 217.396C205.716 217.435 205.832 217.474 205.949 217.514C206.142 217.592 206.336 217.67 206.53 217.748C206.917 217.905 207.344 218.022 207.77 218.14C209.204 218.688 210.599 219.393 211.916 220.254C210.521 224.325 209.552 228.514 209.01 232.781C208.971 233.055 208.932 233.368 209.049 233.642C209.204 233.955 209.397 233.838 210.715 234.425C209.669 229.884 210.444 229.023 211.645 224.325C211.877 223.503 213.04 221.937 213.699 220.998C215.365 221.898 216.799 223.19 218.194 224.482C219.356 225.5 220.48 226.557 221.332 227.888C223.038 230.51 223.231 230.393 224.859 234.229C226.021 232.585 226.331 233.799 226.68 232.272C224.084 229.219 221.487 226.204 218.891 223.151C217.845 221.898 216.76 220.645 215.404 219.706C215.249 219.588 215.055 219.471 214.861 219.393C215.132 219.158 215.404 218.923 215.675 218.688C217.535 217.709 225.401 213.442 231.524 211.485C232.686 212.855 235.011 232.037 235.399 235.56C235.476 236.382 235.786 236.343 237.724 235.756C236.949 234.19 232.493 212.659 234.43 210.702C239.661 208.549 249.155 205.417 253.03 204.634C255.665 206.474 261.555 208.588 263.493 210.31C265.043 211.681 272.134 218.218 274.537 221.859C275.312 220.489 276.087 219.862 275.312 219.706C274.537 219.549 266.128 210.585 261.943 206.004C260.509 204.243 258.843 201.15 262.912 200.132C263.687 199.936 279.187 205.417 280.543 206.004C281.434 206.396 279.962 204.243 280.737 204.438C281.318 204.595 261.943 199.545 263.493 196.805C264.307 195.356 280.931 198.175 281.899 198.762C282.791 199.31 282.674 195.043 281.899 196.022C281.279 196.805 266.593 195.63 262.912 194.456C262.214 193.36 261.207 190.228 262.912 186.626C263.609 185.178 266.167 182.477 269.112 178.405C273.801 181.42 283.101 186.626 283.256 186.626C283.449 186.626 284.612 184.473 284.224 183.886C283.837 183.299 272.367 177.74 271.437 176.84C271.553 176.683 271.514 176.644 271.63 176.448C275.971 174.96 283.449 171.672 284.224 172.925C285.232 174.452 285.038 170.341 284.844 170.145ZM226.37 179.776C226.099 180.363 225.905 180.793 225.75 181.146C225.634 181.341 225.556 181.655 225.556 182.085C225.556 184.278 220.325 190.424 217.69 193.242C218.465 189.054 220.325 179.541 220.712 178.171C222.34 172.377 226.486 157.931 227.106 159.184C227.881 160.711 229.741 168.071 230.013 168.932C229.935 169.245 229.858 169.715 229.78 170.38C229.509 171.985 228.695 173.434 228.114 174.96C227.533 176.566 227.068 178.21 226.37 179.776ZM222.379 156.483C221.836 157.188 221.061 157.657 220.325 158.127C216.024 160.672 211.141 162.159 206.181 162.473V162.433C204.825 162.825 203.779 161.964 203.236 160.672C202.771 159.576 203.275 158.519 202.771 157.579C202.771 157.54 202.771 157.501 202.732 157.462C200.446 151.981 200.02 148.184 199.477 143.682C199.439 143.369 200.059 142.782 200.64 142.194C210.366 146.814 219.976 151.746 223.115 154.643C223.115 155.269 222.805 155.935 222.379 156.483ZM228.85 156.052C230.206 156.522 235.903 160.515 238.77 162.59C239.971 164.117 241.095 165.839 241.715 167.718C242.025 168.619 242.219 169.519 242.684 170.38C242.761 170.498 242.8 170.615 242.878 170.693C240.01 171.007 239.274 172.103 236.949 172.259C236.135 172.338 235.244 172.338 234.508 171.985C233.694 171.633 233.074 170.889 232.686 170.067C232.376 169.402 232.376 168.697 231.989 167.992C230.323 163.804 227.455 155.583 228.85 156.052ZM242.723 130.411C244.156 131.664 245.629 133.151 247.101 134.835C246.326 137.262 245.9 143.29 245.9 145.835C245.9 148.34 246.055 158.245 245.28 160.907L241.521 161.807C241.366 161.768 241.134 161.729 240.708 161.69C238.383 161.533 231.873 156.013 228.889 153.273C227.998 152.216 231.795 129.902 233.694 125.322C235.748 126.027 238.77 127.475 242.723 130.411ZM230.013 126.496C230.245 126.536 230.478 126.496 230.71 126.418C230.981 130.724 227.649 148.027 225.556 151.746C223.619 151.746 213.621 147.244 201.531 141.451C209.94 136.322 227.378 126.183 230.013 126.496ZM176.072 131.077C176.111 131.077 185.411 135.03 195.835 139.846C196.222 140.668 196.571 141.842 196.765 142.312C196.997 142.977 197.075 143.682 197.152 144.426C197.501 147.871 197.889 151.355 198.509 154.8C198.741 156.209 198.896 156.914 199.129 157.227C199.206 158.48 199.439 159.419 198.431 160.045C198.082 160.241 197.695 160.398 197.307 160.437C196.842 160.163 196.3 159.928 195.796 159.693C195.757 159.615 195.757 159.536 195.719 159.458C195.719 159.536 195.68 159.576 195.68 159.654C194.285 159.067 180.606 155.152 173.166 153.077C167.663 151.511 161.967 150.259 156.309 150.454C156.464 149.985 156.581 149.593 156.658 149.476C165.726 136.909 166.966 135.383 170.918 131.39C172.778 129.432 175.568 131.077 176.072 131.077ZM149.141 124.343C151.272 121.329 156.619 121.016 161.851 121.016C163.788 121.016 167.314 124.148 168.051 124.578C169.136 125.244 171.073 127.397 170.337 129.432C170.182 129.824 168.632 131.625 168.361 132.016C165.028 137.027 158.944 144.113 154.682 148.81C154.294 149.241 154.023 149.123 153.558 149.358C153.364 149.437 152.512 149.671 152.008 149.632C147.242 149.319 134.648 143.212 128.913 140.198C133.834 136.557 144.491 128.023 149.141 124.343ZM126.549 141.764C126.665 141.725 126.82 141.607 127.053 141.451L151.001 151.355C151.001 151.355 151.698 151.981 151.931 152.138C152.202 152.333 152.551 152.96 153.016 154.369C155.108 160.828 158.789 176.957 157.356 179.345C153.403 177.388 111.243 162.12 111.243 161.337C111.243 160.554 125.038 142.351 126.549 141.764ZM125.193 180.167C125.077 180.128 124.96 180.128 124.805 180.089L115.776 174.882C115.389 174.491 115.079 174.099 114.808 173.708C113.645 170.537 111.049 165.683 110.933 164.665C117.792 163.412 149.102 178.092 156.154 182.751C156.387 184.395 130.657 180.793 125.193 180.167ZM117.094 130.607C120.31 135.578 122.829 139.767 123.062 140.198C123.837 141.764 110.196 160.828 109.693 158.793C109.305 157.305 107.755 145.561 108.336 140.276C108.375 140.198 108.414 140.12 108.414 140.041C108.453 139.885 108.453 139.728 108.414 139.571C108.414 139.532 108.414 139.532 108.414 139.493C108.414 139.493 108.414 139.493 108.375 139.493C108.298 138.984 108.026 138.554 108.414 137.888C109.964 136.87 115.544 130.803 117.094 130.607ZM85.1637 147.244C85.6674 144.661 90.9762 139.806 90.9762 139.806C94.2312 137.497 96.44 136.087 97.7188 135.148C97.9125 135.109 98.145 135.148 98.3388 135.187C98.8038 135.265 99.1913 135.5 99.6176 135.735C101.013 136.479 102.369 137.262 103.764 138.006C104.461 138.397 105.159 138.789 105.663 139.376C106.128 139.963 106.36 140.707 106.476 141.451C106.399 141.725 106.438 141.999 106.554 142.155C107.135 142.938 108.879 158.597 106.554 160.75C105.624 161.65 84.4661 150.768 85.1637 147.244ZM79.2736 173.473C90.4725 168.697 103.958 163.686 105.043 163.686C105.546 164.195 105.508 164.038 105.469 163.96C105.469 163.999 105.508 164.078 105.624 164.273C106.166 165.604 101.943 177.505 98.0288 188.975C94.6962 187.253 79.9324 175.743 79.2736 173.473ZM103.686 210.467C99.8501 212.424 97.4863 212.033 97.4863 203.616C96.595 200.367 103.299 171.359 109.228 165.604C109.46 166.113 112.405 170.459 112.018 172.494L112.095 172.533C112.018 172.573 111.94 172.572 111.94 172.572C112.793 174.138 113.878 175.587 115.156 176.8C116.319 177.896 117.636 178.836 118.567 180.128C119.497 181.42 120 183.181 119.303 184.63C118.915 185.452 118.179 186.039 117.598 186.744C117.249 187.174 117.016 187.722 116.978 188.231C115.97 191.167 105.508 209.528 103.686 210.467ZM115.234 196.766C117.171 193.399 118.838 190.619 118.993 190.306L128.293 181.537C135.772 181.929 153.442 184.63 156.581 186C160.494 187.683 158.557 195.043 158.479 204.908C158.402 204.986 158.324 205.065 158.247 205.182C149.063 205.535 116.668 198.919 115.234 196.766ZM193.238 217.122C192.928 217.083 192.657 217.044 192.347 216.965C193.393 210.35 195.176 205.456 197.54 199.31C196.687 199.428 195.835 199.545 194.982 199.741C193.548 205.026 192.115 210.271 190.681 215.556C190.681 215.517 190.603 215.517 190.526 215.556C183.008 207.531 163.246 183.769 161.192 181.263C160.611 179.11 155.728 162.668 155.147 155.035C155.108 154.526 155.224 153.86 155.379 153.234C155.534 153.116 155.728 152.999 155.922 152.921C156.697 152.568 157.588 152.529 158.479 152.529C167.276 152.451 175.878 155.23 184.481 158.362C188.278 159.732 192.463 160.554 195.215 162.747C195.215 162.825 195.176 162.864 195.176 162.942C195.253 162.942 195.37 162.942 195.447 162.942C195.525 162.981 195.602 162.981 195.719 162.981C196.997 163.177 198.005 164.586 198.044 165.957C198.082 167.209 198.121 168.227 198.005 169.402C197.927 169.519 197.927 169.676 197.927 169.91C197.927 170.028 197.889 170.106 197.889 170.224C197.927 170.224 197.966 170.224 198.005 170.224C198.237 171.985 199.051 180.128 198.392 184.826C197.811 189.014 196.765 193.125 195.68 197.235C196.493 197.079 197.307 197 198.121 196.922C199.439 191.011 200.252 184.982 200.601 178.914C200.717 176.761 200.756 174.647 200.834 172.494C200.834 171.868 200.795 170.811 200.756 170.145C200.756 170.106 200.756 170.106 200.756 170.067C201.066 168.501 201.609 167.601 202.771 167.053C202.965 166.974 203.159 166.857 203.314 166.7C203.314 166.74 203.314 166.779 203.352 166.818C203.972 166.113 204.98 165.565 206.181 165.095C206.22 165.095 206.22 165.095 206.259 165.095V165.056C208.739 164.156 211.994 163.686 213.854 163.177C216.644 162.473 219.589 161.807 221.759 159.889C222.611 159.145 223.348 158.205 224.278 157.579C223.696 165.135 216.334 185.883 212.652 194.143C212.304 194.495 204.011 195.865 197.152 197.079C190.526 198.175 180.528 199.897 177.39 200.211L178.746 201.776C182.078 201.072 190.952 200.171 196.726 199.271C201.376 198.645 208.971 197.079 210.521 197.314C211.335 197.431 210.715 198.958 210.327 199.662C209.436 201.307 202.926 214.421 201.492 216.731C198.702 217.161 195.951 217.514 193.238 217.122ZM210.87 217.631L205.212 215.086C207.344 210.389 212.11 199.271 212.381 199.114C212.962 198.723 213.079 197.353 213.544 199.31C212.924 205.104 211.529 216.652 210.87 217.631ZM252.294 203.225C251.558 203.812 222.224 214.499 214.667 215.909C214.59 209.88 214.861 200.485 216.644 198.723C218 195.591 251.287 196.961 251.907 197.744C252.372 199.31 253.069 202.598 252.294 203.225ZM257.913 191.872C258.068 192.812 254.232 194.221 253.263 195.2C252.682 195.787 226.254 195.004 219.356 195.161C219.976 193.712 225.673 185.569 228.463 181.694C230.013 180.089 230.943 176.957 232.686 175.626C234.236 174.452 236.368 174.412 238.305 174.099C238.848 174.021 239.468 173.825 240.126 173.629C240.165 173.669 240.359 173.629 240.669 173.473C242.684 172.69 259.075 174.882 267.019 176.096C264.307 181.302 257.835 191.363 257.913 191.872Z" fill="#367CB9"/>
</g>
</svg>
