<svg width="433" height="344" viewBox="0 0 433 344" fill="none" xmlns="http://www.w3.org/2000/svg">
<path d="M144.425 181.915C149.569 182.867 161.017 180.323 166.916 168.237C169.203 163.551 168.486 154.877 159.493 150.02C153.854 146.973 142.727 144.676 135.983 151.119C133.385 153.602 127.028 159.45 130.831 170.228C132.735 175.618 138.714 180.859 144.425 181.915Z" fill="#8B92D2" fill-opacity="0.4"/>
<path d="M144.541 180.539C149.313 181.41 159.933 179.04 165.425 167.875C167.556 163.545 166.905 155.542 158.575 151.072C153.35 148.272 143.034 146.172 136.762 152.13C134.347 154.425 128.442 159.838 131.948 169.777C133.705 174.745 139.242 179.574 144.541 180.539Z" fill="#5A5999"/>
<path d="M144.653 180.07C149.289 180.916 159.613 178.611 164.953 167.762C167.021 163.554 166.393 155.777 158.296 151.432C153.222 148.709 143.192 146.668 137.101 152.462C134.754 154.695 129.014 159.951 132.423 169.612C134.127 174.44 139.505 179.129 144.653 180.07Z" fill="#949BD9" stroke="#5C629B" stroke-width="0.48668" stroke-miterlimit="10" stroke-linecap="round" stroke-linejoin="round"/>
<path d="M147.127 170.385C153.47 168.432 154.947 162.822 151.401 159.013C147.855 155.204 144.058 154.089 139.733 158.972C135.403 163.857 141.21 172.21 147.127 170.385Z" fill="#406296" stroke="#2D3368" stroke-width="0.48668" stroke-miterlimit="10" stroke-linecap="round" stroke-linejoin="round"/>
<path opacity="0.5" d="M146.119 169.894C150.87 168.433 151.975 164.23 149.317 161.375C146.661 158.523 143.82 157.684 140.577 161.344C137.339 165.006 141.683 171.261 146.119 169.894Z" fill="#6277C2"/>
</svg>
