<svg width="150" height="140" viewBox="0 0 150 140" fill="none" xmlns="http://www.w3.org/2000/svg">
<path d="M128.928 53.3084C128.806 50.3486 131.647 48.9298 134.612 49.0032C137.576 49.0766 140.198 51.6205 140.639 54.5559C141.08 57.4913 139.487 60.5245 136.988 62.1145C135.42 63.1174 133.411 63.5577 131.648 62.9706C129.884 62.3591 128.512 59.3259 128.757 57.4913C120.353 56.9042 114.915 61.772 110.211 67.2024C105.507 72.6328 101.955 79.6777 96.5402 84.3988C91.1994 89.0709 84.2172 91.8106 77.1369 92.0307C70.0566 92.2509 64.7403 89.927 59.1545 85.5729C54.1567 81.708 50.4573 76.3754 45.533 72.4371C42.1276 69.7219 35.9293 67.6427 31.691 68.5723C28.6776 69.2327 26.1296 71.3119 23.1653 72.1436C18.1429 73.5624 5.15838 64.903 10.3032 65.8326C15.105 66.7132 18.6574 67.9852 22.7733 67.1535C25.8357 66.542 28.6041 64.9031 31.642 64.2426C37.4728 62.9706 43.5486 65.3678 48.3994 68.8658C53.2502 72.3393 57.2436 77.4762 61.8494 81.2677C66.4553 85.0592 72.0411 87.5787 77.9943 87.432C85.0991 87.2607 91.2974 82.5152 95.9032 77.1093C100.509 71.7278 104.135 65.4657 109.28 60.5734C114.425 55.6811 118.785 54.0178 128.928 53.3084Z" fill="#4D4949"/>
</svg>
