<svg width="150" height="140" viewBox="0 0 150 140" fill="none" xmlns="http://www.w3.org/2000/svg">
<path d="M135.963 71.1396C132.227 57.3913 116.67 47.1259 105.953 38.9992C88.9876 26.0453 66.0819 16.2076 45.1972 25.9231C42.5637 26.7785 40.0526 27.8784 37.7865 29.2226C20.8828 38.9992 11.2061 59.3466 9.98119 78.1054C8.38881 102.669 18.8618 120.694 45.4422 124.3C56.4664 125.766 66.8781 121.305 76.6161 116.723C91.6212 109.635 109.382 111.162 123.836 103.708C129.103 100.958 133.574 96.4364 136.514 91.3037C139.882 85.1934 137.678 77.311 135.963 71.1396Z" fill="url(#paint0_linear)"/>
<path d="M87.7031 50.9738C85.6207 38.7532 69.3907 32.765 58.734 33.926C50.5272 34.8426 42.8103 39.9752 38.2781 46.7577C34.4809 52.3792 30.3162 64.1722 38.4619 68.4494C43.3002 71.0158 49.486 67.4107 53.6507 65.272C57.4479 63.2556 61.2451 61.2392 65.5935 60.5671C69.2682 60.0171 73.0654 60.3838 76.8014 59.7116C80.3536 59.0395 88.6217 56.1065 87.7031 50.9738Z" fill="#DDF5F5"/>
<path d="M35.9512 74.4384C34.1751 71.3221 30.5004 69.9167 27.4382 74.4384C23.2735 80.6098 29.2143 89.9586 35.4613 82.5651C37.4824 80.121 37.2986 76.8214 35.9512 74.4384Z" fill="#CCE9FA"/>
<defs>
<linearGradient id="paint0_linear" x1="22.2498" y1="48.6358" x2="107.037" y2="106.124" gradientUnits="userSpaceOnUse">
<stop stop-color="#E1F0FA"/>
<stop offset="0.5408" stop-color="#C0E4FA"/>
<stop offset="1" stop-color="#A9DCFA"/>
</linearGradient>
</defs>
</svg>
