<svg xmlns="http://www.w3.org/2000/svg" width="24" height="24" fill="currentColor" viewBox="0 0 24 24">
  <path fill-rule="evenodd" d="M12 23c6.075 0 11-4.925 11-11S18.075 1 12 1 1 5.925 1 12s4.925 11 11 11zm.482-17c-.867 0-1.655.319-2.178.59a6.717 6.717 0 00-.897.56l-.017.014-.006.005-.002.001-.001.001.619.785-.62-.784a1 1 0 001.237 1.57l.004-.002.026-.02a4.715 4.715 0 01.577-.355c.4-.206.852-.365 1.257-.365.896 0 1.408.49 1.493 1.06.076.515-.026.857-.171 1.101-.157.263-.407.484-.719.665-.94.546-2.099 1.591-2.099 3.09v.258a1 1 0 102 0v-.259c0-.402.355-.925 1.104-1.36.504-.292 1.05-.729 1.432-1.37.393-.66.572-1.47.431-2.419C15.69 6.996 14.13 6 12.482 6zm.503 11.522a1 1 0 00-2 0V18a1 1 0 102 0v-.478z" clip-rule="evenodd"/>
</svg>
