<svg xmlns="http://www.w3.org/2000/svg" width="16" height="16" fill="currentColor" viewBox="0 0 16 16">
  <path d="M3.27323 4.34818L3.2816 4.85947C3.34056 6.58285 3.36827 7.28419 3.37485 7.98573C3.38139 8.68244 3.36709 9.37934 3.34188 11.0777L3.32572 11.5926C3.32889 11.7313 3.32532 11.8907 3.31554 12.069C3.30473 12.2472 3.30473 12.4091 3.31608 12.553C3.32724 12.7818 3.371 12.968 3.44531 13.111C3.52118 13.2527 3.62897 13.3807 3.76766 13.4949C3.89329 13.6019 4.04397 13.6894 4.21764 13.757C4.3926 13.824 4.57188 13.8778 4.76013 13.9175C5.01936 13.9722 5.32463 14.0003 5.6775 14.0005C6.02881 14.0021 6.45046 13.9734 6.94244 13.9145L7.2495 13.4583C7.1268 13.4704 6.97194 13.4767 6.78546 13.4753C6.59974 13.4751 6.44902 13.4619 6.33278 13.4373C6.01491 13.3702 5.80073 13.2684 5.6874 13.1304C5.57613 12.9928 5.5123 12.821 5.4977 12.6162C5.48667 12.36 5.46969 12.1052 5.44724 11.8537C5.42404 11.6011 5.42178 11.1831 5.44176 10.5991C5.45422 9.83731 5.43609 9.0757 5.41795 8.31422C5.39842 7.49367 5.37888 6.67329 5.39764 5.85302L5.38148 5.33807C5.37388 4.82573 5.37578 4.437 5.39083 4.17287C5.4069 3.90853 5.42351 3.64584 5.44375 3.38415C5.46139 3.17521 5.52906 3.0017 5.64731 2.86529C5.76399 2.72744 5.97536 2.62711 6.27883 2.56307C6.41359 2.53463 6.56895 2.52219 6.74671 2.52448C6.92474 2.5276 7.07392 2.53327 7.19554 2.5421L6.88952 2.08567C6.44008 2.02571 6.02487 1.99656 5.64239 2.00032C5.2586 2.00347 4.94662 2.03127 4.7059 2.08207C4.48679 2.12831 4.30389 2.18106 4.15562 2.23889C4.00838 2.29649 3.8603 2.38524 3.71446 2.50448C3.57962 2.61697 3.47237 2.74664 3.39319 2.89161C3.31401 3.03658 3.26998 3.22191 3.26288 3.44632C3.25428 3.60205 3.25347 3.76145 3.2584 3.92494C3.26372 4.08577 3.2687 4.22318 3.2729 4.33891L3.27323 4.34818ZM12.7266 4.34818L12.7182 4.85947C12.6593 6.58285 12.6315 7.28419 12.625 7.98573C12.6184 8.68244 12.6327 9.37934 12.6579 11.0777L12.6741 11.5926C12.6709 11.7313 12.6745 11.8907 12.6843 12.069C12.6951 12.2472 12.6951 12.4091 12.6837 12.553C12.6726 12.7818 12.6288 12.968 12.5545 13.111C12.4786 13.2527 12.3709 13.3807 12.2322 13.4949C12.1065 13.6019 11.9558 13.6894 11.7822 13.757C11.6072 13.824 11.4279 13.8778 11.2397 13.9175C10.9805 13.9722 10.6752 14.0003 10.3223 14.0005C9.97101 14.0021 9.54936 13.9734 9.05738 13.9145L8.75032 13.4583C8.87302 13.4704 9.02788 13.4767 9.21436 13.4753C9.40008 13.4751 9.5508 13.4619 9.66704 13.4373C9.98491 13.3702 10.1991 13.2684 10.3124 13.1304C10.4237 12.9928 10.4875 12.821 10.5021 12.6162C10.5131 12.36 10.5301 12.1052 10.5526 11.8537C10.5758 11.6011 10.578 11.1831 10.5581 10.5991C10.5456 9.83731 10.5637 9.0757 10.5819 8.31422C10.6014 7.49367 10.6209 6.67329 10.6022 5.85302L10.6183 5.33807C10.6259 4.82573 10.624 4.437 10.609 4.17287C10.5929 3.90853 10.5763 3.64584 10.5561 3.38415C10.5384 3.17521 10.4708 3.0017 10.3525 2.86529C10.2358 2.72744 10.0245 2.62711 9.72099 2.56307C9.58623 2.53463 9.43087 2.52219 9.25311 2.52448C9.07508 2.5276 8.9259 2.53327 8.80428 2.5421L9.1103 2.08567C9.55974 2.02571 9.97495 1.99656 10.3574 2.00032C10.7412 2.00347 11.0532 2.03127 11.2939 2.08207C11.513 2.12831 11.6959 2.18106 11.8442 2.23889C11.9914 2.29649 12.1395 2.38524 12.2854 2.50448C12.4202 2.61697 12.5275 2.74664 12.6066 2.89161C12.6858 3.03658 12.7298 3.22191 12.7369 3.44632C12.7455 3.60205 12.7463 3.76145 12.7414 3.92494C12.7361 4.08574 12.7311 4.22313 12.7269 4.33884L12.7269 4.33891L12.7266 4.34818Z"/>
</svg>
