<svg width="24" height="24" viewBox="0 0 24 24" fill="currentColor" xmlns="http://www.w3.org/2000/svg">
<path fill-rule="evenodd" clip-rule="evenodd" d="M4.36701 14.7069C4.17954 14.5194 4.07422 14.2651 4.07422 13.9999C4.07422 13.7347 4.17954 13.4804 4.36701 13.2929L11.331 6.3299C11.5185 6.14242 11.7728 6.03711 12.038 6.03711C12.3032 6.03711 12.5575 6.14242 12.745 6.32989L19.708 13.2929C19.8035 13.3851 19.8797 13.4955 19.9321 13.6175C19.9845 13.7395 20.0121 13.8707 20.0133 14.0035C20.0144 14.1363 19.9891 14.268 19.9388 14.3908C19.8885 14.5137 19.8143 14.6254 19.7204 14.7193C19.6265 14.8132 19.5149 14.8874 19.392 14.9377C19.2691 14.988 19.1374 15.0133 19.0046 15.0121C18.8718 15.011 18.7406 14.9834 18.6186 14.931C18.4966 14.8786 18.3863 14.8024 18.294 14.7069L12.038 8.4509L5.78201 14.7069C5.68913 14.7999 5.57884 14.8736 5.45745 14.924C5.33605 14.9743 5.20592 15.0002 5.0745 15.0002C4.94309 15.0002 4.81296 14.9743 4.69156 14.924C4.57017 14.8736 4.45988 14.7999 4.36701 14.7069Z"/>
</svg>
