<svg width="24" height="24" viewBox="0 0 24 24" fill="currentColor" xmlns="http://www.w3.org/2000/svg">
<path fill-rule="evenodd" clip-rule="evenodd" d="M14.707 19.6326C14.5195 19.8201 14.2652 19.9254 14 19.9254C13.7348 19.9254 13.4805 19.8201 13.293 19.6326L6.32999 12.6686C6.14252 12.4811 6.0372 12.2268 6.0372 11.9616C6.0372 11.6965 6.14252 11.4421 6.32999 11.2546L13.293 4.29162C13.3852 4.19611 13.4956 4.11992 13.6176 4.06751C13.7396 4.01511 13.8708 3.98752 14.0036 3.98637C14.1364 3.98521 14.268 4.01051 14.3909 4.06079C14.5138 4.11108 14.6255 4.18533 14.7194 4.27922C14.8133 4.37311 14.8875 4.48477 14.9378 4.60766C14.9881 4.73056 15.0134 4.86224 15.0122 4.99502C15.0111 5.1278 14.9835 5.25902 14.9311 5.38102C14.8787 5.50302 14.8025 5.61337 14.707 5.70562L8.45099 11.9616L14.707 18.2176C14.8 18.3105 14.8737 18.4208 14.924 18.5422C14.9744 18.6636 15.0003 18.7937 15.0003 18.9251C15.0003 19.0565 14.9744 19.1867 14.924 19.3081C14.8737 19.4295 14.8 19.5397 14.707 19.6326Z"/>
</svg>
