<svg xmlns="http://www.w3.org/2000/svg" width="16" height="16" fill="currentColor" viewBox="0 0 16 16">
  <path fill-rule="evenodd" d="M4.44007 6.38839C4.13139 6.69707 3.94295 6.8866 3.81311 7.03955C3.75263 7.1108 3.71954 7.15741 3.70103 7.18731C3.69223 7.20153 3.68742 7.21089 3.68496 7.21608C3.6826 7.22107 3.68184 7.2234 3.6817 7.22383C3.64907 7.32425 3.64907 7.43243 3.6817 7.53285C3.68184 7.53328 3.6826 7.5356 3.68496 7.54059C3.68742 7.54579 3.69223 7.55514 3.70103 7.56937C3.71954 7.59927 3.75263 7.64588 3.81311 7.71713C3.94295 7.87007 4.13139 8.05961 4.44007 8.36829L7.47439 11.4026C7.78307 11.7113 7.97261 11.8997 8.12555 12.0296C8.1968 12.0901 8.24341 12.1231 8.27331 12.1416C8.28754 12.1504 8.29689 12.1553 8.30209 12.1577C8.30557 12.1594 8.30775 12.1602 8.3089 12.1607C8.3094 12.1608 8.30877 12.1606 8.3089 12.1607C8.40932 12.1933 8.51843 12.1936 8.61885 12.161C8.61928 12.1608 8.62161 12.1601 8.6266 12.1577C8.63179 12.1553 8.64115 12.1504 8.65537 12.1416C8.68527 12.1231 8.73188 12.0901 8.80313 12.0296C8.95608 11.8997 9.14561 11.7113 9.45429 11.4026L11.5072 9.34975C11.8977 8.95922 12.5308 8.95922 12.9214 9.34975C13.3119 9.74027 13.3119 10.3734 12.9214 10.764L10.843 12.8423C10.5679 13.1175 10.3203 13.3651 10.0975 13.5542C9.85887 13.7568 9.58368 13.9504 9.23688 14.0631C8.73478 14.2262 8.19391 14.2262 7.6918 14.0631C7.345 13.9504 7.06982 13.7568 6.8312 13.5542C6.60838 13.3651 6.36082 13.1175 6.08572 12.8424L3.00032 9.75697C2.72519 9.48187 2.47759 9.2343 2.28843 9.01148C2.08586 8.77286 1.89227 8.49768 1.77959 8.15088C1.61644 7.64877 1.61644 7.10791 1.77959 6.6058C1.89227 6.259 2.08586 5.98381 2.28843 5.7452C2.4776 5.52237 2.72519 5.27481 3.00034 4.99969L5.07872 2.92131C5.46925 2.53079 6.10241 2.53079 6.49293 2.92131C6.88346 3.31184 6.88346 3.945 6.49293 4.33553L4.44007 6.38839Z" clip-rule="evenodd"/>
  <path fill-rule="evenodd" d="M9.00005 4.62842C8.44776 4.62842 8.00005 4.1807 8.00005 3.62842C8.00005 3.07613 8.44776 2.62842 9.00005 2.62842L12.2143 2.62842C12.4795 2.62842 12.7338 2.73378 12.9214 2.92131C13.1089 3.10885 13.2143 3.3632 13.2143 3.62842V6.84264C13.2143 7.39492 12.7665 7.84264 12.2143 7.84264C11.662 7.84264 11.2143 7.39492 11.2143 6.84264L11.2143 6.58872C11.2209 6.4853 11.2583 6.04847 11.4332 5.6116C11.1675 6.01043 10.8687 6.36567 10.6267 6.63022L8.10004 9.15685C7.70952 9.54738 7.07635 9.54738 6.68583 9.15685C6.2953 8.76633 6.29531 8.13316 6.68583 7.74264L9.18134 5.24713C9.44894 5.00012 9.81703 4.68756 10.2324 4.41076C9.81842 4.57654 9.40447 4.61879 9.27423 4.62842L9.00005 4.62842Z" clip-rule="evenodd"/>
</svg>