<svg width="24" height="24" viewBox="0 0 24 24" fill="currentColor" xmlns="http://www.w3.org/2000/svg">
<path fill-rule="evenodd" clip-rule="evenodd" d="M9.29299 4.36701C9.48052 4.17954 9.73483 4.07422 9.99999 4.07422C10.2652 4.07422 10.5195 4.17954 10.707 4.36701L17.67 11.331C17.8575 11.5185 17.9628 11.7728 17.9628 12.038C17.9628 12.3032 17.8575 12.5575 17.67 12.745L10.707 19.708C10.6147 19.8035 10.5044 19.8797 10.3824 19.9321C10.2604 19.9845 10.1292 20.0121 9.99639 20.0133C9.86361 20.0144 9.73193 19.9891 9.60904 19.9388C9.48614 19.8885 9.37449 19.8143 9.2806 19.7204C9.1867 19.6265 9.11245 19.5149 9.06217 19.392C9.01189 19.2691 8.98659 19.1374 8.98774 19.0046C8.98889 18.8718 9.01648 18.7406 9.06889 18.6186C9.1213 18.4966 9.19748 18.3863 9.29299 18.294L15.549 12.038L9.29299 5.78201C9.20001 5.68913 9.12625 5.57884 9.07593 5.45745C9.02561 5.33605 8.9997 5.20592 8.9997 5.0745C8.9997 4.94309 9.02561 4.81296 9.07593 4.69156C9.12625 4.57017 9.20001 4.45988 9.29299 4.36701Z"/>
</svg>
