<svg xmlns="http://www.w3.org/2000/svg" width="24" height="25" fill="currentColor" viewBox="0 0 24 25">
  <path fill-rule="evenodd" d="M14.553 3.539L4.305 13.787l-.004.004a7.603 7.603 0 00-.55.666 7.48 7.48 0 00-.984 1.799c-.267.724-.403 1.519-.272 2.334.13.803.53 1.698 1.455 2.623.924.925 1.82 1.325 2.623 1.455.815.131 1.61-.005 2.334-.272a7.48 7.48 0 001.799-.984 7.591 7.591 0 00.665-.55l.004-.003v-.001l9.899-9.898a1 1 0 011.414 1.414l-9.9 9.9-.707-.707.707.707-.001.001-.002.002-.005.005-.015.015a6.768 6.768 0 01-.23.21 9.639 9.639 0 01-.647.518c-.546.4-1.336.897-2.29 1.248-.955.352-2.104.57-3.344.37-1.252-.203-2.522-.819-3.719-2.016C1.34 21.431.723 20.161.521 18.91c-.2-1.24.017-2.39.369-3.345a9.475 9.475 0 011.248-2.29 9.637 9.637 0 01.727-.876l.015-.015.006-.005.001-.002.001-.001.708.707-.707-.708L13.142 2.121l.707.707-.706-.707V2.12l.002-.002.005-.004.012-.012a3.024 3.024 0 01.16-.145 5.914 5.914 0 011.98-1.138 4.51 4.51 0 012.323-.164c.877.175 1.757.635 2.588 1.466.83.831 1.291 1.711 1.467 2.588a4.51 4.51 0 01-.165 2.325 5.912 5.912 0 01-.798 1.546 5.91 5.91 0 01-.485.593l-.011.012-.005.004-.001.002h-.001l-.708-.706.707.707-9.9 9.9-.707-.707c.708.707.707.707.707.708l-.003.002-.003.004-.009.008a2.075 2.075 0 01-.1.091 3.507 3.507 0 01-1.16.666c-.39.13-.879.206-1.418.098-.545-.11-1.072-.393-1.55-.87-.476-.477-.76-1.004-.87-1.55a2.754 2.754 0 01.099-1.418 3.455 3.455 0 01.757-1.26l.008-.008.004-.004.001-.001.001-.001.708.706-.707-.707 9.192-9.192a1 1 0 111.414 1.414l-9.185 9.186a1.461 1.461 0 00-.295.5.758.758 0 00-.035.393c.023.117.093.298.323.528.23.23.41.3.528.323a.757.757 0 00.393-.035 1.46 1.46 0 00.5-.295l9.89-9.89.01-.011a3.928 3.928 0 00.283-.352c.183-.255.393-.608.529-1.017.135-.404.192-.844.1-1.3-.09-.448-.336-.982-.92-1.565-.582-.584-1.117-.83-1.565-.92a2.512 2.512 0 00-1.3.1 3.916 3.916 0 00-1.017.528 3.91 3.91 0 00-.351.284l-.012.01z" clip-rule="evenodd"/>
</svg>
