<svg xmlns="http://www.w3.org/2000/svg" width="24" height="24" fill="currentColor" viewBox="0 0 24 24">
  <path fill-rule="evenodd" d="M2 12C2 6.477 6.477 2 12 2s10 4.477 10 10-4.477 10-10 10S2 17.523 2 12zM12 0C5.373 0 0 5.373 0 12s5.373 12 12 12 12-5.373 12-12S18.627 0 12 0zm2.654 5.657c.71.453 1.192 1.19 1.336 2.202.14.972-.037 1.801-.426 2.479-.38.662-.925 1.116-1.434 1.423-.745.448-1.13 1.005-1.13 1.469V14a1 1 0 11-2 0v-.77c0-1.523 1.14-2.606 2.097-3.182.313-.188.57-.422.732-.706.154-.268.261-.643.181-1.2-.07-.49-.257-.688-.43-.798-.217-.138-.55-.219-.989-.219-.86 0-1.715.303-1.745.313a1 1 0 01-.691-1.876c.033-.013 1.186-.437 2.437-.437.631 0 1.396.108 2.062.532zM12 16a1 1 0 011 1v.5a1 1 0 11-2 0V17a1 1 0 011-1z" clip-rule="evenodd"/>
</svg>
