<svg xmlns="http://www.w3.org/2000/svg" width="16" height="16" fill="currentColor" viewBox="0 0 16 16">
  <path fill-rule="evenodd" d="M11.14 1.33c-.267.087-.498.318-.96.78L9.108 3.183c-.462.462-.693.693-.78.959a1.167 1.167 0 000 .721c.087.266.318.497.78.96l1.072 1.072c.462.462.693.693.96.78.234.076.486.076.72 0 .267-.087.498-.318.96-.78l1.072-1.073c.462-.462.693-.693.78-.959a1.167 1.167 0 000-.721c-.087-.266-.318-.497-.78-.96L12.82 2.11c-.462-.462-.693-.693-.96-.78a1.166 1.166 0 00-.72 0zM2.293 2.805c-.127.25-.127.576-.127 1.23V5.55c0 .653 0 .98.127 1.23.112.22.29.398.51.51.25.127.576.127 1.23.127H5.55c.653 0 .98 0 1.23-.128.219-.111.397-.29.51-.51.127-.249.127-.576.127-1.229V4.033c0-.653 0-.98-.128-1.23a1.167 1.167 0 00-.51-.51c-.25-.126-.576-.126-1.23-.126H4.034c-.653 0-.98 0-1.23.127-.219.112-.397.29-.51.51zm-.127 7.646c0-.653 0-.98.127-1.23.112-.219.29-.397.51-.51.25-.126.576-.126 1.23-.126H5.55c.653 0 .98 0 1.23.127.219.112.397.29.51.51.127.25.127.576.127 1.23v1.516c0 .653 0 .98-.128 1.23-.112.22-.29.398-.51.51-.25.127-.576.127-1.23.127H4.034c-.653 0-.98 0-1.23-.127a1.167 1.167 0 01-.51-.51c-.127-.25-.127-.577-.127-1.23V10.45zM8.71 9.22c-.127.25-.127.577-.127 1.23v1.517c0 .653 0 .98.127 1.23.112.22.29.398.51.51.25.127.576.127 1.23.127h1.516c.653 0 .98 0 1.23-.127.219-.112.398-.29.51-.51.127-.25.127-.577.127-1.23V10.45c0-.653 0-.98-.128-1.23a1.166 1.166 0 00-.51-.51c-.25-.126-.576-.126-1.23-.126H10.45c-.653 0-.98 0-1.23.127-.219.112-.397.29-.51.51z" clip-rule="evenodd"/>
</svg>
