<svg xmlns="http://www.w3.org/2000/svg" width="24" height="24" fill="currentColor" viewBox="0 0 24 24">
  <path fill-rule="evenodd" clip-rule="evenodd" d="M10.1999 3.90015C8.70873 3.90015 7.4999 5.10898 7.4999 6.60015V7.50015H6.612C6.60467 7.50006 6.59732 7.50006 6.58996 7.50015H4.7999C4.30285 7.50015 3.8999 7.90309 3.8999 8.40015C3.8999 8.8972 4.30285 9.30015 4.7999 9.30015H5.78541L6.62228 17.6688C6.7603 19.0491 7.92175 20.1001 9.30888 20.1001H14.6909C16.0781 20.1001 17.2395 19.0491 17.3775 17.6688L18.2144 9.30015H19.1999C19.697 9.30015 20.0999 8.8972 20.0999 8.40015C20.0999 7.90309 19.697 7.50015 19.1999 7.50015H17.4098C17.4025 7.50006 17.3951 7.50006 17.3878 7.50015H16.4999V6.60015C16.4999 5.10898 15.2911 3.90015 13.7999 3.90015H10.1999ZM16.4054 9.30015H7.59439L8.41335 17.4897C8.45935 17.9498 8.8465 18.3001 9.30888 18.3001H14.6909C15.1533 18.3001 15.5404 17.9498 15.5865 17.4897L16.4054 9.30015ZM14.6999 7.50015H9.2999V6.60015C9.2999 6.10309 9.70285 5.70015 10.1999 5.70015H13.7999C14.297 5.70015 14.6999 6.10309 14.6999 6.60015V7.50015Z"/>
</svg>
