<svg xmlns="http://www.w3.org/2000/svg" width="24" height="24" fill="currentColor" viewBox="0 0 24 24">
  <path fill-rule="evenodd" d="M8.956 2C5.7 2 3 4.997 3 7.956c0 1.053.006 2.4.449 3.728a1 1 0 01-1.898.632C1 10.662 1 9.027 1 7.991v-.035C1 3.96 4.529 0 8.956 0a7.949 7.949 0 016.578 3.478h.379c1.665 0 3.28.581 4.493 1.539C21.618 5.973 22.5 7.37 22.5 9v.066c0 .964 0 2.169-.606 3.381a1 1 0 11-1.788-.894c.38-.76.394-1.528.394-2.553 0-.87-.471-1.734-1.332-2.413-.86-.68-2.04-1.109-3.255-1.109h-.93a1 1 0 01-.867-.5A5.954 5.954 0 008.957 2zm-2.26 15.64a1 1 0 00.028 1.413l4.084 3.918a1 1 0 001.384 0l4.084-3.918a1 1 0 10-1.385-1.443L12.5 19.904v-9.779a1 1 0 10-2 0v9.78L8.109 17.61a1 1 0 00-1.414.03z" clip-rule="evenodd"/>
</svg>
