<svg xmlns="http://www.w3.org/2000/svg" width="24" height="24" fill="currentColor" viewBox="0 0 24 24">
  <path fill-rule="evenodd" d="M21.627 1.828C19.472-.327 17 .8 17 .8l-14.4 14.4-.526 4.384-.245 2.043 2.044-.245 4.384-.526 14.4-14.4s1.126-2.473-1.029-4.628zm-17.51 17.51l.386-3.214L14.974 5.653l2.829 2.828L7.33 18.953l-3.214.385zm15.1-12.271l1.681-1.681c.027-.128.05-.286.052-.463.006-.444-.105-1.048-.737-1.68-.632-.633-1.236-.743-1.68-.737a2.432 2.432 0 00-.463.051L16.389 4.24l2.828 2.828z" clip-rule="evenodd"/>
</svg>
