<svg width="24" height="24" viewBox="0 0 24 24" fill="currentColor" xmlns="http://www.w3.org/2000/svg">
  <path d="M14.0872 2.64453C13.5356 2.64453 13.0883 3.09275 13.0883 3.64566C13.0883 4.19856 13.5356 4.64678 14.0872 4.64678L17.9389 4.64678L13.2943 9.29136C12.9038 9.68188 12.9031 10.3158 13.2927 10.7072C13.6824 11.0986 14.3148 11.0993 14.7053 10.7088L19.3628 6.05131L19.3628 9.93649C19.3628 10.4894 19.81 10.9376 20.3616 10.9376C20.9133 10.9376 21.3605 10.4894 21.3605 9.93649L21.3605 3.64566C21.3605 3.38014 21.2553 3.1255 21.068 2.93775C20.8806 2.75001 20.6266 2.64453 20.3616 2.64453H14.0872Z"/>
  <path d="M9.91168 21.3558H3.63725C3.37233 21.3558 3.11826 21.2503 2.93094 21.0626C2.74361 20.8749 2.63837 20.6202 2.63837 20.3547V14.0639C2.63837 13.511 3.08559 13.0627 3.63725 13.0627C4.18891 13.0627 4.63612 13.511 4.63612 14.0639L4.63612 17.9567L9.29467 13.2982C9.68519 12.9077 10.3176 12.9084 10.7073 13.2998C11.0969 13.6912 11.0962 14.3251 10.7057 14.7156L6.06771 19.3536H9.91168C10.4633 19.3536 10.9106 19.8018 10.9106 20.3547C10.9106 20.9076 10.4633 21.3558 9.91168 21.3558Z"/>
</svg>
