<svg xmlns="http://www.w3.org/2000/svg" width="22" height="24" fill="currentColor" viewBox="0 0 22 24">
  <path fill-rule="evenodd" d="M16.71 8.464l-3.897 3.786 3.574 3.472 4.18-2.373c.998-.568 1.235-1.409.71-2.103a1.638 1.638 0 00-.709-.591v-.001l-3.858-2.19zm-1.232 7.769l-3.382-3.286L.834 23.887a1.567 1.567 0 001.52-.197l13.124-7.457zM.149 23.158L11.378 12.25.032 1.228a1.872 1.872 0 00-.029.456v20.502a1.91 1.91 0 00-.002.173c-.009.276.042.548.148.799zM.51.298l11.587 11.255 3.709-3.603L2.353.313a1.512 1.512 0 00-.97-.312h-.027A1.199 1.199 0 00.51.299z" clip-rule="evenodd"/>
</svg>
