<svg width="16" height="16" viewBox="0 0 16 16" fill="currentColor" xmlns="http://www.w3.org/2000/svg">
  <path fill-rule="evenodd" clip-rule="evenodd" d="M5 3.5C5.82843 3.5 6.5 2.82843 6.5 2C6.5 1.17157 5.82843 0.5 5 0.5C4.17157 0.5 3.5 1.17157 3.5 2C3.5 2.82843 4.17157 3.5 5 3.5ZM5 9.5C5.82843 9.5 6.5 8.82843 6.5 8C6.5 7.17157 5.82843 6.5 5 6.5C4.17157 6.5 3.5 7.17157 3.5 8C3.5 8.82843 4.17157 9.5 5 9.5ZM6.5 14C6.5 14.8284 5.82843 15.5 5 15.5C4.17157 15.5 3.5 14.8284 3.5 14C3.5 13.1716 4.17157 12.5 5 12.5C5.82843 12.5 6.5 13.1716 6.5 14ZM11 3.5C11.8284 3.5 12.5 2.82843 12.5 2C12.5 1.17157 11.8284 0.5 11 0.5C10.1716 0.5 9.5 1.17157 9.5 2C9.5 2.82843 10.1716 3.5 11 3.5ZM12.5 8C12.5 8.82843 11.8284 9.5 11 9.5C10.1716 9.5 9.5 8.82843 9.5 8C9.5 7.17157 10.1716 6.5 11 6.5C11.8284 6.5 12.5 7.17157 12.5 8ZM11 15.5C11.8284 15.5 12.5 14.8284 12.5 14C12.5 13.1716 11.8284 12.5 11 12.5C10.1716 12.5 9.5 13.1716 9.5 14C9.5 14.8284 10.1716 15.5 11 15.5Z"/>
</svg>
