<svg xmlns="http://www.w3.org/2000/svg" width="24" height="24" fill="currentColor" viewBox="0 0 24 24">
  <path fill-rule="evenodd" d="M4.973 2.293a1 1 0 011.414 0l16 16a1 1 0 01-1.414 1.414l-1.336-1.335c-2.23 1.987-4.97 3.184-7.957 3.184-4.686 0-8.735-2.93-11.212-7.246a3.522 3.522 0 010-3.508c1.449-2.524 3.428-4.568 5.764-5.836l-1.26-1.259a1 1 0 010-1.414zm10.396 11.81l2.851 2.852c-1.9 1.663-4.151 2.601-6.54 2.601-3.787 0-7.255-2.37-9.478-6.242a1.522 1.522 0 010-1.516c1.413-2.46 3.337-4.32 5.518-5.344l2.413 2.414a3.99 3.99 0 00-1.988 1.816 4 4 0 107.22 3.429c0-.004.002-.007.004-.01zm-1.695-1.694l-1.847-1.847a1.998 1.998 0 00-2.122 2.31 2 2 0 003.97-.463zm.38-7.619a1 1 0 011.272-.619c3.122 1.077 5.758 3.482 7.566 6.631.475.828.588 1.8.34 2.695a1 1 0 01-1.928-.534 1.522 1.522 0 00-.147-1.165c-1.618-2.818-3.906-4.847-6.483-5.736a1 1 0 01-.62-1.272z" clip-rule="evenodd"/>
</svg>
