<svg xmlns="http://www.w3.org/2000/svg" width="24" height="24" fill="currentColor" viewBox="0 0 24 24">
  <path fill-rule="evenodd" d="M15 4a5 5 0 00-5 5c0 .512.171 1.09.393 1.717a1 1 0 01-.188.989l.002.001-.035.035-.03.03L4 17.915V20h2.5v-1.5h2V16h2.25v-1.883V14h.005a1 1 0 011.496-.766C13 13.668 14.104 14 15 14a5 5 0 000-10zM8 9c0 .63.144 1.25.306 1.78l-6.013 6.013-.293.293V22h6.5v-1.5h2V18h2.25v-2.38c.728.235 1.515.38 2.25.38a7 7 0 10-7-7zm7.5-3a1 1 0 00-.05 1.999.37.37 0 01.046.012.77.77 0 01.297.196.77.77 0 01.196.297c.007.021.01.037.012.046A1 1 0 0018 8.5h-1l1-.001V8.462a1.484 1.484 0 00-.018-.19 2.301 2.301 0 00-.096-.4 2.764 2.764 0 00-.679-1.08 2.764 2.764 0 00-1.078-.678A2.304 2.304 0 0015.538 6h-.02L15.507 6h-.007L15.5 7V6z" clip-rule="evenodd"/>
</svg>
