<svg xmlns="http://www.w3.org/2000/svg" width="16" height="16" fill="currentColor" viewBox="0 0 16 16">
  <path d="M13.8909 2.10913C12.412 0.630291 10.0144 0.630291 8.53553 2.10913L6.3934 4.25126C6.09763 4.54703 6.09763 5.02656 6.3934 5.32233C6.68917 5.6181 7.1687 5.6181 7.46447 5.32233L9.6066 3.18019C10.4939 2.29289 11.9325 2.29289 12.8198 3.18019C13.7071 4.0675 13.7071 5.5061 12.8198 6.3934L10.6777 8.53553C10.3819 8.8313 10.3819 9.31083 10.6777 9.6066C10.9734 9.90237 11.453 9.90237 11.7487 9.6066L13.8909 7.46447C15.3697 5.98563 15.3697 3.58796 13.8909 2.10913Z"/>
  <path d="M7.34196 9.72909C7.63772 9.43333 7.63772 8.95379 7.34196 8.65803C7.04619 8.36226 6.56665 8.36226 6.27089 8.65803L4.25126 10.6777C3.9555 10.9734 3.9555 11.453 4.25126 11.7487C4.54703 12.0445 5.02656 12.0445 5.32233 11.7487L7.34196 9.72909Z"/>
  <path d="M11.7487 4.25125C12.0445 4.54701 12.0445 5.02655 11.7487 5.32231L9.42617 7.64488C9.1304 7.94065 8.65087 7.94065 8.3551 7.64488C8.05933 7.34911 8.05933 6.86958 8.3551 6.57381L10.6777 4.25125C10.9734 3.95548 11.453 3.95548 11.7487 4.25125Z"/>
  <path d="M2.10913 13.8909C3.58796 15.3697 5.98563 15.3697 7.46447 13.8909L9.6066 11.7487C9.90237 11.453 9.90237 10.9734 9.6066 10.6777C9.31083 10.3819 8.8313 10.3819 8.53553 10.6777L6.3934 12.8198C5.5061 13.7071 4.0675 13.7071 3.18019 12.8198C2.29289 11.9325 2.29289 10.4939 3.18019 9.6066L5.32233 7.46447C5.6181 7.1687 5.6181 6.68917 5.32233 6.3934C5.02656 6.09763 4.54703 6.09763 4.25126 6.3934L2.10913 8.53553C0.630291 10.0144 0.630291 12.412 2.10913 13.8909Z"/>
</svg>
