<svg xmlns="http://www.w3.org/2000/svg" width="25" height="24" fill="currentColor" viewBox="0 0 25 24">
  <path fill-rule="evenodd" d="M21.892 2.892a5.484 5.484 0 00-7.788.033L10.787 6.3A1 1 0 0012.213 7.7l3.317-3.374a3.484 3.484 0 114.947 4.906l-4.005 4.005a3 3 0 01-4.161.078l-1.131-1.05a1 1 0 10-1.36 1.467l1.13 1.05a5 5 0 006.937-.13l4.005-4.006a5.484 5.484 0 000-7.755zM2.464 21.92a5.484 5.484 0 007.787-.033l3.318-3.373a1 1 0 10-1.427-1.403l-3.317 3.374a3.484 3.484 0 11-4.947-4.905l4.005-4.005a3 3 0 014.161-.079l1.131 1.05a1 1 0 101.36-1.467l-1.13-1.049a5 5 0 00-6.936.13l-4.005 4.005a5.484 5.484 0 000 7.755z" clip-rule="evenodd"/>
</svg>
