<svg xmlns="http://www.w3.org/2000/svg" width="24" height="25" fill="currentColor" viewBox="0 0 24 25">
  <path fill-rule="evenodd" d="M3 11a9 9 0 0118 0c0 .86-.31 1.855-.891 2.944-.577 1.081-1.385 2.19-2.296 3.26-1.823 2.138-3.98 4.027-5.28 5.096a.828.828 0 01-1.066 0c-1.3-1.069-3.457-2.958-5.28-5.097-.911-1.069-1.72-2.178-2.296-3.259C3.311 12.854 3 11.86 3 11zm9-11C5.925 0 1 4.925 1 11c0 1.314.464 2.643 1.126 3.885.667 1.251 1.572 2.481 2.539 3.616 1.933 2.268 4.192 4.243 5.531 5.344a2.828 2.828 0 003.608 0c1.339-1.101 3.598-3.076 5.531-5.344.967-1.135 1.871-2.365 2.539-3.616C22.536 13.643 23 12.314 23 11c0-6.075-4.925-11-11-11zm-2 11a2 2 0 114 0 2 2 0 01-4 0zm2-4a4 4 0 100 8 4 4 0 000-8z" clip-rule="evenodd"/>
</svg>
