<svg xmlns="http://www.w3.org/2000/svg" width="16" height="16" fill="currentColor" viewBox="0 0 16 16">
  <path d="M2 4C2 3.44772 2.44772 3 3 3H3.001C3.55328 3 4.001 3.44772 4.001 4C4.001 4.55228 3.55328 5 3.001 5H3C2.44772 5 2 4.55228 2 4ZM5 4C5 3.44772 5.44772 3 6 3H13C13.5523 3 14 3.44772 14 4C14 4.55228 13.5523 5 13 5H6C5.44772 5 5 4.55228 5 4ZM2 8C2 7.44772 2.44772 7 3 7H3.001C3.55328 7 4.001 7.44772 4.001 8C4.001 8.55228 3.55328 9 3.001 9H3C2.44772 9 2 8.55228 2 8ZM5 8C5 7.44772 5.44772 7 6 7H13C13.5523 7 14 7.44772 14 8C14 8.55228 13.5523 9 13 9H6C5.44772 9 5 8.55228 5 8ZM2 12C2 11.4477 2.44772 11 3 11H3.001C3.55328 11 4.001 11.4477 4.001 12C4.001 12.5523 3.55328 13 3.001 13H3C2.44772 13 2 12.5523 2 12ZM5 12C5 11.4477 5.44772 11 6 11H13C13.5523 11 14 11.4477 14 12C14 12.5523 13.5523 13 13 13H6C5.44772 13 5 12.5523 5 12Z"/>
</svg>
