<svg xmlns="http://www.w3.org/2000/svg" width="16" height="16" fill="currentColor" viewBox="0 0 16 16">
  <path fill-rule="evenodd" clip-rule="evenodd" d="M8.33708 1.11326C8.06526 0.962247 7.73474 0.962247 7.46292 1.11326L1.46292 4.44659C1.18303 4.60209 1.00682 4.89458 1.00019 5.21469C0.993563 5.53481 1.1575 5.83435 1.43072 6.0013L7.43092 9.66787C7.71902 9.84392 8.08142 9.84391 8.36951 9.66785L14.3693 6.00129C14.6425 5.83433 14.8064 5.53479 14.7998 5.21468C14.7932 4.89457 14.617 4.60209 14.3371 4.44659L8.33708 1.11326ZM7.90019 7.84516L3.6866 5.27034L7.9 2.92956L12.1135 5.27037L7.90019 7.84516Z"/>
  <path d="M14.7998 10.2141C14.7932 9.89401 14.617 9.60153 14.3371 9.44603L12.4058 8.3731L10.6408 9.45169L12.1135 10.2698L7.90019 12.8446L3.6866 10.2698L5.15932 9.45161L3.3943 8.37305L1.46292 9.44603C1.18303 9.60153 1.00682 9.89402 1.00019 10.2141C0.993563 10.5343 1.1575 10.8338 1.43072 11.0007L7.43092 14.6673C7.71902 14.8434 8.08142 14.8434 8.36951 14.6673L14.3693 11.0007C14.6425 10.8338 14.8064 10.5342 14.7998 10.2141Z"/>
</svg>