<svg xmlns="http://www.w3.org/2000/svg" width="16" height="16" fill="currentColor" viewBox="0 0 16 16">
  <path fill-rule="evenodd" clip-rule="evenodd" d="M8 15C11.866 15 15 11.866 15 8C15 4.13401 11.866 1 8 1C4.13401 1 1 4.13401 1 8C1 11.866 4.13401 15 8 15ZM8 12.9639C5.25852 12.9639 3.03611 10.7415 3.03611 8C3.03611 5.25852 5.25852 3.03611 8 3.03611C10.7415 3.03611 12.9639 5.25852 12.9639 8C12.9639 10.7415 10.7415 12.9639 8 12.9639ZM8 10.5C9.38071 10.5 10.5 9.38071 10.5 8C10.5 6.61929 9.38071 5.5 8 5.5C6.61929 5.5 5.5 6.61929 5.5 8C5.5 9.38071 6.61929 10.5 8 10.5Z"/>
</svg>
