<svg xmlns="http://www.w3.org/2000/svg" width="16" height="16" fill="currentColor" viewBox="0 0 16 16">
  <path d="M4.83562 14V13.5726L5.65753 13.4097C6.23288 13.2876 6.52055 12.9552 6.52055 12.4124V8.30967C6.52055 7.35983 6.52055 6.40998 6.52055 5.46014C6.52055 4.5103 6.5137 3.56045 6.5 2.61061H4.87671C4.43836 2.61061 4.11644 2.72595 3.91096 2.95663C3.70548 3.1873 3.5 3.51296 3.29452 3.93361L2.57534 5.43979H2L2.10274 2H13.8973L14 5.43979H13.4247L12.7055 3.93361C12.5 3.51296 12.2945 3.1873 12.089 2.95663C11.8836 2.72595 11.5616 2.61061 11.1233 2.61061H9.47945V12.4124C9.47945 12.9687 9.76712 13.3012 10.3425 13.4097L11.1849 13.5726V14H4.83562Z"/>
</svg>
