<svg xmlns="http://www.w3.org/2000/svg" width="16" height="16" fill="currentColor" viewBox="0 0 16 16">
  <path fill-rule="evenodd" clip-rule="evenodd" d="M8.43687 0.213356C8.16505 0.0623448 7.83454 0.0623448 7.56272 0.213356L1.56272 3.54669C1.277 3.70542 1.09979 4.00658 1.09979 4.33343V4.98112C1.09955 4.99329 1.09955 5.00544 1.09979 5.01757V11.6668C1.09979 11.9936 1.277 12.2948 1.56272 12.4535L7.54846 15.7789C7.67352 15.8515 7.81768 15.8949 7.97156 15.8997C7.98097 15.9 7.99038 15.9001 7.99979 15.9001C8.00952 15.9001 8.01924 15.8999 8.02896 15.8996C8.1825 15.8947 8.32632 15.8514 8.45113 15.7789L14.4369 12.4535C14.7226 12.2948 14.8998 11.9936 14.8998 11.6668V5.01753C14.9 5.00542 14.9 4.9933 14.8998 4.98117V4.33343C14.8998 4.00658 14.7226 3.70542 14.4369 3.54669L8.43687 0.213356ZM12.7199 4.65195L7.99979 2.02966L3.27968 4.65195L7.99979 7.11034L12.7199 4.65195ZM2.89979 6.4836V11.1372L7.09979 13.4705V8.6711L2.89979 6.4836ZM8.89979 13.4705L13.0998 11.1372V6.4836L8.89979 8.6711V13.4705Z"/>
</svg>
