<svg xmlns="http://www.w3.org/2000/svg" width="16" height="16" fill="currentColor" viewBox="0 0 16 16">
  <path d="M3.66209 4.85947C3.68208 5.4435 3.67982 5.8615 3.65661 6.11408C3.63417 6.36562 3.61718 6.62042 3.60615 6.87663C3.59155 7.08139 3.52772 7.2532 3.41645 7.39079C3.30313 7.52882 3.08894 7.63063 2.77107 7.69771C2.65483 7.72224 2.3184 7.73574 2.3184 7.73574L2.31641 8.26409C2.31641 8.26409 2.69027 8.27423 2.82503 8.30267C3.12849 8.36671 3.33986 8.46705 3.45654 8.6049C3.57479 8.74131 3.64247 8.91481 3.66011 9.12376C3.68035 9.38544 3.69696 9.64813 3.71303 9.91248C3.72807 10.1766 3.72998 10.5653 3.72237 11.0777L3.70622 11.5926C3.70939 11.7313 3.70581 11.8907 3.69603 12.069C3.68522 12.2472 3.68522 12.4091 3.69657 12.553C3.70774 12.7818 3.7515 12.968 3.8258 13.111C3.90167 13.2527 4.00946 13.3807 4.14815 13.4949C4.27379 13.6019 4.42447 13.6894 4.59813 13.757C4.77309 13.824 4.95237 13.8778 5.14062 13.9175C5.39986 13.9722 5.70512 14.0003 6.058 14.0005C6.40931 14.0021 6.83095 13.9734 7.32294 13.9145L7.62999 13.4583C7.50729 13.4704 7.35243 13.4767 7.16595 13.4753C6.98023 13.4751 6.82952 13.4619 6.71328 13.4373C6.39541 13.3702 6.18122 13.2684 6.0679 13.1304C5.95663 12.9928 5.8928 12.821 5.8782 12.6162C5.86717 12.36 5.85018 12.1052 5.82774 11.8537C5.80453 11.6011 5.80227 11.1831 5.82226 10.5991L5.83062 10.0878L5.83096 10.0785C5.83515 9.96279 5.84014 9.82538 5.84546 9.66455C5.85038 9.50105 5.84957 9.34166 5.84097 9.18593C5.83387 8.96151 5.78984 8.77619 5.71066 8.63122C5.63149 8.48624 5.52423 8.35657 5.38939 8.24408C5.24888 8.12921 5.1063 8.04263 4.96439 7.98494C5.10545 7.92253 5.2298 7.84588 5.3362 7.75526C5.47488 7.64107 5.58268 7.51306 5.65855 7.37143C5.73285 7.22837 5.77661 7.04222 5.78778 6.81341C5.79913 6.66948 5.79913 6.50761 5.78832 6.32943C5.77854 6.15104 5.77496 5.99169 5.77813 5.85302L5.76198 5.33807C5.75437 4.82573 5.75628 4.437 5.77132 4.17287C5.78739 3.90853 5.804 3.64584 5.82424 3.38415C5.84188 3.17521 5.90956 3.0017 6.0278 2.86529C6.14449 2.72744 6.35586 2.62711 6.65932 2.56307C6.79408 2.53463 6.94945 2.52219 7.12721 2.52448C7.30524 2.5276 7.45442 2.53327 7.57604 2.5421L7.27001 2.08567C6.82057 2.02571 6.40537 1.99656 6.02288 2.00032C5.63909 2.00347 5.32711 2.03127 5.0864 2.08207C4.86729 2.12831 4.68438 2.18106 4.53612 2.23889C4.38888 2.29649 4.2408 2.38524 4.09496 2.50448C3.96011 2.61697 3.85286 2.74664 3.77368 2.89161C3.69451 3.03658 3.65048 3.22191 3.64338 3.44632C3.63478 3.60205 3.63397 3.76145 3.63889 3.92494C3.64421 4.08577 3.6492 4.22318 3.65339 4.33891L3.65373 4.34818L3.66209 4.85947ZM12.3383 4.85947C12.3183 5.4435 12.3206 5.8615 12.3438 6.11408C12.3662 6.36562 12.3832 6.62042 12.3943 6.87663C12.4089 7.08139 12.4727 7.2532 12.584 7.39079C12.6973 7.52882 12.9115 7.63063 13.2293 7.69771C13.3456 7.72224 13.682 7.73574 13.682 7.73574L13.684 8.26409C13.684 8.26409 13.3101 8.27423 13.1754 8.30267C12.8719 8.36671 12.6605 8.46705 12.5439 8.6049C12.4256 8.74131 12.3579 8.91481 12.3403 9.12376C12.3201 9.38544 12.3035 9.64813 12.2874 9.91248C12.2723 10.1766 12.2704 10.5653 12.278 11.0777L12.2942 11.5926C12.291 11.7313 12.2946 11.8907 12.3044 12.069C12.3152 12.2472 12.3152 12.4091 12.3038 12.553C12.2927 12.7818 12.2489 12.968 12.1746 13.111C12.0987 13.2527 11.9909 13.3807 11.8523 13.4949C11.7266 13.6019 11.5759 13.6894 11.4023 13.757C11.2273 13.824 11.048 13.8778 10.8598 13.9175C10.6006 13.9722 10.2953 14.0003 9.94241 14.0005C9.5911 14.0021 9.16945 13.9734 8.67747 13.9145L8.37041 13.4583C8.49312 13.4704 8.64798 13.4767 8.83446 13.4753C9.02018 13.4751 9.17089 13.4619 9.28713 13.4373C9.605 13.3702 9.81919 13.2684 9.93251 13.1304C10.0438 12.9928 10.1076 12.821 10.1222 12.6162C10.1332 12.36 10.1502 12.1052 10.1727 11.8537C10.1959 11.6011 10.1981 11.1831 10.1782 10.5991L10.1698 10.0878L10.1695 10.0785L10.1694 10.0781C10.1652 9.96248 10.1603 9.8252 10.155 9.66455C10.15 9.50105 10.1508 9.34166 10.1594 9.18593C10.1665 8.96151 10.2106 8.77619 10.2897 8.63122C10.3689 8.48624 10.4762 8.35657 10.611 8.24408C10.7515 8.12921 10.8941 8.04263 11.036 7.98494C10.895 7.92253 10.7706 7.84588 10.6642 7.75526C10.5255 7.64107 10.4177 7.51306 10.3419 7.37143C10.2676 7.22837 10.2238 7.04222 10.2126 6.81341C10.2013 6.66948 10.2013 6.50761 10.2121 6.32943C10.2219 6.15104 10.2254 5.99169 10.2223 5.85302L10.2384 5.33807C10.246 4.82573 10.2441 4.437 10.2291 4.17287C10.213 3.90853 10.1964 3.64584 10.1762 3.38415C10.1585 3.17521 10.0909 3.0017 9.9726 2.86529C9.85592 2.72744 9.64455 2.62711 9.34109 2.56307C9.20633 2.53463 9.05096 2.52219 8.8732 2.52448C8.69517 2.5276 8.54599 2.53327 8.42437 2.5421L8.7304 2.08567C9.17983 2.02571 9.59504 1.99656 9.97753 2.00032C10.3613 2.00347 10.6733 2.03127 10.914 2.08207C11.1331 2.12831 11.316 2.18106 11.4643 2.23889C11.6115 2.29649 11.7596 2.38524 11.9055 2.50448C12.0403 2.61697 12.1475 2.74664 12.2267 2.89161C12.3059 3.03658 12.3499 3.22191 12.357 3.44632C12.3656 3.60205 12.3664 3.76145 12.3615 3.92494C12.3562 4.08577 12.3512 4.22318 12.347 4.33891L12.3467 4.34818L12.3383 4.85947Z"/>
</svg>
