<svg xmlns="http://www.w3.org/2000/svg" width="24" height="24" fill="currentColor" viewBox="0 0 24 24">
  <path fill-rule="evenodd" clip-rule="evenodd" d="M2.92185 11.4715C2.04138 9.27027 2.57604 7.07854 4.20224 5.39627C5.84504 3.69682 8.63399 2.5 12.2255 2.5C15.7863 2.5 18.205 3.80126 19.5534 5.31192C20.9423 6.86805 21.1156 8.49762 20.6148 9.35134C20.3648 9.73163 20.2234 10.1231 20.238 10.5257C20.253 10.9394 20.4289 11.2526 20.5973 11.4707C20.6906 11.5916 20.8206 11.7257 20.9103 11.8159C20.7963 11.9739 20.6316 12.1634 20.4449 12.3655C20.3528 12.4652 20.2598 12.5633 20.1694 12.6583L20.1448 12.6841L20.1448 12.6841C20.0644 12.7686 19.9848 12.8522 19.9152 12.9274C19.841 13.0076 19.7633 13.094 19.7014 13.1727C19.6714 13.2108 19.6309 13.2649 19.5946 13.3271C19.5763 13.3585 19.5506 13.4061 19.5281 13.4655C19.5085 13.5174 19.4724 13.6265 19.4757 13.7674C19.4834 14.0972 19.6738 14.3166 19.7538 14.4009C19.8525 14.5049 19.9666 14.5895 20.0554 14.6509C20.1594 14.7228 20.3087 14.8146 20.4398 14.8953L20.4399 14.8953C20.5097 14.9383 20.5744 14.9781 20.6244 15.01C20.7302 15.0776 20.8143 15.136 20.8789 15.1864C20.846 15.2124 20.8071 15.2408 20.7617 15.2719C20.7127 15.3054 20.663 15.3374 20.6082 15.3726L20.5996 15.3781C20.5508 15.4094 20.4919 15.4472 20.4389 15.484C20.3879 15.5194 20.3056 15.5786 20.2304 15.6547L20.2298 15.6553C20.1832 15.7025 19.9755 15.9128 19.9755 16.25V16.251V16.252V16.2531V16.2543V16.2555V16.2567V16.258V16.2594V16.2608V16.2623V16.2638V16.2653V16.2669V16.2686V16.2703V16.272V16.2738V16.2757V16.2776V16.2795V16.2815V16.2836V16.2856V16.2878V16.29V16.2922V16.2945V16.2968V16.2992V16.3016V16.3041V16.3066V16.3091V16.3117V16.3144V16.3171V16.3198V16.3226V16.3254V16.3283V16.3312V16.3341V16.3371V16.3402V16.3433V16.3464V16.3496V16.3528V16.3561V16.3594V16.3627V16.3661V16.3695V16.373V16.3765V16.3801V16.3837V16.3873V16.391V16.3947V16.3985V16.4023V16.4061V16.41V16.4139V16.4179V16.4219V16.4259V16.43V16.4341V16.4383V16.4424V16.4467V16.4509V16.4552V16.4596V16.464V16.4684V16.4728V16.4773V16.4819V16.4864V16.491V16.4957V16.5003V16.505V16.5098V16.5145V16.5194V16.5242V16.5291V16.534V16.539V16.5439V16.549V16.554V16.5591V16.5642V16.5694V16.5746V16.5798V16.585V16.5903V16.5956V16.601V16.6063V16.6117V16.6172V16.6227V16.6282V16.6337V16.6393V16.6449V16.6505V16.6561V16.6618V16.6675V16.6733V16.6791V16.6849V16.6907V16.6965V16.7024V16.7083V16.7143V16.7203V16.7263V16.7323V16.7383V16.7444V16.7505V16.7567V16.7628V16.769V16.7752V16.7815V16.7877V16.794V16.8004V16.8067V16.8131V16.8195V16.8259V16.8323V16.8388V16.8453V16.8518V16.8583V16.8649V16.8715V16.8781V16.8847V16.8914V16.898V16.9047V16.9114V16.9182V16.925V16.9317V16.9385V16.9454V16.9522V16.9591V16.966V16.9729V16.9798V16.9868V16.9937V17.0007V17.0077V17.0148V17.0218V17.0289V17.036V17.0431V17.0502V17.0573V17.0645V17.0717V17.0788V17.0861V17.0933V17.1005V17.1078V17.1151V17.1224V17.1297V17.137V17.1443V17.1517V17.1591V17.1665V17.1739V17.1813V17.1887V17.1961V17.2036V17.2111V17.2186V17.2261V17.2336V17.2411V17.2487V17.2562V17.2638V17.2714V17.279V17.2866V17.2942V17.3018V17.3094V17.3171V17.3248V17.3324V17.3401V17.3478V17.3555V17.3632V17.371V17.3787V17.3864V17.3942V17.4019V17.4097V17.4175V17.4253V17.4331V17.4409V17.4487V17.4565V17.4644V17.4722V17.48V17.4879V17.4958V17.5036V17.5115V17.5194V17.5273V17.5351V17.543V17.5509V17.5588V17.5668V17.5747V17.5826V17.5905V17.5985V17.6064V17.6143V17.6223V17.6302V17.6382V17.6461V17.6541V17.662V17.67V17.678V17.6859V17.6939V17.7019V17.7098V17.7178V17.7258V17.7325C19.9683 17.4251 19.7711 17.1413 19.4627 17.0385C19.0697 16.9075 18.645 17.1199 18.514 17.5128L18.4898 17.5854C18.3037 17.5353 18.1258 17.4806 17.9554 17.4227C18.0443 17.0488 17.8342 16.6623 17.4627 16.5385C17.1297 16.4275 16.7739 16.563 16.5934 16.846C16.5555 16.8274 16.5181 16.8089 16.4813 16.7905L16.4953 15.6587C16.955 15.6651 17.4358 15.6121 17.9307 15.4714C18.3291 15.3581 18.5602 14.9432 18.4469 14.5448C18.3336 14.1464 17.9187 13.9153 17.5203 14.0286C16.9531 14.1899 16.3976 14.1891 15.8524 14.0955C15.1392 13.9731 14.4847 13.7031 13.8445 13.4389C13.7668 13.4069 13.6894 13.3749 13.612 13.3434C13.2746 13.2055 12.9122 13.0637 12.5736 12.9879C12.2425 12.9138 11.805 12.8717 11.3901 13.0792C10.9611 13.2937 10.6837 13.6464 10.4912 13.9489C10.3692 14.1406 10.2427 14.3806 10.1364 14.5822C10.0885 14.673 10.0448 14.756 10.0074 14.8233C9.71109 15.3566 9.52757 15.5 9.2255 15.5C9.09033 15.5 8.94904 15.5029 8.80226 15.506C8.04509 15.5218 7.14192 15.5406 6.18 15.1741C5.0895 14.7587 3.85507 13.8045 2.92185 11.4715ZM21.0562 11.9718C21.056 11.9718 21.0542 11.9694 21.0514 11.9649C21.0549 11.9696 21.0563 11.9719 21.0562 11.9718ZM21.0168 11.6454C21.0185 11.6403 21.0197 11.6377 21.0199 11.6376C21.02 11.6375 21.0192 11.6401 21.0168 11.6454ZM21.0189 15.3179L21.0168 15.3149C21.0183 15.3169 21.0189 15.3179 21.0189 15.3179ZM19.9697 17.844C19.973 17.8184 19.9749 17.7928 19.9755 17.7673V17.7737V17.7816V17.7896V17.7976V17.8056V17.8136V17.8215V17.8295V17.8375V17.8445L19.9697 17.844ZM19.4983 19.3032C19.6544 19.3219 19.8144 19.3373 19.9783 19.349C19.9815 19.414 19.9868 19.4829 19.9914 19.542L19.9943 19.5785C20.0029 19.6915 20.0114 19.8128 20.0148 19.9416C20.0218 20.2076 20.0048 20.459 19.9446 20.6595C19.8875 20.8501 19.8099 20.9391 19.7242 20.9874C19.6296 21.0407 19.3931 21.1187 18.8726 21.0146C16.8856 20.6172 15.0639 20.1865 14.4074 20.0224L14.4041 20.0216C14.3684 20.013 14.2539 19.9853 14.0885 19.7146C13.8951 19.3983 13.6586 18.7866 13.4653 17.6267C13.2386 16.2665 13.0001 15.3081 12.8028 14.6351C12.8781 14.6644 12.9586 14.6967 13.0447 14.7319C13.1165 14.7613 13.1915 14.7923 13.2693 14.8246L13.2694 14.8246C13.7517 15.0245 14.3447 15.2702 14.9979 15.4423L14.9756 17.2407L14.9697 17.7106L15.3901 17.9208C15.451 17.9513 15.5147 17.9835 15.5811 18.0171L15.5815 18.0172C15.737 18.0959 15.9078 18.1823 16.0942 18.2721L16.014 18.5128C15.883 18.9058 16.0954 19.3305 16.4883 19.4615C16.8813 19.5925 17.306 19.3801 17.437 18.9872L17.4839 18.8466C17.6534 18.9039 17.8304 18.9588 18.0149 19.0101L18.014 19.0128C17.883 19.4058 18.0954 19.8305 18.4883 19.9615C18.8813 20.0925 19.306 19.8801 19.437 19.4872L19.4983 19.3032ZM11.3186 15.5517C11.3639 15.4703 11.4037 15.3962 11.4402 15.3273C11.6077 15.9354 11.7999 16.7584 11.9857 17.8733C12.1924 19.1134 12.4699 19.9427 12.8086 20.4969C13.1697 21.0878 13.6032 21.3675 14.0436 21.4776C14.7204 21.6468 16.5654 22.0828 18.5784 22.4854C19.3079 22.6313 19.9464 22.5843 20.4612 22.2939C20.9849 21.9984 21.251 21.5249 21.3814 21.0905C21.5087 20.666 21.5229 20.2299 21.5143 19.9021C21.5099 19.7341 21.4989 19.5819 21.4899 19.4644L21.4895 19.4594C21.4795 19.3275 21.4755 19.2753 21.4755 19.25V19.2476V19.2452V19.2428V19.2403V19.2377V19.2351V19.2325V19.2298V19.227V19.2243V19.2214V19.2186V19.2157V19.2127V19.2097V19.2067V19.2036V19.2005V19.1973V19.1941V19.1908V19.1875V19.1842V19.1808V19.1774V19.1739V19.1704V19.1668V19.1632V19.1596V19.1559V19.1522V19.1485V19.1447V19.1408V19.1369V19.133V19.1291V19.1251V19.121V19.117V19.1129V19.1087V19.1045V19.1003V19.096V19.0917V19.0874V19.083V19.0786V19.0742V19.0697V19.0652V19.0606V19.056V19.0514V19.0467V19.042V19.0373V19.0325V19.0277V19.0228V19.0179V19.013V19.0081V19.0031V18.9981V18.993V18.988V18.9828V18.9777V18.9725V18.9673V18.9621V18.9568V18.9515V18.9461V18.9407V18.9353V18.9299V18.9244V18.9189V18.9134V18.9078V18.9022V18.8966V18.891V18.8853V18.8796V18.8738V18.8681V18.8623V18.8564V18.8506V18.8447V18.8388V18.8328V18.8269V18.8209V18.8149V18.8088V18.8027V18.7966V18.7905V18.7843V18.7781V18.7719V18.7657V18.7594V18.7531V18.7468V18.7405V18.7341V18.7277V18.7213V18.7149V18.7084V18.7019V18.6954V18.6889V18.6823V18.6757V18.6691V18.6625V18.6558V18.6492V18.6425V18.6358V18.629V18.6223V18.6155V18.6087V18.6019V18.595V18.5881V18.5813V18.5743V18.5674V18.5605V18.5535V18.5465V18.5395V18.5325V18.5254V18.5184V18.5113V18.5042V18.4971V18.4899V18.4828V18.4756V18.4684V18.4612V18.454V18.4467V18.4395V18.4322V18.4249V18.4176V18.4103V18.4029V18.3956V18.3882V18.3808V18.3734V18.366V18.3586V18.3511V18.3437V18.3362V18.3287V18.3212V18.3137V18.3062V18.2986V18.2911V18.2835V18.2759V18.2683V18.2607V18.2531V18.2455V18.2379V18.2302V18.2225V18.2149V18.2072V18.1995V18.1918V18.1841V18.1764V18.1686V18.1609V18.1531V18.1454V18.1376V18.1298V18.122V18.1142V18.1064V18.0986V18.0908V18.083V18.0751V18.0673V18.0594V18.0516V18.0437V18.0358V18.028V18.0201V18.0122V18.0043V17.9964V17.9885V17.9806V17.9726V17.9647V17.9568V17.9489V17.9409V17.933V17.9251V17.9171V17.9092V17.9012V17.8932V17.8853V17.8773V17.8694V17.8614V17.8534V17.8455V17.8375V17.8295V17.8215V17.8136V17.8056V17.7976V17.7896V17.7816V17.7737V17.7657V17.7577V17.7497V17.7417V17.7338V17.7258V17.7178V17.7098V17.7019V17.6939V17.6859V17.678V17.67V17.662V17.6541V17.6461V17.6382V17.6302V17.6223V17.6143V17.6064V17.5985V17.5905V17.5826V17.5747V17.5668V17.5588V17.5509V17.543V17.5351V17.5273V17.5194V17.5115V17.5036V17.4958V17.4879V17.48V17.4722V17.4644V17.4565V17.4487V17.4409V17.4331V17.4253V17.4175V17.4097V17.4019V17.3942V17.3864V17.3787V17.371V17.3632V17.3555V17.3478V17.3401V17.3324V17.3248V17.3171V17.3094V17.3018V17.2942V17.2866V17.279V17.2714V17.2638V17.2562V17.2487V17.2411V17.2336V17.2261V17.2186V17.2111V17.2036V17.1961V17.1887V17.1813V17.1739V17.1665V17.1591V17.1517V17.1443V17.137V17.1297V17.1224V17.1151V17.1078V17.1005V17.0933V17.0861V17.0788V17.0717V17.0645V17.0573V17.0502V17.0431V17.036V17.0289V17.0218V17.0148V17.0077V17.0007V16.9937V16.9868V16.9798V16.9729V16.966V16.9591V16.9522V16.9454V16.9385V16.9317V16.925V16.9182V16.9114V16.9047V16.898V16.8914V16.8847V16.8781V16.8715V16.8649V16.8583V16.8518V16.8453V16.8388V16.8323V16.8259V16.8195V16.8131V16.8067V16.8004V16.794V16.7877V16.7815V16.7752V16.769V16.7628V16.7567V16.7505V16.7444V16.7383V16.7323V16.7263V16.7203V16.7143V16.7083V16.7024V16.6965V16.6907V16.6849V16.6791V16.6733V16.6675V16.6618V16.6561V16.6505V16.6449V16.6393V16.6337V16.6282V16.6227V16.6172V16.6117V16.6063V16.601V16.5981C21.5164 16.5716 21.5617 16.5419 21.6081 16.5102C21.7433 16.4178 21.9179 16.2886 22.0726 16.1224C22.2273 15.9562 22.3973 15.7154 22.4609 15.3971C22.5634 14.8849 22.3002 14.4925 22.1 14.2751C21.8958 14.0533 21.6336 13.8748 21.4321 13.746C21.3801 13.7128 21.3331 13.6833 21.29 13.6566C21.3712 13.5712 21.4587 13.4787 21.5466 13.3834C21.7433 13.1706 21.961 12.9243 22.1312 12.6874C22.2161 12.5692 22.3027 12.4348 22.3695 12.2938C22.4296 12.167 22.5116 11.9578 22.4994 11.7128C22.4783 11.2872 22.2028 10.9952 22.096 10.8819L22.0948 10.8807C22.0231 10.8047 21.972 10.7541 21.9307 10.7134C21.872 10.6555 21.8335 10.6175 21.7848 10.5543C21.757 10.5183 21.7455 10.4962 21.7407 10.4851C21.7372 10.4767 21.7371 10.474 21.737 10.4713L21.737 10.4712V10.4712C21.7369 10.4693 21.7325 10.3788 21.8744 10.166L21.8843 10.1512L21.8935 10.1359C22.8834 8.48603 22.289 6.12415 20.6725 4.31308C19.0084 2.44874 16.1647 1 12.2255 1C8.317 1 5.10595 2.30318 3.12376 4.35373C1.12496 6.42146 0.409614 9.22973 1.52914 12.0285C2.59593 14.6955 4.1115 15.9913 5.646 16.5759C6.90911 17.057 8.14203 17.0254 8.88999 17.0061C9.01641 17.0029 9.12898 17 9.2255 17C10.4234 17 10.9899 16.1434 11.3186 15.5517ZM16.9104 12.9089C17.6548 13.2724 18.6512 12.7624 19.1358 11.7698C19.6205 10.7773 19.4099 9.67795 18.6655 9.31447C17.921 8.95098 16.9247 9.46094 16.44 10.4535C15.9554 11.4461 16.166 12.5454 16.9104 12.9089Z"/>
</svg>
