<svg xmlns="http://www.w3.org/2000/svg" width="24" height="24" fill="currentColor" viewBox="0 0 24 24">
  <path fill-rule="evenodd" d="M24 12c0 6.627-5.373 12-12 12S0 18.627 0 12 5.373 0 12 0s12 5.373 12 12zM13.075 8.566l-8.08 3.33c-1.423.555-.59 1.075-.59 1.075s1.213.416 2.254.728c1.04.313 1.595-.034 1.595-.034l4.89-3.295c1.735-1.18 1.318-.208.902.208-.901.902-2.393 2.324-3.641 3.468-.555.486-.278.902-.035 1.11.706.597 2.368 1.683 3.123 2.177.21.137.35.228.38.25.173.14 1.144.764 1.734.625.59-.139.659-.936.659-.936l.867-5.445c.077-.51.154-1.01.226-1.477.187-1.212.338-2.196.363-2.547.105-1.179-1.144-.693-1.144-.693s-2.705 1.11-3.503 1.456z" clip-rule="evenodd"/>
</svg>
