<svg xmlns="http://www.w3.org/2000/svg" width="25" height="24" fill="currentColor" viewBox="0 0 25 24">
  <path fill-rule="evenodd" d="M11.303 21.746a.418.418 0 00.385.254c1.098 0 1.95-.958 1.823-2.049l-.37-3.16A2.5 2.5 0 0115.622 14h4.4a2 2 0 001.923-2.55l-2.286-8A2 2 0 0017.737 2H7v10.617c.404.31.73.722.938 1.21l3.365 7.919zM5 14h.177a1 1 0 01.92.609l3.366 7.919A2.418 2.418 0 0011.688 24a3.835 3.835 0 003.81-4.282l-.371-3.16a.5.5 0 01.496-.558h4.4c2.657 0 4.576-2.544 3.846-5.099l-2.286-8A4 4 0 0017.737 0H4a4 4 0 00-4 4v6a4 4 0 004 4h1zm0-2V2H4a2 2 0 00-2 2v6a2 2 0 002 2h1z" clip-rule="evenodd"/>
</svg>
