<svg xmlns="http://www.w3.org/2000/svg" width="25" height="24" fill="currentColor" viewBox="0 0 25 24">
  <path fill-rule="evenodd" d="M11.303 2.254A.418.418 0 0111.688 2c1.098 0 1.95.958 1.823 2.049l-.37 3.16A2.5 2.5 0 0015.622 10h4.4a2 2 0 011.923 2.55l-2.286 8A2 2 0 0117.737 22H7V11.383c.404-.31.73-.722.938-1.21l3.365-7.919zM5 10h.177a1 1 0 00.92-.609l3.366-7.919A2.418 2.418 0 0111.688 0a3.835 3.835 0 013.81 4.282l-.371 3.16a.5.5 0 00.496.558h4.4c2.657 0 4.576 2.544 3.846 5.099l-2.286 8A4 4 0 0117.737 24H4a4 4 0 01-4-4v-6a4 4 0 014-4h1zm0 2v10H4a2 2 0 01-2-2v-6a2 2 0 012-2h1z" clip-rule="evenodd"/>
</svg>
