<svg xmlns="http://www.w3.org/2000/svg" width="16" height="16" fill="currentColor" viewBox="0 0 16 16">
  <path d="M14.2 4.448c0 .563-.179 1.012-.538 1.345-.36.332-.798.5-1.315.5-.31 0-.616-.04-.917-.117-.3-.078-.56-.155-.781-.233-.103.072-.255.227-.455.467-.202.24-.427.53-.68.874.23.991.419 1.695.562 2.113.142.416.277.84.405 1.267.11.34.273.607.485.8.215.192.55.287 1.011.287.168 0 .379-.031.63-.097.254-.064.462-.13.623-.194l-.215.878c-.641.275-1.2.473-1.678.595a5.116 5.116 0 01-1.28.187c-.273 0-.54-.027-.807-.078a2.142 2.142 0 01-.726-.282 2.194 2.194 0 01-.607-.532c-.164-.215-.306-.513-.422-.894a7.603 7.603 0 01-.215-.816 13.493 13.493 0 00-.197-.807c-.187.28-.323.486-.407.622a29.18 29.18 0 01-.368.574c-.511.783-.956 1.34-1.331 1.675-.376.333-.827.499-1.35.499a1.41 1.41 0 01-1.01-.398c-.278-.265-.417-.611-.417-1.038 0-.577.18-1.03.538-1.366.361-.332.8-.5 1.32-.5.31 0 .608.038.895.113.286.074.554.156.806.247.097-.079.25-.23.454-.458.204-.225.425-.507.665-.844-.217-.866-.391-1.52-.528-1.96-.139-.44-.278-.877-.42-1.31-.117-.347-.285-.615-.506-.803-.22-.19-.55-.285-.99-.285-.196 0-.412.034-.652.102a9.51 9.51 0 00-.6.189l.213-.878a9.997 9.997 0 011.653-.588c.522-.131.957-.195 1.306-.195.318 0 .59.024.816.068.225.045.465.142.716.291.232.142.435.322.606.538.172.217.314.513.422.89.08.259.152.527.218.804l.167.719.422-.641c.145-.22.27-.415.373-.583.5-.783.945-1.345 1.34-1.685.394-.342.84-.51 1.338-.51.407 0 .747.134 1.02.403.273.27.408.618.408 1.045z"/>
</svg>
