<svg xmlns="http://www.w3.org/2000/svg" width="24" height="24" fill="currentColor" viewBox="0 0 24 24">
  <path fill-rule="evenodd" d="M5.95 15.758H3.89L2.347 9.692c-.073-.279-.229-.525-.458-.642A6.573 6.573 0 000 8.408v-.233h3.318c.458 0 .801.35.859.758l.801 4.376 2.059-5.134h2.002L5.95 15.758zm4.234 0H8.24l1.602-7.583h1.945l-1.602 7.583zm4.119-5.482c.057-.409.4-.642.801-.642a3.534 3.534 0 011.888.35l.344-1.633A4.801 4.801 0 0015.562 8C13.674 8 12.3 9.05 12.3 10.508c0 1.11.973 1.692 1.66 2.042.743.35 1.03.584.972.933 0 .525-.572.759-1.143.759a4.789 4.789 0 01-2.003-.467l-.343 1.633c.687.292 1.43.409 2.117.409 2.117.057 3.432-.992 3.432-2.567 0-1.983-2.69-2.1-2.69-2.974zm9.497 5.482l-1.545-7.583h-1.659a.862.862 0 00-.801.583l-2.86 7h2.002l.4-1.108h2.46l.23 1.108H23.8zm-2.917-5.54l.571 2.857h-1.602l1.03-2.858z" clip-rule="evenodd"/>
</svg>
