<svg xmlns="http://www.w3.org/2000/svg" width="24" height="25" fill="currentColor" viewBox="0 0 24 25">
  <path fill-rule="evenodd" d="M2.857 9.302L4 7.22l1.143 2.082L6.285 7.22c.14.347.215.72.215 1.094v.704A2.495 2.495 0 014 11.5a2.495 2.495 0 01-2.5-2.481v-.704c0-.375.075-.747.214-1.094L2.857 9.3zM1.31 5.167a.572.572 0 01.808 0c.3.299.537.65.74 1.018a4.41 4.41 0 01.738-1.018.57.57 0 01.808 0c.3.299.536.65.739 1.018a4.41 4.41 0 01.739-1.018.57.57 0 01.808 0A4.472 4.472 0 018 8.315v.704c0 1.937-1.398 3.556-3.242 3.91.046 1.177.286 1.805.647 2.166.403.402 1.137.655 2.595.655h3.25V7.93C9.402 7.58 8 5.959 8 4.019v-.704C8 2.143 8.478.995 9.31.167a.572.572 0 01.808 0c.3.299.537.65.74 1.018.201-.369.437-.72.738-1.018a.57.57 0 01.808 0c.3.299.537.65.739 1.018a4.41 4.41 0 01.739-1.018.57.57 0 01.808 0A4.472 4.472 0 0116 3.315v.704c0 1.94-1.402 3.56-3.25 3.91v7.821H16c1.458 0 2.192-.253 2.595-.655.36-.361.601-.989.647-2.167C17.398 12.575 16 10.956 16 9.018v-.703c0-1.172.478-2.32 1.31-3.148a.572.572 0 01.808 0c.3.299.537.65.74 1.018.201-.369.437-.72.738-1.018a.57.57 0 01.808 0c.3.299.537.65.739 1.018.202-.369.438-.72.739-1.018a.57.57 0 01.808 0A4.472 4.472 0 0124 8.315v.704c0 1.942-1.405 3.564-3.257 3.912-.045 1.347-.32 2.457-1.088 3.224-.847.848-2.114 1.095-3.655 1.095h-3.25v3.94l1.72-1.72a.75.75 0 111.06 1.06l-3 3-.53.53-.53-.53-3-3a.75.75 0 111.06-1.06l1.72 1.72v-3.94H8c-1.542 0-2.808-.247-3.655-1.095-.767-.767-1.043-1.877-1.088-3.224C1.405 12.584 0 10.961 0 9.02v-.704c0-1.172.478-2.32 1.31-3.148zm9.547-.865L12 2.22l1.143 2.082 1.143-2.081c.14.347.214.72.214 1.094v.704A2.495 2.495 0 0112 6.5a2.495 2.495 0 01-2.5-2.481v-.704c0-.375.075-.747.214-1.094l1.143 2.08zM20 7.22l-1.143 2.082-1.142-2.081c-.14.347-.215.72-.215 1.094v.704A2.495 2.495 0 0020 11.5c1.384 0 2.5-1.121 2.5-2.481v-.704c0-.375-.075-.747-.215-1.094L21.143 9.3 20 7.222z" clip-rule="evenodd"/>
</svg>
