<svg xmlns="http://www.w3.org/2000/svg" width="24" height="24" fill="currentColor" viewBox="0 0 24 24">
  <path fill-rule="evenodd" clip-rule="evenodd" d="M11 3C6.58172 3 3 6.58172 3 11C3 15.4183 6.58172 19 11 19C15.4183 19 19 15.4183 19 11C19 6.58172 15.4183 3 11 3ZM1 11C1 5.47715 5.47715 1 11 1C16.5228 1 21 5.47715 21 11C21 13.4013 20.1536 15.6049 18.7429 17.3287L21.7071 20.2929C22.0976 20.6834 22.0976 21.3166 21.7071 21.7071C21.3166 22.0976 20.6834 22.0976 20.2929 21.7071L17.3287 18.7429C15.6049 20.1536 13.4013 21 11 21C5.47715 21 1 16.5228 1 11ZM15 12C15.5523 12 16 11.5523 16 11C16 10.4477 15.5523 10 15 10H7C6.44771 10 6 10.4477 6 11C6 11.5523 6.44771 12 7 12H15Z"/>
</svg>
