<svg width="140" height="140" viewBox="0 0 140 140" fill="none" xmlns="http://www.w3.org/2000/svg">
<path d="M69.6961 121C98.0305 121 121 98.0304 121 69.696C121 41.3616 98.0305 18.392 69.6961 18.392C41.3617 18.392 18.3921 41.3616 18.3921 69.696C18.3921 98.0304 41.3617 121 69.6961 121Z" fill="#BEFBFF"/>
<path d="M69.6961 121C98.0305 121 121 98.0304 121 69.696C121 41.3616 98.0305 18.392 69.6961 18.392C41.3617 18.392 18.3921 41.3616 18.3921 69.696C18.3921 98.0304 41.3617 121 69.6961 121Z" stroke="#5D9CB0" stroke-width="1.73681" stroke-miterlimit="10"/>
<path d="M42.1076 32.0982C52.7456 25.1068 85.2885 20.1776 93.9649 27.672C102.641 35.1664 123.44 54.0785 115.819 73.242C108.174 92.4056 97.1336 116.222 72.9151 115.442C48.6966 114.662 28.678 101.459 24.4781 81.0131C20.2782 60.5669 30.2624 39.8441 42.1076 32.0982Z" fill="#7CDFF5"/>
<path d="M52.2427 105.307C54.5061 107.42 61.07 109.809 67.8854 105.735C70.526 104.15 72.9403 99.6485 69.9727 94.3924C68.1369 91.0979 63.2831 86.4201 57.8509 87.4512C55.7635 87.8536 50.7086 88.7087 49.1745 95.2223C48.42 98.4665 49.7278 102.968 52.2427 105.307Z" fill="#B181BD" stroke="#814B8A" stroke-width="1.04209" stroke-miterlimit="10" stroke-linecap="round" stroke-linejoin="round"/>
<path d="M56.0653 89.4632C59.1334 88.0297 66.0243 91.0727 67.7847 93.9648C69.696 97.0833 70.6265 102.692 64.465 105.735C59.5358 108.174 53.1983 106.414 51.4881 101.409C49.8032 96.4043 51.966 91.3745 56.0653 89.4632Z" fill="#CC94D9"/>
<path d="M61.925 99.2713C63.8112 99.7994 65.0435 98.6425 64.7668 97.1587C64.4902 95.6749 63.7106 94.7696 61.8747 95.2977C60.064 95.8258 60.1646 98.7934 61.925 99.2713Z" fill="#6C4096" stroke="#5E2D68" stroke-width="0.694725" stroke-miterlimit="10" stroke-linecap="round" stroke-linejoin="round"/>
<path opacity="0.5" d="M61.749 99.0198C63.1574 99.397 64.0879 98.542 63.8867 97.4354C63.6604 96.3288 63.1071 95.6498 61.7239 96.0522C60.3407 96.4043 60.4413 98.6174 61.749 99.0198Z" fill="#9862C2"/>
<path d="M49.6774 78.2215C50.5576 75.254 49.7528 68.3128 43.0381 64.0626C40.4226 62.4028 35.3424 62.2771 31.9725 67.2817C29.86 70.4002 27.848 76.8384 31.218 81.2394C32.5006 82.9496 35.5436 87.0489 42.0572 85.4896C45.3015 84.71 48.7217 81.5161 49.6774 78.2215Z" fill="#B181BD" stroke="#814B8A" stroke-width="1.04209" stroke-miterlimit="10" stroke-linecap="round" stroke-linejoin="round"/>
<path d="M33.8084 81.9436C31.1426 79.8311 30.7905 72.3367 32.5761 69.4445C34.5126 66.3512 39.0897 63.0064 44.5722 67.1057C48.9733 70.4253 50.2307 76.8635 46.5338 80.6358C42.8369 84.4082 37.3795 84.71 33.8084 81.9436Z" fill="#CC94D9"/>
<path d="M39.9449 72.2612C39.5676 70.3499 37.9832 69.7463 36.7761 70.6769C35.5689 71.5822 35.1162 72.6888 36.424 74.0971C37.7066 75.5055 40.3221 74.072 39.9449 72.2612Z" fill="#6C4096" stroke="#5E2D68" stroke-width="0.694725" stroke-miterlimit="10" stroke-linecap="round" stroke-linejoin="round"/>
<path opacity="0.5" d="M39.7939 72.5379C39.5172 71.1044 38.3101 70.6769 37.4047 71.3307C36.4994 72.0349 36.1724 72.8397 37.1281 73.8708C38.0838 74.9774 40.0454 73.8959 39.7939 72.5379Z" fill="#9862C2"/>
<path d="M54.7072 34.8395C51.639 35.2419 45.6033 38.7627 44.3961 46.6092C43.9183 49.6523 45.8548 54.3803 51.7899 55.4365C55.512 56.1156 62.2016 55.3862 64.8674 50.5325C65.8985 48.6714 68.4386 44.2452 64.4148 38.8885C62.428 36.2478 58.1275 34.3868 54.7072 34.8395Z" fill="#B181BD" stroke="#814B8A" stroke-width="1.04209" stroke-miterlimit="10" stroke-linecap="round" stroke-linejoin="round"/>
<path d="M64.4903 47.8918C63.6353 51.1863 56.8953 54.5312 53.5505 54.0533C49.929 53.5252 45.025 50.6834 46.6094 43.9937C47.8668 38.637 53.2739 34.8898 58.2031 36.7508C63.1323 38.6118 65.622 43.5159 64.4903 47.8918Z" fill="#CC94D9"/>
<path d="M53.1731 46.1565C51.5635 47.2631 51.6641 48.9481 52.997 49.7026C54.3048 50.457 55.4868 50.4067 56.2664 48.6714C57.046 46.911 54.682 45.1003 53.1731 46.1565Z" fill="#6C4096" stroke="#5E2D68" stroke-width="0.694725" stroke-miterlimit="10" stroke-linecap="round" stroke-linejoin="round"/>
<path opacity="0.5" d="M53.5002 46.1817C52.3182 47.0116 52.3685 48.2942 53.3493 48.8475C54.3553 49.4008 55.2104 49.3756 55.7888 48.0679C56.3924 46.7601 54.6319 45.4272 53.5002 46.1817Z" fill="#9862C2"/>
<path d="M72.0347 48.1433C73.77 50.7085 79.6298 54.506 87.1996 52.0665C90.1421 51.1109 93.4869 47.2631 91.7767 41.4788C90.7205 37.8573 87.0487 32.1988 81.5159 31.9976C79.3783 31.897 74.273 31.6204 71.3306 37.631C69.8216 40.6237 70.0983 45.2763 72.0347 48.1433Z" fill="#B181BD" stroke="#814B8A" stroke-width="1.04209" stroke-miterlimit="10" stroke-linecap="round" stroke-linejoin="round"/>
<path d="M79.2778 33.5569C82.5975 32.8527 88.6081 37.3544 89.6895 40.5734C90.8464 44.044 90.4943 49.7025 83.8298 51.2869C78.473 52.5695 72.6888 49.4259 72.1606 44.1698C71.6325 38.9136 74.8767 34.5125 79.2778 33.5569Z" fill="#CC94D9"/>
<path d="M82.8238 44.4212C84.534 45.3517 86.0178 44.4967 86.0681 42.9877C86.1435 41.4788 85.5902 40.4477 83.6789 40.5483C81.7676 40.6489 81.1892 43.5662 82.8238 44.4212Z" fill="#6C4096" stroke="#5E2D68" stroke-width="0.694725" stroke-miterlimit="10" stroke-linecap="round" stroke-linejoin="round"/>
<path opacity="0.5" d="M82.698 44.1445C83.9806 44.8236 85.0871 44.1948 85.1374 43.0883C85.1877 41.9566 84.7853 41.177 83.3518 41.2524C81.9183 41.2776 81.5159 43.4655 82.698 44.1445Z" fill="#9862C2"/>
<path d="M102.817 68.1367C100.604 64.3392 103.22 54.7323 108.275 54.7072C113.33 54.682 115.845 61.0447 113.984 65.7727C112.123 70.5008 105.005 71.8588 102.817 68.1367Z" fill="#F3E59D" stroke="#DDB835" stroke-width="0.694725" stroke-miterlimit="10"/>
<path d="M107.621 55.7131C104.05 56.3167 101.862 64.8171 104.704 67.8601C107.545 70.9032 113.33 66.9296 113.657 64.2387C113.984 61.5477 112.097 54.9335 107.621 55.7131Z" fill="#FCF3C5"/>
<path d="M107.218 57.0712C109.532 55.3611 113.657 58.9574 111.821 61.4974C110.01 64.0375 107.545 62.604 106.891 61.422C106.238 60.24 105.785 58.1275 107.218 57.0712Z" fill="#FFFFEB"/>
<path d="M77.2407 69.0672C79.6299 65.7224 83.1508 69.369 84.5843 76.0335C86.0178 82.698 88.3818 90.2427 84.4082 91.5002C80.4095 92.7325 74.2732 73.1917 77.2407 69.0672Z" fill="#4D538A"/>
<path d="M78.7497 72.1605C80.2586 71.2049 84.534 87.426 82.8993 88.5326C81.2646 89.6391 76.0085 73.8958 78.7497 72.1605Z" fill="#696BA3"/>
<path d="M89.2619 65.2697C90.7205 62.277 92.9588 64.0877 93.4366 66.3008C93.9145 68.514 94.3671 82.3711 91.9277 82.5974C89.4882 82.7735 87.5517 68.7152 89.2619 65.2697Z" fill="#4D538A"/>
<path d="M90.5949 65.2194C91.5254 64.9931 92.9337 78.8502 91.2236 79.2777C89.7901 79.6298 88.8093 65.6218 90.5949 65.2194Z" fill="#696BA3"/>
</svg>
