<svg width="140" height="140" viewBox="0 0 140 140" fill="none" xmlns="http://www.w3.org/2000/svg">
<g clip-path="url(#clip0_4832_341878)">
<path d="M0.354286 75.8259C-0.481014 59.8883 6.80281 39.1061 29.3225 28.7817C51.8422 18.4574 60.3289 14.2809 83.3498 23.5026C106.371 32.7244 125.816 23.9036 134.27 46.4901C142.723 69.0766 146.098 104.594 113.287 113.147C82.1469 121.266 71.0876 114.484 52.6441 120.097C32.5635 126.211 2.02489 107.233 0.354286 75.8259Z" fill="#BEFBFF"/>
<path d="M0.354293 75.8259C0.0869963 59.8883 6.80281 39.1061 29.3225 28.7817C51.8422 18.4574 60.3289 14.2809 83.3498 23.5026C106.371 32.7244 125.816 23.9036 134.27 46.4901C142.723 69.0767 146.064 104.46 113.287 113.147C80.5098 121.834 74.9634 113.08 52.6441 120.097C34.3009 125.877 0.888885 108.436 0.354293 75.8259Z" stroke="#5D9CB0" stroke-width="1.14425" stroke-miterlimit="10"/>
<path d="M11.6476 58.2177C18.2965 43.3494 43.5895 17.856 64.1713 26.3092C87.6933 35.9987 116.227 32.7578 124.647 41.7456C133.601 51.3014 144.16 97.5103 116.327 104.594C88.4952 111.71 78.3045 101.286 56.3528 110.006C39.1456 116.856 20.034 103.925 13.953 94.2359C7.83858 84.5798 6.43528 69.8785 11.6476 58.2177Z" fill="#7CDFF5"/>
<path d="M32.931 94.1691C35.938 96.9757 44.6586 100.15 53.7132 94.7371C57.2215 92.6322 60.429 86.6514 56.4864 79.6683C54.0474 75.2913 47.5988 69.0767 40.3818 70.4466C37.6086 70.9812 30.8928 72.1172 28.8547 80.7709C27.8523 85.0811 29.5898 91.0618 32.931 94.1691Z" fill="#B181BD" stroke="#814B8A" stroke-width="1.14425" stroke-miterlimit="10" stroke-linecap="round" stroke-linejoin="round"/>
<path d="M38.0096 73.1195C42.0859 71.215 51.2408 75.2578 53.5796 79.1002C56.1189 83.2433 57.3552 90.6942 49.1692 94.737C42.6205 97.978 34.2007 95.6392 31.9286 88.9902C29.69 82.3412 32.5635 75.6588 38.0096 73.1195Z" fill="#CC94D9"/>
<path d="M45.7948 86.1502C48.3007 86.8519 49.9379 85.3149 49.5704 83.3436C49.2029 81.3723 48.1671 80.1695 45.728 80.8711C43.3223 81.5728 43.456 85.5154 45.7948 86.1502Z" fill="#6C4096" stroke="#5E2D68" stroke-width="0.762832" stroke-miterlimit="10" stroke-linecap="round" stroke-linejoin="round"/>
<path opacity="0.5" d="M45.5607 85.8161C47.4318 86.3172 48.6681 85.1812 48.4008 83.7111C48.1 82.241 47.365 81.3389 45.5273 81.8735C43.6897 82.3412 43.8233 85.2815 45.5607 85.8161Z" fill="#9862C2"/>
<path d="M40.0144 41.5118C42.2196 34.8962 52.9449 34.1611 56.0522 38.8388C59.1595 43.5165 58.2908 52.8718 49.6036 53.1057C40.9165 53.3062 38.4774 46.1894 40.0144 41.5118Z" fill="#AD371A"/>
<path d="M44.2262 41.5108C45.3995 40.2084 50.1692 38.6304 52.0057 39.5071C53.8422 40.3837 55.5767 44.9672 52.975 47.5219C50.3733 50.0767 45.7566 49.2752 44.3537 47.7223C42.9508 46.1694 42.8233 43.0887 44.2262 41.5108Z" fill="#FF683E"/>
<path d="M87.2589 41.1442C89.1634 35.7315 98.4854 35.0967 101.192 38.9391C103.898 42.7814 103.13 50.4662 95.5785 50.6333C88.0608 50.8337 85.9225 44.9866 87.2589 41.1442Z" fill="#AD371A"/>
<path d="M90.3099 42.4058C90.8934 40.2295 94.9524 39.3491 96.5252 39.7159C98.0981 40.0828 100.965 44.3132 98.0474 46.6852C95.13 49.0571 89.0922 46.8074 90.3099 42.4058Z" fill="#FF683E"/>
<path d="M107.473 58.5185C109.111 53.5735 117.096 53.0389 119.435 56.5138C121.774 59.9886 121.105 66.9718 114.624 67.1388C108.142 67.3059 106.337 62.0268 107.473 58.5185Z" fill="#AD371A"/>
<path d="M116.195 57.4661C117.794 58.2731 119.16 62.1522 116.453 63.9225C113.745 65.6928 109.285 64.7816 109.62 61.4493C109.955 58.1169 114.261 56.4768 116.195 57.4661Z" fill="#FF683E"/>
<path d="M89.7654 92.7658C91.4026 87.8208 99.388 87.2863 101.727 90.7611C104.066 94.2359 103.397 101.219 96.9155 101.386C90.4336 101.553 88.6294 96.2741 89.7654 92.7658Z" fill="#AD371A"/>
<path d="M98.3503 91.7702C99.8763 92.5379 101.181 96.2277 98.5965 97.9117C96.0122 99.5957 91.7542 98.7289 92.0742 95.5591C92.3941 92.3893 96.5044 90.8539 98.3503 91.7702Z" fill="#FF683E"/>
<path d="M73.2261 54.1749C77.5363 50.2991 86.2234 54.2751 86.8582 58.9528C87.4931 63.6639 83.1829 70.079 76.2666 66.6042C69.3503 63.0959 70.1857 56.9147 73.2261 54.1749Z" fill="#AD371A"/>
<path d="M75.6241 55.8687C77.7076 54.3119 82.8262 55.9984 83.4692 58.7229C84.1123 61.4474 83.212 64.0421 80.254 64.3794C77.2961 64.7168 75.2898 63.2118 74.5181 61.655C73.7465 60.0981 74.1323 56.9585 75.6241 55.8687Z" fill="#FF683E"/>
<path d="M109.044 78.5657C110.681 73.6207 118.666 73.0861 121.005 76.561C123.344 80.0358 122.676 87.0189 116.194 87.186C109.712 87.3531 107.874 82.074 109.044 78.5657Z" fill="#AD371A"/>
<path d="M112.066 79.0608C112.559 77.4989 116.733 75.9118 118.807 78.0531C120.882 80.1945 119.793 83.5954 117.304 84.1748C114.815 84.7543 111.029 82.3358 112.066 79.0608Z" fill="#FF683E"/>
</g>
<defs>
<clipPath id="clip0_4832_341878">
<rect width="140" height="140" fill="white"/>
</clipPath>
</defs>
</svg>
