<svg width="140" height="140" viewBox="0 0 140 140" fill="none" xmlns="http://www.w3.org/2000/svg">
<path d="M31.8778 34.69C42.9497 24.7484 68.8036 17.4734 86.0202 26.3136C103.237 35.1537 120.482 48.4575 119.99 67.645C119.497 86.8325 120.482 98.6581 113.584 106.542C106.686 114.425 72.2527 124.251 48.1379 112.947C24.0231 101.643 7.76294 56.3412 31.8778 34.69Z" fill="#BEFBFF"/>
<path d="M48.6309 30.2554C60.6594 25.3571 88.9769 31.2409 96.8606 45.0083C104.744 58.7758 123.439 85.847 104.744 100.136C86.0495 114.425 50.6019 111.962 38.8053 98.658C27.0088 85.3543 17.1251 43.0664 48.6309 30.2554Z" fill="#7CDFF5"/>
<path d="M74.5136 93.4699C77.8468 95.3539 86.3971 96.3394 93.4113 89.4701C96.1358 86.8036 97.7299 80.7169 92.6577 75.2679C89.4984 71.8477 82.3393 67.6161 76.1077 70.4275C73.702 71.4999 67.9052 73.9926 67.9342 82.2531C67.9342 86.3688 70.8036 91.3831 74.5136 93.4699Z" fill="#B181BD" stroke="#814B8A" stroke-width="1.0842" stroke-miterlimit="10" stroke-linecap="round" stroke-linejoin="round"/>
<path d="M74.5132 73.3549C77.7884 70.7463 86.9185 72.4274 89.8748 75.3838C93.0631 78.572 95.7876 85.0355 89.2952 90.4555C84.078 94.8032 75.9624 94.5133 72.4843 89.0063C69.0062 83.4993 70.1656 76.833 74.5132 73.3549Z" fill="#CC94D9"/>
<path d="M31.8778 34.69C42.9497 24.7484 68.8036 17.4734 86.0202 26.3136C103.237 35.1537 120.482 48.4575 119.99 67.645C119.497 86.8325 120.482 98.6581 113.584 106.542C106.686 114.425 72.2527 124.251 48.1379 112.947C24.0231 101.643 7.76294 56.3412 31.8778 34.69Z" stroke="#5D9CB0" stroke-width="1.0842" stroke-miterlimit="10"/>
</svg>
