<svg width="752" height="4634" viewBox="0 0 752 4634" fill="none" xmlns="http://www.w3.org/2000/svg">
<path d="M699.028 730.495C698.925 730.907 698.307 735.127 697.38 740.892C694.292 760.966 690.997 775.482 690.486 777.746C672.161 859.586 613.891 1282.38 613.891 1282.38C576.52 1553.12 428.169 2155.75 445.155 2201.15C452.237 2219.44 461.17 2236.97 471.816 2253.44C471.953 2253.71 472.126 2253.95 472.331 2254.17C472.331 2254.27 472.434 2254.37 472.537 2254.47C474.032 2256.85 475.646 2259.16 477.376 2261.37C477.503 2261.49 477.608 2261.63 477.685 2261.78C482.066 2267.99 485.824 2274.61 488.906 2281.55C490.101 2284.36 491.099 2287.25 491.892 2290.2C496.113 2306.15 492.921 2317.99 486.642 2343.93C472.434 2402.71 474.081 2404.67 469.449 2408.68C469.243 2408.89 469.037 2408.99 468.831 2409.2C457.506 2418.16 437.019 2416.1 412.003 2405.9H411.9C406.443 2403.64 400.884 2401.07 395.118 2397.98C386.538 2393.64 378.188 2388.87 370.101 2383.67H369.998V2383.57C362.895 2379.14 355.688 2374.2 348.379 2368.85C336.923 2377.84 324.573 2385.64 311.523 2392.11H311.42C297.613 2399.15 282.653 2403.65 267.254 2405.39C252.429 2406.83 241.516 2404.88 211.352 2408.58C193.232 2410.74 189.938 2412.39 184.791 2409.61C181.867 2407.66 179.367 2405.15 177.439 2402.21C175.51 2399.27 174.194 2395.98 173.569 2392.52V2392.32C168.216 2371.93 173.054 2340.23 178.408 2320.67C178.713 2319.64 179.025 2318.71 179.334 2317.68C180.923 2312.06 182.813 2306.53 184.997 2301.11C185.511 2299.77 186.129 2298.43 186.644 2297.09C186.82 2296.85 186.927 2296.57 186.954 2296.27C187.88 2294.11 188.806 2292.15 189.527 2290.71C189.797 2290.3 190.006 2289.85 190.145 2289.37C190.517 2288.75 190.828 2288.1 191.071 2287.42C191.225 2287.19 191.363 2286.95 191.483 2286.7C191.998 2285.67 192.41 2284.74 192.924 2283.71C201.16 2265.08 232.251 2181.9 290.417 2025.84C412.413 1699.09 447.517 1505.56 447.517 1505.56C486.74 1289.58 514.743 920.22 507.845 830.454C505.683 801.835 495.388 742.54 524.214 705.171C530.719 698.206 534.674 689.244 535.436 679.744C535.455 673.944 534.078 668.224 531.421 663.067C531.421 662.964 531.318 662.861 531.215 662.759C521.74 646.29 506.644 633.79 488.697 627.552C488.426 627.358 488.103 627.251 487.77 627.243C487.446 627.062 487.1 626.923 486.741 626.831C484.99 626.213 483.137 625.699 481.902 625.39C481.387 625.287 480.873 625.081 480.358 624.978L480.255 624.875C478.607 624.532 476.96 624.189 475.313 623.846C471.013 623.227 466.683 622.849 462.342 622.713C459.46 622.401 456.625 621.744 453.9 620.757C460.545 612.775 468.192 605.682 476.651 599.654C504.86 579.58 525.347 584.006 540.79 570.109C546.329 565.067 550.416 558.633 552.625 551.476C557.212 536.128 558.303 519.947 555.817 504.122C556.435 505.872 557.258 508.343 558.391 511.328C561.068 518.222 561.788 518.946 562.303 519.357C564.058 520.638 566.21 521.258 568.377 521.108C570.016 521.18 571.647 520.841 573.122 520.121C574.596 519.402 575.867 518.326 576.819 516.99C577.167 516.213 577.343 515.371 577.334 514.52V513.902C577.279 513.513 577.175 513.132 577.025 512.769C576.922 512.563 576.922 512.358 576.819 512.152C576.716 511.947 576.716 511.74 576.613 511.534C575.457 508.721 574.628 505.785 574.143 502.783C573.66 499.47 573.694 496.101 574.245 492.799C574.348 491.974 574.554 491.254 574.657 490.43C575.133 487.376 576.106 484.42 577.54 481.681L578.467 479.828C579.912 477.155 582.044 474.916 584.644 473.342C592.468 469.122 598.439 476.842 617.793 480.342C640.339 484.46 645.178 476.43 654.338 481.577C672.458 491.563 654.133 525.226 673.075 553.124C683.268 568.05 695.724 570.418 706.534 574.226V574.33C706.86 575.026 707.314 575.655 707.873 576.183C707.976 576.286 707.976 576.389 708.079 576.492C713.123 581.33 725.786 579.271 736.595 584.521C741.461 586.854 745.644 590.399 748.744 594.815C764.915 620.553 704.896 691.996 699.028 730.495Z" fill="#FFEECC" stroke="#282724" stroke-miterlimit="10"/>
<path opacity="0.05" d="M577.546 481.683C576.309 484.501 575.344 487.431 574.663 490.433C575.139 487.378 576.112 484.422 577.546 481.683Z" fill="#282724"/>
<path opacity="0.06" d="M748.755 594.819C745.655 590.403 741.471 586.858 736.606 584.525C725.796 579.275 713.133 581.333 708.089 576.495C712.392 582.969 715.205 590.318 716.325 598.01C719.003 617.776 707.472 625.497 698.824 651.233C687.705 683.866 698.824 693.542 685.341 730.396C681.793 740.155 677.347 749.563 672.06 758.5C636.13 821.81 579.713 1297.51 512.384 1553.74C496.529 1613.96 395.432 1983.63 398.727 2103.77C399.653 2137.94 400.064 2155.34 407.785 2179.23C424.464 2230.7 455.556 2251.8 457.203 2303.17C457.508 2314.29 457.924 2332.71 447.834 2338.27C443.76 2340.26 439.074 2340.59 434.76 2339.2C422.762 2335.27 411.766 2328.77 402.536 2320.16H402.433C397.266 2315.77 392.383 2311.06 387.814 2306.05C360.429 2275.99 362.694 2251.8 349.208 2250.26C332.942 2248.51 325.632 2282.68 292.07 2311.1C286.894 2315.6 281.349 2319.66 275.495 2323.24C259.229 2333.33 245.948 2341.46 239.051 2337.96C235.242 2336.11 233.698 2330.86 234.315 2322.52C239.257 2247.99 406.654 1924.23 489.735 1509.37C522.885 1344.15 566.948 1042.93 576.008 949.973C580.228 906.325 589.494 863.089 591.141 819.337C592.377 787.116 587.538 757.057 605.143 724.835C613.482 709.497 620.379 705.173 624.188 688.908C631.498 657.51 612.761 644.13 623.159 622.717C632.116 604.187 654.249 597.496 651.882 585.142C651.05 580.649 649.103 576.437 646.22 572.892C643.409 570.526 640.855 567.869 638.602 564.966C637.057 563.01 636.851 561.98 635.821 561.568C626.35 557.554 620.482 567.23 606.275 566.51C596.392 565.996 584.758 560.539 580.949 551.686C578.684 546.642 581.258 545.509 579.92 530.582C579.77 524.937 578.905 519.333 577.346 513.905V514.523C577.449 516.273 577.243 516.89 576.831 516.993C575.879 518.329 574.608 519.406 573.134 520.125C571.659 520.844 570.028 521.183 568.389 521.111C566.222 521.261 564.07 520.641 562.315 519.361C561.8 518.949 561.08 518.229 558.403 511.332C557.27 508.346 556.447 505.876 555.829 504.125C558.315 519.95 557.225 536.131 552.637 551.48V551.995C552.645 553.544 552.543 555.092 552.332 556.627C552.235 558.048 552.028 559.459 551.714 560.848C551.557 561.785 551.351 562.712 551.097 563.627C550.796 564.885 550.417 566.123 549.964 567.333C549.615 568.32 549.202 569.282 548.728 570.215C547.433 573.008 545.657 575.552 543.482 577.731C542.534 578.643 541.538 579.502 540.496 580.304L540.393 580.407C531.539 586.996 519.184 588.128 503.639 594.716C502.301 595.231 500.963 595.849 499.522 596.569C496.797 597.817 494.15 599.226 491.594 600.79C490.977 601.201 490.256 601.613 489.535 602.025C486.859 603.672 484.079 605.525 481.196 607.687C475.534 611.945 470.263 616.699 465.445 621.893C465.952 622.012 466.469 622.081 466.989 622.099H467.092C467.606 622.202 468.019 622.305 468.533 622.408C468.945 622.511 469.46 622.614 469.975 622.717C471.582 622.855 473.17 623.166 474.71 623.643C474.916 623.746 475.122 623.746 475.328 623.849C476.975 624.192 478.622 624.535 480.27 624.878L480.373 624.981C480.888 625.084 481.402 625.29 481.917 625.393C483.152 625.702 485.005 626.216 486.756 626.834C487.115 626.927 487.461 627.065 487.785 627.246C488.118 627.254 488.441 627.362 488.712 627.555C505.262 636.081 519.768 648.092 531.23 662.762C531.333 662.865 531.436 662.968 531.436 663.071C533.336 665.359 534.686 668.051 535.382 670.943C536.078 673.834 536.101 676.846 535.451 679.748C534.689 689.247 530.734 698.209 524.229 705.175C495.403 742.544 505.698 801.839 507.861 830.457C514.758 920.224 486.755 1289.59 447.532 1505.56C447.532 1505.56 412.425 1699.1 290.432 2025.84C232.265 2181.9 201.175 2265.08 192.939 2283.71C192.425 2284.74 192.013 2285.67 191.498 2286.7C192.631 2298.44 184.394 2302.24 179.35 2317.69C179.041 2318.72 178.732 2319.64 178.423 2320.67C173.07 2340.23 168.231 2371.94 173.584 2392.32V2392.53C174.21 2395.98 175.526 2399.28 177.454 2402.21C179.382 2405.15 181.883 2407.67 184.806 2409.62C189.954 2412.39 193.248 2410.75 211.367 2408.59C241.532 2404.88 252.445 2406.84 267.27 2405.39C282.669 2403.65 297.629 2399.15 311.435 2392.11H311.538C324.589 2385.64 336.939 2377.85 348.394 2368.85C355.704 2374.2 362.91 2379.14 370.014 2383.57V2383.67H370.117C378.203 2388.87 386.553 2393.65 395.134 2397.98C400.899 2401.07 406.459 2403.64 411.915 2405.91H412.018C437.032 2416.1 457.522 2418.16 468.847 2409.2C469.052 2409 469.259 2408.9 469.464 2408.69C474.097 2404.67 472.45 2402.72 486.657 2343.94C492.937 2318 496.129 2306.16 491.908 2290.2C491.115 2287.25 490.117 2284.36 488.921 2281.55C486.181 2274.44 482.4 2267.78 477.701 2261.79C477.623 2261.63 477.518 2261.49 477.391 2261.38C475.078 2259.66 473.381 2257.24 472.553 2254.48C472.45 2254.38 472.347 2254.27 472.347 2254.17C472.142 2253.95 471.968 2253.71 471.832 2253.45C461.186 2236.97 452.253 2219.45 445.171 2201.15C428.184 2155.76 576.535 1553.12 613.907 1282.38C613.907 1282.38 672.177 859.59 690.502 777.75C691.016 775.484 694.311 760.973 697.396 740.896C698.323 735.131 698.941 730.91 699.043 730.498C704.898 691.996 764.917 620.553 748.755 594.819Z" fill="#282724"/>
<path opacity="0.05" d="M486.642 2343.94C472.435 2402.72 474.081 2404.67 469.449 2408.69C469.243 2408.89 469.037 2409 468.831 2409.2C457.506 2418.16 437.019 2416.1 412.003 2405.91H411.899C406.443 2403.64 400.884 2401.07 395.118 2397.98C386.538 2393.65 378.188 2388.87 370.101 2383.67H369.998V2383.57C362.895 2379.14 355.688 2374.2 348.379 2368.85C336.923 2377.85 324.573 2385.64 311.523 2392.11H311.42C297.613 2399.15 282.653 2403.65 267.254 2405.39C252.429 2406.84 241.516 2404.88 211.352 2408.59C193.232 2410.75 189.937 2412.39 184.791 2409.62C181.867 2407.67 179.367 2405.15 177.438 2402.21C175.51 2399.28 174.194 2395.98 173.569 2392.53V2392.42C168.216 2372.04 173.054 2340.23 178.408 2320.67C178.713 2319.64 179.025 2318.72 179.334 2317.69C180.923 2312.06 182.813 2306.53 184.997 2301.11C185.511 2299.77 186.129 2298.44 186.644 2297.1C186.82 2296.86 186.927 2296.57 186.954 2296.27C187.88 2294.32 188.806 2292.46 189.527 2290.71C189.798 2290.3 190.006 2289.85 190.145 2289.38C190.517 2288.76 190.828 2288.1 191.071 2287.42C191.225 2287.19 191.363 2286.95 191.483 2286.7C191.998 2285.67 192.41 2284.74 192.924 2283.71C199.844 2269.66 208.119 2256.32 217.633 2243.87C223.52 2235.35 228.883 2226.48 233.694 2217.31C230.502 2225.04 227.001 2232.65 223.295 2240.17C216.295 2253.96 207.75 2266.83 200.543 2280.52C189.219 2301.94 183.042 2327.46 191.689 2350.22C193.302 2354.29 195.338 2358.19 197.764 2361.85C224.425 2402.1 271.785 2373.58 301.023 2346.61V2346.51C305.947 2342.07 310.621 2337.36 315.024 2332.41C318.847 2328.11 322.389 2323.57 325.628 2318.82H325.731C327.276 2316.55 328.717 2314.29 330.158 2311.92C338.148 2299.06 344.25 2285.13 348.277 2270.54C353.836 2285.46 354.969 2302.04 360.837 2316.86C361.249 2317.99 361.764 2319.02 362.279 2320.16C363.439 2322.73 364.745 2325.24 366.19 2327.67C366.886 2328.78 367.643 2329.84 368.456 2330.86C379.715 2346.1 394.763 2358.13 412.106 2365.76C416.119 2367.4 420.295 2368.6 424.563 2369.36C426.46 2369.76 428.391 2369.97 430.329 2369.98C436.721 2370.6 443.145 2369.16 448.654 2365.86C471.611 2352.48 472.641 2309.04 469.759 2284.53C467.638 2268.1 463.201 2252.06 456.581 2236.87C462.084 2241.99 467.178 2247.53 471.817 2253.45C471.954 2253.71 472.127 2253.95 472.332 2254.17C472.332 2254.27 472.435 2254.37 472.538 2254.48C474.032 2256.86 475.647 2259.16 477.376 2261.37C477.503 2261.49 477.608 2261.63 477.686 2261.78C482.385 2267.78 486.166 2274.44 488.906 2281.55C490.102 2284.36 491.1 2287.25 491.893 2290.2C496.113 2306.16 492.922 2317.99 486.642 2343.94Z" fill="#282724"/>
<path opacity="0.1" d="M601.432 620.759C590.005 646.803 611.109 667.184 598.961 688.187C595.152 694.776 587.225 703.011 568.282 707.85C561.179 689.114 559.017 668.01 541.926 654.937C537.917 652.034 533.559 649.647 528.954 647.833C522.435 643.167 515.549 639.036 508.364 635.48C502.035 632.31 495.459 629.659 488.701 627.553C488.43 627.36 488.107 627.252 487.774 627.244C485.201 626.421 482.73 625.7 480.362 624.979C479.538 624.774 478.612 624.568 477.789 624.362C476.976 624.141 476.15 623.969 475.317 623.847C475.111 623.744 474.905 623.744 474.7 623.641C473.052 623.333 471.508 622.921 469.964 622.715C469.449 622.612 468.934 622.509 468.522 622.406C467.493 622.2 466.463 622.097 465.434 621.891C470.252 616.697 475.523 611.943 481.186 607.685C484.068 605.523 486.848 603.67 489.524 602.023C490.245 601.611 490.966 601.199 491.583 600.788C494.139 599.224 496.787 597.814 499.511 596.567C518.248 587.302 532.661 586.788 543.471 577.729C554.177 568.772 563.238 549.422 555.824 504.123C556.442 505.874 557.266 508.344 558.398 511.33C561.075 518.224 561.796 518.947 562.31 519.359C564.066 520.639 566.217 521.259 568.385 521.109C568.04 525.947 568.143 530.806 568.693 535.624C569.311 541.698 571.37 545.713 573.119 554.464C573.85 561.187 576.454 567.571 580.636 572.887C586.14 578.217 593.29 581.52 600.917 582.255C618.727 585.446 626.346 583.387 628.199 587.093C631.185 592.964 610.183 600.788 601.432 620.759Z" fill="#282724"/>
</svg>
