<svg width="752" height="4633" viewBox="0 0 752 4633" fill="none" xmlns="http://www.w3.org/2000/svg">
<path d="M476.689 2499.22C469.483 2514.35 457.543 2521.14 444.573 2528.34C444.058 2528.55 443.647 2528.86 443.235 2529.06C442.72 2529.37 442.206 2529.58 441.691 2529.89C434.745 2533.54 428.101 2537.74 421.824 2542.45C421.609 2542.65 421.367 2542.82 421.104 2542.96C420.894 2543.2 420.652 2543.41 420.383 2543.58C408.516 2553.29 398.596 2565.17 391.149 2578.57C390.223 2580.32 389.194 2582.07 388.267 2583.92C388.159 2584.04 388.088 2584.18 388.062 2584.34C387.548 2585.14 387.133 2586.01 386.826 2586.91C386.712 2587 386.616 2587.1 386.546 2587.23C386.475 2587.35 386.43 2587.49 386.415 2587.63C385.694 2588.97 385.076 2590.31 384.459 2591.64C383.121 2594.42 381.782 2597.2 380.548 2600.08C379.723 2601.94 379.003 2603.79 378.18 2605.64C375.709 2611.41 373.342 2617.48 370.872 2623.76C326.301 2735.54 304.066 2883.24 292.95 3010.98C292.864 3011.35 292.83 3011.73 292.846 3012.11C282.553 3132.53 282.142 3235.15 282.45 3272.83C282.553 3282.81 282.656 3288.27 282.656 3288.27C288.317 3538.07 230.262 3791.79 273.289 4038C273.392 4038.51 273.495 4039.03 273.598 4039.64C273.581 4039.85 273.617 4040.07 273.701 4040.26V4040.47C277.406 4062.08 291.096 4147.2 251.775 4173.35C248.191 4175.8 244.174 4177.54 239.938 4178.49C209.366 4186.21 170.353 4156.16 107.049 4176.44C78.7444 4185.49 60.6272 4199.8 44.9781 4190.43C43.4434 4189.51 42.0264 4188.4 40.7581 4187.14C40.1407 4186.52 39.5227 4185.8 38.9054 4185.18C31.0821 4175.61 28.6117 4158.83 28.8173 4136.91C29.3327 4083.39 29.5376 4056.63 62.2711 3998.88C157.384 3831.42 204.63 3079.63 201.028 2835.17C198.97 2697.25 197.941 2628.18 187.132 2603.17C179.824 2586.29 156.663 2537.71 171.588 2487.07C174.541 2474.62 180.356 2463.02 188.573 2453.21C190.925 2450.64 193.509 2448.3 196.293 2446.21C223.88 2425.83 265.363 2435.19 300.257 2444.35C336.079 2453.62 346.27 2465.76 370.357 2460.82C396.296 2455.47 399.59 2438.08 426.25 2435.71C441.308 2434.17 456.434 2437.88 469.073 2446.21C473.293 2449.25 476.747 2453.23 479.16 2457.84C488.217 2475.34 478.336 2495.61 476.689 2499.22Z" fill="black"/>
<path d="M170.004 4111.42C149.537 4115.66 151.35 4144.17 126.719 4153.04C99.8846 4162.72 59.7407 4142.57 55.9697 4120.2C51.6008 4094.27 96.5203 4068.03 114.076 4055.61C207.448 3989.57 221.289 3823.48 225.737 3690.36C232.558 3486.22 241.153 2645.47 275.719 2588.34C281.771 2578.18 286.528 2567.31 289.881 2555.97C294.839 2539.45 301.001 2518.91 293.358 2501.43C280.656 2472.39 232.452 2457.77 212.87 2472.88C197.137 2485.01 201.743 2515.38 210.627 2576.17C214.456 2602.37 219.192 2621.34 219.337 2622.57C224.687 2668.09 219.757 2712.4 215.097 2818.21C204.038 3069.3 190.964 3899.66 80.3991 4036.06C74.4857 4043.35 32.3605 4081.85 28.8536 4136.87C28.407 4143.87 26.1606 4179.13 44.9781 4190.43C60.5796 4199.81 78.7289 4185.54 107.076 4176.46C178.756 4153.49 219.247 4195.08 251.819 4173.36C292.725 4146.08 276.21 4054.64 273.309 4038.03C230.303 3791.81 288.357 3538.11 282.631 3288.22C282.631 3270.5 283.892 2858.42 345.635 2649.88C369.945 2567.78 393.82 2550.37 406.635 2543.44C423.185 2534.49 447.094 2529.08 458.067 2506.36C464.106 2493.86 467.168 2476.02 460.245 2471.05C447.673 2462.02 406.104 2498.08 388.22 2515.84C321.746 2581.86 305.796 2669.91 302.078 2692C268.821 2889.58 266.636 3225.04 255.9 3426.75C255.9 3426.75 226.409 3981.07 258.11 4053.24C265.163 4069.55 268.196 4087.31 266.955 4105.04C266.449 4111.73 263.753 4147.38 246.74 4153.04C223.754 4160.69 199.603 4105.29 170.004 4111.42Z" fill="black"/>
</svg>
