<svg width="752" height="4634" viewBox="0 0 752 4634" fill="none" xmlns="http://www.w3.org/2000/svg">
<path d="M476.792 2499.76C469.585 2514.89 457.642 2521.68 444.669 2528.89C444.155 2529.1 443.743 2529.41 443.331 2529.61C442.816 2529.92 442.302 2530.13 441.787 2530.43C434.839 2534.09 428.195 2538.29 421.916 2543C421.701 2543.2 421.459 2543.37 421.196 2543.51C420.986 2543.75 420.744 2543.96 420.475 2544.13C408.605 2553.84 398.683 2565.72 391.235 2579.13C390.309 2580.88 389.279 2582.63 388.352 2584.48C388.244 2584.6 388.172 2584.74 388.146 2584.9C387.632 2585.7 387.217 2586.56 386.911 2587.47C386.796 2587.55 386.701 2587.66 386.63 2587.79C386.559 2587.91 386.514 2588.05 386.499 2588.19C385.778 2589.53 385.16 2590.87 384.543 2592.2C383.204 2594.98 381.866 2597.76 380.631 2600.65C379.806 2602.5 379.086 2604.35 378.262 2606.21C375.791 2611.97 373.423 2618.05 370.953 2624.33C326.372 2736.13 304.133 2883.86 293.014 3011.63C292.928 3012 292.894 3012.38 292.911 3012.76C282.615 3133.21 282.203 3235.85 282.512 3273.53C282.615 3283.52 282.718 3288.98 282.718 3288.98C288.38 3538.84 230.313 3792.61 273.349 4038.87C273.452 4039.38 273.555 4039.9 273.658 4040.52C273.641 4040.73 273.677 4040.94 273.761 4041.13V4041.34C277.467 4062.96 291.16 4148.1 251.831 4174.25C248.246 4176.7 244.228 4178.45 239.99 4179.4C209.412 4187.12 170.391 4157.06 107.073 4177.34C78.7625 4186.4 60.6413 4200.7 44.9889 4191.34C43.4538 4190.42 42.0365 4189.31 40.7679 4188.04C40.1504 4187.43 39.5323 4186.71 38.9149 4186.09C31.0898 4176.51 28.6189 4159.73 28.8245 4137.8C29.3401 4084.27 29.5451 4057.5 62.2856 3999.75C157.419 3832.25 204.676 3080.29 201.073 2835.79C199.014 2697.83 197.984 2628.75 187.173 2603.74C179.863 2586.85 156.698 2538.26 171.627 2487.61C174.579 2475.15 180.396 2463.55 188.614 2453.74C190.967 2451.17 193.552 2448.83 196.336 2446.74C223.929 2426.35 265.421 2435.72 300.323 2444.88C336.153 2454.15 346.345 2466.3 370.438 2461.36C396.383 2456 399.677 2438.6 426.343 2436.24C441.404 2434.7 456.533 2438.41 469.175 2446.74C473.396 2449.78 476.85 2453.76 479.264 2458.37C488.323 2475.87 478.44 2496.15 476.792 2499.76Z" fill="#FFEECC" stroke="#282724" stroke-miterlimit="10"/>
<path opacity="0.07" d="M170.041 4112.31C149.569 4116.55 151.383 4145.06 126.747 4153.94C99.9063 4163.61 59.7537 4143.47 55.9818 4121.09C51.612 4095.15 96.5412 4068.9 114.1 4056.49C207.493 3990.44 221.337 3824.31 225.786 3691.16C232.609 3486.97 241.205 2646.05 275.779 2588.9C281.832 2578.74 286.59 2567.86 289.944 2556.53C294.902 2540 301.066 2519.46 293.422 2501.97C280.716 2472.92 232.502 2458.3 212.916 2473.41C197.179 2485.55 201.787 2515.93 210.673 2576.73C214.502 2602.93 219.239 2621.9 219.384 2623.13C224.736 2668.66 219.804 2712.99 215.143 2818.82C204.082 3069.96 191.005 3900.5 80.4166 4036.93C74.5019 4044.23 32.3676 4082.73 28.8599 4137.76C28.4133 4144.77 26.1656 4180.03 44.9872 4191.34C60.592 4200.71 78.746 4186.44 107.099 4177.36C178.794 4154.38 219.294 4195.99 251.873 4174.26C292.788 4146.98 276.27 4055.52 273.368 4038.91C230.353 3792.62 288.42 3538.88 282.692 3288.93C282.692 3271.2 283.953 2859.03 345.709 2650.46C370.025 2568.33 393.905 2550.92 406.723 2543.99C423.276 2535.04 447.191 2529.63 458.165 2506.91C464.206 2494.4 467.269 2476.56 460.345 2471.58C447.769 2462.55 406.191 2498.61 388.304 2516.38C321.815 2582.42 305.862 2670.48 302.143 2692.58C268.879 2890.2 266.694 3225.74 255.955 3427.49C255.955 3427.49 226.458 3981.93 258.165 4054.12C265.22 4070.43 268.254 4088.2 267.012 4105.92C266.506 4112.62 263.81 4148.28 246.794 4153.94C223.802 4161.59 199.646 4106.18 170.041 4112.31Z" fill="#282724"/>
</svg>
