<svg width="752" height="4634" viewBox="0 0 752 4634" fill="none" xmlns="http://www.w3.org/2000/svg">
<path d="M475.892 4478.32C477.753 4481.6 489.6 4477.35 508.346 4477.92C535.361 4478.74 544.613 4488.58 558.21 4483.01C563.513 4480.74 568.037 4476.97 571.228 4472.16C572.331 4470.48 578.205 4461.75 574.456 4458.79C570.129 4455.38 558.536 4464.03 536.658 4464.15C530.868 4464.52 525.066 4463.63 519.653 4461.54C513.103 4458.57 513.033 4455.17 508.401 4454.58C503.235 4453.92 498.522 4457.77 488.784 4465.11C480.114 4471.64 474.497 4475.87 475.892 4478.32Z" fill="black"/>
<path d="M584.717 4461.58C590.071 4461.2 589.992 4469.34 601.514 4475.26C612.6 4480.95 623.269 4478.85 625.08 4483.66C625.404 4485.1 625.21 4486.61 624.532 4487.93C623.855 4489.24 622.738 4490.27 621.375 4490.85C616.006 4493.4 610.285 4487.46 593.961 4484.07C582.716 4481.73 578.632 4483.14 575.972 4480.17C571.028 4474.67 578.182 4462.03 584.717 4461.58Z" fill="black"/>
<path d="M571.203 4472.19C568.043 4476.99 563.528 4480.76 558.23 4483C544.64 4488.56 535.373 4478.78 508.295 4477.95C489.557 4477.34 477.718 4481.56 475.865 4478.37C474.526 4475.89 480.086 4471.67 488.734 4465.08C498.515 4457.78 503.251 4453.97 508.398 4454.58C508.572 4454.61 508.744 4454.64 508.913 4454.69C508.077 4455.96 507.781 4457.52 508.09 4459.01C509.12 4462.1 514.37 4462 526.313 4464.78C543.713 4468.89 544.227 4471.78 550.817 4471.57C560.088 4470.66 568.647 4466.19 574.703 4459.11C577.895 4462.31 572.335 4470.44 571.203 4472.19Z" fill="black"/>
<path d="M621.344 4490.82C615.99 4493.4 610.327 4487.43 593.956 4484.03C582.735 4481.76 578.616 4483.1 575.939 4480.22C570.997 4474.66 578.204 4462 584.691 4461.58C585.549 4461.48 586.416 4461.66 587.162 4462.1C585.494 4463.29 584.321 4465.04 583.867 4467.04C583.249 4471.88 588.912 4476.31 591.074 4478.06C595.754 4481.53 601.324 4483.6 607.135 4484.03C613.073 4484.64 619.066 4484.43 624.947 4483.41C624.947 4483.51 625.05 4483.51 625.05 4483.62C625.375 4485.06 625.181 4486.58 624.504 4487.89C623.827 4489.21 622.708 4490.25 621.344 4490.82Z" fill="black"/>
<path d="M488.986 4488.88C490.827 4492.23 503.809 4488.53 523.986 4489.95C553.063 4492 562.54 4502.24 577.476 4497.3C583.215 4495.34 588.273 4491.79 592.054 4487.05C593.326 4485.42 600.097 4476.96 596.203 4473.84C591.711 4470.24 578.781 4478.35 555.193 4477.48C548.961 4477.59 542.77 4476.45 536.995 4474.1C530.084 4470.84 530.18 4467.43 525.219 4466.63C519.683 4465.74 514.41 4469.38 503.544 4476.26C493.871 4482.39 487.605 4486.37 488.986 4488.88Z" fill="black"/>
<path d="M607.124 4477.08C612.913 4476.95 612.419 4485.08 624.541 4491.52C636.204 4497.7 647.809 4496.09 649.52 4500.98C649.771 4502.48 649.467 4504.02 648.665 4505.31C647.863 4506.6 646.619 4507.55 645.164 4507.99C639.246 4510.3 633.382 4504.1 615.957 4499.97C603.954 4497.13 599.481 4498.35 596.764 4495.27C591.711 4489.54 600.059 4477.25 607.124 4477.08Z" fill="black"/>
<path d="M597.353 4477.44C596.298 4480.96 594.509 4484.23 592.102 4487.01C588.306 4491.76 583.235 4495.33 577.483 4497.31C562.554 4502.25 553.082 4491.96 523.945 4490C503.765 4488.56 490.792 4492.26 488.939 4488.87C487.601 4486.4 493.881 4482.38 503.559 4476.31C512.517 4470.54 517.87 4467.04 522.503 4466.63C517.15 4470.95 514.266 4474.76 515.09 4477.03C516.532 4480.73 527.033 4476.92 547.728 4481.66C561.936 4484.95 563.275 4488.25 570.379 4488.66C580.431 4488.3 590.014 4484.32 597.353 4477.44Z" fill="black"/>
<path d="M649.656 4502.97C649.363 4504.11 648.798 4505.17 648.01 4506.05C647.221 4506.93 646.231 4507.6 645.126 4508.02C639.257 4510.28 633.389 4504.1 615.989 4499.99C603.943 4497.1 599.515 4498.34 596.736 4495.25C591.999 4489.9 599.206 4478.57 606.001 4477.34C605.313 4478.19 604.825 4479.19 604.576 4480.26C604.326 4481.33 604.321 4482.44 604.56 4483.51C605.384 4486.19 610.429 4488.15 620.622 4492.16C626.181 4494.32 626.181 4494.01 629.167 4495.35C637.816 4499.47 638.743 4503.07 642.964 4503.9C645.237 4504.19 647.547 4503.87 649.656 4502.97Z" fill="black"/>
<path d="M462.404 4601.2C464.572 4606.72 479.762 4600.69 503.396 4603.09C537.455 4606.56 548.591 4623.43 566.064 4615.36C573.286 4611.59 579.216 4605.74 583.097 4598.57C584.581 4595.9 592.478 4582.03 587.908 4576.88C582.634 4570.94 567.522 4584.23 539.897 4582.71C532.412 4582.8 525.043 4580.86 518.572 4577.1C510.467 4571.7 510.566 4566.11 504.752 4564.78C498.266 4563.29 492.104 4569.25 479.405 4580.52C468.101 4590.56 460.778 4597.06 462.404 4601.2Z" fill="black"/>
<path d="M589.221 4580.49C588.655 4586.93 586.574 4593.14 583.145 4598.61C579.192 4605.74 573.255 4611.57 566.055 4615.39C548.552 4623.42 537.433 4606.54 503.354 4603.14C479.777 4600.67 464.539 4606.74 462.377 4601.19C460.73 4597.07 468.143 4590.58 479.364 4580.49C489.352 4571.74 495.322 4566.18 500.574 4564.84C495.94 4573.49 494.191 4580.08 496.455 4583.27C499.235 4587.08 506.134 4583.58 528.682 4588.01C551.126 4592.43 556.582 4598.3 564.201 4598.3C572.438 4598.2 581.084 4591.3 589.221 4580.49Z" fill="black"/>
<path d="M600.708 4582.26C607.486 4582.06 606.939 4595.42 621.158 4606.04C634.84 4616.25 648.424 4613.64 650.445 4621.68C650.861 4623.89 650.599 4626.17 649.693 4628.22C648.787 4630.28 647.281 4632.01 645.371 4633.19C638.452 4636.96 631.558 4626.75 611.138 4619.9C597.07 4615.18 591.837 4617.17 588.643 4612.1C582.704 4602.67 592.432 4582.5 600.708 4582.26Z" fill="black"/>
<path d="M650.686 4623.32C650.75 4625.3 650.288 4627.25 649.347 4628.99C648.407 4630.72 647.021 4632.18 645.332 4633.2C638.434 4636.91 631.535 4626.72 611.15 4619.92C597.044 4615.19 591.794 4617.14 588.602 4612.1C582.734 4602.63 592.412 4582.45 600.752 4582.24C603.326 4582.14 604.869 4584.2 606.62 4587.29C604.337 4587.78 602.317 4589.1 600.957 4590.99C599.903 4592.82 599.365 4594.89 599.401 4596.99C599.437 4599.1 600.047 4601.15 601.164 4602.94C604.252 4607.98 610.017 4607.16 618.871 4610.56C632.359 4615.81 632.359 4622.7 640.493 4624.25C643.914 4624.8 647.42 4624.48 650.686 4623.32Z" fill="black"/>
<path d="M495.47 4518.46C497.24 4521.89 510.898 4518.77 531.816 4521.09C561.961 4524.43 571.369 4535.09 587.115 4530.82C593.118 4529.16 598.527 4525.83 602.719 4521.23C604.114 4519.66 611.521 4511.51 607.611 4508.22C603.095 4504.42 589.299 4511.95 564.81 4510.02C558.338 4509.87 551.96 4508.45 546.034 4505.84C538.991 4502.26 539.239 4498.87 534.114 4497.85C528.397 4496.71 522.756 4500.11 511.157 4506.5C500.832 4512.19 494.144 4515.88 495.47 4518.46Z" fill="black"/>
<path d="M618.824 4511.95C624.848 4512.08 623.98 4520.18 636.305 4527.15C648.162 4533.85 660.299 4532.76 661.864 4537.72C662.664 4540.25 660.407 4543.43 657.03 4544.53C650.78 4546.57 644.95 4540.11 627.012 4535.21C614.655 4531.83 609.95 4532.85 607.259 4529.65C602.255 4523.71 611.469 4511.8 618.824 4511.95Z" fill="black"/>
<path d="M602.708 4521.19C598.556 4525.84 593.161 4529.2 587.161 4530.87C571.408 4535.09 561.936 4524.38 531.77 4521.09C510.869 4518.72 497.279 4521.91 495.426 4518.41C494.191 4515.84 500.883 4512.24 511.179 4506.47C516.107 4503.48 521.272 4500.9 526.622 4498.75C521.062 4504.1 518.386 4508.63 519.827 4511.21C522.195 4515.53 532.696 4508.74 554.73 4513.37C573.879 4517.49 576.762 4525 586.131 4524.28C590.675 4523.38 594.988 4521.56 598.81 4518.94C602.633 4516.32 605.885 4512.96 608.37 4509.05C610.532 4512.65 604.046 4519.75 602.708 4521.19Z" fill="black"/>
<path d="M661.805 4539.72C661.461 4540.85 660.852 4541.88 660.027 4542.72C659.203 4543.56 658.188 4544.19 657.069 4544.56C650.789 4546.52 644.92 4540.14 627.006 4535.19C614.65 4531.8 609.914 4532.83 607.237 4529.63C602.295 4523.77 611.252 4512.03 618.665 4511.93C617.44 4513.42 616.548 4515.15 616.051 4517.02C615.554 4518.88 615.462 4520.83 615.782 4522.74C617.533 4526.44 624.122 4523.56 636.991 4529.84C647.801 4535.09 648.317 4539.62 654.391 4540.55C656.893 4540.82 659.424 4540.54 661.805 4539.72Z" fill="black"/>
<path d="M490.643 4562.17C492.635 4566.8 506.611 4561.73 528.35 4563.73C559.678 4566.62 569.912 4580.76 585.99 4573.98C592.502 4570.95 597.962 4566.04 601.671 4559.89C603.038 4557.65 610.311 4546.02 606.111 4541.7C601.263 4536.73 587.353 4547.87 561.941 4546.61C555.114 4546.72 548.37 4545.11 542.329 4541.93C534.876 4537.41 534.971 4532.72 529.624 4531.6C523.658 4530.36 517.986 4535.36 506.297 4544.82C495.89 4553.25 489.15 4558.7 490.643 4562.17Z" fill="black"/>
<path d="M617.883 4546.2C624.118 4546.03 623.606 4557.23 636.68 4566.13C649.258 4574.68 661.756 4572.48 663.61 4579.23C663.965 4581.12 663.702 4583.08 662.861 4584.82C662.02 4586.56 660.644 4587.98 658.936 4588.88C652.569 4592.04 646.233 4583.49 627.452 4577.76C614.518 4573.81 609.698 4575.48 606.765 4571.23C601.308 4563.33 610.27 4546.41 617.883 4546.2Z" fill="black"/>
<path d="M601.677 4559.9C597.951 4566.03 592.51 4570.94 586.028 4574.01C569.864 4580.8 559.67 4566.59 528.37 4563.71C506.649 4561.76 492.644 4566.8 490.688 4562.17C489.143 4558.67 495.938 4553.21 506.337 4544.87C510.913 4540.95 515.69 4537.28 520.648 4533.86C516.839 4542.19 515.603 4549.61 517.868 4552.7C521.369 4557.33 531.458 4548.89 551.021 4553.42C566.361 4556.92 570.789 4564.64 580.055 4562.17C584.166 4560.71 587.817 4558.19 590.638 4554.86C593.459 4551.53 595.349 4547.52 596.116 4543.23C596.235 4542.68 596.304 4542.13 596.321 4541.58C601.058 4540.24 604.25 4539.83 606.103 4541.68C610.326 4546 603.016 4557.64 601.677 4559.9Z" fill="black"/>
<path d="M663.762 4580.29C663.897 4582.03 663.509 4583.77 662.647 4585.3C661.785 4586.82 660.488 4588.05 658.922 4588.83C652.539 4592.02 646.259 4583.48 627.417 4577.71C614.548 4573.8 609.709 4575.45 606.723 4571.23C601.266 4563.3 610.223 4546.42 617.842 4546.21C618.63 4546.19 619.409 4546.37 620.11 4546.73C620.811 4547.09 621.411 4547.62 621.858 4548.27C619.656 4549.23 617.745 4550.76 616.318 4552.69C614.891 4554.62 613.996 4556.9 613.724 4559.28C613.934 4561.27 614.763 4563.14 616.093 4564.64C620.725 4569.99 627.52 4567.01 635.963 4569.68C646.876 4573.18 646.465 4581.42 653.981 4582.55C657.397 4582.82 660.812 4582.03 663.762 4580.29Z" fill="black"/>
</svg>
