<svg width="752" height="4634" viewBox="0 0 752 4634" fill="none" xmlns="http://www.w3.org/2000/svg">
<path d="M475.842 4477.84C477.702 4481.11 489.548 4476.87 508.292 4477.44C535.304 4478.26 544.554 4488.09 558.15 4482.53C563.452 4480.25 567.976 4476.48 571.167 4471.68C572.27 4469.99 578.143 4461.27 574.395 4458.31C570.068 4454.9 558.477 4463.55 536.601 4463.66C530.811 4464.04 525.01 4463.15 519.597 4461.06C513.048 4458.09 512.978 4454.69 508.347 4454.1C503.181 4453.44 498.469 4457.29 488.731 4464.63C480.062 4471.16 474.446 4475.38 475.842 4477.84Z" fill="#FFEECC" stroke="#282724" stroke-miterlimit="10"/>
<path d="M584.653 4461.1C590.006 4460.72 589.928 4468.86 601.449 4474.78C612.533 4480.47 623.201 4478.37 625.012 4483.18C625.336 4484.62 625.142 4486.13 624.464 4487.44C623.787 4488.76 622.67 4489.79 621.307 4490.37C615.939 4492.92 610.218 4486.97 593.897 4483.58C582.653 4481.25 578.569 4482.65 575.909 4479.69C570.965 4474.18 578.119 4461.55 584.653 4461.1Z" fill="#FFEECC" stroke="#282724" stroke-miterlimit="10"/>
<path opacity="0.1" d="M571.142 4471.71C567.982 4476.51 563.468 4480.27 558.17 4482.51C544.582 4488.07 535.316 4478.29 508.241 4477.47C489.505 4476.85 477.667 4481.07 475.814 4477.88C474.476 4475.41 480.034 4471.19 488.682 4464.6C498.462 4457.3 503.197 4453.49 508.344 4454.1C508.518 4454.13 508.69 4454.16 508.859 4454.21C508.023 4455.48 507.727 4457.04 508.036 4458.53C509.065 4461.62 514.316 4461.52 526.257 4464.3C543.655 4468.41 544.169 4471.29 550.758 4471.09C560.029 4470.17 568.587 4465.71 574.642 4458.63C577.833 4461.82 572.274 4469.96 571.142 4471.71Z" fill="#282724"/>
<path opacity="0.1" d="M621.278 4490.34C615.924 4492.91 610.262 4486.94 593.893 4483.54C582.673 4481.28 578.554 4482.62 575.878 4479.74C570.936 4474.18 578.143 4461.51 584.629 4461.1C585.487 4461 586.354 4461.18 587.1 4461.62C585.432 4462.8 584.259 4464.56 583.805 4466.56C583.187 4471.4 588.849 4475.82 591.011 4477.57C595.691 4481.05 601.26 4483.12 607.071 4483.54C613.008 4484.16 619.001 4483.95 624.881 4482.93C624.881 4483.03 624.983 4483.03 624.983 4483.13C625.308 4484.58 625.115 4486.09 624.438 4487.41C623.761 4488.73 622.642 4489.76 621.278 4490.34Z" fill="#282724"/>
<path d="M488.934 4488.39C490.775 4491.75 503.756 4488.05 523.93 4489.47C553.004 4491.51 562.48 4501.75 577.415 4496.81C583.153 4494.86 588.21 4491.3 591.991 4486.56C593.263 4484.93 600.033 4476.48 596.139 4473.36C591.648 4469.75 578.719 4477.86 555.134 4476.99C548.903 4477.11 542.712 4475.96 536.938 4473.62C530.028 4470.35 530.124 4466.95 525.163 4466.15C519.628 4465.26 514.356 4468.9 503.49 4475.78C493.818 4481.91 487.554 4485.88 488.934 4488.39Z" fill="#FFEECC" stroke="#282724" stroke-miterlimit="10"/>
<path d="M607.06 4476.6C612.848 4476.47 612.354 4484.6 624.475 4491.03C636.137 4497.22 647.74 4495.61 649.451 4500.49C649.702 4501.99 649.398 4503.53 648.596 4504.82C647.794 4506.11 646.55 4507.07 645.095 4507.51C639.178 4509.81 633.314 4503.62 615.892 4499.49C603.89 4496.64 599.417 4497.86 596.7 4494.78C591.648 4489.06 599.995 4476.76 607.06 4476.6Z" fill="#FFEECC" stroke="#282724" stroke-miterlimit="10"/>
<path opacity="0.1" d="M597.289 4476.95C596.234 4480.48 594.445 4483.74 592.039 4486.53C588.242 4491.28 583.172 4494.85 577.42 4496.82C562.493 4501.76 553.022 4491.47 523.888 4489.51C503.711 4488.07 490.739 4491.78 488.886 4488.38C487.548 4485.91 493.828 4481.9 503.505 4475.82C512.462 4470.06 517.814 4466.56 522.447 4466.15C517.094 4470.47 514.211 4474.28 515.035 4476.54C516.476 4480.25 526.976 4476.44 547.669 4481.18C561.876 4484.47 563.214 4487.76 570.317 4488.18C580.369 4487.82 589.951 4483.83 597.289 4476.95Z" fill="#282724"/>
<path opacity="0.1" d="M649.586 4502.49C649.294 4503.63 648.729 4504.69 647.94 4505.56C647.151 4506.44 646.162 4507.12 645.057 4507.53C639.188 4509.79 633.321 4503.62 615.923 4499.5C603.878 4496.62 599.451 4497.85 596.672 4494.77C591.936 4489.41 599.142 4478.09 605.936 4476.85C605.248 4477.71 604.76 4478.71 604.511 4479.78C604.262 4480.85 604.256 4481.96 604.495 4483.03C605.319 4485.71 610.364 4487.66 620.556 4491.68C626.114 4493.84 626.114 4493.53 629.1 4494.87C637.747 4498.99 638.674 4502.59 642.894 4503.41C645.168 4503.7 647.477 4503.38 649.586 4502.49Z" fill="#282724"/>
<path d="M462.355 4600.7C464.523 4606.22 479.711 4600.19 503.342 4602.6C537.398 4606.06 548.533 4622.93 566.004 4614.87C573.225 4611.09 579.155 4605.24 583.035 4598.08C584.519 4595.4 592.415 4581.54 587.846 4576.39C582.572 4570.45 567.462 4583.73 539.839 4582.21C532.356 4582.3 524.987 4580.37 518.517 4576.6C510.413 4571.21 510.513 4565.62 504.699 4564.28C498.213 4562.79 492.052 4568.76 479.355 4580.03C468.051 4590.06 460.729 4596.56 462.355 4600.7Z" fill="#FFEECC" stroke="#282724" stroke-miterlimit="10"/>
<path opacity="0.1" d="M589.157 4580C588.592 4586.43 586.511 4592.64 583.083 4598.12C579.13 4605.24 573.194 4611.07 565.994 4614.9C548.493 4622.92 537.375 4606.04 503.3 4602.64C479.725 4600.17 464.489 4606.25 462.327 4600.69C460.68 4596.57 468.092 4590.09 479.313 4580C489.299 4571.25 495.269 4565.69 500.52 4564.35C495.887 4573 494.137 4579.59 496.402 4582.78C499.182 4586.59 506.08 4583.09 528.625 4587.51C551.067 4591.94 556.523 4597.81 564.141 4597.81C572.377 4597.7 581.021 4590.81 589.157 4580Z" fill="#282724"/>
<path d="M600.644 4581.77C607.421 4581.57 606.874 4594.93 621.092 4605.54C634.772 4615.75 648.355 4613.14 650.376 4621.19C650.792 4623.39 650.529 4625.67 649.624 4627.72C648.718 4629.78 647.212 4631.51 645.303 4632.69C638.384 4636.45 631.49 4626.25 611.073 4619.4C597.007 4614.68 591.774 4616.67 588.581 4611.6C582.642 4602.17 592.369 4582.01 600.644 4581.77Z" fill="#FFEECC" stroke="#282724" stroke-miterlimit="10"/>
<path opacity="0.1" d="M650.616 4622.82C650.681 4624.79 650.219 4626.75 649.278 4628.49C648.337 4630.22 646.952 4631.68 645.263 4632.7C638.366 4636.41 631.468 4626.22 611.084 4619.42C596.981 4614.69 591.731 4616.64 588.539 4611.6C582.672 4602.13 592.349 4581.95 600.688 4581.75C603.262 4581.64 604.805 4583.7 606.555 4586.79C604.272 4587.28 602.253 4588.6 600.893 4590.5C599.839 4592.32 599.301 4594.39 599.337 4596.5C599.374 4598.6 599.983 4600.65 601.099 4602.44C604.188 4607.48 609.952 4606.66 618.805 4610.06C632.292 4615.31 632.292 4622.2 640.424 4623.75C643.846 4624.3 647.351 4623.98 650.616 4622.82Z" fill="#282724"/>
<path d="M495.418 4517.97C497.187 4521.4 510.844 4518.28 531.76 4520.6C561.901 4523.94 571.308 4534.6 587.053 4530.33C593.054 4528.67 598.463 4525.34 602.655 4520.74C604.049 4519.17 611.456 4511.02 607.546 4507.73C603.031 4503.93 589.236 4511.46 564.75 4509.53C558.279 4509.38 551.901 4507.96 545.976 4505.35C538.934 4501.78 539.181 4498.38 534.057 4497.36C528.341 4496.22 522.7 4499.62 511.103 4506.01C500.779 4511.71 494.092 4515.39 495.418 4517.97Z" fill="#FFEECC" stroke="#282724" stroke-miterlimit="10"/>
<path d="M618.756 4511.46C624.78 4511.59 623.913 4519.69 636.235 4526.66C648.092 4533.36 660.227 4532.27 661.793 4537.23C662.592 4539.76 660.335 4542.94 656.959 4544.04C650.709 4546.08 644.879 4539.63 626.943 4534.72C614.588 4531.34 609.883 4532.36 607.193 4529.17C602.19 4523.22 611.402 4511.31 618.756 4511.46Z" fill="#FFEECC" stroke="#282724" stroke-miterlimit="10"/>
<path opacity="0.1" d="M602.642 4520.71C598.49 4525.35 593.097 4528.71 587.097 4530.38C571.346 4534.6 561.875 4523.9 531.712 4520.6C510.814 4518.24 497.225 4521.43 495.371 4517.93C494.137 4515.35 500.828 4511.75 511.123 4505.99C516.05 4502.99 521.215 4500.41 526.565 4498.27C521.005 4503.62 518.329 4508.15 519.77 4510.72C522.138 4515.05 532.638 4508.25 554.669 4512.88C573.817 4517 576.699 4524.52 586.067 4523.8C590.61 4522.89 594.923 4521.07 598.745 4518.45C602.567 4515.84 605.819 4512.47 608.304 4508.56C610.465 4512.16 603.98 4519.27 602.642 4520.71Z" fill="#282724"/>
<path opacity="0.1" d="M661.733 4539.23C661.39 4540.36 660.78 4541.39 659.956 4542.23C659.132 4543.07 658.117 4543.7 656.998 4544.07C650.718 4546.03 644.85 4539.65 626.938 4534.7C614.584 4531.31 609.848 4532.34 607.171 4529.15C602.23 4523.28 611.186 4511.54 618.598 4511.44C617.373 4512.93 616.481 4514.67 615.984 4516.53C615.487 4518.4 615.395 4520.35 615.716 4522.25C617.466 4525.95 624.054 4523.07 636.922 4529.35C647.731 4534.6 648.247 4539.13 654.32 4540.06C656.822 4540.33 659.352 4540.05 661.733 4539.23Z" fill="#282724"/>
<path d="M490.591 4561.68C492.583 4566.3 506.557 4561.24 528.294 4563.24C559.619 4566.13 569.852 4580.27 585.928 4573.49C592.439 4570.46 597.898 4565.55 601.607 4559.4C602.974 4557.16 610.246 4545.52 606.046 4541.21C601.199 4536.24 587.29 4547.38 561.881 4546.12C555.055 4546.23 548.312 4544.62 542.271 4541.44C534.82 4536.92 534.914 4532.23 529.567 4531.11C523.602 4529.87 517.931 4534.87 506.243 4544.33C495.838 4552.75 489.098 4558.21 490.591 4561.68Z" fill="#FFEECC" stroke="#282724" stroke-miterlimit="10"/>
<path d="M617.816 4545.71C624.05 4545.54 623.538 4556.74 636.61 4565.63C649.188 4574.19 661.684 4571.99 663.538 4578.73C663.893 4580.63 663.63 4582.59 662.789 4584.33C661.948 4586.06 660.572 4587.49 658.864 4588.38C652.498 4591.55 646.163 4583 627.384 4577.26C614.451 4573.32 609.631 4574.99 606.699 4570.74C601.242 4562.84 610.204 4545.92 617.816 4545.71Z" fill="#FFEECC" stroke="#282724" stroke-miterlimit="10"/>
<path opacity="0.1" d="M601.612 4559.41C597.886 4565.54 592.446 4570.44 585.964 4573.51C569.802 4580.3 559.609 4566.1 528.313 4563.22C506.594 4561.26 492.59 4566.31 490.635 4561.67C489.09 4558.17 495.884 4552.72 506.282 4544.38C510.857 4540.46 515.634 4536.79 520.591 4533.36C516.783 4541.7 515.547 4549.11 517.812 4552.2C521.312 4556.84 531.401 4548.39 550.961 4552.92C566.3 4556.42 570.727 4564.14 579.992 4561.67C584.102 4560.21 587.753 4557.69 590.574 4554.37C593.395 4551.04 595.284 4547.03 596.051 4542.73C596.17 4542.19 596.239 4541.64 596.257 4541.09C600.993 4539.75 604.184 4539.34 606.037 4541.19C610.26 4545.51 602.951 4557.14 601.612 4559.41Z" fill="#282724"/>
<path opacity="0.1" d="M663.691 4579.79C663.827 4581.54 663.438 4583.28 662.576 4584.8C661.714 4586.32 660.418 4587.55 658.852 4588.33C652.469 4591.53 646.19 4582.98 627.35 4577.22C614.482 4573.31 609.644 4574.95 606.658 4570.73C601.202 4562.81 610.158 4545.92 617.776 4545.72C618.564 4545.7 619.343 4545.88 620.044 4546.24C620.745 4546.6 621.345 4547.13 621.791 4547.78C619.59 4548.74 617.68 4550.26 616.252 4552.2C614.825 4554.13 613.931 4556.4 613.659 4558.79C613.869 4560.78 614.697 4562.65 616.027 4564.14C620.659 4569.5 627.453 4566.51 635.895 4569.19C646.807 4572.69 646.396 4580.92 653.911 4582.06C657.326 4582.32 660.742 4581.53 663.691 4579.79Z" fill="#282724"/>
</svg>
