<svg width="752" height="4633" viewBox="0 0 752 4633" fill="none" xmlns="http://www.w3.org/2000/svg">
<path d="M552.758 550.884C541.127 590.923 503.865 609.759 501.497 610.994C480.972 620.728 457.776 623.301 435.617 618.302C437.721 608.501 440.933 598.97 445.189 589.894C455.38 568.279 463.615 566.221 469.071 548.311C474.114 531.945 469.482 525.975 476.791 520.008C484.614 513.421 493.363 517.745 505.407 509.304C511.995 504.776 512.303 501.584 517.862 496.027C527.24 487.483 539.035 482.054 551.624 480.484C553.62 488.219 554.997 496.101 555.741 504.055C557.701 519.713 556.688 535.6 552.758 550.884Z" fill="black"/>
<path d="M49.2125 4158.58C43.1552 4169.8 40.2244 4182.43 40.7272 4195.17C41.23 4207.9 45.1479 4220.27 52.0704 4230.97C86.1765 4278.66 198.927 4269.56 233.865 4210.92C236.166 4207.06 254.216 4175.8 240.974 4150.69C215.252 4101.92 82.7427 4097.76 49.2125 4158.58Z" fill="black"/>
<path d="M187.466 2355.17C180.165 2366.21 175.417 2378.74 173.567 2391.85C171.717 2404.95 172.81 2418.31 176.769 2430.94C187.505 2463.46 217.038 2479.28 235.603 2488.88C305.505 2525.02 424.678 2532.85 460.244 2471.05C475.707 2444.18 473.054 2408.17 459.352 2381.91C414.063 2295.11 234.364 2288.58 187.466 2355.17Z" fill="black"/>
<path d="M552.758 550.884C541.127 590.923 503.865 609.759 501.497 610.994C480.972 620.728 457.776 623.301 435.617 618.302C437.721 608.501 440.933 598.97 445.189 589.894C455.38 568.279 463.615 566.221 469.071 548.311C474.114 531.945 469.482 525.975 476.791 520.008C484.614 513.421 493.363 517.745 505.407 509.304C511.995 504.776 512.303 501.584 517.862 496.027C527.24 487.483 539.035 482.054 551.624 480.484C553.62 488.219 554.997 496.101 555.741 504.055C557.701 519.713 556.688 535.6 552.758 550.884Z" stroke="black" stroke-miterlimit="10"/>
<path d="M49.2125 4158.58C43.1552 4169.8 40.2244 4182.43 40.7272 4195.17C41.23 4207.9 45.1479 4220.27 52.0704 4230.97C86.1765 4278.66 198.927 4269.56 233.865 4210.92C236.166 4207.06 254.216 4175.8 240.974 4150.69C215.252 4101.92 82.7427 4097.76 49.2125 4158.58Z" stroke="black" stroke-miterlimit="10"/>
<path d="M187.466 2355.17C180.165 2366.21 175.417 2378.74 173.567 2391.85C171.717 2404.95 172.81 2418.31 176.769 2430.94C187.505 2463.46 217.038 2479.28 235.603 2488.88C305.505 2525.02 424.678 2532.85 460.244 2471.05C475.707 2444.18 473.054 2408.17 459.352 2381.91C414.063 2295.11 234.364 2288.58 187.466 2355.17Z" stroke="black" stroke-miterlimit="10"/>
</svg>
