<svg width="752" height="4634" viewBox="0 0 752 4634" fill="none" xmlns="http://www.w3.org/2000/svg">
<path d="M466.392 2575.01C461.1 2588.84 454.874 2602.29 447.758 2615.27C400.5 2705.45 369.201 2970.45 339.137 3225.46C327.091 3327.79 315.664 3423.94 305.676 3511.76V3512.17C279.525 3742.89 262.743 3915.95 267.274 3992.13C267.479 3995.22 267.685 3998.1 267.994 4000.88C268.097 4002.63 268.303 4004.28 268.509 4005.92C268.492 4006.14 268.528 4006.35 268.612 4006.54C268.715 4007.47 268.92 4008.4 269.024 4009.22C269.435 4011.9 269.847 4014.37 270.259 4016.73C270.362 4017.15 270.465 4017.66 270.568 4018.28C270.98 4019.93 271.495 4022.29 271.907 4025.07C272.215 4026.82 272.524 4028.78 272.73 4030.94C273.039 4032.69 273.245 4034.65 273.451 4036.6C273.554 4037.63 273.657 4038.66 273.657 4039.69C273.554 4039.8 273.657 4040 273.657 4040.1C273.645 4040.45 273.68 4040.8 273.76 4041.13C273.694 4041.72 273.729 4042.31 273.863 4042.88C273.847 4043.78 273.882 4044.67 273.965 4045.56C273.965 4046.59 274.068 4047.62 274.068 4048.75V4049.99C274.171 4067.59 270.877 4087.98 257.184 4101.88C246.888 4112.27 229.179 4120.72 215.795 4115.77C215.781 4115.77 215.767 4115.77 215.755 4115.77C215.742 4115.76 215.731 4115.75 215.721 4115.74C215.712 4115.73 215.704 4115.72 215.699 4115.71C215.694 4115.7 215.691 4115.68 215.692 4115.67C210.868 4110.06 207.006 4103.7 204.264 4096.83C183.981 4049.99 204.264 3989.97 212.603 3962.27C248.02 3843.98 234.224 3716.32 245.447 3593.4C245.447 3593.09 245.55 3592.78 245.55 3592.37C245.533 3592.06 245.568 3591.75 245.652 3591.44V3591.34C245.652 3591.03 245.755 3590.62 245.755 3590.31C245.858 3589.28 245.961 3588.15 246.064 3586.81C246.167 3585.78 246.27 3584.55 246.373 3583.21V3582.9C246.476 3582.49 246.476 3582.08 246.579 3581.66V3580.74C246.682 3580.33 246.682 3579.91 246.785 3579.5C246.808 3578.85 246.876 3578.19 246.99 3577.55C247.093 3576.41 247.196 3575.18 247.3 3574.15C247.283 3573.7 247.317 3573.25 247.403 3572.81C247.528 3572.17 247.596 3571.51 247.608 3570.85C247.659 3570.78 247.686 3570.69 247.686 3570.6C247.686 3570.51 247.659 3570.42 247.608 3570.34V3570.24L247.917 3567.77C248.02 3566.63 248.226 3565.4 248.329 3564.27C248.535 3562.62 248.638 3560.87 248.844 3559.12C248.946 3558.71 248.946 3558.19 249.049 3557.68C249.256 3556.13 249.359 3554.69 249.564 3553.25C249.582 3552.7 249.651 3552.14 249.771 3551.6C249.874 3550.68 249.977 3549.85 250.08 3548.93V3548.62C250.285 3547.38 250.388 3546.04 250.594 3544.71C251.212 3539.04 251.933 3533.28 252.756 3526.48C253.169 3523.39 253.58 3520.1 253.992 3516.5C254.198 3514.95 254.404 3513.31 254.61 3511.66C254.815 3509.81 255.022 3507.95 255.228 3505.89C255.433 3504.25 255.639 3502.5 255.845 3500.75C256.051 3498.89 256.36 3496.94 256.565 3494.88C257.184 3489.52 257.801 3483.76 258.522 3477.27C258.934 3474.08 259.243 3470.68 259.655 3467.18C260.066 3463.58 260.478 3459.87 260.89 3455.96C264.081 3426.52 267.444 3397.07 270.98 3367.63C271.083 3366.4 271.289 3365.06 271.391 3363.72C274.995 3333.66 278.701 3303.6 282.511 3273.53C282.614 3272.61 282.717 3271.78 282.82 3270.96C286.115 3245.12 289.41 3219.18 292.807 3193.34C296.204 3167.49 299.701 3141.65 303.205 3115.81C303.72 3111.59 304.234 3107.47 304.853 3103.36C307.839 3081.63 310.721 3059.91 313.708 3038.29C331.519 2909.09 349.845 2779.88 366.525 2650.58C366.627 2649.75 366.83 2648.52 367.039 2646.77C367.245 2645.84 367.348 2644.71 367.554 2643.47C368.934 2635.75 370.791 2628.12 373.113 2620.62C373.731 2618.56 374.452 2616.5 375.276 2614.34C376.099 2611.66 377.129 2608.99 378.261 2606.21C379.085 2604.35 379.805 2602.5 380.63 2600.65C381.762 2598.07 382.895 2595.71 384.026 2593.23C384.233 2592.93 384.336 2592.51 384.542 2592.21C385.159 2590.87 385.777 2589.53 386.498 2588.19L386.807 2587.57C387.143 2587.02 387.419 2586.43 387.63 2585.82C387.836 2585.51 387.939 2585.21 388.146 2584.9C388.171 2584.74 388.243 2584.6 388.351 2584.48C397.927 2565.13 412.443 2539.6 436.844 2531.36H436.947C438.492 2530.85 440.036 2530.43 441.683 2530.02C442.241 2529.92 442.791 2529.79 443.331 2529.61C449.611 2528.27 461.348 2526.21 467.834 2532.49C475.968 2540.32 472.571 2557.92 466.392 2575.01Z" fill="#FFEECC" stroke="#282724" stroke-miterlimit="10"/>
<path opacity="0.05" d="M467.834 2532.49C461.348 2526.21 449.611 2528.27 443.331 2529.61C443.742 2529.41 444.154 2529.1 444.669 2528.89C443.227 2529.41 442.198 2529.82 441.683 2530.02C438.191 2531.43 434.787 2533.04 431.491 2534.86C431.491 2534.88 431.489 2534.89 431.483 2534.9C431.478 2534.91 431.471 2534.93 431.461 2534.94C431.452 2534.94 431.44 2534.95 431.427 2534.96C431.415 2534.96 431.401 2534.97 431.388 2534.96C414.151 2545.66 400.244 2560.96 391.234 2579.13C390.308 2580.88 389.278 2582.63 388.351 2584.48C388.243 2584.6 388.171 2584.74 388.146 2584.9C387.939 2585.21 387.836 2585.51 387.63 2585.82C387.419 2586.43 387.143 2587.02 386.807 2587.57L386.498 2588.19C385.777 2589.53 385.159 2590.87 384.542 2592.21C384.336 2592.51 384.233 2592.93 384.026 2593.23C382.895 2595.71 381.762 2598.07 380.63 2600.65C379.805 2602.5 379.085 2604.35 378.261 2606.21C377.129 2608.99 376.099 2611.66 375.276 2614.34C374.452 2616.5 373.731 2618.56 373.113 2620.62C370.791 2628.12 368.934 2635.75 367.554 2643.47C367.348 2644.71 367.245 2645.84 367.039 2646.77C366.833 2648.52 366.627 2649.75 366.525 2650.58C349.845 2779.88 331.519 2909.09 313.708 3038.29C310.721 3059.91 307.839 3081.63 304.853 3103.36C304.234 3107.47 303.72 3111.59 303.205 3115.81C299.704 3141.65 296.238 3167.49 292.807 3193.33C289.409 3219.18 286.115 3245.12 282.82 3270.96C282.717 3271.78 282.614 3272.61 282.511 3273.53C278.702 3303.59 274.995 3333.66 271.391 3363.72C271.289 3365.06 271.083 3366.4 270.98 3367.63C267.479 3397.07 264.116 3426.52 260.89 3455.96C260.478 3459.87 260.066 3463.58 259.655 3467.18C259.243 3470.68 258.934 3474.08 258.522 3477.27C257.801 3483.76 257.184 3489.52 256.565 3494.88C256.36 3496.94 256.051 3498.89 255.845 3500.74C255.639 3502.49 255.433 3504.25 255.228 3505.89C255.022 3507.95 254.815 3509.81 254.61 3511.66C254.404 3513.31 254.198 3514.95 253.992 3516.5C253.58 3520.1 253.169 3523.39 252.756 3526.48C251.933 3533.28 251.212 3539.04 250.594 3544.71C250.388 3546.04 250.285 3547.38 250.08 3548.62V3548.93C249.977 3549.85 249.874 3550.68 249.771 3551.6C249.651 3552.14 249.582 3552.7 249.564 3553.25C249.359 3554.69 249.256 3556.13 249.049 3557.68C248.946 3558.19 248.946 3558.71 248.844 3559.12C248.638 3560.87 248.535 3562.62 248.329 3564.27C248.226 3565.4 248.02 3566.63 247.917 3567.77L247.608 3570.24V3570.34C247.659 3570.42 247.686 3570.51 247.686 3570.6C247.686 3570.69 247.659 3570.78 247.608 3570.85C247.596 3571.51 247.528 3572.17 247.403 3572.81C247.317 3573.25 247.283 3573.7 247.3 3574.15C247.18 3574.69 247.111 3575.24 247.093 3575.8C247.093 3576.41 246.99 3577.03 246.99 3577.55C246.876 3578.19 246.808 3578.85 246.785 3579.5C246.682 3579.91 246.682 3580.33 246.579 3580.74V3581.66C246.476 3582.08 246.476 3582.49 246.373 3582.9V3583.21C246.27 3584.55 246.167 3585.78 246.064 3586.81C245.961 3588.15 245.858 3589.28 245.755 3590.31C245.755 3590.62 245.652 3591.03 245.652 3591.34V3591.44C245.568 3591.75 245.533 3592.06 245.55 3592.37C245.55 3592.78 245.447 3593.09 245.447 3593.4C234.224 3716.32 248.02 3843.98 212.603 3962.27C204.264 3989.97 183.981 4049.99 204.264 4096.83C207.006 4103.7 210.868 4110.06 215.692 4115.67C215.691 4115.68 215.694 4115.7 215.699 4115.71C215.704 4115.72 215.712 4115.73 215.721 4115.74C215.731 4115.75 215.742 4115.76 215.755 4115.77C215.767 4115.77 215.781 4115.77 215.795 4115.77C229.179 4120.71 246.888 4112.27 257.184 4101.87C270.877 4087.98 274.171 4067.59 274.068 4049.99V4048.75C274.068 4047.62 273.965 4046.59 273.965 4045.56C273.882 4044.67 273.847 4043.78 273.863 4042.88C273.729 4042.31 273.694 4041.72 273.76 4041.13C273.68 4040.8 273.645 4040.45 273.657 4040.1C273.657 4040 273.554 4039.79 273.657 4039.69C273.657 4038.66 273.554 4037.63 273.451 4036.6C273.245 4034.65 273.039 4032.69 272.73 4030.94C272.524 4028.78 272.215 4026.82 271.907 4025.07C271.495 4022.29 270.98 4019.93 270.568 4018.28C270.465 4017.66 270.362 4017.15 270.259 4016.73C269.847 4014.37 269.435 4011.9 269.024 4009.22C268.612 4006.64 268.303 4003.87 267.994 4000.88C267.685 3998.1 267.479 3995.22 267.274 3992.13C262.743 3915.95 279.525 3742.89 305.676 3512.17V3511.76C310 3408.71 314.325 3303.08 321.017 3212.89C352.728 2784.72 397.617 2667.36 439.006 2613.31C443.022 2608.06 455.685 2592 466.392 2575.01C472.571 2557.92 475.968 2540.32 467.834 2532.49Z" fill="#282724"/>
<path opacity="0.1" d="M431.077 2552.26C416.56 2573.67 402.352 2577.89 403.484 2588.29C404.308 2595.81 412.03 2596.32 414.604 2605.79C418.002 2618.46 407.911 2631.22 406.471 2633.28C394.116 2650.89 333.682 2853.39 307.324 3219.38C275.719 3656.72 259.139 3894.94 267.274 3992.13C267.479 3995.22 267.685 3998.1 267.994 4000.88C268.303 4003.87 268.612 4006.65 269.024 4009.22C269.435 4011.9 269.847 4014.37 270.259 4016.74C270.362 4017.15 270.465 4017.66 270.568 4018.28C271.391 4022.81 272.833 4030.43 273.657 4039.69C273.554 4039.8 273.657 4040 273.657 4040.11C273.645 4040.45 273.679 4040.8 273.76 4041.13C273.694 4041.72 273.729 4042.31 273.863 4042.88C273.847 4043.78 273.882 4044.67 273.965 4045.56C273.965 4046.59 274.068 4047.62 274.068 4048.75V4049.99C274.171 4067.59 270.876 4087.98 257.184 4101.88C246.888 4112.27 229.178 4120.72 215.795 4115.77C215.781 4115.77 215.768 4115.77 215.755 4115.77C215.742 4115.76 215.731 4115.75 215.721 4115.74C215.712 4115.73 215.704 4115.72 215.699 4115.71C215.694 4115.7 215.691 4115.68 215.691 4115.67C210.867 4110.07 207.006 4103.7 204.264 4096.83C183.981 4049.99 204.264 3989.97 212.603 3962.28C248.02 3843.99 234.224 3716.33 245.447 3593.4C245.447 3593.09 245.55 3592.78 245.55 3592.37C245.533 3592.06 245.568 3591.75 245.652 3591.45V3591.34C245.652 3591.03 245.755 3590.62 245.755 3590.31C245.858 3589.28 245.961 3588.15 246.064 3586.81C246.167 3585.78 246.27 3584.55 246.373 3583.21V3582.9C246.476 3582.39 246.476 3581.77 246.579 3581.15V3580.74C246.785 3579.2 246.888 3577.55 247.093 3575.8C247.111 3575.24 247.18 3574.69 247.3 3574.15C247.283 3573.7 247.317 3573.25 247.403 3572.81C247.528 3572.17 247.596 3571.51 247.608 3570.86C247.659 3570.78 247.686 3570.69 247.686 3570.6C247.686 3570.51 247.659 3570.42 247.608 3570.34V3570.24L247.917 3567.77C248.02 3566.64 248.226 3565.4 248.329 3564.27C248.535 3562.62 248.638 3560.87 248.844 3559.12C248.946 3558.71 248.946 3558.19 249.049 3557.68C249.256 3556.13 249.359 3554.69 249.565 3553.25C249.582 3552.7 249.651 3552.15 249.771 3551.6C249.874 3550.68 249.977 3549.85 250.079 3548.93V3548.62C250.285 3547.38 250.388 3546.04 250.594 3544.71C251.212 3539.04 251.933 3533.28 252.756 3526.48C253.168 3523.4 253.58 3520.1 253.992 3516.5C254.198 3514.95 254.403 3513.31 254.61 3511.66C254.815 3509.81 255.022 3507.95 255.228 3505.89C255.433 3504.25 255.639 3502.5 255.845 3500.75C256.051 3498.89 256.36 3496.94 256.565 3494.88C257.184 3489.53 257.801 3483.76 258.522 3477.27C258.934 3474.08 259.242 3470.69 259.655 3467.18C260.066 3463.58 260.478 3459.88 260.89 3455.96C264.081 3426.52 267.444 3397.07 270.98 3367.63C271.083 3366.4 271.289 3365.06 271.391 3363.72C274.995 3333.66 278.701 3303.6 282.511 3273.53C282.614 3272.61 282.717 3271.78 282.82 3270.96C286.115 3245.12 289.409 3219.18 292.807 3193.34C296.204 3167.5 299.701 3141.65 303.205 3115.81C303.72 3111.59 304.234 3107.47 304.853 3103.36C307.839 3081.63 310.721 3059.91 313.707 3038.29C331.519 2909.09 349.845 2779.89 366.525 2650.58C366.627 2649.76 366.83 2648.52 367.039 2646.77C367.245 2645.84 367.348 2644.71 367.554 2643.48C368.934 2635.75 370.791 2628.12 373.113 2620.62C373.731 2618.56 374.451 2616.5 375.276 2614.34C376.099 2611.66 377.129 2608.99 378.261 2606.21C379.085 2604.35 379.805 2602.5 380.63 2600.65C381.762 2598.08 382.895 2595.71 384.026 2593.24C384.233 2592.93 384.336 2592.52 384.542 2592.21C395.77 2569.92 411.763 2550.38 431.388 2534.97C431.401 2534.97 431.415 2534.96 431.427 2534.96C431.44 2534.95 431.451 2534.95 431.461 2534.94C431.471 2534.93 431.478 2534.92 431.483 2534.9C431.488 2534.89 431.491 2534.88 431.491 2534.86C433.549 2533.42 435.403 2532.19 436.844 2531.36H436.947C439.418 2530.02 441.066 2529.51 441.683 2530.02C443.638 2531.67 436.019 2544.95 431.077 2552.26Z" fill="#282724"/>
</svg>
