<svg width="752" height="4633" viewBox="0 0 752 4633" fill="none" xmlns="http://www.w3.org/2000/svg">
<path d="M302.047 2325.17C300.524 2330.04 300.07 2335.18 300.714 2340.24C300.861 2349.29 302.11 2358.28 304.431 2367.03C307.043 2379.3 310.862 2391.28 315.835 2402.8C322.606 2417.56 338.337 2451.88 359.938 2452.35C370.735 2452.58 380.208 2441.89 399.162 2420.5C411.846 2406.18 422.504 2393.91 428.663 2374.94C431.949 2363.89 433.903 2352.5 434.483 2340.99C435.372 2336.55 435.33 2331.97 434.361 2327.55C428.966 2316.43 407.299 2320.72 365.857 2319.89C327.77 2319.12 307.774 2314.73 302.047 2325.17Z" fill="black"/>
<path d="M434.897 2329.39C434.85 2328.74 434.675 2328.11 434.383 2327.54C433.964 2326.72 433.445 2325.96 432.838 2325.27C432.247 2324.59 431.552 2324 430.78 2323.52C430.165 2323.08 429.51 2322.71 428.824 2322.39C428.721 2322.39 428.721 2322.29 428.618 2322.29H428.515C428.001 2322.08 427.589 2321.98 427.074 2321.77C426.972 2321.67 426.766 2321.67 426.56 2321.57C423.234 2320.66 419.814 2320.14 416.369 2320.02C412.354 2319.71 407.722 2319.71 402.473 2319.82H402.37C394.341 2319.82 384.974 2320.12 373.96 2320.02H373.857C371.283 2320.02 368.607 2320.02 365.828 2319.92C364.592 2319.92 363.357 2319.82 362.225 2319.82C360.372 2319.71 358.623 2319.71 356.872 2319.61C355.225 2319.61 353.476 2319.51 351.828 2319.4C346.167 2319.2 341.02 2318.99 336.388 2318.79C335.256 2318.79 334.227 2318.68 333.197 2318.68C331.036 2318.58 329.08 2318.58 327.227 2318.48H325.58C323.11 2318.38 320.742 2318.38 318.684 2318.48C316.751 2318.48 314.822 2318.65 312.919 2318.99C311.587 2319.17 310.277 2319.48 309.008 2319.92C308.03 2320.2 307.095 2320.62 306.228 2321.15C305.926 2321.23 305.645 2321.37 305.405 2321.57C305.21 2321.79 304.963 2321.97 304.685 2322.08C304.223 2322.44 303.808 2322.85 303.449 2323.32C302.922 2323.87 302.472 2324.49 302.111 2325.17C301.809 2325.69 301.568 2326.24 301.391 2326.82C300.733 2330.27 300.491 2333.8 300.67 2337.31C300.757 2338.27 300.792 2339.23 300.773 2340.2C300.773 2341.23 300.773 2342.25 300.876 2343.28C300.859 2344.25 300.893 2345.21 300.978 2346.17V2346.27C301.184 2349.25 301.494 2352.03 301.905 2354.71C302.626 2359.03 303.552 2363.15 304.478 2367.06C304.89 2368.6 305.199 2370.05 305.611 2371.59C306.125 2373.85 306.743 2376.12 307.258 2378.28C307.463 2379 307.669 2379.72 307.876 2380.44C308.287 2381.99 308.698 2383.43 309.214 2384.87C309.625 2386.31 310.037 2387.85 310.551 2389.29C310.861 2390.12 311.17 2390.94 311.478 2391.76C312.749 2395.51 314.226 2399.19 315.904 2402.78C316.728 2404.63 317.654 2406.79 318.787 2409.16C319.404 2410.29 319.919 2411.53 320.536 2412.76C321.875 2415.33 323.213 2418.01 324.756 2420.69C325.786 2422.54 326.918 2424.5 328.05 2426.35C329.183 2428.2 330.315 2429.95 331.551 2431.7C332.876 2433.76 334.356 2435.73 335.977 2437.57C336.929 2438.89 337.996 2440.13 339.168 2441.27C340.11 2442.32 341.107 2443.31 342.152 2444.26C343.037 2445.06 343.965 2445.82 344.932 2446.52C345.955 2447.3 347.02 2448.02 348.123 2448.68C348.329 2448.79 348.637 2448.99 348.844 2449.1C349.668 2449.6 350.529 2450.05 351.417 2450.43C351.828 2450.54 352.137 2450.74 352.549 2450.84C352.652 2450.84 352.652 2450.84 352.755 2450.95C353.789 2451.35 354.857 2451.66 355.946 2451.87C357.26 2452.2 358.607 2452.37 359.961 2452.39C370.769 2452.59 380.239 2441.89 399.179 2420.48C402.37 2416.88 405.458 2413.38 408.237 2409.98C409.576 2408.54 410.811 2407 411.943 2405.56C412.148 2405.34 412.321 2405.1 412.457 2404.84C413.796 2403.09 415.134 2401.23 416.369 2399.48C421.665 2391.98 425.795 2383.72 428.618 2374.99L428.721 2374.88C429.03 2373.85 429.442 2372.72 429.647 2371.69C429.854 2370.97 430.06 2370.35 430.265 2369.63C431.688 2364.02 432.72 2358.31 433.354 2352.55C433.456 2351.83 433.559 2351.11 433.659 2350.49C433.865 2348.43 434.071 2346.47 434.174 2344.62C434.277 2343.39 434.38 2342.15 434.483 2341.02C434.586 2340.3 434.586 2339.58 434.689 2338.86C434.791 2337.42 434.894 2336.08 434.894 2334.95C435.105 2333.1 435.106 2331.24 434.897 2329.39ZM395.064 2397.63C386.52 2410.29 377.564 2419.35 373.347 2417.91C368.51 2416.16 373.965 2402.26 370.053 2383.32H369.95V2383.22C369.014 2378.12 367.386 2373.16 365.113 2368.5C354.51 2345.65 336.909 2340.09 339.79 2332.68C341.849 2327.43 352.246 2326.4 366.143 2327.33C376.642 2327.95 389.201 2329.59 401.655 2331.24C402.489 2331.31 403.315 2331.45 404.126 2331.65H404.229C409.684 2332.48 411.64 2333.09 413.39 2334.95C414.089 2335.66 414.647 2336.5 415.037 2337.42V2337.52C418.125 2343.69 416.375 2354.09 412.052 2365.41C407.608 2376.75 401.909 2387.56 395.061 2397.63H395.064Z" fill="black"/>
</svg>
