<svg width="752" height="4634" viewBox="0 0 752 4634" fill="none" xmlns="http://www.w3.org/2000/svg">
<path d="M302.112 2325.67C300.589 2330.54 300.134 2335.68 300.778 2340.74C300.926 2349.79 302.175 2358.79 304.496 2367.53C307.109 2379.81 310.929 2391.8 315.903 2403.32C322.675 2418.08 338.41 2452.41 360.016 2452.87C370.815 2453.11 380.29 2442.41 399.248 2421.02C411.934 2406.7 422.595 2394.42 428.756 2375.45C432.042 2364.4 433.996 2353 434.577 2341.49C435.466 2337.05 435.424 2332.47 434.455 2328.05C429.059 2316.93 407.386 2321.22 365.936 2320.39C327.84 2319.62 307.84 2315.22 302.112 2325.67Z" fill="#FFEECC" stroke="#282724" stroke-miterlimit="10"/>
<path opacity="0.05" d="M434.991 2329.89C434.944 2329.24 434.769 2328.61 434.477 2328.03C434.058 2327.22 433.539 2326.46 432.932 2325.77C432.34 2325.08 431.646 2324.49 430.873 2324.02C430.258 2323.58 429.603 2323.2 428.917 2322.89C428.814 2322.89 428.814 2322.78 428.711 2322.78H428.608C428.093 2322.58 427.681 2322.48 427.167 2322.27C427.064 2322.17 426.858 2322.17 426.652 2322.06C423.326 2321.15 419.905 2320.64 416.459 2320.52C412.443 2320.21 407.81 2320.21 402.56 2320.31H402.457C394.426 2320.31 385.057 2320.62 374.041 2320.52H373.938C371.363 2320.52 368.687 2320.52 365.907 2320.42C364.671 2320.42 363.436 2320.31 362.304 2320.31C360.45 2320.21 358.7 2320.21 356.95 2320.11C355.302 2320.11 353.552 2320 351.904 2319.9C346.241 2319.7 341.094 2319.49 336.461 2319.28C335.329 2319.28 334.299 2319.18 333.269 2319.18C331.107 2319.08 329.151 2319.08 327.298 2318.98H325.651C323.18 2318.87 320.812 2318.87 318.753 2318.98C316.819 2318.97 314.89 2319.15 312.987 2319.49C311.655 2319.67 310.344 2319.98 309.075 2320.42C308.097 2320.7 307.162 2321.12 306.294 2321.65C305.992 2321.73 305.711 2321.87 305.471 2322.06C305.276 2322.29 305.029 2322.47 304.751 2322.58C304.288 2322.94 303.873 2323.35 303.515 2323.81C302.988 2324.37 302.537 2324.99 302.176 2325.67C301.875 2326.19 301.633 2326.74 301.456 2327.31C300.798 2330.77 300.556 2334.3 300.735 2337.81C300.822 2338.77 300.857 2339.74 300.838 2340.7C300.838 2341.73 300.838 2342.76 300.941 2343.79C300.924 2344.75 300.958 2345.71 301.043 2346.67V2346.77C301.25 2349.76 301.559 2352.54 301.97 2355.21C302.691 2359.54 303.617 2363.66 304.544 2367.57C304.956 2369.11 305.265 2370.55 305.677 2372.1C306.191 2374.36 306.809 2376.63 307.324 2378.79C307.53 2379.51 307.736 2380.23 307.942 2380.95C308.354 2382.5 308.765 2383.94 309.281 2385.38C309.692 2386.82 310.104 2388.36 310.618 2389.81C310.928 2390.63 311.237 2391.45 311.546 2392.28C312.816 2396.03 314.294 2399.71 315.972 2403.29C316.796 2405.15 317.723 2407.31 318.856 2409.67C319.473 2410.81 319.988 2412.04 320.606 2413.28C321.944 2415.85 323.283 2418.53 324.827 2421.21C325.856 2423.06 326.989 2425.02 328.121 2426.87C329.254 2428.72 330.387 2430.47 331.622 2432.22C332.948 2434.29 334.428 2436.25 336.049 2438.09C337.001 2439.42 338.069 2440.66 339.241 2441.8C340.184 2442.84 341.181 2443.84 342.226 2444.78C343.111 2445.59 344.039 2446.34 345.007 2447.05C346.03 2447.83 347.095 2448.55 348.198 2449.21C348.404 2449.31 348.713 2449.52 348.919 2449.62C349.744 2450.13 350.604 2450.57 351.493 2450.96C351.904 2451.06 352.214 2451.26 352.625 2451.37C352.728 2451.37 352.728 2451.37 352.831 2451.47C353.865 2451.88 354.933 2452.19 356.023 2452.4C357.338 2452.72 358.685 2452.9 360.039 2452.91C370.849 2453.12 380.321 2442.41 399.265 2421C402.457 2417.4 405.546 2413.9 408.326 2410.5C409.664 2409.06 410.9 2407.51 412.032 2406.07C412.237 2405.86 412.41 2405.61 412.547 2405.35C413.885 2403.6 415.224 2401.75 416.459 2400C421.756 2392.5 425.887 2384.23 428.711 2375.5L428.814 2375.39C429.123 2374.36 429.535 2373.23 429.74 2372.2C429.946 2371.48 430.153 2370.86 430.358 2370.14C431.781 2364.52 432.814 2358.81 433.447 2353.05C433.55 2352.33 433.653 2351.61 433.752 2350.99C433.959 2348.93 434.164 2346.98 434.267 2345.12C434.371 2343.89 434.474 2342.65 434.577 2341.52C434.68 2340.8 434.68 2340.08 434.783 2339.36C434.885 2337.92 434.988 2336.58 434.988 2335.45C435.199 2333.6 435.2 2331.74 434.991 2329.89ZM395.149 2398.14C386.603 2410.81 377.646 2419.87 373.428 2418.43C368.589 2416.68 374.046 2402.78 370.133 2383.83H370.03V2383.73C369.094 2378.63 367.466 2373.67 365.192 2369.01C354.587 2346.15 336.982 2340.59 339.864 2333.18C341.923 2327.93 352.322 2326.9 366.222 2327.83C376.724 2328.45 389.285 2330.09 401.742 2331.74C402.576 2331.81 403.402 2331.95 404.213 2332.15H404.316C409.773 2332.98 411.729 2333.59 413.479 2335.45C414.178 2336.16 414.737 2337 415.127 2337.92V2338.02C418.215 2344.2 416.465 2354.59 412.141 2365.92C407.697 2377.26 401.996 2388.07 395.147 2398.14H395.149Z" fill="#282724"/>
</svg>
