<svg width="752" height="4634" viewBox="0 0 752 4634" fill="none" xmlns="http://www.w3.org/2000/svg">
<path d="M489.534 4458.42C488.452 4452.35 474.842 4454.46 449.827 4444.13C431.411 4436.15 414.321 4425.41 399.15 4412.27C386.099 4400.97 372.314 4390.54 357.887 4381.06C352.285 4377.25 345.804 4374.93 339.055 4374.32C331.867 4373.78 319.168 4375.03 316.624 4381.06C311.96 4392.13 343.189 4415.13 351.409 4421.19C385.24 4446.11 396.038 4438.46 423.832 4462.87C432.609 4470.58 436.825 4475.96 446.665 4477.6C466.046 4480.82 491.02 4466.76 489.534 4458.42Z" fill="#FFEECC" stroke="#282724" stroke-miterlimit="10"/>
<path opacity="0.1" d="M489.558 4458.4C491 4466.73 466.085 4480.84 446.625 4477.65C436.844 4476 432.624 4470.54 423.872 4462.82C396.073 4438.42 385.262 4446.14 351.387 4421.23C343.151 4415.16 311.954 4392.1 316.588 4381.08C319.162 4375 331.826 4373.77 339.032 4374.28C343.227 4374.62 347.334 4375.67 351.181 4377.37C348.71 4399.71 406.264 4434.1 450.845 4444.5C475.248 4454.38 488.426 4452.42 489.558 4458.4Z" fill="#282724"/>
<path d="M504.691 4469.61C503.978 4464.55 494.174 4464.17 462.612 4453.54C444.973 4447.92 427.738 4441.11 411.029 4433.14C392.672 4425.21 375.625 4414.55 360.469 4401.5C346.412 4388.78 343.763 4381.75 331.392 4376.95C314.736 4370.47 293.799 4373.19 291.699 4379.84C289.691 4386.2 312.328 4399.61 357.685 4426.15C417.462 4461.15 418.024 4457.13 433.646 4471.08C442.719 4479.18 446.993 4484.74 457.516 4486.83C478.248 4490.93 505.874 4478.01 504.691 4469.61Z" fill="#FFEECC" stroke="#282724" stroke-miterlimit="10"/>
<path opacity="0.1" d="M504.694 4469.61C505.827 4478.06 478.234 4490.93 457.539 4486.81C447.038 4484.75 442.713 4479.19 433.654 4471.06C418.004 4457.16 417.489 4461.17 357.671 4426.17C312.37 4399.61 289.72 4386.23 291.676 4379.84C293.838 4373.15 314.739 4370.47 331.417 4376.96C322.048 4375.42 315.768 4375.21 314.943 4377.47C313.399 4381.28 326.886 4389.62 342.536 4399.2C419.962 4446.66 459.084 4470.44 478.028 4470.13C486.276 4470 494.475 4468.82 502.428 4466.63C503.033 4466.89 503.56 4467.3 503.958 4467.82C504.355 4468.34 504.609 4468.96 504.694 4469.61Z" fill="#282724"/>
<path d="M512.639 4499.91C512.034 4493.99 498.227 4494.98 469.585 4481.98C450.067 4474.16 432.054 4463.02 416.352 4449.04C407.106 4439.82 397.057 4431.45 386.325 4424.02C381.509 4420.25 376.096 4417.32 370.311 4415.34C357.88 4412.42 344.806 4414.2 333.612 4420.34C327.718 4423.14 324.771 4424.54 324.416 4426.99C323.506 4433.26 339.398 4438.91 361.676 4449.93C384.779 4461.35 423.605 4484.07 438.705 4498.2C447.786 4506.7 451.988 4512.45 462.839 4515C484.215 4520.02 513.503 4508.35 512.639 4499.91Z" fill="#FFEECC" stroke="#282724" stroke-miterlimit="10"/>
<path opacity="0.1" d="M512.621 4499.88C513.548 4508.33 484.205 4520.06 462.79 4515.02C451.979 4512.44 447.758 4506.68 438.697 4498.24C423.563 4484.03 384.748 4461.38 361.685 4449.95C339.447 4438.94 323.49 4433.27 324.415 4427C324.723 4424.52 327.709 4423.19 333.578 4420.3C344.114 4414.6 356.285 4412.67 368.068 4414.85C364.773 4415.57 362.817 4416.8 362.303 4418.76C360.449 4425.14 376.203 4431.83 409.972 4457.26C454.244 4490.62 455.376 4500.3 470.305 4502.46C481.999 4503.5 493.704 4500.6 503.561 4494.22C509.429 4496.07 512.312 4497.31 512.621 4499.88Z" fill="#282724"/>
<path d="M507.516 4535.66C506.611 4527.57 491.774 4528.13 462.146 4513.42C438.363 4502.82 416.905 4487.63 399.003 4468.72C382.626 4450.39 378.377 4436.41 357.684 4426.16C350.316 4422.12 342.009 4420.12 333.612 4420.35C315.722 4421.27 296.397 4434.06 296.799 4445.12C297.185 4455.74 315.77 4456.2 349.047 4475.43C374.541 4490.16 404.874 4507.69 430.988 4537.51C440.781 4548.7 445.398 4556.38 456.74 4559.27C479.08 4564.97 508.81 4547.24 507.516 4535.66Z" fill="#FFEECC" stroke="#282724" stroke-miterlimit="10"/>
<path opacity="0.1" d="M507.472 4535.71C508.81 4547.24 479.056 4564.95 456.713 4559.28C445.388 4556.4 440.755 4548.68 430.974 4537.56C404.823 4507.71 374.553 4490.2 349.02 4475.38C315.765 4456.23 297.232 4455.72 296.82 4445.11C296.409 4434.1 315.765 4421.23 333.576 4420.3C339.708 4420.07 345.817 4421.16 351.491 4423.49C349.525 4424.96 348.081 4427.01 347.372 4429.36C343.872 4442.23 368.994 4451.5 418.928 4500.6C450.124 4531.28 452.698 4539.83 465.259 4541.17C477.981 4541.42 490.344 4536.94 499.955 4528.61C504.694 4530.66 507.163 4532.52 507.472 4535.71Z" fill="#282724"/>
<path d="M480.723 4569.6C479.665 4559.29 460.628 4561.1 431.385 4543.03C406.223 4527.49 390.878 4507.97 368.855 4479.95C340.292 4443.61 340.239 4432.4 324.415 4426.99C293.993 4416.59 250.711 4442.83 251.583 4461.45C252.132 4473.16 269.756 4473.12 308.406 4497.64C336.133 4515.23 369.118 4536.16 397.532 4571.75C408.187 4585.09 413.213 4594.25 425.545 4597.71C449.836 4604.52 482.14 4583.4 480.723 4569.6Z" fill="#FFEECC" stroke="#282724" stroke-miterlimit="10"/>
<path opacity="0.1" d="M480.702 4569.58C482.144 4583.38 449.815 4604.48 425.517 4597.69C413.163 4594.29 408.22 4585.13 397.512 4571.74C369.096 4536.12 336.15 4515.22 308.454 4497.62C269.742 4473.12 252.138 4473.12 251.622 4461.48C250.695 4442.85 294.04 4416.6 324.411 4426.99C328.38 4428.25 332.008 4430.39 335.016 4433.27C329.25 4433.89 323.382 4434.72 317.513 4435.85C310.512 4437.19 297.333 4439.86 296.818 4445.11C296.201 4451.5 315.144 4455.92 330.794 4463.64C383.199 4489.79 375.374 4542.2 426.853 4565.26C437.664 4570.1 451.872 4576.37 467.418 4571.85C471.704 4570.64 475.698 4568.58 479.156 4565.77C480.024 4566.87 480.561 4568.19 480.702 4569.58Z" fill="#282724"/>
</svg>
