<svg width="752" height="4633" viewBox="0 0 752 4633" fill="none" xmlns="http://www.w3.org/2000/svg">
<path d="M489.429 4457.46C488.347 4451.39 474.74 4453.5 449.731 4443.18C431.318 4435.2 414.232 4424.45 399.064 4411.32C386.015 4400.02 372.234 4389.6 357.81 4380.12C352.21 4376.31 345.729 4373.99 338.982 4373.38C331.795 4372.84 319.099 4374.09 316.556 4380.12C311.893 4391.18 343.115 4414.18 351.333 4420.24C385.157 4445.16 395.953 4437.5 423.741 4461.91C432.516 4469.62 436.731 4475 446.568 4476.63C465.945 4479.86 490.915 4465.8 489.429 4457.46Z" fill="black"/>
<path d="M489.453 4457.44C490.894 4465.77 465.984 4479.87 446.529 4476.68C436.75 4475.04 432.53 4469.58 423.78 4461.86C395.987 4437.47 385.179 4445.19 351.311 4420.28C343.076 4414.21 311.886 4391.15 316.519 4380.14C319.092 4374.06 331.754 4372.83 338.959 4373.34C343.153 4373.68 347.259 4374.72 351.105 4376.43C348.634 4398.77 406.176 4433.14 450.747 4443.54C475.145 4453.42 488.32 4451.47 489.453 4457.44Z" fill="black"/>
<path d="M504.581 4468.65C503.869 4463.59 494.067 4463.21 462.511 4452.58C444.876 4446.97 427.645 4440.15 410.94 4432.19C392.587 4424.26 375.543 4413.6 360.391 4400.56C346.336 4387.83 343.688 4380.81 331.32 4376C314.667 4369.53 293.735 4372.25 291.636 4378.9C289.628 4385.26 312.26 4398.66 357.607 4425.2C417.371 4460.19 417.933 4456.17 433.552 4470.12C442.622 4478.22 446.896 4483.78 457.417 4485.86C478.144 4489.96 505.764 4477.05 504.581 4468.65Z" fill="black"/>
<path d="M504.586 4468.65C505.718 4477.09 478.132 4489.96 457.441 4485.84C446.942 4483.78 442.618 4478.23 433.561 4470.09C417.915 4456.2 417.4 4460.21 357.595 4425.22C312.304 4398.66 289.658 4385.28 291.613 4378.9C293.775 4372.21 314.672 4369.53 331.346 4376.02C321.979 4374.47 315.7 4374.27 314.876 4376.53C313.332 4380.34 326.816 4388.68 342.463 4398.25C419.872 4445.7 458.985 4469.48 477.925 4469.17C486.172 4469.04 494.369 4467.86 502.321 4465.67C502.925 4465.93 503.452 4466.34 503.85 4466.86C504.247 4467.38 504.501 4468 504.586 4468.65Z" fill="black"/>
<path d="M512.528 4498.94C511.923 4493.03 498.12 4494.02 469.483 4481.01C449.969 4473.2 431.961 4462.06 416.262 4448.08C407.017 4438.87 396.971 4430.5 386.241 4423.06C381.426 4419.3 376.014 4416.37 370.23 4414.39C357.802 4411.47 344.731 4413.25 333.539 4419.39C327.647 4422.19 324.7 4423.59 324.345 4426.04C323.436 4432.31 339.324 4437.96 361.598 4448.97C384.696 4460.39 423.513 4483.11 438.61 4497.24C447.689 4505.73 451.89 4511.48 462.739 4514.03C484.111 4519.05 513.392 4507.38 512.528 4498.94Z" fill="black"/>
<path d="M512.51 4498.92C513.436 4507.36 484.1 4519.09 462.689 4514.05C451.881 4511.47 447.66 4505.71 438.602 4497.27C423.471 4483.06 384.664 4460.42 361.606 4449C339.373 4437.98 323.42 4432.32 324.344 4426.04C324.653 4423.57 327.638 4422.23 333.505 4419.35C344.039 4413.65 356.208 4411.72 367.988 4413.9C364.694 4414.62 362.738 4415.85 362.224 4417.81C360.371 4424.19 376.121 4430.88 409.883 4456.3C454.145 4489.65 455.277 4499.33 470.203 4501.49C481.894 4502.53 493.596 4499.63 503.451 4493.25C509.318 4495.11 512.201 4496.34 512.51 4498.92Z" fill="black"/>
<path d="M507.406 4534.69C506.502 4526.59 491.668 4527.16 462.046 4512.45C438.268 4501.85 416.815 4486.66 398.917 4467.76C382.544 4449.43 378.295 4435.45 357.607 4425.2C350.24 4421.17 341.935 4419.17 333.539 4419.39C315.653 4420.31 296.332 4433.1 296.734 4444.16C297.12 4454.78 315.702 4455.24 348.971 4474.47C374.46 4489.2 404.787 4506.72 430.895 4536.54C440.686 4547.72 445.302 4555.4 456.641 4558.29C478.977 4563.99 508.7 4546.26 507.406 4534.69Z" fill="black"/>
<path d="M507.363 4534.74C508.701 4546.26 478.953 4563.97 456.615 4558.31C445.293 4555.42 440.661 4547.7 430.882 4536.59C404.736 4506.74 374.473 4489.24 348.946 4474.42C315.697 4455.27 297.169 4454.76 296.757 4444.16C296.346 4433.14 315.697 4420.28 333.505 4419.35C339.635 4419.12 345.744 4420.21 351.416 4422.54C349.45 4424.01 348.006 4426.06 347.298 4428.41C343.799 4441.28 368.915 4450.54 418.838 4499.64C450.028 4530.31 452.601 4538.85 465.159 4540.19C477.878 4540.45 490.239 4535.97 499.848 4527.63C504.586 4529.69 507.054 4531.55 507.363 4534.74Z" fill="black"/>
<path d="M480.619 4568.61C479.562 4558.31 460.529 4560.11 431.292 4542.06C406.135 4526.52 390.794 4507 368.775 4478.99C340.219 4442.65 340.166 4431.45 324.346 4426.04C293.929 4415.64 250.657 4441.88 251.529 4460.49C252.078 4472.2 269.698 4472.16 308.339 4496.67C336.06 4514.26 369.039 4535.18 397.447 4570.76C408.099 4584.1 413.124 4593.26 425.453 4596.72C449.739 4603.53 482.036 4582.42 480.619 4568.61Z" fill="black"/>
<path d="M480.599 4568.6C482.041 4582.39 449.719 4603.49 425.426 4596.7C413.074 4593.3 408.133 4584.14 397.427 4570.76C369.017 4535.15 336.078 4514.25 308.388 4496.65C269.684 4472.15 252.085 4472.15 251.568 4460.52C250.642 4441.89 293.977 4415.65 324.342 4426.04C328.31 4427.3 331.938 4429.44 334.944 4432.32C329.179 4432.94 323.313 4433.76 317.445 4434.89C310.446 4436.23 297.269 4438.91 296.755 4444.16C296.137 4450.54 315.077 4454.97 330.723 4462.68C383.117 4488.83 375.294 4541.22 426.762 4564.28C437.57 4569.11 451.775 4575.39 467.318 4570.86C471.603 4569.66 475.596 4567.59 479.053 4564.79C479.921 4565.89 480.458 4567.21 480.599 4568.6Z" fill="black"/>
</svg>
