<svg width="752" height="4633" viewBox="0 0 752 4633" fill="none" xmlns="http://www.w3.org/2000/svg">
<path d="M271.076 4388.18C270.888 4383.57 278.061 4378.75 284.258 4377.92C289.862 4377.78 295.342 4379.58 299.771 4383.02C305.894 4386.77 311.659 4391.07 316.995 4395.87C331.598 4407.52 335.731 4408.73 335.381 4412.16C334.887 4416.99 325.926 4421.63 318.35 4420.47C311.388 4419.4 309.898 4414.09 301.59 4406.84C285.932 4393.17 271.341 4394.68 271.076 4388.18Z" fill="black"/>
<path d="M335.358 4412.14C334.844 4416.98 325.888 4421.61 318.374 4420.48C311.375 4419.35 309.933 4414.1 301.599 4406.79C285.953 4393.2 271.336 4394.64 271.13 4388.16C270.924 4383.53 278.027 4378.79 284.306 4377.97C288.083 4377.58 291.883 4378.45 295.114 4380.44C291.615 4381.68 289.144 4383.43 289.144 4385.07C289.144 4389.5 305.305 4387.65 317.245 4400.31C321.26 4404.63 324.039 4409.67 329.392 4410.08C331.044 4410.16 332.694 4409.87 334.23 4409.26C334.627 4409.62 334.935 4410.07 335.13 4410.57C335.326 4411.07 335.404 4411.61 335.358 4412.14Z" fill="black"/>
<path d="M320.531 4414.76C321.97 4408.44 311.948 4401.23 310.929 4400.5C303.986 4395.5 299.952 4397.15 288.509 4392.75C277.034 4388.33 277.727 4385.39 270.163 4383.41C256.382 4379.79 240.123 4385.89 239.897 4390.84C239.671 4395.79 255.656 4394.94 275.013 4409.97C283.572 4416.62 284.983 4420.3 292.178 4422.43C303.877 4425.89 318.947 4421.7 320.531 4414.76Z" fill="black"/>
<path d="M320.535 4414.71C318.991 4421.71 303.86 4425.93 292.231 4422.43C285.026 4420.27 283.584 4416.57 275.041 4409.98C255.689 4394.95 239.632 4395.78 239.94 4390.84C240.147 4386.1 254.969 4380.34 268.35 4383.12C266.086 4383.53 264.542 4384.25 264.233 4385.38C263.307 4388.06 269.174 4392.07 273.189 4394.95C281.729 4400.92 284.923 4399.58 295.628 4405.35C304.687 4410.08 306.436 4413.17 312.51 4413.48C315.194 4413.68 317.891 4413.33 320.435 4412.45C320.725 4413.17 320.76 4413.97 320.535 4414.71Z" fill="black"/>
<path d="M255.996 4275.76C255.5 4276.38 254.865 4276.87 254.143 4277.2C250.643 4279.16 245.702 4277.41 239.732 4276.89C239.526 4276.79 239.423 4276.89 239.217 4276.89C234.668 4276.46 230.09 4277.35 226.04 4279.47L224.187 4280.39C217.819 4284.88 212.599 4290.8 208.952 4297.68C208.647 4298.3 208.335 4298.92 208.026 4299.43C207.718 4300.16 207.409 4300.88 207.203 4301.39C206.894 4302.11 206.689 4302.63 206.482 4303.04C204.424 4308.49 204.938 4310.04 203.6 4312.82C197.218 4327.12 166.749 4324.86 153.059 4326.92C141.137 4328.59 129.342 4331.07 117.752 4334.33C117.575 4334.32 117.398 4334.36 117.237 4334.43C116.517 4334.64 115.693 4334.84 114.871 4335.15C113.532 4335.46 112.194 4335.97 110.752 4336.39C110.528 4336.5 110.283 4336.57 110.032 4336.59C107.768 4337.31 105.606 4338.03 103.547 4338.75C102.93 4338.96 102.312 4339.17 101.798 4339.37C100.356 4339.89 99.0177 4340.4 97.6793 4340.91C96.3416 4341.33 95.1063 4341.84 93.8711 4342.36C91.6067 4343.18 89.548 4344.11 87.5923 4344.83C85.8422 4345.55 84.1952 4346.27 82.6512 4346.88C80.4894 4347.71 78.4306 4348.63 76.578 4349.36C74.6223 4350.08 72.8722 4350.69 71.2252 4351.21C70.6919 4351.43 70.1409 4351.6 69.5782 4351.72C69.0777 4351.91 68.5606 4352.05 68.0342 4352.13C67.4589 4352.28 66.8741 4352.38 66.2841 4352.44C64.2112 4352.81 62.0976 4352.87 60.0054 4352.65C59.5908 4352.67 59.1745 4352.64 58.77 4352.55C58.5922 4352.56 58.4137 4352.53 58.2558 4352.44C51.7709 4350.38 55.6822 4303.65 56.7113 4280.7C58.77 4235.52 52.8 4216.89 63.6081 4211.12C65.6628 4210.04 67.9953 4209.61 70.2992 4209.89C70.5054 4209.89 70.8135 4209.99 71.0197 4209.99C73.8285 4210.28 76.6142 4210.76 79.3572 4211.43C79.6658 4211.53 80.0782 4211.53 80.4894 4211.64C89.4088 4213.69 98.6489 4213.93 107.665 4212.36C108.488 4212.25 109.209 4212.15 109.929 4212.05C112.091 4211.53 114.561 4210.81 122.693 4208.65C122.899 4208.55 123.208 4208.55 123.414 4208.45C147.294 4202.37 159.441 4199.39 168.188 4197.95C188.569 4194.76 200.716 4196.71 225.008 4200.73C230.856 4201.21 236.303 4203.89 240.243 4208.24C242.96 4212.11 244.268 4216.8 243.948 4221.52C244.364 4248.69 263.613 4266.91 255.996 4275.76Z" fill="black"/>
<path d="M243.952 4221.52C244.272 4216.8 242.964 4212.11 240.247 4208.24C236.307 4203.89 230.86 4201.21 225.012 4200.73C200.719 4196.71 188.573 4194.76 168.192 4197.95C159.442 4199.39 147.296 4202.37 123.418 4208.45C119.109 4210.26 114.572 4211.47 109.933 4212.05C109.212 4212.15 108.492 4212.25 107.668 4212.36C98.6191 4213.34 89.4777 4213.1 80.4933 4211.64C80.0822 4211.53 79.6698 4211.53 79.3611 4211.43C76.3757 4211.02 73.5972 4210.5 71.0236 4209.99C70.8174 4209.99 70.5093 4209.89 70.3032 4209.89C67.9992 4209.61 65.6666 4210.04 63.6119 4211.12C52.8038 4216.89 58.774 4235.52 56.7152 4280.7C55.6861 4303.65 51.7742 4350.39 58.2598 4352.44C58.4177 4352.53 58.5962 4352.56 58.7739 4352.55C59.1784 4352.64 59.5947 4352.68 60.0093 4352.65C60.2155 4352.65 60.421 4352.75 60.7303 4352.75C62.5883 4352.9 64.4579 4352.8 66.2881 4352.44C66.878 4352.38 67.4628 4352.28 68.0382 4352.13C68.5646 4352.05 69.0814 4351.91 69.582 4351.72C70.1447 4351.6 70.6958 4351.43 71.2291 4351.21C72.8761 4350.69 74.6263 4350.08 76.5819 4349.36C78.4345 4348.64 80.4933 4347.71 82.6552 4346.89C84.1991 4346.27 85.8461 4345.55 87.5962 4344.83C89.5519 4344.11 91.6107 4343.18 93.875 4342.36C95.1103 4341.84 96.3455 4341.33 97.6833 4340.92C99.0216 4340.4 100.36 4339.89 101.801 4339.37C102.316 4339.17 102.933 4338.96 103.551 4338.75C105.61 4338.03 107.772 4337.31 110.036 4336.59C110.287 4336.57 110.532 4336.5 110.756 4336.39C112.198 4335.98 113.536 4335.46 114.875 4335.15C115.697 4334.84 116.522 4334.64 117.241 4334.43C117.402 4334.36 117.579 4334.32 117.756 4334.33V4334.23C129.226 4330.52 141.064 4328.07 153.063 4326.92C166.753 4324.86 197.222 4327.12 203.604 4312.82C204.942 4310.04 204.428 4308.49 206.486 4303.04C206.693 4302.63 206.898 4302.11 207.207 4301.39C207.413 4300.88 207.722 4300.16 208.03 4299.43C208.339 4298.92 208.648 4298.3 208.956 4297.69C212.273 4290.58 217.561 4284.58 224.191 4280.39L226.044 4279.47C230.202 4277.68 234.695 4276.8 239.221 4276.89C239.427 4276.89 239.53 4276.79 239.736 4276.89C244.542 4276.7 249.354 4276.81 254.147 4277.2C254.869 4276.88 255.504 4276.38 255.999 4275.76C263.613 4266.91 244.364 4248.69 243.952 4221.52ZM241.997 4259.91C236.747 4268.45 213.586 4259.5 208.954 4268.66C206.793 4272.98 210.601 4277.72 206.896 4283.89C205.224 4286.56 202.834 4288.7 199.999 4290.07C194.647 4293.16 169.221 4307.36 152.649 4296.04C145.032 4290.69 142.973 4281.73 139.061 4264.23C138.958 4263.51 138.752 4262.69 138.547 4261.87C134.018 4241.38 131.753 4231.19 136.282 4222.44C147.811 4200.62 189.088 4203.4 210.499 4204.84C218.425 4205.36 229.747 4204.33 233.865 4210.92C236.438 4214.93 234.277 4218.33 234.07 4226.15C233.556 4245.5 246.114 4253.32 241.997 4259.91Z" fill="black"/>
<path d="M339.681 4363.46C338.652 4366.13 333.917 4365.72 321.564 4366.44C298.713 4367.68 297.272 4369.94 289.14 4368.5C288.339 4368.39 287.547 4368.22 286.772 4367.99C278.379 4365.29 270.658 4360.83 264.127 4354.91L264.024 4354.81C253.423 4345.32 241.906 4336.91 229.643 4329.7C227.262 4328.32 224.96 4326.81 222.75 4325.17C214.721 4319.51 209.574 4313.84 209.677 4305.71C209.883 4294.19 220.383 4284.92 227.587 4281.11C244.469 4272.26 263.615 4281.73 270.203 4284.92C274.114 4286.97 277.864 4289.31 281.423 4291.92C284.202 4293.98 286.467 4296.04 288.113 4297.48C289.349 4298.51 290.378 4299.54 291.407 4300.57C293.09 4302.07 294.672 4303.69 296.143 4305.4C297.172 4306.54 298.098 4307.67 298.922 4308.7C305.304 4316.21 308.598 4322.9 315.288 4332.06C316.421 4333.5 317.553 4335.05 318.892 4336.7C320.744 4338.96 322.802 4341.43 325.17 4344.11C333.609 4353.58 341.123 4359.75 339.681 4363.46Z" fill="black"/>
<path d="M325.169 4344.11C322.801 4341.43 320.639 4338.96 318.89 4336.7C317.552 4335.05 316.316 4333.5 315.287 4332.06C306.949 4321.46 304.169 4315.39 298.92 4308.7C298.097 4307.67 297.17 4306.54 296.141 4305.4C294.67 4303.69 293.088 4302.07 291.405 4300.57C290.376 4299.54 289.347 4298.51 288.112 4297.48C286.464 4296.04 284.2 4293.98 281.421 4291.92C277.862 4289.31 274.112 4286.97 270.201 4284.92C263.613 4281.73 244.467 4272.26 227.585 4281.11C220.381 4284.92 209.881 4294.18 209.675 4305.71C209.658 4306.03 209.693 4306.34 209.778 4306.64C209.689 4307.5 209.758 4308.38 209.984 4309.21V4309.32C210.107 4309.95 210.279 4310.57 210.499 4311.17C210.602 4311.48 210.705 4311.68 210.808 4311.99C211.48 4313.88 212.491 4315.62 213.792 4317.14L213.896 4317.24C215.065 4318.7 216.375 4320.05 217.807 4321.26C219.368 4322.67 221.018 4323.97 222.748 4325.17C222.851 4325.17 222.954 4325.27 223.159 4325.37C225.23 4326.49 227.194 4327.8 229.027 4329.28L229.13 4329.39C229.336 4329.39 229.439 4329.59 229.644 4329.7C241.907 4336.91 253.424 4345.32 264.025 4354.81L264.128 4354.91C267.077 4356.24 269.845 4357.93 272.363 4359.96C272.466 4360.06 272.466 4360.06 272.569 4360.06C276.844 4363.45 281.641 4366.13 286.773 4367.99C287.548 4368.22 288.34 4368.39 289.141 4368.5C297.273 4369.94 298.714 4367.68 321.565 4366.44C333.918 4365.72 338.653 4366.14 339.683 4363.46C341.123 4359.75 333.609 4353.58 325.169 4344.11ZM292.435 4357.08C274.422 4348.53 268.04 4329.39 260.837 4307.36C256.925 4295.53 257.749 4292.75 259.087 4291.51C263.41 4287.81 278.336 4295.22 288.321 4305.82C298.717 4316.83 296.35 4322.19 306.643 4336.49C316.628 4350.39 327.95 4353.27 326.613 4357.08C324.962 4361.91 306.949 4363.97 292.435 4357.08Z" fill="black"/>
<path d="M156.324 4442.09C159.659 4452.82 184.571 4442.8 222.405 4461.73C225.294 4463.71 228.548 4465.08 231.976 4465.79C235.403 4466.49 238.936 4466.5 242.368 4465.82C251.973 4462.57 251.074 4451.56 260.241 4440.49C275.68 4421.86 301.771 4424.26 301.52 4418.06C301.352 4413.88 289.558 4413.64 270.832 4403.38C259.637 4397.25 256.48 4393.3 251.82 4390.71C222.154 4374.2 150.446 4423.19 156.324 4442.09Z" fill="black"/>
<path d="M270.818 4403.39C259.598 4397.22 256.509 4393.31 251.775 4390.73C249.635 4389.5 247.304 4388.63 244.878 4388.16C243.929 4387.93 242.966 4387.76 241.996 4387.64C238.3 4387.22 234.566 4387.25 230.879 4387.75C229.85 4387.85 228.717 4388.06 227.688 4388.26C225.526 4388.67 223.365 4389.09 221.1 4389.7C219.967 4390.01 218.835 4390.32 217.703 4390.73C216.57 4391.04 215.438 4391.45 214.305 4391.86L210.909 4393.1C208.645 4394.03 206.38 4394.95 204.115 4395.98C201.438 4397.22 198.865 4398.56 196.292 4400H196.189C194.748 4400.82 193.204 4401.64 191.763 4402.47C189.293 4403.91 186.925 4405.45 184.557 4407.1C183.523 4407.73 182.526 4408.41 181.572 4409.16C179.925 4410.29 178.381 4411.42 176.837 4412.66C173.89 4414.93 171.072 4417.37 168.396 4419.96C167.677 4420.68 166.853 4421.41 166.235 4422.13C164.95 4423.39 163.746 4424.73 162.632 4426.14L162.427 4426.35C161.468 4427.53 160.574 4428.77 159.75 4430.05C159.163 4430.83 158.646 4431.65 158.206 4432.52C156.345 4435.34 155.678 4438.78 156.353 4442.09C159.647 4452.8 184.557 4442.82 222.437 4461.75C225.334 4463.71 228.592 4465.07 232.019 4465.76C235.447 4466.45 238.978 4466.45 242.407 4465.77C251.984 4462.58 251.053 4451.56 260.215 4440.45C261.627 4438.74 263.176 4437.16 264.847 4435.71C264.95 4435.61 265.152 4435.51 265.258 4435.4C266.251 4434.49 267.318 4433.67 268.449 4432.93C269.17 4432.42 269.891 4432.01 270.611 4431.49C270.817 4431.39 271.023 4431.18 271.229 4431.08C272.661 4430.24 274.139 4429.49 275.655 4428.82C276.273 4428.51 276.891 4428.2 277.405 4427.99C278.809 4427.32 280.253 4426.74 281.728 4426.24C284.198 4425.32 286.463 4424.7 288.625 4424.08C288.728 4423.98 288.728 4423.98 288.831 4423.98C289.037 4423.88 289.345 4423.88 289.551 4423.77C290.581 4423.57 291.507 4423.26 292.434 4423.05C292.845 4422.95 293.155 4422.85 293.566 4422.74H293.669C295.312 4422.29 296.928 4421.74 298.507 4421.1C299.091 4420.86 299.644 4420.54 300.154 4420.17C300.592 4419.94 300.951 4419.58 301.183 4419.14C301.392 4418.84 301.501 4418.48 301.492 4418.11V4418.01C301.39 4413.89 289.552 4413.58 270.818 4403.39ZM266.391 4424.39C259.803 4423.67 256.922 4421.2 248.274 4416.67C227.79 4405.86 216.055 4405.45 216.055 4401.75C216.262 4398.25 226.349 4395.16 235.099 4394.95C245.496 4394.64 248.068 4398.76 275.037 4409.98C283.89 4413.69 287.596 4414.92 287.596 4417.08C287.488 4418.05 287.008 4418.94 286.257 4419.55C280.41 4423.45 273.376 4425.16 266.391 4424.39Z" fill="black"/>
<path d="M199.122 4319.98C201.602 4318.68 204.247 4317.73 206.983 4317.15C212.896 4316.05 224.931 4315.95 260.774 4348.69C279.088 4365.42 279.022 4368.25 278.769 4369.62C276.596 4381.34 244.874 4375.9 209.243 4391.24C165.595 4410.03 165.857 4438.58 138.329 4442.05C94.6845 4447.54 43.4064 4376.05 53.5477 4360.16C54.6137 4358.93 55.9174 4357.94 57.3798 4357.23C58.8422 4356.52 60.4328 4356.12 62.0554 4356.05C103.236 4347.52 96.3663 4338.48 134.245 4331.51C164.092 4326.01 176.547 4330.11 199.122 4319.98Z" fill="black"/>
<path d="M278.435 4367.47C278.422 4367.47 278.408 4367.47 278.396 4367.46C278.383 4367.46 278.372 4367.45 278.362 4367.44C278.353 4367.43 278.345 4367.42 278.34 4367.41C278.335 4367.4 278.332 4367.38 278.333 4367.37C277.417 4365.79 276.348 4364.31 275.142 4362.94L275.039 4362.84C275.039 4362.74 274.936 4362.74 274.832 4362.63C274.455 4362.13 274.043 4361.64 273.598 4361.19C273.283 4360.79 272.939 4360.41 272.569 4360.06C272.466 4360.06 272.466 4360.06 272.363 4359.96C269.789 4357.18 265.981 4353.47 260.731 4348.74C257.025 4345.34 253.525 4342.25 250.231 4339.48C248.172 4337.83 246.32 4336.28 244.467 4334.84C242.717 4333.4 240.967 4332.06 239.32 4330.83C238.394 4330.11 237.467 4329.49 236.644 4328.87C234.482 4327.33 232.424 4325.99 230.571 4324.76C228.886 4323.62 227.133 4322.59 225.321 4321.67C224.085 4321.05 223.056 4320.43 221.924 4319.92C220.916 4319.45 219.886 4319.04 218.836 4318.68C217.231 4318.07 215.579 4317.59 213.896 4317.24C213.422 4317.13 212.939 4317.06 212.453 4317.04V4316.93C210.637 4316.67 208.789 4316.74 206.997 4317.14C204.235 4317.73 201.568 4318.7 199.072 4320.02C176.529 4330.11 164.074 4325.99 134.223 4331.55C128.948 4332.47 123.725 4333.68 118.577 4335.15C117.317 4335.49 116.079 4335.9 114.871 4336.39C114.15 4336.59 113.43 4336.9 112.71 4337.11C111.589 4337.46 110.489 4337.87 109.416 4338.34C109.083 4338.53 108.74 4338.71 108.387 4338.86L105.607 4340.09C104.514 4340.55 103.448 4341.06 102.416 4341.64C102.313 4341.74 102.106 4341.74 102.004 4341.84C101.077 4342.36 100.151 4342.77 99.3279 4343.18C98.7099 4343.49 98.1957 4343.8 97.7833 4344C96.1363 4344.83 94.5924 4345.55 92.946 4346.37C92.328 4346.68 91.8133 4346.89 91.1953 4347.19C90.0632 4347.71 88.8282 4348.22 87.4902 4348.74C84.8135 4349.87 81.7255 4350.9 78.1235 4352.03C76.7851 4352.44 75.3439 4352.86 73.7997 4353.27C70.4032 4354.19 66.4916 4355.12 62.065 4356.05C60.4397 4356.14 58.848 4356.54 57.3816 4357.25C55.9153 4357.96 54.6033 4358.95 53.5215 4360.16C52.6444 4361.77 52.2175 4363.58 52.2861 4365.41C52.2969 4366.45 52.4002 4367.48 52.5948 4368.5C52.5978 4369.03 52.7029 4369.55 52.9041 4370.05C52.9885 4370.82 53.161 4371.58 53.4183 4372.31L53.7275 4373.54C54.0362 4374.37 54.3454 4375.29 54.6535 4376.22C55.1683 4377.56 55.7861 4379 56.5067 4380.54C57.3302 4382.29 58.2569 4384.15 59.1829 4386C61.1386 4389.4 63.3004 4392.9 65.874 4396.5C68.3274 4400.07 70.9732 4403.51 73.7997 4406.79C79.886 4413.97 86.6797 4420.53 94.0782 4426.35C95.6221 4427.48 97.1661 4428.61 98.71 4429.64C100.483 4430.96 102.34 4432.16 104.268 4433.24C105.504 4433.96 106.842 4434.68 108.077 4435.41C108.591 4435.61 109.004 4435.92 109.518 4436.13C109.621 4436.23 109.827 4436.23 109.93 4436.33C110.033 4436.43 110.239 4436.43 110.342 4436.54C110.753 4436.74 111.268 4436.95 111.68 4437.15C113.121 4437.77 114.562 4438.39 116.003 4438.9C117.888 4439.63 119.813 4440.25 121.767 4440.76C122.797 4441.07 123.723 4441.27 124.752 4441.48C125.68 4441.68 126.503 4441.79 127.326 4441.89C128.176 4442.05 129.036 4442.15 129.899 4442.2C131.032 4442.3 132.165 4442.4 133.296 4442.4C134.982 4442.41 136.667 4442.3 138.34 4442.1C139.884 4441.89 141.428 4441.58 142.766 4441.27C142.973 4441.17 143.178 4441.17 143.384 4441.07C144.619 4440.76 145.825 4440.35 146.987 4439.83C147.501 4439.62 148.119 4439.32 148.736 4439.01C149.635 4438.64 150.497 4438.2 151.31 4437.67C152.24 4437.15 153.134 4436.56 153.986 4435.92H154.089C155.53 4434.79 156.868 4433.76 158.206 4432.52C158.927 4431.8 159.648 4431.18 160.368 4430.36C161.089 4429.64 161.809 4428.92 162.53 4428.1C165.309 4425.11 167.985 4421.92 171.176 4418.52C171.691 4417.91 172.411 4417.19 173.029 4416.57C174.265 4415.23 175.499 4414 176.838 4412.66C180.988 4408.58 185.502 4404.9 190.322 4401.64C191.639 4400.67 193.014 4399.78 194.44 4398.97H194.543C194.646 4398.86 194.646 4398.86 194.646 4398.76C194.724 4398.75 194.796 4398.72 194.851 4398.66C196.086 4397.84 197.528 4397.12 198.969 4396.29C200.513 4395.47 202.16 4394.54 203.91 4393.72C204.734 4393.31 205.557 4392.89 206.484 4392.48L209.263 4391.25C244.879 4375.91 276.583 4381.37 278.743 4369.63C278.85 4369.23 278.85 4368.8 278.743 4368.4C278.745 4368.09 278.538 4367.88 278.435 4367.47ZM268.245 4368.91C266.084 4373.03 250.746 4363.15 231.085 4367.68C215.439 4371.38 214.306 4380.24 202.778 4382.4C176.121 4387.54 141.635 4346.89 147.399 4336.49C150.384 4331.14 161.398 4337.93 185.691 4332.37C204.837 4327.95 206.381 4321.77 216.985 4323.21C219.006 4323.52 220.957 4324.18 222.749 4325.17C222.852 4325.17 222.955 4325.27 223.16 4325.37C225.231 4326.5 227.196 4327.81 229.028 4329.29L229.131 4329.39C229.337 4329.39 229.44 4329.59 229.645 4329.7C235.204 4333.92 241.998 4340.3 251.159 4348.84C253.012 4350.59 254.658 4352.14 256.1 4353.58C268.245 4365.21 268.965 4367.68 268.245 4368.91Z" fill="black"/>
</svg>
