<svg width="752" height="4634" viewBox="0 0 752 4634" fill="none" xmlns="http://www.w3.org/2000/svg">
<path d="M271.134 4389.12C270.946 4384.51 278.121 4379.69 284.319 4378.86C289.924 4378.72 295.405 4380.52 299.835 4383.96C305.959 4387.71 311.726 4392.01 317.063 4396.81C331.669 4408.47 335.803 4409.67 335.453 4413.1C334.958 4417.94 325.996 4422.58 318.418 4421.42C311.455 4420.35 309.964 4415.04 301.654 4407.78C285.994 4394.11 271.399 4395.62 271.134 4389.12Z" fill="#FFEECC" stroke="#282724" stroke-miterlimit="10"/>
<path opacity="0.1" d="M335.43 4413.09C334.915 4417.93 325.958 4422.56 318.442 4421.43C311.441 4420.3 309.999 4415.04 301.663 4407.74C286.014 4394.15 271.393 4395.59 271.188 4389.1C270.982 4384.47 278.086 4379.73 284.367 4378.91C288.144 4378.52 291.945 4379.39 295.177 4381.38C291.677 4382.62 289.206 4384.37 289.206 4386.02C289.206 4390.44 305.37 4388.59 317.313 4401.25C321.329 4405.58 324.109 4410.62 329.462 4411.03C331.115 4411.1 332.765 4410.82 334.302 4410.21C334.698 4410.57 335.006 4411.02 335.202 4411.52C335.398 4412.02 335.476 4412.55 335.43 4413.09Z" fill="#282724"/>
<path d="M320.6 4415.71C322.04 4409.39 312.015 4402.18 310.996 4401.45C304.051 4396.45 300.017 4398.09 288.571 4393.69C277.094 4389.28 277.787 4386.34 270.221 4384.35C256.437 4380.73 240.175 4386.83 239.949 4391.78C239.722 4396.74 255.711 4395.88 275.072 4410.92C283.633 4417.57 285.044 4421.25 292.241 4423.38C303.942 4426.84 319.016 4422.65 320.6 4415.71Z" fill="#FFEECC" stroke="#282724" stroke-miterlimit="10"/>
<path opacity="0.1" d="M320.604 4415.66C319.06 4422.66 303.925 4426.89 292.294 4423.39C285.087 4421.22 283.645 4417.52 275.1 4410.93C255.744 4395.9 239.683 4396.72 239.992 4391.78C240.198 4387.04 255.023 4381.28 268.407 4384.06C266.143 4384.47 264.598 4385.19 264.289 4386.32C263.363 4389 269.231 4393.02 273.247 4395.9C281.789 4401.87 284.984 4400.53 295.692 4406.3C304.752 4411.03 306.502 4414.12 312.576 4414.43C315.261 4414.63 317.959 4414.28 320.504 4413.4C320.794 4414.12 320.829 4414.92 320.604 4415.66Z" fill="#282724"/>
<path d="M256.051 4276.68C255.555 4277.3 254.921 4277.79 254.198 4278.12C250.698 4280.08 245.755 4278.33 239.784 4277.81C239.578 4277.71 239.475 4277.81 239.268 4277.81C234.719 4277.38 230.14 4278.27 226.089 4280.39L224.236 4281.31C217.866 4285.8 212.645 4291.72 208.998 4298.61C208.693 4299.23 208.38 4299.84 208.071 4300.36C207.763 4301.08 207.454 4301.8 207.248 4302.32C206.939 4303.04 206.733 4303.55 206.527 4303.96C204.468 4309.42 204.983 4310.96 203.644 4313.74C197.261 4328.05 166.785 4325.79 153.092 4327.85C141.168 4329.52 129.37 4332 117.778 4335.26C117.601 4335.25 117.424 4335.29 117.263 4335.36C116.542 4335.57 115.719 4335.77 114.896 4336.08C113.557 4336.39 112.218 4336.91 110.776 4337.32C110.552 4337.43 110.307 4337.5 110.056 4337.52C107.791 4338.24 105.629 4338.96 103.57 4339.69C102.952 4339.89 102.334 4340.1 101.82 4340.3C100.378 4340.82 99.0392 4341.33 97.7006 4341.85C96.3626 4342.26 95.1271 4342.77 93.8915 4343.29C91.6267 4344.11 89.5675 4345.04 87.6114 4345.76C85.8609 4346.48 84.2136 4347.2 82.6693 4347.82C80.507 4348.64 78.4477 4349.57 76.5947 4350.29C74.6386 4351.01 72.8881 4351.63 71.2408 4352.14C70.7073 4352.36 70.1563 4352.53 69.5935 4352.66C69.0928 4352.84 68.5757 4352.98 68.0491 4353.07C67.4736 4353.21 66.8887 4353.32 66.2987 4353.38C64.2253 4353.74 62.1112 4353.81 60.0185 4353.58C59.6039 4353.61 59.1875 4353.58 58.7829 4353.48C58.6051 4353.5 58.4266 4353.46 58.2686 4353.38C51.7823 4351.32 55.6944 4304.58 56.7237 4281.62C58.783 4236.43 52.8116 4217.79 63.622 4212.03C65.6772 4210.95 68.0102 4210.52 70.3146 4210.79C70.5208 4210.79 70.829 4210.89 71.0352 4210.89C73.8447 4211.18 76.6309 4211.67 79.3745 4212.34C79.6832 4212.44 80.0957 4212.44 80.507 4212.54C89.4283 4214.59 98.6704 4214.84 107.688 4213.26C108.512 4213.16 109.232 4213.06 109.953 4212.95C112.115 4212.44 114.586 4211.72 122.719 4209.56C122.925 4209.45 123.235 4209.45 123.441 4209.35C147.326 4203.28 159.475 4200.29 168.225 4198.85C188.61 4195.66 200.759 4197.61 225.057 4201.63C230.906 4202.11 236.354 4204.8 240.295 4209.14C243.013 4213.02 244.321 4217.7 244.001 4222.42C244.417 4249.6 263.67 4267.82 256.051 4276.68Z" fill="#FFEECC" stroke="#282724" stroke-miterlimit="10"/>
<path opacity="0.1" d="M244.005 4222.42C244.325 4217.7 243.017 4213.02 240.299 4209.14C236.358 4204.8 230.91 4202.11 225.061 4201.63C200.763 4197.61 188.614 4195.66 168.229 4198.85C159.477 4200.29 147.328 4203.28 123.445 4209.35C119.136 4211.17 114.597 4212.38 109.957 4212.95C109.236 4213.06 108.516 4213.16 107.692 4213.26C98.6408 4214.25 89.4974 4214.01 80.5111 4212.54C80.0999 4212.44 79.6874 4212.44 79.3787 4212.34C76.3927 4211.92 73.6135 4211.41 71.0394 4210.89C70.8331 4210.89 70.525 4210.79 70.3188 4210.79C68.0144 4210.52 65.6812 4210.95 63.626 4212.03C52.8156 4217.79 58.7871 4236.43 56.7279 4281.62C55.6986 4304.58 51.7858 4351.32 58.2728 4353.38C58.4307 4353.46 58.6093 4353.5 58.7871 4353.48C59.1916 4353.58 59.608 4353.61 60.0227 4353.58C60.2289 4353.58 60.4345 4353.69 60.7439 4353.69C62.6023 4353.84 64.4723 4353.73 66.3028 4353.38C66.8929 4353.32 67.4778 4353.21 68.0533 4353.07C68.5798 4352.98 69.0968 4352.84 69.5974 4352.66C70.1602 4352.53 70.7115 4352.36 71.2449 4352.14C72.8923 4351.63 74.6428 4351.01 76.5989 4350.29C78.4519 4349.57 80.5111 4348.64 82.6735 4347.82C84.2177 4347.2 85.8651 4346.48 87.6156 4345.76C89.5717 4345.04 91.6309 4344.11 93.8957 4343.29C95.1312 4342.77 96.3667 4342.26 97.7048 4341.85C99.0434 4341.33 100.382 4340.82 101.824 4340.3C102.338 4340.1 102.956 4339.89 103.574 4339.69C105.633 4338.97 107.795 4338.25 110.06 4337.53C110.312 4337.5 110.556 4337.43 110.781 4337.32C112.222 4336.91 113.561 4336.39 114.9 4336.08C115.723 4335.77 116.547 4335.57 117.267 4335.36C117.428 4335.29 117.605 4335.25 117.782 4335.26V4335.16C129.255 4331.45 141.095 4329 153.096 4327.85C166.789 4325.79 197.265 4328.05 203.648 4313.74C204.987 4310.96 204.472 4309.42 206.531 4303.96C206.738 4303.55 206.943 4303.04 207.252 4302.32C207.458 4301.8 207.767 4301.08 208.076 4300.36C208.384 4299.84 208.694 4299.23 209.002 4298.61C212.319 4291.5 217.608 4285.5 224.24 4281.31L226.094 4280.39C230.252 4278.6 234.746 4277.72 239.273 4277.81C239.479 4277.81 239.582 4277.71 239.788 4277.81C244.595 4277.62 249.408 4277.73 254.202 4278.12C254.925 4277.79 255.56 4277.3 256.055 4276.68C263.67 4267.82 244.417 4249.6 244.005 4222.42ZM242.049 4260.83C236.798 4269.37 213.633 4260.41 208.999 4269.58C206.838 4273.9 210.647 4278.64 206.941 4284.81C205.269 4287.48 202.878 4289.62 200.043 4290.99C194.689 4294.08 169.258 4308.29 152.682 4296.96C145.064 4291.61 143.004 4282.65 139.092 4265.15C138.989 4264.43 138.783 4263.6 138.577 4262.78C134.047 4242.29 131.782 4232.1 136.312 4223.35C147.844 4201.53 189.129 4204.31 210.544 4205.75C218.472 4206.26 229.797 4205.23 233.916 4211.82C236.49 4215.84 234.327 4219.23 234.121 4227.06C233.607 4246.41 246.168 4254.24 242.049 4260.83Z" fill="#282724"/>
<path d="M339.755 4364.4C338.725 4367.07 333.99 4366.66 321.634 4367.38C298.777 4368.62 297.336 4370.88 289.203 4369.44C288.401 4369.33 287.609 4369.16 286.834 4368.93C278.439 4366.23 270.717 4361.77 264.184 4355.85L264.081 4355.75C253.478 4346.26 241.958 4337.84 229.693 4330.63C227.311 4329.25 225.009 4327.74 222.798 4326.1C214.767 4320.44 209.619 4314.77 209.722 4306.64C209.929 4295.11 220.43 4285.84 227.637 4282.03C244.522 4273.18 263.672 4282.65 270.261 4285.84C274.173 4287.89 277.924 4290.23 281.484 4292.84C284.263 4294.9 286.529 4296.96 288.176 4298.4C289.411 4299.43 290.441 4300.46 291.47 4301.49C293.153 4303 294.736 4304.62 296.207 4306.33C297.236 4307.46 298.163 4308.6 298.987 4309.63C305.37 4317.14 308.665 4323.83 315.357 4333C316.489 4334.44 317.622 4335.98 318.961 4337.63C320.814 4339.89 322.872 4342.36 325.241 4345.04C333.681 4354.51 341.197 4360.69 339.755 4364.4Z" fill="#FFEECC" stroke="#282724" stroke-miterlimit="10"/>
<path opacity="0.1" d="M325.24 4345.04C322.871 4342.36 320.709 4339.89 318.96 4337.63C317.621 4335.98 316.385 4334.44 315.356 4333C307.016 4322.39 304.236 4316.32 298.985 4309.63C298.162 4308.6 297.235 4307.46 296.206 4306.33C294.735 4304.62 293.152 4303 291.469 4301.49C290.44 4300.46 289.41 4299.43 288.175 4298.4C286.527 4296.96 284.262 4294.9 281.483 4292.84C277.923 4290.23 274.172 4287.89 270.26 4285.84C263.671 4282.65 244.521 4273.18 227.635 4282.03C220.429 4285.84 209.927 4295.11 209.721 4306.64C209.704 4306.95 209.739 4307.27 209.824 4307.57C209.735 4308.43 209.804 4309.3 210.03 4310.14V4310.24C210.153 4310.87 210.326 4311.49 210.545 4312.1C210.648 4312.41 210.751 4312.61 210.854 4312.92C211.526 4314.8 212.538 4316.55 213.839 4318.07L213.943 4318.17C215.112 4319.63 216.422 4320.98 217.855 4322.19C219.416 4323.6 221.067 4324.9 222.797 4326.1C222.9 4326.1 223.002 4326.2 223.208 4326.3C225.28 4327.43 227.244 4328.74 229.077 4330.22L229.18 4330.32C229.386 4330.32 229.489 4330.52 229.695 4330.63C241.96 4337.84 253.479 4346.26 264.083 4355.75L264.186 4355.85C267.136 4357.17 269.904 4358.87 272.422 4360.89C272.526 4361 272.526 4361 272.629 4361C276.905 4364.39 281.702 4367.07 286.836 4368.93C287.611 4369.16 288.403 4369.33 289.204 4369.44C297.338 4370.88 298.779 4368.62 321.636 4367.38C333.991 4366.66 338.727 4367.08 339.757 4364.4C341.198 4360.69 333.682 4354.51 325.24 4345.04ZM292.499 4358.01C274.482 4349.47 268.098 4330.32 260.894 4308.29C256.982 4296.45 257.805 4293.67 259.143 4292.44C263.468 4288.73 278.397 4296.14 288.384 4306.75C298.782 4317.76 296.415 4323.11 306.71 4337.43C316.697 4351.32 328.022 4354.21 326.684 4358.02C325.033 4362.85 307.016 4364.91 292.499 4358.01Z" fill="#282724"/>
<path d="M156.357 4443.05C159.693 4453.78 184.61 4443.76 222.452 4462.69C225.342 4464.67 228.596 4466.04 232.025 4466.75C235.453 4467.45 238.987 4467.46 242.42 4466.78C252.027 4463.53 251.127 4452.51 260.297 4441.45C275.739 4422.81 301.835 4425.21 301.584 4419.01C301.416 4414.83 289.62 4414.59 270.89 4404.33C259.692 4398.19 256.535 4394.24 251.873 4391.65C222.201 4375.14 150.478 4424.14 156.357 4443.05Z" fill="#FFEECC" stroke="#282724" stroke-miterlimit="10"/>
<path opacity="0.1" d="M270.876 4404.34C259.654 4398.16 256.564 4394.25 251.829 4391.68C249.689 4390.44 247.357 4389.57 244.931 4389.1C243.981 4388.87 243.018 4388.7 242.048 4388.59C238.351 4388.16 234.616 4388.19 230.928 4388.69C229.899 4388.79 228.766 4389 227.737 4389.2C225.575 4389.62 223.412 4390.03 221.147 4390.65C220.014 4390.96 218.882 4391.26 217.749 4391.68C216.617 4391.99 215.484 4392.4 214.351 4392.81L210.954 4394.04C208.689 4394.97 206.424 4395.9 204.159 4396.93C201.482 4398.16 198.908 4399.5 196.334 4400.94H196.231C194.79 4401.77 193.245 4402.59 191.804 4403.41C189.333 4404.85 186.965 4406.4 184.597 4408.05C183.562 4408.67 182.565 4409.36 181.611 4410.1C179.964 4411.24 178.42 4412.37 176.875 4413.61C173.927 4415.88 171.109 4418.32 168.432 4420.91C167.712 4421.63 166.888 4422.36 166.271 4423.08C164.985 4424.34 163.781 4425.68 162.667 4427.09L162.462 4427.3C161.502 4428.48 160.608 4429.72 159.784 4431C159.197 4431.78 158.68 4432.61 158.239 4433.47C156.378 4436.29 155.711 4439.74 156.386 4443.05C159.681 4453.76 184.597 4443.77 222.485 4462.71C225.383 4464.67 228.641 4466.03 232.069 4466.72C235.498 4467.41 239.029 4467.41 242.459 4466.73C252.038 4463.54 251.107 4452.52 260.271 4441.4C261.683 4439.7 263.232 4438.11 264.904 4436.67C265.007 4436.56 265.209 4436.46 265.315 4436.36C266.308 4435.45 267.376 4434.62 268.507 4433.89C269.228 4433.37 269.949 4432.96 270.669 4432.45C270.875 4432.34 271.081 4432.14 271.287 4432.03C272.72 4431.2 274.198 4430.44 275.715 4429.77C276.332 4429.46 276.95 4429.15 277.464 4428.94C278.869 4428.27 280.313 4427.69 281.788 4427.19C284.259 4426.27 286.525 4425.65 288.687 4425.03C288.79 4424.93 288.79 4424.93 288.893 4424.93C289.099 4424.83 289.407 4424.83 289.613 4424.72C290.643 4424.52 291.57 4424.21 292.496 4424C292.908 4423.9 293.218 4423.8 293.629 4423.69H293.732C295.376 4423.24 296.992 4422.69 298.571 4422.05C299.155 4421.81 299.708 4421.49 300.218 4421.12C300.657 4420.89 301.016 4420.53 301.247 4420.09C301.457 4419.79 301.565 4419.43 301.557 4419.06V4418.96C301.454 4414.84 289.614 4414.53 270.876 4404.34ZM266.448 4425.34C259.859 4424.62 256.977 4422.15 248.327 4417.62C227.839 4406.81 216.102 4406.4 216.102 4402.69C216.308 4399.19 226.397 4396.1 235.149 4395.9C245.548 4395.59 248.122 4399.71 275.096 4410.93C283.951 4414.63 287.657 4415.87 287.657 4418.03C287.55 4419 287.07 4419.89 286.319 4420.5C280.47 4424.4 273.435 4426.11 266.448 4425.34Z" fill="#282724"/>
<path d="M199.165 4320.9C201.645 4319.61 204.291 4318.66 207.028 4318.07C212.942 4316.97 224.979 4316.87 260.83 4349.62C279.148 4366.36 279.083 4369.19 278.829 4370.55C276.655 4382.28 244.927 4376.84 209.288 4392.18C165.631 4410.98 165.893 4439.53 138.358 4443C94.7049 4448.5 43.4157 4376.99 53.5593 4361.09C54.6255 4359.87 55.9294 4358.87 57.3922 4358.16C58.8549 4357.46 60.4458 4357.06 62.0687 4356.98C103.258 4348.45 96.3871 4339.42 134.273 4332.44C164.127 4326.94 176.585 4331.04 199.165 4320.9Z" fill="#FFEECC" stroke="#282724" stroke-miterlimit="10"/>
<path opacity="0.1" d="M278.495 4368.41C278.482 4368.41 278.469 4368.41 278.456 4368.4C278.443 4368.4 278.432 4368.39 278.422 4368.38C278.413 4368.37 278.405 4368.36 278.4 4368.35C278.395 4368.34 278.393 4368.32 278.393 4368.31C277.477 4366.73 276.408 4365.25 275.201 4363.88L275.098 4363.78C275.098 4363.68 274.995 4363.67 274.892 4363.57C274.515 4363.06 274.102 4362.58 273.657 4362.13C273.342 4361.73 272.998 4361.35 272.628 4361C272.525 4361 272.525 4361 272.421 4360.89C269.847 4358.12 266.038 4354.41 260.787 4349.67C257.081 4346.28 253.58 4343.19 250.285 4340.41C248.226 4338.76 246.373 4337.22 244.52 4335.77C242.769 4334.33 241.02 4333 239.372 4331.76C238.446 4331.04 237.519 4330.42 236.695 4329.8C234.533 4328.26 232.474 4326.92 230.621 4325.69C228.936 4324.55 227.182 4323.52 225.37 4322.6C224.134 4321.98 223.104 4321.36 221.972 4320.85C220.964 4320.38 219.933 4319.97 218.883 4319.61C217.278 4319 215.625 4318.51 213.941 4318.17C213.468 4318.06 212.985 4317.99 212.5 4317.96V4317.86C210.683 4317.6 208.834 4317.67 207.042 4318.07C204.279 4318.66 201.611 4319.63 199.116 4320.95C176.567 4331.04 164.109 4326.92 134.252 4332.48C128.976 4333.4 123.752 4334.61 118.603 4336.08C117.343 4336.42 116.105 4336.83 114.896 4337.32C114.175 4337.53 113.455 4337.83 112.734 4338.04C111.613 4338.39 110.514 4338.8 109.44 4339.28C109.107 4339.47 108.763 4339.64 108.41 4339.79L105.63 4341.03C104.537 4341.48 103.471 4341.99 102.438 4342.57C102.335 4342.67 102.129 4342.67 102.026 4342.78C101.099 4343.29 100.173 4343.7 99.3496 4344.11C98.7315 4344.42 98.2172 4344.73 97.8047 4344.94C96.1573 4345.76 94.6131 4346.48 92.9663 4347.31C92.3483 4347.62 91.8334 4347.82 91.2153 4348.13C90.0829 4348.64 88.8476 4349.16 87.5094 4349.67C84.8321 4350.81 81.7435 4351.84 78.1406 4352.97C76.802 4353.38 75.3604 4353.79 73.816 4354.2C70.4187 4355.13 66.5063 4356.06 62.0787 4356.98C60.453 4357.07 58.861 4357.48 57.3943 4358.19C55.9276 4358.89 54.6154 4359.88 53.5333 4361.1C52.6561 4362.71 52.2291 4364.52 52.2977 4366.35C52.3085 4367.39 52.4118 4368.42 52.6064 4369.44C52.6095 4369.97 52.7146 4370.49 52.9159 4370.98C53.0003 4371.76 53.1728 4372.52 53.4302 4373.25L53.7394 4374.48C54.0482 4375.31 54.3575 4376.23 54.6656 4377.16C55.1805 4378.5 55.7984 4379.94 56.5192 4381.49C57.3429 4383.24 58.2698 4385.09 59.196 4386.94C61.1521 4390.34 63.3144 4393.84 65.8885 4397.44C68.3425 4401.02 70.9888 4404.45 73.816 4407.74C79.9035 4414.92 86.6987 4421.48 94.0988 4427.3C95.643 4428.43 97.1873 4429.56 98.7316 4430.59C100.505 4431.91 102.362 4433.12 104.291 4434.2C105.527 4434.92 106.865 4435.64 108.101 4436.36C108.615 4436.56 109.028 4436.87 109.542 4437.08C109.645 4437.18 109.851 4437.18 109.954 4437.29C110.057 4437.39 110.263 4437.39 110.366 4437.49C110.777 4437.7 111.292 4437.9 111.704 4438.11C113.145 4438.73 114.587 4439.34 116.028 4439.86C117.914 4440.58 119.839 4441.2 121.794 4441.71C122.823 4442.02 123.75 4442.23 124.78 4442.43C125.707 4442.64 126.531 4442.74 127.354 4442.84C128.204 4443 129.064 4443.11 129.928 4443.15C131.061 4443.26 132.193 4443.36 133.325 4443.36C135.012 4443.36 136.697 4443.26 138.37 4443.05C139.915 4442.84 141.459 4442.54 142.797 4442.23C143.004 4442.12 143.209 4442.12 143.415 4442.02C144.651 4441.72 145.857 4441.3 147.019 4440.78C147.533 4440.58 148.151 4440.27 148.769 4439.96C149.667 4439.6 150.529 4439.15 151.343 4438.62C152.273 4438.1 153.167 4437.52 154.02 4436.87H154.123C155.564 4435.74 156.903 4434.71 158.241 4433.48C158.962 4432.76 159.682 4432.14 160.403 4431.31C161.124 4430.59 161.845 4429.87 162.565 4429.05C165.345 4426.06 168.022 4422.87 171.213 4419.47C171.728 4418.86 172.449 4418.14 173.067 4417.52C174.302 4416.18 175.537 4414.94 176.876 4413.61C181.028 4409.53 185.542 4405.84 190.364 4402.59C191.681 4401.62 193.056 4400.72 194.482 4399.91H194.585C194.688 4399.81 194.688 4399.81 194.688 4399.71C194.766 4399.7 194.838 4399.66 194.893 4399.61C196.129 4398.78 197.571 4398.06 199.012 4397.24C200.557 4396.41 202.204 4395.49 203.954 4394.66C204.778 4394.25 205.602 4393.84 206.529 4393.43L209.308 4392.19C244.932 4376.85 276.643 4382.31 278.803 4370.57C278.91 4370.17 278.91 4369.74 278.803 4369.34C278.805 4369.03 278.599 4368.82 278.495 4368.41ZM268.303 4369.85C266.141 4373.97 250.8 4364.09 231.135 4368.62C215.485 4372.32 214.353 4381.18 202.822 4383.34C176.159 4388.49 141.666 4347.82 147.431 4337.42C150.417 4332.07 161.433 4338.86 185.732 4333.3C204.881 4328.88 206.426 4322.7 217.032 4324.14C219.054 4324.45 221.005 4325.11 222.797 4326.1C222.9 4326.1 223.003 4326.2 223.209 4326.3C225.28 4327.43 227.245 4328.74 229.078 4330.22L229.18 4330.32C229.387 4330.32 229.489 4330.52 229.695 4330.63C235.255 4334.85 242.05 4341.23 251.213 4349.78C253.067 4351.53 254.714 4353.07 256.155 4354.51C268.303 4366.15 269.024 4368.62 268.303 4369.85Z" fill="#282724"/>
</svg>
