<svg width="752" height="4633" viewBox="0 0 752 4633" fill="none" xmlns="http://www.w3.org/2000/svg">
<path d="M53.2272 4263.58C38.7152 4264.25 21.7686 4284.49 16.2188 4290.57C9.97127 4296.18 5.01782 4303.09 1.70061 4310.81C-4.34821 4328.41 6.89361 4340.33 17.2899 4375.74C22.2723 4390.03 25.3703 4404.9 26.5054 4419.99C27.3136 4436.53 24.5051 4439.55 27.5637 4447.28C35.1973 4466.55 65.9654 4481.29 85.4282 4472.7C106.382 4463.45 102.135 4432.38 121.12 4427.72C132.498 4424.92 138.064 4435.95 156.325 4442.09C185.886 4452.04 224.986 4441.63 228.357 4427.53C232.326 4410.93 183.385 4403.53 133.136 4351.46C88.8949 4305.64 77.855 4262.45 53.2272 4263.58Z" fill="black"/>
<path d="M53.2272 4263.58C38.7152 4264.25 21.7686 4284.49 16.2188 4290.57C9.97127 4296.18 5.01782 4303.09 1.70061 4310.81C-4.34821 4328.41 6.89361 4340.33 17.2899 4375.74C22.2723 4390.03 25.3703 4404.9 26.5054 4419.99C27.3136 4436.53 24.5051 4439.55 27.5637 4447.28C35.1973 4466.55 65.9654 4481.29 85.4282 4472.7C106.382 4463.45 102.135 4432.38 121.12 4427.72C132.498 4424.92 138.064 4435.95 156.325 4442.09C185.886 4452.04 224.986 4441.63 228.357 4427.53C232.326 4410.93 183.385 4403.53 133.136 4351.46C88.8949 4305.64 77.855 4262.45 53.2272 4263.58Z" fill="black"/>
<path d="M53.2272 4263.58C38.7152 4264.25 21.7686 4284.49 16.2188 4290.57C9.97127 4296.18 5.01782 4303.09 1.70061 4310.81C-4.34821 4328.41 6.89361 4340.33 17.2899 4375.74C22.2723 4390.03 25.3703 4404.9 26.5054 4419.99C27.3136 4436.53 24.5051 4439.55 27.5637 4447.28C35.1973 4466.55 65.9654 4481.29 85.4282 4472.7C106.382 4463.45 102.135 4432.38 121.12 4427.72C132.498 4424.92 138.064 4435.95 156.325 4442.09C185.886 4452.04 224.986 4441.63 228.357 4427.53C232.326 4410.93 183.385 4403.53 133.136 4351.46C88.8949 4305.64 77.855 4262.45 53.2272 4263.58Z" fill="black"/>
</svg>
