<svg width="752" height="4634" viewBox="0 0 752 4634" fill="none" xmlns="http://www.w3.org/2000/svg">
<path d="M53.7346 4264.17C39.2206 4264.84 22.2717 4285.08 16.7211 4291.16C10.4727 4296.78 5.51858 4303.69 2.20091 4311.41C-3.84874 4329.01 7.39462 4340.93 17.7924 4376.35C22.7754 4390.63 25.8738 4405.51 27.0091 4420.6C27.8175 4437.15 25.0086 4440.17 28.0675 4447.89C35.7022 4467.17 66.4745 4481.91 85.9401 4473.32C106.897 4464.07 102.649 4432.99 121.637 4428.33C133.016 4425.53 138.583 4436.56 156.846 4442.71C186.412 4452.66 225.517 4442.24 228.889 4428.14C232.858 4411.54 183.911 4404.13 133.654 4352.07C89.4072 4306.23 78.3657 4263.04 53.7346 4264.17Z" fill="#FFEECC" stroke="#282724" stroke-miterlimit="10"/>
<path opacity="0.1" d="M53.7346 4264.17C39.2206 4264.84 22.2717 4285.08 16.7211 4291.16C10.4727 4296.78 5.51858 4303.69 2.20091 4311.41C-3.84874 4329.01 7.39462 4340.93 17.7924 4376.35C22.7754 4390.63 25.8738 4405.51 27.0091 4420.6C27.8175 4437.15 25.0086 4440.17 28.0675 4447.89C35.7022 4467.17 66.4745 4481.91 85.9401 4473.32C106.897 4464.07 102.649 4432.99 121.637 4428.33C133.016 4425.53 138.583 4436.56 156.846 4442.71C186.412 4452.66 225.517 4442.24 228.889 4428.14C232.858 4411.54 183.911 4404.13 133.654 4352.07C89.4072 4306.23 78.3657 4263.04 53.7346 4264.17Z" fill="#282724"/>
<path opacity="0.1" d="M53.7346 4264.17C39.2206 4264.84 22.2717 4285.08 16.7211 4291.16C10.4727 4296.78 5.51858 4303.69 2.20091 4311.41C-3.84874 4329.01 7.39462 4340.93 17.7924 4376.35C22.7754 4390.63 25.8738 4405.51 27.0091 4420.6C27.8175 4437.15 25.0086 4440.17 28.0675 4447.89C35.7022 4467.17 66.4745 4481.91 85.9401 4473.32C106.897 4464.07 102.649 4432.99 121.637 4428.33C133.016 4425.53 138.583 4436.56 156.846 4442.71C186.412 4452.66 225.517 4442.24 228.889 4428.14C232.858 4411.54 183.911 4404.13 133.654 4352.07C89.4072 4306.23 78.3657 4263.04 53.7346 4264.17Z" fill="#282724"/>
</svg>
