<svg width="753" height="4634" viewBox="0 0 753 4634" fill="none" xmlns="http://www.w3.org/2000/svg">
<path d="M466.003 704.61C468.145 696.834 469.654 686.819 464.13 682.407C459.055 678.355 450.48 680.972 449.531 678.403C448.494 675.602 457.983 670.539 463.589 666.893C463.589 666.893 476.477 658.512 492.245 633.365C505.181 612.732 487.914 544.597 431.9 471.463C384.286 493.201 360.927 497.732 348.533 496.927C346.058 496.766 336.452 495.901 332.694 500.785C329.542 504.881 332.999 509.775 332.694 517.76C331.79 525.466 328.596 532.724 323.523 538.595C310.458 559.523 343.625 595.354 358.157 647.877C362.301 662.946 364.684 678.444 365.258 694.062" fill="#F4D58C"/>
<path d="M466.003 704.61C468.145 696.834 469.654 686.819 464.13 682.407C459.055 678.355 450.48 680.972 449.531 678.403C448.494 675.602 457.983 670.539 463.589 666.893C463.589 666.893 476.477 658.512 492.245 633.365C505.181 612.732 487.914 544.597 431.9 471.463C384.286 493.201 360.927 497.732 348.533 496.927C346.058 496.766 336.452 495.901 332.694 500.785C329.542 504.881 332.999 509.775 332.694 517.76C331.79 525.466 328.596 532.724 323.523 538.595C310.458 559.523 343.625 595.354 358.157 647.877C362.301 662.946 364.684 678.444 365.258 694.062" stroke="#282724" stroke-miterlimit="10"/>
<path opacity="0.09" d="M466.003 704.61C468.145 696.834 469.654 686.819 464.13 682.407C459.055 678.355 450.48 680.972 449.531 678.403C448.494 675.602 457.983 670.539 463.589 666.893C463.589 666.893 476.477 658.512 492.245 633.365C505.181 612.732 487.914 544.597 431.9 471.463C384.286 493.201 360.927 497.732 348.533 496.927C346.058 496.766 336.452 495.901 332.694 500.785C329.542 504.881 332.999 509.775 332.694 517.76C331.79 525.466 328.596 532.724 323.523 538.595C310.458 559.524 343.625 595.354 358.157 647.877C362.301 662.946 364.684 678.444 365.258 694.062L466.003 704.61Z" fill="#282724"/>
<path opacity="0.05" d="M466.003 704.61C468.145 696.834 469.654 686.819 464.13 682.407C459.055 678.355 450.48 680.972 449.531 678.403C448.494 675.602 457.983 670.539 463.589 666.893C463.589 666.893 476.477 658.512 492.245 633.365C505.181 612.732 487.914 544.597 431.9 471.463C384.286 493.201 360.927 497.732 348.533 496.927C346.058 496.766 336.452 495.901 332.694 500.785C329.542 504.881 332.999 509.775 332.694 517.76C331.79 525.466 328.596 532.724 323.523 538.595C310.458 559.524 343.625 595.354 358.157 647.877C362.301 662.946 364.684 678.444 365.258 694.062L466.003 704.61Z" fill="#282724"/>
<path opacity="0.21" d="M461.334 704.132C462.389 701.93 462.929 699.517 462.915 697.075C462.901 694.633 462.332 692.227 461.252 690.037C456.411 682.4 443.239 683.693 442.606 679.768C441.996 675.982 453.891 672.564 463.59 666.894C475.139 657.591 484.857 646.222 492.246 633.365C505.182 612.733 487.915 544.597 431.901 471.463C384.287 493.201 360.928 497.732 348.534 496.927C346.059 496.766 336.453 495.901 332.694 500.785C329.542 504.881 332.999 509.775 332.694 517.76C332.298 528.102 325.984 533.819 323.524 538.595C313.027 558.995 358.265 591.39 382.641 638.324C392.187 656.882 398.282 677.02 400.63 697.756L461.334 704.132Z" fill="#282724"/>
<path d="M465.992 704.65C465.62 706.112 465.175 707.554 464.658 708.972C463.768 711.961 462.767 715.354 461.547 719.162C460.768 721.427 460.101 723.794 459.211 726.264C453.651 743.041 448.313 757.041 443.753 767.951C435.969 786.581 432.407 792.55 427.74 798.212C418.621 809.534 415.396 807.784 390.375 829.914C378.809 840.104 375.807 843.707 368.134 846.074C360.016 848.544 357.235 846.486 339.442 846.794C317.646 847.206 315.755 850.397 306.745 848.339C294.291 845.456 292.4 838.149 278.944 827.65C252.811 807.475 238.687 818.18 222.34 801.094C210.33 788.537 215.779 780.302 200.099 761.363C193.668 753.677 186.136 746.983 177.747 741.498C178.674 735.545 180.355 729.735 182.749 724.206C186.752 715.149 189.421 714.427 189.755 709.075C189.833 708.182 189.796 707.283 189.643 706.399C188.797 703.403 187.719 700.478 186.418 697.65C186.36 697.537 186.285 697.432 186.196 697.341C185.188 694.647 184.334 691.897 183.638 689.106C183.416 687.871 182.86 686.122 182.526 684.063C182.478 683.894 182.441 683.722 182.415 683.548C182.192 682.416 181.97 681.181 181.747 679.843C181.228 676.644 180.968 673.408 180.969 670.167V669.962C180.976 666.414 181.237 662.871 181.747 659.36C187.642 658.125 194.981 656.169 203.211 653.596C203.211 653.596 211.773 650.92 220.226 647.42C247.224 635.33 272.322 619.381 294.733 600.073C296.068 599.043 297.403 597.911 298.737 596.779C301.405 594.72 303.963 592.559 306.632 590.089C314.01 583.837 320.992 577.134 327.539 570.017C330.208 567.136 332.877 564.048 335.546 560.959C337.214 558.901 338.993 556.843 340.548 554.681C343.073 551.714 345.449 548.622 347.665 545.418C350.334 541.815 353.003 538.11 355.449 534.301C356.005 533.478 356.562 532.654 357.006 531.831C359.342 528.332 361.565 524.729 363.678 521.126C363.866 520.913 364.017 520.669 364.123 520.406C370.324 509.958 375.858 499.128 380.693 487.983C381.583 485.821 382.584 483.763 383.362 481.602C388.007 470.347 391.653 458.705 394.26 446.812C394.705 444.65 395.039 442.591 395.372 440.533C395.592 439.658 395.704 438.759 395.705 437.856C396.151 435.489 396.373 433.122 396.595 430.858C396.818 428.181 396.93 425.609 396.93 423.035C396.93 408.522 393.259 396.891 385.141 389.789C376.467 382.275 358.896 376.511 345.441 374.349C339.896 373.405 334.267 373.06 328.648 373.32C318.195 373.835 311.745 376.305 300.625 373.217C298.205 372.497 295.828 371.638 293.507 370.644C275.492 362.821 260.368 345.324 259.591 328.134C258.701 308.887 276.383 298.697 289.061 281.816C290.898 279.333 292.605 276.756 294.176 274.096C295.357 272.131 296.434 270.104 297.401 268.024C298.235 266.436 298.942 264.784 299.514 263.084H299.625C299.625 262.981 299.736 262.775 299.736 262.673C300.403 261.026 301.071 259.379 301.627 257.629C301.737 257.218 301.96 256.702 302.071 256.188C302.516 254.85 302.85 253.408 303.184 251.968C303.522 251.109 303.746 250.209 303.85 249.292C304.263 247.947 304.561 246.57 304.74 245.174C304.989 244.227 305.175 243.264 305.296 242.292C305.425 241.682 305.5 241.062 305.519 240.439C305.741 239.101 305.963 237.764 306.075 236.425C306.376 234.759 306.561 233.074 306.631 231.382C307.586 206.878 304.12 182.402 296.4 159.125C295.612 157.601 294.943 156.018 294.398 154.391C294.384 154.392 294.37 154.39 294.356 154.385C294.343 154.381 294.331 154.373 294.32 154.364C294.31 154.354 294.302 154.342 294.296 154.329C294.29 154.316 294.287 154.302 294.287 154.288C292.955 150.703 292.059 146.971 291.618 143.172C289.505 125.468 298.402 112.293 306.853 96.2363C323.089 65.6659 317.641 62.4752 326.984 48.4758C360.679 -2.26811 457.762 0.304681 466.658 0.613325C494.825 2.56997 522.728 7.32828 549.951 14.8177C564.932 17.7753 579.656 21.9052 593.989 27.1695C654.708 53.622 674.502 117.541 675.281 120.115C684.044 151.191 682.005 184.321 669.498 214.089C661.491 231.689 656.264 231.792 640.807 262.773C625.906 292.623 627.128 299.828 614.006 317.635C599.105 337.912 592.988 334.721 578.643 354.895C567.299 370.849 562.965 384.436 555.623 407.081C545.059 440.324 547.061 454.737 548.059 460.295C549.328 467.331 551.574 474.156 554.731 480.571C541.2 481.805 528.437 487.405 518.367 496.526C512.806 502.084 512.473 505.275 505.912 509.804C493.79 518.244 485.116 513.921 477.22 520.508C469.992 526.478 474.551 532.448 469.547 548.811C464.098 566.72 455.869 568.779 445.635 590.394C441.391 599.475 438.183 609.004 436.071 618.802C411.134 618.006 386.234 621.275 362.348 628.481C339.996 635.378 315.419 642.892 296.403 664.816C291.621 670.271 268.713 696.518 276.273 725.029C278.424 734.572 283.855 743.059 291.618 749.011C301.011 755.082 312.022 758.168 323.202 757.863C329.187 758.212 335.191 757.622 340.994 756.114C357.564 750.659 367.127 725.132 365.237 694.048" fill="#F4D58C"/>
<path d="M465.992 704.65C465.62 706.112 465.175 707.554 464.658 708.972C463.768 711.96 462.767 715.354 461.547 719.162C460.768 721.427 460.101 723.794 459.211 726.264C453.651 743.041 448.313 757.041 443.753 767.951C435.969 786.581 432.407 792.55 427.74 798.212C418.621 809.534 415.396 807.784 390.375 829.914C378.809 840.104 375.807 843.707 368.134 846.074C360.016 848.544 357.235 846.486 339.442 846.794C317.646 847.206 315.755 850.397 306.745 848.339C294.291 845.456 292.4 838.149 278.944 827.65C252.811 807.475 238.687 818.18 222.34 801.094C210.33 788.537 215.779 780.302 200.099 761.363C193.668 753.677 186.136 746.983 177.747 741.498C178.674 735.545 180.355 729.735 182.749 724.206C186.752 715.149 189.421 714.427 189.755 709.075C189.833 708.182 189.796 707.283 189.643 706.399C188.797 703.403 187.719 700.478 186.418 697.65C186.36 697.537 186.285 697.432 186.196 697.341C185.188 694.647 184.334 691.897 183.638 689.106C183.416 687.871 182.86 686.122 182.526 684.063C182.478 683.894 182.441 683.722 182.415 683.548C182.192 682.416 181.97 681.181 181.747 679.843C181.228 676.644 180.968 673.408 180.969 670.167V669.962C180.976 666.414 181.237 662.871 181.747 659.36C187.642 658.125 194.981 656.169 203.211 653.596C203.211 653.596 211.773 650.92 220.226 647.42C247.224 635.33 272.322 619.381 294.733 600.073C296.068 599.043 297.403 597.911 298.737 596.779C301.405 594.72 303.963 592.559 306.632 590.089C314.01 583.837 320.992 577.134 327.539 570.017C330.208 567.136 332.877 564.048 335.546 560.959C337.214 558.901 338.993 556.843 340.548 554.681C343.073 551.714 345.449 548.622 347.665 545.418C350.334 541.815 353.003 538.11 355.449 534.301C356.005 533.478 356.562 532.654 357.006 531.831C359.342 528.332 361.565 524.729 363.678 521.126C363.866 520.913 364.017 520.669 364.123 520.406C370.324 509.958 375.858 499.128 380.693 487.983C381.583 485.821 382.584 483.763 383.362 481.602C388.007 470.347 391.653 458.705 394.26 446.812C394.705 444.65 395.039 442.591 395.372 440.533C395.592 439.658 395.704 438.759 395.705 437.857C396.151 435.489 396.373 433.122 396.595 430.858C396.818 428.181 396.93 425.609 396.93 423.035C396.93 408.522 393.259 396.891 385.141 389.789C376.467 382.275 358.896 376.511 345.441 374.349C339.896 373.405 334.267 373.06 328.648 373.32C318.195 373.835 311.745 376.305 300.625 373.217C298.205 372.497 295.828 371.638 293.507 370.644C275.492 362.821 260.368 345.324 259.591 328.134C258.701 308.887 276.383 298.697 289.061 281.816C290.898 279.333 292.605 276.756 294.176 274.096C295.357 272.131 296.434 270.104 297.401 268.024C298.235 266.436 298.942 264.784 299.514 263.084H299.625C299.625 262.981 299.736 262.775 299.736 262.673C300.403 261.026 301.071 259.379 301.627 257.629C301.737 257.218 301.96 256.702 302.071 256.188C302.516 254.85 302.85 253.408 303.184 251.968C303.522 251.109 303.746 250.209 303.85 249.292C304.263 247.947 304.561 246.57 304.74 245.174C304.989 244.227 305.175 243.264 305.296 242.292C305.425 241.682 305.5 241.062 305.519 240.439C305.741 239.101 305.963 237.764 306.075 236.425C306.376 234.759 306.561 233.074 306.631 231.382C307.586 206.878 304.12 182.402 296.4 159.125C295.612 157.601 294.943 156.018 294.398 154.391C294.384 154.392 294.37 154.39 294.356 154.385C294.343 154.381 294.331 154.373 294.32 154.364C294.31 154.354 294.302 154.342 294.296 154.329C294.29 154.316 294.287 154.302 294.287 154.288C292.955 150.703 292.059 146.971 291.618 143.172C289.505 125.468 298.402 112.293 306.853 96.2363C323.089 65.6659 317.641 62.4752 326.984 48.4758C360.679 -2.26811 457.762 0.304681 466.658 0.613325C494.825 2.56997 522.728 7.32828 549.951 14.8177C564.932 17.7753 579.656 21.9052 593.989 27.1695C654.708 53.622 674.502 117.541 675.281 120.115C684.044 151.191 682.005 184.321 669.498 214.089C661.491 231.689 656.264 231.792 640.807 262.773C625.906 292.623 627.128 299.828 614.006 317.635C599.105 337.912 592.988 334.721 578.643 354.895C567.299 370.849 562.965 384.436 555.623 407.081C545.059 440.324 547.061 454.737 548.059 460.295C549.328 467.331 551.574 474.156 554.731 480.571C541.2 481.805 528.437 487.405 518.367 496.526C512.806 502.084 512.473 505.275 505.912 509.804C493.79 518.244 485.116 513.921 477.22 520.508C469.992 526.478 474.551 532.448 469.547 548.811C464.098 566.72 455.869 568.779 445.635 590.394C441.391 599.475 438.183 609.004 436.071 618.802C411.134 618.006 386.234 621.275 362.348 628.481C339.996 635.378 315.419 642.892 296.403 664.816C291.621 670.271 268.713 696.518 276.273 725.029C278.424 734.572 283.855 743.059 291.618 749.011C301.011 755.082 312.022 758.168 323.202 757.863C329.187 758.212 335.191 757.622 340.994 756.114C357.564 750.659 367.127 725.132 365.237 694.048" stroke="#282724" stroke-miterlimit="10"/>
<path opacity="0.05" d="M344.333 237.765C333.539 207.642 327.873 175.922 327.573 143.926C327.257 101.095 326.998 66.1403 349.92 40.4465C394.911 -9.9869 499.799 8.22067 553.345 27.2798C586.019 38.9094 637.852 57.3591 657.51 102.68C678.324 150.666 660.2 210.59 631.408 247.637C606.224 280.042 569.965 299.274 576.699 316.006C579.842 323.814 590.82 327.278 599.216 328.973C588.896 336.879 579.655 346.1 571.726 356.402C538.19 400.198 540.995 449.439 543.211 468.382C540.201 469.546 536.976 470.048 533.754 469.856C530.533 469.663 527.39 468.781 524.54 467.267C517.402 461.778 521.97 450.318 520.323 436.606C517.962 416.943 504.578 406.614 498.037 397.023C480.112 370.74 501.758 331.818 527.889 272.305C562.572 193.32 579.914 153.827 573.924 126.4C564.652 83.9434 524.7 40.3117 474.879 33.4355C453.395 30.7418 431.591 34.3296 412.103 43.7648C356.891 70.8974 330.948 148.461 344.333 237.765Z" fill="#282724"/>
<path opacity="0.21" d="M344.332 237.765C336.227 217.713 331.239 196.538 329.541 174.977C332.049 196.404 337.012 217.471 344.332 237.765Z" fill="#282724"/>
<path opacity="0.21" d="M420.951 9.05668C398.709 13.265 378.131 23.7368 361.637 39.2404C314.112 86.979 331.653 174.977 329.54 174.979C328.858 174.979 327.71 165.823 327.538 143.894C327.204 101.075 326.982 66.1845 349.891 40.4505C366.906 21.3054 392.706 12.145 420.951 9.05668Z" fill="#282724"/>
<path opacity="0.21" d="M631.355 247.645C602.797 286.205 570.767 300.947 576.753 315.99C579.864 323.812 590.766 327.313 599.217 328.959C588.894 336.874 579.659 346.114 571.75 356.441C556.381 376.426 546.664 400.172 543.613 425.197C530.937 408.423 516.035 382.585 519.037 352.733C521.404 329.212 534.175 311.303 553.511 289.845C607.183 230.281 629.523 229.498 647.575 198.174C657.935 180.195 667.837 150.494 657.493 102.721C664.574 121.068 667.654 140.716 666.527 160.35C663.839 202.99 640.798 234.895 631.355 247.645Z" fill="#282724"/>
<path opacity="0.09" d="M459.207 726.265C453.647 743.043 448.309 757.042 443.749 767.952C435.965 786.583 432.403 792.551 427.736 798.213C418.617 809.535 415.392 807.786 390.371 829.915C378.806 840.105 375.803 843.708 368.13 846.075C360.012 848.545 357.231 846.487 339.438 846.795C317.642 847.207 315.751 850.398 306.742 848.34C294.287 845.457 292.397 838.15 278.94 827.651C252.807 807.476 238.683 818.181 222.336 801.095C210.326 788.538 215.775 780.303 200.096 761.365C193.664 753.678 186.132 746.984 177.743 741.499C178.67 735.546 180.351 729.736 182.745 724.207C186.748 715.15 189.417 714.429 189.751 709.076C189.811 708.186 189.772 707.292 189.637 706.41C189.034 703.203 187.878 700.125 186.221 697.313C184.42 694.486 182.299 687.668 180.994 669.991C206.74 665.575 231.878 658.15 255.892 647.868C316.563 621.689 365.486 577.794 394.261 552.213C419.87 529.447 436.645 510.514 442.748 514.129C448.308 517.423 443.86 539.141 433.073 555.607C422.73 571.252 410.498 576.398 412.388 582.472C413.612 586.177 419.952 590.294 445.639 590.397C441.395 599.477 438.187 609.007 436.075 618.805C411.136 618.008 386.235 621.276 362.347 628.483C339.994 635.38 315.418 642.893 296.401 664.817C291.619 670.272 268.711 696.519 276.271 725.03C278.423 734.574 283.853 743.06 291.617 749.013C301.01 755.084 312.02 758.17 323.2 757.865C329.186 758.213 335.19 757.623 340.993 756.115C357.563 750.66 367.126 725.134 365.236 694.049L466.001 704.611C464.871 708.534 463.665 712.523 462.383 716.579C461.343 719.87 460.284 723.098 459.207 726.265Z" fill="#282724"/>
<path opacity="0.21" d="M461.331 704.132C455.415 735.957 441.176 765.647 420.061 790.184C408.575 803.434 392.459 822.15 364.013 831.252C355.005 834.135 324.869 844.016 301.07 831.252C289.171 824.871 292.062 820.034 276.827 811.079C256.588 799.242 243.577 803.153 235.682 792.037C229.453 783.288 234.903 777.111 230.899 767.333C226.785 757.657 214.329 746.849 177.743 741.497C178.67 735.544 180.351 729.734 182.745 724.205C186.748 715.148 189.417 714.427 189.751 709.074C189.811 708.184 189.772 707.29 189.637 706.408C189.037 703.2 187.881 700.121 186.221 697.311C184.36 694.403 182.306 687.874 181.177 672.326C207.495 668.883 233.344 662.5 258.239 653.295C326.22 628.018 369.918 586.837 392.947 565.465C423.853 536.782 440.156 512.448 442.748 514.125C445.389 515.833 431.93 542.47 410.173 566.758C386.415 593.282 365.064 603.271 367.336 607.699C369.067 611.073 384.062 610.345 445.637 590.396C441.393 599.476 438.185 609.006 436.074 618.804C411.135 618.006 386.233 621.275 362.345 628.482C339.992 635.379 315.416 642.893 296.399 664.816C291.618 670.271 268.709 696.519 276.269 725.03C277.146 728.477 278.312 731.843 279.755 735.094C291.619 761.844 325.49 788.295 350.562 781.059C364.396 777.066 371.384 763.36 385.365 735.964C391.617 723.725 396.726 710.935 400.625 697.756L461.331 704.132Z" fill="#282724"/>
<path opacity="0.05" d="M397.044 495.6C374.914 532.036 334.101 578.15 294.735 600.073C296.069 599.043 297.404 597.911 298.738 596.779C301.407 594.721 303.965 592.559 306.634 590.089C314.011 583.838 320.993 577.134 327.54 570.017C330.21 567.136 332.878 564.048 335.547 560.959C337.215 558.901 338.994 556.843 340.549 554.681C343.075 551.714 345.45 548.622 347.666 545.418C350.336 541.815 353.004 538.11 355.451 534.301C356.006 533.478 356.563 532.654 357.007 531.831C359.343 528.332 361.566 524.729 363.68 521.126C363.868 520.913 364.018 520.669 364.125 520.406C370.325 509.958 375.859 499.129 380.694 487.983C381.695 485.822 382.586 483.661 383.363 481.602C388.008 470.347 391.655 458.705 394.261 446.812C394.706 444.65 395.04 442.591 395.374 440.533C395.594 439.658 395.706 438.759 395.707 437.857C396.152 435.49 396.374 433.225 396.597 430.858C396.819 428.182 396.931 425.608 396.931 423.035C396.931 408.522 393.261 396.891 385.142 389.789C376.468 382.275 358.898 376.511 345.442 374.349C339.898 373.405 334.268 373.06 328.65 373.32C318.197 373.835 311.747 376.305 300.626 373.217C298.206 372.497 295.83 371.638 293.509 370.644C275.493 362.821 260.369 345.324 259.592 328.134C258.702 308.887 276.384 298.697 289.062 281.816C290.899 279.333 292.607 276.756 294.177 274.096C295.359 272.131 296.436 270.104 297.403 268.024C298.237 266.436 298.943 264.784 299.515 263.084H299.627C299.627 262.981 299.737 262.775 299.737 262.673C300.405 261.128 301.072 259.379 301.628 257.629C301.739 257.218 301.961 256.702 302.073 256.188C302.56 254.814 302.932 253.403 303.185 251.968C303.524 251.109 303.748 250.209 303.852 249.291C304.318 247.961 304.617 246.578 304.742 245.174C304.991 244.227 305.176 243.264 305.297 242.292C305.462 241.686 305.574 241.066 305.632 240.44C305.895 239.117 306.044 237.774 306.077 236.425C306.377 234.759 306.563 233.074 306.632 231.382C311.747 230.304 316.994 229.992 322.201 230.455C330.35 231.419 338.06 234.666 344.442 239.823C356.007 247.953 371.688 263.393 391.596 292.829C407.054 315.576 414.727 326.898 419.843 340.69C445.419 409.859 407.831 477.792 397.044 495.6Z" fill="#282724"/>
<path opacity="0.18" d="M377.691 500.025C373.689 506.613 369.129 513.406 364.125 520.405C370.325 509.957 375.859 499.128 380.695 487.983C381.585 485.821 382.586 483.762 383.363 481.601C388.008 470.346 391.655 458.705 394.261 446.811C394.706 444.649 395.04 442.591 395.374 440.533C395.594 439.657 395.706 438.759 395.707 437.856C396.152 435.489 396.374 433.122 396.597 430.857C396.82 428.181 396.931 425.608 396.931 423.034C396.931 408.521 393.261 396.89 385.142 389.788C376.468 382.274 358.898 376.51 345.442 374.349C339.898 373.404 334.268 373.059 328.65 373.319C318.197 373.834 311.747 376.304 300.626 373.216C298.206 372.496 295.83 371.637 293.509 370.644C275.493 362.821 260.369 345.323 259.592 328.134C258.702 308.886 276.384 298.696 289.062 281.816C290.899 279.332 292.607 276.756 294.177 274.096C295.359 272.13 296.436 270.103 297.403 268.024C298.237 266.435 298.943 264.783 299.515 263.083H299.627C299.627 262.98 299.737 262.774 299.737 262.672C300.405 261.025 301.072 259.378 301.628 257.628C301.739 257.217 301.961 256.701 302.073 256.187C302.518 254.849 302.851 253.408 303.185 251.967C303.524 251.108 303.748 250.208 303.852 249.291C304.265 247.946 304.563 246.569 304.742 245.173C304.991 244.226 305.176 243.263 305.297 242.292C305.427 241.682 305.501 241.062 305.52 240.439C305.743 239.101 305.965 237.763 306.077 236.425C307.522 237.145 308.968 237.866 310.636 238.689H310.747C319.086 242.993 327.113 247.877 334.768 253.305C337.879 255.363 340.995 257.731 344.223 260.305V260.407C355.563 269.508 365.69 280.024 374.357 291.699C386.103 307.854 394.946 325.931 400.49 345.119C420.728 414.079 394.261 472.852 377.691 500.025Z" fill="#282724"/>
<path opacity="0.05" d="M675.321 120.088C674.543 117.515 654.748 53.5962 594.03 27.1431C579.697 21.8792 564.972 17.7493 549.992 14.7912C522.768 7.30193 494.866 2.5441 466.699 0.588167C457.802 0.278913 360.719 -2.29457 327.024 48.4493C317.682 62.4475 323.131 65.6382 306.893 96.2098C298.442 112.267 289.546 125.441 291.659 143.146C292.099 146.945 292.995 150.677 294.327 154.262C294.327 154.276 294.331 154.29 294.336 154.303C294.342 154.316 294.35 154.328 294.361 154.337C294.371 154.347 294.384 154.354 294.397 154.359C294.411 154.363 294.425 154.365 294.439 154.364C294.984 155.992 295.653 157.575 296.44 159.099C304.161 182.375 307.626 206.852 306.671 231.356C306.602 233.048 306.416 234.733 306.115 236.399C306.004 237.737 305.782 239.075 305.559 240.414C305.54 241.037 305.466 241.657 305.337 242.266C305.215 243.238 305.029 244.2 304.781 245.148C304.602 246.543 304.304 247.92 303.891 249.265C303.786 250.182 303.562 251.082 303.224 251.941C302.89 253.383 302.556 254.823 302.112 256.161C302.001 256.676 301.778 257.191 301.667 257.603C301.111 259.352 300.447 260.999 299.776 262.646C299.776 262.749 299.664 262.955 299.664 263.058H299.553C298.981 264.759 298.275 266.411 297.44 267.999C296.473 270.079 295.397 272.105 294.216 274.071C292.645 276.731 290.938 279.308 289.1 281.791C276.423 298.672 258.741 308.861 259.631 328.109C260.409 345.299 275.533 362.796 293.547 370.619C295.868 371.612 298.245 372.472 300.665 373.192C311.785 376.281 318.233 373.809 328.688 373.295C334.306 373.035 339.936 373.38 345.48 374.325C358.936 376.486 376.507 382.25 385.181 389.764C393.299 396.867 396.969 408.496 396.969 423.007C396.969 425.58 396.858 428.153 396.636 430.829C396.413 433.094 396.19 435.462 395.745 437.829C395.744 438.731 395.632 439.63 395.412 440.505C395.078 442.564 394.744 444.622 394.3 446.784C391.693 458.677 388.046 470.318 383.402 481.573C382.623 483.734 381.622 485.794 380.733 487.955C375.897 499.101 370.363 509.93 364.163 520.378C364.056 520.641 363.906 520.884 363.718 521.098C361.605 524.701 359.381 528.303 357.046 531.803C356.601 532.626 356.045 533.45 355.489 534.273C353.042 538.081 350.373 541.787 347.704 545.389C345.488 548.594 343.113 551.686 340.587 554.653C339.03 556.815 337.251 558.874 335.585 560.932C332.916 564.02 330.248 567.107 327.578 569.99C321.032 577.105 314.05 583.807 306.672 590.057C304.003 592.528 301.446 594.69 298.776 596.748C297.441 597.88 296.107 599.012 294.773 600.042C272.361 619.35 247.263 635.299 220.264 647.389C211.813 650.889 203.25 653.564 203.25 653.564C195.021 656.138 187.681 658.094 181.787 659.329C196.109 657.092 210.237 653.754 224.046 649.345C272.532 633.905 300.444 610.643 301.779 612.188C302.999 613.731 278.426 637.714 240.393 654.08C221.449 662.149 201.455 667.486 181.009 669.93V670.137C181.454 675.592 181.899 680.018 182.455 683.517C182.481 683.691 182.518 683.863 182.566 684.032C182.925 688.652 184.171 693.16 186.236 697.309C186.325 697.401 186.4 697.505 186.458 697.618C188.023 700.33 189.114 703.288 189.683 706.367C189.835 707.251 189.873 708.15 189.794 709.043C189.461 714.396 186.791 715.116 182.788 724.174C180.394 729.703 178.713 735.513 177.786 741.466C186.175 746.95 193.707 753.645 200.138 761.332C215.819 780.271 210.37 788.505 222.38 801.062C238.728 818.149 252.851 807.443 278.984 827.618C292.439 838.116 294.33 845.425 306.786 848.307C315.793 850.365 317.683 847.174 339.482 846.762C357.275 846.454 360.055 848.512 368.173 846.042C375.846 843.674 378.848 840.073 390.415 829.882C415.436 807.753 418.658 809.502 427.779 798.18C432.45 792.519 436.008 786.549 443.793 767.919C448.353 757.009 453.69 743.01 459.25 726.233C460.14 723.762 460.808 721.395 461.586 719.131C462.806 715.322 463.81 711.925 464.697 708.94C465.214 707.523 465.659 706.08 466.031 704.618C432.447 701.118 398.863 697.516 365.279 694.016C367.17 725.1 357.605 750.627 341.036 756.082C335.232 757.59 329.229 758.18 323.242 757.832C312.063 758.137 301.053 755.051 291.66 748.98C283.896 743.027 278.466 734.541 276.314 724.997C268.75 696.487 291.66 670.24 296.444 664.784C315.46 642.86 340.037 635.346 362.386 628.451C386.274 621.244 411.177 617.976 436.116 618.775C438.227 608.976 441.435 599.447 445.679 590.367C455.91 568.751 464.139 566.693 469.592 548.783C474.594 532.417 470.037 526.448 477.265 520.48C485.161 513.893 493.835 518.216 505.956 509.776C512.517 505.247 512.849 502.056 518.411 496.498C528.481 487.377 541.244 481.778 554.775 480.544C551.618 474.129 549.372 467.304 548.104 460.267C547.103 454.709 545.1 440.299 555.668 407.053C563.007 384.408 567.344 370.821 578.687 354.868C593.033 334.693 599.149 337.884 614.051 317.608C627.173 299.801 625.95 292.596 640.851 262.747C656.309 231.765 661.535 231.662 669.543 214.061C682.048 184.293 684.085 151.164 675.321 120.088Z" fill="#282724"/>
<path opacity="0.18" d="M357.345 320.62C354.343 335.339 347.671 339.148 336.661 358.292C332.992 364.674 330.545 369.409 328.654 373.32C318.201 373.835 311.751 376.304 300.631 373.217C298.211 372.496 295.834 371.638 293.513 370.644C295.738 363.336 295.515 355.307 298.515 346.146C298.849 345.22 299.071 344.603 299.405 343.78C299.542 343.643 299.622 343.459 299.628 343.265C300.457 340.904 301.577 338.657 302.964 336.574C303.075 336.369 303.075 336.266 303.186 336.06C309.08 327.414 317.198 323.914 326.872 310.43C334.422 299.624 339.613 287.35 342.108 274.406C347.247 277.525 351.527 281.876 354.563 287.065C359.558 297.535 360.548 309.471 357.345 320.62Z" fill="#282724"/>
<path d="M553.261 551.359C541.63 591.399 504.368 610.235 502 611.47C481.475 621.203 458.279 623.776 436.119 618.778C438.224 608.976 441.435 599.446 445.692 590.37C455.882 568.754 464.118 566.696 469.573 548.786C474.617 532.42 469.985 526.451 477.294 520.483C485.116 513.896 493.866 518.22 505.91 509.779C512.498 505.251 512.806 502.059 518.365 496.502C527.743 487.958 539.538 482.528 552.128 480.959C554.124 488.694 555.5 496.576 556.244 504.53C558.204 520.188 557.192 536.076 553.261 551.359Z" fill="#DBE2F1" stroke="#282724" stroke-miterlimit="10"/>
<path d="M49.7128 4159.08C43.6554 4170.29 40.7246 4182.93 41.2274 4195.66C41.7302 4208.4 45.6481 4220.76 52.5707 4231.46C86.6769 4279.15 199.428 4270.05 234.366 4211.41C236.668 4207.55 254.718 4176.29 241.476 4151.18C215.753 4102.41 83.2431 4098.25 49.7128 4159.08Z" fill="#DBE2F1" stroke="#282724" stroke-miterlimit="10"/>
<path d="M187.966 2355.65C180.665 2366.7 175.917 2379.22 174.067 2392.33C172.217 2405.44 173.31 2418.79 177.269 2431.42C188.005 2463.94 217.538 2479.76 236.103 2489.36C306.006 2525.5 425.179 2533.33 460.745 2471.53C476.208 2444.67 473.555 2408.66 459.853 2382.4C414.564 2295.59 234.864 2289.06 187.966 2355.65Z" fill="#DBE2F1" stroke="#282724" stroke-miterlimit="10"/>
<path d="M466.794 2574.94C461.502 2588.76 455.278 2602.21 448.163 2615.19C400.916 2705.35 369.623 2970.29 339.566 3225.25C327.523 3327.56 316.097 3423.69 306.112 3511.49V3511.91C279.966 3742.57 263.188 3915.59 267.717 3991.76C267.923 3994.85 268.129 3997.73 268.438 4000.51C268.541 4002.26 268.746 4003.91 268.952 4005.55C268.936 4005.76 268.971 4005.98 269.055 4006.17C269.158 4007.1 269.364 4008.02 269.467 4008.85C269.879 4011.52 270.29 4013.99 270.702 4016.36C270.805 4016.77 270.908 4017.29 271.011 4017.9C271.423 4019.55 271.937 4021.92 272.349 4024.7C272.658 4026.45 272.967 4028.4 273.172 4030.57C273.481 4032.31 273.687 4034.27 273.893 4036.23C273.996 4037.26 274.099 4038.29 274.099 4039.31C273.996 4039.42 274.099 4039.62 274.099 4039.73C274.087 4040.07 274.122 4040.42 274.202 4040.75C274.137 4041.34 274.171 4041.93 274.305 4042.5C274.29 4043.4 274.324 4044.29 274.407 4045.18C274.407 4046.21 274.511 4047.24 274.511 4048.37V4049.61C274.614 4067.21 271.32 4087.59 257.63 4101.48C247.336 4111.88 229.63 4120.32 216.249 4115.38C216.236 4115.38 216.222 4115.38 216.209 4115.37C216.197 4115.37 216.185 4115.36 216.176 4115.35C216.166 4115.34 216.158 4115.33 216.153 4115.31C216.148 4115.3 216.146 4115.29 216.146 4115.28C211.323 4109.67 207.462 4103.31 204.721 4096.44C184.442 4049.61 204.721 3989.6 213.058 3961.91C248.468 3843.65 234.674 3716.01 245.895 3593.12C245.895 3592.81 245.998 3592.5 245.998 3592.09C245.981 3591.78 246.016 3591.46 246.1 3591.16V3591.06C246.1 3590.75 246.203 3590.34 246.203 3590.03C246.306 3589 246.409 3587.87 246.512 3586.53C246.615 3585.5 246.718 3584.27 246.821 3582.93V3582.62C246.924 3582.21 246.924 3581.79 247.027 3581.38V3580.46C247.13 3580.04 247.13 3579.63 247.233 3579.22C247.256 3578.57 247.324 3577.91 247.438 3577.27C247.541 3576.13 247.644 3574.9 247.747 3573.87C247.73 3573.42 247.765 3572.97 247.851 3572.53C247.975 3571.89 248.044 3571.23 248.056 3570.57C248.107 3570.5 248.134 3570.41 248.134 3570.32C248.134 3570.23 248.107 3570.14 248.056 3570.06V3569.96L248.365 3567.49C248.468 3566.36 248.673 3565.12 248.777 3563.99C248.983 3562.34 249.086 3560.59 249.291 3558.84C249.394 3558.43 249.394 3557.92 249.497 3557.4C249.703 3555.86 249.806 3554.42 250.012 3552.97C250.03 3552.42 250.099 3551.87 250.218 3551.33C250.321 3550.4 250.424 3549.58 250.527 3548.65V3548.34C250.732 3547.11 250.835 3545.77 251.042 3544.43C251.659 3538.77 252.38 3533.01 253.203 3526.21C253.615 3523.12 254.026 3519.83 254.438 3516.23C254.644 3514.68 254.85 3513.04 255.056 3511.39C255.262 3509.54 255.468 3507.69 255.674 3505.63C255.879 3503.98 256.085 3502.23 256.291 3500.48C256.497 3498.63 256.806 3496.67 257.011 3494.61C257.63 3489.26 258.247 3483.5 258.967 3477.01C259.379 3473.82 259.688 3470.42 260.1 3466.92C260.511 3463.32 260.923 3459.62 261.335 3455.71C264.526 3426.27 267.888 3396.83 271.423 3367.39C271.526 3366.16 271.732 3364.82 271.834 3363.48C275.437 3333.43 279.143 3303.37 282.951 3273.32C283.054 3272.39 283.157 3271.57 283.26 3270.74C286.554 3244.91 289.849 3218.97 293.245 3193.13C296.642 3167.3 300.138 3141.46 303.641 3115.63C304.156 3111.41 304.67 3107.29 305.288 3103.17C308.274 3081.46 311.156 3059.74 314.142 3038.12C331.949 2908.95 350.272 2779.77 366.947 2650.49C367.05 2649.67 367.252 2648.43 367.462 2646.68C367.667 2645.76 367.77 2644.62 367.976 2643.39C369.356 2635.67 371.212 2628.03 373.535 2620.54C374.152 2618.48 374.873 2616.42 375.697 2614.26C376.52 2611.59 377.549 2608.91 378.682 2606.13C379.505 2604.28 380.225 2602.42 381.05 2600.57C382.182 2598 383.314 2595.63 384.445 2593.16C384.652 2592.85 384.755 2592.44 384.961 2592.13C385.578 2590.79 386.196 2589.45 386.917 2588.12L387.225 2587.5C387.561 2586.95 387.837 2586.36 388.049 2585.75C388.254 2585.44 388.358 2585.13 388.564 2584.82C388.59 2584.67 388.661 2584.53 388.769 2584.41C398.343 2565.06 412.856 2539.54 437.252 2531.3H437.355C438.899 2530.79 440.443 2530.37 442.09 2529.96C442.648 2529.86 443.198 2529.72 443.737 2529.55C450.016 2528.21 461.751 2526.15 468.236 2532.43C476.368 2540.26 472.971 2557.86 466.794 2574.94Z" fill="#FFEECC" stroke="#282724" stroke-miterlimit="10"/>
<path opacity="0.05" d="M468.236 2532.43C461.751 2526.15 450.016 2528.21 443.737 2529.55C444.149 2529.35 444.561 2529.04 445.075 2528.83C443.634 2529.35 442.605 2529.76 442.09 2529.96C438.599 2531.37 435.196 2532.98 431.9 2534.8C431.9 2534.81 431.898 2534.83 431.893 2534.84C431.887 2534.85 431.88 2534.86 431.87 2534.87C431.861 2534.88 431.849 2534.89 431.837 2534.9C431.824 2534.9 431.81 2534.9 431.797 2534.9C414.563 2545.6 400.66 2560.89 391.652 2579.06C390.726 2580.81 389.696 2582.56 388.769 2584.41C388.661 2584.53 388.59 2584.67 388.564 2584.82C388.358 2585.13 388.254 2585.44 388.049 2585.75C387.837 2586.36 387.561 2586.95 387.225 2587.5L386.917 2588.12C386.196 2589.45 385.578 2590.79 384.961 2592.13C384.755 2592.44 384.652 2592.85 384.445 2593.16C383.314 2595.63 382.182 2598 381.05 2600.57C380.225 2602.42 379.505 2604.28 378.682 2606.13C377.549 2608.91 376.52 2611.59 375.697 2614.26C374.873 2616.42 374.152 2618.48 373.535 2620.54C371.212 2628.03 369.356 2635.67 367.976 2643.39C367.77 2644.62 367.667 2645.76 367.462 2646.68C367.255 2648.43 367.05 2649.67 366.947 2650.49C350.272 2779.77 331.949 2908.95 314.142 3038.12C311.156 3059.74 308.274 3081.46 305.288 3103.17C304.67 3107.29 304.156 3111.41 303.641 3115.63C300.141 3141.46 296.676 3167.3 293.245 3193.13C289.848 3218.97 286.554 3244.91 283.26 3270.74C283.157 3271.57 283.054 3272.39 282.951 3273.32C279.143 3303.37 275.437 3333.43 271.834 3363.48C271.732 3364.82 271.526 3366.16 271.423 3367.39C267.923 3396.83 264.56 3426.27 261.335 3455.71C260.923 3459.62 260.511 3463.32 260.1 3466.92C259.688 3470.42 259.379 3473.82 258.967 3477.01C258.247 3483.5 257.63 3489.26 257.011 3494.61C256.806 3496.67 256.497 3498.63 256.291 3500.48C256.085 3502.23 255.879 3503.98 255.674 3505.63C255.468 3507.69 255.262 3509.54 255.056 3511.39C254.85 3513.04 254.644 3514.68 254.438 3516.23C254.026 3519.83 253.615 3523.12 253.203 3526.21C252.38 3533 251.659 3538.77 251.042 3544.43C250.835 3545.77 250.732 3547.11 250.527 3548.34V3548.65C250.424 3549.58 250.321 3550.4 250.218 3551.33C250.099 3551.87 250.03 3552.42 250.012 3552.97C249.806 3554.41 249.703 3555.86 249.497 3557.4C249.394 3557.91 249.394 3558.43 249.291 3558.84C249.086 3560.59 248.983 3562.34 248.777 3563.99C248.673 3565.12 248.468 3566.35 248.365 3567.49L248.056 3569.96V3570.06C248.107 3570.14 248.134 3570.23 248.134 3570.32C248.134 3570.41 248.107 3570.5 248.056 3570.57C248.044 3571.23 247.975 3571.89 247.851 3572.53C247.765 3572.97 247.73 3573.42 247.747 3573.87C247.628 3574.41 247.559 3574.96 247.541 3575.51C247.541 3576.13 247.438 3576.75 247.438 3577.27C247.324 3577.91 247.256 3578.56 247.233 3579.22C247.13 3579.63 247.13 3580.04 247.027 3580.46V3581.38C246.924 3581.79 246.924 3582.21 246.821 3582.62V3582.93C246.718 3584.26 246.615 3585.5 246.512 3586.53C246.409 3587.87 246.306 3589 246.203 3590.03C246.203 3590.34 246.1 3590.75 246.1 3591.06V3591.16C246.016 3591.46 245.981 3591.77 245.998 3592.09C245.998 3592.5 245.895 3592.81 245.895 3593.12C234.674 3716.01 248.468 3843.65 213.058 3961.91C204.721 3989.6 184.442 4049.61 204.721 4096.44C207.462 4103.31 211.323 4109.67 216.146 4115.27C216.146 4115.29 216.148 4115.3 216.153 4115.31C216.158 4115.33 216.166 4115.34 216.176 4115.35C216.185 4115.36 216.197 4115.37 216.209 4115.37C216.222 4115.38 216.236 4115.38 216.249 4115.38C229.631 4120.32 247.336 4111.88 257.63 4101.48C271.32 4087.59 274.614 4067.21 274.511 4049.61V4048.37C274.511 4047.24 274.407 4046.21 274.407 4045.18C274.324 4044.29 274.29 4043.4 274.305 4042.5C274.171 4041.93 274.137 4041.34 274.202 4040.75C274.122 4040.42 274.087 4040.07 274.099 4039.73C274.099 4039.62 273.996 4039.42 274.099 4039.31C274.099 4038.28 273.996 4037.26 273.893 4036.23C273.687 4034.27 273.481 4032.31 273.172 4030.56C272.967 4028.4 272.658 4026.45 272.349 4024.7C271.937 4021.92 271.423 4019.55 271.011 4017.9C270.908 4017.29 270.805 4016.77 270.702 4016.36C270.29 4013.99 269.879 4011.52 269.467 4008.85C269.055 4006.27 268.746 4003.49 268.438 4000.51C268.129 3997.73 267.923 3994.85 267.717 3991.76C263.188 3915.59 279.966 3742.57 306.112 3511.91V3511.49C310.435 3408.46 314.759 3302.86 321.449 3212.69C353.153 2784.61 398.033 2667.27 439.414 2613.23C443.428 2607.98 456.089 2591.93 466.794 2574.94C472.971 2557.86 476.368 2540.26 468.236 2532.43Z" fill="#282724"/>
<path opacity="0.1" d="M431.486 2552.19C416.972 2573.6 402.768 2577.82 403.899 2588.22C404.723 2595.73 412.444 2596.25 415.017 2605.72C418.414 2618.38 408.325 2631.14 406.885 2633.2C394.532 2650.8 334.111 2853.26 307.759 3219.17C276.16 3656.42 259.585 3894.59 267.717 3991.76C267.923 3994.85 268.129 3997.73 268.438 4000.51C268.746 4003.5 269.055 4006.27 269.467 4008.85C269.879 4011.52 270.29 4013.99 270.702 4016.36C270.805 4016.77 270.908 4017.29 271.011 4017.91C271.834 4022.43 273.275 4030.05 274.099 4039.31C273.996 4039.42 274.099 4039.62 274.099 4039.73C274.087 4040.07 274.122 4040.42 274.202 4040.76C274.136 4041.34 274.171 4041.93 274.305 4042.51C274.29 4043.4 274.324 4044.29 274.407 4045.18C274.407 4046.21 274.51 4047.24 274.51 4048.37V4049.61C274.613 4067.21 271.319 4087.59 257.63 4101.48C247.336 4111.88 229.63 4120.32 216.249 4115.38C216.235 4115.38 216.222 4115.38 216.209 4115.37C216.197 4115.37 216.185 4115.36 216.176 4115.35C216.166 4115.34 216.158 4115.33 216.153 4115.32C216.148 4115.3 216.146 4115.29 216.146 4115.28C211.323 4109.67 207.462 4103.31 204.721 4096.44C184.442 4049.61 204.721 3989.6 213.058 3961.91C248.468 3843.65 234.674 3716.02 245.895 3593.12C245.895 3592.81 245.998 3592.5 245.998 3592.09C245.981 3591.78 246.016 3591.46 246.101 3591.16V3591.06C246.101 3590.75 246.203 3590.34 246.203 3590.03C246.306 3589 246.409 3587.87 246.512 3586.53C246.615 3585.5 246.718 3584.27 246.821 3582.93V3582.62C246.924 3582.1 246.924 3581.49 247.027 3580.87V3580.46C247.233 3578.91 247.336 3577.27 247.541 3575.52C247.559 3574.96 247.628 3574.41 247.747 3573.87C247.73 3573.42 247.765 3572.97 247.851 3572.53C247.975 3571.89 248.044 3571.23 248.056 3570.58C248.107 3570.5 248.134 3570.41 248.134 3570.32C248.134 3570.23 248.107 3570.14 248.056 3570.06V3569.96L248.365 3567.49C248.468 3566.36 248.673 3565.12 248.777 3563.99C248.983 3562.34 249.086 3560.59 249.291 3558.84C249.394 3558.43 249.394 3557.92 249.497 3557.4C249.703 3555.86 249.806 3554.42 250.012 3552.98C250.03 3552.42 250.099 3551.87 250.218 3551.33C250.321 3550.4 250.424 3549.58 250.527 3548.65V3548.34C250.732 3547.11 250.835 3545.77 251.042 3544.43C251.659 3538.77 252.38 3533.01 253.203 3526.21C253.615 3523.13 254.026 3519.83 254.438 3516.23C254.644 3514.69 254.85 3513.04 255.056 3511.39C255.261 3509.54 255.468 3507.69 255.674 3505.63C255.879 3503.98 256.085 3502.23 256.291 3500.48C256.497 3498.63 256.806 3496.67 257.011 3494.61C257.63 3489.26 258.247 3483.5 258.967 3477.01C259.379 3473.82 259.688 3470.43 260.1 3466.93C260.511 3463.32 260.923 3459.62 261.335 3455.71C264.525 3426.27 267.888 3396.83 271.423 3367.39C271.526 3366.16 271.732 3364.82 271.834 3363.48C275.437 3333.43 279.143 3303.37 282.951 3273.32C283.054 3272.39 283.157 3271.57 283.26 3270.74C286.554 3244.91 289.848 3218.97 293.245 3193.14C296.641 3167.3 300.138 3141.47 303.641 3115.63C304.156 3111.41 304.67 3107.29 305.288 3103.18C308.274 3081.46 311.155 3059.74 314.141 3038.12C331.949 2908.95 350.272 2779.77 366.947 2650.49C367.05 2649.67 367.252 2648.44 367.462 2646.69C367.667 2645.76 367.77 2644.63 367.976 2643.39C369.356 2635.67 371.212 2628.04 373.535 2620.54C374.152 2618.48 374.873 2616.42 375.697 2614.26C376.52 2611.59 377.549 2608.91 378.681 2606.13C379.505 2604.28 380.225 2602.43 381.05 2600.57C382.182 2598 383.314 2595.63 384.445 2593.16C384.652 2592.85 384.755 2592.44 384.961 2592.13C396.187 2569.85 412.177 2550.32 431.797 2534.9C431.81 2534.9 431.824 2534.9 431.836 2534.9C431.849 2534.89 431.861 2534.88 431.87 2534.87C431.88 2534.87 431.887 2534.85 431.892 2534.84C431.897 2534.83 431.9 2534.82 431.9 2534.8C433.958 2533.36 435.811 2532.13 437.252 2531.3H437.355C439.825 2529.96 441.473 2529.45 442.09 2529.96C444.044 2531.61 436.427 2544.89 431.486 2552.19Z" fill="#282724"/>
<path d="M53.7274 4264.07C39.2153 4264.75 22.2687 4284.99 16.7189 4291.06C10.4713 4296.68 5.51785 4303.59 2.20062 4311.31C-3.84823 4328.91 7.39364 4340.83 17.79 4376.24C22.7724 4390.52 25.8704 4405.4 27.0055 4420.48C27.8138 4437.03 25.0052 4440.05 28.0638 4447.77C35.6975 4467.05 66.4657 4481.79 85.9286 4473.2C106.882 4463.94 102.636 4432.87 121.621 4428.21C132.999 4425.42 138.565 4436.44 156.826 4442.59C186.387 4452.54 225.487 4442.12 228.858 4428.02C232.827 4411.43 183.886 4404.02 133.636 4351.96C89.3953 4306.13 78.3553 4262.94 53.7274 4264.07Z" fill="#FFEECC" stroke="#282724" stroke-miterlimit="10"/>
<path opacity="0.1" d="M53.7274 4264.07C39.2153 4264.75 22.2687 4284.99 16.7189 4291.06C10.4713 4296.68 5.51785 4303.59 2.20062 4311.31C-3.84823 4328.91 7.39364 4340.83 17.79 4376.24C22.7724 4390.52 25.8704 4405.4 27.0055 4420.48C27.8138 4437.03 25.0052 4440.05 28.0638 4447.77C35.6975 4467.05 66.4657 4481.79 85.9286 4473.2C106.882 4463.94 102.636 4432.87 121.621 4428.21C132.999 4425.42 138.565 4436.44 156.826 4442.59C186.387 4452.54 225.487 4442.12 228.858 4428.02C232.827 4411.43 183.886 4404.02 133.636 4351.96C89.3953 4306.13 78.3553 4262.94 53.7274 4264.07Z" fill="#282724"/>
<path opacity="0.1" d="M53.7274 4264.07C39.2153 4264.75 22.2687 4284.99 16.7189 4291.06C10.4713 4296.68 5.51785 4303.59 2.20062 4311.31C-3.84823 4328.91 7.39364 4340.83 17.79 4376.24C22.7724 4390.52 25.8704 4405.4 27.0055 4420.48C27.8138 4437.03 25.0052 4440.05 28.0638 4447.77C35.6975 4467.05 66.4657 4481.79 85.9286 4473.2C106.882 4463.94 102.636 4432.87 121.621 4428.21C132.999 4425.42 138.565 4436.44 156.826 4442.59C186.387 4452.54 225.487 4442.12 228.858 4428.02C232.827 4411.43 183.886 4404.02 133.636 4351.96C89.3953 4306.13 78.3553 4262.94 53.7274 4264.07Z" fill="#282724"/>
<path d="M477.19 2499.7C469.984 2514.83 458.044 2521.63 445.074 2528.83C444.56 2529.04 444.148 2529.34 443.736 2529.55C443.221 2529.86 442.707 2530.06 442.192 2530.37C435.246 2534.02 428.602 2538.22 422.325 2542.93C422.11 2543.14 421.868 2543.31 421.605 2543.45C421.396 2543.69 421.153 2543.89 420.884 2544.06C409.017 2553.78 399.097 2565.65 391.65 2579.06C390.724 2580.81 389.695 2582.56 388.768 2584.41C388.66 2584.53 388.588 2584.67 388.563 2584.82C388.049 2585.63 387.634 2586.49 387.327 2587.4C387.213 2587.48 387.117 2587.59 387.047 2587.71C386.976 2587.84 386.931 2587.97 386.915 2588.12C386.195 2589.45 385.577 2590.79 384.96 2592.13C383.621 2594.91 382.283 2597.69 381.048 2600.57C380.224 2602.42 379.504 2604.28 378.68 2606.13C376.21 2611.89 373.843 2617.97 371.373 2624.25C326.801 2736.03 304.567 2883.73 293.45 3011.46C293.365 3011.84 293.33 3012.22 293.347 3012.6C283.053 3133.02 282.642 3235.64 282.95 3273.32C283.053 3283.3 283.156 3288.75 283.156 3288.75C288.818 3538.56 230.762 3792.28 273.789 4038.49C273.892 4039 273.995 4039.52 274.098 4040.14C274.082 4040.35 274.117 4040.56 274.201 4040.75V4040.96C277.906 4062.57 291.597 4147.7 252.276 4173.84C248.691 4176.29 244.674 4178.04 240.438 4178.99C209.866 4186.71 170.853 4156.65 107.548 4176.93C79.2439 4185.99 61.1266 4200.29 45.4774 4190.93C43.9427 4190 42.5257 4188.9 41.2574 4187.63C40.64 4187.02 40.022 4186.3 39.4047 4185.68C31.5813 4176.11 29.1109 4159.33 29.3165 4137.4C29.832 4083.88 30.0369 4057.12 62.7705 3999.38C157.884 3831.91 205.131 3080.12 201.528 2835.66C199.47 2697.74 198.441 2628.67 187.632 2603.66C180.323 2586.78 157.163 2538.2 172.088 2487.56C175.041 2475.1 180.856 2463.51 189.073 2453.69C191.425 2451.13 194.009 2448.78 196.793 2446.69C224.38 2426.31 265.863 2435.68 300.758 2444.84C336.58 2454.1 346.77 2466.25 370.858 2461.31C396.797 2455.96 400.091 2438.56 426.752 2436.19C441.809 2434.66 456.935 2438.37 469.574 2446.69C473.794 2449.73 477.248 2453.72 479.661 2458.32C488.719 2475.82 478.837 2496.1 477.19 2499.7Z" fill="#FFEECC" stroke="#282724" stroke-miterlimit="10"/>
<path opacity="0.07" d="M170.503 4111.91C150.036 4116.15 151.849 4144.66 127.218 4153.54C100.383 4163.21 60.2392 4143.07 56.4681 4120.69C52.0992 4094.76 97.0189 4068.52 114.574 4056.1C207.947 3990.07 221.788 3823.98 226.237 3690.85C233.058 3486.71 241.653 2645.96 276.219 2588.83C282.27 2578.67 287.028 2567.8 290.381 2556.46C295.338 2539.94 301.501 2519.4 293.858 2501.92C281.155 2472.87 232.951 2458.25 213.369 2473.36C197.636 2485.5 202.242 2515.87 211.127 2576.65C214.955 2602.85 219.691 2621.82 219.836 2623.05C225.187 2668.57 220.256 2712.89 215.596 2818.69C204.537 3069.79 191.463 3900.15 80.8977 4036.55C74.9842 4043.85 32.8588 4082.34 29.3519 4137.36C28.9053 4144.37 26.6582 4179.63 45.4757 4190.93C61.0773 4200.3 79.2275 4186.04 107.575 4176.95C179.255 4153.98 219.746 4195.57 252.318 4173.85C293.225 4146.58 276.71 4055.14 273.808 4038.53C230.802 3792.3 288.857 3538.6 283.131 3288.71C283.131 3270.99 284.391 2858.9 346.134 2650.37C370.445 2568.27 394.32 2550.85 407.135 2543.93C423.685 2534.98 447.595 2529.57 458.567 2506.85C464.606 2494.35 467.669 2476.51 460.746 2471.53C448.173 2462.5 406.604 2498.56 388.72 2516.32C322.245 2582.35 306.295 2670.39 302.577 2692.49C269.321 2890.07 267.136 3225.53 256.4 3427.24C256.4 3427.24 226.908 3981.56 258.609 4053.74C265.662 4070.04 268.696 4087.81 267.454 4105.53C266.948 4112.23 264.252 4147.87 247.24 4153.54C224.253 4161.19 200.102 4105.78 170.503 4111.91Z" fill="#282724"/>
<path d="M476.289 4477.86C478.149 4481.13 489.994 4476.89 508.736 4477.46C535.745 4478.27 544.994 4488.11 558.589 4482.54C563.891 4480.27 568.414 4476.5 571.605 4471.69C572.707 4470.01 578.58 4461.28 574.832 4458.33C570.506 4454.92 558.915 4463.56 537.042 4463.68C531.253 4464.06 525.452 4463.17 520.04 4461.08C513.491 4458.11 513.421 4454.71 508.791 4454.11C503.625 4453.45 498.914 4457.31 489.177 4464.64C480.509 4471.17 474.894 4475.4 476.289 4477.86Z" fill="#FFEECC" stroke="#282724" stroke-miterlimit="10"/>
<path d="M585.091 4461.11C590.444 4460.74 590.365 4468.88 601.885 4474.79C612.969 4480.48 623.635 4478.38 625.446 4483.19C625.769 4484.64 625.575 4486.15 624.898 4487.46C624.221 4488.77 623.104 4489.81 621.742 4490.38C616.374 4492.93 610.654 4486.99 594.334 4483.6C583.091 4481.26 579.007 4482.67 576.348 4479.71C571.405 4474.2 578.558 4461.57 585.091 4461.11Z" fill="#FFEECC" stroke="#282724" stroke-miterlimit="10"/>
<path opacity="0.1" d="M571.581 4471.72C568.422 4476.53 563.908 4480.29 558.611 4482.53C545.024 4488.09 535.759 4478.31 508.687 4477.49C489.953 4476.87 478.116 4481.09 476.263 4477.9C474.925 4475.43 480.483 4471.21 489.13 4464.62C498.908 4457.31 503.643 4453.5 508.79 4454.12C508.963 4454.15 509.135 4454.18 509.305 4454.23C508.469 4455.5 508.173 4457.06 508.482 4458.55C509.511 4461.64 514.761 4461.53 526.701 4464.31C544.097 4468.43 544.611 4471.31 551.199 4471.11C560.469 4470.19 569.026 4465.73 575.081 4458.65C578.272 4461.84 572.713 4469.97 571.581 4471.72Z" fill="#282724"/>
<path opacity="0.1" d="M621.712 4490.35C616.359 4492.93 610.698 4486.96 594.33 4483.56C583.111 4481.3 578.993 4482.63 576.317 4479.75C571.376 4474.19 578.582 4461.53 585.067 4461.12C585.924 4461.02 586.791 4461.2 587.537 4461.64C585.87 4462.82 584.697 4464.58 584.243 4466.58C583.625 4471.41 589.287 4475.84 591.449 4477.59C596.128 4481.06 601.697 4483.13 607.507 4483.56C613.443 4484.17 619.435 4483.96 625.315 4482.94C625.315 4483.05 625.417 4483.05 625.417 4483.15C625.742 4484.59 625.549 4486.11 624.872 4487.42C624.194 4488.74 623.076 4489.78 621.712 4490.35Z" fill="#282724"/>
<path d="M489.38 4488.41C491.22 4491.76 504.2 4488.06 524.372 4489.48C553.443 4491.53 562.918 4501.77 577.852 4496.83C583.589 4494.87 588.646 4491.32 592.426 4486.58C593.698 4484.95 600.467 4476.5 596.574 4473.37C592.083 4469.77 579.156 4477.88 555.573 4477.01C549.342 4477.13 543.153 4475.98 537.378 4473.64C530.469 4470.37 530.565 4466.97 525.605 4466.17C520.071 4465.27 514.799 4468.91 503.935 4475.8C494.264 4481.92 488 4485.9 489.38 4488.41Z" fill="#FFEECC" stroke="#282724" stroke-miterlimit="10"/>
<path d="M607.494 4476.62C613.281 4476.49 612.787 4484.62 624.907 4491.05C636.567 4497.23 648.17 4495.62 649.88 4500.51C650.131 4502.01 649.827 4503.54 649.025 4504.83C648.224 4506.12 646.98 4507.08 645.525 4507.52C639.608 4509.82 633.745 4503.63 616.325 4499.5C604.324 4496.66 599.852 4497.88 597.135 4494.8C592.083 4489.07 600.43 4476.78 607.494 4476.62Z" fill="#FFEECC" stroke="#282724" stroke-miterlimit="10"/>
<path opacity="0.1" d="M597.726 4476.97C596.671 4480.5 594.881 4483.76 592.476 4486.54C588.68 4491.29 583.61 4494.86 577.859 4496.84C562.933 4501.78 553.463 4491.48 524.332 4489.53C504.157 4488.09 491.187 4491.79 489.334 4488.4C487.996 4485.93 494.275 4481.91 503.951 4475.84C512.907 4470.08 518.259 4466.57 522.891 4466.16C517.539 4470.49 514.656 4474.29 515.48 4476.56C516.921 4480.26 527.42 4476.46 548.111 4481.19C562.316 4484.49 563.654 4487.78 570.757 4488.19C580.807 4487.83 590.388 4483.85 597.726 4476.97Z" fill="#282724"/>
<path opacity="0.1" d="M650.018 4502.5C649.725 4503.64 649.16 4504.7 648.372 4505.58C647.583 4506.45 646.594 4507.13 645.488 4507.54C639.621 4509.81 633.754 4503.63 616.357 4499.51C604.314 4496.63 599.887 4497.87 597.108 4494.78C592.373 4489.43 599.578 4478.1 606.372 4476.87C605.683 4477.73 605.196 4478.72 604.947 4479.79C604.697 4480.86 604.692 4481.97 604.931 4483.05C605.755 4485.72 610.799 4487.68 620.99 4491.69C626.548 4493.85 626.547 4493.54 629.533 4494.88C638.18 4499 639.106 4502.6 643.326 4503.43C645.6 4503.72 647.909 4503.4 650.018 4502.5Z" fill="#282724"/>
<path d="M462.806 4600.7C464.974 4606.22 480.16 4600.19 503.789 4602.6C537.841 4606.07 548.975 4622.93 566.444 4614.87C573.664 4611.09 579.594 4605.25 583.473 4598.08C584.957 4595.41 592.853 4581.54 588.284 4576.4C583.01 4570.46 567.902 4583.74 540.282 4582.22C532.799 4582.31 525.431 4580.37 518.962 4576.61C510.859 4571.21 510.958 4565.63 505.145 4564.29C498.66 4562.8 492.5 4568.76 479.804 4580.03C468.501 4590.07 461.18 4596.57 462.806 4600.7Z" fill="#FFEECC" stroke="#282724" stroke-miterlimit="10"/>
<path opacity="0.1" d="M589.595 4580C589.03 4586.44 586.948 4592.65 583.521 4598.12C579.568 4605.25 573.633 4611.08 566.434 4614.9C548.935 4622.93 537.818 4606.04 503.746 4602.65C480.174 4600.18 464.939 4606.25 462.778 4600.69C461.131 4596.58 468.542 4590.09 479.761 4580C489.747 4571.25 495.716 4565.7 500.967 4564.36C496.334 4573.01 494.585 4579.59 496.849 4582.78C499.628 4586.59 506.526 4583.09 529.068 4587.52C551.508 4591.94 556.963 4597.81 564.581 4597.81C572.816 4597.71 581.46 4590.81 589.595 4580Z" fill="#282724"/>
<path d="M601.08 4581.77C607.857 4581.57 607.31 4594.93 621.527 4605.54C635.205 4615.75 648.786 4613.15 650.807 4621.19C651.223 4623.39 650.961 4625.67 650.055 4627.72C649.149 4629.78 647.643 4631.51 645.734 4632.69C638.817 4636.45 631.924 4626.25 611.508 4619.4C597.443 4614.69 592.211 4616.67 589.018 4611.6C583.08 4602.18 592.806 4582.01 601.08 4581.77Z" fill="#FFEECC" stroke="#282724" stroke-miterlimit="10"/>
<path opacity="0.1" d="M651.046 4622.82C651.11 4624.8 650.648 4626.75 649.707 4628.49C648.767 4630.22 647.381 4631.68 645.693 4632.7C638.796 4636.41 631.899 4626.22 611.518 4619.43C597.415 4614.69 592.166 4616.65 588.975 4611.6C583.108 4602.13 592.784 4581.96 601.122 4581.75C603.696 4581.65 605.239 4583.71 606.989 4586.8C604.706 4587.28 602.687 4588.6 601.327 4590.5C600.273 4592.32 599.735 4594.4 599.772 4596.5C599.808 4598.6 600.417 4600.66 601.534 4602.44C604.622 4607.49 610.385 4606.66 619.238 4610.06C632.723 4615.31 632.723 4622.2 640.855 4623.75C644.276 4624.3 647.78 4623.98 651.046 4622.82Z" fill="#282724"/>
<path d="M495.865 4517.98C497.634 4521.41 511.289 4518.3 532.203 4520.61C562.342 4523.95 571.747 4534.61 587.491 4530.34C593.491 4528.68 598.9 4525.36 603.091 4520.75C604.485 4519.18 611.891 4511.04 607.981 4507.74C603.467 4503.94 589.673 4511.47 565.19 4509.54C558.72 4509.39 552.342 4507.97 546.418 4505.36C539.377 4501.79 539.624 4498.4 534.5 4497.37C528.785 4496.23 523.144 4499.63 511.548 4506.03C501.226 4511.72 494.539 4515.4 495.865 4517.98Z" fill="#FFEECC" stroke="#282724" stroke-miterlimit="10"/>
<path d="M619.193 4511.48C625.216 4511.6 624.348 4519.7 636.67 4526.67C648.525 4533.37 660.659 4532.28 662.224 4537.24C663.024 4539.77 660.767 4542.95 657.391 4544.05C651.142 4546.09 645.313 4539.63 627.379 4534.73C615.024 4531.36 610.321 4532.37 607.631 4529.18C602.628 4523.23 611.839 4511.32 619.193 4511.48Z" fill="#FFEECC" stroke="#282724" stroke-miterlimit="10"/>
<path opacity="0.1" d="M603.08 4520.72C598.929 4525.36 593.536 4528.72 587.537 4530.39C571.787 4534.62 562.317 4523.91 532.157 4520.62C511.261 4518.25 497.674 4521.44 495.821 4517.94C494.586 4515.37 501.277 4511.76 511.57 4506C516.497 4503.01 521.661 4500.43 527.011 4498.28C521.452 4503.63 518.776 4508.16 520.217 4510.73C522.585 4515.06 533.083 4508.26 555.112 4512.9C574.258 4517.01 577.14 4524.53 586.507 4523.81C591.05 4522.9 595.362 4521.08 599.184 4518.47C603.005 4515.85 606.256 4512.48 608.741 4508.57C610.903 4512.18 604.418 4519.28 603.08 4520.72Z" fill="#282724"/>
<path opacity="0.1" d="M662.163 4539.24C661.82 4540.37 661.21 4541.4 660.386 4542.24C659.562 4543.08 658.548 4543.71 657.428 4544.08C651.149 4546.04 645.282 4539.66 627.371 4534.71C615.019 4531.32 610.283 4532.35 607.607 4529.16C602.666 4523.29 611.621 4511.56 619.033 4511.45C617.807 4512.94 616.916 4514.68 616.419 4516.54C615.922 4518.41 615.83 4520.36 616.15 4522.26C617.9 4525.97 624.488 4523.08 637.355 4529.36C648.163 4534.61 648.678 4539.14 654.751 4540.07C657.252 4540.34 659.783 4540.06 662.163 4539.24Z" fill="#282724"/>
<path d="M491.037 4561.69C493.028 4566.31 507.001 4561.25 528.735 4563.25C560.057 4566.13 570.289 4580.27 586.364 4573.5C592.875 4570.46 598.333 4565.56 602.041 4559.41C603.408 4557.17 610.68 4545.53 606.48 4541.22C601.633 4536.25 587.726 4547.39 562.319 4546.13C555.494 4546.24 548.751 4544.63 542.711 4541.45C535.261 4536.93 535.355 4532.24 530.009 4531.12C524.044 4529.88 518.374 4534.88 506.687 4544.34C496.283 4552.76 489.544 4558.22 491.037 4561.69Z" fill="#FFEECC" stroke="#282724" stroke-miterlimit="10"/>
<path d="M618.252 4545.72C624.486 4545.55 623.974 4556.75 637.045 4565.64C649.621 4574.19 662.116 4572 663.97 4578.74C664.325 4580.64 664.062 4582.6 663.221 4584.33C662.38 4586.07 661.004 4587.49 659.296 4588.39C652.931 4591.55 646.597 4583 627.82 4577.27C614.888 4573.32 610.069 4574.99 607.136 4570.74C601.681 4562.84 610.641 4545.93 618.252 4545.72Z" fill="#FFEECC" stroke="#282724" stroke-miterlimit="10"/>
<path opacity="0.1" d="M602.05 4559.42C598.324 4565.55 592.885 4570.45 586.404 4573.52C570.244 4580.31 560.052 4566.11 528.758 4563.23C507.042 4561.27 493.04 4566.32 491.084 4561.68C489.54 4558.18 496.333 4552.73 506.73 4544.39C511.305 4540.48 516.081 4536.8 521.038 4533.38C517.23 4541.72 515.994 4549.13 518.259 4552.21C521.758 4556.85 531.846 4548.41 551.404 4552.93C566.742 4556.43 571.169 4564.15 580.432 4561.68C584.542 4560.23 588.193 4557.7 591.013 4554.38C593.834 4551.05 595.723 4547.04 596.49 4542.75C596.609 4542.2 596.678 4541.65 596.695 4541.1C601.431 4539.76 604.622 4539.35 606.475 4541.2C610.697 4545.52 603.389 4557.15 602.05 4559.42Z" fill="#282724"/>
<path opacity="0.1" d="M664.121 4579.8C664.256 4581.54 663.868 4583.29 663.006 4584.81C662.144 4586.33 660.848 4587.56 659.282 4588.34C652.9 4591.53 646.622 4582.99 627.784 4577.22C614.917 4573.31 610.08 4574.96 607.094 4570.74C601.638 4562.81 610.594 4545.93 618.211 4545.73C618.998 4545.71 619.777 4545.89 620.478 4546.25C621.179 4546.61 621.779 4547.14 622.226 4547.79C620.024 4548.75 618.114 4550.27 616.687 4552.21C615.26 4554.14 614.366 4556.41 614.093 4558.8C614.304 4560.79 615.132 4562.66 616.462 4564.15C621.093 4569.5 627.887 4566.52 636.328 4569.2C647.239 4572.69 646.828 4580.93 654.342 4582.06C657.757 4582.33 661.172 4581.54 664.121 4579.8Z" fill="#282724"/>
<path d="M489.929 4457.95C488.847 4451.88 475.24 4454 450.231 4443.67C431.818 4435.7 414.732 4424.95 399.563 4411.81C386.515 4400.52 372.734 4390.09 358.309 4380.62C352.709 4376.8 346.229 4374.48 339.481 4373.87C332.295 4373.34 319.599 4374.58 317.056 4380.62C312.392 4391.68 343.615 4414.68 351.833 4420.73C385.657 4445.65 396.452 4438 424.241 4462.41C433.016 4470.11 437.231 4475.49 447.069 4477.13C466.446 4480.35 491.415 4466.29 489.929 4457.95Z" fill="#FFEECC" stroke="#282724" stroke-miterlimit="10"/>
<path opacity="0.1" d="M489.953 4457.93C491.395 4466.27 466.484 4480.37 447.029 4477.18C437.25 4475.53 433.03 4470.08 424.28 4462.36C396.488 4437.96 385.679 4445.68 351.811 4420.77C343.576 4414.7 312.386 4391.65 317.019 4380.63C319.592 4374.56 332.254 4373.32 339.459 4373.84C343.653 4374.18 347.759 4375.22 351.605 4376.93C349.135 4399.26 406.676 4433.64 451.248 4444.04C475.645 4453.92 488.821 4451.96 489.953 4457.93Z" fill="#282724"/>
<path d="M505.082 4469.15C504.37 4464.08 494.568 4463.71 463.012 4453.08C445.377 4447.46 428.146 4440.65 411.441 4432.68C393.088 4424.76 376.044 4414.09 360.891 4401.05C346.837 4388.33 344.189 4381.31 331.821 4376.5C315.167 4370.03 294.236 4372.74 292.136 4379.39C290.128 4385.75 312.76 4399.16 358.107 4425.7C417.872 4460.68 418.434 4456.67 434.053 4470.61C443.123 4478.71 447.397 4484.28 457.918 4486.36C478.645 4490.46 506.265 4477.55 505.082 4469.15Z" fill="#FFEECC" stroke="#282724" stroke-miterlimit="10"/>
<path opacity="0.1" d="M505.088 4469.15C506.22 4477.59 478.633 4490.46 457.943 4486.34C447.443 4484.28 443.12 4478.72 434.062 4470.59C418.416 4456.7 417.901 4460.71 358.096 4425.71C312.804 4399.16 290.158 4385.78 292.114 4379.4C294.276 4372.71 315.172 4370.03 331.847 4376.51C322.48 4374.97 316.201 4374.76 315.377 4377.03C313.833 4380.84 327.317 4389.17 342.964 4398.75C420.374 4446.2 459.487 4469.97 478.427 4469.66C486.674 4469.53 494.871 4468.36 502.822 4466.16C503.427 4466.42 503.954 4466.83 504.352 4467.36C504.749 4467.88 505.003 4468.5 505.088 4469.15Z" fill="#282724"/>
<path d="M513.031 4499.44C512.426 4493.52 498.622 4494.51 469.986 4481.51C450.472 4473.7 432.463 4462.55 416.765 4448.58C407.52 4439.36 397.473 4430.99 386.744 4423.56C381.928 4419.8 376.516 4416.86 370.733 4414.89C358.304 4411.96 345.233 4413.75 334.041 4419.89C328.149 4422.69 325.202 4424.09 324.847 4426.53C323.938 4432.81 339.826 4438.46 362.1 4449.47C385.198 4460.89 424.016 4483.6 439.113 4497.73C448.192 4506.23 452.393 4511.98 463.242 4514.53C484.613 4519.55 513.895 4507.88 513.031 4499.44Z" fill="#FFEECC" stroke="#282724" stroke-miterlimit="10"/>
<path opacity="0.1" d="M513.011 4499.41C513.937 4507.85 484.601 4519.59 463.19 4514.54C452.382 4511.97 448.161 4506.21 439.103 4497.77C423.972 4483.56 385.165 4460.92 362.107 4449.49C339.873 4438.48 323.92 4432.82 324.844 4426.54C325.153 4424.07 328.138 4422.73 334.005 4419.85C344.539 4414.14 356.708 4412.22 368.489 4414.39C365.195 4415.11 363.239 4416.35 362.725 4418.3C360.872 4424.69 376.621 4431.38 410.384 4456.8C454.646 4490.15 455.778 4499.82 470.704 4501.98C482.395 4503.02 494.098 4500.12 503.953 4493.75C509.82 4495.6 512.702 4496.84 513.011 4499.41Z" fill="#282724"/>
<path d="M507.907 4535.18C507.002 4527.09 492.169 4527.65 462.547 4512.95C438.769 4502.35 417.316 4487.16 399.417 4468.26C383.044 4449.93 378.795 4435.95 358.107 4425.7C350.741 4421.67 342.435 4419.66 334.04 4419.89C316.153 4420.81 296.832 4433.6 297.234 4444.66C297.62 4455.28 316.202 4455.74 349.471 4474.96C374.961 4489.69 405.287 4507.22 431.395 4537.04C441.186 4548.22 445.803 4555.89 457.141 4558.79C479.477 4564.48 509.201 4546.76 507.907 4535.18Z" fill="#FFEECC" stroke="#282724" stroke-miterlimit="10"/>
<path opacity="0.1" d="M507.865 4535.23C509.202 4546.76 479.455 4564.46 457.117 4558.8C445.794 4555.92 441.162 4548.2 431.383 4537.08C405.237 4507.23 374.974 4489.73 349.447 4474.91C316.198 4455.77 297.67 4455.25 297.258 4444.65C296.847 4433.64 316.198 4420.77 334.006 4419.85C340.136 4419.61 346.245 4420.7 351.917 4423.04C349.951 4424.5 348.507 4426.56 347.799 4428.9C344.3 4441.77 369.416 4451.03 419.34 4500.13C450.529 4530.8 453.103 4539.35 465.661 4540.68C478.38 4540.94 490.741 4536.46 500.35 4528.13C505.088 4530.19 507.556 4532.04 507.865 4535.23Z" fill="#282724"/>
<path d="M481.122 4569.11C480.064 4558.8 461.031 4560.61 431.794 4542.55C406.637 4527.01 391.296 4507.49 369.277 4479.48C340.72 4443.15 340.668 4431.95 324.847 4426.54C294.431 4416.13 251.158 4442.37 252.03 4460.98C252.579 4472.69 270.2 4472.66 308.841 4497.17C336.562 4514.76 369.541 4535.68 397.949 4571.26C408.601 4584.6 413.626 4593.76 425.955 4597.22C450.242 4604.03 482.538 4582.92 481.122 4569.11Z" fill="#FFEECC" stroke="#282724" stroke-miterlimit="10"/>
<path opacity="0.1" d="M481.103 4569.1C482.544 4582.89 450.222 4603.99 425.929 4597.2C413.577 4593.8 408.636 4584.64 397.93 4571.26C369.52 4535.64 336.581 4514.75 308.891 4497.15C270.187 4472.65 252.587 4472.65 252.07 4461.02C251.144 4442.39 294.48 4416.14 324.844 4426.54C328.813 4427.79 332.44 4429.94 335.447 4432.82C329.682 4433.43 323.815 4434.26 317.948 4435.39C310.948 4436.73 297.772 4439.4 297.257 4444.65C296.64 4451.03 315.58 4455.46 331.226 4463.18C383.621 4489.32 375.797 4541.71 427.265 4564.77C438.074 4569.61 452.279 4575.89 467.822 4571.36C472.106 4570.16 476.1 4568.09 479.557 4565.29C480.425 4566.38 480.962 4567.7 481.103 4569.1Z" fill="#282724"/>
<path d="M699.427 730.865C699.324 731.276 698.707 735.496 697.78 741.26C694.692 761.332 691.398 775.846 690.887 778.109C672.565 859.938 614.303 1282.67 614.303 1282.67C576.937 1553.37 428.608 2155.92 445.591 2201.31C452.672 2219.6 461.604 2237.12 472.249 2253.6C472.385 2253.86 472.559 2254.1 472.764 2254.32C472.764 2254.42 472.867 2254.52 472.97 2254.63C474.464 2257 476.078 2259.31 477.807 2261.52C477.934 2261.64 478.039 2261.78 478.116 2261.93C482.497 2268.14 486.254 2274.76 489.336 2281.7C490.531 2284.51 491.529 2287.39 492.322 2290.34C496.542 2306.3 493.351 2318.13 487.072 2344.07C472.867 2402.84 474.513 2404.8 469.881 2408.81C469.676 2409.02 469.47 2409.12 469.264 2409.33C457.94 2418.28 437.456 2416.22 412.444 2406.03H412.34C406.885 2403.77 401.326 2401.2 395.562 2398.11C386.982 2393.78 378.633 2389 370.548 2383.8H370.445V2383.7C363.343 2379.27 356.137 2374.33 348.829 2368.98C337.375 2377.98 325.027 2385.77 311.978 2392.24H311.875C298.071 2399.28 283.113 2403.78 267.716 2405.52C252.893 2406.96 241.982 2405.01 211.821 2408.71C193.704 2410.87 190.41 2412.52 185.264 2409.74C182.341 2407.79 179.841 2405.28 177.913 2402.34C175.985 2399.4 174.669 2396.11 174.044 2392.65V2392.45C168.692 2372.07 173.53 2340.37 178.882 2320.81C179.187 2319.78 179.5 2318.85 179.808 2317.82C181.397 2312.2 183.287 2306.67 185.47 2301.25C185.985 2299.91 186.603 2298.58 187.118 2297.24C187.294 2297 187.4 2296.71 187.427 2296.42C188.353 2294.25 189.279 2292.3 190 2290.86C190.27 2290.44 190.479 2289.99 190.618 2289.52C190.99 2288.9 191.3 2288.24 191.544 2287.56C191.698 2287.33 191.835 2287.09 191.956 2286.84C192.47 2285.81 192.882 2284.89 193.396 2283.85C201.631 2265.22 232.718 2182.06 290.876 2026.02C412.854 1699.32 447.953 1505.82 447.953 1505.82C487.171 1289.87 515.169 920.563 508.273 830.809C506.111 802.195 495.817 742.908 524.639 705.545C531.143 698.58 535.097 689.62 535.859 680.122C535.878 674.322 534.501 668.603 531.845 663.447C531.845 663.344 531.742 663.241 531.639 663.138C522.165 646.672 507.072 634.174 489.127 627.936C488.856 627.743 488.533 627.635 488.2 627.628C487.876 627.446 487.53 627.308 487.171 627.216C485.421 626.598 483.568 626.084 482.333 625.775C481.818 625.672 481.304 625.466 480.789 625.363L480.686 625.26C479.039 624.917 477.392 624.574 475.745 624.231C471.446 623.612 467.116 623.234 462.775 623.099C459.894 622.786 457.06 622.129 454.335 621.143C460.979 613.162 468.625 606.07 477.083 600.043C505.288 579.971 525.772 584.397 541.212 570.502C546.751 565.461 550.837 559.028 553.046 551.872C557.633 536.526 558.723 520.347 556.237 504.524C556.855 506.274 557.679 508.745 558.811 511.73C561.487 518.622 562.208 519.346 562.722 519.758C564.478 521.038 566.628 521.658 568.796 521.508C570.435 521.58 572.065 521.241 573.539 520.522C575.014 519.802 576.285 518.726 577.237 517.391C577.584 516.614 577.76 515.771 577.751 514.921V514.303C577.697 513.914 577.593 513.533 577.442 513.171C577.34 512.964 577.34 512.759 577.237 512.553C577.134 512.348 577.133 512.141 577.03 511.935C575.874 509.123 575.046 506.187 574.56 503.186C574.077 499.873 574.112 496.505 574.663 493.202C574.766 492.378 574.972 491.658 575.075 490.835C575.55 487.78 576.524 484.825 577.957 482.086L578.884 480.234C580.329 477.561 582.461 475.322 585.06 473.749C592.883 469.529 598.853 477.248 618.205 480.748C640.748 484.865 645.586 476.837 654.744 481.983C672.861 491.968 654.539 525.625 673.479 553.519C683.67 568.444 696.125 570.811 706.933 574.619V574.722C707.258 575.418 707.713 576.047 708.271 576.575C708.374 576.678 708.374 576.781 708.477 576.884C713.521 581.721 726.182 579.662 736.99 584.912C741.854 587.245 746.037 590.789 749.137 595.205C765.306 620.939 705.295 692.371 699.427 730.865Z" fill="#FFEECC" stroke="#282724" stroke-miterlimit="10"/>
<path opacity="0.05" d="M577.963 482.088C576.726 484.906 575.761 487.836 575.081 490.837C575.556 487.783 576.53 484.827 577.963 482.088Z" fill="#282724"/>
<path opacity="0.06" d="M749.147 595.208C746.048 590.793 741.865 587.248 737 584.916C726.192 579.666 713.531 581.725 708.488 576.887C712.79 583.36 715.602 590.708 716.723 598.399C719.399 618.162 707.87 625.882 699.223 651.614C688.106 684.242 699.223 693.917 685.742 730.766C682.196 740.523 677.75 749.93 672.464 758.866C636.539 822.167 580.13 1297.8 512.81 1553.99C496.958 1614.21 395.875 1983.82 399.17 2103.94C400.096 2138.11 400.507 2155.51 408.227 2179.39C424.903 2230.85 455.99 2251.95 457.637 2303.31C457.942 2314.43 458.358 2332.85 448.27 2338.41C444.197 2340.4 439.511 2340.73 435.198 2339.34C423.202 2335.41 412.206 2328.91 402.978 2320.3H402.875C397.709 2315.91 392.827 2311.2 388.258 2306.2C360.877 2276.14 363.142 2251.95 349.658 2250.41C333.394 2248.66 326.086 2282.83 292.528 2311.24C287.352 2315.74 281.809 2319.81 275.956 2323.39C259.692 2333.47 246.413 2341.6 239.517 2338.1C235.708 2336.25 234.164 2331 234.781 2322.66C239.722 2248.14 407.096 1924.43 490.165 1509.63C523.31 1344.43 567.366 1043.26 576.425 950.312C580.645 906.67 589.909 863.44 591.556 819.694C592.792 787.478 587.954 757.423 605.556 725.206C613.894 709.869 620.79 705.546 624.599 689.283C631.907 657.89 613.173 644.512 623.57 623.102C632.525 604.575 654.656 597.885 652.289 585.533C651.456 581.041 649.51 576.829 646.627 573.285C643.816 570.918 641.263 568.262 639.01 565.359C637.466 563.404 637.26 562.374 636.23 561.962C626.76 557.948 620.893 567.624 606.688 566.903C596.806 566.389 585.174 560.933 581.366 552.081C579.101 547.038 581.675 545.906 580.337 530.981C580.187 525.336 579.322 519.733 577.763 514.306V514.924C577.866 516.673 577.66 517.291 577.249 517.394C576.297 518.73 575.026 519.806 573.552 520.525C572.077 521.244 570.447 521.583 568.808 521.511C566.64 521.661 564.489 521.041 562.734 519.761C562.22 519.349 561.499 518.629 558.823 511.733C557.69 508.748 556.867 506.278 556.249 504.528C558.735 520.351 557.645 536.529 553.058 551.875V552.39C553.066 553.939 552.964 555.487 552.753 557.022C552.655 558.442 552.449 559.853 552.135 561.242C551.978 562.179 551.772 563.106 551.518 564.021C551.217 565.278 550.838 566.516 550.385 567.727C550.036 568.713 549.624 569.675 549.15 570.608C547.854 573.4 546.079 575.944 543.904 578.122C542.957 579.034 541.96 579.893 540.918 580.696L540.815 580.799C531.963 587.386 519.61 588.518 504.067 595.105C502.729 595.62 501.391 596.238 499.95 596.958C497.226 598.206 494.579 599.615 492.024 601.179C491.406 601.59 490.685 602.002 489.965 602.413C487.289 604.06 484.51 605.913 481.627 608.074C475.966 612.332 470.696 617.085 465.878 622.278C466.385 622.398 466.902 622.467 467.422 622.485H467.525C468.039 622.588 468.452 622.69 468.966 622.793C469.378 622.896 469.893 622.999 470.407 623.102C472.014 623.24 473.602 623.551 475.142 624.029C475.348 624.131 475.554 624.131 475.76 624.234C477.407 624.577 479.054 624.92 480.701 625.263L480.804 625.366C481.319 625.469 481.833 625.675 482.348 625.778C483.583 626.087 485.436 626.601 487.186 627.219C487.545 627.311 487.891 627.45 488.215 627.631C488.548 627.639 488.871 627.746 489.142 627.94C505.69 636.464 520.194 648.474 531.654 663.142C531.757 663.244 531.86 663.347 531.86 663.45C533.759 665.738 535.109 668.43 535.805 671.321C536.501 674.212 536.524 677.224 535.874 680.125C535.112 689.623 531.158 698.584 524.654 705.548C495.832 742.912 506.126 802.199 508.288 830.813C515.184 920.567 487.186 1289.88 447.968 1505.82C447.968 1505.82 412.866 1699.33 290.89 2026.02C232.732 2182.06 201.646 2265.23 193.411 2283.86C192.897 2284.89 192.485 2285.81 191.971 2286.85C193.103 2298.58 184.868 2302.39 179.824 2317.83C179.515 2318.86 179.206 2319.78 178.898 2320.81C173.545 2340.37 168.707 2372.07 174.059 2392.45V2392.66C174.685 2396.11 176.001 2399.41 177.929 2402.34C179.857 2405.28 182.357 2407.8 185.28 2409.74C190.426 2412.52 193.721 2410.88 211.837 2408.71C241.997 2405.01 252.908 2406.97 267.732 2405.52C283.129 2403.78 298.086 2399.28 311.891 2392.25H311.994C325.042 2385.78 337.391 2377.98 348.844 2368.98C356.153 2374.34 363.358 2379.28 370.461 2383.7V2383.81H370.564C378.649 2389 386.998 2393.78 395.577 2398.11C401.342 2401.2 406.901 2403.77 412.356 2406.04H412.459C437.469 2416.23 457.956 2418.29 469.28 2409.33C469.485 2409.13 469.691 2409.03 469.897 2408.82C474.529 2404.8 472.882 2402.85 487.088 2344.08C493.366 2318.14 496.557 2306.3 492.337 2290.35C491.545 2287.4 490.547 2284.51 489.351 2281.7C486.611 2274.59 482.83 2267.93 478.132 2261.94C478.055 2261.78 477.95 2261.64 477.823 2261.53C475.509 2259.81 473.813 2257.39 472.985 2254.63C472.882 2254.53 472.779 2254.42 472.779 2254.32C472.574 2254.11 472.401 2253.86 472.264 2253.6C461.62 2237.12 452.688 2219.6 445.607 2201.31C428.623 2155.92 576.953 1553.37 614.319 1282.67C614.319 1282.67 672.581 859.941 690.903 778.113C691.417 775.848 694.711 761.339 697.796 741.264C698.723 735.5 699.341 731.28 699.443 730.868C705.297 692.372 765.308 620.939 749.147 595.208Z" fill="#282724"/>
<path opacity="0.05" d="M487.072 2344.08C472.867 2402.85 474.513 2404.81 469.881 2408.82C469.676 2409.03 469.47 2409.13 469.264 2409.33C457.94 2418.29 437.456 2416.23 412.444 2406.04H412.34C406.885 2403.78 401.326 2401.2 395.562 2398.12C386.982 2393.78 378.633 2389.01 370.548 2383.81H370.445V2383.7C363.343 2379.28 356.137 2374.34 348.829 2368.99C337.375 2377.98 325.027 2385.78 311.978 2392.25H311.875C298.071 2399.29 283.113 2403.78 267.716 2405.53C252.893 2406.97 241.982 2405.01 211.822 2408.72C193.704 2410.88 190.41 2412.52 185.264 2409.75C182.341 2407.8 179.841 2405.28 177.913 2402.35C175.985 2399.41 174.669 2396.12 174.044 2392.66V2392.56C168.692 2372.18 173.53 2340.37 178.882 2320.81C179.187 2319.79 179.5 2318.86 179.808 2317.83C181.397 2312.21 183.287 2306.68 185.47 2301.26C185.985 2299.92 186.603 2298.58 187.117 2297.24C187.293 2297 187.4 2296.72 187.427 2296.42C188.353 2294.47 189.279 2292.61 190 2290.86C190.27 2290.45 190.479 2290 190.618 2289.52C190.99 2288.9 191.3 2288.25 191.544 2287.57C191.698 2287.34 191.835 2287.1 191.956 2286.85C192.47 2285.82 192.882 2284.89 193.396 2283.86C200.315 2269.81 208.59 2256.47 218.102 2244.03C223.988 2235.51 229.35 2226.64 234.16 2217.47C230.969 2225.19 227.469 2232.81 223.763 2240.32C216.764 2254.12 208.22 2266.98 201.015 2280.67C189.692 2302.08 183.515 2327.61 192.162 2350.36C193.774 2354.43 195.81 2358.33 198.235 2361.99C224.893 2402.23 272.246 2373.72 301.479 2346.75V2346.65C306.403 2342.21 311.077 2337.5 315.479 2332.55C319.301 2328.25 322.842 2323.71 326.082 2318.96H326.184C327.729 2316.7 329.169 2314.43 330.61 2312.06C338.6 2299.21 344.701 2285.28 348.728 2270.69C354.285 2285.61 355.418 2302.18 361.285 2317.01C361.697 2318.14 362.212 2319.17 362.727 2320.3C363.887 2322.88 365.193 2325.39 366.638 2327.81C367.334 2328.92 368.09 2329.98 368.903 2331C380.161 2346.24 395.206 2358.27 412.547 2365.89C416.56 2367.53 420.735 2368.74 425.002 2369.5C426.898 2369.9 428.83 2370.1 430.767 2370.12C437.158 2370.74 443.581 2369.3 449.09 2366C472.044 2352.62 473.074 2309.18 470.191 2284.68C468.071 2268.26 463.634 2252.21 457.015 2237.03C462.518 2242.15 467.611 2247.69 472.249 2253.6C472.386 2253.86 472.559 2254.11 472.764 2254.32C472.764 2254.42 472.867 2254.53 472.97 2254.63C474.464 2257.01 476.079 2259.31 477.808 2261.52C477.935 2261.64 478.04 2261.78 478.117 2261.94C482.816 2267.93 486.596 2274.59 489.336 2281.7C490.532 2284.51 491.53 2287.4 492.322 2290.35C496.542 2306.3 493.351 2318.14 487.072 2344.08Z" fill="#282724"/>
<path opacity="0.1" d="M601.844 621.144C590.418 647.185 611.519 667.563 599.374 688.563C595.565 695.151 587.639 703.385 568.699 708.223C561.596 689.489 559.434 668.389 542.346 655.317C538.338 652.415 533.981 650.028 529.376 648.215C522.858 643.55 515.973 639.419 508.789 635.863C502.461 632.694 495.886 630.044 489.129 627.938C488.858 627.744 488.535 627.637 488.202 627.629C485.629 626.805 483.158 626.085 480.791 625.364C479.967 625.159 479.041 624.953 478.218 624.747C477.405 624.526 476.58 624.355 475.747 624.232C475.541 624.129 475.335 624.129 475.129 624.027C473.482 623.718 471.939 623.306 470.395 623.1C469.88 622.997 469.365 622.894 468.953 622.791C467.924 622.586 466.895 622.483 465.865 622.276C470.683 617.083 475.953 612.33 481.615 608.072C484.497 605.911 487.276 604.058 489.952 602.412C490.672 602 491.394 601.587 492.011 601.176C494.567 599.613 497.213 598.203 499.937 596.956C518.671 587.692 533.082 587.178 543.891 578.12C554.596 569.165 563.655 549.818 556.242 504.526C556.86 506.276 557.684 508.746 558.816 511.731C561.493 518.624 562.213 519.347 562.727 519.759C564.483 521.039 566.634 521.659 568.801 521.509C568.457 526.346 568.56 531.204 569.11 536.022C569.727 542.095 571.786 546.11 573.535 554.859C574.265 561.582 576.87 567.964 581.051 573.279C586.554 578.609 593.703 581.911 601.329 582.646C619.137 585.837 626.754 583.778 628.607 587.483C631.592 593.354 610.593 601.176 601.844 621.144Z" fill="#282724"/>
<path d="M302.548 2325.66C301.026 2330.53 300.571 2335.66 301.215 2340.72C301.363 2349.77 302.611 2358.77 304.932 2367.51C307.544 2379.78 311.364 2391.77 316.336 2403.29C323.107 2418.05 338.839 2452.37 360.44 2452.83C371.237 2453.07 380.71 2442.37 399.664 2420.98C412.347 2406.67 423.006 2394.39 429.165 2375.42C432.451 2364.38 434.405 2352.98 434.985 2341.48C435.874 2337.04 435.832 2332.46 434.863 2328.03C429.468 2316.92 407.801 2321.21 366.359 2320.38C328.271 2319.61 308.275 2315.21 302.548 2325.66Z" fill="#FFEECC" stroke="#282724" stroke-miterlimit="10"/>
<path opacity="0.05" d="M435.399 2329.88C435.352 2329.23 435.178 2328.6 434.885 2328.02C434.467 2327.21 433.948 2326.45 433.341 2325.76C432.749 2325.07 432.055 2324.48 431.282 2324.01C430.667 2323.57 430.012 2323.19 429.327 2322.88C429.223 2322.88 429.224 2322.77 429.121 2322.77H429.017C428.503 2322.57 428.091 2322.46 427.576 2322.26C427.474 2322.16 427.268 2322.16 427.062 2322.05C423.736 2321.14 420.316 2320.63 416.871 2320.51C412.856 2320.2 408.224 2320.2 402.975 2320.3H402.872C394.843 2320.3 385.476 2320.61 374.462 2320.51H374.359C371.785 2320.51 369.109 2320.51 366.33 2320.41C365.094 2320.41 363.859 2320.3 362.727 2320.3C360.874 2320.2 359.124 2320.2 357.374 2320.1C355.727 2320.1 353.978 2319.99 352.33 2319.89C346.668 2319.69 341.522 2319.48 336.89 2319.27C335.758 2319.27 334.729 2319.17 333.699 2319.17C331.537 2319.07 329.582 2319.07 327.729 2318.97H326.082C323.612 2318.86 321.244 2318.86 319.185 2318.97C317.252 2318.96 315.323 2319.14 313.421 2319.48C312.089 2319.66 310.779 2319.97 309.51 2320.41C308.532 2320.69 307.597 2321.11 306.73 2321.64C306.428 2321.71 306.146 2321.86 305.906 2322.05C305.712 2322.28 305.465 2322.46 305.186 2322.57C304.724 2322.93 304.309 2323.34 303.951 2323.8C303.424 2324.36 302.974 2324.98 302.613 2325.66C302.311 2326.18 302.069 2326.73 301.892 2327.3C301.235 2330.76 300.993 2334.29 301.172 2337.8C301.259 2338.76 301.293 2339.72 301.274 2340.68C301.274 2341.71 301.274 2342.74 301.377 2343.77C301.36 2344.73 301.395 2345.69 301.48 2346.65V2346.76C301.686 2349.74 301.995 2352.52 302.407 2355.2C303.128 2359.52 304.053 2363.64 304.98 2367.55C305.392 2369.09 305.701 2370.53 306.112 2372.08C306.627 2374.34 307.245 2376.61 307.759 2378.77C307.965 2379.49 308.171 2380.21 308.377 2380.93C308.789 2382.47 309.2 2383.91 309.716 2385.35C310.127 2386.8 310.539 2388.34 311.053 2389.78C311.362 2390.6 311.671 2391.43 311.98 2392.25C313.25 2396 314.728 2399.68 316.406 2403.26C317.23 2405.12 318.156 2407.28 319.288 2409.65C319.906 2410.78 320.421 2412.01 321.038 2413.25C322.376 2415.82 323.715 2418.5 325.258 2421.17C326.288 2423.03 327.42 2424.98 328.552 2426.83C329.684 2428.69 330.817 2430.44 332.052 2432.19C333.378 2434.25 334.858 2436.21 336.478 2438.05C337.43 2439.38 338.498 2440.62 339.669 2441.76C340.612 2442.81 341.609 2443.8 342.654 2444.74C343.539 2445.55 344.467 2446.31 345.434 2447.01C346.457 2447.79 347.522 2448.51 348.625 2449.17C348.831 2449.27 349.139 2449.48 349.345 2449.58C350.17 2450.09 351.03 2450.54 351.919 2450.92C352.33 2451.02 352.639 2451.23 353.051 2451.33C353.154 2451.33 353.154 2451.33 353.257 2451.43C354.291 2451.84 355.359 2452.15 356.448 2452.36C357.762 2452.68 359.109 2452.86 360.463 2452.88C371.271 2453.08 380.741 2442.38 399.681 2420.97C402.872 2417.37 405.96 2413.87 408.74 2410.47C410.078 2409.03 411.313 2407.48 412.445 2406.04C412.65 2405.83 412.823 2405.59 412.96 2405.32C414.298 2403.57 415.636 2401.72 416.871 2399.97C422.167 2392.47 426.297 2384.21 429.121 2375.47L429.224 2375.37C429.532 2374.34 429.944 2373.21 430.15 2372.18C430.356 2371.46 430.562 2370.84 430.767 2370.12C432.19 2364.5 433.222 2358.79 433.856 2353.03C433.959 2352.31 434.062 2351.59 434.161 2350.98C434.367 2348.92 434.573 2346.96 434.676 2345.11C434.779 2343.87 434.882 2342.64 434.985 2341.51C435.088 2340.79 435.088 2340.07 435.191 2339.34C435.293 2337.9 435.396 2336.57 435.396 2335.43C435.608 2333.59 435.609 2331.72 435.399 2329.88ZM395.566 2398.12C387.022 2410.78 378.066 2419.84 373.849 2418.39C369.012 2416.64 374.467 2402.75 370.555 2383.81H370.452V2383.71C369.516 2378.6 367.888 2373.65 365.615 2368.99C355.012 2346.14 337.411 2340.58 340.292 2333.17C342.351 2327.92 352.748 2326.89 366.645 2327.82C377.144 2328.43 389.703 2330.08 402.157 2331.73C402.991 2331.8 403.817 2331.94 404.628 2332.14H404.731C410.186 2332.96 412.142 2333.58 413.892 2335.43C414.591 2336.15 415.15 2336.98 415.539 2337.9V2338.01C418.627 2344.18 416.877 2354.58 412.554 2365.9C408.111 2377.24 402.412 2388.05 395.563 2398.12H395.566Z" fill="#282724"/>
<path d="M271.579 4388.67C271.391 4384.06 278.564 4379.24 284.761 4378.41C290.365 4378.28 295.845 4380.08 300.274 4383.51C306.397 4387.26 312.162 4391.56 317.498 4396.36C332.101 4408.01 336.235 4409.22 335.884 4412.65C335.39 4417.49 326.429 4422.12 318.853 4420.96C311.891 4419.89 310.401 4414.58 302.092 4407.33C286.435 4393.66 271.844 4395.17 271.579 4388.67Z" fill="#FFEECC" stroke="#282724" stroke-miterlimit="10"/>
<path opacity="0.1" d="M335.859 4412.64C335.345 4417.47 326.389 4422.11 318.875 4420.97C311.875 4419.84 310.434 4414.59 302.099 4407.28C286.453 4393.7 271.836 4395.14 271.631 4388.65C271.424 4384.02 278.527 4379.29 284.807 4378.47C288.583 4378.07 292.384 4378.94 295.615 4380.94C292.115 4382.17 289.645 4383.92 289.645 4385.57C289.645 4389.99 305.806 4388.14 317.746 4400.8C321.761 4405.12 324.54 4410.17 329.893 4410.58C331.545 4410.65 333.195 4410.37 334.731 4409.76C335.128 4410.12 335.436 4410.57 335.631 4411.06C335.827 4411.56 335.905 4412.1 335.859 4412.64Z" fill="#282724"/>
<path d="M321.032 4415.25C322.472 4408.94 312.45 4401.73 311.43 4400.99C304.487 4396 300.454 4397.64 289.01 4393.24C277.536 4388.83 278.228 4385.89 270.664 4383.9C256.883 4380.28 240.624 4386.38 240.398 4391.34C240.172 4396.29 256.157 4395.43 275.514 4410.46C284.073 4417.11 285.484 4420.8 292.679 4422.92C304.378 4426.39 319.449 4422.2 321.032 4415.25Z" fill="#FFEECC" stroke="#282724" stroke-miterlimit="10"/>
<path opacity="0.1" d="M321.038 4415.21C319.494 4422.21 304.363 4426.43 292.734 4422.93C285.529 4420.77 284.087 4417.06 275.544 4410.48C256.192 4395.45 240.134 4396.27 240.443 4391.33C240.649 4386.6 255.472 4380.83 268.853 4383.61C266.589 4384.02 265.045 4384.74 264.735 4385.88C263.809 4388.55 269.676 4392.57 273.691 4395.45C282.232 4401.42 285.426 4400.08 296.131 4405.84C305.19 4410.58 306.939 4413.67 313.013 4413.98C315.697 4414.17 318.394 4413.82 320.938 4412.95C321.228 4413.67 321.263 4414.47 321.038 4415.21Z" fill="#282724"/>
<path d="M256.497 4276.26C256.002 4276.87 255.367 4277.37 254.644 4277.7C251.145 4279.65 246.203 4277.9 240.233 4277.39C240.027 4277.28 239.924 4277.39 239.718 4277.39C235.169 4276.95 230.592 4277.84 226.542 4279.96L224.689 4280.89C218.32 4285.37 213.1 4291.3 209.454 4298.18C209.149 4298.8 208.836 4299.41 208.528 4299.93C208.219 4300.65 207.91 4301.37 207.704 4301.88C207.395 4302.61 207.19 4303.12 206.984 4303.53C204.925 4308.99 205.44 4310.53 204.101 4313.31C197.719 4327.62 167.25 4325.35 153.56 4327.41C141.638 4329.09 129.842 4331.56 118.253 4334.82C118.076 4334.81 117.899 4334.85 117.738 4334.93C117.018 4335.13 116.194 4335.34 115.371 4335.65C114.033 4335.95 112.695 4336.47 111.253 4336.88C111.029 4337 110.784 4337.07 110.533 4337.09C108.268 4337.81 106.107 4338.53 104.048 4339.25C103.43 4339.45 102.812 4339.66 102.298 4339.86C100.857 4340.38 99.5184 4340.89 98.18 4341.41C96.8423 4341.82 95.607 4342.34 94.3717 4342.85C92.1074 4343.67 90.0486 4344.6 88.0929 4345.32C86.3428 4346.04 84.6958 4346.76 83.1519 4347.38C80.99 4348.2 78.9312 4349.13 77.0786 4349.85C75.1229 4350.57 73.3728 4351.19 71.7258 4351.7C71.1924 4351.92 70.6415 4352.09 70.0788 4352.22C69.5782 4352.4 69.0612 4352.54 68.5348 4352.63C67.9594 4352.77 67.3746 4352.88 66.7847 4352.94C64.7117 4353.3 62.5982 4353.37 60.5059 4353.14C60.0913 4353.17 59.675 4353.14 59.2705 4353.04C59.0928 4353.06 58.9142 4353.02 58.7564 4352.94C52.2714 4350.88 56.1827 4304.15 57.2118 4281.2C59.2706 4236.01 53.3005 4217.38 64.1086 4211.62C66.1634 4210.54 68.4959 4210.11 70.7998 4210.38C71.006 4210.38 71.314 4210.48 71.5202 4210.48C74.3291 4210.77 77.1148 4211.25 79.8578 4211.92C80.1664 4212.03 80.5789 4212.03 80.99 4212.13C89.9095 4214.18 99.1496 4214.43 108.165 4212.85C108.989 4212.75 109.709 4212.65 110.43 4212.54C112.592 4212.03 115.062 4211.31 123.193 4209.15C123.4 4209.04 123.709 4209.04 123.915 4208.94C147.795 4202.87 159.942 4199.88 168.689 4198.44C189.07 4195.25 201.217 4197.21 225.51 4201.22C231.358 4201.7 236.804 4204.39 240.744 4208.73C243.462 4212.61 244.77 4217.29 244.45 4222.01C244.865 4249.18 264.114 4267.4 256.497 4276.26Z" fill="#FFEECC" stroke="#282724" stroke-miterlimit="10"/>
<path opacity="0.1" d="M244.454 4222.01C244.774 4217.29 243.466 4212.61 240.748 4208.73C236.808 4204.39 231.362 4201.7 225.514 4201.22C201.221 4197.21 189.074 4195.25 168.693 4198.44C159.943 4199.88 147.797 4202.87 123.919 4208.94C119.61 4210.76 115.073 4211.97 110.434 4212.54C109.713 4212.65 108.993 4212.75 108.169 4212.85C99.12 4213.84 89.9786 4213.6 80.9942 4212.13C80.583 4212.03 80.1706 4212.03 79.8619 4211.92C76.8766 4211.51 74.098 4211 71.5244 4210.48C71.3182 4210.48 71.0101 4210.38 70.804 4210.38C68.5 4210.11 66.1673 4210.54 64.1126 4211.62C53.3045 4217.38 59.2747 4236.01 57.216 4281.2C56.1869 4304.15 52.2749 4350.88 58.7605 4352.94C58.9184 4353.02 59.0969 4353.06 59.2747 4353.04C59.6792 4353.14 60.0955 4353.17 60.5101 4353.14C60.7162 4353.14 60.9218 4353.25 61.2311 4353.25C63.0891 4353.4 64.9587 4353.29 66.7889 4352.94C67.3788 4352.88 67.9636 4352.77 68.539 4352.63C69.0654 4352.54 69.5822 4352.4 70.0828 4352.22C70.6455 4352.09 71.1966 4351.92 71.7299 4351.7C73.3769 4351.19 75.1271 4350.57 77.0828 4349.85C78.9354 4349.13 80.9942 4348.2 83.1561 4347.38C84.7 4346.76 86.347 4346.04 88.0971 4345.32C90.0528 4344.6 92.1116 4343.67 94.3759 4342.85C95.6112 4342.34 96.8464 4341.82 98.1842 4341.41C99.5226 4340.9 100.861 4340.38 102.302 4339.87C102.817 4339.66 103.434 4339.45 104.052 4339.25C106.111 4338.53 108.272 4337.81 110.537 4337.09C110.788 4337.07 111.033 4337 111.257 4336.88C112.699 4336.47 114.037 4335.95 115.376 4335.65C116.198 4335.34 117.023 4335.13 117.742 4334.93C117.903 4334.85 118.08 4334.82 118.257 4334.82V4334.72C129.727 4331.02 141.565 4328.56 153.564 4327.41C167.254 4325.35 197.724 4327.62 204.106 4313.31C205.444 4310.53 204.929 4308.99 206.988 4303.53C207.194 4303.12 207.4 4302.61 207.708 4301.89C207.914 4301.37 208.223 4300.65 208.532 4299.93C208.841 4299.42 209.15 4298.8 209.458 4298.18C212.774 4291.07 218.062 4285.07 224.693 4280.89L226.546 4279.96C230.703 4278.17 235.197 4277.29 239.722 4277.39C239.928 4277.39 240.032 4277.28 240.238 4277.39C245.043 4277.2 249.856 4277.3 254.649 4277.7C255.371 4277.37 256.006 4276.88 256.501 4276.26C264.115 4267.4 244.866 4249.18 244.454 4222.01ZM242.498 4260.4C237.249 4268.94 214.088 4259.99 209.455 4269.15C207.294 4273.48 211.102 4278.21 207.397 4284.39C205.726 4287.05 203.335 4289.2 200.5 4290.56C195.148 4293.65 169.722 4307.85 153.15 4296.53C145.533 4291.18 143.474 4282.23 139.562 4264.73C139.459 4264.01 139.254 4263.18 139.048 4262.36C134.519 4241.88 132.254 4231.69 136.783 4222.94C148.312 4201.12 189.589 4203.9 211 4205.34C218.926 4205.85 230.249 4204.82 234.366 4211.41C236.94 4215.42 234.778 4218.82 234.572 4226.64C234.058 4245.99 246.616 4253.82 242.498 4260.4Z" fill="#282724"/>
<path d="M340.183 4363.95C339.154 4366.63 334.419 4366.22 322.066 4366.94C299.214 4368.17 297.774 4370.44 289.642 4369C288.84 4368.88 288.049 4368.71 287.273 4368.48C278.88 4365.79 271.159 4361.33 264.628 4355.41L264.525 4355.31C253.924 4345.82 242.407 4337.4 230.144 4330.19C227.763 4328.81 225.461 4327.3 223.251 4325.66C215.222 4320 210.075 4314.34 210.178 4306.21C210.384 4294.68 220.884 4285.42 228.089 4281.61C244.971 4272.76 264.116 4282.23 270.705 4285.42C274.615 4287.46 278.366 4289.8 281.924 4292.42C284.704 4294.47 286.969 4296.53 288.615 4297.97C289.85 4299 290.88 4300.03 291.909 4301.06C293.592 4302.57 295.173 4304.19 296.644 4305.9C297.673 4307.03 298.6 4308.17 299.424 4309.19C305.805 4316.71 309.1 4323.4 315.79 4332.56C316.922 4334 318.055 4335.54 319.393 4337.19C321.246 4339.45 323.304 4341.93 325.672 4344.6C334.11 4354.07 341.625 4360.25 340.183 4363.95Z" fill="#FFEECC" stroke="#282724" stroke-miterlimit="10"/>
<path opacity="0.1" d="M325.671 4344.6C323.303 4341.93 321.142 4339.45 319.392 4337.19C318.054 4335.54 316.819 4334 315.789 4332.56C307.451 4321.96 304.672 4315.88 299.422 4309.19C298.599 4308.17 297.672 4307.03 296.643 4305.9C295.172 4304.19 293.59 4302.57 291.908 4301.06C290.879 4300.03 289.849 4299 288.614 4297.97C286.967 4296.53 284.702 4294.47 281.923 4292.42C278.365 4289.8 274.614 4287.46 270.703 4285.42C264.115 4282.23 244.969 4272.76 228.087 4281.61C220.883 4285.42 210.383 4294.68 210.177 4306.21C210.16 4306.52 210.195 4306.83 210.28 4307.14C210.19 4308 210.26 4308.87 210.486 4309.71V4309.81C210.609 4310.44 210.781 4311.06 211.001 4311.66C211.104 4311.97 211.207 4312.18 211.31 4312.49C211.982 4314.37 212.993 4316.12 214.294 4317.63L214.398 4317.74C215.567 4319.2 216.877 4320.54 218.309 4321.75C219.87 4323.16 221.52 4324.47 223.25 4325.66C223.353 4325.66 223.455 4325.76 223.661 4325.87C225.732 4326.99 227.696 4328.3 229.529 4329.78L229.632 4329.88C229.838 4329.88 229.941 4330.09 230.146 4330.19C242.409 4337.4 253.926 4345.82 264.527 4355.31L264.63 4355.41C267.579 4356.73 270.347 4358.43 272.865 4360.45C272.968 4360.56 272.968 4360.56 273.071 4360.56C277.346 4363.95 282.143 4366.63 287.275 4368.48C288.051 4368.71 288.842 4368.88 289.643 4369C297.775 4370.44 299.216 4368.17 322.068 4366.94C334.421 4366.22 339.155 4366.63 340.185 4363.95C341.626 4360.25 334.112 4354.07 325.671 4344.6ZM292.938 4357.57C274.924 4349.03 268.542 4329.88 261.339 4307.86C257.428 4296.02 258.251 4293.24 259.589 4292.01C263.913 4288.3 278.838 4295.71 288.823 4306.31C299.219 4317.33 296.853 4322.68 307.146 4336.99C317.13 4350.88 328.453 4353.77 327.116 4357.57C325.465 4362.41 307.451 4364.47 292.938 4357.57Z" fill="#282724"/>
<path d="M156.826 4442.59C160.161 4453.31 185.073 4443.3 222.907 4462.23C225.796 4464.2 229.05 4465.58 232.478 4466.28C235.906 4466.98 239.439 4466.99 242.871 4466.31C252.476 4463.07 251.577 4452.05 260.744 4440.99C276.182 4422.36 302.273 4424.75 302.022 4418.55C301.854 4414.38 290.061 4414.13 271.335 4403.88C260.139 4397.74 256.982 4393.79 252.322 4391.2C222.656 4374.7 150.948 4423.69 156.826 4442.59Z" fill="#FFEECC" stroke="#282724" stroke-miterlimit="10"/>
<path opacity="0.1" d="M271.321 4403.89C260.101 4397.71 257.012 4393.8 252.278 4391.23C250.138 4389.99 247.807 4389.12 245.381 4388.65C244.432 4388.42 243.469 4388.25 242.499 4388.14C238.803 4387.71 235.069 4387.75 231.381 4388.24C230.352 4388.35 229.22 4388.55 228.19 4388.76C226.029 4389.17 223.867 4389.58 221.602 4390.2C220.47 4390.51 219.337 4390.82 218.205 4391.23C217.073 4391.54 215.94 4391.95 214.808 4392.36L211.412 4393.59C209.147 4394.52 206.882 4395.45 204.618 4396.48C201.941 4397.71 199.368 4399.05 196.794 4400.49H196.692C195.251 4401.31 193.707 4402.14 192.265 4402.96C189.795 4404.4 187.428 4405.95 185.06 4407.59C184.025 4408.22 183.028 4408.91 182.075 4409.65C180.428 4410.78 178.884 4411.92 177.339 4413.15C174.392 4415.43 171.574 4417.87 168.899 4420.46C168.179 4421.18 167.355 4421.9 166.738 4422.62C165.452 4423.88 164.249 4425.22 163.134 4426.63L162.929 4426.84C161.97 4428.03 161.076 4429.26 160.253 4430.55C159.665 4431.32 159.148 4432.15 158.708 4433.02C156.847 4435.84 156.181 4439.28 156.855 4442.59C160.149 4453.29 185.06 4443.31 222.94 4462.25C225.837 4464.21 229.094 4465.57 232.522 4466.26C235.95 4466.95 239.481 4466.95 242.909 4466.26C252.487 4463.07 251.556 4452.06 260.718 4440.94C262.13 4439.24 263.679 4437.66 265.35 4436.21C265.453 4436.1 265.655 4436 265.761 4435.9C266.754 4434.99 267.821 4434.16 268.952 4433.43C269.673 4432.91 270.394 4432.5 271.114 4431.99C271.32 4431.88 271.526 4431.68 271.732 4431.58C273.164 4430.74 274.642 4429.98 276.158 4429.31C276.776 4429 277.394 4428.69 277.908 4428.49C279.312 4427.82 280.756 4427.23 282.231 4426.74C284.702 4425.81 286.967 4425.19 289.128 4424.58C289.231 4424.47 289.231 4424.47 289.334 4424.47C289.54 4424.37 289.848 4424.37 290.054 4424.27C291.084 4424.06 292.01 4423.75 292.937 4423.55C293.348 4423.44 293.658 4423.34 294.069 4423.24H294.172C295.816 4422.79 297.431 4422.24 299.01 4421.59C299.594 4421.35 300.147 4421.04 300.657 4420.67C301.096 4420.43 301.454 4420.08 301.686 4419.64C301.895 4419.33 302.004 4418.97 301.995 4418.61V4418.5C301.893 4414.39 290.055 4414.08 271.321 4403.89ZM266.894 4424.89C260.306 4424.16 257.424 4421.69 248.777 4417.17C228.293 4406.36 216.558 4405.95 216.558 4402.24C216.764 4398.74 226.852 4395.65 235.602 4395.45C245.998 4395.14 248.571 4399.26 275.54 4410.47C284.393 4414.18 288.099 4415.42 288.099 4417.58C287.992 4418.54 287.511 4419.43 286.76 4420.05C280.913 4423.95 273.879 4425.66 266.894 4424.89Z" fill="#282724"/>
<path d="M199.623 4320.47C202.102 4319.17 204.747 4318.22 207.484 4317.64C213.397 4316.54 225.432 4316.44 261.275 4349.18C279.589 4365.91 279.524 4368.74 279.27 4370.11C277.097 4381.83 245.376 4376.39 209.744 4391.73C166.096 4410.52 166.358 4439.07 138.829 4442.54C95.1849 4448.04 43.9066 4376.55 54.048 4360.65C55.114 4359.43 56.4176 4358.43 57.8801 4357.72C59.3425 4357.02 60.9331 4356.61 62.5556 4356.54C103.736 4348.01 96.8667 4338.98 134.745 4332C164.593 4326.5 177.047 4330.6 199.623 4320.47Z" fill="#FFEECC" stroke="#282724" stroke-miterlimit="10"/>
<path opacity="0.1" d="M278.935 4367.97C278.921 4367.97 278.908 4367.96 278.895 4367.96C278.883 4367.95 278.871 4367.95 278.862 4367.94C278.852 4367.93 278.845 4367.92 278.84 4367.9C278.835 4367.89 278.832 4367.88 278.832 4367.86C277.917 4366.29 276.848 4364.8 275.641 4363.44L275.538 4363.34C275.538 4363.23 275.435 4363.23 275.332 4363.13C274.955 4362.62 274.542 4362.14 274.097 4361.69C273.783 4361.29 273.439 4360.91 273.068 4360.56C272.965 4360.56 272.965 4360.56 272.862 4360.45C270.288 4357.67 266.48 4353.97 261.23 4349.23C257.525 4345.84 254.025 4342.75 250.731 4339.97C248.672 4338.32 246.819 4336.78 244.966 4335.34C243.216 4333.9 241.467 4332.56 239.819 4331.32C238.893 4330.6 237.967 4329.99 237.143 4329.37C234.982 4327.82 232.923 4326.49 231.07 4325.25C229.386 4324.11 227.632 4323.08 225.82 4322.16C224.585 4321.55 223.555 4320.93 222.423 4320.41C221.416 4319.95 220.385 4319.54 219.335 4319.18C217.73 4318.56 216.078 4318.08 214.394 4317.74C213.921 4317.62 213.438 4317.56 212.953 4317.53V4317.43C211.137 4317.17 209.288 4317.23 207.497 4317.63C204.734 4318.22 202.067 4319.19 199.572 4320.52C177.028 4330.6 164.573 4326.49 134.722 4332.04C129.447 4332.97 124.224 4334.17 119.076 4335.65C117.816 4335.98 116.578 4336.39 115.37 4336.88C114.649 4337.09 113.929 4337.4 113.208 4337.6C112.088 4337.95 110.988 4338.36 109.915 4338.84C109.582 4339.03 109.238 4339.2 108.885 4339.35L106.105 4340.59C105.013 4341.04 103.947 4341.56 102.915 4342.13C102.811 4342.23 102.605 4342.23 102.503 4342.34C101.576 4342.85 100.65 4343.26 99.8267 4343.67C99.2088 4343.98 98.6945 4344.29 98.2821 4344.5C96.6351 4345.32 95.0912 4346.04 93.4448 4346.87C92.8268 4347.18 92.3121 4347.38 91.6941 4347.69C90.562 4348.2 89.327 4348.72 87.989 4349.23C85.3123 4350.37 82.2243 4351.39 78.6222 4352.53C77.2838 4352.94 75.8426 4353.35 74.2984 4353.76C70.9019 4354.69 66.9903 4355.62 62.5637 4356.54C60.9383 4356.63 59.3467 4357.04 57.8803 4357.75C56.4139 4358.45 55.102 4359.44 54.0201 4360.66C53.143 4362.26 52.7161 4364.08 52.7847 4365.91C52.7955 4366.94 52.8988 4367.98 53.0934 4369C53.0964 4369.53 53.2015 4370.05 53.4028 4370.54C53.4872 4371.31 53.6596 4372.07 53.9169 4372.8L54.2262 4374.04C54.5348 4374.86 54.8441 4375.79 55.1521 4376.72C55.667 4378.05 56.2847 4379.49 57.0053 4381.04C57.8288 4382.79 58.7556 4384.64 59.6816 4386.49C61.6373 4389.89 63.7991 4393.39 66.3727 4396.99C68.8261 4400.56 71.4719 4404 74.2984 4407.29C80.3847 4414.47 87.1785 4421.02 94.577 4426.84C96.1209 4427.97 97.6649 4429.11 99.2088 4430.14C100.982 4431.46 102.839 4432.66 104.767 4433.74C106.002 4434.46 107.341 4435.18 108.576 4435.9C109.09 4436.11 109.503 4436.41 110.017 4436.62C110.12 4436.72 110.326 4436.72 110.429 4436.83C110.532 4436.93 110.738 4436.93 110.841 4437.03C111.252 4437.24 111.767 4437.44 112.179 4437.65C113.62 4438.27 115.061 4438.88 116.502 4439.4C118.387 4440.12 120.312 4440.74 122.266 4441.25C123.295 4441.56 124.222 4441.77 125.251 4441.97C126.178 4442.18 127.002 4442.28 127.825 4442.38C128.675 4442.54 129.535 4442.65 130.398 4442.69C131.531 4442.8 132.664 4442.9 133.795 4442.9C135.481 4442.9 137.166 4442.8 138.839 4442.59C140.383 4442.38 141.927 4442.08 143.265 4441.77C143.472 4441.66 143.677 4441.66 143.883 4441.56C145.118 4441.26 146.324 4440.84 147.486 4440.33C148 4440.12 148.618 4439.81 149.236 4439.5C150.134 4439.14 150.996 4438.69 151.809 4438.16C152.739 4437.64 153.633 4437.06 154.485 4436.41H154.588C156.029 4435.28 157.368 4434.25 158.705 4433.02C159.426 4432.3 160.147 4431.68 160.867 4430.86C161.588 4430.14 162.309 4429.42 163.029 4428.59C165.808 4425.61 168.484 4422.42 171.675 4419.02C172.19 4418.4 172.91 4417.68 173.528 4417.06C174.764 4415.73 175.998 4414.49 177.337 4413.15C181.487 4409.08 186.001 4405.39 190.822 4402.14C192.139 4401.16 193.514 4400.27 194.939 4399.46H195.042C195.145 4399.36 195.145 4399.36 195.145 4399.26C195.223 4399.25 195.295 4399.21 195.35 4399.15C196.586 4398.33 198.027 4397.61 199.468 4396.79C201.012 4395.96 202.659 4395.04 204.41 4394.21C205.233 4393.8 206.057 4393.39 206.983 4392.98L209.762 4391.74C245.378 4376.41 277.082 4381.86 279.242 4370.13C279.349 4369.72 279.349 4369.3 279.242 4368.89C279.244 4368.58 279.038 4368.38 278.935 4367.97ZM268.745 4369.41C266.583 4373.52 251.245 4363.64 231.585 4368.17C215.938 4371.88 214.806 4380.73 203.277 4382.89C176.62 4388.04 142.134 4347.38 147.898 4336.98C150.883 4331.63 161.897 4338.43 186.19 4332.87C205.336 4328.44 206.88 4322.27 217.484 4323.71C219.505 4324.01 221.457 4324.68 223.248 4325.66C223.351 4325.66 223.454 4325.76 223.66 4325.87C225.731 4326.99 227.695 4328.3 229.527 4329.78L229.63 4329.88C229.836 4329.88 229.939 4330.09 230.145 4330.19C235.704 4334.41 242.497 4340.79 251.658 4349.34C253.512 4351.09 255.158 4352.63 256.599 4354.07C268.745 4365.7 269.465 4368.17 268.745 4369.41Z" fill="#282724"/>
</svg>
