<svg width="752" height="4634" viewBox="0 0 752 4634" fill="none" xmlns="http://www.w3.org/2000/svg">
<path d="M465.553 704.687C467.695 696.91 469.205 686.894 463.68 682.481C458.605 678.428 450.029 681.046 449.08 678.477C448.043 675.675 457.532 670.612 463.139 666.966C463.139 666.966 476.029 658.583 491.799 633.433C504.736 612.799 487.467 544.656 431.447 471.514C383.828 493.254 360.466 497.786 348.071 496.981C345.596 496.82 335.988 495.955 332.229 500.839C329.077 504.936 332.535 509.83 332.229 517.816C331.326 525.523 328.131 532.781 323.058 538.653C309.992 559.584 343.162 595.419 357.696 647.947C361.841 663.018 364.224 678.518 364.798 694.137" fill="#F4D58C"/>
<path d="M465.553 704.687C467.695 696.91 469.205 686.894 463.68 682.481C458.605 678.428 450.029 681.046 449.08 678.477C448.043 675.675 457.532 670.612 463.139 666.966C463.139 666.966 476.029 658.583 491.799 633.433C504.736 612.799 487.467 544.656 431.447 471.514C383.828 493.254 360.466 497.786 348.071 496.981C345.596 496.82 335.988 495.955 332.229 500.839C329.077 504.936 332.535 509.83 332.229 517.816C331.326 525.523 328.131 532.781 323.058 538.653C309.992 559.584 343.162 595.419 357.696 647.947C361.841 663.018 364.224 678.518 364.798 694.137" stroke="#282724" stroke-miterlimit="10"/>
<path opacity="0.09" d="M465.553 704.687C467.695 696.91 469.205 686.894 463.68 682.481C458.605 678.428 450.029 681.046 449.08 678.477C448.043 675.675 457.532 670.612 463.139 666.966C463.139 666.966 476.029 658.583 491.799 633.433C504.736 612.799 487.467 544.656 431.447 471.514C383.828 493.254 360.466 497.786 348.071 496.981C345.596 496.82 335.988 495.955 332.229 500.839C329.077 504.936 332.535 509.83 332.229 517.816C331.326 525.523 328.131 532.781 323.058 538.653C309.992 559.584 343.162 595.419 357.696 647.947C361.841 663.018 364.224 678.518 364.798 694.137L465.553 704.687Z" fill="#282724"/>
<path opacity="0.05" d="M465.553 704.687C467.695 696.91 469.205 686.894 463.68 682.481C458.605 678.428 450.029 681.046 449.08 678.477C448.043 675.675 457.532 670.612 463.139 666.966C463.139 666.966 476.029 658.583 491.799 633.433C504.736 612.799 487.467 544.656 431.447 471.514C383.828 493.254 360.466 497.786 348.071 496.981C345.596 496.82 335.988 495.955 332.229 500.839C329.077 504.936 332.535 509.83 332.229 517.816C331.326 525.523 328.131 532.781 323.058 538.653C309.992 559.584 343.162 595.419 357.696 647.947C361.841 663.018 364.224 678.518 364.798 694.137L465.553 704.687Z" fill="#282724"/>
<path opacity="0.21" d="M460.883 704.208C461.939 702.006 462.479 699.593 462.465 697.151C462.451 694.709 461.882 692.302 460.802 690.112C455.96 682.474 442.787 683.767 442.154 679.841C441.544 676.055 453.44 672.637 463.14 666.966C474.691 657.663 484.409 646.292 491.8 633.433C504.737 612.799 487.468 544.656 431.448 471.514C383.829 493.254 360.467 497.786 348.072 496.981C345.597 496.82 335.989 495.955 332.23 500.839C329.078 504.936 332.535 509.83 332.23 517.816C331.834 528.16 325.52 533.877 323.059 538.653C312.561 559.056 357.803 591.454 382.183 638.394C391.729 656.954 397.825 677.093 400.173 697.832L460.883 704.208Z" fill="#282724"/>
<path d="M465.541 704.726C465.169 706.188 464.723 707.631 464.206 709.048C463.316 712.038 462.315 715.432 461.095 719.24C460.316 721.505 459.649 723.872 458.759 726.342C453.198 743.122 447.86 757.123 443.299 768.034C435.514 786.667 431.952 792.636 427.284 798.298C418.164 809.621 414.939 807.872 389.915 830.004C378.348 840.195 375.346 843.798 367.671 846.166C359.553 848.636 356.772 846.577 338.977 846.886C317.179 847.298 315.287 850.489 306.277 848.43C293.821 845.547 291.93 838.239 278.473 827.739C252.336 807.563 238.211 818.269 221.862 801.18C209.851 788.622 215.301 780.386 199.619 761.446C193.187 753.758 185.654 747.064 177.264 741.578C178.192 735.625 179.873 729.814 182.267 724.284C186.27 715.226 188.939 714.505 189.274 709.152C189.352 708.258 189.314 707.359 189.162 706.476C188.316 703.48 187.238 700.554 185.936 697.726C185.878 697.612 185.803 697.508 185.714 697.416C184.706 694.722 183.852 691.972 183.156 689.181C182.934 687.946 182.378 686.196 182.044 684.137C181.996 683.968 181.959 683.796 181.932 683.622C181.71 682.49 181.487 681.255 181.265 679.917C180.746 676.717 180.486 673.481 180.487 670.24V670.034C180.494 666.486 180.754 662.943 181.265 659.431C187.16 658.196 194.5 656.24 202.731 653.666C202.731 653.666 211.294 650.991 219.747 647.49C246.749 635.398 271.849 619.448 294.263 600.138C295.598 599.108 296.933 597.976 298.267 596.844C300.936 594.785 303.494 592.623 306.163 590.153C313.542 583.9 320.525 577.196 327.072 570.079C329.742 567.197 332.411 564.109 335.08 561.02C336.748 558.962 338.528 556.903 340.083 554.741C342.609 551.774 344.984 548.682 347.2 545.477C349.87 541.873 352.539 538.168 354.986 534.359C355.541 533.535 356.098 532.712 356.543 531.889C358.879 528.389 361.102 524.786 363.215 521.182C363.404 520.969 363.554 520.726 363.661 520.462C369.862 510.013 375.397 499.183 380.232 488.036C381.122 485.874 382.124 483.815 382.901 481.654C387.547 470.397 391.194 458.755 393.8 446.86C394.246 444.698 394.579 442.639 394.913 440.581C395.133 439.706 395.245 438.806 395.246 437.904C395.692 435.536 395.914 433.169 396.136 430.904C396.359 428.228 396.471 425.655 396.471 423.081C396.471 408.566 392.8 396.934 384.68 389.831C376.006 382.317 358.433 376.552 344.976 374.39C339.431 373.445 333.801 373.1 328.182 373.361C317.728 373.876 311.277 376.346 300.155 373.258C297.735 372.537 295.358 371.678 293.037 370.684C275.019 362.861 259.894 345.361 259.117 328.17C258.227 308.92 275.911 298.729 288.59 281.847C290.427 279.363 292.135 276.786 293.705 274.126C294.887 272.16 295.964 270.133 296.931 268.053C297.766 266.465 298.472 264.813 299.044 263.112H299.156C299.156 263.01 299.266 262.804 299.266 262.701C299.934 261.054 300.601 259.407 301.158 257.657C301.268 257.245 301.491 256.73 301.602 256.216C302.047 254.877 302.381 253.436 302.714 251.995C303.053 251.136 303.277 250.236 303.381 249.319C303.794 247.974 304.092 246.596 304.271 245.201C304.52 244.253 304.706 243.29 304.827 242.318C304.956 241.709 305.031 241.088 305.05 240.466C305.273 239.127 305.495 237.789 305.606 236.451C305.907 234.784 306.092 233.099 306.162 231.407C307.117 206.9 303.651 182.421 295.93 159.143C295.142 157.618 294.473 156.035 293.928 154.407C293.914 154.408 293.9 154.407 293.886 154.402C293.873 154.397 293.861 154.39 293.85 154.38C293.84 154.371 293.832 154.359 293.826 154.346C293.82 154.333 293.817 154.319 293.817 154.305C292.485 150.719 291.588 146.987 291.147 143.187C289.035 125.481 297.932 112.305 306.385 96.2467C322.622 65.673 317.173 62.482 326.517 48.4811C360.216 -2.26835 457.309 0.304714 466.206 0.613392C494.377 2.57025 522.282 7.32908 549.509 14.8193C564.491 17.7772 579.217 21.9076 593.551 27.1725C654.277 53.6278 674.073 117.554 674.852 120.128C683.616 151.208 681.577 184.341 669.068 214.112C661.061 231.714 655.833 231.817 640.375 262.802C625.471 292.655 626.694 299.86 613.57 317.67C598.668 337.948 592.55 334.757 578.203 354.934C566.859 370.889 562.524 384.478 555.181 407.125C544.616 440.372 546.618 454.786 547.616 460.345C548.886 467.382 551.132 474.207 554.289 480.624C540.757 481.857 527.992 487.458 517.921 496.58C512.36 502.138 512.026 505.329 505.465 509.859C493.341 518.3 484.667 513.977 476.77 520.564C469.541 526.535 474.101 532.506 469.096 548.87C463.647 566.781 455.417 568.84 445.181 590.458C440.936 599.54 437.728 609.07 435.616 618.869C410.677 618.073 385.774 621.342 361.886 628.549C339.531 635.447 314.951 642.962 295.933 664.888C291.15 670.343 268.24 696.593 275.8 725.108C277.952 734.652 283.383 743.139 291.148 749.092C300.542 755.164 311.553 758.251 322.735 757.945C328.721 758.294 334.725 757.704 340.529 756.196C357.101 750.74 366.665 725.211 364.775 694.123" fill="#F4D58C"/>
<path d="M465.541 704.726C465.169 706.188 464.723 707.631 464.206 709.048C463.316 712.038 462.315 715.432 461.095 719.24C460.316 721.505 459.649 723.872 458.759 726.342C453.198 743.122 447.86 757.123 443.299 768.034C435.514 786.667 431.952 792.636 427.284 798.298C418.164 809.621 414.939 807.872 389.915 830.004C378.348 840.195 375.346 843.798 367.671 846.166C359.553 848.636 356.772 846.577 338.977 846.886C317.179 847.298 315.287 850.489 306.277 848.43C293.821 845.547 291.93 838.239 278.473 827.739C252.336 807.563 238.211 818.269 221.862 801.18C209.851 788.622 215.301 780.386 199.619 761.446C193.187 753.758 185.654 747.064 177.264 741.578C178.192 735.625 179.873 729.814 182.267 724.284C186.27 715.226 188.939 714.505 189.274 709.152C189.352 708.258 189.314 707.359 189.162 706.476C188.316 703.48 187.238 700.554 185.936 697.726C185.878 697.612 185.803 697.508 185.714 697.416C184.706 694.722 183.852 691.972 183.156 689.181C182.934 687.946 182.378 686.196 182.044 684.137C181.996 683.968 181.959 683.796 181.932 683.622C181.71 682.49 181.487 681.255 181.265 679.917C180.746 676.717 180.486 673.481 180.487 670.24V670.034C180.494 666.486 180.754 662.943 181.265 659.431C187.16 658.196 194.5 656.24 202.731 653.667C202.731 653.667 211.294 650.991 219.747 647.49C246.749 635.399 271.849 619.448 294.263 600.138C295.598 599.108 296.933 597.976 298.267 596.844C300.936 594.785 303.494 592.623 306.163 590.153C313.542 583.9 320.525 577.196 327.072 570.079C329.742 567.197 332.411 564.109 335.08 561.02C336.748 558.962 338.528 556.903 340.083 554.741C342.609 551.774 344.984 548.682 347.2 545.477C349.87 541.873 352.539 538.168 354.986 534.359C355.541 533.535 356.098 532.712 356.543 531.889C358.879 528.389 361.102 524.786 363.215 521.182C363.404 520.969 363.554 520.726 363.661 520.462C369.862 510.013 375.397 499.183 380.232 488.036C381.122 485.874 382.124 483.815 382.901 481.654C387.547 470.397 391.194 458.755 393.8 446.86C394.246 444.698 394.579 442.639 394.913 440.581C395.133 439.706 395.245 438.806 395.246 437.904C395.692 435.536 395.914 433.169 396.136 430.904C396.359 428.228 396.471 425.655 396.471 423.081C396.471 408.566 392.8 396.934 384.68 389.831C376.006 382.317 358.433 376.552 344.976 374.39C339.431 373.445 333.801 373.1 328.182 373.361C317.728 373.876 311.277 376.346 300.155 373.258C297.735 372.537 295.358 371.678 293.037 370.684C275.019 362.861 259.894 345.361 259.117 328.17C258.227 308.92 275.911 298.729 288.59 281.847C290.427 279.364 292.135 276.786 293.705 274.126C294.887 272.16 295.964 270.133 296.931 268.053C297.766 266.465 298.472 264.813 299.044 263.112H299.156C299.156 263.01 299.266 262.804 299.266 262.701C299.934 261.054 300.601 259.407 301.158 257.657C301.268 257.245 301.491 256.73 301.602 256.216C302.047 254.877 302.381 253.436 302.714 251.995C303.053 251.136 303.277 250.236 303.381 249.319C303.794 247.974 304.092 246.596 304.271 245.201C304.52 244.253 304.706 243.29 304.827 242.318C304.956 241.709 305.031 241.088 305.05 240.466C305.273 239.127 305.495 237.789 305.606 236.451C305.907 234.784 306.092 233.099 306.162 231.407C307.117 206.9 303.651 182.421 295.93 159.143C295.142 157.618 294.473 156.035 293.928 154.407C293.914 154.408 293.9 154.407 293.886 154.402C293.873 154.397 293.861 154.39 293.85 154.38C293.84 154.371 293.832 154.359 293.826 154.346C293.82 154.333 293.817 154.319 293.817 154.305C292.485 150.719 291.588 146.987 291.147 143.187C289.035 125.481 297.932 112.305 306.385 96.2467C322.622 65.673 317.173 62.482 326.517 48.4811C360.216 -2.26835 457.309 0.304714 466.206 0.613392C494.377 2.57025 522.282 7.32908 549.509 14.8193C564.491 17.7772 579.217 21.9076 593.551 27.1725C654.277 53.6278 674.073 117.554 674.852 120.128C683.616 151.208 681.577 184.341 669.068 214.112C661.061 231.714 655.833 231.817 640.375 262.802C625.471 292.655 626.694 299.86 613.57 317.67C598.668 337.948 592.55 334.757 578.203 354.934C566.859 370.889 562.524 384.478 555.181 407.125C544.616 440.372 546.618 454.786 547.616 460.345C548.886 467.382 551.132 474.207 554.289 480.624C540.757 481.857 527.992 487.458 517.921 496.58C512.36 502.138 512.026 505.329 505.465 509.859C493.341 518.3 484.667 513.977 476.77 520.564C469.541 526.535 474.101 532.506 469.096 548.87C463.647 566.781 455.417 568.84 445.181 590.458C440.936 599.54 437.728 609.07 435.616 618.869C410.677 618.073 385.774 621.342 361.886 628.549C339.531 635.447 314.951 642.962 295.933 664.888C291.15 670.343 268.24 696.593 275.8 725.108C277.952 734.652 283.383 743.139 291.148 749.092C300.542 755.164 311.553 758.251 322.735 757.945C328.721 758.294 334.725 757.704 340.529 756.196C357.101 750.74 366.665 725.211 364.775 694.123" stroke="#282724" stroke-miterlimit="10"/>
<path opacity="0.05" d="M343.868 237.791C333.073 207.665 327.407 175.942 327.107 143.941C326.79 101.106 326.531 66.1474 349.456 40.4509C394.452 -9.98798 499.351 8.22156 552.903 27.2827C585.581 38.9136 637.419 57.3653 657.08 102.692C677.895 150.682 659.77 210.612 630.975 247.663C605.788 280.072 569.524 299.306 576.26 316.04C579.403 323.849 590.382 327.313 598.779 329.009C588.458 336.916 579.215 346.138 571.286 356.441C537.747 400.241 540.552 449.487 542.768 468.433C539.757 469.596 536.532 470.099 533.31 469.907C530.088 469.714 526.945 468.831 524.094 467.318C516.956 461.828 521.524 450.366 519.878 436.653C517.517 416.988 504.13 406.658 497.589 397.066C479.662 370.78 501.311 331.854 527.444 272.334C562.131 193.341 579.474 153.844 573.484 126.414C564.211 83.9525 524.255 40.316 474.428 33.4391C452.942 30.7451 431.136 34.3333 411.646 43.7696C356.428 70.9051 330.482 148.477 343.868 237.791Z" fill="#282724"/>
<path opacity="0.21" d="M343.869 237.791C335.764 217.736 330.775 196.56 329.076 174.996C331.585 196.425 336.549 217.495 343.869 237.791Z" fill="#282724"/>
<path opacity="0.21" d="M420.499 9.05766C398.254 13.2665 377.674 23.7393 361.178 39.2446C313.648 86.9884 331.19 174.996 329.077 174.998C328.395 174.998 327.247 165.841 327.076 143.91C326.742 101.086 326.52 66.1917 349.431 40.4549C366.447 21.3077 392.25 12.1463 420.499 9.05766Z" fill="#282724"/>
<path opacity="0.21" d="M630.922 247.672C602.36 286.236 570.327 300.98 576.314 316.024C579.425 323.848 590.328 327.348 598.78 328.994C588.456 336.91 579.22 346.152 571.309 356.48C555.94 376.467 546.221 400.215 543.17 425.243C530.492 408.467 515.589 382.627 518.592 352.771C520.958 329.248 533.731 311.337 553.069 289.877C606.747 230.306 629.089 229.522 647.143 198.196C657.504 180.215 667.407 150.511 657.062 102.732C664.144 121.081 667.224 140.731 666.097 160.367C663.409 203.012 640.366 234.921 630.922 247.672Z" fill="#282724"/>
<path opacity="0.09" d="M458.757 726.344C453.196 743.123 447.858 757.124 443.297 768.035C435.512 786.668 431.95 792.637 427.282 798.3C418.162 809.623 414.937 807.873 389.913 830.005C378.346 840.196 375.344 843.799 367.67 846.167C359.551 848.637 356.77 846.579 338.975 846.887C317.177 847.299 315.286 850.49 306.275 848.432C293.819 845.549 291.928 838.241 278.471 827.741C252.334 807.564 238.209 818.27 221.861 801.182C209.849 788.623 215.299 780.387 199.617 761.447C193.185 753.76 185.652 747.065 177.262 741.58C178.19 735.626 179.871 729.815 182.265 724.286C186.268 715.227 188.937 714.506 189.272 709.153C189.331 708.263 189.293 707.369 189.157 706.487C188.554 703.279 187.398 700.201 185.741 697.389C183.94 694.561 181.818 687.742 180.513 670.063C206.262 665.647 231.403 658.221 255.419 647.938C316.097 621.756 365.026 577.857 393.804 552.273C419.415 529.504 436.193 510.569 442.296 514.185C447.857 517.479 443.408 539.199 432.62 555.667C422.276 571.314 410.042 576.461 411.933 582.535C413.157 586.24 419.498 590.358 445.187 590.461C440.943 599.542 437.734 609.073 435.622 618.872C410.681 618.075 385.776 621.343 361.886 628.551C339.531 635.448 314.952 642.963 295.933 664.889C291.151 670.344 268.24 696.595 275.801 725.109C277.953 734.653 283.384 743.141 291.149 749.094C300.542 755.165 311.554 758.252 322.735 757.947C328.722 758.295 334.726 757.705 340.53 756.197C357.101 750.742 366.665 725.212 364.775 694.124L465.552 704.687C464.421 708.61 463.215 712.6 461.933 716.657C460.893 719.948 459.834 723.177 458.757 726.344Z" fill="#282724"/>
<path opacity="0.21" d="M460.883 704.208C454.967 736.036 440.726 765.73 419.608 790.269C408.121 803.521 392.004 822.239 363.555 831.342C354.546 834.225 324.406 844.107 300.605 831.342C288.705 824.96 291.596 820.123 276.359 811.167C256.118 799.328 243.105 803.24 235.209 792.123C228.98 783.373 234.431 777.196 230.426 767.416C226.311 757.739 213.855 746.93 177.264 741.578C178.192 735.624 179.873 729.813 182.267 724.284C186.27 715.225 188.939 714.504 189.274 709.151C189.333 708.261 189.295 707.367 189.159 706.485C188.559 703.276 187.403 700.197 185.743 697.387C183.882 694.478 181.828 687.949 180.699 672.399C207.02 668.956 232.871 662.571 257.769 653.366C325.757 628.086 369.46 586.9 392.491 565.526C423.401 536.84 439.705 512.504 442.298 514.181C444.939 515.889 431.479 542.529 409.72 566.819C385.959 593.346 364.606 603.336 366.878 607.765C368.609 611.139 383.605 610.411 445.188 590.46C440.943 599.541 437.735 609.072 435.623 618.871C410.681 618.073 385.777 621.342 361.886 628.55C339.531 635.448 314.952 642.962 295.933 664.888C291.151 670.344 268.24 696.594 275.801 725.108C276.678 728.555 277.844 731.923 279.287 735.174C291.153 761.927 325.027 788.381 350.102 781.144C363.937 777.15 370.926 763.443 384.908 736.044C391.162 723.803 396.271 711.012 400.171 697.831L460.883 704.208Z" fill="#282724"/>
<path opacity="0.05" d="M396.585 495.654C374.453 532.094 333.636 578.212 294.264 600.138C295.599 599.108 296.934 597.976 298.268 596.844C300.938 594.785 303.496 592.623 306.165 590.153C313.543 583.901 320.526 577.196 327.074 570.079C329.743 567.197 332.413 564.109 335.082 561.02C336.75 558.962 338.529 556.903 340.084 554.741C342.61 551.774 344.986 548.682 347.202 545.477C349.872 541.873 352.541 538.168 354.987 534.359C355.543 533.536 356.1 532.712 356.544 531.889C358.88 528.389 361.104 524.786 363.217 521.182C363.405 520.969 363.556 520.726 363.662 520.462C369.863 510.013 375.398 499.183 380.234 488.036C381.234 485.874 382.125 483.713 382.903 481.654C387.548 470.398 391.195 458.755 393.802 446.86C394.247 444.698 394.581 442.639 394.915 440.581C395.135 439.706 395.246 438.807 395.248 437.904C395.693 435.537 395.915 433.272 396.138 430.905C396.36 428.228 396.472 425.655 396.472 423.081C396.472 408.566 392.801 396.934 384.682 389.831C376.007 382.317 358.435 376.552 344.978 374.39C339.433 373.445 333.802 373.1 328.183 373.361C317.729 373.876 311.278 376.346 300.157 373.258C297.736 372.537 295.36 371.678 293.038 370.684C275.021 362.861 259.895 345.361 259.118 328.17C258.228 308.92 275.912 298.729 288.591 281.847C290.429 279.363 292.136 276.786 293.707 274.126C294.889 272.16 295.966 270.133 296.933 268.053C297.767 266.465 298.474 264.813 299.046 263.112H299.157C299.157 263.01 299.268 262.803 299.268 262.701C299.935 261.156 300.603 259.407 301.159 257.657C301.269 257.245 301.492 256.73 301.604 256.216C302.091 254.842 302.463 253.43 302.716 251.995C303.054 251.136 303.278 250.236 303.383 249.318C303.848 247.988 304.147 246.605 304.273 245.201C304.522 244.253 304.707 243.291 304.829 242.319C304.994 241.712 305.105 241.092 305.163 240.466C305.427 239.143 305.575 237.799 305.608 236.451C305.908 234.784 306.094 233.099 306.163 231.407C311.279 230.329 316.527 230.016 321.734 230.48C329.884 231.444 337.595 234.692 343.978 239.848C355.544 247.98 371.226 263.421 391.136 292.861C406.596 315.611 414.27 326.933 419.386 340.727C444.965 409.903 407.373 477.844 396.585 495.654Z" fill="#282724"/>
<path opacity="0.18" d="M377.234 500.08C373.231 506.668 368.671 513.462 363.666 520.461C369.867 510.012 375.402 499.182 380.238 488.036C381.128 485.874 382.129 483.815 382.907 481.653C387.552 470.397 391.199 458.754 393.806 446.859C394.251 444.697 394.585 442.639 394.919 440.58C395.138 439.705 395.25 438.806 395.252 437.904C395.697 435.536 395.919 433.169 396.142 430.904C396.364 428.227 396.476 425.654 396.476 423.08C396.476 408.566 392.805 396.933 384.686 389.83C376.011 382.316 358.439 376.551 344.982 374.389C339.437 373.445 333.806 373.1 328.187 373.36C317.733 373.875 311.282 376.345 300.161 373.257C297.74 372.537 295.364 371.678 293.042 370.684C275.025 362.86 259.899 345.361 259.122 328.169C258.232 308.919 275.916 298.728 288.595 281.846C290.433 279.363 292.14 276.786 293.711 274.126C294.893 272.16 295.97 270.132 296.937 268.053C297.771 266.464 298.478 264.812 299.05 263.111H299.161C299.161 263.009 299.272 262.803 299.272 262.7C299.939 261.053 300.607 259.406 301.163 257.656C301.273 257.245 301.496 256.729 301.608 256.215C302.052 254.876 302.386 253.435 302.72 251.994C303.058 251.135 303.282 250.236 303.387 249.318C303.8 247.973 304.097 246.595 304.277 245.2C304.525 244.253 304.711 243.29 304.832 242.318C304.962 241.708 305.036 241.088 305.055 240.465C305.278 239.127 305.5 237.789 305.612 236.451C307.057 237.171 308.503 237.892 310.172 238.715H310.283C318.623 243.019 326.65 247.904 334.306 253.333C337.417 255.391 340.534 257.759 343.762 260.333V260.436C355.103 269.537 365.232 280.055 373.9 291.73C385.646 307.887 394.49 325.966 400.035 345.156C420.276 414.124 393.806 472.903 377.234 500.08Z" fill="#282724"/>
<path opacity="0.05" d="M674.894 120.101C674.116 117.528 654.318 53.602 593.594 27.146C579.259 21.8816 564.533 17.7512 549.552 14.7928C522.325 7.30272 494.42 2.54438 466.249 0.588231C457.352 0.278943 360.258 -2.29482 326.559 48.4546C317.216 62.4543 322.666 65.6453 306.427 96.2202C297.974 112.279 289.077 125.455 291.19 143.161C291.631 146.96 292.527 150.693 293.859 154.279C293.859 154.293 293.862 154.307 293.868 154.32C293.874 154.333 293.882 154.344 293.893 154.354C293.903 154.364 293.916 154.371 293.929 154.375C293.942 154.38 293.957 154.382 293.971 154.381C294.516 156.008 295.185 157.592 295.973 159.117C303.694 182.395 307.16 206.874 306.205 231.381C306.135 233.073 305.949 234.758 305.648 236.424C305.537 237.763 305.315 239.101 305.093 240.44C305.073 241.063 304.999 241.683 304.87 242.292C304.748 243.264 304.562 244.227 304.314 245.174C304.135 246.57 303.837 247.947 303.424 249.292C303.319 250.21 303.095 251.109 302.757 251.969C302.423 253.41 302.089 254.851 301.645 256.189C301.533 256.704 301.311 257.219 301.2 257.63C300.643 259.38 299.979 261.028 299.308 262.674C299.308 262.777 299.197 262.984 299.197 263.087H299.086C298.514 264.787 297.807 266.44 296.972 268.028C296.005 270.108 294.929 272.135 293.747 274.101C292.177 276.761 290.469 279.338 288.631 281.822C275.953 298.704 258.269 308.895 259.159 328.145C259.937 345.337 275.063 362.835 293.079 370.659C295.4 371.653 297.777 372.512 300.197 373.233C311.319 376.321 317.767 373.85 328.224 373.336C333.842 373.075 339.473 373.421 345.018 374.366C358.475 376.527 376.048 382.291 384.722 389.806C392.841 396.91 396.511 408.541 396.511 423.053C396.511 425.626 396.4 428.2 396.178 430.876C395.956 433.14 395.733 435.509 395.288 437.876C395.287 438.779 395.175 439.678 394.954 440.553C394.621 442.612 394.287 444.67 393.842 446.832C391.235 458.727 387.588 470.369 382.943 481.625C382.164 483.787 381.163 485.846 380.274 488.008C375.438 499.155 369.903 509.985 363.702 520.435C363.595 520.698 363.445 520.941 363.258 521.154C361.144 524.758 358.92 528.36 356.584 531.86C356.139 532.683 355.583 533.508 355.028 534.331C352.58 538.14 349.911 541.846 347.242 545.449C345.025 548.654 342.65 551.746 340.124 554.713C338.567 556.875 336.788 558.934 335.121 560.992C332.452 564.081 329.783 567.169 327.114 570.051C320.566 577.168 313.584 583.871 306.205 590.121C303.536 592.592 300.978 594.754 298.309 596.813C296.974 597.945 295.639 599.077 294.305 600.107C271.891 619.417 246.79 635.368 219.788 647.459C211.336 650.96 202.772 653.635 202.772 653.635C194.542 656.209 187.202 658.165 181.307 659.401C195.631 657.163 209.76 653.825 223.57 649.415C272.061 633.974 299.977 610.709 301.311 612.254C302.531 613.797 277.956 637.783 239.919 654.151C220.973 662.221 200.976 667.558 180.529 670.003V670.209C180.973 675.665 181.419 680.092 181.975 683.591C182.001 683.765 182.038 683.937 182.086 684.106C182.445 688.727 183.691 693.235 185.756 697.385C185.845 697.476 185.92 697.58 185.979 697.694C187.543 700.405 188.634 703.365 189.203 706.443C189.356 707.327 189.393 708.227 189.314 709.12C188.981 714.473 186.312 715.194 182.308 724.253C179.914 729.782 178.233 735.593 177.305 741.547C185.695 747.031 193.228 753.726 199.66 761.414C215.343 780.355 209.893 788.59 221.904 801.149C238.254 818.237 252.378 807.531 278.514 827.707C291.971 838.207 293.862 845.516 306.319 848.399C315.327 850.458 317.218 847.266 339.019 846.854C356.813 846.546 359.594 848.604 367.713 846.133C375.387 843.766 378.389 840.164 389.957 829.972C414.981 807.84 418.203 809.59 427.326 798.266C431.997 792.605 435.556 786.634 443.341 768.002C447.901 757.091 453.239 743.09 458.8 726.312C459.69 723.84 460.358 721.473 461.136 719.209C462.356 715.399 463.36 712.003 464.247 709.017C464.764 707.599 465.21 706.156 465.582 704.694C431.994 701.194 398.406 697.591 364.818 694.092C366.709 725.179 357.144 750.708 340.573 756.164C334.769 757.672 328.764 758.263 322.777 757.914C311.597 758.219 300.585 755.133 291.192 749.061C283.427 743.108 277.996 734.62 275.844 725.076C268.279 696.562 291.192 670.312 295.976 664.856C314.994 642.93 339.573 635.415 361.925 628.519C385.816 621.311 410.721 618.043 435.663 618.842C437.775 609.042 440.983 599.512 445.228 590.431C455.459 568.813 463.689 566.755 469.143 548.842C474.145 532.475 469.587 526.505 476.817 520.537C484.713 513.948 493.388 518.273 505.51 509.831C512.073 505.302 512.404 502.11 517.967 496.552C528.038 487.43 540.803 481.83 554.335 480.596C551.177 474.18 548.931 467.354 547.663 460.317C546.662 454.758 544.659 440.347 555.228 407.097C562.568 384.45 566.906 370.861 578.25 354.907C592.597 334.73 598.714 337.921 613.617 317.642C626.741 299.833 625.517 292.628 640.42 262.775C655.88 231.79 661.107 231.687 669.115 214.084C681.622 184.313 683.659 151.18 674.894 120.101Z" fill="#282724"/>
<path opacity="0.18" d="M356.884 320.655C353.881 335.375 347.208 339.184 336.198 358.331C332.528 364.714 330.081 369.449 328.19 373.36C317.736 373.875 311.285 376.345 300.163 373.257C297.743 372.537 295.366 371.678 293.045 370.684C295.27 363.375 295.047 355.346 298.047 346.184C298.382 345.258 298.603 344.64 298.938 343.817C299.075 343.68 299.154 343.496 299.16 343.302C299.989 340.941 301.11 338.693 302.497 336.611C302.608 336.405 302.608 336.302 302.719 336.097C308.613 327.449 316.732 323.949 326.408 310.464C333.958 299.656 339.15 287.381 341.645 274.435C346.784 277.555 351.065 281.907 354.101 287.097C359.097 297.567 360.087 309.504 356.884 320.655Z" fill="#282724"/>
</svg>
