<svg width="734" height="274" viewBox="0 0 734 274" fill="none" xmlns="http://www.w3.org/2000/svg">
<path d="M399.848 252.163C395.847 245.445 388.144 242.094 381.201 238.496C374.257 234.898 367 229.797 365.611 222.105C364.553 216.18 367.397 210.106 371.629 205.814C375.844 201.522 381.3 198.683 386.639 195.927C402.576 187.707 418.512 179.487 434.432 171.25C445.541 165.523 456.915 159.696 469.281 157.913C482.869 155.966 496.624 159.036 510.014 162.073C537.407 168.312 564.783 174.552 592.176 180.791C600.971 182.788 610.311 185.099 616.543 191.619C623.47 198.881 624.925 209.726 625.041 219.762C625.123 227.684 624.379 236.235 619.304 242.325C614.378 248.218 606.443 250.562 598.888 251.948C562.221 258.666 524.678 249.935 487.416 248.68C473.347 248.201 466.272 249.918 453.063 254.771C439.59 259.739 414.892 273.059 399.848 252.163Z" fill="url(#paint0_linear_379:8426)"/>
<path d="M486.622 17.0344C521.504 3.36745 551.905 1.99745 565.461 9.88733C579.083 17.8102 581.678 15.2683 595.895 22.0853C610.113 28.9023 622.131 42.0576 623.685 57.7218C625.371 74.7395 614.328 91.0639 599.913 100.307C585.514 109.551 568.205 113.017 551.277 115.658C534.96 118.2 518.396 120.131 501.93 118.695C485.481 117.259 468.983 112.241 455.973 102.09C448.12 95.9662 441.59 87.8618 438.565 78.3873C433.457 62.294 439.656 43.6587 452.402 32.5666C462.569 23.7194 475.232 21.4911 486.622 17.0344Z" fill="url(#paint1_linear_379:8426)"/>
<path d="M421.488 12.4622C425.637 8.69878 428.282 11.3893 433.787 10.3659C439.292 9.34252 439.127 10.6795 441.507 15.7469C443.442 19.8569 442.367 24.7426 440.631 28.9352C439.16 32.4675 437.193 35.9007 434.201 38.3106C428.497 42.8828 419.421 42.4866 414.148 37.4358C408.874 32.3849 416.115 17.3314 421.488 12.4622Z" fill="url(#paint2_linear_379:8426)"/>
<path d="M287.83 42.5532C285.764 34.2342 291.351 25.5025 298.807 21.2605C306.263 17.0184 315.173 16.2756 323.753 15.896C340.235 15.1862 357.478 15.6649 372.125 23.2577C378.092 26.3443 383.531 30.6524 387.185 36.2644C390.838 41.8765 392.558 48.9245 391.07 55.4609C389.664 61.5847 385.598 66.8171 380.804 70.8941C372.389 78.0412 361.677 82.0687 350.799 83.9503C339.921 85.832 328.795 85.6835 317.769 85.2708C309.817 84.9737 301.419 84.396 294.807 79.9559C288.971 76.044 285.268 69.425 284.078 62.509C282.871 55.593 284.061 48.4129 287.83 42.5532Z" fill="url(#paint3_linear_379:8426)"/>
<path d="M686.554 55.2457C695.366 52.3241 705.599 55.9554 711.666 62.9705C717.749 69.9856 719.915 80.5164 716.047 88.951C712.178 97.3856 701.945 102.717 693.035 100.076C684.637 97.5836 679.099 88.8685 678.454 80.1533C677.809 71.4381 681.248 62.8385 686.554 55.2457Z" fill="url(#paint4_linear_379:8426)"/>
<path d="M717.485 103.163C715.865 93.7049 714.327 86.2112 711.352 79.6748C710.128 76.9843 705.566 79.1136 703.731 81.4574C701.912 83.7848 700.821 86.8219 698.341 88.4395C694.043 91.229 687.926 87.8618 685.992 83.1245C684.058 78.3873 683.446 68.5827 688.538 68.0215C696.672 67.1137 706.276 76.192 702.144 64.0436C700.061 57.9364 690.968 49.8814 686.29 45.4413C675.329 35.0095 663.361 27.7798 649.061 22.8115C638.696 19.2132 626.462 15.4498 613.799 13.5351C587.696 9.59021 559.791 10.8447 542.813 18.8006C535.126 22.3989 556.749 24.231 570.635 25.1059C578.951 25.6341 592.176 26.6244 599.317 31.0315C606.542 35.4882 611.617 42.1731 606.459 48.9241C601.07 55.9721 590.457 59.8841 578.934 61.6337C566.585 63.5154 553.128 65.6777 539.854 62.3105C528.1 59.3229 511.816 61.9308 503.964 59.7355C486.523 54.8827 475.199 56.7479 467.512 59.8345C463.131 61.5842 456.634 58.448 456.171 53.7603C455.675 48.9241 461.263 43.7742 466.106 43.4936C476.703 42.8829 481.878 50.8058 497.93 46.0685C505.187 43.9227 509.155 46.2666 515.734 48.0658C527.835 51.3835 534.332 52.5884 553.558 48.4454C563.543 46.2996 577.876 50.228 585.018 49.6998C592.391 49.1551 594.474 46.1015 595.796 44.8636C598.855 41.9915 596.706 36.396 592.936 34.5473C589.167 32.6986 584.72 33.3589 580.538 33.8045C564.552 35.5542 548.169 33.623 533.01 28.242C521.719 24.2311 511.056 18.3054 499.335 15.747C487.151 13.0895 444.235 14.0138 432.878 15.0702C434.862 14.8721 429.522 17.1335 431.886 18.1403C439.755 21.4745 435.622 29.0673 432.25 29.4635C427.042 30.0577 419.24 29.8431 419.19 24.6107C419.173 21.7717 421.918 19.3948 422.91 16.9684C390.756 17.7772 374.885 16.7373 330.283 22.3494C320.943 23.5213 325.274 28.2255 336.202 29.4965C348.17 30.8665 363.528 34.7454 373.348 37.799C377.101 38.9544 381.862 41.2323 381.118 45.0947C380.605 47.7356 377.481 49.1386 374.803 48.825C372.125 48.5114 369.794 46.9764 367.446 45.6559C353.213 37.7165 338.962 36.462 320.893 41.8265C313.95 43.8897 303.668 49.3862 300.675 46.6132C297.286 43.4606 300.262 38.9379 303.767 35.9008C307.271 32.8637 311.107 28.9188 315.736 29.2159C322.299 29.645 305.916 24.165 292.674 27.8624C266.257 35.2241 241.311 49.1551 224.002 81.1603C206.694 113.166 203.42 154.678 211.455 190.15C215.307 207.134 222.018 224.268 235.128 235.739C247.576 246.633 266.968 255.959 283.483 256.949C321.274 259.211 384.11 255.596 408.213 254.061C422.893 253.137 394.492 241.45 386.871 237.77C379.084 234.023 372.786 227.024 373.431 218.589C374.092 209.891 383.3 201.572 390.904 197.297C398.525 193.022 410.213 191.454 418.876 190.249C427.985 188.978 436.895 188.07 445.921 189.803C454.948 191.536 466.255 193.797 471.033 201.654C475.794 209.511 472.537 219.514 465.181 225.027C457.212 231.002 432.994 230.54 440.268 224.928C450.087 217.335 445.74 209.016 438.813 204.576C431.886 200.136 422.017 200.449 414.065 202.562C406.692 204.51 398.707 206.573 393.864 212.466C389.003 218.358 389.251 229.632 394.773 234.897C400.294 240.163 416.876 239.849 416.611 232.24C416.528 229.748 407.568 224.449 406.13 220.851C403.964 215.437 407.552 206.342 425.935 208.471C440.764 210.188 436.052 220.702 425.621 232.554C417.223 242.094 451.79 231.827 447.971 245.115C445.954 252.113 419.62 248.762 425.703 252.79C434.035 258.286 495.582 255.398 528.447 256.916C554.286 258.105 576.653 263.634 605.947 260.927C631.703 258.551 662.055 249.456 682.653 233.825C713.782 210.237 725.42 149.578 717.485 103.163ZM465.958 29.7936C467.379 28.1925 469.859 28.242 471.992 28.4071C478.042 28.8857 484.093 29.3644 490.16 29.4965C493.549 27.2847 497.103 25.1719 501.038 24.2641C504.972 23.3562 509.436 23.8184 512.577 26.3603C515.718 28.9023 517.04 33.8045 514.825 37.1883C513.254 39.5982 510.312 40.8031 507.435 41.0342C504.559 41.2653 501.715 40.638 498.872 40.1264C491.3 38.7564 483.58 38.0796 475.877 38.1126C473.116 38.1291 470.19 38.1951 467.809 36.7756C465.445 35.3726 464.106 31.8568 465.958 29.7936ZM493.698 65.7767C496.227 64.8029 499.07 65.166 501.699 65.8097C504.327 66.4535 506.923 67.3943 509.634 67.5429C512.643 67.7079 515.602 66.9321 518.561 66.4039C521.52 65.8758 524.694 65.6447 527.438 66.8661C530.199 68.0711 532.332 71.1412 531.571 74.0462C530.745 77.1989 527.042 78.7505 523.785 78.5854C520.528 78.4203 517.47 77.0338 514.279 76.3736C508.807 75.2347 503.154 76.2415 499.814 77.0998C497.748 77.0668 495.648 77.0338 493.714 76.3241C491.78 75.6143 490.028 74.0627 489.631 72.049C489.102 69.3915 491.168 66.7506 493.698 65.7767ZM525.041 91.9057C521.123 94.6458 514.858 92.8466 514.048 87.5151C515.337 84.8577 518.842 83.5042 521.586 84.5936C524.33 85.683 525.934 89.0832 525.041 91.9057ZM609.088 233.445C608.476 241.302 600.425 246.534 592.721 248.267C577.81 251.602 560.782 248.201 545.54 247.178C523.239 245.676 502.41 251.172 480.323 247.723C477.199 247.227 473.942 246.452 471.628 244.306C469.314 242.16 468.371 238.248 470.372 235.805C472.157 233.643 475.364 233.445 478.174 233.511C490.904 233.759 508.212 234.138 520.875 235.393C536.961 236.994 551.145 238.199 570.222 238.595C572.636 238.644 575.148 238.677 577.314 237.621C579.48 236.565 581.149 234.056 580.422 231.761C579.81 229.847 577.826 228.724 575.909 228.113C564.866 224.647 557.526 233.28 545.954 233.115C541.176 233.049 528.282 230.804 523.553 230.21C512.841 228.84 505.699 231.629 495.516 228.08C491.846 226.809 488.391 224.647 486.209 221.462C484.027 218.276 483.316 213.918 485.018 210.436C487.019 206.342 493.152 200.416 497.649 199.575C523.173 194.722 546.417 196.537 568.354 199.244C570.47 199.509 572.569 200.251 574.702 200.02C576.835 199.789 579 198.65 579.81 196.669C581.282 193.022 577.496 189.374 573.842 187.888C565.031 184.306 555.096 185.61 545.689 186.98C532.695 188.862 518.148 191.14 505.038 190.166C487.151 188.829 478.571 193.253 465.759 188.202C462.717 186.997 459.378 185.115 458.816 181.897C458.37 179.305 460.039 176.697 462.304 175.344C464.569 173.99 467.297 173.693 469.925 173.693C479.183 173.677 488.11 176.961 497.285 178.232C511.006 180.114 524.876 177.473 538.696 176.582C549.673 175.872 560.733 176.268 571.627 177.77C578.785 178.76 586.34 180.461 591.448 185.561C596.259 190.364 597.697 199.195 592.606 203.685C590.159 205.83 586.82 206.573 583.613 207.134C563.229 210.766 542.218 210.898 521.785 207.514C518.611 206.986 515.321 206.375 512.196 207.184C509.072 207.993 506.162 210.667 506.278 213.885C506.377 216.576 508.576 218.837 511.072 219.86C513.585 220.867 516.362 220.884 519.057 220.851C537.837 220.686 556.6 219.53 575.264 217.418C582.422 216.609 589.812 215.684 596.672 217.847C603.5 220.009 609.65 226.298 609.088 233.445ZM611.038 77.3144C609.071 78.3708 606.724 78.4698 604.492 78.5359C594.97 78.833 585.448 79.1301 575.925 79.4272C568.519 79.6583 561.014 79.8894 554.385 76.093C553.773 72.8578 556.55 69.7877 559.675 68.7973C562.816 67.807 566.205 68.3351 569.462 68.7478C581.149 70.2664 593.052 70.2829 604.74 68.7973C606.459 68.5827 608.228 68.3351 609.931 68.6818C611.633 69.0284 613.303 70.1178 613.816 71.7684C614.493 73.9142 613.006 76.258 611.038 77.3144Z" fill="#9AC6D2" stroke="black" stroke-miterlimit="10"/>
<defs>
<linearGradient id="paint0_linear_379:8426" x1="495.219" y1="171.054" x2="495.219" y2="263.895" gradientUnits="userSpaceOnUse">
<stop stop-color="#F0C923"/>
<stop offset="0.4718" stop-color="#EFC825"/>
<stop offset="0.6415" stop-color="#EBC62C"/>
<stop offset="0.7622" stop-color="#E4C337"/>
<stop offset="0.7738" stop-color="#E3C239"/>
<stop offset="0.7965" stop-color="#DABD49"/>
<stop offset="0.8397" stop-color="#CCB660" stop-opacity="0.92"/>
<stop offset="0.8859" stop-color="#C2B171" stop-opacity="0.78"/>
<stop offset="0.9365" stop-color="#BCAE7B" stop-opacity="0.24"/>
<stop offset="1" stop-color="#BAAD7E" stop-opacity="0"/>
</linearGradient>
<linearGradient id="paint1_linear_379:8426" x1="528.108" y1="0.966652" x2="532.178" y2="117.57" gradientUnits="userSpaceOnUse">
<stop stop-color="#BAAD7E" stop-opacity="0"/>
<stop offset="0.0933" stop-color="#BFB076" stop-opacity="0.12"/>
<stop offset="0.1532" stop-color="#CDB75E"/>
<stop offset="0.2277" stop-color="#DABE48"/>
<stop offset="0.3155" stop-color="#E4C337"/>
<stop offset="0.4242" stop-color="#EBC62C"/>
<stop offset="0.5767" stop-color="#EFC825"/>
<stop offset="1" stop-color="#F0C923"/>
</linearGradient>
<linearGradient id="paint2_linear_379:8426" x1="427.432" y1="8.95693" x2="427.432" y2="35.2669" gradientUnits="userSpaceOnUse">
<stop stop-color="#BAAD7E" stop-opacity="0"/>
<stop offset="0.2882" stop-color="#C7B468" stop-opacity="0.26"/>
<stop offset="0.390625" stop-color="#D5BB50"/>
<stop offset="1" stop-color="#F0C923"/>
</linearGradient>
<linearGradient id="paint3_linear_379:8426" x1="334.57" y1="16.3735" x2="337.779" y2="56.3362" gradientUnits="userSpaceOnUse">
<stop stop-color="#BAAD7E" stop-opacity="0"/>
<stop offset="0.2748" stop-color="#D7BC4D" stop-opacity="0.73"/>
<stop offset="0.3111" stop-color="#E3C239"/>
<stop offset="0.315" stop-color="#E3C238"/>
<stop offset="0.4235" stop-color="#EAC62D"/>
<stop offset="0.576" stop-color="#EEC826"/>
<stop offset="1" stop-color="#EFC924"/>
</linearGradient>
<linearGradient id="paint4_linear_379:8426" x1="715.063" y1="69.1205" x2="678.713" y2="84.556" gradientUnits="userSpaceOnUse">
<stop stop-color="#BAAD7E" stop-opacity="0"/>
<stop offset="0.1687" stop-color="#BBAE7C" stop-opacity="0"/>
<stop offset="0.2295" stop-color="#BFB075" stop-opacity="0"/>
<stop offset="0.2728" stop-color="#C6B36A" stop-opacity="0"/>
<stop offset="0.3078" stop-color="#D0B859"/>
<stop offset="0.3375" stop-color="#DDBF43"/>
<stop offset="0.3482" stop-color="#E3C239"/>
<stop offset="0.3519" stop-color="#E3C238"/>
<stop offset="0.4546" stop-color="#EAC62D"/>
<stop offset="0.5989" stop-color="#EEC826"/>
<stop offset="1" stop-color="#EFC924"/>
</linearGradient>
</defs>
</svg>
