<svg width="734" height="274" viewBox="0 0 734 274" fill="none" xmlns="http://www.w3.org/2000/svg">
<path d="M345.096 137.941C346.517 134.491 349.328 131.438 353.08 129.589C354.833 128.632 356.734 127.955 358.718 127.493C359.743 126.073 360.966 124.769 362.173 123.449C364.504 121.089 367.182 118.976 369.496 116.582C371.612 114.404 373.398 111.499 373.563 109.468C373.794 106.679 373.431 104.913 372.736 102.668C372.34 101.496 371.976 100.605 371.53 99.8123C370.339 99.8123 369.166 99.8123 367.975 99.7958C366.19 99.7793 364.355 99.6143 362.784 98.888C360.768 97.9637 359.263 96.0655 359.577 94.0682C360.073 91.9555 362.586 91.4438 364.785 91.7739C367.132 92.137 369.199 93.3915 370.769 94.8605C371.695 95.6858 372.488 96.6102 373.15 97.584C375.365 97.6005 377.58 97.65 379.795 97.6996C382.688 97.7821 385.598 97.9306 388.491 98.0462C389.202 94.5799 391.549 91.3943 394.459 88.8853C398.278 85.7987 403.088 83.6364 408.114 82.3655C412.61 81.2431 421.372 80.5663 424.629 83.884C426.431 85.5016 428.067 87.7629 427.423 90.0903C427.158 90.8331 426.861 91.5758 426.48 92.3021C431.87 93.2925 434.812 95.2567 438.053 98.888C441.375 102.206 442.962 106.415 443.987 110.64C444.285 110.756 444.582 110.855 444.88 110.97C447.905 112.159 451.079 113.199 453.939 114.684C454.27 113.611 454.601 112.538 454.981 111.482C456.204 107.884 457.725 104.12 460.998 101.446C462.42 100.374 464.238 99.7133 466.09 99.3832C470.041 98.9045 473.711 100.786 476.422 102.981C479.844 105.573 482.059 109.023 484.423 112.307C487.085 116.038 489.978 119.653 493.268 122.987C495.566 125.38 498.426 127.807 501.715 129.919C504.146 129.111 506.675 128.533 509.204 127.972C510.014 127.79 510.808 127.608 511.618 127.427C511.006 127.146 510.395 126.882 509.799 126.635C506.691 125.314 503.517 124.093 500.426 122.739C499.583 122.376 500.261 121.32 501.087 121.65C504.873 123.284 508.774 124.72 512.56 126.387C512.626 125.727 512.692 125.067 512.775 124.406C513.502 117.952 516.941 111.317 523.686 107.735C525.372 106.893 527.157 106.101 529.059 105.655C529.24 104.517 529.555 103.411 530.001 102.321C530.613 100.836 531.307 99.3502 532.563 98.1452C533.952 96.9238 535.77 96.049 537.672 95.5538C540.614 94.91 543.656 94.778 546.681 94.712C550.946 94.679 555.212 95.0256 559.344 95.7849C564.122 96.6927 568.371 98.855 572.371 101.116C578.19 104.302 583.629 108.461 586.225 114.024C587.134 116.038 587.927 118.151 587.977 120.329C587.96 121.683 587.679 123.02 587.415 124.357C586.836 126.816 586.142 129.391 584.423 131.487C582.042 134.227 578.306 136.01 574.421 136.637C571.826 137.05 569.181 137 566.552 136.901C563.94 136.769 561.312 136.637 558.766 136.126C554.749 135.284 550.996 133.815 547.276 132.329C546.797 132.131 546.301 131.95 545.822 131.751C544.168 132.923 542.367 133.93 540.482 134.805C541.623 136.423 542.813 138.007 544.119 139.526C547.59 143.454 550.55 146.31 554.435 149.826C556.352 151.526 558.402 153.127 560.617 154.563C560.865 154.711 561.08 154.86 561.312 155.008C564.535 153.259 567.775 151.542 570.95 149.727C574.107 147.977 577.066 145.897 580.571 144.643C583.216 143.702 586.026 143.157 588.886 143.108C590.986 143.042 593.135 143.091 595.152 143.636C597.185 144.247 599.218 145.171 600.409 146.722C601.153 147.746 601.301 148.984 601.5 150.172C602.31 153.688 599.632 156.89 596.573 159.118C594.11 161.017 591.085 162.486 587.812 162.981C583.728 163.443 579.562 163.228 575.578 162.436C572.074 161.809 568.602 160.901 565.428 159.498C563.99 158.821 562.601 158.079 561.279 157.286C555.625 160.373 550.5 163.096 543.458 163.228C540.069 163.261 535.787 162.255 532.001 160.885C530.927 162.271 529.356 163.361 527.174 163.872C524.38 164.714 521.421 164.301 518.66 163.691C512.676 162.288 506.84 160.439 501.137 158.359C500.905 158.277 500.674 158.178 500.443 158.079C499.368 159.498 497.93 160.736 496.095 161.429C493.995 162.321 491.615 162.931 489.267 162.832C487.333 162.634 485.448 162.04 484.01 160.918C482.522 159.96 481.63 158.524 481.332 156.956C480.753 154.579 481.051 152.153 481.679 149.776C479.497 148.769 476.637 147.449 474.273 146.491C473.281 148.967 472.058 151.905 470.801 154.53C469.677 156.857 468.652 159.234 467.082 161.396C465.875 162.948 464.47 164.549 462.503 165.457C461.147 166.018 459.577 166.282 458.089 166.15C457.229 166.051 456.403 165.754 455.609 165.473C450.699 163.526 446.566 159.779 445.855 155.108C445.591 152.764 446.302 150.354 447.608 148.258C448.682 146.904 450.236 145.848 451.906 145.055C454.815 143.768 458.006 142.794 461.296 142.711C465.296 142.728 469.347 143.256 473.066 144.478C473.695 142.893 474.389 141.308 475.463 139.889C476.488 138.519 477.745 137.298 479.216 136.258C480.043 135.647 480.886 135.02 481.894 134.64C483.151 134.128 484.473 133.732 485.845 133.551C487.498 133.485 489.218 133.567 490.722 134.145C491.185 134.343 491.631 134.574 492.061 134.822C493.169 134.029 494.326 133.303 495.533 132.626C496.69 132.016 497.864 131.438 499.087 130.893C496.574 129.226 494.342 127.278 492.226 125.248C488.507 121.666 485.382 117.688 482.539 113.578C480.853 111.234 479.381 108.759 477.348 106.613C475.629 104.781 471.926 101.892 469.264 101.479C467.346 101.133 467.032 101.083 465.23 101.611C464.007 102.057 464.123 101.942 462.949 102.635C461.197 103.774 458.998 107.257 458.287 109.419C457.494 111.548 456.766 113.677 456.138 115.84C456.419 116.021 456.7 116.219 456.981 116.417C458.634 117.771 460.155 119.273 461.015 121.105C461.808 122.888 462.073 124.819 462.106 126.734C462.056 128.054 461.99 129.408 461.626 130.712C461.031 132.494 459.808 134.062 458.651 135.614C455.229 140.071 448.881 143.636 442.896 145.088C437.672 146.442 432.167 146.31 426.795 146.046C426.398 146.029 426.001 145.996 425.621 145.98C428.233 149.248 430.465 152.945 430.431 156.989C430.266 158.656 429.969 160.439 428.762 161.842C427.638 163.03 426.067 163.905 424.497 164.598C422.959 165.16 421.24 165.259 419.603 165.242C415.966 165.292 413.222 164.037 410.742 161.891C408.362 159.861 406.114 157.6 405.122 154.81C404.427 152.764 404.51 150.535 405.056 148.456C405.32 147.63 405.733 146.838 406.246 146.095C404.593 145.947 402.973 145.584 401.452 145.022C399.716 144.362 398.294 143.256 396.872 142.233C395.5 141.16 394.046 140.071 392.591 138.998C392.607 139.13 392.64 139.245 392.657 139.377C393.07 141.787 393.583 144.28 392.954 146.706C392.144 149.743 389.036 151.757 385.747 152.863C383.019 153.804 380.093 154.497 377.15 154.315C375.646 154.282 374.208 153.853 372.836 153.391C371.893 153.061 370.984 152.665 370.091 152.235C368.769 153.391 367.347 154.497 365.628 155.207C364.553 155.636 363.38 155.85 362.206 156.048C360.817 156.312 359.346 156.362 357.99 155.966C356.155 155.471 354.634 154.414 353.18 153.391C350.584 151.542 348.237 149.396 346.352 147.003C344.269 144.412 343.972 140.962 345.096 137.941ZM367.744 95.5373C367.595 95.4382 367.446 95.3227 367.281 95.2237C367.198 95.1741 367.116 95.1246 367.033 95.0751C367 95.0586 366.967 95.0421 366.934 95.0256C366.521 94.811 366.107 94.5964 365.661 94.4149C365.479 94.3488 365.314 94.2663 365.115 94.2003C365.082 94.1838 365.049 94.1838 365.033 94.1673C363.826 93.9362 364.09 93.9527 362.867 94.0022C362.751 94.0352 362.619 94.0682 362.52 94.1013C362.47 94.1343 362.421 94.1508 362.371 94.1838L362.355 94.2003C362.322 94.2498 362.288 94.3158 362.255 94.3653C362.239 94.3984 362.239 94.4149 362.222 94.4479C362.222 95.1411 362.239 94.9596 362.619 95.7188C362.718 95.8509 362.851 95.9994 362.933 96.0985C364.702 97.6666 366.521 97.518 369.794 97.551C369.843 97.551 369.893 97.551 369.943 97.551C369.298 96.8247 368.785 96.3791 367.744 95.5373ZM567.428 158.343C570.47 159.515 572.768 160.092 576.388 160.72C579.496 161.297 581.315 161.413 584.357 161.363C587.382 161.38 589.564 160.802 591.63 159.861C595.069 158.211 597.929 155.586 598.937 153.523C599.367 152.368 599.334 152.417 599.334 151.394C599.301 150.948 599.235 150.519 599.185 150.09C599.152 149.859 599.103 149.644 599.07 149.413C599.053 149.347 599.037 149.281 599.037 149.215C598.656 147.482 597.979 147.168 596.689 146.409C596.21 146.161 595.73 145.947 595.218 145.749C595.102 145.699 595.003 145.666 594.887 145.617C594.771 145.584 594.656 145.551 594.54 145.501C593.565 145.237 592.54 145.105 591.531 145.022C585.663 144.791 581.579 145.815 577.017 148.472C572.47 151.163 567.875 153.754 563.18 156.263C564.387 156.989 565.643 157.616 567.428 158.343ZM471.711 145.65C469.661 145.055 467.528 144.692 465.379 144.428C463.098 144.214 461.279 144.048 458.651 144.445C456.386 144.808 452.005 146.31 450.418 147.663C448.93 148.753 448.6 149.462 448.12 150.667C447.459 152.401 447.277 153.325 447.426 154.992C447.757 157.303 449.476 160.158 451.922 161.825C453.526 162.997 454.419 163.526 456.369 164.301C457.642 164.731 457.874 164.863 459.015 164.83C461.147 164.681 462.189 164.235 463.726 162.766C466.421 160.356 467.809 156.626 469.429 153.176C470.322 151.196 471.347 148.654 472.322 146.145C472.355 146.062 472.388 145.963 472.422 145.881C472.19 145.798 471.942 145.716 471.711 145.65ZM508.692 129.903C506.89 130.299 505.286 130.695 503.765 131.174C506.245 132.577 508.94 133.765 511.8 134.607C511.915 134.64 512.048 134.69 512.18 134.723C512.114 132.841 512.163 130.959 512.279 129.078C511.089 129.358 509.882 129.639 508.692 129.903ZM514.627 135.317C517.701 135.977 521.95 136.654 524.017 136.538C524.43 136.538 524.81 136.522 525.19 136.505C525.108 136.406 525.041 136.324 524.959 136.241C523.769 134.822 522.925 134.029 521.272 132.791C519.305 131.421 518.032 130.728 515.916 129.589C515.552 129.375 515.123 129.16 514.693 128.929C514.56 131.075 514.494 133.204 514.627 135.317ZM526.91 136.39C528.745 136.208 530.249 135.861 532.431 135.35C534.2 134.921 535.87 134.442 537.341 133.914C535.936 131.851 534.613 129.771 533.489 127.575C532.2 127.245 530.811 126.981 529.274 126.816C527.868 126.701 523.769 126.783 521.388 127.262C519.801 127.493 518.032 127.84 516.181 128.219C518.016 129.177 519.801 130.2 521.504 131.306C523.702 132.692 525.455 134.458 526.91 136.39ZM530.91 120.593C529.803 116.582 528.596 112.109 528.794 107.801C526.645 108.445 524.975 109.221 522.81 110.69C517.883 114.14 515.47 119.983 514.974 125.364C514.924 125.826 514.891 126.271 514.858 126.734C516.974 126.288 519.09 125.875 521.223 125.562C524.215 125.067 527.273 124.934 530.282 125.199C531.059 125.298 531.819 125.43 532.563 125.595C531.885 123.961 531.406 122.277 530.91 120.593ZM548.334 130.926C552.401 132.56 555.459 133.749 559.642 134.574C562.32 135.02 564.122 135.086 566.469 135.201C568.486 135.251 570.52 135.317 572.52 135.102C576.504 134.805 580.571 132.791 582.489 130.464C583.53 128.962 583.695 128.467 584.257 126.915C585.001 124.555 585.63 121.93 585.58 120.197C585.481 118.167 584.538 115.675 583.216 113.265C581.447 110.112 577.198 106.266 572.669 103.691C571.561 103.015 569.098 101.661 567.164 100.687C565.742 99.9279 561.675 98.3433 561.13 98.2443C558.865 97.617 556.484 97.2869 554.12 97.0228C550.583 96.6267 547.69 96.5772 543.689 96.7587C541.193 96.8578 537.886 97.3199 536.845 97.8646C534.051 99.0696 533.406 99.9444 532.233 102.569C532.216 102.585 532.216 102.618 532.2 102.635C532.1 102.882 532.001 103.114 531.902 103.361C531.687 103.873 531.538 104.418 531.406 104.946C531.373 105.078 531.357 105.21 531.34 105.325C534.613 105.127 537.936 105.639 540.945 106.695C542.515 107.273 543.97 108.049 545.26 109.006C546.499 109.947 547.557 111.069 548.582 112.175C550.897 114.668 552.732 117.606 552.765 120.858C552.814 123.515 551.723 126.222 549.74 128.318C549.012 129.111 548.235 129.853 547.392 130.547C547.706 130.679 548.02 130.811 548.334 130.926ZM545.921 129.094C546.665 128.45 547.359 127.757 548.037 127.047C549.475 125.529 550.698 122.954 550.467 120.643C550.384 117.952 548.896 115.675 546.417 113.001C545.441 112.027 544.747 111.152 543.16 110.079C541.871 109.204 539.655 108.247 538.234 107.933C535.638 107.323 533.125 107.091 531.092 107.29C531.075 107.521 531.059 107.785 531.042 108.115C530.976 110.904 531.538 114.239 532.001 116.203C532.729 119.174 533.456 122.145 534.58 125.017C534.762 125.446 534.927 125.826 535.109 126.205C535.952 126.437 536.795 126.701 537.638 126.965C540.184 127.79 542.697 128.698 545.16 129.655C545.441 129.49 545.838 129.193 545.921 129.094ZM540.333 132.643C541.391 132.115 542.416 131.52 543.408 130.893C541.358 130.117 539.275 129.358 537.176 128.681C536.862 128.582 536.531 128.467 536.217 128.368C536.845 129.474 537.523 130.514 538.349 131.818C538.647 132.263 538.944 132.725 539.259 133.171C539.457 133.088 539.639 133.006 539.821 132.923C539.242 133.171 540.102 132.758 540.333 132.643ZM534.497 159.696C536.035 160.191 539.44 161.149 542.085 161.33C541.986 161.314 542.548 161.363 542.747 161.347C543.788 161.347 544.813 161.281 545.855 161.165C550.384 160.703 554.798 158.574 559.311 156.114C556.022 153.936 553.062 151.427 550.318 148.769C546.003 144.659 541.837 140.401 538.548 135.63C536.448 136.423 534.266 137.017 532.067 137.562C530.811 137.859 529.538 138.123 528.249 138.304C528.563 138.816 528.877 139.328 529.158 139.856C529.935 141.226 530.695 142.612 531.257 144.065C531.869 145.732 532.299 147.449 532.729 149.165C533.225 151.394 533.935 153.622 533.754 155.9C533.654 157.039 533.39 158.145 532.944 159.151C533.456 159.35 533.968 159.531 534.497 159.696ZM531.522 158.623C531.753 158.046 531.935 157.418 532.067 156.742C532.547 154.183 531.671 151.592 530.993 148.703C530.613 147.251 530.232 145.798 529.687 144.379C529.075 142.893 528.282 141.457 527.488 140.038C527.306 139.773 526.959 139.179 526.546 138.519C525.174 138.651 523.785 138.701 522.413 138.618C520.363 138.568 518.363 138.238 516.379 137.875C515.866 137.793 515.371 137.694 514.858 137.578C515.205 139.74 515.569 141.308 516.478 143.784C517.321 145.765 517.801 146.475 518.941 148.258C519.851 149.644 520.809 151.031 521.967 152.285C523.025 153.407 525.289 155.438 527.439 156.692C528.083 157.055 528.761 157.402 529.439 157.715C530.117 158.046 530.811 158.343 531.522 158.623ZM483.465 157.055C483.828 158.689 485.134 159.548 486.457 160.307C487.482 160.802 487.945 160.852 489.515 161.116C489.416 161.116 489.333 161.099 489.234 161.099C489.962 161.182 490.705 161.05 491.416 160.951C492.359 160.835 492.722 160.736 494.045 160.29C496.161 159.564 497.351 158.805 498.459 157.369C493.4 155.322 488.49 153.061 483.597 150.766C483.432 151.476 483.299 152.202 483.2 152.896C482.985 154.035 483.101 155.982 483.465 157.055ZM489.598 135.63C488.656 135.3 487.598 135.201 486.093 135.218C485.465 135.218 483.63 135.696 482.39 136.241C482.936 136.027 481.828 136.489 481.663 136.637C481.249 136.901 480.853 137.182 480.472 137.463C477.778 139.46 476.389 141.226 475.182 144.098C475.05 144.445 474.901 144.824 474.736 145.204C474.868 145.253 475.017 145.319 475.149 145.369C477.464 146.326 479.745 147.35 482.01 148.406C482.192 147.828 482.39 147.234 482.605 146.673C483.961 142.579 486.821 138.965 490.457 136.043C490.176 135.861 489.879 135.729 489.598 135.63ZM485.763 144.659C485.151 145.864 484.49 147.531 483.977 149.297C488.507 151.427 492.987 153.605 497.632 155.52C498.178 155.751 498.723 155.966 499.252 156.197C500.525 154.068 500.757 152.285 500.409 149.71C500.36 148.72 499.037 144.659 498.508 143.883C497.682 142.464 496.541 141.209 495.384 139.971C494.574 139.13 493.45 138.04 492.21 137.116C489.532 139.229 487.35 141.655 485.763 144.659ZM495.88 134.64C495.136 135.086 494.409 135.564 493.714 136.043C494.938 136.967 496.029 138.024 497.07 139.097C498.31 140.417 499.583 141.771 500.393 143.339C501.302 145.022 501.831 146.855 502.261 148.687C502.922 151.443 502.658 154.414 501.137 156.956C507.039 159.234 512.841 160.967 518.991 162.453C522.066 163.096 524.248 163.41 526.893 162.585C528.463 162.172 529.637 161.429 530.48 160.389C528.877 159.746 527.405 159.052 526.166 158.359C522.711 156.312 519.817 153.605 517.734 150.519C516.429 148.621 515.156 146.673 514.279 144.593C513.337 142.15 512.692 139.592 512.362 137.017C511.039 136.67 509.717 136.291 508.444 135.828C505.782 134.871 503.302 133.584 500.938 132.181C499.252 132.841 497.616 133.633 495.88 134.64ZM388.193 100.291C383.614 100.076 379.035 99.8949 374.439 99.8453C375.514 102.14 376.076 104.649 376.258 107.108C376.373 109.221 376.043 111.35 374.968 113.298C373.051 116.896 369.662 119.702 366.471 122.525C364.768 124.06 363.346 125.463 362.123 126.915C363.181 126.8 364.239 126.734 365.297 126.701C367.992 126.618 370.72 126.767 373.348 127.245C376.456 127.955 379.498 128.879 382.275 130.233C384.523 131.273 386.672 132.412 388.755 133.666C388.408 131.141 388.309 128.549 388.937 125.826C389.83 122.277 391.996 119.042 394.905 116.351C391.053 111.532 387.863 106.2 388.193 100.291ZM390.805 101.001C390.772 103.807 391.268 105.226 392.409 107.95C393.401 110.195 394.988 112.489 396.79 114.767C398.046 113.809 399.402 112.935 400.823 112.175C403.452 110.838 406.262 109.782 409.155 108.99C408.957 108.858 408.759 108.726 408.56 108.61C407.271 107.768 405.965 106.877 405.089 105.705C404.047 104.071 403.981 102.09 404.609 100.308C400.013 100.555 395.401 100.621 390.805 100.44C390.805 100.605 390.805 100.803 390.805 101.001ZM417.57 137.562C417.636 137.512 417.719 137.479 417.785 137.43C418.446 137.033 419.124 136.621 419.802 136.192C419.355 135.961 418.909 135.713 418.479 135.449C417.173 134.607 416.099 133.551 415.09 132.478C412.858 129.969 411.883 127.476 412.131 124.753C410.924 125.974 409.635 127.146 408.279 128.252C409.486 129.54 410.709 130.827 411.966 132.082C413.751 133.914 415.652 135.713 417.57 137.562ZM417.14 140.566C415.173 141.705 413.255 142.794 411.784 143.867C411.966 143.85 412.148 143.85 412.346 143.834C414.925 143.669 417.52 143.57 420.099 143.603C419.14 142.579 418.132 141.556 417.14 140.566ZM420.248 133.782C420.562 134.013 421.223 134.343 422.017 134.706C426.282 131.702 429.886 128.153 429.605 124.522C429.291 121.831 428.712 120.478 426.58 117.952C425.588 116.748 424.381 116.12 422.645 116.203C420.628 116.219 417.421 118.877 416.016 121.039C415.305 122.079 414.743 124.291 414.71 125.298C414.743 126.783 414.71 126.734 415.206 128.021C415.669 129.094 415.867 129.556 416.909 130.827C417.851 131.801 418.578 132.659 420.248 133.782ZM412.462 120.775C412.511 120.709 412.577 120.643 412.627 120.577C412.66 120.527 412.743 120.428 412.825 120.329C413.255 119.768 413.685 119.19 413.999 118.563C414.148 118.151 414.313 117.952 414.594 116.962C414.743 116.483 414.842 115.988 414.925 115.493C414.991 114.453 414.991 114.453 414.594 113.661C414.644 113.743 414.693 113.842 414.743 113.925C414.264 112.984 413.635 112.456 413.321 112.142C412.776 111.647 412.197 111.185 411.619 110.723C408.891 111.367 406.312 112.192 404.113 113.166C401.964 114.107 399.997 115.278 398.311 116.615C399.369 117.87 400.46 119.141 401.551 120.379C403.237 122.31 404.791 124.307 406.477 126.238C406.543 126.305 406.61 126.371 406.659 126.453C408.659 124.769 410.627 122.822 412.462 120.775ZM424.811 88.5717C424.563 87.6804 424.265 87.3668 423.918 86.8386C423.058 85.7822 423.141 85.8647 421.901 84.8744C420.595 83.9665 417.454 83.6364 414.594 83.7355C410.313 83.851 405.866 85.188 402.543 86.7231C397.964 88.8358 395.203 90.8661 392.954 94.1508C391.979 95.5373 391.417 96.8082 391.103 98.1287C392.475 98.1782 393.847 98.2277 395.219 98.2443C398.79 98.2443 402.377 98.1287 405.948 97.9141C407.486 95.9994 409.965 94.6955 412.396 93.6721C414.991 92.5827 417.884 92.005 420.76 91.8399C421.736 91.8069 422.711 91.8564 423.67 91.939C423.687 91.9059 423.72 91.8564 423.736 91.8234C424.397 90.668 424.331 90.7505 424.712 89.7437C424.91 88.9349 424.91 89.4961 424.811 88.5717ZM409.866 97.6501C409.916 97.6501 409.965 97.65 410.015 97.6335C413.338 97.3034 414.975 97.1879 418.115 96.0159C418.992 95.6693 420.298 94.9431 421.438 94.1177C420.463 94.1177 419.388 94.2168 418.099 94.4314C415.652 94.844 412.197 96.0325 409.866 97.6501ZM440.912 109.551C439.722 105.755 438.681 103.213 435.953 100.39C433.721 98.0132 432.316 96.4946 428.96 95.3392C427.786 94.91 426.563 94.6129 424.877 94.3984C423.042 96.214 420.612 97.617 418 98.5084C414.677 99.6308 411.073 99.8288 407.552 100.109C406.841 101.413 406.593 102.932 407.37 104.451C407.882 105.325 410.098 106.629 412.329 108.214C413.553 107.966 414.776 107.752 416.016 107.57C420.198 106.943 424.464 106.679 428.679 106.86C432.944 107.091 436.978 108.23 440.912 109.584C440.929 109.567 440.912 109.567 440.912 109.551ZM444.897 113.496C444.781 113.446 444.665 113.413 444.533 113.364C444.897 115.394 445.111 117.457 445.31 119.521C445.409 120.593 445.492 121.666 445.558 122.756C445.525 123.399 445.773 124.093 445.541 124.703C445.475 124.852 445.392 124.984 445.293 125.083C445.674 126.238 446.698 127.262 448.6 128.516C449.013 128.846 449.641 129.028 449.906 129.457C450.154 129.82 449.955 130.282 449.558 130.514C448.633 130.91 448.352 130.381 447.575 129.969C446.153 129.044 444.781 127.955 443.987 126.569C443.756 126.156 443.607 125.71 443.524 125.265C443.194 125.083 442.946 124.802 442.946 124.39C442.731 120.164 442.367 116.005 441.59 112.274C438.4 111.119 435.639 110.244 431.969 109.518C428.431 108.891 425.852 109.006 421.769 109.237C419.455 109.369 417.074 109.65 414.743 110.063C415.851 111.02 416.776 112.043 417.256 113.116C417.686 114.041 417.686 115.031 417.537 116.021C417.801 115.823 418.066 115.642 418.347 115.46C420.529 113.958 422.893 113.529 425.522 114.305C427.472 114.965 428.745 116.45 429.836 117.886C431.225 119.752 432.068 121.897 432.283 124.109C432.614 126.734 431.275 129.276 429.456 131.372C428.101 133.022 426.447 134.442 424.645 135.746C424.91 135.845 425.174 135.928 425.422 136.01C425.538 136.043 425.753 136.109 425.902 136.159C431.242 137.727 437.11 138.139 441.342 137.281C444.797 136.67 447.393 135.053 448.616 133.699C449.988 131.851 450.418 130.761 450.947 129.061C451.658 126.618 451.741 124.109 452.22 121.65C452.501 120.098 452.848 118.547 453.262 117.028C451.03 115.807 447.657 114.536 444.897 113.496ZM442.103 142.992C445.525 142.134 447.112 141.358 449.939 139.79C452.964 138.057 455.262 136.093 456.981 133.584C458.452 131.504 459.064 130.679 459.262 128.384L459.229 128.681C459.362 127.394 459.362 126.09 459.18 124.802C459.048 124.142 458.915 122.871 458.171 121.584C457.708 120.808 457.13 120.098 456.452 119.438C456.105 119.108 455.741 118.778 455.378 118.464C455.063 119.785 454.766 121.105 454.551 122.426C454.154 124.588 454.055 126.783 453.493 128.929C453.063 130.745 452.253 132.494 451.195 134.128C445.872 141.242 432.977 140.615 424.844 138.156C424.001 137.908 423.174 137.628 422.364 137.331C421.769 137.727 421.174 138.106 420.579 138.502C420.165 138.767 419.736 139.031 419.306 139.295C420.727 140.714 422.149 142.183 423.538 143.718C430.035 143.982 436.763 144.461 442.103 142.992ZM410.858 158.854C410.246 158.277 411.635 159.581 411.833 159.762C412.577 160.406 413.354 161.033 414.181 161.594C414.908 162.057 414.76 161.974 415.123 162.156C415.52 162.354 415.95 162.519 416.38 162.651C418.545 163.195 419.14 163.129 421.455 163.014C422.893 162.931 423.703 162.618 425.604 161.38C426.811 160.654 427.307 159.696 427.654 157.27C427.869 153.804 425.422 149.826 422.133 145.947C419.19 145.864 416.247 145.881 413.305 146.079C411.916 146.145 410.511 146.277 409.122 146.31C408.676 146.888 408.296 147.531 407.75 148.505C407.734 148.538 407.717 148.555 407.717 148.588C407.519 149.066 407.403 149.578 407.32 150.09C407.304 150.205 407.271 150.436 407.254 150.519C407.238 150.634 407.238 150.733 407.221 150.849C407.023 154.299 408.081 155.982 410.858 158.854ZM395.054 137.941C397.153 139.493 399.121 141.16 401.386 142.53C401.634 142.662 402.163 142.91 402.295 142.959C403.386 143.372 403.369 143.372 404.874 143.685C405.998 143.916 406.94 143.999 407.882 144.015C409.949 141.903 412.71 140.384 415.404 138.833C413.173 136.654 409.122 132.709 406.345 129.705C405.221 130.514 404.047 131.289 402.741 131.867C400.476 132.973 398.013 133.699 395.599 134.541C394.244 135.003 393.136 135.399 392.111 135.779C393.103 136.505 394.095 137.215 395.054 137.941ZM391.45 133.584C392.244 133.287 393.054 132.989 393.88 132.725C397.567 131.421 399.914 130.844 402.857 129.177C403.469 128.797 404.097 128.384 404.725 127.939C402.609 125.529 400.642 123.003 398.509 120.61C397.831 119.834 397.137 119.042 396.459 118.25C393.285 121.353 391.351 125.083 391.202 128.78C391.086 130.381 391.219 131.999 391.45 133.584ZM376.687 152.235C378.489 152.384 380.672 152.186 383.085 151.443C385.333 150.75 386.16 150.535 388.111 149.248C389.648 148.175 390.723 146.392 390.475 143.9C390.309 141.589 389.797 139.278 389.334 136.934C388.722 137.215 388.094 137.512 387.4 137.859C383.895 139.674 380.738 141.523 378.423 143.52C375.977 145.749 374.059 148.373 371.745 150.7C373.464 151.509 374.72 151.971 376.687 152.235ZM369.397 149.545C371.811 147.185 373.761 144.511 376.225 142.2C378.589 140.12 381.399 138.453 384.242 136.852C385.168 136.357 386.11 135.878 387.053 135.432C386.077 134.838 385.119 134.293 384.209 133.831C381.763 132.593 379.316 131.355 376.638 130.497C375.91 130.282 375.167 130.068 374.423 129.886C372.819 129.424 371.133 129.177 369.447 129.044C367.264 128.813 362.586 128.995 360.205 129.49C359.181 131.306 358.635 133.171 358.685 135.003C358.85 137.875 360.487 140.252 362.735 143.256C364.95 146.029 366.785 148.026 369.397 149.545ZM347.327 143.207C347.394 143.454 347.559 144.015 347.625 144.148C347.708 144.379 347.79 144.61 347.906 144.824C347.956 144.923 348.022 145.022 348.071 145.121C348.733 146.161 349.592 147.119 350.485 148.01C351.973 149.594 355.907 152.83 358.271 153.688C359.313 154.167 361.131 154.051 362.636 153.688C364.388 153.275 364.405 153.308 365.727 152.516C366.421 152.103 367.016 151.641 367.694 151.047C367.496 150.931 367.298 150.799 367.083 150.684C365.198 149.495 363.694 147.96 362.305 146.376C360.883 144.775 359.61 143.075 358.486 141.308C356.073 137.694 355.577 134.095 357.147 130.266C356.288 130.58 355.494 130.959 354.37 131.537C351.179 133.237 349.972 134.525 348.204 137.43C347.625 138.585 347.675 138.37 347.36 139.592C347.013 141.127 347.046 141.507 347.327 143.207Z" fill="#242424"/>
</svg>
