<svg width="140" height="140" viewBox="0 0 140 140" fill="none" xmlns="http://www.w3.org/2000/svg">
<path d="M36.1557 85.4266C36.2491 85.3579 37.2225 85.9547 37.3896 87.0266C37.4997 87.7329 37.2212 88.3631 37.0822 88.646C36.8214 89.1766 36.435 89.6769 35.944 90.0892C35.4581 90.5037 34.8695 90.8494 34.1945 91.0207C33.86 91.1133 33.4944 91.1346 33.1512 91.1054C32.8021 91.0777 32.4941 90.9694 32.2125 90.843C31.6584 90.5742 31.2527 90.1903 30.9171 89.7859C30.7489 89.5828 30.6018 89.3702 30.4653 89.156C30.3969 89.0471 30.3339 88.9448 30.2724 88.8361L30.0872 88.4749C29.6383 87.484 29.5508 86.3694 29.6432 85.2916C29.7384 84.2079 30.0171 83.1427 30.3752 82.1079C30.7286 81.0696 31.1869 80.0643 31.6884 79.0788C32.1922 78.0938 32.743 77.1288 33.346 76.1894C34.545 74.3068 35.8882 72.498 37.3728 70.7651C38.1427 69.8694 38.992 69.0065 39.8644 68.2167C40.7408 67.4269 41.6413 66.685 42.5503 65.9671C46.2035 63.1297 49.9826 60.6433 53.7501 58.1506L59.43 54.4663C61.3401 53.2508 63.2566 52.0385 65.2124 50.8663C67.1723 49.6993 69.1471 48.5407 71.2556 47.4975C72.3079 46.9789 73.4114 46.4772 74.5384 46.0719C75.6561 45.6693 76.7462 45.3349 77.8644 45.0237C80.1004 44.4012 82.2987 44.0355 84.3773 43.5426C84.7557 43.453 87.4985 42.7914 90.6041 41.6343C95.378 39.8556 97.877 38.0728 98.0259 38.3012C98.205 38.5755 94.7311 41.3508 91.1327 43.1002C89.6555 43.8184 87.9712 44.4827 87.9712 44.4827C86.9015 44.9114 85.8078 45.2896 84.7127 45.6345C83.6179 45.9818 82.5228 46.2731 81.4622 46.5675C80.3999 46.8612 79.3682 47.1668 78.3482 47.5025C77.3354 47.8399 76.3048 48.2151 75.3321 48.6224C74.3653 49.0199 73.4306 49.4847 72.4821 49.9998C70.5932 51.0391 68.6965 52.1999 66.8192 53.3954C64.9392 54.5902 63.0589 55.8055 61.1913 57.0441L55.5533 60.7462C53.6704 61.9725 51.7971 63.2062 49.9461 64.4496C48.0916 65.6862 46.2617 66.9457 44.5133 68.2419C43.642 68.8914 42.7925 69.5537 41.9888 70.2378C41.1901 70.9294 40.4427 71.6194 39.7448 72.3696C38.3042 73.9332 36.9477 75.5749 35.7294 77.2732C34.5123 78.9698 33.4211 80.7311 32.6225 82.5247C32.2219 83.4205 31.9156 84.3252 31.7413 85.2105C31.5681 86.0949 31.5594 86.9556 31.7861 87.7158C32.0432 88.4907 32.4643 89.3072 33.0723 89.708C33.3802 89.905 33.7063 89.9946 34.1126 89.9351C34.5173 89.8752 34.9712 89.6963 35.371 89.4263C36.0656 88.9573 36.7916 88.0527 36.8381 87.1219C36.8913 86.0792 36.0669 85.492 36.1557 85.4266Z" fill="#EEE197" stroke="#756B5E" stroke-width="0.161022" stroke-miterlimit="10"/>
<path d="M36.1557 85.4266C36.2491 85.3579 37.2225 85.9547 37.3896 87.0266C37.4997 87.7329 37.2212 88.3631 37.0822 88.646C36.8214 89.1766 36.435 89.6769 35.944 90.0892C35.4581 90.5037 34.8695 90.8494 34.1945 91.0207C33.86 91.1133 33.4944 91.1346 33.1512 91.1054C32.8021 91.0777 32.4941 90.9694 32.2125 90.843C31.6584 90.5742 31.2527 90.1903 30.9171 89.7859C30.7489 89.5828 30.6018 89.3702 30.4653 89.156C30.3969 89.0471 30.3339 88.9448 30.2724 88.8361L30.0872 88.4749C29.6383 87.484 29.5508 86.3694 29.6432 85.2916C29.7384 84.2079 30.0171 83.1427 30.3752 82.1079C30.7286 81.0696 31.1869 80.0643 31.6884 79.0788C32.1922 78.0938 32.743 77.1288 33.346 76.1894C34.545 74.3068 35.8882 72.498 37.3728 70.7651C38.1427 69.8694 38.992 69.0065 39.8644 68.2167C40.7408 67.4269 41.6413 66.685 42.5503 65.9671C46.2035 63.1297 49.9826 60.6433 53.7501 58.1506L59.43 54.4663C61.3401 53.2508 63.2566 52.0385 65.2124 50.8663C67.1723 49.6993 69.1471 48.5407 71.2556 47.4975C72.3079 46.9789 73.4114 46.4772 74.5384 46.0719C75.6561 45.6693 76.7462 45.3349 77.8644 45.0237C80.1004 44.4012 82.2987 44.0355 84.3773 43.5426C84.7557 43.453 87.4985 42.7914 90.6041 41.6343C95.378 39.8556 97.877 38.0728 98.0259 38.3012C98.205 38.5755 94.7311 41.3508 91.1327 43.1002C89.6555 43.8184 87.9712 44.4827 87.9712 44.4827C86.9015 44.9114 85.8078 45.2896 84.7127 45.6345C83.6179 45.9818 82.5228 46.2731 81.4622 46.5675C80.3999 46.8612 79.3682 47.1668 78.3482 47.5025C77.3354 47.8399 76.3048 48.2151 75.3321 48.6224C74.3653 49.0199 73.4306 49.4847 72.4821 49.9998C70.5932 51.0391 68.6965 52.1999 66.8192 53.3954C64.9392 54.5902 63.0589 55.8055 61.1913 57.0441L55.5533 60.7462C53.6704 61.9725 51.7971 63.2062 49.9461 64.4496C48.0916 65.6862 46.2617 66.9457 44.5133 68.2419C43.642 68.8914 42.7925 69.5537 41.9888 70.2378C41.1901 70.9294 40.4427 71.6194 39.7448 72.3696C38.3042 73.9332 36.9477 75.5749 35.7294 77.2732C34.5123 78.9698 33.4211 80.7311 32.6225 82.5247C32.2219 83.4205 31.9156 84.3252 31.7413 85.2105C31.5681 86.0949 31.5594 86.9556 31.7861 87.7158C32.0432 88.4907 32.4643 89.3072 33.0723 89.708C33.3802 89.905 33.7063 89.9946 34.1126 89.9351C34.5173 89.8752 34.9712 89.6963 35.371 89.4263C36.0656 88.9573 36.7916 88.0527 36.8381 87.1219C36.8913 86.0792 36.0669 85.492 36.1557 85.4266Z" fill="url(#paint0_linear_4819_340958)"/>
<path d="M36.1558 85.4273C36.2492 85.3585 37.2227 85.9553 37.3898 87.0272C37.495 87.7029 37.2562 88.2648 37.0824 88.6467C36.7415 89.3966 36.2355 89.8598 35.9441 90.0898C36.1941 89.8677 36.6027 89.4406 36.8379 88.7793C36.9084 88.5809 37.036 88.1577 36.9554 88.1189C36.8365 88.0614 36.5092 88.9566 35.6361 89.6929C35.2967 89.9792 34.616 90.5531 33.6952 90.5159C33.1011 90.492 32.6731 90.224 32.4637 90.0897C31.4783 89.4568 31.1689 88.3951 31.0287 87.9144C30.7257 86.875 30.8454 86.0192 30.9784 85.1387C31.1824 83.7859 31.5871 82.7902 31.8504 82.1685C32.5656 80.4808 33.2541 78.8568 34.5907 76.7469C36.2258 74.1662 37.8292 72.44 38.7445 71.4642C39.7635 70.3779 40.6311 69.5843 41.0198 69.2354C42.1631 68.2095 43.0953 67.5034 43.5737 67.1441C48.0436 63.7885 54.6238 59.3513 54.6238 59.3513C55.8079 58.5527 57.7674 57.2354 60.2558 55.5908C62.814 53.9004 64.3286 52.9234 65.8517 51.9642C68.7772 50.1222 70.1047 49.3722 71.5144 48.665C73.0171 47.9111 74.0992 47.464 74.9198 47.1528C76.1275 46.695 77.115 46.4004 78.1372 46.1147C81.5632 45.1573 82.6973 45.0478 84.8501 44.4717C85.3518 44.3373 88.0952 43.592 91.1746 42.205C95.5318 40.2425 97.9381 38.1779 98.0262 38.3021C98.1287 38.4466 94.8997 41.2699 91.133 43.1011C89.6558 43.8193 87.9715 44.4836 87.9715 44.4836C86.9018 44.9123 85.8081 45.2905 84.713 45.6354C83.6182 45.9827 82.5231 46.274 81.4625 46.5684C80.4002 46.8621 79.3685 47.1677 78.3485 47.5034C77.3357 47.8408 76.3051 48.216 75.3324 48.6233C74.3656 49.0209 73.431 49.4856 72.4824 50.0007C70.5935 51.04 68.6968 52.2008 66.8195 53.3963C64.9395 54.5911 63.0592 55.8064 61.1916 57.045L55.5536 60.7471C53.6708 61.9735 51.7974 63.2071 49.9464 64.4505C48.0919 65.6871 46.262 66.9466 44.5136 68.2428C43.6423 68.8923 42.7928 69.5546 41.9891 70.2387C41.1904 70.9303 40.443 71.6204 39.7454 72.3703C38.3047 73.9339 36.9483 75.5757 35.7299 77.274C34.5129 78.9706 33.4216 80.7319 32.623 82.5255C32.2225 83.4212 31.9161 84.326 31.7419 85.2113C31.5687 86.0957 31.5599 86.9564 31.7866 87.7166C32.0437 88.4915 32.4648 89.308 33.0728 89.7088C33.3807 89.9058 33.7069 89.9954 34.1131 89.9359C34.5178 89.876 34.9718 89.697 35.3716 89.4271C36.0662 88.9581 36.7922 88.0535 36.8387 87.1227C36.8914 86.0799 36.0671 85.4926 36.1558 85.4273Z" fill="url(#paint1_linear_4819_340958)"/>
<path d="M24.2997 116.723C24.1602 116.449 26.8692 115.136 31.2851 111.884C31.9194 111.417 34.8068 109.26 38.3467 106.066C40.6065 104.027 42.7717 101.921 44.7742 99.6519C46.7832 97.3904 48.6748 94.9966 50.5961 92.5928C52.5029 90.1781 54.442 87.7664 56.4034 85.3723C57.3838 84.1743 58.3762 82.9861 59.3809 81.8079C60.377 80.6222 61.3923 79.4537 62.4042 78.2818C64.44 75.9483 66.5124 73.6469 68.5713 71.3578C72.7259 66.7942 76.8501 62.2081 81.3263 57.8281C83.5969 55.6684 85.9238 53.4949 88.7658 51.7513C89.4682 51.3198 90.147 50.9618 90.8385 50.5642C91.5334 50.1909 92.2316 49.8249 92.933 49.4672C94.3448 48.7773 95.7645 48.113 97.1834 47.4876L101.408 45.6205C102.79 44.9854 104.168 44.3487 105.494 43.6506C106.171 43.3169 106.81 42.932 107.465 42.566C107.793 42.3837 108.099 42.1723 108.418 41.9769C108.731 41.773 109.059 41.5882 109.361 41.3686C109.964 40.9306 110.598 40.5272 111.172 40.047L112.054 39.3499C112.283 39.1559 112.572 38.9064 112.902 38.6109C117.723 34.289 119.782 30.3305 119.978 30.4491C120.187 30.5752 118.47 35.4286 114.194 39.9689C111.507 42.8225 108.759 44.5878 106.726 45.8294C104.022 47.4811 101.187 48.7964 98.46 50.1803C95.7323 51.5555 93.053 52.9907 90.5612 54.5998C88.1925 56.174 86.0031 58.2608 83.8734 60.4032C81.7477 62.5646 79.6634 64.8096 77.6 67.0809C75.5263 69.3443 73.4645 71.6294 71.4029 73.9181C67.2525 78.4799 63.1702 83.0346 59.1697 87.6967L53.1883 94.7254C51.1924 97.0802 49.1461 99.4347 46.9443 101.677C44.7454 103.919 42.4125 106.044 39.9525 107.97C37.2836 110.06 35.301 111.734 32.3521 113.414C28.4178 115.654 24.4637 117.046 24.2997 116.723Z" fill="#EEE197" stroke="#756B5E" stroke-width="0.161022" stroke-miterlimit="10"/>
<path d="M24.2997 116.723C24.1602 116.449 26.8692 115.136 31.2851 111.884C31.9194 111.417 34.8068 109.26 38.3467 106.066C40.6065 104.027 42.7717 101.921 44.7742 99.6519C46.7832 97.3904 48.6748 94.9966 50.5961 92.5928C52.5029 90.1781 54.442 87.7664 56.4034 85.3723C57.3838 84.1743 58.3762 82.9861 59.3809 81.8079C60.377 80.6222 61.3923 79.4537 62.4042 78.2818C64.44 75.9483 66.5124 73.6469 68.5713 71.3578C72.7259 66.7942 76.8501 62.2081 81.3263 57.8281C83.5969 55.6684 85.9238 53.4949 88.7658 51.7513C89.4682 51.3198 90.147 50.9618 90.8385 50.5642C91.5334 50.1909 92.2316 49.8249 92.933 49.4672C94.3448 48.7773 95.7645 48.113 97.1834 47.4876L101.408 45.6205C102.79 44.9854 104.168 44.3487 105.494 43.6506C106.171 43.3169 106.81 42.932 107.465 42.566C107.793 42.3837 108.099 42.1723 108.418 41.9769C108.731 41.773 109.059 41.5882 109.361 41.3686C109.964 40.9306 110.598 40.5272 111.172 40.047L112.054 39.3499C112.283 39.1559 112.572 38.9064 112.902 38.6109C117.723 34.289 119.782 30.3305 119.978 30.4491C120.187 30.5752 118.47 35.4286 114.194 39.9689C111.507 42.8225 108.759 44.5878 106.726 45.8294C104.022 47.4811 101.187 48.7964 98.46 50.1803C95.7323 51.5555 93.053 52.9907 90.5612 54.5998C88.1925 56.174 86.0031 58.2608 83.8734 60.4032C81.7477 62.5646 79.6634 64.8096 77.6 67.0809C75.5263 69.3443 73.4645 71.6294 71.4029 73.9181C67.2525 78.4799 63.1702 83.0346 59.1697 87.6967L53.1883 94.7254C51.1924 97.0802 49.1461 99.4347 46.9443 101.677C44.7454 103.919 42.4125 106.044 39.9525 107.97C37.2836 110.06 35.301 111.734 32.3521 113.414C28.4178 115.654 24.4637 117.046 24.2997 116.723Z" fill="url(#paint2_linear_4819_340958)"/>
<path d="M24.2995 116.724C24.2364 116.578 27.4752 115.451 31.7738 112.701C34.6823 110.84 36.6918 109.122 39.2335 106.95C41.2344 105.239 43.4138 103.365 45.9684 100.617C47.277 99.2096 48.7743 97.3315 51.7158 93.6329C55.4798 88.8997 57.1434 86.8037 57.5095 86.344C61.2247 81.6801 61.9792 81.3483 69.8767 72.5915C74.5665 67.3915 77.3506 64.1266 82.4034 59.0419C84.7066 56.7238 86.6384 54.876 89.5091 52.9601C92.1335 51.2084 94.4962 50.0985 97.8573 48.5193C102.926 46.1378 103.24 46.4229 106.087 44.8212C107.584 43.9786 110.666 42.2188 113.685 39.249C118.166 34.8399 119.849 30.3781 119.978 30.4501C120.112 30.5249 118.47 35.4291 114.194 39.97C111.506 42.8236 108.758 44.5888 106.726 45.8304C104.021 47.4821 101.187 48.7975 98.4597 50.1814C95.732 51.5565 93.0527 52.9917 90.5609 54.6009C88.1921 56.175 86.0028 58.2619 83.873 60.4043C81.7474 62.5657 79.6631 64.8106 77.5996 67.0819C75.526 69.3453 73.4642 71.6305 71.4026 73.9192C67.2519 78.4811 63.1699 83.0356 59.1694 87.6978L53.188 94.7264C51.1921 97.0813 49.1457 99.4357 46.944 101.678C44.7451 103.92 42.4121 106.045 39.9522 107.971C37.2833 110.061 35.3007 111.735 32.3517 113.415C28.1671 115.797 24.3668 116.88 24.2995 116.724Z" fill="url(#paint3_linear_4819_340958)"/>
<defs>
<linearGradient id="paint0_linear_4819_340958" x1="99.8095" y1="132.566" x2="53.5631" y2="43.0923" gradientUnits="userSpaceOnUse">
<stop stop-color="#867733"/>
<stop offset="1" stop-color="#867733" stop-opacity="0"/>
</linearGradient>
<linearGradient id="paint1_linear_4819_340958" x1="86.5476" y1="103.767" x2="45.373" y2="28.0183" gradientUnits="userSpaceOnUse">
<stop stop-color="#867733"/>
<stop offset="1" stop-color="#867733" stop-opacity="0"/>
</linearGradient>
<linearGradient id="paint2_linear_4819_340958" x1="142.713" y1="132.388" x2="59.6322" y2="63.137" gradientUnits="userSpaceOnUse">
<stop stop-color="#867733"/>
<stop offset="1" stop-color="#867733" stop-opacity="0"/>
</linearGradient>
<linearGradient id="paint3_linear_4819_340958" x1="155.953" y1="105.795" x2="47.9853" y2="64.2658" gradientUnits="userSpaceOnUse">
<stop stop-color="#867733"/>
<stop offset="1" stop-color="#867733" stop-opacity="0"/>
</linearGradient>
</defs>
</svg>
