<svg width="140" height="140" viewBox="0 0 140 140" fill="none" xmlns="http://www.w3.org/2000/svg">
<path d="M103.169 105.966C91.2337 120.092 61.6523 122.161 42.7188 107.187C27.6482 95.2669 23.3795 75.7629 25.8421 60.6249C26.4577 56.8391 28.7084 44.1221 39.1424 34.4622C55.677 19.155 84.4 19.2685 100.421 35.5353C110.455 45.7219 112.336 59.0232 112.731 65.0826C112.801 66.1517 112.825 66.9341 112.842 67.6778C112.897 70.2003 113.41 93.8454 103.169 105.966Z" fill="#EEE197" stroke="#756B5E" stroke-width="0.241928" stroke-miterlimit="10"/>
<path d="M100.423 35.5366C94.4544 30.5165 88.0763 28.3603 85.1045 27.5231C79.0268 25.8119 72.2747 25.1121 65.7424 25.575C65.5444 28.5952 65.7652 31.6792 66.4177 34.6556C67.087 37.7097 68.0289 41.0474 71.6391 42.7994C73.1728 43.544 73.1648 43.4724 74.1822 42.4849C75.1808 41.5163 76.422 40.7458 77.9666 40.3546C81.911 39.3541 86.2045 41.3003 86.8002 44.4758C87.0857 45.9959 86.5248 47.6633 85.5073 48.9783C84.9663 49.6771 83.734 50.2923 83.3641 51.0329C82.8071 52.1528 84.1915 54.0153 84.8857 54.969C85.9867 56.4831 87.2866 57.8996 88.0504 59.5461C89.3632 62.3722 88.1499 65.5328 84.3238 66.5571C80.5971 67.5546 76.603 70.4732 74.778 73.1351C73.6412 74.7936 73.3766 76.6222 74.1574 78.4091C74.8257 79.9391 76.0043 81.6493 78.3216 81.7648C82.0572 81.9499 85.8415 79.6076 88.8133 78.1453C89.412 77.8506 90.1271 78.0089 90.6343 78.3265C93.8487 80.3413 95.9343 83.0071 95.629 86.2742C95.3754 88.9889 93.7254 91.5442 93.6757 94.2658C93.6061 98.0446 97.284 99.8344 101.38 101.386C104.243 98.6976 113.308 89.4915 115.191 74.5377C117.156 58.9339 110.435 43.9572 100.423 35.5366Z" fill="url(#paint0_linear_4819_341097)"/>
<path d="M81.2108 100.929C80.8418 99.9848 80.1039 98.0417 78.7125 95.4037C77.7508 93.579 76.5702 91.8399 74.9033 90.3965C72.1136 94.3714 63.1625 95.1429 58.0822 95.1956C53.177 95.2454 48.5255 93.8806 43.6601 93.6337C39.9991 93.4486 36.0656 94.5734 32.3877 94.3654C32.9596 95.8506 33.8736 97.9222 35.2958 100.196C43.2722 112.948 57.3005 116.126 60.0137 116.74C76.596 120.497 89.8476 112.169 92.7826 110.221C85.025 107.124 82.2631 103.626 81.2108 100.929Z" fill="url(#paint1_linear_4819_341097)"/>
<path d="M37.0839 82.9041C37.4191 82.8474 38.4186 82.7788 39.5455 82.1476C40.3938 81.6728 40.9915 80.969 41.8876 80.522C43.5416 79.6978 45.5934 80.0342 46.6526 81.3413C47.5895 82.497 47.5427 83.9056 48.0738 85.1659C48.5611 86.3226 49.1838 86.1464 50.3693 85.5172C53.2466 83.9912 55.7787 81.3801 57.3233 78.989C58.2811 77.5068 58.0145 75.9499 57.1592 74.4647C55.9697 72.3971 54.6618 70.453 54.1526 68.1962C53.3112 64.4653 55.2606 61.4609 57.7301 58.3591C58.5575 57.3198 59.395 56.2855 60.2274 55.2492C60.6481 54.7256 61.6327 53.8218 61.6188 53.1658C61.6019 52.3684 59.5521 51.4476 58.8479 50.9379C58.0672 50.3725 57.1055 49.7802 56.8091 48.952C56.5863 48.3288 57.006 47.4498 56.6231 46.8864C56.1487 46.1905 54.7165 46.4175 53.8851 46.3429C52.9323 46.2573 52.071 46.0393 51.334 45.5525C47.4323 42.9732 51.0883 39.3089 52.2848 36.5117C52.5692 35.8457 52.6279 35.2903 52.4897 34.8124C52.1406 33.6119 50.7184 33.0972 49.878 32.7498C48.407 32.1416 46.4318 31.0655 44.1562 29.002C41.7037 30.5559 27.6295 39.8057 23.878 58.5771C20.9481 73.2352 26.0801 84.8513 27.8026 88.3802C33.1862 84.258 35.7442 83.1291 37.0839 82.9041Z" fill="url(#paint2_linear_4819_341097)"/>
<path d="M33.1887 93.6767C33.3906 94.1694 33.6303 94.6363 33.8829 95.1161C34.1355 95.596 34.413 96.0628 34.6905 96.5426C34.968 97.0095 35.2584 97.4893 35.5736 97.9442C35.5736 97.9571 35.5866 97.9572 35.5866 97.9691C35.9019 98.4111 36.2042 98.8531 36.5453 99.2822C36.8735 99.7112 37.2137 100.128 37.5667 100.519C37.6045 100.582 37.6672 100.658 37.7179 100.709C38.0581 101.1 38.4111 101.466 38.7652 101.82C39.169 102.224 39.5847 102.615 40.0134 103.006C40.455 103.397 40.9214 103.764 41.3879 104.117C38.3226 101.706 35.4971 98.0696 33.1887 93.6767ZM33.1887 93.6767C33.3906 94.1694 33.6303 94.6363 33.8829 95.1161C34.1355 95.596 34.413 96.0628 34.6905 96.5426C34.968 97.0095 35.2584 97.4893 35.5736 97.9442C35.5736 97.9571 35.5866 97.9572 35.5866 97.9691C35.9019 98.4111 36.2042 98.8531 36.5453 99.2822C36.8735 99.7112 37.2137 100.128 37.5667 100.519C37.6045 100.582 37.6672 100.658 37.7179 100.709C38.0581 101.1 38.4111 101.466 38.7652 101.82C39.169 102.224 39.5847 102.615 40.0134 103.006C40.455 103.397 40.9214 103.764 41.3879 104.117C38.3226 101.706 35.4971 98.0696 33.1887 93.6767ZM33.1887 93.6767C33.3906 94.1694 33.6303 94.6363 33.8829 95.1161C34.1355 95.596 34.413 96.0628 34.6905 96.5426C34.968 97.0095 35.2584 97.4893 35.5736 97.9442C35.5736 97.9571 35.5866 97.9572 35.5866 97.9691C35.9019 98.4111 36.2042 98.8531 36.5453 99.2822C36.8735 99.7112 37.2137 100.128 37.5667 100.519C37.6045 100.582 37.6672 100.658 37.7179 100.709C38.0581 101.1 38.4111 101.466 38.7652 101.82C39.169 102.224 39.5847 102.615 40.0134 103.006C40.455 103.397 40.9214 103.764 41.3879 104.117C38.3226 101.706 35.4971 98.0696 33.1887 93.6767ZM117.341 54.2903V54.2773C116.395 51.3357 115.134 48.2428 113.443 45.1629C112.182 42.8783 110.719 40.5927 108.928 38.3708C107.843 37.02 106.657 35.6691 105.371 34.382C103.227 32.2358 100.894 30.2787 98.3714 28.5247C97.161 27.6915 95.9248 26.9091 94.6507 26.1645C91.0434 24.0939 87.1587 22.4275 83.1098 21.229C83.0969 21.216 83.085 21.216 83.072 21.229C79.4896 20.1558 75.8326 19.474 72.0861 19.1962C67.9994 18.9056 63.863 19.0957 59.7763 19.8403C55.8916 20.5471 52.0576 21.7466 48.324 23.4887C47.0121 24.1069 45.7759 24.7509 44.5903 25.4577C42.4839 26.6951 40.5544 28.0578 38.789 29.5102C37.2753 30.7346 35.9008 32.0228 34.6268 33.3477C33.9207 34.0674 33.2772 34.8121 32.6467 35.5447C32.6467 35.5577 32.6218 35.5576 32.6218 35.5696C32.4199 35.8224 32.218 36.0743 32.0042 36.3272C31.6004 36.8448 31.1966 37.3624 30.8186 37.8671C30.377 38.4475 29.9613 39.0408 29.5705 39.6092C29.5078 39.6719 29.4819 39.7097 29.4571 39.7734C27.1238 43.1948 25.3963 46.5904 24.1342 49.5827C22.0535 54.4804 21.233 58.3189 21.0062 59.404V59.4288C20.0475 64.1503 19.7829 69.036 20.1738 73.858C20.325 76.1048 20.6532 78.3525 21.1196 80.5615C21.599 82.8461 22.2166 85.1057 22.9994 87.3027V87.3157C25.3833 94.0947 29.1547 100.419 34.2747 105.722C35.8004 107.288 37.4156 108.777 39.168 110.153C42.7624 112.981 46.6601 115.214 50.7587 116.894C63.863 122.335 78.8342 122.07 91.3458 116.856C96.5424 114.697 101.335 111.693 105.371 107.893C106.254 107.073 107.074 106.214 107.844 105.355C108.02 105.153 108.197 104.951 108.374 104.749C108.727 104.345 109.067 103.929 109.395 103.512C109.446 103.449 109.509 103.385 109.559 103.31C109.661 103.171 109.774 103.032 109.875 102.894C110.026 102.705 110.177 102.502 110.316 102.313C110.493 102.098 110.656 101.871 110.808 101.644C111.01 101.354 111.199 101.076 111.388 100.786C111.577 100.533 111.741 100.282 111.905 100.029C112.347 99.3727 112.751 98.7028 113.116 98.0468C113.305 97.7183 113.507 97.3649 113.684 97.0364C113.91 96.6581 114.112 96.2788 114.289 95.8876C114.466 95.5213 114.642 95.1679 114.82 94.8145C114.997 94.4482 115.16 94.0948 115.324 93.7414C115.79 92.6812 116.207 91.633 116.61 90.5977C116.749 90.2314 116.874 89.878 116.988 89.5246C117.101 89.1712 117.214 88.8298 117.328 88.4893C117.492 87.9846 117.643 87.479 117.794 86.9743C118.753 83.6544 119.282 80.6113 119.585 78.1624C119.61 77.9225 119.623 77.6826 119.661 77.4427C119.674 77.3163 119.686 77.1899 119.699 77.0764C119.75 76.5717 119.787 76.0918 119.825 75.6498C119.863 75.2079 119.888 74.8037 119.901 74.4384C119.951 73.7067 119.963 73.1254 119.976 72.7212C120.052 70.3222 120.116 62.9498 117.341 54.2903ZM109.785 88.0085C109.608 89.1702 109.293 90.319 108.89 91.4419C108.89 91.4548 108.877 91.4668 108.877 91.4797C108.839 91.5424 108.826 91.6191 108.788 91.6818C108.788 91.6947 108.764 91.6947 108.764 91.7066C108.788 91.7196 108.764 91.7316 108.764 91.7445C106.115 98.5236 99.3043 104.494 91.1946 108.433C91.1817 108.433 91.1817 108.446 91.1697 108.446C86.4525 110.769 81.3067 112.385 76.2871 113.092C75.9092 113.143 75.5302 113.193 75.1523 113.243C74.8619 113.281 74.5844 113.306 74.307 113.332C73.8027 113.37 73.3104 113.408 72.7932 113.433C71.9478 113.483 71.1283 113.495 70.3207 113.495C69.6653 113.495 69.0337 113.482 68.4032 113.445C67.7726 113.42 67.155 113.394 66.5493 113.331C65.9317 113.306 65.326 113.242 64.7332 113.155C64.1276 113.092 63.5597 113.015 62.9798 112.928V112.915C58.1363 112.182 53.9622 110.807 50.6443 109.368C50.6194 109.368 50.6194 109.355 50.6065 109.355C50.0515 109.115 49.5214 108.862 49.0042 108.623H48.9913C48.2344 108.269 47.5412 107.916 46.8977 107.574C46.5695 107.423 46.2801 107.246 45.9897 107.094C45.6873 106.918 45.3969 106.754 45.1324 106.59C44.8678 106.451 44.6152 106.299 44.3755 106.148C44.2363 106.059 44.0851 105.972 43.9469 105.883C43.379 105.53 42.9125 105.227 42.5843 104.987C42.5336 104.974 42.3695 104.849 42.1805 104.722C41.9657 104.571 41.7519 104.407 41.55 104.255C41.4873 104.218 41.4366 104.18 41.3859 104.116C38.3206 101.705 35.4961 98.0697 33.1877 93.6757C33.1748 93.6628 33.1499 93.6508 33.1499 93.6378C32.4437 92.3119 31.7873 90.8984 31.1826 89.4341C30.93 88.8408 30.6903 88.2604 30.4765 87.6412C30.4636 87.6163 30.4636 87.6163 30.4636 87.6033V87.5904C28.4327 82.2129 27.1089 76.1526 26.7807 69.9549C26.5032 64.6152 26.9697 59.161 28.4078 53.9986C29.0761 51.5497 29.9464 49.1766 31.0693 46.9039C31.8769 45.2754 32.7849 43.6727 33.8441 42.1576C33.9575 42.0182 34.0589 41.8669 34.1594 41.7156C34.6139 41.0844 35.0803 40.4663 35.5975 39.86C35.7994 39.6201 36.0013 39.3802 36.2151 39.1403C36.593 38.6605 36.9969 38.2185 37.4514 37.7646C37.5648 37.664 37.7159 37.4998 37.9437 37.2977C39.8105 35.4044 41.8155 33.8514 43.8335 32.5514C53.4062 26.4163 63.8372 25.9614 67.0655 25.8609C68.1755 25.8101 69.2854 25.8101 70.3575 25.8609H70.4082C83.8149 26.3028 93.2872 32.1094 98.0173 35.7956L98.0303 35.8085C98.9761 36.5283 99.7081 37.1972 100.275 37.6899V37.7148C100.666 38.0682 100.994 38.3708 101.183 38.5609C101.321 38.6993 101.461 38.8387 101.625 39.0159C101.687 39.0786 101.738 39.1423 101.801 39.205L101.978 39.3822C102.003 39.4071 102.053 39.4449 102.079 39.4957C102.294 39.6978 102.508 39.9248 102.723 40.1776C104.248 41.8689 106.002 44.1664 107.326 47.095C107.944 48.4459 108.461 49.9102 108.827 51.5259C109.52 54.568 109.369 56.8406 108.991 59.4408C108.625 61.9782 108.033 64.7934 107.844 68.9594C107.819 69.4641 107.793 69.9439 107.793 70.4107C107.655 77.4048 109.054 80.3206 109.673 83.3508C109.697 83.4772 109.723 83.6285 109.748 83.7549V83.7798C109.962 85.0291 110.038 86.3421 109.785 88.0085ZM33.1887 93.6767C33.3906 94.1694 33.6303 94.6363 33.8829 95.1161C34.1355 95.596 34.413 96.0628 34.6905 96.5426C34.968 97.0095 35.2584 97.4893 35.5736 97.9442C35.5736 97.9571 35.5866 97.9572 35.5866 97.9691C35.9019 98.4111 36.2042 98.8531 36.5453 99.2822C36.8735 99.7112 37.2137 100.128 37.5667 100.519C37.6045 100.582 37.6672 100.658 37.7179 100.709C38.0581 101.1 38.4111 101.466 38.7652 101.82C39.169 102.224 39.5847 102.615 40.0134 103.006C40.455 103.397 40.9214 103.764 41.3879 104.117C38.3226 101.706 35.4971 98.0696 33.1887 93.6767ZM33.1887 93.6767C33.3906 94.1694 33.6303 94.6363 33.8829 95.1161C34.1355 95.596 34.413 96.0628 34.6905 96.5426C34.968 97.0095 35.2584 97.4893 35.5736 97.9442C35.5736 97.9571 35.5866 97.9572 35.5866 97.9691C35.9019 98.4111 36.2042 98.8531 36.5453 99.2822C36.8735 99.7112 37.2137 100.128 37.5667 100.519C37.6045 100.582 37.6672 100.658 37.7179 100.709C38.0581 101.1 38.4111 101.466 38.7652 101.82C39.169 102.224 39.5847 102.615 40.0134 103.006C40.455 103.397 40.9214 103.764 41.3879 104.117C38.3226 101.706 35.4971 98.0696 33.1887 93.6767ZM33.1887 93.6767C33.3906 94.1694 33.6303 94.6363 33.8829 95.1161C34.1355 95.596 34.413 96.0628 34.6905 96.5426C34.968 97.0095 35.2584 97.4893 35.5736 97.9442C35.5736 97.9571 35.5866 97.9572 35.5866 97.9691C35.9019 98.4111 36.2042 98.8531 36.5453 99.2822C36.8735 99.7112 37.2137 100.128 37.5667 100.519C37.6045 100.582 37.6672 100.658 37.7179 100.709C38.0581 101.1 38.4111 101.466 38.7652 101.82C39.169 102.224 39.5847 102.615 40.0134 103.006C40.455 103.397 40.9214 103.764 41.3879 104.117C38.3226 101.706 35.4971 98.0696 33.1887 93.6767ZM33.1887 93.6767C33.3906 94.1694 33.6303 94.6363 33.8829 95.1161C34.1355 95.596 34.413 96.0628 34.6905 96.5426C34.968 97.0095 35.2584 97.4893 35.5736 97.9442C35.5736 97.9571 35.5866 97.9572 35.5866 97.9691C35.9019 98.4111 36.2042 98.8531 36.5453 99.2822C36.8735 99.7112 37.2137 100.128 37.5667 100.519C37.6045 100.582 37.6672 100.658 37.7179 100.709C38.0581 101.1 38.4111 101.466 38.7652 101.82C39.169 102.224 39.5847 102.615 40.0134 103.006C40.455 103.397 40.9214 103.764 41.3879 104.117C38.3226 101.706 35.4971 98.0696 33.1887 93.6767Z" fill="#756B5E"/>
<path d="M60.3 22.3922C59.6963 22.8342 58.1498 22.6281 57.3989 22.6281C56.28 22.643 55.175 22.7605 54.0701 22.8939C53.0685 23.0263 51.6841 23.2035 51.1689 23.9401C50.6388 24.6917 51.2724 25.3407 52.0382 25.8564C50.2708 26.9026 46.9868 26.4317 45.2194 25.724C44.9688 25.6204 44.763 25.5318 44.5859 25.4582C45.7784 24.7504 47.0156 24.1024 48.3265 23.4832C52.0531 21.7441 55.8961 20.5496 59.7699 19.8418C59.8435 19.9005 59.9171 19.9592 59.9907 20.019C60.5059 20.5197 60.9773 21.8905 60.3 22.3922Z" fill="url(#paint3_linear_4819_341097)"/>
<path d="M43.8331 32.5519C41.8151 33.8519 39.8101 35.4049 37.9433 37.2982C37.7165 37.5003 37.5653 37.6646 37.451 37.7651C36.9965 38.22 36.5936 38.661 36.2147 39.1408C35.9999 39.3807 35.799 39.6206 35.5971 39.8605C35.0799 40.4668 34.6135 41.085 34.159 41.7161C34.0585 41.8674 33.9571 42.0187 33.8437 42.1581C32.7845 43.6732 31.8764 45.2759 31.0689 46.9045C30.8292 46.8666 30.5895 46.8039 30.3627 46.7153C30.3249 46.7153 30.3001 46.7153 30.2742 46.7024C29.5303 46.4754 28.8868 46.1598 28.4581 45.6671C27.9161 45.0489 27.752 44.0006 28.2055 43.3446C28.7853 42.4865 30.2483 42.1451 30.9803 41.3498C31.9888 40.2139 31.5482 39.0144 30.8162 37.8656C30.7784 37.8408 30.7655 37.8149 30.7655 37.8029C31.1186 37.2982 31.5223 36.8055 31.951 36.3257C31.9639 36.3386 31.9888 36.3257 32.0018 36.3257C32.9227 36.1614 33.7423 35.8707 34.2724 35.3541C34.8144 34.8116 34.8143 34.2183 34.689 33.612C34.6761 33.5234 34.6642 33.4348 34.6264 33.3472C35.9004 32.0213 37.2749 30.7342 38.7886 29.5098C39.1666 29.5854 39.5326 29.7248 39.8857 29.888C40.7808 30.2663 41.6132 30.8098 42.2437 31.2637C42.7997 31.6808 43.3159 32.1099 43.8331 32.5519Z" fill="url(#paint4_linear_4819_341097)"/>
<path d="M26.7813 69.9571C24.6629 70.0079 22.4679 69.1618 22.1904 67.4954C21.9 65.9046 23.5778 64.3516 24.4232 62.9759C25.382 61.3981 25.6336 59.8701 24.5744 58.2923C24.3347 57.914 23.6534 57.8503 23.2118 58.0275C22.3664 58.3679 21.6354 58.8478 21.0049 59.4032C21.2316 58.3172 22.0522 54.4797 24.1328 49.582C24.2213 49.6447 24.3218 49.7085 24.4232 49.7841C25.0538 50.239 25.558 50.7815 26.0752 51.4505C26.7684 52.3344 27.4874 53.2811 28.4084 54.0008C26.9702 59.1633 26.5038 64.6164 26.7813 69.9571Z" fill="url(#paint5_linear_4819_341097)"/>
<path d="M83.069 21.23C81.4936 21.3773 80.33 22.0264 79.593 23.0726C78.9744 23.9426 77.5899 24.5757 76.2354 24.0601C75.204 23.6619 74.6739 22.6595 74.2174 21.9229C73.6873 21.0528 73.2308 20.1241 72.3466 19.3874C72.2581 19.3138 72.1696 19.255 72.0811 19.1953C75.8385 19.476 79.4906 20.1539 83.069 21.23Z" fill="url(#paint6_linear_4819_341097)"/>
<path d="M108.932 38.3705C108.166 38.3118 107.401 38.4004 106.797 38.695C105.972 39.0932 105.589 39.9334 105.044 40.5227C105.015 40.5665 104.986 40.5964 104.941 40.6262C104.632 40.9657 104.234 41.2016 103.675 41.2305C103.115 40.5675 102.57 39.9772 102.085 39.4914C102.055 39.4476 102.011 39.4028 101.981 39.3739C101.849 39.2415 101.745 39.123 101.628 39.0205C101.466 38.8433 101.319 38.696 101.187 38.5636C100.995 38.3715 100.671 38.0629 100.274 37.7085V37.6936C100.317 37.5015 100.362 37.3253 100.451 37.163C100.539 36.957 100.656 36.7648 100.833 36.5886C100.996 36.4114 101.173 36.2492 101.334 36.0869C101.732 35.7037 102.1 35.3204 102.218 34.8047C102.424 33.9208 101.85 32.8885 101.143 32.2106C100.347 31.4292 96.1063 30.0285 97.8737 28.7613C98.0209 28.6578 98.183 28.5841 98.3739 28.5254C100.892 30.2794 103.234 32.2405 105.37 34.3777C106.664 35.6728 107.842 37.0137 108.932 38.3705Z" fill="url(#paint7_linear_4819_341097)"/>
<path d="M48.9901 108.628C46.8398 109.202 44.5274 109.762 42.4955 109.158C41.2434 108.775 40.3453 107.994 39.3438 107.359C38.3124 106.725 37.2084 106.254 35.9125 105.989C35.3675 105.871 34.8225 105.783 34.2775 105.723C29.1525 100.416 25.3821 94.092 22.9961 87.3119V87.297C23.2467 86.855 23.7769 86.5155 24.7635 86.3981C26.855 86.1472 29.049 87.8425 30.3748 88.8011C30.6542 89.0072 30.9198 89.2142 31.1844 89.4352C31.3465 89.5676 31.4937 89.6861 31.6558 89.8184C32.0835 91.1155 32.5837 92.3977 33.1576 93.6361C33.1576 93.651 33.1725 93.6659 33.1874 93.6799C33.3933 94.1667 33.629 94.6385 33.8796 95.1093C34.1302 95.5961 34.4097 96.068 34.6892 96.5388C34.9687 97.0107 35.264 97.4825 35.5733 97.9394C35.5733 97.9544 35.5883 97.9543 35.5883 97.9693C35.8976 98.4113 36.2069 98.8543 36.5461 99.2813C36.8554 99.7094 37.1945 100.121 37.5625 100.52C37.6062 100.578 37.6659 100.652 37.7246 100.712C38.0488 101.095 38.4019 101.463 38.7699 101.818C39.5656 102.643 40.4487 103.409 41.3916 104.117C41.4353 104.176 41.495 104.221 41.5537 104.25C41.7595 104.412 41.9664 104.574 42.1872 104.722C42.3792 104.854 42.5403 104.972 42.5851 104.987C42.9093 105.223 43.3807 105.533 43.9545 105.886C44.0868 105.975 44.234 106.063 44.3812 106.152C44.6169 106.299 44.8676 106.447 45.1321 106.594C45.3977 106.756 45.6921 106.918 45.9865 107.095C46.2809 107.242 46.5752 107.419 46.8994 107.581C47.5469 107.92 48.2392 108.274 48.9901 108.628Z" fill="url(#paint8_linear_4819_341097)"/>
<path d="M98.1066 111.532C97.6351 111.886 96.7221 111.915 96.1035 111.974C94.4097 112.106 92.4803 112.121 91.1844 113.065C90.0506 113.89 89.3435 115.527 90.6394 116.456C90.8602 116.618 91.0959 116.75 91.3465 116.854C78.8279 122.072 63.8647 122.338 50.7573 116.899C51.4794 117.12 52.2154 117.282 52.9663 117.341C54.2473 117.414 55.4109 117.075 56.5159 116.604C57.1783 116.339 57.8854 115.867 58.6224 115.734C59.6239 115.542 60.5956 115.689 61.4797 115.145C62.349 114.599 62.6434 113.744 62.9815 112.934V112.919C65.279 113.272 67.7236 113.479 70.3164 113.494C71.126 113.494 71.9515 113.479 72.7909 113.435C73.3061 113.406 73.8074 113.377 74.3076 113.332C82.29 112.669 89.6249 110.06 95.5446 106.447C96.3691 107.553 97.7833 108.393 98.2836 109.632C98.5183 110.161 98.7103 111.075 98.1066 111.532Z" fill="url(#paint9_linear_4819_341097)"/>
<path d="M119.976 72.722C119.963 73.1262 119.951 73.7065 119.901 74.4392C119.888 74.8055 119.863 75.2096 119.825 75.6506C119.787 76.0926 119.75 76.5725 119.699 77.0772C119.686 77.1906 119.674 77.317 119.661 77.4435C119.636 77.6704 119.61 77.9104 119.585 78.1632C119.283 80.612 118.753 83.6552 117.794 86.975C117.643 87.4797 117.492 87.9854 117.328 88.4901C117.214 88.8305 117.101 89.172 116.988 89.5254C116.874 89.8788 116.748 90.2322 116.61 90.5985C116.232 91.6338 115.802 92.681 115.324 93.7421C115.16 94.0955 114.996 94.4489 114.82 94.8153C114.642 95.1686 114.466 95.522 114.289 95.8884C114.112 96.2796 113.911 96.6588 113.684 97.0371C113.507 97.3656 113.306 97.719 113.116 98.0475C112.75 98.7035 112.346 99.3735 111.905 100.03C111.565 100.572 111.199 101.116 110.808 101.645C110.657 101.872 110.493 102.1 110.316 102.314C110.076 102.655 109.824 102.983 109.559 103.312C109.509 103.387 109.446 103.451 109.395 103.514C109.067 103.931 108.727 104.347 108.374 104.751C108.197 104.953 108.021 105.155 107.844 105.357C107.528 105.332 107.238 105.282 106.96 105.193C105.535 104.802 104.778 103.704 105.586 102.68C106.267 101.822 107.604 101.354 108.55 100.698C111.009 99.0191 110.555 96.5573 110.063 94.3355C109.837 93.2494 109.521 92.1892 109.168 91.1161C109.471 90.0679 109.723 89.0336 109.786 88.0103C110.039 86.3439 109.963 85.0309 109.748 83.7816V83.7567C109.723 83.6302 109.697 83.4789 109.673 83.3525C109.055 80.3223 107.655 77.4067 107.793 70.4125C109.332 70.2861 110.959 69.655 111.602 68.6197C111.93 68.0772 111.88 67.4839 111.779 66.9025C111.704 66.5492 111.615 66.1699 111.666 65.8165C111.728 65.4631 111.868 65.1983 111.792 64.8439C111.729 64.5533 111.426 64.1371 111.653 63.8594C111.83 63.6573 112.359 63.6444 112.674 63.5568C113.482 63.3169 113.935 62.9386 114.162 62.2945C114.553 61.1587 114.111 59.9343 113.72 58.8353C113.33 57.7244 112.573 56.2222 113.392 55.1362C114.124 54.1517 116.028 54.1895 117.34 54.2781V54.291C120.116 62.9506 120.052 70.323 119.976 72.722Z" fill="url(#paint10_linear_4819_341097)"/>
<path opacity="0.7" d="M104.046 53.2957C100.005 41.5373 86.8688 31.0172 78.4229 33.9558C74.7271 35.2519 71.8927 39.1193 70.7817 43.3549C70.4565 44.5734 70.2645 45.8108 70.2645 47.0292C70.1691 54.978 77.0435 58.265 82.9223 66.6776C84.1675 68.4565 85.374 70.4684 86.4461 72.8077C82.2908 73.7942 78.1733 72.7688 74.9559 72.2472C72.5043 71.86 70.5709 71.7446 69.5554 73.0018C68.6364 74.1426 68.8662 75.9026 69.3834 76.9856C71.3178 80.9117 80.8348 83.4064 89.6446 81.724C90.4681 85.0509 90.6213 88.4155 88.8589 91.2775C87.2507 93.8885 84.2243 95.8228 80.4708 97.0024C72.5043 99.5358 61.3205 98.6269 53.9667 93.3281C53.8324 93.2315 53.6981 93.135 53.5648 93.0185C48.9878 89.5563 46.3264 84.6447 45.1001 79.2493V79.2304C43.2422 71.1462 44.6406 62.0378 47.6283 55.5006C49.0266 52.4067 50.9412 49.5637 52.9711 47.0302C59.0996 39.4109 66.4524 34.4984 65.3226 33.1445C64.9396 32.6807 63.7521 32.8549 61.6844 33.5696C58.467 34.7104 55.0397 36.4703 51.8034 38.8107C48.0887 41.4984 44.6217 44.9029 42.0179 48.9445C36.7517 57.1441 33.6875 70.0433 36.4643 81.8405C37.2878 85.3405 38.6285 88.7639 40.6007 91.9166C42.2666 94.6043 44.3731 97.0999 46.9778 99.3238C55.0209 106.17 69.5564 111.875 83.0954 106.401C84.3018 105.918 85.547 105.318 86.7912 104.623C90.2195 102.688 93.6657 100.001 96.2127 96.7326C98.3192 94.0449 99.8319 90.9699 100.254 87.6042C100.655 84.4516 100.082 81.1059 98.9707 77.7989C99.5256 77.3739 100.063 76.9289 100.56 76.4451C108.987 68.3032 104.677 55.1333 104.046 53.2957ZM96.0984 64.5902C95.6578 65.6732 95.0262 66.7752 94.2027 67.8005C90.5646 61.767 86.4849 57.164 85.7002 56.294C85.6425 56.2164 85.5659 56.1397 85.4893 56.062C82.7891 53.0448 78.4041 48.5971 79.8591 45.5032C80.5673 44.014 82.5404 43.0663 84.264 43.0474C84.6658 43.0474 85.0686 43.0862 85.4893 43.1639H85.5082C91.8088 44.4769 99.5843 55.9257 96.0984 64.5902Z" fill="#756B5E"/>
<defs>
<linearGradient id="paint0_linear_4819_341097" x1="445.017" y1="-69.5633" x2="64.9176" y2="70.089" gradientUnits="userSpaceOnUse">
<stop stop-color="#867733"/>
<stop offset="1" stop-color="#867733" stop-opacity="0"/>
</linearGradient>
<linearGradient id="paint1_linear_4819_341097" x1="13.2221" y1="335.321" x2="67.4505" y2="79.7881" gradientUnits="userSpaceOnUse">
<stop stop-color="#867733"/>
<stop offset="1" stop-color="#867733" stop-opacity="0"/>
</linearGradient>
<linearGradient id="paint2_linear_4819_341097" x1="-301.048" y1="-3.70601" x2="75.2504" y2="65.8356" gradientUnits="userSpaceOnUse">
<stop stop-color="#867733"/>
<stop offset="1" stop-color="#867733" stop-opacity="0"/>
</linearGradient>
<linearGradient id="paint3_linear_4819_341097" x1="-80.7857" y1="-69.8249" x2="77.1175" y2="39.7974" gradientUnits="userSpaceOnUse">
<stop stop-color="#EEE197"/>
<stop offset="1" stop-color="#EEE197" stop-opacity="0"/>
</linearGradient>
<linearGradient id="paint4_linear_4819_341097" x1="-154.302" y1="-93.392" x2="68.3205" y2="61.1613" gradientUnits="userSpaceOnUse">
<stop stop-color="#EEE197"/>
<stop offset="1" stop-color="#EEE197" stop-opacity="0"/>
</linearGradient>
<linearGradient id="paint5_linear_4819_341097" x1="-127.589" y1="-45.8989" x2="47.2114" y2="75.4538" gradientUnits="userSpaceOnUse">
<stop stop-color="#EEE197"/>
<stop offset="1" stop-color="#EEE197" stop-opacity="0"/>
</linearGradient>
<linearGradient id="paint6_linear_4819_341097" x1="-40.079" y1="-60.583" x2="87.6367" y2="28.0831" gradientUnits="userSpaceOnUse">
<stop stop-color="#EEE197"/>
<stop offset="1" stop-color="#EEE197" stop-opacity="0"/>
</linearGradient>
<linearGradient id="paint7_linear_4819_341097" x1="317.469" y1="145.527" x2="85.2851" y2="27.0461" gradientUnits="userSpaceOnUse">
<stop stop-color="#EEE197"/>
<stop offset="1" stop-color="#EEE197" stop-opacity="0"/>
</linearGradient>
<linearGradient id="paint8_linear_4819_341097" x1="-21.1713" y1="-39.972" x2="45.7587" y2="121.365" gradientUnits="userSpaceOnUse">
<stop stop-color="#EEE197"/>
<stop offset="1" stop-color="#EEE197" stop-opacity="0"/>
</linearGradient>
<linearGradient id="paint9_linear_4819_341097" x1="346.083" y1="251.199" x2="48.3391" y2="99.2629" gradientUnits="userSpaceOnUse">
<stop stop-color="#EEE197"/>
<stop offset="1" stop-color="#EEE197" stop-opacity="0"/>
</linearGradient>
<linearGradient id="paint10_linear_4819_341097" x1="368.544" y1="210.847" x2="73.2441" y2="60.1577" gradientUnits="userSpaceOnUse">
<stop stop-color="#EEE197"/>
<stop offset="1" stop-color="#EEE197" stop-opacity="0"/>
</linearGradient>
</defs>
</svg>
