<svg width="973" height="508" viewBox="0 0 973 508" fill="none" xmlns="http://www.w3.org/2000/svg">
<path d="M442.248 268.452L442.248 268.451C439.478 263.753 429.378 256.162 415.347 259.811L415.347 259.811C410.181 261.154 403.744 267.568 406.121 278.14L406.121 278.14C406.873 281.486 408.754 285.848 411.696 289.483C414.636 293.116 418.569 295.948 423.423 296.43L442.248 268.452ZM442.248 268.452C443.791 271.068 444.579 274.497 444.589 277.963C444.599 281.428 443.831 284.842 442.358 287.423L442.248 268.452ZM432.131 295.996C435.579 295.018 439.341 292.704 442.358 287.423L432.131 295.996ZM432.131 295.996C428.738 296.959 425.593 296.646 423.586 296.446M432.131 295.996L423.586 296.446M423.586 296.446C423.53 296.441 423.476 296.435 423.423 296.43L423.586 296.446Z" fill="#C58BD2" fill-opacity="0.4" stroke="#905999" stroke-width="1.76908"/>
<path d="M440.222 269.646C437.718 265.423 428.857 258.852 416.686 261.977C411.966 263.188 406.287 268.939 408.407 278.247C409.739 284.082 414.986 293.354 423.699 294.243C427.055 294.585 435.109 295.551 440.369 286.346C442.994 281.741 443.005 274.335 440.222 269.646Z" fill="#905999"/>
<path d="M439.414 270.058C437.042 266.057 428.642 259.83 417.109 262.788C412.637 263.937 407.255 269.382 409.263 278.204C410.522 283.732 415.496 292.522 423.753 293.358C426.935 293.681 434.564 294.6 439.548 285.875C442.039 281.514 442.047 274.501 439.414 270.058Z" fill="#CC94D9" stroke="#925C9B" stroke-width="0.998974" stroke-miterlimit="10" stroke-linecap="round" stroke-linejoin="round"/>
<path opacity="0.3" d="M423.775 293.009C426.887 293.324 434.349 294.224 439.224 285.69C441.66 281.424 441.67 274.561 439.089 270.217C436.77 266.304 428.553 260.213 417.273 263.107C412.9 264.231 407.635 269.556 409.599 278.185C410.838 283.596 415.7 292.191 423.775 293.009ZM412.905 278.747C411.453 271.481 415.898 266.863 419.525 265.824C428.879 263.15 435.534 268.149 437.369 271.417C439.409 275.048 439.269 280.86 437.176 284.522C432.989 291.847 426.855 291.233 424.299 291.024C417.653 290.491 413.813 283.307 412.905 278.747Z" fill="#BE83CB"/>
</svg>
