<svg width="973" height="508" viewBox="0 0 973 508" fill="none" xmlns="http://www.w3.org/2000/svg">
<path d="M531.671 274.654C538.673 262.268 542.354 230.52 516.732 204.519C506.798 194.436 484.01 188.518 463.614 207.32C450.819 219.108 435.066 245.693 445.524 268.822C449.556 277.73 458.841 299.329 489.744 299.189C505.202 299.112 523.898 288.412 531.671 274.654Z" fill="#C58BD2" fill-opacity="0.4"/>
<path d="M528.262 273.125C534.727 261.619 538.114 232.161 514.484 208.031C505.32 198.671 484.303 193.18 465.484 210.623C453.691 221.567 439.16 246.242 448.8 267.719C452.514 275.991 461.09 296.036 489.586 295.908C503.834 295.832 521.088 285.903 528.262 273.125Z" fill="#905999"/>
<path d="M527.162 272.415C533.444 261.24 536.733 232.601 513.774 209.144C504.867 200.053 484.449 194.709 466.155 211.663C454.692 222.288 440.565 246.278 449.948 267.143C453.564 275.183 461.884 294.665 489.585 294.537C503.43 294.473 520.184 284.826 527.162 272.415Z" fill="#CC94D9" stroke="#925C9B" stroke-width="0.998974" stroke-miterlimit="10" stroke-linecap="round" stroke-linejoin="round"/>
<path opacity="0.5" d="M449.948 267.143C453.564 275.183 461.884 294.665 489.585 294.537C503.43 294.473 520.196 284.826 527.162 272.402C533.444 261.227 536.733 232.589 513.774 209.132C504.867 200.041 484.449 194.697 466.155 211.651C454.692 222.3 440.565 246.278 449.948 267.143ZM469.441 220.511C485.132 206.727 502.667 211.068 510.316 218.459C530.024 237.522 527.199 260.813 521.81 269.895C515.822 279.992 501.439 287.84 489.549 287.892C465.77 287.994 458.623 272.159 455.532 265.624C447.469 248.651 459.592 229.153 469.441 220.511Z" fill="#BE83CB"/>
<path opacity="0.5" d="M507.514 255.385C508.26 234.97 493.158 225.011 478.214 231.475C463.258 237.928 456.037 247.842 466.055 265.354C476.074 282.866 506.817 274.429 507.514 255.385Z" fill="#BE83CB"/>
<path d="M504.63 257.381C505.279 239.304 492.266 230.482 479.387 236.2C466.508 241.917 460.289 250.694 468.914 266.199C477.54 281.716 504.031 274.246 504.63 257.381Z" fill="#6C4096" stroke="#5E2D68" stroke-width="0.998974" stroke-miterlimit="10" stroke-linecap="round" stroke-linejoin="round"/>
<path opacity="0.5" d="M502.48 259.536C502.969 246 493.219 239.392 483.566 243.677C473.925 247.963 469.257 254.523 475.72 266.149C482.196 277.763 502.027 272.179 502.48 259.536Z" fill="#9862C2"/>
</svg>
