<svg width="497" height="460" viewBox="0 0 497 460" fill="none" xmlns="http://www.w3.org/2000/svg">
<path opacity="0.5" d="M38.0758 386.482C27.7961 354.889 93.754 308.586 90.6687 275.5C87.2279 238.675 21.2186 237.726 8.99954 194.5C0.0206442 162.736 0.110509 130.789 16.9476 110.351C39.8054 82.6054 75.7129 123.926 109 110.351C151.274 93.1105 136.252 28.0707 182.816 19.6963C218.746 13.2412 251.978 -6.49557 291.628 9.31702C337.243 27.5089 335.561 90.9576 366.5 110.351C417.102 142.072 462.8 137.135 484.454 187.812C503.845 233.193 486.246 273.931 470.051 313.358C453.857 352.784 435.087 394.474 388.098 408.392C344.976 421.164 320.485 375.39 276 382C226.799 389.311 218.095 444.886 168.684 450.605C138.027 454.154 115.266 447.42 90.6687 438.008C66.0713 428.596 46.237 411.548 38.0758 386.482Z" fill="#B9FBFF"/>
</svg>
