<svg width="565" height="730" viewBox="0 0 565 730" fill="none" xmlns="http://www.w3.org/2000/svg">
<path d="M557.285 730C553.4 730 550.06 727.074 549.635 723.13C547.455 702.956 542.513 683.527 534.942 665.383C509.913 605.403 461.203 572.01 445.197 561.034C444.013 560.223 442.988 559.52 442.145 558.927C375.319 511.947 336.655 379.092 323.946 152.774C323.711 148.533 326.958 144.897 331.208 144.659C335.441 144.483 339.093 147.668 339.332 151.913C351.587 370.148 389.163 502.854 451.012 546.338C451.818 546.904 452.79 547.574 453.918 548.346C470.854 559.954 522.386 595.289 549.167 659.462C557.308 678.967 562.619 699.834 564.955 721.483C565.413 725.708 562.351 729.503 558.121 729.96C557.839 729.987 557.564 730 557.285 730Z" fill="#516A33"/>
<path d="M557.285 730C553.4 730 550.06 727.074 549.635 723.13C547.455 702.956 542.513 683.527 534.942 665.383C509.913 605.403 461.203 572.01 445.197 561.034C444.013 560.223 442.988 559.52 442.145 558.927C375.319 511.947 336.655 379.092 323.946 152.774C323.711 148.533 326.958 144.897 331.208 144.659C335.441 144.483 339.093 147.668 339.332 151.913C351.587 370.148 389.163 502.854 451.012 546.338C451.818 546.904 452.79 547.574 453.918 548.346C470.854 559.954 522.386 595.289 549.167 659.462C557.308 678.967 562.619 699.834 564.955 721.483C565.413 725.708 562.351 729.503 558.121 729.96C557.839 729.987 557.564 730 557.285 730Z" fill="url(#paint0_linear_3318_579482)"/>
<path d="M557.285 730C553.4 730 550.06 727.074 549.635 723.13C547.455 702.956 542.513 683.527 534.942 665.383C509.913 605.403 461.203 572.01 445.197 561.034C444.013 560.223 442.988 559.52 442.145 558.927C375.319 511.947 336.655 379.092 323.946 152.774C323.711 148.533 326.958 144.897 331.208 144.659C335.441 144.483 339.093 147.668 339.332 151.913C351.587 370.148 389.163 502.854 451.012 546.338C451.818 546.904 452.79 547.574 453.918 548.346C470.854 559.954 522.386 595.289 549.167 659.462C557.308 678.967 562.619 699.834 564.955 721.483C565.413 725.708 562.351 729.503 558.121 729.96C557.839 729.987 557.564 730 557.285 730Z" fill="url(#paint1_linear_3318_579482)"/>
<path d="M540.883 232.654C539.573 242.234 537.34 251.317 534.259 259.973C534.259 259.973 534.259 259.973 534.259 260.013C533.642 261.746 533.024 263.4 532.331 265.053C522.124 290.719 504.594 312.385 483.486 330.624C482.524 331.469 481.559 332.278 480.557 333.086C463.107 347.71 443.345 360.061 423.275 370.413C422.157 371.029 421.039 371.606 419.885 372.146C408.483 377.919 397.005 383.075 385.832 387.615C384.598 388.116 383.404 388.616 382.209 389.077C367.878 394.773 354.128 399.542 341.647 403.505C340.413 403.929 339.143 404.313 337.912 404.658C322.579 409.43 309.406 412.933 299.968 415.395C298.621 415.743 297.311 416.048 296.116 416.356C295.884 416.432 295.655 416.472 295.423 416.548C287.833 418.474 279.284 420.664 269.962 422.858C268.728 423.166 267.457 423.474 266.147 423.782C242.919 429.171 215.378 434.519 186.908 436.521C185.637 436.597 184.367 436.673 183.056 436.753C163.026 437.946 142.571 437.405 122.885 433.982C121.615 433.75 120.344 433.522 119.07 433.29C91.2573 427.901 65.1395 416.588 44.0309 396.079C43.0689 395.154 42.1433 394.233 41.2974 393.269C40.7202 392.768 40.2591 392.228 39.7581 391.731C26.3525 377.415 17.1833 361.217 11.0594 344.479C10.5584 343.094 10.0575 341.709 9.5964 340.323C3.54879 322.276 0.891563 303.805 0.198228 286.646C0.121928 285.337 0.0821193 283.992 0.0821193 282.683C-0.611216 255.824 3.24028 232.661 5.82121 220.154C6.12972 218.693 6.43825 217.384 6.66715 216.267C7.05196 214.574 7.36048 213.228 7.5927 212.228C8.16992 209.842 8.74715 207.456 9.36418 205.109C9.70919 203.84 10.0575 202.531 10.4423 201.262C12.446 194.296 14.7185 187.447 17.3392 180.789C17.8799 179.364 18.4571 177.903 19.0344 176.478C23.0783 166.626 27.7392 157.162 32.9774 148.002C33.7105 146.733 34.4404 145.464 35.21 144.191C47.3052 123.874 62.2136 105.403 79.0858 89.0493C80.0479 88.0882 81.0132 87.1637 81.9753 86.2789C89.9868 78.6604 98.3864 71.5423 107.168 64.9213C108.285 64.0763 109.364 63.2279 110.518 62.4194C142.8 38.5996 179.47 21.0529 216.681 10.78C217.952 10.432 219.222 10.0874 220.496 9.73944C230.359 7.16128 240.258 5.04376 250.121 3.50614C252.357 3.15819 254.549 2.81355 256.785 2.54513C258.056 2.35293 259.326 2.19718 260.6 2.08451C341.034 -7.61175 405.746 18.8989 434.216 32.7142C407.982 53.7636 379.748 80.1583 352.396 112.982C344.152 122.91 336.525 132.759 329.516 142.379C328.822 143.303 328.205 144.188 327.552 145.073C328.554 145.113 329.672 145.113 330.786 145.113C351.702 145.265 389.879 142.382 429.824 120.256C454.286 106.712 471.427 90.3947 482.444 77.9281C498.623 96.2834 530.981 137.149 539.842 187.864C540.074 189.133 540.303 190.442 540.459 191.751C542.463 204.834 542.811 218.53 540.883 232.654Z" fill="#728C39"/>
<path d="M133.763 79.2072C137.578 85.6526 139.376 88.8471 144.086 96.2171C149.709 105.012 154.911 111.679 158.328 115.835C177.353 120.362 192.786 124.988 204.065 128.666C217.049 132.901 223.82 135.642 228.391 137.61C238.679 142.034 246.109 146.087 253.477 150.126C261.386 154.464 271.411 160.306 282.75 167.816C296.026 160.247 309.303 152.678 322.575 145.109C324.888 144.198 327.2 143.29 329.512 142.379C336.532 132.722 344.142 122.893 352.392 112.982C379.618 80.2775 407.826 53.8796 434.212 32.7142C405.746 18.8989 341.03 -7.61175 260.597 2.08451C259.326 2.20049 258.055 2.35293 256.782 2.54513C254.546 2.81355 252.353 3.16151 250.117 3.50614C240.254 5.04376 230.355 7.16128 220.493 9.73944C219.222 10.0841 217.951 10.432 216.678 10.78C181.835 20.4 147.517 36.4688 116.781 58.0186C123.671 63.8443 129.059 71.2573 133.763 79.2072Z" fill="url(#paint2_linear_3318_579482)"/>
<path d="M540.459 191.752C540.306 190.443 540.074 189.134 539.842 187.864C530.981 137.15 498.623 96.2835 482.445 77.9282C471.427 90.3948 454.287 106.712 429.824 120.256C395.529 139.251 362.574 144.052 340.689 144.937C340.072 145.401 339.156 146.047 337.982 146.703C329.616 151.386 321.485 149.228 321.269 150.077C320.29 153.931 386.685 171.06 386.685 171.06C406.931 176.283 434.289 183.285 466.995 191.48C468.366 200.911 469.925 220.784 461.081 243.238C454.33 260.374 444.331 271.88 437.905 278.203C439.139 281.308 443.243 292.721 438.39 305.21C433.291 318.33 420.32 327.463 405.076 328.841C405.159 330.332 405.454 338.259 399.523 344.516C394.222 350.103 385.981 352.217 378.152 350.076C376.839 352.694 370.24 365.148 355.209 370.221C343.648 374.121 333.699 371.431 330.243 370.317C329.878 382.194 323.568 392.825 313.622 397.958C303.567 403.147 293.695 400.698 291.134 399.976C288.918 401.222 284.615 403.25 278.823 403.595C273.591 403.903 269.455 402.7 267.132 401.832C262.833 405.712 251.375 414.984 234.134 416.959C207.473 420.015 188.746 403.127 185.883 400.46C183.71 404.049 179.872 408.926 173.645 411.73C161.739 417.085 145.898 412.694 134.224 400.46C125.274 404.459 105.094 411.979 79.6036 408.416C63.8559 406.216 51.7773 400.582 44.2236 396.248C65.299 416.641 91.3405 427.915 119.071 433.286C120.341 433.518 121.612 433.747 122.886 433.979C142.571 437.402 163.026 437.942 183.056 436.749C184.367 436.673 185.637 436.597 186.908 436.517C215.375 434.516 242.919 429.167 266.147 423.779C267.458 423.471 268.728 423.163 269.962 422.855C279.284 420.661 287.836 418.467 295.423 416.545C295.655 416.469 295.884 416.429 296.117 416.353C297.311 416.045 298.621 415.736 299.968 415.392C309.406 412.93 322.579 409.427 337.912 404.655C339.146 404.307 340.417 403.923 341.648 403.502C354.128 399.538 367.882 394.767 382.21 389.073C383.404 388.613 384.598 388.112 385.832 387.612C397.002 383.072 408.483 377.916 419.885 372.143C421.04 371.603 422.158 371.026 423.276 370.41C443.346 360.057 463.107 347.707 480.557 333.083C481.559 332.274 482.521 331.466 483.486 330.621C504.595 312.381 522.124 290.719 532.331 265.05C533.025 263.396 533.642 261.74 534.259 260.01C534.259 259.97 534.259 259.97 534.259 259.97C537.341 251.311 539.573 242.231 540.884 232.651C542.811 218.531 542.463 204.834 540.459 191.752Z" fill="url(#paint3_linear_3318_579482)"/>
<path d="M540.883 232.654C539.573 242.234 537.34 251.317 534.259 259.973C534.259 259.973 534.259 259.973 534.259 260.013C533.642 261.746 533.024 263.4 532.331 265.053C522.124 290.719 504.594 312.385 483.486 330.624C482.524 331.469 481.559 332.278 480.557 333.086C463.107 347.71 443.345 360.061 423.275 370.413C422.157 371.029 421.039 371.606 419.885 372.146C408.483 377.919 397.005 383.075 385.832 387.615C384.598 388.116 383.404 388.616 382.209 389.077C367.878 394.773 354.128 399.542 341.647 403.505C340.413 403.929 339.143 404.313 337.912 404.658C322.579 409.43 309.406 412.933 299.968 415.395C298.621 415.743 297.311 416.048 296.116 416.356C295.884 416.432 295.655 416.472 295.423 416.548C287.833 418.474 279.284 420.664 269.962 422.858C268.728 423.166 267.457 423.474 266.147 423.782C242.919 429.171 215.378 434.519 186.908 436.521C185.637 436.597 184.367 436.673 183.056 436.753C163.026 437.946 142.571 437.405 122.885 433.982C121.615 433.75 120.344 433.522 119.07 433.29C91.2573 427.901 65.1395 416.588 44.0309 396.079C43.0689 395.154 42.1433 394.233 41.2974 393.269C40.7202 392.768 40.2591 392.228 39.7581 391.731C26.3525 377.415 17.1833 361.217 11.0594 344.479C10.5584 343.094 10.0575 341.709 9.5964 340.323C3.54879 322.276 0.891563 303.805 0.198228 286.646C0.121928 285.337 0.0821193 283.992 0.0821193 282.683C-0.611216 255.824 3.24028 232.661 5.82121 220.154C6.12972 218.693 6.43825 217.384 6.66715 216.267C7.05196 214.574 7.36048 213.228 7.5927 212.228C8.16992 209.842 8.74715 207.456 9.36418 205.109C9.70919 203.84 10.0575 202.531 10.4423 201.262C12.446 194.296 14.7185 187.447 17.3392 180.789C17.8799 179.364 18.4571 177.903 19.0344 176.478C23.0783 166.626 27.7392 157.162 32.9774 148.002C33.7105 146.733 34.4404 145.464 35.21 144.191C47.3052 123.874 62.2136 105.403 79.0858 89.0493C80.0479 88.0882 81.0132 87.1637 81.9753 86.2789C89.9868 78.6604 98.3864 71.5423 107.168 64.9213C108.285 64.0763 109.364 63.2279 110.518 62.4194C142.8 38.5996 179.47 21.0529 216.681 10.78C217.952 10.432 219.222 10.0874 220.496 9.73944C230.359 7.16128 240.258 5.04376 250.121 3.50614C252.357 3.15819 254.549 2.81355 256.785 2.54513C258.056 2.35293 259.326 2.19718 260.6 2.08451C341.034 -7.61175 405.746 18.8989 434.216 32.7142C407.982 53.7636 379.748 80.1583 352.396 112.982C344.152 122.91 336.525 132.759 329.516 142.379C328.822 143.303 328.205 144.188 327.552 145.073C328.554 145.113 329.672 145.113 330.786 145.113C351.702 145.265 389.879 142.382 429.824 120.256C454.286 106.712 471.427 90.3947 482.444 77.9281C498.623 96.2834 530.981 137.149 539.842 187.864C540.074 189.133 540.303 190.442 540.459 191.751C542.463 204.834 542.811 218.53 540.883 232.654Z" fill="url(#paint4_linear_3318_579482)"/>
<path d="M479.017 197.136C477.282 196.175 475.551 195.29 473.856 194.482C488.764 192.596 503.865 191.556 518.81 191.403C526.012 191.327 533.217 191.403 540.459 191.748C540.306 190.439 540.074 189.13 539.842 187.861C532.792 187.553 525.783 187.476 518.77 187.553C501.552 187.745 484.1 189.054 466.998 191.476C456.635 187.397 445.89 185.051 431.635 181.932C415.841 178.469 396.156 174.158 367.805 165.618C352.203 160.923 336.565 155.69 321.272 150.073C324.47 148.42 327.668 146.879 330.902 145.341L330.786 145.109L329.516 142.378L329.284 141.878C325.548 143.648 321.849 145.457 318.19 147.343C315.994 129.912 311.297 113.094 304.131 97.3568L303.939 97.0088C295.851 79.1937 290.341 66.9955 280.826 58.1443C278.362 53.3359 276.013 48.4083 273.893 43.4441C268.23 30.2087 263.762 16.3171 260.604 2.07764C259.333 2.19362 258.062 2.34606 256.789 2.53826C259.987 17.1589 264.492 31.3586 270.347 44.942C271.425 47.5201 272.583 50.0585 273.813 52.6002C273.468 52.3683 273.08 52.1396 272.735 51.9076C263.337 46.0587 253.206 43.5966 244.269 41.4426C234.214 38.9804 226.242 37.0551 224.776 31.2824C224.544 30.3214 224.583 29.8575 224.699 28.8964C224.816 27.9354 224.968 26.5867 224.816 24.3929C224.507 19.3891 223.081 14.4647 220.5 9.73257C219.229 10.0772 217.958 10.4252 216.685 10.7731C219.266 15.2766 220.729 19.8928 221.001 24.6249C221.077 26.5105 220.961 27.551 220.884 28.4723C220.732 29.5492 220.616 30.5898 221.037 32.2434C223.077 40.2463 232.479 42.556 243.34 45.1739C252.008 47.2915 261.831 49.6377 270.688 55.1784C284.631 63.8374 290.603 76.9204 300.426 98.5829L300.618 98.9673C307.784 114.781 312.481 131.635 314.561 149.221C303.697 154.878 293.068 161.112 282.744 167.809C271.996 159.034 260.441 151.299 248.306 144.721C230.087 134.833 216.296 130.677 184.168 121.365L158.935 114.055C151.425 99.587 141.522 86.9282 129.507 76.3438C123.267 70.8428 116.911 66.2631 110.515 62.4158C109.36 63.2244 108.279 64.0694 107.164 64.9177C113.789 68.8048 120.494 73.4972 126.962 79.2335C137.711 88.7011 146.684 99.8587 153.734 112.557C111.593 100.399 105.814 98.7055 94.9894 93.357C90.5607 91.1632 86.2447 88.817 81.9686 86.2753C81.0066 87.1601 80.0412 88.0847 79.0792 89.0457C83.7003 91.8161 88.4409 94.3942 93.2544 96.7802C104.656 102.437 110.475 104.09 155.85 117.213L183.086 125.064C190.019 127.065 196.143 128.835 201.614 130.452C171.605 139.572 141.022 148.038 110.628 155.693C109.473 156.002 108.279 156.27 107.121 156.578C96.5287 153.075 85.704 150.269 74.8396 148.267C61.7823 145.841 48.5293 144.496 35.2 144.188C34.4304 145.457 33.6973 146.726 32.9674 147.999C46.8341 148.151 60.6245 149.5 74.1462 152.038C82.7748 153.655 91.4431 155.77 99.9157 158.348C73.1809 164.965 46.101 171.007 19.0211 176.471C18.4439 177.896 17.8667 179.357 17.3259 180.782C45.2915 175.126 73.297 168.853 100.954 162.043C87.2798 175.626 65.939 191.287 36.2384 198.061C27.7624 199.986 19.1339 201.063 10.4291 201.255C10.0442 202.524 9.69592 203.833 9.35091 205.103C18.7126 204.987 27.9947 203.87 37.0876 201.792C70.9847 194.097 94.3292 175.086 108.043 160.31C109.238 160.001 110.392 159.733 111.586 159.425C143.868 151.266 176.378 142.226 208.235 132.49C223.296 137.186 233.812 141.265 246.448 148.111C258.043 154.384 269.099 161.734 279.383 170.046C275.339 172.7 271.408 175.434 267.481 178.241C256.54 186.091 249.915 191.708 242.248 198.442C222.719 201.636 202.917 204.483 183.351 206.829C125.068 213.795 65.8229 216.989 6.65387 216.257C6.42166 217.374 6.11314 218.683 5.80793 220.144C11.2783 220.22 16.7487 220.26 22.2191 220.26C51.8799 220.26 81.5805 219.299 111.125 217.297C95.6794 234.344 77.7655 248.659 58.0038 259.973C38.2819 271.21 18.5567 278.328 0.0688476 282.676C0.0688476 283.985 0.108656 285.33 0.184956 286.639C14.4763 283.329 29.4609 278.404 44.638 271.247C40.0534 290.255 32.2741 308.11 21.5257 324.387C17.8667 329.928 13.8592 335.236 9.58313 340.317C10.0442 341.702 10.5452 343.087 11.0461 344.472C16.0156 338.776 20.6002 332.774 24.7204 326.501C36.3147 308.994 44.5219 289.638 49.143 269.053C52.7258 267.283 56.3451 265.358 59.9279 263.32C81.1924 251.198 100.261 235.577 116.669 216.953C139.164 215.415 161.546 213.298 183.809 210.643C201.415 208.526 219.289 206.027 236.931 203.177C230.034 209.258 221.369 216.877 208.195 227.726C189.359 243.235 179.264 250.389 170.367 256.739C161.855 262.819 154.497 268.052 141.901 278.981C112.664 304.222 93.4402 326.849 80.7279 341.818C66.7849 358.211 53.5718 375.41 41.2808 393.265C42.1267 394.226 43.0523 395.15 44.0144 396.075C56.3418 378.104 69.6312 360.829 83.6539 344.32C96.2898 329.427 115.434 306.917 144.402 281.867C156.882 271.054 164.164 265.898 172.6 259.857C181.537 253.508 191.668 246.274 210.62 230.728C224.603 219.223 233.5 211.372 240.63 205.023C250.144 196.596 257.041 190.479 269.713 181.359C271.641 179.974 273.565 178.628 275.529 177.28C261.662 202.137 250.605 222.146 243.327 235.345L230.19 259.201C204.072 306.685 197.872 317.958 183.809 335.545C173.293 348.704 166.552 355.285 160.541 361.058C153.876 367.523 148.598 372.64 141.088 384.222C131.418 399.114 124.063 415.544 119.054 433.283C120.324 433.515 121.595 433.743 122.869 433.975C127.762 416.737 134.927 400.807 144.326 386.339C151.607 375.102 156.729 370.138 163.238 363.828C169.017 358.248 176.183 351.285 186.812 337.931C188.547 335.777 190.162 333.699 191.705 331.658C187.236 355.477 184.463 379.758 183.385 403.922C182.924 414.811 182.807 425.78 183.036 436.746C184.347 436.669 185.617 436.593 186.888 436.514C186.656 425.701 186.772 414.888 187.236 404.114C188.43 377.372 191.705 350.474 197.059 324.231C205.843 311.457 214.356 296.024 233.577 261.047L246.674 237.19C254.609 222.838 266.973 200.404 282.575 172.504C284.001 171.543 285.424 170.619 286.891 169.734C282.306 199.979 280.803 229.761 282.382 258.313C282.575 262.044 282.843 265.779 283.115 269.586C284.349 287.673 285.62 306.373 281.613 331.923C279.725 344.005 277.605 351.395 275.373 359.242C274.371 362.897 273.332 366.552 272.291 370.708C268.171 387.446 266.127 405.185 266.127 423.772C267.437 423.464 268.708 423.156 269.942 422.847C270.018 404.916 272.062 387.794 276.029 371.632C276.57 369.439 277.108 367.401 277.648 365.439C279.612 374.903 282.269 384.255 285.66 393.298C288.589 401.185 292.092 408.919 296.1 416.346C297.294 416.038 298.604 415.729 299.951 415.385C295.831 407.842 292.285 399.992 289.279 391.949C285.043 380.636 281.961 368.898 280.034 357.008C281.881 350.351 283.769 343.08 285.428 332.496C286.774 323.877 287.547 316.066 287.892 308.792C308.231 329.494 323.485 354.467 332.113 381.249C334.578 388.907 336.506 396.718 337.892 404.645C339.126 404.297 340.397 403.912 341.628 403.491C340.201 395.565 338.237 387.754 335.772 380.096C326.603 351.62 310.119 325.109 288.085 303.56C288.433 291.053 287.66 280.088 286.93 269.315C286.698 265.543 286.429 261.812 286.237 258.077C284.618 228.757 286.277 198.127 291.167 166.997C295.98 163.995 300.873 161.108 305.803 158.301C322.828 171.152 339.587 184.815 355.687 198.896C371.441 212.711 386.966 227.295 401.911 242.456C394.129 258.157 388.197 274.623 384.23 291.441C375.641 327.651 377.064 361.28 382.189 389.063C383.384 388.602 384.578 388.102 385.812 387.602C380.919 360.435 379.612 327.611 387.968 292.326C388.701 289.171 389.547 286.053 390.433 282.938C393.631 299.944 398.1 316.798 403.723 333.116C408.307 346.391 413.698 359.474 419.862 372.133C421.016 371.593 422.134 371.016 423.252 370.4C417.204 357.857 411.85 344.966 407.342 331.843C400.986 313.335 396.132 294.132 392.898 274.779C396.132 264.735 400.1 254.886 404.761 245.342C410.848 251.499 416.82 257.773 422.675 264.082C442.937 285.9 462.274 308.988 480.533 333.076C481.535 332.267 482.497 331.459 483.463 330.614C465.204 306.486 445.79 283.362 425.488 261.464C404.107 238.377 381.496 216.366 358.231 196.009C342.477 182.234 326.106 168.882 309.462 156.26C311.811 154.991 314.163 153.722 316.551 152.449C332.999 158.566 349.835 164.263 366.667 169.303C395.174 177.883 414.935 182.194 430.806 185.657C450.259 189.929 463.087 192.739 477.146 200.473C499.99 213.056 518.478 234.758 532.308 265.043C533.001 263.389 533.618 261.733 534.235 260.003C534.235 259.963 534.235 259.963 534.235 259.963C520.199 230.728 501.708 209.642 479.017 197.136Z" fill="#9CA439"/>
<defs>
<linearGradient id="paint0_linear_3318_579482" x1="392.262" y1="28.4302" x2="476.377" y2="718.007" gradientUnits="userSpaceOnUse">
<stop stop-color="#ADB432"/>
<stop offset="1" stop-color="#ADB432" stop-opacity="0"/>
</linearGradient>
<linearGradient id="paint1_linear_3318_579482" x1="384.558" y1="1016.53" x2="427.103" y2="604.306" gradientUnits="userSpaceOnUse">
<stop stop-color="#463920"/>
<stop offset="1" stop-opacity="0"/>
</linearGradient>
<linearGradient id="paint2_linear_3318_579482" x1="716.902" y1="128.492" x2="159.606" y2="69.1994" gradientUnits="userSpaceOnUse">
<stop stop-color="#4C6435"/>
<stop offset="1" stop-color="#4C6435" stop-opacity="0"/>
</linearGradient>
<linearGradient id="paint3_linear_3318_579482" x1="1160.57" y1="1279.01" x2="169.023" y2="125.063" gradientUnits="userSpaceOnUse">
<stop stop-color="#4C6435"/>
<stop offset="1" stop-color="#4C6435" stop-opacity="0"/>
</linearGradient>
<linearGradient id="paint4_linear_3318_579482" x1="-320.302" y1="248.816" x2="336.199" y2="212.767" gradientUnits="userSpaceOnUse">
<stop stop-color="#ADB432"/>
<stop offset="1" stop-color="#ADB432" stop-opacity="0"/>
</linearGradient>
</defs>
</svg>
