<svg width="140" height="140" viewBox="0 0 140 140" fill="none" xmlns="http://www.w3.org/2000/svg">
<path d="M3.86419 30.6488C3.72608 31.2758 3.95646 31.8667 4.0619 32.1389C4.24757 32.6169 4.51287 32.943 4.75068 33.2312C5.04808 33.5917 5.29851 33.8049 5.65322 34.1098C6.76778 35.0692 7.32708 35.5512 7.41074 35.6773C7.95112 36.4945 7.58034 36.8395 8.15625 37.6527C8.65021 38.3502 8.94704 38.1307 9.49945 38.7926C10.3773 39.8443 9.97338 40.814 10.8175 41.4301C11.0725 41.6163 11.3653 41.7143 11.9326 41.7733C13.5927 41.9447 15.9181 42.1842 17.6154 40.4873C18.7214 39.3812 19.4961 37.5175 18.9999 35.9879C18.7082 35.0898 17.9644 34.2645 17.9123 34.2078C17.2172 33.4479 16.8756 33.5287 16.3799 32.7739C16.0115 32.2128 15.9943 31.8558 15.49 31.3893C15.2132 31.1337 15.1576 31.1853 14.6493 30.8454C13.5228 30.0923 13.4993 29.6413 12.6718 29.3129C12.2042 29.1272 12.1583 29.2499 11.6856 29.0258C11.0868 28.7421 11.0369 28.4865 10.5217 28.2659C10.1464 28.1048 10.1837 28.2458 9.21579 28.0756C8.74877 27.9936 8.625 27.9409 7.64854 27.7432C7.01591 27.6154 6.95918 27.6154 6.8887 27.6246C6.36895 27.691 6.12026 28.0997 5.55868 28.741C4.4 30.0666 4.01089 29.9823 3.86419 30.6488Z" fill="#E5DDCB" stroke="#796C53" stroke-width="0.263356" stroke-miterlimit="10"/>
<path d="M7.16505 27.7812C7.11863 27.3479 6.96332 27.1765 6.84642 27.0986C6.17195 26.6464 4.61331 27.8373 3.77552 28.8958C3.489 29.2574 2.94516 29.9452 3.18412 30.3521C3.31592 30.5767 3.63857 30.634 3.86664 30.6478C5.89807 32.2468 8.6733 34.7936 11.0463 38.5251C14.2937 43.632 15.049 48.2255 15.614 50.6486C17.5348 58.8818 22.4595 64.3228 31.0741 73.8409C40.6398 84.4101 52.37 92.5522 57.6019 94.6612C58.2379 94.9174 60.6075 95.8229 63.2234 97.8236C65.7883 99.7859 67.2318 101.763 67.7911 102.479C71.8471 107.676 80.5436 112.09 88.785 113.109C91.1775 113.405 96.528 114.006 102.312 111.704C104.342 110.896 104.276 110.586 107.934 108.629C115.96 104.333 117.729 105.048 121.901 102.304C126.993 98.9531 129.577 94.4549 131.124 91.7613C134.391 86.0721 135.209 81.007 135.604 78.408C136.645 71.545 135.676 66.2072 134.989 62.5949C133.815 56.4289 133.023 52.2716 130.07 48.1877C125.911 42.4366 116.419 35.3817 107.319 38.6999C101.364 40.8714 95.104 47.6569 96.6025 54.8643C97.9245 61.2252 104.558 64.3898 108.695 65.2352C111.806 65.8707 117.509 66.0112 119.792 62.7708C119.921 62.5886 121.149 60.804 120.504 59.6961C119.641 58.2141 116.533 59.8451 112.543 58.535C109.938 57.68 106.647 55.4695 106.793 53.1163C106.896 51.4434 108.725 49.8628 110.552 49.4118C114.854 48.3504 120.572 53.2017 122.66 58.535C123.088 59.6302 123.146 60.1878 123.59 70.3472C123.831 75.8519 123.949 78.6183 123.829 79.2997C122.901 84.5711 119.436 90.7503 114.009 92.9218C111.627 93.8749 111.272 93.0938 108.09 94.3483C103.938 95.9851 103.208 97.8413 100.033 99.2689C96.1612 101.01 92.4027 100.428 89.9781 100.054C89.0498 99.9097 81.8598 98.6998 76.8016 93.1069C75.4143 91.5727 75.0727 90.6884 73.0751 88.7869C70.3142 86.1598 67.7292 84.7683 66.7321 84.2215C62.9707 82.1584 59.3044 79.6608 51.9717 74.6656C44.0334 69.2578 38.676 63.913 36.8543 62.043C34.3203 59.4411 30.081 55.0408 25.8731 48.422C22.8595 43.6825 22.9386 42.6434 20.6676 39.4363C17.9044 35.5352 13.7269 31.3361 7.16505 27.7812Z" fill="#E5DDCB" stroke="#796C53" stroke-width="0.263356" stroke-miterlimit="10"/>
<path d="M6.07843 28.291C5.57931 28.769 5.08017 29.2475 4.58105 29.7255C4.88534 29.8842 5.32544 30.1261 5.83602 30.4527C6.36149 30.7886 7.20673 31.3709 8.6611 32.7016C9.78656 33.7309 10.3493 34.2456 10.7143 34.7132C11.4031 35.5964 11.6025 36.0537 12.9492 39.0757C14.2912 42.0868 14.882 42.622 17.2389 46.863C20.8932 53.4382 19.95 53.0084 22.9086 58.109C22.9086 58.109 26.0902 63.5942 30.2269 67.7784C30.8722 68.4312 31.742 69.2484 32.9798 70.0616C34.6594 71.1654 36.2416 71.7517 37.3441 72.0761C39.1876 74.1232 39.8649 74.5084 40.0918 74.3599C40.2947 74.227 40.0552 73.7238 40.4001 73.2418C40.7841 72.7048 41.4436 72.8223 41.5571 72.5478C41.6791 72.2515 41.1371 71.5723 38.5498 69.9642C38.6449 69.7023 38.7532 69.2937 38.7039 68.8071C38.5853 67.6328 37.6387 66.8935 37.1613 66.5319C35.9637 65.6241 34.9838 65.6132 33.9609 65.2596C32.9007 64.8922 31.8165 64.1644 29.8739 61.4806C26.5199 56.8487 23.5132 50.4065 20.6199 45.1437C18.4876 41.2649 17.3954 39.2786 15.3892 36.7741C12.1085 32.6764 8.60497 29.9702 6.07843 28.291Z" fill="#CCC2B0" stroke="#796C53" stroke-width="0.263356" stroke-miterlimit="10"/>
<path d="M6.07843 28.291C5.57931 28.769 5.08017 29.2475 4.58105 29.7255C4.88534 29.8842 5.32544 30.1261 5.83602 30.4527C6.36149 30.7886 7.20673 31.3709 8.6611 32.7016C9.78656 33.7309 10.3493 34.2456 10.7143 34.7132C11.4031 35.5964 11.6025 36.0537 12.9492 39.0757C14.2912 42.0868 14.882 42.622 17.2389 46.863C20.8932 53.4382 19.95 53.0084 22.9086 58.109C22.9086 58.109 26.0902 63.5942 30.2269 67.7784C30.8722 68.4312 31.742 69.2484 32.9798 70.0616C34.6594 71.1654 36.2416 71.7517 37.3441 72.0761C39.1876 74.1232 39.8649 74.5084 40.0918 74.3599C40.2947 74.227 40.0552 73.7238 40.4001 73.2418C40.7841 72.7048 41.4436 72.8223 41.5571 72.5478C41.6791 72.2515 41.1371 71.5723 38.5498 69.9642C38.6449 69.7023 38.7532 69.2937 38.7039 68.8071C38.5853 67.6328 37.6387 66.8935 37.1613 66.5319C35.9637 65.6241 34.9838 65.6132 33.9609 65.2596C32.9007 64.8922 31.8165 64.1644 29.8739 61.4806C26.5199 56.8487 23.5132 50.4065 20.6199 45.1437C18.4876 41.2649 17.3954 39.2786 15.3892 36.7741C12.1085 32.6764 8.60497 29.9702 6.07843 28.291Z" fill="url(#paint0_linear_4819_341550)" stroke="#796C53" stroke-width="0.263356" stroke-miterlimit="10"/>
<path d="M50.0813 80.8205C50.1547 80.5013 50.459 79.0416 49.7667 77.4868C49.3324 76.5114 48.7903 76.1348 47.5027 74.9703C44.0266 71.8268 43.9412 70.9144 42.5338 70.7557C40.8193 70.562 39.4773 71.75 39.326 71.8881C39.0928 72.1007 37.8344 73.2481 38.0051 74.5932C38.1312 75.5869 38.9099 75.6821 39.5775 77.1721C40.0348 78.1928 39.7993 78.4381 40.1437 79.4995C40.7941 81.5048 42.3058 82.7009 42.7224 83.0224C43.7195 83.7909 45.2449 84.9669 46.9995 84.5319C49.3146 83.9577 50.0223 81.0761 50.0813 80.8205Z" fill="#CCC2B0" stroke="#796C53" stroke-width="0.263356" stroke-miterlimit="10"/>
<path d="M50.0813 80.8205C50.1547 80.5013 50.459 79.0416 49.7667 77.4868C49.3324 76.5114 48.7903 76.1348 47.5027 74.9703C44.0266 71.8268 43.9412 70.9144 42.5338 70.7557C40.8193 70.562 39.4773 71.75 39.326 71.8881C39.0928 72.1007 37.8344 73.2481 38.0051 74.5932C38.1312 75.5869 38.9099 75.6821 39.5775 77.1721C40.0348 78.1928 39.7993 78.4381 40.1437 79.4995C40.7941 81.5048 42.3058 82.7009 42.7224 83.0224C43.7195 83.7909 45.2449 84.9669 46.9995 84.5319C49.3146 83.9577 50.0223 81.0761 50.0813 80.8205Z" fill="url(#paint1_linear_4819_341550)" stroke="#796C53" stroke-width="0.263356" stroke-miterlimit="10"/>
<path d="M49.8724 81.5082C48.5211 83.3662 47.8461 84.2958 47.9487 85.2838C48.006 85.8317 48.2799 86.5091 49.4775 87.5413C51.6815 89.44 54.0745 90.0096 55.3753 90.381C56.8532 90.8034 60.9332 91.9691 64.0397 94.6776C66.937 97.2032 66.6545 99.0366 70.3741 101.814C71.8967 102.951 71.8216 102.552 73.578 103.853C77.3102 106.618 77.5869 108.372 80.0579 109.096C81.6848 109.572 84.0004 109.524 84.7906 108.367C85.5568 107.246 84.5431 105.587 85.519 104.799C85.9092 104.485 86.5298 104.38 86.9751 104.581C87.7556 104.933 87.4897 105.992 88.2129 106.547C88.9727 107.13 90.0008 106.525 91.2706 106.402C93.3084 106.203 94.3639 107.397 96.0761 108.076C101.727 110.319 108.214 104.446 112.123 102.952C112.374 102.856 112.995 102.633 113.198 102.095C113.376 101.623 113.121 101.205 113.319 101.07C113.559 100.907 113.984 101.49 114.706 101.492C115.11 101.493 115.407 101.312 115.611 101.191C118.142 99.6899 119.677 99.663 122.001 97.4187C123.505 95.9647 124.282 95.2145 124.623 94.0666C124.708 93.7812 124.861 93.1508 125.388 92.5686C125.965 91.9307 126.661 91.7152 126.85 91.6447C129.158 90.7873 130.285 83.9491 130.468 82.7914C130.961 79.6823 131.249 77.8598 131.238 74.5536C131.229 71.7299 131.211 66.435 129.545 60.9269C128.32 56.8797 124.688 44.8725 115.227 42.5268C110.857 41.4437 103.771 42.0569 100.754 47.2228C98.5345 51.0254 99.1591 56.1971 101.986 59.6947C106.366 65.1129 114.241 64.299 116.073 62.774C116.259 62.6193 116.951 61.9837 118.075 61.4587C119.107 60.9762 120.048 60.7991 120.67 60.7246C120.699 60.5779 120.74 60.2529 120.595 59.8942C120.52 59.7073 120.418 59.5698 120.337 59.4787C120.197 59.5417 120.002 59.6242 119.766 59.7068C119.5 59.7996 118.613 60.0907 117.637 60.0919C116.81 60.093 116.524 59.885 115.773 59.7474C114.182 59.4563 113.578 60.0432 112.368 60.0311C110.761 60.0151 109.604 58.9589 108.112 57.5977C106.344 55.9845 104.75 54.5288 104.803 52.7086C104.873 50.3273 107.744 48.0687 110.401 47.5856C115.759 46.6113 121.579 52.6169 124.08 58.0086C125.936 62.0118 125.838 65.4074 125.643 72.1443C125.459 78.4776 125.337 82.6928 122.582 87.0616C122.582 87.0616 119.53 91.8997 114.765 94.3578C113.626 94.9458 113.056 95.2392 112.689 95.261C112.559 95.2684 112.286 95.269 112.098 95.4581C111.843 95.7126 111.979 96.0714 111.769 96.182C111.6 96.2719 111.427 96.0805 111.003 95.9619C110.684 95.8719 110.434 95.8828 110.128 95.896C109.354 95.9298 108.746 96.2972 108.573 96.3997C106.803 97.4451 104.792 98.0388 103.028 99.0951C100.06 100.874 95.118 103.835 91.1692 102.445C89.2226 101.761 88.7108 100.438 86.6639 100.481C86.4261 100.487 84.0434 100.57 82.8423 102.213C82.0893 103.243 82.1014 104.473 81.6481 104.483C81.4143 104.488 81.2131 104.127 80.812 103.408C80.188 102.288 80.2258 101.894 79.737 101.557C79.3594 101.296 79.2035 101.439 78.662 101.198C77.8998 100.859 77.4895 100.256 77.2288 99.8842C76.7285 99.173 75.5584 97.5093 74.661 96.6594C72.9768 95.0638 71.9259 96.0255 70.3615 94.5091C69.0509 93.2385 69.8515 92.6247 68.3312 90.8659C67.2395 89.6027 66.388 89.4119 65.1067 87.7006C64.6098 87.0369 64.3508 86.5487 64.1514 86.2077C62.4478 83.2963 58.6135 80.0629 54.5593 79.417C52.9421 79.1596 52.0402 79.433 51.4373 79.7849C50.9078 80.0921 50.5554 80.5683 49.8724 81.5082Z" fill="#CCC2B0" stroke="#796C53" stroke-width="0.263356" stroke-miterlimit="10"/>
<path d="M49.8724 81.5082C48.5211 83.3662 47.8461 84.2958 47.9487 85.2838C48.006 85.8317 48.2799 86.5091 49.4775 87.5413C51.6815 89.44 54.0745 90.0096 55.3753 90.381C56.8532 90.8034 60.9332 91.9691 64.0397 94.6776C66.937 97.2032 66.6545 99.0366 70.3741 101.814C71.8967 102.951 71.8216 102.552 73.578 103.853C77.3102 106.618 77.5869 108.372 80.0579 109.096C81.6848 109.572 84.0004 109.524 84.7906 108.367C85.5568 107.246 84.5431 105.587 85.519 104.799C85.9092 104.485 86.5298 104.38 86.9751 104.581C87.7556 104.933 87.4897 105.992 88.2129 106.547C88.9727 107.13 90.0008 106.525 91.2706 106.402C93.3084 106.203 94.3639 107.397 96.0761 108.076C101.727 110.319 108.214 104.446 112.123 102.952C112.374 102.856 112.995 102.633 113.198 102.095C113.376 101.623 113.121 101.205 113.319 101.07C113.559 100.907 113.984 101.49 114.706 101.492C115.11 101.493 115.407 101.312 115.611 101.191C118.142 99.6899 119.677 99.663 122.001 97.4187C123.505 95.9647 124.282 95.2145 124.623 94.0666C124.708 93.7812 124.861 93.1508 125.388 92.5686C125.965 91.9307 126.661 91.7152 126.85 91.6447C129.158 90.7873 130.285 83.9491 130.468 82.7914C130.961 79.6823 131.249 77.8598 131.238 74.5536C131.229 71.7299 131.211 66.435 129.545 60.9269C128.32 56.8797 124.688 44.8725 115.227 42.5268C110.857 41.4437 103.771 42.0569 100.754 47.2228C98.5345 51.0254 99.1591 56.1971 101.986 59.6947C106.366 65.1129 114.241 64.299 116.073 62.774C116.259 62.6193 116.951 61.9837 118.075 61.4587C119.107 60.9762 120.048 60.7991 120.67 60.7246C120.699 60.5779 120.74 60.2529 120.595 59.8942C120.52 59.7073 120.418 59.5698 120.337 59.4787C120.197 59.5417 120.002 59.6242 119.766 59.7068C119.5 59.7996 118.613 60.0907 117.637 60.0919C116.81 60.093 116.524 59.885 115.773 59.7474C114.182 59.4563 113.578 60.0432 112.368 60.0311C110.761 60.0151 109.604 58.9589 108.112 57.5977C106.344 55.9845 104.75 54.5288 104.803 52.7086C104.873 50.3273 107.744 48.0687 110.401 47.5856C115.759 46.6113 121.579 52.6169 124.08 58.0086C125.936 62.0118 125.838 65.4074 125.643 72.1443C125.459 78.4776 125.337 82.6928 122.582 87.0616C122.582 87.0616 119.53 91.8997 114.765 94.3578C113.626 94.9458 113.056 95.2392 112.689 95.261C112.559 95.2684 112.286 95.269 112.098 95.4581C111.843 95.7126 111.979 96.0714 111.769 96.182C111.6 96.2719 111.427 96.0805 111.003 95.9619C110.684 95.8719 110.434 95.8828 110.128 95.896C109.354 95.9298 108.746 96.2972 108.573 96.3997C106.803 97.4451 104.792 98.0388 103.028 99.0951C100.06 100.874 95.118 103.835 91.1692 102.445C89.2226 101.761 88.7108 100.438 86.6639 100.481C86.4261 100.487 84.0434 100.57 82.8423 102.213C82.0893 103.243 82.1014 104.473 81.6481 104.483C81.4143 104.488 81.2131 104.127 80.812 103.408C80.188 102.288 80.2258 101.894 79.737 101.557C79.3594 101.296 79.2035 101.439 78.662 101.198C77.8998 100.859 77.4895 100.256 77.2288 99.8842C76.7285 99.173 75.5584 97.5093 74.661 96.6594C72.9768 95.0638 71.9259 96.0255 70.3615 94.5091C69.0509 93.2385 69.8515 92.6247 68.3312 90.8659C67.2395 89.6027 66.388 89.4119 65.1067 87.7006C64.6098 87.0369 64.3508 86.5487 64.1514 86.2077C62.4478 83.2963 58.6135 80.0629 54.5593 79.417C52.9421 79.1596 52.0402 79.433 51.4373 79.7849C50.9078 80.0921 50.5554 80.5683 49.8724 81.5082Z" fill="url(#paint2_linear_4819_341550)" stroke="#796C53" stroke-width="0.263356" stroke-miterlimit="10"/>
<path d="M7.16328 27.7808C7.26815 28.4708 6.85669 29.025 6.6504 29.3018C5.99598 30.1821 4.78402 30.8778 3.68893 30.6285C3.46487 30.5775 3.14682 30.5047 3.03737 30.2623C2.79497 29.7241 3.79263 28.8215 4.27915 28.3814C4.67856 28.0198 6.1765 26.665 6.84409 27.0982C7.08248 27.253 7.13291 27.5814 7.16328 27.7808Z" fill="#E5DDCB" stroke="#796C53" stroke-width="0.263356" stroke-miterlimit="10"/>
<path d="M7.16505 27.7812C7.11863 27.3479 6.96332 27.1765 6.84642 27.0986C6.17195 26.6464 4.61331 27.8373 3.77552 28.8958C3.489 29.2574 2.94516 29.9452 3.18412 30.3521C3.31592 30.5767 3.63857 30.634 3.86664 30.6478C5.89807 32.2468 8.6733 34.7936 11.0463 38.5251C14.2937 43.632 15.049 48.2255 15.614 50.6486C17.5348 58.8818 22.4595 64.3228 31.0741 73.8409C40.6398 84.4101 52.37 92.5522 57.6019 94.6612C58.2379 94.9174 60.6075 95.8229 63.2234 97.8236C65.7883 99.7859 67.2318 101.763 67.7911 102.479C71.8471 107.676 80.5436 112.09 88.785 113.109C91.1775 113.405 96.528 114.006 102.312 111.704C104.342 110.896 104.276 110.586 107.934 108.629C115.96 104.333 117.729 105.048 121.901 102.304C126.993 98.9531 129.577 94.4549 131.124 91.7613C134.391 86.0721 135.209 81.007 135.604 78.408C136.645 71.545 135.676 66.2072 134.989 62.5949C133.815 56.4289 133.023 52.2716 130.07 48.1877C125.911 42.4366 116.419 35.3817 107.319 38.6999C101.364 40.8714 95.104 47.6569 96.6025 54.8643C97.9245 61.2252 104.558 64.3898 108.695 65.2352C111.806 65.8707 117.509 66.0112 119.792 62.7708C119.921 62.5886 121.149 60.804 120.504 59.6961C119.641 58.2141 116.533 59.8451 112.543 58.535C109.938 57.68 106.647 55.4695 106.793 53.1163C106.896 51.4434 108.725 49.8628 110.552 49.4118C114.854 48.3504 120.572 53.2017 122.66 58.535C123.088 59.6302 123.146 60.1878 123.59 70.3472C123.831 75.8519 123.949 78.6183 123.829 79.2997C122.901 84.5711 119.436 90.7503 114.009 92.9218C111.627 93.8749 111.272 93.0938 108.09 94.3483C103.938 95.9851 103.208 97.8413 100.033 99.2689C96.1612 101.01 92.4027 100.428 89.9781 100.054C89.0498 99.9097 81.8598 98.6998 76.8016 93.1069C75.4143 91.5727 75.0727 90.6884 73.0751 88.7869C70.3142 86.1598 67.7292 84.7683 66.7321 84.2215C62.9707 82.1584 59.3044 79.6608 51.9717 74.6656C44.0334 69.2578 38.676 63.913 36.8543 62.043C34.3203 59.4411 30.081 55.0408 25.8731 48.422C22.8595 43.6825 22.9386 42.6434 20.6676 39.4363C17.9044 35.5352 13.7269 31.3361 7.16505 27.7812Z" fill="url(#paint3_linear_4819_341550)" stroke="#796C53" stroke-width="0.263356" stroke-miterlimit="10"/>
<defs>
<linearGradient id="paint0_linear_4819_341550" x1="134.836" y1="121.131" x2="11.487" y2="44.1988" gradientUnits="userSpaceOnUse">
<stop stop-color="#766551"/>
<stop offset="1" stop-color="#766551" stop-opacity="0"/>
</linearGradient>
<linearGradient id="paint1_linear_4819_341550" x1="94.7188" y1="99.3912" x2="21.9424" y2="68.168" gradientUnits="userSpaceOnUse">
<stop stop-color="#766551"/>
<stop offset="1" stop-color="#766551" stop-opacity="0"/>
</linearGradient>
<linearGradient id="paint2_linear_4819_341550" x1="-181.84" y1="44.4689" x2="164.973" y2="83.3383" gradientUnits="userSpaceOnUse">
<stop stop-color="#766551"/>
<stop offset="1" stop-color="#766551" stop-opacity="0"/>
</linearGradient>
<linearGradient id="paint3_linear_4819_341550" x1="52.4221" y1="277.476" x2="69.3556" y2="55.1565" gradientUnits="userSpaceOnUse">
<stop stop-color="#766551"/>
<stop offset="1" stop-color="#766551" stop-opacity="0"/>
</linearGradient>
</defs>
</svg>
