<svg width="1136" height="872" viewBox="0 0 1136 872" fill="none" xmlns="http://www.w3.org/2000/svg">
<path d="M363.923 391.019C361.54 424.156 351.959 493.759 304.315 564.191C267.677 618.356 223.971 650.179 197.097 666.738C182.08 683.323 156.524 716.494 146.873 764.835C143.014 784.169 142.574 801.542 143.424 815.7C150.735 817.288 158.049 818.876 165.36 820.463C168.64 822.371 172.246 824.833 175.872 828.02C185.759 836.706 191.036 846.565 193.818 853.174C192.329 855.791 188.669 861.335 181.707 864.694C168.389 871.122 155.122 863.702 153.827 862.95C150.472 863.818 146.495 864.495 142.013 864.585C127.36 864.882 116.194 858.737 110.803 855.199C107.22 850.731 102.597 844.09 98.7333 835.29C92.3143 820.667 91.5758 808.235 91.4399 805.028C90.8125 790.228 94.8827 779.936 97.1953 772.201C110.459 727.821 84.3912 705.551 100.713 673.427C106.951 661.146 110.414 665.083 126.013 646.678C155.487 611.899 173.48 562.021 159.261 548.254C155.741 544.846 148.57 542.028 132.189 546.519C134.282 543.482 137.462 537.888 138.087 530.361C138.309 527.693 138.167 525.297 137.881 523.272C135.97 523.806 132.393 525.088 129.005 528.223C124.855 532.062 123.356 536.492 122.824 538.434C123.422 533.704 124.346 528.508 125.755 522.968C128.248 513.156 131.605 504.839 134.887 498.139C133.36 500.463 130.64 503.935 126.239 506.857C123.587 508.617 121.055 509.693 119.037 510.366C122.307 501.988 126.493 489.054 128.081 472.894C130.196 451.383 126.645 435.055 124.989 426.77C116.162 382.595 109.426 348.886 117.662 322.763C132.83 274.644 197.514 256.363 210.563 252.922C261.681 298.958 312.802 344.99 363.923 391.019Z" fill="#CC8547"/>
<path d="M363.923 391.019C361.54 424.156 351.959 493.759 304.315 564.191C267.677 618.356 223.971 650.179 197.097 666.738C182.08 683.323 156.524 716.494 146.873 764.835C143.014 784.169 142.574 801.542 143.424 815.7C150.735 817.288 158.049 818.876 165.36 820.463C168.64 822.371 172.246 824.833 175.872 828.02C185.759 836.706 191.036 846.565 193.818 853.174C192.329 855.791 188.669 861.335 181.707 864.694C168.389 871.122 155.122 863.702 153.827 862.95C150.472 863.818 146.495 864.495 142.013 864.585C127.36 864.882 116.194 858.737 110.803 855.199C107.22 850.731 102.597 844.09 98.7333 835.29C92.3143 820.667 91.5758 808.235 91.4399 805.028C90.8125 790.228 94.8827 779.936 97.1953 772.201C110.459 727.821 84.3912 705.551 100.713 673.427C106.951 661.146 110.414 665.083 126.013 646.678C155.487 611.899 173.48 562.021 159.261 548.254C155.741 544.846 148.57 542.028 132.189 546.519C134.282 543.482 137.462 537.888 138.087 530.361C138.309 527.693 138.167 525.297 137.881 523.272C135.97 523.806 132.393 525.088 129.005 528.223C124.855 532.062 123.356 536.492 122.824 538.434C123.422 533.704 124.346 528.508 125.755 522.968C128.248 513.156 131.605 504.839 134.887 498.139C133.36 500.463 130.64 503.935 126.239 506.857C123.587 508.617 121.055 509.693 119.037 510.366C122.307 501.988 126.493 489.054 128.081 472.894C130.196 451.383 126.645 435.055 124.989 426.77C116.162 382.595 109.426 348.886 117.662 322.763C132.83 274.644 197.514 256.363 210.563 252.922C261.681 298.958 312.802 344.99 363.923 391.019Z" fill="url(#paint0_linear_4172_276544)"/>
<path d="M363.922 391.019C312.801 344.987 261.68 298.958 210.559 252.927C205.058 254.376 190.378 258.465 174.1 266.317C173.407 266.886 172.711 267.454 172.032 268.041C165.457 273.719 159.595 280.22 154.884 287.534C150.265 294.702 146.852 302.573 144.424 310.734C151.128 305.941 159.452 303.463 167.275 301.277C167.891 301.105 168.444 301.724 168.036 302.29C164.372 307.379 159.733 311.585 155.133 315.805C150.945 319.644 146.804 323.588 143.593 328.31C139.81 333.873 137.298 340.394 135.52 346.849C133.128 355.535 132.025 364.464 130.82 373.374C133.124 370.745 135.946 368.457 138.403 366.201C142.788 362.176 147.688 357.495 148.249 351.218C148.326 350.36 149.565 350.582 149.547 351.402C149.405 357.814 148.804 364.197 148.08 370.566C147.466 375.961 146.768 381.347 146.231 386.749C145.706 392.024 145.626 397.318 145.169 402.593C144.8 406.846 144.05 411.082 142.582 415.105C141.445 418.221 139.869 421.132 137.998 423.852C145.303 418.878 150.274 410.581 153.108 402.4C153.339 401.734 154.236 402.004 154.358 402.577C155.448 407.635 155.493 412.835 154.779 417.947C152.195 436.495 141.271 452.307 135.701 469.908C141.694 469.464 147.617 467.181 152.804 464.271C154.023 463.587 155.25 462.835 156.451 462.017C159.303 457.861 162.56 453.967 166.453 450.486C166.974 450.019 167.658 450.708 167.447 451.27C165.626 456.146 161.697 459.972 157.393 462.941C156.227 464.649 155.121 466.4 154.086 468.191C144.261 485.174 138.938 505.446 126.404 520.535C126.182 521.342 125.957 522.144 125.747 522.97C124.338 528.51 123.414 533.706 122.816 538.436C123.348 536.495 124.848 532.064 128.997 528.225C132.385 525.09 135.962 523.808 137.873 523.274C138.159 525.299 138.299 527.695 138.08 530.363C137.454 537.89 134.272 543.484 132.181 546.522C148.562 542.03 155.733 544.848 159.253 548.257C173.47 562.021 155.479 611.901 126.005 646.68C110.408 665.085 106.945 661.148 100.705 673.429C84.3834 705.553 110.451 727.823 97.1875 772.203C94.8749 779.938 90.8047 790.23 91.4321 805.03C91.568 808.237 92.3063 820.669 98.7253 835.292C102.589 844.094 107.212 850.733 110.796 855.201C116.186 858.739 127.353 864.884 142.005 864.588C146.487 864.497 150.465 863.82 153.819 862.952C155.117 863.707 168.381 871.124 181.699 864.696C188.661 861.335 192.322 855.79 193.81 853.176C191.028 846.567 185.751 836.708 175.864 828.022C172.238 824.835 168.634 822.373 165.352 820.465C158.041 818.878 150.727 817.29 143.416 815.702C142.567 801.542 143.006 784.171 146.865 764.837C156.517 716.496 182.073 683.325 197.089 666.741C223.964 650.181 267.669 618.358 304.307 564.193C351.96 493.759 361.541 424.156 363.922 391.019Z" fill="url(#paint1_linear_4172_276544)"/>
<path d="M169.725 834.342C181.222 841.868 184.259 853.184 180.622 858.357C177.36 863 168.977 862.339 167.759 862.23C165.677 860.851 163.12 858.817 160.703 855.902C155.845 850.04 154.244 843.852 153.648 840.512C154.33 842.163 157.856 851.107 153.367 857.653C152.851 858.405 152.187 859.186 151.324 859.941C140.097 858.228 134.815 853.9 132.067 850.339C127.732 844.718 129.437 840.654 123.442 831.558C119.438 825.483 117 825.669 114.627 820.097C112.373 814.808 111.447 809.012 110.674 803.352C106.464 772.485 110.45 759.221 110.45 759.221C113.485 716.41 110.765 719.16 113.784 709.953C119.089 693.778 128.305 682.784 137.345 672.005C153.813 652.365 157.754 656.515 166.862 642.177C173.564 631.625 176.4 617.928 182.067 590.535C182.982 586.119 184.352 579.165 182.576 570.599C181.582 565.806 179.646 561.202 177.313 556.914C172.604 548.259 165.535 539.356 156.293 535.306C152.425 533.612 148.06 532.987 144.013 534.448C140.049 535.879 137.023 538.905 134.663 542.334C133.809 544.026 132.93 545.44 132.189 546.518C148.57 542.026 155.741 544.844 159.261 548.253C173.478 562.017 155.487 611.897 126.013 646.676C110.416 665.081 106.953 661.144 100.713 673.425C84.3912 705.55 110.459 727.819 97.1953 772.199C94.8827 779.934 90.8125 790.226 91.4399 805.026C91.5758 808.233 92.3143 820.666 98.7333 835.288C102.597 844.09 107.22 850.729 110.803 855.197C116.194 858.735 127.36 864.88 142.013 864.584C146.495 864.493 150.472 863.816 153.827 862.949C155.125 863.703 168.389 871.12 181.707 864.692C186.998 862.14 190.377 858.328 192.35 855.494C184.81 848.446 177.267 841.395 169.725 834.342Z" fill="url(#paint2_linear_4172_276544)"/>
<path d="M920.39 828.459C920.913 830.688 921.256 834.251 919.539 839.191C918.372 840.067 915.111 842.258 910.497 842.296C907.575 842.323 905.294 841.483 903.999 840.881C901.863 842.113 898.076 843.947 892.993 844.55C887.596 845.204 883.244 844.183 880.846 843.424C877.741 844.629 872.146 846.332 865.03 845.965C857.181 845.56 851.349 842.833 848.362 841.17C846.371 841.956 835.231 846.201 829.166 840.883C827.002 838.996 826.074 836.414 824.645 828.736C822.744 818.582 822.155 811.098 821.813 807.56C820.255 791.47 819.283 781.499 812.366 774.96C809.943 772.693 805.435 769.522 797.179 768.591C797.193 768.068 797.193 767.517 797.207 766.967V766.953C798.91 765.696 800.6 764.122 802.095 762.145C804.061 759.577 805.186 756.983 805.854 754.924C804.729 756.392 801.911 759.681 797.311 761.855C798.543 760.179 800.024 757.635 801.673 753.758C803.207 750.154 805.107 744.886 806.378 738.138C805.866 740 804.713 743.051 802.04 745.83C800.534 747.402 798.869 748.53 797.218 749.354C797.139 742.985 796.955 735.846 796.629 728.061C794.257 673.697 787.272 662.82 781.993 656.938C777.576 651.998 768.523 644.057 750.743 640.311C754.242 640.023 758.579 639.013 762.72 636.236C765.42 634.442 767.32 632.359 768.616 630.628C767.082 631.636 763.347 633.851 758.303 634.402C760.02 633.222 762.235 631.296 765.051 628.164C767.671 625.256 771.182 620.891 774.577 614.929C773.49 616.515 771.406 619.031 767.986 620.787C764.382 622.635 760.754 622.884 757.843 622.594C765.954 600.594 769.755 582.001 771.719 568.296C775.648 540.857 773.225 526.156 777.105 489.925C779.791 464.806 783.879 444.561 786.853 431.615C840.837 440.065 894.837 448.53 948.834 456.996C934.474 482.389 923.926 504.26 916.692 520.219C913.666 526.876 878.588 604.984 874.907 650.922C872.968 674.968 872.601 686.669 872.601 686.669C872.155 700.125 872.563 702.956 871.528 710.123C869.091 726.791 863.587 733.971 860.98 743.065C857.77 754.229 858.031 771.237 873.834 796.643C880.882 796.695 887.919 796.761 894.968 796.826C896.094 798.792 898.046 801.977 900.891 805.581C910.289 817.467 918.361 819.904 920.39 828.459Z" fill="#CC8547"/>
<path d="M920.39 828.459C920.913 830.688 921.256 834.251 919.539 839.191C918.372 840.067 915.111 842.258 910.497 842.296C907.575 842.323 905.294 841.483 903.999 840.881C901.863 842.113 898.076 843.947 892.993 844.55C887.596 845.204 883.244 844.183 880.846 843.424C877.741 844.629 872.146 846.332 865.03 845.965C857.181 845.56 851.349 842.833 848.362 841.17C846.371 841.956 835.231 846.201 829.166 840.883C827.002 838.996 826.074 836.414 824.645 828.736C822.744 818.582 822.155 811.098 821.813 807.56C820.255 791.47 819.283 781.499 812.366 774.96C809.943 772.693 805.435 769.522 797.179 768.591C797.193 768.068 797.193 767.517 797.207 766.967V766.953C798.91 765.696 800.6 764.122 802.095 762.145C804.061 759.577 805.186 756.983 805.854 754.924C804.729 756.392 801.911 759.681 797.311 761.855C798.543 760.179 800.024 757.635 801.673 753.758C803.207 750.154 805.107 744.886 806.378 738.138C805.866 740 804.713 743.051 802.04 745.83C800.534 747.402 798.869 748.53 797.218 749.354C797.139 742.985 796.955 735.846 796.629 728.061C794.257 673.697 787.272 662.82 781.993 656.938C777.576 651.998 768.523 644.057 750.743 640.311C754.242 640.023 758.579 639.013 762.72 636.236C765.42 634.442 767.32 632.359 768.616 630.628C767.082 631.636 763.347 633.851 758.303 634.402C760.02 633.222 762.235 631.296 765.051 628.164C767.671 625.256 771.182 620.891 774.577 614.929C773.49 616.515 771.406 619.031 767.986 620.787C764.382 622.635 760.754 622.884 757.843 622.594C765.954 600.594 769.755 582.001 771.719 568.296C775.648 540.857 773.225 526.156 777.105 489.925C779.791 464.806 783.879 444.561 786.853 431.615C840.837 440.065 894.837 448.53 948.834 456.996C934.474 482.389 923.926 504.26 916.692 520.219C913.666 526.876 878.588 604.984 874.907 650.922C872.968 674.968 872.601 686.669 872.601 686.669C872.155 700.125 872.563 702.956 871.528 710.123C869.091 726.791 863.587 733.971 860.98 743.065C857.77 754.229 858.031 771.237 873.834 796.643C880.882 796.695 887.919 796.761 894.968 796.826C896.094 798.792 898.046 801.977 900.891 805.581C910.289 817.467 918.361 819.904 920.39 828.459Z" fill="url(#paint3_linear_4172_276544)"/>
<path d="M920.39 828.459C920.913 830.688 921.256 834.251 919.539 839.191C918.372 840.067 915.111 842.258 910.497 842.296C907.575 842.323 905.294 841.483 903.999 840.881C901.863 842.113 898.076 843.947 892.993 844.55C887.596 845.204 883.244 844.183 880.846 843.424C877.741 844.629 872.146 846.332 865.03 845.965C857.181 845.56 851.349 842.833 848.362 841.17C846.371 841.956 835.231 846.201 829.166 840.883C827.002 838.996 826.074 836.414 824.645 828.736C822.744 818.582 822.155 811.098 821.813 807.56C820.255 791.47 819.283 781.499 812.366 774.96C809.943 772.693 805.435 769.522 797.179 768.591C797.193 768.068 797.193 767.517 797.207 766.967V766.953C798.91 765.696 800.6 764.122 802.095 762.145C804.061 759.577 805.186 756.983 805.854 754.924C804.729 756.392 801.911 759.681 797.311 761.855C798.543 760.179 800.024 757.635 801.673 753.758C803.207 750.154 805.107 744.886 806.378 738.138C805.866 740 804.713 743.051 802.04 745.83C800.534 747.402 798.869 748.53 797.218 749.354C797.139 742.985 796.955 735.846 796.629 728.061C794.257 673.697 787.272 662.82 781.993 656.938C777.576 651.998 768.523 644.057 750.743 640.311C754.242 640.023 758.579 639.013 762.72 636.236C765.42 634.442 767.32 632.359 768.616 630.628C767.082 631.636 763.347 633.851 758.303 634.402C760.02 633.222 762.235 631.296 765.051 628.164C767.671 625.256 771.182 620.891 774.577 614.929C773.49 616.515 771.406 619.031 767.986 620.787C764.382 622.635 760.754 622.884 757.843 622.594C765.954 600.594 769.755 582.001 771.719 568.296C775.648 540.857 773.225 526.156 777.105 489.925C779.791 464.806 783.879 444.561 786.853 431.615C840.837 440.065 894.837 448.53 948.834 456.996C934.474 482.389 923.926 504.26 916.692 520.219C913.666 526.876 878.588 604.984 874.907 650.922C872.968 674.968 872.601 686.669 872.601 686.669C872.155 700.125 872.563 702.956 871.528 710.123C869.091 726.791 863.587 733.971 860.98 743.065C857.77 754.229 858.031 771.237 873.834 796.643C880.882 796.695 887.919 796.761 894.968 796.826C896.094 798.792 898.046 801.977 900.891 805.581C910.289 817.467 918.361 819.904 920.39 828.459Z" fill="url(#paint4_linear_4172_276544)"/>
<path d="M918.966 824.788C917.858 830.688 916.06 833.965 913.57 834.622C908.621 835.927 900.943 826.88 890.536 807.481C894.884 817.345 898.141 824.432 900.572 829.603C901.808 832.235 903.192 835.143 901.94 837.358C900.125 840.568 893.679 840.708 889.892 839.585C877.546 835.918 875.577 813.499 875.485 812.271C875.423 814.099 875.412 816.81 875.722 820.067C876.871 832.167 880.943 836.14 878.907 839.412C876.212 843.748 864.536 844.085 858.382 838.5C853.145 833.748 855.113 827.619 853.365 817.062C849.908 796.194 837.788 793.377 832.375 773.295C830.479 766.265 829.061 755.846 831.972 741.93C829.113 744.77 826.182 747.649 823.913 750.974C823.487 751.599 822.572 751.203 822.715 750.469C824.432 741.649 823.546 732.303 821.913 723.54C820.364 715.232 817.999 706.847 814.124 699.296C811.614 702.315 807.99 704.283 805.723 707.518C805.383 708.002 804.45 707.891 804.502 707.187C804.935 701.228 805.148 695.255 805.166 689.28C805.236 668.182 803.057 647.165 801.53 626.143C797.746 626.875 793.768 625.047 789.997 624.97C789.394 624.959 789.182 624.279 789.535 623.851C794.128 618.248 796.842 611.249 796.556 604.014C795.526 605.419 794.348 606.685 792.955 607.779C791.141 609.199 789.15 610.372 787.297 611.742C786.867 612.062 786.339 611.62 786.312 611.176C785.854 603.985 785.612 596.782 785.363 589.582C784.905 576.295 784.443 562.982 782.867 549.772C781.492 538.253 779.259 526.692 775.073 515.838C774.094 535.29 774.57 548.47 771.73 568.298C769.764 582.003 765.966 600.596 757.855 622.596C760.763 622.884 764.393 622.635 767.997 620.789C771.417 619.033 773.501 616.517 774.588 614.932C771.195 620.893 767.682 625.258 765.062 628.166C762.244 631.298 760.031 633.224 758.314 634.404C763.359 633.853 767.094 631.638 768.627 630.63C767.329 632.361 765.431 634.442 762.731 636.238C758.591 639.018 754.253 640.025 750.754 640.313C768.534 644.062 777.59 652.001 782.004 656.941C787.284 662.823 794.269 673.699 796.64 728.064C796.969 735.846 797.152 742.988 797.229 749.357C798.88 748.53 800.545 747.404 802.051 745.832C804.724 743.053 805.877 740.002 806.389 738.14C805.118 744.888 803.218 750.156 801.684 753.76C800.033 757.637 798.552 760.181 797.322 761.857C801.922 759.683 804.737 756.394 805.865 754.926C805.197 756.983 804.072 759.579 802.106 762.147C800.613 764.127 798.921 765.698 797.218 766.955V766.969C797.204 767.52 797.204 768.07 797.191 768.593C805.447 769.524 809.954 772.695 812.377 774.962C819.295 781.501 820.266 791.472 821.825 807.562C822.164 811.1 822.756 818.582 824.656 828.738C826.083 836.416 827.014 838.998 829.177 840.885C835.242 846.205 846.382 841.959 848.373 841.173C851.36 842.837 857.19 845.562 865.041 845.967C872.155 846.334 877.75 844.631 880.857 843.426C883.256 844.185 887.605 845.209 893.004 844.552C898.089 843.949 901.876 842.115 904.01 840.883C905.308 841.485 907.586 842.323 910.508 842.298C915.12 842.26 918.383 840.069 919.55 839.193C921.267 834.253 920.925 830.688 920.402 828.461C920.069 827.098 919.577 825.902 918.966 824.788Z" fill="url(#paint5_linear_4172_276544)"/>
<path d="M1067.18 141.189C1068.14 147.612 1068.89 157.938 1066.17 170.147C1063.16 183.587 1057.28 193.29 1053.37 198.767C1046 199.043 1036.14 198.545 1025.09 195.399C1002.49 188.973 988.154 175.279 981.651 168.126C982.686 162.371 985.117 153.259 991.416 143.884C1001.59 128.747 1015.54 122.29 1021.38 119.977C1036.65 127.046 1051.91 134.117 1067.18 141.189Z" fill="#C36967"/>
<path d="M1067.18 141.189C1068.14 147.612 1068.89 157.938 1066.17 170.147C1063.16 183.587 1057.28 193.29 1053.37 198.767C1046 199.043 1036.14 198.545 1025.09 195.399C1002.49 188.973 988.154 175.279 981.651 168.126C982.686 162.371 985.117 153.259 991.416 143.884C1001.59 128.747 1015.54 122.29 1021.38 119.977C1036.65 127.046 1051.91 134.117 1067.18 141.189Z" fill="url(#paint6_linear_4172_276544)"/>
<path d="M1003.34 140.359C1000.85 141.639 991.242 146.921 990.413 155.439C989.434 165.485 1001.31 173.448 1008.31 178.144C1016.68 183.756 1024.35 185.996 1027.35 186.832C1049.68 193.061 1073.14 194.021 1088.29 193.91C1087.98 200.68 1087.67 207.453 1087.36 214.223C1070.43 217.453 1037.37 221.233 1001.8 206.837C974.026 195.596 938.705 170.835 943.323 155.439C948.096 139.535 993.532 140.124 1003.34 140.359Z" fill="black"/>
<path d="M1126.08 95.9336C1127.7 99.2314 1131.29 107.659 1129.83 118.507C1129.67 119.725 1127.5 134.454 1116.91 142.513C1103.89 152.422 1081 150.074 1063.36 134.203C1084.26 121.446 1105.17 108.69 1126.08 95.9336Z" fill="#B8793C"/>
<path d="M1126.08 95.9336C1127.7 99.2314 1131.29 107.659 1129.83 118.507C1129.67 119.725 1127.5 134.454 1116.91 142.513C1103.89 152.422 1081 150.074 1063.36 134.203C1084.26 121.446 1105.17 108.69 1126.08 95.9336Z" fill="url(#paint7_linear_4172_276544)"/>
<path d="M933.837 10.0973C932.614 8.28536 929.683 4.48026 924.428 2.06578C920.693 0.348918 917.298 0.0294449 915.248 0C916.832 0.362399 920.707 1.48584 923.511 5.04867C924.426 6.21288 925.024 7.37718 925.42 8.37151C923.235 7.54252 919.939 6.57764 915.84 6.38964C911.595 6.19712 908.125 6.91279 905.842 7.57191C906.85 7.45186 910.385 7.15509 913.874 9.40876C916.789 11.291 918.039 13.9002 918.462 14.9172C920.655 22.5072 927.355 25.7552 930.854 24.326C934.15 22.9806 936.521 16.7066 933.837 10.0973Z" fill="#B8793C"/>
<path d="M202.211 225.883C186.023 218.225 156.567 242.173 152.954 245.162C125.512 267.873 118.653 298.095 108.884 337.939C84.8484 435.981 72.828 485.002 58.6311 514.989C35.5168 563.799 23.2541 562.406 10.697 604.673C4.04246 627.067 -12.3854 682.367 16.5385 728.036C26.0605 743.071 37.8135 752.822 46.2144 758.668C42.9709 752.083 36.1328 735.895 38.9754 715.23C40.7194 702.553 45.451 692.956 48.9301 687.176C50.8349 690.988 53.9879 698.715 53.0026 708.441C52.6221 712.204 51.707 715.409 50.7398 717.943C56.699 709.028 63.5597 696.612 68.3864 680.84C70.964 672.417 72.4815 664.607 73.3648 657.764C75.1361 660.845 76.9887 664.779 78.3409 669.529C81.3783 680.193 80.3274 689.472 79.247 694.867C85.6388 685.042 92.2277 673.284 98.0623 659.565C100.803 653.124 103.095 646.911 105.02 641.01C106.171 643.844 107.306 647.18 108.205 650.979C109.464 656.299 109.917 661.083 110.015 665.006C115.593 660.145 128.436 647.611 134.132 626.911C138.178 612.211 136.898 599.647 135.625 592.596C137.607 593.504 142.119 595.899 145.57 601.051C148.71 605.735 149.373 610.318 149.55 612.49C153.065 606.29 160.846 590.537 158.501 570.218C157.373 560.431 154.248 552.644 151.539 547.342C153.661 548.159 156.599 549.591 159.53 552.119C164.388 556.309 166.542 561.203 167.453 563.754C170.411 553.6 173.287 539.437 172.929 522.488C172.71 512.121 171.33 503.032 169.656 495.555C226.578 293.479 221.903 235.199 202.211 225.883Z" fill="#CC8547"/>
<path d="M172.929 522.488C173.033 527.598 172.85 532.458 172.444 537.034C171.79 544.791 170.519 551.722 169.076 557.67C168.553 559.831 168.003 561.863 167.452 563.749C166.535 561.194 164.386 556.307 159.525 552.114C156.603 549.584 153.654 548.157 151.532 547.344C154.245 552.637 157.375 560.433 158.503 570.209C160.848 590.533 153.065 606.295 149.554 612.492C149.371 610.318 148.703 605.731 145.57 601.054C142.112 595.892 137.604 593.507 135.625 592.59C136.895 599.652 138.18 612.204 134.132 626.906C128.431 647.608 115.591 660.15 110.01 665.01C109.919 661.081 109.46 656.297 108.202 650.976C107.312 647.176 106.171 643.849 105.018 641.006C103.093 646.915 100.798 653.126 98.0598 659.561C92.2297 673.28 85.6387 685.046 79.2446 694.874C80.3318 689.474 81.3804 680.199 78.3408 669.533C76.9908 664.777 75.1313 660.847 73.3623 657.767C72.4835 664.607 70.9637 672.417 68.3839 680.843C63.5617 696.618 56.6966 709.028 50.7464 717.95C51.7023 715.409 52.6196 712.21 53.0001 708.451C53.9831 698.716 50.837 690.983 48.9253 687.184C45.4531 692.962 40.7238 702.555 38.9798 715.239C36.1372 735.902 42.9752 752.083 46.2119 758.674C37.8133 752.817 26.0603 743.069 16.5338 728.038C-12.3856 682.374 4.04681 627.065 10.7036 604.673C21.6707 567.736 32.4294 564.146 50.3931 531.231C52.9865 526.488 55.7272 521.143 58.6355 514.995C72.8392 485.002 84.8549 435.984 108.886 337.946C118.662 298.1 125.514 267.869 152.952 245.162C156.569 242.175 186.025 218.223 202.22 225.887C209.23 229.215 214.354 238.741 215.441 258.789C217.42 294.992 206.295 365.488 169.658 495.548C171.33 503.03 172.707 512.11 172.929 522.488Z" fill="url(#paint8_linear_4172_276544)"/>
<path d="M169.654 495.551C173.973 480.215 177.935 465.719 181.566 451.997C179.237 450.84 176.945 449.605 174.687 448.28C171.153 446.206 167.634 444.072 163.93 442.314C164.223 442.831 163.661 443.603 163.052 443.214C158.678 440.409 154.95 436.765 151.74 432.695C140.257 418.124 135.19 400.022 126.717 383.773C127.011 390.308 127.589 396.827 128.438 403.314C131.933 429.975 139.464 455.875 145.795 481.947C145.906 482.403 145.48 482.926 144.988 482.754C138.461 480.47 132.757 475.512 128.603 469.97C128.556 483.689 128.078 497.424 126.293 511.036C124.454 525.054 121.176 538.808 116.443 552.132C116.2 552.814 115.161 552.724 115.156 551.958C115.09 543.55 112.742 535.557 109.974 527.707C110.588 533.005 110.431 538.368 109.575 543.686C104.708 573.965 81.0181 598.705 80.0306 629.892C80.0125 630.499 79.3465 630.703 78.9116 630.356C73.5957 626.109 70.7214 619.303 68.7033 612.988C66.6082 606.431 65.3421 599.591 64.6784 592.739C60.7011 596.173 57.5414 600.415 54.9707 604.993C44.2844 624.03 42.2324 646.578 37.4985 667.516C37.3717 668.077 36.579 668.138 36.3004 667.672C29.2902 655.86 26.0264 642.648 24.5496 629.095C23.1612 616.365 23.0479 603.527 21.4715 590.818C18.7761 600.832 14.9732 610.488 11.6708 620.313C4.45455 641.795 2.6109 664.779 2.57919 687.339C2.57692 689.359 2.62 691.38 2.65398 693.4C5.10696 705.108 9.45794 716.863 16.536 728.041C26.0581 743.076 37.8111 752.827 46.2119 758.672C42.9685 752.088 36.1305 735.9 38.973 715.234C40.7171 702.557 45.4487 692.961 48.9277 687.18C50.8326 690.992 53.9854 698.721 53.0001 708.446C52.6196 712.209 51.7046 715.413 50.7375 717.948C56.6967 709.033 63.5572 696.616 68.3839 680.845C70.9615 672.422 72.4791 664.612 73.3602 657.769C75.1314 660.85 76.9842 664.784 78.3364 669.534C81.3737 680.197 80.3227 689.477 79.2423 694.872C85.6341 685.047 92.223 673.289 98.0576 659.57C100.798 653.128 103.09 646.916 105.016 641.015C106.166 643.849 107.301 647.185 108.2 650.984C109.46 656.304 109.913 661.088 110.01 665.011C115.589 660.15 128.431 647.615 134.128 626.916C138.173 612.216 136.891 599.652 135.62 592.601C137.602 593.509 142.114 595.903 145.566 601.056C148.705 605.74 149.369 610.322 149.545 612.495C153.061 606.295 160.841 590.542 158.497 570.223C157.369 560.436 154.243 552.649 151.534 547.346C153.656 548.164 156.594 549.596 159.525 552.123C164.383 556.314 166.537 561.208 167.448 563.759C170.406 553.605 173.283 539.442 172.925 522.493C172.707 512.117 171.328 503.028 169.654 495.551Z" fill="url(#paint9_linear_4172_276544)"/>
<path d="M1021.34 167.666C1019.84 168.936 1017.95 170.313 1015.64 171.573C1014.45 172.225 1013.3 172.759 1012.22 173.201C1012.42 174.211 1012.85 175.663 1013.85 177.108C1016.24 180.556 1021.23 182.979 1023.3 181.342C1025.01 179.985 1024.18 176.268 1023.95 175.317C1023.08 172.766 1022.21 170.216 1021.34 167.666Z" fill="#E1DFD3"/>
<path d="M1010.86 161.838C1010.36 158.695 1009.87 155.553 1009.37 152.409C1008.43 153.61 1007.43 154.83 1006.37 156.065C1004.3 158.479 1002.23 160.654 1000.22 162.606C1000.45 163.841 1001.17 166.638 1003.55 169.147C1006.9 172.681 1011.15 173.12 1012.22 173.2C1013.86 173.132 1015.51 173.064 1017.15 172.996C1016.76 169.19 1016.38 165.385 1015.99 161.58C1014.28 161.668 1012.57 161.755 1010.86 161.838Z" fill="#E1DFD3"/>
<path d="M1028.18 182.488C1029.13 182.126 1030.4 181.509 1031.64 180.436C1034.36 178.092 1035.22 175.113 1035.49 173.895C1036.36 176.436 1037.22 179.043 1038.06 181.718C1038.5 183.14 1038.93 184.551 1039.34 185.951C1038.25 186.171 1035.85 186.504 1033.05 185.566C1030.55 184.728 1028.94 183.278 1028.18 182.488Z" fill="#E1DFD3"/>
<path d="M1004.45 154.785C1001.87 155.509 999.218 156.196 996.498 156.837C995.941 156.968 995.384 157.097 994.831 157.222C995.082 158.048 995.533 159.122 996.371 160.171C998.729 163.127 1002.28 163.552 1003.17 163.634C1003.59 160.685 1004.02 157.734 1004.45 154.785Z" fill="#E1DFD3"/>
<path d="M1118.61 201.095C1117.47 197.1 1114.59 186.919 1105.79 180.955C1102.35 178.608 1101 178.964 1095.35 176.053C1092.44 174.547 1087.79 171.875 1077.4 162.676C1075.09 160.633 1072.52 158.273 1069.74 155.614C1065.9 151.931 1061.66 147.659 1057.16 142.76C1036.93 138.409 1016.7 134.061 996.458 129.709C999.957 138.056 1003.86 144.803 1007.75 150.242C1011.79 155.863 1015.79 160.094 1019.31 163.331C1021.1 164.982 1027.6 170.21 1040.52 180.626C1056.71 193.664 1055.76 192.799 1056.61 193.56C1064.26 200.4 1068.56 205.967 1072.44 211.328C1075.91 216.11 1079.07 220.724 1084.05 225.926C1086.13 228.114 1088.54 230.395 1091.43 232.844C1100.14 240.221 1105.32 244.492 1110.36 242.959C1120.12 240.01 1123.2 217.29 1118.61 201.095Z" fill="#D57F7F"/>
<path d="M1019.31 163.331C1020.89 164.778 1026.09 168.982 1036.06 177.027C1036.31 176.973 1036.57 176.925 1036.82 176.869C1050.7 173.752 1063.63 167.845 1076.45 161.822C1074.39 159.979 1072.15 157.918 1069.75 155.614C1065.91 151.931 1061.66 147.659 1057.17 142.76C1036.94 138.409 1016.7 134.061 996.46 129.709C999.959 138.056 1003.86 144.803 1007.76 150.242C1011.79 155.863 1015.79 160.094 1019.31 163.331Z" fill="url(#paint10_linear_4172_276544)"/>
<path d="M1043.95 139.918C1038.21 138.684 1032.47 137.449 1026.72 136.215C1026.79 136.351 1026.84 136.491 1026.91 136.627C1028.63 140.364 1030.61 144.07 1033.16 147.313C1035.04 149.714 1037.67 152.564 1040.91 152.86C1042.08 152.967 1043.35 152.709 1044.25 151.945C1044.33 151.787 1044.46 151.657 1044.61 151.59C1044.68 151.503 1044.76 151.422 1044.83 151.327C1045.81 149.898 1045.77 147.947 1045.58 146.299C1045.33 144.147 1044.74 141.993 1043.95 139.918Z" fill="url(#paint11_linear_4172_276544)"/>
<path d="M1103.58 213.833C1100.76 206.13 1096.74 198.73 1090.84 192.939C1087.21 189.365 1083.12 186.196 1079.1 183.068C1075.05 179.915 1070.92 176.862 1066.86 173.725C1058.87 167.555 1051.21 160.973 1044.76 153.177C1043.54 154.035 1041.98 154.321 1040.51 154.121C1036.93 153.637 1034.11 150.672 1032.01 147.958C1029.3 144.459 1027.21 140.498 1025.41 136.468C1025.32 136.271 1025.23 136.072 1025.15 135.875C1015.59 133.818 1006.03 131.764 996.462 129.707C999.962 138.054 1003.87 144.801 1007.76 150.239C1011.79 155.861 1015.79 160.092 1019.31 163.329C1021.11 164.98 1027.61 170.207 1040.53 180.624C1056.71 193.661 1055.77 192.796 1056.62 193.557C1064.27 200.397 1068.57 205.965 1072.45 211.326C1075.92 216.107 1079.08 220.721 1084.05 225.924C1086.14 228.112 1088.55 230.393 1091.43 232.841C1100.07 240.157 1105.23 244.411 1110.24 242.986C1110.05 241.654 1109.86 240.322 1109.65 238.993C1108.3 230.474 1106.55 221.956 1103.58 213.833Z" fill="url(#paint12_linear_4172_276544)"/>
<path d="M1127.15 85.184C1126.54 99.048 1123.21 109.635 1120.51 116.368C1118.16 122.212 1115.77 128.187 1110.43 134.321C1108.68 136.339 1102.33 143.31 1085.82 149.899C1081.1 151.786 1075.75 153.922 1069.75 155.612C1061.97 157.8 1053.07 159.24 1043 158.402C1032.19 157.498 1026.43 154.511 1007.76 150.239C1003.37 149.231 998.258 148.155 992.217 147.016C987.893 146.203 981.354 145.064 976.885 148.771C970.149 154.366 972.758 167.168 972.953 168.033C976.872 186.141 999.46 195.34 1014.11 201.315C1023.23 205.036 1045.14 213.96 1072.45 211.326C1075.92 216.107 1079.07 220.721 1084.05 225.924C1083.8 226.042 1083.54 226.159 1083.29 226.277C1072.21 231.231 1061.7 231.231 1055.27 230.653C1049.31 249.586 1043.75 269.701 1038.86 290.927C1036.58 300.793 1034.43 310.909 1032.47 321.26C1032.06 323.423 1031.65 325.57 1031.28 327.719C1029.93 335.124 1028.72 342.421 1027.61 349.628C1020.91 353.821 1011.28 361.173 1004.11 373.123C995.673 387.182 994.994 400.364 994.285 418.303C994.258 418.881 994.246 419.456 994.233 420.02C993.904 437.592 998.792 456.683 996.998 481.553C996.971 482.024 996.933 482.497 996.894 482.982C996.749 484.959 996.541 486.978 996.292 489.048C996.16 490.11 996.018 491.17 995.859 492.257C995.703 493.397 995.517 494.563 995.309 495.757C994.627 499.752 993.71 504.13 992.466 508.808C992.48 508.794 992.48 508.78 992.493 508.769C992.729 513.618 992.545 519.84 991.091 526.891C990.147 531.439 988.863 535.396 987.553 538.71C987.723 537.924 988.104 535.67 986.937 533.299C986.321 532.028 985.483 531.19 984.905 530.703C984.892 532.25 984.761 534.137 984.303 536.232C983.635 539.389 982.496 541.892 981.526 543.675C981.748 543.124 982.129 541.972 981.92 540.518C981.802 539.77 981.553 539.129 981.266 538.592C979.771 541.618 978.161 544.685 976.378 547.829C970.167 547.147 960.759 546.572 949.542 547.829C906 552.703 883.647 579.629 858.816 595.958C809.731 628.218 750.375 619.425 680.468 609.074C652.767 604.972 613.486 596.3 568.999 576.291C567.309 568.284 564.571 561.353 561.123 555.312C517.581 478.751 342.235 510.565 327.705 513.342C309.662 492.325 291.619 471.32 273.576 450.303C233.153 403.223 192.729 356.143 152.306 309.065C168.933 281.339 185.574 253.613 202.215 225.885C223.522 214.119 256.136 199.285 297.868 192.617C308.167 190.966 334.663 187.31 404.606 195.383C433.813 198.751 575.157 215.077 627.832 231.364C633.284 233.054 645.861 237.235 661.075 234.207C674.69 231.482 675.293 226.017 690.307 221.786C708.35 216.701 710.708 223.7 732.081 218.341C748.275 214.279 757.657 207.571 760.893 205.093C765.978 201.201 766.737 199.485 770.787 196.103C784.402 184.769 800.569 183.537 806.06 182.685C839.21 177.534 892.016 122.28 894.82 69.2112C895.789 50.815 890.535 36.8083 900.899 23.7574C909.574 12.8288 924.537 8.45293 934.417 5.55827C937.311 4.72022 945.961 2.32156 966.034 1.24795C999.381 -0.521003 1016.06 -1.41119 1028.77 7.00098C1029.11 7.22295 1029.44 7.44729 1029.75 7.66925C1030.08 7.89122 1030.38 8.11542 1030.69 8.33739C1030.99 8.55936 1031.27 8.78355 1031.55 9.00552C1032.02 9.38604 1032.47 9.75302 1032.89 10.1064C1033.23 10.394 1033.54 10.6953 1033.86 10.9852C1034.09 11.2071 1034.32 11.4313 1034.54 11.6533C1034.76 11.864 1034.98 12.0859 1035.19 12.3079C1036.9 14.0633 1038.3 15.8073 1039.83 17.6148C1040.08 17.9025 1040.34 18.2037 1040.62 18.505C1040.88 18.8198 1041.14 19.121 1041.43 19.4222C1041.69 19.7235 1041.98 20.0383 1042.3 20.3532V20.3667C1042.6 20.6815 1042.9 20.9828 1043.21 21.2976C1045 23.0666 1047.15 24.9262 1050.03 26.8922C1051.26 27.7439 1052.63 28.6227 1054.17 29.5128C1058.79 32.2262 1063.67 34.4391 1066.52 38.9872C1066.91 39.6169 1067.27 40.285 1067.57 41.0053C1070.1 46.8762 1068.45 53.2567 1066.71 57.6734C1068.15 58.4072 1070.39 59.4945 1073.19 60.661C1083.66 64.9848 1092.13 66.1648 1094.64 66.5975C1101.64 67.8092 1112.2 71.9111 1127.15 85.184Z" fill="#CC8547"/>
<path d="M1127.15 85.184C1126.54 99.048 1123.21 109.635 1120.51 116.368C1118.16 122.212 1115.77 128.187 1110.43 134.321C1108.68 136.339 1102.33 143.31 1085.82 149.899C1081.1 151.786 1075.75 153.922 1069.75 155.612C1061.97 157.8 1053.07 159.24 1043 158.402C1032.19 157.498 1026.43 154.511 1007.76 150.239C1003.37 149.231 998.258 148.155 992.217 147.016C987.893 146.203 981.354 145.064 976.885 148.771C970.149 154.366 972.758 167.168 972.953 168.033C976.872 186.141 999.46 195.34 1014.11 201.315C1023.23 205.036 1045.14 213.96 1072.45 211.326C1075.92 216.107 1079.07 220.721 1084.05 225.924C1083.8 226.042 1083.54 226.159 1083.29 226.277C1072.21 231.231 1061.7 231.231 1055.27 230.653C1049.31 249.586 1043.75 269.701 1038.86 290.927C1036.58 300.793 1034.43 310.909 1032.47 321.26C1032.06 323.423 1031.65 325.57 1031.28 327.719C1029.93 335.124 1028.72 342.421 1027.61 349.628C1020.91 353.821 1011.28 361.173 1004.11 373.123C995.673 387.182 994.994 400.364 994.285 418.303C994.258 418.881 994.246 419.456 994.233 420.02C993.381 447.077 998.348 460.09 996.998 481.553C996.971 482.024 996.933 482.497 996.894 482.982C996.749 484.921 996.555 486.939 996.292 489.048C996.16 490.11 996.018 491.17 995.859 492.257C995.703 493.397 995.517 494.563 995.309 495.757C994.627 499.752 993.71 504.13 992.466 508.808C992.48 508.794 992.48 508.78 992.493 508.769C992.729 513.618 992.545 519.84 991.091 526.891C990.147 531.439 988.863 535.396 987.553 538.71C987.723 537.924 988.104 535.67 986.937 533.299C986.321 532.028 985.483 531.19 984.905 530.703C984.892 532.25 984.761 534.137 984.303 536.232C983.635 539.389 982.496 541.892 981.526 543.675C981.748 543.124 982.129 541.972 981.92 540.518C981.802 539.77 981.553 539.129 981.266 538.592C979.771 541.618 978.161 544.685 976.378 547.829C970.167 547.147 960.759 546.572 949.542 547.829C906 552.703 883.647 579.629 858.816 595.958C809.731 628.218 750.375 619.425 680.468 609.074C652.767 604.972 613.486 596.3 568.999 576.291C567.309 568.284 564.571 561.353 561.123 555.312C517.581 478.751 342.235 510.565 327.705 513.342C309.662 492.325 291.619 471.32 273.576 450.303C233.153 403.223 192.729 356.143 152.306 309.065C168.933 281.339 185.574 253.613 202.215 225.885C223.522 214.119 256.136 199.285 297.868 192.617C308.167 190.966 334.663 187.31 404.606 195.383C433.813 198.751 575.157 215.077 627.832 231.364C633.284 233.054 645.861 237.235 661.075 234.207C674.69 231.482 675.293 226.017 690.307 221.786C708.35 216.701 710.708 223.7 732.081 218.341C748.275 214.279 757.657 207.571 760.893 205.093C765.978 201.201 766.737 199.485 770.787 196.103C784.402 184.769 800.569 183.537 806.06 182.685C839.21 177.534 892.016 122.28 894.82 69.2112C895.789 50.815 890.535 36.8083 900.899 23.7574C909.574 12.8288 924.537 8.45293 934.417 5.55827C937.311 4.72022 945.961 2.32156 966.034 1.24795C999.381 -0.521003 1016.06 -1.41119 1028.77 7.00098C1029.11 7.22295 1029.44 7.44729 1029.75 7.66925C1030.08 7.89122 1030.38 8.11542 1030.69 8.33739C1030.99 8.55936 1031.27 8.78355 1031.55 9.00552C1032.02 9.38604 1032.47 9.75302 1032.89 10.1064C1033.23 10.394 1033.54 10.6953 1033.86 10.9852C1034.09 11.2071 1034.32 11.4313 1034.54 11.6533C1034.76 11.864 1034.98 12.0859 1035.19 12.3079C1036.9 14.0633 1038.3 15.8073 1039.83 17.6148C1040.09 17.9161 1040.35 18.2173 1040.62 18.505C1040.88 18.8198 1041.14 19.121 1041.43 19.4222C1041.71 19.737 1041.99 20.0383 1042.3 20.3532V20.3667C1042.6 20.6815 1042.9 20.9828 1043.21 21.2976C1045 23.0666 1047.15 24.9262 1050.03 26.8922C1051.26 27.7439 1052.63 28.6227 1054.17 29.5128C1057.92 31.7144 1061.83 33.5874 1064.7 36.6407C1065.37 37.3473 1065.99 38.122 1066.52 38.9872C1066.91 39.6169 1067.27 40.285 1067.57 41.0053C1067.7 41.2929 1067.81 41.5942 1067.92 41.8841C1069.93 47.5058 1068.36 53.4809 1066.71 57.6734C1068.15 58.4072 1070.39 59.4945 1073.19 60.661C1083.66 64.9848 1092.13 66.1648 1094.64 66.5975C1101.64 67.8092 1112.2 71.9111 1127.15 85.184Z" fill="url(#paint13_linear_4172_276544)"/>
<path d="M1127.15 85.184C1126.54 99.048 1123.21 109.635 1120.51 116.368C1118.16 122.212 1115.77 128.187 1110.43 134.321C1108.68 136.339 1102.33 143.31 1085.82 149.899C1081.1 151.786 1075.75 153.922 1069.75 155.612C1061.97 157.8 1053.07 159.24 1043 158.402C1032.19 157.498 1026.43 154.511 1007.76 150.239C1003.37 149.231 998.258 148.155 992.217 147.016C987.893 146.203 981.354 145.064 976.885 148.771C970.149 154.366 972.758 167.168 972.953 168.033C976.872 186.141 999.46 195.34 1014.11 201.315C1023.23 205.036 1045.14 213.96 1072.45 211.326C1075.92 216.107 1079.07 220.721 1084.05 225.924C1083.8 226.042 1083.54 226.159 1083.29 226.277C1072.21 231.231 1061.7 231.231 1055.27 230.653C1049.31 249.586 1043.75 269.701 1038.86 290.927C1036.58 300.793 1034.43 310.909 1032.47 321.26C1032.06 323.423 1031.65 325.57 1031.28 327.719C1029.93 335.124 1028.72 342.421 1027.61 349.628C1020.91 353.821 1011.28 361.173 1004.11 373.123C995.673 387.182 994.994 400.364 994.285 418.303C994.258 418.881 994.246 419.456 994.233 420.02C993.381 447.077 998.348 460.09 996.998 481.553C996.971 482.024 996.933 482.497 996.894 482.982C996.749 484.921 996.555 486.939 996.292 489.048C996.16 490.11 996.018 491.17 995.859 492.257C995.703 493.397 995.517 494.563 995.309 495.757C994.627 499.752 993.71 504.13 992.466 508.808C992.48 508.794 992.48 508.78 992.493 508.769C992.729 513.618 992.545 519.84 991.091 526.891C990.147 531.439 988.863 535.396 987.553 538.71C987.723 537.924 988.104 535.67 986.937 533.299C986.321 532.028 985.483 531.19 984.905 530.703C984.892 532.25 984.761 534.137 984.303 536.232C983.635 539.389 982.496 541.892 981.526 543.675C981.748 543.124 982.129 541.972 981.92 540.518C981.802 539.77 981.553 539.129 981.266 538.592C979.771 541.618 978.161 544.685 976.378 547.829C970.167 547.147 960.759 546.572 949.542 547.829C906 552.703 883.647 579.629 858.816 595.958C809.731 628.218 750.375 619.425 680.468 609.074C652.767 604.972 613.486 596.3 568.999 576.291C567.309 568.284 564.571 561.353 561.123 555.312C517.581 478.751 342.235 510.565 327.705 513.342C309.662 492.325 291.619 471.32 273.576 450.303C233.153 403.223 192.729 356.143 152.306 309.065C168.933 281.339 185.574 253.613 202.215 225.885C223.522 214.119 256.136 199.285 297.868 192.617C308.167 190.966 334.663 187.31 404.606 195.383C433.813 198.751 575.157 215.077 627.832 231.364C633.284 233.054 645.861 237.235 661.075 234.207C674.69 231.482 675.293 226.017 690.307 221.786C708.35 216.701 710.708 223.7 732.081 218.341C748.275 214.279 757.657 207.571 760.893 205.093C765.978 201.201 766.737 199.485 770.787 196.103C784.402 184.769 800.569 183.537 806.06 182.685C839.21 177.534 892.016 122.28 894.82 69.2112C895.789 50.815 890.535 36.8083 900.899 23.7574C909.574 12.8288 924.537 8.45293 934.417 5.55827C937.311 4.72022 945.961 2.32156 966.034 1.24795C999.381 -0.521003 1016.06 -1.41119 1028.77 7.00098C1029.11 7.22295 1029.44 7.44729 1029.75 7.66925C1030.08 7.89122 1030.38 8.11542 1030.69 8.33739C1030.99 8.55936 1031.27 8.78355 1031.55 9.00552C1032.02 9.38604 1032.47 9.75302 1032.89 10.1064C1033.23 10.394 1033.54 10.6953 1033.86 10.9852C1034.09 11.2071 1034.32 11.4313 1034.54 11.6533C1034.76 11.864 1034.98 12.0859 1035.19 12.3079C1036.9 14.0633 1038.3 15.8073 1039.83 17.6148C1040.09 17.9161 1040.35 18.2173 1040.62 18.505C1040.88 18.8198 1041.14 19.121 1041.43 19.4222C1041.71 19.737 1041.99 20.0383 1042.3 20.3532V20.3667C1042.6 20.6815 1042.9 20.9828 1043.21 21.2976C1045 23.0666 1047.15 24.9262 1050.03 26.8922C1051.26 27.7439 1052.63 28.6227 1054.17 29.5128C1057.92 31.7144 1061.83 33.5874 1064.7 36.6407C1065.37 37.3473 1065.99 38.122 1066.52 38.9872C1066.91 39.6169 1067.27 40.285 1067.57 41.0053C1067.7 41.2929 1067.81 41.5942 1067.92 41.8841C1069.93 47.5058 1068.36 53.4809 1066.71 57.6734C1068.15 58.4072 1070.39 59.4945 1073.19 60.661C1083.66 64.9848 1092.13 66.1648 1094.64 66.5975C1101.64 67.8092 1112.2 71.9111 1127.15 85.184Z" fill="url(#paint14_linear_4172_276544)"/>
<path d="M1127.15 85.184C1126.54 99.048 1123.21 109.635 1120.51 116.368C1118.16 122.212 1115.77 128.187 1110.43 134.321C1108.68 136.339 1102.33 143.31 1085.82 149.899C1081.1 151.786 1075.75 153.922 1069.75 155.612C1061.97 157.8 1053.07 159.24 1043 158.402C1032.19 157.498 1026.43 154.511 1007.76 150.239C1003.37 149.231 998.258 148.155 992.217 147.016C987.893 146.203 981.354 145.064 976.885 148.771C970.149 154.366 972.758 167.168 972.953 168.033C976.872 186.141 999.46 195.34 1014.11 201.315C1023.23 205.036 1045.14 213.96 1072.45 211.326C1075.92 216.107 1079.07 220.721 1084.05 225.924C1083.8 226.042 1083.54 226.159 1083.29 226.277C1072.21 231.231 1061.7 231.231 1055.27 230.653C1049.31 249.586 1043.75 269.701 1038.86 290.927C1036.58 300.793 1034.43 310.909 1032.47 321.26C1032.06 323.423 1031.65 325.57 1031.28 327.719C1029.93 335.124 1028.72 342.421 1027.61 349.628C1020.91 353.821 1011.28 361.173 1004.11 373.123C995.673 387.182 994.994 400.364 994.285 418.303C994.258 418.881 994.246 419.456 994.233 420.02C993.381 447.077 998.348 460.09 996.998 481.553C996.971 482.024 996.933 482.497 996.894 482.982C996.749 484.921 996.555 486.939 996.292 489.048C996.16 490.11 996.018 491.17 995.859 492.257C995.703 493.397 995.517 494.563 995.309 495.757C994.627 499.752 993.71 504.13 992.466 508.808C992.48 508.794 992.48 508.78 992.493 508.769C992.729 513.618 992.545 519.84 991.091 526.891C990.147 531.439 988.863 535.396 987.553 538.71C987.723 537.924 988.104 535.67 986.937 533.299C986.321 532.028 985.483 531.19 984.905 530.703C984.892 532.25 984.761 534.137 984.303 536.232C983.635 539.389 982.496 541.892 981.526 543.675C981.748 543.124 982.129 541.972 981.92 540.518C981.802 539.77 981.553 539.129 981.266 538.592C979.771 541.618 978.161 544.685 976.378 547.829C970.167 547.147 960.759 546.572 949.542 547.829C906 552.703 883.647 579.629 858.816 595.958C809.731 628.218 750.375 619.425 680.468 609.074C652.767 604.972 613.486 596.3 568.999 576.291C567.309 568.284 564.571 561.353 561.123 555.312C517.581 478.751 342.235 510.565 327.705 513.342C309.662 492.325 291.619 471.32 273.576 450.303C233.153 403.223 192.729 356.143 152.306 309.065C168.933 281.339 185.574 253.613 202.215 225.885C223.522 214.119 256.136 199.285 297.868 192.617C308.167 190.966 334.663 187.31 404.606 195.383C433.813 198.751 575.157 215.077 627.832 231.364C633.284 233.054 645.861 237.235 661.075 234.207C674.69 231.482 675.293 226.017 690.307 221.786C708.35 216.701 710.708 223.7 732.081 218.341C748.275 214.279 757.657 207.571 760.893 205.093C765.978 201.201 766.737 199.485 770.787 196.103C784.402 184.769 800.569 183.537 806.06 182.685C839.21 177.534 892.016 122.28 894.82 69.2112C895.789 50.815 890.535 36.8083 900.899 23.7574C909.574 12.8288 924.537 8.45293 934.417 5.55827C937.311 4.72022 945.961 2.32156 966.034 1.24795C999.381 -0.521003 1016.06 -1.41119 1028.77 7.00098C1029.11 7.22295 1029.44 7.44729 1029.75 7.66925C1030.08 7.89122 1030.38 8.11542 1030.69 8.33739C1030.99 8.55936 1031.27 8.78355 1031.55 9.00552C1032.02 9.38604 1032.47 9.75302 1032.89 10.1064C1033.23 10.394 1033.54 10.6953 1033.86 10.9852C1034.09 11.2071 1034.32 11.4313 1034.54 11.6533C1034.76 11.864 1034.98 12.0859 1035.19 12.3079C1036.9 14.0633 1038.3 15.8073 1039.83 17.6148C1040.09 17.9161 1040.35 18.2173 1040.62 18.505C1040.88 18.8198 1041.14 19.121 1041.43 19.4222C1041.71 19.737 1041.99 20.0383 1042.3 20.3532V20.3667C1042.6 20.6815 1042.9 20.9828 1043.21 21.2976C1045 23.0666 1047.15 24.9262 1050.03 26.8922C1051.26 27.7439 1052.63 28.6227 1054.17 29.5128C1057.92 31.7144 1061.83 33.5874 1064.7 36.6407C1065.37 37.3473 1065.99 38.122 1066.52 38.9872C1066.91 39.6169 1067.27 40.285 1067.57 41.0053C1067.7 41.2929 1067.81 41.5942 1067.92 41.8841C1069.93 47.5058 1068.36 53.4809 1066.71 57.6734C1068.15 58.4072 1070.39 59.4945 1073.19 60.661C1083.66 64.9848 1092.13 66.1648 1094.64 66.5975C1101.64 67.8092 1112.2 71.9111 1127.15 85.184Z" fill="url(#paint15_linear_4172_276544)"/>
<path d="M972.019 181.885C967.104 175.045 962.014 167.772 959.745 159.552C958.945 156.66 958.039 148.821 962.465 144.185C966.426 140.037 973.018 140.386 976.032 140.588C1004.89 142.517 1035.96 152.665 1065.65 150.418C1089.8 148.59 1101.86 139.41 1105.47 136.432C1112.05 131.009 1116.2 125.052 1118.69 120.776C1119.25 119.476 1119.78 118.18 1120.3 116.891C1120.21 116.866 1120.12 116.839 1120.02 116.814C1116.97 115.954 1113.92 115.07 1110.93 114.001C1108.45 113.111 1105.9 112.119 1103.71 110.633C1102.19 109.612 1100.62 108.192 1100.44 106.259C1100.37 105.507 1100.53 104.805 1100.82 104.148C1096.66 103.664 1091.05 102.817 1084.52 101.249C1068.18 97.3219 1056.46 91.3445 1052.72 89.3536C1029.39 76.946 1022.92 63.3719 1017.02 66.2144C1011.39 68.9256 1017.43 81.1906 1008.9 94.5246C1008.01 95.9085 999.162 109.354 987.235 109.295C977.072 109.245 973.188 99.4351 961.634 100.679C956.857 101.193 953.489 103.304 951.478 104.563C942.123 110.423 939.079 120.257 936.617 127.412C935.247 131.394 934.402 135.58 934.454 139.802C934.506 144.051 935.654 148.01 937.333 151.888C941.494 161.491 947.98 170.282 955.632 177.394C959.228 180.737 963.183 183.756 967.559 186.012C970.975 187.772 974.694 188.975 978.456 189.887C976.125 187.337 973.987 184.624 972.019 181.885Z" fill="url(#paint16_linear_4172_276544)"/>
<path d="M859.851 167.297C865.226 173.587 870.113 180.276 874.849 187.055C877.089 190.26 879.293 193.489 881.506 196.713C883.943 200.262 886.043 203.999 887.941 207.863C895.717 223.698 899.909 241.025 907.893 256.764C910.407 255.759 912.435 253.892 913.941 251.668C913.764 251.487 913.701 251.226 913.9 250.955C914.869 249.641 915.477 248.024 916.686 246.93C918.186 245.573 932.369 220.638 935.372 193.494C939.708 154.314 917.644 138.65 912.002 82.3261C910.362 65.9479 910.752 52.5459 911.232 44.4848C910.942 44.3149 910.668 44.0885 910.416 43.8801C905.302 39.6378 901.853 33.8937 897.649 28.8179C891.778 40.4645 895.665 53.1711 894.82 69.2162C893.112 101.535 872.854 134.643 849.79 156.772C853.366 160.056 856.702 163.612 859.851 167.297Z" fill="url(#paint17_linear_4172_276544)"/>
<path d="M761.845 222.783C767.705 229.922 773.191 237.374 778.187 245.143C783.179 252.905 787.682 260.986 791.555 269.362C794.826 276.436 797.616 283.727 799.906 291.176C800.058 284.492 800.096 277.806 799.766 271.129C799.403 263.842 798.606 256.569 797.05 249.437C795.546 242.542 793.089 235.969 790.762 229.324C786.248 216.425 782.119 203.383 780.45 189.775C777.202 191.433 773.927 193.49 770.788 196.103C766.738 199.485 765.979 201.2 760.894 205.093C759.302 206.312 756.212 208.556 751.564 211.005C755.098 214.835 758.539 218.753 761.845 222.783Z" fill="url(#paint18_linear_4172_276544)"/>
<path d="M668.185 241.858C673.476 248.27 678.604 254.87 683.54 261.561C688.828 268.73 693.832 276.168 697.866 284.125C700.325 288.974 702.425 294.057 703.816 299.318C703.626 294.741 703.342 290.17 702.912 285.608C701.746 273.221 699.549 260.933 696.079 248.979C693.499 240.091 690.21 231.439 686.387 223.022C675.062 227.031 673.393 231.738 661.076 234.204C661.044 234.211 661.012 234.213 660.98 234.22C663.524 236.623 665.947 239.149 668.185 241.858Z" fill="url(#paint19_linear_4172_276544)"/>
<path d="M1055.27 230.655C1044.51 254.333 1040.23 274.668 1038.86 290.929C1036.58 300.795 1034.43 310.91 1032.47 321.261C1032.06 323.425 1031.66 325.572 1031.28 327.721C1029.33 324.301 1026.89 320.75 1023.83 317.318C1019.94 312.967 1015.24 309.418 1009.79 307.282C1009.59 307.203 1009.28 307.296 1009.14 307.452C1004.4 313.44 998.007 317.712 992.281 322.664C993.133 319.06 993.396 315.273 993.289 311.592C993.144 306.915 992.399 302.131 990.458 297.846C989.502 295.71 988.204 293.719 986.449 292.159C986.172 291.923 985.794 291.909 985.518 292.159C977.237 299.771 972.453 310.122 965.796 319.019C964.225 321.103 962.533 323.094 960.673 324.929C960.306 306.741 966.372 289.327 970.12 271.731C971.391 265.794 972.322 259.898 972.544 253.833C972.714 248.813 972.648 243.783 972.779 238.764C972.911 233.903 973.16 229.002 974.13 224.232C975.321 218.349 976.435 214.784 979.07 212.793C983.486 209.466 989.448 213.226 1007.9 219.883C1027.76 227.049 1038.22 228.949 1045.12 229.815C1049.4 230.34 1052.95 230.562 1055.27 230.655Z" fill="url(#paint20_linear_4172_276544)"/>
<path d="M995.309 495.757C994.627 499.752 993.71 504.131 992.466 508.808C992.48 508.794 992.48 508.78 992.494 508.769C992.729 513.618 992.546 519.84 991.091 526.891C990.147 531.439 988.863 535.396 987.553 538.71C987.723 537.924 988.104 535.671 986.938 533.299C986.321 532.028 985.483 531.19 984.906 530.703C984.892 532.25 984.761 534.137 984.303 536.232C983.635 539.39 982.496 541.892 981.526 543.675C981.748 543.125 982.129 541.972 981.92 540.518C981.803 539.77 981.554 539.129 981.266 538.592C979.771 541.618 978.161 544.685 976.378 547.829C970.168 547.147 960.759 546.572 949.542 547.829C906 552.703 883.647 579.629 858.816 595.958C809.731 628.218 750.375 619.425 680.468 609.074C652.767 604.972 613.486 596.3 568.999 576.291C567.309 568.284 564.571 561.353 561.124 555.313C517.581 478.751 342.235 510.565 327.705 513.342C309.662 492.325 291.619 471.32 273.576 450.303C277.755 447.696 281.895 445.062 286.011 442.362C295.787 435.954 305.404 429.297 314.917 422.512C324.364 415.764 333.721 408.872 343.05 401.952C352.287 395.098 361.487 388.206 370.737 381.368C371.236 381.001 371.734 380.62 372.244 380.254C382.445 378.965 468.458 369.515 524.852 431.284C548.979 457.712 558.308 486.905 562.227 504.459C564.868 506.226 568.695 508.717 573.404 511.535C602.741 529.086 639.069 550.821 663.71 540.239C671.941 536.703 673.195 531.999 699.258 486.106C709.976 467.231 718.839 452.049 724.405 442.586C735.899 466.459 747.899 473.947 757.07 476.156C762.352 477.428 769.204 477.503 782.033 481.435C788.402 483.388 795.346 485.458 800.286 490.176C806.275 495.888 807.151 504.248 808.017 512.044C809.208 522.842 806.327 533.546 805.396 544.264C804.964 549.256 805.004 554.209 805.908 559.149C805.946 559.36 806.157 559.568 806.368 559.609C841.339 566.882 872.225 542.785 904.576 534.241C910.603 532.642 916.564 531.528 922.802 531.804C929.144 532.092 935.447 532.812 941.776 533.102C945.026 533.247 950.032 534.006 952.874 531.949C956.661 529.211 957.447 523.523 957.409 519.24C957.253 506.189 951.223 494.108 947.006 482.015C955.47 483.836 962.127 488.502 968.258 494.568C968.611 494.921 969.214 494.751 969.345 494.28C977.626 465.9 982.133 435.551 977.653 406.108C983.878 409.424 989.381 413.565 994.294 418.308C993.461 439.544 1000.89 462.817 995.309 495.757Z" fill="url(#paint21_linear_4172_276544)"/>
<path d="M914.763 39.871C910.539 51.1393 905.305 69.3974 906.852 91.5309C908.596 116.487 917.445 124.715 920.349 153.895C922.267 173.172 922.111 206.842 911.042 210.21C903.495 212.506 895.223 199.392 879.86 183.215C866.08 168.708 844.902 149.954 813.113 132.695C814.769 123.288 817.72 112.002 823.081 99.9092C835.287 72.3714 853.683 54.8811 865.332 45.5538C863.914 45.427 862.347 45.3591 860.653 45.393C858.406 45.4383 856.374 45.6536 854.605 45.939C855.855 45.0443 857.278 44.1427 858.877 43.2956C863.563 40.8177 868.016 39.742 871.427 39.2618C866.17 38.845 860.913 38.4283 855.656 38.0115C865.085 33.8213 873.296 31.2482 879.391 29.6332C896.145 25.1938 901.069 26.8836 903.126 27.7715C909.572 30.5506 913.065 36.3263 914.763 39.871Z" fill="#CC8547"/>
<path d="M914.763 39.871C910.539 51.1393 905.305 69.3974 906.852 91.5309C908.596 116.487 917.445 124.715 920.349 153.895C922.267 173.172 922.111 206.842 911.042 210.21C903.495 212.506 895.223 199.392 879.86 183.215C866.08 168.708 844.902 149.954 813.113 132.695C814.769 123.288 817.72 112.002 823.081 99.9092C835.287 72.3714 853.683 54.8811 865.332 45.5538C863.914 45.427 862.347 45.3591 860.653 45.393C858.406 45.4383 856.374 45.6536 854.605 45.939C855.855 45.0443 857.278 44.1427 858.877 43.2956C863.563 40.8177 868.016 39.742 871.427 39.2618C866.17 38.845 860.913 38.4283 855.656 38.0115C865.085 33.8213 873.296 31.2482 879.391 29.6332C896.145 25.1938 901.069 26.8836 903.126 27.7715C909.572 30.5506 913.065 36.3263 914.763 39.871Z" fill="url(#paint22_linear_4172_276544)"/>
<path d="M857.935 839.426C858.459 841.655 858.801 845.217 857.084 850.157C855.917 851.034 852.656 853.224 848.042 853.263C845.12 853.29 842.839 852.45 841.544 851.847C839.408 853.079 835.621 854.914 830.538 855.517C825.141 856.171 820.79 855.15 818.391 854.388C815.286 855.593 809.691 857.297 802.575 856.93C794.726 856.524 788.894 853.797 785.906 852.135C783.916 852.921 772.776 857.165 766.711 851.847C764.55 849.961 763.619 847.378 762.19 839.7C760.29 829.546 759.701 822.063 759.359 818.525C757.8 802.434 756.829 792.463 749.911 785.924C747.488 783.657 742.981 780.486 734.725 779.555C734.738 779.032 734.738 778.482 734.752 777.931V777.918C736.455 776.661 738.145 775.087 739.639 773.109C741.605 770.541 742.731 767.947 743.399 765.888C742.271 767.356 739.456 770.645 734.856 772.819C736.088 771.143 737.569 768.6 739.218 764.722C740.752 761.118 742.652 755.852 743.923 749.103C743.411 750.964 742.258 754.015 739.585 756.794C738.079 758.366 736.414 759.494 734.763 760.319C734.684 753.95 734.5 746.81 734.174 739.026C731.803 684.661 724.817 673.785 719.538 667.903C715.121 662.963 706.068 655.022 688.288 651.275C691.787 650.988 696.122 649.978 700.265 647.201C702.965 645.407 704.865 643.323 706.161 641.593C704.628 642.601 700.892 644.815 695.848 645.366C697.565 644.186 699.78 642.261 702.596 639.128C705.216 636.22 708.727 631.855 712.122 625.894C711.035 627.479 708.951 629.996 705.531 631.751C701.927 633.599 698.299 633.849 695.388 633.559C703.499 611.559 707.3 592.966 709.264 579.26C713.194 551.822 710.77 537.12 714.65 500.889C717.336 475.77 721.425 455.526 724.399 442.579C778.382 451.03 832.382 459.494 886.379 467.961C872.019 493.353 861.471 515.224 854.237 531.183C851.211 537.84 816.133 615.948 812.45 661.887C810.511 685.932 810.144 697.633 810.144 697.633C809.698 711.089 810.106 713.92 809.071 721.087C806.633 737.755 801.13 744.935 798.523 754.029C795.313 765.193 795.573 782.201 811.376 807.607C818.425 807.659 825.462 807.725 832.511 807.791C833.639 809.757 835.591 812.941 838.434 816.545C847.834 828.434 855.904 830.871 857.935 839.426Z" fill="#CC8547"/>
<path d="M857.935 839.426C858.459 841.655 858.801 845.217 857.084 850.157C855.917 851.034 852.656 853.224 848.042 853.263C845.12 853.29 842.839 852.45 841.544 851.847C839.408 853.079 835.621 854.914 830.538 855.517C825.141 856.171 820.79 855.15 818.391 854.388C815.286 855.593 809.691 857.297 802.575 856.93C794.726 856.524 788.894 853.797 785.906 852.135C783.916 852.921 772.776 857.165 766.711 851.847C764.55 849.961 763.619 847.378 762.19 839.7C760.29 829.546 759.701 822.063 759.359 818.525C757.8 802.434 756.829 792.463 749.911 785.924C747.488 783.657 742.981 780.486 734.725 779.555C734.738 779.032 734.738 778.482 734.752 777.931V777.918C736.455 776.661 738.145 775.087 739.639 773.109C741.605 770.541 742.731 767.947 743.399 765.888C742.271 767.356 739.456 770.645 734.856 772.819C736.088 771.143 737.569 768.6 739.218 764.722C740.752 761.118 742.652 755.852 743.923 749.103C743.411 750.964 742.258 754.015 739.585 756.794C738.079 758.366 736.414 759.494 734.763 760.319C734.684 753.95 734.5 746.81 734.174 739.026C731.803 684.661 724.817 673.785 719.538 667.903C715.121 662.963 706.068 655.022 688.288 651.275C691.787 650.988 696.122 649.978 700.265 647.201C702.965 645.407 704.865 643.323 706.161 641.593C704.628 642.601 700.892 644.815 695.848 645.366C697.565 644.186 699.78 642.261 702.596 639.128C705.216 636.22 708.727 631.855 712.122 625.894C711.035 627.479 708.951 629.996 705.531 631.751C701.927 633.599 698.299 633.849 695.388 633.559C703.499 611.559 707.3 592.966 709.264 579.26C713.194 551.822 710.77 537.12 714.65 500.889C717.336 475.77 721.425 455.526 724.399 442.579C778.382 451.03 832.382 459.494 886.379 467.961C872.019 493.353 861.471 515.224 854.237 531.183C851.211 537.84 816.133 615.948 812.45 661.887C810.511 685.932 810.144 697.633 810.144 697.633C809.698 711.089 810.106 713.92 809.071 721.087C806.633 737.755 801.13 744.935 798.523 754.029C795.313 765.193 795.573 782.201 811.376 807.607C818.425 807.659 825.462 807.725 832.511 807.791C833.639 809.757 835.591 812.941 838.434 816.545C847.834 828.434 855.904 830.871 857.935 839.426Z" fill="url(#paint23_linear_4172_276544)"/>
<path d="M856.51 835.752C855.403 841.652 853.604 844.93 851.115 845.587C846.166 846.891 838.488 837.845 828.08 818.445C832.429 828.309 835.686 835.396 838.116 840.567C839.353 843.199 840.737 846.108 839.484 848.323C837.67 851.532 831.224 851.672 827.437 850.549C815.09 846.882 813.122 824.463 813.029 823.236C812.968 825.063 812.957 827.775 813.267 831.032C814.415 843.131 818.486 847.104 816.452 850.377C813.756 854.712 802.08 855.05 795.926 849.464C790.69 844.712 792.658 838.583 790.909 828.026C787.453 807.159 775.333 804.341 769.92 784.26C768.024 777.231 766.606 766.81 769.516 752.894C766.658 755.734 763.727 758.613 761.458 761.938C761.032 762.563 760.117 762.167 760.259 761.433C761.976 752.613 761.091 743.268 759.458 734.507C757.908 726.199 755.544 717.814 751.668 710.263C749.159 713.282 745.535 715.25 743.268 718.484C742.928 718.969 741.995 718.858 742.047 718.154C742.479 712.195 742.692 706.222 742.71 700.247C742.781 679.148 740.602 658.132 739.075 637.11C735.29 637.842 731.313 636.014 727.542 635.939C726.939 635.928 726.726 635.248 727.08 634.82C731.673 629.216 734.386 622.218 734.101 614.983C733.071 616.388 731.893 617.654 730.498 618.748C728.686 620.168 726.692 621.341 724.842 622.711C724.411 623.031 723.884 622.589 723.857 622.145C723.397 614.954 723.157 607.751 722.907 600.551C722.45 587.264 721.988 573.951 720.412 560.741C719.037 549.222 716.803 537.661 712.618 526.807C711.639 546.259 712.115 559.439 709.275 579.267C707.309 592.972 703.51 611.565 695.399 633.565C698.307 633.853 701.938 633.604 705.542 631.758C708.962 630.003 711.046 627.486 712.133 625.9C708.74 631.862 705.227 636.227 702.606 639.135C699.789 642.267 697.574 644.193 695.859 645.373C700.903 644.822 704.638 642.607 706.171 641.599C704.874 643.33 702.976 645.411 700.276 647.207C696.135 649.987 691.798 650.994 688.298 651.282C706.079 655.031 715.134 662.969 719.548 667.909C724.828 673.791 731.813 684.668 734.185 739.032C734.513 746.815 734.697 753.956 734.774 760.325C736.425 759.499 738.09 758.373 739.596 756.801C742.269 754.022 743.422 750.971 743.934 749.109C742.663 755.857 740.763 761.125 739.229 764.729C737.578 768.606 736.097 771.15 734.867 772.826C739.467 770.652 742.282 767.363 743.41 765.895C742.742 767.952 741.614 770.548 739.65 773.116C738.155 775.096 736.466 776.667 734.762 777.924V777.938C734.749 778.488 734.749 779.039 734.735 779.562C742.991 780.493 747.498 783.664 749.922 785.931C756.839 792.47 757.811 802.441 759.369 818.531C759.709 822.069 760.3 829.55 762.201 839.707C763.63 847.385 764.558 849.967 766.721 851.854C772.789 857.174 783.926 852.927 785.917 852.141C788.905 853.806 794.735 856.531 802.585 856.936C809.7 857.303 815.296 855.6 818.402 854.395C820.8 855.154 825.149 856.178 830.549 855.523C835.634 854.921 839.421 853.086 841.555 851.854C842.852 852.456 845.131 853.294 848.053 853.269C852.664 853.231 855.928 851.041 857.095 850.164C858.812 845.224 858.469 841.659 857.946 839.433C857.611 838.065 857.119 836.869 856.51 835.752Z" fill="url(#paint24_linear_4172_276544)"/>
<path d="M382.69 371.33C384.98 404.471 385.259 474.731 347.966 551.152C319.289 609.919 280.48 647.559 256.195 667.727C243.654 686.254 223.004 722.682 220.232 771.9C219.122 791.585 221.124 808.847 223.953 822.747C231.416 823.293 238.879 823.839 246.342 824.385C249.858 825.812 253.772 827.746 257.81 830.392C268.818 837.603 275.425 846.627 279.105 852.781C277.998 855.578 275.153 861.583 268.73 865.886C256.444 874.117 242.27 868.634 240.881 868.07C237.683 869.399 233.84 870.627 229.414 871.345C214.947 873.693 203.031 869.175 197.197 866.43C193.022 862.507 187.511 856.581 182.454 848.409C174.046 834.831 171.57 822.625 170.986 819.467C168.289 804.901 170.875 794.14 172.078 786.158C178.984 740.356 150.051 721.964 161.702 687.867C166.157 674.832 170.137 678.245 182.997 657.833C207.301 619.263 218.118 567.353 202.109 555.72C198.146 552.839 190.651 551.057 175.061 557.802C176.705 554.502 179.072 548.515 178.635 540.975C178.481 538.303 178.003 535.949 177.437 533.986C175.62 534.783 172.257 536.554 169.342 540.133C165.772 544.516 164.909 549.114 164.655 551.111C164.583 546.344 164.771 541.071 165.387 535.388C166.479 525.324 168.637 516.618 170.945 509.524C169.761 512.038 167.552 515.859 163.607 519.367C161.229 521.483 158.871 522.903 156.966 523.85C159.029 515.096 161.358 501.703 160.665 485.481C159.743 463.886 153.933 448.217 151.133 440.247C136.198 397.749 124.798 365.316 129.288 338.297C137.555 288.524 199.036 261.351 211.471 256.114C268.544 294.522 325.617 332.927 382.69 371.33Z" fill="#CC8547"/>
<path d="M382.69 371.33C384.98 404.471 385.259 474.731 347.966 551.152C319.289 609.919 280.48 647.559 256.195 667.727C243.654 686.254 223.004 722.682 220.232 771.9C219.122 791.585 221.124 808.847 223.953 822.747C231.416 823.293 238.879 823.839 246.342 824.385C249.858 825.812 253.772 827.746 257.81 830.392C268.818 837.603 275.425 846.627 279.105 852.781C277.998 855.578 275.153 861.583 268.73 865.886C256.444 874.117 242.27 868.634 240.881 868.07C237.683 869.399 233.84 870.627 229.414 871.345C214.947 873.693 203.031 869.175 197.197 866.43C193.022 862.507 187.511 856.581 182.454 848.409C174.046 834.831 171.57 822.625 170.986 819.467C168.289 804.901 170.875 794.14 172.078 786.158C178.984 740.356 150.051 721.964 161.702 687.867C166.157 674.832 170.137 678.245 182.997 657.833C207.301 619.263 218.118 567.353 202.109 555.72C198.146 552.839 190.651 551.057 175.061 557.802C176.705 554.502 179.072 548.515 178.635 540.975C178.481 538.303 178.003 535.949 177.437 533.986C175.62 534.783 172.257 536.554 169.342 540.133C165.772 544.516 164.909 549.114 164.655 551.111C164.583 546.344 164.771 541.071 165.387 535.388C166.479 525.324 168.637 516.618 170.945 509.524C169.761 512.038 167.552 515.859 163.607 519.367C161.229 521.483 158.871 522.903 156.966 523.85C159.029 515.096 161.358 501.703 160.665 485.481C159.743 463.886 153.933 448.217 151.133 440.247C136.198 397.749 124.798 365.316 129.288 338.297C137.555 288.524 199.036 261.351 211.471 256.114C268.544 294.522 325.617 332.927 382.69 371.33Z" fill="url(#paint25_linear_4172_276544)"/>
<path d="M148.11 392.677C147.736 394.179 147.657 395.715 148.017 397.268C148.06 395.739 148.096 394.208 148.11 392.677Z" fill="url(#paint26_linear_4172_276544)"/>
<path d="M194.107 461.844C192.812 463.617 191.611 465.456 190.513 467.357C191.949 465.66 193.194 463.823 194.107 461.844Z" fill="url(#paint27_linear_4172_276544)"/>
<path d="M347.961 551.159C319.29 609.926 280.48 647.559 256.199 667.724C243.646 686.252 222.997 722.677 220.231 771.893C219.117 791.587 221.121 808.844 223.952 822.747C231.409 823.297 238.876 823.834 246.333 824.384C249.857 825.811 253.762 827.739 257.812 830.386C268.817 837.607 275.422 846.622 279.105 852.781C277.991 855.585 275.148 861.587 268.727 865.883C256.448 874.112 242.272 868.635 240.883 868.072C237.685 869.394 233.835 870.626 229.404 871.347C214.938 873.693 203.028 869.172 197.196 866.434C193.017 862.504 187.513 856.581 182.456 848.418C174.043 834.831 171.568 822.631 170.977 819.474C168.277 804.903 170.872 794.147 172.077 786.165C174.947 767.166 171.645 752.883 167.609 740.238C161.962 722.392 154.886 707.821 161.699 687.864C166.154 674.841 170.139 678.247 182.992 657.833C187.552 650.612 191.626 642.909 195.153 635.099C210.419 601.228 215.121 565.181 202.111 555.72C198.141 552.85 190.646 551.057 175.067 557.804C176.705 554.502 179.076 548.513 178.632 540.98C178.476 538.307 178.003 535.96 177.441 533.997C176.249 534.509 174.401 535.451 172.449 537.036C171.414 537.874 170.351 538.896 169.344 540.142C165.781 544.518 164.915 549.118 164.653 551.109C166.186 553.269 167.667 555.46 169.081 557.673C168.557 559.833 168.007 561.865 167.457 563.752C166.539 561.197 164.39 556.309 159.529 552.117C156.607 549.587 153.658 548.16 151.536 547.346C154.25 552.64 157.38 560.436 158.508 570.212C160.852 590.535 153.069 606.297 149.559 612.494C149.375 610.32 148.707 605.733 145.575 601.056C142.116 595.894 137.609 593.509 135.629 592.592C136.9 599.654 138.184 612.207 134.136 626.909C128.436 647.611 115.595 660.152 110.014 665.013C109.924 661.083 109.464 656.299 108.207 650.979C107.317 647.178 106.175 643.851 105.022 641.008C103.097 646.918 100.803 653.128 98.0642 659.563C92.2341 673.282 85.6429 685.049 79.2489 694.877C80.3361 689.477 81.3848 680.202 78.3452 669.536C76.9952 664.779 75.1357 660.85 73.3667 657.769C72.4879 664.61 70.9681 672.419 68.3883 680.845C63.5661 696.621 56.701 709.03 50.7508 717.952C51.7066 715.411 52.624 712.213 53.0045 708.453C53.9875 698.718 50.8414 690.985 48.9297 687.187C45.4575 692.965 40.7282 702.557 38.9842 715.241C36.1416 735.905 42.9796 752.086 46.2163 758.677C37.8177 752.82 26.0647 743.071 16.5382 728.041C-12.3812 682.376 4.0512 627.067 10.708 604.676C21.6751 567.738 32.4338 564.148 50.3975 531.233C50.7123 538.244 50.7258 544.952 50.4767 550.561C49.6522 569.586 45.4984 585.414 41.4236 596.986C46.9525 590.094 52.8889 581.629 58.4042 571.5C67.6952 554.479 72.6352 538.558 75.3985 526.203C75.9625 539.988 76.5241 553.759 77.0881 567.543C85.0541 556.236 97.4232 535.519 102.954 506.744C107.684 482.149 105.523 461.499 103.138 448.631C107.672 457.32 112.205 465.992 116.725 474.681C108.431 382.632 130.59 312.856 151.264 294.055C171.167 275.96 198.03 262.372 198.03 262.372C203.665 259.53 208.394 257.432 211.472 256.123L215.443 258.796C271.196 296.311 326.951 333.824 382.692 371.339C384.977 404.469 385.254 474.726 347.961 551.159Z" fill="url(#paint28_linear_4172_276544)"/>
<path d="M252.606 837.509C265.045 843.351 269.64 854.125 266.764 859.758C264.184 864.811 255.795 865.335 254.572 865.398C252.318 864.324 249.5 862.669 246.698 860.123C241.065 855.002 238.612 849.097 237.555 845.876C238.461 847.414 243.208 855.777 239.681 862.889C239.276 863.706 238.728 864.574 237.98 865.441C226.624 865.321 220.787 861.776 217.566 858.637C212.483 853.679 213.602 849.416 206.391 841.251C201.573 835.799 199.188 836.322 196.055 831.14C193.081 826.218 191.351 820.61 189.793 815.115C181.294 785.145 183.378 771.453 183.378 771.451C180.377 728.638 178.069 731.743 179.768 722.203C182.751 705.445 190.334 693.268 197.772 681.327C211.324 659.569 215.808 663.125 222.812 647.653C227.967 636.263 228.852 622.306 230.621 594.39C230.907 589.887 231.29 582.813 228.329 574.578C226.674 569.971 224.11 565.686 221.197 561.767C215.322 553.858 207.072 546.034 197.353 543.321C193.285 542.186 188.875 542.179 185.075 544.193C181.351 546.166 178.778 549.586 176.923 553.312C176.316 555.108 175.643 556.63 175.061 557.801C190.651 551.056 198.146 552.841 202.11 555.719C218.119 567.355 207.301 619.264 182.998 657.832C170.137 678.244 166.155 674.831 161.702 687.866C150.051 721.963 178.984 740.355 172.078 786.157C170.873 794.142 168.289 804.903 170.987 819.467C171.571 822.624 174.046 834.83 182.454 848.408C187.514 856.581 193.023 862.506 197.197 866.429C203.032 869.174 214.948 873.692 229.414 871.344C233.84 870.626 237.681 869.398 240.882 868.069C242.273 868.633 256.447 874.116 268.73 865.885C273.611 862.615 276.422 858.365 277.978 855.285C269.518 849.36 261.063 843.435 252.606 837.509Z" fill="url(#paint29_linear_4172_276544)"/>
<path d="M1119.62 79.4486C1120.92 79.3625 1123.06 79.3852 1125.45 80.221C1133.03 82.8733 1135.15 90.8822 1135.3 91.4893C1135.71 93.1382 1136.96 98.2027 1134.19 100.52C1132.98 101.534 1131.43 101.666 1130.39 101.63C1132.15 102.642 1132.89 103.761 1133.24 104.64C1134.98 109.027 1130.23 116.182 1121.04 122.069C1118.18 121.657 1114.21 120.896 1109.63 119.376C1101 116.508 1095.31 114.617 1092.04 109.553C1086.93 101.607 1089.4 88.3454 1096.32 83.5686C1099.35 81.4802 1103.49 80.9955 1111.77 80.0238C1115.01 79.6433 1117.72 79.5052 1119.62 79.4486Z" fill="black"/>
<path d="M1005.69 79.5028C1006.82 80.4246 1004.14 88.0124 998.063 92.5491C986.997 100.814 969.95 95.0043 970 93.779C970.034 92.9432 978.043 94.7938 988.462 90.5786C999.411 86.1528 1004.46 78.4903 1005.69 79.5028Z" fill="url(#paint30_linear_4172_276544)"/>
<path d="M985.377 38.8359C985.465 36.9876 978.056 33.4226 971.631 36.0862C968.682 37.307 965.175 40.1587 965.739 41.5857C966.892 44.5098 985.241 41.7011 985.377 38.8359Z" fill="url(#paint31_linear_4172_276544)"/>
<path d="M1050.03 26.8873C1046.39 27.594 1041.28 27.2679 1040.58 25.5238C1040.16 24.4366 1041.33 22.5499 1043.21 21.2905C1045 23.0618 1047.15 24.9213 1050.03 26.8873Z" fill="url(#paint32_linear_4172_276544)"/>
<path d="M1115.58 84.203C1113.94 84.3548 1104.26 85.2517 1104.19 87.0977C1104.14 88.3955 1108.83 90.1372 1113.26 89.9922C1119.41 89.7929 1125.04 85.9629 1124.65 84.588C1124.31 83.3944 1119.36 83.8519 1115.58 84.203Z" fill="white"/>
<path d="M1012.4 57.4087C1012.26 51.9795 995.164 44.1654 982.695 49.855C975.712 53.0396 967.934 61.4336 970.505 67.7121C972.605 72.8401 981.409 76.0563 991.268 73.0688C985.783 66.1765 982.367 59.2547 984.449 56.5639C986.802 53.5197 996.362 55.6488 1007.86 62.48C1010.16 61.1867 1012.45 59.429 1012.4 57.4087Z" fill="url(#paint33_linear_4172_276544)"/>
<path d="M1010.6 59.9363C1010.2 54.5774 1002.36 50.0179 995.562 49.9092C984.924 49.7393 974.93 60.4459 976.702 66.6203C978.047 71.3111 986.11 73.1503 991.266 73.0665C1000.48 72.917 1011.09 66.455 1010.6 59.9363Z" fill="black"/>
<path d="M987.569 57.6808C986.636 57.5381 985.347 58.7069 985.376 59.8734C985.417 61.5449 988.144 62.5121 988.919 61.896C989.787 61.2075 988.996 57.8982 987.569 57.6808Z" fill="white"/>
<path d="M1067.93 41.8772C1067.31 41.9429 1066.68 41.9949 1066.07 42.0606C1064.2 43.2928 1062.34 44.5363 1060.48 45.782C1060.45 47.5238 1060.41 49.2542 1060.37 50.9982C1056.95 47.6053 1056.48 42.6767 1058.75 39.6643C1060 38.0131 1062.29 36.6247 1064.7 36.6383C1065.37 37.345 1065.99 38.1196 1066.52 38.9848C1066.91 39.6145 1067.27 40.2827 1067.57 41.0029C1067.7 41.2883 1067.81 41.5895 1067.93 41.8772Z" fill="url(#paint34_linear_4172_276544)"/>
<path d="M1066.71 57.6666C1063.9 55.5285 1061.99 53.3926 1060.75 51.8094C1059.1 49.7075 1058.27 48.6249 1058.28 47.1118C1058.29 44.2308 1061.15 42.0585 1062.41 41.1004C1064 39.8955 1065.55 39.2908 1066.53 38.9805C1066.92 39.6101 1067.27 40.2783 1067.57 40.9986C1070.1 46.8694 1068.45 53.2522 1066.71 57.6666Z" fill="black"/>
<path d="M1063.59 43.7843C1062.66 43.6416 1061.37 44.8104 1061.4 45.9769C1061.44 47.6484 1064.17 48.6156 1064.94 48.0017C1065.81 47.3109 1065.02 44.0018 1063.59 43.7843Z" fill="white"/>
<path d="M1030.11 17.4408C1013.9 3.27099 990.174 5.51786 969.23 7.502C949.953 9.32758 928.315 14.7228 928.591 18.3763C928.92 22.7115 960.435 14.177 992.494 30.8518C997.123 33.2595 994.285 32.0432 1036.83 59.6738C1058.15 73.5152 1072.05 82.2693 1089 80.0428C1095.16 79.2342 1103.26 76.7768 1103.2 74.4869C1103.14 72.1155 1094.38 71.984 1083.86 68.3917C1064.62 61.8233 1052.52 48.1337 1046.47 41.2799C1034.15 27.3366 1038.64 24.8949 1030.11 17.4408Z" fill="url(#paint35_linear_4172_276544)"/>
<defs>
<linearGradient id="paint0_linear_4172_276544" x1="193.138" y1="970.933" x2="243.138" y2="312.298" gradientUnits="userSpaceOnUse">
<stop offset="0.0012" stop-color="#E3D6C7"/>
<stop offset="1" stop-color="#E3D6C7" stop-opacity="0"/>
</linearGradient>
<linearGradient id="paint1_linear_4172_276544" x1="-381.883" y1="315.061" x2="670.506" y2="779.523" gradientUnits="userSpaceOnUse">
<stop offset="0.0012" stop-color="#A35937"/>
<stop offset="1" stop-color="#673219" stop-opacity="0"/>
</linearGradient>
<linearGradient id="paint2_linear_4172_276544" x1="-295.925" y1="790.409" x2="268.228" y2="679.12" gradientUnits="userSpaceOnUse">
<stop offset="0.0012" stop-color="#673219"/>
<stop offset="1" stop-color="#673219" stop-opacity="0"/>
</linearGradient>
<linearGradient id="paint3_linear_4172_276544" x1="883.456" y1="1206.97" x2="832.332" y2="207.223" gradientUnits="userSpaceOnUse">
<stop offset="0.0012" stop-color="#E3D6C7"/>
<stop offset="1" stop-color="#E3D6C7" stop-opacity="0"/>
</linearGradient>
<linearGradient id="paint4_linear_4172_276544" x1="670.624" y1="190.154" x2="924.348" y2="724.109" gradientUnits="userSpaceOnUse">
<stop offset="0.0012" stop-color="#673219"/>
<stop offset="1" stop-color="#673219" stop-opacity="0"/>
</linearGradient>
<linearGradient id="paint5_linear_4172_276544" x1="566.628" y1="758.025" x2="882.594" y2="668.001" gradientUnits="userSpaceOnUse">
<stop offset="0.0012" stop-color="#673219"/>
<stop offset="1" stop-color="#673219" stop-opacity="0"/>
</linearGradient>
<linearGradient id="paint6_linear_4172_276544" x1="1030.94" y1="158.322" x2="993.733" y2="215.164" gradientUnits="userSpaceOnUse">
<stop offset="0.0012" stop-color="#852E24"/>
<stop offset="1" stop-color="#852E24" stop-opacity="0"/>
</linearGradient>
<linearGradient id="paint7_linear_4172_276544" x1="1099.76" y1="220.311" x2="1095.69" y2="88.9515" gradientUnits="userSpaceOnUse">
<stop offset="0.0012" stop-color="#673219"/>
<stop offset="1" stop-color="#673219" stop-opacity="0"/>
</linearGradient>
<linearGradient id="paint8_linear_4172_276544" x1="-74.9846" y1="-4.17666" x2="142.916" y2="560.13" gradientUnits="userSpaceOnUse">
<stop offset="0.0012" stop-color="#673219"/>
<stop offset="1" stop-color="#673219" stop-opacity="0"/>
</linearGradient>
<linearGradient id="paint9_linear_4172_276544" x1="521.148" y1="1206.11" x2="-42.2634" y2="383.832" gradientUnits="userSpaceOnUse">
<stop offset="0.0012" stop-color="#673219"/>
<stop offset="1" stop-color="#673219" stop-opacity="0"/>
</linearGradient>
<linearGradient id="paint10_linear_4172_276544" x1="1041.71" y1="73.4383" x2="1033.96" y2="180.105" gradientUnits="userSpaceOnUse">
<stop offset="0.0012" stop-color="#852E24"/>
<stop offset="1" stop-color="#852E24" stop-opacity="0"/>
</linearGradient>
<linearGradient id="paint11_linear_4172_276544" x1="1091.62" y1="317.896" x2="1028.58" y2="116.364" gradientUnits="userSpaceOnUse">
<stop offset="0.0012" stop-color="#852E24"/>
<stop offset="1" stop-color="#852E24" stop-opacity="0"/>
</linearGradient>
<linearGradient id="paint12_linear_4172_276544" x1="1055.36" y1="369.132" x2="1052.78" y2="134.012" gradientUnits="userSpaceOnUse">
<stop offset="0.0012" stop-color="#852E24"/>
<stop offset="1" stop-color="#852E24" stop-opacity="0"/>
</linearGradient>
<linearGradient id="paint13_linear_4172_276544" x1="688.333" y1="943.868" x2="645.43" y2="284.727" gradientUnits="userSpaceOnUse">
<stop offset="0.0012" stop-color="#E3D6C7"/>
<stop offset="1" stop-color="#E3D6C7" stop-opacity="0"/>
</linearGradient>
<linearGradient id="paint14_linear_4172_276544" x1="479.348" y1="-218.221" x2="697.246" y2="346.08" gradientUnits="userSpaceOnUse">
<stop offset="0.0012" stop-color="#673219"/>
<stop offset="1" stop-color="#673219" stop-opacity="0"/>
</linearGradient>
<linearGradient id="paint15_linear_4172_276544" x1="830.521" y1="-491.814" x2="645.361" y2="181.267" gradientUnits="userSpaceOnUse">
<stop offset="0.0012" stop-color="#E3D6C7"/>
<stop offset="1" stop-color="#E3D6C7" stop-opacity="0"/>
</linearGradient>
<linearGradient id="paint16_linear_4172_276544" x1="1458.2" y1="541.859" x2="982.658" y2="95.1933" gradientUnits="userSpaceOnUse">
<stop offset="0.0012" stop-color="#673219"/>
<stop offset="1" stop-color="#673219" stop-opacity="0"/>
</linearGradient>
<linearGradient id="paint17_linear_4172_276544" x1="908.418" y1="-28.7437" x2="885.058" y2="272.474" gradientUnits="userSpaceOnUse">
<stop offset="0.0012" stop-color="#673219"/>
<stop offset="1" stop-color="#673219" stop-opacity="0"/>
</linearGradient>
<linearGradient id="paint18_linear_4172_276544" x1="383.28" y1="-0.756535" x2="815.227" y2="255.327" gradientUnits="userSpaceOnUse">
<stop offset="0.0012" stop-color="#673219"/>
<stop offset="1" stop-color="#673219" stop-opacity="0"/>
</linearGradient>
<linearGradient id="paint19_linear_4172_276544" x1="461.158" y1="131.815" x2="723.411" y2="276.826" gradientUnits="userSpaceOnUse">
<stop offset="0.0012" stop-color="#673219"/>
<stop offset="1" stop-color="#673219" stop-opacity="0"/>
</linearGradient>
<linearGradient id="paint20_linear_4172_276544" x1="1233.02" y1="-140.962" x2="959.161" y2="352.471" gradientUnits="userSpaceOnUse">
<stop offset="0.0012" stop-color="#673219"/>
<stop offset="1" stop-color="#673219" stop-opacity="0"/>
</linearGradient>
<linearGradient id="paint21_linear_4172_276544" x1="-391.686" y1="1656.15" x2="839.915" y2="256.607" gradientUnits="userSpaceOnUse">
<stop offset="0.0012" stop-color="#673219"/>
<stop offset="1" stop-color="#673219" stop-opacity="0"/>
</linearGradient>
<linearGradient id="paint22_linear_4172_276544" x1="1046.55" y1="-34.7994" x2="855.134" y2="152.202" gradientUnits="userSpaceOnUse">
<stop offset="0.0012" stop-color="#673219"/>
<stop offset="1" stop-color="#673219" stop-opacity="0"/>
</linearGradient>
<linearGradient id="paint23_linear_4172_276544" x1="811.823" y1="935.83" x2="768.92" y2="276.69" gradientUnits="userSpaceOnUse">
<stop offset="0.0012" stop-color="#E3D6C7"/>
<stop offset="1" stop-color="#E3D6C7" stop-opacity="0"/>
</linearGradient>
<linearGradient id="paint24_linear_4172_276544" x1="504.172" y1="768.991" x2="820.138" y2="678.967" gradientUnits="userSpaceOnUse">
<stop offset="0.0012" stop-color="#673219"/>
<stop offset="1" stop-color="#673219" stop-opacity="0"/>
</linearGradient>
<linearGradient id="paint25_linear_4172_276544" x1="294.996" y1="969.47" x2="252.094" y2="310.33" gradientUnits="userSpaceOnUse">
<stop offset="0.0012" stop-color="#E3D6C7"/>
<stop offset="1" stop-color="#E3D6C7" stop-opacity="0"/>
</linearGradient>
<linearGradient id="paint26_linear_4172_276544" x1="-15.0166" y1="-27.3269" x2="202.868" y2="536.979" gradientUnits="userSpaceOnUse">
<stop offset="0.0012" stop-color="#673219"/>
<stop offset="1" stop-color="#673219" stop-opacity="0"/>
</linearGradient>
<linearGradient id="paint27_linear_4172_276544" x1="0.106729" y1="-33.1574" x2="218.002" y2="531.135" gradientUnits="userSpaceOnUse">
<stop offset="0.0012" stop-color="#673219"/>
<stop offset="1" stop-color="#673219" stop-opacity="0"/>
</linearGradient>
<linearGradient id="paint28_linear_4172_276544" x1="-23.0414" y1="-24.2364" x2="194.858" y2="540.068" gradientUnits="userSpaceOnUse">
<stop offset="0.0012" stop-color="#673219"/>
<stop offset="1" stop-color="#673219" stop-opacity="0"/>
</linearGradient>
<linearGradient id="paint29_linear_4172_276544" x1="-214.561" y1="859.346" x2="328.402" y2="670.005" gradientUnits="userSpaceOnUse">
<stop offset="0.0012" stop-color="#673219"/>
<stop offset="1" stop-color="#673219" stop-opacity="0"/>
</linearGradient>
<linearGradient id="paint30_linear_4172_276544" x1="1287.45" y1="-107.089" x2="967.057" y2="104.355" gradientUnits="userSpaceOnUse">
<stop offset="0.0012" stop-color="#673219"/>
<stop offset="1" stop-color="#673219" stop-opacity="0"/>
</linearGradient>
<linearGradient id="paint31_linear_4172_276544" x1="995.676" y1="13.1335" x2="969.007" y2="48.5356" gradientUnits="userSpaceOnUse">
<stop offset="0.0012" stop-color="#673219"/>
<stop offset="1" stop-color="#673219" stop-opacity="0"/>
</linearGradient>
<linearGradient id="paint32_linear_4172_276544" x1="1052.8" y1="13.4457" x2="1042.48" y2="30.1071" gradientUnits="userSpaceOnUse">
<stop offset="0.0012" stop-color="#673219"/>
<stop offset="1" stop-color="#673219" stop-opacity="0"/>
</linearGradient>
<linearGradient id="paint33_linear_4172_276544" x1="956.304" y1="41.9049" x2="1013.24" y2="74.7149" gradientUnits="userSpaceOnUse">
<stop offset="0.0012" stop-color="#673219"/>
<stop offset="1" stop-color="#673219" stop-opacity="0"/>
</linearGradient>
<linearGradient id="paint34_linear_4172_276544" x1="1052.8" y1="38.2093" x2="1067.79" y2="46.8429" gradientUnits="userSpaceOnUse">
<stop offset="0.0012" stop-color="#673219"/>
<stop offset="1" stop-color="#673219" stop-opacity="0"/>
</linearGradient>
<linearGradient id="paint35_linear_4172_276544" x1="1310.64" y1="-266.58" x2="965.43" y2="100.002" gradientUnits="userSpaceOnUse">
<stop offset="0.0012" stop-color="#E3D6C7"/>
<stop offset="1" stop-color="#E3D6C7" stop-opacity="0"/>
</linearGradient>
</defs>
</svg>
