<svg width="401" height="726" viewBox="0 0 401 726" fill="none" xmlns="http://www.w3.org/2000/svg">
<path fill-rule="evenodd" clip-rule="evenodd" d="M248.441 152.559C250.741 137.509 253.221 122.489 255.851 107.509C253.321 107.399 250.901 107.349 248.481 107.309C246.341 107.269 244.201 107.219 241.961 107.119C236.451 123.729 231.221 140.449 226.321 157.279C226.041 158.219 225.771 159.149 225.501 160.089C223.091 168.349 220.771 176.649 218.521 184.969V184.979C218.221 186.019 217.941 187.059 217.661 188.109C215.611 195.739 213.621 203.389 211.701 211.059C211.431 212.099 211.171 213.139 210.921 214.179C209.331 220.529 207.791 226.889 206.291 233.269C205.925 234.834 205.558 236.409 205.192 237.983L205.181 238.029C202.811 248.239 200.551 258.479 198.411 268.749C198.409 268.754 198.408 268.759 198.406 268.764C198.405 268.765 198.403 268.767 198.401 268.769C198.391 268.799 198.391 268.819 198.391 268.849C198.355 269.018 198.319 269.189 198.282 269.36C198.196 269.766 198.108 270.175 198.031 270.569C196.811 276.429 195.621 282.299 194.481 288.169L193.731 292.009C193.716 292.079 193.703 292.147 193.691 292.214C193.678 292.282 193.666 292.349 193.651 292.419C193.331 294.049 193.011 295.689 192.701 297.319C192.608 297.147 192.512 296.981 192.416 296.816C192.294 296.606 192.173 296.397 192.061 296.179C192.051 296.169 192.051 296.169 192.051 296.149C186.591 286.399 181.871 276.169 177.871 265.609C177.711 265.213 177.563 264.818 177.413 264.417C177.366 264.292 177.319 264.166 177.271 264.039C174.991 257.909 172.941 251.669 171.121 245.349C170.461 243.119 169.851 240.869 169.261 238.609C166.241 227.029 163.941 215.219 162.341 203.339L162.319 203.178C162.207 202.343 162.095 201.515 162.001 200.679C161.531 196.989 161.121 193.279 160.771 189.579C160.111 182.539 159.671 175.469 159.421 168.399C159.392 167.659 159.372 166.918 159.352 166.186L159.351 166.129C159.161 159.779 159.121 153.429 159.221 147.079C159.234 146.507 159.246 145.933 159.259 145.36C159.283 144.21 159.308 143.06 159.341 141.919C159.346 141.814 159.348 141.712 159.351 141.609C159.353 141.507 159.356 141.404 159.361 141.299L159.362 141.275C159.371 140.893 159.381 140.501 159.401 140.119C159.601 133.639 159.931 127.179 160.401 120.719C160.561 118.459 160.731 116.199 160.921 113.949C161.561 106.379 162.341 98.8193 163.261 91.2793C160.801 91.4114 158.32 91.7038 155.839 91.9961C153.44 92.2789 151.041 92.5616 148.661 92.6993C148.621 93.0905 148.58 93.4817 148.54 93.873C146.88 109.943 145.217 126.042 143.821 142.159C143.761 142.759 143.711 143.369 143.661 143.979C143.391 147.099 143.131 150.229 142.881 153.349C142.641 156.539 142.401 159.759 142.171 162.949C141.901 166.899 141.641 170.859 141.421 174.809C141.371 175.609 141.331 176.399 141.291 177.199C141.071 181.139 140.891 185.079 140.741 189.019C140.601 192.469 140.481 195.929 140.401 199.379C140.011 214.909 140.191 230.459 141.151 245.989L141.241 247.459C141.246 247.509 141.248 247.557 141.251 247.604C141.253 247.652 141.256 247.699 141.261 247.749C141.341 249.239 141.451 250.719 141.571 252.199L141.577 252.299C141.615 252.877 141.654 253.462 141.701 254.029C143.171 272.479 145.881 290.969 150.061 309.009C150.089 309.127 150.116 309.244 150.143 309.362C150.202 309.623 150.262 309.884 150.331 310.139C150.511 310.949 150.711 311.759 150.911 312.569C150.936 312.674 150.961 312.777 150.986 312.879C151.011 312.982 151.036 313.084 151.061 313.189C157.211 338.199 166.261 362.259 178.881 384.009C178.041 390.489 177.241 396.979 176.491 403.479C176.371 404.439 176.251 405.409 176.141 406.369C175.421 412.709 174.731 419.039 174.101 425.389L174.056 425.807C173.971 426.603 173.888 427.389 173.811 428.189C172.441 441.849 171.261 455.549 170.281 469.269C170.171 470.709 170.061 472.159 169.981 473.619C169.261 483.809 168.651 494.009 168.161 504.219V504.229C168.073 505.744 168.004 507.269 167.936 508.784L167.931 508.889C167.821 511.239 167.721 513.579 167.621 515.929C167.621 515.974 167.618 516.019 167.616 516.064C167.613 516.109 167.611 516.154 167.611 516.199C167.586 516.87 167.56 517.544 167.533 518.218C167.505 518.921 167.476 519.625 167.451 520.329C166.811 536.939 166.451 553.569 166.371 570.199C166.367 570.76 166.364 571.321 166.361 571.882C166.348 574.314 166.341 576.75 166.341 579.179V579.202C166.341 580.705 166.341 582.207 166.351 583.719C166.361 585.889 166.371 588.059 166.391 590.229C166.501 602.659 166.761 615.089 167.171 627.509C167.221 629.429 167.291 631.329 167.371 633.229C167.601 639.329 167.851 645.439 168.161 651.539C168.257 653.657 168.37 655.759 168.483 657.865C168.522 658.602 168.562 659.34 168.601 660.079C168.731 662.349 168.861 664.609 169.001 666.869C169.041 667.679 169.091 668.499 169.141 669.309C169.371 673.159 169.621 677.009 169.891 680.849L170.131 684.239C170.691 692.199 171.321 700.159 172.021 708.109C179 709 196.5 707 210 702C210 702 210 701.999 210 701.999C219.857 698.76 228.226 694.622 231.481 690.479C231.481 690.479 227.641 644.459 226.281 621.389C226.002 616.657 225.743 611.925 225.484 607.193L225.481 607.139C225.001 597.919 224.581 588.689 224.211 579.459C224.161 578.339 224.121 577.209 224.091 576.089L224.084 575.902C223.956 572.655 223.829 569.417 223.721 566.169L223.717 566.067C223.689 565.252 223.66 564.445 223.641 563.629C223.573 561.675 223.515 559.712 223.457 557.758L223.451 557.559L223.391 555.699C223.371 555.129 223.351 554.559 223.341 553.979C223.331 553.578 223.32 553.176 223.309 552.774C223.287 551.962 223.264 551.148 223.251 550.339C222.901 537.139 222.661 523.949 222.551 510.739L222.521 507.369L222.491 502.659C222.471 499.789 222.461 496.909 222.471 494.039C222.461 487.479 222.481 480.929 222.531 474.369L222.571 470.649C222.731 454.139 223.061 437.629 223.591 421.129V421.119L223.801 414.919C223.821 414.309 223.843 413.702 223.866 413.094C223.888 412.487 223.911 411.879 223.931 411.269C223.937 411.079 223.943 410.889 223.948 410.699C223.971 409.939 223.993 409.179 224.041 408.419C224.451 396.919 224.971 385.449 225.581 373.969C225.661 372.399 225.741 370.829 225.841 369.259C226.541 356.379 227.361 343.509 228.301 330.649C228.366 329.677 228.441 328.713 228.515 327.741L228.531 327.539C229.191 318.589 229.911 309.649 230.681 300.709C230.771 299.669 230.861 298.639 230.951 297.609V297.599C231.111 295.72 231.281 293.84 231.451 291.96L231.451 291.959C231.58 290.395 231.72 288.832 231.859 287.268L231.861 287.249V287.239C232.761 277.499 233.721 267.779 234.751 258.059C234.891 256.669 235.041 255.289 235.201 253.899V253.889C236.851 238.459 238.671 223.039 240.661 207.649V207.639C240.741 206.939 240.831 206.249 240.931 205.549C240.994 205.002 241.065 204.462 241.136 203.917L241.161 203.729C241.221 203.249 241.283 202.767 241.346 202.284C241.408 201.802 241.471 201.319 241.531 200.839C242.181 195.929 242.841 190.999 243.531 186.089C243.651 185.139 243.781 184.189 243.931 183.239C245.201 174.129 246.521 165.039 247.921 155.949C248.081 154.829 248.251 153.689 248.441 152.559Z" fill="black"/>
</svg>
