<svg width="553" height="780" viewBox="0 0 553 780" fill="none" xmlns="http://www.w3.org/2000/svg">
<path d="M1.15983 559.932C0.148018 559.713 -0.302789 561.514 0.278251 562.38C0.408485 562.609 0.558754 562.758 0.749095 562.938C-0.062358 563.266 -0.282752 564.719 0.428521 565.346C2.34195 567.217 4.29544 568.759 6.30905 570.202C25.293 592.704 51.55 599.013 78.5784 597.54C67.709 602.297 56.5289 604.795 44.6677 604.656C40.1997 604.029 35.892 603.302 31.8147 602.486C28.8394 601.909 28.2583 607.204 30.1217 609.144C69.0714 649.678 132.545 631.307 180.511 610.597C175.101 629.954 168.56 648.793 160.796 667.751C160.285 669.035 161.417 670.478 162.318 669.433L162.46 669.271C165.847 665.385 169.186 661.556 172.487 657.62C171.951 658.442 171.429 659.268 170.909 660.09C169.825 661.805 168.749 663.506 167.578 665.134C166.866 666.089 167.838 667.542 168.65 666.676C171.807 663.209 174.949 659.81 178.064 656.44C196.284 636.726 213.577 618.015 227.685 592.714C230.34 609.154 234.467 623.375 241.67 638.104C242.201 639.219 243.574 638.313 243.083 637.099C239.416 628.759 236.862 619.126 235.059 608.965C236.992 612.956 238.966 616.757 240.959 620.191C244.589 626.592 248.627 632.426 252.802 638.063C249.967 698.155 244.205 761.189 244.205 761.189C284.187 783.74 301.798 755.885 301.798 755.885C299.962 727.245 299.802 668.769 300.011 623.228C304.97 630.985 310.242 638.398 315.369 645.609C316.972 647.863 318.56 650.097 320.121 652.315C320.762 653.231 321.754 651.937 321.173 651.101C314.35 640.264 308.029 628.312 302.469 615.981C311.345 626.63 320.912 636.084 331.191 643.787C355.118 661.734 382.414 666.941 409.434 672.096C412.574 672.695 415.711 673.294 418.838 673.911C422.915 674.727 423.606 666.716 420.15 664.895C411.975 660.745 403.791 657.291 395.656 653.997C396.017 652.664 395.776 651.012 394.644 650.494C385.588 646.603 378.746 638.194 372.505 628.948C418.888 671.513 484.445 685.147 532.321 647.419C534.114 646.016 533.242 641.956 531.048 642.772C529.591 643.374 528.089 643.803 526.564 644.239C526.025 644.393 525.482 644.548 524.938 644.712C524.697 644.583 524.417 644.394 524.076 644.344C500.223 639.905 476.781 628.769 457.086 610.468C461.764 612.777 466.443 614.996 471.181 617.215C473.455 618.36 474.397 613.921 472.343 612.617C471.598 612.16 470.849 611.701 470.098 611.24C459.378 604.672 448.067 597.743 438.603 588.146C452.648 594.266 466.954 598.018 477.983 599.282C499.562 601.919 538.041 605.094 552.567 578.642C554.009 576.094 551.555 572.641 549.501 574.183C545.815 576.82 541.938 578.711 537.921 580.343C537.831 578.273 536.829 576.283 534.705 575.865C506.625 570.61 477.473 533.609 457.908 507.665C451.236 498.817 445.034 489.801 439.134 480.556C447.674 485.659 456.576 489.408 465.52 493.175C471.106 495.528 476.709 497.888 482.251 500.589C483.964 501.455 485.236 498.001 483.644 496.738C475.726 490.353 467.183 485.841 458.649 481.332C447.92 475.665 437.204 470.004 427.764 460.642C427.559 460.434 427.354 460.207 427.146 459.978C426.857 459.658 426.564 459.334 426.261 459.05C426.026 458.629 425.792 458.209 425.558 457.789C423.567 454.22 421.577 450.653 419.659 446.958C450.484 456.791 483.543 456.602 513.938 447.406C518.035 446.142 517.554 437.952 513.377 437.812C510.552 437.673 507.697 437.534 504.841 437.414C504.621 435.922 503.81 434.498 502.307 434.24C472.744 428.607 446.126 411.848 422.143 388.849C419.569 386.391 417.024 383.734 414.49 381.047C441.027 386.67 467.976 383.594 492.94 367.154C495.896 365.193 494.313 359.76 491.347 360.038C491.518 357.958 490.596 355.6 488.733 355.6C445.595 355.998 412.987 328.57 386.88 290.554C408.719 306.726 430.208 315.016 455.523 305.492C457.557 304.676 456.936 300.755 454.832 301.243C438.042 305.004 419.699 294.356 404.362 280.463C413.197 282.732 422.424 283.359 431.841 282.264C434.656 281.956 435.057 276.771 432.101 276.283C405.654 272.382 381.801 254.847 365.131 228.186C363.659 225.548 362.106 222.981 360.543 220.433C358.967 217.537 357.596 214.543 356.245 211.594L355.995 211.049C370.882 228.634 389.114 240.775 408.269 247.94C411.514 249.115 412.837 243.273 409.922 241.501C392.08 230.903 376.542 213.795 364.059 193.852C379.958 203.863 397.249 209.068 416.533 209.307C418.787 209.347 418.998 204.918 416.744 204.679C389.996 202.221 364.701 171.48 347.089 145.605C354.062 151.676 361.275 155.935 368.477 157.657C369.399 157.896 369.89 156.074 368.928 155.766C329.762 143.02 318.697 79.2784 310.498 32.0465C309.459 26.0623 308.466 20.3431 307.468 15.0262C306.777 11.2643 303.431 9.47301 300.947 10.4981C300.901 9.83234 300.862 9.16662 300.822 8.50091C300.73 6.94735 300.637 5.39379 300.476 3.84023C299.895 -1.45417 294.375 -0.96653 293.072 3.42225C264.411 99.8262 219.36 194.409 135.921 211.616C134.829 211.775 134.829 213.596 135.51 214.323C151.84 232.166 180.341 220.095 204.303 202.56C200.767 206.411 197.161 210.292 193.214 213.885C190.95 215.945 188.601 218.179 186.18 220.481C174.449 231.638 161.024 244.405 147.372 246.806C147.283 246.806 147.196 246.818 147.108 246.83C147.018 246.843 146.927 246.855 146.831 246.855C146.716 246.855 146.64 246.933 146.562 247.013C146.551 247.023 146.541 247.034 146.53 247.045H146.47C146.24 247.134 145.999 247.303 145.849 247.532C145.822 247.559 145.809 247.598 145.797 247.636C145.787 247.668 145.777 247.699 145.759 247.721C145.288 248.587 145.378 249.891 146.32 250.289C161.467 257.365 185.259 260.4 207.479 255.872C199.264 270.959 189.767 284.354 175.692 296.008C157.179 311.274 138.215 326.66 117.238 334.95C113.21 335.089 109.303 335.228 105.847 335.467C104.455 335.517 104.024 337.587 105.036 338.711C105.706 339.476 106.486 340.159 107.244 340.824C107.483 341.033 107.72 341.241 107.951 341.448C107.761 343.707 108.732 346.026 110.786 345.837C111.38 345.799 112.027 345.678 112.654 345.561C112.842 345.526 113.028 345.491 113.21 345.459C125.853 353.44 143.034 354.306 160.064 351.997C153.613 358.466 146.72 364.397 139.427 368.159C132.966 369.542 126.104 369.841 118.68 368.766C117.829 368.627 117.268 370.159 117.869 370.936C117.974 371.065 118.087 371.175 118.197 371.282C118.307 371.389 118.415 371.493 118.51 371.612C117.568 371.513 117.378 373.294 118.019 373.921C120.634 376.578 123.489 378.161 126.424 379.076C132.405 383.515 138.926 385.784 145.749 386.272C130.131 395.288 112.479 400.961 96.2801 401.448C94.2966 401.309 92.303 401 90.2894 400.632C88.1055 399.746 85.8915 398.781 83.7276 397.736C79.8407 395.796 77.7169 402.175 79.6904 405.887C90.5599 426.358 114.072 434.598 134.368 437.822C132.054 441.236 129.65 444.53 127.055 447.655C112.108 465.966 83.0164 490.498 57.9816 499.843C47.2223 500.032 36.7035 498.977 26.7957 496.13C25.9642 495.941 24.7821 497.136 25.4233 498.3C33.3775 513.516 46.0302 520.453 60.1054 522.533C51.738 524.692 43.3158 526.56 34.8736 528.432L33.6981 528.693C32.2154 528.942 32.6863 531.49 33.8684 531.818C48.8151 535.301 67.8693 535.44 86.2922 530.863C81.1029 535.351 76.0639 539.431 71.5358 543.004C53.9243 556.847 34.0387 562.669 13.9227 563.156C9.67507 561.992 5.42747 560.937 1.15983 559.932Z" fill="black"/>
</svg>
