<svg width="150" height="140" viewBox="0 0 150 140" fill="none" xmlns="http://www.w3.org/2000/svg">
<path d="M44.6832 117.064C41.8673 119.584 42.5122 127.129 44.7219 130.196C46.132 132.153 48.3977 133.272 50.573 134.313C53.677 135.801 56.7981 137.298 60.1171 138.214C63.436 139.13 66.987 139.448 70.3146 138.558C75.3832 137.199 79.2911 133.272 82.9411 129.499C83.6805 128.734 84.4586 127.903 84.6478 126.854C85.0089 124.858 83.1689 123.215 81.5266 122.028C80.2713 121.12 78.9945 120.199 77.5414 119.67C76.0883 119.141 74.3987 119.051 73.0316 119.778C70.7316 121.004 70.1211 123.933 69.2871 126.406C68.6852 128.192 67.9114 129.624 66.4712 130.837C65.031 132.05 62.8341 132.515 61.1016 131.775C58.9047 130.837 57.9976 128.725 56.8024 126.656C54.1241 122.015 48.6169 113.545 44.6832 117.064Z" fill="#FF9F77" stroke="black" stroke-width="0.163193" stroke-miterlimit="10"/>
<path d="M59.5796 106.684C57.1893 107.05 54.7173 107.446 52.6795 108.749C50.6417 110.052 49.1456 112.53 49.7432 114.874C50.3795 117.365 52.9976 118.763 55.4395 119.55C57.0259 120.062 58.6724 120.445 60.3362 120.397C63.0274 120.32 65.6671 119.038 67.3953 116.973C69.1236 114.909 69.9189 112.087 69.5234 109.42C69.1838 107.14 67.8553 104.878 65.7101 104.03C63.5691 103.179 60.693 104.258 59.5796 106.684Z" fill="#FFA078"/>
<path d="M72.0082 82.6693C69.8157 83.6716 67.5543 84.7211 65.9293 86.5019C64.2999 88.2827 63.4487 91.0055 64.5278 93.1648C65.2156 94.5413 66.5956 95.4919 68.0745 95.9178C69.5534 96.3436 71.1355 96.2877 72.6574 96.0468C75.5163 95.5951 78.3279 94.4596 80.4087 92.4508C82.4895 90.442 83.7534 87.4869 83.3536 84.6222C82.9538 81.7531 80.7096 79.1292 77.855 78.6647C75.0004 78.1958 71.8578 80.2519 72.0082 82.6693Z" fill="#FFA078"/>
<path d="M23.3079 97.6341C22.4352 97.9051 21.8935 98.8256 21.786 99.7332C21.6785 100.641 21.9236 101.548 22.1643 102.43C22.7103 104.43 23.2563 106.435 23.8023 108.435C24.2021 109.906 24.6535 111.459 25.7842 112.483C26.7601 113.364 28.0971 113.713 29.374 114.027C31.2742 114.496 33.4624 114.913 35.0445 113.756C36.115 112.973 36.6352 111.588 36.618 110.263C36.6008 108.938 36.1064 107.656 35.4658 106.495C32.9422 101.884 28.2175 98.8213 23.3079 97.6341Z" fill="#FFA078"/>
<path d="M59.5796 106.684C57.1893 107.05 54.7173 107.446 52.6795 108.749C50.6417 110.052 49.1456 112.53 49.7432 114.874C50.3795 117.365 52.9976 118.763 55.4395 119.55C57.0259 120.062 58.6724 120.445 60.3362 120.397C63.0274 120.32 65.6671 119.038 67.3953 116.973C69.1236 114.909 69.9189 112.087 69.5234 109.42C69.1838 107.14 67.8553 104.878 65.7101 104.03C63.5691 103.179 60.693 104.258 59.5796 106.684Z" fill="#FF6338"/>
<path d="M72.0082 82.6693C69.8157 83.6716 67.5543 84.7211 65.9293 86.5019C64.2999 88.2827 63.4487 91.0055 64.5278 93.1648C65.2156 94.5413 66.5956 95.4919 68.0745 95.9178C69.5534 96.3436 71.1355 96.2877 72.6574 96.0468C75.5163 95.5951 78.3279 94.4596 80.4087 92.4508C82.4895 90.442 83.7534 87.4869 83.3536 84.6222C82.9538 81.7531 80.7096 79.1292 77.855 78.6647C75.0004 78.1958 71.8578 80.2519 72.0082 82.6693Z" fill="#FF6338"/>
<path d="M23.3079 97.6341C22.4352 97.9051 21.8935 98.8256 21.786 99.7332C21.6785 100.641 21.9236 101.548 22.1643 102.43C22.7103 104.43 23.2563 106.435 23.8023 108.435C24.2021 109.906 24.6535 111.459 25.7842 112.483C26.7601 113.364 28.0971 113.713 29.374 114.027C31.2742 114.496 33.4624 114.913 35.0445 113.756C36.115 112.973 36.6352 111.588 36.618 110.263C36.6008 108.938 36.1064 107.656 35.4658 106.495C32.9422 101.884 28.2175 98.8213 23.3079 97.6341Z" fill="#FF6338"/>
<path d="M142.161 20.9093C141.194 18.0876 139.397 16.3369 139.397 16.3369C139.397 16.3369 133.262 14.7238 129.96 16.595C132.879 21.5545 133.563 27.3486 129.552 31.4736C128.598 32.4587 126.048 33.9771 124.849 33.3061C123.873 32.7598 123.632 31.4822 123.516 30.3725C123.043 25.8689 122.858 21.3308 122.974 16.8057C120.038 16.5433 116.242 15.6314 113.31 15.369C113.366 18.393 113.877 22.0707 113.129 25C109.325 23.2837 106.737 19.1629 106.848 14.9862C106.96 10.8095 113.568 4.7961 113.65 4.45628C114.333 1.62594 107.515 3.17015 104.716 2.36578C100.284 4.35305 99.1271 10.3966 99.1916 15.2572C99.2561 20.1178 100.542 24.9785 99.8751 29.7961C99.3808 33.3577 97.8331 36.7558 97.7213 40.3475C97.502 47.389 102.747 53.4841 103.719 60.4568C104.316 64.7539 103.246 69.1156 101.775 73.2019C100.305 77.284 98.4263 81.2284 97.3086 85.4223C96.1908 89.6162 95.8856 94.1973 97.5493 98.2062C99.2131 102.215 103.203 105.446 107.536 105.243C112.626 105.007 116.139 101.024 120.369 100.701C124.208 101.798 128.804 100.434 131.706 98.232C134.608 96.0297 135.373 94.1973 135.45 90.554C135.528 86.9106 135.932 82.9103 134.603 79.5165C133.275 76.1226 134.801 76.0796 128.843 67.7735C126.869 65.0249 128.223 54.9767 129.079 47.6127C129.247 46.1846 129.419 44.7221 130.051 43.4274C131.241 40.9927 133.791 39.5991 135.966 37.9774C139.01 35.7106 141.572 32.6436 142.66 29.0046C143.176 27.2453 143.073 23.5676 142.161 20.9093ZM119.092 58.7534C117.648 60.646 114.776 61.9193 112.411 62.2118C112.076 62.2548 111.706 62.2634 111.44 62.0612C111.001 61.73 111.096 61.059 111.212 60.5213C112.016 56.9038 109.002 52.0776 111.564 49.5956C112.777 48.4213 117.734 48.1546 118.813 49.2687C119.66 50.1419 120.558 50.9248 120.73 52.1292C121.074 54.4821 120.537 56.8608 119.092 58.7534ZM128.748 84.076C129.126 84.7255 129.513 85.4697 129.625 86.2138C129.84 87.6075 130.915 91.0658 127.291 93.3972C126.121 94.15 123.907 95.406 122.669 94.7651C121.895 94.365 121.942 92.0337 121.968 90.9884C122.071 87.1988 123.163 84.5577 123.821 83.7792C124.939 82.4629 128.146 83.0393 128.748 84.076Z" fill="#FF9F77" stroke="black" stroke-width="0.163193" stroke-miterlimit="10"/>
<path d="M142.161 20.9094C141.194 18.0876 139.397 16.3369 139.397 16.3369C139.397 16.3369 133.262 14.7239 129.96 16.595C131.787 19.6921 131.736 19.662 137.114 19.9803C138.279 20.0491 140.042 22.3418 140.381 24.514C140.725 26.6905 140.506 28.966 140.295 30.2865C140.08 31.6415 138.098 34.7944 135.055 37.2807C128.189 42.8984 129.41 44.7179 130.042 43.4274C131.233 40.9928 133.782 39.5991 135.957 37.9775C139.001 35.7106 141.563 32.6437 142.651 29.0047C143.176 27.2454 143.072 23.5677 142.161 20.9094Z" fill="#FF6338"/>
<path d="M123.511 30.3725C123.038 25.8689 122.854 21.3309 122.97 16.8058C120.033 16.5434 116.237 15.6315 113.305 15.3691C113.361 18.393 113.907 17.9715 119.358 20.2684C121.173 21.0341 120.678 22.8794 122.484 27.8261C122.866 28.8756 123.627 31.4866 123.511 30.3725Z" fill="#FF6338"/>
<path d="M104.707 2.36578C102.532 3.45405 105.077 6.33602 106.814 7.29954C107.033 7.41998 107.759 8.13402 107.51 9.16206C106.891 11.7128 105.309 15.3518 106.637 18.1779C107.618 20.2641 107.79 20.5265 106.839 14.9819C106.255 11.5709 113.559 4.7918 113.641 4.45198C114.324 1.62163 107.506 3.17015 104.707 2.36578Z" fill="#FF6338"/>
<path d="M134.595 79.5164C133.993 76.2645 132.815 73.5245 130.106 69.7479C129.109 68.3542 127.78 65.8421 127.909 63.971C128.022 62.3549 128.153 61.0341 128.153 59.8101C128.764 45.9394 125.394 61.983 125.235 63.6613C125.098 65.1066 126.706 69.1198 129.427 72.9653C129.848 73.5632 131.908 78.4368 132.144 81.1553C132.376 83.8265 132.995 87.9817 132.385 90.3002C132.2 91.0056 130.949 94.0983 128.967 95.5092C124.423 98.7482 117.407 100.925 120.352 100.701C124.191 101.798 128.786 100.434 131.688 98.232C134.59 96.0297 135.356 94.1973 135.433 90.5539C135.51 86.9106 135.257 83.1038 134.595 79.5164Z" fill="#FF6338"/>
<path d="M128.748 77.5464C122.316 77.598 117.815 77.869 111.384 77.9206C112.373 81.28 112.291 83.8566 112.136 87.358C111.977 90.8593 110.455 94.4941 107.437 96.2749C104.424 98.0557 99.8751 97.2513 98.3489 94.0983C102.098 92.3175 103.25 88.8979 103.955 85.1857C104.66 81.4736 105.442 78.4884 105.984 74.7461C106.676 69.9758 109.032 65.6185 110.348 60.9815C111.328 57.5189 111.607 54.6197 111.195 49.9182C110.928 46.9115 112.708 44.2919 112.613 41.2766C108.297 41.2938 102.48 41.3067 98.164 41.3239C98.1726 44.5156 98.8304 47.7116 98.839 50.9032C98.8691 59.7556 89.3552 66.4487 86.0706 75.1118C84.2951 79.8046 84.0544 84.9707 82.2831 89.6678C80.3313 94.8468 76.6384 99.1482 73.6763 103.824C70.2886 109.171 67.8338 115.046 65.3919 120.892C64.8287 122.238 64.287 123.86 65.091 125.082C65.8089 126.17 67.3222 126.428 68.6076 126.213C69.8931 125.998 71.1054 125.434 72.3952 125.262C75.2584 124.888 78.0012 126.518 80.1938 128.398C82.3863 130.278 85.0045 132.076 87.614 133.319C92.1238 135.47 97.4934 135.28 102.136 133.435C105.855 131.955 108.955 129.331 111.16 125.985C114.041 121.61 113.692 115.894 115.485 110.969C117.347 105.854 121.981 101.682 122.153 96.2405C122.261 92.7993 121.586 89.1474 123.056 86.0331C124.776 82.3984 127.832 81.4693 128.748 77.5464ZM104.217 121.856C103.228 123.038 101.792 123.787 100.838 125C100.438 125.507 100.133 126.084 99.7074 126.566C98.7573 127.645 97.287 128.161 95.8511 128.209C94.4152 128.252 92.9965 127.869 91.6423 127.392C90.5503 127.009 89.4669 126.553 88.5555 125.839C87.6441 125.125 86.6467 123.744 86.9563 121.683C87.8978 115.421 90.0516 124.686 97.5622 119.382C99.6171 117.928 103.276 114.999 104.153 115.197C104.849 115.352 105.245 116.1 105.408 116.797C105.825 118.548 105.369 120.479 104.217 121.856Z" fill="#FF9F77" stroke="black" stroke-width="0.163193" stroke-miterlimit="10"/>
<path d="M128.748 77.5463C122.316 77.5979 117.815 77.8689 111.384 77.9205C112.372 81.28 116.594 81.5338 119.122 83.0565C122.333 84.9921 118.946 100.456 115.928 103.157C113.886 104.99 112.097 112.586 109.483 121.21C108.103 125.757 104.148 129.46 102.394 130.682C94.359 136.261 102.377 135.371 108.581 129.43C114.152 124.097 113.692 115.898 115.485 110.973C117.346 105.858 121.981 101.686 122.153 96.2447C122.26 92.8035 121.585 89.1516 123.056 86.0374C124.775 82.3984 127.832 81.4692 128.748 77.5463Z" fill="#FF6338"/>
<path d="M112.613 41.2809C108.297 41.2981 102.48 41.311 98.1638 41.3282C98.1724 44.5199 103.013 46.2361 105.502 47.4664C109.642 49.5181 109.552 55.2692 106.276 63.9323C105.072 67.1197 100.051 73.1374 100.662 80.6391C101.152 86.6869 103.052 92.1799 103.955 85.1857C104.518 80.8068 105.442 78.4884 105.984 74.7461C106.676 69.9758 109.032 65.6184 110.347 60.9815C111.328 57.5188 111.607 54.6197 111.194 49.9182C110.928 46.9115 112.703 44.2919 112.613 41.2809Z" fill="#FF6338"/>
<path d="M104.965 39.3194C107.037 35.6202 107.428 31.2327 106.418 27.1119C110.808 26.6086 115.408 25.9978 119.797 25.4946C120.33 25.4344 121.362 26.0366 121.229 26.7764C120.481 30.9359 121.809 36.4417 124.122 39.9775C117.88 40.9195 111.487 40.8163 104.965 39.3194Z" fill="#FF9F77" stroke="black" stroke-width="0.163193" stroke-miterlimit="10"/>
<path d="M116.848 32.9102C116.152 31.8649 113.035 31.6154 112.007 31.3315C108.71 30.4196 106.926 29.1722 106.418 27.1161C110.808 26.6129 115.408 26.0021 119.797 25.4988C120.33 25.4386 121.362 26.0408 121.229 26.7806C120.481 30.9401 121.272 35.4781 123.585 39.0139C121.65 38.558 118.361 35.1813 116.848 32.9102Z" fill="#FF6338"/>
<path d="M121.1 38.9496C122.114 38.8937 125.279 39.0442 126.293 39.1044C127.312 39.1646 127.824 39.1862 126.856 39.7582C126.422 40.0163 125.7 40.1497 125.008 40.2572C120.257 41.0057 115.017 41.2982 110.128 40.7433C107.816 40.4809 105.473 39.9733 104.329 39.0571C104.161 38.9238 104.045 38.7345 104.312 38.6399C104.445 38.5926 104.634 38.584 104.806 38.5797C110.305 38.4334 115.906 39.2378 121.1 38.9496Z" fill="#FF9F77"/>
<path d="M105.417 44.7822C109.543 44.7822 112.889 43.1934 112.889 41.2336C112.889 39.2737 109.543 37.6849 105.417 37.6849C101.29 37.6849 97.9448 39.2737 97.9448 41.2336C97.9448 43.1934 101.29 44.7822 105.417 44.7822Z" fill="#FFDFCE"/>
<path d="M105.447 43.436C108.593 43.436 111.143 42.3286 111.143 40.9626C111.143 39.5967 108.593 38.4893 105.447 38.4893C102.301 38.4893 99.7502 39.5967 99.7502 40.9626C99.7502 42.3286 102.301 43.436 105.447 43.436Z" fill="#DF4B23"/>
<path d="M102.885 54.2196L85.7784 53.9787C79.7467 55.4842 74.9188 60.633 68.7324 61.2481C66.7075 61.4503 64.6697 61.1406 62.6448 60.9427C56.2692 60.3233 49.8421 60.8137 43.4536 61.2997C37.7616 61.7342 31.9793 62.1902 26.6312 64.186C22.4911 66.2249 20.7801 69.7779 19.3098 73.0771C18.2565 75.4386 17.1817 77.9291 17.3967 80.5057C17.6159 83.1296 19.1507 85.461 19.7139 88.0332C20.3029 90.713 19.7655 93.6251 18.2651 95.9221C17.0012 97.8577 15.1353 99.3073 13.2824 100.684C11.4295 102.06 9.5164 103.428 8.11059 105.26C6.70478 107.093 5.84496 109.502 6.42104 111.738C8.42443 114.741 10.9136 117.868 14.2411 119.885C17.5686 121.903 21.9064 122.625 25.3629 120.849C27.2159 119.894 28.7033 118.302 30.625 117.502C34.7522 115.786 39.3222 118.161 43.2902 120.212C47.4733 122.376 51.9186 124.286 56.6175 124.591C61.3164 124.901 66.3507 123.37 69.2956 119.688C72.176 116.087 72.6188 111.149 74.5577 106.968C76.2902 103.23 79.2824 100.09 82.9281 98.176C86.8316 96.1285 91.939 94.9671 93.5039 90.8464C94.239 88.9107 93.9553 86.7643 93.9811 84.6996C94.037 79.9938 95.7222 75.4773 97.3817 71.0726C99.5054 65.4506 100.765 59.8373 102.885 54.2196ZM34.2363 111.7C33.6688 112.065 32.9552 112.147 32.2845 112.078C30.6079 111.906 29.1376 110.891 27.8951 109.751C26.4635 108.439 25.1953 106.878 24.5504 105.045C23.9055 103.213 23.0543 99.6643 24.9846 99.4234C26.0723 99.2858 27.8134 103.196 29.4428 105.011C30.509 106.198 31.6525 107.351 33.0411 108.134C33.858 108.594 34.8597 109.05 35.0488 109.971C35.1907 110.637 34.8038 111.334 34.2363 111.7ZM66.8322 111.106C65.766 113.704 63.8658 116.07 61.2562 117.107C57.4859 118.604 52.3786 115.193 51.9357 114.388C51.4886 113.579 51.6434 112.487 52.2926 111.837C53.535 110.594 55.6416 111.27 57.3483 110.857C58.5607 110.564 59.5495 109.717 60.4609 108.865C61.3723 108.018 62.2966 107.114 63.4617 106.68C64.6267 106.241 66.1271 106.405 66.8666 107.411C67.6318 108.448 67.3223 109.915 66.8322 111.106ZM79.4587 86.7084C78.8525 88.8892 77.9368 89.9 76.0151 91.0915C74.0934 92.283 72.2448 93.7068 68.2208 92.7433C67.0643 92.468 65.8993 90.3732 66.3249 89.5731C67.0084 88.287 68.7969 88.2655 70.1425 87.7106C73.6506 86.2696 74.1192 79.9164 77.8809 80.4111C80.125 80.7122 80.0648 84.5275 79.4587 86.7084Z" fill="#FF9F77" stroke="black" stroke-width="0.163193" stroke-miterlimit="10"/>
<path d="M102.884 54.2196C102.884 54.2196 93.4091 55.9058 96.1218 58.0952C99.2559 60.6244 94.6386 68.1004 93.293 70.9307C91.9947 73.6578 89.1271 79.3787 90.4427 86.5406C91.6206 92.9713 83.4265 94.4725 78.9339 96.7867C69.3985 101.708 69.8886 114.668 64.6738 118.556C60.3747 121.761 39.3219 118.152 43.2943 120.208C47.4773 122.372 51.9226 124.281 56.6216 124.587C61.3205 124.897 66.3547 123.365 69.2996 119.683C72.18 116.083 72.6229 111.145 74.5618 106.964C76.2943 103.226 79.2865 100.086 82.9321 98.1717C86.8357 96.1242 91.9431 94.9629 93.5079 90.8421C94.2431 88.9064 93.9594 86.76 93.9851 84.6953C94.041 79.9895 95.7263 75.473 97.3857 71.0684C99.5052 65.4507 100.765 59.8373 102.884 54.2196Z" fill="#FF6338"/>
<path d="M37.5079 82.7554C35.3368 78.2131 33.1142 73.232 34.2105 68.3155C34.9585 64.9733 37.2112 61.6138 36.0161 58.4007C35.2594 56.3661 33.3077 55.0756 31.7514 53.5658C30.1908 52.056 28.8323 47.4621 28.8323 47.4621C28.8323 47.4621 32.0695 45.849 33.4366 45.2985C43.7932 41.1218 54.7086 36.2095 63.7497 29.6541C66.2389 33.5641 65.7359 38.1021 64.1753 42.4681C63.2553 45.0447 61.6216 47.5524 61.9612 50.2623C62.1719 51.9313 63.1134 53.4024 63.7626 54.9509C65.7273 59.618 65.0394 64.9819 63.5906 69.8296C61.6259 76.3979 58.3156 82.5576 53.9219 87.8139C51.9443 90.1797 49.3691 92.5283 46.2867 92.4294C43.7459 92.3476 41.5147 90.541 40.2249 88.343C38.9352 86.1579 38.0453 83.8824 37.5079 82.7554Z" fill="#FF9F77" stroke="black" stroke-width="0.163193" stroke-miterlimit="10"/>
<path d="M44.9582 62.7278C45.8095 58.5769 46.0889 53.8453 40.6462 50.1202C38.875 48.9072 36.3772 48.6233 33.2561 49.4836C29.7781 50.4428 28.8323 47.4662 28.8323 47.4662C28.8323 47.4662 32.0695 45.8532 33.4366 45.3026C43.7932 41.1259 54.7086 36.2137 63.7497 29.6583C66.2389 33.5683 65.7359 38.1063 64.1753 42.4723C63.2553 45.0488 61.6216 47.5566 61.9612 50.2665C62.1719 51.9354 63.1134 53.4065 63.7626 54.955C65.7273 59.6221 65.0394 64.986 63.5906 69.8337C52.0991 108.284 53.578 86.9277 45.8138 84.05C43.4278 83.1639 43.9437 67.6572 44.9582 62.7278Z" fill="#FF6338"/>
<path d="M82.352 40.8895C81.0107 36.502 79.5834 32.1446 78.0701 27.8131C81.4062 27.2023 84.2479 24.8709 86.1051 22.0319C87.9623 19.193 88.9554 15.8766 89.6863 12.5645C89.8152 11.9752 90.6235 10.9686 90.6235 10.9686C90.6235 10.9686 91.0663 11.4375 91.5435 12.6376C93.5856 17.7649 91.7412 23.6966 90.7954 29.1336C90.0259 33.5684 88.7921 38.0935 89.7121 42.5025C89.9485 43.6424 90.3268 44.821 90.013 45.9394C89.8109 46.6491 89.3509 47.2513 88.8995 47.832C87.9236 49.088 86.9477 50.3483 85.9718 51.6044C85.6236 52.0517 85.2582 52.5163 84.7552 52.7744C84.2479 53.0324 83.56 53.0238 83.186 52.598C82.9023 52.2754 82.8636 51.8151 82.8378 51.385C82.6056 47.5911 83.1989 43.6682 82.352 40.8895Z" fill="#FF9F77" stroke="black" stroke-width="0.163193" stroke-miterlimit="10"/>
<path d="M87.8334 38.2011C87.6442 36.4934 88.7405 26.0108 86.2857 28.3551C81.677 32.7511 79.0159 30.5187 78.0701 27.8131C81.4062 27.2023 84.2479 24.8709 86.1051 22.0319C87.9623 19.193 88.9554 15.8766 89.6863 12.5645C89.8152 11.9752 90.6235 10.9686 90.6235 10.9686C90.6235 10.9686 91.0663 11.4375 91.5435 12.6376C93.5856 17.7649 91.7412 23.6966 90.7954 29.1336C90.0259 33.5684 88.7921 38.0935 89.7121 42.5025C89.9485 43.6424 90.3268 44.821 90.013 45.9394C89.8195 46.6491 88.6846 45.8533 87.8334 38.2011Z" fill="#FF6338"/>
<path d="M94.08 57.9017C99.1254 57.9017 103.216 56.024 103.216 53.7078C103.216 51.3915 99.1254 49.5139 94.08 49.5139C89.0345 49.5139 84.9443 51.3915 84.9443 53.7078C84.9443 56.024 89.0345 57.9017 94.08 57.9017Z" fill="#FFDFCE"/>
<path d="M95.9844 56.0176C99.1304 56.0176 101.681 54.9815 101.681 53.7035C101.681 52.4254 99.1304 51.3893 95.9844 51.3893C92.8384 51.3893 90.2881 52.4254 90.2881 53.7035C90.2881 54.9815 92.8384 56.0176 95.9844 56.0176Z" fill="#DF4B23"/>
<path d="M68.1394 65.6185C72.9114 58.9771 73.6681 49.6644 70.0353 42.3391C75.0008 43.6338 80.3059 43.5951 85.2499 42.2272C86.617 50.0903 83.7022 57.9963 80.839 65.4464C80.3016 66.8487 79.6997 68.3327 78.4874 69.2145C77.2922 70.0834 75.6844 70.2038 74.2442 69.8812C72.8039 69.5586 71.4884 68.836 70.1987 68.1219C69.2443 67.5971 68.1394 66.7369 68.1394 65.6185Z" fill="#FF9F77" stroke="black" stroke-width="0.163193" stroke-miterlimit="10"/>
<path d="M79.3729 49.9397C78.5303 48.4557 77.3136 47.2986 75.68 46.7136C72.6362 45.6297 71.2691 44.7049 70.3577 42.8768C75.3231 44.1715 80.3058 43.5951 85.2498 42.2272C86.6169 50.0903 83.7021 57.9963 80.8389 65.4464C80.3015 66.8487 81.7933 54.2068 79.3729 49.9397Z" fill="#FF6338"/>
<path d="M67.0603 65.5453C69.2271 66.1863 71.7721 64.9905 73.7282 66.1217C74.5322 66.5863 75.0867 67.3735 75.6155 68.1391C76.1056 68.8489 76.6215 69.6403 76.5399 70.5006C76.4367 71.5975 75.3275 72.4019 74.2269 72.4621C73.1264 72.5223 72.0731 71.9932 71.1918 71.3308C70.3104 70.6684 69.5452 69.8597 68.651 69.2145C68.2426 68.922 67.7998 68.6553 67.5117 68.251C66.9442 67.4724 67.0904 66.4056 67.0603 65.5453Z" fill="#FF9F77"/>
<path d="M90.5032 28.1098C92.4335 38.1881 88.7792 49.0837 82.0941 56.865C79.8457 59.4803 76.7976 61.6955 75.7529 64.9861C74.906 67.6616 83.0399 77.1377 87.8893 72.0749C94.1961 65.4894 94.4454 62.8655 97.1066 54.1422C99.7677 45.4188 101.371 36.988 102.644 27.9593C98.5511 27.5119 94.8367 26.9183 90.5032 28.1098Z" fill="#FF9F77" stroke="black" stroke-width="0.163193" stroke-miterlimit="10"/>
<path d="M90.5031 28.1098C90.9502 30.4541 92.2958 30.8628 94.3508 32.3812C95.086 32.9232 97.0851 34.7298 97.1409 37.4655C97.2656 43.965 93.1385 64.9044 92.0895 68.2122C91.2426 70.8877 83.0398 77.1377 87.8892 72.0749C94.196 65.4894 94.4454 62.8655 97.1065 54.1422C99.7677 45.4188 101.371 36.988 102.644 27.9593C98.551 27.5119 94.8366 26.9183 90.5031 28.1098Z" fill="#FF6338"/>
<path d="M74.9404 64.272C75.0522 65.8635 74.6008 67.4637 75.2284 68.9305C75.8561 70.3973 76.8621 71.6662 77.8982 72.8749C78.9042 74.0492 80.0005 75.2235 81.4321 75.8085C82.696 76.3246 84.1276 76.3332 85.4517 76.0063C86.7759 75.6794 88.0054 75.0385 89.1447 74.2901C90.0174 73.718 90.8858 73.034 91.2942 72.0705C91.9047 70.6467 94.4498 68.7111 93.375 67.597C92.3002 66.4829 87.6959 66.0829 86.2213 65.6227C82.6143 64.5 74.6696 60.3792 74.9404 64.272Z" fill="#FF9F77"/>
<path d="M39.8595 90.9883C44.0855 89.7366 47.83 86.9278 50.2203 83.2199C52.6063 79.5121 53.4017 74.617 52.7955 70.2511C59.558 70.0704 66.5354 70.5393 73.298 70.3586C72.1888 74.4106 70.9807 78.3206 68.0745 81.3488C65.8304 83.6888 62.7995 85.0695 60.1857 86.988C57.5718 88.9021 55.2245 91.7712 55.3965 94.1628C55.203 95.3629 54.4206 98.6793 54.7817 99.3245C55.1428 99.9697 55.951 100.262 56.6862 100.219C57.4256 100.176 58.1178 99.8536 58.7842 99.531C59.4505 99.2084 58.4746 101.686 56.7894 102.232C55.1041 102.774 53.191 102.568 51.6605 101.677C50.474 100.989 49.554 99.9396 48.5824 98.9718C46.3038 96.7093 43.6556 94.8166 40.7752 93.3971C40.1303 93.0788 39.4252 92.7347 39.1286 92.0809C38.8234 91.4357 39.3135 90.4464 39.8595 90.9883Z" fill="#FF9F77" stroke="black" stroke-width="0.163193" stroke-miterlimit="10"/>
<path d="M57.9518 84.9046C57.3887 82.0398 58.4591 76.3748 55.5744 74.2155C54.0354 73.0627 53.2056 71.6905 52.9993 70.2151C59.7618 70.0345 66.4727 70.5168 73.2352 70.3361C72.0112 74.9871 70.7057 78.5773 68.1762 81.1884C65.6467 83.7995 61.4853 85.8394 59.6902 87.3082C57.8158 89.1105 58.2872 86.5907 57.9518 84.9046Z" fill="#FF6338"/>
<path d="M54.0767 105.217C54.7302 105.45 37.0652 91.3969 37.6756 91.07C38.2861 90.7431 38.9267 90.3646 39.6145 90.4162C40.3325 90.4678 43.4407 89.8484 44.0813 88.2483C44.666 86.7858 46.4071 85.7276 47.2369 86.5234C47.9892 87.2461 49.2703 85.8653 50.2978 86.046C51.4672 86.2524 52.4216 87.0697 53.3115 87.8526C55.5513 89.8269 57.8127 91.8228 59.571 94.2359C60.117 94.9844 60.6931 98.3954 59.3088 100.864C57.6063 103.901 53.8102 105.962 54.0767 105.217Z" fill="#FF9F77"/>
<path d="M134.492 19.4037C137.281 19.4037 139.543 18.0557 139.543 16.3927C139.543 14.7298 137.281 13.3817 134.492 13.3817C131.702 13.3817 129.44 14.7298 129.44 16.3927C129.44 18.0557 131.702 19.4037 134.492 19.4037Z" fill="#FFDFCE"/>
<path d="M118.155 18.651C121.004 18.651 123.314 17.3029 123.314 15.64C123.314 13.977 121.004 12.629 118.155 12.629C115.306 12.629 112.996 13.977 112.996 15.64C112.996 17.3029 115.306 18.651 118.155 18.651Z" fill="#FFDFCE"/>
<path d="M109.342 6.1768C112.072 6.1768 114.286 4.82873 114.286 3.16579C114.286 1.50286 112.072 0.154785 109.342 0.154785C106.611 0.154785 104.398 1.50286 104.398 3.16579C104.398 4.82873 106.611 6.1768 109.342 6.1768Z" fill="#FFDFCE"/>
<path d="M113.8 30.5875C117.927 30.5875 121.272 28.8543 121.272 26.7162C121.272 24.5781 117.927 22.8449 113.8 22.8449C109.673 22.8449 106.328 24.5781 106.328 26.7162C106.328 28.8543 109.673 30.5875 113.8 30.5875Z" fill="#FFDFCE"/>
<path d="M96.5519 31.2327C100.054 31.2327 102.893 29.6439 102.893 27.684C102.893 25.7241 100.054 24.1353 96.5519 24.1353C93.0497 24.1353 90.2107 25.7241 90.2107 27.684C90.2107 29.6439 93.0497 31.2327 96.5519 31.2327Z" fill="#FFDFCE"/>
<path d="M77.6875 45.6425C81.9897 45.6425 85.4774 44.0056 85.4774 41.9863C85.4774 39.967 81.9897 38.3301 77.6875 38.3301C73.3852 38.3301 69.8975 39.967 69.8975 41.9863C69.8975 44.0056 73.3852 45.6425 77.6875 45.6425Z" fill="#FFDFCE"/>
<path d="M63.0189 74.2471C68.836 74.2471 73.5517 72.3213 73.5517 69.9457C73.5517 67.57 68.836 65.6442 63.0189 65.6442C57.2018 65.6442 52.4861 67.57 52.4861 69.9457C52.4861 72.3213 57.2018 74.2471 63.0189 74.2471Z" fill="#FFDFCE"/>
<path d="M120.09 80.9144C125.135 80.9144 129.225 79.3256 129.225 77.3657C129.225 75.4058 125.135 73.817 120.09 73.817C115.044 73.817 110.954 75.4058 110.954 77.3657C110.954 79.3256 115.044 80.9144 120.09 80.9144Z" fill="#FFDFCE"/>
<path d="M28.5013 46.3308C34.434 40.5411 44.1973 37.8828 48.4363 35.5342C50.3236 34.4846 53.1782 32.2307 55.173 30.1789C56.6777 28.6304 59.8891 28.0712 62.0301 28.3551C63.2596 28.5185 64.2699 29.3616 64.4462 30.5918C64.5493 31.3188 63.7798 32.05 63.2811 32.592C62.7824 33.1297 62.1418 33.5082 61.5056 33.8824C52.0002 39.4485 42.4003 45.0576 31.9062 48.4041C30.9948 48.6966 29.9243 48.9461 29.1418 48.3955C28.3852 47.8578 28.2476 46.5846 28.5013 46.3308Z" fill="#FFDFCE"/>
<path d="M77.7519 27.7486C77.5542 26.8367 77.6359 26.2689 78.199 25.7742C78.7622 25.2795 79.5275 25.1075 80.2325 24.8494C82.6099 23.9719 84.6133 22.389 85.946 20.2296C86.4791 19.3651 86.7414 18.0273 86.9907 17.0466C87.1928 16.2465 87.2401 15.4206 87.2874 14.5991C87.3647 13.2355 87.4378 11.8762 87.5152 10.5127C87.5539 9.79435 87.1498 8.98138 88.332 8.63726C88.8264 8.49101 89.3767 8.59424 89.7637 8.93406C90.1506 9.27817 90.3827 9.75563 90.5977 10.2245C91.0835 11.2869 91.5263 12.3881 91.6424 13.5495C91.7584 14.698 91.7627 15.9583 91.5263 17.0853C91.1437 18.9091 90.4601 20.6211 89.639 22.2943C88.3621 24.8967 86.3029 27.0216 84.2006 29.0175C83.4869 29.6971 82.6787 30.4026 81.6985 30.4542C80.7699 30.5058 79.8026 30.1574 79.1448 29.4993C78.5 28.8626 77.7906 27.9335 77.7519 27.7486Z" fill="#FFDFCE"/>
<path d="M118.129 17.4122C120.385 17.4122 122.213 16.4974 122.213 15.369C122.213 14.2406 120.385 13.3258 118.129 13.3258C115.873 13.3258 114.045 14.2406 114.045 15.369C114.045 16.4974 115.873 17.4122 118.129 17.4122Z" fill="#DF4B23"/>
<path d="M109.531 4.93801C111.787 4.93801 113.615 4.07139 113.615 3.00236C113.615 1.93333 111.787 1.06671 109.531 1.06671C107.275 1.06671 105.447 1.93333 105.447 3.00236C105.447 4.07139 107.275 4.93801 109.531 4.93801Z" fill="#DF4B23"/>
<path d="M113.723 29.0261C117.106 29.0261 119.849 27.7974 119.849 26.2817C119.849 24.7661 117.106 23.5374 113.723 23.5374C110.339 23.5374 107.596 24.7661 107.596 26.2817C107.596 27.7974 110.339 29.0261 113.723 29.0261Z" fill="#DF4B23"/>
<path d="M96.4704 29.9939C99.2911 29.9939 101.578 28.8866 101.578 27.5206C101.578 26.1546 99.2911 25.0472 96.4704 25.0472C93.6497 25.0472 91.363 26.1546 91.363 27.5206C91.363 28.8866 93.6497 29.9939 96.4704 29.9939Z" fill="#DF4B23"/>
<path d="M77.7691 44.2962C81.1216 44.2962 83.8394 43.1638 83.8394 41.7669C83.8394 40.3701 81.1216 39.2377 77.7691 39.2377C74.4165 39.2377 71.6987 40.3701 71.6987 41.7669C71.6987 43.1638 74.4165 44.2962 77.7691 44.2962Z" fill="#DF4B23"/>
<path d="M62.7739 72.5782C67.7007 72.5782 71.6946 71.2783 71.6946 69.6747C71.6946 68.0712 67.7007 66.7712 62.7739 66.7712C57.8472 66.7712 53.8533 68.0712 53.8533 69.6747C53.8533 71.2783 57.8472 72.5782 62.7739 72.5782Z" fill="#DF4B23"/>
<path d="M119.849 79.6756C124.004 79.6756 127.372 78.5201 127.372 77.0947C127.372 75.6693 124.004 74.5139 119.849 74.5139C115.694 74.5139 112.325 75.6693 112.325 77.0947C112.325 78.5201 115.694 79.6756 119.849 79.6756Z" fill="#DF4B23"/>
<path d="M134.466 18.2725C136.721 18.2725 138.55 17.3577 138.55 16.2293C138.55 15.1009 136.721 14.1861 134.466 14.1861C132.21 14.1861 130.382 15.1009 130.382 16.2293C130.382 17.3577 132.21 18.2725 134.466 18.2725Z" fill="#DF4B23"/>
<path d="M29.8255 46.7567C29.9931 44.0296 41.9791 39.0485 48.4062 36.3429C49.7862 35.7622 51.8541 34.0717 52.9676 33.0695C54.6657 31.5425 55.3149 30.9231 56.8325 30.0241C58.3501 29.1251 59.7 29.1036 61.4583 29.0219C61.7593 29.0089 62.5159 29.3402 62.7481 29.5294C63.2898 29.9639 63.4488 30.9059 62.503 31.6672C58.7413 34.6869 54.5626 36.8849 50.2248 38.9926C46.463 40.8207 42.3531 42.8123 38.6515 44.7608C31.9234 48.2966 29.7481 47.9654 29.8255 46.7567Z" fill="#DF4B23"/>
<path d="M87.5968 17.3003C86.7155 21.2275 84.5014 23.8643 80.7483 25.3139C80.1464 25.5462 78.7922 26.1527 78.6374 26.7807C78.4998 27.3571 79.0243 28.0152 79.4156 28.4626C79.8713 28.9873 80.5032 29.5422 81.1911 29.6239C82.0122 29.7186 83.1601 29.2067 83.7405 28.6174C84.7078 27.6324 85.516 26.7119 86.3844 25.6408C88.0568 23.5761 89.5615 21.3136 90.331 18.7714C91.0962 16.225 91.38 13.029 90.0903 10.7062C89.8839 10.332 89.5701 9.61363 89.1874 9.42437C87.5194 8.58559 88.7059 12.3623 87.5968 17.3003Z" fill="#DF4B23"/>
</svg>
