<svg width="150" height="140" viewBox="0 0 150 140" fill="none" xmlns="http://www.w3.org/2000/svg">
<path d="M98.2495 20.6642H48.398C48.398 20.6642 45.5815 28.2061 45.5815 49.2984C45.5815 72.0492 48.398 77.7134 48.398 77.7134C48.398 80.968 59.57 83.5967 73.3394 83.5967C87.1088 83.5967 98.2808 80.968 98.2808 77.7134C98.2808 77.7134 101.097 71.2043 101.097 48.9854C101.066 28.6442 98.2495 20.6642 98.2495 20.6642Z" fill="url(#paint0_radial)"/>
<path d="M73.3394 26.7666C87.1141 26.7666 98.2808 24.1325 98.2808 20.8833C98.2808 17.634 87.1141 15 73.3394 15C59.5646 15 48.3979 17.634 48.3979 20.8833C48.3979 24.1325 59.5646 26.7666 73.3394 26.7666Z" fill="#56C427"/>
<path d="M73.402 23.512C80.7301 23.512 86.6707 22.307 86.6707 20.8207C86.6707 19.3343 80.7301 18.1294 73.402 18.1294C66.0739 18.1294 60.1333 19.3343 60.1333 20.8207C60.1333 22.307 66.0739 23.512 73.402 23.512Z" fill="#3F8F1C"/>
<path d="M62.9185 41.3184H13.067C13.067 41.3184 10.2505 48.8602 10.2505 69.9525C10.2505 92.7033 13.067 98.3675 13.067 98.3675C13.067 101.622 24.239 104.251 38.0084 104.251C51.7778 104.251 62.9498 101.622 62.9498 98.3675C62.9498 98.3675 65.7663 91.8584 65.7663 69.6395C65.735 49.2984 62.9185 41.3184 62.9185 41.3184Z" fill="url(#paint1_radial)"/>
<path d="M37.9771 47.4207C51.7518 47.4207 62.9185 44.7867 62.9185 41.5374C62.9185 38.2882 51.7518 35.6541 37.9771 35.6541C24.2023 35.6541 13.0356 38.2882 13.0356 41.5374C13.0356 44.7867 24.2023 47.4207 37.9771 47.4207Z" fill="#56C427"/>
<path d="M38.3527 44.792C45.6808 44.792 51.6214 43.5871 51.6214 42.1007C51.6214 40.6144 45.6808 39.4094 38.3527 39.4094C31.0246 39.4094 25.084 40.6144 25.084 42.1007C25.084 43.5871 31.0246 44.792 38.3527 44.792Z" fill="#3F8F1C"/>
<path d="M136.804 42.1946H86.9522C86.9522 42.1946 84.1357 49.7365 84.1357 70.8288C84.1357 93.5796 86.9522 99.2438 86.9522 99.2438C86.9522 102.498 98.1242 105.127 111.894 105.127C125.663 105.127 136.835 102.498 136.835 99.2438C136.835 99.2438 139.652 92.7346 139.652 70.5158C139.62 50.1746 136.804 42.1946 136.804 42.1946Z" fill="url(#paint2_radial)"/>
<path d="M111.894 48.297C125.668 48.297 136.835 45.6629 136.835 42.4137C136.835 39.1644 125.668 36.5304 111.894 36.5304C98.1188 36.5304 86.9521 39.1644 86.9521 42.4137C86.9521 45.6629 98.1188 48.297 111.894 48.297Z" fill="#56C427"/>
<path d="M112.52 45.105C119.848 45.105 125.788 43.9001 125.788 42.4137C125.788 40.9273 119.848 39.7224 112.52 39.7224C105.192 39.7224 99.251 40.9273 99.251 42.4137C99.251 43.9001 105.192 45.105 112.52 45.105Z" fill="#3F8F1C"/>
<path d="M101.473 62.8488H51.6212C51.6212 62.8488 48.8047 70.3906 48.8047 91.4829C48.8047 114.234 51.6212 119.898 51.6212 119.898C51.6212 123.153 62.7932 125.781 76.5626 125.781C90.332 125.781 101.504 123.153 101.504 119.898C101.504 119.898 104.32 113.389 104.32 91.1699C104.289 70.8288 101.473 62.8488 101.473 62.8488Z" fill="url(#paint3_radial)"/>
<path d="M76.5313 68.9511C90.306 68.9511 101.473 66.3171 101.473 63.0678C101.473 59.8186 90.306 57.1845 76.5313 57.1845C62.7565 57.1845 51.5898 59.8186 51.5898 63.0678C51.5898 66.3171 62.7565 68.9511 76.5313 68.9511Z" fill="#56C427"/>
<path d="M76.5314 65.7591C83.8595 65.7591 89.8001 64.5542 89.8001 63.0678C89.8001 61.5815 83.8595 60.3765 76.5314 60.3765C69.2033 60.3765 63.2627 61.5815 63.2627 63.0678C63.2627 64.5542 69.2033 65.7591 76.5314 65.7591Z" fill="#3F8F1C"/>
<defs>
<radialGradient id="paint0_radial" cx="0" cy="0" r="1" gradientUnits="userSpaceOnUse" gradientTransform="translate(62.8767 46.8893) scale(34.3428 35.8359)">
<stop offset="9.49155e-08" stop-color="#AFDB5E"/>
<stop offset="0.4777" stop-color="#6AA330"/>
<stop offset="0.9993" stop-color="#226900"/>
</radialGradient>
<radialGradient id="paint1_radial" cx="0" cy="0" r="1" gradientUnits="userSpaceOnUse" gradientTransform="translate(27.5383 67.5419) scale(34.3428 35.8359)">
<stop stop-color="#C9DB7B"/>
<stop offset="0.5242" stop-color="#75AD39"/>
<stop offset="0.9993" stop-color="#2C8600"/>
</radialGradient>
<radialGradient id="paint2_radial" cx="0" cy="0" r="1" gradientUnits="userSpaceOnUse" gradientTransform="translate(101.428 68.4181) scale(34.3428 35.8359)">
<stop offset="9.49155e-08" stop-color="#AFDB5E"/>
<stop offset="0.4777" stop-color="#6AA330"/>
<stop offset="0.9993" stop-color="#226900"/>
</radialGradient>
<radialGradient id="paint3_radial" cx="0" cy="0" r="1" gradientUnits="userSpaceOnUse" gradientTransform="translate(66.0892 89.0707) scale(34.3428 35.8359)">
<stop stop-color="#C9DB7B"/>
<stop offset="0.5242" stop-color="#75AD39"/>
<stop offset="0.9993" stop-color="#2C8600"/>
</radialGradient>
</defs>
</svg>
