<svg width="150" height="140" viewBox="0 0 150 140" fill="none" xmlns="http://www.w3.org/2000/svg">
<g clip-path="url(#clip0_3531:374571)">
<g clip-path="url(#clip1_3531:374571)">
<path d="M103.833 61.881L109.571 57.3506L131.683 59.9312L132.868 64.0623L103.833 61.881Z" fill="url(#paint0_linear_3531:374571)"/>
<path d="M103.833 61.881L109.571 57.3506L131.683 59.9312L132.868 64.0623L103.833 61.881Z" fill="url(#paint1_linear_3531:374571)"/>
<path d="M102.575 63.8944L108.826 59.6157L130.761 61.9447L130.593 67.1664L102.575 63.8944Z" fill="url(#paint2_linear_3531:374571)"/>
<path d="M101.149 63.1396L106.971 58.8608L127.405 61.1898L127.248 66.4115L101.149 63.1396Z" fill="url(#paint3_linear_3531:374571)"/>
<path d="M116.332 68.4249L116.198 65.2368L121.617 66.1395L120.788 69.0122L116.332 68.4249Z" fill="url(#paint4_linear_3531:374571)"/>
<path d="M136.918 48.7295L138.002 49.894L128.378 50.5651L128.076 48.9141L136.918 48.7295Z" fill="url(#paint5_linear_3531:374571)"/>
<path d="M137.629 34.6987H108.353V40.0681H137.629V34.6987Z" fill="url(#paint6_linear_3531:374571)"/>
<path d="M105.92 43.0882L106.843 38.7256L136.455 39.3129V44.6822L105.92 43.0882Z" fill="url(#paint7_linear_3531:374571)"/>
<path d="M104.243 47.1993L105.837 42.8367L134.861 44.2629L134.945 49.5484L104.243 47.1993Z" fill="url(#paint8_linear_3531:374571)"/>
<path d="M103.488 48.9611L103.421 47.0315L138.562 49.5283L138.3 54.9178L103.488 48.9611Z" fill="url(#paint9_linear_3531:374571)"/>
<path d="M102.743 51.8975L103.776 48.8772L134.955 52.2129L134.791 57.4346L102.743 51.8975Z" fill="url(#paint10_linear_3531:374571)"/>
<path d="M104.001 56.8473L109.397 52.7363L131.264 54.8975L131.1 60.1192L104.001 56.8473Z" fill="url(#paint11_linear_3531:374571)"/>
<path d="M132.345 33.2725H104.41V38.7257H132.345V33.2725Z" fill="url(#paint12_linear_3531:374571)"/>
<path d="M131.254 28.4065H114.393V33.8598H131.254V28.4065Z" fill="url(#paint13_linear_3531:374571)"/>
<path d="M129.744 23.6243H112.967V29.0775H129.744V23.6243Z" fill="url(#paint14_linear_3531:374571)"/>
<path d="M78.6675 65.3946L77.1911 62.3005L118.849 65.9517L118.188 71.2775L78.6675 65.3946Z" fill="url(#paint15_linear_3531:374571)"/>
<path d="M77.2414 62.4582L75.4295 60.8743L116.5 62.2602L115.839 67.586L77.2414 62.4582Z" fill="url(#paint16_linear_3531:374571)"/>
<path d="M73.3827 60.6964L69.893 55.5049L107.524 59.6594L106.863 64.9852L73.3827 60.6964Z" fill="url(#paint17_linear_3531:374571)"/>
<path d="M70.1111 55.9982L70.3057 50.3872L108.363 54.374L108.135 59.6997L70.1111 55.9982Z" fill="url(#paint18_linear_3531:374571)"/>
<path d="M46.4553 48.6152C46.4553 48.6152 45.2876 48.8166 45.0359 46.9541C44.8648 45.6856 45.8077 45.0144 45.8077 45.0144L107.776 48.9173L107.548 54.3269L46.4553 48.6152Z" fill="url(#paint19_linear_3531:374571)"/>
<path d="M51.9079 29.4869C51.9079 29.4869 51.3274 29.1412 51.4851 28.0002C51.6428 26.8525 53.0219 26.8123 53.0219 26.8123L114.906 28.366L114.594 33.9434L51.9079 29.4869Z" fill="url(#paint20_linear_3531:374571)"/>
<path d="M53.5017 27.054L53.5185 23.8726C53.5185 23.8726 53.391 22.4497 53.6829 21.9162C54.0956 21.1611 54.7869 21.2752 54.7869 21.2752L117.259 21.4866L115.044 25.3425L114.93 28.4903L53.5017 27.054Z" fill="url(#paint21_linear_3531:374571)"/>
<path d="M48.3846 31.5006C48.3846 31.5006 47.2404 31.0476 47.4652 28.8562C47.5558 27.9904 48.8309 27.3125 48.8309 27.3125L110.464 29.2857L109.9 34.9471L48.3846 31.5006Z" fill="url(#paint22_linear_3531:374571)"/>
<path d="M45.868 34.5208L44.2675 32.5208C44.2675 32.5208 43.3011 31.7053 43.3615 30.3227C43.4353 28.732 44.9688 28.1548 44.9688 28.1548L106.602 30.128L104.847 35.286L106.29 37.5512L45.868 34.5208Z" fill="url(#paint23_linear_3531:374571)"/>
<path d="M106.35 62.4583L107.138 57.938L113.229 57.9816L112.568 63.3074L106.35 62.4583Z" fill="url(#paint24_linear_3531:374571)"/>
<path d="M45.6164 37.1216C45.6164 37.1216 45.1433 36.8062 45.1702 35.9337C45.2037 34.8397 45.8949 34.447 45.8949 34.447L108.702 37.2592L108.138 42.9206L45.6164 37.1216Z" fill="url(#paint25_linear_3531:374571)"/>
<path d="M44.1064 40.9807C44.1064 40.9807 42.8414 40.5746 42.8381 39.0846C42.8381 37.3429 44.4654 37.0476 44.4654 37.0476L105.427 41.1183L104.863 46.7796L44.1064 40.9807Z" fill="url(#paint26_linear_3531:374571)"/>
<path d="M42.5965 45.2596C42.5965 45.2596 40.3181 45.1925 40.3551 42.9541C40.3987 40.3735 42.2878 40.4876 42.2878 40.4876L102.83 45.1455L102.518 50.9746L42.5965 45.2596Z" fill="url(#paint27_linear_3531:374571)"/>
<path d="M132.877 64.0326L131.353 59.0593L130.792 59.2314L132.316 64.2046L132.877 64.0326Z" fill="#D9A6BB"/>
<path d="M120.513 69.7547L123.025 65.1045L122.509 64.8254L119.997 69.4755L120.513 69.7547Z" fill="#D9A6BB"/>
<path d="M109.079 63.6924L112.571 59.7246L112.13 59.3366L108.638 63.3044L109.079 63.6924Z" fill="#D9A6BB"/>
<path d="M102.285 50.4631L107.475 49.4631L107.363 48.8865L102.174 49.8865L102.285 50.4631Z" fill="#D9A6BB"/>
<path d="M104.611 35.209L107.912 39.3369L108.371 38.9701L105.07 34.8421L104.611 35.209Z" fill="#D9A6BB"/>
<path d="M114.902 24.2914L113.95 29.4902L114.527 29.5961L115.48 24.3973L114.902 24.2914Z" fill="#D9A6BB"/>
<path d="M127.612 25.1593L126.082 30.2185L126.644 30.3885L128.174 25.3293L127.612 25.1593Z" fill="#D9A6BB"/>
<path d="M136.962 34.9664L132.446 37.7122L132.751 38.214L137.267 35.4682L136.962 34.9664Z" fill="#D9A6BB"/>
<path d="M139.468 50.4028L135.292 47.1633L134.932 47.6274L139.108 50.8669L139.468 50.4028Z" fill="#D9A6BB"/>
<path d="M102.323 50.9679C103.667 50.9679 104.756 49.6727 104.756 48.0751C104.756 46.4775 103.667 45.1824 102.323 45.1824C100.98 45.1824 99.8907 46.4775 99.8907 48.0751C99.8907 49.6727 100.98 50.9679 102.323 50.9679Z" fill="#D9A6BB"/>
<path d="M105.176 46.8568C106.519 46.8568 107.608 45.5617 107.608 43.964C107.608 42.3664 106.519 41.0713 105.176 41.0713C103.832 41.0713 102.743 42.3664 102.743 43.964C102.743 45.5617 103.832 46.8568 105.176 46.8568Z" fill="#D9A6BB"/>
<path d="M108.028 42.9137C109.371 42.9137 110.46 41.6185 110.46 40.0209C110.46 38.4233 109.371 37.1282 108.028 37.1282C106.684 37.1282 105.595 38.4233 105.595 40.0209C105.595 41.6185 106.684 42.9137 108.028 42.9137Z" fill="#D9A6BB"/>
<path d="M106.055 35.8666C107.374 35.8666 108.444 34.5714 108.444 32.9738C108.444 31.3762 107.374 30.0811 106.055 30.0811C104.735 30.0811 103.666 31.3762 103.666 32.9738C103.666 34.5714 104.735 35.8666 106.055 35.8666Z" fill="#D9A6BB"/>
<path d="M110.376 34.9437C111.627 34.9437 112.641 33.6486 112.641 32.051C112.641 30.4533 111.627 29.1582 110.376 29.1582C109.126 29.1582 108.111 30.4533 108.111 32.051C108.111 33.6486 109.126 34.9437 110.376 34.9437Z" fill="#D9A6BB"/>
<path d="M114.655 33.9402C115.952 33.9402 117.003 32.7007 117.003 31.1717C117.003 29.6426 115.952 28.4031 114.655 28.4031C113.357 28.4031 112.306 29.6426 112.306 31.1717C112.306 32.7007 113.357 33.9402 114.655 33.9402Z" fill="#D9A6BB"/>
<path d="M117.171 27.1446C118.468 27.1446 119.52 25.905 119.52 24.376C119.52 22.847 118.468 21.6074 117.171 21.6074C115.874 21.6074 114.822 22.847 114.822 24.376C114.822 25.905 115.874 27.1446 117.171 27.1446Z" fill="#D9A6BB"/>
<path d="M120.778 29.9131C122.076 29.9131 123.127 28.6736 123.127 27.1446C123.127 25.6155 122.076 24.376 120.778 24.376C119.481 24.376 118.43 25.6155 118.43 27.1446C118.43 28.6736 119.481 29.9131 120.778 29.9131Z" fill="#D9A6BB"/>
<path d="M124.385 32.514C125.683 32.514 126.734 31.2744 126.734 29.7454C126.734 28.2163 125.683 26.9768 124.385 26.9768C123.088 26.9768 122.037 28.2163 122.037 29.7454C122.037 31.2744 123.088 32.514 124.385 32.514Z" fill="#D9A6BB"/>
<path d="M129.586 29.0708C130.837 29.0708 131.851 27.8508 131.851 26.3458C131.851 24.8409 130.837 23.6208 129.586 23.6208C128.335 23.6208 127.321 24.8409 127.321 26.3458C127.321 27.8508 128.335 29.0708 129.586 29.0708Z" fill="#D9A6BB"/>
<path d="M130.969 33.853C132.196 33.853 133.19 32.633 133.19 31.128C133.19 29.6231 132.196 28.4031 130.969 28.4031C129.742 28.4031 128.747 29.6231 128.747 31.128C128.747 32.633 129.742 33.853 130.969 33.853Z" fill="#D9A6BB"/>
<path d="M132.143 38.719C133.37 38.719 134.364 37.499 134.364 35.994C134.364 34.489 133.37 33.269 132.143 33.269C130.916 33.269 129.922 34.489 129.922 35.994C129.922 37.499 130.916 38.719 132.143 38.719Z" fill="#D9A6BB"/>
<path d="M137.848 40.0612C139.03 40.0612 139.988 38.8412 139.988 37.3363C139.988 35.8313 139.03 34.6113 137.848 34.6113C136.665 34.6113 135.707 35.8313 135.707 37.3363C135.707 38.8412 136.665 40.0612 137.848 40.0612Z" fill="#D9A6BB"/>
<path d="M136.421 44.679C137.604 44.679 138.562 43.495 138.562 42.0345C138.562 40.5741 137.604 39.3901 136.421 39.3901C135.239 39.3901 134.281 40.5741 134.281 42.0345C134.281 43.495 135.239 44.679 136.421 44.679Z" fill="#D9A6BB"/>
<path d="M134.744 49.5449C135.926 49.5449 136.884 48.361 136.884 46.9005C136.884 45.44 135.926 44.2561 134.744 44.2561C133.561 44.2561 132.603 45.44 132.603 46.9005C132.603 48.361 133.561 49.5449 134.744 49.5449Z" fill="#D9A6BB"/>
<path d="M138.351 54.9143C139.533 54.9143 140.492 53.7304 140.492 52.2699C140.492 50.8094 139.533 49.6255 138.351 49.6255C137.169 49.6255 136.21 50.8094 136.21 52.2699C136.21 53.7304 137.169 54.9143 138.351 54.9143Z" fill="#D9A6BB"/>
<path d="M134.744 57.5151C135.926 57.5151 136.884 56.3312 136.884 54.8707C136.884 53.4103 135.926 52.2263 134.744 52.2263C133.561 52.2263 132.603 53.4103 132.603 54.8707C132.603 56.3312 133.561 57.5151 134.744 57.5151Z" fill="#D9A6BB"/>
<path d="M131.053 60.116C132.235 60.116 133.193 58.932 133.193 57.4716C133.193 56.0111 132.235 54.8271 131.053 54.8271C129.87 54.8271 128.912 56.0111 128.912 57.4716C128.912 58.932 129.87 60.116 131.053 60.116Z" fill="#D9A6BB"/>
<path d="M130.801 67.2471C131.983 67.2471 132.942 66.0631 132.942 64.6027C132.942 63.1422 131.983 61.9583 130.801 61.9583C129.619 61.9583 128.66 63.1422 128.66 64.6027C128.66 66.0631 129.619 67.2471 130.801 67.2471Z" fill="#D9A6BB"/>
<path d="M126.858 66.3242C128.041 66.3242 128.999 65.1403 128.999 63.6798C128.999 62.2193 128.041 61.0354 126.858 61.0354C125.676 61.0354 124.718 62.2193 124.718 63.6798C124.718 65.1403 125.676 66.3242 126.858 66.3242Z" fill="#D9A6BB"/>
<path d="M124.718 63.0954C124.829 61.6391 123.963 60.3861 122.784 60.2965C121.605 60.207 120.56 61.315 120.449 62.7712C120.339 64.2274 121.205 65.4805 122.384 65.57C123.563 65.6595 124.608 64.5516 124.718 63.0954Z" fill="#D9A6BB"/>
<path d="M120.942 68.6927C121.019 67.1655 120.068 65.8769 118.818 65.8144C117.569 65.752 116.494 66.9395 116.418 68.4667C116.342 69.9939 117.293 71.2825 118.542 71.345C119.791 71.4074 120.866 70.22 120.942 68.6927Z" fill="#D9A6BB"/>
<path d="M118.342 64.7499C118.418 63.2227 117.467 61.934 116.218 61.8716C114.968 61.8091 113.894 62.9966 113.817 64.5238C113.741 66.051 114.692 67.3397 115.941 67.4021C117.191 67.4645 118.265 66.2771 118.342 64.7499Z" fill="#D9A6BB"/>
<path d="M115.657 60.8907C115.734 59.3635 114.783 58.0749 113.533 58.0124C112.284 57.95 111.209 59.1375 111.133 60.6647C111.057 62.1919 112.008 63.4805 113.257 63.543C114.506 63.6054 115.581 62.418 115.657 60.8907Z" fill="#D9A6BB"/>
<path d="M109.704 62.3347C109.782 60.7612 108.758 59.4313 107.416 59.3642C106.074 59.2972 104.923 60.5184 104.844 62.0919C104.765 63.6654 105.789 64.9953 107.131 65.0623C108.473 65.1294 109.625 63.9082 109.704 62.3347Z" fill="#D9A6BB"/>
<path d="M109.871 57.0087C109.948 55.4574 108.923 54.1455 107.581 54.0785C106.239 54.0114 105.089 55.2146 105.011 56.7659C104.934 58.3172 105.959 59.6291 107.3 59.6961C108.642 59.7632 109.793 58.56 109.871 57.0087Z" fill="#D9A6BB"/>
<path d="M109.87 51.807C109.948 50.2558 108.923 48.9438 107.581 48.8768C106.239 48.8097 105.088 50.0129 105.011 51.5642C104.933 53.1155 105.958 54.4274 107.3 54.4945C108.642 54.5615 109.793 53.3583 109.87 51.807Z" fill="#D9A6BB"/>
<path d="M109.397 51.7617C109.458 50.5251 108.641 49.4793 107.571 49.4259C106.502 49.3724 105.584 50.3315 105.522 51.5681C105.461 52.8047 106.278 53.8505 107.348 53.9039C108.418 53.9574 109.335 52.9983 109.397 51.7617Z" fill="#B62B6C"/>
<path d="M109.397 56.9631C109.459 55.7265 108.641 54.6807 107.572 54.6273C106.502 54.5738 105.584 55.5329 105.523 56.7695C105.461 58.0061 106.278 59.0519 107.348 59.1053C108.418 59.1588 109.335 58.1997 109.397 56.9631Z" fill="#B62B6C"/>
<path d="M109.229 62.2485C109.291 61.0119 108.474 59.9661 107.404 59.9127C106.334 59.8592 105.417 60.8183 105.355 62.0549C105.293 63.2915 106.111 64.3373 107.18 64.3907C108.25 64.4442 109.168 63.4851 109.229 62.2485Z" fill="#B62B6C"/>
<path d="M115.249 60.9017C115.311 59.6651 114.516 58.6204 113.474 58.5684C112.432 58.5163 111.537 59.4765 111.475 60.7131C111.414 61.9497 112.208 62.9944 113.25 63.0464C114.293 63.0985 115.187 62.1383 115.249 60.9017Z" fill="#B62B6C"/>
<path d="M117.934 64.7608C117.995 63.5242 117.201 62.4796 116.159 62.4275C115.117 62.3754 114.222 63.3357 114.16 64.5722C114.098 65.8088 114.893 66.8535 115.935 66.9056C116.977 66.9576 117.872 65.9974 117.934 64.7608Z" fill="#B62B6C"/>
<path d="M118.815 70.8508C119.858 70.81 120.664 69.7741 120.615 68.537C120.567 67.2999 119.683 66.3302 118.64 66.371C117.598 66.4117 116.792 67.4477 116.84 68.6847C116.889 69.9218 117.773 70.8916 118.815 70.8508Z" fill="#B62B6C"/>
<path d="M124.221 63.0873C124.356 61.8902 123.72 60.8355 122.799 60.7316C121.878 60.6277 121.022 61.514 120.887 62.7111C120.752 63.9082 121.389 64.9629 122.31 65.0668C123.231 65.1706 124.086 64.2844 124.221 63.0873Z" fill="#B62B6C"/>
<path d="M128.5 63.8424C128.635 62.6453 127.998 61.5906 127.077 61.4868C126.156 61.3829 125.301 62.2691 125.165 63.4662C125.03 64.6633 125.667 65.718 126.588 65.8219C127.509 65.9258 128.365 65.0395 128.5 63.8424Z" fill="#B62B6C"/>
<path d="M132.443 64.7653C132.578 63.5682 131.941 62.5135 131.02 62.4096C130.099 62.3057 129.243 63.192 129.108 64.3891C128.973 65.5862 129.61 66.6409 130.531 66.7447C131.452 66.8486 132.307 65.9624 132.443 64.7653Z" fill="#B62B6C"/>
<path d="M132.691 57.5115C132.738 56.3078 132.026 55.3023 131.1 55.2658C130.174 55.2293 129.385 56.1755 129.338 57.3793C129.29 58.583 130.002 59.5884 130.928 59.6249C131.854 59.6615 132.643 58.7152 132.691 57.5115Z" fill="#B62B6C"/>
<path d="M136.381 54.9109C136.429 53.7072 135.717 52.7018 134.791 52.6652C133.865 52.6287 133.076 53.575 133.029 54.7787C132.981 55.9824 133.693 56.9879 134.619 57.0244C135.545 57.0609 136.334 56.1147 136.381 54.9109Z" fill="#B62B6C"/>
<path d="M139.988 52.3103C140.036 51.1066 139.324 50.1012 138.398 50.0647C137.472 50.0281 136.683 50.9744 136.636 52.1781C136.588 53.3818 137.3 54.3873 138.226 54.4238C139.152 54.4603 139.941 53.5141 139.988 52.3103Z" fill="#B62B6C"/>
<path d="M136.465 46.9409C136.513 45.7372 135.801 44.7318 134.875 44.6953C133.949 44.6588 133.16 45.605 133.113 46.8087C133.065 48.0125 133.777 49.0179 134.703 49.0544C135.629 49.0909 136.418 48.1447 136.465 46.9409Z" fill="#B62B6C"/>
<path d="M138.059 42.0752C138.107 40.8715 137.395 39.8661 136.469 39.8295C135.543 39.793 134.754 40.7393 134.707 41.943C134.659 43.1467 135.371 44.1522 136.297 44.1887C137.223 44.2252 138.012 43.279 138.059 42.0752Z" fill="#B62B6C"/>
<path d="M139.485 37.3775C139.533 36.1737 138.821 35.1683 137.895 35.1318C136.969 35.0953 136.18 36.0415 136.133 37.2452C136.085 38.449 136.797 39.4544 137.723 39.4909C138.649 39.5274 139.438 38.5812 139.485 37.3775Z" fill="#B62B6C"/>
<path d="M133.949 36.0349C133.997 34.8312 133.285 33.8258 132.359 33.7893C131.433 33.7528 130.644 34.699 130.596 35.9027C130.549 37.1065 131.261 38.1119 132.187 38.1484C133.113 38.1849 133.902 37.2387 133.949 36.0349Z" fill="#B62B6C"/>
<path d="M132.607 31.2532C132.655 30.0495 131.943 29.044 131.017 29.0075C130.091 28.971 129.302 29.9172 129.254 31.121C129.207 32.3247 129.919 33.3301 130.845 33.3666C131.771 33.4032 132.56 32.4569 132.607 31.2532Z" fill="#B62B6C"/>
<path d="M131.265 26.3872C131.313 25.1835 130.601 24.1781 129.675 24.1416C128.749 24.105 127.96 25.0513 127.913 26.255C127.865 27.4587 128.577 28.4642 129.503 28.5007C130.429 28.5372 131.218 27.591 131.265 26.3872Z" fill="#B62B6C"/>
<path d="M126.064 29.8267C126.112 28.6229 125.4 27.6175 124.474 27.581C123.548 27.5445 122.759 28.4907 122.712 29.6945C122.664 30.8982 123.376 31.9036 124.302 31.9401C125.228 31.9766 126.017 31.0304 126.064 29.8267Z" fill="#B62B6C"/>
<path d="M122.374 27.2261C122.421 26.0224 121.709 25.0169 120.783 24.9804C119.857 24.9439 119.068 25.8901 119.021 27.0939C118.973 28.2976 119.686 29.303 120.611 29.3395C121.537 29.3761 122.326 28.4298 122.374 27.2261Z" fill="#B62B6C"/>
<path d="M118.851 24.4575C118.898 23.2538 118.186 22.2484 117.26 22.2119C116.334 22.1754 115.545 23.1216 115.498 24.3253C115.45 25.5291 116.163 26.5345 117.088 26.571C118.014 26.6075 118.803 25.6613 118.851 24.4575Z" fill="#B62B6C"/>
<path d="M116.505 31.1771C116.553 29.9733 115.784 28.9657 114.787 28.9264C113.791 28.8871 112.945 29.8311 112.898 31.0348C112.85 32.2385 113.619 33.2462 114.615 33.2855C115.612 33.3248 116.458 32.3808 116.505 31.1771Z" fill="#B62B6C"/>
<path d="M112.146 32.1046C112.197 30.8083 111.413 29.7248 110.395 29.6847C109.376 29.6445 108.509 30.6628 108.458 31.9592C108.407 33.2555 109.191 34.339 110.21 34.3791C111.228 34.4193 112.095 33.401 112.146 32.1046Z" fill="#B62B6C"/>
<path d="M107.952 33.1112C108.003 31.8149 107.219 30.7314 106.201 30.6913C105.182 30.6511 104.315 31.6694 104.264 32.9658C104.213 34.2621 104.997 35.3455 106.016 35.3857C107.034 35.4259 107.901 34.4075 107.952 33.1112Z" fill="#B62B6C"/>
<path d="M110.049 40.0827C110.1 38.7863 109.26 37.7007 108.173 37.6578C107.087 37.615 106.164 38.6311 106.113 39.9274C106.062 41.2238 106.901 42.3094 107.988 42.3523C109.075 42.3951 109.998 41.379 110.049 40.0827Z" fill="#B62B6C"/>
<path d="M107.113 44.0255C107.164 42.7292 106.324 41.6436 105.238 41.6007C104.151 41.5578 103.228 42.574 103.177 43.8703C103.126 45.1666 103.966 46.2523 105.052 46.2951C106.139 46.338 107.062 45.3219 107.113 44.0255Z" fill="#B62B6C"/>
<path d="M104.345 48.1361C104.396 46.8398 103.556 45.7542 102.469 45.7113C101.382 45.6684 100.46 46.6846 100.409 47.9809C100.358 49.2772 101.197 50.3629 102.284 50.4057C103.371 50.4486 104.294 49.4325 104.345 48.1361Z" fill="#B62B6C"/>
<path d="M9.65818 100.47L5.56118 94.8922L24.2879 79.7673L28.2876 84.6736L9.65818 100.47Z" fill="url(#paint28_linear_3531:374571)"/>
<path d="M14.4933 109.806C13.0975 109.661 10.1648 106.507 10.1648 106.507L29.113 91.2544L32.4215 95.2848C32.4181 95.2814 20.5633 110.433 14.4933 109.806Z" fill="url(#paint29_linear_3531:374571)"/>
<path d="M13.0404 106.352L9.82927 102.168L28.5795 87.073L31.8846 91.1L13.0404 106.352Z" fill="url(#paint30_linear_3531:374571)"/>
<path d="M12.7687 102.5L9.55751 98.315L28.3077 83.217L31.6162 87.2474L12.7687 102.5Z" fill="url(#paint31_linear_3531:374571)"/>
<path d="M7.59792 98.1407L4.25925 93.523L23.0095 78.425L26.318 82.4554L7.59792 98.1407Z" fill="url(#paint32_linear_3531:374571)"/>
<path d="M9.56084 96.1573L6.21882 91.5397L24.9691 76.4417L28.2775 80.472L9.56084 96.1573Z" fill="url(#paint33_linear_3531:374571)"/>
<path d="M11.6379 94.1874L7.54088 88.6134L26.2676 73.4885L30.2673 78.3914L11.6379 94.1874Z" fill="url(#paint34_linear_3531:374571)"/>
<path d="M24.8448 119.262L21.4591 114.987L26.7171 110.389L30.8208 113.024L24.8448 119.262Z" fill="url(#paint35_linear_3531:374571)"/>
<path d="M22.0463 115.058L18.805 110.97L34.0521 98.4729L40.2798 99.1642L22.0463 115.058Z" fill="url(#paint36_linear_3531:374571)"/>
<path d="M18.7748 111.336L15.5334 107.248L30.7772 94.7478L37.5686 95.7479L18.7748 111.336Z" fill="url(#paint37_linear_3531:374571)"/>
<path d="M27.358 117.162L23.969 112.89L34.3239 104.252L39.5752 105.973L27.358 117.162Z" fill="url(#paint38_linear_3531:374571)"/>
<path d="M31.3812 119.537L27.9922 115.265L35.9345 108.54L40.6422 110.695L31.3812 119.537Z" fill="url(#paint39_linear_3531:374571)"/>
<path d="M35.2869 121.9L31.9013 117.628L39.394 111.685L44.5513 113.057L35.2869 121.9Z" fill="url(#paint40_linear_3531:374571)"/>
<path d="M8.52724 87.7508L5.29594 83.6735L62.6271 38.6412C62.6271 38.6412 63.4928 38.2385 64.7511 39.6211C66.4657 41.5038 65.5866 42.5072 65.5866 42.5072L8.52724 87.7508Z" fill="url(#paint41_linear_3531:374571)"/>
<path d="M12.0471 88.8148L8.81581 84.7408L71.7338 35.2788L74.6832 39.1481L12.0471 88.8148Z" fill="url(#paint42_linear_3531:374571)"/>
<path d="M17.1474 84.9856L13.9161 80.9083L71.9452 35.0002C71.9452 35.0002 72.7908 34.9532 73.9719 36.4767C75.3141 38.2117 75.1228 39.0104 75.1228 39.0104L17.1474 84.9856Z" fill="url(#paint43_linear_3531:374571)"/>
<path d="M20.1135 89.2711L16.8822 85.1937L75.0825 38.8292C75.0825 38.8292 75.7972 38.3762 77.0957 39.7219C78.2433 40.9098 78.1728 42.0508 78.1728 42.0508L20.1135 89.2711Z" fill="url(#paint44_linear_3531:374571)"/>
<path d="M37.1291 110.332L32.9683 106.03L90.5411 59.4141C90.5411 59.4141 91.5645 59.7832 91.8933 60.451C92.4403 61.5551 92.3329 62.488 92.3329 62.488L37.1291 110.332Z" fill="url(#paint45_linear_3531:374571)"/>
<path d="M23.6368 92.9022L20.4055 88.8248L78.6494 41.5677C78.6494 41.5677 79.354 41.2522 80.6828 42.6818C81.7464 43.8295 81.5988 44.4772 81.5988 44.4772L23.6368 92.9022Z" fill="url(#paint46_linear_3531:374571)"/>
<path d="M37.9008 107.258L33.9246 102.916L91.4168 56.4709C91.4168 56.4709 92.1819 56.5985 92.7691 57.4441C93.618 58.6724 93.5375 59.2832 93.5375 59.2832L37.9008 107.258Z" fill="url(#paint47_linear_3531:374571)"/>
<path d="M32.8777 100.778L29.1699 96.1037L86.6756 49.662C86.6756 49.662 87.7426 49.4371 88.9069 50.9271C90.5847 53.0749 90.1417 53.7763 90.1417 53.7763L32.8777 100.778Z" fill="url(#paint48_linear_3531:374571)"/>
<path d="M37.9344 103.513L34.2266 98.8386L90.0042 53.8701C90.0042 53.8701 90.8565 53.9339 92.0275 55.4037C93.2254 56.9105 93.0207 57.8065 93.0207 57.8065L37.9344 103.513Z" fill="url(#paint49_linear_3531:374571)"/>
<path d="M40.9979 116.286L37.4177 110.014L92.2624 62.2532C92.2624 62.2532 93.3496 62.9747 94.6448 64.5721C96.044 66.3003 95.8897 67.6326 95.8897 67.6326L40.9979 116.286Z" fill="url(#paint50_linear_3531:374571)"/>
<path d="M30.7202 96.7077L27.2037 92.2713L84.9106 45.8128C84.9106 45.8128 86.0246 45.4336 87.1319 46.7659C88.6419 48.5814 87.7024 49.4808 87.7024 49.4808L30.7202 96.7077Z" fill="url(#paint51_linear_3531:374571)"/>
<path d="M29.0122 91.8518L25.4957 87.4153L83.0047 41.1146C83.0047 41.1146 84.1188 40.7387 85.4609 42.5039C86.4541 43.8093 85.7596 45.1383 85.7596 45.1383L29.0122 91.8518Z" fill="url(#paint52_linear_3531:374571)"/>
<path d="M17.8073 109.18L12.3678 109.557L12.4142 110.227L17.8537 109.849L17.8073 109.18Z" fill="#D9A6BB"/>
<path d="M24.9555 119.092L25.1769 113.643L24.5064 113.616L24.285 119.065L24.9555 119.092Z" fill="#D9A6BB"/>
<path d="M35.075 119.77L33.6568 114.505L33.0088 114.679L34.427 119.945L35.075 119.77Z" fill="#D9A6BB"/>
<path d="M39.8158 112.341L36.0862 108.363L35.5966 108.822L39.3262 112.8L39.8158 112.341Z" fill="#D9A6BB"/>
<path d="M36.359 99.7471L31.161 98.0991L31.0089 98.579L36.2069 100.227L36.359 99.7471Z" fill="#D9A6BB"/>
<path d="M25.7361 87.1869L22.4846 90.095L22.932 90.5953L26.1834 87.6871L25.7361 87.1869Z" fill="#D9A6BB"/>
<path d="M13.59 81.8944L13.8919 86.2466L14.5614 86.2001L14.2595 81.848L13.59 81.8944Z" fill="#D9A6BB"/>
<path d="M6.00822 87.16L8.98054 90.353L9.47171 89.8957L6.49939 86.7027L6.00822 87.16Z" fill="#D9A6BB"/>
<path d="M6.16116 97.4537L9.6312 100.097L10.0379 99.5635L6.56784 96.9197L6.16116 97.4537Z" fill="#D9A6BB"/>
<path d="M13.8544 110.068C14.5517 109.53 14.3725 108.128 13.4542 106.936C12.5358 105.744 11.226 105.213 10.5287 105.75C9.83137 106.288 10.0105 107.69 10.9289 108.882C11.8473 110.074 13.157 110.605 13.8544 110.068Z" fill="#D9A6BB"/>
<path d="M12.75 102.659C13.4473 102.122 13.2681 100.72 12.3498 99.5277C11.4314 98.3355 10.1216 97.8046 9.4243 98.3419C8.72697 98.8791 8.90614 100.281 9.8245 101.473C10.7429 102.666 12.0526 103.197 12.75 102.659Z" fill="#D9A6BB"/>
<path d="M18.8336 111.573C19.5309 111.036 19.3517 109.634 18.4334 108.441C17.515 107.249 16.2052 106.718 15.5079 107.255C14.8106 107.793 14.9897 109.195 15.9081 110.387C16.8265 111.579 18.1362 112.11 18.8336 111.573Z" fill="#D9A6BB"/>
<path d="M21.7069 115.412C22.4043 114.875 22.2251 113.473 21.3067 112.28C20.3884 111.088 19.0786 110.557 18.3812 111.095C17.6839 111.632 17.8631 113.034 18.7814 114.226C19.6998 115.418 21.0096 115.949 21.7069 115.412Z" fill="#D9A6BB"/>
<path d="M24.6022 119.584C25.2995 119.047 25.1203 117.645 24.202 116.452C23.2836 115.26 21.9738 114.729 21.2765 115.266C20.5792 115.804 20.7583 117.206 21.6767 118.398C22.5951 119.59 23.9048 120.121 24.6022 119.584Z" fill="#D9A6BB"/>
<path d="M27.3765 117.119C28.0739 116.582 27.8947 115.18 26.9763 113.987C26.058 112.795 24.7482 112.264 24.0509 112.802C23.3535 113.339 23.5327 114.741 24.4511 115.933C25.3694 117.125 26.6792 117.656 27.3765 117.119Z" fill="#D9A6BB"/>
<path d="M31.3325 119.62C32.0298 119.083 31.8506 117.681 30.9323 116.489C30.0139 115.296 28.7041 114.766 28.0068 115.303C27.3095 115.84 27.4886 117.242 28.407 118.434C29.3254 119.627 30.6351 120.157 31.3325 119.62Z" fill="#D9A6BB"/>
<path d="M35.1945 121.959C35.8919 121.422 35.7127 120.02 34.7943 118.828C33.876 117.636 32.5662 117.105 31.8688 117.642C31.1715 118.179 31.3507 119.581 32.269 120.773C33.1874 121.966 34.4972 122.497 35.1945 121.959Z" fill="#D9A6BB"/>
<path d="M34.6299 117.041C35.3272 116.504 35.0784 115.011 34.0741 113.707C33.0698 112.404 31.6903 111.782 30.993 112.319C30.2956 112.857 30.5445 114.349 31.5488 115.653C32.5531 116.957 33.9326 117.578 34.6299 117.041Z" fill="#D9A6BB"/>
<path d="M37.7162 116.657C38.4136 116.12 38.1647 114.627 37.1604 113.324C36.1561 112.02 34.7766 111.398 34.0793 111.936C33.382 112.473 33.6308 113.965 34.6351 115.269C35.6394 116.573 37.0189 117.194 37.7162 116.657Z" fill="#D9A6BB"/>
<path d="M40.9686 116.265C41.6659 115.727 41.4171 114.235 40.4128 112.931C39.4085 111.627 38.029 111.006 37.3317 111.543C36.6343 112.08 36.8832 113.573 37.8875 114.877C38.8918 116.18 40.2713 116.802 40.9686 116.265Z" fill="#D9A6BB"/>
<path d="M37.0837 110.304C37.7269 109.703 37.3378 108.241 36.2145 107.038C35.0912 105.835 33.6591 105.348 33.0159 105.949C32.3726 106.549 32.7617 108.012 33.885 109.214C35.0083 110.417 36.4404 110.905 37.0837 110.304Z" fill="#D9A6BB"/>
<path d="M37.9635 107.216C38.6067 106.616 38.2176 105.153 37.0943 103.951C35.971 102.748 34.5389 102.26 33.8957 102.861C33.2524 103.462 33.6415 104.924 34.7648 106.127C35.8881 107.33 37.3202 107.817 37.9635 107.216Z" fill="#D9A6BB"/>
<path d="M38.8366 104.046C39.4799 103.445 39.0908 101.982 37.9675 100.78C36.8442 99.5769 35.4121 99.0891 34.7688 99.69C34.1255 100.291 34.5146 101.753 35.6379 102.956C36.7612 104.159 38.1933 104.646 38.8366 104.046Z" fill="#D9A6BB"/>
<path d="M32.9832 100.631C33.6939 100.036 33.4141 98.5311 32.3583 97.2688C31.3024 96.0064 29.8704 95.4651 29.1597 96.0597C28.449 96.6542 28.7288 98.1596 29.7846 99.4219C30.8405 100.684 32.2725 101.226 32.9832 100.631Z" fill="#D9A6BB"/>
<path d="M31.1766 96.3856C31.8873 95.7911 31.6075 94.2858 30.5516 93.0234C29.4958 91.7611 28.0638 91.2197 27.3531 91.8143C26.6424 92.4089 26.9222 93.9142 27.978 95.1765C29.0338 96.4389 30.4659 96.9802 31.1766 96.3856Z" fill="#D9A6BB"/>
<path d="M29.1818 91.8964C29.8925 91.3018 29.6127 89.7965 28.5569 88.5342C27.5011 87.2718 26.069 86.7305 25.3583 87.3251C24.6476 87.9196 24.9274 89.4249 25.9833 90.6873C27.0391 91.9496 28.4711 92.4909 29.1818 91.8964Z" fill="#D9A6BB"/>
<path d="M24.7701 92.5396C25.4808 91.9451 25.2376 90.4835 24.227 89.2752C23.2164 88.0669 21.8209 87.5694 21.1103 88.1639C20.3996 88.7585 20.6427 90.22 21.6534 91.4283C22.664 92.6366 24.0594 93.1342 24.7701 92.5396Z" fill="#D9A6BB"/>
<path d="M20.9617 89.0464C21.6995 88.4859 21.5252 87.0145 20.5724 85.76C19.6196 84.5056 18.249 83.943 17.5112 84.5036C16.7733 85.0641 16.9476 86.5355 17.9005 87.79C18.8533 89.0445 20.2238 89.607 20.9617 89.0464Z" fill="#D9A6BB"/>
<path d="M17.2626 85.4327C18.0004 84.8721 17.8262 83.4007 16.8733 82.1463C15.9205 80.8918 14.5499 80.3292 13.8121 80.8898C13.0743 81.4504 13.2486 82.9217 14.2014 84.1762C15.1542 85.4307 16.5248 85.9932 17.2626 85.4327Z" fill="#D9A6BB"/>
<path d="M16.0648 89.9722C16.8026 89.4117 16.6283 87.9403 15.6755 86.6858C14.7227 85.4313 13.3521 84.8688 12.6143 85.4294C11.8764 85.9899 12.0507 87.4613 13.0036 88.7158C13.9564 89.9702 15.3269 90.5328 16.0648 89.9722Z" fill="#D9A6BB"/>
<path d="M12.4691 89.0464C13.2069 88.4859 13.0326 87.0145 12.0798 85.76C11.127 84.5055 9.75642 83.943 9.01859 84.5036C8.28075 85.0641 8.45504 86.5355 9.40787 87.79C10.3607 89.0445 11.7313 89.607 12.4691 89.0464Z" fill="#D9A6BB"/>
<path d="M8.87142 88.118C9.60926 87.5574 9.43497 86.086 8.48214 84.8316C7.52931 83.5771 6.15875 83.0146 5.42092 83.5751C4.68308 84.1357 4.85737 85.607 5.8102 86.8615C6.76303 88.116 8.13359 88.6785 8.87142 88.118Z" fill="#D9A6BB"/>
<path d="M11.5231 94.0969C12.2432 93.5498 12.0546 92.0893 11.1017 90.8349C10.1489 89.5804 8.79269 89.007 8.07256 89.5541C7.35243 90.1012 7.54108 91.5616 8.49391 92.8161C9.44674 94.0706 10.8029 94.644 11.5231 94.0969Z" fill="#D9A6BB"/>
<path d="M9.71738 95.9878C10.4375 95.4407 10.2489 93.9802 9.29604 92.7257C8.3432 91.4713 6.987 90.8978 6.26687 91.4449C5.54675 91.992 5.73539 93.4525 6.68822 94.707C7.64105 95.9615 8.99725 96.5349 9.71738 95.9878Z" fill="#D9A6BB"/>
<path d="M7.75441 97.9736C8.47454 97.4265 8.2859 95.9661 7.33307 94.7116C6.38024 93.4571 5.02404 92.8837 4.30391 93.4308C3.58378 93.9779 3.77242 95.4383 4.72525 96.6928C5.67808 97.9473 7.03428 98.5207 7.75441 97.9736Z" fill="#D9A6BB"/>
<path d="M7.35533 97.3974C7.8851 96.9949 7.74479 95.9185 7.04193 94.9931C6.33908 94.0678 5.33985 93.6439 4.81008 94.0464C4.28031 94.4489 4.42063 95.5253 5.12348 96.4507C5.82633 97.376 6.82557 97.7999 7.35533 97.3974Z" fill="#B62B6C"/>
<path d="M9.14769 95.3398C9.67745 94.9373 9.53714 93.8609 8.83428 92.9355C8.13143 92.0102 7.1322 91.5863 6.60243 91.9888C6.07266 92.3913 6.21298 93.4677 6.91583 94.393C7.61868 95.3184 8.61792 95.7423 9.14769 95.3398Z" fill="#B62B6C"/>
<path d="M11.0407 93.5273C11.5705 93.1248 11.4301 92.0484 10.7273 91.123C10.0244 90.1977 9.0252 89.7738 8.49544 90.1763C7.96567 90.5788 8.10598 91.6552 8.80883 92.5805C9.51169 93.5059 10.5109 93.9298 11.0407 93.5273Z" fill="#B62B6C"/>
<path d="M8.51636 87.4785C9.04612 87.076 8.90581 85.9996 8.20295 85.0742C7.5001 84.1488 6.50087 83.725 5.9711 84.1274C5.44133 84.5299 5.58165 85.6064 6.2845 86.5317C6.98735 87.4571 7.98659 87.881 8.51636 87.4785Z" fill="#B62B6C"/>
<path d="M12.0354 88.4943C12.5651 88.0919 12.4248 87.0154 11.722 86.0901C11.0191 85.1647 10.0199 84.7408 9.4901 85.1433C8.96033 85.5458 9.10064 86.6222 9.8035 87.5476C10.5064 88.4729 11.5056 88.8968 12.0354 88.4943Z" fill="#B62B6C"/>
<path d="M15.6304 89.4248C16.1601 89.0223 16.0198 87.9459 15.317 87.0205C14.6141 86.0951 13.6149 85.6713 13.0851 86.0737C12.5553 86.4762 12.6957 87.5526 13.3985 88.478C14.1014 89.4034 15.1006 89.8272 15.6304 89.4248Z" fill="#B62B6C"/>
<path d="M16.9142 84.8764C17.444 84.4739 17.3037 83.3975 16.6008 82.4722C15.898 81.5468 14.8987 81.1229 14.369 81.5254C13.8392 81.9279 13.9795 83.0043 14.6824 83.9297C15.3852 84.855 16.3844 85.2789 16.9142 84.8764Z" fill="#B62B6C"/>
<path d="M20.5213 88.4108C21.051 88.0084 20.9107 86.9319 20.2079 86.0066C19.505 85.0812 18.5058 84.6573 17.976 85.0598C17.4462 85.4623 17.5866 86.5387 18.2894 87.4641C18.9923 88.3894 19.9915 88.8133 20.5213 88.4108Z" fill="#B62B6C"/>
<path d="M24.294 91.8752C24.8021 91.4458 24.6061 90.3781 23.8562 89.4905C23.1063 88.6029 22.0865 88.2315 21.5783 88.6609C21.0702 89.0904 21.2662 90.158 22.0161 91.0456C22.766 91.9332 23.7858 92.3046 24.294 91.8752Z" fill="#B62B6C"/>
<path d="M28.6217 91.238C29.1299 90.8085 28.9339 89.7409 28.184 88.8533C27.4341 87.9657 26.4142 87.5943 25.9061 88.0237C25.3979 88.4531 25.5939 89.5208 26.3438 90.4084C27.0937 91.296 28.1136 91.6674 28.6217 91.238Z" fill="#B62B6C"/>
<path d="M30.6143 95.7246C31.1225 95.2951 30.9265 94.2275 30.1766 93.3399C29.4267 92.4523 28.4068 92.0809 27.8987 92.5103C27.3905 92.9397 27.5865 94.0074 28.3364 94.895C29.0863 95.7826 30.1062 96.154 30.6143 95.7246Z" fill="#B62B6C"/>
<path d="M32.5063 99.9658C33.0144 99.5363 32.8184 98.4687 32.0685 97.5811C31.3186 96.6935 30.2988 96.3221 29.7906 96.7515C29.2825 97.1809 29.4785 98.2486 30.2284 99.1362C30.9783 100.024 31.9981 100.395 32.5063 99.9658Z" fill="#B62B6C"/>
<path d="M13.1729 106.33C13.8702 105.793 13.6911 104.391 12.7727 103.199C11.8543 102.007 10.5446 101.476 9.84723 102.013C9.1499 102.55 9.32907 103.952 10.2474 105.145C11.1658 106.337 12.4756 106.868 13.1729 106.33Z" fill="#D9A6BB"/>
<path d="M38.1361 103.693C38.6443 103.264 38.3891 102.126 37.5663 101.152C36.7434 100.178 35.6644 99.7369 35.1562 100.166C34.6481 100.596 34.9032 101.733 35.7261 102.707C36.549 103.681 37.628 104.123 38.1361 103.693Z" fill="#B62B6C"/>
<path d="M37.3395 106.774C37.8476 106.345 37.5925 105.207 36.7696 104.233C35.9468 103.259 34.8678 102.818 34.3596 103.247C33.8515 103.677 34.1066 104.814 34.9295 105.788C35.7523 106.762 36.8313 107.204 37.3395 106.774Z" fill="#B62B6C"/>
<path d="M36.7182 109.928C37.2263 109.498 36.9712 108.361 36.1483 107.387C35.3254 106.413 34.2464 105.971 33.7383 106.401C33.2301 106.83 33.4853 107.968 34.3081 108.942C35.131 109.916 36.21 110.357 36.7182 109.928Z" fill="#B62B6C"/>
<path d="M40.567 115.717C41.0752 115.287 40.82 114.15 39.9972 113.176C39.1743 112.202 38.0953 111.76 37.5871 112.19C37.079 112.619 37.3341 113.757 38.157 114.731C38.9799 115.705 40.0589 116.146 40.567 115.717Z" fill="#B62B6C"/>
<path d="M37.3936 116.022C37.9018 115.592 37.6466 114.455 36.8238 113.481C36.0009 112.507 34.9219 112.065 34.4138 112.495C33.9056 112.924 34.1608 114.062 34.9836 115.036C35.8065 116.01 36.8855 116.451 37.3936 116.022Z" fill="#B62B6C"/>
<path d="M34.3326 116.714C34.8604 116.309 34.6592 115.16 33.8831 114.149C33.107 113.137 32.05 112.645 31.5222 113.05C30.9943 113.455 31.1956 114.604 31.9717 115.615C32.7477 116.627 33.8048 117.119 34.3326 116.714Z" fill="#B62B6C"/>
<path d="M34.9259 121.633C35.4537 121.228 35.2525 120.08 34.4764 119.068C33.7003 118.056 32.6433 117.565 32.1155 117.97C31.5876 118.375 31.7889 119.523 32.5649 120.535C33.341 121.546 34.3981 122.038 34.9259 121.633Z" fill="#B62B6C"/>
<path d="M31.064 119.294C31.5918 118.889 31.3906 117.741 30.6145 116.729C29.8384 115.717 28.7814 115.226 28.2536 115.631C27.7257 116.036 27.927 117.184 28.703 118.196C29.4791 119.208 30.5361 119.699 31.064 119.294Z" fill="#B62B6C"/>
<path d="M27.1015 116.71C27.6293 116.305 27.4281 115.157 26.652 114.145C25.8759 113.134 24.8189 112.642 24.2911 113.047C23.7632 113.452 23.9645 114.6 24.7406 115.612C25.5166 116.624 26.5737 117.115 27.1015 116.71Z" fill="#B62B6C"/>
<path d="M24.3341 119.258C24.862 118.853 24.6607 117.705 23.8846 116.693C23.1086 115.681 22.0515 115.19 21.5237 115.595C20.9959 116 21.1971 117.148 21.9732 118.16C22.7493 119.171 23.8063 119.663 24.3341 119.258Z" fill="#B62B6C"/>
<path d="M18.5043 111.209C19.0321 110.804 18.8656 109.701 18.1324 108.745C17.3992 107.789 16.3769 107.342 15.8491 107.747C15.3212 108.152 15.4877 109.256 16.2209 110.211C16.9541 111.167 17.9764 111.614 18.5043 111.209Z" fill="#B62B6C"/>
<path d="M12.7499 105.805C13.2777 105.4 13.1112 104.297 12.378 103.341C11.6448 102.385 10.6225 101.939 10.0947 102.344C9.56682 102.749 9.73331 103.852 10.4665 104.808C11.1997 105.763 12.222 106.21 12.7499 105.805Z" fill="#B62B6C"/>
<path d="M12.41 102.127C12.9379 101.722 12.7714 100.619 12.0382 99.6632C11.305 98.7073 10.2827 98.2608 9.75484 98.6658C9.22701 99.0708 9.3935 100.174 10.1267 101.13C10.8599 102.086 11.8822 102.532 12.41 102.127Z" fill="#B62B6C"/>
<path d="M21.3843 115.131C21.9121 114.726 21.7456 113.623 21.0124 112.667C20.2792 111.711 19.2569 111.264 18.7291 111.669C18.2012 112.075 18.3677 113.178 19.1009 114.133C19.8342 115.089 20.8564 115.536 21.3843 115.131Z" fill="#B62B6C"/>
<path d="M13.5253 109.704C14.0531 109.299 13.8867 108.196 13.1534 107.24C12.4202 106.284 11.3979 105.838 10.8701 106.243C10.3423 106.648 10.5088 107.751 11.242 108.707C11.9752 109.663 12.9975 110.109 13.5253 109.704Z" fill="#B62B6C"/>
</g>
</g>
<defs>
<linearGradient id="paint0_linear_3531:374571" x1="118.352" y1="57.2906" x2="118.352" y2="64.2356" gradientUnits="userSpaceOnUse">
<stop stop-color="#CC3779"/>
<stop offset="1" stop-color="#9A265A"/>
</linearGradient>
<linearGradient id="paint1_linear_3531:374571" x1="118.352" y1="57.2906" x2="118.352" y2="64.2356" gradientUnits="userSpaceOnUse">
<stop stop-color="#CC3779"/>
<stop offset="1" stop-color="#9A265A"/>
</linearGradient>
<linearGradient id="paint2_linear_3531:374571" x1="116.669" y1="59.5482" x2="116.669" y2="67.3614" gradientUnits="userSpaceOnUse">
<stop stop-color="#CC3779"/>
<stop offset="1" stop-color="#9A265A"/>
</linearGradient>
<linearGradient id="paint3_linear_3531:374571" x1="114.279" y1="58.7934" x2="114.279" y2="66.6065" gradientUnits="userSpaceOnUse">
<stop stop-color="#CC3779"/>
<stop offset="1" stop-color="#9A265A"/>
</linearGradient>
<linearGradient id="paint4_linear_3531:374571" x1="118.909" y1="65.2031" x2="118.909" y2="69.1096" gradientUnits="userSpaceOnUse">
<stop stop-color="#CC3779"/>
<stop offset="1" stop-color="#9A265A"/>
</linearGradient>
<linearGradient id="paint5_linear_3531:374571" x1="133.331" y1="50.9228" x2="132.686" y2="47.8735" gradientUnits="userSpaceOnUse">
<stop stop-color="#CC3779"/>
<stop offset="1" stop-color="#9A265A"/>
</linearGradient>
<linearGradient id="paint6_linear_3531:374571" x1="122.99" y1="34.6507" x2="122.99" y2="40.2067" gradientUnits="userSpaceOnUse">
<stop stop-color="#CC3779"/>
<stop offset="1" stop-color="#9A265A"/>
</linearGradient>
<linearGradient id="paint7_linear_3531:374571" x1="121.187" y1="38.6724" x2="121.187" y2="44.836" gradientUnits="userSpaceOnUse">
<stop stop-color="#CC3779"/>
<stop offset="1" stop-color="#9A265A"/>
</linearGradient>
<linearGradient id="paint8_linear_3531:374571" x1="119.593" y1="42.7767" x2="119.593" y2="49.7217" gradientUnits="userSpaceOnUse">
<stop stop-color="#CC3779"/>
<stop offset="1" stop-color="#9A265A"/>
</linearGradient>
<linearGradient id="paint9_linear_3531:374571" x1="120.992" y1="46.961" x2="120.992" y2="55.1214" gradientUnits="userSpaceOnUse">
<stop stop-color="#CC3779"/>
<stop offset="1" stop-color="#9A265A"/>
</linearGradient>
<linearGradient id="paint10_linear_3531:374571" x1="118.85" y1="48.8007" x2="118.85" y2="57.6556" gradientUnits="userSpaceOnUse">
<stop stop-color="#CC3779"/>
<stop offset="1" stop-color="#9A265A"/>
</linearGradient>
<linearGradient id="paint11_linear_3531:374571" x1="117.634" y1="52.6704" x2="117.634" y2="60.3098" gradientUnits="userSpaceOnUse">
<stop stop-color="#CC3779"/>
<stop offset="1" stop-color="#9A265A"/>
</linearGradient>
<linearGradient id="paint12_linear_3531:374571" x1="118.377" y1="33.2237" x2="118.377" y2="38.8665" gradientUnits="userSpaceOnUse">
<stop stop-color="#CC3779"/>
<stop offset="1" stop-color="#9A265A"/>
</linearGradient>
<linearGradient id="paint13_linear_3531:374571" x1="122.823" y1="28.3578" x2="122.823" y2="34.0006" gradientUnits="userSpaceOnUse">
<stop stop-color="#CC3779"/>
<stop offset="1" stop-color="#9A265A"/>
</linearGradient>
<linearGradient id="paint14_linear_3531:374571" x1="121.355" y1="23.5755" x2="121.355" y2="29.2183" gradientUnits="userSpaceOnUse">
<stop stop-color="#CC3779"/>
<stop offset="1" stop-color="#9A265A"/>
</linearGradient>
<linearGradient id="paint15_linear_3531:374571" x1="98.0212" y1="62.2203" x2="98.0212" y2="71.5092" gradientUnits="userSpaceOnUse">
<stop stop-color="#CC3779"/>
<stop offset="1" stop-color="#9A265A"/>
</linearGradient>
<linearGradient id="paint16_linear_3531:374571" x1="95.9659" y1="60.8143" x2="95.9659" y2="67.7593" gradientUnits="userSpaceOnUse">
<stop stop-color="#CC3779"/>
<stop offset="1" stop-color="#9A265A"/>
</linearGradient>
<linearGradient id="paint17_linear_3531:374571" x1="88.7098" y1="55.4202" x2="88.7098" y2="65.2299" gradientUnits="userSpaceOnUse">
<stop stop-color="#CC3779"/>
<stop offset="1" stop-color="#9A265A"/>
</linearGradient>
<linearGradient id="paint18_linear_3531:374571" x1="89.2386" y1="50.304" x2="89.2386" y2="59.9402" gradientUnits="userSpaceOnUse">
<stop stop-color="#CC3779"/>
<stop offset="1" stop-color="#9A265A"/>
</linearGradient>
<linearGradient id="paint19_linear_3531:374571" x1="76.3975" y1="44.9345" x2="76.3975" y2="54.5707" gradientUnits="userSpaceOnUse">
<stop stop-color="#CC3779"/>
<stop offset="1" stop-color="#9A265A"/>
</linearGradient>
<linearGradient id="paint20_linear_3531:374571" x1="83.1839" y1="26.7485" x2="83.1839" y2="34.1276" gradientUnits="userSpaceOnUse">
<stop stop-color="#CC3779"/>
<stop offset="1" stop-color="#9A265A"/>
</linearGradient>
<linearGradient id="paint21_linear_3531:374571" x1="85.3744" y1="21.2045" x2="85.3744" y2="28.6767" gradientUnits="userSpaceOnUse">
<stop stop-color="#CC3779"/>
<stop offset="1" stop-color="#9A265A"/>
</linearGradient>
<linearGradient id="paint22_linear_3531:374571" x1="78.9491" y1="27.2476" x2="78.9491" y2="35.1475" gradientUnits="userSpaceOnUse">
<stop stop-color="#CC3779"/>
<stop offset="1" stop-color="#9A265A"/>
</linearGradient>
<linearGradient id="paint23_linear_3531:374571" x1="74.9824" y1="28.0708" x2="74.9824" y2="37.7938" gradientUnits="userSpaceOnUse">
<stop stop-color="#CC3779"/>
<stop offset="1" stop-color="#9A265A"/>
</linearGradient>
<linearGradient id="paint24_linear_3531:374571" x1="109.791" y1="57.89" x2="109.791" y2="63.446" gradientUnits="userSpaceOnUse">
<stop stop-color="#CC3779"/>
<stop offset="1" stop-color="#9A265A"/>
</linearGradient>
<linearGradient id="paint25_linear_3531:374571" x1="76.9351" y1="34.3713" x2="76.9351" y2="43.1394" gradientUnits="userSpaceOnUse">
<stop stop-color="#CC3779"/>
<stop offset="1" stop-color="#9A265A"/>
</linearGradient>
<linearGradient id="paint26_linear_3531:374571" x1="74.1345" y1="36.9607" x2="74.1345" y2="47.0309" gradientUnits="userSpaceOnUse">
<stop stop-color="#CC3779"/>
<stop offset="1" stop-color="#9A265A"/>
</linearGradient>
<linearGradient id="paint27_linear_3531:374571" x1="71.592" y1="40.3931" x2="71.592" y2="51.2454" gradientUnits="userSpaceOnUse">
<stop stop-color="#CC3779"/>
<stop offset="1" stop-color="#9A265A"/>
</linearGradient>
<linearGradient id="paint28_linear_3531:374571" x1="15.114" y1="87.6968" x2="21.2707" y2="95.4609" gradientUnits="userSpaceOnUse">
<stop stop-color="#CA3879"/>
<stop offset="1" stop-color="#892450"/>
</linearGradient>
<linearGradient id="paint29_linear_3531:374571" x1="19.9446" y1="99.1917" x2="26.2372" y2="107.127" gradientUnits="userSpaceOnUse">
<stop stop-color="#CA3879"/>
<stop offset="1" stop-color="#892450"/>
</linearGradient>
<linearGradient id="paint30_linear_3531:374571" x1="19.3961" y1="94.8538" x2="24.1043" y2="100.791" gradientUnits="userSpaceOnUse">
<stop stop-color="#CA3879"/>
<stop offset="1" stop-color="#892450"/>
</linearGradient>
<linearGradient id="paint31_linear_3531:374571" x1="19.1247" y1="91.0003" x2="23.8329" y2="96.9376" gradientUnits="userSpaceOnUse">
<stop stop-color="#CA3879"/>
<stop offset="1" stop-color="#892450"/>
</linearGradient>
<linearGradient id="paint32_linear_3531:374571" x1="13.7796" y1="86.2838" x2="18.8498" y2="92.6778" gradientUnits="userSpaceOnUse">
<stop stop-color="#CA3879"/>
<stop offset="1" stop-color="#892450"/>
</linearGradient>
<linearGradient id="paint33_linear_3531:374571" x1="15.7403" y1="84.3006" x2="20.8105" y2="90.6946" gradientUnits="userSpaceOnUse">
<stop stop-color="#CA3879"/>
<stop offset="1" stop-color="#892450"/>
</linearGradient>
<linearGradient id="paint34_linear_3531:374571" x1="17.0934" y1="81.4161" x2="23.2501" y2="89.1802" gradientUnits="userSpaceOnUse">
<stop stop-color="#CA3879"/>
<stop offset="1" stop-color="#892450"/>
</linearGradient>
<linearGradient id="paint35_linear_3531:374571" x1="24.8626" y1="112.392" x2="29.8604" y2="118.695" gradientUnits="userSpaceOnUse">
<stop stop-color="#CA3879"/>
<stop offset="1" stop-color="#892450"/>
</linearGradient>
<linearGradient id="paint36_linear_3531:374571" x1="28.3224" y1="103.523" x2="33.1029" y2="109.551" gradientUnits="userSpaceOnUse">
<stop stop-color="#CA3879"/>
<stop offset="1" stop-color="#892450"/>
</linearGradient>
<linearGradient id="paint37_linear_3531:374571" x1="25.1488" y1="99.7219" x2="29.9294" y2="105.75" gradientUnits="userSpaceOnUse">
<stop stop-color="#CA3879"/>
<stop offset="1" stop-color="#892450"/>
</linearGradient>
<linearGradient id="paint38_linear_3531:374571" x1="30.4964" y1="107.818" x2="35.4942" y2="114.12" gradientUnits="userSpaceOnUse">
<stop stop-color="#CA3879"/>
<stop offset="1" stop-color="#892450"/>
</linearGradient>
<linearGradient id="paint39_linear_3531:374571" x1="33.0422" y1="111.366" x2="38.04" y2="117.669" gradientUnits="userSpaceOnUse">
<stop stop-color="#CA3879"/>
<stop offset="1" stop-color="#892450"/>
</linearGradient>
<linearGradient id="paint40_linear_3531:374571" x1="37.1426" y1="113.973" x2="41.8507" y2="119.91" gradientUnits="userSpaceOnUse">
<stop stop-color="#CA3879"/>
<stop offset="1" stop-color="#892450"/>
</linearGradient>
<linearGradient id="paint41_linear_3531:374571" x1="34.5108" y1="60.9868" x2="39.0016" y2="66.65" gradientUnits="userSpaceOnUse">
<stop stop-color="#CA3879"/>
<stop offset="1" stop-color="#892450"/>
</linearGradient>
<linearGradient id="paint42_linear_3531:374571" x1="40.4047" y1="60.1677" x2="44.8955" y2="65.831" gradientUnits="userSpaceOnUse">
<stop stop-color="#CA3879"/>
<stop offset="1" stop-color="#892450"/>
</linearGradient>
<linearGradient id="paint43_linear_3531:374571" x1="43.4011" y1="58.0056" x2="47.8919" y2="63.6689" gradientUnits="userSpaceOnUse">
<stop stop-color="#CA3879"/>
<stop offset="1" stop-color="#892450"/>
</linearGradient>
<linearGradient id="paint44_linear_3531:374571" x1="46.5834" y1="61.9218" x2="51.2191" y2="67.7677" gradientUnits="userSpaceOnUse">
<stop stop-color="#CA3879"/>
<stop offset="1" stop-color="#892450"/>
</linearGradient>
<linearGradient id="paint45_linear_3531:374571" x1="61.9969" y1="82.664" x2="67.7915" y2="89.9714" gradientUnits="userSpaceOnUse">
<stop stop-color="#CA3879"/>
<stop offset="1" stop-color="#892450"/>
</linearGradient>
<linearGradient id="paint46_linear_3531:374571" x1="49.8992" y1="64.9218" x2="55.1143" y2="71.4985" gradientUnits="userSpaceOnUse">
<stop stop-color="#CA3879"/>
<stop offset="1" stop-color="#892450"/>
</linearGradient>
<linearGradient id="paint47_linear_3531:374571" x1="62.9395" y1="79.6526" x2="68.5892" y2="86.7773" gradientUnits="userSpaceOnUse">
<stop stop-color="#CA3879"/>
<stop offset="1" stop-color="#892450"/>
</linearGradient>
<linearGradient id="paint48_linear_3531:374571" x1="58.3943" y1="72.6939" x2="64.1164" y2="79.9099" gradientUnits="userSpaceOnUse">
<stop stop-color="#CA3879"/>
<stop offset="1" stop-color="#892450"/>
</linearGradient>
<linearGradient id="paint49_linear_3531:374571" x1="62.4815" y1="76.2975" x2="68.1312" y2="83.4222" gradientUnits="userSpaceOnUse">
<stop stop-color="#CA3879"/>
<stop offset="1" stop-color="#892450"/>
</linearGradient>
<linearGradient id="paint50_linear_3531:374571" x1="64.0118" y1="85.6183" x2="73.0658" y2="97.0361" gradientUnits="userSpaceOnUse">
<stop stop-color="#CA3879"/>
<stop offset="1" stop-color="#892450"/>
</linearGradient>
<linearGradient id="paint51_linear_3531:374571" x1="56.6184" y1="68.8172" x2="61.9784" y2="75.5765" gradientUnits="userSpaceOnUse">
<stop stop-color="#CA3879"/>
<stop offset="1" stop-color="#892450"/>
</linearGradient>
<linearGradient id="paint52_linear_3531:374571" x1="54.7769" y1="64.0673" x2="60.1368" y2="70.8267" gradientUnits="userSpaceOnUse">
<stop stop-color="#CA3879"/>
<stop offset="1" stop-color="#892450"/>
</linearGradient>
<clipPath id="clip0_3531:374571">
<rect width="150" height="140" fill="white"/>
</clipPath>
<clipPath id="clip1_3531:374571">
<rect width="149.986" height="108" fill="white" transform="translate(-9.44727 21)"/>
</clipPath>
</defs>
</svg>
