<svg width="150" height="140" viewBox="0 0 150 140" fill="none" xmlns="http://www.w3.org/2000/svg">
<path d="M46.4992 26.7069C48.2919 28.8675 47.7797 32.1999 45.3651 34.214C42.9504 36.1915 39.5846 36.0817 37.7919 33.9211C35.9992 31.7605 36.5114 28.4281 38.926 26.414C41.3407 24.4365 44.7065 24.5464 46.4992 26.7069Z" fill="#AF697A"/>
<path d="M41.5236 36.1914C39.8772 36.1914 38.3406 35.4957 37.3528 34.2872C36.4016 33.1153 35.9992 31.6139 36.2187 30.0393C36.4382 28.5012 37.2796 27.0364 38.5601 26.0111C39.7675 25.0223 41.2309 24.473 42.7309 24.473C44.3772 24.473 45.9138 25.1688 46.9016 26.3773C47.8528 27.5491 48.2553 29.0505 48.0357 30.6252C47.8162 32.1632 46.9748 33.628 45.6943 34.6534C44.5236 35.6421 43.0236 36.1914 41.5236 36.1914ZM42.7309 25.5716C41.487 25.5716 40.2796 26.0477 39.2553 26.8533C38.1943 27.7322 37.4992 28.904 37.3162 30.1857C37.1333 31.4308 37.426 32.6393 38.1943 33.5548C38.9992 34.5069 40.1699 35.0562 41.5236 35.0562C42.7675 35.0562 43.9748 34.6168 44.9992 33.7745C46.0601 32.8956 46.7553 31.7238 46.9382 30.4421C47.1211 29.197 46.8284 27.9885 46.0601 27.073C45.2553 26.0843 44.0845 25.5716 42.7309 25.5716Z" fill="#7F354B"/>
<path d="M42.4747 28.3183C43.243 29.2338 43.0235 30.662 41.9991 31.5043C40.9747 32.3465 39.5479 32.3099 38.7796 31.3944C38.0113 30.4789 38.2308 29.0507 39.2552 28.2085C40.2796 27.3662 41.743 27.4028 42.4747 28.3183Z" fill="#E2CECF"/>
<path d="M21.805 62.4849C24.0367 65.1948 23.4148 69.4061 20.3782 71.9329C17.3416 74.4596 13.0611 74.2765 10.8294 71.6033C8.5977 68.8934 9.21966 64.6821 12.2562 62.1553C15.3294 59.6285 19.5733 59.775 21.805 62.4849Z" fill="#AF697A"/>
<path d="M15.5848 74.2763C13.536 74.2763 11.6702 73.4341 10.4263 71.9326C9.25556 70.5045 8.74336 68.6368 9.03605 66.696C9.32873 64.7917 10.3531 62.9973 11.9263 61.7156C13.4263 60.4706 15.2556 59.8114 17.0848 59.8114C19.1336 59.8114 20.9995 60.6537 22.2434 62.1551C23.4141 63.5833 23.9263 65.4509 23.6336 67.3917C23.3409 69.296 22.3165 71.0904 20.7434 72.3721C19.2434 73.5805 17.4141 74.2763 15.5848 74.2763ZM17.0848 60.91C15.5117 60.91 13.9019 61.4959 12.6214 62.5579C11.2678 63.6931 10.3897 65.2312 10.1336 66.8791C9.87751 68.4903 10.2799 70.065 11.2678 71.2368C12.2921 72.4819 13.8287 73.1777 15.5482 73.1777C17.1214 73.1777 18.7312 72.5918 20.0117 71.5298C21.3653 70.3946 22.2434 68.8565 22.4995 67.2086C22.7556 65.5974 22.3531 64.0227 21.3653 62.8509C20.3775 61.6058 18.8409 60.91 17.0848 60.91Z" fill="#7F354B"/>
<path d="M16.7562 64.5354C17.7074 65.6706 17.4147 67.465 16.1342 68.5269C14.8538 69.5889 13.0245 69.5157 12.1099 68.3805C11.1586 67.2452 11.4513 65.4509 12.7318 64.3889C14.0123 63.3269 15.805 63.4001 16.7562 64.5354Z" fill="#E2CECF"/>
<path d="M17.2318 83.0649C19.4635 85.7748 18.8415 89.9861 15.8049 92.5129C12.7684 95.0396 8.48788 94.8565 6.25617 92.1833C4.02446 89.4734 4.64641 85.2621 7.683 82.7353C10.7562 80.2085 15.0001 80.355 17.2318 83.0649Z" fill="#AF697A"/>
<path d="M11.0116 94.8567C8.96281 94.8567 7.09695 94.0145 5.85305 92.5131C4.68232 91.0849 4.17012 89.2173 4.4628 87.2764C4.75549 85.3722 5.77988 83.5778 7.35305 82.2961C8.85305 81.051 10.6823 80.3918 12.5116 80.3918C14.5604 80.3918 16.4262 81.2341 17.6701 82.7355C18.8409 84.1637 19.3531 86.0313 19.0604 87.9722C18.7677 89.8764 17.7433 91.6708 16.1701 92.9525C14.6701 94.161 12.8409 94.8567 11.0116 94.8567ZM12.5116 81.4904C10.9384 81.4904 9.32866 82.0764 8.04817 83.1383C6.69451 84.2736 5.81646 85.775 5.56037 87.4229C5.30427 89.0342 5.70671 90.6088 6.69451 91.7807C7.7189 93.0258 9.25549 93.7215 10.975 93.7215C12.5482 93.7215 14.1579 93.1356 15.4384 92.0736C16.7921 90.9384 17.6701 89.4004 17.9262 87.7891C18.1823 86.1778 17.7799 84.6031 16.7921 83.4313C15.8043 82.1862 14.2677 81.4904 12.5116 81.4904Z" fill="#7F354B"/>
<path d="M12.183 85.1158C13.1342 86.251 12.8415 88.0454 11.561 89.1074C10.2805 90.1694 8.45125 90.0961 7.53662 88.9609C6.5854 87.8257 6.87808 86.0313 8.15857 84.9693C9.43906 83.9073 11.2317 83.9806 12.183 85.1158Z" fill="#E2CECF"/>
<path d="M85.5006 19.4193C87.7323 22.1292 87.1103 26.3405 84.0737 28.8673C81.0372 31.3941 76.7567 31.211 74.525 28.5377C72.2933 25.8278 72.9152 21.6165 75.9518 19.0898C78.9884 16.563 83.2689 16.7095 85.5006 19.4193Z" fill="#AF697A"/>
<path d="M79.2447 31.2112C77.196 31.2112 75.3301 30.3689 74.0862 28.8675C72.9155 27.4393 72.4033 25.5717 72.696 23.6308C72.9886 21.7266 74.013 19.9322 75.5862 18.6505C77.0862 17.4054 78.9155 16.7463 80.7447 16.7463C82.7935 16.7463 84.6594 17.5885 85.9033 19.09C87.074 20.5181 87.5862 22.3858 87.2935 24.3266C87.0008 26.2309 85.9764 28.0252 84.4033 29.3069C82.9399 30.5154 81.074 31.2112 79.2447 31.2112ZM80.7813 17.8449C79.2081 17.8449 77.5984 18.4308 76.3179 19.4928C74.9643 20.628 74.0862 22.166 73.8301 23.8139C73.574 25.4252 73.9764 26.9999 74.9642 28.1717C75.9886 29.4168 77.5252 30.1126 79.2447 30.1126C80.8179 30.1126 82.4277 29.5267 83.7081 28.4647C85.0618 27.3295 85.9399 25.828 86.196 24.1801C86.452 22.5689 86.0496 20.9942 85.0618 19.8224C84.0374 18.5407 82.5008 17.8449 80.7813 17.8449Z" fill="#7F354B"/>
<path d="M80.4152 21.4702C81.3664 22.6055 81.1103 24.3998 79.8298 25.4618C78.5493 26.5238 76.72 26.4506 75.8054 25.3153C74.8542 24.1801 75.1469 22.3857 76.4274 21.3238C77.6713 20.2618 79.5005 20.335 80.4152 21.4702Z" fill="#E2CECF"/>
<path d="M131.964 65.0113C133.427 66.7691 132.988 69.5156 131.049 71.1269C129.073 72.7748 126.293 72.6649 124.866 70.9071C123.403 69.1494 123.842 66.4029 125.781 64.755C127.72 63.1437 130.5 63.2536 131.964 65.0113Z" fill="#AF697A"/>
<path d="M127.902 72.8482C126.512 72.8482 125.231 72.2622 124.39 71.2735C122.743 69.296 123.182 66.1833 125.377 64.3523C126.365 63.5101 127.609 63.0706 128.853 63.0706C130.243 63.0706 131.524 63.6565 132.365 64.6453C133.17 65.634 133.499 66.8791 133.316 68.1974C133.134 69.4791 132.438 70.6876 131.377 71.5665C130.353 72.4087 129.109 72.8482 127.902 72.8482ZM128.89 64.1692C127.902 64.1692 126.914 64.5354 126.109 65.1946C124.39 66.6228 123.987 69.0397 125.268 70.5411C125.89 71.3101 126.841 71.7129 127.902 71.7129C128.89 71.7129 129.877 71.3467 130.682 70.6876C131.524 69.9918 132.073 69.0397 132.219 68.0143C132.365 67.0256 132.109 66.0735 131.524 65.3411C130.902 64.6087 129.951 64.1692 128.89 64.1692Z" fill="#7F354B"/>
<path d="M128.67 66.3297C129.292 67.0621 129.109 68.2339 128.267 68.9297C127.426 69.6255 126.255 69.5889 125.633 68.8198C125.011 68.0874 125.194 66.9156 126.036 66.2198C126.877 65.5607 128.048 65.5973 128.67 66.3297Z" fill="#E2CECF"/>
<path d="M22.1701 34.5801L17.5603 38.2421C17.5603 38.2421 17.9262 55.893 25.4627 59.7747C33.0359 63.6931 36.2554 35.2393 33.9505 26.304L22.1701 34.5801Z" fill="#E2C2C6"/>
<path d="M26.89 60.7269C26.3412 60.7269 25.7925 60.5804 25.2437 60.2875C17.4876 56.2959 17.0485 38.9746 17.012 38.2422C17.012 38.0591 17.0851 37.9126 17.2315 37.8028L21.8412 34.1041L33.6583 25.8646C33.8046 25.7548 33.9876 25.7182 34.1705 25.7914C34.3534 25.8646 34.4632 26.0111 34.4998 26.1576C36.329 33.2253 34.7559 52.7071 30.0729 58.786C29.1217 60.1044 28.0242 60.7269 26.89 60.7269ZM18.1461 38.5352C18.2193 40.769 19.0607 55.8931 25.7559 59.3353C26.1583 59.5551 26.5242 59.6283 26.89 59.6283C27.6949 59.6283 28.4632 59.1156 29.2315 58.1635C33.4388 52.7071 35.0851 34.6901 33.6217 27.2928L22.5364 35.0563L18.1461 38.5352Z" fill="#E2C2C6"/>
<path d="M33.4394 25.4981C32.5979 24.1066 30.3296 23.8502 28.9028 23.9967C24.6955 24.3995 20.3784 29.4531 18.3662 32.7855C15.2931 37.9123 17.4882 40.4391 23.3052 37.9489C25.1345 37.1433 27.037 36.1545 28.6467 34.9827C31.1345 33.1883 35.415 28.9038 33.4394 25.4981Z" fill="#E2C2C6"/>
<path d="M19.5 39.4871C17.8902 39.4871 17.1585 38.7913 16.7926 38.1687C16.0609 36.887 16.4634 34.9462 17.8902 32.4927C19.7926 29.3433 24.2195 23.8503 28.8292 23.4475C29.0487 23.4109 29.3048 23.4109 29.5609 23.4109C30.5487 23.4109 32.9268 23.594 33.878 25.2419C36.0365 28.9405 31.7926 33.4081 28.9024 35.4589C27.3658 36.5575 25.5 37.5828 23.4878 38.4617C21.9878 39.1209 20.5975 39.4871 19.5 39.4871ZM29.5975 24.5095C29.378 24.5095 29.1585 24.5095 28.939 24.5461C24.7317 24.9489 20.4878 30.2955 18.8414 33.0786C17.6341 35.0927 17.2317 36.7406 17.7439 37.6195C18.0365 38.0955 18.5853 38.3519 19.4634 38.3519C20.4146 38.3519 21.6585 38.0223 23.0487 37.4364C25.0243 36.5941 26.817 35.6053 28.2804 34.5434C30.6585 32.8222 34.6829 28.794 32.9268 25.7912C32.2682 24.6194 30.2195 24.5095 29.5975 24.5095Z" fill="#E2C2C6"/>
<path d="M21.6225 47.9829L18.0371 52.9998L21.6225 74.3127C21.6225 74.3127 23.3786 87.6058 37.5371 83.4677C51.6956 79.3296 61.4639 55.9294 60.6225 47.9829C59.781 39.9997 55.3908 28.3912 55.3908 28.3912L21.6225 47.9829Z" fill="#E2C2C6"/>
<path d="M32.4515 84.8227C22.5369 84.8227 21.0735 74.4593 21.0735 74.386L17.4881 53.1098C17.4515 52.9633 17.4881 52.8168 17.5978 52.707L21.2198 47.69C21.2564 47.6168 21.3295 47.5802 21.4027 47.5436L55.171 27.9518C55.3173 27.8786 55.4637 27.842 55.6466 27.9152C55.793 27.9518 55.9393 28.0983 55.9759 28.2448C56.0125 28.3547 60.4027 40.0365 61.2442 47.983C62.0856 55.9662 52.5003 79.7692 37.7564 84.0537C35.8174 84.5664 34.0613 84.8227 32.4515 84.8227ZM18.6222 53.1464L22.171 74.2029C22.2442 74.6058 23.5613 83.6875 32.4515 83.6875C33.9515 83.6875 35.5978 83.4312 37.3539 82.9185C51.293 78.8171 60.8417 55.5267 60.0369 48.0196C59.3417 41.2449 55.9759 31.6871 55.0612 29.1603L21.9881 48.3858L18.6222 53.1464Z" fill="#E2C2C6"/>
<path d="M60.6225 47.9833C59.781 40.0001 55.3908 28.3916 55.3908 28.3916L21.6225 47.9833L18.0371 53.0003L18.1469 53.5862C18.4395 54.1721 18.842 54.6848 19.4274 55.1608C21.2932 56.6623 23.8176 57.2482 26.1956 57.2116C28.6834 57.1749 30.6591 56.2594 33.0005 55.7834C34.2078 55.527 35.0127 56.1862 35.5981 57.1749C36.6225 58.7862 36.1103 61.1665 36.1835 62.9243C36.3664 66.3299 36.7688 69.699 37.1713 73.1046C37.5737 76.4737 38.0493 79.8061 38.4152 83.1751C52.0981 78.3413 61.4274 55.7834 60.6225 47.9833Z" fill="#E2C2C6"/>
<path d="M55.3901 28.3546C55.3169 27.0363 54.6584 25.9011 53.0852 25.3152C49.5364 24.0335 45.5486 27.4391 42.7315 29.0138C38.634 31.2842 34.8657 34.0674 31.0242 36.8139C29.3779 37.9857 27.8047 39.1942 26.1949 40.4026C22.573 43.1491 15.7681 47.5435 18.0364 52.9999C19.4267 56.2957 22.8291 56.8084 25.8657 55.8197C37.4998 52.0844 50.4145 43.1491 54.8779 31.2476C55.2071 30.2955 55.4632 29.3068 55.3901 28.3546Z" fill="#E2C2C6"/>
<path d="M23.1589 56.8452C20.4882 56.8452 18.476 55.5635 17.4882 53.2198C15.2565 47.8367 21.0004 43.5521 24.8419 40.7324C25.2077 40.476 25.537 40.2197 25.8297 40C27.3663 38.8281 28.976 37.6197 30.6589 36.4112L31.6468 35.7154C35.0858 33.2619 38.6346 30.6985 42.4028 28.6111C42.9516 28.2816 43.5736 27.9154 44.1955 27.5125C46.3907 26.121 48.8785 24.5463 51.4028 24.5463C52.0614 24.5463 52.6833 24.6562 53.2687 24.8759C54.915 25.4618 55.8663 26.7069 55.9394 28.3914C56.0126 29.3435 55.7931 30.3689 55.3907 31.5407C50.4882 44.5409 36.5126 53.0733 26.0126 56.4424C25.0614 56.6621 24.0736 56.8452 23.1589 56.8452ZM51.4028 25.6083C49.2077 25.6083 46.8663 27.1097 44.8175 28.3914C44.1589 28.7942 43.537 29.1971 42.9882 29.5266C39.2565 31.614 35.7443 34.1408 32.3419 36.5577L31.3541 37.2535C29.6711 38.4619 28.0614 39.6704 26.5614 40.8422C26.2321 41.0619 25.9028 41.3183 25.537 41.6113C21.9882 44.2479 16.6467 48.2395 18.5492 52.7804C19.5736 55.1973 21.6224 55.71 23.1589 55.71C23.9638 55.71 24.8053 55.5635 25.6833 55.3071C42.0736 50.0339 51.3663 38.9746 54.3297 31.1013C54.6955 30.1126 54.8785 29.1971 54.8419 28.428C54.7687 27.183 54.1102 26.3407 52.8663 25.8646C52.4272 25.6815 51.915 25.6083 51.4028 25.6083Z" fill="#E2C2C6"/>
<path d="M20.1225 72.9213H16.3542C16.3542 72.9213 17.1591 106.941 30.2567 110.274C43.3542 113.606 68.7079 93.282 76.7933 77.6453C84.8786 62.0452 75.2567 26.3406 75.2567 26.3406C75.2567 26.3406 36.1835 71.7861 20.1225 72.9213Z" fill="#E2C2C6"/>
<path d="M33.3295 111.189C32.1954 111.189 31.0978 111.043 30.11 110.823C16.7564 107.417 15.8051 74.3494 15.7686 72.9212C15.7686 72.7747 15.8051 72.6283 15.9149 72.5184C16.0247 72.4085 16.171 72.3353 16.3173 72.3353H20.1222C35.7442 71.2367 74.3783 26.4138 74.7808 25.9744C74.9271 25.8279 75.1466 25.7546 75.3295 25.7913C75.5125 25.8279 75.6954 25.9744 75.732 26.1941C76.1344 27.6589 85.3173 62.2648 77.232 77.9015C69.732 92.4397 47.0856 111.189 33.3295 111.189ZM16.9027 73.4705C17.0856 77.9015 18.7686 106.758 30.3661 109.724C31.2807 109.944 32.2686 110.054 33.3295 110.054C46.7198 110.054 68.8905 91.634 76.2808 77.3889C83.4149 63.6197 76.4271 33.4448 74.9637 27.5124C69.4759 33.811 35.3051 72.4085 20.1954 73.4705H16.9027Z" fill="#E2C2C6"/>
<path d="M75.2204 26.3406C75.2204 26.3406 36.1838 71.7861 20.1228 72.8847H16.6472C16.7204 73.6537 16.9399 74.3861 17.3423 75.0453C19.6838 78.9636 24.3301 77.4622 27.8058 76.2171C31.4643 74.8622 35.2326 73.8368 38.8545 72.372C40.3911 71.7495 42.7692 70.4311 44.4887 71.31C46.8301 72.5185 47.9643 75.741 48.5862 78.1213C49.5375 81.7467 49.7936 85.4454 49.9399 89.1806C50.1228 94.1609 50.5984 99.1046 51.0375 104.085C61.6106 97.3835 72.1106 86.7271 76.8301 77.6453C84.8423 62.0452 75.2204 26.3406 75.2204 26.3406Z" fill="#E2C2C6"/>
<path d="M72.7329 21.2504C68.3061 17.7349 61.0256 25.4251 59.1231 29.0139C54.3305 38.1689 52.0256 44.2112 40.8305 51.9014C32.9646 57.2845 26.05 60.1043 18.8792 66.2931C15.6963 69.0396 14.8183 75.265 20.4524 75.5579C28.6109 76.034 35.8548 70.7973 42.5866 66.9888C55.0256 59.9212 71.6719 47.4337 74.7085 32.4562C75.367 29.3068 75.9524 23.8138 72.7329 21.2504Z" fill="#E2C2C6"/>
<path d="M21.4761 76.1804C21.1468 76.1804 20.781 76.1804 20.4151 76.1438C18.1834 75.9973 16.6103 74.972 16.0249 73.2508C15.2566 70.9437 16.3176 67.7944 18.4761 65.8902C22.9395 62.0451 27.22 59.5183 31.7932 56.845C34.5737 55.1971 37.4639 53.5126 40.5005 51.4619C50.4517 44.614 53.3054 39.0843 57.22 31.4674C57.659 30.5885 58.1346 29.7096 58.6103 28.7941C60.2566 25.6814 65.6346 19.8222 70.0981 19.8222C71.1956 19.8222 72.1834 20.1518 73.0249 20.8476C76.3176 23.4476 76.0249 28.6842 75.22 32.6392C73.7932 39.597 67.72 53.3295 42.8054 67.5381C41.8176 68.0874 40.8298 68.7099 39.8054 69.2958C34.1346 72.6283 28.1712 76.1804 21.4761 76.1804ZM70.1346 20.9208C66.1834 20.9208 61.0981 26.4504 59.6346 29.3068C59.159 30.2223 58.6834 31.1012 58.2444 31.98C54.2566 39.7801 51.3664 45.4196 41.159 52.414C38.1224 54.5014 35.1956 56.1859 32.4151 57.8338C27.9151 60.4704 23.6346 62.9972 19.281 66.7691C17.4517 68.3437 16.5005 71.0536 17.159 72.9212C17.5981 74.2395 18.7688 74.972 20.5615 75.0818C27.3664 75.448 33.4761 71.8226 39.3664 68.3437C40.3907 67.7578 41.3785 67.1353 42.3664 66.586C50.8176 61.7521 70.9029 48.7886 74.2322 32.4561C74.8542 29.4899 75.4395 24.1434 72.4395 21.7631C71.7078 21.1771 70.9761 20.9208 70.1346 20.9208Z" fill="#E2C2C6"/>
<path d="M9.073 94.7104L3.84129 95.8456C3.84129 95.8456 2.26812 112.471 9.95105 119.539C17.634 126.606 32.6706 127.852 49.7559 120.418C66.8779 112.947 90.7315 93.3188 98.3413 66.1102C105.11 41.9043 105.439 13.3407 105.036 12.059C104.671 10.814 95.6706 10.3013 93.6218 23.1549C91.5364 36.0085 80.5242 61.2397 56.9998 73.9468C33.512 86.6174 9.073 94.7104 9.073 94.7104Z" fill="#E2C2C6"/>
<path d="M27.8415 126.02C20.1951 126.02 13.9025 123.933 9.58538 119.942C1.75612 112.764 3.21953 96.4681 3.2927 95.809C3.32929 95.5526 3.47563 95.3695 3.73173 95.3329L8.96343 94.1977C9.14636 94.1244 33.5854 85.9948 56.7439 73.4341C79.3903 61.1664 90.8781 36.5578 93.0732 23.045C94.5366 14.0731 99.4756 10.8871 103.244 10.8871C104.232 10.8871 105.329 11.1435 105.585 11.8759C105.988 13.1576 105.732 41.6846 98.8903 66.22C91.5732 92.4765 69.0732 112.581 50.0122 120.894C42.3659 124.263 34.6829 126.02 27.8415 126.02ZM4.35368 96.3216C4.17075 98.885 3.58539 112.947 10.3171 119.136C14.3415 122.871 20.561 124.922 27.8049 124.922C34.5 124.922 42.0366 123.201 49.5366 119.905C67.7561 111.958 90.622 91.6709 97.7927 65.927C104.415 42.1606 104.854 13.6336 104.488 12.2055C104.451 12.2055 104.012 11.9857 103.244 11.9857C102.512 11.9857 95.9268 12.3153 94.1708 23.1915C91.939 36.924 80.3049 61.9354 57.2927 74.3863C34.0244 86.9835 9.51222 95.1498 9.25612 95.2597L4.35368 96.3216Z" fill="#E2C2C6"/>
<path d="M105.036 12.0224C104.67 10.7773 95.67 10.2646 93.6212 23.1182C91.5359 35.9718 80.5237 61.203 56.9993 73.9102C33.5115 86.6173 9.03587 94.7103 9.03587 94.7103L3.80416 95.8456C3.80416 95.8456 3.80416 96.0287 3.76758 96.3216C4.09685 98.0061 4.79197 99.5808 5.99928 100.899C9.32855 104.488 14.5968 105.11 19.2432 104.781C24.3651 104.415 33.8773 99.7273 36.4383 106.905C38.3773 112.325 38.1212 119.942 33.2554 123.75C32.3407 124.482 31.3164 124.995 30.2554 125.398C36.1822 125.032 42.7676 123.457 49.7188 120.454C66.8407 112.984 90.6944 93.3554 98.3042 66.1467C105.109 41.8677 105.438 13.3041 105.036 12.0224Z" fill="#E2C2C6"/>
<path d="M105.439 15.7575C105.732 3.7827 93.3292 1.5855 86.5243 10.1546C82.6096 15.0617 82.2804 22.4223 80.7438 28.4646C75.9877 46.8112 62.3048 59.7015 46.7926 69.5889C37.4267 75.5579 27.4755 78.8171 17.5243 83.4312C11.817 86.0313 0.255995 91.6341 4.90234 99.7638C9.62185 108.04 27.695 98.5553 33.256 96.3581C40.3901 93.5017 47.2316 90.1327 53.7438 86.0679C72.4755 74.3129 88.8292 56.9184 98.5975 37.0337C101.78 30.5519 105.256 23.1181 105.439 15.7575Z" fill="#E2C2C6"/>
<path d="M11.8894 103.646C8.30408 103.646 5.77969 102.437 4.42603 100.02C3.2553 97.9329 2.96262 95.8821 3.62115 93.868C5.37725 88.375 13.3894 84.6764 17.2675 82.882C20.3773 81.4538 23.487 80.1355 26.5236 78.8538C33.4748 75.9242 40.0602 73.1777 46.4626 69.0763C65.1212 57.2114 76.1334 43.8451 80.1577 28.2816C80.5602 26.6703 80.8895 24.9858 81.2187 23.228C82.1334 18.4308 83.0846 13.4505 86.048 9.78848C88.7553 6.38281 92.5236 4.40533 96.2919 4.40533C98.8895 4.40533 101.304 5.39407 103.024 7.15184C105.036 9.20256 106.06 12.1688 105.95 15.7575C105.768 23.0083 102.585 30.0393 99.0724 37.2535C89.4504 56.8086 73.4626 74.3129 53.9992 86.544C47.7431 90.4624 41.0114 93.8314 33.4382 96.8709C32.7431 97.1638 31.8285 97.5667 30.7675 98.0061C26.0114 100.13 17.9992 103.646 11.8894 103.646ZM96.3285 5.54055C92.8895 5.54055 89.4504 7.33494 86.9626 10.4843C84.1821 13.9632 83.2675 18.797 82.3529 23.4477C82.0236 25.1689 81.6943 26.9266 81.2553 28.5745C77.1577 44.431 65.9626 57.9804 47.048 70.0284C40.5358 74.1665 33.6212 77.0961 26.926 79.9158C23.8894 81.1975 20.7797 82.5158 17.7065 83.9074C14.2675 85.482 6.2553 89.1807 4.64554 94.1976C4.09676 95.9187 4.31627 97.6765 5.37725 99.4709C6.54798 101.522 8.66993 102.51 11.8529 102.51C17.7065 102.51 25.5724 99.0314 30.2919 96.9807C31.3529 96.5047 32.3041 96.1018 32.9992 95.8089C40.5358 92.806 47.1943 89.437 53.3773 85.5553C72.6577 73.4707 88.4992 56.1128 98.048 36.7408C101.524 29.6731 104.67 22.7153 104.816 15.7209C104.889 12.4617 103.975 9.75186 102.182 7.92086C100.755 6.38282 98.6334 5.54055 96.3285 5.54055Z" fill="#E2C2C6"/>
<path d="M50.0121 96.3951L45.7316 99.5078C45.7316 99.5078 45.073 120.015 53.3779 123.64C61.6828 127.229 74.1584 124.19 85.2438 111.446C96.3291 98.7022 105.036 85.1894 110.012 72.4822C117.878 52.3779 112.61 37.2538 112.61 37.2538C112.61 37.2538 86.2682 83.2119 50.0121 96.3951Z" fill="#E2C2C6"/>
<path d="M60.4395 125.618C57.8054 125.618 55.3542 125.142 53.1224 124.153C44.5615 120.454 45.1102 100.35 45.1468 99.5077C45.1468 99.3246 45.22 99.1781 45.3663 99.0682L49.6468 95.9555C49.6834 95.9189 49.72 95.8823 49.7932 95.8823C85.4639 82.9188 111.842 37.4001 112.098 36.9241C112.208 36.741 112.391 36.6311 112.647 36.6311C112.866 36.6677 113.049 36.7776 113.122 36.9973C113.196 37.1438 118.391 52.5608 110.525 72.6286C105.622 85.1526 97.0249 98.702 85.6468 111.775C78.0371 120.564 68.8542 125.618 60.4395 125.618ZM46.2444 99.8006C46.2078 102.218 46.2078 119.942 53.5615 123.128C55.6468 124.043 57.9517 124.483 60.4395 124.483C68.5249 124.483 77.3785 119.575 84.8054 111.043C96.0737 98.0795 104.598 84.64 109.464 72.2258C115.903 55.7101 113.415 42.5269 112.391 38.572C108.074 45.6763 83.1224 84.8597 50.2322 96.871L46.2444 99.8006Z" fill="#E2C2C6"/>
<path d="M112.574 37.2167C112.574 37.2167 86.2688 83.2115 49.9761 96.3947L46.2078 99.1046C45.8054 102.217 47.5249 104.854 50.3054 106.136C54.2566 107.967 57.1469 106.831 60.8786 105.22C65.0127 103.426 70.8664 101.412 72.3298 107.454C73.6835 112.947 72.9152 119.355 68.8542 123.384C74.1957 121.406 79.8664 117.524 85.1713 111.409C96.2566 98.6651 104.964 85.1523 109.94 72.4452C117.879 52.3408 112.574 37.2167 112.574 37.2167Z" fill="#E2C2C6"/>
<path d="M112.574 37.2168C111.659 35.3858 110.049 34.214 107.305 34.6534C100.537 35.8253 97.1712 43.8084 94.6102 49.3014C91.1346 56.8818 87.1102 63.51 81.2565 69.6255C75.3297 75.8143 68.5614 80.4651 61.3175 84.8961C56.3053 87.9356 49.8663 90.7187 46.7931 95.9553C44.7078 99.5075 45.4029 104.048 49.9029 104.927C54.3297 105.806 59.7078 102.474 63.5492 100.643C81.5126 92.1102 94.976 80.758 105.769 64.279C108.915 59.4818 112.72 50.2169 113.452 44.431C113.708 42.2338 113.635 39.3042 112.574 37.2168Z" fill="#E2C2C6"/>
<path d="M51.4394 105.66C50.854 105.66 50.3052 105.623 49.7931 105.513C47.2687 105.037 46.1345 103.536 45.6223 102.401C44.7443 100.46 45.0004 97.9329 46.3174 95.6991C48.8418 91.3413 53.7077 88.6314 57.9516 86.2145C59.0126 85.6286 60.037 85.0427 61.0248 84.4201C67.3174 80.6116 74.5613 75.8144 80.854 69.2228C86.1589 63.6566 90.2565 57.4678 94.0979 49.0818L94.4272 48.386C96.9516 42.8564 100.391 35.2761 107.195 34.1042C109.866 33.6282 111.915 34.6535 113.086 36.9606C114.403 39.6338 114.147 43.1494 114 44.5409C113.269 50.51 109.317 59.9213 106.244 64.6453C95.5979 80.9046 82.1345 92.5131 63.8052 101.192C63.1833 101.485 62.5248 101.815 61.793 102.181C58.7199 103.719 54.915 105.66 51.4394 105.66ZM108.476 35.1296C108.147 35.1296 107.781 35.1662 107.415 35.2394C101.195 36.3014 97.9028 43.5888 95.4882 48.8621L95.1223 49.5579C91.2443 58.0537 87.0735 64.389 81.6955 70.0285C75.2931 76.7299 67.976 81.5271 61.6101 85.4089C60.6223 85.9948 59.5613 86.6173 58.5004 87.2032C54.1467 89.6568 49.6833 92.1836 47.2687 96.285C46.1711 98.1892 45.915 100.386 46.6467 101.961C47.2321 103.243 48.4028 104.122 50.0126 104.415C50.4516 104.488 50.9272 104.561 51.4394 104.561C54.6589 104.561 58.1711 102.767 61.2809 101.192C61.976 100.826 62.6711 100.496 63.293 100.203C81.4028 91.6343 94.7565 80.1356 105.293 64.0594C108.293 59.4453 112.171 50.2536 112.866 44.4311C113.195 41.7578 112.903 39.1578 112.061 37.4733C111.293 35.8986 110.122 35.1296 108.476 35.1296Z" fill="#E2C2C6"/>
<path d="M83.4875 100.423L81.1826 100.057C81.1826 100.057 82.0241 113.826 88.0241 118.513C94.0241 123.201 104.561 119.246 110.817 104.158C117.073 89.0707 126.585 67.3917 124.756 56.0395C124.792 56.0028 100.097 94.4905 83.4875 100.423Z" fill="#E2C2C6"/>
<path d="M93.548 120.894C91.3894 120.894 89.3772 120.198 87.7309 118.916C81.5846 114.119 80.7065 100.643 80.6699 100.057C80.6699 99.8737 80.7431 99.7273 80.8529 99.6174C80.9626 99.5076 81.1455 99.4709 81.3285 99.4709L83.487 99.8005C99.7309 93.8681 124.133 56.0396 124.353 55.6734C124.463 55.4903 124.719 55.3804 124.938 55.4171C125.158 55.4537 125.341 55.6368 125.377 55.8565C127.097 66.5862 119.121 85.7018 112.719 101.046L111.365 104.268C106.28 116.572 98.8163 120.894 93.548 120.894ZM81.8041 100.716C82.0602 103.536 83.4138 114.156 88.3894 118.037C89.8529 119.173 91.6089 119.795 93.5114 119.795C98.4504 119.795 105.438 115.62 110.304 103.939L111.658 100.716C117.365 86.9835 125.121 68.3805 124.389 57.6509C119.853 64.5354 98.7431 95.5892 83.6699 100.972C83.5968 101.009 83.487 101.009 83.3772 101.009L81.8041 100.716Z" fill="#E2C2C6"/>
<path d="M124.791 56.0028C124.791 56.0028 100.133 94.4904 83.4863 100.386L81.6936 100.093C81.7302 101.229 81.9131 102.327 82.4619 103.279C84.5473 107.051 88.1326 106.355 91.7546 106.722C95.3765 107.088 97.4619 110.054 98.0473 113.423C98.4497 115.584 97.9375 117.927 96.8399 119.758C101.779 118.184 107.047 113.167 110.816 104.085C117.072 89.0341 126.584 67.355 124.791 56.0028Z" fill="#E2C2C6"/>
<path d="M124.536 55.3436C122.889 51.6084 117.292 52.2309 113.963 56.076C109.792 60.9099 108.658 68.0508 105.877 73.6903C103.243 79.0734 98.5236 83.5777 93.731 87.0932C89.3407 90.2791 82.9017 94.344 81.2553 99.544C81.0724 101.998 82.17 104.231 85.5358 104.891C91.2066 106.062 98.6334 98.5186 102.292 95.1862C107.853 90.096 111.658 86.7636 115.755 80.465C119.487 74.7156 123.658 66.5494 124.829 59.6648C125.158 57.8338 125.011 56.4056 124.536 55.3436Z" fill="#E2C2C6"/>
<path d="M86.7796 105.586C86.304 105.586 85.865 105.55 85.426 105.44C82.2065 104.781 80.487 102.62 80.7065 99.5073C80.7065 99.4707 80.7065 99.4341 80.743 99.3975C82.243 94.6369 87.5113 90.865 91.7552 87.8256C92.3406 87.4227 92.8894 87.0199 93.4016 86.6537C99.0723 82.5156 103.097 78.0846 105.365 73.4705C106.353 71.4564 107.158 69.2226 107.926 67.0254C109.353 63.0338 110.78 58.9324 113.524 55.7464C115.353 53.6225 117.987 52.3041 120.402 52.3041C122.56 52.3041 124.243 53.3295 125.011 55.1239C125.56 56.369 125.67 57.907 125.377 59.738C123.877 68.4536 117.987 78.048 116.231 80.7579C112.353 86.727 108.731 90.0594 103.682 94.6735L102.658 95.6256C102.328 95.9186 101.999 96.2115 101.633 96.5777C98.0113 99.9468 91.9382 105.586 86.7796 105.586ZM81.8406 99.6538C81.7309 101.448 82.3162 103.682 85.6821 104.378C86.0479 104.451 86.4138 104.488 86.7796 104.488C91.5357 104.488 97.3894 99.0313 100.902 95.7355C101.267 95.4059 101.597 95.0763 101.926 94.7834L102.95 93.8312C107.926 89.2904 111.511 86.0312 115.316 80.1354C117.072 77.4621 122.853 68.0141 124.316 59.5183C124.572 57.907 124.499 56.5521 124.024 55.5267C123.402 54.1351 122.121 53.3661 120.402 53.3661C118.316 53.3661 116.011 54.538 114.365 56.4056C111.767 59.445 110.341 63.4366 108.95 67.355C108.182 69.5522 107.377 71.8592 106.353 73.9099C104.011 78.6705 99.8772 83.2481 94.0235 87.496C93.5113 87.8988 92.926 88.265 92.3772 88.7044C88.3162 91.634 83.2309 95.296 81.8406 99.6538Z" fill="#E2C2C6"/>
<path d="M135 72.7748L141.987 69.3325C141.987 69.3325 140.158 87.6059 138.256 92.3299C136.353 97.0539 128.743 116.023 118.573 118.074C108.402 120.124 102.439 112.471 105.365 101.888C108.292 91.3411 135 72.7748 135 72.7748Z" fill="#E2C2C6"/>
<path d="M115.39 118.989C111.658 118.989 108.512 117.525 106.5 114.888C104.012 111.629 103.427 106.978 104.853 101.778C107.78 91.1215 133.573 73.1044 134.67 72.3354L141.731 68.8565C141.914 68.7833 142.134 68.7833 142.28 68.8931C142.463 69.003 142.536 69.2227 142.5 69.4058C142.427 70.1382 140.634 87.8257 138.731 92.5863C130.829 112.398 123.439 117.708 118.646 118.696C117.585 118.879 116.451 118.989 115.39 118.989ZM141.329 70.2847L135.256 73.2875C135.073 73.434 108.768 91.8173 105.951 102.071C104.634 106.831 105.146 111.262 107.414 114.229C109.756 117.341 113.78 118.55 118.536 117.561C123.073 116.646 130.097 111.482 137.78 92.1468C139.317 88.1553 140.89 74.1664 141.329 70.2847Z" fill="#E2C2C6"/>
<path d="M134.999 72.7749C134.999 72.7749 108.292 91.3412 105.402 101.924C104.816 104.012 104.597 105.953 104.706 107.747C105.072 109.248 105.694 110.677 106.536 111.885C107.633 113.423 109.389 114.961 111.475 114.448C113.67 113.899 114.475 112.398 115.938 110.933C117.658 109.212 119.158 109.944 120.182 111.995C120.95 113.533 121.097 115.547 120.767 117.415C129.877 113.423 136.536 96.761 138.292 92.3666C140.194 87.6426 142.024 69.3692 142.024 69.3692L134.999 72.7749Z" fill="#E2C2C6"/>
<path d="M120.183 93.5387C122.232 88.5218 125.268 84.4936 129.768 81.3809C134.085 78.4147 142.756 75.0456 141.988 69.2963C141.878 68.9301 141.768 68.6005 141.658 68.3075C140.378 67.392 138.695 66.916 137.012 67.0258C133.573 67.2089 130.5 68.9667 127.719 70.8709C121.756 75.009 116.671 80.5386 112.793 86.6908C109.866 91.3049 106.829 96.6148 105.402 101.888C104.707 104.451 104.012 107.894 105.695 110.274C106.719 111.702 108.732 113.497 110.671 112.764C114.146 111.409 115.793 106.466 116.927 103.28C118.097 100.094 118.902 96.688 120.183 93.5387Z" fill="#E2C2C6"/>
<path d="M109.72 113.496C107.488 113.496 105.732 111.263 105.257 110.604C103.464 108.113 104.086 104.561 104.854 101.741C106.354 96.1752 109.647 90.609 112.318 86.3977C116.379 79.9892 121.574 74.4962 127.391 70.4313C129.879 68.7102 133.244 66.6595 136.94 66.4764C138.769 66.3665 140.598 66.8792 141.952 67.8679C142.025 67.9412 142.098 68.0144 142.135 68.0877C142.281 68.4172 142.391 68.7834 142.5 69.1496C143.159 74.13 137.671 77.3159 133.244 79.8793C132.074 80.5751 130.976 81.1976 130.061 81.8202C125.854 84.7131 122.781 88.5949 120.696 93.7217C119.964 95.516 119.379 97.3837 118.83 99.2147C118.391 100.606 117.952 102.034 117.44 103.426L117.257 103.939C116.049 107.308 114.366 111.885 110.854 113.24C110.488 113.423 110.086 113.496 109.72 113.496ZM137.415 67.575C137.269 67.575 137.159 67.575 137.013 67.575C133.574 67.7581 130.537 69.5891 128.013 71.3468C122.305 75.3018 117.22 80.7216 113.232 86.9836C110.598 91.1583 107.379 96.6147 105.915 102.034C105.22 104.598 104.598 107.82 106.135 109.944C106.94 111.08 108.366 112.361 109.72 112.361C109.976 112.361 110.232 112.325 110.452 112.215C113.525 111.043 115.061 106.722 116.232 103.536L116.415 103.023C116.927 101.668 117.366 100.24 117.769 98.8485C118.354 96.9809 118.94 95.0766 119.671 93.2456C121.866 87.9357 125.049 83.8709 129.44 80.868C130.391 80.2089 131.488 79.5497 132.696 78.8539C137.049 76.3272 141.988 73.4708 141.44 69.2961C141.366 69.0764 141.293 68.8201 141.183 68.5637C140.122 67.9778 138.805 67.575 137.415 67.575Z" fill="#E2C2C6"/>
<path d="M125.706 99.2512L123.145 102.217C123.145 102.217 120.62 114.119 125.706 115.84C130.791 117.561 137.011 103.462 138.145 98.2991C139.279 93.099 138.511 90.0596 138.511 90.0596L125.706 99.2512Z" fill="#E2C2C6"/>
<path d="M126.585 116.573C126.219 116.573 125.853 116.499 125.524 116.389C120.036 114.522 122.487 102.62 122.597 102.108C122.633 101.998 122.67 101.925 122.707 101.851L125.268 98.8851C125.304 98.8484 125.341 98.8118 125.377 98.8118L138.182 89.6202C138.329 89.5103 138.511 89.4737 138.694 89.547C138.877 89.6202 138.987 89.7667 139.06 89.9498C139.097 90.0963 139.829 93.209 138.694 98.4456C137.78 102.657 132.219 116.573 126.585 116.573ZM123.658 102.474C122.999 105.733 122.158 114.046 125.89 115.327C126.109 115.401 126.365 115.437 126.585 115.437C130.975 115.437 136.499 103.17 137.597 98.1893C138.329 94.747 138.255 92.2568 138.109 91.0484L126.109 99.6907L123.658 102.474Z" fill="#E2C2C6"/>
<path d="M138.512 90.0596L125.707 99.2512L123.146 102.217C123.146 102.217 123.109 102.401 123.036 102.73C123.329 104.598 124.609 107.088 126.914 106.246C128.597 105.623 131.158 103.353 132.768 105.11C133.829 106.282 133.573 108.406 133.134 110.091C135.585 106.063 137.561 100.972 138.146 98.2625C139.243 93.1357 138.512 90.0596 138.512 90.0596Z" fill="#E2C2C6"/>
<path d="M138.512 90.0595C137.926 85.7017 132.951 85.775 130.134 87.9722C127.792 89.8032 125.926 92.5863 124.865 95.4426C124.682 95.9187 124.499 96.5046 124.39 97.0539C123.329 99.361 122.121 103.646 124.646 105.184C127.609 107.015 131.341 103.353 132.987 101.265C134.451 99.361 135.658 97.3835 136.829 95.3328C137.817 93.6482 138.804 92.1835 138.512 90.0595Z" fill="#E2C2C6"/>
<path d="M126.401 106.282C125.67 106.282 124.975 106.099 124.353 105.696C121.755 104.085 122.45 99.947 123.84 96.9076C123.95 96.3583 124.133 95.8456 124.353 95.2963C125.523 92.2202 127.499 89.4005 129.804 87.6061C131.084 86.5807 132.804 85.9948 134.377 85.9948C136.975 85.9948 138.731 87.4962 139.097 90.023C139.389 92.147 138.511 93.6484 137.597 95.2231L137.304 95.6991C136.206 97.64 134.962 99.6907 133.426 101.705C132.804 102.401 129.658 106.282 126.401 106.282ZM134.34 87.0568C132.987 87.0568 131.56 87.5695 130.462 88.4117C128.304 90.0963 126.475 92.7329 125.377 95.6259C125.194 96.1386 125.011 96.6512 124.901 97.1639C124.901 97.2005 124.865 97.2372 124.865 97.2738C123.877 99.3977 122.779 103.389 124.901 104.708C125.34 105.001 125.853 105.11 126.365 105.11C128.487 105.11 130.975 102.84 132.475 100.899C133.975 98.9583 135.182 96.9442 136.279 95.04L136.572 94.5639C137.414 93.0991 138.182 91.8174 137.926 90.0963C137.597 87.3498 135.328 87.0568 134.34 87.0568Z" fill="#E2C2C6"/>
<path d="M99.8063 110.384C101.27 112.141 100.831 114.888 98.8917 116.499C96.9161 118.147 94.1356 118.037 92.7088 116.279C91.2454 114.522 91.6844 111.775 93.6234 110.127C95.5624 108.516 98.3429 108.626 99.8063 110.384Z" fill="#AF697A"/>
<path d="M95.7446 118.22C94.3544 118.22 93.0739 117.635 92.2324 116.646C90.5861 114.668 91.0251 111.556 93.2202 109.725C94.208 108.882 95.4519 108.443 96.6958 108.443C98.0861 108.443 99.3665 109.029 100.208 110.018C101.013 111.006 101.342 112.251 101.159 113.57C100.976 114.851 100.281 116.06 99.2202 116.939C98.2324 117.744 96.9885 118.22 95.7446 118.22ZM96.7324 109.541C95.7446 109.541 94.7568 109.908 93.9519 110.567C92.2324 111.995 91.83 114.412 93.1105 115.913C93.7324 116.682 94.6836 117.085 95.7446 117.085C96.7324 117.085 97.7202 116.719 98.5251 116.06C99.3665 115.364 99.9153 114.412 100.062 113.387C100.208 112.398 99.9519 111.446 99.3665 110.713C98.7446 109.944 97.7934 109.541 96.7324 109.541Z" fill="#7F354B"/>
<path d="M96.5126 111.702C97.1346 112.434 96.9517 113.606 96.1102 114.302C95.2687 114.998 94.098 114.961 93.4761 114.192C92.8541 113.46 93.037 112.288 93.8785 111.592C94.72 110.896 95.8907 110.97 96.5126 111.702Z" fill="#E2CECF"/>
<path d="M78.2195 110.457C79.4268 111.922 79.0976 114.229 77.4512 115.62C75.8049 116.975 73.4634 116.902 72.2561 115.437C71.0488 113.972 71.3781 111.665 73.0244 110.274C74.6707 108.919 76.9756 108.992 78.2195 110.457Z" fill="#AF697A"/>
<path d="M74.817 117.158C73.6097 117.158 72.5487 116.646 71.817 115.803C70.3902 114.082 70.7926 111.446 72.6585 109.871C73.4999 109.175 74.5609 108.772 75.6585 108.772C76.8658 108.772 77.9268 109.285 78.6585 110.127C79.3536 110.97 79.6463 112.032 79.4633 113.167C79.2804 114.265 78.6951 115.291 77.817 116.06C76.939 116.755 75.878 117.158 74.817 117.158ZM75.6219 109.871C74.817 109.871 74.0121 110.164 73.3536 110.713C71.9268 111.885 71.6341 113.863 72.6585 115.071C73.6463 116.279 75.6951 116.316 77.0853 115.181C77.7804 114.595 78.2194 113.826 78.3658 112.984C78.4755 112.178 78.2926 111.409 77.817 110.823C77.2682 110.201 76.4999 109.871 75.6219 109.871Z" fill="#7F354B"/>
<path d="M75.4396 111.592C75.9518 112.215 75.8054 113.203 75.1103 113.789C74.4152 114.375 73.4274 114.339 72.9152 113.716C72.403 113.093 72.5493 112.105 73.2445 111.519C73.9396 110.933 74.9274 110.97 75.4396 111.592Z" fill="#E2CECF"/>
<path d="M147.146 97.3467C148.537 99.0312 147.549 103.206 145.903 105C143.305 107.857 139.646 105.074 139.244 103.059C138.805 100.935 139.354 98.665 141.22 97.127C143.085 95.589 145.72 95.6988 147.146 97.3467Z" fill="#AF697A"/>
<path d="M143.305 106.831C141.11 106.831 138.988 104.891 138.659 103.206C138.147 100.679 138.915 98.299 140.854 96.7243C141.805 95.9187 143.013 95.4792 144.22 95.4792C145.537 95.4792 146.781 96.0286 147.586 97.0173C149.269 99.0314 148.025 103.536 146.305 105.403C145.464 106.319 144.439 106.831 143.305 106.831ZM144.183 96.5778C143.232 96.5778 142.317 96.944 141.549 97.5666C139.976 98.8849 139.317 100.862 139.757 102.986C139.976 104.085 141.586 105.696 143.305 105.696C144.11 105.696 144.842 105.33 145.464 104.671C146.964 103.023 147.878 99.1413 146.708 97.7131C146.086 96.9807 145.208 96.5778 144.183 96.5778Z" fill="#7F354B"/>
<path d="M147.147 97.3467C148.537 99.0312 143.415 104.341 140.306 103.023C138.293 102.181 139.318 98.7017 141.184 97.127C143.086 95.589 145.72 95.6988 147.147 97.3467Z" fill="#AF697A"/>
<path d="M141.367 103.792C140.891 103.792 140.489 103.719 140.086 103.536C139.318 103.206 138.806 102.547 138.696 101.631C138.476 100.057 139.391 97.9328 140.855 96.7243C141.806 95.9187 143.013 95.4792 144.22 95.4792C145.537 95.4792 146.781 96.0286 147.586 97.0173C148.062 97.6032 148.062 98.4455 147.623 99.3976C146.598 101.448 143.745 103.792 141.367 103.792ZM144.184 96.5778C143.233 96.5778 142.318 96.944 141.55 97.5666C140.415 98.5187 139.611 100.276 139.794 101.448C139.867 101.961 140.123 102.291 140.525 102.474C140.781 102.584 141.074 102.657 141.367 102.657C143.269 102.657 145.757 100.606 146.562 98.8849C146.818 98.3356 146.855 97.8962 146.672 97.6765C146.086 96.9807 145.208 96.5778 144.184 96.5778Z" fill="#7F354B"/>
<path d="M19.4996 37.8028C19.0606 37.8028 18.4752 37.7296 18.2557 37.3268C17.9631 36.7775 18.0728 35.4592 19.3533 33.3352C21.2191 30.1859 25.3533 25.4253 29.0118 25.0957C29.1948 25.0957 29.4143 25.0591 29.5972 25.0591C30.9874 25.0591 32.1216 25.4619 32.4874 26.0478C34.0972 28.7943 29.7801 32.7493 27.9874 34.0676C26.5606 35.093 24.8045 36.0817 22.8655 36.924C21.1826 37.6564 20.1216 37.8028 19.4996 37.8028Z" fill="#BB667B"/>
<path d="M26.8169 30.3688C24.9145 31.797 21.1096 34.7266 20.8169 37.6195C21.3657 37.4731 22.0608 37.2533 22.9023 36.9238C24.8413 36.0815 26.5974 35.0928 28.0242 34.0674C29.6706 32.8589 33.512 29.38 32.7803 26.7068C30.5852 27.6589 28.4632 29.1237 26.8169 30.3688Z" fill="#AD536D"/>
<path d="M29.5974 26.1941C30.8047 26.1941 31.4266 26.5237 31.5364 26.6335C32.4876 28.2448 29.7071 31.4674 27.3657 33.1885C26.012 34.1772 24.2925 35.0927 22.4632 35.8984C20.8535 36.5942 19.9022 36.704 19.4998 36.704C19.39 36.704 19.3169 36.704 19.2437 36.704C19.2437 36.3378 19.4266 35.4223 20.3047 33.9575C22.4266 30.4054 26.2315 26.5237 29.1218 26.2307C29.2681 26.1941 29.451 26.1941 29.5974 26.1941ZM29.5974 23.9603C29.3413 23.9603 29.1217 23.9603 28.9022 23.9969C24.6949 24.3997 20.3778 29.4533 18.3657 32.7857C16.1339 36.5576 16.7193 38.9012 19.4632 38.9012C20.451 38.9012 21.7315 38.5717 23.2681 37.9125C25.0974 37.1069 26.9998 36.1181 28.6096 34.9463C31.0974 33.1519 35.3778 28.8307 33.4022 25.4617C32.7437 24.3265 30.9876 23.9603 29.5974 23.9603Z" fill="white"/>
<path d="M23.159 55.1609C21.7687 55.1609 19.9395 54.7214 19.0614 52.5609C17.4517 48.7158 21.3663 45.3833 25.8663 42.0509C26.2322 41.7946 26.5614 41.5382 26.8907 41.2819C28.3907 40.1467 30.037 38.9016 31.6834 37.7298L32.6346 37.034C36.037 34.5804 39.5492 32.0537 43.2444 30.0029C43.8297 29.6734 44.4517 29.2705 45.1102 28.8677C47.1224 27.586 49.3541 26.1578 51.4029 26.1578C51.8419 26.1578 52.2809 26.2311 52.6834 26.3776C53.7078 26.7438 54.22 27.4029 54.2931 28.4283C54.3297 29.1241 54.1834 29.9663 53.8175 30.8818C50.8907 38.6453 41.7078 49.558 25.5005 54.7581C24.6956 55.0144 23.9273 55.1609 23.159 55.1609Z" fill="#BB667B"/>
<path d="M45.9879 34.7632C43.244 38.059 40.683 41.5013 37.1708 44.0281C33.4391 46.7379 29.6708 47.9464 25.2806 49.1182C23.0489 49.7408 19.7562 50.5098 19.3538 53.1831C20.305 54.7943 21.9147 55.1605 23.1221 55.1605C23.8903 55.1605 24.6586 55.0141 25.4635 54.7577C41.6708 49.5577 50.8538 38.6449 53.7806 30.8815C54.0733 30.0758 54.2562 29.3068 54.2196 28.6477C51.2562 28.4279 47.5977 32.8223 45.9879 34.7632Z" fill="#AD536D"/>
<path d="M51.403 27.2929C51.7322 27.2929 52.0249 27.3295 52.281 27.4394C52.9761 27.6957 53.1225 27.9887 53.1591 28.538C53.1956 29.0507 53.0493 29.7464 52.7566 30.5155C48.5127 41.7944 35.8176 50.2903 25.1713 53.7326C24.4761 53.9523 23.781 54.0621 23.1591 54.0621C20.8908 54.0621 20.2688 52.634 20.0859 52.1579C18.8054 49.0452 22.3908 46.0423 26.5249 42.9663C26.8908 42.7099 27.22 42.4536 27.5493 42.1973C29.0493 41.062 30.6956 39.817 32.3054 38.6451L33.2566 37.9493C36.6225 35.5324 40.1347 33.0056 43.7566 30.9915C44.3786 30.6619 45.0005 30.2591 45.6956 29.8197C47.5615 28.6112 49.6834 27.2929 51.403 27.2929ZM51.403 25.0591C48.3298 25.0591 45.0737 27.7323 42.6956 29.0507C38.5981 31.3211 34.8298 34.1042 30.9883 36.8507C29.342 38.0226 27.7688 39.231 26.1591 40.4395C22.5371 43.186 15.7322 47.5804 18.0005 53.0368C18.9883 55.3805 20.9639 56.3326 23.1591 56.3326C24.0371 56.3326 24.9517 56.1861 25.8664 55.8931C37.5005 52.1579 50.4152 43.2226 54.8786 31.3211C55.2444 30.369 55.4639 29.3436 55.3908 28.4281C55.3176 27.1098 54.6591 25.9746 53.0859 25.3887C52.5371 25.1323 51.9517 25.0591 51.403 25.0591Z" fill="white"/>
<path d="M21.4757 74.4961C21.1465 74.4961 20.8538 74.4961 20.5245 74.4595C18.9879 74.3862 18.0001 73.7637 17.6343 72.7017C17.0855 71.0538 17.9635 68.5637 19.6099 67.1355C23.927 63.4002 28.1709 60.9101 32.6709 58.2734C35.4879 56.6255 38.4148 54.9044 41.4514 52.8171C51.7684 45.7494 54.6953 40.0733 58.7196 32.2C59.1587 31.3211 59.6343 30.4422 60.1099 29.5267C61.6099 26.6704 66.5123 21.4703 70.1343 21.4703C70.866 21.4703 71.4879 21.6901 72.0367 22.1295C74.7806 24.2901 74.2318 29.4169 73.6465 32.2732C70.3538 48.386 50.4514 61.2397 42.0367 66.0369C41.0489 66.5862 40.0245 67.2087 39.0001 67.7947C33.4757 71.0905 27.7318 74.4961 21.4757 74.4961Z" fill="#BB667B"/>
<path d="M72.6213 25.7914C71.6701 26.3041 70.9018 27.0731 70.2433 27.8788C68.7799 29.6731 67.5726 31.6872 66.4384 33.7013C63.5848 38.8648 61.3165 44.0282 57.4018 48.5324C52.0238 54.6846 45.7677 59.2987 38.5604 63.1072C34.7921 65.0847 30.9506 66.9157 27.2555 69.0397C24.8774 70.3946 21.7677 72.0425 20.3774 74.4594C20.414 74.4594 20.4506 74.4594 20.5238 74.496C20.8531 74.496 21.1457 74.5327 21.475 74.5327C27.7311 74.5327 33.475 71.127 38.9994 67.8312C40.0238 67.2087 41.0116 66.6227 42.036 66.0734C50.4506 61.2762 70.3531 48.4226 73.6457 32.3098C74.0116 30.5886 74.3409 28.0252 73.9384 25.7914C73.5726 25.5351 73.1335 25.4985 72.6213 25.7914Z" fill="#AD536D"/>
<path d="M70.1339 22.5688C70.6095 22.5688 70.9753 22.7153 71.3412 22.9716C73.7192 24.8392 72.9875 29.9294 72.5485 32.0167C69.329 47.6901 49.7558 60.324 41.4875 65.048C40.4997 65.5973 39.4753 66.2198 38.4509 66.8424C33.0363 70.0649 27.4387 73.3974 21.4753 73.3974C21.1826 73.3974 20.89 73.3974 20.5973 73.3608C18.9875 73.2875 18.768 72.5917 18.6948 72.3354C18.2924 71.1269 19.0607 69.1128 20.3412 67.9776C24.5851 64.3156 28.7924 61.8621 33.2558 59.2254C36.1095 57.5775 39.0363 55.8564 42.1095 53.7324C52.6461 46.5183 55.7924 40.4027 59.7436 32.7125C60.1827 31.8703 60.6583 30.9548 61.1339 30.0393C62.4509 27.4392 67.0973 22.5688 70.1339 22.5688ZM70.1339 20.335C65.89 20.335 60.6948 26.0111 59.1217 29.0139C54.329 38.1689 52.0241 44.2112 40.829 51.9014C32.9631 57.2846 26.0485 60.1043 18.8778 66.2931C15.6948 69.0396 14.8168 75.265 20.4509 75.558C20.7802 75.558 21.1461 75.5946 21.4753 75.5946C29.2314 75.5946 36.1461 70.6509 42.5851 66.9889C55.0241 59.9212 71.6705 47.4338 74.707 32.4562C75.3656 29.2702 75.951 23.7772 72.6949 21.2138C71.9266 20.6279 71.0485 20.335 70.1339 20.335Z" fill="white"/>
<path d="M11.8901 101.998C8.92667 101.998 6.95106 101.082 5.89009 99.2148C4.93887 97.5303 4.71935 95.9556 5.23155 94.381C6.76813 89.6204 14.634 85.9584 17.9998 84.4203C21.073 82.9921 24.1828 81.6738 27.2194 80.4287C33.9145 77.609 40.8657 74.6794 47.4145 70.5047C66.4389 58.3835 77.7072 44.7242 81.8413 28.7213C82.2803 27.0734 82.6096 25.279 82.9389 23.5578C83.8169 18.9437 84.7315 14.1831 87.4023 10.8507C89.8169 7.84785 93.073 6.09009 96.3657 6.09009C98.5242 6.09009 100.5 6.89573 101.89 8.32391C103.573 10.0451 104.414 12.6085 104.341 15.7212C104.195 22.6057 101.085 29.4903 97.6096 36.5213C88.134 55.8201 72.3291 73.0681 53.1584 85.1161C47.012 88.9612 40.3535 92.3302 32.8535 95.3331C32.1218 95.626 31.2072 96.0289 30.1462 96.5049C25.4633 98.5556 17.634 101.998 11.8901 101.998Z" fill="#BB667B"/>
<path d="M96.3292 13.487C92.8902 15.5012 91.4633 19.2364 90.9146 22.9716C89.9633 29.5632 88.5365 35.7886 85.6828 41.8676C79.7926 54.4282 69.9145 64.279 58.6463 72.1157C47.1219 80.0989 34.317 85.5552 22.2804 92.5863C19.3536 94.3074 16.5365 96.3581 14.0121 98.592C13.1341 99.361 11.7438 100.643 10.9023 101.888C11.2316 101.924 11.5609 101.924 11.8901 101.924C17.6341 101.924 25.4633 98.4821 30.1097 96.4314C31.2072 95.9553 32.1219 95.5525 32.817 95.2595C40.317 92.2567 46.9755 88.9243 53.1219 85.0426C72.3292 72.9946 88.0975 55.7465 97.5731 36.4478C101.012 29.4168 104.122 22.5688 104.305 15.6476C104.305 15.2814 104.305 14.9519 104.305 14.5857C101.927 13.0476 98.9267 11.949 96.3292 13.487Z" fill="#AD536D"/>
<path d="M96.3292 7.22515C98.195 7.22515 99.8779 7.88431 101.049 9.1294C102.512 10.6308 103.244 12.9013 103.171 15.721C103.024 22.3858 99.9511 29.1239 96.5487 36.0451C87.1462 55.1608 71.5243 72.2623 52.4999 84.2004C46.3901 88.0455 39.8048 91.3413 32.3779 94.3075C31.6462 94.6005 30.695 95.0033 29.634 95.4794C25.0609 97.4935 17.3779 100.863 11.8536 100.863C8.45112 100.863 7.35356 99.6174 6.80477 98.6653C5.9999 97.2738 5.81697 96.0287 6.21941 94.747C7.60965 90.4258 15.1462 86.9469 18.3658 85.4455C21.4023 84.0539 24.5121 82.7356 27.5487 81.4539C34.317 78.5976 41.2682 75.668 47.9267 71.4567C67.2072 59.189 78.6218 45.31 82.8292 29.0141C83.2682 27.3295 83.5975 25.5352 83.9633 23.7774C84.8048 19.3098 85.7194 14.6956 88.2072 11.5463C90.4389 8.79981 93.4023 7.22515 96.3292 7.22515ZM96.3292 4.99133C92.9633 4.99133 89.2682 6.67585 86.5243 10.1548C82.6096 15.0618 82.2804 22.4225 80.7438 28.4648C75.9877 46.8114 62.3048 59.7016 46.7926 69.589C37.4267 75.5581 27.4755 78.8173 17.5243 83.4314C11.817 86.0314 0.255995 91.6343 4.90234 99.7639C6.29258 102.217 8.85356 103.096 11.8901 103.096C19.2072 103.096 29.3414 97.9329 33.256 96.3583C40.3901 93.5019 47.2316 90.1329 53.7438 86.068C72.4755 74.313 88.8292 56.9185 98.5975 37.0338C101.78 30.5521 105.256 23.1549 105.439 15.7576C105.622 8.65333 101.305 4.99133 96.3292 4.99133Z" fill="white"/>
<path d="M51.4396 103.975C50.964 103.975 50.525 103.939 50.1226 103.865C48.6591 103.572 47.6713 102.84 47.1591 101.705C46.5006 100.277 46.7567 98.2626 47.7811 96.5414C50.086 92.5865 54.5128 90.0963 58.7933 87.6794C59.8543 87.0568 60.9152 86.4709 61.903 85.885C68.2689 82.0033 75.6591 77.1694 82.0982 70.4314C87.5494 64.7186 91.7201 58.3834 95.6348 49.8143L95.964 49.1185C98.3421 43.9185 101.562 36.8142 107.488 35.7888C107.818 35.7156 108.147 35.7156 108.44 35.7156C109.866 35.7156 110.891 36.3747 111.586 37.7297C112.354 39.3043 112.647 41.7945 112.318 44.3579C111.623 50.1072 107.818 59.189 104.818 63.7299C94.3543 79.7328 81.0738 91.1583 63.0738 99.6908C62.4152 99.9837 61.7567 100.35 61.025 100.716C57.9884 102.254 54.5128 103.975 51.4396 103.975Z" fill="#BB667B"/>
<path d="M104.196 51.4985C101.343 57.5042 99.2938 63.3634 95.1962 68.7099C88.7572 77.1325 79.7572 83.9439 70.4645 88.8143C67.684 90.2791 64.867 91.6341 62.1231 93.0989C59.5987 94.4172 56.6353 95.7355 54.4767 97.6031C52.684 99.1778 51.0011 101.814 51.0377 103.938C51.184 103.938 51.3304 103.975 51.4767 103.975C54.5499 103.975 58.0255 102.217 61.0621 100.679C61.7938 100.313 62.4523 99.9834 63.1109 99.6538C81.1474 91.1214 94.3913 79.6959 104.855 63.693C107.855 59.1521 111.66 50.0703 112.355 44.321C112.501 43.1492 112.501 41.9773 112.428 40.9153C108.806 41.8675 105.477 48.7887 104.196 51.4985Z" fill="#AD536D"/>
<path d="M108.476 36.814C109.5 36.814 110.122 37.2168 110.598 38.2056C111.257 39.5605 111.513 41.8676 111.22 44.2113C110.561 49.631 106.793 58.6762 103.903 63.1438C93.5492 78.9637 80.4517 90.2426 62.598 98.7019C61.9395 98.9948 61.2443 99.361 60.5492 99.7272C57.5858 101.229 54.2565 102.913 51.476 102.913C51.0736 102.913 50.7078 102.877 50.3785 102.803C49.2809 102.584 48.5858 102.108 48.2199 101.302C47.7078 100.203 47.9273 98.5554 48.7687 97.1272C50.9273 93.4286 55.2077 91.0117 59.3785 88.668C60.4395 88.0821 61.5004 87.4595 62.5248 86.837C68.9639 82.9186 76.4273 78.0115 82.9395 71.2002C88.4638 65.4143 92.7078 58.9691 96.6956 50.2902L97.0248 49.5944C99.4029 44.3577 102.403 37.8394 107.744 36.9239C107.964 36.814 108.22 36.814 108.476 36.814ZM108.476 34.5802C108.11 34.5802 107.744 34.6168 107.305 34.6901C100.537 35.8619 97.1712 43.8451 94.6102 49.3381C91.1346 56.9184 87.1102 63.5466 81.2565 69.6622C75.3297 75.851 68.5614 80.5017 61.3175 84.9327C56.3053 87.9722 49.8663 90.7553 46.7931 95.992C44.7078 99.5441 45.4029 104.085 49.9029 104.964C50.4151 105.074 50.9273 105.11 51.4395 105.11C55.537 105.11 60.1468 102.327 63.5492 100.679C81.5126 92.1469 94.976 80.7947 105.769 64.3157C108.915 59.5184 112.72 50.2536 113.452 44.4676C113.744 42.2338 113.635 39.3042 112.61 37.2168C111.805 35.6788 110.525 34.5802 108.476 34.5802Z" fill="white"/>
<path d="M86.7806 103.902C86.4147 103.902 86.0854 103.865 85.7928 103.792C83.4147 103.316 82.2806 101.924 82.3903 99.7272C83.7806 95.5525 88.7562 92.0004 92.744 89.144C93.3293 88.7412 93.8781 88.3384 94.3903 87.9356C100.281 83.6144 104.488 79.0003 106.866 74.1298C107.89 72.0425 108.695 69.7354 109.5 67.5016C110.854 63.6565 112.244 59.7015 114.805 56.7353C116.342 54.9776 118.463 53.879 120.403 53.879C121.463 53.879 122.817 54.2085 123.512 55.71C123.915 56.6621 123.988 57.8705 123.732 59.372C122.781 65.0115 119.451 72.665 114.805 79.7693C111.037 85.5919 107.488 88.8511 102.512 93.3553L101.488 94.3075C101.159 94.6004 100.829 94.93 100.463 95.2596C97.061 98.5188 91.2806 103.902 86.7806 103.902Z" fill="#BB667B"/>
<path d="M115.975 68.9664C113.414 75.2284 109.756 81.7834 104.744 86.4707C100.829 90.1327 96.1826 92.9891 92.1582 96.5046C90.3655 98.0427 86.9265 100.899 85.6826 103.792C85.7192 103.792 85.7558 103.829 85.7924 103.829C86.1216 103.902 86.4509 103.938 86.7802 103.938C91.3168 103.938 97.0972 98.5553 100.536 95.3328C100.902 95.0032 101.268 94.6736 101.561 94.3807L102.585 93.4285C107.524 88.9243 111.109 85.6651 114.878 79.8425C119.487 72.7382 122.817 65.1213 123.805 59.4452C123.878 59.0057 123.914 58.6029 123.951 58.2001C120.329 57.6874 117.036 66.4396 115.975 68.9664Z" fill="#AD536D"/>
<path d="M120.439 55.0507C121.464 55.0507 122.159 55.4535 122.525 56.2226C122.854 56.955 122.89 57.9803 122.671 59.262C121.72 64.7916 118.464 72.2621 113.927 79.2566C110.232 84.9327 106.72 88.1552 101.854 92.6229L100.83 93.575C100.5 93.8679 100.171 94.1975 99.8051 94.5271C96.6954 97.4201 90.8783 102.84 86.8173 102.84C86.5612 102.84 86.2685 102.803 86.049 102.767C84.2564 102.4 83.4881 101.558 83.5612 100.02C84.9149 96.2482 89.6344 92.8792 93.4759 90.1327C94.0612 89.7299 94.61 89.3271 95.1588 88.9242C101.195 84.5298 105.512 79.7326 108 74.7157C109.061 72.5551 109.903 70.248 110.671 67.9776C112.061 64.0592 113.378 60.3606 115.756 57.5775C116.964 56.0395 118.83 55.0507 120.439 55.0507ZM120.439 52.8535C118.281 52.8535 115.793 53.9887 114 56.0761C109.83 60.9099 108.695 68.0508 105.915 73.6903C103.281 79.0735 98.5612 83.5777 93.7685 87.0932C89.3783 90.2792 82.9393 94.344 81.2929 99.544C81.11 101.998 82.2076 104.231 85.5734 104.891C85.9759 104.964 86.3783 105 86.7807 105C92.2685 105 98.9271 98.2623 102.33 95.1496C107.89 90.0595 111.695 86.727 115.793 80.4284C119.525 74.679 123.695 66.5128 124.866 59.6282C125.159 57.8338 125.012 56.4057 124.537 55.3071C123.769 53.6225 122.232 52.8535 120.439 52.8535Z" fill="white"/>
<path d="M109.72 111.849C108.659 111.849 107.378 110.75 106.61 109.651C105.22 107.711 105.805 104.671 106.464 102.218C107.927 96.871 111.11 91.4512 113.708 87.3132C117.659 81.0878 122.708 75.7412 128.342 71.8229C130.793 70.1018 133.756 68.344 137.049 68.1609C137.195 68.1609 137.305 68.1609 137.415 68.1609C138.622 68.1609 139.793 68.4905 140.744 69.0764C140.817 69.2229 140.854 69.406 140.891 69.5891C141.33 73.3243 136.61 76.0708 132.439 78.4877C131.232 79.1835 130.098 79.8427 129.147 80.5018C124.647 83.5779 121.391 87.716 119.195 93.1357C118.427 95.0034 117.842 96.9076 117.256 98.7752C116.817 100.13 116.415 101.558 115.903 102.913L115.72 103.426C114.622 106.465 113.086 110.677 110.269 111.775C110.086 111.812 109.903 111.849 109.72 111.849Z" fill="#BB667B"/>
<path d="M130.427 76.4002C125.561 80.0256 121.354 84.6397 117.805 89.5834C114.586 94.0877 111.549 99.0314 109.939 104.378C109.281 106.502 108.549 109.541 109.354 111.775C109.464 111.812 109.574 111.812 109.683 111.812C109.866 111.812 110.049 111.775 110.232 111.702C113.049 110.603 114.586 106.429 115.683 103.353L115.866 102.84C116.342 101.485 116.781 100.093 117.22 98.7018C117.805 96.8342 118.391 94.8933 119.159 93.0623C121.391 87.6425 124.647 83.5045 129.11 80.4284C130.061 79.7692 131.195 79.1101 132.403 78.4143C135.549 76.5833 138.988 74.5692 140.305 72.1157C136.756 72.2621 133.208 74.3495 130.427 76.4002Z" fill="#AD536D"/>
<path d="M137.415 69.2593C138.257 69.2593 139.098 69.4424 139.793 69.8086C139.976 72.7748 135.476 75.4114 131.854 77.4988C130.647 78.1946 129.476 78.8903 128.488 79.5495C123.805 82.7721 120.44 87.0566 118.135 92.6961C117.366 94.6003 116.744 96.5412 116.159 98.4454C115.72 99.8736 115.318 101.192 114.842 102.51L114.659 103.023C113.671 105.696 112.208 109.798 109.866 110.677C109.83 110.677 109.793 110.713 109.72 110.713C109.244 110.713 108.257 110.054 107.488 108.992C106.391 107.454 106.94 104.707 107.525 102.51C108.952 97.3102 112.062 91.9637 114.659 87.8989C118.501 81.8199 123.476 76.5833 128.964 72.7382C131.305 71.1269 134.086 69.4424 137.086 69.2593C137.196 69.2593 137.305 69.2593 137.415 69.2593ZM137.415 67.0255C137.269 67.0255 137.122 67.0255 136.976 67.0255C133.537 67.2086 130.464 68.9663 127.683 70.8706C121.72 75.0086 116.635 80.5382 112.757 86.6904C109.83 91.3045 106.793 96.6144 105.366 101.888C104.671 104.451 103.976 107.893 105.659 110.274C106.501 111.482 108.074 112.947 109.683 112.947C109.976 112.947 110.305 112.91 110.598 112.764C114.074 111.409 115.72 106.465 116.854 103.279C118.025 100.057 118.83 96.6877 120.11 93.5383C122.159 88.5214 125.196 84.4932 129.696 81.3805C134.013 78.4143 142.683 75.0452 141.915 69.2959C141.805 68.9297 141.696 68.6001 141.586 68.3071C140.488 67.4649 138.952 67.0255 137.415 67.0255Z" fill="white"/>
<path d="M126.401 104.598C125.962 104.598 125.596 104.488 125.231 104.268C123.401 103.133 124.535 99.3613 125.377 97.5303C125.413 97.4571 125.45 97.3839 125.45 97.3106C125.56 96.8346 125.706 96.3219 125.889 95.8458C126.95 93.0261 128.743 90.4993 130.792 88.8514C131.779 88.0824 133.096 87.6063 134.34 87.6063C135.584 87.6063 137.121 88.0458 137.413 90.2063C137.633 91.7444 136.974 92.8796 136.133 94.3078L135.84 94.7838C134.743 96.6515 133.572 98.6656 132.072 100.57C130.535 102.584 128.194 104.598 126.401 104.598Z" fill="#BB667B"/>
<path d="M137.268 89.6202C135.512 89.7667 133.061 92.4765 132.366 93.3188C130.866 95.1498 129.695 97.1639 128.963 99.4343C128.451 101.046 128.048 102.694 127.683 104.341C129.219 103.719 130.866 102.181 132.073 100.643C133.536 98.7386 134.744 96.7245 135.841 94.8568L136.134 94.3808C136.975 92.9526 137.634 91.8174 137.414 90.2793C137.378 89.9864 137.341 89.8033 137.268 89.6202Z" fill="#AD536D"/>
<path d="M134.341 88.7414C136.06 88.7414 136.243 89.8766 136.28 90.3527C136.426 91.4513 135.987 92.2935 135.146 93.7583L134.853 94.2344C133.792 96.0654 132.621 98.0429 131.195 99.9105C129.621 101.961 127.573 103.463 126.402 103.463C126.182 103.463 125.999 103.426 125.817 103.28C125.048 102.803 125.304 100.313 126.402 97.9696C126.475 97.8232 126.512 97.6767 126.548 97.5302C126.658 97.0908 126.804 96.6513 126.951 96.2119C127.902 93.6119 129.621 91.1949 131.524 89.7301C132.292 89.1076 133.39 88.7414 134.341 88.7414ZM134.341 86.5076C132.878 86.5076 131.304 87.0569 130.134 88.009C127.792 89.84 125.926 92.6231 124.865 95.4795C124.682 95.9555 124.499 96.5415 124.39 97.0908C123.329 99.3978 122.121 103.682 124.646 105.22C125.231 105.587 125.817 105.733 126.402 105.733C128.963 105.733 131.634 103.023 132.951 101.302C134.414 99.3978 135.621 97.4203 136.792 95.3696C137.78 93.6485 138.768 92.1837 138.512 90.0597C138.182 87.5329 136.353 86.5076 134.341 86.5076Z" fill="white"/>
<path d="M141.366 102.107C141.147 102.107 140.927 102.071 140.744 101.998C140.598 101.924 140.415 101.814 140.342 101.412C140.196 100.386 140.927 98.8482 141.915 98.006C142.574 97.4567 143.378 97.1637 144.183 97.1637C145.025 97.1637 145.757 97.4933 146.269 98.0792C146.269 98.1158 146.196 98.6651 145.5 99.544C144.403 101.009 142.61 102.107 141.366 102.107Z" fill="#BB667B"/>
<path d="M144.184 98.2625C144.367 98.2625 144.659 98.2991 144.952 98.409C144.367 99.3611 142.647 100.936 141.44 100.972C141.513 100.423 141.915 99.4343 142.61 98.8484C143.086 98.4822 143.635 98.2625 144.184 98.2625ZM144.184 96.0287C143.159 96.0287 142.098 96.3949 141.184 97.1273C139.318 98.7019 138.293 102.144 140.306 103.023C140.635 103.17 141.001 103.243 141.367 103.243C144.44 103.243 148.354 98.885 147.11 97.3836C146.415 96.4681 145.318 96.0287 144.184 96.0287Z" fill="white"/>
<path d="M22.0971 114.559C24.5849 117.561 23.8532 122.249 20.524 125.032C17.1581 127.815 12.4386 127.632 9.95079 124.666C7.46298 121.663 8.19469 116.975 11.524 114.192C14.8898 111.409 19.6459 111.556 22.0971 114.559Z" fill="#AF697A"/>
<path d="M15.1827 127.559C12.951 127.559 10.8656 126.606 9.51193 124.995C6.8412 121.773 7.57291 116.719 11.1583 113.753C12.8046 112.398 14.8168 111.629 16.829 111.629C19.0973 111.629 21.1461 112.581 22.4997 114.192C23.8168 115.767 24.329 117.818 23.9997 119.942C23.6705 122.066 22.5363 124.006 20.8168 125.435C19.2436 126.826 17.2314 127.559 15.1827 127.559ZM16.8656 112.764C15.1095 112.764 13.3168 113.423 11.89 114.595C8.78022 117.195 8.0851 121.516 10.39 124.263C11.5607 125.654 13.2436 126.423 15.1827 126.423C16.9388 126.423 18.7314 125.764 20.1583 124.556C21.6949 123.311 22.6827 121.589 22.9388 119.758C23.2314 117.927 22.7558 116.206 21.6583 114.888C20.5241 113.533 18.8046 112.764 16.8656 112.764Z" fill="#7F354B"/>
<path d="M16.4994 116.829C17.5603 118.111 17.2311 120.088 15.8408 121.26C14.414 122.432 12.4018 122.359 11.3774 121.113C10.3164 119.832 10.6457 117.854 12.036 116.682C13.4262 115.474 15.4384 115.547 16.4994 116.829Z" fill="#E2CECF"/>
<path d="M46.1339 114.009C48.1461 116.426 47.5607 120.198 44.8534 122.432C42.1461 124.665 38.3412 124.519 36.3656 122.139C34.39 119.758 34.9388 115.95 37.6461 113.716C40.3534 111.482 44.1583 111.592 46.1339 114.009Z" fill="#AF697A"/>
<path d="M40.5726 124.592C38.7433 124.592 37.0604 123.823 35.9262 122.505C33.7311 119.868 34.353 115.73 37.2799 113.313C38.6335 112.215 40.2799 111.592 41.9262 111.592C43.7555 111.592 45.475 112.361 46.5726 113.68C47.6335 114.961 48.0726 116.646 47.8165 118.403C47.5604 120.125 46.6457 121.736 45.2189 122.908C43.9018 123.97 42.2189 124.592 40.5726 124.592ZM41.9262 112.654C40.536 112.654 39.1457 113.167 37.975 114.119C35.5238 116.17 34.975 119.575 36.7677 121.736C37.6823 122.835 38.9994 123.42 40.536 123.42C41.9262 123.42 43.3165 122.908 44.4872 121.956C45.6945 120.967 46.4628 119.612 46.6823 118.147C46.9018 116.719 46.536 115.364 45.6945 114.302C44.8165 113.277 43.4628 112.654 41.9262 112.654Z" fill="#7F354B"/>
<path d="M41.6328 115.84C42.4743 116.866 42.2182 118.44 41.0841 119.392C39.9499 120.344 38.3402 120.271 37.4987 119.246C36.6572 118.22 36.9133 116.646 38.0475 115.694C39.1816 114.742 40.7914 114.815 41.6328 115.84Z" fill="#E2CECF"/>
</svg>
