<svg width="150" height="140" viewBox="0 0 150 140" fill="none" xmlns="http://www.w3.org/2000/svg">
<g filter="url(#filter0_ii_3455:418997)">
<path d="M113.624 48.2642C119.643 48.6466 129.216 49.3634 134.385 52.5535C139.614 55.7797 143.288 60.6183 139.555 65.505C135.654 70.6066 127.971 73.4384 119.631 74.7051L119.096 74.7864C110.305 76.1281 100.76 77.5835 91.3423 75.195C86.7607 74.03 81.2279 74.0406 76.2095 74.0491H76.1979C71.9022 74.0569 67.9841 74.064 65.3635 73.3309C52.7391 69.8184 44.5421 71.1686 38.9777 73.403C35.8066 74.6691 31.1039 72.3993 30.7688 69.0062C30.4099 65.505 34.4545 61.7776 37.9606 61.5741C40.9433 61.4023 43.3326 62.1643 45.8221 62.9588C49.7345 64.2065 53.8948 65.534 60.9958 63.4381C65.2073 62.1933 67.8883 63.0366 71.24 64.0913C71.7562 64.2538 72.2883 64.4214 72.8442 64.5861C73.1813 64.6865 73.5271 64.7861 73.8835 64.8837C82.6429 67.2857 87.3456 68.158 101.262 65.1587C105.655 64.215 111.211 64.895 116.054 65.4881C119.179 65.8705 122.007 66.2169 124.034 66.067C128.756 65.7178 130.48 63.9478 131.478 62.9235L131.496 62.9044C131.619 62.7793 131.731 62.6648 131.836 62.5658C134.05 60.4869 132.495 56.4364 129.766 55.0983C127.231 53.8549 124.272 54.1801 121.437 54.4911L120.791 54.5611C109.22 55.8271 97.3614 54.4296 86.3883 50.5347C84.0562 49.7069 80.5152 49.2728 77.5924 47.001C69.2174 40.4913 95.9997 47.6536 113.624 48.2642Z" fill="#EFC924"/>
<path d="M13.4535 51.419C15.8075 51.1419 18.6732 46.0219 13.7681 43.4927L13.6638 43.4849C12.3245 43.3838 10.9899 43.2828 9.64098 43.1923C8.56899 43.1202 7.48799 43.0544 6.3879 43C6.34832 43.0714 6.30732 43.1428 6.2649 43.2142C6.04895 43.5782 5.80084 43.9437 5.54954 44.3141C4.78469 45.4402 3.99263 46.6058 4.00005 47.9058C4.0361 51.6932 9.68427 51.8488 13.4535 51.419Z" fill="#EFC924"/>
<path d="M37.8528 51.6579C38.8821 50.4986 40.677 50.5347 42.2207 50.6541C46.6003 51.0005 50.98 51.3469 55.3715 51.4423C57.8248 49.8412 60.3975 48.3122 63.2455 47.6548C66.0933 46.9981 69.3243 47.3325 71.5978 49.1725C73.8715 51.0125 74.8288 54.5611 73.2254 57.0104C72.0886 58.755 69.9586 59.6266 67.8765 59.7941C66.0398 59.9419 64.2217 59.6061 62.4059 59.2703L61.6778 59.1367C56.1973 58.1457 50.6091 57.6558 45.0327 57.6791L44.8427 57.6806C42.9007 57.6933 40.8617 57.7067 39.1931 56.7114C37.4819 55.6963 36.5126 53.1508 37.8528 51.6579Z" fill="#EFC924"/>
<path d="M58.0463 77.7037C59.8771 76.9989 61.9354 77.2619 63.838 77.7277C64.3443 77.8517 64.8487 77.991 65.3535 78.1304C65.3581 78.1317 65.3627 78.1329 65.3673 78.1342L65.3811 78.1384C66.7647 78.5209 68.151 78.904 69.5819 78.9824C71.3097 79.0772 73.0149 78.7435 74.7155 78.4106C74.7173 78.4102 74.7191 78.4099 74.7209 78.4095C75.162 78.3229 75.6029 78.2364 76.0437 78.1582C78.1856 77.7758 80.4831 77.6083 82.4696 78.4926C84.468 79.3649 86.0117 81.5873 85.4612 83.6896C84.8628 85.9721 82.1823 87.0946 79.825 86.9752C78.3498 86.901 76.9307 86.4797 75.5093 86.0576C75.5039 86.056 75.4985 86.0544 75.4931 86.0528C74.6484 85.8028 73.8031 85.5525 72.9444 85.3748" fill="#EFC924"/>
<path d="M58.0463 77.7037C56.2155 78.4092 54.7197 80.3206 55.1027 82.244L58.0463 77.7037Z" fill="#EFC924"/>
<path d="M55.1027 82.244C55.3899 83.7016 56.6582 84.8248 58.0583 85.3387L55.1027 82.244Z" fill="#EFC924"/>
<path d="M58.0583 85.3387C59.4573 85.8519 60.9758 85.876 62.4739 85.9L58.0583 85.3387Z" fill="#EFC924"/>
<path d="M80.6205 96.6171C77.7845 98.6006 73.2493 97.2985 72.6629 93.4396C73.5964 91.5155 76.1332 90.5357 78.1195 91.3246C80.1061 92.1128 81.2668 94.5742 80.6205 96.6171Z" fill="#EFC924"/>
<path d="M142.869 86.0555C141.445 86.8204 139.746 86.8918 138.131 86.9398L117.453 87.5845C112.092 87.752 106.659 87.9196 101.861 85.1712C101.418 82.8293 103.428 80.6076 105.69 79.8901C107.822 79.2178 110.112 79.5126 112.333 79.7982L112.774 79.8547C121.234 80.9539 129.85 80.966 138.31 79.8901L138.474 79.8696C139.666 79.7204 140.889 79.567 142.068 79.8067C143.3 80.0576 144.509 80.8465 144.88 82.0411C145.37 83.5941 144.293 85.2907 142.869 86.0555Z" fill="#EFC924"/>
<path d="M63.838 77.7277C61.9354 77.2619 59.8771 76.9989 58.0463 77.7037C56.2155 78.4092 54.7197 80.3206 55.1027 82.244C55.3899 83.7016 56.6582 84.8248 58.0583 85.3387L62.4739 85.9L72.9444 85.3748C73.8031 85.5525 74.6484 85.8028 75.4931 86.0528L75.5093 86.0576C76.9307 86.4797 78.3498 86.901 79.825 86.9752C82.1823 87.0946 84.8628 85.9721 85.4612 83.6896C86.0117 81.5873 84.468 79.3649 82.4696 78.4926C80.4831 77.6083 78.1856 77.7758 76.0437 78.1582C75.6029 78.2364 75.162 78.3229 74.7209 78.4095L74.7155 78.4106C73.0149 78.7435 71.3097 79.0772 69.5819 78.9824C68.151 78.904 66.7647 78.5209 65.3811 78.1384L65.3673 78.1342L65.3535 78.1304C64.8487 77.991 64.3443 77.8517 63.838 77.7277Z" fill="#EFC924"/>
</g>
<defs>
<filter id="filter0_ii_3455:418997" x="4" y="40.8285" width="141" height="59.6032" filterUnits="userSpaceOnUse" color-interpolation-filters="sRGB">
<feFlood flood-opacity="0" result="BackgroundImageFix"/>
<feBlend mode="normal" in="SourceGraphic" in2="BackgroundImageFix" result="shape"/>
<feColorMatrix in="SourceAlpha" type="matrix" values="0 0 0 0 0 0 0 0 0 0 0 0 0 0 0 0 0 0 127 0" result="hardAlpha"/>
<feOffset dy="-2.89539"/>
<feGaussianBlur stdDeviation="1.08577"/>
<feComposite in2="hardAlpha" operator="arithmetic" k2="-1" k3="1"/>
<feColorMatrix type="matrix" values="0 0 0 0 0 0 0 0 0 0 0 0 0 0 0 0 0 0 0.3 0"/>
<feBlend mode="normal" in2="shape" result="effect1_innerShadow_3455:418997"/>
<feColorMatrix in="SourceAlpha" type="matrix" values="0 0 0 0 0 0 0 0 0 0 0 0 0 0 0 0 0 0 127 0" result="hardAlpha"/>
<feOffset dy="2.89539"/>
<feGaussianBlur stdDeviation="1.4477"/>
<feComposite in2="hardAlpha" operator="arithmetic" k2="-1" k3="1"/>
<feColorMatrix type="matrix" values="0 0 0 0 1 0 0 0 0 1 0 0 0 0 1 0 0 0 0.4 0"/>
<feBlend mode="normal" in2="effect1_innerShadow_3455:418997" result="effect2_innerShadow_3455:418997"/>
</filter>
</defs>
</svg>
