<svg width="150" height="140" viewBox="0 0 150 140" fill="none" xmlns="http://www.w3.org/2000/svg">
<path d="M20.0779 56.023C16.6305 61.222 13.1173 66.5755 11.7732 72.6685C10.4291 78.7614 11.7272 85.8469 16.5746 89.7741C21.1526 93.4877 27.9324 93.537 33.3155 91.1413C38.6986 88.7455 42.892 84.2859 46.4019 79.5502C46.277 81.9525 46.1619 84.4272 46.954 86.6981C47.746 88.969 49.6817 91.0164 52.0807 91.1906C53.5497 91.2957 54.9727 90.7042 56.3169 90.1028C61.2267 87.9009 65.9854 85.3671 70.5568 82.5244C73.268 80.8384 76.1075 78.791 76.9652 75.7117C77.8657 72.4877 76.2324 68.9779 73.7249 66.7596C71.2173 64.5413 67.977 63.368 64.7925 62.3394C50.3718 57.676 35.2774 54.9286 20.0779 56.023Z" fill="url(#paint0_radial)" stroke="#281F22" stroke-width="0.328638" stroke-miterlimit="10"/>
<path d="M57.4835 97.4413C57.9075 96.3962 58.2197 95.6699 57.7727 94.6314C56.9774 92.7779 54.9464 92.7976 53.4939 91.3976C52.0413 89.9976 51.1704 87.7925 51.9098 85.9159C52.6328 84.0887 54.5784 83.1094 56.376 82.3206C59.4784 80.9535 62.6169 79.6587 65.7817 78.4394C71.0859 76.3953 77.1525 74.5878 82.2793 77.0427C84.6849 78.1962 93.992 79.9249 93.7685 82.5835C93.591 84.7098 84.8 87.1023 83.2061 88.5253C76.5676 94.4671 67.8521 98.0427 57.4835 97.4413Z" fill="#E4A7C8" stroke="#340F23" stroke-width="0.328638" stroke-miterlimit="10"/>
<path d="M27.6004 45.592C40.3417 31.4211 54.5455 19.5014 70.6521 9.31033C77.5009 4.97888 84.915 0.946484 93.0028 0.430522C105.264 -0.354924 116.691 7.15446 124.789 16.3925C133.629 26.4817 139.689 38.9798 142.141 52.1681C143.531 59.6512 143.62 67.9296 139.387 74.2526C135.469 80.0991 128.519 83.2244 121.627 84.6474C104.338 88.2197 86.4924 82.8629 70.1493 76.185C53.8061 69.507 37.7225 61.3634 20.2258 59.007C17.6361 58.6587 14.9807 58.4254 12.5849 57.3869C10.1892 56.3484 7.38258 53.808 7.03094 51.2183C6.49855 47.3075 10.5309 45.2305 14.4516 44.7671C18.3624 44.307 22.6741 45.3193 27.6004 45.592Z" fill="url(#paint1_radial)" stroke="#4C3B43" stroke-width="0.328638" stroke-miterlimit="10"/>
<path d="M64.1614 94.9371C56.7112 97.0371 48.8074 95.269 41.114 94.4408C33.4206 93.6127 24.7774 94.0662 19.2234 99.4592C15.0628 103.498 13.5084 109.588 13.4525 115.385C13.3999 121.008 14.6488 126.766 17.8201 131.409C20.9915 136.053 26.253 139.431 31.876 139.543C37.4596 139.652 42.6258 136.674 47.0952 133.325C51.5647 129.977 55.7614 126.105 60.9046 123.926C66.406 121.593 72.5417 121.389 78.5131 121.215C86.3774 120.988 94.2384 120.758 102.103 120.531C110.802 120.278 119.744 119.976 127.737 116.525C135.726 113.075 142.65 105.697 142.893 96.9977C143.163 87.2568 134.819 78.8437 125.423 76.2573C116.027 73.6709 105.974 75.7413 96.7525 78.893C85.1122 82.8695 75.4929 91.7427 64.1614 94.9371Z" fill="url(#paint2_linear)" stroke="#41112E" stroke-width="0.328638" stroke-miterlimit="10"/>
<path d="M60.7962 93.1427C66.7019 87.6742 75.5619 83.8126 85.1713 82.5211C86.1868 82.3831 87.3469 82.2976 88.1587 82.7479C89.1117 83.277 89.115 84.322 88.6253 85.1009C87.738 86.5173 85.7037 87.3751 83.7878 88.1441C80.3403 89.5277 76.8896 90.9145 73.4422 92.2981C71.8089 92.9554 70.1624 93.6126 68.3911 94.0563C66.6197 94.5 64.1713 95.9033 63.8263 95.2033C63.5732 94.6906 61.7033 94.2601 61.2596 94.0037C60.8127 93.7441 60.5563 93.3629 60.7962 93.1427Z" fill="url(#paint3_linear)"/>
<path d="M27.5117 45.5756C33.6441 46.2328 35.8427 46.4136 39.392 46.9C44.2591 47.5671 52.0676 47.5934 53.5497 44.7967" stroke="#4C3B43" stroke-width="0.328638" stroke-miterlimit="10"/>
<defs>
<radialGradient id="paint0_radial" cx="0" cy="0" r="1" gradientUnits="userSpaceOnUse" gradientTransform="translate(21.9197 80.8487) scale(34.8242)">
<stop stop-color="#7F5F77"/>
<stop offset="0.515" stop-color="#6B4554"/>
<stop offset="0.5287" stop-color="#674351"/>
<stop offset="0.6376" stop-color="#4E323B"/>
<stop offset="0.7502" stop-color="#3B262C"/>
<stop offset="0.8682" stop-color="#311F23"/>
<stop offset="1" stop-color="#2D1D20"/>
</radialGradient>
<radialGradient id="paint1_radial" cx="0" cy="0" r="1" gradientUnits="userSpaceOnUse" gradientTransform="translate(80.1755 34.647) scale(67.8729 63.8073)">
<stop stop-color="#E7C0DD"/>
<stop offset="0.0475" stop-color="#DFB8D6"/>
<stop offset="0.5063" stop-color="#976D92"/>
<stop offset="0.836" stop-color="#7C5373"/>
<stop offset="0.9034" stop-color="#7E5675"/>
<stop offset="0.9541" stop-color="#86607C"/>
<stop offset="0.9994" stop-color="#937088"/>
<stop offset="1" stop-color="#937088"/>
</radialGradient>
<linearGradient id="paint2_linear" x1="75.4124" y1="92.2819" x2="81.8388" y2="126.412" gradientUnits="userSpaceOnUse">
<stop stop-color="#E4A7C8"/>
<stop offset="0.5773" stop-color="#E673AE"/>
<stop offset="0.8235" stop-color="#BB5F8A"/>
<stop offset="1" stop-color="#A05274"/>
</linearGradient>
<linearGradient id="paint3_linear" x1="71.9675" y1="85.1549" x2="79.9904" y2="94.5433" gradientUnits="userSpaceOnUse">
<stop stop-color="#E4A7C8"/>
<stop offset="0.5" stop-color="#E4A7C8"/>
<stop offset="1" stop-color="#E4A7C8"/>
</linearGradient>
</defs>
</svg>
