<svg width="150" height="140" viewBox="0 0 150 140" fill="none" xmlns="http://www.w3.org/2000/svg">
<g filter="url(#filter0_ii)">
<path d="M70.2702 59.46C63.3802 63 58.9202 71.3 63.0502 79.11C68.7702 89.95 84.7102 85.9 90.5102 77.91C97.5802 68.16 89.0702 58.66 78.6002 57.74C75.7002 57.49 72.8202 58.15 70.2702 59.46Z" fill="#62CBE3"/>
<path d="M112.25 17.23C104.44 19.49 97.8102 25.32 92.0502 30.85C87.7302 34.99 83.5402 39.75 81.0802 45.26C79.7702 48.19 77.2302 60.55 84.7202 57.9C90.1202 56 93.3902 51.06 96.3202 46.43C102.25 37.07 106.01 26.8 112.91 17.99C113.37 17.4 112.87 17.05 112.25 17.23Z" fill="#62CBE3"/>
<path d="M137.66 49.82C130.64 47.27 122.66 48.01 115.47 48.99C110.08 49.73 104.46 50.98 99.75 53.74C97.25 55.21 88.9 63.02 95.88 65.13C100.9 66.65 105.92 64.74 110.53 62.89C119.84 59.15 128 53.56 137.76 50.76C138.41 50.57 138.21 50.03 137.66 49.82Z" fill="#62CBE3"/>
<path d="M50.06 133.28C57.16 129.31 62.3 122.13 66.66 115.45C69.08 111.74 70.89 107.63 71.85 103.37C73.25 100.15 74.22 96.8 74.38 93.27C74.53 89.82 71.53 85 67.7 87.43C62.87 90.5 60.81 96.04 58.99 101.23C55.33 111.68 53.98 122.53 49.24 132.67C48.93 133.36 49.51 133.59 50.06 133.28Z" fill="#62CBE3"/>
<path d="M141.47 88.54C136.9 81.82 129.3 77.33 122.26 73.56C118.35 71.47 114.1 70.03 109.77 69.45C106.45 68.34 103.01 67.66 99.4898 67.81C96.0498 67.96 91.5098 71.37 94.2598 74.97C97.7398 79.51 103.45 81.09 108.77 82.44C119.5 85.18 130.43 85.57 140.94 89.41C141.65 89.67 141.83 89.07 141.47 88.54Z" fill="#62CBE3"/>
<path d="M20.8402 34.22C23.6302 41.85 29.9002 48.06 35.8102 53.43C39.0902 56.41 42.8602 58.84 46.9102 60.46C49.8702 62.35 53.0302 63.84 56.4902 64.56C59.8602 65.25 65.1002 63.05 63.3102 58.89C61.0402 53.63 55.8902 50.71 51.0702 48.1C41.3402 42.83 30.8402 39.78 21.5802 33.5C20.9402 33.07 20.6202 33.61 20.8402 34.22Z" fill="#62CBE3"/>
<path d="M60.9798 12.79C59.3898 9.71999 57.6398 6.77 55.5898 4C57.8298 16.4 55.4798 29.15 57.9898 41.43C58.8198 45.49 63.2698 56.86 69.1698 55.94C69.8998 55.83 70.4898 55.58 70.9998 55.23C75.5098 54.81 75.2498 46.48 74.0198 43.17C70.2398 32.85 65.4498 22.89 60.9798 12.79Z" fill="#62CBE3"/>
<path d="M92.29 124.95C92.26 128.1 92.06 131.24 91.53 134.34C88.24 123.3 81.05 113.89 78.02 102.84C77.02 99.2 75.95 88.09 81.14 86.4C81.78 86.19 82.36 86.15 82.92 86.22C86.77 84.7 89.99 91.59 90.37 94.8C91.55 104.78 91.75 114.88 92.29 124.95Z" fill="#62CBE3"/>
<path d="M116.92 108.25C118.26 110.68 119.45 113.18 120.38 115.78C113.11 108.73 103.55 104.59 96.46 97.41C94.13 95.04 88.52 86.98 91.78 83.45C92.17 83.02 92.6 82.73 93.07 82.55C95.37 79.73 100.81 83.63 102.47 85.94C107.68 93.08 112.18 100.75 116.92 108.25Z" fill="#62CBE3"/>
<path d="M23.5898 71.77C20.9298 72.54 18.3098 73.45 15.8198 74.63C25.9398 74.81 35.6298 78.67 45.7098 78.63C49.0398 78.61 58.7098 76.89 58.9098 72.1C58.9298 71.52 58.8398 71 58.6398 70.55C59.0198 66.93 52.4098 65.83 49.5998 66.27C40.8598 67.63 32.2498 69.84 23.5898 71.77Z" fill="#62CBE3"/>
<path d="M16.28 98.72C13.03 100.74 9.9 102.92 7 105.39C20.3 101.64 34.17 102.73 47.35 98.72C51.7 97.4 63.81 91.42 62.58 85.27C62.43 84.53 62.14 83.92 61.74 83.42C61.11 78.69 52.13 79.89 48.59 81.55C37.59 86.69 27.01 92.87 16.28 98.72Z" fill="#62CBE3"/>
</g>
<defs>
<filter id="filter0_ii" x="7" y="0" width="134.65" height="138.34" filterUnits="userSpaceOnUse" color-interpolation-filters="sRGB">
<feFlood flood-opacity="0" result="BackgroundImageFix"/>
<feBlend mode="normal" in="SourceGraphic" in2="BackgroundImageFix" result="shape"/>
<feColorMatrix in="SourceAlpha" type="matrix" values="0 0 0 0 0 0 0 0 0 0 0 0 0 0 0 0 0 0 127 0" result="hardAlpha"/>
<feOffset dy="4"/>
<feGaussianBlur stdDeviation="2"/>
<feComposite in2="hardAlpha" operator="arithmetic" k2="-1" k3="1"/>
<feColorMatrix type="matrix" values="0 0 0 0 1 0 0 0 0 1 0 0 0 0 1 0 0 0 0.45 0"/>
<feBlend mode="normal" in2="shape" result="effect1_innerShadow"/>
<feColorMatrix in="SourceAlpha" type="matrix" values="0 0 0 0 0 0 0 0 0 0 0 0 0 0 0 0 0 0 127 0" result="hardAlpha"/>
<feOffset dy="-4"/>
<feGaussianBlur stdDeviation="2"/>
<feComposite in2="hardAlpha" operator="arithmetic" k2="-1" k3="1"/>
<feColorMatrix type="matrix" values="0 0 0 0 0 0 0 0 0 0 0 0 0 0 0 0 0 0 0.25 0"/>
<feBlend mode="normal" in2="effect1_innerShadow" result="effect2_innerShadow"/>
</filter>
</defs>
</svg>
