<svg width="150" height="140" viewBox="0 0 150 140" fill="none" xmlns="http://www.w3.org/2000/svg">
<g clip-path="url(#clip0)">
<path d="M53.597 42.0268C51.8089 43.2986 50.8794 44.0393 50.3639 45.0191C50.3314 45.0754 50.288 45.1506 50.2555 45.2069C49.8651 45.8831 49.6925 46.6601 49.5859 47.8008C49.5658 48.1398 49.5269 48.468 49.5177 48.7883C49.4465 49.8242 49.3977 50.6475 48.977 51.5067C48.5894 52.1345 47.9754 52.8068 46.9917 53.6414C46.3675 54.1577 45.9235 54.7529 45.5735 55.4024C45.541 55.4588 45.4976 55.5339 45.4651 55.5902C45.3458 55.7969 45.2345 56.0331 45.134 56.2506C44.7196 56.8379 43.9752 57.0843 43.2919 56.7901C42.8374 56.5777 42.4639 56.312 42.2011 55.9849C41.8658 55.566 41.6709 55.0778 41.6005 54.461C41.5903 54.3049 41.6097 54.1408 41.648 53.9875C41.7536 53.8481 41.8859 53.7492 42.0371 53.6612C42.1073 53.6266 42.1883 53.5732 42.2585 53.5386C43.4492 52.8234 44.5101 51.5074 45.275 50.0957C45.3076 50.0393 45.3509 49.9642 45.3835 49.9078C46.1672 48.5069 46.6658 46.9915 46.6942 45.8557C46.7692 43.7701 47.0955 42.2053 47.736 40.9221C47.7794 40.847 47.8336 40.753 47.877 40.6779C48.3267 39.9858 49.0639 39.5348 49.8887 39.4099C50.134 39.3762 50.3605 39.3317 50.5573 39.295C51.2772 39.1346 51.9949 38.8477 52.7719 38.5449C53.4303 38.2738 54.1371 38.0057 54.8895 37.7889C55.6608 37.583 56.2885 38.3211 56.0436 39.0062C55.9243 39.2128 55.797 39.3898 55.6777 39.5964C55.2005 40.4229 54.7342 41.2307 53.597 42.0268ZM29.788 28.3307C31.4007 27.8843 33.0275 28.0221 34.5706 28.913C34.74 29.0108 34.7205 29.1749 34.6526 29.336C34.6418 29.3548 34.6201 29.3924 34.6092 29.4112C31.4992 34.1025 28.9388 36.5815 26.8662 36.0861C25.7437 35.8137 24.9938 35.3307 24.6541 34.6587C24.2101 33.7762 24.5374 32.6878 24.7875 32.0808C25.4187 31.1179 27.2745 29.0335 29.788 28.3307ZM28.9155 37.7953C29.0852 38.5444 29.43 39.2945 29.9585 39.9002C30.3314 40.3409 30.5126 40.8963 30.4405 41.4558C30.3987 41.8324 30.4054 42.2119 30.4714 42.5757C30.5534 42.9987 30.5355 43.4642 30.3562 43.8616C29.1907 45.7935 27.2427 47.2987 26.3774 47.4502C25.8463 47.5443 24.9257 47.3134 24.144 46.7118C24.1172 46.6712 23.9775 46.5655 23.921 46.5329C23.4135 46.0646 22.9552 45.4243 22.7616 44.5862C22.6847 44.2413 22.7561 43.8568 22.9542 43.4702C23.5016 42.6091 24.4643 41.6371 25.3727 40.759C26.365 39.7791 27.2735 38.901 27.6833 38.0606C27.6942 38.0419 27.7267 37.9855 27.7593 37.9292C27.9545 37.591 28.3726 37.4317 28.7143 37.5789C28.8163 37.6629 28.8916 37.7063 28.9155 37.7953ZM30.446 62.0467C29.1076 61.1487 28.7995 59.9439 28.8381 58.9644C29.1405 57.3106 29.2209 55.9545 29.1118 54.8396C29.1415 54.8317 29.1603 54.8425 29.19 54.8346C29.3058 54.8514 29.3782 54.9433 29.3804 55.0698C29.4388 56.0552 29.7922 56.66 30.1115 57.0197C30.2751 57.2143 30.4901 57.3635 30.7159 57.4939C30.7347 57.5047 30.7535 57.5156 30.7535 57.5156C31.2942 57.7526 31.5398 58.3703 31.3895 58.9347C31.1685 59.7087 31.1503 61.0006 31.1927 61.9268C31.2007 61.9564 31.1978 62.0048 31.187 62.0236C30.9844 62.1572 30.6986 62.2176 30.446 62.0467ZM37.9736 37.6652C38.0597 37.6898 38.1459 37.7145 38.2132 37.7283C38.3666 37.7668 38.5012 37.7944 38.6467 37.8033C39.5838 37.9185 40.1812 38.8395 39.9436 39.7292C39.8562 40.0544 39.7796 40.3609 39.7059 40.6189C39.4192 41.6806 39.1844 42.5218 39.1002 43.45C39.1053 43.528 39.0807 43.614 39.0482 43.6704C38.7452 44.0214 38.23 44.1748 37.735 43.9892C37.2884 43.8065 36.7911 43.4944 36.2757 42.9964C35.7979 42.5202 35.537 41.6683 35.5408 40.6185C35.5491 39.8219 35.7434 39.0073 36.0477 38.3064C36.4808 37.73 37.255 37.4757 37.9736 37.6652ZM32.9028 56.2268C32.9028 56.2268 32.8839 56.216 32.9028 56.2268C32.6249 56.3169 32.3203 56.3664 31.9513 56.3537C31.6011 56.3519 31.3079 56.2077 31.0799 55.9508C30.8706 55.7048 30.7156 55.3648 30.6416 54.9714C30.6365 54.8934 30.6314 54.8153 30.656 54.7293C30.7073 54.6838 30.7587 54.6383 30.8288 54.6037C30.8882 54.5878 30.9395 54.5423 30.9989 54.5265C31.3201 54.3613 31.6173 54.1072 31.877 53.8313C32.1771 53.5287 32.6808 53.569 32.9031 53.9228C33.0023 54.0552 33.1551 54.2687 33.2919 54.4228C33.4932 54.6392 33.5729 54.9357 33.5369 55.2154C33.5037 55.4467 33.4677 55.7265 33.3969 55.936C33.2536 56.0537 33.0916 56.1605 32.9028 56.2268ZM33.6722 50.635C33.6859 50.5678 33.7076 50.5302 33.7213 50.463C33.8629 50.0438 33.9561 49.6218 34.0275 49.2372C34.0304 49.1888 34.0333 49.1404 34.0253 49.1107C34.2368 48.0056 34.0263 46.6317 33.8754 45.8934C33.8253 45.589 33.9692 45.2964 34.2499 45.1579C34.3902 45.0887 34.5414 45.0006 34.6413 44.9581C35.1787 44.5922 35.8524 44.5553 36.3953 44.9188C36.5082 44.984 36.6023 45.0384 36.6964 45.0927C37.3659 45.4542 38.0013 45.5706 38.5375 45.5545C38.8501 45.5347 39.1186 45.7648 39.1875 46.0801C39.6462 48.8495 39.4586 51.5213 38.7176 53.022C38.5983 53.2287 38.4522 53.3948 38.2982 53.5312C37.4765 54.259 36.5786 54.467 35.8781 54.4633C35.4794 54.4585 35.0705 54.2975 34.786 54.0081C33.8332 53.0072 33.181 52.3551 33.6722 50.635ZM44.641 39.2855C45.1122 39.3822 45.5941 39.4601 46.0978 39.5004C46.6687 39.5545 47.0113 40.1781 46.7481 40.6774C46.4091 41.3081 46.1561 41.9635 45.9705 42.6328L45.9596 42.6516C45.7405 42.9007 45.441 43.0284 45.1124 42.9889C44.5632 42.8972 44.1491 42.6582 43.9 42.2639C43.4446 41.5752 43.4889 40.4988 43.7779 39.5636C44.005 39.3441 44.3233 39.2273 44.641 39.2855ZM42.2063 38.3307C42.3569 38.4176 42.4778 38.5124 42.6392 38.5806C42.8086 38.6783 42.902 38.9076 42.8232 39.0875C42.2688 40.3955 42.1119 42.0581 42.8513 43.2113C43.0468 43.5245 43.3501 43.8249 43.7641 44.0639C43.99 44.1943 44.2375 44.2871 44.5552 44.3453C45.1609 44.4696 45.5845 45.0397 45.5283 45.6585C45.5277 45.8335 45.5082 45.9976 45.5076 46.1725C45.4827 47.0848 45.0983 48.3156 44.4744 49.4832C43.802 50.6478 42.9226 51.6929 41.9829 52.2774C41.9829 52.2774 41.9721 52.2962 41.9533 52.2854C41.1973 52.7255 40.2838 52.0478 40.4324 51.1819C40.7594 49.4421 40.6969 47.3773 40.3885 45.5212C40.051 43.498 40.3515 42.3691 40.8622 40.485C41.0341 39.883 41.2009 39.2029 41.3952 38.3883C41.6194 38.2172 41.9537 38.1598 42.2063 38.3307ZM28.8478 47.474C28.9129 47.3612 28.9859 47.2782 29.059 47.1951C29.0806 47.1576 29.1212 47.1309 29.1428 47.0933C29.4105 46.8471 29.6593 46.59 29.9001 46.3032C30.7036 45.3896 32.2219 45.7152 32.5408 46.9012C32.8091 47.9577 32.9284 49.2288 32.5542 50.6157C32.4126 51.0348 32.2413 51.4619 32.0323 51.8672C31.6636 52.5059 31.2145 53.023 30.7016 53.303C30.2183 53.575 29.7306 53.5939 29.2168 53.3974C28.8079 53.2365 28.4994 52.858 28.3291 52.2838C28.3132 52.2245 28.3081 52.1465 28.2921 52.0872C28.295 52.0387 28.2682 51.9982 28.2414 51.9577C27.9317 50.4515 28.3266 48.5506 28.8478 47.474ZM33.1789 63.2238C32.7888 63.0737 32.5397 62.6794 32.3802 62.0864C32.0721 60.8816 32.3318 59.1281 32.9209 57.8903C33.0807 57.657 33.2862 57.4751 33.5184 57.3336C33.6804 57.2268 33.8424 57.12 33.9777 56.9727C34.0507 56.8896 34.1238 56.8066 34.178 56.7126C34.4651 56.3023 35.0657 56.3485 35.304 56.7616C35.7269 57.5067 35.9821 58.4555 35.9581 59.8442C35.9489 60.1645 35.9288 60.5035 35.9195 60.8238C35.9195 60.8238 35.9195 60.8238 35.9087 60.8426C35.917 61.5236 35.7856 62.0989 35.5817 62.5823C35.4328 62.7969 35.265 63.0006 35.0624 63.1341C34.5062 63.4891 33.8622 63.5181 33.1789 63.2238ZM36.5815 55.8962C36.695 55.7865 36.8165 55.7064 36.9757 55.648C37.569 55.4896 38.1817 55.1671 38.7871 54.6401C38.9007 54.5303 39.0251 54.4017 39.1307 54.2623C39.2985 54.0587 39.5386 53.9469 39.789 53.9912C39.8079 54.0021 39.8078 54.0021 39.8375 53.9942C40.1552 54.0524 40.3833 54.3093 40.4117 54.6513C40.4372 55.0417 40.4952 55.3757 40.6018 55.7128C40.6684 55.9015 40.6569 56.0953 40.597 56.286C40.5348 56.3503 40.4726 56.4146 40.3915 56.468C39.5597 57.0396 38.6295 57.9553 37.7865 59.372C37.6997 59.5223 37.4835 59.7231 37.3061 59.5956C36.6532 59.1185 36.9648 57.1445 36.6497 56.3865C36.5505 56.254 36.5323 56.0682 36.5815 55.8962ZM59.734 70.8162C59.1934 70.5792 58.594 70.1831 57.9953 69.612C56.1753 67.8099 52.9834 66.1674 49.6862 65.3157C48.728 65.063 47.4228 63.9338 46.4832 63.0406C45.7744 62.3559 45.4223 61.4012 45.4906 60.4137C45.4854 60.3357 45.51 60.2497 45.5049 60.1716C45.6207 58.7106 45.7474 57.2309 46.3662 55.9853C46.6156 55.5532 46.97 55.1567 47.3808 54.7928C47.9537 54.3221 48.4188 53.8643 48.8137 53.4411C49.5224 52.6481 50.62 52.3551 51.6318 52.6887C53.7306 53.3996 55.4731 55.0318 57.1888 56.6234L57.6775 57.0809C58.3138 57.6737 59.1846 58.2516 60.1472 58.7573C61.9676 59.7331 61.781 59.9259 63.6871 60.2751C64.3898 60.4053 66.8051 61.5242 66.5253 62.1391C66.0264 63.0032 65.5276 63.8673 65.0772 64.7343C65.0446 64.7906 65.0012 64.8658 64.9687 64.9221C64.1062 66.503 63.2842 68.0571 62.5403 69.6063C61.8845 70.6552 60.9094 71.3446 59.734 70.8162ZM35.3584 37.4576C35.3259 37.514 35.2825 37.5891 35.2499 37.6455C34.6968 38.6035 34.3638 39.7887 34.3326 40.9729C34.3329 41.6243 34.4142 42.2222 34.5686 42.7371C34.6512 42.9852 34.6448 43.257 34.5631 43.4854C34.5009 43.5496 34.4387 43.6139 34.3765 43.6782C34.2037 43.8038 34.012 43.9185 33.8043 43.9739C33.3377 44.1303 32.9259 44.0178 32.6174 43.6393C32.5906 43.5988 32.5718 43.588 32.5342 43.5662C32.4886 43.5149 32.4538 43.4447 32.4082 43.3933C32.2822 43.2204 32.1374 43.0366 31.9926 42.8528C31.3626 41.9882 31.5097 40.8208 32.1473 39.586C32.7113 38.6092 33.5581 37.6204 34.5505 36.6405C34.9533 36.247 35.6496 36.649 35.4834 37.1541C35.4668 37.2698 35.4126 37.3637 35.3584 37.4576ZM23.9611 53.2434C24.0788 52.7353 24.245 52.2301 24.4112 51.725C24.6482 51.0102 24.8664 50.2846 24.9659 49.5907C25.0294 49.1765 25.3997 48.8393 25.8173 48.855C26.0112 48.8668 26.1971 48.8489 26.3643 48.8202C26.4424 48.8152 26.5314 48.7915 26.6204 48.7677C26.9279 48.6697 27.2233 48.9404 27.1467 49.2469C26.9164 50.3412 26.8446 51.552 27.0673 52.5571C27.0724 52.6352 27.1071 52.7054 27.1231 52.7647C27.1464 53.0286 27.0915 53.2975 26.9585 53.5713C26.8392 53.7779 26.6794 54.0113 26.4791 54.2713C26.192 54.6816 25.8615 55.1671 25.547 55.7118C25.5253 55.7494 25.3518 56.0499 25.1942 56.4098C25.0504 56.7024 24.6328 56.6868 24.5234 56.3982C24.3336 55.9881 24.1388 55.4999 24.0562 55.2518C24.059 55.2034 24.0322 55.1628 24.0163 55.1035C23.846 54.5293 23.7943 53.9235 23.9611 53.2434ZM36.9641 64.7079C36.9711 64.2611 37.0266 63.8173 37.1495 63.3873C37.4688 62.2692 37.8467 61.3103 38.2834 60.5105C39.0534 59.1768 39.9134 58.2958 40.6346 57.7855C41.0614 57.4809 41.646 57.4678 42.076 57.7661C42.1701 57.8205 42.283 57.8856 42.3771 57.94C42.7455 58.1276 43.1733 58.2994 43.6335 58.4149C44.1126 58.5412 44.445 59.0086 44.4054 59.5117C44.3665 59.8399 44.3464 60.179 44.3183 60.4883C44.2032 61.7743 44.1205 63.004 43.6593 63.8898C43.6376 63.9273 43.6051 63.9837 43.5834 64.0213C43.5509 64.0776 43.5075 64.1528 43.4749 64.2091C43.3123 64.4909 43.1576 64.8023 42.9623 65.1404C42.8214 65.3846 42.6992 65.6397 42.5474 65.9027C42.3305 66.2783 42.1027 66.6728 41.8641 67.0861L41.8533 67.1049C41.7882 67.2176 41.7231 67.3303 41.6581 67.443C40.9155 68.6422 40.0897 69.7684 39.2903 70.2837C38.7232 70.6575 37.9184 70.4433 37.5947 69.8306C37.0652 68.7485 36.937 66.9714 36.9641 64.7079ZM22.5665 61.8304C22.2533 60.5475 22.7203 59.5648 23.2198 58.5258C23.2632 58.4507 23.2877 58.3646 23.3311 58.2895C23.4424 58.0532 23.7818 58.0739 23.8753 58.3031C24.0969 58.8319 24.2781 59.3873 24.311 59.9823C24.3023 60.1276 24.2937 60.2729 24.3039 60.4291C24.2143 62.1055 24.8321 63.3388 25.3804 64.4318C25.3399 64.4585 25.3508 64.4397 25.3291 64.4773C25.0953 64.3172 24.8506 64.176 24.606 64.0347C23.6759 63.4727 22.8775 62.9867 22.5665 61.8304ZM56.6878 81.6555C54.4075 81.2156 51.464 80.1423 50.1591 78.1867C48.8542 76.2312 47.6297 75.8748 46.3271 75.5235C45.5708 75.3122 44.8145 75.101 43.9032 74.5498C42.8414 73.9117 42.139 72.9552 41.8765 71.8018C41.606 70.6188 41.8182 69.3387 42.4558 68.1039C42.7269 67.6343 42.9872 67.1835 43.2583 66.7139C43.2909 66.6575 43.3343 66.5824 43.3668 66.526C43.6271 66.0752 43.8685 65.6135 44.0883 65.1894C44.2076 64.9828 44.2972 64.7841 44.4057 64.5962C44.4382 64.5399 44.4708 64.4835 44.5033 64.4271C44.5141 64.4084 44.525 64.3896 44.5358 64.3708C44.5575 64.3332 44.5901 64.2769 44.6118 64.2393C44.6226 64.2205 44.6334 64.2017 44.6443 64.1829C44.666 64.1454 44.6985 64.089 44.7202 64.0515C44.7961 63.92 44.8532 63.7776 44.9291 63.6461C45.9269 64.8734 47.7134 66.2555 49.2665 66.6512C52.4102 67.4644 55.4327 69.0091 57.1239 70.6868C57.685 71.2361 58.2358 71.6293 58.7736 71.9147C58.9242 72.0017 59.0856 72.0698 59.247 72.1379C60.4332 72.6475 61.4108 74.2138 60.9215 75.409C60.3072 76.9077 59.7659 78.3233 59.3273 79.648C59.1828 80.1155 59.0194 80.5723 58.8966 81.0023C58.8938 81.0507 58.8612 81.1071 58.8395 81.1446C58.436 81.7131 57.3608 81.7936 56.6878 81.6555ZM61.7122 46.3114C62.8404 46.4869 63.6787 47.1211 64.5734 47.7879C65.5245 48.4874 66.4945 49.1977 67.8246 49.4146C68.7212 49.5566 69.0424 49.3914 70.096 49.3485C70.3789 49.3365 70.6322 49.3324 70.9151 49.3205C72.4455 49.2773 73.8793 51.3574 73.3249 52.6653C73.314 52.6841 73.3032 52.7029 73.2815 52.7405C71.7817 54.7298 70.3919 56.8327 69.2755 58.5925C68.6414 59.6039 65.2511 59.1743 64.0664 58.9662C61.3418 58.4701 60.2943 57.5899 58.5786 55.9982L58.0899 55.5408C56.3742 53.9491 54.6129 52.306 52.4713 51.4954C51.3575 51.0777 50.6152 49.973 50.7058 48.773C50.7116 48.6761 50.7065 48.598 50.731 48.512C50.7483 48.2214 50.7575 47.9012 50.7964 47.573C50.8749 46.7417 50.9687 46.1446 51.2022 45.6533C51.6519 44.9612 52.457 44.3491 53.9804 43.275C54.1938 43.1227 54.3775 42.9784 54.5316 42.8419C54.983 42.4513 55.6697 42.5222 56.0317 42.9816C56.7905 43.9708 57.7736 44.7888 58.9056 45.3923C59.7662 45.814 60.7295 46.1447 61.7122 46.3114ZM40.0333 32.142C40.4996 32.812 40.9739 33.5116 40.8055 35.3679C40.7672 35.5211 40.7181 35.6931 40.6718 35.8167C40.5662 35.9561 40.4418 36.0847 40.3095 36.1836C39.9044 36.4506 39.3465 36.5042 38.6546 36.3552C37.6559 36.1293 36.8547 35.6917 36.6678 35.2332C36.633 35.163 36.6091 35.074 36.6257 34.9584C36.6365 34.9396 36.6365 34.9396 36.6286 34.91C36.6394 34.8912 36.6394 34.8912 36.6691 34.8833C37.9067 33.8696 38.6776 33.0124 39.225 32.1512C39.3985 31.8507 39.8269 31.8475 40.0333 32.142ZM35.9776 33.908C34.4969 35.0818 33.0937 36.4256 32.0864 37.8227C31.5665 38.5494 30.4383 38.3739 30.1585 37.5111C30.1346 37.4221 30.0999 37.352 30.0948 37.2739C30.023 37.007 30.0402 36.7164 30.1327 36.4693C30.2058 36.3862 30.2788 36.3032 30.3598 36.2498C31.889 35.0789 33.5075 33.0579 35.1827 30.2432C35.7655 29.2773 37.4803 28.9148 38.9983 28.589C39.0279 28.5811 39.0576 28.5732 39.0872 28.5653C39.4027 28.4969 39.6576 28.7944 39.5325 29.0979C39.247 29.8096 38.997 30.4166 38.7201 30.9831C38.1778 31.9223 37.4257 32.7905 35.9776 33.908C35.9964 33.9188 35.9964 33.9188 35.9776 33.908ZM6.51936 38.5148C6.76911 38.7342 7.0782 38.9376 7.40897 39.1036C7.79619 39.3021 8.24275 39.4848 8.711 39.6299C9.80091 39.9586 10.5129 39.7685 11.117 39.5914C11.7103 39.433 12.2254 39.2796 13.1807 39.5807C14.1172 39.8709 14.6327 40.3689 15.2046 40.8994C15.8221 41.4814 16.4772 42.085 17.6105 42.3386C18.5043 42.529 19.7429 41.9918 21.0188 40.825C21.8621 40.0596 22.6714 39.0491 23.2895 37.9784C23.3221 37.922 23.3654 37.8469 23.398 37.7905C23.5607 37.5088 23.7154 37.1973 23.8592 36.9047C24.0892 36.6368 24.4937 36.5447 24.8215 36.759C24.8968 36.8025 24.9721 36.846 25.0474 36.8894C25.4534 37.0988 25.9188 37.2924 26.2068 37.3585C26.5057 37.4058 26.6282 37.8021 26.4199 38.0325C25.9708 38.5496 25.411 39.1281 24.8649 39.6393C23.8726 40.6192 22.8397 41.6258 22.2541 42.6402C21.8095 43.4104 21.0854 43.9691 20.2063 44.1879C19.5052 44.3592 18.6609 44.6481 17.8456 45.1041C16.9493 45.6135 16.1286 46.8177 15.2833 48.108C14.2377 49.6582 13.0728 51.4151 12.009 51.3019C10.8483 51.1827 10.2611 50.4179 9.58264 49.5504C9.05698 48.8962 8.52335 48.2125 7.73805 47.8342C6.71608 47.3444 5.82169 47.3289 5.10241 47.3143C4.52858 47.3086 4.08139 47.3009 3.69416 47.1024C3.19402 46.8387 2.90663 46.5976 2.73184 45.7704C2.50411 44.6872 2.65914 43.5494 3.09933 42.5262C3.50411 41.6078 3.99501 40.7141 4.47507 39.8391C4.69198 39.4635 4.87922 39.0957 5.0773 38.7091C5.38607 38.2612 6.06547 38.1275 6.51936 38.5148ZM3.01602 48.3639C3.6211 48.6632 4.21375 48.6797 4.85488 48.6992C5.54449 48.7217 6.26377 48.7362 7.09755 49.1174C7.68381 49.4058 8.11824 49.9572 8.57946 50.5491C9.30352 51.468 10.1079 52.5085 11.6833 52.6917C13.3557 52.8808 14.6587 50.9282 15.8887 49.0586C16.6363 47.9374 17.4166 46.7599 18.1212 46.3652C18.6449 46.0665 19.1926 45.8568 19.6889 45.6925C20.6302 45.4094 21.6579 45.8024 22.1829 46.6315C22.4588 47.0663 22.8158 47.4477 23.1864 47.7619C23.3421 47.9269 23.395 48.1828 23.3242 48.3924C22.9612 48.9342 22.4585 49.3703 21.9073 49.8035C21.2317 50.3651 20.5048 50.9723 20.0544 51.8394C20.0219 51.8957 19.9785 51.9709 19.9459 52.0272C19.5555 52.7034 19.3207 53.5447 19.4378 54.6892C19.5076 55.4809 19.5159 56.162 19.4894 56.7728C19.4751 57.015 19.4122 57.2542 19.3226 57.4529C18.8649 58.1153 18.0742 58.4853 17.2152 58.3651C17.0509 58.3454 16.9055 58.3365 16.768 58.3574C16.5039 58.3802 16.2745 58.4732 16.0532 58.5958C15.3674 59.0014 14.4998 59.0264 13.8252 58.5868C8.2024 54.9398 4.23795 52.3754 3.74068 52.0633C3.12252 51.6563 2.51553 50.4042 2.26293 48.7556C2.1969 48.3919 2.59115 48.1436 2.92192 48.3096C2.96753 48.361 2.9972 48.353 3.01602 48.3639ZM22.3826 50.9795C22.3826 50.9795 22.3934 50.9607 22.3826 50.9795C22.8339 50.5889 23.4789 51.0364 23.3098 51.59C23.2961 51.6572 23.2715 51.7432 23.239 51.7996C23.0728 52.3047 22.9037 52.8583 22.7752 53.3852C22.5672 54.2669 22.6399 55.0102 22.8313 55.7218C22.8473 55.7811 22.8632 55.8404 22.8683 55.9185C22.9216 56.8258 22.5334 57.6286 22.1423 58.4798C21.83 59.151 21.4664 59.8678 21.3394 60.6961C21.3286 60.7149 21.3257 60.7634 21.3149 60.7821C21.1688 60.9482 20.9879 61.0442 20.7615 61.0888C20.171 61.1987 19.6929 61.5488 19.3704 62.0639C19.3487 62.1015 19.2894 62.1173 19.2518 62.0956C19.0744 61.9681 18.9918 61.7201 19.1003 61.5322C19.1762 61.4007 19.2441 61.2396 19.3309 61.0893C20.1695 59.4195 21.0594 57.7043 20.7191 54.2518C20.6572 53.4898 20.759 52.9224 20.9737 52.4202C21.299 51.8567 21.8205 51.4314 22.3826 50.9795ZM28.3083 63.1417C28.3124 62.7434 28.7819 62.5386 29.0773 62.8093C29.3727 63.08 29.7274 63.3349 30.1522 63.5551C30.4157 63.7072 30.9404 63.8849 31.3602 64.0271C31.971 64.2295 32.503 64.6118 32.8513 65.1385C33.0121 65.3816 33.1432 65.6326 33.2446 65.8915C33.3141 66.0318 33.3352 66.1692 33.3454 66.3254C33.3658 66.6377 33.2003 66.9679 32.9087 67.1252C32.6874 67.2479 32.4797 67.3033 32.3314 67.3429C31.6896 67.4983 30.6916 67.0974 30.038 66.7952C29.6696 66.6076 29.3446 66.3448 29.0817 66.0177C29.0361 65.9663 29.0093 65.9258 28.9637 65.8744C28.5561 65.3636 28.3226 64.3772 28.3083 63.1417ZM57.6882 38.6784C58.2827 38.1701 59.1612 38.1263 59.825 38.5846C61.3943 39.691 64.5387 41.807 66.0397 42.4232C66.5427 42.6384 67.1102 42.916 67.7529 43.237C69.794 44.2651 71.4051 44.9949 75.1696 45.5153C75.9613 45.6217 77.3331 46.9398 77.107 47.6357C77.0853 47.6733 76.9204 47.8285 76.8878 47.8849C76.5038 48.2893 74.9587 47.9232 74.4043 47.7534C72.9026 47.3122 72.4232 48.0122 70.9413 48.0582C69.9362 48.1041 68.9905 48.1341 68.18 48.0168C67.0894 47.8631 66.2512 47.2288 65.3753 46.5729C64.4241 45.8734 63.4462 45.1335 62.0676 44.9136C60.1694 44.5941 57.8865 43.3763 56.5794 41.2942C56.3759 40.9513 56.3424 40.5312 56.5 40.1714C56.8225 39.6563 57.1638 39.152 57.6882 38.6784ZM41.7038 28.4229C43.4415 29.1507 44.6979 29.6256 45.7068 30.0077C47.4394 30.6574 48.486 31.0613 50.1529 31.9986C51.6773 32.8787 53.5585 34.1402 55.2408 35.3118C55.5122 35.4935 55.5999 35.8197 55.5451 36.0886C55.4423 36.1795 55.3317 36.2409 55.2022 36.2913C54.2934 36.518 53.4462 36.8554 52.6395 37.1661C51.9219 37.453 51.2338 37.732 50.6029 37.8687C48.4837 38.3232 44.6659 38.3732 42.7853 36.9368C42.2265 36.5139 41.9461 35.8261 42.0268 35.1213C42.0376 35.1025 42.0376 35.1025 42.0297 35.0729C42.0325 35.0244 42.0354 34.976 42.0383 34.9276C42.2051 32.7698 41.586 31.8864 41.1037 31.1571C40.7634 30.6601 40.5035 30.2846 40.5197 29.5175C40.5877 29.3564 40.6556 29.1953 40.7236 29.0341C40.7915 28.873 40.8594 28.7118 40.9274 28.5507C41.0735 28.3846 41.4186 28.3083 41.7038 28.4229ZM19.0238 16.8564C23.1344 16.2993 26.7611 19.1445 29.1048 20.648L29.4704 20.8841C30.2956 21.4106 31.2387 22.0804 32.2304 22.7531C34.1841 24.1064 36.4736 25.7038 38.8854 27.0461C38.9606 27.0896 39.0062 27.141 39.0302 27.2299C39.0302 27.2299 39.0302 27.2299 39.0193 27.2487C38.3291 27.4012 37.62 27.5428 36.9645 27.7655C36.3792 27.9535 35.7409 27.8856 35.1735 27.608C34.8051 27.4204 34.4447 27.2624 34.0734 27.1232C33.4061 26.8882 32.8855 26.3121 32.8099 25.6173C32.7452 24.9037 32.4112 24.1348 31.6323 23.4848C30.5175 22.5907 29.5437 22.9301 28.5916 23.2319C27.8471 23.4783 27.0918 23.7435 26.0497 23.5927C24.5554 23.3561 24.0441 22.4598 23.6052 21.6554C23.3401 21.2018 23.1127 20.77 22.7095 20.5121C22.2499 20.2217 21.854 20.1685 21.4582 20.1153C20.9654 20.0562 20.633 19.5888 19.6949 18.9971C19.1977 18.6849 18.9138 18.2205 18.6379 17.7857L18.6191 17.7748C18.4851 17.5723 18.4698 17.338 18.5109 17.1364C18.6462 16.989 18.8082 16.8822 19.0238 16.8564ZM16.1566 17.7808C16.933 17.6529 17.1821 18.0472 17.5732 18.6737C17.865 19.1678 18.2481 19.7647 18.9415 20.2151C20.0569 20.9343 20.5348 21.4105 21.0949 21.4834C21.4422 21.5337 21.6738 21.5672 21.9264 21.7381C22.1146 21.8468 22.2993 22.1788 22.484 22.5108C22.8642 23.1561 23.311 23.9902 24.2925 24.5067C24.6609 24.6944 25.1183 24.8583 25.6488 24.9391C26.9412 25.1343 27.9042 24.8137 28.6783 24.5594C29.6225 24.2279 30.1159 24.112 30.766 24.6376C31.1366 24.9518 31.3698 25.2868 31.4952 25.6346C31.5778 25.8827 31.5634 26.1249 31.4926 26.3344C31.314 26.5569 31.0412 26.725 30.7178 26.7637C30.3944 26.8024 30.0493 26.8786 29.7229 26.9658C26.7536 27.8061 24.4972 30.4105 23.9464 31.495C23.9138 31.5514 23.8813 31.6077 23.8487 31.6641C23.3365 31.7691 21.5168 32.096 20.3248 31.6833C19.6278 31.4562 18.9835 30.8338 18.358 30.2222C17.9714 29.8487 17.5848 29.4752 17.1925 29.1986C16.5664 28.762 16.1182 28.2778 15.4532 28.1694C14.9227 28.0885 14.4408 28.0107 14.0267 27.7716C13.6504 27.5543 13.4628 27.2707 13.2029 26.8952C12.8625 26.3982 12.4498 25.8092 11.506 25.3144C10.9385 25.0369 10.439 24.5982 10.5153 23.6404C10.5548 23.1373 10.7666 22.6835 11.0725 22.2841C12.0958 20.9463 13.3477 19.6905 14.8227 18.6135C15.2712 18.2714 15.7059 17.9964 16.1566 17.7808ZM10.8655 26.5976C11.5835 26.9621 11.889 27.389 12.2026 27.8455C12.4893 28.2615 12.7761 28.6775 13.3595 29.0143C13.9428 29.3512 14.5406 29.4458 15.1195 29.5296C15.6876 29.6322 16.0011 30.0887 16.4311 30.387C16.767 30.631 17.108 30.9531 17.4757 31.3157C18.018 31.8542 18.6167 32.4253 19.305 32.7976C19.4744 32.8954 19.6546 32.9744 19.8268 33.0238C20.5802 33.2834 21.5231 33.3018 22.3154 33.2333C22.814 33.1956 23.2382 33.5908 23.2471 34.0968C23.2443 34.1453 23.2522 34.1749 23.2494 34.2234C23.3671 35.193 23.0615 36.2438 22.554 37.2532C22.0117 38.1924 21.2893 39.0526 20.5783 39.7191C19.5917 40.6021 18.5984 41.1056 18.06 40.9951C17.1771 40.786 16.6884 40.3285 16.1165 39.7979C15.5258 39.2565 14.8627 38.6232 13.7163 38.2619C12.4838 37.8759 11.7422 38.0739 11.1084 38.259C10.5636 38.4203 10.089 38.547 9.2574 38.2923C7.527 37.7691 6.57935 36.8463 6.42243 35.5535C6.58639 34.9219 6.69102 34.306 6.6907 33.6547C6.69072 32.177 7.4129 29.1877 8.65978 26.3761C8.92868 25.78 9.68623 25.6413 10.1857 26.08C10.3385 26.2934 10.602 26.4455 10.8655 26.5976ZM17.7143 61.1078C17.2923 60.8391 16.8703 60.5704 16.4672 60.3126C16.271 60.1743 16.3476 59.8678 16.5661 59.7936C16.6066 59.7669 16.655 59.7699 16.7035 59.7728C17.1644 59.7133 17.6668 60.1035 18.0694 60.5363C18.2062 60.6905 18.2432 60.8871 18.1832 61.0779C18.0508 61.1768 17.8649 61.1947 17.7143 61.1078ZM20.5257 62.9313C20.3672 62.8147 20.3924 62.5538 20.5812 62.4875C20.6405 62.4716 20.6702 62.4637 20.6999 62.4558C21.045 62.3795 21.3193 62.5129 21.4265 62.6749L21.4453 62.6858C21.8874 64.0931 22.9601 64.7124 23.8902 65.2745C24.5112 65.633 25.6193 66.1476 25.7498 66.5735C24.6452 67.3133 22.1949 63.9952 20.5257 62.9313ZM28.2584 67.9217L27.8176 67.6422C27.5838 67.4822 27.4527 67.2312 27.47 66.9406C27.5287 65.622 27.0151 64.5991 26.5016 63.5763C25.9533 62.4833 25.4478 61.4902 25.523 60.0559C25.5339 60.0372 25.5151 60.0263 25.5151 60.0263C25.5259 60.0075 25.5071 59.9967 25.5179 59.9779C25.5266 59.8326 25.5352 59.6873 25.5141 59.5499C25.5569 58.172 25.8893 57.1617 26.3288 56.3135C26.5674 55.9002 26.8219 55.5462 27.0656 55.2111C27.0656 55.2111 27.0656 55.2111 27.0765 55.1923C27.3202 54.8571 27.8666 54.9972 27.9001 55.4173C27.9881 56.3948 27.9163 57.6057 27.6442 59.0766C27.6225 59.1141 27.6196 59.1626 27.6276 59.1922C27.5836 59.4423 27.5396 59.6924 27.4847 59.9613C26.9504 62.4078 26.9743 65.4522 28.187 66.8286C28.4795 67.1477 28.5159 67.5194 28.6253 67.8079C28.6332 67.8376 28.6412 67.8672 28.6383 67.9157C28.5356 68.0066 28.3793 68.0166 28.2584 67.9217ZM32.8599 70.904C31.9971 70.3557 31.1639 69.7996 30.3011 69.2514C30.1238 69.1239 30.0086 68.9322 30.0121 68.7088C30.023 68.69 30.0042 68.6792 30.015 68.6604C30.0743 68.6445 30.1337 68.6287 30.2198 68.6534C30.9384 68.8429 31.717 68.8416 32.3885 68.6782C32.4775 68.6545 32.5664 68.6307 32.6663 68.5882C33.2328 68.3893 33.8104 68.823 33.7948 69.415C33.7849 69.9102 33.7482 70.3649 33.7036 70.79C33.6927 70.8088 33.7115 70.8196 33.7007 70.8384C33.4844 71.0391 33.1501 71.0966 32.8599 70.904ZM38.2003 74.388C37.3752 73.8615 36.5609 73.3162 35.7169 72.7789C35.0987 72.3719 34.7619 71.6515 34.8534 70.9279C35.0308 69.5776 35.1456 67.6403 34.6535 65.9285L34.6455 65.8989C34.5897 65.6913 34.523 65.5026 34.4564 65.3138C34.3897 65.125 34.3904 64.9501 34.4395 64.7781C34.5234 64.6762 34.634 64.6149 34.7447 64.5536C34.9147 64.4764 35.1036 64.4101 35.2548 64.3221C35.495 64.2103 35.7772 64.3733 35.7709 64.6451C35.7067 68.1896 35.9134 70.6132 37.4045 71.7245C38.2428 72.3588 38.6976 73.2225 38.9318 74.0339C38.9557 74.1228 38.9499 74.2197 38.955 74.2978C38.7684 74.4906 38.4826 74.551 38.2003 74.388ZM56.8131 86.4365C53.3459 84.1842 47.5726 80.4503 41.0602 76.2145C40.6382 75.9458 40.384 75.4734 40.3642 74.9862C40.319 74.1085 40.1317 72.9985 39.5212 71.9698C39.4409 71.8483 39.4198 71.7109 39.4472 71.5765C39.4581 71.5577 39.4877 71.5498 39.4986 71.531L39.5283 71.523C39.9522 71.2669 40.5116 71.5148 40.5987 72.0158C40.6198 72.1532 40.6408 72.2906 40.6727 72.4092C40.999 73.7998 41.8809 75.0103 43.1686 75.7788C44.1928 76.3951 45.0729 76.6528 45.8291 76.864C47.0833 77.2124 47.9822 77.4809 49.0915 79.1232C49.7534 80.1064 50.7769 80.8978 51.9278 81.5121C53.2292 82.2134 54.6904 82.6813 55.9879 82.9546C56.9975 83.1618 57.6702 84.1262 57.5614 85.1404C57.5276 85.5466 57.5046 85.9341 57.4925 86.3028C57.5005 86.3324 57.4896 86.3512 57.4788 86.37C57.3218 86.5549 57.0469 86.5965 56.8131 86.4365ZM82.896 46.3445L83.88 44.6835C83.8612 44.6727 83.8424 44.6618 83.8235 44.651C83.5601 44.4988 83.2721 44.4327 82.992 44.3963C82.8682 44.3499 82.7148 44.3114 82.5773 44.3322C75.8742 45.1206 71.5445 42.9715 68.6805 41.5434C68.0001 41.2007 67.4139 40.9123 66.8436 40.6832C64.9336 39.9061 63.0769 38.5586 59.9679 36.3379L58.9791 35.6167C56.9718 34.1823 53.6211 31.7719 51.137 30.3377C49.368 29.3163 48.2056 28.8957 46.4838 28.2273C45.4749 27.8451 44.2373 27.3811 42.5372 26.675C39.2796 25.3202 35.9904 23.0204 33.3462 21.1682C32.3277 20.455 31.3737 19.804 30.5405 19.2478L30.175 19.0117C26.9981 16.9521 20.6057 12.3347 14.1981 17.0007C11.5536 18.9301 9.59664 21.4069 8.21069 23.9378C8.17816 23.9942 8.13478 24.0693 8.10224 24.1257C6.0793 27.7164 4.99221 31.7724 4.98389 34.0468C4.97462 35.8447 3.99282 37.6322 2.9756 39.5244C2.17816 40.9925 1.34819 42.517 0.900336 44.1619C-0.0993546 47.8927 0.818912 52.4302 2.81597 53.7084C4.68129 54.9106 55.4743 87.8425 58.8662 90.0513C58.9039 90.0731 58.9415 90.0948 58.9792 90.1165C59.0168 90.1382 59.0356 90.1491 59.0356 90.1491C59.0356 90.1491 59.0356 90.1491 59.0544 90.16L59.0732 90.1708C59.1297 90.2034 59.1673 90.2252 59.2238 90.2578L58.6341 87.2374C58.5964 87.2156 58.5776 87.2048 58.54 87.183C58.5211 87.1722 58.5023 87.1613 58.4647 87.1396C55.9544 85.4899 62.8127 70.2644 65.0025 64.5159C65.3234 63.6993 65.8622 62.9835 66.3177 62.1945C73.0445 50.4998 81.0944 45.3795 82.896 46.3445L82.9148 46.3554L82.896 46.3445Z" fill="url(#paint0_linear)"/>
<path d="M142.104 109.857C146.806 101.626 149.107 93.3376 149.895 87.1053C149.93 87.0005 149.955 86.9145 149.971 86.7988C150.229 82.7897 149.185 80.0334 146.892 78.6594C146.873 78.6485 146.855 78.6377 146.817 78.6159C146.553 78.4638 146.247 78.3868 145.956 78.3692C145.843 78.304 145.679 78.2843 145.541 78.3051C138.449 79.4199 134.058 77.1601 131.129 75.6697C130.43 75.3161 129.836 74.9981 129.284 74.7799C127.337 73.981 125.486 72.5367 122.385 70.1706L121.399 69.401C119.398 67.8698 116.066 65.2953 113.548 63.7909C111.763 62.7103 110.582 62.2788 108.811 61.6074C107.784 61.2144 106.508 60.7286 104.789 60.0117C101.486 58.6054 98.1759 56.1683 95.5294 54.1895C94.5138 53.4279 89.3705 49.0808 88.5185 48.5138L86.1751 46.184C85.5416 45.5428 84.7837 45.0301 83.9362 44.7161C81.165 43.6922 77.9817 44.8598 73.4402 50.553C66.5006 59.2697 62.8371 65.7453 62.677 68.2827C62.5376 70.3061 61.388 72.2972 60.1704 74.4495C59.2349 76.1134 58.2371 77.8415 57.67 79.6931C56.3615 83.8717 56.987 88.9164 59 90.2539C60.8812 91.5154 114.162 127.787 117.567 130.104C117.605 130.125 117.642 130.147 117.68 130.169C117.718 130.191 117.737 130.202 117.737 130.202C117.737 130.202 117.737 130.202 117.755 130.212L117.774 130.223C117.831 130.256 117.868 130.278 117.925 130.31C119.422 131.15 122.046 131.387 126.249 128.279C126.3 128.233 126.352 128.188 126.414 128.123C133.32 122.768 138.378 116.397 141.987 110.015C142.017 110.007 142.06 109.932 142.104 109.857ZM115.319 76.7603C113.333 78.2437 112.32 79.0863 111.718 80.2163C111.674 80.2914 111.631 80.3666 111.598 80.4229C111.135 81.1822 110.908 82.0531 110.696 83.3332C110.643 83.7286 110.593 84.0755 110.544 84.4225C110.397 85.5899 110.275 86.4963 109.789 87.4681C109.328 88.179 108.649 88.9641 107.552 89.9085C106.855 90.5077 106.338 91.186 105.944 91.9107C105.901 91.9858 105.858 92.0609 105.825 92.1173C105.684 92.3615 105.543 92.6057 105.44 92.8716C104.963 93.5232 104.156 93.8338 103.473 93.5396C103 93.3164 102.637 93.0318 102.385 92.686C102.061 92.2483 101.909 91.6849 101.871 91.0118C101.872 90.8369 101.902 90.654 101.97 90.4928C102.087 90.3347 102.241 90.1982 102.411 90.121C102.492 90.0676 102.573 90.0142 102.643 89.9796C103.928 89.1439 105.146 87.6429 106.049 86.0354C106.093 85.9603 106.136 85.8851 106.169 85.8288C107.08 84.2509 107.716 82.5397 107.839 81.2833C108.055 78.9535 108.509 77.2118 109.306 75.7436C109.361 75.6497 109.415 75.5558 109.488 75.4727C110.011 74.6976 110.821 74.1635 111.667 74.0011C111.924 73.9486 112.161 73.8852 112.387 73.8407C113.148 73.6536 113.928 73.3023 114.748 72.9244C115.458 72.6079 116.227 72.2755 117.012 72.0023C117.834 71.751 118.448 72.5563 118.13 73.3244C117.982 73.539 117.841 73.7832 117.71 74.0086C117.123 74.8964 116.591 75.8168 115.319 76.7603ZM91.34 62.3151C93.0663 61.7589 94.7632 61.862 96.3143 62.7826C96.4837 62.8804 96.4534 63.0633 96.3637 63.262C96.3529 63.2808 96.3312 63.3183 96.3204 63.3371C92.715 68.6691 89.8595 71.5288 87.7276 71.0493C86.5754 70.7848 85.8176 70.2721 85.5213 69.525C85.1127 68.5377 85.5347 67.3287 85.847 66.6574C86.5433 65.5818 88.6319 63.181 91.34 62.3151ZM89.7307 72.882C89.857 73.7063 90.1772 74.5424 90.684 75.1856C91.0461 75.6451 91.1839 76.2757 91.0684 76.9103C90.9941 77.3432 90.9791 77.7604 91.0234 78.1616C91.0728 78.641 91.0333 79.1441 90.8215 79.5979C89.4665 81.771 87.2994 83.5253 86.4015 83.7333C85.8299 83.8541 84.8905 83.6123 84.1116 82.9622C84.0848 82.9217 83.9559 82.7972 83.8995 82.7646C83.384 82.2666 82.9582 81.57 82.8188 80.6379C82.7637 80.2554 82.8756 79.8442 83.0983 79.3716C83.7215 78.379 84.8086 77.2785 85.8118 76.2798C86.9285 75.1713 87.9237 74.1429 88.4363 73.2116C88.4471 73.1929 88.4797 73.1365 88.523 73.0614C88.74 72.6857 89.1907 72.47 89.5591 72.6577C89.6423 72.7308 89.7067 72.793 89.7307 72.882ZM89.6133 99.8137C88.259 98.8564 88.0456 97.531 88.1493 96.4388C88.5898 94.5893 88.7866 93.0749 88.7238 91.8364C88.7535 91.8285 88.7723 91.8394 88.802 91.8315C88.9177 91.8482 88.9793 91.9589 88.9815 92.0854C88.9748 93.1836 89.2957 93.8447 89.6041 94.2231C89.7866 94.4287 89.9611 94.6045 90.1977 94.7161C90.2166 94.727 90.2354 94.7379 90.2354 94.7379C90.7948 94.9857 91.0079 95.6597 90.7846 96.3073C90.4905 97.1643 90.4044 98.6174 90.3738 99.6266C90.3709 99.675 90.3788 99.7046 90.3572 99.7422C90.1706 99.935 89.8551 100.003 89.6133 99.8137ZM99.2373 72.4097C99.3234 72.4344 99.4095 72.4591 99.4876 72.4541C99.6411 72.4926 99.7865 72.5014 99.932 72.5102C100.899 72.6176 101.464 73.5949 101.15 74.6161C101.041 74.9789 100.924 75.312 100.837 75.6373C100.455 76.8196 100.155 77.7735 99.9871 78.8035C99.9625 78.8895 99.938 78.9755 99.9134 79.0615C99.5778 79.4689 99.0113 79.6678 98.5272 79.4634C98.0806 79.2807 97.5754 78.9389 97.0628 78.3925C96.5958 77.8975 96.3703 76.9408 96.4689 75.7705C96.5314 74.8799 96.7987 73.9823 97.1681 73.1686C97.6823 72.5388 98.5186 72.2202 99.2373 72.4097ZM92.59 93.2671C92.3013 93.376 91.9671 93.4334 91.5684 93.4286C91.2181 93.4268 90.8953 93.2905 90.6781 93.0148C90.4689 92.7688 90.3356 92.3913 90.2941 91.9416C90.289 91.8635 90.2947 91.7666 90.3193 91.6806C90.3706 91.6351 90.4328 91.5709 90.503 91.5362C90.5732 91.5016 90.6137 91.4749 90.6839 91.4403C91.0268 91.2375 91.3646 90.9567 91.6567 90.6244C91.9786 90.2843 92.5119 90.3167 92.7234 90.6893C92.8117 90.8405 92.9645 91.0539 93.1093 91.2377C93.2997 91.4729 93.3686 91.7881 93.3001 92.1242C93.256 92.3743 93.1795 92.6808 93.1058 92.9388C92.9814 93.0673 92.8085 93.1929 92.59 93.2671ZM93.8172 87.0129C93.8309 86.9457 93.8634 86.8893 93.8771 86.8221C94.0513 86.3466 94.1849 85.8978 94.2889 85.4569C94.2918 85.4085 94.2947 85.36 94.2976 85.3116C94.5958 84.0562 94.4612 82.5509 94.3725 81.7483C94.3333 81.4251 94.5097 81.0761 94.8121 80.9001C94.9821 80.8229 95.1333 80.7349 95.236 80.6439C95.8248 80.2325 96.539 80.1689 97.0819 80.5325C97.1948 80.5976 97.2781 80.6708 97.4018 80.7172C98.0901 81.0895 98.7255 81.2059 99.3022 81.1632C99.6257 81.1245 99.9022 81.3843 99.9306 81.7263C100.216 84.7963 99.825 87.7765 98.9459 89.473C98.7969 89.6876 98.6291 89.8912 98.4642 90.0465C97.5478 90.8949 96.5985 91.1483 95.8576 91.1714C95.4183 91.1933 95.0391 91.0244 94.7466 90.7053C93.8155 89.6668 93.177 88.9475 93.8172 87.0129ZM106.12 74.0043C106.61 74.1118 107.114 74.1521 107.636 74.2033C108.237 74.2495 108.547 74.9295 108.222 75.493C107.828 76.2177 107.502 76.9561 107.273 77.7005L107.262 77.7193C107.022 78.006 106.682 78.1604 106.334 78.1101C105.774 78.0372 105.341 77.7873 105.114 77.3554C104.691 76.6103 104.8 75.4212 105.195 74.3466C105.444 74.0895 105.784 73.9352 106.12 74.0043ZM103.629 73.0168C103.769 73.1225 103.919 73.2095 104.07 73.2964C104.258 73.405 104.322 73.6422 104.221 73.8597C103.54 75.3446 103.264 77.2138 103.96 78.4422C104.144 78.7742 104.426 79.1121 104.859 79.362C105.085 79.4924 105.351 79.5961 105.65 79.6434C106.285 79.7598 106.676 80.3863 106.587 81.0614C106.576 81.2552 106.546 81.438 106.534 81.6318C106.444 82.6568 105.943 84.0458 105.214 85.3527C104.425 86.6756 103.429 87.8789 102.387 88.5544C102.387 88.5544 102.376 88.5732 102.357 88.5623C101.528 89.0855 100.618 88.3594 100.85 87.3916C101.315 85.4561 101.405 83.1283 101.205 81.0843C100.997 78.8357 101.403 77.5674 102.063 75.4687C102.278 74.7916 102.518 74.0284 102.785 73.1308C103.042 72.9034 103.377 72.8459 103.629 73.0168ZM88.9746 83.666C89.0505 83.5345 89.1344 83.4327 89.2074 83.3496C89.248 83.3229 89.2805 83.2666 89.3022 83.229C89.5915 82.9452 89.8728 82.6318 90.1542 82.3183C91.0632 81.2653 92.6409 81.575 92.8839 82.8925C93.0979 84.0429 93.1196 85.4831 92.629 87.0282C92.4548 87.5037 92.2322 87.9762 91.9907 88.4379C91.5489 89.1596 91.0268 89.7598 90.4922 90.0773C89.9684 90.376 89.459 90.4326 88.9264 90.2252C88.4986 90.0534 88.2307 89.6483 88.0741 89.0068C88.069 88.9287 88.0639 88.8507 88.0479 88.7914C88.0508 88.7429 88.024 88.7024 88.0081 88.6431C87.7931 87.0163 88.3478 84.882 88.9746 83.666ZM92.381 101.061C91.9909 100.911 91.7338 100.487 91.6177 99.8188C91.3855 98.4825 91.7833 96.5332 92.4809 95.1076C92.6516 94.8555 92.8787 94.636 93.1514 94.4678C93.3431 94.3531 93.4972 94.2166 93.6432 94.0505C93.7271 93.9487 93.8002 93.8656 93.8841 93.7638C94.2037 93.2971 94.8448 93.3166 95.0694 93.7969C95.4489 94.6172 95.6687 95.6707 95.5283 97.2177C95.4865 97.5943 95.4556 97.9521 95.4247 98.3099C95.4247 98.3099 95.4247 98.3099 95.4138 98.3287C95.3599 99.074 95.2039 99.7353 94.9379 100.283C94.7672 100.535 94.5698 100.747 94.3456 100.918C93.7784 101.292 93.0939 101.347 92.381 101.061ZM96.4821 92.7842C96.6065 92.6557 96.7389 92.5568 96.9169 92.5093C97.5427 92.2945 98.2256 91.9374 98.8744 91.3352C99.0176 91.2176 99.134 91.0594 99.2693 90.912C99.4479 90.6896 99.7286 90.5511 99.979 90.5955C99.9978 90.6063 99.9978 90.6063 100.027 90.5984C100.345 90.6566 100.581 90.9431 100.58 91.293C100.584 91.721 100.609 92.1114 100.705 92.4672C100.761 92.6748 100.728 92.9061 100.657 93.1157C100.584 93.1987 100.511 93.2818 100.43 93.3352C99.5247 93.9899 98.4782 95.0637 97.489 96.6466C97.3914 96.8157 97.1535 97.054 96.9761 96.9265C96.3152 96.4197 96.8055 94.2232 96.5149 93.3792C96.4106 93.1687 96.433 92.9562 96.4821 92.7842ZM119.699 108.593C119.139 108.345 118.551 107.93 117.966 107.292C116.192 105.366 112.947 103.642 109.542 102.804C108.554 102.559 107.273 101.344 106.358 100.364C105.682 99.6234 105.365 98.564 105.517 97.4747C105.523 97.3778 105.547 97.2918 105.553 97.1949C105.785 95.5758 106.021 93.9082 106.767 92.4856C107.078 91.9893 107.446 91.5256 107.927 91.127C108.573 90.5733 109.09 90.0699 109.517 89.5904C110.321 88.6768 111.491 88.3007 112.522 88.6453C114.669 89.359 116.384 91.1257 118.054 92.8409L118.539 93.3468C119.173 93.988 120.022 94.6035 121.011 95.1497C122.859 96.166 125.108 96.9638 127.114 97.2704C127.846 97.3927 128.188 98.1912 127.873 98.9109C127.29 99.8768 126.716 100.872 126.152 101.849C126.108 101.924 126.065 101.999 126.032 102.056C125.002 103.84 124.05 105.62 123.149 107.354C122.347 108.569 120.893 109.132 119.699 108.593ZM96.5193 72.2932C96.4759 72.3683 96.4326 72.4434 96.4 72.4998C95.7413 73.5972 95.3136 74.9031 95.1955 76.2375C95.1337 76.9531 95.1716 77.6262 95.3231 78.1896C95.3949 78.4564 95.3668 78.7658 95.2635 79.0318C95.1904 79.1148 95.1282 79.1791 95.066 79.2434C94.8823 79.3877 94.6797 79.5213 94.4504 79.6143C93.9432 79.7973 93.5206 79.7036 93.2338 79.2876C93.2071 79.2471 93.1882 79.2362 93.1506 79.2145C93.1158 79.1443 93.0702 79.0929 93.0355 79.0228C92.9203 78.831 92.7863 78.6285 92.6524 78.4259C92.047 77.4753 92.2888 76.1873 93.0537 74.7755C93.7124 73.6781 94.6757 72.5311 95.7736 71.4118C96.2386 70.954 96.9132 71.3935 96.7145 71.955C96.6495 72.0677 96.5844 72.1805 96.5193 72.2932ZM83.4168 90.2501C83.567 89.6857 83.7954 89.1163 83.9942 88.5548C84.2854 87.7461 84.5766 86.9375 84.7304 86.1496C84.8264 85.6791 85.2292 85.2855 85.6764 85.2933C85.8704 85.3051 86.0672 85.2684 86.2531 85.2505C86.3421 85.2268 86.4311 85.203 86.5201 85.1793C86.8384 85.0625 87.1338 85.3332 87.0544 85.6881C86.7185 86.9218 86.5708 88.2641 86.7284 89.382C86.7335 89.4601 86.7574 89.549 86.7625 89.6271C86.7641 89.9286 86.6984 90.2162 86.5328 90.5464C86.373 90.7798 86.1915 91.0507 85.9992 91.3403C85.6499 91.8149 85.2869 92.3567 84.929 92.9766C84.9073 93.0142 84.7013 93.3711 84.5032 93.7576C84.3376 94.0878 83.9093 94.091 83.7919 93.7727C83.6238 93.325 83.4506 92.7993 83.3897 92.5136C83.3925 92.4652 83.3766 92.4059 83.3606 92.3466C83.2149 91.6864 83.2066 91.0054 83.4168 90.2501ZM96.2632 102.551C96.3027 102.048 96.4096 101.559 96.5541 101.091C96.9602 99.8226 97.4517 98.7539 97.9535 97.8414C98.8507 96.3307 99.8163 95.3103 100.611 94.7169C101.089 94.3668 101.684 94.335 102.133 94.6442C102.227 94.6985 102.329 94.7825 102.434 94.818C102.81 95.0353 103.23 95.1775 103.709 95.3038C104.218 95.4222 104.529 95.9272 104.427 96.4946C104.366 96.8603 104.325 97.2369 104.264 97.6027C104.062 99.0389 103.874 100.408 103.329 101.396C103.296 101.452 103.264 101.508 103.231 101.565C103.188 101.64 103.144 101.715 103.112 101.771C102.927 102.091 102.721 102.448 102.504 102.823C102.353 103.086 102.179 103.387 102.006 103.687C101.756 104.119 101.496 104.57 101.217 105.01L101.206 105.029C101.13 105.16 101.035 105.281 100.959 105.413C100.09 106.789 99.1581 108.054 98.2857 108.653C97.6564 109.091 96.8328 108.866 96.5416 108.197C96.0743 107.05 96.0734 105.096 96.2632 102.551ZM81.3772 99.8673C81.1399 98.453 81.7016 97.3497 82.3067 96.1712C82.3609 96.0773 82.4043 96.0022 82.4397 95.8974C82.5728 95.6236 82.923 95.6254 83.0136 95.9031C83.2215 96.499 83.3513 97.1 83.3517 97.7513C83.3322 97.9154 83.3236 98.0607 83.3229 98.2357C83.0952 100.108 83.6668 101.465 84.1796 102.662C84.1391 102.689 84.1391 102.689 84.1175 102.727C83.8836 102.567 83.631 102.396 83.4052 102.265C82.4107 101.641 81.5935 101.144 81.3772 99.8673ZM115.726 120.776C113.376 120.37 110.346 119.272 109.12 117.137C107.894 115.001 106.64 114.653 105.289 114.299C104.532 114.088 103.728 113.873 102.808 113.293C101.739 112.625 101.08 111.593 100.863 110.316C100.658 109.02 100.968 107.571 101.722 106.178C102.044 105.663 102.359 105.118 102.651 104.611C102.695 104.536 102.738 104.461 102.771 104.405C103.074 103.879 103.367 103.371 103.62 102.891C103.75 102.666 103.88 102.44 103.999 102.234C104.043 102.158 104.075 102.102 104.118 102.027C104.129 102.008 104.14 101.989 104.151 101.971C104.184 101.914 104.205 101.877 104.238 101.82C104.249 101.802 104.259 101.783 104.27 101.764C104.303 101.708 104.325 101.67 104.357 101.614C104.444 101.463 104.531 101.313 104.599 101.152C105.561 102.484 107.342 103.963 108.924 104.351C112.176 105.151 115.233 106.766 116.897 108.578C117.436 109.165 117.995 109.588 118.522 109.892C118.673 109.979 118.853 110.058 118.995 110.115C120.219 110.647 120.726 112.116 120.12 113.47C119.368 115.164 118.699 116.757 118.163 118.25C117.967 118.763 117.79 119.287 117.635 119.774C117.621 119.841 117.588 119.897 117.567 119.935C117.16 120.552 116.44 120.887 115.726 120.776ZM123.53 81.2257C124.707 81.4042 125.534 82.0572 126.437 82.7537C127.366 83.4907 128.352 84.2602 129.734 84.4317C130.671 84.547 131.717 84.4744 132.811 84.4048C133.094 84.3928 133.387 84.362 133.67 84.3501C135.282 84.2535 136.183 85.9513 135.502 87.4362C135.491 87.455 135.469 87.4925 135.458 87.5113C133.737 89.7982 132.128 92.1503 130.841 94.1623C130.101 95.3131 128.808 95.9442 127.594 95.7441C124.769 95.2905 121.248 93.7836 119.579 92.0683L119.101 91.5921C117.413 89.866 115.698 88.0994 113.489 87.2749C112.337 86.8355 111.668 85.6477 111.835 84.3162C111.84 84.2194 111.846 84.1225 111.881 84.0177C111.92 83.6895 111.97 83.3426 112.012 82.966C112.155 82.022 112.301 81.3794 112.577 80.8129C113.111 80.019 113.989 79.3238 115.67 78.0649C115.894 77.8938 116.088 77.7306 116.294 77.5487C116.796 77.1126 117.505 77.1459 117.853 77.6726C118.569 78.7369 119.557 79.633 120.678 80.2552C121.525 80.7442 122.507 81.0858 123.53 81.2257ZM101.814 66.2083C102.248 66.9346 102.69 67.6906 102.391 69.7723C102.331 69.9631 102.282 70.1351 102.206 70.2666C102.09 70.4248 101.954 70.5721 101.792 70.6789C101.365 70.9835 100.737 71.0718 100.046 70.9228C99.0063 70.7235 98.208 70.2376 98.0427 69.7414C98.008 69.6713 97.9949 69.5635 98.0115 69.4479C98.0223 69.4291 98.0223 69.4291 98.0144 69.3994C98.0252 69.3807 98.036 69.3619 98.0549 69.3727C99.4386 68.193 100.293 67.2339 100.936 66.2521C101.142 65.8952 101.61 65.8654 101.814 66.2083ZM97.4364 68.3144C95.7988 69.6731 94.2278 71.2206 93.0824 72.8134C92.4786 73.642 91.3207 73.4744 91.0844 72.5365C91.0605 72.4475 91.0365 72.3586 91.0314 72.2805C90.9814 71.9761 91.0094 71.6667 91.1236 71.382C91.2075 71.2801 91.2806 71.1971 91.3724 71.1249C93.0585 69.7691 94.8881 67.4693 96.8585 64.2739C97.536 63.1874 99.3643 62.7152 100.966 62.2875C100.996 62.2796 101.026 62.2717 101.074 62.2746C101.4 62.1875 101.633 62.5225 101.498 62.8448C101.158 63.6505 100.846 64.3218 100.496 64.9713C99.8695 66.0124 99.0226 67.0011 97.4364 68.3144ZM66.1945 74.4461C66.4631 74.6763 66.7425 74.8877 67.0812 75.0833C67.4764 75.3115 67.923 75.4942 68.4209 75.6313C69.5405 75.9521 70.2929 75.7354 70.9484 75.5127C71.5931 75.3088 72.1299 75.1179 73.104 75.4298C74.0593 75.7309 74.5828 76.2585 75.133 76.8267C75.7476 77.457 76.3811 78.0983 77.5629 78.3548C78.4863 78.5373 79.8384 77.8903 81.2604 76.5573C82.1985 75.6713 83.1321 74.5323 83.8479 73.2925C83.8913 73.2174 83.9347 73.1423 83.9672 73.0859C84.1624 72.7478 84.3468 72.4285 84.4935 72.0874C84.756 71.7631 85.1902 71.6631 85.518 71.8774C85.5933 71.9209 85.6686 71.9644 85.7439 72.0078C86.1391 72.236 86.6233 72.4404 86.941 72.4986C87.2587 72.5568 87.3515 72.961 87.1215 73.229C86.629 73.8212 85.9773 74.4719 85.377 75.077C84.2495 76.2043 83.111 77.3503 82.4198 78.5041C81.8913 79.3761 81.0833 80.0367 80.1717 80.3118C79.4193 80.5286 78.5127 80.8818 77.6244 81.4209C76.6442 82.0321 75.7071 83.3945 74.7157 84.8509C73.5211 86.6157 72.1667 88.6138 71.0437 88.5164C69.8424 88.424 69.2877 87.6028 68.6339 86.6492C68.1407 85.9388 67.6396 85.1986 66.8167 84.7986C65.7759 84.2979 64.841 84.3092 64.0812 84.3213C63.4777 84.3235 61.5005 83.5326 61.1132 83.3341C60.5943 83.0595 60.3177 82.7997 60.216 81.8894C60.0533 80.6934 60.2843 79.4242 60.83 78.2616C61.2999 77.2305 61.8855 76.2161 62.4603 75.2205C62.6989 74.8073 62.8543 74.3209 63.1681 73.9511C63.8176 73.174 65.7515 74.04 66.1945 74.4461ZM61.8191 85.5449C62.4321 85.8738 63.0653 85.8637 63.7281 85.8456C64.4582 85.8414 65.218 85.8292 66.041 86.2292C66.646 86.5285 67.0479 87.1362 67.5063 87.7765C68.187 88.7706 68.9748 89.9267 70.6124 90.0457C72.3549 90.2002 73.8394 87.9766 75.2885 85.8578C76.1526 84.5785 77.0681 83.2536 77.8161 82.7838C78.3912 82.4396 78.9714 82.1735 79.5082 81.9825C80.5226 81.6164 81.5582 82.039 82.0695 82.9353C82.3426 83.4186 82.659 83.8267 83.0485 84.1517C83.1933 84.3355 83.2354 84.6103 83.1429 84.8574C82.7365 85.4743 82.1528 85.9638 81.5582 86.4721C80.8096 87.1169 80.0096 87.8071 79.4833 88.8056C79.4399 88.8808 79.3965 88.9559 79.364 89.0123C78.9005 89.7716 78.6007 90.7255 78.6418 92.0015C78.6683 92.8684 78.6223 93.6433 78.5336 94.3185C78.4976 94.5982 78.4239 94.8562 78.3126 95.0925C77.7818 95.838 76.918 96.291 76.0402 96.1599C75.876 96.1402 75.7305 96.1314 75.5634 96.1601C75.2884 96.2017 75.0294 96.3026 74.7864 96.4628C74.0384 96.9326 73.1303 96.9844 72.4665 96.526C66.8364 92.6744 61.3939 89.1064 60.8886 88.7646C60.2516 88.3467 58.7219 86.7372 59.5656 85.1455C59.8721 84.5711 60.8657 84.719 61.1856 84.9037L61.7547 85.4827C61.7626 85.5123 61.8003 85.534 61.8191 85.5449ZM81.9387 87.7688C81.9387 87.7688 81.9575 87.7797 81.9387 87.7688C82.4414 87.3327 83.0755 87.799 82.8739 88.4089C82.8494 88.4949 82.806 88.5701 82.7814 88.6561C82.5719 89.2364 82.3514 89.8354 82.1795 90.4374C81.8876 91.421 81.9061 92.2582 82.065 93.0262C82.0701 93.1043 82.086 93.1636 82.0911 93.2416C82.0793 94.2617 81.6369 95.1584 81.1431 96.1005C80.7578 96.8549 80.3399 97.6655 80.1479 98.6066C80.1262 98.6442 80.1342 98.6738 80.1125 98.7114C79.9556 98.8963 79.7342 99.0189 79.5077 99.0635C78.8956 99.211 78.3661 99.6066 77.9814 100.186C77.9598 100.224 77.9004 100.239 77.8628 100.218C77.6666 100.079 77.6137 99.8234 77.725 99.5871C77.8118 99.4368 77.8906 99.2569 77.9882 99.0878C79.0054 97.1956 80.0443 95.2658 79.9317 91.4188C79.9132 90.5817 80.0692 89.9203 80.3352 89.3727C80.7576 88.815 81.3225 88.3146 81.9387 87.7688ZM87.289 101.102C87.3148 100.666 87.8357 100.415 88.1202 100.705C88.4047 100.994 88.7782 101.26 89.2111 101.51C89.4745 101.662 90.0181 101.851 90.4378 101.993C91.0487 102.195 91.5887 102.607 91.9153 103.171C92.0652 103.433 92.1855 103.703 92.2949 103.992C92.3535 104.151 92.3638 104.307 92.374 104.463C92.3727 104.813 92.1854 105.181 91.8534 105.365C91.6212 105.506 91.373 105.588 91.2247 105.628C90.5504 105.84 89.5147 105.417 88.8532 105.085C88.4848 104.898 88.1518 104.605 87.8998 104.259C87.8542 104.208 87.8274 104.167 87.7818 104.116C87.3741 103.605 87.2057 102.506 87.289 101.102ZM119.851 72.8651C120.519 72.2738 121.438 72.2032 122.08 72.6991C123.665 73.8649 126.801 76.1261 128.339 76.764C128.842 76.9793 129.429 77.2677 130.079 77.6183C132.147 78.687 134.933 80.1201 138.838 80.5712C139.659 80.6698 140.036 81.5384 139.766 82.3095C139.745 82.3471 139.704 82.3738 139.683 82.4113C139.62 82.4756 139.558 82.5399 139.496 82.6042C139.05 83.0729 138.435 83.2688 137.88 83.099C136.33 82.6548 134.63 82.7751 133.075 82.9042C132.029 82.9768 131.013 83.0414 130.192 82.9429C129.072 82.7971 128.225 82.1332 127.342 81.4476C126.393 80.6997 125.418 79.9113 123.999 79.7182C122.031 79.4333 119.702 78.1641 118.514 75.8754C118.322 75.5137 118.321 75.0373 118.5 74.6399C118.88 73.9824 119.264 73.403 119.851 72.8651ZM103.815 62.0037C105.571 62.7424 106.866 63.239 107.893 63.632C109.664 64.3034 110.74 64.6994 112.412 65.7148C113.944 66.6245 115.82 67.9829 117.507 69.2326C117.786 69.444 117.844 69.778 117.768 70.0845C117.665 70.1755 117.533 70.2744 117.384 70.314C116.413 70.6049 115.504 71.0066 114.635 71.3816C113.855 71.7328 113.116 72.0573 112.434 72.2394C110.19 72.8225 106.17 73.0059 104.314 71.4835C103.766 71.0419 103.51 70.2681 103.634 69.4881C103.645 69.4694 103.645 69.4694 103.637 69.4397C103.64 69.3913 103.653 69.3241 103.656 69.2756C103.964 66.8736 103.418 65.9072 102.939 65.1295C102.601 64.584 102.363 64.1709 102.452 63.3208C102.531 63.1409 102.61 62.961 102.689 62.7811C102.767 62.6011 102.846 62.4212 102.925 62.2413C103.174 61.9842 103.53 61.8892 103.815 62.0037ZM80.5966 50.3268C84.9531 49.561 88.8068 52.1867 91.1557 53.7682L91.5212 54.0043C92.3544 54.5605 93.2867 55.249 94.2835 55.9998C96.2314 57.4501 98.5341 59.1552 100.943 60.5459C101.018 60.5894 101.053 60.6596 101.077 60.7485C101.077 60.7485 101.077 60.7485 101.066 60.7673C100.335 60.9465 99.5828 61.1633 98.8572 61.4205C98.2205 61.6541 97.5526 61.594 96.996 61.2977C96.6276 61.1101 96.2483 60.9412 95.877 60.802C95.1909 60.5561 94.6921 59.9425 94.6599 59.1725C94.6385 58.3838 94.3588 57.521 93.5719 56.8413C92.4708 55.88 91.416 56.2728 90.4096 56.6686C89.6029 56.9793 88.7963 57.2899 87.7057 57.1362C86.1708 56.9263 85.6841 55.944 85.2697 55.0535C85.0264 54.5624 84.8018 54.0821 84.4175 53.8352C83.9687 53.526 83.5432 53.4807 83.1473 53.4274C82.6545 53.3683 82.0648 53.3033 81.1295 52.6632C80.6243 52.3214 80.3621 51.8194 80.1079 51.347L80.0891 51.3362C79.966 51.1148 79.9615 50.8618 80.0243 50.6225C80.2081 50.4782 80.3889 50.3822 80.5966 50.3268ZM77.5319 51.4627C78.3596 51.2894 78.587 51.7213 78.9644 52.415C79.2345 52.9466 79.6039 53.6107 80.2865 54.0799C81.4099 54.8287 82.1343 54.9214 82.7241 54.9864C83.0823 55.0178 83.3138 55.0514 83.5853 55.2331C83.7626 55.3606 83.9364 55.7114 84.1183 56.0918C84.4551 56.8123 84.8882 57.7136 85.8777 58.2598C86.254 58.4771 86.7035 58.6113 87.2716 58.7139C88.5937 58.9012 89.6297 58.4975 90.466 58.1789C91.4912 57.794 91.9984 57.6109 92.6456 58.1849C93.0242 58.5287 93.2357 58.9013 93.3205 59.2759C93.3923 59.5427 93.3562 59.8225 93.2637 60.0696C93.0446 60.3188 92.7502 60.5245 92.4159 60.5819C92.0708 60.6582 91.7256 60.7344 91.3588 60.8482C88.1733 61.8893 85.6218 64.8744 84.995 66.0904C84.9625 66.1468 84.9191 66.2219 84.8865 66.2783C84.3338 66.4099 82.4113 66.8278 81.1897 66.423C80.4739 66.1851 79.8325 65.5142 79.2395 64.8463C78.8558 64.4244 78.4989 64.043 78.0986 63.7367C77.4833 63.2813 76.7698 63.1699 76.0939 63.0802C75.5634 62.9994 75.0518 62.9294 74.6189 62.6795C74.2426 62.4622 74.0579 62.1302 73.8088 61.7359C73.4901 61.2013 73.0911 60.5451 72.1285 60.0394C71.553 59.7323 71.0644 59.2748 71.2057 58.2043C71.2778 57.6448 71.533 57.1159 71.8794 56.6898C73.0596 55.1671 74.4497 53.7156 76.0815 52.4537C76.5734 52.0364 77.0487 51.7347 77.5319 51.4627ZM71.3636 61.4512C72.1004 61.8265 72.3734 62.3098 72.6653 62.8039C72.9303 63.2574 73.2142 63.7219 73.7976 64.0587C74.381 64.3955 74.9975 64.501 75.6061 64.5769C76.1851 64.6607 76.7452 64.7336 77.1831 65.0616C77.519 65.3056 77.8571 65.6761 78.214 66.0575C78.7346 66.6336 79.3304 67.2531 80.0079 67.6442C80.1773 67.742 80.3575 67.821 80.5485 67.8812C81.3316 68.133 82.315 68.1247 83.137 68.0482C83.6652 68.0026 84.0786 68.4165 84.055 68.979C84.0521 69.0274 84.0492 69.0758 84.0572 69.1055C84.1207 70.169 83.7283 71.3701 83.0964 72.508C82.4594 73.5679 81.6314 74.5675 80.8473 75.317C79.7552 76.3395 78.678 76.9448 78.1208 76.8235C77.2082 76.6222 76.7304 76.146 76.1722 75.5482C75.5843 74.9583 74.9429 74.2875 73.7589 73.9044C72.4967 73.5264 71.7038 73.7698 70.9998 73.9895C70.4145 74.1776 69.8885 74.3498 69.057 74.0951C67.2781 73.569 64.2629 72.2289 64.2115 70.7966C64.4377 70.1007 64.6584 68.6753 64.7203 67.9597C64.8367 66.3238 65.4288 63.5599 67.9378 61.1264C69.0734 60.0288 70.1872 60.4464 70.6759 60.9039C70.8286 61.1173 71.0704 61.307 71.3636 61.4512ZM76.3174 99.2002C75.9062 98.9127 75.4951 98.6252 75.0731 98.3566C74.8769 98.2183 74.9564 97.8634 75.2045 97.7812C75.2639 97.7654 75.2935 97.7575 75.3528 97.7416C75.8434 97.6742 76.3458 98.0645 76.7158 98.5536C76.8526 98.7077 76.8679 98.942 76.7971 99.1516C76.6727 99.2801 76.4759 99.3168 76.3174 99.2002ZM79.1498 101.161C78.9725 101.034 79.0382 100.746 79.2379 100.661C79.2972 100.645 79.3377 100.618 79.3674 100.61C79.7422 100.526 80.0273 100.641 80.1048 100.811C80.1048 100.811 80.1236 100.822 80.1128 100.84C80.479 102.379 81.5488 103.047 82.5057 103.65C83.1347 104.038 84.2616 104.563 84.3704 105.027C83.1602 105.906 80.8053 102.292 79.1498 101.161ZM86.8842 106.453L86.4542 106.155C86.2204 105.995 86.111 105.706 86.139 105.397C86.2845 103.928 85.8361 102.792 85.3659 101.694C84.8718 100.507 84.4125 99.3907 84.6042 97.7983C84.6151 97.7795 84.5963 97.7686 84.6071 97.7498C84.618 97.7311 84.61 97.7014 84.61 97.7014C84.6294 97.5373 84.6381 97.392 84.6387 97.2171C84.7682 95.6889 85.2062 94.5392 85.7296 93.5891C86.0196 93.1304 86.3066 92.7201 86.5829 92.3285C86.5829 92.3285 86.5829 92.3285 86.5937 92.3097C86.87 91.9182 87.4352 92.0692 87.447 92.5269C87.4699 93.6171 87.2926 94.9673 86.9229 96.6073C86.9012 96.6449 86.8983 96.6933 86.8954 96.7417C86.8297 97.0294 86.7452 97.3062 86.6795 97.5938C85.9528 100.33 85.741 103.739 86.9183 105.22C87.1891 105.577 87.2146 105.968 87.3211 106.305C87.3291 106.334 87.3262 106.383 87.3342 106.412C87.1613 106.538 87.005 106.548 86.8842 106.453ZM91.5038 109.621C90.6438 109.024 89.7919 108.457 88.9319 107.861C88.7546 107.733 88.6503 107.523 88.6755 107.262C88.6863 107.243 88.6675 107.232 88.6783 107.213C88.7485 107.179 88.8267 107.174 88.894 107.188C89.6314 107.388 90.4614 107.341 91.1545 107.14C91.2543 107.098 91.3622 107.085 91.462 107.042C92.069 106.817 92.6467 107.25 92.5876 107.918C92.5452 108.469 92.476 108.98 92.38 109.451C92.3691 109.469 92.3583 109.488 92.3771 109.499C92.1391 109.737 91.794 109.814 91.5038 109.621ZM96.8624 113.291C96.0401 112.716 95.207 112.16 94.3847 111.585C93.7585 111.148 93.4542 110.371 93.6109 109.535C93.9047 108.027 94.1497 105.864 93.7551 103.983L93.7471 103.954C93.7022 103.727 93.6463 103.52 93.5905 103.312C93.5239 103.123 93.5462 102.911 93.6062 102.72C93.6901 102.618 93.8224 102.519 93.9519 102.469C94.1516 102.384 94.3325 102.288 94.5133 102.192C94.7643 102.061 95.0358 102.243 95.0186 102.534C94.6861 106.499 94.7518 109.167 96.2373 110.375C97.0726 111.058 97.4841 111.997 97.664 112.902C97.6771 113.01 97.6713 113.107 97.6656 113.204C97.4493 113.404 97.1339 113.473 96.8624 113.291ZM115.518 126.091C112.049 123.712 106.241 119.733 99.7137 115.263C99.3025 114.975 99.0591 114.484 99.0828 113.922C99.1025 112.931 98.9804 111.709 98.4133 110.605C98.3437 110.464 98.3227 110.327 98.361 110.174C98.3718 110.155 98.4123 110.128 98.442 110.12C98.4528 110.102 98.4716 110.113 98.4825 110.094C98.9578 109.792 99.5172 110.04 99.5718 110.597C99.582 110.754 99.603 110.891 99.6241 111.028C99.8636 112.569 100.71 113.884 101.995 114.701C103.027 115.347 103.937 115.597 104.712 115.819C105.996 116.16 106.924 116.42 107.966 118.224C108.592 119.312 109.594 120.141 110.772 120.795C112.081 121.526 113.591 121.997 114.948 122.255C115.987 122.454 116.616 123.494 116.45 124.65C116.384 125.113 116.328 125.556 116.295 125.963C116.303 125.992 116.292 126.011 116.27 126.049C116.057 126.201 115.752 126.251 115.518 126.091ZM125.649 126.58C123.674 128.044 120.929 129.54 118.969 128.458C118.931 128.437 118.912 128.426 118.875 128.404C118.856 128.393 118.837 128.382 118.799 128.361C116.276 126.603 120.053 115.585 127.523 102.516C128.022 101.652 128.532 100.769 129.06 99.8969C137.059 86.6073 143.912 79.5185 145.73 80.5428L145.748 80.5537C147.533 81.6343 148.333 83.8995 148.132 87.2898C148.121 87.3086 148.129 87.3383 148.137 87.3679C147.564 93.273 145.11 101.173 140.687 108.964C136.992 115.321 131.998 121.58 125.649 126.58Z" fill="url(#paint1_linear)"/>
</g>
<defs>
<linearGradient id="paint0_linear" x1="11.0102" y1="64.8061" x2="69.5426" y2="38.8581" gradientUnits="userSpaceOnUse">
<stop stop-color="#063863"/>
<stop offset="0.033825" stop-color="#063B6C"/>
<stop offset="0.0885275" stop-color="#084484"/>
<stop offset="0.1569" stop-color="#0A51AA"/>
<stop offset="0.186" stop-color="#0B58BD"/>
<stop offset="0.279" stop-color="#0A41A1"/>
<stop offset="0.361" stop-color="#093290"/>
<stop offset="0.4218" stop-color="#092D8A"/>
<stop offset="0.5842" stop-color="#2A3AF6"/>
<stop offset="0.8055" stop-color="#09107A"/>
<stop offset="0.8101" stop-color="#0A1289"/>
<stop offset="0.8216" stop-color="#0C16A8"/>
<stop offset="0.8346" stop-color="#0E19C4"/>
<stop offset="0.8493" stop-color="#0F1CDA"/>
<stop offset="0.8664" stop-color="#111EEB"/>
<stop offset="0.8876" stop-color="#1120F6"/>
<stop offset="0.9174" stop-color="#1221FD"/>
<stop offset="1" stop-color="#1221FF"/>
</linearGradient>
<linearGradient id="paint1_linear" x1="67.673" y1="101.787" x2="133.192" y2="74.0776" gradientUnits="userSpaceOnUse">
<stop stop-color="#063863"/>
<stop offset="0.033825" stop-color="#063B6C"/>
<stop offset="0.0885275" stop-color="#084484"/>
<stop offset="0.1569" stop-color="#0A51AA"/>
<stop offset="0.186" stop-color="#0B58BD"/>
<stop offset="0.279" stop-color="#0A41A1"/>
<stop offset="0.361" stop-color="#093290"/>
<stop offset="0.4218" stop-color="#092D8A"/>
<stop offset="0.5842" stop-color="#2A3AF6"/>
<stop offset="0.8055" stop-color="#09107A"/>
<stop offset="0.8101" stop-color="#0A1289"/>
<stop offset="0.8216" stop-color="#0C16A8"/>
<stop offset="0.8346" stop-color="#0E19C4"/>
<stop offset="0.8493" stop-color="#0F1CDA"/>
<stop offset="0.8664" stop-color="#111EEB"/>
<stop offset="0.8876" stop-color="#1120F6"/>
<stop offset="0.9174" stop-color="#1221FD"/>
<stop offset="1" stop-color="#1221FF"/>
</linearGradient>
<clipPath id="clip0">
<rect width="150" height="140" fill="white"/>
</clipPath>
</defs>
</svg>
