<svg width="150" height="140" viewBox="0 0 150 140" fill="none" xmlns="http://www.w3.org/2000/svg">
<g clip-path="url(#clip0)">
<g clip-path="url(#clip1)">
<path d="M103.833 61.8811L109.571 57.3506L131.683 59.9313L132.868 64.0624L103.833 61.8811Z" fill="url(#paint0_linear)"/>
<path d="M103.833 61.8811L109.571 57.3506L131.683 59.9313L132.868 64.0624L103.833 61.8811Z" fill="url(#paint1_linear)"/>
<path d="M102.575 63.8946L108.826 59.6158L130.761 61.9448L130.593 67.1665L102.575 63.8946Z" fill="url(#paint2_linear)"/>
<path d="M101.149 63.1395L106.971 58.8608L127.405 61.1897L127.248 66.4115L101.149 63.1395Z" fill="url(#paint3_linear)"/>
<path d="M116.332 68.4249L116.198 65.2369L121.617 66.1396L120.788 69.0122L116.332 68.4249Z" fill="url(#paint4_linear)"/>
<path d="M136.918 48.7294L138.002 49.8939L128.378 50.5651L128.076 48.914L136.918 48.7294Z" fill="url(#paint5_linear)"/>
<path d="M137.63 34.6986H108.353V40.068H137.63V34.6986Z" fill="url(#paint6_linear)"/>
<path d="M105.921 43.0883L106.843 38.7256L136.455 39.3129V44.6823L105.921 43.0883Z" fill="url(#paint7_linear)"/>
<path d="M104.243 47.1992L105.837 42.8365L134.861 44.2628L134.945 49.5483L104.243 47.1992Z" fill="url(#paint8_linear)"/>
<path d="M103.488 48.961L103.421 47.0314L138.562 49.5281L138.301 54.9176L103.488 48.961Z" fill="url(#paint9_linear)"/>
<path d="M102.743 51.8974L103.776 48.8771L134.955 52.2129L134.791 57.4346L102.743 51.8974Z" fill="url(#paint10_linear)"/>
<path d="M104.001 56.8473L109.397 52.7363L131.264 54.8975L131.1 60.1192L104.001 56.8473Z" fill="url(#paint11_linear)"/>
<path d="M132.345 33.2724H104.411V38.7257H132.345V33.2724Z" fill="url(#paint12_linear)"/>
<path d="M131.254 28.4064H114.393V33.8596H131.254V28.4064Z" fill="url(#paint13_linear)"/>
<path d="M129.744 23.6243H112.967V29.0775H129.744V23.6243Z" fill="url(#paint14_linear)"/>
<path d="M78.6676 65.3946L77.1912 62.3005L118.849 65.9517L118.188 71.2775L78.6676 65.3946Z" fill="url(#paint15_linear)"/>
<path d="M77.2416 62.4582L75.4297 60.8743L116.5 62.2602L115.839 67.586L77.2416 62.4582Z" fill="url(#paint16_linear)"/>
<path d="M73.3827 60.6964L69.8931 55.5049L107.524 59.6595L106.863 64.9852L73.3827 60.6964Z" fill="url(#paint17_linear)"/>
<path d="M70.1111 55.9983L70.3057 50.3873L108.363 54.374L108.135 59.6998L70.1111 55.9983Z" fill="url(#paint18_linear)"/>
<path d="M46.4553 48.6154C46.4553 48.6154 45.2876 48.8167 45.0359 46.9542C44.8648 45.6857 45.8076 45.0145 45.8076 45.0145L107.776 48.9174L107.548 54.327L46.4553 48.6154Z" fill="url(#paint19_linear)"/>
<path d="M51.908 29.487C51.908 29.487 51.3275 29.1413 51.4852 28.0004C51.6429 26.8526 53.022 26.8124 53.022 26.8124L114.906 28.3661L114.594 33.9436L51.908 29.487Z" fill="url(#paint20_linear)"/>
<path d="M53.5017 27.054L53.5184 23.8726C53.5184 23.8726 53.3909 22.4497 53.6829 21.9162C54.0956 21.1611 54.7868 21.2752 54.7868 21.2752L117.258 21.4866L115.044 25.3425L114.93 28.4903L53.5017 27.054Z" fill="url(#paint21_linear)"/>
<path d="M48.3847 31.5005C48.3847 31.5005 47.2405 31.0474 47.4653 28.8561C47.5559 27.9903 48.831 27.3124 48.831 27.3124L110.464 29.2856L109.9 34.9469L48.3847 31.5005Z" fill="url(#paint22_linear)"/>
<path d="M45.8681 34.5207L44.2676 32.5206C44.2676 32.5206 43.3012 31.7052 43.3616 30.3225C43.4354 28.7319 44.9689 28.1547 44.9689 28.1547L106.602 30.1279L104.847 35.2859L106.29 37.5511L45.8681 34.5207Z" fill="url(#paint23_linear)"/>
<path d="M106.35 62.4583L107.139 57.9379L113.229 57.9815L112.568 63.3073L106.35 62.4583Z" fill="url(#paint24_linear)"/>
<path d="M45.6166 37.1215C45.6166 37.1215 45.1434 36.8061 45.1703 35.9335C45.2038 34.8395 45.8951 34.4469 45.8951 34.4469L108.702 37.2591L108.139 42.9204L45.6166 37.1215Z" fill="url(#paint25_linear)"/>
<path d="M44.1065 40.9808C44.1065 40.9808 42.8415 40.5747 42.8381 39.0847C42.8381 37.343 44.4655 37.0477 44.4655 37.0477L105.427 41.1184L104.864 46.7797L44.1065 40.9808Z" fill="url(#paint26_linear)"/>
<path d="M42.5966 45.2595C42.5966 45.2595 40.3183 45.1924 40.3552 42.954C40.3988 40.3733 42.2879 40.4874 42.2879 40.4874L102.83 45.1454L102.518 50.9745L42.5966 45.2595Z" fill="url(#paint27_linear)"/>
<path d="M132.877 64.0324L131.353 59.0591L130.792 59.2312L132.316 64.2044L132.877 64.0324Z" fill="#D9A6BB"/>
<path d="M120.514 69.7544L123.025 65.1042L122.509 64.8251L119.997 69.4753L120.514 69.7544Z" fill="#D9A6BB"/>
<path d="M109.079 63.6922L112.571 59.7244L112.13 59.3364L108.639 63.3042L109.079 63.6922Z" fill="#D9A6BB"/>
<path d="M102.285 50.463L107.475 49.463L107.364 48.8864L102.174 49.8864L102.285 50.463Z" fill="#D9A6BB"/>
<path d="M104.611 35.2087L107.912 39.3367L108.371 38.9699L105.07 34.8419L104.611 35.2087Z" fill="#D9A6BB"/>
<path d="M114.902 24.2914L113.95 29.4902L114.527 29.596L115.48 24.3972L114.902 24.2914Z" fill="#D9A6BB"/>
<path d="M127.612 25.1592L126.083 30.2184L126.645 30.3885L128.175 25.3292L127.612 25.1592Z" fill="#D9A6BB"/>
<path d="M136.962 34.9661L132.447 37.7119L132.752 38.2137L137.267 35.4679L136.962 34.9661Z" fill="#D9A6BB"/>
<path d="M139.468 50.4027L135.292 47.1633L134.932 47.6273L139.108 50.8668L139.468 50.4027Z" fill="#D9A6BB"/>
<path d="M102.324 50.9678C103.667 50.9678 104.756 49.6727 104.756 48.0751C104.756 46.4774 103.667 45.1823 102.324 45.1823C100.98 45.1823 99.8909 46.4774 99.8909 48.0751C99.8909 49.6727 100.98 50.9678 102.324 50.9678Z" fill="#D9A6BB"/>
<path d="M105.176 46.8569C106.519 46.8569 107.608 45.5618 107.608 43.9642C107.608 42.3665 106.519 41.0714 105.176 41.0714C103.832 41.0714 102.743 42.3665 102.743 43.9642C102.743 45.5618 103.832 46.8569 105.176 46.8569Z" fill="#D9A6BB"/>
<path d="M108.028 42.9137C109.371 42.9137 110.46 41.6186 110.46 40.021C110.46 38.4234 109.371 37.1282 108.028 37.1282C106.684 37.1282 105.595 38.4234 105.595 40.021C105.595 41.6186 106.684 42.9137 108.028 42.9137Z" fill="#D9A6BB"/>
<path d="M106.055 35.8664C107.374 35.8664 108.444 34.5713 108.444 32.9737C108.444 31.3761 107.374 30.0809 106.055 30.0809C104.735 30.0809 103.666 31.3761 103.666 32.9737C103.666 34.5713 104.735 35.8664 106.055 35.8664Z" fill="#D9A6BB"/>
<path d="M110.376 34.9436C111.627 34.9436 112.641 33.6484 112.641 32.0508C112.641 30.4532 111.627 29.1581 110.376 29.1581C109.126 29.1581 108.112 30.4532 108.112 32.0508C108.112 33.6484 109.126 34.9436 110.376 34.9436Z" fill="#D9A6BB"/>
<path d="M114.655 33.9402C115.952 33.9402 117.004 32.7006 117.004 31.1716C117.004 29.6425 115.952 28.403 114.655 28.403C113.358 28.403 112.306 29.6425 112.306 31.1716C112.306 32.7006 113.358 33.9402 114.655 33.9402Z" fill="#D9A6BB"/>
<path d="M117.171 27.1446C118.469 27.1446 119.52 25.905 119.52 24.376C119.52 22.847 118.469 21.6074 117.171 21.6074C115.874 21.6074 114.823 22.847 114.823 24.376C114.823 25.905 115.874 27.1446 117.171 27.1446Z" fill="#D9A6BB"/>
<path d="M120.778 29.9131C122.076 29.9131 123.127 28.6736 123.127 27.1446C123.127 25.6155 122.076 24.376 120.778 24.376C119.481 24.376 118.43 25.6155 118.43 27.1446C118.43 28.6736 119.481 29.9131 120.778 29.9131Z" fill="#D9A6BB"/>
<path d="M124.386 32.514C125.683 32.514 126.734 31.2744 126.734 29.7454C126.734 28.2163 125.683 26.9768 124.386 26.9768C123.088 26.9768 122.037 28.2163 122.037 29.7454C122.037 31.2744 123.088 32.514 124.386 32.514Z" fill="#D9A6BB"/>
<path d="M129.586 29.0708C130.837 29.0708 131.851 27.8508 131.851 26.3459C131.851 24.8409 130.837 23.6209 129.586 23.6209C128.336 23.6209 127.322 24.8409 127.322 26.3459C127.322 27.8508 128.336 29.0708 129.586 29.0708Z" fill="#D9A6BB"/>
<path d="M130.969 33.8529C132.196 33.8529 133.19 32.6329 133.19 31.128C133.19 29.623 132.196 28.403 130.969 28.403C129.742 28.403 128.748 29.623 128.748 31.128C128.748 32.6329 129.742 33.8529 130.969 33.8529Z" fill="#D9A6BB"/>
<path d="M132.143 38.719C133.37 38.719 134.365 37.499 134.365 35.994C134.365 34.489 133.37 33.269 132.143 33.269C130.917 33.269 129.922 34.489 129.922 35.994C129.922 37.499 130.917 38.719 132.143 38.719Z" fill="#D9A6BB"/>
<path d="M137.848 40.0613C139.03 40.0613 139.988 38.8413 139.988 37.3363C139.988 35.8314 139.03 34.6114 137.848 34.6114C136.665 34.6114 135.707 35.8314 135.707 37.3363C135.707 38.8413 136.665 40.0613 137.848 40.0613Z" fill="#D9A6BB"/>
<path d="M136.422 44.6789C137.604 44.6789 138.562 43.495 138.562 42.0345C138.562 40.574 137.604 39.3901 136.422 39.3901C135.239 39.3901 134.281 40.574 134.281 42.0345C134.281 43.495 135.239 44.6789 136.422 44.6789Z" fill="#D9A6BB"/>
<path d="M134.744 49.5449C135.926 49.5449 136.885 48.361 136.885 46.9005C136.885 45.44 135.926 44.2561 134.744 44.2561C133.561 44.2561 132.603 45.44 132.603 46.9005C132.603 48.361 133.561 49.5449 134.744 49.5449Z" fill="#D9A6BB"/>
<path d="M138.351 54.9143C139.533 54.9143 140.492 53.7303 140.492 52.2698C140.492 50.8094 139.533 49.6254 138.351 49.6254C137.169 49.6254 136.21 50.8094 136.21 52.2698C136.21 53.7303 137.169 54.9143 138.351 54.9143Z" fill="#D9A6BB"/>
<path d="M134.744 57.5151C135.926 57.5151 136.885 56.3311 136.885 54.8707C136.885 53.4102 135.926 52.2263 134.744 52.2263C133.561 52.2263 132.603 53.4102 132.603 54.8707C132.603 56.3311 133.561 57.5151 134.744 57.5151Z" fill="#D9A6BB"/>
<path d="M131.053 60.1159C132.235 60.1159 133.194 58.9319 133.194 57.4714C133.194 56.011 132.235 54.827 131.053 54.827C129.871 54.827 128.912 56.011 128.912 57.4714C128.912 58.9319 129.871 60.1159 131.053 60.1159Z" fill="#D9A6BB"/>
<path d="M130.801 67.2471C131.983 67.2471 132.942 66.0631 132.942 64.6027C132.942 63.1422 131.983 61.9583 130.801 61.9583C129.619 61.9583 128.66 63.1422 128.66 64.6027C128.66 66.0631 129.619 67.2471 130.801 67.2471Z" fill="#D9A6BB"/>
<path d="M126.859 66.3242C128.041 66.3242 128.999 65.1403 128.999 63.6798C128.999 62.2193 128.041 61.0354 126.859 61.0354C125.676 61.0354 124.718 62.2193 124.718 63.6798C124.718 65.1403 125.676 66.3242 126.859 66.3242Z" fill="#D9A6BB"/>
<path d="M124.719 63.0953C124.829 61.6391 123.963 60.386 122.784 60.2965C121.605 60.207 120.56 61.3149 120.449 62.7711C120.339 64.2274 121.205 65.4805 122.384 65.57C123.563 65.6595 124.608 64.5515 124.719 63.0953Z" fill="#D9A6BB"/>
<path d="M120.942 68.6927C121.019 67.1655 120.068 65.8768 118.818 65.8144C117.569 65.752 116.494 66.9394 116.418 68.4666C116.342 69.9938 117.293 71.2825 118.542 71.3449C119.791 71.4073 120.866 70.2199 120.942 68.6927Z" fill="#D9A6BB"/>
<path d="M118.342 64.7497C118.418 63.2225 117.467 61.9339 116.218 61.8715C114.968 61.809 113.894 62.9965 113.817 64.5237C113.741 66.0509 114.692 67.3395 115.941 67.402C117.191 67.4644 118.265 66.277 118.342 64.7497Z" fill="#D9A6BB"/>
<path d="M115.657 60.8907C115.734 59.3635 114.783 58.0749 113.533 58.0124C112.284 57.95 111.209 59.1375 111.133 60.6647C111.057 62.1919 112.008 63.4805 113.257 63.543C114.506 63.6054 115.581 62.418 115.657 60.8907Z" fill="#D9A6BB"/>
<path d="M109.704 62.3347C109.782 60.7612 108.758 59.4313 107.416 59.3642C106.074 59.2972 104.923 60.5184 104.844 62.0919C104.765 63.6654 105.79 64.9953 107.131 65.0623C108.473 65.1294 109.625 63.9082 109.704 62.3347Z" fill="#D9A6BB"/>
<path d="M109.871 57.0086C109.948 55.4574 108.923 54.1454 107.581 54.0784C106.239 54.0113 105.089 55.2145 105.011 56.7658C104.934 58.3171 105.959 59.629 107.301 59.6961C108.643 59.7631 109.793 58.5599 109.871 57.0086Z" fill="#D9A6BB"/>
<path d="M109.87 51.8072C109.948 50.2559 108.923 48.944 107.581 48.8769C106.239 48.8099 105.088 50.0131 105.011 51.5643C104.933 53.1156 105.958 54.4275 107.3 54.4946C108.642 54.5616 109.793 53.3584 109.87 51.8072Z" fill="#D9A6BB"/>
<path d="M109.397 51.7616C109.458 50.525 108.641 49.4792 107.571 49.4257C106.502 49.3723 105.584 50.3314 105.522 51.568C105.461 52.8046 106.278 53.8503 107.348 53.9038C108.418 53.9573 109.335 52.9981 109.397 51.7616Z" fill="#B62B6C"/>
<path d="M109.397 56.963C109.459 55.7264 108.642 54.6806 107.572 54.6272C106.502 54.5737 105.585 55.5328 105.523 56.7694C105.461 58.006 106.278 59.0518 107.348 59.1052C108.418 59.1587 109.335 58.1996 109.397 56.963Z" fill="#B62B6C"/>
<path d="M109.229 62.2483C109.291 61.0117 108.474 59.966 107.404 59.9125C106.334 59.859 105.417 60.8182 105.355 62.0547C105.293 63.2913 106.111 64.3371 107.181 64.3906C108.25 64.444 109.168 63.4849 109.229 62.2483Z" fill="#B62B6C"/>
<path d="M115.249 60.9016C115.311 59.665 114.516 58.6204 113.474 58.5683C112.432 58.5162 111.537 59.4765 111.476 60.7131C111.414 61.9496 112.209 62.9943 113.251 63.0464C114.293 63.0984 115.188 62.1382 115.249 60.9016Z" fill="#B62B6C"/>
<path d="M117.934 64.7606C117.996 63.524 117.201 62.4794 116.159 62.4273C115.117 62.3753 114.222 63.3355 114.16 64.5721C114.098 65.8086 114.893 66.8533 115.935 66.9054C116.977 66.9574 117.872 65.9972 117.934 64.7606Z" fill="#B62B6C"/>
<path d="M118.816 70.8507C119.858 70.8099 120.664 69.774 120.616 68.5369C120.567 67.2999 119.683 66.3301 118.64 66.3709C117.598 66.4117 116.792 67.4476 116.84 68.6847C116.889 69.9218 117.773 70.8915 118.816 70.8507Z" fill="#B62B6C"/>
<path d="M124.222 63.0872C124.357 61.8901 123.72 60.8354 122.799 60.7315C121.878 60.6276 121.022 61.5139 120.887 62.711C120.752 63.9081 121.389 64.9628 122.31 65.0666C123.231 65.1705 124.087 64.2843 124.222 63.0872Z" fill="#B62B6C"/>
<path d="M128.5 63.8423C128.635 62.6452 127.998 61.5905 127.077 61.4866C126.157 61.3827 125.301 62.269 125.166 63.4661C125.031 64.6632 125.668 65.7179 126.588 65.8218C127.509 65.9256 128.365 65.0394 128.5 63.8423Z" fill="#B62B6C"/>
<path d="M132.443 64.7651C132.578 63.568 131.941 62.5134 131.02 62.4095C130.099 62.3056 129.243 63.1918 129.108 64.389C128.973 65.5861 129.61 66.6407 130.531 66.7446C131.452 66.8485 132.308 65.9623 132.443 64.7651Z" fill="#B62B6C"/>
<path d="M132.691 57.5113C132.738 56.3076 132.026 55.3022 131.1 55.2656C130.174 55.2291 129.385 56.1754 129.338 57.3791C129.29 58.5828 130.002 59.5883 130.928 59.6248C131.854 59.6613 132.643 58.7151 132.691 57.5113Z" fill="#B62B6C"/>
<path d="M136.382 54.9107C136.429 53.707 135.717 52.7016 134.791 52.6651C133.865 52.6285 133.076 53.5748 133.029 54.7785C132.981 55.9822 133.693 56.9877 134.619 57.0242C135.545 57.0607 136.334 56.1145 136.382 54.9107Z" fill="#B62B6C"/>
<path d="M139.989 52.3101C140.036 51.1064 139.324 50.101 138.398 50.0645C137.472 50.028 136.683 50.9742 136.636 52.1779C136.588 53.3817 137.3 54.3871 138.226 54.4236C139.152 54.4601 139.941 53.5139 139.989 52.3101Z" fill="#B62B6C"/>
<path d="M136.466 46.9409C136.513 45.7372 135.801 44.7318 134.875 44.6953C133.949 44.6588 133.16 45.605 133.113 46.8087C133.065 48.0125 133.777 49.0179 134.703 49.0544C135.629 49.0909 136.418 48.1447 136.466 46.9409Z" fill="#B62B6C"/>
<path d="M138.06 42.0753C138.107 40.8715 137.395 39.8661 136.469 39.8296C135.543 39.7931 134.754 40.7393 134.707 41.9431C134.659 43.1468 135.371 44.1522 136.297 44.1887C137.223 44.2252 138.012 43.279 138.06 42.0753Z" fill="#B62B6C"/>
<path d="M139.486 37.3773C139.533 36.1736 138.821 35.1682 137.895 35.1317C136.969 35.0952 136.18 36.0414 136.133 37.2451C136.085 38.4489 136.797 39.4543 137.723 39.4908C138.649 39.5273 139.438 38.5811 139.486 37.3773Z" fill="#B62B6C"/>
<path d="M133.949 36.0349C133.997 34.8312 133.285 33.8258 132.359 33.7893C131.433 33.7528 130.644 34.699 130.597 35.9027C130.549 37.1065 131.261 38.1119 132.187 38.1484C133.113 38.1849 133.902 37.2387 133.949 36.0349Z" fill="#B62B6C"/>
<path d="M132.607 31.2531C132.655 30.0493 131.943 29.0439 131.017 29.0074C130.091 28.9709 129.302 29.9171 129.255 31.1209C129.207 32.3246 129.919 33.33 130.845 33.3665C131.771 33.403 132.56 32.4568 132.607 31.2531Z" fill="#B62B6C"/>
<path d="M131.265 26.3873C131.313 25.1836 130.601 24.1781 129.675 24.1416C128.749 24.1051 127.96 25.0513 127.913 26.2551C127.865 27.4588 128.577 28.4642 129.503 28.5007C130.429 28.5373 131.218 27.591 131.265 26.3873Z" fill="#B62B6C"/>
<path d="M126.065 29.8267C126.112 28.623 125.4 27.6176 124.474 27.5811C123.548 27.5446 122.759 28.4908 122.712 29.6945C122.664 30.8983 123.377 31.9037 124.302 31.9402C125.228 31.9767 126.017 31.0305 126.065 29.8267Z" fill="#B62B6C"/>
<path d="M122.374 27.226C122.421 26.0222 121.709 25.0168 120.784 24.9803C119.858 24.9438 119.069 25.89 119.021 27.0938C118.974 28.2975 119.686 29.3029 120.612 29.3394C121.538 29.3759 122.327 28.4297 122.374 27.226Z" fill="#B62B6C"/>
<path d="M118.851 24.4574C118.898 23.2537 118.186 22.2483 117.26 22.2117C116.335 22.1752 115.546 23.1215 115.498 24.3252C115.451 25.5289 116.163 26.5344 117.088 26.5709C118.014 26.6074 118.803 25.6612 118.851 24.4574Z" fill="#B62B6C"/>
<path d="M116.505 31.1771C116.553 29.9733 115.784 28.9657 114.787 28.9264C113.791 28.8871 112.945 29.8311 112.898 31.0348C112.85 32.2385 113.619 33.2462 114.616 33.2855C115.612 33.3248 116.458 32.3808 116.505 31.1771Z" fill="#B62B6C"/>
<path d="M112.147 32.1046C112.198 30.8083 111.413 29.7248 110.395 29.6847C109.377 29.6445 108.51 30.6628 108.459 31.9592C108.407 33.2555 109.192 34.339 110.21 34.3791C111.228 34.4193 112.095 33.401 112.147 32.1046Z" fill="#B62B6C"/>
<path d="M107.952 33.1113C108.004 31.8149 107.219 30.7315 106.201 30.6913C105.183 30.6512 104.316 31.6695 104.264 32.9658C104.213 34.2622 104.997 35.3456 106.016 35.3858C107.034 35.4259 107.901 34.4076 107.952 33.1113Z" fill="#B62B6C"/>
<path d="M110.049 40.0825C110.1 38.7862 109.261 37.7006 108.174 37.6577C107.087 37.6148 106.164 38.631 106.113 39.9273C106.062 41.2237 106.902 42.3093 107.989 42.3521C109.076 42.395 109.998 41.3789 110.049 40.0825Z" fill="#B62B6C"/>
<path d="M107.113 44.0254C107.164 42.7291 106.325 41.6434 105.238 41.6006C104.151 41.5577 103.228 42.5739 103.177 43.8702C103.126 45.1665 103.966 46.2522 105.053 46.295C106.139 46.3379 107.062 45.3217 107.113 44.0254Z" fill="#B62B6C"/>
<path d="M104.345 48.1361C104.396 46.8397 103.556 45.7541 102.47 45.7112C101.383 45.6684 100.46 46.6845 100.409 47.9808C100.358 49.2772 101.198 50.3628 102.284 50.4057C103.371 50.4485 104.294 49.4324 104.345 48.1361Z" fill="#B62B6C"/>
<path d="M9.65828 100.47L5.56128 94.8921L24.288 79.7673L28.2877 84.6735L9.65828 100.47Z" fill="url(#paint28_linear)"/>
<path d="M14.4933 109.806C13.0975 109.661 10.1648 106.507 10.1648 106.507L29.113 91.2543L32.4215 95.2847C32.4181 95.2814 20.5633 110.433 14.4933 109.806Z" fill="url(#paint29_linear)"/>
<path d="M13.0405 106.352L9.82935 102.168L28.5796 87.073L31.8847 91.1L13.0405 106.352Z" fill="url(#paint30_linear)"/>
<path d="M12.7688 102.5L9.55762 98.3151L28.3079 83.2171L31.6163 87.2475L12.7688 102.5Z" fill="url(#paint31_linear)"/>
<path d="M7.59795 98.1406L4.25928 93.5229L23.0095 78.4249L26.318 82.4553L7.59795 98.1406Z" fill="url(#paint32_linear)"/>
<path d="M9.56078 96.1573L6.21875 91.5397L24.969 76.4417L28.2775 80.472L9.56078 96.1573Z" fill="url(#paint33_linear)"/>
<path d="M11.638 94.1874L7.54102 88.6133L26.2678 73.4885L30.2675 78.3914L11.638 94.1874Z" fill="url(#paint34_linear)"/>
<path d="M24.8449 119.262L21.4592 114.987L26.7172 110.389L30.8209 113.024L24.8449 119.262Z" fill="url(#paint35_linear)"/>
<path d="M22.0463 115.057L18.8049 110.97L34.0521 98.4728L40.2798 99.1641L22.0463 115.057Z" fill="url(#paint36_linear)"/>
<path d="M18.7748 111.336L15.5334 107.248L30.7772 94.7478L37.5687 95.7479L18.7748 111.336Z" fill="url(#paint37_linear)"/>
<path d="M27.358 117.162L23.969 112.89L34.3239 104.252L39.5752 105.973L27.358 117.162Z" fill="url(#paint38_linear)"/>
<path d="M31.3812 119.538L27.9922 115.266L35.9345 108.54L40.6422 110.695L31.3812 119.538Z" fill="url(#paint39_linear)"/>
<path d="M35.287 121.9L31.9014 117.628L39.3941 111.685L44.5514 113.057L35.287 121.9Z" fill="url(#paint40_linear)"/>
<path d="M8.52719 87.7509L5.2959 83.6735L62.6271 38.6413C62.6271 38.6413 63.4928 38.2386 64.7511 39.6212C66.4657 41.5038 65.5866 42.5072 65.5866 42.5072L8.52719 87.7509Z" fill="url(#paint41_linear)"/>
<path d="M12.047 88.8147L8.81567 84.7407L71.7337 35.2787L74.6831 39.148L12.047 88.8147Z" fill="url(#paint42_linear)"/>
<path d="M17.1473 84.9856L13.916 80.9083L71.9451 35.0002C71.9451 35.0002 72.7907 34.9532 73.9718 36.4767C75.314 38.2117 75.1227 39.0104 75.1227 39.0104L17.1473 84.9856Z" fill="url(#paint43_linear)"/>
<path d="M20.1136 89.2711L16.8823 85.1937L75.0825 38.8292C75.0825 38.8292 75.7973 38.3762 77.0958 39.7219C78.2434 40.9098 78.1729 42.0508 78.1729 42.0508L20.1136 89.2711Z" fill="url(#paint44_linear)"/>
<path d="M37.129 110.332L32.9683 106.03L90.541 59.414C90.541 59.414 91.5644 59.7831 91.8933 60.451C92.4402 61.555 92.3328 62.488 92.3328 62.488L37.129 110.332Z" fill="url(#paint45_linear)"/>
<path d="M23.6368 92.9021L20.4055 88.8247L78.6494 41.5675C78.6494 41.5675 79.354 41.2521 80.6828 42.6817C81.7464 43.8294 81.5988 44.4771 81.5988 44.4771L23.6368 92.9021Z" fill="url(#paint46_linear)"/>
<path d="M37.9008 107.258L33.9246 102.916L91.4168 56.4709C91.4168 56.4709 92.1818 56.5984 92.769 57.4441C93.618 58.6723 93.5374 59.2831 93.5374 59.2831L37.9008 107.258Z" fill="url(#paint47_linear)"/>
<path d="M32.8777 100.778L29.1699 96.1035L86.6756 49.6619C86.6756 49.6619 87.7426 49.437 88.9069 50.927C90.5847 53.0748 90.1417 53.7761 90.1417 53.7761L32.8777 100.778Z" fill="url(#paint48_linear)"/>
<path d="M37.9343 103.513L34.2266 98.8386L90.0041 53.8701C90.0041 53.8701 90.8564 53.9339 92.0275 55.4037C93.2254 56.9105 93.0207 57.8065 93.0207 57.8065L37.9343 103.513Z" fill="url(#paint49_linear)"/>
<path d="M40.998 116.286L37.4177 110.014L92.2625 62.2531C92.2625 62.2531 93.3497 62.9746 94.6449 64.5719C96.0441 66.3002 95.8897 67.6325 95.8897 67.6325L40.998 116.286Z" fill="url(#paint50_linear)"/>
<path d="M30.7201 96.7076L27.2036 92.2712L84.9106 45.8127C84.9106 45.8127 86.0246 45.4335 87.1319 46.7658C88.6418 48.5813 87.7023 49.4807 87.7023 49.4807L30.7201 96.7076Z" fill="url(#paint51_linear)"/>
<path d="M29.0121 91.8517L25.4956 87.4153L83.0046 41.1145C83.0046 41.1145 84.1186 40.7387 85.4608 42.5038C86.454 43.8093 85.7594 45.1382 85.7594 45.1382L29.0121 91.8517Z" fill="url(#paint52_linear)"/>
<path d="M17.8072 109.18L12.3677 109.557L12.4141 110.227L17.8536 109.849L17.8072 109.18Z" fill="#D9A6BB"/>
<path d="M24.9556 119.092L25.177 113.643L24.5065 113.616L24.2851 119.065L24.9556 119.092Z" fill="#D9A6BB"/>
<path d="M35.075 119.77L33.6567 114.505L33.0087 114.679L34.427 119.945L35.075 119.77Z" fill="#D9A6BB"/>
<path d="M39.8158 112.341L36.0862 108.363L35.5966 108.822L39.3262 112.8L39.8158 112.341Z" fill="#D9A6BB"/>
<path d="M36.3591 99.747L31.1611 98.0991L31.009 98.5789L36.207 100.227L36.3591 99.747Z" fill="#D9A6BB"/>
<path d="M25.7361 87.1868L22.4846 90.0949L22.932 90.5952L26.1835 87.6871L25.7361 87.1868Z" fill="#D9A6BB"/>
<path d="M13.59 81.8944L13.8918 86.2465L14.5613 86.2001L14.2595 81.8479L13.59 81.8944Z" fill="#D9A6BB"/>
<path d="M6.00815 87.1599L8.98047 90.3529L9.47164 89.8956L6.49932 86.7026L6.00815 87.1599Z" fill="#D9A6BB"/>
<path d="M6.16107 97.4538L9.6311 100.098L10.0378 99.5636L6.56775 96.9199L6.16107 97.4538Z" fill="#D9A6BB"/>
<path d="M13.8544 110.068C14.5518 109.531 14.3726 108.128 13.4542 106.936C12.5359 105.744 11.2261 105.213 10.5288 105.75C9.83142 106.288 10.0106 107.69 10.9289 108.882C11.8473 110.074 13.1571 110.605 13.8544 110.068Z" fill="#D9A6BB"/>
<path d="M12.7499 102.659C13.4473 102.122 13.2681 100.72 12.3497 99.5277C11.4314 98.3354 10.1216 97.8045 9.42426 98.3418C8.72692 98.8791 8.9061 100.281 9.82446 101.473C10.7428 102.666 12.0526 103.197 12.7499 102.659Z" fill="#D9A6BB"/>
<path d="M18.8337 111.573C19.531 111.036 19.3518 109.633 18.4335 108.441C17.5151 107.249 16.2053 106.718 15.508 107.255C14.8107 107.793 14.9898 109.195 15.9082 110.387C16.8266 111.579 18.1363 112.11 18.8337 111.573Z" fill="#D9A6BB"/>
<path d="M21.707 115.412C22.4043 114.875 22.2251 113.473 21.3068 112.28C20.3884 111.088 19.0786 110.557 18.3813 111.095C17.684 111.632 17.8631 113.034 18.7815 114.226C19.6998 115.418 21.0096 115.949 21.707 115.412Z" fill="#D9A6BB"/>
<path d="M24.6022 119.584C25.2996 119.046 25.1204 117.644 24.202 116.452C23.2837 115.26 21.9739 114.729 21.2766 115.266C20.5792 115.804 20.7584 117.206 21.6768 118.398C22.5951 119.59 23.9049 120.121 24.6022 119.584Z" fill="#D9A6BB"/>
<path d="M27.3766 117.119C28.074 116.582 27.8948 115.18 26.9764 113.987C26.0581 112.795 24.7483 112.264 24.051 112.802C23.3536 113.339 23.5328 114.741 24.4512 115.933C25.3695 117.125 26.6793 117.656 27.3766 117.119Z" fill="#D9A6BB"/>
<path d="M31.3325 119.62C32.0298 119.083 31.8506 117.681 30.9323 116.489C30.0139 115.296 28.7041 114.765 28.0068 115.303C27.3094 115.84 27.4886 117.242 28.407 118.434C29.3253 119.627 30.6351 120.157 31.3325 119.62Z" fill="#D9A6BB"/>
<path d="M35.1945 121.959C35.8919 121.422 35.7127 120.02 34.7943 118.828C33.876 117.636 32.5662 117.105 31.8688 117.642C31.1715 118.179 31.3507 119.581 32.269 120.773C33.1874 121.966 34.4972 122.497 35.1945 121.959Z" fill="#D9A6BB"/>
<path d="M34.6298 117.041C35.3271 116.504 35.0783 115.011 34.074 113.707C33.0697 112.403 31.6902 111.782 30.9929 112.319C30.2955 112.857 30.5444 114.349 31.5487 115.653C32.553 116.957 33.9325 117.578 34.6298 117.041Z" fill="#D9A6BB"/>
<path d="M37.7162 116.657C38.4136 116.12 38.1647 114.627 37.1604 113.323C36.1561 112.02 34.7766 111.398 34.0793 111.935C33.382 112.473 33.6308 113.965 34.6351 115.269C35.6394 116.573 37.0189 117.194 37.7162 116.657Z" fill="#D9A6BB"/>
<path d="M40.9687 116.265C41.666 115.727 41.4172 114.235 40.4128 112.931C39.4085 111.627 38.0291 111.006 37.3317 111.543C36.6344 112.08 36.8833 113.573 37.8876 114.877C38.8919 116.18 40.2713 116.802 40.9687 116.265Z" fill="#D9A6BB"/>
<path d="M37.0837 110.304C37.7269 109.703 37.3378 108.241 36.2145 107.038C35.0912 105.836 33.6591 105.348 33.0159 105.949C32.3726 106.55 32.7617 108.012 33.885 109.214C35.0083 110.417 36.4404 110.905 37.0837 110.304Z" fill="#D9A6BB"/>
<path d="M37.9635 107.217C38.6068 106.616 38.2177 105.153 37.0944 103.951C35.9711 102.748 34.539 102.26 33.8957 102.861C33.2524 103.462 33.6416 104.924 34.7649 106.127C35.8881 107.33 37.3202 107.817 37.9635 107.217Z" fill="#D9A6BB"/>
<path d="M38.8366 104.046C39.4799 103.445 39.0908 101.982 37.9675 100.78C36.8442 99.5769 35.4121 99.0891 34.7688 99.69C34.1255 100.291 34.5146 101.753 35.6379 102.956C36.7612 104.159 38.1933 104.646 38.8366 104.046Z" fill="#D9A6BB"/>
<path d="M32.9831 100.631C33.6938 100.036 33.414 98.531 32.3582 97.2687C31.3023 96.0064 29.8703 95.465 29.1596 96.0596C28.4489 96.6542 28.7287 98.1595 29.7845 99.4218C30.8404 100.684 32.2724 101.225 32.9831 100.631Z" fill="#D9A6BB"/>
<path d="M31.1767 96.3856C31.8874 95.791 31.6076 94.2857 30.5518 93.0234C29.4959 91.761 28.0639 91.2197 27.3532 91.8142C26.6425 92.4088 26.9223 93.9141 27.9781 95.1765C29.034 96.4388 30.466 96.9801 31.1767 96.3856Z" fill="#D9A6BB"/>
<path d="M29.1818 91.8964C29.8925 91.3018 29.6127 89.7965 28.5569 88.5342C27.5011 87.2718 26.069 86.7305 25.3583 87.3251C24.6477 87.9196 24.9274 89.4249 25.9833 90.6873C27.0391 91.9496 28.4711 92.4909 29.1818 91.8964Z" fill="#D9A6BB"/>
<path d="M24.7702 92.5397C25.4808 91.9451 25.2377 90.4836 24.227 89.2753C23.2164 88.067 21.821 87.5694 21.1103 88.164C20.3996 88.7585 20.6428 90.2201 21.6534 91.4284C22.6641 92.6367 24.0595 93.1342 24.7702 92.5397Z" fill="#D9A6BB"/>
<path d="M20.9618 89.0463C21.6996 88.4858 21.5253 87.0144 20.5725 85.7599C19.6197 84.5054 18.2491 83.9429 17.5113 84.5035C16.7734 85.064 16.9477 86.5354 17.9005 87.7899C18.8534 89.0443 20.2239 89.6069 20.9618 89.0463Z" fill="#D9A6BB"/>
<path d="M17.2626 85.4325C18.0004 84.872 17.8261 83.4006 16.8733 82.1461C15.9204 80.8917 14.5499 80.3291 13.812 80.8897C13.0742 81.4502 13.2485 82.9216 14.2013 84.1761C15.1542 85.4306 16.5247 85.9931 17.2626 85.4325Z" fill="#D9A6BB"/>
<path d="M16.0648 89.9723C16.8026 89.4118 16.6283 87.9404 15.6755 86.6859C14.7227 85.4315 13.3521 84.8689 12.6143 85.4295C11.8765 85.99 12.0507 87.4614 13.0036 88.7159C13.9564 89.9704 15.327 90.5329 16.0648 89.9723Z" fill="#D9A6BB"/>
<path d="M12.4691 89.0464C13.2069 88.4859 13.0326 87.0145 12.0798 85.76C11.127 84.5055 9.75642 83.943 9.01859 84.5036C8.28075 85.0641 8.45504 86.5355 9.40787 87.79C10.3607 89.0445 11.7313 89.607 12.4691 89.0464Z" fill="#D9A6BB"/>
<path d="M8.87144 88.1179C9.60927 87.5573 9.43499 86.086 8.48216 84.8315C7.52932 83.577 6.15877 83.0145 5.42093 83.575C4.6831 84.1356 4.85738 85.607 5.81021 86.8615C6.76304 88.1159 8.1336 88.6785 8.87144 88.1179Z" fill="#D9A6BB"/>
<path d="M11.523 94.0968C12.2431 93.5497 12.0545 92.0892 11.1016 90.8347C10.1488 89.5803 8.79259 89.0068 8.07246 89.5539C7.35233 90.101 7.54098 91.5615 8.49381 92.816C9.44664 94.0705 10.8028 94.6439 11.523 94.0968Z" fill="#D9A6BB"/>
<path d="M9.71731 95.9879C10.4374 95.4408 10.2488 93.9803 9.29596 92.7259C8.34313 91.4714 6.98693 90.8979 6.2668 91.445C5.54667 91.9922 5.73531 93.4526 6.68814 94.7071C7.64098 95.9616 8.99718 96.535 9.71731 95.9879Z" fill="#D9A6BB"/>
<path d="M7.75441 97.9736C8.47454 97.4265 8.2859 95.966 7.33307 94.7115C6.38024 93.457 5.02404 92.8836 4.30391 93.4307C3.58378 93.9778 3.77242 95.4383 4.72525 96.6928C5.67808 97.9472 7.03428 98.5207 7.75441 97.9736Z" fill="#D9A6BB"/>
<path d="M7.35531 97.3974C7.88508 96.9949 7.74476 95.9185 7.04191 94.9931C6.33906 94.0678 5.33982 93.6439 4.81006 94.0464C4.28029 94.4489 4.4206 95.5253 5.12346 96.4507C5.82631 97.376 6.82554 97.7999 7.35531 97.3974Z" fill="#B62B6C"/>
<path d="M9.14779 95.3397C9.67756 94.9372 9.53724 93.8608 8.83439 92.9354C8.13154 92.01 7.1323 91.5862 6.60254 91.9887C6.07277 92.3911 6.21308 93.4676 6.91594 94.3929C7.61879 95.3183 8.61803 95.7422 9.14779 95.3397Z" fill="#B62B6C"/>
<path d="M11.0406 93.5273C11.5704 93.1248 11.4301 92.0484 10.7272 91.123C10.0244 90.1977 9.02513 89.7738 8.49536 90.1763C7.96559 90.5788 8.10591 91.6552 8.80876 92.5805C9.51161 93.5059 10.5108 93.9298 11.0406 93.5273Z" fill="#B62B6C"/>
<path d="M8.51645 87.4785C9.04621 87.076 8.9059 85.9996 8.20305 85.0742C7.50019 84.1488 6.50096 83.725 5.97119 84.1274C5.44142 84.5299 5.58174 85.6064 6.28459 86.5317C6.98744 87.4571 7.98668 87.881 8.51645 87.4785Z" fill="#B62B6C"/>
<path d="M12.0352 88.4943C12.565 88.0918 12.4247 87.0154 11.7218 86.09C11.019 85.1647 10.0198 84.7408 9.48999 85.1433C8.96022 85.5457 9.10054 86.6222 9.80339 87.5475C10.5062 88.4729 11.5055 88.8968 12.0352 88.4943Z" fill="#B62B6C"/>
<path d="M15.6305 89.4249C16.1602 89.0224 16.0199 87.946 15.3171 87.0206C14.6142 86.0953 13.615 85.6714 13.0852 86.0739C12.5554 86.4763 12.6958 87.5528 13.3986 88.4781C14.1015 89.4035 15.1007 89.8274 15.6305 89.4249Z" fill="#B62B6C"/>
<path d="M16.9142 84.8764C17.4439 84.4739 17.3036 83.3975 16.6008 82.4722C15.8979 81.5468 14.8987 81.1229 14.3689 81.5254C13.8391 81.9279 13.9794 83.0043 14.6823 83.9297C15.3851 84.855 16.3844 85.2789 16.9142 84.8764Z" fill="#B62B6C"/>
<path d="M20.5213 88.4108C21.0511 88.0084 20.9108 86.9319 20.2079 86.0066C19.5051 85.0812 18.5058 84.6573 17.9761 85.0598C17.4463 85.4623 17.5866 86.5387 18.2895 87.4641C18.9923 88.3894 19.9916 88.8133 20.5213 88.4108Z" fill="#B62B6C"/>
<path d="M24.294 91.8751C24.8021 91.4457 24.6061 90.378 23.8562 89.4904C23.1063 88.6029 22.0864 88.2314 21.5783 88.6609C21.0701 89.0903 21.2661 90.1579 22.016 91.0455C22.7659 91.9331 23.7858 92.3046 24.294 91.8751Z" fill="#B62B6C"/>
<path d="M28.6218 91.2378C29.13 90.8084 28.934 89.7408 28.1841 88.8532C27.4342 87.9656 26.4143 87.5942 25.9062 88.0236C25.398 88.453 25.594 89.5207 26.3439 90.4083C27.0938 91.2959 28.1137 91.6673 28.6218 91.2378Z" fill="#B62B6C"/>
<path d="M30.6143 95.7245C31.1224 95.2951 30.9264 94.2274 30.1765 93.3398C29.4266 92.4522 28.4067 92.0808 27.8986 92.5102C27.3904 92.9397 27.5864 94.0073 28.3363 94.8949C29.0863 95.7825 30.1061 96.1539 30.6143 95.7245Z" fill="#B62B6C"/>
<path d="M32.5064 99.9658C33.0145 99.5363 32.8185 98.4687 32.0686 97.5811C31.3187 96.6935 30.2988 96.3221 29.7907 96.7515C29.2825 97.1809 29.4785 98.2486 30.2284 99.1362C30.9784 100.024 31.9982 100.395 32.5064 99.9658Z" fill="#B62B6C"/>
<path d="M13.1728 106.33C13.8701 105.793 13.6909 104.391 12.7726 103.199C11.8542 102.007 10.5444 101.476 9.84711 102.013C9.14977 102.55 9.32895 103.952 10.2473 105.145C11.1657 106.337 12.4754 106.868 13.1728 106.33Z" fill="#D9A6BB"/>
<path d="M38.136 103.693C38.6442 103.264 38.389 102.126 37.5662 101.152C36.7433 100.178 35.6643 99.737 35.1562 100.166C34.648 100.596 34.9032 101.734 35.726 102.707C36.5489 103.681 37.6279 104.123 38.136 103.693Z" fill="#B62B6C"/>
<path d="M37.3394 106.774C37.8475 106.345 37.5924 105.207 36.7695 104.233C35.9467 103.259 34.8677 102.818 34.3595 103.247C33.8514 103.677 34.1065 104.815 34.9294 105.788C35.7523 106.762 36.8313 107.204 37.3394 106.774Z" fill="#B62B6C"/>
<path d="M36.7181 109.928C37.2262 109.498 36.9711 108.361 36.1482 107.387C35.3253 106.413 34.2463 105.971 33.7382 106.401C33.23 106.83 33.4852 107.968 34.3081 108.942C35.1309 109.916 36.2099 110.357 36.7181 109.928Z" fill="#B62B6C"/>
<path d="M40.5669 115.717C41.0751 115.287 40.82 114.15 39.9971 113.176C39.1742 112.202 38.0952 111.76 37.5871 112.19C37.0789 112.619 37.3341 113.757 38.1569 114.731C38.9798 115.705 40.0588 116.146 40.5669 115.717Z" fill="#B62B6C"/>
<path d="M37.3936 116.022C37.9017 115.592 37.6466 114.455 36.8237 113.481C36.0009 112.507 34.9219 112.065 34.4137 112.495C33.9056 112.924 34.1607 114.062 34.9836 115.036C35.8065 116.01 36.8855 116.451 37.3936 116.022Z" fill="#B62B6C"/>
<path d="M34.3326 116.714C34.8604 116.309 34.6592 115.16 33.8831 114.149C33.107 113.137 32.05 112.645 31.5221 113.05C30.9943 113.455 31.1955 114.604 31.9716 115.615C32.7477 116.627 33.8047 117.119 34.3326 116.714Z" fill="#B62B6C"/>
<path d="M34.9258 121.633C35.4537 121.228 35.2524 120.08 34.4763 119.068C33.7003 118.056 32.6432 117.564 32.1154 117.969C31.5876 118.374 31.7888 119.523 32.5649 120.535C33.341 121.546 34.398 122.038 34.9258 121.633Z" fill="#B62B6C"/>
<path d="M31.064 119.294C31.5918 118.889 31.3906 117.741 30.6145 116.729C29.8385 115.717 28.7814 115.226 28.2536 115.631C27.7257 116.036 27.927 117.184 28.7031 118.196C29.4791 119.208 30.5362 119.699 31.064 119.294Z" fill="#B62B6C"/>
<path d="M27.1016 116.71C27.6294 116.305 27.4282 115.157 26.6521 114.145C25.8761 113.133 24.819 112.642 24.2912 113.047C23.7633 113.452 23.9646 114.6 24.7407 115.612C25.5167 116.623 26.5738 117.115 27.1016 116.71Z" fill="#B62B6C"/>
<path d="M24.334 119.258C24.8619 118.853 24.6606 117.705 23.8845 116.693C23.1085 115.681 22.0514 115.19 21.5236 115.595C20.9958 116 21.197 117.148 21.9731 118.16C22.7492 119.171 23.8062 119.663 24.334 119.258Z" fill="#B62B6C"/>
<path d="M18.5042 111.209C19.0321 110.804 18.8656 109.7 18.1324 108.745C17.3992 107.789 16.3769 107.342 15.849 107.747C15.3212 108.152 15.4877 109.255 16.2209 110.211C16.9541 111.167 17.9764 111.614 18.5042 111.209Z" fill="#B62B6C"/>
<path d="M12.7498 105.805C13.2777 105.4 13.1112 104.297 12.378 103.341C11.6448 102.385 10.6225 101.939 10.0946 102.344C9.56681 102.749 9.7333 103.852 10.4665 104.808C11.1997 105.763 12.222 106.21 12.7498 105.805Z" fill="#B62B6C"/>
<path d="M12.41 102.127C12.9378 101.722 12.7714 100.619 12.0381 99.6632C11.3049 98.7074 10.2826 98.2609 9.75481 98.6659C9.22697 99.0709 9.39346 100.174 10.1267 101.13C10.8599 102.086 11.8822 102.532 12.41 102.127Z" fill="#B62B6C"/>
<path d="M21.3844 115.131C21.9122 114.726 21.7457 113.623 21.0125 112.667C20.2793 111.711 19.257 111.264 18.7292 111.669C18.2013 112.074 18.3678 113.178 19.101 114.133C19.8342 115.089 20.8565 115.536 21.3844 115.131Z" fill="#B62B6C"/>
<path d="M13.5252 109.704C14.0531 109.299 13.8866 108.196 13.1534 107.24C12.4202 106.284 11.3979 105.838 10.87 106.243C10.3422 106.648 10.5087 107.751 11.2419 108.707C11.9751 109.662 12.9974 110.109 13.5252 109.704Z" fill="#B62B6C"/>
</g>
</g>
<defs>
<linearGradient id="paint0_linear" x1="118.352" y1="57.2907" x2="118.352" y2="64.2357" gradientUnits="userSpaceOnUse">
<stop stop-color="#CC3779"/>
<stop offset="1" stop-color="#9A265A"/>
</linearGradient>
<linearGradient id="paint1_linear" x1="118.352" y1="57.2907" x2="118.352" y2="64.2357" gradientUnits="userSpaceOnUse">
<stop stop-color="#CC3779"/>
<stop offset="1" stop-color="#9A265A"/>
</linearGradient>
<linearGradient id="paint2_linear" x1="116.669" y1="59.5484" x2="116.669" y2="67.3615" gradientUnits="userSpaceOnUse">
<stop stop-color="#CC3779"/>
<stop offset="1" stop-color="#9A265A"/>
</linearGradient>
<linearGradient id="paint3_linear" x1="114.279" y1="58.7933" x2="114.279" y2="66.6064" gradientUnits="userSpaceOnUse">
<stop stop-color="#CC3779"/>
<stop offset="1" stop-color="#9A265A"/>
</linearGradient>
<linearGradient id="paint4_linear" x1="118.909" y1="65.2032" x2="118.909" y2="69.1097" gradientUnits="userSpaceOnUse">
<stop stop-color="#CC3779"/>
<stop offset="1" stop-color="#9A265A"/>
</linearGradient>
<linearGradient id="paint5_linear" x1="133.331" y1="50.9227" x2="132.686" y2="47.8735" gradientUnits="userSpaceOnUse">
<stop stop-color="#CC3779"/>
<stop offset="1" stop-color="#9A265A"/>
</linearGradient>
<linearGradient id="paint6_linear" x1="122.991" y1="34.6506" x2="122.991" y2="40.2066" gradientUnits="userSpaceOnUse">
<stop stop-color="#CC3779"/>
<stop offset="1" stop-color="#9A265A"/>
</linearGradient>
<linearGradient id="paint7_linear" x1="121.187" y1="38.6724" x2="121.187" y2="44.8361" gradientUnits="userSpaceOnUse">
<stop stop-color="#CC3779"/>
<stop offset="1" stop-color="#9A265A"/>
</linearGradient>
<linearGradient id="paint8_linear" x1="119.593" y1="42.7766" x2="119.593" y2="49.7216" gradientUnits="userSpaceOnUse">
<stop stop-color="#CC3779"/>
<stop offset="1" stop-color="#9A265A"/>
</linearGradient>
<linearGradient id="paint9_linear" x1="120.992" y1="46.9609" x2="120.992" y2="55.1213" gradientUnits="userSpaceOnUse">
<stop stop-color="#CC3779"/>
<stop offset="1" stop-color="#9A265A"/>
</linearGradient>
<linearGradient id="paint10_linear" x1="118.851" y1="48.8007" x2="118.851" y2="57.6555" gradientUnits="userSpaceOnUse">
<stop stop-color="#CC3779"/>
<stop offset="1" stop-color="#9A265A"/>
</linearGradient>
<linearGradient id="paint11_linear" x1="117.634" y1="52.6704" x2="117.634" y2="60.3098" gradientUnits="userSpaceOnUse">
<stop stop-color="#CC3779"/>
<stop offset="1" stop-color="#9A265A"/>
</linearGradient>
<linearGradient id="paint12_linear" x1="118.377" y1="33.2237" x2="118.377" y2="38.8665" gradientUnits="userSpaceOnUse">
<stop stop-color="#CC3779"/>
<stop offset="1" stop-color="#9A265A"/>
</linearGradient>
<linearGradient id="paint13_linear" x1="122.823" y1="28.3576" x2="122.823" y2="34.0005" gradientUnits="userSpaceOnUse">
<stop stop-color="#CC3779"/>
<stop offset="1" stop-color="#9A265A"/>
</linearGradient>
<linearGradient id="paint14_linear" x1="121.355" y1="23.5755" x2="121.355" y2="29.2183" gradientUnits="userSpaceOnUse">
<stop stop-color="#CC3779"/>
<stop offset="1" stop-color="#9A265A"/>
</linearGradient>
<linearGradient id="paint15_linear" x1="98.0212" y1="62.2203" x2="98.0212" y2="71.5092" gradientUnits="userSpaceOnUse">
<stop stop-color="#CC3779"/>
<stop offset="1" stop-color="#9A265A"/>
</linearGradient>
<linearGradient id="paint16_linear" x1="95.9661" y1="60.8143" x2="95.9661" y2="67.7593" gradientUnits="userSpaceOnUse">
<stop stop-color="#CC3779"/>
<stop offset="1" stop-color="#9A265A"/>
</linearGradient>
<linearGradient id="paint17_linear" x1="88.7098" y1="55.4202" x2="88.7098" y2="65.23" gradientUnits="userSpaceOnUse">
<stop stop-color="#CC3779"/>
<stop offset="1" stop-color="#9A265A"/>
</linearGradient>
<linearGradient id="paint18_linear" x1="89.2386" y1="50.304" x2="89.2386" y2="59.9402" gradientUnits="userSpaceOnUse">
<stop stop-color="#CC3779"/>
<stop offset="1" stop-color="#9A265A"/>
</linearGradient>
<linearGradient id="paint19_linear" x1="76.3974" y1="44.9347" x2="76.3974" y2="54.5708" gradientUnits="userSpaceOnUse">
<stop stop-color="#CC3779"/>
<stop offset="1" stop-color="#9A265A"/>
</linearGradient>
<linearGradient id="paint20_linear" x1="83.184" y1="26.7487" x2="83.184" y2="34.1277" gradientUnits="userSpaceOnUse">
<stop stop-color="#CC3779"/>
<stop offset="1" stop-color="#9A265A"/>
</linearGradient>
<linearGradient id="paint21_linear" x1="85.3744" y1="21.2045" x2="85.3744" y2="28.6767" gradientUnits="userSpaceOnUse">
<stop stop-color="#CC3779"/>
<stop offset="1" stop-color="#9A265A"/>
</linearGradient>
<linearGradient id="paint22_linear" x1="78.9492" y1="27.2475" x2="78.9492" y2="35.1474" gradientUnits="userSpaceOnUse">
<stop stop-color="#CC3779"/>
<stop offset="1" stop-color="#9A265A"/>
</linearGradient>
<linearGradient id="paint23_linear" x1="74.9825" y1="28.0707" x2="74.9825" y2="37.7937" gradientUnits="userSpaceOnUse">
<stop stop-color="#CC3779"/>
<stop offset="1" stop-color="#9A265A"/>
</linearGradient>
<linearGradient id="paint24_linear" x1="109.791" y1="57.8899" x2="109.791" y2="63.4459" gradientUnits="userSpaceOnUse">
<stop stop-color="#CC3779"/>
<stop offset="1" stop-color="#9A265A"/>
</linearGradient>
<linearGradient id="paint25_linear" x1="76.9352" y1="34.3712" x2="76.9352" y2="43.1392" gradientUnits="userSpaceOnUse">
<stop stop-color="#CC3779"/>
<stop offset="1" stop-color="#9A265A"/>
</linearGradient>
<linearGradient id="paint26_linear" x1="74.1346" y1="36.9608" x2="74.1346" y2="47.031" gradientUnits="userSpaceOnUse">
<stop stop-color="#CC3779"/>
<stop offset="1" stop-color="#9A265A"/>
</linearGradient>
<linearGradient id="paint27_linear" x1="71.5921" y1="40.393" x2="71.5921" y2="51.2453" gradientUnits="userSpaceOnUse">
<stop stop-color="#CC3779"/>
<stop offset="1" stop-color="#9A265A"/>
</linearGradient>
<linearGradient id="paint28_linear" x1="15.1141" y1="87.6968" x2="21.2708" y2="95.4609" gradientUnits="userSpaceOnUse">
<stop stop-color="#CA3879"/>
<stop offset="1" stop-color="#892450"/>
</linearGradient>
<linearGradient id="paint29_linear" x1="19.9446" y1="99.1916" x2="26.2372" y2="107.127" gradientUnits="userSpaceOnUse">
<stop stop-color="#CA3879"/>
<stop offset="1" stop-color="#892450"/>
</linearGradient>
<linearGradient id="paint30_linear" x1="19.3962" y1="94.8538" x2="24.1043" y2="100.791" gradientUnits="userSpaceOnUse">
<stop stop-color="#CA3879"/>
<stop offset="1" stop-color="#892450"/>
</linearGradient>
<linearGradient id="paint31_linear" x1="19.1249" y1="91.0004" x2="23.833" y2="96.9377" gradientUnits="userSpaceOnUse">
<stop stop-color="#CA3879"/>
<stop offset="1" stop-color="#892450"/>
</linearGradient>
<linearGradient id="paint32_linear" x1="13.7796" y1="86.2837" x2="18.8499" y2="92.6776" gradientUnits="userSpaceOnUse">
<stop stop-color="#CA3879"/>
<stop offset="1" stop-color="#892450"/>
</linearGradient>
<linearGradient id="paint33_linear" x1="15.7402" y1="84.3006" x2="20.8105" y2="90.6946" gradientUnits="userSpaceOnUse">
<stop stop-color="#CA3879"/>
<stop offset="1" stop-color="#892450"/>
</linearGradient>
<linearGradient id="paint34_linear" x1="17.0935" y1="81.416" x2="23.2503" y2="89.1801" gradientUnits="userSpaceOnUse">
<stop stop-color="#CA3879"/>
<stop offset="1" stop-color="#892450"/>
</linearGradient>
<linearGradient id="paint35_linear" x1="24.8627" y1="112.392" x2="29.8605" y2="118.695" gradientUnits="userSpaceOnUse">
<stop stop-color="#CA3879"/>
<stop offset="1" stop-color="#892450"/>
</linearGradient>
<linearGradient id="paint36_linear" x1="28.3224" y1="103.522" x2="33.1029" y2="109.551" gradientUnits="userSpaceOnUse">
<stop stop-color="#CA3879"/>
<stop offset="1" stop-color="#892450"/>
</linearGradient>
<linearGradient id="paint37_linear" x1="25.1489" y1="99.7219" x2="29.9294" y2="105.75" gradientUnits="userSpaceOnUse">
<stop stop-color="#CA3879"/>
<stop offset="1" stop-color="#892450"/>
</linearGradient>
<linearGradient id="paint38_linear" x1="30.4964" y1="107.818" x2="35.4942" y2="114.12" gradientUnits="userSpaceOnUse">
<stop stop-color="#CA3879"/>
<stop offset="1" stop-color="#892450"/>
</linearGradient>
<linearGradient id="paint39_linear" x1="33.0422" y1="111.366" x2="38.04" y2="117.669" gradientUnits="userSpaceOnUse">
<stop stop-color="#CA3879"/>
<stop offset="1" stop-color="#892450"/>
</linearGradient>
<linearGradient id="paint40_linear" x1="37.1427" y1="113.973" x2="41.8508" y2="119.91" gradientUnits="userSpaceOnUse">
<stop stop-color="#CA3879"/>
<stop offset="1" stop-color="#892450"/>
</linearGradient>
<linearGradient id="paint41_linear" x1="34.5108" y1="60.9868" x2="39.0016" y2="66.6501" gradientUnits="userSpaceOnUse">
<stop stop-color="#CA3879"/>
<stop offset="1" stop-color="#892450"/>
</linearGradient>
<linearGradient id="paint42_linear" x1="40.4045" y1="60.1676" x2="44.8953" y2="65.8308" gradientUnits="userSpaceOnUse">
<stop stop-color="#CA3879"/>
<stop offset="1" stop-color="#892450"/>
</linearGradient>
<linearGradient id="paint43_linear" x1="43.4011" y1="58.0056" x2="47.8919" y2="63.6689" gradientUnits="userSpaceOnUse">
<stop stop-color="#CA3879"/>
<stop offset="1" stop-color="#892450"/>
</linearGradient>
<linearGradient id="paint44_linear" x1="46.5835" y1="61.9218" x2="51.2192" y2="67.7677" gradientUnits="userSpaceOnUse">
<stop stop-color="#CA3879"/>
<stop offset="1" stop-color="#892450"/>
</linearGradient>
<linearGradient id="paint45_linear" x1="61.9969" y1="82.6639" x2="67.7915" y2="89.9713" gradientUnits="userSpaceOnUse">
<stop stop-color="#CA3879"/>
<stop offset="1" stop-color="#892450"/>
</linearGradient>
<linearGradient id="paint46_linear" x1="49.8992" y1="64.9217" x2="55.1143" y2="71.4984" gradientUnits="userSpaceOnUse">
<stop stop-color="#CA3879"/>
<stop offset="1" stop-color="#892450"/>
</linearGradient>
<linearGradient id="paint47_linear" x1="62.9394" y1="79.6526" x2="68.5892" y2="86.7773" gradientUnits="userSpaceOnUse">
<stop stop-color="#CA3879"/>
<stop offset="1" stop-color="#892450"/>
</linearGradient>
<linearGradient id="paint48_linear" x1="58.3943" y1="72.6937" x2="64.1164" y2="79.9098" gradientUnits="userSpaceOnUse">
<stop stop-color="#CA3879"/>
<stop offset="1" stop-color="#892450"/>
</linearGradient>
<linearGradient id="paint49_linear" x1="62.4814" y1="76.2975" x2="68.1312" y2="83.4222" gradientUnits="userSpaceOnUse">
<stop stop-color="#CA3879"/>
<stop offset="1" stop-color="#892450"/>
</linearGradient>
<linearGradient id="paint50_linear" x1="64.0118" y1="85.6181" x2="73.0659" y2="97.0359" gradientUnits="userSpaceOnUse">
<stop stop-color="#CA3879"/>
<stop offset="1" stop-color="#892450"/>
</linearGradient>
<linearGradient id="paint51_linear" x1="56.6183" y1="68.8171" x2="61.9783" y2="75.5764" gradientUnits="userSpaceOnUse">
<stop stop-color="#CA3879"/>
<stop offset="1" stop-color="#892450"/>
</linearGradient>
<linearGradient id="paint52_linear" x1="54.7767" y1="64.0673" x2="60.1367" y2="70.8266" gradientUnits="userSpaceOnUse">
<stop stop-color="#CA3879"/>
<stop offset="1" stop-color="#892450"/>
</linearGradient>
<clipPath id="clip0">
<rect width="150" height="140" fill="white"/>
</clipPath>
<clipPath id="clip1">
<rect width="149.986" height="108" fill="white" transform="translate(-9.44727 21)"/>
</clipPath>
</defs>
</svg>
