<svg width="140" height="140" viewBox="0 0 140 140" fill="none" xmlns="http://www.w3.org/2000/svg">
<path d="M63.9702 35.6859C58.9834 36.5277 49.546 38.1199 42.5611 46.2686C41.0109 48.0773 36.6338 53.3196 35.9612 60.7899C34.7141 74.6394 47.1131 85.9666 56.2007 90.8591C59.4754 92.6221 74.6865 100.812 88.7601 92.913C100.342 86.4129 102.909 73.6447 103.427 70.4711C103.63 69.2263 106.236 51.4488 93.4535 40.8416C83.3083 32.4224 70.7295 34.5457 63.9702 35.6859Z" fill="#DBBBAD" stroke="#463C43" stroke-width="0.217605" stroke-miterlimit="10"/>
<path d="M99.146 88.3223C102.232 89.6978 105.14 91.4118 107.981 93.2082C110.817 95.0145 113.621 96.8649 116.441 98.6924C113.585 96.923 110.742 95.1281 107.873 93.3815C105.001 91.6447 102.068 89.997 98.9834 88.6966L99.146 88.3223Z" fill="#463C43"/>
<path d="M96.0912 92.3008C99.0945 94.6857 101.775 97.4132 104.577 99.9935C107.373 102.57 110.331 105.036 113.752 106.749C110.3 105.097 107.286 102.675 104.441 100.145C101.588 97.6101 98.8592 94.9326 95.8403 92.6228L96.0912 92.3008Z" fill="#463C43"/>
<path d="M91.1183 96.2227C93.1246 98.4523 95.0369 100.766 96.8283 103.17C97.7248 104.371 98.5862 105.598 99.4205 106.84C100.257 108.076 101.124 109.314 102.275 110.281C101.103 109.34 100.201 108.116 99.3372 106.899C98.4742 105.675 97.5883 104.471 96.6665 103.293C94.8253 100.936 92.8672 98.6746 90.8184 96.4989L91.1183 96.2227Z" fill="#463C43"/>
<path d="M87.1659 96.6875L95.8922 115.268L86.8022 96.873L87.1659 96.6875Z" fill="#463C43"/>
<path d="M82.3571 99.2695C84.079 102.03 84.9257 105.193 85.5574 108.318C86.1932 111.453 86.632 114.627 87.5482 117.695C86.5667 114.647 86.0584 111.474 85.3572 108.361C84.6617 105.257 83.7505 102.146 82.0122 99.4894L82.3571 99.2695Z" fill="#463C43"/>
<path d="M76.6973 100.487C76.4407 101.955 76.9899 103.466 77.28 104.975C77.6028 106.488 77.8855 108.009 78.1217 109.538C78.5949 112.594 78.8915 115.675 79.0133 118.761C78.8237 115.678 78.4592 112.608 77.9207 109.571C77.6518 108.053 77.3364 106.543 76.9817 105.043C76.6696 103.554 76.0591 102.053 76.2953 100.418L76.6973 100.487Z" fill="#463C43"/>
<path d="M69.954 99.2773C71.6669 108.37 73.1453 117.505 74.3875 126.671C73.0105 117.525 71.398 108.416 69.5527 99.3558L69.954 99.2773Z" fill="#463C43"/>
<path d="M64.5897 101.071C64.4859 108.066 63.7627 115.046 62.4331 121.903C63.6287 115.022 64.2138 108.041 64.1811 101.068L64.5897 101.071Z" fill="#463C43"/>
<path d="M61.6069 98.9942L61.4345 99.0269L61.589 98.8872C59.5238 105.439 56.9888 111.82 54.3467 118.146C56.8637 111.77 59.2713 105.342 61.2008 98.7694L61.2343 98.6551L61.3552 98.6297L61.5269 98.5938L61.6069 98.9942Z" fill="#463C43"/>
<path d="M53.4709 91.7089C52.035 94.8196 50.5959 97.9467 48.8184 100.89C47.9603 102.381 46.893 103.732 45.8747 105.11C44.8638 106.497 43.8129 107.849 42.7554 109.199C43.7851 107.829 44.8099 106.455 45.7914 105.052C46.7811 103.655 47.8181 102.288 48.6419 100.787C50.3523 97.8224 51.7237 94.6807 53.0974 91.543L53.4709 91.7089Z" fill="#463C43"/>
<path d="M55.6589 97.6699C53.0201 102.706 50.57 107.844 48.3145 113.068C50.4442 107.791 52.7725 102.592 55.2945 97.4844L55.6589 97.6699Z" fill="#463C43"/>
<path d="M45.613 90.1509C40.6042 93.4389 35.7122 96.9101 30.9502 100.556C35.628 96.8038 40.444 93.2191 45.385 89.8125L45.613 90.1509Z" fill="#463C43"/>
<path d="M41.2782 85.7359C39.6756 86.2476 38.1531 87.0076 36.6175 87.7375L32.0133 89.9361L22.8047 94.3341L31.9242 89.753L36.4835 87.4621C38.0019 86.7028 39.5187 85.9059 41.1515 85.3477L41.2782 85.7359Z" fill="#463C43"/>
<path d="M47.0023 93.1128C42.7878 98.0281 38.2628 102.671 33.4648 107.006C38.1705 102.572 42.5901 97.8394 46.6893 92.8496L47.0023 93.1128Z" fill="#463C43"/>
<path d="M39.6781 82.0933C33.9714 83.9118 28.3227 85.9224 22.7451 88.1194C28.2712 85.7957 33.8766 83.656 39.5499 81.7051L39.6781 82.0933Z" fill="#463C43"/>
<path d="M36.2698 78.6039L27.1912 81.3656L22.6515 82.7469L20.382 83.4375L19.2469 83.7824L18.6797 83.9549C18.5882 83.9794 18.473 84.0064 18.3929 83.9344C18.2768 83.8519 18.5187 83.7129 18.5138 83.8429C18.5155 83.7154 18.2834 83.8584 18.397 83.9303C18.4738 83.9974 18.5857 83.9704 18.6756 83.9434L19.2395 83.7587L20.3665 83.3893L22.6204 82.6504L27.1291 81.1719L36.1464 78.2148L36.2698 78.6039Z" fill="#463C43"/>
<path d="M35.9171 71.4016L19.1147 74.8147L19.1123 74.804L19.574 74.7321L19.1139 74.8147L19.1123 74.804L35.8312 71.002L35.9171 71.4016Z" fill="#463C43"/>
<path d="M36.5761 66.0402C33.3342 65.7869 30.1216 66.7047 26.8601 67.0455C25.2215 67.2392 23.5748 67.1404 21.9436 67.1739C20.31 67.2098 18.6804 67.4575 17.1064 67.9103C18.6706 67.4248 20.3002 67.142 21.9404 67.0717C23.5806 67.0047 25.2199 67.0684 26.8372 66.8428C30.0669 66.4407 33.2582 65.446 36.6047 65.6324L36.5761 66.0402Z" fill="#463C43"/>
<path d="M39.0079 59.2744C32.6131 59.0178 26.2346 58.4399 19.9043 57.5449C26.2526 58.3042 32.6351 58.7456 39.0202 58.8658L39.0079 59.2744Z" fill="#463C43"/>
<path d="M39.2548 64.0813C36.0865 64.1614 32.9123 63.8656 29.8199 63.2158C28.2729 62.9011 26.739 62.5366 25.183 62.2963C23.6294 62.0561 22.0456 61.94 20.4766 62.1239C22.0407 61.9049 23.6343 61.9866 25.1977 62.195C26.7643 62.4026 28.3089 62.7344 29.8583 63.0148C32.9515 63.5959 36.1052 63.819 39.2401 63.6727L39.2548 64.0813Z" fill="#463C43"/>
<path d="M43.175 49.6368C40.4225 49.2347 37.957 47.909 35.6524 46.4999C33.3364 45.0859 31.0979 43.5314 28.5898 42.4746C31.1241 43.4685 33.4123 44.9732 35.7561 46.3242C38.0893 47.6744 40.5599 48.9127 43.2289 49.2322L43.175 49.6368Z" fill="#463C43"/>
<path d="M46.4373 43.9324C43.8524 43.2034 41.5061 41.9039 39.2252 40.5749C36.9411 39.2451 34.6806 37.8557 32.2109 36.8945C34.7051 37.7919 37.0113 39.1283 39.3257 40.3976C41.6377 41.6661 44.0011 42.8928 46.5427 43.5377L46.4373 43.9324Z" fill="#463C43"/>
<path d="M51.1818 44.1393L45.8648 35.5966C44.0955 32.7654 42.2371 29.9162 39.6416 27.7617C42.2813 29.8622 44.2091 32.6894 46.0365 35.4862L51.5258 43.9194L51.1818 44.1393Z" fill="#463C43"/>
<path d="M57.7611 38.5496C55.8373 32.1402 54.4064 25.5885 53.4829 18.9707C54.5412 25.5681 56.1046 32.0789 58.1518 38.4278L57.7611 38.5496Z" fill="#463C43"/>
<path d="M54.1169 38.8235C53.0618 37.4962 52.238 36.0144 51.5107 34.5064C50.7858 32.9944 50.1214 31.4636 49.4301 29.9417L45.3145 20.8008L49.6156 29.8559C50.338 31.3622 51.0351 32.8832 51.7853 34.3699C52.538 35.8534 53.3806 37.2943 54.434 38.5652L54.1169 38.8235Z" fill="#463C43"/>
<path d="M66.2702 34.5357C65.1383 31.2027 65.1187 27.671 65.1351 24.235C65.1522 20.7941 65.2258 17.3033 64.3179 13.9531C65.2936 17.2845 65.2895 20.7957 65.3394 24.2342C65.3884 27.6694 65.4856 31.1741 66.6559 34.4008L66.2702 34.5357Z" fill="#463C43"/>
<path d="M61.0743 35.0175C59.2061 28.0923 58.0661 20.9784 57.6763 13.8301C58.2018 20.9694 59.4758 28.0466 61.4682 34.9072L61.0743 35.0175Z" fill="#463C43"/>
<path d="M75.306 35.3837C74.568 27.7883 74.4651 20.1374 74.9963 12.5371C74.6007 20.1464 74.841 27.7826 75.7121 35.3404L75.306 35.3837Z" fill="#463C43"/>
<path d="M70.2172 35.6652C69.5193 28.0168 69.1221 20.3437 69.0273 12.6699C69.2586 20.3413 69.7914 28.0004 70.6242 35.6244L70.2172 35.6652Z" fill="#463C43"/>
<path d="M77.3994 36.2719L86.5361 14.3906L77.7778 36.4256L77.3994 36.2719Z" fill="#463C43"/>
<path d="M82.2368 35.6958L93.8619 21.5391L82.5555 35.9516L82.2368 35.6958Z" fill="#463C43"/>
<path d="M89.5674 40.6668L102.241 29.2676L89.8477 40.9634L89.5674 40.6668Z" fill="#463C43"/>
<path d="M94.6709 44.8835L106.896 35.9297L94.912 45.2137L94.6709 44.8835Z" fill="#463C43"/>
<path d="M98.5625 50.0336C101.489 49.0618 104.199 47.5195 106.941 46.0737C109.678 44.6295 112.515 43.2458 115.58 42.6777C112.528 43.3136 109.738 44.7521 107.038 46.2527C104.331 47.7549 101.651 49.3642 98.6957 50.4194L98.5625 50.0336Z" fill="#463C43"/>
<path d="M100.876 55.1161C106.97 54.3208 113 53.0025 118.879 51.1758C113.042 53.1316 107.031 54.5873 100.934 55.5207L100.876 55.1161Z" fill="#463C43"/>
<path d="M102.742 60.6234C109.07 60.9871 115.466 60.3512 121.619 58.7402C115.502 60.4819 109.101 61.2608 102.724 61.0312L102.742 60.6234Z" fill="#463C43"/>
<path d="M104.363 68.0408C110.128 67.9689 115.893 67.5839 121.624 66.8867C115.911 67.7188 110.149 68.241 104.373 68.4495L104.363 68.0408Z" fill="#463C43"/>
<path d="M104.923 74.5098C110.583 75.2437 116.309 75.5085 122.024 75.2984C116.316 75.645 110.574 75.5174 104.876 74.9159L104.923 74.5098Z" fill="#463C43"/>
<path d="M103.115 80.7949C109.831 81.2632 116.428 83.1618 122.345 86.3151C116.366 83.282 109.758 81.5321 103.091 81.2027L103.115 80.7949Z" fill="#463C43"/>
<path d="M102.823 85.0332C107.625 87.1926 112.592 88.9939 117.672 90.4169C112.557 89.1263 107.535 87.4508 102.661 85.4083L102.823 85.0332Z" fill="#463C43"/>
<path d="M97.3134 90.6445C102.805 93.9171 107.978 97.711 112.739 101.958C107.888 97.814 102.646 94.1394 97.1074 90.9984L97.3134 90.6445Z" fill="#463C43"/>
<path d="M92.0309 92.6133C95.7534 96.2683 99.5928 99.8065 103.542 103.222C99.5054 99.9111 95.5712 96.471 91.749 92.9083L92.0309 92.6133Z" fill="#463C43"/>
<path d="M90.1147 97.7578L95.0565 109.356L89.7388 97.9188L90.1147 97.7578Z" fill="#463C43"/>
<path d="M83.4672 98.1211C85.9296 101.878 87.7397 106.047 88.8013 110.387C87.6081 106.081 85.6787 101.992 83.1289 98.35L83.4672 98.1211Z" fill="#463C43"/>
<path d="M79.6147 98.7891C80.6967 104.02 81.4886 109.306 81.9879 114.616C81.3537 109.32 80.4278 104.063 79.2158 98.8773L79.6147 98.7891Z" fill="#463C43"/>
<path d="M72.511 99.8359C73.6151 104.818 74.4478 109.855 75.0044 114.92C74.313 109.873 73.347 104.866 72.1138 99.9299L72.511 99.8359Z" fill="#463C43"/>
<path d="M67.8334 100.104C67.0398 102.526 67.2311 105.158 67.3463 107.717C67.4803 110.291 67.6969 112.861 67.9943 115.424C67.6298 112.87 67.3446 110.304 67.1428 107.73C67.0472 106.444 66.9417 105.156 66.9434 103.856C66.9442 102.56 67.066 101.245 67.4444 99.9805L67.8334 100.104Z" fill="#463C43"/>
<path d="M62.9368 97.2843C62.4865 103.797 61.5369 110.268 60.1011 116.625C61.4037 110.24 62.2161 103.759 62.5291 97.2598L62.9368 97.2843Z" fill="#463C43"/>
<path d="M58.3173 93.9114L56.0249 102.654L54.8792 107.026C54.4959 108.482 54.1274 109.947 53.606 111.362C54.0955 109.936 54.4297 108.466 54.7803 107.002L55.8272 102.605L57.9209 93.8125L58.3173 93.9114Z" fill="#463C43"/>
<path d="M54.1101 96.2873L50.2764 105.135L53.7317 96.1328L54.1101 96.2873Z" fill="#463C43"/>
<path d="M50.3995 91.7707L42.9561 101.719L50.0611 91.541L50.3995 91.7707Z" fill="#463C43"/>
<path d="M46.5204 90.5506C45.9066 91.2617 45.1744 91.8322 44.4487 92.3814C43.7181 92.9266 43.0047 93.4791 42.3288 94.0855C40.9739 95.2903 39.7464 96.6437 38.6758 98.1165C39.69 96.6045 40.8709 95.2003 42.1899 93.9351C42.8461 93.3001 43.5522 92.71 44.2591 92.1403C44.9619 91.5665 45.6533 90.9813 46.2057 90.2891L46.5204 90.5506Z" fill="#463C43"/>
<path d="M43.757 86.8509C40.1039 89.4532 36.3593 91.9223 32.5322 94.2517C36.2866 91.8063 39.9503 89.2276 43.5142 86.5215L43.757 86.8509Z" fill="#463C43"/>
<path d="M40.3312 83.71C35.9966 85.5065 31.7502 87.5236 27.6143 89.7525C31.6841 87.4043 35.8765 85.2612 40.1694 83.334L40.3312 83.71Z" fill="#463C43"/>
<path d="M38.4289 80.2976L27.1299 84.7723L38.272 79.9199L38.4289 80.2976Z" fill="#463C43"/>
<path d="M38.6739 73.5841C34.0034 74.4504 29.391 75.6568 24.8848 77.1917C29.3452 75.5285 33.9307 74.1873 38.5938 73.1836L38.6739 73.5841Z" fill="#463C43"/>
<path d="M38.109 68.9376L25.8457 71.1623L38.0297 68.5371L38.109 68.9376Z" fill="#463C43"/>
<path d="M37.6966 65.1567C32.2637 65.0701 26.8209 65.3381 21.4141 65.9601C26.8037 65.2033 32.2473 64.7979 37.6983 64.748L37.6966 65.1567Z" fill="#463C43"/>
<path d="M38.7834 62.266C34.09 60.8634 29.1613 60.2104 24.2432 60.3461C29.1555 60.0739 34.1219 60.5888 38.8953 61.872L38.7834 62.266Z" fill="#463C43"/>
<path d="M39.91 57.2902C37.6954 57.5027 35.4978 57.2207 33.3346 56.9338C31.1706 56.6469 28.9944 56.3437 26.8066 56.5014C31.1837 56.0527 35.5502 57.4332 39.8651 56.8831L39.91 57.2902Z" fill="#463C43"/>
<path d="M44.7238 47.2425L31.2607 40.2617L44.9069 46.8771L44.7238 47.2425Z" fill="#463C43"/>
<path d="M47.0918 42.7354C45.1925 41.2266 43.8359 39.2389 42.2636 37.4841C41.4774 36.6063 40.621 35.7833 39.6485 35.1123C38.6809 34.4437 37.5809 33.9337 36.4033 33.7637C37.585 33.8993 38.7095 34.3799 39.7057 35.0273C40.706 35.6762 41.5951 36.4829 42.414 37.346C44.0468 39.0697 45.463 41.01 47.341 42.4117L47.0918 42.7354Z" fill="#463C43"/>
<path d="M51.5914 38.3936C51.0537 38.1942 50.6712 37.7839 50.3566 37.3826C50.0477 36.9723 49.7633 36.5481 49.5116 36.1059C49.0074 35.2208 48.6094 34.2866 48.249 33.345C47.5306 31.4636 46.9455 29.5298 45.9321 27.7832C47.0043 29.4939 47.6614 31.4227 48.4386 33.269C48.8284 34.1926 49.2534 35.1023 49.7748 35.949C50.0346 36.3724 50.3256 36.7753 50.6353 37.1586C50.9466 37.5329 51.303 37.8705 51.7263 38.0078L51.5914 38.3936Z" fill="#463C43"/>
<path d="M55.5844 37.372C54.3634 33.3802 53.4637 29.2961 52.894 25.1719C53.5985 29.2756 54.6298 33.3173 55.9734 37.2461L55.5844 37.372Z" fill="#463C43"/>
<path d="M63.4885 34.5377C62.015 29.2602 61.2443 23.7964 61.1978 18.3359C61.38 23.794 62.2864 29.2186 63.8808 34.4233L63.4885 34.5377Z" fill="#463C43"/>
<path d="M68.2379 31.7736C68.4618 26.6653 68.3875 21.5391 68.0156 16.4316C68.5231 21.5276 68.734 26.6571 68.6465 31.7858L68.2379 31.7736Z" fill="#463C43"/>
<path d="M70.8519 33.9262C70.6042 28.2769 70.78 22.6153 71.3758 17.002C70.9148 22.6276 70.8772 28.2818 71.2597 33.9033L70.8519 33.9262Z" fill="#463C43"/>
<path d="M76.2861 34.9662C76.5248 31.9968 76.7397 29.0292 76.9971 26.0582C77.1401 24.5748 77.3624 23.0872 77.7947 21.6561C78.2164 20.2233 78.7811 18.8428 79.345 17.4648C78.813 18.8551 78.281 20.2486 77.8936 21.6838C77.4964 23.1166 77.3101 24.5944 77.2014 26.0753C77.0118 29.043 76.8648 32.0206 76.694 34.9931L76.2861 34.9662Z" fill="#463C43"/>
<path d="M80.0552 34.9383C80.6109 32.6809 81.1936 30.4095 82.0925 28.2502C82.9841 26.1006 84.2362 24.0475 86.0202 22.5371C84.2819 24.1006 83.1034 26.1709 82.2821 28.3261C81.4543 30.492 80.9419 32.7601 80.4532 35.0298L80.0552 34.9383Z" fill="#463C43"/>
<path d="M84.9384 39.1276C84.967 39.1799 85.1149 39.1734 85.2759 39.0876C85.4246 39.0115 85.6003 38.8734 85.7679 38.7631L86.7771 38.0602C87.4473 37.5878 88.1108 37.1064 88.7671 36.6135C90.0812 35.6319 91.3692 34.6152 92.631 33.5641C95.1529 31.4636 97.5662 29.2282 99.8553 26.8711C97.6152 29.2757 95.2469 31.5625 92.7634 33.7202C91.522 34.7991 90.2512 35.8453 88.9534 36.8571C88.3054 37.3647 87.6491 37.8616 86.9872 38.3496L85.9893 39.0761C85.8161 39.1946 85.6739 39.3197 85.4598 39.4382C85.3551 39.4921 85.2416 39.5428 85.0994 39.56C84.9629 39.5829 84.7692 39.5387 84.6499 39.4153L84.9384 39.1276Z" fill="#463C43"/>
<path d="M92.9233 43.4346C96.2495 39.8801 99.4236 36.1801 102.434 32.3477C99.5323 36.2634 96.4587 40.0558 93.2257 43.71L92.9233 43.4346Z" fill="#463C43"/>
<path d="M96.3726 48.2208C100.286 45.6095 104.046 42.7611 107.625 39.6953C104.136 42.8632 100.454 45.8252 96.6038 48.5575L96.3726 48.2208Z" fill="#463C43"/>
<path d="M100.587 52.0826C104.274 50.5689 107.898 48.8959 111.446 47.0684C107.962 49.016 104.392 50.8149 100.748 52.4577L100.587 52.0826Z" fill="#463C43"/>
<path d="M101.943 57.8836L114.529 55.457L102.027 58.2833L101.943 57.8836Z" fill="#463C43"/>
<path d="M102.367 65.3734L115.908 63.3203L102.434 65.7763L102.367 65.3734Z" fill="#463C43"/>
<path d="M105.736 71.3818C109.266 71.3712 112.798 71.1685 116.313 70.7754C112.816 71.3042 109.286 71.6434 105.745 71.7905L105.736 71.3818Z" fill="#463C43"/>
<path d="M101.8 78.044C105.563 76.876 109.631 76.7886 113.407 77.7726C109.599 76.921 105.575 77.1588 101.928 78.4322L101.8 78.044Z" fill="#463C43"/>
<path d="M102.568 81.9004L112.646 84.1578L102.481 82.2992L102.568 81.9004Z" fill="#463C43"/>
<path d="M100.92 87.4238L110.858 90.9326L100.791 87.8112L100.92 87.4238Z" fill="#463C43"/>
<path d="M97.4018 90.2031L105.162 93.2583L97.2612 90.5873L97.4018 90.2031Z" fill="#463C43"/>
<path d="M93.1252 94.9648C95.4454 97.2975 97.6363 99.7527 99.6859 102.317C97.5317 99.8401 95.2451 97.483 92.8408 95.2591L93.1252 94.9648Z" fill="#463C43"/>
<path d="M81.494 99.8936C81.3911 102.579 81.7163 105.292 82.4608 107.898C81.5864 105.334 81.1181 102.619 81.0854 99.8887L81.494 99.8936Z" fill="#463C43"/>
<path d="M50.7846 40.3229C48.645 38.072 47.0343 35.4149 45.5461 32.7374C44.0547 30.0557 42.667 27.3161 40.9312 24.7832C42.7225 27.2777 44.1756 29.9936 45.7234 32.636C47.268 35.276 48.9295 37.8775 51.078 40.0377L50.7846 40.3229Z" fill="#463C43"/>
<path d="M69.0008 101.811C69.4724 106.826 70.0903 111.831 70.8552 116.814C69.9562 111.853 69.2027 106.863 68.5947 101.854L69.0008 101.811Z" fill="#463C43"/>
<path d="M95.4629 46.1336L108.676 39.3965L95.6607 46.4916L95.4629 46.1336Z" fill="#463C43"/>
<path d="M84.6577 36.705C87.9699 32.6053 91.6319 28.7966 95.5881 25.332C91.7235 28.898 88.1702 32.7925 84.9789 36.9576L84.6577 36.705Z" fill="#463C43"/>
<path d="M59.1916 34.5113C57.3022 29.3042 56.1581 23.8388 55.7993 18.3301C56.2937 23.8274 57.5711 29.2445 59.5741 34.3667L59.1916 34.5113Z" fill="#463C43"/>
<path d="M104.006 79.8776C108.403 79.4379 112.839 79.4616 117.217 79.9463C112.826 79.5973 108.406 79.7117 104.052 80.283L104.006 79.8776Z" fill="#463C43"/>
<path d="M37.306 75.3805C34.9965 76.5215 32.4802 77.0184 30.0228 77.5726L22.6211 79.2228L29.9762 77.374C32.4205 76.7553 34.9074 76.1872 37.1196 75.0176L37.306 75.3805Z" fill="#463C43"/>
<path d="M47.7163 41.6315C45.4714 39.5547 43.1733 37.4232 41.5903 34.7734C43.2902 37.3488 45.6528 39.3496 47.9868 41.325L47.7163 41.6315Z" fill="#463C43"/>
<path d="M37.6475 55.0787C32.5733 53.3967 27.3414 52.1691 22.0352 51.418C27.3578 52.0334 32.6314 53.1286 37.7709 54.6888L37.6475 55.0787Z" fill="#463C43"/>
<path d="M41.3488 51.7289C39.1758 51.2214 37.0388 50.5716 34.9541 49.7862C33.9129 49.3922 32.8841 48.9655 31.8707 48.5062C30.8557 48.0591 29.8808 47.4903 28.7783 47.2949C29.8873 47.4568 30.8876 47.9987 31.9115 48.4131C32.9363 48.8405 33.9742 49.2336 35.0227 49.5949C37.1214 50.3133 39.2649 50.8928 41.4347 51.3301L41.3488 51.7289Z" fill="#463C43"/>
<path d="M50.6016 95.2376C48.7351 96.8641 47.1913 98.8395 45.7799 100.889C44.3653 102.941 43.0692 105.079 41.6357 107.123C43.0136 105.041 44.2477 102.871 45.61 100.775C46.9699 98.6818 48.4695 96.6459 50.3287 94.9336L50.6016 95.2376Z" fill="#463C43"/>
<path d="M38.3422 52.9624C35.4876 52.6224 32.8161 51.5721 30.1903 50.5472C27.5645 49.5214 24.9093 48.4785 22.0898 48.1426C24.9175 48.4107 27.6127 49.3931 30.263 50.3559C32.9125 51.3195 35.593 52.2938 38.3855 52.5561L38.3422 52.9624Z" fill="#463C43"/>
<path d="M97.1152 49.3376L115.588 40.2539L97.2942 49.7054L97.1152 49.3376Z" fill="#463C43"/>
<path d="M44.4793 44.4983C42.4845 41.8101 40.188 39.3507 37.8197 36.9723C35.4424 34.5996 33.0258 32.2629 30.6289 29.9082C33.0732 32.2147 35.5356 34.4999 37.9627 36.8269C40.3817 39.1603 42.737 41.5796 44.8046 44.2514L44.4793 44.4983Z" fill="#463C43"/>
<path d="M41.4113 48.4818C38.4513 46.0969 35.2036 44.0806 32.0646 41.9106C28.9314 39.7455 25.8643 37.3916 23.4404 34.4297C25.9175 37.3467 29.0139 39.636 32.1791 41.7414C35.3499 43.8525 38.6352 45.8092 41.6647 48.1614L41.4113 48.4818Z" fill="#463C43"/>
<path d="M38.8368 54.2826C36.238 52.8081 33.5763 51.4415 30.85 50.2123C29.4877 49.596 28.1074 49.0206 26.7148 48.4722C25.3272 47.9213 23.9248 47.3353 22.7324 46.4199C23.9452 47.3075 25.3533 47.8576 26.7516 48.3774C28.1564 48.8939 29.5531 49.4391 30.9325 50.0251C33.6923 51.1956 36.3932 52.5049 39.0353 53.9246L38.8368 54.2826Z" fill="#463C43"/>
<path d="M39.4271 58.271L19.4033 53.8027L39.5211 57.8738L39.4271 58.271Z" fill="#463C43"/>
<path d="M38.0198 63.5451C35.0271 62.4867 31.7884 62.3387 28.6094 62.4C25.4189 62.4572 22.2162 62.7164 19.0225 62.4859C22.2203 62.6485 25.4067 62.3216 28.6029 62.1957C31.7876 62.0682 35.0606 62.1402 38.1514 63.1586L38.0198 63.5451Z" fill="#463C43"/>
<path d="M38.4757 69.3204C36.9434 69.9383 35.3417 69.7005 33.8208 69.7504C32.2795 69.7618 30.7382 69.8133 29.1993 69.9122C26.1217 70.1083 23.053 70.4827 20.0137 71.0303C23.0399 70.4165 26.1037 69.9735 29.1838 69.7087C30.7243 69.5754 32.2689 69.4896 33.8151 69.4439C35.3507 69.367 36.9475 69.5428 38.3139 68.9453L38.4757 69.3204Z" fill="#463C43"/>
<path d="M41.1055 75.6196C31.8675 75.976 22.6368 76.5693 13.4258 77.4014C22.6237 76.4345 31.8479 75.7038 41.0867 75.2109L41.1055 75.6196Z" fill="#463C43"/>
<path d="M40.7173 81.244C33.9375 82.8664 27.2951 85.0904 20.8945 87.884C27.2395 84.9662 33.8476 82.6074 40.6184 80.8477L40.7173 81.244Z" fill="#463C43"/>
<path d="M43.7512 83.2344L43.7569 83.4101L43.761 83.5335L43.6572 83.5932C37.7314 87.0268 32.0582 90.8911 26.4609 94.8486C31.9789 90.7816 37.577 86.8053 43.4504 83.2442L43.3516 83.4273L43.3426 83.2523L43.7512 83.2344Z" fill="#463C43"/>
<path d="M52.5999 89.7525C49.8777 91.8309 47.1514 93.9086 44.6776 96.2739C43.415 97.4312 42.3338 98.7626 41.211 100.055C40.0807 101.341 38.9881 102.663 37.9028 103.989C38.9628 102.642 40.0276 101.3 41.1333 99.9886C42.2309 98.6719 43.2892 97.3152 44.5346 96.1276C46.9716 93.7026 49.6677 91.5629 52.349 89.4297L52.5999 89.7525Z" fill="#463C43"/>
<path d="M46.3052 89.0285C41.9428 92.6901 37.4447 96.1858 32.8232 99.5066C37.3638 96.0763 41.7728 92.4768 46.0388 88.7188L46.3052 89.0285Z" fill="#463C43"/>
<path d="M56.1118 96.8347C53.9748 102.443 51.635 107.972 49.0991 113.408C51.5108 107.917 53.7222 102.34 55.7277 96.6934L56.1118 96.8347Z" fill="#463C43"/>
<path d="M61.4478 99.8913C61.2934 101.609 60.8782 103.272 60.5015 104.928L59.3582 109.901L57.0708 119.848L59.158 109.858L60.2016 104.862C60.5464 103.196 60.924 101.537 61.04 99.8594L61.4478 99.8913Z" fill="#463C43"/>
<path d="M52.8476 96.2908C48.9731 101.457 45.4255 106.873 42.2334 112.497C45.3062 106.808 48.7434 101.31 52.5182 96.0488L52.8476 96.2908Z" fill="#463C43"/>
<path d="M65.3669 100.584C64.8169 106.559 64.0684 112.512 63.1221 118.432C63.9336 112.492 64.5465 106.528 64.9592 100.551L65.3669 100.584Z" fill="#463C43"/>
<path d="M69.5654 103.062L68.8323 112.524L68.4654 117.255L68.2823 119.62L68.1908 120.802L68.145 121.394C68.1401 121.487 68.1409 121.603 68.2234 121.662C68.3199 121.755 68.4041 121.496 68.2807 121.527C68.4057 121.492 68.3281 121.76 68.2202 121.666C68.1311 121.606 68.1295 121.487 68.1319 121.393L68.1646 120.8L68.2308 119.616L68.3632 117.247L68.628 112.509L69.1575 103.033L69.5654 103.062Z" fill="#463C43"/>
<path d="M76.646 101.656L76.9181 118.802L76.9075 118.803L76.8789 118.336L76.9181 118.802H76.9075L76.2383 101.668L76.646 101.656Z" fill="#463C43"/>
<path d="M81.6794 99.6309C82.6543 102.838 82.4451 106.174 82.8202 109.408C82.9844 111.033 83.4356 112.611 83.7592 114.22C84.0796 115.83 84.1923 117.48 84.0918 119.116C84.158 117.479 84.0117 115.837 83.6595 114.241C83.3048 112.648 82.8186 111.072 82.6175 109.434C82.1754 106.184 82.3053 102.845 81.2896 99.7559L81.6794 99.6309Z" fill="#463C43"/>
<path d="M87.6781 95.6797C89.3093 101.855 91.2519 107.952 93.4951 113.939C91.1244 108.001 89.0502 101.94 87.2842 95.7876L87.6781 95.6797Z" fill="#463C43"/>
<path d="M82.9558 96.6074C83.5565 99.6879 84.5224 102.699 85.8202 105.566C86.4601 107.005 87.149 108.427 87.7227 109.9C88.2956 111.37 88.7524 112.898 88.911 114.47C88.7181 112.902 88.2295 111.39 87.628 109.938C87.0248 108.483 86.3073 107.08 85.6347 105.651C84.2699 102.801 83.2296 99.7868 82.5562 96.6899L82.9558 96.6074Z" fill="#463C43"/>
<path d="M96.0385 89.3047C96.9816 91.822 98.7706 93.9283 100.636 95.8751C102.504 97.8318 104.509 99.6986 106.075 101.925C104.454 99.7395 102.412 97.9332 100.489 96.0182C98.5737 94.113 96.7005 92.0321 95.6577 89.4534L96.0385 89.3047Z" fill="#463C43"/>
<path d="M100.782 84.7363C102.012 87.0526 103.763 89.0583 105.545 91.0035C107.326 92.9512 109.172 94.8752 110.635 97.0852C109.115 94.9136 107.229 93.0468 105.395 91.1433C103.564 89.2422 101.745 87.2708 100.423 84.9325L100.782 84.7363Z" fill="#463C43"/>
<path d="M99.2308 79.9844L108.725 83.3174C111.875 84.4298 115.079 85.6321 117.745 87.6983C115.037 85.6876 111.828 84.5581 108.659 83.5103L99.1001 80.3709L99.2308 79.9844Z" fill="#463C43"/>
<path d="M102.992 72.2453C109.645 72.7284 116.34 72.7022 123 72.166C116.352 72.8379 109.649 73.0013 102.967 72.6532L102.992 72.2453Z" fill="#463C43"/>
<path d="M103.744 75.8887C105.228 76.6104 106.827 77.0868 108.447 77.4669C110.069 77.8429 111.712 78.16 113.347 78.5041L123.163 80.5351L113.307 78.7044C111.666 78.393 110.02 78.111 108.38 77.7653C106.742 77.4163 105.109 76.9675 103.568 76.2573L103.744 75.8887Z" fill="#463C43"/>
<path d="M104.889 63.0288C108.301 63.3999 111.728 62.6634 115.076 61.8968C118.428 61.1302 121.838 60.2932 125.306 60.451C121.836 60.3627 118.462 61.2625 115.124 62.0954C111.789 62.9266 108.355 63.7448 104.849 63.4358L104.889 63.0288Z" fill="#463C43"/>
<path d="M105.627 68.187C112.764 68.4952 119.941 68.0538 127 66.8711C119.965 68.1878 112.784 68.7682 105.613 68.5949L105.627 68.187Z" fill="#463C43"/>
<path d="M101.827 54.4498C109.375 53.5033 116.85 51.9259 124.147 49.7363C116.89 52.0559 109.434 53.7706 101.882 54.8552L101.827 54.4498Z" fill="#463C43"/>
<path d="M102.759 59.4621C110.362 58.4625 117.929 57.1638 125.435 55.5684C117.958 57.2962 110.411 58.7306 102.816 59.8666L102.759 59.4621Z" fill="#463C43"/>
<path d="M100.284 52.6999L119.61 38.9648L100.523 53.0309L100.284 52.6999Z" fill="#463C43"/>
<path d="M99.6099 47.9466L110.928 33.543L99.9343 48.1951L99.6099 47.9466Z" fill="#463C43"/>
<path d="M93.0103 42.051L101.432 27.2363L93.3658 42.2529L93.0103 42.051Z" fill="#463C43"/>
<path d="M87.6836 38.1384L93.8586 24.293L88.0611 38.2945L87.6836 38.1384Z" fill="#463C43"/>
<path d="M81.7285 35.7C82.0521 32.5786 82.9797 29.5921 83.7969 26.6065C84.6141 23.6265 85.3496 20.5746 85.2434 17.459C85.4191 20.5713 84.7473 23.6567 83.9939 26.6579C83.2404 29.6649 82.3839 32.6636 82.1347 35.7376L81.7285 35.7Z" fill="#463C43"/>
<path d="M76.2432 34.7334C75.7031 28.5887 75.6916 22.4032 76.2072 16.2676C75.8281 22.413 75.9768 28.5846 76.6501 34.6925L76.2432 34.7334Z" fill="#463C43"/>
<path d="M70.4664 34.3017C68.7306 28.1604 67.9689 21.7567 68.21 15.4004C68.1046 21.7599 69.0043 28.1244 70.8587 34.1864L70.4664 34.3017Z" fill="#463C43"/>
<path d="M62.8673 34.4612C61.6995 28.7996 60.8407 23.0775 60.2939 17.3301C60.9763 23.0636 61.9692 28.7554 63.267 34.3745L62.8673 34.4612Z" fill="#463C43"/>
<path d="M56.467 35.5051C54.531 30.1116 53.0453 24.5628 52.0278 18.9355C53.1793 24.5375 54.7941 30.038 56.8494 35.3629L56.467 35.5051Z" fill="#463C43"/>
<path d="M50.7844 38.7283C48.8835 32.3287 45.6155 26.3238 41.2515 21.2344C45.7184 26.2339 49.1263 32.1938 51.175 38.6081L50.7844 38.7283Z" fill="#463C43"/>
<path d="M46.8026 40.1459C43.6628 35.895 40.8442 31.412 38.377 26.75C40.9635 31.3474 43.8917 35.7463 47.1279 39.8991L46.8026 40.1459Z" fill="#463C43"/>
<path d="M42.6878 46.8669C38.323 42.2318 33.5095 38.0096 28.334 34.2793C33.5879 37.8984 38.5011 42.0243 42.9819 46.5833L42.6878 46.8669Z" fill="#463C43"/>
<path d="M42.105 52.5235C37.7377 49.6539 33.4636 46.6486 29.29 43.5117C33.5445 46.5383 37.8922 49.4291 42.3248 52.1786L42.105 52.5235Z" fill="#463C43"/>
<path d="M37.7142 55.6636L25.3447 53.2109L37.7812 55.2607L37.7142 55.6636Z" fill="#463C43"/>
<path d="M38.8624 62.1887C34.7198 60.5761 30.2904 59.6713 25.8242 59.5332C30.2929 59.5348 34.7713 60.3048 39.0046 61.8054L38.8624 62.1887Z" fill="#463C43"/>
<path d="M39.2799 66.1177C33.9548 66.1708 28.628 66.5182 23.334 67.1581C28.6109 66.3833 33.9335 65.8986 39.2708 65.709L39.2799 66.1177Z" fill="#463C43"/>
<path d="M39.9394 73.268C34.8522 73.2402 29.76 73.4895 24.6924 74.015C29.7437 73.3547 34.835 72.9681 39.9361 72.8594L39.9394 73.268Z" fill="#463C43"/>
<path d="M41.0009 77.8158C39.8625 78.4827 38.6137 78.9135 37.3544 79.2216C36.0926 79.5314 34.8169 79.7341 33.5436 79.9466C30.9955 80.361 28.4351 80.692 25.8682 80.9437C28.4277 80.625 30.9759 80.2253 33.5077 79.7455C36.0215 79.2502 38.6228 78.8121 40.7876 77.4668L41.0009 77.8158Z" fill="#463C43"/>
<path d="M44.8081 81.9473C38.5693 83.7929 32.4671 86.1189 26.5732 88.8995C32.4074 85.9964 38.4688 83.5387 44.6879 81.5566L44.8081 81.9473Z" fill="#463C43"/>
<path d="M49.2501 85.6062L41.206 89.7263L37.1836 91.7859C35.8442 92.4733 34.4957 93.1476 33.2266 93.9608C34.4769 93.119 35.8131 92.4128 37.1362 91.6952L41.1104 89.5448L49.0596 85.2441L49.2501 85.6062Z" fill="#463C43"/>
<path d="M47.9896 90.2255L40.0649 95.7179L47.7494 89.8945L47.9896 90.2255Z" fill="#463C43"/>
<path d="M53.3209 92.7046L45.1191 102.022L53.0169 92.4316L53.3209 92.7046Z" fill="#463C43"/>
<path d="M55.4513 96.1537C54.9095 96.855 54.5057 97.6649 54.1151 98.4839C53.7294 99.3069 53.3232 100.132 52.8623 100.92C51.9462 102.503 50.8626 103.982 49.6343 105.326C50.8111 103.937 51.8343 102.423 52.6834 100.821C53.1116 100.02 53.4793 99.1966 53.8356 98.3572C54.1968 97.5219 54.5777 96.6752 55.1228 95.9102L55.4513 96.1537Z" fill="#463C43"/>
<path d="M59.7499 97.8726C57.9667 101.977 56.3306 106.149 54.8457 110.376C56.2015 106.105 57.7109 101.882 59.3723 97.7148L59.7499 97.8726Z" fill="#463C43"/>
<path d="M63.6387 100.367C62.7855 104.995 61.6977 109.577 60.3828 114.088C61.567 109.54 62.519 104.936 63.2358 100.299L63.6387 100.367Z" fill="#463C43"/>
<path d="M67.4055 101.401L65.3354 113.377L67.0018 101.338L67.4055 101.401Z" fill="#463C43"/>
<path d="M73.8715 99.4902C74.0023 104.259 73.7873 109.032 73.23 113.76C73.6517 109.018 73.7293 104.25 73.4629 99.5066L73.8715 99.4902Z" fill="#463C43"/>
<path d="M78.5205 98.9355L78.8597 111.396L78.1118 98.9535L78.5205 98.9355Z" fill="#463C43"/>
<path d="M82.279 98.3594C83.5236 103.667 84.421 109.052 84.9636 114.468C84.2853 109.067 83.2548 103.715 81.8818 98.4574L82.279 98.3594Z" fill="#463C43"/>
<path d="M84.7852 96.5156C87.1641 100.848 88.8419 105.551 89.7433 110.389C88.7087 105.578 86.9051 100.945 84.4297 96.7175L84.7852 96.5156Z" fill="#463C43"/>
<path d="M89.4024 94.3906C89.892 98.7126 92.2692 102.628 92.8707 106.987C92.5054 104.824 91.6948 102.781 90.9029 100.747C90.1118 98.7126 89.3158 96.6448 88.9971 94.443L89.4024 94.3906Z" fill="#463C43"/>
<path d="M97.928 87.1172L107.591 98.8058L97.6167 87.382L97.928 87.1172Z" fill="#463C43"/>
<path d="M101.69 83.6934C103.497 85.185 105.718 86.1011 107.779 87.2789C108.811 87.8698 109.806 88.5425 110.674 89.3606C111.538 90.1747 112.272 91.153 112.684 92.2687C112.24 91.1653 111.484 90.2172 110.604 89.4358C109.722 88.6504 108.719 88.0137 107.68 87.4579C105.603 86.3463 103.35 85.4996 101.434 84.0121L101.69 83.6934Z" fill="#463C43"/>
<path d="M104.925 78.3867C105.159 78.7651 105.571 79.0316 106.009 79.2449C106.455 79.4549 106.915 79.6413 107.388 79.7941C108.334 80.0998 109.318 80.2968 110.308 80.457C112.286 80.7741 114.315 80.9547 116.231 81.5906C114.295 81.0201 112.277 80.9106 110.279 80.6588C109.28 80.5321 108.278 80.3671 107.298 80.0867C106.808 79.947 106.329 79.772 105.857 79.5685C105.392 79.3585 104.904 79.0839 104.583 78.6082L104.925 78.3867Z" fill="#463C43"/>
<path d="M104.658 74.0801C108.793 74.4536 112.964 74.4969 117.117 74.2076C112.976 74.6326 108.795 74.7266 104.628 74.4871L104.658 74.0801Z" fill="#463C43"/>
<path d="M105.522 65.7292C110.956 66.0438 116.44 65.6376 121.785 64.5195C116.47 65.77 110.98 66.3168 105.503 66.137L105.522 65.7292Z" fill="#463C43"/>
<path d="M106.957 60.4724C111.917 59.1704 116.95 58.1585 122.021 57.4434C116.971 58.2934 111.974 59.4376 107.065 60.8663L106.957 60.4724Z" fill="#463C43"/>
<path d="M104.279 58.4343C109.83 57.4731 115.314 56.0943 120.669 54.3125C115.358 56.2226 109.9 57.7371 104.354 58.8356L104.279 58.4343Z" fill="#463C43"/>
<path d="M101.929 53.4155C104.775 52.545 107.633 51.695 110.47 50.8074C111.883 50.3505 113.274 49.8185 114.572 49.0927C115.874 48.3759 117.101 47.5284 118.326 46.6816C117.121 47.5562 115.914 48.4315 114.623 49.1818C113.336 49.9411 111.943 50.5099 110.537 51.0011C107.711 51.9566 104.881 52.8687 102.053 53.8053L101.929 53.4155Z" fill="#463C43"/>
<path d="M101.003 49.7702C103.092 48.7568 105.174 47.7212 107.081 46.4029C108.98 45.0935 110.712 43.4581 111.818 41.3984C110.774 43.49 109.076 45.1932 107.2 46.5696C105.316 47.9549 103.248 49.06 101.186 50.1356L101.003 49.7702Z" fill="#463C43"/>
<path d="M95.7512 46.7361C95.6025 46.6495 95.5142 46.4713 95.5036 46.3332C95.4864 46.1909 95.5085 46.0692 95.5363 45.9539C95.6008 45.7177 95.6891 45.5502 95.7627 45.3532L96.2318 44.2114C96.5488 43.4521 96.8757 42.6961 97.2149 41.9466C97.8899 40.446 98.605 38.9634 99.3585 37.5012C100.865 34.5768 102.524 31.7333 104.329 28.9863C102.582 31.7693 100.983 34.6438 99.5407 37.5927C98.8199 39.0672 98.1376 40.5604 97.4952 42.07C97.1724 42.8244 96.8627 43.5837 96.5619 44.3463L96.1182 45.493C96.0503 45.6818 95.958 45.8853 95.9196 46.0479C95.8747 46.2244 95.9032 46.3708 95.9613 46.3855L95.7512 46.7361Z" fill="#463C43"/>
<path d="M89.5425 39.4212C92.3252 35.413 95.2803 31.5275 98.3956 27.7793C95.3865 31.6133 92.545 35.5748 89.8817 39.6492L89.5425 39.4212Z" fill="#463C43"/>
<path d="M84.0352 37.2883C85.7767 32.9002 87.7797 28.6199 90.0295 24.4785C87.9007 28.6828 86.0251 33.0121 84.4176 37.433L84.0352 37.2883Z" fill="#463C43"/>
<path d="M79.2627 34.185C79.9949 30.2553 80.8947 26.36 81.9603 22.5137C81.0271 26.3943 80.2613 30.3126 79.6656 34.2529L79.2627 34.185Z" fill="#463C43"/>
<path d="M73.2994 34.327L73.0796 21.5098L73.7072 34.3131L73.2994 34.327Z" fill="#463C43"/>
<path d="M65.9261 35.709L65.1162 22.0352L66.3339 35.6787L65.9261 35.709Z" fill="#463C43"/>
<path d="M59.2977 33.9184C58.6006 30.4432 58.0931 26.9336 57.7769 23.4102C58.2288 26.9181 58.8703 30.3983 59.6965 33.8302L59.2977 33.9184Z" fill="#463C43"/>
<path d="M53.7517 39.2018C54.1235 35.3563 53.4003 31.3899 51.6694 27.8926C53.5213 31.327 54.4006 35.2999 54.1587 39.2337L53.7517 39.2018Z" fill="#463C43"/>
<path d="M49.8652 39.5816L45.6499 30.1465L50.2321 39.4018L49.8652 39.5816Z" fill="#463C43"/>
<path d="M44.9101 42.5298L39.4902 33.4902L45.2566 42.3132L44.9101 42.5298Z" fill="#463C43"/>
<path d="M43.0501 46.6202L38.5815 39.5781L43.39 46.393L43.0501 46.6202Z" fill="#463C43"/>
<path d="M39.5627 52.0227C36.8324 50.2148 34.0007 48.5524 31.084 47.0469C34.0603 48.4306 36.9655 49.9769 39.7809 51.6778L39.5627 52.0227Z" fill="#463C43"/>
<path d="M37.8532 64.5401C35.1931 65.1564 32.4456 65.3452 29.7471 65.1033C32.4537 65.2088 35.1669 64.8818 37.751 64.1445L37.8532 64.5401Z" fill="#463C43"/>
<path d="M103.105 79.5C105.714 81.075 108.635 82.0721 111.565 82.9466C114.5 83.8236 117.483 84.591 120.33 85.7402C117.457 84.6548 114.467 83.956 111.509 83.1428C108.555 82.332 105.592 81.397 102.898 79.8523L103.105 79.5Z" fill="#463C43"/>
<path d="M38.9052 77.1436C33.8955 77.7411 28.8696 78.1922 23.8379 78.4955C28.8598 78.0558 33.8677 77.4698 38.8512 76.7383L38.9052 77.1436Z" fill="#463C43"/>
<path d="M86.2632 37.7144L90.0683 23.3867L86.6579 37.8222L86.2632 37.7144Z" fill="#463C43"/>
<path d="M98.0581 45.8325C101.347 41.7442 104.287 37.3683 106.834 32.7676C104.407 37.4329 101.575 41.8938 98.3801 46.0842L98.0581 45.8325Z" fill="#463C43"/>
<path d="M106.601 69.9002C112.052 70.6317 117.616 70.5875 123.074 69.7637C117.638 70.7216 112.057 70.9063 106.552 70.3055L106.601 69.9002Z" fill="#463C43"/>
<path d="M51.4497 37.5754C50.9724 33.2101 50.0351 28.8889 48.6548 24.7051C50.1642 28.844 51.2396 33.148 51.855 37.5247L51.4497 37.5754Z" fill="#463C43"/>
<path d="M72.4424 101.357C71.8303 103.785 71.8687 106.335 71.8475 108.857L71.796 116.441L71.6432 108.858C71.5982 106.339 71.4846 103.777 72.0444 101.262L72.4424 101.357Z" fill="#463C43"/>
<path d="M102.589 82.8086C105.062 84.6075 107.565 86.4285 110.471 87.4689C107.521 86.5592 104.906 84.8323 102.356 83.1437L102.589 82.8086Z" fill="#463C43"/>
<path d="M92.0326 95.9023C94.767 100.525 97.0814 105.389 98.9422 110.415C96.9547 105.438 94.5218 100.646 91.6836 96.1149L92.0326 95.9023Z" fill="#463C43"/>
<path d="M94.4265 91.5469C95.3663 93.5518 96.4377 95.4961 97.6333 97.3645C98.2323 98.2979 98.8608 99.2133 99.5187 100.107C100.163 101.003 100.928 101.847 101.348 102.886C100.896 101.861 100.113 101.049 99.4378 100.17C98.7513 99.2942 98.0934 98.396 97.4633 97.4782C96.2064 95.6392 95.0689 93.7168 94.0596 91.7267L94.4265 91.5469Z" fill="#463C43"/>
<path d="M49.9625 93.2475C48.74 95.4592 47.1186 97.4004 45.4073 99.2173C43.6936 101.038 41.8793 102.752 40.1836 104.585C41.8287 102.707 43.5988 100.94 45.2569 99.0791C46.9126 97.2222 48.4654 95.2533 49.6021 93.0547L49.9625 93.2475Z" fill="#463C43"/>
<path d="M93.9593 94.7988C94.877 97.4494 96.4592 99.8229 98.0234 102.169C99.5867 104.514 101.181 106.901 102.112 109.584C101.117 106.925 99.4739 104.592 97.855 102.284C96.2361 99.9758 94.582 97.63 93.5752 94.937L93.9593 94.7988Z" fill="#463C43"/>
<path d="M82.7549 36.8896L87.597 16.875L83.1545 36.977L82.7549 36.8896Z" fill="#463C43"/>
<path d="M70.3569 37.3277C69.8747 40.8438 70.1158 41.3538 70.4051 41.6562C71.0646 42.3452 71.9546 41.9341 73.7598 42.0068C78.1385 42.1834 79.9928 44.8871 81.5946 43.8262C82.0571 43.5197 81.8357 43.3383 82.9144 41.2165C84.2138 38.6607 84.6412 38.7179 84.9174 37.6325C85.42 35.6587 84.5219 33.4487 83.2315 32.0502C81.7793 30.4769 80.0018 30.0723 79.3824 29.9922C77.9015 29.7993 76.3938 30.0601 74.9661 30.4965C73.7656 30.8635 72.4465 31.3923 71.492 32.6665C70.8979 33.456 70.7099 34.7572 70.3569 37.3277Z" fill="#DBBBAD" stroke="#463C43" stroke-width="0.217605" stroke-miterlimit="10"/>
<path d="M95.0873 58.628C95.0963 58.7269 95.1281 59.0392 95.352 59.2598C95.6095 59.514 96.0254 59.4756 96.3825 59.42C98.7362 59.0522 101.131 58.6722 103.269 57.6211C103.822 57.3497 104.373 57.0163 104.707 56.4989C104.998 56.0486 105.095 55.5026 105.152 54.9689C105.658 50.2742 103.299 45.385 99.309 42.8603C99.1276 42.745 98.9282 42.6314 98.7141 42.6412C98.4779 42.6518 98.2769 42.8096 98.0996 42.9657C96.2338 44.5987 95.5048 45.6302 95.0889 46.2121C93.076 49.0245 91.0468 48.5864 90.8581 50.2186C90.7616 51.0547 91.3255 50.8953 92.9665 54.0412C94.3395 56.673 95.0268 57.9889 95.0873 58.628Z" fill="#DBBBAD" stroke="#463C43" stroke-width="0.217605" stroke-miterlimit="10"/>
<path d="M94.5867 76.4501C94.2876 77.4407 94.0817 78.16 94.4478 78.6953C94.7273 79.104 95.2111 79.2208 95.3688 79.2584C98.0273 79.8959 100.677 84.6912 103.567 84.1746C105.206 83.882 106.309 81.9924 106.421 81.7954C106.681 81.3377 106.844 80.9454 107.002 80.1428C107.4 78.1265 107.789 75.9834 107.061 74.0619C106.974 73.8339 106.864 73.6001 106.665 73.4604C106.418 73.2879 106.093 73.2953 105.791 73.3051C103.185 73.395 100.584 73.1939 98.0159 72.7452C97.2632 72.6136 96.8219 72.4714 96.4991 72.6381C96.1632 72.8114 96.0692 73.1677 95.9376 73.529C95.3263 75.2159 95.0362 74.9593 94.5867 76.4501Z" fill="#DBBBAD" stroke="#463C43" stroke-width="0.217605" stroke-miterlimit="10"/>
<path d="M79.7962 90.4731C77.4818 91.1098 76.8451 91.1883 76.6024 91.7391C76.327 92.3636 76.8737 92.8801 77.6705 94.4469C78.7918 96.6512 78.6635 97.5029 80.2456 100.726C80.5709 101.389 81.0539 102.325 82.0239 102.678C82.5568 102.872 83.0381 102.82 83.3217 102.777C86.5808 102.289 89.6887 100.829 92.1453 98.6332C92.9184 97.9426 93.6752 97.0656 93.658 96.0293C93.6409 95.0052 93.0043 94.2532 92.536 93.7064C88.6288 89.1425 88.5888 87.3158 86.9813 87.297C85.8363 87.2839 85.9368 88.2957 83.4091 89.3648C82.6368 89.6917 81.6897 89.9525 79.7962 90.4731Z" fill="#DBBBAD" stroke="#463C43" stroke-width="0.217605" stroke-miterlimit="10"/>
<path d="M57.3343 87.3548C57.045 87.193 56.7329 87.0254 56.4027 87.0515C55.9924 87.0834 55.6696 87.4005 55.3861 87.6989C53.7908 89.3711 52.1956 91.0433 50.6004 92.7164C49.8371 93.5166 49.019 94.4622 49.1106 95.5647C49.1882 96.4989 49.9066 97.2427 50.6265 97.8442C54.7944 101.328 59.2328 101.947 60.9996 102.135C61.892 102.23 62.5343 102.241 63.1644 101.892C64.1827 101.328 64.3698 100.27 65.2124 97.2239C66.314 93.2419 66.5927 92.8921 66.2486 92.199C65.6905 91.0752 64.816 91.7111 61.834 89.8762C60.3695 88.9747 58.8347 88.195 57.3343 87.3548Z" fill="#DBBBAD" stroke="#463C43" stroke-width="0.217605" stroke-miterlimit="10"/>
<path d="M46.7269 69.377C42.6089 69.4767 38.5105 70.3242 34.6908 71.8665C34.3116 72.0194 33.9111 72.2 33.6978 72.549C33.5475 72.795 33.5123 73.0917 33.4919 73.3793C33.3317 75.5902 33.8384 77.8452 34.9302 79.7749C35.6191 80.9935 36.648 82.15 38.0218 82.4173C39.0352 82.6143 40.0698 82.2971 41.0529 81.9841C42.2935 81.5885 43.534 81.1938 44.7754 80.7982C46.6934 80.1868 49.016 79.3417 48.6833 76.9854C48.5738 76.2098 46.9296 69.3721 46.7269 69.377Z" fill="#DBBBAD" stroke="#463C43" stroke-width="0.217605" stroke-miterlimit="10"/>
<path d="M38.7911 56.0548C36.6239 55.8529 35.8728 55.9469 35.4005 55.2955C34.5399 54.1095 35.6579 51.8766 36.6884 49.8186C37.1477 48.9016 37.8742 47.5309 39.306 46.1047C40.7272 44.6899 42.3396 43.0855 43.9005 43.4223C44.8599 43.629 44.8738 44.3704 47.1359 48.0794C48.8341 50.8648 50.1858 52.6768 49.6228 53.8782C49.5459 54.0417 49.2403 54.6065 48.8129 55.3968C48.4296 56.1054 48.2376 56.4602 48.2065 56.5059C47.3247 57.8087 44.0231 56.5419 38.7911 56.0548Z" fill="#DBBBAD" stroke="#463C43" stroke-width="0.217605" stroke-miterlimit="10"/>
<path d="M57.9734 41.5627C58.6574 43.4687 58.8004 44.4659 59.6446 44.765C60.2322 44.9734 60.6343 44.6554 61.8503 44.1618C64.1288 43.2358 68.1798 42.1316 69.06 41.9019C69.3191 41.8349 69.9925 41.6722 70.3406 41.1009C70.5302 40.7895 70.5588 40.4095 70.5768 40.045C70.6618 38.3368 70.634 36.622 70.4943 34.9179C70.4093 33.8815 70.2458 32.7683 69.5234 32.0213C69.0143 31.4941 68.2942 31.2269 67.5816 31.0536C63.1759 29.9797 58.7293 33.1386 58.2153 33.5048C56.8938 34.4463 56.2327 34.9179 55.9712 35.8112C55.5642 37.204 56.6201 37.7941 57.9734 41.5627Z" fill="#DBBBAD" stroke="#463C43" stroke-width="0.217605" stroke-miterlimit="10"/>
<path d="M81.5937 43.8265C81.6917 44.1118 81.8192 44.2041 83.032 45.1122C85.3709 46.8653 86.5396 47.7415 88.6889 49.2813C90.656 50.6904 90.741 50.7917 91.1137 50.813C93.4542 50.9429 95.3534 47.2282 96.2181 45.538C97.2012 43.6156 98.0364 41.9818 97.4856 40.1674C97.095 38.8826 96.2263 38.1355 94.9955 37.2013C92.9933 35.6819 89.1278 32.9513 86.426 34.3309C85.5565 34.7747 85.9855 35.3852 84.9174 37.6329C83.1979 41.2471 81.0927 42.3709 81.5937 43.8265Z" fill="#DBBBAD" stroke="#463C43" stroke-width="0.217605" stroke-miterlimit="10"/>
<path d="M96.4652 71.0517C96.5363 71.4039 96.6319 71.7652 96.8615 72.0414C97.1639 72.406 97.6445 72.5621 98.1013 72.6871C100.168 73.256 102.307 73.5657 104.45 73.6082C105.29 73.6246 106.211 73.5698 106.833 73.0034C107.131 72.7329 107.327 72.37 107.495 72.0047C108.467 69.8805 108.622 67.4416 108.222 65.1392C107.821 62.8376 106.892 60.657 105.776 58.6047C105.618 58.3145 105.448 58.0171 105.183 57.8201C104.615 57.3975 103.819 57.5626 103.134 57.7473C101.446 58.2017 99.7586 58.6537 98.0719 59.1098C96.6384 59.4972 96.1219 59.7457 96.2797 61.279C96.6139 64.5262 95.8212 67.8331 96.4652 71.0517Z" fill="#DBBBAD" stroke="#463C43" stroke-width="0.217605" stroke-miterlimit="10"/>
<path d="M101.438 83.5331C101.851 83.7734 102.408 84.0791 102.607 84.6856C102.802 85.2838 102.5 85.9213 102.187 86.4689C101.305 88.0194 100.282 89.4897 99.1351 90.8571C97.8864 92.3455 96.4145 93.7578 94.5611 94.3389C94.2489 94.437 93.9049 94.5081 93.6008 94.3872C93.1399 94.2024 92.9365 93.7169 92.8743 93.5796C92.031 91.7186 87.6841 90.0488 87.6539 87.4562C87.6474 86.8588 87.9906 86.2679 88.6771 85.0868C89.6087 83.4849 90.1015 83.7007 91.1385 82.1069C92.0089 80.7689 92.0677 80.0228 93.113 79.2643C93.4284 79.0354 93.8599 78.7298 94.4475 78.6962C95.2525 78.6497 95.769 79.1711 96.7758 79.9353C98.34 81.1212 99.7407 82.5466 101.438 83.5331Z" fill="#DBBBAD" stroke="#463C43" stroke-width="0.217605" stroke-miterlimit="10"/>
<path d="M73.8264 92.0978C74.7777 91.9973 75.8491 91.8943 76.5846 92.5057C77.0128 92.862 77.24 93.3998 77.4517 93.9155C78.3825 96.1861 79.3141 98.4566 80.2449 100.728C80.4329 101.186 80.6242 101.674 80.54 102.162C80.446 102.704 80.017 103.141 79.5217 103.381C79.0265 103.621 78.47 103.694 77.9232 103.749C73.6189 104.184 69.2557 103.727 65.0436 102.741C64.7633 102.676 64.4773 102.604 64.2395 102.443C63.7402 102.103 63.5661 101.428 63.6421 100.828C63.7181 100.229 63.9976 99.6785 64.2403 99.1252C64.7543 97.9556 65.1163 96.7263 65.4048 95.4832C65.5699 94.7729 65.6132 92.5621 66.2474 92.2C66.5947 92.0022 67.4488 92.2327 67.8165 92.2523C68.4932 92.2891 69.1698 92.307 69.8473 92.307C71.177 92.3062 72.5058 92.2368 73.8264 92.0978Z" fill="#DBBBAD" stroke="#463C43" stroke-width="0.217605" stroke-miterlimit="10"/>
<path d="M53.5779 83.655C54.4777 84.4388 55.5058 85.3714 55.4281 86.5631C55.3717 87.4343 54.7253 88.138 54.1156 88.7625C52.9511 89.9566 51.7866 91.1499 50.622 92.344C50.1684 92.809 49.7116 93.2765 49.1869 93.6606C48.2528 94.3431 47.0049 94.7395 45.927 94.3194C45.4685 94.1404 45.0746 93.829 44.7052 93.5029C41.983 91.0959 40.2758 87.7097 39.3009 84.2083C39.2437 84.0032 39.1897 83.7817 39.2649 83.5823C39.3246 83.4245 39.4561 83.3068 39.591 83.2055C40.208 82.7421 40.9599 82.5034 41.6888 82.2517C42.8803 81.8398 44.0523 81.3714 45.1997 80.8492C46.2098 80.389 47.38 79.472 48.4735 79.2742C49.5375 79.0821 50.1823 80.3 50.8067 80.9718C51.6827 81.9142 52.6079 82.8107 53.5779 83.655Z" fill="#DBBBAD" stroke="#463C43" stroke-width="0.217605" stroke-miterlimit="10"/>
<path d="M46.9125 67.6253C46.9044 67.8918 46.8954 68.1664 46.7891 68.4108C46.4941 69.0916 45.6229 69.2592 44.885 69.3425C41.7484 69.6981 38.6291 70.2056 35.5416 70.8627C35.2694 70.9208 34.9899 70.9796 34.7162 70.9314C34.4342 70.8807 34.1841 70.7197 33.961 70.5391C32.4107 69.282 31.9572 67.1055 31.958 65.1096C31.9588 63.099 32.3192 61.0892 33.0171 59.2029C33.3219 58.379 33.6121 57.936 34.0951 57.4219C35.4451 55.9867 37.301 55.8567 40.1058 55.7022C40.1058 55.7022 45.5371 55.4031 47.4241 57.3369C47.5262 57.4415 47.5957 57.56 47.5957 57.56C47.787 57.9785 47.4772 58.9928 47.4339 59.4505C47.1724 62.1689 46.9983 64.8955 46.9125 67.6253Z" fill="#DBBBAD" stroke="#463C43" stroke-width="0.217605" stroke-miterlimit="10"/>
<path d="M56.4368 37.1725C56.0421 36.3977 55.5321 35.5853 54.7051 35.3172C53.6991 34.9903 52.6473 35.5893 51.7672 36.177C49.2861 37.8345 46.8384 39.6465 45.0945 42.0683C44.7953 42.4835 44.5094 42.9444 44.4971 43.4552C44.4791 44.2047 44.9392 44.7719 45.15 45.0408C45.5635 45.568 46.4764 47.2296 48.3029 50.5521C49.2762 52.3224 49.5794 53.1511 50.2626 53.1936C50.7105 53.2214 51.0047 52.8904 51.6683 52.2561C52.5958 51.371 53.5822 50.5782 55.5558 48.9934C56.2456 48.4392 56.9566 47.9693 58.0247 46.9779C58.6948 46.3567 59.3396 45.6424 59.6444 44.7646C59.9591 43.8574 59.6428 43.434 59.1598 42.6772C58.0557 40.9428 57.366 38.9968 56.4368 37.1725Z" fill="#DBBBAD" stroke="#463C43" stroke-width="0.217605" stroke-miterlimit="10"/>
<path d="M71.4751 92.7724C58.0807 92.7732 46.8233 81.8007 46.3166 68.1842C46.0559 61.1732 48.8345 54.2162 53.9406 49.0973C58.8971 44.128 65.6254 41.4031 72.3659 41.6458C85.6893 42.11 96.5715 53.5231 96.6271 67.0882C96.6819 81.0897 85.5274 92.6106 71.7595 92.7708C71.6647 92.7716 71.5691 92.7724 71.4751 92.7724ZM71.5217 46.0806C66.1696 46.0806 61.0685 48.2514 57.0902 52.2399C52.8528 56.4867 50.5466 62.2382 50.7624 68.0191C51.1792 79.2629 60.4498 88.3229 71.4751 88.3238C71.5536 88.3238 71.6287 88.3229 71.7072 88.3221C82.8485 88.1922 92.223 78.4775 92.1781 67.1061C92.1331 55.9023 83.1754 46.4746 72.2106 46.0929C71.9802 46.0839 71.7505 46.0806 71.5217 46.0806Z" fill="#DBBBAD" stroke="#463C43" stroke-width="0.217605" stroke-miterlimit="10"/>
<path d="M73.1855 61.4126C71.596 61.2263 69.141 65.0464 70.7518 65.9749C75.8187 69.5613 80.7956 61.1029 73.1855 61.4126Z" fill="#DBBBAD" stroke="#463C43" stroke-width="0.217605" stroke-miterlimit="10"/>
<path d="M72.8316 57.6934C70.5964 59.7914 75.9003 61.7407 76.8131 59.8045C77.9997 57.2618 74.4636 55.4351 72.8316 57.6934Z" fill="#DBBBAD" stroke="#463C43" stroke-width="0.217605" stroke-miterlimit="10"/>
<path d="M69.482 58.2447C66.2001 56.8373 63.3194 60.5577 65.1467 63.4772C68.0135 66.511 74.6689 60.2888 69.482 58.2447Z" fill="#DBBBAD" stroke="#463C43" stroke-width="0.217605" stroke-miterlimit="10"/>
<path d="M70.2961 66.1395C68.2817 64.1395 62.7335 64.0692 63.08 68.0896C63.1731 73.4454 75.4463 71.4716 70.2961 66.1395Z" fill="#DBBBAD" stroke="#463C43" stroke-width="0.217605" stroke-miterlimit="10"/>
<path d="M79.0572 59.675C73.1167 59.3562 80.7668 67.6977 82.4217 62.2994C82.3988 60.6876 80.2887 60.0378 79.0572 59.675Z" fill="#DBBBAD" stroke="#463C43" stroke-width="0.217605" stroke-miterlimit="10"/>
<path d="M74.0137 54.5512C73.8167 50.5651 65.6934 51.1438 66.4625 55.3154C67.7455 58.4441 74.0815 58.7081 74.0137 54.5512Z" fill="#DBBBAD" stroke="#463C43" stroke-width="0.217605" stroke-miterlimit="10"/>
<path d="M63.0042 58.9259C59.9118 57.7122 55.0354 61.6304 58.0077 64.5556C62.2442 67.6311 67.6346 62.3186 63.0042 58.9259Z" fill="#DBBBAD" stroke="#463C43" stroke-width="0.217605" stroke-miterlimit="10"/>
<path d="M73.1086 66.9578C70.0293 68.4519 72.3453 74.1584 75.7507 72.5352C79.8531 70.0269 77.2021 66.2884 73.1086 66.9578Z" fill="#DBBBAD" stroke="#463C43" stroke-width="0.217605" stroke-miterlimit="10"/>
<path d="M77.5536 56.3991C76.0727 59.205 80.2791 60.404 82.3001 59.7493C85.6941 56.8985 79.2248 50.758 77.5536 56.3991Z" fill="#DBBBAD" stroke="#463C43" stroke-width="0.217605" stroke-miterlimit="10"/>
<path d="M71.9553 72.3298C69.7276 69.5493 65.4706 72.6976 66.6237 75.7649C68.603 78.5569 74.1406 75.7216 71.9553 72.3298Z" fill="#DBBBAD" stroke="#463C43" stroke-width="0.217605" stroke-miterlimit="10"/>
<path d="M74.0111 53.3931C73.9179 56.0886 76.7259 57.3243 78.1553 54.7686C79.9466 51.0065 74.0429 48.356 74.0111 53.3931Z" fill="#DBBBAD" stroke="#463C43" stroke-width="0.217605" stroke-miterlimit="10"/>
<path d="M63.9946 52.0653C60.9798 50.5401 57.2548 55.9467 60.7395 57.4375C65.1265 60.6684 68.3636 54.223 63.9946 52.0653Z" fill="#DBBBAD" stroke="#463C43" stroke-width="0.217605" stroke-miterlimit="10"/>
<path d="M58.0573 65.5485C55.3449 65.9678 54.0741 69.529 56.6018 71.1129C62.2472 74.1542 65.7826 63.5281 58.0573 65.5485Z" fill="#DBBBAD" stroke="#463C43" stroke-width="0.217605" stroke-miterlimit="10"/>
<path d="M66.5179 73.5268C66.5784 70.1906 61.1814 69.3839 60.2367 72.6041C59.417 76.1137 66.3594 77.2669 66.5179 73.5268Z" fill="#DBBBAD" stroke="#463C43" stroke-width="0.217605" stroke-miterlimit="10"/>
<path d="M81.2567 64.7224C73.252 62.1046 76.8641 73.0992 82.6452 70.5868C86.2067 69.4965 83.6283 65.5496 81.2567 64.7224Z" fill="#DBBBAD" stroke="#463C43" stroke-width="0.217605" stroke-miterlimit="10"/>
<path d="M84.4551 59.1956C81.0824 60.5229 82.5371 65.1244 85.0787 66.5727C89.491 66.6389 89.5041 58.3333 84.4551 59.1956Z" fill="#DBBBAD" stroke="#463C43" stroke-width="0.217605" stroke-miterlimit="10"/>
<path d="M79.2869 71.4375C75.6331 70.1715 70.4249 74.3578 74.7962 77.2119C78.352 79.4537 83.0559 73.8633 79.2869 71.4375Z" fill="#DBBBAD" stroke="#463C43" stroke-width="0.217605" stroke-miterlimit="10"/>
<path d="M73.1604 77.2057C69.8783 75.7982 66.9975 79.5186 68.8249 82.4381C71.6917 85.472 78.3473 79.2498 73.1604 77.2057Z" fill="#DBBBAD" stroke="#463C43" stroke-width="0.217605" stroke-miterlimit="10"/>
<path d="M89.3049 66.9791C86.0228 65.5717 83.1421 69.2922 84.9694 72.2117C87.8363 75.2456 94.4919 69.0232 89.3049 66.9791Z" fill="#DBBBAD" stroke="#463C43" stroke-width="0.217605" stroke-miterlimit="10"/>
<path d="M66.0695 76.7467C62.7875 75.3392 59.9067 79.0597 61.7341 81.9791C64.6017 85.0122 71.2564 78.7908 66.0695 76.7467Z" fill="#DBBBAD" stroke="#463C43" stroke-width="0.217605" stroke-miterlimit="10"/>
<path d="M75.9649 79.3945C73.7297 81.4926 79.0336 83.4419 79.9464 81.5057C81.133 78.963 77.5969 77.1363 75.9649 79.3945Z" fill="#DBBBAD" stroke="#463C43" stroke-width="0.217605" stroke-miterlimit="10"/>
<path d="M65.1231 83.2346C62.8879 85.3326 68.1918 87.2819 69.1046 85.3457C70.2912 82.8022 66.7551 80.9763 65.1231 83.2346Z" fill="#DBBBAD" stroke="#463C43" stroke-width="0.217605" stroke-miterlimit="10"/>
<path d="M57.4966 76.7873C55.2615 78.8854 60.5653 80.8347 61.4781 78.8984C62.6648 76.3549 59.1286 74.529 57.4966 76.7873Z" fill="#DBBBAD" stroke="#463C43" stroke-width="0.217605" stroke-miterlimit="10"/>
<path d="M54.6529 73.5279C52.4177 75.626 57.7215 77.5753 58.6344 75.639C59.8202 73.0955 56.284 71.2688 54.6529 73.5279Z" fill="#DBBBAD" stroke="#463C43" stroke-width="0.217605" stroke-miterlimit="10"/>
<path d="M84.9458 74.6349C82.7107 76.733 88.0145 78.6823 88.9274 76.7461C90.1132 74.2026 86.577 72.3767 84.9458 74.6349Z" fill="#DBBBAD" stroke="#463C43" stroke-width="0.217605" stroke-miterlimit="10"/>
<path d="M80.1719 76.7873C77.9368 78.8854 83.2406 80.8347 84.1534 78.8984C85.3401 76.3549 81.8039 74.529 80.1719 76.7873Z" fill="#DBBBAD" stroke="#463C43" stroke-width="0.217605" stroke-miterlimit="10"/>
<path d="M80.9981 72.258C78.7629 74.356 84.0668 76.3053 84.9797 74.3691C86.1663 71.8256 82.6293 69.9997 80.9981 72.258Z" fill="#DBBBAD" stroke="#463C43" stroke-width="0.217605" stroke-miterlimit="10"/>
<path d="M54.6529 56.7267C52.4177 58.8248 57.7215 60.7741 58.6344 58.8379C59.8202 56.2944 56.284 54.4685 54.6529 56.7267Z" fill="#DBBBAD" stroke="#463C43" stroke-width="0.217605" stroke-miterlimit="10"/>
<path d="M87.9585 63.3557C85.7234 65.4537 91.0273 67.403 91.9401 65.4668C93.1259 62.9233 89.5897 61.0974 87.9585 63.3557Z" fill="#DBBBAD" stroke="#463C43" stroke-width="0.217605" stroke-miterlimit="10"/>
<path d="M83.563 54.8423C81.3279 56.9404 86.6317 58.8897 87.5445 56.9535C88.7303 54.41 85.1942 52.5833 83.563 54.8423Z" fill="#DBBBAD" stroke="#463C43" stroke-width="0.217605" stroke-miterlimit="10"/>
<path d="M79.4302 50.9103C77.1951 53.0084 82.4988 54.9577 83.4117 53.0215C84.5983 50.478 81.0614 48.6521 79.4302 50.9103Z" fill="#DBBBAD" stroke="#463C43" stroke-width="0.217605" stroke-miterlimit="10"/>
<path d="M69.7202 48.151C67.4851 50.249 72.7889 52.1984 73.7017 50.2621C74.8883 47.7186 71.3522 45.8918 69.7202 48.151Z" fill="#DBBBAD" stroke="#463C43" stroke-width="0.217605" stroke-miterlimit="10"/>
<path d="M64.231 49.4162C61.9958 51.5142 67.2997 53.4635 68.2125 51.5273C69.3983 48.9838 65.8622 47.1579 64.231 49.4162Z" fill="#DBBBAD" stroke="#463C43" stroke-width="0.217605" stroke-miterlimit="10"/>
<path d="M79.6724 80.2779C77.4373 82.3759 82.7411 84.3252 83.6539 82.389C84.8397 79.8455 81.3036 78.0188 79.6724 80.2779Z" fill="#DBBBAD" stroke="#463C43" stroke-width="0.217605" stroke-miterlimit="10"/>
<path d="M51.6509 65.6314C49.4158 67.7294 54.7195 69.6787 55.6324 67.7425C56.819 65.199 53.2829 63.3723 51.6509 65.6314Z" fill="#DBBBAD" stroke="#463C43" stroke-width="0.217605" stroke-miterlimit="10"/>
<path d="M73.583 83.2346C71.3479 85.3326 76.6517 87.2819 77.5646 85.3457C78.7504 82.8022 75.2142 80.9763 73.583 83.2346Z" fill="#DBBBAD" stroke="#463C43" stroke-width="0.217605" stroke-miterlimit="10"/>
<path d="M52.6787 62.2482C50.4436 64.3463 55.7474 66.2956 56.6603 64.3593C57.8461 61.8159 54.3099 59.99 52.6787 62.2482Z" fill="#DBBBAD" stroke="#463C43" stroke-width="0.217605" stroke-miterlimit="10"/>
<path d="M52.2362 70.5624C50.7145 71.9903 54.3259 73.3185 54.947 71.9993C55.7544 70.2682 53.3468 69.0242 52.2362 70.5624Z" fill="#DBBBAD" stroke="#463C43" stroke-width="0.217605" stroke-miterlimit="10"/>
<path d="M84.2022 78.9196C82.7442 80.2878 86.2036 81.5595 86.7993 80.296C87.5724 78.6376 85.2662 77.4467 84.2022 78.9196Z" fill="#DBBBAD" stroke="#463C43" stroke-width="0.217605" stroke-miterlimit="10"/>
<path d="M58.5942 80.4113C56.6778 82.2102 61.2256 83.8824 62.0085 82.2216C63.0251 80.0402 59.9932 78.4743 58.5942 80.4113Z" fill="#DBBBAD" stroke="#463C43" stroke-width="0.217605" stroke-miterlimit="10"/>
<path d="M70.0477 84.9305C68.4001 86.476 72.3098 87.9137 72.9824 86.4858C73.856 84.6117 71.2498 83.2656 70.0477 84.9305Z" fill="#DBBBAD" stroke="#463C43" stroke-width="0.217605" stroke-miterlimit="10"/>
<path d="M75.0004 48.4507C73.4787 49.8786 77.09 51.2067 77.7111 49.8876C78.5186 48.1565 76.111 46.9134 75.0004 48.4507Z" fill="#DBBBAD" stroke="#463C43" stroke-width="0.217605" stroke-miterlimit="10"/>
<path d="M54.6709 44.733C54.8107 44.2672 54.5631 43.8438 54.1422 43.1221C53.6756 42.3236 53.2383 41.574 52.6164 41.5569C52.5061 41.5536 52.4186 41.5749 51.4143 42.1985C50.4679 42.7862 50.4188 42.8458 50.3747 42.9267C50.0151 43.588 50.6101 44.5401 51.053 45.2479C51.4764 45.9247 51.7967 46.4379 52.305 46.4755C52.5886 46.4968 52.9229 46.254 53.5808 45.7694C54.2484 45.2782 54.5835 45.0256 54.6709 44.733Z" fill="#463C43"/>
<path d="M50.2033 86.856C50.343 86.3902 50.0954 85.9668 49.6745 85.2451C49.2079 84.4466 48.7707 83.6971 48.1488 83.6799C48.0384 83.6767 47.951 83.6979 46.9466 84.3215C46.0003 84.9092 45.9512 84.9688 45.9079 85.0497C45.5483 85.7109 46.1433 86.6632 46.5862 87.371C47.0095 88.0477 47.3299 88.561 47.8382 88.5986C48.1218 88.6198 48.456 88.3771 49.1139 87.8924C49.7799 87.4012 50.1158 87.1495 50.2033 86.856Z" fill="#463C43"/>
<path d="M40.3938 77.6457C40.7836 77.9358 41.2658 77.8484 42.0879 77.6988C42.9983 77.5329 43.8515 77.3776 44.0795 76.7989C44.1204 76.696 44.1302 76.6069 43.8867 75.4495C43.6578 74.3592 43.6186 74.293 43.5574 74.2243C43.0588 73.6604 41.9605 73.895 41.1441 74.069C40.3636 74.2358 39.7711 74.3625 39.5627 74.8267C39.4467 75.0858 39.5595 75.483 39.7907 76.2669C40.0261 77.0621 40.1487 77.4634 40.3938 77.6457Z" fill="#463C43"/>
<path d="M42.1119 61.8779C41.8169 61.4914 41.3289 61.4423 40.4978 61.3598C39.5776 61.2683 38.7138 61.1816 38.3354 61.6753C38.2684 61.7627 38.2341 61.8461 38.1483 63.0255C38.0674 64.1362 38.087 64.2114 38.127 64.2939C38.4506 64.9739 39.5711 65.0515 40.4038 65.1088C41.1998 65.1643 41.8038 65.206 42.1331 64.817C42.3162 64.5996 42.317 64.1868 42.3113 63.3695C42.3039 62.5408 42.2974 62.1215 42.1119 61.8779Z" fill="#463C43"/>
<path d="M46.0849 51.1443C45.9999 50.6654 45.588 50.3989 44.8868 49.9453C44.1105 49.4427 43.3823 48.9711 42.8192 49.2367C42.7195 49.2841 42.6509 49.3421 42.0355 50.3515C41.4561 51.3029 41.4389 51.3781 41.4364 51.4696C41.4136 52.2224 42.3738 52.8035 43.0881 53.2359C43.7713 53.6494 44.2886 53.9624 44.7593 53.7671C45.0217 53.6576 45.2112 53.2914 45.579 52.5616C45.9533 51.8219 46.1388 51.4451 46.0849 51.1443Z" fill="#463C43"/>
<path d="M78.3435 39.0991C78.7971 38.9233 78.9802 38.4689 79.2915 37.6932C79.6364 36.835 79.96 36.03 79.5915 35.5282C79.5261 35.4391 79.4558 35.3835 78.3468 34.9724C77.3024 34.585 77.2255 34.5833 77.1348 34.598C76.3919 34.719 76.0046 35.7734 75.7169 36.5572C75.4415 37.3067 75.2331 37.8747 75.515 38.2989C75.672 38.5359 76.0683 38.6512 76.8553 38.8735C77.653 39.0991 78.0583 39.2094 78.3435 39.0991Z" fill="#463C43"/>
<path d="M66.0983 39.2224C66.3958 38.8374 66.3173 38.3544 66.1833 37.5289C66.0354 36.616 65.8957 35.7594 65.3212 35.5208C65.219 35.4783 65.13 35.4668 63.9687 35.6883C62.8744 35.8967 62.8074 35.9351 62.7371 35.994C62.1642 36.4819 62.3776 37.5845 62.5361 38.4043C62.6881 39.1881 62.8033 39.7823 63.2634 39.9997C63.52 40.1206 63.9196 40.0152 64.7074 39.7986C65.5083 39.5788 65.9112 39.4643 66.0983 39.2224Z" fill="#463C43"/>
<path d="M72.4324 99.25C72.7772 98.9075 72.7625 98.4171 72.7372 97.5818C72.7086 96.6574 72.6824 95.7895 72.1439 95.4781C72.0482 95.4225 71.9616 95.3996 70.7807 95.4682C69.6693 95.5328 69.5974 95.5615 69.5206 95.6113C68.8888 96.0208 68.9575 97.1413 69.0081 97.975C69.0572 98.7718 69.0939 99.3759 69.5222 99.6513C69.7608 99.8049 70.171 99.7518 70.9801 99.6398C71.7998 99.527 72.215 99.4657 72.4324 99.25Z" fill="#463C43"/>
<path d="M87.0498 95.5846C87.1895 95.1187 86.9419 94.6953 86.5211 93.9736C86.0544 93.1751 85.6172 92.4256 84.9953 92.4084C84.885 92.4052 84.7975 92.4264 83.7931 93.05C82.8468 93.6377 82.7978 93.6973 82.7536 93.7782C82.394 94.4395 82.989 95.3917 83.4319 96.0995C83.8552 96.7762 84.1756 97.2895 84.6839 97.3271C84.9675 97.3484 85.3017 97.1056 85.9596 96.6209C86.6265 96.1305 86.9623 95.878 87.0498 95.5846Z" fill="#463C43"/>
<path d="M97.0747 86.3108C97.0069 85.8294 96.6056 85.5474 95.9216 85.0676C95.164 84.5364 94.4538 84.0378 93.8818 84.283C93.7804 84.3263 93.7102 84.3819 93.0572 85.3684C92.4427 86.2969 92.4231 86.3721 92.4165 86.4636C92.3659 87.2147 93.304 87.8318 94.0019 88.2895C94.6688 88.7276 95.1746 89.0602 95.6519 88.882C95.9183 88.7823 96.121 88.4227 96.5157 87.7076C96.9178 86.9826 97.118 86.614 97.0747 86.3108Z" fill="#463C43"/>
<path d="M102.684 75.6317C102.535 75.2263 102.06 75.1912 101.251 75.1299C100.356 75.062 99.5154 74.9991 98.9418 75.5426C98.8396 75.6391 98.7734 75.729 98.2316 76.9991C97.7216 78.1948 97.7126 78.275 97.72 78.3624C97.7854 79.0817 98.8886 79.1266 99.7083 79.1601C100.492 79.192 101.087 79.2165 101.57 78.7874C101.84 78.5479 101.999 78.1041 102.309 77.2271C102.623 76.3371 102.778 75.8867 102.684 75.6317Z" fill="#463C43"/>
<path d="M103.33 67.772C103.694 67.45 103.708 66.9605 103.731 66.1252C103.757 65.2008 103.781 64.3328 103.262 63.9904C103.17 63.9299 103.085 63.9012 101.902 63.9004C100.788 63.8996 100.715 63.9241 100.635 63.9699C99.9808 64.3418 99.9832 65.4648 99.9857 66.2993C99.9873 67.0978 99.9889 67.7026 100.401 68.0033C100.63 68.1709 101.042 68.1423 101.857 68.0777C102.683 68.0115 103.1 67.9739 103.33 67.772Z" fill="#463C43"/>
<path d="M97.2646 55.0643C97.7328 55.1951 98.1513 54.9401 98.8647 54.5053C99.655 54.0239 100.395 53.5727 100.4 52.9507C100.401 52.8404 100.378 52.7538 99.7359 51.7607C99.1311 50.8257 99.0707 50.7775 98.9889 50.735C98.3212 50.3876 97.3798 51.0006 96.681 51.4567C96.0125 51.8923 95.505 52.2225 95.4772 52.7317C95.4617 53.0153 95.7102 53.3455 96.207 53.9936C96.7121 54.6508 96.9704 54.9818 97.2646 55.0643Z" fill="#463C43"/>
<path d="M92.0047 42.7556C92.0088 42.2693 91.6541 41.9318 91.0486 41.3556C90.3785 40.7181 89.7492 40.1198 89.1477 40.2775C89.0407 40.3053 88.963 40.3503 88.1719 41.2289C87.4266 42.0568 87.3964 42.1271 87.3768 42.217C87.215 42.9526 88.0526 43.7013 88.6745 44.2579C89.2695 44.79 89.7206 45.1937 90.2191 45.0883C90.4969 45.0294 90.7511 44.7042 91.2471 44.0552C91.7497 43.3973 92.0023 43.0613 92.0047 42.7556Z" fill="#463C43"/>
<path d="M58.7923 97.131C59.2532 96.9773 59.4575 96.5311 59.8048 95.7718C60.1897 94.9308 60.5509 94.1413 60.2061 93.6231C60.1448 93.5307 60.0777 93.4719 58.9892 93.0093C57.9644 92.5737 57.8876 92.568 57.7961 92.5786C57.0483 92.6652 56.6119 93.6999 56.2883 94.469C55.9785 95.2046 55.7432 95.7629 56.0047 96.1993C56.151 96.4429 56.5408 96.5777 57.3163 96.836C58.1033 97.0983 58.5022 97.2283 58.7923 97.131Z" fill="#463C43"/>
</svg>
