<svg width="140" height="140" viewBox="0 0 140 140" fill="none" xmlns="http://www.w3.org/2000/svg">
<path d="M126.464 89.4047C126.226 88.8389 124.789 85.4196 121.571 84.3395C118.183 83.2019 116.009 85.7284 111.842 86.0059C110.778 86.0769 107.185 86.161 100.524 81.3352C92.3869 75.4399 88.7221 68.7752 85.2155 64.0762C75.596 51.1858 61.8148 45.9212 52.259 42.271C45.7545 39.7865 35.2595 36.6856 21.6343 36.5413C21.433 36.2462 19.814 33.9405 17.5549 34.0309C14.8798 34.1377 13.142 37.5317 13.0704 40.1647C12.9961 42.8953 14.7131 44.8092 15.1866 45.3051C16.4207 48.6079 18.4128 53.3537 21.4956 58.7112C24.8379 64.5194 36.7415 84.5716 60.7894 95.3615C69.7283 99.3723 79.428 103.724 90.8729 102.829C96.2792 102.407 102.283 100.797 109.886 103.606C114.477 105.302 115.958 107.245 118.869 106.596C124.448 105.35 129.209 95.9354 126.464 89.4047Z" fill="#DBBBAD" stroke="#463C43" stroke-width="0.234449" stroke-miterlimit="10"/>
<path d="M126.464 89.4047C126.226 88.8389 124.789 85.4196 121.571 84.3395C118.183 83.2019 116.009 85.7284 111.842 86.0059C110.778 86.0769 107.185 86.161 100.524 81.3352C92.3869 75.4399 88.7221 68.7752 85.2155 64.0762C75.596 51.1858 61.8148 45.9212 52.259 42.271C45.7545 39.7865 35.2595 36.6856 21.6343 36.5413C21.433 36.2462 19.814 33.9405 17.5549 34.0309C14.8798 34.1377 13.142 37.5317 13.0704 40.1647C12.9961 42.8953 14.7131 44.8092 15.1866 45.3051C16.4207 48.6079 18.4128 53.3537 21.4956 58.7112C24.8379 64.5194 36.7415 84.5716 60.7894 95.3615C69.7283 99.3723 79.428 103.724 90.8729 102.829C96.2792 102.407 102.283 100.797 109.886 103.606C114.477 105.302 115.958 107.245 118.869 106.596C124.448 105.35 129.209 95.9354 126.464 89.4047Z" fill="url(#paint0_linear_4821_341575)"/>
<path d="M30.5132 41.3239C31.8352 42.5108 32.2903 44.7645 31.5445 45.5207C30.9822 46.091 30.0599 45.481 29.4473 46.0891C28.6866 46.8435 29.7419 48.1444 29.1976 49.4676C28.5256 51.1005 25.7135 52.05 23.8565 51.2599C22.8809 50.8449 22.689 50.1705 21.4781 48.2491C18.4738 43.4829 16.7457 43.02 16.6876 40.5416C16.6812 40.2667 16.6259 37.9005 17.8876 37.2495C19.4858 36.4255 21.075 39.4457 25.4768 40.348C28.085 40.8824 29.2302 40.1714 30.5132 41.3239Z" fill="#DBBBAD" stroke="#463C43" stroke-width="0.234449" stroke-miterlimit="10"/>
<path d="M26.3473 43.9359C25.7393 43.4549 24.6685 43.4607 24.0313 44.0872C23.2654 44.8397 23.4609 46.159 24.1909 46.8254C24.6476 47.2425 25.4019 47.4838 25.9904 47.2114C27.0396 46.7264 27.3332 44.7161 26.3473 43.9359Z" fill="#463C43"/>
<path d="M23.8568 51.2587C23.6157 51.2701 23.0673 53.3221 23.8535 55.3396C24.5898 57.2295 26.1664 58.2395 26.5661 58.5046C30.6193 61.1905 31.9756 65.6473 46.1298 77.8517C56.5426 86.8298 61.7488 91.3188 67.0101 93.711C70.7525 95.412 84.1675 101.511 96.5046 99.881C98.0523 99.6765 101.613 99.0822 106.15 100.002C112.189 101.226 115.939 104.317 116.03 104.163C116.131 103.99 111.512 99.9705 104.464 98.1611C101.021 97.2772 98.5671 97.323 96.4526 97.2382C89.4833 96.9576 84.3556 95.1807 76.6072 92.4962C76.6072 92.4962 60.5804 86.9431 36.2199 63.4275C33.9843 61.2697 30.7654 57.7284 27.6205 56.6269C27.247 56.4959 26.2894 56.1948 25.462 55.3263C23.8505 53.6348 24.1178 51.247 23.8568 51.2587Z" fill="#DBBBAD" stroke="#463C43" stroke-width="0.234449" stroke-miterlimit="10"/>
<path d="M31.1803 42.123C31.1707 41.9752 34.2335 41.625 35.4813 41.5361C43.0284 41.0011 50.9218 45.3274 56.1492 48.4337C69.3129 56.2553 75.895 60.1661 81.435 66.8102C83.9826 69.8656 87.9637 75.2866 94.7084 82.3979C96.8562 84.6626 100.036 87.8913 104.923 88.9687C108.401 89.7355 111.401 89.1161 111.412 89.273C111.426 89.4677 106.861 90.7885 102.192 89.7359C96.6561 88.4881 93.3244 84.4342 91.3952 82.2039C91.3952 82.2039 85.5362 75.4299 71.7617 64.2376C58.0053 53.0597 46.4231 49.9144 40.6048 45.1715C39.9467 44.6349 38.2618 43.1811 35.6498 42.5263C33.2972 41.9369 31.1883 42.2458 31.1803 42.123Z" fill="#DBBBAD" stroke="#463C43" stroke-width="0.234449" stroke-miterlimit="10"/>
<defs>
<linearGradient id="paint0_linear_4821_341575" x1="-42.6825" y1="5.43422" x2="91.0916" y2="89.4909" gradientUnits="userSpaceOnUse">
<stop stop-color="#8A7A88"/>
<stop offset="1" stop-color="#897987" stop-opacity="0"/>
</linearGradient>
</defs>
</svg>
