<svg width="140" height="140" viewBox="0 0 140 140" fill="none" xmlns="http://www.w3.org/2000/svg">
<g clip-path="url(#clip0_4823_341784)">
<path d="M27.9822 119.564L30.6763 116.029C31.5715 114.849 32.4726 113.676 33.3997 112.524C34.3261 111.372 35.277 110.237 36.218 109.091L39.0466 105.662L41.8438 102.207C41.9383 102.159 42.0328 102.111 42.1273 102.063L34.7418 112.491C33.4866 114.249 32.3706 116.116 31.4432 118.067C30.5078 120.015 29.7508 122.046 29.1692 124.122C29.7975 122.059 30.5985 120.05 31.5739 118.131C32.5431 116.207 33.6891 114.384 34.9788 112.66L42.6916 102.273C42.7295 102.267 42.7752 102.257 42.8242 102.245C42.8887 102.481 42.9579 102.718 43.0141 102.96C43.0714 103.247 43.1106 103.539 43.1315 103.834C43.1716 104.423 43.1384 105.024 43.0337 105.619C43.2324 105.049 43.3652 104.45 43.4226 103.837C43.4503 103.531 43.4591 103.221 43.448 102.91C43.4278 102.606 43.3879 102.301 43.3563 101.993C43.4016 101.959 43.4478 101.923 43.4968 101.881C43.8887 101.541 44.2562 101.036 44.3567 100.896L44.6279 101.447L44.8034 101.803C44.8561 101.925 44.9055 102.047 44.9533 102.171C45.1444 102.667 45.2999 103.179 45.4196 103.703C45.396 103.166 45.3347 102.627 45.2333 102.092C45.208 101.958 45.1804 101.825 45.1495 101.692L45.0381 101.298C44.9306 100.995 44.8231 100.692 44.7154 100.389C44.7886 100.291 44.8919 100.157 45.021 100.002C45.1842 99.8062 45.4837 99.4649 45.9144 99.0681C46.5322 98.4991 46.8263 98.3554 47.3471 97.7264C47.6559 97.3536 47.821 97.0798 48.234 96.794C48.6807 96.4848 48.9335 96.4961 49.3256 96.2934C49.7068 96.0966 50.1911 95.7121 50.5991 94.8835C49.19 93.4284 47.7811 91.9735 46.372 90.5185C46.0611 90.7732 45.616 91.1732 45.1607 91.7297C44.3635 92.7043 44.3667 93.1422 43.8524 93.91C43.3644 94.639 43.0575 94.6979 40.7158 96.4685C39.507 96.1182 38.2311 96.1187 37.0652 96.4262C38.1484 96.3142 39.2365 96.4649 40.2085 96.8546C40.102 96.9361 39.9931 97.0199 39.8791 97.1079C39.6425 97.2906 39.4447 97.4448 39.282 97.5783C38.0195 97.3657 36.7322 97.3994 35.514 97.6737C36.6472 97.5717 37.7832 97.6772 38.8557 97.9669C38.7361 98.0986 38.6749 98.2072 38.6635 98.3119C36.9559 99.174 35.3101 100.161 33.7708 101.296C32.9443 101.898 32.1689 102.565 31.3893 103.205C30.6078 103.846 29.8054 104.458 28.9729 105.03C28.1412 105.604 27.2869 106.144 26.4072 106.643C25.5233 107.138 24.6467 107.659 23.7993 108.218C22.1003 109.333 20.4877 110.572 18.9494 111.893C20.519 110.609 22.1588 109.41 23.8778 108.341C24.7365 107.803 25.6164 107.308 26.5133 106.833C27.4092 106.353 28.284 105.829 29.1354 105.272C29.9881 104.715 30.8141 104.116 31.6161 103.49C32.4191 102.862 33.1978 102.224 34.0257 101.651C35.4424 100.657 36.9438 99.7888 38.4963 99.0274C36.1472 101.151 33.6519 103.116 31.0272 104.894C30.3342 105.365 29.6294 105.815 28.924 106.278C28.218 106.74 27.5275 107.227 26.8494 107.73C25.4968 108.744 24.2329 109.866 22.9917 110.997C20.5152 113.268 17.9634 115.451 15.3074 117.509C12.6554 119.571 9.91534 121.521 7.10545 123.365C9.94134 121.561 12.7111 119.651 15.3959 117.625C18.0837 115.604 20.6749 113.451 23.1858 111.215C24.4439 110.1 25.7132 109.007 27.0655 108.023C27.7439 107.534 28.4344 107.062 29.1413 106.614C30.2822 105.891 31.1098 105.356 31.2691 105.257C32.3494 104.587 34.5413 103.003 39.3959 99.023C39.4147 99.0395 39.4558 99.0708 39.5173 99.085C39.5776 99.0989 39.6276 99.0894 39.6517 99.0829C39.4616 99.2995 39.2712 99.5163 39.081 99.7329L38.3509 100.515L36.8893 102.079C36.3962 102.594 35.9265 103.138 35.4534 103.675L34.0362 105.285L35.5585 103.775C36.0658 103.273 36.5659 102.768 37.096 102.284C37.8382 101.699 38.3392 101.187 38.6652 100.818C38.8154 100.649 39.0357 100.388 39.3954 100.005C39.7271 99.6524 40.0099 99.3733 40.1998 99.1903C40.3619 99.169 40.6126 99.1146 40.8757 98.9593C40.8861 98.953 40.9941 98.8998 41.0879 98.8116C41.3168 98.5966 41.3548 98.3111 41.7906 97.8368C42.3325 97.2466 42.7534 97.166 43.8901 96.527C44.3449 96.2714 44.9899 95.8842 45.7402 95.3423C45.6464 95.6436 45.4878 96.0798 45.2204 96.5688C44.9887 96.9927 44.8394 97.1554 43.9938 98.2109C42.5446 100.02 42.6546 99.9517 42.4554 100.123C42.353 100.212 42.2655 100.294 42.1845 100.378C41.952 100.618 41.8901 100.801 41.5822 101.121C41.5054 101.201 41.4399 101.261 41.4028 101.294C40.7193 101.782 40.0355 102.271 39.352 102.759C38.7403 103.21 38.1568 103.699 37.5771 104.189C36.4204 105.174 35.306 106.206 34.2376 107.28C35.3729 106.276 36.5479 105.321 37.7586 104.417C38.3653 103.967 38.9743 103.52 39.6099 103.111L41.2427 102.029L38.6484 105.343L35.8779 108.816C34.9571 109.975 34.0245 111.126 33.1132 112.298C32.2024 113.469 31.3181 114.66 30.4421 115.854L27.8069 119.432C26.9309 120.626 26.0136 121.789 25.1155 122.966L19.7012 130.013L25.2309 123.055C26.1496 121.893 27.0862 120.744 27.9822 119.564Z" fill="#BCBCBE" stroke="#3F3E3E" stroke-width="0.0668925" stroke-miterlimit="10"/>
<path d="M47.6991 88.5935C47.4595 88.7314 47.2025 88.8993 46.9399 89.1048C46.313 89.5951 45.8744 90.1261 45.5766 90.5609C46.1692 91.3537 46.8665 92.2025 47.6832 93.0702C48.6954 94.146 49.6936 95.042 50.6108 95.7809C50.9382 95.4949 51.3017 95.1369 51.6642 94.6964C52.1076 94.1578 52.4332 93.6373 52.6712 93.1936C51.0136 91.6606 49.3561 90.127 47.6991 88.5935Z" fill="#BCBCBE" stroke="#3F3E3E" stroke-width="0.0668925" stroke-miterlimit="10"/>
<path d="M49.6972 86.2229C49.3345 86.6144 49.0037 86.9513 48.7213 87.2299C48.0255 87.9159 47.6931 88.1783 47.2188 88.2988C47.0537 88.3408 46.9121 88.3552 46.816 88.3608C47.3994 88.9664 47.8834 89.4398 48.1945 89.7393C49.7621 91.248 50.4597 91.7255 51.4164 92.8683C51.9201 93.4701 52.2744 93.9924 52.4696 94.2935C52.5265 94.1735 52.6215 93.9893 52.764 93.7822C53.1854 93.17 53.6073 92.959 54.1735 92.4345C54.3885 92.2353 54.6899 91.9307 55.01 91.5051C53.239 89.7443 51.4682 87.9838 49.6972 86.2229Z" fill="#BCBCBE" stroke="#3F3E3E" stroke-width="0.0668925" stroke-miterlimit="10"/>
<path d="M53.0428 82.103C52.8215 82.2727 52.4979 82.5434 52.1598 82.9242C51.5966 83.558 51.3746 84.066 51.1376 84.4423C50.8051 84.9693 50.1857 85.6449 48.9222 86.1928C49.8016 87.2593 50.7949 88.3794 51.9118 89.5232C53.0159 90.6538 54.0995 91.6627 55.1335 92.5592C55.211 92.4297 55.3304 92.2384 55.4899 92.0171C56.3199 90.8644 57.0863 90.488 57.8134 89.7553C58.2135 89.3525 58.7191 88.7238 59.1301 87.7571C57.1012 85.8721 55.0722 83.9875 53.0428 82.103Z" fill="#BCBCBE" stroke="#3F3E3E" stroke-width="0.0668925" stroke-miterlimit="10"/>
<path d="M54.1898 79.3153C53.8966 79.5732 53.5562 79.9196 53.2293 80.3686C52.7719 80.9969 52.5051 81.6016 52.3463 82.0571C52.7516 82.5358 53.17 83.0164 53.6011 83.4976C55.4036 85.5106 57.2269 87.3106 59.0226 88.9191C59.141 88.7965 59.332 88.6162 59.5958 88.4388C60.1216 88.0852 60.4682 88.0598 60.8815 87.8346C61.1684 87.6781 61.5524 87.3902 61.9039 86.8121C59.3325 84.3131 56.761 81.8141 54.1898 79.3153Z" fill="#BCBCBE" stroke="#3F3E3E" stroke-width="0.0668925" stroke-miterlimit="10"/>
<path d="M55.8476 77.5949C55.6312 77.861 55.3466 78.1647 54.98 78.4626C54.4235 78.9151 53.8781 79.1911 53.4619 79.3609C55.3392 81.3998 57.3749 83.4694 59.5805 85.5412C60.3215 86.2372 61.0602 86.9137 61.7954 87.5704C61.9598 87.3104 62.1448 87.0404 62.3531 86.7648C62.7843 86.1939 63.2259 85.7175 63.6389 85.324C61.0419 82.7478 58.4449 80.1713 55.8476 77.5949Z" fill="#BCBCBE" stroke="#3F3E3E" stroke-width="0.0668925" stroke-miterlimit="10"/>
<path d="M57.4585 74.4043C57.3705 74.789 57.2096 75.2935 56.9008 75.8293C56.3675 76.7549 55.6649 77.3019 55.2431 77.5798C56.4728 78.9976 57.7832 80.4469 59.1774 81.9168C60.6079 83.4248 62.0214 84.8439 63.4062 86.1766C63.6838 85.8799 63.9731 85.5799 64.2736 85.2781C64.7546 84.7952 65.2308 84.3413 65.6986 83.9148C62.9521 80.7449 60.2054 77.5747 57.4585 74.4043Z" fill="#BCBCBE" stroke="#3F3E3E" stroke-width="0.0668925" stroke-miterlimit="10"/>
<path d="M58.8682 70.7324C58.4331 71.5292 58.0607 72.1523 57.7992 72.5758C57.551 72.9781 57.4008 73.205 57.2259 73.5827C56.9079 74.2708 56.7725 74.8905 56.7458 75.0853C56.5667 76.3856 58.706 77.0905 61.1138 79.7941C62.1403 80.9464 63.2386 82.0382 64.1962 83.2484C64.4854 83.6138 65.3149 84.6768 65.869 84.4876C66.2029 84.3738 66.2115 83.8823 66.6747 83.7131C67.0535 83.5747 67.3556 83.7908 67.6815 83.8525C68.1505 83.9412 68.8908 83.7519 70.0361 82.3963C66.3135 78.5083 62.5908 74.6204 58.8682 70.7324Z" fill="#BCBCBE" stroke="#3F3E3E" stroke-width="0.0668925" stroke-miterlimit="10"/>
<path d="M60.2868 64.9446C59.9402 65.5401 59.715 66.0476 59.5745 66.3975C59.2438 67.2212 59.2366 67.5321 58.8905 68.05C58.4609 68.6927 58.1234 68.7345 57.9504 69.0472C57.4106 70.0216 59.3529 72.0234 60.5143 73.3208C64.0025 77.2176 65.6251 80.5504 68.8046 82.5798C69.3748 82.9437 69.8818 83.1935 70.5142 83.2065C71.7037 83.231 72.319 82.3966 74.1041 81.6107C74.9155 81.2533 75.618 81.0606 76.07 80.9554C74.2951 78.1938 71.8105 74.8724 68.4066 71.5256C65.5387 68.706 62.719 66.5573 60.2868 64.9446Z" fill="#BCBCBE" stroke="#3F3E3E" stroke-width="0.0668925" stroke-miterlimit="10"/>
<path d="M62.481 60.5298C62.097 60.9635 61.5444 61.62 60.9424 62.4672C59.9345 63.885 59.4307 64.5941 59.4323 65.2309C59.4355 66.6103 61.5418 67.241 63.8199 68.7065C67.911 71.3387 72.7178 76.769 74.4462 80.1877C74.6473 80.5851 75.1809 81.696 76.0415 81.783C76.7933 81.8591 77.2815 81.1025 78.492 80.2444C79.5268 79.5109 80.5191 79.1074 81.2271 78.8766C74.9783 72.761 68.7298 66.6454 62.481 60.5298Z" fill="#BCBCBE" stroke="#3F3E3E" stroke-width="0.0668925" stroke-miterlimit="10"/>
<path d="M84.4696 36.8698C84.3045 36.3769 84.2756 35.8534 84.403 35.3694C84.5317 34.8865 84.8233 34.4709 85.1976 34.1937C84.8881 34.5435 84.7121 34.9842 84.6905 35.4167C84.6688 35.8487 84.7919 36.2787 85.001 36.6313L84.4696 36.8698Z" fill="#3F3E3E"/>
<path d="M83.9284 36.6504C83.6055 36.1051 83.4247 35.4878 83.4055 34.8761C83.3867 34.2643 83.5226 33.6642 83.7803 33.1367C83.6131 33.6995 83.585 34.2917 83.695 34.8433C83.8057 35.3956 84.0576 35.9038 84.406 36.3168L83.9284 36.6504Z" fill="#3F3E3E"/>
<path d="M88.168 43.4012L85.3933 42.1849C84.9337 41.9825 84.4772 41.7879 83.9832 41.7731C83.4894 41.7506 82.99 41.8619 82.499 41.9722C82.9777 41.8161 83.463 41.655 83.9825 41.6276C84.5067 41.5922 85.0212 41.7552 85.4971 41.913L88.3758 42.8578L88.168 43.4012Z" fill="#3F3E3E"/>
<path d="M75.912 34.5127C75.4523 34.1793 75.1587 33.7157 74.966 33.2449C74.7733 32.7704 74.6779 32.2826 74.5874 31.7988C74.7703 32.2557 74.9611 32.713 75.2239 33.11C75.4835 33.5047 75.8233 33.8399 76.2103 34.0128L75.912 34.5127Z" fill="#3F3E3E"/>
<path d="M75.4655 34.8546C75.0186 34.542 74.6081 34.1868 74.2399 33.7986C74.0556 33.6046 73.8829 33.4012 73.7211 33.1911C73.6406 33.0859 73.5619 32.9794 73.4874 32.8705C73.4152 32.764 73.3255 32.6516 73.31 32.5176C73.3499 32.6449 73.4516 32.7308 73.5433 32.8238C73.6357 32.9162 73.7313 33.0054 73.8281 33.092C74.0222 33.2656 74.2235 33.4288 74.4327 33.5799C74.8503 33.8829 75.2944 34.1408 75.755 34.3492L75.4655 34.8546Z" fill="#3F3E3E"/>
<path d="M69.1565 36.8592C68.3012 37.8064 67.5248 38.8326 66.9917 39.9934C66.463 41.147 66.1809 42.4492 66.3584 43.7384C66.0841 42.4657 66.2659 41.1129 66.7227 39.8822C67.182 38.6443 67.9068 37.5207 68.7101 36.4857L69.1565 36.8592Z" fill="#3F3E3E"/>
<path d="M68.5695 36.5641C68.0717 37.2606 67.3919 37.7881 66.6581 38.1603C65.9221 38.5346 65.1272 38.7598 64.3314 38.8875C63.5339 39.0178 62.732 39.0592 61.935 39.0831C61.5359 39.0885 61.1396 39.1203 60.735 39.0904C60.325 39.0616 59.9647 38.8676 59.5745 38.7903C59.9698 38.8444 60.3452 39.0154 60.7394 39.0177C61.1313 39.0233 61.5301 38.9676 61.9262 38.9378C62.7181 38.8656 63.5086 38.7757 64.2757 38.6015C65.0425 38.4299 65.7842 38.1673 66.4487 37.7768C67.1115 37.3884 67.6917 36.8699 68.0857 36.2401L68.5695 36.5641Z" fill="#3F3E3E"/>
<path d="M69.3621 37.0808C69.0949 37.414 68.9453 37.9006 68.7674 38.3677L68.5065 39.0702C68.4217 39.3012 68.3383 39.5359 68.3685 39.7871C68.2889 39.5464 68.3261 39.2785 68.3658 39.0331L68.4859 38.2932C68.5272 38.0462 68.5618 37.8022 68.6131 37.547C68.6647 37.2935 68.7374 37.0296 68.8678 36.7728L69.3621 37.0808Z" fill="#3F3E3E"/>
<path d="M68.4247 36.2539C68.0152 36.6968 67.4429 36.8805 66.9069 36.8956C66.365 36.9086 65.858 36.7629 65.3891 36.5823C64.4512 36.2202 63.566 35.6693 62.9434 34.8916C63.6398 35.6034 64.548 36.0463 65.481 36.306C65.9476 36.436 66.4259 36.5172 66.8763 36.4601C67.3197 36.4057 67.7441 36.2 67.9797 35.8789L68.4247 36.2539Z" fill="#3F3E3E"/>
<path d="M71.2243 26.3559C70.8563 26.4755 70.4976 26.5918 70.1631 26.749C69.8272 26.9034 69.5251 27.1079 69.2579 27.37C68.7211 27.8938 68.3415 28.585 67.9756 29.2652C68.2551 28.5451 68.5393 27.81 69.0415 27.1751C69.2897 26.8591 69.6064 26.5805 69.9516 26.3666C70.2955 26.1491 70.6588 25.9798 71.0096 25.8143L71.2243 26.3559Z" fill="#3F3E3E"/>
<path d="M68.8805 36.1994C68.4659 36.2054 68.1504 35.993 67.9141 35.7929C67.6745 35.5831 67.4772 35.3676 67.2752 35.142C66.879 34.6909 66.5301 34.2051 66.2334 33.6939C66.6095 34.1498 67.0273 34.5648 67.4775 34.9328C67.7013 35.1134 67.9392 35.297 68.1714 35.44C68.4033 35.5828 68.6475 35.6631 68.8314 35.619L68.8805 36.1994Z" fill="#3F3E3E"/>
<path d="M56.6661 24.3077C55.6981 23.4651 55.1273 22.2595 55.0635 21.0586C55.3195 22.2335 56.0591 23.2522 57.0137 23.8404L56.6661 24.3077Z" fill="#3F3E3E"/>
<path d="M55.7965 25.4139C54.1656 25.7959 52.6305 26.7288 51.5126 28.0612C52.4747 26.6125 53.9323 25.4609 55.631 24.8556L55.7965 25.4139Z" fill="#3F3E3E"/>
<path d="M55.976 24.8541C54.2294 24.8084 52.4492 25.1684 50.8206 25.9167C52.3585 24.9968 54.1282 24.4235 55.9588 24.2723L55.976 24.8541Z" fill="#3F3E3E"/>
<path d="M63.3215 25.856C62.9235 26.052 62.5233 26.1421 62.1562 26.2589C61.7894 26.3768 61.4287 26.5222 61.0827 26.7019C60.3886 27.0571 59.7501 27.5368 59.2015 28.1128C59.6758 27.4746 60.2613 26.9072 60.9337 26.4516C61.2687 26.222 61.6267 26.0233 61.9989 25.8512C62.3715 25.6824 62.739 25.5457 63.0346 25.349L63.3215 25.856Z" fill="#3F3E3E"/>
<path d="M56.1064 24.3438C55.3974 24.056 54.6176 23.8283 53.9172 23.4153C53.5676 23.2087 53.2467 22.9529 52.9861 22.6453C52.7261 22.3394 52.5304 21.9747 52.458 21.5874C52.5777 21.9631 52.8103 22.2862 53.0912 22.5448C53.373 22.8043 53.7027 23.0054 54.0498 23.1565C54.7506 23.4608 55.5142 23.5849 56.2901 23.7915L56.1064 24.3438Z" fill="#3F3E3E"/>
<path d="M62.6553 24.5246C61.8586 23.7191 61.1359 22.8516 60.4957 21.9364C61.2848 22.7269 62.1351 23.4444 63.0328 24.0812L62.6553 24.5246Z" fill="#3F3E3E"/>
<path d="M55.9389 24.4822C55.2374 24.6225 54.5667 24.4988 53.9449 24.3869C53.3167 24.2658 52.7199 24.1797 52.0921 24.2382C51.4683 24.2849 50.8229 24.3745 50.1819 24.3567C49.5414 24.3486 48.9074 24.2866 48.2743 24.2247C48.91 24.2381 49.5472 24.2513 50.1782 24.2109C50.8111 24.1802 51.4224 24.0458 52.0611 23.9485C52.3793 23.9018 52.709 23.8711 53.0389 23.8802C53.3674 23.8878 53.6901 23.9217 54.006 23.9544C54.6352 24.0222 55.2553 24.0734 55.802 23.9162L55.9389 24.4822Z" fill="#3F3E3E"/>
<path d="M63.7108 26.0139C62.4762 26.5108 61.329 27.2828 60.3804 28.2746C61.1795 27.1588 62.2308 26.199 63.4548 25.4909L63.7108 26.0139Z" fill="#3F3E3E"/>
<path d="M70.2082 25.3781C69.2169 24.4217 68.6897 23.081 68.7295 21.7891C68.8833 23.0726 69.5949 24.2346 70.5817 24.9312L70.2082 25.3781Z" fill="#3F3E3E"/>
<path d="M80.9831 26.117C80.7252 25.8535 80.566 25.5281 80.4762 25.2061C80.3857 24.8824 80.3567 24.5567 80.3585 24.2382C80.3641 23.6035 80.4782 23.0015 80.439 22.3828C80.5747 22.9876 80.5589 23.6237 80.649 24.218C80.7341 24.8033 80.959 25.3843 81.372 25.6831L80.9831 26.117Z" fill="#3F3E3E"/>
<path d="M83.2943 27.8372L82.9203 26.6261C82.8029 26.2249 82.7036 25.8177 82.6209 25.4026C82.4585 24.571 82.4402 23.7193 82.5591 22.8965C82.537 23.7283 82.6544 24.5538 82.9032 25.3316C83.029 25.7197 83.1727 26.1076 83.3347 26.4879L83.8306 27.6106L83.2943 27.8372Z" fill="#3F3E3E"/>
<path d="M85.5505 29.2767C85.0373 28.0632 84.9608 26.7116 85.29 25.5039C85.1521 26.7501 85.4417 28.0024 86.0696 29.0125L85.5505 29.2767Z" fill="#3F3E3E"/>
<path d="M87.9618 30.8523C87.7843 30.7234 87.6861 30.5314 87.645 30.3645C87.602 30.1943 87.5995 30.0349 87.6102 29.883C87.6355 29.5879 87.7017 29.305 87.8033 29.0375C88.0056 28.5028 88.3506 28.0371 88.7805 27.7009C88.417 28.1086 88.1781 28.6061 88.0833 29.1174C88.0355 29.3723 88.0239 29.6327 88.0471 29.8812C88.0661 30.1217 88.1692 30.3371 88.2795 30.3643L87.9618 30.8523Z" fill="#3F3E3E"/>
<path d="M89.9446 32.3593C89.8798 32.2532 89.8599 32.1311 89.8657 32.0389C89.8701 31.944 89.8917 31.869 89.914 31.8026C89.9616 31.671 90.0045 31.5825 90.0498 31.4713L90.3184 30.835L90.856 29.5625L90.5973 30.9192L90.4677 31.5976C90.4482 31.7058 90.4194 31.8349 90.4084 31.9247C90.3941 32.0194 90.4261 32.0663 90.4266 32.0324L89.9446 32.3593Z" fill="#3F3E3E"/>
<path d="M91.3483 34.2565C91.3179 33.5166 91.5021 32.7772 91.8689 32.1615C92.2346 31.5446 92.7604 31.0508 93.3545 30.7046C92.8145 31.1304 92.3825 31.6809 92.1291 32.2922C91.8744 32.903 91.8122 33.5712 91.9278 34.197L91.3483 34.2565Z" fill="#3F3E3E"/>
<path d="M92.4134 35.5331C92.4714 35.3176 92.5179 35.104 92.5887 34.9009C92.6676 34.6994 92.7672 34.5088 92.8829 34.3323C93.1139 33.9787 93.4108 33.6846 93.7363 33.4482C93.4763 33.7556 93.2696 34.1001 93.1431 34.463C93.0795 34.6441 93.0349 34.8289 93.0107 35.0137C92.9945 35.2003 93.0021 35.3868 92.9947 35.5655L92.4134 35.5331Z" fill="#3F3E3E"/>
<path d="M93.4072 37.4828C93.6487 37.2149 93.9001 36.9421 94.1848 36.6965C94.4696 36.4529 94.7958 36.2358 95.1627 36.1165C95.5313 35.9902 95.9181 36.0027 96.2736 36.0419C96.6322 36.0811 96.9821 36.144 97.3412 36.1298C96.9877 36.1927 96.6218 36.1779 96.2677 36.1875C95.9132 36.1965 95.5664 36.2365 95.2699 36.3872C94.667 36.6841 94.2625 37.2622 93.865 37.8426L93.4072 37.4828Z" fill="#3F3E3E"/>
<path d="M93.3905 43.0359C93.8809 42.3849 94.6025 42.0282 95.314 41.851C96.0337 41.6745 96.7574 41.6673 97.4722 41.6582C96.765 41.7627 96.05 41.8714 95.4022 42.1287C94.7612 42.3811 94.1811 42.8011 93.8774 43.3555L93.3905 43.0359Z" fill="#3F3E3E"/>
<path d="M93.4114 41.2099C93.8651 40.5385 94.5484 40.0827 95.2653 39.9132C94.6175 40.2643 94.1421 40.847 93.9296 41.4755L93.4114 41.2099Z" fill="#3F3E3E"/>
<path d="M83.2229 35.7598C83.5217 35.6634 83.826 35.8336 83.989 35.9302C86.9605 37.6921 88.2484 40.053 88.2484 40.053C88.9606 41.3587 88.8867 41.8146 88.7295 42.0698C88.5598 42.3454 88.1923 42.5504 87.8819 42.4828C87.3663 42.3707 87.2031 41.5477 87.0003 41.0012C86.0063 38.3254 82.4272 37.901 82.6285 36.552C82.6708 36.2696 82.8904 35.8671 83.2229 35.7598Z" fill="#BCBCBE" stroke="#3F3E3E" stroke-width="0.0668925" stroke-miterlimit="10"/>
<path d="M83.2228 35.7599C83.2358 35.3921 82.5368 35.0966 82.235 34.9722C81.1012 34.5052 80.4014 34.6617 79.1413 34.5531C77.0463 34.3731 75.9554 33.681 75.5287 34.2141C75.3803 34.3991 75.2926 34.7567 75.3093 35.0724C75.3169 35.2194 75.3334 35.5358 75.5286 35.731C75.8306 36.033 76.4064 35.8919 76.746 35.8308C77.2911 35.7328 78.0475 35.8386 79.5602 36.0503C81.2376 36.2849 81.8862 36.6809 82.7171 36.2697C82.8543 36.2017 83.2135 36.019 83.2228 35.7599Z" fill="#BCBCBE" stroke="#3F3E3E" stroke-width="0.0668925" stroke-miterlimit="10"/>
<path d="M75.3923 34.479C75.1059 34.2255 74.6648 34.4874 73.6728 34.7542C72.9168 34.9576 73.204 34.7971 69.2415 35.5129C68.6953 35.6116 68.0199 35.7405 67.944 36.0917C67.901 36.2907 68.0619 36.5063 68.2432 36.7503C68.3579 36.9045 68.6195 37.2562 68.9417 37.369C69.413 37.5343 69.7814 37.1068 70.5585 36.71C70.7517 36.6116 72.1948 35.8941 73.8117 36.0113C74.5486 36.0647 74.8813 36.2594 75.2089 36.0112C75.6539 35.6748 75.7406 34.7873 75.3923 34.479Z" fill="#BCBCBE" stroke="#3F3E3E" stroke-width="0.0668925" stroke-miterlimit="10"/>
<path d="M93.6749 36.9893C93.4186 36.8514 93.1112 37.3891 92.2513 37.8391C91.0672 38.4585 90.3065 38.1422 89.9647 38.7226C89.879 38.8681 89.87 38.9844 89.9907 39.9957C90.2417 42.1004 90.3657 42.3033 90.5361 42.36C90.7462 42.4298 90.8892 42.232 91.5943 41.7196C92.9601 40.7276 93.2554 40.865 93.5503 40.3329C93.6525 40.1485 93.6903 39.5744 93.7624 38.4336C93.8362 37.2705 93.81 37.0618 93.6749 36.9893Z" fill="#BCBCBE" stroke="#3F3E3E" stroke-width="0.0668925" stroke-miterlimit="10"/>
<path d="M90.7108 32.4823C90.2691 32.4287 90.1056 33.0272 89.1793 33.6369C88.5211 34.0703 88.2299 34.0142 88.0718 34.3673C87.8529 34.8569 88.1911 35.4598 88.3311 35.7103C88.7069 36.3842 89.067 36.3236 89.4384 36.9119C89.9677 37.7504 89.5107 38.3076 89.9653 38.7232C90.548 39.2557 91.8054 38.8025 92.4308 38.4435C92.7561 38.2566 93.6095 37.7667 93.6755 36.9899C93.6973 36.7327 93.621 36.5862 93.0202 35.5926C92.3851 34.5419 92.6657 35.0287 91.3943 33.1657C91.0426 32.6501 90.9182 32.5076 90.7108 32.4823Z" fill="#BCBCBE" stroke="#3F3E3E" stroke-width="0.0668925" stroke-miterlimit="10"/>
<path d="M87.1296 29.418C86.8283 29.4296 86.8332 29.6597 85.8337 30.5255C85.0352 31.2171 84.8163 31.2573 84.7968 31.515C84.7617 31.9754 85.4398 32.1009 86.5641 33.1407C87.4159 33.9284 87.5902 34.3776 88.0721 34.366C88.3758 34.3585 88.4459 34.1765 89.1796 33.6355C90.2469 32.8482 90.714 32.7799 90.7112 32.4809C90.7082 32.1259 90.0489 32.1 89.2034 31.4913C87.8829 30.5414 87.8036 29.3922 87.1296 29.418Z" fill="#BCBCBE" stroke="#3F3E3E" stroke-width="0.0668925" stroke-miterlimit="10"/>
<path d="M80.6921 25.5606C80.1171 25.5744 79.8636 25.8005 79.7865 25.8776C79.3252 26.3394 79.5046 27.1475 79.5146 27.1909C79.7267 28.0889 80.614 28.1668 82.1183 29.2514C83.8381 30.491 84.3731 31.6107 85.0617 31.3794C85.3867 31.2703 85.3292 31 86.0326 30.3504C86.7356 29.7013 87.0999 29.688 87.1294 29.419C87.1824 28.9379 86.0476 28.6887 84.5412 27.7789C82.6253 26.6226 81.9825 25.5299 80.6921 25.5606Z" fill="#BCBCBE" stroke="#3F3E3E" stroke-width="0.0668925" stroke-miterlimit="10"/>
<path d="M79.7862 25.8774C79.6044 25.3901 78.8594 25.4089 76.6614 25.1077C74.627 24.829 74.1497 24.66 73.6951 25.0398C73.1625 25.4851 72.9817 26.4168 73.3141 26.7896C73.52 27.0206 73.8234 26.9252 74.8303 26.8617C76.2543 26.7721 77.0583 26.7216 77.9969 26.8509C78.7231 26.9511 79.1359 27.1048 79.4723 26.838C79.7344 26.6302 79.9069 26.2014 79.7862 25.8774Z" fill="#BCBCBE" stroke="#3F3E3E" stroke-width="0.0668925" stroke-miterlimit="10"/>
<path d="M73.201 25.4898C73.0615 25.2008 72.6183 25.2995 71.546 25.1795C70.171 25.0256 69.7554 24.7355 69.3477 25.0503C69.055 25.2766 68.8883 25.7215 69.0245 25.9682C69.1513 26.1976 69.4549 26.1024 70.5115 26.2395C70.8783 26.2874 71.3461 26.3642 72.0889 26.4203C72.4894 26.4507 72.6977 26.4542 72.8906 26.317C73.149 26.1333 73.3208 25.7382 73.201 25.4898Z" fill="#BCBCBE" stroke="#3F3E3E" stroke-width="0.0668925" stroke-miterlimit="10"/>
<path d="M69.096 25.3505C68.9941 24.9236 67.9399 24.8816 66.9217 24.7749C64.0864 24.4781 62.5136 23.7843 62.1948 24.3454C62.1184 24.4798 62.0622 24.7775 62.126 25.0674C62.1288 25.08 62.1892 25.3418 62.3737 25.5672C62.7328 26.0058 63.3747 26.0784 63.7933 26.1158C64.9924 26.2227 65.5099 26.1449 66.8355 26.1328C68.0002 26.1223 68.6588 26.1731 68.9785 25.728C69.0229 25.6665 69.1343 25.5114 69.096 25.3505Z" fill="#BCBCBE" stroke="#3F3E3E" stroke-width="0.0668925" stroke-miterlimit="10"/>
<path d="M62.0189 24.579C61.8246 24.2719 61.3486 24.2645 61.042 24.2536C61.042 24.2536 60.3469 24.2286 58.4112 23.9413C56.9716 23.7275 56.4354 23.3529 55.9497 23.7202C55.6555 23.9428 55.4347 24.3967 55.4157 24.4366C55.274 24.7333 55.1449 25.0036 55.2331 25.1921C55.3854 25.5166 56.0763 25.3727 57.2387 25.3742C57.6626 25.3746 57.2116 25.3935 60.4035 25.5435C61.2594 25.5836 61.7857 25.6015 62.0054 25.2699C62.1358 25.0735 62.1445 24.777 62.0189 24.579Z" fill="#BCBCBE" stroke="#3F3E3E" stroke-width="0.0668925" stroke-miterlimit="10"/>
<path d="M104.546 56.8283C104.712 56.9701 104.92 57.096 105.132 57.19C105.347 57.2819 105.576 57.3446 105.813 57.3601C106.285 57.397 106.784 57.2136 107.158 56.8625C106.86 57.2758 106.375 57.5874 105.824 57.651C105.551 57.6854 105.271 57.6652 105 57.606C104.729 57.5424 104.471 57.4505 104.215 57.3068L104.546 56.8283Z" fill="#3F3E3E"/>
<path d="M104.713 57.6751C105.698 58.3255 106.989 58.5741 108.216 58.281C107.633 58.5158 106.993 58.6379 106.345 58.6222C105.697 58.6087 105.043 58.4604 104.435 58.187L104.713 57.6751Z" fill="#3F3E3E"/>
<path d="M98.4955 53.6854L99.4402 56.5641C99.5978 57.0398 99.761 57.5545 99.7254 58.0785C99.6982 58.5978 99.5371 59.0835 99.3808 59.5619C99.4909 59.0707 99.6024 58.5715 99.5799 58.0778C99.565 57.5837 99.3708 57.1276 99.1683 56.6679L97.952 53.8932L98.4955 53.6854Z" fill="#3F3E3E"/>
<path d="M107.339 65.8512C107.512 66.2384 107.847 66.5782 108.242 66.8378C108.638 67.1003 109.096 67.2914 109.553 67.4743C109.069 67.384 108.582 67.2881 108.107 67.0957C107.636 66.903 107.172 66.6094 106.839 66.1497L107.339 65.8512Z" fill="#3F3E3E"/>
<path d="M107.002 66.3072C107.211 66.768 107.469 67.2121 107.771 67.6295C107.922 67.8386 108.086 68.0401 108.259 68.234C108.346 68.3308 108.435 68.4264 108.527 68.5188C108.62 68.6103 108.706 68.712 108.834 68.7521C108.7 68.7363 108.587 68.6467 108.481 68.5748C108.372 68.5003 108.265 68.4216 108.16 68.341C107.95 68.1792 107.747 68.0065 107.553 67.8222C107.164 67.454 106.809 67.0436 106.497 66.5967L107.002 66.3072Z" fill="#3F3E3E"/>
<path d="M104.866 73.3505C103.831 74.1536 102.708 74.8784 101.47 75.3377C100.239 75.7947 98.8859 75.9765 97.6135 75.7019C98.9027 75.879 100.205 75.5973 101.358 75.0687C102.519 74.5356 103.546 73.7594 104.493 72.9039L104.866 73.3505Z" fill="#3F3E3E"/>
<path d="M105.113 73.9748C104.483 74.3688 103.964 74.9487 103.576 75.6118C103.186 76.2762 102.923 77.018 102.751 77.7848C102.578 78.5521 102.487 79.3424 102.415 80.1345C102.386 80.5306 102.33 80.9292 102.335 81.3213C102.338 81.7155 102.509 82.0909 102.563 82.4862C102.486 82.096 102.292 81.7357 102.263 81.3257C102.233 80.921 102.265 80.5248 102.27 80.1257C102.294 79.3285 102.336 78.527 102.466 77.7293C102.594 76.9333 102.819 76.1384 103.193 75.4027C103.565 74.6688 104.093 73.989 104.789 73.4912L105.113 73.9748Z" fill="#3F3E3E"/>
<path d="M104.58 73.1926C104.323 73.3231 104.059 73.3958 103.806 73.4474C103.551 73.4987 103.307 73.5333 103.06 73.5746L102.32 73.6947C102.075 73.7344 101.807 73.7713 101.566 73.692C101.817 73.7221 102.052 73.6388 102.283 73.5538L102.986 73.2928C103.452 73.1147 103.939 72.9656 104.272 72.6982L104.58 73.1926Z" fill="#3F3E3E"/>
<path d="M105.473 74.081C105.152 74.3167 104.946 74.7413 104.892 75.1845C104.835 75.6349 104.916 76.1131 105.046 76.5798C105.306 77.5128 105.748 78.421 106.46 79.1174C105.683 78.4946 105.132 77.6094 104.77 76.6717C104.589 76.2028 104.443 75.6955 104.456 75.1537C104.472 74.6174 104.655 74.0451 105.098 73.6358L105.473 74.081Z" fill="#3F3E3E"/>
<path d="M115.539 71.0501C115.374 71.4011 115.204 71.7644 114.986 72.108C114.773 72.4532 114.494 72.7699 114.178 73.0181C113.543 73.5203 112.808 73.8045 112.088 74.0841C112.768 73.7181 113.459 73.3385 113.983 72.8018C114.245 72.5348 114.45 72.2325 114.604 71.8965C114.761 71.5625 114.877 71.2035 114.997 70.8353L115.539 71.0501Z" fill="#3F3E3E"/>
<path d="M105.734 73.2288C105.69 73.4127 105.77 73.6569 105.913 73.8888C106.056 74.121 106.24 74.3587 106.42 74.5827C106.788 75.0329 107.203 75.4507 107.659 75.8268C107.148 75.5306 106.662 75.1815 106.211 74.785C105.986 74.583 105.77 74.3857 105.56 74.1461C105.36 73.9098 105.148 73.5943 105.154 73.1797L105.734 73.2288Z" fill="#3F3E3E"/>
<path d="M117.512 85.048C118.101 86.0028 119.119 86.7422 120.294 86.9982C119.093 86.9344 117.888 86.3638 117.045 85.3955L117.512 85.048Z" fill="#3F3E3E"/>
<path d="M116.495 86.4303C115.889 88.129 114.738 89.5866 113.289 90.5487C114.622 89.431 115.555 87.8959 115.936 86.2648L116.495 86.4303Z" fill="#3F3E3E"/>
<path d="M117.08 86.1022C116.929 87.9328 116.356 89.7026 115.436 91.2405C116.184 89.6121 116.544 87.8316 116.498 86.0851L117.08 86.1022Z" fill="#3F3E3E"/>
<path d="M116.004 79.0259C115.807 79.3214 115.671 79.6889 115.502 80.0616C115.33 80.4342 115.131 80.792 114.901 81.1268C114.446 81.7991 113.879 82.3846 113.24 82.859C113.816 82.3101 114.296 81.6719 114.651 80.9777C114.831 80.6318 114.976 80.271 115.094 79.9042C115.211 79.5369 115.301 79.1371 115.497 78.739L116.004 79.0259Z" fill="#3F3E3E"/>
<path d="M117.561 85.7703C117.768 86.5461 117.892 87.3097 118.196 88.0106C118.347 88.3574 118.548 88.6873 118.808 88.9691C119.067 89.25 119.39 89.4824 119.765 89.6024C119.378 89.5302 119.014 89.3345 118.707 89.0743C118.4 88.8136 118.144 88.4927 117.937 88.1431C117.525 87.443 117.297 86.6632 117.009 85.9539L117.561 85.7703Z" fill="#3F3E3E"/>
<path d="M117.271 79.0271C117.908 79.9248 118.626 80.7752 119.416 81.5642C118.501 80.924 117.634 80.2011 116.828 79.4046L117.271 79.0271Z" fill="#3F3E3E"/>
<path d="M117.435 86.258C117.278 86.8045 117.329 87.4248 117.397 88.0537C117.429 88.3696 117.463 88.6926 117.471 89.0208C117.48 89.351 117.449 89.6804 117.403 89.9987C117.305 90.6373 117.171 91.2486 117.14 91.8815C117.1 92.5127 117.113 93.1495 117.126 93.7854C117.065 93.1525 117.003 92.5185 116.994 91.8778C116.976 91.2366 117.066 90.5914 117.113 89.9676C117.172 89.3398 117.085 88.743 116.964 88.1148C116.852 87.4928 116.729 86.8221 116.869 86.1208L117.435 86.258Z" fill="#3F3E3E"/>
<path d="M115.862 78.6063C115.154 79.8303 114.194 80.8816 113.078 81.6807C114.071 80.7323 114.842 79.5849 115.339 78.3503L115.862 78.6063Z" fill="#3F3E3E"/>
<path d="M116.421 71.4785C117.118 72.4654 118.28 73.1767 119.564 73.3307C118.272 73.3705 116.931 72.8434 115.975 71.8521L116.421 71.4785Z" fill="#3F3E3E"/>
<path d="M115.668 60.6885C115.967 61.1015 116.548 61.3262 117.133 61.4116C117.727 61.5017 118.364 61.4859 118.968 61.6217C118.35 61.5825 117.748 61.6965 117.113 61.7021C116.794 61.704 116.469 61.6749 116.145 61.5844C115.823 61.4944 115.498 61.3353 115.234 61.0774L115.668 60.6885Z" fill="#3F3E3E"/>
<path d="M113.171 57.6013C113.863 58.2369 114.691 58.7436 115.595 59.0605C116.502 59.3766 117.476 59.5321 118.454 59.5021C117.483 59.6285 116.481 59.5728 115.512 59.3398C114.54 59.1037 113.614 58.6599 112.8 58.0501L113.171 57.6013Z" fill="#3F3E3E"/>
<path d="M112.894 56.1067C113.674 56.7268 114.788 57.003 115.849 56.77C114.846 57.1878 113.617 57.1486 112.578 56.5961L112.894 56.1067Z" fill="#3F3E3E"/>
<path d="M110.989 53.7827C111.016 53.8927 111.232 53.996 111.472 54.015C111.721 54.0382 111.981 54.0266 112.236 53.9788C112.748 53.8843 113.245 53.6451 113.653 53.2815C113.316 53.7113 112.851 54.0565 112.316 54.2587C112.049 54.3604 111.765 54.4264 111.471 54.4519C111.319 54.4626 111.159 54.4601 110.989 54.4171C110.822 54.3761 110.63 54.2779 110.501 54.1003L110.989 53.7827Z" fill="#3F3E3E"/>
<path d="M109.318 51.6352C109.285 51.6357 109.332 51.668 109.426 51.6536C109.516 51.6424 109.645 51.6136 109.753 51.5943L110.432 51.4648L111.789 51.2061L110.516 51.7436L109.88 52.0122C109.768 52.0577 109.68 52.1005 109.548 52.1481C109.482 52.1701 109.407 52.1919 109.312 52.1964C109.22 52.2022 109.098 52.1822 108.992 52.1175L109.318 51.6352Z" fill="#3F3E3E"/>
<path d="M106.806 49.8966C107.441 50.1889 108.195 50.2602 108.893 50.0414C109.589 49.8236 110.214 49.3354 110.647 48.7064C110.297 49.3846 109.728 49.9762 108.997 50.3133C108.266 50.6504 107.393 50.6906 106.601 50.442L106.806 49.8966Z" fill="#3F3E3E"/>
<path d="M105.412 49.0791C105.813 49.2427 106.293 49.2787 106.741 49.1482C107.191 49.0214 107.611 48.7294 107.904 48.3238C107.695 48.7779 107.325 49.176 106.85 49.4184C106.375 49.6639 105.807 49.7449 105.251 49.6391L105.412 49.0791Z" fill="#3F3E3E"/>
<path d="M103.511 48.1969C104.091 47.7994 104.669 47.3952 104.966 46.792C105.117 46.4956 105.157 46.1487 105.166 45.7942C105.176 45.4402 105.161 45.0743 105.224 44.7207C105.209 45.0796 105.272 45.4292 105.312 45.7884C105.351 46.1438 105.364 46.5308 105.237 46.8993C105.118 47.2661 104.9 47.5921 104.657 47.8772C104.411 48.1618 104.139 48.4132 103.871 48.6547L103.511 48.1969Z" fill="#3F3E3E"/>
<path d="M97.9971 48.1847C98.5517 47.8812 98.9715 47.3008 99.2239 46.6598C99.4809 46.0118 99.5894 45.297 99.6943 44.5898C99.6852 45.3047 99.6778 46.0281 99.5015 46.748C99.3243 47.4596 98.9677 48.1811 98.3167 48.6715L97.9971 48.1847Z" fill="#3F3E3E"/>
<path d="M99.8767 48.1307C100.505 47.9187 101.088 47.4429 101.439 46.7949C101.269 47.5119 100.813 48.1949 100.142 48.6488L99.8767 48.1307Z" fill="#3F3E3E"/>
<path d="M105.592 58.8379C105.688 58.5391 105.518 58.2348 105.422 58.0718C103.66 55.1005 101.299 53.8124 101.299 53.8124C99.9931 53.1002 99.5372 53.1741 99.282 53.3313C99.0064 53.501 98.8014 53.8685 98.869 54.1789C98.9811 54.6945 99.804 54.8577 100.351 55.0606C103.026 56.0545 103.451 59.6337 104.8 59.4323C105.082 59.3896 105.485 59.1699 105.592 58.8379Z" fill="#BCBCBE" stroke="#3F3E3E" stroke-width="0.0668925" stroke-miterlimit="10"/>
<path d="M105.592 58.8372C105.96 58.8242 106.255 59.5232 106.38 59.825C106.847 60.9589 106.69 61.6586 106.799 62.9187C106.979 65.0137 107.671 66.1046 107.138 66.5313C106.953 66.6796 106.595 66.7674 106.28 66.7507C106.133 66.7431 105.816 66.7266 105.621 66.5314C105.319 66.2294 105.46 65.6536 105.521 65.3139C105.619 64.7691 105.513 64.0125 105.302 62.4998C105.067 60.8224 104.671 60.1738 105.082 59.3429C105.15 59.2055 105.333 58.8465 105.592 58.8372Z" fill="#BCBCBE" stroke="#3F3E3E" stroke-width="0.0668925" stroke-miterlimit="10"/>
<path d="M106.874 66.6682C107.128 66.9547 106.866 67.3958 106.599 68.3879C106.395 69.1438 106.556 68.8566 105.84 72.8191C105.741 73.3653 105.613 74.0407 105.261 74.1166C105.062 74.1596 104.847 73.9987 104.603 73.8174C104.449 73.7027 104.097 73.4411 103.984 73.1189C103.819 72.6476 104.246 72.2792 104.643 71.5021C104.741 71.309 105.459 69.8658 105.342 68.2489C105.288 67.512 105.094 67.1793 105.342 66.8517C105.678 66.4064 106.566 66.3198 106.874 66.6682Z" fill="#BCBCBE" stroke="#3F3E3E" stroke-width="0.0668925" stroke-miterlimit="10"/>
<path d="M83.3914 78.0769C86.5571 73.2671 89.034 73.3146 92.1728 68.4834C94.7053 64.5849 96.9054 58.6822 96.8989 53.7886C97.2659 53.7331 97.5638 53.7695 97.8038 53.8456C98.2881 53.9988 98.6036 54.3273 98.8689 54.1785C99.1608 54.0148 99.2186 53.3706 98.9688 52.9471C98.6882 52.4715 98.0911 52.3967 97.7041 52.3482C97.6159 52.3371 97.2505 52.2921 96.8279 52.333C96.8103 52.1607 96.7873 51.9915 96.7632 51.8229C96.961 51.7514 97.1885 51.6901 97.459 51.6546C98.2618 51.5496 98.5034 51.7875 98.9919 51.5247C99.3594 51.3266 99.4432 51.0729 99.9531 50.2515C100.83 48.8397 101.104 48.7522 101.019 48.5105C100.783 47.8424 98.4365 47.8016 96.6275 48.6927C96.4197 48.7951 96.1853 48.9131 95.9552 49.06C95.6221 48.3708 95.1966 47.7489 94.6608 47.2163C94.0421 46.6018 93.37 46.1949 92.6104 45.8959C92.9615 45.5356 93.1881 45.0894 93.3678 44.7244C94.2589 42.9154 94.2182 40.5692 93.55 40.3334C93.3084 40.2482 93.2208 40.5219 91.809 41.3989C90.9876 41.9092 90.7339 41.9925 90.5358 42.3601C90.2725 42.8485 90.5107 43.0904 90.406 43.893C90.3256 44.5068 90.1157 44.9066 89.9432 45.2119C89.8285 45.191 89.7115 45.1701 89.5934 45.1495C89.8193 44.5159 89.729 43.7784 89.7125 43.6476C89.664 43.2606 89.5893 42.6635 89.1137 42.3829C88.69 42.1329 88.046 42.191 87.8823 42.4828C87.7335 42.7481 88.0619 43.0636 88.2151 43.5479C88.321 43.8822 88.3516 44.3289 88.1591 44.9197C80.0153 43.8738 73.4395 48.5081 71.9729 49.6028C69.4629 51.4766 70.3367 51.6279 65.4758 55.8969C62.238 58.7405 60.7942 59.6007 60.806 61.0742C60.8205 62.8881 63.0225 63.2968 67.0995 66.4539C70.8194 69.3347 76.4798 73.7178 78.8234 78.2796C79.0813 78.7817 79.7253 80.1152 80.7521 80.2082C81.954 80.3175 83.0048 78.6645 83.3914 78.0769Z" fill="#BCBCBE" stroke="#3F3E3E" stroke-width="0.0668925" stroke-miterlimit="10"/>
<path d="M104.363 48.3852C104.501 48.6415 103.964 48.9489 103.513 49.8086C102.894 50.9926 103.21 51.7534 102.63 52.0952C102.485 52.1806 102.368 52.1899 101.357 52.0692C99.252 51.8181 99.0491 51.6942 98.9925 51.5238C98.9226 51.3137 99.1204 51.1707 99.6326 50.4658C100.625 49.1 100.487 48.8047 101.019 48.5098C101.204 48.4077 101.778 48.3698 102.919 48.2978C104.082 48.2239 104.291 48.2506 104.363 48.3852Z" fill="#BCBCBE" stroke="#3F3E3E" stroke-width="0.0668925" stroke-miterlimit="10"/>
<path d="M108.871 51.3496C108.924 51.7914 108.326 51.9549 107.716 52.8812C107.283 53.5394 107.339 53.8305 106.986 53.9886C106.496 54.2076 105.893 53.8694 105.643 53.7294C104.969 53.3536 105.03 52.9935 104.441 52.6221C103.603 52.0928 103.046 52.5497 102.63 52.0952C102.097 51.5125 102.551 50.2551 102.91 49.6296C103.097 49.3044 103.586 48.451 104.363 48.385C104.62 48.3631 104.767 48.4395 105.761 49.0403C106.811 49.6754 106.324 49.3947 108.187 50.6662C108.703 51.0181 108.846 51.1425 108.871 51.3496Z" fill="#BCBCBE" stroke="#3F3E3E" stroke-width="0.0668925" stroke-miterlimit="10"/>
<path d="M111.933 54.9317C111.922 55.233 111.692 55.2281 110.826 56.2276C110.134 57.026 110.094 57.245 109.836 57.2645C109.376 57.2996 109.25 56.6215 108.211 55.4972C107.423 54.6454 106.974 54.4711 106.985 53.9892C106.993 53.6855 107.175 53.6154 107.716 52.8817C108.503 51.8145 108.571 51.3474 108.87 51.3501C109.225 51.3531 109.251 52.0124 109.86 52.8579C110.81 54.1784 111.959 54.2575 111.933 54.9317Z" fill="#BCBCBE" stroke="#3F3E3E" stroke-width="0.0668925" stroke-miterlimit="10"/>
<path d="M115.793 61.3695C115.779 61.9446 115.553 62.1981 115.476 62.2752C115.014 62.7365 114.206 62.5571 114.163 62.5471C113.265 62.335 113.187 61.4477 112.102 59.9434C110.863 58.2236 109.743 57.6885 109.974 56.9999C110.083 56.6749 110.354 56.7325 111.003 56.029C111.652 55.326 111.666 54.9618 111.935 54.9323C112.416 54.8793 112.665 56.0141 113.575 57.5205C114.731 59.4364 115.824 60.0794 115.793 61.3695Z" fill="#BCBCBE" stroke="#3F3E3E" stroke-width="0.0668925" stroke-miterlimit="10"/>
<path d="M115.476 62.2737C115.963 62.4555 115.944 63.2005 116.246 65.3985C116.524 67.4329 116.693 67.9102 116.314 68.3648C115.868 68.8974 114.937 69.0783 114.564 68.7459C114.333 68.54 114.428 68.2365 114.492 67.2297C114.581 65.8056 114.632 65.0016 114.503 64.063C114.402 63.3369 114.249 62.9241 114.515 62.5877C114.723 62.3253 115.152 62.1528 115.476 62.2737Z" fill="#BCBCBE" stroke="#3F3E3E" stroke-width="0.0668925" stroke-miterlimit="10"/>
<path d="M115.862 68.8599C116.151 68.9994 116.052 69.4426 116.172 70.5149C116.326 71.89 116.616 72.3055 116.302 72.7132C116.075 73.006 115.63 73.1727 115.384 73.0364C115.154 72.9097 115.249 72.606 115.112 71.5495C115.065 71.1827 114.988 70.7149 114.932 69.972C114.901 69.5715 114.898 69.3633 115.035 69.1703C115.219 68.9117 115.614 68.7399 115.862 68.8599Z" fill="#BCBCBE" stroke="#3F3E3E" stroke-width="0.0668925" stroke-miterlimit="10"/>
<path d="M116.003 72.9651C116.429 73.067 116.471 74.1212 116.578 75.1394C116.875 77.9747 117.569 79.5475 117.008 79.8663C116.873 79.9427 116.576 79.9989 116.286 79.9351C116.273 79.9323 116.011 79.872 115.786 79.6874C115.347 79.3283 115.275 78.6864 115.237 78.2678C115.13 77.0687 115.208 76.5512 115.22 75.2256C115.231 74.0609 115.18 73.4023 115.625 73.0826C115.686 73.0382 115.841 72.9266 116.003 72.9651Z" fill="#BCBCBE" stroke="#3F3E3E" stroke-width="0.0668925" stroke-miterlimit="10"/>
<path d="M116.773 80.042C117.081 80.2363 117.088 80.7123 117.099 81.0189C117.099 81.0189 117.124 81.714 117.411 83.6497C117.625 85.0893 118 85.6256 117.632 86.1113C117.41 86.4054 116.956 86.6262 116.916 86.6453C116.619 86.7869 116.349 86.916 116.16 86.8278C115.836 86.6755 115.98 85.9846 115.978 84.8222C115.978 84.3983 115.959 84.8494 115.809 81.6574C115.769 80.8015 115.751 80.2752 116.082 80.0556C116.279 79.9251 116.575 79.9165 116.773 80.042Z" fill="#BCBCBE" stroke="#3F3E3E" stroke-width="0.0668925" stroke-miterlimit="10"/>
<path opacity="0.54" d="M85.4148 72.1154C86.1283 71.2933 86.2419 70.3226 86.2881 69.9723C86.9142 65.2288 89.8177 63.6704 90.2572 58.543C90.437 56.4434 90.7564 52.7193 88.2734 50.6853C86.0696 48.8804 82.2297 48.8741 80.5746 50.6063C78.8849 52.375 80.0271 55.376 78.828 55.8448C77.5456 56.3463 76.1396 52.9516 73.828 53.0671C71.3643 53.1902 68.9269 57.2471 69.8592 59.0992C70.5623 60.4965 73.0443 60.362 73.0338 61.0039C73.0226 61.699 70.1195 61.4342 67.8747 63.4645C66.7814 64.4534 66.3096 65.5659 65.652 67.1158C64.8057 69.1112 64.1456 70.6674 64.4612 72.5924C64.4937 72.7912 64.5399 72.9938 64.5931 73.1979C64.4601 73.0839 64.3147 73.0152 64.1283 72.9974C62.7456 72.8646 61.4119 75.6018 61.2106 76.0153C60.1161 78.2622 60.8852 79.0317 59.8936 80.2815C58.5561 81.9673 56.9329 80.989 55.2062 82.757C53.8821 84.1126 54.5094 85.0231 52.9413 86.8127C51.8689 88.0364 51.3127 87.9106 49.9392 89.0775C47.5177 91.1346 46.1863 94.1244 46.6209 94.5023C46.9728 94.8083 48.2013 93.1596 51.7824 91.1316C54.0857 89.8269 54.8077 89.812 55.5746 88.7085C56.7199 87.0609 55.9854 85.8351 57.1548 84.811C58.2258 83.8733 59.0855 84.6879 61.0586 83.8583C62.9686 83.0551 62.6987 82.0669 64.8443 80.808C67.162 79.4481 68.8886 79.7728 69.0578 78.9117C69.1303 78.544 68.8631 78.281 68.3598 77.826C68.4863 77.8838 68.6142 77.9397 68.747 77.9899C71.1289 78.8873 73.6934 78.199 75.3348 76.9578C78.4286 74.6184 78.525 70.103 79.5418 70.2111C80.2541 70.2867 79.9902 72.4806 81.4465 73.2269C82.6444 73.8412 84.4722 73.2015 85.4148 72.1154Z" fill="#6F6F6E"/>
<path d="M94.305 45.2118C93.672 45.0286 92.5994 45.7605 92.5638 46.693C92.5282 47.6233 93.5436 48.2384 94.3049 48.3301C94.7847 48.3879 95.5341 48.2824 95.7343 47.8362C95.8752 47.5216 95.6203 47.0894 95.1108 46.2251C94.7408 45.5978 94.5506 45.2828 94.305 45.2118Z" fill="#3F3E3E"/>
<path d="M70.1177 79.5513C70.2721 79.4986 71.2061 79.1803 71.5434 78.3656C71.8987 77.508 71.2584 76.9073 71.2478 75.8268C71.2453 75.5508 71.2776 74.6214 72.6667 72.9751C74.3634 70.9641 76.197 70.1203 77.5039 69.2871C81.0887 67.0013 82.7038 63.5225 83.8234 61.1104C84.5854 59.4685 85.5732 56.8052 85.8202 53.2877C85.9019 53.2404 86.5417 52.8577 86.552 52.2727C86.5645 51.5799 85.6859 51.0788 84.9847 51.0194C84.2576 50.9581 83.7209 51.3719 83.5816 51.4866C82.6819 51.7543 81.3858 52.1957 79.9097 52.9094C78.3096 53.6831 72.7797 56.4486 69.5341 62.4939C68.3277 64.7412 67.0186 67.1794 67.0818 70.1499C67.1117 71.5528 67.4492 73.1286 66.5836 75.0495C66.0609 76.2092 65.5202 76.5619 65.6488 77.3238C65.8962 78.7845 68.334 80.1595 70.1177 79.5513Z" fill="#DBBBAD" stroke="#463C43" stroke-width="0.0154124" stroke-miterlimit="10"/>
<path d="M70.1177 79.5513C70.2721 79.4986 71.2061 79.1803 71.5434 78.3656C71.8987 77.508 71.2584 76.9073 71.2478 75.8268C71.2453 75.5508 71.2776 74.6214 72.6667 72.9751C74.3634 70.9641 76.197 70.1203 77.5039 69.2871C81.0887 67.0013 82.7038 63.5225 83.8234 61.1104C84.5854 59.4685 85.5732 56.8052 85.8202 53.2877C85.9019 53.2404 86.5417 52.8577 86.552 52.2727C86.5645 51.5799 85.6859 51.0788 84.9847 51.0194C84.2576 50.9581 83.7209 51.3719 83.5816 51.4866C82.6819 51.7543 81.3858 52.1957 79.9097 52.9094C78.3096 53.6831 72.7797 56.4486 69.5341 62.4939C68.3277 64.7412 67.0186 67.1794 67.0818 70.1499C67.1117 71.5528 67.4492 73.1286 66.5836 75.0495C66.0609 76.2092 65.5202 76.5619 65.6488 77.3238C65.8962 78.7845 68.334 80.1595 70.1177 79.5513Z" fill="url(#paint0_linear_4823_341784)"/>
<path d="M84.4096 55.5094C84.073 55.8325 83.4647 55.9152 83.2746 55.7112C83.1311 55.557 83.3078 55.3283 83.1551 55.1607C82.9654 54.9525 82.6023 55.2051 82.2578 55.044C81.8325 54.8453 81.6224 54.104 81.8616 53.6365C81.9874 53.3908 82.1702 53.3516 82.7009 53.0683C84.0179 52.366 84.1679 51.9268 84.8296 51.9499C84.9031 51.9525 85.5351 51.9747 85.6892 52.3109C85.8844 52.7364 85.0544 53.1003 84.7468 54.2237C84.5645 54.8888 84.7363 55.1957 84.4096 55.5094Z" fill="#DBBBAD" stroke="#463C43" stroke-width="0.0154124" stroke-miterlimit="10"/>
<path d="M83.7767 54.3918C83.9143 54.242 83.9292 53.9653 83.7718 53.7911C83.5828 53.5817 83.2281 53.6119 83.0393 53.79C82.9212 53.9017 82.8452 54.0928 82.9086 54.249C83.0219 54.5276 83.5535 54.6344 83.7767 54.3918Z" fill="#463C43"/>
<path d="M81.8624 53.6345C81.8631 53.572 81.3242 53.3987 80.774 53.5705C80.2588 53.7314 79.9652 54.1231 79.8885 54.2224C79.1101 55.2279 77.901 55.5094 74.4296 58.9775C71.8757 61.5286 70.599 62.8044 69.8804 64.1265C69.3694 65.067 67.5377 68.4383 67.7836 71.6504C67.8145 72.0532 67.9184 72.9823 67.6038 74.1401C67.1849 75.6811 66.3031 76.6024 66.3431 76.6279C66.3876 76.6567 67.5304 75.5256 68.1206 73.7328C68.409 72.8571 68.4344 72.2226 68.4896 71.6775C68.6713 69.8815 69.2234 68.5842 70.0579 66.6243C70.0579 66.6243 71.7842 62.5701 78.4281 56.6402C79.0378 56.096 80.0315 55.3191 80.3735 54.524C80.4141 54.4295 80.5091 54.1869 80.7533 53.9867C81.2288 53.5962 81.8617 53.7021 81.8624 53.6345Z" fill="#DBBBAD" stroke="#463C43" stroke-width="0.0154124" stroke-miterlimit="10"/>
<path d="M84.1864 55.6674C84.2261 55.6672 84.2725 56.4639 84.2771 56.7876C84.3042 58.7454 83.0298 60.7176 82.1213 62.0203C79.8336 65.3001 78.6902 66.9399 76.8333 68.2684C75.9794 68.8795 74.4729 69.8242 72.4733 71.4566C71.8364 71.9764 70.9265 72.7479 70.5648 73.9937C70.307 74.8806 70.4263 75.6648 70.3841 75.6652C70.3318 75.6659 70.0496 74.4661 70.4019 73.2763C70.8193 71.8657 71.9514 71.0675 72.5759 70.6036C72.5759 70.6036 74.472 69.1946 77.6678 65.8093C80.8595 62.4282 81.8756 59.4849 83.2296 58.0552C83.3828 57.8936 83.7963 57.4806 84.0108 56.8161C84.2035 56.2172 84.1537 55.6677 84.1864 55.6674Z" fill="#DBBBAD" stroke="#463C43" stroke-width="0.0154124" stroke-miterlimit="10"/>
<path d="M58.645 71.1348C58.3095 71.7423 58.0142 72.2238 57.8018 72.5756C57.5529 72.9772 57.3999 73.2031 57.2273 73.5818C56.9086 74.2725 56.7725 74.8933 56.7458 75.0857C56.5665 76.3872 58.7046 77.091 61.1147 79.7932C62.1405 80.9453 63.2395 82.0373 64.1987 83.2491C64.484 83.6143 65.3141 84.6766 65.8688 84.4873C66.2008 84.3745 66.214 83.883 66.6758 83.7137C67.0542 83.5744 67.3562 83.7901 67.6817 83.85C68.0734 83.9231 68.6544 83.8067 69.5077 82.9735" stroke="#3F3E3E" stroke-width="0.0668925" stroke-miterlimit="10"/>
<path d="M75.1066 81.2267C74.8013 81.3263 74.4625 81.4524 74.1038 81.6119C72.3211 82.3988 71.7068 83.2322 70.5149 83.2091C70.1497 83.2024 69.8274 83.1128 69.5089 82.9735C69.2798 82.8707 69.0474 82.7377 68.805 82.5817C65.6246 80.55 64.0048 77.2168 60.5155 73.3225C59.9544 72.695 59.2073 71.8951 58.6463 71.1348C58.052 70.3213 57.6736 69.5445 57.9525 69.0465C58.1252 68.7345 58.4605 68.6913 58.8886 68.0505C59.2403 67.5326 59.244 67.2238 59.5758 66.4003C59.619 66.2973 59.6655 66.1779 59.7221 66.0484" stroke="#3F3E3E" stroke-width="0.0668925" stroke-miterlimit="10"/>
<path d="M79.6236 79.5504C79.2617 79.7396 78.8798 79.9688 78.4914 80.2444C77.2827 81.1011 76.7914 81.858 76.0411 81.7851C75.6692 81.7452 75.3539 81.5163 75.1049 81.2273C74.7764 80.8654 74.5603 80.4106 74.4442 80.1882C72.7181 76.7686 67.9108 71.3373 63.8174 68.7046C62.0444 67.5628 60.3678 66.9286 59.7206 66.0488C59.5379 65.7997 59.4319 65.5343 59.4319 65.2288C59.4287 64.5945 59.9334 63.8841 60.9392 62.4665C61.0123 62.3604 61.0885 62.2573 61.1583 62.161L61.1616 62.1577" stroke="#3F3E3E" stroke-width="0.0668925" stroke-miterlimit="10"/>
<path d="M83.3914 78.0769C86.5571 73.2671 89.034 73.3146 92.1728 68.4834C94.7053 64.5849 96.9054 58.6822 96.8989 53.7886C97.2659 53.7331 97.5638 53.7695 97.8038 53.8456C98.2881 53.9988 98.6036 54.3273 98.8689 54.1785C99.1608 54.0148 99.2186 53.3706 98.9688 52.9471C98.6882 52.4715 98.0911 52.3967 97.7041 52.3482C97.6159 52.3371 97.2505 52.2921 96.8279 52.333C96.8103 52.1607 96.7873 51.9915 96.7632 51.8229C96.961 51.7514 97.1885 51.6901 97.459 51.6546C98.2618 51.5496 98.5034 51.7875 98.9919 51.5247C99.3594 51.3266 99.4432 51.0729 99.9531 50.2515C100.83 48.8397 101.104 48.7522 101.019 48.5105C100.783 47.8424 98.4365 47.8016 96.6275 48.6927C96.4197 48.7951 96.1853 48.9131 95.9552 49.06C95.6221 48.3708 95.1966 47.7489 94.6608 47.2163C94.0421 46.6018 93.37 46.1949 92.6104 45.8959C92.9615 45.5356 93.1881 45.0894 93.3678 44.7244C94.2589 42.9154 94.2182 40.5692 93.55 40.3334C93.3084 40.2482 93.2208 40.5219 91.809 41.3989C90.9876 41.9092 90.7339 41.9925 90.5358 42.3601C90.2726 42.8485 90.5107 43.0904 90.406 43.893C90.3256 44.5068 90.1157 44.9066 89.9432 45.2119C89.8285 45.191 89.7115 45.1701 89.5934 45.1495C89.8193 44.5159 89.729 43.7784 89.7125 43.6476C89.664 43.2606 89.5893 42.6635 89.1137 42.3829C88.69 42.1329 88.046 42.191 87.8823 42.4828C87.7335 42.7481 88.0619 43.0636 88.2151 43.5479C88.321 43.8822 88.3516 44.3289 88.1591 44.9197C80.0153 43.8738 73.4395 48.5081 71.9729 49.6028C69.4629 51.4766 70.3367 51.6279 65.4758 55.8969C62.238 58.7405 60.7942 59.6007 60.806 61.0742C60.8205 62.8881 63.0225 63.2968 67.0995 66.4539C70.8194 69.3347 76.4798 73.7178 78.8234 78.2796C79.0813 78.7817 79.7253 80.1152 80.7521 80.2082C81.954 80.3175 83.0048 78.6645 83.3914 78.0769Z" stroke="#3F3E3E" stroke-width="0.0668925" stroke-miterlimit="10"/>
<g opacity="0.32">
<path opacity="0.32" d="M90.4267 32.0326L90.4186 32.038C90.423 32.0433 90.4267 32.0438 90.4267 32.0326Z" fill="url(#paint1_radial_4823_341784)"/>
<path opacity="0.32" d="M117.141 91.8815C117.171 91.2486 117.306 90.6373 117.403 89.9987C117.45 89.6804 117.48 89.3507 117.471 89.0209C117.464 88.6923 117.43 88.3697 117.397 88.0537C117.352 87.6353 117.316 87.2216 117.342 86.8305C117.509 87.275 117.69 87.7235 117.937 88.1435C118.144 88.4931 118.4 88.8139 118.707 89.0746C119.013 89.3346 119.378 89.5303 119.765 89.6027C119.39 89.483 119.066 89.2504 118.808 88.9695C118.548 88.6876 118.347 88.358 118.196 88.0109C117.935 87.4085 117.804 86.7592 117.642 86.0961C117.663 86.0673 117.682 86.0383 117.697 86.0091C118.457 86.6013 119.376 86.9483 120.294 86.997C119.275 86.7749 118.374 86.1883 117.769 85.414C117.714 85.0198 117.536 84.4887 117.411 83.6495C117.124 81.7137 117.099 81.0187 117.099 81.0187C117.088 80.7122 117.08 80.2363 116.773 80.042C116.696 79.9935 116.604 79.971 116.51 79.9619C116.718 79.9679 116.908 79.9231 117.007 79.8667C117.07 79.8309 117.115 79.7771 117.149 79.7095C117.864 80.3855 118.62 81.0081 119.416 81.565C118.626 80.776 117.908 79.9256 117.272 79.0279L117.206 79.0841C117.135 78.3078 116.772 76.9963 116.578 75.14C116.471 74.1218 116.429 73.0675 116.002 72.9657L116.002 72.9657C116.117 72.9016 116.223 72.8159 116.302 72.7135C116.407 72.5784 116.444 72.4416 116.442 72.2703C117.344 72.9876 118.47 73.3644 119.564 73.3306C118.281 73.1768 117.119 72.4653 116.422 71.4787L116.335 71.5516C116.283 71.2804 116.221 70.9445 116.173 70.5152C116.053 69.4429 116.152 68.9997 115.863 68.8602C115.784 68.8224 115.69 68.8163 115.593 68.8303C115.867 68.7411 116.131 68.5832 116.313 68.3654C116.693 67.9111 116.523 67.4336 116.245 65.3994C115.944 63.2014 115.963 62.4564 115.475 62.2746C115.549 62.2013 115.754 61.9656 115.786 61.4495C115.905 61.5041 116.025 61.5514 116.145 61.5851C116.469 61.6756 116.795 61.7046 117.113 61.7027C117.748 61.6971 118.35 61.5831 118.969 61.6223C118.364 61.4865 117.727 61.5021 117.133 61.4121C116.571 61.3304 116.015 61.1178 115.707 60.7352C115.543 60.1836 115.153 59.7044 114.662 59.0732C114.941 59.1786 115.224 59.2689 115.513 59.339C116.482 59.5723 117.484 59.6282 118.455 59.5014C117.476 59.5311 116.502 59.3756 115.595 59.0597C115.066 58.874 114.564 58.6217 114.099 58.3183C113.928 58.0766 113.752 57.8148 113.574 57.5197C113.433 57.2873 113.31 57.0649 113.198 56.8534C114.084 57.1417 115.04 57.1082 115.85 56.7709C114.788 57.0038 113.675 56.7276 112.895 56.1075L112.853 56.1716C112.474 55.3916 112.255 54.8962 111.934 54.9317C111.942 54.7225 111.837 54.5707 111.659 54.4212C111.886 54.3875 112.107 54.3374 112.316 54.2577C112.851 54.0555 113.316 53.7105 113.652 53.2805C113.245 53.6441 112.747 53.883 112.236 53.9777C111.981 54.0256 111.721 54.0372 111.472 54.014C111.232 53.995 111.016 53.8919 110.989 53.7817L110.866 53.8613C110.545 53.6252 110.191 53.3174 109.86 52.858C109.681 52.6084 109.555 52.379 109.454 52.1743C109.488 52.1659 109.52 52.1566 109.549 52.1471C109.681 52.0995 109.769 52.0566 109.88 52.0113L110.517 51.7426L111.789 51.2051L110.433 51.4638L109.754 51.5934C109.646 51.6129 109.517 51.6417 109.427 51.6526C109.363 51.6624 109.324 51.6512 109.314 51.6427L109.247 51.7413C109.131 51.501 109.037 51.352 108.871 51.3504C108.846 51.1433 108.703 51.0186 108.188 50.6672C108.139 50.634 108.099 50.6061 108.053 50.5753C108.381 50.5355 108.701 50.4503 108.997 50.3136C109.728 49.9764 110.297 49.3849 110.648 48.7067C110.214 49.3354 109.589 49.8239 108.893 50.0417C108.381 50.2024 107.839 50.2052 107.335 50.0806C106.919 49.7916 106.732 49.6569 106.562 49.5418C106.661 49.5067 106.758 49.467 106.85 49.4192C107.325 49.1768 107.695 48.7786 107.904 48.3245C107.611 48.7301 107.192 49.0219 106.741 49.149C106.519 49.214 106.288 49.2374 106.064 49.2249C105.978 49.1729 105.881 49.1135 105.761 49.0411C104.767 48.4403 104.621 48.3637 104.364 48.3858C104.343 48.3484 104.312 48.3196 104.253 48.2987C104.392 48.1645 104.528 48.0252 104.656 47.8762C104.9 47.5913 105.117 47.2651 105.236 46.8983C105.363 46.5296 105.35 46.1428 105.311 45.7874C105.272 45.4287 105.209 45.0789 105.223 44.7197C105.16 45.0733 105.175 45.4392 105.165 45.7932C105.156 46.1477 105.116 46.4946 104.966 46.791C104.669 47.394 104.091 47.7984 103.51 48.1957L103.564 48.2637C103.39 48.27 103.179 48.2811 102.919 48.2976C101.778 48.3696 101.204 48.4078 101.019 48.5097C100.974 48.382 100.851 48.2775 100.67 48.1977C101.053 47.7928 101.32 47.3031 101.44 46.7947C101.127 47.3719 100.63 47.8109 100.081 48.0503C99.7477 48.0069 99.3493 48.0055 98.9191 48.0494C98.9797 47.9651 99.0361 47.879 99.0874 47.7906C99.2797 47.4595 99.4132 47.1059 99.5019 46.7465C99.6784 46.0268 99.6856 45.3032 99.6947 44.5884C99.59 45.2958 99.4815 46.0106 99.2242 46.6583C98.9718 47.2993 98.5518 47.8795 97.9974 48.1832L98.01 48.2022C97.5429 48.3132 97.0695 48.4741 96.6281 48.6917C96.4204 48.7941 96.1859 48.912 95.9558 49.059C95.8007 48.7386 95.6239 48.4345 95.4272 48.145C95.5628 48.0679 95.6745 47.9684 95.7342 47.8353C95.8751 47.5207 95.6202 47.0885 95.1107 46.2242C94.7406 45.5969 94.5508 45.2817 94.3051 45.2106C93.8485 45.0786 93.165 45.4236 92.8051 45.9757C92.7408 45.9481 92.6768 45.9202 92.6113 45.8947C92.9623 45.5343 93.1889 45.0881 93.3686 44.7232C93.5862 44.2818 93.7473 43.8082 93.8581 43.3413L93.8771 43.3539C94.1806 42.7992 94.761 42.3795 95.402 42.1271C96.0498 41.8698 96.7648 41.7616 97.472 41.6566C96.7572 41.6657 96.0337 41.6732 95.3138 41.8494C94.9547 41.9383 94.6008 42.0716 94.2698 42.2639C94.1813 42.3152 94.0954 42.3718 94.0109 42.4322C94.0548 42.002 94.0535 41.6036 94.0101 41.27C94.2494 40.721 94.6885 40.2239 95.2656 39.9114C94.7572 40.0317 94.2676 40.2984 93.8627 40.6815C93.7828 40.5004 93.6784 40.3769 93.5507 40.3319C93.6526 40.1478 93.6907 39.5734 93.7627 38.4326C93.7792 38.1719 93.7904 37.9611 93.7967 37.7872L93.8647 37.8408C94.2622 37.2604 94.6664 36.6826 95.2695 36.3854C95.566 36.2347 95.9129 36.1947 96.2674 36.1856C96.6214 36.1761 96.9873 36.191 97.3409 36.128C96.9819 36.1424 96.6321 36.0791 96.2732 36.0401C95.9177 36.0009 95.5307 35.9881 95.1623 36.1147C94.7953 36.2343 94.4695 36.4514 94.1844 36.6947C94.0354 36.8233 93.8961 36.9593 93.7619 37.0982C93.741 37.0392 93.7122 37.0076 93.6748 36.9874C93.6967 36.7302 93.6203 36.5837 93.0195 35.5901C93.0102 35.5748 93.0028 35.5627 92.994 35.5479C92.9362 34.8256 93.2125 34.0539 93.7363 33.447C93.4106 33.6836 93.1136 33.9778 92.8826 34.3314C92.7679 34.5064 92.6695 34.6959 92.5903 34.8958C92.442 34.6694 92.3073 34.4883 91.8867 33.8806C91.8401 33.3492 91.9167 32.8003 92.1289 32.291C92.3825 31.6799 92.8143 31.1297 93.3543 30.7034C92.7602 31.0496 92.2344 31.5434 91.8687 32.1603C91.6725 32.4893 91.5304 32.8547 91.4438 33.2361C91.4264 33.2108 91.4117 33.1897 91.3939 33.1635C91.0424 32.6481 90.9177 32.5053 90.7107 32.4803C90.709 32.3143 90.5602 32.2193 90.3197 32.1042L90.4184 32.0376C90.4098 32.0271 90.3987 31.9877 90.4084 31.924C90.4196 31.8344 90.4484 31.7053 90.4676 31.5969L90.5972 30.9186L90.8559 29.5618L90.3184 30.8343L90.0498 31.4707C90.0042 31.5821 89.9615 31.6703 89.9139 31.802C89.9039 31.8314 89.8946 31.8635 89.8868 31.8974C89.6818 31.7959 89.4522 31.6704 89.2031 31.4909C88.7432 31.1601 88.4358 30.8059 88.1998 30.4848L88.2794 30.362C88.1693 30.335 88.066 30.1194 88.047 29.8789C88.0238 29.6305 88.0355 29.37 88.0833 29.1151C88.1778 28.6036 88.417 28.1059 88.7805 27.6986C88.3508 28.0351 88.0055 28.5006 87.8033 29.0352C87.7237 29.2444 87.6735 29.4654 87.6398 29.6918C87.4903 29.5144 87.3385 29.409 87.1293 29.4172C87.1665 29.0796 86.6175 28.8551 85.7669 28.4378C85.3551 27.5454 85.1771 26.5227 85.2902 25.5015C85.0596 26.3477 85.0328 27.2645 85.2113 28.1548C84.9984 28.0422 84.7751 27.9183 84.5413 27.7773C84.205 27.5742 83.9094 27.3734 83.6413 27.18L83.3356 26.4875C83.1738 26.1075 83.0304 25.7194 82.9041 25.3312C82.6553 24.5535 82.5378 23.7279 82.5599 22.8961C82.441 23.7189 82.4595 24.5709 82.6218 25.4022C82.7044 25.8173 82.8035 26.2248 82.9212 26.6257L82.9254 26.6392C82.325 26.1712 81.8593 25.8016 81.3261 25.6431C80.9435 25.3352 80.7309 24.7795 80.649 24.217C80.5589 23.6227 80.5747 22.9865 80.4389 22.3818C80.4782 23.0005 80.3641 23.6025 80.3585 24.2372C80.3567 24.5557 80.3857 24.8814 80.4762 25.205C80.5098 25.3255 80.5572 25.4458 80.6117 25.5639C80.0957 25.5962 79.86 25.8017 79.7866 25.8751C79.6049 25.3878 78.8599 25.4066 76.6618 25.1054C74.6277 24.8265 74.1502 24.6577 73.6956 25.0376C73.4776 25.2198 73.3197 25.4836 73.2308 25.7568C73.2449 25.66 73.2389 25.5662 73.2008 25.4873C73.0613 25.1982 72.6181 25.2969 71.5458 25.177C71.1165 25.1289 70.7809 25.0677 70.5095 25.0154L70.5824 24.9281C69.5955 24.2315 68.8842 23.0694 68.7302 21.786C68.6964 22.8802 69.0734 24.007 69.7905 24.908C69.6189 24.9064 69.4824 24.9435 69.3473 25.048C69.2449 25.1272 69.1592 25.2337 69.0952 25.3484C69.0949 25.3482 69.0952 25.348 69.0952 25.348C68.9933 24.9211 67.939 24.8791 66.9208 24.7723C65.0647 24.5781 63.7533 24.2158 62.977 24.1443L63.0331 24.0784C62.1354 23.4416 61.2851 22.7241 60.496 21.9336C61.0529 22.7292 61.6755 23.4865 62.3515 24.201C62.284 24.2347 62.2301 24.2797 62.1944 24.3429C62.1379 24.4425 62.0931 24.6317 62.0991 24.8406C62.0901 24.7461 62.0676 24.6535 62.0188 24.5769C61.8245 24.2698 61.3486 24.2624 61.0419 24.2515C61.0419 24.2515 60.3468 24.2264 58.4111 23.9391C57.5719 23.8145 57.0407 23.6362 56.6465 23.581C55.8721 22.976 55.2855 22.0755 55.0636 21.0564C55.1123 21.9743 55.4593 22.8934 56.0515 23.6528C56.022 23.6688 55.9932 23.6874 55.9644 23.7083C55.3014 23.5462 54.6518 23.4154 54.0496 23.154C53.7028 23.0031 53.3729 22.8018 53.0911 22.5423C52.8102 22.2837 52.5778 21.9603 52.4578 21.5849C52.53 21.9724 52.7257 22.3366 52.9859 22.6428C53.2466 22.9504 53.5675 23.2062 53.9171 23.4128C54.337 23.6605 54.7855 23.8411 55.2301 24.0085C54.8389 24.0343 54.4252 23.9981 54.0069 23.9531C53.6909 23.9204 53.368 23.8867 53.0397 23.8788C52.7096 23.87 52.3802 23.9005 52.0619 23.9471C51.4232 24.0445 50.8119 24.1789 50.1791 24.2096C49.5478 24.2498 48.911 24.2366 48.2751 24.2234C48.908 24.2851 49.542 24.347 50.1828 24.3554C50.824 24.3734 51.4692 24.2836 52.093 24.2369C52.4064 24.215 52.714 24.2106 53.0188 24.2424C53.3253 24.273 53.6326 24.3287 53.9458 24.3856C54.1311 24.419 54.3217 24.4526 54.515 24.4807C53.204 24.7527 51.9501 25.2391 50.8211 25.914C52.2204 25.2711 53.7317 24.9168 55.2373 24.8584C55.2199 24.9176 55.2087 24.9738 55.2061 25.0265C53.6911 25.6636 52.3935 26.7351 51.5133 28.0605C52.631 26.7279 54.1663 25.7948 55.7972 25.4132L55.793 25.3998C56.1345 25.4111 56.619 25.3709 57.2394 25.3718C57.6633 25.3723 57.2122 25.3911 60.4041 25.5411C61.2601 25.5813 61.7864 25.5991 62.006 25.2676C62.0708 25.1698 62.1054 25.047 62.1082 24.924C62.1126 24.9711 62.1151 25.0177 62.1258 25.0651C62.1286 25.0776 62.1889 25.3395 62.3735 25.5649C62.3986 25.5956 62.4278 25.6202 62.4555 25.6474C62.3069 25.7133 62.1539 25.7781 61.999 25.8484C61.6266 26.0207 61.2686 26.219 60.9339 26.4488C60.2617 26.9041 59.6762 27.4716 59.2016 28.11C59.7505 27.5338 60.3887 27.0543 61.0829 26.6991C61.4288 26.5194 61.7896 26.374 62.1564 26.2561C62.2462 26.2275 62.3384 26.2004 62.4317 26.173C61.6415 26.7724 60.9473 27.4819 60.3814 28.272C61.2855 27.3266 62.3711 26.5841 63.5396 26.0861C63.629 26.0974 63.7158 26.1067 63.7934 26.1137C64.9924 26.2206 65.5099 26.1428 66.8355 26.1307C68.0003 26.1202 68.6589 26.171 68.9786 25.7259C68.9788 25.7257 68.9791 25.7255 68.9791 25.725C68.9742 25.8144 68.9869 25.8982 69.0245 25.9665C69.1385 26.1728 69.4013 26.118 70.222 26.2046C70.1312 26.2549 70.0411 26.3079 69.9525 26.3641C69.6072 26.5779 69.2905 26.8565 69.0424 27.1725C68.5402 27.8075 68.256 28.5425 67.9764 29.2627C68.3423 28.5824 68.7219 27.8913 69.2587 27.3675C69.5257 27.1051 69.828 26.9008 70.1639 26.7464C70.498 26.5892 70.8569 26.4731 71.2251 26.3533L71.2168 26.332C71.4605 26.3621 71.7447 26.3928 72.0897 26.4188C72.4902 26.4491 72.6982 26.4528 72.8913 26.3154C73.0167 26.2262 73.1202 26.0874 73.1818 25.94C73.1116 26.2752 73.1495 26.6009 73.3157 26.7876C73.5216 27.0186 73.825 26.9231 74.8319 26.8597C76.256 26.77 77.0599 26.7196 77.9985 26.8488C78.7247 26.9491 79.1375 27.1028 79.4739 26.836C79.4743 26.8355 79.4748 26.8351 79.4753 26.8346C79.4813 27.0273 79.5112 27.171 79.5156 27.1884C79.7278 28.0864 80.6151 28.1643 82.1194 29.2489C83.6376 30.3432 84.2326 31.3426 84.8248 31.4032C84.8097 31.4368 84.8007 31.4728 84.7974 31.5141C84.7624 31.9745 85.4405 32.1001 86.5645 33.1401C87.4163 33.9277 87.5906 34.3769 88.0725 34.3653C87.8536 34.8549 88.1918 35.4578 88.3318 35.7083C88.7076 36.3822 89.0677 36.3216 89.4391 36.9099C89.9684 37.7484 89.5115 38.3056 89.966 38.7212C89.8804 38.8667 89.8713 38.983 89.9919 39.9943C90.243 42.099 90.367 42.3019 90.5374 42.3586C90.2741 42.847 90.5123 43.0889 90.4075 43.8915C90.3272 44.5053 90.1173 44.9051 89.9448 45.2104C89.8301 45.1895 89.7131 45.1686 89.5949 45.148C89.8208 44.5144 89.7306 43.7768 89.7141 43.6461C89.6656 43.2591 89.5909 42.662 89.1152 42.3814C88.9613 42.2906 88.7786 42.2416 88.6001 42.2284C88.6504 42.179 88.6959 42.1256 88.7315 42.0682C88.8886 41.8131 88.9625 41.3571 88.2503 40.0515C88.2503 40.0515 87.2475 38.2166 84.9743 36.5749C84.784 36.2327 84.6711 35.826 84.6916 35.4155C84.7132 34.983 84.8894 34.5421 85.1987 34.1925C84.8244 34.4697 84.5328 34.8853 84.4042 35.3682C84.3385 35.6187 84.3159 35.8799 84.331 36.1415C84.2983 36.1208 84.2648 36.1 84.2317 36.0793C83.9758 35.7139 83.7864 35.2942 83.6957 34.8417C83.5857 34.2901 83.6138 33.6979 83.781 33.1351C83.5237 33.6626 83.3876 34.2625 83.4062 34.8744C83.4154 35.1656 83.4635 35.4574 83.544 35.7427C83.4412 35.7239 83.3328 35.7232 83.2246 35.758C83.2376 35.3903 82.5386 35.0948 82.2368 34.9704C81.103 34.5033 80.4032 34.6599 79.1431 34.5513C77.7539 34.432 76.8083 34.0892 76.2031 34.0258L76.2119 34.011C75.8247 33.8378 75.4848 33.5026 75.2255 33.1082C74.963 32.7114 74.7719 32.2539 74.589 31.797C74.6795 32.2808 74.7752 32.7683 74.9676 33.2431C75.1041 33.5769 75.293 33.9061 75.5544 34.1888C75.547 34.1972 75.5379 34.203 75.5307 34.2121C75.5263 34.2174 75.5231 34.2262 75.5189 34.2322C75.1435 34.0458 74.7798 33.8284 74.4348 33.5781C74.2256 33.427 74.0241 33.2635 73.8303 33.0901C73.7335 33.0031 73.6378 32.9144 73.5454 32.822C73.454 32.7292 73.3523 32.6433 73.3121 32.5158C73.3279 32.6495 73.4175 32.7619 73.4895 32.8687C73.564 32.9776 73.6427 33.0841 73.7232 33.1893C73.885 33.3994 74.0578 33.6027 74.2421 33.7968C74.4433 34.0092 74.6585 34.2105 74.8839 34.4015C74.6047 34.4589 74.2269 34.6026 73.6742 34.7515C72.9183 34.9549 73.2054 34.7944 69.243 35.5102C69.0612 35.5429 68.8661 35.5801 68.683 35.6267C68.5263 35.6154 68.3464 35.5441 68.1729 35.4376C67.9408 35.2946 67.7031 35.1107 67.479 34.9303C67.0289 34.5624 66.6108 34.1471 66.235 33.6914C66.5314 34.2023 66.8803 34.6887 67.2768 35.1395C67.4788 35.3652 67.6761 35.5806 67.9157 35.7905C67.9612 35.829 68.0109 35.868 68.0624 35.9056C68.0547 35.9128 68.0475 35.92 68.0408 35.9272L67.9814 35.877C67.7457 36.1981 67.3211 36.4041 66.8779 36.4582C66.4275 36.5153 65.9493 36.4341 65.4826 36.3041C64.5496 36.0444 63.6415 35.6015 62.945 34.8897C63.5679 35.6672 64.4531 36.218 65.3907 36.5804C65.8599 36.7612 66.3669 36.907 66.9085 36.8937C67.1785 36.886 67.4576 36.8354 67.7206 36.7307C67.3666 37.1419 66.9308 37.4927 66.4502 37.7741C65.786 38.1648 65.044 38.4272 64.2772 38.5988C63.5099 38.7727 62.7196 38.8629 61.9275 38.9349C61.5314 38.9646 61.1328 39.0201 60.7407 39.0148C60.3465 39.0125 59.9711 38.8414 59.5758 38.7874C59.966 38.8646 60.3263 39.0587 60.7363 39.0875C61.1409 39.1174 61.5372 39.0856 61.9363 39.0802C62.7335 39.056 63.5349 39.0146 64.3326 38.8846C65.1287 38.7566 65.9236 38.5314 66.6594 38.1574C67.2829 37.8411 67.8662 37.4116 68.3333 36.8628C68.3484 36.882 68.3646 36.9015 68.3816 36.9222C67.7122 37.8348 67.1197 38.815 66.7243 39.8804C66.2673 41.1113 66.0855 42.4641 66.36 43.7366C66.1827 42.4472 66.4646 41.1452 66.9933 39.9916C67.4145 39.0741 67.9889 38.242 68.6327 37.4654C68.6269 37.4917 68.6202 37.5184 68.6151 37.5444C68.5638 37.7995 68.5292 38.0435 68.4878 38.2905L68.3678 39.0304C68.328 39.2758 68.2911 39.5435 68.3705 39.7845C68.3403 39.5333 68.4237 39.2985 68.5084 39.0675L68.7694 38.365C68.8964 38.0314 69.0097 37.6887 69.1609 37.3983C69.5414 37.3929 69.9059 37.0414 70.5601 36.7075C70.7533 36.6091 72.1964 35.8917 73.8134 36.0088C74.5503 36.0622 74.8829 36.2569 75.2105 36.0088C75.3229 35.9238 75.412 35.8035 75.4773 35.6663C75.4935 35.6881 75.51 35.7097 75.5297 35.7295C75.8318 36.0315 76.4075 35.8903 76.7472 35.8292C77.2923 35.7312 78.0486 35.837 79.5614 36.0487C81.2387 36.2833 81.8873 36.6793 82.7182 36.2681C82.7185 36.2679 82.7189 36.2679 82.7192 36.2677C82.6743 36.3654 82.6428 36.4634 82.63 36.5504C82.4286 37.8995 86.0078 38.3239 87.0017 40.9997C87.2046 41.5462 87.3678 42.3692 87.8834 42.4813C87.8478 42.5447 87.8409 42.6111 87.8509 42.6819L85.4984 41.9101C85.0228 41.7525 84.5079 41.5895 83.9841 41.6248C83.4648 41.652 82.9791 41.8132 82.5008 41.9692C82.9921 41.8591 83.4912 41.7477 83.9848 41.7704C84.4788 41.7852 84.935 41.9795 85.3947 42.1819L88.1598 43.3943C88.18 43.4433 88.1995 43.4935 88.2162 43.5464C88.3221 43.8807 88.3527 44.3274 88.1602 44.9182C80.0164 43.8723 73.4406 48.5065 71.974 49.6012C69.464 51.4751 70.3378 51.6264 65.4769 55.8954C62.2391 58.739 60.7953 59.5992 60.8071 61.0727C60.8105 61.4922 60.9321 61.8363 61.1657 62.1567C61.0925 62.2563 61.0182 62.3589 60.9433 62.4645C59.9354 63.8823 59.4316 64.5914 59.4332 65.2282C59.4338 65.5316 59.5411 65.7976 59.7247 66.0453C59.6678 66.1737 59.6167 66.2935 59.5754 66.3961C59.2448 67.2199 59.2378 67.5309 58.8914 68.0487C58.4619 68.6913 58.1243 68.7331 57.9513 69.0458C57.6734 69.5475 58.055 70.3215 58.6477 71.1315C58.3082 71.7379 58.0161 72.2245 57.8007 72.5742C57.5525 72.9765 57.4023 73.2033 57.2274 73.5811C56.9093 74.2692 56.774 74.8888 56.7473 75.0836C56.7115 75.345 56.7728 75.5823 56.9074 75.8168C56.9053 75.8202 56.9042 75.8237 56.9021 75.8272C56.3688 76.7528 55.6662 77.2999 55.2444 77.5778C55.3453 77.6941 55.4501 77.8117 55.552 77.9285C55.3881 78.1022 55.2009 78.2819 54.9808 78.4607C54.4241 78.9129 53.879 79.1892 53.4627 79.359C53.5681 79.4736 53.6793 79.589 53.7856 79.7037C53.6031 79.8945 53.4148 80.1121 53.2303 80.3658C52.7729 80.9941 52.5061 81.5988 52.3473 82.0543C52.4494 82.1751 52.5599 82.2967 52.6637 82.4177C52.5081 82.5574 52.3373 82.7241 52.1613 82.9219C51.598 83.5558 51.376 84.0637 51.139 84.4401C50.8065 84.9671 50.1871 85.6427 48.9237 86.1906C49.0458 86.3388 49.1755 86.4904 49.3021 86.6406C49.0933 86.8576 48.8976 87.0557 48.7221 87.2284C48.0263 87.9145 47.6938 88.1768 47.2195 88.2973C47.0545 88.3394 46.9129 88.3538 46.8167 88.3593C46.9848 88.5339 47.1436 88.696 47.2933 88.8475C47.1775 88.9263 47.0597 89.0096 46.9406 89.1027C46.3138 89.5931 45.8752 90.124 45.5774 90.5589C45.6739 90.6879 45.7777 90.821 45.8801 90.953C45.6572 91.1657 45.4118 91.4218 45.1624 91.7269C44.3651 92.7015 44.3684 93.1393 43.8541 93.9071C43.3661 94.6361 43.0592 94.6951 40.7175 96.4657C39.5087 96.1154 38.2328 96.1159 37.0669 96.4234C38.1501 96.3114 39.2382 96.462 40.2102 96.8518C40.1037 96.9333 39.9948 97.0171 39.8808 97.1051C39.6442 97.2878 39.4464 97.442 39.2837 97.5755C38.0212 97.3629 36.7339 97.3966 35.5158 97.6708C36.6489 97.5688 37.7848 97.6744 38.8574 97.9641C38.7378 98.0957 38.6765 98.2044 38.6652 98.3091C36.9576 99.1712 35.3118 100.158 33.7725 101.294C32.946 101.895 32.1706 102.563 31.391 103.202C30.6095 103.843 29.8071 104.455 28.9746 105.027C28.1429 105.601 27.2886 106.141 26.4089 106.64C25.525 107.135 24.6484 107.656 23.801 108.215C22.102 109.33 20.4894 110.569 18.951 111.89C20.5207 110.606 22.1605 109.408 23.8795 108.338C24.7382 107.8 25.6181 107.305 26.515 106.83C27.4109 106.35 28.2857 105.826 29.1371 105.269C29.9898 104.712 30.8158 104.113 31.6177 103.487C32.4208 102.859 33.1995 102.221 34.0274 101.648C35.4441 100.654 36.9455 99.7859 38.498 99.0246C36.1489 101.149 33.6536 103.114 31.0289 104.891C30.3359 105.362 29.6311 105.812 28.9257 106.275C28.2197 106.737 27.5292 107.224 26.8511 107.727C25.4985 108.741 24.2346 109.863 22.9934 110.995C20.5169 113.265 17.9651 115.449 15.3091 117.507C12.6571 119.568 9.91708 121.518 7.10718 123.362C9.94308 121.559 12.7128 119.648 15.3976 117.622C18.0854 115.601 20.6766 113.448 23.1875 111.212C24.4456 110.098 25.7149 109.004 27.0672 108.02C27.7456 107.532 28.4361 107.059 29.143 106.612C30.2839 105.889 31.1116 105.353 31.2708 105.254C32.3511 104.585 34.543 103.001 39.3976 99.0202C39.4164 99.0366 39.4575 99.068 39.519 99.0821C39.5793 99.0961 39.6293 99.0865 39.6534 99.08C39.4633 99.2966 39.2729 99.5135 39.0827 99.7301L38.3526 100.512L36.891 102.076C36.3979 102.591 35.9282 103.135 35.4551 103.672L34.0379 105.282L35.5602 103.773C36.0675 103.27 36.5676 102.765 37.0976 102.282C37.8399 101.696 38.3409 101.184 38.6669 100.815C38.8171 100.646 39.0374 100.386 39.397 100.003C39.7288 99.6495 40.0116 99.3704 40.2015 99.1875C40.3636 99.1661 40.6143 99.1118 40.8773 98.9565C40.8878 98.9502 40.9958 98.897 41.0895 98.8088C41.3185 98.5938 41.3565 98.3083 41.7923 97.8339C42.3342 97.2438 42.7551 97.1632 43.8918 96.5242C44.3466 96.2686 44.9916 95.8813 45.7419 95.3394C45.6481 95.6408 45.4895 96.077 45.2221 96.5659C44.9903 96.9899 44.8411 97.1526 43.9955 98.2081C42.5463 100.017 42.6563 99.9488 42.4571 100.121C42.3547 100.209 42.2672 100.292 42.1862 100.375C41.9538 100.615 41.8918 100.798 41.5839 101.118C41.5071 101.198 41.4416 101.258 41.4044 101.291C40.7209 101.779 40.0372 102.268 39.3537 102.756C38.742 103.208 38.1585 103.696 37.5788 104.186C36.4221 105.171 35.3077 106.203 34.2393 107.277C35.3746 106.274 36.5496 105.318 37.7603 104.414C38.367 103.964 38.976 103.517 39.6116 103.109L41.2444 102.026L38.6501 105.34L35.8796 108.813C34.9588 109.972 34.0262 111.123 33.1149 112.295C32.2041 113.466 31.3198 114.657 30.4438 115.852L27.8086 119.429C26.9326 120.623 26.0153 121.786 25.1172 122.963L19.7029 130.01L25.2326 123.052C26.1502 121.889 27.087 120.74 27.9829 119.56L30.6771 116.026C31.5723 114.846 32.4734 113.673 33.4005 112.521C34.3268 111.369 35.2778 110.233 36.2188 109.088L39.0474 105.659L41.8446 102.204C41.939 102.156 42.0335 102.107 42.128 102.059L34.7425 112.487C33.4874 114.246 32.3714 116.113 31.444 118.064C30.5085 120.012 29.7516 122.042 29.1699 124.118C29.7983 122.056 30.5993 120.047 31.5747 118.128C32.5438 116.204 33.6898 114.38 34.9796 112.657L42.6924 102.27C42.7302 102.264 42.776 102.254 42.825 102.241C42.8895 102.478 42.9587 102.715 43.0148 102.957C43.0722 103.244 43.1114 103.535 43.1322 103.83C43.1724 104.42 43.1391 105.021 43.0344 105.615C43.2332 105.046 43.366 104.447 43.4234 103.834C43.451 103.528 43.4599 103.218 43.4487 102.907C43.4286 102.603 43.3886 102.298 43.3571 101.989C43.4023 101.956 43.4486 101.92 43.4976 101.878C43.8895 101.538 44.257 101.033 44.3575 100.892L44.6286 101.443L44.8041 101.8C44.8568 101.921 44.9063 102.044 44.9541 102.168C45.1451 102.663 45.3006 103.176 45.4204 103.7C45.3967 103.163 45.3355 102.624 45.2341 102.089C45.2088 101.955 45.1811 101.821 45.1503 101.688L45.0389 101.295C44.9314 100.992 44.8239 100.689 44.7162 100.386C44.7893 100.288 44.8927 100.154 45.0218 99.9986C45.185 99.8029 45.4845 99.4616 45.9151 99.0648C46.5329 98.4958 46.8271 98.3521 47.3478 97.7231C47.6566 97.3503 47.8217 97.0765 48.2348 96.7907C48.6814 96.4815 48.9343 96.4929 49.3264 96.2902C49.601 96.1483 49.9291 95.9061 50.2439 95.4734C50.3662 95.5753 50.4911 95.6821 50.6109 95.7786C50.9383 95.4926 51.3019 95.1346 51.6643 94.6942C51.8793 94.4332 52.0652 94.1771 52.228 93.9313C52.3246 94.0706 52.4063 94.1936 52.4696 94.2913C52.5265 94.1713 52.6215 93.9872 52.764 93.7801C53.1854 93.1679 53.6073 92.9569 54.1735 92.4324C54.2822 92.3316 54.4134 92.2032 54.5576 92.0465C54.7507 92.2187 54.9438 92.3915 55.134 92.5561C55.2115 92.4265 55.3309 92.2352 55.4904 92.0139C56.3204 90.8612 57.0865 90.4846 57.8139 89.7521C58.08 89.4842 58.3923 89.1134 58.6929 88.6127C58.8025 88.712 58.9128 88.8177 59.0224 88.9156C59.1408 88.793 59.3318 88.6126 59.5956 88.4353C60.1214 88.0817 60.468 88.0563 60.8813 87.8311C61.0661 87.7303 61.2913 87.5734 61.5223 87.321C61.6133 87.4027 61.7043 87.4868 61.7951 87.5678C61.9594 87.3078 62.1445 87.0378 62.3527 86.7622C62.6002 86.4344 62.8508 86.1411 63.098 85.8734C63.2006 85.9728 63.3042 86.0749 63.4063 86.1734C63.684 85.8767 63.9733 85.5767 64.2737 85.2749C64.6034 84.9438 64.9293 84.6313 65.2534 84.3272C65.4693 84.4702 65.6843 84.5477 65.8694 84.4848C66.2032 84.371 66.2118 83.8795 66.675 83.7103C67.0539 83.5719 67.3559 83.788 67.6818 83.8497C68.074 83.9238 68.6571 83.8007 69.5073 82.9663C69.8252 83.1081 70.1485 83.1965 70.5137 83.2042C71.7033 83.2287 72.3186 82.3943 74.1036 81.6084C74.4628 81.4502 74.7983 81.326 75.1024 81.2257C75.3529 81.5087 75.6658 81.7413 76.041 81.7794C76.7927 81.8555 77.281 81.0988 78.4915 80.2407C78.8797 79.9653 79.262 79.7367 79.6258 79.546C79.9281 79.8878 80.3037 80.1654 80.7525 80.206C81.9546 80.3146 83.0052 78.6618 83.392 78.074C86.5577 73.2642 89.0346 73.3117 92.1734 68.4805C94.706 64.582 96.906 58.6793 96.8995 53.7857C97.2665 53.7302 97.5644 53.7666 97.8044 53.8427C97.8574 53.8594 97.9075 53.8789 97.9565 53.8991L99.1689 56.6643C99.3713 57.124 99.5658 57.5804 99.5807 58.0744C99.6032 58.5682 99.4919 59.0676 99.3816 59.5586C99.5379 59.0801 99.6988 58.5946 99.7262 58.0751C99.7615 57.5509 99.5986 57.0364 99.4408 56.5605L98.669 54.2081C98.7398 54.2181 98.8062 54.2111 98.8696 54.1756C98.9817 54.6912 99.8046 54.8544 100.351 55.0572C103.027 56.0512 103.451 59.6303 104.8 59.429C104.887 59.416 104.986 59.3844 105.083 59.3398C105.083 59.34 105.083 59.3405 105.083 59.3407C104.672 60.1716 105.068 60.8205 105.302 62.4976C105.514 64.0105 105.62 64.7671 105.522 65.3118C105.461 65.6514 105.319 66.2274 105.621 66.5292C105.641 66.5489 105.663 66.5654 105.685 66.5817C105.547 66.6469 105.427 66.7363 105.342 66.8484C105.094 67.176 105.289 67.5087 105.342 68.2456C105.459 69.8628 104.742 71.3059 104.643 71.4988C104.309 72.1533 103.958 72.5178 103.953 72.8981C103.662 73.0494 103.319 73.1625 102.986 73.2895L102.283 73.5505C102.052 73.6353 101.818 73.7186 101.566 73.6885C101.807 73.7679 102.075 73.7309 102.32 73.6912L103.06 73.5711C103.307 73.5298 103.551 73.4952 103.806 73.4439C103.833 73.4385 103.859 73.432 103.885 73.4262C103.109 74.0703 102.276 74.6447 101.359 75.0656C100.206 75.5943 98.9034 75.8764 97.6143 75.6989C98.8869 75.9733 100.24 75.7914 101.47 75.3347C102.536 74.9393 103.516 74.347 104.429 73.6774C104.449 73.6943 104.469 73.7106 104.488 73.7257C103.939 74.1926 103.51 74.776 103.193 75.3996C102.819 76.1355 102.594 76.9305 102.466 77.7263C102.336 78.5238 102.295 79.3257 102.271 80.1227C102.265 80.5217 102.233 80.918 102.263 81.3227C102.292 81.7326 102.486 82.0929 102.563 82.4832C102.509 82.0878 102.338 81.7125 102.336 81.3182C102.331 80.9261 102.386 80.5275 102.416 80.1314C102.488 79.3396 102.578 78.5491 102.752 77.7818C102.924 77.015 103.186 76.2732 103.577 75.6087C103.858 75.1282 104.209 74.6924 104.62 74.3383C104.515 74.6014 104.465 74.8804 104.457 75.1504C104.444 75.6923 104.59 76.1993 104.77 76.6682C105.133 77.6061 105.683 78.4913 106.461 79.1139C105.749 78.4175 105.306 77.5093 105.047 76.5763C104.917 76.1097 104.836 75.6314 104.893 75.181C104.947 74.7376 105.153 74.3132 105.474 74.0776L105.424 74.0181C105.431 74.0112 105.438 74.004 105.445 73.9966C105.483 74.0483 105.522 74.0978 105.561 74.1435C105.77 74.3831 105.986 74.5804 106.212 74.7823C106.663 75.1786 107.149 75.5275 107.66 75.8242C107.204 75.4481 106.789 75.0303 106.421 74.5801C106.24 74.3563 106.057 74.1184 105.914 73.8863C105.807 73.7128 105.735 73.5329 105.724 73.3762C105.771 73.1928 105.808 72.9978 105.841 72.8162C106.557 68.8538 106.396 69.1409 106.6 68.385C106.748 67.8325 106.892 67.4545 106.95 67.1752C107.14 67.4009 107.342 67.6158 107.554 67.8171C107.748 68.0014 107.952 68.1742 108.162 68.336C108.267 68.4168 108.373 68.4954 108.482 68.5697C108.589 68.6419 108.701 68.7315 108.835 68.7471C108.708 68.7072 108.622 68.6055 108.529 68.5138C108.437 68.4214 108.348 68.3257 108.261 68.2289C108.087 68.0348 107.924 67.8336 107.773 67.6244C107.523 67.2795 107.305 66.9157 107.119 66.5403C107.125 66.5359 107.133 66.5329 107.139 66.5284C107.148 66.5212 107.154 66.5122 107.162 66.5047C107.445 66.7661 107.774 66.9551 108.108 67.0916C108.583 67.2843 109.07 67.3796 109.554 67.4702C109.097 67.2872 108.64 67.0962 108.243 66.8337C107.848 66.5739 107.513 66.234 107.34 65.8471L107.325 65.8559C107.262 65.2506 106.92 64.3051 106.8 62.9159C106.692 61.6555 106.848 60.956 106.381 59.8222C106.256 59.5204 105.961 58.8211 105.593 58.8344C105.625 58.735 105.626 58.6356 105.612 58.5405C105.856 58.5836 106.101 58.614 106.346 58.6191C106.994 58.6349 107.633 58.5125 108.216 58.278C107.604 58.4201 106.973 58.438 106.374 58.3292C106.036 58.2695 105.712 58.1671 105.402 58.0348C105.318 57.8935 105.231 57.7574 105.145 57.6237C105.37 57.6608 105.6 57.6771 105.825 57.6485C106.376 57.5846 106.861 57.2735 107.159 56.86C106.785 57.2111 106.286 57.3945 105.814 57.3576C105.577 57.3419 105.348 57.2796 105.133 57.1875C104.951 57.1069 104.778 56.9999 104.626 56.8831C103.025 54.7539 101.3 53.8086 101.3 53.8086C99.9942 53.0964 99.5382 53.1703 99.2831 53.3275C99.2255 53.3628 99.1723 53.4085 99.1229 53.4589C99.1099 53.2806 99.0607 53.0977 98.9699 52.9438C98.6893 52.4681 98.0921 52.3934 97.7051 52.3449C97.6169 52.3337 97.2515 52.2887 96.829 52.3296C96.8114 52.1573 96.7884 51.9881 96.7643 51.8195C96.9621 51.748 97.1896 51.6867 97.46 51.6512C98.2628 51.5462 98.5045 51.7842 98.993 51.5213C99.0496 51.6917 99.2527 51.8159 101.357 52.0668C102.369 52.1874 102.485 52.1781 102.63 52.0927C103.046 52.5475 103.603 52.0903 104.442 52.6196C105.03 52.991 104.969 53.3511 105.643 53.7269C105.894 53.8667 106.497 54.2051 106.986 53.9862C106.974 54.4679 107.424 54.6425 108.211 55.4942C109.251 56.6182 109.377 57.2964 109.837 57.2615C109.879 57.2585 109.914 57.2494 109.948 57.2341C110.008 57.8266 111.008 58.4213 112.102 59.9395C113.187 61.4439 113.265 62.3314 114.163 62.5433C114.181 62.5475 114.324 62.5777 114.517 62.5837C114.516 62.5841 114.516 62.5846 114.515 62.5851C114.248 62.9212 114.402 63.3343 114.502 64.0604C114.632 64.999 114.581 65.803 114.492 67.2271C114.428 68.2339 114.333 68.5374 114.564 68.7433C114.75 68.9092 115.076 68.9473 115.411 68.8772C115.264 68.9382 115.125 69.0423 115.036 69.1674C114.898 69.3606 114.902 69.5686 114.932 69.969C114.959 70.3143 114.989 70.5982 115.019 70.8419L114.998 70.8336C114.878 71.2016 114.762 71.5603 114.605 71.8948C114.45 72.2307 114.246 72.5328 113.984 72.8C113.46 73.3368 112.769 73.7164 112.088 74.0823C112.809 73.8028 113.544 73.5186 114.179 73.0164C114.495 72.7682 114.773 72.4515 114.987 72.1063C115.043 72.0176 115.096 71.9273 115.147 71.8367C115.233 72.6574 115.178 72.92 115.385 73.0342C115.453 73.0718 115.536 73.0843 115.626 73.0797C115.626 73.0799 115.626 73.0801 115.625 73.0801C115.181 73.3998 115.231 74.0582 115.22 75.2232C115.208 76.549 115.13 77.0663 115.237 78.2654C115.244 78.3429 115.254 78.4293 115.265 78.5191C114.767 79.6878 114.024 80.7734 113.079 81.6773C113.869 81.1115 114.579 80.4173 115.178 79.627C115.151 79.7203 115.124 79.8122 115.095 79.9023C114.977 80.2691 114.832 80.6299 114.652 80.9758C114.297 81.67 113.817 82.3085 113.241 82.8571C113.879 82.3828 114.447 81.7972 114.902 81.1249C115.132 80.7899 115.331 80.4319 115.503 80.0597C115.573 79.9046 115.638 79.7518 115.704 79.6033C115.731 79.6309 115.755 79.6601 115.786 79.6852C116.012 79.87 116.274 79.9303 116.286 79.9329C116.333 79.9431 116.38 79.9459 116.427 79.9505C116.304 79.9533 116.181 79.9879 116.084 80.0527C115.752 80.2723 115.77 80.7987 115.81 81.6546C115.96 84.8463 115.978 84.3954 115.979 84.8194C115.98 85.4397 115.94 85.9242 115.951 86.2662L115.938 86.262C115.556 87.8929 114.623 89.4282 113.291 90.5459C114.616 89.6657 115.687 88.3681 116.325 86.853C116.377 86.8505 116.433 86.8393 116.493 86.8219C116.434 88.3277 116.08 89.839 115.437 91.2381C116.112 90.1093 116.599 88.8549 116.87 87.5441C116.899 87.7378 116.932 87.9281 116.965 88.1134C117.022 88.4266 117.078 88.7339 117.109 89.0404C117.14 89.3454 117.136 89.653 117.114 89.9662C117.068 90.59 116.978 91.2354 116.996 91.8764C117.004 92.5169 117.066 93.1509 117.128 93.784C117.114 93.1495 117.1 92.5127 117.141 91.8815Z" fill="url(#paint2_radial_4823_341784)"/>
<path opacity="0.32" d="M109.314 51.6423L109.319 51.6342C109.308 51.6342 109.309 51.6379 109.314 51.6423Z" fill="url(#paint3_radial_4823_341784)"/>
</g>
</g>
<defs>
<linearGradient id="paint0_linear_4823_341784" x1="95.0876" y1="37.1614" x2="71.6139" y2="71.1069" gradientUnits="userSpaceOnUse">
<stop stop-color="#8A7A88"/>
<stop offset="1" stop-color="#897987" stop-opacity="0"/>
</linearGradient>
<radialGradient id="paint1_radial_4823_341784" cx="0" cy="0" r="1" gradientUnits="userSpaceOnUse" gradientTransform="translate(80.0661 64.2517) rotate(45) scale(63.9094 63.7242)">
<stop stop-color="#5F3E1B"/>
<stop offset="1" stop-color="#3F2D1F" stop-opacity="0"/>
</radialGradient>
<radialGradient id="paint2_radial_4823_341784" cx="0" cy="0" r="1" gradientUnits="userSpaceOnUse" gradientTransform="translate(80.0183 64.2643) rotate(45) scale(63.808 63.815)">
<stop stop-color="#5F3E1B"/>
<stop offset="1" stop-color="#3F2D1F" stop-opacity="0"/>
</radialGradient>
<radialGradient id="paint3_radial_4823_341784" cx="0" cy="0" r="1" gradientUnits="userSpaceOnUse" gradientTransform="translate(80.058 64.2446) rotate(45) scale(63.7333 63.7242)">
<stop stop-color="#5F3E1B"/>
<stop offset="1" stop-color="#3F2D1F" stop-opacity="0"/>
</radialGradient>
<clipPath id="clip0_4823_341784">
<rect width="140" height="140" fill="white"/>
</clipPath>
</defs>
</svg>
