<svg width="1545" height="3929" viewBox="0 0 1545 3929" fill="none" xmlns="http://www.w3.org/2000/svg">
<path d="M819.504 1824.22V1824.39C816.333 1824.11 811.414 1823.68 805.456 1822.75C796.329 1821.38 794.033 1820.02 790.316 1820.73C782.5 1822.2 778.346 1827.45 773.208 1832.48C756.538 1848.71 747.956 1844.66 738.391 1856.25C736.548 1858.48 734.971 1860.92 733.691 1863.52C733.318 1864.23 732.989 1864.96 732.707 1865.71C732.295 1866.63 731.93 1867.58 731.614 1868.55C731.395 1869.2 731.177 1869.91 730.958 1870.57C730.63 1871.66 730.356 1872.7 730.138 1873.74C730.029 1874.29 729.919 1874.83 729.81 1875.38C729.646 1876.14 729.537 1876.91 729.428 1877.73C729.209 1879.21 729.1 1880.57 728.935 1881.94V1882.49C728.786 1883.72 728.713 1884.96 728.717 1886.2C728.607 1888.33 728.662 1891.01 728.662 1891.17C728.662 1891.17 728.662 1891.94 728.607 1893.09C725.547 1984.14 699.857 2076.24 699.857 2076.24C680.672 2145.04 652.851 2291.74 651.212 2432.47C650.72 2471.55 650.61 2649.07 648.588 2676.61C648.424 2679.46 647.44 2690.55 647.823 2705.8C648.096 2717.17 648.861 2717.93 648.861 2722.52C648.861 2723.34 648.861 2724.22 648.807 2725.09C647.768 2746.46 639.132 2762.91 630.934 2768.93C630.275 2769.43 629.56 2769.85 628.802 2770.18C626.78 2771.06 621.259 2772.59 609.617 2770.35C592.809 2766.65 577.946 2756.91 567.859 2742.96H567.804C565.245 2739.6 562.873 2736.1 560.698 2732.47C558.599 2728.93 556.719 2725.26 555.068 2721.49C552.172 2722.41 549.275 2723.29 546.487 2724.05C537.878 2726.6 529.063 2728.39 520.142 2729.41C503.908 2731.1 491.829 2728.81 487.456 2721.65C487.457 2721.64 487.455 2721.63 487.453 2721.63C487.45 2721.62 487.446 2721.62 487.441 2721.61C487.436 2721.6 487.429 2721.6 487.423 2721.6C487.416 2721.6 487.409 2721.59 487.402 2721.59C487.35 2721.46 487.276 2721.33 487.183 2721.21C487.144 2721.06 487.089 2720.91 487.019 2720.77C486.964 2720.72 486.964 2720.67 486.91 2720.61C486.59 2719.14 486.534 2717.62 486.746 2716.13C486.801 2715.25 486.91 2714.27 487.019 2713.07C487.456 2708.48 488.222 2700.99 489.26 2688.15C489.315 2687.49 489.369 2686.83 489.422 2686.18C490.515 2672.02 490.789 2665.52 495.599 2658.19C498.771 2653.38 502.857 2649.24 507.624 2646.01C567.529 2605.62 572.831 2394.49 572.831 2394.49C578.187 2179.04 650.609 1878.6 637.874 1833.79C635.947 1827.62 635.259 1821.14 635.851 1814.71C637.6 1796.02 650.172 1782.19 657.66 1773.94C660.221 1770.99 663.205 1768.43 666.515 1766.34C669.892 1764.45 673.421 1762.84 677.063 1761.53C677.362 1761.37 677.673 1761.22 677.993 1761.1C678.156 1761.04 678.266 1760.99 678.43 1760.93C682.899 1758.72 686.777 1755.48 689.744 1751.48C701.275 1736.83 703.245 1719.94 710.951 1718.41C716.417 1717.37 717.565 1722.18 729.59 1723.82C739.975 1725.24 744.238 1722.35 747.463 1725.73C748.449 1727.03 749.166 1728.51 749.569 1730.09C749.973 1731.66 750.056 1733.31 749.813 1734.92C749.662 1737.49 749.032 1740.01 747.955 1742.35C747.593 1743.06 747.192 1743.76 746.752 1744.43C746.588 1744.69 746.406 1744.95 746.206 1745.19C745.937 1745.62 745.625 1746.02 745.276 1746.39C744.903 1746.87 744.608 1747.41 744.402 1747.98V1748.09C744.33 1748.24 744.311 1748.41 744.347 1748.58C744.302 1748.74 744.283 1748.91 744.292 1749.07V1749.18C744.305 1749.48 744.342 1749.77 744.402 1750.06C744.667 1751.15 745.171 1752.18 745.877 1753.06C746.271 1753.57 746.71 1754.05 747.189 1754.48C747.476 1754.7 747.75 1754.94 748.009 1755.19C748.263 1755.46 748.558 1755.68 748.884 1755.85C751.333 1757.69 754.354 1758.6 757.41 1758.42C759.481 1758.13 761.462 1757.39 763.211 1756.25C764.96 1755.11 766.433 1753.59 767.522 1751.8C770.397 1752.71 773.136 1753.99 775.666 1755.63C777.734 1756.97 779.594 1758.61 781.187 1760.49C784.521 1764.43 784.029 1766.29 788.074 1774.27C791.681 1781.37 794.961 1787.88 801.41 1793.01C807.532 1797.88 810.21 1796.68 814.036 1800.56C817.536 1804.11 820.925 1810.67 819.504 1824.22Z" fill="black"/>
<path d="M819.504 1824.22V1824.39C816.333 1824.11 811.414 1823.68 805.456 1822.75C796.329 1821.38 794.033 1820.02 790.316 1820.73C782.5 1822.2 778.346 1827.45 773.208 1832.48C756.538 1848.71 747.956 1844.66 738.391 1856.25C736.548 1858.48 734.971 1860.92 733.691 1863.52C733.318 1864.23 732.989 1864.96 732.707 1865.71C732.295 1866.63 731.93 1867.58 731.614 1868.55C731.395 1869.2 731.177 1869.91 730.958 1870.57C730.63 1871.66 730.356 1872.7 730.138 1873.74C730.029 1874.29 729.919 1874.83 729.81 1875.38C729.646 1876.14 729.537 1876.91 729.428 1877.73C729.209 1879.21 729.1 1880.57 728.935 1881.94V1882.49C728.826 1883.8 728.772 1885 728.717 1886.2C728.607 1888.33 728.662 1891.01 728.662 1891.17C728.662 1891.17 728.662 1891.94 728.607 1893.09C725.547 1984.14 699.857 2076.24 699.857 2076.24C680.672 2145.04 652.851 2291.74 651.212 2432.47C650.72 2471.55 650.61 2649.07 648.588 2676.61C648.424 2679.46 647.44 2690.55 647.823 2705.8C648.641 2711.34 648.988 2716.93 648.861 2722.52C648.861 2723.34 648.861 2724.22 648.807 2725.09C647.768 2746.46 639.132 2762.91 630.934 2768.93C630.275 2769.43 629.56 2769.85 628.802 2770.18C626.78 2771.06 621.259 2772.59 609.617 2770.35C592.809 2766.65 577.946 2756.91 567.859 2742.96H567.804C565.245 2739.6 562.873 2736.1 560.698 2732.47C558.599 2728.93 556.719 2725.26 555.068 2721.49C552.172 2722.41 549.275 2723.29 546.487 2724.05C537.878 2726.6 529.063 2728.39 520.142 2729.41C503.908 2731.1 491.829 2728.81 487.456 2721.65C487.457 2721.64 487.455 2721.63 487.453 2721.63C487.45 2721.62 487.446 2721.62 487.441 2721.61C487.436 2721.6 487.429 2721.6 487.423 2721.6C487.416 2721.6 487.409 2721.59 487.402 2721.59C487.35 2721.46 487.276 2721.33 487.183 2721.21C487.144 2721.06 487.089 2720.91 487.019 2720.77C486.964 2720.72 486.964 2720.67 486.91 2720.61C486.59 2719.14 486.534 2717.62 486.746 2716.13C486.801 2715.25 486.91 2714.27 487.019 2713.07C487.456 2708.48 488.222 2700.99 489.26 2688.15C489.315 2687.49 489.369 2686.83 489.422 2686.18C490.515 2672.02 490.789 2665.52 495.599 2658.19C498.771 2653.38 502.857 2649.24 507.624 2646.01C567.529 2605.62 572.831 2394.49 572.831 2394.49C578.187 2179.04 650.609 1878.6 637.874 1833.79C635.947 1827.62 635.259 1821.14 635.851 1814.71C637.6 1796.02 650.172 1782.19 657.66 1773.94C660.221 1770.99 663.205 1768.43 666.515 1766.34C669.892 1764.45 673.421 1762.84 677.063 1761.53C677.362 1761.37 677.673 1761.22 677.993 1761.1C678.156 1761.04 678.266 1760.99 678.43 1760.93C668.421 1768.57 661.031 1779.14 657.279 1791.16C652.359 1808.7 658.372 1824.33 660.503 1830.56C666.571 1848.43 663.783 1878.88 657.934 1939C644.653 2074.81 619.892 2174.07 612.458 2301.46C603.986 2446.68 610.873 2585.67 560.697 2614.58C555.941 2617.31 521.89 2635.68 511.067 2667.81C510.357 2670 505.437 2684.98 509.537 2687.43C512.817 2689.4 519.704 2681.97 529.706 2674.21C544.245 2662.89 563.156 2648.25 575.344 2651.64C591.195 2656.06 590.976 2689.84 598.027 2708.97C600.487 2715.64 603.876 2720.55 609.178 2721.76C609.679 2721.88 610.192 2721.95 610.708 2721.98C618.36 2722.69 626.612 2715.75 630.767 2709.51C643.995 2689.4 626.996 2656.77 621.967 2646.12C605.078 2610.43 609.451 2537.63 619.344 2392.14C636.67 2137.39 686.518 2003.98 689.579 1937.47C689.579 1937.47 691.984 1884.72 707.562 1862.53C709.959 1859.23 711.89 1855.6 713.301 1851.77C715.867 1844.86 716.73 1837.44 715.815 1830.12C713.847 1815.1 704.719 1808.76 708.655 1799.41C708.855 1798.86 709.111 1798.32 709.42 1797.82C709.819 1797.11 710.276 1796.44 710.786 1795.8C712.699 1793.45 710.513 1768.31 717.946 1759.79C721.171 1756.12 723.194 1758.8 730.955 1754.87C741.723 1749.35 746.314 1739.73 749.812 1734.92C749.661 1737.49 749.031 1740.01 747.954 1742.35C747.592 1743.07 747.191 1743.76 746.751 1744.43C746.587 1744.7 746.405 1744.95 746.205 1745.19C745.936 1745.62 745.624 1746.03 745.275 1746.39C744.902 1746.87 744.607 1747.41 744.401 1747.98V1748.09C744.346 1748.58 744.346 1748.58 744.291 1749.07L744.291 1749.18C744.301 1749.48 744.337 1749.77 744.401 1750.06C744.666 1751.15 745.17 1752.18 745.876 1753.06C746.27 1753.58 746.709 1754.05 747.188 1754.48C747.448 1754.74 747.722 1754.97 748.008 1755.19C748.262 1755.46 748.557 1755.68 748.883 1755.85C751.361 1757.72 754.194 1759.07 757.211 1759.82C760.227 1760.56 763.363 1760.68 766.428 1760.17H766.482C766.482 1760.17 766.647 1760.11 766.865 1760.06C767.084 1760 767.412 1759.95 767.74 1759.84C768.306 1759.72 768.857 1759.54 769.38 1759.29C769.771 1759.17 770.154 1759.03 770.527 1758.86C770.91 1758.69 771.293 1758.47 771.73 1758.25C772.626 1757.79 773.485 1757.26 774.299 1756.67C774.791 1756.34 775.228 1755.96 775.665 1755.63C777.733 1756.97 779.593 1758.61 781.186 1760.49C784.52 1764.43 784.029 1766.29 788.074 1774.27C790.519 1781.72 795.17 1788.26 801.41 1793.01C807.532 1797.88 810.21 1796.68 814.036 1800.56C817.536 1804.11 820.925 1810.67 819.504 1824.22Z" fill="black"/>
<path d="M648.861 2722.52C648.861 2723.34 648.861 2724.22 648.807 2725.09C647.768 2746.46 639.132 2762.91 630.934 2768.92C630.275 2769.43 629.56 2769.85 628.802 2770.18C626.78 2771.06 621.259 2772.59 609.617 2770.35C592.809 2766.65 577.946 2756.91 567.859 2742.96H567.804C565.245 2739.6 562.873 2736.1 560.698 2732.47C558.599 2728.93 556.719 2725.26 555.068 2721.49C552.172 2722.41 549.275 2723.29 546.487 2724.05C537.878 2726.6 529.063 2728.39 520.142 2729.41C503.908 2731.1 491.829 2728.81 487.456 2721.65C487.457 2721.64 487.455 2721.63 487.453 2721.63C487.45 2721.62 487.446 2721.62 487.441 2721.61C487.436 2721.6 487.429 2721.6 487.423 2721.6C487.416 2721.6 487.409 2721.59 487.402 2721.59C487.35 2721.46 487.276 2721.33 487.183 2721.21C487.144 2721.06 487.089 2720.91 487.019 2720.77C486.964 2720.72 486.964 2720.67 486.91 2720.61C486.59 2719.14 486.534 2717.62 486.746 2716.13C486.801 2715.25 486.91 2714.27 487.019 2713.07C487.456 2708.48 488.222 2700.99 489.26 2688.15C490.3 2692.64 492.399 2696.82 495.382 2700.33C496.147 2701.21 496.913 2702.03 497.678 2702.79C500.098 2705.11 503.013 2706.86 506.203 2707.89C509.394 2708.92 512.777 2709.21 516.097 2708.75C523.225 2707.64 530.009 2704.93 535.938 2700.83C538.234 2699.35 540.365 2697.82 542.443 2696.23C544.028 2695.03 545.558 2693.78 546.979 2692.57C547.963 2691.75 548.947 2690.93 549.876 2690V2689.95C551.898 2688.25 553.866 2686.4 555.834 2684.48C559.933 2680.49 563.814 2676.34 567.585 2672.02C570.122 2678.08 571.69 2684.5 572.231 2691.04C572.45 2692.9 572.669 2694.81 572.887 2696.67C573.27 2700.66 573.707 2704.65 574.417 2708.48C574.939 2711.45 575.688 2714.37 576.659 2717.22C577.533 2719.73 578.65 2722.15 579.993 2724.44C580.155 2724.74 580.338 2725.03 580.539 2725.31L580.594 2725.36C588.738 2738.21 606.775 2751.33 622.517 2746.57C623.552 2746.26 624.559 2745.86 625.523 2745.37C634.104 2741.32 638.969 2732.09 641.701 2723.29C644.311 2714.31 645.78 2705.03 646.074 2695.69C646.73 2698.75 647.331 2702.08 647.823 2705.8C648.641 2711.33 648.988 2716.93 648.861 2722.52Z" fill="black"/>
<path d="M781.064 1775.37C782.207 1781.89 784.606 1788.13 788.128 1793.73C796.092 1805.6 809.141 1808.8 808.377 1810.68C807.918 1811.82 803.486 1809.99 797.075 1810.68C791.649 1811.54 786.493 1813.63 782.006 1816.8C768.773 1824.56 764.682 1828 755.164 1833.29C747.953 1837.29 739.594 1841.94 737.74 1839.88C735.693 1837.6 744.968 1830.93 745.275 1819.63C745.59 1808.05 736.168 1803.53 738.682 1797.5C741.792 1790.03 756.722 1795.75 767.879 1785.73C777.466 1777.11 777.758 1762.73 779.652 1763.12C780.775 1763.36 779.892 1768.26 781.064 1775.37Z" fill="black"/>
</svg>
