<svg width="1545" height="3929" viewBox="0 0 1545 3929" fill="none" xmlns="http://www.w3.org/2000/svg">
<path d="M1170.24 2766.25C1166.42 2774.28 1160.08 2777.89 1153.19 2781.71C1152.92 2781.82 1152.7 2781.99 1152.48 2782.09C1152.21 2782.26 1151.93 2782.37 1151.66 2782.53C1147.97 2784.47 1144.44 2786.7 1141.11 2789.2C1141 2789.31 1140.87 2789.4 1140.73 2789.47C1140.62 2789.6 1140.49 2789.71 1140.35 2789.8C1134.04 2794.96 1128.78 2801.26 1124.82 2808.38C1124.33 2809.31 1123.78 2810.24 1123.29 2811.23C1123.24 2811.29 1123.2 2811.36 1123.18 2811.44C1122.91 2811.87 1122.69 2812.33 1122.53 2812.81C1122.47 2812.86 1122.42 2812.91 1122.38 2812.98C1122.34 2813.04 1122.32 2813.12 1122.31 2813.19C1121.93 2813.9 1121.6 2814.61 1121.27 2815.32C1120.56 2816.8 1119.85 2818.28 1119.19 2819.81C1118.76 2820.79 1118.37 2821.77 1117.94 2822.76C1116.62 2825.82 1115.37 2829.04 1114.06 2832.38C1090.39 2891.73 1078.58 2970.16 1072.68 3037.99C1072.63 3038.18 1072.62 3038.39 1072.63 3038.59C1067.16 3102.53 1066.94 3157.02 1067.1 3177.03C1067.16 3182.33 1067.21 3185.23 1067.21 3185.23C1070.22 3317.87 1039.39 3452.6 1062.24 3583.33C1062.29 3583.6 1062.35 3583.88 1062.4 3584.2C1062.4 3584.32 1062.41 3584.43 1062.46 3584.53V3584.64C1064.43 3596.12 1071.7 3641.32 1050.82 3655.2C1048.91 3656.5 1046.78 3657.43 1044.53 3657.93C1028.3 3662.03 1007.58 3646.07 973.968 3656.84C958.938 3661.65 949.318 3669.24 941.008 3664.27C940.194 3663.78 939.441 3663.19 938.768 3662.52C938.44 3662.2 938.112 3661.81 937.784 3661.49C933.63 3656.4 932.318 3647.49 932.427 3635.85C932.701 3607.43 932.81 3593.22 950.191 3562.56C1000.7 3473.64 1025.78 3074.44 1023.87 2944.64C1022.78 2871.4 1022.23 2834.73 1016.49 2821.45C1012.61 2812.48 1000.31 2786.69 1008.24 2759.8C1009.81 2753.18 1012.89 2747.03 1017.26 2741.81C1018.51 2740.45 1019.88 2739.21 1021.36 2738.1C1036 2727.28 1058.03 2732.25 1076.56 2737.11C1095.58 2742.03 1100.99 2748.48 1113.78 2745.86C1127.56 2743.02 1129.31 2733.78 1143.46 2732.52C1151.46 2731.71 1159.49 2733.68 1166.2 2738.1C1168.44 2739.71 1170.28 2741.83 1171.56 2744.27C1176.37 2753.57 1171.12 2764.33 1170.24 2766.25Z" fill="#FFEECC" stroke="#282724" stroke-width="0.1687" stroke-miterlimit="10"/>
<path opacity="0.07" d="M1007.4 3622.32C996.528 3624.57 997.491 3639.7 984.413 3644.42C970.164 3649.55 948.847 3638.86 946.845 3626.98C944.525 3613.21 968.377 3599.27 977.699 3592.68C1027.28 3557.62 1034.63 3469.42 1036.99 3398.73C1040.61 3290.34 1045.18 2843.91 1063.53 2813.57C1066.74 2808.18 1069.27 2802.4 1071.05 2796.38C1073.68 2787.61 1076.96 2776.7 1072.9 2767.42C1066.15 2752 1040.56 2744.23 1030.16 2752.26C1021.8 2758.7 1024.25 2774.83 1028.97 2807.11C1031 2821.02 1033.51 2831.09 1033.59 2831.74C1036.43 2855.91 1033.81 2879.44 1031.34 2935.63C1025.47 3068.95 1018.53 3509.87 959.817 3582.3C956.677 3586.17 934.309 3606.61 932.446 3635.83C932.209 3639.55 931.016 3658.27 941.008 3664.27C949.292 3669.25 958.93 3661.67 973.982 3656.85C1012.04 3644.65 1033.54 3666.74 1050.84 3655.21C1072.56 3640.72 1063.79 3592.17 1062.25 3583.35C1039.42 3452.6 1070.24 3317.89 1067.2 3185.2C1067.2 3175.79 1067.87 2956.98 1100.66 2846.25C1113.56 2802.65 1126.24 2793.41 1133.05 2789.73C1141.83 2784.98 1154.53 2782.1 1160.36 2770.04C1163.56 2763.4 1165.19 2753.93 1161.51 2751.29C1154.84 2746.49 1132.76 2765.64 1123.27 2775.07C1087.97 2810.13 1079.5 2856.88 1077.53 2868.61C1059.87 2973.52 1058.71 3151.65 1053.01 3258.76C1053.01 3258.76 1037.35 3553.1 1054.18 3591.42C1057.93 3600.08 1059.54 3609.51 1058.88 3618.93C1058.61 3622.48 1057.18 3641.41 1048.14 3644.42C1035.94 3648.48 1023.11 3619.06 1007.4 3622.32Z" fill="#282724"/>
</svg>
