<svg width="1545" height="3929" viewBox="0 0 1545 3929" fill="none" xmlns="http://www.w3.org/2000/svg">
<path d="M614.979 2854.68C554.732 2965.16 544.755 3096.55 501.945 3214.88C501.945 3214.88 424.227 3429.71 414.885 3564.38C413.295 3587.31 412.499 3598.77 416.127 3607.49C421.324 3618.01 423.818 3629.67 423.383 3641.4C423.299 3642.62 423.139 3643.83 422.906 3645.04C420.063 3659.96 410.006 3669.58 402.409 3676.74C393.39 3685.37 385.028 3693.08 374.096 3692.91C365.624 3692.8 360.814 3688.16 347.204 3677.83C336.819 3669.9 333.759 3665.04 323.865 3661.32C316.869 3658.64 314.683 3659.63 312.278 3657.28C311.337 3656.35 310.642 3655.21 310.256 3653.94C310.201 3653.78 310.146 3653.67 310.091 3653.51C309.883 3652.81 309.736 3652.1 309.654 3651.38C309.543 3650.54 309.489 3649.7 309.49 3648.86C309.49 3647.99 309.545 3647.11 309.6 3646.24C309.709 3645.42 309.818 3644.54 309.982 3643.67V3643.5C310.146 3642.69 310.31 3641.86 310.529 3640.99C310.52 3640.88 310.539 3640.77 310.583 3640.66C310.747 3639.84 311.02 3638.97 311.239 3638.09C311.257 3637.96 311.294 3637.83 311.349 3637.71C311.567 3636.84 311.841 3636.02 312.114 3635.2C312.934 3632.57 313.917 3630 314.901 3627.55C315.327 3626.37 315.82 3625.22 316.377 3624.1C316.76 3623.23 317.143 3622.41 317.47 3621.59C317.907 3620.55 318.399 3619.62 318.837 3618.69C319.712 3616.89 320.477 3615.36 321.133 3614.16C321.317 3613.72 321.536 3613.3 321.788 3612.9L322.226 3612.02C322.267 3611.93 322.322 3611.83 322.388 3611.75C323.317 3610.06 324.192 3608.25 325.011 3606.39C334.03 3587.16 345.071 3552.4 359.664 3499.33C359.662 3499.25 359.681 3499.17 359.719 3499.11C375.024 3443.25 394.318 3367.06 419.296 3267.32C424.926 3244.96 430.83 3221.41 437.006 3196.65C437.279 3195.89 502.377 2999.13 502.377 2868.45C502.377 2860.96 502.158 2853.64 501.721 2846.64C500.518 2827.62 499.535 2812.38 489.368 2797.24C484.012 2789.26 477.07 2784.17 472.751 2777.29C472.744 2777.29 472.737 2777.29 472.73 2777.28C472.724 2777.28 472.717 2777.28 472.712 2777.27C472.707 2777.27 472.703 2777.26 472.7 2777.25C472.698 2777.25 472.696 2777.24 472.697 2777.23C470.588 2773.95 469.244 2770.23 468.761 2766.36C468.434 2763.73 467.395 2752.69 474.337 2745.04C485.214 2733.07 507.57 2733.18 517.571 2742.91C525.66 2750.78 520.522 2759.96 528.448 2766.74C536.972 2774.03 548.709 2768.96 566.872 2767.67C584.469 2766.42 617.056 2768.2 628.431 2782.24C644.236 2801.76 619.794 2845.85 614.979 2854.68Z" fill="black"/>
<path d="M477.563 3089.86C428.317 3236.33 439.083 3211.24 419.298 3267.32C424.928 3244.96 430.831 3221.41 437.007 3196.65C437.28 3195.89 502.378 2999.13 502.378 2868.45C502.378 2860.96 502.159 2853.64 501.722 2846.64C500.52 2827.62 499.536 2812.38 489.369 2797.24C484.505 2788.44 477.29 2782.59 472.753 2777.29C472.746 2777.29 472.738 2777.29 472.732 2777.28C472.725 2777.28 472.719 2777.28 472.714 2777.27C472.709 2777.27 472.705 2777.26 472.702 2777.25C472.699 2777.25 472.698 2777.24 472.698 2777.23C469.583 2773.63 467.724 2770.24 468.763 2766.36C471.496 2756.03 492.703 2748.76 504.837 2755.7C512.817 2760.29 515.167 2770.02 515.987 2773.74C543.371 2893.92 477.563 3089.86 477.563 3089.86Z" fill="black"/>
<path d="M590.432 2848.94C586.989 2856.1 584.092 2859.87 580.758 2866.16C580.047 2867.58 579.227 2869.16 578.407 2870.96C564.213 2902.71 554.129 2936.14 548.4 2970.44C535.774 3058.81 387.76 3509.38 403.83 3570.27C406.508 3580.43 410.552 3589.18 416.127 3607.49C423.67 3632.3 424.163 3638.37 422.906 3645.04C420.063 3659.96 410.006 3669.58 402.409 3676.74C393.39 3685.37 385.028 3693.08 374.096 3692.91C365.624 3692.8 360.814 3688.16 347.204 3677.83C336.819 3669.9 333.759 3665.04 323.865 3661.32C316.869 3658.64 314.683 3659.63 312.278 3657.28C311.337 3656.35 310.642 3655.21 310.256 3653.94C310.201 3653.78 310.146 3653.67 310.091 3653.51C309.883 3652.81 309.736 3652.1 309.654 3651.38C309.543 3650.54 309.489 3649.7 309.49 3648.86C309.49 3647.99 309.545 3647.11 309.6 3646.24C309.709 3645.42 309.818 3644.54 309.982 3643.67V3643.5C310.146 3642.69 310.31 3641.86 310.529 3640.99C310.52 3640.88 310.539 3640.77 310.583 3640.66C310.747 3639.84 311.02 3638.97 311.239 3638.09C311.257 3637.96 311.294 3637.83 311.349 3637.71C311.567 3636.84 311.841 3636.02 312.114 3635.2C312.934 3632.57 313.917 3630 314.901 3627.55C315.327 3626.37 315.82 3625.22 316.377 3624.1C316.76 3623.23 317.143 3622.41 317.47 3621.59C317.907 3620.55 318.399 3619.62 318.837 3618.69C319.712 3616.89 320.477 3615.36 321.133 3614.16C321.317 3613.72 321.536 3613.3 321.788 3612.9L322.226 3612.02C322.267 3611.93 322.322 3611.83 322.388 3611.75C323.317 3610.06 324.192 3608.25 325.011 3606.39C334.03 3587.16 345.071 3552.4 359.664 3499.33C352.778 3528.73 345.235 3557.92 336.107 3586.61C334.522 3591.58 329.001 3608.69 335.396 3626.78C336.139 3628.88 346.937 3658.38 369.12 3658.26C375.208 3658.03 381.099 3656.04 386.079 3652.53C391.059 3649.02 394.917 3644.14 397.185 3638.49C403.663 3620.82 388.342 3600.93 382.427 3591.64C361.48 3558.72 366.966 3514.82 392.623 3415.98C417.214 3321.25 441.784 3247.78 452.528 3215.62C506.038 3055.42 530.58 2997.6 533.641 2940.7C535.116 2913.49 541.348 2886.76 543.479 2859.65C545.939 2828.55 545.611 2812.38 557.909 2803.19C571.737 2792.86 596.443 2795.49 602.783 2806.36C607.321 2814.23 601.692 2825.82 590.432 2848.94Z" fill="black"/>
</svg>
