<svg width="1545" height="3929" viewBox="0 0 1545 3929" fill="none" xmlns="http://www.w3.org/2000/svg">
<path d="M1390.28 2102.86C1392.93 2093.41 1396.61 2087.03 1394.21 2084.56C1393.44 2083.77 1392.57 2083.89 1385.94 2084.58C1376.31 2085.58 1375.23 2085.52 1374.06 2086.69C1371.63 2089.12 1372.57 2093.06 1373.13 2100.89C1373.87 2111.21 1374.44 2119.25 1372.59 2127.29C1370.04 2138.35 1364.57 2142.09 1366.8 2147.86C1368.28 2150.73 1370.52 2153.14 1373.27 2154.82C1376.8 2157.59 1380.14 2160.21 1382.54 2159.21C1385.5 2157.98 1385.56 2151.92 1386.3 2140.58C1387.62 2120.19 1388.28 2110 1390.28 2102.86Z" fill="black"/>
<path d="M1394.45 2089.95C1392.31 2089.95 1390.17 2090.14 1388.06 2090.5C1385.61 2090.69 1383.25 2091.42 1381.11 2092.63C1376.63 2096.07 1381.17 2104.71 1381.11 2117.17C1381.01 2132.64 1373.9 2135.53 1376.58 2146.46C1377.75 2151.06 1379.93 2155.34 1382.97 2158.98C1382.84 2159.07 1382.69 2159.15 1382.54 2159.2C1380.13 2160.24 1376.8 2157.61 1373.3 2154.83C1370.54 2153.15 1368.29 2150.75 1366.79 2147.88C1364.55 2142.09 1370.02 2138.32 1372.59 2127.28C1374.45 2119.25 1373.85 2111.21 1373.13 2100.88C1372.59 2093.07 1371.6 2089.13 1374.06 2086.67C1375.21 2085.52 1376.3 2085.58 1385.92 2084.6C1392.59 2083.88 1393.47 2083.78 1394.23 2084.54C1395.27 2085.63 1395.16 2087.44 1394.45 2089.95Z" fill="black"/>
<path d="M1367.74 2153.77C1365.34 2153.23 1364.15 2152.97 1363.08 2153.63C1359.07 2156.09 1365.87 2165.44 1362.98 2177.17C1360.88 2185.67 1354.37 2192.69 1355.61 2198.3C1355.83 2199.72 1356.56 2201.02 1357.67 2201.93C1359.29 2203.1 1360.55 2202.2 1362.37 2202.96C1365.72 2204.37 1365.26 2209.01 1367.42 2209.51C1369.3 2209.94 1371.91 2206.92 1373.39 2203.97C1376.58 2197.58 1373.4 2193.62 1373.86 2185.73C1374.59 2173.12 1383.46 2170.22 1380.84 2163.14C1378.83 2157.71 1371.87 2154.69 1367.74 2153.77Z" fill="black"/>
<path d="M1381.28 2166.63C1378.55 2163.9 1375.38 2162.15 1373.41 2163.02C1370.95 2164.06 1372.15 2168.16 1370.46 2177.4C1368.16 2189.97 1363.84 2194.12 1366.47 2197.95C1367.44 2199.09 1368.69 2199.98 1370.09 2200.52C1371.49 2201.06 1373.01 2201.25 1374.5 2201.06C1374.24 2202.06 1373.87 2203.04 1373.41 2203.96C1371.93 2206.91 1369.31 2209.92 1367.39 2209.48C1365.26 2208.99 1365.7 2204.4 1362.37 2202.98C1360.56 2202.21 1359.31 2203.09 1357.67 2201.94C1356.58 2200.99 1355.85 2199.7 1355.59 2198.28C1354.39 2192.7 1360.89 2185.65 1362.97 2177.18C1365.86 2165.43 1359.09 2156.08 1363.08 2153.62C1364.17 2152.97 1365.32 2153.24 1367.72 2153.79C1371.88 2154.72 1378.82 2157.72 1380.84 2163.13C1381.27 2164.25 1381.42 2165.45 1381.28 2166.63Z" fill="black"/>
<path d="M1360.46 2202.01C1359.27 2201.81 1358.04 2201.93 1356.91 2202.35C1355.77 2202.76 1354.76 2203.47 1353.98 2204.39C1352.37 2207.17 1355.91 2209.59 1356.29 2216.2C1356.58 2219.73 1355.87 2223.27 1354.23 2226.41C1352.27 2229.93 1350.43 2229.95 1349.56 2232.89C1348.47 2236.56 1349.85 2241.56 1352.47 2242.27C1354.83 2242.91 1357.8 2240 1359.16 2237.38C1360.79 2234.22 1359.27 2233.01 1360.28 2228.67C1361.27 2224.44 1363.02 2224.29 1366.2 2217.19C1367.58 2214.97 1368.32 2212.41 1368.33 2209.79C1368.02 2207.83 1367.09 2206.01 1365.67 2204.61C1364.26 2203.21 1362.43 2202.3 1360.46 2202.01Z" fill="black"/>
<path d="M1515.32 2066.88C1512.63 2070.47 1518.55 2076.12 1522.18 2089.05C1524.26 2096.48 1525.97 2102.56 1524.22 2109.82C1522.53 2116.86 1518.38 2121.64 1520.32 2123.76C1521.5 2125.06 1523.34 2123.6 1527.81 2124.73C1532.18 2125.83 1532.81 2127.82 1535.56 2127.84C1537.28 2127.61 1538.92 2126.97 1540.33 2125.96C1541.75 2124.95 1542.89 2123.61 1543.66 2122.05C1546.75 2116.42 1543.03 2110.77 1540.52 2101.67C1534.88 2081.28 1542.22 2068.72 1535.36 2064.9C1532.5 2063.31 1528.26 2063.86 1523.28 2064.51C1518.72 2065.1 1516.43 2065.4 1515.32 2066.88Z" fill="black"/>
<path d="M1543.67 2122.03C1542.89 2123.59 1541.75 2124.93 1540.34 2125.94C1538.93 2126.95 1537.3 2127.59 1535.58 2127.83C1532.79 2127.83 1532.19 2125.86 1527.82 2124.71C1523.34 2123.62 1521.48 2125.04 1520.33 2123.78C1518.36 2121.65 1522.52 2116.84 1524.21 2109.79C1525.96 2102.58 1524.26 2096.45 1522.19 2089.08C1518.53 2076.12 1512.62 2070.44 1515.3 2066.89C1516.45 2065.41 1518.69 2065.08 1523.28 2064.48C1524.54 2064.32 1525.79 2064.15 1527 2064.04H1527.11C1528.96 2063.8 1530.83 2063.8 1532.68 2064.04C1533.62 2064.18 1534.52 2064.47 1535.36 2064.92C1538.26 2066.56 1538.64 2069.73 1538.47 2074.37C1537.35 2072.93 1535.96 2071.7 1534.38 2070.77C1529.57 2067.82 1522.62 2067.16 1521.42 2069.35C1520.06 2071.91 1528.42 2075.08 1531.31 2083.67C1535.85 2096.95 1521.97 2107.66 1527.54 2116.84C1528.63 2118.62 1530.21 2120.06 1532.09 2120.97C1533.97 2121.88 1536.07 2122.23 1538.15 2121.98C1539.68 2121.43 1541.07 2120.52 1542.19 2119.34C1543.31 2118.15 1544.14 2116.71 1544.6 2115.15C1545.12 2117.48 1544.79 2119.92 1543.67 2122.03Z" fill="black"/>
<path d="M1533.68 2144.51C1532.02 2147.76 1532.35 2151 1533.09 2157.36C1534.19 2166.93 1536.5 2170.08 1534.3 2173.97C1533.84 2174.86 1533.19 2175.65 1532.41 2176.28C1531.63 2176.91 1530.72 2177.37 1529.75 2177.63C1524.14 2178.55 1516.66 2168.86 1518.13 2162.15C1518.56 2160.2 1519.34 2160.28 1520.11 2157.8C1521.19 2154.29 1520.39 2151.61 1518.75 2145.06C1515.97 2134.03 1515.85 2132.17 1516.79 2130.12C1517.28 2129 1518 2127.99 1518.89 2127.15C1519.78 2126.31 1520.82 2125.65 1521.97 2125.21C1526.63 2123.82 1529.5 2128.76 1536.62 2127.99C1538.23 2127.81 1539.24 2127.43 1540.02 2128.1C1541.81 2129.6 1540.21 2134.59 1538.68 2137.63C1536.71 2141.56 1535.2 2141.56 1533.68 2144.51Z" fill="black"/>
<path d="M1524.48 2132.09C1522.52 2134.22 1528.58 2139.3 1529.46 2148.1C1530.44 2158.1 1523.72 2162.8 1526.4 2166.9C1527.51 2168.1 1528.9 2169.01 1530.44 2169.56C1531.98 2170.11 1533.63 2170.29 1535.25 2170.07C1535.32 2171.43 1534.99 2172.78 1534.32 2173.95C1533.85 2174.85 1533.2 2175.63 1532.41 2176.26C1531.62 2176.89 1530.71 2177.35 1529.73 2177.62C1524.15 2178.54 1516.67 2168.87 1518.14 2162.15C1518.58 2160.18 1519.34 2160.29 1520.11 2157.78C1521.2 2154.28 1520.38 2151.6 1518.74 2145.04C1515.96 2134.06 1515.85 2132.2 1516.78 2130.12C1517.79 2127.86 1519.66 2126.09 1521.97 2125.2C1526.61 2123.84 1529.51 2128.75 1536.62 2127.99C1538.2 2127.82 1539.24 2127.44 1540.01 2128.1C1541.32 2129.19 1540.88 2132.03 1539.95 2134.66C1538.53 2134.17 1536.62 2133.73 1533.88 2133.02C1528.31 2131.65 1525.52 2131 1524.48 2132.09Z" fill="black"/>
<path d="M1499.96 2137.4C1500.78 2133.38 1502.72 2124.52 1498.55 2121.66C1497.28 2120.79 1496.13 2120.95 1488.56 2121.51C1476.95 2122.36 1475.64 2122.28 1474.25 2123.49C1470.47 2126.77 1472.4 2134.08 1473.42 2138.41C1476 2149.35 1485.2 2188.34 1471.75 2199.39C1468.34 2202.19 1462.57 2203.93 1461.26 2209.37C1460.95 2210.38 1460.87 2211.45 1461.04 2212.5C1461.2 2213.54 1461.61 2214.54 1462.22 2215.4C1464.13 2217.44 1466.83 2216.09 1470.9 2217.47C1476.36 2219.33 1477 2223.66 1479.53 2223.79C1484.37 2224.03 1488.75 2208.51 1490.6 2201.59C1500.19 2165.81 1493.99 2166.47 1499.96 2137.4Z" fill="black"/>
<path d="M1485.57 2128.04C1482.61 2131.16 1483.93 2135.92 1485.35 2144.33C1489.23 2167.72 1492.73 2188.6 1483.33 2199.86C1480.1 2203.74 1474.96 2206.86 1475.89 2210.3C1476.55 2212.65 1479.66 2214.02 1482.12 2214.29C1483.74 2214.47 1485.38 2214.22 1486.88 2213.58C1484.8 2219.1 1482.23 2223.91 1479.55 2223.8C1479.14 2223.79 1478.74 2223.66 1478.41 2223.42C1478.41 2223.41 1478.4 2223.4 1478.4 2223.4C1478.4 2223.39 1478.4 2223.38 1478.39 2223.38C1478.39 2223.37 1478.38 2223.37 1478.37 2223.37C1478.37 2223.36 1478.36 2223.36 1478.35 2223.36C1477.19 2222.28 1476.1 2221.13 1475.07 2219.92C1473.88 2218.81 1472.47 2217.97 1470.92 2217.46C1466.82 2216.09 1464.14 2217.46 1462.23 2215.38C1461.62 2214.52 1461.22 2213.53 1461.05 2212.49C1460.88 2211.45 1460.95 2210.38 1461.24 2209.37C1462.56 2203.91 1468.35 2202.21 1471.74 2199.37C1485.18 2188.33 1476 2149.36 1473.43 2138.43C1472.39 2134.06 1470.48 2126.79 1474.25 2123.51C1475.45 2122.36 1476.66 2122.36 1485.18 2121.71H1485.4C1486.33 2121.65 1487.42 2121.6 1488.57 2121.49C1489.17 2121.43 1489.77 2121.38 1490.32 2121.38C1490.43 2121.38 1490.49 2121.32 1490.59 2121.32C1496.33 2120.94 1497.37 2120.89 1498.57 2121.65C1499.28 2122.19 1499.85 2122.88 1500.27 2123.66C1500.68 2124.44 1500.92 2125.3 1500.98 2126.18C1495.08 2124.33 1488.57 2124.82 1485.57 2128.04Z" fill="black"/>
<path d="M1451.92 2268.72C1453.26 2269.77 1455.32 2267.87 1457.86 2269.26C1461.45 2271.24 1459.89 2276.42 1463.45 2278.35C1464.35 2278.78 1465.33 2279.02 1466.32 2279.03C1467.32 2279.04 1468.3 2278.83 1469.2 2278.41C1473.71 2276.14 1470.19 2268.22 1471.36 2257.9C1473.15 2242.02 1483.97 2238.57 1480.71 2228.15C1480.05 2225.86 1478.87 2223.76 1477.26 2221.99C1475.66 2220.23 1473.67 2218.85 1471.45 2217.97C1467.49 2216.63 1461.8 2216.85 1459.26 2219.73C1455.88 2223.56 1461.29 2228.47 1461.98 2237.48C1463.19 2253.41 1448.41 2265.98 1451.92 2268.72Z" fill="black"/>
<path d="M1481.25 2231.51C1479.45 2228.34 1476.87 2225.69 1473.76 2223.8C1470.48 2221.89 1466.11 2220.63 1465.29 2221.83C1464.63 2222.82 1467.42 2224.78 1469.28 2228.5C1473.54 2237.24 1468.79 2248.45 1467.69 2251.02C1465.01 2257.36 1462.34 2258.72 1462.56 2263.42C1462.66 2266.54 1464.09 2271.02 1467.04 2271.95C1467.81 2272.13 1468.61 2272.14 1469.38 2271.98C1470.16 2271.82 1470.89 2271.49 1471.52 2271.02C1471.74 2274.68 1471.52 2277.25 1469.22 2278.4C1468.42 2278.78 1467.56 2278.99 1466.67 2279.02C1465.79 2279.04 1464.91 2278.89 1464.09 2278.56C1463.85 2278.54 1463.63 2278.47 1463.43 2278.34C1459.88 2276.43 1461.46 2271.24 1457.85 2269.27C1457.55 2269.1 1457.23 2268.96 1456.89 2268.86C1456.57 2268.83 1456.27 2268.73 1455.94 2268.73C1455.61 2268.73 1455.29 2268.78 1454.96 2268.78C1453.76 2268.94 1452.72 2269.33 1451.9 2268.73C1448.4 2265.99 1463.21 2253.42 1461.95 2237.46C1461.3 2228.45 1455.89 2223.58 1459.28 2219.76C1461.79 2216.86 1467.47 2216.64 1471.46 2217.95C1472.78 2218.39 1474 2219.05 1475.07 2219.92C1476.35 2220.87 1477.46 2222.03 1478.35 2223.36C1478.36 2223.36 1478.37 2223.36 1478.37 2223.37C1478.38 2223.37 1478.39 2223.37 1478.39 2223.38C1478.4 2223.38 1478.4 2223.39 1478.4 2223.4C1478.4 2223.4 1478.41 2223.41 1478.41 2223.42C1479.39 2224.89 1480.16 2226.49 1480.7 2228.17C1481.06 2229.25 1481.24 2230.37 1481.25 2231.51Z" fill="black"/>
<path d="M1443.02 2304.23C1445.13 2305.53 1449.57 2304.09 1451.94 2301.5C1455.31 2297.82 1452.15 2294.39 1455.26 2289.57C1457.93 2285.45 1461.24 2286.39 1463.11 2282.68C1465.3 2278.3 1463.81 2270.82 1458.6 2269.1C1456.7 2268.56 1454.67 2268.64 1452.81 2269.31C1450.95 2269.98 1449.34 2271.22 1448.21 2272.84C1446.43 2276.01 1449.57 2277.84 1448.86 2282.85C1448.11 2288.12 1444.3 2288.46 1442.43 2295.1C1441.99 2296.65 1440.32 2302.55 1443.02 2304.23Z" fill="black"/>
<path d="M1464.67 2133.87C1465.52 2129.63 1467.51 2120.31 1463.37 2117.33C1461.39 2115.91 1459.58 2117.12 1453.36 2117.23C1443.36 2117.42 1440.1 2114.47 1437.49 2116.42C1433.81 2119.17 1436.4 2127.92 1438.1 2135.11C1440.31 2144.48 1450.19 2186.98 1436.02 2199.22C1432.59 2202.19 1426.81 2204.06 1425.45 2209.79C1425.14 2210.85 1425.05 2211.97 1425.21 2213.06C1425.37 2214.15 1425.77 2215.2 1426.37 2216.13C1428.12 2218.08 1430.58 2217.53 1435.05 2218.24C1442.83 2219.49 1444.34 2222.78 1447.32 2222.07C1452.36 2220.86 1453.66 2210.05 1454.88 2201.42C1460.77 2159.62 1463.69 2138.71 1464.67 2133.87Z" fill="black"/>
<path d="M1465.67 2121.71C1464.45 2122.16 1463.18 2122.51 1461.9 2122.74C1455.67 2123.95 1453.48 2122.47 1451.73 2123.18C1441.73 2127.22 1463.87 2196.58 1446.16 2207.79C1443.75 2209.32 1439.71 2210.3 1439.76 2212.32C1439.82 2214.67 1445.61 2217.79 1451.13 2218.33C1450.81 2219.2 1450.3 2219.98 1449.64 2220.62C1448.98 2221.27 1448.18 2221.75 1447.31 2222.05C1444.35 2222.76 1442.82 2219.48 1435.06 2218.22C1430.58 2217.51 1428.12 2218.06 1426.37 2216.15C1425.77 2215.22 1425.38 2214.17 1425.22 2213.08C1425.06 2211.98 1425.13 2210.87 1425.44 2209.81C1426.81 2204.07 1432.6 2202.21 1436.05 2199.2C1450.2 2186.96 1440.31 2144.49 1438.12 2135.09C1436.37 2127.93 1433.81 2119.19 1437.47 2116.4C1440.09 2114.49 1443.37 2117.44 1453.37 2117.22C1459.6 2117.11 1461.41 2115.91 1463.37 2117.33C1464.03 2117.87 1464.58 2118.53 1464.97 2119.28C1465.37 2120.03 1465.6 2120.86 1465.67 2121.71Z" fill="black"/>
<path d="M1414.38 2287C1415.42 2288.86 1417.42 2288.26 1421.93 2291.52C1425.21 2293.88 1425.92 2295.46 1427.69 2295.39C1430.24 2295.29 1432.05 2291.87 1432.69 2290.62C1437.14 2281.93 1433.8 2272.25 1434.4 2262.43C1435.59 2242.99 1451.41 2235.93 1446.62 2226.5C1443.74 2220.82 1435.46 2218.36 1435.05 2218.24C1432.29 2217.45 1428.69 2216.42 1426.25 2218.08C1422.35 2220.74 1425.1 2227.73 1425.29 2239.96C1425.45 2251.32 1425.64 2263.71 1419.14 2274.84C1416.53 2279.31 1412.66 2283.9 1414.38 2287Z" fill="black"/>
<path d="M1446.21 2234.95C1444.92 2230.89 1442.25 2227.41 1438.67 2225.11C1437.9 2224.67 1434.62 2222.82 1432.82 2224.07C1430.36 2225.77 1432.33 2231.94 1433.09 2236.32C1436.26 2254.19 1422.6 2261.07 1424.57 2278.95C1425.13 2284.48 1426.9 2289.81 1429.76 2294.58C1429.17 2295.05 1428.44 2295.34 1427.68 2295.4C1425.93 2295.45 1425.22 2293.87 1421.94 2291.52C1421.89 2291.52 1421.83 2291.46 1421.78 2291.41C1421.33 2291.07 1420.85 2290.76 1420.36 2290.48C1416.92 2288.35 1415.33 2288.62 1414.4 2286.98C1412.65 2283.92 1416.53 2279.33 1419.16 2274.85C1425.66 2263.7 1425.44 2251.35 1425.28 2239.98C1425.11 2227.73 1422.33 2220.74 1426.26 2218.06C1428.67 2216.42 1432.27 2217.46 1435.06 2218.23C1435.44 2218.33 1443.75 2220.79 1446.59 2226.48C1447.25 2227.81 1447.55 2229.28 1447.49 2230.76C1447.42 2232.24 1446.98 2233.68 1446.21 2234.95Z" fill="black"/>
<path d="M1407.79 2328.28C1410.34 2328.34 1412.45 2323.26 1414.22 2318.99C1416.62 2313.22 1415.65 2312.72 1417.47 2309.59C1420.77 2303.88 1424.76 2304.19 1425.54 2300.18C1425.77 2298.24 1425.39 2296.27 1424.47 2294.53C1423.55 2292.8 1422.13 2291.39 1420.39 2290.49C1418.91 2289.65 1417.23 2289.23 1415.53 2289.28C1413.83 2289.33 1412.17 2289.85 1410.75 2290.78C1407.38 2293.41 1409.68 2297.27 1407.56 2306.59C1405.54 2315.52 1401.95 2318.48 1403.79 2323.72C1404.44 2325.57 1405.96 2328.25 1407.79 2328.28Z" fill="black"/>
<path d="M1423.52 2121.29C1425.24 2115.8 1428.14 2108.07 1424.75 2104.75C1423.64 2103.66 1422.47 2103.65 1414.88 2103.13C1403.24 2102.32 1401.96 2102.05 1400.38 2103.1C1396.31 2105.81 1396.78 2112.97 1397.07 2118.47C1398.83 2151.21 1399.71 2167.58 1395.43 2178.46C1392.75 2185.27 1388.29 2192.12 1390.72 2194.57C1392.51 2196.39 1395.92 2193.63 1402.55 2194.6C1410.03 2195.69 1412.59 2200.19 1415.32 2199.07C1418.95 2197.58 1417.56 2188.32 1417.28 2178.09C1417.03 2168.85 1416.35 2144.2 1423.52 2121.29Z" fill="black"/>
<path d="M1417.62 2194.12C1417.41 2196.69 1416.75 2198.49 1415.33 2199.1C1412.6 2200.19 1410.03 2195.71 1402.54 2194.61C1395.93 2193.63 1392.54 2196.36 1390.73 2194.56C1388.27 2192.1 1392.76 2185.27 1395.43 2178.44C1399.7 2167.56 1398.82 2151.22 1397.07 2118.48C1396.8 2112.96 1396.31 2105.8 1400.35 2103.12C1401.94 2102.03 1403.25 2102.3 1414.89 2103.12C1422.49 2103.67 1423.64 2103.67 1424.73 2104.76C1425.34 2105.48 1425.79 2106.32 1426.07 2107.22C1426.34 2108.12 1426.42 2109.07 1426.32 2110.01C1420.96 2107.33 1414.24 2106.24 1410.68 2109.19C1405.82 2113.23 1410.9 2121.98 1411.23 2136.63C1411.89 2163.74 1395.49 2175.32 1402.43 2186.2C1404.2 2188.58 1406.49 2190.52 1409.12 2191.9C1411.75 2193.27 1414.66 2194.03 1417.62 2194.12Z" fill="black"/>
<path d="M1382.42 2244.24C1383.93 2246.17 1386.4 2244.21 1390.75 2246.63C1396.53 2249.84 1397.34 2256.16 1399.59 2255.85C1401.02 2255.65 1401.91 2252.96 1402.7 2248.74C1403.63 2242.63 1403.99 2236.45 1403.77 2230.27C1404.75 2215.77 1418.11 2212.19 1415.67 2203.63C1414.59 2201.01 1412.78 2198.77 1410.45 2197.17C1408.13 2195.57 1405.38 2194.67 1402.56 2194.6C1402.01 2194.57 1394.74 2194.3 1391.26 2199.15C1387.73 2204.07 1392.24 2208.48 1391.66 2217.81C1390.77 2231.97 1379.2 2240.14 1382.42 2244.24Z" fill="black"/>
<path d="M1414.02 2210.96C1412.59 2207.52 1410 2204.7 1406.69 2202.98C1405.98 2202.65 1402.6 2201.06 1400.85 2202.48C1398.82 2204.07 1401.01 2207.95 1401.12 2213.14C1401.28 2225 1389.91 2230.03 1392.59 2237.63C1393.3 2239.65 1393.96 2238.99 1397.4 2243.53C1399.29 2245.95 1400.87 2248.59 1402.1 2251.4C1401.45 2254.08 1400.68 2255.72 1399.59 2255.83C1397.95 2256.05 1397.07 2252.77 1394.51 2249.76C1393.45 2248.5 1392.17 2247.45 1390.73 2246.65C1389.29 2245.8 1387.65 2245.33 1385.98 2245.28H1385.92C1384.34 2245.17 1383.25 2245.28 1382.43 2244.24C1379.2 2240.14 1390.79 2232 1391.66 2217.79C1392.26 2208.5 1387.73 2204.07 1391.23 2199.15C1392.64 2197.59 1394.4 2196.36 1396.36 2195.58C1398.32 2194.79 1400.43 2194.46 1402.54 2194.62C1405.37 2194.67 1408.12 2195.56 1410.45 2197.16C1412.78 2198.76 1414.59 2201.01 1415.66 2203.63C1416 2204.9 1416.02 2206.22 1415.74 2207.5C1415.45 2208.77 1414.86 2209.96 1414.02 2210.96Z" fill="black"/>
<path d="M1369.33 2282.66C1371.18 2284.4 1375.86 2283.4 1378.7 2280.87C1382.73 2277.26 1380.23 2273.03 1384.22 2268.11C1387.63 2263.92 1390.75 2265.42 1393.29 2261.56C1396.29 2257.02 1396.2 2248.53 1391.36 2245.91C1389.48 2245.08 1387.38 2244.9 1385.39 2245.4C1383.39 2245.89 1381.62 2247.03 1380.34 2248.64C1377.99 2251.89 1380.76 2254.35 1379.12 2259.79C1377.39 2265.53 1373.55 2265.39 1370.45 2272.47C1369.72 2274.13 1366.96 2280.44 1369.33 2282.66Z" fill="black"/>
<path d="M1368.33 2209.81C1368.45 2211.44 1368.11 2213.07 1367.34 2214.51C1365.32 2210.85 1362.75 2208.44 1361.66 2208.88C1360.51 2209.32 1362.2 2212.81 1361.11 2218.17C1359.58 2225.77 1354.55 2227.02 1354.44 2232.6C1354.47 2235.34 1355.41 2238 1357.12 2240.14C1356.61 2240.88 1355.9 2241.46 1355.09 2241.84C1354.27 2242.21 1353.37 2242.36 1352.48 2242.27C1349.85 2241.56 1348.49 2236.59 1349.58 2232.87C1350.45 2229.98 1352.26 2229.92 1354.22 2226.42C1355.86 2223.28 1356.57 2219.74 1356.3 2216.2C1355.92 2209.59 1352.37 2207.18 1354.01 2204.4C1354.45 2203.75 1355.03 2203.2 1355.71 2202.8C1356.39 2202.41 1357.16 2202.17 1357.94 2202.1C1358.77 2201.96 1359.62 2201.92 1360.46 2201.99C1362.37 2202.28 1364.14 2203.15 1365.53 2204.5C1366.92 2205.84 1367.86 2207.58 1368.22 2209.48C1368.28 2209.58 1368.31 2209.69 1368.33 2209.81Z" fill="black"/>
<path d="M1464.09 2278.56C1464.05 2279.98 1463.72 2281.38 1463.1 2282.66C1463.01 2282.86 1462.88 2283.05 1462.72 2283.21C1462.54 2281.5 1461.98 2279.86 1461.08 2278.4C1460.31 2277.14 1458.78 2275.17 1457.8 2275.5C1456.71 2275.89 1457.69 2278.67 1456.76 2282.39C1455.89 2285.78 1454.36 2286.32 1450.15 2292.77C1447.42 2297.04 1446.05 2299.17 1446.49 2300.43C1446.84 2301.1 1447.33 2301.69 1447.94 2302.16C1448.54 2302.62 1449.24 2302.94 1449.99 2303.1C1449.01 2303.85 1447.87 2304.34 1446.66 2304.54C1445.45 2304.74 1444.21 2304.64 1443.04 2304.25C1440.31 2302.56 1442.01 2296.65 1442.44 2295.07C1444.3 2288.46 1448.13 2288.13 1448.84 2282.83C1449.55 2277.85 1446.43 2275.99 1448.24 2272.82C1448.99 2271.7 1449.98 2270.75 1451.15 2270.05C1452.31 2269.35 1453.61 2268.92 1454.96 2268.78C1455.36 2268.73 1455.76 2268.72 1456.16 2268.73C1456.39 2268.79 1456.63 2268.83 1456.87 2268.83C1457.47 2268.84 1458.05 2268.93 1458.62 2269.11C1460.41 2269.91 1461.9 2271.26 1462.88 2272.95C1463.86 2274.65 1464.28 2276.61 1464.09 2278.56Z" fill="black"/>
<path d="M1425.55 2300.21C1425.5 2300.43 1425.43 2300.65 1425.33 2300.86C1422.65 2297.26 1419.16 2294.96 1417.35 2295.73C1415.33 2296.66 1417.19 2300.7 1414.73 2307.2C1412 2314.36 1407.4 2315.35 1407.79 2319.23C1408.21 2321.55 1409.52 2323.61 1411.45 2324.97C1410.35 2326.93 1409.15 2328.35 1407.79 2328.3C1405.98 2328.25 1404.45 2325.57 1403.8 2323.71C1401.94 2318.46 1405.55 2315.51 1407.57 2306.6C1409.7 2297.26 1407.4 2293.43 1410.74 2290.75C1412.17 2289.84 1413.82 2289.33 1415.51 2289.28C1417.21 2289.23 1418.88 2289.65 1420.36 2290.48C1420.85 2290.76 1421.33 2291.07 1421.78 2291.41C1421.83 2291.46 1421.89 2291.52 1421.94 2291.52C1423.24 2292.53 1424.25 2293.87 1424.89 2295.39C1425.52 2296.91 1425.75 2298.57 1425.55 2300.21Z" fill="black"/>
<path d="M1394.51 2259.05C1393.69 2255.39 1392.32 2252.71 1390.73 2252.55C1389.04 2252.44 1388.17 2255.39 1384.83 2260.85C1377.02 2273.7 1370.35 2275.88 1371.49 2280.04C1371.95 2281.41 1372.91 2282.56 1374.17 2283.26C1373.37 2283.56 1372.51 2283.66 1371.67 2283.56C1370.82 2283.45 1370.01 2283.15 1369.31 2282.66C1366.96 2280.42 1369.75 2274.14 1370.46 2272.5C1373.57 2265.39 1377.4 2265.56 1379.09 2259.82C1380.73 2254.35 1378 2251.89 1380.35 2248.61C1381.73 2246.85 1383.72 2245.66 1385.92 2245.28H1385.98C1387.79 2244.85 1389.68 2245.09 1391.34 2245.93C1392.82 2246.79 1393.94 2248.15 1394.51 2249.76C1395.6 2252.76 1395.6 2256.05 1394.51 2259.05Z" fill="black"/>
</svg>
