<svg width="1545" height="3929" viewBox="0 0 1545 3929" fill="none" xmlns="http://www.w3.org/2000/svg">
<path d="M133.051 3797.5C134.711 3799.07 133.001 3800.32 134.983 3804.36C137.181 3808.84 140.716 3810.43 140.23 3812.65C139.853 3814.37 137.362 3815.03 136.895 3815.15C132.413 3816.33 129.392 3812.45 121.62 3810.17C120.954 3809.98 120.474 3809.85 120.117 3809.76C115.921 3808.39 111.526 3807.73 107.113 3807.8C102.042 3808.19 101.402 3810.3 98.7762 3809.1C96.595 3807.8 94.9631 3805.76 94.1877 3803.34C93.9393 3802.66 92.4101 3798.51 93.8807 3796.39C95.9589 3793.39 101.557 3798 111.119 3798.28C119.188 3798.51 131.242 3795.78 133.051 3797.5Z" fill="black"/>
<path d="M89.6334 3796.1C92.6911 3796.91 94.9283 3806.13 91.593 3809.43C89.7091 3811.3 87.883 3810.24 81.8404 3812.07C76.0376 3813.83 74.3792 3815.83 71.9382 3816.17C71.3763 3816.26 70.8025 3816.26 70.2435 3816.15C67.7546 3815.64 65.3117 3812.97 65.5947 3811.17C66.0158 3808.49 72.14 3809.85 79.0946 3805.47C85.9385 3801.15 87.0395 3795.41 89.6334 3796.1Z" fill="black"/>
<path d="M140.214 3812.66C139.832 3814.35 137.372 3815.01 136.88 3815.17C132.398 3816.32 129.392 3812.44 121.63 3810.15C120.974 3809.98 120.482 3809.87 120.1 3809.76C115.905 3808.38 111.507 3807.72 107.091 3807.79C102.063 3808.18 101.407 3810.31 98.7835 3809.11C96.6068 3807.79 94.977 3805.73 94.1921 3803.31C93.919 3802.66 92.3882 3798.5 93.8643 3796.37C94.011 3796.1 94.2415 3795.89 94.5202 3795.77C94.7718 3797.19 95.3024 3798.54 96.0811 3799.75C96.8599 3800.96 97.8714 3802 99.0569 3802.82C101.899 3804.35 103.703 3802.17 111.409 3801.45C122.232 3800.36 126.987 3803.86 129.829 3800.85C130.761 3799.78 131.267 3798.4 131.251 3796.97C131.897 3796.94 132.533 3797.14 133.054 3797.52C133.343 3797.77 133.568 3798.09 133.71 3798.45V3798.5C133.854 3799.06 133.909 3799.63 133.874 3800.2V3800.31C133.874 3800.36 133.874 3800.36 133.929 3800.42C133.951 3801.79 134.307 3803.14 134.967 3804.35C137.208 3808.83 140.706 3810.42 140.214 3812.66Z" fill="black"/>
<path d="M91.5687 3809.43C89.7101 3811.29 87.9066 3810.25 81.8394 3812.06C76.0457 3813.81 74.4061 3815.83 71.9463 3816.16C71.3872 3816.27 70.811 3816.27 70.2519 3816.16C69.1609 3815.92 68.1567 3815.38 67.3475 3814.61C66.5384 3813.84 65.9552 3812.86 65.6608 3811.78C67.5424 3812.82 69.7085 3813.22 71.8371 3812.93C74.1874 3812.49 74.2966 3811.02 80.2542 3806.81C86.3214 3802.49 88.0705 3802.77 89.4368 3800.31C90.0673 3799.17 90.423 3797.89 90.4755 3796.59C93.0989 3798.56 94.5746 3806.43 91.5687 3809.43Z" fill="black"/>
<path d="M129.266 3805.41C129.447 3805.83 129.104 3805.97 129.117 3807.41C129.152 3809.23 129.691 3811 130.675 3812.53C131.384 3813.49 132.206 3814.36 133.123 3815.12C136.865 3818.71 137.522 3819.05 137.489 3819.78C137.417 3821.38 134.185 3822.86 131.194 3823.28C126.408 3823.95 124.578 3821.58 118.465 3819.78C112.377 3817.61 105.784 3817.28 99.5121 3818.84C95.4095 3820.08 92.9824 3821.91 89.9821 3820.49C87.5904 3818.97 85.8834 3816.58 85.2225 3813.83C84.9919 3813.04 83.5729 3808.22 85.3962 3805.71C87.3626 3803.01 94.5764 3807.14 104.758 3807.66C117.308 3808.3 128.232 3803.01 129.266 3805.41Z" fill="black"/>
<path d="M81.3635 3808.66C84.6573 3809.51 87.062 3818.77 83.4673 3822.03C81.4367 3823.87 79.4696 3822.78 72.959 3824.53C66.7076 3826.2 64.9183 3828.18 62.2885 3828.48C61.6814 3828.57 61.0646 3828.55 60.4629 3828.43C57.7816 3827.89 55.1508 3825.18 55.4572 3823.39C55.9123 3820.71 62.5094 3822.16 70.0046 3817.88C77.3801 3813.66 78.5695 3807.93 81.3635 3808.66Z" fill="black"/>
<path d="M137.481 3819.76C137.427 3821.4 134.202 3822.88 131.197 3823.26C126.387 3823.97 124.583 3821.57 118.462 3819.76C112.367 3817.6 105.773 3817.28 99.4957 3818.83C95.3963 3820.09 92.9913 3821.89 89.9848 3820.47C88.7924 3819.73 87.7586 3818.76 86.9426 3817.61C86.1266 3816.47 85.5445 3815.18 85.2298 3813.81C84.5962 3811.83 84.3912 3809.74 84.6286 3807.68C86.5056 3810.69 89.3639 3812.95 92.7179 3814.08C97.4188 3815.23 100.37 3811.51 109.607 3812.33C118.517 3813.15 121.085 3817.09 124.092 3815.45C126.497 3814.13 127.809 3810.03 127.863 3804.73C128.628 3804.79 129.065 3805.01 129.284 3805.39C129.448 3805.83 129.12 3805.99 129.12 3807.41C129.163 3809.23 129.691 3811 130.651 3812.55C131.398 3813.47 132.221 3814.33 133.11 3815.12C136.88 3818.72 137.535 3819.05 137.481 3819.76Z" fill="black"/>
<path d="M83.4794 3822.06C81.4566 3823.86 79.4891 3822.77 72.9847 3824.52C66.7009 3826.21 64.8954 3828.18 62.272 3828.51C61.6709 3828.57 61.0646 3828.55 60.4682 3828.45C57.7901 3827.91 55.1661 3825.17 55.4398 3823.37C55.5487 3822.72 56.0958 3822.28 56.9152 3822C57.9911 3823.45 59.5376 3824.47 61.288 3824.9C62.6546 3825.18 65.1691 3824.08 70.0883 3821.79C75.8821 3819.11 78.7788 3817.8 79.5989 3816.48C80.8294 3814.07 81.1214 3811.29 80.4184 3808.67C80.7186 3808.56 81.0479 3808.56 81.348 3808.67C84.6817 3809.49 87.0867 3818.78 83.4794 3822.06Z" fill="black"/>
<path d="M100.994 3827.75C102.819 3829.51 100.78 3831.06 102.84 3835.7C105.123 3840.84 109.106 3842.54 108.425 3845.16C107.896 3847.19 104.992 3848.08 104.447 3848.25C99.2199 3849.84 95.9552 3845.43 87.131 3843.14C86.3743 3842.94 85.8288 3842.82 85.423 3842.72C80.6007 3841.31 75.5707 3840.75 70.5555 3841.05C64.6928 3841.76 63.8406 3844.26 60.8836 3842.97C58.4313 3841.54 56.6462 3839.19 55.9177 3836.44C55.669 3835.66 54.1363 3830.87 55.9482 3828.31C58.5071 3824.7 64.6999 3829.84 75.6947 3829.71C84.9727 3829.6 99.0058 3825.83 100.994 3827.75Z" fill="black"/>
<path d="M50.7137 3833.18C54.2917 3833.82 57.6111 3842.92 54.05 3846.4C52.0379 3848.37 49.8531 3847.4 43.0611 3849.56C36.5388 3851.63 34.7959 3853.72 32.0196 3854.19C31.3776 3854.32 30.7204 3854.34 30.0713 3854.26C27.171 3853.89 24.1477 3851.35 24.3265 3849.54C24.5921 3846.84 31.7375 3847.86 39.3704 3843.11C46.8803 3838.43 47.6784 3832.63 50.7137 3833.18Z" fill="black"/>
<path d="M108.403 3845.18C107.911 3847.2 105.014 3848.07 104.468 3848.24C99.2204 3849.82 95.9412 3845.45 87.1412 3843.16C86.3761 3842.94 85.8297 3842.83 85.4468 3842.72C80.6192 3841.34 75.5922 3840.78 70.5794 3841.08C64.6768 3841.73 63.8566 3844.25 60.9052 3842.99C59.6854 3842.28 58.6181 3841.33 57.7646 3840.21C56.9111 3839.08 56.2881 3837.8 55.9312 3836.43C55.1867 3834.41 54.9429 3832.23 55.2206 3830.09C56.485 3832.96 58.7894 3835.25 61.6702 3836.49C66.5347 3838.13 69.1584 3833.26 78.5595 3833.05C87.5785 3832.83 89.9288 3837.09 95.121 3835.78C97.7389 3834.97 100.072 3833.44 101.844 3831.35C101.863 3832.86 102.198 3834.35 102.828 3835.72C105.124 3840.86 109.114 3842.56 108.403 3845.18Z" fill="black"/>
<path d="M54.0731 3846.38C52.0509 3848.35 49.8642 3847.42 43.0867 3849.55C36.5279 3851.63 34.7788 3853.7 31.9912 3854.2C31.3597 3854.31 30.7151 3854.33 30.0782 3854.25C27.1812 3853.87 24.1202 3851.35 24.3392 3849.55C24.5031 3848.24 26.1427 3847.8 28.712 3847.15C29.5104 3848.32 30.6867 3849.19 32.046 3849.61C32.8114 3849.77 33.7406 3849.77 40.682 3846.16C45.9293 3843.37 48.6077 3841.95 49.2633 3840.64C50.2363 3838.32 50.2754 3835.72 49.3725 3833.37C49.7869 3833.14 50.2721 3833.06 50.7391 3833.15C54.2901 3833.81 57.6264 3842.94 54.0731 3846.38Z" fill="black"/>
<path d="M84.8321 3860.56C86.7788 3862.42 84.6161 3864.02 86.8206 3868.88C89.2651 3874.28 93.5054 3876.09 92.7906 3878.82C92.2344 3880.94 89.1482 3881.84 88.57 3882.01C83.0176 3883.62 79.5329 3878.98 70.1396 3876.5C69.3343 3876.28 68.7539 3876.15 68.3221 3876.05C63.1959 3874.52 57.8486 3873.88 52.5079 3874.15C46.2768 3874.82 45.3777 3877.43 42.2289 3876.06C39.6286 3874.55 37.7246 3872.08 36.9275 3869.18C36.6603 3868.37 35.0164 3863.35 36.9333 3860.69C39.6428 3856.94 46.2444 3862.38 57.9353 3862.35C67.8022 3862.33 82.7118 3858.53 84.8321 3860.56Z" fill="black"/>
<path d="M30.4852 3864.57C34.3676 3865.27 38.0058 3874.8 34.1581 3878.41C31.9849 3880.45 29.612 3879.41 22.257 3881.61C15.1938 3883.71 13.3132 3885.88 10.3047 3886.35C9.6071 3886.47 8.89507 3886.49 8.19219 3886.4C5.04606 3885.99 1.75708 3883.31 1.943 3881.41C2.21962 3878.6 9.97142 3879.73 18.2269 3874.84C26.3515 3870.02 27.1917 3863.97 30.4852 3864.57Z" fill="black"/>
<path d="M92.7707 3878.84C92.2243 3880.92 89.1633 3881.85 88.5621 3882.02C83.0417 3883.6 79.5435 3879.01 70.1424 3876.49C69.3222 3876.28 68.7758 3876.17 68.3385 3876.06C63.2016 3874.53 57.8416 3873.88 52.4877 3874.14C46.2566 3874.8 45.3821 3877.42 42.212 3876.06C39.602 3874.56 37.6951 3872.08 36.9103 3869.17C36.6369 3868.35 34.9969 3863.32 36.9103 3860.7C38.0579 3859.11 39.9712 3859.17 42.6493 3859.77C42.3957 3861.01 42.4264 3862.28 42.7389 3863.5C43.0514 3864.72 43.6376 3865.86 44.4531 3866.82C47.6776 3869.61 52.4861 3864.25 63.4193 3865.13C71.7273 3865.73 75.4441 3869.34 77.9039 3867.15C78.6482 3866.15 79.1287 3864.98 79.3006 3863.75C79.4726 3862.52 79.3305 3861.26 78.8876 3860.1C81.8938 3859.83 84.1349 3859.83 84.8453 3860.54C86.7583 3862.39 84.6266 3864.03 86.813 3868.9C89.2725 3874.31 93.4814 3876.11 92.7707 3878.84Z" fill="black"/>
<path d="M34.1776 3878.41C31.9912 3880.43 29.5862 3879.39 22.2623 3881.63C15.2111 3883.71 13.2981 3885.9 10.2919 3886.33C9.60807 3886.47 8.90519 3886.49 8.21499 3886.39C5.04488 3886.01 1.7653 3883.33 1.92919 3881.41C1.95118 3881.18 2.03329 3880.96 2.16746 3880.77C2.30163 3880.57 2.48327 3880.42 2.6946 3880.32C4.14618 3881.61 5.95759 3882.43 7.88719 3882.67C10.7839 3883 11.6585 3881.41 18.9276 3877.86C27.1264 3873.87 29.2033 3874.31 30.2969 3872.01C30.7502 3870.8 30.9407 3869.51 30.8559 3868.22C30.7711 3866.93 30.4128 3865.67 29.8048 3864.53C30.0249 3864.52 30.2452 3864.53 30.4608 3864.58C34.3412 3865.29 38.0036 3874.8 34.1776 3878.41Z" fill="black"/>
<path d="M97.8216 3900.84C99.6874 3903.22 97.5949 3904.48 100.05 3909.55C102.774 3915.16 107.473 3916.97 106.69 3919.85C106.082 3922.1 102.669 3923.11 102.03 3923.3C95.8889 3925.13 92.0149 3920.34 81.6129 3917.94C74.4465 3916.21 66.9766 3916.13 59.7778 3917.73C52.2337 3919.61 47.9956 3923.15 45.6609 3921.57C43.7579 3920.28 45.9242 3917.48 44.8281 3911.04C43.8564 3905.33 41.5356 3903.9 42.6353 3902.27C44.7646 3899.12 54.088 3903.94 68.0579 3903.36C88.2456 3902.52 94.532 3896.65 97.8216 3900.84Z" fill="black"/>
<path d="M36.0977 3903.08C41.8309 3903.79 46.6681 3912.74 42.4787 3917.25C40.2612 3919.64 37.3441 3918.81 29.1232 3921.94C19.5637 3925.58 18.8553 3928.46 13.4936 3928.55C7.58294 3928.65 0.943432 3925.27 1.02765 3922.46C1.11025 3919.71 7.56026 3919.31 17.0395 3914.61C29.8728 3908.26 31.2481 3902.47 36.0977 3903.08Z" fill="black"/>
<path d="M106.709 3919.84C106.107 3922.08 102.664 3923.12 102.008 3923.28C95.8864 3925.14 92.006 3920.33 81.6208 3917.92C74.4385 3916.22 66.964 3916.16 59.7569 3917.76C52.2141 3919.62 48.0055 3923.17 45.6552 3921.58C43.7422 3920.27 45.9283 3917.49 44.8354 3911.04C43.8517 3905.3 41.5558 3903.88 42.649 3902.29C43.0476 3901.85 43.5536 3901.51 44.1184 3901.32C44.6832 3901.13 45.2877 3901.09 45.8739 3901.2C46.4438 3903.19 47.4044 3905.04 48.6994 3906.66C49.9945 3908.27 51.5981 3909.61 53.4167 3910.6C58.0626 3912.73 60.5223 3909.29 73.0936 3908.19C83.4788 3907.32 86.3755 3909.29 90.311 3906.45C92.6626 3904.66 94.4162 3902.2 95.3393 3899.4C95.8261 3899.45 96.2967 3899.6 96.7205 3899.84C97.1443 3900.09 97.5118 3900.42 97.7991 3900.82C99.7121 3903.22 97.5802 3904.48 100.04 3909.56C102.773 3915.19 107.474 3916.94 106.709 3919.84Z" fill="black"/>
<path d="M42.4857 3917.27C40.2446 3919.62 37.3478 3918.8 29.1494 3921.97C19.584 3925.58 18.8733 3928.47 13.5168 3928.53C7.55918 3928.64 0.945597 3925.25 1.00034 3922.46C1.00001 3922.25 1.04372 3922.05 1.12856 3921.86C1.21339 3921.67 1.33742 3921.5 1.49236 3921.37C4.0555 3922.86 7.00271 3923.56 9.96421 3923.39C13.8994 3922.95 14.2275 3920.55 23.0825 3916.12C30.6254 3912.35 34.0141 3912.24 34.4518 3909.94C34.4403 3908.88 34.1705 3907.84 33.6658 3906.91C33.1611 3905.97 32.4366 3905.18 31.555 3904.59C32.1604 3904.03 32.8776 3903.6 33.6594 3903.34C34.4413 3903.07 35.2701 3902.98 36.0914 3903.06C41.8294 3903.77 46.6942 3912.73 42.4857 3917.27Z" fill="black"/>
</svg>
