<svg width="1545" height="3929" viewBox="0 0 1545 3929" fill="none" xmlns="http://www.w3.org/2000/svg">
<path d="M1169.77 3816.63C1170.75 3818.37 1177.04 3816.12 1186.99 3816.42C1201.34 3816.85 1206.25 3822.07 1213.47 3819.12C1216.28 3817.91 1218.68 3815.91 1220.38 3813.36C1220.96 3812.46 1224.08 3807.83 1222.09 3806.26C1219.79 3804.45 1213.64 3809.04 1202.02 3809.1C1198.95 3809.3 1195.87 3808.83 1193 3807.72C1189.52 3806.14 1189.48 3804.34 1187.02 3804.02C1184.28 3803.67 1181.78 3805.72 1176.61 3809.61C1172.01 3813.08 1169.02 3815.33 1169.77 3816.63Z" fill="black"/>
<path d="M1227.54 3807.74C1230.38 3807.54 1230.34 3811.86 1236.46 3815C1242.34 3818.02 1248 3816.91 1248.97 3819.46C1249.14 3820.23 1249.04 3821.03 1248.68 3821.73C1248.32 3822.42 1247.72 3822.97 1247 3823.28C1244.15 3824.63 1241.11 3821.48 1232.45 3819.68C1226.48 3818.44 1224.31 3819.18 1222.9 3817.61C1220.27 3814.69 1224.07 3807.98 1227.54 3807.74Z" fill="black"/>
<path d="M1220.36 3813.37C1218.69 3815.92 1216.29 3817.92 1213.48 3819.11C1206.26 3822.06 1201.34 3816.87 1186.97 3816.43C1177.02 3816.11 1170.73 3818.35 1169.75 3816.65C1169.04 3815.34 1171.99 3813.1 1176.58 3809.6C1181.78 3805.72 1184.29 3803.7 1187.02 3804.03C1187.11 3804.04 1187.21 3804.06 1187.3 3804.08C1186.85 3804.76 1186.69 3805.58 1186.86 3806.38C1187.4 3808.02 1190.19 3807.96 1196.53 3809.44C1205.77 3811.62 1206.04 3813.15 1209.54 3813.04C1214.46 3812.56 1219.01 3810.19 1222.22 3806.43C1223.92 3808.13 1220.96 3812.44 1220.36 3813.37Z" fill="black"/>
<path d="M1246.98 3823.27C1244.14 3824.63 1241.13 3821.46 1232.44 3819.66C1226.49 3818.46 1224.3 3819.17 1222.88 3817.64C1220.25 3814.68 1224.08 3807.96 1227.52 3807.74C1227.98 3807.69 1228.44 3807.79 1228.84 3808.02C1227.95 3808.65 1227.33 3809.58 1227.09 3810.64C1226.76 3813.21 1229.76 3815.56 1230.91 3816.49C1233.4 3818.33 1236.35 3819.43 1239.44 3819.66C1242.59 3819.98 1245.77 3819.87 1248.9 3819.33C1248.9 3819.38 1248.95 3819.38 1248.95 3819.44C1249.12 3820.21 1249.02 3821.01 1248.66 3821.71C1248.3 3822.41 1247.71 3822.96 1246.98 3823.27Z" fill="black"/>
<path d="M1176.72 3822.23C1177.69 3824.01 1184.59 3822.05 1195.3 3822.8C1210.73 3823.89 1215.76 3829.33 1223.69 3826.7C1226.74 3825.66 1229.43 3823.78 1231.43 3821.26C1232.11 3820.4 1235.7 3815.91 1233.64 3814.25C1231.25 3812.34 1224.39 3816.64 1211.86 3816.18C1208.56 3816.24 1205.27 3815.63 1202.2 3814.39C1198.53 3812.65 1198.59 3810.85 1195.95 3810.42C1193.01 3809.95 1190.21 3811.88 1184.45 3815.54C1179.31 3818.79 1175.98 3820.9 1176.72 3822.23Z" fill="black"/>
<path d="M1239.43 3815.97C1242.51 3815.9 1242.24 3820.22 1248.68 3823.63C1254.87 3826.92 1261.03 3826.06 1261.94 3828.66C1262.07 3829.45 1261.91 3830.27 1261.49 3830.95C1261.06 3831.64 1260.4 3832.15 1259.63 3832.38C1256.49 3833.6 1253.37 3830.31 1244.12 3828.12C1237.75 3826.61 1235.38 3827.26 1233.93 3825.62C1231.25 3822.58 1235.68 3816.06 1239.43 3815.97Z" fill="black"/>
<path d="M1234.25 3816.16C1233.69 3818.03 1232.74 3819.76 1231.46 3821.24C1229.44 3823.76 1226.75 3825.66 1223.7 3826.71C1215.77 3829.33 1210.74 3823.87 1195.28 3822.83C1184.56 3822.06 1177.68 3824.03 1176.69 3822.23C1175.98 3820.91 1179.32 3818.78 1184.45 3815.56C1189.21 3812.5 1192.05 3810.64 1194.51 3810.42C1191.67 3812.72 1190.14 3814.74 1190.57 3815.94C1191.34 3817.91 1196.91 3815.89 1207.9 3818.4C1215.44 3820.15 1216.15 3821.9 1219.93 3822.12C1225.26 3821.93 1230.35 3819.81 1234.25 3816.16Z" fill="black"/>
<path d="M1262.01 3829.71C1261.86 3830.32 1261.56 3830.88 1261.14 3831.35C1260.72 3831.81 1260.19 3832.17 1259.61 3832.39C1256.49 3833.59 1253.38 3830.32 1244.14 3828.13C1237.74 3826.6 1235.39 3827.25 1233.92 3825.61C1231.4 3822.77 1235.23 3816.76 1238.84 3816.1C1238.47 3816.56 1238.21 3817.09 1238.08 3817.66C1237.95 3818.22 1237.95 3818.82 1238.07 3819.38C1238.51 3820.81 1241.19 3821.84 1246.6 3823.97C1249.55 3825.12 1249.55 3824.96 1251.14 3825.67C1255.73 3827.86 1256.22 3829.77 1258.46 3830.21C1259.67 3830.36 1260.89 3830.19 1262.01 3829.71Z" fill="black"/>
<path d="M1162.6 3881.86C1163.76 3884.79 1171.82 3881.59 1184.37 3882.87C1202.45 3884.71 1208.36 3893.66 1217.64 3889.38C1221.47 3887.38 1224.62 3884.27 1226.68 3880.47C1227.47 3879.05 1231.66 3871.69 1229.23 3868.95C1226.43 3865.8 1218.41 3872.85 1203.74 3872.04C1199.77 3872.09 1195.86 3871.06 1192.42 3869.07C1188.12 3866.2 1188.17 3863.23 1185.09 3862.53C1181.64 3861.73 1178.37 3864.9 1171.63 3870.88C1165.63 3876.21 1161.74 3879.66 1162.6 3881.86Z" fill="black"/>
<path d="M1229.93 3870.87C1229.63 3874.28 1228.52 3877.58 1226.7 3880.49C1224.6 3884.27 1221.45 3887.37 1217.63 3889.4C1208.34 3893.66 1202.44 3884.7 1184.34 3882.89C1171.83 3881.58 1163.74 3884.81 1162.59 3881.85C1161.72 3879.67 1165.65 3876.22 1171.61 3870.87C1176.91 3866.22 1180.08 3863.27 1182.87 3862.56C1180.41 3867.15 1179.48 3870.65 1180.68 3872.34C1182.16 3874.37 1185.82 3872.51 1197.79 3874.86C1209.71 3877.21 1212.6 3880.32 1216.65 3880.32C1221.02 3880.27 1225.61 3876.61 1229.93 3870.87Z" fill="black"/>
<path d="M1236.03 3871.81C1239.63 3871.7 1239.34 3878.79 1246.88 3884.43C1254.15 3889.85 1261.36 3888.47 1262.43 3892.74C1262.65 3893.91 1262.51 3895.12 1262.03 3896.21C1261.55 3897.3 1260.75 3898.22 1259.74 3898.84C1256.07 3900.84 1252.41 3895.43 1241.56 3891.79C1234.1 3889.28 1231.32 3890.34 1229.62 3887.65C1226.47 3882.64 1231.63 3871.93 1236.03 3871.81Z" fill="black"/>
<path d="M1262.56 3893.6C1262.59 3894.65 1262.35 3895.69 1261.85 3896.61C1261.35 3897.54 1260.61 3898.31 1259.72 3898.85C1256.06 3900.82 1252.39 3895.41 1241.57 3891.8C1234.08 3889.29 1231.3 3890.33 1229.6 3887.65C1226.49 3882.62 1231.62 3871.91 1236.05 3871.8C1237.42 3871.74 1238.24 3872.84 1239.17 3874.48C1237.95 3874.73 1236.88 3875.44 1236.16 3876.44C1235.6 3877.41 1235.31 3878.51 1235.33 3879.63C1235.35 3880.75 1235.68 3881.84 1236.27 3882.78C1237.91 3885.46 1240.97 3885.02 1245.67 3886.83C1252.83 3889.62 1252.83 3893.28 1257.15 3894.1C1258.96 3894.39 1260.83 3894.22 1262.56 3893.6Z" fill="black"/>
<path d="M1180.16 3837.93C1181.1 3839.76 1188.35 3838.1 1199.45 3839.33C1215.46 3841.11 1220.45 3846.77 1228.81 3844.5C1232 3843.62 1234.87 3841.85 1237.1 3839.41C1237.84 3838.57 1241.77 3834.25 1239.69 3832.5C1237.29 3830.48 1229.97 3834.48 1216.97 3833.46C1213.53 3833.37 1210.15 3832.62 1207 3831.24C1203.26 3829.34 1203.39 3827.54 1200.67 3826.99C1197.64 3826.39 1194.64 3828.19 1188.49 3831.59C1183.01 3834.61 1179.46 3836.57 1180.16 3837.93Z" fill="black"/>
<path d="M1245.64 3834.48C1248.84 3834.55 1248.38 3838.85 1254.92 3842.55C1261.22 3846.11 1267.66 3845.53 1268.49 3848.16C1268.92 3849.51 1267.72 3851.19 1265.93 3851.78C1262.61 3852.86 1259.51 3849.43 1249.99 3846.83C1243.43 3845.04 1240.93 3845.58 1239.51 3843.88C1236.85 3840.72 1241.74 3834.4 1245.64 3834.48Z" fill="black"/>
<path d="M1237.09 3839.39C1234.88 3841.85 1232.02 3843.64 1228.84 3844.53C1220.47 3846.77 1215.44 3841.08 1199.43 3839.33C1188.33 3838.08 1181.12 3839.77 1180.14 3837.91C1179.48 3836.55 1183.03 3834.63 1188.5 3831.57C1191.11 3829.98 1193.86 3828.61 1196.7 3827.47C1193.75 3830.32 1192.32 3832.72 1193.09 3834.09C1194.35 3836.38 1199.92 3832.77 1211.62 3835.23C1221.78 3837.42 1223.32 3841.41 1228.29 3841.03C1230.7 3840.55 1232.99 3839.58 1235.02 3838.19C1237.05 3836.8 1238.78 3835.01 1240.1 3832.94C1241.24 3834.85 1237.8 3838.62 1237.09 3839.39Z" fill="black"/>
<path d="M1268.46 3849.23C1268.28 3849.82 1267.96 3850.37 1267.52 3850.82C1267.08 3851.26 1266.54 3851.6 1265.95 3851.79C1262.61 3852.83 1259.5 3849.44 1249.99 3846.82C1243.43 3845.02 1240.91 3845.56 1239.49 3843.87C1236.87 3840.75 1241.63 3834.52 1245.56 3834.47C1244.91 3835.26 1244.44 3836.18 1244.17 3837.17C1243.91 3838.16 1243.86 3839.2 1244.03 3840.21C1244.96 3842.17 1248.46 3840.64 1255.29 3843.98C1261.03 3846.77 1261.3 3849.17 1264.53 3849.66C1265.85 3849.81 1267.2 3849.66 1268.46 3849.23Z" fill="black"/>
<path d="M1177.6 3861.14C1178.65 3863.6 1186.07 3860.91 1197.61 3861.97C1214.25 3863.5 1219.68 3871.01 1228.21 3867.41C1231.67 3865.8 1234.57 3863.2 1236.54 3859.93C1237.26 3858.74 1241.13 3852.57 1238.9 3850.28C1236.32 3847.63 1228.94 3853.55 1215.45 3852.88C1211.82 3852.94 1208.24 3852.08 1205.04 3850.39C1201.08 3848 1201.13 3845.51 1198.29 3844.91C1195.12 3844.25 1192.11 3846.91 1185.91 3851.93C1180.38 3856.4 1176.8 3859.3 1177.6 3861.14Z" fill="black"/>
<path d="M1245.15 3852.66C1248.46 3852.57 1248.18 3858.52 1255.12 3863.24C1261.8 3867.78 1268.44 3866.62 1269.42 3870.2C1269.61 3871.2 1269.47 3872.25 1269.02 3873.17C1268.58 3874.09 1267.85 3874.84 1266.94 3875.32C1263.56 3877 1260.2 3872.46 1250.23 3869.42C1243.36 3867.32 1240.8 3868.21 1239.24 3865.95C1236.35 3861.76 1241.1 3852.77 1245.15 3852.66Z" fill="black"/>
<path d="M1236.54 3859.94C1234.56 3863.19 1231.68 3865.79 1228.23 3867.43C1219.65 3871.03 1214.24 3863.49 1197.62 3861.96C1186.09 3860.92 1178.66 3863.6 1177.62 3861.14C1176.8 3859.28 1180.41 3856.39 1185.93 3851.96C1188.36 3849.88 1190.89 3847.93 1193.53 3846.11C1191.5 3850.54 1190.85 3854.47 1192.05 3856.11C1193.91 3858.57 1199.26 3854.09 1209.65 3856.49C1217.79 3858.35 1220.14 3862.45 1225.06 3861.14C1227.25 3860.37 1229.18 3859.03 1230.68 3857.26C1232.18 3855.49 1233.18 3853.36 1233.59 3851.08C1233.65 3850.8 1233.69 3850.5 1233.7 3850.21C1236.21 3849.5 1237.91 3849.28 1238.89 3850.26C1241.13 3852.56 1237.25 3858.73 1236.54 3859.94Z" fill="black"/>
<path d="M1269.5 3870.76C1269.57 3871.69 1269.37 3872.61 1268.91 3873.42C1268.45 3874.23 1267.76 3874.88 1266.93 3875.3C1263.54 3876.99 1260.21 3872.45 1250.21 3869.39C1243.37 3867.32 1240.81 3868.19 1239.22 3865.95C1236.32 3861.74 1241.08 3852.78 1245.12 3852.67C1245.54 3852.66 1245.96 3852.76 1246.33 3852.95C1246.7 3853.14 1247.02 3853.42 1247.26 3853.76C1246.09 3854.27 1245.07 3855.08 1244.31 3856.11C1243.56 3857.13 1243.08 3858.34 1242.94 3859.61C1243.05 3860.67 1243.49 3861.66 1244.19 3862.45C1246.65 3865.29 1250.26 3863.71 1254.74 3865.13C1260.54 3866.99 1260.32 3871.36 1264.31 3871.96C1266.12 3872.1 1267.94 3871.68 1269.5 3870.76Z" fill="black"/>
</svg>
