<svg width="1545" height="3929" viewBox="0 0 1545 3929" fill="none" xmlns="http://www.w3.org/2000/svg">
<path d="M1008.95 917.723C1008.51 925.648 1013.54 928.927 1010.92 934.064C1009.06 937.835 1005.56 937.835 1001.35 940.842C997.907 943.356 995.283 946.963 990.583 963.195C985.062 982.16 982.329 991.67 983.368 998.337C985.226 1010.03 991.13 1013.75 988.56 1022.28C987.358 1026.43 983.696 1033.04 977.793 1033.43C975.629 1033.51 973.487 1032.96 971.638 1031.83C969.79 1030.7 968.318 1029.05 967.408 1027.09C965.932 1023.1 968.61 1019.87 966.643 1017.9C965.66 1017.18 964.473 1016.79 963.254 1016.79C962.035 1016.79 960.848 1017.18 959.865 1017.9C956.148 1020.53 958.827 1026.48 955.875 1028.67C952.869 1030.8 945.272 1028.45 941.609 1023.31C936.362 1015.88 943.468 1008.39 942.265 993.145C941.828 987.734 941.008 989.155 933.52 968.004C926.688 948.765 923.299 939.037 923.736 932.478C924.283 924.39 926.797 920.017 924.01 913.294C922.096 908.704 919.036 906.244 919.145 900.943C919.254 896.734 921.277 896.242 921.113 892.198C920.949 886.404 916.794 885.366 916.357 880.228C915.865 874.872 920.074 873.779 921.55 867.439C923.408 859.295 917.45 857.273 917.56 848.31C917.669 836.833 927.453 834.92 927.07 823.88C926.742 815.681 921.222 813.987 922.752 807.593C924.447 800.16 932.481 799.668 933.082 793.219C933.739 786.879 926.25 785.13 926.305 778.024C926.36 770.592 934.777 768.952 934.722 761.683C934.668 754.796 927.07 753.485 926.742 746.106C926.36 739.275 932.973 737.143 933.903 730.584C935.433 719.981 917.942 713.969 919.418 709.05L919.582 708.723C919.746 708.996 919.855 709.269 920.02 709.488C926.36 719.654 948.824 708.668 982.056 712.33C1000.75 714.407 1006.43 719.271 1013.98 714.407C1014.87 713.844 1015.71 713.204 1016.49 712.494C1015.55 714.886 1014.16 717.075 1012.39 718.943C1009.14 721.77 1006.8 725.498 1005.67 729.655C1005.56 730.147 1005.4 730.749 1005.29 731.568C1004.36 738.564 1008.62 740.805 1008.51 748.129C1008.4 755.671 1003.86 755.78 1002.94 764.087C1002.12 771.739 1005.83 772.942 1006.16 782.834C1006.43 791.524 1003.59 791.415 1003.76 799.613C1003.97 810.762 1009.28 811.254 1009.33 822.295C1009.33 830.055 1006.76 832.679 1008.84 838.745C1010.7 844.047 1013.1 843.391 1014.91 848.31C1017.42 855.142 1013.27 857.93 1013.7 869.844C1013.96 873.738 1014.49 877.61 1015.29 881.431C1017.26 891.925 1018.46 891.596 1018.51 895.368C1018.62 905.752 1009.44 907.174 1008.95 917.723Z" fill="#FFEECC" stroke="#282724" stroke-width="0.1687" stroke-miterlimit="10"/>
<path d="M1043.06 661.393C1037.47 668.475 1032.9 676.291 1029.45 684.621C1023.16 700.143 1021.57 707.74 1016.49 712.495C1016.34 712.67 1016.15 712.818 1015.95 712.933C1015.34 713.485 1014.68 713.978 1013.98 714.408C1006.43 719.272 1000.75 714.408 982.057 712.331C948.824 708.669 926.361 719.655 920.021 709.489C919.916 709.362 919.841 709.212 919.802 709.052C919.71 708.956 919.636 708.845 919.583 708.724C918.381 706.319 917.451 702.602 913.735 695.662C913.134 694.459 911.712 691.727 909.635 687.737C908.761 686.042 907.941 684.403 907.121 682.708C905.154 678.391 904.006 673.854 901.819 669.646C899.571 665.961 897.738 662.039 896.354 657.95C896.466 657.538 896.612 657.136 896.791 656.748C899.251 651.774 903.022 653.851 911.931 646.746C926.689 634.995 924.284 623.026 933.521 619.637C944.726 615.537 951.121 632.316 969.431 632.808C988.398 633.3 997.417 615.701 1008.13 620.839C1015.51 624.337 1011.57 632.863 1022.01 641.444C1030.32 648.275 1038.36 647.456 1041.63 655.162C1042.46 657.115 1042.85 659.221 1042.78 661.338C1042.84 661.339 1043 661.393 1043.06 661.393Z" fill="#FFEECC" stroke="#282724" stroke-width="0.1687" stroke-miterlimit="10"/>
<path opacity="0.05" d="M1042.78 661.341C1042.85 659.223 1042.45 657.117 1041.63 655.164C1040.87 653.517 1039.79 652.039 1038.44 650.815C1037.1 649.591 1035.53 648.646 1033.82 648.036C1035.38 650.885 1036.12 654.108 1035.97 657.352C1035.48 662.699 1031.31 666.758 1028.53 671.06C1026.25 674.793 1024.36 678.758 1022.9 682.887C1020.23 689.92 1017.93 697.524 1013.02 703.386C1010.63 706.127 1007.54 708.167 1004.09 709.284C1000.63 710.402 996.932 710.557 993.393 709.731C986.923 708.703 980.492 707.488 973.944 707.05C968.224 706.758 962.49 706.904 956.792 707.488C947.643 708.274 935.91 710.36 927.753 704.937C920.78 699.67 915.428 692.549 912.307 684.387C909.209 677.288 906.132 668.35 907.693 660.485C909.659 650.576 920.851 647.281 925.184 638.99C929.025 631.637 932.078 622.071 941.523 620.672C941.715 620.662 941.908 620.671 942.098 620.701C942.161 620.591 942.23 620.486 942.307 620.385C940.981 619.64 939.511 619.187 937.995 619.058C936.479 618.929 934.954 619.126 933.521 619.637C924.284 623.026 926.689 634.995 911.931 646.747C903.022 653.852 899.251 651.775 896.791 656.748C896.612 657.137 896.466 657.539 896.354 657.951C897.738 662.039 899.571 665.962 901.819 669.647C904.006 673.855 905.154 678.392 907.121 682.709C907.941 684.403 908.761 686.043 909.635 687.738C911.712 691.727 913.134 694.46 913.735 695.662C917.451 702.604 918.381 706.32 919.583 708.725C919.636 708.846 919.71 708.957 919.802 709.053C919.841 709.213 919.916 709.363 920.021 709.49C926.361 719.656 948.825 708.67 982.057 712.332C1000.75 714.409 1006.43 719.273 1013.98 714.409C1014.68 713.979 1015.34 713.485 1015.95 712.933C1016.15 712.818 1016.34 712.671 1016.49 712.496C1021.58 707.741 1023.16 700.144 1029.45 684.622C1032.9 676.292 1037.47 668.476 1043.06 661.394C1043 661.395 1042.84 661.341 1042.78 661.341Z" fill="#282724"/>
<path opacity="0.05" d="M929.093 923.514C928.546 923.405 930.842 916.737 928.054 909.304C926.872 906.454 925.208 903.829 923.135 901.543C925.173 902.751 926.936 904.371 928.31 906.301C929.684 908.231 930.64 910.426 931.115 912.747C931.546 914.584 931.589 916.49 931.241 918.344C930.893 920.198 930.161 921.959 929.093 923.514ZM942.484 948.928C941.319 944.164 939.42 939.609 936.854 935.429C934.878 932.802 932.761 930.284 930.513 927.886C933.915 929.239 936.803 931.63 938.767 934.718C941.791 938.799 943.122 943.89 942.484 948.928ZM954.071 953.683C948.387 952.099 944.233 953.465 944.124 952.863C944.014 952.208 949.316 949.42 954.672 950.841C956.613 951.332 958.406 952.284 959.9 953.616C961.394 954.949 962.544 956.622 963.254 958.493C960.394 956.532 957.312 954.917 954.071 953.683ZM980.089 954.667C974.786 957.892 972.819 961.936 971.999 961.444C971.234 961.062 971.671 957.509 973.748 954.995C975.415 953.355 977.49 952.192 979.759 951.624C982.027 951.057 984.406 951.108 986.648 951.771C986.648 952.208 983.969 952.372 980.088 954.667H980.089ZM998.508 928.543C991.731 933.68 991.348 942.643 990.747 942.643C990.195 940.115 990.308 937.488 991.074 935.016C991.841 932.545 993.235 930.315 995.12 928.543C997.218 926.744 999.9 925.772 1002.66 925.81C1002.66 926.192 1000.53 927.012 998.508 928.543ZM1005.07 917.447C1004.04 915.496 1003.42 913.357 1003.24 911.159C1003.06 908.961 1003.33 906.75 1004.03 904.658C1005.1 900.758 1007.6 897.403 1011.03 895.258C1009.34 897.999 1007.88 900.868 1006.65 903.839C1005.37 908.256 1004.84 912.855 1005.07 917.447Z" fill="#282724"/>
<path opacity="0.05" d="M1018.51 895.368C1018.46 891.597 1017.26 891.925 1015.29 881.431C1014.49 877.61 1013.96 873.739 1013.7 869.844C1013.27 857.93 1017.42 855.142 1014.91 848.311C1013.1 843.392 1010.7 844.047 1008.84 838.746C1006.76 832.679 1009.33 830.056 1009.33 822.295C1009.28 811.255 1003.97 810.763 1003.76 799.614C1003.59 791.415 1006.43 791.525 1006.16 782.835C1005.83 772.942 1002.12 771.74 1002.94 764.088C1003.65 757.639 1006.6 756.108 1007.85 752.228C1008.29 750.905 1008.51 749.522 1008.51 748.129C1008.84 740.969 1003.59 738.509 1004.19 733.591C1004.52 731.022 1006 731.241 1009.88 725.83C1011.74 723.152 1016.76 716.156 1015.94 712.932C1015.34 713.484 1014.68 713.978 1013.98 714.407C1006.43 719.271 1000.75 714.407 982.056 712.33C948.823 708.668 926.359 719.654 920.019 709.488C919.914 709.361 919.839 709.211 919.8 709.051H919.419C919.318 709.316 919.245 709.591 919.2 709.871C918.982 712.877 924.775 714.462 928.656 718.233C931.948 721.509 933.83 725.941 933.904 730.585C933.74 738.182 926.47 739.439 926.743 746.107C927.071 753.485 934.669 754.797 934.723 761.683C934.778 768.952 926.361 770.59 926.306 778.025C926.251 785.13 933.74 786.879 933.083 793.219C932.482 799.668 924.448 800.16 922.753 807.593C921.223 813.987 926.743 815.682 927.071 823.88C927.454 834.92 917.67 836.833 917.561 848.311C917.451 857.274 923.409 859.296 921.551 867.439C920.075 873.779 915.866 874.873 916.358 880.229C916.795 885.366 920.949 886.405 921.114 892.198C921.278 896.243 919.255 896.734 919.146 900.943C919.037 906.245 922.097 908.704 924.01 913.295C926.798 920.018 924.283 924.39 923.737 932.479C923.3 939.037 926.688 948.766 933.521 968.004C941.009 989.154 941.829 987.734 942.266 993.145C943.469 1008.39 936.363 1015.88 941.61 1023.31C945.272 1028.45 952.87 1030.8 955.876 1028.67C958.827 1026.48 956.149 1020.53 959.866 1017.9C960.849 1017.18 962.036 1016.79 963.255 1016.79C964.474 1016.79 965.661 1017.18 966.644 1017.9C968.611 1019.87 965.933 1023.1 967.409 1027.09C968.318 1029.05 969.791 1030.7 971.639 1031.83C973.488 1032.96 975.63 1033.51 977.794 1033.43C983.697 1033.04 987.359 1026.43 988.561 1022.28C991.131 1013.75 985.227 1010.03 983.369 998.337C982.33 991.67 985.063 982.16 990.584 963.195C995.284 946.963 997.908 943.356 1001.35 940.842C1005.56 937.836 1009.06 937.836 1010.92 934.064C1013.54 928.927 1008.51 925.648 1008.95 917.723C1009.44 907.173 1018.62 905.752 1018.51 895.368ZM992.769 923.078C986.155 934.665 977.519 949.804 966.478 950.187C954.836 950.57 945.927 934.446 939.914 923.625C929.311 904.551 930.896 890.996 924.665 867.932C923.297 864.29 922.828 860.372 923.298 856.509C924.406 853.32 925.05 849.989 925.212 846.617C924.96 845.101 924.886 843.56 924.993 842.026C925.538 839.431 926.679 836.999 928.327 834.921C929.4 833.61 930.204 832.1 930.692 830.477C931.179 828.854 931.342 827.151 931.169 825.466C930.861 822.431 930.276 819.431 929.42 816.503C928.821 814.558 928.672 812.502 928.983 810.491C929.407 808.113 930.381 805.868 931.825 803.932C934.066 800.543 935.378 800.543 936.799 798.084C938.208 795.538 938.764 792.607 938.384 789.722C937.564 782.07 930.568 780.157 931.552 774.747C932.044 772.6 933.122 770.632 934.667 769.062C935.87 767.805 936.471 767.97 937.127 767.15C939.914 763.324 937.072 756.765 936.034 752.612C934.775 747.576 937.478 747.064 938.767 739.385C940.236 730.63 936.129 725.609 939.237 719.958C940.775 717.163 943.994 715.733 984.144 717.567C990.298 717.849 995.789 718.174 998.313 721.956C1000.86 725.766 996.865 728.903 996.938 737.913C997.265 748.668 999.043 759.33 1002.22 769.609C1003.28 772.339 1003.58 775.303 1003.1 778.19C1002.29 781.038 1001.01 783.734 999.328 786.169C995.938 792.017 994.955 792.455 994.518 794.805C994.08 796.882 994.736 797.537 996.704 804.041C998.598 810.384 1000.15 816.825 1001.35 823.335C1001.68 824.865 1001.57 824.537 1001.79 825.575C1003.32 833.883 1005.45 837.763 1009.17 848.913C1011.08 854.652 1011.84 857.439 1010.75 860.609C1010.04 862.147 1009.23 863.643 1008.35 865.09C1006.21 870.009 1008.18 874.6 1008.89 878.262C1009.22 880.12 1009.49 883.181 1002.22 901.326C999.523 908.764 996.365 916.029 992.769 923.078Z" fill="#282724"/>
<path opacity="0.05" d="M988.903 648.118C992.568 645.186 998.793 639.12 997.41 636.644C995.348 632.948 981.787 640.778 961.581 638.574C947.083 636.992 940.149 631.395 938.213 634.002C935.743 637.33 943.675 650.977 956.031 655.59C971.625 661.411 986.58 649.975 988.903 648.118Z" fill="#282724"/>
<path opacity="0.05" d="M979.209 996.045C977.685 995.453 976.335 1000.81 970.941 1002.41C964.62 1004.27 960.952 998.535 955.358 999.862C947.312 1001.77 943.267 1016.4 945.5 1017.99C947.367 1019.32 952.291 1010.58 959.81 1011.31C966.727 1011.98 968.694 1019.96 972.849 1019.26C979.37 1018.16 982.161 997.192 979.209 996.045Z" fill="#282724"/>
</svg>
