<svg width="1545" height="3929" viewBox="0 0 1545 3929" fill="none" xmlns="http://www.w3.org/2000/svg">
<path d="M1008.95 917.723C1008.51 925.648 1013.54 928.927 1010.92 934.065C1009.06 937.836 1005.56 937.836 1001.35 940.842C997.907 943.356 995.284 946.964 990.583 963.196C985.062 982.161 982.33 991.671 983.368 998.337C985.227 1010.03 991.13 1013.75 988.561 1022.28C987.358 1026.43 983.696 1033.04 977.793 1033.43C975.629 1033.51 973.487 1032.96 971.639 1031.83C969.79 1030.7 968.318 1029.05 967.408 1027.09C965.932 1023.1 968.61 1019.87 966.643 1017.9C965.66 1017.18 964.473 1016.8 963.254 1016.8C962.035 1016.8 960.848 1017.18 959.865 1017.9C956.149 1020.53 958.827 1026.48 955.875 1028.67C952.869 1030.8 945.272 1028.45 941.61 1023.31C936.362 1015.88 943.468 1008.39 942.266 993.145C941.828 987.735 941.008 989.156 933.52 968.004C926.688 948.765 923.299 939.037 923.736 932.479C924.283 924.39 926.797 920.018 924.01 913.295C922.097 908.704 919.036 906.245 919.145 900.943C919.254 896.735 921.277 896.243 921.113 892.198C920.949 886.405 916.795 885.366 916.357 880.229C915.866 874.873 920.075 873.78 921.55 867.44C923.409 859.296 917.451 857.274 917.56 848.311C917.669 836.833 927.453 834.921 927.07 823.88C926.742 815.682 921.222 813.988 922.753 807.593C924.447 800.16 932.482 799.668 933.083 793.219C933.739 786.879 926.251 785.13 926.305 778.025C926.36 770.592 934.777 768.953 934.723 761.684C934.668 754.797 927.07 753.485 926.743 746.107C926.36 739.275 932.974 737.144 933.903 730.585C935.433 719.982 917.943 713.97 919.418 709.051L919.583 708.723C919.746 708.996 919.856 709.27 920.02 709.489C926.36 719.654 948.824 708.669 982.056 712.331C1000.75 714.407 1006.43 719.272 1013.98 714.407C1014.87 713.845 1015.71 713.205 1016.49 712.494C1015.55 714.887 1014.16 717.076 1012.39 718.944C1009.14 721.771 1006.8 725.499 1005.67 729.656C1005.56 730.148 1005.4 730.749 1005.29 731.569C1004.36 738.565 1008.62 740.805 1008.51 748.129C1008.4 755.671 1003.87 755.781 1002.94 764.088C1002.12 771.74 1005.83 772.942 1006.16 782.835C1006.43 791.525 1003.59 791.416 1003.76 799.614C1003.97 810.763 1009.28 811.255 1009.33 822.295C1009.33 830.056 1006.76 832.68 1008.84 838.746C1010.7 844.048 1013.1 843.392 1014.91 848.311C1017.42 855.143 1013.27 857.93 1013.7 869.844C1013.96 873.739 1014.49 877.61 1015.29 881.431C1017.26 891.925 1018.46 891.597 1018.51 895.368C1018.62 905.753 1009.44 907.174 1008.95 917.723Z" fill="black"/>
<path d="M1043.06 661.393C1037.47 668.475 1032.9 676.291 1029.45 684.621C1023.16 700.143 1021.57 707.74 1016.49 712.495C1016.34 712.67 1016.15 712.818 1015.95 712.933C1015.34 713.485 1014.68 713.978 1013.98 714.408C1006.43 719.272 1000.75 714.408 982.057 712.331C948.824 708.669 926.361 719.655 920.021 709.489C919.916 709.362 919.841 709.212 919.802 709.052C919.71 708.956 919.636 708.845 919.583 708.724C918.381 706.319 917.451 702.602 913.735 695.662C913.134 694.459 911.712 691.727 909.635 687.737C908.761 686.042 907.941 684.403 907.121 682.708C905.154 678.391 904.006 673.854 901.819 669.646C899.571 665.961 897.738 662.039 896.354 657.95C896.466 657.538 896.612 657.136 896.791 656.748C899.251 651.774 903.022 653.851 911.931 646.746C926.689 634.995 924.284 623.026 933.521 619.637C944.726 615.537 951.121 632.316 969.431 632.808C988.398 633.3 997.417 615.701 1008.13 620.839C1015.51 624.337 1011.57 632.863 1022.01 641.444C1030.32 648.275 1038.36 647.456 1041.63 655.162C1042.46 657.115 1042.85 659.221 1042.78 661.338C1042.84 661.339 1043 661.393 1043.06 661.393Z" fill="black"/>
<path d="M1042.78 661.34C1042.85 659.223 1042.45 657.116 1041.63 655.164C1040.87 653.517 1039.79 652.038 1038.44 650.814C1037.1 649.59 1035.53 648.646 1033.82 648.035C1035.38 650.884 1036.12 654.107 1035.97 657.351C1035.48 662.699 1031.31 666.758 1028.53 671.059C1026.25 674.793 1024.36 678.757 1022.9 682.886C1020.23 689.919 1017.93 697.524 1013.02 703.385C1010.63 706.127 1007.54 708.166 1004.09 709.284C1000.63 710.402 996.932 710.556 993.393 709.73C986.922 708.703 980.492 707.487 973.944 707.05C968.224 706.757 962.49 706.904 956.792 707.488C947.643 708.274 935.91 710.359 927.753 704.936C920.78 699.669 915.428 692.549 912.307 684.387C909.208 677.288 906.132 668.349 907.693 660.484C909.659 650.575 920.851 647.28 925.184 638.989C929.025 631.637 932.077 622.07 941.523 620.672C941.715 620.661 941.908 620.67 942.098 620.7C942.16 620.59 942.23 620.485 942.307 620.385C940.981 619.639 939.511 619.186 937.995 619.057C936.479 618.928 934.954 619.126 933.521 619.637C924.284 623.026 926.689 634.995 911.931 646.746C903.022 653.851 899.251 651.774 896.791 656.748C896.612 657.136 896.466 657.538 896.354 657.95C897.738 662.039 899.571 665.961 901.819 669.646C904.006 673.854 905.154 678.391 907.121 682.708C907.941 684.403 908.761 686.042 909.635 687.737C911.712 691.727 913.134 694.459 913.735 695.662C917.451 702.602 918.381 706.319 919.583 708.724C919.636 708.845 919.71 708.956 919.802 709.052C919.841 709.212 919.916 709.362 920.021 709.489C926.361 719.655 948.824 708.669 982.057 712.331C1000.75 714.408 1006.43 719.272 1013.98 714.408C1014.68 713.978 1015.34 713.485 1015.95 712.933C1016.15 712.818 1016.34 712.67 1016.49 712.495C1021.58 707.74 1023.16 700.143 1029.45 684.621C1032.9 676.291 1037.47 668.475 1043.06 661.393C1043 661.394 1042.84 661.34 1042.78 661.34Z" fill="black"/>
<path d="M929.093 923.516C928.546 923.407 930.842 916.739 928.054 909.306C926.872 906.456 925.208 903.831 923.135 901.545C925.173 902.753 926.936 904.373 928.31 906.303C929.685 908.232 930.64 910.428 931.115 912.749C931.546 914.586 931.589 916.492 931.241 918.346C930.893 920.2 930.161 921.961 929.093 923.516ZM942.484 948.93C941.32 944.165 939.42 939.611 936.854 935.431C934.878 932.804 932.761 930.286 930.514 927.888C933.915 929.241 936.803 931.631 938.767 934.72C941.791 938.801 943.122 943.892 942.484 948.93ZM954.071 953.685C948.387 952.1 944.233 953.467 944.124 952.865C944.014 952.21 949.316 949.422 954.672 950.843C956.613 951.334 958.406 952.286 959.9 953.618C961.394 954.95 962.545 956.623 963.254 958.495C960.394 956.533 957.312 954.919 954.071 953.685ZM980.089 954.669C974.787 957.894 972.819 961.938 971.999 961.446C971.234 961.063 971.672 957.511 973.749 954.997C975.415 953.357 977.49 952.193 979.759 951.626C982.027 951.059 984.406 951.11 986.648 951.772C986.648 952.21 983.97 952.373 980.089 954.669ZM998.509 928.544C991.731 933.682 991.348 942.645 990.747 942.645C990.195 940.117 990.308 937.489 991.074 935.018C991.841 932.547 993.235 930.316 995.12 928.544C997.218 926.746 999.9 925.774 1002.66 925.812C1002.66 926.194 1000.53 927.014 998.509 928.544ZM1005.07 917.449C1004.04 915.498 1003.42 913.359 1003.24 911.161C1003.06 908.963 1003.33 906.751 1004.03 904.66C1005.1 900.76 1007.6 897.404 1011.03 895.26C1009.34 898.001 1007.88 900.87 1006.65 903.84C1005.37 908.258 1004.84 912.856 1005.07 917.449Z" fill="black"/>
<path d="M1018.51 895.368C1018.46 891.597 1017.26 891.925 1015.29 881.431C1014.49 877.61 1013.96 873.739 1013.7 869.844C1013.27 857.93 1017.42 855.143 1014.91 848.311C1013.1 843.392 1010.7 844.048 1008.84 838.746C1006.76 832.68 1009.33 830.056 1009.33 822.295C1009.28 811.255 1003.97 810.763 1003.76 799.614C1003.59 791.416 1006.43 791.525 1006.16 782.835C1005.83 772.942 1002.12 771.74 1002.94 764.088C1003.65 757.639 1006.6 756.109 1007.86 752.229C1008.29 750.906 1008.51 749.522 1008.51 748.129C1008.84 740.97 1003.59 738.51 1004.19 733.592C1004.52 731.023 1006 731.242 1009.88 725.831C1011.74 723.153 1016.76 716.157 1015.94 712.933C1015.34 713.485 1014.68 713.978 1013.98 714.407C1006.43 719.272 1000.75 714.407 982.056 712.331C948.824 708.669 926.36 719.654 920.02 709.489C919.915 709.361 919.84 709.212 919.801 709.052H919.419C919.319 709.317 919.245 709.592 919.201 709.872C918.982 712.878 924.776 714.463 928.657 718.234C931.948 721.51 933.831 725.942 933.904 730.586C933.74 738.183 926.471 739.44 926.744 746.108C927.071 753.486 934.669 754.798 934.724 761.684C934.779 768.953 926.361 770.591 926.306 778.026C926.252 785.131 933.74 786.88 933.084 793.22C932.483 799.669 924.448 800.161 922.754 807.594C921.223 813.988 926.744 815.683 927.071 823.881C927.454 834.921 917.671 836.834 917.561 848.312C917.452 857.275 923.41 859.297 921.551 867.44C920.076 873.78 915.867 874.874 916.359 880.23C916.796 885.367 920.95 886.406 921.114 892.199C921.278 896.243 919.256 896.735 919.146 900.944C919.037 906.246 922.098 908.705 924.011 913.296C926.798 920.019 924.284 924.391 923.737 932.48C923.3 939.038 926.689 948.767 933.521 968.005C941.009 989.155 941.829 987.735 942.267 993.146C943.469 1008.39 936.363 1015.88 941.611 1023.32C945.273 1028.45 952.871 1030.8 955.876 1028.67C958.828 1026.49 956.15 1020.53 959.866 1017.9C960.849 1017.18 962.036 1016.8 963.255 1016.8C964.474 1016.8 965.661 1017.18 966.644 1017.9C968.612 1019.87 965.933 1023.1 967.409 1027.09C968.319 1029.05 969.791 1030.7 971.64 1031.83C973.488 1032.96 975.63 1033.52 977.794 1033.43C983.697 1033.04 987.359 1026.43 988.562 1022.28C991.131 1013.75 985.228 1010.03 983.369 998.338C982.331 991.671 985.064 982.161 990.584 963.196C995.285 946.964 997.909 943.357 1001.35 940.843C1005.56 937.837 1009.06 937.837 1010.92 934.065C1013.54 928.928 1008.51 925.649 1008.95 917.724C1009.44 907.174 1018.62 905.752 1018.51 895.368ZM992.769 923.079C986.156 934.666 977.52 949.805 966.479 950.188C954.837 950.571 945.928 934.447 939.915 923.626C929.312 904.552 930.896 890.997 924.665 867.933C923.297 864.291 922.828 860.373 923.299 856.51C924.406 853.321 925.051 849.99 925.212 846.618C924.96 845.102 924.887 843.561 924.993 842.027C925.538 839.432 926.68 837 928.327 834.922C929.401 833.611 930.204 832.101 930.692 830.478C931.18 828.855 931.342 827.152 931.17 825.467C930.862 822.432 930.276 819.432 929.42 816.504C928.822 814.559 928.672 812.503 928.983 810.492C929.408 808.114 930.381 805.869 931.825 803.933C934.067 800.544 935.378 800.544 936.8 798.085C938.209 795.539 938.764 792.608 938.385 789.723C937.564 782.071 930.568 780.158 931.552 774.748C932.044 772.601 933.123 770.633 934.668 769.063C935.87 767.806 936.472 767.971 937.128 767.151C939.915 763.325 937.073 756.766 936.034 752.613C934.775 747.577 937.479 747.065 938.767 739.386C940.236 730.631 936.13 725.61 939.237 719.959C940.775 717.164 943.995 715.734 984.145 717.568C990.299 717.85 995.79 718.175 998.313 721.957C1000.86 725.767 996.866 728.904 996.938 737.913C997.265 748.669 999.044 759.331 1002.22 769.61C1003.28 772.34 1003.58 775.304 1003.1 778.191C1002.29 781.039 1001.01 783.735 999.328 786.17C995.939 792.018 994.955 792.456 994.518 794.806C994.081 796.883 994.737 797.538 996.704 804.042C998.599 810.385 1000.15 816.826 1001.35 823.336C1001.68 824.866 1001.57 824.538 1001.79 825.576C1003.32 833.884 1005.45 837.764 1009.17 848.914C1011.08 854.653 1011.84 857.44 1010.75 860.61C1010.04 862.148 1009.23 863.644 1008.35 865.091C1006.21 870.01 1008.18 874.601 1008.89 878.263C1009.22 880.121 1009.49 883.182 1002.22 901.327C999.523 908.765 996.365 916.03 992.769 923.079Z" fill="black"/>
<path d="M988.903 648.119C992.568 645.187 998.793 639.121 997.411 636.645C995.348 632.949 981.787 640.779 961.582 638.575C947.084 636.993 940.149 631.396 938.213 634.003C935.743 637.331 943.675 650.978 956.031 655.591C971.625 661.412 986.58 649.976 988.903 648.119Z" fill="black"/>
<path d="M979.209 996.045C977.685 995.453 976.334 1000.81 970.941 1002.41C964.619 1004.27 960.951 998.535 955.358 999.861C947.312 1001.77 943.267 1016.4 945.499 1017.99C947.366 1019.32 952.29 1010.58 959.81 1011.31C966.727 1011.98 968.694 1019.96 972.849 1019.26C979.37 1018.16 982.161 997.191 979.209 996.045Z" fill="black"/>
</svg>
