<svg width="1545" height="3929" viewBox="0 0 1545 3929" fill="none" xmlns="http://www.w3.org/2000/svg">
<path d="M923.807 1552.31C921.207 1555.35 919.394 1558.98 918.528 1562.88C917.662 1566.79 917.77 1570.84 918.843 1574.7C926.838 1598.02 988.543 1612.31 1026.83 1585.73C1047.35 1571.49 1062.38 1544.64 1055.39 1534.55C1047.68 1523.43 1022.04 1545.38 964.936 1544.12C949.377 1543.78 932.866 1541.75 923.807 1552.31Z" fill="black"/>
<path d="M930.701 1032.69C928.549 1036.14 931.44 1046.04 931.191 1050.4C931.076 1052.41 930.997 1053.41 930.981 1053.56C930.836 1054.38 930.768 1055.21 930.778 1056.04C930.82 1056.26 930.876 1056.48 930.946 1056.69C931.721 1058.96 1006.47 1059.87 1007.88 1047.15C1007.45 1043.45 1007.24 1039.72 1007.26 1035.99C1007.48 1034.25 1007.32 1032.48 1006.77 1030.81C1005.92 1028.84 1004.56 1027.12 1002.82 1025.85C996.502 1021.26 979.155 1034.18 958.532 1034.42C943.939 1034.58 933.415 1028.34 930.701 1032.69Z" fill="black"/>
<path d="M928.173 970.471C925.785 973.269 929.928 978.266 929.396 992.401C929.21 997.321 928.683 997.417 929.151 998.695C934.698 1013.84 1007.21 996.275 1007.41 994.887C1007.55 993.931 1007.19 994.326 1006.08 989.159C1004.29 980.825 1004.7 977.404 1002.25 970.808C1001.94 969.787 1001.53 968.799 1001.02 967.861C995.569 961.605 978.833 978.183 956.736 976.422C941.218 975.185 931.598 966.458 928.173 970.471Z" fill="black"/>
<path d="M936.472 800.213C935.863 799.99 934.057 799.311 932.919 800.145C931.25 801.368 931.952 805.15 932.368 807.395C933.178 811.759 934.42 812.033 934.067 814.219C933.595 817.146 931.214 817.611 930.853 820.632C930.859 822.256 931.248 823.854 931.989 825.299C936.411 834.493 997.181 837.529 1002.99 818.482C1003.61 816.215 1003.57 813.814 1002.87 811.569C1002.53 810.497 1002.08 809.465 1001.52 808.489C1001.3 808.118 1001.14 807.876 1001.1 807.795C999.123 803.876 1002.13 800.006 1000.82 798.71C999.388 797.284 994.175 800.382 993.136 800.989C985.374 805.516 970.664 810.953 959.574 808.347C956.762 807.687 949.998 805.196 936.472 800.213Z" fill="black"/>
<path d="M938.564 646.591C936.847 648.28 938.955 651.19 937.898 659.768C937.376 664 936.732 664.358 936.558 667.433C936.323 672.04 937.341 676.625 939.503 680.699C947.054 693.449 984.748 689.225 997.087 674.302C999.612 671.851 1001.17 668.573 1001.47 665.068C1001.47 658.734 995.209 655.802 996.249 649.346C996.641 646.909 997.866 645.144 996.864 643.676C995.892 642.251 993.471 642.26 991.928 642.369C980.948 643.146 969.768 652.094 958.367 652.037C947.824 651.984 941.471 643.729 938.564 646.591Z" fill="black"/>
<path d="M933.295 700.961C932.449 703.035 937.196 705.65 937.099 711.302C937.026 712.996 936.868 714.686 936.625 716.365C936.195 719.455 935.848 720.071 935.907 720.608C936.629 727.234 999.08 724.699 1001.85 717.266C1002.47 715.847 1002.71 714.29 1002.54 712.75C1002.1 710.742 1000.74 709.88 1001.08 708.094C1001.34 707.372 1001.55 706.636 1001.73 705.891C1001.83 705.152 1001.85 704.404 1001.79 703.661C1001.8 702.075 1001.41 700.512 1000.64 699.122C999.879 697.733 998.771 696.563 997.425 695.724C995.899 694.978 994.226 694.583 992.528 694.568C983.025 694.173 968.132 699.39 958.725 700.574C944.69 702.341 934.669 697.594 933.295 700.961Z" fill="black"/>
<path d="M936.472 750.267C935.85 750.038 933.939 749.333 932.919 750.199C930.979 751.844 935.34 756.551 933.794 762.571C932.911 766.009 930.838 767.008 930.853 770.687C930.917 772.303 931.303 773.89 931.989 775.354C936.633 785.008 999.735 779.102 1002.99 768.538C1003.96 765.845 1003.9 762.886 1002.81 760.238C1002.14 758.97 1001.71 759.069 1001.1 757.85C999.123 753.931 1002.13 750.061 1000.82 748.765C999.387 747.34 994.175 750.438 993.135 751.044C985.373 755.572 970.664 761.009 959.574 758.402C956.762 757.74 949.998 755.249 936.472 750.267Z" fill="black"/>
<path d="M930.708 849.69C928.921 851.686 933.823 855.39 932.534 862.575C931.617 867.681 928.275 870.631 929.705 874.833C930.154 875.981 930.827 877.029 931.686 877.914C939.373 885.906 1002.15 886.76 1004.44 871.714C1004.98 868.207 1001.77 866.83 1000.8 858.615C999.742 849.576 1003.11 846.816 1000.95 843.211C997.366 837.229 982.949 836.22 973.104 842.052C964.745 847.003 966.1 853.084 959.271 855.64C947.669 859.983 933.898 846.128 930.708 849.69Z" fill="black"/>
<path d="M929.725 492.732C926.781 495.513 927.778 502.425 929.568 514.825C929.753 516.9 930.133 518.953 930.703 520.956C937.109 536.274 996.142 537.559 1004.76 517.044C1008.18 508.918 1004.87 494.551 996.786 490.321C995.246 489.556 993.567 489.112 991.85 489.014C977.95 487.609 970.661 497.259 958.288 498.682C943.162 500.422 934.468 488.252 929.725 492.732Z" fill="black"/>
<path d="M930.263 528.7C927.318 531.481 928.316 538.393 930.106 550.793C930.29 552.868 930.67 554.921 931.239 556.925C937.645 572.242 996.678 573.528 1005.3 553.012C1008.71 544.886 1005.41 530.519 997.322 526.289C995.783 525.524 994.103 525.08 992.387 524.982C978.487 523.577 971.198 533.227 958.825 534.65C943.7 536.39 935.006 524.22 930.263 528.7Z" fill="black"/>
<path d="M924.918 567.047C921.973 569.827 922.971 576.74 924.761 589.14C924.946 591.215 925.326 593.267 925.896 595.271C932.302 610.589 991.335 611.874 999.955 591.359C1003.37 583.233 1000.06 568.866 991.979 564.636C990.439 563.871 988.76 563.426 987.043 563.329C973.143 561.924 965.854 571.574 953.481 572.997C938.355 574.737 929.661 562.567 924.918 567.047Z" fill="black"/>
<path d="M935.822 1485.82C933.415 1488.78 932.143 1492.5 932.233 1496.31C932.742 1503.76 939.915 1508.75 942.992 1510.87C967.383 1527.65 1011.76 1515.68 1025.97 1501.28C1029.47 1498.09 1031.71 1493.75 1032.27 1489.05C1032.57 1484.58 1030.96 1478.69 1027.04 1476.9C1025.61 1476.47 1024.11 1476.34 1022.63 1476.53C1021.15 1476.72 1019.72 1477.21 1018.45 1477.99C998.392 1487.55 950.101 1467.76 935.822 1485.82Z" fill="black"/>
<path d="M929.201 1423.94C927.049 1427.03 925.806 1430.66 925.612 1434.43C925.562 1439.37 926.95 1444.22 929.607 1448.39C941.305 1466.66 1002.88 1455.98 1019.35 1439.39C1022.85 1436.21 1025.09 1431.86 1025.65 1427.16C1025.95 1422.69 1024.34 1416.81 1020.42 1415.02C1018.99 1414.59 1017.49 1414.46 1016.01 1414.65C1014.53 1414.83 1013.1 1415.33 1011.83 1416.1C991.773 1425.66 943.482 1405.88 929.201 1423.94Z" fill="black"/>
<path d="M924.97 1362.32C921.968 1366.78 923.024 1374.16 924.068 1381.44C924.573 1385.98 925.836 1390.41 927.805 1394.54C938.888 1413.18 995.77 1399.21 1011.75 1383.11C1015.26 1379.92 1017.49 1375.58 1018.05 1370.87C1018.35 1366.41 1016.75 1360.52 1012.82 1358.73C1011.4 1358.3 1009.89 1358.17 1008.41 1358.36C1006.93 1358.55 1005.51 1359.04 1004.23 1359.82C985.04 1368.98 934.802 1347.71 924.97 1362.32Z" fill="black"/>
<path d="M924.721 1296.03C923.402 1298.55 923.983 1303.91 925.145 1314.61C925.271 1319.24 926.084 1323.84 927.556 1328.24C936.601 1346.05 999.172 1333.92 1011.5 1316.81C1013.79 1313.87 1015.04 1310.26 1015.09 1306.54C1014.97 1301.47 1012.06 1295.57 1007.45 1293.95C1006.33 1293.56 1005.15 1293.42 1003.98 1293.52C989.24 1294.73 932.93 1280.3 924.721 1296.03Z" fill="black"/>
<path d="M924.721 1224.46C923.402 1226.99 923.983 1232.34 925.145 1243.04C925.271 1247.68 926.084 1252.27 927.556 1256.67C936.601 1274.49 999.172 1262.35 1011.5 1245.24C1013.79 1242.3 1015.04 1238.69 1015.09 1234.97C1014.97 1229.9 1012.06 1224 1007.45 1222.38C1006.33 1221.99 1005.15 1221.85 1003.98 1221.95C989.24 1223.16 932.93 1208.73 924.721 1224.46Z" fill="black"/>
<path d="M930.591 1145.19C925.966 1148.86 925.775 1158.89 925.654 1165.23C925.398 1167.72 925.555 1170.23 926.118 1172.67C931.835 1189.21 995.143 1186.6 1008 1168.92C1010.29 1165.98 1011.55 1162.37 1011.58 1158.65C1011.47 1153.58 1008.56 1147.68 1003.95 1146.06C1002.83 1145.67 1001.65 1145.53 1000.48 1145.63C988.624 1146.52 970.605 1151.29 959.154 1151.14C942.773 1150.92 936.371 1140.59 930.591 1145.19Z" fill="black"/>
<path d="M931.917 1079.27C927.222 1082.7 928.318 1091.69 930.965 1097.29C931.767 1098.99 932.798 1100.58 934.03 1102C946.31 1115.63 1010.62 1106.24 1012.04 1095.03C1012.14 1094.25 1011.8 1094.59 1010.48 1090.47C1008.36 1083.83 1008.63 1081.05 1005.92 1075.85C1005.56 1075.03 1005.11 1074.25 1004.57 1073.53C998.871 1068.75 982.823 1082.97 960.682 1082.65C944.855 1082.42 937.277 1075.34 931.917 1079.27Z" fill="black"/>
<path d="M928.67 914.981C925.726 917.762 926.723 924.674 928.513 937.074C928.698 939.149 929.079 941.202 929.648 943.206C936.054 958.523 995.087 959.809 1003.71 939.293C1007.12 931.168 1003.81 916.801 995.732 912.57C994.192 911.805 992.512 911.361 990.796 911.264C976.896 909.858 969.606 919.508 957.234 920.931C942.107 922.671 933.414 910.502 928.67 914.981Z" fill="black"/>
<path d="M929.201 1423.94C927.049 1427.03 925.806 1430.66 925.612 1434.43C925.562 1439.37 926.95 1444.22 929.607 1448.39C941.305 1466.66 1002.88 1455.98 1019.35 1439.39C1022.85 1436.21 1025.09 1431.86 1025.65 1427.16C1025.95 1422.69 1024.34 1416.81 1020.42 1415.02C1018.99 1414.59 1017.49 1414.46 1016.01 1414.65C1014.53 1414.83 1013.1 1415.33 1011.83 1416.1C991.773 1425.66 943.482 1405.88 929.201 1423.94Z" fill="black"/>
<path d="M994.999 1788.68L1013.36 1789.06C1014 1789.48 1026.36 1797.81 1025.27 1812.06C1024.24 1825.45 1012.26 1832.1 1011.27 1832.63C1006.81 1831.39 1002.08 1831.56 997.727 1833.14C992.531 1827.39 989.301 1820.14 988.504 1812.43C987.801 1804 990.101 1795.58 994.999 1788.68Z" fill="black"/>
<path d="M456.825 1292.75C442.095 1291.37 429.584 1309.5 424.815 1320.89C419.813 1332.84 416.166 1354.49 427.278 1363.59C440.626 1374.52 472.97 1365.46 481.474 1343.06C489.549 1321.8 473.92 1294.35 456.825 1292.75Z" fill="black"/>
<path d="M489.397 1303.02C510.577 1297.77 537.026 1306.34 543.37 1323.05C552.307 1346.58 521.699 1387.15 490.508 1383.3C471.44 1380.95 451.027 1361.86 452.735 1339.78C454.343 1318.97 474.737 1306.66 489.397 1303.02Z" fill="black"/>
<path d="M1395.11 1319.25C1409.9 1319.77 1419.98 1339.36 1423.25 1351.27C1426.68 1363.76 1427.51 1385.7 1415.33 1393.3C1400.69 1402.42 1369.77 1389.28 1364.21 1365.99C1358.93 1343.86 1377.96 1318.64 1395.11 1319.25Z" fill="black"/>
<path d="M1361.49 1325.26C1341.16 1317.33 1313.83 1322.44 1305.4 1338.2C1293.52 1360.39 1318.67 1404.54 1350.09 1404.73C1369.31 1404.84 1392 1388.53 1393.14 1366.41C1394.21 1345.57 1375.56 1330.75 1361.49 1325.26Z" fill="black"/>
<path d="M943.256 3647.36C940.039 3653.31 938.483 3660.02 938.75 3666.79C939.017 3673.55 941.097 3680.11 944.773 3685.8C962.883 3711.12 1022.75 3706.29 1041.31 3675.15C1042.53 3673.1 1052.11 3656.5 1045.08 3643.17C1031.42 3617.27 961.06 3615.06 943.256 3647.36Z" fill="black"/>
<path d="M1016.67 2689.76C1012.79 2695.62 1010.27 2702.27 1009.29 2709.23C1008.3 2716.19 1008.89 2723.28 1010.99 2729.99C1016.69 2747.26 1032.37 2755.66 1042.23 2760.76C1079.35 2779.95 1142.63 2784.1 1161.51 2751.29C1169.72 2737.02 1168.31 2717.9 1161.04 2703.96C1136.99 2657.87 1041.57 2654.4 1016.67 2689.76Z" fill="black"/>
<path d="M314.765 3642.97C306.699 3654.88 311.168 3670.29 312.37 3674.44C319.389 3698.64 347.307 3722.47 377.36 3716.16C404.967 3710.37 426.638 3680.78 420.116 3659.73C414.251 3640.79 387.565 3635.17 374.281 3632.37C366.214 3630.67 328.484 3622.71 314.765 3642.97Z" fill="black"/>
<path d="M521 2684.78C498.456 2693.4 480.709 2721.73 484.402 2748.42C489.258 2783.52 529.18 2801.41 557.887 2803.22C585.823 2804.97 622.99 2792.74 628.801 2770.18C638.113 2734.03 568.076 2666.79 521 2684.78Z" fill="black"/>
<path d="M923.807 1552.31C921.207 1555.35 919.394 1558.98 918.528 1562.88C917.662 1566.79 917.77 1570.84 918.843 1574.7C926.838 1598.02 988.543 1612.31 1026.83 1585.73C1047.35 1571.49 1062.38 1544.64 1055.39 1534.55C1047.68 1523.43 1022.04 1545.38 964.936 1544.12C949.377 1543.78 932.866 1541.75 923.807 1552.31Z" stroke="black" stroke-width="0.1687" stroke-miterlimit="10"/>
<path d="M930.701 1032.69C928.549 1036.14 931.44 1046.04 931.191 1050.4C931.076 1052.41 930.997 1053.41 930.981 1053.56C930.836 1054.38 930.768 1055.21 930.778 1056.04C930.82 1056.26 930.876 1056.48 930.946 1056.69C931.721 1058.96 1006.47 1059.87 1007.88 1047.15C1007.45 1043.45 1007.24 1039.72 1007.26 1035.99C1007.48 1034.25 1007.32 1032.48 1006.77 1030.81C1005.92 1028.84 1004.56 1027.12 1002.82 1025.85C996.502 1021.26 979.155 1034.18 958.532 1034.42C943.939 1034.58 933.415 1028.34 930.701 1032.69Z" stroke="black" stroke-width="0.1687" stroke-miterlimit="10"/>
<path d="M928.173 970.471C925.785 973.269 929.928 978.266 929.396 992.401C929.21 997.321 928.683 997.417 929.151 998.695C934.698 1013.84 1007.21 996.275 1007.41 994.887C1007.55 993.931 1007.19 994.326 1006.08 989.159C1004.29 980.825 1004.7 977.404 1002.25 970.808C1001.94 969.787 1001.53 968.799 1001.02 967.861C995.569 961.605 978.833 978.183 956.736 976.422C941.218 975.185 931.598 966.458 928.173 970.471Z" stroke="black" stroke-width="0.1687" stroke-miterlimit="10"/>
<path d="M936.472 800.213C935.863 799.99 934.057 799.311 932.919 800.145C931.25 801.368 931.952 805.15 932.368 807.395C933.178 811.759 934.42 812.033 934.067 814.219C933.595 817.146 931.214 817.611 930.853 820.632C930.859 822.256 931.248 823.854 931.989 825.299C936.411 834.493 997.181 837.529 1002.99 818.482C1003.61 816.215 1003.57 813.814 1002.87 811.569C1002.53 810.497 1002.08 809.465 1001.52 808.489C1001.3 808.118 1001.14 807.876 1001.1 807.795C999.123 803.876 1002.13 800.006 1000.82 798.71C999.388 797.284 994.175 800.382 993.136 800.989C985.374 805.516 970.664 810.953 959.574 808.347C956.762 807.687 949.998 805.196 936.472 800.213Z" stroke="black" stroke-width="0.1687" stroke-miterlimit="10"/>
<path d="M938.564 646.591C936.847 648.28 938.955 651.19 937.898 659.768C937.376 664 936.732 664.358 936.558 667.433C936.323 672.04 937.341 676.625 939.503 680.699C947.054 693.449 984.748 689.225 997.087 674.302C999.612 671.851 1001.17 668.573 1001.47 665.068C1001.47 658.734 995.209 655.802 996.249 649.346C996.641 646.909 997.866 645.144 996.864 643.676C995.892 642.251 993.471 642.26 991.928 642.369C980.948 643.146 969.768 652.094 958.367 652.037C947.824 651.984 941.471 643.729 938.564 646.591Z" stroke="black" stroke-width="0.1687" stroke-miterlimit="10"/>
<path d="M933.295 700.961C932.449 703.035 937.196 705.65 937.099 711.302C937.026 712.996 936.868 714.686 936.625 716.365C936.195 719.455 935.848 720.071 935.907 720.608C936.629 727.234 999.08 724.699 1001.85 717.266C1002.47 715.847 1002.71 714.29 1002.54 712.75C1002.1 710.742 1000.74 709.88 1001.08 708.094C1001.34 707.372 1001.55 706.636 1001.73 705.891C1001.83 705.152 1001.85 704.404 1001.79 703.661C1001.8 702.075 1001.41 700.512 1000.64 699.122C999.879 697.733 998.771 696.563 997.425 695.724C995.899 694.978 994.226 694.583 992.528 694.568C983.025 694.173 968.132 699.39 958.725 700.574C944.69 702.341 934.669 697.594 933.295 700.961Z" stroke="black" stroke-width="0.1687" stroke-miterlimit="10"/>
<path d="M936.472 750.267C935.85 750.038 933.939 749.333 932.919 750.199C930.979 751.844 935.34 756.551 933.794 762.571C932.911 766.009 930.838 767.008 930.853 770.687C930.917 772.303 931.303 773.89 931.989 775.354C936.633 785.008 999.735 779.102 1002.99 768.538C1003.96 765.845 1003.9 762.886 1002.81 760.238C1002.14 758.97 1001.71 759.069 1001.1 757.85C999.123 753.931 1002.13 750.061 1000.82 748.765C999.387 747.34 994.175 750.438 993.135 751.044C985.373 755.572 970.664 761.009 959.574 758.402C956.762 757.74 949.998 755.249 936.472 750.267Z" stroke="black" stroke-width="0.1687" stroke-miterlimit="10"/>
<path d="M930.708 849.69C928.921 851.686 933.823 855.39 932.534 862.575C931.617 867.681 928.275 870.631 929.705 874.833C930.154 875.981 930.827 877.029 931.686 877.914C939.373 885.906 1002.15 886.76 1004.44 871.714C1004.98 868.207 1001.77 866.83 1000.8 858.615C999.742 849.576 1003.11 846.816 1000.95 843.211C997.366 837.229 982.949 836.22 973.104 842.052C964.745 847.003 966.1 853.084 959.271 855.64C947.669 859.983 933.898 846.128 930.708 849.69Z" stroke="black" stroke-width="0.1687" stroke-miterlimit="10"/>
<path d="M929.725 492.732C926.781 495.513 927.778 502.425 929.568 514.825C929.753 516.9 930.133 518.953 930.703 520.956C937.109 536.274 996.142 537.559 1004.76 517.044C1008.18 508.918 1004.87 494.551 996.786 490.321C995.246 489.556 993.567 489.112 991.85 489.014C977.95 487.609 970.661 497.259 958.288 498.682C943.162 500.422 934.468 488.252 929.725 492.732Z" stroke="black" stroke-width="0.1687" stroke-miterlimit="10"/>
<path d="M930.263 528.7C927.318 531.481 928.316 538.393 930.106 550.793C930.29 552.868 930.67 554.921 931.239 556.925C937.645 572.242 996.678 573.528 1005.3 553.012C1008.71 544.886 1005.41 530.519 997.322 526.289C995.783 525.524 994.103 525.08 992.387 524.982C978.487 523.577 971.198 533.227 958.825 534.65C943.7 536.39 935.006 524.22 930.263 528.7Z" stroke="black" stroke-width="0.1687" stroke-miterlimit="10"/>
<path d="M924.918 567.047C921.973 569.827 922.971 576.74 924.761 589.14C924.946 591.215 925.326 593.267 925.896 595.271C932.302 610.589 991.335 611.874 999.955 591.359C1003.37 583.233 1000.06 568.866 991.979 564.636C990.439 563.871 988.76 563.426 987.043 563.329C973.143 561.924 965.854 571.574 953.481 572.997C938.355 574.737 929.661 562.567 924.918 567.047Z" stroke="black" stroke-width="0.1687" stroke-miterlimit="10"/>
<path d="M935.822 1485.82C933.415 1488.78 932.143 1492.5 932.233 1496.31C932.742 1503.76 939.915 1508.75 942.992 1510.87C967.383 1527.65 1011.76 1515.68 1025.97 1501.28C1029.47 1498.09 1031.71 1493.75 1032.27 1489.05C1032.57 1484.58 1030.96 1478.69 1027.04 1476.9C1025.61 1476.47 1024.11 1476.34 1022.63 1476.53C1021.15 1476.72 1019.72 1477.21 1018.45 1477.99C998.392 1487.55 950.101 1467.76 935.822 1485.82Z" stroke="black" stroke-width="0.1687" stroke-miterlimit="10"/>
<path d="M929.201 1423.94C927.049 1427.03 925.806 1430.66 925.612 1434.43C925.562 1439.37 926.95 1444.22 929.607 1448.39C941.305 1466.66 1002.88 1455.98 1019.35 1439.39C1022.85 1436.21 1025.09 1431.86 1025.65 1427.16C1025.95 1422.69 1024.34 1416.81 1020.42 1415.02C1018.99 1414.59 1017.49 1414.46 1016.01 1414.65C1014.53 1414.83 1013.1 1415.33 1011.83 1416.1C991.773 1425.66 943.482 1405.88 929.201 1423.94Z" stroke="black" stroke-width="0.1687" stroke-miterlimit="10"/>
<path d="M924.97 1362.32C921.968 1366.78 923.024 1374.16 924.068 1381.44C924.573 1385.98 925.836 1390.41 927.805 1394.54C938.888 1413.18 995.77 1399.21 1011.75 1383.11C1015.26 1379.92 1017.49 1375.58 1018.05 1370.87C1018.35 1366.41 1016.75 1360.52 1012.82 1358.73C1011.4 1358.3 1009.89 1358.17 1008.41 1358.36C1006.93 1358.55 1005.51 1359.04 1004.23 1359.82C985.04 1368.98 934.802 1347.71 924.97 1362.32Z" stroke="black" stroke-width="0.1687" stroke-miterlimit="10"/>
<path d="M924.721 1296.03C923.402 1298.55 923.983 1303.91 925.145 1314.61C925.271 1319.24 926.084 1323.84 927.556 1328.24C936.601 1346.05 999.172 1333.92 1011.5 1316.81C1013.79 1313.87 1015.04 1310.26 1015.09 1306.54C1014.97 1301.47 1012.06 1295.57 1007.45 1293.95C1006.33 1293.56 1005.15 1293.42 1003.98 1293.52C989.24 1294.73 932.93 1280.3 924.721 1296.03Z" stroke="black" stroke-width="0.1687" stroke-miterlimit="10"/>
<path d="M924.721 1224.46C923.402 1226.99 923.983 1232.34 925.145 1243.04C925.271 1247.68 926.084 1252.27 927.556 1256.67C936.601 1274.49 999.172 1262.35 1011.5 1245.24C1013.79 1242.3 1015.04 1238.69 1015.09 1234.97C1014.97 1229.9 1012.06 1224 1007.45 1222.38C1006.33 1221.99 1005.15 1221.85 1003.98 1221.95C989.24 1223.16 932.93 1208.73 924.721 1224.46Z" stroke="black" stroke-width="0.1687" stroke-miterlimit="10"/>
<path d="M930.591 1145.19C925.966 1148.86 925.775 1158.89 925.654 1165.23C925.398 1167.72 925.555 1170.23 926.118 1172.67C931.835 1189.21 995.143 1186.6 1008 1168.92C1010.29 1165.98 1011.55 1162.37 1011.58 1158.65C1011.47 1153.58 1008.56 1147.68 1003.95 1146.06C1002.83 1145.67 1001.65 1145.53 1000.48 1145.63C988.624 1146.52 970.605 1151.29 959.154 1151.14C942.773 1150.92 936.371 1140.59 930.591 1145.19Z" stroke="black" stroke-width="0.1687" stroke-miterlimit="10"/>
<path d="M931.917 1079.27C927.222 1082.7 928.318 1091.69 930.965 1097.29C931.767 1098.99 932.798 1100.58 934.03 1102C946.31 1115.63 1010.62 1106.24 1012.04 1095.03C1012.14 1094.25 1011.8 1094.59 1010.48 1090.47C1008.36 1083.83 1008.63 1081.05 1005.92 1075.85C1005.56 1075.03 1005.11 1074.25 1004.57 1073.53C998.871 1068.75 982.823 1082.97 960.682 1082.65C944.855 1082.42 937.277 1075.34 931.917 1079.27Z" stroke="black" stroke-width="0.1687" stroke-miterlimit="10"/>
<path d="M928.67 914.981C925.726 917.762 926.723 924.674 928.513 937.074C928.698 939.149 929.079 941.202 929.648 943.206C936.054 958.523 995.087 959.809 1003.71 939.293C1007.12 931.168 1003.81 916.801 995.732 912.57C994.192 911.805 992.512 911.361 990.796 911.264C976.896 909.858 969.606 919.508 957.234 920.931C942.107 922.671 933.414 910.502 928.67 914.981Z" stroke="black" stroke-width="0.1687" stroke-miterlimit="10"/>
<path d="M929.201 1423.94C927.049 1427.03 925.806 1430.66 925.612 1434.43C925.562 1439.37 926.95 1444.22 929.607 1448.39C941.305 1466.66 1002.88 1455.98 1019.35 1439.39C1022.85 1436.21 1025.09 1431.86 1025.65 1427.16C1025.95 1422.69 1024.34 1416.81 1020.42 1415.02C1018.99 1414.59 1017.49 1414.46 1016.01 1414.65C1014.53 1414.83 1013.1 1415.33 1011.83 1416.1C991.773 1425.66 943.482 1405.88 929.201 1423.94Z" stroke="black" stroke-width="0.1687" stroke-miterlimit="10"/>
<path d="M994.999 1788.68L1013.36 1789.06C1014 1789.48 1026.36 1797.81 1025.27 1812.06C1024.24 1825.45 1012.26 1832.1 1011.27 1832.63C1006.81 1831.39 1002.08 1831.56 997.727 1833.14C992.531 1827.39 989.301 1820.14 988.504 1812.43C987.801 1804 990.101 1795.58 994.999 1788.68Z" stroke="black" stroke-width="0.1687" stroke-miterlimit="10"/>
<path d="M456.825 1292.75C442.095 1291.37 429.584 1309.5 424.815 1320.89C419.813 1332.84 416.166 1354.49 427.278 1363.59C440.626 1374.52 472.97 1365.46 481.474 1343.06C489.549 1321.8 473.92 1294.35 456.825 1292.75Z" stroke="black" stroke-width="0.1687" stroke-miterlimit="10"/>
<path d="M489.397 1303.02C510.577 1297.77 537.026 1306.34 543.37 1323.05C552.307 1346.58 521.699 1387.15 490.508 1383.3C471.44 1380.95 451.027 1361.86 452.735 1339.78C454.343 1318.97 474.737 1306.66 489.397 1303.02Z" stroke="black" stroke-width="0.1687" stroke-miterlimit="10"/>
<path d="M1395.11 1319.25C1409.9 1319.77 1419.98 1339.36 1423.25 1351.27C1426.68 1363.76 1427.51 1385.7 1415.33 1393.3C1400.69 1402.42 1369.77 1389.28 1364.21 1365.99C1358.93 1343.86 1377.96 1318.64 1395.11 1319.25Z" stroke="black" stroke-width="0.1687" stroke-miterlimit="10"/>
<path d="M1361.49 1325.26C1341.16 1317.33 1313.83 1322.44 1305.4 1338.2C1293.52 1360.39 1318.67 1404.54 1350.09 1404.73C1369.31 1404.84 1392 1388.53 1393.14 1366.41C1394.21 1345.57 1375.56 1330.75 1361.49 1325.26Z" stroke="black" stroke-width="0.1687" stroke-miterlimit="10"/>
<path d="M943.256 3647.36C940.039 3653.31 938.483 3660.02 938.75 3666.79C939.017 3673.55 941.097 3680.11 944.773 3685.8C962.883 3711.12 1022.75 3706.29 1041.31 3675.15C1042.53 3673.1 1052.11 3656.5 1045.08 3643.17C1031.42 3617.27 961.06 3615.06 943.256 3647.36Z" stroke="black" stroke-width="0.1687" stroke-miterlimit="10"/>
<path d="M1016.67 2689.76C1012.79 2695.62 1010.27 2702.27 1009.29 2709.23C1008.3 2716.19 1008.89 2723.28 1010.99 2729.99C1016.69 2747.26 1032.37 2755.66 1042.23 2760.76C1079.35 2779.95 1142.63 2784.1 1161.51 2751.29C1169.72 2737.02 1168.31 2717.9 1161.04 2703.96C1136.99 2657.87 1041.57 2654.4 1016.67 2689.76Z" stroke="black" stroke-width="0.1687" stroke-miterlimit="10"/>
<path d="M314.765 3642.97C306.699 3654.88 311.168 3670.29 312.37 3674.44C319.389 3698.64 347.307 3722.47 377.36 3716.16C404.967 3710.37 426.638 3680.78 420.116 3659.73C414.251 3640.79 387.565 3635.17 374.281 3632.37C366.214 3630.67 328.484 3622.71 314.765 3642.97Z" stroke="black" stroke-width="0.1687" stroke-miterlimit="10"/>
<path d="M521 2684.78C498.456 2693.4 480.709 2721.73 484.402 2748.42C489.258 2783.52 529.18 2801.41 557.887 2803.22C585.823 2804.97 622.99 2792.74 628.801 2770.18C638.113 2734.03 568.076 2666.79 521 2684.78Z" stroke="black" stroke-width="0.1687" stroke-miterlimit="10"/>
</svg>
