<svg width="1545" height="3929" viewBox="0 0 1545 3929" fill="none" xmlns="http://www.w3.org/2000/svg">
<path d="M923.809 1552.31C921.208 1555.35 919.395 1558.98 918.529 1562.88C917.663 1566.79 917.772 1570.84 918.844 1574.7C926.839 1598.02 988.545 1612.31 1026.83 1585.73C1047.36 1571.49 1062.39 1544.64 1055.39 1534.55C1047.68 1523.43 1022.04 1545.38 964.938 1544.12C949.378 1543.78 932.868 1541.75 923.809 1552.31Z" fill="#DBE2F1" stroke="#282724" stroke-width="0.1687" stroke-miterlimit="10"/>
<path d="M930.702 1032.69C928.55 1036.14 931.441 1046.04 931.192 1050.4C931.077 1052.41 930.998 1053.41 930.982 1053.56C930.837 1054.38 930.769 1055.21 930.779 1056.05C930.821 1056.26 930.877 1056.48 930.947 1056.69C931.722 1058.96 1006.47 1059.88 1007.88 1047.15C1007.45 1043.45 1007.24 1039.72 1007.26 1035.99C1007.48 1034.25 1007.32 1032.48 1006.77 1030.81C1005.92 1028.84 1004.56 1027.12 1002.82 1025.86C996.503 1021.26 979.156 1034.18 958.533 1034.42C943.94 1034.59 933.416 1028.34 930.702 1032.69Z" fill="#DBE2F1" stroke="#282724" stroke-width="0.1687" stroke-miterlimit="10"/>
<path d="M928.175 970.469C925.788 973.267 929.931 978.264 929.398 992.4C929.213 997.319 928.686 997.415 929.153 998.694C934.7 1013.83 1007.21 996.273 1007.41 994.885C1007.55 993.93 1007.2 994.324 1006.09 989.157C1004.29 980.824 1004.7 977.402 1002.25 970.807C1001.95 969.785 1001.53 968.798 1001.03 967.859C995.572 961.603 978.835 978.181 956.739 976.42C941.22 975.183 931.6 966.457 928.175 970.469Z" fill="#DBE2F1" stroke="#282724" stroke-width="0.1687" stroke-miterlimit="10"/>
<path d="M936.472 800.215C935.864 799.991 934.058 799.312 932.919 800.146C931.251 801.369 931.952 805.151 932.369 807.397C933.179 811.76 934.42 812.035 934.068 814.221C933.595 817.147 931.214 817.612 930.854 820.634C930.859 822.257 931.248 823.856 931.989 825.3C936.412 834.494 997.182 837.53 1002.99 818.484C1003.62 816.216 1003.58 813.815 1002.87 811.57C1002.53 810.498 1002.08 809.466 1001.52 808.49C1001.3 808.119 1001.14 807.877 1001.1 807.796C999.123 803.877 1002.13 800.007 1000.82 798.711C999.388 797.286 994.176 800.384 993.136 800.99C985.374 805.518 970.664 810.954 959.574 808.348C956.762 807.688 949.999 805.197 936.472 800.215Z" fill="#DBE2F1" stroke="#282724" stroke-width="0.1687" stroke-miterlimit="10"/>
<path d="M938.566 646.589C936.849 648.278 938.957 651.189 937.9 659.766C937.378 663.999 936.734 664.357 936.561 667.432C936.325 672.039 937.343 676.623 939.506 680.698C947.057 693.447 984.75 689.224 997.089 674.3C999.615 671.85 1001.17 668.571 1001.48 665.066C1001.47 658.732 995.212 655.801 996.251 649.344C996.643 646.907 997.868 645.142 996.866 643.674C995.895 642.249 993.474 642.258 991.931 642.368C980.95 643.145 969.77 652.092 958.369 652.035C947.826 651.983 941.473 643.727 938.566 646.589Z" fill="#DBE2F1" stroke="#282724" stroke-width="0.1687" stroke-miterlimit="10"/>
<path d="M933.296 700.961C932.45 703.036 937.198 705.651 937.1 711.302C937.027 712.997 936.869 714.686 936.626 716.365C936.196 719.455 935.849 720.071 935.908 720.608C936.63 727.235 999.082 724.7 1001.85 717.266C1002.47 715.847 1002.71 714.29 1002.54 712.75C1002.1 710.742 1000.74 709.88 1001.08 708.094C1001.34 707.372 1001.55 706.637 1001.73 705.892C1001.83 705.152 1001.85 704.405 1001.79 703.661C1001.8 702.075 1001.41 700.512 1000.65 699.123C999.881 697.733 998.772 696.563 997.426 695.724C995.9 694.978 994.227 694.583 992.529 694.568C983.026 694.173 968.134 699.39 958.726 700.575C944.692 702.342 934.67 697.595 933.296 700.961Z" fill="#DBE2F1" stroke="#282724" stroke-width="0.1687" stroke-miterlimit="10"/>
<path d="M936.472 750.267C935.851 750.038 933.94 749.333 932.92 750.199C930.98 751.845 935.341 756.552 933.794 762.572C932.912 766.009 930.838 767.009 930.854 770.688C930.917 772.304 931.303 773.89 931.989 775.354C936.633 785.009 999.735 779.102 1002.99 768.538C1003.96 765.846 1003.9 762.886 1002.81 760.238C1002.14 758.97 1001.71 759.07 1001.1 757.851C999.123 753.931 1002.13 750.061 1000.82 748.766C999.388 747.34 994.176 750.438 993.136 751.045C985.374 755.572 970.664 761.009 959.574 758.402C956.763 757.741 949.999 755.249 936.472 750.267Z" fill="#DBE2F1" stroke="#282724" stroke-width="0.1687" stroke-miterlimit="10"/>
<path d="M930.709 849.69C928.922 851.686 933.824 855.39 932.535 862.575C931.619 867.681 928.277 870.631 929.706 874.833C930.155 875.981 930.828 877.029 931.687 877.915C939.374 885.907 1002.15 886.76 1004.45 871.714C1004.98 868.207 1001.77 866.83 1000.81 858.615C999.743 849.576 1003.11 846.816 1000.95 843.211C997.367 837.229 982.95 836.22 973.105 842.052C964.747 847.003 966.102 853.084 959.272 855.64C947.671 859.983 933.899 846.128 930.709 849.69Z" fill="#DBE2F1" stroke="#282724" stroke-width="0.1687" stroke-miterlimit="10"/>
<path d="M929.727 492.732C926.783 495.513 927.78 502.425 929.57 514.825C929.755 516.9 930.135 518.953 930.705 520.956C937.111 536.274 996.144 537.559 1004.76 517.044C1008.18 508.918 1004.87 494.551 996.788 490.321C995.248 489.556 993.569 489.112 991.852 489.014C977.952 487.609 970.663 497.259 958.29 498.682C943.164 500.422 934.47 488.252 929.727 492.732Z" fill="#DBE2F1" stroke="#282724" stroke-width="0.1687" stroke-miterlimit="10"/>
<path d="M930.264 528.701C927.32 531.482 928.317 538.394 930.107 550.794C930.292 552.869 930.671 554.922 931.241 556.925C937.646 572.243 996.679 573.529 1005.3 553.012C1008.71 544.887 1005.41 530.52 997.324 526.29C995.784 525.525 994.105 525.08 992.388 524.983C978.488 523.578 971.199 533.228 958.826 534.651C943.701 536.391 935.008 524.221 930.264 528.701Z" fill="#DBE2F1" stroke="#282724" stroke-width="0.1687" stroke-miterlimit="10"/>
<path d="M924.919 567.048C921.974 569.829 922.972 576.741 924.761 589.141C924.946 591.216 925.326 593.269 925.896 595.273C932.302 610.59 991.335 611.876 999.956 591.36C1003.37 583.234 1000.06 568.868 991.98 564.637C990.44 563.872 988.761 563.428 987.044 563.331C973.144 561.925 965.855 571.575 953.482 572.999C938.355 574.739 929.662 562.569 924.919 567.048Z" fill="#DBE2F1" stroke="#282724" stroke-width="0.1687" stroke-miterlimit="10"/>
<path d="M935.824 1485.83C933.417 1488.78 932.144 1492.5 932.235 1496.31C932.743 1503.76 939.916 1508.75 942.994 1510.87C967.384 1527.65 1011.76 1515.68 1025.97 1501.28C1029.47 1498.09 1031.71 1493.75 1032.27 1489.05C1032.57 1484.58 1030.96 1478.69 1027.04 1476.9C1025.61 1476.47 1024.11 1476.35 1022.63 1476.53C1021.15 1476.72 1019.72 1477.22 1018.45 1477.99C998.394 1487.55 950.103 1467.77 935.824 1485.83Z" fill="#DBE2F1" stroke="#282724" stroke-width="0.1687" stroke-miterlimit="10"/>
<path d="M929.203 1423.94C927.052 1427.03 925.808 1430.66 925.615 1434.43C925.564 1439.37 926.952 1444.22 929.609 1448.39C941.308 1466.66 1002.88 1455.98 1019.35 1439.39C1022.85 1436.21 1025.09 1431.86 1025.65 1427.16C1025.95 1422.69 1024.34 1416.81 1020.42 1415.02C1018.99 1414.59 1017.49 1414.46 1016.01 1414.65C1014.53 1414.83 1013.1 1415.33 1011.83 1416.1C991.775 1425.66 943.484 1405.88 929.203 1423.94Z" fill="#DBE2F1" stroke="#282724" stroke-width="0.1687" stroke-miterlimit="10"/>
<path d="M924.971 1362.32C921.969 1366.78 923.025 1374.16 924.069 1381.44C924.574 1385.98 925.837 1390.41 927.805 1394.53C938.889 1413.18 995.771 1399.21 1011.75 1383.11C1015.26 1379.92 1017.49 1375.58 1018.05 1370.87C1018.36 1366.41 1016.75 1360.52 1012.82 1358.73C1011.4 1358.3 1009.89 1358.17 1008.41 1358.36C1006.93 1358.55 1005.51 1359.04 1004.23 1359.82C985.041 1368.98 934.803 1347.71 924.971 1362.32Z" fill="#DBE2F1" stroke="#282724" stroke-width="0.1687" stroke-miterlimit="10"/>
<path d="M924.722 1296.03C923.403 1298.55 923.984 1303.9 925.147 1314.6C925.273 1319.24 926.085 1323.84 927.557 1328.24C936.603 1346.05 999.173 1333.92 1011.5 1316.81C1013.79 1313.87 1015.04 1310.26 1015.09 1306.54C1014.97 1301.47 1012.07 1295.57 1007.45 1293.94C1006.34 1293.56 1005.15 1293.41 1003.98 1293.52C989.241 1294.73 932.931 1280.3 924.722 1296.03Z" fill="#DBE2F1" stroke="#282724" stroke-width="0.1687" stroke-miterlimit="10"/>
<path d="M924.722 1224.46C923.403 1226.99 923.984 1232.34 925.147 1243.04C925.273 1247.68 926.085 1252.27 927.557 1256.67C936.603 1274.49 999.173 1262.35 1011.5 1245.24C1013.79 1242.3 1015.04 1238.69 1015.09 1234.97C1014.97 1229.9 1012.07 1224 1007.45 1222.38C1006.34 1221.99 1005.15 1221.85 1003.98 1221.95C989.241 1223.16 932.931 1208.73 924.722 1224.46Z" fill="#DBE2F1" stroke="#282724" stroke-width="0.1687" stroke-miterlimit="10"/>
<path d="M930.592 1145.19C925.966 1148.86 925.775 1158.89 925.654 1165.23C925.398 1167.72 925.555 1170.23 926.118 1172.67C931.836 1189.21 995.144 1186.6 1008 1168.92C1010.29 1165.98 1011.55 1162.37 1011.58 1158.65C1011.47 1153.58 1008.56 1147.68 1003.95 1146.06C1002.83 1145.68 1001.65 1145.53 1000.48 1145.63C988.624 1146.52 970.606 1151.29 959.155 1151.14C942.774 1150.92 936.372 1140.59 930.592 1145.19Z" fill="#DBE2F1" stroke="#282724" stroke-width="0.1687" stroke-miterlimit="10"/>
<path d="M931.919 1079.27C927.224 1082.7 928.32 1091.68 930.967 1097.28C931.769 1098.99 932.8 1100.58 934.032 1102C946.312 1115.63 1010.62 1106.24 1012.04 1095.03C1012.14 1094.25 1011.8 1094.59 1010.48 1090.47C1008.36 1083.83 1008.63 1081.05 1005.92 1075.85C1005.56 1075.03 1005.11 1074.25 1004.57 1073.53C998.873 1068.75 982.825 1082.97 960.684 1082.65C944.857 1082.42 937.279 1075.34 931.919 1079.27Z" fill="#DBE2F1" stroke="#282724" stroke-width="0.1687" stroke-miterlimit="10"/>
<path d="M928.672 914.982C925.728 917.763 926.725 924.675 928.515 937.075C928.701 939.15 929.081 941.203 929.65 943.206C936.056 958.524 995.089 959.809 1003.71 939.294C1007.12 931.168 1003.82 916.801 995.733 912.571C994.194 911.806 992.514 911.362 990.798 911.264C976.898 909.859 969.608 919.509 957.236 920.932C942.109 922.672 933.416 910.502 928.672 914.982Z" fill="#DBE2F1" stroke="#282724" stroke-width="0.1687" stroke-miterlimit="10"/>
<path d="M929.203 1423.94C927.052 1427.03 925.808 1430.66 925.615 1434.43C925.564 1439.37 926.952 1444.22 929.609 1448.39C941.308 1466.66 1002.88 1455.98 1019.35 1439.39C1022.85 1436.21 1025.09 1431.86 1025.65 1427.16C1025.95 1422.69 1024.34 1416.81 1020.42 1415.02C1018.99 1414.59 1017.49 1414.46 1016.01 1414.65C1014.53 1414.83 1013.1 1415.33 1011.83 1416.1C991.775 1425.66 943.484 1405.88 929.203 1423.94Z" fill="#DBE2F1" stroke="#282724" stroke-width="0.1687" stroke-miterlimit="10"/>
<path d="M995 1788.68L1013.36 1789.06C1014 1789.48 1026.36 1797.81 1025.27 1812.06C1024.25 1825.46 1012.26 1832.1 1011.27 1832.63C1006.81 1831.39 1002.08 1831.56 997.728 1833.14C992.532 1827.39 989.302 1820.14 988.505 1812.43C987.802 1804 990.102 1795.58 995 1788.68Z" fill="#DBE2F1" stroke="#282724" stroke-width="0.1687" stroke-miterlimit="10"/>
<path d="M456.826 1292.75C442.096 1291.37 429.585 1309.5 424.815 1320.89C419.813 1332.84 416.167 1354.49 427.278 1363.59C440.626 1374.52 472.97 1365.45 481.475 1343.06C489.55 1321.8 473.92 1294.34 456.826 1292.75Z" fill="#DBE2F1" stroke="#282724" stroke-width="0.1687" stroke-miterlimit="10"/>
<path d="M489.397 1303.02C510.577 1297.76 537.025 1306.34 543.37 1323.05C552.306 1346.58 521.699 1387.14 490.508 1383.3C471.44 1380.95 451.027 1361.86 452.735 1339.78C454.343 1318.97 474.737 1306.66 489.397 1303.02Z" fill="#DBE2F1" stroke="#282724" stroke-width="0.1687" stroke-miterlimit="10"/>
<path d="M1395.11 1319.25C1409.9 1319.77 1419.98 1339.35 1423.25 1351.27C1426.68 1363.76 1427.52 1385.69 1415.33 1393.29C1400.69 1402.42 1369.78 1389.28 1364.21 1365.98C1358.93 1343.86 1377.96 1318.64 1395.11 1319.25Z" fill="#DBE2F1" stroke="#282724" stroke-width="0.1687" stroke-miterlimit="10"/>
<path d="M1361.5 1325.26C1341.16 1317.33 1313.84 1322.44 1305.4 1338.2C1293.52 1360.39 1318.67 1404.54 1350.1 1404.73C1369.31 1404.84 1392 1388.53 1393.14 1366.41C1394.21 1345.57 1375.57 1330.75 1361.5 1325.26Z" fill="#DBE2F1" stroke="#282724" stroke-width="0.1687" stroke-miterlimit="10"/>
<path d="M943.258 3647.36C940.041 3653.31 938.485 3660.02 938.752 3666.79C939.019 3673.55 941.099 3680.11 944.775 3685.8C962.885 3711.12 1022.76 3706.29 1041.31 3675.15C1042.53 3673.1 1052.11 3656.5 1045.08 3643.17C1031.42 3617.27 961.062 3615.06 943.258 3647.36Z" fill="#DBE2F1" stroke="#282724" stroke-width="0.1687" stroke-miterlimit="10"/>
<path d="M1016.67 2689.76C1012.79 2695.62 1010.27 2702.27 1009.29 2709.23C1008.31 2716.19 1008.89 2723.28 1010.99 2729.99C1016.69 2747.26 1032.37 2755.66 1042.23 2760.75C1079.35 2779.94 1142.63 2784.1 1161.51 2751.29C1169.72 2737.02 1168.31 2717.9 1161.04 2703.96C1136.99 2657.87 1041.57 2654.4 1016.67 2689.76Z" fill="#DBE2F1" stroke="#282724" stroke-width="0.1687" stroke-miterlimit="10"/>
<path d="M314.765 3642.97C306.699 3654.88 311.168 3670.29 312.37 3674.44C319.389 3698.64 347.307 3722.47 377.36 3716.16C404.967 3710.37 426.638 3680.78 420.116 3659.73C414.251 3640.79 387.565 3635.17 374.281 3632.37C366.214 3630.67 328.484 3622.71 314.765 3642.97Z" fill="#DBE2F1" stroke="#282724" stroke-width="0.1687" stroke-miterlimit="10"/>
<path d="M521 2684.78C498.456 2693.39 480.709 2721.73 484.402 2748.42C489.258 2783.52 529.18 2801.41 557.887 2803.21C585.823 2804.97 622.99 2792.74 628.801 2770.18C638.113 2734.03 568.076 2666.79 521 2684.78Z" fill="#DBE2F1" stroke="#282724" stroke-width="0.1687" stroke-miterlimit="10"/>
</svg>
