<svg width="1545" height="3929" viewBox="0 0 1545 3929" fill="none" xmlns="http://www.w3.org/2000/svg">
<path d="M895.877 659.36C892.582 657.679 891.202 658.137 884.358 656.417C877.517 654.699 870.909 652.161 864.676 648.859C861.923 650.559 859.551 652.81 857.709 655.469C855.867 658.129 854.595 661.141 853.973 664.316C853.35 667.491 853.391 670.76 854.092 673.919C854.794 677.077 856.14 680.057 858.048 682.67C864.641 685.084 869.895 687.199 873.271 688.592C893.232 696.834 903.213 700.954 910.627 705.255C915.813 708.262 918.267 710.079 919.544 709.101C921.431 707.658 918.213 701.943 909.92 682.534C903.496 667.5 901.765 662.36 895.877 659.36Z" fill="black"/>
<path d="M1088.5 666.386C1087.04 660.429 1083.49 655.193 1078.5 651.625C1074.52 653.503 1070.32 654.851 1066 655.634C1059.71 656.223 1053.48 657.367 1047.4 659.053C1045.8 659.714 1044.25 660.482 1042.75 661.353C1032.6 667.381 1032.08 677.505 1021.42 698.256C1017.15 706.563 1014.23 710.782 1015.62 712.15C1017.2 713.721 1022.16 709.43 1031.12 705.515C1046.82 698.659 1053.23 702.394 1068.42 695.938C1074.42 693.363 1080.05 689.979 1085.14 685.881C1088.79 680.082 1090 673.074 1088.5 666.386Z" fill="black"/>
<path d="M818.793 1183.24H818.739C816.809 1194.34 813.599 1205.18 809.174 1215.54C801.959 1232.37 793.651 1242.75 780.697 1258.82C779.877 1259.81 779.11 1260.85 778.347 1261.77C778.018 1262.16 777.527 1262.76 776.816 1263.58C760.309 1284.02 747.629 1297.96 732.052 1297.96H731.56C725.483 1297.71 719.533 1296.15 714.124 1293.36C713.796 1293.2 713.523 1293.04 713.249 1292.93C712.867 1292.71 712.484 1292.54 712.156 1292.33C711.964 1292.26 711.78 1292.17 711.61 1292.05C706.777 1289.14 702.607 1285.25 699.366 1280.63C698.152 1277.39 697.757 1273.9 698.218 1270.46C698.273 1269.97 698.382 1269.54 698.437 1269.15C698.546 1268.77 698.601 1268.44 698.656 1268.17C698.732 1267.99 698.786 1267.81 698.818 1267.62C699.381 1265.63 700.248 1263.73 701.387 1261.99C701.74 1261.44 702.123 1260.91 702.535 1260.41C703.901 1262.27 714.724 1276.31 727.295 1274.18C729.738 1273.69 732.06 1272.73 734.127 1271.34C735.116 1270.77 736.065 1270.13 736.969 1269.43C737.255 1269.26 737.529 1269.08 737.789 1268.88C741.214 1266.13 744.152 1262.82 746.48 1259.1C747.678 1257.22 748.755 1255.27 749.704 1253.25C750.546 1251.57 751.277 1249.84 751.891 1248.06C761.673 1241.39 771.459 1234.67 781.297 1228C789.365 1220.79 796.392 1212.5 802.176 1203.35C817.371 1179.2 818.574 1156.79 819.885 1156.79C820.816 1156.95 821.526 1167.77 818.793 1183.24Z" fill="black"/>
<path d="M860.033 1078.67C859.39 1094.76 855.739 1110.58 849.269 1125.31C837.85 1150.89 823.116 1159.8 801.43 1192.68C793.96 1204.01 787.228 1215.8 781.277 1227.99C772.75 1236.38 762.8 1243.18 751.891 1248.08C743.103 1249.9 733.978 1249.15 725.602 1245.93C717.225 1242.71 709.95 1237.15 704.642 1229.92C702.718 1226.47 701.963 1222.49 702.488 1218.58C703.461 1214.93 704.975 1211.45 706.979 1208.25C708.866 1204.47 710.336 1201.4 711.238 1199.5C713.307 1201.61 715.614 1203.46 718.112 1205.04C724.325 1208.93 731.508 1211.01 738.842 1211.02C750.373 1210.61 762.094 1195.81 767.545 1175.54C770.694 1169.96 774.42 1164.73 778.663 1159.92C790.084 1147.01 797.789 1145.81 819.253 1130.78C842.773 1114.3 848.891 1104.99 850.864 1101.79C855.229 1094.67 858.331 1086.85 860.033 1078.67Z" fill="black"/>
<path d="M947.665 955.131C950.065 955.414 952.421 955.997 954.676 956.866C957.317 957.896 959.758 959.378 961.89 961.246C970.833 970.412 933.196 1019.02 933.196 1019.02C919.131 1037.14 904.14 1054.52 888.283 1071.09C854.763 1106.47 836.004 1126.09 806.608 1148.57C790.913 1160.56 777.182 1169.56 767.545 1175.54C751.394 1174.4 735.94 1168.51 723.117 1158.63C721.885 1154.62 721.885 1150.34 723.117 1146.34C724.836 1141.14 728.062 1139.53 730.869 1133.78C732.674 1130.02 733.679 1125.93 733.821 1121.76C745.208 1126.89 757.676 1129.16 770.141 1128.37C775.095 1128.35 779.985 1127.24 784.461 1125.12C790.31 1122.09 794.435 1114.86 802.687 1100.38C803.759 1098.94 804.519 1097.29 804.919 1095.53C805.319 1093.78 805.35 1091.96 805.01 1090.19C804.379 1088.37 803.209 1086.79 801.656 1085.64C804.533 1084.65 807.335 1083.45 810.041 1082.05C819.649 1077.09 823.659 1071.92 829.447 1067.68C837.973 1061.42 845.189 1060.98 852.444 1058.81C869.764 1053.64 880.946 1040.55 894.996 1024.11C920.409 994.375 938.409 954.275 947.665 955.131Z" fill="black"/>
<path d="M927.377 929.358C933.46 930.006 938.383 944.957 939.061 947.092C940.006 950.004 940.628 953.01 940.915 956.057C941.782 968.99 927.833 979.662 908.392 997.99C904.564 1001.6 894.165 1012.15 873.465 1033.34C862.446 1044.62 853.624 1053.96 847.968 1059.99C843.043 1061.4 838.304 1063.39 833.851 1065.92C826.812 1069.93 824.281 1073.16 816.923 1077.88C812.101 1080.96 806.987 1083.56 801.656 1085.64C799.859 1084.89 796.903 1083.72 793.174 1082.53C782.619 1079.17 776.579 1079.08 764.012 1076.33C760.975 1075.67 756.388 1074.6 750.799 1072.98C748.649 1069.5 747.906 1065.33 748.72 1061.31C750.158 1055.58 755.042 1054.06 757.566 1047.53C758.848 1044.04 759.182 1040.27 758.534 1036.61C779.447 1042.32 801.621 1041.4 821.988 1033.97C834.331 1029.18 842.702 1022.52 859.444 1009.2C880.227 992.673 894.921 980.985 907.17 960.878C917.745 943.522 921.135 928.692 927.377 929.358Z" fill="black"/>
<path d="M919.198 902.288C924.116 903.964 927.298 911.265 927.422 916.863C927.275 921.708 925.419 926.346 922.184 929.956C912.914 941.615 901.957 951.826 889.675 960.253C860.935 978.663 846.565 987.868 842.458 989.31C824.103 995.608 804.503 997.4 785.311 994.534C785.544 984.856 787.676 975.317 791.586 966.46C804.146 967.779 816.841 966.846 829.073 963.707C845.969 958.94 861.646 950.606 875.047 939.267C901.332 918.618 909.86 899.107 919.198 902.288Z" fill="black"/>
<path d="M816.621 881.943C829.624 881.591 842.53 879.606 855.037 876.036C868.985 871.943 882.478 866.44 895.31 859.61C910.525 851.124 915.918 845.163 920.745 847.688C926.396 850.645 927.397 863.203 923.13 872.062C919.702 879.176 913.537 882.534 903.788 887.164C877.846 899.484 864.875 905.644 847.088 908.888C834.33 911.207 821.347 912.052 808.395 911.407C807.18 909.814 806.297 907.994 805.798 906.054C805.3 904.113 805.196 902.093 805.494 900.112C806.034 897.461 807.358 896.073 810.979 890.742C813.517 887.007 815.438 883.906 816.621 881.943Z" fill="black"/>
<path d="M838.316 789.695C842.778 788.91 849.262 787.768 857.085 786.38C878.703 782.544 889.512 780.626 890.718 780.316C913.238 774.513 922.549 766.538 928.95 771.579C931.49 774.087 933.163 777.341 933.725 780.867C934.089 782.332 935.903 790.245 932.247 795.96C928.537 801.762 920.846 802.708 915.054 803.6C880.381 808.934 878.681 817.679 844.398 819.323C837.941 819.633 832.741 819.575 829.783 819.505C830.831 816.984 831.463 814.309 831.653 811.586C831.989 806.547 830.545 804.37 830.858 800.944C831.117 798.113 832.599 794.168 838.316 789.695Z" fill="black"/>
<path d="M858.254 717.53C869.655 717.915 881.068 717.417 892.392 716.04C910.147 713.862 920.528 710.317 928.454 716.357C932.418 719.478 935.066 723.972 935.874 728.952C936.15 733.472 935.016 737.967 932.627 741.814C926.265 752.341 892.899 753.283 850.354 745.723C849.298 735.661 852.124 725.577 858.255 717.529L858.254 717.53Z" fill="black"/>
<path d="M1229.31 1269.17C1227.03 1272.18 1224.57 1275.05 1221.94 1277.77C1213.59 1286.4 1209.42 1290.72 1203.7 1291.45C1189.63 1293.26 1179.48 1273.88 1178.97 1272.49C1178.77 1272.02 1178.68 1271.51 1178.7 1271C1178.84 1269.81 1179.77 1269.39 1179.76 1268.36C1179.74 1267.87 1179.55 1267.4 1179.23 1267.03C1172.86 1251.32 1160.57 1238.75 1145 1232.03C1141.49 1228.98 1138.2 1225.69 1135.15 1222.17C1120.57 1204.76 1111.62 1183.33 1109.45 1160.73C1106.74 1173.2 1106.25 1186.05 1108.01 1198.69C1111.62 1224.04 1123.48 1240.11 1146.33 1270.27C1169 1300.19 1180.64 1315.15 1195.51 1315.46C1214.33 1315.86 1228.88 1297.51 1234.21 1290.04C1235.27 1288.19 1235.95 1286.15 1236.22 1284.03C1236.48 1281.91 1236.31 1279.76 1235.73 1277.71C1234.65 1274.2 1232.38 1271.18 1229.31 1269.17Z" fill="black"/>
<path d="M1234.01 1241.2C1229.67 1245.74 1224.9 1249.83 1219.77 1253.43C1210.19 1260.64 1199.05 1265.49 1187.25 1267.58C1184.77 1267.97 1182.27 1268.23 1179.76 1268.36C1166.67 1257.78 1154.99 1245.57 1145 1232.03C1143.44 1227.98 1141.66 1224.03 1139.65 1220.18C1134.89 1211.45 1129.22 1203.24 1122.72 1195.71C1105.91 1174.75 1106.66 1176.95 1101.91 1170.1C1096.07 1161.66 1091.01 1152.7 1086.81 1143.34C1082.17 1132.89 1078.58 1122.01 1076.07 1110.86C1073.98 1101.63 1072.62 1092.26 1072.02 1082.81C1076.24 1098.17 1083.49 1112.54 1093.34 1125.06C1103.18 1137.58 1115.43 1148.01 1129.37 1155.74C1134.53 1157.14 1139.48 1159.21 1144.11 1161.89C1152.83 1166.99 1160.2 1174.1 1165.62 1182.62C1163.95 1184.01 1162.66 1185.78 1161.85 1187.79C1159.08 1194.94 1164.27 1202.71 1167.5 1207.55C1171.17 1213.89 1176.62 1219.02 1183.18 1222.29C1195.55 1227.5 1212.13 1222.27 1224.31 1209.23C1226.1 1210.36 1227.72 1211.74 1229.12 1213.33C1238.04 1223.43 1234.67 1238.46 1234.01 1241.2Z" fill="black"/>
<path d="M1210.67 1169.39C1207.9 1170.91 1204.92 1172.4 1201.73 1173.79C1190.27 1178.74 1178.07 1181.73 1165.62 1182.62C1152.14 1175.71 1139.89 1166.63 1129.37 1155.74C1119.57 1148.69 1110.21 1141.05 1101.35 1132.85C1092.66 1124.81 1081.98 1113.94 1053 1077.06C1032.87 1051.44 1035.48 1053.44 1020.69 1034.75C984.606 989.183 968.145 976.098 973.106 964.425C974.893 961.086 977.646 958.363 981.006 956.615C984.366 954.866 988.175 954.172 991.936 954.624C1000.56 955.952 1004.81 965.415 1011.02 976.548C1012.46 979.126 1034.47 1017.99 1063.13 1041.8C1070.64 1048.02 1078.8 1053.41 1087.48 1057.87C1095.83 1059.54 1103.57 1063.43 1109.9 1069.12C1116.23 1074.82 1120.91 1082.11 1123.44 1090.24C1124.37 1094.88 1125.92 1099.38 1128.07 1103.6C1132.64 1111.87 1139.1 1118.95 1146.93 1124.26C1168.81 1138.44 1195.48 1129.58 1198.51 1128.53C1198.34 1132.59 1198.95 1136.65 1200.29 1140.49C1202.61 1147.07 1205.9 1149.19 1208.42 1155.56C1210.13 1159.96 1210.9 1164.67 1210.67 1169.39Z" fill="black"/>
<path d="M1189.09 1080.63C1168.43 1089.55 1145.79 1092.87 1123.44 1090.24L1087.48 1057.87C1085.23 1054.94 1081.84 1050.6 1077.56 1045.5C1066.16 1032.2 1054 1019.58 1041.15 1007.69C1026.92 993.977 1014.33 978.67 1000.73 964.336C997.531 960.961 992.051 955.203 991.901 947.209C991.711 937.298 999.764 926.585 1006.84 926.796C1011.64 926.94 1014.14 932.054 1021.07 941.589C1027.77 950.799 1036.11 958.704 1043.29 967.548C1054.53 981.406 1065.14 991.149 1086.38 1010.63C1123.99 1045.16 1134.2 1047.9 1140.44 1048.9C1151.96 1050.53 1163.71 1048.94 1174.39 1044.32C1174.15 1047.29 1174.34 1050.27 1174.95 1053.19C1175.94 1057.91 1177.72 1060.8 1183.74 1071.27C1184.77 1073.06 1186.66 1076.36 1189.09 1080.63Z" fill="black"/>
<path d="M1161.74 998.796C1160.44 999.149 1158.51 999.632 1156.13 1000.06C1123.73 1005.95 1094.56 986.678 1073.13 972.098C1042.19 951.049 1039.77 939.956 1021.36 932.736C1016.72 931.298 1012.68 928.362 1009.88 924.387C1004.45 915.715 1006.7 901.269 1013.35 898.359C1017.81 896.407 1023.36 900.036 1028.34 903.463C1050.06 918.398 1057.72 927.423 1069.17 935.959C1083.69 946.471 1100.32 953.72 1117.91 957.208C1128.61 959.567 1139.56 960.608 1150.51 960.308C1151.18 964.692 1152.58 968.933 1154.65 972.858C1157.32 977.9 1159.52 979.343 1161.19 983.399C1163.05 988.334 1163.24 993.741 1161.74 998.796Z" fill="black"/>
<path d="M1123.99 885.413C1114.98 885.492 1106 884.402 1097.27 882.169C1083.31 878.577 1077.7 873.946 1058.31 864.433C1031.8 851.422 1018.42 845.023 1012.37 850.186C1007.55 854.302 1007.68 865.236 1012.08 871.411C1014.14 874.133 1016.98 876.161 1020.22 877.226C1040.48 884.628 1051.05 900.867 1080.41 911.535C1101.81 919.043 1124.7 921.314 1147.16 918.159C1143.75 916.648 1140.83 914.226 1138.7 911.161C1134.45 904.745 1136.76 899.056 1132.51 892.576C1130.39 889.448 1127.44 886.969 1123.99 885.413Z" fill="black"/>
<path d="M1103.08 801.838C1096.55 801.707 1090.02 801.223 1083.54 800.388C1067.88 798.298 1052.5 794.482 1037.68 789.01C1017.16 781.245 1010.38 774.812 1003.89 778.666C1001.28 780.62 999.307 783.294 998.204 786.357C997.101 789.421 996.919 792.74 997.681 795.906C999.222 802.378 1005.84 810.299 1053.89 822.108C1073.64 826.958 1093.63 830.812 1113.77 833.655C1106.99 824.413 1103.26 813.293 1103.08 801.836L1103.08 801.838Z" fill="black"/>
<path d="M1084.42 749.111C1075.84 749.402 1063.95 749.717 1049.75 749.815C1013.79 750.062 1006.71 748.61 1002.97 743.221C997.72 735.665 1000.1 721.895 1006.73 717.788C1008.38 716.982 1010.18 716.512 1012.01 716.404C1013.84 716.296 1015.68 716.553 1017.41 717.16C1027.4 719.679 1044.53 721.837 1076.52 721.217C1079.62 725.112 1081.91 729.583 1083.27 734.371C1084.63 739.16 1085.02 744.17 1084.42 749.111Z" fill="black"/>
<path d="M801.656 1085.64C803.209 1086.79 804.379 1088.37 805.01 1090.19C805.35 1091.96 805.319 1093.78 804.919 1095.53C804.519 1097.29 803.759 1098.94 802.687 1100.38C794.435 1114.86 790.31 1122.09 784.461 1125.12C779.985 1127.24 775.095 1128.35 770.141 1128.37C757.676 1129.16 745.208 1126.89 733.821 1121.76C733.679 1125.93 732.674 1130.02 730.869 1133.78C728.062 1139.53 724.836 1141.14 723.117 1146.34C721.885 1150.34 721.885 1154.62 723.117 1158.63C735.94 1168.51 751.394 1174.4 767.545 1175.54C777.182 1169.56 790.913 1160.56 806.608 1148.57C836.004 1126.09 854.763 1106.47 888.283 1071.09C904.14 1054.52 919.131 1037.14 933.196 1019.02C933.196 1019.02 970.833 970.412 961.89 961.246C959.758 959.378 957.317 957.896 954.676 956.866C952.421 955.997 950.065 955.414 947.665 955.131C938.409 954.275 920.409 994.375 894.996 1024.11C880.946 1040.55 869.764 1053.64 852.444 1058.81C845.189 1060.98 837.973 1061.42 829.447 1067.68C823.659 1071.92 819.649 1077.09 810.041 1082.05C807.335 1083.45 804.533 1084.65 801.656 1085.64ZM801.656 1085.64C806.987 1083.56 812.101 1080.96 816.923 1077.88C824.281 1073.16 826.812 1069.93 833.851 1065.92C838.304 1063.39 843.043 1061.4 847.968 1059.99C853.624 1053.96 862.446 1044.62 873.465 1033.34C894.165 1012.15 904.564 1001.6 908.392 997.99C927.833 979.662 941.782 968.99 940.915 956.057C940.628 953.01 940.006 950.004 939.061 947.092C938.383 944.957 933.46 930.006 927.377 929.358C921.135 928.692 917.745 943.522 907.17 960.878C894.921 980.985 880.227 992.673 859.444 1009.2C842.702 1022.52 834.331 1029.18 821.988 1033.97C801.621 1041.4 779.447 1042.32 758.534 1036.61C759.182 1040.27 758.848 1044.04 757.566 1047.53C755.042 1054.06 750.158 1055.58 748.72 1061.31C747.906 1065.33 748.649 1069.5 750.799 1072.98C756.388 1074.6 760.975 1075.67 764.012 1076.33C776.579 1079.08 782.619 1079.17 793.174 1082.53C796.903 1083.72 799.859 1084.89 801.656 1085.64ZM1129.37 1155.74C1115.43 1148.01 1103.18 1137.58 1093.34 1125.06C1083.49 1112.54 1076.24 1098.17 1072.02 1082.81C1072.62 1092.26 1073.98 1101.63 1076.07 1110.86C1078.58 1122.01 1082.17 1132.89 1086.81 1143.34C1091.01 1152.7 1096.07 1161.66 1101.91 1170.1C1106.66 1176.95 1105.91 1174.75 1122.72 1195.71C1129.22 1203.24 1134.89 1211.45 1139.65 1220.18C1141.66 1224.03 1143.44 1227.98 1145 1232.03C1154.99 1245.57 1166.67 1257.78 1179.76 1268.36C1182.27 1268.23 1184.77 1267.97 1187.25 1267.58C1199.05 1265.49 1210.19 1260.64 1219.77 1253.43C1224.9 1249.83 1229.67 1245.74 1234.01 1241.2C1234.67 1238.46 1238.04 1223.43 1229.12 1213.33C1227.72 1211.74 1226.1 1210.36 1224.31 1209.23C1212.13 1222.27 1195.55 1227.5 1183.18 1222.29C1176.62 1219.02 1171.17 1213.89 1167.5 1207.55C1164.27 1202.71 1159.08 1194.94 1161.85 1187.79C1162.66 1185.78 1163.95 1184.01 1165.62 1182.62M1129.37 1155.74C1134.53 1157.14 1139.48 1159.21 1144.11 1161.89C1152.83 1166.99 1160.2 1174.1 1165.62 1182.62M1129.37 1155.74C1139.89 1166.63 1152.14 1175.71 1165.62 1182.62M1129.37 1155.74C1119.57 1148.69 1110.21 1141.05 1101.35 1132.85C1092.66 1124.81 1081.98 1113.94 1053 1077.06C1032.87 1051.44 1035.48 1053.44 1020.69 1034.75C984.606 989.183 968.145 976.097 973.106 964.425C974.893 961.086 977.646 958.363 981.006 956.615C984.366 954.866 988.175 954.172 991.936 954.624C1000.56 955.952 1004.81 965.415 1011.02 976.548C1012.46 979.126 1034.47 1017.99 1063.13 1041.8C1070.64 1048.02 1078.8 1053.41 1087.48 1057.87C1095.83 1059.54 1103.57 1063.43 1109.9 1069.12C1116.23 1074.82 1120.91 1082.11 1123.44 1090.24M1165.62 1182.62C1178.07 1181.73 1190.27 1178.74 1201.73 1173.79C1204.92 1172.4 1207.9 1170.91 1210.67 1169.39C1210.9 1164.67 1210.13 1159.96 1208.42 1155.56C1205.9 1149.19 1202.61 1147.07 1200.29 1140.49C1198.95 1136.65 1198.34 1132.59 1198.51 1128.53C1195.48 1129.58 1168.81 1138.44 1146.93 1124.26C1139.1 1118.95 1132.64 1111.87 1128.07 1103.6C1125.92 1099.38 1124.37 1094.88 1123.44 1090.24M1123.44 1090.24C1145.79 1092.87 1168.43 1089.55 1189.09 1080.63C1186.66 1076.36 1184.77 1073.06 1183.74 1071.27C1177.72 1060.8 1175.94 1057.91 1174.95 1053.19C1174.34 1050.27 1174.15 1047.29 1174.39 1044.32C1163.71 1048.94 1151.96 1050.53 1140.44 1048.9C1134.2 1047.9 1123.99 1045.16 1086.38 1010.63C1065.14 991.149 1054.53 981.406 1043.29 967.548C1036.11 958.704 1027.77 950.799 1021.07 941.589C1014.14 932.054 1011.64 926.94 1006.84 926.796C999.764 926.585 991.711 937.298 991.901 947.209C992.051 955.203 997.531 960.961 1000.73 964.336C1014.33 978.67 1026.92 993.977 1041.15 1007.69C1054 1019.58 1066.16 1032.2 1077.56 1045.5C1081.84 1050.6 1085.23 1054.94 1087.48 1057.87L1123.44 1090.24ZM895.877 659.36C892.582 657.679 891.202 658.137 884.358 656.417C877.517 654.699 870.909 652.161 864.676 648.859C861.923 650.559 859.551 652.81 857.709 655.469C855.867 658.129 854.595 661.141 853.973 664.316C853.35 667.491 853.391 670.76 854.092 673.919C854.794 677.077 856.14 680.057 858.048 682.67C864.641 685.084 869.895 687.199 873.271 688.592C893.232 696.834 903.213 700.954 910.627 705.255C915.813 708.262 918.267 710.079 919.544 709.101C921.431 707.658 918.213 701.943 909.92 682.534C903.496 667.5 901.765 662.36 895.877 659.36ZM1088.5 666.386C1087.04 660.429 1083.49 655.193 1078.5 651.625C1074.52 653.503 1070.32 654.851 1066 655.634C1059.71 656.223 1053.48 657.367 1047.4 659.053C1045.8 659.714 1044.25 660.482 1042.75 661.353C1032.6 667.381 1032.08 677.505 1021.42 698.256C1017.15 706.563 1014.23 710.782 1015.62 712.15C1017.2 713.721 1022.16 709.43 1031.12 705.515C1046.82 698.659 1053.23 702.394 1068.42 695.938C1074.42 693.363 1080.05 689.979 1085.14 685.881C1088.79 680.082 1090 673.074 1088.5 666.386ZM818.793 1183.24H818.739C816.809 1194.34 813.599 1205.18 809.174 1215.54C801.959 1232.37 793.651 1242.75 780.697 1258.82C779.877 1259.81 779.11 1260.85 778.347 1261.77C778.018 1262.16 777.527 1262.76 776.816 1263.58C760.309 1284.02 747.629 1297.96 732.052 1297.96H731.56C725.483 1297.71 719.533 1296.15 714.124 1293.36C713.796 1293.2 713.523 1293.04 713.249 1292.93C712.867 1292.71 712.484 1292.54 712.156 1292.33C711.964 1292.26 711.78 1292.17 711.61 1292.05C706.777 1289.14 702.607 1285.25 699.366 1280.63C698.152 1277.39 697.757 1273.9 698.218 1270.46C698.273 1269.97 698.382 1269.54 698.437 1269.15C698.546 1268.77 698.601 1268.44 698.656 1268.17C698.732 1267.99 698.786 1267.81 698.818 1267.62C699.381 1265.63 700.248 1263.73 701.387 1261.99C701.74 1261.44 702.123 1260.91 702.535 1260.41C703.901 1262.27 714.724 1276.31 727.295 1274.18C729.738 1273.69 732.06 1272.73 734.127 1271.34C735.116 1270.77 736.065 1270.13 736.969 1269.43C737.255 1269.26 737.529 1269.08 737.789 1268.88C741.214 1266.13 744.152 1262.82 746.48 1259.1C747.678 1257.22 748.755 1255.27 749.704 1253.25C750.546 1251.57 751.277 1249.84 751.891 1248.06C761.673 1241.39 771.459 1234.67 781.297 1228C789.365 1220.79 796.392 1212.5 802.176 1203.35C817.371 1179.2 818.574 1156.79 819.885 1156.79C820.816 1156.95 821.526 1167.77 818.793 1183.24ZM860.033 1078.67C859.39 1094.76 855.739 1110.58 849.269 1125.31C837.85 1150.89 823.116 1159.8 801.43 1192.68C793.96 1204.01 787.228 1215.8 781.277 1227.99C772.75 1236.38 762.8 1243.18 751.891 1248.08C743.103 1249.9 733.978 1249.15 725.602 1245.93C717.225 1242.71 709.95 1237.15 704.642 1229.92C702.718 1226.47 701.963 1222.49 702.488 1218.58C703.461 1214.93 704.975 1211.45 706.979 1208.25C708.866 1204.47 710.336 1201.4 711.238 1199.5C713.307 1201.61 715.614 1203.46 718.112 1205.04C724.325 1208.93 731.508 1211.01 738.842 1211.02C750.373 1210.61 762.094 1195.81 767.545 1175.54C770.694 1169.96 774.42 1164.73 778.663 1159.92C790.084 1147.01 797.789 1145.81 819.253 1130.78C842.773 1114.3 848.891 1104.99 850.864 1101.79C855.229 1094.67 858.331 1086.85 860.033 1078.67ZM919.198 902.288C924.116 903.964 927.298 911.265 927.422 916.863C927.275 921.708 925.419 926.346 922.184 929.956C912.914 941.615 901.957 951.826 889.675 960.253C860.935 978.663 846.565 987.868 842.458 989.31C824.103 995.608 804.503 997.4 785.311 994.534C785.544 984.856 787.676 975.317 791.586 966.46C804.146 967.779 816.841 966.846 829.073 963.707C845.969 958.94 861.646 950.606 875.047 939.267C901.332 918.618 909.86 899.107 919.198 902.288ZM816.621 881.943C829.624 881.591 842.53 879.606 855.037 876.036C868.985 871.943 882.478 866.44 895.31 859.61C910.525 851.124 915.918 845.163 920.745 847.688C926.396 850.645 927.397 863.203 923.13 872.062C919.702 879.176 913.537 882.534 903.788 887.164C877.846 899.484 864.875 905.644 847.088 908.888C834.33 911.207 821.347 912.052 808.395 911.407C807.18 909.814 806.297 907.994 805.798 906.054C805.3 904.113 805.196 902.093 805.494 900.112C806.034 897.461 807.358 896.073 810.979 890.742C813.517 887.007 815.438 883.906 816.621 881.943ZM838.316 789.695C842.778 788.91 849.262 787.768 857.085 786.38C878.703 782.544 889.512 780.626 890.718 780.316C913.238 774.513 922.549 766.538 928.95 771.579C931.49 774.087 933.163 777.341 933.725 780.867C934.089 782.332 935.903 790.245 932.247 795.96C928.537 801.762 920.846 802.708 915.054 803.6C880.381 808.934 878.681 817.679 844.398 819.323C837.941 819.633 832.741 819.575 829.783 819.505C830.831 816.984 831.463 814.309 831.653 811.586C831.989 806.547 830.545 804.37 830.858 800.944C831.117 798.113 832.599 794.168 838.316 789.695ZM858.254 717.53C869.655 717.915 881.068 717.417 892.392 716.04C910.147 713.862 920.528 710.317 928.454 716.357C932.418 719.478 935.066 723.972 935.874 728.952C936.15 733.472 935.016 737.967 932.627 741.814C926.265 752.341 892.899 753.283 850.354 745.723C849.298 735.661 852.124 725.577 858.255 717.529L858.254 717.53ZM1229.31 1269.17C1227.03 1272.18 1224.57 1275.05 1221.94 1277.77C1213.59 1286.4 1209.42 1290.72 1203.7 1291.45C1189.63 1293.26 1179.48 1273.88 1178.97 1272.49C1178.77 1272.02 1178.68 1271.51 1178.7 1271C1178.84 1269.81 1179.77 1269.39 1179.76 1268.36C1179.74 1267.87 1179.55 1267.4 1179.23 1267.03C1172.86 1251.32 1160.57 1238.75 1145 1232.03C1141.49 1228.98 1138.2 1225.69 1135.15 1222.17C1120.57 1204.76 1111.62 1183.33 1109.45 1160.73C1106.74 1173.2 1106.25 1186.05 1108.01 1198.69C1111.62 1224.04 1123.48 1240.11 1146.33 1270.27C1169 1300.19 1180.64 1315.15 1195.51 1315.46C1214.33 1315.86 1228.88 1297.51 1234.21 1290.04C1235.27 1288.19 1235.95 1286.15 1236.22 1284.03C1236.48 1281.91 1236.31 1279.76 1235.73 1277.71C1234.65 1274.2 1232.38 1271.18 1229.31 1269.17ZM1161.74 998.796C1160.44 999.149 1158.51 999.632 1156.13 1000.06C1123.73 1005.95 1094.56 986.678 1073.13 972.098C1042.19 951.049 1039.77 939.956 1021.36 932.736C1016.72 931.298 1012.68 928.362 1009.88 924.387C1004.45 915.715 1006.7 901.269 1013.35 898.359C1017.81 896.407 1023.36 900.036 1028.34 903.463C1050.06 918.398 1057.72 927.423 1069.17 935.959C1083.69 946.471 1100.32 953.72 1117.91 957.208C1128.61 959.567 1139.56 960.608 1150.51 960.308C1151.18 964.692 1152.58 968.933 1154.65 972.858C1157.32 977.9 1159.52 979.343 1161.19 983.399C1163.05 988.334 1163.24 993.741 1161.74 998.796ZM1123.99 885.413C1114.98 885.492 1106 884.402 1097.27 882.169C1083.31 878.577 1077.7 873.946 1058.31 864.433C1031.8 851.422 1018.42 845.023 1012.37 850.186C1007.55 854.302 1007.68 865.236 1012.08 871.411C1014.14 874.133 1016.98 876.161 1020.22 877.226C1040.48 884.628 1051.05 900.867 1080.41 911.535C1101.81 919.043 1124.7 921.314 1147.16 918.159C1143.75 916.648 1140.83 914.226 1138.7 911.161C1134.45 904.745 1136.76 899.056 1132.51 892.576C1130.39 889.448 1127.44 886.969 1123.99 885.413ZM1103.08 801.838C1096.55 801.707 1090.02 801.223 1083.54 800.388C1067.88 798.298 1052.5 794.482 1037.68 789.01C1017.16 781.245 1010.38 774.812 1003.89 778.666C1001.28 780.62 999.307 783.294 998.204 786.357C997.101 789.421 996.919 792.74 997.681 795.906C999.222 802.378 1005.84 810.299 1053.89 822.108C1073.64 826.958 1093.63 830.812 1113.77 833.655C1106.99 824.413 1103.26 813.293 1103.08 801.836L1103.08 801.838ZM1084.42 749.111C1075.84 749.402 1063.95 749.717 1049.75 749.815C1013.79 750.062 1006.71 748.61 1002.97 743.221C997.72 735.665 1000.1 721.895 1006.73 717.788C1008.38 716.982 1010.18 716.512 1012.01 716.404C1013.84 716.296 1015.68 716.553 1017.41 717.16C1027.4 719.679 1044.53 721.837 1076.52 721.217C1079.62 725.112 1081.91 729.583 1083.27 734.371C1084.63 739.16 1085.02 744.17 1084.42 749.111Z" stroke="black" stroke-width="0.1687" stroke-miterlimit="10"/>
</svg>
