<svg width="1545" height="3929" viewBox="0 0 1545 3929" fill="none" xmlns="http://www.w3.org/2000/svg">
<path d="M1210.64 1731.69C1204.46 1752.95 1184.67 1762.95 1183.42 1763.61C1172.52 1768.78 1160.2 1770.14 1148.44 1767.49C1149.55 1762.28 1151.26 1757.22 1153.52 1752.4C1158.93 1740.93 1163.3 1739.83 1166.2 1730.32C1168.88 1721.63 1166.42 1718.46 1170.3 1715.3C1174.45 1711.8 1179.1 1714.09 1185.49 1709.61C1188.99 1707.21 1189.16 1705.51 1192.11 1702.56C1197.09 1698.02 1203.35 1695.14 1210.03 1694.31C1211.09 1698.42 1211.83 1702.6 1212.22 1706.82C1213.26 1715.14 1212.72 1723.57 1210.64 1731.69Z" fill="black"/>
<path d="M847.106 1810.67C843.446 1815.98 838.291 1820.09 832.294 1822.47C817.372 1827.94 802.888 1818.86 796.657 1814.93C777.887 1803.08 764.901 1780.26 766.978 1757.76C767.39 1753.35 768.36 1749.01 769.863 1744.84C772.493 1747.26 775.398 1749.36 778.517 1751.1C783.556 1753.76 788.973 1755.64 794.58 1756.67C800.853 1758.1 807.15 1759.44 813.382 1761.04C814.462 1761.18 815.483 1761.62 816.333 1762.3C822.729 1767.49 818.903 1772.41 825.407 1781.15C831.364 1789.3 838.743 1788.75 843.553 1794.82V1794.87C844.105 1795.47 844.582 1796.13 844.974 1796.84C847.196 1801.08 847.946 1805.95 847.106 1810.67Z" fill="black"/>
<path d="M1210.64 1731.69C1204.46 1752.95 1184.67 1762.95 1183.42 1763.61C1172.52 1768.78 1160.2 1770.14 1148.44 1767.49C1149.55 1762.28 1151.26 1757.22 1153.52 1752.4C1158.93 1740.93 1163.3 1739.83 1166.2 1730.32C1168.88 1721.63 1166.42 1718.46 1170.3 1715.3C1174.45 1711.8 1179.1 1714.09 1185.49 1709.61C1188.99 1707.21 1189.16 1705.51 1192.11 1702.56C1197.09 1698.02 1203.35 1695.14 1210.03 1694.31C1211.09 1698.42 1211.83 1702.6 1212.22 1706.82C1213.26 1715.14 1212.72 1723.57 1210.64 1731.69Z" stroke="black" stroke-width="0.1687" stroke-miterlimit="10"/>
<path d="M847.106 1810.67C843.446 1815.98 838.291 1820.09 832.294 1822.47C817.372 1827.94 802.888 1818.86 796.657 1814.93C777.887 1803.08 764.901 1780.26 766.978 1757.76C767.39 1753.35 768.36 1749.01 769.863 1744.84C772.493 1747.26 775.398 1749.36 778.517 1751.1C783.556 1753.76 788.973 1755.64 794.58 1756.67C800.853 1758.1 807.15 1759.44 813.382 1761.04C814.462 1761.18 815.483 1761.62 816.333 1762.3C822.729 1767.49 818.903 1772.41 825.407 1781.15C831.364 1789.3 838.743 1788.75 843.553 1794.82V1794.87C844.105 1795.47 844.582 1796.13 844.974 1796.84C847.196 1801.08 847.946 1805.95 847.106 1810.67Z" stroke="black" stroke-width="0.1687" stroke-miterlimit="10"/>
</svg>
