<svg width="1545" height="3929" viewBox="0 0 1545 3929" fill="none" xmlns="http://www.w3.org/2000/svg">
<path d="M642.316 646.442C621.747 642.555 596.936 652.887 593.968 667.348C590.135 686.027 624.21 704.49 640.203 710.732C650.114 714.601 660.836 718.61 669.355 713.391C680.1 706.808 681.007 689.433 678.25 678.454C673.956 661.364 658.187 649.44 642.316 646.442Z" fill="#DBE2F1" stroke="#282724" stroke-width="0.1687" stroke-miterlimit="10"/>
<path d="M1291.77 651.571C1312.33 647.684 1337.15 658.016 1340.11 672.476C1343.95 691.156 1309.87 709.619 1293.88 715.861C1283.97 719.73 1273.25 723.739 1264.73 718.519C1253.98 711.937 1253.07 694.562 1255.83 683.583C1260.12 666.492 1275.89 654.569 1291.77 651.571Z" fill="#DBE2F1" stroke="#282724" stroke-width="0.1687" stroke-miterlimit="10"/>
</svg>
