<svg width="1545" height="3929" viewBox="0 0 1545 3929" fill="none" xmlns="http://www.w3.org/2000/svg">
<path d="M1034.36 648.688C1030.46 649.29 1027.06 646.642 1024.28 644.41C1022.85 643.264 1009.54 632.346 1012.66 622.862C1013.92 619.046 1017.6 616.163 1025.82 613.297C1039.08 608.834 1053.22 607.603 1067.06 609.706C1105.27 616.893 1131.03 585.052 1204.81 578.837C1256.16 574.511 1296.3 585.504 1297.05 594.113C1296.73 597.978 1295.2 601.642 1292.67 604.579C1291.87 605.801 1290.84 606.851 1289.63 607.664C1288.42 608.476 1287.06 609.035 1285.63 609.308C1283.54 609.218 1281.52 608.591 1279.75 607.487C1277.98 606.383 1276.53 604.84 1275.54 603.008C1275.51 602.944 1273.88 599.558 1260.12 594.695C1230.1 584.096 1175.53 599.708 1175.53 599.708C1124.5 616.717 1133.18 620.084 1105.72 623.734C1068.4 628.693 1049.63 631.48 1043.25 640.512C1041.34 643.218 1038.96 647.98 1034.36 648.688Z" fill="#FFEECC" stroke="#282724" stroke-width="0.1687" stroke-miterlimit="10"/>
<path opacity="0.1" d="M1287.12 597.755C1255.15 571.847 1202.17 586.017 1163.48 596.883C1109.44 612.063 1107.32 624.458 1080.61 621.213C1067.06 619.566 1043.58 613.456 1036.53 623.681C1032.85 629.03 1035.17 636.658 1030.54 639.195C1026.48 641.421 1020.21 638.013 1015.05 634.277C1017.6 638.101 1020.71 641.516 1024.28 644.408C1027.06 646.641 1030.46 649.288 1034.36 648.687C1038.96 647.979 1041.34 643.217 1043.25 640.507C1049.63 631.476 1068.4 628.69 1105.72 623.73C1133.18 620.079 1124.5 616.713 1175.53 599.704C1175.53 599.704 1230.1 584.093 1260.12 594.691C1273.89 599.554 1275.51 602.94 1275.54 603.004C1276.53 604.836 1277.98 606.379 1279.75 607.483C1281.52 608.587 1283.54 609.214 1285.63 609.303C1287.06 609.031 1288.42 608.472 1289.63 607.659C1290.84 606.846 1291.87 605.797 1292.67 604.574C1292.93 604.262 1293.1 603.918 1293.34 603.595C1291.41 601.499 1289.33 599.547 1287.12 597.755Z" fill="#282724"/>
</svg>
