<svg width="1545" height="3929" viewBox="0 0 1545 3929" fill="none" xmlns="http://www.w3.org/2000/svg">
<path d="M970.892 1713.77C970.282 1715.16 969.234 1716.3 967.91 1717.04C965.051 1718.28 963.06 1715.8 958.582 1716.01C956.892 1715.99 955.223 1716.39 953.731 1717.19C952.239 1717.98 950.97 1719.14 950.043 1720.55C949.603 1721.57 950.01 1721.73 950.043 1725.82C950.078 1730.12 949.633 1730.47 950.043 1731.82C950.612 1733.18 951.474 1734.39 952.567 1735.38C953.66 1736.37 954.958 1737.1 956.368 1737.53C960.203 1738.86 962.187 1737.17 970.758 1737.82C972.146 1737.92 974.683 1738.16 975.185 1739.43C975.547 1740.34 974.511 1740.92 974.711 1742.21C974.994 1744.04 977.286 1744.22 977.715 1745.87C978.208 1747.76 975.466 1748.57 975.502 1750.55C975.555 1753.54 981.806 1753.3 984.989 1758.46C986.597 1761.06 986.17 1763.01 988.626 1764.75C989.889 1765.64 990.985 1765.82 991.789 1767.09C992.771 1768.64 991.8 1769.43 992.421 1771.19C993.43 1774.04 996.6 1773.69 997.956 1776.75C998.726 1778.49 997.833 1778.89 998.588 1780.85C999.62 1783.52 1002.55 1786.04 1004.28 1785.53C1005.85 1785.07 1005.18 1782.48 1006.97 1776.75C1007.77 1773.48 1009.11 1770.37 1010.92 1767.53C1012.56 1765.72 1013.65 1763.49 1014.09 1761.09C1014.09 1760.16 1014.04 1759.23 1013.93 1758.31C1014.12 1753.65 1019.84 1752.85 1021.99 1747.33C1022.8 1744.88 1023.02 1742.27 1022.63 1739.72C1022.24 1735.48 1020.86 1734.38 1021.68 1732.84C1023.24 1729.9 1029.22 1732.15 1034.33 1729.62C1042.73 1725.46 1044.11 1710.64 1040.97 1709.13C1039.09 1708.23 1036.83 1712.67 1030.21 1714.4C1025.22 1715.34 1020.07 1714.87 1015.34 1713.05C997.737 1708.38 975.444 1707.1 970.892 1713.77Z" fill="#F4D58C" stroke="#282724" stroke-width="0.1687" stroke-miterlimit="10"/>
<path opacity="0.05" d="M970.892 1713.77C970.282 1715.16 969.234 1716.3 967.91 1717.04C965.051 1718.28 963.06 1715.8 958.582 1716.01C956.892 1715.99 955.223 1716.39 953.731 1717.19C952.239 1717.98 950.97 1719.14 950.043 1720.55C949.603 1721.57 950.01 1721.73 950.043 1725.82C950.078 1730.12 949.633 1730.47 950.043 1731.82C950.612 1733.18 951.474 1734.39 952.567 1735.38C953.66 1736.37 954.958 1737.1 956.368 1737.53C960.203 1738.86 962.187 1737.17 970.758 1737.82C972.146 1737.92 974.683 1738.16 975.185 1739.43C975.547 1740.34 974.511 1740.92 974.711 1742.21C974.994 1744.04 977.286 1744.22 977.715 1745.87C978.208 1747.76 975.466 1748.57 975.502 1750.55C975.555 1753.54 981.806 1753.3 984.989 1758.46C986.597 1761.06 986.17 1763.01 988.626 1764.75C989.889 1765.64 990.985 1765.82 991.789 1767.09C992.771 1768.64 991.8 1769.43 992.421 1771.19C993.43 1774.04 996.6 1773.69 997.956 1776.75C998.726 1778.49 997.833 1778.89 998.588 1780.85C999.62 1783.52 1002.55 1786.04 1004.28 1785.53C1005.85 1785.07 1005.18 1782.48 1006.97 1776.75C1007.77 1773.48 1009.11 1770.37 1010.92 1767.53C1012.56 1765.72 1013.65 1763.49 1014.09 1761.09C1014.09 1760.16 1014.04 1759.23 1013.93 1758.31C1014.12 1753.65 1019.84 1752.85 1021.99 1747.33C1022.8 1744.88 1023.02 1742.27 1022.63 1739.72C1022.24 1735.48 1020.86 1734.38 1021.68 1732.84C1023.24 1729.9 1029.22 1732.15 1034.33 1729.62C1042.73 1725.46 1044.11 1710.64 1040.97 1709.13C1039.09 1708.23 1036.83 1712.67 1030.21 1714.4C1025.22 1715.34 1020.07 1714.87 1015.34 1713.05C997.737 1708.38 975.444 1707.1 970.892 1713.77Z" fill="#282724"/>
<path opacity="0.18" d="M970.892 1713.77C970.282 1715.16 969.234 1716.3 967.91 1717.04C965.051 1718.28 963.06 1715.8 958.582 1716.01C956.892 1715.99 955.223 1716.39 953.731 1717.19C952.239 1717.98 950.97 1719.14 950.043 1720.55C949.603 1721.57 950.01 1721.73 950.043 1725.82C950.078 1730.12 949.633 1730.47 950.043 1731.82C950.612 1733.18 951.474 1734.39 952.567 1735.38C953.66 1736.37 954.958 1737.1 956.368 1737.53C960.203 1738.86 962.187 1737.17 970.758 1737.82C972.146 1737.92 974.683 1738.16 975.185 1739.43C975.547 1740.34 974.511 1740.92 974.711 1742.21C974.994 1744.04 977.286 1744.22 977.715 1745.87C978.208 1747.76 975.466 1748.57 975.502 1750.55C975.555 1753.54 981.806 1753.3 984.989 1758.46C986.597 1761.06 986.17 1763.01 988.626 1764.75C989.889 1765.64 990.985 1765.82 991.789 1767.09C992.771 1768.64 991.8 1769.43 992.421 1771.19C993.43 1774.04 996.6 1773.69 997.956 1776.75C998.726 1778.49 997.833 1778.89 998.588 1780.85C999.62 1783.52 1002.55 1786.04 1004.28 1785.53C1005.85 1785.07 1005.18 1782.48 1006.97 1776.75C1007.77 1773.48 1009.11 1770.37 1010.92 1767.53C1012.56 1765.72 1013.65 1763.49 1014.09 1761.09C1014.09 1760.16 1014.04 1759.23 1013.93 1758.31C1014.12 1753.65 1019.84 1752.85 1021.99 1747.33C1022.8 1744.88 1023.02 1742.27 1022.63 1739.72C1022.24 1735.48 1020.86 1734.38 1021.68 1732.84C1023.24 1729.9 1029.22 1732.15 1034.33 1729.62C1042.73 1725.46 1044.11 1710.64 1040.97 1709.13C1039.09 1708.23 1036.83 1712.67 1030.21 1714.4C1025.22 1715.34 1020.07 1714.87 1015.34 1713.05C997.737 1708.38 975.444 1707.1 970.892 1713.77Z" fill="#282724"/>
<path opacity="0.05" d="M970.892 1713.77C969.921 1715 969.568 1716.32 967.91 1717.04C965.051 1718.28 963.06 1715.8 958.582 1716.01C956.892 1715.99 955.223 1716.39 953.731 1717.19C952.239 1717.98 950.97 1719.14 950.043 1720.55C949.603 1721.57 950.01 1721.73 950.043 1725.82C950.078 1730.12 949.633 1730.47 950.043 1731.82C950.612 1733.18 951.474 1734.39 952.567 1735.38C953.66 1736.37 954.958 1737.1 956.368 1737.53C960.203 1738.86 962.187 1737.17 970.758 1737.82C972.146 1737.92 974.683 1738.16 975.185 1739.43C975.547 1740.34 974.511 1740.92 974.711 1742.21C974.994 1744.04 977.286 1744.22 977.715 1745.87C978.208 1747.76 975.466 1748.57 975.502 1750.55C975.555 1753.54 981.806 1753.3 984.989 1758.46C986.597 1761.06 986.17 1763.01 988.626 1764.75C989.889 1765.64 990.985 1765.82 991.789 1767.09C992.771 1768.64 991.8 1769.43 992.421 1771.19C993.43 1774.04 996.6 1773.69 997.956 1776.75C998.726 1778.49 997.833 1778.89 998.588 1780.85C999.62 1783.52 1002.55 1786.04 1004.28 1785.53C1005.85 1785.07 1005.18 1782.48 1006.97 1776.75C1007.77 1773.48 1009.11 1770.37 1010.92 1767.53C1012.56 1765.72 1013.65 1763.49 1014.09 1761.09C1014.09 1760.16 1014.04 1759.23 1013.93 1758.31C1014.12 1753.65 1019.84 1752.85 1021.99 1747.33C1022.8 1744.88 1023.02 1742.27 1022.63 1739.72C1022.24 1735.48 1020.86 1734.38 1021.68 1732.84C1023.24 1729.9 1029.22 1732.15 1034.33 1729.62C1042.73 1725.46 1044.11 1710.64 1040.97 1709.13C1039.09 1708.23 1036.83 1712.67 1030.21 1714.4C1026.84 1715.28 1022.93 1714.45 1015.34 1713.05C1010.76 1712.2 1006.99 1711.33 1004.33 1710.68C1006.58 1713.32 1009.26 1715.56 1012.24 1717.33C1017.86 1720.65 1022.38 1720.96 1022.4 1722.67C1022.42 1724.46 1017.48 1726.31 1014.19 1727.01C1010.5 1727.79 1008.67 1727.16 1007.94 1728.27C1006.53 1730.42 1012.06 1734.66 1010.68 1736.59C1010 1737.54 1008.47 1736.79 1003.45 1737.32C999.566 1737.72 998.627 1738.37 997.586 1737.68C995.603 1736.36 997.811 1733.22 996.023 1731.17C993.399 1728.15 986.426 1732.34 981.367 1728.82C979.46 1727.49 977.892 1725.11 978.581 1723.76C980.033 1720.94 991.045 1723.66 991.29 1722.48C991.678 1720.6 976.133 1717.69 976.306 1714.09C976.398 1712.2 980.858 1710.76 985.688 1709.72C976.515 1709.4 972.655 1711.54 970.892 1713.77Z" fill="#282724"/>
<path opacity="0.18" d="M1021.67 1732.84C1021.85 1732.52 1022.1 1732.24 1022.4 1732.03C1019.9 1733.06 1017.34 1734 1014.76 1734.83C1014.18 1735.02 1013.9 1735.14 1013.84 1735.16C1012.82 1735.67 1011.93 1736.43 1011.27 1737.36C1010.61 1738.29 1010.19 1739.37 1010.05 1740.51C1009.7 1744.37 1014.28 1746.52 1013.37 1748.05C1012.65 1749.25 1009.88 1747.81 1005.96 1749.01C1002.27 1750.14 1002.16 1752.22 999.085 1753.34C997.107 1753.9 995.028 1754 993.005 1753.63C990.983 1753.26 989.071 1752.44 987.416 1751.22C983.796 1748.55 982.109 1744.38 980.531 1736.4C980.397 1735.73 980.211 1735.06 980.027 1734.4C979.9 1734.18 979.799 1733.94 979.728 1733.7C979.625 1733.61 979.47 1733.48 979.425 1733.43L979.319 1733.37C979.018 1733.3 978.721 1733.22 978.43 1733.13L978.158 1733.08L977.718 1733.05C976.728 1733.08 975.73 1733.02 974.737 1733.04C972.567 1733.09 970.401 1733.28 968.228 1733.3C962.805 1733.48 957.419 1732.32 952.546 1729.94C951.612 1729.46 950.756 1728.84 950.007 1728.11C949.799 1729.34 949.811 1730.59 950.042 1731.82C950.611 1733.18 951.473 1734.39 952.566 1735.38C953.66 1736.37 954.957 1737.1 956.367 1737.53C960.202 1738.86 962.186 1737.17 970.757 1737.82C972.145 1737.92 974.682 1738.16 975.184 1739.43C975.546 1740.34 974.511 1740.92 974.71 1742.21C974.993 1744.04 977.285 1744.22 977.714 1745.87C978.207 1747.76 975.465 1748.57 975.501 1750.55C975.554 1753.54 981.805 1753.3 984.988 1758.46C986.596 1761.06 986.169 1763.01 988.625 1764.75C989.889 1765.64 990.984 1765.82 991.788 1767.09C992.77 1768.64 991.799 1769.43 992.42 1771.19C993.429 1774.05 996.599 1773.69 997.955 1776.75C998.725 1778.49 997.832 1778.89 998.587 1780.85C999.619 1783.52 1002.55 1786.04 1004.28 1785.53C1005.84 1785.07 1005.18 1782.48 1006.97 1776.75C1007.77 1773.48 1009.11 1770.37 1010.92 1767.53C1012.55 1765.72 1013.65 1763.49 1014.08 1761.09C1014.09 1760.16 1014.03 1759.23 1013.92 1758.31C1014.12 1753.65 1019.83 1752.85 1021.99 1747.33C1022.8 1744.88 1023.02 1742.27 1022.62 1739.72C1022.23 1735.48 1020.86 1734.38 1021.67 1732.84Z" fill="#282724"/>
<path opacity="0.18" d="M1023.83 1731.41C1026.44 1730.79 1030.6 1731.47 1034.32 1729.62C1040.76 1726.43 1043.06 1717.03 1042.39 1712.1C1040.77 1716.41 1038.29 1720.34 1035.1 1723.66C1031.91 1726.98 1028.08 1729.62 1023.83 1731.41Z" fill="#282724"/>
</svg>
