<svg width="1545" height="3929" viewBox="0 0 1545 3929" fill="none" xmlns="http://www.w3.org/2000/svg">
<path d="M1099.76 1566.27C1099.71 1565.91 1099.69 1565.54 1099.7 1565.18C1099.05 1553.53 1098.28 1540.03 1088.18 1532C1082.69 1527.68 1077.67 1527.35 1073.18 1520.9C1073.18 1520.91 1073.17 1520.9 1073.16 1520.9C1073.16 1520.9 1073.15 1520.9 1073.14 1520.89C1073.14 1520.89 1073.13 1520.88 1073.13 1520.87C1073.13 1520.87 1073.13 1520.86 1073.13 1520.85C1068.34 1513.91 1069.82 1508.01 1066.28 1506.91C1062.44 1505.82 1056.06 1511.5 1052.75 1517.57C1046.73 1528.5 1052.99 1535.99 1050.98 1546.16C1047.68 1562.5 1025.89 1571.52 1015.14 1575.94C982.839 1589.28 951.897 1580.48 940.796 1573.86C940.331 1573.64 939.895 1573.37 939.497 1573.05C939.1 1572.8 938.725 1572.53 938.375 1572.23C934.469 1569.41 931.587 1565.4 930.167 1560.8C929.517 1557.58 930.521 1556.81 929.931 1554.03C928.632 1548.34 923.376 1546.97 916.763 1541.18C916.054 1540.58 915.464 1539.98 914.873 1539.43C914.429 1539.03 914.014 1538.59 913.633 1538.12C913.161 1537.63 912.747 1537.19 912.393 1536.75L911.33 1535.44C911.285 1535.36 911.225 1535.29 911.153 1535.22C910.622 1534.46 910.149 1533.69 909.677 1533.04C908.503 1530.65 906.902 1528.5 904.953 1526.7C904.158 1526.15 903.281 1525.72 902.355 1525.44C898.664 1524.46 894.759 1524.68 891.194 1526.04C889.221 1526.77 887.354 1527.77 885.643 1528.99C877.849 1534.9 881.569 1542 874.129 1557.8C869.051 1568.51 866.098 1567.74 863.264 1576.76C862.432 1579.27 861.839 1581.85 861.492 1584.47C861.228 1586.04 861.09 1587.63 861.079 1589.22C860.953 1591.86 861.111 1594.49 861.551 1597.09C861.805 1598.65 862.16 1600.18 862.614 1601.68C864.091 1606.77 867.988 1612.07 875.723 1622.73C883.045 1632.78 886.706 1637.75 889.836 1639.61C897.631 1644.26 905.484 1643.82 910.444 1645.85C912.202 1646.47 913.658 1647.74 914.519 1649.4C915.15 1651.24 915.546 1653.15 915.7 1655.08C915.723 1655.37 915.803 1655.65 915.936 1655.9C916.331 1656.76 916.826 1657.57 917.412 1658.31C919.538 1660.88 921.429 1660.82 924.439 1663.66C926.553 1665.76 928.184 1668.3 929.222 1671.1C931.584 1676.67 930.108 1678.86 931.466 1687.38C931.719 1691.09 932.702 1694.71 934.359 1698.04C936.057 1700.73 938.312 1703.02 940.97 1704.76C943.628 1706.51 946.629 1707.66 949.771 1708.15C957.33 1709.19 961.168 1705.09 965.772 1707.82C968.37 1709.41 967.484 1710.88 970.909 1713.78C974.203 1716.45 978.205 1718.1 982.424 1718.53C983.073 1718.59 983.605 1718.64 984.136 1718.64C984.63 1718.64 985.123 1718.6 985.613 1718.53C985.908 1718.48 986.203 1718.48 986.44 1718.42C987.797 1718.1 988.919 1717.6 990.691 1717.22C991.878 1716.97 993.082 1716.8 994.293 1716.73C1003.92 1716.07 1007.76 1720.01 1012.24 1717.33C1012.61 1717.15 1012.93 1716.89 1013.19 1716.57C1013.98 1715.52 1014.67 1714.4 1015.26 1713.23C1015.43 1712.96 1015.67 1712.63 1015.9 1712.25C1016.14 1711.92 1016.44 1711.54 1016.73 1711.1C1018.68 1708.53 1022.81 1703.23 1027.3 1701.92C1028.12 1701.65 1028.98 1701.53 1029.84 1701.59C1033.2 1701.92 1033.5 1704.71 1036.51 1704.87H1037.04C1042.36 1704.6 1046.73 1696.18 1047.14 1695.36C1051.16 1687.44 1047.49 1683.99 1051.63 1676.72C1054.76 1671.15 1057.24 1672.57 1059.3 1667.82C1062.96 1659.56 1056.35 1653.72 1060.6 1647.65C1062.91 1644.31 1065.15 1645.68 1068.93 1642.02C1070.73 1640.3 1072.03 1638.13 1072.71 1635.73C1073.89 1631.85 1073.77 1627.59 1075.36 1622.73C1075.54 1622.23 1075.66 1621.91 1075.84 1621.47C1075.91 1621.4 1075.95 1621.3 1075.96 1621.2C1076.4 1619.94 1076.99 1618.75 1077.73 1617.64C1077.79 1617.53 1077.79 1617.48 1077.84 1617.37C1080.97 1612.78 1085.28 1610.92 1090.42 1603.76C1094.43 1598.02 1097.19 1591.51 1098.51 1584.63C1099.07 1582.19 1099.44 1579.7 1099.63 1577.2V1577.14C1099.9 1573.53 1099.95 1569.89 1099.76 1566.27ZM950.952 1664.92C947.586 1664.81 945.873 1660.77 946.759 1659.29C947.999 1657.32 954.908 1658.03 955.676 1660.33C956.206 1661.91 953.962 1665.03 950.951 1664.92H950.952ZM954.554 1681.1C955.989 1680.24 957.693 1679.95 959.331 1680.28C960.969 1680.62 962.424 1681.55 963.411 1682.9C964.115 1683.9 964.448 1685.11 964.351 1686.33C964.254 1687.55 963.733 1688.69 962.88 1689.57C962.064 1690.08 961.151 1690.43 960.197 1690.58C959.244 1690.73 958.27 1690.68 957.335 1690.44C956.4 1690.2 955.525 1689.77 954.762 1689.18C953.999 1688.59 953.366 1687.85 952.9 1687C952.494 1685.97 952.435 1684.84 952.733 1683.77C953.032 1682.7 953.671 1681.77 954.553 1681.1L954.554 1681.1ZM1029.72 1684.43C1028.77 1684.69 1027.76 1684.71 1026.79 1684.49C1025.82 1684.27 1024.93 1683.82 1024.17 1683.17C1023.56 1682.46 1023.22 1681.55 1023.22 1680.6C1023.22 1679.66 1023.56 1678.75 1024.17 1678.04C1026.71 1675.8 1034.8 1679.29 1034.68 1681.64C1034.68 1683.06 1031.67 1684.16 1029.72 1684.43L1029.72 1684.43ZM1034.68 1656.99C1034.4 1658.12 1033.9 1659.18 1033.19 1660.1C1032.49 1661.03 1031.61 1661.8 1030.59 1662.37C1029.58 1662.95 1028.47 1663.31 1027.31 1663.44C1026.16 1663.56 1024.99 1663.45 1023.88 1663.12C1022.61 1662.46 1021.6 1661.4 1021 1660.1C1020.4 1658.8 1020.25 1657.35 1020.57 1655.96C1020.99 1654.85 1021.63 1653.85 1022.45 1653C1023.27 1652.15 1024.25 1651.48 1025.34 1651.02C1026.43 1650.57 1027.6 1650.34 1028.78 1650.35C1029.96 1650.36 1031.12 1650.61 1032.2 1651.09C1033.15 1651.73 1033.88 1652.62 1034.32 1653.67C1034.77 1654.72 1034.89 1655.88 1034.68 1656.99H1034.68Z" fill="#F4D58C" stroke="#282724" stroke-width="0.1687" stroke-miterlimit="10"/>
<path opacity="0.05" d="M1099.74 1566.25C1099.69 1565.89 1099.67 1565.52 1099.68 1565.16C1099.02 1553.52 1098.26 1540.02 1088.2 1531.98C1082.68 1527.67 1077.65 1527.34 1073.17 1520.89C1073.16 1520.89 1073.16 1520.89 1073.15 1520.88C1073.14 1520.88 1073.14 1520.88 1073.13 1520.87C1073.13 1520.87 1073.12 1520.86 1073.12 1520.86C1073.12 1520.85 1073.12 1520.84 1073.12 1520.83C1068.36 1513.89 1069.84 1507.99 1066.28 1506.9C1062.46 1505.8 1056.06 1511.49 1052.73 1517.55C1046.72 1528.48 1053 1535.97 1050.98 1546.14C1047.7 1562.48 1025.89 1571.5 1015.12 1575.92C982.82 1589.26 951.884 1580.46 940.789 1573.85C940.32 1573.63 939.88 1573.35 939.477 1573.03C939.09 1572.79 938.724 1572.51 938.384 1572.21C934.467 1569.41 931.585 1565.39 930.185 1560.79C929.529 1557.56 930.513 1556.8 929.912 1554.01C928.654 1548.32 923.353 1546.96 916.739 1541.16C916.028 1540.56 915.482 1539.96 914.881 1539.42C914.433 1539.01 914.013 1538.57 913.623 1538.1C913.132 1537.61 912.749 1537.17 912.366 1536.74C911.984 1536.3 911.601 1535.81 911.328 1535.43C911.287 1535.34 911.231 1535.27 911.164 1535.21C910.617 1534.44 910.125 1533.68 909.688 1533.02C908.5 1530.64 906.889 1528.49 904.933 1526.68C904.146 1526.13 903.279 1525.71 902.364 1525.42C898.676 1524.45 894.775 1524.66 891.214 1526.02C889.231 1526.75 887.355 1527.75 885.639 1528.98C877.822 1534.88 881.594 1541.98 874.107 1557.78C869.024 1568.49 866.073 1567.73 863.285 1576.74C862.439 1579.25 861.835 1581.83 861.481 1584.45C861.237 1586.02 861.109 1587.61 861.099 1589.21C860.954 1591.84 861.101 1594.48 861.536 1597.08C861.809 1598.63 862.174 1600.16 862.629 1601.67C864.105 1606.75 867.986 1612.05 875.748 1622.71C883.072 1632.77 886.679 1637.74 889.849 1639.6C897.611 1644.24 905.482 1643.81 910.456 1645.83C912.203 1646.46 913.648 1647.73 914.5 1649.38C915.145 1651.21 915.549 1653.13 915.703 1655.06C915.724 1655.35 915.798 1655.63 915.921 1655.88C916.324 1656.74 916.819 1657.54 917.397 1658.29C919.529 1660.86 921.442 1660.8 924.448 1663.65C926.561 1665.74 928.185 1668.28 929.203 1671.08C931.608 1676.65 930.132 1678.84 931.444 1687.37C931.807 1689.91 932.318 1692.43 932.975 1694.91C933.069 1695.28 933.197 1695.65 933.357 1696C933.47 1696.36 933.616 1696.71 933.794 1697.04C933.955 1697.38 934.138 1697.71 934.341 1698.02C936.042 1700.71 938.297 1703 940.956 1704.74C943.614 1706.49 946.614 1707.64 949.755 1708.13C957.352 1709.17 961.178 1705.07 965.769 1707.81C968.393 1709.39 967.464 1710.87 970.907 1713.76C974.207 1716.44 978.214 1718.09 982.438 1718.52C983.094 1718.57 983.586 1718.63 984.133 1718.63C984.627 1718.62 985.12 1718.59 985.609 1718.52C985.882 1718.46 986.21 1718.46 986.428 1718.41C987.795 1718.08 988.943 1717.59 990.692 1717.21C991.88 1716.95 993.086 1716.79 994.299 1716.71C1003.92 1716.06 1007.75 1719.99 1012.23 1717.32C1012.6 1717.13 1012.94 1716.87 1013.21 1716.55C1013.99 1715.51 1014.67 1714.39 1015.23 1713.22C1015.48 1712.91 1015.7 1712.58 1015.89 1712.23C1016.19 1711.87 1016.46 1711.49 1016.71 1711.09C1018.68 1708.52 1022.83 1703.21 1027.31 1701.9C1028.12 1701.63 1028.98 1701.52 1029.83 1701.58C1033.22 1701.9 1033.49 1704.69 1036.5 1704.85H1037.04C1042.34 1704.58 1046.72 1696.16 1047.15 1695.34C1051.14 1687.42 1047.48 1683.98 1051.64 1676.71C1054.75 1671.13 1057.27 1672.55 1059.29 1667.8C1062.95 1659.55 1056.34 1653.7 1060.6 1647.63C1062.89 1644.3 1065.14 1645.66 1068.91 1642C1070.72 1640.28 1072.04 1638.11 1072.73 1635.72C1073.88 1631.84 1073.77 1627.57 1075.36 1622.71C1075.52 1622.22 1075.69 1621.89 1075.85 1621.45C1075.92 1621.38 1075.96 1621.28 1075.96 1621.18C1076.3 1620.22 1076.74 1619.31 1077.27 1618.45C1077.43 1618.17 1077.54 1617.9 1077.71 1617.63C1077.74 1617.52 1077.8 1617.43 1077.87 1617.35C1080.99 1612.76 1085.31 1610.9 1090.44 1603.74C1094.44 1598 1097.2 1591.48 1098.53 1584.61C1099.06 1582.16 1099.43 1579.68 1099.63 1577.18V1577.13C1099.93 1573.51 1099.97 1569.88 1099.74 1566.25ZM950.956 1664.9C950.289 1664.86 949.64 1664.67 949.053 1664.35C948.466 1664.04 947.955 1663.59 947.555 1663.06C947.154 1662.52 946.875 1661.91 946.736 1661.25C946.596 1660.6 946.6 1659.93 946.747 1659.27C948.005 1657.31 954.892 1658.02 955.657 1660.31C956.203 1661.9 953.962 1665.01 950.956 1664.9ZM962.871 1689.55C962.059 1690.07 961.148 1690.41 960.197 1690.56C959.245 1690.71 958.272 1690.67 957.339 1690.43C956.407 1690.19 955.533 1689.76 954.774 1689.16C954.014 1688.57 953.384 1687.83 952.924 1686.98C952.497 1685.96 952.427 1684.82 952.725 1683.75C953.022 1682.68 953.67 1681.74 954.564 1681.08C956 1680.23 957.702 1679.94 959.339 1680.27C960.976 1680.61 962.43 1681.54 963.418 1682.88C964.129 1683.88 964.465 1685.1 964.365 1686.32C964.264 1687.54 963.735 1688.68 962.871 1689.55V1689.55ZM1029.72 1684.41C1028.77 1684.67 1027.76 1684.69 1026.8 1684.47C1025.84 1684.25 1024.95 1683.8 1024.2 1683.16C1023.57 1682.45 1023.23 1681.53 1023.23 1680.59C1023.23 1679.64 1023.57 1678.73 1024.2 1678.02C1026.71 1675.78 1034.8 1679.28 1034.69 1681.63C1034.69 1683.05 1031.69 1684.14 1029.72 1684.42V1684.41ZM1034.69 1656.98C1034.41 1658.11 1033.9 1659.16 1033.2 1660.09C1032.49 1661.02 1031.61 1661.79 1030.6 1662.36C1029.58 1662.93 1028.46 1663.29 1027.31 1663.42C1026.15 1663.55 1024.98 1663.44 1023.87 1663.1C1022.61 1662.43 1021.61 1661.37 1021.01 1660.08C1020.42 1658.78 1020.27 1657.33 1020.59 1655.94C1021 1654.84 1021.63 1653.83 1022.45 1652.98C1023.27 1652.13 1024.25 1651.46 1025.33 1651C1026.42 1650.55 1027.59 1650.32 1028.76 1650.33C1029.94 1650.34 1031.1 1650.6 1032.18 1651.07C1033.12 1651.71 1033.86 1652.61 1034.31 1653.65C1034.76 1654.7 1034.89 1655.86 1034.69 1656.98V1656.98Z" fill="#282724"/>
<path opacity="0.09" d="M950.952 1664.92C947.586 1664.81 945.874 1660.76 946.76 1659.29C947.999 1657.32 954.908 1658.03 955.676 1660.33C956.207 1661.91 953.963 1665.03 950.952 1664.92ZM954.554 1681.1C955.99 1680.24 957.693 1679.95 959.331 1680.28C960.97 1680.62 962.424 1681.55 963.411 1682.9C964.116 1683.9 964.448 1685.11 964.351 1686.33C964.254 1687.55 963.734 1688.69 962.88 1689.57C962.064 1690.08 961.151 1690.43 960.198 1690.58C959.244 1690.73 958.27 1690.68 957.335 1690.44C956.4 1690.2 955.525 1689.77 954.762 1689.18C954 1688.59 953.366 1687.84 952.901 1687C952.494 1685.97 952.435 1684.83 952.734 1683.77C953.032 1682.7 953.672 1681.76 954.554 1681.1V1681.1ZM1029.72 1684.43C1028.77 1684.69 1027.76 1684.71 1026.79 1684.49C1025.83 1684.27 1024.93 1683.82 1024.17 1683.17C1023.56 1682.46 1023.22 1681.55 1023.22 1680.6C1023.22 1679.66 1023.56 1678.75 1024.17 1678.03C1026.71 1675.79 1034.8 1679.29 1034.68 1681.64C1034.68 1683.06 1031.67 1684.16 1029.72 1684.43V1684.43ZM1034.68 1656.99C1034.4 1658.12 1033.9 1659.18 1033.19 1660.1C1032.49 1661.03 1031.61 1661.8 1030.6 1662.37C1029.58 1662.95 1028.47 1663.31 1027.31 1663.43C1026.16 1663.56 1024.99 1663.45 1023.88 1663.11C1022.61 1662.46 1021.6 1661.39 1021 1660.1C1020.4 1658.8 1020.25 1657.35 1020.57 1655.95C1020.99 1654.85 1021.63 1653.84 1022.45 1653C1023.27 1652.15 1024.25 1651.47 1025.34 1651.02C1026.43 1650.56 1027.6 1650.34 1028.78 1650.35C1029.96 1650.36 1031.12 1650.61 1032.2 1651.09C1033.15 1651.73 1033.88 1652.62 1034.33 1653.67C1034.77 1654.72 1034.89 1655.87 1034.68 1656.99ZM1092.96 1565.81C1090.66 1563.74 1086.56 1564.23 1081.86 1565.65H1081.81C1080.93 1565.92 1080.11 1566.2 1079.13 1566.58H1079.08C1068.58 1570.41 1055.9 1577.35 1051.2 1573.08C1046.55 1568.82 1055.46 1558.71 1055.41 1534.55C1055.35 1527.88 1054.64 1517.72 1052.73 1517.55C1046.72 1528.49 1053 1535.97 1050.98 1546.14C1047.7 1562.48 1025.89 1571.5 1015.12 1575.93C993.643 1585.6 961.395 1588.17 940.789 1573.85C940.321 1573.63 939.881 1573.35 939.477 1573.03C939.091 1572.79 938.725 1572.51 938.384 1572.21C934.468 1569.41 931.586 1565.39 930.185 1560.79C929.53 1557.56 930.513 1556.8 929.912 1554.01C928.655 1548.33 923.353 1546.96 916.739 1541.17C916.029 1540.56 915.483 1539.96 914.881 1539.42C914.434 1539.01 914.014 1538.57 913.624 1538.1C913.132 1537.61 912.749 1537.18 912.367 1536.74C911.984 1536.3 911.601 1535.81 911.328 1535.43C911.287 1535.34 911.232 1535.27 911.164 1535.21C910.623 1534.51 910.13 1533.78 909.689 1533.02C908.501 1530.64 906.889 1528.49 904.933 1526.68C904.216 1526.02 903.324 1525.59 902.365 1525.42C899.884 1525.64 897.551 1526.69 895.751 1528.41C893.952 1530.13 892.795 1532.41 892.471 1534.88C892.745 1542.64 910.727 1543.35 919.964 1558.82C921.331 1561.06 923.517 1564.78 921.877 1566.91C919.309 1570.41 909.579 1565.38 898.539 1565.54C892.655 1565.75 886.866 1567.09 881.485 1569.48C875.82 1571.7 870.829 1575.35 867.001 1580.08C865.638 1581.71 864.566 1583.55 863.831 1585.55C862.907 1588.38 862.59 1591.38 862.901 1594.34C864.213 1609.26 878.37 1627.46 894.111 1634.52C898.538 1636.48 906.683 1639.22 911.328 1643.86C912.9 1645.35 914.002 1647.27 914.498 1649.38C914.738 1651.31 915.141 1653.21 915.701 1655.07C915.722 1655.35 915.796 1655.63 915.92 1655.88C916.323 1656.74 916.817 1657.54 917.395 1658.29C919.527 1660.86 921.44 1660.8 924.446 1663.65C926.56 1665.74 928.183 1668.28 929.202 1671.08C931.607 1676.65 930.131 1678.84 931.443 1687.37C931.806 1689.91 932.317 1692.43 932.973 1694.91C933.067 1695.28 933.195 1695.65 933.356 1696C933.468 1696.36 933.614 1696.71 933.793 1697.04C933.954 1697.38 934.136 1697.71 934.34 1698.02C936.041 1700.71 938.296 1703 940.954 1704.74C943.612 1706.49 946.612 1707.64 949.753 1708.13C957.35 1709.17 961.176 1705.07 965.768 1707.81C968.392 1709.39 967.462 1710.87 970.906 1713.76C974.205 1716.44 978.212 1718.09 982.437 1718.52C983.093 1718.57 983.585 1718.63 984.131 1718.63C984.625 1718.63 985.118 1718.59 985.607 1718.52C985.88 1718.46 986.208 1718.46 986.427 1718.41C988.449 1718.19 990.089 1718.08 990.69 1717.21C991.455 1716 989.98 1713.76 985.826 1709.17C978.775 1701.36 976.261 1700.54 976.588 1699.12C977.682 1693.87 1015.67 1695.73 1015.89 1699.12C1016 1700.97 1005.28 1701.25 1003.92 1706.44C1002.66 1711.25 1010.09 1718.08 1012.23 1717.32C1012.6 1717.13 1012.94 1716.87 1013.21 1716.55C1013.99 1715.51 1014.67 1714.39 1015.23 1713.22C1015.48 1712.91 1015.69 1712.58 1015.89 1712.23C1016.19 1711.87 1016.46 1711.49 1016.71 1711.09C1018.68 1708.52 1022.83 1703.22 1027.31 1701.9C1028.12 1701.63 1028.97 1701.52 1029.83 1701.58C1033.21 1701.9 1033.49 1704.69 1036.49 1704.86H1037.04C1042.34 1704.58 1046.71 1696.17 1047.15 1695.35C1051.14 1687.42 1047.48 1683.98 1051.63 1676.71C1054.75 1671.13 1057.26 1672.55 1059.29 1667.8C1062.95 1659.55 1056.33 1653.7 1060.6 1647.63C1062.89 1644.3 1065.13 1645.66 1068.91 1642C1070.72 1640.28 1072.04 1638.11 1072.73 1635.72C1073.88 1631.84 1073.77 1627.57 1075.36 1622.71C1075.52 1622.22 1075.68 1621.89 1075.85 1621.45C1075.92 1621.38 1075.95 1621.28 1075.96 1621.18C1076.23 1620.69 1076.61 1619.92 1077.27 1618.45C1077.43 1618.17 1077.54 1617.9 1077.71 1617.63C1077.74 1617.52 1077.8 1617.43 1077.87 1617.35C1082.35 1608.06 1086.12 1599.04 1087.71 1594.95C1089.51 1590.19 1091.32 1585.71 1092.57 1581.72C1093.5 1579.02 1094.18 1576.24 1094.6 1573.41C1094.97 1572.11 1095.01 1570.73 1094.72 1569.41C1094.44 1568.08 1093.83 1566.85 1092.96 1565.81Z" fill="#282724"/>
<path opacity="0.18" d="M1092.55 1581.73C1087.2 1579.88 1081.61 1578.83 1075.96 1578.62H1075.9C1068.25 1578.27 1060.59 1578.74 1053.05 1580.04C1038.93 1582.77 1039.47 1586.98 1023.7 1592.77C988.39 1605.73 951.129 1594.25 946.523 1592.77C925.561 1586 924.497 1579 908.318 1577.96C899.097 1577.4 889.851 1578.53 881.037 1581.3C873.612 1583.31 867.17 1587.95 862.909 1594.36C862.639 1594.76 862.402 1595.18 862.201 1595.62C861.959 1596.1 861.743 1596.59 861.551 1597.09C861.805 1598.64 862.16 1600.18 862.614 1601.68C864.09 1606.77 867.988 1612.07 875.723 1622.72C883.045 1632.78 886.706 1637.75 889.836 1639.61C897.63 1644.26 905.484 1643.82 910.444 1645.84C912.202 1646.47 913.657 1647.74 914.518 1649.4C914.733 1651.32 915.128 1653.23 915.699 1655.08C915.723 1655.37 915.803 1655.65 915.936 1655.9C916.331 1656.76 916.826 1657.56 917.412 1658.3C919.537 1660.87 921.428 1660.82 924.439 1663.66C926.552 1665.76 928.184 1668.3 929.222 1671.09C931.584 1676.67 930.107 1678.85 931.466 1687.38C931.584 1688.09 931.643 1688.64 931.761 1689.29C931.828 1689.47 931.868 1689.65 931.879 1689.84C932.292 1691.26 932.883 1693.28 934.359 1698.04C936.057 1700.73 938.311 1703.02 940.97 1704.76C943.628 1706.51 946.629 1707.66 949.771 1708.15C957.329 1709.19 961.168 1705.09 965.772 1707.82C968.37 1709.41 967.484 1710.88 970.909 1713.78C974.203 1716.45 978.205 1718.1 982.424 1718.53C983.073 1718.59 983.605 1718.64 984.136 1718.64C984.63 1718.64 985.123 1718.6 985.612 1718.53C985.908 1718.48 986.203 1718.48 986.439 1718.42C987.797 1718.1 988.919 1717.6 990.691 1717.22C991.877 1716.97 993.081 1716.8 994.293 1716.73C1003.92 1716.07 1007.76 1720.01 1012.24 1717.33C1012.61 1717.15 1012.93 1716.89 1013.19 1716.57C1013.98 1715.52 1014.67 1714.4 1015.26 1713.23C1015.43 1712.96 1015.67 1712.63 1015.9 1712.25C1016.14 1711.92 1016.43 1711.54 1016.73 1711.1C1018.68 1708.53 1022.81 1703.23 1027.3 1701.92C1028.12 1701.65 1028.98 1701.53 1029.84 1701.59C1033.2 1701.92 1033.5 1704.71 1036.51 1704.87H1037.04C1042.36 1704.6 1046.73 1696.18 1047.14 1695.36C1051.16 1687.44 1047.49 1683.99 1051.63 1676.72C1054.76 1671.15 1057.24 1672.57 1059.3 1667.82C1062.96 1659.56 1056.35 1653.72 1060.6 1647.65C1062.91 1644.31 1065.15 1645.68 1068.93 1642.02C1070.73 1640.3 1072.03 1638.13 1072.71 1635.73C1073.89 1631.85 1073.77 1627.59 1075.36 1622.73C1075.54 1622.23 1075.66 1621.91 1075.84 1621.47C1075.91 1621.4 1075.95 1621.3 1075.96 1621.2C1076.4 1619.94 1076.99 1618.75 1077.73 1617.64C1077.79 1617.53 1077.79 1617.48 1077.84 1617.37C1080.97 1612.78 1085.28 1610.92 1090.42 1603.76C1094.43 1598.02 1097.19 1591.51 1098.51 1584.63C1096.66 1583.41 1094.65 1582.44 1092.55 1581.73ZM950.95 1664.92C947.584 1664.81 945.872 1660.76 946.758 1659.29C947.997 1657.32 954.907 1658.03 955.674 1660.33C956.206 1661.91 953.962 1665.03 950.95 1664.92ZM962.878 1689.57C962.062 1690.08 961.149 1690.42 960.196 1690.57C959.242 1690.72 958.268 1690.68 957.333 1690.44C956.399 1690.2 955.523 1689.77 954.76 1689.18C953.998 1688.58 953.364 1687.84 952.899 1687C952.492 1685.97 952.433 1684.83 952.731 1683.77C953.03 1682.7 953.669 1681.76 954.551 1681.09C955.987 1680.24 957.69 1679.95 959.328 1680.28C960.966 1680.62 962.421 1681.55 963.408 1682.9C964.113 1683.9 964.446 1685.11 964.349 1686.33C964.252 1687.55 963.732 1688.69 962.878 1689.57V1689.57ZM1029.72 1684.43C1028.76 1684.69 1027.76 1684.71 1026.79 1684.49C1025.82 1684.27 1024.92 1683.82 1024.17 1683.17C1023.55 1682.46 1023.22 1681.55 1023.22 1680.6C1023.22 1679.66 1023.55 1678.75 1024.17 1678.03C1026.71 1675.79 1034.8 1679.29 1034.68 1681.64C1034.68 1683.06 1031.67 1684.16 1029.72 1684.43V1684.43ZM1034.68 1656.99C1034.4 1658.12 1033.89 1659.18 1033.19 1660.1C1032.49 1661.03 1031.6 1661.8 1030.59 1662.37C1029.58 1662.94 1028.47 1663.31 1027.31 1663.43C1026.16 1663.56 1024.99 1663.45 1023.88 1663.11C1022.61 1662.45 1021.6 1661.39 1021 1660.1C1020.4 1658.8 1020.25 1657.34 1020.57 1655.95C1020.99 1654.85 1021.63 1653.84 1022.45 1652.99C1023.27 1652.15 1024.25 1651.47 1025.34 1651.02C1026.43 1650.56 1027.6 1650.33 1028.78 1650.35C1029.96 1650.36 1031.12 1650.61 1032.2 1651.09C1033.15 1651.72 1033.88 1652.62 1034.32 1653.67C1034.76 1654.72 1034.89 1655.87 1034.68 1656.99V1656.99Z" fill="#282724"/>
<path opacity="0.18" d="M1023.12 1639.69C1022.12 1637.63 1023.84 1635.1 1024.77 1633.73C1028.51 1628.23 1037.84 1624.14 1042.78 1627.73C1044.4 1629.1 1045.48 1630.99 1045.83 1633.08C1046.19 1635.17 1045.8 1637.31 1044.73 1639.14C1040.46 1645.9 1025.33 1644.21 1023.12 1639.69Z" fill="#282724"/>
<path opacity="0.44" d="M1038.22 1633.47C1039.63 1635.77 1034.4 1642.88 1028.72 1642.79C1026.47 1642.76 1023.53 1641.59 1023.12 1639.69C1022.59 1637.24 1026.53 1634.97 1027.37 1634.48C1031.2 1632.27 1037.08 1631.61 1038.22 1633.47Z" fill="#282724"/>
<path opacity="0.18" d="M954.739 1644.12C955.47 1642.62 954.218 1640.77 953.539 1639.77C950.813 1635.76 944.009 1632.78 940.409 1635.4C939.231 1636.39 938.443 1637.78 938.183 1639.3C937.924 1640.82 938.209 1642.38 938.989 1643.72C942.099 1648.65 953.13 1647.41 954.739 1644.12Z" fill="#282724"/>
<path opacity="0.44" d="M943.731 1639.59C942.707 1641.26 946.517 1646.44 950.663 1646.38C952.303 1646.35 954.44 1645.5 954.74 1644.11C955.125 1642.33 952.257 1640.67 951.647 1640.32C948.848 1638.71 944.561 1638.23 943.731 1639.59Z" fill="#282724"/>
<path opacity="0.18" d="M946.2 1614.46C947.278 1612.58 945.432 1610.26 944.43 1609C940.41 1603.96 930.372 1600.2 925.06 1603.49C924.224 1604.03 923.505 1604.74 922.945 1605.56C922.385 1606.38 921.996 1607.31 921.801 1608.28C921.606 1609.26 921.608 1610.27 921.808 1611.24C922.008 1612.22 922.402 1613.14 922.966 1613.96C927.555 1620.16 943.826 1618.61 946.2 1614.46Z" fill="#282724"/>
<path opacity="0.44" d="M929.963 1608.77C928.453 1610.88 934.072 1617.39 940.186 1617.31C942.605 1617.28 945.758 1616.21 946.2 1614.46C946.769 1612.22 942.538 1610.14 941.638 1609.69C937.511 1607.66 931.188 1607.06 929.963 1608.77Z" fill="#282724"/>
<path opacity="0.18" d="M1024.69 1610.51C1023.61 1608.62 1025.46 1606.31 1026.46 1605.05C1030.48 1600 1040.52 1596.25 1045.83 1599.54C1046.67 1600.08 1047.39 1600.78 1047.95 1601.61C1048.51 1602.43 1048.9 1603.36 1049.09 1604.33C1049.29 1605.31 1049.28 1606.31 1049.08 1607.29C1048.88 1608.26 1048.49 1609.19 1047.93 1610.01C1043.34 1616.21 1027.07 1614.66 1024.69 1610.51Z" fill="#282724"/>
<path opacity="0.44" d="M1040.93 1604.81C1042.44 1606.92 1036.82 1613.44 1030.71 1613.36C1028.29 1613.33 1025.14 1612.26 1024.69 1610.51C1024.12 1608.27 1028.36 1606.18 1029.26 1605.74C1033.38 1603.71 1039.71 1603.1 1040.93 1604.81Z" fill="#282724"/>
</svg>
