<svg width="1545" height="3929" viewBox="0 0 1545 3929" fill="none" xmlns="http://www.w3.org/2000/svg">
<path d="M513.2 1407.87C503.854 1422.51 497.458 1438.96 488.877 1454.05C472.48 1482.91 444.003 1568.82 429.136 1710.65C429.081 1710.92 429.081 1711.2 429.027 1711.47C429.04 1711.6 429.021 1711.73 428.972 1711.85C428.961 1712.26 428.924 1712.66 428.863 1713.06C428.805 1713.44 428.768 1713.82 428.754 1714.2C428.644 1715.02 428.535 1716.12 428.371 1717.76C418.533 1803.29 394.483 1852.81 397.271 1870.84C397.6 1872.25 397.639 1873.7 397.385 1875.12C397.132 1876.54 396.59 1877.89 395.795 1879.1C393.171 1882.16 388.471 1881.45 383.169 1881.94C379.488 1882.35 375.883 1883.27 372.456 1884.67C371.963 1884.84 371.487 1885.06 371.035 1885.33C369.996 1885.82 368.903 1886.37 367.81 1886.97C366.662 1887.62 365.514 1888.28 364.312 1889.04C363.767 1889.08 363.227 1888.92 362.781 1888.61C356.277 1884.78 363.82 1859.53 366.389 1851.06C374.806 1822.8 384.863 1787.28 393.718 1755.52C403.119 1721.75 411.045 1692.18 414.051 1680.32C414.051 1680.26 414.051 1680.26 414.106 1680.21C414.152 1679.93 414.226 1679.65 414.324 1679.39C414.379 1679.12 414.488 1678.79 414.542 1678.51C414.707 1677.75 414.87 1676.98 415.035 1676.27C415.253 1675.56 415.417 1674.8 415.581 1674.09C415.69 1673.54 415.855 1672.99 415.963 1672.45C416.128 1671.57 416.346 1670.7 416.51 1669.82C422.389 1642.51 425.284 1614.64 425.146 1586.69C425.42 1570.84 425.365 1554.83 426.13 1537.01C426.13 1536.74 426.184 1536.41 426.184 1536.08C426.567 1527.29 427.223 1518.05 428.152 1508.16C428.481 1504.88 428.863 1501.49 429.245 1498.04C429.355 1496.73 429.519 1495.37 429.737 1494C430.066 1491.71 430.339 1489.36 430.721 1486.95C430.94 1485.42 431.159 1483.89 431.323 1482.41C431.422 1481.93 431.495 1481.43 431.541 1480.94C431.596 1480.72 431.596 1480.5 431.65 1480.34C431.924 1478.31 432.252 1476.29 432.58 1474.22C443.019 1410 452.038 1424.32 456.902 1390.7C456.957 1390.43 457.012 1390.05 457.067 1389.67C457.121 1389.34 457.175 1388.95 457.229 1388.52C457.333 1388.18 457.406 1387.83 457.448 1387.48C457.611 1386.71 457.775 1385.89 457.939 1385.02C458.049 1384.47 458.213 1383.93 458.322 1383.38C458.374 1383.01 458.447 1382.65 458.541 1382.29C458.705 1381.69 458.869 1381.03 459.087 1380.37C459.136 1380.18 459.21 1380 459.306 1379.83C459.524 1379.23 459.688 1378.62 459.907 1378.02C460.016 1377.8 460.069 1377.53 460.18 1377.31C461.6 1373.26 464.407 1369.83 468.106 1367.64C474.173 1364.47 477.888 1368.46 487.564 1365.84C499.095 1362.72 500.135 1355.4 508.225 1354.9C516.861 1354.41 526.972 1362.23 529.487 1371.3C532.276 1381.63 524.296 1390.38 513.2 1407.87Z" fill="black"/>
<path d="M513.2 1407.87C503.854 1422.51 497.458 1438.96 488.877 1454.05C472.48 1482.91 444.003 1568.82 429.136 1710.65C429.145 1710.87 429.127 1711.09 429.081 1711.31C429.081 1711.36 429.027 1711.42 429.027 1711.47C429.04 1711.6 429.021 1711.73 428.972 1711.85C428.961 1712.26 428.924 1712.66 428.863 1713.06C428.805 1713.44 428.768 1713.82 428.754 1714.2C428.644 1715.02 428.535 1716.12 428.371 1717.76C418.533 1803.29 394.483 1852.81 397.271 1870.84C397.106 1871.55 396.888 1872.32 396.724 1873.08C396.302 1875.1 395.294 1876.94 393.827 1878.39C391.409 1880.39 388.33 1881.42 385.191 1881.28C380.771 1881.6 376.45 1882.75 372.456 1884.67C371.963 1884.84 371.487 1885.06 371.035 1885.33C369.996 1885.82 368.903 1886.37 367.81 1886.97C366.662 1887.62 365.514 1888.28 364.312 1889.04C363.767 1889.08 363.227 1888.92 362.781 1888.61C356.277 1884.78 363.82 1859.53 366.389 1851.06C374.806 1822.8 384.863 1787.28 393.718 1755.52C402.73 1731.11 409.534 1705.94 414.051 1680.32C414.051 1680.26 414.051 1680.26 414.106 1680.21C414.152 1679.93 414.226 1679.65 414.324 1679.39C414.379 1679.12 414.488 1678.79 414.542 1678.51C414.761 1677.8 414.925 1676.93 415.198 1675.84C415.308 1675.23 415.417 1674.69 415.581 1674.09C415.69 1673.54 415.855 1672.99 415.963 1672.45C416.128 1671.57 416.346 1670.7 416.51 1669.82C417.549 1664.58 418.86 1657.2 420.118 1647.53C422.031 1632.88 423.998 1612.87 425.146 1586.69C425.747 1572.1 426.13 1555.6 426.13 1537.01C426.13 1536.74 426.184 1536.41 426.184 1536.08C426.567 1527.29 427.223 1518.05 428.152 1508.16C428.481 1504.88 428.863 1501.49 429.245 1498.04C429.355 1496.73 429.519 1495.37 429.737 1494C430.066 1491.71 430.339 1489.36 430.721 1486.95C430.94 1485.42 431.159 1483.89 431.323 1482.41C431.422 1481.93 431.495 1481.43 431.541 1480.94C431.596 1480.72 431.596 1480.5 431.65 1480.34C431.924 1478.31 432.252 1476.29 432.58 1474.22C443.019 1410 452.038 1424.32 456.902 1390.7C456.957 1390.43 457.012 1390.05 457.067 1389.67C457.121 1389.34 457.175 1388.95 457.229 1388.52C457.333 1388.18 457.406 1387.83 457.448 1387.48C457.611 1386.71 457.775 1385.89 457.939 1385.02C458.049 1384.47 458.213 1383.93 458.322 1383.38C458.374 1383.01 458.447 1382.65 458.541 1382.29C458.705 1381.69 458.869 1381.03 459.087 1380.37C459.136 1380.18 459.21 1380 459.306 1379.83C459.524 1379.23 459.688 1378.62 459.907 1378.02C460.016 1377.8 460.069 1377.53 460.18 1377.31C461.6 1373.26 464.407 1369.83 468.106 1367.64C474.173 1364.47 477.888 1368.46 487.564 1365.84C499.095 1362.72 500.135 1355.4 508.225 1354.9C516.861 1354.41 526.972 1362.23 529.487 1371.3C532.276 1381.63 524.296 1390.38 513.2 1407.87Z" fill="black"/>
<path d="M443.588 1608.47C458.456 1526.8 476.881 1475.14 488.867 1454.07C497.464 1438.95 503.864 1422.51 513.184 1407.86C514.398 1405.95 515.554 1404.19 516.682 1402.47C495.59 1418.8 478.968 1440.2 468.361 1464.67C464.748 1473.21 461.272 1483.66 455.553 1516.21C451.619 1538.6 446.879 1569.98 443.588 1608.47Z" fill="black"/>
<path d="M487.129 1413.6C487.129 1413.6 476.197 1426.07 460.51 1459.19C448.431 1484.82 441.708 1528.05 437.39 1575.38V1575.44C436.352 1586.75 435.477 1598.28 434.657 1609.87C434.329 1615.01 434.001 1620.09 433.673 1625.23C433.673 1625.94 433.619 1626.59 433.564 1627.3C433.017 1635.99 432.58 1644.68 432.088 1653.26C431.432 1665.89 430.831 1678.3 430.229 1690.27C430.011 1693.87 429.847 1697.37 429.683 1700.87C429.465 1704.2 429.3 1707.43 429.136 1710.65C429.145 1710.87 429.127 1711.09 429.082 1711.31C429.082 1711.36 429.027 1711.41 429.027 1711.47C429.04 1711.6 429.021 1711.73 428.973 1711.85C428.961 1712.25 428.924 1712.66 428.863 1713.05C428.805 1713.43 428.768 1713.82 428.754 1714.2C428.644 1715.02 428.535 1716.12 428.371 1717.75C418.533 1803.29 394.483 1852.81 397.271 1870.84C397.6 1872.25 397.639 1873.7 397.386 1875.12C397.132 1876.54 396.59 1877.89 395.795 1879.09C393.171 1882.16 388.471 1881.44 383.169 1881.94C379.488 1882.35 375.883 1883.27 372.456 1884.67C371.963 1884.84 371.487 1885.06 371.035 1885.33C369.996 1885.82 368.903 1886.36 367.81 1886.96C366.662 1887.62 365.514 1888.28 364.312 1889.04C363.767 1889.07 363.227 1888.92 362.782 1888.6C357.917 1884.89 370.543 1859.8 373.44 1853.9C374.697 1851.28 375.954 1848.65 377.102 1845.92C378.304 1843.24 379.452 1840.45 380.545 1837.67C381.639 1834.88 382.677 1832.04 383.716 1829.14C384.371 1827.39 384.973 1825.59 385.519 1823.78C386.011 1822.25 386.558 1820.72 386.995 1819.19C387.489 1817.66 387.917 1816.04 388.394 1814.48C398.814 1779.2 405.479 1736.22 414.051 1680.32C414.051 1680.26 414.051 1680.26 414.106 1680.21C414.153 1679.93 414.226 1679.65 414.324 1679.39C414.379 1679.11 414.488 1678.79 414.543 1678.51C414.707 1677.75 414.87 1676.98 415.035 1676.27C415.08 1676.12 415.135 1675.98 415.199 1675.83C415.308 1675.23 415.417 1674.69 415.581 1674.09C415.691 1673.54 415.855 1672.99 415.964 1672.45C416.128 1671.57 416.347 1670.7 416.51 1669.82C422.389 1642.51 425.284 1614.63 425.146 1586.69C425.42 1570.84 425.365 1554.83 426.13 1537.01C426.13 1536.74 426.185 1536.41 426.185 1536.08C426.349 1533.51 426.567 1530.95 426.732 1528.43L428.152 1508.16C428.481 1504.88 428.863 1501.49 429.245 1498.04C429.355 1496.73 429.519 1495.37 429.737 1494C430.175 1490.23 430.721 1486.35 431.323 1482.41C431.422 1481.93 431.495 1481.43 431.541 1480.94C431.596 1480.72 431.596 1480.5 431.65 1480.34C431.924 1478.31 432.252 1476.29 432.58 1474.22C443.019 1410 452.038 1424.32 456.902 1390.7C456.957 1390.43 457.012 1390.05 457.067 1389.67C457.121 1389.34 457.175 1388.95 457.229 1388.52C457.333 1388.18 457.406 1387.83 457.448 1387.48C457.611 1386.71 457.775 1385.89 457.939 1385.02C458.049 1384.47 458.213 1383.93 458.322 1383.38C458.65 1382.23 458.978 1381.03 459.306 1379.83C459.524 1379.23 459.688 1378.62 459.907 1378.02C460.016 1377.8 460.069 1377.53 460.18 1377.31C461.984 1372.56 464.498 1368.3 468.106 1367.64C468.321 1367.59 468.542 1367.58 468.762 1367.58C468.926 1367.58 469.145 1367.64 469.308 1367.64C471.604 1367.86 472.916 1369.99 477.89 1371.57C478.272 1371.68 478.655 1371.79 479.092 1371.9C480.761 1372.39 482.492 1372.63 484.23 1372.61H484.285C490.297 1372.56 494.888 1369.88 502.923 1371.57C506.584 1372.28 514.401 1373.92 516.042 1378.68C518.776 1386.61 502.105 1396.55 487.129 1413.6Z" fill="black"/>
<path d="M484.286 1372.61C472.287 1397.69 462.041 1423.57 453.623 1450.06C449.176 1463.72 445.579 1477.65 442.856 1491.76C440.331 1506.38 438.598 1521.12 437.663 1535.92C436.288 1549.03 436.197 1562.25 437.39 1575.38V1575.44C436.352 1586.75 435.477 1598.28 434.657 1609.87C434.329 1615.01 434.001 1620.09 433.673 1625.23C433.673 1625.94 433.619 1626.59 433.564 1627.3C433.017 1635.99 432.58 1644.68 432.088 1653.26C431.432 1665.89 430.831 1678.3 430.229 1690.27C430.011 1693.87 429.847 1697.37 429.683 1700.87C429.465 1704.2 429.3 1707.43 429.136 1710.65C429.145 1710.87 429.127 1711.09 429.082 1711.31C429.082 1711.36 429.027 1711.41 429.027 1711.47C429.04 1711.6 429.021 1711.73 428.973 1711.85C428.961 1712.25 428.924 1712.66 428.863 1713.05C428.805 1713.43 428.768 1713.82 428.754 1714.2C428.644 1715.02 428.535 1716.12 428.371 1717.75C418.533 1803.29 394.483 1852.81 397.271 1870.84C397.6 1872.25 397.639 1873.7 397.386 1875.12C397.132 1876.54 396.59 1877.89 395.795 1879.09C393.171 1882.16 388.471 1881.44 383.169 1881.94C379.488 1882.35 375.883 1883.27 372.456 1884.67C371.963 1884.84 371.487 1885.06 371.035 1885.33C369.996 1885.82 368.903 1886.36 367.81 1886.96C366.662 1887.62 365.514 1888.28 364.312 1889.04C363.767 1889.07 363.227 1888.92 362.782 1888.6C357.917 1884.89 370.543 1859.8 373.44 1853.9C374.697 1851.28 375.954 1848.65 377.102 1845.92C378.304 1843.24 379.452 1840.45 380.545 1837.67C381.693 1834.88 382.732 1832.04 383.716 1829.14C384.371 1827.39 384.973 1825.59 385.519 1823.78C386.011 1822.25 386.558 1820.72 386.995 1819.19C400.222 1778.15 407.164 1729.23 414.051 1680.32C414.051 1680.26 414.051 1680.26 414.106 1680.21C414.153 1679.93 414.226 1679.65 414.324 1679.39C414.379 1679.11 414.488 1678.79 414.543 1678.51C414.707 1677.75 414.87 1676.98 415.035 1676.27C415.08 1676.12 415.135 1675.98 415.199 1675.83C415.308 1675.23 415.417 1674.69 415.581 1674.09C415.691 1673.54 415.855 1672.99 415.964 1672.45C416.128 1671.57 416.347 1670.7 416.51 1669.82C422.389 1642.51 425.284 1614.63 425.146 1586.69C425.42 1570.84 425.365 1554.83 426.13 1537.01C426.13 1536.74 426.185 1536.41 426.185 1536.08C426.349 1533.51 426.567 1530.95 426.732 1528.43C427.879 1513.35 429.191 1499.25 430.722 1486.95C430.94 1485.42 431.159 1483.89 431.323 1482.41C431.422 1481.92 431.495 1481.43 431.541 1480.94C431.596 1480.72 431.596 1480.5 431.651 1480.34C431.924 1478.31 432.252 1476.29 432.58 1474.21C443.019 1410 452.038 1424.31 456.903 1390.7C456.957 1390.43 457.012 1390.05 457.067 1389.66C457.121 1389.34 457.175 1388.95 457.229 1388.52C457.333 1388.18 457.407 1387.83 457.448 1387.48C457.612 1386.71 457.775 1385.89 457.939 1385.02C458.049 1384.47 458.213 1383.92 458.322 1383.38C458.65 1382.23 458.978 1381.03 459.306 1379.83C459.525 1379.22 459.688 1378.62 459.907 1378.02C460.017 1377.8 460.069 1377.53 460.18 1377.31C461.984 1372.56 464.499 1368.29 468.106 1367.64C468.321 1367.59 468.542 1367.57 468.762 1367.58C468.926 1367.58 469.145 1367.64 469.308 1367.64C470.511 1367.97 471.659 1369.06 474.009 1370.15C475.26 1370.73 476.558 1371.21 477.89 1371.57C478.272 1371.68 478.655 1371.79 479.092 1371.9C480.775 1372.32 482.497 1372.56 484.23 1372.61L484.286 1372.61Z" fill="black"/>
</svg>
