<svg width="1545" height="3929" viewBox="0 0 1545 3929" fill="none" xmlns="http://www.w3.org/2000/svg">
<path d="M586.907 640.416C587.752 641.165 588.737 641.741 589.804 642.11C591.063 642.369 592.354 642.424 593.63 642.274L594.778 642.436C599.806 643.858 607.022 655.116 615.384 668.833C624.566 684.082 635.17 702.391 645.719 713.978C651.895 720.7 658.018 725.127 663.866 725.237C667.891 724.996 671.668 723.215 674.415 720.263C674.907 719.88 675.399 719.443 676 719.006C676.863 718.199 677.924 717.633 679.075 717.364C680.226 717.096 681.427 717.134 682.559 717.476C682.832 717.585 683.105 717.694 683.324 717.803C683.581 717.936 683.82 718.101 684.034 718.295H684.144C689.937 722.176 691.96 734.965 693.326 755.352C693.326 755.513 693.381 755.734 693.381 755.898C693.763 761.691 694.092 768.085 694.474 775.081C694.529 775.847 694.529 776.612 694.583 777.432C694.638 778.743 694.693 779.946 694.748 781.148C695.458 795.522 695.567 802.627 696.824 807.765C696.89 808.099 696.981 808.428 697.098 808.749C697.182 809.12 697.291 809.485 697.426 809.842C697.547 810.269 697.693 810.688 697.863 811.099C698.443 812.529 699.156 813.902 699.995 815.198C704.477 822.303 710.817 827.113 712.129 837.442C712.839 843.127 711.309 845.149 710.762 850.887C709.505 864.332 714.971 875.373 722.241 888.653C735.85 913.575 742.737 928.114 747.165 936.366C747.493 936.967 747.766 937.514 748.094 938.061C748.586 938.935 749.023 939.755 749.46 940.465C750.346 942.053 751.43 943.522 752.685 944.838C753.364 945.587 754.18 946.199 755.09 946.642C755.976 947.013 756.918 947.234 757.877 947.297C773.619 948.664 788.705 921.937 790.289 918.986C797.176 906.525 795.373 899.967 804.446 883.953C808.951 876.298 814.147 869.072 819.969 862.364C837.569 839.901 831.611 825.91 848.282 776.065C859.432 742.834 863.859 743.709 866.483 724.198C866.996 720.339 867.106 716.438 866.811 712.556C866.81 711.825 866.756 711.094 866.647 710.37C866.483 707.747 866.1 705.233 865.718 702.773C863.695 690.368 860.58 680.036 867.139 670.255C873.971 660.089 883.427 660.253 883.536 653.859C883.81 643.692 860.197 630.302 837.787 631.834C820.134 632.982 819.805 642.273 800.402 643.312C799.363 643.366 798.379 643.421 797.395 643.421C796.411 643.476 795.427 643.476 794.444 643.476C779.632 643.476 775.15 640.087 763.343 642.656C753.396 644.842 749.241 649.269 746.837 647.083C743.284 643.803 745.962 628.063 746.563 621.887C746.722 621.057 746.722 620.203 746.563 619.373C746.133 618.858 745.657 618.382 745.142 617.952C737.435 611.503 720.163 615.657 720.163 615.657C718.264 615.95 716.397 616.425 714.588 617.077C706.736 620.106 700.133 625.689 695.841 632.927C691.526 633.215 687.196 633.178 682.887 632.818C674.415 632.107 666.983 631.452 659.602 626.806C651.95 621.996 647.632 614.891 647.632 610.956V610.794C647.746 608.698 648.246 606.641 649.108 604.727C649.108 604.673 649.162 604.673 649.162 604.618C649.477 603.959 649.862 603.336 650.31 602.76C646.867 600.792 643.478 598.77 640.089 596.802C640.035 596.748 640.035 596.693 639.98 596.638C638.676 594.223 637.684 591.652 637.028 588.987C636.701 587.675 636.755 587.456 636.482 587.183C634.733 585.216 618.773 596.693 616.587 598.224C615.001 599.371 613.307 600.573 611.503 601.94C604.343 607.405 600.627 609.972 598.604 611.721C587.399 621.341 583.846 637.464 586.907 640.416Z" fill="#F4D58C" stroke="#282724" stroke-width="0.1687" stroke-miterlimit="10"/>
<path opacity="0.16" d="M641.153 649.585C645.254 649.02 649.422 649.179 653.468 650.054C660.891 651.79 667.667 655.6 673.007 661.039C687.508 677.032 683.314 708.929 669.38 716.15C667.289 717.189 664.993 717.749 662.659 717.789C640.022 718.913 608.625 689.578 615.382 668.837C618.605 658.951 630.423 651.233 641.153 649.585Z" fill="#282724"/>
<path opacity="0.1" d="M589.805 642.11C591.063 642.368 592.355 642.424 593.631 642.274L594.779 642.436C599.807 643.857 607.022 655.116 615.384 668.833L621.452 667.194C632.165 664.351 643.861 661.127 652.552 653.858C651.295 653.257 649.928 653.749 648.234 654.678C647.826 654.903 647.366 655.019 646.9 655.016C646.433 655.013 645.976 654.891 645.57 654.661C645.164 654.43 644.824 654.1 644.583 653.701C644.341 653.302 644.206 652.848 644.189 652.382C644.136 651.895 644.233 651.404 644.468 650.974C644.702 650.544 645.063 650.196 645.501 649.977C645.934 649.715 646.392 649.495 646.868 649.321C648.573 648.458 650.483 648.079 652.388 648.228C652.47 648.188 652.544 648.133 652.607 648.066C652.826 648.012 653.044 647.902 653.262 647.847C655.165 647.223 657.124 646.784 659.111 646.536C659.111 646.536 661.024 646.208 663.21 645.934C664.03 645.825 664.905 645.771 665.725 645.716C667.199 645.756 668.643 646.15 669.933 646.864C679.936 651.673 697.645 671.458 693.546 691.298C691.265 699.607 687.093 707.276 681.357 713.706C679.671 715.57 677.883 717.34 676.001 719.008C676.864 718.2 677.925 717.634 679.076 717.366C680.227 717.097 681.429 717.136 682.56 717.477C682.834 717.586 683.107 717.696 683.325 717.805C683.582 717.937 683.821 718.102 684.035 718.297H684.145C689.939 722.177 691.961 734.966 693.328 755.353C693.328 755.515 693.382 755.735 693.382 755.899C693.71 758.742 694.038 764.535 694.475 775.083C694.53 775.848 694.53 776.613 694.585 777.433C694.639 778.745 694.694 779.947 694.749 781.15C695.131 793.665 694.858 801.208 696.826 807.766C696.891 808.101 696.983 808.43 697.099 808.75C697.183 809.122 697.293 809.487 697.427 809.843C697.548 810.27 697.694 810.69 697.864 811.1C698.444 812.531 699.158 813.903 699.996 815.199C704.478 822.305 710.818 827.114 712.13 837.444C712.841 843.128 711.31 845.15 710.764 850.889C709.506 864.334 714.972 875.375 722.242 888.654C735.852 913.577 742.739 928.115 747.166 936.368C747.494 936.969 747.767 937.515 748.095 938.062C748.587 938.936 749.024 939.756 749.461 940.467C750.347 942.055 751.431 943.524 752.686 944.839C753.365 945.589 754.182 946.201 755.091 946.643C755.978 947.014 756.92 947.236 757.879 947.299C773.621 948.665 788.706 921.938 790.291 918.988C797.178 906.527 795.374 899.968 804.448 883.954C808.953 876.3 814.148 869.074 819.97 862.366C837.57 839.903 831.612 825.911 848.283 776.067C859.434 742.836 863.861 743.71 866.484 724.199C866.997 720.341 867.107 716.439 866.812 712.558C866.812 711.826 866.757 711.095 866.648 710.372C866.484 707.748 866.102 705.234 865.719 702.775C863.697 690.37 860.581 680.038 867.14 670.256C873.972 660.09 883.428 660.254 883.538 653.86C883.811 643.694 860.199 630.304 837.789 631.836C820.136 632.983 819.806 642.275 800.403 643.313C799.364 643.368 798.38 643.422 797.397 643.422C796.413 643.477 795.429 643.477 794.445 643.477C784.071 643.895 773.682 643.621 763.345 642.657C753.397 644.843 749.243 649.27 746.838 647.084C743.285 643.805 745.963 628.065 746.564 621.888V619.375C745.658 622.935 744.983 626.549 744.542 630.196C744.216 635.538 743.522 640.852 742.465 646.099C741.919 648.285 741.318 650.034 740.935 651.182C737.932 653.951 734.226 655.842 730.222 656.648C727.851 657.343 725.318 657.247 723.007 656.374C721.106 655.515 719.507 654.106 718.416 652.33C721.968 645.443 725.521 638.502 729.074 631.616L726.943 632.272C719.619 634.357 713.185 638.794 708.632 644.897C708.413 645.225 708.195 645.607 707.976 645.935C706.767 648.333 705.241 650.557 703.44 652.549C702.778 653.088 701.986 653.445 701.144 653.585C700.339 653.692 699.521 653.637 698.739 653.421C698.285 653.306 697.845 653.141 697.427 652.929C696.949 652.716 696.492 652.46 696.06 652.164C695.579 651.899 695.138 651.568 694.749 651.18C693.527 650.179 692.507 648.955 691.743 647.573C691.274 646.764 690.959 645.874 690.814 644.95C690.768 644.679 690.75 644.404 690.759 644.13C690.759 641.179 692.726 638.118 695.842 632.926C691.527 633.213 687.197 633.177 682.888 632.816C674.416 632.106 666.984 631.45 659.604 626.805C651.951 621.995 647.634 614.89 647.634 610.955V610.793C647.398 609.736 647.408 608.639 647.664 607.587C647.92 606.535 648.414 605.556 649.109 604.726C649.109 604.671 649.164 604.671 649.164 604.616C648.945 604.452 648.672 604.343 648.453 604.179C646.352 603.593 644.434 602.483 642.878 600.955C642.824 600.9 642.769 600.9 642.769 600.845H642.714C641.596 599.672 640.706 598.3 640.09 596.801C640.036 596.746 640.036 596.691 639.981 596.637C631.509 601.83 590.461 627.299 589.805 642.11Z" fill="#282724"/>
<path opacity="0.1" d="M782.618 918.976C791.905 904.774 792.596 889.429 799.18 874.506C805.097 861.094 817.55 850.518 824.272 837.238C832.346 821.285 835.054 804.228 839.427 787.13C843.309 771.951 850.973 760.133 857.57 746.176C861.372 738.63 863.68 730.421 864.37 722C864.898 717.192 862.96 708.312 864.95 704.017C865.15 703.585 865.466 703.185 865.714 702.766C867.062 709.83 867.321 717.059 866.483 724.203C863.859 743.714 859.433 742.839 848.282 776.07C831.611 825.914 837.569 839.906 819.969 862.369C814.148 869.077 808.952 876.303 804.447 883.957C795.373 899.971 797.177 906.53 790.29 918.991C788.705 921.942 773.619 948.668 757.878 947.302C753.744 946.944 751.686 944.815 747.152 936.358C754.104 937.127 761.132 935.9 767.412 932.822C773.693 929.744 778.967 924.941 782.618 918.976Z" fill="#282724"/>
<path opacity="0.16" d="M589.805 642.112C591.082 642.044 592.364 642.099 593.631 642.276L594.779 642.438C603.742 644.023 608.717 650.199 613.144 653.314C622.491 659.818 635.663 656.047 644.19 652.385C647.032 651.128 649.383 649.926 650.913 649.052C651.787 648.614 651.787 648.56 652.389 648.232C652.67 648.081 652.962 647.954 653.263 647.849C656.393 646.471 659.794 645.818 663.211 645.936C665.478 646.016 667.731 646.327 669.934 646.865C673.863 647.769 677.651 649.204 681.194 651.128C683.216 652.167 704.478 663.699 703.604 686.27C703.293 692.845 701.254 699.221 697.695 704.757C694.135 710.293 689.179 714.794 683.327 717.806C681.72 718.645 680.058 719.376 678.353 719.992C680.102 719.555 682.015 719.008 684.037 718.298H684.092C685.731 717.751 687.481 717.095 689.23 716.33C693.972 714.312 698.481 711.783 702.676 708.788C701.692 732.344 701.583 750.872 702.075 765.464C702.075 765.738 702.129 766.066 702.129 766.339C703.058 791.262 705.737 804.543 708.907 811.813C711.276 817.094 713.321 822.515 715.029 828.046C718.172 837.87 720.368 847.972 721.588 858.215C725.742 888.984 747.986 922.761 750.557 921.723C753.235 920.63 733.121 879.803 738.914 876.524C743.014 874.174 756.35 893.03 759.794 890.898C762.909 888.876 752.688 872.534 746.238 847.173C741.291 827.808 740.195 807.66 743.014 787.873C744.927 775.302 749.408 758.032 753.836 758.195C757.99 758.359 757.498 773.717 768.102 794.158C775.808 809.133 786.686 821.376 788.872 820.174C791.058 818.971 782.422 807.111 779.525 785.85C775.863 758.579 784.281 735.842 789.691 728.135C790.705 726.855 791.568 725.461 792.261 723.982C796.688 713.98 794.666 708.46 796.742 705.126C803.247 694.742 849.652 720.265 859.654 708.843C867.142 700.317 847.738 678.51 858.342 662.277C863.425 654.462 871.405 654.079 870.968 649.433C870.804 647.302 868.946 645.334 865.994 643.64C856.994 639.265 847.011 637.306 837.026 637.956C822.76 638.721 821.721 645.553 804.395 648.832C790.949 651.346 786.412 648.176 776.519 647.575C776.083 647.529 775.645 647.511 775.207 647.52C773.858 647.472 772.507 647.509 771.163 647.629C770.889 647.629 770.616 647.684 770.288 647.684C770.015 647.684 769.687 647.739 769.359 647.739C768.758 647.793 767.992 647.848 767.227 647.903C766.243 647.957 765.26 648.067 764.112 648.176C760.182 648.549 751.362 649.962 742.85 650.963C741.966 651.067 741.264 651.146 740.937 651.182C737.6 658.846 733.273 663.32 730.307 662.602C729.661 662.446 728.662 661.942 727.712 660.099C730.865 656.045 733.662 651.727 736.072 647.192C739.311 641.096 742.932 634.072 740.664 631.124C740.117 630.413 738.75 629.539 735.034 630.195C719.073 633.31 712.022 639.541 708.635 644.897C707.321 647.651 705.629 650.208 703.606 652.494H703.552C702.853 653.052 702.027 653.428 701.147 653.587C697.703 654.133 693.55 650.909 691.746 647.575C691.482 647.104 691.262 646.61 691.09 646.099C689.832 642.219 692.019 637.573 695.845 632.927C679.067 634.731 673.435 634.622 666.549 632.873C659.059 631.404 652.347 627.291 647.637 621.286C646.189 618.84 645.245 616.13 644.861 613.314C644.476 610.498 644.658 607.634 645.396 604.89C644.521 603.578 643.701 602.266 642.881 600.955C642.827 600.9 642.772 600.9 642.772 600.845C641.843 599.479 640.968 598.113 640.094 596.801C640.039 596.746 640.039 596.691 639.984 596.637C631.509 601.832 590.461 627.301 589.805 642.112Z" fill="#282724"/>
<path opacity="0.1" d="M676.219 644.624C675.454 646.1 692.015 651.347 702.018 667.907C704.477 672.006 711.091 683.265 708.14 696.655C707.143 701.023 705.285 705.148 702.674 708.789C701.053 727.639 700.852 746.585 702.073 765.465C702.073 765.739 702.127 766.066 702.127 766.34C703.548 786.89 706.937 811.922 710.545 811.922C714.207 811.867 709.889 786.672 725.193 758.306C732.517 744.697 738.858 740.652 747.057 721.961C755.092 703.706 751.43 702.56 756.239 697.093C772.856 678.237 816.254 700.919 830.41 681.844C833.252 678.018 831.23 677.417 835.056 670.039C842.38 655.885 855.553 648.068 865.993 643.642C856.993 639.267 847.01 637.308 837.024 637.958C822.758 638.723 821.719 645.555 804.393 648.834C790.947 651.348 786.411 648.178 776.518 647.577C776.082 647.531 775.644 647.513 775.206 647.522C773.856 647.474 772.506 647.511 771.161 647.631C770.888 647.631 770.615 647.686 770.286 647.686C770.013 647.686 769.685 647.741 769.357 647.741C768.756 647.795 767.991 647.85 767.225 647.905C766.351 648.014 765.312 648.123 764.11 648.178C761.428 648.3 758.875 648.443 758.194 648.459C752.379 648.92 746.609 649.831 740.935 651.184C740.935 651.184 736.87 663.51 730.058 665.121C724.975 666.323 720.712 662.552 714.043 658.344C710.669 656.211 707.185 654.259 703.604 652.496H703.549C702.851 653.054 702.024 653.43 701.144 653.589C697.701 654.135 693.547 650.911 691.743 647.577C682.996 644.515 676.656 643.695 676.219 644.624Z" fill="#282724"/>
</svg>
