<svg width="1545" height="3929" viewBox="0 0 1545 3929" fill="none" xmlns="http://www.w3.org/2000/svg">
<path d="M1347.17 645.543C1346.33 646.293 1345.34 646.868 1344.28 647.237C1343.02 647.496 1341.73 647.551 1340.45 647.402L1339.3 647.565C1334.27 648.986 1327.06 660.245 1318.7 673.962C1309.51 689.211 1298.91 707.52 1288.36 719.107C1282.19 725.829 1276.06 730.256 1270.21 730.366C1266.19 730.125 1262.41 728.344 1259.67 725.392C1259.17 725.009 1258.68 724.572 1258.08 724.135C1257.22 723.328 1256.16 722.762 1255.01 722.493C1253.85 722.225 1252.65 722.263 1251.52 722.605C1251.25 722.714 1250.98 722.823 1250.76 722.932C1250.5 723.064 1250.26 723.23 1250.05 723.424H1249.94C1244.14 727.305 1242.12 740.094 1240.76 760.48C1240.76 760.642 1240.7 760.863 1240.7 761.027C1240.32 766.82 1239.99 773.215 1239.61 780.21C1239.55 780.976 1239.55 781.741 1239.5 782.56C1239.44 783.872 1239.39 785.075 1239.33 786.277C1238.62 800.651 1238.51 807.756 1237.26 812.894C1237.19 813.228 1237.1 813.557 1236.98 813.878C1236.9 814.249 1236.79 814.614 1236.66 814.971C1236.53 815.398 1236.39 815.818 1236.22 816.228C1235.64 817.658 1234.93 819.031 1234.09 820.327C1229.6 827.432 1223.26 832.241 1221.95 842.571C1221.24 848.255 1222.77 850.277 1223.32 856.016C1224.58 869.461 1219.11 880.502 1211.84 893.781C1198.23 918.704 1191.34 933.242 1186.92 941.495C1186.59 942.096 1186.32 942.643 1185.99 943.189C1185.5 944.064 1185.06 944.884 1184.62 945.594C1183.74 947.182 1182.65 948.651 1181.4 949.967C1180.72 950.716 1179.9 951.328 1178.99 951.77C1178.11 952.142 1177.16 952.363 1176.2 952.426C1160.46 953.793 1145.38 927.066 1143.79 924.116C1136.91 911.654 1138.71 905.096 1129.64 889.082C1125.13 881.427 1119.93 874.201 1114.11 867.493C1096.51 845.03 1102.47 831.039 1085.8 781.194C1074.65 747.963 1070.22 748.838 1067.6 729.327C1067.09 725.468 1066.98 721.567 1067.27 717.685C1067.27 716.954 1067.33 716.223 1067.43 715.499C1067.6 712.876 1067.98 710.362 1068.36 707.902C1070.39 695.497 1073.5 685.165 1066.94 675.384C1060.11 665.218 1050.65 665.382 1050.55 658.987C1050.27 648.821 1073.88 635.431 1096.29 636.963C1113.95 638.111 1114.28 647.402 1133.68 648.441C1134.72 648.495 1135.7 648.55 1136.69 648.55C1137.67 648.605 1138.65 648.604 1139.64 648.604C1154.45 648.604 1158.93 645.216 1170.74 647.784C1180.69 649.971 1184.84 654.398 1187.24 652.212C1190.8 648.932 1188.12 633.192 1187.52 627.016C1187.36 626.185 1187.36 625.332 1187.52 624.502C1187.95 623.987 1188.42 623.511 1188.94 623.081C1196.65 616.632 1213.92 620.785 1213.92 620.785C1215.82 621.079 1217.69 621.554 1219.49 622.206C1227.35 625.235 1233.95 630.818 1238.24 638.056C1242.56 638.344 1246.89 638.307 1251.2 637.947C1259.67 637.236 1267.1 636.58 1274.48 631.935C1282.13 627.125 1286.45 620.02 1286.45 616.085V615.923C1286.34 613.827 1285.84 611.77 1284.97 609.856C1284.97 609.801 1284.92 609.801 1284.92 609.747C1284.6 609.088 1284.22 608.465 1283.77 607.888C1287.21 605.921 1290.6 603.899 1293.99 601.931C1294.05 601.876 1294.05 601.822 1294.1 601.767C1295.41 599.352 1296.4 596.781 1297.05 594.116C1297.38 592.804 1297.33 592.585 1297.6 592.312C1299.35 590.344 1315.31 601.822 1317.5 603.352C1319.08 604.5 1320.77 605.703 1322.58 607.069C1329.74 612.534 1333.46 615.103 1335.48 616.85C1346.68 626.469 1350.23 642.592 1347.17 645.543Z" fill="black"/>
<path d="M1292.93 654.711C1288.83 654.146 1284.66 654.305 1280.61 655.179C1273.19 656.916 1266.41 660.726 1261.07 666.165C1246.57 682.157 1250.77 714.055 1264.7 721.275C1266.79 722.315 1269.09 722.874 1271.42 722.914C1294.06 724.038 1325.46 694.703 1318.7 673.963C1315.48 664.077 1303.66 656.359 1292.93 654.711Z" fill="black"/>
<path d="M1344.28 647.237C1343.02 647.496 1341.73 647.551 1340.45 647.402L1339.3 647.565C1334.27 648.986 1327.06 660.245 1318.7 673.962C1316.67 673.415 1314.65 672.869 1312.63 672.323C1301.92 669.48 1290.22 666.256 1281.53 658.987C1282.79 658.386 1284.15 658.878 1285.85 659.807C1286.26 660.032 1286.71 660.148 1287.18 660.145C1287.65 660.142 1288.11 660.02 1288.51 659.79C1288.92 659.56 1289.26 659.229 1289.5 658.83C1289.74 658.431 1289.88 657.977 1289.89 657.511C1289.94 657.024 1289.85 656.533 1289.61 656.103C1289.38 655.673 1289.02 655.325 1288.58 655.106C1288.15 654.844 1287.69 654.624 1287.21 654.451C1285.51 653.587 1283.6 653.208 1281.69 653.357C1281.61 653.317 1281.54 653.262 1281.47 653.195C1281.26 653.141 1281.04 653.031 1280.82 652.976C1278.92 652.352 1276.96 651.913 1274.97 651.665C1274.97 651.665 1273.06 651.337 1270.87 651.063C1270.05 650.954 1269.18 650.9 1268.36 650.845C1266.88 650.885 1265.44 651.279 1264.15 651.993C1254.15 656.802 1236.44 676.587 1240.53 696.427C1242.82 704.736 1246.99 712.405 1252.72 718.835C1254.41 720.699 1256.2 722.469 1258.08 724.137C1257.22 723.329 1256.16 722.763 1255.01 722.495C1253.85 722.226 1252.65 722.265 1251.52 722.606C1251.25 722.716 1250.97 722.825 1250.76 722.934C1250.5 723.066 1250.26 723.232 1250.05 723.426H1249.94C1244.14 727.307 1242.12 740.095 1240.76 760.482C1240.76 760.644 1240.7 760.864 1240.7 761.028C1240.37 763.87 1240.04 769.664 1239.61 780.212C1239.55 780.977 1239.55 781.742 1239.5 782.562C1239.44 783.874 1239.39 785.077 1239.33 786.279C1238.95 798.794 1239.22 806.337 1237.26 812.895C1237.19 813.23 1237.1 813.559 1236.98 813.879C1236.9 814.251 1236.79 814.616 1236.66 814.972C1236.53 815.399 1236.39 815.819 1236.22 816.229C1235.64 817.66 1234.93 819.032 1234.09 820.328C1229.6 827.434 1223.26 832.243 1221.95 842.573C1221.24 848.257 1222.77 850.279 1223.32 856.018C1224.58 869.463 1219.11 880.504 1211.84 893.783C1198.23 918.706 1191.34 933.244 1186.92 941.497C1186.59 942.098 1186.32 942.644 1185.99 943.191C1185.5 944.065 1185.06 944.885 1184.62 945.596C1183.74 947.184 1182.65 948.653 1181.4 949.968C1180.72 950.717 1179.9 951.33 1178.99 951.772C1178.11 952.143 1177.16 952.365 1176.2 952.428C1160.46 953.794 1145.38 927.068 1143.79 924.117C1136.91 911.656 1138.71 905.097 1129.64 889.083C1125.13 881.429 1119.93 874.203 1114.11 867.495C1096.51 845.032 1102.47 831.04 1085.8 781.196C1074.65 747.965 1070.22 748.839 1067.6 729.328C1067.09 725.47 1066.98 721.568 1067.27 717.687C1067.27 716.955 1067.33 716.224 1067.43 715.501C1067.6 712.877 1067.98 710.363 1068.36 707.904C1070.39 695.499 1073.5 685.167 1066.94 675.385C1060.11 665.219 1050.65 665.383 1050.55 658.989C1050.27 648.823 1073.88 635.433 1096.29 636.965C1113.95 638.113 1114.28 647.404 1133.68 648.442C1134.72 648.497 1135.7 648.551 1136.69 648.551C1137.67 648.606 1138.65 648.606 1139.64 648.606C1150.01 649.024 1160.4 648.75 1170.74 647.786C1180.69 649.972 1184.84 654.4 1187.24 652.213C1190.8 648.934 1188.12 633.194 1187.52 627.017V624.504C1188.42 628.064 1189.1 631.678 1189.54 635.325C1189.87 640.668 1190.56 645.981 1191.62 651.228C1192.16 653.414 1192.77 655.163 1193.15 656.311C1196.15 659.08 1199.86 660.971 1203.86 661.777C1206.23 662.472 1208.76 662.376 1211.08 661.503C1212.98 660.644 1214.58 659.236 1215.67 657.459C1212.11 650.572 1208.56 643.631 1205.01 636.745L1207.14 637.401C1214.46 639.486 1220.9 643.923 1225.45 650.026C1225.67 650.354 1225.89 650.736 1226.11 651.064C1227.32 653.462 1228.84 655.686 1230.64 657.678C1231.3 658.218 1232.09 658.575 1232.94 658.716C1233.74 658.823 1234.56 658.767 1235.34 658.552C1235.8 658.436 1236.24 658.271 1236.65 658.06C1237.13 657.847 1237.59 657.591 1238.02 657.295C1238.5 657.03 1238.94 656.699 1239.33 656.311C1240.55 655.31 1241.57 654.086 1242.34 652.704C1242.81 651.894 1243.12 651.005 1243.27 650.08C1243.31 649.81 1243.33 649.535 1243.32 649.261C1243.32 646.309 1241.35 643.249 1238.24 638.056C1242.55 638.344 1246.88 638.307 1251.19 637.947C1259.67 637.237 1267.1 636.581 1274.48 631.935C1282.13 627.126 1286.45 620.021 1286.45 616.085V615.923C1286.68 614.867 1286.67 613.77 1286.42 612.718C1286.16 611.666 1285.67 610.687 1284.97 609.856C1284.97 609.802 1284.92 609.802 1284.92 609.747C1285.14 609.583 1285.41 609.474 1285.63 609.31C1287.73 608.723 1289.65 607.614 1291.2 606.085C1291.26 606.031 1291.31 606.031 1291.31 605.976H1291.37C1292.49 604.803 1293.38 603.431 1293.99 601.932C1294.05 601.877 1294.05 601.822 1294.1 601.767C1302.57 606.957 1343.62 632.426 1344.28 647.237Z" fill="black"/>
<path d="M1151.46 924.104C1142.18 909.902 1141.48 894.557 1134.9 879.634C1128.98 866.222 1116.53 855.646 1109.81 842.365C1101.73 826.413 1099.03 809.356 1094.65 792.257C1090.77 777.079 1083.11 765.261 1076.51 751.304C1072.71 743.758 1070.4 735.549 1069.71 727.128C1069.18 722.32 1071.12 713.44 1069.13 709.145C1068.93 708.713 1068.61 708.312 1068.37 707.893C1067.02 714.958 1066.76 722.187 1067.6 729.33C1070.22 748.842 1074.65 747.967 1085.8 781.197C1102.47 831.042 1096.51 845.034 1114.11 867.496C1119.93 874.204 1125.13 881.431 1129.63 889.085C1138.71 905.099 1136.9 911.657 1143.79 924.119C1145.38 927.07 1160.46 953.796 1176.2 952.43C1180.34 952.072 1182.39 949.943 1186.93 941.486C1179.98 942.255 1172.95 941.028 1166.67 937.95C1160.39 934.872 1155.11 930.069 1151.46 924.104Z" fill="black"/>
<path d="M1344.28 647.237C1343 647.17 1341.72 647.225 1340.45 647.402L1339.3 647.565C1330.34 649.15 1325.36 655.326 1320.94 658.442C1311.59 664.945 1298.42 661.174 1289.89 657.512C1287.05 656.255 1284.7 655.053 1283.17 654.179C1282.29 653.741 1282.29 653.687 1281.69 653.359C1281.41 653.209 1281.12 653.081 1280.82 652.976C1277.69 651.599 1274.29 650.945 1270.87 651.063C1268.6 651.143 1266.35 651.455 1264.15 651.993C1260.22 652.897 1256.43 654.331 1252.89 656.255C1250.86 657.294 1229.6 668.826 1230.48 691.397C1230.79 697.972 1232.83 704.348 1236.39 709.884C1239.95 715.421 1244.9 719.921 1250.75 722.933C1252.36 723.772 1254.02 724.503 1255.73 725.119C1253.98 724.682 1252.07 724.135 1250.04 723.425H1249.99C1248.35 722.878 1246.6 722.222 1244.85 721.457C1240.11 719.439 1235.6 716.91 1231.41 713.915C1232.39 737.471 1232.5 755.999 1232.01 770.592C1232.01 770.865 1231.95 771.193 1231.95 771.466C1231.02 796.388 1228.34 809.67 1225.17 816.938C1222.8 822.22 1220.76 827.641 1219.05 833.171C1215.91 842.995 1213.71 853.097 1212.49 863.34C1208.34 894.109 1186.1 927.887 1183.52 926.849C1180.85 925.756 1200.96 884.929 1195.17 881.65C1191.07 879.3 1177.73 898.155 1174.29 896.023C1171.17 894.001 1181.39 877.659 1187.84 852.3C1192.79 832.935 1193.89 812.787 1191.07 793C1189.15 780.429 1184.67 763.159 1180.25 763.323C1176.09 763.486 1176.58 778.845 1165.98 799.285C1158.27 814.26 1147.4 826.503 1145.21 825.301C1143.02 824.099 1151.66 812.238 1154.56 790.978C1158.22 763.706 1149.8 740.969 1144.39 733.261C1143.38 731.98 1142.51 730.586 1141.82 729.107C1137.39 719.106 1139.42 713.585 1137.34 710.252C1130.83 699.867 1084.43 725.391 1074.43 713.968C1066.94 705.442 1086.34 683.635 1075.74 667.402C1070.66 659.587 1062.68 659.204 1063.11 654.559C1063.28 652.427 1065.14 650.459 1068.09 648.765C1077.09 644.391 1087.07 642.432 1097.06 643.081C1111.32 643.846 1112.36 650.678 1129.69 653.957C1143.13 656.471 1147.67 653.302 1157.56 652.7C1158 652.655 1158.44 652.637 1158.87 652.646C1160.22 652.598 1161.57 652.634 1162.92 652.755C1163.19 652.755 1163.47 652.81 1163.79 652.81C1164.07 652.81 1164.39 652.864 1164.72 652.864C1165.32 652.919 1166.09 652.974 1166.85 653.028C1167.84 653.083 1168.82 653.192 1169.97 653.302C1173.9 653.675 1182.72 655.087 1191.23 656.089C1192.12 656.193 1192.82 656.271 1193.14 656.308C1196.48 663.971 1200.81 668.446 1203.77 667.728C1204.42 667.571 1205.42 667.068 1206.37 665.225C1203.22 661.171 1200.42 656.852 1198.01 652.318C1194.77 646.222 1191.15 639.198 1193.42 636.249C1193.96 635.539 1195.33 634.664 1199.05 635.32C1215.01 638.435 1222.06 644.666 1225.45 650.022C1226.76 652.777 1228.45 655.334 1230.47 657.619H1230.53C1231.23 658.178 1232.05 658.553 1232.93 658.712C1236.38 659.259 1240.53 656.034 1242.34 652.7C1242.6 652.23 1242.82 651.736 1242.99 651.225C1244.25 647.344 1242.06 642.698 1238.24 638.053C1255.01 639.857 1260.65 639.747 1267.53 637.998C1275.02 636.529 1281.73 632.417 1286.44 626.411C1287.89 623.966 1288.84 621.255 1289.22 618.44C1289.61 615.624 1289.42 612.76 1288.69 610.015C1289.56 608.703 1290.38 607.392 1291.2 606.08C1291.25 606.026 1291.31 606.026 1291.31 605.971C1292.24 604.604 1293.11 603.238 1293.99 601.926C1294.04 601.872 1294.04 601.817 1294.1 601.762C1302.57 606.957 1343.62 632.426 1344.28 647.237Z" fill="black"/>
<path d="M1257.86 649.752C1258.63 651.227 1242.07 656.474 1232.06 673.034C1229.6 677.134 1222.99 688.392 1225.94 701.782C1226.94 706.15 1228.8 710.275 1231.41 713.916C1233.03 732.766 1233.23 751.712 1232.01 770.592C1232.01 770.866 1231.95 771.194 1231.95 771.467C1230.53 792.017 1227.14 817.049 1223.54 817.049C1219.87 816.994 1224.19 791.798 1208.89 763.433C1201.56 749.824 1195.22 745.779 1187.02 727.087C1178.99 708.833 1182.65 707.687 1177.84 702.22C1161.23 683.364 1117.83 706.046 1103.67 686.971C1100.83 683.146 1102.85 682.544 1099.03 675.166C1091.7 661.012 1078.53 653.195 1068.09 648.769C1077.09 644.394 1087.07 642.435 1097.06 643.084C1111.32 643.85 1112.36 650.682 1129.69 653.961C1143.13 656.475 1147.67 653.305 1157.56 652.704C1158 652.658 1158.44 652.64 1158.88 652.649C1160.22 652.601 1161.58 652.638 1162.92 652.758C1163.19 652.758 1163.47 652.813 1163.79 652.813C1164.07 652.813 1164.4 652.868 1164.72 652.868C1165.33 652.922 1166.09 652.977 1166.86 653.032C1167.73 653.141 1168.77 653.25 1169.97 653.305C1172.65 653.427 1175.21 653.57 1175.89 653.586C1181.7 654.047 1187.47 654.958 1193.15 656.311C1193.15 656.311 1197.21 668.637 1204.02 670.248C1209.11 671.45 1213.37 667.679 1220.04 663.471C1223.41 661.338 1226.9 659.386 1230.48 657.623H1230.53C1231.23 658.181 1232.06 658.557 1232.94 658.716C1236.38 659.262 1240.53 656.038 1242.34 652.704C1251.09 649.642 1257.42 648.822 1257.86 649.752Z" fill="black"/>
</svg>
