<svg width="1545" height="3929" viewBox="0 0 1545 3929" fill="none" xmlns="http://www.w3.org/2000/svg">
<path d="M586.907 640.416C587.752 641.165 588.737 641.741 589.804 642.11C591.063 642.369 592.354 642.424 593.63 642.274L594.778 642.436C599.806 643.858 607.022 655.116 615.384 668.833C624.566 684.082 635.17 702.391 645.719 713.978C651.895 720.7 658.018 725.127 663.866 725.237C667.891 724.996 671.668 723.215 674.415 720.263C674.907 719.88 675.399 719.443 676 719.006C676.863 718.199 677.924 717.633 679.075 717.364C680.226 717.096 681.427 717.134 682.559 717.476C682.832 717.585 683.105 717.694 683.324 717.803C683.581 717.936 683.82 718.101 684.034 718.295H684.144C689.937 722.176 691.96 734.965 693.326 755.352C693.326 755.513 693.381 755.734 693.381 755.898C693.763 761.691 694.092 768.085 694.474 775.081C694.529 775.847 694.529 776.612 694.583 777.432C694.638 778.743 694.693 779.946 694.748 781.148C695.458 795.522 695.567 802.627 696.824 807.765C696.89 808.099 696.981 808.428 697.098 808.749C697.182 809.12 697.291 809.485 697.426 809.842C697.547 810.269 697.693 810.688 697.863 811.099C698.443 812.529 699.156 813.902 699.995 815.198C704.477 822.303 710.817 827.113 712.129 837.442C712.839 843.127 711.309 845.149 710.762 850.887C709.505 864.332 714.971 875.373 722.241 888.653C735.85 913.575 742.737 928.114 747.165 936.366C747.493 936.967 747.766 937.514 748.094 938.061C748.586 938.935 749.023 939.755 749.46 940.465C750.346 942.053 751.43 943.522 752.685 944.838C753.364 945.587 754.18 946.199 755.09 946.642C755.976 947.013 756.918 947.234 757.877 947.297C773.619 948.664 788.705 921.937 790.289 918.986C797.176 906.525 795.373 899.967 804.446 883.953C808.951 876.298 814.147 869.072 819.969 862.364C837.569 839.901 831.611 825.91 848.282 776.065C859.432 742.834 863.859 743.709 866.483 724.198C866.996 720.339 867.106 716.438 866.811 712.556C866.81 711.825 866.756 711.094 866.647 710.37C866.483 707.747 866.1 705.233 865.718 702.773C863.695 690.368 860.58 680.036 867.139 670.255C873.971 660.089 883.427 660.253 883.536 653.859C883.81 643.692 860.197 630.302 837.787 631.834C820.134 632.982 819.805 642.273 800.402 643.312C799.363 643.366 798.379 643.421 797.395 643.421C796.411 643.476 795.427 643.476 794.444 643.476C779.632 643.476 775.15 640.087 763.343 642.656C753.396 644.842 749.241 649.269 746.837 647.083C743.284 643.803 745.962 628.063 746.563 621.887C746.722 621.057 746.722 620.203 746.563 619.373C746.133 618.858 745.657 618.382 745.142 617.952C737.435 611.503 720.163 615.657 720.163 615.657C718.264 615.95 716.397 616.425 714.588 617.077C706.736 620.106 700.133 625.689 695.841 632.927C691.526 633.215 687.196 633.178 682.887 632.818C674.415 632.107 666.983 631.452 659.602 626.806C651.95 621.996 647.632 614.891 647.632 610.956V610.794C647.746 608.698 648.246 606.641 649.108 604.727C649.108 604.673 649.162 604.673 649.162 604.618C649.477 603.959 649.862 603.336 650.31 602.76C646.867 600.792 643.478 598.77 640.089 596.802C640.035 596.748 640.035 596.693 639.98 596.638C638.676 594.223 637.684 591.652 637.028 588.987C636.701 587.675 636.755 587.456 636.482 587.183C634.733 585.216 618.773 596.693 616.587 598.224C615.001 599.371 613.307 600.573 611.503 601.94C604.343 607.405 600.627 609.972 598.604 611.721C587.399 621.341 583.846 637.464 586.907 640.416Z" fill="black"/>
<path d="M641.154 649.584C645.255 649.019 649.423 649.178 653.469 650.053C660.891 651.789 667.668 655.599 673.008 661.038C687.508 677.031 683.314 708.929 669.38 716.149C667.29 717.188 664.994 717.748 662.659 717.788C640.022 718.912 608.626 689.577 615.383 668.836C618.606 658.95 630.424 651.232 641.154 649.584Z" fill="black"/>
<path d="M589.804 642.11C591.063 642.369 592.354 642.424 593.63 642.274L594.778 642.436C599.806 643.858 607.022 655.116 615.384 668.833L621.451 667.194C632.164 664.352 643.861 661.127 652.552 653.858C651.294 653.257 649.928 653.749 648.234 654.678C647.825 654.903 647.366 655.019 646.899 655.016C646.433 655.013 645.975 654.891 645.569 654.661C645.164 654.431 644.824 654.1 644.582 653.701C644.341 653.303 644.205 652.848 644.189 652.382C644.136 651.895 644.233 651.404 644.467 650.974C644.702 650.544 645.063 650.196 645.501 649.977C645.934 649.715 646.391 649.495 646.867 649.322C648.572 648.458 650.482 648.08 652.388 648.228C652.47 648.188 652.544 648.133 652.606 648.066C652.825 648.012 653.043 647.902 653.262 647.847C655.165 647.223 657.123 646.784 659.111 646.536C659.111 646.536 661.024 646.208 663.21 645.935C664.03 645.825 664.904 645.771 665.724 645.716C667.199 645.756 668.642 646.15 669.933 646.864C679.935 651.673 697.645 671.458 693.546 691.298C691.265 699.607 687.093 707.276 681.357 713.706C679.67 715.57 677.882 717.34 676 719.008C676.864 718.201 677.924 717.634 679.076 717.366C680.227 717.097 681.428 717.136 682.56 717.477C682.833 717.587 683.106 717.696 683.325 717.805C683.582 717.937 683.821 718.103 684.035 718.297H684.145C689.938 722.178 691.961 734.967 693.327 755.353C693.327 755.515 693.382 755.735 693.382 755.9C693.71 758.742 694.038 764.535 694.475 775.083C694.53 775.849 694.53 776.614 694.584 777.433C694.639 778.745 694.694 779.948 694.748 781.15C695.131 793.666 694.858 801.208 696.825 807.766C696.891 808.101 696.982 808.43 697.099 808.75C697.183 809.122 697.292 809.487 697.426 809.844C697.548 810.271 697.694 810.69 697.864 811.1C698.443 812.531 699.157 813.903 699.996 815.199C704.478 822.305 710.818 827.114 712.129 837.444C712.84 843.128 711.31 845.15 710.763 850.889C709.506 864.334 714.972 875.375 722.241 888.654C735.851 913.577 742.738 928.115 747.165 936.368C747.493 936.969 747.767 937.515 748.095 938.062C748.586 938.937 749.024 939.756 749.461 940.467C750.347 942.055 751.43 943.524 752.686 944.839C753.365 945.589 754.181 946.201 755.091 946.643C755.977 947.014 756.919 947.236 757.878 947.299C773.62 948.666 788.706 921.939 790.29 918.988C797.177 906.527 795.374 899.968 804.447 883.954C808.952 876.3 814.148 869.074 819.97 862.366C837.57 839.903 831.612 825.912 848.283 776.067C859.433 742.836 863.86 743.71 866.484 724.2C866.997 720.341 867.107 716.44 866.812 712.558C866.811 711.826 866.757 711.096 866.648 710.372C866.484 707.748 866.101 705.234 865.719 702.775C863.696 690.37 860.581 680.038 867.14 670.256C873.972 660.09 883.428 660.254 883.537 653.86C883.811 643.694 860.198 630.304 837.788 631.836C820.135 632.984 819.806 642.275 800.402 643.313C799.364 643.368 798.38 643.423 797.396 643.423C796.412 643.477 795.428 643.477 794.445 643.477C784.071 643.895 773.681 643.621 763.344 642.657C753.396 644.843 749.242 649.271 746.838 647.084C743.285 643.805 745.963 628.065 746.564 621.889V619.375C745.658 622.935 744.983 626.549 744.542 630.196C744.216 635.539 743.522 640.852 742.465 646.099C741.918 648.285 741.317 650.034 740.934 651.182C737.932 653.951 734.226 655.842 730.221 656.648C727.85 657.343 725.318 657.247 723.006 656.374C721.106 655.515 719.507 654.107 718.416 652.33C721.968 645.443 725.521 638.502 729.074 631.616L726.942 632.272C719.619 634.357 713.185 638.794 708.632 644.897C708.413 645.225 708.194 645.608 707.976 645.935C706.766 648.333 705.24 650.557 703.439 652.549C702.777 653.088 701.986 653.445 701.143 653.585C700.339 653.693 699.521 653.637 698.738 653.421C698.284 653.306 697.844 653.141 697.426 652.929C696.949 652.717 696.491 652.461 696.06 652.165C695.579 651.899 695.138 651.568 694.748 651.181C693.527 650.18 692.507 648.955 691.742 647.574C691.273 646.764 690.958 645.874 690.813 644.95C690.768 644.679 690.749 644.405 690.758 644.13C690.758 641.179 692.726 638.118 695.842 632.926C691.527 633.213 687.197 633.177 682.887 632.817C674.416 632.106 666.983 631.45 659.603 626.805C651.951 621.995 647.633 614.89 647.633 610.955V610.793C647.397 609.736 647.408 608.639 647.664 607.587C647.92 606.535 648.414 605.556 649.109 604.726C649.109 604.671 649.163 604.671 649.163 604.617C648.945 604.453 648.672 604.343 648.453 604.179C646.352 603.593 644.434 602.484 642.878 600.955C642.823 600.9 642.768 600.9 642.768 600.845H642.714C641.595 599.672 640.706 598.301 640.09 596.801C640.035 596.746 640.035 596.692 639.98 596.637C631.508 601.83 590.46 627.299 589.804 642.11Z" fill="black"/>
<path d="M782.617 918.975C791.904 904.774 792.596 889.428 799.179 874.505C805.096 861.093 817.549 850.517 824.272 837.237C832.346 821.284 835.053 804.228 839.427 787.129C843.308 771.95 850.972 760.132 857.57 746.175C861.371 738.629 863.68 730.42 864.37 721.999C864.897 717.191 862.959 708.311 864.949 704.017C865.15 703.584 865.465 703.184 865.714 702.765C867.062 709.829 867.321 717.059 866.483 724.202C863.859 743.713 859.432 742.839 848.282 776.069C831.611 825.914 837.569 839.905 819.969 862.368C814.147 869.076 808.951 876.302 804.446 883.956C795.373 899.97 797.176 906.529 790.289 918.99C788.705 921.941 773.619 948.668 757.877 947.301C753.743 946.943 751.686 944.815 747.152 936.358C754.104 937.126 761.131 935.9 767.412 932.821C773.692 929.743 778.966 924.941 782.617 918.975Z" fill="black"/>
<path d="M589.804 642.11C591.082 642.042 592.363 642.097 593.63 642.274L594.778 642.436C603.742 644.021 608.716 650.197 613.144 653.312C622.491 659.816 635.663 656.045 644.19 652.384C647.032 651.127 649.382 649.924 650.912 649.05C651.787 648.613 651.787 648.558 652.388 648.23C652.67 648.08 652.961 647.952 653.262 647.847C656.392 646.47 659.792 645.816 663.21 645.935C665.477 646.014 667.73 646.326 669.933 646.864C673.862 647.768 677.651 649.202 681.193 651.127C683.216 652.165 704.478 663.697 703.603 686.268C703.292 692.843 701.254 699.219 697.694 704.755C694.135 710.292 689.179 714.792 683.326 717.804C681.719 718.644 680.058 719.374 678.352 719.99C680.101 719.553 682.014 719.006 684.037 718.296H684.091C685.731 717.749 687.48 717.094 689.229 716.329C693.972 714.31 698.481 711.781 702.675 708.786C701.692 732.342 701.582 750.87 702.074 765.463C702.074 765.736 702.129 766.064 702.129 766.337C703.058 791.26 705.736 804.541 708.906 811.811C711.276 817.092 713.32 822.513 715.028 828.044C718.172 837.868 720.368 847.97 721.587 858.213C725.741 888.982 747.986 922.76 750.556 921.722C753.234 920.629 733.12 879.801 738.914 876.522C743.013 874.172 756.35 893.028 759.793 890.896C762.909 888.874 752.688 872.532 746.238 847.171C741.29 827.806 740.195 807.658 743.013 787.871C744.926 775.3 749.408 758.03 753.836 758.194C757.99 758.358 757.497 773.716 768.101 794.156C775.808 809.132 786.685 821.374 788.871 820.172C791.057 818.97 782.422 807.109 779.525 785.849C775.863 758.577 784.28 735.84 789.691 728.134C790.705 726.853 791.567 725.459 792.26 723.98C796.687 713.978 794.665 708.458 796.742 705.124C803.246 694.74 849.651 720.263 859.653 708.841C867.141 700.315 847.738 678.508 858.342 662.275C863.425 654.46 871.405 654.077 870.968 649.431C870.804 647.3 868.945 645.332 865.994 643.638C856.994 639.263 847.011 637.304 837.025 637.954C822.759 638.719 821.721 645.551 804.394 648.83C790.948 651.344 786.412 648.174 776.519 647.573C776.083 647.528 775.645 647.509 775.207 647.518C773.858 647.471 772.507 647.507 771.162 647.628C770.889 647.628 770.616 647.682 770.288 647.682C770.014 647.682 769.686 647.737 769.359 647.737C768.757 647.792 767.992 647.846 767.227 647.901C766.243 647.956 765.259 648.065 764.111 648.174C760.182 648.547 751.362 649.96 742.849 650.962C741.966 651.065 741.264 651.144 740.936 651.18C737.6 658.844 733.272 663.318 730.307 662.6C729.661 662.444 728.662 661.941 727.711 660.098C730.864 656.044 733.661 651.725 736.072 647.19C739.311 641.094 742.932 634.07 740.663 631.122C740.116 630.411 738.75 629.537 735.033 630.193C719.073 633.308 712.022 639.539 708.635 644.895C707.321 647.649 705.628 650.207 703.606 652.492H703.551C702.853 653.05 702.026 653.426 701.146 653.585C697.703 654.132 693.549 650.907 691.745 647.573C691.481 647.103 691.262 646.609 691.089 646.097C689.832 642.217 692.019 637.571 695.845 632.926C679.066 634.729 673.435 634.62 666.548 632.871C659.058 631.402 652.346 627.29 647.636 621.284C646.189 618.838 645.245 616.128 644.86 613.312C644.475 610.497 644.657 607.632 645.395 604.888C644.521 603.576 643.701 602.264 642.881 600.953C642.826 600.898 642.772 600.898 642.772 600.844C641.843 599.477 640.968 598.111 640.093 596.799C640.039 596.744 640.039 596.69 639.984 596.635C631.508 601.83 590.46 627.299 589.804 642.11Z" fill="black"/>
<path d="M676.218 644.624C675.453 646.1 692.015 651.347 702.017 667.907C704.477 672.006 711.09 683.265 708.139 696.655C707.142 701.023 705.284 705.148 702.673 708.789C701.053 727.639 700.852 746.585 702.072 765.465C702.072 765.739 702.127 766.066 702.127 766.34C703.548 786.89 706.937 811.922 710.544 811.922C714.206 811.867 709.888 786.671 725.193 758.306C732.516 744.697 738.857 740.652 747.056 721.96C755.091 703.706 751.429 702.56 756.239 697.093C772.855 678.237 816.253 700.919 830.41 681.844C833.252 678.018 831.23 677.417 835.056 670.039C842.38 655.885 855.552 648.068 865.992 643.642C856.992 639.267 847.009 637.308 837.024 637.957C822.758 638.723 821.719 645.555 804.393 648.834C790.946 651.348 786.41 648.178 776.517 647.577C776.081 647.531 775.643 647.513 775.205 647.522C773.856 647.474 772.505 647.511 771.16 647.631C770.887 647.631 770.614 647.686 770.286 647.686C770.013 647.686 769.685 647.741 769.357 647.741C768.755 647.795 767.99 647.85 767.225 647.905C766.35 648.014 765.312 648.123 764.11 648.178C761.428 648.3 758.875 648.443 758.194 648.459C752.379 648.92 746.609 649.831 740.935 651.184C740.935 651.184 736.87 663.51 730.058 665.121C724.975 666.323 720.711 662.552 714.043 658.344C710.669 656.211 707.184 654.259 703.603 652.496H703.548C702.85 653.054 702.024 653.43 701.144 653.589C697.7 654.135 693.546 650.911 691.742 647.577C682.996 644.515 676.656 643.695 676.218 644.624Z" fill="black"/>
</svg>
