<svg width="1545" height="3929" viewBox="0 0 1545 3929" fill="none" xmlns="http://www.w3.org/2000/svg">
<path d="M1347.17 645.543C1346.33 646.293 1345.34 646.868 1344.28 647.237C1343.02 647.496 1341.73 647.551 1340.45 647.402L1339.3 647.565C1334.27 648.986 1327.06 660.245 1318.7 673.962C1309.51 689.211 1298.91 707.52 1288.36 719.107C1282.19 725.829 1276.06 730.256 1270.21 730.366C1266.19 730.125 1262.41 728.344 1259.67 725.392C1259.17 725.009 1258.68 724.572 1258.08 724.135C1257.22 723.328 1256.16 722.762 1255.01 722.493C1253.85 722.225 1252.65 722.263 1251.52 722.605C1251.25 722.714 1250.98 722.823 1250.76 722.932C1250.5 723.064 1250.26 723.23 1250.05 723.424H1249.94C1244.14 727.305 1242.12 740.094 1240.76 760.48C1240.76 760.642 1240.7 760.863 1240.7 761.027C1240.32 766.82 1239.99 773.215 1239.61 780.21C1239.55 780.976 1239.55 781.741 1239.5 782.56C1239.44 783.872 1239.39 785.075 1239.33 786.277C1238.62 800.651 1238.51 807.756 1237.26 812.894C1237.19 813.228 1237.1 813.557 1236.98 813.878C1236.9 814.249 1236.79 814.614 1236.66 814.971C1236.53 815.398 1236.39 815.818 1236.22 816.228C1235.64 817.658 1234.93 819.031 1234.09 820.327C1229.6 827.432 1223.26 832.241 1221.95 842.571C1221.24 848.255 1222.77 850.277 1223.32 856.016C1224.58 869.461 1219.11 880.502 1211.84 893.781C1198.23 918.704 1191.34 933.242 1186.92 941.495C1186.59 942.096 1186.32 942.643 1185.99 943.189C1185.5 944.064 1185.06 944.884 1184.62 945.594C1183.74 947.182 1182.65 948.651 1181.4 949.967C1180.72 950.716 1179.9 951.328 1178.99 951.77C1178.11 952.142 1177.16 952.363 1176.2 952.426C1160.46 953.793 1145.38 927.066 1143.79 924.116C1136.91 911.654 1138.71 905.096 1129.64 889.082C1125.13 881.427 1119.93 874.201 1114.11 867.493C1096.51 845.03 1102.47 831.039 1085.8 781.194C1074.65 747.963 1070.22 748.838 1067.6 729.327C1067.09 725.468 1066.98 721.567 1067.27 717.685C1067.27 716.954 1067.33 716.223 1067.43 715.499C1067.6 712.876 1067.98 710.362 1068.36 707.902C1070.39 695.497 1073.5 685.165 1066.94 675.384C1060.11 665.218 1050.65 665.382 1050.55 658.987C1050.27 648.821 1073.88 635.431 1096.29 636.963C1113.95 638.111 1114.28 647.402 1133.68 648.441C1134.72 648.495 1135.7 648.55 1136.69 648.55C1137.67 648.605 1138.65 648.604 1139.64 648.604C1154.45 648.604 1158.93 645.216 1170.74 647.784C1180.69 649.971 1184.84 654.398 1187.24 652.212C1190.8 648.932 1188.12 633.192 1187.52 627.016C1187.36 626.185 1187.36 625.332 1187.52 624.502C1187.95 623.987 1188.42 623.511 1188.94 623.081C1196.65 616.632 1213.92 620.785 1213.92 620.785C1215.82 621.079 1217.69 621.554 1219.49 622.206C1227.35 625.235 1233.95 630.818 1238.24 638.056C1242.56 638.344 1246.89 638.307 1251.2 637.947C1259.67 637.236 1267.1 636.58 1274.48 631.935C1282.13 627.125 1286.45 620.02 1286.45 616.085V615.923C1286.34 613.827 1285.84 611.77 1284.97 609.856C1284.97 609.801 1284.92 609.801 1284.92 609.747C1284.6 609.088 1284.22 608.465 1283.77 607.888C1287.21 605.921 1290.6 603.899 1293.99 601.931C1294.05 601.876 1294.05 601.822 1294.1 601.767C1295.41 599.352 1296.4 596.781 1297.05 594.116C1297.38 592.804 1297.33 592.585 1297.6 592.312C1299.35 590.344 1315.31 601.822 1317.5 603.352C1319.08 604.5 1320.77 605.703 1322.58 607.069C1329.74 612.534 1333.46 615.103 1335.48 616.85C1346.68 626.469 1350.23 642.592 1347.17 645.543Z" fill="#F4D58C" stroke="#282724" stroke-width="0.1687" stroke-miterlimit="10"/>
<path opacity="0.16" d="M1292.93 654.71C1288.83 654.145 1284.66 654.304 1280.61 655.178C1273.19 656.915 1266.41 660.725 1261.07 666.164C1246.57 682.156 1250.77 714.054 1264.7 721.274C1266.79 722.314 1269.09 722.873 1271.42 722.913C1294.06 724.037 1325.46 694.702 1318.7 673.962C1315.48 664.076 1303.66 656.358 1292.93 654.71Z" fill="#282724"/>
<path opacity="0.1" d="M1344.28 647.236C1343.02 647.494 1341.73 647.549 1340.45 647.4L1339.3 647.564C1334.27 648.985 1327.06 660.243 1318.7 673.961C1316.67 673.413 1314.65 672.867 1312.63 672.321C1301.92 669.479 1290.22 666.254 1281.53 658.985C1282.79 658.384 1284.15 658.876 1285.85 659.805C1286.26 660.03 1286.71 660.146 1287.18 660.143C1287.65 660.141 1288.11 660.018 1288.51 659.788C1288.92 659.558 1289.26 659.227 1289.5 658.829C1289.74 658.43 1289.88 657.975 1289.89 657.509C1289.94 657.023 1289.85 656.531 1289.61 656.101C1289.38 655.671 1289.02 655.323 1288.58 655.104C1288.15 654.842 1287.69 654.622 1287.21 654.449C1285.51 653.585 1283.6 653.207 1281.69 653.356C1281.61 653.315 1281.54 653.26 1281.47 653.194C1281.26 653.139 1281.04 653.029 1280.82 652.975C1278.92 652.35 1276.96 651.911 1274.97 651.663C1274.97 651.663 1273.06 651.335 1270.87 651.062C1270.05 650.953 1269.18 650.898 1268.36 650.843C1266.88 650.883 1265.44 651.277 1264.15 651.991C1254.15 656.8 1236.44 676.585 1240.53 696.425C1242.82 704.734 1246.99 712.403 1252.72 718.833C1254.41 720.698 1256.2 722.467 1258.08 724.135C1257.22 723.328 1256.16 722.761 1255.01 722.493C1253.85 722.224 1252.65 722.263 1251.52 722.604C1251.25 722.714 1250.97 722.823 1250.76 722.932C1250.5 723.064 1250.26 723.23 1250.05 723.424H1249.94C1244.14 727.305 1242.12 740.094 1240.76 760.48C1240.76 760.642 1240.7 760.862 1240.7 761.027C1240.37 763.869 1240.04 769.662 1239.61 780.21C1239.55 780.976 1239.55 781.741 1239.5 782.56C1239.44 783.872 1239.39 785.075 1239.33 786.277C1238.95 798.793 1239.22 806.335 1237.26 812.894C1237.19 813.228 1237.1 813.557 1236.98 813.877C1236.9 814.249 1236.79 814.614 1236.66 814.971C1236.53 815.398 1236.39 815.817 1236.22 816.228C1235.64 817.658 1234.93 819.03 1234.09 820.326C1229.6 827.432 1223.26 832.241 1221.95 842.571C1221.24 848.255 1222.77 850.277 1223.32 856.016C1224.58 869.461 1219.11 880.502 1211.84 893.781C1198.23 918.704 1191.34 933.242 1186.92 941.495C1186.59 942.096 1186.32 942.642 1185.99 943.189C1185.5 944.064 1185.06 944.883 1184.62 945.594C1183.74 947.182 1182.65 948.651 1181.4 949.966C1180.72 950.716 1179.9 951.328 1178.99 951.77C1178.11 952.141 1177.16 952.363 1176.2 952.426C1160.46 953.793 1145.38 927.066 1143.79 924.115C1136.91 911.654 1138.71 905.095 1129.64 889.082C1125.13 881.427 1119.93 874.201 1114.11 867.493C1096.51 845.03 1102.47 831.039 1085.8 781.194C1074.65 747.963 1070.22 748.837 1067.6 729.327C1067.09 725.468 1066.98 721.567 1067.27 717.685C1067.27 716.953 1067.33 716.223 1067.43 715.499C1067.6 712.876 1067.98 710.361 1068.36 707.902C1070.39 695.497 1073.5 685.165 1066.94 675.383C1060.11 665.218 1050.65 665.381 1050.55 658.987C1050.27 648.821 1073.88 635.431 1096.29 636.963C1113.95 638.111 1114.28 647.402 1133.68 648.441C1134.72 648.495 1135.7 648.55 1136.69 648.55C1137.67 648.604 1138.65 648.604 1139.64 648.604C1150.01 649.022 1160.4 648.748 1170.74 647.784C1180.69 649.971 1184.84 654.398 1187.24 652.212C1190.8 648.932 1188.12 633.192 1187.52 627.016V624.502C1188.42 628.062 1189.1 631.677 1189.54 635.323C1189.87 640.666 1190.56 645.979 1191.62 651.226C1192.16 653.413 1192.77 655.162 1193.15 656.309C1196.15 659.079 1199.86 660.969 1203.86 661.775C1206.23 662.47 1208.76 662.374 1211.08 661.501C1212.98 660.643 1214.58 659.234 1215.67 657.457C1212.11 650.57 1208.56 643.629 1205.01 636.743L1207.14 637.399C1214.46 639.485 1220.9 643.921 1225.45 650.024C1225.67 650.352 1225.89 650.735 1226.11 651.062C1227.32 653.46 1228.84 655.684 1230.64 657.676C1231.3 658.216 1232.09 658.574 1232.94 658.714C1233.74 658.821 1234.56 658.766 1235.34 658.55C1235.8 658.435 1236.24 658.27 1236.65 658.058C1237.13 657.845 1237.59 657.589 1238.02 657.293C1238.5 657.028 1238.94 656.697 1239.33 656.309C1240.55 655.308 1241.57 654.084 1242.34 652.702C1242.81 651.893 1243.12 651.003 1243.27 650.079C1243.31 649.808 1243.33 649.533 1243.32 649.259C1243.32 646.308 1241.35 643.247 1238.24 638.055C1242.55 638.342 1246.88 638.306 1251.19 637.945C1259.67 637.235 1267.1 636.579 1274.48 631.934C1282.13 627.124 1286.45 620.019 1286.45 616.083V615.922C1286.68 614.865 1286.67 613.768 1286.42 612.716C1286.16 611.664 1285.67 610.685 1284.97 609.855C1284.97 609.8 1284.92 609.8 1284.92 609.745C1285.14 609.581 1285.41 609.472 1285.63 609.308C1287.73 608.722 1289.65 607.612 1291.2 606.084C1291.26 606.029 1291.31 606.029 1291.31 605.974H1291.37C1292.49 604.801 1293.38 603.429 1293.99 601.93C1294.05 601.875 1294.05 601.82 1294.1 601.766C1302.57 606.955 1343.62 632.424 1344.28 647.236Z" fill="#282724"/>
<path opacity="0.1" d="M1151.46 924.105C1142.18 909.903 1141.48 894.558 1134.9 879.635C1128.98 866.223 1116.53 855.647 1109.81 842.366C1101.73 826.414 1099.03 809.357 1094.65 792.259C1090.77 777.08 1083.11 765.262 1076.51 751.305C1072.71 743.759 1070.4 735.55 1069.71 727.129C1069.18 722.321 1071.12 713.441 1069.13 709.146C1068.93 708.714 1068.62 708.314 1068.37 707.895C1067.02 714.959 1066.76 722.188 1067.6 729.331C1070.22 748.843 1074.65 747.969 1085.8 781.199C1102.47 831.043 1096.51 845.035 1114.11 867.498C1119.93 874.206 1125.13 881.432 1129.63 889.086C1138.71 905.1 1136.9 911.658 1143.79 924.12C1145.38 927.071 1160.46 953.797 1176.2 952.431C1180.34 952.073 1182.4 949.944 1186.93 941.487C1179.98 942.256 1172.95 941.029 1166.67 937.951C1160.39 934.873 1155.11 930.07 1151.46 924.105Z" fill="#282724"/>
<path opacity="0.16" d="M1344.28 647.237C1343 647.169 1341.72 647.224 1340.45 647.401L1339.3 647.565C1330.34 649.15 1325.36 655.326 1320.94 658.441C1311.59 664.945 1298.42 661.174 1289.89 657.512C1287.05 656.255 1284.7 655.052 1283.17 654.178C1282.29 653.741 1282.29 653.686 1281.69 653.358C1281.41 653.208 1281.12 653.08 1280.82 652.976C1277.69 651.598 1274.29 650.944 1270.87 651.063C1268.6 651.142 1266.35 651.454 1264.15 651.992C1260.22 652.896 1256.43 654.33 1252.89 656.255C1250.86 657.294 1229.6 668.825 1230.48 691.397C1230.79 697.971 1232.83 704.348 1236.39 709.884C1239.95 715.42 1244.9 719.921 1250.75 722.932C1252.36 723.772 1254.02 724.502 1255.73 725.119C1253.98 724.681 1252.07 724.135 1250.04 723.424H1249.99C1248.35 722.878 1246.6 722.222 1244.85 721.457C1240.11 719.439 1235.6 716.91 1231.41 713.915C1232.39 737.471 1232.5 755.999 1232.01 770.591C1232.01 770.864 1231.95 771.192 1231.95 771.466C1231.02 796.388 1228.34 809.669 1225.17 816.938C1222.8 822.219 1220.76 827.64 1219.05 833.171C1215.91 842.995 1213.71 853.097 1212.49 863.339C1208.34 894.109 1186.09 927.887 1183.52 926.848C1180.85 925.755 1200.96 884.928 1195.17 881.649C1191.07 879.299 1177.73 898.155 1174.29 896.023C1171.17 894.001 1181.39 877.659 1187.84 852.3C1192.79 832.935 1193.89 812.787 1191.07 792.999C1189.15 780.429 1184.67 763.158 1180.25 763.322C1176.09 763.486 1176.58 778.844 1165.98 799.285C1158.27 814.26 1147.4 826.503 1145.21 825.3C1143.02 824.098 1151.66 812.238 1154.56 790.977C1158.22 763.706 1149.8 740.969 1144.39 733.26C1143.38 731.98 1142.51 730.586 1141.82 729.107C1137.39 719.105 1139.42 713.585 1137.34 710.251C1130.83 699.867 1084.43 725.39 1074.43 713.968C1066.94 705.442 1086.34 683.635 1075.74 667.402C1070.66 659.586 1062.68 659.204 1063.11 654.558C1063.28 652.427 1065.14 650.459 1068.09 648.765C1077.09 644.39 1087.07 642.431 1097.06 643.08C1111.32 643.846 1112.36 650.678 1129.69 653.957C1143.13 656.471 1147.67 653.301 1157.56 652.7C1158 652.654 1158.44 652.636 1158.87 652.645C1160.22 652.597 1161.57 652.634 1162.92 652.754C1163.19 652.754 1163.46 652.809 1163.79 652.809C1164.07 652.809 1164.39 652.864 1164.72 652.864C1165.32 652.918 1166.09 652.973 1166.85 653.028C1167.84 653.083 1168.82 653.192 1169.97 653.301C1173.9 653.674 1182.72 655.087 1191.23 656.088C1192.12 656.192 1192.82 656.271 1193.14 656.307C1196.48 663.971 1200.81 668.445 1203.77 667.727C1204.42 667.571 1205.42 667.067 1206.37 665.224C1203.22 661.17 1200.42 656.852 1198.01 652.317C1194.77 646.221 1191.15 639.197 1193.42 636.249C1193.96 635.538 1195.33 634.664 1199.05 635.32C1215.01 638.435 1222.06 644.666 1225.45 650.022C1226.76 652.776 1228.45 655.333 1230.47 657.619H1230.53C1231.23 658.177 1232.05 658.553 1232.93 658.712C1236.38 659.258 1240.53 656.034 1242.34 652.7C1242.6 652.229 1242.82 651.735 1242.99 651.224C1244.25 647.344 1242.06 642.698 1238.24 638.052C1255.01 639.856 1260.65 639.747 1267.53 637.998C1275.02 636.529 1281.73 632.416 1286.44 626.411C1287.89 623.965 1288.84 621.255 1289.22 618.439C1289.61 615.623 1289.42 612.759 1288.69 610.015C1289.56 608.703 1290.38 607.391 1291.2 606.08C1291.25 606.025 1291.31 606.025 1291.31 605.97C1292.24 604.604 1293.11 603.238 1293.99 601.926C1294.04 601.871 1294.04 601.816 1294.1 601.762C1302.57 606.957 1343.62 632.426 1344.28 647.237Z" fill="#282724"/>
<path opacity="0.1" d="M1257.86 649.75C1258.63 651.225 1242.07 656.472 1232.06 673.033C1229.6 677.132 1222.99 688.39 1225.94 701.781C1226.94 706.148 1228.8 710.273 1231.41 713.914C1233.03 732.764 1233.23 751.71 1232.01 770.591C1232.01 770.864 1231.95 771.192 1231.95 771.465C1230.53 792.015 1227.14 817.047 1223.54 817.047C1219.87 816.992 1224.19 791.796 1208.89 763.431C1201.56 749.822 1195.22 745.777 1187.02 727.086C1178.99 708.831 1182.65 707.685 1177.84 702.218C1161.22 683.362 1117.83 706.044 1103.67 686.969C1100.83 683.144 1102.85 682.543 1099.02 675.164C1091.7 661.01 1078.53 653.193 1068.09 648.767C1077.09 644.392 1087.07 642.433 1097.06 643.083C1111.32 643.848 1112.36 650.68 1129.69 653.959C1143.13 656.473 1147.67 653.303 1157.56 652.702C1158 652.656 1158.44 652.638 1158.87 652.647C1160.22 652.599 1161.57 652.636 1162.92 652.756C1163.19 652.756 1163.47 652.811 1163.79 652.811C1164.07 652.811 1164.4 652.866 1164.72 652.866C1165.32 652.92 1166.09 652.975 1166.85 653.03C1167.73 653.139 1168.77 653.248 1169.97 653.303C1172.65 653.425 1175.21 653.568 1175.89 653.584C1181.7 654.045 1187.47 654.956 1193.15 656.309C1193.15 656.309 1197.21 668.635 1204.02 670.246C1209.11 671.448 1213.37 667.677 1220.04 663.469C1223.41 661.336 1226.9 659.384 1230.48 657.621H1230.53C1231.23 658.179 1232.06 658.555 1232.94 658.714C1236.38 659.26 1240.53 656.036 1242.34 652.702C1251.08 649.64 1257.42 648.82 1257.86 649.75Z" fill="#282724"/>
</svg>
