<svg width="1545" height="3929" viewBox="0 0 1545 3929" fill="none" xmlns="http://www.w3.org/2000/svg">
<path d="M1474.85 1918.5C1471.68 1919.54 1469.55 1912.71 1460.75 1908.77C1455.45 1906.37 1450.48 1906.42 1440.8 1906.7C1425.28 1907.08 1421.51 1909.92 1418.78 1907.62C1411.12 1901.23 1427.96 1869.53 1428.29 1868.87C1435.34 1855.65 1438.62 1838.65 1439.27 1815.86C1440.31 1781.97 1435.5 1735.19 1428.61 1668.46C1416.53 1550.4 1393.09 1445.41 1385.43 1427.92C1382.59 1419.82 1380.4 1411.51 1378.88 1403.06C1377.45 1396.61 1376.69 1392.4 1378.88 1388.46C1381.28 1384.04 1386.04 1382.51 1391.88 1380.65C1401.51 1377.87 1411.72 1377.87 1421.34 1380.65C1428.56 1382.29 1430.09 1383.87 1430.91 1385.07C1431.67 1386.63 1432.09 1388.34 1432.13 1390.07C1432.18 1391.81 1431.86 1393.53 1431.18 1395.13C1430.64 1397.04 1429.87 1399.12 1429.11 1401.31C1427.31 1405.93 1425.19 1410.43 1422.77 1414.75C1418.39 1423.77 1419.1 1432.51 1419.92 1441.7C1422.27 1466.84 1444.68 1595.71 1455.18 1658.89C1456.82 1668.9 1458.18 1677.26 1459.11 1683.27C1471.36 1762.63 1469.88 1827.67 1475.18 1859.97C1475.46 1861.66 1475.73 1863.25 1476.06 1864.78C1477.92 1873.79 1478.08 1881.83 1478.3 1897.9C1478.52 1910.63 1477.86 1917.57 1474.85 1918.5Z" fill="#FFEECC" stroke="#282724" stroke-width="0.1687" stroke-miterlimit="10"/>
<path opacity="0.1" d="M1474.85 1918.5C1471.68 1919.54 1469.55 1912.71 1460.75 1908.77C1455.45 1906.37 1450.48 1906.42 1440.8 1906.7C1425.28 1907.08 1421.51 1909.92 1418.78 1907.63C1411.12 1901.23 1427.96 1869.53 1428.29 1868.88C1435.34 1855.65 1438.62 1838.65 1439.27 1815.86C1442.72 1786.35 1439.76 1750.33 1435.5 1698.35C1428.34 1610.91 1391.12 1433.72 1383.74 1408.9C1383.14 1406.77 1380.79 1399.28 1384.45 1395.02C1387.13 1391.85 1392.1 1391.58 1398.66 1391.31C1403.96 1391.03 1408.39 1390.81 1409.54 1393C1411.34 1396.39 1404.02 1403.55 1403.09 1404.48C1384.12 1424.32 1436.32 1584.18 1446.05 1698.35C1454.8 1800.45 1459.17 1851.5 1455.45 1864.99C1454.63 1868.06 1450.2 1882.81 1457.42 1894.51C1461.25 1900.79 1468.73 1906.64 1473.22 1904.84C1477.53 1903.09 1480.48 1893.58 1475.18 1859.97C1475.46 1861.66 1475.73 1863.25 1476.06 1864.78C1477.92 1873.79 1478.08 1881.83 1478.3 1897.9C1478.52 1910.63 1477.86 1917.57 1474.85 1918.5Z" fill="#282724"/>
<path opacity="0.05" d="M1455.18 1658.89C1452.28 1648.56 1448.89 1636.1 1444.9 1621.62C1410.08 1493.83 1393.8 1411.47 1414.68 1398.08C1417.89 1396.07 1421.55 1394.85 1425.33 1394.53C1427.3 1394.42 1429.28 1394.62 1431.18 1395.13C1430.64 1397.04 1429.87 1399.12 1429.1 1401.3C1427.31 1405.93 1425.19 1410.42 1422.76 1414.75C1418.39 1423.77 1419.1 1432.51 1419.92 1441.69C1422.27 1466.84 1444.68 1595.71 1455.18 1658.89Z" fill="#282724"/>
</svg>
