<svg width="1545" height="3929" viewBox="0 0 1545 3929" fill="none" xmlns="http://www.w3.org/2000/svg">
<path d="M468.107 1376.9C465.539 1385.31 462.304 1393.5 458.433 1401.4C428.426 1452.95 429.628 1648.39 429.628 1648.39C430.393 1766.93 430.776 1826.18 437.936 1848.1C440.149 1854.81 441.74 1861.72 442.692 1868.73L442.746 1868.78C443.402 1874.8 443.019 1880.36 440.013 1882.33C438.483 1883.4 437.335 1882.72 428.754 1882.33C421.922 1881.99 422.195 1882.39 410.17 1882.33C391.477 1882.22 382.13 1882.22 379.999 1879.35C379.832 1879.1 379.686 1878.84 379.562 1878.56C379.452 1878.28 379.343 1878 379.233 1877.66C379.077 1877.04 379.003 1876.4 379.015 1875.75C379.018 1875.17 379.073 1874.59 379.179 1874.01C379.416 1872.56 379.819 1871.15 380.381 1869.79C380.655 1869.06 380.983 1868.33 381.311 1867.6C381.529 1867.1 381.748 1866.59 382.021 1866.08C382.182 1865.74 382.365 1865.4 382.568 1865.07C382.872 1864.43 383.219 1863.81 383.606 1863.22C383.934 1862.6 384.317 1861.98 384.699 1861.36C387.651 1856.64 390.821 1852.65 391.805 1851.36C392.656 1850.26 393.441 1849.12 394.155 1847.93L394.264 1847.82C419.024 1809.31 387.815 1741.3 393.991 1651.53C398.637 1584.93 416.619 1437.26 422.413 1410.96C424.469 1403.96 425.192 1396.64 424.545 1389.37C424.268 1387.24 423.793 1385.13 423.124 1383.08C422.905 1382.35 422.632 1381.62 422.359 1380.89C422.195 1380.44 422.031 1379.99 421.812 1379.48C421.32 1378.19 420.774 1376.78 420.282 1375.21V1375.15C419.68 1373.3 419.079 1371.16 418.478 1368.52C417.002 1361.49 415.745 1355.42 418.806 1351.71C419.735 1350.59 421.484 1349.24 428.863 1348.51C438.762 1346.89 448.918 1348.24 458.05 1352.39C463.68 1355.03 468.162 1357.22 470.02 1362.06C471.66 1366.38 470.349 1370.6 468.107 1376.9Z" fill="#FFEECC" stroke="#282724" stroke-width="0.1687" stroke-miterlimit="10"/>
<path opacity="0.1" d="M411.372 1609.04C411.372 1609.04 387.651 1747.59 423.944 1830.39C428.809 1841.52 434.383 1852.76 434.383 1852.76C437.798 1857.72 440.588 1863.08 442.692 1868.73L442.746 1868.78C443.402 1874.8 443.019 1880.36 440.013 1882.33C438.483 1883.4 437.335 1882.72 428.754 1882.33C421.922 1881.99 422.195 1882.38 410.17 1882.33C391.477 1882.22 382.13 1882.22 379.999 1879.35C379.832 1879.1 379.686 1878.84 379.562 1878.56C379.452 1878.28 379.343 1878 379.233 1877.66C379.077 1877.04 379.003 1876.4 379.015 1875.75C379.018 1875.17 379.073 1874.58 379.179 1874.01C379.416 1872.56 379.819 1871.15 380.381 1869.79C380.655 1869.06 380.983 1868.33 381.311 1867.6C381.529 1867.1 381.748 1866.59 382.021 1866.08C382.182 1865.74 382.365 1865.4 382.568 1865.07C382.872 1864.43 383.219 1863.81 383.606 1863.22C383.934 1862.6 384.317 1861.98 384.699 1861.36C387.546 1856.68 390.705 1852.19 394.155 1847.93L394.264 1847.82C394.374 1847.7 394.428 1847.59 394.483 1847.53C391.037 1856.42 391.266 1863.71 394.272 1865.53C397.332 1867.39 403.335 1863.6 406.689 1859.32C413.614 1850.48 410.943 1837.38 410.233 1833.55C406.452 1813.16 400.969 1746.78 393.991 1651.53C412.144 1478.58 420.139 1419.34 422.413 1410.96C424.738 1404.01 425.467 1396.64 424.545 1389.37C424.268 1387.23 423.793 1385.13 423.124 1383.08C422.905 1382.35 422.632 1381.62 422.359 1380.88C422.195 1380.44 421.976 1379.93 421.812 1379.48C421.32 1378.19 420.774 1376.78 420.282 1375.21V1375.15C420.823 1372.4 422.385 1369.95 424.655 1368.29C429.902 1364.53 437.882 1368.74 440.888 1373.75C443.783 1379.39 444.688 1385.85 443.457 1392.07C429.628 1463.85 423.671 1536.98 411.372 1609.04Z" fill="#282724"/>
</svg>
