<svg width="1545" height="3929" viewBox="0 0 1545 3929" fill="none" xmlns="http://www.w3.org/2000/svg">
<path d="M479.722 2782.21C476.28 2779.9 472.344 2777.62 468.723 2778.82C455.775 2783.1 460.139 2828.63 460.765 2836.67C469.893 2954.16 337.812 3528.62 317.66 3586.51C309.963 3608.61 311.564 3620.07 314.765 3642.97C315.186 3645.99 316.076 3651.48 318.355 3651.85C322.677 3652.56 325.763 3633.82 339.855 3610.24C348.627 3595.55 352.184 3594.46 357.414 3582.55C361.617 3572.74 363.884 3562.22 364.092 3551.55C368.635 3457.71 399.552 3367.03 416.709 3274.66C441.562 3140.85 494.868 2877.18 498.784 2855.19C500.556 2844.66 500.618 2833.91 498.967 2823.36C496.912 2810.07 493.792 2791.65 479.722 2782.21Z" fill="#FFEECC" stroke="#282724" stroke-width="0.1687" stroke-miterlimit="10"/>
<path opacity="0.1" d="M479.722 2782.21C476.974 2782.67 475.002 2787.68 474.839 2791.61C474.434 2801.42 485.269 2804.84 487.791 2816.53C488.68 2821.64 488.106 2826.9 486.135 2831.7C480.466 2849.57 493.366 2869.33 435.236 3120.42C398.41 3279.48 365.933 3439.54 328.119 3598.38C327.094 3602.68 320.568 3630.06 324.324 3631.39C325.89 3631.94 328.326 3627.65 339.856 3610.24C353.201 3590.08 354.821 3588.46 357.416 3582.55C361.618 3572.74 363.886 3562.22 364.093 3551.55C368.636 3457.71 399.554 3367.03 416.71 3274.66C441.563 3140.85 494.869 2877.17 498.786 2855.19C500.557 2844.66 500.619 2833.91 498.968 2823.35C495.744 2802.53 485.553 2781.24 479.722 2782.21Z" fill="#282724"/>
</svg>
