<svg width="1545" height="3929" viewBox="0 0 1545 3929" fill="none" xmlns="http://www.w3.org/2000/svg">
<path d="M1164.72 2806.2C1161.91 2813.54 1158.61 2820.68 1154.83 2827.57C1129.74 2875.45 1113.13 3016.13 1097.17 3151.51C1090.77 3205.83 1084.71 3256.88 1079.4 3303.5V3303.72C1065.52 3426.2 1056.61 3518.07 1059.02 3558.52C1059.12 3560.16 1059.23 3561.69 1059.4 3563.16C1059.45 3564.09 1059.56 3564.97 1059.67 3565.84C1059.66 3565.95 1059.68 3566.07 1059.73 3566.17C1059.78 3566.66 1059.89 3567.15 1059.94 3567.59C1060.16 3569.01 1060.38 3570.32 1060.6 3571.58C1060.66 3571.8 1060.71 3572.07 1060.76 3572.4C1060.98 3573.27 1061.26 3574.53 1061.48 3576.01C1061.64 3576.94 1061.8 3577.97 1061.91 3579.12C1062.08 3580.05 1062.19 3581.09 1062.3 3582.13C1062.35 3582.67 1062.4 3583.22 1062.4 3583.77C1062.35 3583.82 1062.4 3583.93 1062.4 3583.99C1062.4 3584.17 1062.42 3584.35 1062.46 3584.53C1062.42 3584.84 1062.44 3585.16 1062.51 3585.46C1062.51 3585.94 1062.52 3586.41 1062.57 3586.88C1062.57 3587.43 1062.62 3587.98 1062.62 3588.58V3589.23C1062.68 3598.58 1060.93 3609.4 1053.66 3616.78C1048.19 3622.3 1038.79 3626.78 1031.69 3624.16C1031.68 3624.16 1031.67 3624.16 1031.67 3624.15C1031.66 3624.15 1031.65 3624.15 1031.65 3624.14C1031.64 3624.14 1031.64 3624.13 1031.64 3624.12C1031.63 3624.12 1031.63 3624.11 1031.63 3624.1C1029.07 3621.13 1027.02 3617.75 1025.56 3614.1C1014.8 3589.23 1025.57 3557.37 1029.99 3542.67C1048.79 3479.87 1041.47 3412.1 1047.43 3346.84C1047.43 3346.68 1047.48 3346.51 1047.48 3346.29C1047.47 3346.13 1047.49 3345.96 1047.54 3345.8V3345.75C1047.54 3345.58 1047.59 3345.36 1047.59 3345.2C1047.65 3344.65 1047.7 3344.05 1047.76 3343.34C1047.81 3342.8 1047.87 3342.14 1047.92 3341.43V3341.27C1047.97 3341.05 1047.97 3340.83 1048.03 3340.61V3340.12C1048.08 3339.9 1048.08 3339.68 1048.14 3339.46C1048.15 3339.11 1048.19 3338.77 1048.25 3338.42C1048.3 3337.82 1048.36 3337.17 1048.41 3336.62C1048.4 3336.38 1048.42 3336.14 1048.47 3335.91C1048.53 3335.57 1048.57 3335.22 1048.58 3334.87C1048.6 3334.83 1048.62 3334.78 1048.62 3334.73C1048.62 3334.69 1048.6 3334.64 1048.58 3334.6V3334.54L1048.74 3333.23C1048.79 3332.63 1048.9 3331.97 1048.96 3331.37C1049.07 3330.5 1049.12 3329.57 1049.23 3328.64C1049.29 3328.42 1049.29 3328.15 1049.34 3327.88C1049.45 3327.06 1049.51 3326.29 1049.61 3325.53C1049.62 3325.23 1049.66 3324.94 1049.72 3324.65C1049.78 3324.16 1049.83 3323.72 1049.89 3323.23V3323.07C1050 3322.41 1050.05 3321.7 1050.16 3320.99C1050.49 3317.98 1050.87 3314.92 1051.31 3311.31C1051.53 3309.68 1051.75 3307.93 1051.96 3306.01C1052.07 3305.19 1052.18 3304.32 1052.29 3303.45C1052.4 3302.46 1052.51 3301.48 1052.62 3300.38C1052.73 3299.51 1052.84 3298.58 1052.95 3297.65C1053.06 3296.67 1053.22 3295.63 1053.33 3294.54C1053.66 3291.69 1053.99 3288.63 1054.37 3285.19C1054.59 3283.5 1054.75 3281.69 1054.97 3279.83C1055.19 3277.92 1055.41 3275.95 1055.63 3273.88C1057.32 3258.25 1059.11 3242.61 1060.98 3226.98C1061.04 3226.33 1061.15 3225.62 1061.2 3224.91C1063.11 3208.95 1065.08 3192.99 1067.1 3177.03C1067.16 3176.54 1067.21 3176.1 1067.27 3175.66C1069.02 3161.94 1070.77 3148.17 1072.57 3134.45C1074.37 3120.74 1076.23 3107.02 1078.09 3093.3C1078.36 3091.06 1078.64 3088.87 1078.97 3086.69C1080.55 3075.15 1082.08 3063.62 1083.67 3052.14C1093.12 2983.55 1102.85 2914.96 1111.71 2846.31C1111.76 2845.88 1111.87 2845.22 1111.98 2844.29C1112.09 2843.8 1112.14 2843.2 1112.25 2842.54C1112.99 2838.44 1113.97 2834.39 1115.2 2830.41C1115.53 2829.32 1115.91 2828.22 1116.35 2827.08C1116.79 2825.66 1117.34 2824.23 1117.94 2822.76C1118.37 2821.78 1118.76 2820.79 1119.19 2819.81C1119.8 2818.44 1120.4 2817.18 1121 2815.87C1121.11 2815.71 1121.16 2815.49 1121.27 2815.33C1121.6 2814.62 1121.93 2813.9 1122.31 2813.19L1122.47 2812.87C1122.65 2812.57 1122.8 2812.26 1122.91 2811.94C1123.02 2811.77 1123.07 2811.61 1123.18 2811.45C1123.2 2811.36 1123.24 2811.29 1123.29 2811.23C1128.38 2800.95 1136.08 2787.4 1149.04 2783.03H1149.09C1149.91 2782.75 1150.73 2782.53 1151.61 2782.31C1151.9 2782.26 1152.19 2782.19 1152.48 2782.1C1155.81 2781.39 1162.05 2780.29 1165.49 2783.63C1169.81 2787.78 1168 2797.13 1164.72 2806.2Z" fill="#FFEECC" stroke="#282724" stroke-width="0.1687" stroke-miterlimit="10"/>
<path opacity="0.05" d="M1165.49 2783.63C1162.05 2780.29 1155.81 2781.39 1152.48 2782.1C1152.7 2781.99 1152.92 2781.82 1153.19 2781.71C1152.43 2781.99 1151.88 2782.21 1151.61 2782.31C1149.75 2783.06 1147.95 2783.92 1146.2 2784.88C1146.2 2784.89 1146.19 2784.9 1146.19 2784.9C1146.19 2784.91 1146.18 2784.92 1146.18 2784.92C1146.17 2784.93 1146.17 2784.93 1146.16 2784.93C1146.16 2784.94 1146.15 2784.94 1146.14 2784.94C1136.99 2790.62 1129.61 2798.74 1124.82 2808.38C1124.33 2809.31 1123.79 2810.24 1123.29 2811.23C1123.24 2811.29 1123.2 2811.36 1123.18 2811.45C1123.07 2811.61 1123.02 2811.77 1122.91 2811.94C1122.8 2812.26 1122.65 2812.57 1122.47 2812.87L1122.31 2813.19C1121.93 2813.9 1121.6 2814.62 1121.27 2815.33C1121.16 2815.49 1121.11 2815.71 1121 2815.87C1120.4 2817.18 1119.8 2818.44 1119.19 2819.81C1118.76 2820.79 1118.37 2821.78 1117.94 2822.76C1117.34 2824.23 1116.79 2825.66 1116.35 2827.08C1115.91 2828.22 1115.53 2829.32 1115.2 2830.41C1113.97 2834.39 1112.99 2838.44 1112.25 2842.54C1112.14 2843.2 1112.09 2843.8 1111.98 2844.29C1111.87 2845.22 1111.76 2845.88 1111.71 2846.31C1102.85 2914.96 1093.12 2983.55 1083.67 3052.14C1082.08 3063.62 1080.55 3075.15 1078.97 3086.69C1078.64 3088.87 1078.36 3091.06 1078.09 3093.3C1076.23 3107.02 1074.39 3120.74 1072.57 3134.45C1070.77 3148.17 1069.02 3161.94 1067.27 3175.66C1067.21 3176.1 1067.16 3176.54 1067.1 3177.03C1065.08 3192.99 1063.12 3208.95 1061.2 3224.91C1061.15 3225.62 1061.04 3226.33 1060.98 3226.98C1059.12 3242.61 1057.34 3258.25 1055.63 3273.88C1055.41 3275.95 1055.19 3277.92 1054.97 3279.83C1054.75 3281.69 1054.59 3283.5 1054.37 3285.19C1053.99 3288.63 1053.66 3291.69 1053.33 3294.54C1053.22 3295.63 1053.06 3296.67 1052.95 3297.65C1052.84 3298.58 1052.73 3299.51 1052.62 3300.38C1052.51 3301.48 1052.4 3302.46 1052.29 3303.44C1052.18 3304.32 1052.07 3305.19 1051.96 3306.01C1051.75 3307.93 1051.53 3309.67 1051.31 3311.31C1050.87 3314.92 1050.49 3317.98 1050.16 3320.99C1050.05 3321.7 1050 3322.41 1049.89 3323.07V3323.23C1049.83 3323.72 1049.78 3324.16 1049.72 3324.65C1049.66 3324.94 1049.62 3325.23 1049.61 3325.53C1049.51 3326.29 1049.45 3327.06 1049.34 3327.88C1049.29 3328.15 1049.29 3328.42 1049.23 3328.64C1049.12 3329.57 1049.07 3330.5 1048.96 3331.37C1048.9 3331.97 1048.79 3332.63 1048.74 3333.23L1048.58 3334.54V3334.6C1048.6 3334.64 1048.62 3334.69 1048.62 3334.73C1048.62 3334.78 1048.6 3334.83 1048.58 3334.87C1048.57 3335.22 1048.53 3335.57 1048.47 3335.91C1048.42 3336.14 1048.4 3336.38 1048.41 3336.62C1048.35 3336.91 1048.31 3337.2 1048.3 3337.49C1048.3 3337.82 1048.25 3338.15 1048.25 3338.42C1048.19 3338.77 1048.15 3339.11 1048.14 3339.46C1048.08 3339.68 1048.08 3339.9 1048.03 3340.12V3340.61C1047.97 3340.83 1047.97 3341.05 1047.92 3341.27V3341.43C1047.87 3342.14 1047.81 3342.8 1047.76 3343.34C1047.7 3344.05 1047.65 3344.65 1047.59 3345.2C1047.59 3345.36 1047.54 3345.58 1047.54 3345.75V3345.8C1047.49 3345.96 1047.47 3346.13 1047.48 3346.29C1047.48 3346.51 1047.43 3346.68 1047.43 3346.84C1041.47 3412.1 1048.79 3479.87 1029.99 3542.67C1025.57 3557.37 1014.8 3589.23 1025.56 3614.1C1027.02 3617.75 1029.07 3621.13 1031.63 3624.1C1031.63 3624.11 1031.63 3624.12 1031.64 3624.12C1031.64 3624.13 1031.64 3624.14 1031.65 3624.14C1031.65 3624.15 1031.66 3624.15 1031.67 3624.15C1031.67 3624.16 1031.68 3624.16 1031.69 3624.16C1038.79 3626.78 1048.19 3622.3 1053.66 3616.78C1060.93 3609.4 1062.68 3598.58 1062.62 3589.23V3588.58C1062.62 3587.98 1062.57 3587.43 1062.57 3586.88C1062.52 3586.41 1062.51 3585.94 1062.51 3585.46C1062.44 3585.16 1062.42 3584.84 1062.46 3584.53C1062.42 3584.35 1062.4 3584.17 1062.4 3583.99C1062.4 3583.93 1062.35 3583.82 1062.4 3583.77C1062.4 3583.22 1062.35 3582.67 1062.3 3582.13C1062.19 3581.09 1062.08 3580.05 1061.91 3579.12C1061.8 3577.97 1061.64 3576.94 1061.48 3576.01C1061.26 3574.53 1060.98 3573.27 1060.76 3572.4C1060.71 3572.07 1060.66 3571.8 1060.6 3571.58C1060.38 3570.32 1060.16 3569.01 1059.94 3567.59C1059.73 3566.22 1059.56 3564.75 1059.4 3563.16C1059.23 3561.69 1059.12 3560.16 1059.02 3558.52C1056.61 3518.07 1065.52 3426.2 1079.4 3303.72V3303.5C1081.7 3248.79 1083.99 3192.71 1087.55 3144.84C1104.38 2917.53 1128.21 2855.22 1150.19 2826.53C1152.32 2823.74 1159.04 2815.22 1164.72 2806.2C1168 2797.13 1169.81 2787.78 1165.49 2783.63Z" fill="#282724"/>
<path opacity="0.1" d="M1145.98 2794.12C1138.27 2805.49 1130.73 2807.73 1131.33 2813.25C1131.76 2817.24 1135.86 2817.51 1137.23 2822.54C1139.03 2829.26 1133.68 2836.04 1132.91 2837.13C1126.35 2846.48 1094.27 2953.98 1080.28 3148.28C1063.5 3380.45 1054.7 3506.92 1059.02 3558.52C1059.12 3560.16 1059.23 3561.69 1059.4 3563.16C1059.56 3564.75 1059.73 3566.22 1059.94 3567.59C1060.16 3569.01 1060.38 3570.32 1060.6 3571.58C1060.66 3571.8 1060.71 3572.07 1060.76 3572.4C1061.2 3574.8 1061.97 3578.85 1062.4 3583.77C1062.35 3583.82 1062.4 3583.93 1062.4 3583.99C1062.4 3584.17 1062.42 3584.35 1062.46 3584.53C1062.42 3584.84 1062.44 3585.16 1062.51 3585.46C1062.51 3585.94 1062.52 3586.41 1062.57 3586.88C1062.57 3587.43 1062.62 3587.98 1062.62 3588.58V3589.23C1062.68 3598.58 1060.93 3609.4 1053.66 3616.78C1048.19 3622.3 1038.79 3626.78 1031.69 3624.16C1031.68 3624.16 1031.67 3624.16 1031.67 3624.15C1031.66 3624.15 1031.65 3624.15 1031.65 3624.14C1031.64 3624.14 1031.64 3624.13 1031.64 3624.12C1031.63 3624.12 1031.63 3624.11 1031.63 3624.1C1029.07 3621.13 1027.02 3617.75 1025.57 3614.1C1014.8 3589.23 1025.56 3557.37 1029.99 3542.67C1048.79 3479.87 1041.47 3412.1 1047.43 3346.84C1047.43 3346.68 1047.48 3346.51 1047.48 3346.29C1047.47 3346.13 1047.49 3345.96 1047.54 3345.8V3345.75C1047.54 3345.58 1047.59 3345.37 1047.59 3345.2C1047.65 3344.65 1047.7 3344.05 1047.76 3343.34C1047.81 3342.8 1047.87 3342.14 1047.92 3341.43V3341.27C1047.97 3340.99 1047.97 3340.66 1048.03 3340.34V3340.12C1048.14 3339.3 1048.19 3338.42 1048.3 3337.5C1048.31 3337.2 1048.35 3336.91 1048.41 3336.62C1048.4 3336.38 1048.42 3336.14 1048.47 3335.91C1048.53 3335.57 1048.57 3335.22 1048.58 3334.87C1048.6 3334.83 1048.62 3334.78 1048.62 3334.74C1048.62 3334.69 1048.6 3334.64 1048.58 3334.6V3334.54L1048.74 3333.23C1048.79 3332.63 1048.9 3331.98 1048.96 3331.37C1049.07 3330.5 1049.12 3329.57 1049.23 3328.64C1049.29 3328.42 1049.29 3328.15 1049.34 3327.88C1049.45 3327.06 1049.51 3326.29 1049.61 3325.53C1049.62 3325.23 1049.66 3324.94 1049.72 3324.65C1049.78 3324.16 1049.83 3323.72 1049.89 3323.23V3323.07C1050 3322.41 1050.05 3321.7 1050.16 3320.99C1050.49 3317.98 1050.87 3314.92 1051.31 3311.32C1051.53 3309.68 1051.75 3307.93 1051.96 3306.01C1052.07 3305.19 1052.18 3304.32 1052.29 3303.45C1052.4 3302.46 1052.51 3301.48 1052.62 3300.38C1052.73 3299.51 1052.84 3298.58 1052.95 3297.65C1053.06 3296.67 1053.22 3295.63 1053.33 3294.54C1053.66 3291.69 1053.99 3288.63 1054.37 3285.19C1054.59 3283.5 1054.75 3281.69 1054.97 3279.83C1055.19 3277.92 1055.41 3275.95 1055.63 3273.88C1057.32 3258.25 1059.11 3242.61 1060.98 3226.98C1061.04 3226.33 1061.15 3225.62 1061.2 3224.91C1063.11 3208.95 1065.08 3192.99 1067.1 3177.03C1067.16 3176.54 1067.21 3176.1 1067.27 3175.66C1069.02 3161.94 1070.77 3148.17 1072.57 3134.45C1074.37 3120.74 1076.23 3107.02 1078.09 3093.3C1078.36 3091.06 1078.64 3088.87 1078.97 3086.69C1080.55 3075.15 1082.08 3063.62 1083.67 3052.14C1093.12 2983.55 1102.85 2914.96 1111.71 2846.32C1111.76 2845.88 1111.87 2845.22 1111.98 2844.29C1112.09 2843.8 1112.14 2843.2 1112.25 2842.54C1112.99 2838.44 1113.97 2834.39 1115.2 2830.41C1115.53 2829.32 1115.91 2828.22 1116.35 2827.08C1116.79 2825.66 1117.34 2824.23 1117.94 2822.76C1118.37 2821.78 1118.76 2820.79 1119.19 2819.81C1119.8 2818.44 1120.4 2817.18 1121 2815.87C1121.11 2815.71 1121.16 2815.49 1121.27 2815.33C1127.23 2803.5 1135.72 2793.12 1146.14 2784.94C1146.15 2784.94 1146.15 2784.94 1146.16 2784.93C1146.17 2784.93 1146.17 2784.93 1146.18 2784.92C1146.18 2784.92 1146.19 2784.91 1146.19 2784.9C1146.19 2784.9 1146.2 2784.89 1146.2 2784.88C1147.29 2784.12 1148.27 2783.46 1149.04 2783.03H1149.09C1150.4 2782.32 1151.28 2782.04 1151.61 2782.32C1152.64 2783.19 1148.6 2790.24 1145.98 2794.12Z" fill="#282724"/>
</svg>
