<svg width="1545" height="3929" viewBox="0 0 1545 3929" fill="none" xmlns="http://www.w3.org/2000/svg">
<path d="M588.194 2753.34C588.162 2756.04 587.547 2758.71 586.39 2761.16C584.827 2765.7 582.716 2770.04 580.106 2774.07C576.769 2779.84 572.869 2785.26 568.464 2790.26C562.619 2796.6 549.032 2811.34 538.049 2808.03C532.561 2806.37 529.536 2799.41 523.485 2785.49C519.436 2776.18 516.073 2768.23 516.082 2757.64C516.24 2751.52 517.127 2745.45 518.727 2739.54C519.009 2737.16 519.783 2734.85 521.001 2732.78C525.553 2728.05 535.786 2733.78 556.846 2740.18C576.202 2746.05 587.02 2747.12 588.194 2753.34Z" fill="black"/>
<path d="M588.191 2753.36C588.129 2752.92 587.98 2752.49 587.754 2752.1C587.738 2751.93 587.66 2751.78 587.535 2751.66C587.392 2751.37 587.208 2751.09 586.989 2750.84C586.839 2750.67 586.674 2750.5 586.497 2750.35C586.124 2749.93 585.68 2749.58 585.185 2749.31C584.731 2748.99 584.257 2748.7 583.764 2748.44C581.673 2747.43 579.497 2746.6 577.26 2745.98C576.507 2745.7 575.741 2745.47 574.964 2745.27C574.308 2745.05 573.598 2744.89 572.887 2744.67C568.46 2743.47 563.105 2742.05 556.872 2740.19C554.413 2739.42 552.062 2738.71 549.876 2738V2737.95C548.509 2737.51 547.143 2737.07 545.886 2736.63C542.06 2735.32 538.726 2734.17 535.829 2733.25C533.806 2732.64 532.057 2732.1 530.472 2731.77C529.789 2731.58 529.096 2731.44 528.395 2731.33C528.286 2731.33 528.177 2731.28 528.067 2731.28C527.527 2731.17 526.978 2731.12 526.428 2731.11H526.373C525.681 2731.05 524.983 2731.07 524.296 2731.17C523.979 2731.21 523.668 2731.28 523.367 2731.39C523.094 2731.5 522.766 2731.61 522.547 2731.72C522.274 2731.83 522.017 2731.98 521.782 2732.15C521.55 2732.32 521.331 2732.5 521.126 2732.7V2732.75C521.071 2732.75 521.071 2732.75 521.016 2732.81C520.841 2732.99 520.693 2733.19 520.579 2733.41C520.401 2733.68 520.255 2733.98 520.142 2734.28C519.978 2734.78 519.814 2735.27 519.65 2735.92C519.596 2736.2 519.486 2736.42 519.431 2736.69C519.378 2736.99 519.305 2737.28 519.213 2737.56C519.16 2737.88 519.087 2738.19 518.994 2738.49C518.94 2738.82 518.83 2739.15 518.775 2739.53C518.502 2740.79 518.174 2742.05 517.846 2743.47C517.628 2744.45 517.409 2745.43 517.245 2746.47C517.023 2747.46 516.859 2748.47 516.753 2749.48C516.52 2750.72 516.374 2751.98 516.316 2753.25C516.206 2754.25 516.152 2755.25 516.154 2756.26C516.108 2756.42 516.09 2756.58 516.099 2756.75V2757.62C516.099 2758.93 516.154 2760.25 516.263 2761.5C516.324 2762.68 516.47 2763.85 516.7 2765C517.371 2769.25 518.526 2773.42 520.144 2777.41L520.636 2778.72C521.073 2779.81 521.565 2780.91 522.002 2782.05C522.494 2783.2 522.986 2784.35 523.532 2785.5C524.626 2788.12 525.664 2790.47 526.593 2792.6C527.249 2794.02 527.85 2795.33 528.452 2796.59C528.889 2797.52 529.326 2798.34 529.763 2799.16C530.486 2800.58 531.307 2801.95 532.223 2803.26C532.66 2803.86 533.043 2804.41 533.48 2804.9C533.816 2805.29 534.182 2805.66 534.573 2805.99C534.892 2806.3 535.24 2806.57 535.612 2806.81C536.362 2807.34 537.192 2807.75 538.071 2808.01C539.152 2808.34 540.276 2808.51 541.406 2808.51C542.046 2808.51 542.686 2808.45 543.317 2808.34C543.796 2808.28 544.271 2808.19 544.738 2808.07C545.092 2808.01 545.44 2807.92 545.776 2807.8C546.284 2807.68 546.778 2807.52 547.252 2807.3C547.908 2807.03 548.564 2806.76 549.22 2806.43C554.533 2803.58 559.351 2799.89 563.487 2795.5C565.017 2793.97 566.329 2792.6 567.422 2791.4L567.86 2790.96C568.064 2790.71 568.283 2790.47 568.515 2790.25C569.718 2788.94 570.811 2787.63 571.85 2786.31C572.615 2785.33 573.38 2784.35 574.09 2783.31C574.801 2782.32 575.511 2781.34 576.167 2780.3C577.096 2778.94 577.97 2777.57 578.791 2776.2C579.283 2775.49 579.72 2774.78 580.157 2774.07C580.321 2773.85 580.431 2773.58 580.594 2773.36C581.333 2772.21 582.008 2771.03 582.617 2769.81C582.89 2769.32 583.163 2768.83 583.436 2768.28C583.983 2767.19 584.475 2766.09 584.967 2764.94C585.459 2763.74 585.951 2762.49 586.388 2761.17C587.568 2758.74 588.185 2756.07 588.191 2753.36ZM560.698 2780.47L559.55 2781.78C552.172 2790.25 549.548 2795.55 547.471 2794.79C544.683 2793.86 548.564 2784.51 546.487 2772.05C546.306 2770.71 546.051 2769.38 545.722 2768.06C543.745 2761.07 540.422 2754.54 535.94 2748.82C533.808 2745.76 532.496 2743.74 533.425 2742.59C534.355 2741.5 536.65 2742.1 542.444 2744.23C544.849 2745.21 547.964 2746.42 551.791 2747.89C563.87 2752.54 570.648 2754.78 574.419 2756.47C577.535 2757.89 578.573 2758.88 578.846 2760.46C579.174 2762.21 578.409 2763.52 576.66 2765.22C571.056 2769.99 565.726 2775.09 560.698 2780.47Z" fill="black"/>
</svg>
