<svg width="1545" height="3929" viewBox="0 0 1545 3929" fill="none" xmlns="http://www.w3.org/2000/svg">
<path d="M588.194 2705.34C588.162 2708.04 587.547 2710.71 586.39 2713.16C584.827 2717.7 582.716 2722.04 580.106 2726.07C576.769 2731.84 572.869 2737.26 568.464 2742.26C562.619 2748.6 549.032 2763.34 538.049 2760.03C532.561 2758.37 529.536 2751.41 523.485 2737.49C519.436 2728.18 516.073 2720.23 516.082 2709.64C516.24 2703.52 517.127 2697.45 518.727 2691.54C519.009 2689.16 519.783 2686.85 521.001 2684.78C525.553 2680.05 535.786 2685.78 556.846 2692.18C576.202 2698.05 587.02 2699.12 588.194 2705.34Z" fill="#FFEECC" stroke="#282724" stroke-width="0.1687" stroke-miterlimit="10"/>
<path opacity="0.06" d="M588.192 2705.36C588.129 2704.91 587.981 2704.49 587.755 2704.1C587.739 2703.93 587.661 2703.78 587.536 2703.66C587.393 2703.37 587.209 2703.09 586.99 2702.84C586.84 2702.67 586.675 2702.5 586.498 2702.35C586.125 2701.93 585.681 2701.58 585.186 2701.31C584.732 2700.99 584.258 2700.7 583.765 2700.44C581.674 2699.43 579.498 2698.6 577.26 2697.98C576.508 2697.7 575.742 2697.47 574.965 2697.27C574.309 2697.05 573.599 2696.89 572.888 2696.67C568.461 2695.47 563.106 2694.04 556.873 2692.19C554.414 2691.42 552.063 2690.71 549.877 2690V2689.95C548.51 2689.51 547.144 2689.07 545.887 2688.63C542.061 2687.32 538.727 2686.17 535.829 2685.25C533.807 2684.64 532.058 2684.1 530.473 2683.77C529.79 2683.58 529.097 2683.44 528.396 2683.33C528.287 2683.33 528.178 2683.28 528.068 2683.28C527.528 2683.17 526.979 2683.12 526.429 2683.11H526.374C525.682 2683.05 524.984 2683.07 524.297 2683.17C523.98 2683.21 523.669 2683.28 523.368 2683.39C523.095 2683.5 522.767 2683.61 522.548 2683.71C522.275 2683.83 522.018 2683.97 521.782 2684.15C521.551 2684.32 521.332 2684.5 521.127 2684.7V2684.75C521.072 2684.75 521.072 2684.75 521.017 2684.81C520.842 2684.99 520.694 2685.19 520.58 2685.41C520.402 2685.68 520.255 2685.98 520.143 2686.28C519.979 2686.78 519.815 2687.27 519.651 2687.92C519.596 2688.2 519.487 2688.42 519.432 2688.69C519.379 2688.98 519.306 2689.28 519.214 2689.56C519.161 2689.88 519.088 2690.19 518.995 2690.49C518.941 2690.82 518.831 2691.15 518.776 2691.53C518.503 2692.79 518.175 2694.04 517.847 2695.47C517.629 2696.45 517.41 2697.43 517.246 2698.47C517.024 2699.46 516.86 2700.47 516.754 2701.48C516.521 2702.72 516.375 2703.98 516.317 2705.25C516.207 2706.25 516.153 2707.25 516.155 2708.25C516.109 2708.41 516.091 2708.58 516.1 2708.75V2709.62C516.1 2710.93 516.155 2712.24 516.264 2713.5C516.325 2714.68 516.471 2715.85 516.701 2717C517.372 2721.25 518.527 2725.42 520.145 2729.41L520.637 2730.72C521.074 2731.81 521.565 2732.9 522.003 2734.05C522.495 2735.2 522.987 2736.35 523.533 2737.5C524.626 2740.12 525.665 2742.47 526.594 2744.6C527.25 2746.02 527.851 2747.33 528.452 2748.59C528.89 2749.52 529.327 2750.34 529.764 2751.16C530.486 2752.58 531.308 2753.95 532.224 2755.26C532.661 2755.86 533.044 2756.41 533.481 2756.9C533.817 2757.29 534.183 2757.65 534.574 2757.99C534.893 2758.3 535.241 2758.57 535.613 2758.81C536.363 2759.34 537.193 2759.75 538.072 2760.01C539.153 2760.34 540.277 2760.51 541.407 2760.51C542.047 2760.51 542.687 2760.45 543.318 2760.34C543.797 2760.28 544.272 2760.19 544.739 2760.07C545.093 2760.01 545.44 2759.92 545.777 2759.79C546.284 2759.68 546.779 2759.52 547.253 2759.3C547.909 2759.03 548.565 2758.76 549.221 2758.43C554.534 2755.58 559.352 2751.88 563.487 2747.5C565.018 2745.97 566.33 2744.6 567.423 2743.4L567.861 2742.96C568.065 2742.71 568.284 2742.47 568.516 2742.25C569.719 2740.94 570.812 2739.63 571.851 2738.31C572.616 2737.33 573.381 2736.35 574.091 2735.31C574.802 2734.32 575.512 2733.34 576.168 2732.3C577.097 2730.94 577.971 2729.57 578.792 2728.2C579.284 2727.49 579.721 2726.78 580.158 2726.07C580.322 2725.85 580.432 2725.58 580.595 2725.36C581.334 2724.21 582.009 2723.03 582.618 2721.81C582.891 2721.32 583.164 2720.82 583.437 2720.28C583.984 2719.18 584.476 2718.09 584.968 2716.94C585.46 2715.74 585.952 2714.48 586.389 2713.17C587.569 2710.74 588.186 2708.07 588.192 2705.36ZM560.699 2732.47L559.551 2733.78C552.173 2742.25 549.549 2747.55 547.472 2746.79C544.684 2745.86 548.565 2736.51 546.488 2724.05C546.307 2722.71 546.052 2721.37 545.723 2720.06C543.746 2713.07 540.423 2706.54 535.941 2700.82C533.809 2697.76 532.497 2695.74 533.426 2694.59C534.356 2693.5 536.651 2694.1 542.445 2696.23C544.85 2697.21 547.965 2698.42 551.792 2699.89C563.871 2704.54 570.649 2706.78 574.42 2708.47C577.535 2709.89 578.574 2710.88 578.847 2712.46C579.175 2714.21 578.41 2715.52 576.661 2717.22C571.057 2721.99 565.728 2727.09 560.7 2732.47H560.699Z" fill="#282724"/>
</svg>
