<svg width="1545" height="3929" viewBox="0 0 1545 3929" fill="none" xmlns="http://www.w3.org/2000/svg">
<path d="M1077.51 2673.83C1076.7 2676.41 1076.46 2679.14 1076.8 2681.83C1076.88 2686.63 1077.54 2691.41 1078.78 2696.05C1080.16 2702.57 1082.19 2708.93 1084.83 2715.05C1088.43 2722.89 1096.78 2741.11 1108.25 2741.36C1113.98 2741.48 1119.01 2735.8 1129.08 2724.44C1135.81 2716.84 1141.47 2710.32 1144.74 2700.25C1146.49 2694.39 1147.53 2688.34 1147.83 2682.23C1148.31 2679.87 1148.28 2677.44 1147.77 2675.09C1144.9 2669.18 1133.4 2671.46 1111.39 2671.02C1091.17 2670.61 1080.55 2668.28 1077.51 2673.83Z" fill="#FFEECC" stroke="#282724" stroke-width="0.1687" stroke-miterlimit="10"/>
<path opacity="0.05" d="M1148.05 2676.06C1148.03 2675.72 1147.94 2675.39 1147.78 2675.08C1147.56 2674.65 1147.28 2674.24 1146.96 2673.88C1146.65 2673.51 1146.28 2673.2 1145.87 2672.95C1145.54 2672.72 1145.19 2672.52 1144.83 2672.35C1144.77 2672.35 1144.77 2672.29 1144.72 2672.29H1144.67C1144.39 2672.18 1144.17 2672.13 1143.9 2672.02C1143.85 2671.97 1143.74 2671.97 1143.63 2671.91C1141.86 2671.43 1140.05 2671.15 1138.22 2671.09C1136.08 2670.93 1133.62 2670.93 1130.84 2670.98H1130.78C1126.52 2670.98 1121.55 2671.15 1115.7 2671.09H1115.64C1114.28 2671.09 1112.85 2671.09 1111.38 2671.04C1110.72 2671.04 1110.07 2670.98 1109.47 2670.98C1108.48 2670.93 1107.55 2670.93 1106.62 2670.87C1105.75 2670.87 1104.82 2670.82 1103.95 2670.76C1100.94 2670.65 1098.21 2670.54 1095.75 2670.44C1095.15 2670.44 1094.6 2670.38 1094.05 2670.38C1092.9 2670.33 1091.87 2670.33 1090.88 2670.27H1090.01C1088.7 2670.22 1087.44 2670.22 1086.35 2670.27C1085.32 2670.27 1084.29 2670.36 1083.28 2670.54C1082.58 2670.64 1081.88 2670.8 1081.21 2671.04C1080.69 2671.19 1080.19 2671.41 1079.73 2671.69C1079.57 2671.73 1079.42 2671.81 1079.29 2671.91C1079.19 2672.03 1079.06 2672.13 1078.91 2672.18C1078.67 2672.37 1078.45 2672.59 1078.26 2672.84C1077.98 2673.13 1077.74 2673.47 1077.55 2673.82C1077.39 2674.1 1077.26 2674.39 1077.16 2674.7C1076.81 2676.53 1076.69 2678.41 1076.78 2680.27C1076.83 2680.78 1076.84 2681.29 1076.83 2681.8C1076.83 2682.35 1076.83 2682.9 1076.89 2683.44C1076.88 2683.95 1076.9 2684.46 1076.94 2684.97V2685.03C1077.05 2686.61 1077.22 2688.09 1077.44 2689.51C1077.82 2691.81 1078.31 2693.99 1078.8 2696.07C1079.02 2696.89 1079.19 2697.65 1079.4 2698.47C1079.68 2699.68 1080 2700.88 1080.28 2702.03C1080.39 2702.41 1080.5 2702.79 1080.61 2703.17C1080.83 2703.99 1081.04 2704.76 1081.32 2705.52C1081.54 2706.29 1081.75 2707.11 1082.03 2707.87C1082.19 2708.31 1082.36 2708.75 1082.52 2709.19C1083.19 2711.18 1083.98 2713.13 1084.87 2715.03C1085.31 2716.02 1085.8 2717.16 1086.4 2718.42C1086.73 2719.02 1087 2719.68 1087.33 2720.34C1088.04 2721.7 1088.75 2723.12 1089.57 2724.54C1090.12 2725.53 1090.72 2726.57 1091.32 2727.55C1091.92 2728.53 1092.52 2729.46 1093.18 2730.39C1093.88 2731.49 1094.67 2732.53 1095.53 2733.51C1096.03 2734.21 1096.6 2734.87 1097.22 2735.47C1097.72 2736.03 1098.25 2736.56 1098.81 2737.06C1099.28 2737.49 1099.77 2737.89 1100.28 2738.26C1100.83 2738.68 1101.39 2739.06 1101.98 2739.41C1102.09 2739.46 1102.25 2739.57 1102.36 2739.63C1102.8 2739.9 1103.25 2740.13 1103.73 2740.34C1103.95 2740.39 1104.11 2740.5 1104.33 2740.56C1104.38 2740.56 1104.38 2740.56 1104.44 2740.61C1104.99 2740.83 1105.55 2740.99 1106.13 2741.1C1106.83 2741.28 1107.54 2741.37 1108.26 2741.38C1114 2741.49 1119.03 2735.8 1129.09 2724.43C1130.78 2722.52 1132.42 2720.66 1133.9 2718.86C1134.61 2718.09 1135.26 2717.27 1135.87 2716.51C1135.97 2716.4 1136.07 2716.27 1136.14 2716.13C1136.85 2715.2 1137.56 2714.21 1138.22 2713.28C1141.03 2709.3 1143.22 2704.92 1144.72 2700.28L1144.77 2700.22C1144.94 2699.68 1145.16 2699.07 1145.27 2698.53C1145.38 2698.15 1145.49 2697.82 1145.59 2697.43C1146.35 2694.45 1146.9 2691.42 1147.23 2688.36C1147.29 2687.98 1147.34 2687.6 1147.4 2687.27C1147.51 2686.18 1147.62 2685.14 1147.67 2684.15C1147.72 2683.5 1147.78 2682.84 1147.83 2682.24C1147.89 2681.86 1147.89 2681.48 1147.94 2681.09C1148 2680.33 1148.05 2679.62 1148.05 2679.02C1148.16 2678.04 1148.17 2677.05 1148.05 2676.06ZM1126.9 2712.3C1122.37 2719.02 1117.61 2723.83 1115.37 2723.07C1112.8 2722.14 1115.7 2714.76 1113.62 2704.7H1113.57V2704.65C1113.07 2701.94 1112.21 2699.31 1111 2696.83C1105.37 2684.7 1096.02 2681.75 1097.55 2677.81C1098.65 2675.03 1104.17 2674.48 1111.55 2674.97C1117.12 2675.3 1123.79 2676.17 1130.4 2677.05C1130.85 2677.09 1131.28 2677.16 1131.71 2677.27H1131.77C1134.67 2677.7 1135.7 2678.03 1136.63 2679.02C1137 2679.39 1137.3 2679.84 1137.51 2680.33V2680.38C1139.15 2683.66 1138.22 2689.18 1135.92 2695.19C1133.56 2701.21 1130.54 2706.95 1126.9 2712.3H1126.9Z" fill="#282724"/>
</svg>
