<svg width="1545" height="3929" viewBox="0 0 1545 3929" fill="none" xmlns="http://www.w3.org/2000/svg">
<path d="M430.819 1302.73C435.105 1310.65 445.276 1307.55 473.104 1315.3C488.212 1319.5 491.336 1322.15 502.703 1323.06C512.217 1323.78 516.665 1320.83 522.347 1324.1C522.699 1324.31 523.032 1324.55 523.342 1324.81C526.067 1326.77 528.176 1329.46 529.424 1332.57C529.469 1332.64 529.469 1332.64 529.523 1332.65C531.292 1336.52 532.402 1340.01 535.832 1340.72C541.297 1341.86 548.568 1335.03 551.099 1327.74C555.103 1316.37 547.499 1304.21 546.194 1301.96C524.566 1264.31 570.047 1040.75 584.949 965.42C600.925 884.667 608.81 837.387 615.413 807.386C615.406 807.257 615.426 807.129 615.473 807.008C620.633 783.366 624.983 770.495 631.684 760.263C632.679 758.77 633.755 757.332 634.907 755.956C635.804 754.825 636.906 753.449 638.187 751.991L639.789 750.251C640.715 749.29 642.166 747.804 643.972 745.819C645.778 743.835 647.931 741.408 650.206 738.557C650.962 737.625 651.725 736.638 652.552 735.606C653.821 733.87 655.161 732.033 656.456 730.135C658.629 726.919 660.598 723.57 662.351 720.108C662.668 719.584 662.94 719.035 663.163 718.465C663.728 717.337 664.063 716.615 664.063 716.615C667.868 708.93 669.772 700.446 669.618 691.873C669.604 690.142 669.45 688.416 669.158 686.71C668.437 682.502 666.154 668.532 656.215 663.483C645.255 657.885 632.189 666.727 624.996 659.343C624.507 658.828 624.076 658.259 623.713 657.648C623.519 657.368 623.362 657.065 623.247 656.745C623.098 656.444 622.981 656.13 622.897 655.805C622.038 653.182 622.32 650.68 619.839 648.518C613.11 642.756 595.944 648.464 586.29 657.068C582.109 660.797 578.872 665.464 576.843 670.686L576.826 670.794C571.964 682.699 572.036 697.704 571.831 713.772C571.831 713.772 571.033 766.65 563.37 838.531C560.449 865.553 555.188 892.271 547.646 918.384C525.472 1008.29 508.615 1087.96 493.193 1146.56L493.176 1146.67C483.941 1181.78 475.186 1209.29 466.215 1226.91L466.197 1227.02C465.871 1227.68 465.491 1228.34 465.173 1228.96C465.09 1229.07 465.016 1229.19 464.951 1229.31C464.554 1230.08 464.165 1230.79 463.714 1231.55C462.936 1232.98 462.121 1234.29 461.323 1235.49C461.26 1235.53 461.252 1235.59 461.181 1235.69C460.383 1236.89 459.54 1238.03 458.758 1239.12C457.862 1240.26 456.972 1241.33 456.046 1242.29C455.45 1242.92 454.854 1243.54 454.32 1244.12C449.938 1248.81 446.038 1253.92 442.677 1259.39C442.447 1259.79 442.217 1260.2 441.987 1260.61C441.757 1261.01 441.527 1261.42 441.28 1261.93C440.812 1262.8 440.318 1263.83 439.798 1265.02C436.919 1271.31 434.459 1277.78 432.434 1284.39C428.758 1295.43 429.155 1299.59 430.819 1302.73Z" fill="black"/>
<path d="M434.861 1287.59C434.875 1294.18 434.914 1297.45 436.612 1300.37C442.961 1311 458.001 1302.63 476.65 1313.87C482.298 1317.72 488.621 1320.48 495.289 1322C497.734 1322.52 500.211 1322.87 502.703 1323.06C510.958 1323.69 516.625 1320.38 522.347 1324.1C522.699 1324.31 523.032 1324.55 523.342 1324.81C525.712 1327.11 527.758 1329.72 529.424 1332.57C529.469 1332.64 529.469 1332.64 529.523 1332.65C530.37 1333.75 531.579 1334.53 532.939 1334.84C537.478 1335.89 542.73 1332.4 545.456 1328.79C552.383 1319.59 547.036 1304.7 546.194 1301.96C524.566 1264.31 570.047 1040.75 584.949 965.42C600.925 884.667 608.81 837.387 615.413 807.386C615.406 807.257 615.426 807.129 615.473 807.008C619.185 786.236 624.46 769.251 631.684 760.263L632.298 759.53C632.564 759.238 633.442 757.883 634.907 755.956C635.804 754.825 636.906 753.449 638.187 751.991L639.789 750.251C640.715 749.29 642.166 747.804 643.972 745.819C645.778 743.835 647.931 741.408 650.206 738.557C650.962 737.625 651.725 736.638 652.552 735.606C653.821 733.87 655.161 732.033 656.456 730.135C658.629 726.919 660.598 723.57 662.351 720.108C662.669 719.492 662.925 718.925 663.163 718.465C663.728 717.337 664.063 716.615 664.063 716.615C667.868 708.93 669.772 700.446 669.618 691.873C669.604 690.142 669.45 688.416 669.158 686.71C668.437 682.502 666.154 668.532 656.215 663.483C645.255 657.885 632.189 666.727 624.996 659.343C624.507 658.828 624.076 658.259 623.713 657.648C623.519 657.368 623.362 657.065 623.247 656.745C623.096 656.445 622.979 656.13 622.897 655.805C619.35 660.043 616.174 664.579 613.405 669.361C602.219 688.684 601.197 706.157 599.31 724.882C597.788 740.004 595.113 761.759 590.053 789.202C598.581 757.148 607.061 726.4 615.758 695.501C618.714 684.995 622.617 671.822 633.181 668.159C642.891 664.793 656.295 670.167 662.071 680.065C667.474 689.325 663.834 700.149 662.02 705.341C654.688 726.264 635.663 730.074 623.728 745.789C607.609 766.988 599.676 796.999 597.287 810.068C585.239 876.058 500.038 1244.74 523.672 1283.7C526.487 1289.41 527.832 1295.72 527.585 1302.08C527.376 1303.53 526.838 1304.91 526.013 1306.12C525.188 1307.32 524.098 1308.33 522.826 1309.05C521.554 1309.77 520.133 1310.2 518.673 1310.29C517.212 1310.38 515.75 1310.14 514.399 1309.57C510.831 1308.38 507.788 1305.98 505.783 1302.8C497.394 1292.13 497.424 1282.78 494.449 1282.7C490.88 1282.52 491.043 1295.55 482.247 1299.76C478.122 1301.71 473.874 1300.93 468.068 1299.85C462.54 1299.11 457.309 1296.91 452.914 1293.48C449.25 1290.69 446.483 1286.89 444.953 1282.54C441.519 1271.33 450.042 1259 454.043 1253.27C458.044 1247.53 461.123 1245.2 463.756 1238.31C465.133 1234.69 465.956 1230.88 466.197 1227.02C465.871 1227.69 465.49 1228.35 465.173 1228.96C465.09 1229.07 465.016 1229.19 464.951 1229.31C464.554 1230.08 464.165 1230.79 463.713 1231.55C462.944 1232.93 462.129 1234.24 461.323 1235.49C461.26 1235.54 461.252 1235.59 461.18 1235.69C460.383 1236.89 459.539 1238.03 458.758 1239.13C457.861 1240.26 456.972 1241.34 456.046 1242.3C455.45 1242.92 454.854 1243.55 454.319 1244.13C449.631 1248.55 445.698 1253.7 442.677 1259.39C442.446 1259.8 442.216 1260.2 441.986 1260.61C441.757 1261.02 441.527 1261.42 441.28 1261.94C440.811 1262.8 440.318 1263.83 439.798 1265.02C436.564 1272.11 434.881 1279.8 434.861 1287.59Z" fill="black"/>
<path d="M638.187 751.992L639.789 750.252C640.715 749.291 642.166 747.805 643.972 745.82C645.778 743.836 647.931 741.409 650.206 738.558C650.961 737.626 651.725 736.639 652.552 735.607C653.821 733.871 655.161 732.034 656.456 730.136C659.377 725.857 661.922 721.333 664.062 716.616C667.815 708.913 669.717 700.441 669.617 691.874C668.241 702.685 664.243 712.996 657.972 721.909C653.793 727.324 649.303 732.492 644.525 737.387C639.808 742.399 635.747 746.407 632.807 749.264C624.262 761.413 617.606 774.784 613.063 788.924C610.308 797.325 608.285 805.947 607.015 814.696C605.44 825.402 600.409 864.391 592.789 925.103C603.733 868.234 609.992 831.985 615.413 807.386C615.406 807.257 615.426 807.129 615.473 807.008C619.185 786.236 624.46 769.251 631.684 760.263L632.298 759.53C632.707 759.041 634.745 755.932 638.187 751.992Z" fill="black"/>
<path d="M434.844 1287.7C434.867 1294.23 434.914 1297.45 436.612 1300.37C442.961 1311 458.001 1302.63 476.65 1313.87C482.298 1317.72 488.62 1320.48 495.289 1322C497.734 1322.52 500.21 1322.87 502.703 1323.06C510.958 1323.69 516.625 1320.38 522.347 1324.1C522.699 1324.31 523.032 1324.55 523.342 1324.81C525.712 1327.11 527.758 1329.72 529.423 1332.57C529.469 1332.64 529.469 1332.64 529.523 1332.64C530.37 1333.75 531.579 1334.53 532.939 1334.84C537.478 1335.89 542.73 1332.4 545.456 1328.79C552.382 1319.59 547.036 1304.7 546.194 1301.96C546.283 1303.86 546.779 1318.98 539.179 1322.27C536.976 1323.25 534.943 1322.82 525.339 1319.15C501.796 1310.19 499.297 1307.08 497.92 1304.93C493.891 1298.54 494.708 1291.59 493.1 1291.61C490.719 1291.63 491.723 1305.28 485.164 1308.29C481.297 1310.01 478.704 1306.44 468.899 1303.35C455.417 1299.02 451.373 1302.92 444.088 1298.23C440.103 1295.63 436.907 1291.99 434.844 1287.7Z" fill="black"/>
<path d="M467.959 1269.95C468.477 1271.58 471.983 1281.65 477.106 1281.79C484.261 1282.03 490.091 1262.92 492.126 1256.33C507.42 1206.62 524.861 1057.15 530.397 1019.52C545.411 917.811 600.063 772.381 584.331 732.78C581.515 725.973 579.366 718.909 577.913 711.687C575.359 698.203 574.991 684.395 576.825 670.794C571.963 682.699 572.035 697.704 571.83 713.772C571.83 713.772 571.032 766.65 563.368 838.531C560.448 865.554 555.187 892.271 547.645 918.384C525.471 1008.29 508.614 1087.96 493.192 1146.56L493.175 1146.67C486.246 1196.31 479.801 1218.98 474.421 1229.25C472.53 1232.83 461.909 1251.79 467.959 1269.95Z" fill="black"/>
</svg>
