<svg width="1545" height="3929" viewBox="0 0 1545 3929" fill="none" xmlns="http://www.w3.org/2000/svg">
<path d="M1414.35 1332.72C1408.88 1339.88 1399.32 1335.23 1370.62 1338.56C1355.04 1340.37 1351.54 1342.5 1340.17 1341.62C1330.66 1340.86 1326.73 1337.25 1320.61 1339.6C1320.23 1339.75 1319.86 1339.93 1319.51 1340.15C1316.52 1341.66 1314.02 1343.99 1312.3 1346.87C1312.24 1346.93 1312.24 1346.93 1312.19 1346.93C1309.84 1350.48 1308.2 1353.76 1304.7 1353.92C1299.13 1354.2 1293 1346.33 1291.64 1338.73C1289.45 1326.87 1298.85 1316.05 1300.49 1314.02C1327.71 1280.19 1317.55 1052.28 1314.54 975.549C1311.32 893.294 1310.88 845.362 1309.02 814.701C1309.05 814.575 1309.05 814.444 1309.02 814.318C1307.6 790.161 1305.3 776.771 1300.27 765.621C1299.52 763.992 1298.68 762.404 1297.76 760.866C1297.05 759.609 1296.17 758.079 1295.14 756.439L1293.82 754.472C1293.06 753.379 1291.86 751.684 1290.38 749.444C1288.9 747.203 1287.16 744.47 1285.35 741.3C1284.75 740.262 1284.15 739.169 1283.49 738.021C1282.51 736.108 1281.47 734.086 1280.49 732.009C1278.84 728.494 1277.42 724.88 1276.22 721.187C1275.99 720.621 1275.81 720.036 1275.68 719.438C1275.3 718.236 1275.08 717.471 1275.08 717.471C1272.51 709.288 1271.95 700.61 1273.44 692.166C1273.72 690.459 1274.14 688.777 1274.69 687.137C1276.06 683.093 1280.49 669.648 1291.09 666.205C1302.79 662.379 1314.32 673.146 1322.58 666.97C1323.14 666.537 1323.65 666.042 1324.11 665.494C1324.34 665.248 1324.54 664.973 1324.71 664.675C1324.9 664.401 1325.07 664.108 1325.2 663.8C1326.46 661.341 1326.57 658.826 1329.35 657.077C1336.9 652.432 1352.97 660.74 1361.16 670.741C1364.71 675.075 1367.19 680.188 1368.38 685.662V685.771C1371.33 698.287 1368.93 713.098 1366.63 729.003C1366.63 729.003 1359.2 781.361 1355.59 853.56C1354.27 880.708 1355.31 907.919 1358.7 934.886C1366.63 1027.14 1370.89 1108.47 1377.01 1168.75V1168.86C1380.68 1204.99 1385.05 1233.52 1391.17 1252.32V1252.43C1391.39 1253.14 1391.66 1253.85 1391.88 1254.51C1391.95 1254.63 1392 1254.76 1392.05 1254.89C1392.32 1255.71 1392.59 1256.47 1392.92 1257.29C1393.47 1258.82 1394.07 1260.24 1394.67 1261.56C1394.72 1261.61 1394.72 1261.66 1394.78 1261.77C1395.38 1263.09 1396.04 1264.34 1396.64 1265.55C1397.35 1266.8 1398.06 1268.01 1398.82 1269.1C1399.32 1269.81 1399.81 1270.52 1400.24 1271.18C1403.84 1276.49 1406.9 1282.14 1409.37 1288.06C1409.54 1288.5 1409.7 1288.94 1409.86 1289.37C1410.03 1289.81 1410.19 1290.25 1410.36 1290.8C1410.68 1291.72 1411.01 1292.82 1411.34 1294.08C1413.21 1300.73 1414.63 1307.51 1415.6 1314.35C1417.52 1325.83 1416.48 1329.87 1414.35 1332.72Z" fill="#FFEECC" stroke="#282724" stroke-width="0.1687" stroke-miterlimit="10"/>
<path opacity="0.1" d="M1412.71 1317.14C1411.67 1323.64 1411.12 1326.87 1408.99 1329.49C1401.06 1339 1387.51 1328.4 1367.34 1336.6C1361.16 1339.53 1354.49 1341.27 1347.66 1341.73C1345.17 1341.86 1342.67 1341.83 1340.18 1341.63C1331.92 1340.97 1326.84 1336.82 1320.61 1339.6C1320.23 1339.75 1319.86 1339.93 1319.51 1340.15C1316.82 1342.05 1314.39 1344.31 1312.3 1346.87C1312.25 1346.93 1312.25 1346.93 1312.19 1346.93C1311.18 1347.89 1309.87 1348.47 1308.47 1348.57C1303.83 1348.89 1299.18 1344.63 1297.05 1340.64C1291.64 1330.48 1299.24 1316.59 1300.49 1314.02C1327.71 1280.19 1317.55 1052.28 1314.54 975.55C1311.32 893.295 1310.88 845.363 1309.02 814.702C1309.05 814.576 1309.05 814.445 1309.02 814.319C1308.58 793.223 1306.01 775.624 1300.28 765.622L1299.78 764.802C1299.56 764.474 1298.91 762.998 1297.76 760.867C1297.05 759.61 1296.18 758.08 1295.14 756.44L1293.82 754.472C1293.06 753.379 1291.86 751.685 1290.38 749.444C1288.91 747.204 1287.16 744.471 1285.35 741.301C1284.75 740.262 1284.15 739.169 1283.49 738.021C1282.51 736.109 1281.47 734.087 1280.49 732.009C1278.84 728.495 1277.42 724.881 1276.23 721.188C1276.01 720.532 1275.84 719.931 1275.68 719.439C1275.3 718.236 1275.08 717.471 1275.08 717.471C1272.51 709.289 1271.95 700.611 1273.44 692.167C1273.72 690.459 1274.14 688.778 1274.69 687.138C1276.06 683.094 1280.49 669.648 1291.09 666.206C1302.79 662.38 1314.32 673.147 1322.58 666.971C1323.14 666.537 1323.65 666.042 1324.11 665.495C1324.34 665.249 1324.54 664.974 1324.71 664.675C1324.9 664.403 1325.07 664.11 1325.2 663.801C1328.04 668.539 1330.48 673.513 1332.47 678.667C1340.51 699.493 1338.81 716.914 1337.76 735.704C1336.91 750.879 1336.17 772.785 1336.9 800.68C1333.46 767.691 1329.87 735.997 1326.08 704.122C1324.79 693.284 1322.99 679.664 1313.12 674.404C1304.05 669.568 1289.97 672.793 1282.73 681.672C1275.95 689.98 1277.87 701.239 1278.85 706.65C1282.84 728.457 1301.04 735.179 1310.39 752.559C1323.01 776.006 1326.18 806.886 1326.51 820.167C1328.15 887.228 1354.99 1264.67 1325.58 1299.49C1321.92 1304.68 1319.6 1310.71 1318.86 1317.03C1318.84 1318.49 1319.16 1319.94 1319.79 1321.26C1320.41 1322.59 1321.33 1323.75 1322.48 1324.66C1323.62 1325.57 1324.96 1326.21 1326.39 1326.53C1327.82 1326.84 1329.3 1326.83 1330.72 1326.49C1334.43 1325.86 1337.81 1323.96 1340.29 1321.13C1350.23 1311.89 1351.65 1302.66 1354.61 1303.04C1358.16 1303.42 1355.97 1316.27 1364.01 1321.79C1367.78 1324.35 1372.1 1324.24 1378 1324.08C1383.58 1324.21 1389.08 1322.85 1393.96 1320.15C1398.01 1317.96 1401.34 1314.63 1403.52 1310.58C1408.66 1300.03 1402.16 1286.53 1399.1 1280.25C1396.04 1273.96 1393.36 1271.18 1391.83 1263.96C1391.03 1260.17 1390.81 1256.28 1391.17 1252.43C1391.39 1253.14 1391.66 1253.85 1391.88 1254.51C1391.95 1254.63 1392 1254.76 1392.05 1254.89C1392.32 1255.71 1392.59 1256.47 1392.92 1257.29C1393.47 1258.77 1394.07 1260.19 1394.67 1261.56C1394.73 1261.61 1394.73 1261.67 1394.78 1261.77C1395.38 1263.09 1396.04 1264.34 1396.64 1265.55C1397.35 1266.8 1398.06 1268.01 1398.82 1269.1C1399.32 1269.81 1399.81 1270.52 1400.25 1271.18C1404.19 1276.27 1407.27 1281.97 1409.37 1288.06C1409.54 1288.5 1409.7 1288.94 1409.87 1289.38C1410.03 1289.81 1410.19 1290.25 1410.36 1290.8C1410.69 1291.72 1411.01 1292.82 1411.34 1294.08C1413.43 1301.58 1413.9 1309.44 1412.71 1317.14Z" fill="#282724"/>
<path opacity="0.1" d="M1295.14 756.437L1293.83 754.47C1293.06 753.377 1291.86 751.682 1290.38 749.442C1288.91 747.201 1287.16 744.468 1285.35 741.298C1284.75 740.26 1284.15 739.167 1283.5 738.019C1282.51 736.106 1281.47 734.084 1280.49 732.007C1278.27 727.326 1276.46 722.462 1275.08 717.469C1272.57 709.277 1272.01 700.612 1273.44 692.164C1273.12 703.058 1275.46 713.865 1280.27 723.646C1283.56 729.644 1287.19 735.448 1291.15 741.026C1295.03 746.71 1298.42 751.301 1300.88 754.581C1307.43 767.91 1311.92 782.154 1314.21 796.828C1315.63 805.554 1316.29 814.386 1316.18 823.225C1316.07 834.047 1314.98 873.343 1313.07 934.502C1311.1 876.623 1310.55 839.84 1309.02 814.699C1309.05 814.573 1309.05 814.443 1309.02 814.317C1308.58 793.22 1306.01 775.621 1300.28 765.62L1299.78 764.8C1299.46 764.253 1297.93 760.864 1295.14 756.437Z" fill="#282724"/>
<path opacity="0.1" d="M1412.71 1317.25C1411.67 1323.7 1411.12 1326.87 1408.99 1329.49C1401.06 1339 1387.51 1328.4 1367.34 1336.59C1361.16 1339.53 1354.49 1341.27 1347.66 1341.73C1345.17 1341.86 1342.67 1341.83 1340.18 1341.62C1331.92 1340.97 1326.84 1336.81 1320.61 1339.6C1320.23 1339.75 1319.86 1339.93 1319.51 1340.15C1316.82 1342.05 1314.39 1344.31 1312.3 1346.87C1312.25 1346.92 1312.25 1346.92 1312.19 1346.92C1311.18 1347.89 1309.87 1348.47 1308.47 1348.56C1303.83 1348.89 1299.18 1344.63 1297.05 1340.64C1291.64 1330.47 1299.24 1316.59 1300.49 1314.02C1300.11 1315.88 1297.27 1330.75 1304.27 1335.17C1306.29 1336.48 1308.36 1336.37 1318.42 1334.24C1343.07 1329.05 1346.02 1326.37 1347.72 1324.46C1352.69 1318.78 1352.96 1311.78 1354.55 1312.05C1356.9 1312.44 1353.78 1325.77 1359.8 1329.76C1363.35 1332.06 1366.47 1328.94 1376.63 1327.41C1390.62 1325.23 1394.01 1329.71 1401.94 1326.21C1406.28 1324.26 1410 1321.16 1412.71 1317.25Z" fill="#282724"/>
<path opacity="0.05" d="M1382.75 1294.57C1381.99 1296.1 1376.96 1305.5 1371.88 1304.84C1364.77 1303.97 1361.98 1284.18 1361 1277.35C1353.62 1225.87 1359.63 1075.51 1360.02 1037.47C1361 934.667 1329.63 782.509 1351.33 745.836C1355.17 739.549 1358.39 732.905 1360.95 725.996C1365.57 713.073 1368.08 699.49 1368.38 685.77C1371.33 698.286 1368.93 713.097 1366.63 729.001C1366.63 729.001 1359.2 781.36 1355.59 853.559C1354.27 880.706 1355.32 907.917 1358.71 934.885C1366.63 1027.14 1370.89 1108.47 1377.02 1168.75V1168.86C1376.14 1218.98 1378.98 1242.37 1382.7 1253.36C1384.01 1257.18 1391.55 1277.57 1382.75 1294.57Z" fill="#282724"/>
</svg>
