<svg width="1545" height="3929" viewBox="0 0 1545 3929" fill="none" xmlns="http://www.w3.org/2000/svg">
<path d="M1177.01 3806.06C1176.44 3802.84 1169.21 3803.96 1155.93 3798.48C1146.15 3794.24 1137.08 3788.54 1129.03 3781.56C1122.1 3775.56 1114.78 3770.03 1107.12 3764.99C1104.15 3762.97 1100.71 3761.74 1097.12 3761.41C1093.31 3761.13 1086.57 3761.79 1085.22 3764.99C1082.74 3770.87 1099.32 3783.08 1103.68 3786.3C1121.64 3799.53 1127.37 3795.46 1142.13 3808.42C1146.79 3812.52 1149.03 3815.37 1154.25 3816.24C1164.54 3817.95 1177.8 3810.49 1177.01 3806.06Z" fill="black"/>
<path d="M1177.02 3806.05C1177.79 3810.47 1164.56 3817.96 1154.23 3816.27C1149.04 3815.39 1146.8 3812.5 1142.15 3808.4C1127.39 3795.44 1121.65 3799.54 1103.67 3786.32C1099.3 3783.09 1082.74 3770.85 1085.2 3765C1086.56 3761.78 1093.29 3761.12 1097.11 3761.39C1099.34 3761.57 1101.52 3762.13 1103.56 3763.03C1102.25 3774.89 1132.8 3793.15 1156.47 3798.67C1169.43 3803.92 1176.42 3802.88 1177.02 3806.05Z" fill="black"/>
<path d="M1185.06 3812C1184.68 3809.31 1179.47 3809.11 1162.72 3803.47C1153.35 3800.49 1144.2 3796.87 1135.33 3792.64C1125.59 3788.43 1116.54 3782.77 1108.49 3775.84C1101.03 3769.09 1099.62 3765.36 1093.06 3762.81C1084.21 3759.37 1073.1 3760.81 1071.98 3764.34C1070.92 3767.72 1082.93 3774.84 1107.01 3788.93C1138.75 3807.51 1139.05 3805.38 1147.34 3812.78C1152.16 3817.08 1154.43 3820.04 1160.01 3821.14C1171.02 3823.32 1185.68 3816.46 1185.06 3812Z" fill="black"/>
<path d="M1185.06 3812C1185.66 3816.49 1171.01 3823.32 1160.03 3821.13C1154.45 3820.04 1152.15 3817.09 1147.34 3812.77C1139.04 3805.39 1138.76 3807.52 1107.01 3788.94C1082.96 3774.84 1070.93 3767.73 1071.97 3764.35C1073.12 3760.79 1084.22 3759.37 1093.07 3762.82C1088.1 3762 1084.76 3761.89 1084.32 3763.09C1083.5 3765.11 1090.66 3769.54 1098.97 3774.62C1140.08 3799.82 1160.84 3812.44 1170.9 3812.28C1175.28 3812.21 1179.63 3811.58 1183.86 3810.42C1184.18 3810.56 1184.46 3810.77 1184.67 3811.05C1184.88 3811.33 1185.01 3811.66 1185.06 3812Z" fill="black"/>
<path d="M1189.28 3828.09C1188.95 3824.95 1181.62 3825.47 1166.42 3818.57C1156.06 3814.42 1146.5 3808.5 1138.16 3801.08C1133.25 3796.19 1127.92 3791.74 1122.22 3787.8C1119.66 3785.8 1116.79 3784.24 1113.72 3783.19C1107.12 3781.64 1100.18 3782.58 1094.23 3785.85C1091.1 3787.33 1089.54 3788.08 1089.35 3789.37C1088.87 3792.71 1097.31 3795.71 1109.13 3801.55C1121.4 3807.62 1142.01 3819.68 1150.03 3827.18C1154.85 3831.69 1157.08 3834.75 1162.84 3836.1C1174.19 3838.76 1189.73 3832.57 1189.28 3828.09Z" fill="black"/>
<path d="M1189.27 3828.07C1189.76 3832.55 1174.18 3838.79 1162.81 3836.11C1157.07 3834.74 1154.83 3831.68 1150.02 3827.2C1141.99 3819.66 1121.38 3807.63 1109.14 3801.57C1097.33 3795.72 1088.86 3792.71 1089.35 3789.38C1089.52 3788.07 1091.1 3787.36 1094.22 3785.83C1099.81 3782.8 1106.27 3781.77 1112.53 3782.93C1110.78 3783.31 1109.74 3783.97 1109.47 3785.01C1108.48 3788.39 1116.84 3791.95 1134.77 3805.45C1158.27 3823.15 1158.88 3828.29 1166.8 3829.44C1173.01 3829.99 1179.22 3828.45 1184.46 3825.07C1187.57 3826.05 1189.1 3826.71 1189.27 3828.07Z" fill="black"/>
<path d="M1186.56 3847.07C1186.08 3842.77 1178.2 3843.07 1162.47 3835.26C1149.84 3829.63 1138.45 3821.57 1128.95 3811.53C1120.25 3801.8 1118 3794.37 1107.01 3788.93C1103.1 3786.79 1098.69 3785.73 1094.23 3785.85C1084.74 3786.34 1074.48 3793.13 1074.69 3799C1074.9 3804.64 1084.76 3804.88 1102.43 3815.09C1115.96 3822.91 1132.07 3832.22 1145.93 3848.05C1151.13 3853.99 1153.58 3858.06 1159.6 3859.6C1171.46 3862.63 1187.24 3853.21 1186.56 3847.07Z" fill="black"/>
<path d="M1186.53 3847.09C1187.24 3853.21 1171.45 3862.61 1159.59 3859.61C1153.57 3858.08 1151.11 3853.98 1145.92 3848.08C1132.04 3832.23 1115.97 3822.94 1102.41 3815.06C1084.76 3804.9 1074.92 3804.63 1074.7 3799C1074.48 3793.15 1084.76 3786.32 1094.22 3785.83C1097.47 3785.7 1100.71 3786.28 1103.73 3787.52C1102.68 3788.3 1101.92 3789.39 1101.54 3790.64C1099.68 3797.47 1113.02 3802.39 1139.53 3828.46C1156.09 3844.74 1157.46 3849.28 1164.12 3849.99C1170.88 3850.12 1177.44 3847.75 1182.54 3843.32C1185.06 3844.41 1186.37 3845.4 1186.53 3847.09Z" fill="black"/>
<path d="M1172.33 3865.08C1171.77 3859.61 1161.66 3860.57 1146.14 3850.98C1132.78 3842.73 1124.64 3832.36 1112.94 3817.49C1097.78 3798.2 1097.75 3792.25 1089.35 3789.38C1073.2 3783.85 1050.22 3797.79 1050.69 3807.67C1050.98 3813.89 1060.33 3813.87 1080.85 3826.88C1095.57 3836.22 1113.08 3847.33 1128.17 3866.22C1133.82 3873.31 1136.49 3878.17 1143.04 3880.01C1155.94 3883.62 1173.08 3872.41 1172.33 3865.08Z" fill="black"/>
<path d="M1172.32 3865.08C1173.09 3872.4 1155.92 3883.6 1143.03 3880C1136.47 3878.19 1133.84 3873.33 1128.16 3866.22C1113.07 3847.31 1095.58 3836.22 1080.88 3826.87C1060.33 3813.86 1050.98 3813.86 1050.71 3807.69C1050.22 3797.8 1073.23 3783.86 1089.35 3789.38C1091.46 3790.04 1093.38 3791.18 1094.98 3792.71C1091.92 3793.04 1088.8 3793.48 1085.69 3794.08C1081.97 3794.79 1074.97 3796.21 1074.7 3799C1074.37 3802.39 1084.43 3804.74 1092.74 3808.84C1120.56 3822.72 1116.41 3850.54 1143.73 3862.78C1149.47 3865.35 1157.02 3868.68 1165.27 3866.28C1167.54 3865.64 1169.67 3864.54 1171.5 3863.05C1171.96 3863.64 1172.25 3864.34 1172.32 3865.08Z" fill="black"/>
</svg>
