<svg width="1545" height="3929" viewBox="0 0 1545 3929" fill="none" xmlns="http://www.w3.org/2000/svg">
<path d="M245.105 3768.88C245.882 3766.98 246.09 3764.91 245.705 3762.89C245.32 3760.88 244.358 3759.03 242.937 3757.56C237.669 3753.8 228.212 3765.57 200.58 3781.47C193.31 3785.55 185.669 3788.93 177.762 3791.57C172.253 3793.71 166.532 3795.26 160.695 3796.19C144.775 3798.36 136.322 3793.25 134.11 3796.91C132.253 3799.99 136.295 3806.76 141.38 3809.91C145.565 3812.5 149.845 3812.25 155.298 3811.86C161.213 3811.41 167.022 3810.04 172.52 3807.82C186.596 3802.29 188.934 3797.49 206.472 3789.18C212.29 3786.42 215.123 3784.86 219.01 3783.25C226.168 3780.34 233.164 3777.05 239.967 3773.39C242.165 3772.55 243.989 3770.95 245.105 3768.88Z" fill="#FFEECC" stroke="#282724" stroke-width="0.1687" stroke-miterlimit="10"/>
<path opacity="0.1" d="M245.103 3768.88C243.997 3770.96 242.169 3772.55 239.965 3773.37C233.177 3777.05 226.188 3780.35 219.031 3783.26C215.095 3784.84 212.308 3786.43 206.46 3789.16C188.914 3797.47 186.619 3802.28 172.517 3807.8C167.025 3810.04 161.215 3811.4 155.3 3811.84C149.834 3812.23 145.571 3812.5 141.362 3809.93C137.837 3807.74 135.204 3804.37 133.929 3800.42C133.874 3800.37 133.874 3800.37 133.874 3800.31V3800.2C133.909 3799.63 133.854 3799.06 133.71 3798.51V3798.45C133.686 3797.92 133.819 3797.38 134.093 3796.92C134.424 3796.46 134.87 3796.09 135.388 3795.85C135.905 3795.61 136.476 3795.51 137.044 3795.56C139.039 3798.82 141.844 3801.51 145.188 3803.37C155.081 3808.4 163.881 3799.71 196.02 3785.77C222.748 3774.19 233.843 3772.77 235.046 3764.89C235.309 3763.04 235.044 3761.14 234.281 3759.43C238.271 3756.97 240.894 3756.15 242.917 3757.57C244.347 3759.04 245.316 3760.89 245.705 3762.9C246.093 3764.91 245.884 3766.99 245.103 3768.88Z" fill="#282724"/>
<path d="M259.78 3770.63C260.174 3765.37 250.798 3758.58 244.999 3760.42C241.783 3761.44 240.604 3764.82 239.158 3767.52C234.667 3775.9 228.668 3775.73 194.146 3791.78C187.134 3795.03 179.934 3797.87 172.585 3800.26C171.508 3800.61 170.498 3800.91 169.452 3801.21C163.307 3803.25 156.971 3804.65 150.541 3805.4C137.709 3806.65 131.386 3803.99 129.97 3806.83C128.496 3809.8 133.589 3816.24 139.312 3819.1C141.568 3820.19 144.008 3820.84 146.505 3821.01C152.438 3821.37 158.353 3820.09 163.61 3817.32C182.82 3808.27 189.613 3804.11 200.396 3799.68C206.695 3797.09 209.765 3795.61 213.97 3794.11C218.923 3792.35 222.443 3791.01 225.625 3789.71C226.346 3789.41 226.97 3789.15 227.61 3788.88C227.61 3788.88 232.213 3786.94 236.656 3784.87C251.893 3777.75 259.512 3774.19 259.78 3770.63Z" fill="#FFEECC" stroke="#282724" stroke-width="0.1687" stroke-miterlimit="10"/>
<path opacity="0.1" d="M259.753 3770.63C259.534 3774.18 251.882 3777.74 236.632 3784.84C232.205 3786.92 227.614 3788.89 227.614 3788.89C226.958 3789.16 226.357 3789.43 225.646 3789.71C222.421 3791.02 218.923 3792.33 213.949 3794.13C209.741 3795.61 206.68 3797.08 200.394 3799.65C189.627 3804.08 182.794 3808.29 163.609 3817.31C158.349 3820.07 152.435 3821.36 146.501 3821.02C144.002 3820.82 141.56 3820.17 139.287 3819.11C133.602 3816.21 128.519 3809.82 129.995 3806.81C130.76 3805.17 133.219 3805.39 137.592 3805.61C139.476 3809.06 142.325 3811.89 145.791 3813.75C155.411 3818.51 163.555 3810.09 195.092 3795.83C229.254 3780.36 241.88 3780.09 245.104 3768.88C245.852 3766.09 246.001 3763.16 245.541 3760.3C251.335 3758.99 260.19 3765.55 259.753 3770.63Z" fill="#282724"/>
<path d="M235.428 3796.23C234.671 3794.67 234.489 3793.99 234.016 3792.88C232.783 3789.61 230.697 3786.73 227.975 3784.54C223.958 3782.46 217.71 3788.73 212.309 3793.09C206.94 3797.42 196.606 3801.81 175.883 3810.43C160.481 3816.83 149.549 3820.32 146.604 3821.25C146.604 3821.25 138.673 3823.75 131.163 3825.58C117.429 3828.93 104.767 3824.83 102.557 3829.68C100.832 3833.47 106.055 3841.44 112.864 3845.02C116.345 3846.85 122.881 3848.83 144.532 3840.52C164.765 3832.76 169.708 3826.49 187.961 3820.22C194.976 3817.66 202.196 3815.7 209.545 3814.37C212.84 3813.81 216.122 3813.16 219.43 3812.69C226.609 3811.67 228.398 3811.86 231.411 3810.32C234.601 3808.71 239.068 3805.21 238.67 3802.01C238.483 3800.5 237.358 3800.19 235.428 3796.23Z" fill="#FFEECC" stroke="#282724" stroke-width="0.1687" stroke-miterlimit="10"/>
<path opacity="0.1" d="M238.653 3802C239.09 3805.23 234.608 3808.73 231.438 3810.31C228.377 3811.84 226.628 3811.68 219.413 3812.72C216.134 3813.15 212.854 3813.81 209.52 3814.36C202.191 3815.7 194.987 3817.66 187.985 3820.2C169.729 3826.49 164.755 3832.78 144.532 3840.54C122.887 3848.84 116.328 3846.88 112.886 3845.02C106.709 3841.79 101.79 3834.96 102.282 3830.86C102.282 3830.45 102.376 3830.04 102.556 3829.66C102.779 3829.14 103.161 3828.7 103.649 3828.4C103.855 3828.26 104.075 3828.13 104.305 3828.02C104.217 3828.25 104.087 3828.45 103.922 3828.62C108.585 3833.37 114.497 3836.71 120.975 3838.24C133.219 3840.65 136.389 3831.63 170.277 3818.24C201.048 3806.05 214.003 3807.25 219.252 3795.83C220.602 3792.77 221.255 3789.45 221.165 3786.1C223.734 3784.41 226.084 3783.59 227.997 3784.57C230.69 3786.77 232.763 3789.63 234.009 3792.88C234.501 3793.97 234.665 3794.68 235.431 3796.21C237.341 3800.2 238.489 3800.53 238.653 3802Z" fill="#282724"/>
<path d="M238.166 3827.42C246.29 3826.78 250.215 3828.82 252.299 3826.57C257.275 3821.21 244.836 3798.86 231.475 3798.08C225.955 3797.75 223.063 3801.27 213.772 3808.65C200.805 3819.45 186.44 3828.46 171.066 3835.43C160.349 3840.34 149.277 3844.43 137.944 3847.68C134.606 3848.59 129.833 3849.53 120.313 3851.53C93.2668 3857.19 88.2511 3857.66 87.073 3861.44C85.506 3866.47 91.6402 3874.45 98.657 3876.69C105.442 3878.85 111.636 3875.19 117.689 3872.12C127.101 3867.33 146.104 3861.66 184.109 3850.32C190.314 3848.43 196.377 3846.1 202.25 3843.35C205.981 3841.58 209.597 3839.57 213.077 3837.35C219.335 3833.46 226.847 3828.32 238.166 3827.42Z" fill="#FFEECC" stroke="#282724" stroke-width="0.1687" stroke-miterlimit="10"/>
<path opacity="0.1" d="M252.318 3826.6C250.241 3828.84 246.305 3826.76 238.163 3827.42C226.849 3828.29 219.361 3833.49 213.075 3837.37C209.588 3839.58 205.975 3841.59 202.253 3843.38C196.378 3846.12 190.313 3848.44 184.106 3850.32C146.119 3861.69 127.098 3867.32 117.697 3872.13C111.63 3875.19 105.453 3878.85 98.6756 3876.66C91.6251 3874.48 85.5032 3866.5 87.0884 3861.42C87.308 3860.65 87.768 3859.98 88.3999 3859.5C93.2273 3863.74 98.9424 3866.84 105.125 3868.58C111.411 3870.16 117.041 3869.72 172.026 3843.38C215.862 3822.39 223.733 3817.2 224.061 3809.6C224.122 3806.95 223.379 3804.34 221.929 3802.12C223.168 3800.83 224.654 3799.81 226.298 3799.11C227.942 3798.42 229.71 3798.06 231.495 3798.07C244.83 3798.84 257.292 3821.19 252.318 3826.6Z" fill="#282724"/>
<path d="M256.554 3850.37C261.755 3840.13 260.097 3821.64 250.437 3814.8C248.739 3813.62 246.822 3812.79 244.799 3812.36C242.776 3811.93 240.688 3811.9 238.656 3812.29C231.854 3813.92 228.114 3820.95 226.374 3823.89C223.512 3828.74 214.011 3835.88 195.009 3850.15C171.998 3867.39 146.722 3881.39 119.894 3891.73C114.114 3893.77 99.1062 3898.73 99.4169 3905.18C99.4998 3906.9 100.786 3908.39 103.436 3911.27C107.104 3915.26 112.516 3921.14 117.853 3920.62C122.569 3920.17 125.071 3914.92 127.599 3911.15C133.108 3902.93 139.412 3900.67 157.444 3893.26C226.09 3865.05 215.662 3864.49 232.241 3861.13C244.06 3858.74 252.477 3858.39 256.554 3850.37Z" fill="#FFEECC" stroke="#282724" stroke-width="0.1687" stroke-miterlimit="10"/>
<path opacity="0.1" d="M256.528 3850.37C252.483 3858.4 244.066 3858.73 232.26 3861.14C215.643 3864.47 226.083 3865.02 157.433 3893.27C139.396 3900.65 133.11 3902.95 127.59 3911.15C125.075 3914.92 122.561 3920.16 117.861 3920.6C112.504 3921.15 107.093 3915.25 103.431 3911.26C100.807 3908.41 99.4956 3906.88 99.4409 3905.19C99.2766 3901.96 102.939 3899.07 107.421 3896.77C107.93 3898.53 108.782 3900.17 109.926 3901.59C111.071 3903.02 112.485 3904.2 114.089 3905.08C125.13 3910.33 138.248 3891.36 178.859 3869.06C186.128 3865.02 191.321 3862.56 203.072 3855.78C235.321 3837.2 238.327 3831.57 238.163 3827.42C237.809 3825.28 236.989 3823.25 235.761 3821.46C234.533 3819.68 232.927 3818.18 231.058 3817.09C233.052 3814.76 235.698 3813.08 238.655 3812.28C242.768 3811.52 247.014 3812.42 250.461 3814.79C260.081 3821.62 261.775 3840.1 256.528 3850.37Z" fill="#282724"/>
</svg>
