<svg width="1545" height="3929" viewBox="0 0 1545 3929" fill="none" xmlns="http://www.w3.org/2000/svg">
<path d="M245.106 3768.88C245.882 3766.98 246.091 3764.91 245.706 3762.89C245.321 3760.88 244.359 3759.03 242.937 3757.56C237.67 3753.8 228.212 3765.57 200.581 3781.47C193.31 3785.55 185.67 3788.93 177.762 3791.57C172.253 3793.71 166.532 3795.26 160.696 3796.19C144.775 3798.36 136.323 3793.25 134.111 3796.91C132.253 3799.99 136.295 3806.76 141.38 3809.91C145.566 3812.5 149.846 3812.25 155.299 3811.86C161.213 3811.41 167.023 3810.04 172.521 3807.82C186.597 3802.29 188.935 3797.49 206.472 3789.18C212.291 3786.42 215.124 3784.86 219.011 3783.25C226.169 3780.34 233.164 3777.05 239.968 3773.39C242.166 3772.55 243.99 3770.95 245.106 3768.88Z" fill="black"/>
<path d="M245.103 3768.88C243.998 3770.96 242.169 3772.55 239.965 3773.36C233.177 3777.05 226.189 3780.35 219.032 3783.26C215.096 3784.84 212.308 3786.43 206.46 3789.16C188.915 3797.47 186.62 3802.28 172.518 3807.8C167.026 3810.04 161.216 3811.4 155.3 3811.84C149.834 3812.22 145.571 3812.5 141.363 3809.93C137.838 3807.74 135.204 3804.37 133.929 3800.42C133.874 3800.36 133.874 3800.36 133.874 3800.31V3800.2C133.91 3799.63 133.854 3799.06 133.71 3798.51V3798.45C133.687 3797.91 133.82 3797.38 134.093 3796.92C134.425 3796.46 134.871 3796.09 135.388 3795.85C135.906 3795.61 136.476 3795.51 137.045 3795.55C139.039 3798.82 141.845 3801.51 145.189 3803.37C155.082 3808.4 163.882 3799.71 196.021 3785.77C222.748 3774.18 233.844 3772.76 235.047 3764.89C235.31 3763.04 235.044 3761.14 234.281 3759.43C238.271 3756.97 240.895 3756.15 242.917 3757.57C244.347 3759.04 245.317 3760.89 245.705 3762.9C246.094 3764.91 245.884 3766.99 245.103 3768.88Z" fill="black"/>
<path d="M259.779 3770.63C260.173 3765.37 250.797 3758.58 244.999 3760.42C241.783 3761.44 240.604 3764.82 239.157 3767.52C234.666 3775.9 228.667 3775.73 194.145 3791.78C187.133 3795.03 179.934 3797.87 172.584 3800.26C171.507 3800.61 170.497 3800.91 169.451 3801.21C163.307 3803.25 156.97 3804.65 150.54 3805.4C137.708 3806.65 131.385 3803.99 129.97 3806.83C128.495 3809.8 133.588 3816.24 139.311 3819.1C141.567 3820.19 144.008 3820.84 146.505 3821.01C152.437 3821.37 158.353 3820.09 163.609 3817.32C182.819 3808.27 189.612 3804.11 200.396 3799.68C206.694 3797.09 209.764 3795.61 213.97 3794.11C218.923 3792.35 222.443 3791.01 225.624 3789.71C226.345 3789.41 226.97 3789.15 227.609 3788.88C227.609 3788.88 232.212 3786.94 236.656 3784.87C251.893 3777.75 259.511 3774.19 259.779 3770.63Z" fill="black"/>
<path d="M259.752 3770.63C259.533 3774.18 251.881 3777.74 236.631 3784.84C232.204 3786.92 227.613 3788.89 227.613 3788.89C226.957 3789.16 226.356 3789.43 225.645 3789.71C222.421 3791.02 218.922 3792.33 213.948 3794.13C209.74 3795.61 206.679 3797.08 200.393 3799.65C189.626 3804.08 182.793 3808.29 163.608 3817.31C158.348 3820.07 152.434 3821.36 146.5 3821.02C144.001 3820.81 141.559 3820.17 139.286 3819.11C133.601 3816.21 128.518 3809.82 129.994 3806.81C130.759 3805.17 133.219 3805.39 137.591 3805.61C139.475 3809.06 142.324 3811.89 145.79 3813.75C155.41 3818.51 163.554 3810.09 195.091 3795.83C229.253 3780.36 241.879 3780.09 245.103 3768.88C245.852 3766.09 246 3763.16 245.54 3760.3C251.334 3758.99 260.189 3765.55 259.752 3770.63Z" fill="black"/>
<path d="M235.429 3796.23C234.671 3794.67 234.489 3793.99 234.016 3792.88C232.783 3789.61 230.697 3786.73 227.975 3784.54C223.958 3782.46 217.71 3788.73 212.31 3793.09C206.94 3797.42 196.606 3801.81 175.883 3810.43C160.481 3816.83 149.549 3820.32 146.604 3821.25C146.604 3821.25 138.673 3823.75 131.163 3825.58C117.429 3828.93 104.768 3824.83 102.557 3829.69C100.832 3833.47 106.055 3841.44 112.864 3845.02C116.345 3846.85 122.881 3848.83 144.533 3840.52C164.765 3832.76 169.708 3826.49 187.962 3820.22C194.976 3817.66 202.197 3815.7 209.545 3814.37C212.841 3813.81 216.122 3813.16 219.43 3812.69C226.61 3811.67 228.398 3811.86 231.412 3810.33C234.601 3808.71 239.068 3805.21 238.67 3802.01C238.483 3800.5 237.359 3800.19 235.429 3796.23Z" fill="black"/>
<path d="M238.654 3802C239.091 3805.23 234.609 3808.73 231.439 3810.31C228.378 3811.84 226.629 3811.68 219.414 3812.72C216.135 3813.15 212.855 3813.81 209.521 3814.36C202.192 3815.7 194.988 3817.66 187.986 3820.2C169.73 3826.49 164.756 3832.77 144.533 3840.54C122.888 3848.84 116.329 3846.87 112.887 3845.02C106.71 3841.79 101.791 3834.96 102.283 3830.86C102.283 3830.45 102.376 3830.04 102.557 3829.66C102.78 3829.14 103.162 3828.7 103.649 3828.4C103.856 3828.26 104.076 3828.13 104.306 3828.02C104.218 3828.24 104.088 3828.45 103.923 3828.62C108.586 3833.37 114.498 3836.71 120.976 3838.24C133.22 3840.65 136.39 3831.63 170.278 3818.24C201.049 3806.05 214.004 3807.25 219.253 3795.83C220.603 3792.77 221.256 3789.45 221.166 3786.1C223.735 3784.41 226.085 3783.59 227.998 3784.57C230.691 3786.77 232.764 3789.63 234.01 3792.88C234.502 3793.97 234.666 3794.68 235.432 3796.21C237.342 3800.2 238.49 3800.53 238.654 3802Z" fill="black"/>
<path d="M238.166 3827.42C246.29 3826.78 250.215 3828.82 252.299 3826.57C257.275 3821.21 244.836 3798.86 231.475 3798.08C225.955 3797.75 223.063 3801.27 213.772 3808.65C200.805 3819.45 186.44 3828.46 171.066 3835.43C160.349 3840.34 149.277 3844.44 137.944 3847.68C134.606 3848.59 129.833 3849.54 120.313 3851.53C93.2668 3857.19 88.2511 3857.66 87.073 3861.44C85.506 3866.47 91.6402 3874.45 98.657 3876.69C105.442 3878.85 111.636 3875.2 117.689 3872.12C127.101 3867.33 146.104 3861.66 184.109 3850.32C190.314 3848.43 196.377 3846.1 202.25 3843.35C205.981 3841.58 209.597 3839.58 213.077 3837.35C219.335 3833.46 226.847 3828.32 238.166 3827.42Z" fill="black"/>
<path d="M252.318 3826.6C250.241 3828.84 246.306 3826.76 238.163 3827.42C226.849 3828.29 219.361 3833.48 213.075 3837.37C209.589 3839.58 205.975 3841.59 202.253 3843.38C196.379 3846.12 190.314 3848.44 184.107 3850.32C146.119 3861.69 127.099 3867.32 117.697 3872.13C111.63 3875.19 105.453 3878.85 98.6761 3876.66C91.6256 3874.48 85.5037 3866.5 87.0889 3861.41C87.3086 3860.65 87.7686 3859.98 88.4004 3859.5C93.2278 3863.74 98.9429 3866.84 105.126 3868.57C111.412 3870.16 117.041 3869.72 172.027 3843.38C215.863 3822.39 223.734 3817.2 224.062 3809.6C224.123 3806.95 223.38 3804.34 221.93 3802.11C223.169 3800.83 224.655 3799.81 226.299 3799.11C227.943 3798.42 229.71 3798.06 231.495 3798.07C244.83 3798.83 257.292 3821.19 252.318 3826.6Z" fill="black"/>
<path d="M256.554 3850.37C261.755 3840.12 260.097 3821.64 250.437 3814.8C248.739 3813.61 246.822 3812.79 244.799 3812.35C242.776 3811.92 240.688 3811.9 238.656 3812.29C231.854 3813.92 228.114 3820.95 226.374 3823.89C223.512 3828.74 214.011 3835.88 195.009 3850.15C171.998 3867.39 146.722 3881.39 119.894 3891.73C114.114 3893.77 99.1062 3898.73 99.4169 3905.18C99.4998 3906.9 100.786 3908.39 103.436 3911.27C107.104 3915.26 112.516 3921.14 117.853 3920.62C122.569 3920.16 125.071 3914.92 127.599 3911.15C133.108 3902.93 139.412 3900.67 157.444 3893.26C226.09 3865.05 215.662 3864.49 232.241 3861.13C244.06 3858.73 252.477 3858.39 256.554 3850.37Z" fill="black"/>
<path d="M256.527 3850.37C252.482 3858.41 244.065 3858.73 232.259 3861.14C215.642 3864.47 226.082 3865.02 157.432 3893.28C139.395 3900.65 133.109 3902.95 127.589 3911.15C125.074 3914.92 122.56 3920.17 117.86 3920.6C112.503 3921.15 107.092 3915.25 103.43 3911.26C100.806 3908.42 99.4947 3906.88 99.4399 3905.19C99.2757 3901.97 102.938 3899.07 107.42 3896.77C107.929 3898.53 108.781 3900.17 109.925 3901.59C111.07 3903.02 112.484 3904.2 114.088 3905.08C125.129 3910.33 138.247 3891.36 178.858 3869.06C186.127 3865.02 191.32 3862.56 203.071 3855.78C235.32 3837.2 238.326 3831.57 238.162 3827.42C237.808 3825.28 236.988 3823.25 235.76 3821.46C234.532 3819.68 232.926 3818.18 231.057 3817.09C233.051 3814.76 235.697 3813.09 238.654 3812.28C242.767 3811.52 247.013 3812.42 250.46 3814.79C260.08 3821.62 261.774 3840.1 256.527 3850.37Z" fill="black"/>
</svg>
