<svg width="1545" height="3929" viewBox="0 0 1545 3929" fill="none" xmlns="http://www.w3.org/2000/svg">
<path d="M1061.07 3769.28C1060.97 3766.83 1064.78 3764.27 1068.07 3763.83C1071.04 3763.76 1073.95 3764.71 1076.3 3766.54C1079.55 3768.53 1082.62 3770.81 1085.45 3773.36C1093.2 3779.55 1095.4 3780.19 1095.21 3782.01C1094.95 3784.58 1090.19 3787.04 1086.17 3786.42C1082.47 3785.85 1081.68 3783.03 1077.27 3779.18C1068.95 3771.93 1061.21 3772.73 1061.07 3769.28Z" fill="#FFEECC" stroke="#282724" stroke-width="0.1687" stroke-miterlimit="10"/>
<path opacity="0.1" d="M1095.2 3782C1094.93 3784.57 1090.17 3787.03 1086.18 3786.42C1082.46 3785.82 1081.7 3783.04 1077.27 3779.16C1068.96 3771.94 1061.2 3772.71 1061.09 3769.26C1060.98 3766.8 1064.76 3764.29 1068.09 3763.85C1070.1 3763.65 1072.11 3764.11 1073.83 3765.17C1071.97 3765.82 1070.66 3766.75 1070.66 3767.62C1070.66 3769.97 1079.24 3768.99 1085.58 3775.71C1087.71 3778.01 1089.19 3780.69 1092.03 3780.91C1092.91 3780.94 1093.78 3780.79 1094.6 3780.47C1094.81 3780.66 1094.97 3780.9 1095.08 3781.16C1095.18 3781.43 1095.22 3781.71 1095.2 3782Z" fill="#282724"/>
<path d="M1087.33 3783.39C1088.09 3780.04 1082.77 3776.21 1082.23 3775.82C1078.54 3773.16 1076.4 3774.04 1070.32 3771.7C1064.23 3769.36 1064.6 3767.8 1060.58 3766.74C1053.26 3764.82 1044.63 3768.06 1044.51 3770.69C1044.39 3773.32 1052.88 3772.86 1063.16 3780.84C1067.7 3784.37 1068.45 3786.33 1072.27 3787.46C1078.48 3789.3 1086.49 3787.08 1087.33 3783.39Z" fill="#FFEECC" stroke="#282724" stroke-width="0.1687" stroke-miterlimit="10"/>
<path opacity="0.1" d="M1087.33 3783.37C1086.51 3787.08 1078.47 3789.32 1072.3 3787.47C1068.47 3786.32 1067.71 3784.35 1063.17 3780.85C1052.9 3772.87 1044.37 3773.31 1044.53 3770.69C1044.64 3768.17 1052.51 3765.11 1059.62 3766.59C1058.42 3766.81 1057.6 3767.19 1057.43 3767.79C1056.94 3769.21 1060.06 3771.34 1062.19 3772.87C1066.72 3776.04 1068.42 3775.33 1074.1 3778.39C1078.91 3780.91 1079.84 3782.55 1083.07 3782.71C1084.49 3782.82 1085.92 3782.63 1087.28 3782.17C1087.43 3782.55 1087.45 3782.97 1087.33 3783.37Z" fill="#282724"/>
<path d="M1053.06 3709.58C1052.8 3709.91 1052.46 3710.17 1052.07 3710.35C1050.22 3711.39 1047.59 3710.46 1044.42 3710.18C1044.31 3710.13 1044.26 3710.18 1044.15 3710.18C1041.73 3709.95 1039.3 3710.43 1037.15 3711.55L1036.17 3712.04C1032.79 3714.42 1030.02 3717.57 1028.08 3721.22C1027.92 3721.55 1027.75 3721.88 1027.59 3722.15C1027.42 3722.54 1027.26 3722.92 1027.15 3723.19C1026.99 3723.57 1026.88 3723.85 1026.77 3724.07C1025.67 3726.96 1025.95 3727.78 1025.24 3729.26C1021.85 3736.85 1005.67 3735.65 998.399 3736.75C992.069 3737.63 985.806 3738.95 979.652 3740.68C979.558 3740.68 979.464 3740.7 979.379 3740.74C978.996 3740.84 978.559 3740.95 978.122 3741.12C977.411 3741.28 976.7 3741.56 975.935 3741.77C975.816 3741.83 975.686 3741.87 975.552 3741.88C974.35 3742.27 973.202 3742.65 972.109 3743.03C971.781 3743.14 971.453 3743.25 971.18 3743.36C970.415 3743.63 969.704 3743.9 968.993 3744.18C968.283 3744.4 967.627 3744.67 966.971 3744.94C965.769 3745.38 964.676 3745.87 963.637 3746.25C962.708 3746.64 961.833 3747.02 961.013 3747.35C959.866 3747.79 958.772 3748.28 957.789 3748.66C956.75 3749.04 955.821 3749.37 954.946 3749.64C954.663 3749.76 954.371 3749.85 954.072 3749.92C953.806 3750.02 953.531 3750.09 953.252 3750.14C952.946 3750.21 952.636 3750.27 952.323 3750.3C951.222 3750.49 950.1 3750.53 948.989 3750.41C948.769 3750.42 948.547 3750.4 948.333 3750.35C948.238 3750.36 948.144 3750.34 948.06 3750.3C944.616 3749.21 946.693 3724.39 947.24 3712.21C948.333 3688.21 945.163 3678.32 950.902 3675.26C951.993 3674.69 953.231 3674.46 954.455 3674.6C954.564 3674.6 954.728 3674.66 954.837 3674.66C956.329 3674.81 957.808 3675.07 959.264 3675.42C959.428 3675.48 959.647 3675.48 959.866 3675.53C964.602 3676.62 969.508 3676.75 974.295 3675.91C974.733 3675.86 975.115 3675.81 975.498 3675.75C976.646 3675.48 977.957 3675.09 982.275 3673.95C982.385 3673.89 982.549 3673.89 982.658 3673.84C995.339 3670.61 1001.79 3669.03 1006.43 3668.26C1017.26 3666.57 1023.7 3667.61 1036.6 3669.74C1039.71 3669.99 1042.6 3671.42 1044.69 3673.73C1046.14 3675.78 1046.83 3678.27 1046.66 3680.78C1046.88 3695.21 1057.1 3704.88 1053.06 3709.58Z" fill="#FFEECC" stroke="#282724" stroke-width="0.1687" stroke-miterlimit="10"/>
<path opacity="0.1" d="M1046.66 3680.78C1046.83 3678.27 1046.14 3675.78 1044.7 3673.73C1042.6 3671.42 1039.71 3669.99 1036.61 3669.74C1023.71 3667.61 1017.26 3666.57 1006.44 3668.26C1001.79 3669.03 995.339 3670.61 982.66 3673.84C980.373 3674.8 977.963 3675.45 975.5 3675.75C975.117 3675.81 974.735 3675.86 974.297 3675.91C969.492 3676.44 964.638 3676.31 959.868 3675.53C959.649 3675.48 959.43 3675.48 959.266 3675.42C957.681 3675.2 956.206 3674.93 954.839 3674.66C954.73 3674.66 954.566 3674.6 954.457 3674.6C953.233 3674.46 951.995 3674.69 950.904 3675.26C945.165 3678.32 948.335 3688.21 947.242 3712.21C946.695 3724.39 944.618 3749.21 948.062 3750.3C948.146 3750.34 948.24 3750.36 948.335 3750.35C948.55 3750.4 948.771 3750.42 948.991 3750.41C949.1 3750.41 949.209 3750.46 949.374 3750.46C950.36 3750.54 951.353 3750.49 952.325 3750.3C952.638 3750.27 952.949 3750.21 953.254 3750.14C953.534 3750.09 953.808 3750.02 954.074 3749.92C954.373 3749.85 954.665 3749.76 954.948 3749.64C955.823 3749.37 956.752 3749.04 957.791 3748.66C958.774 3748.28 959.868 3747.79 961.016 3747.35C961.835 3747.02 962.71 3746.64 963.639 3746.26C964.678 3745.87 965.771 3745.38 966.973 3744.94C967.629 3744.67 968.285 3744.4 968.995 3744.18C969.706 3743.9 970.417 3743.63 971.182 3743.36C971.455 3743.25 971.783 3743.14 972.111 3743.03C973.204 3742.65 974.352 3742.27 975.555 3741.88C975.688 3741.87 975.818 3741.84 975.937 3741.77C976.703 3741.56 977.413 3741.28 978.124 3741.12C978.561 3740.95 978.998 3740.84 979.381 3740.74C979.466 3740.7 979.56 3740.68 979.654 3740.68V3740.63C985.745 3738.66 992.03 3737.36 998.402 3736.75C1005.67 3735.65 1021.85 3736.85 1025.24 3729.26C1025.95 3727.78 1025.68 3726.96 1026.77 3724.07C1026.88 3723.85 1026.99 3723.57 1027.15 3723.19C1027.26 3722.92 1027.43 3722.54 1027.59 3722.15C1027.75 3721.88 1027.92 3721.55 1028.08 3721.22C1029.84 3717.45 1032.65 3714.26 1036.17 3712.04L1037.15 3711.55C1039.36 3710.6 1041.75 3710.13 1044.15 3710.18C1044.26 3710.18 1044.32 3710.13 1044.42 3710.18C1046.98 3710.08 1049.53 3710.14 1052.08 3710.35C1052.46 3710.17 1052.8 3709.91 1053.06 3709.58C1057.1 3704.88 1046.88 3695.21 1046.66 3680.78ZM1045.62 3701.17C1042.84 3705.7 1030.54 3700.95 1028.08 3705.81C1026.93 3708.11 1028.95 3710.62 1026.99 3713.9C1026.1 3715.32 1024.83 3716.45 1023.32 3717.18C1020.48 3718.82 1006.98 3726.36 998.182 3720.35C994.137 3717.51 993.044 3712.75 990.967 3703.46C990.912 3703.08 990.803 3702.64 990.694 3702.2C988.289 3691.33 987.086 3685.92 989.491 3681.27C995.613 3669.68 1017.53 3671.16 1028.9 3671.92C1033.11 3672.2 1039.12 3671.65 1041.31 3675.15C1042.67 3677.28 1041.53 3679.08 1041.42 3683.24C1041.14 3693.51 1047.81 3697.67 1045.62 3701.17Z" fill="#282724"/>
<path d="M1097.5 3756.15C1096.95 3757.57 1094.43 3757.35 1087.88 3757.73C1075.74 3758.39 1074.98 3759.59 1070.66 3758.83C1070.23 3758.77 1069.81 3758.68 1069.4 3758.55C1064.94 3757.12 1060.84 3754.76 1057.38 3751.61L1057.32 3751.56C1051.69 3746.52 1045.58 3742.05 1039.07 3738.22C1037.8 3737.49 1036.58 3736.69 1035.41 3735.82C1031.14 3732.81 1028.41 3729.81 1028.46 3725.49C1028.57 3719.37 1034.15 3714.45 1037.97 3712.43C1046.94 3707.73 1057.1 3712.75 1060.6 3714.45C1062.68 3715.53 1064.67 3716.78 1066.56 3718.16C1068.04 3719.26 1069.24 3720.35 1070.11 3721.11C1070.77 3721.66 1071.32 3722.21 1071.86 3722.75C1072.76 3723.56 1073.6 3724.41 1074.38 3725.32C1074.92 3725.92 1075.41 3726.53 1075.85 3727.07C1079.24 3731.06 1080.99 3734.62 1084.54 3739.48C1085.14 3740.24 1085.75 3741.06 1086.46 3741.94C1087.44 3743.14 1088.53 3744.45 1089.79 3745.87C1094.27 3750.9 1098.26 3754.18 1097.5 3756.15Z" fill="#FFEECC" stroke="#282724" stroke-width="0.1687" stroke-miterlimit="10"/>
<path opacity="0.1" d="M1089.79 3745.87C1088.53 3744.45 1087.38 3743.14 1086.46 3741.94C1085.74 3741.06 1085.09 3740.24 1084.54 3739.48C1080.12 3733.85 1078.64 3730.63 1075.85 3727.07C1075.41 3726.53 1074.92 3725.92 1074.38 3725.32C1073.59 3724.41 1072.75 3723.56 1071.86 3722.75C1071.32 3722.21 1070.77 3721.66 1070.11 3721.11C1069.24 3720.35 1068.04 3719.26 1066.56 3718.16C1064.67 3716.78 1062.68 3715.53 1060.6 3714.45C1057.1 3712.75 1046.94 3707.73 1037.97 3712.43C1034.15 3714.45 1028.57 3719.37 1028.46 3725.49C1028.45 3725.65 1028.47 3725.82 1028.52 3725.98C1028.47 3726.44 1028.51 3726.9 1028.63 3727.35V3727.4C1028.69 3727.74 1028.78 3728.06 1028.9 3728.38C1028.96 3728.55 1029.01 3728.66 1029.06 3728.82C1029.42 3729.82 1029.96 3730.75 1030.65 3731.55L1030.7 3731.61C1031.33 3732.39 1032.02 3733.1 1032.78 3733.74C1033.61 3734.49 1034.49 3735.18 1035.4 3735.82C1035.46 3735.82 1035.51 3735.87 1035.62 3735.93C1036.72 3736.52 1037.77 3737.22 1038.74 3738L1038.79 3738.06C1038.9 3738.06 1038.96 3738.17 1039.07 3738.22C1045.58 3742.05 1051.69 3746.52 1057.32 3751.56L1057.38 3751.61C1058.94 3752.31 1060.41 3753.21 1061.75 3754.29C1061.8 3754.35 1061.8 3754.35 1061.86 3754.35C1064.13 3756.15 1066.68 3757.57 1069.4 3758.55C1069.81 3758.68 1070.23 3758.77 1070.66 3758.83C1074.98 3759.59 1075.74 3758.39 1087.88 3757.73C1094.44 3757.35 1096.95 3757.57 1097.5 3756.15C1098.26 3754.18 1094.27 3750.9 1089.79 3745.87ZM1072.41 3752.76C1062.84 3748.22 1059.45 3738.06 1055.63 3726.36C1053.55 3720.08 1053.99 3718.6 1054.7 3717.95C1057 3715.98 1064.92 3719.91 1070.22 3725.54C1075.74 3731.39 1074.49 3734.23 1079.95 3741.83C1085.25 3749.21 1091.27 3750.74 1090.56 3752.76C1089.68 3755.33 1080.12 3756.42 1072.41 3752.76Z" fill="#282724"/>
<path d="M1000.13 3797.91C1001.9 3803.6 1015.13 3798.28 1035.22 3808.33C1036.76 3809.38 1038.48 3810.11 1040.3 3810.49C1042.12 3810.86 1044 3810.86 1045.82 3810.5C1050.92 3808.78 1050.45 3802.93 1055.31 3797.06C1063.51 3787.16 1077.37 3788.43 1077.23 3785.14C1077.14 3782.92 1070.88 3782.79 1060.94 3777.35C1054.99 3774.09 1053.32 3772 1050.84 3770.62C1035.09 3761.85 997.013 3787.87 1000.13 3797.91Z" fill="#FFEECC" stroke="#282724" stroke-width="0.1687" stroke-miterlimit="10"/>
<path opacity="0.1" d="M1060.93 3777.36C1054.97 3774.08 1053.33 3772 1050.82 3770.63C1049.68 3769.98 1048.44 3769.52 1047.16 3769.27C1046.65 3769.14 1046.14 3769.05 1045.63 3768.99C1043.66 3768.77 1041.68 3768.78 1039.72 3769.05C1039.18 3769.1 1038.58 3769.21 1038.03 3769.32C1036.88 3769.54 1035.73 3769.76 1034.53 3770.09C1033.93 3770.25 1033.33 3770.41 1032.73 3770.63C1032.13 3770.8 1031.52 3771.02 1030.92 3771.23L1029.12 3771.89C1027.92 3772.38 1026.71 3772.87 1025.51 3773.42C1024.09 3774.08 1022.72 3774.79 1021.36 3775.55H1021.3C1020.54 3775.99 1019.72 3776.43 1018.95 3776.86C1017.64 3777.63 1016.38 3778.45 1015.13 3779.32C1014.58 3779.66 1014.05 3780.02 1013.54 3780.42C1012.67 3781.02 1011.85 3781.62 1011.03 3782.27C1009.46 3783.48 1007.97 3784.78 1006.55 3786.16C1006.16 3786.54 1005.73 3786.92 1005.4 3787.3C1004.72 3787.97 1004.08 3788.68 1003.48 3789.43L1003.38 3789.54C1002.87 3790.17 1002.39 3790.83 1001.95 3791.51C1001.64 3791.92 1001.37 3792.36 1001.13 3792.82C1000.15 3794.32 999.792 3796.15 1000.15 3797.91C1001.9 3803.59 1015.13 3798.29 1035.24 3808.35C1036.78 3809.38 1038.51 3810.11 1040.33 3810.47C1042.15 3810.84 1044.02 3810.84 1045.84 3810.48C1050.93 3808.78 1050.44 3802.93 1055.3 3797.03C1056.05 3796.13 1056.87 3795.29 1057.76 3794.52C1057.81 3794.46 1057.92 3794.41 1057.98 3794.35C1058.51 3793.87 1059.07 3793.43 1059.67 3793.04C1060.06 3792.77 1060.44 3792.55 1060.82 3792.28C1060.93 3792.22 1061.04 3792.11 1061.15 3792.06C1061.91 3791.61 1062.69 3791.21 1063.5 3790.86C1063.83 3790.69 1064.16 3790.53 1064.43 3790.42C1065.17 3790.06 1065.94 3789.75 1066.72 3789.49C1068.04 3789 1069.24 3788.67 1070.39 3788.34C1070.44 3788.29 1070.44 3788.29 1070.5 3788.29C1070.6 3788.23 1070.77 3788.23 1070.88 3788.18C1071.42 3788.07 1071.92 3787.9 1072.41 3787.79C1072.63 3787.74 1072.79 3787.69 1073.01 3787.63H1073.06C1073.94 3787.39 1074.79 3787.1 1075.63 3786.76C1075.94 3786.63 1076.24 3786.46 1076.51 3786.26C1076.74 3786.14 1076.93 3785.95 1077.05 3785.72C1077.17 3785.56 1077.22 3785.37 1077.22 3785.17V3785.12C1077.16 3782.93 1070.88 3782.77 1060.93 3777.36ZM1058.58 3788.51C1055.08 3788.12 1053.55 3786.81 1048.96 3784.41C1038.08 3778.67 1031.85 3778.45 1031.85 3776.48C1031.96 3774.62 1037.32 3772.98 1041.96 3772.87C1047.48 3772.71 1048.85 3774.9 1063.17 3780.85C1067.87 3782.82 1069.84 3783.48 1069.84 3784.62C1069.78 3785.14 1069.53 3785.61 1069.13 3785.94C1066.02 3788.01 1062.29 3788.92 1058.58 3788.51Z" fill="#282724"/>
<path d="M1022.86 3733.06C1024.18 3732.37 1025.58 3731.87 1027.03 3731.56C1030.17 3730.97 1036.56 3730.92 1055.6 3748.31C1065.32 3757.19 1065.29 3758.69 1065.15 3759.42C1064 3765.64 1047.15 3762.75 1028.23 3770.9C1005.06 3780.88 1005.2 3796.04 990.578 3797.88C967.404 3800.8 940.175 3762.84 945.56 3754.4C946.126 3753.75 946.818 3753.22 947.595 3752.84C948.372 3752.47 949.216 3752.25 950.078 3752.21C971.944 3747.68 968.297 3742.89 988.41 3739.18C1004.26 3736.26 1010.87 3738.44 1022.86 3733.06Z" fill="#FFEECC" stroke="#282724" stroke-width="0.1687" stroke-miterlimit="10"/>
<path opacity="0.1" d="M1064.97 3758.28C1064.97 3758.28 1064.96 3758.28 1064.95 3758.27C1064.95 3758.27 1064.94 3758.27 1064.94 3758.26C1064.93 3758.26 1064.93 3758.25 1064.92 3758.24C1064.92 3758.24 1064.92 3758.23 1064.92 3758.22C1064.43 3757.39 1063.87 3756.6 1063.23 3755.87L1063.17 3755.82C1063.17 3755.76 1063.12 3755.76 1063.06 3755.71C1062.86 3755.44 1062.64 3755.18 1062.41 3754.94C1062.24 3754.73 1062.06 3754.53 1061.86 3754.34C1061.8 3754.34 1061.8 3754.34 1061.75 3754.29C1060.38 3752.81 1058.36 3750.84 1055.57 3748.33C1053.61 3746.53 1051.75 3744.89 1050 3743.41C1048.9 3742.54 1047.92 3741.72 1046.94 3740.95C1046.01 3740.19 1045.08 3739.48 1044.2 3738.82C1043.71 3738.44 1043.22 3738.11 1042.78 3737.78C1041.64 3736.96 1040.54 3736.25 1039.56 3735.6C1038.66 3734.99 1037.73 3734.45 1036.77 3733.96C1036.11 3733.63 1035.57 3733.3 1034.97 3733.03C1034.43 3732.78 1033.88 3732.56 1033.33 3732.37C1032.48 3732.04 1031.6 3731.79 1030.7 3731.61C1030.45 3731.55 1030.2 3731.51 1029.94 3731.5V3731.44C1028.97 3731.3 1027.99 3731.34 1027.04 3731.55C1025.57 3731.86 1024.16 3732.38 1022.83 3733.08C1010.86 3738.44 1004.25 3736.25 988.399 3739.2C985.597 3739.69 982.824 3740.33 980.09 3741.12C979.422 3741.29 978.764 3741.51 978.123 3741.77C977.74 3741.88 977.358 3742.05 976.975 3742.15C976.38 3742.34 975.796 3742.56 975.226 3742.81C975.049 3742.91 974.867 3743 974.68 3743.08L973.203 3743.74C972.623 3743.98 972.057 3744.25 971.509 3744.56C971.454 3744.61 971.345 3744.61 971.29 3744.67C970.798 3744.94 970.307 3745.16 969.869 3745.38C969.541 3745.54 969.268 3745.71 969.049 3745.82C968.175 3746.25 967.355 3746.64 966.481 3747.07C966.153 3747.24 965.879 3747.35 965.551 3747.51C964.95 3747.78 964.294 3748.06 963.584 3748.33C962.162 3748.93 960.523 3749.48 958.61 3750.08C957.899 3750.3 957.134 3750.52 956.314 3750.74C954.511 3751.23 952.434 3751.72 950.083 3752.21C949.22 3752.26 948.375 3752.48 947.596 3752.85C946.818 3753.23 946.121 3753.75 945.546 3754.4C945.081 3755.25 944.854 3756.21 944.891 3757.18C944.896 3757.73 944.951 3758.28 945.054 3758.82C945.056 3759.11 945.112 3759.38 945.219 3759.64C945.264 3760.05 945.355 3760.46 945.492 3760.85L945.656 3761.5C945.82 3761.94 945.984 3762.43 946.148 3762.92C946.421 3763.63 946.749 3764.4 947.132 3765.22C947.569 3766.15 948.061 3767.13 948.553 3768.12C949.591 3769.92 950.739 3771.78 952.106 3773.69C953.408 3775.59 954.813 3777.41 956.314 3779.16C959.546 3782.97 963.153 3786.45 967.082 3789.54C967.902 3790.14 968.722 3790.74 969.541 3791.29C970.483 3791.99 971.469 3792.63 972.493 3793.2C973.149 3793.58 973.859 3793.97 974.515 3794.35C974.788 3794.46 975.007 3794.62 975.28 3794.73C975.335 3794.79 975.444 3794.79 975.499 3794.84C975.554 3794.9 975.663 3794.9 975.718 3794.95C975.936 3795.06 976.21 3795.17 976.428 3795.28C977.193 3795.61 977.959 3795.93 978.724 3796.21C979.725 3796.59 980.747 3796.92 981.785 3797.19C982.331 3797.36 982.823 3797.47 983.37 3797.57C983.862 3797.68 984.299 3797.74 984.736 3797.79C985.188 3797.88 985.644 3797.93 986.103 3797.96C986.704 3798.01 987.305 3798.07 987.906 3798.07C988.802 3798.07 989.696 3798.01 990.585 3797.9C991.405 3797.79 992.224 3797.63 992.935 3797.47C993.044 3797.41 993.154 3797.41 993.263 3797.36C993.919 3797.19 994.559 3796.98 995.176 3796.7C995.449 3796.59 995.777 3796.43 996.105 3796.26C996.582 3796.07 997.04 3795.83 997.472 3795.55C997.966 3795.27 998.44 3794.96 998.893 3794.62H998.947C999.712 3794.02 1000.42 3793.48 1001.13 3792.82C1001.52 3792.44 1001.9 3792.11 1002.28 3791.67C1002.66 3791.29 1003.05 3790.91 1003.43 3790.47C1004.91 3788.88 1006.33 3787.19 1008.02 3785.39C1008.29 3785.06 1008.68 3784.68 1009 3784.35C1009.66 3783.64 1010.32 3782.98 1011.03 3782.27C1013.23 3780.11 1015.63 3778.15 1018.19 3776.42C1018.89 3775.91 1019.62 3775.43 1020.37 3775H1020.43C1020.48 3774.95 1020.48 3774.95 1020.48 3774.89C1020.52 3774.89 1020.56 3774.87 1020.59 3774.84C1021.25 3774.4 1022.01 3774.02 1022.78 3773.58C1023.6 3773.14 1024.47 3772.65 1025.4 3772.21C1025.84 3772 1026.28 3771.78 1026.77 3771.56L1028.24 3770.9C1047.16 3762.76 1063.99 3765.66 1065.14 3759.43C1065.19 3759.21 1065.19 3758.98 1065.14 3758.77C1065.14 3758.61 1065.03 3758.5 1064.97 3758.28ZM1059.56 3759.04C1058.42 3761.23 1050.27 3755.98 1039.83 3758.39C1031.52 3760.35 1030.92 3765.05 1024.8 3766.2C1010.65 3768.94 992.334 3747.35 995.395 3741.83C996.98 3738.98 1002.83 3742.59 1015.73 3739.64C1025.89 3737.29 1026.71 3734.01 1032.34 3734.78C1033.42 3734.94 1034.45 3735.29 1035.41 3735.81C1035.46 3735.81 1035.51 3735.87 1035.62 3735.92C1036.72 3736.52 1037.77 3737.21 1038.74 3738L1038.79 3738.06C1038.9 3738.06 1038.96 3738.16 1039.07 3738.22C1042.02 3740.46 1045.63 3743.85 1050.49 3748.39C1051.47 3749.31 1052.35 3750.13 1053.11 3750.9C1059.56 3757.08 1059.95 3758.39 1059.56 3759.04Z" fill="#282724"/>
</svg>
