<svg width="1545" height="3929" viewBox="0 0 1545 3929" fill="none" xmlns="http://www.w3.org/2000/svg">
<path d="M376.198 1940.57C375.51 1938.92 374.371 1937.5 372.913 1936.48C371.455 1935.45 369.736 1934.85 367.954 1934.76C363.631 1935.1 360.204 1940.39 357.975 1944.26C346.94 1963.41 350.396 1973.57 341.337 1992.38C336.104 2003.97 329.52 2014.9 321.721 2024.94C318.756 2028.41 316.564 2032.46 315.289 2036.84C314.428 2039.9 312.754 2045.82 315.566 2050.75C316.682 2052.47 318.216 2053.89 320.025 2054.86C321.835 2055.84 323.862 2056.34 325.917 2056.33C328.84 2056.4 331.7 2055.47 334.01 2053.67C337.125 2050.97 339.327 2047.37 340.314 2043.37C340.689 2042.18 340.977 2040.98 341.175 2039.75C342.411 2031.97 349.769 2006.63 353.11 1996.66C364.391 1962.95 381.184 1951 376.198 1940.57Z" fill="black"/>
<path d="M369.288 1962.35C369.288 1951.97 367.867 1945.03 365.462 1944.64C363.603 1944.37 361.636 1948.42 357.7 1956.5C346.222 1980.28 351.415 1988.91 343.052 2007.28C334.634 2025.75 322.828 2031.33 326.163 2039.74C327.264 2042.14 329.053 2044.15 331.302 2045.52C333.55 2046.89 336.157 2047.56 338.789 2047.45C337.735 2049.88 336.102 2052.02 334.033 2053.68C333.377 2054.17 332.721 2054.55 332.12 2054.94H332.066C330.193 2055.96 328.072 2056.43 325.944 2056.3C323.901 2056.33 321.884 2055.85 320.078 2054.89C318.273 2053.94 316.737 2052.54 315.613 2050.84C315.613 2050.78 315.558 2050.78 315.558 2050.73C312.771 2045.81 314.41 2039.91 315.285 2036.85C316.565 2032.46 318.764 2028.4 321.735 2024.93C329.534 2014.88 336.12 2003.95 341.357 1992.36C350.375 1973.56 346.932 1963.39 357.973 1944.26C360.214 1940.38 363.603 1935.08 367.976 1934.75C369.749 1934.85 371.459 1935.44 372.909 1936.47C374.359 1937.49 375.491 1938.9 376.175 1940.54C378.908 1946.23 375.136 1952.41 369.288 1962.35Z" fill="black"/>
<path d="M488.736 1969.78C467.629 1950.55 467.318 1937.9 454.006 1936.16C448.191 1935.4 439.13 1936.62 435.006 1943.14C433.522 1945.49 432.741 1948.22 432.756 1951C432.771 1953.78 433.581 1956.5 435.089 1958.83C439.476 1964.68 447.07 1961.51 458.169 1963.93C476.325 1967.89 497.117 1985.33 501.53 2004.74C503.064 2011.48 503.003 2020.15 508.096 2022.16C510.179 2022.98 512.494 2022.27 517.127 2020.85C523.974 2018.75 528.64 2017.32 529.935 2014.18C531.714 2009.86 526.548 2003.71 517.871 1995.14C503.867 1981.31 497.777 1978.02 488.736 1969.78Z" fill="black"/>
<path d="M529.928 2014.16C528.616 2017.33 523.971 2018.76 517.138 2020.83C512.492 2022.25 510.197 2022.96 508.119 2022.14C502.982 2020.18 503.091 2011.49 501.506 2004.76C497.133 1985.31 476.309 1967.87 458.163 1963.94C447.067 1961.53 439.469 1964.7 435.097 1958.85C433.58 1956.51 432.765 1953.79 432.745 1951C432.726 1948.21 433.504 1945.47 434.987 1943.11C439.141 1936.61 448.215 1935.41 454.009 1936.17C458.397 1936.71 462.4 1938.95 465.158 1942.4C458.381 1944.53 453.407 1947.92 453.079 1951.48C452.478 1958.47 470.078 1959.24 488.443 1976.4C507.136 1993.94 508.393 2011.49 519.161 2011.49C522.693 2011.3 526.028 2009.8 528.507 2007.28C529.28 2008.23 529.813 2009.35 530.06 2010.55C530.307 2011.75 530.262 2012.99 529.928 2014.16Z" fill="black"/>
<path d="M441.526 1967.85C440.39 1959.24 439.88 1953.19 434.544 1949.45C425.49 1943.1 407.857 1947.11 406.563 1952.47C405.913 1955.15 409.733 1956.76 414.834 1963.32C417.024 1966.14 419.413 1969.82 423.959 1981.7C430.888 1999.84 435.763 2018.7 438.492 2037.92C439.797 2047.32 439.718 2050.92 438.668 2054.87C436.669 2062.41 432.892 2064.7 433.038 2071.68C432.9 2073.96 433.29 2076.23 434.179 2078.33C435.068 2080.43 436.432 2082.29 438.162 2083.78C440.109 2085.05 442.29 2085.93 444.579 2086.36C446.868 2086.79 449.219 2086.76 451.497 2086.28C453.151 2086 458.281 2085.15 459.49 2082.1C460.121 2080.5 459.089 2079.81 459.151 2077.22C459.237 2073.65 461.283 2072.18 462.139 2069.65C463.685 2065.09 460.212 2060.4 458.728 2058.02C455.324 2052.54 455.878 2048.68 452.911 2026.52C447.476 1985.93 445.527 1998.19 441.526 1967.85Z" fill="black"/>
<path d="M459.474 2082.1C458.271 2085.16 453.133 2085.98 451.494 2086.25C446.898 2087.23 442.102 2086.35 438.157 2083.79C436.429 2082.3 435.067 2080.43 434.176 2078.33C433.285 2076.22 432.89 2073.94 433.019 2071.66C432.91 2064.72 436.682 2062.42 438.65 2054.88C439.742 2050.89 439.797 2047.34 438.485 2037.94C435.769 2018.71 430.892 1999.84 423.946 1981.7C419.41 1969.84 417.005 1966.12 414.818 1963.34C409.735 1956.78 405.911 1955.14 406.565 1952.46C407.877 1947.1 425.476 1943.12 434.551 1949.45L434.66 1949.56C432.714 1949.57 430.793 1950 429.029 1950.82C427.265 1951.64 425.699 1952.84 424.439 1954.32C419.684 1961.42 430.67 1970.88 440.016 1994.55C449.799 2019.41 455.758 2054.78 446.466 2068.93C445.536 2070.3 442.257 2074.83 443.788 2077.24C445.319 2079.64 450.839 2078.99 454.064 2078C455.942 2077.42 457.727 2076.58 459.365 2075.49C459.229 2076.06 459.155 2076.65 459.147 2077.24C459.091 2079.8 460.13 2080.52 459.474 2082.1Z" fill="black"/>
<path d="M415.482 1963.12C415.818 1958.7 414.425 1954.33 411.598 1950.91C406.229 1945.5 396.074 1946.37 392.361 1946.69C391.145 1946.64 389.937 1946.9 388.849 1947.45C384.253 1950.69 388.393 1962.95 391.362 1974.21C396.377 1994.93 398.869 2016.18 398.786 2037.5C398.907 2047.98 398.376 2051.93 396.833 2056.19C393.894 2064.3 389.843 2066.47 389.111 2074.18C388.674 2076.6 388.769 2079.09 389.388 2081.47C390.008 2083.85 391.138 2086.07 392.699 2087.98C394.438 2089.55 396.501 2090.73 398.743 2091.42C400.985 2092.11 403.351 2092.3 405.676 2091.98C407.358 2091.83 412.578 2091.38 414.166 2088.13C414.996 2086.43 414.055 2085.56 414.441 2082.72C414.975 2078.79 417.198 2077.37 418.37 2074.67C420.484 2069.78 417.611 2064.3 416.432 2061.53C414.267 2056.45 414.359 2046.4 414.588 2026.29C414.726 2014.42 415.738 1985.96 415.482 1963.12Z" fill="black"/>
<path d="M414.162 2088.11C412.577 2091.39 407.385 2091.83 405.691 2091.99C403.363 2092.3 400.996 2092.1 398.752 2091.41C396.507 2090.72 394.437 2089.56 392.682 2088C391.128 2086.09 390.005 2083.86 389.392 2081.48C388.779 2079.09 388.689 2076.6 389.129 2074.18C389.84 2066.47 393.885 2064.28 396.836 2056.19C398.367 2051.93 398.913 2048 398.804 2037.5C398.893 2016.18 396.397 1994.93 391.37 1974.21C388.419 1962.96 384.265 1950.71 388.856 1947.43C389.94 1946.89 391.142 1946.63 392.354 1946.67C396.071 1946.39 406.237 1945.52 411.594 1950.93C411.899 1951.23 412.173 1951.56 412.414 1951.91C408.119 1951.56 403.852 1952.87 400.498 1955.58C391.972 1963.67 408.041 1979.3 408.26 2013.67C408.478 2048.33 392.356 2066.36 403.286 2078.44C406.241 2081.6 410.095 2083.77 414.327 2084.67C414.436 2086.09 414.764 2086.91 414.162 2088.11Z" fill="black"/>
<path d="M393.384 1946.38C392.689 1944.94 391.749 1943.62 390.607 1942.5C389.888 1941.74 383.636 1935.26 377.136 1937.13C375.477 1937.64 373.982 1938.57 372.805 1939.85C368.257 1944.69 369.447 1952.76 369.827 1955.5C372.397 1977.11 372.452 1998.95 369.991 2020.58C368.422 2032.62 366.066 2037.19 365.215 2038.75C361.075 2046.32 356.741 2047.84 354.843 2055.35C354.043 2057.68 353.757 2060.15 354.007 2062.6C354.256 2065.05 355.035 2067.42 356.289 2069.54C357.767 2071.36 359.627 2072.84 361.737 2073.86C363.848 2074.89 366.158 2075.44 368.504 2075.47C370.188 2075.58 375.418 2075.92 377.483 2072.95C378.561 2071.4 377.763 2070.4 378.577 2067.66C379.703 2063.85 382.116 2062.79 383.686 2060.29C386.52 2055.78 384.515 2049.93 383.771 2047.01C382.064 2040.33 383.728 2036.34 391.119 1966.92C392.118 1957.53 396.144 1952.37 393.384 1946.38Z" fill="black"/>
<path d="M394.267 1951.64C389.621 1948.03 384.92 1946.07 381.477 1947.49C370.6 1951.86 386.177 1982.85 373.169 2029.2C367.977 2047.83 359.832 2062.81 366.501 2069.42C368.093 2070.68 369.942 2071.57 371.915 2072.03C373.889 2072.49 375.94 2072.52 377.924 2072.1C377.835 2072.42 377.687 2072.71 377.487 2072.97C375.41 2075.93 370.163 2075.6 368.523 2075.49C368.304 2075.49 368.031 2075.43 367.703 2075.43C367.594 2075.43 367.43 2075.38 367.266 2075.38C366.665 2075.27 366.118 2075.22 365.572 2075.11C361.869 2074.52 358.537 2072.52 356.28 2069.53C355.027 2067.42 354.252 2065.06 354.006 2062.61C353.761 2060.17 354.052 2057.7 354.859 2055.38C356.717 2047.84 361.09 2046.31 365.189 2038.76C366.064 2037.18 368.414 2032.64 369.999 2020.56C372.441 1998.95 372.386 1977.12 369.835 1955.52C369.452 1952.74 368.25 1944.7 372.786 1939.84C373.972 1938.56 375.484 1937.64 377.159 1937.16C383.663 1935.25 389.894 1941.75 390.604 1942.52C391.754 1943.64 392.698 1944.95 393.392 1946.4C394.161 1948.03 394.464 1949.85 394.267 1951.64Z" fill="black"/>
</svg>
