<svg width="1545" height="3929" viewBox="0 0 1545 3929" fill="none" xmlns="http://www.w3.org/2000/svg">
<path d="M945.388 3703.11C937.683 3703.47 928.684 3714.22 925.737 3717.44C922.42 3720.43 919.789 3724.09 918.028 3728.19C914.816 3737.54 920.785 3743.87 926.306 3762.67C928.951 3770.26 930.596 3778.15 931.199 3786.16C931.628 3794.95 930.137 3796.55 931.761 3800.65C935.815 3810.89 952.152 3818.72 962.487 3814.15C973.613 3809.24 971.358 3792.74 981.439 3790.27C987.481 3788.78 990.436 3794.64 1000.13 3797.9C1015.83 3803.19 1036.59 3797.65 1038.38 3790.17C1040.49 3781.36 1014.5 3777.42 987.819 3749.78C964.328 3725.45 958.466 3702.51 945.388 3703.11Z" fill="black"/>
<path d="M945.388 3703.11C937.683 3703.47 928.684 3714.22 925.737 3717.44C922.42 3720.43 919.789 3724.09 918.028 3728.19C914.816 3737.54 920.785 3743.87 926.306 3762.67C928.951 3770.26 930.596 3778.15 931.199 3786.16C931.628 3794.95 930.137 3796.55 931.761 3800.65C935.815 3810.89 952.152 3818.72 962.487 3814.15C973.613 3809.24 971.358 3792.74 981.439 3790.27C987.481 3788.78 990.436 3794.64 1000.13 3797.9C1015.83 3803.19 1036.59 3797.65 1038.38 3790.17C1040.49 3781.36 1014.5 3777.42 987.819 3749.78C964.328 3725.45 958.466 3702.51 945.388 3703.11Z" fill="black"/>
<path d="M945.388 3703.11C937.683 3703.47 928.684 3714.22 925.737 3717.44C922.42 3720.43 919.789 3724.09 918.028 3728.19C914.816 3737.54 920.785 3743.87 926.306 3762.67C928.951 3770.26 930.596 3778.15 931.199 3786.16C931.628 3794.95 930.137 3796.55 931.761 3800.65C935.815 3810.89 952.152 3818.72 962.487 3814.15C973.613 3809.24 971.358 3792.74 981.439 3790.27C987.481 3788.78 990.436 3794.64 1000.13 3797.9C1015.83 3803.19 1036.59 3797.65 1038.38 3790.17C1040.49 3781.36 1014.5 3777.42 987.819 3749.78C964.328 3725.45 958.466 3702.51 945.388 3703.11Z" fill="black"/>
</svg>
