<svg width="1545" height="3929" viewBox="0 0 1545 3929" fill="none" xmlns="http://www.w3.org/2000/svg">
<path d="M398.123 3704.63C407.093 3704.25 415.86 3713.66 419.552 3722.31C426.53 3738.66 410.159 3748.14 410.839 3776.16C411.207 3791.3 415.918 3793.75 412.821 3803.28C407.721 3818.98 388.748 3831.41 377.446 3827.13C368.398 3823.7 372.86 3807.99 364.163 3804.08C353.978 3799.5 343.682 3817.9 329.453 3816.26C311.395 3814.18 292.927 3780.52 301.906 3763.65C311.279 3746.04 343.064 3762.58 368.577 3738.1C384.217 3723.1 385.999 3705.14 398.123 3704.63Z" fill="#FFEECC" stroke="#282724" stroke-width="0.1687" stroke-miterlimit="10"/>
<path opacity="0.1" d="M398.123 3704.63C407.093 3704.25 415.86 3713.66 419.552 3722.31C426.53 3738.66 410.159 3748.14 410.839 3776.16C411.207 3791.3 415.918 3793.75 412.821 3803.28C407.721 3818.98 388.748 3831.41 377.446 3827.13C368.398 3823.7 372.86 3807.99 364.163 3804.08C353.978 3799.5 343.682 3817.9 329.453 3816.26C311.395 3814.18 292.927 3780.52 301.906 3763.65C311.279 3746.04 343.064 3762.58 368.577 3738.1C384.217 3723.1 385.999 3705.14 398.123 3704.63Z" fill="#282724"/>
<path opacity="0.1" d="M398.123 3704.63C407.093 3704.25 415.86 3713.66 419.552 3722.31C426.53 3738.66 410.159 3748.14 410.839 3776.16C411.207 3791.3 415.918 3793.75 412.821 3803.28C407.721 3818.98 388.748 3831.41 377.446 3827.13C368.398 3823.7 372.86 3807.99 364.163 3804.08C353.978 3799.5 343.682 3817.9 329.453 3816.26C311.395 3814.18 292.927 3780.52 301.906 3763.65C311.279 3746.04 343.064 3762.58 368.577 3738.1C384.217 3723.1 385.999 3705.14 398.123 3704.63Z" fill="#282724"/>
</svg>
