<svg width="1545" height="3929" viewBox="0 0 1545 3929" fill="none" xmlns="http://www.w3.org/2000/svg">
<path d="M1134.59 1222.49C1109.83 1191.39 1070.84 1170.38 1051.76 1172.72C1041.21 1174.33 1030.43 1173.65 1020.17 1170.73C1019.21 1170.45 1018.35 1170.17 1017.55 1169.9C1008.95 1172.31 1008.46 1183.9 1008.16 1191.33C1007.96 1196.13 1007.7 1202.5 1010.32 1206.8C1013.26 1203.92 1015.09 1198.48 1020.23 1194.83C1034.58 1184.63 1056.29 1191.45 1065.81 1194.43C1087.51 1201.24 1101.16 1214.41 1114.23 1227.01C1123.45 1235.99 1131.79 1245.84 1139.12 1256.43C1157.95 1283.4 1163.08 1303.96 1164.46 1303.49C1166.39 1302.82 1164.35 1259.86 1134.59 1222.49Z" fill="black"/>
<path d="M926.846 1203.46C927.505 1199.35 927.686 1195.17 927.386 1191.01C927.043 1185.07 925.874 1174.91 919.989 1171.36C918.647 1171.42 917.356 1171.89 916.286 1172.71C914.643 1174.05 914.31 1175.93 911.668 1177.65C911.124 1178.11 910.488 1178.44 909.803 1178.62C905.273 1179.39 900.618 1178.85 896.386 1177.07C886.776 1172.72 814.254 1189.9 774.831 1258.23C759.042 1285.6 753.495 1312.62 756.277 1313.89C759.762 1315.48 771.673 1274.56 811.486 1241.04C811.486 1241.04 835.836 1220.54 887.963 1204.84C892.523 1203.27 897.382 1202.78 902.164 1203.39C913.565 1204.95 916.666 1212.26 923.056 1212.78C925.045 1210.02 926.344 1206.83 926.846 1203.46Z" fill="black"/>
<path d="M1231.3 1308.17C1226.82 1330.96 1215.77 1354.08 1213.92 1353.37C1212.22 1352.77 1218.51 1333.04 1220.75 1316.64C1221.84 1308.55 1222.11 1300.36 1221.57 1292.21C1217.8 1231.66 1172.21 1172.9 1133.84 1141.75C1133.79 1141.69 1132.04 1140.27 1128.76 1138.03C1126.46 1136.39 1123.4 1134.37 1119.74 1132.13C1119.08 1131.69 1118.37 1131.26 1117.61 1130.82C1116.84 1130.33 1116.02 1129.83 1115.2 1129.4C1106.34 1124.28 1097.05 1119.93 1087.44 1116.39C1086.23 1115.95 1084.98 1115.52 1083.77 1115.13C1081.1 1114.2 1078.36 1113.38 1075.52 1112.56C1073.44 1112.02 1071.37 1111.47 1069.24 1110.98C1063.53 1109.68 1057.74 1108.79 1051.91 1108.3C1045.41 1107.75 1035.35 1106.88 1028.68 1113.66C1023.71 1118.74 1023.71 1125.03 1018.9 1126.28C1014.52 1127.43 1008.89 1122.84 1006.82 1118.03C1005.84 1115.26 1005.6 1112.29 1006.11 1109.39C1006.41 1104.03 1008.29 1098.88 1011.52 1094.58C1013.69 1092.22 1016.35 1090.35 1019.31 1089.1C1022.27 1087.86 1025.47 1087.27 1028.68 1087.37C1055.01 1086.39 1081.19 1091.73 1105.04 1102.94C1139.42 1121.14 1181.94 1143.61 1209.93 1197.71C1218.18 1213.62 1241.14 1258 1231.3 1308.17Z" fill="black"/>
<path d="M934.613 1127.21C934.435 1127.58 934.215 1127.93 933.958 1128.25C933.037 1129.66 931.717 1130.75 930.167 1131.39C928.617 1132.04 926.91 1132.2 925.267 1131.86C921.495 1130.44 922.698 1124.48 919.418 1120.16C914.007 1113 900.78 1114.59 895.26 1115.03C890.832 1115.35 886.46 1115.96 882.196 1116.67C879.627 1117.1 877.058 1117.65 874.599 1118.2C873.014 1118.52 871.429 1118.91 869.789 1119.34C867.548 1119.94 865.307 1120.55 863.121 1121.2C844.254 1126.95 826.388 1135.58 810.157 1146.78C810.075 1146.82 810.001 1146.88 809.939 1146.94C809.897 1146.95 809.859 1146.97 809.829 1147C804.965 1150.66 799.936 1154.71 794.908 1159.08C763.37 1186.73 731.012 1228.11 721.174 1272.1V1272.16C717.893 1285.98 717.244 1300.29 719.261 1314.35C721.611 1329.98 728.115 1348.89 726.366 1349.44C724.453 1350.09 712.921 1328.01 708.22 1306.21C697.999 1258.22 721.884 1215.81 730.466 1200.61C759.708 1148.8 804.035 1127.32 839.891 1109.94C839.891 1109.94 876.949 1091.96 919.418 1095.02C927.726 1095.62 935.652 1097.21 937.347 1101.91C938.385 1104.81 936.035 1106.23 935.16 1113.5C934.231 1120.98 936.144 1124.04 934.613 1127.21Z" fill="black"/>
<path d="M926.846 1203.46C927.505 1199.35 927.686 1195.17 927.386 1191.01C927.043 1185.07 925.874 1174.91 919.989 1171.36C918.647 1171.42 917.356 1171.89 916.286 1172.71C914.643 1174.05 914.31 1175.93 911.668 1177.65C911.124 1178.11 910.488 1178.44 909.803 1178.62C905.273 1179.39 900.618 1178.85 896.386 1177.07C886.776 1172.72 814.254 1189.9 774.831 1258.23C759.042 1285.6 753.495 1312.62 756.277 1313.89C759.762 1315.48 771.673 1274.56 811.486 1241.04C811.486 1241.04 835.836 1220.54 887.963 1204.84C892.523 1203.27 897.382 1202.78 902.164 1203.39C913.565 1204.95 916.666 1212.26 923.056 1212.78C925.045 1210.02 926.344 1206.83 926.846 1203.46Z" fill="black"/>
<path d="M1134.59 1222.49C1109.83 1191.39 1070.84 1170.38 1051.76 1172.72C1041.21 1174.33 1030.43 1173.65 1020.17 1170.73C1019.21 1170.45 1018.35 1170.17 1017.55 1169.9C1008.95 1172.31 1008.46 1183.9 1008.16 1191.33C1007.96 1196.13 1007.7 1202.5 1010.32 1206.8C1013.26 1203.92 1015.09 1198.48 1020.23 1194.83C1034.58 1184.63 1056.29 1191.45 1065.81 1194.43C1087.51 1201.24 1101.16 1214.41 1114.23 1227.01C1123.45 1235.99 1131.79 1245.84 1139.12 1256.43C1157.95 1283.4 1163.08 1303.96 1164.46 1303.49C1166.39 1302.82 1164.35 1259.86 1134.59 1222.49Z" fill="black"/>
<path d="M1220.75 1316.64C1219.98 1322.24 1218.75 1328.21 1217.52 1333.68C1218.34 1330.76 1219.2 1327.87 1219.97 1324.92C1226.17 1301.28 1227.78 1278.4 1230.93 1254.88C1226.76 1234.9 1219.68 1215.64 1209.93 1197.72C1181.94 1143.61 1139.42 1121.15 1105.04 1102.95C1081.19 1091.73 1055.01 1086.39 1028.68 1087.37C1025.47 1087.27 1022.27 1087.86 1019.31 1089.11C1016.35 1090.35 1013.69 1092.22 1011.52 1094.58C1008.29 1098.88 1006.41 1104.03 1006.11 1109.4C1005.6 1112.29 1005.84 1115.26 1006.82 1118.03C1008.89 1122.84 1014.52 1127.43 1018.9 1126.28C1023.71 1125.03 1023.71 1118.74 1028.68 1113.66C1035.35 1106.88 1045.41 1107.76 1051.91 1108.3C1057.74 1108.79 1063.53 1109.69 1069.24 1110.98C1071.37 1111.47 1073.44 1112.02 1075.52 1112.57C1078.36 1113.39 1081.1 1114.21 1083.77 1115.14C1084.98 1115.52 1086.23 1115.95 1087.44 1116.39C1097.05 1119.93 1106.34 1124.28 1115.2 1129.4C1116.02 1129.84 1116.84 1130.33 1117.61 1130.82C1118.37 1131.26 1119.08 1131.7 1119.74 1132.13C1123.4 1134.37 1126.46 1136.4 1128.76 1138.04C1132.04 1140.28 1133.79 1141.7 1133.84 1141.75C1172.21 1172.9 1217.8 1231.66 1221.57 1292.22C1222.11 1300.37 1221.84 1308.55 1220.75 1316.64Z" fill="black"/>
<path d="M926.665 1204.34C925.253 1206 923.746 1207.01 922.474 1206.83C918.328 1206.24 920.253 1193.89 912.57 1188.36C908.223 1185.23 902.363 1185.41 895.438 1187.02C818.344 1204.97 781.039 1267.96 781.039 1267.96C776.353 1275.88 772.276 1284.14 768.844 1292.67C780.081 1273.21 794.493 1255.75 811.486 1241.04C811.634 1240.92 835.994 1220.49 887.961 1204.84C892.521 1203.28 897.379 1202.78 902.161 1203.4C913.563 1204.96 916.663 1212.26 923.053 1212.79C924.884 1210.28 926.12 1207.39 926.665 1204.34Z" fill="black"/>
<path d="M1122.83 1227.34C1106.88 1206.67 1084.79 1191.57 1059.73 1184.22C1055.06 1182.74 1022.89 1172.56 1015.03 1183.69C1012.11 1187.82 1012.86 1194.42 1008.8 1195.75C1008.56 1195.79 1008.31 1195.8 1008.06 1195.8C1007.83 1199.6 1008.61 1203.4 1010.32 1206.8C1013.26 1203.92 1015.09 1198.48 1020.23 1194.83C1034.58 1184.63 1056.29 1191.45 1065.81 1194.43C1087.71 1201.31 1101.51 1214.68 1114.23 1227.01C1123.47 1235.98 1131.81 1245.83 1139.12 1256.43C1135.05 1246.03 1129.57 1236.24 1122.83 1227.34Z" fill="black"/>
<path d="M1221.62 1292.38C1221.62 1292.32 1221.57 1292.27 1221.57 1292.21C1217.8 1231.66 1172.21 1172.9 1133.84 1141.75C1133.79 1141.7 1132.04 1140.28 1128.76 1138.03C1126.46 1136.39 1123.4 1134.37 1119.74 1132.13C1119.08 1131.69 1118.37 1131.26 1117.61 1130.82C1116.84 1130.33 1116.02 1129.89 1115.2 1129.4C1106.34 1124.28 1097.05 1119.93 1087.44 1116.39C1086.23 1115.95 1085.03 1115.52 1083.78 1115.13C1081.1 1114.2 1078.36 1113.38 1075.52 1112.57C1073.44 1112.02 1071.37 1111.47 1069.24 1110.98C1063.53 1109.69 1057.74 1108.79 1051.91 1108.3C1045.41 1107.76 1035.35 1106.88 1028.68 1113.66C1023.71 1118.74 1023.71 1125.03 1018.9 1126.28C1014.52 1127.43 1008.89 1122.84 1006.82 1118.03C1005.45 1114.7 1004.63 1110.27 1006.11 1109.4C1007.91 1108.41 1010.81 1113.99 1015.62 1114.75C1022.56 1115.79 1028.57 1106.06 1032.34 1102.18C1050 1084.25 1103.62 1108.79 1109.96 1111.75C1156.36 1133.44 1181.94 1170.28 1191.78 1186.4C1211.06 1218.41 1221.37 1255.01 1221.62 1292.38Z" fill="black"/>
<path d="M935.16 1113.49C936.034 1106.22 938.385 1104.8 937.347 1101.91C935.652 1097.21 927.726 1095.62 919.418 1095.02C876.949 1091.96 839.891 1109.94 839.891 1109.94C804.034 1127.32 759.708 1148.8 730.466 1200.61C723.949 1212.15 708.642 1239.4 706.112 1272.85C706.954 1278.22 707.841 1283.59 708.881 1288.94C711.79 1303.6 716.468 1317.86 722.813 1331.4C721.476 1325.95 720.102 1319.95 719.261 1314.35C717.244 1300.29 717.893 1285.98 721.174 1272.16V1272.1C731.012 1228.1 763.37 1186.73 794.908 1159.08C799.936 1154.7 804.965 1150.66 809.829 1147C809.859 1146.97 809.897 1146.95 809.939 1146.94C810.001 1146.88 810.075 1146.82 810.157 1146.78C826.388 1135.57 844.254 1126.95 863.121 1121.2C865.307 1120.54 867.548 1119.94 869.789 1119.34C871.429 1118.9 873.014 1118.52 874.599 1118.19C877.059 1117.65 879.628 1117.1 882.196 1116.66C886.46 1115.95 890.833 1115.35 895.26 1115.02C900.78 1114.59 914.007 1113 919.418 1120.16C922.698 1124.48 921.495 1130.44 925.267 1131.86C926.91 1132.2 928.617 1132.03 930.167 1131.39C931.717 1130.75 933.037 1129.65 933.958 1128.25C934.215 1127.93 934.435 1127.58 934.613 1127.21C936.144 1124.04 934.231 1120.98 935.16 1113.49Z" fill="black"/>
<path d="M934.613 1127.21C934.435 1127.58 934.215 1127.93 933.958 1128.25C933.037 1129.66 931.717 1130.75 930.167 1131.39C928.617 1132.04 926.91 1132.2 925.267 1131.86C921.495 1130.44 922.698 1124.48 919.418 1120.16C914.007 1113 900.78 1114.59 895.26 1115.03C890.832 1115.35 886.46 1115.96 882.196 1116.67C879.627 1117.1 877.058 1117.65 874.599 1118.2C873.014 1118.52 871.429 1118.91 869.789 1119.34C867.548 1119.94 865.307 1120.55 863.121 1121.2C844.254 1126.95 826.388 1135.58 810.157 1146.78C810.075 1146.82 810.001 1146.88 809.939 1146.94C809.897 1146.95 809.859 1146.97 809.829 1147C804.476 1150.53 799.478 1154.58 794.908 1159.08C763.37 1186.73 731.012 1228.11 721.174 1272.1C724.113 1250.62 730.732 1229.8 740.742 1210.56C787.037 1122.29 897.227 1087.1 917.505 1106.99C921.331 1110.71 928.164 1122.46 932.154 1120.93C934.832 1119.94 934.34 1113.5 935.16 1113.5C935.98 1113.55 938.112 1121.2 934.613 1127.21Z" fill="black"/>
<path d="M929.431 1051.61C927.8 1055.78 922.108 1057.19 921.222 1057.41C911.282 1059.88 900.87 1049.74 897.731 1047.23C875.938 1029.87 813.134 1056.2 773.231 1084.03C752.681 1098.37 707.176 1131.06 688.665 1190.52C674.781 1235.11 684.891 1266.47 687.128 1272.96C689.537 1279.96 700.399 1311.48 720.348 1314.22C732.018 1315.82 742.198 1306.95 743.387 1308.86C744.614 1310.83 735.218 1322.61 723.295 1324.13C707.837 1326.1 694.424 1310.03 689.397 1304.01C664.519 1274.2 658.308 1201.78 688.181 1141.38C747.594 1021.23 921.063 1006.56 927.636 1018.05C930.088 1022.52 931.155 1027.61 930.702 1032.68C930.439 1034.66 929.999 1035.63 929.835 1037.09C929.776 1037.66 929.758 1038.24 929.782 1038.82C929.871 1046.13 930.368 1049.21 929.431 1051.61Z" fill="black"/>
<path d="M930.702 1032.68C931.155 1027.61 930.088 1022.52 927.636 1018.05C921.063 1006.56 747.594 1021.23 688.181 1141.38C658.308 1201.78 664.519 1274.2 689.397 1304.01C694.424 1310.03 707.837 1326.1 723.295 1324.13C735.218 1322.61 744.614 1310.83 743.387 1308.86C743.038 1308.3 741.844 1308.71 740.137 1309.47C723.326 1321.93 702.725 1315.68 688.794 1296.44C672.3 1273.66 671.04 1246.77 671.118 1219.58C670.954 1215.02 672.356 1210.54 675.092 1206.88C677.828 1203.23 681.733 1200.62 686.157 1199.49C686.895 1196.56 687.712 1193.58 688.665 1190.52C707.176 1131.06 752.682 1098.37 773.231 1084.03C813.134 1056.2 875.937 1029.87 897.731 1047.23C900.87 1049.73 911.282 1059.88 921.222 1057.41C922.107 1057.19 927.8 1055.78 929.43 1051.61C930.37 1049.21 929.872 1046.13 929.782 1038.82C929.758 1038.24 929.776 1037.66 929.835 1037.09C929.999 1035.63 930.439 1034.66 930.702 1032.68Z" fill="black"/>
<path d="M1006.44 1047.51C1007.8 1052.03 1013.98 1054.65 1018.25 1055.17C1029.14 1056.51 1038.22 1047.1 1041.29 1044.48C1062.67 1026.24 1124.27 1053.9 1163.41 1083.13C1183.57 1098.19 1228.21 1132.53 1246.36 1194.98C1259.98 1241.82 1250.06 1274.76 1247.87 1281.58C1244.47 1292.14 1235.47 1319.54 1215.29 1324.91C1199.49 1329.11 1184.37 1317.8 1183.32 1319.95C1182.29 1322.08 1196.12 1335.65 1212.39 1335.32C1229.13 1334.98 1240.98 1320.17 1245.64 1314.18C1269.08 1284.11 1279.07 1209.21 1246.84 1143.36C1186.99 1021.11 1016.46 1000.13 1009.29 1012.48C1006.75 1017.56 1005.7 1023.26 1006.28 1028.91C1006.76 1031.24 1007.09 1033.61 1007.26 1035.98C1007.48 1042.62 1005.5 1044.43 1006.44 1047.51Z" fill="black"/>
<path d="M1225.19 1326.31C1216.45 1330.13 1206.86 1331.57 1197.38 1330.49C1195.89 1330.26 1194.41 1329.95 1192.95 1329.56C1198.75 1333.28 1205.5 1335.27 1212.39 1335.32C1229.13 1334.98 1240.98 1320.16 1245.64 1314.18C1256.66 1300.05 1264.63 1275.95 1266.71 1247.6C1264.53 1258.75 1261.32 1269.67 1257.11 1280.21C1248.91 1300.76 1241.69 1318.84 1225.19 1326.31Z" fill="black"/>
<path d="M930.702 1032.68C931.155 1027.61 930.088 1022.52 927.636 1018.05C921.063 1006.56 747.594 1021.23 688.181 1141.38C677.532 1163.19 671.009 1186.78 668.942 1210.97C672.421 1221.85 676.616 1234.37 681.925 1246.81C680.529 1227.79 682.818 1208.67 688.665 1190.52C707.176 1131.06 752.681 1098.37 773.231 1084.03C813.134 1056.2 875.938 1029.87 897.731 1047.23C900.869 1049.74 911.282 1059.88 921.222 1057.41C922.108 1057.19 927.8 1055.78 929.431 1051.61C930.37 1049.21 929.872 1046.13 929.782 1038.82C929.758 1038.24 929.775 1037.66 929.834 1037.09C929.999 1035.63 930.439 1034.66 930.702 1032.68Z" fill="black"/>
<path d="M1246.36 1194.98C1252.34 1214.85 1254.52 1235.68 1252.77 1256.36C1256.79 1247.58 1260.32 1238.58 1263.33 1229.4C1264.14 1226.92 1265.38 1224.59 1266.98 1222.52C1265.66 1195.05 1258.81 1168.12 1246.84 1143.36C1186.99 1021.11 1016.46 1000.13 1009.3 1012.49C1006.75 1017.56 1005.7 1023.26 1006.28 1028.91C1006.76 1031.24 1007.09 1033.61 1007.26 1035.99C1007.48 1042.62 1005.5 1044.43 1006.44 1047.51C1007.8 1052.03 1013.98 1054.65 1018.25 1055.17C1029.14 1056.51 1038.22 1047.1 1041.29 1044.48C1062.67 1026.24 1124.27 1053.9 1163.41 1083.13C1183.57 1098.19 1228.21 1132.53 1246.36 1194.98Z" fill="black"/>
<path d="M930.702 1032.68C931.155 1027.61 930.088 1022.52 927.636 1018.05C921.063 1006.56 747.594 1021.23 688.181 1141.38C677.532 1163.19 671.009 1186.78 668.942 1210.97C672.421 1221.85 676.616 1234.37 681.925 1246.81C680.529 1227.79 682.818 1208.67 688.665 1190.52C707.176 1131.06 752.681 1098.37 773.231 1084.03C813.134 1056.2 875.938 1029.87 897.731 1047.23C900.869 1049.74 911.282 1059.88 921.222 1057.41C922.108 1057.19 927.8 1055.78 929.431 1051.61C930.37 1049.21 929.872 1046.13 929.782 1038.82C929.758 1038.24 929.775 1037.66 929.834 1037.09C929.999 1035.63 930.439 1034.66 930.702 1032.68Z" fill="black"/>
<path d="M1246.36 1194.98C1252.34 1214.85 1254.52 1235.68 1252.77 1256.36C1256.79 1247.58 1260.32 1238.58 1263.33 1229.4C1264.14 1226.92 1265.38 1224.59 1266.98 1222.52C1265.66 1195.05 1258.81 1168.12 1246.84 1143.36C1186.99 1021.11 1016.46 1000.13 1009.3 1012.49C1006.75 1017.56 1005.7 1023.26 1006.28 1028.91C1006.76 1031.24 1007.09 1033.61 1007.26 1035.99C1007.48 1042.62 1005.5 1044.43 1006.44 1047.51C1007.8 1052.03 1013.98 1054.65 1018.25 1055.17C1029.14 1056.51 1038.22 1047.1 1041.29 1044.48C1062.67 1026.24 1124.27 1053.9 1163.41 1083.13C1183.57 1098.19 1228.21 1132.53 1246.36 1194.98Z" fill="black"/>
<path d="M916.705 1027.93C913.086 1019.63 748.927 1035.86 690.393 1148.28C679.525 1169.42 672.807 1192.44 670.602 1216.1C671.882 1220.09 673.264 1224.15 674.748 1228.31C677.068 1234.78 679.477 1240.95 681.926 1246.81C680.529 1227.79 682.818 1208.67 688.665 1190.52C707.176 1131.06 752.682 1098.37 773.231 1084.03C813.134 1056.2 875.937 1029.87 897.731 1047.23C900.87 1049.73 911.282 1059.88 921.222 1057.41C925.62 1056.32 929.811 1053.24 929.43 1051.61C929.035 1049.91 924.046 1051.26 919.217 1047.74C916.626 1045.8 914.759 1043.05 913.913 1039.93C912.496 1033.66 917.421 1029.57 916.705 1027.93Z" fill="black"/>
<path d="M1246.36 1194.98C1252.34 1214.85 1254.52 1235.68 1252.77 1256.36C1256.79 1247.58 1260.32 1238.58 1263.33 1229.4C1264.14 1226.92 1265.38 1224.59 1266.98 1222.52C1264.75 1196.74 1257.61 1171.62 1245.95 1148.51C1190.66 1040.26 1045.51 1009.66 1025.84 1033.46C1023.57 1036.2 1018.46 1045.13 1013.86 1044.12C1008.48 1042.94 1006.73 1028.79 1006.28 1028.91C1006.06 1028.97 1007.13 1032.01 1007.26 1035.99C1007.48 1042.62 1005.5 1044.43 1006.44 1047.51C1007.8 1052.03 1013.98 1054.65 1018.25 1055.17C1029.14 1056.51 1038.22 1047.1 1041.29 1044.48C1062.67 1026.24 1124.27 1053.9 1163.41 1083.13C1183.57 1098.19 1228.21 1132.53 1246.36 1194.98Z" fill="black"/>
<path d="M934.822 957.131C938.131 964.363 933.863 977.908 926.757 980.384C924.965 980.76 923.115 980.755 921.326 980.37C919.537 979.985 917.848 979.229 916.37 978.15C901.7 969.241 839.618 976.58 778.85 1014.48C736.645 1040.8 684.296 1073.45 673.022 1134.46C666.24 1171.15 674.726 1215.9 695.966 1250.56C698.521 1254.73 700.85 1258.08 702.529 1260.4C700.727 1263.49 699.558 1266.9 699.092 1270.45C698.625 1273.99 698.87 1277.6 699.812 1281.04C689.675 1271.02 680.98 1259.64 673.975 1247.22C664.698 1230.09 658.455 1211.47 655.525 1192.2C652.822 1175.65 644.104 1122.25 673.134 1070.04C689.559 1040.51 710.305 1025.31 738.621 1004.56C757.092 991.03 804.54 959.218 870.145 950.084C885.095 948.004 927.919 942.042 934.822 957.131Z" fill="black"/>
<path d="M698.995 1271.26C699.315 1268.1 700.194 1265.02 701.589 1262.17C684.616 1248.31 674.389 1226.53 667.407 1206.25C660.698 1186.76 654.224 1166.89 652.368 1146.49C651.831 1161.79 652.889 1177.12 655.523 1192.2C658.454 1211.47 664.696 1230.09 673.974 1247.22C680.979 1259.64 689.674 1271.02 699.81 1281.04C698.943 1277.86 698.667 1274.55 698.995 1271.26Z" fill="black"/>
<path d="M934.822 957.131C927.919 942.042 885.095 948.004 870.143 950.085C804.539 959.219 757.091 991.03 738.62 1004.56C710.303 1025.31 689.558 1040.51 673.133 1070.05C665.621 1083.64 660.094 1098.23 656.723 1113.39C657.491 1116.1 657.702 1118.93 657.342 1121.72C653.18 1156.58 659.981 1182.04 678.165 1210.16C670.618 1185.66 668.857 1159.75 673.02 1134.46C684.294 1073.45 736.645 1040.8 778.849 1014.48C839.617 976.58 901.699 969.24 916.369 978.149C917.847 979.228 919.535 979.985 921.324 980.37C923.114 980.755 924.964 980.759 926.755 980.384C933.863 977.908 938.131 964.363 934.822 957.131Z" fill="black"/>
<path d="M995.672 963.241C992.364 970.473 996.631 984.017 1003.74 986.494C1005.53 986.87 1007.38 986.865 1009.17 986.48C1010.96 986.095 1012.65 985.338 1014.12 984.259C1028.79 975.35 1090.88 982.69 1151.64 1020.59C1190.12 1044.58 1242.89 1077.5 1257.47 1140.57C1259.44 1149.09 1272.9 1211.36 1238.04 1258.73C1235.34 1262.39 1232.43 1265.88 1229.31 1269.17C1231.85 1270.78 1233.87 1273.11 1235.11 1275.85C1236.01 1278.14 1236.39 1280.59 1236.24 1283.05C1236.08 1285.5 1235.39 1287.89 1234.2 1290.04C1242.78 1278.54 1250.26 1266.25 1256.52 1253.33C1265.28 1235.98 1271.49 1217.45 1274.97 1198.31C1277.67 1181.76 1286.39 1128.36 1257.36 1076.15C1240.93 1046.62 1220.19 1031.42 1191.87 1010.67C1173.4 997.14 1125.95 965.328 1060.35 956.194C1045.4 954.113 1002.58 948.152 995.672 963.241Z" fill="black"/>
<path d="M1233.68 1273.33C1234.24 1274.12 1234.72 1274.97 1235.11 1275.85C1236.01 1278.14 1236.4 1280.59 1236.24 1283.05C1236.08 1285.5 1235.39 1287.89 1234.21 1290.04C1242.79 1278.54 1250.26 1266.25 1256.52 1253.33C1265.28 1235.98 1271.5 1217.44 1274.97 1198.31C1277.63 1183.13 1278.68 1167.72 1278.12 1152.32C1275.22 1193.28 1262.39 1244.76 1233.68 1273.33Z" fill="black"/>
<path d="M934.822 957.131C927.919 942.042 885.095 948.004 870.143 950.085C804.539 959.219 757.091 991.03 738.62 1004.56C710.303 1025.31 689.558 1040.51 673.133 1070.05C663.226 1088.01 656.74 1107.67 654.004 1128C661.547 1145.71 666.044 1166.79 671.916 1187.19C672.342 1187.82 672.809 1188.41 673.248 1189.04C670 1170.99 669.922 1152.53 673.018 1134.46C684.294 1073.45 736.645 1040.8 778.849 1014.48C839.617 976.58 901.699 969.24 916.369 978.149C917.847 979.228 919.535 979.985 921.324 980.37C923.114 980.755 924.964 980.759 926.755 980.384C933.863 977.908 938.131 964.363 934.822 957.131Z" fill="black"/>
<path d="M1257.47 1140.57C1259.85 1151.23 1261.21 1162.09 1261.55 1173.01C1265.82 1163.23 1268.81 1152.94 1270.43 1142.4C1270.96 1137.84 1272.84 1133.54 1275.84 1130.06C1272.86 1111.15 1266.61 1092.91 1257.36 1076.15C1240.94 1046.62 1220.19 1031.42 1191.88 1010.67C1173.4 997.14 1125.96 965.327 1060.35 956.194C1045.4 954.112 1002.58 948.151 995.672 963.241C992.364 970.473 996.631 984.016 1003.74 986.493C1005.53 986.869 1007.38 986.864 1009.17 986.479C1010.96 986.094 1012.65 985.337 1014.12 984.258C1028.8 975.349 1090.88 982.689 1151.64 1020.59C1190.12 1044.58 1242.9 1077.5 1257.47 1140.57Z" fill="black"/>
<path d="M934.822 957.131C927.919 942.042 885.095 948.004 870.143 950.085C804.539 959.219 757.091 991.03 738.62 1004.56C710.303 1025.31 689.558 1040.51 673.133 1070.05C663.226 1088.01 656.74 1107.67 654.004 1128C661.547 1145.71 666.044 1166.79 671.916 1187.19C672.342 1187.82 672.809 1188.41 673.248 1189.04C670 1170.99 669.922 1152.53 673.018 1134.46C684.294 1073.45 736.645 1040.8 778.849 1014.48C839.617 976.58 901.699 969.24 916.369 978.149C917.847 979.228 919.535 979.985 921.324 980.37C923.114 980.755 924.964 980.759 926.755 980.384C933.863 977.908 938.131 964.363 934.822 957.131Z" fill="black"/>
<path d="M1257.47 1140.57C1259.85 1151.23 1261.21 1162.09 1261.55 1173.01C1265.82 1163.23 1268.81 1152.94 1270.43 1142.4C1270.96 1137.84 1272.84 1133.54 1275.84 1130.06C1272.86 1111.15 1266.61 1092.91 1257.36 1076.15C1240.94 1046.62 1220.19 1031.42 1191.88 1010.67C1173.4 997.14 1125.96 965.327 1060.35 956.194C1045.4 954.112 1002.58 948.151 995.672 963.241C992.364 970.473 996.631 984.016 1003.74 986.493C1005.53 986.869 1007.38 986.864 1009.17 986.479C1010.96 986.094 1012.65 985.337 1014.12 984.258C1028.8 975.349 1090.88 982.689 1151.64 1020.59C1190.12 1044.58 1242.9 1077.5 1257.47 1140.57Z" fill="black"/>
<path d="M926.458 971.395C922.155 971.086 919.399 965.306 918.858 964.356C912.365 952.959 832.729 949.287 748.661 1004.27C699.77 1036.25 680.137 1067.95 675.924 1074.97C666.049 1091.47 658.662 1109.34 654.004 1128C661.547 1145.71 666.044 1166.79 671.916 1187.18C672.342 1187.82 672.809 1188.41 673.248 1189.03C670 1170.99 669.922 1152.52 673.018 1134.46C684.294 1073.45 736.645 1040.8 778.849 1014.48C839.617 976.58 901.699 969.24 916.369 978.149C917.293 978.711 922.242 982.005 926.755 980.384C932.443 978.341 934.879 969.409 933.532 968.428C932.551 967.712 930.153 971.66 926.458 971.395Z" fill="black"/>
<path d="M1257.47 1140.57C1259.85 1151.23 1261.21 1162.09 1261.55 1173.01C1265.82 1163.23 1268.81 1152.94 1270.43 1142.4C1270.96 1137.84 1272.84 1133.54 1275.84 1130.06C1271.6 1113.79 1265.19 1098.17 1256.78 1083.61C1249.41 1070.88 1231.67 1043.78 1184.39 1012.39C1107.24 961.166 1023.72 946.507 1011.37 965.085C1009.45 967.984 1005.61 977.183 1001.1 976.738C997.283 976.361 995.518 969.301 994.926 969.545C994.108 969.884 996.122 983.922 1003.74 986.494C1005.53 986.863 1007.38 986.855 1009.17 986.47C1010.96 986.085 1012.64 985.332 1014.13 984.259C1028.8 975.35 1090.88 982.69 1151.65 1020.59C1190.12 1044.58 1242.9 1077.5 1257.47 1140.57Z" fill="black"/>
<path d="M931.693 929.396C928.401 930.232 924.766 925.926 923.694 924.79C911.666 912.049 859.267 913.855 799.771 940.648C764.313 956.616 730.584 971.806 702.484 1009.31C688.755 1027.63 657.361 1069.53 666.833 1123.61C673.982 1164.43 700.563 1190.19 711.238 1199.5C711.528 1203.73 710.247 1207.92 707.64 1211.27C705.778 1213.83 704.009 1218.86 704.66 1229.75C689.573 1214.1 677.216 1196.04 668.103 1176.31C652.21 1142.79 646.688 1105.29 652.244 1068.62C661.213 1012.89 694.309 978.423 708.305 964.25C755.053 916.914 809.248 907.089 845.874 900.449C855.893 898.633 927.907 886.099 936.972 907.089C940.091 914.309 936.873 928.08 931.693 929.396Z" fill="black"/>
<path d="M709.709 1207.85C708.98 1207.41 708.275 1206.93 707.597 1206.42C671.026 1175.92 650.305 1126.98 650.897 1079.09C647.85 1112.45 653.791 1146.02 668.103 1176.31C677.216 1196.04 689.573 1214.1 704.66 1229.75C704.009 1218.86 705.778 1213.84 707.64 1211.27C708.451 1210.21 709.144 1209.06 709.709 1207.85Z" fill="black"/>
<path d="M936.972 907.089C927.906 886.101 855.893 898.635 845.874 900.449C809.248 907.089 755.053 916.912 708.304 964.249C690.316 981.786 675.708 1002.48 665.21 1025.3C669.063 1022.78 673.567 1021.43 678.175 1021.41C682.783 1021.39 687.297 1022.71 691.168 1025.21C695.386 1018.82 699.39 1013.44 702.484 1009.31C730.583 971.804 764.313 956.615 799.771 940.647C859.267 913.854 911.666 912.047 923.694 924.788C924.766 925.924 928.401 930.23 931.693 929.394C936.873 928.08 940.091 914.31 936.972 907.089Z" fill="black"/>
<path d="M936.972 907.089C927.906 886.101 855.893 898.635 845.874 900.449C809.248 907.089 755.053 916.912 708.304 964.249C686.3 985.505 669.517 1011.57 659.27 1040.39C659.746 1045.58 659.531 1050.81 658.631 1055.94C657.391 1084.3 656.121 1110.83 669.637 1135.6C668.494 1131.66 667.557 1127.65 666.832 1123.61C657.361 1069.53 688.755 1027.63 702.484 1009.31C730.583 971.804 764.313 956.615 799.771 940.647C859.267 913.854 911.666 912.047 923.694 924.788C924.766 925.924 928.401 930.23 931.693 929.394C936.873 928.08 940.091 914.31 936.972 907.089Z" fill="black"/>
<path d="M1001.37 931.4C1004.66 932.235 1008.3 927.929 1009.37 926.794C1021.4 914.053 1073.79 915.859 1133.29 942.652C1169.49 958.955 1202.82 973.965 1230.58 1011.31C1242.47 1027.31 1273.47 1069.03 1266.23 1125.61C1260.57 1169.78 1234.73 1198.72 1224.31 1209.23C1226.39 1211.11 1228.1 1213.35 1229.38 1215.84C1230.92 1219.3 1231.82 1223 1232.03 1226.78C1232.4 1229.56 1233.05 1234.38 1234.01 1241.2C1247.07 1224.21 1257.76 1205.51 1265.77 1185.63C1273.87 1165.47 1290.17 1123.37 1280.82 1070.62C1270.76 1013.92 1237.07 978.721 1224.76 966.254C1178.01 918.918 1123.81 909.093 1087.19 902.453C1077.17 900.637 1005.16 888.103 996.09 909.093C992.971 916.313 996.189 930.084 1001.37 931.4Z" fill="black"/>
<path d="M1281.12 1072.6C1283.5 1095.49 1280.99 1118.62 1273.75 1140.47C1265.29 1166.41 1252.35 1198.75 1227.93 1213.41C1228.47 1214.19 1228.95 1215 1229.38 1215.84C1230.92 1219.3 1231.82 1223 1232.03 1226.78C1232.4 1229.56 1233.06 1234.38 1234.01 1241.2C1247.07 1224.21 1257.76 1205.51 1265.77 1185.63C1273.77 1165.72 1289.72 1124.41 1281.12 1072.6Z" fill="black"/>
<path d="M1230.58 1011.31C1242.47 1027.31 1273.47 1069.03 1266.23 1125.61C1264.93 1135.71 1262.5 1145.63 1258.98 1155.18C1269.99 1137.74 1276.21 1117.71 1277 1097.1C1277.1 1081.81 1274.67 1066.6 1269.8 1052.1C1266.55 1041.27 1262.26 1030.78 1257 1020.77C1254.5 1017.6 1253.11 1013.69 1253.04 1009.65C1253.03 1007.36 1253.47 1005.1 1254.33 1002.98C1245.84 989.693 1235.92 977.379 1224.76 966.254C1178.01 918.918 1123.81 909.093 1087.19 902.453C1077.17 900.637 1005.16 888.105 996.09 909.093C992.971 916.316 996.188 930.085 1001.37 931.4C1004.66 932.236 1008.3 927.931 1009.37 926.795C1021.4 914.054 1073.8 915.86 1133.29 942.653C1169.49 958.954 1202.82 973.965 1230.58 1011.31Z" fill="black"/>
<path d="M936.972 907.089C927.906 886.101 855.893 898.635 845.874 900.449C809.248 907.089 755.053 916.912 708.304 964.249C696.685 976.015 671.942 1001.82 658.728 1042.11C658.88 1043.3 659.03 1044.46 659.18 1045.64C662.638 1056.36 665.536 1067.25 667.861 1078.27C674.754 1046.39 692.901 1022.09 702.483 1009.31C730.582 971.803 764.312 956.614 799.77 940.646C859.266 913.853 911.666 912.046 923.694 924.787C924.765 925.923 928.401 930.229 931.692 929.393C936.873 928.08 940.091 914.31 936.972 907.089Z" fill="black"/>
<path d="M1230.58 1011.31C1239.33 1023.08 1258.38 1048.82 1264.97 1084.12C1268.15 1069.64 1269.98 1054.89 1270.43 1040.07C1270.47 1038.63 1270.64 1037.18 1270.94 1035.76C1260.48 1009.67 1244.76 986.01 1224.76 966.254C1178.01 918.918 1123.81 909.093 1087.19 902.453C1077.17 900.637 1005.16 888.105 996.09 909.093C992.971 916.316 996.188 930.085 1001.37 931.4C1004.66 932.236 1008.3 927.931 1009.37 926.795C1021.4 914.054 1073.8 915.86 1133.29 942.653C1169.49 958.954 1202.82 973.965 1230.58 1011.31Z" fill="black"/>
<path d="M936.972 907.089C927.906 886.101 855.893 898.635 845.874 900.449C809.248 907.089 755.053 916.912 708.304 964.249C696.685 976.015 671.942 1001.82 658.728 1042.11C658.88 1043.3 659.03 1044.46 659.18 1045.64C662.638 1056.36 665.536 1067.25 667.861 1078.27C674.754 1046.39 692.901 1022.09 702.483 1009.31C730.582 971.803 764.312 956.614 799.77 940.646C859.266 913.853 911.666 912.046 923.694 924.787C924.765 925.923 928.401 930.229 931.692 929.393C936.873 928.08 940.091 914.31 936.972 907.089Z" fill="black"/>
<path d="M1230.58 1011.31C1239.33 1023.08 1258.38 1048.82 1264.97 1084.12C1268.15 1069.64 1269.98 1054.89 1270.43 1040.07C1270.47 1038.63 1270.64 1037.18 1270.94 1035.76C1260.48 1009.67 1244.76 986.01 1224.76 966.254C1178.01 918.918 1123.81 909.093 1087.19 902.453C1077.17 900.637 1005.16 888.105 996.09 909.093C992.971 916.316 996.188 930.085 1001.37 931.4C1004.66 932.236 1008.3 927.931 1009.37 926.795C1021.4 914.054 1073.8 915.86 1133.29 942.653C1169.49 958.954 1202.82 973.965 1230.58 1011.31Z" fill="black"/>
<path d="M936.972 907.089C935.963 907.06 936.354 915.736 932.988 916.858C929.935 917.875 925.52 912.095 924.833 911.269C913.285 897.381 796.338 889.927 710.04 972.533C689.127 992.661 671.777 1016.19 658.728 1042.11C658.88 1043.3 659.03 1044.46 659.18 1045.64C662.638 1056.36 665.536 1067.25 667.861 1078.28C674.754 1046.39 692.902 1022.1 702.484 1009.31C730.583 971.806 764.313 956.616 799.771 940.648C859.267 913.855 911.666 912.049 923.694 924.79C924.499 925.643 928.184 930.171 931.693 929.396C936.419 928.353 937.845 918.375 937.994 917.333C938.766 911.937 937.723 907.11 936.972 907.089Z" fill="black"/>
<path d="M1230.58 1011.31C1239.33 1023.08 1258.38 1048.82 1264.97 1084.12C1268.15 1069.64 1269.98 1054.89 1270.43 1040.07C1270.47 1038.63 1270.64 1037.18 1270.94 1035.76C1251.97 1001.12 1225.06 971.449 1192.43 949.182C1159.65 926.871 1132.58 919.931 1088.91 908.736C1076.8 905.632 1024.38 892.73 1010.9 909.934C1009.59 911.612 1004.41 918.976 1000.7 917.855C997.23 916.805 997.312 909.009 996.09 909.093C994.908 909.175 993.508 916.558 995.889 923.737C996.684 926.133 998.205 930.717 1001.37 931.401C1004.94 932.171 1008.67 927.537 1009.37 926.795C1021.4 914.054 1073.8 915.86 1133.29 942.653C1169.49 958.954 1202.82 973.965 1230.58 1011.31Z" fill="black"/>
<path d="M942.864 837.968C939.137 832.875 931.887 831.183 922.557 831.299C762.623 833.308 688.457 937.891 688.457 937.891C677.872 951.794 669.579 967.301 663.894 983.824C662.493 988.06 638.232 1065.55 685.451 1125.72C695.877 1138.91 708.646 1150.06 723.117 1158.62C721.911 1154.62 721.911 1150.34 723.117 1146.33C725.047 1140.37 729.085 1138.55 731.839 1131.67C733.088 1128.51 733.759 1125.15 733.821 1121.75C729.263 1119.3 724.89 1116.52 720.738 1113.43C705.714 1101.97 693.734 1086.99 685.849 1069.82C677.346 1052.61 672.789 1033.73 672.51 1014.55C673.797 922.867 845.151 868.649 858.529 864.416C877.525 858.406 907.824 848.819 925.508 860.908C928.182 862.736 933.101 866.791 937.613 865.248C944.924 862.746 948.958 846.297 942.864 837.968Z" fill="black"/>
<path d="M659.836 1000.36C654.718 1027.13 650.482 1081.16 685.451 1125.72C695.877 1138.91 708.646 1150.06 723.117 1158.62C721.911 1154.62 721.911 1150.34 723.117 1146.33C725.047 1140.37 729.085 1138.55 731.839 1131.67C732.548 1129.89 733.069 1128.04 733.394 1126.15C710.964 1113.72 692.297 1095.48 679.353 1073.35C666.41 1051.21 659.668 1026 659.836 1000.36Z" fill="black"/>
<path d="M942.864 837.968C939.137 832.875 931.887 831.183 922.557 831.299C775.235 833.148 700.744 921.97 689.901 935.977C693.601 935.524 697.355 935.926 700.874 937.153C704.394 938.38 707.585 940.4 710.2 943.055C761.79 895.071 849.128 867.39 858.527 864.415C877.523 858.405 907.822 848.818 925.507 860.907C928.181 862.734 933.099 866.789 937.611 865.247C944.924 862.746 948.958 846.297 942.864 837.968Z" fill="black"/>
<path d="M942.864 837.968C939.137 832.875 931.887 831.183 922.557 831.299C762.623 833.308 688.457 937.891 688.457 937.891C683.453 944.757 678.845 951.904 674.658 959.297C674.932 962.548 674.423 965.817 673.173 968.831C663.288 993.901 666.524 1019.77 676.342 1043.62C673.844 1034.13 672.556 1024.36 672.508 1014.55C673.795 922.866 845.149 868.649 858.527 864.416C877.523 858.406 907.822 848.819 925.506 860.908C928.181 862.736 933.098 866.791 937.611 865.248C944.924 862.746 948.958 846.297 942.864 837.968Z" fill="black"/>
<path d="M995.539 837.349C999.376 832.338 1006.66 830.804 1015.99 831.125C1187.8 837.029 1247.71 942.795 1247.71 942.795C1255.5 956.504 1261.54 971.137 1265.68 986.351C1269.82 1001.6 1286.25 1069.96 1246.61 1130.64C1236.88 1145.47 1224.73 1158.56 1210.67 1169.38C1210.97 1164.66 1210.2 1159.93 1208.42 1155.55C1206.33 1150.54 1203.98 1148.87 1201.67 1143.97C1199.44 1139.13 1198.36 1133.85 1198.51 1128.53C1203.79 1126.78 1208.85 1124.41 1213.57 1121.45C1233.85 1108.75 1241.97 1088.74 1247.44 1074.75C1250.05 1068.06 1258.89 1045.43 1257 1020.77C1249.68 925.186 1086.57 868.166 1081.27 866.312C1080.2 865.94 1079.28 865.63 1079.28 865.63C1060.42 859.207 1030.34 848.961 1012.39 860.662C1009.68 862.431 1004.67 866.378 1000.19 864.736C992.939 862.076 989.264 845.543 995.539 837.349Z" fill="black"/>
<path d="M1271.01 1013.84C1269.39 1029.42 1265.79 1044.73 1260.3 1059.4C1249.15 1089.79 1231.13 1123.48 1198.66 1131.56C1198.87 1135.85 1199.89 1140.06 1201.67 1143.97C1203.98 1148.87 1206.33 1150.54 1208.42 1155.55C1210.2 1159.93 1210.97 1164.66 1210.67 1169.38C1224.73 1158.56 1236.88 1145.47 1246.61 1130.64C1274.03 1088.67 1274.62 1043.04 1271.01 1013.84Z" fill="black"/>
<path d="M1257 1020.77C1257.77 1034.04 1256.23 1047.33 1252.43 1060.07C1269.1 1028.33 1268.85 994.046 1250.18 957.994C1247.76 953.541 1247.01 948.375 1248.04 943.415C1247.92 943.206 1247.83 943.005 1247.71 942.795C1247.71 942.795 1187.8 837.029 1015.99 831.125C1006.66 830.804 999.376 832.338 995.539 837.349C989.264 845.544 992.938 862.076 1000.19 864.736C1004.67 866.378 1009.68 862.431 1012.39 860.662C1030.34 848.961 1060.42 859.207 1079.28 865.63C1079.28 865.63 1080.2 865.94 1081.27 866.312C1086.57 868.166 1249.68 925.186 1257 1020.77Z" fill="black"/>
<path d="M942.864 837.968C939.137 832.875 931.887 831.183 922.557 831.299C762.623 833.308 688.457 937.891 688.457 937.891C683.336 944.913 678.635 952.231 674.38 959.809C676.677 963.477 677.711 967.796 677.323 972.107C677.303 972.431 677.289 972.754 677.269 973.078C678.748 975.085 679.894 977.317 680.664 979.688C680.774 980.03 680.858 980.379 680.967 980.721C715.742 909.625 846.889 868.098 858.527 864.416C877.523 858.406 907.822 848.819 925.506 860.908C928.181 862.736 933.098 866.791 937.611 865.248C944.924 862.746 948.958 846.297 942.864 837.968Z" fill="black"/>
<path d="M1252.84 1000.17C1253.74 996.355 1254.43 992.488 1254.89 988.591C1255.44 983.149 1257.96 978.096 1261.98 974.384C1258.2 963.441 1253.42 952.867 1247.71 942.795C1247.71 942.795 1187.8 837.029 1015.99 831.125C1006.66 830.804 999.376 832.338 995.539 837.349C989.264 845.544 992.938 862.076 1000.19 864.736C1004.67 866.378 1009.68 862.431 1012.39 860.662C1030.34 848.961 1060.42 859.207 1079.28 865.63C1079.28 865.63 1080.2 865.94 1081.27 866.312C1086.18 868.028 1226.27 917.058 1252.84 1000.17Z" fill="black"/>
<path d="M942.864 837.968C939.137 832.875 931.887 831.183 922.557 831.299C762.623 833.308 688.457 937.891 688.457 937.891C683.336 944.913 678.635 952.231 674.38 959.809C676.677 963.477 677.711 967.796 677.323 972.107C677.303 972.431 677.289 972.754 677.269 973.078C678.748 975.085 679.894 977.317 680.664 979.688C680.774 980.03 680.858 980.379 680.967 980.721C715.742 909.625 846.889 868.098 858.527 864.416C877.523 858.406 907.822 848.819 925.506 860.908C928.181 862.736 933.098 866.791 937.611 865.248C944.924 862.746 948.958 846.297 942.864 837.968Z" fill="black"/>
<path d="M1252.84 1000.17C1253.74 996.355 1254.43 992.488 1254.89 988.591C1255.44 983.149 1257.96 978.096 1261.98 974.384C1258.2 963.441 1253.42 952.867 1247.71 942.795C1247.71 942.795 1187.8 837.029 1015.99 831.125C1006.66 830.804 999.376 832.338 995.539 837.349C989.264 845.544 992.938 862.076 1000.19 864.736C1004.67 866.378 1009.68 862.431 1012.39 860.662C1030.34 848.961 1060.42 859.207 1079.28 865.63C1079.28 865.63 1080.2 865.94 1081.27 866.312C1086.18 868.028 1226.27 917.058 1252.84 1000.17Z" fill="black"/>
<path d="M942.864 837.968C941.158 838.092 942.648 850.903 938.3 852.407C934.83 853.608 929.684 846.899 928.56 845.585C912.495 826.805 802.411 839.638 711.371 921.245C698.087 933.15 685.722 946.041 674.38 959.808C676.677 963.476 677.711 967.795 677.324 972.105C677.304 972.429 677.289 972.753 677.27 973.077C678.748 975.084 679.894 977.316 680.664 979.687C680.774 980.029 680.859 980.378 680.968 980.72C715.742 909.624 846.889 868.097 858.527 864.415C877.523 858.405 907.822 848.818 925.507 860.907C929.805 863.845 933.547 866.513 937.611 865.247C944.061 863.236 945.59 852.177 945.688 851.405C946.575 844.409 944.094 837.879 942.864 837.968Z" fill="black"/>
<path d="M1252.84 1000.17C1253.74 996.355 1254.43 992.488 1254.89 988.591C1255.44 983.149 1257.96 978.096 1261.98 974.384C1260.09 971.07 1255.65 963.451 1249.25 954.375C1170.36 842.499 1023.31 834.12 1009.97 844.442C1009.29 844.975 1005.15 848.499 1001.7 847.257C997.244 845.651 997.456 837.343 995.539 837.349C993.764 837.356 991.297 844.48 992.374 851.644C992.607 853.194 994.212 862.774 1000.19 864.736C1005.17 866.367 1010.6 861.829 1012.39 860.662C1030.34 848.961 1060.42 859.207 1079.28 865.63C1079.28 865.63 1080.2 865.94 1081.27 866.312C1086.18 868.028 1226.27 917.058 1252.84 1000.17Z" fill="black"/>
<path d="M939.497 774.386C936.449 766.297 896.093 769.29 852.426 783.206C801.989 799.28 690.614 835.151 670.778 925.147C662.223 963.958 669.917 1019.58 707.424 1051.37C720.01 1061.84 734.86 1069.24 750.8 1072.98C749.624 1067.56 750.332 1061.91 752.805 1056.94C755.272 1052.39 758.787 1050.35 759.681 1045.2C760.12 1042.28 759.723 1039.3 758.535 1036.61C751.283 1035.28 744.247 1032.96 737.623 1029.73C703.554 1013.02 679.929 972.387 681.882 938.743C684.322 896.727 726.085 873.282 800.956 831.25C874.058 790.212 915.808 793.435 925.438 798.467C926.462 799.002 932.866 802.557 936.286 800.099C938.062 798.822 938.31 796.443 939.039 784.491C939.437 777.997 939.632 774.742 939.497 774.386Z" fill="black"/>
<path d="M758.805 1047.87C727.071 1039.41 698.382 1021.62 682.495 991.101C668.89 964.963 667.886 935.753 675.682 908.527C673.664 913.946 672.026 919.5 670.778 925.147C662.223 963.958 669.917 1019.58 707.424 1051.37C720.01 1061.84 734.86 1069.24 750.8 1072.98C749.624 1067.56 750.332 1061.91 752.805 1056.94C754.784 1053.29 757.372 1051.19 758.805 1047.87Z" fill="black"/>
<path d="M714.963 884.457C709.398 878.829 705.362 871.874 703.237 864.25C702.687 864.856 702.09 865.419 701.55 866.031C693.604 883.661 680.304 900.971 678.346 920.191C677.528 929.254 678.76 938.384 681.95 946.907C681.769 944.189 681.746 941.462 681.881 938.741C683.115 917.502 694.432 901.007 714.963 884.457Z" fill="black"/>
<path d="M995.971 777.345C998.261 769.723 1046.99 768.312 1103.46 788.146C1144.44 802.542 1249.75 839.535 1266.7 928.811C1273.93 966.878 1266.2 1020.28 1230.05 1055.03C1218.27 1066.24 1204.33 1074.95 1189.09 1080.63C1187.92 1078.52 1186.09 1075.24 1183.74 1071.27C1178.91 1063.08 1177.29 1061.03 1175.95 1057.01C1174.6 1052.92 1174.07 1048.61 1174.39 1044.31C1183.33 1041.84 1191.9 1038.16 1199.86 1033.4C1233.73 1013.03 1254.87 973.005 1255.6 942.407C1258.01 840.554 1035.49 785.747 1013.8 798.949C1012.81 799.549 1004.27 805.142 1000.78 802.41C998.993 801.011 999.589 798.255 999.212 793.007C998.486 782.891 995.298 779.586 995.971 777.345Z" fill="black"/>
<path d="M1227.91 857.863C1188.57 818.079 1131.24 797.907 1103.46 788.146C1046.99 768.312 998.261 769.723 995.971 777.345C995.298 779.586 998.486 782.891 999.212 793.007C999.589 798.255 998.993 801.011 1000.78 802.41C1004.27 805.142 1012.81 799.549 1013.8 798.949C1029.18 789.585 1145.57 814.441 1211.1 866.018C1213.08 863.451 1215.63 861.378 1218.54 859.962C1221.46 858.547 1224.67 857.828 1227.91 857.863Z" fill="black"/>
<path d="M1266.7 928.811C1265.68 923.47 1264.32 918.201 1262.63 913.035C1263.93 923.673 1268.26 968.971 1237.72 1010.43C1222.02 1031.52 1200.51 1047.57 1175.84 1056.64C1175.87 1056.76 1175.91 1056.9 1175.95 1057.01C1177.29 1061.03 1178.91 1063.08 1183.74 1071.27C1186.09 1075.24 1187.92 1078.52 1189.09 1080.63C1204.33 1074.95 1218.27 1066.24 1230.05 1055.03C1266.2 1020.28 1273.93 966.878 1266.7 928.811Z" fill="black"/>
<path d="M1255.04 932.085C1258.99 908.018 1254.44 883.368 1234.41 867.39C1231.08 864.906 1228.65 861.413 1227.48 857.433C1188.15 817.936 1131.14 797.87 1103.46 788.146C1046.99 768.312 998.261 769.723 995.971 777.345C995.298 779.586 998.486 782.891 999.212 793.007C999.589 798.255 998.993 801.011 1000.78 802.41C1004.27 805.142 1012.81 799.549 1013.8 798.949C1034.74 786.2 1242.94 836.875 1255.04 932.085Z" fill="black"/>
<path d="M939.497 774.386C936.449 766.297 896.093 769.29 852.426 783.206C812.952 795.786 736.158 820.499 695.127 873.789C695.774 876.743 695.839 879.795 695.319 882.773C693.958 890.945 693.13 899.197 692.838 907.477C709.966 882.413 746.721 861.696 800.955 831.25C874.057 790.212 915.808 793.435 925.438 798.467C926.462 799.002 932.866 802.557 936.286 800.099C938.062 798.822 938.309 796.443 939.038 784.491C939.437 777.997 939.632 774.742 939.497 774.386Z" fill="black"/>
<path d="M1243.73 901.142C1243.91 893.136 1243.92 884.973 1243.9 876.638C1206.02 824.196 1135.31 799.337 1103.45 788.146C1046.99 768.312 998.26 769.724 995.97 777.345C995.296 779.587 998.484 782.891 999.211 793.008C999.588 798.255 998.992 801.011 1000.78 802.41C1004.26 805.142 1012.81 799.549 1013.8 798.949C1032.34 787.661 1197.68 826.098 1243.73 901.142Z" fill="black"/>
<path d="M939.497 774.386C936.449 766.297 896.093 769.29 852.426 783.206C812.952 795.786 736.158 820.499 695.127 873.789C695.774 876.743 695.839 879.795 695.319 882.773C693.958 890.945 693.13 899.197 692.838 907.477C709.966 882.413 746.721 861.696 800.955 831.25C874.057 790.212 915.808 793.435 925.438 798.467C926.462 799.002 932.866 802.557 936.286 800.099C938.062 798.822 938.309 796.443 939.038 784.491C939.437 777.997 939.632 774.742 939.497 774.386Z" fill="black"/>
<path d="M1243.73 901.142C1243.91 893.136 1243.92 884.973 1243.9 876.638C1206.02 824.196 1135.31 799.337 1103.45 788.146C1046.99 768.312 998.26 769.724 995.97 777.345C995.296 779.587 998.484 782.891 999.211 793.008C999.588 798.255 998.992 801.011 1000.78 802.41C1004.26 805.142 1012.81 799.549 1013.8 798.949C1032.34 787.661 1197.68 826.098 1243.73 901.142Z" fill="black"/>
<path d="M930.674 789.666C929.042 789.634 927.435 789.254 925.961 788.552C924.486 787.85 923.179 786.842 922.125 785.595C907.397 771.284 849.934 788.747 849.933 788.747C818.658 798.252 781.131 810.015 735.883 841.343C721.589 851.237 707.973 862.077 695.127 873.789C695.38 874.941 695.544 876.11 695.619 877.287C695.733 879.121 695.632 880.963 695.319 882.773C693.958 890.945 693.13 899.197 692.838 907.477C709.966 882.413 746.721 861.696 800.955 831.25C874.057 790.212 915.808 793.435 925.438 798.467C926.597 799.072 933.15 802.559 936.285 800.099C937.447 799.187 937.965 796.001 938.953 789.666C939.55 785.84 939.575 784.785 939.039 784.491C937.693 783.754 935.123 789.082 930.674 789.666Z" fill="black"/>
<path d="M1243.73 901.142C1243.91 893.136 1243.92 884.973 1243.9 876.638C1223.16 854.988 1199.35 836.5 1173.23 821.766C1148.19 807.645 1128.66 801.292 1104.87 793.555C1038.89 772.098 1010.52 777.976 1006.96 785.605C1006.4 786.79 1004.98 791.169 1002.88 791.179C1000.44 791.191 998.707 785.281 998.048 785.524C997.574 785.698 998.903 788.706 999.212 793.007C999.589 798.255 998.993 801.011 1000.78 802.41C1004.27 805.142 1012.81 799.549 1013.8 798.949C1032.34 787.66 1197.68 826.098 1243.73 901.142Z" fill="black"/>
<path d="M935.755 728.183C933.905 726.782 931.699 725.93 929.388 725.724C887.993 721.855 846.288 728.401 808.07 744.764C750.685 772.752 708.676 793.216 693.924 841.72C679.909 887.798 693.235 949.952 736.362 978.582C751.023 988.046 767.889 993.542 785.312 994.533C785.528 984.852 787.661 975.31 791.587 966.458C786.47 966.579 781.354 966.17 776.322 965.237C764.359 962.508 753.074 957.385 743.145 950.176C728.412 939.429 703.225 912.227 701.594 883.615C698.151 823.199 800.081 762.531 888.15 751.346C921.922 747.057 927.16 749.44 927.16 749.44C930.935 750.355 935.587 751.885 938.555 749.455C943.247 745.615 942.147 733.18 935.755 728.183Z" fill="black"/>
<path d="M700.95 915.887C693.695 900.269 689.714 883.332 689.253 866.117C685.301 907.777 700.486 954.766 736.36 978.582C751.021 988.045 767.888 993.542 785.311 994.533C785.378 991.47 785.639 988.415 786.09 985.386C786.448 982.979 786.936 980.745 787.47 978.594C749.997 971.029 717.791 952.959 700.95 915.887Z" fill="black"/>
<path d="M935.755 728.183C933.905 726.782 931.699 725.93 929.388 725.724C887.993 721.855 846.288 728.401 808.07 744.764C774.804 760.989 746.757 774.716 726.139 792.812C726.023 796.174 725.16 799.467 723.611 802.452C714.816 819.764 701.982 830.598 698.548 850.807C696.055 864.821 697.555 879.254 702.878 892.456C702.217 889.547 701.787 886.59 701.593 883.614C698.149 823.198 800.08 762.531 888.148 751.345C921.921 747.056 927.158 749.439 927.159 749.439C930.934 750.354 935.585 751.883 938.554 749.454C943.247 745.614 942.147 733.18 935.755 728.183Z" fill="black"/>
<path d="M935.755 728.183C933.905 726.782 931.699 725.93 929.388 725.724C887.993 721.855 846.288 728.401 808.07 744.764C763.504 766.499 728.281 783.756 707.828 813.074C708.091 814.854 708.144 816.659 707.986 818.451C707.235 828.934 707.941 839.471 710.083 849.761C736.085 802.088 816.678 760.423 888.148 751.345C921.921 747.056 927.158 749.439 927.159 749.439C930.934 750.354 935.585 751.883 938.554 749.454C943.247 745.614 942.147 733.18 935.755 728.183Z" fill="black"/>
<path d="M1001.25 729.072C1003.66 727.034 1006.7 725.886 1009.86 725.819C1081.97 722.205 1128.72 745.009 1128.72 745.009C1187.39 773.632 1228.22 793.832 1242.86 841.965C1257.31 889.459 1239.71 947.649 1200.43 978.827C1188.82 987.952 1175.55 994.745 1161.37 998.831C1162.71 994.146 1162.52 989.156 1160.82 984.587C1158.04 977.652 1152.26 975.243 1150.65 967.359C1150.18 965.034 1150.14 962.645 1150.51 960.304C1165.21 960.253 1179.64 956.423 1192.43 949.181C1216.56 935.218 1234.15 908.051 1235.19 883.86C1237.83 822.929 1136.32 762.726 1048.64 751.592C1018.04 747.705 1010.59 749.66 1010.59 749.66C1007.46 750.652 1003.32 752.356 1000.32 750.343C995.329 746.989 995.332 734.532 1001.25 729.072Z" fill="black"/>
<path d="M1221.34 803.517C1200.57 780.214 1168.82 764.574 1128.72 745.01C1128.72 745.01 1081.97 722.206 1009.85 725.82C1006.7 725.887 1003.66 727.035 1001.25 729.072C995.332 734.531 995.329 746.988 1000.32 750.344C1003.32 752.357 1007.45 750.653 1010.59 749.661C1010.59 749.661 1018.03 747.706 1048.64 751.593C1101.15 758.262 1158.59 782.536 1195.68 814.018C1200.98 804.807 1211.71 799.025 1221.34 803.517Z" fill="black"/>
<path d="M1244.63 848.812C1247.66 867.944 1245.64 887.535 1238.78 905.648C1223.5 942.48 1190.36 967.01 1151.13 969.025C1153.17 975.586 1158.26 978.184 1160.82 984.588C1162.51 989.158 1162.7 994.148 1161.36 998.833C1175.55 994.746 1188.82 987.953 1200.43 978.828C1237.85 949.13 1255.52 894.94 1244.63 848.812Z" fill="black"/>
<path d="M1235.18 882.136C1242.59 859.599 1241.13 834.283 1225.47 815.034C1222.48 811.462 1220.67 807.052 1220.28 802.41C1199.5 779.728 1168.17 764.256 1128.72 745.01C1128.72 745.01 1081.97 722.206 1009.85 725.82C1006.7 725.887 1003.66 727.035 1001.25 729.072C995.332 734.531 995.329 746.988 1000.32 750.344C1003.32 752.357 1007.45 750.653 1010.59 749.661C1010.59 749.661 1018.03 747.706 1048.64 751.593C1135.49 762.623 1235.85 821.798 1235.18 882.136Z" fill="black"/>
<path d="M1226.3 849.701C1228.43 840.229 1231.07 830.882 1234.22 821.701C1215.19 787.495 1178.38 769.238 1128.72 745.01C1128.72 745.01 1081.97 722.206 1009.85 725.82C1006.7 725.887 1003.66 727.035 1001.25 729.072C995.332 734.531 995.329 746.988 1000.32 750.344C1003.32 752.357 1007.45 750.653 1010.59 749.661C1010.59 749.661 1018.03 747.706 1048.64 751.593C1119.73 760.622 1199.92 801.917 1226.3 849.701Z" fill="black"/>
<path d="M935.755 728.183C933.905 726.782 931.699 725.93 929.388 725.724C887.993 721.855 846.288 728.401 808.07 744.764C763.504 766.499 728.281 783.756 707.828 813.074C708.091 814.854 708.144 816.659 707.986 818.451C707.235 828.934 707.941 839.471 710.083 849.761C736.085 802.088 816.678 760.423 888.148 751.345C921.921 747.056 927.158 749.439 927.159 749.439C930.934 750.354 935.585 751.883 938.554 749.454C943.247 745.614 942.147 733.18 935.755 728.183Z" fill="black"/>
<path d="M1226.3 849.701C1228.43 840.229 1231.07 830.882 1234.22 821.701C1215.19 787.495 1178.38 769.238 1128.72 745.01C1128.72 745.01 1081.97 722.206 1009.85 725.82C1006.7 725.887 1003.66 727.035 1001.25 729.072C995.332 734.531 995.329 746.988 1000.32 750.344C1003.32 752.357 1007.45 750.653 1010.59 749.661C1010.59 749.661 1018.03 747.706 1048.64 751.593C1119.73 760.622 1199.92 801.917 1226.3 849.701Z" fill="black"/>
<path d="M937.677 730.268C936.532 730.336 937.197 739.463 934.321 740.124C932.425 740.559 930.15 737.044 929.812 736.558C924.989 729.617 883.299 719.047 809.801 749.727C772.674 765.318 738.255 786.7 707.828 813.074C708.091 814.854 708.144 816.659 707.986 818.451C707.235 828.934 707.941 839.471 710.083 849.761C736.085 802.088 816.678 760.423 888.148 751.345C921.921 747.056 927.158 749.439 927.159 749.439C927.693 749.678 934.377 752.575 938.554 749.454C945.01 744.632 939.132 730.18 937.677 730.268Z" fill="black"/>
<path d="M1226.3 849.701C1228.43 840.229 1231.07 830.882 1234.22 821.701C1221.99 808.619 1208.57 796.698 1194.14 786.088C1116.68 729.265 1030.24 725.735 1014.53 733.879C1013.39 734.47 1005.55 738.791 1002.66 736.162C1000.49 734.191 1002.24 729.348 1001.25 729.072C1000.31 728.808 997.624 732.967 996.938 737.912C996.628 740.15 995.616 747.448 1000.32 750.344C1004.62 752.99 1010.26 749.851 1010.59 749.661C1010.59 749.661 1018.03 747.706 1048.64 751.593C1119.73 760.622 1199.92 801.917 1226.3 849.701Z" fill="black"/>
<path d="M943.454 675.945C940.813 673.247 937.316 671.551 933.562 671.146C865.175 661.497 804.325 693.448 804.323 693.448C752.06 720.89 715.999 739.811 704.869 782.184C694.578 821.364 706.994 875.163 747.226 899.475C771.196 913.96 796.488 912.808 808.395 911.404C805.287 905.203 805.781 901.44 806.711 899.197C808.744 894.281 814.373 893.016 816.167 886.716C816.601 885.164 816.755 883.547 816.622 881.94C801.455 883.208 786.19 881.345 771.774 876.467C761.041 872.8 745.218 867.395 733.048 852.475C723.769 840.993 718.453 826.818 717.894 812.067C717.343 762.712 796.636 714.6 865.644 701.787C881.673 698.811 915.774 688.59 932.395 699.302C933.977 700.322 938.228 703.345 941.737 701.892C947.938 699.325 950.173 683.459 943.454 675.945Z" fill="black"/>
<path d="M811.137 893.829C778.924 889.948 745.394 877.807 723.712 853.755C701.545 829.167 700.055 795.116 711.141 765.518C708.487 770.845 706.385 776.429 704.869 782.184C694.578 821.364 706.994 875.163 747.226 899.475C771.196 913.96 796.488 912.808 808.395 911.404C805.287 905.203 805.781 901.44 806.711 899.197C807.753 897.09 809.268 895.253 811.137 893.829Z" fill="black"/>
<path d="M943.454 675.945C940.813 673.247 937.316 671.551 933.562 671.146C865.175 661.497 804.324 693.448 804.324 693.448C774.368 709.177 749.771 722.123 732.105 738.274C736.95 737.288 741.982 737.825 746.51 739.81C751.039 741.795 754.843 745.131 757.402 749.362C786.588 726.6 827.661 708.841 865.645 701.789C881.674 698.813 915.775 688.591 932.395 699.304C933.978 700.324 938.229 703.346 941.738 701.893C947.938 699.325 950.173 683.459 943.454 675.945Z" fill="black"/>
<path d="M943.454 675.945C940.813 673.247 937.316 671.551 933.562 671.146C865.175 661.497 804.324 693.448 804.324 693.448C776.784 707.908 753.803 720.027 736.538 734.434C735.312 737.39 733.36 742.099 732.252 744.775C715.943 784.168 711.728 794.794 713.508 808.669C714.104 813.203 715.266 817.645 716.968 821.89C717.947 823.338 718.864 824.834 719.907 826.234C718.674 821.609 717.998 816.853 717.893 812.068C717.343 762.713 796.637 714.601 865.645 701.789C881.674 698.813 915.775 688.591 932.395 699.304C933.978 700.324 938.229 703.346 941.738 701.893C947.939 699.324 950.173 683.459 943.454 675.945Z" fill="black"/>
<path d="M998.551 676.393C1001.65 673.645 1005.65 672.115 1009.79 672.088C1085.09 668.452 1135.5 694.611 1135.5 694.611C1187.52 721.606 1223.74 740.638 1234.96 783.347C1245.63 823.969 1229.45 874.571 1192.6 900.638C1179.08 910.035 1163.49 916.043 1147.16 918.156C1143.75 916.641 1140.83 914.22 1138.7 911.157C1134.44 904.747 1136.76 899.052 1132.51 892.572C1130.38 889.444 1127.44 886.965 1123.99 885.409C1139.02 885.42 1153.93 882.787 1168.05 877.631C1180.58 873.032 1195.34 867.664 1206.78 853.639C1216.06 842.157 1221.37 827.983 1221.93 813.231C1222.48 763.876 1143.19 715.765 1074.18 702.952C1042.56 697.08 1026.13 693.274 1011.41 700.077C1008.62 701.367 1002.7 704.498 998.551 702.03C992.386 698.363 991.643 683.237 998.551 676.393Z" fill="black"/>
<path d="M1234.96 783.348C1233.41 777.624 1231.29 772.074 1228.61 766.787C1234.14 785.969 1234.59 806.262 1229.9 825.667C1227.68 835.418 1223.51 844.619 1217.64 852.716C1211.78 860.813 1204.33 867.639 1195.75 872.783C1178.18 885.447 1155.23 891.263 1132.46 892.508L1132.51 892.572C1136.76 899.05 1134.44 904.747 1138.71 911.157C1140.83 914.221 1143.76 916.641 1147.16 918.156C1163.5 916.043 1179.08 910.035 1192.6 900.638C1229.46 874.572 1245.63 823.97 1234.96 783.348Z" fill="black"/>
<path d="M1221.93 813.232C1221.37 827.984 1216.06 842.158 1206.78 853.64C1204.43 856.49 1201.82 859.116 1198.99 861.484C1202.7 858.737 1206.19 855.698 1209.41 852.394C1231.52 829.1 1228.28 794.777 1220.98 766.134C1219.93 762.225 1220.01 758.098 1221.21 754.233C1203.74 730.197 1173.96 714.568 1135.5 694.612C1135.5 694.612 1085.09 668.453 1009.79 672.088C1005.65 672.115 1001.65 673.645 998.55 676.394C991.641 683.237 992.384 698.363 998.55 702.03C1002.7 704.499 1008.62 701.368 1011.41 700.077C1026.13 693.275 1042.56 697.081 1074.18 702.953C1143.19 715.766 1222.48 763.876 1221.93 813.232Z" fill="black"/>
<path d="M943.454 675.945C940.813 673.247 937.316 671.551 933.562 671.146C865.175 661.497 804.324 693.448 804.324 693.448C770.645 711.132 743.771 725.327 725.897 744.5C727.717 746.709 728.929 749.354 729.415 752.174C730.474 758.527 731.026 764.991 732.423 771.283C732.574 771.964 732.795 772.628 732.968 773.303C759.156 739.459 815.137 711.166 865.644 701.789C881.673 698.813 915.774 688.592 932.394 699.304C933.977 700.324 938.228 703.346 941.737 701.893C947.938 699.325 950.173 683.459 943.454 675.945Z" fill="black"/>
<path d="M1213.82 784.821C1216.44 772.64 1217.17 760.131 1215.99 747.728C1198.1 727.258 1170.38 712.709 1135.5 694.612C1135.5 694.612 1085.09 668.452 1009.79 672.088C1005.65 672.115 1001.65 673.646 998.551 676.394C991.642 683.237 992.386 698.363 998.551 702.03C1002.7 704.499 1008.62 701.368 1011.41 700.078C1026.13 693.276 1042.56 697.081 1074.18 702.953C1129.76 713.273 1191.99 746.496 1213.82 784.821Z" fill="black"/>
<path d="M943.454 675.945C940.813 673.247 937.316 671.551 933.562 671.146C865.175 661.497 804.324 693.448 804.324 693.448C770.645 711.132 743.771 725.327 725.897 744.5C727.717 746.709 728.929 749.354 729.415 752.174C730.474 758.527 731.026 764.991 732.423 771.283C732.574 771.964 732.795 772.628 732.968 773.303C759.156 739.459 815.137 711.166 865.644 701.789C881.673 698.813 915.774 688.592 932.394 699.304C933.977 700.324 938.228 703.346 941.737 701.893C947.938 699.325 950.173 683.459 943.454 675.945Z" fill="black"/>
<path d="M1213.82 784.821C1216.44 772.64 1217.17 760.131 1215.99 747.728C1198.1 727.258 1170.38 712.709 1135.5 694.612C1135.5 694.612 1085.09 668.452 1009.79 672.088C1005.65 672.115 1001.65 673.646 998.551 676.394C991.642 683.237 992.386 698.363 998.551 702.03C1002.7 704.499 1008.62 701.368 1011.41 700.078C1026.13 693.276 1042.56 697.081 1074.18 702.953C1129.76 713.273 1191.99 746.496 1213.82 784.821Z" fill="black"/>
<path d="M945.797 681.493C943.365 680.63 938.671 690.233 936.104 689.139C934.748 688.561 935.206 685.523 934.882 684.039C933.225 676.454 903.197 673.133 873.307 677.585C818.961 685.678 761.695 719.963 725.897 744.5C727.717 746.709 728.929 749.354 729.415 752.174C730.474 758.527 731.026 764.991 732.423 771.283C732.574 771.964 732.795 772.628 732.968 773.303C759.156 739.459 815.137 711.166 865.644 701.789C881.673 698.813 915.774 688.592 932.394 699.304C933.775 700.193 938.115 703.353 941.737 701.893C948.39 699.213 948.766 682.547 945.797 681.493Z" fill="black"/>
<path d="M1213.82 784.821C1215.17 778.402 1216.03 771.89 1216.39 765.34C1216.59 761.525 1216.62 757.911 1216.52 754.527C1208.21 745.594 1199.22 737.331 1189.61 729.814C1115.9 672.156 1025.08 673.652 1010.76 688.976C1009.73 690.075 1004.99 695.648 1001.21 694.486C996.802 693.132 996.808 683.581 995.842 683.682C994.665 683.805 992.472 698.235 998.553 702.029C1002.74 704.642 1009.15 701.122 1011.41 700.077C1026.13 693.275 1042.56 697.08 1074.18 702.952C1129.76 713.273 1191.99 746.496 1213.82 784.821Z" fill="black"/>
<path d="M910.655 624.083C900.162 617.895 899.3 610.133 893.129 609.939C888.587 609.796 886.45 613.922 881.148 618.373C871.102 626.803 860.126 627.631 852.063 629.256C829.625 633.776 793.286 651.8 778.252 661.218C744.08 682.627 707.104 730.287 718.384 770.657C720.962 779.533 725.333 787.787 731.226 794.908C737.12 802.029 744.411 807.866 752.65 812.059C761.942 816.415 771.164 817.198 789.608 818.763C802.968 819.9 816.389 820.147 829.782 819.502C830.878 816.997 831.512 814.314 831.652 811.583C831.557 808.707 831.239 805.843 830.7 803.017C830.589 799.937 831.83 795.447 838.315 789.692C784.896 795.785 742.182 777.726 735.516 753.049C725.782 717.012 795.201 675.31 799.765 672.624C819.311 661.122 866.41 639.409 891.646 646.852C897.892 648.744 904.58 648.586 910.73 646.398C918.755 643.282 926.021 635.638 924.547 630.931C923.459 627.457 918.605 628.772 910.655 624.083Z" fill="black"/>
<path d="M831.146 799.69C797.2 798.429 762 795.01 737.819 771.503C710.573 745.015 725.037 715.442 744.251 691.144C724.456 714.458 710.966 744.112 718.384 770.657C720.962 779.533 725.333 787.787 731.226 794.908C737.12 802.029 744.411 807.866 752.65 812.059C761.942 816.415 771.164 817.198 789.608 818.763C802.968 819.9 816.389 820.147 829.782 819.502C830.878 816.997 831.512 814.314 831.652 811.583C831.557 808.707 831.239 805.843 830.7 803.017C830.675 801.891 830.826 800.769 831.146 799.69Z" fill="black"/>
<path d="M787.584 680.467C783.472 676.545 779.936 672.06 777.08 667.147C776.436 667.857 775.748 668.527 775.021 669.153C757.351 684.108 730.119 706.487 728.948 731.671C728.596 740.377 731.285 748.935 736.553 755.876C736.158 754.953 735.811 754.009 735.516 753.049C728.078 725.509 766.841 694.683 787.584 680.467Z" fill="black"/>
<path d="M1029.41 625.284C1040.38 617.908 1041.25 611.317 1046.93 611.139C1051.48 610.996 1053.61 615.123 1058.91 619.573C1068.96 628.003 1079.94 628.831 1088 630.456C1110.44 634.976 1146.78 653 1161.81 662.418C1195.98 683.827 1232.96 731.487 1221.68 771.857C1215.69 793.298 1197.67 805.979 1187.41 813.259C1165.84 828.118 1139.91 835.301 1113.76 833.655C1109.48 827.784 1106.38 821.133 1104.64 814.074C1103.66 810.065 1103.14 805.96 1103.08 801.835C1158.11 800.92 1198.9 775.17 1202.62 747.308C1207.17 713.218 1155.31 682.671 1140.3 673.824C1120.26 662.021 1073.76 640.578 1048.42 648.052C1042.22 650.292 1035.41 650.13 1029.33 647.599C1023.19 644.51 1017.94 637.489 1019.43 632.506C1020.35 629.418 1023.15 629.486 1029.41 625.284Z" fill="black"/>
<path d="M1191.75 687.714C1209.14 714.176 1215.09 747.856 1191.57 773.647C1171.8 795.315 1135.61 809.233 1103.68 808.768C1103.91 810.551 1104.23 812.322 1104.64 814.072C1106.38 821.131 1109.48 827.784 1113.76 833.655C1139.91 835.301 1165.84 828.118 1187.41 813.259C1197.67 805.979 1215.69 793.297 1221.68 771.857C1229.6 743.524 1213.72 711.632 1191.75 687.714Z" fill="black"/>
<path d="M1202.74 745.803C1204.38 741.71 1205.14 737.317 1204.96 732.913C1204.78 728.508 1203.67 724.191 1201.7 720.245C1193.83 703.04 1175.9 690.004 1166.21 673.411C1164.38 670.354 1163.34 666.892 1163.18 663.334C1162.72 663.04 1162.26 662.701 1161.81 662.416C1146.78 652.999 1110.44 634.975 1088 630.454C1079.93 628.829 1068.96 628.002 1058.91 619.572C1053.61 615.123 1051.47 610.995 1046.93 611.138C1041.25 611.316 1040.38 617.907 1029.41 625.283C1023.15 629.485 1020.35 629.418 1019.43 632.505C1017.94 637.489 1023.19 644.509 1029.33 647.598C1035.41 650.129 1042.22 650.291 1048.41 648.052C1073.76 640.577 1120.26 662.02 1140.3 673.824C1155.09 682.539 1205.6 712.322 1202.74 745.803Z" fill="black"/>
<path d="M924.547 630.932C923.458 627.457 918.605 628.772 910.655 624.083C900.162 617.895 899.3 610.133 893.129 609.939C888.587 609.796 886.45 613.922 881.148 618.373C871.102 626.803 860.126 627.631 852.063 629.256C829.625 633.776 793.286 651.8 778.252 661.218C776.343 662.414 774.423 663.72 772.505 665.074C772.513 665.394 772.589 665.668 772.585 665.996C772.522 674.085 773.111 682.166 774.346 690.16C782.455 683.804 790.944 677.948 799.765 672.624C819.312 661.122 866.411 639.41 891.646 646.852C897.893 648.745 904.58 648.585 910.73 646.398C918.755 643.283 926.022 635.639 924.547 630.932Z" fill="black"/>
<path d="M1165.68 690.375C1166.59 682.393 1167.67 674.474 1167.8 666.439C1165.8 665.02 1163.8 663.666 1161.81 662.418C1146.78 653 1110.44 634.976 1088 630.456C1079.93 628.831 1068.96 628.003 1058.92 619.573C1053.61 615.124 1051.48 610.996 1046.93 611.139C1041.25 611.317 1040.38 617.908 1029.41 625.284C1023.15 629.486 1020.35 629.418 1019.43 632.506C1017.94 637.489 1023.19 644.51 1029.33 647.599C1035.41 650.13 1042.22 650.292 1048.42 648.052C1073.76 640.577 1120.26 662.021 1140.3 673.824C1149.05 678.878 1157.53 684.403 1165.68 690.375Z" fill="black"/>
<path d="M924.547 630.932C923.458 627.457 918.605 628.772 910.655 624.083C900.162 617.895 899.3 610.133 893.129 609.939C888.587 609.796 886.45 613.922 881.148 618.373C871.102 626.803 860.126 627.631 852.063 629.256C829.625 633.776 793.286 651.8 778.252 661.218C776.343 662.414 774.423 663.72 772.505 665.074C772.513 665.394 772.589 665.668 772.585 665.996C772.522 674.085 773.111 682.166 774.346 690.16C782.455 683.804 790.944 677.948 799.765 672.624C819.312 661.122 866.411 639.41 891.646 646.852C897.893 648.745 904.58 648.585 910.73 646.398C918.755 643.283 926.022 635.639 924.547 630.932Z" fill="black"/>
<path d="M1165.68 690.375C1166.59 682.393 1167.67 674.474 1167.8 666.439C1165.8 665.02 1163.8 663.666 1161.81 662.418C1146.78 653 1110.44 634.976 1088 630.456C1079.93 628.831 1068.96 628.003 1058.92 619.573C1053.61 615.124 1051.48 610.996 1046.93 611.139C1041.25 611.317 1040.38 617.908 1029.41 625.284C1023.15 629.486 1020.35 629.418 1019.43 632.506C1017.94 637.489 1023.19 644.51 1029.33 647.599C1035.41 650.13 1042.22 650.292 1048.42 648.052C1073.76 640.577 1120.26 662.021 1140.3 673.824C1149.05 678.878 1157.53 684.403 1165.68 690.375Z" fill="black"/>
<path d="M924.547 630.932C923.842 629.844 922.841 628.98 921.661 628.442C919.887 627.696 918.015 627.206 916.102 626.987C914.097 626.425 912.239 625.434 910.655 624.083C915.068 628.221 916.265 633.171 914.562 635.335C912.878 637.478 908.246 637.025 905.24 635.554C901.99 633.964 901.837 631.769 898.409 629.068C895.715 627.215 892.685 625.905 889.489 625.21C871.42 620.744 814.151 650.789 814.15 650.79C805.088 655.544 790.928 662.812 772.973 671.317C773.431 677.598 773.888 683.879 774.346 690.16C782.455 683.804 790.944 677.948 799.765 672.624C819.312 661.122 866.411 639.41 891.646 646.852C897.893 648.745 904.581 648.586 910.73 646.399C919.283 643.079 926.164 634.496 924.547 630.932Z" fill="black"/>
<path d="M1165.68 690.375C1166.2 686.519 1166.65 682.537 1167.03 678.427C1167.25 676.052 1167.44 673.714 1167.6 671.414C1153.99 662.039 1139.47 654.071 1124.25 647.631C1111.49 642.244 1116.28 645.58 1087.55 635.293C1067.39 628.074 1061.81 625.28 1053.64 627.646C1043.87 630.474 1038.55 638.312 1033.69 635.958C1030.44 634.385 1029.6 629.328 1029.41 625.284C1028.35 625.859 1026.88 626.697 1025.21 627.812C1021.74 630.118 1020.01 631.271 1019.43 632.506C1017.61 636.351 1022.6 644.214 1029.33 647.599C1035.41 650.13 1042.22 650.292 1048.42 648.052C1073.76 640.577 1120.26 662.021 1140.3 673.824C1149.05 678.878 1157.53 684.403 1165.68 690.375Z" fill="black"/>
<path d="M918.173 587.527C922.157 589.946 925.428 595.041 924.191 598.874C922.419 604.375 911.805 605.917 904.471 604.55C900.741 603.822 897.215 602.289 894.138 600.058C876.268 588.147 778.254 628.262 784.505 671.167C787.377 690.871 811.237 704.282 816.678 707.34C829.383 714.372 843.735 717.889 858.252 717.528C856.736 719.595 855.413 721.797 854.301 724.107C851.114 730.842 849.751 738.295 850.349 745.721C800.431 739.475 763.761 711.94 759.482 680.564C755.156 648.842 785.119 621.827 789.113 618.226C820.924 589.545 871.897 585.973 887.881 573.117C888.865 572.326 892.386 569.353 895.453 570.3C900.184 571.757 897.954 580.723 904.013 584.709C908.692 587.784 912.632 584.164 918.173 587.527Z" fill="black"/>
<path d="M775.292 667.041C773.527 651.887 776.551 636.559 783.938 623.21C774.329 633.047 756.039 655.29 759.485 680.564C763.764 711.939 800.435 739.475 850.352 745.721C850.019 741.194 850.386 736.642 851.44 732.226C815.877 722.04 781.408 707.445 775.292 667.041Z" fill="black"/>
<path d="M918.173 587.527C912.634 584.164 908.692 587.784 904.016 584.709C897.957 580.723 900.187 571.757 895.456 570.299C892.388 569.354 888.868 572.328 887.884 573.117C878.02 581.051 854.829 585.464 831.042 594.408C830.192 595.312 829.271 596.148 828.289 596.906C811.271 609.95 787.217 634.608 785.622 658.406C797.133 620.749 878.059 589.34 894.138 600.058C897.215 602.289 900.741 603.822 904.471 604.55C911.805 605.917 922.419 604.375 924.191 598.874C925.426 595.041 922.158 589.948 918.173 587.527Z" fill="black"/>
<path d="M1016.6 592.593C1012.62 594.987 1009.35 600.027 1010.58 603.819C1012.36 609.261 1022.97 610.788 1030.3 609.435C1034.03 608.717 1037.55 607.201 1040.64 604.99C1058.51 593.206 1156.52 632.896 1150.27 675.344C1147.4 694.84 1123.54 708.108 1118.1 711.134C1105.37 718.096 1091.03 721.573 1076.52 721.214C1078.04 723.258 1079.36 725.437 1080.47 727.725C1083.66 734.378 1085.02 741.757 1084.42 749.11C1134.34 742.929 1171.01 715.687 1175.29 684.644C1179.62 653.26 1149.65 626.531 1145.66 622.968C1113.85 594.591 1062.88 591.058 1046.89 578.338C1045.91 577.556 1042.39 574.613 1039.32 575.549C1034.59 576.991 1036.82 585.862 1030.76 589.806C1026.08 592.847 1022.14 589.267 1016.6 592.593Z" fill="black"/>
<path d="M1148.21 660C1146.47 640.838 1130.73 620.515 1114.7 611.01C1110.4 608.62 1107.12 604.726 1105.51 600.073C1081.11 590.767 1057 586.381 1046.89 578.336C1045.91 577.554 1042.38 574.611 1039.32 575.547C1034.59 576.989 1036.82 585.86 1030.76 589.803C1026.08 592.848 1022.14 589.265 1016.6 592.593C1012.62 594.986 1009.35 600.028 1010.58 603.819C1012.36 609.261 1022.97 610.788 1030.3 609.435C1034.03 608.717 1037.55 607.201 1040.64 604.99C1056.32 594.646 1133.74 623.968 1148.21 660Z" fill="black"/>
<path d="M1078.11 608.488C1079.38 607.926 1080.69 607.471 1082.03 607.126C1082.27 602.259 1083.98 597.58 1086.95 593.713C1069.63 588.272 1054.39 584.306 1046.89 578.336C1045.91 577.554 1042.38 574.611 1039.32 575.547C1034.59 576.989 1036.82 585.86 1030.76 589.803C1026.08 592.848 1022.14 589.265 1016.6 592.593C1012.62 594.986 1009.35 600.028 1010.58 603.819C1012.36 609.261 1022.97 610.788 1030.3 609.435C1034.03 608.717 1037.55 607.201 1040.64 604.99C1046.56 601.084 1061.3 602.858 1078.11 608.488Z" fill="black"/>
<path d="M1146.52 623.741C1158.63 642.047 1164.32 663.304 1154.6 683.859C1142 710.493 1111.25 723.889 1081.94 731.181C1084.05 736.908 1084.9 743.023 1084.42 749.108C1134.34 742.928 1171.01 715.685 1175.29 684.642C1179.39 654.883 1152.7 629.349 1146.52 623.741Z" fill="black"/>
<path d="M918.173 587.527C912.634 584.164 908.692 587.784 904.016 584.709C897.957 580.723 900.187 571.757 895.456 570.299C892.388 569.354 888.868 572.328 887.884 573.117C878.738 580.473 858.134 584.806 836.222 592.525C837.581 595.931 838.055 599.625 837.6 603.263C837.145 606.902 835.776 610.365 833.621 613.332C858.675 600.593 885.586 594.356 894.139 600.057C897.216 602.289 900.742 603.822 904.472 604.55C911.807 605.917 922.42 604.374 924.193 598.874C925.427 595.041 922.158 589.948 918.173 587.527Z" fill="black"/>
<path d="M1119.24 628.673C1117.49 619.315 1114.35 610.27 1109.94 601.834C1084.07 591.298 1057.61 586.868 1046.89 578.336C1045.91 577.554 1042.38 574.611 1039.32 575.547C1034.59 576.989 1036.82 585.86 1030.76 589.803C1026.08 592.848 1022.14 589.265 1016.6 592.593C1012.62 594.986 1009.35 600.028 1010.58 603.819C1012.36 609.261 1022.97 610.788 1030.3 609.435C1034.03 608.717 1037.55 607.201 1040.64 604.99C1051.32 597.941 1090.67 609.316 1119.24 628.673Z" fill="black"/>
<path d="M918.173 587.527C912.634 584.164 908.692 587.784 904.016 584.709C897.957 580.723 900.187 571.757 895.456 570.299C892.388 569.354 888.868 572.328 887.884 573.117C878.738 580.473 858.134 584.806 836.222 592.525C837.581 595.931 838.055 599.625 837.6 603.263C837.145 606.902 835.776 610.365 833.621 613.332C858.675 600.593 885.586 594.356 894.139 600.057C897.216 602.289 900.742 603.822 904.472 604.55C911.807 605.917 922.42 604.374 924.193 598.874C925.427 595.041 922.158 589.948 918.173 587.527Z" fill="black"/>
<path d="M1119.24 628.673C1117.49 619.315 1114.35 610.27 1109.94 601.834C1084.07 591.298 1057.61 586.868 1046.89 578.336C1045.91 577.554 1042.38 574.611 1039.32 575.547C1034.59 576.989 1036.82 585.86 1030.76 589.803C1026.08 592.848 1022.14 589.265 1016.6 592.593C1012.62 594.986 1009.35 600.028 1010.58 603.819C1012.36 609.261 1022.97 610.788 1030.3 609.435C1034.03 608.717 1037.55 607.201 1040.64 604.99C1051.32 597.941 1090.67 609.316 1119.24 628.673Z" fill="black"/>
<path d="M918.173 587.527C915.662 586.128 912.757 585.604 909.916 586.037C909.908 587.401 909.535 588.738 908.837 589.91C908.139 591.082 907.141 592.047 905.945 592.703C904.064 593.725 901.868 594.004 899.792 593.486C897.715 592.967 895.908 591.69 894.727 589.905C893.657 588.058 892.836 586.119 891.937 584.198C891.635 583.987 891.323 583.793 891 583.615C889.324 582.913 887.553 582.465 885.745 582.286C880.779 581.784 875.763 582.329 871.021 583.888C865.548 585.309 860.162 587.049 854.89 589.097C850.44 591.13 846.161 593.518 842.093 596.237C840.699 597.081 839.069 597.45 837.447 597.288C837.923 600.082 837.83 602.944 837.172 605.701C836.515 608.458 835.307 611.053 833.621 613.332C858.675 600.593 885.586 594.356 894.139 600.057C897.216 602.289 900.742 603.822 904.472 604.55C911.807 605.917 922.42 604.374 924.193 598.874C925.427 595.041 922.158 589.948 918.173 587.527Z" fill="black"/>
<path d="M1081.05 597.346C1075.28 595.485 1069.61 593.372 1063.81 591.613C1060.87 590.719 1057.89 589.91 1054.87 589.264C1052.72 588.553 1050.47 588.19 1048.2 588.19C1045.64 588.615 1042.16 593.293 1039.77 594.703C1034.6 597.757 1027.23 598.311 1023.54 592.874C1023.16 592.307 1022.85 591.699 1022.61 591.06C1020.5 590.972 1018.41 591.505 1016.6 592.594C1012.62 594.988 1009.35 600.029 1010.58 603.82C1012.36 609.262 1022.97 610.789 1030.3 609.436C1034.03 608.719 1037.55 607.202 1040.64 604.992C1051.32 597.943 1090.67 609.317 1119.24 628.674C1118.01 622.353 1116.18 616.163 1113.77 610.188C1102.85 605.783 1092.34 600.992 1081.05 597.346Z" fill="black"/>
<path d="M915.414 555.576C915.954 553.602 922.017 555.032 925.51 551.449C926.894 549.783 927.688 547.708 927.771 545.544C927.854 543.381 927.221 541.25 925.969 539.483C924.575 537.509 922.654 535.966 920.426 535.029C918.197 534.092 915.751 533.8 913.364 534.184C906.505 535.592 906.582 543.598 900.269 544.435C897.181 544.844 896.656 542.995 886.501 539.896C879.517 537.764 877.948 538.084 877.322 538.244C873.023 539.353 872.375 543.546 868.602 548.972C864.365 555.067 861.644 554.865 851.163 563.827C851.163 563.827 845.185 568.939 837.174 577.485C827.514 587.79 803.127 623.822 819.955 654.193C829.515 671.446 848.231 679.394 858.047 682.665C855.968 679.168 854.859 675.179 854.835 671.111C854.889 658.837 865.629 651.17 867.226 650.067C863.665 647.913 860.421 645.275 857.588 642.227C850.428 634.319 846.497 624.01 846.575 613.343C846.498 593.546 860.39 580.598 864.015 577.444C869.922 572.304 880.051 563.49 892.01 564.652C902.193 565.642 906.47 573.161 917.251 571.667C921.739 571.045 927.104 568.896 927.348 566.232C927.739 561.937 914.617 558.489 915.414 555.576Z" fill="black"/>
<path d="M858.708 658.859C855.665 657.445 852.973 655.376 850.825 652.8C824.571 621.438 836.933 590.718 854.49 561.08C853.469 561.896 852.379 562.789 851.163 563.828C851.163 563.828 845.185 568.94 837.174 577.487C827.515 587.792 803.127 623.823 819.956 654.194C829.515 671.447 848.231 679.395 858.048 682.666C855.968 679.169 854.859 675.181 854.835 671.112C854.907 666.738 856.253 662.48 858.708 658.859Z" fill="black"/>
<path d="M915.414 555.576C915.954 553.602 922.017 555.032 925.51 551.449C926.894 549.783 927.688 547.708 927.771 545.544C927.854 543.381 927.221 541.25 925.969 539.483C925.21 538.37 924.261 537.397 923.167 536.61C922.623 540.494 920.968 544.138 918.402 547.104C915.835 550.07 912.466 552.232 908.7 553.329C878.912 563.564 847.463 574.255 846.423 607.632C846.366 609.796 846.421 611.962 846.59 614.121C846.586 613.87 846.574 613.541 846.574 613.343C846.497 593.547 860.389 580.598 864.013 577.445C869.92 572.304 880.049 563.491 892.008 564.653C902.191 565.642 906.468 573.161 917.25 571.667C921.737 571.046 927.102 568.897 927.346 566.233C927.74 561.937 914.617 558.489 915.414 555.576Z" fill="black"/>
<path d="M1027.77 558.79C1027.23 556.816 1021.17 558.246 1017.67 554.663C1016.29 552.997 1015.5 550.922 1015.41 548.758C1015.33 546.594 1015.96 544.464 1017.21 542.697C1018.61 540.723 1020.53 539.18 1022.76 538.243C1024.99 537.306 1027.43 537.013 1029.82 537.398C1036.68 538.806 1036.6 546.812 1042.91 547.649C1046 548.058 1046.53 546.209 1056.68 543.11C1063.67 540.978 1065.24 541.298 1065.86 541.458C1070.16 542.567 1070.81 546.76 1074.58 552.186C1078.82 558.281 1081.54 558.079 1092.02 567.041C1092.02 567.041 1098 572.153 1106.01 580.699C1115.67 591.004 1140.06 627.036 1123.23 657.407C1113.67 674.66 1094.95 682.608 1085.14 685.879C1087.22 682.382 1088.32 678.394 1088.35 674.325C1088.29 662.05 1077.55 654.384 1075.96 653.281C1079.52 651.127 1082.76 648.489 1085.6 645.441C1092.76 637.533 1096.69 627.224 1096.61 616.557C1096.69 596.76 1082.79 583.812 1079.17 580.658C1073.26 575.518 1063.13 566.704 1051.17 567.866C1040.99 568.856 1036.71 576.375 1025.93 574.881C1021.44 574.259 1016.08 572.11 1015.84 569.446C1015.44 565.15 1028.57 561.703 1027.77 558.79Z" fill="black"/>
<path d="M1106.01 580.699C1098 572.153 1092.02 567.041 1092.02 567.041C1081.54 558.079 1078.82 558.281 1074.58 552.186C1070.81 546.76 1070.16 542.567 1065.86 541.458C1064.02 541.219 1062.14 541.432 1060.39 542.078C1076.51 553.868 1088.87 571.666 1096.63 587.16C1110.32 614.515 1102.53 639.749 1084.24 661.743C1086.84 665.433 1088.27 669.815 1088.35 674.325C1088.32 678.394 1087.22 682.382 1085.14 685.879C1094.95 682.608 1113.67 674.66 1123.23 657.407C1140.06 627.036 1115.67 591.004 1106.01 580.699Z" fill="black"/>
<path d="M1087.7 590.052C1087.47 588.479 1087.24 586.934 1087.01 585.439C1077.37 574.925 1065.25 566.985 1051.76 562.338C1039.63 557.775 1029.57 554.862 1022.27 544.245C1021.33 542.877 1020.56 541.399 1019.98 539.845C1018.9 540.628 1017.97 541.593 1017.21 542.695C1015.96 544.462 1015.33 546.592 1015.41 548.756C1015.5 550.92 1016.29 552.995 1017.67 554.661C1021.17 558.244 1027.23 556.814 1027.77 558.788C1028.57 561.703 1015.44 565.149 1015.84 569.445C1016.08 572.109 1021.45 574.258 1025.93 574.88C1036.72 576.374 1040.99 568.856 1051.18 567.866C1063.13 566.703 1073.26 575.517 1079.17 580.657C1082.36 583.453 1085.23 586.605 1087.7 590.052Z" fill="black"/>
</svg>
