<svg width="1545" height="3929" viewBox="0 0 1545 3929" fill="none" xmlns="http://www.w3.org/2000/svg">
<path d="M1134.59 1222.49C1109.83 1191.39 1070.84 1170.38 1051.76 1172.72C1041.21 1174.33 1030.43 1173.65 1020.17 1170.73C1019.21 1170.45 1018.35 1170.17 1017.55 1169.89C1008.95 1172.31 1008.46 1183.9 1008.16 1191.33C1007.96 1196.13 1007.7 1202.5 1010.32 1206.8C1013.26 1203.92 1015.09 1198.48 1020.23 1194.83C1034.57 1184.63 1056.29 1191.44 1065.81 1194.43C1087.51 1201.24 1101.16 1214.4 1114.23 1227.01C1123.45 1235.99 1131.79 1245.84 1139.12 1256.42C1157.95 1283.4 1163.08 1303.96 1164.46 1303.48C1166.39 1302.82 1164.35 1259.86 1134.59 1222.49Z" fill="#F4D58C" stroke="#282724" stroke-width="0.1687" stroke-miterlimit="10"/>
<path d="M926.847 1203.46C927.506 1199.35 927.687 1195.17 927.387 1191.01C927.044 1185.07 925.875 1174.91 919.99 1171.36C918.647 1171.42 917.357 1171.89 916.286 1172.71C914.644 1174.05 914.311 1175.93 911.669 1177.65C911.125 1178.11 910.489 1178.44 909.803 1178.62C905.274 1179.39 900.619 1178.85 896.387 1177.07C886.777 1172.72 814.255 1189.9 774.832 1258.23C759.043 1285.6 753.496 1312.62 756.278 1313.89C759.763 1315.48 771.674 1274.56 811.486 1241.04C811.486 1241.04 835.837 1220.53 887.964 1204.84C892.524 1203.27 897.383 1202.78 902.165 1203.39C913.566 1204.95 916.666 1212.25 923.057 1212.78C925.046 1210.02 926.345 1206.83 926.847 1203.46Z" fill="#F4D58C" stroke="#282724" stroke-width="0.1687" stroke-miterlimit="10"/>
<path d="M1231.3 1308.17C1226.82 1330.96 1215.77 1354.08 1213.92 1353.37C1212.22 1352.77 1218.51 1333.04 1220.75 1316.64C1221.84 1308.55 1222.11 1300.36 1221.57 1292.21C1217.8 1231.66 1172.21 1172.9 1133.84 1141.75C1133.79 1141.69 1132.04 1140.27 1128.76 1138.03C1126.46 1136.39 1123.4 1134.37 1119.74 1132.13C1119.08 1131.69 1118.37 1131.26 1117.61 1130.82C1116.84 1130.33 1116.02 1129.83 1115.2 1129.4C1106.34 1124.28 1097.05 1119.93 1087.44 1116.39C1086.24 1115.95 1084.98 1115.51 1083.78 1115.13C1081.1 1114.2 1078.36 1113.38 1075.52 1112.56C1073.45 1112.02 1071.37 1111.47 1069.24 1110.98C1063.53 1109.68 1057.74 1108.79 1051.91 1108.3C1045.41 1107.75 1035.35 1106.88 1028.68 1113.66C1023.71 1118.74 1023.71 1125.03 1018.9 1126.28C1014.52 1127.43 1008.89 1122.84 1006.82 1118.03C1005.84 1115.26 1005.6 1112.29 1006.11 1109.39C1006.41 1104.03 1008.29 1098.88 1011.52 1094.58C1013.69 1092.22 1016.35 1090.35 1019.31 1089.1C1022.27 1087.86 1025.47 1087.27 1028.68 1087.37C1055.01 1086.39 1081.19 1091.73 1105.04 1102.94C1139.42 1121.14 1181.94 1143.61 1209.93 1197.71C1218.18 1213.62 1241.14 1258 1231.3 1308.17Z" fill="#F4D58C" stroke="#282724" stroke-width="0.1687" stroke-miterlimit="10"/>
<path d="M934.613 1127.21C934.434 1127.58 934.214 1127.93 933.957 1128.25C933.037 1129.66 931.716 1130.75 930.166 1131.39C928.617 1132.04 926.909 1132.2 925.266 1131.86C921.495 1130.44 922.697 1124.48 919.418 1120.16C914.006 1113 900.779 1114.59 895.259 1115.03C890.832 1115.35 886.459 1115.96 882.196 1116.67C879.627 1117.1 877.058 1117.65 874.598 1118.2C873.013 1118.52 871.428 1118.91 869.788 1119.34C867.547 1119.94 865.306 1120.55 863.12 1121.2C844.253 1126.95 826.387 1135.58 810.156 1146.78C810.074 1146.82 810 1146.88 809.938 1146.94C809.896 1146.95 809.858 1146.97 809.828 1147C804.964 1150.66 799.935 1154.71 794.907 1159.08C763.369 1186.73 731.011 1228.11 721.173 1272.1V1272.16C717.892 1285.98 717.243 1300.29 719.26 1314.35C721.611 1329.98 728.114 1348.89 726.366 1349.44C724.453 1350.09 712.92 1328.01 708.219 1306.21C697.998 1258.22 721.884 1215.81 730.465 1200.61C759.707 1148.8 804.035 1127.32 839.89 1109.94C839.89 1109.94 876.949 1091.96 919.418 1095.02C927.726 1095.62 935.651 1097.21 937.346 1101.91C938.384 1104.81 936.034 1106.23 935.159 1113.5C934.23 1120.98 936.143 1124.04 934.613 1127.21Z" fill="#F4D58C" stroke="#282724" stroke-width="0.1687" stroke-miterlimit="10"/>
<path opacity="0.16" d="M926.847 1203.46C927.506 1199.35 927.687 1195.17 927.387 1191.01C927.044 1185.07 925.875 1174.91 919.99 1171.36C918.647 1171.42 917.357 1171.89 916.286 1172.71C914.644 1174.05 914.311 1175.93 911.669 1177.65C911.125 1178.11 910.489 1178.44 909.803 1178.62C905.274 1179.39 900.619 1178.85 896.387 1177.07C886.777 1172.72 814.255 1189.9 774.832 1258.23C759.043 1285.6 753.496 1312.62 756.278 1313.89C759.763 1315.48 771.674 1274.56 811.486 1241.04C811.486 1241.04 835.837 1220.53 887.964 1204.84C892.524 1203.27 897.383 1202.78 902.165 1203.39C913.566 1204.95 916.666 1212.25 923.057 1212.78C925.046 1210.02 926.345 1206.83 926.847 1203.46Z" fill="#282724"/>
<path opacity="0.16" d="M1134.59 1222.49C1109.83 1191.39 1070.84 1170.38 1051.76 1172.72C1041.21 1174.33 1030.43 1173.65 1020.17 1170.73C1019.21 1170.45 1018.35 1170.17 1017.55 1169.89C1008.95 1172.31 1008.46 1183.9 1008.16 1191.33C1007.96 1196.13 1007.7 1202.5 1010.32 1206.8C1013.26 1203.92 1015.09 1198.48 1020.23 1194.83C1034.57 1184.63 1056.29 1191.44 1065.81 1194.43C1087.51 1201.24 1101.16 1214.4 1114.23 1227.01C1123.45 1235.99 1131.79 1245.84 1139.12 1256.42C1157.95 1283.4 1163.08 1303.96 1164.46 1303.48C1166.39 1302.82 1164.35 1259.86 1134.59 1222.49Z" fill="#282724"/>
<path opacity="0.16" d="M1220.75 1316.65C1219.98 1322.24 1218.75 1328.21 1217.52 1333.68C1218.34 1330.76 1219.21 1327.87 1219.98 1324.93C1226.17 1301.28 1227.78 1278.4 1230.93 1254.88C1226.76 1234.9 1219.68 1215.64 1209.93 1197.72C1181.94 1143.61 1139.42 1121.15 1105.04 1102.95C1081.19 1091.73 1055.01 1086.39 1028.68 1087.37C1025.47 1087.27 1022.27 1087.86 1019.31 1089.11C1016.35 1090.35 1013.69 1092.22 1011.52 1094.59C1008.29 1098.88 1006.41 1104.03 1006.11 1109.4C1005.6 1112.29 1005.84 1115.26 1006.82 1118.03C1008.89 1122.84 1014.52 1127.43 1018.9 1126.29C1023.71 1125.03 1023.71 1118.74 1028.68 1113.66C1035.35 1106.88 1045.41 1107.76 1051.91 1108.3C1057.74 1108.79 1063.53 1109.69 1069.24 1110.98C1071.37 1111.47 1073.45 1112.02 1075.52 1112.57C1078.36 1113.39 1081.1 1114.21 1083.78 1115.14C1084.98 1115.52 1086.24 1115.96 1087.44 1116.39C1097.05 1119.93 1106.34 1124.28 1115.2 1129.4C1116.02 1129.84 1116.84 1130.33 1117.61 1130.82C1118.37 1131.26 1119.08 1131.7 1119.74 1132.13C1123.4 1134.37 1126.46 1136.4 1128.76 1138.04C1132.04 1140.28 1133.79 1141.7 1133.84 1141.75C1172.21 1172.91 1217.8 1231.66 1221.57 1292.22C1222.11 1300.37 1221.84 1308.55 1220.75 1316.65Z" fill="#282724"/>
<path opacity="0.16" d="M926.665 1204.34C925.252 1206 923.746 1207.01 922.474 1206.83C918.328 1206.24 920.253 1193.89 912.57 1188.36C908.223 1185.24 902.363 1185.41 895.438 1187.03C818.344 1204.97 781.039 1267.97 781.039 1267.97C776.353 1275.88 772.276 1284.14 768.844 1292.67C780.081 1273.21 794.493 1255.76 811.485 1241.04C811.633 1240.92 835.994 1220.49 887.96 1204.84C892.521 1203.28 897.379 1202.78 902.161 1203.4C913.563 1204.96 916.663 1212.26 923.053 1212.79C924.884 1210.28 926.12 1207.39 926.665 1204.34Z" fill="#282724"/>
<path opacity="0.16" d="M1122.83 1227.34C1106.88 1206.67 1084.79 1191.57 1059.73 1184.22C1055.06 1182.74 1022.89 1172.56 1015.03 1183.69C1012.11 1187.82 1012.86 1194.42 1008.8 1195.75C1008.56 1195.79 1008.31 1195.8 1008.06 1195.8C1007.83 1199.6 1008.61 1203.4 1010.32 1206.8C1013.26 1203.92 1015.09 1198.48 1020.23 1194.83C1034.57 1184.63 1056.29 1191.45 1065.81 1194.43C1087.71 1201.3 1101.51 1214.68 1114.23 1227.01C1123.47 1235.98 1131.81 1245.83 1139.12 1256.43C1135.05 1246.03 1129.57 1236.24 1122.83 1227.34Z" fill="#282724"/>
<path opacity="0.16" d="M1221.62 1292.38C1221.62 1292.32 1221.57 1292.27 1221.57 1292.21C1217.8 1231.66 1172.21 1172.9 1133.84 1141.75C1133.79 1141.7 1132.04 1140.28 1128.76 1138.03C1126.46 1136.39 1123.4 1134.37 1119.74 1132.13C1119.08 1131.69 1118.37 1131.26 1117.61 1130.82C1116.84 1130.33 1116.02 1129.89 1115.2 1129.4C1106.34 1124.28 1097.05 1119.93 1087.44 1116.39C1086.23 1115.95 1085.03 1115.52 1083.78 1115.13C1081.1 1114.2 1078.36 1113.39 1075.52 1112.57C1073.44 1112.02 1071.37 1111.47 1069.24 1110.98C1063.53 1109.69 1057.74 1108.79 1051.91 1108.3C1045.41 1107.76 1035.35 1106.88 1028.68 1113.66C1023.71 1118.74 1023.71 1125.03 1018.9 1126.28C1014.52 1127.43 1008.89 1122.84 1006.82 1118.03C1005.45 1114.7 1004.63 1110.27 1006.11 1109.4C1007.91 1108.41 1010.81 1113.99 1015.62 1114.75C1022.56 1115.79 1028.57 1106.06 1032.34 1102.18C1050 1084.25 1103.62 1108.79 1109.96 1111.75C1156.36 1133.44 1181.94 1170.28 1191.78 1186.4C1211.06 1218.41 1221.37 1255.01 1221.62 1292.38Z" fill="#282724"/>
<path opacity="0.16" d="M935.159 1113.5C936.034 1106.23 938.384 1104.81 937.346 1101.91C935.651 1097.21 927.726 1095.62 919.418 1095.02C876.949 1091.96 839.89 1109.94 839.89 1109.94C804.033 1127.32 759.707 1148.8 730.465 1200.61C723.948 1212.15 708.641 1239.4 706.111 1272.85C706.953 1278.23 707.84 1283.59 708.88 1288.94C711.789 1303.61 716.467 1317.86 722.812 1331.4C721.475 1325.95 720.102 1319.95 719.26 1314.35C717.243 1300.29 717.892 1285.98 721.173 1272.16V1272.1C731.012 1228.11 763.369 1186.73 794.907 1159.08C799.935 1154.71 804.964 1150.66 809.828 1147C809.858 1146.97 809.896 1146.95 809.938 1146.94C810 1146.88 810.074 1146.82 810.156 1146.78C826.387 1135.58 844.253 1126.95 863.12 1121.2C865.306 1120.55 867.547 1119.94 869.788 1119.34C871.428 1118.91 873.013 1118.52 874.598 1118.2C877.058 1117.65 879.627 1117.1 882.196 1116.67C886.459 1115.96 890.832 1115.35 895.259 1115.03C900.779 1114.59 914.006 1113 919.418 1120.16C922.697 1124.48 921.495 1130.44 925.266 1131.86C926.909 1132.2 928.617 1132.04 930.166 1131.39C931.716 1130.75 933.037 1129.66 933.957 1128.25C934.214 1127.93 934.434 1127.58 934.613 1127.21C936.143 1124.04 934.23 1120.98 935.159 1113.5Z" fill="#282724"/>
<path opacity="0.16" d="M934.613 1127.21C934.434 1127.58 934.214 1127.93 933.957 1128.25C933.037 1129.65 931.717 1130.75 930.167 1131.39C928.617 1132.03 926.91 1132.2 925.267 1131.86C921.495 1130.44 922.698 1124.48 919.418 1120.16C914.007 1113 900.78 1114.59 895.26 1115.02C890.832 1115.35 886.46 1115.95 882.196 1116.66C879.627 1117.1 877.058 1117.65 874.599 1118.19C873.014 1118.52 871.429 1118.91 869.789 1119.34C867.548 1119.94 865.307 1120.54 863.121 1121.2C844.253 1126.95 826.388 1135.58 810.157 1146.78C810.075 1146.82 810.001 1146.88 809.939 1146.94C809.897 1146.95 809.859 1146.97 809.829 1147C804.476 1150.53 799.478 1154.58 794.908 1159.08C763.37 1186.73 731.012 1228.11 721.174 1272.1C724.113 1250.62 730.732 1229.8 740.742 1210.56C787.037 1122.29 897.227 1087.09 917.505 1106.99C921.331 1110.71 928.164 1122.46 932.154 1120.93C934.832 1119.94 934.34 1113.49 935.16 1113.49C935.98 1113.55 938.111 1121.2 934.613 1127.21Z" fill="#282724"/>
<path d="M929.431 1051.61C927.8 1055.78 922.108 1057.19 921.222 1057.41C911.282 1059.88 900.87 1049.74 897.731 1047.24C875.938 1029.87 813.135 1056.2 773.231 1084.04C752.681 1098.37 707.176 1131.07 688.665 1190.52C674.781 1235.11 684.891 1266.47 687.129 1272.97C689.537 1279.96 700.4 1311.48 720.348 1314.22C732.018 1315.83 742.198 1306.95 743.387 1308.86C744.614 1310.84 735.219 1322.61 723.295 1324.13C707.838 1326.1 694.425 1310.03 689.397 1304.01C664.519 1274.2 658.309 1201.79 688.182 1141.38C747.594 1021.23 921.063 1006.56 927.637 1018.05C930.088 1022.52 931.155 1027.61 930.702 1032.69C930.439 1034.66 929.999 1035.63 929.835 1037.09C929.776 1037.66 929.758 1038.24 929.782 1038.82C929.872 1046.13 930.368 1049.21 929.431 1051.61Z" fill="#FFEECC" stroke="#282724" stroke-width="0.1687" stroke-miterlimit="10"/>
<path opacity="0.1" d="M930.702 1032.69C931.155 1027.61 930.088 1022.52 927.637 1018.05C921.063 1006.56 747.594 1021.23 688.182 1141.38C658.309 1201.79 664.519 1274.2 689.397 1304.01C694.425 1310.03 707.838 1326.1 723.295 1324.13C735.218 1322.61 744.614 1310.84 743.387 1308.86C743.038 1308.3 741.844 1308.71 740.137 1309.47C723.326 1321.94 702.725 1315.68 688.794 1296.44C672.3 1273.66 671.04 1246.78 671.118 1219.58C670.954 1215.02 672.356 1210.54 675.093 1206.88C677.829 1203.23 681.733 1200.62 686.158 1199.49C686.895 1196.56 687.712 1193.58 688.665 1190.52C707.176 1131.07 752.682 1098.37 773.232 1084.03C813.135 1056.2 875.938 1029.87 897.732 1047.23C900.87 1049.74 911.282 1059.88 921.222 1057.41C922.108 1057.19 927.8 1055.78 929.431 1051.61C930.37 1049.21 929.872 1046.13 929.782 1038.82C929.758 1038.24 929.776 1037.66 929.835 1037.09C929.999 1035.63 930.439 1034.66 930.702 1032.69Z" fill="#282724"/>
<path d="M1006.44 1047.51C1007.8 1052.03 1013.98 1054.65 1018.25 1055.17C1029.14 1056.51 1038.22 1047.1 1041.29 1044.48C1062.67 1026.24 1124.27 1053.9 1163.41 1083.13C1183.57 1098.19 1228.21 1132.53 1246.36 1194.98C1259.98 1241.82 1250.07 1274.76 1247.87 1281.58C1244.47 1292.14 1235.47 1319.54 1215.29 1324.91C1199.49 1329.11 1184.37 1317.8 1183.32 1319.94C1182.29 1322.08 1196.12 1335.64 1212.39 1335.32C1229.13 1334.98 1240.98 1320.16 1245.64 1314.18C1269.08 1284.11 1279.07 1209.21 1246.84 1143.36C1186.99 1021.11 1016.46 1000.13 1009.3 1012.48C1006.75 1017.56 1005.7 1023.26 1006.28 1028.9C1006.76 1031.24 1007.09 1033.6 1007.26 1035.98C1007.48 1042.62 1005.5 1044.42 1006.44 1047.51Z" fill="#FFEECC" stroke="#282724" stroke-width="0.1687" stroke-miterlimit="10"/>
<path opacity="0.1" d="M1225.19 1326.31C1216.45 1330.13 1206.86 1331.57 1197.38 1330.49C1195.89 1330.26 1194.41 1329.95 1192.95 1329.56C1198.75 1333.28 1205.5 1335.27 1212.39 1335.32C1229.13 1334.98 1240.98 1320.16 1245.64 1314.18C1256.66 1300.05 1264.63 1275.95 1266.71 1247.6C1264.53 1258.75 1261.32 1269.67 1257.11 1280.22C1248.91 1300.76 1241.69 1318.84 1225.19 1326.31Z" fill="#282724"/>
<path d="M930.701 1032.69C931.154 1027.61 930.087 1022.52 927.636 1018.05C921.063 1006.56 747.594 1021.23 688.182 1141.38C677.532 1163.19 671.009 1186.78 668.941 1210.97C672.421 1221.85 676.616 1234.38 681.925 1246.81C680.529 1227.79 682.817 1208.67 688.664 1190.52C707.175 1131.07 752.681 1098.37 773.231 1084.04C813.134 1056.2 875.937 1029.87 897.731 1047.24C900.869 1049.74 911.281 1059.88 921.221 1057.41C922.107 1057.19 927.799 1055.78 929.43 1051.61C930.369 1049.21 929.871 1046.13 929.781 1038.82C929.757 1038.24 929.775 1037.67 929.834 1037.09C929.999 1035.63 930.438 1034.66 930.701 1032.69Z" fill="#F4D58C" stroke="#282724" stroke-width="0.1687" stroke-miterlimit="10"/>
<path d="M1246.36 1194.98C1252.34 1214.86 1254.52 1235.68 1252.77 1256.36C1256.79 1247.58 1260.32 1238.58 1263.33 1229.4C1264.14 1226.92 1265.38 1224.59 1266.98 1222.53C1265.66 1195.05 1258.81 1168.13 1246.84 1143.36C1186.99 1021.11 1016.46 1000.13 1009.29 1012.49C1006.75 1017.56 1005.7 1023.26 1006.28 1028.91C1006.76 1031.24 1007.09 1033.61 1007.26 1035.99C1007.48 1042.62 1005.5 1044.43 1006.44 1047.51C1007.8 1052.03 1013.98 1054.65 1018.25 1055.18C1029.14 1056.51 1038.22 1047.1 1041.29 1044.48C1062.67 1026.24 1124.27 1053.9 1163.41 1083.14C1183.57 1098.2 1228.21 1132.53 1246.36 1194.98Z" fill="#F4D58C" stroke="#282724" stroke-width="0.1687" stroke-miterlimit="10"/>
<path opacity="0.1" d="M930.701 1032.69C931.154 1027.61 930.087 1022.52 927.636 1018.05C921.063 1006.56 747.594 1021.23 688.182 1141.38C677.532 1163.19 671.009 1186.78 668.941 1210.97C672.421 1221.85 676.616 1234.38 681.925 1246.81C680.529 1227.79 682.817 1208.67 688.664 1190.52C707.175 1131.07 752.681 1098.37 773.231 1084.04C813.134 1056.2 875.937 1029.87 897.731 1047.24C900.869 1049.74 911.281 1059.88 921.221 1057.41C922.107 1057.19 927.799 1055.78 929.43 1051.61C930.369 1049.21 929.871 1046.13 929.781 1038.82C929.757 1038.24 929.775 1037.67 929.834 1037.09C929.999 1035.63 930.438 1034.66 930.701 1032.69Z" fill="#282724"/>
<path opacity="0.1" d="M1246.36 1194.98C1252.34 1214.86 1254.52 1235.68 1252.77 1256.36C1256.79 1247.58 1260.32 1238.58 1263.33 1229.4C1264.14 1226.92 1265.38 1224.59 1266.98 1222.53C1265.66 1195.05 1258.81 1168.13 1246.84 1143.36C1186.99 1021.11 1016.46 1000.13 1009.29 1012.49C1006.75 1017.56 1005.7 1023.26 1006.28 1028.91C1006.76 1031.24 1007.09 1033.61 1007.26 1035.99C1007.48 1042.62 1005.5 1044.43 1006.44 1047.51C1007.8 1052.03 1013.98 1054.65 1018.25 1055.18C1029.14 1056.51 1038.22 1047.1 1041.29 1044.48C1062.67 1026.24 1124.27 1053.9 1163.41 1083.14C1183.57 1098.2 1228.21 1132.53 1246.36 1194.98Z" fill="#282724"/>
<path opacity="0.16" d="M916.704 1027.93C913.085 1019.63 748.926 1035.86 690.392 1148.28C679.524 1169.42 672.806 1192.44 670.602 1216.1C671.882 1220.09 673.264 1224.15 674.748 1228.3C677.068 1234.78 679.477 1240.95 681.925 1246.81C680.529 1227.78 682.817 1208.67 688.665 1190.52C707.175 1131.06 752.681 1098.37 773.231 1084.03C813.134 1056.2 875.937 1029.87 897.731 1047.23C900.869 1049.73 911.282 1059.88 921.221 1057.41C925.619 1056.32 929.81 1053.24 929.43 1051.61C929.035 1049.91 924.045 1051.26 919.217 1047.74C916.626 1045.8 914.759 1043.05 913.913 1039.93C912.495 1033.66 917.421 1029.57 916.704 1027.93Z" fill="#282724"/>
<path opacity="0.16" d="M1246.36 1194.98C1252.34 1214.85 1254.52 1235.68 1252.77 1256.36C1256.79 1247.58 1260.32 1238.58 1263.33 1229.4C1264.14 1226.92 1265.38 1224.59 1266.98 1222.52C1264.75 1196.74 1257.61 1171.62 1245.94 1148.51C1190.66 1040.26 1045.51 1009.66 1025.84 1033.46C1023.57 1036.2 1018.46 1045.13 1013.86 1044.12C1008.48 1042.94 1006.73 1028.79 1006.28 1028.91C1006.06 1028.97 1007.13 1032.01 1007.26 1035.99C1007.48 1042.62 1005.5 1044.43 1006.44 1047.51C1007.8 1052.03 1013.98 1054.65 1018.25 1055.17C1029.14 1056.51 1038.22 1047.1 1041.29 1044.48C1062.67 1026.24 1124.27 1053.9 1163.41 1083.14C1183.57 1098.19 1228.21 1132.53 1246.36 1194.98Z" fill="#282724"/>
<path d="M934.821 957.133C938.13 964.365 933.863 977.909 926.756 980.386C924.965 980.762 923.115 980.757 921.325 980.372C919.536 979.987 917.848 979.23 916.37 978.151C901.699 969.242 839.617 976.582 778.849 1014.48C736.645 1040.8 684.295 1073.45 673.021 1134.46C666.24 1171.15 674.725 1215.9 695.965 1250.56C698.52 1254.73 700.849 1258.08 702.528 1260.4C700.726 1263.49 699.558 1266.9 699.091 1270.45C698.625 1273.99 698.869 1277.6 699.811 1281.05C689.675 1271.02 680.979 1259.64 673.975 1247.23C664.697 1230.09 658.455 1211.47 655.524 1192.21C652.821 1175.65 644.104 1122.25 673.134 1070.05C689.558 1040.51 710.304 1025.31 738.62 1004.56C757.092 991.031 804.54 959.219 870.144 950.086C885.095 948.005 927.918 942.044 934.821 957.133Z" fill="#FFEECC" stroke="#282724" stroke-width="0.1687" stroke-miterlimit="10"/>
<path opacity="0.1" d="M698.995 1271.27C699.315 1268.1 700.194 1265.02 701.589 1262.17C684.616 1248.31 674.389 1226.53 667.407 1206.25C660.698 1186.76 654.224 1166.89 652.368 1146.49C651.831 1161.8 652.889 1177.12 655.523 1192.21C658.454 1211.47 664.696 1230.09 673.974 1247.23C680.979 1259.64 689.674 1271.02 699.81 1281.05C698.943 1277.86 698.667 1274.55 698.995 1271.27Z" fill="#282724"/>
<path opacity="0.1" d="M934.822 957.132C927.919 942.043 885.095 948.005 870.143 950.087C804.539 959.22 757.091 991.031 738.62 1004.56C710.303 1025.31 689.558 1040.51 673.133 1070.05C665.621 1083.64 660.094 1098.24 656.723 1113.39C657.491 1116.1 657.702 1118.94 657.342 1121.73C653.18 1156.58 659.982 1182.04 678.165 1210.16C670.618 1185.66 668.857 1159.75 673.02 1134.46C684.294 1073.45 736.645 1040.8 778.849 1014.48C839.617 976.581 901.699 969.242 916.369 978.15C917.847 979.23 919.535 979.986 921.325 980.371C923.114 980.756 924.964 980.761 926.755 980.385C933.863 977.909 938.131 964.364 934.822 957.132Z" fill="#282724"/>
<path d="M995.672 963.242C992.363 970.474 996.631 984.018 1003.74 986.495C1005.53 986.871 1007.38 986.866 1009.17 986.481C1010.96 986.096 1012.65 985.339 1014.12 984.26C1028.79 975.351 1090.88 982.691 1151.64 1020.59C1190.12 1044.58 1242.89 1077.5 1257.47 1140.57C1259.44 1149.09 1272.9 1211.36 1238.04 1258.74C1235.34 1262.39 1232.43 1265.88 1229.31 1269.17C1231.85 1270.78 1233.87 1273.11 1235.11 1275.85C1236.01 1278.14 1236.39 1280.6 1236.24 1283.05C1236.08 1285.5 1235.39 1287.89 1234.2 1290.04C1242.78 1278.54 1250.26 1266.25 1256.52 1253.34C1265.28 1235.98 1271.49 1217.45 1274.97 1198.32C1277.67 1181.76 1286.39 1128.36 1257.36 1076.16C1240.93 1046.62 1220.19 1031.42 1191.87 1010.67C1173.4 997.141 1125.95 965.329 1060.35 956.196C1045.4 954.115 1002.58 948.153 995.672 963.242Z" fill="#FFEECC" stroke="#282724" stroke-width="0.1687" stroke-miterlimit="10"/>
<path opacity="0.1" d="M1233.68 1273.33C1234.24 1274.12 1234.72 1274.97 1235.11 1275.85C1236.01 1278.14 1236.4 1280.59 1236.24 1283.05C1236.08 1285.5 1235.39 1287.89 1234.21 1290.04C1242.79 1278.54 1250.26 1266.25 1256.52 1253.33C1265.28 1235.97 1271.49 1217.44 1274.97 1198.31C1277.62 1183.13 1278.68 1167.72 1278.12 1152.32C1275.22 1193.27 1262.39 1244.76 1233.68 1273.33Z" fill="#282724"/>
<path d="M934.821 957.132C927.918 942.043 885.094 948.005 870.142 950.087C804.538 959.22 757.09 991.031 738.619 1004.56C710.303 1025.31 689.557 1040.51 673.132 1070.05C663.226 1088.02 656.74 1107.67 654.004 1128C661.546 1145.71 666.044 1166.79 671.916 1187.19C672.342 1187.82 672.808 1188.41 673.248 1189.04C670 1171 669.922 1152.53 673.018 1134.46C684.293 1073.45 736.645 1040.8 778.848 1014.48C839.616 976.581 901.698 969.242 916.368 978.15C917.846 979.23 919.535 979.986 921.324 980.371C923.113 980.756 924.963 980.761 926.754 980.385C933.863 977.909 938.13 964.364 934.821 957.132Z" fill="#F4D58C" stroke="#282724" stroke-width="0.1687" stroke-miterlimit="10"/>
<path d="M1257.47 1140.56C1259.84 1151.23 1261.21 1162.09 1261.55 1173.01C1265.82 1163.23 1268.81 1152.94 1270.43 1142.39C1270.95 1137.83 1272.84 1133.53 1275.84 1130.06C1272.86 1111.15 1266.6 1092.91 1257.36 1076.15C1240.94 1046.61 1220.19 1031.42 1191.87 1010.67C1173.4 997.138 1125.96 965.326 1060.35 956.192C1045.4 954.11 1002.58 948.149 995.672 963.238C992.363 970.47 996.631 984.015 1003.74 986.491C1005.53 986.867 1007.38 986.862 1009.17 986.477C1010.96 986.092 1012.65 985.336 1014.12 984.257C1028.79 975.348 1090.88 982.687 1151.64 1020.59C1190.12 1044.58 1242.9 1077.5 1257.47 1140.56Z" fill="#F4D58C" stroke="#282724" stroke-width="0.1687" stroke-miterlimit="10"/>
<path opacity="0.1" d="M934.821 957.132C927.918 942.043 885.094 948.005 870.142 950.087C804.538 959.22 757.09 991.031 738.619 1004.56C710.303 1025.31 689.557 1040.51 673.132 1070.05C663.226 1088.02 656.74 1107.67 654.004 1128C661.546 1145.71 666.044 1166.79 671.916 1187.19C672.342 1187.82 672.808 1188.41 673.248 1189.04C670 1171 669.922 1152.53 673.018 1134.46C684.293 1073.45 736.645 1040.8 778.848 1014.48C839.616 976.581 901.698 969.242 916.368 978.15C917.846 979.23 919.535 979.986 921.324 980.371C923.113 980.756 924.963 980.761 926.754 980.385C933.863 977.909 938.13 964.364 934.821 957.132Z" fill="#282724"/>
<path opacity="0.1" d="M1257.47 1140.56C1259.84 1151.23 1261.21 1162.09 1261.55 1173.01C1265.82 1163.23 1268.81 1152.94 1270.43 1142.39C1270.95 1137.83 1272.84 1133.53 1275.84 1130.06C1272.86 1111.15 1266.6 1092.91 1257.36 1076.15C1240.94 1046.61 1220.19 1031.42 1191.87 1010.67C1173.4 997.138 1125.96 965.326 1060.35 956.192C1045.4 954.11 1002.58 948.149 995.672 963.238C992.363 970.47 996.631 984.015 1003.74 986.491C1005.53 986.867 1007.38 986.862 1009.17 986.477C1010.96 986.092 1012.65 985.336 1014.12 984.257C1028.79 975.348 1090.88 982.687 1151.64 1020.59C1190.12 1044.58 1242.9 1077.5 1257.47 1140.56Z" fill="#282724"/>
<path opacity="0.16" d="M926.457 971.395C922.154 971.087 919.399 965.306 918.858 964.357C912.365 952.959 832.728 949.287 748.661 1004.27C699.77 1036.25 680.137 1067.95 675.924 1074.97C666.048 1091.47 658.662 1109.34 654.004 1128C661.546 1145.71 666.044 1166.79 671.916 1187.19C672.342 1187.82 672.808 1188.41 673.248 1189.03C670 1170.99 669.922 1152.52 673.018 1134.46C684.293 1073.45 736.645 1040.8 778.848 1014.48C839.616 976.58 901.698 969.24 916.368 978.149C917.293 978.711 922.242 982.005 926.754 980.384C932.442 978.341 934.878 969.41 933.532 968.428C932.55 967.713 930.153 971.66 926.457 971.395Z" fill="#282724"/>
<path opacity="0.16" d="M1257.47 1140.56C1259.85 1151.23 1261.21 1162.09 1261.55 1173.01C1265.82 1163.23 1268.81 1152.94 1270.43 1142.4C1270.96 1137.83 1272.84 1133.54 1275.84 1130.06C1271.6 1113.79 1265.19 1098.17 1256.78 1083.61C1249.41 1070.88 1231.67 1043.78 1184.39 1012.39C1107.24 961.166 1023.72 946.506 1011.37 965.085C1009.45 967.983 1005.6 977.182 1001.1 976.737C997.282 976.36 995.517 969.3 994.925 969.545C994.108 969.883 996.121 983.922 1003.74 986.493C1005.53 986.862 1007.38 986.854 1009.17 986.469C1010.96 986.085 1012.64 985.332 1014.12 984.258C1028.8 975.349 1090.88 982.689 1151.64 1020.59C1190.12 1044.58 1242.9 1077.5 1257.47 1140.56Z" fill="#282724"/>
<path d="M931.693 929.394C928.401 930.23 924.766 925.924 923.694 924.788C911.666 912.047 859.267 913.854 799.771 940.647C764.313 956.614 730.584 971.805 702.483 1009.31C688.755 1027.63 657.361 1069.53 666.832 1123.61C673.982 1164.43 700.562 1190.19 711.237 1199.5C711.528 1203.73 710.247 1207.92 707.64 1211.27C705.777 1213.83 704.008 1218.86 704.66 1229.75C689.573 1214.1 677.216 1196.04 668.103 1176.31C652.21 1142.79 646.688 1105.29 652.244 1068.62C661.213 1012.89 694.308 978.421 708.304 964.249C755.053 916.912 809.248 907.087 845.874 900.447C855.892 898.631 927.906 886.097 936.972 907.087C940.091 914.308 936.873 928.078 931.693 929.394Z" fill="#FFEECC" stroke="#282724" stroke-width="0.1687" stroke-miterlimit="10"/>
<path opacity="0.1" d="M709.709 1207.85C708.98 1207.41 708.275 1206.93 707.597 1206.42C671.026 1175.92 650.305 1126.97 650.897 1079.09C647.85 1112.45 653.791 1146.02 668.103 1176.31C677.215 1196.04 689.572 1214.1 704.66 1229.75C704.009 1218.86 705.778 1213.83 707.64 1211.27C708.451 1210.21 709.144 1209.06 709.709 1207.85Z" fill="#282724"/>
<path opacity="0.1" d="M936.971 907.089C927.905 886.101 855.892 898.636 845.873 900.449C809.248 907.089 755.052 916.914 708.303 964.251C690.315 981.787 675.707 1002.48 665.209 1025.31C669.063 1022.78 673.567 1021.43 678.175 1021.41C682.783 1021.39 687.296 1022.72 691.167 1025.22C695.385 1018.82 699.389 1013.44 702.483 1009.31C730.582 971.806 764.312 956.616 799.771 940.648C859.267 913.855 911.666 912.049 923.694 924.79C924.766 925.925 928.401 930.231 931.692 929.395C936.873 928.081 940.09 914.311 936.971 907.089Z" fill="#282724"/>
<path opacity="0.1" d="M936.972 907.089C927.906 886.101 855.892 898.636 845.874 900.449C809.248 907.089 755.052 916.914 708.304 964.251C686.3 985.506 669.517 1011.57 659.269 1040.39C659.746 1045.58 659.531 1050.81 658.631 1055.95C657.391 1084.3 656.121 1110.84 669.637 1135.6C668.494 1131.66 667.557 1127.65 666.832 1123.61C657.361 1069.53 688.755 1027.63 702.483 1009.31C730.583 971.806 764.313 956.616 799.771 940.648C859.267 913.855 911.666 912.049 923.694 924.79C924.766 925.925 928.401 930.231 931.693 929.395C936.873 928.081 940.091 914.311 936.972 907.089Z" fill="#282724"/>
<path d="M1001.37 931.401C1004.66 932.237 1008.3 927.931 1009.37 926.795C1021.39 914.054 1073.79 915.861 1133.29 942.654C1169.49 958.957 1202.82 973.967 1230.58 1011.31C1242.47 1027.31 1273.47 1069.03 1266.23 1125.62C1260.57 1169.78 1234.73 1198.72 1224.31 1209.23C1226.39 1211.11 1228.1 1213.35 1229.38 1215.85C1230.92 1219.3 1231.82 1223 1232.03 1226.78C1232.4 1229.56 1233.05 1234.38 1234.01 1241.2C1247.07 1224.21 1257.76 1205.52 1265.76 1185.64C1273.87 1165.47 1290.17 1123.37 1280.82 1070.63C1270.76 1013.92 1237.07 978.723 1224.76 966.256C1178.01 918.92 1123.81 909.095 1087.19 902.455C1077.17 900.639 1005.16 888.105 996.09 909.095C992.971 916.315 996.189 930.086 1001.37 931.401Z" fill="#FFEECC" stroke="#282724" stroke-width="0.1687" stroke-miterlimit="10"/>
<path opacity="0.1" d="M1281.11 1072.6C1283.5 1095.49 1280.99 1118.62 1273.75 1140.47C1265.29 1166.41 1252.35 1198.75 1227.93 1213.41C1228.47 1214.19 1228.95 1215 1229.38 1215.84C1230.92 1219.3 1231.82 1223 1232.03 1226.78C1232.4 1229.56 1233.05 1234.38 1234.01 1241.2C1247.07 1224.21 1257.76 1205.51 1265.77 1185.63C1273.77 1165.72 1289.71 1124.41 1281.11 1072.6Z" fill="#282724"/>
<path opacity="0.1" d="M1230.58 1011.31C1242.47 1027.31 1273.47 1069.03 1266.23 1125.62C1264.93 1135.71 1262.5 1145.63 1258.98 1155.18C1269.99 1137.74 1276.21 1117.71 1277 1097.1C1277.1 1081.81 1274.67 1066.6 1269.8 1052.11C1266.55 1041.27 1262.26 1030.78 1257 1020.77C1254.5 1017.6 1253.11 1013.69 1253.04 1009.65C1253.03 1007.37 1253.47 1005.1 1254.33 1002.98C1245.84 989.694 1235.93 977.38 1224.76 966.256C1178.01 918.919 1123.81 909.094 1087.19 902.454C1077.17 900.638 1005.16 888.106 996.09 909.094C992.971 916.317 996.187 930.086 1001.37 931.402C1004.66 932.238 1008.3 927.932 1009.37 926.796C1021.4 914.055 1073.8 915.861 1133.29 942.654C1169.49 958.955 1202.82 973.966 1230.58 1011.31Z" fill="#282724"/>
<path d="M936.972 907.089C927.906 886.101 855.892 898.636 845.874 900.449C809.248 907.089 755.052 916.914 708.304 964.251C696.685 976.017 671.942 1001.82 658.729 1042.11C658.88 1043.3 659.03 1044.46 659.18 1045.64C662.638 1056.36 665.536 1067.25 667.861 1078.27C674.754 1046.39 692.901 1022.09 702.483 1009.31C730.582 971.805 764.312 956.615 799.77 940.647C859.266 913.854 911.666 912.048 923.694 924.789C924.766 925.924 928.401 930.23 931.692 929.394C936.873 928.081 940.091 914.311 936.972 907.089Z" fill="#F4D58C" stroke="#282724" stroke-width="0.1687" stroke-miterlimit="10"/>
<path d="M1230.58 1011.31C1239.33 1023.08 1258.38 1048.82 1264.97 1084.12C1268.15 1069.64 1269.98 1054.89 1270.43 1040.08C1270.47 1038.63 1270.64 1037.18 1270.94 1035.76C1260.48 1009.67 1244.76 986.012 1224.76 966.256C1178.01 918.919 1123.81 909.094 1087.19 902.454C1077.17 900.638 1005.16 888.106 996.09 909.094C992.971 916.317 996.187 930.086 1001.37 931.402C1004.66 932.238 1008.3 927.932 1009.37 926.796C1021.4 914.055 1073.8 915.861 1133.29 942.654C1169.49 958.955 1202.82 973.966 1230.58 1011.31Z" fill="#F4D58C" stroke="#282724" stroke-width="0.1687" stroke-miterlimit="10"/>
<path opacity="0.1" d="M936.972 907.089C927.906 886.101 855.892 898.636 845.874 900.449C809.248 907.089 755.052 916.914 708.304 964.251C696.685 976.017 671.942 1001.82 658.729 1042.11C658.88 1043.3 659.03 1044.46 659.18 1045.64C662.638 1056.36 665.536 1067.25 667.861 1078.27C674.754 1046.39 692.901 1022.09 702.483 1009.31C730.582 971.805 764.312 956.615 799.77 940.647C859.266 913.854 911.666 912.048 923.694 924.789C924.766 925.924 928.401 930.23 931.692 929.394C936.873 928.081 940.091 914.311 936.972 907.089Z" fill="#282724"/>
<path opacity="0.1" d="M1230.58 1011.31C1239.33 1023.08 1258.38 1048.82 1264.97 1084.12C1268.15 1069.64 1269.98 1054.89 1270.43 1040.08C1270.47 1038.63 1270.64 1037.18 1270.94 1035.76C1260.48 1009.67 1244.76 986.012 1224.76 966.256C1178.01 918.919 1123.81 909.094 1087.19 902.454C1077.17 900.638 1005.16 888.106 996.09 909.094C992.971 916.317 996.187 930.086 1001.37 931.402C1004.66 932.238 1008.3 927.932 1009.37 926.796C1021.4 914.055 1073.8 915.861 1133.29 942.654C1169.49 958.955 1202.82 973.966 1230.58 1011.31Z" fill="#282724"/>
<path opacity="0.16" d="M936.972 907.088C935.963 907.059 936.354 915.736 932.988 916.858C929.935 917.875 925.52 912.095 924.833 911.269C913.285 897.381 796.339 889.927 710.04 972.533C689.127 992.661 671.778 1016.19 658.729 1042.11C658.88 1043.3 659.03 1044.46 659.18 1045.64C662.638 1056.36 665.536 1067.25 667.861 1078.28C674.754 1046.39 692.901 1022.1 702.483 1009.31C730.582 971.806 764.312 956.616 799.77 940.648C859.266 913.856 911.666 912.049 923.694 924.79C924.498 925.643 928.183 930.171 931.692 929.396C936.418 928.353 937.845 918.375 937.994 917.333C938.766 911.938 937.723 907.109 936.972 907.088Z" fill="#282724"/>
<path opacity="0.16" d="M1230.58 1011.31C1239.33 1023.08 1258.38 1048.82 1264.97 1084.12C1268.15 1069.64 1269.98 1054.89 1270.43 1040.07C1270.47 1038.62 1270.65 1037.18 1270.94 1035.76C1251.97 1001.12 1225.06 971.448 1192.43 949.181C1159.65 926.87 1132.58 919.929 1088.91 908.734C1076.81 905.631 1024.38 892.728 1010.9 909.933C1009.59 911.61 1004.41 918.974 1000.7 917.853C997.231 916.804 997.314 909.007 996.092 909.091C994.91 909.173 993.509 916.556 995.89 923.736C996.685 926.131 998.206 930.716 1001.37 931.399C1004.94 932.17 1008.67 927.536 1009.37 926.794C1021.4 914.052 1073.8 915.859 1133.29 942.652C1169.49 958.952 1202.83 973.963 1230.58 1011.31Z" fill="#282724"/>
<path d="M942.864 837.967C939.137 832.874 931.887 831.182 922.557 831.299C762.623 833.307 688.457 937.89 688.457 937.89C677.872 951.793 669.579 967.301 663.893 983.823C662.492 988.059 638.232 1065.55 685.451 1125.72C695.877 1138.91 708.646 1150.06 723.116 1158.62C721.91 1154.62 721.91 1150.34 723.116 1146.33C725.047 1140.37 729.084 1138.55 731.839 1131.66C733.087 1128.51 733.759 1125.15 733.821 1121.75C729.263 1119.3 724.89 1116.52 720.738 1113.43C705.714 1101.96 693.733 1086.99 685.849 1069.82C677.346 1052.61 672.789 1033.73 672.51 1014.55C673.797 922.866 845.15 868.648 858.528 864.415C877.524 858.405 907.823 848.818 925.508 860.907C928.182 862.735 933.1 866.79 937.612 865.247C944.924 862.745 948.958 846.296 942.864 837.967Z" fill="#FFEECC" stroke="#282724" stroke-width="0.1687" stroke-miterlimit="10"/>
<path opacity="0.1" d="M659.836 1000.36C654.719 1027.13 650.482 1081.16 685.451 1125.72C695.877 1138.91 708.646 1150.06 723.117 1158.62C721.911 1154.62 721.911 1150.34 723.117 1146.33C725.047 1140.37 729.085 1138.55 731.839 1131.66C732.548 1129.88 733.069 1128.04 733.394 1126.15C710.965 1113.72 692.298 1095.48 679.354 1073.35C666.41 1051.21 659.668 1026 659.836 1000.36Z" fill="#282724"/>
<path opacity="0.1" d="M942.864 837.967C939.136 832.874 931.887 831.182 922.556 831.299C775.234 833.147 700.743 921.969 689.9 935.976C693.6 935.523 697.355 935.925 700.874 937.152C704.394 938.38 707.584 940.399 710.2 943.054C761.789 895.07 849.127 867.389 858.527 864.414C877.523 858.404 907.821 848.817 925.506 860.906C928.18 862.733 933.098 866.788 937.611 865.246C944.924 862.745 948.958 846.296 942.864 837.967Z" fill="#282724"/>
<path opacity="0.1" d="M942.864 837.967C939.137 832.874 931.887 831.182 922.557 831.299C762.623 833.307 688.457 937.89 688.457 937.89C683.452 944.756 678.845 951.903 674.658 959.296C674.932 962.547 674.423 965.816 673.174 968.83C663.289 993.901 666.525 1019.77 676.342 1043.62C673.844 1034.13 672.556 1024.36 672.508 1014.55C673.795 922.865 845.149 868.648 858.527 864.416C877.523 858.405 907.822 848.818 925.507 860.907C928.181 862.735 933.099 866.79 937.611 865.247C944.924 862.745 948.958 846.296 942.864 837.967Z" fill="#282724"/>
<path d="M995.54 837.351C999.377 832.34 1006.66 830.806 1015.99 831.127C1187.8 837.031 1247.71 942.796 1247.71 942.797C1255.5 956.506 1261.54 971.139 1265.68 986.353C1269.82 1001.6 1286.25 1069.96 1246.62 1130.64C1236.88 1145.47 1224.73 1158.56 1210.67 1169.39C1210.97 1164.66 1210.2 1159.94 1208.42 1155.55C1206.34 1150.54 1203.98 1148.87 1201.67 1143.97C1199.44 1139.13 1198.36 1133.85 1198.51 1128.53C1203.79 1126.78 1208.85 1124.41 1213.57 1121.46C1233.85 1108.75 1241.97 1088.74 1247.44 1074.75C1250.05 1068.06 1258.89 1045.44 1257 1020.77C1249.68 925.188 1086.57 868.167 1081.27 866.314C1080.21 865.941 1079.28 865.632 1079.28 865.631C1060.42 859.208 1030.34 848.963 1012.39 860.664C1009.68 862.433 1004.67 866.379 1000.2 864.738C992.94 862.078 989.265 845.544 995.54 837.351Z" fill="#FFEECC" stroke="#282724" stroke-width="0.1687" stroke-miterlimit="10"/>
<path opacity="0.1" d="M1271.01 1013.84C1269.39 1029.42 1265.79 1044.73 1260.3 1059.4C1249.15 1089.79 1231.13 1123.47 1198.66 1131.55C1198.87 1135.85 1199.89 1140.06 1201.67 1143.97C1203.98 1148.87 1206.33 1150.54 1208.42 1155.55C1210.2 1159.93 1210.97 1164.66 1210.67 1169.38C1224.73 1158.56 1236.88 1145.47 1246.62 1130.64C1274.03 1088.67 1274.62 1043.04 1271.01 1013.84Z" fill="#282724"/>
<path opacity="0.1" d="M1257 1020.77C1257.77 1034.04 1256.23 1047.34 1252.43 1060.07C1269.1 1028.33 1268.85 994.048 1250.18 957.996C1247.76 953.543 1247.01 948.377 1248.04 943.417C1247.92 943.208 1247.82 943.007 1247.71 942.797C1247.71 942.797 1187.8 837.031 1015.99 831.126C1006.66 830.806 999.375 832.34 995.538 837.351C989.263 845.545 992.938 862.078 1000.19 864.738C1004.67 866.379 1009.68 862.433 1012.39 860.664C1030.34 848.963 1060.42 859.208 1079.28 865.632C1079.28 865.632 1080.2 865.942 1081.27 866.314C1086.57 868.167 1249.68 925.187 1257 1020.77Z" fill="#282724"/>
<path d="M942.865 837.967C939.137 832.874 931.888 831.182 922.558 831.299C762.624 833.307 688.458 937.89 688.457 937.89C683.336 944.912 678.636 952.231 674.381 959.808C676.678 963.476 677.712 967.795 677.324 972.106C677.304 972.43 677.29 972.754 677.27 973.077C678.749 975.084 679.895 977.316 680.665 979.687C680.775 980.029 680.859 980.378 680.968 980.72C715.742 909.624 846.89 868.097 858.528 864.415C877.524 858.405 907.823 848.818 925.508 860.907C928.182 862.734 933.1 866.789 937.612 865.247C944.925 862.745 948.959 846.296 942.865 837.967Z" fill="#F4D58C" stroke="#282724" stroke-width="0.1687" stroke-miterlimit="10"/>
<path d="M1252.84 1000.18C1253.74 996.357 1254.43 992.49 1254.89 988.593C1255.44 983.151 1257.96 978.098 1261.98 974.386C1258.19 963.443 1253.42 952.869 1247.71 942.797C1247.71 942.797 1187.8 837.031 1015.99 831.126C1006.66 830.806 999.375 832.34 995.538 837.351C989.263 845.545 992.938 862.078 1000.19 864.738C1004.67 866.379 1009.68 862.433 1012.39 860.664C1030.34 848.963 1060.42 859.208 1079.28 865.632C1079.28 865.632 1080.2 865.942 1081.27 866.314C1086.18 868.03 1226.27 917.06 1252.84 1000.18Z" fill="#F4D58C" stroke="#282724" stroke-width="0.1687" stroke-miterlimit="10"/>
<path opacity="0.1" d="M942.865 837.967C939.137 832.874 931.888 831.182 922.558 831.299C762.624 833.307 688.458 937.89 688.457 937.89C683.336 944.912 678.636 952.231 674.381 959.808C676.678 963.476 677.712 967.795 677.324 972.106C677.304 972.43 677.29 972.754 677.27 973.077C678.749 975.084 679.895 977.316 680.665 979.687C680.775 980.029 680.859 980.378 680.968 980.72C715.742 909.624 846.89 868.097 858.528 864.415C877.524 858.405 907.823 848.818 925.508 860.907C928.182 862.734 933.1 866.789 937.612 865.247C944.925 862.745 948.959 846.296 942.865 837.967Z" fill="#282724"/>
<path opacity="0.1" d="M1252.84 1000.18C1253.74 996.357 1254.43 992.49 1254.89 988.593C1255.44 983.151 1257.96 978.098 1261.98 974.386C1258.19 963.443 1253.42 952.869 1247.71 942.797C1247.71 942.797 1187.8 837.031 1015.99 831.126C1006.66 830.806 999.375 832.34 995.538 837.351C989.263 845.545 992.938 862.078 1000.19 864.738C1004.67 866.379 1009.68 862.433 1012.39 860.664C1030.34 848.963 1060.42 859.208 1079.28 865.632C1079.28 865.632 1080.2 865.942 1081.27 866.314C1086.18 868.03 1226.27 917.06 1252.84 1000.18Z" fill="#282724"/>
<path opacity="0.16" d="M942.865 837.97C941.159 838.094 942.649 850.904 938.301 852.409C934.831 853.609 929.685 846.901 928.561 845.586C912.495 826.806 802.411 839.639 711.371 921.247C698.088 933.152 685.723 946.042 674.381 959.809C676.678 963.477 677.712 967.796 677.324 972.107C677.304 972.431 677.29 972.755 677.27 973.078C678.749 975.085 679.895 977.317 680.665 979.688C680.775 980.03 680.859 980.379 680.968 980.721C715.743 909.625 846.89 868.098 858.528 864.416C877.524 858.406 907.823 848.819 925.507 860.908C929.806 863.846 933.548 866.514 937.612 865.248C944.062 863.237 945.591 852.179 945.689 851.407C946.576 844.411 944.094 837.881 942.865 837.97Z" fill="#282724"/>
<path opacity="0.16" d="M1252.84 1000.17C1253.74 996.354 1254.43 992.486 1254.89 988.589C1255.44 983.148 1257.96 978.095 1261.98 974.382C1260.09 971.069 1255.65 963.45 1249.25 954.374C1170.36 842.498 1023.31 834.118 1009.97 844.44C1009.29 844.974 1005.15 848.498 1001.7 847.256C997.244 845.649 997.456 837.341 995.538 837.348C993.763 837.354 991.297 844.479 992.374 851.643C992.607 853.193 994.212 862.773 1000.19 864.735C1005.17 866.366 1010.6 861.827 1012.39 860.66C1030.34 848.96 1060.42 859.205 1079.28 865.628C1079.28 865.628 1080.2 865.938 1081.27 866.311C1086.18 868.027 1226.27 917.057 1252.84 1000.17Z" fill="#282724"/>
<path d="M939.497 774.385C936.449 766.296 896.093 769.289 852.426 783.205C801.989 799.279 690.614 835.151 670.778 925.146C662.222 963.957 669.917 1019.58 707.424 1051.37C720.01 1061.84 734.86 1069.24 750.8 1072.98C749.624 1067.56 750.331 1061.91 752.805 1056.94C755.272 1052.39 758.787 1050.35 759.68 1045.2C760.12 1042.28 759.722 1039.3 758.534 1036.6C751.283 1035.28 744.247 1032.96 737.622 1029.73C703.554 1013.02 679.928 972.386 681.882 938.742C684.321 896.726 726.085 873.281 800.956 831.25C874.058 790.211 915.808 793.435 925.438 798.466C926.461 799.001 932.866 802.557 936.285 800.098C938.061 798.822 938.31 796.442 939.039 784.49C939.437 777.996 939.631 774.742 939.497 774.385Z" fill="#FFEECC" stroke="#282724" stroke-width="0.1687" stroke-miterlimit="10"/>
<path opacity="0.1" d="M758.806 1047.87C727.072 1039.41 698.383 1021.62 682.495 991.101C668.891 964.963 667.887 935.753 675.683 908.527C673.664 913.947 672.025 919.5 670.778 925.147C662.222 963.958 669.917 1019.58 707.424 1051.37C720.01 1061.84 734.86 1069.24 750.8 1072.98C749.624 1067.56 750.331 1061.91 752.805 1056.94C754.784 1053.29 757.373 1051.19 758.806 1047.87Z" fill="#282724"/>
<path opacity="0.1" d="M714.962 884.457C709.397 878.829 705.361 871.874 703.237 864.25C702.686 864.856 702.09 865.419 701.549 866.031C693.603 883.661 680.304 900.971 678.345 920.191C677.527 929.254 678.759 938.384 681.95 946.907C681.769 944.188 681.746 941.462 681.881 938.741C683.114 917.502 694.432 901.006 714.962 884.457Z" fill="#282724"/>
<path d="M995.972 777.343C998.262 769.722 1046.99 768.31 1103.46 788.145C1144.44 802.54 1249.75 839.533 1266.7 928.809C1273.93 966.877 1266.2 1020.28 1230.06 1055.03C1218.27 1066.24 1204.33 1074.95 1189.09 1080.62C1187.92 1078.52 1186.09 1075.24 1183.74 1071.27C1178.91 1063.07 1177.29 1061.02 1175.95 1057.01C1174.6 1052.92 1174.07 1048.61 1174.39 1044.31C1183.33 1041.83 1191.9 1038.16 1199.86 1033.39C1233.73 1013.03 1254.87 973.004 1255.6 942.405C1258.01 840.552 1035.49 785.745 1013.8 798.947C1012.81 799.547 1004.27 805.14 1000.78 802.408C998.994 801.01 999.59 798.253 999.213 793.006C998.487 782.889 995.298 779.585 995.972 777.343Z" fill="#FFEECC" stroke="#282724" stroke-width="0.1687" stroke-miterlimit="10"/>
<path opacity="0.1" d="M1227.91 857.861C1188.57 818.077 1131.24 797.905 1103.46 788.145C1046.99 768.31 998.262 769.722 995.972 777.343C995.298 779.585 998.486 782.889 999.213 793.006C999.59 798.253 998.994 801.009 1000.78 802.408C1004.27 805.14 1012.81 799.547 1013.8 798.947C1029.18 789.583 1145.57 814.439 1211.1 866.016C1213.08 863.449 1215.63 861.376 1218.55 859.961C1221.46 858.545 1224.67 857.827 1227.91 857.861Z" fill="#282724"/>
<path opacity="0.1" d="M1266.7 928.811C1265.68 923.47 1264.32 918.201 1262.63 913.035C1263.93 923.673 1268.26 968.971 1237.72 1010.43C1222.02 1031.52 1200.52 1047.57 1175.84 1056.64C1175.87 1056.76 1175.91 1056.9 1175.95 1057.01C1177.29 1061.03 1178.91 1063.07 1183.74 1071.27C1186.09 1075.24 1187.93 1078.52 1189.09 1080.63C1204.33 1074.95 1218.27 1066.24 1230.06 1055.03C1266.2 1020.28 1273.93 966.878 1266.7 928.811Z" fill="#282724"/>
<path opacity="0.1" d="M1255.04 932.084C1258.99 908.016 1254.44 883.366 1234.41 867.388C1231.09 864.905 1228.65 861.411 1227.48 857.431C1188.15 817.934 1131.14 797.868 1103.46 788.145C1046.99 768.31 998.262 769.722 995.972 777.343C995.298 779.585 998.486 782.889 999.213 793.006C999.59 798.253 998.994 801.009 1000.78 802.408C1004.27 805.14 1012.81 799.547 1013.8 798.947C1034.74 786.198 1242.94 836.873 1255.04 932.084Z" fill="#282724"/>
<path d="M939.497 774.385C936.449 766.296 896.093 769.289 852.426 783.205C812.951 795.785 736.158 820.498 695.127 873.788C695.773 876.742 695.839 879.794 695.319 882.773C693.958 890.945 693.129 899.197 692.838 907.476C709.966 882.413 746.721 861.695 800.955 831.249C874.057 790.211 915.807 793.435 925.437 798.466C926.461 799.001 932.864 802.557 936.284 800.098C938.06 798.821 938.309 796.442 939.038 784.49C939.437 777.996 939.631 774.742 939.497 774.385Z" fill="#F4D58C" stroke="#282724" stroke-width="0.1687" stroke-miterlimit="10"/>
<path d="M1243.73 901.14C1243.91 893.134 1243.92 884.971 1243.9 876.636C1206.02 824.194 1135.31 799.335 1103.45 788.145C1046.99 768.31 998.26 769.722 995.97 777.343C995.296 779.585 998.484 782.889 999.211 793.006C999.588 798.253 998.992 801.009 1000.78 802.408C1004.26 805.14 1012.81 799.547 1013.79 798.947C1032.34 787.659 1197.68 826.096 1243.73 901.14Z" fill="#F4D58C" stroke="#282724" stroke-width="0.1687" stroke-miterlimit="10"/>
<path opacity="0.1" d="M939.497 774.385C936.449 766.296 896.093 769.289 852.426 783.205C812.951 795.785 736.158 820.498 695.127 873.788C695.773 876.742 695.839 879.794 695.319 882.773C693.958 890.945 693.129 899.197 692.838 907.476C709.966 882.413 746.721 861.695 800.955 831.249C874.057 790.211 915.807 793.435 925.437 798.466C926.461 799.001 932.864 802.557 936.284 800.098C938.06 798.821 938.309 796.442 939.038 784.49C939.437 777.996 939.631 774.742 939.497 774.385Z" fill="#282724"/>
<path opacity="0.1" d="M1243.73 901.14C1243.91 893.134 1243.92 884.971 1243.9 876.636C1206.02 824.194 1135.31 799.335 1103.45 788.145C1046.99 768.31 998.26 769.722 995.97 777.343C995.296 779.585 998.484 782.889 999.211 793.006C999.588 798.253 998.992 801.009 1000.78 802.408C1004.26 805.14 1012.81 799.547 1013.79 798.947C1032.34 787.659 1197.68 826.096 1243.73 901.14Z" fill="#282724"/>
<path opacity="0.16" d="M930.674 789.667C929.041 789.635 927.434 789.255 925.96 788.553C924.486 787.851 923.178 786.843 922.124 785.596C907.396 771.285 849.933 788.748 849.933 788.748C818.658 798.253 781.13 810.016 735.882 841.343C721.589 851.238 707.973 862.077 695.127 873.79C695.379 874.942 695.544 876.111 695.619 877.288C695.733 879.122 695.632 880.963 695.319 882.774C693.958 890.946 693.129 899.198 692.838 907.477C709.966 882.414 746.721 861.696 800.955 831.251C874.057 790.212 915.807 793.436 925.437 798.467C926.596 799.072 933.15 802.56 936.284 800.099C937.446 799.187 937.964 796.001 938.952 789.667C939.549 785.841 939.576 784.785 939.039 784.491C937.693 783.754 935.122 789.083 930.674 789.667Z" fill="#282724"/>
<path opacity="0.16" d="M1243.73 901.143C1243.91 893.137 1243.92 884.974 1243.9 876.639C1223.16 854.989 1199.35 836.501 1173.23 821.767C1148.19 807.646 1128.66 801.293 1104.87 793.557C1038.89 772.099 1010.52 777.978 1006.96 785.606C1006.4 786.791 1004.98 791.17 1002.88 791.181C1000.44 791.193 998.707 785.283 998.049 785.525C997.574 785.7 998.904 788.708 999.213 793.01C999.59 798.257 998.994 801.013 1000.78 802.412C1004.27 805.144 1012.81 799.551 1013.8 798.95C1032.34 787.662 1197.68 826.099 1243.73 901.143Z" fill="#282724"/>
<path d="M935.754 728.182C933.905 726.781 931.698 725.928 929.387 725.722C887.993 721.854 846.288 728.399 808.069 744.763C750.685 772.75 708.675 793.214 693.924 841.718C679.908 887.796 693.234 949.95 736.361 978.58C751.022 988.044 767.889 993.54 785.311 994.531C785.528 984.85 787.661 975.308 791.586 966.456C786.469 966.578 781.354 966.168 776.321 965.235C764.359 962.506 753.073 957.383 743.145 950.175C728.412 939.427 703.225 912.225 701.594 883.613C698.15 823.197 800.081 762.53 888.15 751.344C921.922 747.056 927.159 749.438 927.16 749.438C930.935 750.353 935.586 751.883 938.555 749.453C943.247 745.613 942.146 733.179 935.754 728.182Z" fill="#FFEECC" stroke="#282724" stroke-width="0.1687" stroke-miterlimit="10"/>
<path opacity="0.1" d="M700.95 915.887C693.695 900.269 689.714 883.331 689.253 866.117C685.301 907.777 700.486 954.765 736.36 978.581C751.021 988.045 767.888 993.541 785.311 994.532C785.378 991.47 785.639 988.415 786.09 985.386C786.448 982.979 786.936 980.745 787.47 978.594C749.997 971.029 717.791 952.959 700.95 915.887Z" fill="#282724"/>
<path opacity="0.1" d="M935.755 728.181C933.905 726.781 931.698 725.928 929.387 725.722C887.993 721.854 846.288 728.399 808.069 744.763C774.804 760.987 746.756 774.714 726.139 792.811C726.023 796.172 725.159 799.465 723.611 802.45C714.815 819.763 701.981 830.596 698.548 850.805C696.054 864.819 697.555 879.252 702.877 892.454C702.216 889.545 701.787 886.588 701.592 883.612C698.149 823.196 800.079 762.529 888.148 751.344C921.92 747.055 927.158 749.437 927.158 749.437C930.933 750.352 935.585 751.881 938.554 749.452C943.247 745.613 942.146 733.178 935.755 728.181Z" fill="#282724"/>
<path d="M935.755 728.181C933.905 726.781 931.699 725.928 929.388 725.722C887.993 721.854 846.289 728.399 808.07 744.763C763.504 766.497 728.281 783.754 707.828 813.072C708.091 814.852 708.144 816.657 707.986 818.449C707.235 828.932 707.941 839.469 710.083 849.759C736.085 802.086 816.678 760.42 888.149 751.343C921.921 747.054 927.158 749.436 927.159 749.436C930.934 750.351 935.585 751.881 938.554 749.451C943.247 745.613 942.147 733.178 935.755 728.181Z" fill="#F4D58C" stroke="#282724" stroke-width="0.1687" stroke-miterlimit="10"/>
<path d="M1001.25 729.072C1003.66 727.033 1006.7 725.885 1009.86 725.818C1081.97 722.204 1128.72 745.008 1128.72 745.008C1187.39 773.632 1228.22 793.832 1242.86 841.964C1257.31 889.458 1239.71 947.648 1200.43 978.826C1188.82 987.951 1175.55 994.744 1161.37 998.83C1162.71 994.146 1162.52 989.155 1160.82 984.586C1158.04 977.651 1152.26 975.242 1150.65 967.358C1150.18 965.033 1150.14 962.644 1150.51 960.304C1165.21 960.253 1179.64 956.422 1192.43 949.18C1216.56 935.217 1234.15 908.05 1235.19 883.859C1237.83 822.928 1136.32 762.725 1048.64 751.591C1018.04 747.704 1010.59 749.659 1010.59 749.659C1007.46 750.651 1003.32 752.355 1000.32 750.342C995.329 746.988 995.332 734.531 1001.25 729.072Z" fill="#FFEECC" stroke="#282724" stroke-width="0.1687" stroke-miterlimit="10"/>
<path opacity="0.1" d="M1221.34 803.515C1200.57 780.212 1168.82 764.573 1128.72 745.008C1128.72 745.008 1081.97 722.204 1009.85 725.818C1006.7 725.885 1003.66 727.033 1001.25 729.07C995.332 734.528 995.329 746.986 1000.32 750.342C1003.32 752.356 1007.45 750.651 1010.59 749.659C1010.59 749.659 1018.03 747.704 1048.64 751.591C1101.15 758.26 1158.59 782.534 1195.68 814.016C1200.98 804.805 1211.71 799.024 1221.34 803.515Z" fill="#282724"/>
<path opacity="0.1" d="M1244.63 848.812C1247.66 867.944 1245.64 887.535 1238.78 905.648C1223.5 942.48 1190.36 967.01 1151.13 969.025C1153.17 975.586 1158.26 978.184 1160.82 984.589C1162.51 989.158 1162.7 994.148 1161.36 998.833C1175.55 994.746 1188.82 987.953 1200.42 978.828C1237.84 949.13 1255.52 894.94 1244.63 848.812Z" fill="#282724"/>
<path opacity="0.1" d="M1235.18 882.134C1242.59 859.598 1241.13 834.281 1225.47 815.032C1222.48 811.46 1220.67 807.05 1220.28 802.408C1199.5 779.726 1168.17 764.254 1128.71 745.008C1128.71 745.008 1081.97 722.204 1009.85 725.818C1006.7 725.885 1003.66 727.033 1001.25 729.07C995.332 734.528 995.329 746.986 1000.32 750.342C1003.32 752.356 1007.45 750.651 1010.59 749.659C1010.59 749.659 1018.03 747.704 1048.64 751.591C1135.49 762.621 1235.85 821.796 1235.18 882.134Z" fill="#282724"/>
<path d="M1226.3 849.699C1228.43 840.227 1231.07 830.88 1234.22 821.699C1215.19 787.494 1178.38 769.236 1128.72 745.008C1128.72 745.008 1081.97 722.204 1009.85 725.818C1006.7 725.885 1003.66 727.033 1001.25 729.07C995.332 734.528 995.329 746.986 1000.32 750.342C1003.32 752.356 1007.45 750.651 1010.59 749.659C1010.59 749.659 1018.03 747.704 1048.64 751.591C1119.73 760.621 1199.92 801.915 1226.3 849.699Z" fill="#F4D58C" stroke="#282724" stroke-width="0.1687" stroke-miterlimit="10"/>
<path opacity="0.1" d="M935.755 728.181C933.905 726.781 931.699 725.928 929.388 725.722C887.993 721.854 846.289 728.399 808.07 744.763C763.504 766.497 728.281 783.754 707.828 813.072C708.091 814.852 708.144 816.657 707.986 818.449C707.235 828.932 707.941 839.469 710.083 849.759C736.085 802.086 816.678 760.42 888.149 751.343C921.921 747.054 927.158 749.436 927.159 749.436C930.934 750.351 935.585 751.881 938.554 749.451C943.247 745.613 942.147 733.178 935.755 728.181Z" fill="#282724"/>
<path opacity="0.1" d="M1226.3 849.699C1228.43 840.227 1231.07 830.88 1234.22 821.699C1215.19 787.494 1178.38 769.236 1128.72 745.008C1128.72 745.008 1081.97 722.204 1009.85 725.818C1006.7 725.885 1003.66 727.033 1001.25 729.07C995.332 734.528 995.329 746.986 1000.32 750.342C1003.32 752.356 1007.45 750.651 1010.59 749.659C1010.59 749.659 1018.03 747.704 1048.64 751.591C1119.73 760.621 1199.92 801.915 1226.3 849.699Z" fill="#282724"/>
<path opacity="0.16" d="M937.677 730.266C936.532 730.334 937.197 739.462 934.321 740.122C932.425 740.557 930.15 737.042 929.812 736.557C924.989 729.615 883.299 719.045 809.801 749.725C772.674 765.316 738.255 786.698 707.828 813.072C708.091 814.852 708.144 816.657 707.986 818.449C707.235 828.932 707.941 839.469 710.083 849.759C736.085 802.086 816.678 760.42 888.149 751.343C921.921 747.054 927.158 749.436 927.159 749.436C927.693 749.676 934.377 752.572 938.554 749.451C945.01 744.63 939.132 730.178 937.677 730.266Z" fill="#282724"/>
<path opacity="0.16" d="M1226.3 849.699C1228.43 840.228 1231.07 830.88 1234.22 821.699C1221.99 808.618 1208.57 796.696 1194.14 786.086C1116.68 729.263 1030.24 725.733 1014.53 733.877C1013.39 734.469 1005.55 738.79 1002.66 736.16C1000.49 734.189 1002.24 729.346 1001.25 729.071C1000.31 728.807 997.623 732.966 996.937 737.91C996.627 740.149 995.615 747.446 1000.32 750.343C1004.62 752.988 1010.26 749.85 1010.59 749.659C1010.59 749.659 1018.03 747.704 1048.64 751.591C1119.73 760.621 1199.92 801.916 1226.3 849.699Z" fill="#282724"/>
<path d="M943.453 675.946C940.812 673.248 937.316 671.552 933.562 671.148C865.175 661.499 804.324 693.449 804.322 693.45C752.059 720.892 715.999 739.813 704.869 782.186C694.577 821.366 706.993 875.165 747.226 899.477C771.195 913.962 796.488 912.81 808.395 911.406C805.287 905.205 805.781 901.441 806.71 899.198C808.744 894.283 814.372 893.018 816.166 886.717C816.6 885.165 816.755 883.548 816.621 881.942C801.455 883.21 786.19 881.347 771.774 876.468C761.041 872.802 745.217 867.396 733.047 852.476C723.769 840.994 718.453 826.82 717.893 812.068C717.343 762.713 796.636 714.602 865.644 701.789C881.673 698.813 915.774 688.592 932.394 699.304C933.977 700.324 938.228 703.347 941.737 701.893C947.937 699.326 950.173 683.46 943.453 675.946Z" fill="#FFEECC" stroke="#282724" stroke-width="0.1687" stroke-miterlimit="10"/>
<path opacity="0.1" d="M811.136 893.83C778.924 889.949 745.394 877.808 723.711 853.756C701.545 829.168 700.055 795.117 711.14 765.52C708.486 770.846 706.385 776.43 704.869 782.185C694.577 821.366 706.993 875.165 747.226 899.476C771.195 913.961 796.488 912.81 808.394 911.406C805.287 905.204 805.781 901.441 806.71 899.198C807.752 897.092 809.267 895.255 811.136 893.83Z" fill="#282724"/>
<path opacity="0.1" d="M943.454 675.946C940.813 673.248 937.316 671.552 933.563 671.148C865.175 661.499 804.325 693.45 804.325 693.45C774.369 709.179 749.772 722.125 732.105 738.276C736.951 737.29 741.982 737.827 746.511 739.812C751.04 741.797 754.844 745.133 757.403 749.364C786.589 726.601 827.662 708.843 865.646 701.79C881.675 698.814 915.776 688.593 932.396 699.305C933.979 700.325 938.23 703.348 941.739 701.895C947.938 699.326 950.174 683.46 943.454 675.946Z" fill="#282724"/>
<path opacity="0.1" d="M943.453 675.946C940.812 673.248 937.315 671.552 933.561 671.148C865.174 661.499 804.323 693.45 804.323 693.45C776.783 707.91 753.802 720.028 736.538 734.435C735.311 737.392 733.359 742.101 732.252 744.777C715.942 784.169 711.727 794.795 713.507 808.671C714.103 813.205 715.266 817.647 716.968 821.892C717.947 823.34 718.863 824.835 719.906 826.235C718.673 821.611 717.997 816.855 717.893 812.07C717.342 762.715 796.635 714.603 865.643 701.791C881.672 698.815 915.774 688.593 932.394 699.306C933.976 700.326 938.228 703.348 941.737 701.895C947.937 699.326 950.172 683.46 943.453 675.946Z" fill="#282724"/>
<path d="M998.551 676.395C1001.65 673.646 1005.65 672.116 1009.79 672.089C1085.09 668.453 1135.5 694.612 1135.5 694.612C1187.52 721.607 1223.74 740.639 1234.96 783.348C1245.63 823.97 1229.45 874.573 1192.6 900.639C1179.08 910.036 1163.49 916.044 1147.16 918.157C1143.75 916.642 1140.83 914.222 1138.7 911.158C1134.44 904.749 1136.76 899.053 1132.51 892.573C1130.38 889.445 1127.44 886.966 1123.99 885.41C1139.02 885.421 1153.93 882.788 1168.05 877.632C1180.58 873.033 1195.34 867.666 1206.78 853.641C1216.06 842.159 1221.37 827.984 1221.93 813.233C1222.48 763.877 1143.19 715.766 1074.18 702.953C1042.56 697.081 1026.13 693.275 1011.41 700.078C1008.62 701.369 1002.7 704.499 998.551 702.031C992.386 698.364 991.643 683.238 998.551 676.395Z" fill="#FFEECC" stroke="#282724" stroke-width="0.1687" stroke-miterlimit="10"/>
<path opacity="0.1" d="M1234.96 783.346C1233.42 777.623 1231.29 772.073 1228.61 766.785C1234.14 785.967 1234.59 806.26 1229.9 825.666C1227.68 835.416 1223.51 844.618 1217.64 852.715C1211.78 860.812 1204.33 867.638 1195.75 872.781C1178.18 885.445 1155.23 891.261 1132.46 892.506L1132.51 892.571C1136.76 899.049 1134.44 904.746 1138.71 911.156C1140.83 914.219 1143.76 916.64 1147.17 918.154C1163.5 916.041 1179.08 910.033 1192.6 900.637C1229.46 874.571 1245.63 823.968 1234.96 783.346Z" fill="#282724"/>
<path opacity="0.1" d="M1221.93 813.233C1221.37 827.984 1216.06 842.159 1206.78 853.641C1204.43 856.491 1201.82 859.117 1198.99 861.484C1202.7 858.738 1206.19 855.698 1209.41 852.395C1231.52 829.101 1228.28 794.777 1220.98 766.135C1219.93 762.226 1220.01 758.099 1221.21 754.233C1203.74 730.198 1173.96 714.568 1135.5 694.613C1135.5 694.613 1085.09 668.453 1009.79 672.089C1005.64 672.116 1001.65 673.646 998.55 676.395C991.641 683.237 992.384 698.363 998.55 702.031C1002.7 704.499 1008.62 701.369 1011.41 700.078C1026.12 693.277 1042.55 697.081 1074.18 702.953C1143.19 715.766 1222.48 763.876 1221.93 813.233Z" fill="#282724"/>
<path d="M943.455 675.946C940.813 673.248 937.317 671.552 933.563 671.148C865.176 661.499 804.325 693.45 804.325 693.45C770.646 711.134 743.772 725.329 725.898 744.501C727.718 746.71 728.93 749.355 729.416 752.176C730.475 758.529 731.027 764.993 732.424 771.285C732.575 771.965 732.796 772.629 732.969 773.305C759.157 739.461 815.138 711.168 865.645 701.791C881.674 698.815 915.775 688.593 932.395 699.306C933.978 700.326 938.229 703.348 941.738 701.895C947.939 699.326 950.174 683.46 943.455 675.946Z" fill="#F4D58C" stroke="#282724" stroke-width="0.1687" stroke-miterlimit="10"/>
<path d="M1213.82 784.821C1216.44 772.641 1217.17 760.131 1215.99 747.728C1198.1 727.259 1170.38 712.709 1135.5 694.613C1135.5 694.613 1085.09 668.453 1009.79 672.089C1005.65 672.116 1001.65 673.646 998.551 676.395C991.642 683.237 992.386 698.363 998.551 702.031C1002.7 704.499 1008.62 701.369 1011.41 700.078C1026.13 693.277 1042.56 697.081 1074.18 702.953C1129.76 713.273 1191.99 746.497 1213.82 784.821Z" fill="#F4D58C" stroke="#282724" stroke-width="0.1687" stroke-miterlimit="10"/>
<path opacity="0.1" d="M943.455 675.946C940.813 673.248 937.317 671.552 933.563 671.148C865.176 661.499 804.325 693.45 804.325 693.45C770.646 711.134 743.772 725.329 725.898 744.501C727.718 746.71 728.93 749.355 729.416 752.176C730.475 758.529 731.027 764.993 732.424 771.285C732.575 771.965 732.796 772.629 732.969 773.305C759.157 739.461 815.138 711.168 865.645 701.791C881.674 698.815 915.775 688.593 932.395 699.306C933.978 700.326 938.229 703.348 941.738 701.895C947.939 699.326 950.174 683.46 943.455 675.946Z" fill="#282724"/>
<path opacity="0.1" d="M1213.82 784.821C1216.44 772.641 1217.17 760.131 1215.99 747.728C1198.1 727.259 1170.38 712.709 1135.5 694.613C1135.5 694.613 1085.09 668.453 1009.79 672.089C1005.65 672.116 1001.65 673.646 998.551 676.395C991.642 683.237 992.386 698.363 998.551 702.031C1002.7 704.499 1008.62 701.369 1011.41 700.078C1026.13 693.277 1042.56 697.081 1074.18 702.953C1129.76 713.273 1191.99 746.497 1213.82 784.821Z" fill="#282724"/>
<path opacity="0.16" d="M945.797 681.494C943.366 680.631 938.671 690.234 936.105 689.14C934.748 688.562 935.207 685.524 934.882 684.04C933.225 676.455 903.198 673.134 873.307 677.586C818.962 685.678 761.696 719.965 725.898 744.501C727.718 746.71 728.93 749.355 729.416 752.175C730.475 758.528 731.027 764.992 732.424 771.285C732.575 771.965 732.796 772.629 732.969 773.305C759.157 739.461 815.138 711.168 865.645 701.79C881.674 698.814 915.775 688.593 932.395 699.305C933.776 700.195 938.116 703.354 941.738 701.895C948.391 699.214 948.766 682.548 945.797 681.494Z" fill="#282724"/>
<path opacity="0.16" d="M1213.82 784.82C1215.17 778.402 1216.03 771.889 1216.39 765.34C1216.59 761.524 1216.62 757.91 1216.52 754.526C1208.21 745.594 1199.22 737.331 1189.61 729.814C1115.9 672.156 1025.08 673.651 1010.76 688.975C1009.73 690.075 1004.99 695.647 1001.21 694.486C996.802 693.132 996.808 683.581 995.843 683.682C994.665 683.805 992.473 698.235 998.553 702.029C1002.74 704.642 1009.15 701.122 1011.41 700.076C1026.13 693.275 1042.56 697.079 1074.18 702.951C1129.76 713.272 1191.99 746.496 1213.82 784.82Z" fill="#282724"/>
<path d="M910.655 624.082C900.162 617.894 899.3 610.131 893.129 609.937C888.588 609.794 886.45 613.921 881.148 618.372C871.102 626.801 860.127 627.63 852.064 629.254C829.626 633.775 793.286 651.799 778.253 661.216C744.08 682.625 707.104 730.286 718.384 770.655C720.962 779.532 725.333 787.786 731.227 794.907C737.12 802.028 744.412 807.865 752.65 812.057C761.942 816.414 771.164 817.197 789.608 818.762C802.968 819.899 816.389 820.146 829.782 819.501C830.879 816.996 831.512 814.312 831.652 811.581C831.557 808.706 831.239 805.842 830.7 803.015C830.59 799.936 831.83 795.445 838.315 789.69C784.896 795.783 742.182 777.725 735.517 753.047C725.783 717.01 795.201 675.308 799.766 672.622C819.312 661.12 866.411 639.408 891.646 646.85C897.892 648.743 904.581 648.584 910.73 646.397C918.755 643.281 926.022 635.636 924.547 630.93C923.459 627.456 918.605 628.771 910.655 624.082Z" fill="#FFEECC" stroke="#282724" stroke-width="0.1687" stroke-miterlimit="10"/>
<path opacity="0.1" d="M831.146 799.69C797.2 798.43 762.001 795.01 737.819 771.503C710.573 745.016 725.037 715.442 744.252 691.145C724.457 714.458 710.967 744.112 718.384 770.657C720.962 779.534 725.333 787.788 731.227 794.909C737.121 802.03 744.412 807.867 752.65 812.059C761.942 816.415 771.164 817.198 789.608 818.764C802.969 819.901 816.39 820.147 829.783 819.503C830.879 816.998 831.513 814.314 831.652 811.583C831.557 808.707 831.239 805.843 830.7 803.017C830.675 801.892 830.826 800.769 831.146 799.69Z" fill="#282724"/>
<path opacity="0.1" d="M787.585 680.469C783.473 676.546 779.937 672.062 777.081 667.148C776.437 667.859 775.749 668.529 775.021 669.155C757.352 684.11 730.12 706.488 728.949 731.672C728.597 740.379 731.286 748.937 736.554 755.878C736.158 754.955 735.812 754.011 735.518 753.051C728.079 725.512 766.842 694.685 787.585 680.469Z" fill="#282724"/>
<path d="M1029.41 625.285C1040.38 617.91 1041.25 611.319 1046.93 611.14C1051.48 610.997 1053.61 615.124 1058.92 619.575C1068.96 628.005 1079.94 628.833 1088 630.457C1110.44 634.978 1146.78 653.002 1161.81 662.42C1195.98 683.829 1232.96 731.489 1221.68 771.858C1215.69 793.3 1197.67 805.981 1187.41 813.261C1165.84 828.119 1139.91 835.302 1113.76 833.656C1109.48 827.786 1106.38 821.134 1104.64 814.075C1103.66 810.067 1103.14 805.962 1103.08 801.837C1158.11 800.921 1198.9 775.172 1202.62 747.31C1207.17 713.219 1155.31 682.672 1140.3 673.826C1120.26 662.022 1073.76 640.579 1048.42 648.054C1042.22 650.293 1035.41 650.131 1029.33 647.6C1023.19 644.511 1017.94 637.491 1019.43 632.507C1020.35 629.42 1023.15 629.487 1029.41 625.285Z" fill="#FFEECC" stroke="#282724" stroke-width="0.1687" stroke-miterlimit="10"/>
<path opacity="0.1" d="M1191.75 687.715C1209.14 714.177 1215.09 747.857 1191.57 773.648C1171.8 795.316 1135.61 809.234 1103.68 808.769C1103.91 810.552 1104.23 812.323 1104.64 814.073C1106.38 821.132 1109.48 827.784 1113.76 833.655C1139.9 835.3 1165.84 828.118 1187.41 813.259C1197.67 805.979 1215.69 793.297 1221.68 771.857C1229.59 743.524 1213.72 711.633 1191.75 687.715Z" fill="#282724"/>
<path opacity="0.1" d="M1202.74 745.801C1204.38 741.709 1205.14 737.316 1204.96 732.911C1204.78 728.507 1203.67 724.19 1201.7 720.244C1193.83 703.039 1175.9 690.002 1166.21 673.409C1164.38 670.353 1163.34 666.891 1163.18 663.333C1162.72 663.038 1162.26 662.7 1161.81 662.415C1146.78 652.997 1110.44 634.973 1088 630.453C1079.93 628.828 1068.96 628 1058.91 619.57C1053.61 615.121 1051.47 610.994 1046.93 611.136C1041.25 611.315 1040.38 617.906 1029.41 625.281C1023.15 629.484 1020.35 629.417 1019.43 632.504C1017.94 637.487 1023.19 644.508 1029.33 647.597C1035.41 650.128 1042.22 650.289 1048.41 648.051C1073.76 640.576 1120.26 662.019 1140.3 673.822C1155.09 682.538 1205.6 712.321 1202.74 745.801Z" fill="#282724"/>
<path d="M924.548 630.931C923.459 627.456 918.606 628.771 910.655 624.082C900.163 617.894 899.3 610.131 893.129 609.937C888.588 609.794 886.45 613.921 881.148 618.372C871.102 626.801 860.127 627.63 852.064 629.254C829.626 633.774 793.286 651.799 778.253 661.216C776.343 662.413 774.424 663.719 772.506 665.073C772.513 665.393 772.59 665.667 772.586 665.995C772.523 674.084 773.112 682.165 774.347 690.159C782.456 683.803 790.945 677.947 799.766 672.623C819.313 661.121 866.411 639.408 891.647 646.851C897.893 648.744 904.581 648.585 910.731 646.398C918.756 643.282 926.022 635.638 924.548 630.931Z" fill="#F4D58C" stroke="#282724" stroke-width="0.1687" stroke-miterlimit="10"/>
<path d="M1165.68 690.376C1166.59 682.395 1167.67 674.476 1167.8 666.441C1165.8 665.022 1163.8 663.667 1161.81 662.419C1146.78 653.001 1110.44 634.977 1088 630.457C1079.93 628.832 1068.96 628.004 1058.92 619.574C1053.61 615.125 1051.48 610.997 1046.93 611.14C1041.25 611.319 1040.39 617.91 1029.41 625.285C1023.15 629.488 1020.35 629.421 1019.43 632.508C1017.94 637.491 1023.19 644.512 1029.33 647.601C1035.41 650.132 1042.22 650.293 1048.42 648.055C1073.76 640.58 1120.26 662.023 1140.3 673.826C1149.05 678.88 1157.53 684.405 1165.68 690.376Z" fill="#F4D58C" stroke="#282724" stroke-width="0.1687" stroke-miterlimit="10"/>
<path opacity="0.1" d="M924.548 630.931C923.459 627.456 918.606 628.771 910.655 624.082C900.163 617.894 899.3 610.131 893.129 609.937C888.588 609.794 886.45 613.921 881.148 618.372C871.102 626.801 860.127 627.63 852.064 629.254C829.626 633.774 793.286 651.799 778.253 661.216C776.343 662.413 774.424 663.719 772.506 665.073C772.513 665.393 772.59 665.667 772.586 665.995C772.523 674.084 773.112 682.165 774.347 690.159C782.456 683.803 790.945 677.947 799.766 672.623C819.313 661.121 866.411 639.408 891.647 646.851C897.893 648.744 904.581 648.585 910.731 646.398C918.756 643.282 926.022 635.638 924.548 630.931Z" fill="#282724"/>
<path opacity="0.1" d="M1165.68 690.376C1166.59 682.395 1167.67 674.476 1167.8 666.441C1165.8 665.022 1163.8 663.667 1161.81 662.419C1146.78 653.001 1110.44 634.977 1088 630.457C1079.93 628.832 1068.96 628.004 1058.92 619.574C1053.61 615.125 1051.48 610.997 1046.93 611.14C1041.25 611.319 1040.39 617.91 1029.41 625.285C1023.15 629.488 1020.35 629.421 1019.43 632.508C1017.94 637.491 1023.19 644.512 1029.33 647.601C1035.41 650.132 1042.22 650.293 1048.42 648.055C1073.76 640.58 1120.26 662.023 1140.3 673.826C1149.05 678.88 1157.53 684.405 1165.68 690.376Z" fill="#282724"/>
<path opacity="0.16" d="M924.547 630.931C923.842 629.843 922.841 628.979 921.661 628.44C919.886 627.694 918.014 627.204 916.101 626.985C914.097 626.424 912.238 625.433 910.655 624.082C915.068 628.219 916.264 633.169 914.562 635.334C912.878 637.477 908.246 637.023 905.24 635.553C901.989 633.962 901.837 631.768 898.409 629.066C895.714 627.213 892.685 625.903 889.489 625.209C871.42 620.742 814.15 650.788 814.15 650.788C805.088 655.542 790.928 662.81 772.973 671.316C773.43 677.597 773.888 683.878 774.346 690.159C782.455 683.803 790.944 677.947 799.766 672.623C819.312 661.121 866.411 639.408 891.646 646.851C897.892 648.744 904.581 648.585 910.73 646.398C919.282 643.077 926.164 634.495 924.547 630.931Z" fill="#282724"/>
<path opacity="0.16" d="M1165.68 690.373C1166.2 686.517 1166.65 682.535 1167.03 678.425C1167.26 676.05 1167.44 673.712 1167.6 671.412C1154 662.038 1139.47 654.069 1124.25 647.629C1111.49 642.243 1116.28 645.578 1087.55 635.292C1067.39 628.072 1061.81 625.278 1053.64 627.644C1043.87 630.472 1038.55 638.31 1033.69 635.957C1030.44 634.383 1029.6 629.326 1029.41 625.281C1028.35 625.856 1026.88 626.695 1025.21 627.811C1021.74 630.117 1020.01 631.269 1019.43 632.504C1017.61 636.349 1022.6 644.213 1029.33 647.597C1035.41 650.128 1042.22 650.289 1048.42 648.051C1073.76 640.576 1120.26 662.019 1140.3 673.822C1149.05 678.876 1157.53 684.401 1165.68 690.373Z" fill="#282724"/>
<path d="M918.173 587.529C922.157 589.948 925.429 595.043 924.192 598.875C922.419 604.376 911.806 605.919 904.471 604.552C900.741 603.823 897.215 602.29 894.139 600.059C876.268 588.148 778.254 628.264 784.506 671.168C787.377 690.873 811.238 704.284 816.678 707.341C829.384 714.374 843.735 717.891 858.253 717.53C856.736 719.597 855.413 721.799 854.301 724.109C851.114 730.843 849.752 738.297 850.349 745.723C800.432 739.477 763.761 711.942 759.483 680.566C755.156 648.844 785.119 621.829 789.113 618.228C820.924 589.547 871.897 585.975 887.882 573.119C888.865 572.328 892.386 569.354 895.454 570.301C900.184 571.759 897.954 580.725 904.014 584.711C908.692 587.786 912.633 584.166 918.173 587.529Z" fill="#FFEECC" stroke="#282724" stroke-width="0.1687" stroke-miterlimit="10"/>
<path opacity="0.1" d="M775.292 667.042C773.527 651.888 776.55 636.56 783.938 623.211C774.328 633.048 756.038 655.291 759.485 680.565C763.764 711.94 800.434 739.476 850.352 745.722C850.019 741.195 850.386 736.643 851.44 732.228C815.877 722.041 781.408 707.447 775.292 667.042Z" fill="#282724"/>
<path opacity="0.1" d="M918.174 587.528C912.635 584.165 908.693 587.785 904.017 584.71C897.958 580.724 900.188 571.759 895.457 570.301C892.389 569.355 888.869 572.329 887.885 573.119C878.021 581.052 854.83 585.465 831.043 594.409C830.193 595.314 829.272 596.149 828.29 596.907C811.272 609.951 787.218 634.61 785.623 658.408C797.134 620.75 878.06 589.341 894.139 600.059C897.215 602.29 900.742 603.823 904.472 604.551C911.807 605.918 922.42 604.376 924.193 598.875C925.428 595.042 922.159 589.949 918.174 587.528Z" fill="#282724"/>
<path d="M1016.6 592.593C1012.62 594.987 1009.34 600.027 1010.58 603.819C1012.35 609.261 1022.97 610.788 1030.3 609.435C1034.03 608.717 1037.55 607.201 1040.63 604.99C1058.51 593.206 1156.52 632.896 1150.27 675.344C1147.4 694.84 1123.54 708.108 1118.1 711.134C1105.37 718.096 1091.02 721.574 1076.52 721.214C1078.04 723.258 1079.36 725.437 1080.47 727.725C1083.66 734.378 1085.02 741.758 1084.42 749.11C1134.34 742.93 1171.01 715.687 1175.29 684.645C1179.62 653.26 1149.65 626.531 1145.66 622.968C1113.85 594.591 1062.88 591.058 1046.89 578.338C1045.91 577.556 1042.39 574.613 1039.32 575.549C1034.59 576.991 1036.82 585.862 1030.76 589.806C1026.08 592.847 1022.14 589.268 1016.6 592.593Z" fill="#FFEECC" stroke="#282724" stroke-width="0.1687" stroke-miterlimit="10"/>
<path opacity="0.1" d="M1148.2 659.998C1146.47 640.836 1130.73 620.513 1114.7 611.008C1110.4 608.618 1107.12 604.724 1105.51 600.071C1081.11 590.765 1057 586.379 1046.89 578.334C1045.91 577.552 1042.38 574.61 1039.32 575.545C1034.59 576.988 1036.82 585.858 1030.76 589.802C1026.08 592.846 1022.14 589.264 1016.6 592.591C1012.62 594.984 1009.35 600.025 1010.58 603.817C1012.35 609.259 1022.97 610.786 1030.3 609.433C1034.03 608.716 1037.55 607.199 1040.63 604.988C1056.32 594.644 1133.74 623.966 1148.2 659.998Z" fill="#282724"/>
<path opacity="0.1" d="M1078.11 608.486C1079.38 607.925 1080.69 607.469 1082.03 607.124C1082.27 602.257 1083.98 597.579 1086.95 593.712C1069.63 588.27 1054.39 584.304 1046.89 578.334C1045.91 577.552 1042.38 574.61 1039.32 575.545C1034.59 576.988 1036.82 585.858 1030.76 589.802C1026.08 592.846 1022.14 589.264 1016.6 592.591C1012.62 594.984 1009.35 600.025 1010.58 603.817C1012.35 609.259 1022.97 610.786 1030.3 609.433C1034.03 608.716 1037.55 607.199 1040.63 604.988C1046.56 601.082 1061.3 602.856 1078.11 608.486Z" fill="#282724"/>
<path opacity="0.1" d="M1146.52 623.742C1158.63 642.048 1164.32 663.305 1154.6 683.86C1142 710.494 1111.25 723.89 1081.94 731.182C1084.05 736.909 1084.9 743.024 1084.42 749.109C1134.34 742.929 1171.01 715.686 1175.29 684.643C1179.39 654.884 1152.7 629.35 1146.52 623.742Z" fill="#282724"/>
<path d="M918.173 587.528C912.634 584.165 908.692 587.785 904.016 584.71C897.957 580.724 900.186 571.759 895.456 570.301C892.388 569.355 888.867 572.329 887.884 573.119C878.738 580.474 858.133 584.807 836.222 592.527C837.581 595.932 838.055 599.626 837.6 603.265C837.145 606.903 835.776 610.367 833.621 613.333C858.675 600.594 885.586 594.357 894.139 600.059C897.215 602.29 900.742 603.823 904.472 604.551C911.807 605.918 922.42 604.376 924.193 598.875C925.427 595.042 922.158 589.949 918.173 587.528Z" fill="#F4D58C" stroke="#282724" stroke-width="0.1687" stroke-miterlimit="10"/>
<path d="M1119.24 628.671C1117.49 619.313 1114.35 610.268 1109.94 601.832C1084.07 591.296 1057.61 586.866 1046.89 578.334C1045.91 577.552 1042.38 574.61 1039.32 575.545C1034.59 576.988 1036.82 585.858 1030.76 589.802C1026.08 592.846 1022.14 589.264 1016.6 592.591C1012.62 594.984 1009.35 600.025 1010.58 603.817C1012.35 609.259 1022.97 610.786 1030.3 609.433C1034.03 608.716 1037.55 607.199 1040.63 604.988C1051.32 597.94 1090.67 609.314 1119.24 628.671Z" fill="#F4D58C" stroke="#282724" stroke-width="0.1687" stroke-miterlimit="10"/>
<path opacity="0.1" d="M918.173 587.528C912.634 584.165 908.692 587.785 904.016 584.71C897.957 580.724 900.186 571.759 895.456 570.301C892.388 569.355 888.867 572.329 887.884 573.119C878.738 580.474 858.133 584.807 836.222 592.527C837.581 595.932 838.055 599.626 837.6 603.265C837.145 606.903 835.776 610.367 833.621 613.333C858.675 600.594 885.586 594.357 894.139 600.059C897.215 602.29 900.742 603.823 904.472 604.551C911.807 605.918 922.42 604.376 924.193 598.875C925.427 595.042 922.158 589.949 918.173 587.528Z" fill="#282724"/>
<path opacity="0.1" d="M1119.24 628.671C1117.49 619.313 1114.35 610.268 1109.94 601.832C1084.07 591.296 1057.61 586.866 1046.89 578.334C1045.91 577.552 1042.38 574.61 1039.32 575.545C1034.59 576.988 1036.82 585.858 1030.76 589.802C1026.08 592.846 1022.14 589.264 1016.6 592.591C1012.62 594.984 1009.35 600.025 1010.58 603.817C1012.35 609.259 1022.97 610.786 1030.3 609.433C1034.03 608.716 1037.55 607.199 1040.63 604.988C1051.32 597.94 1090.67 609.314 1119.24 628.671Z" fill="#282724"/>
<path opacity="0.16" d="M918.173 587.528C915.662 586.128 912.758 585.604 909.916 586.038C909.908 587.402 909.536 588.739 908.837 589.911C908.139 591.083 907.141 592.047 905.945 592.704C904.064 593.725 901.869 594.005 899.792 593.486C897.715 592.968 895.908 591.691 894.728 589.905C893.657 588.059 892.836 586.12 891.937 584.199C891.635 583.988 891.323 583.793 891 583.616C889.324 582.914 887.553 582.466 885.745 582.286C880.779 581.784 875.763 582.33 871.021 583.889C865.548 585.31 860.162 587.049 854.891 589.098C850.44 591.131 846.161 593.518 842.093 596.237C840.699 597.081 839.069 597.45 837.447 597.289C837.923 600.083 837.83 602.944 837.172 605.701C836.515 608.458 835.307 611.054 833.621 613.333C858.675 600.594 885.586 594.357 894.139 600.058C897.215 602.29 900.742 603.823 904.472 604.551C911.807 605.918 922.42 604.375 924.193 598.875C925.427 595.042 922.159 589.949 918.173 587.528Z" fill="#282724"/>
<path opacity="0.16" d="M1081.05 597.347C1075.29 595.486 1069.61 593.374 1063.81 591.614C1060.87 590.72 1057.89 589.911 1054.88 589.265C1052.72 588.554 1050.47 588.191 1048.2 588.191C1045.64 588.616 1042.16 593.294 1039.77 594.704C1034.6 597.758 1027.23 598.312 1023.55 592.875C1023.16 592.308 1022.85 591.7 1022.61 591.061C1020.5 590.973 1018.41 591.506 1016.6 592.596C1012.62 594.989 1009.35 600.03 1010.58 603.822C1012.36 609.263 1022.97 610.79 1030.3 609.438C1034.03 608.72 1037.55 607.204 1040.64 604.993C1051.33 597.944 1090.67 609.318 1119.25 628.676C1118.01 622.354 1116.18 616.164 1113.77 610.189C1102.85 605.784 1092.34 600.993 1081.05 597.347Z" fill="#282724"/>
<path d="M915.414 555.576C915.953 553.602 922.017 555.032 925.51 551.449C926.894 549.783 927.688 547.708 927.771 545.544C927.854 543.381 927.221 541.25 925.969 539.483C924.575 537.509 922.654 535.966 920.425 535.029C918.197 534.092 915.751 533.8 913.364 534.184C906.505 535.592 906.582 543.598 900.269 544.435C897.181 544.844 896.656 542.995 886.501 539.896C879.517 537.764 877.948 538.084 877.322 538.244C873.023 539.353 872.375 543.546 868.602 548.972C864.365 555.067 861.644 554.865 851.163 563.827C851.163 563.827 845.185 568.939 837.174 577.485C827.514 587.79 803.127 623.822 819.955 654.193C829.515 671.446 848.231 679.394 858.047 682.665C855.967 679.168 854.859 675.179 854.835 671.111C854.889 658.837 865.629 651.17 867.226 650.067C863.665 647.913 860.421 645.275 857.588 642.227C850.427 634.319 846.497 624.01 846.575 613.343C846.498 593.546 860.39 580.598 864.015 577.444C869.922 572.304 880.051 563.49 892.01 564.652C902.192 565.642 906.47 573.161 917.251 571.667C921.739 571.045 927.104 568.896 927.348 566.232C927.739 561.937 914.617 558.489 915.414 555.576Z" fill="#FFEECC" stroke="#282724" stroke-width="0.1687" stroke-miterlimit="10"/>
<path opacity="0.1" d="M858.707 658.857C855.665 657.444 852.973 655.375 850.824 652.798C824.571 621.436 836.932 590.716 854.49 561.078C853.468 561.895 852.379 562.787 851.163 563.827C851.163 563.827 845.184 568.939 837.173 577.485C827.514 587.79 803.126 623.822 819.956 654.193C829.515 671.445 848.231 679.394 858.047 682.664C855.967 679.168 854.858 675.179 854.834 671.111C854.907 666.737 856.253 662.478 858.707 658.857Z" fill="#282724"/>
<path opacity="0.1" d="M915.415 555.575C915.954 553.602 922.018 555.032 925.512 551.449C926.895 549.783 927.689 547.707 927.772 545.544C927.855 543.38 927.222 541.25 925.97 539.483C925.21 538.369 924.262 537.397 923.168 536.609C922.624 540.494 920.969 544.138 918.403 547.104C915.836 550.07 912.467 552.232 908.701 553.328C878.913 563.563 847.463 574.254 846.424 607.632C846.367 609.796 846.422 611.962 846.591 614.12C846.587 613.87 846.575 613.541 846.575 613.343C846.497 593.546 860.39 580.598 864.014 577.444C869.921 572.304 880.05 563.49 892.009 564.653C902.192 565.642 906.469 573.161 917.251 571.667C921.738 571.046 927.103 568.897 927.347 566.233C927.74 561.936 914.618 558.489 915.415 555.575Z" fill="#282724"/>
<path d="M1027.77 558.79C1027.23 556.817 1021.17 558.247 1017.67 554.664C1016.29 552.998 1015.49 550.923 1015.41 548.759C1015.33 546.595 1015.96 544.465 1017.21 542.698C1018.61 540.724 1020.53 539.181 1022.76 538.244C1024.99 537.307 1027.43 537.014 1029.82 537.399C1036.68 538.807 1036.6 546.813 1042.91 547.65C1046 548.059 1046.53 546.21 1056.68 543.111C1063.67 540.979 1065.24 541.299 1065.86 541.459C1070.16 542.568 1070.81 546.761 1074.58 552.187C1078.82 558.282 1081.54 558.08 1092.02 567.042C1092.02 567.042 1098 572.154 1106.01 580.7C1115.67 591.005 1140.06 627.037 1123.23 657.408C1113.67 674.661 1094.95 682.608 1085.14 685.88C1087.22 682.383 1088.32 678.394 1088.35 674.326C1088.29 662.051 1077.55 654.385 1075.96 653.282C1079.52 651.128 1082.76 648.49 1085.59 645.442C1092.76 637.533 1096.69 627.225 1096.61 616.558C1096.68 596.761 1082.79 583.812 1079.17 580.659C1073.26 575.519 1063.13 566.705 1051.17 567.867C1040.99 568.857 1036.71 576.376 1025.93 574.882C1021.44 574.26 1016.08 572.111 1015.84 569.447C1015.44 565.151 1028.57 561.703 1027.77 558.79Z" fill="#FFEECC" stroke="#282724" stroke-width="0.1687" stroke-miterlimit="10"/>
<path opacity="0.1" d="M1106.01 580.7C1098 572.153 1092.02 567.042 1092.02 567.042C1081.54 558.08 1078.82 558.282 1074.58 552.187C1070.81 546.761 1070.16 542.567 1065.86 541.459C1064.02 541.219 1062.14 541.432 1060.39 542.078C1076.51 553.868 1088.88 571.666 1096.63 587.16C1110.33 614.515 1102.53 639.749 1084.24 661.743C1086.84 665.433 1088.27 669.816 1088.35 674.325C1088.33 678.394 1087.22 682.382 1085.14 685.879C1094.95 682.608 1113.67 674.66 1123.23 657.408C1140.06 627.036 1115.67 591.005 1106.01 580.7Z" fill="#282724"/>
<path opacity="0.1" d="M1087.7 590.051C1087.47 588.478 1087.24 586.933 1087.02 585.438C1077.37 574.924 1065.25 566.983 1051.76 562.336C1039.63 557.774 1029.57 554.861 1022.27 544.244C1021.33 542.876 1020.56 541.398 1019.98 539.844C1018.9 540.627 1017.97 541.591 1017.22 542.694C1015.96 544.461 1015.33 546.591 1015.41 548.755C1015.5 550.918 1016.29 552.994 1017.67 554.66C1021.17 558.243 1027.23 556.813 1027.77 558.786C1028.57 561.701 1015.45 565.148 1015.84 569.444C1016.08 572.108 1021.45 574.257 1025.94 574.879C1036.72 576.373 1040.99 568.854 1051.18 567.864C1063.14 566.702 1073.26 575.516 1079.17 580.656C1082.36 583.452 1085.23 586.604 1087.7 590.051Z" fill="#282724"/>
</svg>
