<svg width="1545" height="3929" viewBox="0 0 1545 3929" fill="none" xmlns="http://www.w3.org/2000/svg">
<path d="M905.012 1737.72C905.222 1740.7 904.758 1743.69 903.653 1746.46C902.709 1748.92 901.527 1752.15 900.229 1755.86C887.916 1745.41 877.989 1732.44 871.117 1717.82C874.405 1720.78 878.534 1722.63 882.927 1723.13C888.478 1723.78 894.678 1722.36 899.579 1726.46C902.666 1729.45 904.591 1733.44 905.012 1737.72Z" fill="black"/>
<path d="M905.012 1737.72C905.222 1740.7 904.758 1743.69 903.653 1746.46C902.709 1748.92 901.527 1752.15 900.229 1755.86C887.916 1745.41 877.989 1732.44 871.117 1717.82C874.405 1720.78 878.534 1722.63 882.927 1723.13C888.478 1723.78 894.678 1722.36 899.579 1726.46C902.666 1729.45 904.591 1733.44 905.012 1737.72Z" fill="black"/>
<path d="M905.012 1737.72C905.222 1740.7 904.758 1743.69 903.653 1746.46C902.709 1748.92 901.527 1752.15 900.229 1755.86C887.916 1745.41 877.989 1732.44 871.117 1717.82C874.405 1720.78 878.534 1722.63 882.927 1723.13C888.478 1723.78 894.678 1722.36 899.579 1726.46C902.666 1729.45 904.591 1733.44 905.012 1737.72Z" fill="black"/>
<path d="M837.459 1846.21C836.404 1844.6 835.733 1842.78 835.497 1840.87C835.262 1838.97 835.468 1837.03 836.101 1835.22C837.872 1831.56 841.415 1831.23 842.832 1828.99C846.907 1822.54 828.778 1808.11 821.692 1798.99C813.839 1788.88 811.831 1775.16 813.368 1761.06C814.452 1761.19 815.476 1761.62 816.32 1762.31C822.757 1767.51 818.918 1772.42 825.414 1781.17C831.969 1790.13 840.235 1788.6 844.959 1796.85C847.195 1801.1 847.943 1805.97 847.085 1810.68C852.146 1804.17 858.739 1799.01 866.276 1795.65C873.502 1792.54 881.323 1791.05 889.188 1791.28C888.093 1795.33 887.207 1799.44 886.532 1803.58C884.943 1814.23 885.586 1825.1 888.421 1835.5" fill="black"/>
<path d="M837.459 1846.21C836.404 1844.6 835.733 1842.78 835.497 1840.87C835.262 1838.97 835.468 1837.03 836.101 1835.22C837.872 1831.56 841.415 1831.23 842.832 1828.99C846.907 1822.54 828.778 1808.11 821.692 1798.99C813.839 1788.88 811.831 1775.16 813.368 1761.06C814.452 1761.19 815.476 1761.62 816.32 1762.31C822.757 1767.51 818.918 1772.42 825.414 1781.17C831.969 1790.13 840.235 1788.6 844.959 1796.85C847.195 1801.1 847.943 1805.97 847.085 1810.68C852.146 1804.17 858.739 1799.01 866.276 1795.65C873.502 1792.54 881.323 1791.05 889.188 1791.28C888.093 1795.33 887.207 1799.44 886.532 1803.58C884.943 1814.23 885.586 1825.1 888.421 1835.5" fill="black"/>
<path d="M837.459 1846.21C836.404 1844.6 835.733 1842.78 835.497 1840.87C835.262 1838.97 835.468 1837.03 836.101 1835.22C837.872 1831.56 841.415 1831.23 842.832 1828.99C846.907 1822.54 828.778 1808.11 821.692 1798.99C813.839 1788.88 811.831 1775.16 813.368 1761.06C814.452 1761.19 815.476 1761.62 816.32 1762.31C822.757 1767.51 818.918 1772.42 825.414 1781.17C831.969 1790.13 840.235 1788.6 844.959 1796.85C847.195 1801.1 847.943 1805.97 847.085 1810.68C852.146 1804.17 858.739 1799.01 866.276 1795.65C873.502 1792.54 881.323 1791.05 889.188 1791.28C888.093 1795.33 887.207 1799.44 886.532 1803.58C884.943 1814.23 885.586 1825.1 888.421 1835.5" fill="black"/>
<path d="M843.482 1844.95C842.459 1843.68 841.706 1842.22 841.27 1840.65C840.835 1839.08 840.725 1837.44 840.948 1835.82C841.858 1831.66 845.418 1830.93 846.5 1828.17C849.282 1821.09 831.221 1812.02 821.692 1798.99C816.622 1792.05 811.409 1780.5 813.368 1761.06C814.452 1761.19 815.476 1761.62 816.32 1762.31C822.757 1767.51 818.918 1772.42 825.414 1781.17C831.969 1790.13 840.235 1788.6 844.959 1796.85C847.195 1801.1 847.943 1805.97 847.085 1810.68C852.146 1804.17 858.739 1799.01 866.276 1795.65C873.502 1792.54 881.323 1791.05 889.188 1791.28C881.951 1796.63 876.477 1804.02 873.468 1812.5C870.459 1820.98 870.052 1830.17 872.299 1838.89" fill="black"/>
<path d="M900.229 1755.86C896.568 1766.03 892.139 1779.75 889.187 1791.28C881.321 1791.04 873.5 1792.54 866.275 1795.65C858.737 1799 852.145 1804.17 847.084 1810.68C847.942 1805.96 847.194 1801.1 844.958 1796.85C840.234 1788.6 831.968 1790.13 825.413 1781.17C818.917 1772.42 822.757 1767.5 816.319 1762.31C815.475 1761.62 814.45 1761.18 813.367 1761.05C816.732 1729.41 837.813 1695.85 850.509 1696.51C858.303 1696.89 862.082 1710.17 871.117 1717.82C877.989 1732.44 887.916 1745.41 900.229 1755.86Z" fill="black"/>
<path d="M888.419 1835.49C889.977 1841.85 893.647 1847.49 898.828 1851.49C904.009 1855.49 910.394 1857.62 916.939 1857.52C917.972 1857.48 918.999 1857.35 920.01 1857.14C920.712 1857.03 921.403 1856.87 922.077 1856.65C922.638 1856.5 923.19 1856.31 923.729 1856.1C924.234 1855.93 924.727 1855.73 925.205 1855.5C926.366 1854.95 927.49 1854.33 928.571 1853.64C929.817 1852.82 930.984 1851.89 932.054 1850.85C932.608 1850.38 933.121 1849.87 933.59 1849.32C934.283 1848.65 934.915 1847.92 935.479 1847.13C936.564 1845.79 937.551 1844.36 938.432 1842.87C938.845 1842.16 939.2 1841.51 939.495 1840.9C939.699 1840.62 939.858 1840.31 939.967 1839.98C940.221 1839.54 940.438 1839.08 940.617 1838.61C940.982 1837.87 941.298 1837.1 941.562 1836.31C943.069 1831.04 943.254 1825.49 942.1 1820.13C940.947 1814.77 938.49 1809.78 934.948 1805.6L934.83 1805.49C934.141 1804.67 933.391 1803.9 932.586 1803.19C931.826 1802.43 930.996 1801.73 930.106 1801.12C930.047 1801.12 930.047 1801.06 929.988 1801.01C929.177 1800.39 928.329 1799.83 927.449 1799.31C926.646 1798.76 925.797 1798.29 924.91 1797.89C923.913 1797.36 922.888 1796.89 921.839 1796.47C921.016 1796.09 920.168 1795.76 919.3 1795.49C919.191 1795.43 919.07 1795.39 918.946 1795.38C917.942 1795.05 916.997 1794.72 915.993 1794.45C913.395 1793.71 910.752 1793.15 908.08 1792.75C906.781 1792.54 905.541 1792.37 904.36 1792.26C904.183 1792.26 903.947 1792.21 903.77 1792.21C900.286 1791.82 897.038 1791.66 894.441 1791.5C892.847 1791.39 891.075 1791.33 889.186 1791.28C881.321 1791.04 873.5 1792.54 866.275 1795.65C858.737 1799 852.145 1804.17 847.084 1810.68C847.942 1805.96 847.193 1801.09 844.958 1796.85C844.572 1796.14 844.095 1795.48 843.541 1794.88V1794.83C838.758 1788.76 831.377 1789.31 825.412 1781.17C818.917 1772.42 822.756 1767.5 816.319 1762.31C815.475 1761.62 814.45 1761.18 813.367 1761.05C807.135 1759.48 800.853 1758.12 794.589 1756.68C788.979 1755.65 783.56 1753.77 778.518 1751.1C775.398 1749.36 772.494 1747.26 769.863 1744.84C770.608 1742.89 771.585 1740.11 772.507 1736.72C775.202 1727.82 776.203 1718.5 775.457 1709.24C773.731 1695.54 767.475 1682.8 757.683 1673.06C749.767 1665.78 740.442 1660.2 730.284 1656.66C727.556 1655.75 724.776 1655 721.959 1654.42C721.782 1654.37 721.605 1654.37 721.487 1654.31H721.427C719.634 1653.93 717.931 1653.2 716.409 1652.18C707.492 1646.39 709.086 1639.06 699.461 1627.64C695.267 1623.42 690.831 1619.44 686.175 1615.73C672.003 1603.48 664.917 1597.36 664.74 1597.09C651.1 1579.93 663.736 1550.2 672.535 1529.59C677.141 1518.77 680.979 1509.75 689.896 1499.8C693.203 1496.14 702.769 1486.14 730.758 1473.3C762.822 1458.54 778.884 1451.16 801.5 1453.18C807.228 1453.68 834.45 1456.13 851.516 1473.95C857.464 1480.88 862.967 1488.19 867.99 1495.81C873.127 1503.08 877.379 1509.64 884.937 1518.77C887.417 1521.78 889.601 1524.23 891.197 1526.04L891.905 1526.86C886.775 1540.61 883.287 1554.92 881.513 1569.49C881.076 1573.37 880.918 1577.28 881.04 1581.18V1581.29C881.513 1595.5 886.118 1603.92 891.787 1609.17C899.286 1616.16 910.506 1619.17 912.927 1629.88C913.828 1634.6 913.272 1639.48 911.333 1643.87C911.087 1644.55 910.791 1645.21 910.447 1645.84C909.174 1648.58 907.37 1651.04 905.14 1653.07C902.91 1655.11 900.298 1656.68 897.456 1657.7C896.612 1657.97 895.74 1658.13 894.858 1658.19C885.173 1659.29 877.379 1650.65 869.644 1654.31C862.439 1657.7 861.672 1668.69 861.377 1673.55C861.258 1675.41 861.258 1677.43 861.317 1679.45C861.317 1680.77 861.436 1682.13 861.553 1683.55C861.672 1685.03 861.849 1686.5 862.085 1688.09C862.144 1688.47 862.203 1688.91 862.263 1689.35C862.499 1691.04 862.853 1692.79 863.207 1694.59C863.325 1695.19 863.502 1695.8 863.62 1696.45C863.975 1697.98 864.388 1699.51 864.802 1701.04C864.861 1701.26 864.92 1701.43 864.979 1701.64C865.097 1702.03 865.215 1702.46 865.333 1702.85C865.628 1703.77 865.923 1704.7 866.219 1705.63C866.411 1706.1 866.569 1706.57 866.691 1707.05C867.341 1708.8 867.99 1710.61 868.758 1712.36C869.466 1714.21 870.293 1716.02 871.12 1717.82C871.415 1718.48 871.71 1719.08 872.005 1719.68C872.478 1720.55 872.891 1721.48 873.364 1722.36C873.454 1722.5 873.533 1722.64 873.6 1722.8C874.485 1724.49 875.43 1726.13 876.434 1727.77C877.438 1729.41 878.442 1731.05 879.564 1732.69C879.68 1732.92 879.818 1733.14 879.978 1733.34C880.804 1734.55 881.629 1735.69 882.457 1736.84C882.752 1737.28 883.105 1737.72 883.461 1738.21C884.524 1739.57 885.528 1740.89 886.591 1742.14C886.663 1742.2 886.723 1742.28 886.768 1742.36C888.067 1743.84 889.366 1745.31 890.725 1746.79C890.938 1746.99 891.135 1747.21 891.315 1747.44C894.133 1750.41 897.11 1753.22 900.232 1755.86C900.881 1756.46 901.53 1757.01 902.24 1757.56C902.535 1757.83 902.888 1758.1 903.244 1758.38C903.892 1758.92 904.543 1759.41 905.252 1759.96C906.256 1760.73 907.319 1761.49 908.382 1762.26C908.505 1762.34 908.624 1762.43 908.736 1762.53C920.81 1770.89 934.147 1777.26 948.24 1781.39C948.299 1781.39 948.417 1781.44 948.476 1781.44C948.487 1781.45 948.501 1781.46 948.516 1781.47C948.531 1781.48 948.548 1781.48 948.565 1781.48C948.582 1781.48 948.598 1781.48 948.613 1781.47C948.629 1781.46 948.642 1781.45 948.653 1781.44C957.458 1784.08 966.463 1786 975.58 1787.18C979.477 1787.72 983.139 1788.05 986.445 1788.33C989.634 1788.54 992.527 1788.65 995.008 1788.65C994.129 1790.91 993.63 1793.29 993.531 1795.7C993.434 1797.37 993.573 1799.05 993.944 1800.68C994.106 1801.33 994.304 1801.96 994.535 1802.59C994.535 1802.65 994.594 1802.7 994.594 1802.81C994.948 1803.79 995.421 1805.05 996.07 1807.4C996.072 1807.42 996.079 1807.44 996.089 1807.46C996.099 1807.48 996.113 1807.5 996.13 1807.51C996.747 1809.61 997.124 1811.77 997.251 1813.96V1814.01C997.241 1814.42 997.202 1814.82 997.133 1815.22C997.119 1815.31 997.099 1815.4 997.074 1815.49C997.015 1815.6 997.015 1815.76 996.956 1815.87C996.306 1817.68 995.362 1818.06 994.83 1819.1C994.669 1819.45 994.55 1819.81 994.476 1820.19C994.424 1820.39 994.404 1820.59 994.417 1820.79C994.417 1822.59 995.657 1823.8 996.661 1826.75C997.395 1828.8 997.755 1830.96 997.724 1833.14C991.114 1841.57 985.264 1850.57 980.245 1860.03C975.224 1869.54 974.813 1872.55 970.325 1877.58C965.542 1882.88 961.762 1884.35 943.752 1893.04C917.239 1905.78 914.346 1908.02 906.906 1907.69C899.997 1907.42 894.8 1905.29 885.471 1901.35C877.316 1898.53 869.75 1894.23 863.15 1888.67C858.072 1884.03 857.422 1881.35 844.726 1858.94C844.254 1858.12 843.722 1857.19 843.191 1856.15C840.77 1851.94 838.821 1848.55 837.463 1846.2" fill="black"/>
<path d="M997.719 1833.14C991.109 1841.57 985.26 1850.57 980.241 1860.03C975.22 1869.54 974.808 1872.55 970.32 1877.58C965.537 1882.88 961.758 1884.36 943.748 1893.05C917.235 1905.78 914.341 1908.02 906.901 1907.69C899.992 1907.42 894.796 1905.29 885.466 1901.35C877.312 1898.53 869.746 1894.23 863.145 1888.67C858.067 1884.03 857.418 1881.35 844.722 1858.94C844.25 1858.12 843.718 1857.19 843.187 1856.15C841.71 1853.42 839.879 1850.03 837.459 1846.21L888.419 1835.49C889.977 1841.85 893.647 1847.49 898.828 1851.49C904.009 1855.49 910.394 1857.62 916.939 1857.52C917.972 1857.48 918.999 1857.35 920.01 1857.14C920.712 1857.03 921.403 1856.87 922.077 1856.65C922.638 1856.5 923.19 1856.31 923.729 1856.1C924.234 1855.93 924.727 1855.73 925.205 1855.5C926.366 1854.95 927.49 1854.33 928.571 1853.64C929.817 1852.82 930.984 1851.89 932.054 1850.85C932.608 1850.38 933.121 1849.87 933.59 1849.32C934.283 1848.65 934.915 1847.92 935.479 1847.13C936.564 1845.79 937.551 1844.36 938.432 1842.87C938.845 1842.16 939.2 1841.51 939.495 1840.9C939.699 1840.62 939.858 1840.31 939.967 1839.98C940.221 1839.54 940.438 1839.08 940.617 1838.61C940.982 1837.87 941.298 1837.1 941.562 1836.31C943.069 1831.04 943.254 1825.49 942.1 1820.13C940.947 1814.77 938.49 1809.78 934.948 1805.6L934.83 1805.49C934.141 1804.67 933.391 1803.9 932.586 1803.19C931.826 1802.43 930.996 1801.73 930.106 1801.12C930.047 1801.12 930.047 1801.06 929.988 1801.01C929.177 1800.39 928.329 1799.83 927.449 1799.31C926.646 1798.76 925.797 1798.29 924.91 1797.89C923.913 1797.36 922.888 1796.89 921.839 1796.47C921.016 1796.09 920.168 1795.76 919.3 1795.49C919.191 1795.43 919.07 1795.39 918.946 1795.38C917.942 1795.05 916.997 1794.72 915.993 1794.45C913.395 1793.71 910.752 1793.15 908.08 1792.75C906.781 1792.54 905.541 1792.37 904.36 1792.26C904.183 1792.26 903.947 1792.21 903.77 1792.21C900.286 1791.82 897.038 1791.66 894.441 1791.5C892.847 1791.39 891.075 1791.33 889.186 1791.28C881.321 1791.04 873.5 1792.54 866.275 1795.65C858.737 1799 852.145 1804.17 847.084 1810.68C847.942 1805.96 847.193 1801.09 844.958 1796.85C844.572 1796.14 844.095 1795.48 843.541 1794.88V1794.83C838.758 1788.76 831.377 1789.31 825.412 1781.17C818.917 1772.42 822.756 1767.5 816.319 1762.31C815.475 1761.62 814.45 1761.18 813.367 1761.05C807.135 1759.48 800.853 1758.12 794.589 1756.68C788.979 1755.65 783.56 1753.77 778.518 1751.1C775.398 1749.36 772.494 1747.26 769.863 1744.84C770.608 1742.89 771.585 1740.11 772.507 1736.72C775.202 1727.82 776.203 1718.5 775.457 1709.24C773.731 1695.54 767.475 1682.8 757.683 1673.06C749.767 1665.78 740.442 1660.2 730.284 1656.66C727.556 1655.75 724.776 1655 721.959 1654.42C721.782 1654.37 721.605 1654.37 721.487 1654.31H721.427C719.634 1653.93 717.931 1653.2 716.409 1652.18C707.492 1646.39 709.086 1639.06 699.461 1627.64C695.267 1623.42 690.831 1619.44 686.175 1615.73C672.003 1603.48 664.917 1597.36 664.74 1597.09C651.1 1579.93 663.736 1550.2 672.535 1529.59C677.141 1518.77 680.979 1509.75 689.896 1499.8C693.203 1496.14 702.769 1486.14 730.758 1473.3C762.822 1458.54 778.884 1451.16 801.5 1453.18C807.228 1453.68 834.45 1456.13 851.516 1473.95C857.464 1480.88 862.967 1488.19 867.99 1495.81C873.127 1503.08 877.379 1509.64 884.937 1518.77C887.417 1521.78 889.601 1524.23 891.197 1526.04L891.905 1526.86C886.775 1540.61 883.287 1554.92 881.513 1569.49C881.076 1573.37 880.918 1577.28 881.04 1581.18V1581.29C881.513 1595.5 886.118 1603.92 891.787 1609.17C899.286 1616.16 910.506 1619.17 912.927 1629.88C913.828 1634.6 913.272 1639.48 911.333 1643.87C911.087 1644.55 910.791 1645.21 910.447 1645.84C909.174 1648.58 907.37 1651.04 905.14 1653.07C902.91 1655.11 900.298 1656.68 897.456 1657.7C896.612 1657.97 895.74 1658.13 894.858 1658.19C885.173 1659.29 877.379 1650.65 869.644 1654.31C862.439 1657.7 861.672 1668.69 861.377 1673.55C861.258 1675.41 861.258 1677.43 861.317 1679.45C861.317 1680.77 861.436 1682.13 861.553 1683.55C861.672 1685.03 861.849 1686.5 862.085 1688.09C862.144 1688.47 862.203 1688.91 862.263 1689.35C862.499 1691.04 862.853 1692.79 863.207 1694.59C863.325 1695.19 863.502 1695.8 863.62 1696.45C863.975 1697.98 864.388 1699.51 864.802 1701.04C864.861 1701.26 864.92 1701.43 864.979 1701.64C865.097 1702.03 865.215 1702.46 865.333 1702.85C865.628 1703.77 865.923 1704.7 866.219 1705.63C866.411 1706.1 866.569 1706.57 866.691 1707.05C867.341 1708.8 867.99 1710.61 868.758 1712.36C869.466 1714.21 870.293 1716.02 871.12 1717.82C871.415 1718.48 871.71 1719.08 872.005 1719.68C872.478 1720.55 872.891 1721.48 873.364 1722.36C873.454 1722.5 873.533 1722.64 873.6 1722.8C874.485 1724.49 875.43 1726.13 876.434 1727.77C877.438 1729.41 878.442 1731.05 879.564 1732.69C879.68 1732.92 879.818 1733.14 879.978 1733.34C880.804 1734.55 881.629 1735.69 882.457 1736.84C882.752 1737.28 883.105 1737.72 883.461 1738.21C884.524 1739.57 885.528 1740.89 886.591 1742.14C886.663 1742.2 886.723 1742.28 886.768 1742.36C888.067 1743.84 889.366 1745.31 890.725 1746.79C890.938 1746.99 891.135 1747.21 891.315 1747.44C894.133 1750.41 897.11 1753.22 900.232 1755.86C900.881 1756.46 901.53 1757.01 902.24 1757.56C902.535 1757.83 902.888 1758.1 903.244 1758.38C903.892 1758.92 904.543 1759.41 905.252 1759.96C906.256 1760.73 907.319 1761.49 908.382 1762.26C908.505 1762.34 908.624 1762.43 908.736 1762.53C920.81 1770.89 934.147 1777.26 948.24 1781.39C948.299 1781.39 948.417 1781.44 948.476 1781.44C948.487 1781.45 948.501 1781.46 948.516 1781.47C948.531 1781.48 948.548 1781.48 948.565 1781.48C948.582 1781.48 948.598 1781.48 948.613 1781.47C948.629 1781.46 948.642 1781.45 948.653 1781.44C957.458 1784.08 966.463 1786 975.58 1787.18C979.477 1787.72 983.139 1788.05 986.445 1788.33C989.634 1788.54 992.527 1788.65 995.008 1788.65C979.097 1789.22 963.175 1787.86 947.59 1784.61C919.778 1778.54 902.949 1766.63 902.122 1767.94C901.178 1769.36 915.409 1782.97 936.312 1789.26C948.535 1792.92 961.821 1793.74 979.182 1794.83C985.087 1795.16 990.047 1795.32 993.472 1795.43C993.472 1795.54 993.472 1795.65 993.531 1795.7C993.711 1798.02 994.046 1800.32 994.535 1802.59C994.535 1802.65 994.594 1802.7 994.594 1802.81C994.972 1804.37 995.466 1805.91 996.07 1807.4C996.072 1807.42 996.079 1807.44 996.089 1807.46C996.099 1807.48 996.113 1807.5 996.13 1807.51C996.938 1809.56 997.319 1811.76 997.251 1813.96V1814.01C997.241 1814.42 997.202 1814.82 997.133 1815.22C997.119 1815.31 997.099 1815.4 997.074 1815.49C997.042 1815.62 997.003 1815.75 996.956 1815.87C996.306 1817.68 995.362 1818.06 994.83 1819.1C994.669 1819.45 994.55 1819.81 994.476 1820.19C994.424 1820.39 994.404 1820.59 994.417 1820.79C994.417 1822.59 995.657 1823.8 996.661 1826.75C997.393 1828.8 997.752 1830.97 997.719 1833.14Z" fill="black"/>
<path d="M813.839 1699.95C813.839 1699.95 814.607 1732.47 803.092 1737.56C800.258 1738.81 799.076 1737.17 790.279 1737.34C784.452 1737.45 778.662 1738.28 773.036 1739.8C775.044 1736.08 786.913 1713.84 776.579 1690.94C764.769 1664.65 732.587 1656.83 726.682 1655.41C724.792 1654.92 723.139 1654.64 721.958 1654.43C721.781 1654.37 721.604 1654.37 721.486 1654.32C724.457 1653.81 727.132 1652.21 728.985 1649.84C733.236 1643.44 726.092 1633.22 722.903 1628.74C703.003 1600.7 673.065 1604.36 665.506 1584.41C662.553 1576.54 666.391 1564.9 674.127 1541.56C678.083 1529.65 680.564 1522 686.055 1513.58C688.653 1509.59 698.987 1494.51 726.327 1480.79C741.916 1472.97 801.202 1443.18 837.93 1468.38C858.775 1482.65 864.975 1509.54 866.156 1514.73C868.307 1525.41 869.101 1536.32 868.518 1547.19C868.279 1555.08 867.411 1562.94 865.92 1570.7C868.159 1549.42 862.553 1528.06 850.153 1510.63C843.599 1501.56 826.357 1477.67 796.537 1475.6C765.536 1473.52 733.708 1495.93 729.575 1521.02C729.427 1521.81 729.348 1522.61 729.338 1523.42C729.338 1546.14 746.279 1563.38 756.619 1574.08C763.696 1581.41 800.582 1619.61 811.144 1662.08C814.191 1674.46 815.102 1687.27 813.839 1699.95Z" fill="black"/>
<path d="M908.731 1762.53C920.805 1770.89 934.143 1777.26 948.235 1781.39C947.114 1781.28 945.874 1781.11 944.575 1780.95C944.28 1780.9 943.335 1780.73 941.859 1780.46C940.028 1780.13 937.961 1779.69 935.777 1779.2C935.895 1779.2 935.659 1779.15 935.129 1779.04C933.416 1778.6 931.586 1778.11 929.696 1777.56C928.633 1777.23 927.393 1776.85 926.271 1776.41C903.892 1768.71 890.31 1755.21 877.791 1742.53C866.908 1731.95 857.511 1719.95 849.861 1706.84C840.413 1690.5 820.809 1656.56 832.619 1626.44C836.05 1618.62 840.243 1611.15 845.137 1604.14C849.983 1597.1 855.458 1590.52 861.495 1584.47C862.499 1583.43 863.503 1582.45 864.447 1581.52C865.273 1581.02 866.159 1580.53 866.986 1580.09C868.817 1579 870.646 1577.96 872.478 1576.92C875.49 1578.35 878.383 1579.77 881.04 1581.19V1581.3C881.512 1595.51 886.118 1603.92 891.787 1609.17C899.286 1616.17 910.506 1619.17 912.927 1629.89C913.828 1634.6 913.272 1639.48 911.332 1643.88C911.087 1644.55 910.79 1645.21 910.447 1645.84C909.174 1648.58 907.37 1651.04 905.14 1653.08C902.91 1655.11 900.298 1656.69 897.456 1657.7C896.611 1657.97 895.74 1658.13 894.857 1658.2C885.173 1659.29 877.379 1650.65 869.644 1654.32C862.439 1657.7 861.672 1668.69 861.376 1673.56C861.258 1675.41 861.258 1677.44 861.317 1679.46C861.317 1680.82 861.435 1682.19 861.553 1683.56C861.672 1685.03 861.849 1686.51 862.085 1688.09C862.111 1688.52 862.17 1688.94 862.262 1689.35C862.498 1691.04 862.853 1692.79 863.207 1694.6C863.325 1695.2 863.502 1695.8 863.62 1696.46C863.975 1697.93 864.388 1699.46 864.801 1701.05C864.86 1701.26 864.919 1701.43 864.978 1701.65C865.097 1702.03 865.215 1702.47 865.333 1702.85C865.628 1703.78 865.923 1704.71 866.219 1705.64C866.411 1706.1 866.568 1706.57 866.691 1707.06C867.281 1708.65 867.872 1710.28 868.522 1711.92C869.171 1713.56 869.88 1715.2 870.647 1716.84C870.824 1717.17 870.942 1717.5 871.12 1717.83C871.415 1718.48 871.71 1719.08 872.005 1719.68C872.478 1720.56 872.891 1721.43 873.363 1722.36C873.454 1722.5 873.533 1722.65 873.6 1722.8C874.368 1724.27 875.252 1725.8 876.139 1727.33C876.23 1727.49 876.328 1727.63 876.434 1727.77C876.488 1727.95 876.568 1728.11 876.671 1728.26C877.615 1729.74 878.56 1731.22 879.564 1732.69C879.68 1732.92 879.818 1733.14 879.977 1733.35C880.147 1733.58 880.305 1733.81 880.449 1734.06C881.099 1734.99 881.748 1735.92 882.457 1736.84C882.753 1737.28 883.105 1737.72 883.462 1738.21C883.757 1738.59 884.052 1739.03 884.406 1739.41C885.115 1740.34 885.824 1741.22 886.591 1742.15C886.663 1742.21 886.723 1742.28 886.768 1742.37C888.068 1743.84 889.367 1745.32 890.725 1746.79C890.938 1747 891.135 1747.21 891.315 1747.45C894.133 1750.41 897.11 1753.22 900.232 1755.86C900.88 1756.47 901.531 1757.01 902.24 1757.56C902.535 1757.83 902.888 1758.11 903.244 1758.38C903.892 1758.93 904.543 1759.42 905.252 1759.96C906.256 1760.78 907.319 1761.55 908.382 1762.26C908.504 1762.34 908.621 1762.43 908.731 1762.53Z" fill="black"/>
<path d="M948.473 1781.44H948.295C948.295 1781.39 948.295 1781.39 948.235 1781.39C948.295 1781.39 948.414 1781.44 948.473 1781.44Z" fill="black"/>
<path d="M997.719 1833.14C991.109 1841.57 985.26 1850.57 980.241 1860.03C975.22 1869.54 974.808 1872.55 970.32 1877.58C965.537 1882.88 961.758 1884.36 943.748 1893.05C917.235 1905.78 914.341 1908.02 906.901 1907.69C899.992 1907.42 894.796 1905.29 885.466 1901.35C877.312 1898.53 869.746 1894.23 863.145 1888.67C858.067 1884.03 857.418 1881.35 844.722 1858.94C841.651 1853.48 839.112 1849.05 837.459 1846.21C854.465 1842.65 871.452 1839.08 888.419 1835.49C889.977 1841.85 893.647 1847.49 898.828 1851.49C904.009 1855.49 910.394 1857.62 916.939 1857.52C917.972 1857.48 918.999 1857.35 920.01 1857.14C920.712 1857.03 921.403 1856.87 922.077 1856.65C922.645 1856.52 923.198 1856.34 923.728 1856.1C924.234 1855.93 924.727 1855.73 925.205 1855.5C926.366 1854.95 927.49 1854.33 928.571 1853.64C929.817 1852.82 930.984 1851.89 932.054 1850.85C932.607 1850.39 933.121 1849.87 933.59 1849.32C934.283 1848.65 934.915 1847.92 935.479 1847.13C936.564 1845.79 937.55 1844.36 938.432 1842.87C938.845 1842.16 939.2 1841.51 939.495 1840.9C939.699 1840.62 939.858 1840.31 939.967 1839.98C940.22 1839.54 940.437 1839.08 940.615 1838.61C940.98 1837.87 941.296 1837.1 941.56 1836.31C943.067 1831.05 943.253 1825.49 942.099 1820.13C940.945 1814.77 938.489 1809.78 934.946 1805.6L934.828 1805.49C934.123 1804.68 933.374 1803.92 932.584 1803.19C931.757 1802.48 930.932 1801.77 930.104 1801.12C930.045 1801.12 930.045 1801.06 929.986 1801.01C929.159 1800.41 928.334 1799.86 927.447 1799.31C926.62 1798.82 925.795 1798.33 924.908 1797.89C923.911 1797.36 922.886 1796.89 921.837 1796.47C921.014 1796.09 920.166 1795.76 919.298 1795.49C919.189 1795.43 919.068 1795.39 918.944 1795.38C917.94 1795.05 916.995 1794.72 915.991 1794.45C913.393 1793.71 910.75 1793.15 908.079 1792.75C906.78 1792.54 905.54 1792.37 904.359 1792.26C900.639 1791.83 897.214 1791.66 894.438 1791.5C892.844 1791.39 891.072 1791.33 889.183 1791.28C881.318 1791.04 873.497 1792.54 866.272 1795.65C858.734 1799 852.142 1804.17 847.081 1810.68C847.939 1805.96 847.19 1801.09 844.955 1796.85C844.569 1796.14 844.092 1795.48 843.537 1794.88V1794.83C846.49 1787.07 854.934 1781.99 852.866 1778.21C851.39 1775.54 846.902 1777.72 842.473 1774.28C837.809 1770.67 840.348 1766.3 836.332 1756.79C832.612 1748.04 828.42 1746.84 829.187 1742.31C830.073 1737.5 835.86 1733.34 841.175 1732.36C852.098 1730.34 861.783 1741.81 873.474 1752.47C913.641 1787.61 934.661 1795.87 946.519 1795.81C947.768 1795.81 957.555 1795.67 973.578 1795.54C982.012 1795.47 988.931 1795.43 993.488 1795.41C993.414 1797.18 993.564 1798.95 993.935 1800.68C994.447 1802.49 995.065 1804.27 995.787 1806C996.847 1808.96 997.304 1812.1 997.129 1815.23C997.079 1815.45 997.019 1815.66 996.947 1815.87C996.297 1817.68 995.353 1818.06 994.821 1819.1C994.66 1819.45 994.541 1819.81 994.467 1820.19C994.415 1820.39 994.395 1820.59 994.408 1820.79C994.74 1825.08 995.862 1829.27 997.719 1833.14Z" fill="black"/>
<path d="M686.055 1513.58C699.873 1491.72 722.253 1481.72 735.48 1476.03C741.976 1473.19 809.41 1444.12 840.411 1470.4C850.568 1478.98 861.846 1497.79 865.507 1512C865.625 1512.38 865.862 1513.42 866.155 1514.73C868.306 1525.41 869.1 1536.32 868.517 1547.19C868.463 1555.1 867.593 1562.97 865.919 1570.69C867.877 1554.47 867.479 1538.05 864.738 1521.94C861.904 1507.24 858.656 1491.5 844.779 1479.59C836.503 1472.89 826.675 1468.38 816.199 1466.47C778.703 1457.5 744.927 1473.96 727.094 1482.59C712.333 1489.81 697.156 1497.4 686.055 1513.58Z" fill="black"/>
<path d="M799.077 1713.78C798.561 1718.21 797.047 1722.48 794.648 1726.24C792.818 1729.52 790.988 1731.49 788.92 1731.6C787.148 1731.71 786.381 1730.45 784.903 1730.18C782.719 1729.68 779.176 1731.16 773.034 1739.8C775.043 1736.08 786.911 1713.83 776.578 1690.93C764.768 1664.65 732.586 1656.83 726.681 1655.41C724.791 1654.92 723.138 1654.64 721.957 1654.43C721.779 1654.37 721.603 1654.37 721.484 1654.32C724.456 1653.81 727.13 1652.21 728.984 1649.83C733.235 1643.44 726.09 1633.22 722.901 1628.74C703.002 1600.7 673.064 1604.36 665.505 1584.41C662.552 1576.54 666.39 1564.9 674.126 1541.56C669.579 1558.34 666.331 1570.53 671.41 1582.23C678.436 1598.46 698.277 1605.78 729.691 1617.42C736.01 1619.77 734.947 1618.95 738.194 1620.27C759.24 1628.97 777.009 1644.07 788.979 1663.44C796.874 1678.99 800.366 1696.39 799.077 1713.78Z" fill="black"/>
<path d="M948.295 1781.44C948 1781.44 946.643 1781.28 944.575 1780.95C944.28 1780.9 943.335 1780.73 941.859 1780.46C940.028 1780.13 937.961 1779.69 935.777 1779.2C935.895 1779.2 935.659 1779.15 935.129 1779.04C933.416 1778.6 931.586 1778.11 929.696 1777.56C928.633 1777.23 927.393 1776.85 926.271 1776.41C893.735 1764.34 876.847 1737.44 861.966 1713.83C852.937 1698.62 845.949 1682.28 841.181 1665.25C839.529 1659.04 838.734 1652.64 838.819 1646.23C838.195 1636.27 839.725 1626.3 843.306 1616.99C845.019 1612.83 850.097 1605.35 860.254 1590.37C860.431 1590.1 860.726 1589.71 861.081 1589.22C861.73 1588.29 862.616 1587.04 863.855 1585.56C866.482 1582.45 869.367 1579.56 872.478 1576.92C875.49 1578.35 878.383 1579.77 881.04 1581.19V1581.3C881.512 1595.51 886.118 1603.92 891.787 1609.17C899.342 1615.54 906.409 1622.46 912.927 1629.89C913.828 1634.6 913.272 1639.48 911.332 1643.88C911.087 1644.55 910.79 1645.21 910.447 1645.84C909.174 1648.58 907.37 1651.04 905.14 1653.08C902.91 1655.11 900.298 1656.69 897.456 1657.7C896.611 1657.97 895.74 1658.13 894.857 1658.2C885.173 1659.29 877.379 1650.65 869.644 1654.32C862.439 1657.7 861.672 1668.69 861.376 1673.56C861.258 1675.41 861.258 1677.44 861.317 1679.46C861.317 1680.82 861.435 1682.19 861.553 1683.56C861.672 1685.03 861.849 1686.51 862.085 1688.09C862.144 1688.48 862.203 1688.91 862.262 1689.35C862.498 1691.04 862.853 1692.79 863.207 1694.6C863.325 1695.2 863.502 1695.8 863.62 1696.46C863.975 1697.93 864.388 1699.46 864.801 1701.05C864.86 1701.26 864.919 1701.43 864.978 1701.65C865.097 1702.03 865.215 1702.47 865.333 1702.85C865.628 1703.78 865.923 1704.71 866.219 1705.64C866.411 1706.1 866.568 1706.57 866.691 1707.06C867.281 1708.65 867.872 1710.28 868.522 1711.92C868.565 1712.08 868.645 1712.23 868.757 1712.36C869.301 1713.89 869.933 1715.38 870.647 1716.84C870.824 1717.17 870.942 1717.5 871.12 1717.83C871.415 1718.48 871.71 1719.08 872.005 1719.68C872.478 1720.56 872.891 1721.43 873.363 1722.36C873.454 1722.5 873.533 1722.65 873.6 1722.8C874.368 1724.27 875.252 1725.8 876.139 1727.33C876.316 1727.61 876.493 1727.94 876.671 1728.26C877.615 1729.74 878.56 1731.22 879.564 1732.69C879.68 1732.92 879.818 1733.14 879.977 1733.35C880.147 1733.58 880.305 1733.81 880.449 1734.06C881.099 1734.99 881.748 1735.92 882.457 1736.84C882.753 1737.28 883.105 1737.72 883.462 1738.21C883.757 1738.59 884.052 1739.03 884.406 1739.41C885.115 1740.34 885.824 1741.22 886.591 1742.15C886.663 1742.21 886.723 1742.28 886.768 1742.37C888.068 1743.84 889.367 1745.32 890.725 1746.79C890.938 1747 891.135 1747.21 891.315 1747.45C894.133 1750.41 897.11 1753.22 900.232 1755.86C900.88 1756.47 901.531 1757.01 902.24 1757.56C902.535 1757.83 902.888 1758.11 903.244 1758.38C903.892 1758.93 904.543 1759.42 905.252 1759.96C906.256 1760.73 907.319 1761.49 908.382 1762.26C908.506 1762.34 908.623 1762.43 908.735 1762.53C920.31 1771.72 933.816 1778.17 948.24 1781.39C948.295 1781.39 948.295 1781.39 948.295 1781.44Z" fill="black"/>
<path d="M997.719 1833.14C987.485 1839.71 979.092 1848.78 973.332 1859.49C971.671 1863.75 969.425 1867.76 966.659 1871.4C961.463 1877.69 954.909 1881.19 942.803 1885.94C923.022 1893.81 913.101 1897.69 906.134 1897.42C890.132 1896.76 878.616 1886.38 869.405 1878.45C863.208 1872.97 857.661 1866.79 852.871 1860.04C849.367 1855.25 846.229 1850.21 843.482 1844.95C853.107 1842.93 862.732 1840.91 872.298 1838.88C879.207 1859.93 902.354 1869.65 918.475 1863.64C925.185 1861.02 930.608 1855.88 933.591 1849.32C934.284 1848.65 934.917 1847.92 935.481 1847.14C936.565 1845.79 937.552 1844.36 938.433 1842.87C938.847 1842.16 939.201 1841.51 939.496 1840.91C939.7 1840.62 939.859 1840.31 939.969 1839.98C940.222 1839.54 940.439 1839.08 940.617 1838.61C940.982 1837.87 941.298 1837.1 941.562 1836.31C943.069 1831.05 943.254 1825.49 942.101 1820.13C940.947 1814.77 938.49 1809.78 934.948 1805.6L934.83 1805.49C934.14 1804.67 933.39 1803.9 932.586 1803.19C931.826 1802.43 930.996 1801.73 930.106 1801.12C930.047 1801.12 930.047 1801.06 929.988 1801.01C929.176 1800.39 928.328 1799.83 927.448 1799.31C926.646 1798.77 925.796 1798.29 924.91 1797.89C923.913 1797.36 922.888 1796.89 921.839 1796.47C921.016 1796.09 920.168 1795.76 919.3 1795.49C919.191 1795.43 919.07 1795.39 918.946 1795.38C917.941 1795.05 916.997 1794.72 915.993 1794.45C913.395 1793.71 910.752 1793.15 908.08 1792.76C906.781 1792.54 905.541 1792.37 904.36 1792.26C904.183 1792.26 903.947 1792.21 903.77 1792.21C900.258 1790.71 896.596 1789.59 892.846 1788.88C881.509 1786.69 878.853 1787.24 875.013 1784.83C870.171 1781.77 870.171 1777.07 867.277 1767.61C861.845 1749.63 854.168 1741.82 855.881 1740.67C858.579 1738.86 871.649 1764.88 902.353 1780.24C925.213 1791.67 951.589 1794.07 968.31 1795.59C978.661 1796.53 987.351 1796.69 993.477 1796.65C993.495 1797.89 993.611 1799.12 993.824 1800.34C994.388 1802.75 995.137 1805.11 996.063 1807.4C996.936 1809.92 997.3 1812.58 997.132 1815.24C997.083 1815.45 997.022 1815.67 996.95 1815.88C996.301 1817.68 995.356 1818.06 994.824 1819.1C994.663 1819.45 994.544 1819.82 994.47 1820.19C994.438 1820.39 994.418 1820.59 994.411 1820.79C994.424 1822.14 994.887 1823.45 995.727 1824.51C997.124 1827.17 997.811 1830.14 997.719 1833.14Z" fill="black"/>
<path d="M1164.3 1813.07C1165.44 1808.94 1166.24 1803.62 1163.31 1801.28C1160.62 1799.12 1156.06 1800.51 1155.56 1799.15C1155.01 1797.66 1160.05 1794.97 1163.02 1793.04C1163.02 1793.04 1169.87 1788.59 1178.24 1775.23C1185.11 1764.28 1175.94 1728.1 1146.2 1689.27C1120.91 1700.81 1108.51 1703.22 1101.93 1702.79C1100.62 1702.7 1095.51 1702.24 1093.52 1704.84C1091.84 1707.01 1093.68 1709.61 1093.52 1713.85C1093.04 1717.94 1091.34 1721.8 1088.65 1724.91C1081.71 1736.03 1099.32 1755.05 1107.04 1782.94C1109.24 1790.94 1110.51 1799.17 1110.81 1807.46" fill="black"/>
<path d="M1164.3 1813.07C1165.44 1808.94 1166.24 1803.62 1163.31 1801.28C1160.62 1799.12 1156.06 1800.51 1155.56 1799.15C1155.01 1797.66 1160.05 1794.97 1163.02 1793.04C1163.02 1793.04 1169.87 1788.59 1178.24 1775.23C1185.11 1764.28 1175.94 1728.1 1146.2 1689.27C1120.91 1700.81 1108.51 1703.22 1101.93 1702.79C1100.62 1702.7 1095.51 1702.24 1093.52 1704.84C1091.84 1707.01 1093.68 1709.61 1093.52 1713.85C1093.04 1717.94 1091.34 1721.8 1088.65 1724.91C1081.71 1736.03 1099.32 1755.05 1107.04 1782.94C1109.24 1790.94 1110.51 1799.17 1110.81 1807.46L1164.3 1813.07Z" fill="black"/>
<path d="M1164.3 1813.07C1165.44 1808.94 1166.24 1803.62 1163.31 1801.28C1160.62 1799.12 1156.06 1800.51 1155.56 1799.15C1155.01 1797.66 1160.05 1794.97 1163.02 1793.04C1163.02 1793.04 1169.87 1788.59 1178.24 1775.23C1185.11 1764.28 1175.94 1728.1 1146.2 1689.27C1120.91 1700.81 1108.51 1703.22 1101.93 1702.79C1100.62 1702.7 1095.51 1702.24 1093.52 1704.84C1091.84 1707.01 1093.68 1709.61 1093.52 1713.85C1093.04 1717.94 1091.34 1721.8 1088.65 1724.91C1081.71 1736.03 1099.32 1755.05 1107.04 1782.94C1109.24 1790.94 1110.51 1799.17 1110.81 1807.46L1164.3 1813.07Z" fill="black"/>
<path d="M1161.82 1812.81C1162.38 1811.64 1162.67 1810.36 1162.66 1809.06C1162.66 1807.77 1162.35 1806.49 1161.78 1805.33C1159.21 1801.27 1152.22 1801.96 1151.88 1799.87C1151.56 1797.86 1157.87 1796.05 1163.02 1793.04C1169.16 1788.1 1174.32 1782.06 1178.24 1775.23C1185.11 1764.28 1175.94 1728.1 1146.2 1689.27C1120.91 1700.81 1108.51 1703.22 1101.93 1702.79C1100.62 1702.7 1095.51 1702.24 1093.52 1704.84C1091.84 1707.01 1093.68 1709.61 1093.52 1713.85C1093.31 1719.34 1089.96 1722.38 1088.65 1724.91C1083.08 1735.75 1107.1 1752.95 1120.04 1777.87C1125.11 1787.72 1128.34 1798.42 1129.59 1809.43L1161.82 1812.81Z" fill="black"/>
<path d="M1164.3 1813.09C1164.1 1813.86 1163.86 1814.63 1163.59 1815.38C1163.12 1816.97 1162.59 1818.77 1161.94 1820.79C1161.52 1822 1161.17 1823.25 1160.7 1824.56C1157.74 1833.47 1154.91 1840.91 1152.49 1846.7C1148.36 1856.59 1146.46 1859.76 1143.99 1862.77C1139.14 1868.78 1137.43 1867.85 1124.15 1879.6C1118 1885.01 1116.41 1886.93 1112.34 1888.18C1108.03 1889.49 1106.55 1888.4 1097.1 1888.56C1085.53 1888.78 1084.52 1890.48 1079.74 1889.38C1073.13 1887.85 1072.12 1883.97 1064.98 1878.4C1051.1 1867.69 1043.6 1873.37 1034.92 1864.3C1028.54 1857.63 1031.44 1853.26 1023.11 1843.2C1019.7 1839.12 1015.7 1835.57 1011.24 1832.65C1011.73 1829.49 1012.63 1826.41 1013.9 1823.47C1016.02 1818.66 1017.44 1818.28 1017.62 1815.44C1017.66 1814.96 1017.64 1814.49 1017.56 1814.02C1017.11 1812.43 1016.54 1810.87 1015.85 1809.37C1015.82 1809.31 1015.78 1809.25 1015.73 1809.21C1015.19 1807.78 1014.74 1806.32 1014.37 1804.83C1014.25 1804.18 1013.96 1803.25 1013.78 1802.16C1013.75 1802.07 1013.73 1801.97 1013.72 1801.88C1013.6 1801.28 1013.48 1800.63 1013.37 1799.91C1013.09 1798.22 1012.95 1796.5 1012.95 1794.78V1794.67C1012.96 1792.78 1013.1 1790.9 1013.37 1789.04C1016.5 1788.38 1020.39 1787.34 1024.76 1785.98C1024.76 1785.98 1029.31 1784.56 1033.8 1782.7C1048.13 1776.28 1061.46 1767.81 1073.36 1757.56C1074.07 1757.01 1074.78 1756.41 1075.49 1755.81C1076.9 1754.72 1078.26 1753.57 1079.68 1752.26C1083.6 1748.94 1087.3 1745.38 1090.78 1741.6C1092.2 1740.07 1093.61 1738.43 1095.03 1736.79C1095.92 1735.7 1096.86 1734.6 1097.69 1733.45C1099.03 1731.88 1100.29 1730.24 1101.47 1728.54C1102.88 1726.62 1104.3 1724.66 1105.6 1722.63C1105.9 1722.2 1106.19 1721.76 1106.43 1721.32C1107.67 1719.46 1108.85 1717.55 1109.97 1715.64C1110.07 1715.52 1110.15 1715.39 1110.21 1715.26C1113.5 1709.71 1116.44 1703.96 1119 1698.04C1119.48 1696.89 1120.01 1695.8 1120.42 1694.65C1122.89 1688.67 1124.82 1682.49 1126.21 1676.18C1126.44 1675.03 1126.62 1673.94 1126.8 1672.84C1126.92 1672.38 1126.98 1671.9 1126.98 1671.42C1127.21 1670.17 1127.33 1668.91 1127.45 1667.71C1127.57 1666.28 1127.63 1664.92 1127.63 1663.55C1127.63 1655.85 1125.68 1649.67 1121.37 1645.9C1116.76 1641.91 1107.43 1638.85 1100.29 1637.7C1097.34 1637.2 1094.35 1637.02 1091.37 1637.15C1085.82 1637.43 1082.39 1638.74 1076.49 1637.1C1075.2 1636.72 1073.94 1636.26 1072.71 1635.73C1063.14 1631.58 1055.11 1622.29 1054.7 1613.16C1054.23 1602.94 1063.62 1597.53 1070.35 1588.57C1071.32 1587.25 1072.23 1585.88 1073.06 1584.47C1073.69 1583.42 1074.26 1582.35 1074.78 1581.24C1075.22 1580.4 1075.6 1579.52 1075.9 1578.62H1075.96C1075.96 1578.56 1076.02 1578.46 1076.02 1578.4C1076.37 1577.53 1076.73 1576.65 1077.02 1575.72C1077.08 1575.5 1077.2 1575.23 1077.26 1574.96C1077.49 1574.25 1077.67 1573.48 1077.85 1572.72C1078.03 1572.26 1078.15 1571.78 1078.2 1571.3C1078.42 1570.58 1078.58 1569.85 1078.67 1569.11C1078.81 1568.61 1078.91 1568.1 1078.97 1567.58C1079.04 1567.26 1079.08 1566.93 1079.09 1566.6C1079.21 1565.88 1079.32 1565.17 1079.38 1564.46C1079.54 1563.58 1079.64 1562.68 1079.68 1561.79C1080.19 1548.77 1078.35 1535.78 1074.25 1523.42C1073.83 1522.61 1073.47 1521.77 1073.18 1520.9C1073.18 1520.9 1073.17 1520.9 1073.16 1520.9C1073.15 1520.9 1073.15 1520.89 1073.14 1520.89C1073.14 1520.88 1073.13 1520.88 1073.13 1520.87C1073.13 1520.86 1073.12 1520.86 1073.12 1520.85C1072.42 1518.95 1071.94 1516.96 1071.71 1514.95C1070.58 1505.55 1075.31 1498.55 1079.8 1490.02C1088.42 1473.79 1085.52 1472.1 1090.49 1464.66C1108.38 1437.72 1159.93 1439.09 1164.65 1439.25C1179.61 1440.29 1194.42 1442.82 1208.88 1446.79C1216.83 1448.36 1224.65 1450.56 1232.26 1453.35C1264.5 1467.4 1275.02 1501.34 1275.43 1502.7C1280.08 1519.21 1279 1536.8 1272.36 1552.6C1268.11 1561.95 1265.33 1562 1257.12 1578.45C1249.21 1594.3 1249.86 1598.13 1242.89 1607.59C1234.98 1618.35 1231.73 1616.66 1224.11 1627.37C1218.09 1635.84 1215.79 1643.06 1211.89 1655.08C1206.28 1672.73 1207.34 1680.39 1207.87 1683.34C1208.55 1687.07 1209.74 1690.7 1211.42 1694.1C1204.23 1694.76 1197.46 1697.73 1192.11 1702.58C1189.16 1705.53 1188.98 1707.22 1185.49 1709.63C1179.06 1714.11 1174.45 1711.81 1170.26 1715.31C1166.42 1718.48 1168.84 1721.65 1166.19 1730.34C1163.29 1739.85 1158.92 1740.94 1153.49 1752.42C1151.23 1757.24 1149.53 1762.3 1148.41 1767.5C1135.17 1767.08 1121.95 1768.82 1109.26 1772.64C1097.39 1776.3 1084.34 1780.29 1074.25 1791.94C1071.71 1794.83 1059.54 1808.77 1063.56 1823.91C1064.7 1828.98 1067.58 1833.48 1071.71 1836.64C1076.69 1839.87 1082.54 1841.51 1088.48 1841.34C1091.66 1841.53 1094.84 1841.21 1097.93 1840.41C1106.72 1837.52 1111.8 1823.96 1110.8 1807.46" fill="black"/>
<path d="M1099.7 1565.17C1093.97 1549.18 1090.96 1532.34 1090.8 1515.35C1090.63 1492.6 1090.49 1474.04 1102.66 1460.4C1126.55 1433.62 1182.25 1443.29 1210.68 1453.41C1228.03 1459.58 1255.55 1469.38 1265.99 1493.45C1277.04 1518.93 1267.42 1550.74 1252.13 1570.42C1238.76 1587.62 1219.51 1597.84 1223.08 1606.72C1224.75 1610.87 1230.58 1612.71 1235.04 1613.61C1229.56 1617.8 1224.65 1622.7 1220.44 1628.17C1202.63 1651.43 1204.12 1677.57 1205.3 1687.63C1203.7 1688.25 1201.99 1688.52 1200.28 1688.41C1198.57 1688.31 1196.9 1687.84 1195.39 1687.04C1191.6 1684.12 1194.02 1678.04 1193.15 1670.76C1191.89 1660.32 1184.79 1654.83 1181.31 1649.74C1171.8 1635.78 1183.29 1615.12 1197.16 1583.52C1215.58 1541.57 1224.79 1520.6 1221.61 1506.04C1216.69 1483.5 1195.47 1460.33 1169.02 1456.68C1157.61 1455.25 1146.03 1457.15 1135.68 1462.16C1106.37 1476.57 1092.59 1517.76 1099.7 1565.17Z" fill="black"/>
<path d="M1099.7 1565.17C1095.39 1554.53 1092.75 1543.28 1091.84 1531.83C1093.18 1543.21 1095.81 1554.4 1099.7 1565.17Z" fill="black"/>
<path d="M1140.38 1443.73C1128.57 1445.97 1117.65 1451.53 1108.89 1459.76C1083.65 1485.11 1092.97 1531.83 1091.84 1531.83C1091.48 1531.83 1090.87 1526.97 1090.78 1515.33C1090.6 1492.59 1090.49 1474.07 1102.65 1460.4C1111.68 1450.24 1125.38 1445.37 1140.38 1443.73Z" fill="black"/>
<path d="M1252.1 1570.42C1236.94 1590.9 1219.93 1598.72 1223.11 1606.71C1224.76 1610.87 1230.55 1612.72 1235.04 1613.6C1229.56 1617.8 1224.65 1622.71 1220.45 1628.19C1212.29 1638.8 1207.13 1651.41 1205.51 1664.7C1198.78 1655.79 1190.87 1642.07 1192.46 1626.22C1193.72 1613.73 1200.5 1604.22 1210.77 1592.83C1239.27 1561.2 1251.13 1560.78 1260.72 1544.15C1266.22 1534.61 1271.48 1518.84 1265.98 1493.47C1269.74 1503.21 1271.38 1513.64 1270.78 1524.07C1269.35 1546.71 1257.12 1563.65 1252.1 1570.42Z" fill="black"/>
<path d="M1160.7 1824.56C1157.74 1833.47 1154.91 1840.91 1152.49 1846.7C1148.35 1856.59 1146.46 1859.76 1143.98 1862.77C1139.14 1868.78 1137.43 1867.85 1124.14 1879.6C1118 1885.01 1116.41 1886.93 1112.33 1888.18C1108.02 1889.49 1106.55 1888.4 1097.1 1888.56C1085.53 1888.78 1084.52 1890.48 1079.74 1889.38C1073.12 1887.85 1072.12 1883.97 1064.98 1878.4C1051.1 1867.69 1043.6 1873.37 1034.92 1864.3C1028.54 1857.63 1031.44 1853.26 1023.11 1843.2C1019.69 1839.12 1015.69 1835.57 1011.24 1832.65C1011.73 1829.49 1012.63 1826.41 1013.9 1823.47C1016.02 1818.66 1017.44 1818.28 1017.62 1815.44C1017.65 1814.96 1017.63 1814.49 1017.56 1814.02C1017.24 1812.32 1016.62 1810.68 1015.74 1809.19C1014.79 1807.69 1013.66 1804.07 1012.97 1794.68C1026.64 1792.34 1039.99 1788.4 1052.74 1782.94C1084.95 1769.04 1110.93 1745.73 1126.21 1732.14C1139.81 1720.06 1148.72 1710 1151.96 1711.92C1154.91 1713.67 1152.55 1725.2 1146.82 1733.95C1141.33 1742.25 1134.83 1744.99 1135.84 1748.21C1136.49 1750.18 1139.85 1752.36 1153.49 1752.42C1151.24 1757.24 1149.53 1762.3 1148.41 1767.5C1135.17 1767.08 1121.95 1768.82 1109.26 1772.64C1097.39 1776.3 1084.34 1780.29 1074.25 1791.94C1071.71 1794.83 1059.54 1808.77 1063.56 1823.91C1064.7 1828.98 1067.58 1833.48 1071.71 1836.64C1076.69 1839.87 1082.54 1841.51 1088.48 1841.34C1091.66 1841.53 1094.84 1841.21 1097.93 1840.41C1106.72 1837.52 1111.8 1823.96 1110.8 1807.46L1164.3 1813.07C1163.7 1815.15 1163.06 1817.27 1162.38 1819.42C1161.83 1821.17 1161.27 1822.88 1160.7 1824.56Z" fill="black"/>
<path d="M1161.82 1812.81C1158.68 1829.71 1151.12 1845.48 1139.91 1858.5C1133.81 1865.54 1125.25 1875.48 1110.15 1880.31C1105.37 1881.84 1089.36 1887.09 1076.73 1880.31C1070.41 1876.92 1071.94 1874.35 1063.85 1869.6C1053.11 1863.31 1046.2 1865.39 1042.01 1859.49C1038.7 1854.84 1041.59 1851.56 1039.47 1846.37C1037.28 1841.23 1030.67 1835.5 1011.24 1832.65C1011.73 1829.49 1012.63 1826.41 1013.9 1823.47C1016.02 1818.66 1017.44 1818.28 1017.62 1815.44C1017.65 1814.96 1017.63 1814.49 1017.56 1814.02C1017.24 1812.32 1016.62 1810.68 1015.74 1809.19C1014.76 1807.65 1013.66 1804.18 1013.07 1795.92C1027.04 1794.1 1040.77 1790.71 1053.98 1785.82C1090.08 1772.4 1113.29 1750.53 1125.51 1739.18C1141.92 1723.95 1150.58 1711.03 1151.96 1711.92C1153.36 1712.83 1146.21 1726.97 1134.66 1739.87C1122.04 1753.95 1110.71 1759.26 1111.91 1761.61C1112.83 1763.4 1120.79 1763.01 1153.49 1752.42C1151.24 1757.24 1149.53 1762.3 1148.41 1767.5C1135.17 1767.08 1121.95 1768.82 1109.26 1772.64C1097.39 1776.3 1084.34 1780.29 1074.25 1791.94C1071.71 1794.83 1059.54 1808.77 1063.56 1823.91C1064.02 1825.74 1064.64 1827.53 1065.41 1829.25C1071.71 1843.46 1089.69 1857.5 1103.01 1853.66C1110.35 1851.54 1114.06 1844.26 1121.49 1829.71C1124.81 1823.22 1127.52 1816.42 1129.59 1809.43L1161.82 1812.81Z" fill="black"/>
<path d="M1127.69 1702.08C1115.94 1721.43 1094.26 1745.92 1073.36 1757.56C1074.07 1757.01 1074.78 1756.41 1075.49 1755.81C1076.9 1754.72 1078.26 1753.57 1079.68 1752.26C1083.6 1748.94 1087.3 1745.38 1090.78 1741.6C1092.2 1740.07 1093.61 1738.43 1095.03 1736.79C1095.92 1735.7 1096.86 1734.6 1097.69 1733.45C1099.03 1731.88 1100.29 1730.24 1101.47 1728.54C1102.88 1726.62 1104.3 1724.66 1105.6 1722.63C1105.9 1722.2 1106.19 1721.76 1106.43 1721.32C1107.67 1719.46 1108.85 1717.55 1109.97 1715.64C1110.07 1715.52 1110.15 1715.39 1110.21 1715.26C1113.5 1709.71 1116.44 1703.96 1119 1698.04C1119.54 1696.89 1120.01 1695.74 1120.42 1694.65C1122.89 1688.67 1124.82 1682.49 1126.21 1676.18C1126.44 1675.03 1126.62 1673.94 1126.8 1672.84C1126.92 1672.38 1126.98 1671.9 1126.98 1671.42C1127.21 1670.17 1127.33 1668.96 1127.45 1667.71C1127.57 1666.28 1127.63 1664.92 1127.63 1663.55C1127.63 1655.85 1125.68 1649.67 1121.37 1645.9C1116.76 1641.91 1107.43 1638.85 1100.29 1637.7C1097.34 1637.2 1094.35 1637.02 1091.37 1637.15C1085.82 1637.43 1082.39 1638.74 1076.49 1637.1C1075.2 1636.72 1073.94 1636.26 1072.71 1635.73C1063.14 1631.58 1055.11 1622.29 1054.7 1613.16C1054.23 1602.94 1063.62 1597.53 1070.35 1588.57C1071.32 1587.25 1072.23 1585.88 1073.06 1584.47C1073.69 1583.42 1074.26 1582.35 1074.78 1581.24C1075.22 1580.4 1075.6 1579.52 1075.9 1578.62H1075.96C1075.96 1578.56 1076.02 1578.46 1076.02 1578.4C1076.37 1577.58 1076.73 1576.65 1077.02 1575.72C1077.08 1575.5 1077.2 1575.23 1077.26 1574.96C1077.52 1574.23 1077.71 1573.48 1077.85 1572.72C1078.03 1572.26 1078.15 1571.78 1078.2 1571.3C1078.45 1570.59 1078.61 1569.85 1078.67 1569.11C1078.81 1568.61 1078.91 1568.1 1078.97 1567.58C1079.06 1567.26 1079.12 1566.93 1079.15 1566.6C1079.29 1565.89 1079.37 1565.18 1079.38 1564.46C1079.54 1563.58 1079.64 1562.68 1079.68 1561.79C1082.39 1561.21 1085.18 1561.05 1087.95 1561.29C1092.27 1561.81 1096.37 1563.53 1099.76 1566.27C1105.9 1570.59 1114.22 1578.78 1124.79 1594.41C1133 1606.49 1137.08 1612.5 1139.79 1619.83C1153.37 1656.56 1133.41 1692.63 1127.69 1702.08Z" fill="black"/>
<path d="M1117.41 1704.43C1115.29 1707.93 1112.87 1711.54 1110.21 1715.26C1113.5 1709.71 1116.44 1703.96 1119.01 1698.04C1119.48 1696.89 1120.01 1695.8 1120.42 1694.65C1122.89 1688.67 1124.83 1682.49 1126.21 1676.18C1126.45 1675.03 1126.62 1673.94 1126.8 1672.84C1126.92 1672.38 1126.98 1671.9 1126.98 1671.42C1127.21 1670.17 1127.33 1668.91 1127.45 1667.71C1127.57 1666.29 1127.63 1664.92 1127.63 1663.55C1127.63 1655.85 1125.68 1649.67 1121.37 1645.9C1116.76 1641.91 1107.43 1638.85 1100.29 1637.7C1097.34 1637.2 1094.35 1637.02 1091.37 1637.15C1085.82 1637.43 1082.4 1638.74 1076.49 1637.1C1075.21 1636.72 1073.94 1636.26 1072.71 1635.73C1063.15 1631.58 1055.12 1622.29 1054.7 1613.16C1054.23 1602.94 1063.62 1597.53 1070.35 1588.57C1071.33 1587.25 1072.23 1585.88 1073.07 1584.47C1073.69 1583.42 1074.27 1582.35 1074.78 1581.24C1075.22 1580.4 1075.6 1579.52 1075.9 1578.62H1075.96C1075.96 1578.56 1076.02 1578.46 1076.02 1578.4C1076.37 1577.53 1076.73 1576.65 1077.02 1575.72C1077.08 1575.5 1077.2 1575.23 1077.26 1574.96C1077.5 1574.25 1077.67 1573.48 1077.85 1572.72C1078.03 1572.26 1078.15 1571.78 1078.2 1571.3C1078.42 1570.58 1078.58 1569.85 1078.68 1569.11C1078.81 1568.61 1078.91 1568.1 1078.97 1567.58C1079.04 1567.26 1079.08 1566.93 1079.09 1566.6C1079.21 1565.89 1079.33 1565.17 1079.39 1564.46C1080.15 1564.85 1080.92 1565.23 1081.81 1565.67H1081.87C1086.29 1567.95 1090.56 1570.55 1094.62 1573.43C1096.27 1574.52 1097.93 1575.78 1099.64 1577.14V1577.2C1105.66 1582.03 1111.04 1587.62 1115.64 1593.81C1121.88 1602.39 1126.57 1611.99 1129.52 1622.18C1140.26 1658.8 1126.21 1690.01 1117.41 1704.43Z" fill="black"/>
<path d="M1275.45 1502.69C1275.04 1501.32 1264.53 1467.38 1232.29 1453.34C1224.67 1450.54 1216.86 1448.35 1208.9 1446.78C1194.45 1442.8 1179.63 1440.27 1164.67 1439.24C1159.95 1439.07 1108.4 1437.71 1090.51 1464.65C1085.55 1472.08 1088.44 1473.78 1079.82 1490.01C1075.33 1498.54 1070.61 1505.53 1071.73 1514.93C1071.96 1516.95 1072.44 1518.93 1073.15 1520.84C1073.15 1520.84 1073.15 1520.85 1073.15 1520.86C1073.15 1520.86 1073.16 1520.87 1073.16 1520.88C1073.17 1520.88 1073.18 1520.88 1073.18 1520.89C1073.19 1520.89 1073.2 1520.89 1073.21 1520.89C1073.49 1521.75 1073.85 1522.59 1074.27 1523.4C1078.37 1535.76 1080.21 1548.76 1079.7 1561.77C1079.66 1562.67 1079.56 1563.56 1079.41 1564.45C1079.35 1565.16 1079.23 1565.87 1079.11 1566.58C1079.1 1566.91 1079.06 1567.24 1078.99 1567.57C1078.93 1568.08 1078.83 1568.59 1078.7 1569.1C1078.6 1569.84 1078.44 1570.57 1078.22 1571.28C1078.17 1571.77 1078.05 1572.25 1077.87 1572.7C1077.69 1573.47 1077.52 1574.23 1077.28 1574.94C1077.22 1575.22 1077.1 1575.49 1077.04 1575.71C1076.75 1576.64 1076.4 1577.51 1076.04 1578.39C1076.04 1578.44 1075.98 1578.55 1075.98 1578.61H1075.92C1075.62 1579.51 1075.24 1580.39 1074.8 1581.23C1074.29 1582.33 1073.71 1583.41 1073.09 1584.45C1072.25 1585.87 1071.35 1587.23 1070.37 1588.55C1063.64 1597.52 1054.25 1602.93 1054.72 1613.15C1055.14 1622.27 1063.17 1631.57 1072.73 1635.72C1073.96 1636.25 1075.23 1636.7 1076.51 1637.09C1082.42 1638.73 1085.84 1637.41 1091.39 1637.14C1094.37 1637 1097.36 1637.19 1100.31 1637.69C1107.45 1638.83 1116.78 1641.9 1121.39 1645.89C1125.7 1649.66 1127.65 1655.83 1127.65 1663.54C1127.65 1664.9 1127.59 1666.27 1127.47 1667.69C1127.35 1668.89 1127.23 1670.15 1127 1671.41C1127 1671.89 1126.94 1672.36 1126.82 1672.83C1126.64 1673.92 1126.47 1675.01 1126.23 1676.16C1124.85 1682.48 1122.91 1688.66 1120.44 1694.64C1120.03 1695.78 1119.5 1696.88 1119.03 1698.02C1116.46 1703.94 1113.52 1709.69 1110.23 1715.24C1110.17 1715.38 1110.09 1715.51 1109.99 1715.62C1108.87 1717.54 1107.69 1719.45 1106.45 1721.31C1106.21 1721.74 1105.92 1722.18 1105.62 1722.62C1104.32 1724.64 1102.91 1726.61 1101.49 1728.52C1100.31 1730.22 1099.05 1731.86 1097.71 1733.44C1096.88 1734.59 1095.94 1735.68 1095.05 1736.77C1093.64 1738.41 1092.22 1740.05 1090.8 1741.58C1087.33 1745.36 1083.62 1748.92 1079.7 1752.24C1078.28 1753.55 1076.93 1754.7 1075.51 1755.79C1074.8 1756.39 1074.09 1756.99 1073.38 1757.54C1061.48 1767.79 1048.16 1776.26 1033.82 1782.68C1029.33 1784.54 1024.78 1785.96 1024.78 1785.96C1020.42 1787.33 1016.52 1788.37 1013.39 1789.02C1020.99 1787.83 1028.49 1786.06 1035.83 1783.72C1061.57 1775.52 1076.39 1763.17 1077.1 1763.99C1077.75 1764.81 1064.7 1777.54 1044.51 1786.23C1034.45 1790.52 1023.83 1793.35 1012.97 1794.65V1794.76C1013.21 1797.66 1013.45 1800.01 1013.74 1801.87C1013.76 1801.96 1013.78 1802.05 1013.8 1802.14C1013.99 1804.59 1014.65 1806.99 1015.75 1809.19C1015.8 1809.24 1015.84 1809.29 1015.87 1809.35C1016.7 1810.79 1017.28 1812.36 1017.58 1814C1017.66 1814.47 1017.68 1814.95 1017.64 1815.42C1017.46 1818.26 1016.05 1818.64 1013.92 1823.45C1012.65 1826.39 1011.76 1829.48 1011.26 1832.64C1015.72 1835.55 1019.72 1839.1 1023.13 1843.18C1031.46 1853.24 1028.57 1857.61 1034.94 1864.28C1043.62 1873.35 1051.12 1867.67 1065 1878.38C1072.14 1883.96 1073.15 1887.84 1079.76 1889.37C1084.54 1890.46 1085.55 1888.77 1097.12 1888.55C1106.57 1888.38 1108.05 1889.48 1112.36 1888.16C1116.43 1886.91 1118.03 1885 1124.17 1879.58C1137.45 1867.83 1139.16 1868.76 1144.01 1862.75C1146.49 1859.74 1148.38 1856.57 1152.51 1846.68C1154.93 1840.89 1157.77 1833.46 1160.72 1824.55C1161.19 1823.24 1161.55 1821.98 1161.96 1820.78C1162.61 1818.75 1163.14 1816.95 1163.61 1815.37C1163.89 1814.61 1164.12 1813.85 1164.32 1813.07C1146.49 1811.21 1128.65 1809.3 1110.82 1807.44C1111.82 1823.95 1106.75 1837.5 1097.95 1840.4C1094.87 1841.2 1091.68 1841.51 1088.5 1841.33C1082.56 1841.49 1076.72 1839.85 1071.73 1836.63C1067.61 1833.47 1064.72 1828.96 1063.58 1823.89C1059.56 1808.75 1071.73 1794.82 1074.27 1791.92C1084.37 1780.28 1097.42 1776.29 1109.28 1772.63C1121.97 1768.8 1135.19 1767.06 1148.43 1767.49C1149.56 1762.29 1151.26 1757.23 1153.51 1752.4C1158.95 1740.93 1163.31 1739.83 1166.21 1730.32C1168.87 1721.63 1166.45 1718.46 1170.28 1715.29C1174.48 1711.8 1179.08 1714.09 1185.52 1709.61C1189 1707.21 1189.18 1705.51 1192.13 1702.56C1197.48 1697.72 1204.26 1694.74 1211.44 1694.09C1209.76 1690.68 1208.57 1687.06 1207.9 1683.32C1207.37 1680.37 1206.3 1672.72 1211.92 1655.07C1215.81 1643.04 1218.12 1635.83 1224.14 1627.36C1231.76 1616.64 1235 1618.34 1242.92 1607.57C1249.88 1598.12 1249.23 1594.29 1257.15 1578.44C1265.36 1561.99 1268.13 1561.93 1272.38 1552.59C1279.02 1536.78 1280.1 1519.19 1275.45 1502.69Z" fill="black"/>
<path d="M1106.61 1609.17C1105.01 1616.99 1101.47 1619.01 1095.62 1629.17C1093.68 1632.56 1092.38 1635.08 1091.37 1637.15C1085.82 1637.43 1082.4 1638.74 1076.49 1637.1C1075.21 1636.72 1073.95 1636.26 1072.71 1635.73C1073.89 1631.85 1073.78 1627.59 1075.37 1622.73C1075.55 1622.23 1075.66 1621.91 1075.84 1621.47C1075.91 1621.4 1075.96 1621.3 1075.96 1621.2C1076.4 1619.94 1077 1618.75 1077.73 1617.64C1077.79 1617.53 1077.79 1617.48 1077.85 1617.37C1080.98 1612.78 1085.29 1610.92 1090.43 1603.76C1094.44 1598.02 1097.19 1591.5 1098.52 1584.63C1101.25 1586.29 1103.52 1588.6 1105.13 1591.35C1107.78 1596.91 1108.31 1603.25 1106.61 1609.17Z" fill="black"/>
<path d="M910.444 1645.84C909.171 1648.58 907.367 1651.04 905.137 1653.08C902.907 1655.11 900.295 1656.68 897.453 1657.7C896.609 1657.97 895.737 1658.13 894.855 1658.2C887.202 1655.29 880.379 1650.55 874.984 1644.4C869.589 1638.24 865.788 1630.86 863.913 1622.89C860.961 1613.71 858.245 1605.29 861.551 1597.09C861.805 1598.64 862.16 1600.18 862.614 1601.68C864.09 1606.77 867.988 1612.07 875.723 1622.72C883.045 1632.78 886.706 1637.75 889.836 1639.61C897.63 1644.26 905.484 1643.82 910.444 1645.84Z" fill="black"/>
</svg>
