<svg width="1545" height="3929" viewBox="0 0 1545 3929" fill="none" xmlns="http://www.w3.org/2000/svg">
<path d="M1401.07 1917.93C1397.38 1914.25 1386.9 1918.4 1386.47 1922.63C1386.08 1926.53 1393.97 1932.76 1398.94 1930.05C1400.82 1928.72 1402.09 1926.69 1402.49 1924.43C1402.89 1922.16 1402.38 1919.82 1401.07 1917.93Z" fill="black"/>
<path d="M1401.07 1917.96C1397.4 1914.24 1386.91 1918.39 1386.47 1922.66C1386.14 1926.1 1392.32 1931.4 1397.18 1930.58C1397.8 1930.53 1398.4 1930.35 1398.93 1930.04C1400.81 1928.71 1402.09 1926.7 1402.49 1924.43C1402.88 1922.17 1402.37 1919.84 1401.07 1917.96ZM1395.11 1924.13C1394.56 1924.13 1394.51 1922.55 1392.98 1921.78C1391.55 1921.02 1390.08 1921.67 1389.86 1921.13C1389.64 1920.64 1390.68 1919.87 1390.79 1919.82C1391.88 1918.94 1394.23 1918.23 1395.49 1919.54C1396.01 1920.22 1396.25 1921.06 1396.18 1921.91C1396.11 1922.76 1395.73 1923.55 1395.11 1924.13V1924.13Z" fill="black"/>
<path d="M1421.72 1921.27C1421.84 1919.29 1421.43 1917.32 1420.54 1915.55C1419.65 1913.78 1418.3 1912.28 1416.65 1911.2C1411.89 1908.59 1405.54 1911.31 1402.5 1914.83C1400.69 1916.94 1401.71 1917.4 1398.53 1926.78C1396.82 1931.82 1395.87 1933.61 1396.85 1935.06C1398.39 1937.34 1403.15 1936.59 1404.58 1936.37C1411.46 1935.28 1421.48 1929.82 1421.72 1921.27Z" fill="black"/>
<path d="M1421.67 1919.59C1421.62 1919.27 1421.56 1918.88 1421.51 1918.5C1421.51 1918.39 1421.45 1918.34 1421.45 1918.23C1421.2 1916.78 1420.63 1915.4 1419.81 1914.19C1418.98 1912.97 1417.9 1911.95 1416.64 1911.18C1411.89 1908.61 1405.55 1911.29 1402.49 1914.84C1401.69 1915.69 1401.19 1916.79 1401.07 1917.96C1400.39 1920.93 1399.55 1923.87 1398.55 1926.75C1398.01 1928.34 1397.57 1929.6 1397.19 1930.58C1396.42 1932.88 1396.2 1934.02 1396.86 1935.06C1398.39 1937.36 1403.15 1936.59 1404.57 1936.37C1407.64 1935.83 1410.58 1934.74 1413.26 1933.15H1413.31C1414.02 1932.71 1414.68 1932.27 1415.33 1931.78C1415.36 1931.73 1415.4 1931.69 1415.45 1931.66C1415.5 1931.63 1415.55 1931.62 1415.61 1931.62C1417.34 1930.47 1418.8 1928.95 1419.86 1927.16C1420.92 1925.37 1421.56 1923.36 1421.73 1921.29C1421.73 1920.74 1421.73 1920.2 1421.67 1919.59ZM1419.27 1922.93C1418.45 1926.32 1415.11 1928.56 1414.4 1928.07C1413.75 1927.57 1416.7 1924.46 1415.77 1921.23C1414.46 1916.81 1406.97 1916.32 1407.19 1914.79C1407.35 1913.64 1411.89 1912.38 1415.33 1914.29C1416.83 1915.11 1418.03 1916.4 1418.74 1917.96C1419.45 1919.51 1419.63 1921.26 1419.27 1922.93Z" fill="black"/>
<path d="M1423.89 1926.31C1425.75 1927.62 1427.39 1925.86 1437.59 1923.23C1439.95 1922.62 1440.7 1922.5 1441.39 1921.69C1443.96 1918.66 1441.88 1910.58 1436.86 1908.27C1434.12 1907.37 1431.14 1907.5 1428.5 1908.65C1425.86 1909.38 1422.44 1910.33 1421.28 1913.1C1420.86 1914.88 1420.93 1916.73 1421.48 1918.48C1422.28 1923.13 1422.68 1925.46 1423.89 1926.31Z" fill="black"/>
<path d="M1439.71 1910.52C1438.94 1909.57 1437.97 1908.8 1436.87 1908.28C1434.13 1907.38 1431.15 1907.51 1428.5 1908.66C1425.88 1909.37 1422.44 1910.3 1421.29 1913.09C1420.88 1914.79 1420.94 1916.56 1421.45 1918.23C1421.45 1918.34 1421.51 1918.39 1421.51 1918.5C1421.56 1918.88 1421.62 1919.27 1421.67 1919.59C1421.82 1921.84 1422.45 1924.02 1423.53 1925.99C1423.64 1926.1 1423.8 1926.21 1423.91 1926.32C1425.5 1927.41 1426.86 1926.37 1433.37 1924.4C1433.42 1924.4 1433.53 1924.35 1433.59 1924.35C1433.64 1924.35 1433.64 1924.35 1433.69 1924.3C1434.46 1924.08 1435.28 1923.86 1436.15 1923.58C1436.26 1923.58 1436.32 1923.53 1436.37 1923.53C1436.76 1923.42 1437.14 1923.31 1437.58 1923.2C1439.93 1922.6 1440.69 1922.49 1441.4 1921.67C1443.43 1919.32 1442.61 1913.86 1439.71 1910.52ZM1431.84 1916.43C1428.67 1915.88 1426.81 1918.06 1425.66 1917.08C1424.51 1916.1 1425.17 1912.82 1426.97 1910.9C1427.95 1909.91 1429.21 1909.25 1430.58 1908.99C1431.94 1908.74 1433.36 1908.91 1434.62 1909.48C1439.11 1911.62 1438.89 1919.05 1437.52 1919.7C1436.48 1920.2 1435.34 1917.03 1431.84 1916.43Z" fill="black"/>
<path d="M1452.16 1935.71C1454.78 1936 1455.3 1927.06 1461.4 1924.43C1466.34 1922.29 1470.61 1926.18 1472.27 1924.2C1474.26 1921.83 1470.62 1913.29 1464.1 1909.78C1461.58 1908.43 1457.53 1908.34 1449.42 1908.16C1442.47 1908 1441.23 1908.55 1440.4 1909.44C1437.82 1912.16 1438.95 1918.06 1441.39 1921.69C1443.22 1924.41 1444.48 1923.91 1447.09 1927.09C1450.88 1931.72 1450.45 1935.53 1452.16 1935.71Z" fill="black"/>
<path d="M1464.09 1909.76C1461.57 1908.45 1457.53 1908.34 1449.44 1908.17C1442.44 1908.01 1441.24 1908.55 1440.42 1909.43C1440.11 1909.74 1439.87 1910.12 1439.71 1910.52C1439.05 1912.38 1438.86 1914.36 1439.16 1916.31C1439.45 1918.25 1440.23 1920.1 1441.4 1921.67C1443.04 1924.13 1444.24 1923.97 1446.38 1926.32C1446.42 1926.32 1446.46 1926.34 1446.49 1926.37C1449.74 1927.68 1452.56 1929.88 1454.63 1932.71C1454.46 1933.09 1454.31 1933.47 1454.19 1933.86C1454.36 1933.53 1454.52 1933.2 1454.68 1932.82C1454.79 1932.55 1454.96 1932.27 1455.07 1931.95C1455.12 1931.89 1455.16 1931.81 1455.18 1931.73C1455.27 1931.63 1455.34 1931.52 1455.4 1931.4C1456.47 1928.41 1458.61 1925.91 1461.41 1924.4C1466.33 1922.27 1470.59 1926.15 1472.28 1924.19C1474.25 1921.84 1470.64 1913.31 1464.09 1909.76ZM1468.73 1918.34C1468.35 1919.38 1466.49 1918.88 1459.28 1919.92C1455.78 1920.41 1455.23 1920.63 1454.03 1920.31C1450.59 1919.32 1447.58 1915.17 1448.51 1912.82C1449.66 1909.87 1457.03 1909.43 1462.28 1911.78C1465.94 1913.42 1469.39 1916.75 1468.73 1918.34Z" fill="black"/>
<path d="M1479.72 1937.02C1481.04 1933.48 1476.01 1926.69 1469.69 1925.35C1462.04 1923.73 1453.56 1930.2 1453.64 1936.79C1453.65 1938.68 1454.22 1940.51 1455.29 1942.07C1456.36 1943.62 1457.87 1944.81 1459.63 1945.49C1461.99 1946.1 1463.06 1944.67 1469.91 1941.69C1477.2 1938.52 1479.05 1938.82 1479.72 1937.02Z" fill="black"/>
<path d="M1469.72 1925.33C1467 1924.9 1464.22 1925.24 1461.68 1926.31C1459.15 1927.38 1456.97 1929.15 1455.4 1931.4C1455.34 1931.52 1455.27 1931.63 1455.18 1931.73C1455.16 1931.81 1455.12 1931.89 1455.07 1931.95C1454.91 1932.22 1454.79 1932.44 1454.63 1932.71C1454.46 1933.09 1454.31 1933.47 1454.19 1933.86C1454.36 1933.53 1454.52 1933.2 1454.68 1932.82C1456.06 1934.6 1456.78 1936.8 1456.71 1939.05C1456.65 1940.23 1456.18 1941.35 1455.4 1942.22C1456.32 1943.74 1457.75 1944.88 1459.44 1945.45C1459.5 1945.45 1459.55 1945.5 1459.6 1945.5C1459.9 1945.5 1460.2 1945.55 1460.48 1945.67C1461.78 1945.55 1463.04 1945.12 1464.14 1944.41H1464.19C1465.5 1943.75 1467.31 1942.88 1469.93 1941.68C1471.9 1940.8 1473.48 1940.2 1474.74 1939.76C1478.13 1938.51 1479.22 1938.34 1479.71 1937.03C1481.03 1933.48 1476 1926.7 1469.72 1925.33ZM1477.48 1934.02C1476.93 1935.39 1474.2 1935.72 1472.5 1935.61C1469.44 1935.34 1469.11 1933.59 1465.67 1932.82C1462.56 1932.17 1460.64 1933.15 1460.15 1932.17C1459.66 1931.24 1460.92 1929.43 1462.23 1928.39C1463.83 1927.35 1465.7 1926.78 1467.62 1926.75C1469.53 1926.72 1471.41 1927.24 1473.05 1928.23C1475.4 1929.6 1478.19 1932.33 1477.48 1934.02Z" fill="black"/>
<path d="M1421.6 1927.28C1420.41 1929.07 1421.3 1931.59 1422.08 1933.68C1425.67 1943.42 1433.93 1944.45 1434.39 1950.21C1434.78 1955.11 1428.91 1956.13 1428.53 1961.62C1427.95 1969.86 1440.23 1980.36 1447.05 1977.82C1452.62 1975.74 1456.51 1964.23 1454.33 1956.68C1453.82 1955.62 1453.54 1954.46 1453.5 1953.28C1453.46 1952.1 1453.65 1950.93 1454.08 1949.83C1455.37 1947.66 1457.63 1948.09 1458.83 1946.63C1462.79 1941.85 1451.71 1921.28 1441.39 1921.69C1438.91 1921.78 1439.03 1922.99 1433.59 1924.34C1426.72 1926.04 1423.14 1924.97 1421.6 1927.28Z" fill="black"/>
<path d="M1455.18 1931.73C1451.62 1926.26 1446.43 1921.51 1441.4 1921.67C1439.43 1921.78 1439.11 1922.55 1436.37 1923.53C1436.32 1923.53 1436.27 1923.58 1436.16 1923.58C1435.36 1923.89 1434.53 1924.13 1433.7 1924.3C1433.64 1924.35 1433.64 1924.35 1433.59 1924.35C1433.53 1924.35 1433.42 1924.4 1433.37 1924.4C1428.61 1925.55 1425.5 1925.39 1423.53 1925.99C1423.14 1926.07 1422.77 1926.23 1422.44 1926.45C1422.11 1926.68 1421.83 1926.97 1421.62 1927.3C1421.25 1927.99 1421.05 1928.74 1421.01 1929.52C1420.97 1930.29 1421.1 1931.07 1421.4 1931.78C1421.62 1932.44 1421.84 1933.09 1422.05 1933.7C1423.07 1936.48 1424.69 1939 1426.81 1941.07L1426.86 1941.13C1430.36 1944.68 1434.08 1946.43 1434.41 1950.2C1434.79 1955.12 1428.89 1956.1 1428.5 1961.62C1427.96 1969.88 1440.26 1980.37 1447.03 1977.8C1451.24 1976.22 1454.46 1969.39 1454.9 1962.83V1962.77C1455.09 1960.73 1454.9 1958.68 1454.36 1956.71C1453.84 1955.64 1453.56 1954.47 1453.51 1953.29C1453.46 1952.11 1453.66 1950.93 1454.08 1949.82C1455.39 1947.69 1457.64 1948.07 1458.84 1946.65C1459.11 1946.31 1459.29 1945.92 1459.38 1945.5C1459.39 1945.5 1459.4 1945.5 1459.41 1945.5C1459.41 1945.49 1459.42 1945.49 1459.42 1945.49C1459.43 1945.48 1459.43 1945.47 1459.44 1945.47C1459.44 1945.46 1459.44 1945.45 1459.44 1945.45C1460.31 1942.44 1458.46 1936.81 1455.18 1931.73ZM1455.4 1942.22C1453.49 1944 1452.05 1946.21 1451.19 1948.67C1449.06 1955.45 1452.39 1960.53 1449.33 1962.83C1448.82 1963.27 1448.19 1963.56 1447.52 1963.66C1446.85 1963.76 1446.17 1963.66 1445.56 1963.37C1442.77 1961.4 1449.49 1953.42 1446.6 1946.81C1443.92 1940.69 1435.72 1942.11 1432.66 1934.62C1432.14 1933.6 1431.85 1932.49 1431.81 1931.35C1431.76 1930.21 1431.96 1929.07 1432.38 1928.01C1434.46 1924.46 1441.13 1924.68 1445.28 1925.93C1445.66 1926.04 1446.02 1926.16 1446.38 1926.32C1446.42 1926.32 1446.46 1926.34 1446.49 1926.37C1449.74 1927.68 1452.56 1929.88 1454.63 1932.71C1454.61 1932.75 1454.6 1932.79 1454.59 1932.83L1454.64 1932.92L1454.69 1932.82C1456.06 1934.6 1456.78 1936.8 1456.71 1939.05C1456.65 1940.23 1456.18 1941.35 1455.4 1942.22Z" fill="black"/>
<path d="M1410.82 1936.6C1409.99 1939.34 1411.83 1941.2 1410.49 1942.89C1409.19 1944.54 1406.17 1944.4 1403.66 1944.28C1400.04 1944.11 1399.24 1943.13 1398.05 1943.72C1395.46 1944.98 1394.41 1951.9 1397.19 1956.59C1398.72 1959.18 1400.52 1959.58 1420.27 1963.96C1421.89 1964.45 1423.64 1964.33 1425.18 1963.62C1426.52 1962.9 1426.9 1961.89 1428.6 1958.55C1431.7 1952.48 1432.56 1951.68 1432.33 1949.78C1432.01 1948.12 1431.18 1946.59 1429.97 1945.41C1422.62 1936.31 1423.56 1931.64 1419.67 1930.93C1417.78 1930.8 1415.9 1931.29 1414.31 1932.31C1412.72 1933.33 1411.49 1934.83 1410.82 1936.6Z" fill="black"/>
<path d="M1432.33 1949.76C1432.01 1948.1 1431.19 1946.58 1429.98 1945.39C1428.85 1944.04 1427.81 1942.61 1426.86 1941.13L1426.81 1941.07C1423.69 1936.21 1423.04 1933.15 1421.4 1931.78C1420.93 1931.3 1420.32 1930.99 1419.65 1930.91C1418.26 1930.71 1416.85 1930.96 1415.61 1931.62C1415.55 1931.62 1415.5 1931.63 1415.45 1931.66C1415.4 1931.69 1415.36 1931.73 1415.33 1931.78C1414.68 1932.27 1414.02 1932.71 1413.31 1933.15H1413.26C1412.13 1934.05 1411.28 1935.24 1410.8 1936.59C1409.98 1939.33 1411.84 1941.18 1410.47 1942.88C1409.21 1944.52 1406.15 1944.41 1403.64 1944.3C1400.03 1944.13 1399.26 1943.15 1398.06 1943.7C1395.44 1944.95 1394.4 1951.9 1397.19 1956.6C1398.72 1959.16 1400.52 1959.6 1420.25 1963.97C1421.88 1964.45 1423.62 1964.33 1425.17 1963.65C1426.54 1962.88 1426.92 1961.9 1428.62 1958.56C1431.67 1952.5 1432.55 1951.68 1432.33 1949.76ZM1425.39 1957.58C1420.42 1961.3 1412.27 1957.58 1412.22 1955.61C1412.22 1954.3 1415.77 1954.68 1417.46 1951.84C1420.25 1947.25 1414.4 1940.42 1416.97 1938.01C1417.42 1937.7 1417.93 1937.5 1418.47 1937.41C1419.01 1937.33 1419.56 1937.36 1420.09 1937.52C1422.93 1937.9 1424.57 1940.58 1426.21 1943.21C1427.41 1944.74 1428.23 1946.54 1428.61 1948.45C1428.91 1950.12 1428.77 1951.84 1428.2 1953.44C1427.64 1955.04 1426.67 1956.47 1425.39 1957.58Z" fill="black"/>
<path d="M1459.63 1945.49C1464.38 1945.75 1466.59 1953.16 1469.11 1961.68C1469.4 1962.46 1469.41 1963.32 1469.12 1964.11C1467.97 1966.72 1462.68 1966.58 1461.66 1966.56C1459.72 1966.78 1457.77 1966.29 1456.15 1965.2C1455.12 1964.3 1454.95 1963.4 1453.8 1957.68C1452.63 1951.9 1452.52 1951.37 1452.86 1950.39C1453.38 1949 1454.3 1947.79 1455.5 1946.91C1456.71 1946.04 1458.14 1945.55 1459.63 1945.49Z" fill="black"/>
<path d="M1469.11 1961.68C1467.31 1955.56 1465.67 1950.04 1463.1 1947.3V1947.25C1462.4 1946.48 1461.49 1945.93 1460.48 1945.67C1460.2 1945.55 1459.9 1945.5 1459.6 1945.5H1459.39C1457.95 1945.6 1456.57 1946.1 1455.41 1946.97C1454.26 1947.83 1453.38 1949.01 1452.88 1950.37C1452.5 1951.35 1452.61 1951.9 1453.81 1957.69C1454.3 1960.15 1454.58 1961.68 1454.9 1962.77V1962.83C1455.03 1963.73 1455.48 1964.57 1456.16 1965.18C1457.78 1966.28 1459.74 1966.77 1461.68 1966.54C1462.66 1966.6 1467.97 1966.71 1469.11 1964.14C1469.26 1963.81 1469.34 1963.46 1469.33 1963.1C1469.36 1962.62 1469.28 1962.13 1469.11 1961.68ZM1464.47 1959.22C1464.03 1959.38 1463.65 1956.92 1460.92 1954.36C1457.96 1951.62 1455.29 1951.57 1455.29 1950.31C1455.23 1948.94 1458.18 1947.09 1460.42 1947.69C1464.69 1948.84 1465.34 1958.95 1464.47 1959.22Z" fill="black"/>
<path d="M1471.15 1964.7C1475.13 1965.59 1477.03 1956.9 1485.76 1954.74C1490.06 1953.67 1492.69 1955 1493.73 1953.33C1495.2 1950.96 1491.8 1945.15 1487.21 1942.26C1478.63 1936.87 1464.7 1940.65 1463.14 1946.29C1463.02 1946.76 1462.88 1947.54 1464.82 1952.63C1467.77 1960.39 1469.25 1964.27 1471.15 1964.7Z" fill="black"/>
<path d="M1487.21 1942.28C1483.44 1940.09 1479.06 1939.21 1474.74 1939.76C1470.78 1939.96 1467.02 1941.61 1464.2 1944.41H1464.14C1463.68 1944.95 1463.34 1945.58 1463.16 1946.27C1463.07 1946.59 1463.05 1946.92 1463.1 1947.25V1947.3C1463.49 1949.12 1464.06 1950.9 1464.8 1952.61C1465.98 1956.24 1467.5 1959.75 1469.33 1963.1C1469.71 1963.84 1470.35 1964.41 1471.14 1964.69C1475.13 1965.61 1477.04 1956.92 1485.73 1954.74C1490.05 1953.65 1492.67 1955.01 1493.71 1953.32C1495.19 1950.97 1491.8 1945.17 1487.21 1942.28ZM1491.91 1950.15C1491.52 1951.08 1490.27 1950.86 1485.73 1951.84C1480.16 1953.04 1477.75 1954.36 1477.04 1953.43C1476.38 1952.55 1478.35 1951.13 1477.97 1949.22C1477.26 1945.72 1469.93 1945.45 1469.93 1943.97C1469.99 1942.5 1477.53 1939.82 1484.25 1942.5C1488.68 1944.3 1492.62 1948.29 1491.91 1950.15Z" fill="black"/>
</svg>
