<svg width="1545" height="3929" viewBox="0 0 1545 3929" fill="none" xmlns="http://www.w3.org/2000/svg">
<path d="M366.911 1891.16C363.774 1887.04 352.891 1889.72 351.901 1893.84C350.99 1897.62 357.927 1904.82 363.189 1902.82C365.217 1901.76 366.743 1899.94 367.44 1897.75C368.136 1895.57 367.946 1893.2 366.911 1891.16Z" fill="black"/>
<path d="M366.938 1891.14C363.768 1887.04 352.891 1889.72 351.907 1893.82C350.978 1897.64 357.919 1904.8 363.167 1902.83C365.197 1901.76 366.727 1899.94 367.432 1897.75C368.136 1895.57 367.959 1893.19 366.938 1891.14ZM363.332 1899.77C362.841 1899.77 362.841 1897.75 360.927 1895.56C358.85 1893.1 356.609 1892.89 356.718 1892.07C356.883 1891.03 360.654 1889.77 362.895 1891.36C366.009 1893.49 364.207 1899.66 363.332 1899.77Z" fill="black"/>
<path d="M392.046 1894.09C392.3 1892.14 392.034 1890.15 391.275 1888.34C390.515 1886.52 389.29 1884.94 387.721 1883.74C383.184 1880.82 376.702 1883.07 373.44 1886.36C371.496 1888.31 372.474 1888.84 368.655 1897.92C366.6 1902.8 365.535 1904.51 366.405 1906.02C367.767 1908.39 372.547 1907.98 373.979 1907.86C380.883 1907.27 391.199 1902.56 392.046 1894.09Z" fill="black"/>
<path d="M390.769 1887.2C390.072 1885.8 389.015 1884.62 387.708 1883.76C383.171 1880.81 376.722 1883.05 373.442 1886.38C371.475 1888.3 372.458 1888.84 368.633 1897.91C366.61 1902.78 365.517 1904.53 366.391 1906C367.758 1908.41 372.568 1907.97 373.989 1907.86C374.907 1907.76 375.819 1907.62 376.722 1907.42C379.13 1906.91 381.451 1906.04 383.609 1904.86C385.378 1903.99 386.986 1902.82 388.364 1901.41C389.105 1900.72 389.748 1899.93 390.277 1899.06C390.694 1898.42 391.06 1897.74 391.37 1897.04V1896.99C391.709 1896.05 391.93 1895.08 392.026 1894.09C392.272 1891.72 391.836 1889.33 390.769 1887.2ZM384.92 1899.34C383.937 1899.12 385.412 1895.29 383.117 1892.07C380.493 1888.4 375.574 1889.12 375.41 1887.42C375.247 1885.73 379.564 1882.83 383.39 1883.92C384.672 1884.45 385.8 1885.29 386.67 1886.37C387.539 1887.45 388.122 1888.73 388.364 1890.1C389.348 1894.85 386.014 1899.55 384.92 1899.34Z" fill="black"/>
<path d="M392.577 1900.03C395.413 1902.75 401.364 1900.71 405.227 1899.38C407.927 1898.46 409.277 1897.99 410.259 1896.68C411.495 1894.38 411.817 1891.7 411.16 1889.17C410.504 1886.64 408.917 1884.46 406.718 1883.05C404.061 1881.97 401.098 1881.89 398.39 1882.84C395.73 1883.38 392.271 1884.07 390.922 1886.74C390.383 1888.48 390.321 1890.33 390.743 1892.09C391.196 1896.64 391.415 1898.91 392.577 1900.03Z" fill="black"/>
<path d="M409.899 1886.22C409.133 1884.91 408.041 1883.81 406.729 1883.05C404.056 1881.98 401.091 1881.91 398.367 1882.83C395.743 1883.38 392.245 1884.09 390.933 1886.77C390.869 1886.91 390.814 1887.05 390.769 1887.2C390.426 1888.81 390.426 1890.46 390.769 1892.07C390.988 1894.14 391.097 1895.73 391.37 1896.99V1897.04C391.464 1897.63 391.61 1898.22 391.807 1898.79C391.971 1899.26 392.232 1899.69 392.573 1900.05C395.415 1902.72 401.372 1900.7 405.253 1899.39C406.43 1899.01 407.58 1898.56 408.697 1898.02H408.751C409.149 1897.78 409.516 1897.48 409.845 1897.15C410.007 1896.99 410.118 1896.82 410.282 1896.66C411.198 1895.06 411.648 1893.23 411.581 1891.38C411.513 1889.54 410.931 1887.75 409.899 1886.22ZM399.951 1884.69C402.63 1884.47 405.035 1884.25 406.456 1885.78C408.915 1888.35 406.674 1894.42 405.253 1894.47C404.106 1894.47 404.269 1890.65 401.045 1888.3C398.093 1886.22 394.595 1887.04 394.54 1886.38C394.54 1885.73 397.328 1884.91 399.951 1884.69Z" fill="black"/>
<path d="M420.15 1906.37C423.232 1907.56 425.609 1903.28 430.913 1901.77C437.26 1899.97 440.909 1904.07 442.922 1902.06C445.507 1899.49 442.487 1889.53 435.767 1885.31C433.04 1883.6 429.135 1883.29 421.325 1882.67C414.306 1882.11 413.001 1882.8 412.285 1883.3C410.292 1885.2 409.03 1887.74 408.721 1890.48C408.412 1893.22 409.075 1895.98 410.594 1898.27C412.071 1900.19 413.916 1900.04 417.351 1903.56C419.241 1905.5 419.168 1906 420.15 1906.37Z" fill="black"/>
<path d="M435.752 1885.29C433.019 1883.6 429.138 1883.27 421.323 1882.67C414.326 1882.12 413.015 1882.78 412.304 1883.32C411.265 1884.06 410.437 1885.06 409.899 1886.22C409.081 1887.92 408.652 1889.79 408.642 1891.68C408.633 1893.57 409.043 1895.44 409.845 1897.15C410.063 1897.53 410.336 1897.91 410.61 1898.3C412.085 1900.21 413.889 1900.05 417.333 1903.54C419.191 1905.46 419.191 1906 420.12 1906.39H420.175C420.592 1906.54 421.034 1906.6 421.476 1906.57C421.918 1906.54 422.349 1906.42 422.743 1906.22H422.798C425.31 1904.43 428.026 1902.95 430.888 1901.8C434.099 1901.09 437.449 1901.35 440.508 1902.56C440.917 1902.69 441.354 1902.72 441.776 1902.63C442.198 1902.55 442.59 1902.35 442.913 1902.07C445.482 1899.5 442.475 1889.55 435.752 1885.29ZM421.213 1886.98C421.323 1885.78 427.335 1884.14 432.363 1886.66C437.064 1889.01 440.289 1894.69 438.868 1897.04C438.103 1897.9 437.042 1898.44 435.897 1898.55C434.752 1898.66 433.607 1898.34 432.691 1897.64C431.871 1896.82 432.309 1895.78 432.09 1894.47C431.107 1889.5 421.049 1888.51 421.215 1886.98H421.213Z" fill="black"/>
<path d="M446.235 1915.85C448.43 1912.79 445.411 1904.88 439.655 1902.04C432.404 1898.46 422.592 1903.82 422.273 1907.63C422.152 1909.08 423.47 1909.56 424.177 1912.76C424.96 1916.29 423.761 1917.59 424.746 1918.74C426.066 1920.28 428.989 1918.74 435.602 1917.78C443.428 1916.64 445.124 1917.4 446.235 1915.85Z" fill="black"/>
<path d="M440.508 1902.56C440.229 1902.36 439.936 1902.18 439.633 1902.01C436.744 1900.84 433.554 1900.61 430.527 1901.36C427.5 1902.12 424.793 1903.82 422.798 1906.22H422.743C422.492 1906.66 422.325 1907.14 422.252 1907.64C422.142 1909.06 423.454 1909.56 424.165 1912.78C424.984 1916.28 423.782 1917.59 424.766 1918.74C426.077 1920.27 428.974 1918.74 435.588 1917.75C443.404 1916.66 445.099 1917.43 446.245 1915.84C448.324 1912.94 445.7 1905.68 440.508 1902.56ZM444.443 1913.33C443.951 1913.98 441.273 1913.05 435.971 1911.2C428.483 1908.57 427.827 1907.42 427.882 1906.71C427.882 1905.95 428.592 1905.35 429.193 1904.91C430.123 1904.31 431.163 1903.91 432.253 1903.72C433.342 1903.53 434.458 1903.57 435.534 1903.82C441.382 1905.02 445.536 1911.85 444.443 1913.33Z" fill="black"/>
<path d="M389.279 1899.71C387.771 1901.23 388.16 1903.86 388.511 1906.04C390.051 1915.61 396.682 1917.13 397.219 1923.33C397.895 1931.12 387.628 1934.92 389.52 1939.83C390.3 1941.86 394.466 1943.08 402.797 1945.52C410.209 1947.69 411.495 1947.29 412.326 1946.72C414.514 1945.23 414.864 1941.69 415.557 1934.68C415.935 1930.85 415.672 1929.79 416.629 1927.95C418.45 1924.44 421.173 1924.44 422.741 1922.17C426.942 1916.1 418.956 1899.37 409.655 1898.05C407.099 1897.69 407.089 1898.87 401.534 1899.14C394.514 1899.48 391.227 1897.75 389.279 1899.71Z" fill="black"/>
<path d="M420.175 1906.39H420.12C418.087 1902.58 414.689 1899.69 410.61 1898.3C410.306 1898.2 409.996 1898.12 409.68 1898.08C409.373 1898.04 409.062 1898.02 408.751 1898.02H408.697C406.332 1898.52 403.942 1898.89 401.536 1899.12C396.89 1899.39 393.83 1898.68 391.807 1898.79C391.285 1898.79 390.766 1898.88 390.277 1899.06C389.889 1899.17 389.546 1899.4 389.293 1899.72C388.838 1900.19 388.517 1900.77 388.364 1901.41C388.092 1902.95 388.148 1904.54 388.528 1906.06C390.058 1915.62 396.672 1917.15 397.218 1923.33C397.874 1931.14 387.653 1934.92 389.511 1939.83C390.277 1941.86 394.485 1943.06 402.794 1945.52C410.227 1947.7 411.484 1947.27 412.304 1946.72C414.49 1945.24 414.873 1941.69 415.584 1934.7C415.533 1932.57 415.81 1930.45 416.403 1928.41V1928.36C416.487 1928.22 416.56 1928.07 416.622 1927.92C418.426 1924.42 421.159 1924.42 422.744 1922.18C425.149 1918.74 423.618 1911.91 420.175 1906.39ZM414.162 1923.44C411.921 1928.41 414.709 1932.57 411.867 1935.19C411.156 1935.84 409.79 1936.66 408.86 1936.23C407.166 1935.46 408.314 1931.25 408.259 1925.08C408.205 1919.5 408.205 1914.97 405.855 1911.09C402.192 1904.96 394.759 1903.65 395.141 1902.51C395.415 1901.74 398.257 1902.56 404.324 1902.61C410.282 1902.67 410.719 1901.9 412.632 1902.61C415.219 1903.95 417.273 1906.13 418.456 1908.8C419.638 1911.46 419.878 1914.44 419.137 1917.26C417.934 1920.49 415.747 1919.72 414.162 1923.44Z" fill="black"/>
<path d="M374.964 1909.92C373.95 1912.57 375.644 1914.55 374.196 1916.13C372.79 1917.67 369.803 1917.32 367.318 1917.03C363.741 1916.6 363.022 1915.58 361.795 1916.07C359.139 1917.14 357.616 1923.93 360.04 1928.78C361.375 1931.45 363.126 1931.97 382.406 1937.72C383.983 1938.32 385.724 1938.32 387.303 1937.73C388.682 1937.1 389.126 1936.12 391.05 1932.93C394.549 1927.13 395.461 1926.41 395.37 1924.5C395.165 1922.83 394.457 1921.26 393.339 1920C386.69 1910.46 387.946 1905.89 384.142 1904.91C382.278 1904.65 380.38 1905 378.728 1905.9C377.075 1906.8 375.756 1908.21 374.964 1909.92Z" fill="black"/>
<path d="M393.338 1920C386.67 1910.49 387.927 1905.9 384.155 1904.91C383.977 1904.87 383.792 1904.85 383.609 1904.86C382.342 1904.75 381.067 1904.92 379.876 1905.37C378.685 1905.81 377.608 1906.51 376.722 1907.43C375.948 1908.11 375.349 1908.98 374.973 1909.94C373.934 1912.56 375.628 1914.53 374.207 1916.12C372.786 1917.65 369.78 1917.32 367.32 1917.05C363.768 1916.61 363.002 1915.57 361.8 1916.06C359.122 1917.15 357.592 1923.93 360.051 1928.8C361.362 1931.47 363.112 1931.97 382.406 1937.7C383.988 1938.32 385.743 1938.32 387.325 1937.7C388.692 1937.1 389.129 1936.12 391.042 1932.95C394.54 1927.15 395.469 1926.39 395.36 1924.48C395.159 1922.81 394.453 1921.25 393.338 1920ZM385.358 1932.95C384.319 1932.57 385.194 1930.27 384.319 1926.01C382.679 1918.19 377.815 1916.17 378.854 1911.69C379.455 1909.17 381.586 1906.93 383.117 1907.15C384.92 1907.43 384.538 1911.2 387.763 1917.1C389.949 1921.09 391.151 1921.31 391.37 1923.6C391.917 1928.41 387.107 1933.55 385.358 1932.95L385.358 1932.95Z" fill="black"/>
<path d="M422.741 1922.17C428.394 1922.1 433.071 1932.12 432.864 1939.28C432.945 1940.1 432.851 1940.94 432.589 1941.72C432.326 1942.51 431.902 1943.23 431.342 1943.85C430.098 1944.99 428.644 1944.8 424.051 1944.81C417.252 1944.82 416.7 1945.25 415.958 1944.49C414.249 1942.73 416.877 1940.13 416.701 1932.9C416.615 1929.33 415.933 1928.05 416.936 1926.08C417.491 1924.99 418.316 1924.06 419.332 1923.38C420.348 1922.69 421.521 1922.28 422.741 1922.17Z" fill="black"/>
<path d="M426.187 1923.44V1923.38C425.192 1922.63 423.989 1922.21 422.744 1922.18C421.529 1922.29 420.36 1922.7 419.347 1923.37C418.334 1924.05 417.509 1924.98 416.95 1926.06C416.569 1926.77 416.381 1927.56 416.403 1928.36V1928.41C416.403 1929.56 416.622 1930.87 416.677 1932.89C416.895 1940.11 414.272 1942.73 415.966 1944.48C416.677 1945.24 417.278 1944.81 424.055 1944.81C428.647 1944.81 430.123 1944.97 431.325 1943.82C431.915 1943.3 432.334 1942.62 432.528 1941.86C432.746 1941.02 432.856 1940.15 432.856 1939.29C432.928 1936.32 432.371 1933.38 431.221 1930.65C430.072 1927.92 428.356 1925.46 426.187 1923.44ZM427.116 1934.42C426.734 1934.59 426.187 1932.07 423.345 1929.45C420.94 1927.26 418.808 1926.72 418.972 1926.12C419.135 1925.51 421.596 1925.19 423.509 1926.12C424.839 1927.01 425.886 1928.27 426.525 1929.74C427.164 1931.21 427.37 1932.84 427.116 1934.42Z" fill="black"/>
<path d="M432.818 1942.04C436.097 1943.31 439.16 1934.72 448.003 1933.18C452.349 1932.43 454.865 1933.94 456.01 1932.35C457.64 1930.1 454.674 1924.11 450.322 1920.91C441.946 1914.77 427.482 1918.32 426.173 1923.21C425.791 1924.64 426.805 1925.15 428.606 1929.5C431.949 1937.57 430.688 1941.21 432.818 1942.04Z" fill="black"/>
<path d="M450.346 1920.92C441.929 1914.75 427.499 1918.3 426.187 1923.22C426.187 1923.27 426.132 1923.33 426.187 1923.38V1923.44C425.914 1924.7 426.843 1925.35 428.592 1929.5C431.763 1937.21 430.778 1940.87 432.528 1941.86C432.605 1941.93 432.699 1941.99 432.801 1942.02C436.08 1943.33 439.141 1934.7 447.996 1933.17C452.368 1932.46 454.883 1933.93 456.03 1932.35C457.615 1930.11 454.664 1924.09 450.346 1920.92ZM452.423 1930.38C451.822 1931.25 447.996 1930.11 440.344 1927.81C433.73 1925.79 430.396 1924.75 430.396 1923.88C430.451 1922.07 438.157 1919.12 444.607 1921.63C449.745 1923.66 453.352 1928.9 452.423 1930.38Z" fill="black"/>
</svg>
