<svg width="973" height="508" viewBox="0 0 973 508" fill="none" xmlns="http://www.w3.org/2000/svg">
<path d="M767.63 404.94C762.36 407.65 758.95 414 762.11 419.99C766.49 428.28 778.69 425.19 783.14 419.07C788.55 411.61 782.03 404.33 774.02 403.63C771.79 403.43 769.59 403.93 767.63 404.94Z" fill="#62CBE3"/>
<path d="M799.77 372.61C793.8 374.34 788.72 378.8 784.31 383.04C781.01 386.21 777.79 389.85 775.9 394.08C774.9 396.32 772.95 405.78 778.69 403.76C782.83 402.3 785.32 398.52 787.57 394.98C792.11 387.81 794.99 379.95 800.27 373.21C800.64 372.74 800.25 372.47 799.77 372.61Z" fill="#62CBE3"/>
<path d="M819.23 397.56C813.86 395.6 807.74 396.17 802.24 396.92C798.11 397.48 793.81 398.45 790.21 400.56C788.29 401.69 781.9 407.66 787.24 409.28C791.09 410.44 794.92 408.98 798.45 407.56C805.58 404.7 811.83 400.42 819.3 398.27C819.8 398.13 819.65 397.72 819.23 397.56Z" fill="#62CBE3"/>
<path d="M752.17 461.45C757.6 458.41 761.54 452.92 764.88 447.8C766.73 444.97 768.12 441.82 768.86 438.56C769.93 436.1 770.67 433.53 770.79 430.83C770.91 428.19 768.61 424.5 765.68 426.36C761.98 428.71 760.4 432.96 759.01 436.92C756.21 444.92 755.18 453.23 751.55 460.99C751.3 461.52 751.74 461.69 752.17 461.45Z" fill="#62CBE3"/>
<path d="M822.14 427.2C818.64 422.05 812.83 418.61 807.43 415.73C804.44 414.13 801.19 413.03 797.88 412.58C795.33 411.73 792.71 411.21 790 411.32C787.37 411.43 783.89 414.05 785.99 416.81C788.65 420.29 793.02 421.49 797.1 422.53C805.32 424.62 813.68 424.92 821.73 427.86C822.28 428.06 822.43 427.61 822.14 427.2Z" fill="#62CBE3"/>
<path d="M729.8 385.61C731.93 391.45 736.73 396.2 741.26 400.33C743.77 402.61 746.65 404.47 749.76 405.71C752.03 407.16 754.44 408.3 757.09 408.85C759.67 409.38 763.69 407.7 762.31 404.51C760.58 400.49 756.63 398.25 752.94 396.25C745.48 392.21 737.45 389.88 730.35 385.06C729.88 384.74 729.63 385.15 729.8 385.61Z" fill="#62CBE3"/>
<path d="M760.53 369.21C759.32 366.86 757.97 364.59 756.41 362.48C758.13 371.97 756.32 381.73 758.25 391.13C758.88 394.23 762.29 402.94 766.81 402.24C767.36 402.16 767.82 401.96 768.21 401.7C771.66 401.38 771.45 395.01 770.52 392.46C767.61 384.56 763.95 376.94 760.53 369.21Z" fill="#62CBE3"/>
<path d="M784.49 455.07C784.47 457.48 784.31 459.89 783.91 462.25C781.4 453.81 775.9 446.6 773.57 438.14C772.8 435.35 771.98 426.85 775.95 425.55C776.44 425.4 776.88 425.36 777.31 425.42C780.26 424.25 782.72 429.53 783.01 431.99C783.93 439.63 784.09 447.37 784.49 455.07Z" fill="#62CBE3"/>
<path d="M803.35 442.29C804.37 444.15 805.29 446.06 806 448.05C800.43 442.65 793.11 439.49 787.69 433.99C785.91 432.18 781.61 426 784.11 423.3C784.41 422.97 784.75 422.75 785.09 422.61C786.86 420.45 791.02 423.44 792.29 425.2C796.28 430.68 799.72 436.54 803.35 442.29Z" fill="#62CBE3"/>
<path d="M731.89 414.36C729.86 414.95 727.86 415.65 725.95 416.55C733.7 416.68 741.11 419.64 748.83 419.61C751.37 419.6 758.77 418.28 758.93 414.61C758.95 414.16 758.86 413.76 758.72 413.42C759.01 410.65 753.95 409.81 751.8 410.14C745.11 411.19 738.53 412.89 731.89 414.36Z" fill="#62CBE3"/>
<path d="M726.3 435C723.81 436.54 721.41 438.21 719.19 440.1C729.37 437.23 739.99 438.06 750.08 435C753.41 433.99 762.69 429.41 761.74 424.7C761.62 424.13 761.4 423.67 761.1 423.28C760.62 419.65 753.74 420.58 751.03 421.85C742.61 425.79 734.52 430.52 726.3 435Z" fill="#62CBE3"/>
</svg>
