<svg width="973" height="508" viewBox="0 0 973 508" fill="none" xmlns="http://www.w3.org/2000/svg">
<path d="M771.26 375.16C758.47 376.81 747.27 386.74 743.6 399.1C739.93 411.46 743.7 425.61 752.65 434.89C761.6 444.17 775.3 448.44 788.04 446.44C796.52 445.11 804.64 441.08 810.39 434.7C816.13 428.33 819.33 419.58 818.47 411.05C817.18 398.34 807.55 388.05 797.15 380.63C789.72 375.32 780.46 373.97 771.26 375.16Z" fill="#62CBE3"/>
<path d="M798.63 378.02C797.83 376.29 798.82 374.15 800.37 373.04C801.92 371.93 803.87 371.57 805.75 371.25C804.84 371.98 804.31 373.08 803.85 374.15C803.38 375.22 802.93 376.33 802.11 377.16C801.28 377.99 799.98 378.47 798.63 378.02Z" fill="#62CBE3"/>
<path d="M818.77 396.15C818.66 394.91 819.85 393.87 821.08 393.69C822.31 393.5 823.53 393.95 824.69 394.4C825.85 394.85 827.05 395.33 828.28 395.22C827.1 395.58 826.08 396.32 825.03 396.96C823.98 397.6 822.8 398.17 821.57 398.1C820.34 398.02 818.86 397.16 818.77 396.15Z" fill="#62CBE3"/>
<path d="M821.88 421.59C821.74 421.03 821.6 420.46 821.66 419.89C821.72 419.32 822.03 418.74 822.56 418.52C823.14 418.28 823.8 418.51 824.37 418.77C827.01 419.98 829.36 421.79 831.21 424.02C830.05 423.11 828.47 422.76 827.04 423.09C826.3 423.26 825.61 423.6 824.85 423.67C823.4 423.79 822.16 422.71 821.88 421.59Z" fill="#62CBE3"/>
<path d="M810.63 444.14C810.22 443.37 809.81 442.58 809.71 441.72C809.61 440.86 809.92 439.89 810.67 439.45C811.74 438.82 813.18 439.55 813.81 440.62C814.44 441.69 814.53 442.98 814.77 444.2C815.09 445.85 815.7 447.43 816.58 448.86C814.33 448.29 812.05 446.8 810.63 444.14Z" fill="#62CBE3"/>
<path d="M788.95 450.96C789.39 450.01 790.73 449.71 791.66 450.19C792.59 450.67 793.11 451.75 793.17 452.8C793.23 453.85 792.91 454.88 792.51 455.86C792.11 456.83 791.64 457.78 791.38 458.8C790.43 457.69 789.48 456.56 788.85 455.24C788.24 453.91 788.23 452.51 788.95 450.96Z" fill="#62CBE3"/>
<path d="M762.59 448.09C763.15 447.45 764.63 446.65 765.45 446.9C767.16 447.42 767.32 449.1 766.77 450.74C766.22 452.38 765.34 452.94 763.82 453.77C762.3 454.6 761.04 454.63 759.69 455.69C761.42 452.18 761.5 449.35 762.59 448.09Z" fill="#62CBE3"/>
<path d="M734.7 431.92C736 430.47 737.76 429.44 739.67 429.03C740.85 428.77 742.16 428.77 743.19 429.39C744.22 430.01 744.84 431.42 744.29 432.5C743.9 433.26 743.04 433.68 742.19 433.78C741.34 433.87 740.49 433.68 739.66 433.49C737.77 433.06 735.88 432.63 734.7 431.92Z" fill="#62CBE3"/>
<path d="M736.16 412.31C736.94 411.92 737.75 411.52 738.62 411.44C739.49 411.36 740.46 411.66 740.92 412.41C741.61 413.53 740.78 415.12 739.55 415.59C738.32 416.06 736.92 415.71 735.73 415.14C734.54 414.57 733.44 413.8 732.19 413.4C733.34 413.32 734.45 413.16 736.16 412.31Z" fill="#62CBE3"/>
<path d="M739.4 383.45C739.58 384.85 739.77 386.28 740.37 387.56C740.97 388.84 742.07 389.96 743.46 390.23C744.85 390.49 746.46 389.65 746.73 388.26C747.01 386.82 745.82 385.47 744.48 384.89C743.92 384.65 741.98 384.11 741.57 384.02C740.45 383.77 739.99 382.93 739.4 383.45Z" fill="#62CBE3"/>
<path d="M765.43 365.95C766.17 367.1 765.65 368.6 765.24 369.91C764.83 371.22 764.66 372.9 765.76 373.71C766.73 374.42 768.24 373.89 768.83 372.84C769.41 371.79 769.22 370.45 768.64 369.39C768.06 368.33 767.14 367.51 765.43 365.95Z" fill="#62CBE3"/>
</svg>
