<svg width="360" height="60" viewBox="0 0 360 60" fill="none" xmlns="http://www.w3.org/2000/svg">
<path d="M357.834 10.818C358.838 10.3577 359.278 9.17054 358.818 8.16647C358.358 7.1624 357.171 6.72163 356.166 7.18197L357.834 10.818ZM3.32281 7.11814C2.28348 7.49215 1.74414 8.63788 2.11813 9.6772L8.21295 26.6139C8.58694 27.6533 9.73267 28.1926 10.772 27.8186C11.8113 27.4446 12.3507 26.2989 11.9767 25.2595L6.55905 10.2047L21.614 4.78706C22.6533 4.41305 23.1926 3.26732 22.8186 2.228C22.4446 1.18867 21.2989 0.64933 20.2596 1.02334L3.32281 7.11814ZM356.166 7.18197C285.778 39.4538 231.477 55.1602 178.092 54.9988C124.711 54.8374 72.0212 38.81 4.85184 7.19047L3.14816 10.8095C70.5484 42.5377 123.855 58.8348 178.08 58.9988C232.301 59.1627 287.215 43.1951 357.834 10.818L356.166 7.18197Z" fill="#D9DBE9"/>
</svg>
