<svg width="150" height="140" viewBox="0 0 150 140" fill="none" xmlns="http://www.w3.org/2000/svg">
<path d="M9.52039 99.881L69.044 68.1303L145.651 77.4682L89.6793 114.311L9.52039 99.881Z" fill="url(#paint0_linear)" stroke="#3D3535" stroke-width="0.308589" stroke-miterlimit="10"/>
<path d="M9.16858 108.018L9.52346 99.8623L89.6824 114.301L89.8676 123.383L9.16858 108.018Z" fill="#0D406D"/>
<path d="M145.583 77.5052L145.599 84.2324L89.9878 123.5L89.7101 114.326L145.583 77.5052Z" fill="#0D4168"/>
<path d="M105.735 52.8517C105.834 53.4657 105.967 54.6847 106.467 55.055C106.966 55.4253 107.667 55.3574 108.253 55.1445C109.537 54.6785 111.191 53.1109 111.577 51.8024C112.759 51.5278 113.481 51.4075 114.663 51.1328C113.734 53.833 111.324 56.351 108.605 57.2244C107.908 57.4496 107.158 57.5885 106.439 57.4342C105.652 57.2645 104.973 56.746 104.485 56.1073C103.998 55.4685 103.918 54.0953 103.674 53.33C104.482 53.1911 105.062 53.1294 105.735 52.8517Z" fill="#BDAA72" stroke="#9C8D41" stroke-width="0.308589" stroke-miterlimit="10"/>
<path d="M98.7117 61.3659C99.0635 59.6347 100.455 58.3386 101.776 57.166C102.927 56.1414 104.124 55.0922 105.593 54.6139C107.192 54.0924 108.988 54.3239 110.487 55.0861C111.987 55.8452 113.203 57.1042 114.073 58.5423C113.743 59.0514 113.036 59.215 112.447 59.0638C111.858 58.9126 111.367 58.5083 110.935 58.0794C110.503 57.6504 110.105 57.1814 109.602 56.8389C108.204 55.8884 106.254 56.1353 104.797 56.9993C103.344 57.8634 102.276 59.2366 101.251 60.5851C100.93 61.0079 100.594 61.443 100.134 61.7115C99.6745 61.9799 99.0481 62.0386 98.6315 61.7115C98.687 61.5633 98.7487 61.4183 98.7117 61.3659Z" fill="#BDAA72" stroke="#9C8D41" stroke-width="0.308589" stroke-miterlimit="10"/>
<path d="M110.812 68.3679C110.802 68.5623 110.778 68.7659 110.867 68.948C111.614 70.457 110.54 72.1944 109.515 73.5305C107.019 76.7892 104.519 80.0479 102.023 83.3035C101.177 84.4052 100.301 85.5377 99.1068 86.2444C97.1256 87.417 94.6353 87.2195 92.3826 86.7443C92.1203 86.6888 91.858 86.6301 91.5927 86.5715C91.6575 86.6888 91.7315 86.8029 91.8117 86.914C93.0677 88.5927 92.395 87.9509 92.4382 88.0897C94.2002 88.3952 96.3542 88.6205 98.0977 88.2903C101.251 87.6917 103.668 85.1273 105.365 82.4025C107.062 79.6776 108.287 76.6442 110.312 74.1539C111.065 73.225 111.95 72.3332 112.262 71.1791C112.574 70.025 111.997 68.5222 110.812 68.3679Z" fill="#BDAA72" stroke="#9C8D41" stroke-width="0.308589" stroke-miterlimit="10"/>
<path d="M32.4547 87.0345C31.9795 85.9359 31.3809 85.7507 30.3193 85.2014C29.3596 84.7046 28.4307 84.4732 26.9279 84.2294C26.5175 84.1615 25.1628 84.2541 25.2461 83.8498C25.3202 83.4949 25.7491 83.3561 26.1071 83.319C28.3382 83.0814 30.4705 84.18 32.4424 85.2446C32.822 85.4514 33.3712 85.9791 33.6119 86.337C33.8526 86.7043 33.7292 86.9203 33.4515 87.2597C33.1768 87.5961 32.7016 87.6023 32.4547 87.0345Z" fill="#BDAA72" stroke="#9C8D41" stroke-width="0.308589" stroke-miterlimit="10"/>
<path d="M50.3588 104.784L46.9088 98.0663L106.577 65.143C106.577 65.143 109.842 64.5042 111.061 66.7045C112.073 68.5344 109.611 71.7653 109.611 71.7653L50.3588 104.784Z" fill="url(#paint1_linear)" stroke="#3D3535" stroke-width="0.308589" stroke-miterlimit="10"/>
<path d="M79.1038 110.898L75.1724 104.448L132.271 67.2477C132.271 67.2477 135.48 66.3713 136.856 68.4759C137.998 70.2256 135.779 73.6293 135.779 73.6293L79.1038 110.898Z" fill="url(#paint2_linear)" stroke="#3D3535" stroke-width="0.308589" stroke-miterlimit="10"/>
<path d="M22.5858 100.772L19.1357 94.0545L78.8044 61.1312C78.8044 61.1312 82.0693 60.4924 83.2882 62.6926C84.3004 64.5226 81.8378 67.7535 81.8378 67.7535L22.5858 100.772Z" fill="url(#paint3_linear)" stroke="#3D3535" stroke-width="0.308589" stroke-miterlimit="10"/>
<path d="M17.7718 77.8042C17.7718 77.8042 15.803 76.7026 15.7907 73.2279C15.7783 69.9229 19.1821 69.7655 19.1821 69.7655L115.023 78.2517L111.669 86.4879L17.7718 77.8042Z" fill="url(#paint4_linear)" stroke="#3D3535" stroke-width="0.308589" stroke-miterlimit="10"/>
<path d="M92.4164 76.0824L96.141 76.4959L105.226 70.2624L103.14 70.0587L101.606 70.3087L92.4164 76.0824Z" fill="#0C7243"/>
<path d="M38.4475 63.9178C38.4475 63.9178 36.4787 62.8161 36.4663 59.3414C36.454 56.0364 39.8577 55.879 39.8577 55.879L135.699 64.3652L132.345 72.6014L38.4475 63.9178Z" fill="url(#paint5_linear)" stroke="#3D3535" stroke-width="0.308589" stroke-miterlimit="10"/>
<path d="M104.674 69.5866C105.251 69.4231 105.677 69.3397 106.254 69.1762C106.294 69.6267 106.501 70.4723 107.331 70.3643C107.639 70.3241 107.898 70.1174 108.105 69.8829C108.522 69.4076 109.204 68.343 109.204 68.343C109.204 68.343 110.417 67.6333 110.895 68.0468C110.784 68.9756 110.46 69.8798 109.954 70.6698C109.605 71.2129 109.148 71.7159 108.556 71.9751C107.624 72.3793 106.488 72.0893 105.704 71.4412C104.921 70.7932 104.908 70.534 104.674 69.5866Z" fill="#B6A672" stroke="#9C8D41" stroke-width="0.308589" stroke-miterlimit="10"/>
<path d="M46.8657 82.2325L39.728 74.2555L124.429 55.2001L117.523 66.7259L46.8657 82.2325Z" fill="#63CEE2" stroke="#3D3535" stroke-width="0.308589" stroke-miterlimit="10"/>
<path d="M9.87522 74.3854C9.87522 74.3854 0.302809 75.5333 5.5951 69.5159C8.51435 66.1985 12.7204 65.5814 12.7204 65.5814L114.499 43.1778C114.499 43.1778 117.428 42.0484 122.01 44.1838C128.361 47.1401 121.751 49.6489 121.751 49.6489L9.87522 74.3854Z" fill="#63CEE2" stroke="#3D3535" stroke-width="0.308589" stroke-miterlimit="10"/>
<path d="M21.2961 101.124C23.1708 101.124 24.6906 99.3282 24.6906 97.1127C24.6906 94.8971 23.1708 93.101 21.2961 93.101C19.4214 93.101 17.9016 94.8971 17.9016 97.1127C17.9016 99.3282 19.4214 101.124 21.2961 101.124Z" fill="white" stroke="#3D3535" stroke-width="0.308589" stroke-miterlimit="10"/>
<path d="M48.236 105.664C50.196 105.664 51.7848 103.867 51.7848 101.652C51.7848 99.4363 50.196 97.6403 48.236 97.6403C46.2761 97.6403 44.6873 99.4363 44.6873 101.652C44.6873 103.867 46.2761 105.664 48.236 105.664Z" fill="white" stroke="#3D3535" stroke-width="0.308589" stroke-miterlimit="10"/>
<path d="M76.9348 111.836C78.8947 111.836 80.4835 110.039 80.4835 107.824C80.4835 105.608 78.8947 103.812 76.9348 103.812C74.9748 103.812 73.386 105.608 73.386 107.824C73.386 110.039 74.9748 111.836 76.9348 111.836Z" fill="white" stroke="#3D3535" stroke-width="0.308589" stroke-miterlimit="10"/>
<path d="M115.464 83.6824C116.85 81.5345 117.045 79.194 115.899 78.4547C114.754 77.7155 112.702 78.8574 111.316 81.0053C109.929 83.1532 109.734 85.4937 110.88 86.233C112.026 86.9723 114.078 85.8303 115.464 83.6824Z" fill="white" stroke="#3D3535" stroke-width="0.308589" stroke-miterlimit="10"/>
<path d="M122.239 64.7287C126.878 62.0251 129.699 58.2219 128.54 56.234C127.381 54.2461 122.682 54.8263 118.043 57.5299C113.405 60.2335 110.584 64.0367 111.743 66.0245C112.902 68.0124 117.601 67.4322 122.239 64.7287Z" fill="white" stroke="#3D3535" stroke-width="0.308589" stroke-miterlimit="10"/>
<path d="M51.7533 79.1157C51.9352 76.8221 47.9508 74.6348 42.8538 74.2304C37.7568 73.826 33.4773 75.3575 33.2953 77.6512C33.1134 79.9448 37.0978 82.1321 42.1948 82.5365C47.2918 82.9409 51.5713 81.4094 51.7533 79.1157Z" fill="white" stroke="#3D3535" stroke-width="0.308589" stroke-miterlimit="10"/>
<path d="M136.925 69.6127C137.805 67.2125 137.091 64.7437 135.331 64.0986C133.571 63.4536 131.431 64.8764 130.551 67.2766C129.671 69.6768 130.385 72.1456 132.145 72.7907C133.905 73.4357 136.046 72.0129 136.925 69.6127Z" fill="white" stroke="#3D3535" stroke-width="0.308589" stroke-miterlimit="10"/>
<path d="M39.4564 53.3273C39.4564 53.3273 34.3647 53.7316 33.6179 50.0656C32.8218 46.1465 37.645 45.0356 37.645 45.0356L78.3447 36.1513C78.3447 36.1513 83.2667 35.8921 84.1956 39.5674C85.0349 42.8878 80.1531 44.4431 80.1531 44.4431L39.4564 53.3273Z" fill="#64CAE5"/>
<path d="M60.4746 60.8105C60.5641 60.6748 60.4407 60.4989 60.2802 60.5359L31.4241 67.1057C31.4241 67.1057 30.3193 67.4545 30.1465 66.7879C30.0138 66.2787 31.1494 66.0782 31.1494 66.0782L60.7739 59.0886L61.7151 58.8664C62.1965 58.7523 62.5823 59.2707 62.3354 59.6996L55.8921 70.8304L53.7721 71.1884L60.4746 60.8105Z" fill="#0C7243"/>
<path d="M108.858 58.5915L110.089 58.2706L109.481 48.1767C109.441 47.7045 108.978 47.3836 108.525 47.5163L91.8826 52.2778C91.8826 52.2778 90.5495 52.6172 90.821 53.4597C91.0432 54.1478 93.1817 53.4103 93.1817 53.4103L108.173 48.8154C108.324 48.7692 108.478 48.8802 108.482 49.0376L108.858 58.5915Z" fill="#0C7243"/>
<path d="M69.3187 81.3225C68.5657 81.0479 68.7139 79.9401 69.5131 79.8722L69.7908 79.8475L87.6118 81.1559C88.0593 81.1929 88.4635 81.4336 88.7042 81.807L95.8727 92.8514C96.2245 93.3976 96.0672 94.1259 95.5179 94.4777L84.3408 101.714C84.3408 101.714 83.4212 102.47 82.841 101.865C82.4491 101.455 83.3194 100.822 83.3194 100.822L94.0798 94.2586C94.5242 93.9901 94.6569 93.4038 94.3668 92.9717L87.8741 83.0198C87.655 82.6834 87.2878 82.4705 86.8897 82.4458L69.3187 81.3225Z" fill="#0C7243"/>
<path d="M128.145 66.5624C128.145 66.5624 129.592 66.8432 129.706 66.2106C129.805 65.6675 128.484 65.4916 128.484 65.4916L122.674 64.6429L121.294 65.4144L128.145 66.5624Z" fill="#0C7243"/>
<path d="M54.9662 81.3995L52.4728 81.1249L47.7853 83.6553C47.7853 83.6553 46.5294 84.1953 46.912 84.9575C47.2576 85.6457 48.3747 85.1088 48.3747 85.1088L54.9662 81.3995Z" fill="#0C7243"/>
<path d="M62.2458 54.6014L62.4032 45.9239C62.4217 45.7017 62.5853 45.5197 62.8013 45.4795L77.8357 42.5696C78.1104 42.5171 78.3758 42.7022 78.419 42.9831C78.4591 43.2485 78.2801 43.4953 78.0178 43.5416L63.6623 46.1245C63.4277 46.1677 63.258 46.3683 63.2549 46.6059L63.2734 54.5397L62.2458 54.6014Z" fill="#0C7243"/>
<path d="M89.9477 86.1856C89.9477 86.1856 87.7598 85.9726 86.6273 86.2966C84.7727 86.8274 83.3933 88.358 82.2299 89.8948C81.0666 91.4346 79.9649 93.0979 78.3325 94.1225C76.697 95.147 75.2373 95.5636 73.537 94.5267C73.0926 94.2551 72.1298 93.3571 71.6639 93.1226C71.1979 92.8881 69.7661 91.8852 69.7753 92.4067C69.7815 92.6443 70.8646 93.7737 71.022 93.9496C72.3088 95.3692 74.2097 96.2116 76.1261 96.2085C78.0424 96.2054 79.9433 95.3568 81.2209 93.9311C82.6558 92.3357 83.3285 90.0861 85.0381 88.787C86.6181 87.5865 88.9603 87.5433 90.9599 87.7655C90.676 87.3181 89.9477 86.1856 89.9477 86.1856Z" fill="#BDAA72" stroke="#8A7C3A" stroke-width="0.308589" stroke-miterlimit="10"/>
<path d="M108.269 44.3935C108.269 44.3935 108.586 42.5944 108.926 42.0667C109.265 41.539 110.099 40.1319 111.003 39.7369C112.749 38.9716 114.795 38.2464 117.375 38.2927C117.647 38.2988 120.088 38.6753 120.334 38.5704C120.584 38.4655 120.77 38.1569 120.637 37.9193C120.56 37.7835 120.415 37.6847 120.263 37.6508C117.591 37.0367 115.69 36.8053 113.367 37.262C111.04 37.7218 110.247 38.1229 108.645 39.4005C107.942 39.959 107.297 41.2119 106.932 42.005C106.556 42.8197 106.118 44.9057 106.118 44.9057L108.269 44.3935Z" fill="#BDAA72" stroke="#8A7C3A" stroke-width="0.308589" stroke-miterlimit="10"/>
<path d="M66.6865 78.0449C66.6865 78.0449 66.7081 79.0108 66.8438 79.5909C66.9765 80.1711 67.0691 80.8006 66.8377 81.3499C66.6062 81.8992 65.9458 82.3065 65.4027 82.0596C64.8534 81.8097 64.7238 81.0999 64.3566 80.6216C63.8474 79.9612 62.8322 79.81 62.0977 80.2019C61.3633 80.5938 60.9313 81.4425 60.9313 82.2757C60.9313 83.1088 61.3201 83.9112 61.891 84.5191C62.2798 84.9326 62.755 85.2751 63.0482 85.7627C63.3383 86.2503 63.3753 86.8088 62.9279 87.1606C62.5113 87.4846 61.9188 87.3488 61.3973 87.281C60.1135 87.1143 58.8113 87.6358 57.6541 88.216C56.4969 88.7961 55.4631 89.5861 54.4077 90.336C51.8557 92.1474 49.0568 93.7737 45.9617 94.2242C44.789 94.3939 41.2958 94.4772 39.2499 93.57C38.0186 93.0238 37.8026 91.4315 37.5372 91.2278C37.0928 90.8822 37.3428 92.7461 37.781 93.3571C38.2192 93.9681 38.8888 94.3785 39.5739 94.6902C42.2802 95.9307 45.4494 95.9122 48.3069 95.0759C51.1645 94.2427 53.7473 92.6442 56.0988 90.8174C57.5677 89.6787 59.1014 88.3857 60.9591 88.2592C61.6133 88.216 62.2736 88.324 62.9279 88.2438C63.5821 88.1635 64.264 87.8333 64.4955 87.2192C64.7084 86.6483 64.4677 85.9972 64.0881 85.5251C63.7055 85.0529 63.1963 84.7012 62.755 84.2815C62.3138 83.8618 61.9249 83.3279 61.9003 82.72C61.8756 82.1121 62.3631 81.4641 62.968 81.5073C63.869 81.569 64.0851 82.828 64.7886 83.3958C65.4027 83.8896 66.3563 83.76 66.9673 83.2631C67.5783 82.7663 67.8992 81.9917 68.0658 81.2234C68.3467 79.9211 68.2448 77.6931 68.2448 77.6931L66.6865 78.0449Z" fill="#B6A672" stroke="#8A7C3A" stroke-width="0.308589" stroke-miterlimit="10"/>
<path d="M24.5919 63.5721C22.9749 62.0416 20.7715 60.6652 18.8614 59.2087C18.3862 60.1098 18.9725 61.233 19.7594 61.8811C20.5463 62.5291 22.1448 63.2358 22.8545 63.9671C24.0395 65.1861 24.49 65.6767 25.4158 66.9049C26.644 68.5373 29.267 67.4048 30.2051 65.5934C31.1463 63.782 31.2234 61.6558 31.8221 59.7025C32.4208 57.7491 34.2538 55.086 35.6363 56.5888C36.38 57.3973 36.4694 57.999 37.2502 58.7674C37.7316 59.2396 38.4907 59.4247 39.3239 58.7088C40.0892 58.0453 39.9997 57.7121 39.9966 56.6999C39.9935 55.6877 40.3175 54.5614 41.231 54.9996C42.1382 55.4347 42.632 55.9408 43.5485 56.3574C44.3014 56.6999 45.1315 56.6752 46.1283 56.3296C46.6899 56.1352 47.3009 55.8914 47.8101 55.5797C48.6062 55.0952 50.1337 55.0829 51.0657 55.1014C53.9448 55.16 55.3242 54.6848 57.9133 53.8825C62.3724 52.5031 67.3622 52.9166 71.5344 55.0119C75.7065 57.1072 78.9683 60.5264 81.2672 64.8003C82.6034 64.4732 81.9369 64.6059 83.2731 64.2788C80.8383 61.017 78.635 58.0947 75.1356 55.6414C71.6362 53.1881 67.5536 51.3922 63.2796 51.2379C60.1104 51.1237 56.9104 52.6049 53.8368 53.3856C51.0873 54.0831 48.4149 54.0861 45.6654 54.7866C44.8538 54.9934 43.9867 55.1971 43.1967 54.9224C42.5795 54.7095 42.0981 54.2312 41.5426 53.8856C40.9872 53.5399 40.2404 53.3394 39.7004 53.7066C39.0369 54.1571 39.0894 55.1199 38.9844 55.9161C38.8795 56.7122 38.1204 57.6349 37.4384 57.2121C37.0527 56.9745 36.9879 56.4561 36.8089 56.0395C36.2195 54.6786 34.226 54.478 32.9731 55.2711C31.7203 56.0642 31.0383 57.4868 30.418 58.8322C29.7391 60.3073 29.0633 61.7823 28.3844 63.2543C27.9956 64.0998 27.5266 65.0256 26.6532 65.3496C25.7769 65.6736 24.8449 63.8128 24.5919 63.5721Z" fill="#B6A672" stroke="#8C7F3B" stroke-width="0.308589" stroke-miterlimit="10"/>
<path d="M48.7206 52.8458C47.3227 51.5466 44.6503 52.2687 42.9037 52.3921C40.7189 52.6514 38.1576 52.6544 36.269 52.244C34.2601 51.6083 32.8869 50.5653 30.9952 49.4174C29.7146 48.5749 28.6037 47.4948 27.2675 46.7326C25.419 45.6526 23.2342 45.1989 21.105 45.3625C20.3489 45.4088 19.596 45.4705 18.8399 45.5261C18.7535 45.5384 18.6733 45.5878 18.6208 45.6587C18.4542 45.884 18.6579 46.2235 18.9356 46.1741C20.3613 46.1031 21.4568 45.9612 22.7806 46.0908C24.376 46.2728 25.7894 46.7604 27.0391 47.5689C28.1223 48.2601 29.0542 49.1551 30.1003 49.8957C31.7729 50.9973 33.4547 52.1329 35.3124 52.9013C36.627 53.4228 38.0681 53.4352 39.4629 53.4876C41.4903 53.5926 44.3849 53.0741 45.9433 53.0309C46.6901 53.0217 47.2177 53.0309 47.6837 53.2593C47.6868 53.2624 47.6899 53.2624 47.693 53.2655C47.7578 53.3025 47.8195 53.3395 47.8781 53.3827C48.0941 53.5494 48.1651 53.6111 48.1898 53.645C48.3317 53.7654 48.4243 53.9443 48.591 54.0308C48.7885 54.1573 49.0662 54.077 49.1989 53.8919C49.4982 53.466 48.9983 53.1173 48.7206 52.8458Z" fill="#BDAA72" stroke="#E6CF60" stroke-width="0.308589" stroke-miterlimit="10"/>
<path d="M91.5063 21.7768C91.1545 21.9157 90.7934 22.0391 90.4324 22.144C90.0744 22.2613 88.4297 22.6285 87.581 22.6717C85.4178 22.9402 82.9214 22.3137 80.4465 22.5637C78.2555 22.789 76.1509 23.471 74.0772 24.1745C69.22 25.7051 64.7671 27.8406 59.9932 28.8126C58.3423 29.1521 56.6636 29.3773 54.9787 29.4329C54.0405 29.473 52.3217 29.4113 51.2571 28.9638C50.9855 28.8743 50.9454 28.8281 50.7911 28.7602C50.7788 28.754 50.7633 28.7447 50.7572 28.7416C50.6461 28.6923 50.5504 28.5966 50.4239 28.609C50.1307 28.5966 49.9857 29.0286 50.2418 29.1922C51.8527 30.2383 54.1362 30.2445 56.1112 30.1272C60.2154 29.8649 64.2024 28.6861 68.0196 27.2018C70.1674 26.3995 72.3337 25.6434 74.5123 24.9213C76.7033 24.19 78.524 23.5851 80.9526 23.3815C82.6498 23.2241 84.9642 23.761 87.0132 23.6314C88.3618 23.5913 89.701 23.3537 90.9909 22.9525C91.4044 22.7643 92.1728 22.7489 92.1759 22.1934C92.179 21.8725 91.7994 21.6349 91.5063 21.7768Z" fill="#BDAA72" stroke="#E6CF60" stroke-width="0.308589" stroke-miterlimit="10"/>
<path d="M112.722 23.3319C112.389 23.3103 112.167 23.622 111.892 23.7701C110.815 24.5107 109.247 25.2328 107.852 25.455C104.955 25.9519 102.27 25.6155 99.1595 25.7914C97.3142 25.8562 95.4812 26.1154 93.642 26.2604C91.3893 26.424 89.1366 26.6061 86.9333 27.1307C80.0703 28.5131 73.7257 30.1579 67.3626 33.3209C63.3849 35.2867 59.5152 37.9498 57.1298 41.7701C56.4139 42.8934 55.7164 44.1061 55.6547 45.4701C55.593 46.7013 56.0621 48.4017 57.3983 48.7411C57.9445 48.7905 58.0154 47.9851 57.4877 47.9203C56.9354 47.7475 56.2503 46.3928 56.5589 44.9979C56.8366 43.5969 57.9506 42.0108 59.1017 40.5357C63.6965 35.2157 71.2354 32.3088 78.336 30.1301C80.4807 29.4512 83.3228 28.8032 85.8964 28.2848C88.325 27.7232 90.7845 27.3498 93.2748 27.214C96.1878 26.9609 99.2058 26.6431 101.789 26.6925C104.214 26.6678 106.689 26.8375 109.05 26.1802C110.013 25.9241 110.923 25.5075 111.765 24.9798C112.204 24.6743 112.737 24.4459 113.08 24.0355C113.256 23.7578 113.049 23.3566 112.722 23.3319Z" fill="#BDAA72" stroke="#E6CF60" stroke-width="0.308589" stroke-miterlimit="10"/>
<path d="M116.993 35.7928C116.641 35.6416 116.286 35.4873 115.931 35.3423C114.459 34.7251 112.864 34.4998 111.296 34.2622C106.202 33.7284 101.079 33.2408 95.9503 33.429C91.0036 33.5895 86.097 34.4258 81.2892 35.5799C78.9193 36.16 76.5555 36.7926 74.1392 37.1537C71.9699 37.4685 69.7758 37.5425 67.591 37.669C63.314 37.8542 59.0647 38.3356 54.837 38.9898C47.8382 39.786 40.8641 40.8259 33.8437 41.4369C32.7421 41.5326 31.5293 41.5048 30.6776 41.2919C30.6653 41.2888 30.6529 41.2857 30.6375 41.2826C30.6437 41.2857 30.6221 41.2826 30.5789 41.2703C30.5696 41.2672 30.5604 41.2672 30.5542 41.2641C30.5635 41.2641 30.5635 41.2672 30.5727 41.2672C30.3906 41.2178 30.2117 41.1653 30.0327 41.1067C29.5976 40.9586 29.1563 40.7981 28.6934 40.758C28.0947 40.7302 27.4529 40.8598 26.9468 41.1653C26.8141 41.2919 26.811 41.5202 26.9283 41.6622C27.0332 41.7918 27.2245 41.8381 27.3757 41.7671C28.4774 41.3536 28.9094 41.6128 30.3505 42.1065C31.625 42.4707 32.9272 42.409 33.9209 42.3534C42.9224 41.5542 52.0875 40.2735 61.0643 39.1441C64.8661 38.7368 68.6926 38.6627 72.5037 38.3726C75.7316 38.0918 78.8576 37.2031 81.9928 36.4409C84.9337 35.7496 87.9146 35.2188 90.911 34.8331C97.7771 33.9135 104.554 34.4937 111.633 35.2682C112.975 35.4904 114.009 35.6169 115.111 36.0181C115.641 36.2125 116.163 36.4378 116.684 36.6569C116.944 36.8235 117.354 36.805 117.468 36.4717C117.595 36.1384 117.298 35.87 116.993 35.7928Z" fill="#B6A672" stroke="#E6CF60" stroke-width="0.308589" stroke-miterlimit="10"/>
<path d="M30.6405 41.2859C30.6343 41.2828 30.6127 41.2766 30.5726 41.2704C30.5757 41.2704 30.5788 41.2704 30.5819 41.2735C30.6004 41.2766 30.6189 41.2797 30.6405 41.2859Z" fill="#B6A672" stroke="#E6CF60" stroke-width="0.308589" stroke-miterlimit="10"/>
<path d="M98.4928 37.8575C98.1997 37.7803 97.8818 37.8914 97.5794 37.8945C96.305 38.0087 95.5674 38.0642 94.5028 38.0087C93.3332 37.9593 91.0713 37.7063 90.4171 37.5365C88.2724 36.9996 86.2357 36.117 84.1188 35.4783C80.3417 34.2439 76.3948 33.4539 72.4109 33.457C68.5382 33.3305 64.7117 34.0125 60.8821 34.4908C58.4288 34.7623 56.4631 34.8179 54.1826 34.7685C51.6985 34.6173 49.2144 34.4075 46.7426 34.0989C44.9188 33.8458 43.1259 33.3922 41.2898 33.2379C40.1264 33.1978 38.997 33.1484 37.7472 33.7656C37.4417 34.0711 37.8151 34.6173 38.2163 34.426C40.3023 33.6514 43.453 34.5587 46.1624 35.0061C50.0599 35.5215 53.9975 35.9473 57.932 35.7344C61.1043 35.6326 64.221 34.9969 67.3748 34.6821C70.1336 34.3951 72.4233 34.3859 75.3117 34.6019C78.7771 34.9537 81.5328 35.6387 84.807 36.7527C86.6153 37.3576 88.3835 38.1043 90.2443 38.5487C91.3984 38.8141 92.5834 38.8943 93.7622 38.99C95.049 39.0887 96.3389 39.0301 97.6226 38.8943C97.996 38.8172 98.4589 38.8943 98.715 38.5919C98.894 38.345 98.786 37.9655 98.4928 37.8575Z" fill="#B6A672" stroke="#E6CF60" stroke-width="0.308589" stroke-miterlimit="10"/>
<path d="M127.111 34.8365C126.821 34.7501 126.516 34.9198 126.216 34.9322C125.386 35.034 125.177 35.0525 124.529 35.0278C122.754 34.9538 121.421 33.9879 119.789 33.0991C118.715 32.4974 117.727 31.763 116.666 31.1427C114.823 30.0904 112.885 29.1893 110.867 28.5259C104.751 26.6928 98.2831 27.56 92.1298 28.7573C87.1523 29.5905 81.1687 30.146 76.6294 30.3527C73.0714 30.4237 69.9639 30.0534 67.8439 28.0414C67.2637 27.4952 66.7669 26.8595 66.1467 26.3596C65.6066 25.9646 64.9895 25.6868 64.3661 25.4492C63.0916 24.9709 61.703 24.8259 60.3606 25.0728C59.3608 25.2394 58.4196 25.6498 57.4167 25.7856C56.4292 25.943 55.7195 25.7856 54.5777 25.7516C54.1858 25.8473 54.2166 26.4861 54.6425 26.5169C55.7873 26.6589 56.9692 26.7638 58.1079 26.5324C60.6476 25.7887 62.3294 25.4616 64.5636 26.5231C65.6776 26.9243 66.2485 27.8624 67.3625 28.9394C70.2601 31.5315 74.3952 31.4575 78.0551 31.334C82.2426 31.0223 86.4364 30.6736 90.59 30.041C94.0215 29.5319 97.419 28.7388 100.891 28.5536C103.597 28.3469 107.343 28.5999 109.843 29.2696C111.515 29.7201 113.117 30.4144 114.663 31.189C116.135 31.8679 117.909 33.201 119.647 34.1761C120.81 34.8211 121.961 35.537 123.26 35.8672C123.995 36.0708 124.769 36.0431 125.522 35.9937C126.025 35.9505 126.525 35.8703 127.013 35.7376C127.195 35.7098 127.361 35.5678 127.395 35.3827C127.46 35.1636 127.321 34.9198 127.111 34.8365Z" fill="#B6A672" stroke="#E6CF60" stroke-width="0.308589" stroke-miterlimit="10"/>
<path opacity="0.5608" d="M4.83887 58.317L28.8409 62.773L142.972 30.9976L63.5602 23.8044L4.83887 58.317Z" fill="url(#paint6_linear)"/>
<path d="M4.68738 51.3489L4.84784 58.3323L28.8437 62.7791L28.1185 55.4871L4.68738 51.3489Z" fill="url(#paint7_linear)"/>
<path d="M143.074 24.5017L143.161 30.9759L28.8409 62.7945L28.1034 55.4933L143.074 24.5017Z" fill="url(#paint8_linear)"/>
<path d="M63.4119 17L143.052 24.508L143.117 30.9914L63.5507 23.8105L63.4119 17Z" fill="url(#paint9_linear)"/>
<path d="M4.67859 51.3496L4.86066 58.3145L63.548 23.8174L63.4184 17.013L4.67859 51.3496Z" fill="url(#paint10_linear)"/>
<path opacity="0.5608" d="M4.66907 51.3431L28.1002 55.4906L143.049 24.5175L63.4058 17.0157L4.66907 51.3431Z" fill="url(#paint11_linear)"/>
<defs>
<linearGradient id="paint0_linear" x1="4.81386" y1="100.889" x2="146.9" y2="82.4608" gradientUnits="userSpaceOnUse">
<stop stop-color="#005FB5"/>
<stop offset="1" stop-color="#035EB0"/>
</linearGradient>
<linearGradient id="paint1_linear" x1="48.3362" y1="96.7539" x2="113.785" y2="71.1437" gradientUnits="userSpaceOnUse">
<stop stop-color="#63CEE2"/>
<stop offset="0.1993" stop-color="#4BB8CF"/>
<stop offset="0.5415" stop-color="#2797B3"/>
<stop offset="0.8207" stop-color="#1182A2"/>
<stop offset="1" stop-color="#097B9C"/>
</linearGradient>
<linearGradient id="paint2_linear" x1="79.8838" y1="101.658" x2="140.73" y2="71.9806" gradientUnits="userSpaceOnUse">
<stop stop-color="#63CEE2"/>
<stop offset="0.235" stop-color="#4AB8CC"/>
<stop offset="0.747" stop-color="#188DA2"/>
<stop offset="1" stop-color="#057C91"/>
</linearGradient>
<linearGradient id="paint3_linear" x1="23.0637" y1="92.5103" x2="90.0407" y2="64.4921" gradientUnits="userSpaceOnUse">
<stop stop-color="#63CEE2"/>
<stop offset="0.1816" stop-color="#59C5DB"/>
<stop offset="0.49" stop-color="#3EADC8"/>
<stop offset="0.8856" stop-color="#1386AA"/>
<stop offset="1" stop-color="#0579A0"/>
</linearGradient>
<linearGradient id="paint4_linear" x1="15.7932" y1="78.1269" x2="115.026" y2="78.1269" gradientUnits="userSpaceOnUse">
<stop stop-color="#17889D"/>
<stop offset="1" stop-color="#6BD7E3"/>
</linearGradient>
<linearGradient id="paint5_linear" x1="36.4689" y1="64.2405" x2="135.702" y2="64.2405" gradientUnits="userSpaceOnUse">
<stop stop-color="#1E8EA4"/>
<stop offset="1" stop-color="#5EC9DF"/>
</linearGradient>
<linearGradient id="paint6_linear" x1="4.83887" y1="43.29" x2="142.971" y2="43.29" gradientUnits="userSpaceOnUse">
<stop stop-color="#025DB3" stop-opacity="0.4706"/>
<stop offset="1" stop-color="#0061B5" stop-opacity="0.4392"/>
</linearGradient>
<linearGradient id="paint7_linear" x1="4.68682" y1="57.0642" x2="28.8446" y2="57.0642" gradientUnits="userSpaceOnUse">
<stop stop-color="#025DB3" stop-opacity="0.4706"/>
<stop offset="1" stop-color="#0061B5" stop-opacity="0.4392"/>
</linearGradient>
<linearGradient id="paint8_linear" x1="28.104" y1="43.649" x2="143.159" y2="43.649" gradientUnits="userSpaceOnUse">
<stop stop-color="#025DB3" stop-opacity="0.4706"/>
<stop offset="1" stop-color="#0061B5" stop-opacity="0.4392"/>
</linearGradient>
<linearGradient id="paint9_linear" x1="63.4106" y1="23.9959" x2="143.118" y2="23.9959" gradientUnits="userSpaceOnUse">
<stop stop-color="#025DB3" stop-opacity="0.4706"/>
<stop offset="1" stop-color="#0061B5" stop-opacity="0.4392"/>
</linearGradient>
<linearGradient id="paint10_linear" x1="4.67874" y1="37.6633" x2="63.5469" y2="37.6633" gradientUnits="userSpaceOnUse">
<stop stop-color="#025DB3" stop-opacity="0.4706"/>
<stop offset="1" stop-color="#0061B5" stop-opacity="0.4392"/>
</linearGradient>
<linearGradient id="paint11_linear" x1="4.66907" y1="36.2544" x2="143.048" y2="36.2544" gradientUnits="userSpaceOnUse">
<stop stop-color="#025DB3" stop-opacity="0.4706"/>
<stop offset="1" stop-color="#0061B5" stop-opacity="0.4392"/>
</linearGradient>
</defs>
</svg>
