<svg width="946" height="258" viewBox="0 0 946 258" fill="none" xmlns="http://www.w3.org/2000/svg">
<path d="M2.00977 91.5891C2.00977 91.5891 74.3778 72.2733 107.241 61.3728C140.103 50.4722 199.842 41.2285 250.316 41.2285C300.79 41.2285 392.561 67.2591 457.369 69.788C382.422 73.9738 295.764 140.336 215.793 135.279C135.821 130.221 81.9817 94.9901 2.00977 91.5891Z" fill="#FFD3CA"/>
<path d="M109.207 114.219C108.552 114.219 107.94 113.957 107.503 113.39C106.76 112.475 106.891 111.123 107.809 110.338C110.038 108.376 138.792 77.9415 167.373 47.0275C168.203 46.1554 169.558 46.0682 170.475 46.8967C171.349 47.7251 171.437 49.0768 170.606 49.9924C158.545 63.0295 112.791 111.995 110.562 113.739C110.169 114.044 109.688 114.219 109.207 114.219Z" fill="#ED7C7C"/>
<path d="M305.132 120.264C304.476 120.264 303.864 120.002 303.427 119.435L240.483 43.2343C239.741 42.3186 239.872 40.9233 240.789 40.1821C241.707 39.4409 243.105 39.5717 243.848 40.4873L306.792 116.688C307.535 117.604 307.404 118.999 306.486 119.74C306.093 120.089 305.612 120.264 305.132 120.264Z" fill="#ED7C7C"/>
<path d="M194.599 134.581C193.987 134.581 193.375 134.32 192.982 133.84C192.195 132.924 192.282 131.573 193.156 130.744L292.968 44.2372C293.886 43.4524 295.24 43.5396 296.071 44.4116C296.857 45.3273 296.77 46.6789 295.896 47.5074L196.084 134.014C195.647 134.407 195.123 134.581 194.599 134.581Z" fill="#ED7C7C"/>
<path d="M132.674 120.977C132.019 120.977 131.407 120.716 130.97 120.149L88.0561 68.8289C87.3132 67.8697 87.488 66.518 88.4057 65.7768C89.3672 65.0355 90.7219 65.21 91.4648 66.1256L134.379 117.445C135.122 118.405 134.947 119.756 134.029 120.498C133.636 120.803 133.155 120.977 132.674 120.977Z" fill="#ED7C7C"/>
<path d="M47.6333 98.2604C47.3711 98.2604 47.0652 98.2168 46.803 98.086C45.6668 97.65 45.1423 96.3419 45.623 95.2518L54.2321 76.4157C54.6691 75.282 56.1549 74.6716 57.2474 75.1512C58.3836 75.5873 58.8643 77.0697 58.3836 78.1597L49.6435 96.9087C49.2939 97.7372 48.5073 98.2604 47.6333 98.2604Z" fill="#ED7C7C"/>
<path d="M376.48 92.374C375.999 92.374 375.518 92.1996 375.081 91.8944L326.224 53.35C325.306 52.5652 325.175 51.2135 325.918 50.2979C326.705 49.3822 328.059 49.2514 328.977 49.9926L377.834 88.537C378.752 89.3219 378.883 90.6735 378.14 91.5892C377.747 92.1124 377.135 92.374 376.48 92.374Z" fill="#ED7C7C"/>
<path d="M169.339 130.308C168.421 130.308 167.547 129.698 167.241 128.782C166.892 127.648 167.503 126.427 168.64 126.035L379.538 59.0183C380.675 58.6695 381.898 59.28 382.291 60.4136C382.641 61.5473 382.029 62.7681 380.893 63.1606L169.994 130.177C169.776 130.264 169.557 130.308 169.339 130.308Z" fill="#ED7C7C"/>
<path d="M270.2 130.918C269.763 130.918 269.369 130.788 268.976 130.526L151.64 52.9139C150.635 52.2598 150.373 50.8646 151.072 49.9053C151.728 48.9025 153.126 48.6409 154.088 49.3385L271.423 126.951C272.428 127.605 272.691 129 271.991 129.959C271.598 130.57 270.899 130.918 270.2 130.918Z" fill="#ED7C7C"/>
<path d="M149.368 99.2195C150.242 103.711 156.578 111.908 169.732 111.908C174.845 111.908 182.58 107.94 183.979 98.8271C184.853 93.1152 183.105 83.3047 174.845 80.427C171.655 79.2933 164.051 76.5027 155.442 83.7843C151.116 87.4033 148.363 94.2489 149.368 99.2195Z" fill="#5A5999"/>
<path d="M149.848 99.1325C150.722 103.493 156.841 111.472 169.645 111.472C174.627 111.472 182.143 107.635 183.498 98.7837C184.328 93.2462 182.668 83.6973 174.627 80.9068C171.524 79.8167 164.139 77.1134 155.748 84.1333C151.596 87.6215 148.887 94.2927 149.848 99.1325Z" fill="#949BD9" stroke="#5C629B" stroke-width="0.74498" stroke-miterlimit="10" stroke-linecap="round" stroke-linejoin="round"/>
<path d="M160.468 97.1703C164.75 101.836 170.912 100.702 173.403 96.0367C175.894 91.3276 175.588 87.5778 169.12 85.9209C162.653 84.2204 156.447 92.8101 160.468 97.1703Z" fill="#406296" stroke="#2D3368" stroke-width="0.74498" stroke-miterlimit="10" stroke-linecap="round" stroke-linejoin="round"/>
<path opacity="0.5" d="M160.555 96.0801C163.789 99.5683 168.378 98.7399 170.257 95.2081C172.136 91.7199 171.918 88.8858 167.067 87.6213C162.216 86.4004 157.584 92.81 160.555 96.0801Z" fill="#6277C2"/>
<path d="M2.00977 91.5891C2.00977 91.5891 74.3778 72.2733 107.241 61.3728C140.103 50.4722 199.842 41.2285 250.316 41.2285C300.79 41.2285 392.561 67.2591 457.369 69.788C382.422 73.9738 295.764 140.336 215.793 135.279C135.821 130.221 81.9817 94.9901 2.00977 91.5891Z" stroke="#B53E3E" stroke-width="3.29812" stroke-linecap="round" stroke-linejoin="round"/>
</svg>
