<svg width="946" height="258" viewBox="0 0 946 258" fill="none" xmlns="http://www.w3.org/2000/svg">
<g clip-path="url(#clip0)">
<path d="M62.541 184.244C85.2653 183.633 154.356 138.33 242.937 137.022C303.593 136.107 376.485 159.826 448.766 168.808C370.411 175.872 292.711 216.553 232.973 215.768C173.234 214.983 98.6376 193.662 62.541 184.244Z" fill="#FFD3CA"/>
<path d="M165.106 209.925C164.407 209.925 163.751 209.576 163.402 208.922L134.166 159.739C133.642 158.78 133.948 157.603 134.909 157.079C135.871 156.556 137.051 156.861 137.575 157.821L166.811 207.004C167.335 207.963 167.029 209.14 166.068 209.664C165.762 209.838 165.456 209.925 165.106 209.925Z" fill="#ED7C7C"/>
<path d="M103.532 196.321C102.964 196.321 102.44 196.103 102.046 195.624C101.347 194.795 101.435 193.575 102.265 192.877L151.078 151.455C151.909 150.757 153.132 150.844 153.832 151.673C154.531 152.501 154.443 153.722 153.613 154.42L104.8 195.842C104.45 196.147 104.013 196.321 103.532 196.321Z" fill="#ED7C7C"/>
<path d="M268.545 213.632C267.846 213.632 267.147 213.239 266.797 212.585L227.249 137.502C226.768 136.543 227.117 135.366 228.079 134.842C229.04 134.363 230.22 134.711 230.745 135.671L270.293 210.754C270.774 211.713 270.424 212.89 269.463 213.414C269.157 213.544 268.851 213.632 268.545 213.632Z" fill="#ED7C7C"/>
<path d="M141.377 205.303C140.634 205.303 139.891 204.867 139.585 204.126C139.148 203.123 139.629 201.99 140.59 201.554L288.386 138.723C289.391 138.287 290.527 138.766 290.964 139.726C291.401 140.728 290.92 141.862 289.959 142.298L142.163 205.129C141.901 205.26 141.639 205.303 141.377 205.303Z" fill="#ED7C7C"/>
<path d="M338.177 194.951C337.347 194.951 336.604 194.427 336.298 193.643L319.326 146.528C318.976 145.481 319.544 144.391 320.549 144.042C321.598 143.693 322.691 144.26 323.04 145.263L340.013 192.378C340.362 193.424 339.794 194.515 338.789 194.863C338.614 194.907 338.396 194.951 338.177 194.951Z" fill="#ED7C7C"/>
<path d="M373.293 184.659C373.162 184.659 373.031 184.659 372.9 184.615C371.851 184.397 371.152 183.351 371.371 182.304L377.009 156.992C377.228 155.946 378.276 155.248 379.325 155.466C380.374 155.684 381.073 156.731 380.855 157.777L375.216 183.089C375.041 184.005 374.211 184.659 373.293 184.659Z" fill="#ED7C7C"/>
<path d="M208.544 215.899C207.758 215.899 207.058 215.463 206.752 214.722C206.315 213.719 206.796 212.585 207.801 212.149L355.509 150.888C356.514 150.452 357.65 150.932 358.087 151.934C358.524 152.937 358.044 154.071 357.039 154.507L209.331 215.768C209.069 215.855 208.806 215.899 208.544 215.899Z" fill="#ED7C7C"/>
<path d="M190.977 213.37C190.89 213.37 190.846 213.37 190.758 213.37C189.666 213.239 188.923 212.28 189.01 211.19L196.439 141.645C196.57 140.555 197.532 139.77 198.624 139.9C199.717 140.031 200.46 140.991 200.372 142.081L192.943 211.626C192.812 212.629 191.982 213.37 190.977 213.37Z" fill="#ED7C7C"/>
<path d="M207.058 185.116C207.932 189.607 214.269 197.804 227.423 197.804C232.536 197.804 240.271 193.836 241.669 184.723C242.543 179.011 240.795 169.201 232.536 166.323C229.346 165.189 221.742 162.399 213.133 169.68C208.807 173.299 206.053 180.145 207.058 185.116Z" fill="#5A5999"/>
<path d="M207.539 185.028C208.413 189.388 214.531 197.367 227.335 197.367C232.317 197.367 239.834 193.53 241.189 184.679C242.019 179.142 240.358 169.593 232.317 166.802C229.215 165.712 221.829 163.009 213.439 170.029C209.287 173.517 206.578 180.188 207.539 185.028Z" fill="#949BD9" stroke="#5C629B" stroke-width="0.74498" stroke-miterlimit="10" stroke-linecap="round" stroke-linejoin="round"/>
<path d="M218.158 183.066C222.441 187.732 228.602 186.598 231.093 181.933C233.584 177.224 233.278 173.474 226.811 171.817C220.343 170.116 214.138 178.706 218.158 183.066Z" fill="#406296" stroke="#2D3368" stroke-width="0.74498" stroke-miterlimit="10" stroke-linecap="round" stroke-linejoin="round"/>
<path opacity="0.5" d="M218.246 181.976C221.48 185.464 226.068 184.636 227.947 181.104C229.826 177.616 229.608 174.782 224.757 173.517C219.906 172.296 215.274 178.706 218.246 181.976Z" fill="#6277C2"/>
<path d="M62.541 184.244C85.2653 183.633 154.356 138.33 242.937 137.022C303.593 136.107 376.485 159.826 448.766 168.808C370.411 175.872 292.711 216.553 232.973 215.768C173.234 214.983 98.6376 193.662 62.541 184.244Z" stroke="#B53E3E" stroke-width="3.29812" stroke-linecap="round" stroke-linejoin="round"/>
</g>
<defs>
<clipPath id="clip0">
<rect width="946" height="258" fill="white"/>
</clipPath>
</defs>
</svg>
