<svg width="946" height="258" viewBox="0 0 946 258" fill="none" xmlns="http://www.w3.org/2000/svg">
<path d="M504.13 166.236C575.274 147.095 667.395 109.466 728.008 109.117C788.664 108.768 836.428 136.586 908.84 144.13C830.573 151.673 766.245 198.676 706.507 198.676C646.768 198.676 570.511 164.884 504.13 166.236Z" fill="#FFD3CA"/>
<path d="M729.887 197.63C729.406 197.63 728.882 197.412 728.532 197.02L662.37 119.887C661.758 119.146 661.846 118.056 662.588 117.445C663.331 116.835 664.424 116.922 665.036 117.663L731.242 194.796C731.854 195.537 731.766 196.627 731.023 197.238C730.717 197.499 730.324 197.63 729.887 197.63Z" fill="#ED7C7C"/>
<path d="M649.347 192.441C648.954 192.441 648.517 192.31 648.211 192.005C647.468 191.351 647.424 190.261 648.036 189.563L719.399 108.463C720.054 107.722 721.147 107.678 721.846 108.289C722.589 108.943 722.633 110.033 722.021 110.73L650.658 191.831C650.352 192.267 649.872 192.441 649.347 192.441Z" fill="#ED7C7C"/>
<path d="M621.466 186.337C620.549 186.337 619.762 185.596 619.718 184.68L617.402 130.526C617.359 129.567 618.101 128.738 619.063 128.695C620.024 128.651 620.855 129.392 620.898 130.352L623.215 184.506C623.258 185.465 622.515 186.293 621.554 186.337C621.554 186.337 621.51 186.337 621.466 186.337Z" fill="#ED7C7C"/>
<path d="M767.557 187.95C767.426 187.95 767.338 187.95 767.207 187.907L570.249 147.618C569.287 147.444 568.676 146.528 568.894 145.569C569.069 144.609 569.987 143.999 570.948 144.217L767.906 184.506C768.868 184.68 769.479 185.596 769.261 186.555C769.13 187.383 768.387 187.95 767.557 187.95Z" fill="#ED7C7C"/>
<path d="M812.087 171.294C811.256 171.294 810.557 170.727 810.382 169.899L799.501 120.977C799.327 120.018 799.895 119.102 800.856 118.928C801.817 118.753 802.735 119.32 802.91 120.28L813.791 169.201C813.966 170.161 813.398 171.076 812.436 171.251C812.349 171.294 812.218 171.294 812.087 171.294Z" fill="#ED7C7C"/>
<path d="M751.563 192.485C751.432 192.485 751.257 192.485 751.126 192.441C750.208 192.18 749.64 191.22 749.902 190.305L770.834 113.434C771.097 112.518 772.058 111.951 772.976 112.213C773.893 112.475 774.462 113.434 774.199 114.349L753.267 191.22C753.049 192.005 752.349 192.485 751.563 192.485Z" fill="#ED7C7C"/>
<path d="M799.632 176.221C799.414 176.221 799.195 176.178 798.977 176.09C798.103 175.698 797.666 174.695 798.015 173.823L818.03 124.64C818.423 123.768 819.428 123.332 820.302 123.68C821.176 124.073 821.613 125.076 821.264 125.948L801.249 175.131C800.987 175.829 800.332 176.221 799.632 176.221Z" fill="#ED7C7C"/>
<path d="M714.985 155.031C715.859 159.522 722.195 167.719 735.349 167.719C740.462 167.719 748.197 163.751 749.595 154.638C750.469 148.926 748.721 139.116 740.462 136.238C737.272 135.104 729.668 132.314 721.059 139.595C716.733 143.214 713.98 150.06 714.985 155.031Z" fill="#5A5999"/>
<path d="M715.465 154.944C716.339 159.304 722.457 167.283 735.262 167.283C740.243 167.283 747.76 163.446 749.115 154.595C749.945 149.057 748.284 139.508 740.243 136.718C737.141 135.628 729.755 132.924 721.365 139.944C717.213 143.433 714.504 150.104 715.465 154.944Z" fill="#949BD9" stroke="#5C629B" stroke-width="0.74498" stroke-miterlimit="10" stroke-linecap="round" stroke-linejoin="round"/>
<path d="M726.085 152.981C730.367 157.647 736.529 156.513 739.02 151.848C741.511 147.139 741.205 143.389 734.737 141.732C728.27 140.031 722.064 148.621 726.085 152.981Z" fill="#406296" stroke="#2D3368" stroke-width="0.74498" stroke-miterlimit="10" stroke-linecap="round" stroke-linejoin="round"/>
<path opacity="0.5" d="M726.172 151.891C729.406 155.379 733.994 154.551 735.873 151.019C737.753 147.531 737.534 144.697 732.683 143.432C727.833 142.211 723.2 148.621 726.172 151.891Z" fill="#6277C2"/>
<path d="M504.13 166.236C575.274 147.095 667.395 109.466 728.008 109.117C788.664 108.768 836.428 136.586 908.84 144.13C830.573 151.673 766.245 198.676 706.507 198.676C646.768 198.676 570.511 164.884 504.13 166.236Z" stroke="#B53E3E" stroke-width="3.29812" stroke-linecap="round" stroke-linejoin="round"/>
</svg>
