<svg width="1240" height="1339" viewBox="0 0 1240 1339" fill="none" xmlns="http://www.w3.org/2000/svg">
<path d="M208.314 743.153C255.651 766.822 340.386 760.943 376.837 755.045C376.837 738.222 359.375 696.512 289.529 664.257C202.221 623.939 208.314 549.975 222.816 540.983C237.318 531.991 282.278 527.35 313.024 549.975C343.77 572.599 317.955 597.544 322.016 618.428C325.264 635.136 438.039 692.876 494.02 719.658C502.238 709.797 517.34 674.293 512.003 611.177C505.332 532.281 431.077 449.615 398.591 430.761C366.104 411.907 292.14 407.266 234.998 407.266C177.857 407.266 101.862 484.132 82.1385 549.975C62.4146 615.818 149.142 713.567 208.314 743.153Z" fill="url(#paint0_radial_4264_275414)" stroke="#7EA3DC" stroke-width="8"/>
<path d="M432.818 899.784C440.476 803.485 417.445 776.8 372.776 756.206C426.533 763.457 535.789 779.7 542.75 786.662C551.452 795.363 554.932 855.115 554.932 872.809C514.556 913.649 456.699 907.809 432.818 899.784Z" fill="url(#paint1_linear_4264_275414)" stroke="#7EA3DC" stroke-width="8"/>
<g filter="url(#filter0_df_4264_275414)">
<path d="M489.228 728.007C558.048 776.021 565.395 842.707 546.056 887.553C519.882 887.553 443.026 936.623 443.026 896.056C443.026 858.153 440.525 785.524 410.517 751.014L489.228 728.007Z" fill="#D8E7FF"/>
</g>
<g filter="url(#filter1_df_4264_275414)">
<path d="M367.004 439.924C518.429 503.019 509.378 669.658 490.04 714.504C463.865 714.504 301.713 653.383 327.993 622.478C390.511 548.957 228.205 466.346 194.454 561.46C183.451 592.469 201.456 640.983 240.968 666.991C279.082 692.08 293.983 650.986 310.988 650.986C336.511 650.986 436.024 728.176 413.017 737.011C419.352 735.178 366.103 754.015 264.974 742.012C213.852 735.945 172.76 703.858 142.939 666.991C94.7974 607.475 66.1906 518.504 154.041 454.023C205.957 415.917 306.987 414.916 367.004 439.924Z" fill="#D8E7FF"/>
</g>
<path d="M518.095 634.381C636.903 644.591 780.156 541.303 825.888 498.471C825.888 492.438 710.79 476.687 664.284 459.477C656.936 467.115 631.391 485.607 587.999 498.471C533.758 514.551 499.241 504.146 485.028 499.505C470.816 494.864 455.153 476.3 450.802 447.004C446.451 417.709 471.396 403.496 487.639 409.297C503.882 415.098 477.777 491.093 481.548 496.024C497.501 509.077 569.795 505.432 580.818 498.471C604.824 450.927 598.731 350.705 584.808 323.73C570.885 296.754 505.913 267.169 428.178 273.55C350.442 279.931 316.795 362.597 320.276 435.982C323.757 509.367 369.586 621.619 518.095 634.381Z" fill="url(#paint2_radial_4264_275414)"/>
<path d="M518.095 634.381C636.903 644.591 780.156 541.303 825.888 498.471C825.888 492.438 710.79 476.687 664.284 459.477C656.936 467.115 631.391 485.607 587.999 498.471C533.758 514.551 499.241 504.146 485.028 499.505C470.816 494.864 455.153 476.3 450.802 447.004C446.451 417.709 471.396 403.496 487.639 409.297C503.882 415.098 477.777 491.093 481.548 496.024C497.501 509.077 569.795 505.432 580.818 498.471C604.824 450.927 598.731 350.705 584.808 323.73C570.885 296.754 505.913 267.169 428.178 273.55C350.442 279.931 316.795 362.597 320.276 435.982C323.757 509.367 369.586 621.619 518.095 634.381Z" fill="url(#paint3_radial_4264_275414)"/>
<path d="M518.095 634.381C636.903 644.591 780.156 541.303 825.888 498.471C825.888 492.438 710.79 476.687 664.284 459.477C656.936 467.115 631.391 485.607 587.999 498.471C533.758 514.551 499.241 504.146 485.028 499.505C470.816 494.864 455.153 476.3 450.802 447.004C446.451 417.709 471.396 403.496 487.639 409.297C503.882 415.098 477.777 491.093 481.548 496.024C497.501 509.077 569.795 505.432 580.818 498.471C604.824 450.927 598.731 350.705 584.808 323.73C570.885 296.754 505.913 267.169 428.178 273.55C350.442 279.931 316.795 362.597 320.276 435.982C323.757 509.367 369.586 621.619 518.095 634.381Z" stroke="#7EA3DC" stroke-width="8"/>
<path d="M400.912 1331.39C597.222 1306.56 603.758 1078.07 582.487 963.887C571.078 972.299 545.991 989.604 526.506 1001.59C507.652 1013.2 464.531 1026.93 444.42 1030.31C445.097 1044.91 446.334 1082.64 444.71 1103.98C442.68 1130.67 414.254 1181.14 357.403 1185.78C300.551 1190.42 276.767 1153.29 272.126 1097.6C267.485 1041.91 319.122 1035.82 434.275 1030.31C526.398 1025.9 647.46 908.873 694.449 851.635C670.568 818.181 609.637 767.054 556.962 830.17C491.119 909.066 435.428 903.555 305.482 903.555C199.205 913.997 121.933 990.583 121.933 1076.61C121.933 1118.09 121.933 1185.78 214.114 1269.61C257.699 1310.59 313.357 1342.46 400.912 1331.39Z" fill="url(#paint4_radial_4264_275414)" stroke="#7EA3DC" stroke-width="8"/>
<g filter="url(#filter2_df_4264_275414)">
<path d="M665.09 858.545L565.061 836.538C471.534 944.57 431.417 919.493 363.003 915.561C275.978 910.56 250.97 930.038 176.949 999.585C102.928 1069.13 141.203 1112.64 146.94 1156.63C187.452 1241.66 239.595 1309.4 372.005 1313.68C619.577 1321.68 579.565 968.076 565.061 989.583C550.557 1011.09 463.531 1029.59 463.531 1036.1C477.035 1157.13 419.019 1204.14 357.001 1204.14C184.951 1190.14 264.974 1029.59 289.982 1029.59C481.637 1039.6 619.911 919.729 665.09 858.545Z" fill="#D7E6FE"/>
</g>
<path d="M719.721 306.717C726.683 376.563 785.661 396.538 814.28 397.795C932.711 401.228 1017.34 442.111 1070.27 496.051L940.745 544.671C900.324 520.669 846.344 505.703 785.183 499.832C691.977 490.884 626.323 462.188 590.936 330.502C555.549 198.816 627.483 123.691 732.194 113.539C836.905 103.387 879.833 204.907 889.985 241.164C900.137 277.421 877.661 399.245 872.15 397.795C866.639 396.345 856.99 397.332 813.192 395.301C778.153 393.677 756.655 376.524 751.047 367.919C755.205 358.251 764.738 331.082 769.611 299.756C775.702 260.598 711.02 219.41 719.721 306.717Z" fill="url(#paint5_radial_4264_275414)" stroke="#7EA3DC" stroke-width="8"/>
<g filter="url(#filter3_df_4264_275414)">
<path d="M547.745 325.999C616.565 374.013 586.09 447.092 566.751 491.939C540.577 491.939 472.567 505.172 499.042 474.434C558.059 405.914 456.53 335.393 434.023 400.912C401.235 496.363 487.34 532.45 539.554 532.45C586.378 532.45 667.709 458.687 685.096 485.437C691.598 495.44 806.631 510.611 783.624 519.447C789.96 517.613 627.168 641.39 486.728 616.583C311.177 585.574 335.684 357.508 367.693 325.999C399.703 294.49 461.721 265.982 547.745 325.999Z" fill="#D8E7FF"/>
</g>
<path d="M362.913 625.68C660.86 779.991 869.74 791.69 936.937 778.25C980.156 769.607 1024.01 749.577 1011.94 648.984C1010.7 638.622 1008.27 628.785 1004.75 619.476L1121.47 580.964C1129.84 603.576 1151.33 711.685 1113.97 795.526C1091.47 846.041 1002.94 911.06 860.072 890.792C717.205 870.525 439.184 844.067 192.36 660.197C-85.875 452.927 22.6557 261.614 92.6759 199.354C162.696 137.094 235.868 170.289 303.741 170.289C358.04 170.289 381.67 74.3772 386.698 26.4211C431.27 -17.6677 515.484 26.4209 515.484 56.8771C515.484 68.5673 511.515 108.337 482.289 153.341C435.373 225.585 408.768 256.491 362.913 264.873C307.239 275.05 278.23 255.37 220.213 271.375C161.492 287.574 -9.52082 432.792 362.913 625.68Z" fill="url(#paint6_radial_4264_275414)" stroke="#7EA3DC" stroke-width="8"/>
<g filter="url(#filter4_f_4264_275414)">
<path d="M579.566 969.077C548.557 1003.09 475.869 1028.93 447.027 1033.6C459.057 1054.88 584.459 990.437 584.067 988.082C583.066 982.08 582.9 983.914 579.566 969.077Z" fill="url(#paint7_radial_4264_275414)"/>
</g>
<g filter="url(#filter5_f_4264_275414)">
<path d="M906.584 536.36C943.304 508.612 1025.19 493.886 1054.7 485.383C1046.78 462.256 903.205 519.06 903.159 521.447C903.042 527.531 906.027 521.162 906.584 536.36Z" fill="url(#paint8_radial_4264_275414)"/>
</g>
<path d="M1197.7 471.659C1262.19 501.728 1215.39 587.102 1182.33 587.102C1163.23 587.102 1039.4 617.873 934.618 665.128C857.961 699.696 797.376 748.283 768.415 770.708L659.353 746.054L634.988 738.222C639.532 720.722 700.419 668.018 820.387 581.464C940.355 494.911 1114.84 470.499 1197.7 471.659Z" fill="url(#paint9_linear_4264_275414)" stroke="#7EA3DC" stroke-width="8"/>
<g filter="url(#filter6_df_4264_275414)">
<path d="M763.619 758.016C757.217 757.215 689.431 742.178 656.088 732.508C651.586 721.505 635.782 748.013 782.624 627.978C929.467 507.943 1091.88 482.603 1154.73 484.937C1170.57 480.935 1204.45 480.735 1213.25 511.944C1224.25 550.956 1180.24 576.463 1163.73 576.463C953.674 592.468 771.621 759.016 763.619 758.016Z" fill="#D8E7FF"/>
</g>
<g filter="url(#filter7_df_4264_275414)">
<path d="M840.641 171.346C902.159 228.862 873.984 341.562 854.645 386.408C828.471 386.408 746.842 383.803 773.122 352.898C835.64 279.377 730.608 157.341 706.601 255.37C682.594 353.398 741.111 413.415 846.642 415.416C952.172 417.416 1055.2 476.434 1023.69 481.435C998.665 485.408 946.916 503.842 923.661 512.753C923.538 512.821 923.371 512.884 923.164 512.944C923.328 512.881 923.494 512.817 923.661 512.753C927.288 510.77 892.954 505.429 757.116 481.435C581.566 450.426 592.432 237.327 635.581 179.347C667.591 136.336 792.497 126.333 840.641 171.346Z" fill="#D8E7FF"/>
</g>
<g filter="url(#filter8_df_4264_275414)">
<path d="M55.914 261.372C87.9232 229.863 119.432 143.838 264.474 185.35C292.422 193.349 336.237 186.039 360.502 156.342C394.327 114.944 411.826 49.9137 413.56 30.596C406.028 30.2239 403.324 30.3052 409.516 30.3052C412.817 22.6511 414.173 23.7685 413.56 30.596C437.863 31.7965 512.426 37.7167 500.543 66.3157C409.516 285.379 356.001 255.87 235.466 250.369C177.281 264.731 140.452 306.191 130.936 333.893C98.1473 429.344 167.44 526.175 211.959 553.457C315.763 617.069 407.43 679.998 494.041 716.004C604.739 754.181 845.142 825.735 921.164 806.53C958.446 797.111 990.571 782.685 1006.69 757.515C1031.65 718.53 1028.34 664.965 1024.69 650.985C1018.69 627.978 1120.72 633.98 1120.72 633.98C1129.72 708.168 1114.72 856.544 921.164 875.049C872.65 875.049 646.085 864.546 367.004 747.012C302.71 714.673 237.964 668.545 175.949 619.976C113.047 570.712 52.7725 514.408 33.9077 448.426C10.6807 367.187 38.2507 278.759 55.914 261.372Z" fill="#D8E7FF"/>
</g>
<defs>
<filter id="filter0_df_4264_275414" x="385.509" y="703" width="194.815" height="234.125" filterUnits="userSpaceOnUse" color-interpolation-filters="sRGB">
<feFlood flood-opacity="0" result="BackgroundImageFix"/>
<feColorMatrix in="SourceAlpha" type="matrix" values="0 0 0 0 0 0 0 0 0 0 0 0 0 0 0 0 0 0 127 0" result="hardAlpha"/>
<feOffset/>
<feGaussianBlur stdDeviation="5"/>
<feComposite in2="hardAlpha" operator="out"/>
<feColorMatrix type="matrix" values="0 0 0 0 0 0 0 0 0 0 0 0 0 0 0 0 0 0 0.7 0"/>
<feBlend mode="normal" in2="BackgroundImageFix" result="effect1_dropShadow_4264_275414"/>
<feBlend mode="normal" in="SourceGraphic" in2="effect1_dropShadow_4264_275414" result="shape"/>
<feGaussianBlur stdDeviation="12.5" result="effect2_foregroundBlur_4264_275414"/>
</filter>
<filter id="filter1_df_4264_275414" x="72.2777" y="397.958" width="453.343" height="373.088" filterUnits="userSpaceOnUse" color-interpolation-filters="sRGB">
<feFlood flood-opacity="0" result="BackgroundImageFix"/>
<feColorMatrix in="SourceAlpha" type="matrix" values="0 0 0 0 0 0 0 0 0 0 0 0 0 0 0 0 0 0 127 0" result="hardAlpha"/>
<feOffset/>
<feGaussianBlur stdDeviation="5"/>
<feComposite in2="hardAlpha" operator="out"/>
<feColorMatrix type="matrix" values="0 0 0 0 0 0 0 0 0 0 0 0 0 0 0 0 0 0 0.7 0"/>
<feBlend mode="normal" in2="BackgroundImageFix" result="effect1_dropShadow_4264_275414"/>
<feBlend mode="normal" in="SourceGraphic" in2="effect1_dropShadow_4264_275414" result="shape"/>
<feGaussianBlur stdDeviation="12.5" result="effect2_foregroundBlur_4264_275414"/>
</filter>
<filter id="filter2_df_4264_275414" x="106.95" y="811.531" width="583.148" height="527.286" filterUnits="userSpaceOnUse" color-interpolation-filters="sRGB">
<feFlood flood-opacity="0" result="BackgroundImageFix"/>
<feColorMatrix in="SourceAlpha" type="matrix" values="0 0 0 0 0 0 0 0 0 0 0 0 0 0 0 0 0 0 127 0" result="hardAlpha"/>
<feOffset/>
<feGaussianBlur stdDeviation="7.5"/>
<feComposite in2="hardAlpha" operator="out"/>
<feColorMatrix type="matrix" values="0 0 0 0 0 0 0 0 0 0 0 0 0 0 0 0 0 0 0.7 0"/>
<feBlend mode="normal" in2="BackgroundImageFix" result="effect1_dropShadow_4264_275414"/>
<feBlend mode="normal" in="SourceGraphic" in2="effect1_dropShadow_4264_275414" result="shape"/>
<feGaussianBlur stdDeviation="12.5" result="effect2_foregroundBlur_4264_275414"/>
</filter>
<filter id="filter3_df_4264_275414" x="319.99" y="265.873" width="491.679" height="379.005" filterUnits="userSpaceOnUse" color-interpolation-filters="sRGB">
<feFlood flood-opacity="0" result="BackgroundImageFix"/>
<feColorMatrix in="SourceAlpha" type="matrix" values="0 0 0 0 0 0 0 0 0 0 0 0 0 0 0 0 0 0 127 0" result="hardAlpha"/>
<feOffset/>
<feGaussianBlur stdDeviation="5"/>
<feComposite in2="hardAlpha" operator="out"/>
<feColorMatrix type="matrix" values="0 0 0 0 0 0 0 0 0 0 0 0 0 0 0 0 0 0 0.7 0"/>
<feBlend mode="normal" in2="BackgroundImageFix" result="effect1_dropShadow_4264_275414"/>
<feBlend mode="normal" in="SourceGraphic" in2="effect1_dropShadow_4264_275414" result="shape"/>
<feGaussianBlur stdDeviation="12.5" result="effect2_foregroundBlur_4264_275414"/>
</filter>
<filter id="filter4_f_4264_275414" x="422.02" y="944.069" width="187.055" height="118.837" filterUnits="userSpaceOnUse" color-interpolation-filters="sRGB">
<feFlood flood-opacity="0" result="BackgroundImageFix"/>
<feBlend mode="normal" in="SourceGraphic" in2="BackgroundImageFix" result="shape"/>
<feGaussianBlur stdDeviation="12.5" result="effect1_foregroundBlur_4264_275414"/>
</filter>
<filter id="filter5_f_4264_275414" x="878.148" y="454.851" width="201.561" height="106.516" filterUnits="userSpaceOnUse" color-interpolation-filters="sRGB">
<feFlood flood-opacity="0" result="BackgroundImageFix"/>
<feBlend mode="normal" in="SourceGraphic" in2="BackgroundImageFix" result="shape"/>
<feGaussianBlur stdDeviation="12.5" result="effect1_foregroundBlur_4264_275414"/>
</filter>
<filter id="filter6_df_4264_275414" x="628.291" y="458.063" width="611.709" height="324.964" filterUnits="userSpaceOnUse" color-interpolation-filters="sRGB">
<feFlood flood-opacity="0" result="BackgroundImageFix"/>
<feColorMatrix in="SourceAlpha" type="matrix" values="0 0 0 0 0 0 0 0 0 0 0 0 0 0 0 0 0 0 127 0" result="hardAlpha"/>
<feOffset/>
<feGaussianBlur stdDeviation="7.5"/>
<feComposite in2="hardAlpha" operator="out"/>
<feColorMatrix type="matrix" values="0 0 0 0 0 0 0 0 0 0 0 0 0 0 0 0 0 0 0.7 0"/>
<feBlend mode="normal" in2="BackgroundImageFix" result="effect1_dropShadow_4264_275414"/>
<feBlend mode="normal" in="SourceGraphic" in2="effect1_dropShadow_4264_275414" result="shape"/>
<feGaussianBlur stdDeviation="12.5" result="effect2_foregroundBlur_4264_275414"/>
</filter>
<filter id="filter7_df_4264_275414" x="583.716" y="116.988" width="470.752" height="420.964" filterUnits="userSpaceOnUse" color-interpolation-filters="sRGB">
<feFlood flood-opacity="0" result="BackgroundImageFix"/>
<feColorMatrix in="SourceAlpha" type="matrix" values="0 0 0 0 0 0 0 0 0 0 0 0 0 0 0 0 0 0 127 0" result="hardAlpha"/>
<feOffset/>
<feGaussianBlur stdDeviation="5"/>
<feComposite in2="hardAlpha" operator="out"/>
<feColorMatrix type="matrix" values="0 0 0 0 0 0 0 0 0 0 0 0 0 0 0 0 0 0 0.7 0"/>
<feBlend mode="normal" in2="BackgroundImageFix" result="effect1_dropShadow_4264_275414"/>
<feBlend mode="normal" in="SourceGraphic" in2="effect1_dropShadow_4264_275414" result="shape"/>
<feGaussianBlur stdDeviation="12.5" result="effect2_foregroundBlur_4264_275414"/>
</filter>
<filter id="filter8_df_4264_275414" x="0" y="0" width="1147.68" height="900.057" filterUnits="userSpaceOnUse" color-interpolation-filters="sRGB">
<feFlood flood-opacity="0" result="BackgroundImageFix"/>
<feColorMatrix in="SourceAlpha" type="matrix" values="0 0 0 0 0 0 0 0 0 0 0 0 0 0 0 0 0 0 127 0" result="hardAlpha"/>
<feOffset/>
<feGaussianBlur stdDeviation="5"/>
<feComposite in2="hardAlpha" operator="out"/>
<feColorMatrix type="matrix" values="0 0 0 0 0 0 0 0 0 0 0 0 0 0 0 0 0 0 0.7 0"/>
<feBlend mode="normal" in2="BackgroundImageFix" result="effect1_dropShadow_4264_275414"/>
<feBlend mode="normal" in="SourceGraphic" in2="effect1_dropShadow_4264_275414" result="shape"/>
<feGaussianBlur stdDeviation="12.5" result="effect2_foregroundBlur_4264_275414"/>
</filter>
<radialGradient id="paint0_radial_4264_275414" cx="0" cy="0" r="1" gradientUnits="userSpaceOnUse" gradientTransform="translate(377.259 702.5) rotate(122.597) scale(87.2677 147.031)">
<stop stop-color="#CADDFF"/>
<stop offset="0.255208" stop-color="#95B3E6"/>
<stop offset="0.716706" stop-color="#A6BCDF"/>
<stop offset="1" stop-color="#CADDFF"/>
</radialGradient>
<linearGradient id="paint1_linear_4264_275414" x1="459.783" y1="773.52" x2="463.784" y2="920.063" gradientUnits="userSpaceOnUse">
<stop stop-color="#ABBFE0"/>
<stop offset="0.28201" stop-color="#CADDFF"/>
<stop offset="0.680012" stop-color="#CADDFF"/>
<stop offset="1" stop-color="#ABBFE0"/>
</linearGradient>
<radialGradient id="paint2_radial_4264_275414" cx="0" cy="0" r="1" gradientUnits="userSpaceOnUse" gradientTransform="translate(530.803 496.44) rotate(90) scale(20.0058 56.3197)">
<stop stop-color="#CADDFF"/>
<stop offset="1" stop-color="#91ACD7"/>
</radialGradient>
<radialGradient id="paint3_radial_4264_275414" cx="0" cy="0" r="1" gradientUnits="userSpaceOnUse" gradientTransform="translate(746.366 474.434) rotate(-78.6905) scale(38.2536 113.491)">
<stop stop-color="#9EB3D5"/>
<stop offset="1" stop-color="#CADDFF"/>
</radialGradient>
<radialGradient id="paint4_radial_4264_275414" cx="0" cy="0" r="1" gradientUnits="userSpaceOnUse" gradientTransform="translate(644.836 773.52) rotate(106.308) scale(119.335 457.209)">
<stop stop-color="#87A5D9"/>
<stop offset="1" stop-color="#CADEFF"/>
</radialGradient>
<radialGradient id="paint5_radial_4264_275414" cx="0" cy="0" r="1" gradientUnits="userSpaceOnUse" gradientTransform="translate(1011.94 589.967) rotate(58.8027) scale(120.32 153.041)">
<stop stop-color="#CADDFF"/>
<stop offset="0.308705" stop-color="#ABBDDB"/>
<stop offset="1" stop-color="#CADDFF"/>
</radialGradient>
<radialGradient id="paint6_radial_4264_275414" cx="0" cy="0" r="1" gradientUnits="userSpaceOnUse" gradientTransform="translate(1046.95 563.46) rotate(76.9842) scale(102.153 130.245)">
<stop stop-color="#ABBDDB"/>
<stop offset="1" stop-color="#CADDFF"/>
</radialGradient>
<radialGradient id="paint7_radial_4264_275414" cx="0" cy="0" r="1" gradientUnits="userSpaceOnUse" gradientTransform="translate(523.049 1015.59) rotate(-27.9093) scale(123.948 579.379)">
<stop stop-color="#87A5D9" stop-opacity="0.45"/>
<stop offset="1" stop-color="#CADDFF"/>
</radialGradient>
<radialGradient id="paint8_radial_4264_275414" cx="0" cy="0" r="1" gradientUnits="userSpaceOnUse" gradientTransform="translate(970.671 500.998) rotate(162.656) scale(123.948 579.379)">
<stop stop-color="#87A5D9" stop-opacity="0.45"/>
<stop offset="1" stop-color="#CADDFF"/>
</radialGradient>
<linearGradient id="paint9_linear_4264_275414" x1="699.352" y1="737.009" x2="686.348" y2="787.024" gradientUnits="userSpaceOnUse">
<stop stop-color="#CADDFF"/>
<stop offset="1" stop-color="#99B3DF"/>
</linearGradient>
</defs>
</svg>
