<svg width="360" height="378" viewBox="0 0 360 378" fill="none" xmlns="http://www.w3.org/2000/svg">
<path d="M191.5 194.5C196.5 200.5 194 209 194 209C194 209 188.5 208.5 184 210.5C180.5 197 176.046 198.5 174.5 198.5C172.264 198.5 166.5 203.5 167.5 207.5C168.919 213.178 170.217 217.679 172 221.5C175.5 229 187 245 187 245C187 245 180.997 243.409 179.5 244.5C177.793 245.744 177 250 177 250C177 250 163.484 234.008 159 222.5C156.4 215.828 153.689 208.778 156 202C157.311 198.154 159 197 161.5 195.5C164.246 193.852 166.103 192.678 166.5 189.5C167 185.5 166 178.5 166 178.5C166 178.5 166.518 177.097 169.5 176.5C171.5 176.1 173 177 173 177C173 177 172.787 180.059 173 182C173.264 184.401 173.842 188.658 174.5 188C175 187.5 175.5 186.31 175.5 185C175.5 182.5 176 177 176 177C176 177 176.368 175.655 179 175.5C181.108 175.376 182 176.5 182 176.5C182 176.5 180.76 191.361 182 189.5C183 188 182.99 185.583 183.5 181.5C184 177.5 185.5 176.5 185.5 176.5C185.5 176.5 186.66 176.193 188.5 177C190.5 177.877 191 179 191 179C191 179 188.938 182.816 188.5 185.5C188.291 186.779 188 189.773 188.5 191C189.179 192.667 190.348 193.117 191.5 194.5Z" fill="#9F2A26"/>
<path d="M162.004 211.707C160.726 212.299 159.504 213.207 158.504 213.207C157.504 213.207 156.053 208.902 156 206C155.93 202.154 156.87 199.236 160 197C163.5 194.5 164 195 166 192C166.877 190.684 166.935 189.363 167.004 187.207C167.11 183.884 166.504 178.707 166.504 178.707C166.504 178.707 167.363 177.998 168.004 177.707C168.91 177.295 170.504 177.207 170.504 177.207L170.504 184.207C170.504 185.707 171.026 190.761 173.504 190.207C174.504 189.983 175.067 189.017 175.504 187.707C176.004 186.207 176.504 176.707 176.504 176.707C177.004 176.207 179.004 175.707 179.504 176.207C179.544 176.248 178.504 185.707 179.504 189.707C179.775 190.792 180.504 191.249 181.504 191.207C183.004 191.145 183.231 186.251 183.504 184.207C184.504 176.707 186.004 177.207 186.004 177.207C186.004 177.207 187.504 177.207 189.004 178.207C189.209 178.344 186.996 179.888 186.504 181.207C185.753 183.22 185.504 185.207 185.504 186.707C185.504 189.257 186.504 193.707 184.504 195.207C181.83 197.212 178.28 194.048 175.004 194.707C171.127 195.487 168.645 196.884 166.504 200.207C164.365 203.527 166.004 208.707 165.004 210.207C164.67 210.707 163.293 211.109 162.004 211.707Z" fill="#D13A4E"/>
<path d="M167 192.5C168.557 187.828 167 179 167 179C167 179 168 187.5 166.5 192C165.889 193.834 160.799 196.568 159.5 198C157.349 200.372 157 202 157 202C157 202 158.648 198.735 160.5 197.5C165 194.5 166.5 194 167 192.5Z" fill="#EBBAC3"/>
<path d="M184 185.5C184.211 183.327 185 179.5 185 179.5C185 179.5 184.243 181.53 184 182.5C183.5 184.5 183.5 188.5 182.5 190.5C181.829 191.842 180.5 191 180.5 191C180.5 191 182 192 183 191C183.791 190.209 183.755 188.027 184 185.5Z" fill="#EBBAC3"/>
<path d="M174.5 190.5C173.438 191.031 172 190 172 190C172 190 173.5 191 174.5 190C176.088 188.412 176.264 185.152 176.5 183.5C177 180 177 178 177 178C177 178 176.99 184.049 176.5 186.5C176 189 175.5 190 174.5 190.5Z" fill="#EBBAC3"/>
<path d="M186.939 244.856C186.943 247.771 185.003 248.355 182.401 249.92C179.798 251.486 176.399 250.614 176.225 248.384C176.308 246.583 177.732 245.143 180.335 243.577C182.938 242.012 186.166 243.571 186.939 244.856Z" fill="url(#paint0_linear_4320_281425)"/>
<path d="M186.794 244.895C186.927 245.527 186.876 246.043 186.694 246.485C186.51 246.932 186.188 247.317 185.76 247.678C185.331 248.039 184.802 248.37 184.212 248.71C183.994 248.836 183.767 248.964 183.534 249.095C183.141 249.316 182.732 249.546 182.323 249.792C181.049 250.559 179.612 250.817 178.471 250.574C177.341 250.332 176.509 249.604 176.375 248.38C176.46 246.669 177.816 245.268 180.412 243.706C181.669 242.95 183.166 242.927 184.409 243.266C185.03 243.435 185.582 243.692 186.002 243.987C186.423 244.282 186.697 244.602 186.794 244.895Z" stroke="#69231F" stroke-width="0.3"/>
<mask id="mask0_4320_281425" style="mask-type:alpha" maskUnits="userSpaceOnUse" x="171" y="225" width="16" height="25">
<mask id="mask1_4320_281425" style="mask-type:alpha" maskUnits="userSpaceOnUse" x="155" y="175" width="40" height="75">
<path d="M191.5 194.5C196.5 200.5 194 209 194 209C194 209 188.5 208.5 184 210.5C180.5 197 176.046 198.5 174.5 198.5C172.264 198.5 166.5 203.5 167.5 207.5C168.92 213.178 170.217 217.679 172 221.5C175.5 229 187 245 187 245C187 245 180.997 243.409 179.5 244.5C177.793 245.744 177 250 177 250C177 250 163.484 234.008 159 222.5C156.4 215.828 153.689 208.778 156 202C157.311 198.154 159 197 161.5 195.5C164.246 193.852 166.103 192.678 166.5 189.5C167 185.5 166 178.5 166 178.5C166 178.5 166.518 177.097 169.5 176.5C171.5 176.1 173 177 173 177C173 177 172.787 180.059 173 182C173.264 184.401 173.842 188.658 174.5 188C175 187.5 175.5 186.31 175.5 185C175.5 182.5 176 177 176 177C176 177 176.369 175.655 179 175.5C181.108 175.376 182 176.5 182 176.5C182 176.5 180.76 191.361 182 189.5C183 188 182.99 185.583 183.5 181.5C184 177.5 185.5 176.5 185.5 176.5C185.5 176.5 186.66 176.193 188.5 177C190.5 177.877 191 179 191 179C191 179 188.938 182.816 188.5 185.5C188.291 186.779 188 189.773 188.5 191C189.179 192.667 190.348 193.117 191.5 194.5Z" fill="#CE4945"/>
</mask>
<g mask="url(#mask1_4320_281425)">
<path d="M172.5 233C174 227.5 174.5 225 174.5 225L187 244.5L180 245L177 250L172 244.5C172 244.5 171 238.5 172.5 233Z" fill="#9F2A26"/>
</g>
</mask>
<g mask="url(#mask0_4320_281425)">
<path d="M174 238C173.414 240.677 173 243.5 173.5 246C173.586 246.428 173 246 173 246L171 242.5C171 242.5 170.463 238.171 170.5 237C170.707 230.416 174 225.5 174 225.5L178 229C178 229 174.822 234.243 174 238Z" fill="#7D2724"/>
</g>
<defs>
<linearGradient id="paint0_linear_4320_281425" x1="179.81" y1="243.894" x2="183.182" y2="249.498" gradientUnits="userSpaceOnUse">
<stop stop-color="#5F1E1B"/>
<stop offset="1" stop-color="#9F2A26"/>
</linearGradient>
</defs>
</svg>
