<svg width="360" height="378" viewBox="0 0 360 378" fill="none" xmlns="http://www.w3.org/2000/svg">
<path d="M137 295L137.5 255.5C137.5 255.5 142.027 256.922 145 257C147.902 257.076 152 255.5 152 255.5L151 295.5C151 295.5 149 296.5 144 296.5C139 296.5 137 295 137 295Z" fill="#3A8BBF"/>
<mask id="mask0_4320_281428" style="mask-type:alpha" maskUnits="userSpaceOnUse" x="137" y="255" width="15" height="42">
<path d="M137 295L137.5 255.5C137.5 255.5 142.027 256.922 145 257C147.902 257.076 152 255.5 152 255.5L151 295.5C151 295.5 148.5 296.5 144 296.5C139 296.5 137 295 137 295Z" fill="#3C89C1"/>
</mask>
<g mask="url(#mask0_4320_281428)">
<path d="M137.5 279.5V296.5H136.5V279.5L137 254.5L152.5 254L151.5 296L145.5 297.5V287.5C145.5 287.5 143.31 285.81 141.5 284C139.69 282.19 137.5 279.5 137.5 279.5Z" fill="#2C6FAB"/>
</g>
<path d="M139 293.5L138 294.5V281L139 282V293.5Z" fill="#6ABEDE"/>
<path d="M145 258.5C141.769 258.587 137.5 257.5 137.5 255.5C137.5 254 142.013 253.459 145 253.5C147.795 253.538 152 254.352 152 255.5C152 257.5 148.055 258.417 145 258.5Z" fill="#2C6FAB" stroke="#1A529A" stroke-width="0.2"/>
<path d="M150 256C150 256.828 147.538 258 144.5 258C141.462 258 139.5 256.828 139.5 256C139.5 255.172 141.962 254.5 145 254.5C148.038 254.5 150 255.172 150 256Z" fill="url(#paint0_linear_4320_281428)"/>
<defs>
<linearGradient id="paint0_linear_4320_281428" x1="144.75" y1="254.5" x2="144.75" y2="258" gradientUnits="userSpaceOnUse">
<stop stop-color="#19539F"/>
<stop offset="1" stop-color="#15437E"/>
</linearGradient>
</defs>
</svg>
