<svg width="140" height="140" viewBox="0 0 140 140" fill="none" xmlns="http://www.w3.org/2000/svg">
<g clip-path="url(#clip0_4819_341591)">
<path d="M101.682 20.4724C101.079 19.9868 100.225 20.0978 99.9975 20.1275C97.9005 20.4009 96.6298 22.8755 96.1886 23.7353C91.6214 32.6285 91.314 47.1305 91.314 47.1305C91.2005 52.4743 90.9552 64.0589 85.2331 76.421C79.7064 88.3612 71.1412 96.5534 65.4387 99.8338C62.8235 101.338 57.6452 104.317 54.7175 104.143C54.2551 104.115 52.2778 103.915 50.2406 104.922C49.8546 105.113 49.5566 105.303 49.3712 105.428C49.0842 105.443 48.6134 105.469 48.035 105.512C48.035 105.512 45.063 105.736 42.0953 106.287C34.9647 107.61 32.2814 110.343 27.0931 109.71C23.2255 109.238 22.3858 107.435 18.6683 107.919C15.5432 108.326 13.0192 110.006 13.1155 110.271C13.2028 110.512 15.3918 109.443 18.3276 109.441C21.768 109.438 22.7888 110.905 25.9709 111.824C33.1259 113.891 38.3803 109.482 43.6149 110.572C44.1065 110.674 45.8673 111.089 48.0153 110.626C48.9248 110.43 49.6268 110.137 50.027 109.95C50.1793 110.049 50.4449 110.21 50.7922 110.37C50.7922 110.37 53.0644 111.417 56.3039 110.596C74.0825 106.09 84.2771 94.43 84.2771 94.43C93.0891 84.3517 95.9337 73.8935 97.9501 66.4804C103.155 47.3459 99.2801 34.4518 101.742 26.0634C101.982 25.2426 103.116 21.6282 101.682 20.4724Z" fill="#BCBCBE" stroke="#6F6F6E" stroke-width="0.107079" stroke-miterlimit="10"/>
<path d="M101.682 20.4728C99.9416 24.2636 99.4032 27.4293 99.2299 29.604C98.8124 34.8488 100.209 38.2259 98.7375 44.3626C98.4021 45.7615 97.7149 48.5323 96.609 48.5898C95.6339 48.6402 94.7361 46.5605 94.3792 45.432C93.6863 43.2403 94.0333 41.4779 94.4088 39.0313C95.2895 33.2933 94.7475 34.0779 95.3462 31.3371C95.9218 28.7008 97.1415 24.6838 99.9974 20.1285C100.196 20.0873 100.564 20.0394 100.997 20.1549C101.305 20.2356 101.535 20.3703 101.682 20.4728Z" fill="#BCBCBE" stroke="#6F6F6E" stroke-width="0.107079" stroke-miterlimit="10"/>
<path d="M86.6892 84.3313C87.2758 84.6446 89.3018 82.2552 90.6576 80.1163C93.2423 76.0379 92.8527 73.7177 95.0001 65.883C96.348 60.9665 96.9831 60.1246 97.3652 56.7214C97.6961 53.7768 97.8395 48.8979 96.6087 48.5879C95.6629 48.3496 94.2737 50.9042 93.9967 51.4137C91.7646 55.5186 92.7896 58.1771 92.2002 63.3889C91.9169 65.8951 90.591 70.137 87.9397 78.6196C86.9368 81.8273 86.1779 84.0582 86.6892 84.3313Z" fill="#BCBCBE" stroke="#6F6F6E" stroke-width="0.107079" stroke-miterlimit="10"/>
<path d="M55.88 106.457C57.7823 106.244 59.5084 105.525 62.9605 104.086C72.2038 100.234 82.0749 90.8944 83.8098 87.0172C84.0205 86.5468 84.9072 84.3767 86.26 84.2613C86.4044 84.2491 86.5695 84.2368 86.6889 84.3331C87.5742 85.0479 84.3403 90.4234 83.9615 91.0533C77.7901 101.311 64.0515 106.107 60.9582 107.186C59.3486 107.748 51.3224 110.55 50.1903 108.671C50.0296 108.404 49.98 107.997 50.1123 107.665C50.5968 106.448 53.3121 106.745 55.88 106.457Z" fill="#BCBCBE" stroke="#6F6F6E" stroke-width="0.107079" stroke-miterlimit="10"/>
<path d="M101.682 20.4728C99.9416 24.2636 99.4032 27.4293 99.2299 29.604C98.8124 34.8488 100.209 38.2259 98.7375 44.3626C98.4021 45.7615 97.7149 48.5323 96.609 48.5898C95.6339 48.6402 94.7361 46.5605 94.3792 45.432C93.6863 43.2403 94.0333 41.4779 94.4088 39.0313C95.2895 33.2933 94.7475 34.0779 95.3462 31.3371C95.9218 28.7008 97.1415 24.6838 99.9974 20.1285C100.196 20.0873 100.564 20.0394 100.997 20.1549C101.305 20.2356 101.535 20.3703 101.682 20.4728Z" fill="url(#paint0_linear_4819_341591)"/>
<path d="M86.6892 84.3313C87.2758 84.6446 89.3018 82.2552 90.6576 80.1163C93.2423 76.0379 92.8527 73.7177 95.0001 65.883C96.348 60.9665 96.9831 60.1246 97.3652 56.7214C97.6961 53.7768 97.8395 48.8979 96.6087 48.5879C95.6629 48.3496 94.2737 50.9042 93.9967 51.4137C91.7646 55.5186 92.7896 58.1771 92.2002 63.3889C91.9169 65.8951 90.591 70.137 87.9397 78.6196C86.9368 81.8273 86.1779 84.0582 86.6892 84.3313Z" fill="url(#paint1_linear_4819_341591)"/>
<path d="M55.88 106.457C57.7823 106.244 59.5084 105.525 62.9605 104.086C72.2038 100.234 82.0749 90.8944 83.8098 87.0172C84.0205 86.5468 84.9072 84.3767 86.26 84.2613C86.4044 84.2491 86.5695 84.2368 86.6889 84.3331C87.5742 85.0479 84.3403 90.4234 83.9615 91.0533C77.7901 101.311 64.0515 106.107 60.9582 107.186C59.3486 107.748 51.3224 110.55 50.1903 108.671C50.0296 108.404 49.98 107.997 50.1123 107.665C50.5968 106.448 53.3121 106.745 55.88 106.457Z" fill="url(#paint2_linear_4819_341591)"/>
</g>
<defs>
<linearGradient id="paint0_linear_4819_341591" x1="105.313" y1="-40.2389" x2="86.4321" y2="140.371" gradientUnits="userSpaceOnUse">
<stop stop-color="#585857"/>
<stop offset="1" stop-color="#6F6F6E" stop-opacity="0"/>
</linearGradient>
<linearGradient id="paint1_linear_4819_341591" x1="103.511" y1="-40.4293" x2="84.6295" y2="140.182" gradientUnits="userSpaceOnUse">
<stop stop-color="#585857"/>
<stop offset="1" stop-color="#6F6F6E" stop-opacity="0"/>
</linearGradient>
<linearGradient id="paint2_linear_4819_341591" x1="82.9656" y1="-42.5749" x2="64.0847" y2="138.036" gradientUnits="userSpaceOnUse">
<stop stop-color="#585857"/>
<stop offset="1" stop-color="#6F6F6E" stop-opacity="0"/>
</linearGradient>
<clipPath id="clip0_4819_341591">
<rect width="140" height="140" fill="white"/>
</clipPath>
</defs>
</svg>
