<svg width="1112" height="482" viewBox="0 0 1112 482" fill="none" xmlns="http://www.w3.org/2000/svg">
<path d="M466.097 262.456C467.056 253.629 482.906 247.327 501.908 249.395C520.909 251.462 546.394 274.152 527.158 279.178C516.644 281.925 506.931 270.802 495.467 271.135C471.038 271.848 465.138 271.284 466.097 262.456Z" fill="#E69264"/>
<path opacity="0.3608" d="M470.615 258.334C471.696 258.697 473.169 259.792 474.448 260.521C475.16 260.926 476.221 261.259 476.66 260.567C476.996 260.039 476.597 259.304 476.04 259.02C475.483 258.737 474.827 258.75 474.204 258.674C473.581 258.598 472.906 258.374 472.616 257.817C472.368 257.342 472.487 256.735 472.8 256.296C473.113 255.858 473.585 255.564 474.069 255.334C475.216 254.783 476.811 254.618 477.573 255.64C477.965 256.165 478.018 256.86 478.094 257.51C478.169 258.16 478.318 258.865 478.825 259.281C479.33 259.696 480.289 259.561 480.42 258.921C479.969 258.08 479.366 257.329 478.941 256.471C478.515 255.614 478.281 254.598 478.627 253.708C478.974 252.818 480.058 252.191 480.925 252.593C481.492 252.857 481.821 253.477 481.937 254.094C482.052 254.71 481.989 255.343 481.996 255.97C482.019 258.717 484.58 263.327 485.269 262.641C485.783 262.133 484.435 259.386 483.796 257.559C483.156 255.733 482.912 253.55 484.063 251.997C484.458 251.466 485.022 251.03 485.671 250.915C486.324 250.8 487.059 251.05 487.408 251.611C487.916 252.422 487.504 253.461 487.253 254.384C487.003 255.307 487.131 256.587 488.057 256.824C488.654 255.779 488.535 254.496 488.66 253.299C488.786 252.102 489.369 250.743 490.552 250.519C491.564 250.325 492.556 251.116 492.952 252.069C493.347 253.022 493.288 254.094 493.225 255.123C493.12 256.801 493.018 258.476 492.912 260.155C492.863 260.953 493.005 262.014 493.792 262.15C494.31 262.239 494.798 261.803 494.959 261.305C495.124 260.807 495.045 260.267 494.976 259.749C494.712 257.8 494.577 255.835 494.567 253.866C494.564 252.798 494.679 251.568 495.556 250.958C496.531 250.279 497.916 250.78 498.792 251.581C500.345 252.992 501.02 255.172 501.053 257.273C501.086 259.373 500.546 261.434 500.012 263.462C500.467 263.561 500.935 263.281 501.195 262.898C501.455 262.512 501.548 262.044 501.627 261.586C501.963 259.607 502.095 257.592 502.022 255.588C501.996 254.809 501.94 254.008 502.194 253.273C502.448 252.537 503.113 251.878 503.891 251.904C504.712 251.931 505.345 252.712 505.496 253.52C505.648 254.328 505.434 255.152 505.229 255.947C505.025 256.742 504.834 257.579 505.022 258.377C505.111 258.756 505.434 259.182 505.8 259.05C505.984 258.984 506.093 258.799 506.169 258.618C506.858 256.953 505.895 254.704 507.154 253.414C507.754 252.801 508.776 252.656 509.524 253.075C510.272 253.494 510.678 254.443 510.467 255.274C510.259 256.099 509.55 256.695 509.152 257.447C508.756 258.199 508.894 259.409 509.732 259.554C510.318 259.657 510.846 259.129 511.037 258.565C511.228 258.001 511.198 257.388 511.32 256.804C511.498 255.96 512.065 255.152 512.889 254.898C513.713 254.644 514.751 255.126 515.196 255.564C515.641 256.006 516.07 256.554 516.043 257.048C516.017 257.543 515.704 257.965 515.427 258.377C514.211 260.191 513.542 262.364 513.525 264.547C513.522 264.989 513.552 265.457 513.802 265.82C514.053 266.182 514.587 266.387 514.949 266.133C515.2 265.958 515.384 265.642 515.365 265.335C515.259 263.676 515.608 262.265 515.978 260.771C516.188 259.914 516.782 258.13 517.576 257.747C519.224 256.959 521.126 258.911 521.248 259.413C521.37 259.914 521.182 260.432 520.997 260.913C520.734 261.599 520.47 262.285 520.21 262.967C520.091 263.274 519.972 263.591 519.995 263.917C520.018 264.243 520.216 264.583 520.536 264.652C521.004 264.755 521.38 264.273 521.574 263.835C521.937 263.013 522.131 262.12 522.138 261.223C522.141 260.986 522.144 260.715 522.326 260.56C522.507 260.408 522.777 260.451 522.998 260.527C524.125 260.92 524.962 262.037 525.018 263.231C525.061 264.135 524.699 264.999 524.405 265.856C524.112 266.71 523.885 267.653 524.188 268.507C524.3 268.817 524.491 269.117 524.778 269.275C525.068 269.437 525.463 269.424 525.697 269.19C525.991 268.893 525.925 268.411 525.889 267.996C525.836 267.333 525.925 266.66 526.146 266.034C526.277 265.661 526.505 265.266 526.887 265.167C527.345 265.048 527.78 265.407 528.113 265.744C529.122 266.769 530.058 267.884 530.691 269.173C531.324 270.463 531.637 271.946 531.357 273.354C531.076 274.762 530.147 276.075 528.819 276.622C528.341 276.82 527.734 276.893 527.362 276.533C527.013 276.197 527.029 275.643 527.092 275.161C527.57 271.547 527.312 271.805 527.115 271.633C526.884 271.429 526.027 272.936 525.866 273.727C525.697 274.558 525.773 275.425 525.559 276.243C525.345 277.061 524.689 277.875 523.819 277.813C523.146 278.162 522.27 277.905 521.752 277.351C521.235 276.797 521.027 276.015 521.001 275.257C520.978 274.499 521.119 273.747 521.208 272.995C521.386 271.501 521.357 269.988 521.126 268.501C521.09 268.27 521.047 268.032 520.908 267.844C520.77 267.656 520.51 267.541 520.299 267.637C520.098 267.729 520.015 267.97 519.966 268.187C519.682 269.444 519.814 270.749 519.788 272.039C519.761 273.325 519.534 274.693 518.674 275.653C517.817 276.612 516.162 276.939 515.243 276.039C514.577 275.382 514.498 274.314 514.748 273.414C514.999 272.514 515.519 271.719 515.935 270.881C516.146 270.456 516.33 269.988 516.271 269.516C516.212 269.045 515.819 268.586 515.345 268.609C514.781 268.639 514.465 269.262 514.31 269.803C514.076 270.614 513.937 271.462 513.562 272.22C513.186 272.979 512.513 273.658 511.673 273.747C510.964 273.823 510.266 273.46 509.761 272.952C508.657 271.847 508.361 270.136 508.598 268.593C508.832 267.05 509.527 265.622 510.173 264.204C510.384 263.739 510.599 263.241 510.519 262.736C510.44 262.232 509.943 261.76 509.455 261.909C508.987 262.051 508.825 262.621 508.736 263.103C508.473 264.544 508.209 265.985 507.945 267.426C507.813 268.144 507.678 268.876 507.345 269.526C507.012 270.176 506.446 270.746 505.73 270.904C504.834 271.102 503.875 270.585 503.397 269.8C502.919 269.015 502.86 268.029 503.061 267.132C503.262 266.235 503.697 265.411 504.155 264.616C504.419 264.161 504.699 263.676 504.676 263.149C504.656 262.624 504.181 262.08 503.67 262.206C503.212 262.314 503.011 262.842 502.883 263.297C502.678 264.019 502.474 264.745 502.27 265.467C502.042 266.271 501.307 269.101 499.28 269.031C498.446 269.002 497.599 268.352 497.576 267.541C497.794 265.721 498.011 263.9 498.232 262.08C498.443 260.323 498.595 258.351 497.477 256.979C497.237 256.682 496.821 256.415 496.495 256.616C496.208 256.794 496.212 257.207 496.248 257.543C496.475 259.769 496.528 262.014 496.406 264.25C496.347 265.328 496.228 266.463 495.589 267.33C495.022 268.098 494.112 268.55 493.183 268.751C492.253 268.952 491.287 268.926 490.335 268.899C489.831 268.886 489.257 268.84 488.944 268.444C488.614 268.032 488.723 267.435 488.842 266.921C489.405 264.461 489.794 261.962 490.009 259.449C490.032 259.162 490.055 258.865 489.946 258.601C489.84 258.334 489.567 258.113 489.287 258.16C488.888 258.229 488.753 258.727 488.713 259.129C488.545 260.794 488.519 262.486 488.13 264.115C487.741 265.744 486.927 267.35 485.533 268.28C483.852 269.397 481.683 269.345 479.666 269.249C479.237 269.229 478.763 269.186 478.476 268.867C478.031 268.369 478.334 267.59 478.654 267.007C479.191 266.021 479.728 265.035 480.266 264.049C480.463 263.686 480.668 263.304 480.671 262.891C480.674 262.479 480.411 262.031 479.999 261.981C479.399 261.909 479.053 262.631 478.871 263.208C478.509 264.362 478.038 265.483 477.471 266.552C476.897 267.627 476.123 268.728 474.952 269.061C473.575 269.453 472.167 268.665 470.951 267.91C470.358 267.541 469.672 266.918 469.946 266.275C470.173 265.737 470.879 265.661 471.455 265.582C472.78 265.398 474.036 264.768 474.972 263.815C475.16 263.624 475.351 263.37 475.289 263.106C475.226 262.849 474.933 262.704 474.666 262.72C474.399 262.736 474.158 262.865 473.924 262.99C472.896 263.534 471.815 263.976 470.697 264.309C470.233 264.448 469.751 264.57 469.27 264.517C468.789 264.464 468.304 264.207 468.1 263.769C467.919 263.379 467.985 262.921 468.087 262.502C468.496 260.893 470.058 258.15 470.615 258.334Z" fill="#FDDFD3"/>
<path d="M471.196 262.819C471.514 262.819 471.773 262.561 471.773 262.242C471.773 261.923 471.514 261.665 471.196 261.665C470.877 261.665 470.619 261.923 470.619 262.242C470.619 262.561 470.877 262.819 471.196 262.819Z" fill="#AA2829"/>
<path d="M483.885 266.281C484.204 266.281 484.462 266.023 484.462 265.704C484.462 265.386 484.204 265.127 483.885 265.127C483.567 265.127 483.309 265.386 483.309 265.704C483.309 266.023 483.567 266.281 483.885 266.281Z" fill="#AA2829"/>
<path d="M486.11 259.027C486.429 259.027 486.687 258.768 486.687 258.45C486.687 258.131 486.429 257.873 486.11 257.873C485.791 257.873 485.533 258.131 485.533 258.45C485.533 258.768 485.791 259.027 486.11 259.027Z" fill="#AA2829"/>
<path d="M491.137 254.987C491.456 254.987 491.714 254.729 491.714 254.41C491.714 254.092 491.456 253.833 491.137 253.833C490.819 253.833 490.561 254.092 490.561 254.41C490.561 254.729 490.819 254.987 491.137 254.987Z" fill="#AA2829"/>
<path d="M496.987 254.163C497.306 254.163 497.564 253.905 497.564 253.586C497.564 253.267 497.306 253.009 496.987 253.009C496.668 253.009 496.41 253.267 496.41 253.586C496.41 253.905 496.668 254.163 496.987 254.163Z" fill="#AA2829"/>
<path d="M499.872 266.941C500.19 266.941 500.449 266.682 500.449 266.364C500.449 266.045 500.19 265.787 499.872 265.787C499.553 265.787 499.295 266.045 499.295 266.364C499.295 266.682 499.553 266.941 499.872 266.941Z" fill="#AA2829"/>
<path d="M506.051 261.747C506.37 261.747 506.628 261.489 506.628 261.17C506.628 260.851 506.37 260.593 506.051 260.593C505.733 260.593 505.475 260.851 505.475 261.17C505.475 261.489 505.733 261.747 506.051 261.747Z" fill="#AA2829"/>
<path d="M514.126 258.367C514.444 258.367 514.702 258.109 514.702 257.79C514.702 257.472 514.444 257.213 514.126 257.213C513.807 257.213 513.549 257.472 513.549 257.79C513.549 258.109 513.807 258.367 514.126 258.367Z" fill="#AA2829"/>
<path d="M518.081 261.582C518.399 261.582 518.657 261.324 518.657 261.005C518.657 260.687 518.399 260.428 518.081 260.428C517.762 260.428 517.504 260.687 517.504 261.005C517.504 261.324 517.762 261.582 518.081 261.582Z" fill="#AA2829"/>
<path d="M517.669 275.349C517.987 275.349 518.245 275.091 518.245 274.772C518.245 274.454 517.987 274.195 517.669 274.195C517.35 274.195 517.092 274.454 517.092 274.772C517.092 275.091 517.35 275.349 517.669 275.349Z" fill="#AA2829"/>
<path d="M508.163 265.717C508.15 265.661 508.107 265.615 508.071 265.572C507.863 265.272 507.567 264.913 507.155 264.992C506.95 265.008 506.716 265.17 506.746 265.398C506.749 265.457 506.786 265.5 506.819 265.549C506.861 265.628 506.894 265.717 506.914 265.806C506.944 265.912 506.898 265.998 506.904 266.106C506.921 266.146 506.927 266.189 506.931 266.232C506.917 266.235 506.904 266.238 506.888 266.242C506.723 266.285 506.565 266.351 506.443 266.473C506.347 266.565 506.308 266.697 506.232 266.802C506.222 266.825 506.169 266.872 506.163 266.918C506.179 267.013 506.252 267.096 506.252 267.198C506.255 267.208 506.252 267.218 506.252 267.224C506.093 267.284 506.044 267.455 505.879 267.396C505.794 267.35 505.718 267.251 505.609 267.274C505.414 267.336 505.279 267.567 505.18 267.699C505.167 267.686 505.157 267.666 505.128 267.663C505.065 267.64 504.999 267.67 504.946 267.702C504.838 267.768 504.726 267.841 504.647 267.943C504.561 268.131 504.482 268.319 504.37 268.494C504.264 268.52 504.132 268.524 504.04 268.461C503.832 268.22 504.116 267.927 504.248 267.749C504.337 267.656 504.574 267.488 504.706 267.379C504.775 267.333 504.844 267.303 504.93 267.254C505.148 267.139 505.352 267.017 505.586 266.865C505.747 266.766 505.935 266.571 506.057 266.466C506.166 266.37 506.288 266.271 506.341 266.13C506.364 265.998 506.39 265.853 506.364 265.721C506.298 265.487 505.991 265.506 505.8 265.539C505.213 265.661 504.755 266.172 504.267 266.591C504.752 266.212 505.072 265.77 505.701 265.632C505.896 265.599 506.206 265.592 506.255 265.836C506.268 265.968 506.258 266.11 506.219 266.238C506.173 266.354 506.07 266.426 505.981 266.505C505.701 266.779 505.619 266.815 505.213 267.063C504.976 267.172 504.65 267.379 504.531 267.488C504.33 267.637 504.155 267.762 504.017 267.976C503.902 268.101 503.704 268.464 503.961 268.59C504.07 268.619 504.205 268.626 504.307 268.57C504.544 268.415 504.63 268.118 504.749 267.871C504.775 267.824 504.785 267.834 504.838 267.795C504.881 267.759 504.993 267.722 505.055 267.808C505.246 267.742 505.332 267.531 505.461 267.386C505.5 267.373 505.53 267.376 505.569 267.393C505.645 267.425 505.698 267.498 505.777 267.515C505.863 267.524 505.939 267.465 506.008 267.419C506.044 267.393 506.09 267.353 506.12 267.327C506.143 267.317 506.166 267.313 506.189 267.313C506.209 267.313 506.225 267.317 506.242 267.317C506.229 267.412 506.192 267.501 506.163 267.594C506.153 267.613 506.156 267.617 506.146 267.627C506.113 267.653 506.07 267.686 506.057 267.749C506.077 267.937 505.978 268.026 505.945 268.194C505.935 268.243 505.925 268.296 505.909 268.345C505.833 268.349 505.77 268.408 505.718 268.461C505.632 268.573 505.602 268.718 505.487 268.797C505.365 268.857 505.246 268.936 505.151 269.031C505.002 269.2 504.877 269.351 504.742 269.493C504.739 269.496 504.736 269.5 504.732 269.506C504.673 269.526 504.61 269.539 504.548 269.542C504.287 269.526 503.991 269.394 503.823 269.193C503.793 269.094 503.879 268.906 503.912 268.791C504.086 268.751 504.261 268.876 504.442 268.824C504.6 268.84 504.772 268.883 504.92 268.807C504.923 268.807 504.943 268.801 504.933 268.804C504.91 268.807 504.89 268.817 504.871 268.824C504.693 268.86 504.571 268.768 504.366 268.777C504.244 268.761 504.129 268.682 504.004 268.705C503.925 268.735 503.842 268.791 503.809 268.866C503.766 268.992 503.714 269.117 503.697 269.249C503.74 269.371 503.879 269.434 503.984 269.496C504.142 269.575 504.317 269.641 504.495 269.625C504.64 269.615 504.765 269.533 504.851 269.42C504.979 269.289 505.124 269.114 505.253 268.969C505.26 268.952 505.365 268.903 505.424 268.87C505.51 268.814 505.569 268.754 505.639 268.688C505.711 268.622 505.751 268.53 505.794 268.444C505.813 268.448 505.833 268.451 505.853 268.451C505.889 268.444 505.919 268.418 505.948 268.395C506.051 268.319 506.047 268.174 506.074 268.059C506.113 267.93 506.196 267.811 506.173 267.673C506.173 267.653 506.182 267.633 506.192 267.613C506.209 267.6 506.245 267.564 506.255 267.554C506.295 267.498 506.298 267.425 506.327 267.366C506.337 267.34 506.347 267.31 506.354 267.28C506.43 267.241 506.496 267.195 506.568 267.129C506.723 267.003 506.911 266.812 507.016 266.519C507.046 266.463 507.036 266.397 507.043 266.344C507.043 266.337 507.043 266.331 507.046 266.324C507.211 266.407 507.395 266.351 507.563 266.301C507.656 266.268 507.755 266.294 507.844 266.248C507.966 266.186 508.124 266.106 508.15 265.961C508.157 265.879 508.17 265.797 508.163 265.717ZM506.911 266.565C506.828 266.812 506.697 267.007 506.545 267.125C506.512 267.149 506.476 267.201 506.37 267.208C506.374 267.132 506.367 267.056 506.341 266.987C506.321 266.931 506.275 266.875 506.278 266.815C506.304 266.766 506.341 266.726 506.367 266.68C506.41 266.611 506.489 266.459 506.505 266.443C506.634 266.38 506.786 266.311 506.931 266.311C506.927 266.397 506.914 266.489 506.911 266.565ZM507.768 266.186C507.587 266.212 507.399 266.324 507.217 266.255C507.168 266.229 507.118 266.219 507.066 266.215C507.069 266.166 507.066 266.113 507.053 266.07C507.006 265.961 507.059 265.866 507.049 265.75C507.039 265.651 507.003 265.556 506.96 265.467C506.927 265.407 506.875 265.358 506.875 265.285C506.861 265.229 506.891 265.16 506.908 265.127C506.924 265.121 506.944 265.114 506.964 265.111C507.336 265.005 507.685 265.279 507.873 265.592C507.926 265.671 508.015 265.731 508.038 265.83C508.035 265.915 508.048 266.057 508.015 266.126C507.949 266.159 507.857 266.186 507.768 266.186Z" fill="#AA2829"/>
</svg>
