<svg width="1112" height="482" viewBox="0 0 1112 482" fill="none" xmlns="http://www.w3.org/2000/svg">
<path d="M732.038 286.158C736.645 293.748 727.896 308.39 711.555 318.305C695.214 328.22 661.185 325.707 673.398 310.02C680.073 301.445 694.548 304.367 703.445 297.131C722.405 281.708 727.431 278.567 732.038 286.158Z" fill="#E69264"/>
<path opacity="0.3608" d="M730.959 292.178C729.88 292.548 728.045 292.575 726.586 292.774C725.775 292.885 724.73 293.266 724.803 294.082C724.857 294.706 725.621 295.047 726.235 294.933C726.85 294.819 727.362 294.41 727.903 294.091C728.444 293.773 729.116 293.54 729.686 293.806C730.171 294.032 730.445 294.586 730.464 295.125C730.482 295.663 730.286 296.183 730.042 296.661C729.466 297.796 728.3 298.897 727.074 298.548C726.444 298.371 725.979 297.85 725.524 297.381C725.068 296.911 724.522 296.441 723.866 296.42C723.213 296.397 722.534 297.088 722.818 297.676C723.688 298.068 724.624 298.298 725.483 298.72C726.342 299.142 727.145 299.806 727.412 300.724C727.679 301.641 727.199 302.798 726.266 303.005C725.656 303.141 725.017 302.849 724.551 302.43C724.084 302.01 723.749 301.47 723.362 300.976C721.674 298.81 716.837 296.708 716.707 297.672C716.608 298.387 719.349 299.748 720.967 300.809C722.586 301.871 724.107 303.455 724.138 305.387C724.147 306.049 723.965 306.738 723.519 307.224C723.072 307.713 722.336 307.961 721.717 307.728C720.821 307.393 720.517 306.318 720.154 305.433C719.791 304.547 718.911 303.61 718.031 303.985C718.194 305.177 719.068 306.123 719.696 307.15C720.325 308.176 720.688 309.609 719.885 310.507C719.2 311.277 717.932 311.252 717.038 310.736C716.144 310.22 715.54 309.333 714.964 308.479C714.027 307.082 713.089 305.69 712.152 304.294C711.706 303.63 710.948 302.873 710.24 303.245C709.775 303.489 709.653 304.131 709.827 304.625C709.999 305.12 710.391 305.502 710.761 305.87C712.155 307.257 713.458 308.735 714.663 310.292C715.315 311.138 715.972 312.184 715.647 313.202C715.286 314.334 713.882 314.778 712.699 314.675C710.608 314.499 708.746 313.18 707.442 311.533C706.139 309.885 705.314 307.92 704.505 305.986C704.084 306.184 703.883 306.691 703.909 307.153C703.937 307.618 704.148 308.046 704.364 308.458C705.3 310.233 706.421 311.912 707.698 313.459C708.192 314.061 708.724 314.663 708.97 315.401C709.215 316.139 709.088 317.068 708.454 317.52C707.787 317.998 706.809 317.763 706.198 317.213C705.586 316.664 705.255 315.88 704.934 315.125C704.612 314.369 704.255 313.588 703.62 313.069C703.319 312.822 702.804 312.681 702.594 313.008C702.487 313.173 702.513 313.386 702.564 313.576C703.029 315.316 705.161 316.516 704.946 318.305C704.843 319.157 704.12 319.894 703.271 320.016C702.423 320.139 701.523 319.632 701.185 318.844C700.849 318.063 701.048 317.158 700.908 316.319C700.764 315.482 699.918 314.605 699.166 314.999C698.638 315.275 698.54 316.014 698.731 316.578C698.922 317.142 699.319 317.611 699.577 318.148C699.949 318.927 699.991 319.913 699.491 320.615C698.991 321.318 697.874 321.567 697.254 321.49C696.632 321.41 695.959 321.236 695.679 320.827C695.4 320.418 695.391 319.893 695.361 319.397C695.223 317.218 694.433 315.086 693.118 313.343C692.852 312.99 692.544 312.637 692.124 312.501C691.705 312.366 691.156 312.528 691.023 312.95C690.931 313.241 690.977 313.605 691.179 313.836C692.271 315.089 692.852 316.421 693.468 317.832C693.822 318.641 694.436 320.417 694.038 321.204C693.209 322.832 690.512 322.439 690.11 322.115C689.709 321.792 689.543 321.266 689.397 320.772C689.189 320.067 688.981 319.362 688.773 318.662C688.68 318.347 688.582 318.023 688.365 317.778C688.148 317.533 687.785 317.384 687.489 317.523C687.055 317.727 687.05 318.337 687.162 318.804C687.374 319.676 687.763 320.504 688.303 321.22C688.445 321.41 688.606 321.627 688.557 321.86C688.505 322.091 688.265 322.221 688.043 322.295C686.91 322.669 685.565 322.291 684.795 321.377C684.211 320.686 683.974 319.78 683.685 318.921C683.399 318.065 683.006 317.178 682.245 316.684C681.968 316.506 681.634 316.384 681.31 316.433C680.981 316.481 680.675 316.732 680.632 317.06C680.58 317.474 680.925 317.816 681.206 318.124C681.651 318.618 681.99 319.206 682.195 319.838C682.317 320.214 682.378 320.666 682.134 320.977C681.843 321.35 681.279 321.33 680.81 321.265C679.386 321.064 677.965 320.749 676.678 320.11C675.392 319.472 674.241 318.484 673.607 317.196C672.973 315.908 672.913 314.301 673.634 313.059C673.893 312.611 674.33 312.184 674.845 312.243C675.327 312.298 675.65 312.748 675.894 313.168C677.712 316.327 677.76 315.967 678.021 315.983C678.328 316.005 678.092 314.287 677.739 313.561C677.367 312.799 676.78 312.157 676.452 311.377C676.125 310.598 676.15 309.552 676.879 309.073C677.2 308.386 678.053 308.057 678.8 308.182C679.548 308.307 680.188 308.802 680.67 309.388C681.15 309.976 681.495 310.659 681.881 311.309C682.648 312.603 683.593 313.787 684.68 314.827C684.849 314.988 685.028 315.151 685.252 315.216C685.476 315.281 685.753 315.214 685.862 315.01C685.966 314.814 685.885 314.573 685.792 314.37C685.253 313.201 684.354 312.244 683.591 311.205C682.829 310.168 682.178 308.943 682.277 307.658C682.374 306.375 683.489 305.11 684.766 305.265C685.694 305.381 686.406 306.181 686.755 307.048C687.103 307.915 687.173 308.863 687.353 309.78C687.444 310.246 687.583 310.73 687.916 311.068C688.25 311.407 688.84 311.532 689.203 311.225C689.632 310.859 689.505 310.171 689.299 309.648C688.991 308.862 688.586 308.105 688.423 307.274C688.26 306.444 688.38 305.495 688.993 304.914C689.51 304.422 690.285 304.285 690.994 304.382C692.542 304.587 693.819 305.765 694.569 307.135C695.322 308.502 695.638 310.058 695.987 311.577C696.103 312.074 696.235 312.6 696.605 312.952C696.975 313.305 697.657 313.376 697.954 312.962C698.239 312.565 698.02 312.013 697.798 311.577C697.131 310.273 696.464 308.969 695.797 307.664C695.464 307.014 695.126 306.35 694.996 305.632C694.865 304.914 694.968 304.116 695.439 303.556C696.031 302.854 697.107 302.681 697.963 303.014C698.82 303.346 699.467 304.092 699.853 304.927C700.239 305.761 700.395 306.68 700.514 307.589C700.582 308.111 700.654 308.666 700.993 309.071C701.328 309.475 702.036 309.618 702.365 309.208C702.662 308.843 702.501 308.302 702.326 307.863C702.049 307.165 701.77 306.465 701.493 305.768C701.185 304.991 700.047 302.298 701.699 301.12C702.379 300.636 703.446 300.637 703.958 301.267C704.892 302.844 705.826 304.421 706.758 306C707.66 307.524 708.738 309.181 710.46 309.591C710.831 309.68 711.323 309.639 711.46 309.281C711.579 308.965 711.326 308.64 711.093 308.395C709.558 306.767 708.151 305.016 706.888 303.167C706.279 302.275 705.684 301.303 705.664 300.225C705.647 299.271 706.094 298.359 706.709 297.634C707.325 296.909 708.108 296.343 708.88 295.784C709.288 295.488 709.771 295.176 710.261 295.3C710.773 295.426 711.05 295.966 711.268 296.447C712.317 298.742 713.528 300.963 714.886 303.088C715.042 303.33 715.205 303.579 715.451 303.722C715.698 303.87 716.049 303.879 716.243 303.672C716.518 303.375 716.322 302.897 716.109 302.554C715.23 301.13 714.222 299.771 713.54 298.241C712.858 296.712 712.528 294.942 713.069 293.356C713.723 291.446 715.477 290.169 717.136 289.018C717.489 288.773 717.891 288.519 718.313 288.598C718.97 288.723 719.202 289.525 719.303 290.183C719.476 291.292 719.65 292.402 719.823 293.511C719.886 293.919 719.957 294.347 720.205 294.676C720.453 295.006 720.935 295.201 721.292 294.99C721.812 294.683 721.648 293.899 721.441 293.331C721.027 292.194 720.719 291.017 720.519 289.824C720.321 288.622 720.266 287.277 720.992 286.301C721.847 285.152 723.444 284.921 724.868 284.781C725.564 284.713 726.487 284.791 726.661 285.468C726.807 286.033 726.294 286.522 725.884 286.936C724.944 287.888 724.331 289.152 724.167 290.478C724.134 290.744 724.137 291.062 724.347 291.233C724.553 291.399 724.874 291.336 725.076 291.16C725.278 290.985 725.391 290.736 725.5 290.495C725.986 289.437 726.575 288.429 727.26 287.485C727.544 287.093 727.852 286.703 728.266 286.452C728.68 286.202 729.221 286.111 729.65 286.335C730.031 286.533 730.257 286.937 730.431 287.332C731.085 288.858 731.513 291.986 730.959 292.178Z" fill="#FDDFD3"/>
<path d="M727.77 288.971C727.517 289.165 727.469 289.527 727.663 289.78C727.857 290.033 728.219 290.081 728.472 289.887C728.725 289.693 728.773 289.331 728.579 289.078C728.385 288.825 728.023 288.777 727.77 288.971Z" fill="#AA2829"/>
<path d="M715.592 293.94C715.339 294.134 715.291 294.496 715.485 294.749C715.679 295.002 716.041 295.05 716.294 294.856C716.547 294.662 716.595 294.3 716.401 294.047C716.207 293.794 715.845 293.746 715.592 293.94Z" fill="#AA2829"/>
<path d="M718.237 301.052C717.984 301.245 717.936 301.607 718.13 301.86C718.324 302.113 718.686 302.161 718.939 301.968C719.191 301.774 719.239 301.412 719.046 301.159C718.852 300.906 718.49 300.858 718.237 301.052Z" fill="#AA2829"/>
<path d="M716.704 307.315C716.451 307.509 716.403 307.871 716.597 308.124C716.79 308.377 717.153 308.425 717.405 308.231C717.658 308.037 717.706 307.675 717.512 307.422C717.319 307.169 716.956 307.121 716.704 307.315Z" fill="#AA2829"/>
<path d="M712.561 311.527C712.308 311.721 712.26 312.083 712.454 312.336C712.648 312.589 713.01 312.637 713.263 312.444C713.516 312.25 713.564 311.888 713.37 311.635C713.176 311.382 712.814 311.334 712.561 311.527Z" fill="#AA2829"/>
<path d="M702.5 303.138C702.248 303.332 702.2 303.694 702.393 303.947C702.587 304.2 702.949 304.248 703.202 304.054C703.455 303.861 703.503 303.499 703.309 303.246C703.115 302.993 702.753 302.945 702.5 303.138Z" fill="#AA2829"/>
<path d="M700.754 311.019C700.501 311.213 700.454 311.575 700.647 311.828C700.841 312.081 701.203 312.129 701.456 311.936C701.709 311.742 701.757 311.38 701.563 311.127C701.369 310.874 701.007 310.826 700.754 311.019Z" fill="#AA2829"/>
<path d="M696.399 318.613C696.146 318.807 696.098 319.169 696.292 319.422C696.486 319.675 696.848 319.723 697.101 319.529C697.354 319.336 697.401 318.974 697.208 318.721C697.014 318.468 696.652 318.42 696.399 318.613Z" fill="#AA2829"/>
<path d="M691.305 318.467C691.052 318.66 691.004 319.023 691.198 319.276C691.392 319.529 691.754 319.577 692.007 319.383C692.26 319.189 692.308 318.827 692.114 318.574C691.92 318.321 691.558 318.273 691.305 318.467Z" fill="#AA2829"/>
<path d="M683.258 307.288C683.005 307.481 682.957 307.844 683.151 308.097C683.345 308.35 683.707 308.398 683.96 308.204C684.213 308.01 684.261 307.648 684.067 307.395C683.873 307.142 683.511 307.094 683.258 307.288Z" fill="#AA2829"/>
<path d="M696.661 309.153C696.706 309.189 696.768 309.2 696.823 309.212C697.17 309.324 697.624 309.429 697.903 309.115C698.055 308.978 698.143 308.707 697.981 308.545C697.942 308.5 697.887 308.488 697.831 308.468C697.749 308.432 697.668 308.381 697.599 308.322C697.511 308.257 697.495 308.16 697.424 308.078C697.387 308.057 697.356 308.027 697.327 307.995C697.335 307.984 697.344 307.973 697.355 307.961C697.46 307.826 697.545 307.678 697.568 307.507C697.587 307.375 697.539 307.247 697.535 307.117C697.528 307.093 697.542 307.024 697.519 306.983C697.448 306.917 697.34 306.896 697.278 306.815C697.27 306.809 697.266 306.799 697.262 306.794C697.352 306.65 697.287 306.484 697.454 306.431C697.55 306.416 697.67 306.448 697.742 306.364C697.859 306.196 697.825 305.93 697.824 305.765C697.842 305.768 697.862 305.778 697.888 305.762C697.951 305.742 697.986 305.679 698.007 305.62C698.054 305.502 698.099 305.376 698.099 305.247C698.053 305.046 698.001 304.848 697.984 304.641C698.052 304.556 698.154 304.474 698.266 304.467C698.577 304.532 698.53 304.937 698.534 305.159C698.52 305.286 698.433 305.564 698.395 305.731C698.368 305.809 698.331 305.875 698.293 305.966C698.191 306.19 698.103 306.411 698.009 306.674C697.941 306.851 697.91 307.12 697.878 307.278C697.85 307.42 697.813 307.572 697.857 307.717C697.919 307.836 697.987 307.967 698.088 308.056C698.282 308.201 698.514 307.999 698.645 307.857C699.037 307.403 699.09 306.719 699.222 306.09C699.068 306.685 699.083 307.231 698.668 307.723C698.533 307.868 698.291 308.061 698.104 307.898C698.013 307.801 697.935 307.683 697.888 307.556C697.854 307.437 697.891 307.317 697.914 307.2C697.97 306.812 698.013 306.734 698.185 306.291C698.307 306.06 698.439 305.697 698.467 305.538C698.537 305.298 698.599 305.092 698.579 304.838C698.594 304.668 698.531 304.26 698.25 304.317C698.146 304.36 698.035 304.437 697.988 304.543C697.893 304.811 698.006 305.098 698.062 305.367C698.069 305.419 698.055 305.418 698.038 305.481C698.026 305.536 697.959 305.633 697.857 305.603C697.745 305.771 697.806 305.991 697.792 306.184C697.768 306.219 697.743 306.234 697.701 306.245C697.621 306.265 697.535 306.24 697.462 306.275C697.388 306.319 697.364 306.412 697.337 306.491C697.325 306.534 697.312 306.594 697.305 306.632C697.292 306.654 697.276 306.671 697.258 306.685C697.242 306.697 697.227 306.704 697.214 306.715C697.166 306.631 697.141 306.538 697.108 306.447C697.104 306.425 697.099 306.424 697.101 306.41C697.111 306.369 697.125 306.317 697.098 306.259C696.968 306.122 696.992 305.991 696.916 305.838C696.894 305.793 696.869 305.745 696.852 305.695C696.911 305.647 696.924 305.561 696.934 305.487C696.934 305.346 696.869 305.213 696.913 305.08C696.973 304.959 697.019 304.824 697.037 304.69C697.053 304.466 697.06 304.27 697.081 304.075C697.081 304.07 697.082 304.066 697.081 304.058C697.116 304.007 697.157 303.958 697.205 303.917C697.422 303.772 697.737 303.696 697.993 303.754C698.077 303.814 698.123 304.016 698.167 304.127C698.053 304.265 697.838 304.272 697.726 304.424C697.59 304.507 697.428 304.577 697.357 304.728C697.354 304.73 697.342 304.747 697.348 304.738C697.364 304.722 697.374 304.702 697.386 304.684C697.505 304.547 697.658 304.546 697.814 304.414C697.921 304.353 698.061 304.346 698.146 304.251C698.191 304.18 698.222 304.085 698.202 304.005C698.16 303.879 698.126 303.748 698.059 303.633C697.95 303.562 697.802 303.597 697.681 303.611C697.507 303.645 697.328 303.698 697.197 303.82C697.088 303.916 697.038 304.057 697.039 304.199C697.017 304.381 697.008 304.608 696.994 304.802C696.999 304.819 696.945 304.922 696.918 304.985C696.884 305.081 696.873 305.164 696.858 305.259C696.841 305.355 696.866 305.453 696.884 305.547C696.866 305.556 696.848 305.566 696.833 305.578C696.808 305.605 696.8 305.644 696.791 305.68C696.756 305.803 696.847 305.916 696.896 306.023C696.943 306.149 696.95 306.294 697.052 306.39C697.064 306.405 697.068 306.427 697.073 306.449C697.068 306.469 697.061 306.52 697.059 306.534C697.062 306.603 697.103 306.662 697.116 306.727C697.124 306.754 697.134 306.784 697.147 306.811C697.111 306.889 697.087 306.966 697.069 307.062C697.022 307.256 696.99 307.522 697.084 307.819C697.095 307.882 697.143 307.928 697.17 307.974C697.174 307.979 697.178 307.984 697.179 307.991C696.998 308.026 696.886 308.183 696.782 308.325C696.729 308.407 696.635 308.446 696.592 308.537C696.533 308.661 696.456 308.82 696.523 308.951C696.568 309.02 696.608 309.094 696.661 309.153ZM697.14 307.718C697.055 307.472 697.041 307.237 697.089 307.051C697.102 307.012 697.098 306.948 697.178 306.879C697.222 306.941 697.273 306.997 697.336 307.036C697.386 307.069 697.456 307.085 697.49 307.134C697.499 307.19 697.494 307.243 697.501 307.296C697.51 307.377 697.539 307.545 697.536 307.569C697.472 307.696 697.394 307.844 697.279 307.932C697.229 307.862 697.183 307.78 697.14 307.718ZM696.69 308.54C696.818 308.409 696.899 308.206 697.085 308.151C697.14 308.142 697.186 308.119 697.23 308.09C697.257 308.131 697.292 308.171 697.328 308.197C697.431 308.255 697.447 308.363 697.525 308.449C697.593 308.521 697.68 308.575 697.769 308.62C697.831 308.647 697.903 308.654 697.947 308.712C697.991 308.748 698.01 308.821 698.017 308.857C698.008 308.873 697.996 308.89 697.983 308.905C697.751 309.215 697.307 309.21 696.968 309.076C696.878 309.045 696.771 309.052 696.692 308.987C696.643 308.917 696.546 308.813 696.53 308.738C696.562 308.672 696.62 308.595 696.69 308.54Z" fill="#AA2829"/>
</svg>
