<svg width="1112" height="482" viewBox="0 0 1112 482" fill="none" xmlns="http://www.w3.org/2000/svg">
<path d="M887.069 193.13C878.746 190.035 876.524 173.123 883.188 155.209C889.852 137.295 918.099 118.153 918.254 138.033C918.338 148.9 905.174 155.589 902.685 166.784C897.385 190.643 895.392 196.224 887.069 193.13Z" fill="#E69264"/>
<path opacity="0.3608" d="M884.181 187.738C884.798 186.779 886.221 185.619 887.241 184.558C887.809 183.967 888.392 183.02 887.828 182.425C887.399 181.97 886.588 182.176 886.177 182.647C885.765 183.117 885.617 183.756 885.391 184.342C885.165 184.927 884.782 185.527 884.17 185.671C883.649 185.795 883.09 185.531 882.742 185.12C882.393 184.709 882.224 184.18 882.119 183.653C881.867 182.406 882.098 180.819 883.276 180.332C883.88 180.08 884.568 180.2 885.216 180.286C885.864 180.371 886.585 180.401 887.112 180.01C887.639 179.623 887.743 178.66 887.155 178.376C886.229 178.607 885.352 179.008 884.417 179.21C883.481 179.412 882.439 179.389 881.661 178.836C880.883 178.282 880.541 177.077 881.144 176.335C881.539 175.85 882.221 175.683 882.847 175.722C883.473 175.761 884.071 175.977 884.68 176.125C887.349 176.776 892.446 175.424 891.95 174.588C891.584 173.965 888.59 174.598 886.662 174.77C884.734 174.942 882.558 174.643 881.335 173.147C880.917 172.633 880.633 171.98 880.681 171.322C880.729 170.661 881.152 170.01 881.781 169.809C882.692 169.516 883.598 170.17 884.432 170.639C885.265 171.108 886.537 171.298 886.994 170.458C886.127 169.623 884.855 169.424 883.725 169.009C882.595 168.594 881.421 167.695 881.494 166.493C881.554 165.464 882.564 164.697 883.585 164.547C884.606 164.397 885.63 164.717 886.612 165.03C888.214 165.544 889.812 166.054 891.414 166.568C892.175 166.811 893.239 166.934 893.564 166.204C893.777 165.724 893.475 165.144 893.031 164.866C892.589 164.584 892.045 164.528 891.527 164.468C889.573 164.246 887.634 163.895 885.723 163.422C884.687 163.163 883.523 162.749 883.146 161.75C882.727 160.638 883.552 159.418 884.544 158.765C886.293 157.606 888.572 157.485 890.616 157.969C892.661 158.452 894.526 159.481 896.361 160.496C896.569 160.079 896.412 159.557 896.105 159.211C895.794 158.864 895.363 158.659 894.938 158.47C893.103 157.659 891.182 157.037 889.22 156.616C888.459 156.451 887.669 156.309 887.018 155.882C886.367 155.456 885.891 154.649 886.108 153.901C886.334 153.112 887.247 152.69 888.068 152.741C888.888 152.792 889.635 153.202 890.355 153.595C891.075 153.988 891.841 154.379 892.66 154.392C893.05 154.399 893.541 154.19 893.503 153.803C893.484 153.608 893.332 153.457 893.175 153.339C891.729 152.263 889.313 152.645 888.372 151.108C887.924 150.376 888.034 149.35 888.624 148.727C889.213 148.105 890.233 147.944 890.987 148.353C891.735 148.756 892.14 149.589 892.771 150.16C893.403 150.728 894.61 150.891 894.956 150.115C895.199 149.571 894.817 148.93 894.317 148.607C893.818 148.283 893.216 148.162 892.68 147.9C891.905 147.521 891.261 146.773 891.217 145.912C891.173 145.051 891.894 144.162 892.428 143.838C892.966 143.515 893.602 143.234 894.075 143.381C894.548 143.528 894.88 143.935 895.212 144.305C896.672 145.928 898.614 147.11 900.727 147.661C901.154 147.773 901.615 147.859 902.029 147.705C902.442 147.551 902.771 147.083 902.614 146.67C902.506 146.384 902.244 146.127 901.942 146.071C900.308 145.767 899.025 145.082 897.668 144.358C896.888 143.943 895.304 142.931 895.128 142.067C894.768 140.276 897.127 138.911 897.643 138.915C898.159 138.92 898.615 139.229 899.036 139.526C899.636 139.95 900.237 140.374 900.835 140.794C901.103 140.984 901.381 141.177 901.703 141.234C902.025 141.292 902.403 141.184 902.548 140.891C902.762 140.462 902.387 139.98 902.01 139.683C901.303 139.131 900.484 138.723 899.616 138.497C899.387 138.435 899.126 138.366 899.02 138.152C898.917 137.939 899.025 137.688 899.153 137.492C899.81 136.495 901.099 135.958 902.27 136.196C903.156 136.376 903.905 136.94 904.664 137.434C905.42 137.928 906.278 138.38 907.181 138.295C907.509 138.263 907.847 138.151 908.07 137.912C908.298 137.67 908.382 137.284 908.213 136.999C907.997 136.642 907.514 136.588 907.102 136.521C906.447 136.41 905.816 136.159 905.263 135.791C904.934 135.572 904.606 135.254 904.604 134.859C904.602 134.386 905.057 134.052 905.464 133.812C906.706 133.086 908.016 132.452 909.421 132.154C910.826 131.857 912.342 131.917 913.638 132.534C914.934 133.151 915.979 134.374 916.184 135.796C916.258 136.308 916.18 136.913 915.74 137.186C915.328 137.443 914.795 137.291 914.344 137.112C910.957 135.762 911.144 136.075 910.929 136.224C910.674 136.398 911.925 137.598 912.653 137.949C913.417 138.316 914.276 138.455 915.017 138.863C915.757 139.271 916.386 140.107 916.112 140.935C916.286 141.673 915.821 142.46 915.157 142.825C914.493 143.191 913.685 143.201 912.943 143.041C912.202 142.877 911.508 142.555 910.801 142.284C909.396 141.746 907.922 141.403 906.423 141.262C906.191 141.241 905.95 141.224 905.734 141.312C905.518 141.4 905.342 141.624 905.383 141.852C905.423 142.07 905.636 142.209 905.835 142.31C906.984 142.893 908.282 143.085 909.526 143.427C910.766 143.768 912.037 144.324 912.756 145.393C913.476 146.46 913.387 148.144 912.289 148.814C911.489 149.299 910.434 149.114 909.623 148.65C908.811 148.186 908.169 147.487 907.459 146.879C907.098 146.57 906.689 146.276 906.218 146.218C905.746 146.16 905.205 146.428 905.111 146.894C905.002 147.447 905.528 147.907 906.015 148.19C906.744 148.615 907.531 148.957 908.175 149.508C908.818 150.058 909.311 150.876 909.192 151.713C909.091 152.419 908.568 153.007 907.952 153.371C906.611 154.171 904.879 154.039 903.441 153.43C902.002 152.825 900.788 151.801 899.572 150.827C899.173 150.508 898.743 150.178 898.235 150.131C897.726 150.084 897.147 150.451 897.171 150.961C897.194 151.449 897.707 151.746 898.152 151.95C899.484 152.559 900.817 153.168 902.149 153.777C902.814 154.081 903.49 154.391 904.038 154.873C904.587 155.355 905.001 156.045 904.979 156.777C904.951 157.695 904.214 158.498 903.336 158.769C902.457 159.039 901.487 158.855 900.667 158.44C899.847 158.026 899.154 157.402 898.496 156.763C898.12 156.395 897.718 156.005 897.201 155.898C896.688 155.788 896.044 156.115 896.04 156.641C896.033 157.112 896.496 157.436 896.905 157.672C897.555 158.048 898.208 158.424 898.858 158.799C899.583 159.217 902.145 160.623 901.581 162.571C901.348 163.372 900.51 164.034 899.718 163.858C898.007 163.2 896.296 162.543 894.585 161.883C892.933 161.247 891.059 160.617 889.455 161.364C889.108 161.524 888.747 161.861 888.862 162.227C888.964 162.548 889.365 162.646 889.7 162.694C891.913 163.019 894.103 163.519 896.241 164.185C897.272 164.507 898.342 164.9 899.026 165.733C899.632 166.471 899.847 167.463 899.814 168.414C899.781 169.364 899.519 170.294 899.26 171.211C899.123 171.697 898.938 172.241 898.477 172.448C897.997 172.666 897.445 172.415 896.975 172.173C894.729 171.024 892.401 170.034 890.018 169.21C889.745 169.117 889.463 169.022 889.181 169.063C888.896 169.1 888.615 169.311 888.591 169.593C888.56 169.997 889.01 170.25 889.39 170.387C890.963 170.959 892.597 171.399 894.08 172.175C895.564 172.952 896.921 174.135 897.481 175.715C898.153 177.618 897.57 179.708 896.982 181.64C896.858 182.051 896.7 182.5 896.32 182.7C895.728 183.009 895.048 182.524 894.56 182.071C893.736 181.309 892.912 180.546 892.088 179.783C891.785 179.503 891.464 179.211 891.065 179.106C890.667 179.002 890.167 179.148 890.018 179.535C889.801 180.099 890.416 180.612 890.931 180.929C891.961 181.563 892.932 182.295 893.829 183.107C894.731 183.926 895.608 184.947 895.644 186.163C895.687 187.595 894.578 188.766 893.547 189.76C893.044 190.245 892.272 190.757 891.715 190.334C891.25 189.981 891.349 189.279 891.414 188.701C891.56 187.371 891.257 185.999 890.563 184.858C890.424 184.629 890.224 184.381 889.953 184.377C889.689 184.375 889.476 184.623 889.427 184.886C889.377 185.149 889.443 185.414 889.507 185.672C889.782 186.802 889.945 187.958 889.994 189.123C890.015 189.608 890.015 190.104 889.846 190.558C889.677 191.011 889.308 191.418 888.833 191.509C888.411 191.589 887.983 191.413 887.602 191.211C886.142 190.42 883.866 188.233 884.181 187.738Z" fill="#FDDFD3"/>
<path d="M888.67 188.275C888.749 187.967 888.561 187.653 888.252 187.575C887.944 187.496 887.63 187.683 887.552 187.992C887.473 188.301 887.661 188.615 887.97 188.693C888.279 188.771 888.592 188.584 888.67 188.275Z" fill="#AA2829"/>
<path d="M895.139 176.822C895.217 176.513 895.03 176.2 894.721 176.122C894.412 176.043 894.098 176.23 894.02 176.539C893.942 176.848 894.129 177.162 894.438 177.24C894.747 177.318 895.061 177.131 895.139 176.822Z" fill="#AA2829"/>
<path d="M888.653 172.886C888.731 172.578 888.544 172.264 888.235 172.186C887.926 172.108 887.612 172.295 887.534 172.603C887.456 172.912 887.643 173.226 887.952 173.304C888.261 173.382 888.575 173.195 888.653 172.886Z" fill="#AA2829"/>
<path d="M885.969 167.023C886.047 166.714 885.86 166.4 885.551 166.322C885.242 166.244 884.929 166.431 884.85 166.74C884.772 167.049 884.959 167.363 885.268 167.441C885.577 167.519 885.891 167.332 885.969 167.023Z" fill="#AA2829"/>
<path d="M886.604 161.149C886.682 160.84 886.495 160.527 886.186 160.448C885.877 160.37 885.563 160.557 885.485 160.866C885.407 161.175 885.594 161.489 885.903 161.567C886.212 161.645 886.526 161.458 886.604 161.149Z" fill="#AA2829"/>
<path d="M899.698 161.487C899.776 161.178 899.589 160.864 899.28 160.786C898.971 160.708 898.657 160.895 898.579 161.204C898.501 161.512 898.688 161.826 898.997 161.904C899.306 161.982 899.62 161.795 899.698 161.487Z" fill="#AA2829"/>
<path d="M896.18 154.222C896.258 153.913 896.071 153.599 895.762 153.521C895.453 153.443 895.139 153.63 895.061 153.939C894.983 154.248 895.17 154.561 895.479 154.639C895.788 154.718 896.102 154.531 896.18 154.222Z" fill="#AA2829"/>
<path d="M894.883 145.564C894.961 145.255 894.774 144.942 894.465 144.864C894.156 144.785 893.843 144.972 893.764 145.281C893.686 145.59 893.874 145.904 894.182 145.982C894.491 146.06 894.805 145.873 894.883 145.564Z" fill="#AA2829"/>
<path d="M898.969 142.518C899.047 142.209 898.86 141.896 898.551 141.818C898.242 141.739 897.929 141.926 897.85 142.235C897.772 142.544 897.959 142.858 898.268 142.936C898.577 143.014 898.891 142.827 898.969 142.518Z" fill="#AA2829"/>
<path d="M912.215 146.294C912.294 145.985 912.106 145.671 911.797 145.593C911.488 145.515 911.175 145.702 911.097 146.011C911.018 146.319 911.206 146.633 911.515 146.711C911.823 146.789 912.137 146.602 912.215 146.294Z" fill="#AA2829"/>
<path d="M900.546 153.147C900.488 153.146 900.433 153.176 900.382 153.201C900.04 153.329 899.619 153.528 899.595 153.947C899.561 154.149 899.66 154.416 899.888 154.443C899.946 154.454 899.997 154.429 900.053 154.41C900.14 154.387 900.234 154.377 900.326 154.38C900.435 154.377 900.507 154.443 900.614 154.463C900.656 154.457 900.7 154.461 900.742 154.468C900.742 154.482 900.742 154.495 900.741 154.512C900.742 154.683 900.767 154.852 900.856 155C900.922 155.116 901.04 155.186 901.124 155.286C901.144 155.301 901.175 155.363 901.219 155.381C901.315 155.388 901.413 155.338 901.512 155.363C901.523 155.363 901.531 155.368 901.538 155.37C901.556 155.538 901.711 155.628 901.613 155.773C901.547 155.845 901.432 155.894 901.428 156.005C901.441 156.209 901.632 156.397 901.735 156.525C901.719 156.534 901.698 156.539 901.687 156.567C901.65 156.622 901.662 156.693 901.681 156.753C901.718 156.874 901.761 157.001 901.841 157.102C902.002 157.231 902.165 157.354 902.307 157.506C902.307 157.614 902.278 157.743 902.194 157.817C901.91 157.959 901.695 157.613 901.555 157.441C901.487 157.332 901.382 157.061 901.309 156.907C901.281 156.828 901.269 156.754 901.242 156.659C901.184 156.419 901.116 156.191 901.026 155.927C900.97 155.746 900.827 155.517 900.755 155.372C900.689 155.244 900.623 155.101 900.498 155.015C900.376 154.96 900.242 154.899 900.107 154.893C899.864 154.899 899.808 155.201 899.793 155.394C899.768 155.993 900.151 156.563 900.437 157.138C900.189 156.576 899.839 156.157 899.859 155.513C899.874 155.316 899.944 155.014 900.193 155.026C900.324 155.046 900.459 155.09 900.574 155.16C900.674 155.233 900.72 155.35 900.775 155.456C900.971 155.794 900.986 155.883 901.126 156.337C901.174 156.594 901.295 156.961 901.372 157.103C901.466 157.334 901.545 157.534 901.719 157.721C901.812 157.863 902.115 158.144 902.299 157.925C902.355 157.827 902.394 157.698 902.365 157.585C902.273 157.317 902.006 157.161 901.796 156.985C901.757 156.949 901.769 156.941 901.744 156.881C901.719 156.83 901.712 156.713 901.81 156.673C901.793 156.471 901.61 156.337 901.5 156.176C901.497 156.135 901.508 156.107 901.533 156.073C901.584 156.007 901.667 155.974 901.703 155.901C901.733 155.821 901.694 155.732 901.667 155.654C901.65 155.612 901.623 155.558 901.604 155.523C901.601 155.498 901.603 155.475 901.609 155.452C901.614 155.433 901.621 155.418 901.625 155.402C901.714 155.438 901.792 155.495 901.874 155.547C901.891 155.561 901.895 155.559 901.902 155.571C901.919 155.609 901.941 155.659 901.998 155.687C902.185 155.714 902.247 155.832 902.402 155.905C902.448 155.927 902.497 155.949 902.541 155.977C902.525 156.051 902.567 156.127 902.606 156.191C902.693 156.301 902.827 156.366 902.875 156.497C902.903 156.63 902.95 156.764 903.02 156.88C903.146 157.065 903.263 157.224 903.367 157.39C903.369 157.394 903.372 157.398 903.377 157.403C903.382 157.465 903.379 157.529 903.367 157.59C903.287 157.839 903.087 158.094 902.851 158.208C902.747 158.212 902.586 158.083 902.482 158.023C902.487 157.844 902.651 157.705 902.644 157.516C902.699 157.367 902.783 157.211 902.746 157.049C902.746 157.046 902.745 157.025 902.746 157.035C902.743 157.059 902.748 157.08 902.75 157.101C902.741 157.282 902.622 157.378 902.581 157.578C902.535 157.693 902.43 157.785 902.422 157.912C902.431 157.996 902.465 158.09 902.531 158.14C902.642 158.213 902.75 158.294 902.874 158.343C903.003 158.331 903.098 158.212 903.184 158.125C903.3 157.991 903.407 157.838 903.434 157.662C903.46 157.519 903.411 157.377 903.323 157.266C903.227 157.109 903.093 156.926 902.984 156.766C902.97 156.755 902.947 156.641 902.93 156.575C902.897 156.479 902.854 156.407 902.807 156.323C902.761 156.237 902.681 156.176 902.608 156.113C902.616 156.095 902.624 156.077 902.629 156.057C902.632 156.021 902.613 155.985 902.598 155.951C902.55 155.833 902.408 155.801 902.303 155.747C902.188 155.677 902.093 155.568 901.953 155.557C901.934 155.552 901.917 155.537 901.9 155.523C901.892 155.504 901.865 155.46 901.858 155.448C901.814 155.395 901.744 155.374 901.694 155.331C901.671 155.315 901.644 155.298 901.617 155.285C901.597 155.201 901.569 155.126 901.523 155.04C901.439 154.859 901.3 154.63 901.041 154.456C900.994 154.413 900.928 154.406 900.878 154.387C900.872 154.385 900.865 154.384 900.86 154.379C900.98 154.24 900.971 154.047 900.964 153.872C900.955 153.774 901.005 153.685 900.982 153.587C900.951 153.454 900.913 153.281 900.779 153.22C900.701 153.193 900.624 153.16 900.546 153.147ZM901.06 154.569C901.28 154.71 901.436 154.885 901.514 155.061C901.528 155.099 901.57 155.147 901.551 155.251C901.478 155.229 901.403 155.217 901.329 155.225C901.27 155.231 901.205 155.262 901.148 155.244C901.106 155.206 901.077 155.162 901.039 155.125C900.982 155.066 900.854 154.952 900.842 154.932C900.813 154.792 900.783 154.628 900.819 154.488C900.901 154.512 900.987 154.547 901.06 154.569ZM900.903 153.645C900.884 153.828 900.946 154.037 900.835 154.196C900.797 154.237 900.775 154.283 900.759 154.333C900.712 154.318 900.66 154.308 900.615 154.31C900.498 154.328 900.419 154.254 900.304 154.235C900.206 154.221 900.104 154.232 900.008 154.252C899.942 154.269 899.881 154.308 899.811 154.291C899.753 154.29 899.693 154.244 899.665 154.22C899.663 154.202 899.661 154.181 899.663 154.161C899.652 153.774 900.003 153.503 900.353 153.398C900.443 153.366 900.522 153.294 900.624 153.296C900.706 153.32 900.847 153.342 900.906 153.391C900.921 153.463 900.924 153.559 900.903 153.645Z" fill="#AA2829"/>
</svg>
