<svg width="579" height="341" viewBox="0 0 579 341" fill="none" xmlns="http://www.w3.org/2000/svg">
<path d="M108.41 129.221C117.773 119.52 121.153 107.605 115.96 102.607C110.766 97.6094 98.9651 101.422 89.6016 111.123C80.2381 120.823 76.8578 132.739 82.0515 137.737C87.2452 142.734 99.0461 138.922 108.41 129.221Z" fill="#9CC09B"/>
<path d="M80.9749 124.934L83.4109 122.294C83.4109 122.294 82.7498 121.903 83.8271 120.656C85.0879 119.202 85.553 119.837 85.553 119.837L87.9523 117.234C87.9523 117.234 86.9485 116.928 88.3562 115.266C89.8129 113.555 90.4372 114.374 90.4372 114.374L92.7018 111.868C92.7018 111.868 91.9306 111.563 93.0568 110.353C94.1829 109.143 94.6114 109.693 94.6114 109.693L100.72 102.909L101.491 102.689L94.8684 109.876C94.8684 109.876 95.4805 110.072 94.489 111.221C93.375 112.516 92.9588 112.027 92.9588 112.027L90.7065 114.594C90.7065 114.594 91.3308 114.875 90.1312 116.329C88.6867 118.077 88.1971 117.381 88.1971 117.381L85.908 119.972C85.908 119.972 86.5813 120.387 85.4918 121.671C84.2555 123.113 83.6924 122.465 83.6924 122.465L80.6077 125.789L80.9749 124.934Z" fill="#50844E"/>
<path d="M81.5377 137.401L84.8795 133.38C84.8795 133.38 84.1573 133.246 85.3814 131.73C86.5565 130.276 87.0339 130.826 87.0339 130.826L90.1554 127.012C90.1554 127.012 89.3352 126.719 90.7552 125.008C92.0772 123.419 92.7505 123.92 92.7505 123.92L97.4633 118.371C97.5857 118.273 97.8427 118.469 97.7693 118.603L92.9953 124.103C92.9953 124.103 93.4237 124.446 92.2364 125.998C90.9266 127.709 90.4002 127.171 90.4002 127.171L87.2788 131.033C87.2788 131.033 87.7562 131.363 86.7402 132.659C85.5528 134.162 85.0998 133.502 85.0998 133.502L81.7825 137.572L81.5377 137.401Z" fill="#50844E"/>
<path d="M79.7877 128.894C79.7877 128.894 85.8225 122.686 87.7321 120.534C89.6785 118.359 95.1992 111.612 95.1992 111.612C95.2848 111.576 95.4195 111.661 95.4317 111.759V111.783C95.4317 111.783 89.6907 118.774 87.6832 121.023C85.7981 123.126 79.8612 129.2 79.8612 129.2L79.7877 128.894Z" fill="#50844E"/>
<path d="M90.2168 139.772L102.323 124.433L109.301 115.083C109.386 115.046 109.521 115.132 109.533 115.23V115.254L102.433 124.91L90.5473 139.796L90.2168 139.772Z" fill="#50844E"/>
<path d="M106.35 102.457L108.138 100.392L107.734 100.453L106.093 102.274C106.093 102.274 105.457 101.614 104.306 103.19C103.449 104.364 104.086 104.682 104.086 104.682L102.69 106.515C102.69 106.515 101.993 105.757 100.989 107.138C100.022 108.483 100.964 108.825 100.964 108.825L99.4097 110.573C99.4097 110.573 98.9813 109.962 97.696 111.465C96.7167 112.614 97.4634 113.066 97.4634 113.066C97.4634 113.066 96.937 113.445 97.0839 113.775C97.2186 114.093 97.9775 114.533 98.0754 114.582L96.4474 116.72C96.4474 116.72 95.8598 116.073 94.6724 117.625C93.632 118.982 94.3052 119.385 94.3052 119.385L91.0858 123.076C91.0858 123.076 90.5962 122.538 89.2497 124.127C88.0011 125.606 88.6499 126.242 88.6499 126.242L85.6263 129.884C85.6263 129.884 85.3203 129.407 84.2431 130.788C83.3006 132.01 83.778 132.194 83.778 132.194L80.5219 135.885L80.7299 136.203L84.035 132.365C84.035 132.365 84.341 132.768 85.4305 131.473C86.5199 130.177 85.8712 130.043 85.8712 130.043L88.8825 126.376C88.8825 126.376 89.2374 126.828 90.6452 125.007C92.0162 123.235 91.4041 123.247 91.4041 123.247L94.648 119.495C94.648 119.495 95.1254 120.131 96.3372 118.578C97.3777 117.246 96.7167 116.867 96.7167 116.867L98.0877 114.997L98.357 114.679C98.3937 114.643 98.3692 114.582 98.3325 114.533H98.357C98.357 114.533 97.3532 114.007 97.3287 113.763C97.3043 113.628 97.7205 113.2 97.7205 113.2C97.7205 113.2 98.3447 113.787 99.4954 112.357C100.499 111.11 99.679 110.707 99.679 110.707L101.185 108.947C101.185 108.947 101.748 109.595 102.727 108.177C103.535 107.004 102.935 106.71 102.935 106.71L104.318 104.84C104.318 104.84 104.71 105.488 105.787 104.083C106.852 102.702 106.35 102.457 106.35 102.457Z" fill="#50844E"/>
<path d="M109.46 103.985L112.03 100.575L111.687 100.49L109.166 103.802C109.166 103.802 108.97 103.46 108.015 104.535C106.852 105.831 107.391 106.038 107.391 106.038C107.391 106.038 102.348 112.431 102.311 112.48C101.674 113.335 101.283 113.225 101.123 113.127L101.136 113.103C101.136 113.103 100.462 112.883 101.368 111.783C101.393 111.746 102.286 110.671 102.348 110.573C102.47 110.414 102.629 110.231 102.629 110.231C102.629 110.231 103.131 110.83 104.282 109.387C105.285 108.141 104.575 107.737 104.575 107.737L106.424 105.317C106.424 105.317 106.767 105.745 107.746 104.327C108.554 103.154 108.174 103.068 108.174 103.068L110.574 100.27L110.17 100.245L107.917 102.861C107.917 102.861 107.403 102.225 106.412 103.606C105.445 104.963 106.203 105.171 106.203 105.171L104.318 107.578C104.318 107.578 104 107.028 102.715 108.532C101.735 109.681 102.384 110.072 102.384 110.072L101.674 110.866C101.674 110.866 100.487 112.186 100.609 112.712C100.646 112.907 100.768 113.042 100.866 113.14C100.866 113.14 101.16 113.47 101.601 113.445C102.176 113.408 103.168 111.954 103.168 111.954L107.636 106.21C107.636 106.21 108.076 106.87 109.166 105.598C110.267 104.303 109.46 103.985 109.46 103.985Z" fill="#50844E"/>
<path d="M107.428 123.968C107.428 123.968 107.416 123.797 107.085 123.528H107.073C107.024 123.479 106.755 123.223 106.351 123.235C105.763 123.271 104.747 124.714 104.747 124.714L103.205 126.596C103.205 126.596 102.531 126.4 101.552 127.598C100.389 129.016 101.148 129.089 101.148 129.089L98.2104 132.927C98.2104 132.927 97.8554 132.365 96.8149 133.599C95.701 134.944 96.362 135.2 96.362 135.2L92.9957 139.234L93.5466 139.087L96.7415 135.42C96.7415 135.42 96.9985 135.824 97.9289 134.687C99.055 133.318 98.4063 133.013 98.4063 133.013L101.381 129.321C101.381 129.321 101.883 129.737 102.911 128.478C104.062 127.06 103.474 126.804 103.474 126.804C103.474 126.804 105.567 124.261 105.604 124.213C106.228 123.406 106.62 123.443 106.804 123.54C106.902 123.626 107.012 123.711 107.024 123.724C107.416 124.237 107.122 124.42 107.048 124.653L106.289 125.655L104.686 127.525C104.686 127.525 104.013 127.329 103.033 128.527C101.87 129.945 102.629 130.018 102.629 130.018L99.6916 133.856C99.6916 133.856 99.3366 133.294 98.2961 134.528C97.1822 135.873 97.8432 136.129 97.8432 136.129L96.2396 138.048L96.9128 137.853L98.2226 136.349C98.2226 136.349 98.4797 136.753 99.41 135.616C100.536 134.247 99.8874 133.941 99.8874 133.941L102.862 130.25C102.862 130.25 103.364 130.666 104.392 129.407C105.543 127.989 104.955 127.733 104.955 127.733C104.955 127.733 107.048 125.19 107.085 125.141C107.097 125.129 107.318 124.824 107.416 124.543C107.538 124.237 107.44 123.993 107.428 123.968Z" fill="#50844E"/>
<path d="M112.679 118.603C112.018 119.557 111.651 119.385 111.541 119.3V119.275C111.541 119.275 110.867 119.068 111.736 117.943C111.761 117.907 112.605 116.794 112.667 116.709C112.777 116.538 112.936 116.354 112.936 116.354C112.936 116.354 113.45 116.941 114.552 115.474C115.507 114.191 114.797 113.8 114.797 113.8L118.518 108.569L118.42 108.202L114.503 113.641C114.503 113.641 114.16 113.091 112.936 114.631C111.993 115.817 112.654 116.195 112.654 116.195L111.981 117.014C111.981 117.014 110.855 118.371 110.977 118.897C111.039 119.129 111.173 119.275 111.296 119.361C111.308 119.373 111.553 119.654 111.957 119.593C112.483 119.52 113.426 118.029 113.426 118.029L118.432 110.891L118.334 110.585C118.371 110.598 113.646 117.198 112.679 118.603Z" fill="#50844E"/>
<path d="M105.445 112.419C105.445 112.419 105.751 112.737 106.204 112.749C106.546 112.762 106.926 112.322 107.22 111.943C107.513 111.564 107.734 111.234 107.734 111.234L107.93 110.928C107.93 110.928 108.407 111.246 109.301 110.024C110.451 108.423 109.9 108.459 109.9 108.459L114.907 101.664L114.564 101.505L109.68 108.239C109.68 108.239 109.203 107.812 108.223 109.07C107.097 110.525 107.722 110.72 107.722 110.72C107.722 110.72 107.048 111.735 107.012 111.796C106.693 112.224 106.436 112.468 106.191 112.505C105.714 112.578 105.396 112.126 105.396 112.126L105.445 112.419Z" fill="#50844E"/>
<path d="M109.9 108.459L114.907 101.664L114.564 101.505L109.68 108.239C109.68 108.239 109.203 107.811 108.223 109.07C107.097 110.525 107.722 110.72 107.722 110.72C107.722 110.72 107.048 111.735 107.012 111.796C106.693 112.224 106.436 112.468 106.191 112.505C105.726 112.566 105.408 112.138 105.396 112.126C105.298 111.93 105.286 111.564 105.812 110.928C105.849 110.879 106.62 109.914 106.62 109.914C106.62 109.914 106.963 110.39 108.113 108.948C109.117 107.701 108.566 107.42 108.566 107.42L110.868 104.475C110.868 104.475 111.21 104.902 112.19 103.485C112.997 102.311 112.618 102.226 112.618 102.226L113.683 100.991L113.328 100.894L112.361 102.018C112.361 102.018 111.847 101.382 110.855 102.764C109.888 104.12 110.647 104.328 110.647 104.328L108.309 107.261C108.309 107.261 108.101 106.748 106.816 108.251C105.836 109.4 106.363 109.755 106.363 109.755L106.118 110.024C106.118 110.024 104.931 111.344 105.053 111.869C105.139 112.272 105.751 112.627 105.751 112.627L105.739 112.602C105.861 112.676 106.032 112.737 106.216 112.737C106.559 112.749 106.938 112.309 107.232 111.93C107.526 111.551 107.746 111.221 107.746 111.221L107.942 110.916C107.942 110.916 108.419 111.234 109.313 110.011C110.451 108.435 109.9 108.459 109.9 108.459Z" fill="#50844E"/>
<path d="M117.049 108.336L118.286 106.539L118.102 106.282L116.804 108.201C116.804 108.201 116.462 108.018 115.874 108.739C114.723 110.169 115.36 110.352 115.36 110.352C115.36 110.352 111.602 115.926 111.565 115.975C111.247 116.402 110.99 116.647 110.745 116.684C110.513 116.72 110.317 116.622 110.17 116.525L110.182 116.463C110.182 116.463 109.509 116.256 110.378 115.131C110.415 115.082 111.149 114.08 111.149 114.08C111.149 114.08 111.663 114.667 112.753 113.188C113.707 111.905 112.997 111.513 112.997 111.513L114.405 109.546C114.405 109.546 114.821 110.022 115.752 108.556C116.523 107.346 116.07 107.223 116.07 107.223L117.71 104.791L117.465 104.596L115.813 107.028C115.813 107.028 115.36 106.478 114.417 107.908C113.499 109.301 114.185 109.411 114.185 109.411L112.74 111.367C112.74 111.367 112.398 110.817 111.186 112.369C110.255 113.555 110.904 113.933 110.904 113.933L110.672 114.215C110.672 114.215 109.545 115.571 109.668 116.109C109.729 116.378 109.925 116.537 110.047 116.61C110.084 116.647 110.366 116.916 110.782 116.928C111.125 116.94 111.504 116.5 111.798 116.121C112.092 115.742 112.312 115.412 112.312 115.412L115.605 110.548C115.605 110.548 116.058 110.902 116.976 109.643C117.637 108.702 117.049 108.336 117.049 108.336Z" fill="#50844E"/>
<path d="M114.98 106.197L116.841 103.435L116.633 103.166L114.674 105.952C114.674 105.952 114.27 105.537 113.303 106.808C112.177 108.262 112.801 108.458 112.801 108.458C112.801 108.458 109.704 113.078 109.668 113.127C109.349 113.555 109.092 113.799 108.848 113.836C108.578 113.872 108.37 113.75 108.223 113.628C108.089 113.481 107.978 113.151 108.603 112.406C108.639 112.357 109.215 111.77 109.215 111.77C109.215 111.77 109.594 112.308 110.745 110.878C111.749 109.631 111.173 109.277 111.173 109.277L113.903 105.439C113.903 105.439 114.221 105.818 115.213 104.4C116.021 103.227 115.641 103.141 115.641 103.141L116.009 102.493L115.813 102.249L115.384 102.933C115.384 102.933 114.87 102.298 113.879 103.679C112.912 105.036 113.67 105.243 113.67 105.243L110.904 109.118C110.904 109.118 110.561 108.556 109.398 110.145C108.468 111.403 108.933 111.611 108.933 111.611C108.933 111.611 107.721 112.748 107.844 113.347C107.929 113.75 108.333 113.933 108.333 113.933L108.346 113.897C108.48 113.982 108.664 114.056 108.896 114.068C109.239 114.08 109.619 113.64 109.912 113.261C110.206 112.882 110.427 112.552 110.427 112.552L113.058 108.653C113.058 108.653 113.499 108.996 114.429 107.749C115.433 106.368 114.98 106.197 114.98 106.197Z" fill="#50844E"/>
<path d="M101.907 122.648C101.821 122.501 101.699 122.367 101.601 122.281C101.601 122.281 101.307 121.951 100.866 121.976C100.279 122.013 99.2383 123.467 99.2383 123.467L98.8465 123.993C98.8465 123.993 98.1733 123.797 97.194 124.995C96.0311 126.413 96.7901 126.486 96.7901 126.486L93.5584 130.654C93.5584 130.654 93.2034 130.091 92.163 131.326C91.049 132.67 91.71 132.927 91.71 132.927L86.0057 139.735L86.2506 139.845L92.0895 133.147C92.0895 133.147 92.3466 133.55 93.2769 132.414C94.4031 131.045 93.7543 130.739 93.7543 130.739L97.0226 126.718C97.0226 126.718 97.5245 127.146 98.5528 125.875C99.63 124.53 99.177 124.261 99.0914 124.225C99.0914 124.225 99.0914 124.225 99.1036 124.213C99.1771 124.127 100.058 123.003 100.083 122.966C100.976 121.817 101.429 122.379 101.429 122.379C101.637 122.563 101.907 123.003 101.197 123.785C100.952 124.066 100.254 124.97 100.254 124.97C100.254 124.97 99.8381 124.42 98.6262 125.863C97.5735 127.121 98.2223 127.549 98.2223 127.549L94.807 131.473C94.807 131.473 94.2562 131.301 93.3748 132.34C92.5914 133.269 92.8974 133.783 92.8974 133.783L92.2854 134.626C92.2854 134.626 91.6733 134.088 90.5594 135.457C89.6413 136.594 90.082 136.985 90.082 136.985L87.8052 139.955L88.0989 140.077L90.3513 137.168C90.3513 137.168 91.0613 137.73 92.163 136.361C93.179 135.103 92.4935 134.785 92.4935 134.785L93.179 133.978C93.179 133.978 93.7298 134.357 94.7091 133.318C95.7863 132.157 95.113 131.534 95.113 131.534L98.5528 127.72C98.5528 127.72 98.92 128.356 100.071 126.938C101.05 125.74 100.475 125.154 100.475 125.154L101.503 123.809C101.54 123.821 102.09 122.978 101.907 122.648Z" fill="#50844E"/>
<path d="M97.4512 123.223C97.3777 122.991 97.2553 122.832 97.1451 122.722C97.1329 122.71 97.1084 122.686 97.0594 122.649C96.9982 122.6 96.9615 122.576 96.9615 122.576C96.8269 122.502 96.6433 122.417 96.4229 122.429C95.7619 122.466 93.889 124.959 93.889 124.959C93.889 124.959 93.5585 124.629 92.0774 126.45C90.9267 127.868 91.502 128.149 91.502 128.149C91.502 128.149 89.0416 131.204 88.1847 132.194C86.8382 133.759 82.6763 138.367 82.6763 138.367L82.8599 138.526C82.8599 138.526 87.0708 133.893 88.4295 132.317C89.2742 131.339 91.7224 128.369 91.7224 128.369C91.7224 128.369 92.3711 128.748 93.5218 127.269C95.0152 125.35 94.1828 125.032 94.1828 125.032C94.1828 125.032 95.4436 123.553 95.4804 123.504C96.4352 122.356 96.9003 122.796 96.937 122.832C97.1084 122.991 97.3165 123.37 96.6188 124.177C96.5698 124.226 92.1753 129.457 92.1753 129.457C92.1753 129.457 91.7346 128.846 90.535 130.288C89.4823 131.547 90.131 131.974 90.131 131.974L87.2054 135.47C87.2054 135.47 86.5934 134.932 85.4795 136.301C84.5614 137.438 85.0021 137.829 85.0021 137.829L83.9126 139.1L84.1942 139.283L85.2714 138.012C85.2714 138.012 85.9813 138.574 87.083 137.206C88.099 135.947 87.4135 135.629 87.4135 135.629L90.4738 132.17C90.4738 132.17 90.841 132.806 91.9917 131.388C92.971 130.19 92.5058 129.652 92.5058 129.652L96.374 125.118C96.374 125.13 97.6225 123.81 97.4512 123.223Z" fill="#50844E"/>
<path d="M86.6669 126.449C86.6669 126.449 86.4588 126.083 85.9446 126.095C85.6509 126.107 85.3204 126.425 84.9164 126.816C84.4145 127.305 83.8392 127.843 83.8392 127.843C83.8392 127.843 83.3128 127.305 82.4804 128.197C81.5868 129.151 82.2111 129.493 82.2111 129.493L79.5426 132.145L79.616 132.463L82.4682 129.627C82.4682 129.627 82.7987 130.006 83.5944 129.126C84.3166 128.319 84.0473 128.051 84.0473 128.051C84.0473 128.051 85.2836 126.889 85.3204 126.841C86.116 126.009 86.471 126.523 86.471 126.523C86.4833 126.559 86.5445 126.828 85.9202 127.464C85.8834 127.501 84.5614 128.845 84.5614 128.845C84.5614 128.845 84.2187 128.637 83.374 129.481C82.4437 130.397 82.9089 130.642 82.9089 130.642L79.7262 133.758L79.9221 134.039L83.0925 130.837C83.0925 130.837 83.5454 131.363 84.5492 130.336C85.4917 129.383 84.8307 128.979 84.8307 128.979C84.8307 128.979 86.2139 127.598 86.5077 127.305C86.9484 126.841 86.6791 126.474 86.6669 126.449Z" fill="#50844E"/>
<path d="M115.727 101.811C109.692 97.1539 97.3529 101.603 88.1476 111.747C78.9424 121.892 76.384 133.882 82.4188 138.538C88.4537 143.195 100.793 138.746 109.998 128.602C119.203 118.457 121.761 106.467 115.727 101.811ZM108.823 127.807C99.9112 137.634 88.2578 142.181 82.7983 137.964C77.3266 133.747 80.1175 122.356 89.029 112.542C97.9405 102.715 109.594 98.1683 115.053 102.385C120.525 106.602 117.734 117.981 108.823 127.807Z" fill="#50844E"/>
</svg>
