<svg width="579" height="341" viewBox="0 0 579 341" fill="none" xmlns="http://www.w3.org/2000/svg">
<path d="M163.944 118.756C166.503 103.531 162.664 90.1986 155.37 88.9765C148.076 87.7543 140.089 99.1055 137.53 114.33C134.971 129.555 138.81 142.887 146.104 144.109C153.398 145.332 161.385 133.98 163.944 118.756Z" fill="#9CC09B"/>
<path d="M137.785 132.257L138.446 128.2C138.446 128.2 137.663 128.224 137.907 126.342C138.201 124.166 138.948 124.496 138.948 124.496L139.584 120.487C139.584 120.487 138.556 120.817 138.862 118.324C139.18 115.77 140.172 116.185 140.172 116.185L140.747 112.36C140.747 112.36 139.915 112.543 140.221 110.673C140.527 108.803 141.2 109.084 141.2 109.084L142.755 98.744L143.293 98.0596L141.518 109.108C141.518 109.108 142.155 108.925 141.935 110.648C141.69 112.592 141.053 112.384 141.053 112.384L140.515 116.258C140.515 116.258 141.212 116.148 140.98 118.3C140.698 120.891 139.89 120.5 139.89 120.5L139.34 124.435C139.34 124.435 140.147 124.435 139.915 126.33C139.646 128.493 138.801 128.212 138.801 128.212L137.956 133.345L137.785 132.257Z" fill="#50844E"/>
<path d="M145.093 144.026L145.779 138.074C145.779 138.074 145.093 138.392 145.313 136.168C145.534 134.029 146.256 134.273 146.256 134.273L146.856 128.651C146.856 128.651 145.987 128.871 146.28 126.341C146.55 123.982 147.407 124.055 147.407 124.055L148.435 115.756C148.484 115.585 148.814 115.61 148.827 115.781L147.725 124.068C147.725 124.068 148.276 124.141 148.104 126.378C147.909 128.846 147.162 128.651 147.162 128.651L146.586 134.322C146.586 134.322 147.174 134.346 147.003 136.241C146.807 138.429 146.06 138.074 146.06 138.074L145.424 144.063L145.093 144.026Z" fill="#50844E"/>
<path d="M138.924 136.828C138.924 136.828 140.723 127.087 141.2 123.823C141.678 120.523 142.755 110.562 142.755 110.562C142.816 110.477 142.975 110.477 143.037 110.562L143.049 110.587C143.049 110.587 141.923 120.902 141.421 124.324C140.943 127.527 139.156 137.072 139.156 137.072L138.924 136.828Z" fill="#50844E"/>
<path d="M153.882 140.996L155.938 118.666L156.844 105.295C156.905 105.209 157.065 105.209 157.126 105.295L157.138 105.319L156.293 119.057L154.188 140.825L153.882 140.996Z" fill="#50844E"/>
<path d="M147.786 96.7509C147.945 94.7587 147.37 94.832 147.37 94.832L147.786 91.7275L147.467 92.0331L147.051 94.8075C147.051 94.8075 146.133 94.5509 146.011 96.7875C145.913 98.462 146.635 98.3764 146.635 98.3764L146.427 101.016C146.427 101.016 145.399 100.711 145.301 102.666C145.203 104.573 146.207 104.316 146.207 104.316L145.827 106.969C145.827 106.969 145.129 106.639 144.848 108.888C144.628 110.611 145.521 110.586 145.521 110.586C145.521 110.586 145.276 111.283 145.582 111.515C145.876 111.748 146.77 111.699 146.88 111.686L146.647 114.766C146.647 114.766 145.79 114.498 145.607 116.722C145.448 118.69 146.256 118.653 146.256 118.653L145.497 124.226C145.497 124.226 144.787 123.994 144.493 126.378C144.224 128.578 145.129 128.81 145.129 128.81L144.517 134.212C144.517 134.212 143.991 133.931 143.82 135.935C143.673 137.708 144.187 137.585 144.187 137.585L143.403 143.171L143.758 143.354L144.505 137.61C144.505 137.61 144.983 137.818 145.215 135.874C145.448 133.943 144.811 134.212 144.811 134.212L145.411 128.798C145.411 128.798 145.962 129.018 146.182 126.378C146.39 123.811 145.876 124.202 145.876 124.202L146.623 118.555C146.623 118.555 147.382 118.873 147.59 116.624C147.761 114.693 146.978 114.73 146.978 114.73L147.137 112.065L147.198 111.589C147.198 111.528 147.161 111.479 147.1 111.466L147.112 111.454C147.112 111.454 147.076 111.454 147.015 111.466C147.002 111.466 147.002 111.466 146.99 111.466C146.696 111.491 145.925 111.515 145.79 111.344C145.705 111.234 145.827 110.562 145.827 110.562C145.827 110.562 146.684 110.758 146.892 108.655C147.076 106.834 146.145 106.944 146.145 106.944L146.488 104.316C146.488 104.316 147.321 104.598 147.394 102.618C147.455 100.98 146.77 101.065 146.77 101.065L146.941 98.3886C146.929 98.3886 147.627 98.7675 147.786 96.7509Z" fill="#50844E"/>
<path d="M150.895 94.405L151.25 89.5039L150.907 89.6261L150.54 94.3928C150.54 94.3928 150.185 94.1728 149.94 95.8106C149.647 97.7784 150.222 97.6439 150.222 97.6439C150.222 97.6439 149.365 106.957 149.365 107.018C149.292 108.241 148.888 108.375 148.692 108.375L148.679 108.351C148.679 108.351 147.982 108.546 148.165 106.921C148.165 106.872 148.349 105.271 148.349 105.148C148.361 104.916 148.41 104.647 148.41 104.647C148.41 104.647 149.169 104.916 149.377 102.814C149.561 100.993 148.728 101.029 148.728 101.029L148.998 97.5461C148.998 97.5461 149.524 97.7539 149.598 95.7739C149.659 94.1239 149.279 94.295 149.279 94.295L149.806 90.1028L149.451 90.3228L148.937 94.2583C148.937 94.2583 148.141 93.9528 148.043 95.9206C147.945 97.8272 148.716 97.5706 148.716 97.5706L148.41 101.066C148.41 101.066 147.823 100.724 147.541 102.973C147.321 104.696 148.092 104.684 148.092 104.684L147.921 105.894C147.921 105.894 147.615 107.898 148.006 108.338C148.153 108.497 148.324 108.571 148.471 108.595V108.607C148.471 108.607 148.912 108.742 149.267 108.448C149.744 108.069 149.806 106.041 149.806 106.041L150.516 97.7172C150.516 97.7172 151.25 98.0839 151.495 96.1895C151.764 94.2095 150.895 94.405 150.895 94.405Z" fill="#50844E"/>
<path d="M160.002 120.23C160.002 120.23 160.419 116.478 160.431 116.404C160.431 116.38 160.455 115.952 160.394 115.622C160.321 115.256 160.1 115.084 160.088 115.072C160.088 115.072 159.99 114.913 159.55 114.864H159.537C159.464 114.84 159.097 114.754 158.754 115.023C158.264 115.414 158.179 117.443 158.179 117.443L157.873 120.218C157.873 120.218 157.187 120.438 156.991 122.198C156.759 124.288 157.456 123.897 157.456 123.897L157.028 129.433C157.028 129.433 156.404 129.103 156.196 130.949C155.963 132.941 156.673 132.782 156.673 132.782L155.963 138.771L156.367 138.282L157.114 132.758C157.114 132.758 157.554 132.99 157.738 131.316C157.958 129.299 157.236 129.384 157.236 129.384L157.775 123.97C157.775 123.97 158.436 124.068 158.631 122.21C158.852 120.132 158.203 120.242 158.203 120.242C158.203 120.242 158.619 116.49 158.631 116.417C158.729 115.243 159.097 115.048 159.293 115.023C159.415 115.048 159.574 115.06 159.586 115.06C160.198 115.317 160.064 115.671 160.113 115.952L160.002 117.407L159.635 120.206C159.635 120.206 158.95 120.426 158.754 122.186C158.521 124.276 159.219 123.884 159.219 123.884L158.791 129.421C158.791 129.421 158.166 129.091 157.958 130.937C157.726 132.929 158.436 132.77 158.436 132.77L158.105 135.63L158.583 135.019L158.889 132.746C158.889 132.746 159.329 132.978 159.513 131.303C159.733 129.287 159.011 129.372 159.011 129.372L159.55 123.958C159.55 123.958 160.211 124.056 160.406 122.198C160.651 120.12 160.002 120.23 160.002 120.23Z" fill="#50844E"/>
<path d="M162.193 95.3574C162.193 95.3574 161.74 104.671 161.667 106.639C161.618 107.983 161.214 108.032 161.067 108.007L161.055 107.983C161.055 107.983 160.357 108.191 160.492 106.565C160.492 106.516 160.614 104.915 160.614 104.793C160.614 104.561 160.663 104.28 160.663 104.28C160.663 104.28 161.434 104.536 161.569 102.434C161.691 100.601 160.859 100.65 160.859 100.65L161.214 93.2797L160.933 92.9863L160.541 100.674C160.541 100.674 159.953 100.344 159.733 102.605C159.574 104.329 160.345 104.304 160.345 104.304L160.21 105.514C160.21 105.514 159.978 107.531 160.382 107.959C160.553 108.142 160.761 108.203 160.92 108.215C160.933 108.215 161.3 108.337 161.618 108.032C162.022 107.641 162.034 105.612 162.034 105.612L162.45 95.6019L162.193 95.3574Z" fill="#50844E"/>
<path d="M152.046 105.074C152.046 105.074 152.486 105.197 152.878 104.928C153.184 104.72 153.27 104.072 153.319 103.522C153.368 102.972 153.38 102.52 153.38 102.52L153.392 102.104C153.392 102.104 153.98 102.117 154.078 100.381C154.2 98.12 153.735 98.4866 153.735 98.4866L154.335 88.8066L153.955 88.8678L153.429 98.4133C153.429 98.4133 152.78 98.2911 152.633 100.124C152.462 102.227 153.098 102.043 153.098 102.043C153.098 102.043 153.074 103.449 153.074 103.522C153.037 104.133 152.939 104.537 152.756 104.72C152.388 105.074 151.862 104.842 151.862 104.842L152.046 105.074Z" fill="#50844E"/>
<path d="M153.723 98.4866L154.322 88.8066L153.943 88.8678L153.417 98.4133C153.417 98.4133 152.768 98.2911 152.621 100.124C152.45 102.227 153.086 102.043 153.086 102.043C153.086 102.043 153.062 103.449 153.062 103.522C153.025 104.133 152.927 104.537 152.743 104.72C152.376 105.074 151.862 104.842 151.85 104.842C151.654 104.708 151.446 104.366 151.556 103.424C151.568 103.351 151.691 101.946 151.691 101.946C151.691 101.946 152.254 102.19 152.462 100.088C152.645 98.2666 152.021 98.3155 152.021 98.3155L152.401 94.0377C152.401 94.0377 152.927 94.2455 153 92.2655C153.062 90.6155 152.682 90.7866 152.682 90.7866L152.915 88.9289L152.56 89.0511L152.339 90.7378C152.339 90.7378 151.544 90.4322 151.446 92.4C151.348 94.3066 152.119 94.05 152.119 94.05L151.703 98.34C151.703 98.34 151.238 97.9733 150.956 100.222C150.736 101.946 151.385 101.958 151.385 101.958L151.323 102.373C151.323 102.373 151.017 104.378 151.409 104.818C151.703 105.16 152.425 105.123 152.425 105.123L152.401 105.111C152.548 105.099 152.719 105.062 152.89 104.952C153.196 104.744 153.282 104.097 153.331 103.547C153.38 102.997 153.392 102.544 153.392 102.544L153.404 102.129C153.404 102.129 153.992 102.141 154.09 100.406C154.188 98.12 153.723 98.4866 153.723 98.4866Z" fill="#50844E"/>
<path d="M159.831 93.9643L159.917 91.4587L159.623 91.3243L159.549 93.9765C159.549 93.9765 159.146 94.0009 159.035 95.0765C158.827 97.1787 159.476 96.9587 159.476 96.9587C159.476 96.9587 159.292 104.683 159.28 104.757C159.243 105.368 159.146 105.771 158.962 105.954C158.778 106.138 158.558 106.162 158.374 106.15L158.35 106.089C158.35 106.089 157.652 106.309 157.787 104.671C157.787 104.598 157.872 103.18 157.872 103.18C157.872 103.18 158.644 103.437 158.778 101.334C158.901 99.5009 158.068 99.5621 158.068 99.5621L158.203 96.7876C158.203 96.7876 158.827 96.9954 158.827 95.0032C158.827 93.3531 158.374 93.5243 158.374 93.5243L158.46 90.1509L158.142 90.1143L158.044 93.4998C158.044 93.4998 157.358 93.2431 157.322 95.2109C157.285 97.1176 157.934 96.8121 157.934 96.8121L157.762 99.5987C157.762 99.5987 157.175 99.2687 156.967 101.53C156.808 103.253 157.579 103.229 157.579 103.229L157.53 103.644C157.53 103.644 157.297 105.661 157.701 106.089C157.909 106.309 158.154 106.345 158.301 106.345C158.35 106.358 158.742 106.443 159.109 106.199C159.415 105.991 159.501 105.343 159.549 104.793C159.598 104.243 159.611 103.791 159.611 103.791L159.794 97.0443C159.794 97.0443 160.382 97.1054 160.48 95.3209C160.529 93.9643 159.831 93.9643 159.831 93.9643Z" fill="#50844E"/>
<path d="M156.869 93.1577L156.967 89.3321L156.636 89.2099L156.477 93.121C156.477 93.121 155.914 92.9621 155.755 94.7955C155.584 96.8977 156.22 96.7144 156.22 96.7144C156.22 96.7144 156.073 103.107 156.073 103.18C156.036 103.791 155.939 104.194 155.755 104.378C155.547 104.585 155.29 104.585 155.106 104.561C154.91 104.5 154.641 104.243 154.763 103.143C154.776 103.07 154.947 102.153 154.947 102.153C154.947 102.153 155.571 102.447 155.779 100.357C155.963 98.5355 155.265 98.5355 155.265 98.5355L155.522 93.121C155.522 93.121 156.012 93.2921 156.073 91.2999C156.134 89.6499 155.755 89.821 155.755 89.821L155.718 88.9777L155.424 88.8555V89.7844C155.424 89.7844 154.629 89.4788 154.531 91.4466C154.433 93.3533 155.204 93.0966 155.204 93.0966L154.947 98.5599C154.947 98.5599 154.347 98.2299 154.213 100.479C154.102 102.275 154.604 102.19 154.604 102.19C154.604 102.19 154.176 104.035 154.616 104.537C154.91 104.879 155.351 104.805 155.351 104.805L155.339 104.769C155.498 104.769 155.706 104.732 155.902 104.598C156.208 104.39 156.293 103.742 156.342 103.192C156.391 102.642 156.404 102.19 156.404 102.19L156.538 96.7877C156.538 96.7877 157.101 96.8488 157.224 95.0644C157.346 93.0477 156.869 93.1577 156.869 93.1577Z" fill="#50844E"/>
<path d="M154.775 120.487L154.922 118.543C154.922 118.543 154.947 117.382 154.604 117.162C154.457 117.065 154.273 117.028 154.151 116.991C154.151 116.991 153.723 116.845 153.343 117.15C152.854 117.541 152.756 119.607 152.756 119.607L152.707 120.352C152.707 120.352 152.021 120.572 151.825 122.332C151.593 124.422 152.29 124.031 152.29 124.031L151.776 130.069C151.776 130.069 151.152 129.739 150.944 131.585C150.711 133.577 151.421 133.418 151.421 133.418L150.234 143.538L150.503 143.489L151.874 133.393C151.874 133.393 152.315 133.626 152.499 131.951C152.719 129.935 151.997 130.02 151.997 130.02L152.621 124.092C152.621 124.092 153.294 124.19 153.478 122.332C153.674 120.365 153.135 120.389 153.049 120.401C153.049 120.389 153.049 120.389 153.049 120.389C153.074 120.255 153.209 118.629 153.221 118.58C153.355 116.918 154.065 117.187 154.065 117.187C154.347 117.248 154.812 117.505 154.628 118.702C154.567 119.118 154.469 120.426 154.469 120.426C154.469 120.426 153.808 120.157 153.551 122.296C153.331 124.166 154.127 124.178 154.127 124.178L153.331 130.093C153.331 130.093 152.768 130.265 152.572 131.817C152.401 133.198 152.951 133.516 152.951 133.516L152.89 134.713C152.89 134.713 152.058 134.567 151.85 136.583C151.678 138.258 152.266 138.356 152.266 138.356L151.923 142.646L152.241 142.585L152.596 138.38C152.596 138.38 153.527 138.49 153.723 136.486C153.906 134.64 153.147 134.75 153.147 134.75L153.306 133.552C153.306 133.552 153.992 133.577 154.261 131.976C154.567 130.191 153.637 129.996 153.637 129.996L154.518 124.178C154.518 124.178 155.179 124.569 155.4 122.479C155.583 120.707 154.775 120.487 154.775 120.487Z" fill="#50844E"/>
<path d="M151.066 120.474C150.883 120.291 150.675 120.205 150.528 120.169C150.516 120.169 150.479 120.156 150.405 120.144C150.332 120.132 150.283 120.132 150.283 120.132C150.124 120.132 149.928 120.169 149.744 120.315C149.194 120.755 148.949 124.336 148.949 124.336C148.949 124.336 148.484 124.214 148.202 126.891C147.982 128.981 148.631 128.907 148.631 128.907C148.631 128.907 148.178 133.393 147.982 134.884C147.688 137.231 146.611 144.259 146.611 144.259L146.868 144.307C146.868 144.307 147.97 137.219 148.276 134.847C148.471 133.381 148.961 128.981 148.961 128.981C148.961 128.981 149.732 128.956 149.904 126.805C150.136 124.019 149.243 124.226 149.243 124.226C149.243 124.226 149.524 122.026 149.524 121.941C149.72 120.242 150.356 120.376 150.418 120.389C150.65 120.437 151.042 120.682 150.883 121.88C150.871 121.953 149.94 129.751 149.94 129.751C149.94 129.751 149.23 129.433 148.973 131.572C148.753 133.442 149.549 133.454 149.549 133.454L148.937 138.649C148.937 138.649 148.104 138.502 147.896 140.519C147.725 142.193 148.312 142.291 148.312 142.291L148.067 144.197H148.41L148.643 142.303C148.643 142.303 149.573 142.413 149.769 140.409C149.953 138.563 149.194 138.673 149.194 138.673L149.94 133.43C149.94 133.43 150.601 133.821 150.822 131.731C151.005 129.971 150.32 129.739 150.32 129.739L151.177 122.967C151.177 122.98 151.544 120.939 151.066 120.474Z" fill="#50844E"/>
<path d="M143.306 133.87C143.306 133.87 143.746 131.67 143.832 131.218C143.979 130.435 143.526 130.24 143.514 130.24C143.514 130.24 143.134 130.02 142.694 130.35C142.449 130.533 142.339 131.059 142.204 131.682C142.033 132.464 141.837 133.332 141.837 133.332C141.837 133.332 141.09 133.136 140.857 134.518C140.6 135.996 141.335 135.948 141.335 135.948L140.49 140.164L140.723 140.433L141.629 135.923C141.629 135.923 142.118 136.094 142.326 134.75C142.51 133.515 142.13 133.418 142.13 133.418C142.13 133.418 142.559 131.523 142.571 131.462C142.804 130.166 143.391 130.448 143.391 130.448C143.428 130.484 143.624 130.704 143.428 131.706C143.416 131.768 143.012 133.894 143.012 133.894C143.012 133.894 142.608 133.906 142.326 135.239C142.02 136.705 142.559 136.644 142.559 136.644L141.518 141.631L141.849 141.79L142.828 136.742C142.828 136.742 143.501 136.986 143.807 135.361C144.101 133.845 143.306 133.87 143.306 133.87Z" fill="#50844E"/>
<path d="M155.106 88.4392C147.357 87.6203 139.131 99.537 136.756 115.035C134.369 130.533 138.727 143.769 146.476 144.588C154.224 145.407 162.45 133.49 164.825 117.993C167.212 102.483 162.867 89.2459 155.106 88.4392ZM163.381 117.931C161.079 132.953 153.502 144.527 146.476 143.781C139.449 143.048 135.63 130.264 137.932 115.255C140.233 100.234 147.81 88.6592 154.836 89.4048C161.863 90.1503 165.694 102.923 163.381 117.931Z" fill="#50844E"/>
</svg>
