<svg width="579" height="341" viewBox="0 0 579 341" fill="none" xmlns="http://www.w3.org/2000/svg">
<path d="M205.028 57.4366C213.688 47.5299 217.963 37.106 214.576 34.1541C211.189 31.2023 201.422 36.8403 192.762 46.747C184.102 56.6536 179.827 67.0775 183.214 70.0294C186.601 72.9813 196.368 67.3433 205.028 57.4366Z" fill="#9CC09B"/>
<path d="M212.957 45.8433L210.606 48.4466C210.606 48.4466 210.998 48.7155 209.933 49.9378C208.697 51.3555 208.513 50.8544 208.513 50.8544L206.2 53.4211C206.2 53.4211 206.861 53.5678 205.465 55.1933C204.033 56.8678 203.764 56.22 203.764 56.22L201.573 58.6889C201.573 58.6889 202.062 58.86 200.973 60.07C199.883 61.2677 199.712 60.8277 199.712 60.8277L193.8 67.4889L193.2 67.77L199.577 60.6811C199.577 60.6811 199.186 60.5711 200.153 59.4466C201.242 58.1755 201.438 58.5544 201.438 58.5544L203.641 56.0366C203.641 56.0366 203.25 55.8533 204.437 54.4478C205.869 52.7366 206.065 53.2989 206.065 53.2989L208.293 50.7566C208.293 50.7566 207.901 50.4633 208.966 49.2166C210.178 47.7989 210.435 48.3122 210.435 48.3122L213.41 45.0244L212.957 45.8433Z" fill="#50844E"/>
<path d="M215.344 34.9411L212.039 38.8522C212.039 38.8522 212.528 38.8889 211.304 40.3555C210.129 41.7733 209.909 41.3333 209.909 41.3333L206.799 45.0489C206.799 45.0489 207.326 45.2078 205.918 46.87C204.608 48.4222 204.241 48.0555 204.241 48.0555L199.602 53.4822C199.492 53.58 199.345 53.4455 199.43 53.3233L204.094 47.9333C204.094 47.9333 203.862 47.6767 205.061 46.1855C206.383 44.5355 206.653 44.9389 206.653 44.9389L209.762 41.1744C209.762 41.1744 209.492 40.9422 210.521 39.6833C211.708 38.2289 211.892 38.7544 211.892 38.7544L215.185 34.7944L215.344 34.9411Z" fill="#50844E"/>
<path d="M214.695 42.2249C214.695 42.2249 208.954 48.3849 207.106 50.4872C205.22 52.626 199.724 59.2016 199.724 59.2016C199.651 59.2383 199.577 59.1772 199.59 59.0916V59.0672C199.59 59.0672 205.282 52.2594 207.24 50.0472C209.064 47.9816 214.707 41.9561 214.707 41.9561L214.695 42.2249Z" fill="#50844E"/>
<path d="M209.615 33.853L197.46 48.7275L190.335 57.7597C190.262 57.7964 190.188 57.7352 190.201 57.6497V57.6252L197.472 48.3241L209.37 33.8653L209.615 33.853Z" fill="#50844E"/>
<path d="M212.553 39.7685L215.723 36.1507L215.65 35.894L212.418 39.6463C212.418 39.6463 212.283 39.3285 211.206 40.5996C210.129 41.8707 210.57 41.9074 210.57 41.9074L207.583 45.4763C207.583 45.4763 207.424 45.1218 206.004 46.8818C204.621 48.6052 205.061 48.5196 205.061 48.5196L201.879 52.1985C201.879 52.1985 201.67 51.6974 200.459 53.2007C199.406 54.4963 199.81 54.7407 199.81 54.7407L198.402 56.5374L198.133 56.8551C198.096 56.8918 198.096 56.9407 198.121 56.9774L198.096 56.9896C198.096 56.9896 198.696 57.344 198.671 57.5518C198.659 57.6618 198.267 58.0896 198.267 58.0896C198.267 58.0896 197.949 57.6496 196.799 59.0307C195.795 60.2407 196.297 60.4974 196.297 60.4974L194.815 62.2207C194.815 62.2207 194.558 61.7196 193.53 63.0763C192.686 64.2007 193.053 64.3963 193.053 64.3963L191.633 66.2051C191.633 66.2051 191.498 65.6796 190.409 67.0363C189.331 68.3807 189.65 68.5396 189.65 68.5396L187.899 70.5563L188.205 70.4585L189.797 68.674C189.797 68.674 190.115 69.1874 191.29 67.6596C192.171 66.5229 191.792 66.3274 191.792 66.3274L193.212 64.5552C193.212 64.5552 193.555 65.1418 194.583 63.8096C195.587 62.514 194.975 62.3307 194.975 62.3307L196.48 60.6196C196.48 60.6196 196.652 61.1085 197.912 59.6418C198.879 58.5174 198.439 58.2118 198.439 58.2118C198.439 58.2118 198.904 57.8207 198.879 57.5396C198.855 57.2585 198.378 56.9651 198.341 56.9407L199.993 54.8752C199.993 54.8752 200.275 55.3763 201.475 53.8851C202.527 52.5651 202.136 52.2963 202.136 52.2963L205.282 48.6785C205.282 48.6785 205.514 49.094 206.836 47.5418C208.06 46.0996 207.742 45.6107 207.742 45.6107L210.741 42.054C210.741 42.054 210.863 42.4451 211.941 41.1007C212.859 39.8663 212.553 39.7685 212.553 39.7685Z" fill="#50844E"/>
<path d="M196.088 58.8478C196.101 58.6767 196.052 58.5789 195.991 58.5056C195.991 58.5056 195.844 58.2489 195.525 58.3223C195.109 58.42 194.069 59.8134 194.069 59.8134L189.564 65.3867C189.564 65.3867 189.393 64.8611 188.328 66.0956C187.226 67.3667 187.74 67.55 187.74 67.55L185.12 70.85L185.341 70.8867L187.899 67.6845C187.899 67.6845 187.96 67.9656 188.891 66.9145C190.017 65.6434 189.674 65.5211 189.674 65.5211C189.674 65.5211 194.742 59.3123 194.779 59.2756C195.427 58.4567 195.684 58.4934 195.782 58.5667L195.77 58.5911C195.77 58.5911 196.211 58.7012 195.305 59.7767C195.281 59.8012 194.399 60.8645 194.326 60.95C194.203 61.1089 194.044 61.28 194.044 61.28C194.044 61.28 193.812 60.8156 192.661 62.2089C191.657 63.4189 192.073 63.7 192.073 63.7L190.201 66.0345C190.201 66.0345 190.054 65.6923 189.025 67.0612C188.181 68.1856 188.438 68.21 188.438 68.21L186.088 70.9478L186.369 70.9234L188.585 68.3567C188.585 68.3567 188.817 68.8578 189.846 67.5256C190.849 66.23 190.347 66.1323 190.347 66.1323L192.245 63.7978C192.245 63.7978 192.355 64.25 193.616 62.7834C194.583 61.6589 194.203 61.39 194.203 61.39L194.889 60.6078C194.901 60.5956 196.052 59.3 196.088 58.8478Z" fill="#50844E"/>
<path d="M204.156 38.5713L207.485 34.6357L207.057 34.8313L203.935 38.4246C203.935 38.4246 203.838 38.1069 202.919 39.2069C201.806 40.5391 202.197 40.7346 202.197 40.7346L199.223 44.328C199.223 44.328 198.953 44.0224 197.925 45.2446C196.774 46.6257 197.154 46.7724 197.154 46.7724C197.154 46.7724 195.073 49.2413 195.036 49.3024C194.4 50.0846 194.13 50.0969 194.02 50.0357C193.971 49.9746 193.91 49.9135 193.898 49.9013C193.726 49.498 193.983 49.3024 194.094 49.0824L194.865 48.1046L196.444 46.2713C196.444 46.2713 196.885 46.3691 197.852 45.208C199.002 43.8269 198.476 43.8513 198.476 43.8513L201.451 40.1357C201.451 40.1357 201.585 40.588 202.601 39.378C203.703 38.058 203.287 37.9113 203.287 37.9113L204.878 36.0413L204.352 36.298L203.066 37.7769C203.066 37.7769 202.968 37.4591 202.05 38.5591C200.936 39.8913 201.328 40.0869 201.328 40.0869L198.354 43.6802C198.354 43.6802 198.084 43.3746 197.056 44.5969C195.905 45.978 196.285 46.1246 196.285 46.1246C196.285 46.1246 194.204 48.5935 194.167 48.6546C194.155 48.6669 193.922 48.9602 193.8 49.2169C193.653 49.498 193.665 49.6935 193.677 49.718C193.677 49.718 193.653 49.8646 193.824 50.0602C193.849 50.0969 193.984 50.2924 194.277 50.2313C194.706 50.1335 195.758 48.7524 195.758 48.7524L197.289 46.9191C197.289 46.9191 197.729 47.0169 198.696 45.8557C199.847 44.4746 199.321 44.4991 199.321 44.4991L202.295 40.7835C202.295 40.7835 202.43 41.2357 203.446 40.0257C204.584 38.718 204.156 38.5713 204.156 38.5713Z" fill="#50844E"/>
<path d="M189.968 54.5941C189.981 54.3985 189.907 54.2885 189.846 54.2274C189.846 54.2152 189.724 54.0074 189.43 54.1052C189.038 54.2274 188.022 55.6452 188.022 55.6452L182.82 62.5019V62.7585C182.82 62.7585 187.692 56.403 188.708 55.0585C189.405 54.1419 189.626 54.2518 189.675 54.3252L189.662 54.3374C189.662 54.3374 190.103 54.4474 189.222 55.5352C189.197 55.5719 188.34 56.6474 188.267 56.733C188.144 56.8919 187.998 57.0752 187.998 57.0752C187.998 57.0752 187.753 56.623 186.639 58.0407C185.659 59.2752 186.088 59.5441 186.088 59.5441L182.232 64.5674L182.22 64.873L186.259 59.6419C186.259 59.6419 186.382 60.0819 187.606 58.5907C188.548 57.4419 188.157 57.1852 188.157 57.1852L188.83 56.3907C188.83 56.3785 189.944 55.0463 189.968 54.5941Z" fill="#50844E"/>
<path d="M192.526 59.6664C192.526 59.6664 192.379 59.4219 192.061 59.4708C191.816 59.5075 191.449 59.923 191.143 60.2897C190.849 60.6564 190.617 60.9741 190.617 60.9741L190.409 61.2675C190.409 61.2675 190.127 61.0475 189.221 62.2208C188.034 63.7608 188.438 63.663 188.438 63.663L183.309 70.2141L183.529 70.3119L188.548 63.8219C188.548 63.8219 188.793 64.1519 189.784 62.9175C190.911 61.5119 190.519 61.4019 190.519 61.4019C190.519 61.4019 191.229 60.4242 191.266 60.3753C191.596 59.9597 191.829 59.7153 192.012 59.6541C192.367 59.5441 192.502 59.8986 192.502 59.8986L192.526 59.6664Z" fill="#50844E"/>
<path d="M192.71 60.0823C192.734 59.7401 192.379 59.4956 192.379 59.4956V59.5201C192.306 59.4712 192.196 59.4345 192.061 59.459C191.816 59.4956 191.449 59.9112 191.143 60.2778C190.849 60.6445 190.617 60.9623 190.617 60.9623L190.409 61.2556C190.409 61.2556 190.127 61.0356 189.221 62.209C188.034 63.7489 188.438 63.6512 188.438 63.6512L183.309 70.2023L183.529 70.3L188.548 63.8101C188.548 63.8101 188.793 64.1401 189.784 62.9056C190.911 61.5001 190.519 61.3901 190.519 61.3901C190.519 61.3901 191.229 60.4123 191.266 60.3634C191.596 59.9478 191.829 59.7034 192.012 59.6423C192.367 59.5323 192.502 59.8745 192.502 59.8867C192.526 60.0456 192.453 60.3634 191.939 60.9867C191.902 61.0356 191.131 61.9767 191.131 61.9767C191.131 61.9767 190.984 61.5978 189.833 62.9912C188.83 64.2012 189.16 64.3967 189.16 64.3967L186.847 67.2567C186.847 67.2567 186.7 66.9145 185.671 68.2834C184.827 69.4078 185.084 69.4323 185.084 69.4323L184.043 70.6423L184.276 70.6789L185.231 69.5789C185.231 69.5789 185.463 70.0801 186.492 68.7478C187.495 67.4523 186.993 67.3545 186.993 67.3545L189.344 64.5067C189.344 64.5067 189.38 64.9345 190.641 63.4678C191.608 62.3434 191.302 62.0989 191.302 62.0989L191.535 61.8301C191.523 61.8301 192.673 60.5345 192.71 60.0823Z" fill="#50844E"/>
<path d="M190.311 56.9167C190.323 56.6845 190.225 56.5745 190.152 56.5134C190.14 56.4889 189.993 56.2811 189.687 56.3178C189.442 56.3545 189.075 56.77 188.769 57.1367C188.475 57.5034 188.242 57.8211 188.242 57.8211L184.79 62.4778C184.79 62.4778 184.545 62.2211 183.603 63.4311C182.905 64.3356 183.236 64.5922 183.236 64.5922L181.95 66.3156L182.024 66.5234L183.382 64.69C183.382 64.69 183.591 64.8122 184.178 64.1034C185.329 62.71 184.9 62.6245 184.9 62.6245C184.9 62.6245 188.854 57.2834 188.891 57.2345C189.221 56.8189 189.454 56.5745 189.638 56.5134C189.809 56.4522 189.931 56.5134 190.017 56.5867L189.993 56.6356C189.993 56.6356 190.433 56.7334 189.552 57.8334C189.515 57.8822 188.769 58.8356 188.769 58.8356C188.769 58.8356 188.524 58.3834 187.41 59.8011C186.443 61.0356 186.859 61.3045 186.859 61.3045L185.415 63.1867C185.415 63.1867 185.219 62.82 184.227 64.2011C183.407 65.35 183.701 65.4111 183.701 65.4111L181.975 67.7456L182.109 67.8923L183.848 65.5578C183.848 65.5578 184.056 65.9856 185.047 64.6289C186.014 63.2967 185.549 63.2845 185.549 63.2845L187.03 61.4022C187.03 61.4022 187.153 61.8422 188.377 60.3511C189.319 59.2022 188.928 58.9456 188.928 58.9456L189.16 58.6767C189.173 58.6889 190.286 57.3689 190.311 56.9167Z" fill="#50844E"/>
<path d="M189.858 60.7547C189.858 60.7547 190.984 59.6181 191.021 59.1047C191.045 58.7625 190.8 58.6525 190.8 58.6525L190.788 58.6769C190.715 58.6158 190.592 58.5669 190.433 58.5914C190.188 58.6281 189.821 59.0436 189.515 59.4103C189.221 59.7769 188.989 60.0947 188.989 60.0947L186.222 63.8225C186.222 63.8225 185.977 63.5781 185.035 64.7758C183.97 66.1325 184.251 66.2181 184.251 66.2181L182.293 68.858L182.391 69.0658L184.423 66.3892C184.423 66.3892 184.619 66.7069 185.61 65.4725C186.736 64.0669 186.345 63.9569 186.345 63.9569C186.345 63.9569 189.613 59.5447 189.65 59.4836C189.98 59.0681 190.213 58.8236 190.396 58.7625C190.604 58.7014 190.727 58.7869 190.8 58.8725C190.861 58.9825 190.861 59.2636 190.262 59.9847C190.225 60.0336 189.686 60.608 189.686 60.608C189.686 60.608 189.539 60.1681 188.389 61.5614C187.385 62.7714 187.728 63.0158 187.728 63.0158L184.9 66.7069C184.9 66.7069 184.753 66.4136 183.725 67.7703C182.88 68.8947 183.137 68.9192 183.137 68.9192L182.733 69.5303L182.819 69.7258L183.284 69.078C183.284 69.078 183.517 69.5792 184.545 68.2469C185.549 66.9514 185.047 66.8536 185.047 66.8536L187.899 63.1258C187.899 63.1258 188.022 63.578 189.209 62.0503C190.139 60.8769 189.858 60.7547 189.858 60.7547Z" fill="#50844E"/>
<path d="M207.007 40.0376L212.638 33.3888L212.491 33.3276L206.787 39.891C206.787 39.891 206.689 39.5732 205.771 40.6732C204.657 42.0054 205.049 42.201 205.049 42.201L201.793 46.1243C201.793 46.1243 201.523 45.8065 200.495 47.041C199.418 48.3487 199.687 48.5321 199.736 48.5565C199.736 48.5565 199.736 48.5565 199.724 48.5687C199.651 48.6543 198.757 49.7421 198.733 49.7788C197.839 50.891 197.631 50.451 197.631 50.451C197.521 50.3043 197.435 49.9499 198.121 49.1799C198.365 48.911 199.063 48.031 199.063 48.031C199.063 48.031 199.247 48.4588 200.434 47.0532C201.475 45.831 201.095 45.5254 201.095 45.5254L204.437 41.6754C204.437 41.6754 204.792 41.761 205.661 40.7465C206.432 39.8421 206.322 39.4143 206.322 39.4143L206.959 38.5954C206.959 38.5954 207.277 38.9988 208.391 37.6665C209.309 36.5543 209.076 36.2732 209.076 36.2732L211.378 33.401L211.194 33.3276L208.917 36.1388C208.917 36.1388 208.525 35.7232 207.436 37.0554C206.432 38.2776 206.836 38.4854 206.836 38.4854L206.163 39.2676C206.163 39.2676 205.845 38.9988 204.914 40.0254C203.874 41.1621 204.229 41.6388 204.229 41.6388L200.899 45.391C200.899 45.391 200.777 44.8776 199.626 46.2465C198.659 47.4076 198.941 47.8599 198.941 47.8599L197.9 49.1676C197.9 49.1676 197.313 49.9743 197.362 50.2432C197.386 50.3776 197.447 50.4632 197.496 50.5243C197.496 50.5243 197.631 50.781 197.961 50.7076C198.39 50.6099 199.467 49.2043 199.467 49.2043L199.859 48.7032C199.859 48.7032 200.299 48.801 201.266 47.6399C202.417 46.2588 201.891 46.2832 201.891 46.2832L205.159 42.2376C205.159 42.2376 205.294 42.6899 206.31 41.4799C207.424 40.1843 207.007 40.0376 207.007 40.0376Z" fill="#50844E"/>
<path d="M214.732 34.2195L214.634 34.0973C214.634 34.0973 210.57 38.6562 209.223 40.1962C208.403 41.1495 205.967 44.0462 205.967 44.0462C205.967 44.0462 205.588 43.7773 204.425 45.2195C202.919 47.0895 203.445 47.2606 203.445 47.2606C203.445 47.2606 202.209 48.7029 202.172 48.7517C201.23 49.8762 200.985 49.534 200.973 49.5095C200.887 49.3873 200.814 49.0695 201.499 48.2995C201.536 48.2506 205.881 43.1418 205.881 43.1418C205.881 43.1418 206.065 43.6306 207.252 42.2251C208.293 41.0029 207.913 40.6973 207.913 40.6973L210.802 37.2873C210.802 37.2873 211.12 37.6906 212.234 36.3584C213.152 35.2462 212.92 34.9651 212.92 34.9651L213.985 33.7184L213.826 33.5962L212.761 34.8429C212.761 34.8429 212.369 34.4273 211.28 35.7595C210.276 36.9818 210.68 37.1895 210.68 37.1895L207.705 40.5873C207.705 40.5873 207.583 40.074 206.432 41.4429C205.465 42.604 205.673 43.0195 205.673 43.0195L201.879 47.444C201.879 47.444 200.679 48.7395 200.679 49.2406C200.679 49.4362 200.728 49.5706 200.789 49.644C200.789 49.6562 200.814 49.6684 200.838 49.7051C200.863 49.7417 200.887 49.754 200.899 49.754C200.973 49.8029 201.095 49.8518 201.254 49.8151C201.744 49.7051 203.641 47.2973 203.641 47.2973C203.641 47.2973 203.813 47.554 205.282 45.7817C206.432 44.4006 206.077 44.2173 206.077 44.2173C206.077 44.2173 208.538 41.2473 209.37 40.2695C210.704 38.7417 214.732 34.2195 214.732 34.2195Z" fill="#50844E"/>
<path d="M212.014 42.4454C211.317 43.2398 211.451 43.4476 211.451 43.4476C211.451 43.4476 210.301 44.6209 210.264 44.6576C209.505 45.4887 209.37 45.0609 209.37 45.0609C209.37 45.0365 209.358 44.8287 209.982 44.1687C210.019 44.1321 211.28 42.7876 211.28 42.7876C211.28 42.7876 211.476 42.9343 212.284 42.0909C213.165 41.1743 212.884 41.0154 212.884 41.0154L215.883 37.8987L215.809 37.6665L212.81 40.8443C212.81 40.8443 212.602 40.4287 211.647 41.4554C210.754 42.4087 211.145 42.6776 211.145 42.6776C211.145 42.6776 209.836 44.0465 209.566 44.3398C209.101 44.8409 209.223 45.1343 209.236 45.1465C209.236 45.1465 209.309 45.4398 209.676 45.3665C209.885 45.3298 210.203 44.9998 210.582 44.6087C211.06 44.1198 211.586 43.5821 211.586 43.5821C211.586 43.5821 211.843 43.9854 212.651 43.1176C213.508 42.1765 213.141 41.9443 213.141 41.9443L215.65 39.3043L215.675 39.0354L212.981 41.8587C212.933 41.8832 212.786 41.5898 212.014 42.4454Z" fill="#50844E"/>
<path d="M214.952 34.0492C211.647 30.6514 201.757 35.9925 192.857 45.9658C183.958 55.9392 179.441 66.7925 182.746 70.1903C186.051 73.588 195.942 68.2469 204.841 58.2736C213.728 48.288 218.258 37.4469 214.952 34.0492ZM204.388 57.6747C195.771 67.3425 186.357 72.6836 183.358 69.6036C180.359 66.5236 184.913 56.1958 193.531 46.528C202.148 36.8603 211.562 31.5191 214.561 34.5991C217.548 37.6791 212.994 48.0069 204.388 57.6747Z" fill="#50844E"/>
</svg>
