<svg width="579" height="341" viewBox="0 0 579 341" fill="none" xmlns="http://www.w3.org/2000/svg">
<path d="M118.641 233.149C127.242 232.478 132.739 213.091 130.92 189.846C129.101 166.601 120.655 148.301 112.054 148.972C103.454 149.643 97.9561 169.03 99.7751 192.275C101.594 215.52 110.041 233.82 118.641 233.149Z" fill="#9CC09B"/>
<path d="M105.138 217.298L104.722 211.101C104.722 211.101 103.828 211.309 103.571 208.461C103.278 205.149 104.22 205.479 104.22 205.479L103.792 199.368C103.792 199.368 102.702 200.077 102.335 196.3C101.956 192.426 103.204 192.817 103.204 192.817L102.751 186.987C102.751 186.987 101.858 187.439 101.662 184.579C101.466 181.719 102.311 181.988 102.311 181.988L101.099 166.246L101.515 165.097L102.69 181.963C102.69 181.963 103.363 181.56 103.608 184.163C103.89 187.109 103.106 186.938 103.106 186.938L103.608 192.829C103.608 192.829 104.367 192.523 104.722 195.762C105.15 199.686 104.11 199.294 104.11 199.294L104.612 205.271C104.612 205.271 105.53 205.088 105.811 207.972C106.13 211.248 105.089 211.016 105.089 211.016L105.616 218.85L105.138 217.298Z" fill="#50844E"/>
<path d="M116.865 233.235L115.922 224.215C115.922 224.215 115.225 224.839 114.845 221.478C114.478 218.251 115.359 218.446 115.359 218.446L114.417 209.928C114.417 209.928 113.499 210.441 113.095 206.615C112.715 203.034 113.707 202.961 113.707 202.961L112.483 190.372C112.495 190.115 112.874 190.079 112.936 190.335L114.074 202.924C114.074 202.924 114.735 202.912 115.176 206.285C115.665 210.001 114.759 209.879 114.759 209.879L115.751 218.459C115.751 218.459 116.424 218.361 116.779 221.221C117.183 224.533 116.228 224.154 116.228 224.154L117.244 233.223L116.865 233.235Z" fill="#50844E"/>
<path d="M107.758 223.861C107.758 223.861 106.987 208.938 106.595 203.976C106.191 198.94 104.538 183.87 104.538 183.87C104.575 183.723 104.771 183.687 104.857 183.809L104.881 183.846C104.881 183.846 106.583 199.466 106.999 204.684C107.391 209.549 108.101 224.179 108.101 224.179L107.758 223.861Z" fill="#50844E"/>
<path d="M125.985 226.782L121.859 193.049L119.02 172.919C119.056 172.772 119.252 172.736 119.338 172.858L119.362 172.894L122.374 193.55L126.266 226.452L125.985 226.782Z" fill="#50844E"/>
<path d="M114.344 223.787C114.344 223.787 114.956 223.983 114.65 221.05C114.356 218.116 113.707 218.666 113.707 218.666L112.826 210.465C112.826 210.465 113.523 210.673 112.997 206.701C112.483 202.826 112.018 203.535 112.018 203.535L111.234 194.955C111.234 194.955 112.189 195.261 111.773 191.875C111.406 188.954 110.524 189.199 110.524 189.199L109.937 185.202L109.863 184.481C109.851 184.395 109.79 184.334 109.704 184.31L109.716 184.273C109.716 184.273 109.668 184.285 109.606 184.31C109.594 184.31 109.594 184.31 109.582 184.322C109.251 184.42 108.382 184.627 108.186 184.395C108.052 184.249 107.99 183.222 107.99 183.222C107.99 183.222 109.019 183.32 108.652 180.142C108.333 177.38 107.305 177.759 107.305 177.759L106.926 173.762C106.926 173.762 107.966 174.006 107.464 171.024C107.048 168.567 106.301 168.849 106.301 168.849L105.726 164.828C105.726 164.828 106.619 165.243 106.228 162.2C105.836 159.193 105.2 159.425 105.2 159.425L104.771 154.72L104.502 155.258L104.832 159.474C104.832 159.474 103.718 159.303 104.22 162.664C104.6 165.17 105.383 164.889 105.383 164.889L105.91 168.873C105.91 168.873 104.661 168.641 105.102 171.586C105.542 174.459 106.607 173.848 106.607 173.848L106.938 177.881C106.938 177.881 106.044 177.539 106.375 180.949C106.619 183.564 107.635 183.332 107.635 183.332C107.635 183.332 107.562 184.42 107.966 184.701C108.37 184.982 109.361 184.713 109.496 184.676L110.12 189.309C110.12 189.309 109.068 189.101 109.508 192.462C109.9 195.42 110.806 195.2 110.806 195.2L111.553 203.67C111.553 203.67 110.671 203.486 111.026 207.104C111.357 210.441 112.458 210.587 112.458 210.587L113.328 218.764C113.328 218.764 112.642 218.471 113.034 221.49C113.377 224.166 113.927 223.861 113.927 223.861L114.65 232.355L115.103 232.551L114.344 223.787Z" fill="#50844E"/>
<path d="M111.247 175.547L109.643 162.982C109.643 162.982 110.586 163.373 110.316 160.477C110.035 157.507 109.117 157.983 109.117 157.983L108.101 150.613L107.746 150.87L108.713 158.057C108.713 158.057 108.248 157.812 108.443 160.306C108.676 163.312 109.3 162.982 109.3 162.982C109.3 162.982 111.026 177.05 111.038 177.148C111.296 178.981 110.892 179.287 110.659 179.323L110.647 179.287C110.647 179.287 109.9 179.739 109.643 177.27C109.631 177.197 109.374 174.777 109.337 174.581C109.288 174.239 109.264 173.811 109.264 173.811C109.264 173.811 110.206 174.043 109.839 170.865C109.521 168.103 108.578 168.335 108.578 168.335L107.88 163.092C107.88 163.092 108.541 163.288 108.039 160.318C107.623 157.849 107.244 158.179 107.244 158.179L106.632 151.811L106.289 152.227L106.84 158.203C106.84 158.203 105.848 157.922 106.301 160.868C106.742 163.74 107.538 163.178 107.538 163.178L108.199 168.458C108.199 168.458 107.44 168.079 107.758 171.489C108.003 174.104 108.884 173.909 108.884 173.909L109.031 175.742C109.031 175.742 109.264 178.798 109.839 179.372C110.047 179.58 110.267 179.641 110.439 179.653V179.665C110.439 179.665 110.977 179.775 111.308 179.25C111.773 178.578 111.247 175.547 111.247 175.547Z" fill="#50844E"/>
<path d="M129.632 211.1C129.302 208.045 128.506 208.338 128.506 208.338L127.551 200.137C127.551 200.137 128.335 200.137 128.017 197.314C127.662 194.16 126.952 194.478 126.952 194.478C126.952 194.478 126.34 188.795 126.327 188.673C126.327 188.636 126.217 187.988 126.058 187.512C125.874 186.986 125.581 186.778 125.544 186.754C125.544 186.754 125.385 186.546 124.871 186.558H124.858C124.773 186.546 124.332 186.497 124.026 186.974C123.585 187.658 124.075 190.702 124.075 190.702L124.54 194.906C124.54 194.906 123.83 195.395 124.112 198.059C124.455 201.225 125.128 200.492 125.128 200.492L126.242 208.839C126.242 208.839 125.434 208.485 125.728 211.272C126.046 214.303 126.805 213.899 126.805 213.899L127.735 222.968L128.053 222.162L127.307 213.765C127.307 213.765 127.87 214.009 127.6 211.479C127.27 208.424 126.474 208.717 126.474 208.717L125.519 200.516C125.519 200.516 126.303 200.516 125.985 197.693C125.63 194.539 124.92 194.857 124.92 194.857C124.92 194.857 124.308 189.174 124.295 189.052C124.063 187.279 124.418 186.9 124.65 186.827C124.797 186.827 124.981 186.815 124.993 186.827C125.764 187.072 125.703 187.646 125.85 188.037L126.144 190.225L126.535 194.478C126.535 194.478 125.826 194.967 126.107 197.632C126.45 200.797 127.123 200.064 127.123 200.064L128.237 208.412C128.237 208.412 127.429 208.057 127.723 210.844C128.041 213.875 128.8 213.472 128.8 213.472L129.241 217.798L129.608 216.784L129.302 213.337C129.339 213.386 129.902 213.63 129.632 211.1Z" fill="#50844E"/>
<path d="M125.042 172.247L122.606 157.226L122.251 156.92C122.251 156.92 124.43 170.902 124.92 173.836C125.25 175.84 124.81 176.011 124.626 176.011L124.614 175.975C124.614 175.975 123.879 176.451 123.561 173.982C123.549 173.909 123.23 171.501 123.194 171.306C123.133 170.963 123.096 170.536 123.096 170.536C123.096 170.536 124.038 170.743 123.598 167.578C123.206 164.828 122.276 165.085 122.276 165.085L120.55 154.023L120.146 153.645L121.921 165.195C121.921 165.195 121.149 164.84 121.566 168.238C121.884 170.841 122.753 170.633 122.753 170.633L122.949 172.467C122.949 172.467 123.267 175.522 123.855 176.085C124.112 176.329 124.357 176.353 124.54 176.341C124.553 176.341 125.005 176.439 125.275 175.926C125.617 175.266 125.042 172.247 125.042 172.247Z" fill="#50844E"/>
<path d="M113.511 173.64C113.511 173.64 114.05 173.725 114.417 173.236C114.698 172.857 114.613 171.88 114.515 171.036C114.417 170.205 114.294 169.533 114.294 169.533L114.184 168.91C114.184 168.91 114.857 168.787 114.466 166.196C113.952 162.798 113.535 163.459 113.535 163.459L111.418 148.914L111.001 149.097L113.168 163.434C113.168 163.434 112.385 163.397 112.752 166.147C113.168 169.313 113.841 168.897 113.841 168.897C113.841 168.897 114.221 170.987 114.245 171.097C114.38 172.014 114.392 172.625 114.221 172.943C113.903 173.554 113.242 173.322 113.242 173.322L113.511 173.64Z" fill="#50844E"/>
<path d="M114.503 171.049C114.405 170.218 114.282 169.546 114.282 169.546L114.172 168.922C114.172 168.922 114.845 168.8 114.454 166.209C113.94 162.811 113.523 163.471 113.523 163.471L111.406 148.927L110.989 149.11L113.156 163.447C113.156 163.447 112.373 163.41 112.74 166.16C113.156 169.326 113.829 168.91 113.829 168.91C113.829 168.91 114.209 171 114.233 171.11C114.368 172.027 114.38 172.65 114.209 172.956C113.891 173.555 113.266 173.347 113.23 173.335C112.973 173.188 112.63 172.711 112.483 171.281C112.471 171.171 112.214 169.045 112.214 169.045C112.214 169.045 112.924 169.289 112.556 166.111C112.238 163.349 111.54 163.569 111.54 163.569L110.732 157.116C110.732 157.116 111.393 157.311 110.892 154.341C110.475 151.872 110.096 152.202 110.096 152.202L109.827 149.391L109.459 149.648L109.692 152.215C109.692 152.215 108.7 151.933 109.153 154.879C109.594 157.751 110.39 157.189 110.39 157.189L111.161 163.679C111.161 163.679 110.524 163.227 110.855 166.637C111.1 169.252 111.846 169.13 111.846 169.13L111.895 169.766C111.895 169.766 112.128 172.821 112.703 173.396C113.144 173.836 113.952 173.616 113.952 173.616L113.915 173.591C114.086 173.542 114.27 173.457 114.429 173.237C114.699 172.87 114.613 171.88 114.503 171.049Z" fill="#50844E"/>
<path d="M121.958 171.526C121.86 170.695 121.737 170.023 121.737 170.023L119.987 159.939C119.987 159.939 120.672 159.902 120.268 157.226C119.962 155.234 119.167 155.38 119.167 155.38L118.53 151.628L118.151 151.494L118.836 155.466C118.836 155.466 118.383 155.6 118.567 157.214C118.934 160.391 119.62 159.915 119.62 159.915C119.62 159.915 121.639 171.465 121.652 171.575C121.786 172.491 121.799 173.103 121.627 173.42C121.468 173.726 121.223 173.824 121.027 173.836L120.991 173.75C120.991 173.75 120.256 174.227 119.938 171.758C119.926 171.648 119.607 169.521 119.607 169.521C119.607 169.521 120.55 169.729 120.097 166.564C119.705 163.814 118.775 164.07 118.775 164.07L118.126 159.915C118.126 159.915 118.897 160.086 118.322 157.128C117.845 154.671 117.367 155.014 117.367 155.014L116.486 149.966L116.106 149.978L116.976 155.038C116.976 155.038 116.119 154.806 116.645 157.739C117.159 160.599 117.808 159.988 117.808 159.988L118.408 164.18C118.408 164.18 117.637 163.826 118.053 167.224C118.371 169.827 119.24 169.619 119.24 169.619L119.301 170.242C119.301 170.242 119.62 173.298 120.207 173.848C120.501 174.129 120.795 174.129 120.966 174.093C121.027 174.105 121.505 174.141 121.847 173.689C122.141 173.347 122.056 172.357 121.958 171.526Z" fill="#50844E"/>
<path d="M117.857 169.875C117.759 169.044 117.636 168.372 117.636 168.372L116.229 160.281C116.229 160.281 116.89 160.244 116.51 157.568C116.082 154.549 115.58 154.83 115.58 154.83L114.576 149.11L114.172 148.988L115.115 154.854C115.115 154.854 114.429 154.757 114.784 157.507C115.2 160.672 115.874 160.257 115.874 160.257C115.874 160.257 117.563 169.814 117.575 169.924C117.71 170.841 117.722 171.464 117.551 171.77C117.416 172.014 117.232 172.124 117.061 172.161H117.049C116.988 172.173 116.939 172.185 116.89 172.185C116.657 172.161 116.241 171.88 116.057 170.144C116.045 170.034 115.972 168.629 115.972 168.629C115.972 168.629 116.767 168.934 116.4 165.757C116.082 162.994 115.286 163.153 115.286 163.153L114.013 155.038C114.013 155.038 114.613 155.184 114.123 152.202C113.707 149.733 113.327 150.063 113.327 150.063L113.046 148.804L112.666 148.694L112.936 150.075C112.936 150.075 111.944 149.794 112.397 152.74C112.838 155.612 113.634 155.05 113.634 155.05L114.919 163.251C114.919 163.251 114.135 162.884 114.637 166.282C115.029 168.971 115.58 168.739 115.58 168.739C115.58 168.739 115.629 171.587 116.278 172.234C116.718 172.674 117.196 172.467 117.196 172.467L117.171 172.418C117.355 172.381 117.575 172.283 117.759 172.039C118.053 171.697 117.955 170.707 117.857 169.875Z" fill="#50844E"/>
<path d="M123.782 223.152C123.782 223.152 124.871 223.103 124.516 220.084C124.198 217.297 123.353 217.615 123.353 217.615L123.182 215.794C123.182 215.794 123.977 215.684 123.818 213.227C123.647 210.489 122.533 210.404 122.533 210.404L121.847 201.543C121.847 201.543 122.717 201.983 122.362 198.829C122.068 196.165 121.076 196.018 121.076 196.018L120.685 193.097C120.685 193.097 120.379 191.362 119.926 191.117C119.73 191.007 119.509 190.983 119.35 190.971C119.35 190.971 118.812 190.861 118.481 191.386C118.041 192.071 118.53 195.175 118.53 195.175L118.689 196.299C118.689 196.299 117.979 196.788 118.261 199.453C118.604 202.618 119.277 201.885 119.277 201.885L120.44 211.003C120.44 211.003 119.632 210.648 119.926 213.435C120.244 216.466 121.003 216.063 121.003 216.063L122.57 231.402L122.863 231.279L121.505 215.928C121.505 215.928 122.068 216.173 121.799 213.643C121.468 210.587 120.672 210.881 120.672 210.881L119.669 201.922C119.669 201.922 120.464 201.922 120.134 199.098C119.791 196.165 119.191 196.263 119.081 196.312C119.081 196.299 119.081 196.299 119.081 196.287C119.069 196.092 118.763 193.623 118.75 193.549C118.42 191.032 119.314 191.288 119.314 191.288C119.644 191.313 120.268 191.594 120.403 193.415C120.452 194.063 120.721 196.018 120.721 196.018C120.721 196.018 119.889 195.749 120.219 199.001C120.513 201.824 121.419 201.677 121.419 201.677L122.227 210.661C122.227 210.661 121.639 211.039 121.86 213.398C122.056 215.488 122.79 215.843 122.79 215.843L123.059 217.652C123.059 217.652 122.08 217.615 122.423 220.671C122.704 223.201 123.414 223.225 123.414 223.225L124.259 229.691L124.602 229.532L123.782 223.152Z" fill="#50844E"/>
<path d="M121.15 226.832C120.831 224.045 119.987 224.363 119.987 224.363L119.326 216.394C119.326 216.394 120.195 216.834 119.84 213.681C119.546 211.016 118.689 210.821 118.689 210.821L117.698 200.542C117.698 200.542 117.526 197.413 116.853 196.826C116.584 196.594 116.339 196.521 116.155 196.496C116.143 196.496 116.094 196.496 116.021 196.496C115.935 196.496 115.874 196.508 115.874 196.508C115.702 196.545 115.482 196.643 115.311 196.912C114.809 197.694 115.555 203.072 115.555 203.072C115.555 203.072 114.992 202.998 115.445 207.044C115.8 210.209 116.522 209.953 116.522 209.953C116.522 209.953 117.306 216.736 117.514 218.997C117.857 222.566 118.665 233.273 118.665 233.273L118.971 233.285C118.971 233.285 118.163 222.481 117.844 218.887C117.649 216.663 116.926 210.002 116.926 210.002C116.926 210.002 117.796 209.794 117.379 206.543C116.841 202.338 115.886 202.839 115.886 202.839C115.886 202.839 115.568 199.491 115.555 199.381C115.286 196.802 116.057 196.863 116.119 196.875C116.4 196.899 116.914 197.181 117.073 199.002C117.086 199.112 118.273 210.931 118.273 210.931C118.273 210.931 117.367 210.601 117.698 213.852C117.991 216.675 118.897 216.528 118.897 216.528L119.693 224.412C119.693 224.412 118.714 224.375 119.056 227.431C119.338 229.961 120.048 229.985 120.048 229.985L120.329 232.882L120.721 232.808L120.44 229.924C120.415 229.899 121.492 229.851 121.15 226.832Z" fill="#50844E"/>
<path d="M112.899 220.585C112.789 218.275 111.895 218.483 111.895 218.483C111.895 218.483 111.761 215.11 111.724 214.413C111.663 213.227 111.112 213.032 111.075 213.032C111.075 213.032 110.573 212.788 110.182 213.374C109.949 213.704 109.986 214.511 110.01 215.464C110.047 216.674 110.072 218.006 110.072 218.006C110.072 218.006 109.166 217.872 109.3 219.986C109.447 222.248 110.255 222.003 110.255 222.003L110.512 228.481L110.855 228.823L110.586 221.905C110.586 221.905 111.198 222.04 111.039 219.999C110.892 218.129 110.427 218.068 110.427 218.068C110.427 218.068 110.365 215.159 110.365 215.061C110.255 213.069 111.002 213.374 111.002 213.374V213.362C111.051 213.399 111.345 213.692 111.406 215.232C111.406 215.33 111.565 218.581 111.565 218.581C111.565 218.581 111.112 218.679 111.173 220.732C111.247 222.981 111.846 222.785 111.846 222.785L112.104 230.449L112.52 230.607L112.177 222.859C112.177 222.859 113.009 223.066 112.899 220.585Z" fill="#50844E"/>
<path d="M131.811 190.066C130.037 166.441 121.247 147.68 112.189 148.169C103.131 148.657 97.2184 168.225 98.9933 191.851C100.768 215.476 109.557 234.237 118.616 233.749C127.674 233.26 133.586 213.692 131.811 190.066ZM118.383 232.575C110.169 233.027 102.115 214.829 100.401 191.936C98.6873 169.044 103.951 150.124 112.165 149.684C120.378 149.232 128.433 167.431 130.147 190.323C131.86 213.203 126.597 232.123 118.383 232.575Z" fill="#50844E"/>
</svg>
