<svg width="579" height="341" viewBox="0 0 579 341" fill="none" xmlns="http://www.w3.org/2000/svg">
<path d="M205.622 249.991C210.633 245.4 204.372 230.445 191.637 216.589C178.903 202.733 164.518 195.222 159.507 199.813C154.496 204.404 160.757 219.359 173.491 233.215C186.225 247.071 200.61 254.582 205.622 249.991Z" fill="#9CC09B"/>
<path d="M189.528 246.656L186.162 242.94C186.162 242.94 185.721 243.514 184.142 241.84C182.293 239.884 183.04 239.628 183.04 239.628L179.711 235.973C179.711 235.973 179.405 236.963 177.287 234.751C175.108 232.478 176.075 232.111 176.075 232.111L172.868 228.64C172.868 228.64 172.55 229.373 170.995 227.662C169.44 225.951 170.089 225.694 170.089 225.694L161.447 216.32L161.129 215.379L170.31 225.474C170.31 225.474 170.518 224.888 171.974 226.416C173.627 228.139 173.064 228.42 173.064 228.42L176.332 231.903C176.332 231.903 176.638 231.329 178.487 233.211C180.714 235.484 179.882 235.753 179.882 235.753L183.187 239.286C183.187 239.286 183.652 238.711 185.28 240.398C187.116 242.317 186.37 242.683 186.37 242.683L190.63 247.389L189.528 246.656Z" fill="#50844E"/>
<path d="M204.658 250.897L199.553 245.653C199.553 245.653 199.443 246.399 197.521 244.456C195.673 242.598 196.322 242.28 196.322 242.28L191.474 237.354C191.474 237.354 191.168 238.137 189.001 235.912C186.982 233.834 187.545 233.297 187.545 233.297L180.482 225.939C180.359 225.768 180.567 225.56 180.739 225.682L187.753 233.089C187.753 233.089 188.145 232.759 190.103 234.666C192.27 236.78 191.658 237.147 191.658 237.147L196.566 242.084C196.566 242.084 196.934 241.681 198.586 243.319C200.496 245.213 199.725 245.458 199.725 245.458L204.89 250.701L204.658 250.897Z" fill="#50844E"/>
<path d="M194.412 249.503C194.412 249.503 186.455 240.434 183.725 237.488C180.947 234.506 172.378 225.779 172.378 225.779C172.329 225.669 172.427 225.547 172.549 225.584L172.586 225.596C172.586 225.596 181.473 234.64 184.337 237.745C187.018 240.642 194.804 249.539 194.804 249.539L194.412 249.503Z" fill="#50844E"/>
<path d="M206.983 242.255L187.532 222.944L175.695 211.602C175.646 211.492 175.744 211.369 175.867 211.406L175.903 211.418L188.108 223.005L206.996 241.901L206.983 242.255Z" fill="#50844E"/>
<path d="M198.39 246.166C198.39 246.166 198.855 245.983 197.203 244.284C195.55 242.573 195.428 243.245 195.428 243.245L190.776 238.491C190.776 238.491 191.303 238.271 188.989 236.022C186.737 233.822 186.798 234.506 186.798 234.506L182.012 229.458C182.012 229.458 182.746 229.177 180.788 227.234C179.098 225.559 178.682 226.158 178.682 226.158L176.32 223.909L175.916 223.482C175.867 223.433 175.793 223.433 175.732 223.457L175.72 223.433C175.72 223.433 175.145 224.325 174.851 224.264C174.692 224.239 174.141 223.616 174.141 223.616C174.141 223.616 174.814 223.164 173.002 221.343C171.423 219.754 170.983 220.499 170.983 220.499L168.743 218.153C168.743 218.153 169.489 217.786 167.702 216.148C166.221 214.792 165.903 215.354 165.903 215.354L163.528 213.093C163.528 213.093 164.287 212.909 162.512 211.186C160.761 209.475 160.492 209.939 160.492 209.939L157.873 207.165L157.97 207.642L160.284 210.147C160.284 210.147 159.513 210.587 161.508 212.469C163.002 213.875 163.332 213.301 163.332 213.301L165.646 215.562C165.646 215.562 164.764 216.038 166.515 217.676C168.216 219.277 168.571 218.361 168.571 218.361L170.799 220.744C170.799 220.744 170.089 220.976 171.999 222.968C173.468 224.496 173.957 223.848 173.957 223.848C173.957 223.848 174.459 224.582 174.851 224.545C175.23 224.521 175.708 223.861 175.769 223.763L178.474 226.378C178.474 226.378 177.727 226.769 179.686 228.676C181.412 230.363 181.853 229.764 181.853 229.764L186.565 234.751C186.565 234.751 185.941 235.068 187.973 237.183C189.846 239.138 190.593 238.674 190.593 238.674L195.232 243.428C195.232 243.428 194.669 243.587 196.42 245.298C197.974 246.814 198.158 246.362 198.158 246.362L202.858 251.385L203.238 251.275L198.39 246.166Z" fill="#50844E"/>
<path d="M172.292 217.15L165.009 209.988C165.009 209.988 165.78 209.756 164.164 208.069C162.512 206.334 162.181 207.092 162.181 207.092L157.86 202.924L157.775 203.266L161.973 207.336C161.973 207.336 161.569 207.409 162.94 208.888C164.593 210.673 164.801 210.159 164.801 210.159C164.801 210.159 172.917 218.214 172.966 218.263C174.043 219.289 173.945 219.693 173.823 219.827L173.798 219.815C173.798 219.815 173.578 220.475 172.182 219.033C172.146 218.996 170.762 217.59 170.652 217.48C170.444 217.285 170.224 217.028 170.224 217.028C170.224 217.028 170.909 216.71 169.097 214.877C167.518 213.288 167.065 213.899 167.065 213.899L164.005 210.929C164.005 210.929 164.507 210.722 162.708 209.084C161.214 207.727 161.153 208.13 161.153 208.13L157.591 204.403V204.83L160.921 208.338C160.921 208.338 160.174 208.656 161.936 210.294C163.638 211.895 163.846 211.137 163.846 211.137L166.906 214.156C166.906 214.156 166.258 214.29 168.167 216.295C169.636 217.823 170.065 217.26 170.065 217.26L171.081 218.348C171.081 218.348 172.758 220.169 173.394 220.243C173.627 220.267 173.786 220.206 173.896 220.12V220.133C173.896 220.133 174.275 219.937 174.214 219.436C174.129 218.813 172.292 217.15 172.292 217.15Z" fill="#50844E"/>
<path d="M205.943 238.32L201.267 233.37C201.267 233.37 201.732 233.247 200.3 231.781C198.562 230.008 198.219 230.595 198.219 230.595L193.531 225.877C193.531 225.877 194.008 225.486 192.392 223.861C190.593 222.04 190.324 222.59 190.324 222.59C190.324 222.59 187.092 219.29 187.031 219.228C186.002 218.226 186.027 217.798 186.137 217.64C186.223 217.566 186.333 217.468 186.345 217.468C186.945 217.236 187.19 217.627 187.471 217.811L188.744 219.045L191.119 221.538C191.119 221.538 190.923 222.198 192.441 223.751C194.241 225.584 194.29 224.777 194.29 224.777L199.162 229.507C199.162 229.507 198.488 229.678 200.067 231.304C201.781 233.064 202.05 232.428 202.05 232.428L204.499 234.946L204.217 234.127L202.295 232.098C202.295 232.098 202.76 231.976 201.328 230.51C199.59 228.737 199.247 229.324 199.247 229.324L194.559 224.606C194.559 224.606 195.036 224.215 193.433 222.59C191.633 220.768 191.364 221.318 191.364 221.318C191.364 221.318 188.132 218.018 188.071 217.957C188.047 217.933 187.667 217.578 187.324 217.358C186.945 217.114 186.663 217.138 186.639 217.138C186.639 217.138 186.443 217.09 186.125 217.346V217.358C186.064 217.395 185.77 217.578 185.819 218.043C185.892 218.691 187.716 220.377 187.716 220.377L190.103 222.81C190.103 222.81 189.907 223.47 191.425 225.022C193.225 226.855 193.274 226.048 193.274 226.048L198.146 230.778C198.146 230.778 197.472 230.95 199.051 232.575C200.765 234.335 201.034 233.7 201.034 233.7L206.151 238.98L205.943 238.32Z" fill="#50844E"/>
<path d="M181.02 210.416C180.898 209.805 179.025 208.192 179.025 208.192L170.003 199.893L169.636 199.868C169.636 199.868 177.984 207.642 179.759 209.255C180.971 210.355 180.788 210.685 180.677 210.771L180.653 210.758C180.653 210.758 180.445 211.418 179.013 210.025C178.976 209.988 177.556 208.62 177.446 208.51C177.238 208.326 177.005 208.07 177.005 208.07C177.005 208.07 177.691 207.727 175.83 205.955C174.202 204.403 173.774 205.026 173.774 205.026L167.176 198.878L166.747 198.842L173.627 205.271C173.627 205.271 172.978 205.43 174.936 207.373C176.442 208.864 176.858 208.302 176.858 208.302L177.899 209.365C177.899 209.365 179.625 211.137 180.261 211.211C180.531 211.235 180.702 211.137 180.812 211.04C180.8 211.04 181.118 210.868 181.02 210.416Z" fill="#50844E"/>
<path d="M172.709 214.816C172.709 214.816 173.076 214.596 173.064 214.119C173.051 213.74 172.5 213.154 172.023 212.677C171.546 212.2 171.129 211.834 171.129 211.834L170.75 211.492C170.75 211.492 171.093 211.076 169.55 209.634C167.531 207.739 167.604 208.363 167.604 208.363L159.011 200.198L158.839 200.516L167.359 208.522C167.359 208.522 166.87 208.888 168.473 210.453C170.309 212.249 170.517 211.65 170.517 211.65C170.517 211.65 171.803 212.787 171.864 212.848C172.402 213.362 172.721 213.753 172.782 214.034C172.892 214.584 172.378 214.767 172.378 214.767L172.709 214.816Z" fill="#50844E"/>
<path d="M173.052 214.108C173.039 213.729 172.488 213.142 172.011 212.665C171.534 212.189 171.117 211.822 171.117 211.822L170.738 211.48C170.738 211.48 171.081 211.064 169.538 209.622C167.519 207.728 167.592 208.351 167.592 208.351L158.999 200.187L158.827 200.504L167.347 208.51C167.347 208.51 166.858 208.877 168.461 210.441C170.297 212.238 170.505 211.639 170.505 211.639C170.505 211.639 171.791 212.775 171.852 212.837C172.391 213.35 172.709 213.741 172.77 214.022C172.88 214.56 172.378 214.743 172.366 214.743C172.133 214.78 171.693 214.645 170.885 213.814C170.824 213.753 169.6 212.531 169.6 212.531C169.6 212.531 170.15 212.335 168.339 210.502C166.76 208.913 166.441 209.402 166.441 209.402L162.708 205.711C162.708 205.711 163.21 205.503 161.41 203.865C159.917 202.509 159.856 202.912 159.856 202.912L158.277 201.262L158.191 201.604L159.623 203.108C159.623 203.108 158.876 203.425 160.639 205.063C162.341 206.664 162.549 205.907 162.549 205.907L166.282 209.634C166.282 209.634 165.67 209.659 167.58 211.663C169.049 213.191 169.44 212.751 169.44 212.751L169.783 213.13C169.783 213.13 171.46 214.951 172.097 215.024C172.586 215.085 172.966 214.548 172.966 214.548H172.941C173.003 214.474 173.064 214.328 173.052 214.108Z" fill="#50844E"/>
<path d="M177.838 210.71C177.825 210.331 177.275 209.744 176.797 209.268C176.32 208.791 175.904 208.424 175.904 208.424L169.771 202.9C169.771 202.9 170.175 202.533 168.571 201.042C167.384 199.93 166.968 200.419 166.968 200.419L164.703 198.365L164.409 198.463L166.821 200.639C166.821 200.639 166.613 200.944 167.543 201.873C169.355 203.706 169.538 203.059 169.538 203.059C169.538 203.059 176.565 209.365 176.638 209.439C177.177 209.952 177.495 210.343 177.556 210.624C177.617 210.893 177.507 211.076 177.397 211.186L177.324 211.15C177.324 211.15 177.115 211.81 175.683 210.416C175.622 210.355 174.361 209.17 174.361 209.17C174.361 209.17 175.047 208.828 173.174 207.055C171.546 205.503 171.117 206.139 171.117 206.139L168.632 203.829C168.632 203.829 169.183 203.56 167.347 201.971C165.829 200.651 165.707 201.103 165.707 201.103L162.634 198.341L162.414 198.536L165.486 201.311C165.486 201.311 164.85 201.592 166.649 203.193C168.4 204.745 168.485 204.036 168.485 204.036L170.958 206.395C170.958 206.395 170.309 206.554 172.268 208.498C173.774 209.989 174.19 209.414 174.19 209.414L174.545 209.781C174.545 209.781 176.271 211.553 176.907 211.614C177.226 211.651 177.409 211.504 177.495 211.394C177.544 211.37 177.85 211.162 177.838 210.71Z" fill="#50844E"/>
<path d="M174.508 211.7C174.496 211.321 173.945 210.734 173.468 210.257C172.99 209.781 172.574 209.414 172.574 209.414L167.653 204.99C167.653 204.99 168.033 204.635 166.454 203.132C164.679 201.433 164.507 201.861 164.507 201.861L161.031 198.744L160.725 198.866L164.25 202.105C164.25 202.105 163.773 202.386 165.376 203.951C167.225 205.747 167.421 205.149 167.421 205.149C167.421 205.149 173.247 210.355 173.309 210.429C173.847 210.942 174.165 211.333 174.227 211.614C174.288 211.932 174.153 212.115 174.019 212.213C173.847 212.299 173.443 212.286 172.513 211.321C172.452 211.26 171.705 210.404 171.705 210.404C171.705 210.404 172.342 210.196 170.53 208.375C168.951 206.786 168.547 207.287 168.547 207.287L163.699 202.777C163.699 202.777 164.14 202.57 162.341 200.932C160.847 199.575 160.786 199.979 160.786 199.979L159.978 199.331L159.697 199.441L160.553 200.186C160.553 200.186 159.807 200.504 161.569 202.142C163.271 203.743 163.479 202.985 163.479 202.985L168.375 207.544C168.375 207.544 167.714 207.703 169.722 209.597C171.313 211.113 171.534 210.685 171.534 210.685C171.534 210.685 172.99 212.47 173.713 212.555C174.202 212.616 174.386 212.25 174.386 212.25L174.349 212.225C174.435 212.127 174.52 211.944 174.508 211.7Z" fill="#50844E"/>
<path d="M201.72 240.153C203.164 241.619 203.605 241.277 203.605 241.277L207.363 244.944L207.486 244.663L203.801 241.045C203.801 241.045 204.438 240.471 202.712 238.735C201.12 237.134 200.765 237.745 200.765 237.745L199.749 236.669C199.749 236.669 200.178 236.205 198.856 234.726C197.374 233.088 196.652 233.577 196.652 233.577L191.793 228.309C191.793 228.309 192.552 228.151 190.74 226.329C189.222 224.789 188.536 225.193 188.536 225.193L186.823 223.543C186.823 223.543 185.758 222.602 185.366 222.675C185.195 222.712 185.048 222.797 184.95 222.871C184.95 222.871 184.57 223.066 184.619 223.567C184.693 224.215 186.541 225.938 186.541 225.938L187.202 226.562C187.202 226.562 187.006 227.222 188.524 228.774C190.324 230.607 190.373 229.801 190.373 229.801L195.661 234.995C195.661 234.995 194.987 235.166 196.567 236.792C198.28 238.552 198.55 237.916 198.55 237.916L207.204 246.851L207.314 246.631L198.782 237.586C198.782 237.586 199.247 237.464 197.815 235.997C196.077 234.225 195.734 234.812 195.734 234.812L190.617 229.629C190.617 229.629 191.107 229.238 189.479 227.613C187.765 225.902 187.471 226.293 187.435 226.378C187.423 226.366 187.435 226.366 187.423 226.366C187.312 226.244 185.88 224.838 185.843 224.802C184.387 223.372 185.048 223.091 185.048 223.091C185.268 222.932 185.782 222.809 186.774 223.897C187.129 224.276 188.279 225.388 188.279 225.388C188.279 225.388 187.643 225.633 189.467 227.527C191.058 229.177 191.536 228.627 191.536 228.627L196.542 233.919C196.542 233.919 196.371 234.457 197.693 235.826C198.868 237.048 199.492 236.914 199.492 236.914L200.569 237.916C200.594 237.928 199.982 238.393 201.72 240.153Z" fill="#50844E"/>
<path d="M203.066 246.105C204.511 247.572 204.951 247.23 204.951 247.23L206.579 248.928L206.775 248.696L205.159 247.01C205.159 247.01 205.796 246.435 204.07 244.7C202.479 243.098 202.124 243.71 202.124 243.71L197.717 238.992C197.717 238.992 198.476 238.833 196.664 237.012C195.146 235.472 194.522 235.777 194.522 235.777L188.756 229.752C188.756 229.752 187.079 227.857 186.382 227.821C186.1 227.808 185.917 227.882 185.794 227.967C185.782 227.967 185.757 227.992 185.708 228.041C185.659 228.09 185.623 228.114 185.623 228.126C185.537 228.236 185.451 228.407 185.488 228.664C185.574 229.41 188.732 232.441 188.732 232.441C188.732 232.441 188.353 232.685 190.654 235.007C192.453 236.828 192.772 236.315 192.772 236.315C192.772 236.315 196.652 240.226 197.913 241.546C199.908 243.636 205.771 250.016 205.771 250.016L205.955 249.87C205.955 249.87 200.043 243.428 198.035 241.314C196.799 240.006 193.016 236.144 193.016 236.144C193.016 236.144 193.445 235.582 191.56 233.724C189.124 231.328 188.793 232.123 188.793 232.123C188.793 232.123 186.92 230.167 186.847 230.094C185.39 228.591 185.892 228.248 185.941 228.224C186.125 228.102 186.578 228.016 187.594 229.092C187.655 229.165 194.314 236.046 194.314 236.046C194.314 236.046 193.604 236.291 195.428 238.185C197.019 239.835 197.497 239.285 197.497 239.285L201.94 243.881C201.94 243.881 201.316 244.345 203.066 246.105Z" fill="#50844E"/>
<path d="M194.914 245.812C196.089 247.193 196.346 246.777 196.346 246.777L200.349 251.507L200.679 251.397L196.579 246.655C196.579 246.655 197.191 246.374 195.881 244.859C194.657 243.453 194.216 244.027 194.216 244.027C194.216 244.027 192.441 241.962 192.074 241.534C191.437 240.813 191.009 240.972 190.984 240.984C190.984 240.984 190.556 241.082 190.605 241.644C190.629 241.974 191.058 242.463 191.548 243.062C192.172 243.807 192.857 244.639 192.857 244.639C192.857 244.639 192.245 245.005 193.384 246.276C194.608 247.633 194.975 247.083 194.975 247.083L198.378 251.055L198.757 251.104L195.122 246.863C195.122 246.863 195.563 246.643 194.436 245.433C193.408 244.321 193.09 244.516 193.09 244.516C193.09 244.516 191.584 242.707 191.548 242.646C190.483 241.449 191.095 241.253 191.095 241.253V241.241C191.144 241.241 191.462 241.277 192.282 242.219C192.331 242.28 194.057 244.26 194.057 244.26C194.057 244.26 193.849 244.541 194.914 245.812Z" fill="#50844E"/>
<path d="M192.099 216.099C179.16 202.019 164.385 194.515 159.109 199.343C153.833 204.171 160.052 219.509 172.99 233.589C185.929 247.669 200.704 255.174 205.98 250.346C211.268 245.518 205.05 230.179 192.099 216.099ZM205.258 249.723C200.484 254.098 186.443 246.594 173.896 232.942C161.361 219.302 155.07 204.684 159.844 200.308C164.618 195.933 178.658 203.437 191.205 217.089C203.752 230.729 210.044 245.347 205.258 249.723Z" fill="#50844E"/>
</svg>
