<svg width="579" height="341" viewBox="0 0 579 341" fill="none" xmlns="http://www.w3.org/2000/svg">
<path d="M287.935 258.187C288.726 252.204 278.783 245.959 265.727 244.237C252.671 242.516 241.445 245.971 240.654 251.953C239.863 257.936 249.806 264.181 262.862 265.903C275.918 267.624 287.144 264.169 287.935 258.187Z" fill="#9CC09B"/>
<path d="M251.614 244.639L255.078 245.176C255.078 245.176 255.115 244.541 256.719 244.749C258.579 244.981 258.249 245.592 258.249 245.592L261.664 246.105C261.664 246.105 261.456 245.274 263.586 245.519C265.777 245.775 265.349 246.57 265.349 246.57L268.617 247.034C268.617 247.034 268.519 246.362 270.11 246.606C271.714 246.851 271.42 247.389 271.42 247.389L280.246 248.648L280.809 249.088L271.371 247.645C271.371 247.645 271.481 248.159 270.012 247.975C268.348 247.78 268.58 247.266 268.58 247.266L265.263 246.826C265.263 246.826 265.312 247.389 263.476 247.193C261.26 246.961 261.64 246.313 261.64 246.313L258.286 245.861C258.286 245.861 258.237 246.509 256.609 246.325C254.76 246.105 255.066 245.433 255.066 245.433L250.684 244.749L251.614 244.639Z" fill="#50844E"/>
<path d="M240.94 250.505L246.045 251.055C246.045 251.055 245.824 250.493 247.722 250.688C249.558 250.872 249.301 251.446 249.301 251.446L254.124 251.935C254.124 251.935 254.001 251.238 256.156 251.47C258.176 251.69 258.053 252.375 258.053 252.375L265.153 253.206C265.3 253.243 265.251 253.512 265.104 253.524L258.016 252.632C258.016 252.632 257.906 253.084 255.997 252.937C253.879 252.778 254.099 252.179 254.099 252.179L249.24 251.715C249.24 251.715 249.178 252.192 247.563 252.057C245.677 251.898 246.045 251.299 246.045 251.299L240.903 250.786L240.94 250.505Z" fill="#50844E"/>
<path d="M247.575 245.556C247.575 245.556 255.874 247.01 258.665 247.401C261.493 247.792 270.025 248.66 270.025 248.66C270.098 248.709 270.086 248.843 270 248.892L269.976 248.905C269.976 248.905 261.138 248 258.212 247.585C255.482 247.206 247.342 245.751 247.342 245.751L247.575 245.556Z" fill="#50844E"/>
<path d="M242.96 257.582L262.13 259.244L273.624 259.978C273.697 260.026 273.685 260.161 273.599 260.21L273.575 260.222L261.762 259.538L243.095 257.826L242.96 257.582Z" fill="#50844E"/>
<path d="M285.706 252.461L283.343 252.119C283.343 252.119 283.625 251.386 281.703 251.288C280.271 251.214 280.295 251.789 280.295 251.789L278.031 251.618C278.031 251.618 278.361 250.799 276.672 250.713C275.031 250.628 275.191 251.434 275.191 251.434L272.926 251.129C272.926 251.129 273.257 250.567 271.335 250.334C269.866 250.163 269.829 250.872 269.829 250.872C269.829 250.872 269.241 250.677 269.021 250.921C268.801 251.166 268.776 251.874 268.776 251.972L266.12 251.777C266.12 251.777 266.414 251.092 264.492 250.946C262.803 250.811 262.778 251.471 262.778 251.471L258.016 250.86C258.016 250.86 258.261 250.286 256.229 250.053C254.344 249.833 254.087 250.567 254.087 250.567L249.46 250.066C249.46 250.066 249.729 249.638 248.016 249.503C246.498 249.381 246.571 249.797 246.571 249.797L241.797 249.161L241.614 249.442L246.534 250.053C246.534 250.053 246.326 250.444 247.979 250.628C249.631 250.811 249.436 250.31 249.436 250.31L254.075 250.799C254.075 250.799 253.842 251.251 256.107 251.422C258.31 251.593 258.004 251.178 258.004 251.178L262.827 251.777C262.827 251.777 262.497 252.388 264.431 252.547C266.096 252.693 266.108 252.058 266.108 252.058L268.397 252.192L268.801 252.241C268.85 252.241 268.899 252.204 268.923 252.156L268.935 252.168C268.935 252.168 268.923 251.239 269.131 251.104C269.241 251.031 269.805 251.129 269.805 251.129C269.805 251.129 269.584 251.813 271.384 251.984C272.951 252.131 272.914 251.386 272.914 251.386L275.166 251.667C275.166 251.667 274.86 252.339 276.574 252.4C277.994 252.449 277.957 251.899 277.957 251.899L280.258 252.033C280.258 252.033 279.879 252.583 281.617 252.718C283.331 252.852 283.306 252.388 283.306 252.388L285.963 252.718L285.706 252.461Z" fill="#50844E"/>
<path d="M287.64 255.504L287.554 255.235L283.453 254.941C283.453 254.941 283.662 254.66 282.266 254.465C280.577 254.233 280.663 254.697 280.663 254.697C280.663 254.697 272.669 254 272.608 254C271.555 253.939 271.457 253.609 271.482 253.45L271.506 253.438C271.506 253.438 271.384 252.876 272.779 253.023C272.816 253.023 274.187 253.169 274.297 253.169C274.493 253.181 274.726 253.218 274.726 253.218C274.726 253.218 274.444 253.829 276.244 254C277.81 254.147 277.835 253.475 277.835 253.475L280.822 253.695C280.822 253.695 280.601 254.123 282.315 254.171C283.735 254.22 283.613 253.915 283.613 253.915L287.199 254.343L287.028 254.061L283.662 253.646C283.662 253.646 283.98 253.01 282.291 252.925C280.65 252.839 280.822 253.463 280.822 253.463L277.823 253.218C277.823 253.218 278.153 252.754 276.231 252.521C274.762 252.35 274.713 252.961 274.713 252.961L273.685 252.815C273.685 252.815 271.971 252.57 271.567 252.888C271.421 252.998 271.347 253.145 271.31 253.255C271.31 253.255 271.164 253.609 271.396 253.903C271.69 254.281 273.44 254.33 273.44 254.33L280.589 254.905C280.589 254.905 280.222 255.504 281.85 255.699C283.515 255.907 283.417 255.21 283.417 255.21L287.64 255.504Z" fill="#50844E"/>
<path d="M265.079 261.517C264.773 261.126 263.035 261.053 263.035 261.053L260.66 260.809C260.66 260.809 260.513 260.259 259.008 260.1C257.221 259.916 257.502 260.479 257.502 260.479L252.74 260.124C252.74 260.124 253.071 259.623 251.492 259.452C249.778 259.269 249.864 259.843 249.864 259.843L244.735 259.269L245.126 259.586L249.851 260.197C249.851 260.197 249.619 260.552 251.051 260.699C252.777 260.882 252.753 260.295 252.753 260.295L257.404 260.735C257.404 260.735 257.27 261.261 258.873 261.42C260.66 261.603 260.599 261.077 260.599 261.077C260.599 261.077 263.818 261.42 263.88 261.42C264.883 261.493 265.03 261.786 265.043 261.957C265.018 262.055 264.994 262.177 264.981 262.19C264.712 262.691 264.418 262.569 264.173 262.617L262.925 262.532L260.526 262.239C260.526 262.239 260.379 261.689 258.873 261.53C257.086 261.346 257.367 261.909 257.367 261.909L252.606 261.554C252.606 261.554 252.936 261.053 251.357 260.882C249.643 260.699 249.729 261.273 249.729 261.273L247.281 261.004L247.771 261.383L249.717 261.627C249.717 261.627 249.484 261.982 250.916 262.129C252.642 262.312 252.618 261.725 252.618 261.725L257.27 262.165C257.27 262.165 257.135 262.691 258.738 262.85C260.526 263.033 260.464 262.507 260.464 262.507C260.464 262.507 263.684 262.85 263.745 262.85C263.77 262.85 264.137 262.874 264.418 262.825C264.737 262.764 264.896 262.593 264.92 262.581C264.92 262.581 265.055 262.495 265.141 262.153V262.141C265.177 262.092 265.287 261.799 265.079 261.517Z" fill="#50844E"/>
<path d="M275.778 263.803C277.357 263.901 277.369 263.241 277.369 263.241L283.71 263.534L283.98 263.314L277.357 262.984C277.357 262.984 277.688 262.507 275.754 262.336C274.272 262.202 274.248 262.825 274.248 262.825L273.207 262.715C273.207 262.715 271.481 262.52 271.077 262.85C270.906 262.984 270.845 263.155 270.82 263.277C270.82 263.29 270.686 263.583 270.931 263.84C271.249 264.17 272.987 264.182 272.987 264.182L281.617 264.524L281.85 264.329C281.85 264.329 273.832 263.962 272.142 263.901C270.992 263.864 270.967 263.534 271.004 263.412H271.029C271.029 263.412 270.894 262.85 272.289 262.96C272.326 262.96 273.709 263.057 273.819 263.07C274.015 263.07 274.26 263.106 274.26 263.106C274.26 263.106 273.966 263.693 275.778 263.803Z" fill="#50844E"/>
<path d="M274.138 256.14C274.138 256.14 274.003 256.494 274.211 256.812C274.37 257.056 274.921 257.13 275.398 257.166C275.876 257.203 276.255 257.215 276.255 257.215L276.61 257.228C276.61 257.228 276.561 257.704 278.055 257.778C280.001 257.875 279.707 257.509 279.707 257.509L288.031 257.998L288.007 257.692L279.793 257.264C279.793 257.264 279.94 256.739 278.373 256.616C276.574 256.482 276.684 256.995 276.684 256.995C276.684 256.995 275.472 256.983 275.411 256.971C274.884 256.934 274.542 256.861 274.407 256.714C274.125 256.409 274.358 255.993 274.358 255.993L274.138 256.14Z" fill="#50844E"/>
<path d="M288.007 257.668L279.793 257.24C279.793 257.24 279.94 256.714 278.373 256.592C276.574 256.458 276.684 256.971 276.684 256.971C276.684 256.971 275.472 256.959 275.411 256.947C274.885 256.91 274.542 256.837 274.407 256.69C274.126 256.397 274.358 255.981 274.358 255.969C274.481 255.81 274.799 255.639 275.607 255.724C275.668 255.737 276.88 255.834 276.88 255.834C276.88 255.834 276.635 256.287 278.422 256.458C279.989 256.604 279.977 256.103 279.977 256.103L283.649 256.409C283.649 256.409 283.429 256.837 285.143 256.886C286.563 256.934 286.44 256.629 286.44 256.629L288.031 256.824L287.946 256.543L286.501 256.36C286.501 256.36 286.82 255.724 285.13 255.639C283.49 255.553 283.661 256.177 283.661 256.177L279.977 255.847C279.977 255.847 280.332 255.48 278.41 255.248C276.941 255.077 276.88 255.59 276.88 255.59L276.525 255.541C276.525 255.541 274.811 255.297 274.407 255.615C274.089 255.859 274.077 256.433 274.077 256.433L274.089 256.409C274.089 256.531 274.101 256.666 274.199 256.8C274.358 257.044 274.909 257.118 275.387 257.154C275.864 257.191 276.243 257.203 276.243 257.203L276.598 257.216C276.598 257.216 276.549 257.692 278.043 257.766C279.989 257.863 279.695 257.497 279.695 257.497L288.019 257.986L288.007 257.668Z" fill="#50844E"/>
<path d="M286.66 261.041L283.747 260.955C283.747 260.955 284.016 260.405 282.315 260.369C280.662 260.344 280.895 260.857 280.895 260.857L278.496 260.711C278.496 260.711 278.814 260.234 276.88 260.063C275.399 259.941 275.374 260.552 275.374 260.552L275.019 260.515C275.019 260.515 273.293 260.332 272.889 260.65C272.681 260.809 272.632 261.016 272.632 261.139C272.62 261.175 272.51 261.493 272.706 261.786C272.865 262.031 273.416 262.104 273.893 262.141C274.37 262.178 274.75 262.19 274.75 262.19L280.564 262.336C280.564 262.336 280.466 262.813 282.009 262.886C283.147 262.947 283.208 262.385 283.208 262.385L285.363 262.446L285.498 262.214L283.208 262.153C283.208 262.153 283.208 261.835 282.29 261.737C280.491 261.566 280.638 262.092 280.638 262.092C280.638 262.092 273.979 261.933 273.905 261.933C273.379 261.896 273.036 261.823 272.902 261.676C272.767 261.53 272.755 261.346 272.779 261.212L272.84 261.2C272.84 261.2 272.706 260.637 274.101 260.747C274.162 260.747 275.374 260.821 275.374 260.821C275.374 260.821 275.105 261.444 276.917 261.542C278.496 261.64 278.508 260.967 278.508 260.967L280.895 261.077C280.895 261.077 280.675 261.579 282.388 261.579C283.808 261.579 283.698 261.212 283.698 261.212L286.611 261.285L286.66 261.041Z" fill="#50844E"/>
<path d="M287.921 258.865H287.113C287.113 258.865 287.432 258.23 285.742 258.144C284.102 258.059 284.273 258.682 284.273 258.682L279.573 258.474C279.573 258.474 279.903 257.997 277.957 257.875C276.415 257.79 276.451 258.193 276.451 258.193C276.451 258.193 274.885 257.851 274.419 258.205C274.101 258.45 274.138 258.792 274.138 258.792L274.175 258.78C274.162 258.902 274.187 259.073 274.285 259.232C274.444 259.476 274.995 259.55 275.472 259.586C275.95 259.623 276.329 259.635 276.329 259.635L280.993 259.745C280.993 259.745 280.907 260.197 282.437 260.295C284.163 260.405 284.09 260.026 284.09 260.026L287.383 260.1L287.517 259.843L284.151 259.709C284.151 259.709 284.322 259.256 282.756 259.134C280.956 259 281.066 259.513 281.066 259.513C281.066 259.513 275.558 259.391 275.484 259.391C274.958 259.354 274.615 259.281 274.481 259.134C274.322 258.963 274.334 258.755 274.37 258.609C274.432 258.45 274.676 258.23 275.619 258.327C275.68 258.34 276.464 258.474 276.464 258.474C276.464 258.474 276.17 258.975 277.969 259.146C279.536 259.293 279.573 258.731 279.573 258.731L284.237 258.939C284.237 258.939 284.053 259.33 285.767 259.391C287.187 259.44 287.064 259.134 287.064 259.134L287.799 259.11L287.921 258.865Z" fill="#50844E"/>
<path d="M263.598 257.155C263.292 256.764 261.517 256.678 261.517 256.678L260.881 256.642C260.881 256.642 260.734 256.092 259.228 255.933C257.441 255.749 257.722 256.312 257.722 256.312L252.532 255.896C252.532 255.896 252.863 255.395 251.284 255.224C249.57 255.041 249.656 255.615 249.656 255.615L240.989 254.649L241.014 254.869L249.643 255.982C249.643 255.982 249.411 256.336 250.843 256.483C252.569 256.666 252.545 256.079 252.545 256.079L257.625 256.581C257.625 256.581 257.49 257.118 259.093 257.265C260.783 257.424 260.807 256.996 260.795 256.923C260.807 256.923 260.795 256.923 260.807 256.923C260.917 256.935 262.325 257.057 262.362 257.057C263.794 257.167 263.512 257.742 263.512 257.742C263.439 257.962 263.182 258.353 262.166 258.194C261.811 258.145 260.685 258.059 260.685 258.059C260.685 258.059 260.966 257.522 259.13 257.326C257.539 257.143 257.465 257.791 257.465 257.791L252.41 257.143C252.41 257.143 252.3 256.691 250.978 256.532C249.803 256.397 249.484 256.837 249.484 256.837L248.456 256.788C248.456 256.788 248.64 256.128 246.914 255.957C245.481 255.823 245.347 256.287 245.347 256.287L241.662 256.006L241.699 256.263L245.31 256.544C245.31 256.544 245.151 257.289 246.865 257.448C248.444 257.595 248.407 256.984 248.407 256.984L249.435 257.106C249.435 257.106 249.362 257.656 250.733 257.876C252.263 258.121 252.496 257.375 252.496 257.375L257.465 258.084C257.465 258.084 257.074 258.622 258.873 258.793C260.379 258.939 260.624 258.292 260.624 258.292L262.288 258.414C262.288 258.414 263.292 258.438 263.5 258.157C263.586 258.035 263.647 257.888 263.672 257.791C263.672 257.803 263.831 257.461 263.598 257.155Z" fill="#50844E"/>
<path d="M261.224 254.71C261.236 254.588 261.211 254.416 261.101 254.27C260.758 253.83 257.686 253.622 257.686 253.622C257.686 253.622 257.821 253.243 255.531 253.023C253.744 252.852 253.757 253.365 253.757 253.365C253.757 253.365 249.913 252.999 248.64 252.84C246.632 252.595 240.634 251.728 240.634 251.728L240.585 251.935C240.585 251.935 246.632 252.828 248.664 253.072C249.913 253.231 253.683 253.622 253.683 253.622C253.683 253.622 253.646 254.233 255.507 254.392C257.906 254.588 257.784 253.866 257.784 253.866C257.784 253.866 259.669 254.086 259.73 254.099C261.187 254.258 261.028 254.771 261.003 254.82C260.942 255.003 260.709 255.321 259.681 255.186C259.62 255.174 252.949 254.416 252.949 254.416C252.949 254.416 253.279 253.842 251.443 253.634C249.852 253.451 249.778 254.099 249.778 254.099L245.335 253.598C245.335 253.598 245.518 252.938 243.792 252.766C242.36 252.632 242.226 253.096 242.226 253.096L240.597 252.901L240.573 253.17L242.201 253.353C242.201 253.353 242.042 254.099 243.756 254.258C245.335 254.404 245.298 253.793 245.298 253.793L249.778 254.404C249.778 254.404 249.387 254.942 251.186 255.113C252.692 255.26 252.949 254.71 252.949 254.71L258.751 255.406C258.751 255.406 260.489 255.7 260.93 255.321C261.101 255.174 261.187 255.015 261.224 254.881C261.224 254.869 261.236 254.832 261.248 254.783C261.224 254.746 261.224 254.71 261.224 254.71Z" fill="#50844E"/>
<path d="M252.936 248.599C252.79 248.403 252.349 248.306 251.823 248.208C251.149 248.073 250.415 247.914 250.415 247.914C250.415 247.914 250.635 247.316 249.46 247.12C248.199 246.912 248.199 247.499 248.199 247.499L244.613 246.814L244.368 246.998L248.199 247.731C248.199 247.731 248.016 248.122 249.166 248.293C250.219 248.44 250.329 248.134 250.329 248.134C250.329 248.134 251.933 248.477 251.982 248.489C253.096 248.672 252.802 249.149 252.802 249.149C252.777 249.173 252.569 249.332 251.712 249.173C251.663 249.161 249.852 248.831 249.852 248.831C249.852 248.831 249.876 248.501 248.738 248.281C247.489 248.037 247.501 248.464 247.501 248.464L243.254 247.621L243.095 247.89L247.391 248.684C247.391 248.684 247.134 249.222 248.517 249.479C249.803 249.711 249.84 249.076 249.84 249.076C249.84 249.076 251.712 249.43 252.104 249.503C252.765 249.626 252.961 249.259 252.973 249.247C252.973 249.259 253.181 248.953 252.936 248.599Z" fill="#50844E"/>
<path d="M266.573 243.832C253.328 241.901 241.601 245.397 240.365 251.63C239.129 257.864 248.86 264.488 262.105 266.407C275.35 268.326 287.077 264.842 288.313 258.609C289.549 252.376 279.806 245.751 266.573 243.832ZM287.481 258.389C286.367 264.036 275.056 267.104 262.24 265.246C249.411 263.376 239.924 257.289 241.051 251.63C242.164 245.984 253.475 242.916 266.292 244.774C279.108 246.644 288.607 252.742 287.481 258.389Z" fill="#50844E"/>
</svg>
