<svg width="579" height="341" viewBox="0 0 579 341" fill="none" xmlns="http://www.w3.org/2000/svg">
<path d="M305.423 29.5361C305.894 23.8785 294.692 18.33 280.402 17.1431C266.111 15.9562 254.145 19.5805 253.673 25.238C253.202 30.8956 264.404 36.4441 278.695 37.631C292.985 38.8179 304.952 35.1937 305.423 29.5361Z" fill="#9CC09B"/>
<path d="M294.238 36.7504L290.443 36.3838C290.443 36.3838 290.467 36.9826 288.705 36.8482C286.66 36.7015 286.979 36.1149 286.979 36.1149L283.233 35.7604C283.233 35.7604 283.539 36.5426 281.201 36.3838C278.802 36.2249 279.193 35.4549 279.193 35.4549L275.607 35.1371C275.607 35.1371 275.778 35.7604 274.028 35.5893C272.277 35.4182 272.534 34.9049 272.534 34.9049L262.852 34.0493L262.203 33.6582L272.547 34.6604C272.547 34.6604 272.375 34.1838 273.991 34.2938C275.815 34.416 275.607 34.9049 275.607 34.9049L279.23 35.1982C279.23 35.1982 279.132 34.6726 281.14 34.7826C283.563 34.9171 283.208 35.5404 283.208 35.5404L286.893 35.8338C286.893 35.8338 286.893 35.2104 288.668 35.3327C290.688 35.4671 290.431 36.1149 290.431 36.1149L295.241 36.5915L294.238 36.7504Z" fill="#50844E"/>
<path d="M305.254 30.811L299.685 30.481C299.685 30.481 299.979 30.9943 297.898 30.8966C295.902 30.7988 296.123 30.2488 296.123 30.2488L290.859 29.9677C290.859 29.9677 291.055 30.6154 288.692 30.481C286.477 30.3588 286.55 29.6988 286.55 29.6988L278.789 29.1854C278.63 29.1488 278.655 28.9043 278.814 28.8799L286.562 29.4543C286.562 29.4543 286.636 29.0266 288.729 29.0877C291.043 29.161 290.859 29.7354 290.859 29.7354L296.172 29.9921C296.172 29.9921 296.196 29.5399 297.959 29.6132C300.015 29.6866 299.673 30.2732 299.673 30.2732L305.279 30.5543L305.254 30.811Z" fill="#50844E"/>
<path d="M298.522 35.7368C298.522 35.7368 289.403 34.6857 286.342 34.4168C283.245 34.1601 273.93 33.659 273.93 33.659C273.844 33.6223 273.844 33.4879 273.93 33.439L273.954 33.4268C273.954 33.4268 283.613 33.9523 286.82 34.2212C289.819 34.4779 298.755 35.529 298.755 35.529L298.522 35.7368Z" fill="#50844E"/>
<path d="M302.427 24.2111L281.519 23.3678L268.997 23.1111C268.911 23.0745 268.911 22.94 268.997 22.8911L269.021 22.8789L281.886 23.0745L302.268 23.9789L302.427 24.2111Z" fill="#50844E"/>
<path d="M304.63 31.8374L299.244 31.4585C299.244 31.4585 299.44 31.0796 297.628 30.9696C295.817 30.8596 296.074 31.324 296.074 31.324L291.006 31.0429C291.006 31.0429 291.214 30.6152 288.741 30.5418C286.342 30.4685 286.709 30.8474 286.709 30.8474L281.421 30.4563C281.421 30.4563 281.727 29.8696 279.622 29.7841C277.81 29.7107 277.847 30.3096 277.847 30.3096L275.362 30.2729L274.921 30.2485C274.86 30.2485 274.823 30.2852 274.799 30.3341L274.787 30.3218C274.787 30.3218 274.885 31.1896 274.677 31.324C274.566 31.3974 273.942 31.324 273.942 31.324C273.942 31.324 274.126 30.664 272.155 30.5785C270.441 30.5052 270.551 31.2018 270.551 31.2018L268.079 31.0307C268.079 31.0307 268.348 30.3829 266.487 30.3952C264.945 30.4074 265.031 30.9207 265.031 30.9207L262.521 30.8718C262.521 30.8718 262.876 30.334 260.991 30.2729C259.118 30.2118 259.192 30.6518 259.192 30.6518L256.291 30.4441L256.584 30.6763L259.179 30.9085C259.179 30.9085 258.947 31.6174 261.04 31.6296C262.607 31.6418 262.521 31.104 262.521 31.104L264.994 31.1774C264.994 31.1774 264.7 31.9718 266.536 31.9841C268.323 31.9963 268.079 31.2385 268.079 31.2385L270.564 31.4463C270.564 31.4463 270.258 31.9841 272.363 32.1307C273.979 32.2407 273.954 31.5685 273.954 31.5685C273.954 31.5685 274.603 31.7274 274.823 31.4952C275.032 31.2629 274.995 30.5907 274.995 30.4929L277.871 30.5663C277.871 30.5663 277.627 31.2263 279.708 31.2874C281.544 31.3485 281.519 30.7252 281.519 30.7252L286.734 31.1163C286.734 31.1163 286.514 31.6663 288.754 31.8129C290.81 31.9474 291.031 31.2507 291.031 31.2507L296.086 31.544C296.086 31.544 295.829 31.9596 297.702 32.0207C299.367 32.0696 299.244 31.6907 299.244 31.6907L304.471 32.1063L304.63 31.8374Z" fill="#50844E"/>
<path d="M271.934 28.7697C271.579 28.4152 269.682 28.4397 269.682 28.4397L261.885 28.1708C261.885 28.1708 262.227 27.5963 260.452 27.4741C258.628 27.3397 258.8 27.9997 258.8 27.9997L254.222 27.8897L254.332 28.1463L258.8 28.2686C258.8 28.2686 258.604 28.5497 260.122 28.6719C261.97 28.8308 261.848 28.3908 261.848 28.3908C261.848 28.3908 270.563 28.733 270.625 28.7452C271.763 28.7697 271.898 29.063 271.898 29.2219L271.873 29.2341C271.873 29.2341 272.057 29.7597 270.539 29.6741C270.49 29.6741 268.997 29.5886 268.874 29.5886C268.666 29.5886 268.397 29.5641 268.397 29.5641C268.397 29.5641 268.642 28.9775 266.683 28.8919C264.969 28.8186 265.006 29.4419 265.006 29.4419L261.75 29.3319C261.75 29.3319 261.946 28.9286 260.085 28.9408C258.543 28.953 258.702 29.2341 258.702 29.2341L254.773 28.9652L254.981 29.2341L258.665 29.503C258.665 29.503 258.384 30.1141 260.22 30.1263C262.007 30.1386 261.762 29.5641 261.762 29.5641L265.043 29.6863C265.043 29.6863 264.724 30.1386 266.83 30.2852C268.446 30.3952 268.434 29.8086 268.434 29.8086L269.56 29.9063C269.56 29.9063 271.433 30.0652 271.849 29.7597C271.996 29.6497 272.057 29.5152 272.081 29.4052C272.081 29.3808 272.204 29.0386 271.934 28.7697Z" fill="#50844E"/>
<path d="M300.346 22.6835L299.893 22.3901L294.727 21.999C294.727 21.999 294.948 21.6568 293.381 21.5713C291.496 21.4613 291.569 22.0113 291.569 22.0113L286.501 21.779C286.501 21.779 286.599 21.2779 284.849 21.1801C282.902 21.0824 283.013 21.5713 283.013 21.5713C283.013 21.5713 279.499 21.3757 279.426 21.3757C278.324 21.339 278.141 21.0701 278.128 20.9113C278.153 20.8135 278.165 20.7035 278.165 20.6913C278.41 20.2146 278.74 20.3124 278.998 20.2635L280.356 20.3001L282.976 20.4835C282.976 20.4835 283.184 20.9968 284.836 21.0824C286.795 21.1924 286.428 20.6668 286.428 20.6668L291.606 20.8135C291.606 20.8135 291.3 21.3024 293.013 21.4001C294.886 21.5101 294.739 20.9724 294.739 20.9724L297.408 21.1313L296.833 20.789L294.703 20.6301C294.703 20.6301 294.923 20.2879 293.356 20.2024C291.471 20.0924 291.545 20.6546 291.545 20.6546L286.477 20.4224C286.477 20.4224 286.575 19.9213 284.824 19.8235C282.878 19.7257 282.988 20.2146 282.988 20.2146C282.988 20.2146 279.475 20.019 279.401 20.019C279.377 20.019 278.973 20.019 278.667 20.0679C278.324 20.129 278.165 20.3001 278.153 20.3246C278.153 20.3246 278.006 20.4101 277.957 20.7401V20.7524C277.945 20.8013 277.859 21.0946 278.104 21.339C278.471 21.6935 280.369 21.6935 280.369 21.6935L282.964 21.8279C282.964 21.8279 283.172 22.3413 284.824 22.4268C286.783 22.5368 286.416 22.0235 286.416 22.0235L291.593 22.1701C291.593 22.1701 291.287 22.659 293.001 22.7568C294.874 22.8668 294.727 22.329 294.727 22.329L300.346 22.6835Z" fill="#50844E"/>
<path d="M271.567 19.3955C271.2 19.1021 269.303 19.151 269.303 19.151L259.926 19.1632L259.694 19.3588C259.694 19.3588 268.409 19.4077 270.245 19.3955C271.494 19.3832 271.543 19.701 271.531 19.811H271.506C271.506 19.811 271.702 20.3366 270.172 20.2877C270.123 20.2877 268.63 20.251 268.507 20.251C268.287 20.251 268.03 20.2388 268.03 20.2388C268.03 20.2388 268.262 19.6521 266.304 19.6032C264.59 19.5666 264.639 20.2021 264.639 20.2021L257.747 20.1655L257.478 20.3855L264.676 20.4343C264.676 20.4343 264.37 20.8988 266.475 20.9843C268.091 21.0454 268.067 20.4588 268.067 20.4588L269.205 20.5199C269.205 20.5199 271.09 20.6299 271.494 20.3121C271.665 20.1777 271.714 20.0188 271.727 19.8966C271.739 19.9088 271.849 19.6155 271.567 19.3955Z" fill="#50844E"/>
<path d="M268.789 26.7774C268.789 26.7774 268.899 26.4352 268.654 26.1541C268.458 25.9341 267.858 25.8852 267.332 25.8607C266.818 25.8363 266.389 25.8485 266.389 25.8485L265.998 25.8607C265.998 25.8607 266.01 25.4085 264.382 25.3963C262.264 25.3718 262.607 25.7141 262.607 25.7141L253.549 25.5674L253.61 25.8607L262.546 25.9463C262.546 25.9463 262.423 26.4474 264.137 26.4963C266.108 26.5574 265.936 26.0807 265.936 26.0807C265.936 26.0807 267.246 26.044 267.32 26.0563C267.895 26.0685 268.262 26.1174 268.434 26.264C268.764 26.5329 268.544 26.9363 268.544 26.9363L268.789 26.7774Z" fill="#50844E"/>
<path d="M268.826 26.4968L268.813 26.509C268.801 26.399 268.764 26.2646 268.666 26.1423C268.471 25.9223 267.871 25.8734 267.344 25.849C266.83 25.8246 266.402 25.8368 266.402 25.8368L266.01 25.849C266.01 25.849 266.022 25.3968 264.394 25.3846C262.277 25.3601 262.619 25.7023 262.619 25.7023L253.561 25.5557L253.622 25.849L262.558 25.9346C262.558 25.9346 262.436 26.4357 264.15 26.4846C266.12 26.5457 265.949 26.069 265.949 26.069C265.949 26.069 267.259 26.0323 267.332 26.0446C267.908 26.0568 268.275 26.1057 268.446 26.2523C268.777 26.5212 268.569 26.9123 268.556 26.9246C268.434 27.0834 268.116 27.2546 267.222 27.1934C267.149 27.1934 265.839 27.1323 265.839 27.1323C265.839 27.1323 266.071 26.7045 264.101 26.6068C262.387 26.5334 262.448 27.0101 262.448 27.0101L258.445 26.8634C258.445 26.8634 258.641 26.4601 256.78 26.4723C255.238 26.4846 255.397 26.7657 255.397 26.7657L253.659 26.6434L253.769 26.9123L255.348 27.0223C255.348 27.0223 255.067 27.6334 256.903 27.6457C258.69 27.6579 258.445 27.0834 258.445 27.0834L262.46 27.2546C262.46 27.2546 262.117 27.6212 264.223 27.7557C265.839 27.8657 265.851 27.3646 265.851 27.3646L266.243 27.4012C266.243 27.4012 268.116 27.5601 268.532 27.2546C268.862 27.0468 268.826 26.4968 268.826 26.4968Z" fill="#50844E"/>
<path d="M269.829 21.3629C269.633 21.1429 269.033 21.094 268.507 21.0695C267.993 21.0451 267.565 21.0573 267.565 21.0573L261.248 21.1429C261.248 21.1429 261.309 20.6907 259.632 20.6784C258.396 20.6662 258.384 21.204 258.384 21.204L256.046 21.2284L255.923 21.4606L258.408 21.424C258.408 21.424 258.433 21.7295 259.437 21.7784C261.395 21.8762 261.199 21.3751 261.199 21.3751C261.199 21.3751 268.434 21.2651 268.495 21.2651C269.07 21.2773 269.437 21.3262 269.609 21.4729C269.78 21.6073 269.805 21.7784 269.792 21.9129L269.731 21.9251C269.731 21.9251 269.927 22.4507 268.409 22.4018C268.336 22.4018 267.014 22.3773 267.014 22.3773C267.014 22.3773 267.246 21.7907 265.288 21.754C263.574 21.7295 263.623 22.3529 263.623 22.3529L261.028 22.3406C261.028 22.3406 261.224 21.864 259.363 21.9251C257.821 21.974 257.968 22.3162 257.968 22.3162L254.809 22.3651L254.773 22.6095L257.943 22.5729C257.943 22.5729 257.698 23.1106 259.547 23.074C261.334 23.0373 261.052 22.5484 261.052 22.5484L263.66 22.5973C263.66 22.5973 263.354 23.0618 265.459 23.1473C267.075 23.2084 267.05 22.6218 267.05 22.6218L267.442 22.6462C267.442 22.6462 269.327 22.7562 269.731 22.4384C269.939 22.2795 269.976 22.084 269.976 21.974C269.976 21.9373 270.062 21.6318 269.829 21.3629Z" fill="#50844E"/>
<path d="M268.532 24.2721L268.495 24.2843C268.495 24.1621 268.458 24.0032 268.336 23.8566C268.14 23.6366 267.54 23.5877 267.014 23.5632C266.5 23.5388 266.071 23.551 266.071 23.551L261.003 23.6243C261.003 23.6243 261.065 23.1966 259.387 23.1599C257.515 23.1232 257.613 23.4777 257.613 23.4777L254.038 23.5266L253.916 23.7832H257.576C257.576 23.7832 257.429 24.2232 259.143 24.2721C261.113 24.3332 260.942 23.8566 260.942 23.8566C260.942 23.8566 266.928 23.7588 266.989 23.7588C267.564 23.771 267.932 23.8199 268.103 23.9666C268.299 24.1254 268.299 24.3088 268.274 24.4554C268.226 24.6021 267.968 24.8221 266.952 24.761C266.879 24.761 266.022 24.651 266.022 24.651C266.022 24.651 266.304 24.1621 264.333 24.0766C262.619 24.0032 262.631 24.5288 262.631 24.5288L257.564 24.5043C257.564 24.5043 257.723 24.1254 255.862 24.1377C254.32 24.1499 254.479 24.431 254.479 24.431L253.683 24.4799L253.573 24.7121L254.442 24.6877C254.442 24.6877 254.161 25.2988 255.997 25.311C257.784 25.3232 257.539 24.7488 257.539 24.7488L262.656 24.7732C262.656 24.7732 262.338 25.2377 264.455 25.2743C266.132 25.2988 266.059 24.9199 266.059 24.9199C266.059 24.9199 267.785 25.1888 268.262 24.8343C268.605 24.6021 268.532 24.2721 268.532 24.2721Z" fill="#50844E"/>
<path d="M304.814 26.9003L304.777 26.7047L295.327 25.9958C295.327 25.9958 295.548 25.6536 293.981 25.568C292.096 25.458 292.169 26.0203 292.169 26.0203L286.624 25.7391C286.624 25.7391 286.722 25.2258 284.971 25.1403C283.123 25.0547 283.147 25.4703 283.16 25.5314C283.147 25.5314 283.147 25.5314 283.147 25.5314C283.025 25.5191 281.495 25.458 281.446 25.458C279.891 25.4091 280.136 24.8591 280.136 24.8591C280.185 24.6391 280.442 24.2725 281.556 24.3825C281.948 24.4191 283.172 24.4436 283.172 24.4436C283.172 24.4436 282.915 24.9569 284.922 25.0791C286.673 25.1891 286.685 24.578 286.685 24.578L292.218 24.9936C292.218 24.9936 292.377 25.4214 293.834 25.5191C295.131 25.6047 295.425 25.1769 295.425 25.1769L296.551 25.1891C296.551 25.1891 296.417 25.8247 298.302 25.9225C299.869 25.9958 299.967 25.5436 299.967 25.5436L303.982 25.6658L303.92 25.4214L299.979 25.2869C299.979 25.2869 300.077 24.578 298.204 24.4925C296.478 24.4069 296.576 24.9936 296.576 24.9936L295.45 24.9203C295.45 24.9203 295.474 24.3947 293.969 24.2358C292.291 24.0647 292.108 24.7736 292.108 24.7736L286.661 24.2969C286.661 24.2969 287.028 23.7836 285.082 23.6736C283.429 23.588 283.221 24.2114 283.221 24.2114L281.409 24.1625C281.409 24.1625 280.32 24.1869 280.124 24.4558C280.038 24.578 279.989 24.7125 279.965 24.8103C279.965 24.8103 279.83 25.1403 280.112 25.4214C280.479 25.7758 282.413 25.788 282.413 25.788L283.111 25.8003C283.111 25.8003 283.319 26.3136 284.971 26.3991C286.93 26.5091 286.563 25.9958 286.563 25.9958L292.218 26.1914C292.218 26.1914 291.912 26.6803 293.626 26.778C295.499 26.888 295.352 26.3503 295.352 26.3503L304.814 26.9003Z" fill="#50844E"/>
<path d="M296.674 28.6844C295.303 28.5866 291.19 28.3544 291.19 28.3544C291.19 28.3544 291.165 27.7678 289.146 27.7066C286.538 27.6211 286.722 28.2933 286.722 28.2933C286.722 28.2933 284.653 28.1589 284.592 28.1466C283.001 28.0611 283.135 27.56 283.147 27.5233C283.196 27.34 283.417 27.0344 284.543 27.12C284.616 27.12 291.912 27.5844 291.912 27.5844C291.912 27.5844 291.606 28.1344 293.613 28.2566C295.364 28.3666 295.376 27.7555 295.376 27.7555L300.236 28.0611C300.236 28.0611 300.101 28.6966 301.986 28.7944C303.553 28.8677 303.651 28.4155 303.651 28.4155L305.438 28.5378V28.2811L303.663 28.1711C303.663 28.1711 303.761 27.4622 301.888 27.3766C300.162 27.2911 300.26 27.8778 300.26 27.8778L295.352 27.4744C295.352 27.4744 295.719 26.9611 293.773 26.8511C292.12 26.7655 291.9 27.3033 291.9 27.3033L285.559 26.8755C285.559 26.8755 283.649 26.6678 283.209 27.0344C283.037 27.1811 282.964 27.34 282.927 27.4622C282.927 27.4744 282.915 27.4989 282.915 27.5478C282.903 27.5966 282.903 27.6455 282.903 27.6455C282.903 27.7678 282.939 27.9144 283.074 28.0489C283.49 28.4522 286.832 28.5255 286.832 28.5255C286.832 28.5255 286.722 28.8922 289.219 29.0144C291.178 29.1122 291.104 28.6233 291.104 28.6233C291.104 28.6233 295.303 28.8311 296.698 28.9166C298.902 29.0633 305.475 29.6622 305.475 29.6622L305.512 29.4666C305.524 29.4544 298.889 28.8433 296.674 28.6844Z" fill="#50844E"/>
<path d="M293.711 32.4732C293.773 32.4854 295.756 32.7176 295.756 32.7176C295.756 32.7176 295.768 33.0232 297.016 33.1943C298.387 33.3776 298.338 32.9743 298.338 32.9743L303.014 33.6098L303.161 33.3532L298.436 32.7665C298.436 32.7665 298.657 32.2409 297.151 32.0576C295.743 31.8865 295.756 32.4854 295.756 32.4854C295.756 32.4854 293.699 32.2165 293.271 32.1676C292.536 32.082 292.365 32.4365 292.353 32.4487C292.353 32.4487 292.144 32.742 292.45 33.072C292.622 33.2554 293.111 33.3165 293.699 33.402C294.434 33.512 295.241 33.622 295.241 33.622C295.241 33.622 295.058 34.1965 296.343 34.3309C297.726 34.4776 297.677 33.9276 297.677 33.9276L301.631 34.4287L301.876 34.2454L297.653 33.7076C297.653 33.7076 297.812 33.3287 296.551 33.2187C295.401 33.1209 295.303 33.4143 295.303 33.4143C295.303 33.4143 293.528 33.1454 293.479 33.1454C292.267 33.0109 292.536 32.5587 292.536 32.5587C292.561 32.5098 292.769 32.3509 293.711 32.4732Z" fill="#50844E"/>
<path d="M280.895 16.6206C266.377 15.3128 253.989 19.0528 253.218 24.9806C252.447 30.9083 263.586 36.7872 278.104 38.095C292.622 39.4028 305.01 35.6628 305.781 29.735C306.552 23.795 295.413 17.9283 280.895 16.6206ZM278.324 37.1906C264.259 35.9195 253.438 30.5295 254.136 25.1639C254.834 19.7861 266.793 16.4617 280.858 17.7328C294.923 19.0039 305.744 24.3939 305.046 29.7595C304.349 35.125 292.377 38.4495 278.324 37.1906Z" fill="#50844E"/>
</svg>
