<svg width="579" height="341" viewBox="0 0 579 341" fill="none" xmlns="http://www.w3.org/2000/svg">
<path d="M495.476 165.042C496.665 150.774 493.035 138.825 487.369 138.355C481.703 137.884 476.146 149.069 474.957 163.338C473.768 177.606 477.398 189.554 483.064 190.025C488.731 190.496 494.288 179.31 495.476 165.042Z" fill="#9CC09B"/>
<path d="M494.561 149.538L494.194 153.327C494.194 153.327 494.794 153.303 494.659 155.063C494.512 157.104 493.925 156.786 493.925 156.786L493.57 160.526C493.57 160.526 494.353 160.221 494.194 162.555C494.035 164.951 493.264 164.559 493.264 164.559L492.946 168.141C492.946 168.141 493.57 167.969 493.398 169.717C493.227 171.465 492.713 171.208 492.713 171.208L491.856 180.876L491.464 181.524L492.468 171.196C492.468 171.196 491.991 171.367 492.101 169.754C492.223 167.933 492.713 168.141 492.713 168.141L493.007 164.523C493.007 164.523 492.48 164.621 492.591 162.616C492.725 160.196 493.349 160.551 493.349 160.551L493.643 156.872C493.643 156.872 493.019 156.872 493.141 155.099C493.276 153.083 493.925 153.339 493.925 153.339L494.402 148.536L494.561 149.538Z" fill="#50844E"/>
<path d="M488.613 138.525L488.282 144.087C488.282 144.087 488.796 143.793 488.698 145.871C488.6 147.863 488.05 147.643 488.05 147.643L487.768 152.899C487.768 152.899 488.417 152.703 488.282 155.062C488.16 157.274 487.499 157.201 487.499 157.201L486.985 164.95C486.948 165.109 486.703 165.084 486.678 164.925L487.254 157.189C487.254 157.189 486.825 157.115 486.887 155.025C486.96 152.715 487.535 152.899 487.535 152.899L487.792 147.594C487.792 147.594 487.34 147.57 487.413 145.81C487.486 143.757 488.074 144.099 488.074 144.099L488.356 138.501L488.613 138.525Z" fill="#50844E"/>
<path d="M493.546 145.261C493.546 145.261 492.493 154.366 492.223 157.422C491.966 160.514 491.465 169.815 491.465 169.815C491.428 169.901 491.293 169.901 491.244 169.815L491.232 169.791C491.232 169.791 491.758 160.147 492.028 156.945C492.285 153.951 493.337 145.028 493.337 145.028L493.546 145.261Z" fill="#50844E"/>
<path d="M482.002 141.35L481.158 162.225L480.901 174.729C480.864 174.814 480.729 174.814 480.68 174.729L480.668 174.704L480.864 161.858L481.77 141.509L482.002 141.35Z" fill="#50844E"/>
<path d="M489.947 171.367C490.057 169.753 489.384 169.778 489.384 169.778C489.384 169.778 489.543 169.13 489.31 168.91C489.078 168.702 488.404 168.739 488.306 168.739L488.38 165.867C488.38 165.867 489.041 166.111 489.102 164.033C489.163 162.2 488.539 162.224 488.539 162.224L488.931 157.018C488.931 157.018 489.481 157.238 489.628 155.001C489.763 152.948 489.065 152.728 489.065 152.728L489.359 147.68C489.359 147.68 489.775 147.937 489.836 146.067C489.885 144.404 489.506 144.527 489.506 144.527L489.922 139.308L489.641 139.137L489.261 144.515C489.261 144.515 488.882 144.319 488.771 146.128C488.661 147.937 489.126 147.68 489.126 147.68L488.845 152.74C488.845 152.74 488.416 152.532 488.343 155.001C488.27 157.397 488.649 157.03 488.649 157.03L488.257 162.31C488.257 162.31 487.67 162.005 487.584 164.107C487.511 165.916 488.11 165.879 488.11 165.879L488.074 168.36L488.049 168.8C488.049 168.861 488.086 168.898 488.135 168.922L488.123 168.934C488.123 168.934 488.992 168.837 489.126 169.044C489.2 169.154 489.126 169.778 489.126 169.778C489.126 169.778 488.465 169.594 488.38 171.562C488.306 173.273 489.004 173.163 489.004 173.163L488.833 175.62C488.833 175.62 488.184 175.351 488.196 177.209C488.208 178.749 488.723 178.663 488.723 178.663L488.674 181.169C488.674 181.169 488.135 180.814 488.074 182.697C488.013 184.567 488.453 184.493 488.453 184.493L488.245 187.39L488.478 187.097L488.71 184.506C488.71 184.506 489.42 184.738 489.432 182.648C489.445 181.083 488.906 181.169 488.906 181.169L488.98 178.7C488.98 178.7 489.775 178.993 489.787 177.16C489.8 175.376 489.041 175.62 489.041 175.62L489.249 173.139C489.249 173.163 489.8 173.469 489.947 171.367Z" fill="#50844E"/>
<path d="M488.062 176.904C488.172 175.291 487.584 175.303 487.584 175.303L487.682 174.178C487.682 174.178 487.841 172.308 487.535 171.893C487.425 171.746 487.291 171.685 487.18 171.661C487.18 171.661 486.85 171.538 486.581 171.807C486.226 172.162 486.25 174.056 486.25 174.056L485.981 181.842C485.981 181.842 485.405 181.499 485.283 183.272C485.148 185.093 485.809 184.922 485.809 184.922L485.699 189.493L485.956 189.383L486.079 184.922C486.079 184.922 486.36 185.117 486.483 183.602C486.642 181.756 486.201 181.878 486.201 181.878C486.201 181.878 486.544 173.176 486.556 173.115C486.581 171.978 486.874 171.844 487.033 171.844L487.046 171.868C487.046 171.868 487.572 171.685 487.486 173.201C487.486 173.249 487.401 174.741 487.401 174.863C487.401 175.071 487.376 175.339 487.376 175.339C487.376 175.339 486.789 175.095 486.703 177.051C486.63 178.762 487.254 178.725 487.254 178.725L487.168 181.976C487.168 181.976 486.764 181.781 486.776 183.638C486.789 185.178 487.07 185.019 487.07 185.019L486.801 188.943L487.07 188.735L487.339 185.056C487.339 185.056 487.952 185.337 487.964 183.504C487.976 181.719 487.401 181.964 487.401 181.964L487.523 178.688C487.462 178.688 487.915 179.006 488.062 176.904Z" fill="#50844E"/>
<path d="M480.558 150.735C480.668 148.865 480.129 149.012 480.129 149.012L480.472 143.414L480.178 143.866L479.787 149.036C479.787 149.036 479.444 148.816 479.358 150.381C479.248 152.263 479.811 152.19 479.811 152.19L479.578 157.25C479.578 157.25 479.077 157.152 478.979 158.9C478.881 160.843 479.37 160.733 479.37 160.733C479.37 160.733 479.174 164.241 479.174 164.314C479.138 165.414 478.868 165.597 478.709 165.61C478.611 165.585 478.501 165.573 478.489 165.573C478.012 165.329 478.109 164.999 478.061 164.742L478.097 163.385L478.281 160.77C478.281 160.77 478.795 160.562 478.881 158.912C478.991 156.956 478.477 157.323 478.477 157.323L478.624 152.153C478.624 152.153 479.113 152.459 479.211 150.747C479.321 148.877 478.783 149.024 478.783 149.024L478.942 146.36L478.599 146.934L478.44 149.061C478.44 149.061 478.097 148.841 478.012 150.405C477.901 152.287 478.464 152.214 478.464 152.214L478.232 157.274C478.232 157.274 477.73 157.176 477.632 158.924C477.534 160.867 478.024 160.757 478.024 160.757C478.024 160.757 477.828 164.265 477.828 164.339C477.828 164.363 477.828 164.766 477.877 165.072C477.938 165.414 478.109 165.573 478.134 165.585C478.134 165.585 478.22 165.732 478.55 165.781H478.562C478.611 165.793 478.905 165.879 479.15 165.634C479.505 165.267 479.505 163.373 479.505 163.373L479.64 160.782C479.64 160.782 480.154 160.574 480.239 158.924C480.35 156.969 479.835 157.335 479.835 157.335L479.982 152.165C479.97 152.153 480.447 152.459 480.558 150.735Z" fill="#50844E"/>
<path d="M478.257 175.657L478.318 174.52C478.318 174.52 478.428 172.638 478.11 172.235C477.975 172.064 477.816 172.015 477.693 172.003C477.681 172.003 477.4 171.893 477.167 172.174C476.873 172.54 476.922 174.435 476.922 174.435L476.935 183.797L477.13 184.029C477.13 184.029 477.179 175.327 477.167 173.494C477.155 172.247 477.473 172.198 477.583 172.21V172.235C477.583 172.235 478.11 172.039 478.061 173.567C478.061 173.616 478.024 175.107 478.024 175.229C478.024 175.449 478.012 175.706 478.012 175.706C478.012 175.706 477.424 175.474 477.375 177.429C477.338 179.14 477.975 179.092 477.975 179.092L477.938 185.973L478.159 186.242L478.208 179.055C478.208 179.055 478.673 179.36 478.758 177.258C478.844 175.62 478.257 175.657 478.257 175.657Z" fill="#50844E"/>
<path d="M484.56 174.936C484.56 174.936 484.218 174.826 483.936 175.07C483.716 175.266 483.667 175.865 483.642 176.39C483.618 176.904 483.63 177.331 483.63 177.331L483.642 177.722C483.642 177.722 483.189 177.71 483.177 179.336C483.153 181.45 483.495 181.108 483.495 181.108L483.348 190.152L483.642 190.091L483.728 181.169C483.728 181.169 484.23 181.291 484.279 179.58C484.34 177.612 483.863 177.784 483.863 177.784C483.863 177.784 483.826 176.476 483.838 176.402C483.85 175.828 483.899 175.461 484.046 175.29C484.315 174.96 484.719 175.18 484.719 175.18L484.56 174.936Z" fill="#50844E"/>
<path d="M485.576 179.482C485.686 177.869 485.185 177.857 485.185 177.857L485.221 177.465C485.221 177.465 485.38 175.595 485.074 175.18C484.842 174.862 484.291 174.899 484.291 174.899L484.303 174.911C484.193 174.923 484.058 174.96 483.936 175.058C483.716 175.253 483.667 175.852 483.642 176.378C483.618 176.903 483.63 177.319 483.63 177.319L483.642 177.71C483.642 177.71 483.189 177.698 483.177 179.323C483.153 181.438 483.495 181.095 483.495 181.095L483.348 190.14L483.642 190.079L483.728 181.157C483.728 181.157 484.23 181.279 484.279 179.568C484.34 177.6 483.863 177.771 483.863 177.771C483.863 177.771 483.826 176.463 483.838 176.39C483.85 175.815 483.899 175.449 484.046 175.278C484.315 174.948 484.707 175.155 484.719 175.168C484.879 175.29 485.05 175.608 484.989 176.5C484.989 176.573 484.928 177.881 484.928 177.881C484.928 177.881 484.499 177.649 484.401 179.617C484.328 181.328 484.805 181.267 484.805 181.267L484.658 185.263C484.658 185.263 484.254 185.068 484.266 186.925C484.279 188.465 484.56 188.307 484.56 188.307L484.438 190.042L484.707 189.932L484.817 188.355C484.817 188.355 485.429 188.637 485.442 186.803C485.454 185.019 484.879 185.263 484.879 185.263L485.05 181.254C485.062 181.242 485.429 181.584 485.576 179.482Z" fill="#50844E"/>
<path d="M480.35 182.673L480.399 180.069C480.399 180.069 480.864 180.375 480.95 178.273C481.011 176.659 480.423 176.684 480.423 176.684L480.448 176.293C480.448 176.293 480.558 174.41 480.24 174.007C480.081 173.799 479.885 173.763 479.775 173.763C479.738 173.75 479.432 173.665 479.163 173.897C478.942 174.093 478.893 174.692 478.869 175.217C478.844 175.731 478.856 176.158 478.856 176.158L478.942 182.465C478.942 182.465 478.489 182.404 478.477 184.078C478.465 185.313 479.003 185.325 479.003 185.325L479.028 187.659L479.26 187.782L479.224 185.301C479.224 185.301 479.53 185.276 479.579 184.274C479.677 182.318 479.175 182.514 479.175 182.514C479.175 182.514 479.065 175.29 479.065 175.229C479.077 174.655 479.126 174.288 479.273 174.117C479.407 173.946 479.579 173.922 479.713 173.934L479.726 173.995C479.726 173.995 480.252 173.799 480.203 175.315C480.203 175.388 480.179 176.708 480.179 176.708C480.179 176.708 479.591 176.476 479.554 178.432C479.53 180.143 480.154 180.094 480.154 180.094L480.142 182.685C480.142 182.685 479.664 182.489 479.726 184.347C479.775 185.887 480.117 185.741 480.117 185.741L480.166 188.894L480.411 188.931L480.374 185.765C480.374 185.765 480.913 186.009 480.876 184.164C480.84 182.379 480.35 182.673 480.35 182.673Z" fill="#50844E"/>
<path d="M482.553 186.143L482.578 181.034C482.578 181.034 483.043 181.352 483.08 179.237C483.104 177.563 482.725 177.636 482.725 177.636C482.725 177.636 482.994 175.913 482.639 175.436C482.406 175.119 482.064 175.192 482.064 175.192L482.076 175.229C481.953 175.229 481.794 175.265 481.647 175.387C481.427 175.583 481.378 176.182 481.354 176.707C481.329 177.221 481.341 177.649 481.341 177.649L481.415 182.709C481.415 182.709 480.986 182.647 480.95 184.322C480.913 186.192 481.268 186.094 481.268 186.094L481.317 189.663L481.574 189.785V186.131C481.574 186.131 482.015 186.277 482.064 184.566C482.125 182.599 481.647 182.77 481.647 182.77C481.647 182.77 481.55 176.793 481.55 176.732C481.562 176.157 481.611 175.791 481.758 175.62C481.917 175.424 482.1 175.424 482.247 175.449C482.394 175.497 482.614 175.754 482.553 176.769C482.553 176.842 482.443 177.697 482.443 177.697C482.443 177.697 481.953 177.416 481.868 179.384C481.794 181.095 482.321 181.083 482.321 181.083L482.296 186.143C482.296 186.143 481.917 185.984 481.929 187.842C481.941 189.382 482.223 189.223 482.223 189.223L482.272 190.017L482.504 190.127L482.48 189.26C482.48 189.26 483.092 189.541 483.104 187.707C483.129 185.899 482.553 186.143 482.553 186.143Z" fill="#50844E"/>
<path d="M484.12 148.426L484.695 138.966L484.499 139.002L483.789 148.438C483.789 148.438 483.447 148.218 483.361 149.782C483.251 151.665 483.814 151.591 483.814 151.591L483.532 157.128C483.532 157.128 483.018 157.03 482.933 158.778C482.847 160.624 483.263 160.599 483.324 160.587C483.324 160.599 483.324 160.599 483.324 160.599C483.312 160.721 483.251 162.249 483.251 162.298C483.202 163.85 482.651 163.606 482.651 163.606C482.431 163.557 482.063 163.3 482.174 162.188C482.21 161.797 482.235 160.575 482.235 160.575C482.235 160.575 482.749 160.831 482.871 158.827C482.982 157.079 482.369 157.067 482.369 157.067L482.786 151.542C482.786 151.542 483.214 151.384 483.312 149.929C483.398 148.634 482.969 148.34 482.969 148.34L482.982 147.216C482.982 147.216 483.618 147.35 483.716 145.468C483.789 143.904 483.337 143.806 483.337 143.806L483.459 139.797L483.214 139.858L483.079 143.794C483.079 143.794 482.369 143.696 482.284 145.566C482.198 147.289 482.786 147.191 482.786 147.191L482.712 148.316C482.712 148.316 482.186 148.291 482.027 149.795C481.855 151.469 482.565 151.652 482.565 151.652L482.088 157.091C482.088 157.091 481.574 156.725 481.464 158.668C481.378 160.318 482.002 160.526 482.002 160.526L481.953 162.335C481.953 162.335 481.978 163.422 482.247 163.618C482.369 163.704 482.504 163.752 482.602 163.777C482.602 163.777 482.933 163.911 483.214 163.63C483.569 163.264 483.581 161.332 483.581 161.332L483.594 160.636C483.594 160.636 484.108 160.428 484.193 158.778C484.304 156.822 483.777 157.189 483.777 157.189L483.973 151.542C483.973 151.542 484.463 151.848 484.561 150.137C484.659 148.279 484.12 148.426 484.12 148.426Z" fill="#50844E"/>
<path d="M486.397 152.642C486.397 152.642 486.605 148.45 486.69 147.057C486.837 144.857 487.437 138.294 487.437 138.294L487.241 138.257C487.241 138.257 486.641 144.881 486.47 147.094C486.372 148.462 486.14 152.569 486.14 152.569C486.14 152.569 485.552 152.594 485.491 154.61C485.405 157.214 486.078 157.03 486.078 157.03C486.078 157.03 485.944 159.096 485.931 159.157C485.846 160.746 485.344 160.611 485.307 160.599C485.123 160.55 484.817 160.33 484.903 159.206C484.903 159.132 485.368 151.848 485.368 151.848C485.368 151.848 485.919 152.154 486.042 150.149C486.152 148.401 485.54 148.389 485.54 148.389L485.846 143.537C485.846 143.537 486.482 143.671 486.58 141.789C486.654 140.225 486.201 140.127 486.201 140.127L486.323 138.342H486.066L485.956 140.115C485.956 140.115 485.246 140.017 485.16 141.887C485.075 143.61 485.662 143.512 485.662 143.512L485.258 148.414C485.258 148.414 484.744 148.047 484.634 149.99C484.548 151.64 485.087 151.86 485.087 151.86L484.658 158.191C484.658 158.191 484.45 160.098 484.817 160.538C484.964 160.709 485.123 160.782 485.234 160.819C485.246 160.819 485.27 160.831 485.319 160.831C485.368 160.844 485.417 160.844 485.417 160.844C485.54 160.844 485.687 160.807 485.821 160.672C486.225 160.257 486.299 156.92 486.299 156.92C486.299 156.92 486.666 157.03 486.788 154.537C486.898 152.569 486.397 152.642 486.397 152.642Z" fill="#50844E"/>
<path d="M491.734 146.091L492.236 142.143L492.052 141.899L491.513 146.115C491.513 146.115 491.134 145.956 491.024 147.215C490.926 148.364 491.22 148.462 491.22 148.462C491.22 148.462 490.95 150.234 490.95 150.283C490.816 151.493 490.363 151.224 490.363 151.224C490.338 151.2 490.179 150.992 490.289 150.051C490.302 149.99 490.534 148.01 490.534 148.01C490.534 148.01 490.84 147.997 491.011 146.751C491.195 145.382 490.791 145.431 490.791 145.431L491.428 140.762L491.171 140.615L490.583 145.333C490.583 145.333 490.057 145.113 489.873 146.616C489.702 148.022 490.302 148.01 490.302 148.01C490.302 148.01 490.032 150.063 489.983 150.491C489.898 151.224 490.253 151.395 490.265 151.407C490.265 151.407 490.559 151.615 490.889 151.31C491.073 151.139 491.134 150.65 491.22 150.063C491.33 149.33 491.44 148.523 491.44 148.523C491.44 148.523 492.015 148.706 492.15 147.423C492.285 146.042 491.734 146.091 491.734 146.091Z" fill="#50844E"/>
<path d="M487.523 138.001C481.586 137.231 475.698 148.353 474.389 162.848C473.079 177.344 476.825 189.713 482.761 190.483C488.698 191.253 494.586 180.131 495.896 165.635C497.206 151.139 493.46 138.771 487.523 138.001ZM494.99 165.415C493.717 179.458 488.319 190.263 482.945 189.566C477.559 188.869 474.229 176.928 475.502 162.885C476.776 148.842 482.174 138.037 487.548 138.734C492.934 139.443 496.263 151.384 494.99 165.415Z" fill="#50844E"/>
</svg>
