<svg width="43" height="43" viewBox="0 0 43 43" fill="none" xmlns="http://www.w3.org/2000/svg">
<g clip-path="url(#clip0)">
<path d="M43 39.5795C43 41.4363 41.4364 43 39.5796 43C38.6023 43 37.7228 42.609 37.0386 41.925L26.0932 30.0022C25.7023 29.6113 25.7023 29.025 26.0932 28.634L28.6342 26.0931C29.0251 25.7021 29.6114 25.7021 30.0023 26.0931L41.925 37.1363C42.6091 37.7227 43 38.7 43 39.5795Z" fill="#B06328"/>
<path d="M26.3811 28.3163L28.3159 26.3815L25.4136 23.4792L23.4788 25.414L26.3811 28.3163Z" fill="#B0C4D8"/>
<path d="M26.875 26.875L27.3636 27.3636L28.3408 26.3864L25.409 23.4546L23.4545 25.4091L24.9204 26.875C25.5068 26.2886 26.2886 26.2886 26.875 26.875Z" fill="#99B4CD"/>
<path d="M14.6591 0C6.54776 0 0 6.54776 0 14.6591C0 22.7703 6.54776 29.3181 14.6591 29.3181C22.7703 29.3181 29.3181 22.7703 29.3181 14.6591C29.3181 6.54776 22.7704 0 14.6591 0ZM14.6591 26.3864C8.20905 26.3864 2.93181 21.1091 2.93181 14.6591C2.93181 8.20914 8.20905 2.93181 14.6591 2.93181C21.1091 2.93181 26.3863 8.20905 26.3863 14.6591C26.3863 21.1091 21.1091 26.3864 14.6591 26.3864Z" fill="#C4D7E5"/>
<path d="M14.659 26.3862C21.1358 26.3862 26.3863 21.1358 26.3863 14.659C26.3863 8.18221 21.1358 2.93175 14.659 2.93175C8.18226 2.93175 2.93179 8.18221 2.93179 14.659C2.93179 21.1358 8.18226 26.3862 14.659 26.3862Z" fill="#70B7E5"/>
<path d="M8.8932 16.0272C9.38182 12.3136 12.3136 9.3818 16.0273 8.89318H16.125C17.7864 8.69775 17.8841 6.35223 16.3204 6.05913C15.3432 5.86369 14.3659 5.86369 13.3886 5.96137C9.57726 6.54775 6.54769 9.57732 6.05907 13.2909C5.86363 14.2682 5.96131 15.3432 6.15682 16.2227C6.45001 17.8841 8.79544 17.6887 8.99088 16.0273C8.8932 16.125 8.8932 16.0272 8.8932 16.0272Z" fill="#92C5EB"/>
<path d="M3.90904 15.6364C3.90904 9.18644 9.18628 3.9092 15.6363 3.9092C18.6659 3.9092 21.3045 5.08195 23.4545 6.84101C21.3045 4.39782 18.1772 2.93195 14.659 2.93195C8.20904 2.93195 2.93179 8.2092 2.93179 14.6592C2.93179 18.1774 4.49542 21.3046 6.84085 23.4546C5.08179 21.3046 3.90904 18.666 3.90904 15.6364Z" fill="#4C9CD6"/>
<path d="M14.659 29.3183C22.7704 29.3183 29.3181 22.7705 29.3181 14.6592C28.8295 14.6592 28.3408 15.0502 28.3408 15.6365C28.1454 18.9592 26.6795 21.9887 24.4318 24.2365C22.184 26.5819 19.0568 28.0478 15.6364 28.341C15.05 28.341 14.659 28.8297 14.659 29.3183Z" fill="#B0C9DB"/>
<path d="M14.6591 0C6.54776 0 0 6.54776 0 14.6591C0.488621 14.6591 0.977242 14.2681 0.977242 13.6818C1.17276 10.4568 2.54095 7.525 4.59319 5.375C6.93862 2.93181 10.1636 1.27043 13.6818 0.977242C14.2682 0.977242 14.6591 0.488621 14.6591 0Z" fill="#E2E7F0"/>
<path d="M41.8273 37.0387L41.2409 36.5501C41.7295 37.1364 42.0227 37.9182 42.0227 38.7001C42.0227 39.9705 40.4591 40.4591 39.5795 39.5796L29.3182 29.3182C28.7318 28.7319 27.8523 28.7319 27.266 29.3182L26.2887 30.2955L36.941 41.7295C37.5274 42.3159 38.3092 42.8045 39.091 42.9023C40.166 43.0001 41.241 42.6091 41.925 41.9251C42.6091 41.241 43 40.166 42.9023 39.091C42.9023 38.3091 42.4136 37.6251 41.8273 37.0387Z" fill="#A35425"/>
<path d="M31.7614 30.2954C31.6636 30.2954 31.4682 30.2954 31.3704 30.1976L28.9272 27.7544C28.7318 27.559 28.7318 27.2658 28.9272 27.0704C29.1226 26.875 29.4158 26.875 29.6113 27.0704L32.0545 29.5136C32.2499 29.709 32.2499 30.0022 32.0545 30.1976C32.0545 30.2954 31.859 30.2954 31.7614 30.2954Z" fill="#C97629"/>
</g>
<defs>
<clipPath id="clip0">
<rect width="43" height="43" fill="white"/>
</clipPath>
</defs>
</svg>
