<svg width="600" height="600" viewBox="0 0 600 600" fill="none" xmlns="http://www.w3.org/2000/svg">
<path d="M362.891 187.36C366.781 180.195 382.94 180.698 398.969 189.481C415.009 198.271 429.636 227.012 410.94 224.178C400.726 222.634 396.007 209.563 385.783 205.605C364.008 197.185 359.001 194.525 362.891 187.36Z" fill="#E69264"/>
<path opacity="0.3608" d="M368.304 185.524C369.127 186.232 370.051 187.705 370.931 188.799C371.412 189.409 372.237 190.087 372.859 189.662C373.341 189.337 373.247 188.56 372.841 188.117C372.453 187.67 371.858 187.437 371.345 187.145C370.821 186.847 370.298 186.411 370.248 185.829C370.192 185.335 370.506 184.864 370.936 184.599C371.359 184.347 371.887 184.264 372.394 184.245C373.591 184.195 375.062 184.647 375.378 185.802C375.538 186.388 375.343 187.008 375.187 187.589C375.03 188.17 374.913 188.821 375.221 189.373C375.517 189.919 376.417 190.151 376.745 189.657C376.633 188.777 376.367 187.913 376.292 187.024C376.217 186.135 376.352 185.189 376.968 184.56C377.584 183.932 378.749 183.801 379.373 184.467C379.786 184.898 379.857 185.554 379.744 186.115C379.632 186.677 379.363 187.206 379.143 187.734C378.218 190.079 378.88 194.954 379.727 194.633C380.35 194.392 380.117 191.553 380.18 189.766C380.243 187.978 380.785 186.033 382.33 185.133C382.866 184.825 383.503 184.669 384.122 184.81C384.741 184.95 385.297 185.436 385.413 186.043C385.574 186.921 384.861 187.66 384.32 188.349C383.78 189.038 383.451 190.175 384.192 190.726C385.072 190.056 385.42 188.915 385.934 187.95C386.454 186.973 387.441 186.045 388.56 186.286C389.522 186.494 390.119 187.526 390.147 188.493C390.163 189.454 389.745 190.339 389.329 191.194C388.656 192.585 387.982 193.977 387.316 195.357C386.996 196.024 386.752 196.967 387.397 197.384C387.825 197.656 388.403 197.465 388.717 197.101C389.031 196.736 389.145 196.252 389.271 195.776C389.716 194.018 390.269 192.293 390.941 190.61C391.312 189.697 391.834 188.691 392.814 188.495C393.905 188.274 394.952 189.223 395.452 190.228C396.34 192.002 396.179 194.114 395.488 195.909C394.796 197.703 393.608 199.262 392.433 200.798C392.796 201.045 393.311 200.986 393.672 200.757C394.032 200.528 394.286 200.158 394.502 199.797C395.484 198.238 396.289 196.572 396.927 194.838C397.168 194.169 397.399 193.464 397.875 192.936C398.35 192.408 399.167 192.084 399.843 192.397C400.561 192.719 400.849 193.627 400.695 194.364C400.554 195.107 400.073 195.724 399.628 196.332C399.173 196.934 398.708 197.576 398.609 198.329C398.557 198.682 398.699 199.166 399.07 199.188C399.251 199.205 399.416 199.089 399.546 198.952C400.724 197.786 400.657 195.522 402.217 194.891C402.953 194.596 403.907 194.845 404.424 195.476C404.941 196.108 404.969 197.076 404.499 197.699C404.03 198.323 403.2 198.562 402.598 199.061C401.984 199.552 401.688 200.633 402.387 201.067C402.875 201.374 403.523 201.118 403.883 200.705C404.242 200.291 404.432 199.76 404.744 199.319C405.197 198.669 405.969 198.181 406.792 198.274C407.603 198.361 408.36 199.152 408.596 199.692C408.832 200.232 409.021 200.851 408.831 201.274C408.637 201.679 408.214 201.932 407.828 202.177C406.13 203.277 404.793 204.869 404.02 206.722C403.864 207.089 403.73 207.5 403.822 207.907C403.913 208.315 404.318 208.68 404.719 208.598C405.008 208.541 405.27 208.345 405.353 208.072C405.834 206.627 406.623 205.551 407.464 204.413C407.947 203.766 409.077 202.465 409.914 202.429C411.641 202.374 412.64 204.736 412.582 205.207C412.523 205.678 412.172 206.051 411.842 206.39C411.374 206.877 410.907 207.364 410.439 207.851C410.232 208.064 410.018 208.288 409.921 208.583C409.831 208.867 409.882 209.235 410.146 209.408C410.521 209.663 411.018 209.394 411.34 209.096C411.946 208.538 412.425 207.843 412.739 207.08C412.823 206.885 412.916 206.65 413.134 206.58C413.344 206.522 413.568 206.656 413.736 206.803C414.599 207.55 414.944 208.815 414.578 209.853C414.3 210.638 413.686 211.236 413.138 211.859C412.589 212.481 412.054 213.189 412.028 214.032C412.023 214.335 412.082 214.663 412.287 214.908C412.492 215.153 412.843 215.287 413.13 215.182C413.485 215.042 413.602 214.606 413.709 214.241C413.884 213.655 414.209 213.113 414.619 212.669C414.86 212.399 415.204 212.145 415.566 212.208C416.006 212.273 416.271 212.738 416.442 213.147C416.977 214.388 417.412 215.691 417.528 217.018C417.644 218.345 417.404 219.735 416.669 220.829C415.934 221.923 414.67 222.7 413.307 222.681C412.82 222.666 412.257 222.513 412.058 222.071C411.864 221.648 412.073 221.191 412.291 220.8C413.961 217.904 413.65 218.024 413.529 217.799C413.398 217.536 412.117 218.502 411.703 219.113C411.269 219.758 411.035 220.523 410.565 221.147C410.096 221.771 409.242 222.21 408.49 221.837C407.775 221.884 407.095 221.339 406.835 220.678C406.576 220.016 406.657 219.267 406.903 218.617C407.148 217.966 407.53 217.382 407.865 216.769C408.539 215.563 409.03 214.262 409.342 212.914C409.384 212.71 409.434 212.494 409.373 212.274C409.318 212.072 409.124 211.864 408.91 211.874C408.703 211.873 408.546 212.055 408.433 212.217C407.742 213.184 407.418 214.339 406.946 215.422C406.473 216.504 405.806 217.592 404.711 218.087C403.627 218.589 402.051 218.258 401.551 217.146C401.184 216.344 401.489 215.407 402.023 214.729C402.556 214.052 403.291 213.571 403.946 213.012C404.279 212.721 404.603 212.394 404.714 211.969C404.824 211.544 404.637 211.003 404.213 210.856C403.7 210.672 403.213 211.086 402.891 211.491C402.404 212.089 401.987 212.76 401.39 213.277C400.8 213.782 399.964 214.11 399.192 213.878C398.546 213.675 398.05 213.117 397.782 212.497C397.198 211.15 397.516 209.577 398.265 208.353C399.002 207.123 400.118 206.165 401.174 205.202C401.521 204.889 401.877 204.535 401.99 204.08C402.09 203.619 401.814 203.039 401.336 202.983C400.87 202.934 400.534 203.362 400.292 203.739C399.567 204.87 398.831 205.993 398.106 207.124C397.738 207.685 397.363 208.258 396.85 208.688C396.337 209.117 395.633 209.385 394.952 209.269C394.091 209.106 393.431 208.312 393.28 207.47C393.129 206.628 393.424 205.762 393.903 205.068C394.395 204.38 395.054 203.839 395.742 203.331C396.125 203.039 396.545 202.738 396.706 202.282C396.867 201.826 396.643 201.186 396.148 201.105C395.702 201.022 395.345 201.406 395.081 201.739C394.647 202.277 394.225 202.822 393.792 203.359C393.317 203.965 391.686 206.102 389.919 205.29C389.19 204.96 388.668 204.096 388.929 203.393C389.747 201.92 390.577 200.454 391.389 198.991C392.173 197.575 393 195.953 392.479 194.368C392.365 194.024 392.095 193.647 391.745 193.698C391.432 193.741 391.294 194.104 391.198 194.399C390.624 196.371 389.894 198.311 389.023 200.167C388.598 201.063 388.099 201.976 387.235 202.486C386.471 202.934 385.519 202.977 384.615 202.804C383.73 202.627 382.881 202.257 382.051 201.883C381.612 201.681 381.121 201.433 380.977 200.979C380.829 200.507 381.124 200.04 381.41 199.643C382.757 197.766 383.966 195.774 385.026 193.71C385.149 193.477 385.268 193.226 385.265 192.963C385.262 192.701 385.103 192.406 384.839 192.34C384.461 192.252 384.17 192.63 383.993 192.953C383.272 194.317 382.658 195.743 381.756 196.982C380.855 198.222 379.573 199.295 378.034 199.57C376.175 199.899 374.27 199.05 372.529 198.222C372.155 198.044 371.754 197.834 371.611 197.458C371.391 196.866 371.929 196.314 372.408 195.941C373.226 195.296 374.037 194.661 374.855 194.016C375.155 193.782 375.468 193.525 375.611 193.18C375.753 192.836 375.678 192.347 375.33 192.154C374.829 191.869 374.276 192.366 373.917 192.78C373.203 193.625 372.401 194.403 371.531 195.109C370.649 195.808 369.587 196.461 368.445 196.314C367.097 196.136 366.132 194.945 365.314 193.856C364.913 193.325 364.533 192.545 364.998 192.088C365.379 191.718 366.032 191.909 366.565 192.06C367.788 192.393 369.126 192.32 370.28 191.86C370.511 191.769 370.776 191.62 370.796 191.372C370.829 191.131 370.617 190.897 370.379 190.815C370.14 190.733 369.889 190.752 369.638 190.771C368.549 190.855 367.43 190.829 366.341 190.699C365.882 190.638 365.411 190.571 365.016 190.35C364.609 190.122 364.267 189.733 364.239 189.271C364.208 188.869 364.425 188.508 364.663 188.191C365.554 186.915 367.881 185.163 368.304 185.524Z" fill="#FDDFD3"/>
<path d="M366.991 188.787C366.842 189.036 366.931 189.365 367.191 189.52C367.451 189.676 367.783 189.6 367.932 189.35C368.082 189.101 367.992 188.773 367.732 188.617C367.472 188.461 367.14 188.537 366.991 188.787Z" fill="#AA2829"/>
<path d="M376.99 196.429C376.84 196.679 376.93 197.007 377.19 197.163C377.45 197.318 377.781 197.242 377.931 196.993C378.08 196.743 377.99 196.415 377.731 196.259C377.471 196.104 377.139 196.18 376.99 196.429Z" fill="#AA2829"/>
<path d="M381.454 191.081C381.304 191.331 381.394 191.659 381.654 191.815C381.914 191.97 382.245 191.894 382.395 191.645C382.544 191.395 382.454 191.067 382.194 190.911C381.935 190.756 381.603 190.832 381.454 191.081Z" fill="#AA2829"/>
<path d="M387.28 189.492C387.131 189.741 387.221 190.069 387.48 190.225C387.74 190.38 388.072 190.304 388.221 190.055C388.371 189.806 388.281 189.477 388.021 189.322C387.761 189.166 387.43 189.242 387.28 189.492Z" fill="#AA2829"/>
<path d="M392.717 190.953C392.567 191.203 392.657 191.531 392.917 191.686C393.177 191.842 393.509 191.766 393.658 191.517C393.807 191.267 393.718 190.939 393.458 190.783C393.198 190.628 392.866 190.704 392.717 190.953Z" fill="#AA2829"/>
<path d="M390.851 202.904C390.702 203.154 390.792 203.482 391.052 203.638C391.312 203.793 391.643 203.717 391.793 203.468C391.942 203.218 391.852 202.89 391.592 202.734C391.333 202.579 391.001 202.655 390.851 202.904Z" fill="#AA2829"/>
<path d="M398.093 200.766C397.943 201.016 398.033 201.344 398.293 201.5C398.553 201.655 398.884 201.579 399.034 201.33C399.183 201.08 399.094 200.752 398.834 200.596C398.574 200.441 398.242 200.517 398.093 200.766Z" fill="#AA2829"/>
<path d="M406.37 200.875C406.221 201.125 406.31 201.453 406.57 201.608C406.83 201.764 407.162 201.688 407.311 201.439C407.46 201.189 407.371 200.861 407.111 200.705C406.851 200.55 406.519 200.626 406.37 200.875Z" fill="#AA2829"/>
<path d="M408.747 205.074C408.597 205.323 408.687 205.652 408.947 205.807C409.207 205.963 409.538 205.887 409.688 205.637C409.837 205.388 409.747 205.06 409.487 204.904C409.228 204.748 408.896 204.825 408.747 205.074Z" fill="#AA2829"/>
<path d="M403.639 216.648C403.489 216.897 403.579 217.226 403.839 217.381C404.099 217.537 404.43 217.461 404.58 217.211C404.729 216.962 404.639 216.634 404.38 216.478C404.12 216.322 403.788 216.398 403.639 216.648Z" fill="#AA2829"/>
<path d="M398.848 205.698C398.851 205.639 398.83 205.595 398.815 205.54C398.743 205.206 398.591 204.793 398.212 204.704C398.027 204.64 397.756 204.692 397.714 204.897C397.699 204.949 397.714 205.004 397.729 205.059C397.742 205.143 397.737 205.232 397.72 205.314C397.708 205.414 397.643 205.468 397.601 205.565C397.593 205.606 397.591 205.636 397.582 205.677C397.571 205.67 397.552 205.674 397.54 205.667C397.377 205.646 397.219 205.643 397.076 205.696C396.958 205.732 396.878 205.838 396.777 205.9C396.752 205.916 396.696 205.929 396.669 205.974C396.646 206.067 396.689 206.154 396.654 206.24C396.647 206.252 396.647 206.252 396.64 206.263C396.482 206.26 396.377 206.382 396.25 206.275C396.193 206.21 396.151 206.093 396.055 206.066C395.861 206.042 395.657 206.196 395.531 206.274C395.526 206.255 395.521 206.237 395.497 206.223C395.445 206.177 395.378 206.182 395.322 206.195C395.2 206.213 395.077 206.232 394.976 206.294C394.834 206.424 394.704 206.561 394.534 206.658C394.431 206.643 394.312 206.602 394.256 206.508C394.151 206.23 394.513 206.079 394.683 205.981C394.79 205.937 395.061 205.885 395.216 205.84C395.29 205.823 395.369 205.824 395.455 205.814C395.687 205.8 395.914 205.767 396.167 205.719C396.339 205.699 396.576 205.596 396.713 205.555C396.849 205.514 396.985 205.473 397.077 205.374C397.137 205.272 397.217 205.166 397.23 205.037C397.25 204.818 396.975 204.715 396.795 204.669C396.235 204.564 395.654 204.814 395.083 204.993C395.634 204.848 396.075 204.59 396.678 204.706C396.858 204.752 397.132 204.855 397.087 205.089C397.05 205.205 396.994 205.325 396.922 205.419C396.844 205.495 396.726 205.532 396.615 205.558C396.278 205.693 396.187 205.685 395.751 205.746C395.507 205.753 395.138 205.809 395.002 205.85C394.78 205.901 394.576 205.947 394.385 206.079C394.235 206.142 393.935 206.377 394.118 206.578C394.206 206.646 394.318 206.698 394.434 206.691C394.699 206.65 394.883 206.422 395.063 206.254C395.102 206.216 395.107 206.235 395.162 206.222C395.218 206.209 395.321 206.225 395.346 206.316C395.539 206.34 395.683 206.181 395.851 206.113C395.893 206.123 395.917 206.137 395.952 206.158C396.004 206.204 396.029 206.296 396.1 206.338C396.17 206.38 396.263 206.359 396.337 206.342C396.374 206.334 396.43 206.321 396.473 206.301C396.492 206.297 396.515 206.311 396.546 206.314C396.558 206.321 396.581 206.335 396.593 206.342C396.545 206.421 396.481 206.475 396.422 206.547C396.404 206.551 396.409 206.569 396.397 206.562C396.36 206.571 396.304 206.583 396.277 206.629C396.225 206.797 396.107 206.833 396.026 206.969C395.999 207.014 395.978 207.048 395.94 207.086C395.874 207.062 395.793 207.09 395.731 207.114C395.611 207.181 395.544 207.294 395.421 207.312C395.293 207.312 395.163 207.342 395.038 207.39C394.845 207.473 394.681 207.56 394.525 207.634C394.525 207.634 394.518 207.646 394.506 207.639C394.445 207.633 394.392 207.616 394.338 207.599C394.113 207.495 393.901 207.261 393.817 207.027C393.83 206.927 393.964 206.808 394.037 206.714C394.212 206.742 394.318 206.912 394.493 206.94C394.629 207.007 394.756 207.114 394.921 207.105C394.921 207.105 394.94 207.101 394.933 207.112C394.921 207.105 394.891 207.102 394.873 207.107C394.704 207.067 394.632 206.947 394.447 206.883C394.341 206.819 394.274 206.718 394.148 206.688C394.069 206.687 393.976 206.708 393.919 206.75C393.835 206.838 393.75 206.926 393.683 207.038C393.676 207.157 393.785 207.268 393.847 207.351C393.961 207.481 394.082 207.6 394.255 207.657C394.386 207.705 394.528 207.682 394.636 207.609C394.786 207.545 394.986 207.451 395.143 207.376C395.15 207.365 395.266 207.357 395.333 207.352C395.426 207.33 395.5 207.313 395.587 207.274C395.668 207.246 395.739 207.181 395.803 207.127C395.815 207.134 395.839 207.148 395.85 207.155C395.881 207.158 395.918 207.149 395.955 207.141C396.066 207.115 396.11 206.988 396.176 206.905C396.248 206.811 396.368 206.744 396.4 206.61C396.407 206.599 396.421 206.576 396.439 206.572C396.458 206.568 396.501 206.548 396.52 206.544C396.571 206.513 396.604 206.456 396.65 206.407C396.663 206.384 396.689 206.369 396.702 206.346C396.788 206.336 396.855 206.33 396.943 206.291C397.116 206.241 397.347 206.15 397.555 205.936C397.594 205.898 397.616 205.835 397.636 205.801L397.643 205.79C397.757 205.919 397.939 205.936 398.114 205.964C398.204 205.972 398.287 206.022 398.384 206.019C398.519 206.007 398.684 205.999 398.752 205.886C398.797 205.837 398.831 205.78 398.848 205.698ZM397.462 205.958C397.305 206.14 397.121 206.26 396.936 206.302C396.899 206.311 396.849 206.342 396.753 206.315C396.787 206.259 396.797 206.188 396.807 206.118C396.811 206.058 396.784 205.996 396.811 205.951C396.85 205.913 396.893 205.893 396.937 205.873C396.995 205.831 397.116 205.735 397.141 205.719C397.276 205.708 397.434 205.711 397.565 205.759C397.525 205.826 397.484 205.894 397.462 205.958ZM398.346 205.95C398.178 205.91 397.976 205.928 397.836 205.813C397.796 205.774 397.767 205.741 397.714 205.725C397.734 205.691 397.749 205.639 397.758 205.598C397.758 205.49 397.829 205.425 397.871 205.328C397.895 205.235 397.9 205.146 397.894 205.05C397.885 204.984 397.859 204.922 397.881 204.858C397.884 204.799 397.941 204.757 397.967 204.741C397.985 204.737 397.997 204.744 398.027 204.747C398.396 204.799 398.6 205.151 398.665 205.497C398.678 205.581 398.74 205.664 398.728 205.765C398.7 205.839 398.655 205.966 398.598 206.009C398.507 206 398.416 205.992 398.346 205.95Z" fill="#AA2829"/>
</svg>
