<svg width="600" height="600" viewBox="0 0 600 600" fill="none" xmlns="http://www.w3.org/2000/svg">
<path d="M440.979 322.863C446.653 326.612 445.07 340.006 436.615 352.693C428.153 365.389 403.212 375.472 406.915 360.14C408.935 351.763 420.138 348.783 424.165 340.572C432.733 323.083 435.305 319.113 440.979 322.863Z" fill="#E69264"/>
<path opacity="0.3608" d="M442.115 327.494C441.467 328.127 440.176 328.789 439.204 329.44C438.662 329.797 438.039 330.433 438.348 330.981C438.583 331.405 439.235 331.383 439.632 331.077C440.032 330.787 440.269 330.309 440.548 329.904C440.834 329.49 441.234 329.087 441.722 329.087C442.136 329.076 442.505 329.371 442.694 329.747C442.873 330.117 442.903 330.563 442.882 330.985C442.838 331.983 442.357 333.174 441.374 333.352C440.875 333.443 440.374 333.236 439.902 333.065C439.43 332.893 438.898 332.748 438.417 332.965C437.942 333.172 437.684 333.903 438.071 334.211C438.811 334.181 439.548 334.023 440.292 334.024C441.036 334.026 441.813 334.206 442.291 334.763C442.769 335.321 442.793 336.298 442.195 336.769C441.807 337.081 441.257 337.093 440.798 336.959C440.34 336.825 439.919 336.563 439.497 336.342C437.614 335.405 433.515 335.603 433.721 336.33C433.876 336.866 436.252 336.876 437.733 337.057C439.214 337.239 440.792 337.829 441.428 339.179C441.646 339.646 441.729 340.187 441.568 340.691C441.406 341.195 440.962 341.622 440.45 341.675C439.708 341.746 439.146 341.099 438.612 340.601C438.079 340.102 437.157 339.746 436.646 340.322C437.139 341.102 438.062 341.473 438.828 341.97C439.602 342.473 440.301 343.36 440.021 344.273C439.779 345.057 438.878 345.479 438.072 345.432C437.272 345.376 436.567 344.965 435.886 344.558C434.779 343.898 433.671 343.238 432.572 342.585C432.04 342.271 431.275 342 430.881 342.506C430.625 342.842 430.742 343.336 431.022 343.623C431.302 343.911 431.696 344.04 432.083 344.179C433.512 344.676 434.905 345.26 436.255 345.94C436.988 346.314 437.786 346.821 437.878 347.649C437.983 348.572 437.119 349.373 436.247 349.717C434.709 350.327 432.966 350.04 431.524 349.336C430.082 348.632 428.873 347.532 427.681 346.445C427.449 346.729 427.462 347.161 427.626 347.477C427.79 347.794 428.079 348.031 428.364 348.237C429.589 349.165 430.915 349.954 432.31 350.61C432.848 350.858 433.418 351.101 433.822 351.534C434.227 351.968 434.437 352.67 434.129 353.209C433.809 353.783 433.033 353.956 432.432 353.776C431.825 353.604 431.347 353.16 430.873 352.747C430.406 352.325 429.906 351.892 429.287 351.756C428.998 351.687 428.585 351.77 428.54 352.077C428.513 352.226 428.598 352.372 428.702 352.49C429.586 353.553 431.473 353.66 431.884 355.002C432.076 355.635 431.801 356.41 431.239 356.794C430.677 357.178 429.87 357.131 429.386 356.696C428.901 356.261 428.762 355.554 428.391 355.018C428.027 354.472 427.15 354.149 426.739 354.698C426.449 355.081 426.615 355.639 426.933 355.967C427.251 356.296 427.678 356.492 428.022 356.783C428.529 357.206 428.88 357.883 428.743 358.56C428.612 359.228 427.9 359.8 427.434 359.957C426.969 360.115 426.44 360.227 426.102 360.039C425.78 359.848 425.6 359.478 425.425 359.14C424.633 357.649 423.406 356.424 421.922 355.647C421.628 355.491 421.297 355.35 420.951 355.397C420.606 355.444 420.273 355.754 420.313 356.093C420.339 356.337 420.483 356.569 420.704 356.658C421.87 357.162 422.708 357.895 423.593 358.676C424.095 359.124 425.095 360.157 425.065 360.855C424.986 362.294 422.951 362.954 422.564 362.872C422.176 362.789 421.892 362.471 421.634 362.172C421.263 361.748 420.892 361.324 420.521 360.901C420.359 360.713 420.188 360.519 419.949 360.417C419.72 360.322 419.411 360.338 419.248 360.545C419.009 360.838 419.197 361.271 419.421 361.56C419.841 362.103 420.384 362.552 420.996 362.867C421.151 362.952 421.34 363.046 421.382 363.232C421.415 363.411 421.288 363.587 421.154 363.716C420.471 364.379 419.395 364.575 418.558 364.196C417.926 363.909 417.473 363.355 416.995 362.854C416.517 362.354 415.968 361.858 415.269 361.776C415.017 361.749 414.741 361.775 414.523 361.928C414.304 362.08 414.168 362.362 414.234 362.608C414.325 362.913 414.678 363.042 414.974 363.158C415.448 363.345 415.875 363.654 416.215 364.027C416.422 364.247 416.609 364.551 416.53 364.847C416.445 365.208 416.039 365.395 415.687 365.507C414.617 365.863 413.503 366.13 412.391 366.131C411.28 366.132 410.142 365.832 409.286 365.142C408.43 364.453 407.875 363.346 407.989 362.214C408.037 361.811 408.205 361.354 408.586 361.22C408.952 361.089 409.316 361.297 409.626 361.506C411.912 363.103 411.835 362.835 412.031 362.751C412.258 362.661 411.548 361.527 411.07 361.139C410.565 360.732 409.946 360.482 409.462 360.047C408.977 359.612 408.673 358.87 409.038 358.272C409.05 357.674 409.552 357.148 410.121 356.981C410.689 356.813 411.306 356.934 411.829 357.185C412.352 357.436 412.81 357.796 413.295 358.118C414.249 358.765 415.294 359.268 416.392 359.623C416.559 359.673 416.735 359.73 416.922 359.696C417.093 359.665 417.281 359.518 417.288 359.34C417.304 359.168 417.164 359.024 417.037 358.918C416.283 358.275 415.346 357.922 414.481 357.451C413.615 356.981 412.759 356.348 412.427 355.402C412.088 354.465 412.476 353.179 413.437 352.843C414.13 352.596 414.887 352.918 415.412 353.41C415.936 353.902 416.282 354.548 416.7 355.132C416.917 355.43 417.166 355.723 417.511 355.846C417.856 355.968 418.32 355.851 418.472 355.51C418.662 355.097 418.354 354.662 418.04 354.365C417.578 353.918 417.051 353.522 416.664 352.989C416.287 352.462 416.074 351.744 416.323 351.119C416.538 350.597 417.038 350.224 417.573 350.046C418.734 349.658 420.018 350.036 420.981 350.747C421.951 351.448 422.666 352.445 423.39 353.392C423.625 353.703 423.894 354.024 424.264 354.15C424.64 354.267 425.142 354.079 425.223 353.686C425.297 353.302 424.966 352.992 424.67 352.764C423.783 352.081 422.902 351.387 422.015 350.704C421.574 350.357 421.125 350.004 420.806 349.547C420.486 349.09 420.313 348.485 420.459 347.927C420.657 347.223 421.364 346.733 422.075 346.668C422.785 346.603 423.484 346.91 424.027 347.359C424.562 347.817 424.964 348.404 425.337 349.012C425.552 349.352 425.772 349.722 426.139 349.889C426.507 350.056 427.055 349.916 427.158 349.51C427.259 349.146 426.966 348.821 426.708 348.578C426.292 348.179 425.87 347.789 425.454 347.389C424.985 346.951 423.327 345.442 424.129 344.032C424.456 343.449 425.212 343.078 425.777 343.346C426.942 344.132 428.101 344.927 429.258 345.707C430.379 346.461 431.667 347.266 433.021 346.947C433.316 346.877 433.648 346.68 433.631 346.385C433.618 346.122 433.326 345.982 433.088 345.88C431.49 345.261 429.931 344.514 428.451 343.656C427.737 343.239 427.014 342.758 426.653 342.003C426.336 341.336 426.369 340.541 426.577 339.803C426.788 339.081 427.157 338.402 427.528 337.738C427.727 337.388 427.969 336.998 428.356 336.912C428.76 336.822 429.127 337.102 429.436 337.367C430.899 338.623 432.466 339.77 434.106 340.8C434.29 340.92 434.491 341.036 434.709 341.053C434.927 341.07 435.184 340.959 435.258 340.744C435.358 340.436 435.065 340.167 434.809 339.996C433.728 339.299 432.587 338.686 431.622 337.847C430.657 337.008 429.858 335.866 429.74 334.567C429.601 332.998 430.444 331.476 431.257 330.089C431.432 329.791 431.635 329.473 431.958 329.382C432.467 329.241 432.886 329.728 433.162 330.153C433.639 330.879 434.108 331.599 434.585 332.325C434.758 332.592 434.949 332.871 435.225 333.014C435.501 333.157 435.913 333.13 436.098 332.855C436.371 332.459 435.998 331.964 435.68 331.635C435.029 330.981 434.44 330.259 433.916 329.484C433.399 328.701 432.933 327.772 433.138 326.833C433.383 325.726 434.442 325.01 435.406 324.408C435.876 324.113 436.552 323.853 436.898 324.273C437.178 324.617 436.972 325.145 436.809 325.577C436.444 326.569 436.408 327.687 436.706 328.679C436.766 328.878 436.87 329.108 437.075 329.143C437.273 329.188 437.483 329.029 437.568 328.836C437.653 328.644 437.656 328.434 437.658 328.224C437.667 327.313 437.769 326.385 437.956 325.489C438.039 325.112 438.129 324.725 438.341 324.413C438.56 324.091 438.908 323.835 439.294 323.845C439.63 323.849 439.915 324.054 440.161 324.275C441.158 325.108 442.445 327.168 442.115 327.494Z" fill="#FDDFD3"/>
<path d="M439.498 326.167C439.301 326.025 439.022 326.076 438.874 326.281C438.726 326.486 438.765 326.767 438.962 326.909C439.158 327.051 439.437 327 439.585 326.795C439.734 326.591 439.694 326.309 439.498 326.167Z" fill="#AA2829"/>
<path d="M432.425 333.925C432.229 333.783 431.95 333.834 431.802 334.039C431.653 334.244 431.693 334.525 431.889 334.667C432.086 334.809 432.365 334.758 432.513 334.553C432.661 334.349 432.622 334.067 432.425 333.925Z" fill="#AA2829"/>
<path d="M436.547 338.021C436.351 337.879 436.072 337.93 435.924 338.135C435.776 338.339 435.815 338.621 436.011 338.763C436.208 338.905 436.487 338.854 436.635 338.649C436.783 338.444 436.744 338.163 436.547 338.021Z" fill="#AA2829"/>
<path d="M437.449 342.978C437.252 342.836 436.973 342.887 436.825 343.091C436.677 343.296 436.716 343.577 436.913 343.719C437.109 343.862 437.389 343.811 437.537 343.606C437.685 343.401 437.645 343.12 437.449 342.978Z" fill="#AA2829"/>
<path d="M435.842 347.391C435.645 347.249 435.366 347.3 435.218 347.505C435.07 347.709 435.109 347.991 435.306 348.133C435.502 348.275 435.782 348.224 435.93 348.019C436.078 347.814 436.038 347.533 435.842 347.391Z" fill="#AA2829"/>
<path d="M426.044 344.979C425.848 344.837 425.568 344.888 425.42 345.093C425.272 345.298 425.311 345.579 425.508 345.721C425.704 345.863 425.984 345.812 426.132 345.607C426.28 345.403 426.241 345.121 426.044 344.979Z" fill="#AA2829"/>
<path d="M427.299 351.151C427.102 351.009 426.823 351.059 426.675 351.264C426.527 351.469 426.566 351.75 426.763 351.892C426.959 352.034 427.239 351.983 427.387 351.779C427.535 351.574 427.495 351.293 427.299 351.151Z" fill="#AA2829"/>
<path d="M426.611 358.022C426.414 357.88 426.135 357.931 425.987 358.136C425.839 358.34 425.878 358.622 426.075 358.764C426.271 358.906 426.551 358.855 426.699 358.65C426.847 358.445 426.807 358.164 426.611 358.022Z" fill="#AA2829"/>
<path d="M422.95 359.694C422.754 359.552 422.474 359.603 422.326 359.807C422.178 360.012 422.218 360.293 422.414 360.435C422.611 360.578 422.89 360.527 423.038 360.322C423.186 360.117 423.147 359.836 422.95 359.694Z" fill="#AA2829"/>
<path d="M413.7 354.615C413.504 354.472 413.225 354.523 413.076 354.728C412.928 354.933 412.968 355.214 413.164 355.356C413.361 355.498 413.64 355.447 413.788 355.243C413.936 355.038 413.897 354.757 413.7 354.615Z" fill="#AA2829"/>
<path d="M423.145 351.423C423.194 351.43 423.232 351.415 423.279 351.407C423.562 351.372 423.916 351.275 424.017 350.967C424.084 350.818 424.06 350.589 423.893 350.538C423.851 350.522 423.804 350.53 423.758 350.539C423.686 350.544 423.613 350.533 423.546 350.513C423.464 350.496 423.424 350.439 423.346 350.397C423.312 350.387 423.288 350.383 423.255 350.373C423.261 350.364 423.259 350.348 423.266 350.339C423.295 350.205 423.309 350.073 423.276 349.95C423.253 349.85 423.171 349.776 423.127 349.688C423.116 349.666 423.109 349.619 423.074 349.593C422.998 349.566 422.922 349.596 422.853 349.56C422.844 349.554 422.844 349.554 422.835 349.548C422.849 349.416 422.756 349.321 422.854 349.222C422.912 349.179 423.012 349.153 423.041 349.075C423.075 348.916 422.962 348.736 422.906 348.625C422.922 348.622 422.938 348.619 422.951 348.601C422.993 348.561 422.994 348.504 422.987 348.457C422.98 348.354 422.974 348.25 422.93 348.162C422.832 348.035 422.727 347.917 422.659 347.768C422.679 347.684 422.721 347.588 422.804 347.549C423.042 347.481 423.142 347.793 423.211 347.942C423.24 348.033 423.264 348.262 423.29 348.394C423.299 348.457 423.292 348.523 423.294 348.595C423.289 348.789 423.3 348.98 423.322 349.193C423.326 349.338 423.394 349.542 423.419 349.659C423.443 349.775 423.467 349.891 423.543 349.974C423.623 350.032 423.705 350.106 423.812 350.127C423.992 350.158 424.097 349.938 424.149 349.792C424.277 349.334 424.111 348.833 424.003 348.345C424.084 348.813 424.266 349.199 424.127 349.691C424.075 349.837 423.97 350.058 423.779 350.004C423.685 349.964 423.59 349.909 423.516 349.842C423.459 349.772 423.436 349.672 423.423 349.577C423.335 349.288 423.348 349.213 423.329 348.846C423.341 348.643 423.321 348.332 423.297 348.216C423.271 348.027 423.247 347.855 423.151 347.687C423.109 347.558 422.936 347.291 422.755 347.429C422.693 347.497 422.641 347.586 422.639 347.684C422.654 347.906 422.83 348.075 422.956 348.238C422.985 348.273 422.969 348.275 422.976 348.323C422.983 348.37 422.962 348.454 422.884 348.468C422.851 348.627 422.973 348.758 423.017 348.903C423.006 348.937 422.993 348.955 422.972 348.983C422.93 349.023 422.852 349.037 422.812 349.093C422.772 349.149 422.783 349.227 422.791 349.29C422.796 349.321 422.802 349.368 422.816 349.406C422.818 349.422 422.804 349.44 422.8 349.465C422.793 349.475 422.78 349.493 422.773 349.503C422.711 349.458 422.671 349.4 422.615 349.346C422.613 349.33 422.598 349.333 422.604 349.324C422.6 349.293 422.593 349.245 422.558 349.22C422.422 349.164 422.4 349.063 422.293 348.986C422.258 348.96 422.231 348.941 422.202 348.906C422.227 348.853 422.209 348.784 422.193 348.731C422.147 348.626 422.058 348.562 422.051 348.459C422.061 348.352 422.045 348.242 422.014 348.135C421.959 347.968 421.899 347.826 421.848 347.69C421.848 347.69 421.839 347.684 421.846 347.675C421.855 347.625 421.873 347.581 421.891 347.538C421.994 347.358 422.203 347.199 422.404 347.147C422.486 347.164 422.575 347.285 422.648 347.352C422.613 347.495 422.463 347.571 422.427 347.714C422.362 347.822 422.264 347.921 422.259 348.058C422.259 348.058 422.262 348.074 422.253 348.068C422.259 348.058 422.264 348.033 422.262 348.018C422.307 347.881 422.411 347.83 422.479 347.68C422.539 347.597 422.628 347.549 422.662 347.446C422.668 347.38 422.658 347.302 422.626 347.251C422.56 347.175 422.493 347.098 422.404 347.034C422.306 347.02 422.206 347.102 422.132 347.148C422.016 347.233 421.909 347.325 421.849 347.465C421.799 347.571 421.808 347.69 421.861 347.785C421.903 347.914 421.968 348.087 422.019 348.223C422.027 348.229 422.025 348.326 422.025 348.383C422.036 348.461 422.045 348.524 422.071 348.6C422.089 348.669 422.138 348.733 422.178 348.79C422.171 348.799 422.158 348.818 422.151 348.827C422.146 348.852 422.151 348.883 422.155 348.915C422.168 349.009 422.271 349.055 422.335 349.115C422.409 349.182 422.455 349.287 422.564 349.323C422.573 349.33 422.591 349.342 422.593 349.358C422.595 349.374 422.608 349.412 422.611 349.427C422.633 349.472 422.677 349.504 422.715 349.545C422.733 349.558 422.744 349.58 422.762 349.593C422.764 349.665 422.764 349.722 422.79 349.797C422.819 349.945 422.879 350.143 423.041 350.331C423.07 350.366 423.121 350.389 423.148 350.408L423.156 350.415C423.04 350.5 423.013 350.65 422.978 350.794C422.964 350.869 422.917 350.933 422.912 351.015C422.912 351.127 422.907 351.265 422.996 351.33C423.034 351.371 423.079 351.403 423.145 351.423ZM423.03 350.253C422.89 350.109 422.803 349.948 422.781 349.791C422.777 349.759 422.755 349.715 422.784 349.637C422.828 349.67 422.886 349.683 422.944 349.697C422.993 349.704 423.047 349.686 423.082 349.712C423.111 349.747 423.124 349.785 423.138 349.823C423.169 349.873 423.24 349.981 423.251 350.003C423.251 350.116 423.237 350.247 423.188 350.353C423.134 350.314 423.081 350.276 423.03 350.253ZM422.973 350.988C423.017 350.851 423.018 350.682 423.123 350.574C423.158 350.543 423.187 350.522 423.205 350.478C423.232 350.498 423.274 350.514 423.308 350.524C423.397 350.532 423.446 350.596 423.524 350.638C423.599 350.664 423.673 350.675 423.753 350.677C423.809 350.675 423.862 350.657 423.913 350.68C423.962 350.687 423.993 350.738 424.004 350.76C424.007 350.775 424 350.785 423.995 350.81C423.926 351.112 423.618 351.257 423.326 351.286C423.255 351.291 423.181 351.336 423.099 351.319C423.039 351.29 422.936 351.244 422.905 351.193C422.919 351.118 422.932 351.043 422.973 350.988Z" fill="#AA2829"/>
</svg>
