<svg width="755" height="420" viewBox="0 0 755 420" fill="none" xmlns="http://www.w3.org/2000/svg">
<path d="M110.185 411.393H14.9314C9.7001 411.393 1.85314 402.129 1.85314 395.59C1.85314 395.59 0.109375 380.441 0.109375 360.061C0.109375 339.68 1.30822 334.776 1.85314 326.384C2.61604 314.178 10.0271 304.26 20.1627 304.26C20.1627 304.26 76.5082 303.715 97.4334 303.933C105.934 304.042 124.571 302.08 125.77 310.472C126.315 314.941 125.116 340.443 125.007 360.17C124.898 377.389 124.353 401.148 122.936 405.508C122.064 409.758 113.563 411.393 110.185 411.393Z" fill="#703F3F"/>
<path d="M99.3948 405.289C80.8673 404.853 47.4087 405.289 26.8105 404.853C17.5467 404.635 9.69976 396.353 7.95599 385.018C6.86614 378.043 5.6673 368.343 5.88527 355.592C6.10324 340.661 7.08411 332.378 9.59078 325.948C13.2963 316.793 19.8354 312.325 26.9195 311.562C47.0818 309.382 82.2841 310.145 102.446 313.524C106.915 314.286 113.127 319.845 114.762 324.967C116.833 332.051 118.903 346.001 118.576 359.951C118.467 369.215 118.031 383.165 115.852 391.993C113.781 399.949 106.261 405.507 99.3948 405.289Z" fill="#F7BBB2"/>
<path d="M233.666 412.919H138.521C133.29 412.919 121.519 412.265 121.519 405.835C121.519 405.835 121.519 359.298 121.519 346.546C121.519 314.178 120.321 302.516 130.456 302.516C130.456 302.516 164.678 301.753 178.955 301.753C192.687 301.753 240.314 298.266 247.616 305.568C252.847 310.799 251.43 318.319 250.122 353.521C248.924 384.582 251.866 396.026 248.924 405.617C247.943 409.867 242.275 412.919 233.666 412.919Z" fill="#703F3F"/>
<path d="M222.222 406.707C203.694 406.271 170.236 406.706 149.638 406.271C140.374 406.053 132.527 397.77 130.783 386.435C129.693 379.46 128.494 369.76 128.712 357.009C128.93 342.078 129.911 333.795 132.418 327.365C136.123 318.21 142.663 313.742 149.747 312.979C169.909 310.799 205.111 311.562 225.274 314.941C229.742 315.704 235.954 321.262 237.589 326.384C239.66 333.468 241.73 347.418 241.403 361.369C241.294 370.632 240.859 384.582 238.679 393.41C236.826 401.257 229.088 406.924 222.222 406.707Z" fill="#F7BBB2"/>
<path d="M362.05 411.829C359.435 412.483 356.819 412.701 354.094 412.701H262.982C257.751 412.701 243.692 412.047 243.692 405.617C243.692 405.617 246.417 359.08 245.981 346.329C244.782 319.518 241.076 305.132 251.212 305.132C251.212 305.132 289.684 302.408 302.326 302.081C314.423 301.754 368.698 301.209 372.186 308.402C379.706 318.21 372.186 340.879 372.186 357.227C372.186 376.3 372.622 396.789 370.987 407.034C370.769 409.867 366.41 410.957 362.05 411.829Z" fill="#703F3F"/>
<path d="M347.446 406.707C328.919 406.271 295.46 406.706 274.862 406.271C265.598 406.053 257.751 397.77 256.007 386.435C254.917 379.46 253.719 369.76 253.937 357.009C254.155 342.078 255.135 333.795 257.642 327.365C261.348 318.21 267.887 313.742 274.971 312.979C295.133 310.799 330.335 311.562 350.498 314.941C354.966 315.704 361.178 321.262 362.813 326.384C364.884 333.468 366.954 347.418 366.628 361.369C366.519 370.632 366.083 384.582 363.903 393.41C361.832 401.257 354.312 406.924 347.446 406.707Z" fill="#F7BBB2"/>
<path d="M484.441 412.809H389.297C384.065 412.809 372.295 414.226 370.006 407.142C367.935 400.494 370.442 374.773 371.205 359.189C372.622 326.82 364.884 318.319 371.205 308.401C375.673 301.317 421.229 305.677 435.397 305.677C449.13 305.677 489.563 304.26 495.23 307.093C503.186 311.126 502.097 318.319 500.789 353.63C499.59 384.691 502.533 396.135 499.59 405.725C498.718 409.758 492.942 412.809 484.441 412.809Z" fill="#703F3F"/>
<path d="M473.761 406.707C455.233 406.271 421.774 406.706 401.176 406.271C391.912 406.053 384.065 397.77 382.322 386.435C381.232 379.46 380.033 369.76 380.251 357.009C380.469 342.078 381.45 333.795 383.956 327.365C387.662 318.21 394.201 313.742 401.285 312.979C421.448 310.799 456.65 311.562 476.812 314.941C481.281 315.704 487.493 321.262 489.128 326.384C491.198 333.468 493.269 347.418 492.942 361.369C492.833 370.632 492.397 384.582 490.217 393.41C488.147 401.257 480.627 406.924 473.761 406.707Z" fill="#F7BBB2"/>
<path d="M609.665 412.81H514.412C509.18 412.81 499.59 411.393 497.41 407.142C490.98 394.827 497.955 359.189 497.41 346.546C496.211 319.736 495.121 311.344 498.609 307.094C502.532 302.189 542.966 306.004 555.935 305.568C567.815 305.241 604.434 301.862 604.434 301.862C612.935 301.862 622.416 306.658 624.814 318.864C626.231 326.929 623.942 340.988 623.942 357.336C623.942 376.408 624.487 388.724 621.653 398.315C620.346 402.238 619.038 412.701 609.665 412.81Z" fill="#703F3F"/>
<path d="M598.876 406.707C580.348 406.271 546.89 406.706 526.291 406.271C517.028 406.053 509.181 397.77 507.437 386.435C506.347 379.46 505.148 369.76 505.366 357.009C505.584 342.078 506.565 333.795 509.072 327.365C512.777 318.21 519.316 313.742 526.4 312.979C546.563 310.799 581.765 311.562 601.927 314.941C606.396 315.704 612.608 321.262 614.243 326.384C616.313 333.468 618.384 347.418 618.057 361.369C617.948 370.632 617.512 384.582 615.333 393.41C613.262 401.257 605.633 406.924 598.876 406.707Z" fill="#F7BBB2"/>
<path d="M734.127 412.81H638.982C633.751 412.81 621.981 414.227 619.692 407.143C617.621 400.494 620.128 374.774 620.891 359.189C622.308 326.82 610.755 315.159 617.076 305.241C621.545 298.157 673.967 304.369 688.135 304.369C701.867 304.369 739.249 304.369 744.916 307.094C752.872 311.126 751.782 318.319 750.474 353.631C749.276 384.692 752.218 396.135 749.276 405.726C748.404 409.758 742.518 412.81 734.127 412.81Z" fill="#703F3F"/>
<path d="M723.446 406.707C704.919 406.271 671.46 406.706 650.862 406.271C641.598 406.053 633.751 397.77 632.007 386.435C630.917 379.46 629.719 369.76 629.937 357.009C630.155 342.078 631.135 333.795 633.642 327.365C637.348 318.21 643.887 313.742 650.971 312.979C671.133 310.799 706.335 311.562 726.498 314.941C730.966 315.704 737.178 321.262 738.813 326.384C740.884 333.468 742.955 347.418 742.628 361.369C742.519 370.632 742.083 384.582 739.903 393.41C737.832 401.257 730.312 406.924 723.446 406.707Z" fill="#F7BBB2"/>
<path d="M690.968 377.934H684.32C674.402 377.934 666.229 371.504 666.229 363.548V356.028C666.229 348.181 674.293 341.642 684.32 341.642H690.968C700.886 341.642 709.06 348.072 709.06 356.028V363.548C709.06 371.504 700.886 377.934 690.968 377.934Z" fill="#703535"/>
<path d="M568.578 377.934H561.929C552.012 377.934 543.838 371.504 543.838 363.548V356.028C543.838 348.181 551.903 341.642 561.929 341.642H568.578C578.495 341.642 586.669 348.072 586.669 356.028V363.548C586.669 371.504 578.604 377.934 568.578 377.934Z" fill="#703535"/>
<path d="M441.828 377.934H435.179C425.262 377.934 417.088 371.504 417.088 363.548V356.028C417.088 348.181 425.153 341.642 435.179 341.642H441.828C451.745 341.642 459.919 348.072 459.919 356.028V363.548C459.919 371.504 451.854 377.934 441.828 377.934Z" fill="#703535"/>
<path d="M312.462 377.934H305.814C295.896 377.934 287.722 371.504 287.722 363.548V356.028C287.722 348.181 295.787 341.642 305.814 341.642H312.462C322.38 341.642 330.553 348.072 330.553 356.028V363.548C330.553 371.504 322.489 377.934 312.462 377.934Z" fill="#703535"/>
<path d="M187.564 377.934H180.916C170.999 377.934 162.825 371.504 162.825 363.548V356.028C162.825 348.181 170.89 341.642 180.916 341.642H187.564C197.482 341.642 205.656 348.072 205.656 356.028V363.548C205.438 371.504 197.482 377.934 187.564 377.934Z" fill="#703535"/>
<path d="M63.4301 377.934H56.782C46.8643 377.934 38.6904 371.504 38.6904 363.548V356.028C38.6904 348.181 46.7554 341.642 56.782 341.642H63.4301C73.3478 341.642 81.5217 348.072 81.5217 356.028V363.548C81.4128 371.504 73.3478 377.934 63.4301 377.934Z" fill="#703535"/>
<path d="M155.087 306.985C147.567 308.183 121.628 307.203 110.948 307.203C94.7087 307.203 48.7168 308.292 48.7168 308.292C42.7226 308.292 34.2218 299.574 30.4073 290.419C27.5737 283.662 25.5029 278.975 25.5029 261.429C25.5029 243.773 28.8815 231.894 29.5354 224.701C30.4073 214.129 32.696 211.622 44.0305 211.622C44.0305 211.622 87.9516 211.949 111.601 212.167C121.301 212.276 151.708 207.154 162.607 212.603C170.563 216.636 170.236 242.901 170.127 260.012C170.018 274.943 170.89 293.579 170.672 297.612C170.345 301.208 165.004 305.35 155.087 306.985Z" fill="#703F3F"/>
<path d="M140.7 298.702C119.775 298.266 81.7392 298.702 58.4163 298.266C47.9537 298.048 39.0169 290.855 37.0552 281.264C35.8563 275.161 34.4395 266.987 34.7665 255.761C34.9845 242.901 36.0743 235.708 38.9079 230.041C43.0494 222.085 50.6784 218.379 58.5253 217.616C81.5213 215.655 121.192 216.417 144.297 219.36C149.31 220.014 156.394 224.809 158.247 229.387C160.645 235.49 162.933 247.478 162.606 259.685C162.497 267.75 161.953 279.738 159.446 287.367C157.157 294.015 148.547 298.919 140.7 298.702Z" fill="#F7BBB2"/>
<path d="M100.049 272.763H88.8236C80.8676 272.763 74.4375 268.513 74.4375 263.281V254.453C74.4375 249.222 80.8676 244.972 88.8236 244.972H100.049C108.005 244.972 114.435 249.222 114.435 254.453V263.281C114.435 268.513 108.005 272.763 100.049 272.763Z" fill="#703535"/>
<path d="M292.19 305.241C292.19 305.241 264.726 307.202 256.661 307.202C237.697 307.202 197.7 307.747 179.608 307.42C173.614 307.311 163.26 303.824 163.26 298.375C163.26 298.375 166.312 279.52 165.767 255.87C165.331 238.651 157.811 218.379 168.165 213.366C176.012 209.551 219.061 212.494 235.191 212.494C250.776 212.494 297.53 205.628 304.724 211.077C312.353 216.854 312.244 223.72 310.718 254.236C309.41 281.046 312.679 290.964 309.41 299.247C308.32 302.516 301.999 305.241 292.19 305.241Z" fill="#703F3F"/>
<path d="M280.202 299.9C259.277 299.465 221.241 299.9 197.918 299.464C187.455 299.247 178.518 292.054 176.557 282.463C175.358 276.36 173.941 268.186 174.268 256.96C174.486 244.1 175.576 236.907 178.409 231.24C182.551 223.284 190.18 219.578 198.027 218.815C221.023 216.853 260.693 217.616 283.798 220.559C288.812 221.213 295.896 226.008 297.749 230.586C300.146 236.689 302.435 248.677 302.108 260.884C301.999 268.949 301.454 280.937 298.947 288.566C296.659 295.323 287.831 300.118 280.202 299.9Z" fill="#F7BBB2"/>
<path d="M241.73 272.763H230.504C222.548 272.763 216.118 268.513 216.118 263.281V254.453C216.118 249.222 222.548 244.972 230.504 244.972H241.73C249.686 244.972 256.116 249.222 256.116 254.453V263.281C256.116 268.513 249.686 272.763 241.73 272.763Z" fill="#703535"/>
<path d="M379.597 308.293C365.864 308.293 326.63 305.132 326.63 305.132C320.636 305.132 304.724 304.587 304.724 299.029C304.724 299.029 307.884 258.813 307.339 247.806C306.031 224.592 301.89 212.276 313.333 212.276C313.333 212.276 358.127 212.821 372.622 212.494C386.463 212.167 446.732 208.898 450.655 215.001C459.047 223.502 450.655 243.119 450.655 257.287C450.655 273.744 461.009 296.413 451.854 306.113C446.95 311.235 391.694 308.293 379.597 308.293Z" fill="#703F3F"/>
<path d="M422.101 299.901C401.176 299.465 363.14 299.901 339.817 299.465C329.355 299.247 320.418 292.054 318.456 282.463C317.257 276.36 315.84 268.186 316.167 256.961C316.385 244.101 317.475 236.908 320.309 231.24C324.45 223.284 332.079 219.579 339.926 218.816C362.922 216.854 402.593 217.617 425.698 220.56C430.711 221.214 437.795 226.009 439.648 230.586C442.046 236.69 444.334 248.678 444.007 260.884C443.898 268.949 443.353 280.938 440.847 288.567C438.449 295.324 429.839 300.119 422.101 299.901Z" fill="#F7BBB2"/>
<path d="M384.174 272.764H372.949C364.993 272.764 358.562 268.513 358.562 263.282V254.454C358.562 249.223 364.993 244.972 372.949 244.972H384.174C392.13 244.972 398.56 249.223 398.56 254.454V263.282C398.56 268.513 392.021 272.764 384.174 272.764Z" fill="#703535"/>
<path d="M577.514 308.075C577.514 308.075 506.346 308.292 482.152 308.401C476.157 308.401 450.655 308.401 448.148 302.189C445.859 296.413 448.366 272.327 449.238 258.704C450.982 230.695 442.154 223.393 449.238 214.892C454.251 208.789 506.019 212.494 522.04 212.494C537.625 212.494 583.508 211.295 589.829 213.693C598.766 217.072 597.676 223.502 596.15 253.909C594.843 280.719 600.728 293.361 597.458 301.535C596.368 305.132 587.105 308.075 577.514 308.075Z" fill="#703F3F"/>
<path d="M565.307 299.9C544.382 299.465 506.346 299.9 483.023 299.465C472.561 299.247 463.624 292.054 461.662 282.463C460.463 276.36 459.046 268.186 459.373 256.96C459.591 244.1 460.681 236.907 463.515 231.24C467.656 223.284 475.285 219.578 483.132 218.815C506.128 216.854 545.799 217.616 568.904 220.559C573.917 221.213 581.001 226.008 582.854 230.586C585.252 236.689 587.54 248.677 587.213 260.884C587.104 268.949 586.56 280.937 584.053 288.566C581.655 295.323 573.154 300.118 565.307 299.9Z" fill="#F7BBB2"/>
<path d="M528.688 272.763H517.463C509.507 272.763 503.077 268.513 503.077 263.281V254.453C503.077 249.222 509.507 244.972 517.463 244.972H528.688C536.644 244.972 543.074 249.222 543.074 254.453V263.281C543.074 268.513 536.644 272.763 528.688 272.763Z" fill="#703535"/>
<path d="M719.522 305.241L609.338 306.44C603.344 306.44 594.843 304.042 592.227 300.336C584.816 289.656 592.881 258.922 592.227 247.914C590.92 224.7 589.612 217.507 593.535 213.802C598.004 209.443 643.887 212.93 658.6 212.494C672.114 212.167 712.438 211.295 712.438 211.295C722.138 211.295 730.421 218.488 732.928 228.951C734.671 236.035 735.543 243.01 735.543 257.178C735.543 273.635 736.197 284.316 732.928 292.598C731.729 296.086 723.337 305.241 719.522 305.241Z" fill="#703F3F"/>
<path d="M707.425 299.9C686.5 299.464 648.464 299.9 625.141 299.464C614.678 299.246 605.742 292.053 603.78 282.463C602.581 276.359 601.164 268.186 601.491 256.96C601.709 244.1 602.799 236.907 605.633 231.239C609.774 223.284 617.403 219.578 625.25 218.815C648.246 216.853 687.917 217.616 711.022 220.559C716.035 221.213 723.119 226.008 724.972 230.586C727.369 236.689 729.658 248.677 729.331 260.884C729.222 268.948 728.677 280.937 726.17 288.566C723.664 295.323 715.054 300.118 707.425 299.9Z" fill="#F7BBB2"/>
<path d="M667.536 272.763H656.311C648.355 272.763 641.925 268.512 641.925 263.281V254.453C641.925 249.222 648.355 244.972 656.311 244.972H667.536C675.492 244.972 681.923 249.222 681.923 254.453V263.281C681.923 268.512 675.383 272.763 667.536 272.763Z" fill="#703535"/>
<path d="M133.29 214.129C120.32 214.456 95.1446 215.328 82.2843 215.219C67.8983 215.11 26.0478 216.418 26.0478 216.418C20.1626 216.418 11.5527 215.001 11.0078 206.065C11.0078 206.065 11.3348 191.787 11.3348 177.183C11.3348 162.579 9.91796 149.174 13.9504 143.943C17.7649 139.038 22.5603 136.968 33.8948 136.968C33.8948 136.968 102.556 136.859 125.443 136.859C134.924 136.859 153.561 134.025 154.869 140.128C155.523 143.289 151.708 163.015 151.599 177.183C151.49 189.608 156.068 205.52 152.907 211.187C149.964 217.072 137.213 214.02 133.29 214.129Z" fill="#703F3F"/>
<path d="M122.828 208.026C102.12 207.699 64.4113 208.026 41.3064 207.699C30.8438 207.481 22.0159 201.705 20.0542 193.64C18.8554 188.736 17.4386 181.87 17.7655 172.715C17.9835 162.034 19.0733 156.258 21.907 151.572C26.0484 145.032 33.4594 141.872 41.3064 141.327C64.0844 139.692 103.428 140.455 126.206 142.744C131.219 143.289 138.194 147.212 139.938 150.918C142.336 155.931 144.516 165.849 144.298 175.766C144.189 182.305 143.644 192.223 141.246 198.435C138.957 204.212 130.457 208.135 122.828 208.026Z" fill="#F7BBB2"/>
<path d="M82.6115 189.063H73.2387C64.3019 189.063 57.1089 184.377 57.1089 178.709V171.08C57.1089 165.413 64.4109 160.727 73.2387 160.727H82.6115C91.5483 160.727 98.7413 165.413 98.7413 171.08V178.6C98.8503 184.486 91.5483 189.063 82.6115 189.063Z" fill="#703535"/>
<path d="M273.554 215.437C273.554 215.437 234.755 215.11 222.876 215.11C208.054 215.11 175.467 216.2 175.467 216.2C169.582 216.2 153.997 217.181 150.728 210.969C146.804 203.34 150.619 184.376 150.619 175.331C150.619 152.008 147.567 143.398 152.798 138.494C157.267 134.243 201.842 138.058 217.754 138.058C233.23 138.058 266.47 138.494 282.818 138.603C292.3 138.603 292.736 147.212 291.319 172.606C290.011 194.948 295.787 203.013 292.518 209.988C291.319 212.713 283.036 215.437 273.554 215.437Z" fill="#703F3F"/>
<path d="M260.803 208.898C240.096 208.571 202.387 208.898 179.282 208.571C168.819 208.353 159.992 202.577 158.03 194.512C156.831 189.608 155.414 182.742 155.741 173.587C155.959 162.906 157.049 157.13 159.883 152.444C164.024 145.904 171.435 142.744 179.282 142.199C202.06 140.564 241.404 141.327 264.182 143.616C269.195 144.161 276.17 148.084 277.914 151.79C280.312 156.803 282.491 166.721 282.273 176.638C282.164 183.178 281.619 193.095 279.222 199.307C276.933 205.084 268.541 209.116 260.803 208.898Z" fill="#F7BBB2"/>
<path d="M221.023 189.063H211.65C202.714 189.063 195.521 184.377 195.521 178.709V171.08C195.521 165.413 202.823 160.727 211.65 160.727H221.023C229.96 160.727 237.153 165.413 237.153 171.08V178.6C237.262 184.485 229.96 189.063 221.023 189.063Z" fill="#703535"/>
<path d="M420.684 214.565C417.742 215.001 357.582 215.219 354.639 215.219L306.686 215.11C300.8 215.11 285.106 214.565 285.106 210.097C285.106 210.097 288.158 176.638 287.722 167.484C286.414 148.193 280.311 138.493 291.537 138.493C291.537 138.493 355.402 135.333 369.461 135.224C383.084 135.006 425.48 135.006 429.294 140.019C433.872 146.122 429.294 163.451 429.294 175.221C429.294 188.845 432.128 197.999 429.948 210.424C429.403 212.277 425.589 213.911 420.684 214.565Z" fill="#703F3F"/>
<path d="M401.394 208.898C380.687 208.571 342.978 208.898 319.873 208.571C309.41 208.353 300.582 202.577 298.621 194.512C297.422 189.608 296.005 182.742 296.332 173.587C296.55 162.906 297.64 157.13 300.473 152.444C304.615 145.905 312.026 142.744 319.873 142.199C342.651 140.564 381.995 141.327 404.772 143.616C409.786 144.161 416.761 148.084 418.505 151.79C420.902 156.803 423.082 166.721 422.864 176.639C422.755 183.178 422.21 193.095 419.813 199.308C417.524 205.084 409.023 209.116 401.394 208.898Z" fill="#F7BBB2"/>
<path d="M365.974 189.063H356.601C347.664 189.063 340.471 184.376 340.471 178.709V171.08C340.471 165.413 347.773 160.726 356.601 160.726H365.974C374.911 160.726 382.104 165.413 382.104 171.08V178.6C382.213 184.485 374.911 189.063 365.974 189.063Z" fill="#703535"/>
<path d="M554.736 215.11C554.736 215.11 511.578 214.783 497.083 214.674C484.877 214.565 448.366 214.238 448.366 214.238C442.481 214.238 428.749 214.892 426.242 209.879C423.954 205.192 427.441 187.864 428.204 176.638C429.839 153.315 422.646 145.25 429.73 138.275C434.743 133.262 490.108 137.185 506.02 137.185C521.496 137.185 558.333 134.352 564.654 136.314C573.482 139.147 575.226 147.321 573.809 172.606C572.501 194.948 577.296 202.904 574.136 209.988C572.719 212.712 564.218 215.11 554.736 215.11Z" fill="#703F3F"/>
<path d="M543.184 208.898C522.477 208.571 484.768 208.898 461.663 208.571C451.2 208.353 442.372 202.577 440.411 194.512C439.212 189.608 437.795 182.742 438.122 173.587C438.34 162.906 439.43 157.13 442.263 152.444C446.405 145.905 453.816 142.744 461.663 142.199C484.441 140.564 523.785 141.327 546.563 143.616C551.576 144.161 558.551 148.084 560.295 151.79C562.692 156.803 564.872 166.721 564.654 176.639C564.545 183.178 564 193.095 561.603 199.308C559.314 205.084 550.813 209.116 543.184 208.898Z" fill="#F7BBB2"/>
<path d="M506.565 189.063H497.192C488.255 189.063 481.062 184.376 481.062 178.709V171.08C481.062 165.413 488.364 160.726 497.192 160.726H506.565C515.501 160.726 522.694 165.413 522.694 171.08V178.6C522.803 184.485 515.501 189.063 506.565 189.063Z" fill="#703535"/>
<path d="M695.655 215.11H588.849C582.964 215.11 572.392 216.091 569.777 213.04C562.475 204.212 570.322 176.638 569.668 167.484C568.36 148.193 567.052 142.199 570.976 139.038C575.444 135.442 620.891 138.275 635.386 137.949C648.791 137.731 688.789 136.968 688.789 136.968C693.366 136.968 700.232 137.731 704.047 139.583C712.548 143.725 710.368 163.233 710.368 175.004C710.368 188.627 712.984 200.615 709.823 207.699C708.624 210.533 699.687 215.11 695.655 215.11Z" fill="#703F3F"/>
<path d="M683.776 208.898C663.069 208.571 625.36 208.898 602.255 208.571C591.792 208.353 582.964 202.577 581.002 194.512C579.804 189.608 578.387 182.742 578.714 173.587C578.932 162.907 580.022 157.13 582.855 152.444C586.997 145.905 594.408 142.744 602.255 142.199C625.033 140.564 664.376 141.327 687.154 143.616C692.168 144.161 699.143 148.084 700.886 151.79C703.284 156.803 705.464 166.721 705.246 176.639C705.137 183.178 704.592 193.095 702.194 199.308C699.797 205.084 691.296 209.116 683.776 208.898Z" fill="#F7BBB2"/>
<path d="M649.336 189.063H639.963C631.027 189.063 623.833 184.376 623.833 178.709V171.08C623.833 165.413 631.136 160.726 639.963 160.726H649.336C658.273 160.726 665.466 165.413 665.466 171.08V178.6C665.575 184.485 658.273 189.063 649.336 189.063Z" fill="#703535"/>
<path d="M201.623 139.038H46.3188C41.6325 139.038 37.709 135.986 37.709 132.063V86.8337C37.709 83.0192 41.5235 79.8586 46.3188 79.8586H204.239C207.508 79.8586 210.233 81.9294 210.233 84.654L210.451 133.48C210.342 137.512 206.31 139.038 201.623 139.038Z" fill="#703F3F"/>
<path d="M195.847 134.134H52.0952C46.9729 134.134 42.9404 130.755 42.9404 126.723V91.1935C42.9404 87.052 47.1909 83.7825 52.0952 83.7825H195.847C200.969 83.7825 205.002 87.161 205.002 91.1935V126.614C205.002 130.755 200.969 134.134 195.847 134.134Z" fill="#F7BBB2"/>
<path d="M123.699 120.292H109.858C101.684 120.292 95.1445 117.568 95.1445 112.772V109.503C95.1445 104.707 101.684 101.983 109.858 101.983H123.699C131.873 101.983 138.412 104.707 138.412 109.503V112.772C138.412 117.568 131.873 120.292 123.699 120.292Z" fill="#703535"/>
<path d="M365.646 139.692C365.646 139.692 306.467 140.128 301.345 140.237C268.758 140.455 212.522 139.91 212.522 139.91C208.053 139.91 204.893 135.987 204.893 132.39C204.893 132.39 207.181 114.952 207.181 109.176C207.181 103.618 206.527 85.4172 206.527 85.4172C206.527 81.8207 210.778 80.5129 215.355 80.5129H366.627C369.788 80.5129 372.294 82.4746 372.294 84.9813L372.185 129.992C371.749 133.589 370.115 139.692 365.646 139.692Z" fill="#703F3F"/>
<path d="M358.235 134.134H220.804C215.9 134.134 211.977 130.864 211.977 127.05V93.0462C211.977 89.1227 216.009 85.9621 220.804 85.9621H358.235C363.139 85.9621 367.063 89.2317 367.063 93.0462V126.941C367.063 130.973 363.03 134.134 358.235 134.134Z" fill="#F7BBB2"/>
<path d="M294.37 120.293H280.528C272.355 120.293 265.815 117.568 265.815 112.773V109.503C265.815 104.708 272.355 101.983 280.528 101.983H294.37C302.544 101.983 309.083 104.708 309.083 109.503V112.773C309.192 117.568 302.544 120.293 294.37 120.293Z" fill="#703535"/>
<path d="M526.727 140.237C526.727 140.237 474.523 140.673 451.745 141C418.505 141.436 380.687 137.948 373.276 137.948C368.807 137.948 368.589 133.153 368.589 129.556C368.589 129.556 370.333 113.427 370.333 107.432C370.333 102.855 370.333 88.9048 370.333 88.9048C370.333 85.3083 371.423 80.5129 376 80.5129H529.67C534.138 80.5129 535.991 83.2375 535.991 86.834C535.991 86.834 535.337 103.618 535.337 109.176C535.337 114.843 536.754 136.313 536.754 136.313C536.536 139.801 531.087 140.237 526.727 140.237Z" fill="#703F3F"/>
<path d="M521.387 134.134H383.956C379.052 134.134 375.128 130.864 375.128 127.05V93.0462C375.128 89.1227 379.161 85.9621 383.956 85.9621H521.387C526.291 85.9621 530.215 89.2317 530.215 93.0462V126.941C530.215 130.973 526.291 134.134 521.387 134.134Z" fill="#F7BBB2"/>
<path d="M456.432 120.293H442.59C434.417 120.293 427.877 117.568 427.877 112.773V109.503C427.877 104.708 434.417 101.983 442.59 101.983H456.432C464.606 101.983 471.145 104.708 471.145 109.503V112.773C471.145 117.568 464.606 120.293 456.432 120.293Z" fill="#703535"/>
<path d="M691.295 140.455C691.295 140.455 633.969 138.493 614.679 138.493C596.696 138.493 542.421 140.673 542.421 140.673C537.953 140.673 531.959 139.256 532.395 135.769C533.157 129.229 534.574 113.862 534.465 108.195C534.356 102.964 533.157 86.2891 533.157 86.2891C533.157 82.6926 535.664 80.5129 540.133 80.5129H691.404C695.873 80.5129 700.777 85.4172 700.777 88.9048L700.559 133.807C700.559 137.512 695.655 140.455 691.295 140.455Z" fill="#703F3F"/>
<path d="M685.846 134.134H548.415C543.511 134.134 539.587 130.864 539.587 127.05V93.0462C539.587 89.1227 543.62 85.9621 548.415 85.9621H685.846C690.75 85.9621 694.674 89.2317 694.674 93.0462V126.941C694.674 130.973 690.641 134.134 685.846 134.134Z" fill="#F7BBB2"/>
<path d="M625.032 120.293H611.191C603.017 120.293 596.478 117.568 596.478 112.773V109.503C596.478 104.708 603.017 101.983 611.191 101.983H625.032C633.206 101.983 639.745 104.708 639.745 109.503V112.773C639.745 117.568 633.206 120.293 625.032 120.293Z" fill="#703535"/>
<path d="M173.396 40.7331C173.396 40.7331 126.096 40.1882 109.749 40.0792C94.2726 39.9702 47.7358 39.5342 47.7358 39.5342C43.9213 39.5342 40.7607 37.5725 40.7607 34.9568V5.42178C40.7607 2.91511 43.8123 0.844391 47.7358 0.844391H174.922C178.736 0.844391 181.897 2.80613 181.897 5.42178C181.897 5.42178 182.769 18.718 182.769 23.1864C182.769 26.129 182.987 31.3603 182.987 34.3029C182.987 35.5018 183.532 37.3545 181.897 38.4444C180.262 39.6432 175.358 40.7331 173.396 40.7331Z" fill="#703F3F"/>
<path d="M170.344 37.027H52.64C48.4986 37.027 45.229 34.7383 45.229 32.2316V8.36381C45.229 5.63917 48.6076 3.56845 52.64 3.56845H170.453C174.595 3.56845 177.864 5.85714 177.864 8.36381V32.1227C177.755 34.7383 174.377 37.027 170.344 37.027Z" fill="#F7BBB2"/>
<path d="M124.898 26.5646H96.6705C92.2021 26.5646 88.4966 24.0579 88.4966 20.8973V19.2625C88.4966 16.102 92.3111 13.5953 96.6705 13.5953H124.789C129.257 13.5953 132.963 16.102 132.963 19.2625V20.8973C132.963 24.0579 129.148 26.5646 124.898 26.5646Z" fill="#703535"/>
<path d="M315.731 40.7328C300.255 40.7328 269.63 40.0789 254.154 40.0789C237.807 40.0789 188.436 39.534 188.436 39.534C184.622 39.534 182.551 39.534 181.025 37.3543C179.608 35.1746 180.807 27.9815 180.807 23.4041C180.807 14.7943 181.352 5.53051 181.352 5.53051C181.352 3.02385 184.404 0.953125 188.327 0.953125H315.513C319.328 0.953125 322.488 2.91486 322.488 5.53051C322.488 5.53051 322.597 20.8975 322.597 28.3085C322.597 29.5073 323.469 35.8285 322.052 38.4441C321.398 39.643 317.693 40.7328 315.731 40.7328Z" fill="#703F3F"/>
<path d="M310.936 37.0273H193.122C188.981 37.0273 185.711 34.7386 185.711 32.232V8.36414C185.711 5.6395 189.09 3.56879 193.122 3.56879H310.936C315.077 3.56879 318.347 5.85748 318.347 8.36414V32.123C318.347 34.7386 314.968 37.0273 310.936 37.0273Z" fill="#F7BBB2"/>
<path d="M266.143 26.5649H238.024C233.556 26.5649 229.851 24.0582 229.851 20.8977V19.2629C229.851 16.1023 233.665 13.5956 238.024 13.5956H266.143C270.611 13.5956 274.317 16.1023 274.317 19.2629V20.8977C274.317 24.0582 270.611 26.5649 266.143 26.5649Z" fill="#703535"/>
<path d="M455.886 39.4249C455.886 39.4249 408.369 39.9698 392.566 39.9698C376.545 39.9698 328.591 39.4249 328.591 39.4249C324.777 39.4249 322.706 39.4249 321.18 37.2452C319.764 35.0655 320.962 27.8724 320.962 23.295C320.962 14.6852 321.507 5.42141 321.507 5.42141C321.507 2.91475 324.559 0.844025 328.482 0.844025H455.669C459.483 0.844025 462.644 2.80576 462.644 5.42141V35.0655C462.862 37.4632 459.701 39.4249 455.886 39.4249Z" fill="#703F3F"/>
<path d="M451.2 37.0271H333.387C329.245 37.0271 325.976 34.7384 325.976 32.2318V8.36393C325.976 5.63929 329.354 3.56857 333.387 3.56857H451.2C455.341 3.56857 458.611 5.85726 458.611 8.36393V32.1228C458.611 34.7384 455.232 37.0271 451.2 37.0271Z" fill="#F7BBB2"/>
<path d="M406.407 26.5647H378.289C373.82 26.5647 370.115 24.058 370.115 20.8975V19.2627C370.115 16.1021 373.929 13.5954 378.289 13.5954H406.407C410.875 13.5954 414.581 16.1021 414.581 19.2627V20.8975C414.581 24.058 410.875 26.5647 406.407 26.5647Z" fill="#703535"/>
<path d="M596.478 39.4249L470.927 40.0788C467.112 40.0788 462.317 40.2968 460.791 38.0081C459.374 35.8284 461.663 27.8724 461.663 23.295C461.663 14.6852 462.208 5.42141 462.208 5.42141C462.208 2.91475 465.259 0.844025 469.183 0.844025H596.369C600.183 0.844025 603.344 2.80576 603.344 5.42141C603.344 5.42141 604.434 14.5762 604.434 23.0771C604.434 27.7634 604.652 33.3217 603.998 36.0463C603.453 38.444 600.292 39.4249 596.478 39.4249Z" fill="#703F3F"/>
<path d="M591.791 37.0271H473.978C469.836 37.0271 466.567 34.7384 466.567 32.2318V8.36393C466.567 5.63929 469.945 3.56857 473.978 3.56857H591.791C595.933 3.56857 599.202 5.85726 599.202 8.36393V32.1228C599.202 34.7384 595.824 37.0271 591.791 37.0271Z" fill="#F7BBB2"/>
<path d="M546.998 26.5647H518.88C514.412 26.5647 510.706 24.058 510.706 20.8975V19.2627C510.706 16.1021 514.521 13.5954 518.88 13.5954H546.998C551.467 13.5954 555.172 16.1021 555.172 19.2627V20.8975C555.172 24.058 551.467 26.5647 546.998 26.5647Z" fill="#703535"/>
<path d="M737.069 39.4249L610.537 40.0788C606.722 40.0788 603.78 40.2968 602.363 38.0081C600.946 35.8284 602.254 27.8724 602.254 23.295C602.254 14.6852 602.799 5.42141 602.799 5.42141C602.799 2.91475 605.85 0.844025 609.774 0.844025H736.96C740.774 0.844025 743.935 2.80576 743.935 5.42141V35.0655C744.044 37.4632 740.883 39.4249 737.069 39.4249Z" fill="#703F3F"/>
<path d="M732.383 37.0271H614.569C610.428 37.0271 607.158 34.7384 607.158 32.2318V8.36393C607.158 5.63929 610.537 3.56857 614.569 3.56857H732.383C736.524 3.56857 739.794 5.85726 739.794 8.36393V32.1228C739.794 34.7384 736.415 37.0271 732.383 37.0271Z" fill="#F7BBB2"/>
<path d="M687.59 26.5647H659.471C655.003 26.5647 651.297 24.058 651.297 20.8975V19.2627C651.297 16.1021 655.112 13.5954 659.471 13.5954H687.59C692.058 13.5954 695.764 16.1021 695.764 19.2627V20.8975C695.764 24.058 692.058 26.5647 687.59 26.5647Z" fill="#703535"/>
<path d="M145.931 80.7307C135.142 80.7307 113.453 80.7307 94.272 80.7307C56.781 80.7307 15.0395 80.7307 15.0395 80.7307C11.225 80.7307 8.06445 78.551 8.06445 75.8264V44.0026C8.06445 41.278 11.116 39.0982 15.0395 39.0982C15.0395 39.0982 56.781 38.4443 70.6221 38.3353C88.4958 38.2264 139.61 38.0084 139.61 38.0084C141.463 38.0084 146.803 38.1174 148.111 38.8803C149.528 39.7522 150.182 42.4768 150.182 43.8936C150.182 43.8936 150.617 52.1765 150.291 61.3313C150.182 66.5626 150.726 73.2107 150.617 76.1533C150.509 78.769 149.855 80.7307 145.931 80.7307Z" fill="#703F3F"/>
<path d="M137.649 78.116H19.9442C15.8028 78.116 12.5332 75.7183 12.5332 72.8847V47.0552C12.5332 44.1125 15.9118 41.8239 19.9442 41.8239H137.758C141.899 41.8239 145.169 44.2215 145.169 47.0552V72.7757C145.06 75.7183 141.681 78.116 137.649 78.116Z" fill="#F7BBB2"/>
<path d="M92.201 66.8907H63.9737C59.5053 66.8907 55.7998 64.1661 55.7998 60.7875V59.0438C55.7998 55.6652 59.6143 52.9406 63.9737 52.9406H92.092C96.5604 52.9406 100.266 55.6652 100.266 59.0438V60.7875C100.266 64.1661 96.4514 66.8907 92.201 66.8907Z" fill="#703535"/>
<path d="M283.362 83.0191C267.123 83.2371 234.318 82.2562 218.08 82.2562C201.95 82.2562 153.233 81.0574 153.233 81.0574C149.419 81.0574 148.111 79.9675 148.002 77.1339C148.002 74.1913 148.002 68.742 147.784 63.4017C147.566 54.4649 147.784 48.7977 147.784 43.8933C147.784 42.4765 148.22 39.7519 149.746 38.88C150.944 38.1171 155.958 38.2261 157.811 38.2261C173.94 38.1171 204.347 38.0081 219.278 38.0081C236.062 38.0081 267.559 38.0081 283.471 38.2261C285.542 38.2261 288.702 37.8991 290.01 38.88C291.1 39.7519 290.882 43.2394 290.882 44.5472C290.882 48.7977 290.555 54.4649 290.555 60.7861C290.555 66.4533 291.972 75.8261 291.972 79.6406C292.081 82.1472 287.285 82.9101 283.362 83.0191Z" fill="#703F3F"/>
<path d="M278.239 78.1147H160.426C156.285 78.1147 153.015 75.7171 153.015 72.8834V47.0539C153.015 44.1113 156.394 41.8226 160.426 41.8226H278.239C282.381 41.8226 285.651 44.2202 285.651 47.0539V72.7745C285.651 75.7171 282.272 78.1147 278.239 78.1147Z" fill="#F7BBB2"/>
<path d="M233.446 66.8894H205.328C200.86 66.8894 197.154 64.1648 197.154 60.7863V59.0425C197.154 55.6639 200.969 52.9393 205.328 52.9393H233.446C237.915 52.9393 241.62 55.6639 241.62 59.0425V60.7863C241.62 64.1648 237.915 66.8894 233.446 66.8894Z" fill="#703535"/>
<path d="M565.961 83.0191C549.722 83.2371 516.918 82.2562 500.679 82.2562C484.549 82.2562 435.723 83.1281 435.723 83.1281C431.909 83.1281 429.62 79.7495 429.511 76.9159C429.511 73.9733 430.601 68.742 430.383 63.4017C430.165 54.4649 430.383 48.7977 430.383 43.8933C430.383 42.4765 430.819 39.7519 432.345 38.88C433.544 38.1171 438.557 38.2261 440.41 38.2261C456.54 38.1171 486.947 38.0081 501.878 38.0081C518.661 38.0081 550.158 38.0081 566.07 38.2261C568.141 38.2261 572.391 37.5721 573.699 38.553C574.789 39.4249 574.898 42.9124 574.898 44.2203C574.898 48.4707 574.571 54.1379 574.571 60.4591C574.571 66.1263 574.68 75.8261 574.68 79.5316C574.68 82.1472 569.885 82.9101 565.961 83.0191Z" fill="#703F3F"/>
<path d="M560.838 78.1147H443.134C438.993 78.1147 435.723 75.7171 435.723 72.8834V47.0539C435.723 44.1113 439.102 41.8226 443.134 41.8226H560.948C565.089 41.8226 568.359 44.2202 568.359 47.0539V72.7745C568.359 75.7171 564.98 78.1147 560.838 78.1147Z" fill="#F7BBB2"/>
<path d="M516.154 66.8894H488.036C483.568 66.8894 479.862 64.1648 479.862 60.7863V59.0425C479.862 55.6639 483.677 52.9393 488.036 52.9393H516.154C520.623 52.9393 524.328 55.6639 524.328 59.0425V60.7863C524.219 64.1648 520.514 66.8894 516.154 66.8894Z" fill="#703535"/>
<path d="M708.078 83.0191C691.839 83.2371 659.035 82.2562 642.796 82.2562C626.666 82.2562 577.514 83.1281 577.514 83.1281C573.699 83.1281 572.391 82.0382 572.282 79.2046C572.282 76.262 572.718 68.742 572.609 63.4017C572.391 54.4649 572.609 48.7977 572.609 43.8933C572.609 42.4765 573.045 39.7519 574.571 38.88C575.77 38.1171 580.783 38.2261 582.636 38.2261C598.766 38.1171 629.173 38.0081 644.104 38.0081C660.887 38.0081 692.384 38.0081 708.296 38.2261C710.367 38.2261 713.527 37.8991 714.835 38.88C715.925 39.7519 717.342 43.5663 717.342 44.8742C717.342 49.1246 717.015 54.7919 717.015 61.113C717.015 66.7803 718.105 75.3901 716.797 79.5316C716.034 82.0382 711.893 82.9101 708.078 83.0191Z" fill="#703F3F"/>
<path d="M702.956 78.1147H585.143C581.001 78.1147 577.731 75.7171 577.731 72.8834V47.0539C577.731 44.1113 581.11 41.8226 585.143 41.8226H702.956C707.097 41.8226 710.367 44.2202 710.367 47.0539V72.7745C710.367 75.7171 706.988 78.1147 702.956 78.1147Z" fill="#F7BBB2"/>
<path d="M658.163 66.8894H630.045C625.576 66.8894 621.871 64.1648 621.871 60.7863V59.0425C621.871 55.6639 625.685 52.9393 630.045 52.9393H658.163C662.631 52.9393 666.337 55.6639 666.337 59.0425V60.7863C666.337 64.1648 662.631 66.8894 658.163 66.8894Z" fill="#703535"/>
<path d="M427.55 83.3461C416.76 83.3461 394.636 82.8012 375.455 82.8012C337.964 82.8012 295.895 82.2562 295.895 82.2562C292.081 82.2562 288.484 79.2046 288.484 76.48C288.484 76.48 289.138 51.3044 289.356 43.1304C289.356 41.8226 289.901 39.8609 291.209 38.989C292.517 38.1171 298.184 38.662 300.255 38.662C314.096 38.5531 338.836 38.4441 352.568 38.3351C370.441 38.2261 421.556 38.0081 421.556 38.0081C423.408 38.0081 429.73 37.4632 430.928 38.3351C432.345 39.207 432.999 42.5855 432.999 44.1113C433.108 48.4707 433.217 52.6122 432.999 61.767C432.89 66.9983 432.672 73.4284 432.563 76.262C432.454 78.7687 431.473 83.3461 427.55 83.3461Z" fill="#703F3F"/>
<path d="M419.485 78.1146H301.781C297.639 78.1146 294.37 75.7169 294.37 72.8832V47.0537C294.37 44.1111 297.748 41.8224 301.781 41.8224H419.594C423.735 41.8224 427.005 44.2201 427.005 47.0537V72.7743C426.896 75.7169 423.517 78.1146 419.485 78.1146Z" fill="#F7BBB2"/>
<path d="M374.038 66.8893H345.811C341.342 66.8893 337.637 64.1646 337.637 60.7861V59.0423C337.637 55.6638 341.451 52.9391 345.811 52.9391H373.929C378.397 52.9391 382.103 55.6638 382.103 59.0423V60.7861C382.103 64.1646 378.288 66.8893 374.038 66.8893Z" fill="#703535"/>
<g filter="url(#filter0_ii)">
<path d="M1.21712e-05 405.527C1.21712e-05 405.509 -3.89797e-05 405.491 6.21375e-05 405.473C0.00316531 404.921 0.151561 396 6.5 396C9.99433 396 13.5 405.5 23 405.5C44.9487 405.5 78.2451 405.5 103 405.5C106.688 405.5 111.187 401.931 115.074 397.929C119.879 392.98 128.335 392.819 133.245 397.662C137.412 401.771 142.231 405.5 146 405.5C176.266 405.5 193.234 405.5 223.5 405.5C229.012 405.5 235.842 400.994 240.889 396.921C245.061 393.555 251.173 393.304 255.517 396.444C261.31 400.634 269.272 405.5 275 405.5C304.094 405.5 320.406 405.5 349.5 405.5C355.321 405.5 362.994 400.664 368.54 396.484C372.751 393.31 378.749 393.31 382.96 396.484C388.506 400.664 396.179 405.5 402 405.5C431.289 405.5 447.711 405.5 477 405.5C481.677 405.5 487.585 402.191 492.537 398.682C497.869 394.903 505.954 396.032 511.226 399.894C515.354 402.916 520.945 405.5 528 405.5C556.704 405.5 572.797 405.5 601.5 405.5C606.655 405.5 613.367 401.146 618.462 397.129C622.814 393.699 629.187 393.699 633.538 397.129C638.633 401.146 645.345 405.5 650.5 405.5C680.18 405.5 696.82 405.5 726.5 405.5C729.336 405.5 731.837 404.662 734.003 403.382C740.544 399.518 750.907 397.696 752.882 405.032C752.924 405.189 752.964 405.345 753 405.5C753.374 407.094 753.524 408.989 753.551 410.861C753.621 415.833 749.309 419.5 744.336 419.5H10C4.47717 419.5 1.21712e-05 415.023 1.21712e-05 409.5V405.527Z" fill="#532222"/>
</g>
<defs>
<filter id="filter0_ii" x="0" y="394.103" width="753.551" height="25.3966" filterUnits="userSpaceOnUse" color-interpolation-filters="sRGB">
<feFlood flood-opacity="0" result="BackgroundImageFix"/>
<feBlend mode="normal" in="SourceGraphic" in2="BackgroundImageFix" result="shape"/>
<feColorMatrix in="SourceAlpha" type="matrix" values="0 0 0 0 0 0 0 0 0 0 0 0 0 0 0 0 0 0 127 0" result="hardAlpha"/>
<feOffset dy="4"/>
<feComposite in2="hardAlpha" operator="arithmetic" k2="-1" k3="1"/>
<feColorMatrix type="matrix" values="0 0 0 0 1 0 0 0 0 1 0 0 0 0 1 0 0 0 0.25 0"/>
<feBlend mode="normal" in2="shape" result="effect1_innerShadow"/>
<feColorMatrix in="SourceAlpha" type="matrix" values="0 0 0 0 0 0 0 0 0 0 0 0 0 0 0 0 0 0 127 0" result="hardAlpha"/>
<feOffset dy="-4"/>
<feComposite in2="hardAlpha" operator="arithmetic" k2="-1" k3="1"/>
<feColorMatrix type="matrix" values="0 0 0 0 0 0 0 0 0 0 0 0 0 0 0 0 0 0 0.25 0"/>
<feBlend mode="normal" in2="effect1_innerShadow" result="effect2_innerShadow"/>
</filter>
</defs>
</svg>
