<svg width="760" height="456" viewBox="0 0 760 456" fill="none" xmlns="http://www.w3.org/2000/svg">
<path d="M110.947 446.416H15.6073C10.2918 446.416 2.48824 437.479 2.48824 431.257C2.48824 431.257 0.678711 416.776 0.678711 397.204C0.678711 377.632 1.92276 372.881 2.48824 364.848C3.2799 353.196 10.6311 343.58 20.8097 343.58C20.8097 343.58 77.2442 343.014 98.0537 343.24C106.536 343.354 125.197 341.43 126.441 349.463C127.006 353.762 125.762 378.198 125.649 397.204C125.536 413.721 124.97 436.574 123.613 440.76C122.822 444.832 114.339 446.416 110.947 446.416Z" fill="#703F3F"/>
<path d="M100.202 440.533C81.6546 440.081 48.1784 440.533 27.482 440.081C18.2082 439.855 10.2915 431.935 8.5951 421.075C7.46415 414.4 6.3332 405.123 6.55939 392.792C6.78558 378.537 7.80344 370.505 10.2915 364.283C14.0237 355.459 20.4701 351.16 27.7082 350.481C47.9522 348.444 83.1249 349.123 103.256 352.404C107.78 353.196 113.887 358.4 115.583 363.378C117.619 370.166 119.768 383.628 119.428 396.978C119.315 405.915 118.863 419.265 116.714 427.75C114.565 435.442 106.988 440.76 100.202 440.533Z" fill="#F7BBB2"/>
<path d="M234.56 447.887H139.333C134.018 447.887 122.256 447.208 122.256 441.099C122.256 441.099 122.256 396.412 122.256 384.194C122.256 353.196 121.012 341.996 131.191 341.996C131.191 341.996 165.345 341.204 179.708 341.204C193.506 341.204 241.006 337.923 248.47 344.824C253.786 349.915 252.316 357.042 250.958 390.756C249.714 420.509 252.768 431.596 249.714 440.76C248.81 444.945 243.155 447.887 234.56 447.887Z" fill="#703F3F"/>
<path d="M223.137 441.891C204.589 441.438 171.113 441.891 150.417 441.438C141.143 441.212 133.226 433.293 131.53 422.432C130.399 415.758 129.268 406.481 129.494 394.15C129.72 379.895 130.738 371.863 133.226 365.64C136.958 356.816 143.405 352.517 150.643 351.838C170.887 349.802 206.059 350.481 226.19 353.762C230.714 354.554 236.821 359.758 238.518 364.735C240.553 371.523 242.702 384.986 242.363 398.335C242.25 407.273 241.798 420.622 239.649 429.107C237.726 436.687 229.923 442.117 223.137 441.891Z" fill="#F7BBB2"/>
<path d="M362.923 446.869C360.322 447.547 357.607 447.774 355.006 447.774H263.851C258.536 447.774 244.512 447.095 244.512 440.986C244.512 440.986 247.226 396.299 246.774 384.081C245.53 358.4 241.798 344.598 252.09 344.598C252.09 344.598 290.542 341.996 303.209 341.657C315.31 341.317 369.596 340.752 373.101 347.653C380.566 357.156 373.101 378.764 373.101 394.489C373.101 412.703 373.554 432.388 371.857 442.343C371.744 444.945 367.334 446.077 362.923 446.869Z" fill="#703F3F"/>
<path d="M348.446 441.891C329.899 441.438 296.423 441.891 275.726 441.438C266.452 441.212 258.536 433.293 256.839 422.432C255.708 415.758 254.577 406.481 254.804 394.15C255.03 379.895 256.048 371.863 258.536 365.64C262.268 356.816 268.714 352.517 275.952 351.838C296.196 349.802 331.369 350.481 351.5 353.762C356.024 354.554 362.131 359.758 363.827 364.735C365.863 371.523 368.012 384.986 367.673 398.335C367.559 407.273 367.107 420.622 364.958 429.107C362.696 436.687 355.232 442.117 348.446 441.891Z" fill="#F7BBB2"/>
<path d="M485.405 447.774H390.179C384.863 447.774 373.102 449.131 370.84 442.343C368.804 436.008 371.292 411.345 372.084 396.412C373.554 365.414 365.75 357.156 372.084 347.653C376.607 340.865 422.072 345.051 436.322 345.051C450.119 345.051 490.494 343.693 496.262 346.408C504.179 350.255 503.048 357.156 501.917 391.095C500.673 420.849 503.726 431.935 500.673 441.099C499.768 444.832 494 447.774 485.405 447.774Z" fill="#703F3F"/>
<path d="M474.774 441.891C456.226 441.438 422.75 441.891 402.054 441.438C392.78 441.212 384.863 433.293 383.167 422.432C382.036 415.758 380.905 406.481 381.131 394.15C381.357 379.895 382.375 371.863 384.863 365.64C388.595 356.816 395.042 352.517 402.28 351.838C422.524 349.802 457.697 350.481 477.828 353.762C482.351 354.554 488.459 359.758 490.155 364.735C492.191 371.523 494.339 384.986 494 398.335C493.887 407.273 493.435 420.622 491.286 429.107C489.137 436.687 481.673 442.117 474.774 441.891Z" fill="#F7BBB2"/>
<path d="M610.828 447.774H515.488C510.173 447.774 500.673 446.416 498.411 442.343C491.965 430.578 498.976 396.412 498.411 384.194C497.167 358.513 496.149 350.481 499.655 346.408C503.613 341.657 544.101 345.277 556.994 344.937C568.869 344.598 605.512 341.43 605.512 341.43C613.994 341.43 623.494 346.069 625.869 357.721C627.34 365.414 624.965 378.99 624.965 394.715C624.965 412.929 625.53 424.808 622.703 434.085C621.459 437.592 620.101 447.661 610.828 447.774Z" fill="#703F3F"/>
<path d="M599.97 441.891C581.423 441.438 547.946 441.891 527.25 441.438C517.976 441.212 510.06 433.293 508.363 422.432C507.232 415.758 506.101 406.481 506.327 394.15C506.554 379.895 507.571 371.863 510.06 365.64C513.792 356.816 520.238 352.517 527.476 351.838C547.72 349.802 582.893 350.481 603.024 353.762C607.548 354.554 613.655 359.758 615.351 364.735C617.387 371.523 619.536 384.986 619.196 398.335C619.083 407.273 618.631 420.622 616.482 429.107C614.446 436.687 606.756 442.117 599.97 441.891Z" fill="#F7BBB2"/>
<path d="M735.345 447.774H640.119C634.804 447.774 623.042 449.131 620.78 442.343C618.744 436.008 621.232 411.345 622.024 396.412C623.494 365.414 611.958 354.214 618.179 344.598C622.703 337.81 675.179 343.693 689.316 343.693C703.113 343.693 740.435 343.693 746.203 346.295C754.119 350.141 752.988 357.042 751.857 390.982C750.613 420.735 753.667 431.822 750.613 440.986C749.595 444.832 743.715 447.774 735.345 447.774Z" fill="#703F3F"/>
<path d="M724.714 441.891C706.167 441.438 672.691 441.891 651.994 441.438C642.72 441.212 634.804 433.293 633.107 422.432C631.976 415.758 630.845 406.481 631.072 394.15C631.298 379.895 632.316 371.863 634.804 365.64C638.536 356.816 644.982 352.517 652.22 351.838C672.464 349.802 707.637 350.481 727.768 353.762C732.292 354.554 738.399 359.758 740.095 364.735C742.131 371.523 744.28 384.986 743.941 398.335C743.828 407.273 743.375 420.622 741.226 429.107C739.078 436.687 731.5 442.117 724.714 441.891Z" fill="#F7BBB2"/>
<path d="M692.143 414.287H685.47C675.631 414.287 667.375 408.178 667.375 400.485V393.244C667.375 385.778 675.405 379.442 685.47 379.442H692.143C701.982 379.442 710.238 385.552 710.238 393.244V400.485C710.238 408.065 702.095 414.287 692.143 414.287Z" fill="#703535"/>
<path d="M569.661 414.287H562.988C553.149 414.287 544.893 408.178 544.893 400.485V393.244C544.893 385.778 552.923 379.442 562.988 379.442H569.661C579.5 379.442 587.756 385.552 587.756 393.244V400.485C587.756 408.065 579.613 414.287 569.661 414.287Z" fill="#703535"/>
<path d="M442.881 414.287H436.209C426.369 414.287 418.113 408.178 418.113 400.485V393.244C418.113 385.778 426.143 379.442 436.209 379.442H442.881C452.72 379.442 460.976 385.552 460.976 393.244V400.485C460.976 408.065 452.947 414.287 442.881 414.287Z" fill="#703535"/>
<path d="M313.387 414.287H306.714C296.875 414.287 288.619 408.178 288.619 400.485V393.244C288.619 385.778 296.649 379.442 306.714 379.442H313.387C323.226 379.442 331.482 385.552 331.482 393.244V400.485C331.482 408.065 323.339 414.287 313.387 414.287Z" fill="#703535"/>
<path d="M188.417 414.287H181.744C171.905 414.287 163.649 408.178 163.649 400.485V393.244C163.649 385.778 171.679 379.442 181.744 379.442H188.417C198.256 379.442 206.512 385.552 206.512 393.244V400.485C206.286 408.065 198.369 414.287 188.417 414.287Z" fill="#703535"/>
<path d="M64.2386 414.287H57.5659C47.7267 414.287 39.4707 408.178 39.4707 400.485V393.244C39.4707 385.778 47.5005 379.442 57.5659 379.442H64.2386C74.0778 379.442 82.3338 385.552 82.3338 393.244V400.485C82.1076 408.065 74.0778 414.287 64.2386 414.287Z" fill="#703535"/>
<path d="M152.678 346.182C145.214 347.313 119.089 346.408 108.458 346.408C92.1723 346.408 46.2556 347.539 46.2556 347.539C40.2616 347.539 31.7794 339.168 27.9342 330.343C25.1068 323.895 22.958 319.37 22.958 302.513C22.958 285.543 26.3509 274.117 27.0294 267.329C27.9342 257.261 30.1961 254.772 41.5056 254.772C41.5056 254.772 85.4997 255.111 109.137 255.337C118.863 255.451 149.285 250.473 160.143 255.79C168.059 259.636 167.72 284.865 167.607 301.269C167.494 315.523 168.398 333.511 168.172 337.358C167.946 340.638 162.518 344.598 152.678 346.182Z" fill="#703F3F"/>
<path d="M138.202 338.263C117.279 337.81 79.1661 338.263 55.8685 337.81C45.4637 337.584 36.4161 330.683 34.4935 321.519C33.2494 315.636 31.8923 307.717 32.2316 297.083C32.4578 284.752 33.5887 277.851 36.4161 272.42C40.6006 264.84 48.178 261.22 56.0947 260.541C79.053 258.618 118.749 259.41 141.934 262.238C147.023 262.917 154.035 267.556 155.845 271.855C158.22 277.737 160.595 289.277 160.255 300.929C160.142 308.622 159.577 320.162 157.089 327.515C154.714 333.737 146.005 338.489 138.202 338.263Z" fill="#F7BBB2"/>
<path d="M97.601 313.374H86.4046C78.4879 313.374 72.0415 309.301 72.0415 304.21V295.725C72.0415 290.634 78.4879 286.562 86.4046 286.562H97.601C105.518 286.562 111.964 290.634 111.964 295.725V304.21C111.964 309.301 105.518 313.374 97.601 313.374Z" fill="#703535"/>
<path d="M289.863 344.485C289.863 344.485 262.381 346.408 254.351 346.408C235.351 346.408 195.315 346.974 177.333 346.634C171.339 346.521 160.934 343.24 160.934 337.923C160.934 337.923 163.988 319.935 163.422 297.083C162.97 280.566 155.506 261.107 165.797 256.242C173.601 252.622 216.69 255.337 232.863 255.337C248.47 255.337 295.178 248.776 302.416 253.98C309.994 259.523 309.881 266.085 308.41 295.499C307.053 321.18 310.333 330.683 307.053 338.715C305.922 341.883 299.589 344.485 289.863 344.485Z" fill="#703F3F"/>
<path d="M277.761 339.507C256.839 339.055 218.726 339.507 195.428 339.055C185.023 338.828 175.976 331.927 174.053 322.764C172.809 316.881 171.452 308.962 171.791 298.327C172.017 285.996 173.148 279.095 175.976 273.665C180.16 266.085 187.738 262.465 195.654 261.786C218.613 259.863 258.309 260.655 281.494 263.483C286.583 264.162 293.595 268.8 295.404 273.099C297.779 278.982 300.154 290.521 299.815 302.174C299.702 309.867 299.136 321.406 296.648 328.76C294.273 335.095 285.452 339.733 277.761 339.507Z" fill="#F7BBB2"/>
<path d="M239.309 313.374H228.113C220.196 313.374 213.75 309.301 213.75 304.21V295.725C213.75 290.634 220.196 286.562 228.113 286.562H239.309C247.226 286.562 253.672 290.634 253.672 295.725V304.21C253.672 309.301 247.339 313.374 239.309 313.374Z" fill="#703535"/>
<path d="M377.286 347.539C363.488 347.539 324.244 344.485 324.244 344.485C318.25 344.485 302.417 343.919 302.417 338.602C302.417 338.602 305.583 300.024 305.018 289.39C303.661 267.103 299.476 255.337 311.012 255.337C311.012 255.337 355.911 255.903 370.387 255.564C384.184 255.224 444.577 252.17 448.422 257.939C456.791 266.085 448.422 284.865 448.422 298.554C448.422 314.392 458.714 336.113 449.667 345.39C444.69 350.368 389.387 347.539 377.286 347.539Z" fill="#703F3F"/>
<path d="M419.809 339.507C398.887 339.055 360.774 339.507 337.476 339.055C327.071 338.828 318.024 331.927 316.101 322.764C314.857 316.881 313.5 308.962 313.839 298.327C314.065 285.996 315.196 279.095 318.024 273.665C322.208 266.085 329.785 262.465 337.702 261.786C360.66 259.863 400.357 260.655 423.541 263.483C428.631 264.162 435.643 268.8 437.452 273.099C439.827 278.982 442.202 290.521 441.863 302.174C441.75 309.867 441.184 321.406 438.696 328.76C436.208 335.095 427.5 339.733 419.809 339.507Z" fill="#F7BBB2"/>
<path d="M381.922 313.374H370.726C362.809 313.374 356.363 309.301 356.363 304.21V295.725C356.363 290.634 362.809 286.562 370.726 286.562H381.922C389.839 286.562 396.285 290.634 396.285 295.725V304.21C396.285 309.301 389.726 313.374 381.922 313.374Z" fill="#703535"/>
<path d="M575.315 347.313C575.315 347.313 504.065 347.539 479.863 347.653C473.869 347.653 448.309 347.653 445.934 341.77C443.672 336.226 446.161 313.034 447.065 300.137C448.875 273.325 440.053 266.311 447.065 258.166C452.155 252.283 503.952 255.903 520.012 255.903C535.619 255.903 581.422 254.772 587.869 257.034C596.803 260.202 595.672 266.537 594.202 295.612C592.845 321.293 598.839 333.398 595.559 341.317C594.202 344.485 584.928 347.313 575.315 347.313Z" fill="#703F3F"/>
<path d="M563.101 339.507C542.179 339.055 504.065 339.507 480.768 339.055C470.363 338.828 461.316 331.927 459.393 322.764C458.149 316.881 456.792 308.962 457.131 298.327C457.357 285.996 458.488 279.095 461.315 273.665C465.5 266.085 473.077 262.465 480.994 261.786C503.952 259.863 543.649 260.655 566.833 263.483C571.923 264.162 578.935 268.8 580.744 273.099C583.119 278.982 585.494 290.521 585.155 302.174C585.042 309.867 584.476 321.406 581.988 328.76C579.5 335.095 571.018 339.733 563.101 339.507Z" fill="#F7BBB2"/>
<path d="M526.458 313.374H515.262C507.345 313.374 500.898 309.301 500.898 304.21V295.725C500.898 290.634 507.345 286.562 515.262 286.562H526.458C534.375 286.562 540.821 290.634 540.821 295.725V304.21C540.821 309.301 534.375 313.374 526.458 313.374Z" fill="#703535"/>
<path d="M717.476 344.485L607.208 345.616C601.214 345.616 592.732 343.354 590.018 339.733C582.666 329.552 590.696 300.024 590.018 289.503C588.66 267.216 587.416 260.315 591.375 256.695C595.898 252.509 641.702 255.79 656.518 255.45C670.089 255.111 710.351 254.319 710.351 254.319C720.077 254.319 728.333 261.22 730.821 271.289C732.631 278.077 733.422 284.865 733.422 298.327C733.422 314.166 734.101 324.347 730.821 332.267C729.69 335.774 721.321 344.485 717.476 344.485Z" fill="#703F3F"/>
<path d="M705.375 339.507C684.452 339.055 646.339 339.507 623.041 339.055C612.637 338.828 603.589 331.927 601.666 322.764C600.422 316.881 599.065 308.962 599.404 298.327C599.631 285.996 600.762 279.095 603.589 273.665C607.773 266.085 615.351 262.465 623.267 261.786C646.226 259.863 685.922 260.655 709.107 263.483C714.196 264.162 721.208 268.8 723.018 273.099C725.393 278.982 727.768 290.521 727.428 302.174C727.315 309.867 726.75 321.406 724.262 328.76C721.66 335.095 712.952 339.733 705.375 339.507Z" fill="#F7BBB2"/>
<path d="M665.452 313.374H654.256C646.339 313.374 639.893 309.301 639.893 304.21V295.725C639.893 290.634 646.339 286.562 654.256 286.562H665.452C673.369 286.562 679.815 290.634 679.815 295.725V304.21C679.815 309.301 673.256 313.374 665.452 313.374Z" fill="#703535"/>
<path d="M135.148 257.147C122.142 257.487 97.0352 258.279 84.1424 258.279C69.7793 258.166 27.821 259.41 27.821 259.41C21.94 259.41 13.3448 258.053 12.7793 249.568C12.7793 249.568 13.1186 235.766 13.1186 221.85C13.1186 207.935 11.6483 195.038 15.7198 189.947C19.565 185.196 24.315 183.273 35.7376 183.273C35.7376 183.273 104.5 183.16 127.345 183.16C136.845 183.16 155.505 180.444 156.863 186.327C157.541 189.382 153.696 208.275 153.583 221.85C153.47 233.729 158.107 249.002 154.94 254.545C151.886 259.976 139.107 257.034 135.148 257.147Z" fill="#703F3F"/>
<path d="M124.743 251.265C104.047 250.925 66.2731 251.265 43.2017 250.925C32.7969 250.699 23.8624 245.156 21.9398 237.349C20.6957 232.598 19.3386 226.036 19.6779 217.212C19.9041 207.03 21.035 201.374 23.8624 196.962C28.0469 190.739 35.3981 187.572 43.3148 187.119C66.0469 185.535 105.404 186.214 128.249 188.477C133.339 189.042 140.237 192.776 142.047 196.283C144.422 201.147 146.684 210.537 146.458 220.154C146.345 226.376 145.779 235.992 143.404 241.875C140.916 247.644 132.434 251.378 124.743 251.265Z" fill="#F7BBB2"/>
<path d="M84.4819 233.164H75.095C66.1605 233.164 58.9224 228.638 58.9224 223.321V215.968C58.9224 210.537 66.1605 206.125 75.095 206.125H84.4819C93.4164 206.125 100.654 210.65 100.654 215.968V223.208C100.768 228.752 93.4164 233.164 84.4819 233.164Z" fill="#703535"/>
<path d="M275.5 258.392C275.5 258.392 236.708 258.053 224.833 258.053C210.018 258.053 177.446 259.184 177.446 259.184C171.565 259.184 155.958 260.202 152.678 254.093C148.72 246.739 152.565 228.525 152.565 219.927C152.565 197.64 149.512 189.269 154.714 184.63C159.238 180.558 203.797 184.178 219.744 184.178C235.238 184.178 268.488 184.63 284.887 184.743C294.387 184.743 294.726 193.002 293.369 217.438C292.012 238.933 297.893 246.626 294.613 253.301C293.369 255.79 285 258.392 275.5 258.392Z" fill="#703F3F"/>
<path d="M262.833 252.17C242.137 251.83 204.363 252.17 181.292 251.83C170.887 251.604 161.952 246.061 160.03 238.255C158.786 233.503 157.428 226.941 157.768 218.117C157.994 207.935 159.125 202.279 161.952 197.867C166.137 191.644 173.488 188.477 181.405 188.024C204.137 186.44 243.494 187.119 266.339 189.382C271.428 189.947 278.327 193.681 280.137 197.188C282.512 202.053 284.774 211.442 284.548 221.059C284.434 227.281 283.869 236.897 281.494 242.78C279.006 248.436 270.524 252.396 262.833 252.17Z" fill="#F7BBB2"/>
<path d="M223.023 233.164H213.636C204.702 233.164 197.464 228.638 197.464 223.321V215.968C197.464 210.537 204.702 206.125 213.636 206.125H223.023C231.958 206.125 239.196 210.65 239.196 215.968V223.208C239.309 228.752 231.958 233.164 223.023 233.164Z" fill="#703535"/>
<path d="M422.75 257.6C419.809 258.053 359.642 258.279 356.702 258.279L308.75 258.166C302.869 258.166 287.148 257.6 287.148 253.301C287.148 253.301 290.202 221.172 289.75 212.347C288.392 193.907 282.398 184.517 293.595 184.517C293.595 184.517 357.494 181.463 371.517 181.349C385.202 181.123 427.613 181.123 431.458 185.988C436.095 191.871 431.458 208.388 431.458 219.701C431.458 232.824 434.285 241.535 432.136 253.414C431.458 255.337 427.726 256.921 422.75 257.6Z" fill="#703F3F"/>
<path d="M403.524 252.17C382.827 251.83 345.053 252.17 321.982 251.83C311.577 251.604 302.643 246.061 300.72 238.255C299.476 233.503 298.119 226.941 298.458 218.117C298.684 207.935 299.815 202.279 302.643 197.867C306.827 191.644 314.178 188.477 322.095 188.024C344.827 186.44 384.184 187.119 407.03 189.382C412.119 189.947 419.018 193.681 420.827 197.188C423.202 202.053 425.464 211.442 425.238 221.059C425.125 227.281 424.559 236.897 422.184 242.78C419.583 248.436 411.101 252.396 403.524 252.17Z" fill="#F7BBB2"/>
<path d="M368.012 233.164H358.625C349.69 233.164 342.452 228.638 342.452 223.321V215.968C342.452 210.537 349.69 206.125 358.625 206.125H368.012C376.946 206.125 384.184 210.65 384.184 215.968V223.208C384.297 228.752 376.946 233.164 368.012 233.164Z" fill="#703535"/>
<path d="M556.88 258.053C556.88 258.053 513.678 257.713 499.202 257.6C486.987 257.487 450.458 257.147 450.458 257.147C444.577 257.147 430.779 257.826 428.404 252.962C426.142 248.436 429.648 231.806 430.327 221.059C432.023 198.772 424.672 190.966 431.91 184.178C436.999 179.313 492.416 183.046 508.249 183.046C523.743 183.046 560.612 180.331 566.946 182.141C575.767 184.857 577.464 192.663 576.106 216.986C574.749 238.481 579.612 246.061 576.446 252.849C574.976 255.79 566.38 258.053 556.88 258.053Z" fill="#703F3F"/>
<path d="M545.344 252.17C524.648 251.83 486.874 252.17 463.803 251.83C453.398 251.604 444.463 246.061 442.541 238.255C441.297 233.503 439.94 226.941 440.279 218.117C440.505 207.935 441.636 202.279 444.463 197.867C448.648 191.644 455.999 188.477 463.916 188.024C486.648 186.44 526.005 187.119 548.85 189.382C553.94 189.947 560.838 193.681 562.648 197.188C565.023 202.053 567.285 211.442 567.059 221.059C566.946 227.281 566.38 236.897 564.005 242.78C561.517 248.436 552.922 252.396 545.344 252.17Z" fill="#F7BBB2"/>
<path d="M508.702 233.164H499.315C490.38 233.164 483.142 228.638 483.142 223.321V215.968C483.142 210.537 490.38 206.125 499.315 206.125H508.702C517.636 206.125 524.874 210.65 524.874 215.968V223.208C524.987 228.752 517.636 233.164 508.702 233.164Z" fill="#703535"/>
<path d="M698.023 258.053H591.148C585.267 258.053 574.636 259.071 572.035 256.129C564.797 247.644 572.601 221.172 571.922 212.461C570.565 194.02 569.321 188.137 573.279 185.196C577.803 181.802 623.154 184.404 637.744 184.065C651.202 183.838 691.124 183.046 691.124 183.046C695.761 183.046 702.547 183.838 706.392 185.535C714.874 189.495 712.726 208.162 712.726 219.475C712.726 232.598 715.327 244.024 712.16 250.812C710.916 253.64 701.982 258.053 698.023 258.053Z" fill="#703F3F"/>
<path d="M686.148 252.17C665.452 251.83 627.678 252.17 604.606 251.83C594.202 251.604 585.267 246.061 583.345 238.255C582.101 233.503 580.743 226.941 581.083 218.117C581.309 207.935 582.44 202.279 585.267 197.867C589.452 191.644 596.803 188.477 604.72 188.024C627.452 186.44 666.809 187.119 689.654 189.382C694.743 189.947 701.642 193.681 703.452 197.188C705.827 202.053 708.089 211.442 707.863 221.059C707.749 227.281 707.184 236.897 704.809 242.78C702.095 248.436 693.612 252.396 686.148 252.17Z" fill="#F7BBB2"/>
<path d="M651.541 233.164H642.154C633.22 233.164 625.981 228.638 625.981 223.321V215.968C625.981 210.537 633.22 206.125 642.154 206.125H651.541C660.475 206.125 667.714 210.65 667.714 215.968V223.208C667.827 228.752 660.475 233.164 651.541 233.164Z" fill="#703535"/>
<path d="M199.161 185.083H43.7681C39.0181 185.083 35.1729 182.141 35.1729 178.408V134.966C35.1729 131.345 39.0181 128.291 43.7681 128.291H201.762C205.042 128.291 207.756 130.214 207.756 132.929L207.982 179.766C207.982 183.612 203.911 185.083 199.161 185.083Z" fill="#703F3F"/>
<path d="M193.393 180.331H49.5357C44.3333 180.331 40.375 177.164 40.375 173.204V139.152C40.375 135.192 44.6726 132.024 49.5357 132.024H193.393C198.595 132.024 202.554 135.192 202.554 139.152V173.091C202.554 177.164 198.482 180.331 193.393 180.331Z" fill="#F7BBB2"/>
<path d="M121.238 167.095H107.441C99.2978 167.095 92.7383 164.493 92.7383 159.855V156.687C92.7383 152.048 99.2978 149.446 107.441 149.446H121.238C129.381 149.446 135.941 152.048 135.941 156.687V159.855C135.941 164.493 129.268 167.095 121.238 167.095Z" fill="#703535"/>
<path d="M363.262 185.762C363.262 185.762 304 186.214 298.911 186.327C266.226 186.554 210.018 185.988 210.018 185.988C205.494 185.988 202.44 182.255 202.44 178.747C202.44 178.747 204.702 162.004 204.702 156.461C204.702 151.143 204.024 133.721 204.024 133.721C204.024 130.327 208.321 128.97 212.845 128.97H364.28C367.446 128.97 370.048 130.893 370.048 133.269L369.934 176.485C369.482 179.879 367.786 185.762 363.262 185.762Z" fill="#703F3F"/>
<path d="M355.911 180.331H218.387C213.411 180.331 209.565 177.164 209.565 173.543V140.848C209.565 137.115 213.637 134.061 218.387 134.061H355.911C360.887 134.061 364.732 137.228 364.732 140.848V173.43C364.732 177.39 360.661 180.331 355.911 180.331Z" fill="#F7BBB2"/>
<path d="M291.899 167.095H278.101C269.958 167.095 263.399 164.493 263.399 159.855V156.687C263.399 152.048 269.958 149.446 278.101 149.446H291.899C300.042 149.446 306.601 152.048 306.601 156.687V159.855C306.828 164.493 300.155 167.095 291.899 167.095Z" fill="#703535"/>
<path d="M524.423 186.327C524.423 186.327 472.173 186.78 449.441 187.119C416.078 187.572 378.304 184.178 370.953 184.178C366.429 184.178 366.203 179.539 366.203 176.145C366.203 176.145 368.012 160.646 368.012 154.877C368.012 150.465 368.012 137.115 368.012 137.115C368.012 133.721 369.143 129.083 373.78 129.083H527.59C532.113 129.083 533.923 131.685 533.923 135.079C533.923 135.079 533.244 151.143 533.244 156.574C533.244 162.004 534.715 182.594 534.715 182.594C534.262 185.875 528.834 186.327 524.423 186.327Z" fill="#703F3F"/>
<path d="M519.221 180.331H381.697C376.721 180.331 372.875 177.164 372.875 173.543V140.848C372.875 137.115 376.947 134.061 381.697 134.061H519.221C524.197 134.061 528.042 137.228 528.042 140.848V173.43C528.042 177.39 524.084 180.331 519.221 180.331Z" fill="#F7BBB2"/>
<path d="M454.078 167.095H440.28C432.137 167.095 425.578 164.493 425.578 159.855V156.687C425.578 152.048 432.137 149.446 440.28 149.446H454.078C462.22 149.446 468.78 152.048 468.78 156.687V159.855C468.893 164.493 462.334 167.095 454.078 167.095Z" fill="#703535"/>
<path d="M689.203 186.44C689.203 186.44 631.863 184.517 612.524 184.517C594.542 184.517 540.143 186.554 540.143 186.554C535.619 186.554 529.738 185.196 530.191 181.802C530.982 175.58 532.339 160.76 532.226 155.329C532.113 150.238 530.869 134.287 530.869 134.287C530.869 130.893 533.357 128.743 537.768 128.743H689.203C693.726 128.743 698.589 133.495 698.589 136.776L698.363 179.879C698.363 183.612 693.613 186.44 689.203 186.44Z" fill="#703F3F"/>
<path d="M683.661 180.331H546.25C541.274 180.331 537.429 177.164 537.429 173.543V140.849C537.429 137.115 541.5 134.061 546.25 134.061H683.774C688.75 134.061 692.595 137.228 692.595 140.849V173.43C692.595 177.39 688.524 180.331 683.661 180.331Z" fill="#F7BBB2"/>
<path d="M622.929 167.095H609.131C600.988 167.095 594.429 164.493 594.429 159.855V156.687C594.429 152.048 600.988 149.446 609.131 149.446H622.929C631.072 149.446 637.631 152.048 637.631 156.687V159.855C637.631 164.493 630.958 167.095 622.929 167.095Z" fill="#703535"/>
<path d="M170.886 90.8444C170.886 90.8444 123.613 90.2788 107.214 90.1656C91.7198 90.0525 45.2377 89.6 45.2377 89.6C41.3924 89.6 38.3389 87.6768 38.3389 85.1879V56.7919C38.3389 54.4162 41.3924 52.3798 45.2377 52.3798H172.583C174.619 52.3798 177.333 52.4929 178.577 53.398C179.595 54.1899 180.16 56.4525 180.16 57.5838C180.16 57.5838 180.5 69.5758 180.5 73.7616C180.5 76.5899 180.726 81.5677 180.726 84.396C180.726 85.5273 181.291 87.3374 179.595 88.3555C177.785 89.7131 172.809 90.8444 170.886 90.8444Z" fill="#703F3F"/>
<path d="M167.946 87.2242H50.1012C45.9167 87.2242 42.75 85.0747 42.75 82.5858V59.7333C42.75 57.1313 46.1429 55.0949 50.1012 55.0949H167.946C172.131 55.0949 175.298 57.2444 175.298 59.7333V82.4727C175.298 84.9616 171.905 87.2242 167.946 87.2242Z" fill="#F7BBB2"/>
<path d="M122.369 77.1555H94.095C89.5712 77.1555 85.9521 74.7798 85.9521 71.7252V70.1414C85.9521 67.0869 89.7974 64.7111 94.095 64.7111H122.256C126.78 64.7111 130.399 67.0869 130.399 70.1414V71.7252C130.399 74.7798 126.666 77.1555 122.369 77.1555Z" fill="#703535"/>
<path d="M313.387 90.8444C297.893 90.8444 267.244 90.1656 251.863 90.1656C235.464 90.1656 186.155 89.6 186.155 89.6C182.309 89.6 180.274 89.6 178.803 87.5636C177.333 85.5273 178.577 78.5131 178.577 74.101C178.577 65.8424 178.012 58.0364 178.012 58.0364C178.012 56.905 178.012 54.303 179.03 53.5111C180.387 52.4929 183.893 52.4929 186.041 52.4929H313.274C315.649 52.4929 318.25 52.4929 319.494 53.6242C320.286 54.303 320.512 56.5656 320.512 57.5838C320.512 63.1273 320.286 71.6121 320.286 78.8525C320.286 79.9838 321.19 86.0929 319.72 88.5818C318.928 89.7131 315.309 90.8444 313.387 90.8444Z" fill="#703F3F"/>
<path d="M308.524 87.2242H190.678C186.494 87.2242 183.327 85.0747 183.327 82.5858V59.7333C183.327 57.1313 186.72 55.0949 190.678 55.0949H308.524C312.708 55.0949 315.875 57.2444 315.875 59.7333V82.4727C315.988 84.9616 312.595 87.2242 308.524 87.2242Z" fill="#F7BBB2"/>
<path d="M263.738 77.1555H235.577C231.054 77.1555 227.435 74.7798 227.435 71.7252V70.1414C227.435 67.0869 231.28 64.7111 235.577 64.7111H263.738C268.262 64.7111 271.881 67.0869 271.881 70.1414V71.7252C271.881 74.7798 268.149 77.1555 263.738 77.1555Z" fill="#703535"/>
<path d="M453.512 89.4869C453.512 89.4869 406.012 90.0525 390.178 90.0525C374.119 90.0525 326.166 89.4869 326.166 89.4869C322.321 89.4869 320.285 89.4869 318.815 87.4505C317.345 85.4141 318.589 78.4 318.589 73.9879C318.589 65.7293 318.023 58.4889 318.023 58.4889C318.023 57.4707 318.25 54.6424 319.041 53.9636C320.285 52.8323 323.678 52.3798 326.053 52.3798H453.398C455.66 52.3798 458.94 52.6061 460.071 53.7374C460.863 54.5293 460.863 57.0182 460.863 58.0364L460.297 85.1879C460.637 87.5636 457.357 89.4869 453.512 89.4869Z" fill="#703F3F"/>
<path d="M448.988 87.2242H331.029C326.845 87.2242 323.678 85.0747 323.678 82.5858V59.7333C323.678 57.1313 327.071 55.0949 331.029 55.0949H448.988C453.172 55.0949 456.339 57.2444 456.339 59.7333V82.4727C456.339 84.9616 453.059 87.2242 448.988 87.2242Z" fill="#F7BBB2"/>
<path d="M404.089 77.1555H375.928C371.404 77.1555 367.785 74.7798 367.785 71.7252V70.1414C367.785 67.0869 371.63 64.7111 375.928 64.7111H404.089C408.613 64.7111 412.232 67.0869 412.232 70.1414V71.7252C412.345 74.7798 408.613 77.1555 404.089 77.1555Z" fill="#703535"/>
<path d="M594.315 89.4869L468.666 90.1656C464.821 90.1656 460.071 90.3919 458.601 88.2424C457.131 86.2061 458.714 78.7394 458.714 74.4404C458.714 66.1818 459.053 59.0545 459.053 59.0545C459.053 57.8101 459.28 54.4162 460.524 53.6242C461.768 52.7192 465.047 52.4929 466.97 52.4929H594.315C596.351 52.4929 599.857 52.7192 601.101 53.7374C602.232 54.5293 602.345 59.5071 602.345 60.6384C602.345 60.6384 602.345 65.8424 602.345 73.9879C602.345 78.5131 602.571 83.8303 601.893 86.4323C601.327 88.5818 598.16 89.4869 594.315 89.4869Z" fill="#703F3F"/>
<path d="M589.565 87.2242H471.72C467.535 87.2242 464.369 85.0747 464.369 82.5858V59.7333C464.369 57.1313 467.762 55.0949 471.72 55.0949H589.565C593.75 55.0949 596.916 57.2444 596.916 59.7333V82.4727C597.029 84.9616 593.637 87.2242 589.565 87.2242Z" fill="#F7BBB2"/>
<path d="M544.78 77.1555H516.619C512.095 77.1555 508.476 74.7798 508.476 71.7252V70.1414C508.476 67.0869 512.321 64.7111 516.619 64.7111H544.78C549.303 64.7111 552.923 67.0869 552.923 70.1414V71.7252C552.923 74.7798 549.19 77.1555 544.78 77.1555Z" fill="#703535"/>
<path d="M735.005 89.4869L608.339 90.1657C604.493 90.1657 601.666 90.3919 600.196 88.2424C598.726 86.2061 600.083 78.5131 600.083 74.2141C600.083 65.9556 600.648 57.0182 600.648 57.0182C600.648 55.8869 600.648 54.4162 601.666 53.6242C603.023 52.6061 605.511 52.6061 607.547 52.6061H734.892C738.738 52.6061 741.791 54.5293 741.791 57.0182V85.5273C741.904 87.5636 738.738 89.4869 735.005 89.4869Z" fill="#703F3F"/>
<path d="M730.256 87.2243H612.41C608.226 87.2243 605.059 85.0748 605.059 82.5859V59.7333C605.059 57.1313 608.452 55.095 612.41 55.095H730.256C734.44 55.095 737.607 57.2445 737.607 59.7333V82.4727C737.72 84.9616 734.327 87.2243 730.256 87.2243Z" fill="#F7BBB2"/>
<path d="M685.47 77.1556H657.309C652.785 77.1556 649.166 74.7798 649.166 71.7253V70.1414C649.166 67.0869 653.011 64.7111 657.309 64.7111H685.47C689.993 64.7111 693.612 67.0869 693.612 70.1414V71.7253C693.726 74.7798 689.993 77.1556 685.47 77.1556Z" fill="#703535"/>
<path d="M152.226 129.196C141.482 129.196 119.655 129.196 100.542 129.196C62.9942 129.196 21.2621 129.196 21.2621 129.196C17.4169 129.196 14.3633 127.16 14.3633 124.444V93.899C14.3633 91.297 17.4169 89.1475 21.2621 89.1475C21.2621 89.1475 62.9942 88.4687 76.9049 88.3555C94.774 88.2424 146.006 88.0162 146.006 88.0162C147.929 88.0162 153.131 88.1293 154.488 88.9212C155.959 89.8263 156.524 92.3151 156.524 93.7859C156.524 93.7859 156.976 101.705 156.637 110.529C156.524 115.62 157.089 121.956 156.976 124.671C156.863 127.16 156.185 129.196 152.226 129.196Z" fill="#703F3F"/>
<path d="M143.97 126.707H26.2379C22.0534 126.707 18.8867 124.444 18.8867 121.616V96.8404C18.8867 94.0121 22.2796 91.7495 26.2379 91.7495H144.083C148.268 91.7495 151.434 94.0121 151.434 96.8404V121.503C151.434 124.331 148.041 126.707 143.97 126.707Z" fill="#F7BBB2"/>
<path d="M98.3929 115.846H70.2322C65.7084 115.846 62.0894 113.244 62.0894 109.964V108.267C62.0894 105.099 65.9346 102.384 70.2322 102.384H98.3929C102.917 102.384 106.536 104.986 106.536 108.267V109.964C106.536 113.244 102.691 115.846 98.3929 115.846Z" fill="#703535"/>
<path d="M289.75 131.232C273.465 131.459 240.667 130.44 224.494 130.44C208.322 130.44 159.578 129.309 159.578 129.309C155.733 129.309 154.375 128.178 154.262 125.576C154.262 122.747 154.262 117.543 154.036 112.339C153.81 103.741 154.036 98.4242 154.036 93.6727C154.036 92.3151 154.488 89.7131 155.959 88.8081C157.203 88.0161 162.179 88.1293 163.988 88.1293C180.161 88.0162 210.584 87.903 225.399 87.903C242.25 87.903 273.691 87.903 289.637 88.1293C291.673 88.1293 294.953 87.7899 296.197 88.8081C297.328 89.7131 297.102 92.9939 297.102 94.2384C297.102 98.3111 296.762 103.855 296.762 109.851C296.762 115.281 298.232 124.218 298.232 127.838C298.572 130.554 293.709 131.232 289.75 131.232Z" fill="#703F3F"/>
<path d="M284.661 126.707H166.703C162.518 126.707 159.352 124.444 159.352 121.616V96.8404C159.352 94.0121 162.744 91.7495 166.703 91.7495H284.548C288.733 91.7495 291.899 94.0121 291.899 96.8404V121.503C292.012 124.331 288.619 126.707 284.661 126.707Z" fill="#F7BBB2"/>
<path d="M239.875 115.846H211.715C207.191 115.846 203.572 113.244 203.572 109.964V108.267C203.572 105.099 207.417 102.384 211.715 102.384H239.875C244.399 102.384 248.018 104.986 248.018 108.267V109.964C247.905 113.244 244.286 115.846 239.875 115.846Z" fill="#703535"/>
<path d="M572.488 131.232C556.203 131.459 523.405 130.44 507.232 130.44C491.06 130.44 442.203 131.345 442.203 131.345C438.357 131.345 436.096 128.178 435.982 125.463C435.982 122.634 437.113 117.657 436.887 112.453C436.661 103.855 436.887 98.5374 436.887 93.7859C436.887 92.4283 437.34 89.8263 438.81 88.9212C440.054 88.1293 445.03 88.2424 446.84 88.2424C463.012 88.1293 493.435 88.0162 508.25 88.0162C525.101 88.0162 556.542 88.0162 572.488 88.2424C574.524 88.2424 578.822 87.5636 580.066 88.5818C581.197 89.4869 581.31 92.7677 581.31 94.0121C581.31 98.0848 580.971 103.628 580.971 109.624C580.971 115.055 581.084 124.331 581.084 127.838C581.31 130.554 576.447 131.232 572.488 131.232Z" fill="#703F3F"/>
<path d="M567.512 126.707H449.554C445.369 126.707 442.203 124.444 442.203 121.616V96.8404C442.203 94.0121 445.595 91.7495 449.554 91.7495H567.399C571.584 91.7495 574.75 94.0121 574.75 96.8404V121.503C574.976 124.331 571.584 126.707 567.512 126.707Z" fill="#F7BBB2"/>
<path d="M522.726 115.846H494.566C490.042 115.846 486.423 113.244 486.423 109.964V108.267C486.423 105.099 490.268 102.384 494.566 102.384H522.726C527.25 102.384 530.869 104.986 530.869 108.267V109.964C530.756 113.244 527.137 115.846 522.726 115.846Z" fill="#703535"/>
<path d="M714.762 131.232C698.476 131.459 665.679 130.44 649.506 130.44C633.333 130.44 584.25 131.345 584.25 131.345C580.405 131.345 579.048 130.214 578.935 127.612C578.935 124.784 579.387 117.657 579.274 112.453C579.048 103.855 579.274 98.5374 579.274 93.7859C579.274 92.4283 579.726 89.8263 581.196 88.9212C582.441 88.1293 587.417 88.2424 589.226 88.2424C605.399 88.1293 635.821 88.0162 650.637 88.0162C667.488 88.0162 698.929 88.0162 714.875 88.2424C716.911 88.2424 720.191 87.903 721.435 88.9212C722.566 89.8263 723.923 93.4465 723.923 94.6909C723.923 98.7636 723.583 104.307 723.583 110.303C723.583 115.733 724.714 124.105 723.357 128.065C722.679 130.44 718.494 131.232 714.762 131.232Z" fill="#703F3F"/>
<path d="M709.672 126.707H591.714C587.529 126.707 584.363 124.444 584.363 121.616V96.8404C584.363 94.0121 587.756 91.7495 591.714 91.7495H709.559C713.744 91.7495 716.91 94.0121 716.91 96.8404V121.503C717.137 124.331 713.744 126.707 709.672 126.707Z" fill="#F7BBB2"/>
<path d="M664.774 115.846H636.613C632.089 115.846 628.47 113.244 628.47 109.964V108.267C628.47 105.099 632.315 102.384 636.613 102.384H664.774C669.298 102.384 672.917 104.986 672.917 108.267V109.964C673.03 113.244 669.298 115.846 664.774 115.846Z" fill="#703535"/>
<path d="M434.06 131.572C423.316 131.572 401.036 131.006 381.923 131.006C344.375 131.006 302.304 130.44 302.304 130.44C298.459 130.44 294.953 127.499 294.953 124.897C294.953 124.897 295.631 100.687 295.857 92.8808C295.857 91.6364 296.423 89.7131 297.78 88.9212C299.137 88.0162 304.679 88.5818 306.828 88.5818C320.625 88.4687 345.393 88.3556 359.191 88.2424C377.06 88.1293 428.292 87.903 428.292 87.903C430.215 87.903 436.435 87.3374 437.679 88.2424C439.149 89.1475 439.715 92.3151 439.715 93.7859C439.828 97.9717 439.941 101.931 439.715 110.756C439.601 115.846 439.375 121.956 439.262 124.558C438.923 127.16 437.905 131.572 434.06 131.572Z" fill="#703F3F"/>
<path d="M425.917 126.707H308.185C304 126.707 300.833 124.444 300.833 121.616V96.8404C300.833 94.0121 304.226 91.7495 308.185 91.7495H426.03C430.214 91.7495 433.381 94.0121 433.381 96.8404V121.503C433.494 124.331 429.988 126.707 425.917 126.707Z" fill="#F7BBB2"/>
<path d="M380.566 115.846H352.292C347.768 115.846 344.149 113.244 344.149 109.964V108.267C344.149 105.099 347.994 102.384 352.292 102.384H380.452C384.976 102.384 388.595 104.986 388.595 108.267V109.964C388.595 113.244 384.75 115.846 380.566 115.846Z" fill="#703535"/>
<path d="M728.559 54.1899C714.536 54.303 686.149 53.9636 672.012 53.9636C658.101 53.9636 615.464 54.303 615.464 54.303C612.184 54.303 611.054 53.9636 610.94 52.9455C610.94 51.9273 611.28 49.4384 611.28 47.5151C611.054 44.4606 611.28 42.5374 611.28 40.8404C611.28 40.3879 611.619 39.3697 612.976 39.0303C613.994 38.804 618.405 38.804 619.875 38.804C633.786 38.804 660.137 38.6909 673.143 38.6909C687.619 38.6909 714.875 38.6909 728.673 38.804C730.482 38.804 733.196 38.6909 734.327 39.0303C735.345 39.3697 736.476 40.7273 736.476 41.0667C736.476 42.5374 736.137 44.4606 736.137 46.6101C736.137 48.5333 737.155 51.4747 735.911 52.8323C735.458 53.8505 731.839 54.0768 728.559 54.1899Z" fill="#703F3F"/>
<path d="M724.149 52.3798H622.25C618.631 52.3798 615.917 51.5879 615.917 50.5697V41.8586C615.917 40.8404 618.857 40.0485 622.25 40.0485H724.149C727.768 40.0485 730.482 40.8404 730.482 41.8586V50.6828C730.482 51.701 727.541 52.3798 724.149 52.3798Z" fill="#F7BBB2"/>
<path d="M684.226 48.8727H665.679C662.738 48.8727 660.25 47.7414 660.25 46.497V45.8182C660.25 44.4606 662.738 43.4424 665.679 43.4424H684.226C687.167 43.4424 689.655 44.5737 689.655 45.8182V46.497C689.542 47.8545 686.94 48.8727 684.226 48.8727Z" fill="#703535"/>
<path d="M606.643 54.1899C592.619 54.303 564.232 53.9636 550.095 53.9636C536.185 53.9636 493.548 54.303 493.548 54.303C490.268 54.303 489.137 53.9636 489.024 52.9455C489.024 51.9273 489.363 49.4384 489.363 47.5151C489.137 44.4606 489.363 42.5374 489.363 40.8404C489.363 40.3879 489.703 39.3697 491.06 39.0303C492.078 38.804 496.488 38.804 497.958 38.804C511.869 38.804 538.22 38.6909 551.226 38.6909C565.703 38.6909 592.958 38.6909 606.756 38.804C608.566 38.804 611.28 38.6909 612.411 39.0303C613.429 39.3697 614.56 40.7273 614.56 41.0667C614.56 42.5374 614.22 44.4606 614.22 46.6101C614.22 48.5333 615.238 51.4747 613.994 52.8323C613.429 53.8505 609.923 54.0768 606.643 54.1899Z" fill="#703F3F"/>
<path d="M602.119 52.3798H500.221C496.601 52.3798 493.887 51.5879 493.887 50.5697V41.8586C493.887 40.8404 496.828 40.0485 500.221 40.0485H602.119C605.738 40.0485 608.453 40.8404 608.453 41.8586V50.6828C608.566 51.701 605.625 52.3798 602.119 52.3798Z" fill="#F7BBB2"/>
<path d="M559.935 48.8727H541.387C538.447 48.8727 535.958 47.7414 535.958 46.497V45.8182C535.958 44.4606 538.447 43.4424 541.387 43.4424H559.935C562.875 43.4424 565.363 44.5737 565.363 45.8182V46.497C565.25 47.8545 562.762 48.8727 559.935 48.8727Z" fill="#703535"/>
<path d="M483.595 54.1899C469.571 54.303 441.184 53.9636 427.048 53.9636C413.137 53.9636 370.839 54.303 370.839 54.303C367.559 54.303 365.524 53.1717 365.411 52.2667C365.411 51.2485 366.428 49.5515 366.202 47.6283C365.976 44.5737 366.202 42.6505 366.202 40.9535C366.202 40.501 366.542 39.4828 367.899 39.1434C368.917 38.9172 373.327 38.9172 374.798 38.9172C388.708 38.9172 415.059 38.804 428.065 38.804C442.542 38.804 469.798 38.804 483.595 38.9172C485.405 38.9172 489.137 38.6909 490.155 39.0303C491.173 39.3697 491.173 40.6141 491.173 40.9535C491.173 42.4242 490.833 44.3475 490.833 46.497C490.833 48.4202 490.946 51.8141 490.946 52.9455C491.173 53.8505 486.988 54.0768 483.595 54.1899Z" fill="#703F3F"/>
<path d="M479.185 52.3798H377.399C373.78 52.3798 371.065 51.5879 371.065 50.5697V41.8586C371.065 40.8404 374.006 40.0485 377.399 40.0485H479.298C482.917 40.0485 485.631 40.8404 485.631 41.8586V50.6828C485.631 51.701 482.69 52.3798 479.185 52.3798Z" fill="#F7BBB2"/>
<path d="M437.113 48.8727H418.452C415.512 48.8727 413.024 47.7414 413.024 46.497V45.8182C413.024 44.4606 415.512 43.4424 418.452 43.4424H437C439.941 43.4424 442.429 44.5737 442.429 45.8182V46.497C442.429 47.8545 439.941 48.8727 437.113 48.8727Z" fill="#703535"/>
<path d="M363.828 54.303C354.441 54.303 335.327 54.0768 318.702 54.0768C286.244 54.0768 249.827 53.8505 249.827 53.8505C246.548 53.8505 243.494 52.8323 243.494 51.9273C243.494 51.9273 244.06 43.3293 244.286 40.501C244.286 40.0485 244.738 39.3697 245.982 39.0303C247.113 38.6909 251.976 38.9172 253.786 38.9172C265.774 38.9172 287.262 38.8041 299.137 38.8041C314.631 38.8041 358.851 38.6909 358.851 38.6909C360.548 38.6909 365.863 38.4647 366.994 38.8041C368.238 39.1434 368.804 40.2748 368.804 40.7273C368.917 42.3111 369.03 43.5556 368.804 46.7232C368.691 48.5333 368.464 50.6828 368.464 51.701C368.012 52.7192 367.22 54.303 363.828 54.303Z" fill="#703F3F"/>
<path d="M356.816 52.3798H255.03C251.411 52.3798 248.697 51.5879 248.697 50.5697V41.8586C248.697 40.8404 251.637 40.0485 255.03 40.0485H356.929C360.548 40.0485 363.262 40.8404 363.262 41.8586V50.6828C363.149 51.701 360.322 52.3798 356.816 52.3798Z" fill="#F7BBB2"/>
<path d="M315.536 48.8727H296.988C294.048 48.8727 291.56 47.7414 291.56 46.497V45.8182C291.56 44.4606 294.048 43.4424 296.988 43.4424H315.536C318.476 43.4424 320.964 44.5737 320.964 45.8182V46.497C320.964 47.8545 318.476 48.8727 315.536 48.8727Z" fill="#703535"/>
<path d="M239.084 54.1899C225.06 54.303 196.673 53.9636 182.536 53.9636C168.625 53.9636 126.441 53.5111 126.441 53.5111C123.161 53.5111 122.03 53.1717 121.917 52.1535C121.917 51.1354 121.917 49.3253 121.691 47.402C121.465 44.3475 121.691 42.4242 121.691 40.7273C121.691 40.2747 122.03 39.2566 123.387 38.9172C124.405 38.6909 128.816 38.6909 130.286 38.6909C144.197 38.6909 170.548 38.5778 183.554 38.5778C198.03 38.5778 225.286 38.5778 239.084 38.6909C240.893 38.6909 243.608 38.5778 244.738 38.9172C245.756 39.2566 245.53 40.501 245.53 40.8404C245.53 42.3111 245.191 44.2343 245.191 46.3838C245.191 48.3071 246.435 51.5879 246.435 52.8323C246.548 53.8505 242.477 54.0768 239.084 54.1899Z" fill="#703F3F"/>
<path d="M234.56 52.3798H132.661C129.042 52.3798 126.328 51.5879 126.328 50.5697V41.8586C126.328 40.8404 129.268 40.0485 132.661 40.0485H234.56C238.179 40.0485 240.893 40.8404 240.893 41.8586V50.6828C241.006 51.701 238.066 52.3798 234.56 52.3798Z" fill="#F7BBB2"/>
<path d="M193.28 48.8727H174.732C171.792 48.8727 169.304 47.7414 169.304 46.497V45.8182C169.304 44.4606 171.792 43.4424 174.732 43.4424H193.28C196.22 43.4424 198.708 44.5737 198.708 45.8182V46.497C198.595 47.8545 196.107 48.8727 193.28 48.8727Z" fill="#703535"/>
<path d="M120.107 53.398C110.72 53.398 91.9466 53.398 75.3216 53.398C42.8632 53.398 6.67276 53.398 6.67276 53.398C3.393 53.398 0.678711 52.6061 0.678711 51.701V40.8404C0.678711 39.9354 3.2799 39.1434 6.67276 39.1434C6.67276 39.1434 42.8632 38.9172 54.7382 38.9172C70.2323 38.9172 114.453 38.804 114.453 38.804C116.149 38.804 120.673 38.804 121.804 39.1434C123.048 39.4828 123.613 40.3879 123.613 40.9535C123.613 40.9535 123.953 43.7818 123.726 46.8364C123.613 48.6465 124.066 50.9091 124.066 51.9273C124.066 52.7192 123.5 53.398 120.107 53.398Z" fill="#703F3F"/>
<path d="M112.982 52.3798H10.9701C7.351 52.3798 4.63672 51.5879 4.63672 50.5697V41.8586C4.63672 40.8404 7.5772 40.0485 10.9701 40.0485H112.869C116.488 40.0485 119.202 40.8404 119.202 41.8586V50.6828C119.315 51.701 116.488 52.3798 112.982 52.3798Z" fill="#F7BBB2"/>
<path d="M71.8158 48.8727H53.1551C50.2147 48.8727 47.7266 47.7414 47.7266 46.497V45.8182C47.7266 44.4606 50.2147 43.4424 53.1551 43.4424H71.7028C74.6432 43.4424 77.1313 44.5737 77.1313 45.8182V46.497C77.1313 47.8545 74.5301 48.8727 71.8158 48.8727Z" fill="#703535"/>
<path d="M143.857 39.7097C143.857 39.7097 102.917 39.4834 88.7799 39.4834C75.3216 39.4834 35.1728 39.2571 35.1728 39.2571C31.893 39.2571 29.1787 38.5784 29.1787 37.6733V27.6046C29.1787 26.6996 31.7799 26.0208 35.1728 26.0208H145.214C148.494 26.0208 150.417 25.5683 151.095 26.247C151.887 27.039 151.208 29.3016 151.095 32.5824C150.982 36.3157 152.566 38.3521 150.756 39.144C149.399 40.0491 145.554 39.7097 143.857 39.7097Z" fill="#703F3F"/>
<path d="M141.143 38.4646H39.3577C35.7387 38.4646 33.0244 37.6727 33.0244 36.7677V28.6222C33.0244 27.7172 35.9649 26.9253 39.3577 26.9253H141.257C144.876 26.9253 147.59 27.7172 147.59 28.6222V36.7677C147.703 37.6727 144.763 38.4646 141.143 38.4646Z" fill="#F7BBB2"/>
<path d="M98.9586 35.5232H80.411C77.4705 35.5232 74.9824 34.3919 74.9824 33.1475V32.4687C74.9824 31.1111 77.4705 30.0929 80.411 30.0929H98.9586C101.899 30.0929 104.387 31.2242 104.387 32.4687V33.1475C104.387 34.3919 101.786 35.5232 98.9586 35.5232Z" fill="#703535"/>
<path d="M267.131 39.7091C253.673 39.7091 227.209 39.4828 213.75 39.4828C199.613 39.4828 156.863 39.2566 156.863 39.2566C153.584 39.2566 151.774 39.2566 150.53 38.4646C149.286 37.6727 150.304 34.0525 150.304 32.5818C150.304 29.6404 149.964 27.604 150.756 26.699C152 25.2283 153.47 26.0202 156.75 26.0202L266 25.9071C269.28 25.9071 271.994 25.7939 272.333 26.5859C273.012 28.2828 272.22 30.7717 272.22 33.2606C272.334 36.0889 274.03 38.1253 272.786 39.0303C272.334 39.596 268.714 39.7091 267.131 39.7091Z" fill="#703F3F"/>
<path d="M262.946 38.4646H161.048C157.429 38.4646 154.714 37.6727 154.714 36.7677V28.6222C154.714 27.7172 157.655 26.9253 161.048 26.9253H262.946C266.566 26.9253 269.28 27.7172 269.28 28.6222V36.7677C269.28 37.6727 266.452 38.4646 262.946 38.4646Z" fill="#F7BBB2"/>
<path d="M219.971 35.5232H201.31C198.369 35.5232 195.881 34.3919 195.881 33.1475V32.4687C195.881 31.1111 198.369 30.0929 201.31 30.0929H219.858C222.798 30.0929 225.286 31.2242 225.286 32.4687V33.1475C225.286 34.3919 222.798 35.5232 219.971 35.5232Z" fill="#703535"/>
<path d="M388.369 39.2566C388.369 39.2566 347.202 39.4828 333.631 39.4828C319.833 39.4828 278.214 39.2566 278.214 39.2566C274.935 39.2566 273.125 39.2566 271.881 38.4646C270.637 37.6727 271.655 35.297 271.655 33.7131C271.655 30.7717 271.316 27.2646 272.107 26.4727C272.673 25.7939 274.821 26.0202 278.101 26.0202H388.143C391.423 26.0202 393.232 25.5677 393.798 26.3596C394.137 26.9252 393.911 29.6404 393.798 32.0162C393.685 35.9758 394.702 36.4283 394.25 37.7859C393.685 39.2566 391.649 39.2566 388.369 39.2566Z" fill="#703F3F"/>
<path d="M384.298 38.4646H282.399C278.78 38.4646 276.065 37.6727 276.065 36.7677V28.6222C276.065 27.7172 279.006 26.9252 282.399 26.9252H384.298C387.917 26.9252 390.631 27.7172 390.631 28.6222V36.7677C390.631 37.6727 387.804 38.4646 384.298 38.4646Z" fill="#F7BBB2"/>
<path d="M341.435 35.5232H322.887C319.947 35.5232 317.458 34.3919 317.458 33.1475V32.4687C317.458 31.1111 319.947 30.0929 322.887 30.0929H341.435C344.375 30.0929 346.863 31.2242 346.863 32.4687V33.1475C346.75 34.3919 344.262 35.5232 341.435 35.5232Z" fill="#703535"/>
<path d="M509.947 39.2566L401.262 39.4828C397.982 39.4828 394.137 39.8222 392.78 39.0303C391.536 38.2384 393.233 35.297 393.233 33.7131C393.233 30.7717 392.102 27.8303 393.459 26.5858C394.929 25.3414 396.286 26.0202 399.679 26.0202H509.721C513 26.0202 515.602 25.9071 515.602 26.8121C515.602 26.8121 515.602 29.5273 515.602 32.4687C515.602 34.1656 516.846 37.2202 516.28 38.1252C516.054 38.9172 513.227 39.2566 509.947 39.2566Z" fill="#703F3F"/>
<path d="M505.875 38.4646H403.976C400.357 38.4646 397.643 37.6727 397.643 36.7677V28.6222C397.643 27.7172 400.584 26.9252 403.976 26.9252H505.875C509.494 26.9252 512.209 27.7172 512.209 28.6222V36.7677C512.435 37.6727 509.381 38.4646 505.875 38.4646Z" fill="#F7BBB2"/>
<path d="M465.953 35.5232H447.405C444.465 35.5232 441.977 34.3919 441.977 33.1475V32.4687C441.977 31.1111 444.465 30.0929 447.405 30.0929H465.953C468.893 30.0929 471.381 31.2242 471.381 32.4687V33.1475C471.268 34.3919 468.78 35.5232 465.953 35.5232Z" fill="#703535"/>
<path d="M631.637 39.2566L522.161 39.4828C518.881 39.4828 516.28 39.596 515.149 38.804C514.018 38.0121 515.375 34.2788 515.375 32.8081C515.375 29.8667 515.036 27.1515 515.036 27.1515C515.036 26.2465 518.089 26.1333 521.482 26.1333H631.524C634.804 26.1333 637.292 25.9071 637.857 26.4727C638.423 27.0384 637.97 29.5273 637.97 32.5818C637.97 34.8444 638.083 36.4283 638.083 37.899C638.083 38.3515 637.405 39.0303 636.274 39.3697C635.369 39.4828 633.333 39.2566 631.637 39.2566Z" fill="#703F3F"/>
<path d="M627.566 38.4646H525.667C522.048 38.4646 519.333 37.6727 519.333 36.7677V28.6222C519.333 27.7172 522.274 26.9253 525.667 26.9253H627.566C631.185 26.9253 633.899 27.7172 633.899 28.6222V36.7677C634.012 37.6727 631.072 38.4646 627.566 38.4646Z" fill="#F7BBB2"/>
<path d="M585.833 35.5232H567.285C564.345 35.5232 561.857 34.3919 561.857 33.1475V32.4687C561.857 31.1111 564.345 30.0929 567.285 30.0929H585.833C588.774 30.0929 591.262 31.2242 591.262 32.4687V33.1475C591.149 34.3919 588.547 35.5232 585.833 35.5232Z" fill="#703535"/>
<path d="M753.554 39.2566L644.078 39.4828C640.798 39.4828 638.197 39.596 637.066 38.804C635.935 38.0121 636.726 33.9394 636.726 32.2424C636.726 29.301 636.387 27.7172 637.405 26.5859C638.423 25.5677 640.006 25.9071 643.399 25.9071H753.441C756.72 25.9071 759.435 26.5859 759.435 27.4909V37.5596C759.661 38.5778 756.947 39.2566 753.554 39.2566Z" fill="#703F3F"/>
<path d="M749.482 38.4646H647.583C643.964 38.4646 641.25 37.6727 641.25 36.7677V28.6222C641.25 27.7172 644.19 26.9252 647.583 26.9252H749.482C753.101 26.9252 755.815 27.7172 755.815 28.6222V36.7677C756.042 37.6727 753.101 38.4646 749.482 38.4646Z" fill="#F7BBB2"/>
<path d="M711.143 35.5232H692.596C689.655 35.5232 687.167 34.3919 687.167 33.1475V32.4687C687.167 31.1111 689.655 30.0929 692.596 30.0929H711.143C714.084 30.0929 716.572 31.2242 716.572 32.4687V33.1475C716.459 34.3919 713.971 35.5232 711.143 35.5232Z" fill="#703535"/>
<path d="M753.554 17.9879L644.078 18.101C640.798 18.101 638.197 18.101 637.066 17.7616C635.935 17.4222 636.953 15.7252 636.953 14.8202C636.953 13.1232 637.405 11.3131 637.405 11.3131C637.405 10.8606 640.006 10.4081 643.399 10.4081H753.441C756.721 10.4081 759.435 10.7475 759.435 11.3131V17.196C759.661 17.6485 756.947 17.9879 753.554 17.9879Z" fill="#703F3F"/>
<path d="M749.483 16.6303H647.584C643.965 16.6303 641.25 16.2909 641.25 15.9515V12.4444C641.25 11.9919 644.191 11.7657 647.584 11.7657H749.483C753.102 11.7657 755.816 12.1051 755.816 12.4444V15.9515C756.042 16.2909 753.102 16.6303 749.483 16.6303Z" fill="#F7BBB2"/>
<path d="M631.863 18.2141L522.161 18.101C518.881 18.101 516.28 18.101 515.149 17.7616C514.018 17.4222 515.036 15.7252 515.036 14.8202C515.036 13.1232 515.488 11.3131 515.488 11.3131C515.488 10.8606 518.089 10.4081 521.482 10.4081H631.524C634.804 10.4081 637.518 10.7475 637.518 11.3131V17.7616C637.631 18.101 635.143 18.2141 631.863 18.2141Z" fill="#703F3F"/>
<path d="M627.566 16.6303H525.667C522.048 16.6303 519.333 16.2909 519.333 15.9515V12.4444C519.333 11.9919 522.274 11.7657 525.667 11.7657H627.566C631.185 11.7657 633.899 12.1051 633.899 12.4444V15.9515C634.012 16.2909 631.072 16.6303 627.566 16.6303Z" fill="#F7BBB2"/>
<path d="M509.947 17.9879L401.375 18.101C398.096 18.101 393.911 18.101 392.554 17.7616C391.31 17.4222 393.346 15.7252 393.346 14.8202C393.346 13.1232 393.798 11.3131 393.798 11.3131C393.798 10.8606 396.399 10.4081 399.792 10.4081H509.834C513.114 10.4081 515.828 10.7475 515.828 11.3131C515.828 11.3131 516.846 13.1232 516.846 14.8202C516.846 15.7252 517.072 16.8566 516.506 17.3091C516.054 17.7616 513.227 17.9879 509.947 17.9879Z" fill="#703F3F"/>
<path d="M505.875 16.6303H403.976C400.357 16.6303 397.643 16.2909 397.643 15.9515V12.4444C397.643 11.9919 400.584 11.7657 403.976 11.7657H505.875C509.494 11.7657 512.209 12.1051 512.209 12.4444V15.9515C512.435 16.2909 509.381 16.6303 505.875 16.6303Z" fill="#F7BBB2"/>
<path d="M388.37 17.9879C388.37 17.9879 347.203 18.101 333.631 18.101C319.834 18.101 278.215 17.9879 278.215 17.9879C274.935 17.9879 273.126 17.9879 271.882 17.6485C270.637 17.3091 271.655 15.8384 271.655 14.9333C271.655 13.2364 272.108 11.4263 272.108 11.4263C272.108 10.9737 274.709 10.5212 278.102 10.5212H388.143C391.423 10.5212 394.137 10.8606 394.137 11.4263V17.3091C394.364 17.6485 391.649 17.9879 388.37 17.9879Z" fill="#703F3F"/>
<path d="M384.298 16.6303H282.399C278.78 16.6303 276.066 16.2909 276.066 15.9515V12.4444C276.066 11.9919 279.006 11.7657 282.399 11.7657H384.298C387.917 11.7657 390.631 12.1051 390.631 12.4444V15.9515C390.631 16.2909 387.804 16.6303 384.298 16.6303Z" fill="#F7BBB2"/>
<path d="M267.131 18.2141C253.673 18.2141 227.209 18.101 213.75 18.101C199.613 18.101 156.863 17.9879 156.863 17.9879C153.584 17.9879 151.774 17.9879 150.53 17.6485C149.286 17.3091 150.304 15.8384 150.304 14.9333C150.304 13.2364 150.756 11.4263 150.756 11.4263C150.756 10.9737 153.357 10.5212 156.75 10.5212H266.905C270.185 10.5212 272.899 10.8606 272.899 11.4263C272.899 11.4263 273.012 14.4808 273.012 15.9515C273.012 16.1778 274.143 17.7616 272.899 18.3273C272.334 18.3273 268.714 18.2141 267.131 18.2141Z" fill="#703F3F"/>
<path d="M262.947 16.6303H161.048C157.429 16.6303 154.715 16.2909 154.715 15.9515V12.4444C154.715 11.9919 157.655 11.7657 161.048 11.7657H262.947C266.566 11.7657 269.28 12.1051 269.28 12.4444V15.9515C269.28 16.2909 266.453 16.6303 262.947 16.6303Z" fill="#F7BBB2"/>
<path d="M143.857 18.2141C143.857 18.2141 102.917 18.101 88.7797 18.101C75.3214 18.101 35.0595 17.9879 35.0595 17.9879C31.7797 17.9879 29.0654 17.6485 29.0654 17.0828V11.3131C29.0654 10.8606 31.6666 10.4081 35.0595 10.4081H145.101C148.381 10.4081 151.095 10.7475 151.095 11.3131C151.095 11.3131 151.887 13.9151 151.887 14.8202C151.887 15.3859 152.113 16.5172 152.113 17.0828C152.113 17.3091 152.565 17.6485 151.095 17.8747C149.738 17.9879 145.554 18.2141 143.857 18.2141Z" fill="#703F3F"/>
<path d="M141.143 16.6303H39.3577C35.7387 16.6303 33.0244 16.2909 33.0244 15.9515V12.4444C33.0244 11.9919 35.9649 11.7657 39.3577 11.7657H141.257C144.876 11.7657 147.59 12.1051 147.59 12.4444V15.9515C147.703 16.2909 144.763 16.6303 141.143 16.6303Z" fill="#F7BBB2"/>
<path d="M728.56 26.5859C714.536 26.5859 686.149 26.3596 672.012 26.3596C658.102 26.3596 615.465 26.5859 615.465 26.5859C612.185 26.5859 611.054 26.3596 610.941 25.7939C610.941 25.2283 611.28 23.7576 611.28 22.6263C611.054 20.8162 611.28 19.6848 611.28 18.6667C611.28 18.3273 611.619 17.8747 612.977 17.6485C613.994 17.4222 618.405 17.5353 619.875 17.5353C633.786 17.5353 660.137 17.5353 673.143 17.5353C687.619 17.5353 714.875 17.5353 728.673 17.5353C730.483 17.5353 733.197 17.4222 734.328 17.6485C735.346 17.8747 736.477 18.5535 736.477 18.7798C736.477 19.6848 736.137 20.703 736.137 21.9475C736.137 22.9657 737.155 24.7758 735.911 25.5677C735.459 26.3596 731.84 26.5859 728.56 26.5859Z" fill="#703F3F"/>
<path d="M725.054 25.4545H620.328C616.595 25.4545 613.768 25.002 613.768 24.4364V19.6849C613.768 19.1192 616.822 18.6667 620.328 18.6667H725.054C728.786 18.6667 731.613 19.1192 731.613 19.6849V24.4364C731.613 24.8889 728.56 25.4545 725.054 25.4545Z" fill="#F7BBB2"/>
<path d="M606.643 26.5859C592.619 26.5859 564.232 26.3596 550.095 26.3596C536.185 26.3596 493.548 26.5859 493.548 26.5859C490.268 26.5859 489.137 26.3596 489.024 25.7939C489.024 25.2283 489.363 23.7576 489.363 22.6263C489.137 20.8162 489.363 19.6848 489.363 18.6667C489.363 18.3273 489.703 17.8747 491.06 17.6485C492.078 17.4222 496.488 17.5353 497.958 17.5353C511.869 17.5353 538.22 17.5353 551.226 17.5353C565.703 17.5353 592.958 17.5353 606.756 17.5353C608.566 17.5353 611.28 17.4222 612.411 17.6485C613.429 17.8747 614.56 18.5535 614.56 18.7798C614.56 19.6848 614.22 20.703 614.22 21.9475C614.22 22.9657 615.238 24.7758 613.994 25.5677C613.429 26.3596 609.923 26.5859 606.643 26.5859Z" fill="#703F3F"/>
<path d="M603.137 25.4545H498.524C494.792 25.4545 491.965 25.002 491.965 24.4364V19.6849C491.965 19.1192 495.018 18.6667 498.524 18.6667H603.137C606.87 18.6667 609.697 19.1192 609.697 19.6849V24.4364C609.81 24.8889 606.757 25.4545 603.137 25.4545Z" fill="#F7BBB2"/>
<path d="M483.596 26.5859C469.572 26.5859 441.185 26.3596 427.048 26.3596C413.137 26.3596 370.84 26.5859 370.84 26.5859C367.56 26.5859 365.524 25.9071 365.411 25.3414C365.411 24.7758 366.429 23.6444 366.203 22.7394C365.977 20.9293 366.203 19.798 366.203 18.7798C366.203 18.4404 366.542 17.9879 367.899 17.7616C368.917 17.5354 373.328 17.6485 374.798 17.6485C388.709 17.6485 415.06 17.6485 428.066 17.6485C442.542 17.6485 469.798 17.6485 483.596 17.6485C485.405 17.6485 489.137 17.5354 490.155 17.7616C491.173 17.9879 491.173 18.6667 491.173 18.7798C491.173 19.6849 490.834 20.703 490.834 21.9475C490.834 22.9657 490.947 25.002 490.947 25.7939C491.173 26.3596 486.988 26.5859 483.596 26.5859Z" fill="#703F3F"/>
<path d="M480.429 25.4545H375.929C372.197 25.4545 369.369 25.002 369.369 24.4364V19.6849C369.369 19.1192 372.423 18.6667 375.929 18.6667H480.542C484.274 18.6667 487.101 19.1192 487.101 19.6849V24.4364C487.101 24.8889 484.048 25.4545 480.429 25.4545Z" fill="#F7BBB2"/>
<path d="M363.828 26.699C354.441 26.699 335.328 26.5859 318.703 26.5859C286.244 26.5859 249.828 26.4727 249.828 26.4727C246.548 26.4727 245.417 26.4727 244.512 25.5677C243.268 24.2101 243.834 21.6081 243.834 19.9111C243.947 18.5535 244.512 18.101 245.643 17.8747C246.774 17.6485 251.637 17.7616 253.447 17.7616C265.435 17.7616 286.923 17.7616 298.798 17.6485C314.292 17.6485 358.512 17.5353 358.512 17.5353C360.209 17.5353 365.524 17.4222 366.655 17.6485C367.899 17.8747 368.465 18.5535 368.465 18.7798C368.578 19.6848 368.691 20.4768 368.465 22.2869C368.352 23.305 368.125 24.6626 368.125 25.1151C368.012 25.6808 367.221 26.699 363.828 26.699Z" fill="#703F3F"/>
<path d="M358.625 25.4545H253.447C249.715 25.4545 246.887 25.002 246.887 24.4364V19.6849C246.887 19.1192 249.941 18.6667 253.447 18.6667H358.738C362.471 18.6667 365.298 19.1192 365.298 19.6849V24.4364C365.185 24.8889 362.244 25.4545 358.625 25.4545Z" fill="#F7BBB2"/>
<path d="M239.084 26.5859C225.06 26.5859 196.56 26.5859 182.423 26.5859C168.512 26.5859 126.215 26.4727 126.215 26.4727C122.935 26.4727 121.917 26.0202 121.917 25.4546C121.917 24.8889 121.917 23.7576 121.691 22.7394C121.465 20.9293 121.691 19.798 121.691 18.7798C121.691 18.4404 122.03 17.9879 123.387 17.7616C124.405 17.5354 128.816 17.6485 130.286 17.6485C144.197 17.6485 170.548 17.6485 183.554 17.6485C198.03 17.6485 225.286 17.6485 239.084 17.6485C240.893 17.6485 243.608 17.5354 244.738 17.7616C245.756 17.9879 245.53 18.6667 245.53 18.7798C245.53 19.6849 245.191 20.703 245.191 21.9475C245.191 22.9657 245.983 24.6626 245.756 25.3414C245.304 26.9253 242.477 26.5859 239.084 26.5859Z" fill="#703F3F"/>
<path d="M236.483 25.4545H131.191C127.459 25.4545 124.631 25.002 124.631 24.4364V19.6849C124.631 19.1192 127.685 18.6667 131.191 18.6667H236.483C240.215 18.6667 243.042 19.1192 243.042 19.6849V24.4364C243.268 24.8889 240.215 25.4545 236.483 25.4545Z" fill="#F7BBB2"/>
<path d="M120.221 26.3596C110.834 26.3596 91.9468 26.0202 75.4348 26.0202C42.9765 26.0202 6.78604 26.0202 6.78604 26.0202C3.50628 26.0202 0.791992 25.6808 0.791992 25.002V18.7798C0.791992 18.2141 3.39318 17.7616 6.78604 17.7616C6.78604 17.7616 42.9765 17.6485 54.8515 17.5354C70.3456 17.5354 114.566 17.4222 114.566 17.4222C116.262 17.4222 120.786 17.4222 121.917 17.6485C123.161 17.8747 123.727 18.3273 123.727 18.6667C123.727 18.6667 124.066 20.3636 123.84 22.0606C123.727 23.0788 124.179 24.4364 124.179 25.002C124.066 25.6808 123.613 26.3596 120.221 26.3596Z" fill="#703F3F"/>
<path d="M114.679 25.4545H10.2919C6.5598 25.4545 3.73242 25.002 3.73242 24.4364V19.6849C3.73242 19.1192 6.786 18.6667 10.2919 18.6667H114.679C118.411 18.6667 121.238 19.1192 121.238 19.6849V24.4364C121.238 24.8889 118.298 25.4545 114.679 25.4545Z" fill="#F7BBB2"/>
<path d="M742.584 11.2L633.107 11.3131C629.828 11.3131 627.226 11.3131 626.095 10.9737C625.53 10.6343 625.982 9.50303 625.982 8.82424C625.982 7.5798 626.209 5.88283 626.209 5.88283C626.209 5.54344 629.036 5.54344 632.429 5.54344H742.47C745.75 5.54344 748.464 5.88283 748.464 6.22222V10.5212C748.691 10.9737 745.863 11.2 742.584 11.2Z" fill="#703F3F"/>
<path d="M738.512 10.6343H636.614C632.995 10.6343 630.28 10.4081 630.28 10.0687V7.01414C630.28 6.67475 633.221 6.44849 636.614 6.44849H738.512C742.131 6.44849 744.846 6.67475 744.846 7.01414V10.0687C745.072 10.4081 742.018 10.6343 738.512 10.6343Z" fill="#F7BBB2"/>
<path d="M620.893 11.3131H511.191C507.911 11.3131 505.31 11.3131 504.179 10.9737C503.048 10.6343 504.066 9.50303 504.066 8.82424C504.066 7.5798 504.518 6.33535 504.518 6.33535C504.518 5.99596 507.119 5.65656 510.512 5.65656H620.554C623.834 5.65656 626.548 5.54343 626.548 5.99596V11.0869C626.661 11.3131 624.173 11.3131 620.893 11.3131Z" fill="#703F3F"/>
<path d="M616.595 10.6343H514.697C511.078 10.6343 508.363 10.4081 508.363 10.0687V7.01414C508.363 6.67475 511.304 6.44849 514.697 6.44849H616.595C620.214 6.44849 622.929 6.67475 622.929 7.01414V10.0687C623.042 10.4081 620.101 10.6343 616.595 10.6343Z" fill="#F7BBB2"/>
<path d="M498.976 11.2L390.292 11.3131C387.012 11.3131 383.958 11.4263 382.601 11.0869C381.357 10.7475 382.262 9.50303 382.262 8.82424C382.262 7.5798 382.601 5.99596 382.601 5.99596C382.601 5.65657 385.429 5.65657 388.822 5.65657H498.863C502.143 5.65657 504.857 5.99596 504.857 6.33535C504.857 6.33535 505.875 7.69293 505.875 8.82424C505.875 9.50303 506.101 10.295 505.536 10.6343C504.97 11.0869 502.256 11.2 498.976 11.2Z" fill="#703F3F"/>
<path d="M494.905 10.6343H393.006C389.387 10.6343 386.673 10.4081 386.673 10.0687V7.01414C386.673 6.67475 389.613 6.44849 393.006 6.44849H494.905C498.524 6.44849 501.238 6.67475 501.238 7.01414V10.0687C501.351 10.4081 498.411 10.6343 494.905 10.6343Z" fill="#F7BBB2"/>
<path d="M377.399 11.2C377.399 11.2 336.233 11.3131 322.661 11.3131C308.864 11.3131 267.245 11.2 267.245 11.2C263.965 11.2 262.155 11.2 260.911 10.8606C259.667 10.5212 260.685 9.50303 260.685 8.82424C260.685 7.5798 261.137 6.33535 261.137 6.33535C261.137 5.99596 263.739 5.65657 267.132 5.65657H377.173C380.453 5.65657 383.167 5.99596 383.167 6.33535V10.6343C383.393 10.9737 380.679 11.2 377.399 11.2Z" fill="#703F3F"/>
<path d="M373.328 10.6343H271.429C267.81 10.6343 265.096 10.4081 265.096 10.0687V7.01414C265.096 6.67475 268.036 6.44849 271.429 6.44849H373.328C376.947 6.44849 379.661 6.67475 379.661 7.01414V10.0687C379.661 10.4081 376.834 10.6343 373.328 10.6343Z" fill="#F7BBB2"/>
<path d="M256.048 11.3131C242.59 11.3131 216.126 11.2 202.667 11.2C188.53 11.2 145.78 11.0869 145.78 11.0869C142.5 11.0869 140.691 11.0869 139.447 10.7475C138.203 10.4081 139.221 9.3899 139.221 8.71111C139.221 7.46667 139.673 6.22222 139.673 6.22222C139.673 5.88283 142.274 5.54344 145.667 5.54344H255.709C258.989 5.54344 261.703 5.88283 261.703 6.22222C261.703 6.22222 261.816 8.48485 261.816 9.50303C261.816 9.7293 262.608 10.5212 261.364 10.9737C260.911 11.3131 257.745 11.3131 256.048 11.3131Z" fill="#703F3F"/>
<path d="M251.863 10.6343H149.965C146.346 10.6343 143.631 10.4081 143.631 10.0687V7.01414C143.631 6.67475 146.572 6.44849 149.965 6.44849H251.863C255.483 6.44849 258.197 6.67475 258.197 7.01414V10.0687C258.31 10.4081 255.483 10.6343 251.863 10.6343Z" fill="#F7BBB2"/>
<path d="M132.888 11.3131C132.888 11.3131 91.9471 11.2 77.8102 11.2C64.3519 11.2 24.203 11.0869 24.203 11.0869C20.9233 11.0869 18.209 10.7475 18.209 10.4081V6.10909C18.209 5.7697 20.8102 5.4303 24.203 5.4303H134.245C137.524 5.4303 140.691 5.31717 140.691 5.76969C140.691 5.76969 141.03 8.03232 141.03 8.71111C141.03 9.0505 140.917 10.1818 140.917 10.5212C140.917 10.7475 141.37 10.8606 139.899 11.0869C138.429 11.4263 134.584 11.3131 132.888 11.3131Z" fill="#703F3F"/>
<path d="M130.173 10.6343H28.387C24.768 10.6343 22.0537 10.4081 22.0537 10.0687V7.01414C22.0537 6.67475 24.9942 6.44849 28.387 6.44849H130.286C133.905 6.44849 136.619 6.67475 136.619 7.01414V10.0687C136.732 10.4081 133.679 10.6343 130.173 10.6343Z" fill="#F7BBB2"/>
<path d="M737.155 5.65656L627.679 5.99595C624.399 5.99595 621.798 5.65656 620.554 5.4303C619.31 5.0909 620.441 3.95959 620.441 3.2808C620.441 2.03636 620.893 0.791915 620.893 0.791915C620.893 0.452521 623.495 0.113125 626.887 0.113125H736.929C740.209 0.113125 742.923 0.452521 742.923 0.791915V5.0909C743.149 5.4303 740.435 5.65656 737.155 5.65656Z" fill="#703F3F"/>
<path d="M733.084 5.20404H631.072C627.453 5.20404 624.738 4.97778 624.738 4.63839V1.58385C624.738 1.24445 627.679 1.01819 631.072 1.01819H732.97C736.589 1.01819 739.304 1.24445 739.304 1.58385V4.52526C739.53 4.86465 736.589 5.20404 733.084 5.20404Z" fill="#F7BBB2"/>
<path d="M615.351 5.88282L505.988 6.33535C502.709 6.33535 500.56 6.22222 499.316 5.88282C498.072 5.54343 498.524 4.07272 498.524 3.28081C498.524 2.03636 498.976 0.791915 498.976 0.791915C498.976 0.452521 501.578 0.113125 504.97 0.113125H615.012C618.292 0.113125 621.006 0.452521 621.006 0.791915V5.4303C621.119 5.88282 618.744 5.88282 615.351 5.88282Z" fill="#703F3F"/>
<path d="M611.167 5.20404H509.268C505.649 5.20404 502.935 4.97778 502.935 4.63839V1.58385C502.935 1.24445 505.876 1.01819 509.268 1.01819H611.167C614.786 1.01819 617.501 1.24445 617.501 1.58385V4.52526C617.501 4.86465 614.673 5.20404 611.167 5.20404Z" fill="#F7BBB2"/>
<path d="M493.435 5.65656L385.542 5.99595C382.262 5.99595 377.286 5.65656 376.042 5.4303C374.798 5.0909 376.834 3.95959 376.834 3.2808C376.834 2.03636 377.286 0.791915 377.286 0.791915C377.286 0.452521 379.887 0.113125 383.28 0.113125H493.322C496.601 0.113125 499.316 0.452521 499.316 0.791915C499.316 0.791915 500.333 2.14949 500.333 3.2808C500.333 3.95959 500.22 5.31716 499.655 5.76969C499.203 6.10908 496.714 5.65656 493.435 5.65656Z" fill="#703F3F"/>
<path d="M489.363 5.20404H387.465C383.846 5.20404 381.131 4.97778 381.131 4.63839V1.58385C381.131 1.24445 384.072 1.01819 387.465 1.01819H489.363C492.983 1.01819 495.697 1.24445 495.697 1.58385V4.52526C495.923 4.86465 492.869 5.20404 489.363 5.20404Z" fill="#F7BBB2"/>
<path d="M371.857 5.65656C371.857 5.65656 330.691 5.76969 317.119 5.76969C303.322 5.76969 262.494 6.22222 262.494 6.22222C259.215 6.22222 256.953 6.10909 255.709 5.76969C254.465 5.4303 255.143 3.95959 255.143 3.28081C255.143 2.03636 255.596 0.791915 255.596 0.791915C255.596 0.452521 258.197 0.113125 261.59 0.113125H371.631C374.911 0.113125 377.625 0.452521 377.625 0.791915V5.65656C377.965 5.99596 375.137 5.65656 371.857 5.65656Z" fill="#703F3F"/>
<path d="M367.786 5.20404H265.887C262.268 5.20404 259.554 4.97778 259.554 4.63839V1.58385C259.554 1.24445 262.494 1.01819 265.887 1.01819H367.786C371.405 1.01819 374.119 1.24445 374.119 1.58385V4.52526C374.232 4.86465 371.292 5.20404 367.786 5.20404Z" fill="#F7BBB2"/>
<path d="M250.619 5.88283C237.161 5.88283 210.697 5.7697 197.238 5.7697C183.102 5.7697 140.804 5.99596 140.804 5.99596C137.524 5.99596 135.262 5.65657 134.018 5.4303C132.774 5.09091 133.792 4.07273 133.792 3.39394C133.792 2.1495 134.244 0.905051 134.244 0.905051C134.244 0.565657 136.846 0.226265 140.238 0.226265H250.28C253.56 0.226265 256.274 0.565657 256.274 0.905051C256.274 0.905051 256.387 3.16768 256.387 4.18586C256.387 4.41212 257.179 5.20404 255.935 5.65657C255.483 5.7697 252.203 5.88283 250.619 5.88283Z" fill="#703F3F"/>
<path d="M246.435 5.20404H144.536C140.917 5.20404 138.203 4.97778 138.203 4.63839V1.58385C138.203 1.24445 141.143 1.01819 144.536 1.01819H246.435C250.054 1.01819 252.768 1.24445 252.768 1.58385V4.52526C252.768 4.86465 249.941 5.20404 246.435 5.20404Z" fill="#F7BBB2"/>
<path d="M127.345 5.88283C127.345 5.88283 86.4049 5.76969 72.268 5.76969C58.8097 5.76969 18.5478 5.65657 18.5478 5.65657C15.268 5.65657 12.5537 5.31717 12.5537 4.97778V0.678786C12.5537 0.339392 15.1549 0 18.5478 0H128.589C131.869 0 134.583 0.339392 134.583 0.678786C134.583 0.678786 135.375 2.60202 135.375 3.16768C135.375 3.50707 135.601 4.29899 135.601 4.75152C135.601 4.97778 135.488 5.65657 134.131 5.88283C132.774 6.10909 129.155 5.88283 127.345 5.88283Z" fill="#703F3F"/>
<path d="M124.744 5.20404H22.9583C19.3393 5.20404 16.625 4.97778 16.625 4.63839V1.58385C16.625 1.24445 19.5655 1.01819 22.9583 1.01819H124.857C128.476 1.01819 131.19 1.24445 131.19 1.58385V4.52526C131.19 4.86465 128.25 5.20404 124.744 5.20404Z" fill="#F7BBB2"/>
<g filter="url(#filter0_ii)">
<path d="M3.00001 441.527C3.00001 441.509 2.99996 441.491 3.00006 441.473C3.00317 440.921 3.15156 432 9.5 432C12.9943 432 16.5 441.5 26 441.5C47.9487 441.5 81.2451 441.5 106 441.5C109.688 441.5 114.187 437.931 118.074 433.929C122.879 428.98 131.335 428.819 136.245 433.662C140.412 437.771 145.231 441.5 149 441.5C179.266 441.5 196.234 441.5 226.5 441.5C232.012 441.5 238.842 436.994 243.889 432.921C248.061 429.555 254.173 429.304 258.517 432.444C264.31 436.634 272.272 441.5 278 441.5C307.094 441.5 323.406 441.5 352.5 441.5C358.321 441.5 365.994 436.664 371.54 432.484C375.751 429.31 381.749 429.31 385.96 432.484C391.506 436.664 399.179 441.5 405 441.5C434.289 441.5 450.711 441.5 480 441.5C484.677 441.5 490.585 438.191 495.537 434.682C500.869 430.903 508.954 432.032 514.226 435.894C518.354 438.916 523.945 441.5 531 441.5C559.704 441.5 575.797 441.5 604.5 441.5C609.655 441.5 616.367 437.146 621.462 433.129C625.814 429.699 632.187 429.699 636.538 433.129C641.633 437.146 648.345 441.5 653.5 441.5C683.18 441.5 699.82 441.5 729.5 441.5C732.336 441.5 734.837 440.662 737.003 439.382C743.544 435.518 753.907 433.696 755.882 441.032C755.924 441.189 755.964 441.345 756 441.5C756.374 443.094 756.524 444.989 756.551 446.861C756.621 451.833 752.309 455.5 747.336 455.5H13C7.47717 455.5 3.00001 451.023 3.00001 445.5V441.527Z" fill="#532222"/>
</g>
<defs>
<filter id="filter0_ii" x="3" y="430.103" width="753.551" height="25.3966" filterUnits="userSpaceOnUse" color-interpolation-filters="sRGB">
<feFlood flood-opacity="0" result="BackgroundImageFix"/>
<feBlend mode="normal" in="SourceGraphic" in2="BackgroundImageFix" result="shape"/>
<feColorMatrix in="SourceAlpha" type="matrix" values="0 0 0 0 0 0 0 0 0 0 0 0 0 0 0 0 0 0 127 0" result="hardAlpha"/>
<feOffset dy="4"/>
<feComposite in2="hardAlpha" operator="arithmetic" k2="-1" k3="1"/>
<feColorMatrix type="matrix" values="0 0 0 0 1 0 0 0 0 1 0 0 0 0 1 0 0 0 0.25 0"/>
<feBlend mode="normal" in2="shape" result="effect1_innerShadow"/>
<feColorMatrix in="SourceAlpha" type="matrix" values="0 0 0 0 0 0 0 0 0 0 0 0 0 0 0 0 0 0 127 0" result="hardAlpha"/>
<feOffset dy="-4"/>
<feComposite in2="hardAlpha" operator="arithmetic" k2="-1" k3="1"/>
<feColorMatrix type="matrix" values="0 0 0 0 0 0 0 0 0 0 0 0 0 0 0 0 0 0 0.25 0"/>
<feBlend mode="normal" in2="effect1_innerShadow" result="effect2_innerShadow"/>
</filter>
</defs>
</svg>
