<svg width="755" height="275" viewBox="0 0 755 275" fill="none" xmlns="http://www.w3.org/2000/svg">
<path d="M125.247 10.0835C126.755 15.6294 127.257 45.5017 127.383 67.3072C127.508 92.2638 127.006 123.271 126.503 128.942C125.373 139.53 114.695 136.127 106.278 136.127L22.3611 137.892C12.1855 137.892 4.77371 125.413 4.01997 110.036C3.51747 99.4483 2.26123 93.2722 2.26123 67.5593C2.26123 41.8465 4.01997 22.6879 4.01997 22.6879C4.01997 14.495 11.8087 2.77299 17.0849 2.77299H112.433C115.825 2.64695 124.368 4.78969 125.247 10.0835Z" fill="#703F3F"/>
<path d="M117.835 27.2254C120.097 38.1912 120.474 55.8373 120.599 67.5593C120.85 85.0793 118.84 102.725 116.705 111.674C115.072 118.229 108.916 125.161 104.394 126.169C84.1683 130.455 48.9935 131.463 28.7681 128.69C21.7331 127.682 15.2007 122.01 11.432 110.54C8.91949 102.473 8.04013 92.0117 7.78888 73.1052C7.66326 56.9716 8.79387 44.7454 9.92449 35.9224C11.6832 21.6795 19.5975 11.2179 28.8937 10.9658C49.496 10.4616 83.1633 10.9658 101.63 10.4616C108.414 10.0835 115.951 17.1419 117.835 27.2254Z" fill="#F7BBB2"/>
<path d="M68.0884 93.7763H61.8072C52.3854 93.7763 44.5967 86.0877 44.5967 76.5084V67.5593C44.5967 58.1061 52.2597 50.2914 61.8072 50.2914H68.0884C77.5102 50.2914 85.2988 57.98 85.2988 67.5593V76.5084C85.2988 85.9616 77.6358 93.7763 68.0884 93.7763Z" fill="#703535"/>
<path d="M250.62 9.95745C253.509 22.0576 250.62 36.5526 251.75 75.6261C253.132 120.119 256.147 137.387 247.73 137.387C247.73 137.387 200.621 138.144 186.803 138.144C172.482 138.144 131.905 140.034 131.905 140.034C121.73 140.034 122.86 125.413 122.86 84.5752C122.86 68.5676 122.86 9.83141 122.86 9.83141C122.86 1.76464 134.669 0.882324 139.945 0.882324H235.294C244.087 1.00837 249.74 4.78967 250.62 9.95745Z" fill="#703F3F"/>
<path d="M241.072 25.5869C243.334 36.5526 243.71 54.1987 243.836 65.9207C244.087 83.4408 242.077 101.087 239.942 110.036C238.309 116.59 232.153 123.523 227.631 124.531C207.405 128.816 172.23 129.825 152.005 127.052C144.97 126.043 138.438 120.371 134.669 108.902C132.156 100.835 131.277 90.3732 131.026 71.4667C130.9 55.3331 132.031 43.1069 133.161 34.2839C134.92 20.0409 142.834 9.57934 152.131 9.32725C172.733 8.82308 206.4 9.32726 224.867 8.82309C231.65 8.44496 239.314 15.5034 241.072 25.5869Z" fill="#F7BBB2"/>
<path d="M190.571 91.1294H184.29C174.868 91.1294 167.08 83.4408 167.08 73.8615V64.9124C167.08 55.4591 174.743 47.6444 184.29 47.6444H190.571C199.993 47.6444 207.782 55.3331 207.782 64.9124V73.8615C207.656 83.3147 199.993 91.1294 190.571 91.1294Z" fill="#703535"/>
<path d="M373.857 8.19283C375.49 21.0493 374.987 47.0142 374.987 70.9624C374.987 91.5075 382.273 123.396 374.736 135.749C371.344 144.824 320.341 136.127 308.155 135.749C295.467 135.371 253.76 136.631 253.76 136.631C243.585 136.631 247.228 118.607 248.484 84.7012C248.986 68.6937 246.223 9.95743 246.223 9.95743C246.223 1.89065 260.293 1.00836 265.569 1.00836H356.897C359.535 1.00836 362.174 1.26044 364.812 2.0167C369.209 3.27714 373.605 4.66362 373.857 8.19283Z" fill="#703F3F"/>
<path d="M366.445 25.5867C368.706 36.5525 369.083 54.1986 369.209 65.9206C369.46 83.4407 367.45 101.087 365.314 110.036C363.681 116.59 357.526 123.522 353.003 124.531C332.778 128.816 297.603 129.825 277.377 127.052C270.342 126.043 263.81 120.371 260.041 108.901C257.529 100.835 256.65 90.373 256.398 71.4665C256.273 55.333 257.403 43.1068 258.534 34.2837C260.293 20.0408 268.207 9.57922 277.503 9.32713C298.105 8.82296 331.773 9.32714 350.239 8.82297C357.023 8.44484 364.56 15.5033 366.445 25.5867Z" fill="#F7BBB2"/>
<path d="M315.567 95.0367H309.286C299.864 95.0367 292.075 87.348 292.075 77.7687V68.8197C292.075 59.3664 299.738 51.5517 309.286 51.5517H315.567C324.989 51.5517 332.777 59.2404 332.777 68.8197V77.7687C332.652 87.348 324.989 95.0367 315.567 95.0367Z" fill="#703535"/>
<path d="M502.622 9.95743C505.511 22.0576 502.622 36.5526 503.753 75.626C505.134 120.119 508.903 130.581 500.989 135.623C495.336 139.026 452.121 136.001 438.303 136.001C424.107 136.001 378.506 141.421 373.983 132.598C367.576 120.119 375.491 109.532 373.983 68.5676C373.229 48.7788 370.717 16.3856 372.852 8.06677C375.114 -0.882307 386.922 0.882305 392.199 0.882305H487.547C495.964 1.00835 501.868 4.78965 502.622 9.95743Z" fill="#703F3F"/>
<path d="M493.074 25.5868C495.335 36.5526 495.712 54.1987 495.838 65.9207C496.089 83.4407 494.079 101.087 491.944 110.036C490.311 116.59 484.155 123.523 479.632 124.531C459.407 128.816 424.232 129.825 404.007 127.052C396.972 126.043 390.439 120.371 386.671 108.901C384.158 100.835 383.279 90.3731 383.028 71.4666C382.902 55.333 384.033 43.1068 385.163 34.2838C386.922 20.0409 394.836 9.57928 404.132 9.32719C424.735 8.82302 458.402 9.3272 476.869 8.82303C483.652 8.4449 491.19 15.5033 493.074 25.5868Z" fill="#F7BBB2"/>
<path d="M438.554 92.3899H432.273C422.851 92.3899 415.062 84.7012 415.062 75.1219V66.1728C415.062 56.7196 422.725 48.9049 432.273 48.9049H438.554C447.976 48.9049 455.764 56.5935 455.764 66.1728V75.1219C455.764 84.7012 448.101 92.3899 438.554 92.3899Z" fill="#703535"/>
<path d="M624.854 19.2847C627.617 31.3848 627.115 46.8882 627.115 70.9625C627.115 91.5075 629.502 109.154 627.994 119.363C625.607 134.74 616.06 140.917 607.643 140.917C607.643 140.917 570.961 136.631 559.027 136.253C546.087 135.749 505.511 140.664 501.616 134.362C498.225 128.942 499.229 118.481 500.486 84.5752C500.988 68.6937 493.953 23.6962 500.486 8.06679C502.747 2.64693 512.294 0.882324 517.571 0.882324H612.919C616.437 1.00837 623.723 14.2429 624.854 19.2847Z" fill="#703F3F"/>
<path d="M618.447 25.5869C620.708 36.5526 621.085 54.1987 621.211 65.9207C621.462 83.4408 619.452 101.087 617.316 110.036C615.683 116.59 609.527 123.523 605.005 124.531C584.78 128.816 549.605 129.825 529.379 127.052C522.344 126.043 515.812 120.371 512.043 108.902C509.531 100.835 508.651 90.3732 508.4 71.4667C508.275 55.3331 509.405 43.1069 510.536 34.2839C512.295 20.0409 520.209 9.57934 529.505 9.32725C550.107 8.82308 583.775 9.32726 602.241 8.82309C609.025 8.44496 616.688 15.5034 618.447 25.5869Z" fill="#F7BBB2"/>
<path d="M568.197 93.7763H561.916C552.494 93.7763 544.706 86.0877 544.706 76.5084V67.5593C544.706 58.1061 552.369 50.2914 561.916 50.2914H568.197C577.619 50.2914 585.408 57.98 585.408 67.5593V76.5084C585.408 85.9616 577.745 93.7763 568.197 93.7763Z" fill="#703535"/>
<path d="M752.739 9.95741C755.628 22.0576 752.739 36.5526 753.87 75.626C755.251 120.119 756.256 129.321 748.342 134.362C742.689 137.765 702.113 136.127 688.42 136.127C674.224 136.127 626.361 143.185 621.839 134.236C615.432 121.758 625.482 109.532 624.1 68.6936C623.346 48.9048 620.834 16.5117 622.969 8.19281C625.231 -0.756269 637.039 1.00834 642.316 1.00834H737.664C746.207 1.00834 751.985 4.78963 752.739 9.95741Z" fill="#703F3F"/>
<path d="M743.317 25.5867C745.579 36.5525 745.956 54.1986 746.081 65.9206C746.332 83.4407 744.322 101.087 742.187 110.036C740.554 116.59 734.398 123.522 729.876 124.531C709.65 128.816 674.475 129.825 654.25 127.052C647.215 126.043 640.683 120.371 636.914 108.901C634.401 100.835 633.522 90.373 633.271 71.4665C633.145 55.333 634.276 43.1068 635.406 34.2837C637.165 20.0408 645.08 9.57922 654.376 9.32713C674.978 8.82296 708.645 9.32714 727.112 8.82297C733.896 8.44484 741.433 15.5033 743.317 25.5867Z" fill="#F7BBB2"/>
<path d="M697.213 93.7762H690.932C681.51 93.7762 673.721 86.0876 673.721 76.5083V67.5592C673.721 58.106 681.384 50.2913 690.932 50.2913H697.213C706.635 50.2913 714.423 57.9799 714.423 67.5592V76.5083C714.423 85.9615 706.76 93.7762 697.213 93.7762Z" fill="#703535"/>
<path d="M111.052 266.456H15.703C10.4268 266.456 2.63813 254.734 2.63813 246.541C2.63813 246.541 0.879395 227.382 0.879395 201.669C0.879395 175.957 2.01001 169.78 2.63813 159.193C3.39187 143.816 10.8037 131.337 20.9792 131.337L104.896 133.102C113.313 133.102 123.991 129.699 125.122 140.286C125.624 145.832 126.126 176.965 126.001 201.922C125.875 223.727 125.373 253.599 123.865 259.145C122.986 264.313 114.569 266.456 111.052 266.456Z" fill="#703F3F"/>
<path d="M100.248 258.767C81.7811 258.263 48.1138 258.767 27.5115 258.263C18.2153 258.011 10.301 247.549 8.54228 233.306C7.53729 224.483 6.28105 212.383 6.40667 196.124C6.65792 177.217 7.53729 166.755 10.0498 158.689C13.6929 147.093 20.3509 141.547 27.3859 140.538C47.6113 137.765 82.786 138.774 103.012 143.059C107.534 143.942 113.69 151 115.323 157.554C117.458 166.503 119.468 184.149 119.217 201.669C119.091 213.392 118.714 231.038 116.453 242.003C114.695 251.961 107.157 259.019 100.248 258.767Z" fill="#F7BBB2"/>
<path d="M68.0884 219.19H61.8072C52.3854 219.19 44.5967 211.501 44.5967 201.922V192.972C44.5967 183.519 52.2597 175.705 61.8072 175.705H68.0884C77.5102 175.705 85.2988 183.393 85.2988 192.972V201.922C85.2988 211.501 77.6358 219.19 68.0884 219.19Z" fill="#703535"/>
<path d="M234.164 268.22H138.815C133.539 268.22 121.73 267.464 121.73 259.271C121.73 259.271 121.73 200.535 121.73 184.528C121.73 143.689 120.6 129.068 130.775 129.068C130.775 129.068 171.352 130.959 185.673 130.959C199.491 130.959 246.098 135.623 246.098 135.623C254.515 135.623 251.877 148.983 250.62 193.477C249.49 232.676 252.379 247.171 249.49 259.145C248.485 264.313 242.706 268.22 234.164 268.22Z" fill="#703F3F"/>
<path d="M223.486 260.532C205.019 260.028 171.352 260.532 150.749 260.028C141.453 259.775 133.539 249.314 131.78 235.071C130.775 226.248 129.519 214.148 129.644 197.888C129.896 178.982 130.775 168.52 133.288 160.453C136.931 148.857 143.589 143.311 150.624 142.303C170.849 139.53 206.024 140.538 226.249 144.824C230.772 145.706 236.927 152.765 238.56 159.319C240.696 168.268 242.706 185.914 242.455 203.434C242.329 215.156 241.952 232.802 239.691 243.768C237.932 253.725 230.269 260.784 223.486 260.532Z" fill="#F7BBB2"/>
<path d="M190.572 216.543H184.291C174.869 216.543 167.08 208.854 167.08 199.275V190.326C167.08 180.872 174.743 173.058 184.291 173.058H190.572C199.994 173.058 207.782 180.746 207.782 190.326V199.275C207.657 208.854 199.994 216.543 190.572 216.543Z" fill="#703535"/>
<path d="M363.556 266.96C360.918 267.716 358.28 267.968 355.642 267.968H264.313C259.037 267.968 244.967 267.212 244.967 259.019C244.967 259.019 247.731 200.283 247.228 184.275C246.097 150.37 242.329 132.346 252.504 132.346C252.504 132.346 290.945 128.942 303.759 128.438C315.944 128.06 370.34 127.43 373.731 136.379C381.269 148.731 373.731 177.343 373.731 198.014C373.731 222.088 374.108 247.927 372.601 260.784C372.224 264.439 367.953 265.952 363.556 266.96Z" fill="#703F3F"/>
<path d="M348.858 260.532C330.391 260.028 296.724 260.532 276.121 260.028C266.825 259.775 258.911 249.314 257.152 235.071C256.147 226.248 254.891 214.148 255.017 197.888C255.268 178.982 256.147 168.52 258.66 160.453C262.303 148.857 268.961 143.311 275.996 142.303C296.221 139.53 331.396 140.538 351.621 144.824C356.144 145.706 362.299 152.765 363.932 159.319C366.068 168.268 368.078 185.914 367.827 203.434C367.701 215.156 367.324 232.802 365.063 243.768C363.304 253.725 355.767 260.784 348.858 260.532Z" fill="#F7BBB2"/>
<path d="M315.567 220.45H309.286C299.864 220.45 292.075 212.761 292.075 203.182V194.233C292.075 184.78 299.738 176.965 309.286 176.965H315.567C324.989 176.965 332.777 184.654 332.777 194.233V203.182C332.652 212.761 324.989 220.45 315.567 220.45Z" fill="#703535"/>
<path d="M486.165 268.22H390.816C385.54 268.22 373.731 269.985 371.47 261.036C369.335 252.717 371.847 220.324 372.601 200.535C374.108 159.697 366.194 148.983 372.601 136.505C377.123 127.556 422.725 133.102 436.92 133.102C450.739 133.102 491.19 131.337 496.843 134.866C504.757 139.908 503.752 149.109 502.37 193.603C501.24 232.802 504.129 247.297 501.24 259.271C500.486 264.313 494.707 268.22 486.165 268.22Z" fill="#703F3F"/>
<path d="M475.487 260.532C457.02 260.028 423.353 260.532 402.751 260.028C393.455 259.775 385.54 249.314 383.782 235.071C382.777 226.248 381.52 214.148 381.646 197.888C381.897 178.982 382.777 168.52 385.289 160.453C388.932 148.857 395.59 143.311 402.625 142.303C422.851 139.53 458.025 140.538 478.251 144.824C482.773 145.706 488.929 152.765 490.562 159.319C492.697 168.268 494.707 185.914 494.456 203.434C494.331 215.156 493.954 232.802 491.692 243.768C489.934 253.725 482.396 260.784 475.487 260.532Z" fill="#F7BBB2"/>
<path d="M438.553 217.803H432.272C422.85 217.803 415.062 210.114 415.062 200.535V191.586C415.062 182.133 422.725 174.318 432.272 174.318H438.553C447.975 174.318 455.764 182.007 455.764 191.586V200.535C455.764 210.114 448.101 217.803 438.553 217.803Z" fill="#703535"/>
<path d="M611.663 268.22H516.315C511.039 268.22 501.491 266.456 499.23 261.036C492.697 245.533 499.732 200.535 499.23 184.528C498.099 150.622 496.969 140.16 500.36 134.74C504.38 128.438 544.831 133.354 557.771 132.85C569.705 132.472 606.387 128.186 606.387 128.186C614.804 128.186 624.351 134.236 626.738 149.74C628.246 159.949 625.859 177.595 625.859 198.14C625.859 222.215 626.361 237.718 623.598 249.818C622.341 254.986 615.055 268.22 611.663 268.22Z" fill="#703F3F"/>
<path d="M600.86 260.532C582.393 260.028 548.726 260.532 528.123 260.028C518.827 259.775 510.913 249.314 509.154 235.071C508.149 226.248 506.893 214.148 507.018 197.888C507.27 178.982 508.149 168.52 510.662 160.453C514.305 148.857 520.963 143.311 527.998 142.303C548.223 139.53 583.398 140.538 603.623 144.824C608.146 145.706 614.301 152.765 615.934 159.319C618.07 168.268 620.08 185.914 619.829 203.434C619.703 215.156 619.326 232.802 617.065 243.768C615.306 253.725 607.643 260.784 600.86 260.532Z" fill="#F7BBB2"/>
<path d="M568.197 219.19H561.916C552.494 219.19 544.706 211.501 544.706 201.922V192.972C544.706 183.519 552.369 175.705 561.916 175.705H568.197C577.619 175.705 585.408 183.393 585.408 192.972V201.922C585.408 211.501 577.745 219.19 568.197 219.19Z" fill="#703535"/>
<path d="M736.408 268.22H641.059C635.783 268.22 623.974 269.985 621.713 261.036C619.577 252.717 622.09 220.324 622.843 200.535C624.351 159.697 614.301 147.471 620.582 134.992C625.105 126.043 672.967 133.102 687.163 133.102C700.982 133.102 741.433 131.337 747.086 134.866C755 139.908 753.995 149.109 752.613 193.603C751.482 232.802 754.372 247.297 751.482 259.271C750.729 264.313 744.824 268.22 736.408 268.22Z" fill="#703F3F"/>
<path d="M725.729 260.532C707.263 260.028 673.595 260.532 652.993 260.028C643.697 259.775 635.782 249.314 634.024 235.071C633.019 226.248 631.762 214.148 631.888 197.888C632.139 178.982 633.019 168.52 635.531 160.453C639.174 148.857 645.832 143.311 652.867 142.303C673.093 139.53 708.268 140.538 728.493 144.824C733.015 145.706 739.171 152.765 740.804 159.319C742.94 168.268 744.95 185.914 744.698 203.434C744.573 215.156 744.196 232.802 741.935 243.768C740.05 253.725 732.513 260.784 725.729 260.532Z" fill="#F7BBB2"/>
<path d="M697.213 219.189H690.932C681.51 219.189 673.721 211.501 673.721 201.922V192.972C673.721 183.519 681.384 175.704 690.932 175.704H697.213C706.635 175.704 714.423 183.393 714.423 192.972V201.922C714.423 211.501 706.76 219.189 697.213 219.189Z" fill="#703535"/>
<g filter="url(#filter0_ii)">
<path d="M1.21712e-05 260.527C1.21712e-05 260.509 -3.89797e-05 260.491 6.21375e-05 260.473C0.00316531 259.921 0.151561 251 6.5 251C9.99433 251 13.5 260.5 23 260.5C44.9487 260.5 78.2451 260.5 103 260.5C106.688 260.5 111.187 256.931 115.074 252.929C119.879 247.98 128.335 247.819 133.245 252.662C137.412 256.771 142.231 260.5 146 260.5C176.266 260.5 193.234 260.5 223.5 260.5C229.012 260.5 235.842 255.994 240.889 251.921C245.061 248.555 251.173 248.304 255.517 251.444C261.31 255.634 269.272 260.5 275 260.5C304.094 260.5 320.406 260.5 349.5 260.5C355.321 260.5 362.994 255.664 368.54 251.484C372.751 248.31 378.749 248.31 382.96 251.484C388.506 255.664 396.179 260.5 402 260.5C431.289 260.5 447.711 260.5 477 260.5C481.677 260.5 487.585 257.191 492.537 253.682C497.869 249.903 505.954 251.032 511.226 254.894C515.354 257.916 520.945 260.5 528 260.5C556.704 260.5 572.797 260.5 601.5 260.5C606.655 260.5 613.367 256.146 618.462 252.129C622.814 248.699 629.187 248.699 633.538 252.129C638.633 256.146 645.345 260.5 650.5 260.5C680.18 260.5 696.82 260.5 726.5 260.5C729.336 260.5 731.837 259.662 734.003 258.382C740.544 254.518 750.907 252.696 752.882 260.032C752.924 260.189 752.964 260.345 753 260.5C753.374 262.094 753.524 263.989 753.551 265.861C753.621 270.833 749.309 274.5 744.336 274.5H10C4.47717 274.5 1.21712e-05 270.023 1.21712e-05 264.5V260.527Z" fill="#532222"/>
</g>
<defs>
<filter id="filter0_ii" x="0" y="249.103" width="753.551" height="25.3966" filterUnits="userSpaceOnUse" color-interpolation-filters="sRGB">
<feFlood flood-opacity="0" result="BackgroundImageFix"/>
<feBlend mode="normal" in="SourceGraphic" in2="BackgroundImageFix" result="shape"/>
<feColorMatrix in="SourceAlpha" type="matrix" values="0 0 0 0 0 0 0 0 0 0 0 0 0 0 0 0 0 0 127 0" result="hardAlpha"/>
<feOffset dy="4"/>
<feComposite in2="hardAlpha" operator="arithmetic" k2="-1" k3="1"/>
<feColorMatrix type="matrix" values="0 0 0 0 1 0 0 0 0 1 0 0 0 0 1 0 0 0 0.25 0"/>
<feBlend mode="normal" in2="shape" result="effect1_innerShadow"/>
<feColorMatrix in="SourceAlpha" type="matrix" values="0 0 0 0 0 0 0 0 0 0 0 0 0 0 0 0 0 0 127 0" result="hardAlpha"/>
<feOffset dy="-4"/>
<feComposite in2="hardAlpha" operator="arithmetic" k2="-1" k3="1"/>
<feColorMatrix type="matrix" values="0 0 0 0 0 0 0 0 0 0 0 0 0 0 0 0 0 0 0.25 0"/>
<feBlend mode="normal" in2="effect1_innerShadow" result="effect2_innerShadow"/>
</filter>
</defs>
</svg>
