<svg width="588" height="159" viewBox="0 0 588 159" fill="none" xmlns="http://www.w3.org/2000/svg">
<path d="M95.5002 12.3C96.7002 18.4 97.1002 51.3 97.2002 75.4C97.3002 102.9 96.9002 137.1 96.5002 143.3C95.6002 155 87.3002 151.2 80.8002 151.2L15.8002 153.1C7.9002 153.1 2.20019 139.3 1.60019 122.4C1.20019 110.7 0.200195 103.9 0.200195 75.6C0.200195 47.3 1.60019 26.2 1.60019 26.2C1.60019 17.2 7.60019 4.30001 11.7002 4.30001H85.6002C88.2002 4.10001 94.8002 6.50001 95.5002 12.3Z" fill="#703F3F"/>
<path d="M89.7003 31.2C91.5003 43.3 91.7003 62.7 91.8003 75.6C92.0003 94.9 90.4003 114.4 88.8003 124.2C87.5003 131.4 82.8003 139.1 79.3003 140.2C63.6003 144.9 36.4003 146 20.7003 143C15.2003 141.9 10.2003 135.6 7.3003 123C5.4003 114.1 4.70031 102.6 4.50031 81.7C4.40031 63.9 5.30031 50.4 6.20031 40.7C7.60031 25 13.7003 13.5 20.9003 13.2C36.9003 12.6 63.0003 13.2 77.3003 12.6C82.4003 12.3 88.3003 20.1 89.7003 31.2Z" fill="#F7BBB2"/>
<path d="M47.7 97.4H42.7C35.2 97.4 29 91.3 29 83.7V76.6C29 69.1 35.1 62.9 42.7 62.9H47.7C55.2 62.9 61.4 69 61.4 76.6V83.7C61.4 91.2 55.3 97.4 47.7 97.4Z" fill="#703535"/>
<path d="M192.7 12.2C194.9 25.5 192.7 41.5 193.6 84.6C194.7 133.6 193.5 153.9 187 153.9C187 153.9 154 153.5 143.3 153.5C132.2 153.5 100.7 155.6 100.7 155.6C92.7999 155.6 93.6999 139.5 93.6999 94.5C93.6999 76.9 93.6999 12.1 93.6999 12.1C93.6999 3.20002 102.9 2.20001 106.9 2.20001H180.8C187.6 2.30001 192 6.50001 192.7 12.2Z" fill="#703F3F"/>
<path d="M185.3 29.4C187.1 41.5 187.3 60.9 187.4 73.8C187.6 93.1 186 112.6 184.4 122.4C183.1 129.6 178.4 137.3 174.9 138.4C159.2 143.1 132 144.2 116.3 141.2C110.8 140.1 105.8 133.8 102.9 121.2C101 112.3 100.3 100.8 100.1 79.9C99.9999 62.1 100.9 48.6 101.8 38.9C103.2 23.2 109.3 11.7 116.5 11.4C132.5 10.8 158.6 11.4 172.9 10.8C178 10.5 183.9 18.3 185.3 29.4Z" fill="#F7BBB2"/>
<path d="M144.2 95.3H139.2C131.7 95.3 125.5 89.2001 125.5 81.6001V74.5C125.5 67 131.6 60.8 139.2 60.8H144.2C151.7 60.8 157.9 66.9 157.9 74.5V81.6001C157.8 89.1001 151.7 95.3 144.2 95.3Z" fill="#703535"/>
<path d="M288.2 10.2C289.5 24.4 289.1 53 289.1 79.4C289.1 102 293.5 134.8 287.5 148.4C284.9 158.4 251.2 152 241.7 151.6C231.9 151.2 196.6 154 196.6 154C188.7 154 190 131.9 191 94.6C191.4 77 189.2 12.2 189.2 12.2C189.2 3.29998 200.1 2.29999 204.2 2.29999H275C277 2.29999 279.1 2.59998 281.1 3.39998C284.6 4.79998 288 6.29998 288.2 10.2Z" fill="#703F3F"/>
<path d="M282.5 29.4C284.3 41.5 284.5 60.9 284.6 73.8C284.8 93.1 283.2 112.6 281.6 122.4C280.3 129.6 275.6 137.3 272.1 138.4C256.4 143.1 229.2 144.2 213.5 141.2C208 140.1 203 133.8 200.1 121.2C198.2 112.3 197.5 100.8 197.3 79.9C197.2 62.1 198.1 48.6 199 38.9C200.4 23.2 206.5 11.7 213.7 11.4C229.7 10.8 255.8 11.4 270.1 10.8C275.1 10.5 281 18.3 282.5 29.4Z" fill="#F7BBB2"/>
<path d="M241.7 98.4H236.7C229.2 98.4 223 92.3 223 84.7V77.6C223 70.1 229.1 63.9 236.7 63.9H241.7C249.2 63.9 255.4 70 255.4 77.6V84.7C255.3 92.3 249.2 98.4 241.7 98.4Z" fill="#703535"/>
<path d="M388 12.2C390.2 25.5 388 41.5 388.9 84.6C390 133.6 392.9 145.2 386.8 150.7C382.4 154.5 348.9 151.1 338.2 151.1C327.2 151.1 291.8 157.1 288.3 147.3C283.3 133.5 289.5 121.9 288.3 76.7C287.7 54.9 285.8 19.2 287.4 10C289.2 0.100005 298.3 2.10001 302.4 2.10001H376.3C382.8 2.30001 387.4 6.5 388 12.2Z" fill="#703F3F"/>
<path d="M380.6 29.4C382.4 41.5 382.6 60.9 382.7 73.8C382.9 93.1 381.3 112.6 379.7 122.4C378.4 129.6 373.7 137.3 370.2 138.4C354.5 143.1 327.3 144.2 311.6 141.2C306.1 140.1 301.1 133.8 298.2 121.2C296.3 112.3 295.6 100.8 295.4 79.9C295.3 62.1 296.2 48.6 297.1 38.9C298.5 23.2 304.6 11.7 311.8 11.4C327.8 10.8 353.9 11.4 368.2 10.8C373.3 10.5 379.1 18.3 380.6 29.4Z" fill="#F7BBB2"/>
<path d="M342.6 93.3H337.6C330.1 93.3 323.9 87.2 323.9 79.6V72.5C323.9 65 330 58.8 337.6 58.8H342.6C350.1 58.8 356.3 64.9 356.3 72.5V79.6C356.3 87.2 350.2 93.3 342.6 93.3Z" fill="#703535"/>
<path d="M482.8 22.4C484.9 35.7 484.6 52.8 484.6 79.3C484.6 101.9 486.5 121.4 485.3 132.6C483.4 149.5 480.2 156.1 473.7 156.1C473.7 156.1 442.3 154.8 433.1 154.4C423.1 153.8 390.4 155.9 387.3 149.1C384.7 143.1 385.4 131.6 386.4 94.2C386.8 76.7 381.3 27.1 386.4 9.90001C388.2 3.90001 395.6 2.00001 399.6 2.00001C399.6 2.00001 455.4 -1.49999 473.5 2.00001C480.5 3.50001 481.9 16.9 482.8 22.4Z" fill="#703F3F"/>
<path d="M477.8 29.4C479.6 41.5 479.8 60.9 479.9 73.8C480.1 93.1 478.5 112.6 476.9 122.4C475.6 129.6 470.9 137.3 467.4 138.4C451.7 143.1 424.5 144.2 408.8 141.2C403.3 140.1 398.3 133.8 395.4 121.2C393.5 112.3 392.8 100.8 392.6 79.9C392.5 62.1 393.4 48.6 394.3 38.9C395.7 23.2 401.8 11.7 409 11.4C425 10.8 451.1 11.4 465.4 10.8C470.5 10.5 476.4 18.3 477.8 29.4Z" fill="#F7BBB2"/>
<path d="M439.8 96.4H434.8C427.3 96.4 421.1 90.3 421.1 82.7V75.6C421.1 68.1 427.2 61.9 434.8 61.9H439.8C447.3 61.9 453.5 68 453.5 75.6V82.7C453.5 90.2 447.4 96.4 439.8 96.4Z" fill="#703535"/>
<path d="M581.9 12.2C584.1 25.5 581.9 41.5 582.8 84.6C583.9 133.6 584.7 143.8 578.5 149.3C574.1 153.1 541.6 153.1 531 153.1C520 153.1 483.9 159.1 480.4 149.2C475.4 135.4 483.2 122 482.2 77C481.6 55.2 479.7 19.5 481.3 10.3C483.1 0.400005 492.2 2.4 496.3 2.4H570.2C576.8 2.3 581.3 6.5 581.9 12.2Z" fill="#703F3F"/>
<path d="M574.6 29.4C576.4 41.5 576.6 60.9 576.7 73.8C576.9 93.1 575.3 112.6 573.7 122.4C572.4 129.6 567.7 137.3 564.2 138.4C548.5 143.1 521.3 144.2 505.6 141.2C500.1 140.1 495.1 133.8 492.2 121.2C490.3 112.3 489.6 100.8 489.4 79.9C489.3 62.1 490.2 48.6 491.1 38.9C492.5 23.2 498.6 11.7 505.8 11.4C521.8 10.8 547.9 11.4 562.2 10.8C567.3 10.5 573.1 18.3 574.6 29.4Z" fill="#F7BBB2"/>
<path d="M537.5 97.4H532.5C525 97.4 518.8 91.3 518.8 83.7V76.6C518.8 69.1 524.9 62.9 532.5 62.9H537.5C545 62.9 551.2 69 551.2 76.6V83.7C551.2 91.2 545.1 97.4 537.5 97.4Z" fill="#703535"/>
<g filter="url(#filter0_ii)">
<path d="M9.49161e-06 144.521C9.49161e-06 144.507 -2.17195e-05 144.498 1.25633e-05 144.484C0.00107951 144.047 0.0833662 135 5.06897 135C7.79399 135 10.5279 144.5 17.9363 144.5C35.0529 144.5 61.0188 144.5 80.3236 144.5C82.1893 144.5 84.3213 142.998 86.4164 140.85C91.9107 135.217 101.808 135.018 107.356 140.597C109.625 142.879 111.919 144.5 113.857 144.5C137.459 144.5 150.692 144.5 174.294 144.5C177.664 144.5 181.666 141.73 185.135 138.571C189.821 134.302 197.348 133.982 202.212 138.048C206.243 141.418 210.902 144.5 214.456 144.5C237.145 144.5 249.866 144.5 272.554 144.5C276.175 144.5 280.714 141.424 284.598 138.058C289.322 133.963 296.728 133.963 301.453 138.058C305.336 141.424 309.876 144.5 313.496 144.5C336.337 144.5 349.143 144.5 371.984 144.5C374.449 144.5 377.354 142.988 380.17 140.925C386.206 136.501 396.036 137.852 402.41 141.775C405.035 143.39 408.15 144.5 411.756 144.5C434.14 144.5 446.69 144.5 469.074 144.5C472.17 144.5 475.986 141.918 479.391 138.896C484.275 134.563 492.086 134.563 496.97 138.896C500.375 141.918 504.191 144.5 507.286 144.5C530.432 144.5 543.409 144.5 566.554 144.5C568.411 144.5 570.084 143.909 571.573 142.962C577.085 139.455 586.044 138.073 587.22 144.5C587.497 146.013 587.616 147.796 587.646 149.575C587.729 154.665 583.371 158.5 578.28 158.5H9.99998C4.47714 158.5 9.49161e-06 154.023 9.49161e-06 148.5V144.521Z" fill="#532222"/>
</g>
<defs>
<filter id="filter0_ii" x="0" y="134.986" width="587.647" height="23.5136" filterUnits="userSpaceOnUse" color-interpolation-filters="sRGB">
<feFlood flood-opacity="0" result="BackgroundImageFix"/>
<feBlend mode="normal" in="SourceGraphic" in2="BackgroundImageFix" result="shape"/>
<feColorMatrix in="SourceAlpha" type="matrix" values="0 0 0 0 0 0 0 0 0 0 0 0 0 0 0 0 0 0 127 0" result="hardAlpha"/>
<feOffset dy="4"/>
<feComposite in2="hardAlpha" operator="arithmetic" k2="-1" k3="1"/>
<feColorMatrix type="matrix" values="0 0 0 0 1 0 0 0 0 1 0 0 0 0 1 0 0 0 0.25 0"/>
<feBlend mode="normal" in2="shape" result="effect1_innerShadow"/>
<feColorMatrix in="SourceAlpha" type="matrix" values="0 0 0 0 0 0 0 0 0 0 0 0 0 0 0 0 0 0 127 0" result="hardAlpha"/>
<feOffset dy="-4"/>
<feComposite in2="hardAlpha" operator="arithmetic" k2="-1" k3="1"/>
<feColorMatrix type="matrix" values="0 0 0 0 0 0 0 0 0 0 0 0 0 0 0 0 0 0 0.25 0"/>
<feBlend mode="normal" in2="effect1_innerShadow" result="effect2_innerShadow"/>
</filter>
</defs>
</svg>
