<svg width="755" height="143" viewBox="0 0 755 143" fill="none" xmlns="http://www.w3.org/2000/svg">
<path d="M124.198 9.90827C125.708 15.4167 126.211 45.087 126.337 66.7451C126.463 91.533 125.959 122.33 125.456 127.964C124.323 138.48 113.628 135.1 105.197 135.1L21.1402 136.852C10.9477 136.852 3.5235 124.458 2.7685 109.185C2.26517 98.6689 1.00684 92.5345 1.00684 66.9955C1.00684 41.4565 2.7685 22.4274 2.7685 22.4274C2.7685 14.29 10.5702 2.64717 15.8552 2.64717H111.363C114.76 2.52197 123.317 4.65023 124.198 9.90827Z" fill="#703F3F"/>
<path d="M116.773 26.9338C119.038 37.8254 119.416 55.3522 119.542 66.995C119.793 84.3966 117.78 101.923 115.641 110.812C114.005 117.322 107.839 124.207 103.309 125.209C83.05 129.465 47.8166 130.467 27.5575 127.713C20.5108 126.711 13.9675 121.078 10.1925 109.685C7.67579 101.673 6.79496 91.2821 6.54329 72.5034C6.41746 56.4789 7.54996 44.3354 8.68246 35.572C10.4441 21.4253 18.3716 11.0345 27.6833 10.7841C48.32 10.2833 82.0433 10.7841 100.541 10.2833C107.336 9.90774 114.886 16.9185 116.773 26.9338Z" fill="#F7BBB2"/>
<path d="M66.9434 93.0359H60.6518C51.2143 93.0359 43.4126 85.3993 43.4126 75.8847V66.9961C43.4126 57.6068 51.0884 49.8449 60.6518 49.8449H66.9434C76.3809 49.8449 84.1826 57.4816 84.1826 66.9961V75.8847C84.1826 85.2741 76.5068 93.0359 66.9434 93.0359Z" fill="#703535"/>
<path d="M249.779 9.78269C252.674 21.8011 249.779 36.1981 250.912 75.0074C252.296 119.2 250.786 137.478 242.355 137.478C242.355 137.478 199.698 137.102 185.856 137.102C171.511 137.102 130.867 138.98 130.867 138.98C120.674 138.98 121.807 124.458 121.807 83.896C121.807 67.9967 121.807 9.65751 121.807 9.65751C121.807 1.64527 133.635 0.768921 138.92 0.768921H234.428C243.236 0.894112 248.899 4.64985 249.779 9.78269Z" fill="#703F3F"/>
<path d="M240.216 25.3066C242.481 36.1982 242.859 53.725 242.985 65.3678C243.236 82.7694 241.223 100.296 239.084 109.185C237.448 115.695 231.282 122.58 226.752 123.582C206.493 127.838 171.259 128.84 151 126.086C143.954 125.084 137.41 119.45 133.635 108.058C131.119 100.046 130.238 89.6549 129.986 70.8762C129.86 54.8517 130.993 42.7082 132.125 33.9448C133.887 19.7981 141.815 9.40726 151.126 9.15688C171.763 8.65611 205.486 9.15688 223.984 8.65612C230.779 8.28055 238.454 15.2913 240.216 25.3066Z" fill="#F7BBB2"/>
<path d="M189.631 90.4061H183.339C173.902 90.4061 166.1 82.7694 166.1 73.2549V64.3663C166.1 54.9769 173.776 47.2151 183.339 47.2151H189.631C199.068 47.2151 206.87 54.8518 206.87 64.3663V73.2549C206.744 82.6442 199.068 90.4061 189.631 90.4061Z" fill="#703535"/>
<path d="M373.222 8.0297C374.858 20.7992 374.354 46.5886 374.354 70.375C374.354 90.7812 380.017 120.326 372.341 132.595C368.943 141.609 325.405 135.85 313.199 135.474C300.49 135.099 254.938 137.603 254.938 137.603C244.746 137.603 246.382 117.697 247.64 84.0208C248.143 68.1215 245.375 9.78237 245.375 9.78237C245.375 1.77013 259.468 0.893799 264.753 0.893799H356.234C358.877 0.893799 361.519 1.14419 364.162 1.89533C368.566 3.14725 372.97 4.52434 373.222 8.0297Z" fill="#703F3F"/>
<path d="M365.797 25.3069C368.062 36.1986 368.44 53.7254 368.566 65.3682C368.817 82.7697 366.804 100.297 364.665 109.185C363.029 115.695 356.863 122.581 352.333 123.582C332.074 127.839 296.841 128.84 276.581 126.086C269.535 125.084 262.991 119.451 259.216 108.058C256.7 100.046 255.819 89.6553 255.567 70.8766C255.441 54.8521 256.574 42.7085 257.706 33.9451C259.468 19.7985 267.396 9.40763 276.707 9.15724C297.344 8.65648 331.067 9.15725 349.565 8.65649C356.36 8.28091 363.91 15.2916 365.797 25.3069Z" fill="#F7BBB2"/>
<path d="M314.835 94.2876H308.543C299.106 94.2876 291.304 86.6509 291.304 77.1364V68.2478C291.304 58.8584 298.98 51.0966 308.543 51.0966H314.835C324.273 51.0966 332.074 58.7332 332.074 68.2478V77.1364C331.948 86.6509 324.273 94.2876 314.835 94.2876Z" fill="#703535"/>
<path d="M502.201 9.78294C505.095 21.8013 502.201 36.1983 503.334 75.0076C504.718 119.2 508.493 129.591 500.565 134.599C494.903 137.979 451.616 134.974 437.774 134.974C423.555 134.974 377.878 140.358 373.348 131.594C366.93 119.2 374.858 108.684 373.348 67.9969C372.593 48.3419 370.076 16.1677 372.215 7.90507C374.48 -0.983514 386.309 0.769168 391.594 0.769168H487.101C495.532 0.894359 501.446 4.65009 502.201 9.78294Z" fill="#703F3F"/>
<path d="M492.638 25.3068C494.903 36.1984 495.28 53.7252 495.406 65.368C495.658 82.7696 493.644 100.296 491.505 109.185C489.869 115.695 483.703 122.58 479.173 123.582C458.914 127.838 423.681 128.84 403.422 126.086C396.375 125.084 389.832 119.451 386.057 108.058C383.54 100.046 382.659 89.6551 382.408 70.8764C382.282 54.8519 383.414 42.7083 384.547 33.9449C386.308 19.7983 394.236 9.40744 403.548 9.15706C424.184 8.65629 457.908 9.15707 476.405 8.6563C483.2 8.28073 490.75 15.2914 492.638 25.3068Z" fill="#F7BBB2"/>
<path d="M438.026 91.6576H431.734C422.297 91.6576 414.495 84.0209 414.495 74.5064V65.6178C414.495 56.2284 422.171 48.4666 431.734 48.4666H438.026C447.463 48.4666 455.265 56.1032 455.265 65.6178V74.5064C455.265 84.0209 447.589 91.6576 438.026 91.6576Z" fill="#703535"/>
<path d="M624.637 19.0469C627.405 31.0652 626.902 46.4638 626.902 70.3753C626.902 90.7815 629.293 108.308 627.783 118.449C625.392 133.722 621.239 139.606 612.808 139.606C612.808 139.606 573.548 135.85 561.594 135.475C548.633 134.974 505.221 139.481 501.194 133.347C497.797 127.963 498.803 117.572 500.062 83.896C500.565 68.1219 493.518 23.4285 500.062 7.90482C502.327 2.5216 511.89 0.768921 517.175 0.768921H612.683C616.206 0.894112 623.504 14.0392 624.637 19.0469Z" fill="#703F3F"/>
<path d="M618.219 25.3066C620.484 36.1982 620.862 53.725 620.987 65.3678C621.239 82.7694 619.226 100.296 617.087 109.185C615.451 115.695 609.285 122.58 604.755 123.582C584.496 127.838 549.262 128.84 529.003 126.086C521.957 125.084 515.413 119.45 511.638 108.058C509.122 100.046 508.241 89.6549 507.989 70.8762C507.863 54.8517 508.996 42.7082 510.128 33.9448C511.89 19.7981 519.817 9.40726 529.129 9.15688C549.766 8.65611 583.489 9.15688 601.987 8.65612C608.782 8.28055 616.457 15.2913 618.219 25.3066Z" fill="#F7BBB2"/>
<path d="M567.886 93.0345H561.594C552.157 93.0345 544.355 85.3978 544.355 75.8832V66.9947C544.355 57.6053 552.031 49.8434 561.594 49.8434H567.886C577.323 49.8434 585.125 57.4801 585.125 66.9947V75.8832C585.125 85.2726 577.449 93.0345 567.886 93.0345Z" fill="#703535"/>
<path d="M752.735 9.78262C755.629 21.801 752.735 36.198 753.868 75.0073C755.252 119.2 756.258 128.339 748.331 133.346C742.668 136.727 702.024 135.099 688.308 135.099C674.089 135.099 626.147 142.11 621.617 133.221C615.199 120.827 625.266 108.684 623.882 68.1218C623.127 48.4667 620.61 16.2926 622.749 8.02995C625.014 -0.858637 636.843 0.894046 642.128 0.894046H737.635C746.192 0.894046 751.98 4.64977 752.735 9.78262Z" fill="#703F3F"/>
<path d="M743.298 25.3066C745.563 36.1983 745.94 53.7251 746.066 65.3679C746.318 82.7694 744.304 100.296 742.165 109.185C740.529 115.695 734.364 122.58 729.834 123.582C709.574 127.838 674.341 128.84 654.082 126.086C647.035 125.084 640.492 119.45 636.717 108.058C634.2 100.046 633.319 89.655 633.068 70.8763C632.942 54.8518 634.074 42.7082 635.207 33.9448C636.969 19.7982 644.896 9.40732 654.208 9.15694C674.844 8.65617 708.568 9.15695 727.065 8.65618C733.86 8.28061 741.41 15.2913 743.298 25.3066Z" fill="#F7BBB2"/>
<path d="M697.117 93.0345H690.826C681.388 93.0345 673.586 85.3978 673.586 75.8833V66.9947C673.586 57.6054 681.262 49.8435 690.826 49.8435H697.117C706.555 49.8435 714.356 57.4802 714.356 66.9947V75.8833C714.356 85.2727 706.681 93.0345 697.117 93.0345Z" fill="#703535"/>
<g filter="url(#filter0_ii)">
<path d="M1.21712e-05 128.527C1.21712e-05 128.509 -3.89797e-05 128.491 6.21375e-05 128.473C0.00316531 127.921 0.151561 119 6.5 119C9.99433 119 13.5 128.5 23 128.5C44.9487 128.5 78.2451 128.5 103 128.5C106.688 128.5 111.187 124.931 115.074 120.929C119.879 115.98 128.335 115.819 133.245 120.662C137.412 124.771 142.231 128.5 146 128.5C176.266 128.5 193.234 128.5 223.5 128.5C229.012 128.5 235.842 123.994 240.889 119.921C245.061 116.555 251.173 116.304 255.517 119.444C261.31 123.634 269.272 128.5 275 128.5C304.094 128.5 320.406 128.5 349.5 128.5C355.321 128.5 362.994 123.664 368.54 119.484C372.751 116.31 378.749 116.31 382.96 119.484C388.506 123.664 396.179 128.5 402 128.5C431.289 128.5 447.711 128.5 477 128.5C481.677 128.5 487.585 125.191 492.537 121.682C497.869 117.903 505.954 119.032 511.226 122.894C515.354 125.916 520.945 128.5 528 128.5C556.704 128.5 572.797 128.5 601.5 128.5C606.655 128.5 613.367 124.146 618.462 120.129C622.814 116.699 629.187 116.699 633.538 120.129C638.633 124.146 645.345 128.5 650.5 128.5C680.18 128.5 696.82 128.5 726.5 128.5C729.336 128.5 731.837 127.662 734.003 126.382C740.544 122.518 750.907 120.696 752.882 128.032C752.924 128.189 752.964 128.345 753 128.5C753.374 130.094 753.524 131.989 753.551 133.861C753.621 138.833 749.309 142.5 744.336 142.5H10C4.47717 142.5 1.21712e-05 138.023 1.21712e-05 132.5V128.527Z" fill="#532222"/>
</g>
<defs>
<filter id="filter0_ii" x="0" y="117.103" width="753.551" height="25.3966" filterUnits="userSpaceOnUse" color-interpolation-filters="sRGB">
<feFlood flood-opacity="0" result="BackgroundImageFix"/>
<feBlend mode="normal" in="SourceGraphic" in2="BackgroundImageFix" result="shape"/>
<feColorMatrix in="SourceAlpha" type="matrix" values="0 0 0 0 0 0 0 0 0 0 0 0 0 0 0 0 0 0 127 0" result="hardAlpha"/>
<feOffset dy="4"/>
<feComposite in2="hardAlpha" operator="arithmetic" k2="-1" k3="1"/>
<feColorMatrix type="matrix" values="0 0 0 0 1 0 0 0 0 1 0 0 0 0 1 0 0 0 0.25 0"/>
<feBlend mode="normal" in2="shape" result="effect1_innerShadow"/>
<feColorMatrix in="SourceAlpha" type="matrix" values="0 0 0 0 0 0 0 0 0 0 0 0 0 0 0 0 0 0 127 0" result="hardAlpha"/>
<feOffset dy="-4"/>
<feComposite in2="hardAlpha" operator="arithmetic" k2="-1" k3="1"/>
<feColorMatrix type="matrix" values="0 0 0 0 0 0 0 0 0 0 0 0 0 0 0 0 0 0 0.25 0"/>
<feBlend mode="normal" in2="effect1_innerShadow" result="effect2_innerShadow"/>
</filter>
</defs>
</svg>
