<svg width="669" height="63" viewBox="0 0 669 63" fill="none" xmlns="http://www.w3.org/2000/svg">
<path d="M160.5 49.1H13.5004C9.10039 49.1 5.40039 46.6 5.40039 43.4V6.60002C5.40039 3.50002 8.90039 0.900024 13.5004 0.900024H160.5C164.9 0.900024 168.6 3.40002 168.6 6.60002V43.6C168.6 46.6 165 49.1 160.5 49.1Z" fill="#703F3F"/>
<path d="M155.1 46H19.1C14.3 46 10.5 43.2 10.5 40V10.2C10.5 6.80001 14.4 4.20001 19.1 4.20001H155.2C160 4.20001 163.8 7.00001 163.8 10.2V39.9C163.7 43.2 159.8 46 155.1 46Z" fill="#F7BBB2"/>
<path d="M102.601 33H70.0006C64.8006 33 60.6006 29.8 60.6006 25.9V23.9C60.6006 20 65.0006 16.8 70.0006 16.8H102.501C107.701 16.8 111.901 20 111.901 23.9V25.9C112.001 29.9 107.601 33 102.601 33Z" fill="#703535"/>
<path d="M323 49.1H176C171.6 49.1 167.9 46.6 167.9 43.4V6.60002C167.9 3.50002 171.4 0.900024 176 0.900024H323C327.4 0.900024 331.1 3.40002 331.1 6.60002V43.6C331.1 46.6 327.5 49.1 323 49.1Z" fill="#703F3F"/>
<path d="M317.6 46H181.5C176.7 46 172.9 43.2 172.9 40V10.2C172.9 6.80001 176.8 4.20001 181.5 4.20001H317.6C322.4 4.20001 326.2 7.00001 326.2 10.2V39.9C326.2 43.2 322.3 46 317.6 46Z" fill="#F7BBB2"/>
<path d="M265.9 33H233.4C228.2 33 224 29.8 224 25.9V23.9C224 20 228.4 16.8 233.4 16.8H265.9C271.1 16.8 275.3 20 275.3 23.9V25.9C275.3 29.9 271 33 265.9 33Z" fill="#703535"/>
<path d="M485.5 49.1H338.5C334.1 49.1 330.4 46.6 330.4 43.4V6.60002C330.4 3.50002 333.9 0.900024 338.5 0.900024H485.5C489.9 0.900024 493.6 3.40002 493.6 6.60002V43.6C493.5 46.6 490 49.1 485.5 49.1Z" fill="#703F3F"/>
<path d="M480.1 46H344C339.2 46 335.4 43.2 335.4 40V10.2C335.4 6.80001 339.3 4.20001 344 4.20001H480.1C484.9 4.20001 488.7 7.00001 488.7 10.2V39.9C488.6 43.2 484.7 46 480.1 46Z" fill="#F7BBB2"/>
<path d="M427.9 33H395.4C390.2 33 386 29.8 386 25.9V23.9C386 20 390.4 16.8 395.4 16.8H427.9C433.1 16.8 437.3 20 437.3 23.9V25.9C437.3 29.9 433 33 427.9 33Z" fill="#703535"/>
<path d="M647.9 49.1H501C496.6 49.1 492.9 46.6 492.9 43.4V6.60002C492.9 3.50002 496.4 0.900024 501 0.900024H648C652.4 0.900024 656.1 3.40002 656.1 6.60002V43.6C656 46.6 652.5 49.1 647.9 49.1Z" fill="#703F3F"/>
<path d="M642.6 46H506.5C501.7 46 497.9 43.2 497.9 40V10.2C497.9 6.80001 501.8 4.20001 506.5 4.20001H642.6C647.4 4.20001 651.2 7.00001 651.2 10.2V39.9C651.1 43.2 647.2 46 642.6 46Z" fill="#F7BBB2"/>
<path d="M591.2 33H558.7C553.5 33 549.3 29.8 549.3 25.9V23.9C549.3 20 553.7 16.8 558.7 16.8H591.2C596.4 16.8 600.6 20 600.6 23.9V25.9C600.7 29.9 596.3 33 591.2 33Z" fill="#703535"/>
<g filter="url(#filter0_ii)">
<path d="M1.00962 48.8655C1.00963 48.4326 0.970917 47.9976 1.03355 47.5692C1.22238 46.2775 2.39717 43.5 9.00954 43.5C13.6049 43.5 11.7633 48.2154 26.2568 48.2154C55.1216 48.2154 117.91 48.2154 150.465 48.2154C154.054 48.2154 157.171 47.453 159.744 46.4239C164.878 44.3703 171.509 44.0557 176.637 46.1246C179.555 47.3017 183.085 48.2154 187.014 48.2154C226.816 48.2154 268.132 48.2154 307.934 48.2154C315.941 48.2154 322.397 46.8339 326.245 45.7436C328.788 45.0234 331.526 45.0082 334.071 45.7183C337.992 46.8124 344.593 48.2154 352.662 48.2154C390.923 48.2154 430.375 48.2154 468.637 48.2154C477.688 48.2154 485.639 46.5164 489.887 45.3997C492.027 44.837 494.289 44.837 496.43 45.3997C500.678 46.5164 508.628 48.2154 517.68 48.2154C533.009 48.2154 640.509 48.2154 642.429 48.2154C643.417 48.2154 644.335 48.2006 645.187 48.1729C651.607 47.9644 664.675 41.737 667.091 47.6889C667.159 47.8572 667.222 48.0326 667.28 48.2154C667.847 50.025 668.022 52.3476 668.009 54.6132C667.98 59.4816 663.722 63 658.853 63H11.0096C5.48671 63 1.00955 58.5228 1.00959 52.9999L1.00962 48.8655Z" fill="#532222"/>
</g>
<defs>
<filter id="filter0_ii" x="0.998047" y="43.5" width="667.012" height="19.5" filterUnits="userSpaceOnUse" color-interpolation-filters="sRGB">
<feFlood flood-opacity="0" result="BackgroundImageFix"/>
<feBlend mode="normal" in="SourceGraphic" in2="BackgroundImageFix" result="shape"/>
<feColorMatrix in="SourceAlpha" type="matrix" values="0 0 0 0 0 0 0 0 0 0 0 0 0 0 0 0 0 0 127 0" result="hardAlpha"/>
<feOffset dy="4"/>
<feComposite in2="hardAlpha" operator="arithmetic" k2="-1" k3="1"/>
<feColorMatrix type="matrix" values="0 0 0 0 1 0 0 0 0 1 0 0 0 0 1 0 0 0 0.25 0"/>
<feBlend mode="normal" in2="shape" result="effect1_innerShadow"/>
<feColorMatrix in="SourceAlpha" type="matrix" values="0 0 0 0 0 0 0 0 0 0 0 0 0 0 0 0 0 0 127 0" result="hardAlpha"/>
<feOffset dy="-4"/>
<feComposite in2="hardAlpha" operator="arithmetic" k2="-1" k3="1"/>
<feColorMatrix type="matrix" values="0 0 0 0 0 0 0 0 0 0 0 0 0 0 0 0 0 0 0.25 0"/>
<feBlend mode="normal" in2="effect1_innerShadow" result="effect2_innerShadow"/>
</filter>
</defs>
</svg>
