<svg width="3186" height="2018" viewBox="0 0 3186 2018" fill="none" xmlns="http://www.w3.org/2000/svg">
<path d="M1797.9 421.5C1793.03 421.5 1788.6 420.7 1784.6 419.1C1780.6 417.5 1777.17 415.167 1774.3 412.1C1771.43 409.033 1769.2 405.267 1767.6 400.8C1766.07 396.267 1765.3 391.1 1765.3 385.3C1765.3 379.5 1766.17 374.367 1767.9 369.9C1769.7 365.367 1772.1 361.567 1775.1 358.5C1778.1 355.433 1781.6 353.1 1785.6 351.5C1789.6 349.9 1793.87 349.1 1798.4 349.1C1801.27 349.1 1803.83 349.3 1806.1 349.7C1808.43 350.1 1810.43 350.567 1812.1 351.1C1813.83 351.633 1815.23 352.167 1816.3 352.7C1817.37 353.233 1818.1 353.633 1818.5 353.9L1815.7 361.9C1815.1 361.5 1814.23 361.067 1813.1 360.6C1811.97 360.133 1810.67 359.667 1809.2 359.2C1807.8 358.733 1806.23 358.367 1804.5 358.1C1802.83 357.767 1801.13 357.6 1799.4 357.6C1795.73 357.6 1792.43 358.233 1789.5 359.5C1786.57 360.767 1784.07 362.6 1782 365C1779.93 367.4 1778.33 370.333 1777.2 373.8C1776.13 377.2 1775.6 381.033 1775.6 385.3C1775.6 389.433 1776.07 393.2 1777 396.6C1778 400 1779.47 402.933 1781.4 405.4C1783.33 407.8 1785.73 409.667 1788.6 411C1791.53 412.333 1794.93 413 1798.8 413C1803.27 413 1806.97 412.533 1809.9 411.6C1812.83 410.667 1815.03 409.833 1816.5 409.1L1819 417.1C1818.53 417.433 1817.7 417.867 1816.5 418.4C1815.3 418.867 1813.8 419.333 1812 419.8C1810.2 420.267 1808.1 420.667 1805.7 421C1803.3 421.333 1800.7 421.5 1797.9 421.5ZM1821.85 429.7C1822.58 430.033 1823.52 430.333 1824.65 430.6C1825.85 430.933 1827.02 431.1 1828.15 431.1C1831.82 431.1 1834.68 430.267 1836.75 428.6C1838.82 427 1840.68 424.367 1842.35 420.7C1838.15 412.7 1834.22 404.233 1830.55 395.3C1826.95 386.3 1823.95 377.2 1821.55 368H1831.55C1832.28 371 1833.15 374.233 1834.15 377.7C1835.22 381.167 1836.38 384.733 1837.65 388.4C1838.92 392.067 1840.28 395.733 1841.75 399.4C1843.22 403.067 1844.75 406.6 1846.35 410C1848.88 403 1851.08 396.067 1852.95 389.2C1854.82 382.333 1856.58 375.267 1858.25 368H1867.85C1865.45 377.8 1862.78 387.233 1859.85 396.3C1856.92 405.3 1853.75 413.733 1850.35 421.6C1849.02 424.6 1847.62 427.167 1846.15 429.3C1844.75 431.5 1843.18 433.3 1841.45 434.7C1839.72 436.1 1837.75 437.133 1835.55 437.8C1833.42 438.467 1830.98 438.8 1828.25 438.8C1827.52 438.8 1826.75 438.733 1825.95 438.6C1825.15 438.533 1824.35 438.4 1823.55 438.2C1822.82 438.067 1822.12 437.9 1821.45 437.7C1820.85 437.5 1820.42 437.333 1820.15 437.2L1821.85 429.7ZM1899.08 421.2C1894.88 421.2 1891.18 420.533 1887.98 419.2C1884.85 417.867 1882.18 416 1879.98 413.6C1877.85 411.2 1876.25 408.367 1875.18 405.1C1874.12 401.767 1873.58 398.1 1873.58 394.1C1873.58 390.1 1874.15 386.433 1875.28 383.1C1876.48 379.767 1878.15 376.9 1880.28 374.5C1882.42 372.033 1885.02 370.133 1888.08 368.8C1891.22 367.4 1894.68 366.7 1898.48 366.7C1900.82 366.7 1903.15 366.9 1905.48 367.3C1907.82 367.7 1910.05 368.333 1912.18 369.2L1910.08 377.1C1908.68 376.433 1907.05 375.9 1905.18 375.5C1903.38 375.1 1901.45 374.9 1899.38 374.9C1894.18 374.9 1890.18 376.533 1887.38 379.8C1884.65 383.067 1883.28 387.833 1883.28 394.1C1883.28 396.9 1883.58 399.467 1884.18 401.8C1884.85 404.133 1885.85 406.133 1887.18 407.8C1888.58 409.467 1890.35 410.767 1892.48 411.7C1894.62 412.567 1897.22 413 1900.28 413C1902.75 413 1904.98 412.767 1906.98 412.3C1908.98 411.833 1910.55 411.333 1911.68 410.8L1912.98 418.6C1912.45 418.933 1911.68 419.267 1910.68 419.6C1909.68 419.867 1908.55 420.1 1907.28 420.3C1906.02 420.567 1904.65 420.767 1903.18 420.9C1901.78 421.1 1900.42 421.2 1899.08 421.2ZM1961.13 368V375.8H1944.23V420H1934.93V375.8H1918.03V368H1961.13ZM1988.32 413.3C1990.52 413.3 1992.46 413.267 1994.12 413.2C1995.86 413.067 1997.29 412.867 1998.42 412.6V397.1C1997.76 396.767 1996.66 396.5 1995.12 396.3C1993.66 396.033 1991.86 395.9 1989.72 395.9C1988.32 395.9 1986.82 396 1985.22 396.2C1983.69 396.4 1982.26 396.833 1980.92 397.5C1979.66 398.1 1978.59 398.967 1977.72 400.1C1976.86 401.167 1976.42 402.6 1976.42 404.4C1976.42 407.733 1977.49 410.067 1979.62 411.4C1981.76 412.667 1984.66 413.3 1988.32 413.3ZM1987.52 366.7C1991.26 366.7 1994.39 367.2 1996.92 368.2C1999.52 369.133 2001.59 370.5 2003.12 372.3C2004.72 374.033 2005.86 376.133 2006.52 378.6C2007.19 381 2007.52 383.667 2007.52 386.6V419.1C2006.72 419.233 2005.59 419.433 2004.12 419.7C2002.72 419.9 2001.12 420.1 1999.32 420.3C1997.52 420.5 1995.56 420.667 1993.42 420.8C1991.36 421 1989.29 421.1 1987.22 421.1C1984.29 421.1 1981.59 420.8 1979.12 420.2C1976.66 419.6 1974.52 418.667 1972.72 417.4C1970.92 416.067 1969.52 414.333 1968.52 412.2C1967.52 410.067 1967.02 407.5 1967.02 404.5C1967.02 401.633 1967.59 399.167 1968.72 397.1C1969.92 395.033 1971.52 393.367 1973.52 392.1C1975.52 390.833 1977.86 389.9 1980.52 389.3C1983.19 388.7 1985.99 388.4 1988.92 388.4C1989.86 388.4 1990.82 388.467 1991.82 388.6C1992.82 388.667 1993.76 388.8 1994.62 389C1995.56 389.133 1996.36 389.267 1997.02 389.4C1997.69 389.533 1998.16 389.633 1998.42 389.7V387.1C1998.42 385.567 1998.26 384.067 1997.92 382.6C1997.59 381.067 1996.99 379.733 1996.12 378.6C1995.26 377.4 1994.06 376.467 1992.52 375.8C1991.06 375.067 1989.12 374.7 1986.72 374.7C1983.66 374.7 1980.96 374.933 1978.62 375.4C1976.36 375.8 1974.66 376.233 1973.52 376.7L1972.42 369C1973.62 368.467 1975.62 367.967 1978.42 367.5C1981.22 366.967 1984.26 366.7 1987.52 366.7ZM2032.07 413C2032.47 413.067 2033.04 413.133 2033.77 413.2C2034.5 413.267 2035.34 413.333 2036.27 413.4C2037.2 413.4 2038.17 413.433 2039.17 413.5C2040.24 413.5 2041.24 413.5 2042.17 413.5C2044.1 413.5 2045.94 413.367 2047.67 413.1C2049.47 412.833 2051 412.367 2052.27 411.7C2053.6 411.033 2054.64 410.167 2055.37 409.1C2056.17 407.967 2056.57 406.533 2056.57 404.8C2056.57 403.133 2056.2 401.767 2055.47 400.7C2054.8 399.567 2053.87 398.667 2052.67 398C2051.47 397.333 2050.04 396.867 2048.37 396.6C2046.77 396.333 2045.04 396.2 2043.17 396.2H2032.07V413ZM2041.97 389.3C2043.77 389.3 2045.4 389.2 2046.87 389C2048.4 388.733 2049.7 388.3 2050.77 387.7C2051.9 387.1 2052.77 386.3 2053.37 385.3C2054.04 384.3 2054.37 383.033 2054.37 381.5C2054.37 379.9 2053.97 378.633 2053.17 377.7C2052.37 376.767 2051.3 376.067 2049.97 375.6C2048.7 375.067 2047.24 374.733 2045.57 374.6C2043.97 374.4 2042.34 374.3 2040.67 374.3C2039.14 374.3 2037.57 374.333 2035.97 374.4C2034.44 374.467 2033.14 374.533 2032.07 374.6V389.3H2041.97ZM2041.77 420.9C2037.84 420.9 2034.2 420.7 2030.87 420.3C2027.54 419.967 2024.9 419.567 2022.97 419.1V368.5C2024.9 368.033 2027.54 367.633 2030.87 367.3C2034.2 366.9 2037.84 366.7 2041.77 366.7C2044.5 366.7 2047.17 366.933 2049.77 367.4C2052.37 367.867 2054.67 368.667 2056.67 369.8C2058.67 370.867 2060.27 372.367 2061.47 374.3C2062.74 376.167 2063.37 378.5 2063.37 381.3C2063.37 383.833 2062.74 386 2061.47 387.8C2060.2 389.6 2058.5 391 2056.37 392C2059.24 393 2061.5 394.5 2063.17 396.5C2064.9 398.433 2065.77 401.167 2065.77 404.7C2065.77 407.833 2065.14 410.433 2063.87 412.5C2062.67 414.567 2060.97 416.233 2058.77 417.5C2056.64 418.767 2054.1 419.633 2051.17 420.1C2048.24 420.633 2045.1 420.9 2041.77 420.9ZM2120.35 420H2111.05V397H2087.05V420H2077.75V368H2087.05V389.2H2111.05V368H2120.35V420ZM2153.95 413.3C2156.15 413.3 2158.08 413.267 2159.75 413.2C2161.48 413.067 2162.91 412.867 2164.05 412.6V397.1C2163.38 396.767 2162.28 396.5 2160.75 396.3C2159.28 396.033 2157.48 395.9 2155.35 395.9C2153.95 395.9 2152.45 396 2150.85 396.2C2149.31 396.4 2147.88 396.833 2146.55 397.5C2145.28 398.1 2144.21 398.967 2143.35 400.1C2142.48 401.167 2142.05 402.6 2142.05 404.4C2142.05 407.733 2143.11 410.067 2145.25 411.4C2147.38 412.667 2150.28 413.3 2153.95 413.3ZM2153.15 366.7C2156.88 366.7 2160.01 367.2 2162.55 368.2C2165.15 369.133 2167.21 370.5 2168.75 372.3C2170.35 374.033 2171.48 376.133 2172.15 378.6C2172.81 381 2173.15 383.667 2173.15 386.6V419.1C2172.35 419.233 2171.21 419.433 2169.75 419.7C2168.35 419.9 2166.75 420.1 2164.95 420.3C2163.15 420.5 2161.18 420.667 2159.05 420.8C2156.98 421 2154.91 421.1 2152.85 421.1C2149.91 421.1 2147.21 420.8 2144.75 420.2C2142.28 419.6 2140.15 418.667 2138.35 417.4C2136.55 416.067 2135.15 414.333 2134.15 412.2C2133.15 410.067 2132.65 407.5 2132.65 404.5C2132.65 401.633 2133.21 399.167 2134.35 397.1C2135.55 395.033 2137.15 393.367 2139.15 392.1C2141.15 390.833 2143.48 389.9 2146.15 389.3C2148.81 388.7 2151.61 388.4 2154.55 388.4C2155.48 388.4 2156.45 388.467 2157.45 388.6C2158.45 388.667 2159.38 388.8 2160.25 389C2161.18 389.133 2161.98 389.267 2162.65 389.4C2163.31 389.533 2163.78 389.633 2164.05 389.7V387.1C2164.05 385.567 2163.88 384.067 2163.55 382.6C2163.21 381.067 2162.61 379.733 2161.75 378.6C2160.88 377.4 2159.68 376.467 2158.15 375.8C2156.68 375.067 2154.75 374.7 2152.35 374.7C2149.28 374.7 2146.58 374.933 2144.25 375.4C2141.98 375.8 2140.28 376.233 2139.15 376.7L2138.05 369C2139.25 368.467 2141.25 367.967 2144.05 367.5C2146.85 366.967 2149.88 366.7 2153.15 366.7ZM2210.09 399.8C2209.09 399.8 2208.13 399.8 2207.19 399.8C2206.26 399.733 2205.36 399.667 2204.49 399.6C2202.36 402.8 2200.29 406.233 2198.29 409.9C2196.36 413.5 2194.63 416.867 2193.09 420H2183.69C2184.49 418.067 2185.43 416.1 2186.49 414.1C2187.56 412.033 2188.63 410.033 2189.69 408.1C2190.83 406.167 2191.96 404.333 2193.09 402.6C2194.23 400.867 2195.29 399.3 2196.29 397.9C2194.43 397.233 2192.89 396.433 2191.69 395.5C2190.49 394.5 2189.53 393.4 2188.79 392.2C2188.06 391 2187.53 389.733 2187.19 388.4C2186.93 387 2186.79 385.6 2186.79 384.2C2186.79 381.267 2187.33 378.7 2188.39 376.5C2189.53 374.3 2191.06 372.5 2192.99 371.1C2194.93 369.633 2197.19 368.533 2199.79 367.8C2202.46 367.067 2205.36 366.7 2208.49 366.7C2212.89 366.7 2216.63 366.9 2219.69 367.3C2222.76 367.7 2225.33 368.167 2227.39 368.7V420H2218.19V399.8H2210.09ZM2218.19 374.9C2217.46 374.767 2216.23 374.633 2214.49 374.5C2212.83 374.367 2210.89 374.3 2208.69 374.3C2204.89 374.3 2201.83 375.1 2199.49 376.7C2197.16 378.233 2195.99 380.7 2195.99 384.1C2195.99 387.433 2197.19 389.733 2199.59 391C2201.99 392.267 2205.09 392.9 2208.89 392.9H2218.19V374.9ZM2285.52 391.7C2287.59 393.167 2289.82 395.033 2292.22 397.3C2294.62 399.5 2296.96 401.9 2299.22 404.5C2301.56 407.1 2303.72 409.767 2305.72 412.5C2307.72 415.167 2309.42 417.667 2310.82 420H2299.82C2298.36 417.733 2296.62 415.433 2294.62 413.1C2292.69 410.7 2290.66 408.4 2288.52 406.2C2286.39 404 2284.22 401.967 2282.02 400.1C2279.82 398.233 2277.76 396.667 2275.82 395.4V420H2266.52V368H2275.82V390.3C2277.42 388.767 2279.26 387 2281.32 385C2283.39 382.933 2285.46 380.867 2287.52 378.8C2289.66 376.667 2291.62 374.667 2293.42 372.8C2295.22 370.867 2296.69 369.267 2297.82 368H2308.62C2307.16 369.6 2305.42 371.433 2303.42 373.5C2301.49 375.5 2299.46 377.567 2297.32 379.7C2295.26 381.833 2293.19 383.967 2291.12 386.1C2289.06 388.167 2287.19 390.033 2285.52 391.7ZM2337.83 413.3C2340.03 413.3 2341.97 413.267 2343.63 413.2C2345.37 413.067 2346.8 412.867 2347.93 412.6V397.1C2347.27 396.767 2346.17 396.5 2344.63 396.3C2343.17 396.033 2341.37 395.9 2339.23 395.9C2337.83 395.9 2336.33 396 2334.73 396.2C2333.2 396.4 2331.77 396.833 2330.43 397.5C2329.17 398.1 2328.1 398.967 2327.23 400.1C2326.37 401.167 2325.93 402.6 2325.93 404.4C2325.93 407.733 2327 410.067 2329.13 411.4C2331.27 412.667 2334.17 413.3 2337.83 413.3ZM2337.03 366.7C2340.77 366.7 2343.9 367.2 2346.43 368.2C2349.03 369.133 2351.1 370.5 2352.63 372.3C2354.23 374.033 2355.37 376.133 2356.03 378.6C2356.7 381 2357.03 383.667 2357.03 386.6V419.1C2356.23 419.233 2355.1 419.433 2353.63 419.7C2352.23 419.9 2350.63 420.1 2348.83 420.3C2347.03 420.5 2345.07 420.667 2342.93 420.8C2340.87 421 2338.8 421.1 2336.73 421.1C2333.8 421.1 2331.1 420.8 2328.63 420.2C2326.17 419.6 2324.03 418.667 2322.23 417.4C2320.43 416.067 2319.03 414.333 2318.03 412.2C2317.03 410.067 2316.53 407.5 2316.53 404.5C2316.53 401.633 2317.1 399.167 2318.23 397.1C2319.43 395.033 2321.03 393.367 2323.03 392.1C2325.03 390.833 2327.37 389.9 2330.03 389.3C2332.7 388.7 2335.5 388.4 2338.43 388.4C2339.37 388.4 2340.33 388.467 2341.33 388.6C2342.33 388.667 2343.27 388.8 2344.13 389C2345.07 389.133 2345.87 389.267 2346.53 389.4C2347.2 389.533 2347.67 389.633 2347.93 389.7V387.1C2347.93 385.567 2347.77 384.067 2347.43 382.6C2347.1 381.067 2346.5 379.733 2345.63 378.6C2344.77 377.4 2343.57 376.467 2342.03 375.8C2340.57 375.067 2338.63 374.7 2336.23 374.7C2333.17 374.7 2330.47 374.933 2328.13 375.4C2325.87 375.8 2324.17 376.233 2323.03 376.7L2321.93 369C2323.13 368.467 2325.13 367.967 2327.93 367.5C2330.73 366.967 2333.77 366.7 2337.03 366.7ZM2414.28 420H2404.98V375.8H2381.78V420H2372.48V368H2414.28V420ZM2452.89 421.2C2448.69 421.2 2444.99 420.533 2441.79 419.2C2438.66 417.867 2435.99 416 2433.79 413.6C2431.66 411.2 2430.06 408.367 2428.99 405.1C2427.93 401.767 2427.39 398.1 2427.39 394.1C2427.39 390.1 2427.96 386.433 2429.09 383.1C2430.29 379.767 2431.96 376.9 2434.09 374.5C2436.23 372.033 2438.83 370.133 2441.89 368.8C2445.03 367.4 2448.49 366.7 2452.29 366.7C2454.63 366.7 2456.96 366.9 2459.29 367.3C2461.63 367.7 2463.86 368.333 2465.99 369.2L2463.89 377.1C2462.49 376.433 2460.86 375.9 2458.99 375.5C2457.19 375.1 2455.26 374.9 2453.19 374.9C2447.99 374.9 2443.99 376.533 2441.19 379.8C2438.46 383.067 2437.09 387.833 2437.09 394.1C2437.09 396.9 2437.39 399.467 2437.99 401.8C2438.66 404.133 2439.66 406.133 2440.99 407.8C2442.39 409.467 2444.16 410.767 2446.29 411.7C2448.43 412.567 2451.03 413 2454.09 413C2456.56 413 2458.79 412.767 2460.79 412.3C2462.79 411.833 2464.36 411.333 2465.49 410.8L2466.79 418.6C2466.26 418.933 2465.49 419.267 2464.49 419.6C2463.49 419.867 2462.36 420.1 2461.09 420.3C2459.83 420.567 2458.46 420.767 2456.99 420.9C2455.59 421.1 2454.23 421.2 2452.89 421.2ZM2471.75 429.7C2472.48 430.033 2473.42 430.333 2474.55 430.6C2475.75 430.933 2476.92 431.1 2478.05 431.1C2481.72 431.1 2484.58 430.267 2486.65 428.6C2488.72 427 2490.58 424.367 2492.25 420.7C2488.05 412.7 2484.12 404.233 2480.45 395.3C2476.85 386.3 2473.85 377.2 2471.45 368H2481.45C2482.18 371 2483.05 374.233 2484.05 377.7C2485.12 381.167 2486.28 384.733 2487.55 388.4C2488.82 392.067 2490.18 395.733 2491.65 399.4C2493.12 403.067 2494.65 406.6 2496.25 410C2498.78 403 2500.98 396.067 2502.85 389.2C2504.72 382.333 2506.48 375.267 2508.15 368H2517.75C2515.35 377.8 2512.68 387.233 2509.75 396.3C2506.82 405.3 2503.65 413.733 2500.25 421.6C2498.92 424.6 2497.52 427.167 2496.05 429.3C2494.65 431.5 2493.08 433.3 2491.35 434.7C2489.62 436.1 2487.65 437.133 2485.45 437.8C2483.32 438.467 2480.88 438.8 2478.15 438.8C2477.42 438.8 2476.65 438.733 2475.85 438.6C2475.05 438.533 2474.25 438.4 2473.45 438.2C2472.72 438.067 2472.02 437.9 2471.35 437.7C2470.75 437.5 2470.32 437.333 2470.05 437.2L2471.75 429.7ZM2542.83 375.8C2542.83 378 2542.76 380.367 2542.63 382.9C2542.56 385.367 2542.39 387.867 2542.13 390.4C2541.86 392.867 2541.49 395.333 2541.03 397.8C2540.56 400.2 2539.96 402.467 2539.23 404.6C2538.49 406.733 2537.56 408.733 2536.43 410.6C2535.36 412.467 2534.03 414.133 2532.43 415.6C2530.83 417 2528.96 418.2 2526.83 419.2C2524.69 420.133 2522.19 420.733 2519.33 421L2518.03 413.2C2521.29 412.533 2523.86 411.3 2525.73 409.5C2527.66 407.7 2529.19 405.5 2530.33 402.9C2531.33 400.633 2532.06 398.067 2532.53 395.2C2532.99 392.333 2533.33 389.367 2533.53 386.3C2533.73 383.167 2533.83 380.033 2533.83 376.9C2533.89 373.767 2533.93 370.8 2533.93 368H2568.53V420H2559.23V375.8H2542.83ZM2602.09 413.3C2604.29 413.3 2606.23 413.267 2607.89 413.2C2609.63 413.067 2611.06 412.867 2612.19 412.6V397.1C2611.53 396.767 2610.43 396.5 2608.89 396.3C2607.43 396.033 2605.63 395.9 2603.49 395.9C2602.09 395.9 2600.59 396 2598.99 396.2C2597.46 396.4 2596.03 396.833 2594.69 397.5C2593.43 398.1 2592.36 398.967 2591.49 400.1C2590.63 401.167 2590.19 402.6 2590.19 404.4C2590.19 407.733 2591.26 410.067 2593.39 411.4C2595.53 412.667 2598.43 413.3 2602.09 413.3ZM2601.29 366.7C2605.03 366.7 2608.16 367.2 2610.69 368.2C2613.29 369.133 2615.36 370.5 2616.89 372.3C2618.49 374.033 2619.63 376.133 2620.29 378.6C2620.96 381 2621.29 383.667 2621.29 386.6V419.1C2620.49 419.233 2619.36 419.433 2617.89 419.7C2616.49 419.9 2614.89 420.1 2613.09 420.3C2611.29 420.5 2609.33 420.667 2607.19 420.8C2605.13 421 2603.06 421.1 2600.99 421.1C2598.06 421.1 2595.36 420.8 2592.89 420.2C2590.43 419.6 2588.29 418.667 2586.49 417.4C2584.69 416.067 2583.29 414.333 2582.29 412.2C2581.29 410.067 2580.79 407.5 2580.79 404.5C2580.79 401.633 2581.36 399.167 2582.49 397.1C2583.69 395.033 2585.29 393.367 2587.29 392.1C2589.29 390.833 2591.63 389.9 2594.29 389.3C2596.96 388.7 2599.76 388.4 2602.69 388.4C2603.63 388.4 2604.59 388.467 2605.59 388.6C2606.59 388.667 2607.53 388.8 2608.39 389C2609.33 389.133 2610.13 389.267 2610.79 389.4C2611.46 389.533 2611.93 389.633 2612.19 389.7V387.1C2612.19 385.567 2612.03 384.067 2611.69 382.6C2611.36 381.067 2610.76 379.733 2609.89 378.6C2609.03 377.4 2607.83 376.467 2606.29 375.8C2604.83 375.067 2602.89 374.7 2600.49 374.7C2597.43 374.7 2594.73 374.933 2592.39 375.4C2590.13 375.8 2588.43 376.233 2587.29 376.7L2586.19 369C2587.39 368.467 2589.39 367.967 2592.19 367.5C2594.99 366.967 2598.03 366.7 2601.29 366.7Z" fill="black"/>
<path d="M1866.9 1629.5C1862.03 1629.5 1857.6 1628.7 1853.6 1627.1C1849.6 1625.5 1846.17 1623.17 1843.3 1620.1C1840.43 1617.03 1838.2 1613.27 1836.6 1608.8C1835.07 1604.27 1834.3 1599.1 1834.3 1593.3C1834.3 1587.5 1835.17 1582.37 1836.9 1577.9C1838.7 1573.37 1841.1 1569.57 1844.1 1566.5C1847.1 1563.43 1850.6 1561.1 1854.6 1559.5C1858.6 1557.9 1862.87 1557.1 1867.4 1557.1C1870.27 1557.1 1872.83 1557.3 1875.1 1557.7C1877.43 1558.1 1879.43 1558.57 1881.1 1559.1C1882.83 1559.63 1884.23 1560.17 1885.3 1560.7C1886.37 1561.23 1887.1 1561.63 1887.5 1561.9L1884.7 1569.9C1884.1 1569.5 1883.23 1569.07 1882.1 1568.6C1880.97 1568.13 1879.67 1567.67 1878.2 1567.2C1876.8 1566.73 1875.23 1566.37 1873.5 1566.1C1871.83 1565.77 1870.13 1565.6 1868.4 1565.6C1864.73 1565.6 1861.43 1566.23 1858.5 1567.5C1855.57 1568.77 1853.07 1570.6 1851 1573C1848.93 1575.4 1847.33 1578.33 1846.2 1581.8C1845.13 1585.2 1844.6 1589.03 1844.6 1593.3C1844.6 1597.43 1845.07 1601.2 1846 1604.6C1847 1608 1848.47 1610.93 1850.4 1613.4C1852.33 1615.8 1854.73 1617.67 1857.6 1619C1860.53 1620.33 1863.93 1621 1867.8 1621C1872.27 1621 1875.97 1620.53 1878.9 1619.6C1881.83 1618.67 1884.03 1617.83 1885.5 1617.1L1888 1625.1C1887.53 1625.43 1886.7 1625.87 1885.5 1626.4C1884.3 1626.87 1882.8 1627.33 1881 1627.8C1879.2 1628.27 1877.1 1628.67 1874.7 1629C1872.3 1629.33 1869.7 1629.5 1866.9 1629.5ZM1942.21 1576V1628H1933.21V1588.4C1931.21 1590.93 1929.01 1593.9 1926.61 1597.3C1924.21 1600.7 1921.81 1604.23 1919.41 1607.9C1917.01 1611.5 1914.71 1615.07 1912.51 1618.6C1910.31 1622.13 1908.41 1625.27 1906.81 1628H1898.51V1576H1907.51V1613.4C1909.25 1610.53 1911.21 1607.4 1913.41 1604C1915.61 1600.53 1917.88 1597.13 1920.21 1593.8C1922.61 1590.4 1924.98 1587.17 1927.31 1584.1C1929.71 1580.97 1931.95 1578.27 1934.01 1576H1942.21ZM2000.78 1628H1991.48V1605H1967.48V1628H1958.18V1576H1967.48V1597.2H1991.48V1576H2000.78V1628ZM2062.67 1602C2062.67 1606.13 2062.07 1609.87 2060.87 1613.2C2059.67 1616.53 2057.97 1619.4 2055.77 1621.8C2053.64 1624.2 2051.07 1626.07 2048.07 1627.4C2045.07 1628.67 2041.81 1629.3 2038.27 1629.3C2034.74 1629.3 2031.47 1628.67 2028.47 1627.4C2025.47 1626.07 2022.87 1624.2 2020.67 1621.8C2018.54 1619.4 2016.87 1616.53 2015.67 1613.2C2014.47 1609.87 2013.87 1606.13 2013.87 1602C2013.87 1597.93 2014.47 1594.23 2015.67 1590.9C2016.87 1587.5 2018.54 1584.6 2020.67 1582.2C2022.87 1579.8 2025.47 1577.97 2028.47 1576.7C2031.47 1575.37 2034.74 1574.7 2038.27 1574.7C2041.81 1574.7 2045.07 1575.37 2048.07 1576.7C2051.07 1577.97 2053.64 1579.8 2055.77 1582.2C2057.97 1584.6 2059.67 1587.5 2060.87 1590.9C2062.07 1594.23 2062.67 1597.93 2062.67 1602ZM2052.97 1602C2052.97 1596.13 2051.64 1591.5 2048.97 1588.1C2046.37 1584.63 2042.81 1582.9 2038.27 1582.9C2033.74 1582.9 2030.14 1584.63 2027.47 1588.1C2024.87 1591.5 2023.57 1596.13 2023.57 1602C2023.57 1607.87 2024.87 1612.53 2027.47 1616C2030.14 1619.4 2033.74 1621.1 2038.27 1621.1C2042.81 1621.1 2046.37 1619.4 2048.97 1616C2051.64 1612.53 2052.97 1607.87 2052.97 1602ZM2084.86 1621C2085.26 1621.07 2085.82 1621.13 2086.56 1621.2C2087.29 1621.27 2088.12 1621.33 2089.06 1621.4C2089.99 1621.4 2090.96 1621.43 2091.96 1621.5C2093.02 1621.5 2094.02 1621.5 2094.96 1621.5C2096.89 1621.5 2098.72 1621.37 2100.46 1621.1C2102.26 1620.83 2103.79 1620.37 2105.06 1619.7C2106.39 1619.03 2107.42 1618.17 2108.16 1617.1C2108.96 1615.97 2109.36 1614.53 2109.36 1612.8C2109.36 1611.13 2108.99 1609.77 2108.26 1608.7C2107.59 1607.57 2106.66 1606.67 2105.46 1606C2104.26 1605.33 2102.82 1604.87 2101.16 1604.6C2099.56 1604.33 2097.82 1604.2 2095.96 1604.2H2084.86V1621ZM2094.76 1597.3C2096.56 1597.3 2098.19 1597.2 2099.66 1597C2101.19 1596.73 2102.49 1596.3 2103.56 1595.7C2104.69 1595.1 2105.56 1594.3 2106.16 1593.3C2106.82 1592.3 2107.16 1591.03 2107.16 1589.5C2107.16 1587.9 2106.76 1586.63 2105.96 1585.7C2105.16 1584.77 2104.09 1584.07 2102.76 1583.6C2101.49 1583.07 2100.02 1582.73 2098.36 1582.6C2096.76 1582.4 2095.12 1582.3 2093.46 1582.3C2091.92 1582.3 2090.36 1582.33 2088.76 1582.4C2087.22 1582.47 2085.92 1582.53 2084.86 1582.6V1597.3H2094.76ZM2094.56 1628.9C2090.62 1628.9 2086.99 1628.7 2083.66 1628.3C2080.32 1627.97 2077.69 1627.57 2075.76 1627.1V1576.5C2077.69 1576.03 2080.32 1575.63 2083.66 1575.3C2086.99 1574.9 2090.62 1574.7 2094.56 1574.7C2097.29 1574.7 2099.96 1574.93 2102.56 1575.4C2105.16 1575.87 2107.46 1576.67 2109.46 1577.8C2111.46 1578.87 2113.06 1580.37 2114.26 1582.3C2115.52 1584.17 2116.16 1586.5 2116.16 1589.3C2116.16 1591.83 2115.52 1594 2114.26 1595.8C2112.99 1597.6 2111.29 1599 2109.16 1600C2112.02 1601 2114.29 1602.5 2115.96 1604.5C2117.69 1606.43 2118.56 1609.17 2118.56 1612.7C2118.56 1615.83 2117.92 1618.43 2116.66 1620.5C2115.46 1622.57 2113.76 1624.23 2111.56 1625.5C2109.42 1626.77 2106.89 1627.63 2103.96 1628.1C2101.02 1628.63 2097.89 1628.9 2094.56 1628.9ZM2174.24 1576V1628H2165.24V1588.4C2163.24 1590.93 2161.04 1593.9 2158.64 1597.3C2156.24 1600.7 2153.84 1604.23 2151.44 1607.9C2149.04 1611.5 2146.74 1615.07 2144.54 1618.6C2142.34 1622.13 2140.44 1625.27 2138.84 1628H2130.54V1576H2139.54V1613.4C2141.28 1610.53 2143.24 1607.4 2145.44 1604C2147.64 1600.53 2149.91 1597.13 2152.24 1593.8C2154.64 1590.4 2157.01 1587.17 2159.34 1584.1C2161.74 1580.97 2163.98 1578.27 2166.04 1576H2174.24ZM2207.81 1621.3C2210.01 1621.3 2211.94 1621.27 2213.61 1621.2C2215.34 1621.07 2216.78 1620.87 2217.91 1620.6V1605.1C2217.24 1604.77 2216.14 1604.5 2214.61 1604.3C2213.14 1604.03 2211.34 1603.9 2209.21 1603.9C2207.81 1603.9 2206.31 1604 2204.71 1604.2C2203.18 1604.4 2201.74 1604.83 2200.41 1605.5C2199.14 1606.1 2198.08 1606.97 2197.21 1608.1C2196.34 1609.17 2195.91 1610.6 2195.91 1612.4C2195.91 1615.73 2196.98 1618.07 2199.11 1619.4C2201.24 1620.67 2204.14 1621.3 2207.81 1621.3ZM2207.01 1574.7C2210.74 1574.7 2213.88 1575.2 2216.41 1576.2C2219.01 1577.13 2221.08 1578.5 2222.61 1580.3C2224.21 1582.03 2225.34 1584.13 2226.01 1586.6C2226.68 1589 2227.01 1591.67 2227.01 1594.6V1627.1C2226.21 1627.23 2225.08 1627.43 2223.61 1627.7C2222.21 1627.9 2220.61 1628.1 2218.81 1628.3C2217.01 1628.5 2215.04 1628.67 2212.91 1628.8C2210.84 1629 2208.78 1629.1 2206.71 1629.1C2203.78 1629.1 2201.08 1628.8 2198.61 1628.2C2196.14 1627.6 2194.01 1626.67 2192.21 1625.4C2190.41 1624.07 2189.01 1622.33 2188.01 1620.2C2187.01 1618.07 2186.51 1615.5 2186.51 1612.5C2186.51 1609.63 2187.08 1607.17 2188.21 1605.1C2189.41 1603.03 2191.01 1601.37 2193.01 1600.1C2195.01 1598.83 2197.34 1597.9 2200.01 1597.3C2202.68 1596.7 2205.48 1596.4 2208.41 1596.4C2209.34 1596.4 2210.31 1596.47 2211.31 1596.6C2212.31 1596.67 2213.24 1596.8 2214.11 1597C2215.04 1597.13 2215.84 1597.27 2216.51 1597.4C2217.18 1597.53 2217.64 1597.63 2217.91 1597.7V1595.1C2217.91 1593.57 2217.74 1592.07 2217.41 1590.6C2217.08 1589.07 2216.48 1587.73 2215.61 1586.6C2214.74 1585.4 2213.54 1584.47 2212.01 1583.8C2210.54 1583.07 2208.61 1582.7 2206.21 1582.7C2203.14 1582.7 2200.44 1582.93 2198.11 1583.4C2195.84 1583.8 2194.14 1584.23 2193.01 1584.7L2191.91 1577C2193.11 1576.47 2195.11 1575.97 2197.91 1575.5C2200.71 1574.97 2203.74 1574.7 2207.01 1574.7ZM2260.56 1583.8C2260.56 1586 2260.49 1588.37 2260.36 1590.9C2260.29 1593.37 2260.12 1595.87 2259.86 1598.4C2259.59 1600.87 2259.22 1603.33 2258.76 1605.8C2258.29 1608.2 2257.69 1610.47 2256.96 1612.6C2256.22 1614.73 2255.29 1616.73 2254.16 1618.6C2253.09 1620.47 2251.76 1622.13 2250.16 1623.6C2248.56 1625 2246.69 1626.2 2244.56 1627.2C2242.42 1628.13 2239.92 1628.73 2237.06 1629L2235.76 1621.2C2239.02 1620.53 2241.59 1619.3 2243.46 1617.5C2245.39 1615.7 2246.92 1613.5 2248.06 1610.9C2249.06 1608.63 2249.79 1606.07 2250.26 1603.2C2250.72 1600.33 2251.06 1597.37 2251.26 1594.3C2251.46 1591.17 2251.56 1588.03 2251.56 1584.9C2251.62 1581.77 2251.66 1578.8 2251.66 1576H2286.26V1628H2276.96V1583.8H2260.56ZM2321.92 1621.5C2325.86 1621.5 2328.96 1620.73 2331.22 1619.2C2333.49 1617.67 2334.62 1615.2 2334.62 1611.8C2334.62 1610.13 2334.29 1608.7 2333.62 1607.5C2332.96 1606.3 2332.02 1605.33 2330.82 1604.6C2329.69 1603.8 2328.36 1603.23 2326.82 1602.9C2325.29 1602.5 2323.66 1602.3 2321.92 1602.3C2320.12 1602.3 2318.26 1602.37 2316.32 1602.5C2314.46 1602.57 2312.86 1602.77 2311.52 1603.1V1621C2311.92 1621.07 2312.52 1621.13 2313.32 1621.2C2314.12 1621.27 2314.99 1621.33 2315.92 1621.4C2316.92 1621.4 2317.92 1621.43 2318.92 1621.5C2319.99 1621.5 2320.99 1621.5 2321.92 1621.5ZM2302.22 1626.9V1576H2311.52V1595.9C2312.06 1595.77 2312.76 1595.63 2313.62 1595.5C2314.56 1595.37 2315.52 1595.23 2316.52 1595.1C2317.59 1594.97 2318.69 1594.87 2319.82 1594.8C2320.96 1594.73 2322.02 1594.7 2323.02 1594.7C2325.89 1594.7 2328.59 1595.03 2331.12 1595.7C2333.66 1596.3 2335.86 1597.3 2337.72 1598.7C2339.66 1600.03 2341.19 1601.8 2342.32 1604C2343.46 1606.13 2344.02 1608.7 2344.02 1611.7C2344.02 1614.83 2343.49 1617.5 2342.42 1619.7C2341.36 1621.9 2339.82 1623.7 2337.82 1625.1C2335.82 1626.5 2333.42 1627.5 2330.62 1628.1C2327.89 1628.77 2324.82 1629.1 2321.42 1629.1C2318.09 1629.1 2314.82 1628.9 2311.62 1628.5C2308.42 1628.17 2305.29 1627.63 2302.22 1626.9ZM2397.65 1628H2388.35V1605H2364.35V1628H2355.05V1576H2364.35V1597.2H2388.35V1576H2397.65V1628ZM2431.25 1621.3C2433.45 1621.3 2435.38 1621.27 2437.05 1621.2C2438.78 1621.07 2440.22 1620.87 2441.35 1620.6V1605.1C2440.68 1604.77 2439.58 1604.5 2438.05 1604.3C2436.58 1604.03 2434.78 1603.9 2432.65 1603.9C2431.25 1603.9 2429.75 1604 2428.15 1604.2C2426.62 1604.4 2425.18 1604.83 2423.85 1605.5C2422.58 1606.1 2421.52 1606.97 2420.65 1608.1C2419.78 1609.17 2419.35 1610.6 2419.35 1612.4C2419.35 1615.73 2420.42 1618.07 2422.55 1619.4C2424.68 1620.67 2427.58 1621.3 2431.25 1621.3ZM2430.45 1574.7C2434.18 1574.7 2437.32 1575.2 2439.85 1576.2C2442.45 1577.13 2444.52 1578.5 2446.05 1580.3C2447.65 1582.03 2448.78 1584.13 2449.45 1586.6C2450.12 1589 2450.45 1591.67 2450.45 1594.6V1627.1C2449.65 1627.23 2448.52 1627.43 2447.05 1627.7C2445.65 1627.9 2444.05 1628.1 2442.25 1628.3C2440.45 1628.5 2438.48 1628.67 2436.35 1628.8C2434.28 1629 2432.22 1629.1 2430.15 1629.1C2427.22 1629.1 2424.52 1628.8 2422.05 1628.2C2419.58 1627.6 2417.45 1626.67 2415.65 1625.4C2413.85 1624.07 2412.45 1622.33 2411.45 1620.2C2410.45 1618.07 2409.95 1615.5 2409.95 1612.5C2409.95 1609.63 2410.52 1607.17 2411.65 1605.1C2412.85 1603.03 2414.45 1601.37 2416.45 1600.1C2418.45 1598.83 2420.78 1597.9 2423.45 1597.3C2426.12 1596.7 2428.92 1596.4 2431.85 1596.4C2432.78 1596.4 2433.75 1596.47 2434.75 1596.6C2435.75 1596.67 2436.68 1596.8 2437.55 1597C2438.48 1597.13 2439.28 1597.27 2439.95 1597.4C2440.62 1597.53 2441.08 1597.63 2441.35 1597.7V1595.1C2441.35 1593.57 2441.18 1592.07 2440.85 1590.6C2440.52 1589.07 2439.92 1587.73 2439.05 1586.6C2438.18 1585.4 2436.98 1584.47 2435.45 1583.8C2433.98 1583.07 2432.05 1582.7 2429.65 1582.7C2426.58 1582.7 2423.88 1582.93 2421.55 1583.4C2419.28 1583.8 2417.58 1584.23 2416.45 1584.7L2415.35 1577C2416.55 1576.47 2418.55 1575.97 2421.35 1575.5C2424.15 1574.97 2427.18 1574.7 2430.45 1574.7ZM2487.39 1607.8C2486.39 1607.8 2485.43 1607.8 2484.49 1607.8C2483.56 1607.73 2482.66 1607.67 2481.79 1607.6C2479.66 1610.8 2477.59 1614.23 2475.59 1617.9C2473.66 1621.5 2471.93 1624.87 2470.39 1628H2460.99C2461.79 1626.07 2462.73 1624.1 2463.79 1622.1C2464.86 1620.03 2465.93 1618.03 2466.99 1616.1C2468.13 1614.17 2469.26 1612.33 2470.39 1610.6C2471.53 1608.87 2472.59 1607.3 2473.59 1605.9C2471.73 1605.23 2470.19 1604.43 2468.99 1603.5C2467.79 1602.5 2466.83 1601.4 2466.09 1600.2C2465.36 1599 2464.83 1597.73 2464.49 1596.4C2464.23 1595 2464.09 1593.6 2464.09 1592.2C2464.09 1589.27 2464.63 1586.7 2465.69 1584.5C2466.83 1582.3 2468.36 1580.5 2470.29 1579.1C2472.23 1577.63 2474.49 1576.53 2477.09 1575.8C2479.76 1575.07 2482.66 1574.7 2485.79 1574.7C2490.19 1574.7 2493.93 1574.9 2496.99 1575.3C2500.06 1575.7 2502.63 1576.17 2504.69 1576.7V1628H2495.49V1607.8H2487.39ZM2495.49 1582.9C2494.76 1582.77 2493.53 1582.63 2491.79 1582.5C2490.13 1582.37 2488.19 1582.3 2485.99 1582.3C2482.19 1582.3 2479.13 1583.1 2476.79 1584.7C2474.46 1586.23 2473.29 1588.7 2473.29 1592.1C2473.29 1595.43 2474.49 1597.73 2476.89 1599C2479.29 1600.27 2482.39 1600.9 2486.19 1600.9H2495.49V1582.9ZM2589.72 1602C2589.72 1606.13 2589.12 1609.87 2587.92 1613.2C2586.72 1616.53 2585.02 1619.4 2582.82 1621.8C2580.69 1624.2 2578.12 1626.07 2575.12 1627.4C2572.12 1628.67 2568.86 1629.3 2565.32 1629.3C2561.79 1629.3 2558.52 1628.67 2555.52 1627.4C2552.52 1626.07 2549.92 1624.2 2547.72 1621.8C2545.59 1619.4 2543.92 1616.53 2542.72 1613.2C2541.52 1609.87 2540.92 1606.13 2540.92 1602C2540.92 1597.93 2541.52 1594.23 2542.72 1590.9C2543.92 1587.5 2545.59 1584.6 2547.72 1582.2C2549.92 1579.8 2552.52 1577.97 2555.52 1576.7C2558.52 1575.37 2561.79 1574.7 2565.32 1574.7C2568.86 1574.7 2572.12 1575.37 2575.12 1576.7C2578.12 1577.97 2580.69 1579.8 2582.82 1582.2C2585.02 1584.6 2586.72 1587.5 2587.92 1590.9C2589.12 1594.23 2589.72 1597.93 2589.72 1602ZM2580.02 1602C2580.02 1596.13 2578.69 1591.5 2576.02 1588.1C2573.42 1584.63 2569.86 1582.9 2565.32 1582.9C2560.79 1582.9 2557.19 1584.63 2554.52 1588.1C2551.92 1591.5 2550.62 1596.13 2550.62 1602C2550.62 1607.87 2551.92 1612.53 2554.52 1616C2557.19 1619.4 2560.79 1621.1 2565.32 1621.1C2569.86 1621.1 2573.42 1619.4 2576.02 1616C2578.69 1612.53 2580.02 1607.87 2580.02 1602ZM2611.21 1582C2613.28 1580.33 2615.68 1579.07 2618.41 1578.2C2621.21 1577.27 2623.88 1576.8 2626.41 1576.8C2633.88 1576.8 2639.51 1579.1 2643.31 1583.7C2647.18 1588.23 2649.11 1594.57 2649.11 1602.7C2649.11 1606.17 2648.64 1609.5 2647.71 1612.7C2646.78 1615.9 2645.31 1618.73 2643.31 1621.2C2641.38 1623.67 2638.91 1625.63 2635.91 1627.1C2632.91 1628.57 2629.34 1629.3 2625.21 1629.3C2620.48 1629.3 2616.54 1628.43 2613.41 1626.7C2610.28 1624.97 2607.78 1622.6 2605.91 1619.6C2604.11 1616.6 2602.84 1613.1 2602.11 1609.1C2601.38 1605.1 2601.01 1600.87 2601.01 1596.4C2601.01 1590.6 2601.41 1585.2 2602.21 1580.2C2603.08 1575.2 2604.61 1570.8 2606.81 1567C2609.01 1563.2 2612.04 1560.07 2615.91 1557.6C2619.84 1555.07 2624.88 1553.37 2631.01 1552.5C2632.81 1552.23 2634.38 1552.03 2635.71 1551.9C2637.11 1551.7 2638.31 1551.53 2639.31 1551.4C2640.38 1551.27 2641.34 1551.13 2642.21 1551C2643.08 1550.8 2643.98 1550.6 2644.91 1550.4L2645.91 1558.8C2645.44 1558.93 2644.94 1559.03 2644.41 1559.1C2643.94 1559.17 2643.24 1559.27 2642.31 1559.4C2641.44 1559.53 2640.24 1559.7 2638.71 1559.9C2637.24 1560.1 2635.31 1560.33 2632.91 1560.6C2626.31 1561.33 2621.24 1563.33 2617.71 1566.6C2614.18 1569.87 2612.01 1575 2611.21 1582ZM2610.61 1597.9C2610.61 1601.03 2610.81 1604 2611.21 1606.8C2611.68 1609.6 2612.44 1612.07 2613.51 1614.2C2614.64 1616.33 2616.14 1618.03 2618.01 1619.3C2619.88 1620.5 2622.28 1621.1 2625.21 1621.1C2627.74 1621.1 2629.91 1620.63 2631.71 1619.7C2633.51 1618.7 2634.98 1617.37 2636.11 1615.7C2637.24 1614.03 2638.08 1612.1 2638.61 1609.9C2639.14 1607.63 2639.41 1605.23 2639.41 1602.7C2639.41 1600.43 2639.18 1598.23 2638.71 1596.1C2638.31 1593.97 2637.54 1592.07 2636.41 1590.4C2635.28 1588.73 2633.74 1587.4 2631.81 1586.4C2629.94 1585.4 2627.58 1584.9 2624.71 1584.9C2621.91 1584.9 2619.21 1585.5 2616.61 1586.7C2614.08 1587.9 2612.11 1589.37 2610.71 1591.1C2610.64 1591.83 2610.61 1592.87 2610.61 1594.2C2610.61 1595.53 2610.61 1596.77 2610.61 1597.9ZM2708.18 1602C2708.18 1606.13 2707.58 1609.87 2706.38 1613.2C2705.18 1616.53 2703.48 1619.4 2701.28 1621.8C2699.15 1624.2 2696.58 1626.07 2693.58 1627.4C2690.58 1628.67 2687.31 1629.3 2683.78 1629.3C2680.25 1629.3 2676.98 1628.67 2673.98 1627.4C2670.98 1626.07 2668.38 1624.2 2666.18 1621.8C2664.05 1619.4 2662.38 1616.53 2661.18 1613.2C2659.98 1609.87 2659.38 1606.13 2659.38 1602C2659.38 1597.93 2659.98 1594.23 2661.18 1590.9C2662.38 1587.5 2664.05 1584.6 2666.18 1582.2C2668.38 1579.8 2670.98 1577.97 2673.98 1576.7C2676.98 1575.37 2680.25 1574.7 2683.78 1574.7C2687.31 1574.7 2690.58 1575.37 2693.58 1576.7C2696.58 1577.97 2699.15 1579.8 2701.28 1582.2C2703.48 1584.6 2705.18 1587.5 2706.38 1590.9C2707.58 1594.23 2708.18 1597.93 2708.18 1602ZM2698.48 1602C2698.48 1596.13 2697.15 1591.5 2694.48 1588.1C2691.88 1584.63 2688.31 1582.9 2683.78 1582.9C2679.25 1582.9 2675.65 1584.63 2672.98 1588.1C2670.38 1591.5 2669.08 1596.13 2669.08 1602C2669.08 1607.87 2670.38 1612.53 2672.98 1616C2675.65 1619.4 2679.25 1621.1 2683.78 1621.1C2688.31 1621.1 2691.88 1619.4 2694.48 1616C2697.15 1612.53 2698.48 1607.87 2698.48 1602ZM2739.37 1583.8C2739.37 1586 2739.3 1588.37 2739.17 1590.9C2739.1 1593.37 2738.93 1595.87 2738.67 1598.4C2738.4 1600.87 2738.03 1603.33 2737.57 1605.8C2737.1 1608.2 2736.5 1610.47 2735.77 1612.6C2735.03 1614.73 2734.1 1616.73 2732.97 1618.6C2731.9 1620.47 2730.57 1622.13 2728.97 1623.6C2727.37 1625 2725.5 1626.2 2723.37 1627.2C2721.23 1628.13 2718.73 1628.73 2715.87 1629L2714.57 1621.2C2717.83 1620.53 2720.4 1619.3 2722.27 1617.5C2724.2 1615.7 2725.73 1613.5 2726.87 1610.9C2727.87 1608.63 2728.6 1606.07 2729.07 1603.2C2729.53 1600.33 2729.87 1597.37 2730.07 1594.3C2730.27 1591.17 2730.37 1588.03 2730.37 1584.9C2730.43 1581.77 2730.47 1578.8 2730.47 1576H2765.07V1628H2755.77V1583.8H2739.37ZM2826.93 1602C2826.93 1606.13 2826.33 1609.87 2825.13 1613.2C2823.93 1616.53 2822.23 1619.4 2820.03 1621.8C2817.9 1624.2 2815.33 1626.07 2812.33 1627.4C2809.33 1628.67 2806.06 1629.3 2802.53 1629.3C2799 1629.3 2795.73 1628.67 2792.73 1627.4C2789.73 1626.07 2787.13 1624.2 2784.93 1621.8C2782.8 1619.4 2781.13 1616.53 2779.93 1613.2C2778.73 1609.87 2778.13 1606.13 2778.13 1602C2778.13 1597.93 2778.73 1594.23 2779.93 1590.9C2781.13 1587.5 2782.8 1584.6 2784.93 1582.2C2787.13 1579.8 2789.73 1577.97 2792.73 1576.7C2795.73 1575.37 2799 1574.7 2802.53 1574.7C2806.06 1574.7 2809.33 1575.37 2812.33 1576.7C2815.33 1577.97 2817.9 1579.8 2820.03 1582.2C2822.23 1584.6 2823.93 1587.5 2825.13 1590.9C2826.33 1594.23 2826.93 1597.93 2826.93 1602ZM2817.23 1602C2817.23 1596.13 2815.9 1591.5 2813.23 1588.1C2810.63 1584.63 2807.06 1582.9 2802.53 1582.9C2798 1582.9 2794.4 1584.63 2791.73 1588.1C2789.13 1591.5 2787.83 1596.13 2787.83 1602C2787.83 1607.87 2789.13 1612.53 2791.73 1616C2794.4 1619.4 2798 1621.1 2802.53 1621.1C2807.06 1621.1 2810.63 1619.4 2813.23 1616C2815.9 1612.53 2817.23 1607.87 2817.23 1602ZM2845.92 1576V1591.3C2845.92 1595.23 2846.92 1598 2848.92 1599.6C2850.92 1601.13 2853.65 1601.9 2857.12 1601.9C2859.65 1601.9 2861.75 1601.77 2863.42 1601.5C2865.15 1601.23 2866.68 1600.93 2868.02 1600.6V1576H2877.32V1628H2868.02V1607.8C2867.48 1607.93 2866.78 1608.1 2865.92 1608.3C2865.05 1608.5 2864.05 1608.7 2862.92 1608.9C2861.85 1609.03 2860.72 1609.17 2859.52 1609.3C2858.32 1609.43 2857.15 1609.5 2856.02 1609.5C2853.15 1609.5 2850.52 1609.2 2848.12 1608.6C2845.78 1608 2843.75 1607 2842.02 1605.6C2840.35 1604.2 2839.02 1602.37 2838.02 1600.1C2837.08 1597.77 2836.62 1594.87 2836.62 1591.4V1576H2845.92ZM2912.34 1599.7C2914.4 1601.17 2916.64 1603.03 2919.04 1605.3C2921.44 1607.5 2923.77 1609.9 2926.04 1612.5C2928.37 1615.1 2930.54 1617.77 2932.54 1620.5C2934.54 1623.17 2936.24 1625.67 2937.64 1628H2926.64C2925.17 1625.73 2923.44 1623.43 2921.44 1621.1C2919.5 1618.7 2917.47 1616.4 2915.34 1614.2C2913.2 1612 2911.04 1609.97 2908.84 1608.1C2906.64 1606.23 2904.57 1604.67 2902.64 1603.4V1628H2893.34V1576H2902.64V1598.3C2904.24 1596.77 2906.07 1595 2908.14 1593C2910.2 1590.93 2912.27 1588.87 2914.34 1586.8C2916.47 1584.67 2918.44 1582.67 2920.24 1580.8C2922.04 1578.87 2923.5 1577.27 2924.64 1576H2935.44C2933.97 1577.6 2932.24 1579.43 2930.24 1581.5C2928.3 1583.5 2926.27 1585.57 2924.14 1587.7C2922.07 1589.83 2920 1591.97 2917.94 1594.1C2915.87 1596.17 2914 1598.03 2912.34 1599.7ZM2964.65 1621.3C2966.85 1621.3 2968.78 1621.27 2970.45 1621.2C2972.18 1621.07 2973.61 1620.87 2974.75 1620.6V1605.1C2974.08 1604.77 2972.98 1604.5 2971.45 1604.3C2969.98 1604.03 2968.18 1603.9 2966.05 1603.9C2964.65 1603.9 2963.15 1604 2961.55 1604.2C2960.01 1604.4 2958.58 1604.83 2957.25 1605.5C2955.98 1606.1 2954.91 1606.97 2954.05 1608.1C2953.18 1609.17 2952.75 1610.6 2952.75 1612.4C2952.75 1615.73 2953.81 1618.07 2955.95 1619.4C2958.08 1620.67 2960.98 1621.3 2964.65 1621.3ZM2963.85 1574.7C2967.58 1574.7 2970.71 1575.2 2973.25 1576.2C2975.85 1577.13 2977.91 1578.5 2979.45 1580.3C2981.05 1582.03 2982.18 1584.13 2982.85 1586.6C2983.51 1589 2983.85 1591.67 2983.85 1594.6V1627.1C2983.05 1627.23 2981.91 1627.43 2980.45 1627.7C2979.05 1627.9 2977.45 1628.1 2975.65 1628.3C2973.85 1628.5 2971.88 1628.67 2969.75 1628.8C2967.68 1629 2965.61 1629.1 2963.55 1629.1C2960.61 1629.1 2957.91 1628.8 2955.45 1628.2C2952.98 1627.6 2950.85 1626.67 2949.05 1625.4C2947.25 1624.07 2945.85 1622.33 2944.85 1620.2C2943.85 1618.07 2943.35 1615.5 2943.35 1612.5C2943.35 1609.63 2943.91 1607.17 2945.05 1605.1C2946.25 1603.03 2947.85 1601.37 2949.85 1600.1C2951.85 1598.83 2954.18 1597.9 2956.85 1597.3C2959.51 1596.7 2962.31 1596.4 2965.25 1596.4C2966.18 1596.4 2967.15 1596.47 2968.15 1596.6C2969.15 1596.67 2970.08 1596.8 2970.95 1597C2971.88 1597.13 2972.68 1597.27 2973.35 1597.4C2974.01 1597.53 2974.48 1597.63 2974.75 1597.7V1595.1C2974.75 1593.57 2974.58 1592.07 2974.25 1590.6C2973.91 1589.07 2973.31 1587.73 2972.45 1586.6C2971.58 1585.4 2970.38 1584.47 2968.85 1583.8C2967.38 1583.07 2965.45 1582.7 2963.05 1582.7C2959.98 1582.7 2957.28 1582.93 2954.95 1583.4C2952.68 1583.8 2950.98 1584.23 2949.85 1584.7L2948.75 1577C2949.95 1576.47 2951.95 1575.97 2954.75 1575.5C2957.55 1574.97 2960.58 1574.7 2963.85 1574.7Z" fill="black"/>
<path d="M1984.9 1328.5C1980.03 1328.5 1975.6 1327.7 1971.6 1326.1C1967.6 1324.5 1964.17 1322.17 1961.3 1319.1C1958.43 1316.03 1956.2 1312.27 1954.6 1307.8C1953.07 1303.27 1952.3 1298.1 1952.3 1292.3C1952.3 1286.5 1953.17 1281.37 1954.9 1276.9C1956.7 1272.37 1959.1 1268.57 1962.1 1265.5C1965.1 1262.43 1968.6 1260.1 1972.6 1258.5C1976.6 1256.9 1980.87 1256.1 1985.4 1256.1C1988.27 1256.1 1990.83 1256.3 1993.1 1256.7C1995.43 1257.1 1997.43 1257.57 1999.1 1258.1C2000.83 1258.63 2002.23 1259.17 2003.3 1259.7C2004.37 1260.23 2005.1 1260.63 2005.5 1260.9L2002.7 1268.9C2002.1 1268.5 2001.23 1268.07 2000.1 1267.6C1998.97 1267.13 1997.67 1266.67 1996.2 1266.2C1994.8 1265.73 1993.23 1265.37 1991.5 1265.1C1989.83 1264.77 1988.13 1264.6 1986.4 1264.6C1982.73 1264.6 1979.43 1265.23 1976.5 1266.5C1973.57 1267.77 1971.07 1269.6 1969 1272C1966.93 1274.4 1965.33 1277.33 1964.2 1280.8C1963.13 1284.2 1962.6 1288.03 1962.6 1292.3C1962.6 1296.43 1963.07 1300.2 1964 1303.6C1965 1307 1966.47 1309.93 1968.4 1312.4C1970.33 1314.8 1972.73 1316.67 1975.6 1318C1978.53 1319.33 1981.93 1320 1985.8 1320C1990.27 1320 1993.97 1319.53 1996.9 1318.6C1999.83 1317.67 2002.03 1316.83 2003.5 1316.1L2006 1324.1C2005.53 1324.43 2004.7 1324.87 2003.5 1325.4C2002.3 1325.87 2000.8 1326.33 1999 1326.8C1997.2 1327.27 1995.1 1327.67 1992.7 1328C1990.3 1328.33 1987.7 1328.5 1984.9 1328.5ZM2060.21 1275V1327H2051.21V1287.4C2049.21 1289.93 2047.01 1292.9 2044.61 1296.3C2042.21 1299.7 2039.81 1303.23 2037.41 1306.9C2035.01 1310.5 2032.71 1314.07 2030.51 1317.6C2028.31 1321.13 2026.41 1324.27 2024.81 1327H2016.51V1275H2025.51V1312.4C2027.25 1309.53 2029.21 1306.4 2031.41 1303C2033.61 1299.53 2035.88 1296.13 2038.21 1292.8C2040.61 1289.4 2042.98 1286.17 2045.31 1283.1C2047.71 1279.97 2049.95 1277.27 2052.01 1275H2060.21ZM2118.78 1327H2109.48V1304H2085.48V1327H2076.18V1275H2085.48V1296.2H2109.48V1275H2118.78V1327ZM2180.67 1301C2180.67 1305.13 2180.07 1308.87 2178.87 1312.2C2177.67 1315.53 2175.97 1318.4 2173.77 1320.8C2171.64 1323.2 2169.07 1325.07 2166.07 1326.4C2163.07 1327.67 2159.81 1328.3 2156.27 1328.3C2152.74 1328.3 2149.47 1327.67 2146.47 1326.4C2143.47 1325.07 2140.87 1323.2 2138.67 1320.8C2136.54 1318.4 2134.87 1315.53 2133.67 1312.2C2132.47 1308.87 2131.87 1305.13 2131.87 1301C2131.87 1296.93 2132.47 1293.23 2133.67 1289.9C2134.87 1286.5 2136.54 1283.6 2138.67 1281.2C2140.87 1278.8 2143.47 1276.97 2146.47 1275.7C2149.47 1274.37 2152.74 1273.7 2156.27 1273.7C2159.81 1273.7 2163.07 1274.37 2166.07 1275.7C2169.07 1276.97 2171.64 1278.8 2173.77 1281.2C2175.97 1283.6 2177.67 1286.5 2178.87 1289.9C2180.07 1293.23 2180.67 1296.93 2180.67 1301ZM2170.97 1301C2170.97 1295.13 2169.64 1290.5 2166.97 1287.1C2164.37 1283.63 2160.81 1281.9 2156.27 1281.9C2151.74 1281.9 2148.14 1283.63 2145.47 1287.1C2142.87 1290.5 2141.57 1295.13 2141.57 1301C2141.57 1306.87 2142.87 1311.53 2145.47 1315C2148.14 1318.4 2151.74 1320.1 2156.27 1320.1C2160.81 1320.1 2164.37 1318.4 2166.97 1315C2169.64 1311.53 2170.97 1306.87 2170.97 1301ZM2202.86 1320C2203.26 1320.07 2203.82 1320.13 2204.56 1320.2C2205.29 1320.27 2206.12 1320.33 2207.06 1320.4C2207.99 1320.4 2208.96 1320.43 2209.96 1320.5C2211.02 1320.5 2212.02 1320.5 2212.96 1320.5C2214.89 1320.5 2216.72 1320.37 2218.46 1320.1C2220.26 1319.83 2221.79 1319.37 2223.06 1318.7C2224.39 1318.03 2225.42 1317.17 2226.16 1316.1C2226.96 1314.97 2227.36 1313.53 2227.36 1311.8C2227.36 1310.13 2226.99 1308.77 2226.26 1307.7C2225.59 1306.57 2224.66 1305.67 2223.46 1305C2222.26 1304.33 2220.82 1303.87 2219.16 1303.6C2217.56 1303.33 2215.82 1303.2 2213.96 1303.2H2202.86V1320ZM2212.76 1296.3C2214.56 1296.3 2216.19 1296.2 2217.66 1296C2219.19 1295.73 2220.49 1295.3 2221.56 1294.7C2222.69 1294.1 2223.56 1293.3 2224.16 1292.3C2224.82 1291.3 2225.16 1290.03 2225.16 1288.5C2225.16 1286.9 2224.76 1285.63 2223.96 1284.7C2223.16 1283.77 2222.09 1283.07 2220.76 1282.6C2219.49 1282.07 2218.02 1281.73 2216.36 1281.6C2214.76 1281.4 2213.12 1281.3 2211.46 1281.3C2209.92 1281.3 2208.36 1281.33 2206.76 1281.4C2205.22 1281.47 2203.92 1281.53 2202.86 1281.6V1296.3H2212.76ZM2212.56 1327.9C2208.62 1327.9 2204.99 1327.7 2201.66 1327.3C2198.32 1326.97 2195.69 1326.57 2193.76 1326.1V1275.5C2195.69 1275.03 2198.32 1274.63 2201.66 1274.3C2204.99 1273.9 2208.62 1273.7 2212.56 1273.7C2215.29 1273.7 2217.96 1273.93 2220.56 1274.4C2223.16 1274.87 2225.46 1275.67 2227.46 1276.8C2229.46 1277.87 2231.06 1279.37 2232.26 1281.3C2233.52 1283.17 2234.16 1285.5 2234.16 1288.3C2234.16 1290.83 2233.52 1293 2232.26 1294.8C2230.99 1296.6 2229.29 1298 2227.16 1299C2230.02 1300 2232.29 1301.5 2233.96 1303.5C2235.69 1305.43 2236.56 1308.17 2236.56 1311.7C2236.56 1314.83 2235.92 1317.43 2234.66 1319.5C2233.46 1321.57 2231.76 1323.23 2229.56 1324.5C2227.42 1325.77 2224.89 1326.63 2221.96 1327.1C2219.02 1327.63 2215.89 1327.9 2212.56 1327.9ZM2292.24 1275V1327H2283.24V1287.4C2281.24 1289.93 2279.04 1292.9 2276.64 1296.3C2274.24 1299.7 2271.84 1303.23 2269.44 1306.9C2267.04 1310.5 2264.74 1314.07 2262.54 1317.6C2260.34 1321.13 2258.44 1324.27 2256.84 1327H2248.54V1275H2257.54V1312.4C2259.28 1309.53 2261.24 1306.4 2263.44 1303C2265.64 1299.53 2267.91 1296.13 2270.24 1292.8C2272.64 1289.4 2275.01 1286.17 2277.34 1283.1C2279.74 1279.97 2281.98 1277.27 2284.04 1275H2292.24ZM2325.81 1320.3C2328.01 1320.3 2329.94 1320.27 2331.61 1320.2C2333.34 1320.07 2334.78 1319.87 2335.91 1319.6V1304.1C2335.24 1303.77 2334.14 1303.5 2332.61 1303.3C2331.14 1303.03 2329.34 1302.9 2327.21 1302.9C2325.81 1302.9 2324.31 1303 2322.71 1303.2C2321.18 1303.4 2319.74 1303.83 2318.41 1304.5C2317.14 1305.1 2316.08 1305.97 2315.21 1307.1C2314.34 1308.17 2313.91 1309.6 2313.91 1311.4C2313.91 1314.73 2314.98 1317.07 2317.11 1318.4C2319.24 1319.67 2322.14 1320.3 2325.81 1320.3ZM2325.01 1273.7C2328.74 1273.7 2331.88 1274.2 2334.41 1275.2C2337.01 1276.13 2339.08 1277.5 2340.61 1279.3C2342.21 1281.03 2343.34 1283.13 2344.01 1285.6C2344.68 1288 2345.01 1290.67 2345.01 1293.6V1326.1C2344.21 1326.23 2343.08 1326.43 2341.61 1326.7C2340.21 1326.9 2338.61 1327.1 2336.81 1327.3C2335.01 1327.5 2333.04 1327.67 2330.91 1327.8C2328.84 1328 2326.78 1328.1 2324.71 1328.1C2321.78 1328.1 2319.08 1327.8 2316.61 1327.2C2314.14 1326.6 2312.01 1325.67 2310.21 1324.4C2308.41 1323.07 2307.01 1321.33 2306.01 1319.2C2305.01 1317.07 2304.51 1314.5 2304.51 1311.5C2304.51 1308.63 2305.08 1306.17 2306.21 1304.1C2307.41 1302.03 2309.01 1300.37 2311.01 1299.1C2313.01 1297.83 2315.34 1296.9 2318.01 1296.3C2320.68 1295.7 2323.48 1295.4 2326.41 1295.4C2327.34 1295.4 2328.31 1295.47 2329.31 1295.6C2330.31 1295.67 2331.24 1295.8 2332.11 1296C2333.04 1296.13 2333.84 1296.27 2334.51 1296.4C2335.18 1296.53 2335.64 1296.63 2335.91 1296.7V1294.1C2335.91 1292.57 2335.74 1291.07 2335.41 1289.6C2335.08 1288.07 2334.48 1286.73 2333.61 1285.6C2332.74 1284.4 2331.54 1283.47 2330.01 1282.8C2328.54 1282.07 2326.61 1281.7 2324.21 1281.7C2321.14 1281.7 2318.44 1281.93 2316.11 1282.4C2313.84 1282.8 2312.14 1283.23 2311.01 1283.7L2309.91 1276C2311.11 1275.47 2313.11 1274.97 2315.91 1274.5C2318.71 1273.97 2321.74 1273.7 2325.01 1273.7ZM2378.56 1282.8C2378.56 1285 2378.49 1287.37 2378.36 1289.9C2378.29 1292.37 2378.12 1294.87 2377.86 1297.4C2377.59 1299.87 2377.22 1302.33 2376.76 1304.8C2376.29 1307.2 2375.69 1309.47 2374.96 1311.6C2374.22 1313.73 2373.29 1315.73 2372.16 1317.6C2371.09 1319.47 2369.76 1321.13 2368.16 1322.6C2366.56 1324 2364.69 1325.2 2362.56 1326.2C2360.42 1327.13 2357.92 1327.73 2355.06 1328L2353.76 1320.2C2357.02 1319.53 2359.59 1318.3 2361.46 1316.5C2363.39 1314.7 2364.92 1312.5 2366.06 1309.9C2367.06 1307.63 2367.79 1305.07 2368.26 1302.2C2368.72 1299.33 2369.06 1296.37 2369.26 1293.3C2369.46 1290.17 2369.56 1287.03 2369.56 1283.9C2369.62 1280.77 2369.66 1277.8 2369.66 1275H2404.26V1327H2394.96V1282.8H2378.56ZM2439.92 1320.5C2443.86 1320.5 2446.96 1319.73 2449.22 1318.2C2451.49 1316.67 2452.62 1314.2 2452.62 1310.8C2452.62 1309.13 2452.29 1307.7 2451.62 1306.5C2450.96 1305.3 2450.02 1304.33 2448.82 1303.6C2447.69 1302.8 2446.36 1302.23 2444.82 1301.9C2443.29 1301.5 2441.66 1301.3 2439.92 1301.3C2438.12 1301.3 2436.26 1301.37 2434.32 1301.5C2432.46 1301.57 2430.86 1301.77 2429.52 1302.1V1320C2429.92 1320.07 2430.52 1320.13 2431.32 1320.2C2432.12 1320.27 2432.99 1320.33 2433.92 1320.4C2434.92 1320.4 2435.92 1320.43 2436.92 1320.5C2437.99 1320.5 2438.99 1320.5 2439.92 1320.5ZM2420.22 1325.9V1275H2429.52V1294.9C2430.06 1294.77 2430.76 1294.63 2431.62 1294.5C2432.56 1294.37 2433.52 1294.23 2434.52 1294.1C2435.59 1293.97 2436.69 1293.87 2437.82 1293.8C2438.96 1293.73 2440.02 1293.7 2441.02 1293.7C2443.89 1293.7 2446.59 1294.03 2449.12 1294.7C2451.66 1295.3 2453.86 1296.3 2455.72 1297.7C2457.66 1299.03 2459.19 1300.8 2460.32 1303C2461.46 1305.13 2462.02 1307.7 2462.02 1310.7C2462.02 1313.83 2461.49 1316.5 2460.42 1318.7C2459.36 1320.9 2457.82 1322.7 2455.82 1324.1C2453.82 1325.5 2451.42 1326.5 2448.62 1327.1C2445.89 1327.77 2442.82 1328.1 2439.42 1328.1C2436.09 1328.1 2432.82 1327.9 2429.62 1327.5C2426.42 1327.17 2423.29 1326.63 2420.22 1325.9ZM2515.65 1327H2506.35V1304H2482.35V1327H2473.05V1275H2482.35V1296.2H2506.35V1275H2515.65V1327ZM2549.25 1320.3C2551.45 1320.3 2553.38 1320.27 2555.05 1320.2C2556.78 1320.07 2558.22 1319.87 2559.35 1319.6V1304.1C2558.68 1303.77 2557.58 1303.5 2556.05 1303.3C2554.58 1303.03 2552.78 1302.9 2550.65 1302.9C2549.25 1302.9 2547.75 1303 2546.15 1303.2C2544.62 1303.4 2543.18 1303.83 2541.85 1304.5C2540.58 1305.1 2539.52 1305.97 2538.65 1307.1C2537.78 1308.17 2537.35 1309.6 2537.35 1311.4C2537.35 1314.73 2538.42 1317.07 2540.55 1318.4C2542.68 1319.67 2545.58 1320.3 2549.25 1320.3ZM2548.45 1273.7C2552.18 1273.7 2555.32 1274.2 2557.85 1275.2C2560.45 1276.13 2562.52 1277.5 2564.05 1279.3C2565.65 1281.03 2566.78 1283.13 2567.45 1285.6C2568.12 1288 2568.45 1290.67 2568.45 1293.6V1326.1C2567.65 1326.23 2566.52 1326.43 2565.05 1326.7C2563.65 1326.9 2562.05 1327.1 2560.25 1327.3C2558.45 1327.5 2556.48 1327.67 2554.35 1327.8C2552.28 1328 2550.22 1328.1 2548.15 1328.1C2545.22 1328.1 2542.52 1327.8 2540.05 1327.2C2537.58 1326.6 2535.45 1325.67 2533.65 1324.4C2531.85 1323.07 2530.45 1321.33 2529.45 1319.2C2528.45 1317.07 2527.95 1314.5 2527.95 1311.5C2527.95 1308.63 2528.52 1306.17 2529.65 1304.1C2530.85 1302.03 2532.45 1300.37 2534.45 1299.1C2536.45 1297.83 2538.78 1296.9 2541.45 1296.3C2544.12 1295.7 2546.92 1295.4 2549.85 1295.4C2550.78 1295.4 2551.75 1295.47 2552.75 1295.6C2553.75 1295.67 2554.68 1295.8 2555.55 1296C2556.48 1296.13 2557.28 1296.27 2557.95 1296.4C2558.62 1296.53 2559.08 1296.63 2559.35 1296.7V1294.1C2559.35 1292.57 2559.18 1291.07 2558.85 1289.6C2558.52 1288.07 2557.92 1286.73 2557.05 1285.6C2556.18 1284.4 2554.98 1283.47 2553.45 1282.8C2551.98 1282.07 2550.05 1281.7 2547.65 1281.7C2544.58 1281.7 2541.88 1281.93 2539.55 1282.4C2537.28 1282.8 2535.58 1283.23 2534.45 1283.7L2533.35 1276C2534.55 1275.47 2536.55 1274.97 2539.35 1274.5C2542.15 1273.97 2545.18 1273.7 2548.45 1273.7ZM2605.39 1306.8C2604.39 1306.8 2603.43 1306.8 2602.49 1306.8C2601.56 1306.73 2600.66 1306.67 2599.79 1306.6C2597.66 1309.8 2595.59 1313.23 2593.59 1316.9C2591.66 1320.5 2589.93 1323.87 2588.39 1327H2578.99C2579.79 1325.07 2580.73 1323.1 2581.79 1321.1C2582.86 1319.03 2583.93 1317.03 2584.99 1315.1C2586.13 1313.17 2587.26 1311.33 2588.39 1309.6C2589.53 1307.87 2590.59 1306.3 2591.59 1304.9C2589.73 1304.23 2588.19 1303.43 2586.99 1302.5C2585.79 1301.5 2584.83 1300.4 2584.09 1299.2C2583.36 1298 2582.83 1296.73 2582.49 1295.4C2582.23 1294 2582.09 1292.6 2582.09 1291.2C2582.09 1288.27 2582.63 1285.7 2583.69 1283.5C2584.83 1281.3 2586.36 1279.5 2588.29 1278.1C2590.23 1276.63 2592.49 1275.53 2595.09 1274.8C2597.76 1274.07 2600.66 1273.7 2603.79 1273.7C2608.19 1273.7 2611.93 1273.9 2614.99 1274.3C2618.06 1274.7 2620.63 1275.17 2622.69 1275.7V1327H2613.49V1306.8H2605.39ZM2613.49 1281.9C2612.76 1281.77 2611.53 1281.63 2609.79 1281.5C2608.13 1281.37 2606.19 1281.3 2603.99 1281.3C2600.19 1281.3 2597.13 1282.1 2594.79 1283.7C2592.46 1285.23 2591.29 1287.7 2591.29 1291.1C2591.29 1294.43 2592.49 1296.73 2594.89 1298C2597.29 1299.27 2600.39 1299.9 2604.19 1299.9H2613.49V1281.9ZM2725.92 1275C2724.59 1276.67 2723.09 1278.5 2721.42 1280.5C2719.76 1282.43 2718.02 1284.47 2716.22 1286.6C2714.42 1288.67 2712.59 1290.73 2710.72 1292.8C2708.92 1294.87 2707.19 1296.83 2705.52 1298.7C2707.52 1300.63 2709.59 1302.73 2711.72 1305C2713.86 1307.27 2715.92 1309.63 2717.92 1312.1C2719.99 1314.5 2721.96 1317 2723.82 1319.6C2725.69 1322.13 2727.32 1324.6 2728.72 1327H2718.32C2716.92 1324.8 2715.29 1322.5 2713.42 1320.1C2711.62 1317.63 2709.72 1315.27 2707.72 1313C2705.79 1310.73 2703.82 1308.63 2701.82 1306.7C2699.89 1304.7 2698.09 1303.07 2696.42 1301.8V1327H2687.52V1301.8C2685.86 1303.07 2684.02 1304.7 2682.02 1306.7C2680.09 1308.63 2678.12 1310.73 2676.12 1313C2674.19 1315.27 2672.29 1317.63 2670.42 1320.1C2668.62 1322.5 2667.02 1324.8 2665.62 1327H2655.32C2656.72 1324.6 2658.32 1322.13 2660.12 1319.6C2661.99 1317.07 2663.92 1314.6 2665.92 1312.2C2667.99 1309.73 2670.09 1307.37 2672.22 1305.1C2674.36 1302.83 2676.42 1300.73 2678.42 1298.8C2676.76 1296.93 2674.99 1294.97 2673.12 1292.9C2671.32 1290.83 2669.52 1288.77 2667.72 1286.7C2665.92 1284.57 2664.19 1282.53 2662.52 1280.6C2660.86 1278.6 2659.32 1276.73 2657.92 1275H2668.22C2670.62 1278 2673.39 1281.33 2676.52 1285C2679.66 1288.67 2683.32 1292.9 2687.52 1297.7V1275H2696.42V1297.7C2700.62 1292.9 2704.29 1288.67 2707.42 1285C2710.56 1281.33 2713.32 1278 2715.72 1275H2725.92ZM2781.79 1275V1327H2772.79V1287.4C2770.79 1289.93 2768.59 1292.9 2766.19 1296.3C2763.79 1299.7 2761.39 1303.23 2758.99 1306.9C2756.59 1310.5 2754.29 1314.07 2752.09 1317.6C2749.89 1321.13 2747.99 1324.27 2746.39 1327H2738.09V1275H2747.09V1312.4C2748.83 1309.53 2750.79 1306.4 2752.99 1303C2755.19 1299.53 2757.46 1296.13 2759.79 1292.8C2762.19 1289.4 2764.56 1286.17 2766.89 1283.1C2769.29 1279.97 2771.53 1277.27 2773.59 1275H2781.79ZM2791.36 1319.4H2796.96C2799.16 1316.2 2800.9 1312.9 2802.16 1309.5C2803.5 1306.1 2804.5 1302.6 2805.16 1299C2805.83 1295.33 2806.26 1291.53 2806.46 1287.6C2806.66 1283.6 2806.8 1279.4 2806.86 1275H2840.96V1319.4H2847.96V1341.5H2839.16V1327H2800.16V1341.5H2791.36V1319.4ZM2831.66 1319.4V1282.8H2815.36C2815.3 1285.93 2815.13 1289.1 2814.86 1292.3C2814.6 1295.43 2814.16 1298.57 2813.56 1301.7C2812.96 1304.77 2812.1 1307.8 2810.96 1310.8C2809.9 1313.73 2808.53 1316.6 2806.86 1319.4H2831.66ZM2877.02 1298.7C2879.08 1300.17 2881.32 1302.03 2883.72 1304.3C2886.12 1306.5 2888.45 1308.9 2890.72 1311.5C2893.05 1314.1 2895.22 1316.77 2897.22 1319.5C2899.22 1322.17 2900.92 1324.67 2902.32 1327H2891.32C2889.85 1324.73 2888.12 1322.43 2886.12 1320.1C2884.18 1317.7 2882.15 1315.4 2880.02 1313.2C2877.88 1311 2875.72 1308.97 2873.52 1307.1C2871.32 1305.23 2869.25 1303.67 2867.32 1302.4V1327H2858.02V1275H2867.32V1297.3C2868.92 1295.77 2870.75 1294 2872.82 1292C2874.88 1289.93 2876.95 1287.87 2879.02 1285.8C2881.15 1283.67 2883.12 1281.67 2884.92 1279.8C2886.72 1277.87 2888.18 1276.27 2889.32 1275H2900.12C2898.65 1276.6 2896.92 1278.43 2894.92 1280.5C2892.98 1282.5 2890.95 1284.57 2888.82 1286.7C2886.75 1288.83 2884.68 1290.97 2882.62 1293.1C2880.55 1295.17 2878.68 1297.03 2877.02 1298.7ZM2954.7 1301C2954.7 1305.13 2954.1 1308.87 2952.9 1312.2C2951.7 1315.53 2950 1318.4 2947.8 1320.8C2945.66 1323.2 2943.1 1325.07 2940.1 1326.4C2937.1 1327.67 2933.83 1328.3 2930.3 1328.3C2926.76 1328.3 2923.5 1327.67 2920.5 1326.4C2917.5 1325.07 2914.9 1323.2 2912.7 1320.8C2910.56 1318.4 2908.9 1315.53 2907.7 1312.2C2906.5 1308.87 2905.9 1305.13 2905.9 1301C2905.9 1296.93 2906.5 1293.23 2907.7 1289.9C2908.9 1286.5 2910.56 1283.6 2912.7 1281.2C2914.9 1278.8 2917.5 1276.97 2920.5 1275.7C2923.5 1274.37 2926.76 1273.7 2930.3 1273.7C2933.83 1273.7 2937.1 1274.37 2940.1 1275.7C2943.1 1276.97 2945.66 1278.8 2947.8 1281.2C2950 1283.6 2951.7 1286.5 2952.9 1289.9C2954.1 1293.23 2954.7 1296.93 2954.7 1301ZM2945 1301C2945 1295.13 2943.66 1290.5 2941 1287.1C2938.4 1283.63 2934.83 1281.9 2930.3 1281.9C2925.76 1281.9 2922.16 1283.63 2919.5 1287.1C2916.9 1290.5 2915.6 1295.13 2915.6 1301C2915.6 1306.87 2916.9 1311.53 2919.5 1315C2922.16 1318.4 2925.76 1320.1 2930.3 1320.1C2934.83 1320.1 2938.4 1318.4 2941 1315C2943.66 1311.53 2945 1306.87 2945 1301ZM2990.38 1328.2C2986.18 1328.2 2982.48 1327.53 2979.28 1326.2C2976.15 1324.87 2973.48 1323 2971.28 1320.6C2969.15 1318.2 2967.55 1315.37 2966.48 1312.1C2965.41 1308.77 2964.88 1305.1 2964.88 1301.1C2964.88 1297.1 2965.45 1293.43 2966.58 1290.1C2967.78 1286.77 2969.45 1283.9 2971.58 1281.5C2973.71 1279.03 2976.31 1277.13 2979.38 1275.8C2982.51 1274.4 2985.98 1273.7 2989.78 1273.7C2992.11 1273.7 2994.45 1273.9 2996.78 1274.3C2999.11 1274.7 3001.35 1275.33 3003.48 1276.2L3001.38 1284.1C2999.98 1283.43 2998.35 1282.9 2996.48 1282.5C2994.68 1282.1 2992.75 1281.9 2990.68 1281.9C2985.48 1281.9 2981.48 1283.53 2978.68 1286.8C2975.95 1290.07 2974.58 1294.83 2974.58 1301.1C2974.58 1303.9 2974.88 1306.47 2975.48 1308.8C2976.15 1311.13 2977.15 1313.13 2978.48 1314.8C2979.88 1316.47 2981.65 1317.77 2983.78 1318.7C2985.91 1319.57 2988.51 1320 2991.58 1320C2994.05 1320 2996.28 1319.77 2998.28 1319.3C3000.28 1318.83 3001.85 1318.33 3002.98 1317.8L3004.28 1325.6C3003.75 1325.93 3002.98 1326.27 3001.98 1326.6C3000.98 1326.87 2999.85 1327.1 2998.58 1327.3C2997.31 1327.57 2995.95 1327.77 2994.48 1327.9C2993.08 1328.1 2991.71 1328.2 2990.38 1328.2ZM3052.43 1275V1282.8H3035.53V1327H3026.23V1282.8H3009.33V1275H3052.43ZM3081.72 1320.5C3085.65 1320.5 3088.75 1319.73 3091.02 1318.2C3093.29 1316.67 3094.42 1314.2 3094.42 1310.8C3094.42 1309.13 3094.09 1307.7 3093.42 1306.5C3092.75 1305.3 3091.82 1304.33 3090.62 1303.6C3089.49 1302.8 3088.15 1302.23 3086.62 1301.9C3085.09 1301.5 3083.45 1301.3 3081.72 1301.3C3079.92 1301.3 3078.05 1301.37 3076.12 1301.5C3074.25 1301.57 3072.65 1301.77 3071.32 1302.1V1320C3071.72 1320.07 3072.32 1320.13 3073.12 1320.2C3073.92 1320.27 3074.79 1320.33 3075.72 1320.4C3076.72 1320.4 3077.72 1320.43 3078.72 1320.5C3079.79 1320.5 3080.79 1320.5 3081.72 1320.5ZM3062.02 1325.9V1275H3071.32V1294.9C3071.85 1294.77 3072.55 1294.63 3073.42 1294.5C3074.35 1294.37 3075.32 1294.23 3076.32 1294.1C3077.39 1293.97 3078.49 1293.87 3079.62 1293.8C3080.75 1293.73 3081.82 1293.7 3082.82 1293.7C3085.69 1293.7 3088.39 1294.03 3090.92 1294.7C3093.45 1295.3 3095.65 1296.3 3097.52 1297.7C3099.45 1299.03 3100.99 1300.8 3102.12 1303C3103.25 1305.13 3103.82 1307.7 3103.82 1310.7C3103.82 1313.83 3103.29 1316.5 3102.22 1318.7C3101.15 1320.9 3099.62 1322.7 3097.62 1324.1C3095.62 1325.5 3093.22 1326.5 3090.42 1327.1C3087.69 1327.77 3084.62 1328.1 3081.22 1328.1C3077.89 1328.1 3074.62 1327.9 3071.42 1327.5C3068.22 1327.17 3065.09 1326.63 3062.02 1325.9Z" fill="black"/>
<path d="M1950.9 908.5C1946.03 908.5 1941.6 907.7 1937.6 906.1C1933.6 904.5 1930.17 902.167 1927.3 899.1C1924.43 896.033 1922.2 892.267 1920.6 887.8C1919.07 883.267 1918.3 878.1 1918.3 872.3C1918.3 866.5 1919.17 861.367 1920.9 856.9C1922.7 852.367 1925.1 848.567 1928.1 845.5C1931.1 842.433 1934.6 840.1 1938.6 838.5C1942.6 836.9 1946.87 836.1 1951.4 836.1C1954.27 836.1 1956.83 836.3 1959.1 836.7C1961.43 837.1 1963.43 837.567 1965.1 838.1C1966.83 838.633 1968.23 839.167 1969.3 839.7C1970.37 840.233 1971.1 840.633 1971.5 840.9L1968.7 848.9C1968.1 848.5 1967.23 848.067 1966.1 847.6C1964.97 847.133 1963.67 846.667 1962.2 846.2C1960.8 845.733 1959.23 845.367 1957.5 845.1C1955.83 844.767 1954.13 844.6 1952.4 844.6C1948.73 844.6 1945.43 845.233 1942.5 846.5C1939.57 847.767 1937.07 849.6 1935 852C1932.93 854.4 1931.33 857.333 1930.2 860.8C1929.13 864.2 1928.6 868.033 1928.6 872.3C1928.6 876.433 1929.07 880.2 1930 883.6C1931 887 1932.47 889.933 1934.4 892.4C1936.33 894.8 1938.73 896.667 1941.6 898C1944.53 899.333 1947.93 900 1951.8 900C1956.27 900 1959.97 899.533 1962.9 898.6C1965.83 897.667 1968.03 896.833 1969.5 896.1L1972 904.1C1971.53 904.433 1970.7 904.867 1969.5 905.4C1968.3 905.867 1966.8 906.333 1965 906.8C1963.2 907.267 1961.1 907.667 1958.7 908C1956.3 908.333 1953.7 908.5 1950.9 908.5ZM1974.85 916.7C1975.58 917.033 1976.52 917.333 1977.65 917.6C1978.85 917.933 1980.02 918.1 1981.15 918.1C1984.82 918.1 1987.68 917.267 1989.75 915.6C1991.82 914 1993.68 911.367 1995.35 907.7C1991.15 899.7 1987.22 891.233 1983.55 882.3C1979.95 873.3 1976.95 864.2 1974.55 855H1984.55C1985.28 858 1986.15 861.233 1987.15 864.7C1988.22 868.167 1989.38 871.733 1990.65 875.4C1991.92 879.067 1993.28 882.733 1994.75 886.4C1996.22 890.067 1997.75 893.6 1999.35 897C2001.88 890 2004.08 883.067 2005.95 876.2C2007.82 869.333 2009.58 862.267 2011.25 855H2020.85C2018.45 864.8 2015.78 874.233 2012.85 883.3C2009.92 892.3 2006.75 900.733 2003.35 908.6C2002.02 911.6 2000.62 914.167 1999.15 916.3C1997.75 918.5 1996.18 920.3 1994.45 921.7C1992.72 923.1 1990.75 924.133 1988.55 924.8C1986.42 925.467 1983.98 925.8 1981.25 925.8C1980.52 925.8 1979.75 925.733 1978.95 925.6C1978.15 925.533 1977.35 925.4 1976.55 925.2C1975.82 925.067 1975.12 924.9 1974.45 924.7C1973.85 924.5 1973.42 924.333 1973.15 924.2L1974.85 916.7ZM2052.08 908.2C2047.88 908.2 2044.18 907.533 2040.98 906.2C2037.85 904.867 2035.18 903 2032.98 900.6C2030.85 898.2 2029.25 895.367 2028.18 892.1C2027.12 888.767 2026.58 885.1 2026.58 881.1C2026.58 877.1 2027.15 873.433 2028.28 870.1C2029.48 866.767 2031.15 863.9 2033.28 861.5C2035.42 859.033 2038.02 857.133 2041.08 855.8C2044.22 854.4 2047.68 853.7 2051.48 853.7C2053.82 853.7 2056.15 853.9 2058.48 854.3C2060.82 854.7 2063.05 855.333 2065.18 856.2L2063.08 864.1C2061.68 863.433 2060.05 862.9 2058.18 862.5C2056.38 862.1 2054.45 861.9 2052.38 861.9C2047.18 861.9 2043.18 863.533 2040.38 866.8C2037.65 870.067 2036.28 874.833 2036.28 881.1C2036.28 883.9 2036.58 886.467 2037.18 888.8C2037.85 891.133 2038.85 893.133 2040.18 894.8C2041.58 896.467 2043.35 897.767 2045.48 898.7C2047.62 899.567 2050.22 900 2053.28 900C2055.75 900 2057.98 899.767 2059.98 899.3C2061.98 898.833 2063.55 898.333 2064.68 897.8L2065.98 905.6C2065.45 905.933 2064.68 906.267 2063.68 906.6C2062.68 906.867 2061.55 907.1 2060.28 907.3C2059.02 907.567 2057.65 907.767 2056.18 907.9C2054.78 908.1 2053.42 908.2 2052.08 908.2ZM2114.13 855V862.8H2097.23V907H2087.93V862.8H2071.03V855H2114.13ZM2141.32 900.3C2143.52 900.3 2145.46 900.267 2147.12 900.2C2148.86 900.067 2150.29 899.867 2151.42 899.6V884.1C2150.76 883.767 2149.66 883.5 2148.12 883.3C2146.66 883.033 2144.86 882.9 2142.72 882.9C2141.32 882.9 2139.82 883 2138.22 883.2C2136.69 883.4 2135.26 883.833 2133.92 884.5C2132.66 885.1 2131.59 885.967 2130.72 887.1C2129.86 888.167 2129.42 889.6 2129.42 891.4C2129.42 894.733 2130.49 897.067 2132.62 898.4C2134.76 899.667 2137.66 900.3 2141.32 900.3ZM2140.52 853.7C2144.26 853.7 2147.39 854.2 2149.92 855.2C2152.52 856.133 2154.59 857.5 2156.12 859.3C2157.72 861.033 2158.86 863.133 2159.52 865.6C2160.19 868 2160.52 870.667 2160.52 873.6V906.1C2159.72 906.233 2158.59 906.433 2157.12 906.7C2155.72 906.9 2154.12 907.1 2152.32 907.3C2150.52 907.5 2148.56 907.667 2146.42 907.8C2144.36 908 2142.29 908.1 2140.22 908.1C2137.29 908.1 2134.59 907.8 2132.12 907.2C2129.66 906.6 2127.52 905.667 2125.72 904.4C2123.92 903.067 2122.52 901.333 2121.52 899.2C2120.52 897.067 2120.02 894.5 2120.02 891.5C2120.02 888.633 2120.59 886.167 2121.72 884.1C2122.92 882.033 2124.52 880.367 2126.52 879.1C2128.52 877.833 2130.86 876.9 2133.52 876.3C2136.19 875.7 2138.99 875.4 2141.92 875.4C2142.86 875.4 2143.82 875.467 2144.82 875.6C2145.82 875.667 2146.76 875.8 2147.62 876C2148.56 876.133 2149.36 876.267 2150.02 876.4C2150.69 876.533 2151.16 876.633 2151.42 876.7V874.1C2151.42 872.567 2151.26 871.067 2150.92 869.6C2150.59 868.067 2149.99 866.733 2149.12 865.6C2148.26 864.4 2147.06 863.467 2145.52 862.8C2144.06 862.067 2142.12 861.7 2139.72 861.7C2136.66 861.7 2133.96 861.933 2131.62 862.4C2129.36 862.8 2127.66 863.233 2126.52 863.7L2125.42 856C2126.62 855.467 2128.62 854.967 2131.42 854.5C2134.22 853.967 2137.26 853.7 2140.52 853.7ZM2185.07 900C2185.47 900.067 2186.04 900.133 2186.77 900.2C2187.5 900.267 2188.34 900.333 2189.27 900.4C2190.2 900.4 2191.17 900.433 2192.17 900.5C2193.24 900.5 2194.24 900.5 2195.17 900.5C2197.1 900.5 2198.94 900.367 2200.67 900.1C2202.47 899.833 2204 899.367 2205.27 898.7C2206.6 898.033 2207.64 897.167 2208.37 896.1C2209.17 894.967 2209.57 893.533 2209.57 891.8C2209.57 890.133 2209.2 888.767 2208.47 887.7C2207.8 886.567 2206.87 885.667 2205.67 885C2204.47 884.333 2203.04 883.867 2201.37 883.6C2199.77 883.333 2198.04 883.2 2196.17 883.2H2185.07V900ZM2194.97 876.3C2196.77 876.3 2198.4 876.2 2199.87 876C2201.4 875.733 2202.7 875.3 2203.77 874.7C2204.9 874.1 2205.77 873.3 2206.37 872.3C2207.04 871.3 2207.37 870.033 2207.37 868.5C2207.37 866.9 2206.97 865.633 2206.17 864.7C2205.37 863.767 2204.3 863.067 2202.97 862.6C2201.7 862.067 2200.24 861.733 2198.57 861.6C2196.97 861.4 2195.34 861.3 2193.67 861.3C2192.14 861.3 2190.57 861.333 2188.97 861.4C2187.44 861.467 2186.14 861.533 2185.07 861.6V876.3H2194.97ZM2194.77 907.9C2190.84 907.9 2187.2 907.7 2183.87 907.3C2180.54 906.967 2177.9 906.567 2175.97 906.1V855.5C2177.9 855.033 2180.54 854.633 2183.87 854.3C2187.2 853.9 2190.84 853.7 2194.77 853.7C2197.5 853.7 2200.17 853.933 2202.77 854.4C2205.37 854.867 2207.67 855.667 2209.67 856.8C2211.67 857.867 2213.27 859.367 2214.47 861.3C2215.74 863.167 2216.37 865.5 2216.37 868.3C2216.37 870.833 2215.74 873 2214.47 874.8C2213.2 876.6 2211.5 878 2209.37 879C2212.24 880 2214.5 881.5 2216.17 883.5C2217.9 885.433 2218.77 888.167 2218.77 891.7C2218.77 894.833 2218.14 897.433 2216.87 899.5C2215.67 901.567 2213.97 903.233 2211.77 904.5C2209.64 905.767 2207.1 906.633 2204.17 907.1C2201.24 907.633 2198.1 907.9 2194.77 907.9ZM2273.35 907H2264.05V884H2240.05V907H2230.75V855H2240.05V876.2H2264.05V855H2273.35V907ZM2335.25 881C2335.25 885.133 2334.65 888.867 2333.45 892.2C2332.25 895.533 2330.55 898.4 2328.35 900.8C2326.21 903.2 2323.65 905.067 2320.65 906.4C2317.65 907.667 2314.38 908.3 2310.85 908.3C2307.31 908.3 2304.05 907.667 2301.05 906.4C2298.05 905.067 2295.45 903.2 2293.25 900.8C2291.11 898.4 2289.45 895.533 2288.25 892.2C2287.05 888.867 2286.45 885.133 2286.45 881C2286.45 876.933 2287.05 873.233 2288.25 869.9C2289.45 866.5 2291.11 863.6 2293.25 861.2C2295.45 858.8 2298.05 856.967 2301.05 855.7C2304.05 854.367 2307.31 853.7 2310.85 853.7C2314.38 853.7 2317.65 854.367 2320.65 855.7C2323.65 856.967 2326.21 858.8 2328.35 861.2C2330.55 863.6 2332.25 866.5 2333.45 869.9C2334.65 873.233 2335.25 876.933 2335.25 881ZM2325.55 881C2325.55 875.133 2324.21 870.5 2321.55 867.1C2318.95 863.633 2315.38 861.9 2310.85 861.9C2306.31 861.9 2302.71 863.633 2300.05 867.1C2297.45 870.5 2296.15 875.133 2296.15 881C2296.15 886.867 2297.45 891.533 2300.05 895C2302.71 898.4 2306.31 900.1 2310.85 900.1C2315.38 900.1 2318.95 898.4 2321.55 895C2324.21 891.533 2325.55 886.867 2325.55 881ZM2392.03 855V907H2383.03V867.4C2381.03 869.933 2378.83 872.9 2376.43 876.3C2374.03 879.7 2371.63 883.233 2369.23 886.9C2366.83 890.5 2364.53 894.067 2362.33 897.6C2360.13 901.133 2358.23 904.267 2356.63 907H2348.33V855H2357.33V892.4C2359.07 889.533 2361.03 886.4 2363.23 883C2365.43 879.533 2367.7 876.133 2370.03 872.8C2372.43 869.4 2374.8 866.167 2377.13 863.1C2379.53 859.967 2381.77 857.267 2383.83 855H2392.03ZM2370.23 846.6C2366.03 846.6 2362.6 845.533 2359.93 843.4C2357.33 841.267 2355.77 838.3 2355.23 834.5L2362.33 832.6C2362.87 834.733 2363.77 836.467 2365.03 837.8C2366.3 839.133 2368.03 839.8 2370.23 839.8C2372.43 839.8 2374.17 839.133 2375.43 837.8C2376.7 836.467 2377.6 834.733 2378.13 832.6L2385.13 834.5C2384.6 838.3 2383.03 841.267 2380.43 843.4C2377.83 845.533 2374.43 846.6 2370.23 846.6ZM2462.24 907C2461.51 905.533 2460.61 903.9 2459.54 902.1C2458.48 900.3 2457.31 898.467 2456.04 896.6C2454.78 894.667 2453.48 892.767 2452.14 890.9C2450.81 889.033 2449.51 887.267 2448.24 885.6C2446.98 887.267 2445.68 889.067 2444.34 891C2443.01 892.867 2441.71 894.767 2440.44 896.7C2439.24 898.567 2438.11 900.4 2437.04 902.2C2435.98 904 2435.08 905.6 2434.34 907H2424.74C2427.08 902.467 2429.84 897.867 2433.04 893.2C2436.31 888.467 2439.54 883.967 2442.74 879.7L2425.54 855H2436.04L2448.44 873.2L2460.94 855H2470.84L2454.04 879.1C2457.24 883.433 2460.51 888.033 2463.84 892.9C2467.24 897.7 2470.11 902.4 2472.44 907H2462.24ZM2518.32 881.1C2518.32 875.033 2516.82 870.367 2513.82 867.1C2510.82 863.833 2506.82 862.2 2501.82 862.2C2499.02 862.2 2496.82 862.3 2495.22 862.5C2493.69 862.7 2492.45 862.933 2491.52 863.2V896C2492.65 896.933 2494.29 897.833 2496.42 898.7C2498.55 899.567 2500.89 900 2503.42 900C2506.09 900 2508.35 899.533 2510.22 898.6C2512.15 897.6 2513.72 896.267 2514.92 894.6C2516.12 892.867 2516.99 890.867 2517.52 888.6C2518.05 886.267 2518.32 883.767 2518.32 881.1ZM2528.02 881.1C2528.02 885.033 2527.49 888.667 2526.42 892C2525.42 895.333 2523.92 898.2 2521.92 900.6C2519.92 903 2517.45 904.867 2514.52 906.2C2511.65 907.533 2508.35 908.2 2504.62 908.2C2501.62 908.2 2498.95 907.8 2496.62 907C2494.35 906.2 2492.65 905.433 2491.52 904.7V925.5H2482.22V856.6C2484.42 856.067 2487.15 855.5 2490.42 854.9C2493.75 854.233 2497.59 853.9 2501.92 853.9C2505.92 853.9 2509.52 854.533 2512.72 855.8C2515.92 857.067 2518.65 858.867 2520.92 861.2C2523.19 863.533 2524.92 866.4 2526.12 869.8C2527.39 873.133 2528.02 876.9 2528.02 881.1ZM2562.61 886.8C2561.61 886.8 2560.64 886.8 2559.71 886.8C2558.77 886.733 2557.87 886.667 2557.01 886.6C2554.87 889.8 2552.81 893.233 2550.81 896.9C2548.87 900.5 2547.14 903.867 2545.61 907H2536.21C2537.01 905.067 2537.94 903.1 2539.01 901.1C2540.07 899.033 2541.14 897.033 2542.21 895.1C2543.34 893.167 2544.47 891.333 2545.61 889.6C2546.74 887.867 2547.81 886.3 2548.81 884.9C2546.94 884.233 2545.41 883.433 2544.21 882.5C2543.01 881.5 2542.04 880.4 2541.31 879.2C2540.57 878 2540.04 876.733 2539.71 875.4C2539.44 874 2539.31 872.6 2539.31 871.2C2539.31 868.267 2539.84 865.7 2540.91 863.5C2542.04 861.3 2543.57 859.5 2545.51 858.1C2547.44 856.633 2549.71 855.533 2552.31 854.8C2554.97 854.067 2557.87 853.7 2561.01 853.7C2565.41 853.7 2569.14 853.9 2572.21 854.3C2575.27 854.7 2577.84 855.167 2579.91 855.7V907H2570.71V886.8H2562.61ZM2570.71 861.9C2569.97 861.767 2568.74 861.633 2567.01 861.5C2565.34 861.367 2563.41 861.3 2561.21 861.3C2557.41 861.3 2554.34 862.1 2552.01 863.7C2549.67 865.233 2548.51 867.7 2548.51 871.1C2548.51 874.433 2549.71 876.733 2552.11 878C2554.51 879.267 2557.61 879.9 2561.41 879.9H2570.71V861.9ZM2595.89 907V855H2605.19V899.3H2624.39V855H2633.69V899.3H2652.89V855H2662.19V899.3H2669.19V921.5H2660.39V907H2595.89Z" fill="black"/>
<path d="M2639.5 460H1747.5L1527.5 581M2681 952H1914.5L1397.5 1055.5M3117.5 1349.5H1947L1623.5 1113.5M2997.5 1673H1823.5L1578.5 1469" stroke="black" stroke-width="10" stroke-linecap="round"/>
<path d="M61.7 1462.7H71.4V1532H61.7V1500H27.8V1532H18.1V1462.7H27.8V1491.6H61.7V1462.7ZM105.608 1525.3C107.808 1525.3 109.741 1525.27 111.408 1525.2C113.141 1525.07 114.574 1524.87 115.708 1524.6V1509.1C115.041 1508.77 113.941 1508.5 112.408 1508.3C110.941 1508.03 109.141 1507.9 107.008 1507.9C105.608 1507.9 104.108 1508 102.508 1508.2C100.974 1508.4 99.5411 1508.83 98.2078 1509.5C96.9411 1510.1 95.8745 1510.97 95.0078 1512.1C94.1411 1513.17 93.7078 1514.6 93.7078 1516.4C93.7078 1519.73 94.7745 1522.07 96.9078 1523.4C99.0411 1524.67 101.941 1525.3 105.608 1525.3ZM104.808 1478.7C108.541 1478.7 111.674 1479.2 114.208 1480.2C116.808 1481.13 118.874 1482.5 120.408 1484.3C122.008 1486.03 123.141 1488.13 123.808 1490.6C124.474 1493 124.808 1495.67 124.808 1498.6V1531.1C124.008 1531.23 122.874 1531.43 121.408 1531.7C120.008 1531.9 118.408 1532.1 116.608 1532.3C114.808 1532.5 112.841 1532.67 110.708 1532.8C108.641 1533 106.574 1533.1 104.508 1533.1C101.574 1533.1 98.8745 1532.8 96.4078 1532.2C93.9411 1531.6 91.8078 1530.67 90.0078 1529.4C88.2078 1528.07 86.8078 1526.33 85.8078 1524.2C84.8078 1522.07 84.3078 1519.5 84.3078 1516.5C84.3078 1513.63 84.8745 1511.17 86.0078 1509.1C87.2078 1507.03 88.8078 1505.37 90.8078 1504.1C92.8078 1502.83 95.1411 1501.9 97.8078 1501.3C100.474 1500.7 103.274 1500.4 106.208 1500.4C107.141 1500.4 108.108 1500.47 109.108 1500.6C110.108 1500.67 111.041 1500.8 111.908 1501C112.841 1501.13 113.641 1501.27 114.308 1501.4C114.974 1501.53 115.441 1501.63 115.708 1501.7V1499.1C115.708 1497.57 115.541 1496.07 115.208 1494.6C114.874 1493.07 114.274 1491.73 113.408 1490.6C112.541 1489.4 111.341 1488.47 109.808 1487.8C108.341 1487.07 106.408 1486.7 104.008 1486.7C100.941 1486.7 98.2411 1486.93 95.9078 1487.4C93.6411 1487.8 91.9411 1488.23 90.8078 1488.7L89.7078 1481C90.9078 1480.47 92.9078 1479.97 95.7078 1479.5C98.5078 1478.97 101.541 1478.7 104.808 1478.7ZM133.854 1524.4H139.454C141.654 1521.2 143.387 1517.9 144.654 1514.5C145.987 1511.1 146.987 1507.6 147.654 1504C148.321 1500.33 148.754 1496.53 148.954 1492.6C149.154 1488.6 149.287 1484.4 149.354 1480H183.454V1524.4H190.454V1546.5H181.654V1532H142.654V1546.5H133.854V1524.4ZM174.154 1524.4V1487.8H157.854C157.787 1490.93 157.621 1494.1 157.354 1497.3C157.087 1500.43 156.654 1503.57 156.054 1506.7C155.454 1509.77 154.587 1512.8 153.454 1515.8C152.387 1518.73 151.021 1521.6 149.354 1524.4H174.154ZM219.508 1503.7C221.574 1505.17 223.808 1507.03 226.208 1509.3C228.608 1511.5 230.941 1513.9 233.208 1516.5C235.541 1519.1 237.708 1521.77 239.708 1524.5C241.708 1527.17 243.408 1529.67 244.808 1532H233.808C232.341 1529.73 230.608 1527.43 228.608 1525.1C226.674 1522.7 224.641 1520.4 222.508 1518.2C220.374 1516 218.208 1513.97 216.008 1512.1C213.808 1510.23 211.741 1508.67 209.808 1507.4V1532H200.508V1480H209.808V1502.3C211.408 1500.77 213.241 1499 215.308 1497C217.374 1494.93 219.441 1492.87 221.508 1490.8C223.641 1488.67 225.608 1486.67 227.408 1484.8C229.208 1482.87 230.674 1481.27 231.808 1480H242.608C241.141 1481.6 239.408 1483.43 237.408 1485.5C235.474 1487.5 233.441 1489.57 231.308 1491.7C229.241 1493.83 227.174 1495.97 225.108 1498.1C223.041 1500.17 221.174 1502.03 219.508 1503.7ZM297.189 1506C297.189 1510.13 296.589 1513.87 295.389 1517.2C294.189 1520.53 292.489 1523.4 290.289 1525.8C288.156 1528.2 285.589 1530.07 282.589 1531.4C279.589 1532.67 276.322 1533.3 272.789 1533.3C269.256 1533.3 265.989 1532.67 262.989 1531.4C259.989 1530.07 257.389 1528.2 255.189 1525.8C253.056 1523.4 251.389 1520.53 250.189 1517.2C248.989 1513.87 248.389 1510.13 248.389 1506C248.389 1501.93 248.989 1498.23 250.189 1494.9C251.389 1491.5 253.056 1488.6 255.189 1486.2C257.389 1483.8 259.989 1481.97 262.989 1480.7C265.989 1479.37 269.256 1478.7 272.789 1478.7C276.322 1478.7 279.589 1479.37 282.589 1480.7C285.589 1481.97 288.156 1483.8 290.289 1486.2C292.489 1488.6 294.189 1491.5 295.389 1494.9C296.589 1498.23 297.189 1501.93 297.189 1506ZM287.489 1506C287.489 1500.13 286.156 1495.5 283.489 1492.1C280.889 1488.63 277.322 1486.9 272.789 1486.9C268.256 1486.9 264.656 1488.63 261.989 1492.1C259.389 1495.5 258.089 1500.13 258.089 1506C258.089 1511.87 259.389 1516.53 261.989 1520C264.656 1523.4 268.256 1525.1 272.789 1525.1C277.322 1525.1 280.889 1523.4 283.489 1520C286.156 1516.53 287.489 1511.87 287.489 1506ZM332.873 1533.2C328.673 1533.2 324.973 1532.53 321.773 1531.2C318.64 1529.87 315.973 1528 313.773 1525.6C311.64 1523.2 310.04 1520.37 308.973 1517.1C307.907 1513.77 307.373 1510.1 307.373 1506.1C307.373 1502.1 307.94 1498.43 309.073 1495.1C310.273 1491.77 311.94 1488.9 314.073 1486.5C316.207 1484.03 318.807 1482.13 321.873 1480.8C325.007 1479.4 328.473 1478.7 332.273 1478.7C334.607 1478.7 336.94 1478.9 339.273 1479.3C341.607 1479.7 343.84 1480.33 345.973 1481.2L343.873 1489.1C342.473 1488.43 340.84 1487.9 338.973 1487.5C337.173 1487.1 335.24 1486.9 333.173 1486.9C327.973 1486.9 323.973 1488.53 321.173 1491.8C318.44 1495.07 317.073 1499.83 317.073 1506.1C317.073 1508.9 317.373 1511.47 317.973 1513.8C318.64 1516.13 319.64 1518.13 320.973 1519.8C322.373 1521.47 324.14 1522.77 326.273 1523.7C328.407 1524.57 331.007 1525 334.073 1525C336.54 1525 338.773 1524.77 340.773 1524.3C342.773 1523.83 344.34 1523.33 345.473 1522.8L346.773 1530.6C346.24 1530.93 345.473 1531.27 344.473 1531.6C343.473 1531.87 342.34 1532.1 341.073 1532.3C339.807 1532.57 338.44 1532.77 336.973 1532.9C335.573 1533.1 334.207 1533.2 332.873 1533.2ZM394.923 1480V1487.8H378.023V1532H368.723V1487.8H351.823V1480H394.923ZM447.112 1532H437.812V1509H413.812V1532H404.512V1480H413.812V1501.2H437.812V1480H447.112V1532ZM506.805 1480V1532H497.805V1492.4C495.805 1494.93 493.605 1497.9 491.205 1501.3C488.805 1504.7 486.405 1508.23 484.005 1511.9C481.605 1515.5 479.305 1519.07 477.105 1522.6C474.905 1526.13 473.005 1529.27 471.405 1532H463.105V1480H472.105V1517.4C473.839 1514.53 475.805 1511.4 478.005 1508C480.205 1504.53 482.472 1501.13 484.805 1497.8C487.205 1494.4 489.572 1491.17 491.905 1488.1C494.305 1484.97 496.539 1482.27 498.605 1480H506.805ZM564.273 1524.3H571.273V1546.5H562.473V1532H522.773V1480H532.073V1524.3H554.973V1480H564.273V1524.3ZM598.967 1525.3C601.167 1525.3 603.101 1525.27 604.767 1525.2C606.501 1525.07 607.934 1524.87 609.067 1524.6V1509.1C608.401 1508.77 607.301 1508.5 605.767 1508.3C604.301 1508.03 602.501 1507.9 600.367 1507.9C598.967 1507.9 597.467 1508 595.867 1508.2C594.334 1508.4 592.901 1508.83 591.567 1509.5C590.301 1510.1 589.234 1510.97 588.367 1512.1C587.501 1513.17 587.067 1514.6 587.067 1516.4C587.067 1519.73 588.134 1522.07 590.267 1523.4C592.401 1524.67 595.301 1525.3 598.967 1525.3ZM598.167 1478.7C601.901 1478.7 605.034 1479.2 607.567 1480.2C610.167 1481.13 612.234 1482.5 613.767 1484.3C615.367 1486.03 616.501 1488.13 617.167 1490.6C617.834 1493 618.167 1495.67 618.167 1498.6V1531.1C617.367 1531.23 616.234 1531.43 614.767 1531.7C613.367 1531.9 611.767 1532.1 609.967 1532.3C608.167 1532.5 606.201 1532.67 604.067 1532.8C602.001 1533 599.934 1533.1 597.867 1533.1C594.934 1533.1 592.234 1532.8 589.767 1532.2C587.301 1531.6 585.167 1530.67 583.367 1529.4C581.567 1528.07 580.167 1526.33 579.167 1524.2C578.167 1522.07 577.667 1519.5 577.667 1516.5C577.667 1513.63 578.234 1511.17 579.367 1509.1C580.567 1507.03 582.167 1505.37 584.167 1504.1C586.167 1502.83 588.501 1501.9 591.167 1501.3C593.834 1500.7 596.634 1500.4 599.567 1500.4C600.501 1500.4 601.467 1500.47 602.467 1500.6C603.467 1500.67 604.401 1500.8 605.267 1501C606.201 1501.13 607.001 1501.27 607.667 1501.4C608.334 1501.53 608.801 1501.63 609.067 1501.7V1499.1C609.067 1497.57 608.901 1496.07 608.567 1494.6C608.234 1493.07 607.634 1491.73 606.767 1490.6C605.901 1489.4 604.701 1488.47 603.167 1487.8C601.701 1487.07 599.767 1486.7 597.367 1486.7C594.301 1486.7 591.601 1486.93 589.267 1487.4C587.001 1487.8 585.301 1488.23 584.167 1488.7L583.067 1481C584.267 1480.47 586.267 1479.97 589.067 1479.5C591.867 1478.97 594.901 1478.7 598.167 1478.7Z" fill="black"/>
<path d="M181.9 767.5C177.033 767.5 172.6 766.7 168.6 765.1C164.6 763.5 161.167 761.167 158.3 758.1C155.433 755.033 153.2 751.267 151.6 746.8C150.067 742.267 149.3 737.1 149.3 731.3C149.3 725.5 150.167 720.367 151.9 715.9C153.7 711.367 156.1 707.567 159.1 704.5C162.1 701.433 165.6 699.1 169.6 697.5C173.6 695.9 177.867 695.1 182.4 695.1C185.267 695.1 187.833 695.3 190.1 695.7C192.433 696.1 194.433 696.567 196.1 697.1C197.833 697.633 199.233 698.167 200.3 698.7C201.367 699.233 202.1 699.633 202.5 699.9L199.7 707.9C199.1 707.5 198.233 707.067 197.1 706.6C195.967 706.133 194.667 705.667 193.2 705.2C191.8 704.733 190.233 704.367 188.5 704.1C186.833 703.767 185.133 703.6 183.4 703.6C179.733 703.6 176.433 704.233 173.5 705.5C170.567 706.767 168.067 708.6 166 711C163.933 713.4 162.333 716.333 161.2 719.8C160.133 723.2 159.6 727.033 159.6 731.3C159.6 735.433 160.067 739.2 161 742.6C162 746 163.467 748.933 165.4 751.4C167.333 753.8 169.733 755.667 172.6 757C175.533 758.333 178.933 759 182.8 759C187.267 759 190.967 758.533 193.9 757.6C196.833 756.667 199.033 755.833 200.5 755.1L203 763.1C202.533 763.433 201.7 763.867 200.5 764.4C199.3 764.867 197.8 765.333 196 765.8C194.2 766.267 192.1 766.667 189.7 767C187.3 767.333 184.7 767.5 181.9 767.5ZM222.612 759C223.012 759.067 223.578 759.133 224.312 759.2C225.045 759.267 225.878 759.333 226.812 759.4C227.745 759.4 228.712 759.433 229.712 759.5C230.778 759.5 231.778 759.5 232.712 759.5C234.645 759.5 236.478 759.367 238.212 759.1C240.012 758.833 241.545 758.367 242.812 757.7C244.145 757.033 245.178 756.167 245.912 755.1C246.712 753.967 247.112 752.533 247.112 750.8C247.112 749.133 246.745 747.767 246.012 746.7C245.345 745.567 244.412 744.667 243.212 744C242.012 743.333 240.578 742.867 238.912 742.6C237.312 742.333 235.578 742.2 233.712 742.2H222.612V759ZM232.512 735.3C234.312 735.3 235.945 735.2 237.412 735C238.945 734.733 240.245 734.3 241.312 733.7C242.445 733.1 243.312 732.3 243.912 731.3C244.578 730.3 244.912 729.033 244.912 727.5C244.912 725.9 244.512 724.633 243.712 723.7C242.912 722.767 241.845 722.067 240.512 721.6C239.245 721.067 237.778 720.733 236.112 720.6C234.512 720.4 232.878 720.3 231.212 720.3C229.678 720.3 228.112 720.333 226.512 720.4C224.978 720.467 223.678 720.533 222.612 720.6V735.3H232.512ZM232.312 766.9C228.378 766.9 224.745 766.7 221.412 766.3C218.078 765.967 215.445 765.567 213.512 765.1V714.5C215.445 714.033 218.078 713.633 221.412 713.3C224.745 712.9 228.378 712.7 232.312 712.7C235.045 712.7 237.712 712.933 240.312 713.4C242.912 713.867 245.212 714.667 247.212 715.8C249.212 716.867 250.812 718.367 252.012 720.3C253.278 722.167 253.912 724.5 253.912 727.3C253.912 729.833 253.278 732 252.012 733.8C250.745 735.6 249.045 737 246.912 738C249.778 739 252.045 740.5 253.712 742.5C255.445 744.433 256.312 747.167 256.312 750.7C256.312 753.833 255.678 756.433 254.412 758.5C253.212 760.567 251.512 762.233 249.312 763.5C247.178 764.767 244.645 765.633 241.712 766.1C238.778 766.633 235.645 766.9 232.312 766.9ZM289.797 745.8C288.797 745.8 287.83 745.8 286.897 745.8C285.964 745.733 285.064 745.667 284.197 745.6C282.064 748.8 279.997 752.233 277.997 755.9C276.064 759.5 274.33 762.867 272.797 766H263.397C264.197 764.067 265.13 762.1 266.197 760.1C267.264 758.033 268.33 756.033 269.397 754.1C270.53 752.167 271.664 750.333 272.797 748.6C273.93 746.867 274.997 745.3 275.997 743.9C274.13 743.233 272.597 742.433 271.397 741.5C270.197 740.5 269.23 739.4 268.497 738.2C267.764 737 267.23 735.733 266.897 734.4C266.63 733 266.497 731.6 266.497 730.2C266.497 727.267 267.03 724.7 268.097 722.5C269.23 720.3 270.764 718.5 272.697 717.1C274.63 715.633 276.897 714.533 279.497 713.8C282.164 713.067 285.064 712.7 288.197 712.7C292.597 712.7 296.33 712.9 299.397 713.3C302.464 713.7 305.03 714.167 307.097 714.7V766H297.897V745.8H289.797ZM297.897 720.9C297.164 720.767 295.93 720.633 294.197 720.5C292.53 720.367 290.597 720.3 288.397 720.3C284.597 720.3 281.53 721.1 279.197 722.7C276.864 724.233 275.697 726.7 275.697 730.1C275.697 733.433 276.897 735.733 279.297 737C281.697 738.267 284.797 738.9 288.597 738.9H297.897V720.9ZM336.282 712.7C339.282 712.7 342.082 713 344.682 713.6C347.282 714.2 349.515 715.1 351.382 716.3C353.249 717.5 354.715 719 355.782 720.8C356.849 722.6 357.382 724.7 357.382 727.1C357.382 728.633 357.115 730.033 356.582 731.3C356.049 732.567 355.382 733.7 354.582 734.7C353.782 735.7 352.882 736.567 351.882 737.3C350.949 737.967 350.049 738.433 349.182 738.7C352.249 739.633 354.649 741.3 356.382 743.7C358.182 746.033 359.082 749 359.082 752.6C359.082 757.533 357.082 761.2 353.082 763.6C349.082 766 343.649 767.2 336.782 767.2C332.582 767.2 328.949 766.867 325.882 766.2C322.882 765.533 320.749 764.9 319.482 764.3L321.082 756.4C322.149 756.8 324.049 757.367 326.782 758.1C329.582 758.767 332.915 759.1 336.782 759.1C340.982 759.1 344.182 758.467 346.382 757.2C348.582 755.867 349.682 753.9 349.682 751.3C349.682 749.433 349.249 747.933 348.382 746.8C347.582 745.6 346.549 744.7 345.282 744.1C344.015 743.5 342.649 743.1 341.182 742.9C339.715 742.7 338.349 742.6 337.082 742.6H328.382V735.2H336.782C337.982 735.2 339.215 735.133 340.482 735C341.815 734.8 343.015 734.433 344.082 733.9C345.215 733.367 346.149 732.633 346.882 731.7C347.615 730.7 347.982 729.4 347.982 727.8C347.982 726.533 347.649 725.467 346.982 724.6C346.382 723.667 345.549 722.9 344.482 722.3C343.415 721.7 342.149 721.267 340.682 721C339.282 720.667 337.815 720.5 336.282 720.5C335.082 720.5 333.782 720.6 332.382 720.8C330.982 721 329.615 721.267 328.282 721.6C326.949 721.867 325.749 722.167 324.682 722.5C323.615 722.833 322.849 723.133 322.382 723.4L320.682 715.4C321.215 715.2 322.049 714.933 323.182 714.6C324.315 714.267 325.582 713.967 326.982 713.7C328.449 713.433 329.982 713.2 331.582 713C333.182 712.8 334.749 712.7 336.282 712.7ZM391.008 737.7C393.074 739.167 395.308 741.033 397.708 743.3C400.108 745.5 402.441 747.9 404.708 750.5C407.041 753.1 409.208 755.767 411.208 758.5C413.208 761.167 414.908 763.667 416.308 766H405.308C403.841 763.733 402.108 761.433 400.108 759.1C398.174 756.7 396.141 754.4 394.008 752.2C391.874 750 389.708 747.967 387.508 746.1C385.308 744.233 383.241 742.667 381.308 741.4V766H372.008V714H381.308V736.3C382.908 734.767 384.741 733 386.808 731C388.874 728.933 390.941 726.867 393.008 724.8C395.141 722.667 397.108 720.667 398.908 718.8C400.708 716.867 402.174 715.267 403.308 714H414.108C412.641 715.6 410.908 717.433 408.908 719.5C406.974 721.5 404.941 723.567 402.808 725.7C400.741 727.833 398.674 729.967 396.608 732.1C394.541 734.167 392.674 736.033 391.008 737.7ZM469.419 714V766H460.419V726.4C458.419 728.933 456.219 731.9 453.819 735.3C451.419 738.7 449.019 742.233 446.619 745.9C444.219 749.5 441.919 753.067 439.719 756.6C437.519 760.133 435.619 763.267 434.019 766H425.719V714H434.719V751.4C436.452 748.533 438.419 745.4 440.619 742C442.819 738.533 445.085 735.133 447.419 731.8C449.819 728.4 452.185 725.167 454.519 722.1C456.919 718.967 459.152 716.267 461.219 714H469.419Z" fill="black"/>
<path d="M273.5 248.5H562.5L1063.5 413.5M149.5 806H485L650.5 883.5M5 1575H650.5L851.5 1337.5" stroke="black" stroke-width="10" stroke-linecap="round"/>
<path d="M352.4 149.7C350.333 151.967 348 154.5 345.4 157.3C342.8 160.033 340.067 162.867 337.2 165.8C334.4 168.667 331.6 171.5 328.8 174.3C326 177.1 323.367 179.7 320.9 182.1C323.767 184.1 326.8 186.567 330 189.5C333.2 192.433 336.333 195.567 339.4 198.9C342.467 202.233 345.333 205.633 348 209.1C350.733 212.567 353 215.867 354.8 219H343.4C341.4 215.867 339.1 212.733 336.5 209.6C333.9 206.4 331.133 203.367 328.2 200.5C325.333 197.567 322.4 194.867 319.4 192.4C316.467 189.933 313.6 187.833 310.8 186.1V219H301.1V149.7H310.8V180.3C313.133 178.1 315.7 175.633 318.5 172.9C321.3 170.1 324.067 167.3 326.8 164.5C329.533 161.7 332.1 159.033 334.5 156.5C336.967 153.9 339.033 151.633 340.7 149.7H352.4ZM407.435 193C407.435 197.133 406.835 200.867 405.635 204.2C404.435 207.533 402.735 210.4 400.535 212.8C398.402 215.2 395.835 217.067 392.835 218.4C389.835 219.667 386.568 220.3 383.035 220.3C379.502 220.3 376.235 219.667 373.235 218.4C370.235 217.067 367.635 215.2 365.435 212.8C363.302 210.4 361.635 207.533 360.435 204.2C359.235 200.867 358.635 197.133 358.635 193C358.635 188.933 359.235 185.233 360.435 181.9C361.635 178.5 363.302 175.6 365.435 173.2C367.635 170.8 370.235 168.967 373.235 167.7C376.235 166.367 379.502 165.7 383.035 165.7C386.568 165.7 389.835 166.367 392.835 167.7C395.835 168.967 398.402 170.8 400.535 173.2C402.735 175.6 404.435 178.5 405.635 181.9C406.835 185.233 407.435 188.933 407.435 193ZM397.735 193C397.735 187.133 396.402 182.5 393.735 179.1C391.135 175.633 387.568 173.9 383.035 173.9C378.502 173.9 374.902 175.633 372.235 179.1C369.635 182.5 368.335 187.133 368.335 193C368.335 198.867 369.635 203.533 372.235 207C374.902 210.4 378.502 212.1 383.035 212.1C387.568 212.1 391.135 210.4 393.735 207C396.402 203.533 397.735 198.867 397.735 193ZM443.12 220.2C438.92 220.2 435.22 219.533 432.02 218.2C428.886 216.867 426.22 215 424.02 212.6C421.886 210.2 420.286 207.367 419.22 204.1C418.153 200.767 417.62 197.1 417.62 193.1C417.62 189.1 418.186 185.433 419.32 182.1C420.52 178.767 422.186 175.9 424.32 173.5C426.453 171.033 429.053 169.133 432.12 167.8C435.253 166.4 438.72 165.7 442.52 165.7C444.853 165.7 447.186 165.9 449.52 166.3C451.853 166.7 454.086 167.333 456.22 168.2L454.12 176.1C452.72 175.433 451.086 174.9 449.22 174.5C447.42 174.1 445.486 173.9 443.42 173.9C438.22 173.9 434.22 175.533 431.42 178.8C428.686 182.067 427.32 186.833 427.32 193.1C427.32 195.9 427.62 198.467 428.22 200.8C428.886 203.133 429.886 205.133 431.22 206.8C432.62 208.467 434.386 209.767 436.52 210.7C438.653 211.567 441.253 212 444.32 212C446.786 212 449.02 211.767 451.02 211.3C453.02 210.833 454.586 210.333 455.72 209.8L457.02 217.6C456.486 217.933 455.72 218.267 454.72 218.6C453.72 218.867 452.586 219.1 451.32 219.3C450.053 219.567 448.686 219.767 447.22 219.9C445.82 220.1 444.453 220.2 443.12 220.2ZM505.169 167V174.8H488.269V219H478.969V174.8H462.069V167H505.169ZM534.458 212.5C538.391 212.5 541.491 211.733 543.758 210.2C546.024 208.667 547.158 206.2 547.158 202.8C547.158 201.133 546.824 199.7 546.158 198.5C545.491 197.3 544.558 196.333 543.358 195.6C542.224 194.8 540.891 194.233 539.358 193.9C537.824 193.5 536.191 193.3 534.458 193.3C532.658 193.3 530.791 193.367 528.858 193.5C526.991 193.567 525.391 193.767 524.058 194.1V212C524.458 212.067 525.058 212.133 525.858 212.2C526.658 212.267 527.524 212.333 528.458 212.4C529.458 212.4 530.458 212.433 531.458 212.5C532.524 212.5 533.524 212.5 534.458 212.5ZM514.758 217.9V167H524.058V186.9C524.591 186.767 525.291 186.633 526.158 186.5C527.091 186.367 528.058 186.233 529.058 186.1C530.124 185.967 531.224 185.867 532.358 185.8C533.491 185.733 534.558 185.7 535.558 185.7C538.424 185.7 541.124 186.033 543.658 186.7C546.191 187.3 548.391 188.3 550.258 189.7C552.191 191.033 553.724 192.8 554.858 195C555.991 197.133 556.558 199.7 556.558 202.7C556.558 205.833 556.024 208.5 554.958 210.7C553.891 212.9 552.358 214.7 550.358 216.1C548.358 217.5 545.958 218.5 543.158 219.1C540.424 219.767 537.358 220.1 533.958 220.1C530.624 220.1 527.358 219.9 524.158 219.5C520.958 219.167 517.824 218.633 514.758 217.9Z" fill="black"/>
</svg>
