<svg width="529" height="442" viewBox="0 0 529 442" fill="none" xmlns="http://www.w3.org/2000/svg">
<path d="M520.131 285.677L291.419 6.56983C291.369 6.6016 291.318 6.63368 291.267 6.66606C288.752 8.2555 285.069 10.6112 280.415 13.6649C271.105 19.7728 257.915 28.67 242.419 39.8099C211.408 62.1025 171.247 93.3172 134.487 129.084C97.7945 164.784 65.2449 206.761 41.8331 239.886C30.1378 256.433 20.7456 270.74 14.2813 280.902C11.2635 285.647 8.88482 289.486 7.20867 292.228L330.854 435.8C332.206 433.987 334.101 431.48 336.481 428.417C341.612 421.812 348.999 412.614 358.039 402.219C376.081 381.474 400.87 355.774 427.568 336.45C454.123 317.229 478.908 303.95 497.072 295.47C506.157 291.228 513.593 288.183 518.778 286.192C519.248 286.012 519.699 285.84 520.131 285.677Z" fill="url(#paint0_radial_4264_275411)" stroke="#5D69A7" stroke-width="10"/>
<path d="M295.566 180.418H233.867V294.5H216.904V166.531H295.566V180.418Z" fill="#5D69A7"/>
<defs>
<radialGradient id="paint0_radial_4264_275411" cx="0" cy="0" r="1" gradientUnits="userSpaceOnUse" gradientTransform="translate(264.25 260.464) rotate(180) scale(264.25 181.536)">
<stop stop-color="#8DFFF1"/>
<stop offset="1" stop-color="#6CDCFF"/>
</radialGradient>
</defs>
</svg>
