<svg width="463" height="469" viewBox="0 0 463 469" fill="none" xmlns="http://www.w3.org/2000/svg">
<path d="M239.263 168.795C238.298 168.555 237.278 168.672 236.392 169.125C234.217 170.36 234.652 173.576 232.999 174.028C231.816 174.358 231.242 172.812 229.362 172.846C228.651 172.89 227.96 173.095 227.339 173.444C226.718 173.793 226.184 174.278 225.778 174.862C224.211 177.157 225.917 179.643 224.525 180.791C223.411 181.712 222.106 180.252 220.488 181.086C219.959 181.367 219.537 181.812 219.287 182.356C218.521 183.885 218.608 186.024 216.903 186.858C215.546 187.501 214.397 186.666 213.788 187.467C213.041 188.44 214.432 189.901 213.632 191.361C213.441 191.737 213.15 192.052 212.79 192.273C212.431 192.494 212.018 192.612 211.596 192.613C210.256 192.439 209.751 190.161 209.264 190.283C208.602 190.44 209.612 194.629 208.168 195.412C207.385 195.846 206.428 194.908 205.836 195.412C205.053 196.09 206.219 198.193 205.523 198.68C205.053 199.01 204.391 198.124 203.348 198.211C201.939 198.333 200.842 200.14 200.39 201.479C199.467 204.209 200.964 205.965 199.92 206.921C198.858 207.894 196.822 206.556 196.022 207.547C195.343 208.416 196.631 209.701 195.865 211.128C195.291 212.241 194.212 211.997 193.847 212.988C193.342 214.361 194.995 215.665 194.473 216.413C193.951 217.178 192.125 216.048 191.202 216.882C189.985 217.978 191.55 221.42 190.889 221.715C190.454 221.907 189.549 220.551 189.166 220.777C188.87 220.951 189.427 221.872 189.009 222.481C188.487 223.298 186.974 222.637 186.521 223.263C185.774 224.341 189.131 227.748 188.557 228.409C188.261 228.722 187.287 227.992 186.834 228.409C186.312 228.861 186.852 230.443 187.461 231.521C188.505 233.364 189.862 233.937 189.636 234.633C189.427 235.294 188.07 234.998 187.774 235.711C187.443 236.545 189.079 237.327 189.636 239.605C189.774 239.923 189.845 240.266 189.845 240.613C189.845 240.96 189.774 241.303 189.636 241.622C189.044 242.665 187.565 242.387 187.304 243.186C187.217 243.43 187.252 243.812 188.557 245.359C190.21 247.341 191.219 247.95 191.045 248.471C190.819 249.115 188.992 248.836 188.87 249.41C188.748 249.914 190.175 250.384 190.106 250.957C190.001 251.861 186.348 251.809 186.208 252.678C186.121 253.34 188.226 253.6 188.87 255.321C189.025 255.712 189.086 256.134 189.05 256.554C189.014 256.973 188.881 257.378 188.661 257.737V257.755C187.983 258.676 186.834 258.276 186.364 259.059C186.156 259.424 186.121 259.997 187.148 262.014C187.765 263.198 188.456 264.342 189.219 265.439C189.225 265.446 189.23 265.454 189.233 265.463C189.236 265.472 189.237 265.482 189.236 265.491C189.497 265.874 189.636 266.099 189.584 266.152C189.375 266.361 187.043 264.188 187.043 264.188C182.084 259.529 181.771 257.738 178.569 255.721C177.002 254.575 175.146 253.889 173.21 253.739C170.894 253.757 168.633 254.446 166.702 255.721C164.3 257.199 164.022 258.399 162.195 258.816C160.635 259.097 159.027 258.8 157.671 257.981C155.339 247.064 150.727 241.24 146.934 237.937C146.177 237.275 145.381 236.66 144.55 236.093C142.504 234.77 140.363 233.596 138.147 232.582C135.075 231.281 132.442 229.127 130.56 226.375C129.916 225.437 124.226 216.918 127.132 209.668C128.75 205.652 131.847 204.975 134.423 198.733C134.475 198.611 134.527 198.472 134.579 198.35C135.598 196.305 136.117 194.047 136.093 191.762C135.832 186.772 132.352 184.373 133.57 182.304C134.597 180.531 137.624 181.47 139.486 178.758C140.061 177.923 139.695 177.923 140.496 176.567C142.01 173.977 143.367 173.785 143.715 171.995C143.958 170.656 143.349 169.926 143.871 169.456C144.602 168.83 145.873 170.169 147.265 169.63C148.518 169.143 148.17 167.787 149.805 166.588C150.708 165.977 151.762 165.628 152.851 165.579C154.055 165.297 155.322 165.477 156.4 166.083C157.74 167.074 157.288 168.622 158.262 168.952C159.672 169.439 161.499 166.396 162.647 166.935C163.256 167.213 162.891 168.117 163.5 168.796C165.205 170.673 171.626 167.509 172.462 167.092C175.716 165.492 175.141 165.023 177.699 164.049C180.517 162.989 182.154 163.197 184.12 161.529C185.495 160.364 185.112 159.929 186.156 159.321C188.662 157.878 190.646 160.503 194.108 159.668C196.579 159.06 196.457 157.495 199.694 156.626C201.09 156.381 202.505 156.265 203.922 156.278C209.403 155.861 209.525 155.113 212.03 155.444C212.308 155.478 212.57 155.531 212.813 155.566C214.971 156 215.598 156.8 217.111 156.278C218.939 155.67 219.617 153.966 220.661 154.262C221.566 154.505 221.253 155.878 222.348 156.626C224.036 157.773 226.106 155.392 228.09 156.452C229.57 157.235 229.413 159.06 231.136 159.494C231.709 159.542 232.275 159.653 232.824 159.825C233.224 159.999 234.268 160.451 234.529 161.355C234.79 162.293 233.885 162.832 234.181 163.719C234.355 164.241 234.825 164.501 235.538 164.901C237.087 165.771 237.887 165.44 238.583 166.083C238.985 166.448 239.402 167.161 239.263 168.795Z" fill="black"/>
<path d="M187.443 258.45C187.877 258.271 188.287 258.037 188.661 257.755C188.352 258.126 187.92 258.372 187.443 258.45Z" fill="black"/>
<path d="M199.92 206.921C198.858 207.894 196.822 206.556 196.022 207.547C195.343 208.416 196.631 209.701 195.865 211.128C195.291 212.241 194.212 211.997 193.847 212.988C193.342 214.361 194.995 215.665 194.473 216.413C193.951 217.178 192.125 216.048 191.202 216.882C189.985 217.978 191.55 221.42 190.889 221.715C190.454 221.907 189.549 220.551 189.166 220.777C188.87 220.951 189.427 221.872 189.009 222.481C188.901 222.643 188.742 222.765 188.557 222.828C188.513 222.848 188.466 222.859 188.418 222.863C188.411 222.869 188.403 222.874 188.394 222.877C188.385 222.88 188.375 222.881 188.366 222.88C188.187 222.913 188.007 222.936 187.826 222.95H187.634C187.53 222.947 187.425 222.953 187.321 222.967C187.217 222.979 187.112 222.99 187.008 223.002C186.913 223.009 186.82 223.036 186.736 223.081C186.653 223.125 186.579 223.188 186.521 223.263C186.488 223.31 186.464 223.363 186.451 223.419C186.43 223.499 186.418 223.58 186.416 223.663C186.437 224.006 186.539 224.339 186.712 224.636C186.764 224.741 186.817 224.845 186.869 224.966C187.182 225.575 187.634 226.218 187.982 226.792C188.069 226.931 188.157 227.069 188.226 227.192C188.296 227.331 188.383 227.469 188.435 227.592C188.493 227.702 188.54 227.819 188.574 227.939C188.608 228.022 188.626 228.111 188.626 228.2C188.63 228.238 188.625 228.276 188.613 228.312C188.601 228.348 188.582 228.381 188.557 228.409C188.261 228.722 187.287 227.992 186.834 228.409C186.312 228.861 186.852 230.443 187.461 231.521C188.505 233.364 189.862 233.937 189.636 234.633C189.427 235.294 188.07 234.998 187.774 235.711C187.443 236.545 189.079 237.327 189.636 239.605C189.774 239.923 189.845 240.266 189.845 240.613C189.845 240.96 189.774 241.303 189.636 241.622C189.044 242.665 187.565 242.387 187.304 243.186C187.217 243.43 187.252 243.812 188.557 245.359C190.21 247.341 191.219 247.95 191.045 248.471C190.819 249.115 188.992 248.836 188.87 249.41C188.748 249.914 190.175 250.384 190.106 250.957C190.036 251.548 188.452 251.722 187.339 252.017C176.219 235.988 175.506 213.718 171.8 214.135C168.267 214.553 168.615 234.928 165.396 235.171C163.082 235.345 163.482 224.514 155.739 213.631C149.474 204.852 144.811 205.721 136.684 194.247C136.458 193.934 136.249 193.621 136.058 193.325C136.114 192.806 136.125 192.282 136.093 191.761C135.832 186.771 132.352 184.372 133.57 182.303C134.596 180.53 137.624 181.469 139.486 178.757C140.06 177.922 139.695 177.922 140.495 176.566C142.009 173.976 143.366 173.785 143.714 171.994C143.958 170.655 143.349 169.925 143.871 169.455C144.602 168.829 145.872 170.168 147.264 169.629C148.517 169.142 148.169 167.786 149.805 166.587C150.707 165.976 151.761 165.627 152.85 165.578C154.055 165.296 155.322 165.476 156.4 166.083C157.74 167.073 157.287 168.621 158.262 168.951C159.671 169.438 161.498 166.396 162.647 166.934C163.256 167.212 162.89 168.117 163.499 168.795C165.205 170.672 171.626 167.508 172.461 167.091C175.715 165.491 175.141 165.022 177.699 164.049C179.334 163.44 180.552 163.249 181.683 162.866C185.216 165.526 187.478 168.586 187.374 171.559C187.217 175.801 182.362 176.079 179.613 183.659C178.022 187.617 177.801 191.992 178.986 196.089C181.475 202.731 189.914 207.06 199.92 206.921Z" fill="black"/>
<path d="M189.584 266.152C189.497 266.239 188.992 265.874 188.452 265.439C187.947 265.004 187.478 264.605 187.043 264.188C182.084 259.529 181.771 257.738 178.569 255.721C177.002 254.575 175.146 253.889 173.21 253.739C170.894 253.757 168.633 254.446 166.702 255.721C164.3 257.199 164.022 258.399 162.195 258.816C160.635 259.097 159.027 258.8 157.671 257.981C155.339 247.064 150.727 241.24 146.934 237.937C146.177 237.275 145.381 236.66 144.55 236.093C142.504 234.77 140.363 233.596 138.147 232.582C135.075 231.281 132.442 229.127 130.56 226.375C130.455 226.219 130.333 226.044 130.229 225.87C126.94 220.359 127.132 209.668 127.132 209.668C128.75 205.652 131.847 204.975 134.423 198.733C134.475 198.611 134.527 198.472 134.579 198.35C135.311 196.755 135.809 195.062 136.058 193.325C136.249 193.621 136.458 193.934 136.684 194.247C144.811 205.721 149.474 204.852 155.739 213.631C163.482 224.514 163.082 235.345 165.396 235.171C168.615 234.928 168.267 214.553 171.8 214.135C175.506 213.718 176.219 235.988 187.339 252.017C186.73 252.191 186.26 252.383 186.207 252.679C186.12 253.34 188.225 253.6 188.869 255.321C189.024 255.713 189.085 256.135 189.049 256.554C189.013 256.973 188.88 257.379 188.66 257.738V257.755C188.286 258.038 187.876 258.272 187.442 258.451C187.415 258.467 187.386 258.478 187.355 258.485C187.058 258.524 186.779 258.651 186.555 258.85C186.474 258.902 186.407 258.974 186.363 259.059C186.335 259.115 186.312 259.173 186.293 259.233C186.171 259.581 186.241 260.137 186.885 261.476C186.961 261.66 187.048 261.84 187.146 262.015C187.763 263.199 188.455 264.343 189.217 265.439C189.223 265.446 189.228 265.454 189.231 265.463C189.234 265.473 189.235 265.482 189.234 265.492C189.357 265.717 189.48 265.944 189.584 266.152Z" fill="black"/>
</svg>
