<svg width="463" height="469" viewBox="0 0 463 469" fill="none" xmlns="http://www.w3.org/2000/svg">
<g clip-path="url(#clip0_2651_491291)">
<path d="M255.602 306.625C253.567 311.475 251.618 315.561 249.773 319.142C249.76 319.173 249.743 319.202 249.721 319.229C243.231 331.711 237.645 338.161 232.235 349.305C225.007 364.983 219.629 381.447 216.208 398.366C215.572 403.415 213.649 408.215 210.623 412.309C210.118 412.97 208.412 414.603 205.037 417.889C202.809 420.37 200.187 422.467 197.276 424.096C195.501 424.913 195.014 424.739 185.809 425.956C184.225 426.165 181.893 426.477 177.265 427.138C177.265 427.138 171.975 427.868 167.364 428.564C153.808 430.58 121.617 441.707 111.193 447.757C110.671 448.052 109.14 448.973 106.791 450.225C104.459 451.477 101.344 453.094 97.6903 454.78C82.0662 461.722 65.3944 466.017 48.3585 467.489C44.1648 468.01 33.0804 469.193 27.4598 463.977C25.6895 461.893 23.7516 459.956 21.6654 458.188C18.9856 456.084 16.7234 454.989 16.1666 452.555C15.9666 451.481 16.0752 450.372 16.4798 449.356C18.5855 443.271 21.6827 422.601 18.7768 409.562C17.141 402.277 16.3233 398.627 15.5576 397.53C14.9918 396.858 14.5664 396.08 14.3064 395.241C14.0465 394.402 13.9572 393.519 14.0438 392.645C14.0623 392.55 14.0914 392.457 14.1307 392.368C14.1974 392.108 14.2969 391.857 14.4266 391.621C14.7152 391.087 15.0916 390.605 15.5401 390.196C15.7098 389.674 15.9875 389.193 16.3554 388.785C16.7232 388.377 17.1728 388.051 17.675 387.828C18.1772 387.605 18.7208 387.49 19.2704 387.49C19.82 387.491 20.3633 387.607 20.865 387.831C20.8823 387.849 20.8998 387.849 20.9346 387.849C21.0911 387.901 21.2476 387.936 21.4043 387.988H21.4391C22.3984 388.307 23.4037 388.465 24.4147 388.457C26.5147 388.19 28.4979 387.341 30.1396 386.006C30.1879 385.97 30.2405 385.941 30.2961 385.919H30.3137C30.4704 385.832 30.5912 385.763 30.7486 385.693C30.9574 385.589 31.1489 385.501 31.3577 385.416C32.2157 385.068 33.1173 384.84 34.0374 384.738H34.0549C37.3609 384.373 40.6672 385.607 44.7044 386.407H44.7217C44.9653 386.476 45.2262 386.511 45.4873 386.563C45.7134 386.598 45.9398 386.633 46.1834 386.685C46.2528 386.685 46.3051 386.702 46.3755 386.702C46.8453 386.772 47.3327 386.841 47.8198 386.894C47.8721 386.894 47.9069 386.912 47.9592 386.912C49.0156 387.038 50.0801 387.085 51.1435 387.051C52.9059 387.031 54.6613 386.827 56.3811 386.442C58.4517 385.82 60.5543 385.309 62.6798 384.912C63.1845 384.825 63.7414 384.773 64.3678 384.72C64.6115 384.703 64.8549 384.685 65.0812 384.685C65.464 384.651 65.8285 384.651 66.1601 384.651C66.5602 384.651 66.943 384.668 67.2917 384.685C69.9542 384.825 71.6421 385.468 74.5828 385.659C80.4295 386.076 81.2125 384.094 89.0081 382.669C89.67 382.547 90.3829 382.425 91.1486 382.321C91.2355 382.304 91.3224 382.304 91.4095 382.286C91.8968 382.217 92.3317 382.147 92.7668 382.094C92.8537 382.077 92.959 382.077 93.0444 382.06C93.601 382.008 94.1058 381.955 94.5582 381.938C98.8911 381.642 99.5872 382.39 104.651 381.312C109.332 380.286 109.906 379.365 116.362 377.435C116.501 377.4 116.639 377.348 116.779 377.314C117.232 377.174 117.719 377.018 118.241 376.879C118.258 376.879 118.276 376.862 118.293 376.862C118.45 376.809 118.606 376.775 118.746 376.74C119.302 376.583 119.807 376.444 120.277 376.305C122.988 375.766 125.662 375.052 128.281 374.167C130.359 373.399 132.387 372.505 134.354 371.49C135.033 371.142 135.659 370.794 136.251 370.446C137.096 369.962 137.915 369.434 138.704 368.864C147.37 362.345 147.057 347.516 147.022 340.457C147.026 337.361 146.705 334.273 146.065 331.243C145.038 326.201 143.229 320.047 140.775 306.504C139.643 300.193 138.844 295.013 138.357 291.623C147.353 288.771 156.343 285.92 165.328 283.068C166.859 291.643 170.019 299.846 174.637 307.234C177.183 311.547 180.1 315.631 183.355 319.438C183.564 319.681 183.79 319.907 184.017 320.151C187.72 324.497 192.819 327.422 198.442 328.426C206.342 329.573 213.303 324.792 227.189 315.266C236.133 309.129 239.509 304.869 240.709 301.948C241.173 300.881 241.387 299.721 241.336 298.559C241.162 294.838 238.604 293.117 239.665 290.909C240.762 288.666 244.868 287.415 248.957 287.641C250.491 287.617 252.012 287.915 253.423 288.513C254.835 289.112 256.105 289.999 257.153 291.118C260.092 294.906 257.934 301.078 255.602 306.625Z" fill="#FFEECC" stroke="#282724" stroke-width="0.25" stroke-miterlimit="10"/>
<path opacity="0.1" d="M255.603 306.625C246.468 328.374 239.212 334.928 232.234 349.306C225.007 364.983 219.628 381.448 216.208 398.366C215.571 403.415 213.648 408.216 210.622 412.309C210.117 412.971 208.412 414.604 205.036 417.89C202.808 420.371 200.186 422.468 197.275 424.096C195.5 424.914 195.013 424.74 185.808 425.957C184.225 426.165 181.893 426.478 177.264 427.139C177.264 427.139 171.974 427.869 167.363 428.564C153.808 430.581 121.616 441.707 111.193 447.757C110.671 448.053 109.139 448.973 106.79 450.226C104.459 451.478 101.344 453.095 97.6897 454.781C82.0657 461.723 65.3938 466.018 48.3579 467.489C44.1643 468.011 33.0798 469.193 27.4593 463.978C25.689 461.893 23.751 459.957 21.6649 458.188C18.9851 456.085 16.7229 454.99 16.166 452.556C17.7321 453.095 19.7855 447.983 22.2913 448.296C25.2494 448.661 24.9885 456.172 27.5812 459.892C33.7759 468.793 60.1905 461.944 93.8614 450C108.697 444.743 119.417 440.457 127.501 437.022C135.895 433.455 145.041 432.417 155.536 425.771C159.676 423.081 163.583 420.048 167.215 416.705C185.254 399.859 182.481 383.664 197.015 364.248C210.168 346.676 224.004 344.491 240.326 324.758C240.326 324.758 245.937 317.894 251.993 301.95C252.665 300.182 255.03 293.798 253.168 292.492C252.708 292.255 252.197 292.138 251.68 292.151C251.163 292.165 250.658 292.309 250.212 292.57C249.174 293.195 249.158 294.262 248.543 294.294C247.65 294.34 247.535 292.097 246.04 291.542C244.528 290.982 243.003 292.668 242.284 292.042C241.834 291.652 242.02 290.636 242.284 290.041C243.458 287.398 248.612 287.622 248.957 287.641C250.49 287.622 252.01 287.921 253.42 288.52C254.831 289.118 256.102 290.003 257.153 291.118C260.093 294.907 257.935 301.079 255.603 306.625Z" fill="#282724"/>
<path opacity="0.1" d="M243.814 295.637C244.016 295.62 244.098 296.627 244.761 297.881C245.648 299.557 246.636 299.902 247.228 300.799C248.546 302.798 246.945 306.083 246.363 307.277C239.382 321.594 221.787 330.921 221.787 330.921C209.793 337.464 196.825 340.87 196.301 339.651C196.02 338.997 199.418 337.248 207.406 332.376C238.738 313.263 243.718 305.233 243.45 299.821C243.43 299.415 243.426 295.669 243.814 295.637Z" fill="#282724"/>
<path opacity="0.3" d="M255.602 306.625C253.917 310.633 252.509 313.938 251.456 315.786C250.25 317.899 249.522 318.839 243.937 326.951C242.464 329.092 241.095 331.065 240.777 331.555C232.894 343.707 229.797 352.869 229.275 352.643C228.926 352.492 231.197 344.207 235.835 334.006C238.966 327.121 244.675 316.066 248.741 308.937C250.414 306.104 251.803 303.112 252.888 300.005C253.719 297.72 255.721 292.108 254.142 291.055C253.306 290.497 251.206 291.043 250.007 291.616C249.561 291.909 249.056 292.1 248.527 292.177C247.652 292.234 247.385 291.782 246.038 291.541C245.445 291.433 244.84 291.406 244.239 291.463C243.543 291.452 242.861 291.654 242.283 292.042C241.766 292.512 241.8 293.212 241.968 295.606C242.188 298.719 242.287 299.732 241.699 300.783C241.446 301.231 241.109 301.627 240.708 301.948C241.171 300.88 241.385 299.721 241.334 298.558C241.16 294.838 238.602 293.117 239.664 290.909C240.76 288.666 244.866 287.414 248.956 287.64C250.489 287.617 252.01 287.914 253.422 288.513C254.833 289.112 256.104 289.999 257.151 291.118C260.091 294.906 257.934 301.079 255.602 306.625Z" fill="#282724"/>
<path opacity="0.17" d="M158.192 310.657C154.922 309.298 152.554 306.433 150.432 307.384C147.029 308.907 148.134 317.324 148.564 325.994C148.991 334.597 149.794 350.756 146.084 362.943C140.002 382.924 119.933 393.764 118.049 392.194C117.048 391.36 120.858 386.775 118.851 382.126C117.821 380.042 116.081 378.394 113.943 377.478C121.064 376.781 127.988 374.749 134.354 371.487C135.871 370.727 137.325 369.849 138.704 368.862C147.37 362.342 147.057 347.513 147.022 340.454C146.969 330.91 144.707 328.18 140.775 306.501C139.643 300.19 138.843 295.01 138.356 291.62C147.352 288.768 156.343 285.917 165.328 283.065C166.858 291.64 170.018 299.843 174.637 307.231C177.182 311.544 180.099 315.628 183.355 319.435C178.43 318.62 172.844 316.742 158.192 310.657Z" fill="#282724"/>
<path opacity="0.1" d="M22.8479 425.851C21.9255 425.851 23.9093 412.743 17.349 397.583C16.4095 395.41 15.3828 393.393 14.4258 391.62C14.7144 391.086 15.0908 390.604 15.5393 390.194C15.9302 389.187 16.6715 388.353 17.6274 387.848C19.82 390.247 22.4302 394.35 23.4741 406.346C24.3269 416.185 23.6481 425.834 22.8479 425.851Z" fill="#282724"/>
<path opacity="0.05" d="M133.281 406.245C135.178 409.542 70.0119 464.096 44.0747 447.066C37.5314 442.77 32.6982 433.402 35.2222 428.697C38.4956 422.594 52.809 426.824 69.9519 426.656C108.262 426.279 132.113 404.216 133.281 406.245Z" fill="#282724"/>
<path opacity="0.1" d="M26.673 397.973C26.6501 397.985 26.6243 397.989 26.601 398C26.6198 397.91 26.6369 397.839 26.6574 397.739L26.6399 397.756C25.4042 398.139 22.7071 395.166 20.5148 390.576C20.4635 391.067 20.4056 391.544 20.351 392.028L20.3403 392.013L20.3503 392.034C20.3123 392.371 20.279 392.718 20.2363 393.045C20.9059 394.364 21.6875 395.623 22.5726 396.808C24.2918 400.653 25.6318 404.656 26.5737 408.761C28.5399 417.61 27.5306 423.416 27.9829 423.434C28.5918 423.452 29.8618 412.204 27.5131 401.129C27.2888 400.063 27.0084 399.01 26.673 397.973Z" fill="#282724"/>
<path opacity="0.1" d="M37.0809 397.652C36.6111 397.634 35.1492 397.443 31.9125 390.367C31.4428 389.342 31.0251 388.351 30.6423 387.412C30.0589 388.447 29.536 389.515 29.0762 390.611C29.3721 390.02 29.6505 389.498 29.929 389.011C30.3118 389.95 30.7294 390.923 31.1992 391.949C31.9478 393.663 32.8233 395.319 33.8186 396.904C35.9877 407.968 35.0969 415.993 35.6548 416.01C36.1941 416.01 36.8379 408.082 36.8902 401.041C36.8966 400.366 36.9006 399.746 36.903 399.151C38.5044 398.742 40.0227 396.501 41.8495 393.74C42.8802 392.288 43.7441 390.725 44.4247 389.08C43.8705 390.145 43.2486 391.173 42.5629 392.158C40.5261 395.218 38.8904 397.686 37.0809 397.652Z" fill="#282724"/>
<path opacity="0.1" d="M54.4657 395.966C52.221 395.827 50.5678 393.81 49.1932 392.159C47.9452 390.569 46.9583 388.791 46.2697 386.891C46.2349 386.821 46.2176 386.752 46.1828 386.682C45.9392 386.63 45.7131 386.595 45.4868 386.561C45.3476 386.908 45.2432 387.204 45.1562 387.447V387.465C45.2329 387.662 45.3222 387.884 45.4082 388.1C45.3719 388.127 45.3262 388.15 45.2953 388.177C46.673 392.37 47.8174 396.636 48.7232 400.955C50.3519 408.839 50.4619 412.561 50.9158 412.568C51.3256 412.575 51.9166 409.523 52.7533 397.344C53.0764 397.454 53.412 397.522 53.7522 397.548C57.51 397.791 60.3645 392.576 60.7127 391.95C60.9286 391.559 61.098 391.145 61.2175 390.715C60.4689 392.037 57.8241 396.192 54.4657 395.966Z" fill="#282724"/>
<path opacity="0.1" d="M77.3478 394.506C75.6727 394.501 74.0154 394.162 72.4734 393.508C70.9315 392.854 69.5359 391.899 68.3688 390.699C67.812 390.073 67.29 389.308 66.159 384.648C65.8282 384.648 65.4629 384.648 65.0801 384.683C66.4722 390.751 67.0463 391.602 67.6555 392.281C68.8245 393.48 70.2201 394.435 71.7613 395.092C73.3025 395.748 74.9588 396.093 76.6342 396.105C76.9302 396.105 83.5948 396.053 86.8486 391.168C87.18 390.658 87.4323 390.101 87.597 389.516C87.5795 389.534 87.5622 389.551 87.5622 389.568C84.3082 394.471 77.6435 394.506 77.3478 394.506Z" fill="#282724"/>
<path opacity="0.1" d="M113.89 386.004C113.039 386.621 112.084 387.08 111.071 387.361C108.809 388.056 107.939 387.308 106.042 388.004C103.815 388.821 103.606 389.934 102.197 390.247C98.8383 391.029 95.4451 386.526 95.0275 385.987C94.3438 385.066 93.7495 384.083 93.2525 383.049C93.1308 382.823 92.975 382.51 92.7655 382.093C92.3304 382.145 91.8954 382.215 91.4082 382.285C91.9127 383.449 92.3131 384.214 92.5398 384.631C93.0366 385.665 93.631 386.649 94.3148 387.569C94.7324 388.108 98.1256 392.611 101.468 391.846C102.894 391.516 103.103 390.421 105.33 389.603C107.227 388.908 108.097 389.638 110.359 388.96C111.368 388.659 112.32 388.195 113.178 387.587C114.121 386.822 114.802 385.783 115.127 384.614C114.801 385.148 114.382 385.619 113.89 386.004Z" fill="#282724"/>
<path opacity="0.1" d="M128.854 381.188C126.627 382.087 124.143 382.118 121.893 381.275C121.093 380.875 120.901 380.562 118.291 376.859C118.274 376.859 118.256 376.877 118.239 376.877C117.717 377.016 117.23 377.172 116.777 377.311C116.917 377.503 117.055 377.694 117.195 377.902C120.171 382.126 120.345 382.457 121.18 382.875C123.431 383.712 125.915 383.675 128.14 382.77C130.664 382.075 133.917 381.188 135.431 378.355C135.614 378.015 135.749 377.653 135.832 377.277C134.054 379.379 131.576 380.768 128.854 381.188Z" fill="#282724"/>
<path opacity="0.34" d="M27.0051 394.928L27.0226 394.911C26.8138 395.936 26.7094 396.389 26.2917 396.511C25.1432 396.876 22.707 394.303 20.6016 390.218C20.706 389.418 20.7937 388.584 20.8791 387.749C23.0726 392.337 25.7697 395.311 27.0051 394.928Z" fill="#282724"/>
<path opacity="0.34" d="M42.927 389.329C43.6127 388.344 44.2347 387.317 44.7891 386.252C44.1083 387.897 43.2444 389.46 42.2137 390.912C40.1778 393.989 38.5248 396.44 36.715 396.405C36.2626 396.388 34.7836 396.197 31.5644 389.121C31.0947 388.095 30.6768 387.122 30.2942 386.183C30.0166 386.67 29.7373 387.191 29.4414 387.783C29.9011 386.687 30.4241 385.619 31.0075 384.584C31.3902 385.523 31.808 386.514 32.2777 387.539C35.5144 394.615 36.9751 394.806 37.4459 394.824C39.2554 394.859 40.8912 392.39 42.927 389.329Z" fill="#282724"/>
<path opacity="0.34" d="M61.5815 387.881C61.462 388.311 61.2927 388.725 61.077 389.116C60.7287 389.742 57.8743 394.957 54.1164 394.714C51.8717 394.575 50.2187 392.575 48.8441 390.907C47.8176 389.633 46.9849 388.216 46.373 386.699C46.8428 386.769 47.3302 386.838 47.8173 386.891C47.8696 386.891 47.9044 386.908 47.9567 386.908C48.4091 387.765 48.9455 388.574 49.5581 389.325C50.9327 390.977 52.5859 392.994 54.8306 393.132C58.1883 393.358 60.8332 389.203 61.5815 387.881Z" fill="#282724"/>
<path opacity="0.34" d="M87.9623 386.683C87.798 387.268 87.5461 387.825 87.215 388.334C83.961 393.219 77.2963 393.271 77.0006 393.271C75.3252 393.259 73.6688 392.915 72.1276 392.258C70.5863 391.602 69.1907 390.646 68.0217 389.447C67.5171 388.891 67.0472 388.212 66.125 384.648H66.1598C66.5599 384.648 66.9428 384.666 67.2914 384.683C67.4986 385.848 67.9953 386.942 68.7359 387.865C69.9029 389.065 71.2984 390.021 72.8404 390.675C74.3823 391.328 76.0395 391.668 77.7146 391.672C78.0103 391.672 84.6752 391.637 87.929 386.735C87.9275 386.717 87.945 386.7 87.9623 386.683Z" fill="#282724"/>
<path opacity="0.34" d="M115.49 381.779C115.165 382.948 114.484 383.987 113.541 384.752C112.683 385.361 111.731 385.825 110.723 386.126C108.461 386.804 107.591 386.073 105.694 386.769C103.467 387.586 103.258 388.681 101.831 389.012C98.4902 389.776 95.097 385.274 94.6785 384.735C94.0512 383.895 93.5037 382.999 93.043 382.057C93.5996 382.005 94.1044 381.953 94.5568 381.936C94.8091 382.359 95.0881 382.765 95.3921 383.153C95.8097 383.692 99.2029 388.194 102.561 387.412C103.97 387.099 104.179 385.987 106.407 385.169C108.304 384.474 109.174 385.222 111.436 384.526C112.449 384.246 113.403 383.786 114.254 383.17C114.746 382.784 115.165 382.313 115.49 381.779Z" fill="#282724"/>
<path opacity="0.34" d="M136.197 374.443C136.114 374.819 135.98 375.182 135.797 375.521C134.283 378.355 131.029 379.242 128.506 379.937C126.281 380.841 123.797 380.879 121.546 380.041C120.832 379.694 120.606 379.398 118.744 376.738C119.301 376.582 119.806 376.443 120.275 376.304C121.407 377.903 121.667 378.146 122.259 378.442C124.508 379.285 126.992 379.254 129.22 378.355C131.942 377.935 134.42 376.545 136.197 374.443Z" fill="#282724"/>
<path opacity="0.1" d="M60.3981 429.895C59.8641 430.345 59.507 430.97 59.3903 431.659C59.2421 432.083 59.2014 432.537 59.272 432.98C59.3426 433.424 59.5222 433.843 59.7947 434.2C60.8623 435.225 63.4127 434.043 65.3937 433.123L65.4906 433.08C65.845 432.866 66.1226 432.545 66.2836 432.164C66.4446 431.782 66.481 431.36 66.3874 430.956C66.2968 430.668 66.1422 430.404 65.9351 430.184C65.7281 429.964 65.4739 429.794 65.1917 429.686C65.2804 429.861 65.3283 430.055 65.332 430.252C65.3357 430.449 65.2951 430.644 65.2131 430.823C64.5751 431.773 61.4765 430.978 61.4338 430.299C61.4219 430.107 61.6473 429.822 62.7457 429.426C62.3435 429.333 61.9261 429.327 61.5214 429.408C61.1166 429.489 60.7337 429.655 60.3981 429.895Z" fill="#282724"/>
<path opacity="0.49" d="M65.4906 433.082C64.6936 432.322 63.7074 431.789 62.6346 431.539C61.5618 431.289 60.4415 431.331 59.3903 431.66C59.2421 432.083 59.2014 432.537 59.272 432.981C59.3426 433.424 59.5222 433.843 59.7947 434.2C60.8623 435.226 63.4127 434.044 65.3937 433.124L65.4906 433.082Z" fill="#282724"/>
<path opacity="0.1" d="M68.6036 432.73C68.2852 433.465 67.65 433.691 62.2387 435.004C60.5502 435.414 59.6942 435.612 59.1179 435.245C57.9391 434.494 57.9502 432.408 58.2579 431.173C58.4585 430.441 58.8091 429.758 59.2875 429.168C59.7659 428.578 60.3616 428.094 61.037 427.746C62.0173 427.294 63.1107 427.147 64.1757 427.323V427.326L64.1746 427.335L64.1731 427.354C62.5813 427.81 61.1051 428.6 59.8426 429.671C59.334 430.296 59.0179 431.056 58.9328 431.857C58.8333 432.426 58.6185 433.716 59.3372 434.397C59.6148 434.661 60.1945 434.979 63.33 434.155C66.36 433.358 67.7512 432.548 67.8894 432.203C68.379 430.981 67.3727 429.144 65.5531 427.704C66.5843 428.105 67.4616 428.823 68.0589 429.754C68.365 430.179 68.5727 430.666 68.667 431.181C68.7612 431.695 68.7395 432.224 68.6036 432.73Z" fill="#282724"/>
</g>
<defs>
<clipPath id="clip0_2651_491291">
<rect width="463" height="469" fill="white"/>
</clipPath>
</defs>
</svg>
