<svg width="463" height="469" viewBox="0 0 463 469" fill="none" xmlns="http://www.w3.org/2000/svg">
<g clip-path="url(#clip0_2651_491284)">
<path d="M29.0759 211.32C28.9172 211.827 28.6948 212.312 28.414 212.763C27.6667 213.927 26.6044 214.832 25.804 215.944C24.0638 218.343 24.0638 220.881 23.5941 223.663C23.4162 224.834 22.86 225.915 22.0104 226.74C21.08 227.906 20.4578 229.287 20.2009 230.756C19.8529 232.13 19.3656 232.077 18.2346 232.703C17.278 233.324 16.4063 234.066 15.6417 234.911C15.6767 234.546 15.7288 234.129 15.7811 233.642C15.8157 233.225 15.868 232.756 15.9028 232.234C16.2682 227.436 16.129 220.395 16.7206 218.639C16.8118 218.379 16.8816 218.111 16.9294 217.839C17.1467 217.217 17.1282 216.537 16.8773 215.927C16.4945 215.319 15.6244 215.753 15.3112 215.214C15.0676 214.78 15.4852 214.31 15.1545 213.823C14.9623 213.546 14.7719 213.615 14.5803 213.389C14.0062 212.711 14.6499 211.094 15.3808 210.104C15.577 209.839 15.7987 209.595 16.0427 209.374L21.1064 205.41C22.1604 204.993 23.2966 204.827 24.4259 204.923C25.5551 205.02 26.6466 205.377 27.6144 205.966C28.0306 206.331 28.363 206.782 28.5889 207.287C29.0737 208.573 29.2408 209.956 29.0759 211.32Z" fill="#F4D58C" stroke="#282724" stroke-width="0.25" stroke-miterlimit="10"/>
<path opacity="0.3" d="M29.0759 211.32C28.9172 211.827 28.6948 212.312 28.414 212.763C27.6667 213.927 26.6044 214.832 25.804 215.944C24.0638 218.343 24.0638 220.881 23.5941 223.663C23.4162 224.834 22.86 225.915 22.0104 226.74C21.08 227.906 20.4578 229.287 20.2009 230.756C19.8529 232.13 19.3656 232.077 18.2346 232.703C17.278 233.324 16.4063 234.066 15.6417 234.911C15.6767 234.546 15.7288 234.129 15.7811 233.642C15.8157 233.225 15.868 232.756 15.9028 232.234C16.2682 227.436 16.129 220.395 16.7206 218.639C16.8118 218.379 16.8816 218.111 16.9294 217.839C17.1467 217.217 17.1282 216.537 16.8773 215.927C16.4945 215.319 15.6244 215.753 15.3112 215.214C15.0676 214.78 15.4852 214.31 15.1545 213.823C14.9623 213.546 14.7719 213.615 14.5803 213.389C14.0062 212.711 14.6499 211.094 15.3808 210.104C15.577 209.839 15.7987 209.595 16.0427 209.374L21.1064 205.41C22.1604 204.993 23.2966 204.827 24.4259 204.923C25.5551 205.02 26.6466 205.377 27.6144 205.966C28.0306 206.331 28.363 206.782 28.5889 207.287C29.0737 208.573 29.2408 209.956 29.0759 211.32Z" fill="#282724"/>
<path d="M42.6828 184.025C42.6683 185.008 42.4365 185.976 42.004 186.859C41.7527 187.414 41.5317 187.983 41.3421 188.562C40.6802 190.632 41.1854 190.457 40.3676 193.639C40.0946 195.122 39.5519 196.542 38.7663 197.83C37.8268 199.133 37.3742 198.925 36.7129 200.055C35.7211 201.741 36.452 202.767 35.8253 204.679C35.1816 206.661 34.1898 206.279 32.7977 208.608C31.5795 210.788 30.9331 213.24 30.9188 215.736C31.1487 217.188 31.0896 218.671 30.7447 220.1C30.4049 220.999 29.9232 221.838 29.3178 222.586C27.0035 225.889 27.9432 228.097 26.2902 231.225C25.709 232.321 24.9371 233.304 24.0107 234.129C23.854 233.242 23.6799 232.251 23.4711 231.138C21.2788 219.125 20.5304 217.109 19.9387 215.874C19.6128 215.253 19.4119 214.574 19.3473 213.875C19.0687 210.78 21.8529 208.26 21.4874 207.947C21.3657 207.825 21.0351 208.329 20.1476 208.625C19.0159 208.99 18.3728 208.538 17.1199 208.885C16.7422 209.004 16.38 209.168 16.041 209.372C20.1424 206.569 23.7971 203.164 26.8818 199.272C28.7394 196.871 30.4091 194.331 31.8759 191.674C34.6892 186.826 37.0875 181.749 39.0451 176.497C38.958 178.601 39.3757 179.279 39.8108 179.487C39.888 179.519 39.9706 179.537 40.0542 179.539C40.4721 179.591 40.8547 179.347 41.3071 179.591C41.9859 179.974 41.6727 180.843 42.2295 181.661C42.5259 182.414 42.6796 183.216 42.6828 184.025Z" fill="#FFEECC" stroke="#282724" stroke-width="0.25" stroke-miterlimit="10"/>
</g>
<defs>
<clipPath id="clip0_2651_491284">
<rect width="463" height="469" fill="white"/>
</clipPath>
</defs>
</svg>
