<svg width="463" height="469" viewBox="0 0 463 469" fill="none" xmlns="http://www.w3.org/2000/svg">
<path d="M29.0759 211.319C28.9172 211.826 28.6948 212.311 28.414 212.763C27.6667 213.927 26.6044 214.832 25.804 215.944C24.0638 218.343 24.0638 220.881 23.5941 223.663C23.4162 224.834 22.86 225.914 22.0104 226.74C21.08 227.906 20.4578 229.287 20.2009 230.756C19.8529 232.129 19.3656 232.077 18.2346 232.703C17.278 233.324 16.4063 234.066 15.6417 234.911C15.6767 234.546 15.7288 234.129 15.7811 233.642C15.8157 233.225 15.868 232.755 15.9028 232.234C16.2682 227.436 16.129 220.395 16.7206 218.639C16.8118 218.378 16.8816 218.111 16.9294 217.839C17.1467 217.217 17.1282 216.536 16.8773 215.927C16.4945 215.318 15.6244 215.753 15.3112 215.214C15.0676 214.78 15.4852 214.31 15.1545 213.823C14.9623 213.546 14.7719 213.615 14.5803 213.389C14.0062 212.711 14.6499 211.094 15.3808 210.104C15.577 209.839 15.7987 209.594 16.0427 209.373L21.1064 205.409C22.1604 204.993 23.2966 204.826 24.4259 204.923C25.5551 205.02 26.6466 205.376 27.6144 205.966C28.0306 206.331 28.363 206.782 28.5889 207.287C29.0737 208.572 29.2408 209.956 29.0759 211.319Z" fill="black"/>
<path d="M29.0759 211.319C28.9172 211.826 28.6948 212.311 28.414 212.763C27.6667 213.927 26.6044 214.832 25.804 215.944C24.0638 218.343 24.0638 220.881 23.5941 223.663C23.4162 224.834 22.86 225.914 22.0104 226.74C21.08 227.906 20.4578 229.287 20.2009 230.756C19.8529 232.129 19.3656 232.077 18.2346 232.703C17.278 233.324 16.4063 234.066 15.6417 234.911C15.6767 234.546 15.7288 234.129 15.7811 233.642C15.8157 233.225 15.868 232.755 15.9028 232.234C16.2682 227.436 16.129 220.395 16.7206 218.639C16.8118 218.378 16.8816 218.111 16.9294 217.839C17.1467 217.217 17.1282 216.536 16.8773 215.927C16.4945 215.318 15.6244 215.753 15.3112 215.214C15.0676 214.78 15.4852 214.31 15.1545 213.823C14.9623 213.546 14.7719 213.615 14.5803 213.389C14.0062 212.711 14.6499 211.094 15.3808 210.104C15.577 209.839 15.7987 209.594 16.0427 209.373L21.1064 205.409C22.1604 204.993 23.2966 204.826 24.4259 204.923C25.5551 205.02 26.6466 205.376 27.6144 205.966C28.0306 206.331 28.363 206.782 28.5889 207.287C29.0737 208.572 29.2408 209.956 29.0759 211.319Z" fill="black"/>
<path d="M42.6837 184.025C42.6692 185.008 42.4374 185.976 42.005 186.859C41.7536 187.414 41.5327 187.983 41.3431 188.562C40.6812 190.632 41.1864 190.457 40.3686 193.639C40.0956 195.122 39.5528 196.542 38.7672 197.83C37.8278 199.133 37.3751 198.925 36.7139 200.055C35.7221 201.741 36.4529 202.767 35.8263 204.679C35.1825 206.661 34.1907 206.279 32.7986 208.608C31.5804 210.788 30.9341 213.24 30.9197 215.736C31.1497 217.188 31.0905 218.671 30.7457 220.1C30.4058 220.999 29.9241 221.838 29.3188 222.586C27.0045 225.889 27.9441 228.097 26.2911 231.225C25.7099 232.321 24.938 233.304 24.0116 234.129C23.8549 233.242 23.6809 232.251 23.4721 231.138C21.2797 219.125 20.5313 217.109 19.9397 215.874C19.6137 215.253 19.4128 214.574 19.3482 213.875C19.0696 210.78 21.8538 208.26 21.4883 207.947C21.3666 207.825 21.0361 208.329 20.1485 208.625C19.0169 208.99 18.3738 208.538 17.1209 208.885C16.7432 209.004 16.381 209.168 16.042 209.372C20.1434 206.569 23.7981 203.164 26.8828 199.272C28.7404 196.871 30.41 194.331 31.8769 191.674C34.6902 186.826 37.0884 181.749 39.0461 176.497C38.959 178.601 39.3766 179.279 39.8117 179.487C39.889 179.519 39.9715 179.537 40.0552 179.539C40.473 179.591 40.8556 179.347 41.3081 179.591C41.9868 179.974 41.6736 180.843 42.2304 181.661C42.5268 182.414 42.6805 183.216 42.6837 184.025Z" fill="black"/>
<path d="M29.0759 211.319C28.9172 211.826 28.6948 212.311 28.414 212.763C27.6667 213.927 26.6044 214.832 25.804 215.944C24.0638 218.343 24.0638 220.881 23.5941 223.663C23.4162 224.834 22.86 225.914 22.0104 226.74C21.08 227.906 20.4578 229.287 20.2009 230.756C19.8529 232.129 19.3656 232.077 18.2346 232.703C17.278 233.324 16.4063 234.066 15.6417 234.911C15.6767 234.546 15.7288 234.129 15.7811 233.642C15.8157 233.225 15.868 232.755 15.9028 232.234C16.2682 227.436 16.129 220.395 16.7206 218.639C16.8118 218.378 16.8816 218.111 16.9294 217.839C17.1467 217.217 17.1282 216.536 16.8773 215.927C16.4945 215.318 15.6244 215.753 15.3112 215.214C15.0676 214.78 15.4852 214.31 15.1545 213.823C14.9623 213.546 14.7719 213.615 14.5803 213.389C14.0062 212.711 14.6499 211.094 15.3808 210.104C15.577 209.839 15.7987 209.594 16.0427 209.373L21.1064 205.409C22.1604 204.993 23.2966 204.826 24.4259 204.923C25.5551 205.02 26.6466 205.376 27.6144 205.966C28.0306 206.331 28.363 206.782 28.5889 207.287C29.0737 208.572 29.2408 209.956 29.0759 211.319Z" stroke="black" stroke-width="0.25" stroke-miterlimit="10"/>
<path d="M29.0759 211.319C28.9172 211.826 28.6948 212.311 28.414 212.763C27.6667 213.927 26.6044 214.832 25.804 215.944C24.0638 218.343 24.0638 220.881 23.5941 223.663C23.4162 224.834 22.86 225.914 22.0104 226.74C21.08 227.906 20.4578 229.287 20.2009 230.756C19.8529 232.129 19.3656 232.077 18.2346 232.703C17.278 233.324 16.4063 234.066 15.6417 234.911C15.6767 234.546 15.7288 234.129 15.7811 233.642C15.8157 233.225 15.868 232.755 15.9028 232.234C16.2682 227.436 16.129 220.395 16.7206 218.639C16.8118 218.378 16.8816 218.111 16.9294 217.839C17.1467 217.217 17.1282 216.536 16.8773 215.927C16.4945 215.318 15.6244 215.753 15.3112 215.214C15.0676 214.78 15.4852 214.31 15.1545 213.823C14.9623 213.546 14.7719 213.615 14.5803 213.389C14.0062 212.711 14.6499 211.094 15.3808 210.104C15.577 209.839 15.7987 209.594 16.0427 209.373L21.1064 205.409C22.1604 204.993 23.2966 204.826 24.4259 204.923C25.5551 205.02 26.6466 205.376 27.6144 205.966C28.0306 206.331 28.363 206.782 28.5889 207.287C29.0737 208.572 29.2408 209.956 29.0759 211.319Z" stroke="black" stroke-width="0.25" stroke-miterlimit="10"/>
<path d="M42.6837 184.025C42.6692 185.008 42.4374 185.976 42.005 186.859C41.7536 187.414 41.5327 187.983 41.3431 188.562C40.6812 190.632 41.1864 190.457 40.3686 193.639C40.0956 195.122 39.5528 196.542 38.7672 197.83C37.8278 199.133 37.3751 198.925 36.7139 200.055C35.7221 201.741 36.4529 202.767 35.8263 204.679C35.1825 206.661 34.1907 206.279 32.7986 208.608C31.5804 210.788 30.9341 213.24 30.9197 215.736C31.1497 217.188 31.0905 218.671 30.7457 220.1C30.4058 220.999 29.9241 221.838 29.3188 222.586C27.0045 225.889 27.9441 228.097 26.2911 231.225C25.7099 232.321 24.938 233.304 24.0116 234.129C23.8549 233.242 23.6809 232.251 23.4721 231.138C21.2797 219.125 20.5313 217.109 19.9397 215.874C19.6137 215.253 19.4128 214.574 19.3482 213.875C19.0696 210.78 21.8538 208.26 21.4883 207.947C21.3666 207.825 21.0361 208.329 20.1485 208.625C19.0169 208.99 18.3738 208.538 17.1209 208.885C16.7432 209.004 16.381 209.168 16.042 209.372C20.1434 206.569 23.7981 203.164 26.8828 199.272C28.7404 196.871 30.41 194.331 31.8769 191.674C34.6902 186.826 37.0884 181.749 39.0461 176.497C38.959 178.601 39.3766 179.279 39.8117 179.487C39.889 179.519 39.9715 179.537 40.0552 179.539C40.473 179.591 40.8556 179.347 41.3081 179.591C41.9868 179.974 41.6736 180.843 42.2304 181.661C42.5268 182.414 42.6805 183.216 42.6837 184.025Z" stroke="black" stroke-width="0.25" stroke-miterlimit="10"/>
</svg>
