<svg width="463" height="469" viewBox="0 0 463 469" fill="none" xmlns="http://www.w3.org/2000/svg">
<g clip-path="url(#clip0_2651_491296)">
<path d="M459.855 195.62C460.534 195.048 461.055 194.312 461.369 193.482C461.542 193.048 461.702 192.615 461.849 192.181C453.547 196.284 445.57 201.013 437.987 206.326C428.255 213.225 418.848 221.041 411.888 230.803C402.805 243.539 395.523 260.7 380.24 267.228C376.41 268.844 372.298 269.687 368.14 269.707C362.713 269.759 357.382 268.828 351.936 269.317C346.612 270.007 341.367 271.213 336.276 272.919C329.876 274.866 323.255 275.999 316.571 276.292C310.211 276.295 303.876 275.502 297.714 273.929C292.041 272.687 286.353 271.503 280.624 270.543C268.28 268.476 255.409 267.312 242.997 269.506C230.625 271.693 218.478 277.373 207.648 283.583C206.159 284.437 204.689 285.314 203.223 286.197C204.801 287.547 206.301 288.986 207.715 290.507C208.237 291.063 208.776 291.654 209.316 292.263C212.553 295.879 216.085 300.364 220.488 305.979C236.096 325.833 235.748 335.795 247.964 340.767C256.62 344.04 266.175 344.04 274.831 340.767C283.183 337.464 284.732 332.77 289.587 331.814C290.157 331.679 290.741 331.609 291.327 331.605C300.201 331.449 302.238 341.984 315.149 349.303C317.447 350.611 319.873 351.683 322.387 352.503L322.44 352.451C323.449 351.529 324.511 350.521 325.607 349.409C326.309 348.922 327.041 348.481 327.799 348.087C331.913 346.111 336.33 344.841 340.866 344.333C345.39 343.638 347.896 343.029 352.925 341.812C354.53 341.524 356.003 340.74 357.136 339.569C358.054 338.29 358.694 336.834 359.015 335.293C359.987 332.886 361.319 330.641 362.965 328.634C365.61 325.487 366.672 326.409 368.429 323.662C369.419 321.668 370.279 319.612 371.004 317.508C372.518 313.631 372.431 313.753 372.553 313.579C374.676 310.536 377.86 311.805 382.994 308.624C384.142 307.911 387.918 305.564 387.606 303.148C387.432 301.74 386.004 301.235 386.249 300.417C386.718 298.8 392.461 300.087 393.435 298.018C393.609 297.653 393.574 297.288 393.261 296.541C393.557 296.596 393.862 296.586 394.154 296.511C394.445 296.436 394.717 296.298 394.949 296.106C395.611 295.428 395.036 294.367 395.193 293.202C395.523 290.472 399.734 287.987 401.527 288.926C402.518 289.465 402.066 290.682 402.988 291.221C405.007 292.438 409.914 288.143 412.454 285.414C414.908 282.806 414.473 282.372 416.926 280.06C419.467 277.66 420.79 277.313 421.137 275.679C421.642 273.314 419.241 272.306 419.798 269.959C420.25 267.994 422.042 268.255 423.452 265.491C424.583 263.283 424.217 261.562 425.157 261.301C426.236 260.988 427.193 263.178 428.202 262.901C429.768 262.484 429.299 256.625 429.977 256.555C430.551 256.521 431.247 260.554 431.856 260.502C432.413 260.45 431.943 257.146 433.3 256.469C434.919 255.651 437.563 259.476 438.921 258.798C440.678 257.911 438.521 250.471 439.113 250.314C439.6 250.175 441.288 255.564 442.054 255.408C442.716 255.269 441.862 251.218 443.481 246.107C443.863 244.943 444.577 242.7 445.464 242.717C446.857 242.752 447.796 248.437 448.057 248.437C448.37 248.367 446.073 239.049 448.057 238.162C448.979 237.728 450.197 239.519 451.085 239.049C452.756 238.18 450.319 231.052 451.537 230.565C452.181 230.304 453.33 232.147 453.765 231.904C454.548 231.469 451.503 225.402 452.616 224.672C453.208 224.272 454.6 225.68 455.018 225.298C455.47 224.898 453.956 223.506 454.043 221.629C454.165 219.213 456.827 218.639 456.723 216.622C456.636 214.762 454.304 214.293 454.495 212.78C454.669 211.233 457.158 211.285 457.889 209.216C458.445 207.634 457.227 207.008 457.715 205.287C458.341 203.062 460.638 203.131 460.934 201.341C461.282 199.22 458.324 197.273 459.055 196.16C459.211 195.933 459.35 196.003 459.855 195.62Z" fill="#F4D58C" stroke="#282724" stroke-width="0.25" stroke-miterlimit="10"/>
<path d="M432.396 83.279C406.73 45.5186 372.311 28.7943 359.73 22.8668C317.411 2.94266 272.464 1.96992 238.41 1.23973C232.999 1.11792 227.848 1.01361 220.592 1.23973C189.513 2.21162 140.686 3.74155 98.0713 35.2607C76.8945 50.9073 57.9448 73.4729 49.6967 94.0743C46.7562 101.446 46.791 104.54 39.8306 123.646C34.9582 137.033 32.5395 142.144 33.0961 150.437C33.6649 156.513 34.7892 162.524 36.4547 168.395C37.449 172.013 38.418 174.771 38.8651 176.001C38.9613 176.151 39.0236 176.32 39.0474 176.497C39.0616 176.691 39.0254 176.886 38.9422 177.062C38.785 177.433 38.7271 177.838 38.7743 178.238C38.8214 178.638 38.9719 179.019 39.211 179.343C39.3312 179.431 39.4682 179.494 39.6136 179.528C39.759 179.562 39.9098 179.566 40.0567 179.539C40.4743 179.591 40.857 179.347 41.3096 179.591C41.9882 179.974 41.6749 180.843 42.2316 181.661C42.8935 182.652 43.8848 182.252 45.2769 183.052C46.791 183.903 46.2862 184.755 48.0612 186.441C49.749 188.041 50.532 187.572 51.6109 189.049C52.4985 190.284 52.3069 191.101 53.1597 191.518C54.1331 191.994 55.1027 191.057 56.2397 191.222C57.3085 191.378 58.6366 192.65 59.7556 197.583C59.8686 197.551 59.9852 197.534 60.1026 197.533C61.3728 197.533 62.2777 199.341 63.7915 198.924C65.5408 198.446 65.7157 195.657 66.7771 194.713C66.7971 194.695 66.8121 194.666 66.833 194.649C66.9892 194.52 67.1766 194.436 67.3762 194.403C68.6987 194.195 69.0815 196.489 71.9004 197.498C72.5809 197.783 73.3115 197.929 74.0494 197.929C74.7873 197.929 75.5178 197.783 76.1984 197.498C77.7821 196.681 78.1647 194.977 78.5825 195.116C79.1044 195.29 77.9909 197.706 78.8259 200.366C79.5743 202.696 80.9489 202.452 81.6973 204.886C82.3235 206.99 81.3839 207.459 82.167 209.893C82.7239 211.649 83.4024 211.962 83.3676 213.231C83.3155 214.848 82.2193 215.074 81.9232 216.569C81.4883 218.864 83.8549 219.472 84.5509 223.002C84.7011 224.317 84.6742 225.647 84.4709 226.956C82.7012 228.036 80.9032 229.108 79.0418 230.158C65.6625 237.706 56.4901 240.657 56.4649 245.68C56.4342 251.731 69.6858 260.135 127.916 270.468C134.718 272.921 134.475 273.935 142.305 276.078C168.476 283.293 178.255 273.922 194.838 280.963C196.743 281.771 198.562 282.769 200.267 283.941L203.223 286.197C204.793 287.556 206.292 288.995 207.715 290.507C208.237 291.064 208.776 291.655 209.316 292.263C212.553 295.879 216.085 300.365 220.488 305.98C236.096 325.833 235.748 335.795 247.964 340.767C256.62 344.04 266.175 344.04 274.831 340.767C283.184 337.464 284.732 332.77 289.587 331.814C290.158 331.679 290.741 331.609 291.327 331.605C300.202 331.449 302.238 341.984 315.149 349.303C317.448 350.611 319.873 351.683 322.387 352.503L322.44 352.451C323.449 351.53 324.511 350.521 325.607 349.409C326.309 348.922 327.041 348.481 327.799 348.087C331.913 346.111 336.33 344.841 340.866 344.333C345.39 343.638 347.896 343.029 352.925 341.812C354.529 341.524 356.003 340.74 357.136 339.569C358.054 338.29 358.694 336.834 359.015 335.293C359.987 332.886 361.319 330.641 362.965 328.634C365.61 325.487 366.672 326.409 368.429 323.662C369.419 321.668 370.279 319.612 371.004 317.508C372.518 313.631 372.431 313.753 372.553 313.579C374.676 310.536 377.86 311.805 382.994 308.624C384.142 307.911 387.918 305.564 387.606 303.147C387.432 301.74 386.004 301.235 386.249 300.418C386.718 298.801 392.461 300.088 393.435 298.019C393.609 297.654 393.574 297.289 393.261 296.541C393.557 296.597 393.862 296.587 394.154 296.512C394.445 296.437 394.717 296.299 394.949 296.107C395.611 295.429 395.036 294.368 395.192 293.203C395.523 290.473 399.734 287.988 401.527 288.927C402.518 289.466 402.066 290.682 402.988 291.221C405.007 292.438 409.914 288.144 412.454 285.415C414.908 282.807 414.473 282.372 416.926 280.06C419.467 277.661 420.79 277.314 421.137 275.679C421.642 273.315 419.241 272.307 419.798 269.96C420.25 267.995 422.042 268.256 423.452 265.492C424.583 263.284 424.217 261.563 425.157 261.302C426.236 260.989 427.193 263.179 428.202 262.902C429.768 262.485 429.299 256.626 429.977 256.556C430.551 256.521 431.247 260.555 431.856 260.503C432.413 260.451 431.943 257.147 433.3 256.469C434.919 255.652 437.564 259.477 438.921 258.799C440.678 257.912 438.521 250.471 439.113 250.315C439.6 250.176 441.288 255.565 442.054 255.409C442.716 255.27 441.862 251.219 443.481 246.108C443.863 244.943 444.577 242.701 445.464 242.718C446.857 242.753 447.796 248.438 448.057 248.438C448.37 248.368 446.073 239.05 448.057 238.163C448.979 237.729 450.198 239.519 451.085 239.05C452.756 238.181 450.319 231.053 451.537 230.566C452.181 230.305 453.33 232.148 453.765 231.905C454.548 231.47 451.503 225.403 452.616 224.673C453.208 224.273 454.6 225.681 455.018 225.299C455.47 224.899 453.956 223.507 454.043 221.63C454.165 219.213 456.827 218.64 456.723 216.623C456.636 214.763 454.304 214.293 454.496 212.781C454.669 211.234 457.158 211.286 457.889 209.217C458.445 207.635 457.227 207.009 457.715 205.288C458.287 203.265 460.143 203.15 460.934 201.341C461.384 200.313 461.549 198.581 459.855 195.622C460.534 195.05 461.055 194.314 461.369 193.483C461.542 193.05 461.702 192.616 461.849 192.182C461.988 191.473 462.088 190.756 462.149 190.036C462.207 189.348 462.224 188.706 462.217 188.119C461.289 161.993 458.958 122.32 432.396 83.279ZM97.1319 189.744L97.1159 189.756L97.1586 189.719L97.1319 189.744ZM100.455 188.736L100.451 188.734L100.472 188.741L100.455 188.736ZM105.589 187.067C102.312 183.019 98.5284 179.409 94.3306 176.324C94.452 176.414 94.5951 176.513 94.7132 176.602C99.356 179.843 103.446 183.812 106.824 188.354C109.906 192.599 112.3 197.303 113.918 202.292C113.962 202.454 114.023 202.649 114.063 202.801C112.237 197.078 109.364 191.743 105.589 187.067ZM115.381 203.266C115.371 202.681 115.361 202.095 115.351 201.508C115.496 201.35 115.64 201.192 115.779 201.016C115.804 200.985 115.825 200.95 115.849 200.918C116.078 200.617 116.287 200.302 116.473 199.973C116.52 199.892 116.565 199.811 116.609 199.727C116.825 199.331 117.003 198.917 117.143 198.49C117.857 196.351 117.369 194.63 118.379 194.091C119.44 193.517 120.536 195.169 122.033 194.578C123.286 194.091 123.39 192.613 124.608 192.509C124.977 192.5 125.341 192.583 125.671 192.749C122.672 196.056 119.244 199.605 115.381 203.266ZM134.579 198.35C134.527 198.472 134.474 198.611 134.422 198.732C134.474 198.611 134.527 198.472 134.579 198.35L134.587 198.329L134.579 198.35ZM141.587 175.011C141.179 175.497 140.813 176.017 140.495 176.566C140.395 176.737 140.313 176.884 140.245 177.016C140.313 176.884 140.395 176.736 140.495 176.566C140.813 176.017 141.179 175.497 141.587 175.011C141.933 174.601 142.255 174.278 142.541 173.98C142.256 174.278 141.933 174.601 141.587 175.011ZM143.688 170.399C143.631 169.99 143.609 169.691 143.87 169.456C143.61 169.691 143.632 169.99 143.688 170.399H143.688ZM216.22 129.179C215.896 129.329 215.611 129.55 215.385 129.827C215.159 130.103 215 130.427 214.918 130.774C214.897 130.965 214.92 131.158 214.985 131.338C214.92 131.158 214.897 130.965 214.918 130.774C215 130.427 215.16 130.103 215.385 129.827C215.611 129.55 215.897 129.329 216.221 129.179H216.22ZM222.175 121.317C222.188 121.574 221.908 121.824 221.447 122.068C221.909 121.824 222.188 121.574 222.175 121.317H222.175ZM235.852 95.665C235.898 95.7054 235.936 95.7546 235.963 95.8099C235.99 95.8652 236.005 95.9253 236.009 95.9867C235.998 96.0696 235.967 96.1489 235.92 96.218C235.873 96.2871 235.811 96.3443 235.737 96.3848C235.811 96.3442 235.873 96.2871 235.92 96.2179C235.967 96.1488 235.998 96.0696 236.009 95.9867C236.006 95.9254 235.99 95.8652 235.963 95.81C235.936 95.7547 235.899 95.7054 235.852 95.665H235.852ZM234.487 91.196C234.554 91.1519 234.611 91.0945 234.654 91.0274C234.697 90.9602 234.726 90.8849 234.738 90.806C234.79 90.2149 233.572 89.7281 231.397 88.7368C233.573 89.7277 234.791 90.2145 234.738 90.806C234.726 90.8848 234.697 90.9602 234.654 91.0273C234.611 91.0944 234.554 91.1518 234.488 91.196H234.487ZM239.019 25.5461C238.929 25.4478 238.86 25.3316 238.818 25.2052C238.776 25.0787 238.762 24.9448 238.775 24.8122C238.794 24.7162 238.833 24.6254 238.89 24.5458C238.833 24.6254 238.794 24.7163 238.775 24.8122C238.762 24.9448 238.777 25.0787 238.819 25.2052C238.861 25.3317 238.929 25.4479 239.019 25.5461H239.019ZM238.087 37.7085C237.651 37.4914 237.37 37.2947 237.401 37.1383C237.37 37.2947 237.651 37.4914 238.087 37.7085H238.087ZM238.427 101.741C238.414 101.878 238.032 101.948 237.417 101.984C238.032 101.948 238.414 101.878 238.428 101.741H238.427ZM236.705 51.307C236.726 51.0724 237.211 50.919 237.929 50.8051C237.212 50.9184 236.727 51.0724 236.705 51.307H236.705ZM236.279 46.7791C237.121 46.9406 238.033 47.1417 239.002 47.3954C239.078 47.4148 239.221 47.4521 239.414 47.504C239.222 47.4521 239.078 47.4148 239.001 47.3954C238.032 47.1411 237.121 46.9406 236.279 46.7791C235.438 46.6176 234.665 46.495 233.975 46.3951C234.666 46.495 235.438 46.6176 236.28 46.7799L236.279 46.7791ZM234.221 70.5532C234.636 71.0225 234.869 71.4519 234.738 71.8039C234.704 71.8936 234.65 71.9746 234.581 72.0409C234.65 71.9746 234.704 71.8937 234.738 71.8039C234.869 71.4519 234.636 71.0217 234.221 70.5532C233.858 70.1615 233.469 69.7938 233.058 69.4525C233.469 69.7937 233.858 70.1614 234.222 70.5532H234.221ZM233.242 74.916C233.242 75.1735 232.93 75.4103 232.423 75.6343C231.776 75.8959 231.112 76.1103 230.434 76.2757C231.112 76.1103 231.776 75.8959 232.423 75.6343C232.93 75.4103 233.242 75.1735 233.242 74.916C233.233 74.8422 233.209 74.7711 233.171 74.7073C233.133 74.6435 233.082 74.5885 233.021 74.5459C233.082 74.5885 233.133 74.6436 233.171 74.7076C233.21 74.7716 233.234 74.8429 233.242 74.9169L233.242 74.916ZM230.632 45.3012C230.378 45.4232 230.238 45.5416 230.249 45.6568C230.256 45.7264 230.317 45.7848 230.428 45.8356C230.317 45.7844 230.256 45.7264 230.249 45.6568C230.239 45.5427 230.378 45.4232 230.632 45.3012ZM228.059 117.218C227.585 117.492 227.083 117.712 226.56 117.874C227.083 117.712 227.585 117.492 228.059 117.218ZM213.163 154.088C213.043 154.519 212.922 155.013 212.814 155.565C212.923 155.013 213.043 154.519 213.163 154.088ZM194.107 159.669C193.703 159.767 193.29 159.823 192.874 159.835C193.29 159.823 193.703 159.767 194.107 159.669C194.387 159.602 194.66 159.511 194.924 159.399C194.66 159.511 194.387 159.602 194.107 159.669ZM199.693 156.627C199.33 156.723 198.974 156.841 198.626 156.982C198.974 156.841 199.33 156.723 199.693 156.627C199.843 156.585 199.975 156.553 200.097 156.527C199.975 156.552 199.843 156.585 199.693 156.626V156.627Z" fill="#282724"/>
</g>
<defs>
<clipPath id="clip0_2651_491296">
<rect width="463" height="469" fill="white"/>
</clipPath>
</defs>
</svg>
