<svg width="463" height="469" viewBox="0 0 463 469" fill="none" xmlns="http://www.w3.org/2000/svg">
<g clip-path="url(#clip0_2651_491294)">
<path d="M115.735 224.289C113.781 225.761 111.584 226.879 109.244 227.592C107.838 227.621 106.438 227.796 105.068 228.113C104.637 228.367 104.139 228.482 103.641 228.444C102.987 228.161 102.295 227.974 101.587 227.887H101.553C100.987 227.962 100.436 228.12 99.9169 228.357C99.8996 228.374 99.8648 228.374 99.8473 228.392C99.6733 228.479 99.5167 228.565 99.36 228.652C99.3427 228.67 99.3427 228.687 99.3252 228.687C98.908 228.956 98.5176 229.265 98.1594 229.609C96.5555 231.13 95.0611 232.762 93.6874 234.494V234.511C92.6534 235.799 91.4998 236.986 90.2421 238.058C89.4318 238.726 88.5707 239.33 87.6667 239.866C87.0895 239.21 86.6356 238.457 86.3268 237.64C86.2745 237.522 86.2056 237.356 86.1347 237.153C85.9471 236.609 85.8304 236.043 85.7873 235.468C85.7258 234.673 85.8727 234.781 85.874 233.55C85.8972 232.975 85.8562 232.4 85.7518 231.834C85.7324 231.747 85.6588 231.327 85.5257 230.861C85.4885 230.741 85.4594 230.619 85.4386 230.495C85.369 230.252 85.2821 229.974 85.1777 229.644C85.1254 229.487 85.0733 229.313 85.0037 229.122C84.9513 228.931 84.8817 228.722 84.7949 228.496C83.9421 226.097 85.0724 225.61 84.5512 223.002C83.8552 219.473 81.4886 218.864 81.9235 216.57C82.2195 215.075 83.3159 214.849 83.368 213.232C83.4028 211.963 82.7242 211.65 82.1674 209.894C81.3842 207.46 82.3239 206.991 81.6976 204.887C80.9503 202.453 79.5746 202.697 78.8265 200.367C77.9912 197.707 79.1041 195.29 78.5829 195.117C80.1585 194.385 81.8972 194.073 83.6293 194.213C86.0305 194.439 86.8833 195.517 88.2752 194.959C90.0328 194.247 89.9457 192.056 91.8251 191.604C92.7299 191.395 92.7993 191.881 93.8784 191.796C94.221 191.775 94.5569 191.692 94.8702 191.553C95.7241 191.086 96.49 190.474 97.1335 189.745C97.1508 189.727 97.1681 189.727 97.1681 189.71C97.7404 189.131 98.4853 188.752 99.2911 188.632C99.5218 188.601 99.7551 188.596 99.9871 188.615C100.136 188.631 100.282 188.666 100.422 188.719C100.435 188.721 100.448 188.727 100.457 188.736C100.561 188.771 100.666 188.806 100.788 188.84C101.197 188.998 101.64 189.052 102.075 188.997C103.429 188.763 104.666 188.084 105.59 187.067C109.365 191.743 112.239 197.078 114.065 202.801V202.731C114.532 202.355 114.963 201.936 115.352 201.479C115.474 209.077 115.601 216.68 115.735 224.289Z" fill="#F4D58C" stroke="#282724" stroke-width="0.25" stroke-miterlimit="10"/>
<path opacity="0.41" d="M115.735 224.289C113.781 225.761 111.584 226.879 109.244 227.592C107.838 227.621 106.438 227.796 105.068 228.113C104.637 228.367 104.139 228.482 103.641 228.444C102.987 228.161 102.295 227.974 101.587 227.887H101.553C100.987 227.962 100.436 228.12 99.9169 228.357C99.8996 228.374 99.8648 228.374 99.8473 228.392C99.6733 228.479 99.5167 228.565 99.36 228.652C99.3427 228.67 99.3427 228.687 99.3252 228.687C98.908 228.956 98.5176 229.265 98.1594 229.609C96.5555 231.13 95.0611 232.762 93.6874 234.494V234.511C92.6534 235.799 91.4998 236.986 90.2421 238.058C89.4318 238.726 88.5707 239.33 87.6667 239.866C87.0895 239.21 86.6356 238.457 86.3268 237.64C86.2745 237.522 86.2056 237.356 86.1347 237.153C85.9471 236.609 85.8304 236.043 85.7873 235.468C85.7258 234.673 85.8727 234.781 85.874 233.55C85.8972 232.975 85.8562 232.4 85.7518 231.834C85.7324 231.747 85.6588 231.327 85.5257 230.861C85.4885 230.741 85.4594 230.619 85.4386 230.495C85.369 230.252 85.2821 229.974 85.1777 229.644C85.1254 229.487 85.0733 229.313 85.0037 229.122C84.9513 228.931 84.8817 228.722 84.7949 228.496C83.9421 226.097 85.0724 225.61 84.5512 223.002C83.8552 219.473 81.4886 218.864 81.9235 216.57C82.2195 215.075 83.3159 214.849 83.368 213.232C83.4028 211.963 82.7242 211.65 82.1674 209.894C81.3842 207.46 82.3239 206.991 81.6976 204.887C80.9503 202.453 79.5746 202.697 78.8265 200.367C77.9912 197.707 79.1041 195.29 78.5829 195.117C80.1585 194.385 81.8972 194.073 83.6293 194.213C86.0305 194.439 86.8833 195.517 88.2752 194.959C90.0328 194.247 89.9457 192.056 91.8251 191.604C92.7299 191.395 92.7993 191.881 93.8784 191.796C94.221 191.775 94.5569 191.692 94.8702 191.553C95.7241 191.086 96.49 190.474 97.1335 189.745C97.1508 189.727 97.1681 189.727 97.1681 189.71C97.7404 189.131 98.4853 188.752 99.2911 188.632C99.5218 188.601 99.7551 188.596 99.9871 188.615C100.136 188.631 100.282 188.666 100.422 188.719C100.435 188.721 100.448 188.727 100.457 188.736C100.561 188.771 100.666 188.806 100.788 188.84C101.197 188.998 101.64 189.052 102.075 188.997C103.429 188.763 104.666 188.084 105.59 187.067C109.365 191.743 112.239 197.078 114.065 202.801V202.731C114.532 202.355 114.963 201.936 115.352 201.479C115.474 209.077 115.601 216.68 115.735 224.289Z" fill="#282724"/>
<path opacity="0.3" d="M115.735 224.289C113.782 225.761 111.585 226.879 109.244 227.592C107.838 227.621 106.438 227.796 105.068 228.113C104.637 228.367 104.139 228.482 103.641 228.444C102.987 228.161 102.295 227.974 101.588 227.887H101.553C100.987 227.962 100.436 228.12 99.917 228.357C99.8997 228.374 99.8649 228.374 99.8474 228.392C99.6613 228.424 99.4905 228.516 99.3602 228.652C99.3429 228.67 99.3429 228.687 99.3254 228.687C98.9082 228.956 98.5178 229.265 98.1596 229.609C96.5557 231.13 95.0613 232.762 93.6875 234.494C95.7376 228.407 96.9725 222.076 97.36 215.666C97.8707 207.546 97.0298 199.398 94.8717 191.553C95.5842 190.899 96.3404 190.295 97.1349 189.745C97.1522 189.727 97.1695 189.727 97.1695 189.71C97.7985 189.213 98.5202 188.847 99.2925 188.632C99.5232 188.601 99.7566 188.596 99.9886 188.615H100.039C100.171 188.631 100.3 188.666 100.421 188.719C100.435 188.721 100.447 188.727 100.456 188.736C100.561 188.771 100.665 188.806 100.787 188.84C101.197 188.998 101.639 189.052 102.075 188.997C103.429 188.763 104.666 188.084 105.589 187.067C109.364 191.743 112.238 197.078 114.064 202.801V202.731C114.531 202.355 114.962 201.936 115.351 201.479C115.474 209.077 115.602 216.68 115.735 224.289Z" fill="#282724"/>
</g>
<defs>
<clipPath id="clip0_2651_491294">
<rect width="463" height="469" fill="white"/>
</clipPath>
</defs>
</svg>
