<svg width="463" height="469" viewBox="0 0 463 469" fill="none" xmlns="http://www.w3.org/2000/svg">
<path d="M114.377 228.67C112.885 228.173 111.315 229.26 109.904 228.305C109.687 228.156 109.492 227.977 109.326 227.771C108.299 227.594 107.247 227.604 106.223 227.801C105.831 227.878 105.445 227.982 105.067 228.113C103.588 228.566 102.753 227.905 101.587 227.888H101.552C100.986 227.962 100.435 228.12 99.9162 228.357C99.5681 228.531 99.2351 228.734 98.9208 228.963C98.6541 229.163 98.3996 229.378 98.1588 229.609C97.0325 230.707 93.7734 235.906 91.0037 238.857C90.3031 239.601 89.5494 240.294 88.7483 240.93C86.0025 242.684 82.8804 243.765 79.6368 244.084C77.4277 244.268 76.0519 243.962 71.6981 244.354C70.4426 244.53 69.1767 244.62 67.909 244.625C65.5866 244.526 63.3168 243.902 61.2698 242.802C61.2698 242.802 65.9731 251.975 70.2748 260.47C70.6096 261.118 70.8447 261.813 70.9719 262.531C71.04 262.921 71.0751 263.317 71.0769 263.713C71.8847 264.077 72.7115 264.398 73.5537 264.674C73.5698 264.684 73.5876 264.69 73.606 264.692C76.8132 265.586 80.157 265.886 83.4724 265.578C83.4897 265.578 83.4897 265.596 83.5072 265.578C91.3602 264.664 99.2894 264.605 107.155 265.405C109.382 265.682 111.784 266.083 114.324 266.621C115.368 254.851 116.569 243.029 116.917 231.242C116.432 230.09 115.523 229.169 114.377 228.67Z" fill="black"/>
<path d="M114.377 228.67C112.885 228.173 111.315 229.26 109.904 228.305C109.687 228.156 109.492 227.977 109.326 227.771C107.901 227.521 106.435 227.64 105.067 228.113C103.588 228.566 102.753 227.905 101.587 227.888H101.552C100.986 227.962 100.435 228.12 99.9162 228.357C99.2688 228.68 98.6758 229.103 98.1588 229.609C94.4349 233.051 93.3557 235.501 90.2412 238.057C89.4309 238.725 88.5698 239.33 87.6658 239.865C80.9317 242.577 78.2171 242.838 77.0165 242.49C76.9294 242.473 75.9201 242.177 74.5628 241.864C73.7602 241.641 72.9392 241.49 72.1097 241.413C71.0026 241.359 70.6685 241.551 70.222 241.509C70.082 241.495 69.9444 241.463 69.8127 241.413C68.9691 241.142 66.5113 242.532 65.4854 242.93C64.1111 243.399 62.6131 243.353 61.2698 242.802C61.2698 242.802 65.9731 251.975 70.2748 260.47C70.6096 261.118 70.8447 261.813 70.9719 262.531C71.04 262.921 71.0751 263.317 71.0769 263.713C71.8847 264.077 72.7115 264.398 73.5537 264.674C73.5698 264.684 73.5876 264.69 73.606 264.692C76.8132 265.586 80.157 265.886 83.4724 265.578C83.4897 265.578 83.4897 265.596 83.5072 265.578C91.3602 264.664 99.2894 264.605 107.155 265.405C109.382 265.682 111.784 266.083 114.324 266.621C115.368 254.851 116.569 243.029 116.917 231.242C116.432 230.09 115.523 229.169 114.377 228.67Z" fill="black"/>
<path d="M181.544 293.516C181.165 293.768 180.77 293.995 180.361 294.194C178.041 295.288 175.513 295.869 172.948 295.898C169.451 296.141 165.97 296.611 162.49 297.01C162.403 297.028 162.316 297.028 162.213 297.045C161.151 297.132 160.072 297.254 158.993 297.375C153.736 297.764 148.506 298.466 143.333 299.479C133.084 301.6 133.571 303.217 128.524 303.078C127.196 303.041 125.874 302.884 124.574 302.608C124.54 302.591 124.522 302.591 124.487 302.574C121.042 301.827 118.78 300.574 113.716 301.166C110.931 301.293 108.231 302.17 105.903 303.704C102.353 306.26 102.145 309.337 100.196 309.424C99.2211 309.459 98.4554 308.729 96.7676 305.964C96.2456 305.165 95.7235 304.243 95.1842 303.287C94.7838 302.592 94.3314 301.809 93.8444 300.957C93.5833 300.523 93.3396 300.088 93.1135 299.688L93.0612 299.584C93.0437 299.549 93.0091 299.514 92.9916 299.48C90.8878 296.182 89.0492 292.723 87.4929 289.135C86.3444 284.233 87.4408 281.417 84.9521 279.191C83.5775 277.957 82.2029 277.922 80.95 275.991C79.8711 274.34 80.3583 273.523 79.1925 271.837C78.1885 270.525 76.8726 269.486 75.3642 268.812C74.5785 268.363 73.7435 268.007 72.8759 267.751C72.6498 267.682 72.441 267.629 72.214 267.577C71.3091 267.369 70.6654 267.212 70.6126 267.195C70.0385 267.073 68.368 266.064 63.5306 262.205C66.3146 262.327 67.1499 261.928 67.3066 261.457C67.6023 260.571 66.3321 259.563 65.1836 256.746C64.7982 255.749 64.5012 254.719 64.2962 253.669C64.2926 253.632 64.2807 253.597 64.2614 253.565C63.1399 249.615 61.6483 245.779 59.8066 242.108C60.1199 242.264 60.6071 242.508 61.2684 242.804C61.3555 242.838 61.4424 242.89 61.5459 242.925C61.5664 242.939 61.591 242.945 61.6155 242.942C70.4026 246.83 80.3363 247.252 89.4223 244.125C97.5578 241.091 104.365 235.294 108.65 227.748C110.062 225.36 111.233 222.839 112.148 220.22C114.064 214.626 114.718 208.677 114.062 202.8V202.731C114.461 202.407 114.839 202.059 115.194 201.688C115.398 201.479 115.59 201.258 115.768 201.026C116.08 200.636 116.354 200.217 116.586 199.775C116.683 199.612 116.77 199.444 116.847 199.271C116.959 199.015 117.057 198.754 117.143 198.488C117.856 196.35 117.369 194.629 118.378 194.09C119.44 193.516 120.536 195.168 122.032 194.577C123.285 194.09 123.39 192.612 124.608 192.508C125.355 192.438 125.669 192.977 126.191 192.751C127.009 192.386 126.679 190.908 127.287 190.682C128.14 190.351 129.497 193.028 130.35 192.751C130.663 192.647 130.942 192.143 130.942 190.561C131.011 190.734 131.081 190.908 131.134 191.065C131.429 191.811 131.83 192.803 132.3 193.968C133.03 195.706 133.744 197.288 134.423 198.731C136.545 203.252 138.338 206.311 139.26 208.032C142.984 214.763 145.009 222.3 145.159 229.989C145.141 230.389 145.054 231.467 144.863 233.274C144.776 234.074 144.672 235.013 144.55 236.09C144.202 239.115 143.749 243.288 143.123 248.695C142.549 253.597 142.323 255.527 143.523 257.631C145.542 261.177 150.031 262.464 156.957 264.341C157.566 264.515 158.244 264.689 159.637 265.002C160.014 265.549 160.268 266.171 160.382 266.825C160.497 267.479 160.468 268.15 160.298 268.793C159.989 269.51 159.518 270.146 158.924 270.653C158.641 270.916 158.332 271.149 158.001 271.348C157.254 271.8 156.731 271.904 156.488 272.513C156.157 273.347 156.957 273.678 156.818 274.774C156.662 275.99 155.513 276.895 153.79 278.251C152.938 278.929 152.642 279.034 152.364 279.538C152.164 279.999 152.061 280.496 152.061 280.998C152.061 281.5 152.164 281.997 152.364 282.458C152.601 282.975 152.939 283.438 153.357 283.823C153.775 284.208 154.265 284.507 154.8 284.701C156.122 285.118 156.975 284.458 157.949 285.188C158.349 285.501 158.315 285.692 158.837 286.074C159.395 286.481 160.048 286.738 160.733 286.821C166.371 287.777 166.65 288.125 168.86 288.021C170.565 287.933 170.774 287.69 173.61 287.516C174.792 287.385 175.986 287.415 177.16 287.603C177.49 287.69 177.682 287.829 177.752 288.021C177.944 288.594 176.76 289.307 177.021 289.794C177.264 290.246 178.378 289.707 179.213 290.385C179.28 290.434 179.338 290.492 179.387 290.559C179.718 290.941 179.596 291.305 180.101 291.724C180.162 291.782 180.232 291.829 180.309 291.863L180.414 291.915C180.456 291.935 180.497 291.958 180.536 291.984C180.553 291.984 180.553 292.002 180.57 292.002C180.918 292.035 181.261 292.099 181.597 292.194C181.99 292.304 182.065 292.369 182.102 292.437C182.291 292.792 181.591 293.471 181.544 293.516Z" fill="black"/>
<path d="M160.298 268.794C159.988 269.512 159.518 270.148 158.923 270.655C158.64 270.918 158.331 271.151 158.001 271.35C144.985 270.95 140.895 270.063 137.973 266.586C132.161 259.685 137.347 250.088 138.147 232.581C138.697 219.455 136.712 206.345 132.3 193.969C133.031 195.708 133.744 197.29 134.423 198.732C136.545 203.253 138.338 206.313 139.26 208.033C142.985 214.764 145.009 222.301 145.159 229.99C145.142 230.39 145.055 231.468 144.863 233.276C144.776 234.075 144.672 235.014 144.55 236.091C144.202 239.116 143.75 243.289 143.123 248.696C142.549 253.598 142.323 255.528 143.523 257.632C145.542 261.178 150.031 262.465 156.957 264.342C157.566 264.516 158.245 264.69 159.637 265.004C160.014 265.55 160.268 266.172 160.382 266.827C160.496 267.481 160.467 268.152 160.298 268.794Z" fill="black"/>
<path d="M181.544 293.516C181.165 293.768 180.77 293.995 180.361 294.194C178.041 295.288 175.513 295.869 172.948 295.898C169.451 296.141 165.97 296.611 162.49 297.01C162.403 297.028 162.316 297.028 162.213 297.045C161.151 297.132 160.072 297.254 158.993 297.375C153.736 297.764 148.506 298.466 143.333 299.479C133.084 301.6 133.571 303.217 128.524 303.078C127.196 303.041 125.874 302.884 124.574 302.608C124.54 302.591 124.522 302.591 124.487 302.574C121.268 301.496 117.596 299.549 112.62 300.401C109.28 300.817 106.153 302.263 103.676 304.539C101.518 306.642 101.344 308.277 100.003 308.433C98.8548 308.572 97.8117 307.529 96.7676 305.964C96.2456 305.165 95.7235 304.243 95.1842 303.287C94.5223 302.105 93.8434 300.853 93.1121 299.688L93.0598 299.584C93.0423 299.549 93.0077 299.515 92.9902 299.48C90.8865 296.182 89.0478 292.723 87.4916 289.136C86.3431 284.233 87.4395 281.417 84.9507 279.191C83.5761 277.957 82.2015 277.922 80.9486 275.992C79.8697 274.34 80.357 273.523 79.1912 271.837C78.1871 270.526 76.8712 269.486 75.3628 268.812C74.5772 268.363 73.7422 268.008 72.8745 267.751C72.6484 267.682 72.4396 267.629 72.2126 267.577C71.3078 267.369 70.664 267.212 70.6113 267.195C70.0371 267.073 68.3666 266.064 63.5292 262.205C66.3132 262.327 67.1485 261.928 67.3052 261.458C67.6009 260.571 66.3307 259.563 65.1822 256.747C64.7968 255.749 64.4999 254.719 64.2949 253.669C64.2912 253.632 64.2793 253.597 64.2601 253.565C66.2187 255.049 68.3302 256.319 70.5588 257.355C82.3565 262.814 86.8982 259.98 90.9875 264.17C95.9468 269.247 90.9354 275.8 96.26 281.363C98.6787 283.884 102.542 284.545 110.181 285.745C120.987 287.448 122.675 286.075 133.046 287.535C146.775 289.482 150.482 291.899 165.829 289.813C169.65 289.328 173.434 288.59 177.157 287.605C177.488 287.692 177.68 287.831 177.749 288.022C177.941 288.596 176.757 289.309 177.018 289.795C177.262 290.247 178.376 289.708 179.211 290.386C179.277 290.435 179.336 290.494 179.385 290.56C179.715 290.943 179.593 291.307 180.098 291.725C180.159 291.783 180.23 291.83 180.307 291.864L180.411 291.916L180.466 291.945L180.484 291.955C180.534 291.983 181.907 292.131 182.099 292.438C182.184 292.571 182.124 292.858 181.544 293.516Z" fill="black"/>
<path d="M94.7483 249.949C84.9693 252.852 74.2508 249.202 74.2846 248.089C74.3194 246.994 84.9176 249.097 94.7483 244.368C107.764 238.127 117.265 221.003 115.96 206.278C115.822 204.73 115.566 203.196 115.194 201.688C116.081 200.785 116.748 199.691 117.143 198.489C117.857 196.351 117.369 194.629 118.378 194.09C119.302 196.309 120.002 198.616 120.467 200.975C124.556 221.594 111.262 245.046 94.7483 249.949Z" fill="black"/>
</svg>
