<svg width="463" height="469" viewBox="0 0 463 469" fill="none" xmlns="http://www.w3.org/2000/svg">
<g clip-path="url(#clip0_2651_491295)">
<path d="M86.3257 237.641C86.2437 237.486 86.1793 237.323 86.1336 237.154C86.0812 236.997 86.0467 236.858 86.0119 236.719C85.9164 236.413 85.8465 236.099 85.803 235.781C85.7238 235.103 85.7473 234.417 85.8726 233.746C85.9445 233.107 85.9032 232.46 85.7507 231.834C85.6811 231.469 85.6115 231.173 85.5246 230.861C85.4874 230.741 85.4583 230.619 85.4375 230.495C85.3679 230.252 85.281 229.974 85.1766 229.644C85.1243 229.487 85.0722 229.313 85.0026 229.122C84.9502 228.931 84.8806 228.722 84.7937 228.496C83.941 226.097 85.0713 225.61 84.5501 223.003C83.8541 219.473 81.4875 218.864 81.9224 216.57C82.2183 215.075 83.3147 214.849 83.3668 213.232C83.4016 211.963 82.7231 211.65 82.1662 209.894C81.3831 207.46 82.3227 206.991 81.6965 204.887C80.9492 202.453 79.5735 202.697 78.8254 200.367C77.9901 197.707 79.1029 195.29 78.5817 195.117C78.1641 194.978 77.7813 196.682 76.1978 197.499C75.5173 197.784 74.7867 197.93 74.0488 197.93C73.3109 197.93 72.5804 197.784 71.8998 197.499C69.0814 196.49 68.6971 194.195 67.3756 194.404C65.7224 194.665 65.8268 198.368 63.7909 198.924C62.2771 199.341 61.3722 197.533 60.102 197.533C59.8442 197.537 59.5921 197.609 59.3711 197.742C59.2863 197.782 59.2049 197.828 59.1275 197.881C52.4629 201.88 52.9328 213.528 53.4721 226.375C53.4721 226.462 53.5069 226.966 53.5941 227.731C53.6114 227.94 53.6462 228.148 53.6635 228.375C53.8374 229.75 54.0931 231.115 54.4291 232.46C54.4641 232.564 54.4814 232.669 54.5162 232.79C55.07 235.033 55.9247 237.191 57.0571 239.205C57.6984 240.401 58.6475 241.403 59.8063 242.109C62.051 243.43 65.4269 243.656 66.7146 242.144C67.0345 241.714 67.276 241.231 67.4279 240.718C67.4681 240.594 67.5268 240.477 67.6019 240.37C67.6329 240.316 67.6744 240.269 67.7239 240.231C67.7771 240.198 67.836 240.174 67.8977 240.162C68.472 240.057 68.6808 241.031 69.8118 241.413C70.5427 241.674 70.6994 241.344 72.1088 241.413C72.9385 241.49 73.7596 241.642 74.5623 241.865C75.9196 242.178 76.9289 242.474 77.016 242.491C78.2166 242.839 80.9313 242.578 87.6653 239.866C87.1167 239.191 86.6658 238.441 86.3257 237.641Z" fill="#F4D58C" stroke="#282724" stroke-width="0.25" stroke-miterlimit="10"/>
<path opacity="0.3" d="M86.3259 237.641C86.2439 237.486 86.1795 237.323 86.1338 237.154C86.0815 236.997 86.0469 236.858 86.0121 236.719C85.9166 236.413 85.8467 236.099 85.8032 235.781C85.724 235.103 85.7475 234.417 85.8729 233.746C85.9447 233.107 85.9034 232.459 85.7509 231.834C85.6813 231.469 85.6117 231.173 85.5248 230.861C85.4876 230.741 85.4585 230.619 85.4377 230.495C85.3681 230.252 85.2812 229.974 85.1768 229.644C85.1245 229.487 85.0724 229.313 85.0028 229.122C84.9504 228.931 84.8808 228.722 84.794 228.496C83.9412 226.097 85.0715 225.61 84.5503 223.003C83.8543 219.473 81.4877 218.864 81.9226 216.57C82.2185 215.075 83.3149 214.849 83.367 213.232C83.4018 211.963 82.7233 211.65 82.1664 209.894C81.3833 207.46 82.3229 206.991 81.6967 204.887C80.9494 202.453 79.5737 202.697 78.8256 200.367C77.9903 197.707 79.1031 195.29 78.582 195.117C78.1643 194.978 77.7815 196.682 76.1981 197.499C75.5175 197.784 74.7869 197.93 74.049 197.93C73.3111 197.93 72.5806 197.784 71.9 197.499C69.0816 196.49 68.6973 194.195 67.3758 194.404C65.7226 194.665 65.827 198.368 63.7911 198.924C63.6962 198.944 63.5997 198.954 63.5029 198.956C59.1252 212.542 57.4153 226.845 58.4671 241.078C59.1554 241.746 59.9706 242.27 60.8647 242.619C62.6168 243.294 65.4602 243.57 66.715 242.143C67.4491 241.309 67.3818 240.255 67.8981 240.162C68.4724 240.057 68.6813 241.031 69.8122 241.413C70.5431 241.674 70.6998 241.344 72.1092 241.413C72.939 241.49 73.7601 241.642 74.5627 241.865C75.9201 242.178 76.9293 242.474 77.0165 242.491C78.2171 242.839 80.9317 242.578 87.6657 239.866C87.117 239.191 86.666 238.441 86.3259 237.641Z" fill="#282724"/>
</g>
<defs>
<clipPath id="clip0_2651_491295">
<rect width="463" height="469" fill="white"/>
</clipPath>
</defs>
</svg>
