<svg width="463" height="469" viewBox="0 0 463 469" fill="none" xmlns="http://www.w3.org/2000/svg">
<g clip-path="url(#clip0_2651_491288)">
<path d="M450.11 270.602C438.016 306.763 425.192 314.205 420.789 316.359C414.867 318.728 409.152 321.583 403.702 324.895C391.886 332.44 391.086 336.908 382.316 343.202C367.473 353.876 350.855 354.606 345.06 354.798C337.426 355.418 329.742 354.641 322.387 352.503L322.439 352.451C323.448 351.529 324.51 350.521 325.606 349.408C326.308 348.922 327.04 348.48 327.799 348.087C331.912 346.11 336.33 344.841 340.866 344.332C345.39 343.637 347.896 343.029 352.925 341.812C354.529 341.524 356.002 340.739 357.136 339.569C358.054 338.29 358.694 336.833 359.015 335.292C359.986 332.886 361.318 330.641 362.965 328.634C365.61 325.487 366.671 326.408 368.428 323.662C369.419 321.668 370.279 319.612 371.004 317.507C372.518 313.631 372.431 313.753 372.553 313.578C374.676 310.536 377.86 311.805 382.993 308.624C384.142 307.911 387.918 305.564 387.605 303.147C387.431 301.739 386.004 301.235 386.248 300.417C386.718 298.8 392.46 300.087 393.435 298.018C393.609 297.653 393.574 297.288 393.261 296.54C393.557 296.596 393.861 296.586 394.153 296.511C394.445 296.436 394.716 296.297 394.948 296.105C395.61 295.428 395.035 294.367 395.192 293.202C395.523 290.472 399.734 287.987 401.526 288.926C402.518 289.464 402.065 290.681 402.988 291.22C405.006 292.437 409.913 288.143 412.454 285.414C414.907 282.806 414.472 282.371 416.926 280.059C419.467 277.66 420.789 277.312 421.137 275.678C421.642 273.314 419.24 272.306 419.797 269.959C420.249 267.994 422.042 268.255 423.451 265.491C424.583 263.283 424.217 261.562 425.156 261.301C426.235 260.988 427.193 263.178 428.202 262.901C429.768 262.483 429.298 256.625 429.977 256.555C430.551 256.52 431.247 260.554 431.856 260.501C432.412 260.449 431.942 257.146 433.3 256.468C434.918 255.651 437.563 259.476 438.92 258.798C440.678 257.911 438.52 250.47 439.112 250.314C439.6 250.175 441.288 255.564 442.053 255.408C442.715 255.269 441.861 251.218 443.48 246.107C443.863 244.942 444.577 242.7 445.464 242.717C446.856 242.752 447.796 248.437 448.057 248.437C448.37 248.367 446.073 239.049 448.057 238.162C448.979 237.727 450.197 239.518 451.085 239.049C452.755 238.179 450.319 231.052 451.537 230.565C452.181 230.304 453.329 232.147 453.764 231.904C454.547 231.469 451.502 225.402 452.616 224.672C453.207 224.272 454.599 225.68 455.017 225.298C455.469 224.898 453.956 223.506 454.043 221.629C454.164 219.212 456.827 218.638 456.722 216.622C456.635 214.762 454.304 214.292 454.495 212.78C454.669 211.232 457.157 211.285 457.888 209.216C458.445 207.634 457.226 207.008 457.714 205.287C458.341 203.061 460.638 203.131 460.934 201.34C461.281 199.219 458.323 197.272 459.055 196.16C459.211 195.934 459.35 196.003 459.855 195.621C460.534 195.049 461.055 194.313 461.369 193.482C461.651 192.801 461.895 192.104 462.1 191.396H462.117C462.183 191.349 462.253 191.308 462.326 191.274C462.76 218.216 458.63 245.037 450.11 270.602Z" fill="#F4D58C" stroke="#282724" stroke-width="0.25" stroke-miterlimit="10"/>
<path opacity="0.3" d="M450.11 270.602C438.016 306.763 425.192 314.205 420.789 316.359C414.867 318.728 409.152 321.583 403.702 324.895C391.886 332.44 391.086 336.908 382.316 343.202C367.473 353.876 350.855 354.606 345.06 354.798C337.426 355.418 329.742 354.641 322.387 352.503L322.439 352.451C323.448 351.529 324.51 350.521 325.606 349.408C326.308 348.922 327.04 348.48 327.799 348.087C331.912 346.11 336.33 344.841 340.866 344.332C345.39 343.637 347.896 343.029 352.925 341.812C354.529 341.524 356.002 340.739 357.136 339.569C358.054 338.29 358.694 336.833 359.015 335.292L359.084 335.136C359.594 333.883 360.205 332.674 360.911 331.52L360.929 331.485C361.033 331.311 361.138 331.137 361.259 330.946C361.776 330.139 362.346 329.366 362.965 328.634C363.086 328.477 363.208 328.356 363.313 328.217C363.469 328.043 363.643 327.869 363.817 327.695C363.974 327.539 364.148 327.382 364.304 327.243C365.575 326.113 366.427 325.922 367.35 325C367.367 324.983 367.385 324.966 367.402 324.966C367.792 324.571 368.136 324.133 368.428 323.662C369.419 321.668 370.279 319.612 371.004 317.507C372.518 313.631 372.431 313.753 372.553 313.578C374.676 310.536 377.86 311.805 382.993 308.624C384.142 307.911 387.918 305.564 387.605 303.147C387.431 301.739 386.004 301.235 386.248 300.417C386.718 298.8 392.46 300.087 393.435 298.018C393.609 297.653 393.574 297.288 393.261 296.54C393.557 296.596 393.861 296.586 394.153 296.511C394.445 296.436 394.716 296.297 394.948 296.105C395.61 295.428 395.035 294.367 395.192 293.202C395.523 290.472 399.734 287.987 401.526 288.926C402.518 289.464 402.065 290.681 402.988 291.22C405.006 292.437 409.913 288.143 412.454 285.414C414.907 282.806 414.472 282.371 416.926 280.059C419.467 277.66 420.789 277.312 421.137 275.678C421.642 273.314 419.24 272.306 419.797 269.959C420.249 267.994 422.042 268.255 423.451 265.491C424.583 263.283 424.217 261.562 425.156 261.301C426.235 260.988 427.193 263.178 428.202 262.901C429.768 262.483 429.298 256.625 429.977 256.555C430.551 256.52 431.247 260.554 431.856 260.501C432.412 260.449 431.942 257.146 433.3 256.468C434.918 255.651 437.563 259.476 438.92 258.798C440.678 257.911 438.52 250.47 439.112 250.314C439.6 250.175 441.288 255.564 442.053 255.408C442.715 255.269 441.861 251.218 443.48 246.107C443.863 244.942 444.577 242.7 445.464 242.717C445.76 242.717 446.038 242.994 446.282 243.412C446.965 245.053 447.558 246.731 448.057 248.437C448.37 248.367 446.073 239.049 448.057 238.162C448.979 237.727 450.197 239.518 451.085 239.049C452.755 238.179 450.319 231.052 451.537 230.565C452.181 230.304 453.329 232.147 453.764 231.904C454.547 231.469 451.502 225.402 452.616 224.672C453.207 224.272 454.599 225.68 455.017 225.298C455.469 224.898 453.956 223.506 454.043 221.629C454.164 219.212 456.827 218.638 456.722 216.622C456.635 214.762 454.304 214.292 454.495 212.78C454.669 211.232 457.157 211.285 457.888 209.216C458.445 207.634 457.226 207.008 457.714 205.287C458.341 203.061 460.638 203.131 460.934 201.34C461.281 199.219 458.323 197.272 459.055 196.16C459.211 195.934 459.35 196.003 459.855 195.621C460.534 195.049 461.055 194.313 461.369 193.482C461.651 192.801 461.895 192.104 462.1 191.396H462.117C462.183 191.349 462.253 191.308 462.326 191.274C462.76 218.216 458.63 245.037 450.11 270.602Z" fill="#282724"/>
<path opacity="0.1" d="M450.11 270.602C438.016 306.763 425.192 314.205 420.789 316.359C414.867 318.728 409.152 321.583 403.702 324.895C391.886 332.441 391.086 336.908 382.316 343.202C367.473 353.876 350.855 354.607 345.06 354.798C337.426 355.419 329.742 354.641 322.387 352.503L322.439 352.451C323.448 351.529 324.51 350.521 325.606 349.408C326.308 348.922 327.04 348.48 327.799 348.087C331.912 346.111 336.33 344.841 340.866 344.333C345.39 343.637 347.896 343.029 352.925 341.812C354.529 341.524 356.002 340.74 357.136 339.569C358.054 338.29 358.694 336.834 359.015 335.293L359.084 335.136L360.911 331.52L360.929 331.485C361.033 331.311 361.138 331.138 361.259 330.946C361.738 330.168 362.28 329.43 362.878 328.738C362.913 328.704 362.93 328.669 362.965 328.634C363.086 328.478 363.208 328.357 363.313 328.217C363.469 328.043 363.643 327.869 363.817 327.695C363.974 327.539 364.148 327.382 364.304 327.243C365.231 326.383 366.253 325.631 367.35 325.001C367.367 324.983 367.385 324.966 367.402 324.966C373.196 321.558 376.416 317.108 381.444 314.813C387.691 308.502 399.037 315.161 413.741 308.45C420.263 304.934 425.949 300.054 430.411 294.142C443.061 278.287 445.567 260.137 446.28 243.412C446.964 245.053 447.557 246.731 448.055 248.437C448.369 248.367 446.072 239.049 448.055 238.162C448.978 237.727 450.196 239.518 451.083 239.049C452.754 238.179 450.318 231.052 451.536 230.565C452.179 230.304 453.328 232.147 453.763 231.904C454.546 231.469 451.501 225.402 452.615 224.672C453.206 224.272 454.598 225.68 455.016 225.298C455.468 224.898 453.954 223.506 454.041 221.629C454.163 219.212 456.825 218.638 456.721 216.622C456.634 214.762 454.302 214.292 454.494 212.78C454.668 211.232 457.156 211.285 457.887 209.216C458.444 207.634 457.225 207.008 457.713 205.287C458.339 203.061 460.636 203.131 460.932 201.34C461.28 199.219 458.322 197.272 459.053 196.16C459.21 195.934 459.349 196.003 459.854 195.621C460.533 195.049 461.054 194.313 461.368 193.482C461.65 192.801 461.894 192.104 462.098 191.396H462.116C462.181 191.349 462.251 191.308 462.325 191.274C462.759 218.216 458.629 245.037 450.11 270.602Z" fill="#282724"/>
</g>
<defs>
<clipPath id="clip0_2651_491288">
<rect width="463" height="469" fill="white"/>
</clipPath>
</defs>
</svg>
