<svg width="1112" height="482" viewBox="0 0 1112 482" fill="none" xmlns="http://www.w3.org/2000/svg">
<path d="M709.888 321.489L709.889 321.489C749.936 287.73 784.779 253.247 804.934 219.468C825.137 185.609 830.857 151.913 811.525 120.448C793.141 90.5263 772.286 72.613 749.136 63.1617C726.029 53.7277 700.954 52.8561 674.355 56.4362C647.786 60.0121 619.449 68.069 589.783 76.6834C588.391 77.0877 586.996 77.4932 585.597 77.8996C557.127 86.1746 527.392 94.8173 496.457 100.586C435.131 112.023 388.432 123.159 358.043 149.171C327.34 175.452 313.802 216.357 317.039 285.638C319.475 337.755 337.8 372.753 366.225 394.019C394.548 415.208 432.418 422.399 473.296 419.975C554.998 415.132 650.18 371.809 709.888 321.489Z" fill="#FDF7C4" stroke="#B7691C" stroke-width="5.92774"/>
<path opacity="0.5" d="M730.928 245.043C746.388 229.002 762.928 208.646 765.6 177.468C766.789 163.521 764.397 146.442 755.743 131.888C747.489 118.054 735.543 110.13 725.085 104.921C711.877 98.3316 698.616 95.2344 685.922 93.1378C668.946 90.3253 652.562 90.511 636.758 92.4018C605.651 96.1134 576.544 106.427 547.849 116.872C519.35 127.26 481.317 137.159 459.684 165.802C430.456 204.501 433.889 243.592 451.626 288.728C474.005 345.677 519.898 347.605 577.078 338.089C596.543 334.844 614.91 328.066 632.329 319.227C644.035 313.292 655.305 306.404 666.197 299.013C688.994 283.552 710.977 265.72 730.928 245.043Z" fill="#FFFFC7"/>
</svg>
