<svg width="1112" height="482" viewBox="0 0 1112 482" fill="none" xmlns="http://www.w3.org/2000/svg">
<path d="M331.149 217.628L331.148 217.629C239.588 299.257 179.817 337.771 142.788 354.73C141.031 355.534 139.301 356.323 137.598 357.098C121.39 364.483 107.748 370.699 98.7347 378.351C93.6589 382.66 89.8766 387.552 87.8896 393.525C85.9041 399.494 85.8051 406.259 87.6108 414.16C88.7461 419.129 90.7796 423.117 93.6564 426.121C96.5404 429.134 100.127 431.006 104.12 431.961C111.982 433.842 121.508 432.196 131.134 428.789C150.47 421.946 171.919 407.371 185.275 394.792C198.156 382.66 218.245 369.25 237.439 362.581C247.036 359.246 256.186 357.676 263.994 358.617C271.694 359.545 278.075 362.9 282.519 369.551C286.685 375.785 287.922 381.443 287.255 386.534C286.582 391.675 283.92 396.599 279.638 401.215C271.011 410.515 256.338 417.987 241.128 422.667C230.011 426.088 215.66 428.394 200.629 430.458C196.771 430.987 192.868 431.501 188.971 432.014C177.792 433.486 166.67 434.95 156.841 436.761C150.197 437.984 144.05 439.382 138.789 441.078C133.566 442.762 129.009 444.805 125.698 447.418C122.329 450.077 120.034 453.519 119.984 457.852C119.935 462.031 121.993 466.368 125.712 470.884C128.703 474.517 133.055 476.555 138.088 477.573C143.109 478.589 149.054 478.644 155.595 478.111C168.301 477.077 183.955 473.754 200.701 470.199L202.115 469.899C213.24 467.539 223.805 464.169 235.72 460.369C242.521 458.2 249.761 455.89 257.797 453.548C280.089 447.051 309.132 440.08 353.367 434.561C362.746 433.391 372.84 432.284 383.747 431.255C498.201 420.458 607.382 395.622 759.065 311.886L757.633 309.291L759.065 311.886C834.872 270.029 893.17 228.786 941.068 194.503C943.056 193.08 945.025 191.67 946.976 190.272C992.161 157.914 1027.75 132.43 1060.39 118.951C1077.9 111.725 1090.18 103.131 1097.55 94.1792C1104.94 85.1986 1107.53 75.6569 1105.02 66.9494C1102.54 58.3043 1095.26 51.2613 1084.59 46.7274C1073.91 42.1865 1059.56 40.0276 1042.25 41.223C974.273 45.9173 847.434 57.5711 757.556 69.6725C753.303 70.2451 749.06 70.8143 744.828 71.3822C591.017 92.0191 450.991 110.807 331.149 217.628Z" fill="#FDF7C4" stroke="#B7691C" stroke-width="5.92774"/>
<path opacity="0.5" d="M1042.46 44.1798C974.524 48.871 847.75 60.5192 757.951 72.6099C733.06 75.9557 703.144 80.3459 672.061 85.3557C684.958 83.7979 697.837 82.2931 710.716 80.8238C761.472 75.0351 812.298 69.7598 863.371 67.8657C889.837 66.892 916.356 66.7858 942.786 68.68C952.799 69.4058 962.865 70.2024 972.702 72.2913C980.503 73.9553 989.066 76.1681 995.487 81.1956C1011.07 93.4103 998.353 112.263 987.986 123.38C973.268 139.189 957.593 160.078 938.876 170.522C918.886 181.692 773.979 277.71 751.299 292.722C728.513 307.804 696.298 317.877 672.345 330.995C624.084 357.442 574.814 382.491 523.298 401.999C514.594 405.292 505.82 408.389 497.01 411.328C574.407 394.652 656.529 365.107 757.633 309.291C908.926 225.754 990.357 144.659 1059.26 116.211C1128.17 87.7632 1110.39 39.4887 1042.46 44.1798Z" fill="#FBF0C1"/>
<g opacity="0.5">
<path d="M215.971 455.867C219.36 453.165 218.737 450.194 214.591 448.503C200.744 442.842 132.552 443.13 135.442 458.629C137.804 471.318 156.948 469.884 166.383 468.985C180.065 467.673 204.513 464.967 215.971 455.867Z" fill="#FFFFC7"/>
<path d="M763.648 264.982C793.881 245.58 827.282 221.363 841.895 187.251C848.423 171.991 850.209 153.811 841.063 139.189C832.324 125.292 815.677 118.282 800.533 114.016C781.409 108.616 761.047 107.006 741.269 106.404C714.821 105.589 688.337 107.944 662.225 112.068C610.833 120.176 560.485 135.17 510.756 150.253C461.362 165.247 411.509 183.338 369.193 213.592C349.921 227.367 332.021 242.868 314.124 258.367C292.509 277.085 270.898 295.8 246.877 311.469C223.702 326.586 199.466 340.058 175.07 353.069C169.366 356.122 163.402 358.659 157.438 361.196C153.339 362.939 149.239 364.683 145.225 366.594C136.291 370.842 126.738 375.693 120.529 383.659C116.194 389.2 112.674 397.414 117.273 403.787C121.749 409.965 131.196 410.036 137.813 408.407C146.269 406.336 153.823 400.884 160.545 395.591C166.184 391.139 171.472 386.263 176.748 381.398C178.374 379.898 179.999 378.399 181.633 376.914C199.483 360.699 222.517 347.652 245.816 341.315C257.244 338.199 269.363 337.261 280.932 340.164C287.549 341.828 293.528 344.944 298.783 348.998C302.002 354.167 304.161 360.009 306.248 366.027L306.253 366.041C309.33 374.87 312.603 384.264 320.189 390.262C326.239 395.042 334.377 396.511 341.842 397.113C351.254 397.892 360.701 397.432 370.13 396.971C374.96 396.736 379.79 396.559 384.62 396.383C391.059 396.147 397.498 395.912 403.938 395.537C431.058 393.962 458.072 390.952 484.785 385.96C517.248 379.888 549.109 370.134 580.122 358.274C600.962 350.308 621.412 341.368 641.421 331.933C683.295 312.194 724.639 289.996 763.648 264.982Z" fill="#FFFFC7"/>
</g>
</svg>
