<svg width="1112" height="482" viewBox="0 0 1112 482" fill="none" xmlns="http://www.w3.org/2000/svg">
<path d="M331.148 217.628L331.089 217.681L331.033 217.737C281.792 266.575 222.923 295.922 175.108 319.76C173.82 320.402 172.54 321.04 171.268 321.674C147.129 333.717 125.845 344.505 110.619 355.844C95.4183 367.165 85.5361 379.564 85.5361 395C85.5361 432.942 98.5066 455.396 120.182 466.841C141.484 478.089 170.489 478.282 201.689 473.672C232.586 469.106 266.273 459.719 297.862 450.917L299.106 450.571C331.196 441.629 360.917 433.409 383.747 431.255C498.2 420.458 607.381 395.622 759.065 311.886L757.633 309.291L759.065 311.886C834.871 270.029 893.169 228.786 941.067 194.503C943.055 193.08 945.024 191.67 946.975 190.273C992.159 157.914 1027.74 132.43 1060.39 118.951C1077.89 111.725 1090.17 103.131 1097.55 94.1792C1104.94 85.1986 1107.53 75.6569 1105.02 66.9494C1102.54 58.3043 1095.26 51.2613 1084.59 46.7274C1073.9 42.1865 1059.56 40.0276 1042.25 41.223C974.272 45.9173 847.434 57.5711 757.556 69.6725C712.607 75.7233 651.252 85.1664 596.253 95.4916C568.755 100.654 542.817 106.042 521.3 111.342C500.111 116.562 482.974 121.752 472.88 126.638C472.806 126.653 472.722 126.671 472.629 126.692C472.208 126.783 471.598 126.926 470.8 127.134C469.204 127.55 466.856 128.23 463.769 129.299C457.595 131.437 448.467 135.132 436.484 141.385C412.519 153.892 377.142 176.632 331.148 217.628Z" fill="#FDF7C4" stroke="#B7691C" stroke-width="5.92774"/>
<path opacity="0.5" d="M1042.46 44.1798C974.524 48.871 847.75 60.5192 757.951 72.6099C733.06 75.9557 703.144 80.3459 672.061 85.3557C684.958 83.7979 697.837 82.2931 710.716 80.8238C761.472 75.0351 812.298 69.7598 863.371 67.8657C889.837 66.892 916.356 66.7858 942.786 68.68C952.799 69.4058 962.865 70.2024 972.702 72.2913C980.503 73.9553 989.066 76.1681 995.487 81.1956C1011.07 93.4103 998.353 112.263 987.986 123.38C973.268 139.189 957.593 160.078 938.876 170.522C918.886 181.692 773.979 277.71 751.299 292.722C728.513 307.804 696.298 317.877 672.345 330.995C624.084 357.442 574.814 382.491 523.298 401.999C514.594 405.292 505.82 408.389 497.01 411.328C574.407 394.652 656.529 365.107 757.633 309.291C908.926 225.754 990.357 144.659 1059.26 116.211C1128.17 87.7632 1110.39 39.4887 1042.46 44.1798Z" fill="#FBF0C1"/>
<g opacity="0.5">
<path d="M215.971 453.283C217.103 452.38 217.811 451.548 218.165 450.804C219.209 448.627 217.369 447.051 214.591 445.918C206.154 442.469 197.223 442.903 188.335 443.334C186.321 443.432 184.309 443.529 182.305 443.582C181.035 443.612 178.95 443.512 176.346 443.388C162.189 442.711 132.692 441.302 135.442 456.044C136.786 463.267 145.349 465.993 151.7 466.719C156.53 467.285 161.554 466.86 166.383 466.4C175.247 465.55 184.021 464.028 192.654 461.798C193.851 461.489 195.102 461.187 196.387 460.877C203.137 459.248 210.784 457.402 215.971 453.283Z" fill="#FFFFC7"/>
<path d="M763.648 264.982C793.881 245.58 827.282 221.363 841.895 187.251C848.423 171.991 850.209 153.811 841.063 139.189C832.324 125.292 815.677 118.282 800.533 114.016C781.409 108.616 761.047 107.006 741.268 106.404C714.82 105.589 688.337 107.944 662.225 112.068C610.833 120.176 560.485 135.17 510.755 150.253C461.362 165.247 411.509 183.338 369.192 213.592C349.921 227.367 332.021 242.868 314.124 258.367C292.509 277.085 270.897 295.8 246.877 311.469C223.702 326.586 199.465 340.058 175.07 353.069C169.366 356.122 163.402 358.659 157.438 361.196C153.339 362.939 149.239 364.683 145.225 366.594C136.291 370.842 126.738 375.693 120.528 383.659C116.194 389.2 112.674 397.414 117.273 403.787C121.749 409.965 131.196 410.036 137.812 408.407C146.269 406.336 153.823 400.884 160.545 395.591C166.184 391.139 171.472 386.263 176.748 381.398C178.374 379.898 179.999 378.399 181.633 376.914C199.483 360.699 222.517 347.652 245.816 341.315C257.244 338.199 269.362 337.261 280.932 340.164C287.549 341.828 293.528 344.944 298.782 348.998C302.002 354.167 304.16 360.009 306.248 366.027L306.253 366.041C309.33 374.87 312.603 384.264 320.188 390.262C326.239 395.042 334.377 396.511 341.842 397.113C351.254 397.892 360.701 397.432 370.13 396.971C374.96 396.736 379.79 396.559 384.619 396.383C391.059 396.147 397.498 395.912 403.937 395.537C431.058 393.962 458.072 390.952 484.785 385.96C517.248 379.888 549.109 370.134 580.122 358.274C600.962 350.308 621.412 341.368 641.421 331.933C683.295 312.194 724.639 289.996 763.648 264.982Z" fill="#FFFFC7"/>
</g>
</svg>
