<svg width="734" height="274" viewBox="0 0 734 274" fill="none" xmlns="http://www.w3.org/2000/svg">
<path d="M200.742 144.113C200.742 144.113 192.741 139.145 188.625 135.415C184.508 131.684 180.276 127.525 174.804 126.534C162.207 124.257 155.859 135.497 143.064 136.042C133.36 136.454 122.399 132.526 115.522 125.676C108.645 118.826 99.7346 112.966 90.758 116.647C82.5583 120.014 79.0702 129.142 74.7224 136.867C67.7461 149.23 53.9092 157.417 39.7086 157.599C25.508 157.797 -9.07596 132.625 4.14927 137.808C18.8789 143.585 33.7738 156.212 49.3299 152.036C59.4638 149.313 65.6796 139.442 71.2177 130.545C76.7392 121.632 83.8313 112.075 94.2461 110.689C103.619 109.451 112.265 115.327 120.118 120.592C127.97 125.858 137.426 130.974 146.436 128.119C151.577 126.501 155.628 122.49 160.62 120.477C167.349 117.77 175.135 118.975 181.698 122.078C188.244 125.181 195.452 127.541 200.908 132.295C200.263 127.129 204.627 124.9 209.487 126.782C211.785 127.673 217.323 135.415 216.034 140.994C214.612 147.233 211.256 150.65 204.247 150.303C201.47 150.171 200.742 144.113 200.742 144.113Z" fill="#4D4949"/>
</svg>
