<svg width="734" height="274" viewBox="0 0 734 274" fill="none" xmlns="http://www.w3.org/2000/svg">
<path d="M206.479 131.717C206.925 129.027 209.868 127.03 212.546 127.607C215.224 128.185 216.91 131.222 216.315 133.88C215.042 139.475 212.976 139.327 210.463 139.525C208.826 139.657 205.537 136.108 205.9 134.82C202.197 137.511 196.957 136.752 192.807 134.82C188.658 132.889 185.037 129.902 180.805 128.168C173.812 125.296 165.398 126.237 159.199 130.562C155.297 133.285 152.04 137.329 147.395 138.303C144.386 138.93 141.212 138.105 138.518 136.62C135.823 135.134 132.715 133.021 130.516 130.875C127.541 127.97 122.317 121.748 122.829 121.137C123.342 120.526 124.317 120.543 124.995 120.939C125.673 121.335 126.152 121.995 126.615 122.639C129.971 127.178 134.517 130.826 139.691 133.104C141.758 134.012 144.006 134.738 146.238 134.408C149.462 133.929 151.958 131.453 154.504 129.423C159.447 125.528 165.514 123.002 171.796 122.556C178.078 122.094 184.525 123.745 189.666 127.393C191.667 128.812 193.485 130.529 195.667 131.651C198.808 133.236 202.66 133.417 206.479 131.717Z" fill="#4D4949"/>
<path d="M205.52 157.021C207.95 155.898 211.174 156.46 212.628 158.903C213.455 160.273 213.587 164.317 212.033 166.182C211.025 167.387 207.107 168.195 205.156 165.621C198.957 164.482 194.824 163.788 189.749 162.006C181.004 158.919 172.738 158.358 165.695 164.366C162.025 167.502 158.355 172.669 153.561 173.279C151.015 173.609 144.7 172.504 142.369 171.398C133.773 167.321 130.401 167.667 126.02 161.841C119.606 153.34 128.929 160.982 133.575 163.953C135.939 165.472 142.915 168.179 145.229 169.021C147.759 169.929 150.503 170.655 153.098 169.962C156.173 169.153 158.372 166.561 160.769 164.482C166.142 159.794 173.317 157.235 180.458 157.467C185.004 157.615 189.451 158.837 193.849 160.075C197.767 161.164 199.783 161.411 203.949 162.105C203.354 160.933 204.098 157.665 205.52 157.021Z" fill="#4D4949"/>
</svg>
