<svg width="365" height="240" viewBox="0 0 365 240" fill="none" xmlns="http://www.w3.org/2000/svg">
<g clip-path="url(#clip0_4526_361195)">
<path d="M225.11 212.571C224.424 209.314 209.405 206.657 202.11 215.4C194.815 224.143 205.371 236.229 207.946 236.571C210.092 236.829 213.01 227.229 217.301 223.971C217.987 223.457 219.189 222.943 219.704 222.171C220.047 221.571 219.704 220.714 219.875 220.029C220.819 216.686 225.282 213.6 225.11 212.571Z" fill="#FFB878"/>
<path d="M225.11 212.571C224.424 209.314 209.405 206.657 202.11 215.4C194.815 224.143 205.371 236.229 207.946 236.571C210.092 236.829 213.01 227.229 217.301 223.971C217.987 223.457 219.189 222.943 219.704 222.171C220.047 221.571 219.704 220.714 219.875 220.029C220.819 216.686 225.282 213.6 225.11 212.571Z" stroke="#FF9E45" stroke-width="1.5" stroke-miterlimit="10"/>
<path d="M205.114 218.657C208.032 212.571 216.872 213.429 216.872 217.714C216.872 221.914 213.267 225.257 210.178 225.514C207.174 225.686 203.226 222.6 205.114 218.657Z" fill="#3B4C9C" stroke="#2D227D" stroke-width="0.25" stroke-miterlimit="10"/>
<path d="M205.886 218.743C208.461 213.429 216.013 214.286 216.013 217.886C216.013 221.571 212.838 224.4 210.263 224.657C207.689 224.914 204.256 222.257 205.886 218.743Z" fill="#5872E8"/>
<path d="M208.89 219.171C209.92 216.943 213.095 217.286 213.181 218.829C213.181 220.371 211.894 221.571 210.778 221.657C209.663 221.743 208.204 220.629 208.89 219.171Z" fill="#243585"/>
<path d="M198.334 13.9724C196.189 11.4867 181.771 16.5438 179.711 27.6867C177.651 38.8295 195.245 44.9152 197.648 43.8867C199.621 43.0295 195.073 32.5724 197.133 27.6009C197.476 26.7438 199.793 26.6581 199.793 25.7152C199.793 25.0295 197.562 23.5724 197.39 22.8867C196.704 19.7152 199.021 14.8295 198.334 13.9724Z" fill="#FFB878"/>
<path d="M198.334 13.9714C196.189 11.4857 179.797 16.3714 179.711 27.6857C179.625 39.5143 195.245 44.9143 197.648 43.8857C199.621 43.0286 195.073 32.5714 197.133 27.6C197.476 26.7429 199.793 26.6572 199.793 25.7143C199.793 25.0286 197.562 23.5714 197.39 22.8857C196.704 19.7143 199.021 14.8286 198.334 13.9714Z" stroke="#FF9E45" stroke-width="1.5" stroke-miterlimit="10"/>
<path d="M184.002 29.0572C183.573 22.2857 191.64 18.7715 193.786 22.3715C195.931 26.0572 194.3 30.6857 191.812 32.4857C189.323 34.2857 184.259 33.4286 184.002 29.0572Z" fill="#3B4C9C" stroke="#2D227D" stroke-width="0.25" stroke-miterlimit="10"/>
<path d="M184.774 28.8C184.345 22.9714 191.383 19.8857 193.185 23.0572C194.987 26.2286 193.614 30.2572 191.468 31.7143C189.323 33.2572 185.032 32.5714 184.774 28.8Z" fill="#5872E8"/>
<path d="M187.521 27.6857C187.349 25.2 190.267 24 191.039 25.2857C191.812 26.5714 191.211 28.2857 190.353 28.8857C189.409 29.5714 187.606 29.3143 187.521 27.6857Z" fill="#243585"/>
<path d="M335.22 250.714C338.052 252.343 351.269 239.229 347.407 228.6C343.545 218.057 326.466 220.8 324.578 222.514C322.947 223.971 331.529 231.686 331.186 237.086C331.1 237.943 330.671 239.229 330.929 240.086C331.186 240.771 332.044 241.029 332.388 241.629C334.276 244.371 334.19 250.114 335.22 250.714Z" fill="#FFB878"/>
<path d="M335.22 250.714C338.052 252.343 351.44 239.143 347.407 228.6C343.287 217.8 326.466 220.8 324.578 222.514C322.947 223.971 331.529 231.686 331.186 237.086C331.1 237.943 330.671 239.229 330.929 240.086C331.186 240.771 332.044 241.029 332.388 241.629C334.276 244.371 334.19 250.114 335.22 250.714Z" stroke="#FF9E45" stroke-width="1.5" stroke-miterlimit="10"/>
<path d="M341.828 228.086C346.377 233.143 342.257 240.943 338.309 239.314C334.362 237.686 332.731 233.143 333.589 230.229C334.447 227.314 338.824 224.829 341.828 228.086Z" fill="#3B4C9C" stroke="#2D227D" stroke-width="0.25" stroke-miterlimit="10"/>
<path d="M341.399 228.771C345.347 233.143 341.742 239.829 338.395 238.457C335.048 237.086 333.589 233.143 334.276 230.571C334.962 228.086 338.739 225.943 341.399 228.771Z" fill="#5872E8"/>
<path d="M339.854 231.343C341.485 233.143 340.026 235.971 338.567 235.371C337.108 234.771 336.507 233.143 336.85 232.114C337.194 231.086 338.739 230.143 339.854 231.343Z" fill="#243585"/>
<path d="M77.3254 241.2C74.7508 239.143 61.4484 246.514 61.2767 257.829C61.1051 269.229 79.9859 271.371 82.2173 269.914C84.0195 268.714 77.2396 260.057 78.4411 254.829C78.6127 253.971 79.2993 252.857 79.1277 251.914C79.0418 251.229 78.1836 250.8 77.9262 250.114C76.6388 247.114 78.1836 241.886 77.3254 241.2Z" fill="#FFB878"/>
</g>
<defs>
<clipPath id="clip0_4526_361195">
<rect width="365" height="240" fill="white"/>
</clipPath>
</defs>
</svg>
