<svg width="566" height="565" viewBox="0 0 566 565" fill="none" xmlns="http://www.w3.org/2000/svg">
<path d="M45.846 97.3684C55.0906 91.3417 63.392 87.7634 69.4293 85.5034C87.3526 79.2884 101.691 79.8534 107.163 80.23C119.426 81.1717 124.897 83.9967 126.595 84.9384C129.237 86.445 135.84 90.2117 139.802 98.31C145.273 109.233 141.689 119.968 140.934 122.417C151.122 138.425 163.574 148.03 170.932 153.303C196.968 171.948 225.645 185.132 227.343 185.885C242.437 192.665 248.474 194.36 258.285 201.893C267.529 209.05 273.378 216.207 281.491 226.565C287.339 233.91 294.886 244.08 302.81 257.075C324.318 263.29 341.487 270.258 353.75 275.908C376.579 286.267 388.087 291.54 397.709 302.652C409.784 316.4 414.123 331.843 417.897 345.215C425.255 370.64 419.406 374.972 426.953 387.213C434.122 398.89 446.197 404.728 470.157 415.84C481.289 420.925 496.759 427.328 515.815 432.978C512.796 432.225 508.645 431.472 503.551 430.907C502.608 430.718 495.816 430.153 491.099 430.53C479.779 431.472 468.271 439.947 462.045 450.493C459.592 454.825 454.309 463.488 456.951 474.035C459.592 484.582 468.459 489.855 470.157 490.797C477.327 495.128 484.496 494.752 484.496 494.752C484.496 494.752 470.912 494.563 456.573 487.03C450.159 483.64 446.763 480.627 440.725 475.542C436.009 471.587 432.047 468.573 428.651 466.125C428.651 466.125 420.349 459.722 409.029 452.188C389.974 439.57 366.768 433.355 341.487 420.172C323.752 410.943 309.602 403.41 295.263 388.155C276.208 367.627 265.643 342.767 262.435 334.668C260.36 329.395 258.662 325.063 257.719 321.862C244.135 315.458 233.381 308.678 225.645 303.217C217.721 297.567 209.42 291.917 200.175 282.123C196.968 278.733 191.874 273.083 186.78 265.173C177.724 250.86 179.233 244.645 172.253 228.448C165.083 211.875 155.839 200.575 151.122 194.925C140.745 182.495 130.746 174.773 123.577 169.312C113.577 161.59 104.333 156.128 97.352 152.362C94.3333 156.128 88.4846 161.967 79.806 164.415C76.0326 165.545 71.882 166.675 66.9766 165.733C64.3353 165.357 59.8073 163.85 52.8266 163.85C45.4686 163.85 39.8086 156.317 36.9786 152.362C32.828 146.523 28.3 140.308 27.5453 131.457C25.6586 111.493 45.0913 98.1217 45.846 97.3684Z" fill="url(#paint0_linear_3302:577123)"/>
<path d="M39.9974 106.408C40.9407 107.162 27.168 119.215 27.734 133.152C28.4887 148.03 45.4687 164.792 65.2787 165.922C83.202 166.863 95.4654 154.622 97.7294 152.362C139.425 175.527 159.423 201.893 169.989 222.422C182.252 246.34 179.233 257.263 195.836 276.85C218.853 303.97 257.907 321.673 257.907 321.673C257.907 321.673 267.907 353.313 285.641 376.667C295.641 390.038 306.017 397.383 316.017 404.728C352.241 431.095 366.202 422.243 405.822 448.798C430.16 464.995 442.235 473.282 446.197 477.425C449.027 480.438 455.441 487.783 466.573 492.115C472.233 494.375 477.138 494.94 480.534 495.317C480.534 495.317 468.082 499.272 466.761 499.648C448.838 505.298 430.349 506.052 419.029 505.298C394.125 503.603 392.615 489.102 364.504 478.367C329.412 464.995 320.545 483.075 274.887 470.833C258.285 466.313 236.965 460.287 220.929 440.888C208.288 425.445 204.515 408.307 203.194 402.092C198.1 377.608 206.779 372.335 203.194 356.515C196.591 326.947 162.442 330.337 124.143 288.715C106.974 270.07 115.464 271.2 86.7867 233.722C48.11 183.625 36.79 170.442 36.79 170.442C31.13 163.85 25.6587 157.635 24.5267 148.03C23.206 136.918 28.1114 124.3 29.8094 120.157C30.1867 119.215 30.9414 117.332 32.262 115.26C35.092 110.175 39.4314 106.032 39.9974 106.408Z" fill="#CF5359" stroke="#A51F2D" stroke-width="0.1" stroke-miterlimit="10"/>
<path opacity="0.4" d="M39.9974 106.408C40.9407 107.162 27.168 119.215 27.734 133.152C28.4887 148.03 45.4687 164.792 65.2787 165.922C83.202 166.863 95.4654 154.622 97.7294 152.362C139.425 175.527 159.423 201.893 169.989 222.422C182.252 246.34 179.233 257.263 195.836 276.85C218.853 303.97 257.907 321.673 257.907 321.673C257.907 321.673 267.907 353.313 285.641 376.667C295.641 390.038 306.017 397.383 316.017 404.728C352.241 431.095 366.202 422.243 405.822 448.798C430.16 464.995 442.235 473.282 446.197 477.425C449.027 480.438 455.441 487.783 466.573 492.115C472.233 494.375 477.138 494.94 480.534 495.317C480.534 495.317 468.082 499.272 466.761 499.648C448.838 505.298 430.349 506.052 419.029 505.298C394.125 503.603 392.615 489.102 364.504 478.367C329.412 464.995 320.545 483.075 274.887 470.833C258.285 466.313 236.965 460.287 220.929 440.888C208.288 425.445 204.515 408.307 203.194 402.092C198.1 377.608 206.779 372.335 203.194 356.515C196.591 326.947 162.442 330.337 124.143 288.715C106.974 270.07 115.464 271.2 86.7867 233.722C48.11 183.625 36.79 170.442 36.79 170.442C31.13 163.85 25.6587 157.635 24.5267 148.03C23.206 136.918 28.1114 124.3 29.8094 120.157C30.1867 119.215 30.9414 117.332 32.262 115.26C35.092 110.175 39.4314 106.032 39.9974 106.408Z" fill="#C15059" stroke="#A51F2D" stroke-width="0.1" stroke-miterlimit="10"/>
<path d="M69.618 85.6916C69.8067 86.0682 85.2773 79.6649 103.955 80.7949C112.257 81.3599 130.369 82.3016 137.161 94.1666C141.311 101.7 140.557 112.623 140.368 114.883C140.179 118.65 139.425 121.663 138.859 123.735C143.387 129.197 150.745 137.483 160.744 146.523C196.402 178.163 224.136 179.858 254.889 201.893C268.661 211.875 287.339 229.013 303.565 259.335C319.035 262.725 341.675 269.128 366.579 282.123C378.654 288.527 385.446 292.105 392.615 297.943C433.179 331.843 408.275 382.128 440.159 402.092C456.196 412.073 513.928 431.66 514.117 431.66C514.117 431.66 519.965 432.602 520.72 432.79C531.285 434.485 547.322 427.705 547.322 427.705C520.531 420.925 513.928 418.1 513.928 418.1C504.872 413.957 499.212 409.248 491.288 402.657C482.232 395.123 464.875 380.245 451.102 356.327C435.82 329.772 444.31 325.44 430.349 302.84C427.33 298.132 413.557 276.473 385.823 261.03C360.165 246.717 336.015 245.21 324.318 245.21C309.979 209.992 291.113 191.158 276.019 180.612C253.945 164.98 198.289 137.107 180.931 123.547C176.592 120.157 172.819 116.767 172.819 116.767C166.97 110.928 165.083 106.22 156.216 98.6866C150.933 94.1666 141.877 86.6332 128.105 82.6782C118.105 79.8532 109.804 80.0416 97.7293 80.4182C90.7487 80.6066 84.9 81.3599 79.0513 82.6782C74.146 83.9966 69.4293 85.5032 69.618 85.6916Z" fill="#C15059" stroke="#A51F2D" stroke-width="0.1" stroke-miterlimit="10"/>
<path d="M46.978 100.57C42.8274 104.337 34.7147 111.87 32.6394 124.3C32.6394 124.865 32.4507 125.242 32.4507 125.43C32.262 126.56 30.564 138.802 34.3374 146.523C39.054 155.94 51.506 158.388 59.8074 159.895C71.5047 162.155 80.7494 159.518 83.5794 158.765C90.1827 156.693 95.088 153.68 98.2953 151.42C114.521 162.908 126.407 170.253 130.18 172.702C143.009 180.988 151.877 191.158 159.235 199.822C183.573 228.26 172.63 239.937 196.402 271.2C212.816 293.047 231.494 305.1 238.475 309.432C246.399 314.328 253.568 317.53 258.662 319.79C262.058 326.758 266.775 336.175 273.189 346.722C276.019 351.242 282.434 361.788 289.792 371.017C303.942 388.72 319.224 398.702 334.129 408.495C349.222 418.288 347.335 415.087 383.937 435.238C408.275 448.61 420.538 455.39 427.519 461.04C438.084 469.515 449.781 476.672 460.158 485.335C462.233 487.03 467.893 491.927 476.761 493.998C480.157 494.752 482.987 494.94 484.685 494.94C482.232 495.505 479.779 495.882 477.327 496.447C477.327 496.447 465.063 493.433 458.083 490.608C455.819 489.667 453.932 488.725 452.423 487.783C449.404 485.9 444.121 482.698 435.065 473.47C429.217 467.632 430.726 468.197 427.707 465.56C421.104 459.533 416.01 458.027 406.199 452.942C397.521 448.422 394.313 445.597 389.974 443.148C367.711 430.153 347.713 439.382 323.375 430.907C305.829 424.88 295.452 412.638 287.151 403.033C259.983 371.393 252.813 326.005 252.813 326.005C227.909 311.88 226.966 311.315 226.966 311.315C205.081 298.32 192.063 279.863 184.893 269.693C162.631 237.3 175.46 232.027 156.027 210.18C153.763 207.543 138.67 194.548 108.672 168.558C105.465 165.733 101.503 162.343 98.484 159.707C98.484 159.707 89.0507 164.603 85.8434 166.11C73.9574 171.572 62.4487 169.877 56.2227 168.747C46.0347 167.052 31.3187 164.792 25.0927 153.115C18.678 141.062 25.2814 125.807 27.734 120.157C28.1114 119.027 29.8094 115.26 33.2054 110.363C45.6574 92.4716 69.052 83.4316 69.052 83.4316C70.3727 82.8666 77.542 80.0416 87.164 78.1582C90.7487 77.4049 95.654 76.4632 101.88 76.4632C105.087 76.4632 111.502 76.2749 119.237 78.1582C128.482 80.4182 139.047 82.8666 143.764 91.5299C146.405 96.4266 146.405 102.077 146.594 106.973C146.594 112.058 145.839 116.013 145.085 118.838C148.292 122.793 152.82 128.067 158.669 133.717C168.291 143.133 178.101 150.855 188.478 157.635C215.269 175.15 220.74 170.818 245.644 186.073C260.737 195.49 274.321 203.965 285.453 220.538C285.453 220.538 293.377 232.215 304.508 256.322C304.508 256.322 320.167 257.828 321.865 258.017C338.468 259.712 363.372 270.635 384.691 287.02C398.653 297.755 405.633 303.028 410.539 312.068C415.633 321.485 418.463 337.117 423.934 368.003C425.821 378.738 426.575 383.635 430.349 389.285C431.669 391.357 436.386 397.76 456.762 407.742C465.063 411.697 470.912 413.957 481.666 417.912C497.137 423.562 518.267 430.718 529.776 429.777C535.436 429.4 541.851 428.458 541.851 428.458C544.869 428.082 547.511 427.517 549.02 427.328C547.133 428.458 544.869 429.588 542.605 430.53C530.719 435.238 519.399 433.543 513.173 432.037C497.891 427.14 479.591 421.113 458.837 413.768C446.951 409.437 436.952 405.858 429.594 395.877C425.443 390.415 423.934 385.33 421.104 374.595C411.293 336.363 414.123 335.233 409.595 325.252C401.86 307.925 387.899 298.508 372.239 287.773C365.825 283.442 352.052 274.213 332.242 268.752C319.601 265.362 299.414 261.972 299.414 261.972C299.414 261.972 282.811 230.708 259.417 209.803C254.889 205.848 256.587 207.92 200.93 175.903C179.422 164.038 168.102 157.258 159.612 148.783C149.047 138.048 135.84 123.547 135.84 123.547C136.972 120.533 138.293 115.26 137.915 108.668C137.538 101.888 135.463 96.6149 134.519 94.9199C126.407 78.9116 74.712 75.3332 46.978 100.57Z" fill="url(#paint1_linear_3302:577123)"/>
<path d="M223.381 354.255C228.287 354.255 229.23 366.685 241.116 385.33C242.437 387.59 252.625 403.598 266.586 415.087C295.263 438.817 328.469 433.355 329.035 442.395C329.601 449.928 306.772 457.273 303.376 458.403C299.414 459.722 287.528 463.112 274.321 461.605C244.701 458.403 215.269 431.848 210.552 400.585C206.967 377.985 216.778 354.255 223.381 354.255Z" fill="#CF5359"/>
<path d="M219.985 355.197C219.797 355.197 214.891 362.542 211.873 371.582C203.194 398.513 218.853 423.938 221.495 427.705C222.627 429.4 228.098 437.687 237.909 445.597C252.247 457.273 267.718 461.228 267.907 460.475C268.284 459.91 255.266 455.767 241.871 443.713C230.362 433.543 224.513 422.808 222.815 419.607C219.985 414.333 206.967 389.85 214.891 366.873C216.778 361.035 220.174 355.385 219.985 355.197Z" fill="#E2555C"/>
<path d="M331.11 256.698C330.921 258.205 355.071 256.51 379.786 271.2C398.841 282.5 407.52 296.813 409.218 295.495C410.916 294.177 405.067 280.805 393.559 271.577C390.729 269.317 385.635 265.738 373.56 261.972C351.486 255.38 331.299 255.38 331.11 256.698Z" fill="#E2555C"/>
<defs>
<linearGradient id="paint0_linear_3302:577123" x1="234.987" y1="326.262" x2="303.319" y2="256.913" gradientUnits="userSpaceOnUse">
<stop offset="0.00380413" stop-color="#5E2323"/>
<stop offset="0.1869" stop-color="#612425"/>
<stop offset="0.372" stop-color="#692A2A"/>
<stop offset="0.5573" stop-color="#773333"/>
<stop offset="0.591" stop-color="#7B3535"/>
<stop offset="1" stop-color="#945252"/>
</linearGradient>
<linearGradient id="paint1_linear_3302:577123" x1="18.8859" y1="85.2548" x2="418.382" y2="415.228" gradientUnits="userSpaceOnUse">
<stop offset="0.00380413" stop-color="#CD8888"/>
<stop offset="0.0816674" stop-color="#CF8C8C"/>
<stop offset="0.1603" stop-color="#D39796"/>
<stop offset="0.2394" stop-color="#DBAAA8"/>
<stop offset="0.3183" stop-color="#E6C4C3"/>
<stop offset="0.381" stop-color="#F1DDDD"/>
<stop offset="0.5396" stop-color="#EDD3D3"/>
<stop offset="0.8195" stop-color="#E1B8B8"/>
<stop offset="1" stop-color="#D8A4A4"/>
</linearGradient>
</defs>
</svg>
