<svg width="973" height="508" viewBox="0 0 973 508" fill="none" xmlns="http://www.w3.org/2000/svg">
<path d="M598.087 378.471C601.542 386.66 590.746 399.887 573.123 407.328C555.501 414.769 522.178 407.327 536.555 393.567C544.414 386.046 558.318 391.048 568.181 385.176C589.198 372.661 594.632 370.282 598.087 378.471Z" fill="#E69264"/>
<path opacity="0.3608" d="M596.141 384.276C595.02 384.485 593.199 384.245 591.726 384.23C590.906 384.222 589.816 384.447 589.769 385.266C589.732 385.891 590.438 386.34 591.063 386.317C591.689 386.294 592.256 385.963 592.837 385.726C593.419 385.49 594.119 385.357 594.644 385.703C595.091 385.998 595.282 386.587 595.222 387.123C595.161 387.659 594.892 388.145 594.58 388.583C593.845 389.623 592.53 390.543 591.367 390.02C590.769 389.752 590.385 389.169 590.002 388.638C589.62 388.107 589.147 387.561 588.501 387.445C587.858 387.327 587.085 387.912 587.281 388.536C588.085 389.052 588.978 389.416 589.767 389.959C590.556 390.502 591.254 391.276 591.385 392.224C591.515 393.171 590.872 394.247 589.918 394.317C589.294 394.362 588.704 393.98 588.303 393.497C587.902 393.014 587.649 392.429 587.339 391.885C585.982 389.493 581.501 386.707 581.232 387.642C581.029 388.337 583.544 390.084 584.992 391.37C586.44 392.657 587.715 394.448 587.464 396.366C587.377 397.023 587.095 397.678 586.584 398.095C586.069 398.514 585.305 398.653 584.726 398.332C583.888 397.87 583.743 396.761 583.513 395.831C583.283 394.901 582.548 393.845 581.623 394.088C581.609 395.293 582.337 396.357 582.81 397.465C583.283 398.573 583.433 400.045 582.507 400.818C581.717 401.48 580.465 401.271 579.655 400.63C578.846 399.989 578.376 399.023 577.931 398.092C577.207 396.573 576.481 395.058 575.757 393.538C575.412 392.816 574.772 391.956 574.017 392.221C573.521 392.395 573.306 393.013 573.407 393.528C573.505 394.043 573.838 394.478 574.15 394.897C575.329 396.474 576.403 398.127 577.369 399.844C577.891 400.777 578.389 401.909 577.919 402.869C577.396 403.939 575.942 404.174 574.785 403.9C572.741 403.421 571.09 401.843 570.04 400.022C568.989 398.201 568.459 396.135 567.94 394.101C567.494 394.236 567.221 394.709 567.179 395.17C567.139 395.634 567.286 396.089 567.44 396.528C568.108 398.423 568.973 400.249 570.012 401.968C570.413 402.635 570.852 403.309 570.988 404.076C571.124 404.843 570.862 405.744 570.169 406.099C569.438 406.476 568.505 406.1 567.979 405.467C567.454 404.834 567.24 404.009 567.032 403.214C566.825 402.42 566.584 401.594 566.032 400.987C565.77 400.699 565.28 400.484 565.024 400.778C564.895 400.925 564.89 401.14 564.912 401.335C565.119 403.127 567.055 404.626 566.581 406.367C566.355 407.195 565.532 407.819 564.674 407.817C563.816 407.815 562.999 407.182 562.78 406.352C562.56 405.53 562.89 404.663 562.873 403.811C562.853 402.961 562.143 401.97 561.34 402.25C560.778 402.446 560.573 403.165 560.68 403.751C560.787 404.337 561.112 404.859 561.289 405.429C561.544 406.254 561.441 407.237 560.844 407.86C560.247 408.483 559.105 408.568 558.502 408.401C557.898 408.231 557.257 407.96 557.04 407.515C556.822 407.069 556.891 406.548 556.932 406.052C557.114 403.874 556.642 401.647 555.595 399.73C555.382 399.342 555.129 398.947 554.733 398.751C554.338 398.556 553.771 398.637 553.578 399.036C553.444 399.31 553.436 399.677 553.603 399.936C554.502 401.335 554.883 402.74 555.287 404.226C555.519 405.079 555.868 406.928 555.359 407.649C554.302 409.141 551.689 408.359 551.339 407.98C550.988 407.601 550.901 407.057 550.828 406.546C550.725 405.817 550.622 405.089 550.517 404.365C550.472 404.039 550.422 403.705 550.243 403.43C550.064 403.156 549.726 402.955 549.412 403.05C548.953 403.189 548.859 403.793 548.902 404.271C548.985 405.166 549.249 406.042 549.68 406.83C549.792 407.039 549.921 407.277 549.838 407.501C549.753 407.722 549.496 407.816 549.266 407.857C548.089 408.063 546.813 407.492 546.184 406.475C545.707 405.706 545.604 404.774 545.443 403.881C545.284 402.991 545.024 402.055 544.344 401.456C544.095 401.239 543.782 401.07 543.454 401.071C543.122 401.071 542.783 401.275 542.692 401.594C542.58 401.996 542.871 402.385 543.105 402.731C543.474 403.285 543.723 403.917 543.835 404.572C543.901 404.962 543.894 405.419 543.608 405.692C543.265 406.019 542.71 405.916 542.255 405.784C540.874 405.378 539.514 404.859 538.333 404.039C537.152 403.219 536.157 402.073 535.717 400.705C535.277 399.337 535.452 397.737 536.347 396.612C536.669 396.206 537.164 395.847 537.664 395.98C538.133 396.104 538.388 396.597 538.568 397.049C539.908 400.443 540.008 400.092 540.264 400.146C540.565 400.213 540.581 398.477 540.338 397.707C540.081 396.898 539.592 396.176 539.382 395.356C539.172 394.537 539.349 393.505 540.14 393.136C540.558 392.503 541.45 392.301 542.172 392.534C542.894 392.767 543.456 393.349 543.848 394C544.237 394.652 544.479 395.379 544.767 396.08C545.337 397.473 546.1 398.783 547.025 399.971C547.169 400.155 547.322 400.342 547.534 400.439C547.747 400.536 548.031 400.511 548.168 400.324C548.299 400.146 548.254 399.895 548.192 399.68C547.829 398.444 547.078 397.365 546.474 396.225C545.872 395.087 545.405 393.779 545.69 392.521C545.973 391.265 547.261 390.174 548.503 390.513C549.405 390.763 549.993 391.659 550.212 392.569C550.431 393.478 550.362 394.427 550.406 395.362C550.429 395.836 550.495 396.336 550.776 396.72C551.058 397.103 551.624 397.313 552.027 397.062C552.506 396.762 552.479 396.062 552.352 395.514C552.162 394.69 551.871 393.882 551.831 393.035C551.79 392.189 552.048 391.268 552.739 390.781C553.322 390.369 554.11 390.346 554.798 390.545C556.301 390.974 557.393 392.327 557.936 393.792C558.482 395.256 558.568 396.843 558.693 398.398C558.734 398.908 558.789 399.447 559.104 399.85C559.418 400.253 560.083 400.423 560.437 400.056C560.778 399.704 560.641 399.127 560.485 398.662C560.015 397.273 559.544 395.884 559.074 394.496C558.84 393.803 558.602 393.096 558.577 392.366C558.552 391.636 558.77 390.861 559.319 390.374C560.007 389.765 561.097 389.751 561.897 390.205C562.697 390.658 563.228 391.492 563.488 392.374C563.749 393.257 563.769 394.19 563.755 395.108C563.746 395.634 563.737 396.195 564.014 396.645C564.286 397.094 564.966 397.339 565.351 396.981C565.699 396.662 565.618 396.103 565.509 395.642C565.337 394.911 565.163 394.177 564.99 393.446C564.798 392.632 564.064 389.799 565.871 388.873C566.614 388.493 567.671 388.649 568.086 389.347C568.781 391.045 569.476 392.743 570.168 394.443C570.839 396.083 571.665 397.882 573.31 398.538C573.664 398.68 574.157 398.712 574.345 398.377C574.509 398.082 574.306 397.723 574.11 397.446C572.829 395.61 571.691 393.671 570.71 391.656C570.237 390.684 569.789 389.634 569.926 388.564C570.049 387.616 570.624 386.778 571.339 386.15C572.054 385.521 572.912 385.074 573.757 384.634C574.205 384.4 574.729 384.161 575.195 384.355C575.684 384.555 575.879 385.13 576.026 385.638C576.729 388.064 577.605 390.44 578.64 392.742C578.759 393.004 578.883 393.275 579.107 393.453C579.329 393.635 579.675 393.695 579.898 393.518C580.213 393.264 580.089 392.762 579.928 392.391C579.265 390.853 578.465 389.36 578.013 387.746C577.561 386.132 577.492 384.33 578.259 382.838C579.185 381.042 581.107 380.033 582.918 379.135C583.302 378.943 583.738 378.75 584.144 378.89C584.775 379.109 584.889 379.937 584.893 380.603C584.903 381.727 584.913 382.851 584.922 383.975C584.926 384.389 584.933 384.823 585.131 385.185C585.328 385.547 585.777 385.811 586.161 385.654C586.721 385.425 586.673 384.625 586.551 384.032C586.306 382.846 586.173 381.636 586.149 380.425C586.128 379.206 586.269 377.866 587.131 377.005C588.145 375.991 589.759 375.995 591.19 376.064C591.888 376.098 592.791 376.309 592.864 377.005C592.927 377.586 592.347 377.995 591.881 378.345C590.812 379.152 590.02 380.314 589.665 381.603C589.594 381.862 589.55 382.177 589.733 382.378C589.913 382.572 590.24 382.556 590.466 382.412C590.691 382.267 590.839 382.038 590.983 381.814C591.617 380.838 592.348 379.925 593.163 379.09C593.502 378.742 593.864 378.401 594.31 378.213C594.757 378.025 595.305 378.014 595.697 378.299C596.045 378.551 596.21 378.984 596.325 379.4C596.75 381.006 596.718 384.167 596.141 384.276Z" fill="#FDDFD3"/>
<path d="M593.453 380.638C593.174 380.793 593.074 381.145 593.229 381.423C593.384 381.702 593.735 381.802 594.014 381.647C594.292 381.492 594.392 381.141 594.237 380.862C594.082 380.584 593.731 380.483 593.453 380.638Z" fill="#AA2829"/>
<path d="M580.671 383.786C580.393 383.94 580.293 384.292 580.448 384.57C580.603 384.849 580.954 384.949 581.232 384.794C581.511 384.639 581.611 384.288 581.456 384.009C581.301 383.731 580.95 383.631 580.671 383.786Z" fill="#AA2829"/>
<path d="M582.255 391.215C581.977 391.37 581.877 391.722 582.032 392C582.187 392.279 582.538 392.379 582.816 392.224C583.095 392.069 583.195 391.718 583.04 391.439C582.885 391.16 582.534 391.06 582.255 391.215Z" fill="#AA2829"/>
<path d="M579.824 397.195C579.546 397.35 579.445 397.702 579.6 397.98C579.755 398.259 580.106 398.359 580.385 398.204C580.663 398.049 580.763 397.698 580.608 397.419C580.453 397.141 580.102 397.041 579.824 397.195Z" fill="#AA2829"/>
<path d="M575.109 400.764C574.831 400.919 574.731 401.271 574.885 401.549C575.04 401.828 575.392 401.928 575.67 401.773C575.948 401.618 576.048 401.267 575.893 400.988C575.739 400.71 575.387 400.609 575.109 400.764Z" fill="#AA2829"/>
<path d="M566.371 390.989C566.092 391.144 565.992 391.495 566.147 391.774C566.302 392.053 566.653 392.153 566.932 391.998C567.21 391.843 567.31 391.491 567.155 391.213C567 390.934 566.649 390.834 566.371 390.989Z" fill="#AA2829"/>
<path d="M563.494 398.541C563.215 398.696 563.115 399.047 563.27 399.326C563.425 399.604 563.776 399.704 564.055 399.549C564.333 399.394 564.433 399.043 564.278 398.764C564.123 398.486 563.772 398.386 563.494 398.541Z" fill="#AA2829"/>
<path d="M558.078 405.428C557.799 405.583 557.699 405.934 557.854 406.213C558.009 406.492 558.36 406.592 558.639 406.437C558.917 406.282 559.017 405.93 558.862 405.652C558.707 405.373 558.356 405.273 558.078 405.428Z" fill="#AA2829"/>
<path d="M553.054 404.54C552.776 404.695 552.676 405.047 552.831 405.325C552.986 405.604 553.337 405.704 553.615 405.549C553.893 405.394 553.994 405.043 553.839 404.764C553.684 404.486 553.333 404.385 553.054 404.54Z" fill="#AA2829"/>
<path d="M546.716 392.296C546.438 392.451 546.338 392.802 546.493 393.081C546.648 393.359 546.999 393.459 547.277 393.304C547.556 393.15 547.656 392.798 547.501 392.52C547.346 392.241 546.995 392.141 546.716 392.296Z" fill="#AA2829"/>
<path d="M559.714 396.095C559.753 396.138 559.813 396.157 559.866 396.177C560.193 396.338 560.628 396.508 560.949 396.239C561.12 396.125 561.246 395.869 561.11 395.685C561.078 395.635 561.025 395.615 560.972 395.587C560.896 395.539 560.824 395.477 560.764 395.409C560.686 395.331 560.685 395.234 560.626 395.142C560.593 395.115 560.566 395.081 560.542 395.045C560.552 395.036 560.562 395.026 560.575 395.015C560.698 394.898 560.805 394.763 560.852 394.597C560.89 394.47 560.861 394.335 560.876 394.206C560.873 394.181 560.897 394.115 560.88 394.071C560.819 393.995 560.716 393.959 560.666 393.869C560.658 393.862 560.656 393.852 560.653 393.846C560.763 393.717 560.723 393.543 560.896 393.515C560.993 393.513 561.107 393.563 561.191 393.49C561.331 393.34 561.337 393.073 561.359 392.909C561.377 392.914 561.395 392.927 561.423 392.915C561.489 392.905 561.532 392.847 561.562 392.792C561.625 392.682 561.688 392.564 561.707 392.436C561.691 392.23 561.669 392.027 561.682 391.819C561.761 391.745 561.875 391.678 561.986 391.688C562.285 391.797 562.179 392.192 562.151 392.412C562.118 392.536 561.992 392.799 561.93 392.958C561.892 393.032 561.846 393.092 561.795 393.177C561.661 393.384 561.541 393.59 561.41 393.836C561.317 394.002 561.248 394.263 561.192 394.415C561.144 394.551 561.085 394.697 561.108 394.847C561.152 394.974 561.199 395.113 561.287 395.216C561.458 395.389 561.717 395.222 561.868 395.1C562.322 394.708 562.474 394.038 562.696 393.434C562.457 394.002 562.393 394.544 561.909 394.971C561.755 395.095 561.488 395.251 561.326 395.062C561.25 394.953 561.19 394.824 561.162 394.693C561.146 394.569 561.2 394.456 561.239 394.343C561.351 393.968 561.406 393.896 561.64 393.482C561.794 393.271 561.979 392.931 562.03 392.778C562.133 392.55 562.225 392.355 562.242 392.101C562.282 391.935 562.278 391.521 561.993 391.537C561.883 391.564 561.762 391.624 561.7 391.722C561.567 391.974 561.637 392.275 561.653 392.549C561.653 392.602 561.639 392.598 561.612 392.659C561.593 392.711 561.512 392.798 561.416 392.753C561.281 392.904 561.308 393.13 561.266 393.32C561.238 393.35 561.211 393.362 561.168 393.367C561.086 393.375 561.004 393.337 560.927 393.361C560.847 393.394 560.81 393.483 560.772 393.557C560.753 393.598 560.732 393.655 560.719 393.692C560.703 393.712 560.685 393.726 560.665 393.738C560.647 393.747 560.631 393.752 560.617 393.76C560.582 393.67 560.57 393.575 560.551 393.48C560.55 393.458 560.546 393.456 560.55 393.443C560.566 393.404 560.587 393.354 560.568 393.293C560.46 393.138 560.503 393.012 560.45 392.849C560.434 392.801 560.417 392.75 560.408 392.698C560.472 392.659 560.498 392.576 560.519 392.504C560.539 392.365 560.495 392.223 560.557 392.098C560.635 391.987 560.7 391.86 560.737 391.729C560.785 391.51 560.821 391.316 560.87 391.127C560.871 391.122 560.872 391.118 560.872 391.11C560.914 391.064 560.963 391.022 561.016 390.989C561.252 390.876 561.575 390.847 561.82 390.941C561.894 391.014 561.911 391.22 561.938 391.337C561.804 391.456 561.591 391.432 561.458 391.566C561.311 391.629 561.141 391.675 561.048 391.813C561.045 391.815 561.031 391.83 561.038 391.823C561.057 391.808 561.069 391.79 561.083 391.775C561.221 391.656 561.373 391.678 561.547 391.57C561.661 391.525 561.801 391.538 561.899 391.457C561.954 391.392 561.998 391.303 561.99 391.221C561.967 391.09 561.952 390.955 561.902 390.831C561.806 390.746 561.654 390.758 561.531 390.755C561.354 390.762 561.17 390.79 561.022 390.891C560.9 390.97 560.83 391.103 560.81 391.243C560.762 391.421 560.72 391.644 560.678 391.834C560.68 391.852 560.612 391.946 560.576 392.004C560.529 392.095 560.506 392.175 560.477 392.267C560.446 392.36 560.456 392.46 560.46 392.556C560.442 392.562 560.423 392.569 560.405 392.579C560.377 392.602 560.364 392.64 560.349 392.674C560.297 392.791 560.37 392.916 560.403 393.03C560.431 393.161 560.417 393.305 560.504 393.415C560.514 393.433 560.515 393.455 560.516 393.477C560.508 393.496 560.494 393.546 560.49 393.559C560.483 393.628 560.515 393.693 560.518 393.759C560.522 393.787 560.528 393.818 560.537 393.847C560.49 393.918 560.454 393.991 560.423 394.084C560.349 394.269 560.277 394.528 560.328 394.836C560.329 394.899 560.37 394.952 560.39 395.001C560.393 395.007 560.396 395.013 560.396 395.02C560.212 395.028 560.078 395.167 559.955 395.292C559.89 395.366 559.791 395.391 559.736 395.475C559.66 395.589 559.56 395.735 559.607 395.875C559.642 395.95 559.67 396.029 559.714 396.095ZM560.398 394.744C560.349 394.487 560.37 394.253 560.445 394.075C560.462 394.039 560.468 393.975 560.558 393.918C560.592 393.986 560.634 394.049 560.691 394.097C560.736 394.137 560.803 394.163 560.829 394.217C560.83 394.273 560.818 394.325 560.817 394.378C560.813 394.46 560.818 394.631 560.811 394.653C560.73 394.771 560.631 394.905 560.504 394.976C560.465 394.899 560.432 394.812 560.398 394.744ZM559.833 395.493C559.978 395.381 560.088 395.192 560.28 395.164C560.336 395.163 560.384 395.148 560.432 395.125C560.453 395.17 560.482 395.215 560.514 395.246C560.608 395.318 560.608 395.428 560.673 395.524C560.729 395.606 560.808 395.672 560.888 395.729C560.946 395.764 561.016 395.782 561.052 395.845C561.09 395.888 561.098 395.963 561.1 396C561.089 396.014 561.075 396.029 561.059 396.042C560.784 396.315 560.346 396.246 560.029 396.063C559.944 396.02 559.838 396.011 559.769 395.936C559.731 395.859 559.65 395.742 559.645 395.665C559.687 395.604 559.755 395.536 559.833 395.493Z" fill="#AA2829"/>
</svg>
