<svg width="973" height="508" viewBox="0 0 973 508" fill="none" xmlns="http://www.w3.org/2000/svg">
<path d="M162.828 225.63C157.068 232.397 140.406 228.69 125.846 216.281C111.285 203.872 102.962 170.742 121.707 177.411C131.953 181.057 133.733 195.732 143.407 201.911C164.024 215.075 168.589 218.863 162.828 225.63Z" fill="#E69264"/>
<path opacity="0.3608" d="M156.77 226.498C156.079 225.589 155.476 223.854 154.828 222.531C154.467 221.794 153.776 220.921 153.023 221.247C152.448 221.495 152.365 222.328 152.666 222.876C152.967 223.425 153.518 223.783 153.99 224.196C154.463 224.61 154.896 225.176 154.823 225.801C154.76 226.333 154.321 226.768 153.815 226.955C153.309 227.142 152.754 227.119 152.223 227.038C150.964 226.848 149.551 226.086 149.496 224.811C149.467 224.156 149.814 223.551 150.117 222.97C150.42 222.39 150.694 221.722 150.508 221.093C150.324 220.465 149.455 220.037 148.986 220.492C148.886 221.442 148.962 222.404 148.832 223.353C148.701 224.302 148.323 225.275 147.536 225.817C146.749 226.359 145.499 226.267 145.008 225.446C144.687 224.909 144.763 224.21 145.015 223.635C145.266 223.059 145.674 222.57 146.021 222.048C147.548 219.761 148.022 214.503 147.066 214.683C146.355 214.814 145.925 217.847 145.426 219.719C144.928 221.591 143.901 223.536 142.076 224.174C141.45 224.391 140.738 224.434 140.136 224.164C139.531 223.892 139.064 223.27 139.09 222.61C139.127 221.652 140.052 221.025 140.779 220.401C141.505 219.778 142.119 218.647 141.486 217.929C140.404 218.458 139.781 219.587 139.004 220.507C138.227 221.427 136.979 222.223 135.874 221.743C134.927 221.334 134.552 220.121 134.76 219.109C134.969 218.098 135.621 217.244 136.252 216.427C137.284 215.097 138.311 213.768 139.342 212.438C139.832 211.806 140.312 210.847 139.736 210.291C139.358 209.926 138.71 210.012 138.296 210.333C137.879 210.653 137.641 211.145 137.407 211.612C136.528 213.374 135.535 215.077 134.435 216.712C133.837 217.598 133.049 218.552 131.981 218.563C130.791 218.576 129.927 217.382 129.653 216.225C129.162 214.183 129.829 211.998 130.984 210.241C132.138 208.483 133.745 207.082 135.328 205.704C135.007 205.366 134.462 205.334 134.032 205.504C133.599 205.677 133.259 206.013 132.936 206.347C131.545 207.796 130.302 209.39 129.234 211.09C128.818 211.749 128.414 212.444 127.79 212.91C127.166 213.375 126.244 213.547 125.615 213.087C124.951 212.603 124.867 211.6 125.196 210.846C125.525 210.091 126.166 209.53 126.782 208.987C127.399 208.444 128.028 207.858 128.322 207.092C128.461 206.728 128.433 206.194 128.056 206.097C127.866 206.048 127.673 206.14 127.508 206.247C126.001 207.238 125.532 209.641 123.765 210C122.923 210.17 121.996 209.714 121.613 208.947C121.229 208.179 121.428 207.164 122.07 206.595C122.706 206.03 123.628 205.935 124.381 205.537C125.131 205.137 125.697 204.057 125.086 203.466C124.658 203.051 123.925 203.191 123.45 203.55C122.974 203.909 122.654 204.434 122.224 204.848C121.602 205.447 120.678 205.796 119.854 205.542C119.029 205.289 118.441 204.306 118.319 203.692C118.2 203.076 118.153 202.382 118.453 201.987C118.753 201.592 119.25 201.419 119.711 201.234C121.738 200.417 123.514 198.995 124.756 197.197C125.007 196.834 125.246 196.429 125.243 195.988C125.24 195.547 124.913 195.077 124.47 195.083C124.164 195.087 123.833 195.245 123.677 195.51C122.831 196.942 121.748 197.914 120.602 198.942C119.945 199.533 118.451 200.676 117.578 200.545C115.771 200.27 115.296 197.583 115.477 197.1C115.658 196.616 116.104 196.293 116.528 195.999C117.132 195.58 117.736 195.16 118.336 194.742C118.606 194.555 118.883 194.36 119.047 194.076C119.212 193.793 119.239 193.401 119.014 193.163C118.684 192.815 118.102 193.002 117.694 193.256C116.933 193.731 116.269 194.361 115.759 195.1C115.622 195.295 115.468 195.517 115.23 195.543C114.995 195.567 114.795 195.379 114.655 195.192C113.943 194.232 113.88 192.836 114.505 191.816C114.978 191.044 115.764 190.533 116.489 189.988C117.212 189.447 117.931 188.794 118.16 187.916C118.242 187.597 118.253 187.241 118.105 186.948C117.955 186.651 117.621 186.439 117.295 186.501C116.886 186.582 116.669 187.018 116.466 187.382C116.136 187.96 115.684 188.467 115.149 188.861C114.83 189.096 114.419 189.295 114.047 189.162C113.601 189.002 113.444 188.46 113.357 187.994C113.1 186.577 112.952 185.127 113.154 183.704C113.356 182.28 113.931 180.876 114.955 179.868C115.979 178.86 117.487 178.297 118.894 178.592C119.401 178.697 119.944 178.978 120.05 179.485C120.149 179.961 119.824 180.41 119.501 180.773C117.073 183.496 117.43 183.428 117.497 183.681C117.573 183.98 119.13 183.215 119.709 182.651C120.316 182.058 120.741 181.297 121.378 180.741C122.016 180.184 123.017 179.879 123.701 180.421C124.454 180.51 125.035 181.217 125.152 181.967C125.268 182.717 125.001 183.481 124.596 184.123C124.188 184.764 123.648 185.307 123.151 185.879C122.163 187.015 121.336 188.285 120.691 189.646C120.591 189.857 120.493 190.078 120.501 190.311C120.51 190.545 120.661 190.787 120.889 190.827C121.107 190.863 121.311 190.71 121.474 190.558C122.416 189.678 123.041 188.523 123.789 187.47C124.534 186.42 125.492 185.416 126.744 185.106C127.993 184.794 129.546 185.455 129.8 186.718C129.982 187.636 129.446 188.565 128.733 189.169C128.019 189.773 127.141 190.138 126.326 190.597C125.912 190.831 125.496 191.115 125.28 191.538C125.063 191.962 125.13 192.562 125.536 192.81C126.019 193.103 126.631 192.765 127.064 192.405C127.714 191.865 128.305 191.242 129.043 190.825C129.781 190.409 130.719 190.225 131.465 190.625C132.094 190.961 132.468 191.655 132.6 192.359C132.892 193.895 132.174 195.479 131.11 196.622C130.048 197.768 128.669 198.559 127.337 199.369C126.901 199.635 126.443 199.926 126.225 200.388C126.006 200.851 126.153 201.521 126.64 201.673C127.107 201.819 127.562 201.438 127.906 201.089C128.935 200.045 129.964 199 130.993 197.956C131.507 197.435 132.03 196.905 132.671 196.555C133.312 196.205 134.102 196.052 134.783 196.323C135.636 196.664 136.139 197.633 136.093 198.552C136.047 199.47 135.541 200.32 134.87 200.949C134.199 201.578 133.375 202.016 132.549 202.416C132.075 202.644 131.57 202.887 131.292 203.337C131.014 203.782 131.1 204.5 131.594 204.684C132.034 204.852 132.497 204.528 132.86 204.224C133.435 203.741 134.012 203.256 134.588 202.773C135.229 202.235 137.429 200.307 139.067 201.505C139.74 201.999 140.076 203.014 139.639 203.698C138.434 205.083 137.23 206.467 136.024 207.849C134.86 209.185 133.625 210.732 133.778 212.497C133.81 212.878 134.004 213.333 134.387 213.35C134.724 213.364 134.953 213.021 135.113 212.722C136.177 210.752 137.397 208.863 138.755 207.081C139.411 206.222 140.147 205.35 141.165 204.992C142.066 204.675 143.073 204.813 143.955 205.17C144.838 205.527 145.622 206.092 146.395 206.651C146.805 206.945 147.254 207.306 147.29 207.81C147.331 208.337 146.905 208.77 146.518 209.129C144.667 210.848 142.939 212.698 141.348 214.657C141.168 214.882 140.982 215.114 140.923 215.394C140.86 215.675 140.962 216.011 141.22 216.131C141.589 216.298 141.981 215.962 142.24 215.651C143.316 214.367 144.29 212.982 145.528 211.853C146.766 210.723 148.343 209.852 150.02 209.867C152.04 209.888 153.805 211.153 155.421 212.368C155.764 212.625 156.133 212.928 156.19 213.354C156.278 214.017 155.589 214.49 154.997 214.794C153.997 215.307 152.998 215.821 151.999 216.335C151.631 216.524 151.247 216.725 151.012 217.065C150.777 217.404 150.743 217.924 151.056 218.196C151.512 218.594 152.205 218.191 152.679 217.816C153.629 217.064 154.649 216.402 155.72 215.836C156.799 215.269 158.06 214.794 159.215 215.177C160.576 215.628 161.297 217.072 161.879 218.382C162.162 219.022 162.379 219.924 161.791 220.302C161.3 220.619 160.674 220.285 160.152 220.025C158.952 219.432 157.558 219.247 156.247 219.509C155.984 219.561 155.683 219.664 155.587 219.917C155.494 220.165 155.655 220.451 155.885 220.587C156.115 220.724 156.387 220.753 156.651 220.781C157.808 220.91 158.951 221.153 160.063 221.506C160.526 221.653 160.992 221.823 161.361 222.137C161.73 222.452 161.986 222.938 161.908 223.416C161.839 223.84 161.527 224.182 161.207 224.471C159.963 225.573 157.127 226.965 156.77 226.498Z" fill="#FDDFD3"/>
<path d="M158.812 222.46C158.549 222.28 158.19 222.349 158.011 222.612C157.832 222.876 157.9 223.235 158.164 223.414C158.427 223.593 158.786 223.525 158.965 223.261C159.144 222.998 159.076 222.639 158.812 222.46Z" fill="#AA2829"/>
<path d="M150.26 212.45C149.996 212.27 149.638 212.339 149.458 212.602C149.279 212.866 149.348 213.225 149.611 213.404C149.874 213.583 150.233 213.515 150.412 213.251C150.591 212.988 150.523 212.629 150.26 212.45Z" fill="#AA2829"/>
<path d="M144.336 217.203C144.073 217.024 143.714 217.092 143.535 217.356C143.356 217.619 143.424 217.978 143.687 218.157C143.951 218.337 144.309 218.268 144.488 218.005C144.668 217.741 144.599 217.382 144.336 217.203Z" fill="#AA2829"/>
<path d="M137.904 217.717C137.641 217.538 137.282 217.607 137.103 217.87C136.924 218.134 136.992 218.493 137.256 218.672C137.519 218.851 137.878 218.783 138.057 218.519C138.236 218.255 138.168 217.897 137.904 217.717Z" fill="#AA2829"/>
<path d="M132.6 215.107C132.336 214.927 131.977 214.996 131.798 215.259C131.619 215.523 131.687 215.882 131.951 216.061C132.214 216.24 132.573 216.172 132.752 215.908C132.931 215.645 132.863 215.286 132.6 215.107Z" fill="#AA2829"/>
<path d="M137.402 202.905C137.139 202.725 136.78 202.794 136.601 203.057C136.422 203.321 136.49 203.68 136.754 203.859C137.017 204.038 137.376 203.97 137.555 203.706C137.734 203.443 137.666 203.084 137.402 202.905Z" fill="#AA2829"/>
<path d="M129.367 203.725C129.104 203.546 128.745 203.614 128.566 203.878C128.387 204.141 128.455 204.5 128.718 204.679C128.982 204.859 129.341 204.79 129.52 204.527C129.699 204.263 129.631 203.904 129.367 203.725Z" fill="#AA2829"/>
<path d="M120.783 201.977C120.52 201.798 120.161 201.866 119.982 202.13C119.803 202.394 119.871 202.752 120.134 202.932C120.398 203.111 120.757 203.042 120.936 202.779C121.115 202.515 121.047 202.156 120.783 201.977Z" fill="#AA2829"/>
<path d="M119.318 197.089C119.055 196.91 118.696 196.978 118.517 197.242C118.338 197.505 118.406 197.864 118.67 198.043C118.933 198.223 119.292 198.154 119.471 197.891C119.65 197.627 119.582 197.268 119.318 197.089Z" fill="#AA2829"/>
<path d="M127.406 185.924C127.143 185.744 126.784 185.813 126.605 186.076C126.426 186.34 126.494 186.699 126.757 186.878C127.021 187.057 127.38 186.989 127.559 186.725C127.738 186.462 127.67 186.103 127.406 185.924Z" fill="#AA2829"/>
<path d="M129.853 199.247C129.833 199.301 129.842 199.364 129.848 199.419C129.851 199.785 129.894 200.249 130.28 200.416C130.458 200.517 130.743 200.515 130.846 200.31C130.877 200.259 130.871 200.203 130.872 200.144C130.881 200.054 130.903 199.962 130.937 199.877C130.972 199.773 131.058 199.728 131.114 199.634C131.123 199.592 131.141 199.553 131.163 199.516C131.176 199.52 131.188 199.525 131.204 199.532C131.364 199.589 131.532 199.623 131.702 199.591C131.833 199.568 131.94 199.481 132.062 199.437C132.083 199.423 132.153 199.415 132.184 199.38C132.224 199.292 132.211 199.183 132.268 199.098C132.271 199.088 132.279 199.082 132.283 199.076C132.447 199.116 132.585 199.002 132.688 199.144C132.733 199.23 132.74 199.355 132.843 199.397C133.039 199.455 133.281 199.34 133.437 199.286C133.44 199.305 133.437 199.327 133.46 199.346C133.499 199.4 133.57 199.413 133.632 199.415C133.759 199.422 133.893 199.425 134.016 199.385C134.193 199.278 134.364 199.166 134.555 199.085C134.657 199.122 134.768 199.194 134.809 199.298C134.846 199.614 134.446 199.697 134.237 199.77C134.111 199.797 133.82 199.802 133.65 199.818C133.566 199.817 133.492 199.803 133.394 199.796C133.149 199.769 132.911 199.755 132.632 199.749C132.443 199.74 132.178 199.795 132.017 199.814C131.874 199.831 131.717 199.845 131.594 199.932C131.5 200.029 131.397 200.134 131.344 200.258C131.267 200.489 131.532 200.645 131.709 200.725C132.263 200.955 132.93 200.789 133.569 200.717C132.955 200.759 132.441 200.944 131.843 200.705C131.663 200.622 131.403 200.453 131.499 200.224C131.563 200.107 131.651 199.995 131.756 199.911C131.859 199.841 131.984 199.839 132.102 199.823C132.488 199.755 132.577 199.771 133.051 199.795C133.309 199.838 133.696 199.85 133.855 199.827C134.105 199.817 134.32 199.811 134.555 199.712C134.721 199.673 135.089 199.484 134.947 199.236C134.874 199.15 134.766 199.068 134.649 199.057C134.366 199.052 134.128 199.249 133.891 199.387C133.843 199.411 133.84 199.397 133.774 199.4C133.718 199.406 133.605 199.373 133.602 199.267C133.406 199.214 133.217 199.34 133.029 199.388C132.989 199.376 132.966 199.357 132.942 199.321C132.898 199.251 132.895 199.161 132.839 199.103C132.774 199.047 132.678 199.053 132.594 199.052C132.55 199.054 132.489 199.061 132.45 199.066C132.425 199.061 132.404 199.051 132.385 199.038C132.369 199.027 132.357 199.015 132.343 199.005C132.408 198.934 132.488 198.88 132.565 198.821C132.584 198.81 132.583 198.805 132.597 198.803C132.639 198.799 132.693 198.796 132.739 198.752C132.828 198.585 132.96 198.567 133.082 198.446C133.118 198.411 133.156 198.373 133.198 198.341C133.262 198.381 133.347 198.367 133.421 198.353C133.555 198.309 133.661 198.205 133.801 198.205C133.935 198.224 134.078 198.225 134.211 198.2C134.428 198.144 134.617 198.089 134.809 198.048C134.813 198.047 134.818 198.046 134.824 198.043C134.885 198.06 134.944 198.084 134.998 198.117C135.204 198.277 135.375 198.553 135.401 198.814C135.37 198.913 135.193 199.02 135.101 199.097C134.934 199.032 134.86 198.829 134.68 198.771C134.559 198.668 134.441 198.536 134.276 198.516C134.273 198.514 134.253 198.508 134.263 198.511C134.284 198.521 134.306 198.524 134.326 198.53C134.494 198.6 134.543 198.745 134.717 198.852C134.809 198.934 134.86 199.065 134.976 199.116C135.059 199.136 135.158 199.136 135.228 199.092C135.334 199.012 135.448 198.938 135.536 198.838C135.569 198.713 135.49 198.583 135.438 198.472C135.352 198.318 135.244 198.165 135.088 198.078C134.962 198.005 134.812 198.002 134.678 198.047C134.497 198.084 134.279 198.147 134.091 198.194C134.076 198.204 133.961 198.186 133.894 198.18C133.791 198.178 133.709 198.194 133.614 198.209C133.517 198.223 133.432 198.277 133.349 198.324C133.334 198.31 133.32 198.296 133.303 198.285C133.27 198.27 133.23 198.275 133.193 198.278C133.066 198.283 132.987 198.405 132.9 198.486C132.795 198.57 132.66 198.622 132.601 198.75C132.59 198.766 132.571 198.777 132.551 198.788C132.53 198.789 132.48 198.799 132.466 198.801C132.402 198.826 132.358 198.884 132.3 198.916C132.277 198.932 132.252 198.951 132.23 198.972C132.145 198.962 132.065 198.963 131.968 198.977C131.769 198.994 131.506 199.046 131.253 199.23C131.197 199.26 131.168 199.32 131.133 199.36C131.129 199.365 131.126 199.371 131.119 199.374C131.029 199.213 130.845 199.156 130.678 199.102C130.583 199.077 130.516 199 130.417 198.988C130.28 198.971 130.105 198.948 130.002 199.053C129.95 199.117 129.892 199.178 129.853 199.247ZM131.367 199.251C131.574 199.093 131.793 199.006 131.985 198.993C132.025 198.992 132.085 198.969 132.176 199.023C132.13 199.084 132.093 199.15 132.076 199.223C132.061 199.28 132.067 199.353 132.031 199.4C131.982 199.426 131.929 199.438 131.882 199.462C131.807 199.495 131.656 199.576 131.633 199.58C131.492 199.56 131.327 199.532 131.207 199.45C131.258 199.381 131.321 199.312 131.367 199.251ZM130.444 199.082C130.609 199.163 130.827 199.176 130.939 199.335C130.965 199.385 131 199.421 131.042 199.453C131.011 199.492 130.984 199.538 130.971 199.581C130.948 199.697 130.851 199.746 130.794 199.847C130.746 199.935 130.723 200.034 130.708 200.132C130.702 200.2 130.718 200.271 130.677 200.331C130.656 200.384 130.593 200.425 130.56 200.443C130.543 200.439 130.523 200.434 130.505 200.425C130.137 200.303 130.002 199.88 130.023 199.514C130.024 199.419 129.983 199.32 130.02 199.225C130.071 199.156 130.14 199.031 130.206 198.992C130.279 199.002 130.37 199.032 130.444 199.082Z" fill="#AA2829"/>
</svg>
