<svg width="973" height="508" viewBox="0 0 973 508" fill="none" xmlns="http://www.w3.org/2000/svg">
<path d="M726.228 338.094C721.991 330.281 731.446 316.063 748.259 306.939C765.072 297.815 798.962 301.972 785.995 317.068C778.907 325.32 764.581 321.699 755.338 328.504C735.641 343.009 730.465 345.907 726.228 338.094Z" fill="#E69264"/>
<path opacity="0.3608" d="M727.6 332.126C728.697 331.809 730.532 331.871 731.999 331.742C732.816 331.67 733.879 331.34 733.846 330.52C733.822 329.894 733.075 329.516 732.455 329.6C731.835 329.684 731.303 330.068 730.747 330.361C730.192 330.653 729.508 330.854 728.952 330.56C728.478 330.31 728.23 329.743 728.238 329.204C728.246 328.665 728.467 328.154 728.734 327.688C729.364 326.582 730.583 325.537 731.792 325.945C732.413 326.153 732.853 326.695 733.285 327.187C733.717 327.678 734.241 328.175 734.895 328.228C735.547 328.282 736.259 327.624 736.003 327.023C735.153 326.588 734.229 326.313 733.391 325.849C732.553 325.386 731.782 324.683 731.56 323.753C731.337 322.823 731.873 321.689 732.815 321.527C733.432 321.421 734.056 321.743 734.502 322.185C734.948 322.627 735.257 323.184 735.619 323.696C737.202 325.944 741.935 328.279 742.111 327.322C742.245 326.611 739.572 325.118 738.005 323.979C736.439 322.839 734.995 321.181 735.057 319.248C735.081 318.585 735.297 317.906 735.765 317.441C736.237 316.974 736.984 316.762 737.591 317.024C738.47 317.403 738.723 318.492 739.042 319.395C739.362 320.298 740.196 321.278 741.093 320.945C740.989 319.745 740.161 318.757 739.583 317.7C739.004 316.643 738.711 315.193 739.557 314.334C740.279 313.597 741.546 313.684 742.414 314.243C743.282 314.802 743.843 315.718 744.377 316.6C745.246 318.042 746.116 319.479 746.985 320.921C747.398 321.606 748.12 322.399 748.845 322.061C749.321 321.84 749.475 321.204 749.324 320.702C749.176 320.198 748.803 319.798 748.452 319.411C747.125 317.957 745.895 316.417 744.766 314.802C744.155 313.924 743.549 312.846 743.923 311.844C744.34 310.729 745.764 310.353 746.942 310.513C749.023 310.791 750.82 312.2 752.043 313.91C753.266 315.62 753.995 317.625 754.71 319.598C755.141 319.42 755.366 318.923 755.363 318.46C755.357 317.994 755.167 317.556 754.971 317.134C754.121 315.313 753.082 313.58 751.881 311.971C751.416 311.345 750.914 310.718 750.704 309.968C750.494 309.218 750.666 308.296 751.321 307.874C752.012 307.428 752.978 307.711 753.562 308.29C754.147 308.868 754.44 309.669 754.724 310.44C755.009 311.21 755.328 312.008 755.937 312.558C756.226 312.82 756.734 312.986 756.96 312.669C757.075 312.509 757.059 312.295 757.018 312.103C756.637 310.34 754.565 309.037 754.866 307.258C755.011 306.412 755.769 305.71 756.623 305.628C757.477 305.547 758.352 306.098 758.651 306.902C758.95 307.699 758.706 308.594 758.806 309.44C758.909 310.284 759.712 311.201 760.483 310.844C761.024 310.594 761.158 309.859 760.994 309.286C760.83 308.713 760.457 308.225 760.225 307.675C759.891 306.879 759.897 305.891 760.431 305.212C760.964 304.534 762.092 304.338 762.708 304.446C763.326 304.556 763.99 304.763 764.25 305.185C764.51 305.607 764.493 306.133 764.5 306.63C764.532 308.816 765.218 310.986 766.448 312.792C766.697 313.157 766.988 313.526 767.4 313.682C767.813 313.838 768.369 313.702 768.522 313.286C768.629 313 768.601 312.634 768.41 312.393C767.379 311.087 766.863 309.727 766.316 308.287C766.001 307.461 765.474 305.654 765.909 304.887C766.817 303.299 769.493 303.823 769.879 304.166C770.265 304.509 770.405 305.042 770.527 305.543C770.701 306.258 770.874 306.973 771.049 307.683C771.126 308.003 771.208 308.331 771.413 308.587C771.618 308.843 771.974 309.009 772.277 308.884C772.72 308.702 772.755 308.091 772.665 307.62C772.496 306.737 772.147 305.891 771.642 305.149C771.51 304.951 771.358 304.727 771.419 304.496C771.482 304.268 771.729 304.149 771.954 304.086C773.105 303.767 774.43 304.21 775.156 305.161C775.706 305.88 775.899 306.798 776.146 307.67C776.391 308.541 776.741 309.446 777.477 309.977C777.745 310.168 778.073 310.306 778.399 310.273C778.73 310.241 779.048 310.004 779.107 309.678C779.18 309.267 778.851 308.908 778.585 308.587C778.164 308.071 777.854 307.467 777.679 306.825C777.576 306.444 777.538 305.988 777.796 305.689C778.105 305.33 778.668 305.378 779.133 305.465C780.547 305.735 781.952 306.119 783.207 306.82C784.462 307.521 785.564 308.564 786.136 309.882C786.707 311.201 786.689 312.811 785.908 314.018C785.627 314.453 785.169 314.859 784.658 314.775C784.179 314.697 783.877 314.232 783.655 313.8C781.99 310.553 781.925 310.911 781.665 310.882C781.359 310.845 781.511 312.574 781.829 313.318C782.164 314.097 782.72 314.768 783.01 315.563C783.299 316.358 783.223 317.403 782.471 317.847C782.117 318.518 781.249 318.805 780.508 318.644C779.767 318.483 779.151 317.958 778.697 317.349C778.246 316.738 777.935 316.038 777.58 315.368C776.876 314.037 775.99 312.809 774.953 311.716C774.792 311.546 774.621 311.375 774.401 311.3C774.18 311.224 773.9 311.277 773.78 311.476C773.668 311.667 773.737 311.912 773.82 312.119C774.302 313.315 775.154 314.314 775.867 315.391C776.577 316.464 777.169 317.72 777.008 319C776.849 320.278 775.673 321.49 774.404 321.273C773.482 321.112 772.809 320.278 772.503 319.394C772.196 318.51 772.172 317.559 772.037 316.633C771.968 316.163 771.854 315.672 771.536 315.318C771.219 314.964 770.635 314.81 770.258 315.099C769.811 315.445 769.906 316.138 770.086 316.671C770.355 317.473 770.724 318.249 770.847 319.087C770.969 319.926 770.803 320.868 770.162 321.42C769.622 321.886 768.84 321.986 768.136 321.855C766.599 321.575 765.38 320.335 764.697 318.93C764.011 317.526 763.77 315.955 763.494 314.419C763.403 313.916 763.296 313.384 762.943 313.014C762.591 312.644 761.913 312.539 761.596 312.94C761.292 313.323 761.484 313.885 761.685 314.332C762.288 315.668 762.892 317.004 763.495 318.341C763.796 319.008 764.101 319.687 764.197 320.411C764.293 321.136 764.152 321.928 763.653 322.466C763.028 323.14 761.944 323.26 761.104 322.886C760.264 322.513 759.654 321.735 759.308 320.882C758.963 320.029 758.852 319.103 758.776 318.188C758.734 317.663 758.689 317.104 758.369 316.683C758.055 316.263 757.354 316.085 757.005 316.48C756.69 316.83 756.825 317.379 756.978 317.827C757.221 318.538 757.466 319.251 757.709 319.962C757.98 320.754 758.986 323.502 757.279 324.6C756.576 325.05 755.509 324.998 755.028 324.344C754.171 322.721 753.313 321.099 752.459 319.475C751.632 317.908 750.634 316.198 748.933 315.706C748.566 315.599 748.072 315.615 747.918 315.967C747.784 316.277 748.021 316.614 748.242 316.871C749.697 318.573 751.019 320.392 752.192 322.301C752.757 323.223 753.305 324.224 753.273 325.302C753.244 326.258 752.752 327.148 752.102 327.843C751.452 328.538 750.642 329.067 749.843 329.588C749.421 329.864 748.922 330.153 748.439 330.006C747.933 329.854 747.683 329.301 747.488 328.81C746.551 326.464 745.448 324.185 744.194 321.994C744.049 321.745 743.899 321.488 743.659 321.332C743.421 321.173 743.07 321.147 742.865 321.344C742.577 321.628 742.749 322.115 742.946 322.469C743.755 323.936 744.697 325.343 745.304 326.905C745.912 328.468 746.156 330.254 745.538 331.813C744.792 333.691 742.977 334.884 741.263 335.954C740.899 336.182 740.484 336.417 740.066 336.317C739.416 336.161 739.223 335.347 739.153 334.685C739.034 333.567 738.915 332.45 738.795 331.332C738.752 330.921 738.702 330.489 738.47 330.148C738.238 329.807 737.766 329.588 737.399 329.782C736.864 330.064 736.99 330.856 737.169 331.434C737.528 332.591 737.779 333.782 737.921 334.984C738.061 336.196 738.05 337.544 737.277 338.485C736.367 339.593 734.76 339.746 733.329 339.817C732.631 339.851 731.712 339.729 731.571 339.044C731.452 338.472 731.989 338.007 732.419 337.614C733.404 336.707 734.079 335.473 734.306 334.155C734.352 333.891 734.365 333.573 734.163 333.391C733.965 333.215 733.641 333.263 733.431 333.429C733.22 333.594 733.096 333.837 732.974 334.074C732.438 335.107 731.8 336.087 731.07 336.998C730.767 337.377 730.44 337.751 730.014 337.982C729.588 338.213 729.043 338.277 728.625 338.032C728.254 337.815 728.048 337.401 727.893 336.998C727.313 335.44 727.037 332.292 727.6 332.126Z" fill="#FDDFD3"/>
<path d="M730.631 335.486C730.893 335.304 730.958 334.945 730.777 334.683C730.595 334.421 730.236 334.355 729.974 334.536C729.712 334.718 729.647 335.077 729.828 335.339C730.01 335.601 730.369 335.667 730.631 335.486Z" fill="#AA2829"/>
<path d="M743.045 331.106C743.307 330.925 743.372 330.566 743.191 330.303C743.009 330.041 742.65 329.976 742.388 330.157C742.126 330.339 742.061 330.698 742.242 330.96C742.424 331.222 742.783 331.288 743.045 331.106Z" fill="#AA2829"/>
<path d="M740.744 323.867C741.006 323.685 741.071 323.326 740.89 323.064C740.709 322.802 740.349 322.736 740.088 322.918C739.826 323.099 739.76 323.458 739.942 323.72C740.123 323.983 740.482 324.048 740.744 323.867Z" fill="#AA2829"/>
<path d="M742.58 317.678C742.842 317.497 742.907 317.137 742.726 316.875C742.545 316.613 742.185 316.547 741.923 316.729C741.662 316.91 741.596 317.27 741.777 317.532C741.959 317.794 742.318 317.859 742.58 317.678Z" fill="#AA2829"/>
<path d="M746.924 313.666C747.186 313.485 747.251 313.125 747.07 312.863C746.888 312.601 746.529 312.535 746.267 312.717C746.005 312.898 745.94 313.258 746.121 313.52C746.303 313.782 746.662 313.847 746.924 313.666Z" fill="#AA2829"/>
<path d="M756.572 322.542C756.834 322.361 756.899 322.001 756.718 321.739C756.537 321.477 756.178 321.411 755.916 321.593C755.654 321.774 755.588 322.134 755.77 322.396C755.951 322.658 756.31 322.723 756.572 322.542Z" fill="#AA2829"/>
<path d="M758.701 314.746C758.963 314.564 759.028 314.205 758.847 313.943C758.666 313.681 758.306 313.615 758.045 313.797C757.783 313.978 757.717 314.337 757.899 314.6C758.08 314.862 758.439 314.927 758.701 314.746Z" fill="#AA2829"/>
<path d="M763.42 307.363C763.682 307.181 763.747 306.822 763.566 306.56C763.384 306.298 763.025 306.232 762.763 306.414C762.501 306.595 762.436 306.954 762.617 307.217C762.799 307.479 763.158 307.544 763.42 307.363Z" fill="#AA2829"/>
<path d="M768.506 307.756C768.768 307.575 768.833 307.215 768.652 306.953C768.47 306.691 768.111 306.626 767.849 306.807C767.587 306.988 767.522 307.348 767.703 307.61C767.885 307.872 768.244 307.937 768.506 307.756Z" fill="#AA2829"/>
<path d="M776.006 319.324C776.268 319.143 776.333 318.783 776.152 318.521C775.97 318.259 775.611 318.194 775.349 318.375C775.087 318.556 775.022 318.916 775.203 319.178C775.385 319.44 775.744 319.506 776.006 319.324Z" fill="#AA2829"/>
<path d="M762.702 316.811C762.659 316.773 762.598 316.759 762.543 316.744C762.202 316.616 761.753 316.489 761.459 316.789C761.3 316.919 761.2 317.185 761.354 317.355C761.39 317.402 761.444 317.417 761.5 317.439C761.58 317.48 761.658 317.534 761.725 317.596C761.809 317.666 761.82 317.763 761.887 317.849C761.924 317.872 761.953 317.904 761.98 317.937C761.972 317.947 761.963 317.957 761.951 317.97C761.84 318.099 761.747 318.243 761.716 318.413C761.69 318.544 761.733 318.675 761.73 318.805C761.735 318.829 761.718 318.897 761.739 318.939C761.807 319.008 761.914 319.035 761.972 319.119C761.98 319.125 761.983 319.135 761.987 319.141C761.891 319.28 761.947 319.449 761.778 319.494C761.681 319.505 761.563 319.467 761.486 319.548C761.362 319.71 761.382 319.977 761.376 320.142C761.357 320.139 761.338 320.128 761.312 320.142C761.247 320.159 761.21 320.221 761.185 320.278C761.133 320.394 761.082 320.518 761.075 320.647C761.112 320.851 761.154 321.051 761.161 321.258C761.089 321.34 760.983 321.418 760.871 321.419C760.563 321.339 760.629 320.936 760.636 320.714C760.657 320.588 760.757 320.314 760.803 320.149C760.834 320.072 760.874 320.008 760.916 319.918C761.029 319.699 761.128 319.483 761.234 319.224C761.311 319.051 761.355 318.784 761.395 318.627C761.43 318.487 761.474 318.336 761.437 318.189C761.381 318.067 761.32 317.933 761.223 317.839C761.035 317.684 760.794 317.875 760.656 318.011C760.243 318.446 760.157 319.128 759.994 319.75C760.176 319.162 760.188 318.616 760.627 318.143C760.768 318.005 761.02 317.824 761.199 317.996C761.285 318.097 761.358 318.22 761.398 318.348C761.426 318.469 761.383 318.587 761.355 318.703C761.28 319.088 761.233 319.165 761.041 319.599C760.907 319.824 760.757 320.181 760.721 320.338C760.64 320.575 760.568 320.778 760.576 321.033C760.552 321.202 760.596 321.613 760.879 321.57C760.986 321.532 761.101 321.461 761.153 321.356C761.26 321.094 761.161 320.8 761.118 320.529C761.114 320.476 761.127 320.479 761.148 320.416C761.163 320.362 761.234 320.268 761.335 320.303C761.454 320.14 761.405 319.917 761.428 319.725C761.453 319.691 761.479 319.677 761.521 319.668C761.602 319.652 761.687 319.682 761.762 319.65C761.838 319.61 761.866 319.517 761.897 319.44C761.912 319.398 761.927 319.339 761.937 319.3C761.95 319.279 761.967 319.263 761.986 319.25C762.002 319.239 762.018 319.232 762.031 319.223C762.075 319.309 762.096 319.403 762.124 319.496C762.127 319.518 762.132 319.518 762.129 319.532C762.117 319.573 762.101 319.624 762.125 319.683C762.249 319.827 762.218 319.956 762.287 320.114C762.307 320.16 762.329 320.209 762.343 320.259C762.283 320.305 762.265 320.39 762.252 320.463C762.245 320.604 762.303 320.74 762.253 320.871C762.187 320.99 762.134 321.122 762.11 321.256C762.084 321.479 762.067 321.675 762.036 321.869C762.036 321.873 762.035 321.878 762.036 321.885C761.998 321.935 761.954 321.982 761.905 322.02C761.681 322.155 761.362 322.215 761.109 322.145C761.028 322.081 760.992 321.877 760.953 321.764C761.074 321.631 761.289 321.635 761.409 321.488C761.548 321.412 761.714 321.349 761.792 321.203C761.795 321.201 761.808 321.184 761.801 321.192C761.784 321.208 761.774 321.228 761.761 321.244C761.635 321.376 761.482 321.369 761.32 321.494C761.21 321.55 761.07 321.55 760.98 321.64C760.932 321.71 760.896 321.803 760.912 321.884C760.948 322.012 760.976 322.145 761.038 322.263C761.142 322.339 761.292 322.312 761.415 322.303C761.59 322.278 761.771 322.233 761.908 322.118C762.022 322.027 762.078 321.888 762.085 321.747C762.115 321.565 762.135 321.339 762.158 321.146C762.154 321.129 762.213 321.028 762.243 320.967C762.282 320.872 762.297 320.789 762.316 320.695C762.338 320.6 762.318 320.501 762.305 320.406C762.323 320.398 762.341 320.389 762.357 320.378C762.383 320.352 762.393 320.313 762.404 320.277C762.445 320.157 762.36 320.039 762.315 319.929C762.275 319.801 762.275 319.656 762.177 319.555C762.166 319.539 762.163 319.517 762.16 319.495C762.166 319.475 762.175 319.424 762.177 319.41C762.178 319.342 762.139 319.28 762.13 319.214C762.123 319.187 762.114 319.157 762.103 319.129C762.143 319.053 762.171 318.977 762.193 318.882C762.249 318.69 762.295 318.426 762.214 318.124C762.207 318.061 762.161 318.013 762.137 317.965C762.133 317.96 762.129 317.955 762.128 317.947C762.311 317.921 762.431 317.77 762.541 317.633C762.598 317.554 762.694 317.519 762.741 317.43C762.806 317.309 762.891 317.154 762.83 317.02C762.789 316.948 762.752 316.873 762.702 316.811ZM762.154 318.222C762.227 318.473 762.229 318.708 762.172 318.892C762.158 318.93 762.158 318.994 762.075 319.06C762.035 318.995 761.986 318.937 761.925 318.895C761.877 318.86 761.807 318.84 761.776 318.789C761.769 318.734 761.777 318.68 761.772 318.627C761.768 318.546 761.747 318.376 761.751 318.353C761.821 318.228 761.906 318.085 762.026 318.002C762.072 318.075 762.113 318.158 762.154 318.222ZM762.643 317.422C762.509 317.547 762.418 317.746 762.23 317.793C762.174 317.799 762.128 317.819 762.082 317.846C762.057 317.804 762.024 317.762 761.989 317.734C761.889 317.671 761.878 317.562 761.804 317.473C761.74 317.397 761.655 317.339 761.569 317.29C761.508 317.26 761.437 317.25 761.396 317.19C761.353 317.151 761.338 317.077 761.333 317.041C761.342 317.026 761.355 317.009 761.369 316.995C761.616 316.696 762.059 316.722 762.392 316.873C762.48 316.908 762.587 316.907 762.663 316.975C762.709 317.047 762.8 317.156 762.813 317.232C762.777 317.297 762.716 317.371 762.643 317.422Z" fill="#AA2829"/>
</svg>
