<svg width="150" height="140" viewBox="0 0 150 140" fill="none" xmlns="http://www.w3.org/2000/svg">
<path d="M19.9231 38.8793L19.4276 39.3204L12.9315 44.9452C12.9315 44.9452 11.9957 61.8746 19.9231 80.6239C27.8505 99.3731 71.7264 107.259 95.1783 108.141C118.575 109.023 137.293 90.4948 138.173 67.4443C138.173 67.4443 96.995 79.2452 69.139 67.4443C41.2279 55.5881 19.9231 38.8793 19.9231 38.8793Z" fill="#CF4F26"/>
<path d="M96.7756 109.024C96.2251 109.024 95.6746 109.024 95.1241 108.968C69.9105 108.031 27.0255 99.5387 19.1532 80.8997C11.2258 62.1505 12.1066 45.0005 12.1066 44.8351C12.1066 44.6145 12.2167 44.3939 12.3819 44.2285L19.3734 38.1625C19.7037 37.8868 20.1441 37.8868 20.4194 38.1625C20.6396 38.328 41.9995 54.9265 69.4151 66.5621C77.5076 69.9811 87.582 71.7457 99.363 71.7457C119.457 71.7457 137.734 66.5621 137.899 66.507C138.174 66.4518 138.449 66.507 138.67 66.6724C138.89 66.8378 139 67.1136 139 67.3893C138.064 90.7707 119.567 109.024 96.7756 109.024ZM13.7582 45.3314C13.7031 47.868 13.5379 63.3637 20.6946 80.2932C28.2917 98.2152 70.406 106.377 95.1791 107.314C117.42 108.252 135.807 90.9361 137.238 68.5473C132.944 69.6502 116.814 73.5103 99.363 73.5103C87.3618 73.5103 77.0672 71.7457 68.7545 68.2164C43.596 57.5183 23.4472 42.6844 19.9239 39.9823L13.7582 45.3314Z" fill="#CF4F26"/>
<g opacity="0.3">
<path opacity="0.3" d="M69.0853 67.39C41.2293 55.589 19.9245 38.8801 19.9245 38.8801L19.429 39.3213L13.043 44.8358C13.5385 50.626 15.3552 56.2507 18.9335 61.1035C23.668 67.5003 30.2191 72.2979 37.2106 75.9374C53.8361 84.5952 73.1041 89.3376 91.7665 89.5582C96.5559 89.6133 103.547 88.8965 107.456 92.3154C111.034 95.4035 110.154 100.863 107.401 104.282C106.41 105.55 105.144 106.598 103.823 107.535C122.981 104.172 137.349 87.5178 138.065 67.39C138.12 67.39 96.9413 79.191 69.0853 67.39Z" fill="#8F001C"/>
</g>
<path d="M126.726 51.5627C119.9 48.1988 109.77 48.4194 102.118 48.0334C91.108 47.4819 80.2629 46.379 69.5279 44.5041C54.2787 41.8572 39.8002 26.4718 23.6151 32.0966C7.70521 37.6662 11.8891 52.1141 21.2478 60.7718C34.4602 73.014 53.8382 79.5762 73.2163 82.6643C90.2272 85.3664 112.633 86.359 128.047 78.5836C132.892 76.1572 137.792 70.367 138.177 65.6797C138.617 59.4484 133.002 54.6508 126.726 51.5627Z" fill="#BC3723"/>
<path d="M96.6119 85.4759C89.235 85.4759 81.2526 84.8141 72.9949 83.4906C50.0935 79.8511 32.4771 72.4065 20.586 61.3776C14.2 55.4771 11.007 48.0325 12.2732 41.9666C12.9889 38.6028 15.4662 33.9706 23.2284 31.2685C25.7057 30.3862 28.1831 30.0002 30.8255 30.0002C38.4226 30.0002 45.7444 33.6397 52.8461 37.169C58.2962 39.8711 63.9664 42.6835 69.5817 43.6761C79.8763 45.4959 90.5012 46.6539 102.117 47.2054C103.328 47.2605 104.594 47.3157 105.861 47.3708C113.017 47.5914 121.11 47.9222 127.055 50.8449C135.148 54.8153 139.332 60.1644 138.891 65.7892C138.451 71.1382 133.056 76.9836 128.321 79.3548C120.284 83.4355 109.604 85.4759 96.6119 85.4759ZM30.8806 31.7097C28.4583 31.7097 26.1462 32.0957 23.834 32.8677C18.1637 34.8529 14.8606 37.9962 13.9798 42.2975C12.8788 47.7017 15.9066 54.7051 21.7421 60.1093C33.1927 70.7522 51.0294 78.2519 73.2701 81.7812C81.4177 83.1046 89.2901 83.7664 96.6119 83.7664C109.329 83.7664 119.733 81.7812 127.606 77.8107C132.505 75.3844 136.909 69.7596 137.24 65.6237C137.79 58.9512 130.634 54.4293 126.34 52.2787C120.724 49.5214 112.852 49.2457 105.861 49.0251C104.539 48.97 103.273 48.9149 102.062 48.8597C90.4461 48.3083 79.7111 47.1502 69.3615 45.3304C63.526 44.2827 57.7456 41.4152 52.1855 38.6579C45.249 35.2389 38.0923 31.7097 30.8806 31.7097Z" fill="#9F2F0D"/>
<path d="M135.752 71.5245C136.248 67.4438 135.202 63.3079 131.734 60.6058C127.109 56.9663 120.944 56.6354 115.273 56.9663C103.492 57.6832 91.7663 60.0544 79.9302 57.6831C66.2775 54.9259 55.4874 46.213 42.5504 41.636C36.2745 39.4302 28.6224 37.3347 22.4016 40.9743C17.6672 43.7315 14.8045 48.0879 15.1348 53.1613C16.6212 55.9185 18.6581 58.5103 21.0804 60.7713C34.2927 73.0134 53.6708 79.5756 73.0488 82.6637C90.0597 85.3658 112.466 86.3584 127.88 78.583C130.908 77.1493 133.826 74.4472 135.752 71.5245Z" fill="#690004"/>
<path d="M20.4212 43.5129L18.9899 44.9466C18.9899 44.9466 17.9439 58.016 28.1284 70.5338C38.3129 83.0517 85.602 95.4041 104.264 93.088C122.872 90.772 128.487 75.4968 128.872 68.4934C128.872 68.4934 122.211 60.0012 111.806 65.6259C101.402 71.2507 104.264 65.9568 104.264 65.9568C104.264 65.9568 102.448 55.8102 96.2269 53.2735L75.5276 66.2325C75.5276 66.2325 72.6099 51.5089 65.5633 46.215L44.4786 55.1484C44.4786 55.1484 44.6438 43.8437 39.2488 37.5021L20.4212 43.5129Z" fill="#E7697D"/>
<path d="M99.0895 94.1341C77.0139 94.1341 36.8264 82.4985 27.5228 71.0284C17.2282 58.4003 18.109 45.3861 18.164 44.8898C18.164 44.6692 18.2741 44.5038 18.3842 44.3383L19.8156 42.9046C19.9257 42.8494 20.0358 42.7391 20.2009 42.7391L39.0285 36.6181C39.3588 36.5078 39.6891 36.6181 39.9093 36.8938C44.4235 42.1877 45.1942 50.6248 45.3043 53.8232L65.2329 45.3309C65.5082 45.2207 65.8385 45.2758 66.0587 45.4412C72.1143 50.0183 75.1972 61.1024 76.078 64.7419L95.7864 52.4446C96.0066 52.2792 96.2819 52.2792 96.5572 52.3895C103.108 55.0916 105.035 65.2934 105.09 65.7345C105.145 65.8999 105.09 66.1205 104.98 66.286C104.76 66.672 104.705 67.1131 104.76 67.2786C104.76 67.2786 104.87 67.3337 105.09 67.3337C105.861 67.3337 107.622 66.8926 111.421 64.8522C113.898 63.5287 116.376 62.8118 118.798 62.8118C125.404 62.8118 129.368 67.7197 129.533 67.9403C129.643 68.1057 129.698 68.3263 129.698 68.4918C129.368 74.7231 124.138 91.432 104.319 93.9135C102.833 94.0789 101.071 94.1341 99.0895 94.1341ZM19.8156 45.2758C19.7605 47.261 19.8156 58.8966 28.7889 69.9255C37.5972 80.7891 77.6195 92.4246 99.0895 92.4246C100.961 92.4246 102.668 92.3143 104.154 92.1489C110.43 91.3769 126.89 85.6418 128.047 68.6572C127.221 67.7197 123.863 64.411 118.853 64.411C116.706 64.411 114.504 65.0176 112.247 66.2308C108.889 68.0506 106.576 68.9329 105.145 68.9329C104.099 68.9329 103.604 68.4918 103.384 68.0506C102.888 67.2234 103.218 66.2308 103.439 65.7345C103.108 64.1905 101.237 56.4702 96.3369 54.099L75.9679 66.7823C75.7477 66.9477 75.4174 66.9477 75.1972 66.8374C74.922 66.7271 74.7568 66.5065 74.7018 66.2308C74.6467 66.0654 71.8391 52.3343 65.4531 47.0404L44.8089 55.8085C44.5336 55.9187 44.2584 55.8636 44.0382 55.7533C43.818 55.5879 43.6528 55.3122 43.6528 55.0364C43.6528 54.9261 43.7079 44.5038 38.9734 38.3827L20.8615 44.2281L19.8156 45.2758Z" fill="#F9D6C7"/>
<path opacity="0.4" d="M115.77 69.4296C115.715 69.3193 115.715 69.209 115.715 69.0988C115.715 68.9885 115.77 68.9333 115.77 68.8782C115.77 68.437 115.715 67.9959 115.605 67.4996C115.44 66.7827 116.266 66.3415 116.761 66.6173C118.413 64.9078 121.606 64.7423 124.799 65.1835C121.826 63.5843 117.367 62.5917 111.807 65.5695C101.402 71.1943 104.265 65.9004 104.265 65.9004C104.265 65.9004 102.448 55.7537 96.2271 53.2171L75.5278 66.1761C75.5278 66.1761 72.6101 51.4524 65.5635 46.1586L44.4788 55.092C44.4788 55.092 44.644 43.7873 39.249 37.4457L24.8806 42.133C23.6144 48.0886 23.8896 54.2648 25.376 60.1653C26.2568 63.7497 27.7983 67.0033 28.9544 70.4774C29.1195 70.9185 29.3397 71.47 29.5599 72.0766C31.1564 73.6206 33.3034 75.1095 35.7807 76.5984C34.2393 74.5029 32.9181 72.3523 31.817 69.8156C29.3397 64.1357 26.5872 57.6287 30.7711 52.2796C30.7711 52.1693 30.716 52.0039 30.716 51.8936C30.6059 50.901 32.0923 50.515 32.2024 51.4524C32.4226 52.8862 32.863 54.8714 34.2943 55.5883C35.9459 56.4155 37.7075 55.3677 39.4692 55.3677C40.4601 55.3677 40.4601 56.9118 39.4692 56.9118C39.304 56.9118 39.0838 56.9118 38.9187 56.9118C39.0838 57.0772 39.1389 57.2426 39.1389 57.4632C38.7535 65.5695 39.6894 73.4001 43.598 80.4586C48.993 82.8298 55.2689 85.0907 61.765 86.9657C59.7281 83.9879 58.2967 80.5137 57.3609 77.0948C56.48 73.7309 55.9295 70.2017 56.1497 66.7275C56.48 62.3711 57.5811 58.3455 56.0396 54.0994C55.7093 53.1619 57.1957 52.7759 57.526 53.6582C58.2417 55.5883 58.4068 57.4632 58.3518 59.3933C58.5169 59.4484 58.627 59.6139 58.6821 59.8344C59.4528 63.3086 61.6549 66.1761 64.8478 67.7753C68.7565 69.7054 72.0596 69.8708 75.693 67.279C76.5187 66.6724 77.2894 68.051 76.4637 68.6025C76.3536 68.6576 76.2435 68.7127 76.1334 68.823C74.702 73.8412 75.3076 78.5285 76.0233 83.6018C76.3536 85.9731 76.7389 88.2891 75.8581 90.4949C81.8587 91.7633 87.6941 92.6456 92.869 93.0316C90.9972 90.3295 89.8962 86.9657 89.2906 83.7121C88.6851 80.3483 88.2447 76.7639 88.9603 73.4001C89.7861 69.5399 91.6028 65.0732 88.2447 61.8748C87.529 61.1579 88.63 60.1102 89.3457 60.7719C90.0063 61.4336 90.5018 62.0954 90.8871 62.8123C91.0523 62.8674 91.1624 62.9777 91.2725 63.1431C94.4655 68.7679 100.906 68.2164 106.412 69.4848C106.852 69.5951 107.182 70.2017 106.852 70.6428C101.897 77.7014 108.283 84.9805 107.733 92.3699C110.596 91.7081 113.128 90.6604 115.33 89.4472C114.394 86.6899 113.733 83.8776 113.568 81.01C113.458 76.9845 115.715 73.3449 115.77 69.4296Z" fill="#E7697D"/>
<path d="M128.984 60.3314C125.901 52.3354 117.038 56.1956 112.468 59.78C111.092 60.8278 109.826 62.0409 108.505 63.199C106.743 64.743 103.44 67.5003 101.458 65.1291C100.247 63.6953 100.798 60.7175 100.467 58.9528C99.0359 51.3428 93.6409 51.0671 87.5853 54.0449C83.071 56.2507 69.088 68.9892 68.8678 56.8573C68.7577 52.0597 69.6936 49.4128 65.6198 46.1592C62.5919 43.7329 57.3621 45.6078 54.2792 46.7658C52.4625 47.4827 50.4256 48.1445 48.719 49.1371C45.1957 51.1223 38.5896 54.431 39.4704 47.8136C40.131 42.9608 42.4982 36.4538 35.3415 35.7369C30.6622 35.2406 23.6706 37.5567 20.6428 41.2514C19.3766 42.7954 18.0554 45.6078 20.0372 47.0416C22.1842 48.5856 25.7075 45.9938 27.7995 45.5526C33.3046 44.4498 31.6531 48.1444 30.2217 51.398C28.4051 55.203 27.6894 57.9051 30.2217 61.4343C36.9931 70.6435 59.0687 41.0859 56.9767 63.1438C55.9307 74.3382 64.2435 76.9852 73.4921 73.0148C78.1715 71.0295 82.4655 64.9636 87.31 64.0262C91.8242 63.1438 89.9525 71.4707 89.7323 73.6213C89.402 77.316 93.6409 78.9152 96.4485 79.191C101.899 79.7424 105.807 75.3308 109.275 71.8567C110.266 70.8641 113.129 67.5003 114.781 68.3826C117.588 69.9267 113.955 74.3934 114.891 76.6543C116.818 81.5071 124.305 76.1028 125.901 74.0073C128.764 70.3678 130.69 64.8533 128.984 60.3314Z" fill="#EC8C8A"/>
<path d="M97.439 80.0173C97.1087 80.0173 96.7784 80.0173 96.4481 79.9622C92.5945 79.5761 88.6308 77.4255 88.9611 73.5102C88.9611 73.1794 89.0712 72.7933 89.1263 72.2419C89.4015 70.367 89.952 66.3965 88.851 65.1282C88.5758 64.7973 88.1353 64.687 87.4747 64.7973C84.9974 65.2936 82.465 67.3892 80.0428 69.3744C78.0609 71.0839 75.969 72.7933 73.7669 73.7308C71.0144 74.8888 68.3169 75.4954 65.8946 75.4954C62.8117 75.4954 60.2243 74.5028 58.5177 72.5728C56.5359 70.367 55.7101 67.1134 56.0955 62.9776C56.5359 58.566 55.8753 56.8013 55.2697 56.0845C53.7282 54.4301 49.3792 56.8565 45.1953 59.338C41.2866 61.6541 37.2128 64.0253 33.9098 64.0253C32.038 64.0253 30.6067 63.3084 29.5057 61.8747C26.5329 57.794 27.689 54.5404 29.3956 50.956C30.0562 49.4119 31.0471 47.151 30.6067 46.4341C30.4415 46.1584 29.836 46.1033 29.4506 46.1033C29.0102 46.1033 28.5147 46.1584 27.9092 46.2687C27.3587 46.379 26.5879 46.7099 25.8172 47.0407C24.496 47.5922 23.0096 48.2539 21.5783 48.2539C20.7525 48.2539 20.0368 48.0333 19.4313 47.5922C18.6605 47.0407 18.2201 46.2687 18.055 45.3864C17.8348 43.732 18.8257 41.802 19.8166 40.5888C22.9545 36.7838 29.3956 34.6883 33.8547 34.6883C34.3502 34.6883 34.7906 34.6883 35.231 34.7434C37.378 34.964 38.9194 35.736 39.8553 36.9492C41.5619 39.2102 40.9563 42.6291 40.4058 45.6621C40.2957 46.379 40.1306 47.0959 40.0755 47.7576C39.9104 48.9708 40.0205 49.8531 40.4058 50.2943C40.626 50.57 41.0114 50.6803 41.5619 50.6803C43.5988 50.6803 46.8468 48.8605 48.058 48.1988C49.5443 47.3716 51.1959 46.765 52.7373 46.1584L53.7283 45.7724C56.0955 44.8901 58.9031 43.9526 61.4905 43.9526C63.2521 43.9526 64.7385 44.3938 65.8946 45.3312C69.6381 48.309 69.583 50.8457 69.4729 54.4301C69.4729 55.147 69.4729 55.8639 69.4729 56.691C69.528 60.9923 71.4548 61.0475 72.1705 61.0475C75.0331 61.0475 79.6574 57.9042 83.0156 55.6433C84.6121 54.5956 85.9333 53.6581 86.9242 53.1618C89.4015 51.9486 91.6586 51.2869 93.5854 51.2869C96.338 51.2869 99.8062 52.5552 100.962 58.6763C101.072 59.338 101.127 60.11 101.127 60.8821C101.127 62.2055 101.183 63.7496 101.788 64.4665C102.118 64.9076 102.559 65.0731 103.054 65.0731C104.651 65.0731 106.743 63.2533 107.679 62.4261L108.78 61.4335C109.715 60.6063 110.651 59.7792 111.642 58.952C114.285 56.8565 118.469 54.6507 122.212 54.6507C125.625 54.6507 128.103 56.4705 129.424 59.8895C131.406 65.0179 128.983 70.9184 126.341 74.3925C125.075 76.0469 120.781 79.3004 117.533 79.3004C115.826 79.3004 114.56 78.4181 113.899 76.8189C113.404 75.6057 113.844 74.1168 114.285 72.683C114.945 70.5324 115.11 69.4295 114.175 68.9332C114.12 68.9332 114.065 68.8781 113.954 68.8781C112.908 68.8781 110.927 70.9184 110.101 71.7456C109.936 71.9662 109.715 72.1316 109.605 72.2419L108.78 73.0691C105.972 76.4329 102.339 80.0173 97.439 80.0173ZM87.9702 63.0878C88.851 63.0878 89.5667 63.4187 90.1172 64.0253C91.7137 65.8451 91.1081 69.9809 90.7778 72.4625C90.7227 72.9588 90.6677 73.3448 90.6127 73.6205C90.3374 76.8189 94.4112 78.0321 96.5582 78.2527C101.238 78.6938 104.761 75.1094 107.899 71.9662L108.725 71.139C108.835 71.0287 109 70.8633 109.165 70.6427C110.816 68.9332 112.578 67.2789 114.23 67.2789C114.615 67.2789 114.945 67.3891 115.221 67.5546C117.478 68.7678 116.762 71.2493 116.156 73.2896C115.826 74.4477 115.441 75.6057 115.716 76.2675C116.101 77.2601 116.762 77.7012 117.753 77.7012C120.395 77.7012 124.249 74.7234 125.24 73.4551C127.662 70.3118 129.809 65.0731 128.103 60.6063C127.002 57.794 125.185 56.4153 122.432 56.4153C119.129 56.4153 115.331 58.4557 112.908 60.3858C111.973 61.1578 111.037 61.985 110.101 62.757L109 63.7496C107.293 65.2385 105.256 66.7826 103.33 66.7826C102.339 66.7826 101.458 66.3414 100.742 65.5694C99.7512 64.4113 99.7512 62.5364 99.6961 60.9372C99.6961 60.2203 99.6961 59.5034 99.586 59.0071C98.8153 54.9816 96.9436 52.9964 93.8056 52.9964C92.1541 52.9964 90.1172 53.5478 87.8601 54.6507C86.9793 55.0919 85.658 55.9742 84.1166 57.0219C80.3731 59.5586 75.7488 62.7018 72.3356 62.7018C70.3538 62.7018 68.0416 61.6541 67.9315 56.7462C67.9315 55.919 67.9315 55.147 67.9315 54.4301C67.9865 51.0111 68.0416 49.1362 64.9587 46.7098C64.133 46.0481 63.0319 45.7172 61.6006 45.7172C59.2884 45.7172 56.701 46.5996 54.4439 47.4267L53.453 47.8127C51.9116 48.3642 50.3701 48.9708 48.9938 49.7428C46.7367 51.0111 43.8741 52.4449 41.672 52.4449C40.626 52.4449 39.8003 52.114 39.2497 51.4523C38.5341 50.6251 38.2588 49.3568 38.5341 47.5922C38.6442 46.8753 38.7543 46.1584 38.9194 45.3864C39.4149 42.574 39.9654 39.6513 38.6992 37.997C38.0937 37.2249 36.9376 36.6735 35.231 36.5081C34.8456 36.4529 34.4052 36.4529 34.0199 36.4529C29.891 36.4529 24.0005 38.4381 21.248 41.6917C20.4772 42.6843 19.7065 44.118 19.8717 45.1658C19.9267 45.607 20.1469 45.9378 20.5323 46.2135C21.5783 46.9304 23.5601 46.2135 25.2667 45.4967C26.1475 45.1107 26.9733 44.7798 27.689 44.6144C30.0011 44.1732 31.4325 44.4489 32.1481 45.4967C33.084 46.9856 32.0931 49.3017 31.1021 51.5626C29.1754 55.533 28.7349 57.7939 30.992 60.8269C31.7628 61.8747 32.6986 62.3158 34.0199 62.3158C36.8825 62.3158 40.7361 60.0549 44.4796 57.8491C48.0029 55.7536 51.361 53.7684 53.8934 53.7684C54.9944 53.7684 55.9303 54.1544 56.646 54.9264C57.9122 56.305 58.2975 58.8968 57.9122 63.0878C57.5818 66.7274 58.2425 69.5949 59.894 71.4147C62.4814 74.2271 67.6562 74.5028 73.2715 72.1316C75.1983 71.3044 77.1801 69.6501 79.1069 68.0509C81.6943 65.9002 84.3368 63.6393 87.2545 63.0878C87.4747 63.143 87.75 63.0878 87.9702 63.0878Z" fill="#F9D6C7"/>
<path opacity="0.4" d="M62.8658 59.9995C63.0309 55.4225 63.8567 49.9632 63.3613 45.1105C60.3885 44.5039 56.645 45.8273 54.2778 46.7096C52.4611 47.4265 50.4242 48.0883 48.7176 49.0809C45.3595 50.9558 39.1387 54.099 39.4139 48.5294V48.5846C38.8084 52.0035 39.524 55.4777 39.7442 58.8966C39.7993 59.7238 39.8543 60.6061 39.9094 61.4333C48.4974 57.1872 58.5167 47.9228 57.0854 63.0876C56.4798 69.2639 58.7369 72.7931 62.4254 74.1166C62.4804 69.4293 62.7006 64.742 62.8658 59.9995Z" fill="#EC8C8A"/>
<path opacity="0.4" d="M128.982 60.3314C125.899 52.3354 117.036 56.1956 112.467 59.78C111.09 60.8277 109.824 62.0409 108.503 63.199C106.741 64.743 103.438 67.5003 101.456 65.129C100.796 64.357 100.686 63.0887 100.631 61.8755C100.576 63.8056 100.465 65.7908 100.41 67.6105C100.3 71.3052 100.3 75.0551 100.245 78.805C103.879 77.6469 106.741 74.5037 109.439 71.9118C110.43 70.9192 113.292 67.5554 114.944 68.4377C117.752 69.9818 114.118 74.4485 115.054 76.7094C116.981 81.5622 124.468 76.158 126.064 74.0625C128.762 70.3678 130.689 64.8533 128.982 60.3314Z" fill="#EC8C8A"/>
<path opacity="0.4" d="M91.9879 52.3901C90.6116 52.6658 89.0702 53.2172 87.5288 53.9341C83.2898 56.0296 70.7381 67.2792 69.0315 58.7317C68.9214 63.9153 68.8113 69.1541 68.9765 74.3377C70.4628 74.062 71.9492 73.5657 73.5457 72.9039C78.2251 70.9187 82.5191 64.8528 87.3636 63.9153C91.8778 63.033 90.0061 71.3599 89.7859 73.5105C89.6207 75.22 90.4465 76.4883 91.7127 77.3707C91.7677 69.0989 91.9879 60.7721 91.9879 52.3901Z" fill="#EC8C8A"/>
<path d="M21.1924 69.2092C21.1924 69.2092 18.4949 66.3968 20.4217 73.5105C22.3485 80.6241 27.193 89.1716 34.9002 91.2671C42.6624 93.4177 29.5052 73.8413 21.1924 69.2092Z" fill="#E48567"/>
</svg>
