<svg width="150" height="140" viewBox="0 0 150 140" fill="none" xmlns="http://www.w3.org/2000/svg">
<path d="M15.3389 37.7808C15.3389 37.7808 13.0088 51.8683 15.0893 65.039C17.1697 78.2096 39.9712 114.471 87.1553 114.054C134.339 113.637 135.921 81.6273 135.671 71.2075L15.3389 37.7808Z" fill="#CF4F26"/>
<path d="M86.3244 115.305C40.3054 115.305 16.1724 79.9611 13.8423 65.2067C11.7619 51.9527 14.0087 38.1152 14.0919 37.5317C14.1752 37.1982 14.3416 36.8648 14.6745 36.6981C15.0073 36.5314 15.3402 36.448 15.6731 36.5314L136.005 69.9581C136.504 70.1248 136.92 70.625 136.92 71.1251C137.253 83.7122 133.592 94.2988 126.435 101.801C117.947 110.554 104.799 115.138 87.2398 115.305H86.3244ZM16.3388 39.3655C15.8395 43.2 14.6745 54.3701 16.3388 64.7899C18.5857 78.8774 41.8033 112.721 86.3244 112.721H87.1566C104.05 112.554 116.615 108.303 124.604 100.05C131.178 93.2151 134.59 83.6289 134.424 72.1254L16.3388 39.3655Z" fill="#CF4F26"/>
<path d="M135.589 71.2087L19.4181 38.949C22.5803 48.2851 28.4888 56.871 35.9783 64.2066C44.2168 72.1256 53.2043 78.1274 63.6896 82.7121C69.5981 85.2963 80.5827 87.8804 80.2499 96.0495C79.6674 108.22 57.7812 102.802 50.9574 100.968C43.9671 99.1338 37.393 96.1328 31.4846 92.1316C43.3014 103.885 61.6924 114.305 87.0737 114.138C134.341 113.638 135.922 81.6285 135.589 71.2087Z" fill="#B4371C"/>
<path d="M125.853 56.2866C119.445 52.3688 109.542 51.6185 102.136 50.5349C91.4009 48.9511 80.9156 46.8671 70.5966 44.0329C55.9504 39.9484 43.2182 23.6101 26.8244 27.528C10.7635 31.4458 13.5097 46.0335 21.8314 55.3697C33.565 68.6237 51.956 76.7928 70.5966 81.7109C86.9904 85.9622 108.793 89.0465 124.605 82.878C129.598 80.9607 134.924 75.7091 135.672 71.2078C136.754 65.1226 131.678 59.9544 125.853 56.2866Z" fill="#BC3723"/>
<path d="M103.136 87.6298C90.7367 87.6298 78.4205 85.0457 70.182 82.9617C48.0463 77.21 31.4029 68.2073 20.7511 56.287C14.9259 49.7851 12.5126 42.0327 14.3433 36.1143C15.3419 32.7799 18.3378 28.3619 26.4098 26.3613C28.1574 25.9445 29.9882 25.6945 31.8189 25.6945C40.3071 25.6945 47.7966 30.3625 55.1197 34.9472C60.196 38.1149 65.4387 41.3658 70.7646 42.8663C80.6674 45.6171 90.9031 47.7011 102.221 49.3683C103.386 49.535 104.634 49.7017 105.882 49.8684C112.872 50.7853 120.861 51.869 126.437 55.2867C134.176 60.0381 137.838 65.7899 136.839 71.5416C135.924 76.8765 129.932 82.2115 124.939 84.1287C118.947 86.3794 111.541 87.6298 103.136 87.6298ZM31.9022 28.1952C30.321 28.1952 28.6567 28.3619 27.0756 28.7787C21.5 30.1125 18.0881 32.8633 16.8398 36.7811C15.2587 41.7826 17.5888 48.7847 22.6651 54.5365C32.8175 65.9566 49.461 74.8759 70.7646 80.461C78.8366 82.5449 90.9863 85.0457 103.053 85.0457C111.208 85.0457 118.198 83.8786 124.024 81.7113C128.85 79.8774 133.677 74.8759 134.343 71.0415C135.424 64.8729 129.017 59.8714 125.105 57.454C119.946 54.2864 112.29 53.2861 105.549 52.3692C104.301 52.2024 103.053 52.0357 101.805 51.869C90.487 50.2018 80.0849 48.0345 70.0988 45.2837C64.4401 43.6999 59.0309 40.3655 53.7883 37.1146C46.8812 32.6966 39.6414 28.1952 31.9022 28.1952Z" fill="#9F2F0D"/>
<path d="M132.843 76.7105C133.675 72.7927 133.093 68.6248 129.93 65.6239C125.769 61.6227 119.778 60.7057 114.202 60.539C102.635 60.1222 90.9015 61.2892 79.5839 57.8715C66.5188 53.9537 56.7824 44.3675 44.5495 38.6991C38.6411 35.9482 31.318 33.1974 24.9102 36.115C20.0004 38.3656 16.755 42.3668 16.6717 47.3684C17.8368 50.2025 19.6676 52.9534 21.748 55.3708C33.4816 68.6248 51.8726 76.7939 70.5133 81.712C86.9071 85.9633 108.71 89.0476 124.521 82.8791C127.517 81.712 130.596 79.378 132.843 76.7105Z" fill="#8F001C"/>
<path d="M22.6649 38.4479L21.167 39.6983C21.167 39.6983 18.9201 52.3688 27.7412 65.5394C36.5622 78.7101 81.6659 95.2984 100.057 94.7149C118.531 94.2147 125.438 79.7937 126.437 72.9583C126.437 72.9583 120.695 64.039 110.043 68.5403C99.3912 73.0417 102.637 68.1235 102.637 68.1235C102.637 68.1235 101.804 58.0372 95.9793 54.9529L74.426 65.7061C74.426 65.7061 72.9281 51.0351 66.6036 45.2L45.1336 51.952C45.1336 51.952 46.3818 40.9487 41.7217 34.1967L22.6649 38.4479Z" fill="#E7697D"/>
<path d="M99.1408 96.0486C79.0855 96.0486 35.3964 79.3769 26.6586 66.2896C17.6712 52.7856 19.8348 40.0317 19.9181 39.5316C20.0013 39.1982 20.1677 38.9481 20.3341 38.7814L21.832 37.531C21.9985 37.3643 22.1649 37.2809 22.3314 37.1976L41.3049 33.0296C41.8042 32.9463 42.3035 33.113 42.6363 33.5298C46.3811 38.9481 46.5476 46.7004 46.4643 50.2848L66.1868 44.0329C66.6029 43.8662 67.1022 44.0329 67.4351 44.283C72.761 49.2012 74.8414 59.621 75.4239 63.7889L95.3128 53.8692C95.6457 53.7025 96.0618 53.7025 96.4779 53.8692C102.802 57.2036 103.801 67.6234 103.801 68.0402C103.801 68.2902 103.718 68.6237 103.551 68.8738C103.468 68.9571 103.468 69.0405 103.385 69.2072C104.217 69.2072 105.798 68.9571 109.46 67.3733C111.623 66.4564 113.787 65.9562 115.784 65.9562C123.274 65.9562 127.268 71.958 127.435 72.2081C127.601 72.4582 127.684 72.7916 127.601 73.125C126.27 82.0444 117.782 95.4651 99.973 95.9652C99.7234 96.0486 99.4737 96.0486 99.1408 96.0486ZM22.3314 40.3652C22.0817 42.6992 21.2495 53.6192 28.7391 64.8726C36.9776 77.2096 80.0841 93.5478 99.1408 93.5478H99.973C117.615 93.0477 123.94 79.2936 125.021 73.3751C124.106 72.2081 120.944 68.6237 115.784 68.6237C114.037 68.6237 112.289 69.0405 110.458 69.7907C107.296 71.1244 104.966 71.7913 103.468 71.7913C101.97 71.7913 101.305 71.1244 101.055 70.6243C100.556 69.624 100.972 68.5403 101.221 67.9568C100.972 66.2063 99.8898 59.2042 95.8122 56.4533L74.9246 66.8731C74.5918 67.0399 74.0925 67.0399 73.7596 66.8731C73.4267 66.7064 73.1771 66.2896 73.0939 65.8729C73.0939 65.7061 71.6792 52.4521 66.1868 46.7004L45.4657 53.2024C45.0496 53.2857 44.6336 53.2024 44.3007 52.9523C43.9678 52.7022 43.8014 52.2854 43.8846 51.8686C43.8846 51.7853 44.8832 41.949 41.1384 35.6971L23.33 39.6149L22.3314 40.3652Z" fill="#F9D6C7"/>
<path opacity="0.4" d="M113.454 72.7914C113.454 72.708 113.371 72.5413 113.454 72.4579C113.454 72.3746 113.537 72.2912 113.537 72.2079C113.537 71.7911 113.537 71.2909 113.537 70.8741C113.454 70.1239 114.286 69.7905 114.786 70.1239C116.533 68.6234 119.695 68.7902 122.774 69.457C120.028 67.6231 115.701 66.206 110.042 68.6234C99.3904 73.1248 102.636 68.2066 102.636 68.2066C102.636 68.2066 101.804 58.1203 95.9785 55.036L74.4253 65.7059C74.4253 65.7059 72.9273 51.0348 66.6028 45.1997L45.1328 51.9518C45.1328 51.9518 46.3811 40.9484 41.7209 34.1964L27.2411 37.364C25.4103 43.0324 25.1607 49.1176 26.0761 55.1194C26.5754 58.7038 27.8236 62.0381 28.6558 65.5392C28.739 65.956 28.9887 66.5395 29.1551 67.123C30.5698 68.7902 32.4838 70.4573 34.8139 72.1245C33.4824 69.9572 32.4006 67.7065 31.5684 65.1224C29.6544 59.3707 27.574 52.702 32.2341 47.8672C32.2341 47.7838 32.2341 47.6171 32.2341 47.5338C32.2341 46.5335 33.6488 46.2834 33.732 47.2837C33.8153 48.7008 34.0649 50.7014 35.3964 51.535C36.9775 52.5353 38.8083 51.6183 40.4726 51.8684C41.4712 51.9518 41.3048 53.4522 40.3062 53.3688C40.1398 53.3688 39.9733 53.3688 39.8069 53.3688C39.8901 53.5356 39.9733 53.7023 39.8901 53.869C38.7251 61.7047 38.9747 69.5404 42.0538 76.7926C47.13 79.6267 53.0384 82.3776 59.1965 84.8783C57.4489 81.7107 56.3671 78.293 55.7846 74.792C55.2021 71.4576 55.0356 67.9566 55.6182 64.5389C56.3671 60.2876 57.7818 56.4531 56.7 52.2018C56.4503 51.2849 57.9482 50.9515 58.1979 51.9518C58.6972 53.869 58.6972 55.7862 58.4475 57.6201C58.614 57.7035 58.6972 57.8702 58.7804 58.1203C59.1965 61.6213 61.0273 64.6222 64.1063 66.4561C67.7679 68.7068 71.0133 69.207 74.7581 66.9563C75.5903 66.4561 76.256 67.8732 75.4238 68.3734C75.3406 68.4567 75.1742 68.4567 75.091 68.5401C73.177 73.2915 73.4266 77.9596 73.5931 82.9611C73.6763 85.3785 73.8427 87.6292 72.7609 89.7131C78.5029 91.4636 84.1617 92.8807 89.1547 93.7977C87.5736 90.9635 86.8246 87.5458 86.4917 84.3782C86.1589 81.0438 86.0756 77.4594 87.1575 74.2085C88.3225 70.4573 90.4861 66.2894 87.5735 62.8717C86.9078 62.1215 88.0728 61.1212 88.7386 61.8714C89.3211 62.5383 89.7372 63.2885 90.0701 64.0387C90.2365 64.1221 90.3197 64.2054 90.4029 64.3722C92.9827 70.2072 99.3072 70.2072 104.633 72.0411C105.049 72.2079 105.299 72.8747 104.966 73.2082C99.3904 79.6268 105.049 87.3791 103.801 94.5479C106.714 94.1311 109.21 93.3809 111.54 92.3806C110.874 89.6298 110.541 86.7956 110.625 83.9614C110.458 79.9602 113.038 76.6258 113.454 72.7914Z" fill="#E7697D"/>
<path d="M127.184 65.1229C124.938 57.0371 115.867 59.9547 111.123 63.0389C109.709 63.9559 108.294 65.0395 106.879 66.0398C105.049 67.3736 101.47 69.791 99.8059 67.2068C98.8073 65.7064 99.5563 62.7888 99.3899 61.0383C98.7241 53.4527 93.4814 52.7025 87.2401 55.0365C82.6632 56.787 67.7673 67.8737 68.6827 56.0368C69.0156 51.3687 70.1806 48.868 66.5191 45.2836C63.7729 42.6161 58.447 43.9498 55.368 44.7834C53.5372 45.2836 51.4567 45.7837 49.7092 46.534C46.0476 48.1178 39.307 50.7852 40.805 44.3666C41.8868 39.6986 44.7994 33.53 37.8923 32.1129C33.3154 31.196 26.3252 32.7798 22.9965 36.1141C21.665 37.4479 20.0839 40.1154 21.9146 41.6992C23.9119 43.4497 27.5734 41.199 29.6538 41.0323C35.1462 40.4488 33.149 43.9498 31.4846 47.0341C29.321 50.5352 28.4056 53.2026 30.5692 56.8704C36.3112 66.54 60.6939 39.6986 56.6162 61.0383C54.5358 71.8749 62.3582 75.2093 71.845 72.2917C76.5883 70.7913 81.4149 65.2896 86.2415 64.7894C90.7353 64.3727 88.1555 72.2917 87.7394 74.3757C87.0737 77.9601 91.0681 79.8773 93.8143 80.4608C99.057 81.4611 103.301 77.5433 107.046 74.5424C108.128 73.6254 111.207 70.6245 112.788 71.7082C115.368 73.4587 111.456 77.5433 112.122 79.794C113.537 84.7121 121.359 80.1274 123.107 78.2935C126.103 74.8758 128.516 69.7076 127.184 65.1229Z" fill="#EC8C8A"/>
<path d="M115.035 83.2115C112.871 83.2115 111.373 82.1279 110.791 80.0439C110.375 78.6268 110.957 77.2097 111.54 75.7926C112.372 73.792 112.538 73.0418 111.956 72.625C111.04 72.625 109.043 74.2922 108.294 74.9591L106.879 76.1261C103.634 78.7935 99.9724 81.7944 95.3955 81.7944C94.7297 81.7944 94.064 81.7111 93.3982 81.6277C89.487 80.8775 85.5758 78.1267 86.3248 74.0421C86.408 73.7087 86.4912 73.2919 86.5744 72.7917C86.9073 71.2913 87.9059 67.2901 87.0738 66.1231C86.9905 66.0397 86.9073 65.873 86.408 65.873C83.8283 66.1231 81.2486 67.8736 78.752 69.6241C76.5884 71.1246 74.4247 72.625 72.0946 73.3752C65.6037 75.4592 59.9449 74.5423 57.0323 70.9579C55.0351 68.5405 54.3694 64.956 55.2016 60.6214C56.0337 56.1201 55.4512 54.6196 55.0351 54.1195C54.8687 53.8694 54.5358 53.6193 53.7036 53.6193C51.7064 53.6193 48.5442 55.1198 45.4651 56.5368C41.7204 58.2874 37.726 60.1213 34.4805 60.1213C32.1504 60.1213 30.4028 59.2043 29.321 57.2871C26.6581 52.7857 28.156 49.6181 30.2364 46.2004C30.8189 45.2001 32.0672 42.8661 31.8175 42.2826C31.8175 42.2826 31.5679 42.0325 30.5693 42.0325C30.2364 42.0325 29.9868 42.0325 29.5707 42.1158C29.0714 42.1992 28.3224 42.3659 27.5735 42.616C25.3266 43.3662 22.4972 43.8664 20.9161 42.4493C20.1671 41.7824 19.6678 40.8655 19.6678 39.8652C19.5846 37.6145 21.4154 35.6139 21.9979 35.0304C25.1602 31.8628 30.8189 30.3623 34.9798 30.3623C36.0616 30.3623 37.0602 30.4457 38.0588 30.6124C40.2225 31.0292 41.8036 32.0295 42.719 33.4466C44.3001 35.9473 43.3015 39.365 42.4693 42.3659C42.3029 43.0328 42.0532 43.6997 41.97 44.3665C41.6372 45.9503 41.8868 46.4505 41.97 46.5338C42.2197 46.7839 42.719 46.8673 43.0519 46.8673C44.9659 46.8673 47.9617 45.5335 49.1267 45.0334C50.7078 44.3665 52.3722 43.8664 54.0365 43.4496L55.0351 43.1995C57.0323 42.616 59.4456 42.0325 61.7757 42.0325C64.189 42.0325 66.103 42.6994 67.3513 43.9497C70.8464 47.3674 70.5135 50.1182 70.1806 53.5359C70.0974 54.2028 70.0142 54.953 69.931 55.7033C69.7646 57.3704 70.0142 58.6208 70.5967 59.2043C70.9296 59.5377 71.4289 59.7878 72.1779 59.7045C74.924 59.7045 79.4178 57.2871 82.6632 55.4532C84.3276 54.5362 85.7423 53.786 86.8241 53.3692C88.9877 52.5356 90.985 52.1189 92.7325 52.1189C95.3955 52.1189 99.9724 53.2025 100.638 60.4547C100.721 61.1216 100.638 61.8718 100.555 62.7054C100.472 63.8724 100.388 65.3728 100.805 65.9564C101.886 67.5402 105.049 65.2061 106.13 64.4559L107.296 63.6223C108.294 62.8721 109.376 62.1219 110.375 61.455C111.623 60.7048 115.95 58.1207 120.361 58.1207C124.355 58.1207 127.184 60.288 128.349 64.2892C129.847 69.7075 126.852 75.3758 123.856 78.6268C122.607 80.5441 118.363 83.2115 115.035 83.2115ZM111.956 70.1243C112.455 70.1243 112.954 70.291 113.37 70.5411C115.784 72.1249 114.619 74.9591 113.87 76.7096C113.537 77.6265 113.038 78.7935 113.204 79.2937C113.454 80.2106 113.953 80.6274 115.035 80.6274C117.448 80.6274 121.026 78.4601 122.108 77.2931C124.854 74.2922 127.184 69.4574 126.019 65.3728C125.187 62.4553 123.356 61.0382 120.444 61.0382C117.448 61.0382 114.036 62.5387 111.789 63.9557C110.791 64.6226 109.792 65.2895 108.793 66.0397L107.628 66.8733C105.881 68.1237 103.8 69.4574 101.886 69.4574C100.555 69.4574 99.4731 68.8739 98.7241 67.7902C97.8087 66.3731 97.9752 64.5393 98.0584 62.8721C98.1416 62.2052 98.1416 61.5384 98.1416 61.0382C97.6423 55.6199 94.813 54.953 92.7325 54.953C91.3178 54.953 89.5703 55.2865 87.6563 56.0367C86.8241 56.3701 85.4094 57.1204 83.8283 57.9539C80.0835 59.9545 75.5065 62.5387 72.0946 62.5387C70.5967 62.5387 69.4317 62.1219 68.5995 61.2049C67.5177 60.0379 67.1016 58.2874 67.2681 55.7866C67.3513 54.953 67.4345 54.2028 67.5177 53.5359C67.9338 50.2016 68.1002 48.6178 65.4373 46.0337C64.6051 45.2001 63.3568 44.8667 61.6093 44.8667C59.6121 44.8667 57.4484 45.3668 55.5344 45.9503L54.5358 46.2004C53.0379 46.6172 51.3736 47.034 50.0421 47.6175C47.8785 48.5344 45.1323 49.6181 42.9686 49.6181C41.5539 49.6181 40.5553 49.2013 39.8896 48.3677C39.1406 47.3674 38.9742 45.9503 39.3903 44.0331C39.5567 43.3662 39.7232 42.616 39.9728 41.9491C40.7218 39.2817 41.4707 36.6142 40.4721 35.0304C39.9728 34.1968 38.9742 33.6966 37.4763 33.3632C36.7274 33.1965 35.8119 33.1131 34.8966 33.1131C30.5693 33.1131 25.9923 34.6969 23.6623 37.031C22.9133 37.7812 22.0811 39.1149 22.0811 40.0319C22.0811 40.3653 22.2476 40.6154 22.4972 40.7821C22.6636 40.9488 22.9965 41.1155 23.6623 41.1155C24.5776 41.1155 25.7427 40.7821 26.8245 40.4487C27.7399 40.1986 28.5721 39.8652 29.321 39.7818C31.9007 39.5317 33.2322 40.0319 33.9812 41.1989C34.9798 42.9494 33.7315 45.2835 32.4001 47.5341C30.2364 51.1185 29.6539 53.1192 31.4014 56.2034C32.0672 57.2871 32.9826 57.7872 34.3973 57.7872C37.0602 57.7872 40.7218 56.1201 44.3001 54.4529C47.7952 52.8691 51.0407 51.2853 53.5372 51.2853C54.9519 51.2853 56.117 51.7854 56.8659 52.7024C58.1974 54.2862 58.3638 57.037 57.5316 61.2883C56.8659 64.7893 57.282 67.6235 58.7799 69.4574C60.5275 71.5414 63.2736 72.0415 65.3541 72.0415C67.1016 72.0415 69.0988 71.7081 71.096 71.0412C73.01 70.4577 75.0073 69.0406 77.0877 67.6235C79.8339 65.7063 82.7465 63.7057 85.7423 63.4556C87.4066 63.2889 88.4052 64.0391 88.8213 64.6226C90.3192 66.5399 89.6535 70.0409 88.8213 73.4586C88.7381 73.8754 88.6549 74.2922 88.5717 74.5423C88.0724 77.3764 92.0668 78.7935 93.6479 79.127C97.9752 79.9606 101.554 77.043 104.965 74.2088L106.297 73.0418C108.377 71.6247 110.208 70.1243 111.956 70.1243Z" fill="#F9D6C7"/>
<path opacity="0.4" d="M62.6103 58.5367C63.1928 54.1188 64.5243 48.7838 64.4411 44.0324C61.6117 43.1154 57.8669 44.1157 55.3704 44.7826C53.5396 45.2828 51.4592 45.7829 49.7116 46.5331C46.2997 48.1169 39.892 50.5343 40.641 45.116V45.1994C39.7256 48.4504 40.1417 51.9514 39.9752 55.2858C39.9752 56.1194 39.892 56.9529 39.892 57.7865C48.713 54.4522 59.3648 46.2831 56.5354 61.0375C55.4536 67.0393 57.2844 70.7071 60.7795 72.3742C61.2788 67.7895 61.9445 63.2048 62.6103 58.5367Z" fill="#EC8C8A"/>
<path opacity="0.4" d="M127.186 65.1225C124.939 57.0367 115.868 59.9543 111.125 63.0385C109.71 63.9555 108.296 65.0391 106.881 66.0394C105.05 67.3732 101.472 69.7906 99.8075 67.2065C99.2249 66.3729 99.2249 65.1225 99.3081 63.9555C99.0585 65.8727 98.8088 67.7066 98.5592 69.5405C98.1431 73.1249 97.8103 76.7927 97.3109 80.4604C100.973 79.7102 104.052 76.876 106.964 74.542C108.046 73.6251 111.125 70.6241 112.706 71.7078C115.286 73.4583 111.375 77.5429 112.04 79.7936C113.455 84.7117 121.278 80.127 123.025 78.2931C126.104 74.8754 128.517 69.7072 127.186 65.1225Z" fill="#EC8C8A"/>
<path opacity="0.4" d="M91.7357 53.87C90.4042 54.0367 88.9063 54.3701 87.3252 55.037C82.9979 56.7042 69.6831 66.5405 68.7677 58.0379C68.1852 63.1228 67.6027 68.2077 67.2698 73.2925C68.6845 73.1258 70.2656 72.8757 71.8468 72.3756C76.5902 70.8751 81.4167 65.3735 86.2433 64.8733C90.7371 64.4565 88.1573 72.3756 87.7413 74.4595C87.4084 76.1267 88.1573 77.4604 89.2392 78.3774C89.9881 70.2083 90.9867 62.0391 91.7357 53.87Z" fill="#EC8C8A"/>
<path d="M40.5568 77.794C38.31 75.5433 36.6456 72.9592 34.2323 70.8752C31.5694 68.5412 28.9064 66.2905 26.4099 63.7897C24.4127 61.7058 20.0022 58.038 17.9218 62.1226C16.6735 64.4566 18.8372 68.2911 20.8344 70.9586C22.7484 76.2935 27.0757 80.7949 31.2365 84.3793C33.733 86.5466 38.726 89.4641 42.0547 87.2135C46.1324 84.6293 42.8869 80.128 40.5568 77.794Z" fill="#E48567"/>
</svg>
