<svg width="140" height="140" viewBox="0 0 140 140" fill="none" xmlns="http://www.w3.org/2000/svg">
<path d="M70.155 25.9836C44.0522 26.1632 23.1961 47.7096 22.1781 72.587C21.0429 100.329 44.8779 124.85 73.1704 123.302C100.076 121.831 120.865 97.3393 118.68 70.6679C116.667 46.0979 95.6604 25.8082 70.155 25.9836Z" fill="#AEA297" stroke="#5B5249" stroke-width="0.242741" stroke-miterlimit="10"/>
<path d="M70.1728 25.6768C45.482 25.8464 25.7543 46.2275 24.7912 69.759C23.7173 96.0004 46.2633 119.195 73.0249 117.731C98.4749 116.339 118.139 93.1728 116.073 67.944C114.169 44.7035 94.2984 25.511 70.1728 25.6768Z" fill="url(#paint0_radial_4819_341521)"/>
<path d="M70.1728 25.6768C45.482 25.8464 25.7543 46.2275 24.7912 69.759C23.7173 96.0004 46.2633 119.195 73.0249 117.731C98.4749 116.339 118.139 93.1728 116.073 67.944C114.169 44.7035 94.2984 25.511 70.1728 25.6768Z" fill="url(#paint1_radial_4819_341521)"/>
<path d="M64.637 42.1794C64.4162 40.2239 64.0939 38.44 63.7316 36.8484C62.8404 38.2593 61.9487 39.6708 61.0575 41.0817C61.6956 39.4088 62.4336 36.803 62.2609 33.6393C62.0089 29.0246 59.9476 25.5874 57.9834 22.3947C55.4039 18.201 52.9025 15.8941 53.071 15.7399C53.247 15.5788 56.032 18.0414 58.5894 21.2943C59.7912 22.8225 60.675 24.1854 61.2677 25.1642L61.8663 26.1811L62.1647 26.6914L62.4426 27.2128L62.9983 28.2576L63.5102 29.3257C66.2266 35.0371 67.6217 41.4214 67.6096 47.8437V47.849C67.5367 47.9473 67.0158 48.6287 66.1146 48.6715C65.5235 48.6995 65.0913 48.4375 64.9365 48.3334C64.9645 46.5015 64.8917 44.4334 64.637 42.1794Z" fill="#CDC3AC" stroke="#5B5249" stroke-width="0.242741" stroke-miterlimit="10"/>
<path d="M74.377 42.1794C74.5978 40.2239 74.92 38.44 75.2824 36.8484C76.1736 38.2593 77.0653 39.6708 77.9565 41.0817C77.3184 39.4088 76.5804 36.803 76.7531 33.6393C77.0051 29.0246 79.0664 25.5874 81.0305 22.3947C83.6101 18.201 86.1114 15.8941 85.9429 15.7399C85.767 15.5788 82.982 18.0414 80.4246 21.2943C79.2228 22.8225 78.339 24.1854 77.7463 25.1642L77.1477 26.1811L76.8493 26.6914L76.5714 27.2128L76.0157 28.2576L75.5038 29.3257C72.7874 35.0371 71.3922 41.4214 71.4044 47.8437V47.849C71.4773 47.9473 71.9982 48.6287 72.8994 48.6715C73.4905 48.6995 73.9232 48.4375 74.0774 48.3334C74.05 46.5015 74.1229 44.4334 74.377 42.1794Z" fill="#CDC3AC" stroke="#5B5249" stroke-width="0.242741" stroke-miterlimit="10"/>
<path d="M42.092 51.5142C40.4147 50.4847 38.8098 49.6406 37.3328 48.9475C37.8965 50.5185 38.4607 52.0895 39.0243 53.6605C38.0983 52.1281 36.4987 49.9427 33.8985 48.1319C30.1056 45.4907 26.1277 45 22.4029 44.5827C17.5095 44.0349 14.1518 44.5869 14.1339 44.3592C14.1148 44.1215 17.7705 43.4422 21.9084 43.4279C23.8524 43.4216 25.471 43.5632 26.6074 43.6984L27.7775 43.8526L28.3633 43.9314L28.9455 44.0333L30.1114 44.2383L31.2683 44.4918C37.4416 45.8658 43.3334 48.695 48.3879 52.6574L48.3921 52.6605C48.4249 52.7783 48.6415 53.6082 48.1206 54.3451C47.7788 54.8279 47.3065 55.008 47.129 55.0656C45.7006 53.9167 44.0255 52.7012 42.092 51.5142Z" fill="#CDC3AC" stroke="#5B5249" stroke-width="0.242741" stroke-miterlimit="10"/>
<path d="M39.4724 57.94C37.7951 56.9105 36.1902 56.0663 34.7132 55.3733C35.2769 56.9443 35.841 58.5153 36.4047 60.0862C35.4787 58.5538 33.8791 56.3685 31.2789 54.5577C27.486 51.9165 23.5081 51.4258 19.7832 51.0085C14.8899 50.4607 11.5322 51.0127 11.5142 50.785C11.4952 50.5473 15.1508 49.868 19.2888 49.8537C21.2328 49.8474 22.8514 49.9889 23.9877 50.1242L25.1578 50.2784L25.7437 50.3571L26.3259 50.4591L27.4918 50.664L28.6487 50.9176C34.822 52.2915 40.7138 55.1208 45.7683 59.0831L45.7725 59.0863C45.8053 59.2041 46.0219 60.0339 45.501 60.7708C45.1592 61.2536 44.687 61.4338 44.5094 61.4914C43.081 60.3424 41.4053 59.127 39.4724 57.94Z" fill="#CDC3AC" stroke="#5B5249" stroke-width="0.242741" stroke-miterlimit="10"/>
<path d="M96.4214 50.567C98.0986 49.5374 99.7035 48.6933 101.181 48.0003C100.617 49.5712 100.053 51.1422 99.489 52.7132C100.415 51.1808 102.015 48.9955 104.615 47.1847C108.408 44.5435 112.386 44.0527 116.111 43.6354C121.004 43.0876 124.361 43.6396 124.38 43.412C124.399 43.1743 120.743 42.4949 116.605 42.4807C114.661 42.4743 113.042 42.6159 111.906 42.7511L110.736 42.9054L110.15 42.9841L109.568 43.086L108.402 43.291L107.245 43.5446C101.072 44.9185 95.1799 47.7478 90.1254 51.7101L90.1212 51.7133C90.0884 51.8311 89.8719 52.6609 90.3927 53.3978C90.7345 53.8806 91.2068 54.0608 91.3843 54.1183C92.8127 52.9689 94.4884 51.7534 96.4214 50.567Z" fill="#CDC3AC" stroke="#5B5249" stroke-width="0.242741" stroke-miterlimit="10"/>
<path d="M99.0414 56.9928C100.719 55.9633 102.324 55.1191 103.801 54.4261C103.237 55.9971 102.673 57.568 102.109 59.139C103.035 57.6066 104.635 55.4213 107.235 53.6105C111.028 50.9692 115.006 50.4785 118.731 50.0612C123.624 49.5134 126.981 50.0654 127 49.8377C127.019 49.6 123.363 48.9207 119.225 48.9065C117.281 48.9001 115.662 49.0417 114.526 49.1769L113.356 49.3312L112.77 49.4099L112.188 49.5118L111.022 49.7168L109.865 49.9703C103.692 51.3443 97.8 54.1736 92.7455 58.1359L92.7413 58.1391C92.7086 58.2569 92.492 59.0868 93.0128 59.8237C93.3546 60.3065 93.8269 60.4866 94.0044 60.5442C95.4329 59.3947 97.108 58.1792 99.0414 56.9928Z" fill="#CDC3AC" stroke="#5B5249" stroke-width="0.242741" stroke-miterlimit="10"/>
<path d="M64.637 42.1794C64.4162 40.2239 64.0939 38.44 63.7316 36.8484C62.8404 38.2593 61.9487 39.6708 61.0575 41.0817C61.6956 39.4088 62.4336 36.803 62.2609 33.6393C62.0089 29.0246 59.9476 25.5874 57.9834 22.3947C55.4039 18.201 52.9025 15.8941 53.071 15.7399C53.247 15.5788 56.032 18.0414 58.5894 21.2943C59.7912 22.8225 60.675 24.1854 61.2677 25.1642L61.8663 26.1811L62.1647 26.6914L62.4426 27.2128L62.9983 28.2576L63.5102 29.3257C66.2266 35.0371 67.6217 41.4214 67.6096 47.8437V47.849C67.5367 47.9473 67.0158 48.6287 66.1146 48.6715C65.5235 48.6995 65.0913 48.4375 64.9365 48.3334C64.9645 46.5015 64.8917 44.4334 64.637 42.1794Z" fill="url(#paint2_linear_4819_341521)"/>
<path d="M74.377 42.1794C74.5978 40.2239 74.92 38.44 75.2824 36.8484C76.1736 38.2593 77.0653 39.6708 77.9565 41.0817C77.3184 39.4088 76.5804 36.803 76.7531 33.6393C77.0051 29.0246 79.0664 25.5874 81.0305 22.3947C83.6101 18.201 86.1114 15.8941 85.9429 15.7399C85.767 15.5788 82.982 18.0414 80.4246 21.2943C79.2228 22.8225 78.339 24.1854 77.7463 25.1642L77.1477 26.1811L76.8493 26.6914L76.5714 27.2128L76.0157 28.2576L75.5038 29.3257C72.7874 35.0371 71.3922 41.4214 71.4044 47.8437V47.849C71.4773 47.9473 71.9982 48.6287 72.8994 48.6715C73.4905 48.6995 73.9232 48.4375 74.0774 48.3334C74.05 46.5015 74.1229 44.4334 74.377 42.1794Z" fill="url(#paint3_linear_4819_341521)"/>
<path d="M42.092 51.5142C40.4147 50.4847 38.8098 49.6406 37.3328 48.9475C37.8965 50.5185 38.4607 52.0895 39.0243 53.6605C38.0983 52.1281 36.4987 49.9427 33.8985 48.1319C30.1056 45.4907 26.1277 45 22.4029 44.5827C17.5095 44.0349 14.1518 44.5869 14.1339 44.3592C14.1148 44.1215 17.7705 43.4422 21.9084 43.4279C23.8524 43.4216 25.471 43.5632 26.6074 43.6984L27.7775 43.8526L28.3633 43.9314L28.9455 44.0333L30.1114 44.2383L31.2683 44.4918C37.4416 45.8658 43.3334 48.695 48.3879 52.6574L48.3921 52.6605C48.4249 52.7783 48.6415 53.6082 48.1206 54.3451C47.7788 54.8279 47.3065 55.008 47.129 55.0656C45.7006 53.9167 44.0255 52.7012 42.092 51.5142Z" fill="url(#paint4_linear_4819_341521)"/>
<path d="M39.4724 57.94C37.7951 56.9105 36.1902 56.0663 34.7132 55.3733C35.2769 56.9443 35.841 58.5153 36.4047 60.0862C35.4787 58.5538 33.8791 56.3685 31.2789 54.5577C27.486 51.9165 23.5081 51.4258 19.7832 51.0085C14.8899 50.4607 11.5322 51.0127 11.5142 50.785C11.4952 50.5473 15.1508 49.868 19.2888 49.8537C21.2328 49.8474 22.8514 49.9889 23.9877 50.1242L25.1578 50.2784L25.7437 50.3571L26.3259 50.4591L27.4918 50.664L28.6487 50.9176C34.822 52.2915 40.7138 55.1208 45.7683 59.0831L45.7725 59.0863C45.8053 59.2041 46.0219 60.0339 45.501 60.7708C45.1592 61.2536 44.687 61.4338 44.5094 61.4914C43.081 60.3424 41.4053 59.127 39.4724 57.94Z" fill="url(#paint5_linear_4819_341521)"/>
<path d="M96.4214 50.567C98.0986 49.5374 99.7035 48.6933 101.181 48.0003C100.617 49.5712 100.053 51.1422 99.489 52.7132C100.415 51.1808 102.015 48.9955 104.615 47.1847C108.408 44.5435 112.386 44.0527 116.111 43.6354C121.004 43.0876 124.361 43.6396 124.38 43.412C124.399 43.1743 120.743 42.4949 116.605 42.4807C114.661 42.4743 113.042 42.6159 111.906 42.7511L110.736 42.9054L110.15 42.9841L109.568 43.086L108.402 43.291L107.245 43.5446C101.072 44.9185 95.1799 47.7478 90.1254 51.7101L90.1212 51.7133C90.0884 51.8311 89.8719 52.6609 90.3927 53.3978C90.7345 53.8806 91.2068 54.0608 91.3843 54.1183C92.8127 52.9689 94.4884 51.7534 96.4214 50.567Z" fill="url(#paint6_linear_4819_341521)"/>
<path d="M99.0414 56.9928C100.719 55.9633 102.324 55.1191 103.801 54.4261C103.237 55.9971 102.673 57.568 102.109 59.139C103.035 57.6066 104.635 55.4213 107.235 53.6105C111.028 50.9692 115.006 50.4785 118.731 50.0612C123.624 49.5134 126.981 50.0654 127 49.8377C127.019 49.6 123.363 48.9207 119.225 48.9065C117.281 48.9001 115.662 49.0417 114.526 49.1769L113.356 49.3312L112.77 49.4099L112.188 49.5118L111.022 49.7168L109.865 49.9703C103.692 51.3443 97.8 54.1736 92.7455 58.1359L92.7413 58.1391C92.7086 58.2569 92.492 59.0868 93.0128 59.8237C93.3546 60.3065 93.8269 60.4866 94.0044 60.5442C95.4329 59.3947 97.108 58.1792 99.0414 56.9928Z" fill="url(#paint7_linear_4819_341521)"/>
<defs>
<radialGradient id="paint0_radial_4819_341521" cx="0" cy="0" r="1" gradientUnits="userSpaceOnUse" gradientTransform="translate(70.4882 71.7365) scale(45.8987 45.8962)">
<stop stop-color="#CDC2AD"/>
<stop offset="1" stop-color="#CEC3AD" stop-opacity="0"/>
</radialGradient>
<radialGradient id="paint1_radial_4819_341521" cx="0" cy="0" r="1" gradientUnits="userSpaceOnUse" gradientTransform="translate(70.4882 71.7365) scale(45.8987 45.8962)">
<stop stop-color="#CDC2AD"/>
<stop offset="1" stop-color="#CEC3AD" stop-opacity="0"/>
</radialGradient>
<linearGradient id="paint2_linear_4819_341521" x1="59.7024" y1="64.2984" x2="60.3756" y2="29.7944" gradientUnits="userSpaceOnUse">
<stop stop-color="#6F6558"/>
<stop offset="1" stop-color="#6F6558" stop-opacity="0"/>
</linearGradient>
<linearGradient id="paint3_linear_4819_341521" x1="78.0315" y1="64.656" x2="78.7047" y2="30.152" gradientUnits="userSpaceOnUse">
<stop stop-color="#6F6558"/>
<stop offset="1" stop-color="#6F6558" stop-opacity="0"/>
</linearGradient>
<linearGradient id="paint4_linear_4819_341521" x1="31.5463" y1="66.3614" x2="31.2097" y2="42.4611" gradientUnits="userSpaceOnUse">
<stop stop-color="#6F6558"/>
<stop offset="1" stop-color="#6F6558" stop-opacity="0"/>
</linearGradient>
<linearGradient id="paint5_linear_4819_341521" x1="29.3857" y1="78.4037" x2="28.3759" y2="45.2464" gradientUnits="userSpaceOnUse">
<stop stop-color="#6F6558"/>
<stop offset="1" stop-color="#6F6558" stop-opacity="0"/>
</linearGradient>
<linearGradient id="paint6_linear_4819_341521" x1="74.8134" y1="71.1115" x2="110.496" y2="45.1896" gradientUnits="userSpaceOnUse">
<stop stop-color="#6F6558"/>
<stop offset="1" stop-color="#6F6558" stop-opacity="0"/>
</linearGradient>
<linearGradient id="paint7_linear_4819_341521" x1="78.7734" y1="76.5638" x2="114.456" y2="50.642" gradientUnits="userSpaceOnUse">
<stop stop-color="#6F6558"/>
<stop offset="1" stop-color="#6F6558" stop-opacity="0"/>
</linearGradient>
</defs>
</svg>
