<svg width="973" height="508" viewBox="0 0 973 508" fill="none" xmlns="http://www.w3.org/2000/svg">
<path d="M319.068 81.4135C328.38 78.5361 337.816 82.3165 340.142 89.8568C342.469 97.3971 337.353 105.701 327.494 108.72C318.175 111.575 308.746 107.817 306.419 100.277C303.747 91.9781 309.755 84.2908 319.068 81.4135Z" fill="#945159"/>
<path d="M319.298 82.4776C310.54 85.1837 305.179 93.0108 307.323 99.96C309.467 106.909 318.305 110.349 327.063 107.643C335.821 104.937 341.183 97.1097 339.038 90.1605C336.894 83.2113 328.056 79.7715 319.298 82.4776Z" fill="#C7A393"/>
<path d="M330.155 96.8832C330.052 96.7766 330.048 96.7779 330.153 96.8976C330.268 97.046 330.418 97.2017 330.557 97.32C330.976 97.6697 331.465 97.5501 331.761 97.2862C331.885 97.1775 331.99 97.0429 332.083 96.8984C332.177 96.8477 332.263 96.7665 332.337 96.6642C332.585 96.3118 332.7 95.7982 332.706 95.248C332.87 94.3131 332.699 93.0226 331.994 92.2041C330.715 90.7226 329.823 92.0847 329.428 93.3445C329.194 94.099 329.259 95.0688 329.547 95.98C329.65 96.3183 329.929 96.6772 330.155 96.8832Z" fill="#BA7766"/>
<path d="M328.877 89.6651C328.92 89.6746 328.96 89.6861 329.005 89.7015C329.529 89.8483 329.842 88.9698 329.876 88.421C329.885 88.3433 329.886 88.2558 329.895 88.1792C329.92 87.7207 329.907 87.1311 329.603 86.6825C329.228 86.1219 328.766 86.3974 328.536 86.7161C328.186 87.2226 327.783 89.3541 328.877 89.6651Z" fill="#BA7766"/>
<path d="M316.058 101.675C316.189 101.697 316.315 101.694 316.439 101.672C317.242 101.99 317.676 100.36 317.628 99.5697C317.626 99.5634 317.626 99.5634 317.623 99.5575C317.63 99.4613 317.63 99.3274 317.633 99.113C317.642 98.6346 317.53 98.1833 317.367 97.6921C316.806 96.0271 315.624 97.0294 315.306 97.7635C315.022 98.4246 314.886 99.3203 315.062 100.222C315.181 100.837 315.532 101.601 316.058 101.675Z" fill="#BA7766"/>
<path d="M314.374 94.0752C314.82 93.7125 315.013 92.9878 315.001 92.2095C315.132 91.4288 315.123 90.4156 314.467 89.9194C313.622 89.2825 313.002 90.7645 312.974 91.5848C312.958 92.2006 312.95 92.9054 313.246 93.5439C313.554 94.2046 313.988 94.3885 314.374 94.0752Z" fill="#BA7766"/>
<path d="M326.352 98.8381C327.088 99.5244 327.621 97.086 326.87 96.7075C326.668 96.6066 326.695 96.6765 326.584 96.46C326.382 96.0716 326.026 96.319 325.91 96.4787C325.669 96.8277 325.59 97.3948 325.763 97.9554C325.894 98.3645 326.079 98.5785 326.352 98.8381Z" fill="#BA7766"/>
<path d="M319.727 96.2765C319.734 96.3071 319.751 96.3267 319.761 96.3499C319.787 96.4064 319.816 96.4554 319.84 96.5061C319.875 96.5734 319.907 96.6338 319.945 96.6858C319.961 96.7057 319.98 96.7181 319.995 96.7328C320.043 96.7881 320.094 96.8475 320.148 96.8865C320.154 96.8914 320.163 96.893 320.173 96.8966C320.336 97.0066 320.518 97.0683 320.703 97.1358C321.266 97.3274 321.656 96.4523 321.783 95.9271C321.906 95.4372 322.02 94.2545 321.536 93.7175C321.217 93.3551 320.885 92.9038 320.505 93.0871C319.946 93.354 319.64 94.0172 319.563 94.8437C319.525 95.239 319.566 95.8118 319.735 96.2729C319.73 96.2755 319.73 96.2755 319.727 96.2765Z" fill="#BA7766"/>
<path d="M324.145 92.3201C324.556 91.7367 324.813 90.5575 324.42 89.5632L324.328 89.3316C323.938 88.3422 323.236 88.5249 322.889 89.0239C322.473 89.6086 322.219 90.7927 322.609 91.7825L322.697 92.0081C323.091 93.0034 323.792 92.8207 324.145 92.3201Z" fill="#BA7766"/>
<path d="M321.854 103.022C321.873 103.048 321.894 103.066 321.916 103.091C321.946 103.12 321.969 103.158 322.002 103.184C322 103.178 322.003 103.177 322.004 103.17C322.173 103.309 322.373 103.378 322.608 103.305C323.321 103.084 323.721 101.936 323.691 100.899C323.692 100.892 323.69 100.886 323.692 100.871C323.764 100.161 323.668 98.9144 322.99 98.3988C322.133 97.754 321.473 98.9911 321.301 99.7676C321.09 100.735 321.034 102.134 321.854 103.022Z" fill="#BA7766"/>
</svg>
