<svg width="973" height="508" viewBox="0 0 973 508" fill="none" xmlns="http://www.w3.org/2000/svg">
<path d="M637.283 397.658C646.596 394.781 656.031 398.561 658.358 406.101C660.685 413.642 655.569 421.946 645.71 424.965C636.39 427.819 626.962 424.062 624.635 416.521C621.963 408.223 627.971 400.535 637.283 397.658Z" fill="#945159"/>
<path d="M637.514 398.722C628.756 401.428 623.394 409.255 625.539 416.205C627.683 423.154 636.521 426.594 645.279 423.888C654.037 421.181 659.398 413.354 657.254 406.405C655.11 399.456 646.272 396.016 637.514 398.722Z" fill="#C7A393"/>
<path d="M648.371 413.128C648.268 413.021 648.264 413.023 648.369 413.142C648.484 413.291 648.634 413.446 648.772 413.565C649.191 413.914 649.681 413.795 649.977 413.531C650.101 413.422 650.206 413.288 650.298 413.143C650.393 413.092 650.479 413.011 650.553 412.909C650.801 412.556 650.916 412.043 650.922 411.493C651.085 410.558 650.915 409.267 650.21 408.449C648.931 406.967 648.039 408.329 647.643 409.589C647.41 410.344 647.475 411.313 647.763 412.225C647.866 412.563 648.145 412.922 648.371 413.128Z" fill="#BA7766"/>
<path d="M647.093 405.91C647.136 405.919 647.175 405.931 647.221 405.946C647.745 406.093 648.057 405.214 648.092 404.666C648.101 404.588 648.101 404.5 648.111 404.424C648.136 403.965 648.123 403.376 647.819 402.927C647.444 402.367 646.982 402.642 646.752 402.961C646.402 403.467 645.998 405.599 647.093 405.91Z" fill="#BA7766"/>
<path d="M634.273 417.92C634.405 417.941 634.531 417.939 634.655 417.916C635.458 418.235 635.891 416.605 635.844 415.814C635.842 415.808 635.842 415.808 635.839 415.802C635.846 415.706 635.845 415.572 635.848 415.358C635.857 414.879 635.745 414.428 635.583 413.937C635.022 412.272 633.84 413.274 633.522 414.008C633.238 414.669 633.102 415.565 633.278 416.466C633.397 417.081 633.748 417.846 634.273 417.92Z" fill="#BA7766"/>
<path d="M632.589 410.32C633.036 409.957 633.229 409.232 633.216 408.454C633.348 407.673 633.339 406.66 632.682 406.164C631.838 405.527 631.218 407.009 631.19 407.829C631.173 408.445 631.166 409.15 631.462 409.788C631.77 410.449 632.204 410.633 632.589 410.32Z" fill="#BA7766"/>
<path d="M644.568 415.083C645.304 415.769 645.837 413.331 645.086 412.952C644.884 412.851 644.911 412.921 644.8 412.705C644.598 412.316 644.242 412.564 644.126 412.723C643.885 413.072 643.806 413.639 643.979 414.2C644.11 414.609 644.295 414.823 644.568 415.083Z" fill="#BA7766"/>
<path d="M637.943 412.521C637.95 412.552 637.967 412.571 637.977 412.595C638.003 412.651 638.032 412.7 638.055 412.751C638.091 412.818 638.123 412.878 638.161 412.93C638.177 412.95 638.196 412.963 638.21 412.977C638.259 413.033 638.309 413.092 638.363 413.131C638.369 413.136 638.379 413.138 638.389 413.141C638.551 413.251 638.734 413.313 638.919 413.38C639.482 413.572 639.871 412.697 639.999 412.172C640.122 411.682 640.236 410.499 639.752 409.962C639.433 409.6 639.101 409.148 638.721 409.332C638.162 409.599 637.856 410.262 637.779 411.088C637.741 411.484 637.782 412.056 637.951 412.517C637.946 412.52 637.946 412.52 637.943 412.521Z" fill="#BA7766"/>
<path d="M642.361 408.564C642.772 407.981 643.029 406.802 642.636 405.808L642.544 405.576C642.154 404.587 641.452 404.769 641.105 405.268C640.689 405.853 640.435 407.037 640.824 408.027L640.913 408.252C641.307 409.248 642.008 409.065 642.361 408.564Z" fill="#BA7766"/>
<path d="M640.07 419.266C640.089 419.292 640.11 419.311 640.132 419.336C640.161 419.364 640.184 419.402 640.218 419.429C640.216 419.422 640.219 419.421 640.22 419.414C640.389 419.554 640.588 419.623 640.824 419.55C641.536 419.329 641.937 418.181 641.906 417.144C641.908 417.136 641.906 417.13 641.908 417.116C641.98 416.406 641.884 415.159 641.205 414.643C640.349 413.999 639.689 415.236 639.516 416.012C639.305 416.98 639.25 418.379 640.07 419.266Z" fill="#BA7766"/>
</svg>
