<svg width="973" height="508" viewBox="0 0 973 508" fill="none" xmlns="http://www.w3.org/2000/svg">
<path d="M692.613 305.756C700.857 310.956 704.13 320.585 699.923 327.26C695.716 333.936 686.086 335.455 677.378 329.931C669.147 324.71 665.861 315.102 670.068 308.427C674.626 300.995 684.369 300.555 692.613 305.756Z" fill="#945159"/>
<path d="M691.956 306.624C684.202 301.732 674.774 302.755 670.897 308.907C667.02 315.059 670.162 324.012 677.915 328.903C685.669 333.794 695.097 332.772 698.974 326.619C702.851 320.467 699.709 311.515 691.956 306.624Z" fill="#C7A393"/>
<path d="M688.092 324.247C688.106 324.099 688.102 324.097 688.08 324.255C688.042 324.439 688.022 324.654 688.022 324.836C688.029 325.382 688.439 325.676 688.831 325.729C688.995 325.753 689.165 325.745 689.335 325.721C689.435 325.76 689.553 325.772 689.678 325.762C690.107 325.721 690.572 325.474 690.993 325.12C691.809 324.636 692.677 323.667 692.839 322.598C693.131 320.662 691.517 320.871 690.304 321.391C689.579 321.705 688.886 322.385 688.382 323.197C688.192 323.496 688.101 323.941 688.092 324.247Z" fill="#BA7766"/>
<path d="M692.737 318.578C692.757 318.617 692.774 318.654 692.792 318.699C693.022 319.193 693.892 318.858 694.331 318.527C694.396 318.484 694.462 318.427 694.526 318.384C694.891 318.105 695.33 317.711 695.472 317.188C695.653 316.539 695.144 316.367 694.752 316.399C694.14 316.463 692.26 317.544 692.737 318.578Z" fill="#BA7766"/>
<path d="M675.28 316.659C675.349 316.773 675.433 316.867 675.531 316.947C675.812 317.764 677.331 317.032 677.9 316.481C677.903 316.476 677.903 316.476 677.906 316.47C677.983 316.412 678.084 316.325 678.249 316.187C678.618 315.883 678.887 315.504 679.154 315.06C680.053 313.551 678.523 313.305 677.759 313.542C677.072 313.756 676.304 314.236 675.735 314.957C675.346 315.447 674.994 316.212 675.28 316.659Z" fill="#BA7766"/>
<path d="M679.95 310.432C680.516 310.535 681.192 310.21 681.775 309.694C682.453 309.286 683.216 308.619 683.165 307.797C683.098 306.741 681.57 307.235 680.929 307.748C680.451 308.136 679.912 308.59 679.62 309.23C679.319 309.894 679.462 310.343 679.95 310.432Z" fill="#BA7766"/>
<path d="M684.133 322.631C684.091 323.637 686.288 322.455 686.087 321.638C686.031 321.418 685.996 321.485 686.088 321.259C686.252 320.854 685.832 320.744 685.635 320.76C685.214 320.804 684.732 321.113 684.419 321.609C684.194 321.975 684.152 322.255 684.133 322.631Z" fill="#BA7766"/>
<path d="M681.764 315.931C681.746 315.956 681.742 315.982 681.731 316.004C681.705 316.061 681.687 316.115 681.663 316.166C681.635 316.237 681.611 316.301 681.596 316.363C681.591 316.388 681.594 316.411 681.592 316.431C681.582 316.505 681.57 316.581 681.575 316.648C681.575 316.655 681.58 316.664 681.584 316.674C681.606 316.869 681.678 317.047 681.748 317.232C681.969 317.785 682.886 317.511 683.368 317.266C683.82 317.04 684.792 316.357 684.884 315.639C684.952 315.161 685.078 314.615 684.691 314.445C684.125 314.195 683.422 314.394 682.745 314.873C682.42 315.102 682.012 315.506 681.772 315.934C681.767 315.932 681.767 315.932 681.764 315.931Z" fill="#BA7766"/>
<path d="M687.642 316.712C688.353 316.645 689.415 316.072 689.914 315.126L690.03 314.906C690.526 313.965 689.931 313.551 689.326 313.612C688.612 313.677 687.548 314.255 687.05 315.195L686.937 315.409C686.437 316.356 687.033 316.77 687.642 316.712Z" fill="#BA7766"/>
<path d="M678.031 321.938C678.024 321.969 678.023 321.997 678.019 322.03C678.016 322.071 678.002 322.113 678.004 322.155C678.007 322.15 678.01 322.152 678.016 322.148C678.02 322.367 678.098 322.563 678.306 322.695C678.938 323.092 680.07 322.649 680.837 321.951C680.843 321.947 680.846 321.941 680.859 321.934C681.444 321.526 682.328 320.642 682.278 319.791C682.21 318.721 680.841 319.024 680.14 319.399C679.268 319.869 678.171 320.737 678.031 321.938Z" fill="#BA7766"/>
</svg>
