<svg width="973" height="508" viewBox="0 0 973 508" fill="none" xmlns="http://www.w3.org/2000/svg">
<path d="M900.017 393.576C902.306 403.052 897.943 412.239 890.275 414.093C882.606 415.947 874.641 410.324 872.245 400.292C869.98 390.81 874.319 381.63 881.988 379.775C890.435 377.623 897.729 384.1 900.017 393.576Z" fill="#945159"/>
<path d="M898.942 393.74C896.789 384.828 889.315 378.988 882.248 380.698C875.18 382.407 871.195 391.017 873.347 399.929C875.499 408.842 882.974 414.681 890.041 412.972C897.109 411.263 901.094 402.653 898.942 393.74Z" fill="#C7A393"/>
<path d="M883.89 403.687C884.003 403.59 884.002 403.586 883.876 403.683C883.721 403.789 883.556 403.929 883.429 404.06C883.054 404.457 883.143 404.953 883.387 405.264C883.488 405.395 883.616 405.508 883.754 405.61C883.799 405.707 883.874 405.798 883.972 405.879C884.308 406.148 884.813 406.294 885.362 406.335C886.284 406.556 887.582 406.466 888.443 405.812C890.001 404.628 888.698 403.653 887.466 403.18C886.728 402.9 885.756 402.905 884.829 403.136C884.485 403.218 884.11 403.474 883.89 403.687Z" fill="#BA7766"/>
<path d="M891.171 402.859C891.159 402.901 891.145 402.94 891.126 402.984C890.947 403.499 891.804 403.865 892.35 403.934C892.427 403.948 892.514 403.953 892.59 403.967C893.046 404.021 893.635 404.045 894.102 403.769C894.685 403.429 894.439 402.951 894.135 402.701C893.651 402.32 891.55 401.785 891.171 402.859Z" fill="#BA7766"/>
<path d="M879.989 389.311C879.959 389.441 879.954 389.567 879.968 389.692C879.6 390.474 881.2 391.008 881.991 391.009C881.997 391.008 881.997 391.008 882.003 391.005C882.099 391.018 882.232 391.026 882.446 391.042C882.923 391.081 883.38 390.997 883.881 390.865C885.577 390.409 884.651 389.166 883.938 388.803C883.297 388.478 882.411 388.287 881.501 388.407C880.88 388.488 880.095 388.791 879.989 389.311Z" fill="#BA7766"/>
<path d="M887.676 388.102C888.01 388.57 888.721 388.808 889.499 388.844C890.269 389.024 891.281 389.078 891.817 388.453C892.506 387.649 891.066 386.938 890.249 386.859C889.635 386.805 888.932 386.754 888.277 387.009C887.598 387.276 887.387 387.697 887.676 388.102Z" fill="#BA7766"/>
<path d="M882.178 399.768C881.447 400.46 883.846 401.143 884.271 400.417C884.384 400.221 884.312 400.244 884.535 400.146C884.935 399.969 884.711 399.599 884.559 399.473C884.226 399.211 883.665 399.097 883.095 399.235C882.679 399.34 882.454 399.511 882.178 399.768Z" fill="#BA7766"/>
<path d="M885.146 393.309C885.115 393.315 885.095 393.331 885.071 393.339C885.013 393.362 884.962 393.387 884.91 393.408C884.841 393.439 884.778 393.468 884.724 393.502C884.703 393.517 884.69 393.535 884.674 393.549C884.616 393.594 884.554 393.64 884.511 393.692C884.506 393.698 884.504 393.707 884.5 393.717C884.38 393.872 884.307 394.05 884.228 394.231C884.001 394.781 884.85 395.225 885.366 395.384C885.847 395.538 887.02 395.725 887.587 395.275C887.968 394.979 888.439 394.676 888.28 394.284C888.049 393.71 887.406 393.363 886.586 393.234C886.194 393.172 885.62 393.178 885.149 393.318C885.147 393.313 885.147 393.313 885.146 393.309Z" fill="#BA7766"/>
<path d="M888.818 397.969C889.374 398.416 890.535 398.745 891.551 398.414L891.788 398.337C892.8 398.009 892.662 397.297 892.185 396.919C891.628 396.468 890.462 396.14 889.45 396.468L889.22 396.542C888.202 396.873 888.34 397.585 888.818 397.969Z" fill="#BA7766"/>
<path d="M878.285 395.015C878.258 395.032 878.238 395.052 878.212 395.073C878.182 395.1 878.142 395.121 878.114 395.152C878.12 395.151 878.121 395.154 878.128 395.155C877.978 395.316 877.897 395.51 877.955 395.75C878.131 396.475 879.251 396.946 880.288 396.98C880.295 396.981 880.301 396.98 880.315 396.983C881.019 397.098 882.269 397.081 882.826 396.435C883.523 395.62 882.33 394.884 881.566 394.664C880.614 394.393 879.222 394.251 878.285 395.015Z" fill="#BA7766"/>
</svg>
