<svg width="973" height="508" viewBox="0 0 973 508" fill="none" xmlns="http://www.w3.org/2000/svg">
<path d="M291.091 208.378C293.38 217.855 289.018 227.041 281.349 228.895C273.68 230.75 265.715 225.126 263.319 215.094C261.054 205.612 265.393 196.432 273.062 194.577C281.509 192.425 288.803 198.902 291.091 208.378Z" fill="#945159"/>
<path d="M290.016 208.542C287.864 199.63 280.39 193.791 273.322 195.5C266.254 197.209 262.269 205.819 264.422 214.732C266.574 223.644 274.048 229.483 281.115 227.774C288.183 226.065 292.168 217.455 290.016 208.542Z" fill="#C7A393"/>
<path d="M274.964 218.489C275.077 218.392 275.076 218.388 274.95 218.486C274.795 218.591 274.63 218.731 274.503 218.863C274.128 219.259 274.217 219.755 274.462 220.067C274.562 220.197 274.69 220.31 274.828 220.412C274.873 220.509 274.949 220.601 275.046 220.681C275.382 220.95 275.887 221.097 276.436 221.137C277.358 221.358 278.657 221.268 279.517 220.615C281.076 219.43 279.773 218.455 278.54 217.982C277.802 217.702 276.831 217.707 275.904 217.938C275.56 218.02 275.184 218.276 274.964 218.489Z" fill="#BA7766"/>
<path d="M282.245 217.661C282.233 217.703 282.219 217.742 282.201 217.787C282.021 218.301 282.879 218.667 283.424 218.736C283.501 218.75 283.588 218.755 283.664 218.77C284.12 218.823 284.709 218.847 285.176 218.571C285.759 218.232 285.513 217.753 285.209 217.503C284.726 217.122 282.624 216.587 282.245 217.661Z" fill="#BA7766"/>
<path d="M271.063 204.113C271.033 204.243 271.028 204.369 271.042 204.494C270.674 205.276 272.274 205.81 273.065 205.811C273.071 205.81 273.071 205.81 273.078 205.807C273.173 205.82 273.307 205.828 273.52 205.844C273.997 205.883 274.454 205.799 274.955 205.667C276.651 205.211 275.725 203.969 275.013 203.605C274.371 203.281 273.486 203.09 272.575 203.209C271.954 203.29 271.169 203.593 271.063 204.113Z" fill="#BA7766"/>
<path d="M278.75 202.904C279.084 203.372 279.795 203.61 280.573 203.646C281.343 203.826 282.355 203.88 282.891 203.255C283.58 202.451 282.14 201.741 281.323 201.661C280.71 201.607 280.007 201.556 279.351 201.811C278.672 202.078 278.462 202.5 278.75 202.904Z" fill="#BA7766"/>
<path d="M273.252 214.57C272.521 215.262 274.92 215.945 275.345 215.219C275.458 215.023 275.387 215.046 275.61 214.949C276.01 214.772 275.785 214.401 275.633 214.275C275.3 214.013 274.739 213.899 274.169 214.037C273.753 214.142 273.528 214.314 273.252 214.57Z" fill="#BA7766"/>
<path d="M276.221 208.112C276.19 208.117 276.169 208.133 276.145 208.141C276.087 208.164 276.036 208.19 275.984 208.21C275.915 208.241 275.853 208.27 275.799 208.304C275.778 208.319 275.764 208.337 275.748 208.351C275.69 208.396 275.628 208.443 275.586 208.494C275.58 208.5 275.578 208.509 275.574 208.519C275.454 208.674 275.381 208.853 275.302 209.034C275.075 209.584 275.924 210.027 276.44 210.187C276.922 210.34 278.095 210.527 278.661 210.077C279.043 209.781 279.514 209.478 279.355 209.087C279.123 208.512 278.481 208.165 277.661 208.037C277.269 207.974 276.694 207.98 276.224 208.12C276.221 208.115 276.221 208.115 276.221 208.112Z" fill="#BA7766"/>
<path d="M279.892 212.771C280.448 213.218 281.609 213.548 282.626 213.217L282.863 213.14C283.874 212.811 283.736 212.099 283.26 211.721C282.702 211.27 281.537 210.943 280.525 211.27L280.294 211.345C279.276 211.676 279.414 212.388 279.892 212.771Z" fill="#BA7766"/>
<path d="M269.359 209.817C269.332 209.835 269.312 209.854 269.286 209.875C269.256 209.902 269.216 209.923 269.188 209.954C269.195 209.953 269.195 209.956 269.203 209.958C269.053 210.118 268.971 210.313 269.029 210.552C269.205 211.277 270.325 211.748 271.362 211.782C271.369 211.784 271.376 211.782 271.39 211.785C272.094 211.901 273.343 211.883 273.9 211.237C274.597 210.422 273.404 209.687 272.641 209.466C271.688 209.196 270.296 209.054 269.359 209.817Z" fill="#BA7766"/>
</svg>
