<svg width="150" height="140" viewBox="0 0 150 140" fill="none" xmlns="http://www.w3.org/2000/svg">
<path d="M3.46533 61.006C5.20243 74.797 18.3857 95.3269 43.2013 91.0328C68.017 86.7388 71.0879 55.9284 69.723 43.7985L34.3608 47.7478L3.46533 61.006Z" fill="#8CA7DB"/>
<path d="M3.83751 61.5702C0.3323 57.8403 14.6943 48.8448 31.9102 44.394C48.9709 39.9746 69.4748 39.912 69.723 43.9552C70.0642 49.2836 55.3299 45.9926 37.7729 50.4746C21.3635 54.6746 6.87742 64.7985 3.83751 61.5702Z" fill="#5676D6"/>
<path d="M7.62207 60.0657C4.58216 56.8373 17.5483 49.2209 32.5308 45.3657C47.3581 41.5418 66.0008 40.8522 66.249 44.3627C66.28 47.2149 51.8559 45.4284 36.6253 49.3149C22.2943 52.9821 9.01795 62.4164 7.62207 60.0657Z" fill="#26376D"/>
<path d="M81.2935 42.921C81.6967 51.8538 85.4811 80.5329 105.21 82.3195C124.938 84.106 134.74 71.6941 136.973 44.8643L109.831 40.4135L81.2935 42.921Z" fill="#8CA7DB"/>
<path d="M81.2933 42.9209C81.3554 45.9612 97.9198 42.9523 110.7 43.9553C123.48 44.9582 133.933 48.2493 136.663 45.397C139.393 42.5448 122.363 39.0344 110.917 38.3761C99.4708 37.6866 81.2003 38.3448 81.2933 42.9209Z" fill="#5676D6"/>
<path d="M87.218 42.3254C87.249 44.7388 100.308 42.3881 110.359 43.2344C120.409 44.0806 128.66 46.6821 130.8 44.4254C132.972 42.2 119.54 39.3791 110.545 38.815C101.549 38.2821 87.1559 38.7523 87.218 42.3254Z" fill="#26376D"/>
<path d="M46.5517 62.9492L24.0625 71.5687C25.6445 80.094 33.8957 102.849 53.5621 100.53C73.2284 98.2104 70.4677 68.9985 69.351 60.8492L46.5517 62.9492Z" fill="#ACC1F2"/>
<path d="M23.9693 71.694C21.7979 67.9642 36.7803 62.9493 45.745 60.5985C56.6328 57.7463 69.1957 58.1224 69.4439 61.0373C69.6921 63.9523 60.2931 63.0746 47.9784 65.6448C36.1289 68.0896 25.8925 74.8911 23.9693 71.694Z" fill="#677EF5"/>
<path d="M28.4668 69.8761C26.6987 67.1806 38.6102 63.2627 45.7447 61.4134C54.3991 59.1567 64.4494 59.2507 64.6976 61.3821C64.9147 63.5134 56.9427 62.6358 47.1405 64.7045C37.6796 66.6791 30.0178 72.2268 28.4668 69.8761Z" fill="#2E3F8A"/>
<path d="M99.2843 58.2164L74.0654 60.7239C73.8793 68.6851 77.4465 97.2702 93.1424 98.8687C108.838 100.467 122.456 92.0358 123.231 64.2343L99.2843 58.2164Z" fill="#ACC1F2"/>
<path d="M74.0035 60.6612C73.0729 56.1164 89.8235 55.5836 99.6567 55.9597C111.568 56.3985 124.069 60.8179 123.325 63.9209C122.58 67.0239 113.553 62.7926 100.308 61.5702C87.5901 60.4105 74.841 64.6732 74.0035 60.6612Z" fill="#677EF5"/>
<path d="M77.9429 60.003C77.1985 56.806 91.2813 56.4299 99.5015 56.712C109.49 57.0254 119.943 60.0971 119.292 62.2911C118.641 64.4851 111.103 61.5075 99.9978 60.6612C89.3271 59.815 78.5943 62.7926 77.9429 60.003Z" fill="#2E3F8A"/>
<path d="M137.904 66.7418L128.877 65.9582C128.474 71.9134 129.684 85.9552 134.337 86.9582C138.989 87.9612 143.922 83.5418 145.504 72.9164L137.904 66.7418Z" fill="#ACC1F2"/>
<path d="M129.032 65.394C130.149 63.2 137.469 64.0463 141.347 66.6164C145.007 69.0612 146.651 72.1328 145.131 73.3552C143.673 74.5149 141.006 70.6597 137.624 68.9045C134.119 67.0552 127.884 67.6821 129.032 65.394Z" fill="#677EF5"/>
<path d="M130.769 65.6134C131.731 64.0462 137.718 64.8612 140.851 66.8045C143.797 68.6537 145.038 70.9104 143.766 71.7567C142.557 72.5716 140.478 69.7194 137.749 68.3403C134.926 66.9298 129.777 67.2119 130.769 65.6134Z" fill="#2E3F8A"/>
</svg>
