<svg width="26" height="56" viewBox="0 0 26 56" fill="none" xmlns="http://www.w3.org/2000/svg">
<path d="M22.7655 0.209839C22.7655 0.209839 18.4355 3.67984 17.7555 9.25984C17.0855 14.8398 18.6255 20.9098 20.4555 26.7798C22.2855 32.6498 28.1555 40.4498 21.0355 43.1498V44.0199C21.0355 44.0199 25.1055 42.9799 25.7555 39.2999C26.4055 35.6199 23.3755 31.2798 21.7155 27.3098C20.0555 23.3398 15.7955 8.24984 22.5055 2.75984L22.7655 0.209839Z" fill="#EA9553"/>
<path d="M21.0355 44.0899C21.0255 44.0899 21.0055 44.0799 20.9955 44.0699C20.9755 44.0599 20.9655 44.0399 20.9655 44.0099V43.1399C20.9655 43.1099 20.9855 43.0799 21.0155 43.0699C22.5755 42.4799 23.5655 41.6299 24.0555 40.4699C25.1055 37.9799 23.5655 34.4599 22.0855 31.0599C21.4655 29.6299 20.8155 28.1399 20.3955 26.7899C18.5955 20.9999 17.0155 14.8699 17.6955 9.23986C18.3655 3.68986 22.6855 0.179866 22.7255 0.139866C22.7455 0.119866 22.7755 0.119856 22.8055 0.129856C22.8355 0.139856 22.8455 0.169863 22.8455 0.199863L22.5755 2.74987C22.5755 2.76987 22.5655 2.78987 22.5455 2.79987C18.9755 5.71987 18.6655 11.3599 19.0355 15.5799C19.4855 20.7199 21.0255 25.4699 21.7755 27.2699C22.2055 28.3099 22.7455 29.3899 23.2655 30.4399C24.7555 33.4499 26.3055 36.5499 25.8155 39.2999C25.1655 42.9799 21.0855 44.0699 21.0455 44.0799C21.0455 44.0899 21.0455 44.0899 21.0355 44.0899ZM21.1055 43.1999V43.9199C21.7055 43.7399 25.0955 42.5799 25.6855 39.2899C26.1555 36.5899 24.6255 33.5099 23.1455 30.5199C22.6255 29.4699 22.0855 28.3799 21.6455 27.3399C20.8955 25.5399 19.3455 20.7599 18.8955 15.6099C18.5255 11.3599 18.8355 5.68987 22.4355 2.71987L22.6755 0.379856C21.9355 1.02986 18.4255 4.32987 17.8355 9.26987C17.1555 14.8699 18.7255 20.9899 20.5255 26.7599C20.9455 28.0999 21.5855 29.5799 22.2155 31.0099C23.7155 34.4399 25.2655 37.9899 24.1855 40.5399C23.6855 41.7299 22.6755 42.5999 21.1055 43.1999Z" fill="#F07F33"/>
<path opacity="0.8" d="M21.7154 27.3198C20.0554 23.3498 15.7955 8.25985 22.5055 2.76985L22.7655 0.219849C22.7655 0.219849 20.9255 1.69985 19.4455 4.27985C19.7955 4.07985 20.1655 3.95984 20.4055 4.11984C20.4055 4.11984 18.2854 7.14984 18.0954 12.7398C17.9054 18.3198 21.1755 27.8598 21.9455 29.4898C22.7155 31.1298 26.8054 39.0198 24.0654 40.8498C24.0054 40.8898 23.9455 40.9198 23.8955 40.9598C23.3755 41.8598 22.4654 42.6199 21.0254 43.1599V44.0298C21.0254 44.0298 25.0954 42.9898 25.7454 39.3098C26.4054 35.6198 23.3754 31.2898 21.7154 27.3198Z" fill="#EA9553"/>
<path opacity="0.7" d="M18.9255 5.64984C18.9255 5.64984 16.9055 10.4198 18.1555 17.3498C18.1555 17.3498 17.3355 10.7098 18.9255 5.64984Z" fill="white"/>
<path opacity="0.7" d="M22.1055 30.6899C22.1055 30.6899 25.4755 37.7199 24.3155 40.2699C24.3155 40.2699 25.5155 38.5799 24.0755 34.9299C22.6355 31.2599 22.1055 30.6899 22.1055 30.6899Z" fill="white"/>
<path d="M4.04546 0.209839C4.04546 0.209839 8.37545 3.67984 9.05545 9.25984C9.72545 14.8398 8.18545 20.9098 6.35545 26.7798C4.52545 32.6498 -1.34454 40.4498 5.77545 43.1498V44.0199C5.77545 44.0199 1.70545 42.9799 1.05545 39.2999C0.405454 35.6199 3.43545 31.2798 5.10545 27.3098C6.76545 23.3398 11.0255 8.24984 4.30545 2.75984L4.04546 0.209839Z" fill="#EA9553"/>
<path d="M5.78545 44.0899C5.78545 44.0899 5.77545 44.0899 5.76545 44.0899C5.72545 44.0799 1.64545 42.9999 0.995445 39.3099C0.515445 36.5699 2.05545 33.4599 3.54545 30.4499C4.06545 29.3999 4.60545 28.3199 5.04545 27.2799C5.79545 25.4799 7.33545 20.7299 7.78545 15.5899C8.15545 11.3699 7.84545 5.71987 4.27545 2.80987C4.26545 2.79987 4.25545 2.77987 4.24545 2.75987L3.98545 0.209863C3.98545 0.179863 3.99545 0.149871 4.02545 0.139871C4.05545 0.129871 4.08545 0.129866 4.10545 0.149866C4.14545 0.179866 8.46544 3.69987 9.13544 9.24987C9.81544 14.8799 8.24545 21.0099 6.43545 26.7999C6.01545 28.1499 5.36545 29.6299 4.74545 31.0699C3.26545 34.4699 1.72545 37.9899 2.77545 40.4799C3.26545 41.6399 4.25545 42.4899 5.81544 43.0799C5.84545 43.0899 5.86545 43.1199 5.86545 43.1499V44.0199C5.86545 44.0399 5.85545 44.0599 5.83545 44.0799C5.81545 44.0899 5.79545 44.0899 5.78545 44.0899ZM4.38544 2.71987C7.98544 5.68987 8.29545 11.3599 7.92545 15.6099C7.47545 20.7599 5.92545 25.5399 5.17545 27.3399C4.73545 28.3799 4.20545 29.4699 3.67545 30.5199C2.19545 33.4999 0.655445 36.5899 1.13544 39.2899C1.71544 42.5799 5.10545 43.7399 5.70545 43.9199V43.1999C4.13545 42.5999 3.12545 41.7299 2.62545 40.5399C1.54545 37.9899 3.09545 34.4399 4.59545 31.0099C5.21545 29.5799 5.86545 28.0999 6.28545 26.7599C8.08545 20.9899 9.65545 14.8699 8.97545 9.26988C8.37545 4.33988 4.86545 1.02986 4.12545 0.379862L4.38544 2.71987Z" fill="#F07F33"/>
<path opacity="0.8" d="M4.04545 0.209839L4.30545 2.75984C4.97545 3.30984 5.53545 3.94985 6.00545 4.66985C6.05545 4.52985 6.14545 4.45984 6.30545 4.48984C7.02545 4.62984 8.56545 7.08984 8.56545 13.1998C8.56545 19.3098 7.12545 23.4098 5.72545 26.7798C4.32545 30.1498 1.10545 35.6898 1.92545 39.3898C1.92545 39.3898 2.06545 40.2098 2.40545 40.7898C2.61545 41.1598 2.50545 41.5798 2.16545 41.6998C3.58545 43.4498 5.77545 44.0098 5.77545 44.0098V43.1398C-1.34455 40.4398 4.52545 32.6399 6.35545 26.7699C8.18545 20.8999 9.72545 14.8298 9.05545 9.24985C8.38545 3.67985 4.04545 0.209839 4.04545 0.209839Z" fill="#EA9553"/>
<path opacity="0.7" d="M2.57544 32.9799C2.57544 32.9799 0.515441 37.3899 1.27544 39.6199C1.27544 39.6199 1.63544 40.5899 1.99544 41.0299C2.00544 41.0399 0.23544 38.6899 2.57544 32.9799Z" fill="white"/>
<path opacity="0.7" d="M6.73545 5.71985C6.73545 5.71985 9.19545 9.29985 7.81545 17.6398L6.69545 23.6298C6.69545 23.6298 8.21545 18.3599 8.42545 13.7699C8.68545 8.28985 6.73545 5.71985 6.73545 5.71985Z" fill="white"/>
<path d="M20.9454 41.6299C18.6254 38.5799 14.2454 38.5699 14.2454 38.5699H12.5654C12.5654 38.5699 8.1854 38.5799 5.8654 41.6299C3.5454 44.6799 6.07541 46.4799 9.22541 47.5899C9.22541 47.5899 11.8154 48.1499 12.3754 49.6299L13.0154 54.9499C13.1254 54.9999 13.2854 54.9999 13.3754 55.0099C13.5254 55.0199 13.6654 55.0099 13.7954 54.9599L14.4354 49.6299C14.9854 48.1499 17.5854 47.5899 17.5854 47.5899C20.7354 46.4699 23.2654 44.6799 20.9454 41.6299Z" fill="#CE8453"/>
<path d="M13.4854 55.0699C13.4454 55.0699 13.4154 55.0699 13.3854 55.0699H13.3354C13.2354 55.0599 13.1054 55.0599 12.9954 55.0099C12.9754 54.9999 12.9554 54.9799 12.9554 54.9499L12.3154 49.6399C11.7754 48.2199 9.24541 47.6599 9.22541 47.6599C6.75541 46.7899 5.37541 45.7599 5.00541 44.5199C4.73541 43.6399 5.01541 42.6499 5.82541 41.5799C8.13541 38.5299 12.5354 38.4899 12.5754 38.4899H14.2554C14.3054 38.4899 18.6954 38.5299 21.0054 41.5799C21.8154 42.6399 22.0854 43.6299 21.8254 44.5199C21.4554 45.7599 20.0754 46.7799 17.6154 47.6499C17.5854 47.6599 15.0554 48.2199 14.5154 49.6399L13.8754 54.9599C13.8754 54.9899 13.8554 55.0099 13.8254 55.0199C13.7154 55.0599 13.6054 55.0699 13.4854 55.0699ZM13.0854 54.8899C13.1654 54.9099 13.2554 54.9199 13.3354 54.9299H13.3854C13.4154 54.9299 13.4454 54.9299 13.4754 54.9299C13.5654 54.9299 13.6454 54.9199 13.7254 54.8899L14.3554 49.6099C14.3554 49.6099 14.3554 49.5999 14.3554 49.5899C14.9154 48.0899 17.4454 47.5299 17.5554 47.5099C19.9354 46.6699 21.3154 45.6499 21.6654 44.4799C21.9154 43.6399 21.6454 42.6999 20.8754 41.6699C18.6054 38.6799 14.2854 38.6399 14.2354 38.6399H12.5654C12.5254 38.6399 8.19541 38.6799 5.92541 41.6699C5.14541 42.6899 4.8854 43.6399 5.1354 44.4799C5.4854 45.6499 6.87541 46.6799 9.25541 47.5199C9.35541 47.5399 11.8854 48.0999 12.4454 49.5999C12.4454 49.5999 12.4454 49.6099 12.4454 49.6199L13.0854 54.8899Z" fill="#944A24"/>
<path opacity="0.6" d="M20.9454 41.6298C20.2954 40.7698 19.4754 40.1498 18.6354 39.7098C19.3454 40.5798 19.6054 41.7598 19.1154 42.8298C17.8954 45.5398 14.6654 46.1598 11.9954 46.1098C10.0954 46.0698 7.0654 45.8998 6.0554 43.9698C5.7254 43.3398 5.6854 42.4498 5.8854 41.6198C5.8754 41.6298 5.8754 41.6398 5.8654 41.6398C3.5454 44.6898 6.07541 46.4898 9.22541 47.5998C9.22541 47.5998 11.8154 48.1598 12.3754 49.6398L13.0154 54.9598C13.1254 55.0098 13.2854 55.0099 13.3754 55.0199C13.5254 55.0299 13.6654 55.0198 13.7954 54.9698L14.4354 49.6398C14.9854 48.1598 17.5854 47.5998 17.5854 47.5998C20.7354 46.4698 23.2654 44.6798 20.9454 41.6298Z" fill="#CE8453"/>
<g opacity="0.8">
<path opacity="0.8" d="M12.9354 54.8798C12.9254 54.7198 12.8954 54.3898 12.8554 53.9298C12.8054 53.2498 12.7154 52.2798 12.5954 51.1098C12.5554 50.8198 12.5254 50.5198 12.4854 50.1998C12.4654 50.0398 12.4454 49.8798 12.4254 49.7198C12.4154 49.5598 12.3654 49.3898 12.2854 49.2398C12.1254 48.9398 11.8354 48.7099 11.5454 48.5199C11.2454 48.3299 10.9154 48.1798 10.5854 48.0298C9.90541 47.7398 9.19541 47.4998 8.47541 47.2198C7.76541 46.9398 7.04541 46.6299 6.41541 46.1599C6.10541 45.9299 5.82541 45.6498 5.60541 45.3398C5.38541 45.0298 5.22541 44.6699 5.14541 44.2999C5.06541 43.9299 5.06541 43.5398 5.14541 43.1798C5.26541 42.8298 5.40541 42.4798 5.59541 42.1698C5.63541 42.0898 5.68541 42.0098 5.73541 41.9398C5.78541 41.8598 5.83541 41.7898 5.88541 41.7098C5.99541 41.5698 6.09541 41.4198 6.21541 41.2898C6.44541 41.0198 6.69541 40.7898 6.95541 40.5798C7.21541 40.3698 7.48541 40.1899 7.75541 40.0199C8.02541 39.8599 8.29541 39.7198 8.56541 39.5998C9.09541 39.3598 9.60541 39.1898 10.0654 39.0698C10.5254 38.9498 10.9354 38.8698 11.2654 38.8198C11.9354 38.7198 12.3354 38.7098 12.3354 38.7098C12.3354 38.7098 11.9454 38.7099 11.2654 38.7999C10.9254 38.8499 10.5154 38.9198 10.0554 39.0398C9.59541 39.1598 9.07541 39.3198 8.54541 39.5598C8.27541 39.6798 8.00541 39.8198 7.73541 39.9798C7.46541 40.1398 7.19541 40.3198 6.93541 40.5398C6.67541 40.7498 6.41541 40.9898 6.18541 41.2598C6.06541 41.3898 5.96541 41.5398 5.85541 41.6798C5.80541 41.7598 5.75541 41.8299 5.70541 41.9099C5.65541 41.9899 5.60541 42.0598 5.56541 42.1498C5.37541 42.4698 5.23541 42.8098 5.10541 43.1698C5.02541 43.5498 5.02541 43.9398 5.10541 44.3198C5.18541 44.6998 5.34541 45.0698 5.56541 45.3898C5.78541 45.7098 6.06541 45.9998 6.38541 46.2298C7.01541 46.6998 7.74541 47.0098 8.46541 47.2898C9.18541 47.5698 9.90541 47.8098 10.5754 48.0898C10.9054 48.2298 11.2354 48.3798 11.5354 48.5698C11.8254 48.7598 12.1054 48.9799 12.2554 49.2699C12.3354 49.4199 12.3854 49.5698 12.3954 49.7298C12.4154 49.8898 12.4354 50.0498 12.4554 50.2098C12.4954 50.5198 12.5354 50.8298 12.5754 51.1198C12.6354 51.6998 12.6954 52.2398 12.7454 52.7098C12.7954 53.1798 12.8354 53.5998 12.8654 53.9398C12.8954 54.3898 12.9254 54.7098 12.9354 54.8798Z" fill="#EA9553"/>
<path opacity="0.8" d="M12.9054 53.9798C12.9454 54.4598 12.9754 54.7798 12.9854 54.9198C12.9754 54.7798 12.9554 54.4498 12.9154 53.9798C12.8854 53.6498 12.8654 53.2598 12.8254 52.8098C12.7854 52.3598 12.7454 51.8498 12.6954 51.2898C12.6754 51.0098 12.6354 50.7198 12.6054 50.4198C12.5854 50.2698 12.5754 50.1198 12.5554 49.9598C12.5454 49.8798 12.5354 49.7998 12.5254 49.7198L12.5154 49.5998L12.4854 49.4798C12.4054 49.1598 12.1954 48.8798 11.9354 48.6698C11.6754 48.4498 11.3754 48.2798 11.0654 48.1198C10.4354 47.8098 9.75542 47.5599 9.08542 47.2699C8.41542 46.9799 7.73541 46.6598 7.15541 46.1998C6.86541 45.9698 6.61541 45.6998 6.40541 45.3998C6.20541 45.0898 6.05541 44.7498 5.97541 44.3998C5.89541 44.0498 5.87542 43.6798 5.92542 43.3298C5.93542 43.1498 6.01541 42.9898 6.06541 42.8198C6.12541 42.6498 6.19542 42.4898 6.26542 42.3398C6.56542 41.7098 6.96542 41.1598 7.42542 40.7198C7.53542 40.5998 7.66541 40.5098 7.77541 40.3998C7.89541 40.3098 8.01541 40.2098 8.13541 40.1198C8.37541 39.9398 8.63542 39.7998 8.87542 39.6698C9.37542 39.4098 9.84542 39.2298 10.2854 39.0898C10.7154 38.9598 11.1054 38.8698 11.4254 38.8198C12.0654 38.7098 12.4454 38.7098 12.4454 38.7098C12.4454 38.7098 12.0754 38.7098 11.4254 38.8098C11.1054 38.8598 10.7154 38.9398 10.2854 39.0698C9.84542 39.1998 9.36542 39.3798 8.86542 39.6398C8.61542 39.7698 8.36542 39.9198 8.11542 40.0898C7.98542 40.1698 7.87541 40.2698 7.74541 40.3598C7.62541 40.4598 7.50542 40.5598 7.39542 40.6798C7.15542 40.8998 6.94541 41.1498 6.74541 41.4198C6.54541 41.6898 6.36542 41.9898 6.21542 42.3098C6.14542 42.4698 6.07542 42.6299 6.00542 42.7999C5.95542 42.9699 5.87542 43.1298 5.85542 43.3198C5.80542 43.6798 5.82541 44.0499 5.90541 44.4099C5.98541 44.7699 6.13541 45.1198 6.33541 45.4398C6.54541 45.7498 6.79542 46.0299 7.09542 46.2699C7.68542 46.7299 8.37542 47.0498 9.04542 47.3398C9.72542 47.6298 10.4054 47.8698 11.0254 48.1798C11.3354 48.3398 11.6354 48.4998 11.8954 48.7198C12.1554 48.9298 12.3654 49.1998 12.4354 49.4998L12.4654 49.6198L12.4754 49.7398C12.4854 49.8198 12.4954 49.8998 12.5054 49.9698C12.5254 50.1198 12.5454 50.2798 12.5554 50.4198C12.5954 50.7198 12.6254 51.0098 12.6554 51.2898C12.7054 51.8498 12.7554 52.3599 12.8054 52.7999C12.8454 53.2599 12.8754 53.6498 12.9054 53.9798Z" fill="#EA9553"/>
<path opacity="0.8" d="M12.8754 52.9099C12.9154 53.3399 12.9354 53.7199 12.9654 54.0299C13.0054 54.5099 13.0254 54.8299 13.0354 54.9499C13.0254 54.8299 13.0054 54.5099 12.9754 54.0299C12.9354 53.4099 12.8754 52.5299 12.7854 51.4599C12.7454 50.9299 12.6754 50.3599 12.6254 49.7499C12.6154 49.5999 12.5854 49.4399 12.5254 49.2899C12.4654 49.1399 12.3754 49.0099 12.2754 48.8799C12.0654 48.6299 11.7954 48.4299 11.5154 48.2599C10.9454 47.9099 10.3054 47.6499 9.67541 47.3599C9.04541 47.0599 8.40542 46.7399 7.87542 46.2799C7.33542 45.8299 6.94541 45.1999 6.78541 44.5299C6.70541 44.1999 6.67541 43.8499 6.69541 43.5099C6.70541 43.3399 6.72541 43.1799 6.78541 43.0199C6.81541 42.9399 6.83541 42.8599 6.85541 42.7799C6.88541 42.6999 6.91541 42.6199 6.94541 42.5499C7.17541 41.9299 7.51541 41.3799 7.90541 40.9099C8.30541 40.4499 8.74542 40.0799 9.19542 39.7999C9.64542 39.5199 10.0954 39.3199 10.4954 39.1699C10.9054 39.0199 11.2654 38.9299 11.5754 38.8699C11.8754 38.8099 12.1254 38.7799 12.2854 38.7599C12.4554 38.7399 12.5454 38.7399 12.5454 38.7399C12.5454 38.7399 12.4554 38.7399 12.2854 38.7499C12.1154 38.7599 11.8754 38.7899 11.5754 38.8499C11.2754 38.9099 10.9054 38.9999 10.4954 39.1399C10.0854 39.2799 9.63541 39.4799 9.18541 39.7599C8.73541 40.0399 8.27542 40.4099 7.87542 40.8799C7.48542 41.3499 7.13541 41.8999 6.89541 42.5299C6.86541 42.6099 6.83541 42.6899 6.80541 42.7599C6.78541 42.8399 6.75541 42.9199 6.73541 42.9999C6.67541 43.1599 6.65541 43.3399 6.64541 43.5099C6.62541 43.8499 6.64541 44.2099 6.72541 44.5499C6.88541 45.2399 7.27541 45.8799 7.82541 46.3399C8.37541 46.7999 9.01541 47.1299 9.64541 47.4199C10.2754 47.7199 10.9154 47.9699 11.4854 48.3099C11.7654 48.4799 12.0354 48.6799 12.2354 48.9199C12.3354 49.0399 12.4154 49.1699 12.4754 49.3199C12.5254 49.4699 12.5654 49.6099 12.5754 49.7599C12.6354 50.3699 12.7054 50.9399 12.7454 51.4699C12.7954 51.9899 12.8354 52.4799 12.8754 52.9099Z" fill="#EA9553"/>
<path opacity="0.8" d="M12.9354 53.0098C12.9654 53.4198 12.9854 53.7798 13.0154 54.0698C13.0454 54.5498 13.0654 54.8598 13.0754 54.9598C13.0754 54.8598 13.0554 54.5498 13.0254 54.0698C13.0054 53.7698 12.9854 53.4198 12.9654 52.9998C12.9354 52.5898 12.9054 52.1298 12.8654 51.6198C12.8254 51.1198 12.7854 50.5698 12.7354 49.9898C12.7254 49.8398 12.7154 49.6999 12.6954 49.5499C12.6754 49.3999 12.6254 49.2498 12.5554 49.1098C12.4154 48.8298 12.1954 48.5998 11.9454 48.3998C11.4354 48.0098 10.8354 47.7298 10.2554 47.4198C9.66542 47.1098 9.07542 46.7798 8.58542 46.3198C8.08542 45.8698 7.74541 45.2598 7.59541 44.6198C7.51541 44.2998 7.48541 43.9698 7.48541 43.6498C7.48541 43.4898 7.49541 43.3298 7.52541 43.1698C7.56541 43.0198 7.60542 42.8598 7.64542 42.7098C7.83542 42.1098 8.09541 41.5498 8.42541 41.0698C8.58541 40.8298 8.76541 40.6198 8.95541 40.4198C9.14541 40.2298 9.33542 40.0398 9.54542 39.8898C9.94542 39.5798 10.3554 39.3498 10.7254 39.1898C11.1054 39.0298 11.4454 38.9198 11.7354 38.8498C12.0254 38.7798 12.2554 38.7498 12.4054 38.7298C12.5654 38.7098 12.6454 38.7098 12.6454 38.7098C12.6454 38.7098 12.5654 38.7098 12.4054 38.7298C12.2454 38.7398 12.0154 38.7798 11.7254 38.8398C11.4354 38.9098 11.0954 39.0098 10.7154 39.1698C10.3354 39.3298 9.92542 39.5498 9.51542 39.8598C9.30542 40.0098 9.11541 40.1898 8.92541 40.3898C8.73541 40.5898 8.55541 40.8099 8.38541 41.0499C8.05541 41.5299 7.78541 42.0898 7.59541 42.6998C7.54541 42.8498 7.50542 43.0099 7.46542 43.1599C7.43542 43.3199 7.42541 43.4798 7.42541 43.6498C7.41541 43.9798 7.45542 44.3098 7.53542 44.6398C7.68542 45.2898 8.03542 45.9098 8.53542 46.3798C9.03542 46.8398 9.64541 47.1698 10.2354 47.4798C10.8254 47.7898 11.4254 48.0698 11.9254 48.4498C12.1754 48.6398 12.3854 48.8698 12.5254 49.1398C12.5954 49.2698 12.6454 49.4198 12.6554 49.5598C12.6754 49.6998 12.6854 49.8498 12.6954 49.9998C12.7454 50.5798 12.7854 51.1198 12.8254 51.6298C12.8654 52.1298 12.9054 52.5998 12.9354 53.0098Z" fill="#EA9553"/>
<path opacity="0.8" d="M12.7954 50.2399C12.8354 50.7899 12.8754 51.3099 12.9054 51.7899C12.9354 52.2699 12.9754 52.7099 12.9954 53.0999C13.0254 53.4899 13.0454 53.8299 13.0554 54.1099C13.0854 54.5799 13.1054 54.8799 13.1054 54.9699C13.1054 54.8899 13.0854 54.5899 13.0654 54.1099C13.0554 53.8299 13.0354 53.4899 13.0154 53.0899C13.0054 52.6999 12.9654 52.2599 12.9354 51.7799C12.9054 51.2999 12.8654 50.7799 12.8254 50.2299C12.8154 50.0899 12.8054 49.9499 12.7954 49.8099C12.7854 49.6699 12.7754 49.5199 12.7354 49.3799C12.6754 49.0899 12.5154 48.8199 12.3054 48.5999C11.8954 48.1499 11.3354 47.8399 10.7954 47.5099C10.2554 47.1899 9.70541 46.8499 9.25541 46.3899C8.80541 45.9399 8.50541 45.3499 8.36541 44.7399C8.29541 44.4399 8.25541 44.1199 8.24541 43.8099C8.24541 43.4999 8.24541 43.1999 8.34541 42.9099C8.38541 42.7599 8.42541 42.6199 8.45541 42.4799C8.46541 42.4099 8.49541 42.3399 8.52541 42.2699C8.55541 42.1999 8.57541 42.1299 8.60541 42.0699C8.65541 41.9299 8.70541 41.7999 8.76541 41.6699C8.82541 41.5399 8.88541 41.4199 8.95541 41.2999C8.98541 41.2399 9.01541 41.1799 9.04541 41.1199C9.08541 41.0599 9.12541 41.0099 9.15541 40.9499C9.22541 40.8399 9.29541 40.7199 9.37541 40.6199C9.54541 40.4199 9.68541 40.2199 9.87541 40.0599C10.2154 39.7199 10.5854 39.4699 10.9254 39.2799C11.0154 39.2399 11.0954 39.1899 11.1754 39.1499C11.2554 39.1099 11.3454 39.0799 11.4154 39.0499C11.5654 38.9799 11.7254 38.9399 11.8554 38.8899C12.1254 38.8099 12.3454 38.7699 12.4954 38.7499C12.6454 38.7299 12.7254 38.7299 12.7254 38.7299C12.7254 38.7299 12.6454 38.7299 12.4954 38.7499C12.3454 38.7699 12.1254 38.8099 11.8554 38.8799C11.7254 38.9199 11.5654 38.9599 11.4154 39.0299C11.3354 39.0599 11.2554 39.0899 11.1654 39.1299C11.0854 39.1699 10.9954 39.2099 10.9054 39.2599C10.5654 39.4499 10.1854 39.6899 9.84541 40.0399C9.65541 40.1999 9.51541 40.4099 9.34541 40.5999C9.26541 40.6999 9.19541 40.8199 9.12541 40.9299C9.08541 40.9899 9.05541 41.0399 9.01541 41.0999C8.97541 41.1599 8.95541 41.2199 8.91541 41.2799C8.85541 41.3999 8.78541 41.5299 8.72541 41.6599C8.66541 41.7899 8.62541 41.9299 8.56541 42.0599C8.53541 42.1299 8.5154 42.1999 8.4854 42.2699C8.4554 42.3399 8.43541 42.4099 8.41541 42.4799C8.37541 42.6199 8.33541 42.7699 8.29541 42.9099C8.19541 43.1999 8.18541 43.5199 8.18541 43.8299C8.18541 44.1399 8.22541 44.4599 8.29541 44.7699C8.43541 45.3899 8.74541 45.9899 9.19541 46.4599C9.64541 46.9299 10.2054 47.2599 10.7554 47.5899C11.2954 47.9099 11.8554 48.2199 12.2554 48.6599C12.4554 48.8799 12.6054 49.1399 12.6754 49.4199C12.7154 49.5599 12.7254 49.6999 12.7354 49.8399C12.7754 49.9599 12.7854 50.0999 12.7954 50.2399Z" fill="#EA9553"/>
<path opacity="0.8" d="M12.8954 50.4599C12.9254 50.9799 12.9554 51.4799 12.9854 51.9399C13.0154 52.3999 13.0454 52.8199 13.0654 53.1899C13.0854 53.5599 13.1054 53.8899 13.1154 54.1499C13.1354 54.6099 13.1554 54.8999 13.1554 54.9699C13.1554 54.8999 13.1454 54.6099 13.1254 54.1499C13.1154 53.8799 13.1054 53.5599 13.0854 53.1899C13.0754 52.8199 13.0454 52.3999 13.0254 51.9399C12.9954 51.4799 12.9754 50.9899 12.9454 50.4599C12.9354 50.1999 12.9154 49.9299 12.8954 49.6499C12.8554 49.3799 12.8054 49.0899 12.6454 48.8399C12.4954 48.5899 12.3054 48.3599 12.0754 48.1699C11.8554 47.9799 11.6154 47.7999 11.3654 47.6299C10.8754 47.2799 10.3654 46.9299 9.97542 46.4699C9.88542 46.3499 9.78541 46.2399 9.70541 46.1099C9.66541 46.0499 9.61542 45.9799 9.58542 45.9199L9.47542 45.7199C9.34542 45.4499 9.25542 45.1599 9.18542 44.8699C9.11542 44.5799 9.08541 44.2799 9.06541 43.9899C9.05541 43.6999 9.05541 43.3999 9.10541 43.1199C9.13541 42.9799 9.16542 42.8399 9.19542 42.6999C9.22542 42.5599 9.24542 42.4299 9.29542 42.2899C9.33542 42.1599 9.37541 42.0299 9.41541 41.8999C9.43541 41.8399 9.45542 41.7699 9.47542 41.7099C9.50542 41.6499 9.52541 41.5899 9.55541 41.5299C9.60541 41.4099 9.65541 41.2899 9.70541 41.1699C9.76541 41.0599 9.82541 40.9499 9.88541 40.8399C9.99541 40.6199 10.1454 40.4299 10.2754 40.2399C10.3454 40.1499 10.4254 40.0699 10.4954 39.9899C10.5354 39.9499 10.5654 39.9099 10.6054 39.8699C10.6454 39.8299 10.6854 39.7999 10.7254 39.7599C10.8054 39.6899 10.8754 39.6199 10.9454 39.5499C11.0254 39.4899 11.1054 39.4299 11.1754 39.3799C11.4854 39.1699 11.7754 39.0199 12.0254 38.9299C12.1454 38.8799 12.2654 38.8499 12.3654 38.8199C12.4654 38.7999 12.5554 38.7799 12.6254 38.7699C12.7654 38.7499 12.8454 38.7399 12.8454 38.7399C12.8454 38.7399 12.7654 38.7399 12.6254 38.7599C12.5554 38.7699 12.4654 38.7899 12.3654 38.8099C12.2654 38.8399 12.1454 38.8699 12.0254 38.9199C11.7754 39.0099 11.4754 39.1599 11.1654 39.3599C10.8554 39.5599 10.5454 39.8699 10.2554 40.2199C10.1254 40.4099 9.96541 40.5999 9.85541 40.8199C9.79541 40.9299 9.73541 41.0399 9.67541 41.1499C9.62541 41.2699 9.57541 41.3899 9.52541 41.5099C9.49541 41.5699 9.47542 41.6299 9.44542 41.6899C9.41542 41.7499 9.40542 41.8199 9.37542 41.8799C9.33542 42.0099 9.29542 42.1399 9.25542 42.2699C9.20542 42.3999 9.18542 42.5399 9.15542 42.6799C9.12542 42.8199 9.09541 42.9599 9.06541 43.0999C9.01541 43.3899 9.01541 43.6799 9.02541 43.9799C9.03541 44.2799 9.07542 44.5799 9.14542 44.8699C9.21542 45.1699 9.30542 45.4599 9.43542 45.7399L9.54542 45.9499C9.58542 46.0199 9.62541 46.0799 9.66541 46.1499C9.74541 46.2799 9.84542 46.3999 9.94542 46.5199C10.3554 46.9899 10.8654 47.3399 11.3554 47.6899C11.8454 48.0299 12.3454 48.3899 12.6254 48.8799C12.7754 49.1199 12.8354 49.3999 12.8654 49.6699C12.8654 49.9299 12.8854 50.1999 12.8954 50.4599Z" fill="#EA9553"/>
<path opacity="0.8" d="M12.8954 49.2999C12.9054 49.3699 12.9154 49.4299 12.9254 49.4999C12.9454 49.6299 12.9454 49.7599 12.9554 49.8999C12.9654 50.1599 12.9854 50.4199 12.9954 50.6699C13.0154 51.1699 13.0454 51.6499 13.0654 52.0799C13.1454 53.7299 13.2054 54.8599 13.2154 54.9799C13.2154 54.8499 13.1654 53.7199 13.1054 52.0699C13.0854 51.6299 13.0654 51.1599 13.0454 50.6599C13.0354 50.4099 13.0254 50.1499 13.0154 49.8899C13.0054 49.7599 13.0054 49.6299 12.9854 49.4899C12.9754 49.4199 12.9754 49.3499 12.9554 49.2899C12.9354 49.2199 12.9154 49.1599 12.9054 49.0899C12.8154 48.8299 12.6854 48.5699 12.5054 48.3499C12.3254 48.1299 12.1154 47.9299 11.8954 47.7399C11.6754 47.5499 11.4554 47.3599 11.2454 47.1699C11.0354 46.9699 10.8354 46.7599 10.6654 46.5299C10.5054 46.2999 10.3454 46.0499 10.2454 45.7799L10.1654 45.5799C10.1454 45.5099 10.1154 45.4499 10.0954 45.3799C10.0554 45.2399 10.0254 45.0999 9.98542 44.9699C9.87542 44.4099 9.83542 43.8399 9.87542 43.2999C9.88542 43.1599 9.91542 43.0299 9.93542 42.8999C9.95542 42.7699 9.98542 42.6399 10.0054 42.5099C10.0554 42.2499 10.1254 42.0099 10.1854 41.7599C10.2254 41.6399 10.2654 41.5299 10.3054 41.4099C10.3454 41.2999 10.3754 41.1799 10.4354 41.0699C10.5354 40.8599 10.6154 40.6399 10.7354 40.4599C10.9454 40.0699 11.1954 39.7599 11.4454 39.5099C11.6954 39.2599 11.9654 39.0899 12.1854 38.9699C12.4154 38.8499 12.6054 38.7999 12.7354 38.7699C12.8654 38.7399 12.9454 38.7399 12.9454 38.7399C12.9454 38.7399 12.8754 38.7399 12.7354 38.7699C12.6054 38.7999 12.4054 38.8499 12.1754 38.9699C11.9554 39.0899 11.6754 39.2499 11.4254 39.4999C11.1754 39.7499 10.9054 40.0599 10.6954 40.4499C10.5754 40.6399 10.4954 40.8499 10.3954 41.0599C10.3454 41.1699 10.3154 41.2799 10.2654 41.3999C10.2254 41.5199 10.1854 41.6299 10.1454 41.7499C10.0854 41.9899 10.0054 42.2399 9.95542 42.4999C9.93542 42.6299 9.90542 42.7599 9.88542 42.8899C9.86542 43.0199 9.82542 43.1599 9.82542 43.2899C9.78542 43.8399 9.81542 44.4099 9.92542 44.9799C9.96542 45.1199 9.99542 45.2599 10.0354 45.3999C10.0554 45.4699 10.0754 45.5399 10.1054 45.6099L10.1854 45.8099C10.2854 46.0899 10.4354 46.3399 10.6154 46.5799C10.7954 46.8199 10.9954 47.0299 11.2054 47.2299C11.4154 47.4299 11.6454 47.6099 11.8554 47.7999C12.0754 47.9899 12.2754 48.1799 12.4554 48.3999C12.6354 48.6099 12.7654 48.8599 12.8454 49.1199C12.8554 49.1699 12.8754 49.2399 12.8954 49.2999Z" fill="#EA9553"/>
<path opacity="0.8" d="M13.0054 49.3498C13.0454 49.6098 13.0454 49.8598 13.0554 50.1098C13.0654 50.3598 13.0754 50.6098 13.0854 50.8498C13.1054 51.3298 13.1154 51.7798 13.1354 52.1998C13.2054 53.7998 13.2454 54.8898 13.2554 54.9798C13.2554 54.8898 13.2254 53.7998 13.1754 52.1998C13.1654 51.7798 13.1454 51.3298 13.1354 50.8498C13.1254 50.6098 13.1154 50.3598 13.1154 50.1098C13.1054 49.8598 13.1054 49.5998 13.0754 49.3398C13.0354 49.0798 12.9654 48.8198 12.8354 48.5698C12.7154 48.3298 12.5454 48.0998 12.3754 47.8898C12.0154 47.4698 11.6154 47.0798 11.3354 46.5998C11.2554 46.4798 11.2054 46.3598 11.1354 46.2398C11.0854 46.1098 11.0254 45.9798 10.9854 45.8498C10.9454 45.7198 10.9054 45.5898 10.8654 45.4498C10.8354 45.3198 10.8054 45.1799 10.7854 45.0499C10.6954 44.5099 10.6654 43.9698 10.6754 43.4498C10.6754 43.1898 10.7254 42.9398 10.7554 42.6898C10.7754 42.5698 10.7854 42.4398 10.8154 42.3198C10.8354 42.1998 10.8654 42.0798 10.8854 41.9598C10.9754 41.4898 11.1054 41.0599 11.2554 40.6599C11.4154 40.2799 11.5854 39.9298 11.7854 39.6498C11.8354 39.5798 11.8754 39.5098 11.9354 39.4498C11.9854 39.3898 12.0354 39.3298 12.0854 39.2798C12.1354 39.2298 12.1854 39.1798 12.2354 39.1298C12.2854 39.0798 12.3354 39.0498 12.3854 39.0098C12.5854 38.8598 12.7554 38.7798 12.8854 38.7498C13.0054 38.7098 13.0854 38.7098 13.0854 38.7098C13.0854 38.7098 13.0154 38.7098 12.8854 38.7498C12.7554 38.7898 12.5854 38.8698 12.3854 39.0098C12.3354 39.0498 12.2754 39.0798 12.2354 39.1298C12.1854 39.1698 12.1354 39.2199 12.0754 39.2699C12.0254 39.3199 11.9754 39.3798 11.9254 39.4398C11.8754 39.4998 11.8254 39.5698 11.7754 39.6398C11.5654 39.9098 11.3954 40.2598 11.2354 40.6498C11.0854 41.0398 10.9554 41.4798 10.8554 41.9498C10.8354 42.0698 10.8054 42.1898 10.7854 42.3098C10.7654 42.4298 10.7454 42.5598 10.7254 42.6798C10.6954 42.9298 10.6454 43.1798 10.6454 43.4498C10.6254 43.9798 10.6554 44.5198 10.7554 45.0698C10.7854 45.1998 10.8054 45.3398 10.8354 45.4798C10.8754 45.6098 10.9154 45.7498 10.9554 45.8798C10.9954 46.0198 11.0554 46.1399 11.1054 46.2699C11.1754 46.3999 11.2254 46.5298 11.3054 46.6398C11.5954 47.1298 12.0054 47.5198 12.3554 47.9298C12.5354 48.1398 12.6954 48.3598 12.8154 48.5998C12.8954 48.8398 12.9654 49.0998 13.0054 49.3498Z" fill="#EA9553"/>
<path opacity="0.8" d="M13.1254 49.5698C13.1454 50.0698 13.1554 50.5599 13.1654 51.0199C13.1754 51.4799 13.1954 51.9198 13.2054 52.3198C13.2554 53.8898 13.2854 54.9398 13.2854 54.9998C13.2854 54.9398 13.2654 53.8898 13.2354 52.3198C13.2254 51.9198 13.2154 51.4799 13.2054 51.0199C13.1954 50.5599 13.1854 50.0698 13.1654 49.5698C13.1554 49.3198 13.1254 49.0598 13.0554 48.8098C12.9854 48.5598 12.8854 48.3098 12.7554 48.0798C12.6254 47.8498 12.4754 47.6198 12.3354 47.3998C12.1954 47.1698 12.0554 46.9398 11.9554 46.6998C11.8354 46.4598 11.7554 46.2098 11.6854 45.9498C11.6254 45.6898 11.5654 45.4298 11.5354 45.1698C11.4654 44.6498 11.4354 44.1298 11.4354 43.6298C11.4354 43.3798 11.4454 43.1298 11.4754 42.8898C11.5054 42.6498 11.5154 42.4098 11.5554 42.1798C11.5854 41.9498 11.6154 41.7299 11.6554 41.5199C11.6954 41.3099 11.7354 41.0999 11.7854 40.9099C11.8054 40.8099 11.8354 40.7198 11.8554 40.6198C11.8854 40.5298 11.9154 40.4398 11.9354 40.3498C11.9854 40.1798 12.0554 40.0198 12.1154 39.8598C12.2454 39.5598 12.3854 39.3098 12.5354 39.1298C12.6854 38.9498 12.8354 38.8398 12.9454 38.7798C13.0554 38.7198 13.1254 38.7198 13.1254 38.7198C13.1254 38.7198 13.0554 38.7198 12.9454 38.7798C12.8354 38.8298 12.6754 38.9498 12.5254 39.1198C12.3754 39.2998 12.2254 39.5498 12.0854 39.8398C12.0254 39.9898 11.9454 40.1498 11.8954 40.3298C11.8654 40.4198 11.8354 40.5098 11.8054 40.5998C11.7754 40.6898 11.7554 40.7898 11.7354 40.8898C11.6854 41.0798 11.6454 41.2898 11.6054 41.4998C11.5554 41.7098 11.5354 41.9398 11.4954 42.1698C11.4554 42.3998 11.4454 42.6298 11.4154 42.8698C11.3854 43.1098 11.3754 43.3598 11.3754 43.6098C11.3654 44.1098 11.3954 44.6399 11.4654 45.1599C11.4954 45.4199 11.5554 45.6798 11.6154 45.9498C11.6854 46.2098 11.7654 46.4698 11.8854 46.7098C11.9954 46.9598 12.1354 47.1898 12.2754 47.4198C12.4154 47.6498 12.5654 47.8598 12.6954 48.0898C12.8254 48.3198 12.9254 48.5598 12.9954 48.8098C13.0754 49.0698 13.1154 49.3198 13.1254 49.5698Z" fill="#EA9553"/>
<path opacity="0.8" d="M13.1154 48.6299C13.1354 48.7499 13.1554 48.8799 13.1754 48.9999C13.1954 49.1199 13.1954 49.2499 13.2054 49.3699C13.2154 49.4899 13.2254 49.6099 13.2254 49.7399C13.2454 50.7099 13.2554 51.6199 13.2754 52.3999C13.3154 53.9399 13.3354 54.9699 13.3354 54.9999C13.3354 54.9699 13.3254 53.9399 13.3154 52.3999C13.3054 51.6199 13.2954 50.7099 13.2854 49.7399C13.2854 49.6199 13.2754 49.4899 13.2654 49.3699C13.2554 49.2499 13.2554 49.1199 13.2354 48.9999C13.2154 48.8799 13.1954 48.7499 13.1754 48.6199C13.1554 48.4899 13.1154 48.3699 13.0854 48.2499C12.9354 47.7599 12.7154 47.2799 12.5854 46.7899C12.5054 46.5399 12.4654 46.2899 12.4154 46.0299C12.3754 45.7799 12.3554 45.5199 12.3254 45.2699C12.2954 45.0199 12.2854 44.7599 12.2754 44.5099C12.2654 44.2599 12.2554 44.0099 12.2554 43.7699C12.2454 43.2799 12.2854 42.8099 12.3054 42.3699C12.3254 42.1499 12.3454 41.9299 12.3554 41.7199C12.3754 41.5099 12.4054 41.3099 12.4254 41.1199C12.4854 40.7399 12.5354 40.3799 12.6054 40.0699C12.6654 39.7599 12.7554 39.4999 12.8354 39.2899C12.9154 39.0799 13.0154 38.9299 13.1054 38.8399C13.1454 38.7999 13.1854 38.7699 13.2154 38.7499C13.2454 38.7399 13.2554 38.7299 13.2554 38.7299C13.2554 38.7299 13.2354 38.7299 13.2154 38.7499C13.1854 38.7599 13.1454 38.7899 13.1054 38.8299C13.0254 38.9199 12.9154 39.0699 12.8354 39.2799C12.7454 39.4899 12.6554 39.7499 12.5854 40.0599C12.5054 40.3699 12.4454 40.7199 12.3854 41.1099C12.3654 41.2999 12.3354 41.4999 12.3154 41.7099C12.2954 41.9199 12.2754 42.1399 12.2554 42.3599C12.2254 42.8099 12.1854 43.2799 12.1954 43.7699C12.1954 44.0099 12.1954 44.2599 12.2154 44.5099C12.2254 44.7599 12.2254 45.0099 12.2654 45.2699C12.2954 45.5299 12.3054 45.7799 12.3554 46.0399C12.4054 46.2899 12.4454 46.5499 12.5254 46.7999C12.6654 47.3099 12.8954 47.7799 13.0354 48.2599C13.0554 48.3799 13.0954 48.4999 13.1154 48.6299Z" fill="#EA9553"/>
<path opacity="0.8" d="M13.3454 38.7298C13.3454 38.7298 13.3054 38.7798 13.2754 38.8998C13.2454 39.0098 13.2154 39.1899 13.1954 39.4099C13.1454 39.8499 13.1054 40.4898 13.0754 41.2498C13.0654 41.6298 13.0454 42.0498 13.0454 42.4898C13.0454 42.7098 13.0354 42.9299 13.0354 43.1599C13.0354 43.3899 13.0354 43.6198 13.0354 43.8598C13.0354 44.3398 13.0554 44.8298 13.0754 45.3298C13.0854 45.5798 13.0854 45.8298 13.1054 46.0798C13.1254 46.3298 13.1454 46.5898 13.1654 46.8398C13.1854 47.0898 13.2254 47.3498 13.2454 47.5998C13.2754 47.8498 13.2954 48.0998 13.3254 48.3498L13.3454 48.5398L13.3554 48.7298C13.3654 48.8498 13.3654 48.9798 13.3654 49.0998C13.3754 49.3498 13.3854 49.5898 13.3854 49.8298C13.3854 50.7898 13.3854 51.6798 13.3854 52.4398C13.3854 53.9698 13.3754 54.9898 13.3754 54.9898C13.3754 54.9898 13.3654 53.9698 13.3454 52.4398C13.3354 51.6798 13.3354 50.7798 13.3254 49.8298C13.3254 49.5898 13.3154 49.3498 13.3054 49.0998C13.3054 48.9798 13.2954 48.8498 13.2954 48.7298L13.2854 48.5398L13.2654 48.3498C13.2354 48.0998 13.2154 47.8498 13.1854 47.5998C13.1554 47.3498 13.1154 47.0998 13.0954 46.8398C13.0754 46.5898 13.0554 46.3298 13.0354 46.0798C13.0154 45.8298 13.0254 45.5698 13.0154 45.3198C13.0054 44.8198 12.9854 44.3198 12.9854 43.8398C12.9854 43.5998 12.9854 43.3698 12.9854 43.1398C12.9954 42.9098 12.9954 42.6798 12.9954 42.4698C13.0054 42.0298 13.0254 41.6198 13.0354 41.2298C13.0554 40.8498 13.0754 40.4998 13.0954 40.1898C13.1254 39.8798 13.1454 39.6098 13.1754 39.3898C13.2054 39.1698 13.2354 38.9998 13.2654 38.8798C13.3054 38.7798 13.3454 38.7198 13.3454 38.7298Z" fill="#EA9553"/>
<path opacity="0.8" d="M13.4454 38.7298C13.4454 38.7298 13.4854 38.7798 13.5154 38.8998C13.5454 39.0198 13.5754 39.1898 13.6054 39.4098C13.6354 39.6298 13.6654 39.8998 13.6854 40.2098C13.7054 40.5198 13.7354 40.8698 13.7454 41.2498C13.7654 41.6298 13.7754 42.0498 13.7854 42.4898C13.7954 42.7098 13.7954 42.9298 13.8054 43.1598C13.8054 43.3898 13.8054 43.6198 13.8054 43.8598C13.8054 44.3398 13.7854 44.8298 13.7754 45.3398C13.7654 45.5898 13.7754 45.8398 13.7454 46.0998C13.7254 46.3498 13.7054 46.6098 13.6854 46.8598C13.6654 47.1098 13.6254 47.3698 13.5954 47.6198C13.5654 47.8698 13.5354 48.1198 13.5154 48.3698L13.4954 48.5598L13.4854 48.7498C13.4854 48.8698 13.4754 48.9998 13.4654 49.1198C13.4554 49.3698 13.4454 49.6098 13.4454 49.8498C13.4354 50.7998 13.4354 51.6998 13.4254 52.4598C13.4054 53.9898 13.3954 55.0098 13.3954 55.0098C13.3954 55.0098 13.3954 53.9898 13.3854 52.4598C13.3854 51.6898 13.3854 50.7998 13.3854 49.8498C13.3854 49.6098 13.3954 49.3698 13.4054 49.1198C13.4054 48.9998 13.4154 48.8698 13.4154 48.7498L13.4254 48.5598L13.4454 48.3698C13.4754 48.1198 13.4954 47.8698 13.5254 47.6198C13.5554 47.3698 13.5954 47.1198 13.6154 46.8598C13.6354 46.6098 13.6554 46.3498 13.6754 46.0998C13.6954 45.8498 13.6954 45.5998 13.7054 45.3498C13.7154 44.8498 13.7454 44.3498 13.7454 43.8798C13.7454 43.6398 13.7454 43.4098 13.7454 43.1798C13.7454 42.9498 13.7354 42.7298 13.7354 42.5098C13.7254 42.0698 13.7154 41.6598 13.6954 41.2698C13.6654 40.5098 13.6254 39.8698 13.5754 39.4298C13.5454 39.2098 13.5254 39.0298 13.4954 38.9198C13.4954 38.7798 13.4554 38.7198 13.4454 38.7298Z" fill="#EA9553"/>
<path opacity="0.8" d="M13.5454 38.7299C13.5454 38.7299 13.5654 38.7299 13.5854 38.7499C13.6154 38.7599 13.6554 38.7899 13.6954 38.8299C13.7754 38.9199 13.8854 39.0699 13.9654 39.2799C14.0554 39.4899 14.1454 39.7499 14.2154 40.0599C14.2954 40.3699 14.3554 40.7199 14.4154 41.1099C14.4354 41.2999 14.4654 41.4999 14.4854 41.7099C14.5054 41.9199 14.5254 42.1399 14.5454 42.3599C14.5754 42.8099 14.6154 43.2799 14.6054 43.7699C14.6054 44.0099 14.5954 44.2599 14.5854 44.5099C14.5754 44.7599 14.5654 45.0099 14.5354 45.2699C14.5054 45.5299 14.4854 45.7799 14.4454 46.0399C14.3954 46.2899 14.3554 46.5499 14.2754 46.7999C14.1354 47.3099 13.9054 47.7799 13.7654 48.2599C13.7354 48.3799 13.6954 48.4999 13.6754 48.6299C13.6554 48.7499 13.6354 48.8799 13.6154 48.9999C13.5954 49.1199 13.5954 49.2499 13.5854 49.3699C13.5754 49.4899 13.5654 49.6099 13.5654 49.7399C13.5454 50.7099 13.5354 51.6199 13.5154 52.3999C13.4754 53.9599 13.4554 54.9999 13.4554 54.9999C13.4554 54.9999 13.4654 53.9599 13.4754 52.3999C13.4854 51.6199 13.4954 50.7099 13.5054 49.7399C13.5054 49.6199 13.5154 49.4899 13.5254 49.3699C13.5354 49.2499 13.5354 49.1199 13.5554 48.9999C13.5754 48.8799 13.5954 48.7499 13.6154 48.6199C13.6354 48.4899 13.6754 48.3699 13.7054 48.2499C13.8554 47.7599 14.0754 47.2799 14.2054 46.7899C14.2854 46.5399 14.3254 46.2899 14.3754 46.0299C14.4154 45.7799 14.4354 45.5199 14.4654 45.2699C14.5054 45.0199 14.5054 44.7599 14.5154 44.5099C14.5254 44.2599 14.5354 44.0099 14.5354 43.7699C14.5454 43.2799 14.5054 42.8099 14.4854 42.3699C14.4654 42.1499 14.4454 41.9299 14.4354 41.7199C14.4154 41.5099 14.3854 41.3099 14.3654 41.1199C14.3054 40.7399 14.2554 40.3799 14.1854 40.0699C14.1154 39.7599 14.0354 39.4999 13.9554 39.2899C13.8654 39.0799 13.7754 38.9299 13.6854 38.8399C13.6454 38.7999 13.6054 38.7699 13.5754 38.7499C13.5654 38.7299 13.5454 38.7299 13.5454 38.7299Z" fill="#EA9553"/>
<path opacity="0.8" d="M13.6554 38.7299C13.6554 38.7299 13.7254 38.7299 13.8354 38.7899C13.9454 38.8399 14.1054 38.9599 14.2554 39.1299C14.4054 39.3099 14.5554 39.5599 14.6954 39.8499C14.7554 39.9999 14.8354 40.1599 14.8854 40.3399C14.9154 40.4299 14.9454 40.5199 14.9754 40.6099C14.9954 40.6999 15.0254 40.7999 15.0454 40.8999C15.0954 41.0899 15.1354 41.2999 15.1754 41.5099C15.2254 41.7199 15.2454 41.9499 15.2854 42.1799C15.3254 42.4099 15.3454 42.6399 15.3654 42.8799C15.3954 43.1199 15.4054 43.3699 15.4054 43.6199C15.4154 44.1199 15.3854 44.6499 15.3154 45.1699C15.2854 45.4299 15.2254 45.6899 15.1654 45.9599C15.0954 46.2199 15.0154 46.4799 14.8954 46.7199C14.7854 46.9699 14.6454 47.1999 14.5054 47.4299C14.3554 47.6599 14.2054 47.8699 14.0854 48.0999C13.9554 48.3299 13.8554 48.5699 13.7854 48.8199C13.7154 49.0699 13.6854 49.3199 13.6654 49.5699C13.6454 50.0699 13.6354 50.5599 13.6254 51.0199C13.6154 51.4799 13.5954 51.9199 13.5854 52.3199C13.5354 53.9299 13.4954 54.9999 13.4954 54.9999C13.4954 54.9999 13.5154 53.9299 13.5454 52.3199C13.5554 51.9199 13.5654 51.4799 13.5754 51.0199C13.5854 50.5599 13.5954 50.0699 13.6154 49.5699C13.6254 49.3199 13.6654 49.0599 13.7254 48.8099C13.7954 48.5599 13.8954 48.3099 14.0254 48.0799C14.1554 47.8499 14.3054 47.6199 14.4454 47.3999C14.5854 47.1699 14.7154 46.9399 14.8254 46.6999C14.9454 46.4599 15.0254 46.2099 15.0954 45.9499C15.1554 45.6899 15.2154 45.4299 15.2454 45.1699C15.3154 44.6499 15.3454 44.1299 15.3454 43.6299C15.3454 43.3799 15.3354 43.1299 15.3054 42.8899C15.2754 42.6499 15.2654 42.4099 15.2254 42.1799C15.1854 41.9499 15.1654 41.7299 15.1254 41.5199C15.0854 41.3099 15.0454 41.0999 14.9954 40.9099C14.9754 40.8099 14.9454 40.7199 14.9254 40.6199C14.8954 40.5299 14.8654 40.4399 14.8354 40.3499C14.7854 40.1799 14.7154 40.0199 14.6554 39.8599C14.5254 39.5599 14.3854 39.3099 14.2354 39.1299C14.0854 38.9499 13.9354 38.8399 13.8254 38.7799C13.7154 38.7299 13.6554 38.7299 13.6554 38.7299Z" fill="#EA9553"/>
<path opacity="0.8" d="M13.7554 38.7299C13.7554 38.7299 13.8254 38.7299 13.9554 38.7699C14.0854 38.8099 14.2554 38.8899 14.4554 39.0299C14.5054 39.0699 14.5554 39.0999 14.6054 39.1499C14.6554 39.1899 14.7054 39.2399 14.7654 39.2899C14.8154 39.3399 14.8654 39.3999 14.9154 39.4599C14.9754 39.5199 15.0154 39.5899 15.0654 39.6599C15.2754 39.9299 15.4454 40.2799 15.6054 40.6699C15.7554 41.0599 15.8854 41.4999 15.9854 41.9699C16.0154 42.0899 16.0354 42.2099 16.0554 42.3299C16.0854 42.4499 16.0954 42.5799 16.1154 42.6999C16.1454 42.9499 16.1954 43.1999 16.1954 43.4699C16.2154 43.9999 16.1854 44.5399 16.0954 45.0899C16.0654 45.2199 16.0454 45.3599 16.0154 45.4999C15.9754 45.6299 15.9354 45.7699 15.8954 45.8999C15.8554 46.0399 15.7954 46.1599 15.7454 46.2899C15.6854 46.4099 15.6254 46.5399 15.5454 46.6599C15.2554 47.1499 14.8454 47.5399 14.4854 47.9499C14.3054 48.1599 14.1454 48.3799 14.0254 48.6199C13.8954 48.8599 13.8354 49.1099 13.7854 49.3699C13.7454 49.6299 13.7454 49.8799 13.7354 50.1299C13.7254 50.3799 13.7154 50.6299 13.7054 50.8699C13.6854 51.3499 13.6654 51.7999 13.6554 52.2199C13.5854 53.8899 13.5354 55.0099 13.5354 55.0099C13.5354 55.0099 13.5654 53.8899 13.6154 52.2199C13.6254 51.7999 13.6454 51.3499 13.6554 50.8699C13.6654 50.6299 13.6754 50.3799 13.6754 50.1299C13.6854 49.8799 13.6854 49.6199 13.7154 49.3599C13.7554 49.0999 13.8254 48.8399 13.9554 48.5899C14.0754 48.3499 14.2354 48.1199 14.4154 47.9099C14.7754 47.4899 15.1754 47.0999 15.4554 46.6199C15.5354 46.4999 15.5854 46.3799 15.6554 46.2599C15.7054 46.1299 15.7754 45.9999 15.8054 45.8699C15.8454 45.7399 15.8854 45.6099 15.9254 45.4699C15.9554 45.3399 15.9854 45.1999 16.0054 45.0699C16.0954 44.5299 16.1254 43.9899 16.1154 43.4699C16.1154 43.2099 16.0654 42.9599 16.0354 42.7099C16.0154 42.5899 16.0054 42.4599 15.9854 42.3399C15.9654 42.2199 15.9354 42.0999 15.9154 41.9799C15.8254 41.5099 15.6854 41.0799 15.5454 40.6799C15.3854 40.2999 15.2254 39.9499 15.0254 39.6699C14.9754 39.5999 14.9354 39.5299 14.8754 39.4699C14.8254 39.4099 14.7754 39.3499 14.7254 39.2999C14.6754 39.2499 14.6254 39.1999 14.5754 39.1499C14.5254 39.0999 14.4754 39.0699 14.4254 39.0299C14.2254 38.8799 14.0554 38.7999 13.9254 38.7699C13.8254 38.7299 13.7554 38.7299 13.7554 38.7299Z" fill="#EA9553"/>
<path opacity="0.8" d="M16.9754 43.2799C16.9654 43.1399 16.9354 43.0099 16.9154 42.8799C16.8954 42.7499 16.8654 42.6199 16.8454 42.4899C16.7954 42.2299 16.7154 41.9799 16.6554 41.7399C16.6154 41.6199 16.5754 41.4999 16.5354 41.3899C16.4954 41.2799 16.4654 41.1599 16.4054 41.0499C16.3054 40.8399 16.2154 40.6199 16.1054 40.4399C15.8954 40.0499 15.6354 39.7399 15.3754 39.4899C15.1254 39.2399 14.8454 39.0799 14.6254 38.9599C14.3954 38.8399 14.1954 38.7899 14.0654 38.7599C13.9254 38.7299 13.8554 38.7299 13.8554 38.7299C13.8554 38.7299 13.9254 38.7299 14.0654 38.7599C14.1954 38.7899 14.3954 38.8499 14.6154 38.9599C14.8354 39.0799 15.1054 39.2399 15.3554 39.4999C15.6054 39.7499 15.8654 40.0599 16.0654 40.4499C16.1854 40.6299 16.2654 40.8499 16.3654 41.0599C16.4154 41.1699 16.4454 41.2799 16.4854 41.3999C16.5254 41.5199 16.5654 41.6299 16.6054 41.7499C16.6654 41.9899 16.7354 42.2399 16.7854 42.4999C16.8054 42.6299 16.8354 42.7599 16.8554 42.8899C16.8754 43.0199 16.9154 43.1499 16.9154 43.2899C16.9554 43.8299 16.9254 44.3999 16.8054 44.9599C16.7654 45.0999 16.7354 45.2399 16.6954 45.3699C16.6754 45.4399 16.6554 45.5099 16.6254 45.5699L16.5454 45.7699C16.4454 46.0399 16.2854 46.2899 16.1254 46.5199C15.9554 46.7499 15.7554 46.9599 15.5454 47.1599C15.3354 47.3599 15.1154 47.5399 14.8954 47.7299C14.6854 47.9199 14.4754 48.1199 14.2954 48.3399C14.1154 48.5599 13.9854 48.8099 13.8954 49.0799C13.8754 49.1499 13.8554 49.2099 13.8454 49.2799C13.8354 49.3499 13.8254 49.4099 13.8154 49.4799C13.7954 49.6099 13.7954 49.7499 13.7854 49.8799C13.7754 50.1399 13.7654 50.3999 13.7554 50.6499C13.7354 51.1499 13.7154 51.6299 13.6954 52.0599C13.6254 53.7999 13.5854 54.9599 13.5854 54.9799C13.5854 54.9599 13.6454 53.7999 13.7354 52.0699C13.7554 51.6299 13.7754 51.1599 13.8054 50.6599C13.8154 50.4099 13.8254 50.1499 13.8454 49.8899C13.8554 49.7599 13.8554 49.6299 13.8754 49.4899C13.8854 49.4199 13.8954 49.3599 13.9054 49.2899C13.9254 49.2299 13.9454 49.1599 13.9554 49.0999C14.0454 48.8399 14.1654 48.5999 14.3554 48.3799C14.5354 48.1699 14.7354 47.9699 14.9554 47.7799C15.1754 47.5899 15.3954 47.4099 15.6154 47.2099C15.8254 47.0099 16.0354 46.7999 16.2054 46.5599C16.3754 46.3199 16.5254 46.0699 16.6354 45.7899L16.7154 45.5899C16.7454 45.5199 16.7654 45.4499 16.7854 45.3799C16.8254 45.2399 16.8554 45.0999 16.8954 44.9599C16.9854 44.3999 17.0154 43.8299 16.9754 43.2799Z" fill="#EA9553"/>
<path opacity="0.8" d="M17.7454 43.0899C17.7154 42.9499 17.6854 42.8099 17.6554 42.6699C17.6254 42.5299 17.6054 42.3899 17.5554 42.2599C17.5154 42.1299 17.4754 41.9999 17.4254 41.8699C17.4054 41.8099 17.3854 41.7399 17.3654 41.6799C17.3354 41.6199 17.3154 41.5599 17.2854 41.4999C17.2354 41.3799 17.1854 41.2599 17.1354 41.1399C17.0754 41.0299 17.0154 40.9199 16.9554 40.8099C16.8454 40.5899 16.6854 40.3999 16.5554 40.2099C16.2654 39.8599 15.9554 39.5499 15.6454 39.3499C15.3354 39.1399 15.0454 38.9899 14.7854 38.9099C14.6654 38.8599 14.5454 38.8399 14.4454 38.7999C14.3454 38.7799 14.2554 38.7599 14.1854 38.7499C14.0454 38.7299 13.9654 38.7299 13.9654 38.7299C13.9654 38.7299 14.0454 38.7299 14.1854 38.7599C14.2554 38.7699 14.3454 38.7899 14.4454 38.8099C14.5454 38.8399 14.6654 38.8699 14.7854 38.9199C15.0354 39.0099 15.3254 39.1599 15.6354 39.3699C15.7054 39.4299 15.7854 39.4799 15.8654 39.5399C15.9454 39.6099 16.0154 39.6799 16.0954 39.7499C16.1354 39.7899 16.1754 39.8199 16.2154 39.8599C16.2554 39.8999 16.2854 39.9399 16.3254 39.9799C16.3954 40.0599 16.4754 40.1399 16.5454 40.2299C16.6754 40.4199 16.8254 40.6099 16.9354 40.8299C16.9954 40.9399 17.0554 41.0499 17.1154 41.1599C17.1654 41.2799 17.2154 41.3999 17.2654 41.5199C17.2954 41.5799 17.3154 41.6399 17.3454 41.6999C17.3754 41.7599 17.3854 41.8299 17.4054 41.8899C17.4454 42.0199 17.4854 42.1499 17.5254 42.2799C17.5754 42.4099 17.5954 42.5499 17.6254 42.6899C17.6554 42.8299 17.6854 42.9699 17.7154 43.1099C17.7654 43.3899 17.7654 43.6799 17.7554 43.9799C17.7454 44.2699 17.7054 44.5699 17.6354 44.8599C17.5654 45.1499 17.4754 45.4399 17.3454 45.7099L17.2454 45.9099C17.2154 45.9699 17.1654 46.0399 17.1254 46.0999C17.0454 46.2299 16.9454 46.3399 16.8554 46.4599C16.4554 46.9199 15.9554 47.2799 15.4654 47.6199C15.2154 47.7899 14.9754 47.9699 14.7554 48.1599C14.5254 48.3499 14.3354 48.5799 14.1854 48.8299C14.0254 49.0799 13.9754 49.3699 13.9354 49.6399C13.9154 49.9199 13.9054 50.1899 13.8954 50.4499C13.8654 50.9799 13.8354 51.4699 13.8054 51.9299C13.7754 52.3899 13.7554 52.8099 13.7454 53.1799C13.7354 53.5499 13.7154 53.8799 13.7054 54.1399C13.6854 54.6499 13.6754 54.9399 13.6754 54.9799C13.6754 54.9499 13.6954 54.6499 13.7254 54.1499C13.7354 53.8799 13.7554 53.5599 13.7754 53.1899C13.7954 52.8199 13.8254 52.3999 13.8554 51.9399C13.8854 51.4799 13.9154 50.9799 13.9454 50.4599C13.9654 50.1999 13.9754 49.9299 13.9954 49.6499C14.0354 49.3799 14.0854 49.0999 14.2354 48.8599C14.5254 48.3599 15.0154 48.0099 15.5054 47.6699C15.9954 47.3299 16.5054 46.9699 16.9154 46.4999C17.0054 46.3799 17.1154 46.2599 17.1854 46.1299C17.2254 46.0599 17.2654 45.9999 17.3054 45.9299L17.4154 45.7199C17.5454 45.4399 17.6454 45.1499 17.7054 44.8499C17.7754 44.5499 17.8054 44.2499 17.8154 43.9599C17.7954 43.6699 17.7954 43.3799 17.7454 43.0899Z" fill="#EA9553"/>
<path opacity="0.8" d="M18.4754 42.8998C18.4354 42.7498 18.3954 42.6098 18.3654 42.4698C18.3454 42.3998 18.3254 42.3298 18.2954 42.2598C18.2654 42.1898 18.2454 42.1199 18.2154 42.0499C18.1654 41.9099 18.1154 41.7798 18.0554 41.6498C17.9954 41.5198 17.9254 41.3999 17.8654 41.2699C17.8354 41.2099 17.8054 41.1498 17.7654 41.0898C17.7254 41.0298 17.6854 40.9798 17.6554 40.9198C17.5754 40.8098 17.5154 40.6898 17.4354 40.5898C17.2654 40.3898 17.1154 40.1898 16.9354 40.0298C16.5954 39.6798 16.2154 39.4398 15.8754 39.2498C15.7854 39.2098 15.7054 39.1598 15.6154 39.1198C15.5354 39.0798 15.4454 39.0499 15.3754 39.0199C15.2154 38.9499 15.0654 38.9098 14.9354 38.8698C14.6654 38.7998 14.4454 38.7598 14.2954 38.7398C14.1454 38.7198 14.0654 38.7198 14.0654 38.7198C14.0654 38.7198 14.1454 38.7198 14.2954 38.7398C14.4454 38.7598 14.6654 38.7998 14.9354 38.8798C15.0654 38.9298 15.2154 38.9598 15.3754 39.0398C15.4554 39.0798 15.5354 39.0998 15.6154 39.1398C15.6954 39.1798 15.7854 39.2299 15.8654 39.2699C16.2054 39.4599 16.5754 39.7099 16.9154 40.0499C17.0954 40.2099 17.2454 40.4098 17.4154 40.6098C17.4954 40.7098 17.5554 40.8298 17.6354 40.9398C17.6754 40.9898 17.7054 41.0498 17.7454 41.1098C17.7854 41.1698 17.8054 41.2298 17.8354 41.2898C17.8954 41.4098 17.9554 41.5399 18.0254 41.6599C18.0854 41.7899 18.1254 41.9198 18.1854 42.0598C18.2154 42.1298 18.2354 42.1898 18.2654 42.2598C18.2954 42.3298 18.3154 42.3998 18.3354 42.4698C18.3754 42.6098 18.4054 42.7598 18.4454 42.8998C18.5454 43.1898 18.5454 43.4899 18.5454 43.7999C18.5354 44.1099 18.5054 44.4198 18.4254 44.7298C18.2854 45.3398 17.9754 45.9298 17.5254 46.3798C17.0854 46.8398 16.5254 47.1798 15.9854 47.4998C15.4454 47.8298 14.8854 48.1298 14.4754 48.5898C14.2654 48.8098 14.1154 49.0798 14.0454 49.3698C14.0054 49.5098 14.0054 49.6599 13.9954 49.7999C13.9854 49.9399 13.9754 50.0798 13.9654 50.2198C13.9254 50.7698 13.8954 51.2898 13.8654 51.7798C13.8354 52.2598 13.7954 52.6998 13.7854 53.0898C13.7654 53.4798 13.7454 53.8198 13.7354 54.1098C13.7154 54.5998 13.6954 54.9098 13.6954 54.9798C13.6954 54.9098 13.7154 54.5998 13.7454 54.1098C13.7654 53.8298 13.7854 53.4898 13.8054 53.0998C13.8254 52.7098 13.8654 52.2698 13.8954 51.7898C13.9354 51.3098 13.9654 50.7898 14.0054 50.2398C14.0154 50.0998 14.0254 49.9598 14.0354 49.8198C14.0454 49.6798 14.0554 49.5398 14.0954 49.3998C14.1654 49.1198 14.3154 48.8598 14.5154 48.6398C14.9254 48.1998 15.4754 47.8998 16.0154 47.5698C16.5554 47.2498 17.1154 46.9099 17.5754 46.4398C18.0354 45.9699 18.3354 45.3698 18.4754 44.7498C18.5454 44.4398 18.5854 44.1198 18.5854 43.8098C18.5854 43.5098 18.5754 43.1898 18.4754 42.8998Z" fill="#EA9553"/>
<path opacity="0.8" d="M19.3354 43.1698C19.2954 43.0098 19.2554 42.8598 19.2054 42.7098C19.0154 42.0998 18.7454 41.5398 18.4154 41.0598C18.2454 40.8198 18.0654 40.5998 17.8754 40.3998C17.6854 40.1998 17.4854 40.0198 17.2854 39.8698C16.8854 39.5598 16.4654 39.3398 16.0854 39.1798C15.7054 39.0198 15.3554 38.9198 15.0654 38.8498C14.7754 38.7898 14.5454 38.7498 14.3854 38.7398C14.2254 38.7198 14.1454 38.7198 14.1454 38.7198C14.1454 38.7198 14.2254 38.7198 14.3854 38.7398C14.5454 38.7598 14.7754 38.7898 15.0554 38.8598C15.3454 38.9298 15.6854 39.0398 16.0654 39.1998C16.4454 39.3698 16.8454 39.5898 17.2454 39.8998C17.4454 40.0498 17.6354 40.2298 17.8254 40.4298C18.0054 40.6298 18.1954 40.8498 18.3554 41.0798C18.6854 41.5598 18.9454 42.1198 19.1254 42.7198C19.1754 42.8698 19.2054 43.0298 19.2554 43.1798C19.2754 43.3398 19.2954 43.4999 19.2954 43.6599C19.3054 43.9799 19.2654 44.3098 19.1854 44.6298C19.0354 45.2698 18.6854 45.8798 18.1954 46.3298C17.7054 46.7898 17.1054 47.1198 16.5254 47.4298C15.9354 47.7398 15.3354 48.0199 14.8354 48.4099C14.5854 48.6099 14.3654 48.8398 14.2254 49.1198C14.1554 49.2598 14.1054 49.4098 14.0854 49.5598C14.0654 49.7098 14.0554 49.8598 14.0454 49.9998C13.9954 50.5798 13.9554 51.1298 13.9154 51.6298C13.8754 52.1398 13.8354 52.5998 13.8154 53.0098C13.7954 53.4198 13.7754 53.7798 13.7554 54.0798C13.7254 54.5798 13.7054 54.8998 13.7054 54.9798C13.7054 54.8998 13.7354 54.5798 13.7654 54.0798C13.7854 53.7898 13.8154 53.4299 13.8354 53.0199C13.8754 52.6099 13.9054 52.1498 13.9554 51.6398C13.9954 51.1398 14.0454 50.5898 14.0954 50.0098C14.1054 49.8698 14.1154 49.7198 14.1354 49.5698C14.1554 49.4298 14.2054 49.2798 14.2754 49.1498C14.4054 48.8798 14.6254 48.6498 14.8754 48.4598C15.3754 48.0798 15.9754 47.7998 16.5654 47.4898C17.1554 47.1798 17.7554 46.8498 18.2554 46.3898C18.7554 45.9298 19.1054 45.3098 19.2554 44.6498C19.3354 44.3198 19.3654 43.9899 19.3654 43.6599C19.3754 43.4899 19.3554 43.3298 19.3354 43.1698Z" fill="#EA9553"/>
<path opacity="0.8" d="M20.1654 43.4999C20.1554 43.3299 20.1254 43.1499 20.0754 42.9899C20.0454 42.9099 20.0254 42.8299 19.9954 42.7499C19.9654 42.6699 19.9354 42.5899 19.9054 42.5199C19.6754 41.8999 19.3254 41.3399 18.9254 40.8699C18.5254 40.4099 18.0754 40.0299 17.6154 39.7499C17.1654 39.4699 16.7154 39.2699 16.3054 39.1299C15.8954 38.9899 15.5254 38.8999 15.2254 38.8399C14.9254 38.7799 14.6754 38.7599 14.5154 38.7399C14.3454 38.7299 14.2654 38.7299 14.2654 38.7299C14.2654 38.7299 14.3554 38.7299 14.5154 38.7499C14.6854 38.7699 14.9254 38.7999 15.2254 38.8599C15.5254 38.9199 15.8954 39.0099 16.3054 39.1599C16.7154 39.3099 17.1554 39.5099 17.6054 39.7899C18.0554 40.0699 18.4954 40.4399 18.8954 40.8999C19.2854 41.3599 19.6254 41.9199 19.8554 42.5399C19.8854 42.6199 19.9154 42.6999 19.9454 42.7699C19.9654 42.8499 19.9954 42.9299 20.0154 43.0099C20.0754 43.1699 20.0954 43.3299 20.1054 43.4999C20.1254 43.8399 20.1054 44.1899 20.0154 44.5199C19.8554 45.1899 19.4754 45.8199 18.9254 46.2699C18.3854 46.7299 17.7554 47.0499 17.1254 47.3499C16.4954 47.6399 15.8554 47.9099 15.2854 48.2499C14.9954 48.4199 14.7354 48.6199 14.5254 48.8699C14.4254 48.9999 14.3354 49.1299 14.2754 49.2799C14.2154 49.4299 14.1854 49.5899 14.1754 49.7399C14.1154 50.3499 14.0454 50.9199 14.0054 51.4499C13.9154 52.5099 13.8654 53.3999 13.8154 54.0199C13.7854 54.5299 13.7654 54.8499 13.7554 54.9599C13.7654 54.8599 13.7854 54.5299 13.8254 54.0199C13.8454 53.7099 13.8854 53.3299 13.9154 52.8999C13.9554 52.4699 13.9954 51.9799 14.0354 51.4499C14.0754 50.9199 14.1454 50.3499 14.2054 49.7399C14.2154 49.5899 14.2454 49.4399 14.3054 49.2999C14.3654 49.1599 14.4454 49.0299 14.5454 48.8999C14.7554 48.6599 15.0154 48.4599 15.2954 48.2899C15.8654 47.9499 16.5054 47.6899 17.1354 47.3999C17.7654 47.1099 18.4154 46.7899 18.9554 46.3199C19.5054 45.8599 19.8954 45.2199 20.0554 44.5299C20.1654 44.1999 20.1854 43.8399 20.1654 43.4999Z" fill="#EA9553"/>
<path opacity="0.8" d="M20.9354 43.3399C20.9154 43.1599 20.8354 42.9899 20.7854 42.8199C20.7254 42.6499 20.6554 42.4899 20.5754 42.3299C20.4254 42.0199 20.2454 41.7199 20.0454 41.4399C19.8454 41.1699 19.6354 40.9199 19.3954 40.6999C19.2854 40.5799 19.1554 40.4899 19.0354 40.3799C18.9154 40.2899 18.7954 40.1899 18.6654 40.1099C18.4154 39.9299 18.1654 39.7899 17.9154 39.6599C17.4154 39.3999 16.9354 39.2199 16.4954 39.0899C16.0554 38.9599 15.6754 38.8799 15.3454 38.8299C14.7054 38.7299 14.3254 38.7299 14.3254 38.7299C14.3254 38.7299 14.7054 38.7299 15.3454 38.8399C15.6654 38.8999 16.0554 38.9799 16.4854 39.1099C16.9154 39.2399 17.3954 39.4299 17.8954 39.6899C18.1354 39.8199 18.3954 39.9699 18.6354 40.1399C18.7554 40.2199 18.8754 40.3199 19.0054 40.4199C19.1154 40.5199 19.2454 40.6199 19.3554 40.7399C19.8154 41.1799 20.2154 41.7299 20.5154 42.3599C20.5854 42.5199 20.6554 42.6799 20.7154 42.8399C20.7654 43.0099 20.8454 43.1699 20.8554 43.3499C20.8954 43.6999 20.8854 44.0699 20.8054 44.4199C20.7254 44.7699 20.5854 45.1199 20.3754 45.4199C20.1754 45.7199 19.9154 45.9999 19.6254 46.2199C19.0454 46.6799 18.3654 46.9999 17.6954 47.2899C17.0254 47.5799 16.3454 47.8299 15.7154 48.1399C15.4054 48.2999 15.0954 48.4699 14.8354 48.6899C14.5754 48.8999 14.3554 49.1799 14.2854 49.4999L14.2654 49.6199L14.2554 49.7399C14.2454 49.8199 14.2354 49.8999 14.2254 49.9799C14.2054 50.1299 14.1954 50.2899 14.1754 50.4399C14.1454 50.7399 14.1054 51.0299 14.0854 51.3099C14.0354 51.8599 13.9954 52.3799 13.9554 52.8299C13.9254 53.2799 13.8954 53.6799 13.8654 53.9999C13.8254 54.5099 13.8054 54.8499 13.7954 54.9699C13.8054 54.8499 13.8354 54.5099 13.8754 53.9999C13.9054 53.6799 13.9354 53.2799 13.9754 52.8299C14.0154 52.3799 14.0654 51.8699 14.1154 51.3199C14.1354 51.0399 14.1754 50.7499 14.2154 50.4499C14.2354 50.2999 14.2554 50.1499 14.2654 49.9999C14.2754 49.9199 14.2854 49.8399 14.2954 49.7699L14.3054 49.6499L14.3354 49.5299C14.4154 49.2199 14.6154 48.9599 14.8754 48.7499C15.1354 48.5399 15.4354 48.3699 15.7454 48.2099C16.3654 47.8999 17.0454 47.6599 17.7254 47.3699C18.3954 47.0799 19.0854 46.7699 19.6754 46.2999C19.9654 46.0599 20.2254 45.7899 20.4354 45.4699C20.6454 45.1599 20.7854 44.8099 20.8654 44.4399C20.9654 44.0699 20.9854 43.6999 20.9354 43.3399Z" fill="#EA9553"/>
<path opacity="0.8" d="M21.6954 43.1698C21.5654 42.8098 21.4254 42.4598 21.2354 42.1498C21.1954 42.0698 21.1454 41.9899 21.0954 41.9099C21.0454 41.8299 20.9954 41.7598 20.9454 41.6798C20.8354 41.5398 20.7354 41.3898 20.6154 41.2598C20.3854 40.9898 20.1254 40.7598 19.8754 40.5398C19.6154 40.3298 19.3454 40.1498 19.0754 39.9798C18.8054 39.8198 18.5354 39.6798 18.2654 39.5598C17.7254 39.3198 17.2154 39.1598 16.7554 39.0398C16.2954 38.9198 15.8854 38.8499 15.5454 38.7999C14.8654 38.7099 14.4754 38.7098 14.4754 38.7098C14.4754 38.7098 14.8654 38.7098 15.5454 38.8198C15.8854 38.8698 16.2854 38.9498 16.7454 39.0698C17.2054 39.1898 17.7154 39.3598 18.2454 39.5998C18.5154 39.7198 18.7854 39.8599 19.0554 40.0199C19.3254 40.1899 19.5954 40.3598 19.8554 40.5798C20.1054 40.7898 20.3654 41.0198 20.5954 41.2898C20.7154 41.4198 20.8154 41.5698 20.9254 41.7098C20.9754 41.7898 21.0254 41.8598 21.0754 41.9398C21.1254 42.0198 21.1754 42.0898 21.2154 42.1698C21.4054 42.4798 21.5354 42.8298 21.6654 43.1798C21.7454 43.5398 21.7354 43.9299 21.6654 44.2999C21.5854 44.6699 21.4354 45.0298 21.2154 45.3398C20.9954 45.6498 20.7154 45.9299 20.4054 46.1599C19.7854 46.6199 19.0654 46.9298 18.3554 47.2198C17.6454 47.4998 16.9254 47.7398 16.2454 48.0298C15.9054 48.1698 15.5854 48.3299 15.2854 48.5199C14.9854 48.7099 14.7054 48.9398 14.5454 49.2398C14.4654 49.3898 14.4154 49.5598 14.4054 49.7198C14.3854 49.8798 14.3654 50.0398 14.3454 50.1998C14.3054 50.5098 14.2654 50.8098 14.2354 51.1098C14.1154 52.2698 14.0354 53.2498 13.9754 53.9298C13.9354 54.4398 13.9054 54.7898 13.8954 54.9298C13.9054 54.7898 13.9354 54.4398 13.9854 53.9298C14.0154 53.5898 14.0554 53.1798 14.1054 52.6998C14.1554 52.2298 14.2154 51.6898 14.2754 51.1098C14.3154 50.8198 14.3554 50.5198 14.3954 50.1998C14.4154 50.0398 14.4354 49.8798 14.4554 49.7198C14.4654 49.5598 14.5154 49.3998 14.5954 49.2598C14.7554 48.9698 15.0254 48.7498 15.3154 48.5598C15.6154 48.3798 15.9354 48.2198 16.2754 48.0798C16.9454 47.7998 17.6654 47.5598 18.3854 47.2798C19.0954 46.9998 19.8254 46.6898 20.4654 46.2198C20.7754 45.9798 21.0554 45.6998 21.2854 45.3798C21.5054 45.0598 21.6654 44.6898 21.7454 44.3098C21.7754 43.9398 21.7854 43.5498 21.6954 43.1698Z" fill="#EA9553"/>
</g>
<g opacity="0.6">
<path opacity="0.6" d="M11.3454 48.4499C11.8054 48.7499 12.2054 49.1299 12.3854 49.6199L12.4554 50.1899C12.5654 50.0399 12.7054 49.8999 12.8754 49.7999C13.4654 49.4599 14.1754 49.8699 14.3354 50.5399L14.4454 49.6199C14.7254 48.8799 15.5054 48.3699 16.2154 48.0499C15.6854 48.2399 14.3354 48.6999 13.3554 48.7299C12.2654 48.7699 11.5154 48.5199 11.3454 48.4499Z" fill="#CE8453"/>
</g>
<path d="M6.00541 41.9399C6.00541 41.9399 8.38541 37.9699 15.8654 38.9399C15.8654 38.9399 8.17541 39.1899 6.33541 43.7399C6.33541 43.7399 5.93541 42.7999 6.00541 41.9399Z" fill="#CE8453"/>
<path d="M12.6154 50.2599L13.1154 54.8299C13.1154 54.8299 13.3354 54.8999 13.3854 54.8299C13.4354 54.7599 13.0054 49.8999 13.0054 49.8999C13.0054 49.8999 12.7354 49.9199 12.6154 50.2599Z" fill="#CE8453"/>
</svg>
