<svg width="35" height="25" viewBox="0 0 35 25" fill="none" xmlns="http://www.w3.org/2000/svg">
<path d="M18.1154 3.81982C18.0354 3.41982 17.9054 2.81981 17.3454 2.25981C17.1154 2.02981 16.9654 1.80982 16.8654 1.62982C16.7254 1.51982 16.5954 1.42982 16.4954 1.34982C15.3254 0.559818 13.0954 0.729816 9.37535 1.51982C3.02535 3.02982 0.835401 6.09982 0.675401 10.2398C0.515401 14.3698 2.72539 21.0898 2.72539 21.0898C3.40539 23.4498 2.91541 24.6798 4.30541 24.2098C4.54541 24.1298 4.77541 24.0198 4.99541 23.8898C5.65541 23.0398 6.98539 21.3098 7.85539 20.0298C9.05539 18.2798 10.1954 15.8398 13.8854 14.7598C15.9854 14.1498 17.2154 13.9898 17.8854 13.9598C17.5954 13.5798 17.2154 13.4998 16.8354 13.3298C16.4354 13.1498 16.2754 12.8998 16.7654 12.5898C17.2554 12.2798 17.5654 12.3198 17.9254 11.6198C18.2854 10.9198 18.5354 10.7698 18.5854 9.57981C18.6354 8.38981 19.1254 8.18982 19.0754 7.63982C19.0254 7.09982 18.8354 6.10982 18.9154 5.27982C18.9854 4.46982 18.1954 4.20982 18.1154 3.81982Z" fill="#AF2C38"/>
<path d="M3.81536 24.4298C3.21536 24.4298 3.12542 23.8598 2.99542 22.9998C2.91542 22.4998 2.8154 21.8698 2.6054 21.1198C2.5854 21.0598 0.395416 14.3398 0.555416 10.2298C0.735416 5.58984 3.52539 2.77983 9.34539 1.39983C11.5754 0.919834 13.0854 0.709839 14.2454 0.709839C15.2654 0.709839 16.0254 0.889838 16.5554 1.23984C16.6654 1.31984 16.7954 1.41984 16.9354 1.52984L16.9654 1.56984C17.0854 1.77984 17.2354 1.98984 17.4254 2.16984C18.0154 2.74984 18.1454 3.36983 18.2254 3.78983C18.2454 3.89983 18.3654 4.01983 18.4954 4.14983C18.7454 4.39983 19.0754 4.72984 19.0254 5.30984C18.9654 5.90984 19.0554 6.58984 19.1254 7.13984C19.1454 7.32984 19.1754 7.49984 19.1854 7.63984C19.2054 7.90984 19.1154 8.09983 19.0154 8.32983C18.8854 8.60983 18.7254 8.94984 18.6954 9.59984C18.6554 10.5798 18.4754 10.8998 18.2254 11.3298C18.1654 11.4398 18.0954 11.5498 18.0254 11.6898C17.7354 12.2398 17.4754 12.3698 17.1654 12.5198C17.0654 12.5698 16.9454 12.6298 16.8254 12.6998C16.6654 12.7998 16.5754 12.8998 16.5754 12.9698C16.5754 13.0098 16.6154 13.0998 16.8854 13.2298C16.9654 13.2698 17.0554 13.2998 17.1354 13.3398C17.4254 13.4598 17.7354 13.5798 17.9854 13.8998L18.1254 14.0898L17.8854 14.0998C17.2254 14.1298 16.0054 14.2798 13.9154 14.8898C10.7454 15.8198 9.5054 17.7298 8.4154 19.4098C8.2554 19.6498 8.10538 19.8898 7.95538 20.1098C7.09538 21.3698 5.79539 23.0698 5.09539 23.9698L5.05542 23.9998C4.80542 24.1398 4.57538 24.2498 4.33538 24.3298C4.12538 24.3998 3.95536 24.4298 3.81536 24.4298ZM14.2354 0.959839C13.1054 0.959839 11.5654 1.17984 9.38537 1.63984C3.69537 2.98984 0.955397 5.72984 0.785397 10.2398C0.625397 14.3098 2.80537 20.9798 2.82537 21.0498C3.04537 21.8098 3.1454 22.4498 3.2254 22.9598C3.3654 23.8298 3.43542 24.1898 3.80542 24.1898C3.92542 24.1898 4.06542 24.1598 4.24542 24.0998C4.45542 24.0298 4.67538 23.9298 4.89538 23.7998C5.59538 22.8898 6.88541 21.2098 7.73541 19.9698C7.88541 19.7498 8.03537 19.5198 8.19537 19.2798C9.25537 17.6398 10.5754 15.6098 13.8354 14.6598C15.6954 14.1198 16.8854 13.9298 17.5954 13.8698C17.4254 13.7298 17.2254 13.6498 17.0254 13.5598C16.9354 13.5198 16.8554 13.4898 16.7654 13.4498C16.4754 13.3198 16.3354 13.1598 16.3254 12.9898C16.3154 12.8198 16.4354 12.6598 16.6854 12.4998C16.8254 12.4198 16.9454 12.3598 17.0454 12.2998C17.3354 12.1598 17.5554 12.0498 17.7954 11.5698C17.8654 11.4298 17.9354 11.3098 17.9954 11.1998C18.2354 10.7798 18.3954 10.4998 18.4354 9.57983C18.4654 8.87983 18.6454 8.49983 18.7754 8.21983C18.8754 8.00983 18.9454 7.85984 18.9254 7.65984C18.9154 7.51984 18.8954 7.34984 18.8654 7.16984C18.7954 6.60984 18.7054 5.90984 18.7654 5.27984C18.8054 4.81984 18.5454 4.54984 18.3054 4.31984C18.1554 4.16984 18.0054 4.01984 17.9654 3.83984C17.8854 3.45984 17.7654 2.86984 17.2254 2.34984C17.0254 2.14984 16.8654 1.93984 16.7354 1.70984C16.6054 1.60984 16.4854 1.51984 16.3854 1.44984C15.9254 1.11984 15.2154 0.959839 14.2354 0.959839Z" fill="#6D101C"/>
<path opacity="0.5" d="M18.1154 3.81983C18.0354 3.41983 17.9054 2.81982 17.3454 2.25982C17.1154 2.02982 16.9654 1.80983 16.8654 1.62983C16.7254 1.51983 16.5954 1.42983 16.4954 1.34983C15.7954 0.889827 14.7454 0.749826 13.2254 0.879826C13.2654 0.899826 13.2954 0.919826 13.3354 0.949826C14.5654 1.80983 15.0754 3.47983 15.0054 4.92983C14.8954 7.42983 13.6454 9.68982 11.8654 11.3998C10.9554 12.2798 9.95538 13.0398 8.95538 13.8098C7.83538 14.6698 6.82539 15.6598 5.96539 16.7798C5.54539 17.3298 5.18542 17.9098 4.80542 18.4798C4.60542 18.7798 4.34539 19.1398 3.96539 19.2198C3.18539 19.3898 2.44542 18.8898 1.92542 18.3398C2.34542 19.9498 2.7254 21.0798 2.7254 21.0798C3.4054 23.4398 2.91542 24.6698 4.30542 24.1998C4.54542 24.1198 4.77542 24.0098 4.99542 23.8798C5.65542 23.0298 6.98541 21.2998 7.85541 20.0198C9.05541 18.2698 10.1954 15.8298 13.8854 14.7498C15.9854 14.1398 17.2154 13.9798 17.8854 13.9498C17.5954 13.5698 17.2154 13.4898 16.8354 13.3198C16.4354 13.1398 16.2754 12.8898 16.7654 12.5798C17.2554 12.2698 17.5654 12.3098 17.9254 11.6098C18.2854 10.9098 18.5354 10.7598 18.5854 9.56983C18.6354 8.37983 19.1254 8.17983 19.0754 7.62983C19.0254 7.08983 18.8354 6.09983 18.9154 5.26983C18.9854 4.46983 18.1954 4.20983 18.1154 3.81983Z" fill="#AF2C38"/>
<path d="M18.8254 14.6999C18.4454 14.5699 18.1154 14.3099 17.9054 14.0199C17.8954 13.9999 17.8854 13.9898 17.8654 13.9698C17.1954 13.9998 15.9654 14.1599 13.8654 14.7699C13.6454 14.8399 13.4354 14.8999 13.2354 14.9799C13.2054 15.6699 12.6754 16.0098 11.9854 16.3998C11.2354 16.8298 10.7054 17.9899 9.98541 19.2499C9.46541 20.1599 8.34538 20.1999 7.76538 20.1399C6.89538 21.3999 5.6254 23.0699 4.9754 23.8899C6.0254 23.2899 6.84539 22.2899 7.46539 21.7199C8.21539 21.0299 9.30542 20.2999 9.80542 19.6999C10.3054 19.0999 11.3754 18.8799 12.0054 18.2299C12.6354 17.5899 13.2154 17.1799 14.9754 16.7399C17.1254 16.1999 19.4454 15.7399 19.7354 15.1299C19.3854 15.0399 19.0754 14.8799 18.8254 14.6999Z" fill="#8C262D"/>
<path d="M4.51538 24.2999L4.88538 23.8198C5.55538 22.9598 6.80541 21.3199 7.66541 20.0699L7.70538 20.0098L7.77539 20.0199C8.33539 20.0699 9.39537 20.0299 9.87537 19.1898C10.0054 18.9598 10.1254 18.7399 10.2454 18.5199C10.7954 17.5199 11.2754 16.6598 11.9154 16.2898C12.5954 15.9098 13.0754 15.5898 13.1054 14.9698V14.8899L13.1854 14.8599C13.3954 14.7799 13.6054 14.7098 13.8254 14.6498C15.9354 14.0298 17.1854 13.8699 17.8554 13.8499H17.9154L17.9554 13.8998C17.9654 13.9198 17.9854 13.9399 17.9954 13.9599C18.1954 14.2399 18.5154 14.4799 18.8554 14.5999L18.8854 14.6199C19.1254 14.7999 19.4354 14.9398 19.7654 15.0398L19.9054 15.0798L19.8454 15.2099C19.5754 15.7699 17.9554 16.1599 16.0754 16.6199C15.7254 16.7099 15.3554 16.7999 15.0054 16.8799C13.3154 17.3099 12.7254 17.6899 12.0954 18.3399C11.7754 18.6699 11.3454 18.8899 10.9354 19.1099C10.5254 19.3199 10.1354 19.5199 9.9054 19.7999C9.6054 20.1599 9.09537 20.5599 8.56537 20.9899C8.21537 21.2699 7.85542 21.5599 7.55542 21.8299C7.39542 21.9799 7.21538 22.1599 7.01538 22.3599C6.48538 22.8999 5.8154 23.5699 5.0354 24.0199L4.51538 24.2999ZM7.83539 20.2699C7.14539 21.2699 6.2154 22.4998 5.5354 23.3798C6.0354 22.9998 6.4754 22.5499 6.8454 22.1699C7.0454 21.9699 7.22538 21.7898 7.38538 21.6298C7.69538 21.3498 8.0554 21.0599 8.4054 20.7799C8.7354 20.5199 9.05537 20.2599 9.31537 20.0299C8.82537 20.2799 8.23539 20.2999 7.83539 20.2699ZM13.3554 15.0699C13.2854 15.7599 12.7454 16.1198 12.0554 16.5098C11.4654 16.8398 11.0054 17.6799 10.4754 18.6399C10.3654 18.8499 10.2454 19.0599 10.1154 19.2799C10.3254 19.1299 10.5754 19.0099 10.8254 18.8799C11.2254 18.6699 11.6354 18.4599 11.9254 18.1599C12.5854 17.4799 13.2054 17.0799 14.9554 16.6399C15.3154 16.5499 15.6754 16.4599 16.0254 16.3799C17.5454 16.0099 19.1154 15.6298 19.5454 15.2198C19.2554 15.1198 18.9954 14.9798 18.7754 14.8298C18.3954 14.6998 18.0354 14.4299 17.8154 14.1099C17.1454 14.1399 15.9354 14.3098 13.9054 14.8998C13.7254 14.9398 13.5454 14.9999 13.3554 15.0699Z" fill="#48040D"/>
<path d="M18.8254 14.6999C18.4454 14.5699 18.1154 14.3099 17.9054 14.0199C17.8954 13.9999 17.8854 13.9898 17.8654 13.9698C17.1954 13.9998 15.9654 14.1599 13.8654 14.7699C13.6454 14.8399 13.4354 14.8999 13.2354 14.9799C13.2054 15.6699 12.6754 16.0098 11.9854 16.3998C11.2354 16.8298 10.7054 17.9899 9.98541 19.2499C9.46541 20.1599 8.34538 20.1999 7.76538 20.1399C6.89538 21.3999 5.6254 23.0699 4.9754 23.8899C6.0254 23.2899 6.84539 22.2899 7.46539 21.7199C8.21539 21.0299 9.30542 20.2999 9.80542 19.6999C10.2554 19.1599 11.1754 18.9199 11.8054 18.4099C11.8054 18.3999 11.8154 18.3899 11.8154 18.3799C12.1754 17.3999 13.1254 16.6599 13.9254 16.0699C14.9754 15.2999 16.1454 14.6199 17.4254 15.3099C17.7754 15.4899 17.9254 15.7299 17.9654 15.9899C18.8954 15.7199 19.5854 15.4499 19.7454 15.1399C19.3854 15.0399 19.0754 14.8799 18.8254 14.6999Z" fill="#AF2C38"/>
<path d="M8.11542 20.2798C7.98542 20.2798 7.87538 20.2698 7.76538 20.2698L7.56537 20.2498L7.74542 19.9798C7.89542 19.7598 8.04538 19.5298 8.20538 19.2898C9.18538 17.7698 10.4054 15.8898 13.2054 14.8798L13.3754 14.8198L13.3654 14.9998C13.3254 15.7498 12.7754 16.1198 12.0554 16.5198L11.9354 16.3098C12.5354 15.9698 12.9854 15.6798 13.0954 15.1798C10.5154 16.1798 9.3954 17.8998 8.4054 19.4298C8.2654 19.6498 8.12542 19.8598 7.99542 20.0598C8.58542 20.0798 9.45538 19.9598 9.88538 19.2198L10.0954 19.3398C9.6354 20.1098 8.75542 20.2798 8.11542 20.2798Z" fill="#85A85A"/>
<path d="M29.3954 8.01982C31.9354 6.74982 33.4554 6.29982 34.2154 4.89982C34.3954 4.40982 34.3954 4.00983 34.3054 3.66983C33.8954 2.11983 27.7054 0.789826 23.0354 0.349826C18.3654 -0.100174 16.4954 0.599828 16.4954 1.35983C17.5954 2.16983 21.1354 4.84983 19.8754 9.17983C18.8854 12.0198 18.4654 13.0998 18.2854 13.6098C18.7354 13.5198 19.2254 13.1398 20.0154 12.7798C21.2454 12.2098 26.2354 9.58982 29.3954 8.01982Z" fill="#AF2C38"/>
<path d="M18.0854 13.7598L18.3054 13.1598C18.5354 12.5398 18.9654 11.3898 19.7554 9.12984C20.5854 6.26984 19.4654 3.68983 16.4154 1.43983L16.3654 1.39983V1.33984C16.3754 0.549836 17.8754 0.079834 20.3754 0.079834C21.1754 0.079834 22.0654 0.129833 23.0454 0.219833C27.2054 0.619833 33.9654 1.89984 34.4254 3.62984C34.5354 4.03984 34.5054 4.47983 34.3354 4.93983C33.7054 6.09983 32.5854 6.62983 30.8754 7.43983C30.4454 7.63983 29.9654 7.86983 29.4554 8.11983C28.0854 8.79984 26.3954 9.66983 24.7554 10.5098C22.7054 11.5698 20.7554 12.5598 20.0554 12.8798C19.7354 13.0298 19.4554 13.1798 19.2154 13.3098C18.8554 13.5098 18.5754 13.6598 18.2954 13.7198L18.0854 13.7598ZM16.6154 1.28983C19.7054 3.58983 20.8454 6.24984 19.9854 9.19984C19.1954 11.4698 18.7654 12.6198 18.5354 13.2398L18.4754 13.4098C18.6654 13.3398 18.8654 13.2198 19.1154 13.0898C19.3554 12.9498 19.6354 12.7998 19.9654 12.6498C20.6654 12.3398 22.5954 11.3398 24.6454 10.2898C26.2754 9.44983 27.9754 8.58983 29.3454 7.89983C29.8654 7.63983 30.3354 7.41984 30.7754 7.20984C32.4954 6.39984 33.5254 5.90983 34.1154 4.82983C34.2554 4.43983 34.2854 4.04983 34.1954 3.68983C33.8354 2.31983 28.1154 0.939839 23.0254 0.459839C22.0554 0.369839 21.1654 0.319839 20.3754 0.319839C17.8754 0.329839 16.7054 0.799833 16.6154 1.28983Z" fill="#6D101C"/>
<path opacity="0.5" d="M34.3054 3.66986C34.1354 3.03986 33.0054 2.43986 31.4054 1.92986C31.5054 1.99986 31.6054 2.06986 31.6954 2.13986C32.2554 2.56986 32.8354 3.15986 32.7154 3.92986C32.5854 4.74986 31.6854 5.06986 31.0054 5.29986C29.7154 5.72986 28.3554 6.18986 27.1454 6.82986C26.1954 7.32986 25.4254 8.09986 24.4654 8.57986C23.7354 8.93986 22.8954 9.13986 22.2954 8.45986C21.5354 7.58986 22.3054 6.50986 22.4354 5.57986C22.6354 4.15986 21.6454 3.20986 20.5954 2.46986C20.0354 2.06986 19.1754 1.49986 19.4654 0.69986C19.5354 0.50986 19.6354 0.359858 19.7554 0.229858C17.4654 0.309858 16.5054 0.819858 16.4954 1.36986C17.5954 2.17986 21.1354 4.85986 19.8754 9.18986C18.8854 12.0299 18.4654 13.1099 18.2854 13.6199C18.7354 13.5299 19.2254 13.1499 20.0154 12.7899C21.2454 12.2299 26.2354 9.60986 29.3954 8.03986C31.9354 6.76986 33.4554 6.31986 34.2154 4.91986C34.3954 4.40986 34.3954 4.00986 34.3054 3.66986Z" fill="#AF2C38"/>
<path d="M29.3954 8.01985C26.2354 9.59985 21.2354 12.2199 20.0154 12.7699C19.2154 13.1299 18.7254 13.5099 18.2854 13.5999C18.2754 13.6199 18.2754 13.6298 18.2654 13.6498C18.0954 14.1398 18.7054 14.8398 19.7554 15.1498C20.6154 15.0498 22.7254 14.5298 24.4454 13.2198C26.6254 11.5598 27.9654 10.4299 31.0454 8.24986C33.0154 6.85986 33.9054 5.76985 34.2254 4.90985C33.4554 6.28985 31.9454 6.74985 29.3954 8.01985Z" fill="#8C262D"/>
<path d="M19.7354 15.2698L19.7154 15.2598C19.0154 15.0498 18.4354 14.6498 18.2154 14.1998C18.1054 13.9898 18.0854 13.7898 18.1554 13.5998L18.1954 13.4898L18.2654 13.4698C18.5154 13.4198 18.7754 13.2798 19.1254 13.0898C19.3654 12.9498 19.6454 12.7998 19.9754 12.6498C20.6754 12.3398 22.6054 11.3398 24.6554 10.2898C26.2854 9.44983 27.9854 8.58983 29.3554 7.89983C29.8754 7.63983 30.3454 7.41984 30.7854 7.20984C32.5054 6.39984 33.5354 5.90983 34.1254 4.82983L34.3454 4.92984C33.9654 5.94984 32.8754 7.08983 31.1254 8.32983C28.8854 9.90983 27.5754 10.9298 26.1754 12.0198C25.6554 12.4298 25.1254 12.8398 24.5254 13.2998C22.8154 14.5998 20.6754 15.1498 19.7754 15.2598L19.7354 15.2698ZM18.3654 13.6998C18.3254 13.8398 18.3654 13.9898 18.4154 14.0898C18.6054 14.4698 19.1154 14.8198 19.7454 15.0198C20.6354 14.9098 22.6954 14.3798 24.3454 13.1098C24.9454 12.6498 25.4754 12.2398 26.0054 11.8298C27.3954 10.7398 28.7154 9.71984 30.9554 8.13984C31.9754 7.41984 32.7554 6.73984 33.3054 6.09984C32.6854 6.56984 31.8754 6.95984 30.8554 7.42984C30.4254 7.62984 29.9454 7.85984 29.4354 8.10984C28.0654 8.78984 26.3754 9.65984 24.7354 10.4998C22.6854 11.5598 20.7354 12.5498 20.0354 12.8698C19.7154 13.0198 19.4354 13.1698 19.1954 13.2998C18.8954 13.4898 18.6254 13.6298 18.3654 13.6998Z" fill="#48040D"/>
<path d="M29.3954 8.01986C26.2354 9.59986 21.2354 12.2199 20.0154 12.7699C19.2154 13.1299 18.7254 13.5099 18.2854 13.5999C18.2754 13.6199 18.2754 13.6299 18.2654 13.6499C18.0954 14.1399 18.7054 14.8399 19.7554 15.1499C20.0654 15.1099 20.5354 15.0199 21.0854 14.8599C20.6454 14.7999 20.3854 14.5299 20.5054 13.9199C20.6354 13.2199 21.6854 12.7799 22.2154 12.4699C23.3854 11.7699 24.4854 10.9899 25.7454 10.4399C27.0254 9.87986 28.3154 9.38986 29.6254 8.89986C30.0254 8.74986 30.4254 8.58986 30.8154 8.41986C30.8954 8.36986 30.9654 8.30986 31.0454 8.25986C33.0154 6.86986 33.9054 5.77986 34.2254 4.91986C33.4554 6.28986 31.9454 6.74986 29.3954 8.01986Z" fill="#AF2C38"/>
<path d="M17.1554 13.2198C16.8854 13.0598 16.6954 13.1198 16.5754 13.1898C16.6354 13.2398 16.7254 13.2898 16.8254 13.3398C17.2154 13.5198 17.6154 13.5998 17.9154 14.0198C18.1254 14.3098 18.4554 14.5698 18.8354 14.6998C18.3754 14.3698 18.1554 13.9598 18.2654 13.6398C18.2754 13.6198 18.2854 13.5998 18.2854 13.5798C17.9054 13.8198 17.5954 13.4798 17.1554 13.2198Z" fill="#8C262D"/>
<path d="M19.5554 15.0798L18.7854 14.8198C18.4054 14.6898 18.0354 14.4198 17.8054 14.0898C17.5954 13.7898 17.3254 13.6798 17.0254 13.5598C16.9354 13.5198 16.8554 13.4898 16.7654 13.4498C16.6554 13.3998 16.5654 13.3398 16.4954 13.2898L16.3654 13.1798L16.5054 13.0898C16.7054 12.9598 16.9554 12.9698 17.2054 13.1198C17.2954 13.1698 17.3854 13.2298 17.4754 13.2898C17.7654 13.4798 17.9854 13.6198 18.2154 13.4798L18.5154 13.2898L18.3754 13.6898C18.2854 13.9498 18.4854 14.3098 18.9054 14.6098L19.5554 15.0798ZM17.8454 13.7598C17.9054 13.8198 17.9554 13.8798 18.0054 13.9498C18.0554 14.0198 18.1254 14.0998 18.1854 14.1698C18.1254 14.0398 18.0954 13.8998 18.1054 13.7798C18.0254 13.7898 17.9354 13.7798 17.8454 13.7598Z" fill="#48040D"/>
<path d="M16.8554 1.62982C16.9554 1.80982 17.1054 2.02982 17.3354 2.25982C17.8954 2.80982 18.0254 3.41982 18.1054 3.81982C18.1854 4.21982 18.9754 4.47982 18.9054 5.29982C18.8254 6.11982 19.0153 7.10982 19.0653 7.65982C19.1153 8.19982 18.6254 8.39982 18.5754 9.59982C18.5254 10.7898 18.2754 10.9498 17.9154 11.6398C17.5554 12.3398 17.2553 12.2998 16.7553 12.6098C16.3853 12.8398 16.3854 13.0398 16.5754 13.1998C16.6854 13.1298 16.8754 13.0698 17.1554 13.2298C17.5954 13.4898 17.9054 13.8198 18.2854 13.5898C18.4754 13.0698 18.8953 11.9898 19.8753 9.17982C21.0053 5.24982 18.2154 2.67982 16.8554 1.62982Z" fill="#8C262D"/>
<path d="M18.0154 13.7798C17.7854 13.7798 17.5654 13.6398 17.3454 13.4898C17.2654 13.4398 17.1754 13.3798 17.0854 13.3298C16.9154 13.2298 16.7554 13.2198 16.6354 13.2998L16.5554 13.3498L16.4854 13.2898C16.3654 13.1898 16.3053 13.0698 16.3153 12.9498C16.3253 12.7898 16.4454 12.6498 16.6754 12.4998C16.8154 12.4198 16.9354 12.3598 17.0354 12.2998C17.3254 12.1598 17.5454 12.0498 17.7854 11.5698C17.8554 11.4298 17.9254 11.3098 17.9854 11.1998C18.2254 10.7798 18.3854 10.4998 18.4254 9.5798C18.4554 8.8798 18.6354 8.4998 18.7654 8.2198C18.8654 8.0098 18.9354 7.85981 18.9154 7.65981C18.9054 7.51981 18.8854 7.34981 18.8554 7.16981C18.7854 6.60981 18.6953 5.90981 18.7553 5.27981C18.7953 4.81981 18.5354 4.54981 18.2954 4.31981C18.1454 4.16981 17.9954 4.01981 17.9554 3.83981C17.8754 3.45981 17.7554 2.86981 17.2154 2.34981C17.0154 2.14981 16.8454 1.9298 16.7154 1.6898L16.4353 1.17981L16.8954 1.5398C19.7154 3.7298 20.7653 6.37981 19.9453 9.20981C19.1653 11.4498 18.7353 12.6098 18.5053 13.2298L18.3454 13.6698L18.3153 13.6898C18.2453 13.7498 18.1354 13.7798 18.0154 13.7798ZM16.8153 12.9998C16.9453 12.9998 17.0754 13.0398 17.2054 13.1198C17.2954 13.1698 17.3854 13.2298 17.4754 13.2898C17.6754 13.4198 17.8554 13.5398 18.0154 13.5398C18.0654 13.5398 18.1254 13.5198 18.1754 13.4998L18.3054 13.1398C18.5354 12.5198 18.9654 11.3698 19.7454 9.12981C20.4354 6.75981 19.7453 4.50981 17.7553 2.56981C18.0653 3.02981 18.1554 3.4698 18.2254 3.7898C18.2454 3.8998 18.3654 4.0198 18.4954 4.1498C18.7454 4.3998 19.0754 4.72981 19.0254 5.30981C18.9654 5.90981 19.0553 6.58981 19.1253 7.13981C19.1453 7.32981 19.1753 7.49981 19.1853 7.63981C19.2053 7.90981 19.1154 8.0998 19.0154 8.3298C18.8854 8.6098 18.7253 8.94981 18.6953 9.59981C18.6553 10.5798 18.4754 10.8998 18.2254 11.3298C18.1654 11.4398 18.0954 11.5498 18.0254 11.6898C17.7354 12.2398 17.4754 12.3698 17.1654 12.5198C17.0654 12.5698 16.9454 12.6298 16.8254 12.6998C16.6054 12.8298 16.5754 12.9198 16.5754 12.9598C16.5754 12.9798 16.5854 13.0098 16.6054 13.0398C16.6654 13.0098 16.7453 12.9998 16.8153 12.9998Z" fill="#48040D"/>
<path d="M18.4353 13.1598C18.1853 12.8398 18.2154 12.3298 18.2954 11.9598C18.4154 11.3798 18.6253 10.8298 18.8153 10.2598C18.9053 9.99981 18.9454 9.72981 19.0454 9.47981C19.1854 9.07981 19.4753 8.62981 19.4353 8.19981C19.3853 7.73981 19.2654 7.32981 19.2854 6.86981C19.3054 6.43981 19.3553 5.95982 19.2553 5.52982C19.0953 4.89982 18.5354 4.31981 18.5854 3.62981C18.5854 3.53981 18.6054 3.42981 18.6454 3.32981C18.0354 2.56981 17.3653 1.99981 16.8753 1.61981C16.9753 1.79981 17.1254 2.01982 17.3554 2.24982C17.9154 2.79982 18.0453 3.40981 18.1253 3.80981C18.2053 4.20981 18.9954 4.46981 18.9254 5.28981C18.8454 6.10981 19.0354 7.09981 19.0854 7.64981C19.1354 8.18981 18.6454 8.38981 18.5954 9.58981C18.5454 10.7798 18.2953 10.9398 17.9353 11.6298C17.5753 12.3298 17.2754 12.2898 16.7754 12.5998C16.4054 12.8298 16.4054 13.0298 16.5954 13.1898C16.7054 13.1198 16.8954 13.0598 17.1754 13.2198C17.6154 13.4798 17.9254 13.8098 18.3054 13.5798C18.3254 13.4698 18.3753 13.3398 18.4353 13.1598Z" fill="#AF2C38"/>
<path d="M7.22539 2.58986C4.80539 3.54986 2.58541 5.09986 1.80541 7.69986C1.39541 9.06986 1.36538 10.5799 1.46538 11.9899C1.58538 13.6099 1.94536 15.2699 2.56536 16.7699C2.60536 16.8599 2.61539 16.8699 2.59539 16.7999C2.24539 15.4399 1.99541 13.8599 1.80541 12.4699C1.61541 11.0599 1.63538 9.60986 1.90538 8.20986C2.15538 6.89986 2.77541 5.82986 3.74541 4.92986C4.75541 3.98986 6.03539 3.23986 7.22539 2.58986C7.25539 2.56986 7.28539 2.55986 7.22539 2.58986Z" fill="#AF2C38"/>
<path d="M30.9754 2.35985C29.6854 1.89985 28.3654 1.57985 27.0254 1.30985C26.2854 1.15985 25.5454 1.02985 24.7954 0.949851C24.0754 0.869851 23.3254 0.899847 22.6154 0.789847C22.5754 0.779847 22.5354 0.789849 22.5754 0.799849C23.1454 0.939849 23.7454 1.06985 24.3254 1.15985C25.0654 1.26985 25.8054 1.39985 26.5454 1.54985C27.9954 1.83985 29.5054 2.01985 30.9354 2.39985C31.0154 2.41985 31.0454 2.38985 30.9754 2.35985Z" fill="#AF2C38"/>
<path d="M13.2454 14.9799C10.0554 16.1399 8.9754 18.3999 7.8454 20.0399C7.8254 20.0699 7.79539 20.1099 7.77539 20.1399C8.18539 20.1799 8.87542 20.1699 9.42542 19.8299C8.82542 19.9699 8.81541 19.3699 9.41541 18.5499C10.2554 17.4099 10.6554 16.9799 11.9254 16.0199C12.3254 15.7199 12.6054 15.7099 12.8154 15.8499C13.0654 15.6199 13.2254 15.3499 13.2454 14.9799Z" fill="#B6E87F"/>
</svg>
