<svg width="12" height="19" viewBox="0 0 12 19" fill="none" xmlns="http://www.w3.org/2000/svg">
<path d="M10.8855 6.34995C10.3855 4.60995 9.71545 2.85994 8.56545 1.51994C6.94545 -0.370056 4.36546 -0.0800573 2.63546 1.36994C0.825457 2.88994 0.285454 5.20995 0.695454 7.48995C1.02545 9.31995 2.42545 10.3499 3.75545 11.6199C5.38545 13.1599 4.85546 16.5099 6.57546 17.9799C8.54546 19.6599 10.1855 17.2999 11.0055 15.7299C12.1955 13.4299 11.9755 10.7199 11.3855 8.28994C11.2355 7.66994 11.0755 7.00995 10.8855 6.34995Z" fill="#952C38"/>
<path d="M7.95547 18.5899C7.49547 18.5899 7.02546 18.3899 6.57546 18.0099C5.69546 17.2599 5.3955 15.9999 5.1155 14.7799C4.8355 13.6099 4.55545 12.3999 3.75546 11.6499C3.57545 11.4699 3.38547 11.2999 3.20547 11.1299C2.06547 10.0799 0.975457 9.07995 0.695457 7.49995C0.245457 5.00995 0.95546 2.77994 2.63546 1.36994C3.53546 0.619942 4.65548 0.189941 5.71548 0.189941C6.84548 0.189941 7.83547 0.649943 8.58547 1.51994C9.56547 2.65994 10.2755 4.14995 10.9055 6.34995C11.0955 7.00994 11.2555 7.67994 11.4055 8.29994C12.1555 11.3799 12.0255 13.8199 11.0255 15.7499C10.3455 17.0399 9.26547 18.5899 7.95547 18.5899ZM5.70547 0.209946C4.65547 0.209946 3.53547 0.639946 2.64547 1.38995C0.97547 2.78995 0.265477 5.01995 0.715477 7.49995C0.995477 9.06995 2.07548 10.0599 3.21548 11.1099C3.39548 11.2799 3.58546 11.4499 3.76546 11.6299C4.56546 12.3899 4.85545 13.5999 5.12545 14.7699C5.41545 15.9799 5.70546 17.2399 6.57546 17.9899C7.02546 18.3699 7.48546 18.5699 7.94546 18.5699C9.24546 18.5699 10.3155 17.0299 10.9855 15.7499C11.9855 13.8299 12.1055 11.3999 11.3655 8.31995C11.2155 7.69995 11.0555 7.03994 10.8655 6.36994C10.2355 4.16994 9.52549 2.68994 8.54549 1.54994C7.81549 0.669942 6.82547 0.209946 5.70547 0.209946Z" fill="#6D101C"/>
<path opacity="0.5" d="M11.2855 7.90992C10.8755 8.12992 10.4655 8.33992 10.0555 8.55992C10.2555 10.4599 10.4455 12.4299 9.90548 14.2599C9.46548 15.7599 7.7455 16.3999 6.5555 15.3099C5.8155 14.6299 5.58544 13.3699 5.43544 12.4199C5.16544 10.6199 4.79546 9.76992 3.38546 8.62992C2.24546 7.70992 1.40544 6.80992 1.18544 5.32992C1.05544 4.48992 1.24546 3.59992 1.45546 2.72992C0.595464 4.10992 0.385444 5.81992 0.685444 7.49992C1.01544 9.32992 2.4155 10.3599 3.7455 11.6299C5.3755 13.1699 4.84545 16.5199 6.56545 17.9899C8.53545 19.6699 10.1755 17.3099 10.9955 15.7399C12.1855 13.4399 11.9654 10.7299 11.3754 8.29992C11.3554 8.16992 11.3255 8.03992 11.2855 7.90992Z" fill="#AF2C38"/>
<path d="M11.3854 8.29994C11.2354 7.66994 11.0754 7.00995 10.8854 6.34995C10.3854 4.60995 9.71543 2.85994 8.56543 1.51994C6.94543 -0.370056 4.36544 -0.0800573 2.63544 1.36994C2.57544 1.41994 2.51545 1.47995 2.46545 1.52995C3.02545 1.42995 3.60544 1.50994 4.01544 1.96994C4.36544 2.36994 4.64546 2.74994 4.72546 3.29994C4.91546 4.60994 5.46546 5.24995 6.34546 6.20995C7.72546 7.71995 8.43547 10.0099 9.29547 11.8399C9.90547 13.1499 10.3154 14.5599 10.0154 16.0099C9.85544 16.7799 9.58545 17.4899 9.21545 18.0899C9.97545 17.5099 10.5954 16.5199 11.0154 15.7299C12.2054 13.4399 11.9754 10.7299 11.3854 8.29994Z" fill="#AF2C38"/>
<path d="M9.21545 18.1099C9.20545 18.1099 9.20545 18.1099 9.21545 18.1099C9.20545 18.0999 9.19544 18.0999 9.20544 18.0899C9.57544 17.4899 9.84543 16.7899 10.0054 16.0099C10.2554 14.7699 10.0255 13.4499 9.28546 11.8399C9.06546 11.3799 8.86545 10.8899 8.64545 10.3699C8.01545 8.87993 7.36546 7.32993 6.34546 6.20993C5.42546 5.20993 4.89545 4.57993 4.71545 3.29993C4.64545 2.77993 4.38543 2.40993 4.00543 1.97993C3.72543 1.66993 3.35544 1.50993 2.88544 1.50993C2.75544 1.50993 2.61546 1.51993 2.47546 1.54993C2.46546 1.54993 2.46545 1.54992 2.46545 1.53992C2.46545 1.52992 2.46545 1.52993 2.46545 1.51993C2.48545 1.49993 2.49544 1.48992 2.51544 1.46992C2.55544 1.42992 2.59544 1.38993 2.63544 1.35993C3.53544 0.609932 4.65545 0.179932 5.71545 0.179932C6.84545 0.179932 7.83545 0.639926 8.58545 1.50993C9.56545 2.64993 10.2755 4.13993 10.9055 6.33993C11.0955 6.99993 11.2555 7.66992 11.4055 8.28992C12.1555 11.3699 12.0255 13.8099 11.0255 15.7399C10.4455 16.8499 9.83545 17.6399 9.21545 18.1099ZM2.87543 1.48993C3.35543 1.48993 3.74545 1.64992 4.02545 1.96992C4.41545 2.40992 4.66547 2.78993 4.73547 3.30993C4.91547 4.58993 5.44547 5.20993 6.35547 6.20993C7.38547 7.32993 8.03547 8.87993 8.66547 10.3799C8.88547 10.8999 9.08548 11.3799 9.30548 11.8499C10.0555 13.4599 10.2855 14.7899 10.0255 16.0299C9.87545 16.7799 9.61543 17.4599 9.25543 18.0499C9.85543 17.5799 10.4355 16.8099 10.9855 15.7399C11.9855 13.8199 12.1055 11.3899 11.3655 8.30993C11.2155 7.68993 11.0555 7.02993 10.8655 6.35993C10.2355 4.15993 9.52547 2.67992 8.54547 1.53992C7.80547 0.669925 6.81543 0.219925 5.69543 0.219925C4.64543 0.219925 3.52544 0.649925 2.63544 1.39993C2.59544 1.43993 2.55544 1.46993 2.51544 1.50993C2.50544 1.50993 2.50548 1.51993 2.49548 1.52993C2.62548 1.49993 2.75543 1.48993 2.87543 1.48993Z" fill="#6D101C"/>
<path opacity="0.5" d="M10.0355 10.8999C8.87546 9.04994 7.59548 7.37994 6.30548 5.61994C5.66548 4.74994 5.45543 3.97994 5.06543 2.98994C4.68543 2.01994 4.20543 1.71994 3.62543 1.68994C3.76543 1.75994 3.89544 1.85994 4.01544 1.98994C4.36544 2.38994 4.64546 2.76995 4.72546 3.31995C4.91546 4.62995 5.46546 5.26994 6.34546 6.22994C7.72546 7.73994 8.43547 10.0299 9.29547 11.8599C9.90547 13.1699 10.3154 14.5799 10.0154 16.0299C9.85544 16.7999 9.58545 17.5099 9.21545 18.1099C9.97545 17.5299 10.5954 16.5399 11.0154 15.7499C11.7654 14.3099 11.9555 12.7099 11.8455 11.1199C11.4555 11.9199 10.8755 12.2299 10.0355 10.8999Z" fill="#AF2C38"/>
<path opacity="0.4" d="M8.38541 7.17992C7.71541 6.35992 7.0054 5.56992 6.5054 4.61992C5.8454 3.33992 5.59545 1.36992 3.92545 1.10992C3.89545 1.10992 3.83541 1.17992 3.88541 1.18992C5.54541 1.63992 5.79541 4.15992 6.57541 5.45992C6.88541 5.97992 7.31544 6.42992 7.72544 6.86992C8.41544 7.60992 8.91542 8.35992 9.39542 9.23992C9.42542 9.29992 9.51546 9.21992 9.49546 9.16992C9.17546 8.46992 8.88541 7.77992 8.38541 7.17992Z" fill="#F5B8B1"/>
</svg>
