<svg width="32" height="38" viewBox="0 0 32 38" fill="none" xmlns="http://www.w3.org/2000/svg">
<path d="M24.4354 6.65986C23.8854 6.67986 23.3455 6.75986 22.7855 6.90986C22.2055 7.05986 21.6554 7.27986 21.1354 7.58986C20.4854 7.96986 19.9855 8.46986 19.4755 9.00986C19.3755 9.11986 19.2254 9.31986 19.0754 9.36986C19.0154 9.38986 18.9454 9.39986 18.8854 9.40986C18.8454 9.40986 18.7954 9.39986 18.7554 9.38986L18.7654 9.37986C18.7654 9.37986 18.1955 9.29986 17.9655 8.22986L17.6954 0.169861L15.2654 0.229858L15.5455 8.47986C15.5455 8.47986 15.5455 10.8799 16.9855 12.2299C17.1055 12.3799 17.2354 12.5099 17.3854 12.5999C17.7654 12.8199 17.9754 13.3599 18.0054 14.0399C18.0954 16.6799 16.1855 18.9899 13.6655 19.5899C8.71547 20.7599 1.01543 21.8699 0.18543 28.2099C-0.04457 29.9699 0.285479 31.9699 1.48548 33.3299C2.98548 35.0299 5.77545 35.5799 7.95545 35.5299C8.02545 35.5299 8.09546 35.5299 8.15546 35.5299C9.66546 35.4799 11.1455 35.0699 12.6055 34.7199C13.6555 34.4699 15.1054 33.9799 16.0754 34.6899C16.7554 35.1899 16.6855 36.1899 16.5555 36.9599C16.5455 37.0199 16.5355 37.0699 16.5255 37.1299C17.9455 37.0499 19.3555 36.9199 20.7755 36.8099C21.5555 36.5599 20.8455 34.5199 20.6755 34.0899C20.2555 33.0099 19.9254 32.3799 18.9354 31.7499C17.3754 30.7499 15.4355 30.7299 13.6555 31.0599C11.8255 31.3999 10.1454 32.4099 8.26545 32.4999C7.24545 32.5499 6.20546 32.2299 5.40546 31.5699C5.18546 31.3899 4.95548 31.1399 4.92548 30.5699C4.90548 30.0599 4.70545 29.7699 4.51545 29.5999C4.42545 29.5299 4.34547 29.4799 4.28547 29.4499L4.31543 29.4299C4.89543 29.0899 4.80543 27.9299 4.87543 27.4999C5.31543 27.9599 6.12549 27.9999 6.49549 28.0099C8.01549 28.0699 7.88544 26.7199 8.07544 27.3299C8.56544 28.9099 11.1354 29.4799 12.5154 29.7099C16.7154 30.4099 21.2355 29.1699 24.7255 26.7799C26.6655 25.4499 28.3855 23.6599 29.3955 21.5199C30.8955 18.3299 31.8954 13.8999 30.1954 10.5899C29.3154 8.87986 27.8154 7.23986 25.8754 6.79986C25.4054 6.68986 24.9154 6.64986 24.4354 6.65986Z" fill="#F4B6B0"/>
<path d="M16.4854 37.1499L16.4955 37.1099C16.5055 37.0499 16.5154 36.9999 16.5254 36.9399C16.6454 36.2199 16.7355 35.1999 16.0555 34.7099C15.6955 34.4499 15.2555 34.3299 14.6755 34.3499C14.1055 34.3699 13.5054 34.5199 12.9754 34.6599C12.8554 34.6899 12.7355 34.7199 12.6155 34.7499C12.4455 34.7899 12.2754 34.8299 12.1054 34.8699C10.8254 35.1799 9.49543 35.5099 8.15543 35.5599C8.09543 35.5599 8.03543 35.5599 7.96543 35.5599H7.94541C6.74541 35.5799 5.50541 35.4199 4.44541 35.1099C3.15541 34.7299 2.14541 34.1299 1.44541 33.3399C0.365411 32.1099 -0.124587 30.1899 0.135413 28.1899C0.475413 25.6299 1.93541 23.6899 4.63541 22.2699C6.94541 21.0499 9.74544 20.4199 12.2254 19.8699C12.7254 19.7599 13.1954 19.6499 13.6554 19.5399C14.8754 19.2499 15.9954 18.5399 16.7854 17.5399C17.5954 16.5299 18.0154 15.2799 17.9654 14.0199C17.9454 13.3299 17.7255 12.8099 17.3655 12.6099C17.2155 12.5199 17.0754 12.3899 16.9554 12.2299C15.5254 10.8799 15.5154 8.47986 15.5154 8.44986L15.2354 0.169861L17.7354 0.109863L18.0054 8.20986C18.2254 9.23986 18.7654 9.32986 18.7754 9.32986L18.8254 9.33986L18.8154 9.34986C18.8454 9.34986 18.8654 9.34986 18.8854 9.34986C18.9454 9.34986 19.0054 9.33986 19.0754 9.31986C19.1854 9.27986 19.2954 9.14986 19.3854 9.04986C19.4054 9.01986 19.4254 8.99986 19.4554 8.96986C19.9254 8.46986 20.4454 7.93986 21.1254 7.53986C21.6354 7.23986 22.1954 7.00986 22.7854 6.85986C23.3654 6.70986 23.8954 6.62986 24.4054 6.60986H24.4354C24.9354 6.59986 25.4154 6.63986 25.9054 6.74986C28.3454 7.29986 29.7555 9.58986 30.2455 10.5499C31.0255 12.0799 31.2954 13.9399 31.0454 16.0799C30.7854 18.3099 30.0354 20.2599 29.4454 21.5099C28.5054 23.5099 26.8854 25.3299 24.7554 26.7899C21.9754 28.6899 18.6654 29.7999 15.4354 29.9099C14.4454 29.9399 13.4654 29.8799 12.5254 29.7299C9.91543 29.2999 8.41546 28.4899 8.05546 27.3199C8.02546 27.2299 8.01541 27.1999 8.00541 27.1899C7.98541 27.1999 7.96541 27.2499 7.94541 27.2899C7.80541 27.5199 7.5254 27.9999 6.6854 28.0299C6.6354 28.0299 6.57542 28.0299 6.51542 28.0299C6.17542 28.0199 5.38544 27.9899 4.91544 27.5599C4.90544 27.6399 4.90542 27.7399 4.89542 27.8599C4.86542 28.3699 4.8154 29.1499 4.3754 29.4299C4.4254 29.4599 4.49546 29.4999 4.55546 29.5499C4.73546 29.6999 4.96545 29.9899 4.98545 30.5399C5.01545 31.1099 5.24542 31.3399 5.45542 31.5099C6.23542 32.1499 7.24544 32.4799 8.28544 32.4299C9.36544 32.3699 10.4054 32.0099 11.4054 31.6599C12.1354 31.3999 12.8955 31.1399 13.6755 30.9899C14.2355 30.8899 14.7854 30.8199 15.2954 30.8099C16.7354 30.7599 17.9754 31.0599 18.9754 31.6899C19.4554 31.9999 19.7954 32.3099 20.0654 32.6999C20.3254 33.0699 20.5054 33.4899 20.7254 34.0499C20.7954 34.2399 21.4154 35.8799 21.0954 36.5499C21.0354 36.6799 20.9355 36.7699 20.8055 36.8099H20.7954C20.3254 36.8399 19.8654 36.8799 19.4054 36.9199C18.4654 36.9999 17.4954 37.0799 16.5454 37.1299L16.4854 37.1499ZM14.6854 34.2799C15.2754 34.2599 15.7354 34.3799 16.1054 34.6499C16.8154 35.1699 16.7254 36.2199 16.5954 36.9599C16.5854 36.9999 16.5854 37.0399 16.5754 37.0799C17.5154 37.0299 18.4654 36.9499 19.3854 36.8799C19.8454 36.8399 20.3154 36.7999 20.7754 36.7699C20.8854 36.7399 20.9654 36.6599 21.0254 36.5499C21.3354 35.9099 20.7254 34.2799 20.6554 34.0999C20.2054 32.9499 19.8755 32.3699 18.9255 31.7699C17.9355 31.1399 16.7154 30.8499 15.2854 30.8999C14.7754 30.9199 14.2355 30.9799 13.6755 31.0799C12.9055 31.2199 12.1554 31.4899 11.4154 31.7499C10.4154 32.0999 9.37543 32.4699 8.27543 32.5299C7.21543 32.5799 6.18542 32.2499 5.39542 31.5899C5.15542 31.3899 4.93542 31.1299 4.89542 30.5599C4.88542 30.0399 4.67546 29.7599 4.49546 29.6199C4.41546 29.5499 4.33543 29.5099 4.27543 29.4699L4.22544 29.4399L4.30546 29.3899C4.73546 29.1399 4.78541 28.3699 4.81541 27.8599C4.82541 27.7099 4.83543 27.5799 4.84544 27.4799L4.85544 27.4099L4.90543 27.4599C5.33543 27.9199 6.15541 27.9499 6.50541 27.9599C6.56541 27.9599 6.62545 27.9599 6.67545 27.9599C7.47545 27.9299 7.7454 27.4799 7.8754 27.2599C7.9254 27.1699 7.95546 27.1199 7.99546 27.1199C8.04546 27.1199 8.07545 27.1799 8.11545 27.3099C8.46546 28.4299 9.98543 29.2499 12.5254 29.6699C13.4654 29.8199 14.4355 29.8899 15.4255 29.8499C18.6455 29.7399 21.9354 28.6399 24.7054 26.7499C26.8154 25.2999 28.4255 23.4899 29.3655 21.4999C30.0855 19.9799 32.2554 14.6899 30.1654 10.5999C29.1354 8.58986 27.5655 7.21986 25.8655 6.82986C25.3855 6.71986 24.9154 6.67986 24.4154 6.68986H24.3854C23.8754 6.70986 23.3554 6.78986 22.7754 6.93986C22.1854 7.08986 21.6354 7.31986 21.1254 7.60986C20.4554 8.00986 19.9354 8.52986 19.4754 9.02986C19.4554 9.04986 19.4354 9.07986 19.4054 9.10986C19.3054 9.21986 19.1854 9.35986 19.0654 9.39986C19.0054 9.41986 18.9355 9.43986 18.8655 9.43986C18.8255 9.43986 18.7754 9.43986 18.7254 9.42986L18.6854 9.41986V9.40986C18.5354 9.36986 18.1054 9.15986 17.9054 8.23986L17.6654 0.19986L15.3055 0.259857L15.5854 8.46986C15.5854 8.48986 15.5954 10.8699 17.0054 12.1999C17.1354 12.3599 17.2654 12.4799 17.4054 12.5599C17.7854 12.7799 18.0154 13.2999 18.0354 14.0299C18.0754 15.2999 17.6554 16.5699 16.8354 17.5899C16.0354 18.5999 14.9055 19.3199 13.6755 19.6099C13.2155 19.7199 12.7455 19.8199 12.2455 19.9399C9.77546 20.4899 6.98545 21.1199 4.67545 22.3399C2.00545 23.7499 0.54543 25.6699 0.21543 28.2099C-0.0445699 30.1899 0.445418 32.0899 1.51542 33.2999C2.20542 34.0799 3.19544 34.6599 4.47544 35.0399C5.52544 35.3499 6.75542 35.5099 7.95542 35.4899H7.97544C8.03544 35.4899 8.09544 35.4899 8.16544 35.4899C9.49544 35.4399 10.8154 35.1199 12.0954 34.8099C12.2654 34.7699 12.4354 34.7299 12.6054 34.6899C12.7254 34.6599 12.8354 34.6299 12.9654 34.5999C13.4954 34.4499 14.1054 34.2899 14.6854 34.2799Z" fill="#BC546A"/>
<path opacity="0.8" d="M30.2155 10.5899C29.3355 8.87986 27.8354 7.23986 25.8954 6.79986C25.3954 6.68986 24.9154 6.64986 24.4354 6.65986C23.8854 6.67986 23.3455 6.75986 22.7855 6.90986C22.2055 7.05986 21.6554 7.27986 21.1354 7.58986C20.4854 7.96986 19.9855 8.46986 19.4755 9.00986C19.3755 9.11986 19.2254 9.31986 19.0754 9.36986C19.0154 9.38986 18.9454 9.39986 18.8854 9.40986C18.8454 9.40986 18.7954 9.39986 18.7554 9.38986L18.7654 9.37986C18.7654 9.37986 18.1955 9.29986 17.9655 8.22986L17.6954 0.169861L16.7755 0.189857L17.0455 8.18986C17.0455 8.18986 17.0855 9.36986 17.8555 9.80986C17.8555 9.80986 18.3355 10.2199 18.2255 10.6799C18.1155 11.1499 16.5855 12.0499 15.5355 8.46986C15.5355 8.46986 15.5355 10.8699 16.9755 12.2199C17.0955 12.3699 17.2254 12.4999 17.3754 12.5899C17.7554 12.8099 17.9655 13.3499 17.9955 14.0299C18.0355 15.2799 17.6255 16.4599 16.9255 17.4199C17.2655 17.1299 18.1054 16.3099 18.4354 14.9499C18.8554 13.2199 18.4855 9.87986 22.2355 9.13986C25.9855 8.38986 28.5655 13.2599 26.2355 19.1399C26.2355 19.1399 24.7654 23.0799 19.6954 25.3899C14.6154 27.6999 8.53548 26.1299 8.42548 23.4899C8.30548 20.8499 11.2654 20.1599 11.6354 20.0899C11.6854 20.0799 11.7355 20.0499 11.7855 20.0199C8.39546 20.7899 4.38548 21.7699 2.05548 24.2399C3.14548 23.2999 4.62544 22.2299 5.70544 22.1499C7.64544 21.9999 7.87544 25.3999 6.57544 26.0599C5.27544 26.7199 3.58548 25.1199 3.55548 24.9499C3.55548 24.9499 4.56543 29.4899 1.12543 30.0299C1.46543 29.9799 2.84548 29.8699 3.30548 31.0399C3.82548 32.3699 6.41545 34.5899 9.89545 33.4699C9.89545 33.4699 8.33542 33.9999 7.93542 34.7199C7.93542 34.7199 6.74547 33.6599 5.04547 34.1699C5.04547 34.1699 4.38543 32.6099 1.25543 33.0199C1.33543 33.1299 1.41543 33.2299 1.50543 33.3299C3.00543 35.0299 5.79546 35.5799 7.97546 35.5299C8.04546 35.5299 8.11548 35.5299 8.17548 35.5299C9.68548 35.4799 11.1654 35.0699 12.6254 34.7199C13.6754 34.4699 15.1255 33.9799 16.0955 34.6899C16.7755 35.1899 16.7054 36.1899 16.5754 36.9599C16.5654 37.0199 16.5555 37.0699 16.5455 37.1299C17.9655 37.0499 19.3755 36.9199 20.7955 36.8099C21.5755 36.5599 20.8654 34.5199 20.6954 34.0899C20.2754 33.0099 19.9454 32.3799 18.9554 31.7499C17.3954 30.7499 15.4555 30.7299 13.6755 31.0599C11.8455 31.3999 10.1655 32.4099 8.28546 32.4999C7.26546 32.5499 6.22548 32.2299 5.42548 31.5699C5.20548 31.3899 4.97543 31.1399 4.94543 30.5699C4.92543 30.0599 4.72546 29.7699 4.53546 29.5999C4.44546 29.5299 4.36548 29.4799 4.30548 29.4499L4.33545 29.4299C4.91545 29.0899 4.82545 27.9299 4.89545 27.4999C5.33545 27.9599 6.14544 27.9999 6.51544 28.0099C8.03544 28.0699 7.90546 26.7199 8.09546 27.3299C8.58546 28.9099 11.1555 29.4799 12.5355 29.7099C16.7355 30.4099 21.2555 29.1699 24.7455 26.7799C26.6855 25.4499 28.4055 23.6599 29.4155 21.5199C30.9155 18.3299 31.9155 13.8999 30.2155 10.5899Z" fill="#F4B6B0"/>
<path d="M15.4955 0.409843L15.7554 7.99985C15.7554 7.99985 15.8655 9.53984 16.9155 10.5798C16.9155 10.5798 15.9954 9.22984 15.9454 7.65984L15.7255 0.399841L15.4955 0.409843Z" fill="#F4B6B0"/>
<path d="M20.9155 10.0298C20.9155 10.0298 19.5154 10.4198 18.9454 13.4498C18.3754 16.4798 17.4055 19.6998 11.6055 20.2598C11.6055 20.2598 14.1754 20.5698 16.2054 19.0298C16.2054 19.0298 17.5955 18.0498 18.2355 16.6498C19.3955 14.1298 19.0255 11.6998 20.9155 10.0298Z" fill="#F4B6B0"/>
<path d="M3.89546 23.0499C3.89546 23.0499 -1.61455 26.7799 1.26545 32.6299C1.26545 32.6199 -1.37454 27.7599 3.89546 23.0499Z" fill="#F4B6B0"/>
<g opacity="0.2">
<path opacity="0.2" d="M14.0154 33.2499C14.0154 33.2499 10.9054 32.4199 9.63544 34.9199C9.55544 35.0799 9.47545 35.2399 9.39545 35.4099C10.4854 35.2499 11.5455 34.9699 12.6155 34.7099C13.6655 34.4599 15.1154 33.9699 16.0854 34.6799C16.7654 35.1799 16.6954 36.1799 16.5654 36.9499C16.5554 37.0099 16.5455 37.0599 16.5355 37.1199C17.9555 37.0399 19.3655 36.9099 20.7855 36.7999C21.5655 36.5499 20.8554 34.5099 20.6854 34.0799C20.2654 32.9999 19.9354 32.3699 18.9454 31.7399C18.1154 31.2099 17.1855 30.9599 16.2255 30.8799C15.9955 31.1699 15.7355 31.5899 15.6655 32.0999C15.6655 32.0999 14.2754 32.3099 14.0154 33.2499Z" fill="#F4B6B0"/>
</g>
</svg>
