<svg width="575" height="588" viewBox="0 0 575 588" fill="none" xmlns="http://www.w3.org/2000/svg">
<path d="M428.552 22.2664C371.866 67.8703 320.831 106.453 279.676 135.148C273.888 125.746 267.166 112.345 263.539 95.2885C259.079 74.3152 261.488 58.0901 260.087 57.9955C258.461 57.8848 253.965 79.7337 254.468 104.791C254.835 123.063 257.761 138.079 260.369 148.374C220.577 175.09 192.519 190.306 181.263 190.55C166.859 190.862 156.138 185.174 156.138 185.174C145.598 179.582 139.327 170.78 135.781 164.305C107.671 109.565 80.4146 55.3506 54.0015 1.71563C49.2438 0.489841 35.7395 -2.31601 20.6351 3.81295C9.89192 8.17266 3.2161 15.0726 0 18.9151C65.7952 148.424 131.932 277.752 198.412 406.895C229.434 467.158 260.528 527.379 291.695 587.558C294.903 587.534 312.183 587.085 325.748 573.052C337.934 560.445 338.936 545.352 339.077 541.652C315.417 499.74 291.755 457.173 268.124 413.952C244.486 370.726 220.872 326.838 197.305 282.301C192.698 270.063 188.092 257.826 183.483 245.588C180.46 237.557 183.726 228.546 191.175 224.286C224.547 205.203 259.333 183.024 294.605 157.264C298.733 160.457 304.386 164.221 311.597 167.391C326.102 173.769 341.587 175.416 342.233 173.385C342.722 171.845 334.376 169.16 321.809 160.731C315.413 156.439 310.227 152.204 306.248 148.65C336.191 126.163 366.412 101.059 396.347 72.9927C413.814 56.6166 430.162 40.1922 445.458 23.8765C439.825 23.3391 434.187 22.8039 428.552 22.2664Z" fill="#312B24"/>
<path d="M428.552 22.2664C371.866 67.8703 320.831 106.453 279.676 135.148C273.888 125.746 267.166 112.345 263.539 95.2885C259.079 74.3152 261.488 58.0901 260.087 57.9955C258.461 57.8848 253.965 79.7337 254.468 104.791C254.835 123.063 257.761 138.079 260.369 148.374C220.577 175.09 192.519 190.306 181.263 190.55C166.859 190.862 156.138 185.174 156.138 185.174C145.598 179.582 139.327 170.78 135.781 164.305C107.671 109.565 80.4146 55.3506 54.0015 1.71563C49.2438 0.489841 35.7395 -2.31601 20.6351 3.81295C9.89192 8.17266 3.2161 15.0726 0 18.9151C65.7952 148.424 131.932 277.752 198.412 406.895C229.43 467.15 260.524 527.371 291.695 587.558C294.903 587.534 312.183 587.085 325.748 573.052C337.934 560.445 338.936 545.352 339.077 541.652C315.417 499.74 291.755 457.173 268.124 413.952C244.486 370.726 220.872 326.838 197.305 282.301C192.698 270.063 188.092 257.826 183.483 245.588C180.46 237.557 183.726 228.546 191.175 224.286C224.547 205.203 259.333 183.024 294.605 157.264C298.733 160.457 304.386 164.221 311.597 167.391C326.102 173.769 341.587 175.416 342.233 173.385C342.722 171.845 334.376 169.16 321.809 160.731C315.413 156.439 310.227 152.204 306.248 148.65C336.191 126.163 366.412 101.059 396.347 72.9927C413.814 56.6166 430.162 40.1922 445.458 23.8765C439.825 23.3391 434.187 22.8039 428.552 22.2664Z" fill="url(#paint0_linear_3316_579100)"/>
<path d="M113.075 161.314C111.849 157.017 109.509 153.013 106.912 149.409C101.674 142.138 94.8691 136.182 89.3949 129.103C86.6779 125.591 84.2949 121.807 82.6668 117.663C80.7931 112.893 80.614 107.655 80.8474 102.597C81.0869 97.424 81.7853 92.2652 81.6907 87.0802C81.5981 82 80.3604 77.2135 77.9855 72.7189C75.7717 68.5283 72.8394 64.7948 70.0439 60.9906C67.6892 57.7862 65.1795 54.4188 63.817 50.6448C61.9836 45.5605 61.4462 39.818 61.6314 34.4459C61.7561 30.7806 62.1828 26.0223 64.4188 22.7576C60.9451 15.743 57.4472 8.71007 54.0016 1.71561C48.5798 0.350931 40.1128 -0.955211 30.225 0.975059C26.5722 1.68759 23.3642 2.71595 20.6351 3.81292C27.0452 15.944 35.8139 32.6061 46.1727 52.4804C52.4177 64.4606 63.0844 85.3031 72.4812 103.324C87.9921 133.071 102.497 163.325 116.887 193.628C116.255 186.798 115.961 179.936 115.212 173.117C114.778 169.14 114.174 165.163 113.075 161.314Z" fill="url(#paint1_linear_3316_579100)"/>
<path d="M121.626 181.822C119.809 168.62 117.42 155 110.992 143.159C109.319 140.077 107.156 137.587 104.642 135.158C101.943 132.547 99.0854 130.061 96.7609 127.096C94.547 124.274 93.0578 120.933 92.6473 117.346C92.1482 112.987 93.6132 108.772 94.863 104.664C95.5292 102.474 96.2376 100.203 96.3986 97.9088C96.5616 95.5961 96.5757 93.2614 96.5717 90.9426C96.5697 89.6142 96.5134 88.2858 96.4812 86.9573C86.0439 66.2155 75.7113 45.5421 65.5136 24.9592C65.3848 25.235 65.252 25.5125 65.1453 25.7843C63.2434 30.6895 63.3683 36.4623 63.9278 41.607C64.2035 44.1311 64.6623 46.6571 65.419 49.0845C66.4917 52.5264 68.6231 55.5698 70.7001 58.4762C76.0636 65.984 82.1113 73.1938 83.3853 82.672C84.7277 92.6575 81.4432 102.766 83.3471 112.711C85.0377 121.537 91.3672 128.765 97.2621 135.182C103.06 141.492 109.215 147.74 112.962 155.561C116.422 162.781 117.132 170.973 117.76 178.854C118.298 185.602 118.609 192.394 119.495 199.11C120.201 200.598 120.908 202.087 121.614 203.575C122.993 206.479 124.375 209.382 125.754 212.286C123.989 202.198 123.021 191.959 121.626 181.822Z" fill="url(#paint2_linear_3316_579100)"/>
<path d="M324.102 103.146C323.57 104.702 322.938 106.224 322.099 107.663C315.991 118.128 303.69 121.497 294.018 127.849C293.643 128.415 293.297 128.997 292.88 129.54C290.433 132.741 287.43 135.442 284.094 137.688C281.047 139.737 277.162 142.243 273.312 141.995C270.501 141.814 268.436 139.334 266.624 136.5C257.799 122.693 258.449 95.9991 258.803 85.6473C259.047 78.518 259.488 69.2208 260.339 58.3115C260.273 58.1283 260.194 58.0035 260.09 57.9975C258.463 57.8868 253.967 79.7357 254.47 104.793C254.837 123.065 257.763 138.08 260.371 148.376C249.777 155.487 240.046 161.757 231.211 167.173C232.336 166.807 233.479 166.485 234.657 166.239C238.442 165.448 242.31 165.159 246.114 164.464C249.906 163.772 254.416 162.675 257.324 159.986C259.912 157.593 261.633 154.358 263.851 151.643C264.978 150.262 266.22 148.885 267.749 147.945C269.45 146.898 271.217 145.963 273.014 145.093C280.539 141.448 288.533 138.881 296.078 135.283C299.633 133.588 303.05 131.607 306.562 129.824C309.849 128.157 313.151 126.511 316.345 124.669C322.735 120.99 328.503 116.387 332.303 109.962C335.781 104.08 336.815 97.0315 340.204 91.1481C334.722 95.2663 329.379 99.2417 324.102 103.146Z" fill="url(#paint3_linear_3316_579100)"/>
<path d="M296.715 123.103C296.551 123.456 296.346 123.79 296.173 124.138C296.942 123.689 297.721 123.252 298.504 122.825C303.97 119.845 309.82 117.276 314.638 113.259C317.297 111.043 319.37 108.442 320.867 105.538C312.547 111.671 304.467 117.554 296.715 123.103Z" fill="url(#paint4_linear_3316_579100)"/>
<path d="M164.247 191.285C166.968 192.651 170.055 191.446 172.643 190.035C166.513 189.195 161.628 187.529 158.813 186.377C160.338 188.398 162.117 190.214 164.247 191.285Z" fill="url(#paint5_linear_3316_579100)"/>
<path d="M139.116 182.064C140.402 187.046 142.269 192.114 145.667 196.069C149.261 200.256 154.282 202.561 159.728 203.138C163.323 203.519 167.131 203.406 170.649 202.552C174.706 201.568 178.447 199.664 182.149 197.788C185.735 195.971 189.35 194.133 193.208 192.955C196.218 192.038 199.42 191.905 202.463 191.112C205.096 190.425 207.346 188.97 209.528 187.386C212.701 185.081 214.768 181.698 216.918 178.491C218.15 176.652 219.442 174.894 220.943 173.322C201.958 184.369 188.315 190.397 181.265 190.55C179.466 190.588 177.725 190.534 176.055 190.409C174.895 191.122 173.71 191.778 172.484 192.353C168.924 194.022 165.249 194.62 161.886 192.191C159.175 190.23 156.989 187.499 155.162 184.594C145.518 179.149 139.583 171.07 136.107 164.869C136.143 165.104 136.193 165.336 136.225 165.573C136.978 171.098 137.719 176.654 139.116 182.064Z" fill="url(#paint6_linear_3316_579100)"/>
<path d="M394.771 49.1332C394.051 50.7213 393.23 52.2689 392.185 53.6598C391.04 55.1835 389.468 56.7696 387.433 56.834C386.733 56.8562 386.099 56.6771 385.511 56.3893C381.615 59.4306 377.743 62.4478 373.921 65.4066C377.264 65.0584 380.568 64.4063 383.783 63.3597C392.726 60.4451 400.358 54.5113 405.398 46.5688C407.283 43.5979 408.763 40.4257 409.942 37.1448C404.828 41.2107 399.779 45.1961 394.771 49.1332Z" fill="url(#paint7_linear_3316_579100)"/>
<path d="M428.552 22.2664C423.249 26.5315 418.01 30.7201 412.812 34.8584C412.723 35.1583 412.661 35.4642 412.566 35.7621C409.59 45.178 404.025 53.6942 395.941 59.481C388.651 64.7002 379.908 67.1497 371.049 67.6207C366.054 71.4772 361.111 75.2773 356.251 78.9849C356.542 78.8662 356.836 78.7414 357.128 78.6267C363.226 76.2455 369.62 74.7438 375.956 73.1497C379.421 72.2762 382.911 71.3503 386.333 70.2634C403.504 55.1513 420.335 39.6185 436.013 22.9747C433.527 22.7392 431.04 22.5039 428.552 22.2664Z" fill="url(#paint8_linear_3316_579100)"/>
<path d="M166.39 281.651C170.818 284.195 175.457 286.445 180.369 287.887C184.678 289.151 189.531 289.95 193.998 289.072C195.987 288.682 197.659 287.653 198.718 285.989C190.446 273.654 185.173 262.664 181.875 254.697C181.865 254.673 181.855 254.651 181.847 254.627C179.651 259.083 176.028 262.449 171.063 263.813C164.53 265.607 157.199 264.647 151.37 261.231C150.265 260.583 149.221 259.85 148.202 259.079C150.792 264.395 153.423 269.693 156.047 274.993C159.406 277.343 162.824 279.602 166.39 281.651Z" fill="url(#paint9_linear_3316_579100)"/>
<path d="M191.054 315.048C200.753 321.601 211.15 327.002 222.281 330.655C222.4 330.323 222.45 329.972 222.539 329.632C215.436 316.314 208.332 302.993 201.23 289.674C200.783 289.04 200.382 288.427 199.952 287.799C199.911 287.851 199.889 287.911 199.849 287.963C197.973 290.29 195.146 291.065 192.282 291.303C181.989 292.156 171.941 287.382 163.361 282.203C161.483 281.07 159.66 279.86 157.845 278.638C160.819 284.614 163.83 290.572 166.867 296.516C174.746 302.931 182.629 309.355 191.054 315.048Z" fill="url(#paint10_linear_3316_579100)"/>
<path d="M263.416 416.965C266.045 418.095 268.76 419.123 271.529 419.954C264.918 407.858 258.304 395.759 251.693 383.662C248.553 383.134 245.44 382.424 242.389 381.504C233.075 378.694 224.274 374.23 216.505 368.38C208.58 362.412 201.652 355.297 194.926 348.037C194.657 347.745 194.387 347.451 194.117 347.159C203.359 363.415 213.033 379.421 223.223 395.102C229.478 399.037 235.936 402.668 242.395 406.213C249.292 409.997 256.181 413.854 263.416 416.965Z" fill="url(#paint11_linear_3316_579100)"/>
<path d="M303.048 484.296C300.933 478.33 297.431 469.902 291.927 458.05C286.857 457.042 281.916 455.478 277.13 453.532C268.699 450.104 260.699 445.63 253.233 440.424C254.066 441.582 254.877 442.721 255.75 443.907C262.474 453.023 272.865 466.526 282.445 477.76C288.883 481.145 295.891 483.545 303.048 484.296Z" fill="url(#paint12_linear_3316_579100)"/>
<path d="M285.947 481.64C285.865 481.604 285.784 481.562 285.702 481.526C294.764 491.839 302.573 499.291 305.022 497.767C306.163 497.057 306.371 494.247 303.789 486.447C297.616 485.908 291.478 484.036 285.947 481.64Z" fill="url(#paint13_linear_3316_579100)"/>
<path d="M265.962 445.972C273.779 450.275 282.125 453.812 290.856 455.756C290.369 454.719 289.87 453.659 289.355 452.572C283.864 442.526 278.372 432.478 272.882 422.432C268.575 421.285 264.374 419.624 260.377 417.809C253.108 414.508 246.13 410.583 239.149 406.722C234.639 404.228 230.161 401.672 225.753 398.999C226.296 399.824 226.82 400.66 227.365 401.483C234.041 411.547 240.686 422.523 249.504 435.171C254.722 439.167 260.214 442.808 265.962 445.972Z" fill="url(#paint14_linear_3316_579100)"/>
<path d="M198.249 348.651C204.901 355.758 211.842 362.678 219.814 368.312C228.824 374.678 239.455 379.362 250.481 381.443C248.739 378.255 246.998 375.069 245.255 371.881C242.828 371.257 239.815 370.15 236.762 368.103C227.695 362.022 225.141 352.246 224.483 349.261C225.338 345.539 226.194 341.816 227.051 338.094C225.984 336.093 224.916 334.091 223.849 332.09C223.803 332.199 223.783 332.315 223.734 332.424C223.561 332.815 222.982 333.01 222.597 332.887C216.002 330.784 209.602 328.101 203.476 324.88C191.056 318.351 180.023 309.782 169.153 300.988C169.67 301.993 170.178 303.003 170.699 304.006C176.867 315.895 183.203 327.702 189.732 339.4C192.586 342.474 195.389 345.598 198.249 348.651Z" fill="url(#paint15_linear_3316_579100)"/>
<path d="M280.817 154.302C278.553 154.803 276.836 155.882 275.188 157.5C273.431 159.227 271.906 161.171 270.163 162.912C268.299 164.774 266.017 166.274 263.845 167.749C259.003 171.042 253.851 173.868 248.447 176.122C245.708 177.265 242.906 178.256 240.05 179.061C237.533 179.771 234.953 180.228 232.441 180.959C228.623 182.07 225.212 183.837 222.312 186.581C218.86 189.846 216.302 193.885 212.981 197.267C210.258 200.04 207.098 202.228 203.514 203.736C199.086 205.598 194.313 206.31 189.855 208.079C185.461 209.822 181.595 212.467 177.96 215.454C170.926 221.235 164.043 228.018 154.588 229.29C150.479 229.844 146.302 229.043 142.956 226.508C139.065 223.564 136.692 218.87 134.976 214.41C131.168 204.511 131.108 193.642 130.961 183.187C130.886 177.873 130.824 172.547 130.278 167.256C129.727 161.898 128.481 156.779 126.577 151.743C123.802 144.4 120.242 137.277 118.142 129.747C111.575 116.845 105.039 103.965 98.5721 91.1278C98.5721 93.1647 98.5399 95.2037 98.4413 97.2386C98.228 101.649 96.485 105.751 95.3822 109.978C94.2893 114.164 94.2672 118.335 96.1107 122.33C97.6141 125.587 100.279 128.193 102.829 130.647C105.397 133.119 108.112 135.49 110.306 138.314C112.248 140.814 113.658 143.761 114.942 146.639C120.399 158.875 122.421 172.306 124.124 185.492C125.599 196.916 126.716 208.478 129.284 219.727C134.354 230.393 139.442 241.051 144.588 251.68C146.602 253.85 148.808 255.869 151.273 257.661C151.755 258.011 151.787 258.566 151.59 258.993C152.199 259.377 152.817 259.748 153.455 260.086C158.988 262.998 166.251 263.588 172.13 261.346C176.57 259.651 179.216 256.241 180.814 252.131C175.394 238.943 172.184 229.824 176.535 222.934C180.444 216.744 190.307 212.572 193.218 211.342C196.591 209.919 200.036 208.677 203.407 207.248C207.078 205.692 210.526 203.796 213.949 201.757C221.517 197.248 228.865 192.384 236.182 187.484C243.409 182.648 250.687 177.889 257.936 173.083C267.188 166.948 276.261 160.545 285.211 153.975C283.736 153.927 282.252 153.984 280.817 154.302Z" fill="url(#paint16_linear_3316_579100)"/>
<path d="M367.72 77.3445C361.433 79.0554 355.138 81.1004 349.573 84.5684C346.407 86.541 343.767 88.8938 341.913 92.1727C339.997 95.5622 338.977 99.3462 337.685 102.995C335.151 110.157 331.053 116.421 325.1 121.195C319.298 125.851 312.523 129.025 305.938 132.392C302.313 134.246 298.793 136.277 295.076 137.95C291.18 139.705 287.197 141.253 283.234 142.847C279.336 144.415 275.441 146.023 271.724 147.994C269.927 148.946 268.19 149.906 266.761 151.377C265.405 152.774 264.256 154.346 263.125 155.926C261.015 158.871 259.065 161.656 255.801 163.397C252.315 165.255 248.469 166.157 244.591 166.745C236.689 167.942 228.053 168.546 222.229 174.778C219.613 177.578 217.801 181.022 215.515 184.075C213.37 186.939 210.828 189.147 207.767 190.999C205.629 192.291 203.369 193.048 200.924 193.501C197.267 194.177 193.725 194.725 190.257 196.152C182.666 199.276 175.767 204.3 167.392 205.125C161.302 205.725 154.814 205.133 149.47 201.92C140.118 196.297 137.214 184.705 135.537 174.667C134.585 168.965 134.189 163.23 132.21 157.756C131.955 157.049 131.645 156.363 131.367 155.664C129.795 152.597 128.246 149.541 126.678 146.476C128.374 150.534 129.95 154.634 130.951 158.927C133.317 169.08 132.802 179.635 133.104 189.977C133.404 200.32 134.45 211.066 139.985 220.082C142.362 223.952 145.854 226.925 150.509 227.394C154.771 227.823 159.05 226.406 162.777 224.442C171.041 220.086 176.942 212.401 185.214 208.025C193.012 203.899 202.409 203.748 209.342 197.913C212.879 194.938 215.43 191.112 218.473 187.682C221.062 184.763 224.012 182.205 227.597 180.595C232.062 178.588 236.949 177.972 241.592 176.507C247.133 174.758 252.438 172.326 257.455 169.406C262.118 166.69 266.814 163.705 270.444 159.674C272.062 157.878 273.63 155.996 275.55 154.509C277.146 153.273 279.04 152.549 281.029 152.22C283.246 151.854 285.505 151.888 287.753 152.124C292.07 148.928 296.364 145.705 300.619 142.428C316.796 129.967 332.474 116.888 347.973 103.595C348.927 101.524 349.985 99.5053 351.255 97.6032C354.24 93.1288 358.283 89.244 363.049 86.7119C365.631 85.3412 368.32 84.3509 371.073 83.5981C373.995 81.052 376.916 78.5059 379.838 75.9617C380.774 75.1465 381.706 74.3251 382.641 73.5059C377.664 74.8645 372.615 76.0121 367.72 77.3445Z" fill="url(#paint17_linear_3316_579100)"/>
<path d="M352.183 99.9759C357.176 95.6726 362.153 91.3533 367.127 87.0258C365.43 87.7082 363.786 88.5094 362.236 89.4936C358.092 92.1243 354.731 95.8055 352.183 99.9759Z" fill="url(#paint18_linear_3316_579100)"/>
<path d="M308.236 153.281C307.476 154.366 315.79 162.977 326.637 168.021C332.484 170.74 337.813 171.841 341.557 172.331C339.339 170.593 331.953 167.532 321.811 160.729C319.38 159.098 317.18 157.49 315.099 155.908C309.913 153.169 308.49 152.919 308.236 153.281Z" fill="url(#paint19_linear_3316_579100)"/>
<path d="M229.396 322.936C225.847 321.277 221.899 321.778 219.53 324.117C217.668 325.953 217.381 328.328 217.32 329.183C217.958 332.573 219.075 336.587 221.068 340.846C226.465 352.377 235.133 358.967 239.903 362.034C240.99 357.634 242.069 353.208 243.14 348.758C243.842 345.835 244.536 342.919 245.223 340.012C239.946 334.32 234.671 328.628 229.396 322.936Z" fill="#312B24"/>
<path d="M222.05 341.912C221.09 339.869 219.885 337.253 220.498 334.94C221.181 332.37 223.62 332.641 225.473 333.789C227.532 335.063 229.176 336.872 231.183 338.213C230.915 337.907 230.628 337.621 230.39 337.281C229.176 335.54 228.178 333.624 227.349 331.673C226.194 328.962 224.914 324.508 226.771 322.11C224.024 321.633 221.323 322.344 219.528 324.115C217.667 325.951 217.379 328.326 217.318 329.181C217.956 332.571 219.073 336.584 221.066 340.843C222.416 343.73 223.972 346.306 225.62 348.595C224.529 346.322 223.125 344.199 222.05 341.912Z" fill="url(#paint20_linear_3316_579100)"/>
<path d="M237.549 333.855C247.181 322.392 257.747 311.736 269.092 302.016C274.747 297.169 280.704 292.54 286.631 288.18C292.548 283.794 298.532 279.417 304.724 275.266C317.068 266.976 330.427 259.566 345.014 255.327C352.282 253.198 359.795 251.88 367.352 251.427C371.131 251.239 375.01 251.225 378.908 251.803C382.821 252.365 386.536 253.611 390.001 254.853C396.917 257.405 403.731 259.627 410.814 261.384C417.872 263.139 425.03 264.607 432.239 265.846C439.444 267.106 446.686 268.167 453.953 269.001C461.223 269.846 468.526 270.427 475.86 271.053C490.544 272.207 505.187 274.409 519.545 277.629C533.921 280.798 548.103 284.793 561.988 289.612C547.971 285.189 533.704 281.609 519.291 278.861C504.875 276.057 490.329 274.294 475.679 273.562C468.355 273.145 460.991 272.77 453.639 272.128C446.285 271.496 438.949 270.635 431.646 269.572C424.338 268.529 417.049 267.251 409.797 265.667C402.562 264.097 395.321 261.958 388.379 259.617C384.904 258.48 381.573 257.487 378.186 257.101C374.796 256.696 371.292 256.797 367.744 257.075C360.642 257.705 353.63 259.144 346.858 261.34C333.271 265.714 320.785 273.072 309.013 281.476C303.112 285.681 297.356 290.149 291.592 294.68C285.806 299.196 280.282 303.753 274.91 308.624C264.205 318.34 254.303 328.915 245.343 340.219C244.635 340.189 242.206 339.996 240.08 338.088C238.309 336.496 237.732 334.597 237.549 333.855Z" fill="#7F8E35"/>
<path d="M237.549 333.855C247.181 322.392 257.747 311.736 269.092 302.016C274.747 297.169 280.704 292.54 286.631 288.18C292.548 283.794 298.532 279.417 304.724 275.266C317.068 266.976 330.427 259.566 345.014 255.327C352.282 253.198 359.795 251.88 367.352 251.427C371.131 251.239 375.01 251.225 378.908 251.803C382.821 252.365 386.536 253.611 390.001 254.853C396.917 257.405 403.731 259.627 410.814 261.384C417.872 263.139 425.03 264.607 432.239 265.846C439.444 267.106 446.686 268.167 453.953 269.001C461.223 269.846 468.526 270.427 475.86 271.053C490.544 272.207 505.187 274.409 519.545 277.629C533.921 280.798 548.103 284.793 561.988 289.612C547.971 285.189 533.704 281.609 519.291 278.861C504.875 276.057 490.329 274.294 475.679 273.562C468.355 273.145 460.991 272.77 453.639 272.128C446.285 271.496 438.949 270.635 431.646 269.572C424.338 268.529 417.049 267.251 409.797 265.667C402.562 264.097 395.321 261.958 388.379 259.617C384.904 258.48 381.573 257.487 378.186 257.101C374.796 256.696 371.292 256.797 367.744 257.075C360.642 257.705 353.63 259.144 346.858 261.34C333.271 265.714 320.785 273.072 309.013 281.476C303.112 285.681 297.356 290.149 291.592 294.68C285.806 299.196 280.282 303.753 274.91 308.624C264.205 318.34 254.303 328.915 245.343 340.219C244.635 340.189 242.206 339.996 240.08 338.088C238.309 336.496 237.732 334.597 237.549 333.855Z" fill="url(#paint21_linear_3316_579100)"/>
<path d="M240.081 338.088C252.007 323.276 262.718 312.439 270.521 305.136C279.173 297.041 285.472 292.148 288.062 290.177C289.618 288.994 295.573 284.493 306.01 277.937C323.22 267.129 331.987 261.624 345.171 257.403C351.06 255.519 356.305 254.561 366.79 252.643C371.033 251.868 374.462 251.336 378.906 251.801C383.376 252.268 386.288 253.482 389.999 254.851C396.915 257.403 403.729 259.625 410.811 261.382C417.87 263.137 425.028 264.605 432.237 265.845C439.442 267.105 446.684 268.165 453.951 268.999C461.221 269.844 468.524 270.426 475.858 271.052C490.542 272.205 505.185 274.407 519.543 277.628C533.919 280.796 548.101 284.791 561.986 289.61C547.969 285.188 533.702 281.607 519.289 278.859C504.873 276.056 490.326 274.292 475.677 273.56C468.353 273.143 460.989 272.769 453.637 272.127C446.283 271.495 438.947 270.633 431.644 269.57C424.336 268.528 417.046 267.25 409.795 265.666C402.56 264.096 395.319 261.956 388.377 259.615C384.902 258.478 381.571 257.485 378.184 257.099C374.794 256.694 371.291 256.795 367.742 257.073C360.64 257.703 353.628 259.142 346.856 261.34C333.269 265.714 320.783 273.073 309.011 281.476C303.11 285.681 297.354 290.149 291.59 294.68C285.804 299.197 280.28 303.753 274.908 308.624C264.203 318.34 254.301 328.915 245.341 340.219C244.621 340.187 243.49 340.044 242.242 339.485C241.276 339.052 240.559 338.511 240.081 338.088Z" fill="url(#paint22_linear_3316_579100)"/>
<path d="M574.857 299.094C575.682 298.27 572.876 292.828 568.064 289.478C561.507 284.915 552.829 285.356 552.507 286.61C552.296 287.427 555.729 288.253 564.093 293.033C571.606 297.328 574.213 299.736 574.857 299.094Z" fill="#7F8E35"/>
<path d="M536.018 281.704C536.564 282.169 537.862 279.375 542.036 275.74C549.299 269.415 555.808 268.79 555.369 267.503C554.95 266.282 548.466 265.068 543.43 267.831C536.694 271.527 535.111 280.931 536.018 281.704Z" fill="#7F8E35"/>
<path d="M535.805 281.989C536.103 282.672 539.464 280.953 546.629 280.009C559.096 278.364 566.839 281.204 567.221 279.874C567.584 278.612 561.121 274.214 553.58 273.966C543.495 273.634 535.312 280.858 535.805 281.989Z" fill="#67682B"/>
<path d="M504.565 275.174C505.113 275.639 506.409 272.846 510.583 269.21C517.846 262.886 524.355 262.26 523.916 260.974C523.498 259.752 517.011 258.538 511.978 261.302C505.241 264.996 503.658 274.402 504.565 275.174Z" fill="#7F8E35"/>
<path d="M504.352 275.458C504.65 276.14 508.011 274.421 515.176 273.477C527.644 271.833 535.386 274.673 535.768 273.342C536.131 272.08 529.668 267.682 522.127 267.435C512.042 267.104 503.859 274.326 504.352 275.458Z" fill="#67682B"/>
<path d="M477.541 270.712C478.321 271.376 480.173 267.387 486.13 262.2C496.495 253.174 505.787 252.281 505.159 250.445C504.561 248.7 495.306 246.969 488.119 250.912C478.505 256.185 476.244 269.609 477.541 270.712Z" fill="#7F8E35"/>
<path d="M477.237 271.118C477.661 272.091 482.459 269.639 492.685 268.29C510.478 265.945 521.53 269.995 522.075 268.099C522.592 266.298 513.368 260.019 502.607 259.667C488.211 259.194 476.532 269.504 477.237 271.118Z" fill="#67682B"/>
<path d="M443.788 268.53C444.703 269.502 446.881 263.669 453.881 256.087C466.061 242.893 476.977 241.587 476.238 238.902C475.538 236.351 464.66 233.822 456.215 239.584C444.923 247.295 442.266 266.918 443.788 268.53Z" fill="#7F8E35"/>
<path d="M443.431 269.124C443.93 270.545 449.568 266.962 461.585 264.992C482.493 261.562 495.478 267.483 496.118 264.712C496.726 262.079 485.889 252.901 473.244 252.383C456.328 251.695 442.604 266.763 443.431 269.124Z" fill="#67682B"/>
<path d="M411.765 261.904C412.681 262.876 414.859 257.043 421.859 249.461C434.039 236.267 444.955 234.96 444.218 232.275C443.518 229.725 432.64 227.195 424.195 232.958C412.899 240.669 410.244 260.291 411.765 261.904Z" fill="#7F8E35"/>
<path d="M411.409 262.498C411.908 263.919 417.546 260.336 429.563 258.366C450.471 254.936 463.457 260.857 464.097 258.086C464.704 255.453 453.867 246.274 441.222 245.757C424.306 245.069 410.582 260.137 411.409 262.498Z" fill="#67682B"/>
<path d="M384.284 253.122C385.199 254.094 387.377 248.261 394.377 240.679C406.557 227.485 417.473 226.179 416.737 223.494C416.036 220.944 405.158 218.414 396.713 224.176C385.419 231.887 382.762 251.51 384.284 253.122Z" fill="#7F8E35"/>
<path d="M383.928 253.716C384.427 255.137 390.064 251.554 402.081 249.583C422.99 246.153 435.975 252.075 436.615 249.304C437.223 246.671 426.385 237.492 413.74 236.975C396.824 236.287 383.1 251.355 383.928 253.716Z" fill="#67682B"/>
<path d="M345.868 255.362C347.045 255.992 347.258 249.772 351.489 240.359C358.851 223.98 368.789 219.275 367.237 216.964C365.762 214.768 354.644 215.823 348.468 223.968C340.202 234.866 343.911 254.316 345.868 255.362Z" fill="#7F8E35"/>
<path d="M345.719 256.039C346.643 257.228 350.851 252.041 361.62 246.357C380.359 236.468 394.552 237.96 394.278 235.13C394.019 232.439 380.828 227.177 368.674 230.702C352.415 235.416 344.183 254.062 345.719 256.039Z" fill="#67682B"/>
<path d="M311.905 272.769C313.512 272.724 310.03 265.857 308.846 253.055C306.789 230.78 314.373 219.552 311.374 218.009C308.524 216.541 297.534 224.542 295.925 237.174C293.778 254.072 309.237 272.843 311.905 272.769Z" fill="#7F8E35"/>
<path d="M312.151 273.594C313.825 274.313 315.134 266.098 323.007 253.299C336.704 231.03 352.427 223.888 350.454 220.99C348.581 218.236 331.661 220.678 321.055 231.996C306.87 247.132 309.372 272.401 312.151 273.594Z" fill="#67682B"/>
<path d="M568.063 289.479C561.703 285.053 553.369 285.339 552.58 286.502C547.468 284.88 542.313 283.388 537.135 281.985C538.735 281.617 541.8 280.645 546.63 280.009C559.098 278.364 566.841 281.204 567.223 279.876C567.586 278.614 561.123 274.214 553.582 273.966C547.826 273.777 542.698 276.047 539.441 278.243C540.154 277.485 541.007 276.639 542.038 275.742C549.301 269.417 555.81 268.791 555.371 267.505C554.952 266.283 548.466 265.07 543.432 267.833C537.024 271.35 535.284 280.019 535.912 281.518C535.891 281.561 535.863 281.607 535.849 281.645C530.443 280.202 525.016 278.837 519.547 277.634C515.959 276.828 512.352 276.086 508.73 275.409C508.166 275.305 507.597 275.226 507.033 275.124C508.806 274.661 511.475 273.97 515.18 273.483C527.648 271.839 535.39 274.679 535.773 273.348C536.135 272.086 529.672 267.688 522.131 267.441C522.063 267.439 521.997 267.445 521.928 267.443C521.498 266.601 520.129 265.4 518.082 264.184C521.741 262.332 524.194 261.783 523.919 260.978C523.5 259.756 517.016 258.542 511.98 261.306C511.938 261.328 511.901 261.358 511.861 261.38C509.082 260.452 505.92 259.782 502.609 259.673C499.428 259.569 496.39 260.012 493.579 260.75C492.816 260.044 491.894 259.305 490.85 258.572C499.142 252.9 505.693 252.003 505.161 250.451C504.566 248.706 495.308 246.975 488.121 250.918C486.309 251.912 484.762 253.194 483.448 254.629C480.344 253.414 476.874 252.54 473.246 252.391C469.156 252.224 465.26 252.991 461.704 254.265C460.814 253.422 459.691 252.532 458.399 251.654C468.625 242.551 476.889 241.254 476.244 238.907C475.544 236.357 464.666 233.827 456.221 239.59C453.368 241.538 451.069 244.247 449.246 247.232C446.726 246.433 444.025 245.878 441.222 245.763C439.068 245.674 436.969 245.848 434.944 246.212C433.765 244.948 432.016 243.525 429.849 242.172C438.396 235.63 444.79 234.354 444.22 232.281C443.52 229.731 432.642 227.201 424.197 232.964C422.293 234.264 420.653 235.92 419.218 237.754C417.451 237.345 415.62 237.06 413.74 236.983C404.086 236.589 395.484 241.329 390.022 245.908C391.217 244.324 392.65 242.559 394.379 240.685C406.559 227.491 417.475 226.184 416.737 223.499C416.036 220.949 405.158 218.419 396.713 224.182C393.862 226.128 391.565 228.835 389.742 231.818C384.791 229.824 376.525 228.429 368.672 230.705C359.392 233.396 352.739 240.622 349.013 246.699C349.643 244.817 350.442 242.689 351.489 240.363C358.851 223.985 368.789 219.279 367.237 216.968C365.921 215.007 356.929 215.654 350.617 221.605C350.631 221.384 350.581 221.179 350.454 220.995C348.581 218.242 331.661 220.683 321.055 232.001C312.968 240.63 310.307 252.548 310.026 261.425C309.565 259.005 309.134 256.215 308.844 253.061C306.787 230.786 314.371 219.558 311.372 218.015C308.522 216.547 297.532 224.548 295.924 237.18C294.072 251.749 305.29 267.678 310.132 271.756C308.309 272.909 306.502 274.079 304.721 275.275C298.53 279.425 292.546 283.805 286.627 288.189C280.7 292.546 274.743 297.178 269.088 302.025C257.745 311.745 247.177 322.4 237.545 333.863C237.73 334.608 238.305 336.504 240.077 338.096C240.368 338.358 240.664 338.581 240.96 338.78C240.976 338.791 240.996 338.801 241.012 338.813C241.387 339.062 241.759 339.262 242.123 339.431C242.166 339.451 242.194 339.475 242.238 339.493C242.278 339.511 242.312 339.519 242.353 339.537C242.548 339.62 242.735 339.69 242.922 339.755C243.021 339.789 243.12 339.829 243.216 339.857C243.47 339.934 243.709 339.996 243.935 340.044C244.033 340.064 244.122 340.079 244.214 340.095C244.367 340.123 244.51 340.147 244.641 340.163C244.712 340.171 244.774 340.179 244.84 340.185C245.044 340.206 245.223 340.222 245.339 340.226C254.299 328.922 264.201 318.349 274.906 308.631C280.278 303.758 285.802 299.203 291.589 294.686C297.353 290.155 303.108 285.685 309.009 281.482C320.781 273.079 333.265 265.72 346.854 261.346C353.628 259.15 360.638 257.711 367.742 257.079C371.291 256.801 374.795 256.701 378.184 257.105C381.571 257.492 384.9 258.484 388.375 259.621C395.317 261.964 402.558 264.102 409.793 265.672C417.045 267.258 424.334 268.534 431.642 269.577C438.948 270.639 446.283 271.501 453.635 272.133C460.987 272.775 468.351 273.151 475.675 273.566C483.001 273.932 490.3 274.556 497.57 275.438C504.839 276.319 512.081 277.462 519.288 278.863C526.495 280.238 533.664 281.82 540.786 283.612C544.346 284.507 547.894 285.455 551.428 286.456C551.793 286.558 552.151 286.677 552.515 286.78C552.787 287.559 556.295 288.579 564.09 293.034C571.605 297.329 574.211 299.738 574.853 299.096C575.68 298.271 572.877 292.828 568.063 289.479ZM515.705 268.214C512.63 269.035 509.961 270.381 507.987 271.712C508.7 270.953 509.553 270.108 510.583 269.21C511.131 268.733 511.672 268.298 512.21 267.884C513.487 267.988 514.661 268.105 515.705 268.214ZM506.204 267.568C504.69 270.543 504.189 273.491 504.378 274.671C495.736 273.181 487.03 272.042 478.297 271.287C480.248 270.985 484.881 269.319 492.687 268.29C497.781 267.62 502.302 267.481 506.204 267.568ZM482.423 265.77C482.854 265.313 483.335 264.824 483.842 264.325C484.112 264.351 484.367 264.377 484.629 264.405C483.842 264.856 483.103 265.313 482.423 265.77ZM452.395 257.757C453.003 257.82 453.591 257.884 454.155 257.948C452.436 259.027 450.884 260.171 449.524 261.31C450.357 260.207 451.311 259.013 452.395 257.757ZM421.859 249.461C422.086 249.215 422.309 249 422.535 248.762C423.825 248.863 425.024 248.981 426.15 249.108C422.795 250.718 419.856 252.709 417.501 254.682C418.695 253.1 420.128 251.334 421.859 249.461ZM323.007 253.299C332.247 238.277 342.386 230.154 347.415 225.559C340.917 236.088 343.674 252.542 345.57 255.048C345.568 255.092 345.562 255.141 345.562 255.183C345.381 255.235 345.196 255.273 345.012 255.328C334.454 258.397 324.546 263.139 315.192 268.662C316.714 265.094 319.014 259.79 323.007 253.299ZM367.35 251.425C361.322 251.785 355.331 252.721 349.46 254.154C351.968 252.298 355.842 249.404 361.618 246.355C371.975 240.888 380.927 238.905 386.832 237.74C384.191 244.433 383.505 250.958 384.099 252.727C384.089 252.751 384.079 252.776 384.07 252.8C382.513 252.359 380.862 252.007 378.906 251.801C375.01 251.226 371.13 251.24 367.35 251.425ZM390.002 254.853C388.802 254.41 387.687 253.987 386.574 253.597C389.374 252.743 394.429 250.839 402.081 249.583C406.247 248.901 410.081 248.597 413.583 248.514C411.552 254.472 411.047 259.919 411.582 261.511C411.576 261.525 411.57 261.541 411.564 261.555C411.315 261.495 411.061 261.447 410.812 261.384C403.729 259.627 396.915 257.405 390.002 254.853ZM414.533 262.23C417.413 261.318 422.322 259.553 429.561 258.365C435.325 257.419 440.459 257.198 444.925 257.296C443.609 261.883 443.212 265.873 443.494 267.638C439.732 267.095 435.979 266.501 432.236 265.847C426.288 264.822 420.387 263.596 414.533 262.23ZM453.953 269.001C452.088 268.787 450.23 268.516 448.368 268.272C451.339 267.31 455.69 265.957 461.585 264.991C467.884 263.959 473.447 263.782 478.187 263.953C477.213 267.028 477.021 269.572 477.386 270.444C477.247 270.726 477.172 270.969 477.237 271.12C477.251 271.152 477.283 271.171 477.305 271.195C476.822 271.154 476.343 271.094 475.86 271.056C468.526 270.428 461.223 269.846 453.953 269.001Z" fill="url(#paint23_linear_3316_579100)"/>
<path d="M230.247 331.856C235.48 315.651 241.35 303.061 245.981 294.251C251.578 283.608 255.797 277.881 257.745 275.098C262.102 268.872 267.109 262.836 273.234 257.92C285.402 247.881 301.446 243.29 316.796 244.113C324.502 244.451 332.037 246.125 339.234 248.565C346.401 251.035 353.364 254.35 359.607 258.778C365.877 263.166 371.303 268.647 375.919 274.6C380.56 280.556 384.437 286.979 387.969 293.523C395.045 306.616 400.604 320.458 404.969 334.614C413.677 362.974 417.097 392.675 416.787 422.132C416.261 392.677 411.991 363.196 402.574 335.385C397.857 321.505 391.986 308.015 384.672 295.36C377.429 282.748 368.698 270.758 356.762 262.93C350.855 258.985 344.288 256.085 337.467 253.945C330.656 251.852 323.608 250.503 316.566 250.401C302.531 250.068 288.481 254.62 278.068 263.717C267.522 272.783 260.607 285.61 253.677 298.528C246.829 311.157 241.864 324.675 238.879 338.642C238.227 338.642 234.812 338.571 232.312 335.868C230.927 334.364 230.436 332.718 230.247 331.856Z" fill="#7F8E35"/>
<path d="M230.247 331.856C235.48 315.651 241.35 303.061 245.981 294.251C251.578 283.608 255.797 277.881 257.745 275.098C262.102 268.872 267.109 262.836 273.234 257.92C285.402 247.881 301.446 243.29 316.796 244.113C324.502 244.451 332.037 246.125 339.234 248.565C346.401 251.035 353.364 254.35 359.607 258.778C365.877 263.166 371.303 268.647 375.919 274.6C380.56 280.556 384.437 286.979 387.969 293.523C395.045 306.616 400.604 320.458 404.969 334.614C413.677 362.974 417.097 392.675 416.787 422.132C416.261 392.677 411.991 363.196 402.574 335.385C397.857 321.505 391.986 308.015 384.672 295.36C377.429 282.748 368.698 270.758 356.762 262.93C350.855 258.985 344.288 256.085 337.467 253.945C330.656 251.852 323.608 250.503 316.566 250.401C302.531 250.068 288.481 254.62 278.068 263.717C267.522 272.783 260.607 285.61 253.677 298.528C246.829 311.157 241.864 324.675 238.879 338.642C238.227 338.642 234.812 338.571 232.312 335.868C230.927 334.364 230.436 332.718 230.247 331.856Z" fill="url(#paint24_linear_3316_579100)"/>
<path d="M232.314 335.864C236.907 319.442 242.886 306.682 247.761 297.794C249.604 294.433 253.994 286.691 260.746 277.479C267.071 268.846 270.235 264.528 274.359 261.01C287.95 249.41 304.882 248.156 317.199 247.244C324.118 246.733 330.786 246.298 339.236 248.565C348.788 251.125 355.309 255.767 359.61 258.778C365.879 263.166 371.305 268.647 375.922 274.601C380.563 280.556 384.439 286.979 387.971 293.523C395.047 306.616 400.606 320.458 404.971 334.614C413.68 362.974 417.099 392.675 416.789 422.132C416.264 392.677 411.993 363.196 402.576 335.385C397.859 321.505 391.988 308.015 384.674 295.36C377.431 282.748 368.701 270.758 356.764 262.93C350.857 258.985 344.29 256.085 337.469 253.945C330.659 251.852 323.611 250.503 316.569 250.401C302.533 250.068 288.483 254.62 278.07 263.717C267.524 272.783 260.609 285.61 253.68 298.529C246.831 311.157 241.866 324.675 238.881 338.642C238.114 338.646 236.788 338.557 235.299 337.925C233.823 337.293 232.843 336.416 232.314 335.864Z" fill="url(#paint25_linear_3316_579100)"/>
<path d="M418.814 443.774C417.123 449.027 413.561 454.421 411.951 453.938C410.26 453.415 411.005 446.451 411.448 442.244C412.052 436.588 414.064 423.263 416.459 422.197C416.58 422.176 416.68 422.156 416.781 422.136C419.055 422.217 422.074 433.649 418.814 443.774Z" fill="#7F8E35"/>
<path d="M245.551 289.197L242.341 284.082C241.594 284.551 240.876 285.063 240.181 285.602C240.717 283.334 241.252 281.063 241.807 278.819L235.947 277.366C234.679 282.48 233.475 287.681 232.328 292.872C231.751 291.64 231.103 290.439 230.378 289.283L225.262 292.492C226.486 294.442 227.458 296.54 228.152 298.727C228.985 301.354 229.412 304.088 229.426 306.851C228.212 313.01 227.055 319.192 226.031 325.355L231.986 326.343C233.413 317.753 235.069 309.116 236.86 300.587C237.947 297.212 239.773 294.191 242.18 291.846C243.196 290.853 244.331 289.962 245.551 289.197Z" fill="#312B24"/>
<path d="M244.402 287.367C243.715 286.272 243.027 285.177 242.341 284.082C241.983 284.304 241.614 284.547 241.242 284.817C240.03 285.69 239.058 286.62 238.285 287.486C238.789 285.737 239.306 283.974 239.837 282.2C240.199 280.993 240.564 279.793 240.93 278.604C239.27 278.191 237.607 277.78 235.947 277.368C235.319 279.914 234.701 282.488 234.093 285.093C233.286 288.547 232.519 291.964 231.787 295.342C231.68 294.569 231.406 293.339 230.623 292.045C230.112 291.2 229.537 290.58 229.072 290.153C227.802 290.932 226.532 291.713 225.262 292.492C226.204 293.993 227.313 296.085 228.152 298.727C228.999 301.4 229.297 303.776 229.39 305.557C230.016 305.275 230.76 304.818 231.336 304.047C232.547 302.427 232.262 300.426 232.34 300.43C232.419 300.434 232.845 302.457 231.837 304.399C231.157 305.712 230.096 306.465 229.424 306.851C228.818 309.89 228.231 312.974 227.655 316.102C227.085 319.188 226.54 322.273 226.029 325.357C226.178 325.612 227.045 327.042 228.728 327.344C229.392 327.462 229.961 327.366 230.336 327.263C231.171 322.613 232.071 317.883 233.041 313.077C233.96 308.52 234.914 304.051 235.894 299.671C236.148 298.005 236.923 294.515 239.676 291.244C241.333 289.275 243.128 288.072 244.402 287.367Z" fill="url(#paint26_linear_3316_579100)"/>
<path d="M415.976 438.158C415.03 444.418 413.48 449.732 411.951 453.938C410.26 453.415 411.005 446.451 411.448 442.244C412.052 436.588 414.064 423.263 416.459 422.197C416.58 422.176 416.68 422.156 416.781 422.136C417.002 426.544 416.902 431.999 415.976 438.158Z" fill="#67682B"/>
<path d="M409.999 425.256C406.195 430.932 399.614 438.299 397.722 437.172C395.85 436.065 398.507 426.605 403.599 419.379C407.966 413.159 414.829 407.644 416.499 408.872C418.29 410.18 414.084 419.198 409.999 425.256Z" fill="#7F8E35"/>
<path d="M409.999 425.256C406.195 430.932 399.614 438.299 397.722 437.172C400.54 432.643 403.478 428.033 406.577 423.344C409.898 418.332 413.199 413.501 416.499 408.872C418.291 410.18 414.084 419.198 409.999 425.256Z" fill="#67682B"/>
<path d="M407.213 410.331C402.623 417.183 394.679 426.073 392.395 424.715C390.134 423.378 393.343 411.96 399.487 403.238C404.758 395.73 413.042 389.074 415.058 390.555C417.222 392.135 412.144 403.019 407.213 410.331Z" fill="#7F8E35"/>
<path d="M407.213 410.331C402.622 417.183 394.679 426.073 392.394 424.715C395.796 419.248 399.342 413.685 403.083 408.024C407.092 401.976 411.075 396.145 415.06 390.557C417.222 392.135 412.144 403.019 407.213 410.331Z" fill="#67682B"/>
<path d="M401.491 386.715C395.906 393.567 386.246 402.457 383.469 401.099C380.721 399.762 384.62 388.344 392.097 379.622C398.509 372.114 408.583 365.458 411.035 366.939C413.663 368.518 407.489 379.403 401.491 386.715Z" fill="#7F8E35"/>
<path d="M401.491 386.715C395.906 393.567 386.246 402.457 383.469 401.099C387.604 395.632 391.92 390.068 396.468 384.408C401.342 378.36 406.189 372.529 411.033 366.941C413.663 368.517 407.489 379.403 401.491 386.715Z" fill="#67682B"/>
<path d="M396.559 364.073C390.386 370.414 379.524 378.097 376.159 375.961C372.83 373.86 376.731 362.072 385.02 354.084C392.129 347.202 403.619 342.091 406.607 344.289C409.811 346.634 403.192 357.314 396.559 364.073Z" fill="#7F8E35"/>
<path d="M396.559 364.073C390.386 370.413 379.524 378.096 376.159 375.961C380.708 370.83 385.457 365.633 390.483 360.379C395.866 354.77 401.23 349.393 406.607 344.289C409.811 346.634 403.192 357.314 396.559 364.073Z" fill="#67682B"/>
<path d="M389.327 339.01C383.948 346.035 374.07 354.949 370.478 353.226C366.923 351.531 369.403 339.368 376.69 330.455C382.935 322.783 393.741 316.348 396.967 318.177C400.425 320.126 395.114 331.514 389.327 339.01Z" fill="#7F8E35"/>
<path d="M389.327 339.01C383.948 346.035 374.07 354.949 370.478 353.226C374.386 347.594 378.49 341.87 382.857 336.061C387.54 329.854 392.229 323.882 396.965 318.178C400.425 320.126 395.113 331.514 389.327 339.01Z" fill="#67682B"/>
<path d="M374.732 311.13C369.353 318.155 359.475 327.07 355.882 325.347C352.328 323.652 354.808 311.489 362.095 302.576C368.34 294.903 379.144 288.468 382.372 290.298C385.83 292.246 380.518 303.635 374.732 311.13Z" fill="#7F8E35"/>
<path d="M374.732 311.13C369.353 318.155 359.475 327.069 355.882 325.346C359.791 319.714 363.895 313.99 368.262 308.181C372.945 301.974 377.634 296.002 382.37 290.298C385.83 292.246 380.518 303.634 374.732 311.13Z" fill="#67682B"/>
<path d="M356.484 286.806C351.104 293.83 341.227 302.745 337.634 301.022C334.08 299.327 336.559 287.164 343.847 278.251C350.092 270.578 360.896 264.144 364.124 265.973C367.581 267.922 362.27 279.31 356.484 286.806Z" fill="#7F8E35"/>
<path d="M356.484 286.806C351.104 293.83 341.227 302.745 337.634 301.022C341.543 295.39 345.646 289.666 350.013 283.857C354.697 277.649 359.386 271.677 364.122 265.973C367.581 267.922 362.27 279.31 356.484 286.806Z" fill="#67682B"/>
<path d="M425.918 424.809C430.519 429.861 438.116 436.175 439.819 434.78C441.507 433.41 437.482 424.445 431.378 418.05C426.139 412.543 418.538 408.103 417.067 409.564C415.491 411.122 420.981 419.419 425.918 424.809Z" fill="#7F8E35"/>
<path d="M425.918 424.809C430.519 429.861 438.116 436.175 439.819 434.78C436.363 430.717 432.777 426.593 429.019 422.412C424.994 417.946 421.017 413.656 417.069 409.564C415.491 411.122 420.981 419.419 425.918 424.809Z" fill="#67682B"/>
<path d="M429.404 407.095C435.908 412.165 446.235 418.125 447.978 416.118C449.705 414.142 443.087 404.301 434.522 397.94C427.166 392.459 417.216 388.73 415.764 390.769C414.205 392.943 422.432 401.692 429.404 407.095Z" fill="#7F8E35"/>
<path d="M429.404 407.095C435.908 412.165 446.235 418.125 447.978 416.118C443.037 411.99 437.929 407.817 432.604 403.611C426.904 399.12 421.295 394.829 415.764 390.769C414.205 392.943 422.432 401.692 429.404 407.095Z" fill="#67682B"/>
<path d="M425.809 382.715C432.806 388.114 444.24 394.569 446.635 392.612C449.006 390.684 442.608 380.455 433.342 373.668C425.388 367.819 414.061 363.634 412.012 365.637C409.809 367.772 418.302 376.963 425.809 382.715Z" fill="#7F8E35"/>
<path d="M425.809 382.715C432.807 388.114 444.241 394.569 446.635 392.612C441.363 388.232 435.894 383.798 430.175 379.324C424.05 374.545 418.003 369.972 412.011 365.635C409.809 367.772 418.302 376.963 425.809 382.715Z" fill="#67682B"/>
<path d="M423.334 360.45C431.124 364.645 443.792 368.715 446.36 365.669C448.903 362.664 441.648 352.592 431.342 347.459C422.497 343.029 410.002 341.6 407.811 344.593C405.46 347.793 414.98 355.994 423.334 360.45Z" fill="#7F8E35"/>
<path d="M423.334 360.45C431.125 364.645 443.792 368.715 446.36 365.669C440.483 362.139 434.391 358.606 428.021 355.104C421.202 351.368 414.474 347.85 407.811 344.593C405.46 347.793 414.98 355.994 423.334 360.45Z" fill="#67682B"/>
<path d="M419.061 325.764C427.904 326.035 441.055 324.015 441.993 320.142C442.926 316.318 431.934 310.549 420.422 310.563C410.528 310.553 398.714 314.858 398.09 318.516C397.414 322.429 409.596 325.51 419.061 325.764Z" fill="#7F8E35"/>
<path d="M419.061 325.763C427.905 326.035 441.055 324.014 441.993 320.142C435.158 319.61 428.13 319.174 420.867 318.886C413.096 318.592 405.507 318.451 398.09 318.516C397.414 322.428 409.596 325.51 419.061 325.763Z" fill="#67682B"/>
<path d="M404.466 298.21C413.309 298.482 426.46 296.461 427.397 292.589C428.331 288.764 417.338 282.996 405.826 283.01C395.933 283 384.119 287.305 383.495 290.962C382.819 294.875 395.001 297.957 404.466 298.21Z" fill="#7F8E35"/>
<path d="M404.466 298.21C413.309 298.482 426.459 296.461 427.397 292.589C420.563 292.057 413.535 291.62 406.271 291.333C398.501 291.039 390.911 290.898 383.495 290.962C382.819 294.875 395.001 297.957 404.466 298.21Z" fill="#67682B"/>
<path d="M386.218 273.562C395.061 273.833 408.211 271.812 409.149 267.94C410.083 264.115 399.09 258.347 387.578 258.361C377.685 258.351 365.871 262.656 365.247 266.313C364.573 270.226 376.753 273.308 386.218 273.562Z" fill="#7F8E35"/>
<path d="M386.218 273.562C395.061 273.834 408.211 271.813 409.149 267.94C402.315 267.408 395.287 266.972 388.023 266.684C380.253 266.39 372.661 266.249 365.247 266.313C364.573 270.226 376.753 273.308 386.218 273.562Z" fill="#67682B"/>
<path d="M342.819 253.726C342.778 253.887 342.738 254.028 342.698 254.169C341.712 255.779 336.016 252.478 317.198 247.244C300.152 242.534 293.108 241.991 292.061 240.441C291.961 240.3 291.921 240.159 291.921 239.998C291.88 237.18 306.009 232.209 319.453 235.631C333.118 239.113 343.161 250.505 342.819 253.726Z" fill="#7F8E35"/>
<path d="M342.819 253.726C342.778 253.887 342.738 254.028 342.698 254.169C341.712 255.779 336.016 252.478 317.198 247.244C300.152 242.534 293.108 241.991 292.061 240.441C291.961 240.3 291.921 240.159 291.921 239.998C291.88 237.18 306.009 232.209 319.453 235.631C333.118 239.113 343.161 250.505 342.819 253.726Z" fill="#7F8E35"/>
<path d="M342.819 253.726C342.778 253.887 342.738 254.028 342.698 254.169C339.478 250.465 333.541 244.709 324.424 241.126C311.704 236.134 299.689 238.086 292.061 240.441C291.961 240.3 291.921 240.159 291.921 239.998C291.88 237.18 306.009 232.209 319.453 235.631C333.118 239.113 343.161 250.505 342.819 253.726Z" fill="#67682B"/>
<path d="M342.835 253.726C342.865 253.887 342.897 254.028 342.927 254.169C343.684 255.779 348.051 252.478 362.481 247.244C375.553 242.534 380.955 241.991 381.758 240.441C381.834 240.3 381.867 240.159 381.867 239.998C381.897 237.18 371.063 232.209 360.753 235.631C350.273 239.113 342.571 250.505 342.835 253.726Z" fill="#7F8E35"/>
<path d="M342.835 253.726C342.865 253.887 342.897 254.028 342.927 254.169C345.397 250.465 349.949 244.709 356.941 241.126C366.696 236.134 375.909 238.086 381.758 240.441C381.834 240.3 381.867 240.159 381.867 239.998C381.897 237.18 371.063 232.209 360.753 235.631C350.273 239.113 342.571 250.505 342.835 253.726Z" fill="#67682B"/>
<path d="M265.626 266.353C265.626 266.524 265.624 266.673 265.62 266.824C265.25 268.589 261.058 265.751 248.131 262.245C236.426 259.099 231.819 259.25 230.895 257.754C230.807 257.619 230.758 257.477 230.732 257.311C230.247 254.401 238.499 247.827 247.682 250.005C257.018 252.221 265.32 262.988 265.626 266.353Z" fill="#7F8E35"/>
<path d="M265.626 266.354C265.626 266.525 265.624 266.674 265.62 266.825C262.95 263.321 258.202 257.967 251.768 255.185C242.794 251.31 235.403 254.545 230.895 257.753C230.807 257.618 230.758 257.476 230.732 257.31C230.247 254.4 238.499 247.826 247.682 250.004C257.018 252.222 265.32 262.988 265.626 266.354Z" fill="#67682B"/>
<path d="M293.488 250.093C293.448 250.254 293.408 250.394 293.368 250.535C292.381 252.146 286.686 248.845 267.868 243.611C250.822 238.902 243.778 238.358 242.731 236.808C242.631 236.667 242.59 236.526 242.59 236.365C242.55 233.548 256.678 228.576 270.122 231.998C283.788 235.48 293.83 246.872 293.488 250.093Z" fill="#7F8E35"/>
<path d="M293.488 250.093C293.448 250.254 293.408 250.395 293.368 250.535C290.147 246.832 284.21 241.075 275.093 237.492C262.374 232.501 250.359 234.453 242.731 236.808C242.631 236.667 242.59 236.526 242.59 236.365C242.55 233.548 256.678 228.576 270.122 231.998C283.788 235.48 293.83 246.872 293.488 250.093Z" fill="#67682B"/>
<path d="M416.781 422.136C416.68 422.156 416.58 422.176 416.459 422.196C414.064 423.263 412.052 436.587 411.448 442.243C411.005 446.45 410.26 453.415 411.951 453.938C413.561 454.421 417.123 449.027 418.814 443.773C422.074 433.649 419.055 422.216 416.781 422.136Z" fill="url(#paint27_linear_3316_579100)"/>
<path d="M434.52 397.938C427.164 392.458 417.214 388.728 415.763 390.767C415.704 390.849 415.686 390.956 415.654 391.057C415.052 383.994 414.205 376.949 413.09 369.944C415.569 373.714 420.891 378.948 425.809 382.718C432.807 388.116 444.241 394.571 446.636 392.614C449.006 390.686 442.608 380.457 433.343 373.67C425.719 368.064 415.02 364.003 412.337 365.436C411.373 359.963 410.24 354.52 408.932 349.114C411.663 352.828 417.751 357.473 423.334 360.454C431.125 364.649 443.792 368.719 446.36 365.673C448.904 362.668 441.649 352.596 431.342 347.463C422.497 343.033 410.003 341.604 407.811 344.597C407.807 344.603 407.807 344.609 407.803 344.615C406.927 341.266 405.988 337.931 404.969 334.614C403.643 330.312 402.192 326.045 400.634 321.812C404.611 324.048 412.484 325.59 419.059 325.765C427.903 326.037 441.053 324.016 441.991 320.144C442.924 316.319 431.932 310.551 420.42 310.565C411.786 310.557 401.691 313.836 398.847 317.1C395.971 309.764 392.717 302.568 389.044 295.576C393.298 297.083 399.284 298.073 404.466 298.212C413.309 298.484 426.46 296.463 427.397 292.591C428.331 288.766 417.338 282.998 405.827 283.012C397.996 283.004 388.985 285.701 385.25 288.637C382.452 283.793 379.403 279.067 375.924 274.6C375.181 273.642 374.38 272.718 373.595 271.786C377.461 272.805 382.098 273.453 386.22 273.564C395.063 273.835 408.214 271.815 409.151 267.942C410.085 264.118 399.092 258.349 387.581 258.363C379.385 258.355 369.89 261.31 366.513 264.401C364.327 262.399 362.053 260.486 359.614 258.78C357.062 256.994 353.705 254.639 349.422 252.48C352.399 251.189 356.591 249.384 362.484 247.248C375.555 242.538 380.957 241.995 381.76 240.445C381.837 240.304 381.869 240.163 381.869 240.002C381.899 237.184 371.065 232.213 360.755 235.634C352.843 238.263 346.522 245.397 344.008 250.123C342.855 249.692 341.651 249.289 340.392 248.919C336.652 244.259 328.928 238.048 319.455 235.634C306.011 232.213 291.882 237.184 291.923 240.002C291.923 240.163 291.963 240.304 292.063 240.445C292.848 241.606 297.004 242.204 306.222 244.414C301.585 244.911 296.982 245.9 292.532 247.377C289.745 242.709 281.111 234.801 270.122 232.001C256.678 228.579 242.55 233.551 242.59 236.369C242.59 236.53 242.631 236.671 242.731 236.812C243.778 238.362 250.822 238.905 267.868 243.615C277.013 246.159 283.041 248.238 286.954 249.529C282.049 251.692 277.41 254.48 273.234 257.926C270.388 260.211 267.804 262.755 265.393 265.43C263.996 261.35 256.286 252.055 247.68 250.01C238.497 247.832 230.245 254.406 230.73 257.316C230.756 257.483 230.805 257.624 230.893 257.759C231.817 259.257 236.426 259.106 248.129 262.252C256.821 264.611 261.553 266.66 263.839 267.215C261.67 269.765 259.631 272.406 257.741 275.101C255.791 277.885 251.574 283.614 245.977 294.255C241.344 303.065 235.474 315.655 230.243 331.86C230.432 332.722 230.923 334.368 232.31 335.868C232.485 336.049 232.729 336.272 233.002 336.506C233.735 337.132 234.504 337.591 235.246 337.901C235.262 337.909 235.277 337.917 235.293 337.925C235.295 337.925 235.297 337.927 235.299 337.927C235.399 337.969 235.494 337.993 235.593 338.029C236.722 338.46 237.722 338.599 238.444 338.627C238.632 338.637 238.785 338.641 238.875 338.641C241.86 324.675 246.825 311.157 253.674 298.528C260.603 285.61 267.52 272.783 278.064 263.719C288.477 254.621 302.527 250.07 316.563 250.402C323.605 250.503 330.653 251.854 337.463 253.947C344.284 256.087 350.851 258.987 356.758 262.932C358.193 263.874 359.575 264.88 360.922 265.937C356.255 267.12 348.683 272.308 343.841 278.259C336.554 287.172 334.074 299.337 337.628 301.03C341.223 302.753 351.098 293.839 356.478 286.814C360.656 281.401 364.569 273.974 365.128 269.522C371.48 275.413 376.793 282.523 381.476 290.042C377.487 289.491 367.853 295.501 362.087 302.584C354.8 311.497 352.32 323.662 355.874 325.355C359.469 327.078 369.347 318.163 374.724 311.138C379.073 305.505 383.151 297.675 383.443 293.303C383.849 293.991 384.27 294.672 384.668 295.364C388.867 302.628 392.574 310.174 395.876 317.906C391.779 317.561 382.358 323.489 376.682 330.461C369.395 339.374 366.915 351.539 370.47 353.232C374.064 354.955 383.942 346.04 389.319 339.016C393.228 333.951 396.909 327.122 397.827 322.615C399.519 326.828 401.107 331.087 402.568 335.389C403.514 338.184 404.396 341.002 405.239 343.83C401.014 343.309 391.304 348.003 385.012 354.091C376.723 362.08 372.822 373.867 376.151 375.969C379.516 378.104 390.378 370.421 396.551 364.081C400.888 359.661 405.203 353.574 406.785 349.229C408.389 355.078 409.791 360.981 410.989 366.933C408.483 365.526 398.471 372.152 392.087 379.628C384.612 388.349 380.712 399.768 383.459 401.105C386.236 402.465 395.896 393.573 401.481 386.721C406.012 381.198 410.637 373.642 411.498 369.592C412.812 376.484 413.871 383.43 414.682 390.413C412.186 389.774 404.48 396.119 399.477 403.244C393.33 411.966 390.124 423.384 392.384 424.721C394.669 426.081 402.612 417.189 407.203 410.337C410.56 405.36 413.977 398.733 415.141 394.509C415.628 399.257 415.994 404.019 416.268 408.787C414.299 408.079 407.793 413.397 403.589 419.385C398.497 426.611 395.84 436.071 397.712 437.178C399.604 438.305 406.185 430.938 409.989 425.262C412.683 421.267 415.419 415.997 416.463 412.487C416.612 415.701 416.723 418.918 416.779 422.134C416.817 418.588 416.797 415.039 416.723 411.489C416.771 411.273 416.807 411.068 416.837 410.873C417.304 413.817 421.792 420.319 425.908 424.813C430.509 429.865 438.104 436.18 439.809 434.785C441.498 433.414 437.472 424.449 431.37 418.054C426.131 412.547 418.53 408.107 417.059 409.568C416.984 409.643 416.938 409.745 416.894 409.85C416.87 409.528 416.789 409.274 416.656 409.085C416.499 403.504 416.201 397.922 415.751 392.351C416.892 395.752 423.569 402.586 429.392 407.099C435.896 412.169 446.223 418.129 447.966 416.122C449.705 414.142 443.087 404.299 434.52 397.938Z" fill="url(#paint28_linear_3316_579100)"/>
<defs>
<linearGradient id="paint0_linear_3316_579100" x1="401.854" y1="-782.215" x2="89.3254" y2="649.088" gradientUnits="userSpaceOnUse">
<stop stop-color="#E0C9AD"/>
<stop offset="1" stop-color="#E0C9AD" stop-opacity="0"/>
</linearGradient>
<linearGradient id="paint1_linear_3316_579100" x1="670.587" y1="-685.181" x2="-242.931" y2="504.452" gradientUnits="userSpaceOnUse">
<stop stop-color="#EABA4E"/>
<stop offset="1" stop-color="#EABA4E" stop-opacity="0"/>
</linearGradient>
<linearGradient id="paint2_linear_3316_579100" x1="697.105" y1="-664.818" x2="-216.414" y2="524.814" gradientUnits="userSpaceOnUse">
<stop stop-color="#EABA4E"/>
<stop offset="1" stop-color="#EABA4E" stop-opacity="0"/>
</linearGradient>
<linearGradient id="paint3_linear_3316_579100" x1="806.591" y1="-580.742" x2="-106.924" y2="608.89" gradientUnits="userSpaceOnUse">
<stop stop-color="#EABA4E"/>
<stop offset="1" stop-color="#EABA4E" stop-opacity="0"/>
</linearGradient>
<linearGradient id="paint4_linear_3316_579100" x1="829.282" y1="-563.313" x2="-84.2254" y2="626.316" gradientUnits="userSpaceOnUse">
<stop stop-color="#EABA4E"/>
<stop offset="1" stop-color="#EABA4E" stop-opacity="0"/>
</linearGradient>
<linearGradient id="paint5_linear_3316_579100" x1="774.813" y1="-605.177" x2="-138.747" y2="584.47" gradientUnits="userSpaceOnUse">
<stop stop-color="#EABA4E"/>
<stop offset="1" stop-color="#EABA4E" stop-opacity="0"/>
</linearGradient>
<linearGradient id="paint6_linear_3316_579100" x1="773.727" y1="-605.983" x2="-139.795" y2="583.651" gradientUnits="userSpaceOnUse">
<stop stop-color="#EABA4E"/>
<stop offset="1" stop-color="#EABA4E" stop-opacity="0"/>
</linearGradient>
<linearGradient id="paint7_linear_3316_579100" x1="851.892" y1="-545.959" x2="-61.6329" y2="643.673" gradientUnits="userSpaceOnUse">
<stop stop-color="#EABA4E"/>
<stop offset="1" stop-color="#EABA4E" stop-opacity="0"/>
</linearGradient>
<linearGradient id="paint8_linear_3316_579100" x1="853.485" y1="-544.734" x2="-60.033" y2="644.899" gradientUnits="userSpaceOnUse">
<stop stop-color="#EABA4E"/>
<stop offset="1" stop-color="#EABA4E" stop-opacity="0"/>
</linearGradient>
<linearGradient id="paint9_linear_3316_579100" x1="820.416" y1="-570.128" x2="-93.102" y2="619.505" gradientUnits="userSpaceOnUse">
<stop stop-color="#EABA4E"/>
<stop offset="1" stop-color="#EABA4E" stop-opacity="0"/>
</linearGradient>
<linearGradient id="paint10_linear_3316_579100" x1="846.36" y1="-550.202" x2="-67.1545" y2="639.429" gradientUnits="userSpaceOnUse">
<stop stop-color="#EABA4E"/>
<stop offset="1" stop-color="#EABA4E" stop-opacity="0"/>
</linearGradient>
<linearGradient id="paint11_linear_3316_579100" x1="911.373" y1="-500.284" x2="-2.14937" y2="689.349" gradientUnits="userSpaceOnUse">
<stop stop-color="#EABA4E"/>
<stop offset="1" stop-color="#EABA4E" stop-opacity="0"/>
</linearGradient>
<linearGradient id="paint12_linear_3316_579100" x1="977.948" y1="-449.164" x2="64.4262" y2="740.473" gradientUnits="userSpaceOnUse">
<stop stop-color="#EABA4E"/>
<stop offset="1" stop-color="#EABA4E" stop-opacity="0"/>
</linearGradient>
<linearGradient id="paint13_linear_3316_579100" x1="1001.99" y1="-430.699" x2="88.4673" y2="758.932" gradientUnits="userSpaceOnUse">
<stop stop-color="#EABA4E"/>
<stop offset="1" stop-color="#EABA4E" stop-opacity="0"/>
</linearGradient>
<linearGradient id="paint14_linear_3316_579100" x1="948.571" y1="-471.719" x2="35.0512" y2="717.915" gradientUnits="userSpaceOnUse">
<stop stop-color="#EABA4E"/>
<stop offset="1" stop-color="#EABA4E" stop-opacity="0"/>
</linearGradient>
<linearGradient id="paint15_linear_3316_579100" x1="876.452" y1="-527.094" x2="-37.0621" y2="662.537" gradientUnits="userSpaceOnUse">
<stop stop-color="#EABA4E"/>
<stop offset="1" stop-color="#EABA4E" stop-opacity="0"/>
</linearGradient>
<linearGradient id="paint16_linear_3316_579100" x1="759.566" y1="-616.855" x2="-153.952" y2="572.779" gradientUnits="userSpaceOnUse">
<stop stop-color="#EABA4E"/>
<stop offset="1" stop-color="#EABA4E" stop-opacity="0"/>
</linearGradient>
<linearGradient id="paint17_linear_3316_579100" x1="792.98" y1="-591.196" x2="-120.539" y2="598.437" gradientUnits="userSpaceOnUse">
<stop stop-color="#EABA4E"/>
<stop offset="1" stop-color="#EABA4E" stop-opacity="0"/>
</linearGradient>
<linearGradient id="paint18_linear_3316_579100" x1="850.985" y1="-546.639" x2="-62.5134" y2="642.982" gradientUnits="userSpaceOnUse">
<stop stop-color="#EABA4E"/>
<stop offset="1" stop-color="#EABA4E" stop-opacity="0"/>
</linearGradient>
<linearGradient id="paint19_linear_3316_579100" x1="374.095" y1="178.601" x2="269.387" y2="145.515" gradientUnits="userSpaceOnUse">
<stop stop-color="#EABA4E"/>
<stop offset="1" stop-color="#EABA4E" stop-opacity="0"/>
</linearGradient>
<linearGradient id="paint20_linear_3316_579100" x1="215.147" y1="258.739" x2="226.736" y2="354.132" gradientUnits="userSpaceOnUse">
<stop stop-color="#EABA4E"/>
<stop offset="1" stop-color="#EABA4E" stop-opacity="0"/>
</linearGradient>
<linearGradient id="paint21_linear_3316_579100" x1="248.419" y1="422.377" x2="365.937" y2="333.195" gradientUnits="userSpaceOnUse">
<stop stop-color="#463920"/>
<stop offset="1" stop-opacity="0"/>
</linearGradient>
<linearGradient id="paint22_linear_3316_579100" x1="254.853" y1="523.178" x2="461.714" y2="227.023" gradientUnits="userSpaceOnUse">
<stop stop-color="#463920"/>
<stop offset="1" stop-opacity="0"/>
</linearGradient>
<linearGradient id="paint23_linear_3316_579100" x1="339.531" y1="-133.662" x2="409.062" y2="334.865" gradientUnits="userSpaceOnUse">
<stop stop-color="#EABA4E"/>
<stop offset="1" stop-color="#EABA4E" stop-opacity="0"/>
</linearGradient>
<linearGradient id="paint24_linear_3316_579100" x1="236.575" y1="462.926" x2="351.299" y2="332.139" gradientUnits="userSpaceOnUse">
<stop stop-color="#463920"/>
<stop offset="1" stop-opacity="0"/>
</linearGradient>
<linearGradient id="paint25_linear_3316_579100" x1="231.45" y1="489.775" x2="408.094" y2="259.233" gradientUnits="userSpaceOnUse">
<stop stop-color="#463920"/>
<stop offset="1" stop-opacity="0"/>
</linearGradient>
<linearGradient id="paint26_linear_3316_579100" x1="157.773" y1="42.3919" x2="249.123" y2="353.697" gradientUnits="userSpaceOnUse">
<stop stop-color="#EABA4E"/>
<stop offset="1" stop-color="#EABA4E" stop-opacity="0"/>
</linearGradient>
<linearGradient id="paint27_linear_3316_579100" x1="810.242" y1="488.869" x2="362.931" y2="431.452" gradientUnits="userSpaceOnUse">
<stop stop-color="#EABA4E"/>
<stop offset="1" stop-color="#EABA4E" stop-opacity="0"/>
</linearGradient>
<linearGradient id="paint28_linear_3316_579100" x1="822.66" y1="392.21" x2="375.338" y2="334.789" gradientUnits="userSpaceOnUse">
<stop stop-color="#EABA4E"/>
<stop offset="1" stop-color="#EABA4E" stop-opacity="0"/>
</linearGradient>
</defs>
</svg>
