<svg width="898" height="624" viewBox="0 0 898 624" fill="none" xmlns="http://www.w3.org/2000/svg">
<path d="M45.0672 168.013C63.094 151.328 243.195 146.156 369.048 151.829C494.902 157.502 799.855 89.9294 849.261 124.633C898.668 159.337 830.066 206.053 838.746 232.582C847.592 259.11 851.264 295.482 834.573 312.5C817.881 329.519 779.491 373.065 782.996 406.267C786.501 439.469 816.045 491.525 788.004 515.718C759.962 539.91 550.651 466.331 413.948 474.006C277.245 481.681 105.824 537.908 81.1207 517.052C53.9137 494.028 98.3129 466.331 70.1044 429.459C57.7527 413.275 87.6304 360.552 55.249 342.366C25.0375 325.514 69.2698 244.928 49.2401 228.744C29.2103 212.394 33.8839 178.19 45.0672 168.013Z" stroke="#B71D1D" stroke-width="4"/>
</svg>
