<svg width="898" height="624" viewBox="0 0 898 624" fill="none" xmlns="http://www.w3.org/2000/svg">
<path d="M154.73 152.329L116.005 154.665C78.4497 157.668 51.5764 162.173 45.0668 168.013C41.0608 171.683 37.8894 178.357 36.3872 186.032L156.065 179.024L154.73 152.329Z" fill="url(#paint0_linear)" stroke="#561313" stroke-width="0.5" stroke-miterlimit="10"/>
<path d="M369.048 151.828C366.711 151.662 364.541 151.662 362.204 151.495L363.039 167.011L369.715 166.678L511.927 158.335L511.092 142.819C455.843 148.992 405.101 153.33 369.048 151.828Z" fill="url(#paint1_linear)" stroke="#561313" stroke-width="0.5" stroke-miterlimit="10"/>
<path d="M511.927 158.169L518.603 157.835L719.068 146.156L717.565 119.461L695.199 120.796C637.447 126.802 571.515 135.812 511.092 142.652L511.927 158.169Z" fill="#F78181" stroke="#561313" stroke-width="0.5" stroke-miterlimit="10"/>
<path d="M156.232 179.025L162.742 178.691L363.206 167.012L362.371 151.495C302.115 148.992 230.509 148.992 170.587 151.328L154.73 152.329L156.232 179.025Z" fill="#F78181" stroke="#561313" stroke-width="0.5" stroke-miterlimit="10"/>
<path d="M719.067 146.156L725.744 145.822L804.861 141.151L794.513 141.818L862.447 137.814C859.609 133.309 855.269 128.804 849.26 124.633C840.247 118.293 822.554 115.29 798.852 114.789L793.01 115.123L798.852 114.789L717.565 119.461L719.067 146.156Z" fill="url(#paint2_linear)" stroke="#561313" stroke-width="0.5" stroke-miterlimit="10"/>
<path d="M156.232 179.024L36.5542 186.032C36.3873 186.866 36.2204 187.7 36.0535 188.701C36.0535 188.701 36.0535 188.701 36.0535 188.868C35.7197 191.538 35.5527 194.374 35.5527 197.21C35.5527 197.377 35.5527 197.377 35.5527 197.544C35.5527 198.378 35.5527 199.213 35.7196 200.047V200.214C35.8866 202.049 36.0535 203.884 36.3873 205.719C36.3873 205.886 36.3873 206.053 36.5542 206.22C36.7211 206.887 36.8881 207.722 37.055 208.389C37.055 208.556 37.2219 208.723 37.2219 209.056C37.3888 209.891 37.7226 210.725 37.8895 211.559C38.2234 212.393 38.5572 213.227 38.891 214.062C38.891 214.229 39.0579 214.395 39.0579 214.395L154.73 207.722L161.239 207.388L159.57 178.857L156.232 179.024Z" fill="url(#paint3_linear)" stroke="#561313" stroke-width="0.5" stroke-miterlimit="10"/>
<path d="M511.927 158.169L369.883 166.511L366.377 166.678L368.047 195.208L510.258 187.033L516.934 186.532L515.265 158.002L511.927 158.169Z" fill="url(#paint4_linear)" stroke="#561313" stroke-width="0.5" stroke-miterlimit="10"/>
<path d="M719.068 146.156L518.603 157.835L515.265 158.002L516.934 186.532L717.399 174.853L724.075 174.519L722.406 145.989L719.068 146.156Z" fill="#F78181" stroke="#561313" stroke-width="0.5" stroke-miterlimit="10"/>
<path d="M363.206 166.845L162.742 178.524L159.403 178.857L161.072 207.388L361.537 195.709L368.046 195.208L366.377 166.678L363.206 166.845Z" fill="#F78181" stroke="#561313" stroke-width="0.5" stroke-miterlimit="10"/>
<path d="M867.288 156.667C867.288 156.166 867.288 155.666 867.288 155.165V154.999C867.288 154.498 867.288 153.997 867.288 153.664V153.497C867.288 152.996 867.288 152.496 867.288 151.995C867.288 151.995 867.288 151.995 867.288 151.828C867.121 149.326 866.62 146.656 865.618 144.154C865.618 143.987 865.618 143.987 865.452 143.82C865.285 143.319 865.118 142.986 864.951 142.485C864.951 142.318 864.784 142.318 864.784 142.151C864.617 141.818 864.45 141.317 864.283 140.984C864.283 140.817 864.116 140.817 864.116 140.65C863.949 140.316 863.615 139.816 863.449 139.482C863.449 139.315 863.282 139.315 863.282 139.148C863.115 138.648 862.781 138.314 862.447 137.813L794.513 141.818L804.862 141.15L725.744 145.822L722.406 145.989L724.075 174.519L791.675 170.515L800.856 170.015L865.618 166.177C866.453 163.174 867.121 160.004 867.288 156.667Z" fill="url(#paint5_linear)" stroke="#561313" stroke-width="0.5" stroke-miterlimit="10"/>
<path d="M81.1202 517.052C90.1336 524.727 119.177 522.057 159.069 515.05L159.236 500.367V500.201L71.9399 499.533C72.2738 505.706 74.6106 511.546 81.1202 517.052Z" fill="url(#paint6_linear)" stroke="#561313" stroke-width="0.5" stroke-miterlimit="10"/>
<path d="M655.807 503.871C680.51 508.71 703.377 513.214 723.073 516.384L723.24 504.372L655.807 503.871Z" fill="#F78181" stroke="#561313" stroke-width="0.5" stroke-miterlimit="10"/>
<path d="M159.236 500.367L159.069 515.05C180.935 511.212 205.972 506.207 232.846 500.868L165.746 500.367H159.236Z" fill="#F78181" stroke="#561313" stroke-width="0.5" stroke-miterlimit="10"/>
<path d="M723.073 504.372L722.906 516.384C755.956 521.557 779.657 522.891 788.003 515.717C791.675 512.547 794.346 508.876 796.349 504.705L729.75 504.372H723.073Z" fill="url(#paint7_linear)" stroke="#561313" stroke-width="0.5" stroke-miterlimit="10"/>
<path d="M164.077 500.201L164.243 473.673V473.506L77.6149 472.838C75.1112 482.349 71.7729 491.191 72.1067 499.367L157.567 500.034L164.077 500.201Z" fill="url(#paint8_linear)" stroke="#561313" stroke-width="0.5" stroke-miterlimit="10"/>
<path d="M727.914 504.205V498.032L728.081 477.677L527.283 476.175H520.606V480.013C566.174 486.019 612.91 495.362 654.304 503.538L721.404 504.038L727.914 504.205Z" fill="#F78181" stroke="#561313" stroke-width="0.5" stroke-miterlimit="10"/>
<path d="M371.552 475.174L170.753 473.673H164.244L164.077 500.201L234.348 500.702C277.579 492.193 325.483 483.183 371.552 477.844V475.174Z" fill="#F78181" stroke="#561313" stroke-width="0.5" stroke-miterlimit="10"/>
<path d="M799.52 478.177L734.757 477.844H728.081L727.914 498.199V504.372V504.539L796.349 505.039C799.854 497.031 800.522 487.854 799.52 478.177Z" fill="url(#paint9_linear)" stroke="#561313" stroke-width="0.5" stroke-miterlimit="10"/>
<path d="M167.249 474.674L167.415 448.145H160.739L78.7839 447.478C80.9538 456.988 79.4515 465.831 77.1147 474.006L160.572 474.674H167.249Z" fill="url(#paint10_linear)" stroke="#561313" stroke-width="0.5" stroke-miterlimit="10"/>
<path d="M523.778 477.176L523.945 450.648H517.268L374.89 449.647L374.723 476.175L387.242 476.342C396.255 475.508 405.102 474.841 413.781 474.34C438.651 473.005 466.025 474.173 494.234 477.176L516.934 477.343L523.778 477.176Z" fill="url(#paint11_linear)" stroke="#561313" stroke-width="0.5" stroke-miterlimit="10"/>
<path d="M523.945 450.648L523.778 477.176L724.576 478.678H731.252L731.419 452.15L724.743 451.983L523.945 450.648Z" fill="#F78181" stroke="#561313" stroke-width="0.5" stroke-miterlimit="10"/>
<path d="M167.415 447.979L167.249 474.674L368.047 476.008L374.723 476.175L374.89 449.48H368.214L167.415 447.979Z" fill="#F78181" stroke="#561313" stroke-width="0.5" stroke-miterlimit="10"/>
<path d="M731.42 452.149L731.253 478.678L799.02 479.178H799.688C798.853 470.669 796.85 461.66 794.514 452.483L731.42 452.149Z" fill="url(#paint12_linear)" stroke="#561313" stroke-width="0.5" stroke-miterlimit="10"/>
<path d="M164.577 423.452L67.4331 422.785C67.9338 425.454 68.7684 427.79 70.1037 429.458C74.9443 435.799 77.6149 441.805 78.9502 447.478L164.41 448.145L164.577 423.452Z" fill="url(#paint13_linear)" stroke="#561313" stroke-width="0.5" stroke-miterlimit="10"/>
<path d="M371.885 424.954L371.552 449.647H378.228L520.773 450.648L520.94 425.955L371.885 424.954Z" fill="url(#paint14_linear)" stroke="#561313" stroke-width="0.5" stroke-miterlimit="10"/>
<path d="M520.773 450.648L527.449 450.814L728.247 452.149L728.414 427.456L520.94 425.955L520.773 450.648Z" fill="#F78181" stroke="#561313" stroke-width="0.5" stroke-miterlimit="10"/>
<path d="M164.577 423.452L164.41 448.145H170.92L371.551 449.647L371.885 424.954L164.577 423.452Z" fill="#F78181" stroke="#561313" stroke-width="0.5" stroke-miterlimit="10"/>
<path d="M728.415 427.457L728.248 452.15H734.924L794.513 452.65C792.343 444.308 789.672 435.799 787.502 427.79L728.415 427.457Z" fill="url(#paint15_linear)" stroke="#561313" stroke-width="0.5" stroke-miterlimit="10"/>
<path d="M172.923 398.426L68.7688 397.758C67.4335 407.102 66.2651 415.944 67.4335 422.451L172.757 423.286L172.923 398.426Z" fill="url(#paint16_linear)" stroke="#561313" stroke-width="0.5" stroke-miterlimit="10"/>
<path d="M380.231 399.927L379.897 424.62H386.574L529.118 425.621L529.285 400.928L380.231 399.927Z" fill="url(#paint17_linear)" stroke="#561313" stroke-width="0.5" stroke-miterlimit="10"/>
<path d="M529.119 425.621L535.795 425.788L736.593 427.123L736.76 402.43L529.286 400.928L529.119 425.621Z" fill="#F78181" stroke="#561313" stroke-width="0.5" stroke-miterlimit="10"/>
<path d="M172.923 398.426L172.756 423.119H179.266L379.897 424.62L380.231 399.927L172.923 398.426Z" fill="#F78181" stroke="#561313" stroke-width="0.5" stroke-miterlimit="10"/>
<path d="M782.829 402.764L736.76 402.43L736.593 427.123H743.27L787.502 427.457C785.499 419.949 783.83 412.775 783.162 406.268C782.996 405.1 782.829 403.932 782.829 402.764Z" fill="url(#paint18_linear)" stroke="#561313" stroke-width="0.5" stroke-miterlimit="10"/>
<path d="M165.97 373.667L70.5004 372.5C70.5004 382.5 69 390.5 68 397.5L165.803 398.527L165.97 373.667Z" fill="url(#paint19_linear)" stroke="#561313" stroke-width="0.5" stroke-miterlimit="10"/>
<path d="M373.278 375.169L372.944 399.862H379.62L522.165 400.863L522.332 376.17L373.278 375.169Z" fill="url(#paint20_linear)" stroke="#561313" stroke-width="0.5" stroke-miterlimit="10"/>
<path d="M522.166 400.863L528.842 401.03L729.64 402.365L729.807 377.672L522.332 376.17L522.166 400.863Z" fill="#F78181" stroke="#561313" stroke-width="0.5" stroke-miterlimit="10"/>
<path d="M165.97 373.667L165.803 398.361H172.313L372.944 399.862L373.278 375.169L165.97 373.667Z" fill="#F78181" stroke="#561313" stroke-width="0.5" stroke-miterlimit="10"/>
<path d="M788 377.672H729.807L729.64 402.365H736.317H782.5C782.5 397 782.5 391.5 785 385.5C784.834 384.332 788 378.84 788 377.672Z" fill="url(#paint21_linear)" stroke="#561313" stroke-width="0.5" stroke-miterlimit="10"/>
<path d="M166.247 263.782L164.578 235.251V235.084L54.4143 241.425C55.0819 249.266 53.4128 259.444 51.2429 270.456L159.403 264.116L166.247 263.782Z" fill="url(#paint22_linear)" stroke="#561313" stroke-width="0.5" stroke-miterlimit="10"/>
<path d="M515.265 243.427L521.941 243.093L520.272 214.396L378.061 222.738L371.385 223.071L373.054 251.769L515.265 243.427Z" fill="url(#paint23_linear)" stroke="#561313" stroke-width="0.5" stroke-miterlimit="10"/>
<path d="M722.573 231.414L729.082 230.913L727.413 202.383L526.949 214.062L520.272 214.396L521.941 243.093L722.573 231.414Z" fill="#F78181" stroke="#561313" stroke-width="0.5" stroke-miterlimit="10"/>
<path d="M366.544 252.102L373.054 251.769L371.385 223.071L171.088 234.75L164.578 235.251L166.247 263.781L366.544 252.102Z" fill="#F78181" stroke="#561313" stroke-width="0.5" stroke-miterlimit="10"/>
<path d="M734.089 202.049L727.413 202.383L729.082 231.08L804.694 226.742V226.575L838.244 224.573C839.413 215.897 845.421 205.72 851.764 195.042L813.04 197.377L734.089 202.049Z" fill="url(#paint24_linear)" stroke="#561313" stroke-width="0.5" stroke-miterlimit="10"/>
<path d="M157.004 292.74L155.335 264.21V264.043L50.9998 270.5C48.9998 278.5 47.6696 288.488 45.4998 299.5L150.16 293.074L157.004 292.74Z" fill="url(#paint25_linear)" stroke="#561313" stroke-width="0.5" stroke-miterlimit="10"/>
<path d="M506.022 272.385L512.698 272.051L511.029 243.354L368.818 251.696L362.141 252.03L363.811 280.727L506.022 272.385Z" fill="url(#paint26_linear)" stroke="#561313" stroke-width="0.5" stroke-miterlimit="10"/>
<path d="M713.329 260.372L719.839 259.872L718.17 231.341L517.706 243.02L511.029 243.354L512.698 272.051L713.329 260.372Z" fill="#F78181" stroke="#561313" stroke-width="0.5" stroke-miterlimit="10"/>
<path d="M357.301 281.061L363.811 280.727L362.142 252.03L161.844 263.709L155.335 264.209L157.004 292.74L357.301 281.061Z" fill="#F78181" stroke="#561313" stroke-width="0.5" stroke-miterlimit="10"/>
<path d="M724.846 231.007L718.17 231.341L719.839 260.039L795.451 255.701V255.534L844 252C844 244 836.5 234.5 838.5 224L803.797 226.336L724.846 231.007Z" fill="url(#paint27_linear)" stroke="#561313" stroke-width="0.5" stroke-miterlimit="10"/>
<path d="M159.57 235.085L157.901 206.554V206.387L38.3904 213.395C40.5603 219.234 44.0655 224.573 49.2398 228.744C52.5781 231.414 54.0803 235.752 54.4142 241.258L152.894 235.585L159.57 235.085Z" fill="url(#paint28_linear)" stroke="#561313" stroke-width="0.5" stroke-miterlimit="10"/>
<path d="M508.755 214.729L515.432 214.396L513.763 185.865L371.552 194.041L364.875 194.541L366.544 223.072L508.755 214.729Z" fill="url(#paint29_linear)" stroke="#561313" stroke-width="0.5" stroke-miterlimit="10"/>
<path d="M715.896 202.717L722.406 202.216L720.737 173.686L520.439 185.365L513.763 185.865L515.432 214.396L715.896 202.717Z" fill="#F78181" stroke="#561313" stroke-width="0.5" stroke-miterlimit="10"/>
<path d="M360.034 223.405L366.544 223.071L364.875 194.541L164.411 206.22L157.901 206.554L159.57 235.084L360.034 223.405Z" fill="#F78181" stroke="#561313" stroke-width="0.5" stroke-miterlimit="10"/>
<path d="M727.413 173.352L720.737 173.685L722.406 202.383L798.018 198.045V197.878L851.931 194.708C857.44 185.198 863.282 175.187 865.785 165.176L806.364 168.68L727.413 173.352Z" fill="url(#paint30_linear)" stroke="#561313" stroke-width="0.5" stroke-miterlimit="10"/>
<defs>
<linearGradient id="paint0_linear" x1="95.4204" y1="117.722" x2="106.392" y2="448.543" gradientUnits="userSpaceOnUse">
<stop offset="1.89831e-07" stop-color="#5E1000"/>
<stop offset="0.12" stop-color="#6E1503"/>
<stop offset="0.3522" stop-color="#962209"/>
<stop offset="0.4976" stop-color="#B32B0E"/>
<stop offset="0.5245" stop-color="#AE2A0E"/>
<stop offset="0.7238" stop-color="#8B220B"/>
<stop offset="0.8875" stop-color="#761D0A"/>
<stop offset="0.9945" stop-color="#6E1B09"/>
</linearGradient>
<linearGradient id="paint1_linear" x1="436.475" y1="108.552" x2="447.064" y2="427.82" gradientUnits="userSpaceOnUse">
<stop offset="1.89831e-07" stop-color="#5E1000"/>
<stop offset="0.12" stop-color="#6E1503"/>
<stop offset="0.3522" stop-color="#962209"/>
<stop offset="0.4976" stop-color="#B32B0E"/>
<stop offset="0.5245" stop-color="#AE2A0E"/>
<stop offset="0.7238" stop-color="#8B220B"/>
<stop offset="0.8875" stop-color="#761D0A"/>
<stop offset="0.9945" stop-color="#6E1B09"/>
</linearGradient>
<linearGradient id="paint2_linear" x1="789.271" y1="76.0775" x2="800.468" y2="413.722" gradientUnits="userSpaceOnUse">
<stop offset="1.89831e-07" stop-color="#5E1000"/>
<stop offset="0.12" stop-color="#6E1503"/>
<stop offset="0.3522" stop-color="#962209"/>
<stop offset="0.4976" stop-color="#B32B0E"/>
<stop offset="0.5245" stop-color="#AE2A0E"/>
<stop offset="0.7238" stop-color="#8B220B"/>
<stop offset="0.8875" stop-color="#761D0A"/>
<stop offset="0.9945" stop-color="#6E1B09"/>
</linearGradient>
<linearGradient id="paint3_linear" x1="97.0238" y1="118.362" x2="107.785" y2="442.859" gradientUnits="userSpaceOnUse">
<stop offset="1.89831e-07" stop-color="#5E1000"/>
<stop offset="0.12" stop-color="#6E1503"/>
<stop offset="0.3522" stop-color="#962209"/>
<stop offset="0.4976" stop-color="#B32B0E"/>
<stop offset="0.5245" stop-color="#AE2A0E"/>
<stop offset="0.7238" stop-color="#8B220B"/>
<stop offset="0.8875" stop-color="#761D0A"/>
<stop offset="0.9945" stop-color="#6E1B09"/>
</linearGradient>
<linearGradient id="paint4_linear" x1="440.742" y1="108.78" x2="451.341" y2="428.386" gradientUnits="userSpaceOnUse">
<stop offset="1.89831e-07" stop-color="#5E1000"/>
<stop offset="0.12" stop-color="#6E1503"/>
<stop offset="0.3522" stop-color="#962209"/>
<stop offset="0.4976" stop-color="#B32B0E"/>
<stop offset="0.5245" stop-color="#AE2A0E"/>
<stop offset="0.7238" stop-color="#8B220B"/>
<stop offset="0.8875" stop-color="#761D0A"/>
<stop offset="0.9945" stop-color="#6E1B09"/>
</linearGradient>
<linearGradient id="paint5_linear" x1="793.812" y1="76.1984" x2="804.777" y2="406.81" gradientUnits="userSpaceOnUse">
<stop offset="1.89831e-07" stop-color="#5E1000"/>
<stop offset="0.12" stop-color="#6E1503"/>
<stop offset="0.3522" stop-color="#962209"/>
<stop offset="0.4976" stop-color="#B32B0E"/>
<stop offset="0.5245" stop-color="#AE2A0E"/>
<stop offset="0.7238" stop-color="#8B220B"/>
<stop offset="0.8875" stop-color="#761D0A"/>
<stop offset="0.9945" stop-color="#6E1B09"/>
</linearGradient>
<linearGradient id="paint6_linear" x1="120.622" y1="414.373" x2="111.459" y2="716.156" gradientUnits="userSpaceOnUse">
<stop offset="1.89831e-07" stop-color="#5E1000"/>
<stop offset="0.12" stop-color="#6E1503"/>
<stop offset="0.3522" stop-color="#962209"/>
<stop offset="0.4976" stop-color="#B32B0E"/>
<stop offset="0.5245" stop-color="#AE2A0E"/>
<stop offset="0.7238" stop-color="#8B220B"/>
<stop offset="0.8875" stop-color="#761D0A"/>
<stop offset="0.9945" stop-color="#6E1B09"/>
</linearGradient>
<linearGradient id="paint7_linear" x1="764.546" y1="415.396" x2="755.169" y2="724.237" gradientUnits="userSpaceOnUse">
<stop offset="1.89831e-07" stop-color="#5E1000"/>
<stop offset="0.12" stop-color="#6E1503"/>
<stop offset="0.3522" stop-color="#962209"/>
<stop offset="0.4976" stop-color="#B32B0E"/>
<stop offset="0.5245" stop-color="#AE2A0E"/>
<stop offset="0.7238" stop-color="#8B220B"/>
<stop offset="0.8875" stop-color="#761D0A"/>
<stop offset="0.9945" stop-color="#6E1B09"/>
</linearGradient>
<linearGradient id="paint8_linear" x1="124.063" y1="387.631" x2="114.9" y2="689.414" gradientUnits="userSpaceOnUse">
<stop offset="1.89831e-07" stop-color="#5E1000"/>
<stop offset="0.12" stop-color="#6E1503"/>
<stop offset="0.3522" stop-color="#962209"/>
<stop offset="0.4976" stop-color="#B32B0E"/>
<stop offset="0.5245" stop-color="#AE2A0E"/>
<stop offset="0.7238" stop-color="#8B220B"/>
<stop offset="0.8875" stop-color="#761D0A"/>
<stop offset="0.9945" stop-color="#6E1B09"/>
</linearGradient>
<linearGradient id="paint9_linear" x1="769.158" y1="388.69" x2="759.78" y2="697.53" gradientUnits="userSpaceOnUse">
<stop offset="1.89831e-07" stop-color="#5E1000"/>
<stop offset="0.12" stop-color="#6E1503"/>
<stop offset="0.3522" stop-color="#962209"/>
<stop offset="0.4976" stop-color="#B32B0E"/>
<stop offset="0.5245" stop-color="#AE2A0E"/>
<stop offset="0.7238" stop-color="#8B220B"/>
<stop offset="0.8875" stop-color="#761D0A"/>
<stop offset="0.9945" stop-color="#6E1B09"/>
</linearGradient>
<linearGradient id="paint10_linear" x1="126.919" y1="389.168" x2="117.808" y2="689.27" gradientUnits="userSpaceOnUse">
<stop offset="1.89831e-07" stop-color="#5E1000"/>
<stop offset="0.12" stop-color="#6E1503"/>
<stop offset="0.3522" stop-color="#962209"/>
<stop offset="0.4976" stop-color="#B32B0E"/>
<stop offset="0.5245" stop-color="#AE2A0E"/>
<stop offset="0.7238" stop-color="#8B220B"/>
<stop offset="0.8875" stop-color="#761D0A"/>
<stop offset="0.9945" stop-color="#6E1B09"/>
</linearGradient>
<linearGradient id="paint11_linear" x1="452.8" y1="400.743" x2="443.825" y2="696.322" gradientUnits="userSpaceOnUse">
<stop offset="1.89831e-07" stop-color="#5E1000"/>
<stop offset="0.12" stop-color="#6E1503"/>
<stop offset="0.3522" stop-color="#962209"/>
<stop offset="0.4976" stop-color="#B32B0E"/>
<stop offset="0.5245" stop-color="#AE2A0E"/>
<stop offset="0.7238" stop-color="#8B220B"/>
<stop offset="0.8875" stop-color="#761D0A"/>
<stop offset="0.9945" stop-color="#6E1B09"/>
</linearGradient>
<linearGradient id="paint12_linear" x1="769.647" y1="391.05" x2="760.363" y2="696.807" gradientUnits="userSpaceOnUse">
<stop offset="1.89831e-07" stop-color="#5E1000"/>
<stop offset="0.12" stop-color="#6E1503"/>
<stop offset="0.3522" stop-color="#962209"/>
<stop offset="0.4976" stop-color="#B32B0E"/>
<stop offset="0.5245" stop-color="#AE2A0E"/>
<stop offset="0.7238" stop-color="#8B220B"/>
<stop offset="0.8875" stop-color="#761D0A"/>
<stop offset="0.9945" stop-color="#6E1B09"/>
</linearGradient>
<linearGradient id="paint13_linear" x1="118.456" y1="388.27" x2="109.166" y2="694.222" gradientUnits="userSpaceOnUse">
<stop offset="1.89831e-07" stop-color="#5E1000"/>
<stop offset="0.12" stop-color="#6E1503"/>
<stop offset="0.3522" stop-color="#962209"/>
<stop offset="0.4976" stop-color="#B32B0E"/>
<stop offset="0.5245" stop-color="#AE2A0E"/>
<stop offset="0.7238" stop-color="#8B220B"/>
<stop offset="0.8875" stop-color="#761D0A"/>
<stop offset="0.9945" stop-color="#6E1B09"/>
</linearGradient>
<linearGradient id="paint14_linear" x1="448.315" y1="400.265" x2="439.35" y2="695.531" gradientUnits="userSpaceOnUse">
<stop offset="1.89831e-07" stop-color="#5E1000"/>
<stop offset="0.12" stop-color="#6E1503"/>
<stop offset="0.3522" stop-color="#962209"/>
<stop offset="0.4976" stop-color="#B32B0E"/>
<stop offset="0.5245" stop-color="#AE2A0E"/>
<stop offset="0.7238" stop-color="#8B220B"/>
<stop offset="0.8875" stop-color="#761D0A"/>
<stop offset="0.9945" stop-color="#6E1B09"/>
</linearGradient>
<linearGradient id="paint15_linear" x1="764.11" y1="390.631" x2="754.63" y2="702.892" gradientUnits="userSpaceOnUse">
<stop offset="1.89831e-07" stop-color="#5E1000"/>
<stop offset="0.12" stop-color="#6E1503"/>
<stop offset="0.3522" stop-color="#962209"/>
<stop offset="0.4976" stop-color="#B32B0E"/>
<stop offset="0.5245" stop-color="#AE2A0E"/>
<stop offset="0.7238" stop-color="#8B220B"/>
<stop offset="0.8875" stop-color="#761D0A"/>
<stop offset="0.9945" stop-color="#6E1B09"/>
</linearGradient>
<linearGradient id="paint16_linear" x1="122.859" y1="363.124" x2="113.569" y2="669.076" gradientUnits="userSpaceOnUse">
<stop offset="1.89831e-07" stop-color="#5E1000"/>
<stop offset="0.12" stop-color="#6E1503"/>
<stop offset="0.3522" stop-color="#962209"/>
<stop offset="0.4976" stop-color="#B32B0E"/>
<stop offset="0.5245" stop-color="#AE2A0E"/>
<stop offset="0.7238" stop-color="#8B220B"/>
<stop offset="0.8875" stop-color="#761D0A"/>
<stop offset="0.9945" stop-color="#6E1B09"/>
</linearGradient>
<linearGradient id="paint17_linear" x1="456.66" y1="375.239" x2="447.695" y2="670.505" gradientUnits="userSpaceOnUse">
<stop offset="1.89831e-07" stop-color="#5E1000"/>
<stop offset="0.12" stop-color="#6E1503"/>
<stop offset="0.3522" stop-color="#962209"/>
<stop offset="0.4976" stop-color="#B32B0E"/>
<stop offset="0.5245" stop-color="#AE2A0E"/>
<stop offset="0.7238" stop-color="#8B220B"/>
<stop offset="0.8875" stop-color="#761D0A"/>
<stop offset="0.9945" stop-color="#6E1B09"/>
</linearGradient>
<linearGradient id="paint18_linear" x1="764.76" y1="365.371" x2="755.28" y2="677.633" gradientUnits="userSpaceOnUse">
<stop offset="1.89831e-07" stop-color="#5E1000"/>
<stop offset="0.12" stop-color="#6E1503"/>
<stop offset="0.3522" stop-color="#962209"/>
<stop offset="0.4976" stop-color="#B32B0E"/>
<stop offset="0.5245" stop-color="#AE2A0E"/>
<stop offset="0.7238" stop-color="#8B220B"/>
<stop offset="0.8875" stop-color="#761D0A"/>
<stop offset="0.9945" stop-color="#6E1B09"/>
</linearGradient>
<linearGradient id="paint19_linear" x1="115.903" y1="338.366" x2="106.614" y2="644.317" gradientUnits="userSpaceOnUse">
<stop offset="1.89831e-07" stop-color="#5E1000"/>
<stop offset="0.12" stop-color="#6E1503"/>
<stop offset="0.3522" stop-color="#962209"/>
<stop offset="0.4976" stop-color="#B32B0E"/>
<stop offset="0.5245" stop-color="#AE2A0E"/>
<stop offset="0.7238" stop-color="#8B220B"/>
<stop offset="0.8875" stop-color="#761D0A"/>
<stop offset="0.9945" stop-color="#6E1B09"/>
</linearGradient>
<linearGradient id="paint20_linear" x1="449.707" y1="350.48" x2="440.742" y2="645.747" gradientUnits="userSpaceOnUse">
<stop offset="1.89831e-07" stop-color="#5E1000"/>
<stop offset="0.12" stop-color="#6E1503"/>
<stop offset="0.3522" stop-color="#962209"/>
<stop offset="0.4976" stop-color="#B32B0E"/>
<stop offset="0.5245" stop-color="#AE2A0E"/>
<stop offset="0.7238" stop-color="#8B220B"/>
<stop offset="0.8875" stop-color="#761D0A"/>
<stop offset="0.9945" stop-color="#6E1B09"/>
</linearGradient>
<linearGradient id="paint21_linear" x1="757.807" y1="340.613" x2="748.326" y2="652.875" gradientUnits="userSpaceOnUse">
<stop offset="1.89831e-07" stop-color="#5E1000"/>
<stop offset="0.12" stop-color="#6E1503"/>
<stop offset="0.3522" stop-color="#962209"/>
<stop offset="0.4976" stop-color="#B32B0E"/>
<stop offset="0.5245" stop-color="#AE2A0E"/>
<stop offset="0.7238" stop-color="#8B220B"/>
<stop offset="0.8875" stop-color="#761D0A"/>
<stop offset="0.9945" stop-color="#6E1B09"/>
</linearGradient>
<linearGradient id="paint22_linear" x1="106.959" y1="145.348" x2="117.781" y2="471.662" gradientUnits="userSpaceOnUse">
<stop offset="1.89831e-07" stop-color="#5E1000"/>
<stop offset="0.12" stop-color="#6E1503"/>
<stop offset="0.3522" stop-color="#962209"/>
<stop offset="0.4976" stop-color="#B32B0E"/>
<stop offset="0.5245" stop-color="#AE2A0E"/>
<stop offset="0.7238" stop-color="#8B220B"/>
<stop offset="0.8875" stop-color="#761D0A"/>
<stop offset="0.9945" stop-color="#6E1B09"/>
</linearGradient>
<linearGradient id="paint23_linear" x1="445.318" y1="136.893" x2="455.916" y2="456.481" gradientUnits="userSpaceOnUse">
<stop offset="1.89831e-07" stop-color="#5E1000"/>
<stop offset="0.12" stop-color="#6E1503"/>
<stop offset="0.3522" stop-color="#962209"/>
<stop offset="0.4976" stop-color="#B32B0E"/>
<stop offset="0.5245" stop-color="#AE2A0E"/>
<stop offset="0.7238" stop-color="#8B220B"/>
<stop offset="0.8875" stop-color="#761D0A"/>
<stop offset="0.9945" stop-color="#6E1B09"/>
</linearGradient>
<linearGradient id="paint24_linear" x1="788.232" y1="102.731" x2="799.306" y2="436.676" gradientUnits="userSpaceOnUse">
<stop offset="1.89831e-07" stop-color="#5E1000"/>
<stop offset="0.12" stop-color="#6E1503"/>
<stop offset="0.3522" stop-color="#962209"/>
<stop offset="0.4976" stop-color="#B32B0E"/>
<stop offset="0.5245" stop-color="#AE2A0E"/>
<stop offset="0.7238" stop-color="#8B220B"/>
<stop offset="0.8875" stop-color="#761D0A"/>
<stop offset="0.9945" stop-color="#6E1B09"/>
</linearGradient>
<linearGradient id="paint25_linear" x1="97.7161" y1="174.306" x2="108.538" y2="500.621" gradientUnits="userSpaceOnUse">
<stop offset="1.89831e-07" stop-color="#5E1000"/>
<stop offset="0.12" stop-color="#6E1503"/>
<stop offset="0.3522" stop-color="#962209"/>
<stop offset="0.4976" stop-color="#B32B0E"/>
<stop offset="0.5245" stop-color="#AE2A0E"/>
<stop offset="0.7238" stop-color="#8B220B"/>
<stop offset="0.8875" stop-color="#761D0A"/>
<stop offset="0.9945" stop-color="#6E1B09"/>
</linearGradient>
<linearGradient id="paint26_linear" x1="436.075" y1="165.851" x2="446.673" y2="485.44" gradientUnits="userSpaceOnUse">
<stop offset="1.89831e-07" stop-color="#5E1000"/>
<stop offset="0.12" stop-color="#6E1503"/>
<stop offset="0.3522" stop-color="#962209"/>
<stop offset="0.4976" stop-color="#B32B0E"/>
<stop offset="0.5245" stop-color="#AE2A0E"/>
<stop offset="0.7238" stop-color="#8B220B"/>
<stop offset="0.8875" stop-color="#761D0A"/>
<stop offset="0.9945" stop-color="#6E1B09"/>
</linearGradient>
<linearGradient id="paint27_linear" x1="778.988" y1="131.689" x2="790.063" y2="465.634" gradientUnits="userSpaceOnUse">
<stop offset="1.89831e-07" stop-color="#5E1000"/>
<stop offset="0.12" stop-color="#6E1503"/>
<stop offset="0.3522" stop-color="#962209"/>
<stop offset="0.4976" stop-color="#B32B0E"/>
<stop offset="0.5245" stop-color="#AE2A0E"/>
<stop offset="0.7238" stop-color="#8B220B"/>
<stop offset="0.8875" stop-color="#761D0A"/>
<stop offset="0.9945" stop-color="#6E1B09"/>
</linearGradient>
<linearGradient id="paint28_linear" x1="97.424" y1="116.78" x2="108.246" y2="443.095" gradientUnits="userSpaceOnUse">
<stop offset="1.89831e-07" stop-color="#5E1000"/>
<stop offset="0.12" stop-color="#6E1503"/>
<stop offset="0.3522" stop-color="#962209"/>
<stop offset="0.4976" stop-color="#B32B0E"/>
<stop offset="0.5245" stop-color="#AE2A0E"/>
<stop offset="0.7238" stop-color="#8B220B"/>
<stop offset="0.8875" stop-color="#761D0A"/>
<stop offset="0.9945" stop-color="#6E1B09"/>
</linearGradient>
<linearGradient id="paint29_linear" x1="438.721" y1="108.228" x2="449.319" y2="427.817" gradientUnits="userSpaceOnUse">
<stop offset="1.89831e-07" stop-color="#5E1000"/>
<stop offset="0.12" stop-color="#6E1503"/>
<stop offset="0.3522" stop-color="#962209"/>
<stop offset="0.4976" stop-color="#B32B0E"/>
<stop offset="0.5245" stop-color="#AE2A0E"/>
<stop offset="0.7238" stop-color="#8B220B"/>
<stop offset="0.8875" stop-color="#761D0A"/>
<stop offset="0.9945" stop-color="#6E1B09"/>
</linearGradient>
<linearGradient id="paint30_linear" x1="791.976" y1="73.7232" x2="803.051" y2="407.668" gradientUnits="userSpaceOnUse">
<stop offset="1.89831e-07" stop-color="#5E1000"/>
<stop offset="0.12" stop-color="#6E1503"/>
<stop offset="0.3522" stop-color="#962209"/>
<stop offset="0.4976" stop-color="#B32B0E"/>
<stop offset="0.5245" stop-color="#AE2A0E"/>
<stop offset="0.7238" stop-color="#8B220B"/>
<stop offset="0.8875" stop-color="#761D0A"/>
<stop offset="0.9945" stop-color="#6E1B09"/>
</linearGradient>
</defs>
</svg>
