<svg width="898" height="624" viewBox="0 0 898 624" fill="none" xmlns="http://www.w3.org/2000/svg">
<path d="M104.822 107.782C104.822 107.281 104.154 106.781 103.487 106.447C100.482 105.279 97.3109 107.782 97.8116 110.952C97.8116 111.285 97.8117 111.786 97.9786 112.12C98.8131 120.796 94.9741 128.304 89.299 128.804C83.6239 129.472 78.2827 122.965 77.4481 114.122C77.4481 113.788 77.4481 113.288 77.4481 112.787C77.4481 109.45 73.4421 107.281 70.7715 109.617C70.2708 110.118 69.9369 110.451 70.1038 110.952C71.2722 123.632 74.7775 134.31 83.457 136.98C83.9577 137.146 84.2916 137.313 84.2916 137.981L86.1276 157.835C86.2945 159.504 89.1321 160.672 92.4704 160.171C95.8087 160.004 98.3124 158.336 98.3124 156.667L96.3094 137.146C96.3094 136.646 96.4763 136.312 96.9771 135.978C104.655 131.641 105.824 120.462 104.822 107.782C104.655 107.782 104.655 107.782 104.822 107.782Z" fill="#AD033C"/>
<path d="M225.668 101.442C225.668 100.941 225 100.274 224.5 99.9403C221.662 98.6055 218.324 100.941 218.658 104.111C218.658 104.445 218.658 104.946 218.824 105.279C219.158 113.955 214.985 121.13 209.143 121.463C203.301 121.797 198.628 114.956 198.127 106.114C198.127 105.78 198.127 105.279 198.127 104.779C198.294 101.442 194.455 99.1061 191.784 101.275C191.117 101.776 190.95 102.109 190.95 102.61C191.451 115.29 194.121 126.135 202.801 129.305C203.301 129.472 203.635 129.806 203.635 130.306L204.303 150.161C204.47 151.829 207.14 153.164 210.479 152.83C213.817 152.83 216.488 151.329 216.488 149.827L215.486 130.139C215.486 129.639 215.653 129.305 216.154 128.971C223.999 125.301 225.835 114.289 225.668 101.442C225.501 101.609 225.501 101.609 225.668 101.442Z" fill="#AD033C"/>
<path d="M329.322 101.942C329.322 101.442 328.655 100.774 328.154 100.441C325.316 99.1059 321.978 101.275 322.145 104.445C322.145 104.779 322.145 105.279 322.145 105.613C322.145 114.289 317.805 121.463 311.963 121.463C306.121 121.63 301.614 114.622 301.447 105.78C301.447 105.446 301.447 104.945 301.447 104.445C301.614 101.108 297.942 98.6053 295.105 100.607C294.437 101.108 294.27 101.275 294.27 101.942C294.27 114.622 296.774 125.634 305.286 128.971C305.787 129.138 306.121 129.472 306.121 129.972L306.288 149.827C306.288 151.495 308.959 152.83 312.464 152.663C315.802 152.663 318.473 151.328 318.473 149.827L318.306 130.139C318.306 129.638 318.473 129.305 319.14 129.138C326.985 125.634 329.155 114.789 329.322 101.942C329.155 102.109 329.155 102.109 329.322 101.942Z" fill="#AD033C"/>
<path d="M443.992 103.11C443.992 102.61 443.325 101.942 442.824 101.609C439.986 100.274 436.648 102.777 436.982 105.947C436.982 106.28 436.982 106.781 437.149 107.115C437.483 115.79 433.31 123.132 427.635 123.299C421.793 123.632 416.952 116.792 416.618 107.949C416.618 107.615 416.618 107.115 416.618 106.614C416.785 103.277 412.779 100.941 410.276 103.11C409.608 103.611 409.441 103.945 409.441 104.445C409.942 117.125 412.779 127.97 421.459 131.14C421.96 131.307 422.294 131.641 422.294 132.141L423.128 151.996C423.295 153.664 425.966 154.832 429.304 154.665C432.642 154.665 435.313 153.164 435.313 151.495L434.311 131.808C434.311 131.307 434.478 130.973 434.979 130.64C442.657 126.969 444.493 115.957 443.992 103.11C443.826 103.277 443.826 103.277 443.992 103.11Z" fill="#AD033C"/>
<path d="M571.181 89.7627C571.181 89.2621 570.513 88.7616 569.846 88.4279C566.841 87.26 563.67 89.7627 564.171 92.9327C564.171 93.2664 564.171 93.7669 564.338 94.1006C565.172 102.777 561.333 110.285 555.491 110.785C549.816 111.286 544.642 104.779 543.807 95.9359C543.807 95.6022 543.807 95.1017 543.807 94.6012C543.807 91.2643 539.801 89.0953 537.297 91.4311C536.797 91.9316 536.463 92.2653 536.63 92.7659C537.798 105.446 541.137 116.124 549.816 118.961C550.317 119.127 550.651 119.294 550.651 119.962L552.32 139.816C552.487 141.485 555.324 142.652 558.663 142.152C562.001 141.985 564.505 140.317 564.505 138.815L562.502 118.961C562.502 118.46 562.668 118.126 563.169 117.793C570.847 113.621 572.016 102.61 571.181 89.7627C571.014 89.9295 571.014 89.9295 571.181 89.7627Z" fill="#AD033C"/>
<path d="M706.716 71.7431C706.716 71.2426 706.048 70.7421 705.38 70.4084C702.376 69.2405 699.205 71.7431 699.705 74.9132C699.705 75.2469 699.705 75.7474 699.872 76.0811C700.707 84.757 696.868 92.2651 691.026 92.7656C685.351 93.2661 680.176 86.7592 679.342 77.9164C679.342 77.5827 679.342 77.0822 679.342 76.5816C679.342 73.2447 675.336 71.0758 672.832 73.4116C672.331 73.9121 671.998 74.2458 672.165 74.7463C673.333 87.4266 676.671 98.1046 685.351 100.941C685.851 101.108 686.185 101.275 686.185 101.942L687.854 121.797C688.021 123.465 690.859 124.633 694.197 124.132C697.535 123.966 700.039 122.297 700.039 120.796L698.203 101.275C698.203 100.774 698.37 100.44 698.871 100.107C706.382 95.602 707.55 84.5902 706.716 71.7431C706.549 71.7431 706.549 71.7431 706.716 71.7431Z" fill="#AD033C"/>
<path d="M830.566 68.7402C830.566 68.2396 829.898 67.5723 829.398 67.2386C826.393 65.9038 823.222 68.4065 823.556 71.5765C823.556 71.9102 823.556 72.4108 823.723 72.7444C824.223 81.4204 820.05 88.7616 814.208 89.0953C808.366 89.4289 803.526 82.7551 803.025 73.9124C803.025 73.5787 803.025 73.0781 803.025 72.5776C803.192 69.2407 799.186 66.9049 796.515 69.0739C795.848 69.5744 795.681 69.9081 795.681 70.4086C796.349 83.0888 799.186 93.9338 807.866 97.1038C808.366 97.2707 808.7 97.6043 808.7 98.1049L809.702 117.959C809.869 119.628 812.539 120.796 815.878 120.629C819.216 120.629 821.886 118.96 821.72 117.459L820.718 97.7712C820.718 97.2706 820.885 96.937 821.386 96.6033C829.231 92.599 830.9 81.5872 830.566 68.7402C830.399 68.907 830.399 68.907 830.566 68.7402Z" fill="#AD033C"/>
<path d="M755.955 567.607C755.955 568.107 756.623 568.608 757.124 568.941C760.128 570.109 763.3 567.607 762.799 564.437C762.799 564.103 762.799 563.602 762.632 563.269C761.964 554.593 765.97 547.252 771.645 546.751C777.32 546.251 782.495 552.924 783.162 561.767C783.162 562.101 783.162 562.601 783.162 563.102C783.162 566.439 787.168 568.608 789.672 566.439C790.173 565.938 790.507 565.605 790.507 565.104C789.672 552.424 786.501 541.746 777.654 538.743C777.153 538.576 776.82 538.242 776.82 537.741L775.317 517.887C775.15 516.218 772.48 515.051 768.975 515.384C765.636 515.551 762.966 517.22 763.133 518.721L764.635 538.242C764.635 538.743 764.468 539.076 763.967 539.41C756.623 543.915 755.121 554.926 755.955 567.607C756.122 567.607 756.122 567.607 755.955 567.607Z" fill="#AD033C"/>
<path d="M629.601 547.752C629.601 548.253 630.269 548.92 630.769 549.254C633.607 550.588 636.945 548.419 636.778 545.083C636.778 544.749 636.778 544.248 636.778 543.915C636.611 535.239 640.951 528.064 646.793 527.898C652.635 527.731 657.142 534.738 657.476 543.581C657.476 543.915 657.476 544.415 657.476 544.916C657.309 548.253 661.148 550.588 663.818 548.586C664.486 548.086 664.653 547.919 664.653 547.252C664.486 534.571 661.982 523.726 653.47 520.223C652.969 520.056 652.635 519.722 652.635 519.222L652.301 499.367C652.134 497.699 649.631 496.364 646.125 496.531C642.787 496.531 640.117 497.865 640.117 499.534L640.45 519.222C640.45 519.722 640.283 520.056 639.783 520.223C631.771 524.06 629.601 534.905 629.601 547.752C629.768 547.752 629.768 547.752 629.601 547.752Z" fill="#AD033C"/>
<path d="M529.62 530.4C529.62 530.901 530.287 531.568 530.788 531.902C533.625 533.403 537.131 531.234 536.797 528.064C536.797 527.731 536.964 527.23 536.797 526.896C536.964 518.22 541.47 511.213 547.312 511.213C553.154 511.213 557.494 518.22 557.494 527.23C557.494 527.564 557.327 528.064 557.494 528.565C557.16 531.902 561 534.404 563.67 532.402C564.338 532.069 564.505 531.735 564.505 531.068C564.672 518.387 562.502 507.376 554.156 503.705C553.655 503.538 553.321 503.204 553.321 502.704L553.655 482.849C553.655 481.181 550.985 479.846 547.646 479.846C544.308 479.679 541.637 481.014 541.47 482.682L541.304 502.37C541.304 502.871 540.97 503.204 540.469 503.371C532.457 506.708 529.953 517.553 529.62 530.4C529.786 530.4 529.786 530.4 529.62 530.4Z" fill="#AD033C"/>
<path d="M407.605 521.224C407.605 521.724 408.272 522.392 408.773 522.725C411.611 524.06 414.949 521.724 414.782 518.554C414.782 518.22 414.782 517.72 414.782 517.386C414.615 508.71 418.955 501.536 424.63 501.369C430.472 501.202 435.146 508.043 435.313 516.886C435.313 517.219 435.313 517.72 435.313 518.22C435.146 521.557 438.985 523.893 441.655 521.891C442.323 521.39 442.49 521.224 442.49 520.556C442.323 507.876 439.652 497.031 431.14 493.527C430.639 493.361 430.305 493.027 430.305 492.526L429.971 472.672C429.804 471.003 427.301 469.669 423.795 469.835C420.457 469.835 417.787 471.337 417.787 472.839L418.287 492.526C418.287 493.027 418.12 493.361 417.62 493.527C409.608 497.532 407.605 508.377 407.605 521.224C407.772 521.057 407.772 521.057 407.605 521.224Z" fill="#AD033C"/>
<path d="M273.072 540.745C273.072 541.245 273.739 541.746 274.24 542.246C277.244 543.414 280.416 541.078 279.915 537.908C279.915 537.575 279.915 537.074 279.748 536.74C279.247 528.064 283.086 520.723 288.928 520.223C294.604 519.722 299.778 526.396 300.279 535.239C300.279 535.572 300.279 536.073 300.279 536.574C300.279 539.91 304.118 542.079 306.788 539.91C307.289 539.41 307.623 539.076 307.623 538.576C306.788 525.895 303.784 515.217 294.937 512.214C294.437 512.047 294.103 511.714 294.103 511.213L292.767 491.359C292.601 489.69 289.93 488.522 286.425 488.856C283.086 489.023 280.416 490.524 280.583 492.193L281.918 511.88C281.918 512.381 281.751 512.715 281.25 513.048C273.906 516.886 272.404 527.898 273.072 540.745C273.239 540.578 273.239 540.578 273.072 540.745Z" fill="#AD033C"/>
<path d="M178.765 557.429C178.765 557.929 179.433 558.43 179.933 558.93C182.938 560.098 186.109 557.762 185.608 554.592C185.608 554.259 185.608 553.758 185.442 553.425C184.941 544.749 188.78 537.407 194.622 536.907C200.297 536.406 205.471 543.08 205.972 551.923C205.972 552.257 205.972 552.757 205.972 553.258C205.972 556.595 209.811 558.764 212.482 556.595C212.982 556.094 213.316 555.76 213.316 555.26C212.482 542.58 209.477 531.901 200.631 528.898C200.13 528.731 199.796 528.398 199.796 527.897L198.461 508.043C198.294 506.374 195.623 505.206 192.118 505.54C188.78 505.707 186.109 507.208 186.276 508.877L187.611 528.565C187.611 529.065 187.444 529.399 186.944 529.732C179.599 533.737 178.097 544.749 178.765 557.429C178.932 557.429 178.932 557.429 178.765 557.429Z" fill="#AD033C"/>
<path d="M89.1318 572.111C89.1318 572.612 89.7995 573.279 90.3002 573.613C93.1377 574.948 96.476 572.612 96.1422 569.442C96.1422 569.108 96.1422 568.608 96.1422 568.274C95.9753 559.598 100.148 552.424 105.99 552.257C111.832 552.09 116.506 558.931 116.84 567.773C116.84 568.107 116.84 568.608 116.84 569.108C116.673 572.445 120.512 574.781 123.182 572.779C123.85 572.278 124.017 572.111 124.017 571.444C123.683 558.764 121.012 547.919 112.5 544.582C111.999 544.415 111.665 544.081 111.665 543.581L111.165 523.726C110.998 522.058 108.327 520.723 104.989 521.057C101.65 521.057 98.9797 522.558 98.9797 524.06L99.6474 543.748C99.6474 544.248 99.4805 544.582 98.9797 544.749C90.9679 548.253 88.9649 559.264 89.1318 572.111C89.2987 571.945 89.2987 571.945 89.1318 572.111Z" fill="#AD033C"/>
</svg>
