<svg width="898" height="624" viewBox="0 0 898 624" fill="none" xmlns="http://www.w3.org/2000/svg">
<path d="M27.3743 177.857C27.5412 175.187 26.5397 172.685 24.8706 172.518H24.036C22.3669 172.351 21.0315 174.687 20.6977 177.356L19.0286 197.711C18.8617 200.381 19.8631 202.883 21.5323 203.05H22.3669C24.036 203.217 25.3713 200.881 25.7051 198.212L25.8721 195.375L42.2297 196.71L42.0628 199.547C41.8959 202.216 42.8973 204.719 44.5665 204.886H45.4011C47.0702 205.052 48.4055 202.717 48.7394 200.047L50.4085 179.692C50.5754 177.023 49.5739 174.52 47.9048 174.353H47.0702C45.4011 174.186 44.0657 176.522 43.7319 179.191L43.565 182.028L27.2074 180.693L27.3743 177.857Z" fill="#E48405"/>
<path d="M50.0745 186.533L49.5737 193.206C49.5737 193.206 38.2235 191.705 34.5514 191.538C30.7124 191.204 19.5291 190.871 19.5291 190.871L20.0299 184.197C20.0299 184.197 31.38 185.698 34.8852 185.865C38.7243 186.032 50.0745 186.533 50.0745 186.533Z" fill="#BC6906"/>
<path d="M36.8884 332.522C35.3862 330.186 33.0494 328.852 31.7141 329.853L30.8795 330.353C29.5442 331.187 29.7111 333.857 31.2133 336.193L42.0628 353.378C43.565 355.714 45.9018 357.048 47.2371 356.047L48.0717 355.547C49.407 354.712 49.2401 352.043 47.7379 349.707L46.2356 347.204L60.0895 338.362L61.5918 340.864C63.094 343.2 65.4308 344.535 66.7661 343.534L67.6007 343.033C68.936 342.199 68.7691 339.53 67.2669 337.194L56.4174 320.009C54.9152 317.673 52.5784 316.338 51.2431 317.339L50.4085 317.84C49.0732 318.674 49.2401 321.343 50.7423 323.679L52.2446 326.182L38.3906 335.025L36.8884 332.522Z" fill="#E48405"/>
<path d="M60.2567 325.848L63.7619 331.521C63.7619 331.521 53.9139 337.194 50.5756 339.196C47.2373 341.198 38.224 347.705 38.224 347.705L34.7188 342.032C34.7188 342.032 44.5667 336.359 47.7381 334.524C50.9095 332.355 60.2567 325.848 60.2567 325.848Z" fill="#BC6906"/>
<path d="M64.2623 436.8C63.7616 434.131 61.9255 432.129 60.4233 432.462L59.5887 432.629C57.9196 432.963 57.2519 435.466 57.7527 438.135L62.0924 458.156C62.5932 460.826 64.4292 462.828 65.9315 462.494L66.766 462.328C68.4352 461.994 69.1028 459.491 68.6021 456.822L67.9345 453.985L83.9582 450.482L84.6259 453.318C85.1266 455.987 86.9627 457.99 88.4649 457.656L89.2995 457.489C90.9687 457.155 91.6363 454.653 91.1356 451.983L86.7958 431.962C86.295 429.292 84.459 427.29 82.9568 427.624L82.1222 427.791C80.453 428.124 79.7854 430.627 80.2861 433.297L80.9538 436.133L64.93 439.637L64.2623 436.8Z" fill="#E48405"/>
<path d="M88.6319 438.636L89.9672 445.143C89.9672 445.143 78.7839 446.978 74.9449 447.812C71.2728 448.646 60.4233 451.483 60.4233 451.483L59.088 444.976C59.088 444.976 70.2713 443.141 73.7765 442.306C77.6155 441.472 88.6319 438.636 88.6319 438.636Z" fill="#BC6906"/>
<path d="M857.273 140.817C856.606 138.148 854.937 136.146 853.268 136.479L852.433 136.646C850.931 136.98 850.096 139.649 850.764 142.152L855.271 162.006C855.938 164.676 857.607 166.678 859.276 166.344L860.111 166.178C861.613 165.844 862.448 163.174 861.78 160.672L861.113 157.835L877.136 154.165L877.804 157.001C878.472 159.671 880.141 161.673 881.81 161.339L882.645 161.172C884.147 160.839 884.981 158.169 884.314 155.666L879.807 135.812C879.139 133.142 877.47 131.14 875.801 131.474L874.966 131.641C873.464 131.974 872.63 134.644 873.297 137.147L873.965 139.983L857.941 143.654L857.273 140.817Z" fill="#E48405"/>
<path d="M881.643 142.319L883.145 148.826C883.145 148.826 871.962 150.828 868.29 151.662C864.618 152.496 853.768 155.5 853.768 155.5L852.266 148.993C852.266 148.993 863.449 146.99 866.954 146.156C870.626 145.322 881.643 142.319 881.643 142.319Z" fill="#BC6906"/>
<path d="M837.41 296.483C838.913 294.148 839.079 291.478 837.744 290.644L836.91 290.143C835.574 289.309 833.237 290.477 831.735 292.813L820.719 309.998C819.217 312.334 819.05 315.003 820.385 315.837L821.22 316.338C822.555 317.172 824.892 316.004 826.394 313.668L827.896 311.166L841.75 320.009L840.248 322.511C838.746 324.847 838.579 327.517 839.914 328.351L840.749 328.851C842.084 329.686 844.421 328.518 845.923 326.182L856.939 308.997C858.442 306.661 858.608 303.991 857.273 303.157L856.439 302.657C855.103 301.822 852.766 302.99 851.264 305.326L849.762 307.829L835.908 298.986L837.41 296.483Z" fill="#E48405"/>
<path d="M853.267 315.003L849.595 320.676C849.595 320.676 840.248 314.002 837.077 312C833.905 309.998 824.224 304.325 824.224 304.325L827.896 298.652C827.896 298.652 837.244 305.326 840.248 307.161C843.419 309.33 853.267 315.003 853.267 315.003Z" fill="#BC6906"/>
<path d="M777.989 411.439C777.488 408.77 775.652 406.768 774.15 407.101L773.316 407.268C771.646 407.602 770.979 410.105 771.48 412.774L775.819 432.796C776.32 435.465 778.156 437.467 779.658 437.134L780.493 436.967C782.162 436.633 782.83 434.13 782.329 431.461L781.661 428.624L797.685 425.121L798.353 427.957C798.853 430.627 800.69 432.629 802.192 432.295L803.026 432.128C804.695 431.794 805.363 429.292 804.862 426.622L800.523 406.601C800.022 403.931 798.186 401.929 796.684 402.263L795.849 402.43C794.18 402.763 793.512 405.266 794.013 407.936L794.681 410.772L778.657 414.276L777.989 411.439Z" fill="#E48405"/>
<path d="M802.192 413.274L803.527 419.781C803.527 419.781 792.344 421.617 788.505 422.451C784.833 423.285 773.984 426.122 773.984 426.122L772.648 419.615C772.648 419.615 783.831 417.779 787.337 416.945C791.176 416.278 802.192 413.274 802.192 413.274Z" fill="#BC6906"/>
</svg>
