<svg width="898" height="624" viewBox="0 0 898 624" fill="none" xmlns="http://www.w3.org/2000/svg">
<path d="M104.822 107.782C104.822 107.281 104.155 106.781 103.487 106.447C100.482 105.279 97.311 107.782 97.8118 110.952C97.8118 111.285 97.8118 111.786 97.9787 112.12C98.8133 120.796 94.9742 128.304 89.2991 128.804C83.624 129.472 78.2828 122.965 77.4482 114.122C77.4482 113.788 77.4482 113.288 77.4482 112.787C77.4482 109.45 73.4423 107.281 70.7716 109.617C70.2709 110.118 69.9371 110.451 70.104 110.952C71.2724 123.632 74.7776 134.31 83.4571 136.98C83.9579 137.146 84.2917 137.313 84.2917 137.981L86.1278 157.835C86.2947 159.504 89.1322 160.672 92.4705 160.171C95.8088 160.004 98.3125 158.336 98.3125 156.667L96.3095 137.146C96.3095 136.646 96.4765 136.312 96.9772 135.978C104.655 131.641 105.824 120.462 104.822 107.782C104.655 107.782 104.655 107.782 104.822 107.782Z" fill="#AD033C"/>
<path d="M225.668 101.442C225.668 100.941 225 100.274 224.5 99.9403C221.662 98.6055 218.324 100.941 218.658 104.111C218.658 104.445 218.658 104.946 218.824 105.279C219.158 113.955 214.985 121.13 209.143 121.463C203.301 121.797 198.628 114.956 198.127 106.114C198.127 105.78 198.127 105.279 198.127 104.779C198.294 101.442 194.455 99.1061 191.784 101.275C191.117 101.776 190.95 102.109 190.95 102.61C191.45 115.29 194.121 126.135 202.801 129.305C203.301 129.472 203.635 129.806 203.635 130.306L204.303 150.161C204.47 151.829 207.14 153.164 210.479 152.83C213.817 152.83 216.488 151.329 216.488 149.827L215.486 130.139C215.486 129.639 215.653 129.305 216.154 128.971C223.999 125.301 225.835 114.289 225.668 101.442C225.501 101.609 225.501 101.609 225.668 101.442Z" fill="#AD033C"/>
<path d="M329.322 101.942C329.322 101.442 328.654 100.774 328.154 100.441C325.316 99.1059 321.978 101.275 322.145 104.445C322.145 104.779 322.145 105.279 322.145 105.613C322.145 114.289 317.805 121.463 311.963 121.463C306.121 121.63 301.614 114.622 301.447 105.78C301.447 105.446 301.447 104.945 301.447 104.445C301.614 101.108 297.942 98.6053 295.105 100.607C294.437 101.108 294.27 101.275 294.27 101.942C294.27 114.622 296.774 125.634 305.286 128.971C305.787 129.138 306.121 129.472 306.121 129.972L306.288 149.827C306.288 151.495 308.958 152.83 312.464 152.663C315.802 152.663 318.473 151.328 318.473 149.827L318.306 130.139C318.306 129.638 318.473 129.305 319.14 129.138C326.985 125.634 329.155 114.789 329.322 101.942C329.155 102.109 329.155 102.109 329.322 101.942Z" fill="#AD033C"/>
<path d="M443.993 103.11C443.993 102.61 443.325 101.942 442.824 101.609C439.987 100.274 436.648 102.777 436.982 105.947C436.982 106.28 436.982 106.781 437.149 107.115C437.483 115.79 433.31 123.132 427.635 123.299C421.793 123.632 416.953 116.792 416.619 107.949C416.619 107.615 416.619 107.115 416.619 106.614C416.786 103.277 412.78 100.941 410.276 103.11C409.608 103.611 409.441 103.945 409.441 104.445C409.942 117.125 412.78 127.97 421.459 131.14C421.96 131.307 422.294 131.641 422.294 132.141L423.128 151.996C423.295 153.664 425.966 154.832 429.304 154.665C432.643 154.665 435.313 153.164 435.313 151.495L434.312 131.808C434.312 131.307 434.479 130.973 434.979 130.64C442.657 126.969 444.493 115.957 443.993 103.11C443.826 103.277 443.826 103.277 443.993 103.11Z" fill="#AD033C"/>
<path d="M571.181 89.7627C571.181 89.2621 570.513 88.7616 569.846 88.4279C566.841 87.26 563.67 89.7627 564.171 92.9327C564.171 93.2664 564.171 93.7669 564.338 94.1006C565.172 102.777 561.333 110.285 555.491 110.785C549.816 111.286 544.642 104.779 543.807 95.9359C543.807 95.6022 543.807 95.1017 543.807 94.6012C543.807 91.2643 539.801 89.0953 537.297 91.4311C536.797 91.9316 536.463 92.2653 536.63 92.7659C537.798 105.446 541.137 116.124 549.816 118.961C550.317 119.127 550.651 119.294 550.651 119.962L552.32 139.816C552.487 141.485 555.324 142.652 558.663 142.152C562.001 141.985 564.505 140.317 564.505 138.815L562.502 118.961C562.502 118.46 562.668 118.126 563.169 117.793C570.847 113.621 572.016 102.61 571.181 89.7627C571.014 89.9295 571.014 89.9295 571.181 89.7627Z" fill="#AD033C"/>
<path d="M706.716 71.7431C706.716 71.2426 706.048 70.7421 705.38 70.4084C702.376 69.2405 699.205 71.7431 699.705 74.9132C699.705 75.2469 699.705 75.7474 699.872 76.0811C700.707 84.757 696.868 92.2651 691.026 92.7656C685.351 93.2661 680.176 86.7592 679.342 77.9164C679.342 77.5827 679.342 77.0822 679.342 76.5816C679.342 73.2447 675.336 71.0758 672.832 73.4116C672.331 73.9121 671.998 74.2458 672.165 74.7463C673.333 87.4266 676.671 98.1046 685.351 100.941C685.851 101.108 686.185 101.275 686.185 101.942L687.854 121.797C688.021 123.465 690.859 124.633 694.197 124.132C697.535 123.966 700.039 122.297 700.039 120.796L698.203 101.275C698.203 100.774 698.37 100.44 698.871 100.107C706.382 95.602 707.55 84.5902 706.716 71.7431C706.549 71.7431 706.549 71.7431 706.716 71.7431Z" fill="#AD033C"/>
<path d="M830.566 68.7402C830.566 68.2396 829.899 67.5723 829.398 67.2386C826.393 65.9038 823.222 68.4065 823.556 71.5765C823.556 71.9102 823.556 72.4108 823.723 72.7444C824.223 81.4204 820.051 88.7616 814.209 89.0953C808.367 89.4289 803.526 82.7551 803.025 73.9124C803.025 73.5787 803.025 73.0781 803.025 72.5776C803.192 69.2407 799.186 66.9049 796.516 69.0739C795.848 69.5744 795.681 69.9081 795.681 70.4086C796.349 83.0888 799.186 93.9338 807.866 97.1038C808.367 97.2707 808.7 97.6043 808.7 98.1049L809.702 117.959C809.869 119.628 812.539 120.796 815.878 120.629C819.216 120.629 821.887 118.96 821.72 117.459L820.718 97.7712C820.718 97.2706 820.885 96.937 821.386 96.6033C829.231 92.599 830.9 81.5872 830.566 68.7402C830.399 68.907 830.399 68.907 830.566 68.7402Z" fill="#AD033C"/>
<path d="M755.955 567.607C755.955 568.107 756.623 568.608 757.124 568.941C760.128 570.109 763.3 567.607 762.799 564.437C762.799 564.103 762.799 563.602 762.632 563.269C761.964 554.593 765.97 547.252 771.645 546.751C777.32 546.251 782.495 552.924 783.162 561.767C783.162 562.101 783.162 562.601 783.162 563.102C783.162 566.439 787.168 568.608 789.672 566.439C790.173 565.938 790.507 565.605 790.507 565.104C789.672 552.424 786.501 541.746 777.654 538.743C777.153 538.576 776.82 538.242 776.82 537.741L775.317 517.887C775.15 516.218 772.48 515.051 768.975 515.384C765.636 515.551 762.966 517.22 763.133 518.721L764.635 538.242C764.635 538.743 764.468 539.076 763.967 539.41C756.623 543.915 755.121 554.926 755.955 567.607C756.122 567.607 756.122 567.607 755.955 567.607Z" fill="#AD033C"/>
<path d="M629.601 547.752C629.601 548.253 630.269 548.92 630.769 549.254C633.607 550.588 636.945 548.419 636.778 545.083C636.778 544.749 636.778 544.248 636.778 543.915C636.611 535.239 640.951 528.064 646.793 527.898C652.635 527.731 657.142 534.738 657.476 543.581C657.476 543.915 657.476 544.415 657.476 544.916C657.309 548.253 661.148 550.588 663.819 548.586C664.486 548.086 664.653 547.919 664.653 547.252C664.486 534.571 661.982 523.726 653.47 520.223C652.969 520.056 652.635 519.722 652.635 519.222L652.301 499.367C652.135 497.699 649.631 496.364 646.126 496.531C642.787 496.531 640.117 497.865 640.117 499.534L640.451 519.222C640.451 519.722 640.284 520.056 639.783 520.223C631.771 524.06 629.601 534.905 629.601 547.752C629.768 547.752 629.768 547.752 629.601 547.752Z" fill="#AD033C"/>
<path d="M529.62 530.4C529.62 530.901 530.287 531.568 530.788 531.902C533.626 533.403 537.131 531.234 536.797 528.064C536.797 527.731 536.964 527.23 536.797 526.896C536.964 518.22 541.471 511.213 547.313 511.213C553.155 511.213 557.494 518.22 557.494 527.23C557.494 527.564 557.327 528.064 557.494 528.565C557.161 531.902 561 534.404 563.67 532.402C564.338 532.069 564.505 531.735 564.505 531.068C564.672 518.387 562.502 507.376 554.156 503.705C553.655 503.538 553.322 503.204 553.322 502.704L553.655 482.849C553.655 481.181 550.985 479.846 547.646 479.846C544.308 479.679 541.637 481.014 541.471 482.682L541.304 502.37C541.304 502.871 540.97 503.204 540.469 503.371C532.457 506.708 529.953 517.553 529.62 530.4C529.787 530.4 529.787 530.4 529.62 530.4Z" fill="#AD033C"/>
<path d="M407.605 521.224C407.605 521.724 408.273 522.392 408.773 522.725C411.611 524.06 414.949 521.724 414.782 518.554C414.782 518.22 414.782 517.72 414.782 517.386C414.615 508.71 418.955 501.536 424.63 501.369C430.472 501.202 435.146 508.043 435.313 516.886C435.313 517.219 435.313 517.72 435.313 518.22C435.146 521.557 438.985 523.893 441.656 521.891C442.323 521.39 442.49 521.224 442.49 520.556C442.323 507.876 439.653 497.031 431.14 493.527C430.639 493.361 430.305 493.027 430.305 492.526L429.972 472.672C429.805 471.003 427.301 469.669 423.796 469.835C420.457 469.835 417.787 471.337 417.787 472.839L418.288 492.526C418.288 493.027 418.121 493.361 417.62 493.527C409.608 497.532 407.605 508.377 407.605 521.224C407.772 521.057 407.772 521.057 407.605 521.224Z" fill="#AD033C"/>
<path d="M273.072 540.745C273.072 541.245 273.739 541.746 274.24 542.246C277.244 543.414 280.416 541.078 279.915 537.908C279.915 537.575 279.915 537.074 279.748 536.74C279.247 528.064 283.086 520.723 288.928 520.223C294.603 519.722 299.778 526.396 300.279 535.239C300.279 535.572 300.279 536.073 300.279 536.574C300.279 539.91 304.118 542.079 306.788 539.91C307.289 539.41 307.623 539.076 307.623 538.576C306.788 525.895 303.784 515.217 294.937 512.214C294.437 512.047 294.103 511.714 294.103 511.213L292.767 491.359C292.6 489.69 289.93 488.522 286.425 488.856C283.086 489.023 280.416 490.524 280.583 492.193L281.918 511.88C281.918 512.381 281.751 512.715 281.25 513.048C273.906 516.886 272.404 527.898 273.072 540.745C273.238 540.578 273.238 540.578 273.072 540.745Z" fill="#AD033C"/>
<path d="M178.765 557.429C178.765 557.929 179.433 558.43 179.933 558.93C182.938 560.098 186.109 557.762 185.608 554.592C185.608 554.259 185.608 553.758 185.441 553.425C184.941 544.749 188.78 537.407 194.622 536.907C200.297 536.406 205.471 543.08 205.972 551.923C205.972 552.257 205.972 552.757 205.972 553.258C205.972 556.595 209.811 558.764 212.482 556.595C212.982 556.094 213.316 555.76 213.316 555.26C212.482 542.58 209.477 531.901 200.631 528.898C200.13 528.731 199.796 528.398 199.796 527.897L198.461 508.043C198.294 506.374 195.623 505.206 192.118 505.54C188.78 505.707 186.109 507.208 186.276 508.877L187.611 528.565C187.611 529.065 187.444 529.399 186.944 529.732C179.599 533.737 178.097 544.749 178.765 557.429C178.932 557.429 178.932 557.429 178.765 557.429Z" fill="#AD033C"/>
<path d="M89.132 572.111C89.132 572.612 89.7996 573.279 90.3004 573.613C93.1379 574.948 96.4762 572.612 96.1424 569.442C96.1424 569.108 96.1424 568.608 96.1424 568.274C95.9755 559.598 100.148 552.424 105.99 552.257C111.832 552.09 116.506 558.931 116.84 567.773C116.84 568.107 116.84 568.608 116.84 569.108C116.673 572.445 120.512 574.781 123.183 572.779C123.85 572.278 124.017 572.111 124.017 571.444C123.683 558.764 121.013 547.919 112.5 544.582C111.999 544.415 111.665 544.081 111.665 543.581L111.165 523.726C110.998 522.058 108.327 520.723 104.989 521.057C101.651 521.057 98.9799 522.558 98.9799 524.06L99.6476 543.748C99.6476 544.248 99.4807 544.582 98.9799 544.749C90.968 548.253 88.9651 559.264 89.132 572.111C89.2989 571.945 89.2989 571.945 89.132 572.111Z" fill="#AD033C"/>
<path d="M45.067 168.013C63.0937 151.328 243.194 146.156 369.048 151.829C494.902 157.502 799.854 89.9294 849.261 124.633C898.668 159.337 830.066 206.053 838.745 232.582C847.592 259.11 851.264 295.482 834.573 312.5C817.881 329.519 779.491 373.065 782.996 406.267C786.501 439.469 816.045 491.525 788.003 515.718C759.962 539.91 550.651 466.331 413.948 474.006C277.245 481.681 105.824 537.908 81.1205 517.052C53.9134 494.028 98.3127 466.331 70.1041 429.459C57.7525 413.275 87.6302 360.552 55.2487 342.366C25.0372 325.514 69.2696 244.928 49.2398 228.744C29.2101 212.394 33.8837 178.19 45.067 168.013Z" fill="#FFD3CA"/>
<path d="M154.73 152.329L116.005 154.665C78.4497 157.668 51.5764 162.173 45.0668 168.013C41.0608 171.683 37.8894 178.357 36.3872 186.032L156.065 179.024L154.73 152.329Z" fill="url(#paint0_linear)" stroke="#561313" stroke-width="0.5" stroke-miterlimit="10"/>
<path d="M369.048 151.828C366.711 151.662 364.541 151.662 362.205 151.495L363.039 167.011L369.716 166.678L511.927 158.335L511.092 142.819C455.844 148.992 405.102 153.33 369.048 151.828Z" fill="url(#paint1_linear)" stroke="#561313" stroke-width="0.5" stroke-miterlimit="10"/>
<path d="M511.927 158.169L518.603 157.835L719.068 146.156L717.565 119.461L695.199 120.796C637.447 126.802 571.515 135.812 511.092 142.652L511.927 158.169Z" fill="#F78181" stroke="#561313" stroke-width="0.5" stroke-miterlimit="10"/>
<path d="M156.232 179.025L162.742 178.691L363.206 167.012L362.372 151.495C302.115 148.992 230.509 148.992 170.587 151.328L154.73 152.329L156.232 179.025Z" fill="#F78181" stroke="#561313" stroke-width="0.5" stroke-miterlimit="10"/>
<path d="M719.067 146.156L725.744 145.822L804.861 141.151L794.513 141.818L862.447 137.814C859.609 133.309 855.269 128.804 849.26 124.633C840.247 118.293 822.554 115.29 798.852 114.789L793.01 115.123L798.852 114.789L717.565 119.461L719.067 146.156Z" fill="url(#paint2_linear)" stroke="#561313" stroke-width="0.5" stroke-miterlimit="10"/>
<path d="M156.232 179.024L36.5542 186.032C36.3873 186.866 36.2204 187.7 36.0535 188.701C36.0535 188.701 36.0535 188.701 36.0535 188.868C35.7197 191.538 35.5527 194.374 35.5527 197.21C35.5527 197.377 35.5527 197.377 35.5527 197.544C35.5527 198.378 35.5527 199.213 35.7196 200.047V200.214C35.8866 202.049 36.0535 203.884 36.3873 205.719C36.3873 205.886 36.3873 206.053 36.5542 206.22C36.7211 206.887 36.8881 207.722 37.055 208.389C37.055 208.556 37.2219 208.723 37.2219 209.056C37.3888 209.891 37.7226 210.725 37.8895 211.559C38.2234 212.393 38.5572 213.227 38.891 214.062C38.891 214.229 39.0579 214.395 39.0579 214.395L154.73 207.722L161.239 207.388L159.57 178.857L156.232 179.024Z" fill="url(#paint3_linear)" stroke="#561313" stroke-width="0.5" stroke-miterlimit="10"/>
<path d="M511.927 158.169L369.883 166.511L366.377 166.678L368.047 195.208L510.258 187.033L516.934 186.532L515.265 158.002L511.927 158.169Z" fill="url(#paint4_linear)" stroke="#561313" stroke-width="0.5" stroke-miterlimit="10"/>
<path d="M719.068 146.156L518.603 157.835L515.265 158.002L516.934 186.532L717.399 174.853L724.075 174.519L722.406 145.989L719.068 146.156Z" fill="#F78181" stroke="#561313" stroke-width="0.5" stroke-miterlimit="10"/>
<path d="M363.206 166.845L162.742 178.524L159.403 178.857L161.072 207.388L361.537 195.709L368.046 195.208L366.377 166.678L363.206 166.845Z" fill="#F78181" stroke="#561313" stroke-width="0.5" stroke-miterlimit="10"/>
<path d="M867.288 156.667C867.288 156.166 867.288 155.666 867.288 155.165V154.999C867.288 154.498 867.288 153.997 867.288 153.664V153.497C867.288 152.996 867.288 152.496 867.288 151.995C867.288 151.995 867.288 151.995 867.288 151.828C867.121 149.326 866.62 146.656 865.618 144.154C865.618 143.987 865.618 143.987 865.452 143.82C865.285 143.319 865.118 142.986 864.951 142.485C864.951 142.318 864.784 142.318 864.784 142.151C864.617 141.818 864.45 141.317 864.283 140.984C864.283 140.817 864.116 140.817 864.116 140.65C863.949 140.316 863.615 139.816 863.449 139.482C863.449 139.315 863.282 139.315 863.282 139.148C863.115 138.648 862.781 138.314 862.447 137.813L794.513 141.818L804.862 141.15L725.744 145.822L722.406 145.989L724.075 174.519L791.675 170.515L800.856 170.015L865.618 166.177C866.453 163.174 867.121 160.004 867.288 156.667Z" fill="url(#paint5_linear)" stroke="#561313" stroke-width="0.5" stroke-miterlimit="10"/>
<path d="M81.1202 517.052C90.1336 524.727 119.177 522.057 159.069 515.05L159.236 500.367V500.201L71.9399 499.533C72.2738 505.706 74.6106 511.546 81.1202 517.052Z" fill="url(#paint6_linear)" stroke="#561313" stroke-width="0.5" stroke-miterlimit="10"/>
<path d="M655.807 503.871C680.51 508.71 703.377 513.214 723.073 516.384L723.24 504.372L655.807 503.871Z" fill="#F78181" stroke="#561313" stroke-width="0.5" stroke-miterlimit="10"/>
<path d="M159.236 500.367L159.069 515.05C180.935 511.212 205.972 506.207 232.846 500.868L165.746 500.367H159.236Z" fill="#F78181" stroke="#561313" stroke-width="0.5" stroke-miterlimit="10"/>
<path d="M723.073 504.372L722.906 516.384C755.955 521.557 779.657 522.891 788.003 515.717C791.675 512.547 794.346 508.876 796.349 504.705L729.75 504.372H723.073Z" fill="url(#paint7_linear)" stroke="#561313" stroke-width="0.5" stroke-miterlimit="10"/>
<path d="M164.077 500.201L164.243 473.673V473.506L77.6149 472.838C75.1112 482.349 71.7729 491.191 72.1067 499.367L157.567 500.034L164.077 500.201Z" fill="url(#paint8_linear)" stroke="#561313" stroke-width="0.5" stroke-miterlimit="10"/>
<path d="M727.914 504.205V498.032L728.081 477.677L527.283 476.175H520.606V480.013C566.174 486.019 612.91 495.362 654.304 503.538L721.404 504.038L727.914 504.205Z" fill="#F78181" stroke="#561313" stroke-width="0.5" stroke-miterlimit="10"/>
<path d="M371.551 475.174L170.753 473.673H164.244L164.077 500.201L234.348 500.702C277.578 492.193 325.483 483.183 371.551 477.844V475.174Z" fill="#F78181" stroke="#561313" stroke-width="0.5" stroke-miterlimit="10"/>
<path d="M799.52 478.177L734.758 477.844H728.081L727.914 498.199V504.372V504.539L796.349 505.039C799.854 497.031 800.522 487.854 799.52 478.177Z" fill="url(#paint9_linear)" stroke="#561313" stroke-width="0.5" stroke-miterlimit="10"/>
<path d="M167.249 474.674L167.415 448.145H160.739L78.7839 447.478C80.9538 456.988 79.4515 465.831 77.1147 474.006L160.572 474.674H167.249Z" fill="url(#paint10_linear)" stroke="#561313" stroke-width="0.5" stroke-miterlimit="10"/>
<path d="M523.778 477.176L523.945 450.648H517.268L374.89 449.647L374.723 476.175L387.242 476.342C396.255 475.508 405.102 474.841 413.781 474.34C438.651 473.005 466.025 474.173 494.234 477.176L516.934 477.343L523.778 477.176Z" fill="url(#paint11_linear)" stroke="#561313" stroke-width="0.5" stroke-miterlimit="10"/>
<path d="M523.944 450.648L523.777 477.176L724.576 478.678H731.252L731.419 452.15L724.742 451.983L523.944 450.648Z" fill="#F78181" stroke="#561313" stroke-width="0.5" stroke-miterlimit="10"/>
<path d="M167.415 447.979L167.249 474.674L368.047 476.008L374.723 476.175L374.89 449.48H368.214L167.415 447.979Z" fill="#F78181" stroke="#561313" stroke-width="0.5" stroke-miterlimit="10"/>
<path d="M731.42 452.149L731.253 478.678L799.02 479.178H799.688C798.853 470.669 796.85 461.66 794.514 452.483L731.42 452.149Z" fill="url(#paint12_linear)" stroke="#561313" stroke-width="0.5" stroke-miterlimit="10"/>
<path d="M164.577 423.452L67.4331 422.785C67.9338 425.454 68.7684 427.79 70.1037 429.458C74.9443 435.799 77.6149 441.805 78.9502 447.478L164.41 448.145L164.577 423.452Z" fill="url(#paint13_linear)" stroke="#561313" stroke-width="0.5" stroke-miterlimit="10"/>
<path d="M371.885 424.954L371.551 449.647H378.228L520.773 450.648L520.94 425.955L371.885 424.954Z" fill="url(#paint14_linear)" stroke="#561313" stroke-width="0.5" stroke-miterlimit="10"/>
<path d="M520.772 450.648L527.449 450.814L728.247 452.149L728.414 427.456L520.939 425.955L520.772 450.648Z" fill="#F78181" stroke="#561313" stroke-width="0.5" stroke-miterlimit="10"/>
<path d="M164.577 423.452L164.41 448.145H170.92L371.551 449.647L371.885 424.954L164.577 423.452Z" fill="#F78181" stroke="#561313" stroke-width="0.5" stroke-miterlimit="10"/>
<path d="M728.414 427.457L728.248 452.15H734.924L794.513 452.65C792.343 444.308 789.672 435.799 787.502 427.79L728.414 427.457Z" fill="url(#paint15_linear)" stroke="#561313" stroke-width="0.5" stroke-miterlimit="10"/>
<path d="M172.923 398.426L68.7688 397.758C67.4335 407.102 66.2651 415.944 67.4335 422.451L172.757 423.286L172.923 398.426Z" fill="url(#paint16_linear)" stroke="#561313" stroke-width="0.5" stroke-miterlimit="10"/>
<path d="M380.231 399.927L379.897 424.62H386.574L529.118 425.621L529.285 400.928L380.231 399.927Z" fill="url(#paint17_linear)" stroke="#561313" stroke-width="0.5" stroke-miterlimit="10"/>
<path d="M529.119 425.621L535.795 425.788L736.593 427.123L736.76 402.43L529.286 400.928L529.119 425.621Z" fill="#F78181" stroke="#561313" stroke-width="0.5" stroke-miterlimit="10"/>
<path d="M172.923 398.426L172.756 423.119H179.266L379.897 424.62L380.231 399.927L172.923 398.426Z" fill="#F78181" stroke="#561313" stroke-width="0.5" stroke-miterlimit="10"/>
<path d="M782.829 402.764L736.76 402.43L736.593 427.123H743.27L787.502 427.457C785.499 419.949 783.83 412.775 783.162 406.268C782.996 405.1 782.829 403.932 782.829 402.764Z" fill="url(#paint18_linear)" stroke="#561313" stroke-width="0.5" stroke-miterlimit="10"/>
<path d="M165.97 373.667L70.5004 372.5C70.5004 382.5 69 390.5 68 397.5L165.803 398.527L165.97 373.667Z" fill="url(#paint19_linear)" stroke="#561313" stroke-width="0.5" stroke-miterlimit="10"/>
<path d="M373.278 375.169L372.944 399.862H379.62L522.165 400.863L522.332 376.17L373.278 375.169Z" fill="url(#paint20_linear)" stroke="#561313" stroke-width="0.5" stroke-miterlimit="10"/>
<path d="M522.166 400.863L528.842 401.03L729.64 402.365L729.807 377.672L522.332 376.17L522.166 400.863Z" fill="#F78181" stroke="#561313" stroke-width="0.5" stroke-miterlimit="10"/>
<path d="M165.97 373.667L165.803 398.361H172.313L372.944 399.862L373.278 375.169L165.97 373.667Z" fill="#F78181" stroke="#561313" stroke-width="0.5" stroke-miterlimit="10"/>
<path d="M788 377.672H729.807L729.64 402.365H736.317H782.5C782.5 397 782.5 391.5 785 385.5C784.834 384.332 788 378.84 788 377.672Z" fill="url(#paint21_linear)" stroke="#561313" stroke-width="0.5" stroke-miterlimit="10"/>
<path d="M166.247 263.782L164.578 235.251V235.084L54.4145 241.425C55.0822 249.266 53.4131 259.444 51.2432 270.456L159.404 264.116L166.247 263.782Z" fill="url(#paint22_linear)" stroke="#561313" stroke-width="0.5" stroke-miterlimit="10"/>
<path d="M515.265 243.427L521.942 243.093L520.273 214.396L378.061 222.738L371.385 223.071L373.054 251.769L515.265 243.427Z" fill="url(#paint23_linear)" stroke="#561313" stroke-width="0.5" stroke-miterlimit="10"/>
<path d="M722.573 231.414L729.082 230.913L727.413 202.383L526.949 214.062L520.272 214.396L521.942 243.093L722.573 231.414Z" fill="#F78181" stroke="#561313" stroke-width="0.5" stroke-miterlimit="10"/>
<path d="M366.545 252.102L373.054 251.769L371.385 223.071L171.088 234.75L164.578 235.251L166.247 263.781L366.545 252.102Z" fill="#F78181" stroke="#561313" stroke-width="0.5" stroke-miterlimit="10"/>
<path d="M734.09 202.049L727.413 202.383L729.082 231.08L804.695 226.742V226.575L838.244 224.573C839.413 215.897 845.422 205.72 851.764 195.042L813.04 197.377L734.09 202.049Z" fill="url(#paint24_linear)" stroke="#561313" stroke-width="0.5" stroke-miterlimit="10"/>
<path d="M157.004 292.74L155.335 264.21V264.043L51 270.5C49 278.5 47.6699 288.488 45.5 299.5L150.161 293.074L157.004 292.74Z" fill="url(#paint25_linear)" stroke="#561313" stroke-width="0.5" stroke-miterlimit="10"/>
<path d="M506.022 272.385L512.699 272.051L511.029 243.354L368.818 251.696L362.142 252.03L363.811 280.727L506.022 272.385Z" fill="url(#paint26_linear)" stroke="#561313" stroke-width="0.5" stroke-miterlimit="10"/>
<path d="M713.33 260.372L719.839 259.872L718.17 231.341L517.706 243.02L511.029 243.354L512.698 272.051L713.33 260.372Z" fill="#F78181" stroke="#561313" stroke-width="0.5" stroke-miterlimit="10"/>
<path d="M357.301 281.061L363.811 280.727L362.142 252.03L161.845 263.709L155.335 264.209L157.004 292.74L357.301 281.061Z" fill="#F78181" stroke="#561313" stroke-width="0.5" stroke-miterlimit="10"/>
<path d="M724.847 231.007L718.17 231.341L719.839 260.039L795.451 255.701V255.534L844 252C844 244 836.5 234.5 838.5 224L803.797 226.336L724.847 231.007Z" fill="url(#paint27_linear)" stroke="#561313" stroke-width="0.5" stroke-miterlimit="10"/>
<path d="M159.571 235.085L157.901 206.554V206.387L38.3906 213.395C40.5605 219.234 44.0657 224.573 49.2401 228.744C52.5784 231.414 54.0806 235.752 54.4144 241.258L152.894 235.585L159.571 235.085Z" fill="url(#paint28_linear)" stroke="#561313" stroke-width="0.5" stroke-miterlimit="10"/>
<path d="M508.755 214.729L515.432 214.396L513.763 185.865L371.552 194.041L364.875 194.541L366.544 223.072L508.755 214.729Z" fill="url(#paint29_linear)" stroke="#561313" stroke-width="0.5" stroke-miterlimit="10"/>
<path d="M715.897 202.717L722.406 202.216L720.737 173.686L520.44 185.365L513.763 185.865L515.432 214.396L715.897 202.717Z" fill="#F78181" stroke="#561313" stroke-width="0.5" stroke-miterlimit="10"/>
<path d="M360.035 223.405L366.544 223.071L364.875 194.541L164.411 206.22L157.901 206.554L159.571 235.084L360.035 223.405Z" fill="#F78181" stroke="#561313" stroke-width="0.5" stroke-miterlimit="10"/>
<path d="M727.413 173.352L720.737 173.685L722.406 202.383L798.018 198.045V197.878L851.932 194.708C857.44 185.198 863.282 175.187 865.786 165.176L806.364 168.68L727.413 173.352Z" fill="url(#paint30_linear)" stroke="#561313" stroke-width="0.5" stroke-miterlimit="10"/>
<path d="M45.067 168.013C63.0937 151.328 243.194 146.156 369.048 151.829C494.902 157.502 799.854 89.9294 849.261 124.633C898.668 159.337 830.066 206.053 838.745 232.582C847.592 259.11 851.264 295.482 834.573 312.5C817.881 329.519 779.491 373.065 782.996 406.267C786.501 439.469 816.045 491.525 788.003 515.718C759.962 539.91 550.651 466.331 413.948 474.006C277.245 481.681 105.824 537.908 81.1205 517.052C53.9134 494.028 98.3127 466.331 70.1041 429.459C57.7525 413.275 87.6302 360.552 55.2487 342.366C25.0372 325.514 69.2696 244.928 49.2398 228.744C29.2101 212.394 33.8837 178.19 45.067 168.013Z" stroke="#B71D1D" stroke-width="4"/>
<path d="M508.275 319.731C505.781 310.361 518.197 295.392 536.719 286.984C555.353 278.658 587.963 287.322 571.808 302.953C563.143 311.449 549.581 305.718 538.947 312.246C516.557 326.357 510.85 328.991 508.275 319.731Z" fill="#E69264"/>
<path opacity="0.3608" d="M510.923 313.128C511.968 312.872 513.787 313.188 515.356 313.148C516.156 313.225 517.282 312.858 517.44 311.948C517.546 311.341 516.852 310.658 516.275 310.745C515.697 310.833 515.067 311.223 514.407 311.421C513.859 311.701 513.089 311.817 512.535 311.408C512.092 311.081 511.976 310.311 512.192 309.786C512.298 309.18 512.707 308.626 512.923 308.101C513.823 306.882 515.247 305.879 516.325 306.504C516.961 306.802 517.159 307.461 517.549 308.092C517.828 308.64 518.329 309.352 518.936 309.458C519.542 309.563 520.336 308.951 520.331 308.262C519.556 307.69 518.699 307.229 518.005 306.546C517.312 305.863 516.7 305.069 516.637 303.996C516.574 302.922 517.362 301.622 518.354 301.669C518.932 301.582 519.596 302.072 519.876 302.621C520.155 303.169 520.353 303.829 520.743 304.459C521.837 307.149 525.964 310.366 526.396 309.316C526.666 308.488 524.311 306.579 523.087 304.991C521.864 303.404 520.693 301.513 521.145 299.279C521.332 298.561 521.712 297.815 522.231 297.342C522.751 296.87 523.603 296.643 524.075 297.163C524.85 297.735 524.942 299.001 525.005 300.074C525.15 301.037 525.738 302.327 526.672 301.989C526.854 300.583 526.184 299.404 525.9 298.167C525.615 296.93 525.657 295.25 526.586 294.224C527.462 293.501 528.675 293.712 529.479 294.476C530.172 295.159 530.539 296.285 530.905 297.411C531.469 299.197 532.033 300.982 532.569 302.575C532.795 303.427 533.436 304.414 534.177 304.105C534.726 303.825 535.024 303.189 534.937 302.612C534.85 302.034 534.57 301.486 534.402 301.019C533.453 299.291 532.556 297.261 531.771 295.312C531.404 294.186 530.927 292.978 531.552 291.899C532.148 290.627 533.607 290.506 534.82 290.716C536.861 291.196 538.335 293.139 539.231 295.17C540.046 297.312 540.394 299.622 540.631 301.851C541.097 301.682 541.425 301.239 541.53 300.632C541.554 300.136 541.467 299.558 541.491 299.063C541.061 296.863 540.357 294.803 539.572 292.854C539.263 292.113 538.955 291.372 538.81 290.409C538.776 289.528 539.127 288.589 539.839 288.088C540.662 287.669 541.519 288.13 542.02 288.842C542.521 289.554 542.555 290.435 542.7 291.398C542.845 292.36 542.99 293.323 543.462 293.842C543.712 294.198 544.126 294.333 544.482 294.082C544.564 293.971 544.617 293.668 544.669 293.365C544.654 291.299 543.017 289.578 543.608 287.618C543.958 286.679 544.834 285.956 545.633 286.032C546.432 286.108 547.236 286.873 547.463 287.725C547.608 288.688 547.146 289.545 547.099 290.537C547.051 291.528 547.61 292.625 548.462 292.398C549.011 292.119 549.39 291.372 549.193 290.713C549.188 290.024 548.908 289.476 548.71 288.817C548.565 287.854 548.806 286.833 549.378 286.057C549.95 285.282 551.216 285.189 551.741 285.405C552.266 285.622 552.901 285.919 553.07 286.386C553.239 286.853 553.133 287.46 553.028 288.066C552.605 290.493 552.708 293.136 553.633 295.359C553.802 295.826 553.971 296.293 554.385 296.427C554.717 296.672 555.294 296.585 555.621 296.142C555.867 295.809 555.809 295.424 555.669 295.15C554.941 293.586 554.681 291.853 554.449 290.313C554.304 289.351 554.178 287.204 554.75 286.428C555.977 284.766 558.571 285.654 558.822 286.01C559.183 286.448 559.188 287.136 559.165 287.632C559.199 288.513 559.204 289.202 559.156 290.193C559.103 290.497 559.161 290.882 559.412 291.238C559.552 291.512 559.884 291.757 560.269 291.699C560.736 291.53 560.923 290.813 560.947 290.317C560.994 289.325 560.739 288.281 560.512 287.429C560.483 287.236 560.343 286.962 560.396 286.659C560.56 286.437 560.834 286.297 561.027 286.268C562.182 286.094 563.453 286.69 564.012 287.787C564.349 288.72 564.412 289.794 564.365 290.785C564.317 291.777 564.573 292.822 565.184 293.615C565.406 293.779 565.738 294.024 566.041 294.077C566.345 294.129 566.783 293.768 566.835 293.465C566.97 293.05 566.801 292.584 566.633 292.117C566.353 291.568 566.126 290.716 566.121 290.028C566.145 289.532 566.169 289.036 566.414 288.704C566.852 288.342 567.266 288.477 567.791 288.693C569.144 289.178 570.415 289.774 571.551 290.784C572.577 291.712 573.468 293.054 573.811 294.676C574.153 296.298 573.726 298.036 572.634 299.284C572.307 299.727 571.676 300.118 571.262 299.983C570.848 299.849 570.569 299.301 570.4 298.834C569.517 294.93 569.383 295.345 569.079 295.292C568.776 295.239 568.57 297.141 568.715 298.104C568.86 299.066 569.279 299.889 569.313 300.77C569.458 301.733 569.136 302.864 568.313 303.284C567.823 303.949 566.889 304.286 566.143 303.907C565.507 303.609 564.925 303.008 564.698 302.156C564.389 301.415 564.163 300.563 564.047 299.793C563.704 298.171 563.087 296.689 562.196 295.346C562.167 295.154 561.946 294.99 561.724 294.827C561.503 294.663 561.31 294.692 561.147 294.914C560.983 295.136 560.93 295.439 561.041 295.521C561.244 296.868 561.832 298.158 562.42 299.448C562.897 300.656 563.24 302.278 562.754 303.631C562.379 305.066 560.984 306.261 559.742 305.858C558.803 305.507 558.355 304.492 558.21 303.529C558.065 302.566 558.276 301.353 558.324 300.361C558.348 299.865 558.343 299.177 558.092 298.821C557.842 298.465 557.206 298.167 556.85 298.418C556.302 298.698 556.225 299.497 556.312 300.074C556.346 300.955 556.602 302 556.554 302.991C556.506 303.983 556.074 305.033 555.362 305.534C554.731 305.925 553.961 306.041 553.244 305.854C551.699 305.398 550.86 303.752 550.407 302.049C549.953 300.345 550.078 298.554 550.202 296.763C550.197 296.075 550.221 295.579 549.941 295.03C549.691 294.674 549.055 294.376 548.617 294.738C548.179 295.099 548.295 295.869 548.464 296.336C548.807 297.958 549.038 299.499 549.381 301.121C549.497 301.891 549.724 302.743 549.647 303.542C549.57 304.341 549.22 305.28 548.7 305.752C547.906 306.364 546.833 306.428 546.057 305.856C545.282 305.284 544.863 304.461 544.689 303.306C544.433 302.261 544.674 301.24 544.803 300.138C544.909 299.531 545.014 298.925 544.735 298.376C544.455 297.827 543.93 297.611 543.382 297.891C542.944 298.252 543.031 298.83 543.118 299.408C543.234 300.178 543.268 301.059 543.384 301.829C543.529 302.792 543.911 305.983 541.909 307.073C541.086 307.492 540.065 307.253 539.757 306.511C539.275 304.615 538.763 302.526 538.281 300.63C537.799 298.734 537.206 296.756 535.602 295.915C535.27 295.67 534.774 295.646 534.64 296.06C534.394 296.393 534.645 296.749 534.703 297.134C535.71 299.246 536.635 301.469 537.479 303.803C537.845 304.929 538.13 306.166 537.919 307.38C537.789 308.482 536.943 309.398 536.178 310.202C535.384 310.814 534.508 311.537 533.493 311.986C533.026 312.155 532.396 312.545 532.063 312.3C531.539 312.084 531.533 311.396 531.365 310.929C531.041 308.123 530.443 305.456 529.541 302.737C529.401 302.463 529.343 302.078 529.122 301.914C528.982 301.64 528.679 301.587 528.323 301.838C527.967 302.089 528.054 302.666 528.222 303.133C528.786 304.918 529.351 306.704 529.611 308.437C529.901 310.362 529.806 312.346 528.772 313.978C527.603 316.025 525.52 317.226 523.681 318.094C523.215 318.263 522.859 318.514 522.445 318.379C521.809 318.082 521.775 317.201 521.851 316.401C521.952 315.106 522.052 313.811 522.263 312.598C522.287 312.102 522.311 311.606 522.253 311.221C522.084 310.754 521.752 310.509 521.285 310.678C520.737 310.958 520.689 311.95 520.776 312.527C520.786 313.904 520.879 315.17 520.807 316.658C520.736 318.145 520.361 319.58 519.433 320.606C518.23 321.772 516.742 321.702 515.255 321.631C514.567 321.636 513.628 321.286 513.704 320.486C513.699 319.798 514.33 319.408 514.849 318.935C515.999 318.073 516.98 316.743 517.437 315.197C517.49 314.894 517.624 314.48 517.403 314.316C517.263 314.042 516.878 314.1 516.714 314.322C516.44 314.462 516.277 314.683 516.224 314.987C515.488 315.984 514.588 317.202 513.742 318.118C513.304 318.479 512.977 318.923 512.51 319.091C511.961 319.371 511.547 319.237 511.023 319.021C510.69 318.775 510.522 318.309 510.545 317.813C509.905 316.826 510.346 313.216 510.923 313.128Z" fill="#FDDFD3"/>
<path d="M512.466 316.834C512.524 317.219 512.856 317.464 513.212 317.214C513.486 317.074 513.732 316.741 513.674 316.356C513.616 315.971 513.284 315.726 512.928 315.977C512.572 316.227 512.326 316.56 512.466 316.834Z" fill="#AA2829"/>
<path d="M525.629 313.37C525.686 313.755 526.019 314.001 526.375 313.75C526.731 313.499 526.894 313.278 526.836 312.893C526.778 312.508 526.446 312.262 526.09 312.513C525.816 312.653 525.6 313.178 525.629 313.37Z" fill="#AA2829"/>
<path d="M524.96 305.004C525.018 305.389 525.35 305.635 525.706 305.384C525.981 305.244 526.226 304.912 526.168 304.527C526.11 304.142 525.778 303.896 525.422 304.147C525.147 304.287 524.902 304.619 524.96 305.004Z" fill="#AA2829"/>
<path d="M528.157 298.122C528.215 298.507 528.548 298.752 528.904 298.501C529.178 298.361 529.423 298.029 529.365 297.644C529.307 297.259 528.975 297.014 528.619 297.264C528.263 297.515 528.099 297.737 528.157 298.122Z" fill="#AA2829"/>
<path d="M533.358 294.088C533.416 294.473 533.749 294.718 534.105 294.468C534.379 294.328 534.624 293.996 534.566 293.61C534.508 293.225 534.176 292.98 533.82 293.231C533.464 293.481 533.108 293.732 533.358 294.088Z" fill="#AA2829"/>
<path d="M540.96 305.346C541.018 305.731 541.35 305.976 541.707 305.725C541.981 305.585 542.226 305.253 542.168 304.868C542.11 304.483 541.778 304.238 541.422 304.488C541.037 304.546 540.902 304.96 540.96 305.346Z" fill="#AA2829"/>
<path d="M544.585 296.725C544.643 297.11 544.975 297.355 545.331 297.104C545.606 296.965 545.851 296.632 545.793 296.247C545.735 295.862 545.403 295.617 545.047 295.867C544.772 296.007 544.638 296.421 544.585 296.725Z" fill="#AA2829"/>
<path d="M550.997 288.964C551.055 289.349 551.388 289.594 551.744 289.343C552.018 289.203 552.263 288.871 552.205 288.486C552.147 288.101 551.815 287.856 551.459 288.106C550.992 288.275 550.939 288.579 550.997 288.964Z" fill="#AA2829"/>
<path d="M555.878 290C555.936 290.385 556.268 290.63 556.624 290.379C556.899 290.239 557.144 289.907 557.086 289.522C557.028 289.137 556.696 288.892 556.34 289.142C555.984 289.393 555.82 289.614 555.878 290Z" fill="#AA2829"/>
<path d="M560.829 303.922C560.887 304.307 561.219 304.552 561.575 304.301C561.849 304.161 562.095 303.829 562.037 303.444C561.979 303.059 561.646 302.814 561.29 303.064C560.934 303.315 560.8 303.729 560.829 303.922Z" fill="#AA2829"/>
<path d="M548.904 299.912C548.904 299.912 548.904 299.912 548.794 299.831C548.461 299.585 548.047 299.451 547.691 299.702C547.417 299.842 547.364 300.145 547.393 300.337C547.504 300.419 547.504 300.419 547.504 300.419C547.504 300.419 547.615 300.501 547.644 300.693C547.755 300.775 547.673 300.886 547.784 300.968L547.894 301.049C547.812 301.16 547.649 301.382 547.567 301.493C547.485 301.603 547.514 301.796 547.543 301.988L547.462 302.099C547.572 302.181 547.572 302.181 547.601 302.374C547.52 302.484 547.549 302.677 547.356 302.706C547.356 302.706 547.163 302.735 547.053 302.653C546.778 302.793 546.836 303.178 546.755 303.289C546.755 303.289 546.673 303.4 546.48 303.429C546.399 303.54 546.317 303.65 546.346 303.843C546.293 304.146 546.322 304.339 546.351 304.531C546.269 304.642 546.077 304.671 545.995 304.782C545.692 304.729 545.908 304.204 545.879 304.012C545.961 303.901 546.014 303.598 546.177 303.376C546.259 303.265 546.259 303.265 546.341 303.155C546.504 302.933 546.668 302.711 546.913 302.379C546.995 302.268 547.129 301.854 547.211 301.743C547.293 301.632 547.456 301.411 547.427 301.218C547.317 301.137 547.288 300.944 547.369 300.833C547.23 300.559 546.874 300.81 546.792 300.92C546.272 301.393 546.003 302.221 545.787 302.746C546.085 302.11 546.191 301.504 546.71 301.031C546.984 300.891 547.148 300.67 547.288 300.944C547.398 301.026 547.427 301.218 547.346 301.329C547.264 301.44 547.293 301.632 547.211 301.743C547.077 302.157 546.995 302.268 546.668 302.711C546.504 302.933 546.259 303.265 546.095 303.487C545.932 303.709 545.768 303.93 545.908 304.204C545.826 304.315 545.802 304.811 546.106 304.864C546.187 304.753 546.38 304.724 546.462 304.613C546.707 304.281 546.649 303.896 546.62 303.703C546.702 303.592 546.702 303.592 546.702 303.592C546.784 303.482 546.784 303.482 546.976 303.452C547.25 303.313 547.111 303.038 547.274 302.817L547.356 302.706C547.356 302.706 547.467 302.788 547.549 302.677C547.63 302.566 547.63 302.566 547.712 302.455C547.794 302.344 547.794 302.344 547.794 302.344C547.794 302.344 547.794 302.344 547.876 302.234C547.986 302.315 547.905 302.426 547.823 302.537C547.741 302.648 547.741 302.648 547.741 302.648C547.77 302.84 547.688 302.951 547.91 303.115C547.828 303.225 548.021 303.196 547.939 303.307C547.857 303.418 547.857 303.418 547.775 303.529C547.693 303.64 547.722 303.832 547.641 303.943C547.559 304.054 547.477 304.164 547.395 304.275C547.343 304.579 547.179 304.8 547.208 304.993C547.126 305.104 547.126 305.104 546.934 305.133C546.659 305.272 546.356 305.22 546.053 305.167C545.942 305.085 545.913 304.893 545.884 304.7C546.158 304.56 546.158 304.56 546.433 304.421C546.625 304.392 546.707 304.281 546.9 304.252C546.9 304.252 546.9 304.252 546.818 304.362C546.543 304.502 546.543 304.502 546.269 304.642C546.077 304.671 546.077 304.671 545.913 304.893C545.831 305.004 545.831 305.004 545.75 305.114C545.779 305.307 545.697 305.418 545.726 305.61C545.837 305.692 546.029 305.663 546.029 305.663C546.222 305.634 546.414 305.605 546.607 305.576C546.688 305.465 546.77 305.354 546.852 305.243C546.934 305.133 547.068 304.718 547.039 304.526C547.039 304.526 547.121 304.415 547.203 304.304C547.285 304.194 547.285 304.194 547.448 303.972C547.53 303.861 547.501 303.669 547.501 303.669L547.583 303.558C547.664 303.447 547.635 303.254 547.525 303.173C547.496 302.98 547.578 302.869 547.549 302.677C547.549 302.677 547.549 302.677 547.63 302.566L547.712 302.455C547.794 302.344 547.683 302.263 547.765 302.152L547.847 302.041C547.928 301.93 547.928 301.93 548.01 301.82C548.174 301.598 548.227 301.295 548.279 300.991C548.361 300.88 548.169 300.91 548.25 300.799C548.443 300.77 548.606 300.548 548.688 300.437C548.77 300.327 548.962 300.297 548.852 300.216C548.933 300.105 549.097 299.883 549.068 299.691C549.015 299.994 549.015 299.994 548.904 299.912ZM548.145 301.405C548.092 301.709 548.121 301.901 548.068 302.205C547.986 302.315 547.986 302.315 547.986 302.315C548.068 302.205 547.876 302.234 547.957 302.123L547.847 302.041L547.928 301.93C548.01 301.82 547.981 301.627 547.981 301.627C548.063 301.516 548.227 301.295 548.308 301.184C548.034 301.324 548.145 301.405 548.145 301.405ZM548.717 300.63C548.443 300.77 548.39 301.073 548.198 301.102C548.198 301.102 548.198 301.102 548.005 301.131L547.894 301.049C547.783 300.968 547.865 300.857 547.755 300.775C547.644 300.693 547.726 300.583 547.615 300.501C547.615 300.501 547.504 300.419 547.393 300.337C547.393 300.337 547.283 300.256 547.364 300.145C547.364 300.145 547.364 300.145 547.446 300.034C547.802 299.783 548.187 299.725 548.519 299.971C548.519 299.971 548.712 299.941 548.741 300.134C548.77 300.327 548.77 300.327 548.881 300.408C548.991 300.49 548.799 300.519 548.717 300.63Z" fill="#AA2829"/>
<path d="M718.623 325.369C723.391 332.988 713.919 348.185 696.75 358.627C679.468 369.152 643.926 367.238 656.96 350.973C663.986 342.116 679.199 344.792 688.54 337.182C708.573 320.963 713.855 317.75 718.623 325.369Z" fill="#E69264"/>
<path opacity="0.3608" d="M717.297 331.576C716.231 332.017 714.327 332.033 712.786 332.303C711.973 332.381 710.907 332.822 710.873 333.718C710.981 334.335 711.735 334.647 712.352 334.54C712.968 334.432 713.531 334.015 714.093 333.599C714.656 333.183 715.385 332.992 715.943 333.275C716.501 333.559 716.722 334.092 716.747 334.597C716.772 335.101 716.488 335.659 716.317 336.134C715.638 337.333 714.371 338.445 713.113 338.156C712.443 337.956 711.914 337.476 711.385 336.997C710.968 336.434 710.327 336.038 709.627 336.033C708.927 336.029 708.223 336.724 708.527 337.37C709.477 337.712 710.426 338.055 711.376 338.397C712.213 338.822 713.021 339.444 713.379 340.398C713.737 341.352 713.058 342.552 712.133 342.714C711.517 342.821 710.846 342.621 710.317 342.142C709.872 341.775 709.455 341.212 709.039 340.649C707.26 338.482 702.262 336.433 702.116 337.412C701.999 338.195 704.819 339.418 706.548 340.577C708.193 341.624 709.863 343.175 709.767 345.162C709.762 345.862 709.562 346.532 709.083 347.061C708.604 347.59 707.762 347.864 707.204 347.581C706.254 347.239 705.926 346.088 705.651 345.247C705.376 344.405 704.318 343.446 703.56 343.833C703.776 345.066 704.638 345.996 705.275 347.092C705.913 348.188 706.212 349.534 705.45 350.621C704.716 351.512 703.429 351.42 702.396 350.965C701.476 350.427 700.893 349.639 700.226 348.739C699.339 347.305 698.257 345.842 697.34 344.604C696.953 343.845 696.062 343.112 695.387 343.611C694.937 343.944 694.653 344.502 694.874 345.036C695.095 345.569 695.457 345.823 695.79 346.274C697.181 347.683 698.572 349.092 699.822 350.78C700.488 351.68 701.238 352.693 700.783 353.726C700.412 354.871 698.954 355.254 697.638 355.357C695.455 355.231 693.56 353.846 692.198 352.241C690.949 350.553 690.037 348.616 689.238 346.594C688.704 346.815 688.533 347.29 688.558 347.794C688.583 348.298 688.833 348.636 689.054 349.169C689.995 350.911 691.132 352.682 692.41 354.175C692.91 354.85 693.439 355.329 693.713 356.171C693.988 357.013 693.759 357.879 693.084 358.379C692.409 358.878 691.43 358.732 690.622 358.111C690.01 357.519 689.623 356.76 689.348 355.918C688.961 355.16 688.686 354.318 687.961 353.809C687.599 353.555 687.124 353.384 686.87 353.746C686.841 353.942 686.811 354.138 686.782 354.334C687.219 356.1 689.452 357.235 689.16 359.193C689.043 359.976 688.309 360.867 687.385 361.029C686.46 361.191 685.539 360.653 685.152 359.895C684.765 359.136 685.107 358.186 684.832 357.345C684.753 356.532 683.891 355.603 683.02 356.073C682.487 356.293 682.37 357.076 682.591 357.61C682.811 358.143 683.144 358.593 683.448 359.239C683.836 359.998 683.885 361.006 683.377 361.731C682.869 362.455 681.635 362.671 681.019 362.779C680.402 362.887 679.648 362.574 679.315 362.124C678.982 361.674 679.041 361.282 678.932 360.665C678.862 358.453 678.092 356.236 676.647 354.519C676.397 354.181 676.064 353.731 675.56 353.756C675.085 353.585 674.552 353.805 674.381 354.28C674.239 354.559 674.376 354.98 674.543 355.205C675.655 356.472 676.263 357.764 676.842 359.252C677.229 360.01 677.749 361.89 677.436 362.644C676.586 364.318 673.733 363.991 673.37 363.737C672.925 363.37 672.787 362.949 672.679 362.332C672.488 361.603 672.296 360.874 672.105 360.145C672.051 359.836 671.884 359.611 671.634 359.273C671.468 359.048 670.993 358.877 670.768 359.044C670.235 359.264 670.343 359.881 670.368 360.385C670.53 361.31 670.917 362.069 671.5 362.856C671.667 363.081 671.833 363.307 671.804 363.502C671.775 363.698 671.55 363.865 671.242 363.919C670.092 364.247 668.638 363.929 667.859 363.112C667.276 362.325 667.002 361.483 666.727 360.641C666.452 359.799 666.094 358.845 665.257 358.42C664.978 358.278 664.699 358.136 664.195 358.161C663.803 358.102 663.436 358.548 663.491 358.856C663.432 359.247 663.765 359.698 664.128 359.952C664.544 360.515 664.96 361.077 665.069 361.694C665.206 362.115 665.231 362.619 665.006 362.786C664.752 363.148 664.164 363.06 663.66 363.085C662.177 362.963 660.724 362.645 659.328 361.936C658.016 361.34 656.763 360.351 656.155 359.059C655.547 357.768 655.389 356.143 656.293 354.777C656.464 354.302 657.026 353.886 657.531 353.861C658.035 353.836 658.368 354.286 658.701 354.737C660.529 357.912 660.587 357.521 660.866 357.663C661.175 357.609 660.933 355.871 660.63 355.225C660.242 354.467 659.547 353.762 659.355 353.033C658.968 352.274 659.031 351.183 659.902 350.713C660.297 350.071 661.168 349.601 661.951 349.718C662.735 349.835 663.459 350.344 663.876 350.907C664.405 351.386 664.792 352.145 665.179 352.903C665.983 354.225 666.899 355.463 667.957 356.421C668.123 356.647 668.319 356.676 668.598 356.818C668.794 356.847 669.102 356.793 669.131 356.597C669.161 356.401 669.107 356.093 669.023 355.98C668.499 354.801 667.637 353.872 666.804 352.746C666.054 351.733 665.334 350.525 665.538 349.154C665.63 347.867 666.73 346.53 668.213 346.652C669.192 346.798 669.971 347.615 670.246 348.457C670.52 349.299 670.57 350.307 670.732 351.232C670.757 351.736 670.978 352.27 671.34 352.524C671.703 352.778 672.373 352.979 672.711 352.729C673.161 352.396 673.082 351.584 672.861 351.05C672.586 350.208 672.199 349.45 671.924 348.608C671.762 347.683 671.908 346.704 672.583 346.205C673.062 345.676 673.987 345.514 674.687 345.519C676.366 345.67 677.59 346.854 678.477 348.287C679.168 349.692 679.634 351.263 679.905 352.804C680.013 353.421 680.15 353.842 680.596 354.209C680.958 354.463 681.629 354.664 681.996 354.218C682.362 353.773 681.946 353.21 681.809 352.789C681.117 351.385 680.51 350.093 679.789 348.884C679.485 348.238 679.098 347.479 678.99 346.863C678.882 346.246 678.915 345.35 679.507 344.738C680.211 344.043 681.248 343.798 682.198 344.14C683.148 344.482 683.731 345.27 684.201 346.141C684.672 347.012 684.722 348.021 684.801 348.833C684.825 349.337 684.934 349.954 685.267 350.404C685.6 350.854 686.3 350.859 686.75 350.526C687.004 350.163 686.896 349.547 686.758 349.126C686.454 348.48 686.263 347.751 685.876 346.992C685.488 346.234 684.498 343.483 686.185 342.235C686.86 341.735 688.064 341.715 688.564 342.39C689.534 343.937 690.475 345.679 691.445 347.225C692.415 348.771 693.469 350.43 695.314 350.806C695.706 350.865 696.21 350.84 696.268 350.448C696.41 350.169 696.16 349.832 695.91 349.494C694.353 347.86 692.908 346.143 691.688 344.259C691.021 343.358 690.467 342.375 690.418 341.367C690.368 340.358 690.906 339.438 691.526 338.63C692.231 337.935 692.935 337.239 693.918 336.686C694.368 336.353 694.818 336.02 695.405 336.108C695.993 336.196 696.213 336.729 696.434 337.262C697.483 339.621 698.757 341.813 700.115 344.118C700.281 344.343 700.448 344.568 700.727 344.71C701.006 344.852 701.398 344.911 701.539 344.632C701.877 344.382 701.656 343.848 701.406 343.511C700.519 342.077 699.437 340.614 698.745 339.21C698.084 337.609 697.73 335.955 698.384 334.252C699.068 332.352 700.98 330.937 702.751 329.801C703.201 329.468 703.538 329.218 704.013 329.389C704.684 329.589 704.959 330.431 704.984 330.935C705.117 332.056 705.362 333.094 705.466 334.41C705.52 334.719 705.545 335.223 705.795 335.56C706.045 335.898 706.519 336.069 706.857 335.819C707.39 335.599 707.228 334.674 707.007 334.14C706.679 332.99 706.266 331.728 706.133 330.607C705.917 329.373 705.926 327.974 706.659 327.083C707.534 325.912 709.271 325.672 710.7 325.485C711.429 325.294 712.408 325.441 712.6 326.17C712.708 326.786 712.145 327.203 711.779 327.648C710.737 328.593 710.141 329.905 709.937 331.276C709.991 331.584 709.849 331.863 710.128 332.005C710.407 332.147 710.715 332.093 710.94 331.926C711.165 331.76 711.307 331.481 711.336 331.285C711.791 330.252 712.47 329.053 713.203 328.162C713.457 327.799 713.824 327.354 714.274 327.021C714.724 326.688 715.228 326.663 715.703 326.834C716.065 327.089 716.315 327.426 716.453 327.847C717.598 328.219 717.914 331.468 717.297 331.576Z" fill="#FDDFD3"/>
<path d="M715.048 328.537C714.994 328.229 714.52 328.058 714.182 328.308C713.874 328.362 713.703 328.837 713.953 329.174C714.007 329.483 714.482 329.654 714.819 329.404C715.044 329.237 715.103 328.846 715.048 328.537Z" fill="#AA2829"/>
<path d="M702.138 333.912C702.084 333.604 701.609 333.433 701.271 333.683C700.934 333.933 700.792 334.212 701.042 334.549C701.096 334.858 701.571 335.029 701.908 334.779C702.246 334.529 702.304 334.138 702.138 333.912Z" fill="#AA2829"/>
<path d="M704.864 341.125C704.81 340.817 704.335 340.646 703.998 340.896C703.69 340.95 703.519 341.424 703.769 341.762C703.823 342.07 704.298 342.242 704.635 341.992C704.777 341.713 704.918 341.434 704.864 341.125Z" fill="#AA2829"/>
<path d="M703.005 347.553C702.95 347.244 702.476 347.073 702.138 347.323C701.83 347.377 701.659 347.852 701.909 348.189C701.963 348.498 702.438 348.669 702.775 348.419C703.113 348.169 703.254 347.89 703.005 347.553Z" fill="#AA2829"/>
<path d="M698.638 352.004C698.584 351.695 698.109 351.524 697.772 351.774C697.464 351.828 697.293 352.303 697.543 352.641C697.597 352.949 698.072 353.12 698.409 352.87C698.746 352.62 698.917 352.146 698.638 352.004Z" fill="#AA2829"/>
<path d="M688.276 343.648C688.222 343.339 687.747 343.168 687.41 343.418C687.101 343.472 686.93 343.947 687.18 344.285C687.234 344.593 687.709 344.764 688.047 344.514C688.301 344.152 688.443 343.873 688.276 343.648Z" fill="#AA2829"/>
<path d="M686.379 351.671C686.324 351.362 685.85 351.191 685.512 351.441C685.204 351.495 685.033 351.97 685.283 352.307C685.337 352.616 685.812 352.787 686.149 352.537C686.374 352.371 686.545 351.896 686.379 351.671Z" fill="#AA2829"/>
<path d="M681.711 359.479C681.657 359.171 681.182 359 680.845 359.25C680.536 359.304 680.365 359.778 680.615 360.116C680.669 360.424 681.144 360.596 681.482 360.346C681.707 360.179 681.765 359.788 681.711 359.479Z" fill="#AA2829"/>
<path d="M676.308 359.472C676.254 359.164 675.779 358.993 675.442 359.242C675.134 359.296 674.963 359.771 675.213 360.109C675.267 360.417 675.741 360.588 676.079 360.338C676.416 360.089 676.475 359.697 676.308 359.472Z" fill="#AA2829"/>
<path d="M668.092 348.135C668.038 347.826 667.563 347.655 667.226 347.905C666.917 347.959 666.746 348.434 666.996 348.771C667.05 349.08 667.525 349.251 667.863 349.001C668.2 348.751 668.259 348.36 668.092 348.135Z" fill="#AA2829"/>
<path d="M681.268 349.705C681.268 349.705 681.268 349.705 681.463 349.734C681.855 349.793 682.33 349.964 682.584 349.602C682.809 349.435 682.755 349.127 682.672 349.014C682.588 348.902 682.588 348.902 682.476 348.985C682.476 348.985 682.28 348.956 682.197 348.843C682.113 348.731 682.113 348.731 682.03 348.618L681.947 348.506C681.976 348.31 682.089 348.227 682.118 348.031C682.147 347.835 682.064 347.723 682.064 347.723C682.064 347.723 682.064 347.723 682.093 347.527C682.01 347.414 681.897 347.497 681.814 347.385C681.843 347.189 681.76 347.077 682.068 347.023C682.068 347.023 682.264 347.052 682.376 346.969C682.601 346.802 682.435 346.577 682.464 346.381C682.464 346.381 682.576 346.298 682.689 346.215C682.718 346.019 682.718 346.019 682.747 345.823C682.693 345.515 682.61 345.402 682.639 345.207C682.752 345.123 682.864 345.04 682.977 344.957C683.285 344.903 683.31 345.407 683.281 345.603C683.251 345.799 683.222 345.994 683.08 346.273L683.051 346.469C683.022 346.665 682.88 346.944 682.739 347.223C682.709 347.419 682.68 347.615 682.539 347.894C682.509 348.089 682.397 348.173 682.563 348.398C682.647 348.51 682.73 348.623 682.813 348.735C683.092 348.877 683.317 348.711 683.347 348.515C683.713 348.069 683.83 347.286 683.918 346.699C683.718 347.369 683.742 347.874 683.263 348.402C683.038 348.569 682.813 348.735 682.73 348.623C682.647 348.51 682.563 348.398 682.48 348.285C682.509 348.089 682.509 348.089 682.539 347.894C682.597 347.502 682.597 347.502 682.768 347.027C682.91 346.748 683.051 346.469 683.08 346.273C683.11 346.078 683.251 345.799 683.281 345.603C683.31 345.407 683.172 344.986 682.864 345.04C682.752 345.123 682.639 345.207 682.527 345.29C682.385 345.569 682.439 345.877 682.606 346.102C682.606 346.102 682.576 346.298 682.381 346.269C682.156 346.435 682.322 346.66 682.293 346.856L682.18 346.939C682.18 346.939 681.985 346.91 681.872 346.993C681.76 347.077 681.843 347.189 681.731 347.272C681.731 347.272 681.73 347.272 681.701 347.468C681.701 347.468 681.701 347.468 681.589 347.551C681.505 347.439 681.506 347.439 681.535 347.243C681.535 347.243 681.535 347.243 681.564 347.047C681.397 346.822 681.51 346.739 681.314 346.71L681.231 346.597C681.343 346.514 681.26 346.401 681.26 346.401C681.289 346.206 681.206 346.093 681.318 346.01C681.348 345.814 681.348 345.814 681.573 345.647C681.602 345.452 681.548 345.143 681.66 345.06C681.66 345.06 681.773 344.977 681.885 344.894C682.11 344.727 682.418 344.673 682.81 344.732C682.893 344.844 682.977 344.957 683.06 345.069C682.835 345.236 682.752 345.123 682.61 345.402C682.497 345.486 682.302 345.456 682.16 345.735C682.385 345.569 682.468 345.681 682.61 345.402C682.722 345.319 682.918 345.348 682.947 345.153C683.06 345.069 682.977 344.957 682.977 344.957C682.893 344.844 682.923 344.648 682.839 344.536C682.756 344.423 682.531 344.59 682.448 344.477C682.335 344.561 682.139 344.531 681.914 344.698C681.802 344.781 681.773 344.977 681.66 345.06C681.548 345.143 681.685 345.564 681.573 345.647L681.543 345.843C681.543 345.843 681.514 346.039 681.402 346.122C681.402 346.122 681.372 346.318 681.456 346.431C681.456 346.431 681.456 346.431 681.343 346.514C681.314 346.71 681.397 346.822 681.397 346.822C681.481 346.935 681.451 347.131 681.535 347.243C681.535 347.243 681.618 347.356 681.589 347.551L681.56 347.747C681.53 347.943 681.501 348.139 681.555 348.447L681.639 348.56C681.526 348.643 681.301 348.809 681.189 348.893C681.076 348.976 680.964 349.059 681.047 349.172C681.018 349.368 680.905 349.451 680.988 349.563C681.101 349.48 681.184 349.593 681.268 349.705ZM681.697 348.168C681.643 347.86 681.56 347.747 681.701 347.468C681.701 347.468 681.701 347.468 681.731 347.272C681.731 347.272 681.814 347.385 681.897 347.497L682.093 347.527C682.093 347.527 682.093 347.527 682.064 347.723L682.118 348.031C682.089 348.227 681.976 348.31 681.864 348.393C681.78 348.281 681.78 348.281 681.697 348.168ZM681.272 349.005C681.497 348.839 681.526 348.643 681.639 348.56C681.639 348.56 681.639 348.56 681.751 348.476L681.834 348.589C681.918 348.702 682.001 348.814 682.001 348.814C682.001 348.814 682.167 349.039 682.28 348.956L682.476 348.985L682.559 349.098C682.305 349.46 681.801 349.485 681.438 349.23C681.438 349.23 681.243 349.201 681.159 349.088C681.076 348.976 680.993 348.863 680.993 348.863C681.047 349.172 681.159 349.089 681.272 349.005Z" fill="#AA2829"/>
<path d="M152.614 319.87C155.796 311.465 173.494 309.741 192.216 316.918C210.992 324.205 231.098 353.334 210.344 353.034C198.93 352.856 191.852 339.196 180.114 336.45C155.328 330.521 149.433 328.275 152.614 319.87Z" fill="#E69264"/>
<path opacity="0.3608" d="M158.189 317.093C159.172 317.695 160.425 319.116 161.516 320.21C162.116 320.866 163.098 321.467 163.754 320.868C164.246 320.486 163.92 319.557 163.484 319.229C162.993 318.792 162.338 318.573 161.737 318.463C161.082 318.243 160.591 317.806 160.429 317.205C160.266 316.604 160.54 316.058 161.086 315.786C161.469 315.459 162.07 315.296 162.562 315.187C163.928 314.916 165.456 315.246 166.055 316.448C166.382 317.104 166.162 317.758 166.107 318.468C165.996 319.069 165.995 319.888 166.376 320.38C166.812 320.981 167.795 321.037 168.069 320.491C167.743 319.562 167.417 318.634 167.2 317.651C166.983 316.667 167.04 315.685 167.587 314.866C168.135 314.048 169.5 313.777 170.209 314.378C170.7 314.816 170.918 315.526 170.917 316.072C170.806 316.672 170.696 317.273 170.477 317.928C169.872 320.548 171.283 325.846 172.158 325.411C172.814 325.084 172.108 322.025 171.948 320.059C171.787 318.093 172.064 315.91 173.65 314.71C174.251 314.274 174.852 314.111 175.562 314.167C176.272 314.222 176.927 314.715 177.09 315.316C177.416 316.244 176.65 317.171 176.211 317.935C175.773 318.699 175.498 320.064 176.426 320.557C177.355 319.684 177.521 318.374 177.906 317.228C178.29 316.082 179.33 314.882 180.586 314.938C181.732 315.049 182.495 316.032 182.657 317.179C182.765 318.217 182.49 319.309 182.161 320.291C181.612 321.928 181.063 323.566 180.624 325.149C180.349 325.967 180.184 327.005 181.002 327.279C181.494 327.443 182.095 327.28 182.369 326.734C182.588 326.352 182.698 325.752 182.808 325.151C183.084 323.241 183.415 321.166 183.965 319.256C184.24 318.164 184.624 317.018 185.662 316.637C186.81 316.202 188.065 317.077 188.773 318.225C190.081 320.028 190.131 322.322 189.691 324.451C189.196 326.47 188.101 328.38 187.115 330.235C187.497 330.454 188.098 330.291 188.48 329.964C188.863 329.637 189.028 329.146 189.247 328.764C190.124 326.963 190.782 324.998 191.168 323.033C191.333 322.269 191.498 321.504 191.991 320.85C192.483 320.195 193.249 319.814 194.122 319.924C194.941 320.198 195.377 321.073 195.375 321.892C195.374 322.711 194.936 323.475 194.498 324.238C194.059 325.002 193.731 325.712 193.729 326.531C193.783 326.913 194.001 327.35 194.328 327.46C194.438 327.405 194.656 327.296 194.821 327.078C196.024 325.66 195.592 323.148 197.177 322.222C197.942 321.84 199.089 321.951 199.634 322.498C200.18 323.045 200.451 324.137 200.013 324.901C199.575 325.665 198.755 325.937 198.153 326.646C197.497 327.245 197.44 328.501 198.149 328.83C198.695 329.103 199.351 328.777 199.625 328.231C199.899 327.685 200.064 327.194 200.338 326.649C200.776 325.885 201.541 325.23 202.361 325.231C203.289 325.178 204.216 325.944 204.489 326.49C204.87 326.982 205.087 327.692 205.032 328.129C204.867 328.62 204.485 328.947 204.102 329.274C202.406 330.801 201.147 332.656 200.597 334.839C200.542 335.276 200.377 335.767 200.595 336.204C200.703 336.696 201.249 336.97 201.741 336.861C202.069 336.698 202.342 336.425 202.343 336.152C202.728 334.46 203.331 333.205 204.152 331.841C204.59 331.077 205.685 329.44 206.45 329.332C208.362 329.061 209.724 331.52 209.778 331.903C209.777 332.449 209.448 332.885 209.12 333.321C208.737 333.922 208.19 334.467 207.697 335.121C207.533 335.34 207.314 335.722 207.313 335.995C207.203 336.322 207.367 336.65 207.639 336.923C208.021 337.142 208.568 336.87 208.896 336.433C209.498 335.724 209.882 334.851 210.156 334.033C210.211 333.869 210.321 333.541 210.54 333.432C210.758 333.324 210.977 333.488 211.195 333.652C212.231 334.363 212.775 335.729 212.664 336.875C212.444 337.803 211.842 338.512 211.404 339.276C210.966 340.04 210.418 340.858 210.471 341.787C210.525 342.169 210.634 342.387 210.798 342.715C210.961 343.043 211.507 343.044 211.726 342.935C212.054 342.771 212.218 342.28 212.274 341.844C212.384 341.243 212.713 340.534 212.987 339.988C213.206 339.606 213.589 339.279 213.916 339.389C214.353 339.444 214.68 339.826 215.062 340.318C215.824 341.575 216.532 342.996 216.803 344.361C217.128 345.836 217.071 347.365 216.468 348.62C215.865 349.875 214.498 350.965 213.078 351.127C212.586 351.236 211.985 351.126 211.604 350.634C211.277 350.251 211.551 349.705 211.606 349.269C213.032 345.831 212.758 346.103 212.595 345.775C212.486 345.557 211.173 346.756 210.844 347.466C210.406 348.23 210.296 349.103 209.857 349.867C209.419 350.631 208.599 351.176 207.671 350.956C206.906 351.064 205.979 350.572 205.761 349.862C205.435 349.206 205.436 348.387 205.547 347.513C205.712 346.749 206.041 346.04 206.369 345.33C207.027 343.912 207.357 342.383 207.469 340.964C207.524 340.8 207.524 340.527 207.415 340.308C207.306 340.09 207.088 339.926 206.815 339.925C206.597 340.034 206.432 340.252 206.323 340.307C205.666 341.453 205.5 342.763 205.17 344.018C204.84 345.274 204.237 346.529 203.089 347.237C201.941 347.946 200.248 347.834 199.54 346.687C198.995 345.867 199.27 344.775 199.708 344.011C200.147 343.247 200.912 342.593 201.514 341.884C201.897 341.557 202.171 341.011 202.226 340.575C202.282 340.138 201.955 339.482 201.518 339.427C200.918 339.317 200.48 339.808 200.151 340.244C199.659 340.899 199.384 341.718 198.783 342.427C198.181 343.136 197.306 343.571 196.542 343.407C195.777 343.242 195.123 342.749 194.796 342.094C193.979 340.728 194.037 338.926 194.694 337.507C195.298 335.979 196.392 334.888 197.431 333.688C197.76 333.252 198.088 332.816 198.144 332.379C198.199 331.942 197.872 331.287 197.326 331.286C196.78 331.285 196.506 331.831 196.341 332.322C195.684 333.741 195.081 334.996 194.532 336.36C194.313 337.015 193.875 337.779 193.437 338.27C192.999 338.761 192.234 339.142 191.469 339.25C190.486 339.194 189.723 338.483 189.396 337.555C189.07 336.626 189.29 335.698 189.674 334.825C190.058 333.952 190.823 333.298 191.48 332.698C191.863 332.371 192.191 331.934 192.356 331.443C192.466 330.843 192.084 330.351 191.593 330.186C191.156 330.131 190.773 330.731 190.5 331.004C190.116 331.604 189.787 332.313 189.295 332.968C188.857 333.732 187.378 336.242 185.303 335.638C184.485 335.364 183.776 334.49 183.941 333.726C184.599 332.034 185.312 330.178 186.025 328.596C186.683 326.904 187.396 325.048 186.58 323.409C186.416 323.081 186.089 322.699 185.707 322.753C185.324 322.807 185.269 323.244 185.159 323.571C184.883 325.755 184.224 327.993 183.674 330.176C183.399 331.268 182.96 332.305 182.085 333.013C181.32 333.668 180.282 333.775 179.189 333.774C178.206 333.718 177.278 333.498 176.296 333.17C175.804 333.005 175.149 332.786 174.932 332.349C174.714 331.912 174.933 331.257 175.153 330.875C176.358 328.638 177.399 326.346 178.222 323.89C178.332 323.562 178.333 323.289 178.333 323.016C178.334 322.743 178.061 322.47 177.733 322.36C177.297 322.305 177.077 322.687 176.913 323.178C176.364 324.815 175.815 326.453 175.048 327.926C174.281 329.399 173.023 330.708 171.274 331.307C169.252 331.905 167.014 331.246 165.049 330.589C164.558 330.424 164.176 330.205 163.903 329.932C163.577 329.276 164.069 328.622 164.507 328.131C165.327 327.313 166.039 326.549 166.969 325.677C167.242 325.404 167.625 325.077 167.68 324.64C167.736 324.204 167.627 323.712 167.136 323.548C166.59 323.274 165.988 323.983 165.66 324.419C164.948 325.456 164.236 326.492 163.416 327.31C162.486 328.183 161.447 329.11 160.191 329.053C158.716 329.106 157.517 327.794 156.371 326.864C155.88 326.427 155.281 325.498 155.828 324.953C156.156 324.516 156.921 324.681 157.467 324.682C158.778 324.847 160.307 324.631 161.455 323.922C161.674 323.814 161.947 323.541 161.948 323.268C161.948 322.995 161.73 322.831 161.403 322.721C161.075 322.611 160.856 322.72 160.638 322.829C159.545 323.101 158.234 323.208 157.032 323.261C156.596 323.206 155.94 323.26 155.449 323.096C154.958 322.931 154.576 322.439 154.413 322.111C154.359 321.729 154.414 321.292 154.742 320.856C155.455 319 157.753 316.765 158.189 317.093Z" fill="#FDDFD3"/>
<path d="M157.31 320.804C157.2 321.132 157.364 321.459 157.691 321.569C158.019 321.679 158.347 321.515 158.511 321.297C158.621 320.97 158.457 320.642 158.13 320.532C157.802 320.422 157.474 320.586 157.31 320.804Z" fill="#AA2829"/>
<path d="M169.369 327.754C169.259 328.082 169.423 328.41 169.75 328.519C170.078 328.629 170.406 328.465 170.57 328.247C170.734 328.029 170.516 327.592 170.189 327.482C169.807 327.263 169.479 327.427 169.369 327.754Z" fill="#AA2829"/>
<path d="M173.366 321.262C173.257 321.59 173.42 321.917 173.747 322.027C174.075 322.137 174.403 321.973 174.567 321.755C174.731 321.537 174.514 321.1 174.186 320.99C173.859 320.88 173.585 320.88 173.366 321.262Z" fill="#AA2829"/>
<path d="M179.597 318.704C179.487 319.031 179.65 319.359 179.978 319.469C180.305 319.578 180.633 319.415 180.798 319.197C180.962 318.979 180.744 318.542 180.416 318.432C180.035 318.213 179.707 318.376 179.597 318.704Z" fill="#AA2829"/>
<path d="M185.712 319.476C185.602 319.803 185.766 320.131 186.093 320.241C186.421 320.35 186.749 320.187 186.913 319.969C187.077 319.751 186.859 319.314 186.532 319.204C186.204 319.094 185.822 319.148 185.712 319.476Z" fill="#AA2829"/>
<path d="M185.417 332.854C185.307 333.181 185.47 333.509 185.798 333.619C186.125 333.728 186.453 333.565 186.617 333.347C186.782 333.129 186.564 332.692 186.236 332.582C185.854 332.363 185.526 332.526 185.417 332.854Z" fill="#AA2829"/>
<path d="M192.96 329.369C192.851 329.696 193.014 330.024 193.342 330.134C193.669 330.244 193.997 330.08 194.161 329.862C194.325 329.644 194.108 329.207 193.78 329.097C193.562 328.933 193.125 329.151 192.96 329.369Z" fill="#AA2829"/>
<path d="M202.028 328.398C201.918 328.725 202.082 329.053 202.409 329.163C202.737 329.272 203.065 329.109 203.229 328.891C203.393 328.673 203.175 328.235 202.848 328.126C202.52 328.016 202.247 328.016 202.028 328.398Z" fill="#AA2829"/>
<path d="M205.298 332.497C205.188 332.824 205.351 333.152 205.679 333.262C206.006 333.371 206.334 333.208 206.499 332.99C206.663 332.772 206.445 332.335 206.118 332.225C205.79 332.115 205.353 332.333 205.298 332.497Z" fill="#AA2829"/>
<path d="M201.344 345.924C201.234 346.252 201.397 346.579 201.725 346.689C202.052 346.799 202.38 346.635 202.545 346.417C202.709 346.199 202.491 345.762 202.163 345.652C201.836 345.543 201.508 345.706 201.344 345.924Z" fill="#AA2829"/>
<path d="M194.535 334.722C194.481 334.613 194.481 334.613 194.481 334.613C194.317 334.285 194.1 333.848 193.663 333.793C193.499 333.738 193.171 333.901 193.116 334.065C193.061 334.229 193.061 334.229 193.171 334.174C193.28 334.12 193.225 334.283 193.17 334.447C193.115 334.611 193.115 334.611 193.06 334.775L193.006 334.938C192.896 334.993 192.623 334.992 192.514 335.047C192.405 335.101 192.35 335.265 192.24 335.32L192.131 335.374C192.076 335.538 192.185 335.483 192.131 335.647C192.021 335.701 191.912 335.756 191.748 335.701C191.694 335.592 191.639 335.483 191.53 335.537C191.366 335.482 191.093 335.755 190.983 335.809L190.929 335.7C190.874 335.591 190.765 335.645 190.765 335.645C190.656 335.7 190.546 335.754 190.437 335.809C190.273 336.027 190.218 336.191 189.999 336.299C189.836 336.245 189.836 336.245 189.672 336.19C189.563 335.971 189.837 335.699 190.055 335.59C190.165 335.535 190.383 335.426 190.602 335.317C190.711 335.263 190.711 335.263 190.82 335.208C191.039 335.1 191.312 335.1 191.695 335.046C191.804 334.991 192.132 334.828 192.241 334.774C192.351 334.719 192.569 334.61 192.624 334.446C192.679 334.283 192.734 334.119 192.734 334.119C192.734 333.846 192.407 333.736 192.134 333.736C191.533 333.626 190.932 334.062 190.276 334.389C190.822 334.116 191.205 333.789 191.915 333.845C192.079 333.9 192.516 333.955 192.515 334.228C192.46 334.392 192.405 334.555 192.405 334.555C192.296 334.61 192.187 334.664 192.077 334.719C191.749 334.882 191.64 334.937 191.148 335.045C190.875 335.045 190.547 335.208 190.274 335.208C190.056 335.317 189.783 335.316 189.618 335.535C189.509 335.589 189.126 335.916 189.399 336.189C189.563 336.244 189.726 336.299 189.726 336.299C190.054 336.136 190.219 335.918 190.383 335.699C190.492 335.645 190.492 335.645 190.492 335.645C190.601 335.59 190.601 335.59 190.656 335.7C190.82 335.755 190.984 335.536 191.202 335.427L191.366 335.482C191.421 335.591 191.421 335.591 191.584 335.646C191.748 335.701 191.694 335.592 191.857 335.647C191.967 335.592 191.967 335.592 191.967 335.592C191.967 335.592 191.967 335.592 192.131 335.647C192.131 335.647 192.131 335.647 192.185 335.756C192.13 335.92 192.13 335.92 192.021 335.974C191.911 336.029 191.911 336.029 191.911 336.029C191.857 336.193 191.747 336.247 191.692 336.411C191.583 336.465 191.637 336.575 191.637 336.575C191.474 336.52 191.528 336.629 191.419 336.684C191.309 336.738 191.255 336.902 191.091 336.847C190.982 336.901 190.872 336.956 190.708 336.901C190.49 337.01 190.326 337.228 190.216 337.283C190.107 337.337 190.053 337.228 190.053 337.228C189.725 337.118 189.507 336.954 189.343 336.626C189.398 336.463 189.453 336.299 189.563 336.244C189.726 336.299 189.89 336.354 190.054 336.409C190.218 336.464 190.381 336.518 190.545 336.573C190.545 336.573 190.545 336.573 190.436 336.628C190.272 336.573 190.108 336.518 189.945 336.463C189.781 336.408 189.726 336.299 189.617 336.354C189.453 336.299 189.508 336.408 189.398 336.463C189.344 336.626 189.234 336.681 189.179 336.844C189.124 337.008 189.288 337.063 189.343 337.172C189.506 337.227 189.615 337.446 189.888 337.446C190.052 337.501 190.161 337.446 190.271 337.392C190.38 337.337 190.654 337.065 190.763 337.01C190.763 337.01 190.872 336.956 190.982 336.901C191.091 336.847 191.091 336.847 191.31 336.738C191.419 336.684 191.528 336.629 191.528 336.629L191.583 336.738C191.583 336.738 191.692 336.684 191.746 336.793C191.856 336.739 191.911 336.575 191.856 336.466C191.911 336.302 192.02 336.248 192.075 336.084C192.075 336.084 192.075 336.084 192.185 336.029L192.294 335.975C192.403 335.92 192.349 335.811 192.458 335.757L192.567 335.702C192.677 335.648 192.677 335.648 192.786 335.593C193.005 335.484 193.223 335.375 193.387 335.157C193.497 335.103 193.442 334.993 193.442 334.993C193.606 335.048 193.77 335.103 194.043 335.103C194.207 335.158 194.207 335.158 194.316 335.104C194.425 335.049 194.698 335.05 194.753 334.886C194.59 334.831 194.535 334.722 194.535 334.722ZM193.114 335.157C192.95 335.375 192.786 335.593 192.622 335.538C192.513 335.593 192.513 335.593 192.513 335.593C192.622 335.538 192.568 335.429 192.568 335.429C192.513 335.32 192.513 335.32 192.513 335.32C192.623 335.265 192.623 335.265 192.623 335.265C192.732 335.211 192.787 335.047 192.787 335.047C192.896 334.993 193.169 334.993 193.169 334.993C193.06 335.048 193.114 335.157 193.114 335.157ZM193.989 334.994C193.825 334.939 193.606 335.048 193.388 334.884C193.334 334.775 193.334 334.775 193.224 334.829L193.279 334.666C193.334 334.502 193.334 334.502 193.389 334.338C193.444 334.174 193.444 334.174 193.389 334.065C193.335 333.956 193.335 333.956 193.28 333.847C193.226 333.737 193.335 333.683 193.335 333.683C193.335 333.683 193.335 333.683 193.445 333.628C193.827 333.574 194.154 333.957 194.208 334.339C194.263 334.449 194.317 334.558 194.371 334.667C194.426 334.776 194.317 334.831 194.262 334.995C194.262 334.995 194.152 335.049 193.989 334.994Z" fill="#AA2829"/>
<path d="M380.894 366.784C395.917 368.953 430.301 363.113 447.994 334.916C454.67 324.238 452.667 304.384 425.961 293.038C417.615 289.534 404.93 286.364 391.911 286.031C378.891 285.697 365.705 288.033 355.857 295.541L380.894 366.784ZM380.894 366.784C372.549 365.616 363.869 361.945 356.525 356.94C349.18 352.101 343.338 345.761 340.501 339.755L380.894 366.784ZM341.002 310.557C336.829 317.731 334.826 327.241 340.501 339.755L341.002 310.557ZM341.002 310.557C345.175 303.549 351.517 298.878 355.523 295.875L341.002 310.557ZM341.002 310.557L355.523 295.875L341.002 310.557ZM355.356 295.875C355.523 295.708 355.69 295.708 355.69 295.708L355.356 295.875Z" fill="#8B92D2" fill-opacity="0.4" stroke="#5A5999" stroke-width="2"/>
<path d="M381.061 364.448C395.583 366.45 427.964 360.944 444.822 334.416C451.332 324.238 449.329 305.218 423.958 294.707C408.101 288.033 376.554 283.027 357.526 297.209C350.182 302.548 332.155 315.395 342.838 339.087C347.845 350.767 364.87 362.112 381.061 364.448Z" fill="#5A5999"/>
<path d="M381.228 363.447C395.416 365.449 426.796 359.943 443.153 334.249C449.496 324.238 447.493 305.885 422.957 295.541C407.434 289.034 377.055 284.195 358.361 298.044C351.351 303.383 333.658 315.729 344.006 338.587C349.181 350.099 365.705 361.111 381.228 363.447Z" fill="#949BD9" stroke="#5C629B" stroke-width="1.1294" stroke-miterlimit="10" stroke-linecap="round" stroke-linejoin="round"/>
<path d="M388.906 340.422C408.268 335.751 412.608 322.403 401.926 313.56C391.076 304.551 379.559 301.881 366.373 313.393C353.02 325.073 370.713 344.76 388.906 340.422Z" fill="#406296" stroke="#2D3368" stroke-width="1.1294" stroke-miterlimit="10" stroke-linecap="round" stroke-linejoin="round"/>
<path opacity="0.5" d="M385.735 339.254C400.257 335.75 403.595 325.907 395.416 319.066C387.237 312.392 378.558 310.223 368.71 318.899C358.862 327.742 372.215 342.424 385.735 339.254Z" fill="#6277C2"/>
<path d="M27.3745 177.857C27.5415 175.187 26.54 172.685 24.8708 172.518H24.0362C22.3671 172.351 21.0318 174.687 20.698 177.356L19.0288 197.711C18.8619 200.381 19.8634 202.883 21.5325 203.05H22.3671C24.0362 203.217 25.3716 200.881 25.7054 198.212L25.8723 195.375L42.2299 196.71L42.063 199.547C41.8961 202.216 42.8976 204.719 44.5667 204.886H45.4013C47.0704 205.052 48.4058 202.717 48.7396 200.047L50.4087 179.692C50.5757 177.023 49.5742 174.52 47.905 174.353H47.0704C45.4013 174.186 44.066 176.522 43.7322 179.191L43.5652 182.028L27.2076 180.693L27.3745 177.857Z" fill="#E48405"/>
<path d="M50.0746 186.533L49.5739 193.206C49.5739 193.206 38.2237 191.705 34.5516 191.538C30.7126 191.204 19.5293 190.871 19.5293 190.871L20.03 184.197C20.03 184.197 31.3802 185.698 34.8854 185.865C38.7245 186.032 50.0746 186.533 50.0746 186.533Z" fill="#BC6906"/>
<path d="M36.8885 332.522C35.3862 330.186 33.0494 328.852 31.7141 329.853L30.8796 330.353C29.5442 331.187 29.7112 333.857 31.2134 336.193L42.0628 353.378C43.5651 355.714 45.9019 357.048 47.2372 356.047L48.0718 355.547C49.4071 354.712 49.2402 352.043 47.7379 349.707L46.2357 347.204L60.0896 338.362L61.5918 340.864C63.0941 343.2 65.4309 344.535 66.7662 343.534L67.6007 343.033C68.9361 342.199 68.7691 339.53 67.2669 337.194L56.4175 320.009C54.9152 317.673 52.5784 316.338 51.2431 317.339L50.4086 317.84C49.0732 318.674 49.2402 321.343 50.7424 323.679L52.2446 326.182L38.3907 335.025L36.8885 332.522Z" fill="#E48405"/>
<path d="M60.2567 325.848L63.7619 331.521C63.7619 331.521 53.9139 337.194 50.5756 339.196C47.2373 341.198 38.224 347.705 38.224 347.705L34.7188 342.032C34.7188 342.032 44.5667 336.359 47.7381 334.524C50.9095 332.355 60.2567 325.848 60.2567 325.848Z" fill="#BC6906"/>
<path d="M64.2626 436.8C63.7619 434.131 61.9258 432.129 60.4236 432.462L59.589 432.629C57.9199 432.963 57.2522 435.466 57.753 438.135L62.0927 458.156C62.5935 460.826 64.4296 462.828 65.9318 462.494L66.7664 462.328C68.4355 461.994 69.1032 459.491 68.6024 456.822L67.9348 453.985L83.9585 450.482L84.6262 453.318C85.127 455.987 86.963 457.99 88.4652 457.656L89.2998 457.489C90.969 457.155 91.6366 454.653 91.1359 451.983L86.7961 431.962C86.2954 429.292 84.4593 427.29 82.9571 427.624L82.1225 427.791C80.4533 428.124 79.7857 430.627 80.2864 433.297L80.9541 436.133L64.9303 439.637L64.2626 436.8Z" fill="#E48405"/>
<path d="M88.6322 438.636L89.9676 445.143C89.9676 445.143 78.7843 446.978 74.9453 447.812C71.2731 448.646 60.4237 451.483 60.4237 451.483L59.0884 444.976C59.0884 444.976 70.2716 443.141 73.7769 442.306C77.6159 441.472 88.6322 438.636 88.6322 438.636Z" fill="#BC6906"/>
<path d="M857.274 140.817C856.606 138.148 854.937 136.146 853.268 136.479L852.433 136.646C850.931 136.98 850.096 139.649 850.764 142.152L855.271 162.006C855.938 164.676 857.607 166.678 859.277 166.344L860.111 166.178C861.613 165.844 862.448 163.174 861.78 160.672L861.113 157.835L877.136 154.165L877.804 157.001C878.472 159.671 880.141 161.673 881.81 161.339L882.645 161.172C884.147 160.839 884.981 158.169 884.314 155.666L879.807 135.812C879.139 133.142 877.47 131.14 875.801 131.474L874.967 131.641C873.464 131.974 872.63 134.644 873.297 137.147L873.965 139.983L857.941 143.654L857.274 140.817Z" fill="#E48405"/>
<path d="M881.643 142.319L883.145 148.826C883.145 148.826 871.962 150.828 868.29 151.662C864.618 152.496 853.768 155.5 853.768 155.5L852.266 148.993C852.266 148.993 863.449 146.99 866.955 146.156C870.627 145.322 881.643 142.319 881.643 142.319Z" fill="#BC6906"/>
<path d="M837.411 296.483C838.913 294.148 839.08 291.478 837.745 290.644L836.91 290.143C835.575 289.309 833.238 290.477 831.736 292.813L820.719 309.998C819.217 312.334 819.05 315.003 820.385 315.837L821.22 316.338C822.555 317.172 824.892 316.004 826.394 313.668L827.897 311.166L841.75 320.009L840.248 322.511C838.746 324.847 838.579 327.517 839.914 328.351L840.749 328.851C842.084 329.686 844.421 328.518 845.923 326.182L856.94 308.997C858.442 306.661 858.609 303.991 857.273 303.157L856.439 302.657C855.104 301.822 852.767 302.99 851.265 305.326L849.762 307.829L835.908 298.986L837.411 296.483Z" fill="#E48405"/>
<path d="M853.268 315.003L849.596 320.676C849.596 320.676 840.248 314.002 837.077 312C833.906 309.998 824.225 304.325 824.225 304.325L827.897 298.652C827.897 298.652 837.244 305.326 840.248 307.161C843.42 309.33 853.268 315.003 853.268 315.003Z" fill="#BC6906"/>
<path d="M777.99 411.439C777.489 408.77 775.653 406.768 774.151 407.101L773.316 407.268C771.647 407.602 770.979 410.105 771.48 412.774L775.82 432.796C776.32 435.465 778.157 437.467 779.659 437.134L780.493 436.967C782.163 436.633 782.83 434.13 782.329 431.461L781.662 428.624L797.686 425.121L798.353 427.957C798.854 430.627 800.69 432.629 802.192 432.295L803.027 432.128C804.696 431.794 805.364 429.292 804.863 426.622L800.523 406.601C800.022 403.931 798.186 401.929 796.684 402.263L795.849 402.43C794.18 402.763 793.513 405.266 794.013 407.936L794.681 410.772L778.657 414.276L777.99 411.439Z" fill="#E48405"/>
<path d="M802.192 413.274L803.528 419.781C803.528 419.781 792.344 421.617 788.505 422.451C784.833 423.285 773.984 426.122 773.984 426.122L772.648 419.615C772.648 419.615 783.832 417.779 787.337 416.945C791.176 416.278 802.192 413.274 802.192 413.274Z" fill="#BC6906"/>
<defs>
<linearGradient id="paint0_linear" x1="95.4204" y1="117.722" x2="106.392" y2="448.543" gradientUnits="userSpaceOnUse">
<stop offset="1.89831e-07" stop-color="#5E1000"/>
<stop offset="0.12" stop-color="#6E1503"/>
<stop offset="0.3522" stop-color="#962209"/>
<stop offset="0.4976" stop-color="#B32B0E"/>
<stop offset="0.5245" stop-color="#AE2A0E"/>
<stop offset="0.7238" stop-color="#8B220B"/>
<stop offset="0.8875" stop-color="#761D0A"/>
<stop offset="0.9945" stop-color="#6E1B09"/>
</linearGradient>
<linearGradient id="paint1_linear" x1="436.476" y1="108.552" x2="447.064" y2="427.82" gradientUnits="userSpaceOnUse">
<stop offset="1.89831e-07" stop-color="#5E1000"/>
<stop offset="0.12" stop-color="#6E1503"/>
<stop offset="0.3522" stop-color="#962209"/>
<stop offset="0.4976" stop-color="#B32B0E"/>
<stop offset="0.5245" stop-color="#AE2A0E"/>
<stop offset="0.7238" stop-color="#8B220B"/>
<stop offset="0.8875" stop-color="#761D0A"/>
<stop offset="0.9945" stop-color="#6E1B09"/>
</linearGradient>
<linearGradient id="paint2_linear" x1="789.271" y1="76.0775" x2="800.468" y2="413.722" gradientUnits="userSpaceOnUse">
<stop offset="1.89831e-07" stop-color="#5E1000"/>
<stop offset="0.12" stop-color="#6E1503"/>
<stop offset="0.3522" stop-color="#962209"/>
<stop offset="0.4976" stop-color="#B32B0E"/>
<stop offset="0.5245" stop-color="#AE2A0E"/>
<stop offset="0.7238" stop-color="#8B220B"/>
<stop offset="0.8875" stop-color="#761D0A"/>
<stop offset="0.9945" stop-color="#6E1B09"/>
</linearGradient>
<linearGradient id="paint3_linear" x1="97.0238" y1="118.362" x2="107.785" y2="442.859" gradientUnits="userSpaceOnUse">
<stop offset="1.89831e-07" stop-color="#5E1000"/>
<stop offset="0.12" stop-color="#6E1503"/>
<stop offset="0.3522" stop-color="#962209"/>
<stop offset="0.4976" stop-color="#B32B0E"/>
<stop offset="0.5245" stop-color="#AE2A0E"/>
<stop offset="0.7238" stop-color="#8B220B"/>
<stop offset="0.8875" stop-color="#761D0A"/>
<stop offset="0.9945" stop-color="#6E1B09"/>
</linearGradient>
<linearGradient id="paint4_linear" x1="440.742" y1="108.78" x2="451.341" y2="428.386" gradientUnits="userSpaceOnUse">
<stop offset="1.89831e-07" stop-color="#5E1000"/>
<stop offset="0.12" stop-color="#6E1503"/>
<stop offset="0.3522" stop-color="#962209"/>
<stop offset="0.4976" stop-color="#B32B0E"/>
<stop offset="0.5245" stop-color="#AE2A0E"/>
<stop offset="0.7238" stop-color="#8B220B"/>
<stop offset="0.8875" stop-color="#761D0A"/>
<stop offset="0.9945" stop-color="#6E1B09"/>
</linearGradient>
<linearGradient id="paint5_linear" x1="793.812" y1="76.1984" x2="804.777" y2="406.81" gradientUnits="userSpaceOnUse">
<stop offset="1.89831e-07" stop-color="#5E1000"/>
<stop offset="0.12" stop-color="#6E1503"/>
<stop offset="0.3522" stop-color="#962209"/>
<stop offset="0.4976" stop-color="#B32B0E"/>
<stop offset="0.5245" stop-color="#AE2A0E"/>
<stop offset="0.7238" stop-color="#8B220B"/>
<stop offset="0.8875" stop-color="#761D0A"/>
<stop offset="0.9945" stop-color="#6E1B09"/>
</linearGradient>
<linearGradient id="paint6_linear" x1="120.622" y1="414.373" x2="111.459" y2="716.156" gradientUnits="userSpaceOnUse">
<stop offset="1.89831e-07" stop-color="#5E1000"/>
<stop offset="0.12" stop-color="#6E1503"/>
<stop offset="0.3522" stop-color="#962209"/>
<stop offset="0.4976" stop-color="#B32B0E"/>
<stop offset="0.5245" stop-color="#AE2A0E"/>
<stop offset="0.7238" stop-color="#8B220B"/>
<stop offset="0.8875" stop-color="#761D0A"/>
<stop offset="0.9945" stop-color="#6E1B09"/>
</linearGradient>
<linearGradient id="paint7_linear" x1="764.546" y1="415.396" x2="755.169" y2="724.237" gradientUnits="userSpaceOnUse">
<stop offset="1.89831e-07" stop-color="#5E1000"/>
<stop offset="0.12" stop-color="#6E1503"/>
<stop offset="0.3522" stop-color="#962209"/>
<stop offset="0.4976" stop-color="#B32B0E"/>
<stop offset="0.5245" stop-color="#AE2A0E"/>
<stop offset="0.7238" stop-color="#8B220B"/>
<stop offset="0.8875" stop-color="#761D0A"/>
<stop offset="0.9945" stop-color="#6E1B09"/>
</linearGradient>
<linearGradient id="paint8_linear" x1="124.063" y1="387.631" x2="114.9" y2="689.414" gradientUnits="userSpaceOnUse">
<stop offset="1.89831e-07" stop-color="#5E1000"/>
<stop offset="0.12" stop-color="#6E1503"/>
<stop offset="0.3522" stop-color="#962209"/>
<stop offset="0.4976" stop-color="#B32B0E"/>
<stop offset="0.5245" stop-color="#AE2A0E"/>
<stop offset="0.7238" stop-color="#8B220B"/>
<stop offset="0.8875" stop-color="#761D0A"/>
<stop offset="0.9945" stop-color="#6E1B09"/>
</linearGradient>
<linearGradient id="paint9_linear" x1="769.158" y1="388.69" x2="759.781" y2="697.53" gradientUnits="userSpaceOnUse">
<stop offset="1.89831e-07" stop-color="#5E1000"/>
<stop offset="0.12" stop-color="#6E1503"/>
<stop offset="0.3522" stop-color="#962209"/>
<stop offset="0.4976" stop-color="#B32B0E"/>
<stop offset="0.5245" stop-color="#AE2A0E"/>
<stop offset="0.7238" stop-color="#8B220B"/>
<stop offset="0.8875" stop-color="#761D0A"/>
<stop offset="0.9945" stop-color="#6E1B09"/>
</linearGradient>
<linearGradient id="paint10_linear" x1="126.919" y1="389.168" x2="117.808" y2="689.27" gradientUnits="userSpaceOnUse">
<stop offset="1.89831e-07" stop-color="#5E1000"/>
<stop offset="0.12" stop-color="#6E1503"/>
<stop offset="0.3522" stop-color="#962209"/>
<stop offset="0.4976" stop-color="#B32B0E"/>
<stop offset="0.5245" stop-color="#AE2A0E"/>
<stop offset="0.7238" stop-color="#8B220B"/>
<stop offset="0.8875" stop-color="#761D0A"/>
<stop offset="0.9945" stop-color="#6E1B09"/>
</linearGradient>
<linearGradient id="paint11_linear" x1="452.8" y1="400.743" x2="443.825" y2="696.322" gradientUnits="userSpaceOnUse">
<stop offset="1.89831e-07" stop-color="#5E1000"/>
<stop offset="0.12" stop-color="#6E1503"/>
<stop offset="0.3522" stop-color="#962209"/>
<stop offset="0.4976" stop-color="#B32B0E"/>
<stop offset="0.5245" stop-color="#AE2A0E"/>
<stop offset="0.7238" stop-color="#8B220B"/>
<stop offset="0.8875" stop-color="#761D0A"/>
<stop offset="0.9945" stop-color="#6E1B09"/>
</linearGradient>
<linearGradient id="paint12_linear" x1="769.647" y1="391.05" x2="760.363" y2="696.807" gradientUnits="userSpaceOnUse">
<stop offset="1.89831e-07" stop-color="#5E1000"/>
<stop offset="0.12" stop-color="#6E1503"/>
<stop offset="0.3522" stop-color="#962209"/>
<stop offset="0.4976" stop-color="#B32B0E"/>
<stop offset="0.5245" stop-color="#AE2A0E"/>
<stop offset="0.7238" stop-color="#8B220B"/>
<stop offset="0.8875" stop-color="#761D0A"/>
<stop offset="0.9945" stop-color="#6E1B09"/>
</linearGradient>
<linearGradient id="paint13_linear" x1="118.456" y1="388.27" x2="109.166" y2="694.222" gradientUnits="userSpaceOnUse">
<stop offset="1.89831e-07" stop-color="#5E1000"/>
<stop offset="0.12" stop-color="#6E1503"/>
<stop offset="0.3522" stop-color="#962209"/>
<stop offset="0.4976" stop-color="#B32B0E"/>
<stop offset="0.5245" stop-color="#AE2A0E"/>
<stop offset="0.7238" stop-color="#8B220B"/>
<stop offset="0.8875" stop-color="#761D0A"/>
<stop offset="0.9945" stop-color="#6E1B09"/>
</linearGradient>
<linearGradient id="paint14_linear" x1="448.314" y1="400.265" x2="439.349" y2="695.531" gradientUnits="userSpaceOnUse">
<stop offset="1.89831e-07" stop-color="#5E1000"/>
<stop offset="0.12" stop-color="#6E1503"/>
<stop offset="0.3522" stop-color="#962209"/>
<stop offset="0.4976" stop-color="#B32B0E"/>
<stop offset="0.5245" stop-color="#AE2A0E"/>
<stop offset="0.7238" stop-color="#8B220B"/>
<stop offset="0.8875" stop-color="#761D0A"/>
<stop offset="0.9945" stop-color="#6E1B09"/>
</linearGradient>
<linearGradient id="paint15_linear" x1="764.11" y1="390.631" x2="754.629" y2="702.892" gradientUnits="userSpaceOnUse">
<stop offset="1.89831e-07" stop-color="#5E1000"/>
<stop offset="0.12" stop-color="#6E1503"/>
<stop offset="0.3522" stop-color="#962209"/>
<stop offset="0.4976" stop-color="#B32B0E"/>
<stop offset="0.5245" stop-color="#AE2A0E"/>
<stop offset="0.7238" stop-color="#8B220B"/>
<stop offset="0.8875" stop-color="#761D0A"/>
<stop offset="0.9945" stop-color="#6E1B09"/>
</linearGradient>
<linearGradient id="paint16_linear" x1="122.859" y1="363.124" x2="113.569" y2="669.076" gradientUnits="userSpaceOnUse">
<stop offset="1.89831e-07" stop-color="#5E1000"/>
<stop offset="0.12" stop-color="#6E1503"/>
<stop offset="0.3522" stop-color="#962209"/>
<stop offset="0.4976" stop-color="#B32B0E"/>
<stop offset="0.5245" stop-color="#AE2A0E"/>
<stop offset="0.7238" stop-color="#8B220B"/>
<stop offset="0.8875" stop-color="#761D0A"/>
<stop offset="0.9945" stop-color="#6E1B09"/>
</linearGradient>
<linearGradient id="paint17_linear" x1="456.66" y1="375.239" x2="447.695" y2="670.505" gradientUnits="userSpaceOnUse">
<stop offset="1.89831e-07" stop-color="#5E1000"/>
<stop offset="0.12" stop-color="#6E1503"/>
<stop offset="0.3522" stop-color="#962209"/>
<stop offset="0.4976" stop-color="#B32B0E"/>
<stop offset="0.5245" stop-color="#AE2A0E"/>
<stop offset="0.7238" stop-color="#8B220B"/>
<stop offset="0.8875" stop-color="#761D0A"/>
<stop offset="0.9945" stop-color="#6E1B09"/>
</linearGradient>
<linearGradient id="paint18_linear" x1="764.76" y1="365.371" x2="755.28" y2="677.633" gradientUnits="userSpaceOnUse">
<stop offset="1.89831e-07" stop-color="#5E1000"/>
<stop offset="0.12" stop-color="#6E1503"/>
<stop offset="0.3522" stop-color="#962209"/>
<stop offset="0.4976" stop-color="#B32B0E"/>
<stop offset="0.5245" stop-color="#AE2A0E"/>
<stop offset="0.7238" stop-color="#8B220B"/>
<stop offset="0.8875" stop-color="#761D0A"/>
<stop offset="0.9945" stop-color="#6E1B09"/>
</linearGradient>
<linearGradient id="paint19_linear" x1="115.903" y1="338.366" x2="106.614" y2="644.317" gradientUnits="userSpaceOnUse">
<stop offset="1.89831e-07" stop-color="#5E1000"/>
<stop offset="0.12" stop-color="#6E1503"/>
<stop offset="0.3522" stop-color="#962209"/>
<stop offset="0.4976" stop-color="#B32B0E"/>
<stop offset="0.5245" stop-color="#AE2A0E"/>
<stop offset="0.7238" stop-color="#8B220B"/>
<stop offset="0.8875" stop-color="#761D0A"/>
<stop offset="0.9945" stop-color="#6E1B09"/>
</linearGradient>
<linearGradient id="paint20_linear" x1="449.707" y1="350.48" x2="440.742" y2="645.747" gradientUnits="userSpaceOnUse">
<stop offset="1.89831e-07" stop-color="#5E1000"/>
<stop offset="0.12" stop-color="#6E1503"/>
<stop offset="0.3522" stop-color="#962209"/>
<stop offset="0.4976" stop-color="#B32B0E"/>
<stop offset="0.5245" stop-color="#AE2A0E"/>
<stop offset="0.7238" stop-color="#8B220B"/>
<stop offset="0.8875" stop-color="#761D0A"/>
<stop offset="0.9945" stop-color="#6E1B09"/>
</linearGradient>
<linearGradient id="paint21_linear" x1="757.807" y1="340.613" x2="748.326" y2="652.875" gradientUnits="userSpaceOnUse">
<stop offset="1.89831e-07" stop-color="#5E1000"/>
<stop offset="0.12" stop-color="#6E1503"/>
<stop offset="0.3522" stop-color="#962209"/>
<stop offset="0.4976" stop-color="#B32B0E"/>
<stop offset="0.5245" stop-color="#AE2A0E"/>
<stop offset="0.7238" stop-color="#8B220B"/>
<stop offset="0.8875" stop-color="#761D0A"/>
<stop offset="0.9945" stop-color="#6E1B09"/>
</linearGradient>
<linearGradient id="paint22_linear" x1="106.96" y1="145.348" x2="117.781" y2="471.662" gradientUnits="userSpaceOnUse">
<stop offset="1.89831e-07" stop-color="#5E1000"/>
<stop offset="0.12" stop-color="#6E1503"/>
<stop offset="0.3522" stop-color="#962209"/>
<stop offset="0.4976" stop-color="#B32B0E"/>
<stop offset="0.5245" stop-color="#AE2A0E"/>
<stop offset="0.7238" stop-color="#8B220B"/>
<stop offset="0.8875" stop-color="#761D0A"/>
<stop offset="0.9945" stop-color="#6E1B09"/>
</linearGradient>
<linearGradient id="paint23_linear" x1="445.318" y1="136.893" x2="455.917" y2="456.481" gradientUnits="userSpaceOnUse">
<stop offset="1.89831e-07" stop-color="#5E1000"/>
<stop offset="0.12" stop-color="#6E1503"/>
<stop offset="0.3522" stop-color="#962209"/>
<stop offset="0.4976" stop-color="#B32B0E"/>
<stop offset="0.5245" stop-color="#AE2A0E"/>
<stop offset="0.7238" stop-color="#8B220B"/>
<stop offset="0.8875" stop-color="#761D0A"/>
<stop offset="0.9945" stop-color="#6E1B09"/>
</linearGradient>
<linearGradient id="paint24_linear" x1="788.232" y1="102.731" x2="799.307" y2="436.676" gradientUnits="userSpaceOnUse">
<stop offset="1.89831e-07" stop-color="#5E1000"/>
<stop offset="0.12" stop-color="#6E1503"/>
<stop offset="0.3522" stop-color="#962209"/>
<stop offset="0.4976" stop-color="#B32B0E"/>
<stop offset="0.5245" stop-color="#AE2A0E"/>
<stop offset="0.7238" stop-color="#8B220B"/>
<stop offset="0.8875" stop-color="#761D0A"/>
<stop offset="0.9945" stop-color="#6E1B09"/>
</linearGradient>
<linearGradient id="paint25_linear" x1="97.7163" y1="174.306" x2="108.538" y2="500.621" gradientUnits="userSpaceOnUse">
<stop offset="1.89831e-07" stop-color="#5E1000"/>
<stop offset="0.12" stop-color="#6E1503"/>
<stop offset="0.3522" stop-color="#962209"/>
<stop offset="0.4976" stop-color="#B32B0E"/>
<stop offset="0.5245" stop-color="#AE2A0E"/>
<stop offset="0.7238" stop-color="#8B220B"/>
<stop offset="0.8875" stop-color="#761D0A"/>
<stop offset="0.9945" stop-color="#6E1B09"/>
</linearGradient>
<linearGradient id="paint26_linear" x1="436.075" y1="165.851" x2="446.674" y2="485.44" gradientUnits="userSpaceOnUse">
<stop offset="1.89831e-07" stop-color="#5E1000"/>
<stop offset="0.12" stop-color="#6E1503"/>
<stop offset="0.3522" stop-color="#962209"/>
<stop offset="0.4976" stop-color="#B32B0E"/>
<stop offset="0.5245" stop-color="#AE2A0E"/>
<stop offset="0.7238" stop-color="#8B220B"/>
<stop offset="0.8875" stop-color="#761D0A"/>
<stop offset="0.9945" stop-color="#6E1B09"/>
</linearGradient>
<linearGradient id="paint27_linear" x1="778.989" y1="131.689" x2="790.063" y2="465.634" gradientUnits="userSpaceOnUse">
<stop offset="1.89831e-07" stop-color="#5E1000"/>
<stop offset="0.12" stop-color="#6E1503"/>
<stop offset="0.3522" stop-color="#962209"/>
<stop offset="0.4976" stop-color="#B32B0E"/>
<stop offset="0.5245" stop-color="#AE2A0E"/>
<stop offset="0.7238" stop-color="#8B220B"/>
<stop offset="0.8875" stop-color="#761D0A"/>
<stop offset="0.9945" stop-color="#6E1B09"/>
</linearGradient>
<linearGradient id="paint28_linear" x1="97.4243" y1="116.78" x2="108.246" y2="443.095" gradientUnits="userSpaceOnUse">
<stop offset="1.89831e-07" stop-color="#5E1000"/>
<stop offset="0.12" stop-color="#6E1503"/>
<stop offset="0.3522" stop-color="#962209"/>
<stop offset="0.4976" stop-color="#B32B0E"/>
<stop offset="0.5245" stop-color="#AE2A0E"/>
<stop offset="0.7238" stop-color="#8B220B"/>
<stop offset="0.8875" stop-color="#761D0A"/>
<stop offset="0.9945" stop-color="#6E1B09"/>
</linearGradient>
<linearGradient id="paint29_linear" x1="438.721" y1="108.228" x2="449.319" y2="427.817" gradientUnits="userSpaceOnUse">
<stop offset="1.89831e-07" stop-color="#5E1000"/>
<stop offset="0.12" stop-color="#6E1503"/>
<stop offset="0.3522" stop-color="#962209"/>
<stop offset="0.4976" stop-color="#B32B0E"/>
<stop offset="0.5245" stop-color="#AE2A0E"/>
<stop offset="0.7238" stop-color="#8B220B"/>
<stop offset="0.8875" stop-color="#761D0A"/>
<stop offset="0.9945" stop-color="#6E1B09"/>
</linearGradient>
<linearGradient id="paint30_linear" x1="791.976" y1="73.7232" x2="803.051" y2="407.668" gradientUnits="userSpaceOnUse">
<stop offset="1.89831e-07" stop-color="#5E1000"/>
<stop offset="0.12" stop-color="#6E1503"/>
<stop offset="0.3522" stop-color="#962209"/>
<stop offset="0.4976" stop-color="#B32B0E"/>
<stop offset="0.5245" stop-color="#AE2A0E"/>
<stop offset="0.7238" stop-color="#8B220B"/>
<stop offset="0.8875" stop-color="#761D0A"/>
<stop offset="0.9945" stop-color="#6E1B09"/>
</linearGradient>
</defs>
</svg>
