<svg width="898" height="624" viewBox="0 0 898 624" fill="none" xmlns="http://www.w3.org/2000/svg">
<path d="M380.894 366.784C395.917 368.953 430.301 363.113 447.994 334.916C454.67 324.238 452.667 304.384 425.961 293.038C417.615 289.534 404.93 286.364 391.911 286.031C378.891 285.697 365.705 288.033 355.857 295.541L380.894 366.784ZM380.894 366.784C372.549 365.616 363.869 361.945 356.525 356.94C349.18 352.101 343.338 345.761 340.501 339.755L380.894 366.784ZM341.002 310.557C336.829 317.731 334.826 327.241 340.501 339.755L341.002 310.557ZM341.002 310.557C345.175 303.549 351.517 298.878 355.523 295.875L341.002 310.557ZM341.002 310.557L355.523 295.875L341.002 310.557ZM355.356 295.875C355.523 295.708 355.69 295.708 355.69 295.708L355.356 295.875Z" fill="#8B92D2" fill-opacity="0.4" stroke="#5A5999" stroke-width="2"/>
<path d="M381.061 364.448C395.583 366.45 427.964 360.944 444.823 334.416C451.332 324.238 449.329 305.218 423.958 294.707C408.101 288.033 376.555 283.027 357.526 297.209C350.182 302.548 332.155 315.395 342.838 339.087C347.845 350.767 364.87 362.112 381.061 364.448Z" fill="#5A5999"/>
<path d="M381.228 363.447C395.416 365.449 426.796 359.943 443.153 334.249C449.496 324.238 447.493 305.885 422.957 295.541C407.434 289.034 377.055 284.195 358.361 298.044C351.351 303.383 333.658 315.729 344.006 338.587C349.181 350.099 365.705 361.111 381.228 363.447Z" fill="#949BD9" stroke="#5C629B" stroke-width="1.1294" stroke-miterlimit="10" stroke-linecap="round" stroke-linejoin="round"/>
<path d="M388.906 340.422C408.268 335.751 412.608 322.403 401.926 313.56C391.076 304.551 379.559 301.881 366.373 313.393C353.02 325.073 370.713 344.76 388.906 340.422Z" fill="#406296" stroke="#2D3368" stroke-width="1.1294" stroke-miterlimit="10" stroke-linecap="round" stroke-linejoin="round"/>
<path opacity="0.5" d="M385.735 339.254C400.257 335.75 403.595 325.907 395.416 319.066C387.237 312.392 378.558 310.223 368.71 318.899C358.862 327.742 372.215 342.424 385.735 339.254Z" fill="#6277C2"/>
</svg>
