<svg width="388" height="388" viewBox="0 0 388 388" fill="none" xmlns="http://www.w3.org/2000/svg">
<path d="M81.6737 256.621C77.9784 266.132 71.1797 280.719 58.7193 295.387C44.3368 312.318 34.1286 316.096 21.6139 331.055C13.8652 340.321 4.61301 355.194 0 378.972C0.229443 379.892 1.0244 382.577 3.60262 384.737C6.09429 386.824 8.77112 387.178 9.72713 387.259C12.7803 362.134 21.6139 346.679 29.1795 337.181C41.0582 322.265 51.4375 318.747 65.5644 301.873C78.2099 286.766 84.7712 271.472 88.2873 261.261C86.0814 259.713 83.8775 258.167 81.6737 256.621Z" fill="#312B24"/>
<path d="M81.6737 256.621C77.9784 266.132 71.1797 280.719 58.7193 295.387C44.3368 312.318 34.1286 316.096 21.6139 331.055C13.8652 340.321 4.61301 355.194 0 378.972C0.229443 379.892 1.0244 382.577 3.60262 384.737C6.09429 386.824 8.77112 387.178 9.72713 387.259C12.7803 362.134 21.6139 346.679 29.1795 337.181C41.0582 322.265 51.4375 318.747 65.5644 301.873C78.2099 286.766 84.7712 271.472 88.2873 261.261C86.0814 259.713 83.8775 258.167 81.6737 256.621Z" fill="url(#paint0_linear_3316_579106)"/>
<path d="M81.6737 256.621C77.9784 266.132 71.1797 280.719 58.7193 295.387C44.3368 312.318 34.1286 316.096 21.6139 331.055C13.8652 340.321 4.61301 355.194 0 378.972C0.402532 380.395 1.33837 382.83 3.60262 384.737C4.11584 385.169 4.63111 385.52 5.12421 385.804C9.25016 360.953 18.4883 345.371 26.1424 335.745C37.5803 321.361 47.4223 317.837 62.2093 301.482C75.8068 286.442 83.7447 271.436 88.2873 261.263C86.0814 259.713 83.8775 258.167 81.6737 256.621Z" fill="url(#paint1_linear_3316_579106)"/>
<path d="M380.316 7.21613C358.456 34.2873 339.841 57.7292 325.241 76.2597C224.782 203.844 217.311 221.905 215.175 244.236C213.468 261.829 215.046 282.666 201.171 305.808C191.949 321.222 180.423 330.061 161.039 345.005C145.626 356.874 129.488 369.044 119.071 363.664C114.973 361.571 112.111 356.917 108.782 351.536C104.64 344.747 102.72 338.513 101.651 334.328C99.5159 325.703 99.0469 317.634 100.414 290.903C101.438 270.621 102.336 262.891 98.5357 261.013C95.5469 259.562 91.0225 262.38 87.2226 265.583C86.7959 265.925 86.4114 266.265 86.027 266.607C83.6783 265.967 81.2872 265.369 78.9405 264.771C79.0693 264.002 79.1961 263.278 79.3249 262.509C79.9649 258.069 80.0515 253.713 78.0006 252.646C74.6696 250.895 67.4985 259.093 56.5678 270.365C35.6482 291.885 25.1441 302.603 20.1487 301.15C8.70677 297.819 13.189 251.193 13.6177 247.05C16.691 216.734 20.9176 175.231 48.1569 141.584C68.3096 116.69 108.271 104.136 188.109 79.0717C242.074 62.1213 261.116 59.9856 306.586 41.753C337.325 29.4564 361.789 17.1577 378.142 8.40575C378.184 8.40575 378.184 8.36349 378.184 8.36349C378.527 8.19239 378.824 8.02129 379.124 7.85019C379.505 7.64488 379.931 7.4295 380.316 7.21613Z" fill="#7F8E35"/>
<path d="M380.316 7.21613C358.456 34.2873 339.841 57.7292 325.241 76.2597C224.782 203.844 217.311 221.905 215.175 244.236C213.468 261.829 215.046 282.666 201.171 305.808C191.949 321.222 180.423 330.061 161.039 345.005C145.626 356.874 129.488 369.044 119.071 363.664C114.973 361.571 112.111 356.917 108.782 351.536C104.64 344.747 102.72 338.513 101.651 334.328C99.5159 325.703 99.0469 317.634 100.414 290.903C101.438 270.621 102.336 262.891 98.5357 261.013C95.5469 259.562 91.0225 262.38 87.2226 265.583C86.7959 265.925 86.4114 266.265 86.027 266.607C83.6783 265.967 81.2872 265.369 78.9405 264.771C79.0693 264.002 79.1961 263.278 79.3249 262.509C79.9649 258.069 80.0515 253.713 78.0006 252.646C74.6696 250.895 67.4985 259.093 56.5678 270.365C35.6482 291.885 25.1441 302.603 20.1487 301.15C8.70677 297.819 13.189 251.193 13.6177 247.05C16.691 216.734 20.9176 175.231 48.1569 141.584C68.3096 116.69 108.271 104.136 188.109 79.0717C242.074 62.1213 261.116 59.9856 306.586 41.753C337.325 29.4564 361.789 17.1577 378.142 8.40575C378.184 8.40575 378.184 8.36349 378.184 8.36349C378.527 8.19239 378.824 8.02129 379.124 7.85019C379.505 7.64488 379.931 7.4295 380.316 7.21613Z" fill="url(#paint2_linear_3316_579106)"/>
<path d="M380.316 7.21613C358.456 34.2873 339.841 57.7292 325.241 76.2597C224.782 203.844 217.311 221.905 215.175 244.236C213.468 261.829 215.046 282.666 201.171 305.808C191.949 321.222 180.423 330.061 161.039 345.005C145.626 356.874 129.488 369.044 119.071 363.664C114.973 361.571 112.111 356.917 108.782 351.536C104.64 344.747 102.72 338.513 101.651 334.328C99.5158 325.703 99.0469 317.634 100.413 290.903C101.438 270.621 102.336 262.891 98.5357 261.013C95.5469 259.562 91.0225 262.38 87.2226 265.583C91.3646 257.684 95.8045 249.87 100.373 242.183C110.491 240.987 120.908 242.354 130.43 246.41C140.932 250.893 150.283 258.153 157.796 266.992C150.837 257.726 141.872 249.784 131.326 244.49C122.617 240.134 112.753 237.914 102.891 238.042C111.473 224.037 120.78 210.46 130.642 197.35C140.077 192.994 150.494 190.647 160.997 190.732C172.694 190.774 184.394 193.806 194.938 199.144C184.734 193.165 173.079 189.365 161.081 188.596C152.372 187.998 143.535 189.023 135.08 191.543C137.044 188.981 139.008 186.463 141.057 183.942C151.859 170.621 163.386 157.896 175.81 146.11C178.499 143.548 181.232 141.072 183.965 138.639C202.322 132.02 222.56 130.311 242.115 133.985C225.548 129.629 207.873 129.245 190.882 132.705C198.824 126.002 207.107 119.681 215.902 114.13C230.29 104.949 246.086 97.8196 261.327 89.6635C276.654 81.6361 291.556 72.713 306.029 63.2747C331.688 46.5799 356.11 28.0051 379.12 7.85222C379.505 7.64489 379.931 7.4295 380.316 7.21613Z" fill="url(#paint3_linear_3316_579106)"/>
<path d="M379.12 7.85829C356.107 28.0112 331.688 46.586 306.028 63.2808C291.555 72.7171 276.656 81.6402 261.327 89.6696C246.086 97.8257 230.288 104.955 215.902 114.136C207.106 119.688 198.824 126.006 190.882 132.711C207.875 129.253 225.55 129.637 242.115 133.991C222.562 130.32 202.324 132.026 183.965 138.645C181.232 141.078 178.501 143.554 175.81 146.117C163.385 157.902 151.859 170.625 141.057 183.949C139.008 186.469 137.044 188.987 135.079 191.549C143.533 189.029 152.37 188.004 161.081 188.602C173.078 189.371 184.734 193.172 194.938 199.15C184.392 193.812 172.694 190.78 160.996 190.738C150.494 190.653 140.077 193 130.642 197.356C120.78 210.464 111.471 224.043 102.891 238.048C112.753 237.92 122.615 240.14 131.326 244.496C141.872 249.79 150.837 257.732 157.796 266.998C150.283 258.159 140.932 250.901 130.43 246.416C120.91 242.36 110.493 240.993 100.373 242.189C95.8045 249.874 91.3646 257.688 87.2225 265.589C86.7958 265.931 86.4114 266.271 86.0269 266.613C83.6782 265.973 81.2871 265.375 78.9404 264.777C79.0692 264.009 79.196 263.284 79.3248 262.515C85.4735 251.201 92.1757 240.14 99.2622 229.381C99.1777 224.214 98.28 219.091 96.4868 214.222C94.0957 208.202 90.5514 202.608 85.7714 198.081C81.0316 193.512 75.3961 189.84 69.2917 187.151C63.1873 184.462 56.7388 182.497 50.0789 181.515C56.781 182.113 63.3986 183.777 69.7184 186.169C76.0381 188.56 82.0138 191.976 87.2225 196.501C92.4313 200.983 96.5733 206.706 99.4755 213.024C101.013 216.611 102.038 220.369 102.678 224.212C113.053 208.84 124.237 194.067 136.108 179.848C137.004 178.824 137.901 177.799 138.797 176.732C140.035 167.125 139.65 157.262 137.388 147.741C134.955 137.407 130.515 127.501 124.451 118.663C131.068 127.075 136.277 136.767 139.437 147.185C141.87 155.084 143.108 163.411 143.108 171.781C152.33 161.447 161.979 151.541 172.183 142.191C181.96 133.266 192.249 124.812 203.222 117.298C208.302 106.837 209.455 94.283 206.082 82.6265C210.095 92.2339 211.035 103.335 208.515 113.84C210.224 112.729 211.888 111.578 213.639 110.509C228.581 101.415 244.55 94.6252 259.878 86.8112C275.291 79.1261 290.233 70.5855 304.877 61.4913C330.494 45.5212 355.001 27.8019 378.14 8.41587C378.182 8.41587 378.182 8.37361 378.182 8.37361C378.522 8.19849 378.82 8.02737 379.12 7.85829Z" fill="url(#paint4_linear_3316_579106)"/>
<path d="M388 0C385.053 2.64693 382.109 5.29386 379.12 7.85624C356.107 28.0091 331.688 46.5839 306.028 63.2787C291.555 72.715 276.656 81.6381 261.327 89.6675C246.086 97.8236 230.288 104.953 215.902 114.134C207.106 119.685 198.824 126.004 190.882 132.709C207.875 129.251 225.55 129.635 242.115 133.989C222.562 130.317 202.324 132.024 183.965 138.643C181.232 141.076 178.5 143.552 175.81 146.114C163.385 157.9 151.859 170.623 141.057 183.946C139.008 186.467 137.044 188.985 135.079 191.547C143.533 189.027 152.37 188.002 161.081 188.6C173.078 189.369 184.734 193.169 194.938 199.148C184.392 193.81 172.694 190.778 160.996 190.736C150.494 190.651 140.077 192.998 130.642 197.354C120.78 210.462 111.471 224.041 102.891 238.046C112.753 237.918 122.615 240.138 131.326 244.494C141.872 249.788 150.837 257.73 157.796 266.996C150.283 258.157 140.932 250.899 130.43 246.414C120.91 242.358 110.493 240.991 100.373 242.187C95.8045 249.872 91.3646 257.686 87.2225 265.587C86.9669 265.842 86.7535 266.1 86.5824 266.313C86.4536 266.484 86.2846 266.655 86.1557 266.911C85.9847 267.209 85.8579 267.509 85.8136 267.764C84.8737 267.722 83.6359 267.593 82.3136 267.167C80.5626 266.653 79.2403 265.886 78.3426 265.289C78.5137 264.775 78.6405 264.264 78.8559 263.751C78.9847 263.324 79.1537 262.897 79.3248 262.513C85.4735 251.199 92.1756 240.138 99.2622 229.379C99.1777 224.212 98.28 219.089 96.4868 214.22C94.0957 208.2 90.5514 202.606 85.7714 198.079C81.0316 193.51 75.3961 189.838 69.2917 187.149C63.1873 184.46 56.7388 182.495 50.0789 181.513C56.781 182.111 63.3986 183.775 69.7184 186.167C76.0381 188.558 82.0138 191.974 87.2225 196.499C92.4313 200.981 96.5733 206.704 99.4755 213.022C101.013 216.609 102.038 220.367 102.678 224.21C113.053 208.838 124.237 194.065 136.108 179.846C137.004 178.822 137.901 177.797 138.797 176.73C140.035 167.123 139.65 157.26 137.388 147.739C134.955 137.405 130.515 127.499 124.451 118.661C131.068 127.073 136.277 136.765 139.437 147.183C141.87 155.082 143.108 163.409 143.108 171.779C152.33 161.445 161.979 151.539 172.183 142.189C181.96 133.264 192.249 124.81 203.222 117.296C208.302 106.835 209.455 94.281 206.082 82.6244C210.095 92.2319 211.035 103.333 208.515 113.838C210.224 112.727 211.888 111.576 213.639 110.507C228.581 101.413 244.55 94.6232 259.878 86.8092C275.291 79.124 290.233 70.5834 304.877 61.4893C330.494 45.5191 355.001 27.7998 378.14 8.4138C378.182 8.4138 378.182 8.37153 378.182 8.37153C381.511 5.59377 384.756 2.81802 388 0Z" fill="url(#paint5_linear_3316_579106)"/>
<defs>
<linearGradient id="paint0_linear_3316_579106" x1="81.7313" y1="266.292" x2="44.949" y2="317.859" gradientUnits="userSpaceOnUse">
<stop stop-color="#2B4E2C"/>
<stop offset="1" stop-color="#2B4E2C" stop-opacity="0"/>
</linearGradient>
<linearGradient id="paint1_linear_3316_579106" x1="-136.785" y1="317.873" x2="82.9373" y2="321.942" gradientUnits="userSpaceOnUse">
<stop stop-color="#E0C9AD"/>
<stop offset="1" stop-color="#E0C9AD" stop-opacity="0"/>
</linearGradient>
<linearGradient id="paint2_linear_3316_579106" x1="-20.8108" y1="519.193" x2="186.851" y2="124.009" gradientUnits="userSpaceOnUse">
<stop stop-color="#2B4E2C"/>
<stop offset="1" stop-color="#2B4E2C" stop-opacity="0"/>
</linearGradient>
<linearGradient id="paint3_linear_3316_579106" x1="775.277" y1="298.439" x2="105.051" y2="154.635" gradientUnits="userSpaceOnUse">
<stop stop-color="#E1B337"/>
<stop offset="1" stop-color="#E1B337" stop-opacity="0"/>
</linearGradient>
<linearGradient id="paint4_linear_3316_579106" x1="36.0287" y1="434.579" x2="210.433" y2="102.684" gradientUnits="userSpaceOnUse">
<stop stop-color="#2B4E2C"/>
<stop offset="1" stop-color="#2B4E2C" stop-opacity="0"/>
</linearGradient>
<linearGradient id="paint5_linear_3316_579106" x1="77.6557" y1="247.327" x2="353.184" y2="5.4653" gradientUnits="userSpaceOnUse">
<stop stop-color="#2B4E2C"/>
<stop offset="1" stop-color="#2B4E2C" stop-opacity="0"/>
</linearGradient>
</defs>
</svg>
