<svg width="86" height="89" viewBox="0 0 86 89" fill="none" xmlns="http://www.w3.org/2000/svg">
<g filter="url(#filter0_d_4097_264678)">
<path d="M1 42.5C1 19.0279 20.0279 0 43.5 0C66.9721 0 86 19.0279 86 42.5C86 65.9721 66.9721 85 43.5 85C20.0279 85 1 65.9721 1 42.5Z" fill="white"/>
<path d="M43.5 81C22.237 81 5 63.763 5 42.5H-3C-3 68.1812 17.8188 89 43.5 89V81ZM82 42.5C82 63.763 64.763 81 43.5 81V89C69.1812 89 90 68.1812 90 42.5H82ZM43.5 4C64.763 4 82 21.237 82 42.5H90C90 16.8188 69.1812 -4 43.5 -4V4ZM43.5 -4C17.8188 -4 -3 16.8188 -3 42.5H5C5 21.237 22.237 4 43.5 4V-4Z" fill="#007EC6"/>
</g>
<path d="M9.93121 47L10.7024 44.6955H14.2163L14.9921 47H16.7992L13.5044 37.654H11.4143L8.12408 47H9.93121ZM11.1588 43.3355L12.4229 39.5707H12.4959L13.76 43.3355H11.1588ZM17.3366 49.0353H18.9612V47H23.5474V49.0353H25.1446V45.6401H24.0585V39.9905H18.9931L18.7923 42.4457C18.66 44.0155 18.4866 45.1792 17.8933 45.6401H17.3366V49.0353ZM19.5909 45.6401C20.0336 44.9875 20.1978 43.9288 20.3165 42.4457L20.426 41.3231H22.4796V45.6401H19.5909ZM26.3779 49.6286H28.0299V45.8956H28.0983C28.3584 46.4068 28.9015 47.1232 30.1063 47.1232C31.7582 47.1232 32.9949 45.8135 32.9949 43.5044C32.9949 41.1679 31.7217 39.8993 30.1017 39.8993C28.865 39.8993 28.3493 40.6431 28.0983 41.1496H28.0025V39.9905H26.3779V49.6286ZM27.9979 43.4953C27.9979 42.1354 28.5821 41.2546 29.6453 41.2546C30.7451 41.2546 31.311 42.1901 31.311 43.4953C31.311 44.8095 30.736 45.7679 29.6453 45.7679C28.5912 45.7679 27.9979 44.8552 27.9979 43.4953ZM37.5127 47.1369C39.1465 47.1369 40.2691 46.3383 40.5611 45.1199L39.0187 44.9464C38.7951 45.5397 38.2475 45.85 37.5356 45.85C36.4677 45.85 35.7604 45.1472 35.7467 43.947H40.6296V43.4405C40.6296 40.9808 39.151 39.8993 37.426 39.8993C35.4181 39.8993 34.1084 41.3733 34.1084 43.5363C34.1084 45.7359 35.3999 47.1369 37.5127 47.1369ZM35.7513 42.8336C35.8014 41.9391 36.4631 41.1862 37.4489 41.1862C38.3981 41.1862 39.0369 41.8798 39.0461 42.8336H35.7513ZM43.6198 39.9905H42.0271V47H43.6198V44.1661H46.335V47H47.9231V39.9905H46.335V42.8107H43.6198V39.9905ZM51.6115 47.1415C52.7113 47.1415 53.3685 46.6258 53.6697 46.0371H53.7244V47H55.3125V42.3088C55.3125 40.456 53.802 39.8993 52.4649 39.8993C50.9909 39.8993 49.8592 40.5564 49.4941 41.8342L51.0365 42.0532C51.2008 41.574 51.6663 41.1633 52.474 41.1633C53.2407 41.1633 53.6605 41.5558 53.6605 42.2449V42.2723C53.6605 42.7469 53.1631 42.7697 51.9264 42.902C50.5665 43.048 49.2659 43.4542 49.2659 45.0332C49.2659 46.4113 50.2745 47.1415 51.6115 47.1415ZM52.0405 45.9276C51.3514 45.9276 50.8586 45.6127 50.8586 45.0058C50.8586 44.3714 51.4108 44.1068 52.15 44.0018C52.5836 43.9425 53.4506 43.833 53.6651 43.6595V44.4855C53.6651 45.2659 53.0353 45.9276 52.0405 45.9276ZM56.4899 47H57.001C58.5069 47 59.1869 45.9413 59.2964 43.6048L59.4059 41.3459H61.4184V47H63.0156V39.9905H57.9045L57.7813 43.0937C57.7038 45.0605 57.4482 45.6401 56.7226 45.6401H56.4808L56.4899 47ZM66.2716 44.7639V39.9905H64.679V47H66.3812L69.1786 42.2221V47H70.7758V39.9905H69.0782L66.2716 44.7639ZM74.0649 39.9905H72.4722V47H74.0649V44.1661H76.7801V47H78.3682V39.9905H76.7801V42.8107H74.0649V39.9905Z" fill="#007EC6"/>
<defs>
<filter id="filter0_d_4097_264678" x="0" y="0" width="86" height="89" filterUnits="userSpaceOnUse" color-interpolation-filters="sRGB">
<feFlood flood-opacity="0" result="BackgroundImageFix"/>
<feColorMatrix in="SourceAlpha" type="matrix" values="0 0 0 0 0 0 0 0 0 0 0 0 0 0 0 0 0 0 127 0" result="hardAlpha"/>
<feOffset dx="-1" dy="4"/>
<feComposite in2="hardAlpha" operator="out"/>
<feColorMatrix type="matrix" values="0 0 0 0 0 0 0 0 0 0 0 0 0 0 0 0 0 0 0.1 0"/>
<feBlend mode="normal" in2="BackgroundImageFix" result="effect1_dropShadow_4097_264678"/>
<feBlend mode="normal" in="SourceGraphic" in2="effect1_dropShadow_4097_264678" result="shape"/>
</filter>
</defs>
</svg>
