<svg width="86" height="89" viewBox="0 0 86 89" fill="none" xmlns="http://www.w3.org/2000/svg">
<g filter="url(#filter0_d_4097_264700)">
<path d="M1 42.5C1 19.0279 20.0279 0 43.5 0C66.9721 0 86 19.0279 86 42.5C86 65.9721 66.9721 85 43.5 85C20.0279 85 1 65.9721 1 42.5Z" fill="white"/>
<path d="M43.5 81C22.237 81 5 63.763 5 42.5H-3C-3 68.1812 17.8188 89 43.5 89V81ZM82 42.5C82 63.763 64.763 81 43.5 81V89C69.1812 89 90 68.1812 90 42.5H82ZM43.5 4C64.763 4 82 21.237 82 42.5H90C90 16.8188 69.1812 -4 43.5 -4V4ZM43.5 -4C17.8188 -4 -3 16.8188 -3 42.5H5C5 21.237 22.237 4 43.5 4V-4Z" fill="#C84141"/>
</g>
<path d="M12.2447 43.7286C12.413 45.7182 13.7839 47.1386 16.2535 47.1386C18.7924 47.1386 20.3711 45.3074 20.3711 42.4171V41.4768C20.3711 38.5816 18.7528 36.7257 16.2089 36.7257C13.7096 36.7257 12.4328 38.2252 12.2348 40.2049H14.0808C14.2046 38.9825 14.749 38.2549 16.2089 38.2549C17.6986 38.2549 18.4905 39.3784 18.54 41.2937H15.0657V42.8032H18.5301C18.441 44.5057 17.763 45.639 16.2535 45.639C14.8578 45.639 14.2095 44.9808 14.0907 43.7286H12.2447ZM25.3512 47.1485C27.2615 47.1485 28.479 46.0151 28.6077 44.4017H26.8953C26.7419 45.2183 26.1529 45.6885 25.366 45.6885C24.2475 45.6885 23.525 44.7531 23.525 43.1991C23.525 41.6649 24.2624 40.7443 25.366 40.7443C26.2272 40.7443 26.7567 41.2986 26.8953 42.0311H28.6077C28.484 40.3831 27.1972 39.2992 25.3413 39.2992C23.1142 39.2992 21.7086 40.9077 21.7086 43.2288C21.7086 45.5301 23.0795 47.1485 25.3512 47.1485ZM29.5406 40.8681H32.0003V47H33.7325V40.8681H36.1922V39.3982H29.5406V40.8681ZM37.6188 49.8507H39.4103V45.8023H39.4846C39.7667 46.3566 40.3556 47.1336 41.6622 47.1336C43.4537 47.1336 44.7949 45.7132 44.7949 43.209C44.7949 40.675 43.4141 39.2992 41.6572 39.2992C40.316 39.2992 39.7568 40.1059 39.4846 40.6553H39.3806V39.3982H37.6188V49.8507ZM39.3757 43.1991C39.3757 41.7243 40.0092 40.7691 41.1623 40.7691C42.355 40.7691 42.9687 41.7836 42.9687 43.1991C42.9687 44.6244 42.3451 45.6637 41.1623 45.6637C40.0191 45.6637 39.3757 44.6739 39.3757 43.1991ZM49.6451 47.1485C51.8722 47.1485 53.2876 45.5796 53.2876 43.2288C53.2876 40.873 51.8722 39.2992 49.6451 39.2992C47.418 39.2992 46.0025 40.873 46.0025 43.2288C46.0025 45.5796 47.418 47.1485 49.6451 47.1485ZM49.655 45.7132C48.4226 45.7132 47.8189 44.6145 47.8189 43.2238C47.8189 41.8331 48.4226 40.7196 49.655 40.7196C50.8675 40.7196 51.4713 41.8331 51.4713 43.2238C51.4713 44.6145 50.8675 45.7132 49.655 45.7132ZM59.8365 39.3982H54.8082V47H56.5602V40.8681H59.8365V39.3982ZM64.3253 47.1485C66.0971 47.1485 67.3146 46.2824 67.6313 44.961L65.9585 44.7729C65.716 45.4163 65.1221 45.7528 64.3501 45.7528C63.192 45.7528 62.4249 44.9907 62.41 43.6891H67.7056V43.1397C67.7056 40.4721 66.1021 39.2992 64.2313 39.2992C62.0537 39.2992 60.6333 40.8978 60.6333 43.2436C60.6333 45.6291 62.0339 47.1485 64.3253 47.1485ZM62.415 42.4815C62.4694 41.5114 63.187 40.6948 64.2561 40.6948C65.2855 40.6948 65.9783 41.4471 65.9882 42.4815H62.415ZM70.9485 39.3982H69.2212V47H70.9485V43.9266H73.8932V47H75.6155V39.3982H73.8932V42.4567H70.9485V39.3982Z" fill="#C84141"/>
<defs>
<filter id="filter0_d_4097_264700" x="0" y="0" width="86" height="89" filterUnits="userSpaceOnUse" color-interpolation-filters="sRGB">
<feFlood flood-opacity="0" result="BackgroundImageFix"/>
<feColorMatrix in="SourceAlpha" type="matrix" values="0 0 0 0 0 0 0 0 0 0 0 0 0 0 0 0 0 0 127 0" result="hardAlpha"/>
<feOffset dx="-1" dy="4"/>
<feComposite in2="hardAlpha" operator="out"/>
<feColorMatrix type="matrix" values="0 0 0 0 0 0 0 0 0 0 0 0 0 0 0 0 0 0 0.1 0"/>
<feBlend mode="normal" in2="BackgroundImageFix" result="effect1_dropShadow_4097_264700"/>
<feBlend mode="normal" in="SourceGraphic" in2="effect1_dropShadow_4097_264700" result="shape"/>
</filter>
</defs>
</svg>
