<svg width="86" height="89" viewBox="0 0 86 89" fill="none" xmlns="http://www.w3.org/2000/svg">
<g filter="url(#filter0_d_4097_264698)">
<path d="M1 42.5C1 19.0279 20.0279 0 43.5 0C66.9721 0 86 19.0279 86 42.5C86 65.9721 66.9721 85 43.5 85C20.0279 85 1 65.9721 1 42.5Z" fill="white"/>
<path d="M43.5 81C22.237 81 5 63.763 5 42.5H-3C-3 68.1812 17.8188 89 43.5 89V81ZM82 42.5C82 63.763 64.763 81 43.5 81V89C69.1812 89 90 68.1812 90 42.5H82ZM43.5 4C64.763 4 82 21.237 82 42.5H90C90 16.8188 69.1812 -4 43.5 -4V4ZM43.5 -4C17.8188 -4 -3 16.8188 -3 42.5H5C5 21.237 22.237 4 43.5 4V-4Z" fill="#C6BC65"/>
</g>
<path d="M26.4664 30.5201H20.3701V40H22.0874V31.9597H26.4664V30.5201ZM29.9149 40.1389C31.9978 40.1389 33.3217 38.6715 33.3217 36.4728C33.3217 34.2695 31.9978 32.7975 29.9149 32.7975C27.8319 32.7975 26.508 34.2695 26.508 36.4728C26.508 38.6715 27.8319 40.1389 29.9149 40.1389ZM29.9241 38.7965C28.7715 38.7965 28.2068 37.7689 28.2068 36.4682C28.2068 35.1675 28.7715 34.126 29.9241 34.126C31.0582 34.126 31.6229 35.1675 31.6229 36.4682C31.6229 37.7689 31.0582 38.7965 29.9241 38.7965ZM34.7439 42.6662H36.4196V38.8798H36.489C36.7529 39.3982 37.3037 40.125 38.5257 40.125C40.2014 40.125 41.4558 38.7965 41.4558 36.4543C41.4558 34.0843 40.1643 32.7975 38.5211 32.7975C37.2667 32.7975 36.7436 33.552 36.489 34.0658H36.3918V32.8901H34.7439V42.6662ZM36.3872 36.445C36.3872 35.0656 36.9797 34.1723 38.0582 34.1723C39.1737 34.1723 39.7477 35.1212 39.7477 36.445C39.7477 37.7781 39.1645 38.7502 38.0582 38.7502C36.9889 38.7502 36.3872 37.8244 36.3872 36.445ZM46.9826 38.0512L44.9274 32.8901H42.8907V40H44.5062V35.2091L46.3994 40H47.5705L49.5285 35.1582V40H51.1301V32.8901H49.0934L46.9826 38.0512ZM55.921 40.1389C58.004 40.1389 59.3278 38.6715 59.3278 36.4728C59.3278 34.2695 58.004 32.7975 55.921 32.7975C53.838 32.7975 52.5141 34.2695 52.5141 36.4728C52.5141 38.6715 53.838 40.1389 55.921 40.1389ZM55.9302 38.7965C54.7777 38.7965 54.2129 37.7689 54.2129 36.4682C54.2129 35.1675 54.7777 34.126 55.9302 34.126C57.0643 34.126 57.629 35.1675 57.629 36.4682C57.629 37.7689 57.0643 38.7965 55.9302 38.7965ZM62.3655 32.8901H60.75V40H62.3655V37.1255H65.1197V40H66.7305V32.8901H65.1197V35.7507H62.3655V32.8901ZM25.4387 58.6662H27.1144V54.8798H27.1838C27.4477 55.3982 27.9985 56.125 29.2205 56.125C30.8962 56.125 32.1506 54.7965 32.1506 52.4543C32.1506 50.0843 30.8591 48.7975 29.2159 48.7975C27.9615 48.7975 27.4384 49.552 27.1838 50.0658H27.0866V48.8901H25.4387V58.6662ZM27.082 52.445C27.082 51.0656 27.6745 50.1723 28.753 50.1723C29.8686 50.1723 30.4426 51.1212 30.4426 52.445C30.4426 53.7781 29.8593 54.7502 28.753 54.7502C27.6837 54.7502 27.082 53.8244 27.082 52.445ZM36.6869 56.1389C38.7699 56.1389 40.0937 54.6715 40.0937 52.4728C40.0937 50.2695 38.7699 48.7975 36.6869 48.7975C34.6039 48.7975 33.28 50.2695 33.28 52.4728C33.28 54.6715 34.6039 56.1389 36.6869 56.1389ZM36.6961 54.7965C35.5436 54.7965 34.9788 53.7689 34.9788 52.4682C34.9788 51.1675 35.5436 50.126 36.6961 50.126C37.8302 50.126 38.3949 51.1675 38.3949 52.4682C38.3949 53.7689 37.8302 54.7965 36.6961 54.7965ZM44.6173 56.1389C46.404 56.1389 47.5427 55.0789 47.6631 53.5698H46.0615C45.918 54.3336 45.3672 54.7734 44.6312 54.7734C43.5851 54.7734 42.9092 53.8985 42.9092 52.445C42.9092 51.0101 43.5989 50.1491 44.6312 50.1491C45.4366 50.1491 45.9319 50.6675 46.0615 51.3526H47.6631C47.5474 49.8112 46.3439 48.7975 44.608 48.7975C42.525 48.7975 41.2104 50.3019 41.2104 52.4728C41.2104 54.6252 42.4926 56.1389 44.6173 56.1389ZM48.5356 50.2648H50.8362V56H52.4563V50.2648H54.7568V48.8901H48.5356V50.2648ZM57.8443 56.1435C58.9598 56.1435 59.6264 55.6204 59.9319 55.0233H59.9874V56H61.5983V51.2415C61.5983 49.3622 60.0661 48.7975 58.7099 48.7975C57.2147 48.7975 56.0668 49.464 55.6965 50.7601L57.261 50.9823C57.4277 50.4963 57.8998 50.0797 58.7191 50.0797C59.4968 50.0797 59.9226 50.4778 59.9226 51.1767V51.2045C59.9226 51.6859 59.4181 51.709 58.1637 51.8433C56.7843 51.9914 55.465 52.4034 55.465 54.005C55.465 55.4029 56.488 56.1435 57.8443 56.1435ZM58.2794 54.9122C57.5804 54.9122 57.0805 54.5928 57.0805 53.9772C57.0805 53.3338 57.6406 53.0653 58.3905 52.9588C58.8302 52.8987 59.7097 52.7876 59.9273 52.6117V53.4495C59.9273 54.241 59.2885 54.9122 58.2794 54.9122Z" fill="#C6BC65"/>
<defs>
<filter id="filter0_d_4097_264698" x="0" y="0" width="86" height="89" filterUnits="userSpaceOnUse" color-interpolation-filters="sRGB">
<feFlood flood-opacity="0" result="BackgroundImageFix"/>
<feColorMatrix in="SourceAlpha" type="matrix" values="0 0 0 0 0 0 0 0 0 0 0 0 0 0 0 0 0 0 127 0" result="hardAlpha"/>
<feOffset dx="-1" dy="4"/>
<feComposite in2="hardAlpha" operator="out"/>
<feColorMatrix type="matrix" values="0 0 0 0 0 0 0 0 0 0 0 0 0 0 0 0 0 0 0.1 0"/>
<feBlend mode="normal" in2="BackgroundImageFix" result="effect1_dropShadow_4097_264698"/>
<feBlend mode="normal" in="SourceGraphic" in2="effect1_dropShadow_4097_264698" result="shape"/>
</filter>
</defs>
</svg>
