<svg width="86" height="89" viewBox="0 0 86 89" fill="none" xmlns="http://www.w3.org/2000/svg">
<g filter="url(#filter0_d_4097_264682)">
<path d="M1 42.5C1 19.0279 20.0279 0 43.5 0C66.9721 0 86 19.0279 86 42.5C86 65.9721 66.9721 85 43.5 85C20.0279 85 1 65.9721 1 42.5Z" fill="white"/>
<path d="M43.5 81C22.237 81 5 63.763 5 42.5H-3C-3 68.1812 17.8188 89 43.5 89V81ZM82 42.5C82 63.763 64.763 81 43.5 81V89C69.1812 89 90 68.1812 90 42.5H82ZM43.5 4C64.763 4 82 21.237 82 42.5H90C90 16.8188 69.1812 -4 43.5 -4V4ZM43.5 -4C17.8188 -4 -3 16.8188 -3 42.5H5C5 21.237 22.237 4 43.5 4V-4Z" fill="#9733A2"/>
</g>
<path d="M17.7284 43.327C17.7284 40.306 15.8848 38.5263 13.4342 38.5263C10.9791 38.5263 9.14002 40.306 9.14002 43.327C9.14002 46.3435 10.9791 48.1278 13.4342 48.1278C15.8848 48.1278 17.7284 46.348 17.7284 43.327ZM16.0263 43.327C16.0263 45.4536 14.9584 46.6081 13.4342 46.6081C11.9146 46.6081 10.8422 45.4536 10.8422 43.327C10.8422 41.2004 11.9146 40.0459 13.4342 40.0459C14.9584 40.0459 16.0263 41.2004 16.0263 43.327ZM19.2561 48H20.908V45.3578H21.7158L23.637 48H25.6358L23.0118 44.4314L25.6084 40.9905H23.6187L21.5104 43.8199H20.908V40.9905H19.2561V48ZM29.3413 48.1369C31.1028 48.1369 32.2254 47.0919 32.3441 45.6042H30.7651C30.6236 46.3572 30.0806 46.7907 29.355 46.7907C28.3237 46.7907 27.6574 45.9282 27.6574 44.4953C27.6574 43.0806 28.3373 42.2318 29.355 42.2318C30.149 42.2318 30.6373 42.7429 30.7651 43.4183H32.3441C32.23 41.8987 31.0435 40.8993 29.3322 40.8993C27.2786 40.8993 25.9826 42.3824 25.9826 44.5226C25.9826 46.6447 27.2467 48.1369 29.3413 48.1369ZM35.2932 45.7639V40.9905H33.7005V48H35.4027L38.2001 43.2221V48H39.7973V40.9905H38.0997L35.2932 45.7639ZM40.7089 42.3459H42.9769V48H44.5741V42.3459H46.8422V40.9905H40.7089V42.3459ZM50.9265 48.1369C52.98 48.1369 54.2852 46.6903 54.2852 44.5226C54.2852 42.3504 52.98 40.8993 50.9265 40.8993C48.8729 40.8993 47.5678 42.3504 47.5678 44.5226C47.5678 46.6903 48.8729 48.1369 50.9265 48.1369ZM50.9356 46.8135C49.7993 46.8135 49.2425 45.8004 49.2425 44.5181C49.2425 43.2358 49.7993 42.209 50.9356 42.209C52.0536 42.209 52.6104 43.2358 52.6104 44.5181C52.6104 45.8004 52.0536 46.8135 50.9356 46.8135ZM61.6061 40.9905H60.0271V46.6447H57.2799V40.9905H55.6873V48H61.063V50.2543H62.6785V46.7679H61.6061V40.9905ZM65.6253 45.7639V40.9905H64.0327V48H65.7349L68.5323 43.2221V48H70.1295V40.9905H68.4319L65.6253 45.7639ZM73.4186 40.9905H71.8259V48H73.4186V45.1661H76.1338V48H77.7219V40.9905H76.1338V43.8107H73.4186V40.9905Z" fill="#9733A2"/>
<defs>
<filter id="filter0_d_4097_264682" x="0" y="0" width="86" height="89" filterUnits="userSpaceOnUse" color-interpolation-filters="sRGB">
<feFlood flood-opacity="0" result="BackgroundImageFix"/>
<feColorMatrix in="SourceAlpha" type="matrix" values="0 0 0 0 0 0 0 0 0 0 0 0 0 0 0 0 0 0 127 0" result="hardAlpha"/>
<feOffset dx="-1" dy="4"/>
<feComposite in2="hardAlpha" operator="out"/>
<feColorMatrix type="matrix" values="0 0 0 0 0 0 0 0 0 0 0 0 0 0 0 0 0 0 0.1 0"/>
<feBlend mode="normal" in2="BackgroundImageFix" result="effect1_dropShadow_4097_264682"/>
<feBlend mode="normal" in="SourceGraphic" in2="effect1_dropShadow_4097_264682" result="shape"/>
</filter>
</defs>
</svg>
