<svg width="86" height="89" viewBox="0 0 86 89" fill="none" xmlns="http://www.w3.org/2000/svg">
<g filter="url(#filter0_d_4097_264694)">
<path d="M1 42.5C1 19.0279 20.0279 0 43.5 0C66.9721 0 86 19.0279 86 42.5C86 65.9721 66.9721 85 43.5 85C20.0279 85 1 65.9721 1 42.5Z" fill="white"/>
<path d="M43.5 81C22.237 81 5 63.763 5 42.5H-3C-3 68.1812 17.8188 89 43.5 89V81ZM82 42.5C82 63.763 64.763 81 43.5 81V89C69.1812 89 90 68.1812 90 42.5H82ZM43.5 4C64.763 4 82 21.237 82 42.5H90C90 16.8188 69.1812 -4 43.5 -4V4ZM43.5 -4C17.8188 -4 -3 16.8188 -3 42.5H5C5 21.237 22.237 4 43.5 4V-4Z" fill="#15AE12"/>
</g>
<path d="M22.4814 38.4297H27.4268V52H30.3018V38.4297H35.2471V36H22.4814V38.4297ZM37.0049 38.4297H41.9502V52H44.8252V38.4297H49.7705V36H37.0049V38.4297ZM62.5205 36H52.2314V52H55.1299V38.4297H62.5205V36Z" fill="#15AE12"/>
<defs>
<filter id="filter0_d_4097_264694" x="0" y="0" width="86" height="89" filterUnits="userSpaceOnUse" color-interpolation-filters="sRGB">
<feFlood flood-opacity="0" result="BackgroundImageFix"/>
<feColorMatrix in="SourceAlpha" type="matrix" values="0 0 0 0 0 0 0 0 0 0 0 0 0 0 0 0 0 0 127 0" result="hardAlpha"/>
<feOffset dx="-1" dy="4"/>
<feComposite in2="hardAlpha" operator="out"/>
<feColorMatrix type="matrix" values="0 0 0 0 0 0 0 0 0 0 0 0 0 0 0 0 0 0 0.1 0"/>
<feBlend mode="normal" in2="BackgroundImageFix" result="effect1_dropShadow_4097_264694"/>
<feBlend mode="normal" in="SourceGraphic" in2="effect1_dropShadow_4097_264694" result="shape"/>
</filter>
</defs>
</svg>
