<svg width="120" height="120" viewBox="0 0 120 120" fill="none" xmlns="http://www.w3.org/2000/svg">
<path fill-rule="evenodd" clip-rule="evenodd" d="M4.23223 4.23223C5.20854 3.25592 6.79146 3.25592 7.76777 4.23223L60 56.4645L112.232 4.23224C113.209 3.25593 114.791 3.25592 115.768 4.23224C116.744 5.20855 116.744 6.79146 115.768 7.76777L63.5355 60L115.768 112.232C116.744 113.209 116.744 114.791 115.768 115.768C114.791 116.744 113.208 116.744 112.232 115.768L60 63.5356L7.76784 115.768C6.79153 116.744 5.20862 116.744 4.23231 115.768C3.256 114.791 3.256 113.209 4.23231 112.232L56.4645 60L4.23223 7.76777C3.25592 6.79146 3.25592 5.20854 4.23223 4.23223Z" fill="#D9DBE9"/>
</svg>
