<svg width="43" height="43" viewBox="0 0 43 43" fill="none" xmlns="http://www.w3.org/2000/svg">
<g clip-path="url(#clip0_2446:374896)">
<path d="M43.0001 39.5795C43.0001 41.4363 41.4364 42.9999 39.5796 42.9999C38.6024 42.9999 37.7228 42.609 37.0387 41.9249L26.0933 30.0022C25.7023 29.6112 25.7023 29.0249 26.0933 28.634L28.6342 26.093C29.0252 25.7021 29.6114 25.7021 30.0024 26.093L41.9251 37.1363C42.6091 37.7227 43.0001 38.6999 43.0001 39.5795Z" fill="#B06328"/>
<path d="M26.3811 28.3163L28.3159 26.3815L25.4136 23.4792L23.4788 25.414L26.3811 28.3163Z" fill="#B0C4D8"/>
<path d="M26.8749 26.875L27.3635 27.3636L28.3407 26.3864L25.4089 23.4546L23.4543 25.4092L24.9203 26.875C25.5067 26.2886 26.2885 26.2886 26.8749 26.875Z" fill="#99B4CD"/>
<path d="M14.6591 0C6.54776 0 0 6.54776 0 14.6591C0 22.7703 6.54776 29.3181 14.6591 29.3181C22.7703 29.3181 29.3181 22.7703 29.3181 14.6591C29.3181 6.54776 22.7704 0 14.6591 0ZM14.6591 26.3864C8.20905 26.3864 2.93181 21.1091 2.93181 14.6591C2.93181 8.20914 8.20905 2.93181 14.6591 2.93181C21.1091 2.93181 26.3863 8.20905 26.3863 14.6591C26.3863 21.1091 21.1091 26.3864 14.6591 26.3864Z" fill="#C4D7E5"/>
<path d="M14.659 26.3862C21.1358 26.3862 26.3862 21.1358 26.3862 14.659C26.3862 8.18223 21.1358 2.93176 14.659 2.93176C8.18223 2.93176 2.93176 8.18223 2.93176 14.659C2.93176 21.1358 8.18223 26.3862 14.659 26.3862Z" fill="#70B7E5"/>
<path d="M8.89331 16.0272C9.38193 12.3136 12.3137 9.3818 16.0274 8.89318H16.1251C17.7865 8.69775 17.8842 6.35223 16.3206 6.05913C15.3433 5.86369 14.366 5.86369 13.3887 5.96137C9.57736 6.54775 6.54779 9.57732 6.05917 13.2909C5.86374 14.2682 5.96141 15.3432 6.15693 16.2227C6.45012 17.8841 8.79555 17.6887 8.99098 16.0273C8.89331 16.125 8.89331 16.0272 8.89331 16.0272Z" fill="#92C5EB"/>
<path d="M3.90901 15.6365C3.90901 9.18649 9.18625 3.90925 15.6363 3.90925C18.6658 3.90925 21.3044 5.08201 23.4544 6.84106C21.3044 4.39787 18.1772 2.93201 14.659 2.93201C8.20901 2.93201 2.93176 8.20925 2.93176 14.6592C2.93176 18.1774 4.49538 21.3047 6.84082 23.4547C5.08176 21.3047 3.90901 18.6661 3.90901 15.6365Z" fill="#4C9CD6"/>
<path d="M14.6589 29.3182C22.7703 29.3182 29.318 22.7705 29.318 14.6592C28.8294 14.6592 28.3407 15.0501 28.3407 15.6364C28.1453 18.9592 26.6794 21.9887 24.4317 24.2364C22.1839 26.5819 19.0567 28.0478 15.6363 28.341C15.0499 28.341 14.6589 28.8296 14.6589 29.3182Z" fill="#B0C9DB"/>
<path d="M14.6591 0C6.54776 0 0 6.54776 0 14.6591C0.488621 14.6591 0.977242 14.2681 0.977242 13.6818C1.17276 10.4568 2.54095 7.525 4.59319 5.375C6.93862 2.93181 10.1636 1.27043 13.6818 0.977242C14.2682 0.977242 14.6591 0.488621 14.6591 0Z" fill="#E2E7F0"/>
<path d="M41.8274 37.0386L41.241 36.55C41.7296 37.1364 42.0228 37.9182 42.0228 38.7C42.0228 39.9704 40.4592 40.4591 39.5796 39.5796L29.3183 29.3182C28.7319 28.7318 27.8524 28.7318 27.2661 29.3182L26.2888 30.2954L36.9411 41.7295C37.5274 42.3159 38.3092 42.8045 39.0911 42.9023C40.1661 43 41.2411 42.6091 41.9251 41.925C42.6092 41.241 43.0001 40.166 42.9024 39.091C42.9024 38.3091 42.4137 37.625 41.8274 37.0386Z" fill="#A35425"/>
<path d="M31.7615 30.2954C31.6637 30.2954 31.4683 30.2954 31.3705 30.1976L28.9273 27.7545C28.7319 27.559 28.7319 27.2658 28.9273 27.0704C29.1228 26.875 29.416 26.875 29.6114 27.0704L32.0546 29.5136C32.25 29.709 32.25 30.0022 32.0546 30.1976C32.0547 30.2954 31.8591 30.2954 31.7615 30.2954Z" fill="#C97629"/>
</g>
<defs>
<clipPath id="clip0_2446:374896">
<rect width="43" height="43" fill="white"/>
</clipPath>
</defs>
</svg>
